<?xml version="1.0" standalone="no"?>
<!DOCTYPE svg PUBLIC "-//W3C//DTD SVG 20010904//EN"
 "http://www.w3.org/TR/2001/REC-SVG-20010904/DTD/svg10.dtd">
<svg version="1.0" xmlns="http://www.w3.org/2000/svg"
 width="64.000000pt" height="64.000000pt" viewBox="0 0 64.000000 64.000000"
 preserveAspectRatio="xMidYMid meet">
<metadata>
Created by potrace 1.16, written by Peter Selinger 2001-2019
</metadata>
<g fill-opacity="0.5"><g transform="translate(0.000000,64.000000) scale(0.100000,-0.100000)"
fill="#00007f" stroke="none">
<path d="M455 521 c-11 -5 -50 -14 -87 -21 -69 -13 -91 -30 -39 -30 26 0 133
21 184 36 9 3 17 10 17 15 0 11 -47 11 -75 0z"/>
</g>
<g transform="translate(0.000000,64.000000) scale(0.100000,-0.100000)"
fill="#0000fe" stroke="none">
<path d="M455 521 c-11 -5 -50 -14 -87 -21 -69 -13 -91 -30 -39 -30 26 0 133
21 184 36 9 3 17 10 17 15 0 11 -47 11 -75 0z"/>
</g>
<g transform="translate(0.000000,64.000000) scale(0.100000,-0.100000)"
fill="#0060ff" stroke="none">
<path d="M455 521 c-11 -5 -50 -14 -87 -21 -69 -13 -91 -30 -39 -30 26 0 133
21 184 36 9 3 17 10 17 15 0 11 -47 11 -75 0z"/>
</g>
<g transform="translate(0.000000,64.000000) scale(0.100000,-0.100000)"
fill="#00d4ff" stroke="none">
<path d="M455 521 c-11 -5 -50 -14 -87 -21 -69 -13 -91 -30 -39 -30 26 0 133
21 184 36 9 3 17 10 17 15 0 11 -47 11 -75 0z"/>
</g>
<g transform="translate(0.000000,64.000000) scale(0.100000,-0.100000)"
fill="#4cffaa" stroke="none">
<path d="M455 521 c-11 -5 -50 -14 -87 -21 -69 -13 -91 -30 -39 -30 26 0 133
21 184 36 9 3 17 10 17 15 0 11 -47 11 -75 0z"/>
</g>
<g transform="translate(0.000000,64.000000) scale(0.100000,-0.100000)"
fill="#aaff4c" stroke="none">
<path d="M455 521 c-11 -5 -50 -14 -87 -21 -69 -13 -91 -30 -39 -30 26 0 133
21 184 36 9 3 17 10 17 15 0 11 -47 11 -75 0z"/>
</g>
<g transform="translate(0.000000,64.000000) scale(0.100000,-0.100000)"
fill="#ffe500" stroke="none">
<path d="M455 521 c-11 -5 -50 -14 -87 -21 -69 -13 -91 -30 -39 -30 26 0 133
21 184 36 9 3 17 10 17 15 0 11 -47 11 -75 0z"/>
</g>
<g transform="translate(0.000000,64.000000) scale(0.100000,-0.100000)"
fill="#ff7a00" stroke="none">
<path d="M455 521 c-11 -5 -50 -14 -87 -21 -69 -13 -91 -30 -39 -30 26 0 133
21 184 36 9 3 17 10 17 15 0 11 -47 11 -75 0z"/>
</g>
<g transform="translate(0.000000,64.000000) scale(0.100000,-0.100000)"
fill="#fe1200" stroke="none">
<path d="M455 521 c-11 -5 -50 -14 -87 -21 -69 -13 -91 -30 -39 -30 26 0 133
21 184 36 9 3 17 10 17 15 0 11 -47 11 -75 0z"/>
</g>
<g transform="translate(0.000000,64.000000) scale(0.100000,-0.100000)"
fill="#7f0000" stroke="none">
<path d="M455 521 c-11 -5 -50 -14 -87 -21 -69 -13 -91 -30 -39 -30 26 0 133
21 184 36 9 3 17 10 17 15 0 11 -47 11 -75 0z"/>
</g>
</g></svg>
