<?xml version="1.0" encoding="utf-8" ?>
<svg baseProfile="tiny" height="128" version="1.2" viewBox="0,0,128,128" width="128" xmlns="http://www.w3.org/2000/svg" xmlns:ev="http://www.w3.org/2001/xml-events" xmlns:xlink="http://www.w3.org/1999/xlink"><defs /><polyline fill="none" points="61.8231,21.3333 70.5306,23.0748 80.9796,28.7347 83.5918,32.2177 84.4626,38.3129 93.6054,36.5714 102.7483,28.2993 105.3605,22.6395 104.4898,18.2857 101.0068,13.4966 93.1701,9.5782 85.7687,8.7075 79.2381,10.0136" stroke="#00007f" stroke-width="2" /><polyline fill="none" points="96.6531,41.3605 96.6531,64.8707" stroke="#004cff" stroke-width="2" /><polyline fill="none" points="105.3605,68.3537 100.1361,66.1769 91.4286,66.6122 83.1565,69.6599 80.1088,73.5782 78.8027,79.2381 80.5442,85.3333 84.4626,90.9932 91.4286,95.3469 100.5714,95.7823 107.102,94.4762 117.1156,89.2517 119.2925,83.1565 118.4218,73.5782 113.6327,67.9184 105.3605,64.8707 96.6531,66.1769" stroke="#29ffcd" stroke-width="2" /><polyline fill="none" points="97.5238,62.6939 90.9932,59.2109 77.932,55.7279 59.2109,52.2449 40.9252,50.068 32.2177,50.9388" stroke="#cdff29" stroke-width="2" /><polyline fill="none" points="40.9252,48.3265 29.6054,47.0204 20.4626,50.068 10.8844,61.3878 8.7075,69.6599 10.8844,78.8027 16.1088,84.0272 23.0748,86.2041 30.9116,85.3333 36.1361,82.2857 43.102,71.4014 43.9728,65.7415 42.6667,56.5986 39.1837,50.068 31.7823,46.1497 23.9456,47.0204" stroke="#ff6700" stroke-width="2" /><polyline fill="none" points="54.4218,53.9864 52.6803,49.6327 50.068,29.6054 47.4558,23.5102 52.6803,26.1224 62.6939,26.1224 54.4218,23.0748 34.3946,19.1565" stroke="#7f0000" stroke-width="2" /></svg>