<?xml version="1.0" encoding="utf-8" ?>
<svg baseProfile="tiny" height="128" version="1.2" viewBox="0,0,128,128" width="128" xmlns="http://www.w3.org/2000/svg" xmlns:ev="http://www.w3.org/2001/xml-events" xmlns:xlink="http://www.w3.org/1999/xlink"><defs /><polyline fill="none" points="30.8068,50.7661 27.3356,48.5966 23.4305,49.0305 18.2237,52.0678 9.5458,63.3492 8.678,68.5559 9.1119,73.7627 11.2814,77.2339 17.3559,81.5729 24.7322,82.8746 33.8441,81.5729 47.2949,74.1966 52.0678,63.3492 52.0678,57.7085 50.3322,53.3695 41.6542,46.4271 36.4475,44.6915 30.8068,45.5593" stroke="#00007f" stroke-width="2" /><polyline fill="none" points="117.1525,46.4271 111.5119,45.5593 105.8712,47.2949 98.4949,51.2 89.8169,59.4441 87.2136,65.5186 87.2136,70.7254 89.3831,75.0644 94.5898,79.4034 101.9661,81.5729 108.4746,80.7051 116.7186,72.461 119.322,62.9153 118.8881,56.8407 117.5864,51.6339 111.5119,45.5593 106.739,43.8237 100.6644,44.2576" stroke="#004cff" stroke-width="2" /><polyline fill="none" points="30.3729,50.7661 29.0712,40.3525 32.5424,39.9186 105.8712,42.0881 107.6068,47.2949" stroke="#29ffcd" stroke-width="2" /><polyline fill="none" points="104.1356,44.2576 105.0034,30.8068 111.5119,10.8475" stroke="#cdff29" stroke-width="2" /><polyline fill="none" points="104.5695,17.3559 87.2136,8.678" stroke="#ff6700" stroke-width="2" /><polyline fill="none" points="63.3492,37.7492 62.0475,23.4305 48.5966,22.5627 39.9186,26.0339 38.6169,29.0712 39.9186,31.6746 49.0305,35.5797 57.7085,35.1458 68.9898,31.6746" stroke="#7f0000" stroke-width="2" /></svg>