<?xml version="1.0" encoding="utf-8" ?>
<svg baseProfile="tiny" height="128" version="1.2" viewBox="0,0,128,128" width="128" xmlns="http://www.w3.org/2000/svg" xmlns:ev="http://www.w3.org/2001/xml-events" xmlns:xlink="http://www.w3.org/1999/xlink"><defs /><polyline fill="none" points="26.9932,31.7823 19.1565,33.9592 15.2381,37.0068 8.7075,48.3265 9.1429,55.2925 10.8844,59.2109 15.2381,62.6939 21.7687,63.5646 38.7483,50.5034 43.9728,43.5374 44.8435,38.3129 40.9252,34.8299 33.9592,32.2177 21.7687,32.2177" stroke="#00007f" stroke-width="2" /><polyline fill="none" points="87.0748,32.2177 79.6735,34.8299 71.8367,43.9728 69.2245,54.4218 71.8367,55.7279 78.8027,57.034 87.9456,56.5986 95.7823,51.8095 99.2653,46.1497 99.7007,39.619 90.9932,31.3469 85.7687,29.1701 80.1088,29.1701" stroke="#0080ff" stroke-width="2" /><polyline fill="none" points="27.4286,30.0408 33.9592,35.2653 40.4898,35.7007 73.1429,35.7007 85.3333,32.2177 91.8639,32.2177 96.6531,29.1701 99.2653,24.8163 101.8776,14.3673 108.4082,8.7075" stroke="#7cff79" stroke-width="2" /><polyline fill="none" points="90.9932,9.5782 109.7143,9.5782 111.0204,11.3197 119.2925,13.0612" stroke="#ff9400" stroke-width="2" /><polyline fill="none" points="103.1837,16.1088 97.9592,23.0748 91.4286,26.9932 70.0952,28.2993 47.0204,32.6531 40.9252,32.6531 32.6531,27.8639 20.0272,26.5578 15.2381,31.7823 13.932,38.7483 21.3333,47.8912" stroke="#7f0000" stroke-width="2" /></svg>