<?xml version="1.0" encoding="utf-8" ?>
<svg baseProfile="tiny" height="128" version="1.2" viewBox="0,0,128,128" width="128" xmlns="http://www.w3.org/2000/svg" xmlns:ev="http://www.w3.org/2001/xml-events" xmlns:xlink="http://www.w3.org/1999/xlink"><defs /><polyline fill="none" points="12.5831,64.6508 8.678,50.3322 9.1119,42.522 10.8475,39.0508 14.7525,36.4475 25.6,35.5797 35.5797,41.2203 41.2203,49.4644 42.0881,59.0102 38.6169,62.4814 33.4102,63.7831 16.4881,64.2169 14.7525,61.6136 14.7525,52.9356" stroke="#00007f" stroke-width="2" /><polyline fill="none" points="23.8644,54.6712 25.6,54.2373 29.5051,47.2949 41.2203,17.3559" stroke="#0010ff" stroke-width="2" /><polyline fill="none" points="42.0881,16.922 42.9559,31.6746 35.1458,55.539" stroke="#00a4ff" stroke-width="2" /><polyline fill="none" points="42.9559,15.6203 44.6915,18.2237 52.5017,19.5254 89.3831,19.9593 97.1932,18.2237 98.4949,15.1864 98.9288,9.1119 85.0441,9.9797" stroke="#3fffb7" stroke-width="2" /><polyline fill="none" points="98.9288,8.678 119.322,12.5831" stroke="#b7ff3f" stroke-width="2" /><polyline fill="none" points="89.8169,19.0915 96.3254,27.7695 106.739,49.8983" stroke="#ffb900" stroke-width="2" /><polyline fill="none" points="108.9085,58.5763 104.5695,59.4441 100.6644,55.1051 97.6271,47.7288 98.4949,43.3898 103.7017,42.522 113.6814,45.5593 116.2847,49.0305 116.7186,52.0678 111.9458,58.1424 105.8712,58.1424 98.4949,52.9356" stroke="#ff3000" stroke-width="2" /><polyline fill="none" points="41.6542,15.6203 43.8237,17.3559" stroke="#7f0000" stroke-width="2" /></svg>