<svg version="1.1" width="64" height="64" viewBox="0 0 1024 1024" xmlns="http://www.w3.org/2000/svg">
<g transform="rotate(0,512,512) scale(1,-1) translate(0,-900)">
        <path d="M 197 705 Q 184 715 161 722 Q 143 729 133 724 Q 123 717 130 705 Q 151 681 156 617 Q 156 605 157 590 Q 164 425 135 297 Q 108 189 43 64 Q 39 58 38 52 Q 37 42 46 46 Q 61 49 91 99 Q 155 189 184 329 L 189 357 Q 201 429 204 499 L 205 530 Q 205 656 208 677 L 197 705 Z"></path>
        <path d="M 361 289 Q 346 644 365 679 Q 375 698 364 707 Q 343 725 309 738 Q 291 745 276 737 Q 257 724 243 719 Q 227 712 197 705 L 208 677 Q 226 676 268 693 Q 287 699 292 689 Q 305 650 310 360 Q 310 129 296 105 Q 292 99 271 103 Q 241 109 211 116 Q 192 120 193 111 Q 254 66 291 32 Q 304 14 319 11 Q 328 7 335 17 Q 368 56 369 134 Q 365 195 362 267 L 361 289 Z"></path>
        <path d="M 204 499 Q 246 508 275 513 Q 294 519 286 530 Q 274 540 252 542 Q 233 542 205 530 L 204 499 Z"></path>
        <path d="M 184 329 Q 185 329 189 329 Q 240 336 277 342 Q 298 346 289 357 Q 279 370 256 373 Q 217 376 189 357 L 184 329 Z"></path>
        <path d="M 543 684 Q 583 762 598 776 Q 605 786 601 799 Q 595 812 566 831 Q 539 846 521 845 Q 503 841 513 821 Q 546 761 396 530 Q 387 520 385 513 Q 384 503 396 506 Q 415 512 466 573 L 485 598 Q 488 602 492 607 Q 508 629 526 656 L 543 684 Z"></path>
        <path d="M 578 477 Q 493 363 361 289 L 362 267 Q 512 312 613 443 L 639 479 Q 679 537 718 619 Q 734 647 759 666 Q 774 673 774 683 Q 773 696 744 712 Q 708 734 694 734 Q 682 733 671 724 Q 587 690 543 684 L 526 656 Q 559 644 633 675 Q 655 684 664 677 Q 671 673 652 619 Q 637 565 599 510 L 578 477 Z"></path>
        <path d="M 466 573 Q 493 561 578 477 L 613 443 Q 700 361 774 297 Q 795 278 823 283 Q 976 310 985 325 Q 988 334 977 336 Q 812 366 728 416 Q 686 443 639 479 L 599 510 Q 559 543 514 583 Q 501 598 485 598 L 466 573 Z"></path>
        <path d="M 479 246 Q 467 252 436 256 Q 424 260 421 254 Q 414 248 423 232 Q 453 169 471 67 Q 474 36 492 15 Q 510 -7 515 9 Q 519 21 519 38 L 515 73 Q 515 74 515 77 Q 496 180 492 214 L 479 246 Z"></path>
        <path d="M 727 102 Q 749 187 784 217 Q 800 236 786 255 Q 708 313 654 286 Q 585 262 479 246 L 492 214 Q 508 214 660 242 Q 676 245 683 238 Q 701 220 675 104 L 727 102 Z"></path>
        <path d="M 519 38 Q 556 50 743 66 Q 753 67 755 76 Q 755 83 727 102 L 675 104 Q 587 83 515 73 L 519 38 Z"></path>
</g>
</svg>