<?xml version="1.0" encoding="utf-8" ?>
<svg baseProfile="tiny" height="128" version="1.2" viewBox="0,0,128,128" width="128" xmlns="http://www.w3.org/2000/svg" xmlns:ev="http://www.w3.org/2001/xml-events" xmlns:xlink="http://www.w3.org/1999/xlink"><defs /><polyline fill="none" points="72.2721,25.2517 37.0068,26.9932 29.6054,28.2993 24.381,31.3469 16.1088,41.3605 9.1429,56.5986 8.7075,70.5306 12.6259,82.7211 14.3673,85.7687 19.1565,88.381 34.3946,90.9932 76.6259,91.4286 92.2993,88.381 101.8776,81.8503 114.5034,60.9524 119.2925,44.4082 117.551,29.6054 110.1497,17.8503 104.0544,13.0612 95.7823,10.0136 84.0272,8.7075 70.0952,9.5782 66.6122,12.6259 62.2585,20.0272 59.6463,40.0544" stroke="#00007f" stroke-width="2" /><polyline fill="none" points="95.7823,11.3197 86.2041,15.2381 76.6259,23.5102 75.3197,30.9116 77.0612,37.0068 81.8503,43.5374 93.6054,48.7619 105.3605,56.1633 111.4558,57.4694" stroke="#7cff79" stroke-width="2" /><polyline fill="none" points="28.7347,33.0884 30.9116,35.2653 50.5034,43.9728 52.2449,46.585 52.2449,52.2449 50.9388,55.7279 39.1837,67.0476 31.7823,70.5306 22.6395,71.4014 20.0272,73.1429" stroke="#7f0000" stroke-width="2" /></svg>