<?xml version="1.0" encoding="utf-8" ?>
<svg baseProfile="tiny" height="128" version="1.2" viewBox="0,0,128,128" width="128" xmlns="http://www.w3.org/2000/svg" xmlns:ev="http://www.w3.org/2001/xml-events" xmlns:xlink="http://www.w3.org/1999/xlink"><defs /><polyline fill="none" points="78.1017,38.1831 77.6678,21.261 71.1593,10.8475 66.3864,9.1119 58.1424,8.678 43.3898,12.1492 34.278,18.2237 23.4305,31.6746 9.9797,57.7085 8.678,68.5559 11.2814,84.6102 16.0542,98.4949 23.8644,108.9085 29.0712,112.3797 34.7119,114.1153 39.4847,114.1153 48.1627,111.078 114.5492,73.3288 118.0203,68.9898 119.322,59.0102 118.0203,52.0678 111.9458,41.6542 92.8542,25.6 83.7424,24.2983 78.1017,19.9593" stroke="#00007f" stroke-width="2" /><polyline fill="none" points="67.2542,58.1424 65.0847,32.1085 56.8407,8.678" stroke="#00d4ff" stroke-width="2" /><polyline fill="none" points="65.9525,57.2746 55.9729,74.6305 50.7661,88.5153 43.3898,103.2678 37.3153,108.0407 36.8814,105.8712 38.1831,102.4" stroke="#ffe500" stroke-width="2" /><polyline fill="none" points="67.6881,57.7085 78.5356,69.8576 97.1932,79.8373" stroke="#7f0000" stroke-width="2" /></svg>