<?xml version="1.0" encoding="utf-8" ?>
<svg baseProfile="tiny" height="128" version="1.2" viewBox="0,0,128,128" width="128" xmlns="http://www.w3.org/2000/svg" xmlns:ev="http://www.w3.org/2001/xml-events" xmlns:xlink="http://www.w3.org/1999/xlink"><defs /><polyline fill="none" points="75.0644,12.1492 66.8203,9.1119 53.8034,8.678 34.278,13.0169 27.3356,18.6576 21.261,26.0339 12.5831,41.2203 10.4136,48.5966 8.678,70.7254 17.7898,91.9864 29.5051,104.5695 37.7492,109.3424 53.3695,112.8136 66.8203,112.8136 75.9322,110.6441 92.8542,102.4 102.4,94.1559 114.1153,76.3661 118.4542,60.7458 119.322,48.5966 109.7763,35.1458 93.2881,22.9966 72.461,12.1492" stroke="#00007f" stroke-width="2" /><polyline fill="none" points="35.5797,13.8847 30.3729,25.6 30.3729,33.8441 32.9763,40.3525 37.3153,47.7288 44.6915,54.2373 55.9729,59.878 64.6508,60.3119 70.7254,58.5763 77.2339,54.2373 85.9119,42.522 92.8542,25.6" stroke="#7cff79" stroke-width="2" /><polyline fill="none" points="33.4102,96.3254 39.4847,85.0441 46.4271,78.9695 58.5763,76.3661 68.5559,76.3661 75.9322,79.8373 81.5729,85.0441 91.5525,101.0983 92.8542,110.2102" stroke="#7f0000" stroke-width="2" /></svg>