<?xml version="1.0" encoding="utf-8" ?>
<svg baseProfile="tiny" height="128" version="1.2" viewBox="0,0,128,128" width="128" xmlns="http://www.w3.org/2000/svg" xmlns:ev="http://www.w3.org/2001/xml-events" xmlns:xlink="http://www.w3.org/1999/xlink"><defs /><polyline fill="none" points="35.1458,22.1288 56.4068,15.1864 78.1017,18.6576 83.7424,21.6949 89.3831,26.4678 105.0034,47.2949 115.8508,75.0644 114.9831,86.3458 108.4746,98.061 91.5525,114.9831 73.7627,119.322 46.4271,118.0203 35.1458,114.9831 24.2983,107.1729 20.8271,101.5322 16.4881,72.8949 10.8475,61.6136 8.678,50.7661 9.9797,45.1254 14.3186,39.9186 19.5254,36.4475 22.1288,30.8068 27.3356,29.939 41.6542,45.9932 43.8237,51.6339 45.1254,57.7085 42.0881,68.5559 41.6542,73.7627 45.1254,103.7017 45.1254,114.9831" stroke="#00007f" stroke-width="2" /><polyline fill="none" points="71.5932,8.678 70.7254,14.3186 71.5932,19.5254 71.5932,45.1254 75.0644,82.8746 77.6678,88.5153 82.8746,90.6847 98.4949,90.6847" stroke="#7cff79" stroke-width="2" /><polyline fill="none" points="38.6169,50.7661 44.2576,51.6339" stroke="#7f0000" stroke-width="2" /></svg>