<?xml version="1.0" encoding="utf-8" ?>
<svg baseProfile="tiny" height="128" version="1.2" viewBox="0,0,128,128" width="128" xmlns="http://www.w3.org/2000/svg" xmlns:ev="http://www.w3.org/2001/xml-events" xmlns:xlink="http://www.w3.org/1999/xlink"><defs /><polyline fill="none" points="85.9119,34.278 87.2136,31.6746 67.2542,13.0169 54.6712,8.678 47.2949,9.9797 28.2034,24.7322 16.0542,44.2576 9.5458,65.5186 8.678,94.5898 10.8475,101.0983 17.3559,108.9085 31.2407,113.2475 53.8034,114.1153 66.8203,116.7186 72.8949,116.7186 75.9322,115.4169 83.7424,104.5695 95.4576,72.461 99.7966,54.2373 99.7966,43.3898 96.3254,36.8814 85.0441,26.9017 74.1966,20.3932" stroke="#00007f" stroke-width="2" /><polyline fill="none" points="32.9763,20.8271 34.278,25.6 36.0136,58.5763 35.1458,80.7051 32.9763,90.2508 23.8644,111.5119 23.8644,87.6475" stroke="#7cff79" stroke-width="2" /><polyline fill="none" points="39.0508,15.1864 39.4847,26.0339 49.0305,55.1051 49.0305,71.5932 42.9559,94.1559 32.1085,119.322" stroke="#7f0000" stroke-width="2" /></svg>