<?xml version="1.0" encoding="utf-8" ?>
<svg baseProfile="tiny" height="128" version="1.2" viewBox="0,0,128,128" width="128" xmlns="http://www.w3.org/2000/svg" xmlns:ev="http://www.w3.org/2001/xml-events" xmlns:xlink="http://www.w3.org/1999/xlink"><defs /><polyline fill="none" points="62.9153,8.678 55.1051,19.5254 45.5593,28.6373 34.7119,35.5797 24.2983,47.2949 12.1492,57.2746 8.678,66.8203 8.678,78.5356 12.5831,90.6847 23.8644,103.7017 41.2203,112.3797 60.3119,117.5864 78.1017,118.8881 87.2136,118.8881 91.1186,117.5864 111.5119,93.2881 117.5864,82.4407 119.322,74.6305 119.322,48.1627 114.9831,32.1085 106.739,22.9966 103.7017,22.9966 95.0237,17.3559 82.4407,12.5831 73.3288,11.7153 70.2915,13.4508 66.8203,18.2237" stroke="#00007f" stroke-width="2" /><polyline fill="none" points="91.9864,18.2237 75.9322,27.3356 68.122,37.3153 57.2746,45.9932 50.7661,52.9356 42.0881,68.9898 33.4102,98.9288" stroke="#0080ff" stroke-width="2" /><polyline fill="none" points="32.1085,60.7458 37.7492,65.0847 43.8237,80.7051 43.8237,78.9695" stroke="#7cff79" stroke-width="2" /><polyline fill="none" points="45.5593,46.4271 49.8983,47.7288 53.8034,57.7085" stroke="#ff9400" stroke-width="2" /><polyline fill="none" points="59.4441,39.9186 59.4441,39.9186" stroke="#7f0000" stroke-width="2" /></svg>