<?xml version="1.0" encoding="utf-8" ?>
<svg baseProfile="tiny" height="128" version="1.2" viewBox="0,0,128,128" width="128" xmlns="http://www.w3.org/2000/svg" xmlns:ev="http://www.w3.org/2001/xml-events" xmlns:xlink="http://www.w3.org/1999/xlink"><defs /><polyline fill="none" points="69.8576,8.678 60.7458,9.1119 52.9356,11.7153 39.0508,13.0169 33.4102,14.7525 25.1661,19.5254 14.7525,32.1085 9.9797,41.2203 8.678,49.4644 9.5458,67.6881 13.8847,78.9695 19.5254,85.478 29.939,93.2881 43.3898,100.6644 57.2746,105.4373 78.5356,109.7763 92.4203,109.3424 99.7966,106.3051 101.9661,104.5695 109.7763,91.1186 117.1525,71.1593 118.8881,62.9153 119.322,52.5017 117.1525,38.6169 111.5119,29.0712 98.061,19.0915 62.9153,10.4136 60.7458,10.4136 59.0102,14.3186" stroke="#00007f" stroke-width="2" /><polyline fill="none" points="44.2576,14.3186 42.9559,22.1288 37.3153,39.0508 29.0712,78.5356 26.9017,84.6102 18.2237,97.6271 19.0915,89.8169 24.7322,79.8373" stroke="#7cff79" stroke-width="2" /><polyline fill="none" points="82.0068,13.0169 84.1763,35.5797 89.3831,70.2915 92.4203,77.6678 98.061,105.0034 100.2305,108.9085 102.8339,109.7763" stroke="#7f0000" stroke-width="2" /></svg>