<?xml version="1.0" encoding="utf-8" ?>
<svg baseProfile="tiny" height="128" version="1.2" viewBox="0,0,128,128" width="128" xmlns="http://www.w3.org/2000/svg" xmlns:ev="http://www.w3.org/2001/xml-events" xmlns:xlink="http://www.w3.org/1999/xlink"><defs /><polyline fill="none" points="62.9003,8.7973 43.1065,27.2715 27.7113,39.1478 23.3127,44.4261 13.1959,64.2199 8.7973,82.2543 9.677,100.7285 11.4364,106.8866 21.5533,116.1237 32.5498,119.2027 42.6667,117.4433 53.2234,113.9244 64.2199,101.1684 71.2577,88.8522 83.5739,57.1821 90.6117,23.3127 89.2921,15.8351 84.4536,14.0756 72.5773,14.5155 51.4639,17.5945" stroke="#00007f" stroke-width="2" /><polyline fill="none" points="40.0275,30.3505 42.2268,34.3093 41.7869,40.0275 36.0687,59.3814 32.5498,78.2955 32.11,101.6082 35.189,118.7629" stroke="#7cff79" stroke-width="2" /><polyline fill="none" points="74.3368,14.0756 62.9003,49.2646 61.1409,58.0619 61.5808,75.6564 59.3814,93.2509 57.622,101.6082 54.1031,108.2062" stroke="#7f0000" stroke-width="2" /></svg>