<?xml version="1.0" encoding="utf-8" ?>
<svg baseProfile="tiny" height="128" version="1.2" viewBox="0,0,128,128" width="128" xmlns="http://www.w3.org/2000/svg" xmlns:ev="http://www.w3.org/2001/xml-events" xmlns:xlink="http://www.w3.org/1999/xlink"><defs /><polyline fill="none" points="31.6746,26.4678 33.8441,26.0339 39.0508,19.5254 50.3322,14.3186 68.5559,9.1119 75.4983,8.678 80.7051,10.4136 98.9288,20.3932 111.9458,46.4271 114.5492,62.0475 111.5119,65.5186 98.061,88.0814 91.9864,92.4203 49.8983,93.722 41.2203,92.8542 35.1458,90.2508 21.261,83.7424 16.922,78.9695 8.678,47.2949 9.5458,39.9186 21.261,34.7119 31.2407,27.3356" stroke="#00007f" stroke-width="2" /><polyline fill="none" points="38.6169,18.2237 48.1627,18.6576 55.9729,26.9017 60.3119,42.9559 62.4814,56.4068 62.0475,64.2169 59.878,68.5559 38.1831,74.6305 34.278,81.5729 22.1288,87.2136" stroke="#00d4ff" stroke-width="2" /><polyline fill="none" points="86.3458,12.5831 82.4407,16.4881 81.5729,21.6949 81.5729,55.539 89.8169,62.9153 98.9288,67.6881 119.322,72.8949" stroke="#ffe500" stroke-width="2" /><polyline fill="none" points="76.8,22.9966 84.6102,25.6" stroke="#7f0000" stroke-width="2" /></svg>