<?xml version="1.0" encoding="utf-8" ?>
<svg baseProfile="tiny" height="128" version="1.2" viewBox="0,0,128,128" width="128" xmlns="http://www.w3.org/2000/svg" xmlns:ev="http://www.w3.org/2001/xml-events" xmlns:xlink="http://www.w3.org/1999/xlink"><defs /><polyline fill="none" points="85.7687,14.3673 77.4966,14.3673 70.0952,16.1088 44.4082,26.1224 30.0408,36.1361 19.1565,47.4558 10.449,61.3878 8.7075,70.5306 8.7075,81.415 11.7551,88.381 20.4626,95.7823 23.9456,97.9592 40.4898,102.3129 51.8095,102.3129 73.5782,97.9592 89.2517,89.2517 108.4082,73.1429 111.4558,66.6122 112.3265,49.6327 115.3741,29.6054 113.6327,18.7211 111.4558,15.6735 108.4082,13.932 94.0408,9.1429 84.898,8.7075 82.2857,11.7551" stroke="#00007f" stroke-width="2" /><polyline fill="none" points="58.7755,23.0748 55.7279,23.9456 48.3265,33.0884 41.3605,59.6463 41.3605,63.1293 44.4082,69.6599 47.0204,72.7075 52.2449,75.3197 58.7755,74.449 69.6599,62.6939 80.1088,54.4218 101.0068,46.1497 119.2925,36.5714 104.0544,35.7007" stroke="#7f0000" stroke-width="2" /></svg>