<?xml version="1.0" encoding="utf-8" ?>
<svg baseProfile="tiny" height="128" version="1.2" viewBox="0,0,128,128" width="128" xmlns="http://www.w3.org/2000/svg" xmlns:ev="http://www.w3.org/2001/xml-events" xmlns:xlink="http://www.w3.org/1999/xlink"><defs /><polyline fill="none" points="97.1932,21.6949 84.6102,15.1864 65.5186,9.9797 50.3322,8.678 36.8814,9.9797 23.4305,19.0915 17.3559,26.9017 12.5831,35.1458 8.678,50.7661 8.678,71.5932 11.2814,77.6678 19.9593,87.2136 29.0712,95.0237 39.0508,98.9288 51.2,101.0983 67.6881,101.0983 84.6102,97.1932 98.4949,88.9492 108.0407,80.7051 114.5492,65.0847 114.5492,41.2203 102.4,18.6576 97.1932,13.8847 88.0814,13.4508" stroke="#00007f" stroke-width="2" /><polyline fill="none" points="48.5966,9.9797 52.0678,11.7153 55.9729,21.6949 55.9729,40.7864 52.5017,53.8034 38.6169,72.0271 15.6203,92.8542 14.7525,97.1932" stroke="#7cff79" stroke-width="2" /><polyline fill="none" points="119.322,40.7864 91.1186,48.1627 76.8,62.9153 71.5932,73.7627 65.5186,92.4203 66.3864,110.2102 68.9898,112.8136" stroke="#7f0000" stroke-width="2" /></svg>