<?xml version="1.0" encoding="utf-8" ?>
<svg baseProfile="tiny" height="128" version="1.2" viewBox="0,0,128,128" width="128" xmlns="http://www.w3.org/2000/svg" xmlns:ev="http://www.w3.org/2001/xml-events" xmlns:xlink="http://www.w3.org/1999/xlink"><defs /><polyline fill="none" points="36.1361,107.5374 21.7687,96.2177 14.3673,86.2041 8.7075,64.0 8.7075,51.3741 13.0612,39.1837 26.9932,22.2041 39.1837,13.0612 52.2449,8.7075 62.2585,9.1429 76.1905,14.3673 83.1565,16.9796 95.7823,24.8163 112.7619,40.4898 119.2925,55.7279 117.551,64.0 111.8912,74.8844 94.0408,94.0408 71.4014,103.1837 50.068,107.102" stroke="#00007f" stroke-width="2" /><polyline fill="none" points="23.5102,27.4286 29.6054,26.9932 37.8776,32.2177 44.8435,43.102 50.5034,55.2925 51.8095,68.7891 51.3741,76.6259 46.585,88.8163 41.3605,93.6054" stroke="#7cff79" stroke-width="2" /><polyline fill="none" points="86.6395,21.7687 78.8027,37.8776 79.2381,48.7619 87.5102,66.1769 94.0408,71.8367 105.3605,74.449" stroke="#7f0000" stroke-width="2" /></svg>