<?xml version="1.0" encoding="utf-8" ?>
<svg baseProfile="tiny" height="128" version="1.2" viewBox="0,0,128,128" width="128" xmlns="http://www.w3.org/2000/svg" xmlns:ev="http://www.w3.org/2001/xml-events" xmlns:xlink="http://www.w3.org/1999/xlink"><defs /><polyline fill="none" points="76.1905,111.0204 69.6599,114.9388 64.0,116.2449 40.9252,116.2449 26.9932,106.2313 21.3333,100.1361 16.1088,91.4286 10.449,77.4966 8.7075,69.2245 8.7075,48.3265 13.932,42.2313 21.7687,27.4286 28.2993,21.3333 45.2789,12.6259 55.7279,10.449 65.3061,8.7075 81.415,8.7075 96.6531,16.1088 108.4082,26.9932 114.068,33.5238 119.2925,47.8912 119.2925,69.6599 98.3946,96.2177 85.3333,105.3605 74.449,110.1497 72.2721,110.585 69.2245,104.9252 66.6122,90.5578 63.5646,81.415 54.8571,66.1769 50.5034,60.9524 39.1837,55.7279 27.8639,54.8571" stroke="#00007f" stroke-width="2" /><polyline fill="none" points="87.9456,23.5102 81.415,30.9116 79.6735,37.4422 78.8027,60.0816 86.6395,72.2721 96.2177,80.9796" stroke="#7f0000" stroke-width="2" /></svg>