<?xml version="1.0" encoding="utf-8" ?>
<svg baseProfile="tiny" height="128" version="1.2" viewBox="0,0,128,128" width="128" xmlns="http://www.w3.org/2000/svg" xmlns:ev="http://www.w3.org/2001/xml-events" xmlns:xlink="http://www.w3.org/1999/xlink"><defs /><polyline fill="none" points="44.6915,73.7627 42.9559,73.7627 30.3729,86.3458 19.5254,99.3627 19.5254,102.4" stroke="#00007f" stroke-width="2" /><polyline fill="none" points="19.5254,101.9661 10.4136,105.0034 8.678,106.3051 8.678,110.2102 14.3186,118.0203 19.9593,119.322 23.4305,117.5864 26.0339,112.3797 24.7322,108.4746 25.6,104.5695 34.7119,92.4203 72.461,60.3119 102.4,41.2203" stroke="#7cff79" stroke-width="2" /><polyline fill="none" points="41.2203,75.0644 59.4441,50.7661 69.4237,39.4847 88.5153,21.6949 103.7017,10.8475 109.3424,8.678 114.5492,10.4136 116.2847,18.2237 115.8508,26.4678 108.9085,36.8814 95.8915,47.7288" stroke="#7f0000" stroke-width="2" /></svg>