<?xml version="1.0" encoding="utf-8" ?>
<svg baseProfile="tiny" height="128" version="1.2" viewBox="0,0,128,128" width="128" xmlns="http://www.w3.org/2000/svg" xmlns:ev="http://www.w3.org/2001/xml-events" xmlns:xlink="http://www.w3.org/1999/xlink"><defs /><polyline fill="none" points="82.7211,8.7075 60.517,8.7075 49.1973,13.0612 36.5714,20.4626 26.1224,28.7347 16.5442,40.9252 10.0136,55.7279 8.7075,65.3061 8.7075,73.5782 10.449,78.8027 16.5442,86.6395 26.1224,93.1701 40.4898,97.9592 78.3673,98.8299 100.5714,94.4762 109.2789,90.5578 114.9388,84.898 118.8571,74.449 119.2925,51.3741 114.068,36.1361 106.2313,24.8163 99.2653,18.7211 89.2517,13.0612 77.0612,8.7075 67.483,8.7075 62.2585,10.449" stroke="#00007f" stroke-width="2" /><polyline fill="none" points="31.7823,17.415 50.9388,33.0884 57.034,40.4898 62.2585,52.6803 63.5646,60.9524 62.6939,73.1429 55.2925,81.8503 38.3129,91.8639 47.4558,87.0748" stroke="#0080ff" stroke-width="2" /><polyline fill="none" points="112.3265,26.1224 106.6667,27.8639 97.0884,36.5714 90.5578,46.585 87.0748,59.2109 87.0748,67.9184 92.7347,77.4966 101.4422,87.0748 109.7143,92.7347 104.4898,84.4626 94.4762,76.6259" stroke="#7cff79" stroke-width="2" /><polyline fill="none" points="46.1497,40.4898 64.8707,40.4898 65.3061,41.7959 63.1293,44.8435 58.3401,57.034 56.5986,67.9184 58.7755,68.7891 70.0952,68.7891" stroke="#ff9400" stroke-width="2" /><polyline fill="none" points="101.4422,38.3129 85.3333,47.0204" stroke="#7f0000" stroke-width="2" /></svg>