<?xml version="1.0" encoding="utf-8" ?>
<svg baseProfile="tiny" height="128" version="1.2" viewBox="0,0,128,128" width="128" xmlns="http://www.w3.org/2000/svg" xmlns:ev="http://www.w3.org/2001/xml-events" xmlns:xlink="http://www.w3.org/1999/xlink"><defs /><polyline fill="none" points="9.5458,80.2712 10.4136,51.6339 16.4881,40.3525 29.939,25.1661 42.522,15.6203 55.9729,10.4136 71.1593,8.678 75.4983,10.4136 83.3085,17.3559 95.0237,33.8441 98.4949,44.6915 98.9288,52.9356 98.061,82.0068 91.9864,102.8339 87.2136,111.5119 79.8373,116.7186 75.9322,117.5864 67.2542,119.322 54.6712,119.322 44.6915,117.5864 36.4475,114.5492 29.0712,106.739 19.5254,93.2881 8.678,71.1593" stroke="#00007f" stroke-width="2" /><polyline fill="none" points="32.1085,22.1288 43.3898,30.3729 45.9932,34.278 45.1254,49.8983 36.0136,73.3288 26.4678,85.0441 15.6203,93.722" stroke="#7cff79" stroke-width="2" /><polyline fill="none" points="75.4983,14.3186 75.4983,34.7119 72.461,47.2949 71.5932,71.1593 68.122,91.1186 72.461,98.9288 88.0814,112.8136 88.9492,116.2847" stroke="#7f0000" stroke-width="2" /></svg>