<?xml version="1.0" encoding="utf-8" ?>
<svg baseProfile="tiny" height="128" version="1.2" viewBox="0,0,128,128" width="128" xmlns="http://www.w3.org/2000/svg" xmlns:ev="http://www.w3.org/2001/xml-events" xmlns:xlink="http://www.w3.org/1999/xlink"><defs /><polyline fill="none" points="85.3333,13.4966 82.2857,10.449 70.0952,9.1429 57.034,9.1429 46.1497,11.3197 35.7007,15.2381 26.1224,20.898 13.932,33.0884 11.3197,38.3129 8.7075,47.4558 9.1429,62.6939 17.8503,76.1905 31.7823,86.6395 43.5374,92.2993 56.5986,95.7823 70.5306,97.0884 84.0272,96.6531 101.0068,88.381 114.5034,71.4014 118.8571,58.7755 119.2925,46.585 117.9864,38.3129 114.068,30.9116 105.7959,21.3333 92.2993,10.8844 87.9456,9.1429 77.932,8.7075" stroke="#00007f" stroke-width="2" /><polyline fill="none" points="53.551,11.3197 57.4694,23.9456 57.4694,43.9728 53.1156,53.1156 47.0204,62.6939 29.1701,80.1088" stroke="#0000e8" stroke-width="2" /><polyline fill="none" points="114.9388,23.0748 111.8912,24.8163 98.8299,43.102 95.7823,49.1973 92.2993,61.8231 92.2993,81.415 93.6054,85.7687 107.102,103.619" stroke="#0038ff" stroke-width="2" /><polyline fill="none" points="26.9932,77.0612 41.3605,82.2857" stroke="#0094ff" stroke-width="2" /><polyline fill="none" points="32.6531,68.3537 44.4082,75.3197" stroke="#0cf4ea" stroke-width="2" /><polyline fill="none" points="38.7483,66.1769 40.9252,69.2245 46.1497,71.8367" stroke="#56ffa0" stroke-width="2" /><polyline fill="none" points="42.2313,61.8231 49.1973,67.9184" stroke="#a0ff56" stroke-width="2" /><polyline fill="none" points="46.585,56.5986 55.2925,61.8231" stroke="#eaff0c" stroke-width="2" /><polyline fill="none" points="50.9388,50.9388 54.8571,54.4218 58.7755,54.8571" stroke="#ffaa00" stroke-width="2" /><polyline fill="none" points="54.4218,42.2313 61.8231,43.9728" stroke="#ff5500" stroke-width="2" /><polyline fill="none" points="56.5986,35.2653 65.3061,36.1361" stroke="#e80000" stroke-width="2" /><polyline fill="none" points="59.6463,26.5578 67.483,27.8639" stroke="#7f0000" stroke-width="2" /></svg>