<?xml version="1.0" encoding="utf-8" ?>
<svg baseProfile="tiny" height="128" version="1.2" viewBox="0,0,128,128" width="128" xmlns="http://www.w3.org/2000/svg" xmlns:ev="http://www.w3.org/2001/xml-events" xmlns:xlink="http://www.w3.org/1999/xlink"><defs /><polyline fill="none" points="106.739,105.8712 104.5695,106.739 104.1356,108.4746 105.0034,111.078 107.6068,111.5119 116.7186,109.3424 119.322,106.739 114.9831,103.2678 110.6441,93.722 109.3424,86.7797 111.9458,74.6305 108.9085,58.1424 102.8339,39.4847 99.7966,32.5424 90.2508,21.6949 85.9119,11.2814 83.3085,9.1119 81.139,8.678 76.3661,10.8475 72.461,18.2237 71.5932,25.1661 73.7627,32.5424 82.8746,47.2949 85.0441,54.2373 91.9864,66.8203 95.4576,82.4407 99.3627,91.5525 103.2678,96.3254 105.4373,102.4" stroke="#00007f" stroke-width="2" /><polyline fill="none" points="35.5797,80.7051 12.5831,69.4237 9.1119,64.6508 8.678,50.7661 9.9797,45.5593 16.0542,37.7492 20.8271,36.0136 26.0339,36.0136 30.3729,40.7864 34.278,51.2 36.4475,63.7831 32.5424,71.5932 25.6,72.461 21.6949,70.2915" stroke="#0010ff" stroke-width="2" /><polyline fill="none" points="12.5831,48.1627 13.4508,50.3322 19.0915,49.4644" stroke="#00a4ff" stroke-width="2" /><polyline fill="none" points="21.261,46.4271 26.0339,43.3898 27.7695,39.4847" stroke="#3fffb7" stroke-width="2" /><polyline fill="none" points="30.8068,53.8034 26.4678,57.7085 26.0339,65.5186" stroke="#b7ff3f" stroke-width="2" /><polyline fill="none" points="9.1119,55.9729 11.7153,57.2746 15.1864,64.6508" stroke="#ffb900" stroke-width="2" /><polyline fill="none" points="59.0102,30.3729 49.4644,34.278" stroke="#ff3000" stroke-width="2" /><polyline fill="none" points="59.878,43.8237 51.2,48.1627" stroke="#7f0000" stroke-width="2" /></svg>