<?xml version="1.0" encoding="utf-8" ?>
<svg baseProfile="tiny" height="128" version="1.2" viewBox="0,0,128,128" width="128" xmlns="http://www.w3.org/2000/svg" xmlns:ev="http://www.w3.org/2001/xml-events" xmlns:xlink="http://www.w3.org/1999/xlink"><defs /><polyline fill="none" points="32.9763,14.7525 39.9186,11.2814 51.2,9.5458 72.8949,8.678 81.5729,9.9797 107.6068,21.6949 115.8508,31.6746 119.322,43.3898 118.8881,62.0475 115.8508,72.8949 111.078,82.4407 101.0983,95.0237 91.5525,101.9661 71.5932,108.4746 45.9932,108.4746 40.7864,107.6068 29.939,101.0983 22.5627,92.8542 14.3186,74.1966 11.7153,65.0847 10.4136,49.8983 11.2814,28.2034 15.6203,21.261 21.6949,16.922 30.3729,14.3186 37.7492,13.8847" stroke="#00007f" stroke-width="2" /><polyline fill="none" points="8.678,44.6915 9.9797,42.9559 17.3559,42.0881 25.6,42.0881 36.0136,44.2576 44.6915,49.0305 55.1051,58.1424 61.6136,68.9898 67.2542,84.1763 68.5559,98.061 66.8203,106.739" stroke="#7cff79" stroke-width="2" /><polyline fill="none" points="64.6508,8.678 62.9153,13.4508 64.2169,33.4102 69.8576,52.5017 76.3661,65.9525 85.0441,79.8373 92.8542,87.6475 101.0983,91.1186 109.3424,91.1186" stroke="#7f0000" stroke-width="2" /></svg>