<?xml version="1.0" encoding="utf-8" ?>
<svg baseProfile="tiny" height="128" version="1.2" viewBox="0,0,128,128" width="128" xmlns="http://www.w3.org/2000/svg" xmlns:ev="http://www.w3.org/2001/xml-events" xmlns:xlink="http://www.w3.org/1999/xlink"><defs /><polyline fill="none" points="80.2712,12.5831 69.8576,9.1119 63.7831,8.678 55.9729,9.9797 42.9559,15.6203 25.6,29.939 17.7898,40.7864 12.1492,51.6339 8.678,64.2169 9.5458,78.1017 15.1864,91.1186 24.2983,102.4 37.7492,112.8136 52.0678,118.4542 62.4814,119.322 76.8,116.2847 88.5153,110.2102 102.8339,95.4576 108.4746,86.7797 112.3797,76.8 112.8136,63.7831 108.9085,51.6339 98.061,32.9763 86.7797,22.1288 79.4034,19.0915" stroke="#00007f" stroke-width="2" /><polyline fill="none" points="75.9322,16.922 64.2169,40.3525 58.5763,63.7831 57.7085,73.7627 58.1424,82.8746 61.6136,92.8542 75.0644,109.3424" stroke="#7cff79" stroke-width="2" /><polyline fill="none" points="35.5797,23.4305 40.7864,32.1085 49.8983,65.5186 49.8983,78.5356 43.3898,105.4373 43.3898,113.2475" stroke="#7f0000" stroke-width="2" /></svg>