<?xml version="1.0" encoding="utf-8" ?>
<svg baseProfile="tiny" height="128" version="1.2" viewBox="0,0,128,128" width="128" xmlns="http://www.w3.org/2000/svg" xmlns:ev="http://www.w3.org/2001/xml-events" xmlns:xlink="http://www.w3.org/1999/xlink"><defs /><polyline fill="none" points="44.2576,23.8644 37.3153,23.8644 16.922,30.3729 13.8847,32.5424 8.678,40.3525 11.7153,48.1627 19.0915,55.539 28.2034,72.0271 35.1458,79.4034 45.9932,83.7424 88.9492,88.0814 107.1729,85.9119 116.2847,81.5729 118.4542,78.9695 119.322,67.6881 116.7186,44.2576 111.9458,28.2034 108.0407,19.9593 99.3627,13.4508 82.8746,13.0169 57.7085,8.678 44.6915,10.8475 22.1288,17.3559 16.922,21.261 13.0169,26.9017 10.8475,34.278 16.922,49.8983" stroke="#00007f" stroke-width="2" /><polyline fill="none" points="29.5051,18.6576 31.2407,24.2983 36.8814,32.1085 37.7492,40.3525 38.6169,68.5559 36.0136,78.9695" stroke="#0000ff" stroke-width="2" /><polyline fill="none" points="85.9119,16.4881 77.2339,36.4475 77.2339,41.6542 81.5729,72.8949 85.9119,88.5153 88.9492,92.8542" stroke="#0080ff" stroke-width="2" /><polyline fill="none" points="35.1458,29.939 44.2576,29.939" stroke="#15ffe1" stroke-width="2" /><polyline fill="none" points="29.939,41.2203 48.1627,44.2576" stroke="#7cff79" stroke-width="2" /><polyline fill="none" points="32.5424,58.5763 40.3525,61.1797" stroke="#e4ff12" stroke-width="2" /><polyline fill="none" points="70.7254,29.0712 86.3458,31.6746" stroke="#ff9400" stroke-width="2" /><polyline fill="none" points="67.6881,52.9356 89.3831,54.6712" stroke="#ff1d00" stroke-width="2" /><polyline fill="none" points="73.7627,69.8576 79.8373,68.5559 94.5898,69.4237" stroke="#7f0000" stroke-width="2" /></svg>