<?xml version="1.0" encoding="utf-8" ?>
<svg baseProfile="tiny" height="128" version="1.2" viewBox="0,0,128,128" width="128" xmlns="http://www.w3.org/2000/svg" xmlns:ev="http://www.w3.org/2001/xml-events" xmlns:xlink="http://www.w3.org/1999/xlink"><defs /><polyline fill="none" points="88.5153,14.7525 71.5932,9.9797 59.4441,8.678 46.861,8.678 34.7119,11.7153 23.8644,18.6576 19.0915,23.8644 14.7525,30.3729 9.9797,43.8237 8.678,52.0678 9.9797,74.1966 17.3559,89.3831 22.1288,95.4576 27.7695,101.9661 42.0881,111.9458 57.2746,118.0203 71.5932,119.322 80.2712,118.0203 88.0814,114.9831 103.2678,103.7017 113.2475,88.0814 118.0203,75.0644 118.4542,54.6712 113.6814,38.1831 106.739,26.9017 94.5898,14.3186" stroke="#00007f" stroke-width="2" /><polyline fill="none" points="17.7898,22.9966 25.6,32.1085 42.522,44.2576 60.7458,50.3322 75.0644,50.7661 84.1763,48.5966 94.5898,42.522 102.4,33.8441 107.6068,23.8644 108.9085,19.0915" stroke="#7cff79" stroke-width="2" /><polyline fill="none" points="22.9966,91.5525 30.3729,84.6102 45.1254,78.1017 55.9729,75.9322 71.5932,75.0644 83.7424,78.1017 95.4576,84.6102 104.1356,96.3254" stroke="#7f0000" stroke-width="2" /></svg>