<?xml version="1.0" encoding="utf-8" ?>
<svg baseProfile="tiny" height="128" version="1.2" viewBox="0,0,128,128" width="128" xmlns="http://www.w3.org/2000/svg" xmlns:ev="http://www.w3.org/2001/xml-events" xmlns:xlink="http://www.w3.org/1999/xlink"><defs /><polyline fill="none" points="58.7755,89.2517 50.9388,85.7687 40.9252,76.6259 31.7823,65.3061 18.7211,44.4082 11.3197,26.5578 8.7075,12.6259 21.7687,13.932 27.8639,17.8503 33.0884,24.381 42.6667,44.4082 51.8095,58.3401 58.7755,76.6259 77.4966,101.0068 79.6735,102.7483 86.2041,94.9116 88.381,95.3469 90.1224,97.9592 91.8639,106.6667 89.6871,112.7619 80.9796,118.8571 71.4014,119.2925 69.2245,118.4218 68.3537,115.3741 70.5306,106.6667 68.7891,101.8776 64.0,95.3469 55.7279,88.381" stroke="#00007f" stroke-width="2" /><polyline fill="none" points="80.1088,8.7075 72.2721,21.3333 69.6599,28.2993 67.483,43.102 68.7891,52.2449 75.3197,57.4694 80.9796,59.2109 87.0748,57.9048 92.2993,53.9864 96.6531,45.2789 97.5238,36.1361 97.0884,23.0748 94.9116,17.8503 88.381,11.7551 80.9796,8.7075" stroke="#00d4ff" stroke-width="2" /><polyline fill="none" points="72.2721,20.4626 77.4966,28.2993 81.8503,43.5374 82.2857,50.5034 79.2381,60.0816" stroke="#ffe500" stroke-width="2" /><polyline fill="none" points="98.3946,11.7551 92.7347,17.8503 89.6871,24.8163 89.2517,43.9728 90.9932,53.9864" stroke="#7f0000" stroke-width="2" /></svg>