<?xml version="1.0" encoding="utf-8" ?>
<svg baseProfile="tiny" height="128" version="1.2" viewBox="0,0,128,128" width="128" xmlns="http://www.w3.org/2000/svg" xmlns:ev="http://www.w3.org/2001/xml-events" xmlns:xlink="http://www.w3.org/1999/xlink"><defs /><polyline fill="none" points="36.8814,21.261 32.5424,28.2034 19.5254,42.522 13.0169,54.6712 8.678,67.2542 8.678,86.7797 13.0169,94.1559 21.261,103.7017 41.2203,113.6814 67.6881,119.322 86.7797,119.322 95.4576,116.7186 99.7966,105.0034 101.0983,83.3085 92.4203,53.3695 84.1763,36.4475 72.8949,21.261 64.6508,14.3186 54.6712,8.678 45.1254,8.678 46.4271,11.2814" stroke="#00007f" stroke-width="2" /><polyline fill="none" points="22.5627,14.3186 47.7288,45.1254 64.6508,68.9898 68.9898,78.9695 92.4203,118.8881 92.8542,95.4576" stroke="#00d4ff" stroke-width="2" /><polyline fill="none" points="80.2712,29.5051 78.5356,38.1831 68.9898,56.4068 55.9729,74.6305 42.522,91.1186 33.8441,98.061 36.8814,80.2712" stroke="#ffe500" stroke-width="2" /><polyline fill="none" points="59.0102,11.2814 59.0102,92.4203 60.3119,98.4949" stroke="#7f0000" stroke-width="2" /></svg>