<?xml version="1.0" encoding="utf-8" ?>
<svg baseProfile="tiny" height="128" version="1.2" viewBox="0,0,128,128" width="128" xmlns="http://www.w3.org/2000/svg" xmlns:ev="http://www.w3.org/2001/xml-events" xmlns:xlink="http://www.w3.org/1999/xlink"><defs /><polyline fill="none" points="94.5898,10.4136 62.0475,9.9797 42.0881,12.1492 22.5627,20.8271 15.6203,29.0712 11.7153,38.6169 9.1119,53.3695 8.678,62.0475 10.8475,71.1593 26.0339,86.3458 52.9356,92.4203 66.3864,92.8542 75.0644,91.5525 94.5898,84.1763 109.3424,68.5559 116.2847,56.8407 118.4542,48.5966 119.322,37.7492 118.0203,28.2034 114.9831,21.6949 107.1729,13.4508 88.0814,9.5458 64.2169,8.678" stroke="#00007f" stroke-width="2" /><polyline fill="none" points="26.4678,20.8271 34.278,24.7322 39.4847,32.5424" stroke="#0010ff" stroke-width="2" /><polyline fill="none" points="39.9186,36.8814 42.0881,57.7085" stroke="#00a4ff" stroke-width="2" /><polyline fill="none" points="42.0881,60.3119 37.3153,68.5559" stroke="#3fffb7" stroke-width="2" /><polyline fill="none" points="38.6169,82.4407 20.8271,87.6475" stroke="#b7ff3f" stroke-width="2" /><polyline fill="none" points="78.1017,8.678 73.3288,16.4881 67.6881,36.4475" stroke="#ffb900" stroke-width="2" /><polyline fill="none" points="74.6305,39.0508 76.8,53.8034 79.8373,59.4441" stroke="#ff3000" stroke-width="2" /><polyline fill="none" points="71.5932,63.3492 83.7424,78.1017 91.1186,83.7424" stroke="#7f0000" stroke-width="2" /></svg>