<?xml version="1.0" encoding="utf-8" ?>
<svg baseProfile="tiny" height="128" version="1.2" viewBox="0,0,128,128" width="128" xmlns="http://www.w3.org/2000/svg" xmlns:ev="http://www.w3.org/2001/xml-events" xmlns:xlink="http://www.w3.org/1999/xlink"><defs /><polyline fill="none" points="71.5932,19.0915 62.0475,17.7898 48.5966,21.6949 36.0136,30.3729 22.5627,44.2576 10.8475,68.9898 8.678,78.9695 8.678,88.5153 10.4136,96.7593 18.2237,111.078 23.8644,116.2847 35.5797,119.322 53.3695,115.4169 68.9898,105.8712 81.5729,94.1559 92.8542,75.9322 95.8915,45.5593 95.0237,28.6373 93.2881,23.8644 86.7797,17.3559 70.2915,8.678" stroke="#00007f" stroke-width="2" /><polyline fill="none" points="56.8407,22.5627 52.5017,38.6169 47.7288,50.7661 36.8814,66.8203 30.8068,71.5932 17.7898,75.9322" stroke="#7cff79" stroke-width="2" /><polyline fill="none" points="82.0068,27.7695 77.6678,33.8441 70.2915,50.3322 65.5186,66.8203 65.0847,85.9119 67.6881,92.8542 72.0271,98.061" stroke="#7f0000" stroke-width="2" /></svg>