<?xml version="1.0" encoding="utf-8" ?>
<svg baseProfile="tiny" height="128" version="1.2" viewBox="0,0,128,128" width="128" xmlns="http://www.w3.org/2000/svg" xmlns:ev="http://www.w3.org/2001/xml-events" xmlns:xlink="http://www.w3.org/1999/xlink"><defs /><polyline fill="none" points="68.3537,11.3197 52.2449,8.7075 32.2177,10.8844 25.6871,14.3673 16.9796,22.2041 10.8844,31.3469 8.7075,50.9388 8.7075,78.8027 15.2381,100.5714 23.9456,111.8912 30.0408,115.8095 39.619,118.8571 67.0476,119.2925 74.8844,117.551 95.3469,108.8435 101.0068,103.1837 103.619,97.0884 103.1837,60.0816 101.4422,49.1973 92.7347,29.1701 82.7211,20.4626 76.6259,17.415" stroke="#00007f" stroke-width="2" /><polyline fill="none" points="56.5986,16.1088 58.3401,31.7823 69.2245,60.9524 90.5578,112.3265" stroke="#7cff79" stroke-width="2" /><polyline fill="none" points="64.4354,49.6327 64.4354,46.585 67.0476,44.4082 69.6599,44.8435 72.2721,50.9388 73.5782,77.4966 82.7211,94.4762" stroke="#7f0000" stroke-width="2" /></svg>