<?xml version="1.0" encoding="utf-8" ?>
<svg baseProfile="tiny" height="128" version="1.2" viewBox="0,0,128,128" width="128" xmlns="http://www.w3.org/2000/svg" xmlns:ev="http://www.w3.org/2001/xml-events" xmlns:xlink="http://www.w3.org/1999/xlink"><defs /><polyline fill="none" points="69.8576,11.7153 58.5763,8.678 49.0305,9.5458 29.939,16.922 24.7322,21.6949 19.9593,28.6373 11.7153,52.0678 8.678,72.8949 8.678,88.0814 18.6576,98.061 48.5966,107.1729 74.1966,109.3424 103.2678,109.3424 108.4746,104.1356 118.4542,79.8373 119.322,64.2169 117.1525,52.9356 105.0034,34.7119 90.2508,24.7322 64.2169,12.5831" stroke="#00007f" stroke-width="2" /><polyline fill="none" points="64.2169,12.5831 59.0102,14.7525 55.1051,20.8271 49.8983,36.0136 46.861,55.9729 45.9932,76.8 47.7288,86.7797 50.7661,91.9864 55.9729,94.1559" stroke="#7cff79" stroke-width="2" /><polyline fill="none" points="78.9695,23.8644 81.139,75.0644 84.1763,95.0237 88.9492,100.2305" stroke="#7f0000" stroke-width="2" /></svg>