<?xml version="1.0" encoding="utf-8" ?>
<svg baseProfile="tiny" height="128" version="1.2" viewBox="0,0,128,128" width="128" xmlns="http://www.w3.org/2000/svg" xmlns:ev="http://www.w3.org/2001/xml-events" xmlns:xlink="http://www.w3.org/1999/xlink"><defs /><polyline fill="none" points="94.9116,26.5578 84.4626,14.8027 77.932,10.8844 68.3537,8.7075 51.3741,9.5782 31.7823,19.5918 20.898,29.6054 16.1088,36.5714 10.0136,51.8095 8.7075,60.517 8.7075,77.0612 10.8844,85.7687 13.932,92.2993 23.5102,104.4898 34.8299,111.0204 46.585,114.5034 60.0816,114.9388 73.1429,112.7619 86.2041,107.102 92.7347,102.7483 102.3129,93.1701 111.0204,81.415 117.9864,65.3061 119.2925,50.068 117.1156,40.9252 111.8912,32.6531 90.1224,15.2381" stroke="#00007f" stroke-width="2" /><polyline fill="none" points="32.2177,20.4626 37.0068,24.8163 39.619,29.6054 40.4898,64.4354 37.8776,82.7211 28.2993,106.6667" stroke="#7cff79" stroke-width="2" /><polyline fill="none" points="78.8027,10.8844 72.2721,29.1701 70.0952,40.9252 67.9184,69.6599 74.8844,87.5102 82.2857,98.3946 87.9456,103.1837" stroke="#7f0000" stroke-width="2" /></svg>