<?xml version="1.0" encoding="utf-8" ?>
<svg baseProfile="tiny" height="128" version="1.2" viewBox="0,0,128,128" width="128" xmlns="http://www.w3.org/2000/svg" xmlns:ev="http://www.w3.org/2001/xml-events" xmlns:xlink="http://www.w3.org/1999/xlink"><defs /><polyline fill="none" points="85.478,15.1864 55.539,12.5831 37.3153,14.3186 31.6746,17.3559 26.4678,22.5627 11.7153,42.0881 8.678,60.7458 9.9797,73.7627 18.6576,89.3831 36.8814,102.4 56.8407,106.739 68.122,106.739 73.7627,105.4373 79.4034,103.2678 102.8339,88.5153 110.6441,78.9695 113.6814,71.5932 118.0203,56.4068 119.322,47.7288 118.0203,39.9186 108.4746,29.0712 97.6271,20.8271 87.2136,16.0542" stroke="#00007f" stroke-width="2" /><polyline fill="none" points="91.1186,20.8271 91.1186,20.8271" stroke="#0000a3" stroke-width="2" /><polyline fill="none" points="90.6847,35.1458 90.6847,35.1458" stroke="#0000cc" stroke-width="2" /><polyline fill="none" points="89.8169,32.9763 89.8169,32.9763" stroke="#0000f1" stroke-width="2" /><polyline fill="none" points="90.2508,20.8271 91.9864,23.8644" stroke="#0008ff" stroke-width="2" /><polyline fill="none" points="90.2508,17.3559 88.9492,31.6746" stroke="#0028ff" stroke-width="2" /><polyline fill="none" points="86.3458,29.5051 87.6475,32.1085" stroke="#004cff" stroke-width="2" /><polyline fill="none" points="89.8169,37.7492 89.8169,48.5966" stroke="#006cff" stroke-width="2" /><polyline fill="none" points="89.8169,43.8237 88.9492,55.1051" stroke="#0090ff" stroke-width="2" /><polyline fill="none" points="88.0814,36.4475 87.6475,50.3322" stroke="#00b0ff" stroke-width="2" /><polyline fill="none" points="90.2508,48.5966 90.2508,48.5966" stroke="#00d4ff" stroke-width="2" /><polyline fill="none" points="89.8169,54.6712 89.3831,63.7831" stroke="#0cf4ea" stroke-width="2" /><polyline fill="none" points="88.9492,62.4814 88.0814,75.4983" stroke="#29ffcd" stroke-width="2" /><polyline fill="none" points="86.7797,66.8203 85.478,76.3661" stroke="#42ffb3" stroke-width="2" /><polyline fill="none" points="85.0441,84.6102 86.3458,86.3458" stroke="#5fff96" stroke-width="2" /><polyline fill="none" points="87.2136,82.8746 89.3831,104.5695" stroke="#7cff79" stroke-width="2" /><polyline fill="none" points="46.861,8.678 46.861,8.678" stroke="#96ff5f" stroke-width="2" /><polyline fill="none" points="49.8983,19.0915 50.7661,21.261" stroke="#b3ff42" stroke-width="2" /><polyline fill="none" points="46.861,36.4475 48.1627,53.8034" stroke="#cdff29" stroke-width="2" /><polyline fill="none" points="44.6915,48.5966 44.6915,63.7831" stroke="#eaff0c" stroke-width="2" /><polyline fill="none" points="47.7288,66.8203 47.7288,69.8576" stroke="#ffe500" stroke-width="2" /><polyline fill="none" points="47.2949,81.5729 49.0305,84.6102" stroke="#ffc400" stroke-width="2" /><polyline fill="none" points="47.7288,90.2508 47.7288,90.2508" stroke="#ffa600" stroke-width="2" /><polyline fill="none" points="45.5593,100.2305 45.5593,100.2305" stroke="#ff8500" stroke-width="2" /><polyline fill="none" points="45.5593,78.5356 45.5593,93.722" stroke="#ff6700" stroke-width="2" /><polyline fill="none" points="39.9186,83.7424 42.0881,97.1932" stroke="#ff4600" stroke-width="2" /><polyline fill="none" points="39.9186,88.9492 37.7492,95.0237 36.4475,107.6068" stroke="#ff2800" stroke-width="2" /><polyline fill="none" points="51.6339,22.9966 51.6339,22.9966" stroke="#f10700" stroke-width="2" /><polyline fill="none" points="49.0305,26.4678 52.0678,33.4102" stroke="#cc0000" stroke-width="2" /><polyline fill="none" points="47.7288,27.7695 48.5966,30.3729" stroke="#a30000" stroke-width="2" /><polyline fill="none" points="46.861,42.522 46.861,42.522" stroke="#7f0000" stroke-width="2" /></svg>