<?xml version="1.0" encoding="utf-8" ?>
<svg baseProfile="tiny" height="128" version="1.2" viewBox="0,0,128,128" width="128" xmlns="http://www.w3.org/2000/svg" xmlns:ev="http://www.w3.org/2001/xml-events" xmlns:xlink="http://www.w3.org/1999/xlink"><defs /><polyline fill="none" points="8.7075,85.3333 13.932,78.8027 26.5578,68.3537" stroke="#00007f" stroke-width="2" /><polyline fill="none" points="46.1497,51.8095 47.8912,47.8912 58.3401,38.3129" stroke="#0000ff" stroke-width="2" /><polyline fill="none" points="69.2245,30.9116 70.0952,27.8639 77.0612,21.7687 92.2993,13.0612" stroke="#0080ff" stroke-width="2" /><polyline fill="none" points="109.7143,10.0136 104.4898,10.0136 99.7007,13.0612 96.6531,17.415 95.3469,23.9456 95.3469,27.4286 97.9592,30.0408 108.4082,32.2177 112.7619,29.6054 116.2449,25.2517 119.2925,18.7211 119.2925,13.932 116.2449,10.449 111.0204,8.7075 105.3605,8.7075 101.8776,10.8844" stroke="#15ffe1" stroke-width="2" /><polyline fill="none" points="105.7959,10.8844 110.585,21.7687 114.9388,27.4286 117.551,28.2993" stroke="#7cff79" stroke-width="2" /><polyline fill="none" points="110.585,12.6259 110.585,18.7211 112.3265,21.3333 113.1973,16.1088 111.8912,12.6259 111.8912,16.1088 114.9388,21.7687 116.2449,21.7687 116.2449,16.5442 114.5034,12.6259 111.8912,10.8844 112.7619,24.8163 113.1973,13.4966" stroke="#e4ff12" stroke-width="2" /><polyline fill="none" points="111.4558,10.449 111.4558,13.4966" stroke="#ff9400" stroke-width="2" /><polyline fill="none" points="111.0204,11.3197 112.3265,20.4626 115.3741,28.7347 115.8095,21.7687 114.068,14.8027" stroke="#ff1d00" stroke-width="2" /><polyline fill="none" points="111.8912,11.7551 115.8095,22.2041" stroke="#7f0000" stroke-width="2" /></svg>