<?xml version="1.0" encoding="utf-8" ?>
<svg baseProfile="tiny" height="128" version="1.2" viewBox="0,0,128,128" width="128" xmlns="http://www.w3.org/2000/svg" xmlns:ev="http://www.w3.org/2001/xml-events" xmlns:xlink="http://www.w3.org/1999/xlink"><defs /><polyline fill="none" points="92.4203,19.9593 68.122,10.8475 55.539,9.9797 48.1627,11.2814 38.1831,14.7525 26.0339,22.5627 19.9593,27.7695 10.8475,42.0881 8.678,59.878 9.5458,70.7254 18.2237,94.5898 27.3356,107.1729 35.1458,114.1153 42.522,117.1525 52.5017,118.8881 66.8203,117.1525 77.2339,111.9458 88.5153,100.6644 95.4576,90.6847 98.4949,82.8746 100.2305,66.8203 97.6271,50.7661 88.9492,35.5797 80.7051,25.1661 72.8949,19.0915" stroke="#00007f" stroke-width="2" /><polyline fill="none" points="30.3729,14.3186 34.278,17.7898 40.7864,35.5797 43.3898,53.3695 43.3898,72.8949 42.0881,86.3458 39.0508,97.6271 34.278,112.3797 29.5051,116.7186 29.939,118.4542" stroke="#7cff79" stroke-width="2" /><polyline fill="none" points="78.1017,8.678 74.6305,13.0169 72.0271,23.8644 70.7254,62.0475 72.461,74.6305 78.9695,93.2881 82.8746,113.6814 85.9119,119.322" stroke="#7f0000" stroke-width="2" /></svg>