<?xml version="1.0" encoding="utf-8" ?>
<svg baseProfile="tiny" height="128" version="1.2" viewBox="0,0,128,128" width="128" xmlns="http://www.w3.org/2000/svg" xmlns:ev="http://www.w3.org/2001/xml-events" xmlns:xlink="http://www.w3.org/1999/xlink"><defs /><polyline fill="none" points="87.5102,13.0612 77.4966,10.449 58.3401,10.0136 45.2789,13.4966 33.5238,19.1565 23.0748,26.9932 15.6735,34.8299 11.3197,43.102 8.7075,59.6463 8.7075,69.6599 13.932,82.7211 20.0272,90.1224 32.6531,98.8299 54.8571,106.6667 78.3673,108.8435 90.1224,106.6667 109.2789,97.0884 117.1156,89.2517 119.2925,83.5918 119.2925,53.1156 116.6803,42.6667 113.1973,35.7007 103.619,24.381 92.7347,15.2381 82.7211,10.8844 69.2245,8.7075" stroke="#00007f" stroke-width="2" /><polyline fill="none" points="30.0408,24.381 35.2653,30.9116 42.2313,45.2789 44.4082,56.5986 44.4082,74.8844 41.3605,86.2041 36.1361,98.3946" stroke="#7cff79" stroke-width="2" /><polyline fill="none" points="94.9116,17.8503 90.9932,28.7347 88.8163,42.2313 87.9456,68.3537 91.8639,82.7211 96.6531,89.6871 105.3605,94.4762 111.4558,94.9116" stroke="#7f0000" stroke-width="2" /></svg>