<?xml version="1.0" encoding="utf-8" ?>
<svg baseProfile="tiny" height="128" version="1.2" viewBox="0,0,128,128" width="128" xmlns="http://www.w3.org/2000/svg" xmlns:ev="http://www.w3.org/2001/xml-events" xmlns:xlink="http://www.w3.org/1999/xlink"><defs /><polyline fill="none" points="94.1559,13.8847 89.3831,10.4136 82.8746,8.678 63.7831,8.678 49.0305,10.8475 26.0339,23.8644 16.4881,34.278 11.2814,43.8237 8.678,55.539 8.678,70.7254 14.3186,88.9492 19.0915,95.4576 32.1085,107.6068 47.7288,114.5492 77.2339,114.9831 96.7593,112.3797 104.5695,110.2102 113.2475,105.0034 117.1525,101.5322 119.322,95.0237 119.322,75.0644 117.5864,57.2746 107.1729,20.3932 102.8339,15.1864 100.6644,14.3186 88.0814,12.5831 75.4983,12.5831" stroke="#00007f" stroke-width="2" /><polyline fill="none" points="44.2576,14.7525 47.2949,20.8271 53.3695,42.0881 53.8034,67.6881 50.7661,85.478 43.8237,101.9661" stroke="#7cff79" stroke-width="2" /><polyline fill="none" points="85.0441,16.4881 82.0068,28.6373 82.0068,66.8203 84.6102,82.0068 95.4576,103.7017 100.2305,108.9085" stroke="#7f0000" stroke-width="2" /></svg>