<?xml version="1.0" encoding="utf-8" ?>
<svg baseProfile="tiny" height="128" version="1.2" viewBox="0,0,128,128" width="128" xmlns="http://www.w3.org/2000/svg" xmlns:ev="http://www.w3.org/2001/xml-events" xmlns:xlink="http://www.w3.org/1999/xlink"><defs /><polyline fill="none" points="46.585,8.7075 38.3129,9.1429 29.6054,13.4966 18.2857,23.0748 12.1905,31.7823 8.7075,40.4898 8.7075,50.068 10.8844,55.7279 15.6735,61.3878 24.381,67.483 36.5714,71.8367 61.8231,77.0612 92.2993,77.932 104.0544,75.3197 110.585,72.2721 114.9388,67.9184 117.551,62.2585 119.2925,44.4082 117.1156,34.8299 110.585,26.9932 96.6531,20.898 70.5306,15.6735 42.2313,14.8027 30.4762,18.7211" stroke="#00007f" stroke-width="2" /><polyline fill="none" points="43.9728,19.5918 45.7143,26.9932 40.9252,33.0884 42.2313,41.3605 37.4422,45.7143 36.5714,48.7619 39.619,57.9048 33.0884,67.483 30.9116,74.8844" stroke="#7cff79" stroke-width="2" /><polyline fill="none" points="78.8027,20.0272 74.8844,20.898 73.5782,23.0748 76.6259,34.3946 70.966,41.7959 71.4014,49.6327 63.5646,59.6463 67.483,66.6122 64.8707,69.6599" stroke="#7f0000" stroke-width="2" /></svg>