<?xml version="1.0" encoding="utf-8" ?>
<svg baseProfile="tiny" height="128" version="1.2" viewBox="0,0,128,128" width="128" xmlns="http://www.w3.org/2000/svg" xmlns:ev="http://www.w3.org/2001/xml-events" xmlns:xlink="http://www.w3.org/1999/xlink"><defs /><polyline fill="none" points="14.3186,32.1085 14.3186,25.1661 16.4881,21.261 20.8271,17.3559 32.1085,11.7153 47.7288,8.678 77.2339,8.678 94.1559,16.922 108.9085,29.0712 113.2475,36.0136 118.4542,51.6339 119.322,66.3864 115.8508,76.8 109.7763,86.7797 103.7017,92.4203 96.3254,95.8915 85.0441,98.9288 62.4814,99.3627 45.5593,94.5898 36.4475,89.8169 22.9966,79.8373 15.1864,70.7254 11.2814,63.3492 9.5458,58.1424 8.678,37.7492 9.9797,32.5424 15.1864,23.8644" stroke="#00007f" stroke-width="2" /><polyline fill="none" points="41.2203,12.1492 34.7119,27.3356 29.939,49.0305 30.3729,64.2169 35.5797,78.5356 37.7492,81.5729" stroke="#0010ff" stroke-width="2" /><polyline fill="none" points="87.6475,11.2814 91.1186,21.6949 92.8542,35.5797 92.8542,65.9525 86.7797,88.5153" stroke="#00a4ff" stroke-width="2" /><polyline fill="none" points="26.4678,27.7695 38.6169,29.939 39.4847,31.6746" stroke="#3fffb7" stroke-width="2" /><polyline fill="none" points="18.6576,42.0881 36.8814,45.5593" stroke="#b7ff3f" stroke-width="2" /><polyline fill="none" points="27.7695,61.1797 39.9186,61.6136" stroke="#ffb900" stroke-width="2" /><polyline fill="none" points="77.6678,38.1831 99.7966,38.1831 99.3627,39.0508" stroke="#ff3000" stroke-width="2" /><polyline fill="none" points="87.6475,51.2 105.8712,54.6712 106.739,56.8407" stroke="#7f0000" stroke-width="2" /></svg>