<?xml version="1.0" encoding="utf-8" ?>
<svg baseProfile="tiny" height="128" version="1.2" viewBox="0,0,128,128" width="128" xmlns="http://www.w3.org/2000/svg" xmlns:ev="http://www.w3.org/2001/xml-events" xmlns:xlink="http://www.w3.org/1999/xlink"><defs /><polyline fill="none" points="26.0339,21.6949 18.2237,34.278 9.9797,58.5763 8.678,65.0847 10.8475,75.4983 22.5627,86.7797 30.8068,91.9864 39.0508,95.0237 65.9525,99.7966 82.8746,98.4949 91.9864,95.0237 101.5322,89.3831 112.3797,76.8 117.1525,63.7831 118.4542,55.1051 119.322,43.3898 117.5864,32.1085 112.3797,23.8644 102.4,17.3559 86.7797,13.4508 59.4441,13.4508 40.7864,16.922" stroke="#00007f" stroke-width="2" /><polyline fill="none" points="63.3492,8.678 59.0102,16.922 57.7085,28.6373 59.0102,54.2373 58.1424,72.0271 52.0678,88.5153" stroke="#7cff79" stroke-width="2" /><polyline fill="none" points="81.5729,13.0169 80.2712,22.5627 82.8746,42.522 78.9695,82.0068 78.9695,89.8169 80.2712,94.1559" stroke="#7f0000" stroke-width="2" /></svg>