<?xml version="1.0" encoding="utf-8" ?>
<svg baseProfile="tiny" height="128" version="1.2" viewBox="0,0,128,128" width="128" xmlns="http://www.w3.org/2000/svg" xmlns:ev="http://www.w3.org/2001/xml-events" xmlns:xlink="http://www.w3.org/1999/xlink"><defs /><polyline fill="none" points="68.5559,15.1864 63.7831,13.8847 45.1254,21.6949 30.3729,31.6746 17.3559,45.5593 10.8475,55.9729 8.678,67.2542 10.4136,74.6305 17.7898,81.5729 29.939,86.3458 49.8983,90.2508 74.1966,87.6475 97.6271,78.9695 108.4746,70.2915 115.8508,60.3119 118.8881,49.0305 119.322,37.7492 117.5864,30.3729 112.8136,24.2983 101.5322,17.3559 85.478,11.2814 70.2915,8.678 59.878,10.4136" stroke="#00007f" stroke-width="2" /><polyline fill="none" points="54.2373,19.9593 56.4068,22.5627 58.1424,41.6542 57.2746,58.5763 51.2,71.5932 37.3153,89.3831" stroke="#004cff" stroke-width="2" /><polyline fill="none" points="88.9492,16.4881 75.0644,42.0881 70.2915,52.5017 68.9898,60.3119 69.8576,68.9898 76.8,85.478" stroke="#29ffcd" stroke-width="2" /><polyline fill="none" points="51.2,25.1661 64.2169,23.4305" stroke="#cdff29" stroke-width="2" /><polyline fill="none" points="56.8407,32.9763 65.0847,32.1085" stroke="#ff6700" stroke-width="2" /><polyline fill="none" points="52.0678,44.2576 62.4814,43.3898" stroke="#7f0000" stroke-width="2" /></svg>