<?xml version="1.0" encoding="utf-8" ?>
<svg baseProfile="tiny" height="128" version="1.2" viewBox="0,0,128,128" width="128" xmlns="http://www.w3.org/2000/svg" xmlns:ev="http://www.w3.org/2001/xml-events" xmlns:xlink="http://www.w3.org/1999/xlink"><defs /><polyline fill="none" points="53.3695,11.7153 39.9186,8.678 30.3729,9.5458 16.0542,17.3559 11.2814,21.6949 9.1119,26.0339 8.678,31.2407 13.0169,44.6915 16.922,47.2949 30.8068,47.7288 39.9186,42.9559 49.0305,32.1085 49.8983,17.7898 48.5966,15.6203 43.8237,13.4508" stroke="#00007f" stroke-width="2" /><polyline fill="none" points="13.0169,15.6203 21.261,22.1288 29.939,22.9966 36.8814,18.2237 42.522,9.1119" stroke="#0080ff" stroke-width="2" /><polyline fill="none" points="48.5966,16.4881 36.0136,18.2237 32.9763,19.5254 31.2407,22.5627 32.5424,26.9017 44.6915,36.0136 45.9932,39.0508" stroke="#7cff79" stroke-width="2" /><polyline fill="none" points="12.1492,28.2034 19.0915,25.6 24.2983,25.6 34.278,30.3729 34.278,32.9763 31.2407,38.1831 16.0542,47.7288" stroke="#ff9400" stroke-width="2" /><polyline fill="none" points="98.4949,62.0475 100.6644,59.4441 105.0034,36.8814 108.4746,31.6746 111.9458,29.5051 114.5492,30.8068 115.4169,32.5424 119.322,56.8407" stroke="#7f0000" stroke-width="2" /></svg>