<?xml version="1.0" encoding="utf-8" ?>
<svg baseProfile="tiny" height="128" version="1.2" viewBox="0,0,128,128" width="128" xmlns="http://www.w3.org/2000/svg" xmlns:ev="http://www.w3.org/2001/xml-events" xmlns:xlink="http://www.w3.org/1999/xlink"><defs /><polyline fill="none" points="80.7051,8.678 54.2373,25.1661 36.4475,38.1831 18.6576,56.4068 13.4508,64.6508 11.2814,70.7254 8.678,85.0441 8.678,90.2508 14.7525,99.7966 26.9017,105.8712 40.7864,109.7763 56.4068,109.3424 71.5932,105.4373 90.6847,95.0237 97.1932,85.478 101.0983,76.3661 104.1356,62.9153 105.4373,39.4847 105.0034,29.5051 102.4,17.7898 97.6271,12.5831 88.5153,13.8847" stroke="#00007f" stroke-width="2" /><polyline fill="none" points="83.3085,28.6373 78.9695,32.9763 65.9525,59.0102 52.5017,98.061 49.8983,101.9661" stroke="#0080ff" stroke-width="2" /><polyline fill="none" points="17.3559,64.2169 25.6,63.7831 65.5186,72.461 85.9119,80.2712 105.4373,82.8746" stroke="#7cff79" stroke-width="2" /><polyline fill="none" points="108.0407,36.0136 99.3627,39.0508 74.1966,54.6712 49.0305,74.6305 26.0339,95.8915 19.0915,99.7966" stroke="#ff9400" stroke-width="2" /><polyline fill="none" points="49.4644,22.1288 68.122,63.7831 75.0644,92.4203 78.5356,119.322" stroke="#7f0000" stroke-width="2" /></svg>