<?xml version="1.0" encoding="utf-8" ?>
<svg baseProfile="tiny" height="128" version="1.2" viewBox="0,0,128,128" width="128" xmlns="http://www.w3.org/2000/svg" xmlns:ev="http://www.w3.org/2001/xml-events" xmlns:xlink="http://www.w3.org/1999/xlink"><defs /><polyline fill="none" points="99.3627,9.9797 90.6847,8.678 72.461,8.678 64.2169,10.8475 42.0881,21.261 27.7695,31.2407 13.8847,46.861 9.9797,55.1051 8.678,64.2169 8.678,69.8576 12.1492,78.9695 24.2983,95.8915 41.6542,114.1153 49.0305,116.2847 79.4034,116.2847 90.6847,112.8136 98.9288,103.7017 107.6068,91.5525 111.9458,82.8746 115.8508,73.7627 119.322,55.1051 119.322,42.9559 115.8508,28.6373 111.078,23.8644 98.061,16.4881 95.4576,13.0169 98.4949,10.8475 95.0237,12.5831 86.3458,26.9017 83.3085,49.4644 84.1763,83.3085 86.3458,94.5898 90.6847,104.1356" stroke="#00007f" stroke-width="2" /><polyline fill="none" points="56.8407,19.0915 57.2746,41.2203 51.2,62.9153 45.1254,74.6305" stroke="#7f0000" stroke-width="2" /></svg>