<?xml version="1.0" encoding="utf-8" ?>
<svg baseProfile="tiny" height="128" version="1.2" viewBox="0,0,128,128" width="128" xmlns="http://www.w3.org/2000/svg" xmlns:ev="http://www.w3.org/2001/xml-events" xmlns:xlink="http://www.w3.org/1999/xlink"><defs /><polyline fill="none" points="67.2542,11.2814 39.9186,17.7898 31.6746,22.1288 19.5254,31.2407 15.6203,35.1458 9.9797,45.5593 8.678,53.3695 10.4136,60.3119 15.1864,68.122 23.4305,76.3661 39.0508,83.3085 52.9356,85.9119 69.8576,86.7797 78.9695,85.9119 90.2508,82.4407 105.4373,73.7627 114.9831,62.9153 119.322,49.4644 118.8881,41.6542 115.4169,32.9763 101.0983,18.2237 89.8169,11.7153 80.7051,9.1119 73.3288,8.678 62.0475,11.2814 48.1627,19.0915" stroke="#00007f" stroke-width="2" /><polyline fill="none" points="50.7661,16.922 53.3695,17.7898 56.4068,21.6949 59.4441,29.939 59.878,39.4847 55.9729,47.2949 51.2,53.8034 42.0881,61.1797 20.3932,66.8203" stroke="#0028ff" stroke-width="2" /><polyline fill="none" points="117.5864,26.9017 111.078,27.3356 101.5322,33.8441 94.5898,41.6542 90.2508,49.0305 88.0814,56.8407 88.0814,62.0475 91.9864,78.9695" stroke="#00d4ff" stroke-width="2" /><polyline fill="none" points="98.061,26.9017 106.739,34.7119" stroke="#7cff79" stroke-width="2" /><polyline fill="none" points="89.8169,47.7288 101.9661,49.4644" stroke="#ffe500" stroke-width="2" /><polyline fill="none" points="83.7424,65.0847 95.0237,63.7831" stroke="#ff4600" stroke-width="2" /><polyline fill="none" points="90.2508,76.3661 98.9288,73.3288" stroke="#7f0000" stroke-width="2" /></svg>