<?xml version="1.0" encoding="utf-8" ?>
<svg baseProfile="tiny" height="128" version="1.2" viewBox="0,0,128,128" width="128" xmlns="http://www.w3.org/2000/svg" xmlns:ev="http://www.w3.org/2001/xml-events" xmlns:xlink="http://www.w3.org/1999/xlink"><defs /><polyline fill="none" points="105.8712,47.2949 103.7017,40.7864 103.7017,35.5797 100.6644,27.7695 89.3831,13.0169 80.2712,8.678 63.3492,10.4136 40.3525,26.0339 28.6373,36.0136 19.9593,48.1627 9.5458,68.9898 8.678,87.2136 10.8475,95.4576 16.0542,102.8339 23.4305,108.9085 42.0881,118.0203 70.7254,119.322 78.5356,117.1525 84.1763,112.8136 90.2508,106.739 95.4576,98.4949 104.5695,80.7051 108.9085,61.1797 108.0407,30.3729 99.3627,28.6373" stroke="#00007f" stroke-width="2" /><polyline fill="none" points="37.7492,101.5322 42.9559,75.4983 42.9559,55.539 42.0881,45.5593 36.8814,30.3729" stroke="#7cff79" stroke-width="2" /><polyline fill="none" points="103.7017,25.6 99.7966,28.6373 99.3627,32.5424 91.1186,46.4271 84.6102,65.0847 84.6102,84.6102 89.8169,98.4949 93.2881,103.7017 95.4576,104.5695" stroke="#7f0000" stroke-width="2" /></svg>