<?xml version="1.0" encoding="utf-8" ?>
<svg baseProfile="tiny" height="128" version="1.2" viewBox="0,0,128,128" width="128" xmlns="http://www.w3.org/2000/svg" xmlns:ev="http://www.w3.org/2001/xml-events" xmlns:xlink="http://www.w3.org/1999/xlink"><defs /><polyline fill="none" points="33.0884,18.2857 23.9456,27.4286 14.3673,41.7959 8.7075,64.0 9.5782,80.9796 14.8027,94.0408 26.1224,102.7483 36.5714,107.102 49.1973,110.1497 63.1293,109.7143 79.6735,106.6667 87.0748,104.0544 101.0068,93.1701 111.0204,80.9796 116.2449,65.7415 119.2925,49.6327 118.4218,36.1361 113.6327,24.8163 110.585,20.898 98.3946,12.1905 78.8027,8.7075 64.8707,9.1429 42.2313,12.6259 35.2653,15.6735 41.7959,21.7687 48.7619,37.4422 49.6327,63.1293 44.4082,82.2857 32.6531,103.619 37.4422,105.7959 49.1973,107.5374 69.6599,107.102 88.381,104.4898 94.9116,101.4422 91.8639,97.5238 88.381,86.2041" stroke="#00007f" stroke-width="2" /></svg>