<?xml version="1.0" encoding="utf-8" ?>
<svg baseProfile="tiny" height="128" version="1.2" viewBox="0,0,128,128" width="128" xmlns="http://www.w3.org/2000/svg" xmlns:ev="http://www.w3.org/2001/xml-events" xmlns:xlink="http://www.w3.org/1999/xlink"><defs /><polyline fill="none" points="92.8542,12.5831 88.0814,10.4136 70.7254,8.678 62.9153,9.5458 52.5017,13.0169 26.0339,30.8068 19.5254,37.7492 10.8475,52.5017 8.678,59.0102 9.1119,71.5932 18.6576,85.0441 27.7695,93.722 45.1254,101.0983 53.8034,101.9661 65.9525,101.5322 92.8542,86.7797 103.7017,78.1017 116.7186,62.0475 119.322,54.6712 119.322,47.2949 116.2847,33.8441 112.8136,26.4678 96.3254,12.5831" stroke="#00007f" stroke-width="2" /><polyline fill="none" points="37.7492,26.0339 45.1254,29.939 48.5966,35.1458 51.2,52.9356 51.6339,67.2542 42.0881,80.7051 36.0136,84.6102 24.7322,88.9492" stroke="#0080ff" stroke-width="2" /><polyline fill="none" points="99.3627,19.5254 92.4203,21.261 85.9119,27.3356 82.4407,32.9763 79.4034,43.8237 79.4034,56.4068 83.3085,65.0847 92.4203,70.7254 108.4746,71.5932 113.6814,69.4237" stroke="#7cff79" stroke-width="2" /><polyline fill="none" points="42.0881,44.6915 55.9729,43.8237" stroke="#ff9400" stroke-width="2" /><polyline fill="none" points="44.2576,65.0847 61.6136,62.0475" stroke="#7f0000" stroke-width="2" /></svg>