<?xml version="1.0" encoding="utf-8" ?>
<svg baseProfile="tiny" height="128" version="1.2" viewBox="0,0,128,128" width="128" xmlns="http://www.w3.org/2000/svg" xmlns:ev="http://www.w3.org/2001/xml-events" xmlns:xlink="http://www.w3.org/1999/xlink"><defs /><polyline fill="none" points="70.7254,11.2814 84.6102,16.922 97.6271,27.3356 111.078,30.3729 119.322,46.4271 105.8712,57.2746 95.0237,70.7254 54.6712,97.6271 41.2203,89.8169 27.7695,84.1763 22.1288,70.2915 22.1288,30.3729 27.7695,16.922 41.2203,8.678 54.6712,8.678 70.7254,13.8847" stroke="#00007f" stroke-width="2" /><polyline fill="none" points="52.0678,24.7322 52.0678,38.1831 46.4271,52.0678 43.8237,65.0847 43.8237,78.5356 41.2203,95.0237" stroke="#0080ff" stroke-width="2" /><polyline fill="none" points="100.2305,38.1831 86.7797,38.1831 73.3288,35.5797 46.861,25.1661 43.8237,24.7322" stroke="#7cff79" stroke-width="2" /><polyline fill="none" points="24.7322,52.0678 41.2203,57.2746 103.2678,57.2746 116.7186,51.6339 76.3661,43.8237 62.4814,49.4644 49.0305,57.2746 35.5797,49.0305 22.5627,43.8237 35.5797,43.8237 35.5797,57.2746 22.5627,67.6881 8.678,70.7254 8.678,57.2746" stroke="#ff9400" stroke-width="2" /><polyline fill="none" points="78.9695,43.8237 78.9695,43.8237" stroke="#7f0000" stroke-width="2" /></svg>