<?xml version="1.0" encoding="utf-8" ?>
<svg baseProfile="tiny" height="128" version="1.2" viewBox="0,0,128,128" width="128" xmlns="http://www.w3.org/2000/svg" xmlns:ev="http://www.w3.org/2001/xml-events" xmlns:xlink="http://www.w3.org/1999/xlink"><defs /><polyline fill="none" points="63.3492,27.3356 52.0678,30.3729 34.7119,38.6169 20.3932,50.3322 10.4136,64.2169 8.678,75.9322 9.9797,82.8746 14.3186,88.9492 24.7322,95.8915 45.9932,100.6644 59.878,101.0983 88.5153,95.8915 99.3627,91.5525 108.0407,86.3458 113.6814,78.1017 116.2847,73.3288 119.322,62.4814 118.8881,51.2 115.4169,40.7864 109.7763,31.2407 101.0983,23.4305 85.0441,14.7525 68.9898,10.4136 55.1051,8.678" stroke="#00007f" stroke-width="2" /><polyline fill="none" points="42.9559,21.6949 49.0305,25.1661 53.8034,33.4102 55.9729,42.0881 55.1051,53.8034 47.7288,74.6305 42.522,83.7424 35.5797,91.5525" stroke="#0010ff" stroke-width="2" /><polyline fill="none" points="111.078,13.4508 105.8712,13.8847 91.9864,23.8644 76.3661,46.861 72.8949,57.7085 72.0271,65.0847 75.0644,79.8373 80.2712,86.7797" stroke="#00a4ff" stroke-width="2" /><polyline fill="none" points="32.9763,36.0136 53.3695,38.1831 58.1424,40.3525 59.878,44.2576" stroke="#3fffb7" stroke-width="2" /><polyline fill="none" points="39.9186,66.3864 48.1627,68.5559 59.878,74.1966" stroke="#b7ff3f" stroke-width="2" /><polyline fill="none" points="37.7492,87.6475 43.8237,92.4203 52.0678,95.4576" stroke="#ffb900" stroke-width="2" /><polyline fill="none" points="65.0847,46.4271 76.8,40.3525 86.3458,37.3153 88.9492,37.7492" stroke="#ff3000" stroke-width="2" /><polyline fill="none" points="68.5559,70.7254 77.2339,68.122 86.3458,63.3492" stroke="#7f0000" stroke-width="2" /></svg>