<?xml version="1.0" encoding="utf-8" ?>
<svg baseProfile="tiny" height="128" version="1.2" viewBox="0,0,128,128" width="128" xmlns="http://www.w3.org/2000/svg" xmlns:ev="http://www.w3.org/2001/xml-events" xmlns:xlink="http://www.w3.org/1999/xlink"><defs /><polyline fill="none" points="41.6542,21.261 37.7492,20.3932 34.278,21.261 22.9966,32.1085 13.4508,47.2949 10.4136,56.4068 8.678,62.9153 8.678,77.2339 12.1492,85.9119 22.1288,98.4949 35.1458,105.8712 48.1627,109.7763 72.8949,110.6441 82.0068,109.3424 97.1932,104.1356 104.1356,99.7966 109.7763,93.722 114.5492,86.3458 118.8881,68.5559 119.322,46.4271 114.5492,36.4475 104.1356,26.0339 76.8,14.3186 62.9153,10.8475 49.0305,10.4136 41.2203,13.8847 37.7492,17.7898" stroke="#00007f" stroke-width="2" /><polyline fill="none" points="59.4441,8.678 67.6881,56.4068 68.122,78.1017 65.0847,90.2508 57.7085,101.9661" stroke="#00d4ff" stroke-width="2" /><polyline fill="none" points="15.1864,53.8034 36.8814,58.1424 64.6508,58.5763 94.1559,55.539 109.3424,49.0305" stroke="#ffe500" stroke-width="2" /><polyline fill="none" points="60.3119,95.4576 55.539,101.5322" stroke="#7f0000" stroke-width="2" /></svg>