<?xml version="1.0" encoding="utf-8" ?>
<svg baseProfile="tiny" height="128" version="1.2" viewBox="0,0,128,128" width="128" xmlns="http://www.w3.org/2000/svg" xmlns:ev="http://www.w3.org/2001/xml-events" xmlns:xlink="http://www.w3.org/1999/xlink"><defs /><polyline fill="none" points="103.1837,26.5578 94.4762,16.5442 74.449,9.1429 44.8435,8.7075 31.3469,11.7551 19.5918,20.0272 10.8844,31.7823 9.1429,37.8776 8.7075,49.1973 14.3673,60.0816 23.0748,68.7891 29.1701,72.2721 43.102,75.7551 59.6463,74.8844 80.1088,67.483 107.102,50.068 112.3265,43.9728 117.551,33.9592 117.551,20.4626 112.7619,14.3673 106.6667,10.449 97.9592,9.1429 94.9116,12.6259 94.4762,15.6735" stroke="#00007f" stroke-width="2" /><polyline fill="none" points="32.2177,12.1905 35.7007,14.3673 40.0544,20.898 42.6667,32.2177 42.2313,41.7959 38.3129,48.7619 21.3333,60.0816" stroke="#0080ff" stroke-width="2" /><polyline fill="none" points="22.2041,18.7211 26.9932,26.1224 26.9932,38.7483 21.7687,50.9388 15.2381,58.3401" stroke="#7cff79" stroke-width="2" /><polyline fill="none" points="90.1224,13.4966 88.8163,26.9932 89.6871,40.0544 97.0884,49.1973 105.3605,52.6803 106.6667,52.6803 106.2313,49.1973" stroke="#ff9400" stroke-width="2" /><polyline fill="none" points="97.0884,11.3197 98.3946,27.8639 103.619,38.7483 111.8912,44.8435 117.9864,45.2789 119.2925,43.102" stroke="#7f0000" stroke-width="2" /></svg>