<?xml version="1.0" encoding="utf-8" ?>
<svg baseProfile="tiny" height="128" version="1.2" viewBox="0,0,128,128" width="128" xmlns="http://www.w3.org/2000/svg" xmlns:ev="http://www.w3.org/2001/xml-events" xmlns:xlink="http://www.w3.org/1999/xlink"><defs /><polyline fill="none" points="71.1593,11.7153 63.7831,9.1119 58.5763,13.8847 51.6339,26.0339 40.7864,50.7661 29.939,67.2542 12.5831,85.9119 8.678,95.0237 8.678,101.9661 9.5458,103.2678 15.1864,103.7017 16.4881,102.4 27.7695,87.2136 36.4475,67.6881 58.1424,52.9356 72.0271,39.9186 79.4034,30.3729 82.0068,22.1288 81.5729,16.0542 76.8,9.9797 68.5559,8.678" stroke="#00007f" stroke-width="2" /><polyline fill="none" points="108.4746,67.6881 97.6271,63.7831 95.8915,63.7831 92.4203,67.6881 92.4203,80.7051 95.0237,85.9119 100.6644,89.3831 116.2847,89.3831 118.4542,88.0814 119.322,84.6102 118.8881,76.3661 113.6814,65.9525 106.739,64.6508 103.7017,66.8203" stroke="#7f0000" stroke-width="2" /></svg>