<?xml version="1.0" encoding="utf-8" ?>
<svg baseProfile="tiny" height="128" version="1.2" viewBox="0,0,128,128" width="128" xmlns="http://www.w3.org/2000/svg" xmlns:ev="http://www.w3.org/2001/xml-events" xmlns:xlink="http://www.w3.org/1999/xlink"><defs /><polyline fill="none" points="65.7415,114.068 62.2585,117.1156 47.0204,117.1156 41.7959,115.8095 30.9116,111.0204 20.4626,102.7483 16.1088,96.2177 10.449,81.8503 8.7075,73.1429 8.7075,54.4218 17.415,33.9592 23.5102,26.1224 37.0068,14.3673 52.2449,8.7075 76.1905,9.1429 90.5578,14.8027 97.5238,19.1565 104.0544,24.381 112.3265,34.8299 117.1156,47.8912 117.1156,61.3878 114.9388,67.9184 106.6667,80.9796 95.3469,94.4762 75.3197,108.8435 69.2245,111.8912 59.2109,114.5034 48.7619,114.068 42.2313,110.585" stroke="#00007f" stroke-width="2" /><polyline fill="none" points="19.1565,32.6531 29.1701,37.4422 37.4422,43.9728 42.6667,50.068 50.068,63.5646 55.7279,80.1088 57.034,90.9932 57.9048,116.2449 56.5986,119.2925" stroke="#7cff79" stroke-width="2" /><polyline fill="none" points="71.8367,9.1429 70.5306,17.415 74.0136,37.0068 80.9796,55.7279 96.6531,76.6259 107.102,85.7687 115.3741,90.1224" stroke="#7f0000" stroke-width="2" /></svg>