<?xml version="1.0" encoding="utf-8" ?>
<svg baseProfile="tiny" height="128" version="1.2" viewBox="0,0,128,128" width="128" xmlns="http://www.w3.org/2000/svg" xmlns:ev="http://www.w3.org/2001/xml-events" xmlns:xlink="http://www.w3.org/1999/xlink"><defs /><polyline fill="none" points="76.3661,13.4508 55.539,8.678 36.8814,8.678 24.7322,14.7525 16.4881,26.4678 11.2814,41.6542 8.678,54.6712 8.678,76.8 16.922,86.3458 33.8441,94.1559 72.8949,103.2678 90.6847,105.4373 105.0034,104.1356 110.2102,101.5322 118.4542,91.1186 119.322,77.6678 118.8881,38.6169 117.5864,33.4102 111.078,21.6949 105.4373,16.922 101.0983,14.7525 78.9695,13.4508" stroke="#00007f" stroke-width="2" /><polyline fill="none" points="84.6102,18.6576 72.0271,69.8576 70.2915,82.4407 70.7254,102.8339 78.9695,113.6814" stroke="#7cff79" stroke-width="2" /><polyline fill="none" points="36.0136,13.4508 36.0136,62.0475 30.8068,85.0441 26.9017,92.4203" stroke="#7f0000" stroke-width="2" /></svg>