<?xml version="1.0" encoding="utf-8" ?>
<svg baseProfile="tiny" height="128" version="1.2" viewBox="0,0,128,128" width="128" xmlns="http://www.w3.org/2000/svg" xmlns:ev="http://www.w3.org/2001/xml-events" xmlns:xlink="http://www.w3.org/1999/xlink"><defs /><polyline fill="none" points="114.1153,33.4102 109.3424,27.7695 99.3627,19.5254 80.2712,9.9797 64.2169,8.678 45.9932,11.7153 39.4847,15.6203 31.6746,22.9966 10.8475,62.9153 8.678,74.1966 9.5458,83.3085 14.3186,93.2881 19.0915,99.7966 25.6,105.4373 40.7864,106.739 77.2339,104.1356 93.2881,97.1932 117.1525,81.5729 119.322,74.1966 119.322,59.4441 115.8508,41.6542 111.9458,39.0508" stroke="#00007f" stroke-width="2" /><polyline fill="none" points="34.7119,26.0339 37.3153,26.0339 43.8237,33.8441 51.6339,49.4644 56.4068,54.2373 61.1797,54.2373 78.9695,49.0305 95.0237,42.9559 116.7186,45.1254" stroke="#7cff79" stroke-width="2" /><polyline fill="none" points="89.8169,98.9288 88.5153,88.0814 83.3085,76.3661 78.5356,72.8949 73.7627,72.8949 53.8034,79.4034 37.3153,95.8915 35.1458,100.6644 34.7119,106.739" stroke="#7f0000" stroke-width="2" /></svg>