<?xml version="1.0" encoding="utf-8" ?>
<svg baseProfile="tiny" height="128" version="1.2" viewBox="0,0,128,128" width="128" xmlns="http://www.w3.org/2000/svg" xmlns:ev="http://www.w3.org/2001/xml-events" xmlns:xlink="http://www.w3.org/1999/xlink"><defs /><polyline fill="none" points="57.7085,10.4136 50.3322,9.1119 44.6915,10.4136 32.9763,18.6576 29.5051,23.8644 25.6,26.4678 11.2814,51.6339 8.678,62.0475 9.1119,79.4034 13.4508,86.7797 29.5051,97.1932 37.7492,100.2305 60.7458,107.1729 88.0814,108.0407 96.3254,104.1356 105.8712,96.3254 112.3797,86.3458 118.4542,72.461 119.322,45.5593 111.9458,22.9966 107.1729,15.1864 95.4576,10.8475 75.9322,8.678 60.3119,9.1119 44.6915,14.7525" stroke="#00007f" stroke-width="2" /><polyline fill="none" points="21.261,33.8441 48.5966,39.9186 62.4814,45.9932 76.3661,55.1051 90.2508,67.2542 108.0407,90.2508 101.5322,80.7051" stroke="#7cff79" stroke-width="2" /><polyline fill="none" points="10.8475,54.6712 81.5729,67.6881 91.9864,76.8 103.7017,93.2881" stroke="#7f0000" stroke-width="2" /></svg>