<?xml version="1.0" encoding="utf-8" ?>
<svg baseProfile="tiny" height="128" version="1.2" viewBox="0,0,128,128" width="128" xmlns="http://www.w3.org/2000/svg" xmlns:ev="http://www.w3.org/2001/xml-events" xmlns:xlink="http://www.w3.org/1999/xlink"><defs /><polyline fill="none" points="119.322,37.7492 114.5492,30.8068 104.5695,22.9966 96.3254,18.2237 84.1763,13.8847 74.6305,11.2814 58.5763,9.5458 44.6915,10.8475 30.8068,15.1864 23.8644,19.5254 18.6576,25.6 13.0169,37.3153 11.2814,46.861 12.1492,55.1051 14.7525,63.3492 21.261,72.8949 29.0712,79.8373 33.8441,82.0068 44.6915,84.1763 57.7085,85.0441 71.1593,82.8746 78.1017,80.2712 86.3458,75.4983 94.5898,68.5559 103.2678,58.5763 108.9085,49.0305 114.5492,35.1458 115.8508,27.7695 114.1153,19.5254 110.2102,16.922" stroke="#00007f" stroke-width="2" /><polyline fill="none" points="91.9864,16.0542 88.0814,22.1288 86.3458,30.8068 88.0814,39.4847 88.0814,59.878 90.2508,69.8576" stroke="#00d4ff" stroke-width="2" /><polyline fill="none" points="39.9186,8.678 38.1831,13.0169 37.7492,20.8271 40.7864,49.4644 39.9186,61.6136 34.7119,72.461 29.939,76.3661 27.3356,75.9322" stroke="#ffe500" stroke-width="2" /><polyline fill="none" points="8.678,42.9559 18.2237,42.522 58.1424,34.7119 67.2542,34.7119 96.7593,39.0508 106.739,44.2576 112.3797,49.8983 111.5119,50.7661" stroke="#7f0000" stroke-width="2" /></svg>