<?xml version="1.0" encoding="utf-8" ?>
<svg baseProfile="tiny" height="128" version="1.2" viewBox="0,0,128,128" width="128" xmlns="http://www.w3.org/2000/svg" xmlns:ev="http://www.w3.org/2001/xml-events" xmlns:xlink="http://www.w3.org/1999/xlink"><defs /><polyline fill="none" points="83.3085,8.678 57.2746,8.678 48.5966,11.7153 38.1831,19.0915 25.6,29.939 17.3559,39.4847 10.8475,54.2373 8.678,67.2542 8.678,82.4407 11.2814,89.3831 16.0542,96.3254 22.5627,99.3627 32.9763,101.0983 86.7797,101.0983 102.8339,97.1932 107.6068,93.722 114.1153,78.9695 119.322,59.0102 119.322,44.6915 116.7186,37.7492 107.6068,28.6373 83.3085,17.3559" stroke="#00007f" stroke-width="2" /><polyline fill="none" points="37.7492,17.3559 37.7492,26.0339 45.1254,49.4644 45.9932,57.2746 45.5593,78.1017 38.6169,96.7593" stroke="#004cff" stroke-width="2" /><polyline fill="none" points="94.5898,20.3932 91.5525,20.3932 85.478,26.0339 79.4034,34.7119 71.5932,56.4068 68.5559,71.5932 68.5559,95.0237 68.9898,104.1356 71.5932,110.6441" stroke="#29ffcd" stroke-width="2" /><polyline fill="none" points="33.4102,37.7492 47.2949,34.278" stroke="#cdff29" stroke-width="2" /><polyline fill="none" points="40.7864,51.6339 47.2949,54.2373" stroke="#ff6700" stroke-width="2" /><polyline fill="none" points="37.3153,80.2712 51.6339,83.7424" stroke="#7f0000" stroke-width="2" /></svg>