<?xml version="1.0" encoding="utf-8" ?>
<svg baseProfile="tiny" height="128" version="1.2" viewBox="0,0,128,128" width="128" xmlns="http://www.w3.org/2000/svg" xmlns:ev="http://www.w3.org/2001/xml-events" xmlns:xlink="http://www.w3.org/1999/xlink"><defs /><polyline fill="none" points="36.8814,14.7525 29.939,17.3559 25.6,22.5627 24.2983,29.5051 27.7695,36.0136 33.8441,39.4847 42.9559,39.9186 49.0305,36.8814 51.6339,32.1085 51.6339,27.7695 48.1627,22.1288 34.278,12.5831" stroke="#00007f" stroke-width="2" /><polyline fill="none" points="33.4102,39.9186 30.3729,73.7627" stroke="#0010ff" stroke-width="2" /><polyline fill="none" points="8.678,40.3525 21.6949,50.7661 32.5424,54.6712 45.1254,52.0678 56.8407,44.6915" stroke="#00a4ff" stroke-width="2" /><polyline fill="none" points="31.6746,75.4983 12.5831,85.478" stroke="#3fffb7" stroke-width="2" /><polyline fill="none" points="31.6746,72.8949 47.2949,84.1763" stroke="#b7ff3f" stroke-width="2" /><polyline fill="none" points="57.7085,42.522 58.5763,49.4644 60.3119,50.7661 61.1797,42.522 73.7627,35.1458 101.9661,11.7153 101.9661,9.9797 98.061,8.678 88.0814,11.7153 76.8,19.9593 53.3695,45.1254" stroke="#ffb900" stroke-width="2" /><polyline fill="none" points="118.0203,20.3932 108.4746,24.2983 105.0034,29.5051 105.8712,32.9763 107.6068,34.7119 114.5492,35.1458 118.0203,32.1085 119.322,26.0339 117.1525,23.8644 111.078,22.5627" stroke="#ff3000" stroke-width="2" /><polyline fill="none" points="55.9729,36.8814 57.7085,44.2576" stroke="#7f0000" stroke-width="2" /></svg>