<?xml version="1.0" encoding="utf-8" ?>
<svg baseProfile="tiny" height="128" version="1.2" viewBox="0,0,128,128" width="128" xmlns="http://www.w3.org/2000/svg" xmlns:ev="http://www.w3.org/2001/xml-events" xmlns:xlink="http://www.w3.org/1999/xlink"><defs /><polyline fill="none" points="83.7424,11.2814 69.4237,8.678 54.2373,9.1119 40.7864,13.8847 29.5051,19.9593 22.9966,26.9017 13.8847,41.2203 9.1119,56.4068 8.678,68.5559 17.7898,81.139 42.0881,92.8542 54.2373,95.4576 72.461,95.4576 91.1186,91.5525 98.9288,87.6475 107.1729,82.0068 115.8508,68.9898 118.8881,59.878 119.322,40.3525 115.4169,30.3729 102.8339,19.9593 86.3458,12.5831 78.9695,13.0169" stroke="#00007f" stroke-width="2" /><polyline fill="none" points="40.7864,13.4508 45.1254,13.4508 51.2,16.0542 55.1051,19.5254 58.1424,25.6 59.4441,30.3729 59.0102,53.3695 52.5017,66.8203 42.9559,80.2712 33.4102,86.3458 23.8644,89.8169 22.5627,84.1763" stroke="#7cff79" stroke-width="2" /><polyline fill="none" points="104.1356,24.2983 96.3254,30.3729 88.9492,38.6169 75.0644,64.6508 71.5932,74.6305 71.5932,82.4407 74.6305,90.6847" stroke="#7f0000" stroke-width="2" /></svg>