<?xml version="1.0" encoding="utf-8" ?>
<svg baseProfile="tiny" height="128" version="1.2" viewBox="0,0,128,128" width="128" xmlns="http://www.w3.org/2000/svg" xmlns:ev="http://www.w3.org/2001/xml-events" xmlns:xlink="http://www.w3.org/1999/xlink"><defs /><polyline fill="none" points="90.2508,12.1492 79.8373,8.678 67.2542,15.1864 55.1051,26.9017 44.2576,41.2203 35.1458,57.7085 30.8068,74.1966 29.5051,87.2136 29.5051,99.3627 31.6746,108.9085 37.3153,115.4169 45.5593,119.322 56.4068,119.322 70.7254,114.1153 82.0068,100.2305 91.1186,83.3085 95.8915,65.9525 97.6271,51.6339 97.6271,38.6169 94.1559,29.5051 90.2508,23.8644 83.3085,19.5254 74.6305,17.7898 59.878,19.5254" stroke="#00007f" stroke-width="2" /><polyline fill="none" points="53.3695,36.4475 55.1051,55.1051" stroke="#0010ff" stroke-width="2" /><polyline fill="none" points="55.539,75.9322 53.8034,93.722" stroke="#00a4ff" stroke-width="2" /><polyline fill="none" points="63.7831,83.7424 63.3492,92.4203 59.4441,105.8712" stroke="#3fffb7" stroke-width="2" /><polyline fill="none" points="82.4407,26.0339 81.139,45.1254" stroke="#b7ff3f" stroke-width="2" /><polyline fill="none" points="85.0441,63.7831 83.3085,67.6881 82.8746,84.6102" stroke="#ffb900" stroke-width="2" /><polyline fill="none" points="80.2712,92.4203 78.1017,95.8915 78.1017,101.9661" stroke="#ff3000" stroke-width="2" /><polyline fill="none" points="66.3864,12.5831 48.5966,14.3186 40.7864,16.922 24.2983,26.9017 16.0542,36.8814 10.4136,57.2746 8.678,87.6475 14.3186,103.7017 21.261,112.3797" stroke="#7f0000" stroke-width="2" /></svg>