<?xml version="1.0" encoding="utf-8" ?>
<svg baseProfile="tiny" height="128" version="1.2" viewBox="0,0,128,128" width="128" xmlns="http://www.w3.org/2000/svg" xmlns:ev="http://www.w3.org/2001/xml-events" xmlns:xlink="http://www.w3.org/1999/xlink"><defs /><polyline fill="none" points="56.8407,8.678 34.7119,10.4136 28.2034,13.8847 22.1288,19.9593 16.922,29.0712 12.5831,40.7864 9.9797,53.8034 8.678,66.8203 8.678,79.8373 10.4136,92.8542 12.5831,103.2678 18.2237,111.5119 23.4305,116.7186 30.8068,118.8881 39.4847,119.322 50.3322,116.7186 61.1797,112.3797 70.2915,106.3051 88.5153,82.4407 94.1559,65.5186 91.5525,48.5966 82.8746,32.1085 77.2339,25.1661 63.7831,16.0542 48.5966,12.1492 32.9763,14.3186" stroke="#00007f" stroke-width="2" /><polyline fill="none" points="22.9966,23.4305 38.1831,53.8034 41.6542,72.461 39.9186,84.6102 36.0136,95.0237 27.3356,108.0407 21.6949,111.5119" stroke="#0080ff" stroke-width="2" /><polyline fill="none" points="70.7254,16.4881 68.9898,17.3559 66.3864,22.9966 64.6508,41.2203 65.5186,61.1797 68.9898,74.6305 77.6678,88.5153 82.8746,93.722 88.9492,93.722 95.4576,89.3831" stroke="#7cff79" stroke-width="2" /><polyline fill="none" points="18.6576,45.1254 36.0136,35.5797" stroke="#ff9400" stroke-width="2" /><polyline fill="none" points="31.2407,58.1424 39.9186,56.4068" stroke="#7f0000" stroke-width="2" /></svg>