<?xml version="1.0" encoding="utf-8" ?>
<svg baseProfile="tiny" height="128" version="1.2" viewBox="0,0,128,128" width="128" xmlns="http://www.w3.org/2000/svg" xmlns:ev="http://www.w3.org/2001/xml-events" xmlns:xlink="http://www.w3.org/1999/xlink"><defs /><polyline fill="none" points="72.0271,11.7153 47.7288,11.7153 39.9186,15.6203 31.2407,22.5627 22.9966,29.5051 16.4881,38.1831 9.5458,53.8034 8.678,61.1797 8.678,75.0644 10.8475,84.1763 23.8644,101.0983 42.9559,112.3797 53.8034,116.2847 65.9525,118.4542 88.0814,119.322 94.1559,114.5492 99.3627,108.0407 106.3051,95.0237 109.3424,80.2712 99.3627,64.2169 83.3085,42.0881 62.9153,22.9966 55.9729,9.9797 52.9356,8.678" stroke="#00007f" stroke-width="2" /><polyline fill="none" points="42.9559,12.5831 42.9559,24.7322 49.0305,83.3085 47.7288,89.3831 42.9559,95.0237 30.8068,101.0983 30.8068,95.8915 49.0305,75.0644" stroke="#7cff79" stroke-width="2" /><polyline fill="none" points="71.1593,41.6542 71.1593,65.0847 72.8949,79.8373 82.0068,89.8169 91.9864,98.061 99.3627,100.2305" stroke="#7f0000" stroke-width="2" /></svg>