<?xml version="1.0" encoding="utf-8" ?>
<svg baseProfile="tiny" height="128" version="1.2" viewBox="0,0,128,128" width="128" xmlns="http://www.w3.org/2000/svg" xmlns:ev="http://www.w3.org/2001/xml-events" xmlns:xlink="http://www.w3.org/1999/xlink"><defs /><polyline fill="none" points="67.2542,13.0169 58.5763,10.4136 47.2949,10.4136 35.1458,15.1864 20.3932,27.3356 11.7153,39.9186 9.5458,48.5966 8.678,59.878 9.9797,67.6881 20.3932,86.3458 26.4678,93.722 33.8441,99.3627 42.522,103.7017 50.7661,105.8712 65.0847,106.3051 74.6305,105.4373 90.6847,100.6644 97.1932,96.7593 106.3051,86.3458 114.1153,72.0271 118.4542,57.2746 119.322,48.1627 118.4542,40.7864 113.2475,31.2407 108.9085,25.1661 96.3254,15.1864 83.7424,10.4136 59.0102,9.9797 55.9729,11.2814" stroke="#00007f" stroke-width="2" /><polyline fill="none" points="87.2136,12.1492 84.6102,20.8271 81.5729,39.4847 80.2712,72.8949 89.8169,101.9661" stroke="#004cff" stroke-width="2" /><polyline fill="none" points="33.4102,8.678 38.6169,55.539 38.6169,74.1966 29.0712,100.2305" stroke="#29ffcd" stroke-width="2" /><polyline fill="none" points="28.2034,25.6 47.7288,25.6" stroke="#cdff29" stroke-width="2" /><polyline fill="none" points="27.3356,46.861 44.2576,47.2949 51.2,49.0305" stroke="#ff6700" stroke-width="2" /><polyline fill="none" points="27.3356,65.5186 45.1254,69.8576 50.7661,76.3661" stroke="#7f0000" stroke-width="2" /></svg>