<?xml version="1.0" encoding="utf-8" ?>
<svg baseProfile="tiny" height="128" version="1.2" viewBox="0,0,128,128" width="128" xmlns="http://www.w3.org/2000/svg" xmlns:ev="http://www.w3.org/2001/xml-events" xmlns:xlink="http://www.w3.org/1999/xlink"><defs /><polyline fill="none" points="66.3864,28.2034 56.8407,24.2983 43.3898,22.1288 28.2034,22.1288 24.2983,24.2983 15.6203,32.9763 8.678,48.5966 8.678,72.461 16.0542,84.6102 29.939,90.6847 49.0305,96.3254 78.1017,102.4 90.2508,103.7017 115.8508,103.7017 119.322,92.4203 119.322,82.0068 118.4542,78.5356 107.1729,62.4814 92.8542,49.4644 73.7627,37.3153 61.1797,26.9017 54.2373,24.2983 43.8237,23.4305" stroke="#00007f" stroke-width="2" /><polyline fill="none" points="46.861,16.0542 47.2949,50.7661 42.522,68.122 36.0136,82.4407 35.1458,79.8373" stroke="#7cff79" stroke-width="2" /><polyline fill="none" points="63.7831,8.678 66.3864,20.8271 61.6136,36.0136 61.6136,60.7458 59.4441,79.4034 56.4068,85.9119 54.2373,87.2136" stroke="#7f0000" stroke-width="2" /></svg>