<?xml version="1.0" encoding="utf-8" ?>
<svg baseProfile="tiny" height="128" version="1.2" viewBox="0,0,128,128" width="128" xmlns="http://www.w3.org/2000/svg" xmlns:ev="http://www.w3.org/2001/xml-events" xmlns:xlink="http://www.w3.org/1999/xlink"><defs /><polyline fill="none" points="77.6678,12.5831 51.2,14.3186 31.2407,21.261 19.5254,35.1458 13.0169,46.861 9.9797,59.878 8.678,78.5356 10.8475,91.5525 18.2237,102.4 30.8068,112.3797 47.2949,118.4542 61.6136,119.322 75.0644,117.5864 95.0237,106.739 105.0034,96.3254 114.1153,79.8373 115.8508,62.9153 114.5492,48.5966 109.7763,35.1458 98.061,18.2237 89.3831,12.1492 78.1017,8.678" stroke="#00007f" stroke-width="2" /><polyline fill="none" points="81.5729,11.2814 65.0847,25.6 55.1051,38.6169 46.861,54.2373 42.0881,86.7797 46.4271,109.3424 48.5966,114.1153 53.3695,117.5864" stroke="#0080ff" stroke-width="2" /><polyline fill="none" points="41.2203,113.2475 65.9525,108.0407" stroke="#7cff79" stroke-width="2" /><polyline fill="none" points="34.278,91.1186 50.7661,87.6475" stroke="#ff9400" stroke-width="2" /><polyline fill="none" points="45.1254,58.1424 65.5186,58.5763" stroke="#7f0000" stroke-width="2" /></svg>