<?xml version="1.0" encoding="utf-8" ?>
<svg baseProfile="tiny" height="128" version="1.2" viewBox="0,0,128,128" width="128" xmlns="http://www.w3.org/2000/svg" xmlns:ev="http://www.w3.org/2001/xml-events" xmlns:xlink="http://www.w3.org/1999/xlink"><defs /><polyline fill="none" points="50.3322,8.678 43.8237,8.678 39.4847,11.2814 24.7322,24.7322 16.922,29.0712 11.2814,35.5797 10.4136,51.6339 8.678,57.2746 8.678,87.2136 13.0169,98.9288 16.0542,103.2678 22.1288,108.9085 40.3525,114.5492 85.0441,114.5492 96.7593,109.3424 104.5695,100.6644 109.3424,91.1186 113.2475,79.4034 113.2475,53.3695 106.739,42.9559 87.6475,20.8271 75.4983,12.1492 55.9729,14.3186" stroke="#00007f" stroke-width="2" /><polyline fill="none" points="82.8746,20.3932 80.2712,20.3932 76.8,23.4305 70.2915,35.5797 67.6881,38.1831 67.6881,68.5559 69.8576,88.0814 70.7254,92.4203 80.7051,105.4373 82.8746,111.078 90.6847,118.0203 93.2881,119.322 102.8339,119.322 103.7017,112.3797" stroke="#7cff79" stroke-width="2" /><polyline fill="none" points="30.8068,22.9966 33.8441,25.1661 38.6169,25.1661 47.2949,31.6746 53.8034,39.9186 57.7085,59.4441 57.7085,66.8203 60.3119,69.8576 60.3119,79.4034 50.7661,106.3051 44.6915,113.2475 42.0881,106.739" stroke="#7f0000" stroke-width="2" /></svg>