<?xml version="1.0" encoding="utf-8" ?>
<svg baseProfile="tiny" height="128" version="1.2" viewBox="0,0,128,128" width="128" xmlns="http://www.w3.org/2000/svg" xmlns:ev="http://www.w3.org/2001/xml-events" xmlns:xlink="http://www.w3.org/1999/xlink"><defs /><polyline fill="none" points="111.9458,29.939 108.0407,22.1288 97.6271,12.5831 47.7288,8.678 16.4881,30.3729 10.8475,44.6915 8.678,63.7831 20.8271,89.8169 38.6169,101.9661 52.0678,106.3051 77.2339,108.9085 88.9492,105.4373 93.722,101.9661 108.9085,84.6102 114.9831,74.1966 117.5864,66.3864 119.322,55.1051 118.0203,42.9559 112.3797,32.5424 92.8542,19.0915" stroke="#00007f" stroke-width="2" /><polyline fill="none" points="31.6746,13.4508 31.6746,22.5627 33.8441,35.1458 46.4271,57.7085 64.6508,75.0644 82.0068,85.9119 91.5525,90.6847 111.5119,95.4576 113.2475,94.5898" stroke="#0028ff" stroke-width="2" /><polyline fill="none" points="19.9593,47.2949 43.8237,31.6746" stroke="#00d4ff" stroke-width="2" /><polyline fill="none" points="36.4475,63.7831 54.6712,48.5966" stroke="#7cff79" stroke-width="2" /><polyline fill="none" points="49.4644,77.2339 64.6508,62.9153" stroke="#ffe500" stroke-width="2" /><polyline fill="none" points="69.4237,83.7424 82.0068,72.461" stroke="#ff4600" stroke-width="2" /><polyline fill="none" points="89.3831,88.5153 96.3254,78.1017" stroke="#7f0000" stroke-width="2" /></svg>