<?xml version="1.0" encoding="utf-8" ?>
<svg baseProfile="tiny" height="128" version="1.2" viewBox="0,0,128,128" width="128" xmlns="http://www.w3.org/2000/svg" xmlns:ev="http://www.w3.org/2001/xml-events" xmlns:xlink="http://www.w3.org/1999/xlink"><defs /><polyline fill="none" points="40.7864,8.678 18.2237,16.4881 13.0169,21.6949 8.678,29.0712 25.1661,98.4949 38.1831,101.0983 66.3864,101.0983 70.7254,98.4949 90.2508,94.1559 99.3627,88.9492 110.6441,79.4034 118.4542,64.6508 119.322,41.6542 106.3051,29.5051 89.8169,23.4305 68.122,19.9593 33.8441,19.9593 29.5051,23.4305 27.7695,26.9017" stroke="#00007f" stroke-width="2" /><polyline fill="none" points="45.9932,27.7695 45.9932,53.8034 38.6169,62.4814 19.0915,73.3288 24.2983,72.461" stroke="#00d4ff" stroke-width="2" /><polyline fill="none" points="87.2136,33.8441 84.1763,38.6169 82.8746,44.2576 82.8746,62.9153 85.478,75.0644 95.4576,82.8746 105.4373,84.6102 109.7763,87.2136 114.1153,84.6102" stroke="#ffe500" stroke-width="2" /><polyline fill="none" points="33.8441,88.9492 50.3322,82.0068 70.7254,81.139 77.2339,91.1186 78.5356,95.8915 77.6678,101.0983" stroke="#7f0000" stroke-width="2" /></svg>