<?xml version="1.0" encoding="utf-8" ?>
<svg baseProfile="tiny" height="128" version="1.2" viewBox="0,0,128,128" width="128" xmlns="http://www.w3.org/2000/svg" xmlns:ev="http://www.w3.org/2001/xml-events" xmlns:xlink="http://www.w3.org/1999/xlink"><defs /><polyline fill="none" points="36.0136,8.678 27.3356,8.678 24.2983,10.8475 19.5254,17.3559 9.1119,53.3695 8.678,67.2542 10.4136,76.8 13.4508,82.8746 21.6949,93.2881 36.0136,103.7017 59.4441,114.1153 86.7797,114.9831 95.4576,106.3051 105.8712,101.5322 113.6814,94.1559 116.7186,86.7797 119.322,68.5559 119.322,54.2373 117.1525,49.0305 108.0407,35.5797 98.4949,28.6373 87.6475,22.9966 67.6881,16.0542 38.1831,10.4136 29.5051,11.2814" stroke="#00007f" stroke-width="2" /><polyline fill="none" points="48.1627,16.922 46.861,40.7864 37.3153,68.9898 30.3729,82.0068 18.2237,96.7593 17.3559,95.4576" stroke="#0080ff" stroke-width="2" /><polyline fill="none" points="75.4983,38.1831 75.4983,57.7085 72.8949,71.1593 69.4237,82.4407 61.6136,99.3627 59.0102,102.4 55.9729,102.8339 54.2373,100.6644" stroke="#7cff79" stroke-width="2" /><polyline fill="none" points="24.2983,50.7661 26.0339,53.3695 32.9763,58.1424 50.7661,64.2169 66.8203,66.3864 92.4203,66.3864" stroke="#ff9400" stroke-width="2" /><polyline fill="none" points="29.939,66.8203 35.5797,71.1593 48.1627,77.6678 82.8746,79.8373" stroke="#7f0000" stroke-width="2" /></svg>