<?xml version="1.0" encoding="utf-8" ?>
<svg baseProfile="tiny" height="128" version="1.2" viewBox="0,0,128,128" width="128" xmlns="http://www.w3.org/2000/svg" xmlns:ev="http://www.w3.org/2001/xml-events" xmlns:xlink="http://www.w3.org/1999/xlink"><defs /><polyline fill="none" points="42.522,11.2814 34.278,14.7525 22.9966,24.7322 8.678,49.8983 9.1119,64.6508 12.1492,75.4983 34.7119,91.9864 50.7661,97.1932 65.5186,97.6271 89.8169,94.1559 95.8915,90.6847 114.1153,69.4237 119.322,45.9932 119.322,39.9186 115.8508,33.4102 109.7763,26.4678 101.0983,20.8271 86.7797,14.7525 59.0102,9.1119 43.3898,8.678 40.3525,10.8475" stroke="#00007f" stroke-width="2" /><polyline fill="none" points="34.7119,15.1864 38.1831,22.5627 38.6169,31.6746 32.9763,46.861 34.278,61.6136 37.3153,67.6881 42.0881,72.461 52.0678,75.4983 65.5186,74.1966 72.8949,69.4237 74.6305,66.3864 77.2339,59.0102 77.2339,48.5966 73.7627,31.2407 73.7627,24.2983 75.0644,19.0915 78.1017,16.922" stroke="#0000ff" stroke-width="2" /><polyline fill="none" points="33.4102,29.0712 37.3153,26.9017" stroke="#0080ff" stroke-width="2" /><polyline fill="none" points="33.8441,45.9932 39.0508,46.4271" stroke="#15ffe1" stroke-width="2" /><polyline fill="none" points="39.0508,61.6136 36.4475,68.9898" stroke="#7cff79" stroke-width="2" /><polyline fill="none" points="54.6712,68.122 58.1424,75.4983 60.3119,77.6678 61.6136,76.3661" stroke="#e4ff12" stroke-width="2" /><polyline fill="none" points="72.461,63.3492 78.9695,66.8203" stroke="#ff9400" stroke-width="2" /><polyline fill="none" points="75.4983,50.7661 78.5356,50.7661 79.8373,49.4644" stroke="#ff1d00" stroke-width="2" /><polyline fill="none" points="75.4983,31.6746 76.8,29.5051 84.6102,24.2983" stroke="#7f0000" stroke-width="2" /></svg>