<?xml version="1.0" encoding="utf-8" ?>
<svg baseProfile="tiny" height="128" version="1.2" viewBox="0,0,128,128" width="128" xmlns="http://www.w3.org/2000/svg" xmlns:ev="http://www.w3.org/2001/xml-events" xmlns:xlink="http://www.w3.org/1999/xlink"><defs /><polyline fill="none" points="119.322,25.6 117.5864,22.1288 104.5695,15.6203 84.1763,9.9797 63.3492,8.678 41.2203,14.7525 17.3559,30.8068 9.9797,44.2576 8.678,51.6339 9.5458,61.1797 15.1864,71.1593 21.6949,78.5356 35.1458,87.2136 45.1254,91.1186 55.539,92.8542 67.2542,91.1186 88.9492,78.9695 98.9288,69.4237 107.1729,58.1424 111.078,37.7492 111.9458,17.7898 109.7763,17.3559" stroke="#00007f" stroke-width="2" /><polyline fill="none" points="40.3525,16.922 41.2203,43.8237 39.0508,53.8034 24.2983,72.0271" stroke="#7cff79" stroke-width="2" /><polyline fill="none" points="94.1559,16.0542 88.9492,26.4678 85.0441,46.861 85.0441,60.3119 88.0814,76.8 91.1186,78.9695" stroke="#7f0000" stroke-width="2" /></svg>