<?xml version="1.0" encoding="utf-8" ?>
<svg baseProfile="tiny" height="128" version="1.2" viewBox="0,0,128,128" width="128" xmlns="http://www.w3.org/2000/svg" xmlns:ev="http://www.w3.org/2001/xml-events" xmlns:xlink="http://www.w3.org/1999/xlink"><defs /><polyline fill="none" points="80.7051,14.3186 80.7051,16.0542 72.8949,12.1492 59.4441,8.678 36.8814,8.678 31.2407,9.9797 23.4305,15.6203 10.8475,38.1831 8.678,46.861 8.678,63.3492 12.5831,77.2339 16.4881,85.0441 21.261,91.5525 27.3356,94.5898 52.0678,100.6644 74.6305,103.2678 85.478,102.4 106.3051,83.7424 116.2847,66.8203 118.4542,60.7458 119.322,40.7864 107.1729,21.6949 103.7017,18.6576 95.4576,15.1864 82.0068,13.0169 73.3288,13.0169" stroke="#00007f" stroke-width="2" /><polyline fill="none" points="91.5525,16.4881 85.0441,16.922 75.9322,20.8271 70.2915,27.7695 64.6508,41.6542 64.6508,71.5932 66.3864,76.3661 70.7254,82.0068 77.2339,86.3458 85.478,88.0814 98.4949,88.0814" stroke="#7cff79" stroke-width="2" /><polyline fill="none" points="18.2237,18.2237 22.9966,18.6576 34.7119,25.6 37.7492,46.861 37.7492,59.0102 36.4475,65.0847 28.2034,78.5356 19.0915,87.6475 15.1864,88.5153" stroke="#7f0000" stroke-width="2" /></svg>