<?xml version="1.0" encoding="utf-8" ?>
<svg baseProfile="tiny" height="128" version="1.2" viewBox="0,0,128,128" width="128" xmlns="http://www.w3.org/2000/svg" xmlns:ev="http://www.w3.org/2001/xml-events" xmlns:xlink="http://www.w3.org/1999/xlink"><defs /><polyline fill="none" points="74.1966,13.8847 63.7831,14.3186 55.9729,16.4881 27.3356,30.8068 16.0542,40.3525 12.5831,45.9932 9.5458,57.2746 8.678,72.0271 9.9797,76.3661 13.4508,83.7424 20.8271,91.9864 27.7695,95.0237 42.522,97.6271 68.5559,95.4576 82.8746,92.4203 89.3831,88.0814 98.9288,78.1017 110.2102,61.6136 116.2847,47.2949 119.322,26.4678 114.5492,19.9593 102.8339,13.8847 81.5729,8.678 77.6678,9.5458 75.4983,12.5831" stroke="#00007f" stroke-width="2" /><polyline fill="none" points="10.8475,66.8203 28.6373,67.2542 30.3729,65.5186 36.4475,57.7085 39.9186,44.6915 50.7661,33.4102 57.2746,23.4305 57.7085,18.2237 56.4068,14.7525" stroke="#7cff79" stroke-width="2" /><polyline fill="none" points="111.5119,46.4271 82.4407,63.7831 63.3492,79.4034 61.1797,84.6102 61.1797,92.4203 66.3864,99.7966 68.9898,101.0983 70.7254,100.2305" stroke="#7f0000" stroke-width="2" /></svg>