<?xml version="1.0" encoding="utf-8" ?>
<svg baseProfile="tiny" height="128" version="1.2" viewBox="0,0,128,128" width="128" xmlns="http://www.w3.org/2000/svg" xmlns:ev="http://www.w3.org/2001/xml-events" xmlns:xlink="http://www.w3.org/1999/xlink"><defs /><polyline fill="none" points="47.4558,23.5102 36.5714,23.5102 31.3469,26.9932 24.381,33.9592 12.6259,53.9864 9.1429,65.3061 8.7075,87.9456 12.6259,97.5238 18.7211,105.3605 25.6871,111.0204 33.5238,114.9388 41.7959,116.2449 58.3401,116.2449 78.8027,110.1497 88.381,105.7959 96.6531,99.7007 103.1837,92.7347 108.8435,84.4626 113.6327,72.7075 118.8571,44.8435 119.2925,21.3333 115.8095,14.8027 110.1497,10.8844 101.0068,8.7075 89.2517,9.1429 77.4966,9.5782 65.3061,13.0612 53.551,19.1565 43.5374,26.1224 36.5714,34.3946 32.2177,42.2313" stroke="#00007f" stroke-width="2" /><polyline fill="none" points="100.1361,13.0612 99.7007,8.7075 86.6395,26.5578 76.6259,50.068 73.1429,64.4354 72.2721,91.4286 77.0612,105.3605 79.6735,107.5374 82.2857,107.102" stroke="#7cff79" stroke-width="2" /><polyline fill="none" points="28.7347,30.9116 32.6531,35.2653 37.4422,45.2789 44.8435,70.966 46.585,91.4286 45.2789,116.2449" stroke="#7f0000" stroke-width="2" /></svg>