<?xml version="1.0" encoding="utf-8" ?>
<svg baseProfile="tiny" height="128" version="1.2" viewBox="0,0,128,128" width="128" xmlns="http://www.w3.org/2000/svg" xmlns:ev="http://www.w3.org/2001/xml-events" xmlns:xlink="http://www.w3.org/1999/xlink"><defs /><polyline fill="none" points="105.8712,9.9797 97.6271,8.678 92.4203,11.7153 88.5153,18.2237 88.9492,27.7695 94.1559,31.2407 116.7186,28.2034 118.0203,27.3356 119.322,18.6576 116.7186,13.0169 110.2102,9.5458 104.1356,8.678" stroke="#00007f" stroke-width="2" /><polyline fill="none" points="118.4542,23.8644 118.4542,27.7695 113.2475,31.2407 97.6271,32.9763 94.5898,30.8068" stroke="#004cff" stroke-width="2" /><polyline fill="none" points="91.9864,13.4508 95.8915,13.4508 97.6271,16.0542 100.2305,27.3356 108.0407,30.3729" stroke="#29ffcd" stroke-width="2" /><polyline fill="none" points="103.2678,9.1119 104.5695,9.1119 106.739,13.0169 107.6068,23.4305 111.5119,26.0339 115.8508,26.4678" stroke="#cdff29" stroke-width="2" /><polyline fill="none" points="17.3559,35.5797 9.9797,36.0136 8.678,41.2203 12.1492,45.1254 17.7898,44.6915 18.6576,39.0508 17.3559,33.8441 40.3525,19.0915 55.1051,12.5831 60.3119,12.1492 61.6136,13.4508 61.6136,21.261 60.3119,24.2983 56.4068,28.6373 50.3322,31.6746 27.3356,38.1831 20.8271,39.0508 16.0542,38.1831" stroke="#ff6700" stroke-width="2" /><polyline fill="none" points="95.4576,14.7525 93.2881,17.3559 93.2881,22.9966 95.8915,22.5627 96.7593,13.8847 94.1559,13.0169 92.4203,15.1864 92.8542,21.6949 98.061,28.2034 103.7017,31.2407" stroke="#7f0000" stroke-width="2" /></svg>