<?xml version="1.0" encoding="utf-8" ?>
<svg baseProfile="tiny" height="128" version="1.2" viewBox="0,0,128,128" width="128" xmlns="http://www.w3.org/2000/svg" xmlns:ev="http://www.w3.org/2001/xml-events" xmlns:xlink="http://www.w3.org/1999/xlink"><defs /><polyline fill="none" points="51.2,11.7153 55.9729,9.5458 64.6508,8.678 76.8,9.9797 85.9119,13.8847 94.1559,20.3932 103.7017,36.8814 106.739,52.9356 105.8712,66.3864 103.7017,74.6305 99.7966,82.8746 85.0441,98.4949 68.9898,107.1729 53.3695,110.2102 41.2203,109.3424 26.0339,101.9661 18.2237,95.4576 14.3186,89.3831 11.2814,82.4407 8.678,68.122 10.4136,52.0678 14.7525,39.9186 20.8271,32.5424 35.1458,20.8271 43.8237,15.6203 52.5017,13.0169 59.0102,13.4508 62.9153,15.6203" stroke="#00007f" stroke-width="2" /><polyline fill="none" points="49.0305,13.4508 48.5966,57.2746 45.5593,80.2712 34.278,108.0407 26.0339,116.7186 21.261,119.322" stroke="#7cff79" stroke-width="2" /><polyline fill="none" points="95.0237,16.922 88.0814,27.3356 82.8746,39.4847 69.4237,76.3661 68.122,91.9864 70.2915,97.1932 76.3661,105.4373" stroke="#7f0000" stroke-width="2" /></svg>