<?xml version="1.0" encoding="utf-8" ?>
<svg baseProfile="tiny" height="128" version="1.2" viewBox="0,0,128,128" width="128" xmlns="http://www.w3.org/2000/svg" xmlns:ev="http://www.w3.org/2001/xml-events" xmlns:xlink="http://www.w3.org/1999/xlink"><defs /><polyline fill="none" points="45.1254,101.0983 16.4881,66.8203 9.5458,52.0678 8.678,46.861 9.5458,26.9017 11.7153,20.3932 17.3559,10.4136 27.7695,8.678 57.2746,9.5458 72.8949,14.3186 101.9661,27.7695 118.4542,55.539 119.322,65.0847 118.4542,70.7254 115.4169,75.4983 105.8712,84.1763 85.9119,92.4203 64.6508,93.722 42.0881,99.3627" stroke="#00007f" stroke-width="2" /><polyline fill="none" points="31.6746,84.1763 32.5424,74.6305 38.1831,59.878 42.9559,41.2203 39.9186,26.9017 32.5424,12.5831 32.5424,8.678" stroke="#0028ff" stroke-width="2" /><polyline fill="none" points="88.9492,19.9593 85.9119,34.7119 88.0814,49.8983 99.3627,68.9898 103.2678,73.7627 109.7763,77.2339" stroke="#00d4ff" stroke-width="2" /><polyline fill="none" points="27.7695,65.0847 42.0881,72.461 45.1254,75.4983" stroke="#7cff79" stroke-width="2" /><polyline fill="none" points="30.8068,52.5017 43.8237,58.1424" stroke="#ffe500" stroke-width="2" /><polyline fill="none" points="30.8068,40.3525 40.3525,40.3525 52.5017,42.9559" stroke="#ff4600" stroke-width="2" /><polyline fill="none" points="49.8983,23.8644 34.7119,22.9966 26.0339,24.7322" stroke="#7f0000" stroke-width="2" /></svg>