<?xml version="1.0" encoding="utf-8" ?>
<svg baseProfile="tiny" height="128" version="1.2" viewBox="0,0,128,128" width="128" xmlns="http://www.w3.org/2000/svg" xmlns:ev="http://www.w3.org/2001/xml-events" xmlns:xlink="http://www.w3.org/1999/xlink"><defs /><polyline fill="none" points="62.9153,12.5831 58.1424,8.678 52.9356,8.678 40.7864,15.6203 21.6949,29.5051 14.7525,37.3153 9.5458,46.861 8.678,63.7831 16.0542,81.139 19.9593,83.7424 20.3932,88.0814 28.6373,101.0983 46.4271,111.078 50.7661,111.078 62.4814,114.5492 78.9695,114.5492 89.3831,117.1525 97.1932,115.4169 105.4373,109.3424 117.1525,84.1763 119.322,76.3661 119.322,70.2915 101.0983,32.5424 85.0441,19.9593 70.2915,13.8847 66.8203,13.4508 65.0847,14.7525" stroke="#00007f" stroke-width="2" /><polyline fill="none" points="101.9661,41.6542 95.8915,48.1627 92.4203,57.7085 92.4203,85.478 95.0237,98.9288 103.2678,112.3797" stroke="#7cff79" stroke-width="2" /><polyline fill="none" points="22.5627,32.5424 29.0712,48.1627 29.0712,84.1763 27.7695,92.8542 21.6949,105.0034 19.0915,108.4746 13.8847,110.2102" stroke="#7f0000" stroke-width="2" /></svg>