<?xml version="1.0" encoding="utf-8" ?>
<svg baseProfile="tiny" height="128" version="1.2" viewBox="0,0,128,128" width="128" xmlns="http://www.w3.org/2000/svg" xmlns:ev="http://www.w3.org/2001/xml-events" xmlns:xlink="http://www.w3.org/1999/xlink"><defs /><polyline fill="none" points="51.6339,12.5831 29.5051,24.2983 23.4305,31.6746 15.1864,44.2576 8.678,63.3492 9.5458,73.7627 13.4508,85.478 22.5627,98.061 30.8068,105.0034 47.2949,112.8136 61.1797,116.7186 72.461,116.7186 80.7051,114.1153 88.9492,108.4746 96.3254,98.061 98.9288,92.8542 102.4,75.9322 102.4,59.878 96.3254,37.7492 89.3831,26.9017 75.0644,16.0542 58.1424,8.678 54.2373,8.678" stroke="#00007f" stroke-width="2" /><polyline fill="none" points="48.1627,14.7525 45.5593,22.5627 41.2203,52.9356 41.6542,84.1763 45.5593,100.2305 53.3695,119.322" stroke="#7cff79" stroke-width="2" /><polyline fill="none" points="75.4983,20.3932 79.8373,41.6542 80.7051,63.3492" stroke="#7f0000" stroke-width="2" /></svg>