<?xml version="1.0" encoding="utf-8" ?>
<svg baseProfile="tiny" height="128" version="1.2" viewBox="0,0,128,128" width="128" xmlns="http://www.w3.org/2000/svg" xmlns:ev="http://www.w3.org/2001/xml-events" xmlns:xlink="http://www.w3.org/1999/xlink"><defs /><polyline fill="none" points="83.8771,10.4846 65.0922,8.7372 46.3072,13.1058 39.3174,17.4744 27.959,26.2116 13.9795,41.5017 10.9215,60.7235 10.9215,70.3345 13.1058,77.3242 19.2218,84.314 30.5802,91.7406 62.0341,93.4881 78.6348,89.9932 83.8771,87.372 114.8942,62.471 118.3891,56.7918 119.2628,45.8703 117.9522,29.7065 116.2048,24.0273 113.1468,20.0956 94.3618,11.7952 83.8771,10.4846 83.0034,11.3584" stroke="#00007f" stroke-width="2" /><polyline fill="none" points="55.4812,10.9215 47.1809,31.8908 38.4437,44.1229 14.4164,63.3447 9.1741,62.0341 8.7372,59.8498" stroke="#00d4ff" stroke-width="2" /><polyline fill="none" points="91.3038,10.4846 89.5563,16.6007 89.1195,48.4915 90.8669,51.5495 97.8567,56.3549 100.9147,61.1604 104.8464,62.9078 109.215,62.471" stroke="#ffe500" stroke-width="2" /><polyline fill="none" points="26.2116,88.6826 35.8225,77.7611 46.3072,73.3925 69.8976,73.8294 82.1297,80.3823 86.4983,83.8771 89.1195,88.6826" stroke="#7f0000" stroke-width="2" /></svg>