<?xml version="1.0" encoding="utf-8" ?>
<svg baseProfile="tiny" height="128" version="1.2" viewBox="0,0,128,128" width="128" xmlns="http://www.w3.org/2000/svg" xmlns:ev="http://www.w3.org/2001/xml-events" xmlns:xlink="http://www.w3.org/1999/xlink"><defs /><polyline fill="none" points="64.2169,13.0169 56.4068,8.678 42.9559,8.678 33.8441,13.0169 22.1288,22.9966 16.0542,30.3729 10.4136,42.9559 8.678,74.6305 12.1492,85.478 22.1288,100.2305 29.0712,105.8712 40.7864,113.6814 52.5017,117.5864 65.9525,119.322 81.5729,118.4542 93.2881,109.3424 98.9288,102.8339 105.8712,90.2508 111.9458,75.0644 115.8508,58.1424 115.8508,47.2949 114.1153,40.3525 102.8339,22.1288 88.9492,14.7525 74.1966,13.0169" stroke="#00007f" stroke-width="2" /><polyline fill="none" points="51.6339,10.4136 46.4271,40.3525 46.4271,59.878 50.7661,80.2712 54.6712,91.5525 60.7458,102.4" stroke="#0028ff" stroke-width="2" /><polyline fill="none" points="39.4847,26.9017 54.6712,26.4678" stroke="#00d4ff" stroke-width="2" /><polyline fill="none" points="46.4271,51.6339 58.1424,51.6339" stroke="#7cff79" stroke-width="2" /><polyline fill="none" points="50.7661,80.7051 58.1424,80.7051 64.6508,78.1017" stroke="#ffe500" stroke-width="2" /><polyline fill="none" points="92.4203,25.6 91.5525,29.5051 97.6271,49.4644 97.6271,82.8746 94.1559,93.2881 88.9492,100.2305" stroke="#ff4600" stroke-width="2" /><polyline fill="none" points="83.3085,48.1627 101.5322,44.6915 108.4746,42.0881" stroke="#7f0000" stroke-width="2" /></svg>