<?xml version="1.0" encoding="utf-8" ?>
<svg baseProfile="tiny" height="128" version="1.2" viewBox="0,0,128,128" width="128" xmlns="http://www.w3.org/2000/svg" xmlns:ev="http://www.w3.org/2001/xml-events" xmlns:xlink="http://www.w3.org/1999/xlink"><defs /><polyline fill="none" points="90.6847,14.3186 78.5356,9.5458 69.8576,8.678 54.2373,9.5458 42.0881,12.5831 33.4102,16.0542 24.2983,22.5627 13.4508,35.1458 10.4136,42.9559 8.678,49.8983 9.5458,65.5186 13.0169,73.3288 19.0915,81.5729 29.939,92.4203 36.8814,96.7593 48.1627,102.4 66.3864,108.4746 77.2339,108.4746 83.3085,106.739 92.8542,103.7017 98.9288,98.9288 111.5119,82.0068 117.1525,69.4237 119.322,60.3119 118.0203,48.5966 114.5492,42.0881 109.3424,36.0136 81.139,14.3186 70.2915,9.5458" stroke="#00007f" stroke-width="2" /><polyline fill="none" points="32.9763,18.6576 37.3153,92.4203" stroke="#004cff" stroke-width="2" /><polyline fill="none" points="31.6746,87.2136 37.3153,86.3458" stroke="#29ffcd" stroke-width="2" /><polyline fill="none" points="28.6373,72.0271 37.7492,71.1593" stroke="#cdff29" stroke-width="2" /><polyline fill="none" points="29.5051,45.1254 39.0508,45.1254" stroke="#ff6700" stroke-width="2" /><polyline fill="none" points="29.5051,27.7695 35.1458,29.0712 39.9186,28.6373" stroke="#7f0000" stroke-width="2" /></svg>