<?xml version="1.0" encoding="utf-8" ?>
<svg baseProfile="tiny" height="128" version="1.2" viewBox="0,0,128,128" width="128" xmlns="http://www.w3.org/2000/svg" xmlns:ev="http://www.w3.org/2001/xml-events" xmlns:xlink="http://www.w3.org/1999/xlink"><defs /><polyline fill="none" points="49.0305,8.678 45.5593,9.5458 40.7864,13.4508 25.6,29.5051 13.8847,45.1254 8.678,56.8407 9.1119,85.478 19.0915,98.9288 27.3356,106.739 39.0508,113.2475 50.7661,115.8508 71.5932,115.8508 79.4034,112.3797 85.0441,104.1356 90.2508,86.7797 91.5525,59.878 90.2508,51.2 83.7424,39.4847 79.8373,27.7695 74.1966,21.261 61.6136,12.1492 57.2746,10.8475 42.9559,10.8475 40.3525,13.8847" stroke="#00007f" stroke-width="2" /><polyline fill="none" points="40.3525,13.8847 38.1831,14.7525" stroke="#00d4ff" stroke-width="2" /><polyline fill="none" points="33.8441,16.4881 35.1458,24.2983 35.1458,43.8237 29.939,63.3492 27.3356,67.2542 22.1288,82.8746 16.4881,93.722 13.8847,96.3254" stroke="#ffe500" stroke-width="2" /><polyline fill="none" points="75.9322,30.3729 66.3864,46.4271 55.9729,76.3661 54.2373,93.722 55.9729,105.4373 58.5763,109.3424 58.5763,113.6814 61.1797,119.322" stroke="#7f0000" stroke-width="2" /></svg>