<?xml version="1.0" encoding="utf-8" ?>
<svg baseProfile="tiny" height="128" version="1.2" viewBox="0,0,128,128" width="128" xmlns="http://www.w3.org/2000/svg" xmlns:ev="http://www.w3.org/2001/xml-events" xmlns:xlink="http://www.w3.org/1999/xlink"><defs /><polyline fill="none" points="48.5966,8.678 27.3356,24.2983 18.6576,36.8814 9.5458,62.0475 8.678,74.6305 9.9797,83.7424 13.0169,89.8169 22.9966,101.0983 31.2407,106.739 70.2915,106.739 80.7051,105.0034 100.6644,93.722 114.1153,80.2712 118.0203,67.6881 119.322,55.9729 117.5864,39.9186 111.5119,30.3729 98.9288,22.1288 69.4237,11.7153 55.539,11.7153 46.861,9.1119" stroke="#00007f" stroke-width="2" /><polyline fill="none" points="47.2949,9.1119 62.9153,32.1085 66.8203,43.3898 66.3864,61.1797 62.0475,82.0068 58.1424,93.722 55.1051,97.6271 52.0678,98.4949" stroke="#0000f1" stroke-width="2" /><polyline fill="none" points="90.6847,19.9593 82.4407,40.3525 82.0068,49.0305 82.8746,57.2746 86.7797,63.7831 91.9864,70.2915 98.9288,74.6305 105.8712,76.3661" stroke="#004cff" stroke-width="2" /><polyline fill="none" points="105.8712,76.3661 105.8712,76.3661" stroke="#00b0ff" stroke-width="2" /><polyline fill="none" points="82.4407,28.6373 88.0814,30.3729" stroke="#29ffcd" stroke-width="2" /><polyline fill="none" points="74.6305,42.0881 100.2305,48.1627" stroke="#7cff79" stroke-width="2" /><polyline fill="none" points="82.0068,70.7254 90.6847,64.2169" stroke="#cdff29" stroke-width="2" /><polyline fill="none" points="49.0305,25.6 70.2915,15.1864" stroke="#ffc400" stroke-width="2" /><polyline fill="none" points="54.2373,39.9186 67.6881,39.4847" stroke="#ff6700" stroke-width="2" /><polyline fill="none" points="52.9356,59.4441 62.4814,58.1424 77.6678,59.0102" stroke="#f10700" stroke-width="2" /><polyline fill="none" points="51.2,76.3661 64.2169,78.5356" stroke="#7f0000" stroke-width="2" /></svg>