<?xml version="1.0" encoding="utf-8" ?>
<svg baseProfile="tiny" height="128" version="1.2" viewBox="0,0,128,128" width="128" xmlns="http://www.w3.org/2000/svg" xmlns:ev="http://www.w3.org/2001/xml-events" xmlns:xlink="http://www.w3.org/1999/xlink"><defs /><polyline fill="none" points="89.3831,9.9797 82.0068,8.678 70.7254,9.9797 49.8983,17.3559 41.2203,23.4305 30.3729,32.5424 20.3932,43.8237 10.8475,61.6136 8.678,72.8949 9.1119,85.9119 10.4136,91.9864 16.4881,101.5322 25.1661,108.9085 37.3153,113.2475 55.1051,114.1153 79.4034,107.6068 92.8542,99.7966 99.3627,94.5898 110.2102,80.7051 117.1525,62.0475 119.322,51.6339 119.322,41.6542 116.2847,31.2407 106.739,20.8271 89.8169,15.1864 78.9695,14.3186" stroke="#00007f" stroke-width="2" /><polyline fill="none" points="41.6542,19.5254 54.2373,28.6373 58.5763,34.278 61.1797,40.7864 61.1797,51.6339 59.0102,64.6508 52.9356,82.4407 45.1254,96.7593 38.1831,105.8712" stroke="#0028ff" stroke-width="2" /><polyline fill="none" points="99.7966,16.4881 97.6271,15.1864 92.8542,17.7898 87.2136,22.5627 78.5356,34.278 73.3288,49.4644 72.461,65.5186 74.6305,78.5356 85.0441,95.4576 93.2881,102.4 98.9288,105.4373 108.0407,104.5695" stroke="#00d4ff" stroke-width="2" /><polyline fill="none" points="73.3288,28.2034 80.2712,28.2034 86.7797,30.3729" stroke="#7cff79" stroke-width="2" /><polyline fill="none" points="74.6305,52.9356 80.2712,52.0678" stroke="#ffe500" stroke-width="2" /><polyline fill="none" points="78.9695,66.8203 89.8169,65.0847" stroke="#ff4600" stroke-width="2" /><polyline fill="none" points="81.139,94.1559 86.3458,92.4203" stroke="#7f0000" stroke-width="2" /></svg>