<?xml version="1.0" encoding="utf-8" ?>
<svg baseProfile="tiny" height="128" version="1.2" viewBox="0,0,128,128" width="128" xmlns="http://www.w3.org/2000/svg" xmlns:ev="http://www.w3.org/2001/xml-events" xmlns:xlink="http://www.w3.org/1999/xlink"><defs /><polyline fill="none" points="29.0712,118.0203 55.1051,119.322 67.2542,116.7186 85.478,101.0983 98.4949,67.2542 101.0983,52.0678 101.5322,39.4847 100.2305,32.1085 94.1559,20.3932 85.9119,13.0169 72.461,8.678 62.9153,9.1119 46.861,15.6203 42.522,18.2237 31.2407,31.2407 22.9966,44.2576 17.3559,57.7085 15.6203,74.1966 15.1864,98.4949 17.7898,105.8712 23.4305,113.2475 31.2407,110.2102" stroke="#00007f" stroke-width="2" /><polyline fill="none" points="36.0136,12.5831 42.9559,19.0915 48.5966,28.6373 44.6915,47.2949 34.7119,73.3288 31.2407,78.5356 24.2983,84.1763 8.678,88.5153" stroke="#7cff79" stroke-width="2" /><polyline fill="none" points="106.3051,31.6746 103.7017,32.1085 92.8542,42.522 84.1763,52.9356 71.5932,74.6305 68.5559,87.2136 68.9898,104.5695 69.4237,106.3051 71.1593,106.3051" stroke="#7f0000" stroke-width="2" /></svg>