<?xml version="1.0" encoding="utf-8" ?>
<svg baseProfile="tiny" height="128" version="1.2" viewBox="0,0,128,128" width="128" xmlns="http://www.w3.org/2000/svg" xmlns:ev="http://www.w3.org/2001/xml-events" xmlns:xlink="http://www.w3.org/1999/xlink"><defs /><polyline fill="none" points="40.3525,12.1492 32.5424,9.1119 25.1661,8.678 17.3559,11.2814 10.8475,18.2237 8.678,27.3356 10.8475,33.8441 19.5254,41.2203 27.3356,43.3898 32.5424,42.9559 40.7864,39.9186 46.4271,35.1458 49.0305,29.5051 49.4644,22.9966 47.2949,17.7898 42.9559,13.8847 37.7492,12.1492" stroke="#00007f" stroke-width="2" /><polyline fill="none" points="25.6,11.2814 24.2983,29.5051 19.5254,37.3153" stroke="#0080ff" stroke-width="2" /><polyline fill="none" points="39.9186,17.3559 38.6169,16.922 37.3153,18.6576 35.5797,25.1661 35.1458,33.8441 36.4475,38.6169" stroke="#7cff79" stroke-width="2" /><polyline fill="none" points="107.1729,83.7424 119.322,66.8203" stroke="#ff9400" stroke-width="2" /><polyline fill="none" points="112.3797,78.9695 75.9322,42.0881" stroke="#7f0000" stroke-width="2" /></svg>