<?xml version="1.0" encoding="utf-8" ?>
<svg baseProfile="tiny" height="128" version="1.2" viewBox="0,0,128,128" width="128" xmlns="http://www.w3.org/2000/svg" xmlns:ev="http://www.w3.org/2001/xml-events" xmlns:xlink="http://www.w3.org/1999/xlink"><defs /><polyline fill="none" points="72.461,24.2983 62.9153,12.1492 56.4068,8.678 44.2576,9.1119 29.0712,13.4508 18.2237,20.3932 10.4136,30.8068 8.678,40.7864 10.4136,55.9729 13.4508,62.4814 17.3559,67.2542 32.1085,76.8 60.3119,87.6475 93.722,93.722 101.5322,93.2881 112.8136,82.8746 119.322,71.1593 118.8881,65.5186 117.1525,60.7458 102.4,40.3525 94.1559,32.1085 68.122,24.2983 59.0102,22.5627" stroke="#00007f" stroke-width="2" /><polyline fill="none" points="58.1424,9.5458 58.1424,9.5458" stroke="#0080ff" stroke-width="2" /><polyline fill="none" points="91.5525,32.1085 85.9119,41.6542 83.3085,49.8983 82.4407,75.9322 86.3458,88.5153 94.1559,96.7593" stroke="#7cff79" stroke-width="2" /><polyline fill="none" points="39.0508,13.0169 45.9932,29.939 47.7288,41.2203 47.7288,53.3695 40.3525,67.6881 32.9763,73.7627" stroke="#ff9400" stroke-width="2" /><polyline fill="none" points="85.9119,36.0136 98.061,40.7864 99.7966,42.522" stroke="#7f0000" stroke-width="2" /></svg>