<?xml version="1.0" encoding="utf-8" ?>
<svg baseProfile="tiny" height="128" version="1.2" viewBox="0,0,128,128" width="128" xmlns="http://www.w3.org/2000/svg" xmlns:ev="http://www.w3.org/2001/xml-events" xmlns:xlink="http://www.w3.org/1999/xlink"><defs /><polyline fill="none" points="88.0814,16.4881 81.5729,12.1492 73.7627,8.678 68.122,8.678 48.5966,13.0169 25.6,21.6949 13.0169,37.3153 8.678,53.8034 10.8475,63.7831 25.6,82.0068 37.3153,90.6847 43.8237,92.4203 54.2373,91.5525 62.4814,89.3831 75.4983,82.8746 82.0068,78.5356 93.2881,68.122 104.1356,49.0305 115.8508,32.9763 119.322,25.1661 117.5864,20.8271 114.9831,19.5254 97.1932,13.8847 85.478,16.4881" stroke="#00007f" stroke-width="2" /><polyline fill="none" points="45.1254,13.4508 50.3322,32.1085 51.2,48.5966 44.6915,88.0814 42.0881,93.722" stroke="#7cff79" stroke-width="2" /><polyline fill="none" points="80.7051,13.0169 76.3661,46.4271 79.8373,64.2169 86.3458,77.2339" stroke="#7f0000" stroke-width="2" /></svg>