<?xml version="1.0" encoding="utf-8" ?>
<svg baseProfile="tiny" height="128" version="1.2" viewBox="0,0,128,128" width="128" xmlns="http://www.w3.org/2000/svg" xmlns:ev="http://www.w3.org/2001/xml-events" xmlns:xlink="http://www.w3.org/1999/xlink"><defs /><polyline fill="none" points="66.8203,108.4746 65.0847,108.4746 64.6508,110.6441 66.3864,110.6441 66.3864,107.6068" stroke="#00007f" stroke-width="2" /><polyline fill="none" points="65.9525,107.1729 67.2542,82.8746 68.9898,68.9898 72.8949,70.7254 72.8949,92.4203 67.6881,107.1729 65.9525,109.7763 65.0847,107.6068" stroke="#0010ff" stroke-width="2" /><polyline fill="none" points="57.2746,70.7254 51.2,71.1593 47.7288,74.1966 50.3322,76.8 56.4068,77.6678 55.9729,72.461 53.8034,71.1593" stroke="#00a4ff" stroke-width="2" /><polyline fill="none" points="48.1627,73.3288 13.8847,31.6746 9.9797,19.9593 8.678,8.678 16.922,30.8068 30.3729,55.539 49.8983,79.4034 63.7831,91.5525 63.3492,88.9492 54.6712,76.8 52.0678,67.6881 61.6136,47.2949 65.0847,44.2576 70.2915,43.3898" stroke="#3fffb7" stroke-width="2" /><polyline fill="none" points="70.2915,43.3898 70.2915,43.3898" stroke="#b7ff3f" stroke-width="2" /><polyline fill="none" points="116.2847,44.6915 112.8136,45.5593 110.6441,47.7288 106.3051,58.5763 114.5492,57.2746 119.322,47.7288 116.7186,45.1254" stroke="#ffb900" stroke-width="2" /><polyline fill="none" points="113.6814,49.0305 111.078,50.3322" stroke="#ff3000" stroke-width="2" /><polyline fill="none" points="111.078,53.3695 114.5492,48.5966 104.5695,56.4068 92.4203,63.3492 77.6678,65.5186 65.5186,65.5186 52.0678,60.3119 46.4271,54.2373 41.6542,46.4271" stroke="#7f0000" stroke-width="2" /></svg>