<?xml version="1.0" encoding="utf-8" ?>
<svg baseProfile="tiny" height="128" version="1.2" viewBox="0,0,128,128" width="128" xmlns="http://www.w3.org/2000/svg" xmlns:ev="http://www.w3.org/2001/xml-events" xmlns:xlink="http://www.w3.org/1999/xlink"><defs /><polyline fill="none" points="100.1361,56.5986 104.9252,43.9728 104.4898,32.6531 99.7007,19.1565 96.6531,14.8027 71.4014,10.0136 52.6803,8.7075 33.0884,17.8503 11.3197,38.3129 9.1429,43.5374 8.7075,50.9388 10.449,68.7891 24.8163,90.5578 43.102,111.0204 60.9524,118.8571 72.2721,119.2925 81.8503,113.6327 93.6054,103.1837 98.8299,96.6531 101.0068,88.8163 103.619,67.9184 98.8299,51.8095 93.6054,42.6667 90.9932,40.4898" stroke="#00007f" stroke-width="2" /><polyline fill="none" points="39.1837,15.6735 46.585,55.2925 41.7959,74.449 37.4422,80.9796 29.6054,87.9456" stroke="#00d4ff" stroke-width="2" /><polyline fill="none" points="82.7211,10.449 68.3537,22.6395 64.8707,29.1701 63.5646,47.0204 70.966,82.7211 77.4966,93.6054 89.6871,101.0068 99.2653,99.7007 105.7959,94.4762" stroke="#ffe500" stroke-width="2" /><polyline fill="none" points="100.5714,36.1361 90.9932,33.9592 74.449,33.0884 35.2653,36.5714" stroke="#7f0000" stroke-width="2" /></svg>