<?xml version="1.0" encoding="utf-8" ?>
<svg baseProfile="tiny" height="128" version="1.2" viewBox="0,0,128,128" width="128" xmlns="http://www.w3.org/2000/svg" xmlns:ev="http://www.w3.org/2001/xml-events" xmlns:xlink="http://www.w3.org/1999/xlink"><defs /><polyline fill="none" points="65.0847,11.7153 59.0102,9.1119 47.7288,9.9797 28.2034,22.9966 13.4508,40.3525 9.5458,49.8983 8.678,60.3119 9.1119,72.461 13.8847,84.1763 22.1288,95.8915 32.1085,103.7017 41.6542,109.7763 51.6339,112.8136 75.4983,112.8136 95.4576,103.7017 107.1729,91.5525 112.8136,78.9695 112.8136,47.7288 111.5119,41.2203 104.5695,28.6373 97.6271,21.6949 73.3288,9.9797 68.5559,8.678 59.878,8.678 58.5763,22.5627 59.878,31.6746 77.6678,75.0644 94.5898,97.1932 103.7017,101.5322 114.1153,103.2678" stroke="#00007f" stroke-width="2" /><polyline fill="none" points="9.9797,50.7661 16.4881,49.4644 22.1288,51.2 45.1254,62.4814 59.0102,80.7051 61.1797,85.478 62.9153,91.5525 63.7831,108.0407 68.122,119.322" stroke="#0028ff" stroke-width="2" /><polyline fill="none" points="31.2407,39.0508 24.2983,53.3695" stroke="#00d4ff" stroke-width="2" /><polyline fill="none" points="39.0508,51.2 33.8441,61.6136" stroke="#7cff79" stroke-width="2" /><polyline fill="none" points="53.3695,64.2169 45.1254,71.1593 43.8237,74.1966" stroke="#ffe500" stroke-width="2" /><polyline fill="none" points="60.3119,84.1763 53.3695,90.6847" stroke="#ff4600" stroke-width="2" /><polyline fill="none" points="81.139,93.2881 67.6881,102.4" stroke="#7f0000" stroke-width="2" /></svg>