<?xml version="1.0" encoding="utf-8" ?>
<svg baseProfile="tiny" height="128" version="1.2" viewBox="0,0,128,128" width="128" xmlns="http://www.w3.org/2000/svg" xmlns:ev="http://www.w3.org/2001/xml-events" xmlns:xlink="http://www.w3.org/1999/xlink"><defs /><polyline fill="none" points="36.8814,11.2814 20.8271,32.5424 15.6203,42.0881 9.5458,60.7458 8.678,71.5932 8.678,91.9864 13.0169,101.5322 19.9593,108.0407 35.1458,117.5864 45.5593,119.322 61.6136,119.322 71.5932,115.8508 78.9695,109.7763 84.1763,102.8339 88.5153,95.4576 91.9864,84.6102 94.5898,62.0475 94.5898,32.9763 91.9864,25.1661 84.1763,14.7525 75.4983,10.4136 60.3119,10.4136 55.1051,14.7525" stroke="#00007f" stroke-width="2" /><polyline fill="none" points="32.5424,24.2983 36.0136,29.939 36.0136,76.3661 30.8068,105.4373 27.3356,114.9831" stroke="#7cff79" stroke-width="2" /><polyline fill="none" points="90.2508,8.678 83.3085,18.2237 80.7051,27.3356 72.8949,43.3898 65.5186,79.8373 65.5186,101.5322 71.1593,112.3797 74.6305,114.1153" stroke="#7f0000" stroke-width="2" /></svg>