<?xml version="1.0" encoding="utf-8" ?>
<svg baseProfile="tiny" height="128" version="1.2" viewBox="0,0,128,128" width="128" xmlns="http://www.w3.org/2000/svg" xmlns:ev="http://www.w3.org/2001/xml-events" xmlns:xlink="http://www.w3.org/1999/xlink"><defs /><polyline fill="none" points="8.678,45.5593 9.5458,49.8983 14.3186,60.3119 24.2983,70.7254 38.6169,75.9322 65.5186,76.3661 97.1932,67.2542 113.6814,59.4441 116.7186,55.9729 118.8881,48.5966 119.322,33.4102 116.7186,26.0339 113.6814,22.1288 99.7966,14.7525 89.8169,11.7153 73.3288,9.1119 45.5593,9.1119 32.9763,13.0169 18.2237,25.1661 9.9797,41.2203 8.678,47.2949" stroke="#00007f" stroke-width="2" /><polyline fill="none" points="38.6169,10.4136 49.4644,18.2237 56.4068,20.8271 63.7831,22.1288 80.2712,21.6949 87.6475,18.2237 93.722,13.4508" stroke="#004cff" stroke-width="2" /><polyline fill="none" points="21.261,70.7254 22.5627,70.2915" stroke="#29ffcd" stroke-width="2" /><polyline fill="none" points="23.8644,69.8576 34.7119,63.3492 64.6508,60.3119 74.6305,62.4814 84.1763,70.7254" stroke="#cdff29" stroke-width="2" /><polyline fill="none" points="49.4644,9.1119 51.6339,13.8847 53.3695,25.1661 51.6339,45.5593 47.7288,60.3119 39.0508,75.9322" stroke="#ff6700" stroke-width="2" /><polyline fill="none" points="65.0847,8.678 65.0847,38.6169 61.6136,67.2542" stroke="#7f0000" stroke-width="2" /></svg>