<?xml version="1.0" encoding="utf-8" ?>
<svg baseProfile="tiny" height="128" version="1.2" viewBox="0,0,128,128" width="128" xmlns="http://www.w3.org/2000/svg" xmlns:ev="http://www.w3.org/2001/xml-events" xmlns:xlink="http://www.w3.org/1999/xlink"><defs /><polyline fill="none" points="95.0237,13.4508 64.6508,9.1119 53.3695,8.678 44.2576,10.4136 28.2034,17.7898 22.1288,24.2983 13.0169,45.1254 9.1119,58.5763 8.678,72.8949 13.0169,80.2712 33.8441,97.1932 45.9932,102.8339 64.6508,105.0034 80.7051,105.0034 90.2508,103.2678 99.7966,98.061 108.0407,88.0814 116.2847,72.0271 119.322,60.7458 119.322,50.7661 111.9458,35.5797 96.3254,13.4508 91.1186,9.9797" stroke="#00007f" stroke-width="2" /><polyline fill="none" points="42.0881,13.0169 43.3898,13.0169 45.9932,17.7898 48.5966,26.9017 48.5966,36.4475 44.2576,48.1627 34.278,63.3492 14.7525,77.6678" stroke="#00d4ff" stroke-width="2" /><polyline fill="none" points="95.0237,12.1492 71.1593,27.7695 67.6881,32.1085 65.5186,37.7492 64.6508,49.4644 65.0847,65.0847 68.9898,74.1966 77.2339,82.8746 108.4746,91.9864" stroke="#ffe500" stroke-width="2" /><polyline fill="none" points="75.4983,84.6102 78.9695,82.0068" stroke="#7f0000" stroke-width="2" /></svg>