<?xml version="1.0" encoding="utf-8" ?>
<svg baseProfile="tiny" height="128" version="1.2" viewBox="0,0,128,128" width="128" xmlns="http://www.w3.org/2000/svg" xmlns:ev="http://www.w3.org/2001/xml-events" xmlns:xlink="http://www.w3.org/1999/xlink"><defs /><polyline fill="none" points="88.5153,8.678 72.8949,9.1119 61.6136,11.7153 40.7864,24.2983 22.1288,41.2203 14.3186,52.0678 8.678,74.6305 9.5458,82.4407 13.0169,87.2136 37.7492,102.4 47.7288,105.0034 64.6508,105.8712 80.2712,102.4 95.0237,88.9492 102.4,79.8373 117.5864,55.9729 119.322,44.6915 116.2847,29.0712 97.1932,15.1864 91.5525,13.4508 85.9119,9.9797 80.7051,13.4508 75.4983,20.8271 73.7627,27.7695 65.0847,45.1254 60.3119,67.2542 61.1797,78.5356 64.2169,92.8542 70.7254,102.4" stroke="#00007f" stroke-width="2" /><polyline fill="none" points="33.8441,97.6271 41.2203,68.9898 49.8983,56.4068 57.7085,33.8441 59.0102,19.9593 57.2746,15.6203" stroke="#00d4ff" stroke-width="2" /><polyline fill="none" points="53.8034,22.1288 59.878,25.6" stroke="#ffe500" stroke-width="2" /><polyline fill="none" points="49.0305,36.8814 49.0305,36.8814" stroke="#7f0000" stroke-width="2" /></svg>