<?xml version="1.0" encoding="utf-8" ?>
<svg baseProfile="tiny" height="128" version="1.2" viewBox="0,0,128,128" width="128" xmlns="http://www.w3.org/2000/svg" xmlns:ev="http://www.w3.org/2001/xml-events" xmlns:xlink="http://www.w3.org/1999/xlink"><defs /><polyline fill="none" points="59.878,13.4508 56.4068,8.678 43.3898,10.8475 28.6373,19.5254 13.0169,33.4102 8.678,42.9559 9.1119,60.7458 18.6576,83.3085 24.7322,93.722 36.0136,104.5695 52.5017,116.2847 60.7458,118.8881 77.2339,119.322 90.2508,114.9831 99.3627,109.3424 108.4746,99.3627 114.5492,88.5153 118.0203,78.5356 118.8881,55.539 113.6814,42.0881 108.9085,34.278 97.1932,21.6949 90.2508,16.922 77.6678,13.8847 70.2915,13.8847 59.878,16.0542 49.0305,22.1288" stroke="#00007f" stroke-width="2" /><polyline fill="none" points="28.6373,26.0339 31.6746,48.5966 31.2407,62.4814 26.4678,85.478 22.5627,93.722 18.6576,98.9288" stroke="#0000fe" stroke-width="2" /><polyline fill="none" points="95.0237,20.8271 94.1559,18.2237 91.1186,19.5254 83.7424,42.522 80.7051,59.878 80.7051,75.0644 86.7797,96.3254 92.4203,108.4746 98.9288,115.8508 101.0983,116.2847 103.7017,113.6814" stroke="#0060ff" stroke-width="2" /><polyline fill="none" points="76.8,45.5593 84.1763,43.8237" stroke="#00d4ff" stroke-width="2" /><polyline fill="none" points="67.2542,71.5932 81.5729,70.2915" stroke="#4cffaa" stroke-width="2" /><polyline fill="none" points="78.9695,89.8169 89.3831,88.9492" stroke="#aaff4c" stroke-width="2" /><polyline fill="none" points="86.7797,102.4 91.9864,98.9288" stroke="#ffe500" stroke-width="2" /><polyline fill="none" points="21.261,41.6542 25.6,41.2203 33.8441,44.6915" stroke="#ff7a00" stroke-width="2" /><polyline fill="none" points="22.9966,57.7085 29.5051,60.3119" stroke="#fe1200" stroke-width="2" /><polyline fill="none" points="25.6,73.3288 28.6373,76.8" stroke="#7f0000" stroke-width="2" /></svg>