<?xml version="1.0" encoding="utf-8" ?>
<svg baseProfile="tiny" height="128" version="1.2" viewBox="0,0,128,128" width="128" xmlns="http://www.w3.org/2000/svg" xmlns:ev="http://www.w3.org/2001/xml-events" xmlns:xlink="http://www.w3.org/1999/xlink"><defs /><polyline fill="none" points="16.922,118.4542 32.9763,117.1525 38.1831,112.3797 39.0508,106.739 39.0508,103.2678 32.5424,98.061 29.0712,92.8542 28.2034,57.2746 38.6169,40.3525 39.4847,24.7322 37.3153,17.7898 33.8441,12.1492 25.6,8.678 22.1288,8.678 18.6576,10.8475 11.2814,19.9593 8.678,46.4271 19.0915,89.8169 18.2237,96.7593 13.8847,107.1729 13.4508,113.2475 17.3559,117.5864 27.7695,119.322" stroke="#00007f" stroke-width="2" /><polyline fill="none" points="84.6102,27.7695 79.8373,21.261 68.9898,16.0542 57.7085,16.0542 46.861,22.9966 38.6169,33.8441 36.4475,45.5593 36.8814,50.7661 39.9186,55.1051 48.5966,61.6136 62.4814,63.3492 68.122,61.6136 75.0644,56.4068 79.4034,49.4644 81.5729,41.6542 79.8373,29.939 72.461,21.261 65.0847,19.9593" stroke="#0000e8" stroke-width="2" /><polyline fill="none" points="62.9153,18.2237 56.8407,30.8068 55.539,49.8983 57.7085,58.5763 63.3492,62.4814" stroke="#0038ff" stroke-width="2" /><polyline fill="none" points="59.4441,18.6576 57.2746,28.2034 49.8983,45.9932 45.1254,51.6339 39.0508,55.9729 34.278,57.2746 31.6746,55.9729" stroke="#0094ff" stroke-width="2" /><polyline fill="none" points="39.4847,36.8814 44.2576,41.2203 49.8983,43.3898 62.4814,43.8237 75.9322,39.0508 81.5729,35.1458 85.478,29.5051" stroke="#0cf4ea" stroke-width="2" /><polyline fill="none" points="56.8407,76.3661 50.3322,79.4034 43.3898,86.3458 42.522,89.3831 47.2949,89.8169 48.5966,91.5525 49.0305,97.1932 46.4271,103.2678 39.4847,109.7763" stroke="#56ffa0" stroke-width="2" /><polyline fill="none" points="60.3119,79.4034 57.2746,94.1559 54.2373,101.5322" stroke="#a0ff56" stroke-width="2" /><polyline fill="none" points="58.5763,78.1017 65.9525,75.4983 71.5932,75.0644 73.3288,77.2339 73.3288,79.8373 68.5559,85.9119 55.1051,92.8542" stroke="#eaff0c" stroke-width="2" /><polyline fill="none" points="77.2339,88.0814 75.0644,81.139 68.5559,83.3085 65.5186,89.8169 64.2169,97.6271 64.2169,98.9288 67.6881,98.9288 72.0271,95.0237 78.5356,86.7797 78.5356,85.0441 77.2339,84.6102" stroke="#ffaa00" stroke-width="2" /><polyline fill="none" points="79.8373,90.6847 82.4407,100.6644 82.4407,84.1763 90.6847,76.3661" stroke="#ff5500" stroke-width="2" /><polyline fill="none" points="93.722,77.2339 94.1559,95.4576" stroke="#e80000" stroke-width="2" /><polyline fill="none" points="85.0441,95.0237 94.1559,91.5525" stroke="#7f0000" stroke-width="2" /></svg>