<?xml version="1.0" encoding="utf-8" ?>
<svg baseProfile="tiny" height="128" version="1.2" viewBox="0,0,128,128" width="128" xmlns="http://www.w3.org/2000/svg" xmlns:ev="http://www.w3.org/2001/xml-events" xmlns:xlink="http://www.w3.org/1999/xlink"><defs /><polyline fill="none" points="45.9932,9.1119 42.9559,8.678 25.6,15.6203 14.3186,32.1085 8.678,56.4068 9.1119,86.7797 18.2237,99.7966 25.6,105.4373 36.4475,110.6441 58.1424,117.5864 73.3288,119.322 98.9288,107.1729 108.0407,96.7593 111.5119,78.5356 111.5119,66.8203 107.6068,50.3322 98.9288,35.5797 89.3831,26.0339 67.6881,13.4508 43.8237,13.4508 35.1458,17.7898" stroke="#00007f" stroke-width="2" /><polyline fill="none" points="39.9186,14.3186 42.0881,23.4305 44.2576,62.9153 39.4847,85.0441 25.6,114.9831 23.8644,111.5119" stroke="#7cff79" stroke-width="2" /><polyline fill="none" points="72.0271,19.5254 71.5932,51.6339 75.0644,83.7424 78.1017,91.1186 81.5729,92.8542 88.0814,91.9864" stroke="#7f0000" stroke-width="2" /></svg>