<?xml version="1.0" encoding="utf-8" ?>
<svg baseProfile="tiny" height="128" version="1.2" viewBox="0,0,128,128" width="128" xmlns="http://www.w3.org/2000/svg" xmlns:ev="http://www.w3.org/2001/xml-events" xmlns:xlink="http://www.w3.org/1999/xlink"><defs /><polyline fill="none" points="18.6576,29.939 26.4678,21.261 34.278,16.4881 61.1797,8.678 82.4407,8.678 91.5525,12.1492 104.5695,22.1288 109.3424,27.7695 115.8508,40.7864 119.322,61.1797 119.322,69.4237 114.9831,84.6102 108.0407,93.722 93.2881,108.4746 74.6305,117.1525 39.0508,118.0203 32.1085,115.8508 26.4678,111.5119 17.7898,98.061 12.1492,84.6102 8.678,72.461 8.678,49.0305 9.9797,42.0881 19.5254,29.0712 29.5051,21.261 46.861,15.1864" stroke="#00007f" stroke-width="2" /><polyline fill="none" points="49.8983,9.9797 55.9729,15.6203 61.1797,27.7695 62.4814,49.8983 60.3119,56.4068 40.7864,75.9322 22.9966,84.6102 17.7898,88.9492" stroke="#7cff79" stroke-width="2" /><polyline fill="none" points="113.6814,34.278 107.1729,36.4475 101.5322,43.3898 91.5525,59.0102 89.3831,65.5186 88.0814,91.5525 92.4203,103.7017" stroke="#7f0000" stroke-width="2" /></svg>