<?xml version="1.0" encoding="utf-8" ?>
<svg baseProfile="tiny" height="128" version="1.2" viewBox="0,0,128,128" width="128" xmlns="http://www.w3.org/2000/svg" xmlns:ev="http://www.w3.org/2001/xml-events" xmlns:xlink="http://www.w3.org/1999/xlink"><defs /><polyline fill="none" points="78.1017,8.678 65.5186,9.9797 36.0136,19.9593 21.261,28.2034 13.0169,36.0136 8.678,49.0305 11.2814,71.5932 13.8847,81.139 19.9593,93.2881 26.4678,100.6644 32.5424,105.0034 40.3525,106.739 62.4814,105.0034 79.8373,101.9661 92.8542,95.8915 104.1356,86.7797 110.2102,78.5356 117.5864,57.2746 119.322,41.2203 118.0203,32.9763 114.1153,25.6 107.1729,19.5254 86.3458,15.1864" stroke="#00007f" stroke-width="2" /><polyline fill="none" points="41.2203,22.5627 53.3695,53.8034 55.1051,67.2542 51.2,82.4407 42.522,95.4576 35.5797,102.8339" stroke="#0080ff" stroke-width="2" /><polyline fill="none" points="105.8712,15.6203 91.5525,26.0339 76.3661,58.1424 75.4983,70.2915 78.1017,95.8915 82.0068,103.7017" stroke="#7cff79" stroke-width="2" /><polyline fill="none" points="69.4237,39.4847 90.6847,46.4271" stroke="#ff9400" stroke-width="2" /><polyline fill="none" points="68.9898,70.7254 86.3458,69.8576" stroke="#7f0000" stroke-width="2" /></svg>