<?xml version="1.0" encoding="utf-8" ?>
<svg baseProfile="tiny" height="128" version="1.2" viewBox="0,0,128,128" width="128" xmlns="http://www.w3.org/2000/svg" xmlns:ev="http://www.w3.org/2001/xml-events" xmlns:xlink="http://www.w3.org/1999/xlink"><defs /><polyline fill="none" points="57.7085,8.678 47.2949,13.4508 26.9017,38.1831 23.4305,47.2949 21.6949,63.7831 21.6949,74.1966 23.4305,78.1017 32.9763,98.061 37.3153,101.9661 52.9356,111.9458 63.3492,116.7186 71.5932,119.322 91.1186,114.5492 101.0983,107.1729 107.1729,96.3254 108.4746,80.7051 105.4373,68.5559 100.6644,57.2746 90.2508,40.3525 73.3288,27.7695 64.2169,24.2983" stroke="#00007f" stroke-width="2" /><polyline fill="none" points="74.1966,28.2034 58.1424,50.3322 34.7119,74.1966 20.8271,82.4407 8.678,82.4407" stroke="#0000ff" stroke-width="2" /><polyline fill="none" points="34.7119,51.2 41.6542,65.9525" stroke="#0080ff" stroke-width="2" /><polyline fill="none" points="47.2949,48.1627 53.8034,58.5763 56.8407,60.3119" stroke="#15ffe1" stroke-width="2" /><polyline fill="none" points="59.4441,39.0508 73.3288,46.4271 77.6678,50.3322" stroke="#7cff79" stroke-width="2" /><polyline fill="none" points="86.3458,44.6915 81.5729,66.3864 79.8373,83.7424 85.478,98.061 93.722,108.4746 97.1932,115.8508 98.061,114.5492" stroke="#e4ff12" stroke-width="2" /><polyline fill="none" points="66.8203,56.4068 88.9492,56.8407" stroke="#ff9400" stroke-width="2" /><polyline fill="none" points="78.9695,77.6678 92.4203,77.6678" stroke="#ff1d00" stroke-width="2" /><polyline fill="none" points="82.4407,94.5898 75.0644,103.7017" stroke="#7f0000" stroke-width="2" /></svg>