<?xml version="1.0" encoding="utf-8" ?>
<svg baseProfile="tiny" height="128" version="1.2" viewBox="0,0,128,128" width="128" xmlns="http://www.w3.org/2000/svg" xmlns:ev="http://www.w3.org/2001/xml-events" xmlns:xlink="http://www.w3.org/1999/xlink"><defs /><polyline fill="none" points="76.3661,12.1492 72.8949,9.1119 59.878,8.678 45.5593,13.8847 36.4475,20.8271 20.3932,39.4847 13.8847,52.0678 9.5458,66.3864 8.678,80.7051 8.678,92.8542 13.8847,102.8339 21.261,110.6441 31.2407,115.8508 43.3898,118.8881 72.8949,119.322 86.3458,114.5492 96.7593,105.8712 104.1356,94.5898 110.6441,79.4034 115.4169,65.0847 116.2847,39.4847 112.3797,30.3729 105.8712,23.8644 98.4949,19.0915 88.0814,16.4881 65.5186,15.1864 57.7085,15.6203 43.8237,19.0915" stroke="#00007f" stroke-width="2" /><polyline fill="none" points="34.278,26.9017 36.4475,26.0339 38.6169,29.5051 41.6542,40.7864 42.0881,78.9695 34.7119,95.4576 31.2407,99.3627 20.3932,103.7017 19.0915,106.3051" stroke="#0010ff" stroke-width="2" /><polyline fill="none" points="90.2508,16.0542 83.7424,18.6576 75.9322,30.3729 73.7627,38.6169 73.3288,62.4814 75.4983,81.5729 78.5356,91.5525 84.1763,101.9661 88.0814,105.0034 91.1186,105.4373" stroke="#00a4ff" stroke-width="2" /><polyline fill="none" points="74.6305,23.8644 76.3661,26.0339 82.8746,29.5051" stroke="#3fffb7" stroke-width="2" /><polyline fill="none" points="74.6305,43.8237 82.4407,45.5593" stroke="#b7ff3f" stroke-width="2" /><polyline fill="none" points="71.5932,55.9729 79.4034,60.7458" stroke="#ffb900" stroke-width="2" /><polyline fill="none" points="75.9322,88.9492 82.8746,87.6475" stroke="#ff3000" stroke-width="2" /><polyline fill="none" points="86.3458,103.2678 91.1186,103.2678" stroke="#7f0000" stroke-width="2" /></svg>