<?xml version="1.0" encoding="utf-8" ?>
<svg baseProfile="tiny" height="128" version="1.2" viewBox="0,0,128,128" width="128" xmlns="http://www.w3.org/2000/svg" xmlns:ev="http://www.w3.org/2001/xml-events" xmlns:xlink="http://www.w3.org/1999/xlink"><defs /><polyline fill="none" points="78.1017,11.2814 50.3322,11.7153 33.8441,19.0915 25.1661,25.6 15.6203,37.7492 8.678,65.9525 8.678,87.2136 12.5831,98.061 18.2237,105.8712 26.9017,112.3797 36.0136,115.8508 52.9356,115.8508 59.4441,114.5492 72.0271,108.9085 82.4407,101.0983 93.722,88.0814 103.7017,68.122 106.3051,57.2746 107.1729,47.2949 106.739,27.7695 98.9288,15.6203 83.7424,9.1119 73.3288,8.678 65.0847,11.7153 62.4814,16.0542" stroke="#00007f" stroke-width="2" /><polyline fill="none" points="39.4847,14.3186 46.4271,23.8644 50.7661,37.3153 55.1051,59.4441 55.1051,77.2339 50.3322,89.8169 45.1254,97.1932 25.1661,112.8136 13.0169,119.322" stroke="#00d4ff" stroke-width="2" /><polyline fill="none" points="90.6847,14.7525 81.139,20.3932 74.1966,30.3729 64.2169,58.5763 63.7831,76.8 71.5932,111.078 73.7627,115.8508" stroke="#ffe500" stroke-width="2" /><polyline fill="none" points="62.4814,11.7153 62.4814,11.7153" stroke="#7f0000" stroke-width="2" /></svg>