<?xml version="1.0" encoding="utf-8" ?>
<svg baseProfile="tiny" height="128" version="1.2" viewBox="0,0,128,128" width="128" xmlns="http://www.w3.org/2000/svg" xmlns:ev="http://www.w3.org/2001/xml-events" xmlns:xlink="http://www.w3.org/1999/xlink"><defs /><polyline fill="none" points="90.2508,17.7898 79.8373,10.8475 59.878,8.678 45.5593,13.4508 31.2407,24.2983 18.6576,38.6169 9.9797,54.2373 8.678,61.6136 9.5458,75.0644 17.3559,87.2136 23.8644,92.8542 40.7864,100.2305 51.2,102.4 72.0271,104.5695 82.0068,104.5695 97.6271,99.7966 109.3424,90.2508 113.2475,83.3085 117.5864,69.8576 119.322,62.4814 118.4542,45.9932 112.8136,32.5424 103.7017,22.1288 98.061,17.7898 85.478,12.1492" stroke="#00007f" stroke-width="2" /><polyline fill="none" points="44.2576,13.8847 45.1254,35.1458 40.7864,60.3119 39.4847,82.4407 36.4475,98.9288 36.4475,100.2305 37.7492,100.2305" stroke="#004cff" stroke-width="2" /><polyline fill="none" points="86.7797,12.5831 86.7797,76.8 84.6102,92.8542" stroke="#29ffcd" stroke-width="2" /><polyline fill="none" points="73.7627,35.5797 101.5322,36.0136" stroke="#cdff29" stroke-width="2" /><polyline fill="none" points="76.3661,60.7458 83.3085,64.6508 99.7966,66.3864" stroke="#ff6700" stroke-width="2" /><polyline fill="none" points="81.5729,81.139 101.0983,82.4407" stroke="#7f0000" stroke-width="2" /></svg>