<?xml version="1.0" encoding="utf-8" ?>
<svg baseProfile="tiny" height="128" version="1.2" viewBox="0,0,128,128" width="128" xmlns="http://www.w3.org/2000/svg" xmlns:ev="http://www.w3.org/2001/xml-events" xmlns:xlink="http://www.w3.org/1999/xlink"><defs /><polyline fill="none" points="35.1458,9.1119 29.939,10.8475 17.7898,30.8068 10.4136,52.5017 8.678,63.7831 9.5458,75.4983 14.3186,90.6847 21.6949,101.9661 33.4102,111.5119 51.6339,117.5864 72.8949,119.322 90.6847,115.8508 99.3627,111.078 108.0407,91.1186 108.0407,53.3695 105.8712,41.6542 102.4,34.278 94.5898,25.6 81.5729,16.0542 66.3864,9.9797 50.3322,8.678 45.1254,11.2814" stroke="#00007f" stroke-width="2" /><polyline fill="none" points="26.9017,42.522 63.3492,40.7864 77.2339,37.7492 95.0237,37.3153 104.5695,38.6169" stroke="#0000f1" stroke-width="2" /><polyline fill="none" points="28.6373,100.6644 35.1458,99.3627 70.7254,98.061 96.7593,93.2881 116.2847,92.4203" stroke="#004cff" stroke-width="2" /><polyline fill="none" points="38.1831,94.1559 38.1831,97.6271 40.7864,102.4" stroke="#00b0ff" stroke-width="2" /><polyline fill="none" points="53.8034,98.4949 54.6712,102.4 55.9729,104.1356" stroke="#29ffcd" stroke-width="2" /><polyline fill="none" points="71.5932,95.4576 77.2339,95.8915 81.5729,94.5898 85.9119,96.7593" stroke="#7cff79" stroke-width="2" /><polyline fill="none" points="100.6644,87.6475 101.0983,89.3831" stroke="#cdff29" stroke-width="2" /><polyline fill="none" points="114.5492,87.6475 114.5492,87.6475" stroke="#ffc400" stroke-width="2" /><polyline fill="none" points="34.278,35.1458 35.5797,38.6169" stroke="#ff6700" stroke-width="2" /><polyline fill="none" points="46.861,36.4475 49.0305,39.4847" stroke="#f10700" stroke-width="2" /><polyline fill="none" points="68.9898,39.4847 68.9898,39.4847" stroke="#7f0000" stroke-width="2" /></svg>