<?xml version="1.0" encoding="utf-8" ?>
<svg baseProfile="tiny" height="128" version="1.2" viewBox="0,0,128,128" width="128" xmlns="http://www.w3.org/2000/svg" xmlns:ev="http://www.w3.org/2001/xml-events" xmlns:xlink="http://www.w3.org/1999/xlink"><defs /><polyline fill="none" points="80.1088,36.1361 80.1088,34.3946 73.1429,33.9592 64.0,40.0544 58.7755,56.5986 58.7755,65.7415 60.9524,67.9184 64.4354,68.7891 83.5918,70.0952 90.1224,67.9184 95.3469,63.1293 97.5238,58.7755 97.5238,49.6327 89.2517,41.3605 69.6599,36.5714" stroke="#00007f" stroke-width="2" /><polyline fill="none" points="8.7075,119.2925 10.449,117.9864 12.1905,95.7823 8.7075,79.2381 8.7075,35.7007 11.7551,20.0272 14.8027,13.932 19.5918,8.7075 29.1701,8.7075 33.0884,11.3197 33.9592,14.8027 33.9592,35.7007 31.3469,57.034 27.4286,76.6259 26.5578,102.3129 24.381,115.3741 20.4626,119.2925 10.449,118.8571" stroke="#7f0000" stroke-width="2" /></svg>