<?xml version="1.0" encoding="utf-8" ?>
<svg baseProfile="tiny" height="128" version="1.2" viewBox="0,0,128,128" width="128" xmlns="http://www.w3.org/2000/svg" xmlns:ev="http://www.w3.org/2001/xml-events" xmlns:xlink="http://www.w3.org/1999/xlink"><defs /><polyline fill="none" points="50.068,15.6735 31.7823,15.6735 13.932,21.7687 10.0136,29.1701 8.7075,42.2313 15.6735,57.4694 23.9456,64.0 32.6531,67.9184 63.5646,76.1905 81.415,67.483 83.5918,62.6939 81.8503,46.1497 79.2381,41.7959 53.9864,21.3333 38.3129,13.932" stroke="#00007f" stroke-width="2" /><polyline fill="none" points="77.0612,13.4966 101.8776,64.8707" stroke="#00d4ff" stroke-width="2" /><polyline fill="none" points="77.0612,14.3673 77.0612,9.5782 79.6735,8.7075 83.5918,9.1429 87.9456,13.932 109.2789,64.0" stroke="#ffe500" stroke-width="2" /><polyline fill="none" points="104.4898,68.7891 106.2313,71.4014 108.4082,71.4014 114.068,80.5442 117.551,83.1565 119.2925,77.4966 117.9864,72.2721 111.8912,65.7415 107.5374,63.1293" stroke="#7f0000" stroke-width="2" /></svg>