<?xml version="1.0" encoding="utf-8" ?>
<svg baseProfile="tiny" height="128" version="1.2" viewBox="0,0,128,128" width="128" xmlns="http://www.w3.org/2000/svg" xmlns:ev="http://www.w3.org/2001/xml-events" xmlns:xlink="http://www.w3.org/1999/xlink"><defs /><polyline fill="none" points="110.6441,28.2034 108.0407,23.4305 100.2305,17.3559 85.478,13.4508 65.9525,14.7525 47.7288,21.6949 29.939,33.8441 15.6203,54.2373 9.1119,69.4237 8.678,80.2712 9.9797,86.7797 13.0169,94.5898 22.9966,105.4373 38.1831,111.5119 48.1627,112.8136 68.9898,111.9458 82.0068,108.9085 90.2508,104.5695 109.7763,80.2712 114.1153,70.7254 118.0203,56.4068 118.8881,43.8237 114.9831,25.6 109.7763,14.7525 103.7017,8.678" stroke="#00007f" stroke-width="2" /><polyline fill="none" points="41.2203,29.939 45.5593,42.0881 50.3322,74.6305 45.1254,102.4" stroke="#7cff79" stroke-width="2" /><polyline fill="none" points="119.322,35.1458 113.2475,37.3153 97.6271,51.6339 86.7797,68.5559 77.6678,88.0814 75.9322,103.7017 81.139,114.9831 85.0441,117.5864" stroke="#7f0000" stroke-width="2" /></svg>