<?xml version="1.0" encoding="utf-8" ?>
<svg baseProfile="tiny" height="128" version="1.2" viewBox="0,0,128,128" width="128" xmlns="http://www.w3.org/2000/svg" xmlns:ev="http://www.w3.org/2001/xml-events" xmlns:xlink="http://www.w3.org/1999/xlink"><defs /><polyline fill="none" points="49.0305,119.322 36.4475,116.2847 25.6,107.1729 17.3559,95.4576 10.8475,75.4983 8.678,59.0102 9.5458,48.5966 15.6203,35.5797 25.6,24.2983 47.7288,13.0169 60.3119,9.1119 74.1966,8.678 86.3458,12.1492 95.0237,18.2237 104.5695,29.939 114.5492,57.7085 117.1525,73.7627 117.1525,86.3458 113.6814,95.0237 102.4,113.6814 98.061,115.8508 85.478,118.4542 73.7627,119.322 52.5017,116.7186" stroke="#00007f" stroke-width="2" /><polyline fill="none" points="82.0068,12.5831 78.5356,12.5831 72.461,20.3932 72.0271,25.1661 69.4237,29.5051 71.5932,36.4475 71.5932,48.5966 75.4983,51.6339 73.3288,60.3119 75.4983,68.9898 73.3288,74.1966 78.9695,89.8169 94.1559,105.4373 98.4949,106.3051 105.0034,114.9831" stroke="#7cff79" stroke-width="2" /><polyline fill="none" points="11.7153,47.7288 20.8271,51.6339 23.8644,56.4068 27.7695,59.0102 32.1085,59.878 33.4102,64.6508 39.9186,70.2915 38.1831,78.9695 39.0508,82.4407" stroke="#7f0000" stroke-width="2" /></svg>