<?xml version="1.0" encoding="utf-8" ?>
<svg baseProfile="tiny" height="128" version="1.2" viewBox="0,0,128,128" width="128" xmlns="http://www.w3.org/2000/svg" xmlns:ev="http://www.w3.org/2001/xml-events" xmlns:xlink="http://www.w3.org/1999/xlink"><defs /><polyline fill="none" points="48.7619,10.0136 42.6667,10.0136 37.8776,12.1905 26.1224,20.4626 18.2857,29.1701 10.449,45.2789 8.7075,53.551 9.1429,74.0136 16.9796,85.7687 22.6395,90.5578 36.1361,98.3946 52.6803,102.7483 77.932,102.7483 93.1701,97.0884 105.3605,89.2517 112.7619,80.5442 117.1156,71.8367 119.2925,63.1293 118.4218,46.1497 111.4558,35.2653 106.2313,30.0408 86.6395,15.6735 75.7551,10.8844 63.1293,9.1429 40.4898,8.7075 37.0068,10.8844" stroke="#00007f" stroke-width="2" /><polyline fill="none" points="51.8095,10.8844 57.034,26.9932 63.1293,36.5714 80.5442,53.9864 101.8776,72.2721 113.6327,86.6395" stroke="#0010ff" stroke-width="2" /><polyline fill="none" points="13.932,40.9252 19.5918,50.068 28.7347,60.517 62.2585,88.381 77.4966,96.2177" stroke="#00a4ff" stroke-width="2" /><polyline fill="none" points="45.7143,29.1701 60.517,21.7687 66.6122,20.898" stroke="#3fffb7" stroke-width="2" /><polyline fill="none" points="48.3265,39.619 56.1633,34.8299 64.8707,32.6531" stroke="#b7ff3f" stroke-width="2" /><polyline fill="none" points="62.6939,45.2789 66.1769,43.5374 82.2857,41.7959" stroke="#ffb900" stroke-width="2" /><polyline fill="none" points="71.8367,63.5646 85.3333,58.3401 91.4286,57.4694" stroke="#ff3000" stroke-width="2" /><polyline fill="none" points="93.1701,74.0136 101.8776,72.2721 116.2449,65.3061" stroke="#7f0000" stroke-width="2" /></svg>