<?xml version="1.0" encoding="utf-8" ?>
<svg baseProfile="tiny" height="128" version="1.2" viewBox="0,0,128,128" width="128" xmlns="http://www.w3.org/2000/svg" xmlns:ev="http://www.w3.org/2001/xml-events" xmlns:xlink="http://www.w3.org/1999/xlink"><defs /><polyline fill="none" points="73.5782,10.449 70.966,9.1429 56.5986,8.7075 39.619,9.5782 25.6871,16.1088 17.415,23.0748 11.7551,29.6054 8.7075,38.7483 9.1429,55.2925 11.7551,63.1293 16.9796,70.5306 39.619,95.3469 48.7619,101.4422 59.6463,105.7959 72.7075,106.2313 83.5918,104.0544 92.7347,98.3946 104.4898,87.5102 114.5034,73.5782 119.2925,60.517 119.2925,43.5374 117.1156,36.1361 105.3605,21.3333 80.5442,10.449 72.7075,9.1429" stroke="#00007f" stroke-width="2" /><polyline fill="none" points="44.4082,10.0136 42.2313,19.5918 33.5238,41.3605 30.0408,53.9864 22.2041,70.966" stroke="#7cff79" stroke-width="2" /><polyline fill="none" points="101.8776,20.0272 93.1701,37.0068 87.0748,60.0816 85.3333,99.2653" stroke="#7f0000" stroke-width="2" /></svg>