<?xml version="1.0" encoding="utf-8" ?>
<svg baseProfile="tiny" height="128" version="1.2" viewBox="0,0,128,128" width="128" xmlns="http://www.w3.org/2000/svg" xmlns:ev="http://www.w3.org/2001/xml-events" xmlns:xlink="http://www.w3.org/1999/xlink"><defs /><polyline fill="none" points="82.4407,16.922 70.7254,13.4508 38.6169,8.678 35.1458,8.678 28.6373,15.6203 26.9017,20.3932 12.1492,48.5966 8.678,63.3492 15.6203,88.9492 18.2237,93.2881 30.3729,100.6644 37.7492,102.8339 72.461,105.8712 92.8542,104.1356 112.3797,86.7797 117.1525,73.3288 119.322,61.6136 118.0203,37.7492 112.8136,31.2407 98.061,19.5254 87.2136,14.7525 77.6678,16.0542" stroke="#00007f" stroke-width="2" /><polyline fill="none" points="65.9525,15.6203 66.8203,42.9559 62.4814,85.478 64.6508,105.8712" stroke="#00d4ff" stroke-width="2" /><polyline fill="none" points="33.8441,15.6203 45.1254,25.1661 51.6339,40.7864 48.1627,64.6508 45.9932,68.122 20.8271,91.1186" stroke="#ffe500" stroke-width="2" /><polyline fill="none" points="113.6814,28.6373 95.8915,45.5593 94.1559,49.0305" stroke="#7f0000" stroke-width="2" /></svg>