<?xml version="1.0" encoding="utf-8" ?>
<svg baseProfile="tiny" height="128" version="1.2" viewBox="0,0,128,128" width="128" xmlns="http://www.w3.org/2000/svg" xmlns:ev="http://www.w3.org/2001/xml-events" xmlns:xlink="http://www.w3.org/1999/xlink"><defs /><polyline fill="none" points="71.5932,11.2814 68.122,8.678 51.6339,9.1119 39.4847,14.3186 26.4678,23.4305 21.261,28.2034 13.0169,40.3525 9.1119,54.6712 8.678,63.3492 9.5458,87.2136 12.1492,93.722 20.8271,106.3051 26.9017,111.5119 41.2203,117.1525 55.9729,119.322 70.2915,119.322 88.0814,110.6441 95.8915,100.6644 102.4,78.1017 104.1356,49.0305 100.2305,36.4475 94.1559,27.3356 82.0068,17.3559 68.122,12.5831" stroke="#00007f" stroke-width="2" /><polyline fill="none" points="32.9763,20.8271 42.522,59.878 43.3898,82.4407 38.1831,95.8915 30.8068,106.3051" stroke="#0028ff" stroke-width="2" /><polyline fill="none" points="88.0814,13.8847 84.1763,19.5254 74.6305,45.9932 71.1593,63.7831 70.2915,96.7593 72.8949,107.1729 77.6678,114.5492" stroke="#00d4ff" stroke-width="2" /><polyline fill="none" points="26.9017,39.9186 29.0712,38.1831 44.2576,34.7119" stroke="#7cff79" stroke-width="2" /><polyline fill="none" points="34.7119,61.6136 46.4271,60.7458" stroke="#ffe500" stroke-width="2" /><polyline fill="none" points="29.5051,91.1186 32.9763,92.4203 49.0305,91.9864" stroke="#ff4600" stroke-width="2" /><polyline fill="none" points="63.3492,48.1627 70.2915,42.9559 85.478,41.6542" stroke="#7f0000" stroke-width="2" /></svg>