<?xml version="1.0" encoding="utf-8" ?>
<svg baseProfile="tiny" height="128" version="1.2" viewBox="0,0,128,128" width="128" xmlns="http://www.w3.org/2000/svg" xmlns:ev="http://www.w3.org/2001/xml-events" xmlns:xlink="http://www.w3.org/1999/xlink"><defs /><polyline fill="none" points="85.9119,9.9797 60.3119,8.678 40.7864,13.8847 32.5424,18.2237 25.6,24.7322 15.1864,40.3525 9.9797,55.539 8.678,64.6508 10.8475,85.478 14.3186,94.5898 22.9966,107.6068 35.5797,116.2847 38.6169,117.1525" stroke="#00007f" stroke-width="2" /><polyline fill="none" points="43.8237,119.322 68.9898,118.0203 78.1017,115.8508 85.0441,112.3797 95.8915,102.8339 106.3051,84.6102 109.3424,72.461 109.3424,58.1424 106.3051,45.1254 102.8339,36.8814 97.6271,29.939 87.6475,21.6949 81.139,18.2237" stroke="#00d4ff" stroke-width="2" /><polyline fill="none" points="38.1831,23.4305 42.522,28.2034 45.5593,36.0136 47.7288,46.4271 46.861,64.2169 42.0881,89.3831 36.0136,101.9661 29.939,107.1729" stroke="#ffe500" stroke-width="2" /><polyline fill="none" points="76.8,28.2034 71.5932,35.5797 67.6881,45.5593 63.3492,71.5932 63.3492,84.6102 66.8203,98.061 72.461,107.1729 76.8,111.078" stroke="#7f0000" stroke-width="2" /></svg>