<?xml version="1.0" encoding="utf-8" ?>
<svg baseProfile="tiny" height="128" version="1.2" viewBox="0,0,128,128" width="128" xmlns="http://www.w3.org/2000/svg" xmlns:ev="http://www.w3.org/2001/xml-events" xmlns:xlink="http://www.w3.org/1999/xlink"><defs /><polyline fill="none" points="101.0983,11.7153 91.5525,8.678 76.8,10.4136 66.3864,14.3186 54.6712,21.261 43.3898,29.939 26.4678,49.4644 20.8271,59.0102 14.7525,76.3661 13.8847,85.478 14.7525,101.0983 20.3932,112.8136 29.0712,118.4542 46.4271,119.322 60.7458,118.0203 82.4407,109.3424 93.2881,101.5322 103.2678,88.5153 109.3424,75.4983 114.5492,55.539 114.9831,39.0508 110.2102,26.9017 105.4373,21.261 95.8915,14.7525" stroke="#00007f" stroke-width="2" /><polyline fill="none" points="56.4068,24.7322 59.0102,26.9017 59.0102,52.0678 57.2746,57.2746 35.5797,89.8169 21.6949,100.6644 10.8475,104.1356 8.678,104.5695 12.1492,102.4" stroke="#7cff79" stroke-width="2" /><polyline fill="none" points="107.1729,32.1085 101.9661,32.1085 88.0814,44.6915 75.9322,62.0475 73.3288,68.5559 70.7254,79.8373 70.7254,96.7593 72.461,105.0034 75.9322,110.2102" stroke="#7f0000" stroke-width="2" /></svg>