<?xml version="1.0" encoding="utf-8" ?>
<svg baseProfile="tiny" height="128" version="1.2" viewBox="0,0,128,128" width="128" xmlns="http://www.w3.org/2000/svg" xmlns:ev="http://www.w3.org/2001/xml-events" xmlns:xlink="http://www.w3.org/1999/xlink"><defs /><polyline fill="none" points="44.6915,9.5458 38.6169,8.678 32.1085,10.4136 24.2983,17.7898 14.3186,34.7119 9.5458,51.6339 8.678,68.9898 11.7153,85.0441 19.0915,98.4949 29.5051,108.4746 43.8237,114.1153 55.1051,114.9831 71.5932,113.2475 82.0068,108.9085 97.6271,99.7966 105.4373,92.4203 116.2847,75.9322 119.322,63.3492 118.8881,51.6339 116.7186,45.1254 112.3797,38.6169 102.4,29.939 76.8,16.0542 64.6508,10.8475 48.1627,9.5458 35.1458,13.0169 42.0881,20.3932 45.9932,28.2034 51.6339,40.7864 53.8034,52.5017 52.9356,61.1797 44.2576,89.3831 35.5797,107.1729" stroke="#00007f" stroke-width="2" /><polyline fill="none" points="87.6475,21.261 80.7051,30.3729 76.3661,40.7864 74.6305,50.7661 75.4983,61.6136 85.0441,88.5153 98.4949,100.6644" stroke="#7cff79" stroke-width="2" /><polyline fill="none" points="39.9186,23.4305 47.7288,24.7322" stroke="#7f0000" stroke-width="2" /></svg>