<?xml version="1.0" encoding="utf-8" ?>
<svg baseProfile="tiny" height="128" version="1.2" viewBox="0,0,128,128" width="128" xmlns="http://www.w3.org/2000/svg" xmlns:ev="http://www.w3.org/2001/xml-events" xmlns:xlink="http://www.w3.org/1999/xlink"><defs /><polyline fill="none" points="53.551,11.3197 50.068,10.8844 45.2789,12.6259 37.4422,17.415 29.6054,24.381 17.415,40.9252 13.4966,49.6327 8.7075,67.9184 10.0136,81.8503 13.0612,90.5578 17.8503,98.8299 28.7347,110.1497 41.3605,117.1156 51.3741,119.2925 61.8231,119.2925 75.7551,117.1156 87.5102,111.8912 98.3946,104.4898 110.585,90.5578 116.6803,70.0952 117.551,57.4694 115.8095,47.4558 108.4082,31.3469 98.8299,22.2041 86.2041,14.8027 64.0,8.7075 55.7279,10.0136 43.9728,19.5918" stroke="#00007f" stroke-width="2" /><polyline fill="none" points="97.9592,25.2517 89.6871,35.7007 81.8503,50.5034 78.3673,68.3537 78.3673,78.3673 81.415,92.2993 84.0272,96.2177 94.0408,103.619" stroke="#7cff79" stroke-width="2" /><polyline fill="none" points="42.2313,19.1565 49.6327,30.0408 56.1633,47.0204 58.7755,64.4354 58.7755,74.449 57.034,82.7211 51.3741,90.5578 27.8639,115.3741" stroke="#7f0000" stroke-width="2" /></svg>