<?xml version="1.0" encoding="utf-8" ?>
<svg baseProfile="tiny" height="128" version="1.2" viewBox="0,0,128,128" width="128" xmlns="http://www.w3.org/2000/svg" xmlns:ev="http://www.w3.org/2001/xml-events" xmlns:xlink="http://www.w3.org/1999/xlink"><defs /><polyline fill="none" points="33.4102,10.4136 28.6373,14.3186 18.2237,29.5051 13.8847,40.7864 12.1492,46.861 8.678,87.2136 9.1119,102.4 29.5051,118.0203 40.3525,119.322 74.6305,119.322 82.0068,114.9831 89.3831,107.1729 101.5322,98.9288 111.9458,86.3458 115.4169,57.2746 115.4169,43.8237 112.3797,37.3153 103.2678,31.2407 100.6644,27.3356 100.6644,22.9966 94.5898,18.6576 73.7627,15.6203 59.0102,15.6203 44.6915,9.9797 26.9017,10.4136 25.1661,8.678" stroke="#00007f" stroke-width="2" /><polyline fill="none" points="28.2034,9.9797 33.8441,16.922 46.861,37.7492 50.3322,52.5017 50.3322,65.0847 45.9932,85.9119 42.522,91.9864 41.2203,99.3627 37.3153,105.0034 34.7119,112.8136 32.9763,115.8508 27.3356,118.0203" stroke="#7f0000" stroke-width="2" /></svg>