<?xml version="1.0" encoding="utf-8" ?>
<svg baseProfile="tiny" height="128" version="1.2" viewBox="0,0,128,128" width="128" xmlns="http://www.w3.org/2000/svg" xmlns:ev="http://www.w3.org/2001/xml-events" xmlns:xlink="http://www.w3.org/1999/xlink"><defs /><polyline fill="none" points="106.739,11.7153 100.6644,8.678 78.9695,9.5458 64.6508,19.0915 45.9932,34.278 17.7898,67.6881 10.8475,81.139 8.678,91.5525 8.678,101.5322 16.0542,108.0407 33.4102,111.078 53.8034,111.078 75.0644,101.5322 89.3831,93.2881 98.4949,85.0441 105.8712,69.4237 108.0407,51.2 111.9458,39.4847 111.9458,28.2034 108.0407,16.922" stroke="#00007f" stroke-width="2" /><polyline fill="none" points="97.6271,17.7898 93.722,26.0339 87.2136,33.4102 78.9695,40.7864 67.6881,55.1051 55.1051,66.3864 30.8068,73.7627 19.9593,73.7627" stroke="#0000f1" stroke-width="2" /><polyline fill="none" points="43.8237,59.4441 44.6915,69.8576" stroke="#004cff" stroke-width="2" /><polyline fill="none" points="63.3492,45.9932 63.3492,45.9932" stroke="#00b0ff" stroke-width="2" /><polyline fill="none" points="85.0441,13.8847 89.3831,20.8271 91.1186,28.2034 95.4576,31.2407" stroke="#29ffcd" stroke-width="2" /><polyline fill="none" points="68.5559,52.0678 64.6508,64.6508" stroke="#7cff79" stroke-width="2" /><polyline fill="none" points="28.2034,66.3864 22.1288,73.7627 9.5458,84.1763" stroke="#cdff29" stroke-width="2" /><polyline fill="none" points="22.9966,105.0034 32.5424,103.7017 45.9932,106.739 53.8034,106.739 60.3119,105.0034 76.8,89.3831 97.6271,73.7627 109.3424,69.8576 119.322,68.5559" stroke="#ffc400" stroke-width="2" /><polyline fill="none" points="57.2746,88.5153 57.2746,88.5153" stroke="#ff6700" stroke-width="2" /><polyline fill="none" points="98.4949,67.6881 95.4576,81.139" stroke="#f10700" stroke-width="2" /><polyline fill="none" points="111.9458,73.7627 111.9458,73.7627" stroke="#7f0000" stroke-width="2" /></svg>