<?xml version="1.0" encoding="utf-8" ?>
<svg baseProfile="tiny" height="128" version="1.2" viewBox="0,0,128,128" width="128" xmlns="http://www.w3.org/2000/svg" xmlns:ev="http://www.w3.org/2001/xml-events" xmlns:xlink="http://www.w3.org/1999/xlink"><defs /><polyline fill="none" points="47.2949,16.0542 42.522,14.7525 37.7492,15.6203 25.6,25.1661 16.0542,38.1831 9.5458,54.6712 8.678,65.9525 11.2814,83.7424 16.4881,94.1559 28.2034,105.4373 45.1254,113.2475 57.2746,114.9831 69.4237,114.5492 85.9119,110.6441 99.7966,102.8339 111.5119,92.8542 117.5864,82.0068 119.322,72.0271 117.5864,58.5763 113.2475,47.2949 98.061,28.2034 86.3458,20.8271 70.2915,13.4508 52.5017,9.5458 36.4475,8.678" stroke="#00007f" stroke-width="2" /><polyline fill="none" points="20.3932,43.3898 24.7322,42.522 38.1831,48.1627 45.1254,53.3695 51.2,64.2169 52.5017,73.7627 51.6339,82.0068 45.9932,95.8915 41.2203,102.8339" stroke="#7cff79" stroke-width="2" /><polyline fill="none" points="91.5525,26.0339 86.7797,26.9017 81.5729,33.8441 78.5356,41.6542 72.461,62.4814 72.8949,75.9322 74.1966,80.7051 78.9695,84.6102 90.2508,88.9492 106.739,92.4203" stroke="#7f0000" stroke-width="2" /></svg>