<?xml version="1.0" encoding="utf-8" ?>
<svg baseProfile="tiny" height="128" version="1.2" viewBox="0,0,128,128" width="128" xmlns="http://www.w3.org/2000/svg" xmlns:ev="http://www.w3.org/2001/xml-events" xmlns:xlink="http://www.w3.org/1999/xlink"><defs /><polyline fill="none" points="58.1424,13.8847 52.5017,14.3186 43.3898,18.6576 29.0712,29.0712 21.261,39.0508 9.9797,57.7085 8.678,73.3288 10.8475,82.4407 17.3559,92.8542 29.939,104.5695 43.3898,110.2102 59.0102,113.2475 67.6881,116.2847 75.9322,117.1525 82.8746,114.5492 95.4576,107.1729 108.9085,92.4203 114.1153,80.2712 119.322,38.1831 106.739,21.6949 93.722,15.6203 70.2915,9.1119 64.2169,8.678 53.8034,11.7153" stroke="#00007f" stroke-width="2" /><polyline fill="none" points="31.6746,31.6746 42.0881,35.5797 47.2949,40.3525 52.5017,51.6339 53.8034,60.3119" stroke="#0080ff" stroke-width="2" /><polyline fill="none" points="13.8847,89.3831 25.6,77.2339 46.4271,59.0102 63.7831,52.0678 74.1966,50.3322 96.7593,50.3322 113.6814,54.2373 118.4542,59.0102" stroke="#7cff79" stroke-width="2" /><polyline fill="none" points="91.5525,47.7288 92.4203,39.4847 87.2136,27.7695 85.9119,21.6949 71.1593,13.4508" stroke="#ff9400" stroke-width="2" /><polyline fill="none" points="52.9356,62.4814 56.8407,65.9525 57.7085,88.9492" stroke="#7f0000" stroke-width="2" /></svg>