<?xml version="1.0" encoding="utf-8" ?>
<svg baseProfile="tiny" height="128" version="1.2" viewBox="0,0,128,128" width="128" xmlns="http://www.w3.org/2000/svg" xmlns:ev="http://www.w3.org/2001/xml-events" xmlns:xlink="http://www.w3.org/1999/xlink"><defs /><polyline fill="none" points="93.722,16.922 88.9492,11.7153 78.5356,8.678 70.7254,8.678 62.9153,10.4136 55.1051,14.3186 40.3525,25.1661 27.3356,42.9559 18.6576,61.1797 16.4881,71.1593 18.2237,88.0814 22.1288,93.722 28.2034,98.9288 36.0136,103.2678 44.6915,105.4373 65.5186,106.3051 76.3661,104.5695 86.3458,101.0983 95.4576,96.7593 109.3424,85.9119 118.0203,72.8949 119.322,67.2542 118.4542,55.539 111.9458,43.3898 97.6271,22.9966 89.8169,17.3559 81.5729,15.1864" stroke="#00007f" stroke-width="2" /><polyline fill="none" points="98.061,31.6746 93.722,33.8441 90.2508,39.4847 84.6102,58.5763 84.1763,68.9898 85.9119,79.4034 91.9864,90.6847 96.3254,95.8915 101.9661,98.4949" stroke="#7cff79" stroke-width="2" /><polyline fill="none" points="49.8983,17.3559 53.3695,16.922 54.6712,19.9593 54.6712,45.1254 42.9559,74.6305 36.0136,82.8746 25.1661,91.1186 10.4136,94.1559 8.678,93.2881" stroke="#7f0000" stroke-width="2" /></svg>