<?xml version="1.0" encoding="utf-8" ?>
<svg baseProfile="tiny" height="128" version="1.2" viewBox="0,0,128,128" width="128" xmlns="http://www.w3.org/2000/svg" xmlns:ev="http://www.w3.org/2001/xml-events" xmlns:xlink="http://www.w3.org/1999/xlink"><defs /><polyline fill="none" points="119.322,23.4305 117.1525,20.8271 104.5695,13.8847 90.2508,9.9797 71.5932,8.678 52.9356,10.8475 43.3898,14.7525 34.278,22.1288 26.9017,31.2407 16.0542,49.4644 11.7153,59.4441 8.678,78.9695 10.4136,86.3458 17.3559,97.6271 22.9966,103.2678 29.939,107.6068 39.9186,111.5119 58.1424,114.1153 68.122,113.2475 77.6678,110.6441 85.9119,105.4373 99.3627,92.4203 111.9458,76.3661 118.0203,59.878 118.8881,46.861 115.8508,33.8441 108.9085,25.6" stroke="#00007f" stroke-width="2" /><polyline fill="none" points="99.7966,14.7525 89.8169,39.4847 87.6475,62.0475 89.8169,72.0271 93.2881,78.9695 100.2305,86.7797 110.2102,91.9864" stroke="#00d4ff" stroke-width="2" /><polyline fill="none" points="40.3525,18.6576 39.0508,23.4305 39.4847,34.7119 44.2576,56.4068 44.2576,74.1966 40.7864,84.6102 33.4102,95.8915 29.5051,99.7966 23.4305,100.2305" stroke="#ffe500" stroke-width="2" /><polyline fill="none" points="70.7254,12.1492 64.6508,55.1051 63.3492,74.6305 63.7831,88.5153 70.2915,113.2475" stroke="#7f0000" stroke-width="2" /></svg>