<?xml version="1.0" encoding="utf-8" ?>
<svg baseProfile="tiny" height="128" version="1.2" viewBox="0,0,128,128" width="128" xmlns="http://www.w3.org/2000/svg" xmlns:ev="http://www.w3.org/2001/xml-events" xmlns:xlink="http://www.w3.org/1999/xlink"><defs /><polyline fill="none" points="75.9322,19.9593 69.4237,15.1864 61.6136,13.8847 47.7288,13.8847 41.2203,15.6203 27.3356,24.2983 16.4881,37.7492 13.0169,44.2576 8.678,62.9153 10.4136,81.5729 13.0169,88.0814 23.8644,104.1356 35.1458,114.5492 50.7661,119.322 62.0475,119.322 69.8576,115.4169 81.5729,104.1356 88.5153,93.722 95.0237,77.6678 98.061,67.6881 98.061,53.8034 89.3831,34.7119 82.4407,26.0339 70.7254,15.1864 57.7085,8.678" stroke="#00007f" stroke-width="2" /><polyline fill="none" points="34.7119,19.5254 36.8814,48.5966 35.5797,114.1153" stroke="#7cff79" stroke-width="2" /><polyline fill="none" points="79.8373,21.261 78.1017,21.261 77.2339,25.1661 77.2339,68.5559 73.3288,116.7186" stroke="#7f0000" stroke-width="2" /></svg>