<?xml version="1.0" encoding="utf-8" ?>
<svg baseProfile="tiny" height="128" version="1.2" viewBox="0,0,128,128" width="128" xmlns="http://www.w3.org/2000/svg" xmlns:ev="http://www.w3.org/2001/xml-events" xmlns:xlink="http://www.w3.org/1999/xlink"><defs /><polyline fill="none" points="82.8746,42.522 82.8746,42.522" stroke="#00007f" stroke-width="2" /><polyline fill="none" points="97.6271,23.4305 89.8169,16.922 68.122,12.5831 46.4271,12.5831 33.8441,16.922 24.7322,23.4305 16.922,31.6746 11.2814,39.9186 8.678,49.0305 8.678,59.878 9.9797,70.7254 13.8847,81.5729 22.1288,92.4203 32.9763,103.2678 52.0678,112.3797 58.5763,114.1153 82.8746,114.1153 90.6847,112.8136 98.061,109.7763 108.4746,103.2678 118.0203,85.478 119.322,62.4814 109.7763,38.1831 93.722,11.7153 88.0814,8.678" stroke="#0028ff" stroke-width="2" /><polyline fill="none" points="24.7322,12.5831 30.3729,27.7695 41.2203,70.7254 52.0678,85.9119 59.0102,91.1186 81.5729,101.9661 88.0814,109.7763" stroke="#00d4ff" stroke-width="2" /><polyline fill="none" points="46.4271,11.2814 49.4644,32.1085 52.0678,39.9186 61.6136,57.2746 79.8373,77.2339 91.9864,94.5898 98.9288,101.5322 112.3797,105.8712" stroke="#7cff79" stroke-width="2" /><polyline fill="none" points="35.5797,45.1254 35.5797,45.1254" stroke="#ffe500" stroke-width="2" /><polyline fill="none" points="61.1797,82.8746 61.1797,82.8746" stroke="#ff4600" stroke-width="2" /><polyline fill="none" points="80.2712,74.6305 80.2712,74.6305" stroke="#7f0000" stroke-width="2" /></svg>