<?xml version="1.0" encoding="utf-8" ?>
<svg baseProfile="tiny" height="128" version="1.2" viewBox="0,0,128,128" width="128" xmlns="http://www.w3.org/2000/svg" xmlns:ev="http://www.w3.org/2001/xml-events" xmlns:xlink="http://www.w3.org/1999/xlink"><defs /><polyline fill="none" points="81.139,21.261 73.3288,13.8847 68.5559,11.7153 57.2746,9.1119 46.4271,8.678 35.5797,13.4508 29.5051,17.7898 16.922,32.1085 12.1492,45.1254 9.5458,58.1424 8.678,82.8746 11.7153,96.3254 15.1864,103.7017 21.261,111.078 28.6373,116.7186 33.8441,118.4542 49.0305,119.322 67.2542,113.6814 82.0068,103.7017 90.2508,93.722 96.3254,80.2712 98.061,58.1424 95.0237,45.5593 87.6475,29.939 74.6305,16.922 66.3864,12.5831 55.539,11.2814" stroke="#00007f" stroke-width="2" /><polyline fill="none" points="42.0881,15.1864 45.5593,25.1661 48.1627,51.2 48.1627,74.6305 45.5593,85.9119 42.0881,93.722 32.1085,103.2678 26.0339,105.8712 14.7525,105.8712 13.0169,102.8339" stroke="#7cff79" stroke-width="2" /><polyline fill="none" points="58.5763,115.4169 54.6712,102.4 54.2373,95.8915 54.2373,88.9492 57.7085,76.8 70.7254,48.5966 85.0441,25.1661" stroke="#7f0000" stroke-width="2" /></svg>