<?xml version="1.0" encoding="utf-8" ?>
<svg baseProfile="tiny" height="128" version="1.2" viewBox="0,0,128,128" width="128" xmlns="http://www.w3.org/2000/svg" xmlns:ev="http://www.w3.org/2001/xml-events" xmlns:xlink="http://www.w3.org/1999/xlink"><defs /><polyline fill="none" points="71.1593,16.0542 55.1051,8.678 39.9186,9.5458 22.5627,21.261 15.1864,28.6373 11.2814,36.0136 8.678,45.9932 8.678,57.7085 10.8475,71.5932 18.2237,84.1763 28.2034,96.3254 38.6169,105.8712 50.3322,112.8136 62.9153,117.5864 85.0441,119.322 94.5898,115.8508 104.1356,108.9085 111.9458,91.1186 112.3797,63.7831 108.9085,40.7864 103.2678,31.6746 95.0237,24.7322 79.4034,15.6203 61.1797,13.4508" stroke="#00007f" stroke-width="2" /><polyline fill="none" points="19.0915,28.2034 31.2407,46.4271 45.1254,52.9356 52.5017,53.3695 69.4237,52.9356 83.3085,47.7288 95.0237,37.7492 97.1932,35.1458 97.1932,32.9763" stroke="#0000fe" stroke-width="2" /><polyline fill="none" points="33.8441,101.9661 46.861,87.2136 52.0678,84.1763 58.5763,81.5729 73.7627,80.2712 82.0068,82.4407 94.1559,89.8169 99.7966,95.0237 105.0034,102.8339 104.5695,107.6068" stroke="#0060ff" stroke-width="2" /><polyline fill="none" points="32.5424,26.9017 23.4305,41.6542" stroke="#00d4ff" stroke-width="2" /><polyline fill="none" points="40.7864,33.4102 32.5424,53.8034" stroke="#4cffaa" stroke-width="2" /><polyline fill="none" points="52.5017,38.1831 45.5593,62.9153" stroke="#aaff4c" stroke-width="2" /><polyline fill="none" points="65.0847,41.2203 69.4237,62.9153" stroke="#ffe500" stroke-width="2" /><polyline fill="none" points="76.8,38.6169 89.3831,55.539" stroke="#ff7a00" stroke-width="2" /><polyline fill="none" points="95.4576,30.3729 101.5322,36.8814 107.1729,47.2949" stroke="#fe1200" stroke-width="2" /><polyline fill="none" points="43.8237,80.7051 55.1051,107.1729" stroke="#7f0000" stroke-width="2" /></svg>