<?xml version="1.0" encoding="utf-8" ?>
<svg baseProfile="tiny" height="128" version="1.2" viewBox="0,0,128,128" width="128" xmlns="http://www.w3.org/2000/svg" xmlns:ev="http://www.w3.org/2001/xml-events" xmlns:xlink="http://www.w3.org/1999/xlink"><defs /><polyline fill="none" points="96.7593,17.7898 89.8169,17.7898 84.1763,16.0542 40.3525,16.922 28.2034,25.1661 16.922,29.0712 13.8847,34.278 14.7525,39.4847 8.678,56.8407 8.678,75.0644 20.8271,95.4576 35.1458,102.8339 59.0102,111.078 105.8712,111.9458 118.0203,104.1356 117.1525,88.5153 119.322,80.2712 119.322,46.861 117.5864,39.9186 105.8712,16.922 89.8169,8.678" stroke="#00007f" stroke-width="2" /><polyline fill="none" points="40.3525,19.0915 44.6915,39.4847 44.6915,54.2373 44.6915,94.5898 40.3525,110.2102" stroke="#7cff79" stroke-width="2" /><polyline fill="none" points="92.8542,105.8712 88.5153,101.0983 84.6102,87.6475 82.4407,31.6746 83.3085,25.1661 85.478,22.9966" stroke="#7f0000" stroke-width="2" /></svg>