<?xml version="1.0" encoding="utf-8" ?>
<svg baseProfile="tiny" height="128" version="1.2" viewBox="0,0,128,128" width="128" xmlns="http://www.w3.org/2000/svg" xmlns:ev="http://www.w3.org/2001/xml-events" xmlns:xlink="http://www.w3.org/1999/xlink"><defs /><polyline fill="none" points="64.6508,18.2237 57.2746,15.1864 51.6339,15.6203 34.7119,24.2983 23.4305,35.1458 15.1864,50.3322 11.2814,62.0475 8.678,88.0814 11.2814,101.0983 18.2237,110.6441 30.3729,118.4542 44.2576,119.322 78.1017,110.6441 90.2508,103.7017 105.8712,84.1763 110.6441,67.2542 111.9458,47.7288 110.2102,37.3153 105.4373,25.6 96.3254,11.2814 91.5525,8.678 86.3458,9.1119 68.9898,13.8847 57.2746,19.5254" stroke="#00007f" stroke-width="2" /><polyline fill="none" points="45.1254,112.8136 45.1254,96.7593 47.7288,76.8 53.3695,63.3492 56.8407,59.0102 72.0271,46.861 92.4203,35.1458 98.9288,33.4102 112.8136,32.5424" stroke="#7cff79" stroke-width="2" /><polyline fill="none" points="53.8034,77.6678 49.8983,70.2915 49.8983,53.8034 47.7288,45.1254 38.1831,32.9763 25.6,22.5627" stroke="#7f0000" stroke-width="2" /></svg>