<?xml version="1.0" encoding="utf-8" ?>
<svg baseProfile="tiny" height="128" version="1.2" viewBox="0,0,128,128" width="128" xmlns="http://www.w3.org/2000/svg" xmlns:ev="http://www.w3.org/2001/xml-events" xmlns:xlink="http://www.w3.org/1999/xlink"><defs /><polyline fill="none" points="105.0034,22.1288 99.7966,16.4881 89.3831,11.2814 68.9898,9.1119 56.4068,11.2814 42.522,16.4881 34.278,21.261 22.9966,30.8068 13.0169,44.6915 9.1119,54.6712 8.678,65.0847 10.8475,74.1966 15.6203,82.0068 23.8644,90.2508 31.6746,94.1559 53.8034,98.9288 65.0847,99.3627 76.3661,97.6271 85.9119,94.5898 97.1932,88.5153 111.9458,75.4983 118.4542,61.6136 119.322,52.5017 118.0203,45.1254 114.1153,33.4102 111.5119,28.6373 98.061,19.5254" stroke="#00007f" stroke-width="2" /><polyline fill="none" points="64.2169,9.5458 58.5763,9.9797 50.7661,13.8847 43.3898,22.1288 41.6542,26.9017 43.8237,49.8983 42.522,61.1797 37.7492,72.0271 24.2983,91.1186" stroke="#7cff79" stroke-width="2" /><polyline fill="none" points="90.2508,8.678 82.4407,16.4881 77.6678,26.9017 77.6678,35.1458 82.0068,55.1051 82.0068,65.9525 76.3661,82.0068 69.4237,94.1559 66.3864,101.9661" stroke="#7f0000" stroke-width="2" /></svg>