<?xml version="1.0" encoding="utf-8" ?>
<svg baseProfile="tiny" height="128" version="1.2" viewBox="0,0,128,128" width="128" xmlns="http://www.w3.org/2000/svg" xmlns:ev="http://www.w3.org/2001/xml-events" xmlns:xlink="http://www.w3.org/1999/xlink"><defs /><polyline fill="none" points="58.5763,8.678 39.4847,8.678 27.7695,11.2814 21.6949,16.0542 16.0542,24.7322 13.0169,33.4102 8.678,52.9356 9.1119,78.9695 12.5831,88.5153 17.7898,95.8915 26.0339,101.5322 37.7492,107.1729 50.3322,109.3424 62.4814,108.9085 68.5559,106.739 81.139,101.0983 98.4949,90.2508 108.4746,81.139 117.1525,67.6881 119.322,51.6339 116.2847,45.9932 108.9085,38.1831 88.5153,22.1288 79.8373,17.3559 46.861,18.6576" stroke="#00007f" stroke-width="2" /><polyline fill="none" points="28.2034,9.1119 38.1831,29.0712 44.2576,48.1627 45.5593,80.2712 42.522,87.2136 30.8068,101.5322 23.4305,104.5695" stroke="#0080ff" stroke-width="2" /><polyline fill="none" points="75.4983,14.7525 72.8949,43.8237 73.3288,57.7085 82.4407,73.3288 96.3254,78.1017" stroke="#7cff79" stroke-width="2" /><polyline fill="none" points="78.9695,29.5051 69.8576,29.939 66.8203,34.278" stroke="#ff9400" stroke-width="2" /><polyline fill="none" points="68.5559,77.2339 78.1017,69.8576 86.7797,68.9898" stroke="#7f0000" stroke-width="2" /></svg>