<?xml version="1.0" encoding="utf-8" ?>
<svg baseProfile="tiny" height="128" version="1.2" viewBox="0,0,128,128" width="128" xmlns="http://www.w3.org/2000/svg" xmlns:ev="http://www.w3.org/2001/xml-events" xmlns:xlink="http://www.w3.org/1999/xlink"><defs /><polyline fill="none" points="57.2746,9.1119 45.5593,9.1119 36.4475,11.7153 23.4305,19.5254 16.4881,26.9017 11.7153,36.8814 8.678,48.1627 9.1119,72.8949 12.5831,84.1763 18.2237,94.5898 24.2983,102.8339 36.0136,111.9458 45.9932,116.2847 56.4068,118.8881 67.2542,119.322 79.8373,114.9831 95.4576,103.2678 101.9661,93.2881 106.739,78.5356 107.1729,63.7831 100.6644,49.0305 84.6102,27.7695 74.6305,18.6576 58.1424,8.678" stroke="#00007f" stroke-width="2" /><polyline fill="none" points="37.3153,9.9797 42.522,17.3559 46.4271,35.1458 47.2949,53.8034 45.9932,65.9525 41.2203,78.5356 36.0136,87.2136 26.4678,98.061 19.5254,99.7966" stroke="#7cff79" stroke-width="2" /><polyline fill="none" points="69.8576,17.3559 73.7627,26.4678 84.1763,79.8373 88.0814,91.5525 94.1559,99.7966 98.9288,102.4 108.9085,103.2678" stroke="#7f0000" stroke-width="2" /></svg>