<?xml version="1.0" encoding="utf-8" ?>
<svg baseProfile="tiny" height="128" version="1.2" viewBox="0,0,128,128" width="128" xmlns="http://www.w3.org/2000/svg" xmlns:ev="http://www.w3.org/2001/xml-events" xmlns:xlink="http://www.w3.org/1999/xlink"><defs /><polyline fill="none" points="70.2915,9.9797 66.3864,8.678 53.8034,9.1119 38.1831,16.922 26.9017,25.6 13.4508,41.2203 8.678,59.4441 8.678,79.8373 13.4508,98.4949 20.3932,108.4746 25.6,113.2475 31.2407,116.2847 46.861,119.322 69.4237,118.8881 76.3661,117.1525 88.0814,112.8136 96.3254,108.0407 103.2678,102.4 110.6441,87.6475 113.6814,77.2339 114.5492,56.8407 112.3797,49.0305 106.739,36.8814 94.5898,24.2983 84.1763,17.7898 73.7627,16.4881 71.1593,19.5254 68.9898,27.3356 68.5559,48.1627 70.7254,60.3119 74.1966,70.7254 76.8,76.3661 86.7797,85.478 104.1356,94.1559" stroke="#00007f" stroke-width="2" /><polyline fill="none" points="16.4881,39.4847 43.3898,52.9356 52.5017,62.4814 54.6712,66.8203 58.1424,80.7051 58.5763,98.9288 53.8034,108.0407 44.6915,118.0203" stroke="#7f0000" stroke-width="2" /></svg>