<?xml version="1.0" encoding="utf-8" ?>
<svg baseProfile="tiny" height="128" version="1.2" viewBox="0,0,128,128" width="128" xmlns="http://www.w3.org/2000/svg" xmlns:ev="http://www.w3.org/2001/xml-events" xmlns:xlink="http://www.w3.org/1999/xlink"><defs /><polyline fill="none" points="52.9356,13.8847 35.5797,15.6203 23.4305,20.3932 15.1864,28.2034 11.2814,36.4475 8.678,48.1627 9.9797,64.6508 16.0542,77.2339 24.7322,86.7797 38.6169,95.0237 54.2373,99.7966 72.0271,101.9661 88.0814,102.4 98.4949,100.6644 108.0407,97.6271 114.9831,91.5525 118.0203,83.3085 119.322,67.2542 117.5864,57.7085 111.078,42.0881 103.2678,32.9763 91.1186,24.7322 82.4407,20.3932 45.5593,8.678" stroke="#00007f" stroke-width="2" /><polyline fill="none" points="40.7864,12.1492 42.522,46.4271 42.522,71.1593 39.9186,82.0068 34.278,94.1559" stroke="#7cff79" stroke-width="2" /><polyline fill="none" points="86.7797,100.6644 79.8373,85.9119 78.1017,72.8949 78.9695,51.6339 86.3458,32.9763" stroke="#7f0000" stroke-width="2" /></svg>