<?xml version="1.0" encoding="utf-8" ?>
<svg baseProfile="tiny" height="128" version="1.2" viewBox="0,0,128,128" width="128" xmlns="http://www.w3.org/2000/svg" xmlns:ev="http://www.w3.org/2001/xml-events" xmlns:xlink="http://www.w3.org/1999/xlink"><defs /><polyline fill="none" points="46.861,16.0542 38.6169,16.0542 22.1288,24.7322 12.5831,35.5797 9.5458,45.5593 8.678,58.1424 14.7525,72.0271 30.8068,89.8169 39.0508,96.3254 42.9559,98.061 65.0847,98.4949 101.5322,97.1932 110.6441,91.5525 117.1525,83.3085 119.322,75.9322 119.322,39.0508 117.1525,30.3729 114.5492,26.0339 97.1932,17.3559 69.4237,8.678 56.4068,8.678 37.3153,17.3559" stroke="#00007f" stroke-width="2" /><polyline fill="none" points="18.2237,22.1288 31.2407,26.0339 38.1831,32.5424 45.1254,49.8983 57.2746,61.1797 64.2169,74.6305 69.8576,90.6847 71.5932,100.2305" stroke="#0080ff" stroke-width="2" /><polyline fill="none" points="68.9898,9.5458 80.2712,23.8644 85.9119,36.4475 88.9492,79.4034 90.6847,85.9119" stroke="#7cff79" stroke-width="2" /><polyline fill="none" points="52.5017,30.8068 48.5966,31.6746 44.6915,34.7119 36.4475,42.0881 34.278,45.9932" stroke="#ff9400" stroke-width="2" /><polyline fill="none" points="56.4068,55.539 39.4847,66.8203 37.3153,69.8576" stroke="#7f0000" stroke-width="2" /></svg>