<?xml version="1.0" encoding="utf-8" ?>
<svg baseProfile="tiny" height="128" version="1.2" viewBox="0,0,128,128" width="128" xmlns="http://www.w3.org/2000/svg" xmlns:ev="http://www.w3.org/2001/xml-events" xmlns:xlink="http://www.w3.org/1999/xlink"><defs /><polyline fill="none" points="79.4034,11.7153 58.1424,8.678 33.8441,8.678 24.2983,10.8475 16.922,14.3186 14.3186,16.922 8.678,32.1085 8.678,44.6915 11.2814,61.6136 13.8847,69.4237 17.7898,74.6305 26.0339,79.8373 37.3153,85.0441 69.4237,93.722 94.5898,95.4576 108.0407,87.6475 113.2475,79.8373 117.5864,68.5559 119.322,43.8237 115.8508,30.8068 109.7763,23.8644 96.3254,16.922 68.122,9.5458" stroke="#00007f" stroke-width="2" /><polyline fill="none" points="45.1254,11.2814 45.1254,11.2814" stroke="#0000e8" stroke-width="2" /><polyline fill="none" points="41.2203,24.2983 41.2203,24.2983" stroke="#0038ff" stroke-width="2" /><polyline fill="none" points="54.2373,9.5458 47.7288,21.261" stroke="#0094ff" stroke-width="2" /><polyline fill="none" points="44.2576,26.4678 39.0508,32.5424" stroke="#0cf4ea" stroke-width="2" /><polyline fill="none" points="32.1085,39.9186 27.7695,45.1254 19.0915,50.7661" stroke="#56ffa0" stroke-width="2" /><polyline fill="none" points="26.4678,78.1017 72.8949,72.0271" stroke="#a0ff56" stroke-width="2" /><polyline fill="none" points="81.139,68.9898 98.9288,81.5729" stroke="#eaff0c" stroke-width="2" /><polyline fill="none" points="98.4949,72.461 105.0034,78.5356 112.8136,82.8746" stroke="#ffaa00" stroke-width="2" /><polyline fill="none" points="88.9492,55.9729 92.4203,36.8814" stroke="#ff5500" stroke-width="2" /><polyline fill="none" points="106.3051,61.6136 115.4169,62.9153" stroke="#e80000" stroke-width="2" /><polyline fill="none" points="88.0814,29.939 84.1763,24.7322 81.139,16.922" stroke="#7f0000" stroke-width="2" /></svg>