<?xml version="1.0" encoding="utf-8" ?>
<svg baseProfile="tiny" height="128" version="1.2" viewBox="0,0,128,128" width="128" xmlns="http://www.w3.org/2000/svg" xmlns:ev="http://www.w3.org/2001/xml-events" xmlns:xlink="http://www.w3.org/1999/xlink"><defs /><polyline fill="none" points="54.8571,19.5918 47.0204,19.5918 39.619,21.3333 27.4286,27.4286 22.6395,37.0068 10.0136,54.8571 8.7075,63.5646 8.7075,76.6259 10.449,84.0272 18.7211,97.9592 32.2177,106.2313 70.5306,117.551 90.9932,119.2925 93.1701,118.4218 96.6531,98.3946 97.0884,73.5782 86.2041,36.5714 77.4966,23.0748 70.5306,15.6735 61.3878,8.7075 51.3741,9.1429 43.5374,15.2381 42.2313,20.4626" stroke="#00007f" stroke-width="2" /><polyline fill="none" points="30.0408,28.7347 32.2177,31.3469 39.1837,58.3401 39.619,84.4626 35.7007,94.4762 26.5578,99.2653 27.8639,93.1701" stroke="#7cff79" stroke-width="2" /><polyline fill="none" points="73.1429,22.6395 69.2245,22.6395 65.7415,25.2517 60.9524,36.5714 54.4218,44.8435" stroke="#7f0000" stroke-width="2" /></svg>