<?xml version="1.0" encoding="utf-8" ?>
<svg baseProfile="tiny" height="128" version="1.2" viewBox="0,0,128,128" width="128" xmlns="http://www.w3.org/2000/svg" xmlns:ev="http://www.w3.org/2001/xml-events" xmlns:xlink="http://www.w3.org/1999/xlink"><defs /><polyline fill="none" points="62.9153,14.3186 55.9729,9.9797 49.8983,9.1119 43.8237,12.1492 39.0508,16.0542 29.0712,26.0339 16.922,44.6915 10.8475,61.1797 8.678,82.8746 15.1864,101.0983 17.3559,104.1356 25.6,110.2102 36.0136,115.4169 52.0678,118.4542 60.7458,118.4542 69.8576,116.7186 94.5898,107.1729 104.1356,99.3627 109.3424,93.2881 119.322,60.7458 118.4542,47.7288 113.2475,35.1458 104.5695,22.9966 96.3254,16.4881 79.4034,9.1119 62.4814,8.678 56.4068,11.7153" stroke="#00007f" stroke-width="2" /><polyline fill="none" points="44.2576,32.9763 46.861,45.5593" stroke="#0000ff" stroke-width="2" /><polyline fill="none" points="43.3898,68.5559 43.3898,71.5932 37.3153,79.8373" stroke="#0080ff" stroke-width="2" /><polyline fill="none" points="32.1085,89.3831 30.3729,92.4203 26.0339,95.8915" stroke="#15ffe1" stroke-width="2" /><polyline fill="none" points="90.2508,37.3153 91.5525,37.3153" stroke="#7cff79" stroke-width="2" /><polyline fill="none" points="91.5525,42.522 88.9492,42.522 82.8746,48.1627 74.1966,62.9153" stroke="#e4ff12" stroke-width="2" /><polyline fill="none" points="72.461,73.3288 74.1966,81.5729" stroke="#ff9400" stroke-width="2" /><polyline fill="none" points="79.8373,103.7017 84.1763,110.6441" stroke="#ff1d00" stroke-width="2" /><polyline fill="none" points="101.5322,32.1085 90.2508,36.4475" stroke="#7f0000" stroke-width="2" /></svg>