<?xml version="1.0" encoding="utf-8" ?>
<svg baseProfile="tiny" height="128" version="1.2" viewBox="0,0,128,128" width="128" xmlns="http://www.w3.org/2000/svg" xmlns:ev="http://www.w3.org/2001/xml-events" xmlns:xlink="http://www.w3.org/1999/xlink"><defs /><polyline fill="none" points="41.2203,21.6949 34.7119,21.6949 30.3729,22.9966 16.922,35.1458 10.4136,49.0305 8.678,56.8407 8.678,74.6305 16.4881,92.4203 22.9966,100.6644 36.0136,111.5119 44.2576,114.5492 60.7458,115.8508 67.6881,113.2475 78.5356,102.8339 82.4407,95.8915 85.0441,86.3458 85.478,65.0847 76.8,42.0881 71.1593,31.6746 64.2169,22.9966 55.9729,15.1864 47.7288,9.9797 37.3153,8.678" stroke="#00007f" stroke-width="2" /><polyline fill="none" points="28.2034,21.261 42.522,54.2373 45.5593,66.8203 45.9932,80.7051 40.3525,98.061 35.1458,107.6068 27.7695,116.7186" stroke="#7cff79" stroke-width="2" /><polyline fill="none" points="56.4068,22.5627 52.0678,29.939 49.0305,42.522 49.4644,71.1593 55.9729,92.4203 63.7831,109.3424 70.7254,117.1525 77.6678,119.322" stroke="#7f0000" stroke-width="2" /></svg>