<?xml version="1.0" encoding="utf-8" ?>
<svg baseProfile="tiny" height="128" version="1.2" viewBox="0,0,128,128" width="128" xmlns="http://www.w3.org/2000/svg" xmlns:ev="http://www.w3.org/2001/xml-events" xmlns:xlink="http://www.w3.org/1999/xlink"><defs /><polyline fill="none" points="30.3729,118.4542 30.3729,118.4542" stroke="#00007f" stroke-width="2" /><polyline fill="none" points="22.5627,74.1966 26.9017,66.8203 31.2407,63.7831 40.3525,64.6508 49.8983,72.8949 55.1051,84.6102 57.2746,93.722 56.8407,100.2305 50.7661,111.5119 43.3898,117.1525 35.1458,119.322 26.9017,119.322 22.5627,117.1525 17.7898,111.5119 14.3186,98.061 15.6203,78.5356 19.0915,72.0271 31.2407,62.4814" stroke="#0000d1" stroke-width="2" /><polyline fill="none" points="31.6746,65.9525 33.4102,66.3864 32.5424,115.8508" stroke="#0010ff" stroke-width="2" /><polyline fill="none" points="51.6339,76.8 51.2,75.4983 42.9559,79.4034 31.6746,81.5729 22.1288,81.5729 15.6203,79.8373" stroke="#0058ff" stroke-width="2" /><polyline fill="none" points="55.1051,90.2508 12.1492,94.5898" stroke="#00a4ff" stroke-width="2" /><polyline fill="none" points="59.0102,99.3627 48.5966,96.7593 35.1458,96.7593 27.3356,98.9288 14.7525,106.739" stroke="#05ecf1" stroke-width="2" /><polyline fill="none" points="31.2407,10.8475 39.0508,8.678 46.4271,8.678 50.7661,9.9797 52.9356,12.5831 54.6712,23.8644 49.8983,30.3729 44.6915,32.9763 34.7119,34.7119 27.3356,33.8441 12.5831,25.6 8.678,21.261 9.5458,18.2237 16.0542,13.4508 22.5627,10.8475 36.8814,8.678" stroke="#3fffb7" stroke-width="2" /><polyline fill="none" points="29.5051,20.3932 29.5051,19.5254 41.6542,18.6576 44.2576,21.261 42.9559,24.2983 31.2407,26.4678 22.5627,24.7322 21.261,23.4305 23.8644,20.8271 34.7119,19.0915" stroke="#7cff79" stroke-width="2" /><polyline fill="none" points="45.1254,22.9966 42.9559,41.6542" stroke="#b7ff3f" stroke-width="2" /><polyline fill="none" points="22.9966,23.8644 22.5627,42.9559" stroke="#f1fc05" stroke-width="2" /><polyline fill="none" points="42.522,41.2203 22.9966,42.0881" stroke="#ffb900" stroke-width="2" /><polyline fill="none" points="47.7288,32.1085 37.7492,34.7119 22.9966,36.4475" stroke="#ff7300" stroke-width="2" /><polyline fill="none" points="44.6915,29.5051 21.6949,28.6373" stroke="#ff3000" stroke-width="2" /><polyline fill="none" points="27.3356,26.0339 26.4678,44.6915" stroke="#d10000" stroke-width="2" /><polyline fill="none" points="36.4475,26.0339 36.0136,44.6915" stroke="#7f0000" stroke-width="2" /></svg>