<?xml version="1.0" encoding="utf-8" ?>
<svg baseProfile="tiny" height="128" version="1.2" viewBox="0,0,128,128" width="128" xmlns="http://www.w3.org/2000/svg" xmlns:ev="http://www.w3.org/2001/xml-events" xmlns:xlink="http://www.w3.org/1999/xlink"><defs /><polyline fill="none" points="112.3797,35.1458 98.061,18.2237 83.7424,10.8475 72.8949,8.678 52.9356,8.678 29.5051,20.3932 23.4305,25.6 13.4508,48.1627 8.678,65.9525 9.5458,97.1932 12.5831,103.7017 21.261,111.5119 29.5051,113.2475 54.2373,115.4169 67.2542,115.4169 105.4373,103.2678 115.4169,91.5525 119.322,75.9322 119.322,38.6169 111.5119,30.3729" stroke="#00007f" stroke-width="2" /><polyline fill="none" points="107.6068,27.3356 102.4,28.6373 97.6271,33.4102 89.8169,43.8237 85.9119,52.9356 80.7051,72.0271 82.8746,96.7593 84.6102,101.5322" stroke="#7cff79" stroke-width="2" /><polyline fill="none" points="23.4305,19.5254 28.2034,22.5627 31.2407,29.5051 37.3153,59.0102 33.4102,101.0983 25.6,107.6068" stroke="#7f0000" stroke-width="2" /></svg>