<?xml version="1.0" encoding="utf-8" ?>
<svg baseProfile="tiny" height="128" version="1.2" viewBox="0,0,128,128" width="128" xmlns="http://www.w3.org/2000/svg" xmlns:ev="http://www.w3.org/2001/xml-events" xmlns:xlink="http://www.w3.org/1999/xlink"><defs /><polyline fill="none" points="59.878,8.678 28.6373,13.8847 19.0915,18.6576 15.1864,25.6 9.5458,51.2 8.678,68.9898 10.4136,77.6678 16.4881,94.1559 28.2034,112.3797 35.5797,117.1525 44.2576,119.322 51.6339,119.322 62.9153,115.4169 82.4407,104.1356 105.8712,86.3458 114.9831,74.6305 118.4542,57.7085 118.4542,40.3525 118.0203,35.1458 113.2475,27.3356 107.6068,23.8644 69.8576,18.2237" stroke="#00007f" stroke-width="2" /><polyline fill="none" points="107.6068,26.9017 87.2136,38.1831 77.6678,56.4068 76.3661,81.5729 78.1017,92.4203 83.7424,100.2305" stroke="#00d4ff" stroke-width="2" /><polyline fill="none" points="28.6373,13.4508 38.1831,19.0915 40.7864,22.9966 43.8237,48.5966 43.8237,74.6305 42.9559,79.4034 40.3525,85.478 35.1458,90.6847 32.1085,91.9864" stroke="#ffe500" stroke-width="2" /><polyline fill="none" points="24.2983,91.1186 22.9966,92.4203" stroke="#7f0000" stroke-width="2" /></svg>