<?xml version="1.0" encoding="utf-8" ?>
<svg baseProfile="tiny" height="128" version="1.2" viewBox="0,0,128,128" width="128" xmlns="http://www.w3.org/2000/svg" xmlns:ev="http://www.w3.org/2001/xml-events" xmlns:xlink="http://www.w3.org/1999/xlink"><defs /><polyline fill="none" points="88.0814,10.8475 80.7051,9.1119 59.878,10.8475 43.8237,16.4881 28.2034,27.7695 22.5627,35.1458 12.1492,55.539 8.678,69.8576 8.678,78.9695 13.8847,95.8915 20.8271,102.8339 29.939,108.0407 45.5593,111.9458 68.122,111.9458 78.5356,110.2102 88.0814,106.739 96.3254,101.0983 108.4746,90.2508 116.2847,76.8 119.322,60.7458 118.8881,51.2 114.9831,40.7864 109.7763,31.2407 103.7017,22.9966 94.5898,13.8847 84.6102,10.4136 74.6305,8.678" stroke="#00007f" stroke-width="2" /><polyline fill="none" points="50.3322,20.8271 50.7661,17.7898 55.1051,39.9186 55.1051,69.8576 52.0678,89.3831 46.861,100.6644 40.3525,108.0407 28.6373,117.1525 25.1661,117.5864 23.4305,116.7186" stroke="#0080ff" stroke-width="2" /><polyline fill="none" points="84.6102,17.3559 84.6102,27.3356 78.5356,83.7424 78.9695,99.7966 81.139,108.0407 85.0441,112.8136 93.2881,115.4169 101.9661,112.8136" stroke="#7cff79" stroke-width="2" /><polyline fill="none" points="71.5932,46.4271 99.7966,48.1627" stroke="#ff9400" stroke-width="2" /><polyline fill="none" points="62.4814,79.4034 68.9898,77.6678 85.0441,77.2339 94.1559,74.1966" stroke="#7f0000" stroke-width="2" /></svg>