<?xml version="1.0" encoding="utf-8" ?>
<svg baseProfile="tiny" height="128" version="1.2" viewBox="0,0,128,128" width="128" xmlns="http://www.w3.org/2000/svg" xmlns:ev="http://www.w3.org/2001/xml-events" xmlns:xlink="http://www.w3.org/1999/xlink"><defs /><polyline fill="none" points="8.678,48.1627 9.5458,36.4475 13.4508,29.939 18.6576,25.1661 36.8814,12.1492 52.9356,8.678 70.2915,12.1492 86.3458,26.9017 95.4576,37.7492 103.2678,58.5763 103.7017,80.7051 101.0983,91.5525 97.6271,99.7966 90.2508,106.739 72.8949,116.2847 53.3695,119.322 43.3898,118.0203 37.7492,114.9831 23.4305,101.9661 19.0915,89.3831 16.4881,47.7288" stroke="#00007f" stroke-width="2" /><polyline fill="none" points="17.3559,29.939 22.5627,33.4102 34.278,51.2 44.6915,90.2508 45.1254,102.8339 42.9559,110.2102 41.6542,108.4746" stroke="#0028ff" stroke-width="2" /><polyline fill="none" points="88.5153,29.939 84.6102,33.8441 75.0644,57.2746 73.7627,86.3458 78.1017,112.8136 80.2712,117.1525 82.4407,117.1525" stroke="#00d4ff" stroke-width="2" /><polyline fill="none" points="87.2136,52.9356 72.0271,52.5017 66.3864,51.2 65.0847,49.0305" stroke="#7cff79" stroke-width="2" /><polyline fill="none" points="83.7424,39.9186 70.2915,39.4847" stroke="#ffe500" stroke-width="2" /><polyline fill="none" points="81.5729,85.0441 64.2169,93.722 59.878,97.6271" stroke="#ff4600" stroke-width="2" /><polyline fill="none" points="41.2203,39.0508 41.2203,39.0508" stroke="#7f0000" stroke-width="2" /></svg>