<?xml version="1.0" encoding="utf-8" ?>
<svg baseProfile="tiny" height="128" version="1.2" viewBox="0,0,128,128" width="128" xmlns="http://www.w3.org/2000/svg" xmlns:ev="http://www.w3.org/2001/xml-events" xmlns:xlink="http://www.w3.org/1999/xlink"><defs /><polyline fill="none" points="74.6305,11.7153 60.3119,10.8475 52.5017,12.5831 44.2576,16.4881 34.278,24.7322 22.5627,38.6169 15.1864,48.5966 9.9797,61.1797 8.678,76.3661 12.1492,88.5153 16.922,96.7593 25.1661,105.0034 33.4102,109.7763 48.1627,112.3797 65.5186,109.7763 83.3085,103.7017 97.1932,96.3254 106.3051,88.5153 111.5119,81.139 114.1153,71.1593 114.1153,61.6136 108.0407,39.9186 102.4,27.7695 95.4576,17.3559 88.0814,13.0169 74.6305,9.5458 50.7661,8.678 47.7288,9.1119 46.861,10.8475" stroke="#00007f" stroke-width="2" /><polyline fill="none" points="21.6949,33.8441 24.7322,35.5797 39.0508,52.5017 45.1254,62.9153 46.861,69.4237 47.7288,83.7424 43.3898,96.3254 33.8441,109.7763 24.2983,118.4542 22.5627,119.322 22.1288,117.1525 28.2034,111.078 36.4475,106.3051" stroke="#7cff79" stroke-width="2" /><polyline fill="none" points="97.6271,20.8271 89.3831,27.7695 84.6102,35.1458 80.2712,46.861 80.2712,58.5763 84.6102,70.7254 90.2508,79.8373 95.4576,85.478 104.5695,91.9864" stroke="#7f0000" stroke-width="2" /></svg>