<?xml version="1.0" encoding="utf-8" ?>
<svg baseProfile="tiny" height="128" version="1.2" viewBox="0,0,128,128" width="128" xmlns="http://www.w3.org/2000/svg" xmlns:ev="http://www.w3.org/2001/xml-events" xmlns:xlink="http://www.w3.org/1999/xlink"><defs /><polyline fill="none" points="85.0441,15.1864 82.4407,14.3186 68.9898,14.3186 53.3695,17.3559 45.9932,20.8271 29.939,31.2407 17.3559,47.7288 10.8475,64.2169 8.678,80.2712 9.1119,95.0237 10.8475,99.7966 16.4881,108.0407 21.261,111.5119 26.4678,113.2475 37.7492,113.6814 50.7661,109.3424 90.2508,88.0814 96.3254,83.3085 99.7966,77.6678 101.9661,70.7254 101.9661,62.4814 100.6644,54.6712 95.4576,42.9559 74.6305,15.6203 67.2542,12.5831" stroke="#00007f" stroke-width="2" /><polyline fill="none" points="71.5932,8.678 66.3864,14.7525 58.1424,35.5797 57.2746,45.9932 59.0102,53.3695 72.0271,70.2915 82.4407,78.5356 91.1186,82.8746 95.8915,82.4407 99.7966,80.2712" stroke="#0000ff" stroke-width="2" /><polyline fill="none" points="35.1458,19.5254 33.4102,36.0136 36.0136,73.7627 30.3729,111.078 27.3356,117.5864 22.1288,119.322 16.0542,114.5492 10.8475,107.6068 11.7153,106.3051" stroke="#0080ff" stroke-width="2" /><polyline fill="none" points="24.2983,54.2373 44.2576,38.6169 45.1254,36.8814 40.3525,38.1831" stroke="#15ffe1" stroke-width="2" /><polyline fill="none" points="36.4475,54.6712 45.9932,64.2169" stroke="#7cff79" stroke-width="2" /><polyline fill="none" points="28.2034,67.6881 38.1831,79.8373 40.3525,85.478" stroke="#e4ff12" stroke-width="2" /><polyline fill="none" points="29.5051,82.0068 46.861,100.6644 42.9559,101.5322 28.6373,92.4203" stroke="#ff9400" stroke-width="2" /><polyline fill="none" points="26.4678,90.6847 31.2407,99.3627 40.7864,106.3051" stroke="#ff1d00" stroke-width="2" /><polyline fill="none" points="86.7797,60.3119 86.7797,60.3119" stroke="#7f0000" stroke-width="2" /></svg>