<?xml version="1.0" encoding="utf-8" ?>
<svg baseProfile="tiny" height="128" version="1.2" viewBox="0,0,128,128" width="128" xmlns="http://www.w3.org/2000/svg" xmlns:ev="http://www.w3.org/2001/xml-events" xmlns:xlink="http://www.w3.org/1999/xlink"><defs /><polyline fill="none" points="78.5356,8.678 65.5186,8.678 41.2203,11.7153 25.1661,15.6203 21.6949,17.7898 16.0542,28.2034 9.5458,50.7661 8.678,82.0068 15.6203,98.061 19.9593,104.1356 31.6746,113.6814 40.7864,116.7186 65.0847,119.322 77.6678,115.4169 89.8169,108.0407 97.6271,101.9661 110.2102,83.3085 113.2475,71.5932 112.3797,55.9729 106.3051,45.1254 98.061,37.3153 82.0068,19.0915 77.2339,15.6203 71.5932,13.0169" stroke="#00007f" stroke-width="2" /><polyline fill="none" points="72.8949,13.0169 68.9898,23.4305 61.6136,33.8441 55.539,48.5966 54.2373,64.2169 54.2373,77.6678 60.7458,95.4576 66.8203,106.3051 72.8949,111.078" stroke="#00d4ff" stroke-width="2" /><polyline fill="none" points="21.6949,20.8271 32.1085,44.2576 32.9763,49.8983 32.9763,94.5898 27.7695,108.0407" stroke="#ffe500" stroke-width="2" /><polyline fill="none" points="19.9593,72.461 35.5797,64.6508 51.2,58.5763 72.8949,58.5763 85.478,61.1797 104.1356,66.8203" stroke="#7f0000" stroke-width="2" /></svg>