<?xml version="1.0" encoding="utf-8" ?>
<svg baseProfile="tiny" height="128" version="1.2" viewBox="0,0,128,128" width="128" xmlns="http://www.w3.org/2000/svg" xmlns:ev="http://www.w3.org/2001/xml-events" xmlns:xlink="http://www.w3.org/1999/xlink"><defs /><polyline fill="none" points="57.7085,22.5627 48.5966,22.5627 41.6542,24.7322 23.8644,40.3525 16.0542,50.3322 11.7153,59.4441 9.1119,68.5559 8.678,77.6678 9.9797,86.7797 14.7525,95.8915 20.8271,104.5695 28.6373,111.078 37.7492,115.4169 46.861,116.2847 55.539,116.2847 65.0847,111.5119 75.0644,102.8339 93.2881,77.2339 107.1729,53.3695 111.078,44.2576 112.8136,36.4475 111.5119,28.2034 105.4373,20.8271 91.1186,10.4136 85.0441,8.678 79.4034,8.678 70.2915,13.4508 67.2542,16.4881" stroke="#00007f" stroke-width="2" /><polyline fill="none" points="70.2915,18.6576 68.9898,29.0712 63.3492,43.8237 45.5593,81.139 34.278,96.3254 25.6,100.2305" stroke="#7cff79" stroke-width="2" /><polyline fill="none" points="88.0814,22.5627 87.2136,33.8441 73.7627,70.7254 68.5559,96.7593 68.5559,106.739 70.7254,110.6441 76.8,115.8508 87.2136,119.322" stroke="#7f0000" stroke-width="2" /></svg>