<?xml version="1.0" encoding="utf-8" ?>
<svg baseProfile="tiny" height="128" version="1.2" viewBox="0,0,128,128" width="128" xmlns="http://www.w3.org/2000/svg" xmlns:ev="http://www.w3.org/2001/xml-events" xmlns:xlink="http://www.w3.org/1999/xlink"><defs /><polyline fill="none" points="67.9184,13.4966 64.8707,12.1905 53.9864,12.1905 44.4082,14.8027 30.0408,24.381 21.3333,32.6531 13.932,43.9728 9.1429,59.6463 8.7075,74.449 15.2381,87.5102 21.3333,94.4762 29.6054,99.2653 38.7483,102.3129 54.4218,104.4898 73.1429,104.0544 90.5578,98.3946 101.0068,92.2993 110.585,83.1565 116.2449,74.0136 119.2925,64.0 119.2925,49.6327 117.9864,44.4082 111.8912,35.7007 100.1361,23.9456 90.5578,16.9796 75.7551,9.5782 70.0952,8.7075" stroke="#00007f" stroke-width="2" /><polyline fill="none" points="25.2517,23.9456 34.3946,35.2653 42.2313,42.2313 49.1973,44.4082 61.8231,45.2789 70.0952,43.102 77.4966,38.7483 95.3469,19.1565" stroke="#7cff79" stroke-width="2" /><polyline fill="none" points="41.7959,92.2993 46.1497,84.898 56.1633,76.1905 74.449,72.2721 95.7823,72.7075 103.1837,77.0612 114.5034,87.9456" stroke="#7f0000" stroke-width="2" /></svg>