<?xml version="1.0" encoding="utf-8" ?>
<svg baseProfile="tiny" height="128" version="1.2" viewBox="0,0,128,128" width="128" xmlns="http://www.w3.org/2000/svg" xmlns:ev="http://www.w3.org/2001/xml-events" xmlns:xlink="http://www.w3.org/1999/xlink"><defs /><polyline fill="none" points="64.2169,9.5458 43.3898,8.678 22.9966,22.1288 10.8475,36.8814 8.678,45.5593 8.678,57.7085 20.8271,79.8373 35.1458,94.1559 39.4847,95.8915 83.3085,95.0237 105.0034,87.2136 113.6814,80.2712 118.0203,72.0271 119.322,56.8407 111.9458,44.2576 95.4576,24.7322 80.2712,16.0542 72.8949,14.3186 69.4237,12.1492 57.2746,10.8475" stroke="#00007f" stroke-width="2" /><polyline fill="none" points="59.878,9.9797 48.5966,17.7898 45.9932,22.9966 46.4271,36.0136 58.5763,46.4271 67.2542,56.8407 70.7254,65.0847 72.0271,78.5356 70.7254,83.3085 66.3864,86.3458 54.6712,87.2136 51.6339,85.9119" stroke="#004cff" stroke-width="2" /><polyline fill="none" points="41.6542,23.8644 55.9729,22.9966 57.2746,25.6" stroke="#29ffcd" stroke-width="2" /><polyline fill="none" points="42.0881,39.4847 51.2,38.6169 66.8203,33.8441 68.122,35.1458" stroke="#cdff29" stroke-width="2" /><polyline fill="none" points="59.4441,59.4441 72.8949,63.7831 78.5356,67.2542" stroke="#ff6700" stroke-width="2" /><polyline fill="none" points="65.9525,71.5932 77.2339,83.7424" stroke="#7f0000" stroke-width="2" /></svg>