<?xml version="1.0" encoding="utf-8" ?>
<svg baseProfile="tiny" height="128" version="1.2" viewBox="0,0,128,128" width="128" xmlns="http://www.w3.org/2000/svg" xmlns:ev="http://www.w3.org/2001/xml-events" xmlns:xlink="http://www.w3.org/1999/xlink"><defs /><polyline fill="none" points="44.2576,19.9593 49.4644,12.1492 55.1051,8.678 61.1797,9.1119 62.0475,10.8475 61.1797,14.3186 48.1627,23.8644 26.0339,44.2576 10.8475,52.9356 11.2814,49.0305 20.8271,38.1831 37.3153,27.7695 43.8237,22.5627 44.6915,20.3932" stroke="#00007f" stroke-width="2" /><polyline fill="none" points="8.678,48.5966 9.1119,53.8034 10.4136,56.4068 12.1492,53.3695 12.5831,49.0305 10.8475,47.7288 9.1119,49.0305 9.5458,52.5017 12.1492,57.2746 14.7525,57.7085 15.1864,54.2373 12.1492,49.8983 9.5458,49.0305 9.5458,50.3322 11.7153,50.7661" stroke="#004cff" stroke-width="2" /><polyline fill="none" points="51.2,11.2814 45.1254,18.6576 28.2034,31.2407 22.1288,38.1831 16.922,48.1627" stroke="#29ffcd" stroke-width="2" /><polyline fill="none" points="75.4983,25.1661 70.2915,25.6 63.7831,29.939 65.5186,32.1085 74.6305,32.1085 77.2339,29.939 76.8,24.7322 71.1593,24.7322 66.8203,28.2034" stroke="#cdff29" stroke-width="2" /><polyline fill="none" points="62.0475,39.9186 67.2542,41.2203 106.3051,42.522" stroke="#ff6700" stroke-width="2" /><polyline fill="none" points="102.4,37.3153 119.322,45.5593 90.6847,53.8034" stroke="#7f0000" stroke-width="2" /></svg>