<?xml version="1.0" encoding="utf-8" ?>
<svg baseProfile="tiny" height="128" version="1.2" viewBox="0,0,128,128" width="128" xmlns="http://www.w3.org/2000/svg" xmlns:ev="http://www.w3.org/2001/xml-events" xmlns:xlink="http://www.w3.org/1999/xlink"><defs /><polyline fill="none" points="45.1254,36.8814 49.4644,32.5424 57.7085,28.2034 76.8,27.3356 86.7797,30.3729 94.1559,36.4475 97.6271,44.2576 98.061,59.4441 93.722,66.3864 85.478,71.1593 71.1593,73.7627 62.0475,72.461 56.4068,68.122 44.6915,55.1051 38.6169,43.8237 37.7492,38.6169 40.7864,36.0136 52.0678,30.8068" stroke="#00007f" stroke-width="2" /><polyline fill="none" points="71.5932,27.3356 61.1797,40.3525 58.5763,48.1627 60.3119,57.2746 66.3864,64.6508 69.4237,66.3864" stroke="#00d4ff" stroke-width="2" /><polyline fill="none" points="79.8373,27.3356 79.8373,30.8068 71.5932,51.2 70.7254,56.4068 71.5932,62.0475 79.8373,65.9525" stroke="#ffe500" stroke-width="2" /><polyline fill="none" points="8.678,8.678 10.4136,16.922 19.5254,40.7864 22.1288,52.9356 23.4305,66.3864 23.4305,113.2475 24.2983,119.322 25.6,116.7186 24.7322,114.9831" stroke="#7f0000" stroke-width="2" /></svg>