<?xml version="1.0" encoding="utf-8" ?>
<svg baseProfile="tiny" height="128" version="1.2" viewBox="0,0,128,128" width="128" xmlns="http://www.w3.org/2000/svg" xmlns:ev="http://www.w3.org/2001/xml-events" xmlns:xlink="http://www.w3.org/1999/xlink"><defs /><polyline fill="none" points="47.2949,9.1119 41.2203,8.678 34.7119,10.4136 22.5627,19.0915 13.4508,36.0136 9.5458,55.539 8.678,64.6508 8.678,73.7627 10.8475,87.2136 14.7525,96.7593 19.5254,104.5695 22.5627,108.4746 33.4102,115.8508 45.5593,119.322 60.7458,117.5864 67.6881,115.4169 82.4407,101.9661 96.7593,80.2712 100.2305,67.6881 101.0983,57.2746 97.6271,43.8237 92.8542,37.3153 85.9119,30.8068 57.7085,13.4508 37.7492,9.1119" stroke="#00007f" stroke-width="2" /><polyline fill="none" points="54.6712,16.0542 57.2746,38.6169 64.6508,60.7458 71.1593,72.0271 77.2339,78.5356 85.9119,84.6102 93.722,87.2136" stroke="#7cff79" stroke-width="2" /><polyline fill="none" points="13.0169,64.6508 15.1864,63.3492 19.0915,63.7831 29.5051,67.6881 39.0508,72.8949 50.7661,83.3085 63.3492,101.5322 65.0847,110.2102 64.2169,117.1525" stroke="#7f0000" stroke-width="2" /></svg>