<?xml version="1.0" encoding="utf-8" ?>
<svg baseProfile="tiny" height="128" version="1.2" viewBox="0,0,128,128" width="128" xmlns="http://www.w3.org/2000/svg" xmlns:ev="http://www.w3.org/2001/xml-events" xmlns:xlink="http://www.w3.org/1999/xlink"><defs /><polyline fill="none" points="69.4237,18.2237 55.9729,9.9797 42.9559,8.678 36.0136,9.5458 29.5051,13.8847 21.6949,21.6949 11.7153,37.7492 9.1119,44.6915 8.678,52.0678 9.9797,60.7458 16.0542,69.4237 24.2983,77.2339 34.278,82.4407 52.9356,83.7424 70.7254,73.3288 82.4407,59.0102 85.478,45.1254 85.478,38.6169 82.8746,32.1085 74.1966,19.0915 71.1593,16.922 64.6508,15.6203" stroke="#00007f" stroke-width="2" /><polyline fill="none" points="63.3492,65.0847 60.7458,64.6508 56.4068,51.6339 56.4068,38.6169 60.3119,20.3932 62.9153,13.8847 67.2542,9.1119" stroke="#00d4ff" stroke-width="2" /><polyline fill="none" points="31.2407,10.4136 31.6746,15.6203 34.7119,20.8271 35.1458,34.278 32.1085,41.6542 27.3356,65.9525 23.8644,67.2542" stroke="#ffe500" stroke-width="2" /><polyline fill="none" points="77.2339,104.5695 92.8542,65.0847 100.6644,51.2 108.0407,42.522 111.9458,39.9186 117.5864,39.4847 119.322,44.6915 119.322,52.0678 113.6814,69.8576 102.8339,91.5525 95.8915,98.9288 89.3831,102.8339 77.2339,106.739 76.8,109.3424" stroke="#7f0000" stroke-width="2" /></svg>