<?xml version="1.0" encoding="utf-8" ?>
<svg baseProfile="tiny" height="128" version="1.2" viewBox="0,0,128,128" width="128" xmlns="http://www.w3.org/2000/svg" xmlns:ev="http://www.w3.org/2001/xml-events" xmlns:xlink="http://www.w3.org/1999/xlink"><defs /><polyline fill="none" points="59.878,10.4136 49.0305,13.0169 35.1458,20.8271 20.3932,34.278 10.4136,49.4644 8.678,66.3864 12.1492,83.7424 19.5254,97.6271 29.0712,104.5695 42.9559,106.739 60.7458,105.8712 91.5525,93.722 103.7017,85.478 113.2475,76.3661 118.4542,66.3864 119.322,57.2746 117.5864,48.1627 114.1153,41.2203 106.739,34.7119 97.6271,29.939 88.5153,28.2034" stroke="#00007f" stroke-width="2" /><polyline fill="none" points="53.3695,9.1119 86.3458,15.1864 94.5898,20.8271 101.5322,28.6373 105.0034,36.0136" stroke="#0010ff" stroke-width="2" /><polyline fill="none" points="68.5559,8.678 41.6542,29.5051 34.7119,37.7492 29.0712,45.1254 13.8847,73.7627 9.9797,86.7797" stroke="#00a4ff" stroke-width="2" /><polyline fill="none" points="35.1458,23.4305 51.6339,31.2407" stroke="#3fffb7" stroke-width="2" /><polyline fill="none" points="26.9017,44.6915 35.1458,49.4644" stroke="#b7ff3f" stroke-width="2" /><polyline fill="none" points="14.3186,59.878 16.0542,62.0475 26.9017,68.122" stroke="#ffb900" stroke-width="2" /><polyline fill="none" points="98.061,29.5051 93.722,42.9559 69.4237,86.3458 64.6508,101.0983 63.3492,112.8136" stroke="#ff3000" stroke-width="2" /><polyline fill="none" points="67.2542,50.7661 80.2712,54.6712 97.1932,55.9729" stroke="#7f0000" stroke-width="2" /></svg>