<?xml version="1.0" encoding="utf-8" ?>
<svg baseProfile="tiny" height="128" version="1.2" viewBox="0,0,128,128" width="128" xmlns="http://www.w3.org/2000/svg" xmlns:ev="http://www.w3.org/2001/xml-events" xmlns:xlink="http://www.w3.org/1999/xlink"><defs /><polyline fill="none" points="98.9288,18.6576 96.3254,15.1864 86.3458,10.8475 72.8949,8.678 55.1051,8.678 40.3525,12.1492 30.3729,17.3559 18.2237,28.2034 13.4508,34.278 9.1119,49.4644 8.678,65.5186 10.8475,72.0271 16.0542,77.6678 26.0339,85.478 37.7492,91.9864 53.3695,96.3254 83.7424,96.3254 95.4576,92.8542 105.8712,85.9119 110.2102,81.5729 118.0203,66.8203 119.322,49.4644 115.8508,40.7864 100.6644,25.6 89.3831,17.3559 85.9119,17.3559" stroke="#00007f" stroke-width="2" /><polyline fill="none" points="61.6136,10.4136 59.878,9.5458 53.8034,14.3186 45.5593,23.4305 42.9559,28.2034 37.3153,49.4644 37.3153,59.4441 39.9186,72.461 49.0305,91.5525 52.9356,96.7593 54.2373,96.3254" stroke="#0010ff" stroke-width="2" /><polyline fill="none" points="71.5932,11.2814 79.8373,22.5627 83.3085,32.9763 86.7797,82.0068 85.0441,91.5525 81.5729,92.8542" stroke="#00a4ff" stroke-width="2" /><polyline fill="none" points="35.5797,41.6542 45.9932,38.1831" stroke="#3fffb7" stroke-width="2" /><polyline fill="none" points="39.9186,56.4068 49.8983,56.4068" stroke="#b7ff3f" stroke-width="2" /><polyline fill="none" points="39.0508,73.7627 40.7864,75.0644 47.2949,76.3661" stroke="#ffb900" stroke-width="2" /><polyline fill="none" points="44.6915,88.0814 58.1424,87.6475" stroke="#ff3000" stroke-width="2" /><polyline fill="none" points="80.7051,56.4068 98.4949,56.8407" stroke="#7f0000" stroke-width="2" /></svg>