<?xml version="1.0" encoding="utf-8" ?>
<svg baseProfile="tiny" height="128" version="1.2" viewBox="0,0,128,128" width="128" xmlns="http://www.w3.org/2000/svg" xmlns:ev="http://www.w3.org/2001/xml-events" xmlns:xlink="http://www.w3.org/1999/xlink"><defs /><polyline fill="none" points="82.8746,20.8271 75.9322,13.0169 69.4237,9.5458 55.9729,8.678 43.3898,11.2814 31.2407,18.6576 25.6,23.4305 20.3932,29.939 13.0169,45.1254 9.1119,59.4441 8.678,78.9695 10.8475,85.0441 17.3559,94.5898 36.4475,110.6441 46.4271,116.7186 57.7085,119.322 68.9898,118.8881 74.1966,116.7186 90.6847,108.0407 95.0237,100.6644 98.061,86.3458 99.3627,59.4441 98.061,47.7288 92.4203,26.9017 84.6102,15.6203" stroke="#00007f" stroke-width="2" /><polyline fill="none" points="32.5424,21.261 40.3525,24.7322 46.861,32.1085 50.7661,49.0305 50.7661,61.1797 45.9932,79.8373 31.2407,110.6441" stroke="#00d4ff" stroke-width="2" /><polyline fill="none" points="81.5729,18.2237 75.9322,30.8068 70.2915,49.4644 68.122,63.7831 68.122,75.0644 69.8576,80.2712 73.7627,86.7797 85.0441,99.3627 91.1186,104.1356" stroke="#ffe500" stroke-width="2" /><polyline fill="none" points="36.8814,36.8814 52.5017,25.6" stroke="#7f0000" stroke-width="2" /></svg>