<?xml version="1.0" encoding="utf-8" ?>
<svg baseProfile="tiny" height="128" version="1.2" viewBox="0,0,128,128" width="128" xmlns="http://www.w3.org/2000/svg" xmlns:ev="http://www.w3.org/2001/xml-events" xmlns:xlink="http://www.w3.org/1999/xlink"><defs /><polyline fill="none" points="68.7891,114.5034 46.1497,113.6327 32.6531,105.7959 21.3333,94.0408 16.1088,87.9456 9.5782,75.3197 8.7075,59.2109 10.449,49.1973 13.932,39.1837 22.6395,25.2517 33.9592,16.1088 41.7959,12.6259 66.6122,8.7075 84.898,9.1429 104.0544,15.6735 111.0204,19.5918 115.8095,23.9456 119.2925,31.3469 119.2925,52.2449 117.1156,65.3061 114.068,71.8367 104.4898,82.7211 86.6395,98.3946 75.3197,104.9252 60.517,110.1497" stroke="#00007f" stroke-width="2" /><polyline fill="none" points="80.5442,15.6735 79.6735,47.8912 85.7687,70.5306 90.9932,83.5918 97.9592,90.5578 103.1837,94.0408" stroke="#7cff79" stroke-width="2" /><polyline fill="none" points="55.7279,14.3673 52.6803,25.6871 47.4558,67.9184 43.5374,86.6395 39.619,95.7823 34.3946,102.7483 28.7347,106.6667 24.8163,107.9728 23.5102,107.5374" stroke="#7f0000" stroke-width="2" /></svg>