<?xml version="1.0" encoding="utf-8" ?>
<svg baseProfile="tiny" height="128" version="1.2" viewBox="0,0,128,128" width="128" xmlns="http://www.w3.org/2000/svg" xmlns:ev="http://www.w3.org/2001/xml-events" xmlns:xlink="http://www.w3.org/1999/xlink"><defs /><polyline fill="none" points="29.5051,13.8847 21.261,21.261 14.7525,31.2407 9.5458,45.1254 8.678,51.6339 9.5458,57.7085 13.8847,69.4237 21.6949,79.4034 31.6746,86.7797 38.6169,89.3831 58.1424,91.1186 81.5729,88.0814 89.8169,85.0441 98.9288,79.4034 112.3797,66.8203 118.8881,56.8407 119.322,51.2 115.8508,40.3525 106.739,27.3356 90.6847,14.3186 81.139,9.9797 69.8576,8.678 60.3119,9.9797 50.3322,13.4508 35.1458,20.3932 29.5051,25.1661" stroke="#00007f" stroke-width="2" /><polyline fill="none" points="82.4407,23.4305 74.1966,28.2034 66.3864,38.1831 62.9153,46.4271 66.8203,72.0271 72.0271,80.7051 78.9695,84.6102 86.3458,85.478 93.2881,80.2712" stroke="#004cff" stroke-width="2" /><polyline fill="none" points="46.4271,18.2237 49.0305,35.1458 50.3322,59.878 50.3322,71.5932 48.1627,80.2712 45.1254,84.6102 34.278,92.8542 24.7322,96.3254 21.261,95.8915" stroke="#29ffcd" stroke-width="2" /><polyline fill="none" points="22.1288,79.4034 31.2407,75.4983 36.8814,75.4983 62.9153,79.8373" stroke="#cdff29" stroke-width="2" /><polyline fill="none" points="36.0136,52.5017 57.7085,46.4271 68.5559,46.861" stroke="#ff6700" stroke-width="2" /><polyline fill="none" points="32.1085,32.5424 35.1458,26.9017 45.1254,22.1288 57.2746,18.6576" stroke="#7f0000" stroke-width="2" /></svg>