<?xml version="1.0" encoding="utf-8" ?>
<svg baseProfile="tiny" height="128" version="1.2" viewBox="0,0,128,128" width="128" xmlns="http://www.w3.org/2000/svg" xmlns:ev="http://www.w3.org/2001/xml-events" xmlns:xlink="http://www.w3.org/1999/xlink"><defs /><polyline fill="none" points="13.0612,52.6803 13.932,41.7959 16.5442,33.9592 27.8639,23.5102 47.4558,13.4966 60.0816,9.1429 73.5782,8.7075 83.5918,13.0612 87.9456,17.8503 89.6871,30.0408 89.6871,49.6327 85.7687,67.483 70.966,104.0544 67.0476,110.585 60.517,114.068 46.1497,114.5034 36.5714,111.4558 28.7347,106.6667 21.3333,100.1361 13.0612,90.1224 8.7075,78.8027 9.1429,69.6599 18.2857,36.5714 28.2993,20.4626" stroke="#00007f" stroke-width="2" /><polyline fill="none" points="38.7483,20.0272 40.0544,29.6054 30.4762,70.966 27.4286,90.1224 26.9932,101.4422 28.7347,119.2925" stroke="#0080ff" stroke-width="2" /><polyline fill="none" points="87.9456,12.6259 78.8027,25.2517 60.9524,62.2585 55.7279,89.2517 56.5986,117.9864" stroke="#7cff79" stroke-width="2" /><polyline fill="none" points="11.7551,52.6803 28.7347,56.1633 73.5782,53.9864 83.5918,55.2925 90.9932,57.9048" stroke="#ff9400" stroke-width="2" /><polyline fill="none" points="9.1429,73.5782 33.5238,77.4966 56.1633,79.6735 82.2857,90.5578" stroke="#7f0000" stroke-width="2" /></svg>