<?xml version="1.0" encoding="utf-8" ?>
<svg baseProfile="tiny" height="128" version="1.2" viewBox="0,0,128,128" width="128" xmlns="http://www.w3.org/2000/svg" xmlns:ev="http://www.w3.org/2001/xml-events" xmlns:xlink="http://www.w3.org/1999/xlink"><defs /><polyline fill="none" points="64.6508,8.678 46.861,10.8475 32.1085,14.7525 19.5254,22.5627 13.0169,28.6373 8.678,36.4475 10.4136,55.539 19.0915,72.0271 32.1085,85.478 37.7492,88.9492 65.9525,95.8915 91.5525,95.8915 105.4373,92.4203 114.9831,81.5729 119.322,64.2169 119.322,60.3119 116.2847,52.0678 114.5492,47.7288 107.1729,39.0508 87.2136,24.2983 75.0644,13.4508 67.6881,9.9797 56.4068,9.5458" stroke="#00007f" stroke-width="2" /><polyline fill="none" points="36.8814,11.7153 39.4847,26.4678 39.4847,41.2203 37.7492,74.6305 36.8814,85.0441 35.1458,88.0814" stroke="#7cff79" stroke-width="2" /><polyline fill="none" points="94.5898,29.5051 91.1186,37.3153 90.6847,72.8949 97.6271,85.0441 103.7017,88.0814 102.8339,84.6102" stroke="#7f0000" stroke-width="2" /></svg>