<?xml version="1.0" encoding="utf-8" ?>
<svg baseProfile="tiny" height="128" version="1.2" viewBox="0,0,128,128" width="128" xmlns="http://www.w3.org/2000/svg" xmlns:ev="http://www.w3.org/2001/xml-events" xmlns:xlink="http://www.w3.org/1999/xlink"><defs /><polyline fill="none" points="27.3356,45.9932 13.4508,49.0305 8.678,63.3492 8.678,74.1966 13.4508,89.8169 27.3356,106.739 39.9186,116.2847 50.7661,119.322 64.6508,119.322 75.9322,100.2305 78.9695,80.2712 80.2712,29.0712 75.4983,16.4881 64.6508,8.678 47.7288,8.678 36.8814,11.7153 29.0712,17.7898 22.5627,29.0712" stroke="#00007f" stroke-width="2" /><polyline fill="none" points="26.0339,39.9186 33.4102,55.539 45.9932,72.461 50.7661,83.3085 53.8034,94.5898 53.8034,111.5119" stroke="#7cff79" stroke-width="2" /><polyline fill="none" points="56.8407,14.7525 49.0305,24.2983 49.0305,32.1085 55.539,45.9932 66.3864,63.3492 85.0441,83.3085" stroke="#7f0000" stroke-width="2" /></svg>