<?xml version="1.0" encoding="utf-8" ?>
<svg baseProfile="tiny" height="128" version="1.2" viewBox="0,0,128,128" width="128" xmlns="http://www.w3.org/2000/svg" xmlns:ev="http://www.w3.org/2001/xml-events" xmlns:xlink="http://www.w3.org/1999/xlink"><defs /><polyline fill="none" points="97.9592,16.1088 85.7687,12.6259 79.2381,12.1905 57.9048,14.3673 39.619,21.7687 23.9456,34.3946 19.5918,40.0544 13.932,50.9388 10.449,60.9524 8.7075,77.4966 10.0136,82.7211 15.2381,91.8639 22.6395,97.5238 32.6531,101.8776 45.2789,104.4898 62.2585,106.2313 81.415,104.9252 98.3946,99.7007 110.585,87.5102 117.9864,70.5306 119.2925,53.9864 114.5034,41.3605 97.0884,17.8503 93.1701,14.8027" stroke="#00007f" stroke-width="2" /><polyline fill="none" points="52.6803,20.0272 51.3741,35.2653 47.8912,48.3265 37.8776,64.8707 33.5238,74.0136 23.5102,85.7687" stroke="#7cff79" stroke-width="2" /><polyline fill="none" points="88.8163,8.7075 76.6259,40.0544 74.0136,50.9388 74.0136,58.3401 78.3673,78.8027 85.7687,89.6871 92.2993,94.9116" stroke="#7f0000" stroke-width="2" /></svg>