<?xml version="1.0" encoding="utf-8" ?>
<svg baseProfile="tiny" height="128" version="1.2" viewBox="0,0,128,128" width="128" xmlns="http://www.w3.org/2000/svg" xmlns:ev="http://www.w3.org/2001/xml-events" xmlns:xlink="http://www.w3.org/1999/xlink"><defs /><polyline fill="none" points="40.7864,12.1492 35.1458,12.5831 26.0339,16.0542 18.2237,21.6949 15.1864,24.2983 10.4136,35.1458 8.678,51.2 8.678,71.5932 9.1119,80.7051 13.4508,93.2881 28.2034,111.078 42.9559,118.4542 56.4068,119.322 75.0644,108.4746 98.4949,82.8746 101.0983,77.2339 103.7017,67.2542 103.7017,46.4271 98.061,33.8441 89.8169,22.9966 85.0441,18.2237 72.8949,11.2814 58.5763,8.678 39.4847,8.678" stroke="#00007f" stroke-width="2" /><polyline fill="none" points="26.0339,17.3559 38.6169,35.1458 43.8237,54.2373 45.9932,75.0644 45.5593,101.0983 43.3898,112.3797 39.4847,116.7186" stroke="#0080ff" stroke-width="2" /><polyline fill="none" points="80.2712,16.922 74.6305,23.8644 71.5932,32.1085 69.4237,53.8034 75.4983,89.3831 78.5356,97.1932 85.478,105.0034" stroke="#7cff79" stroke-width="2" /><polyline fill="none" points="28.2034,29.939 36.4475,29.5051 41.2203,27.3356" stroke="#ff9400" stroke-width="2" /><polyline fill="none" points="34.7119,47.2949 41.6542,49.0305 44.2576,52.5017" stroke="#7f0000" stroke-width="2" /></svg>