<?xml version="1.0" encoding="utf-8" ?>
<svg baseProfile="tiny" height="128" version="1.2" viewBox="0,0,128,128" width="128" xmlns="http://www.w3.org/2000/svg" xmlns:ev="http://www.w3.org/2001/xml-events" xmlns:xlink="http://www.w3.org/1999/xlink"><defs /><polyline fill="none" points="92.8542,19.9593 82.4407,14.3186 70.2915,11.7153 43.8237,11.2814 34.278,14.7525 23.4305,21.261 11.7153,36.8814 8.678,46.861 8.678,58.1424 9.9797,71.1593 13.8847,81.5729 19.0915,89.3831 26.0339,96.7593 36.0136,103.2678 48.1627,107.6068 61.6136,111.078 72.0271,111.9458 81.5729,111.5119 88.0814,106.739 92.8542,101.0983 117.5864,54.6712 119.322,38.1831 117.1525,32.9763 109.7763,25.1661 82.4407,11.7153" stroke="#00007f" stroke-width="2" /><polyline fill="none" points="29.5051,96.3254 42.0881,79.8373 46.4271,62.9153 46.861,21.6949 44.6915,11.7153 41.6542,8.678" stroke="#0028ff" stroke-width="2" /><polyline fill="none" points="96.7593,20.8271 82.4407,47.7288 78.5356,67.6881 78.5356,82.0068 79.8373,88.9492 85.0441,99.3627 89.8169,103.7017 94.1559,104.5695" stroke="#00d4ff" stroke-width="2" /><polyline fill="none" points="30.3729,78.5356 41.2203,88.9492 44.6915,90.2508" stroke="#7cff79" stroke-width="2" /><polyline fill="none" points="43.3898,50.3322 54.2373,61.1797 58.1424,62.9153" stroke="#ffe500" stroke-width="2" /><polyline fill="none" points="39.9186,29.5051 44.2576,33.8441 55.539,38.6169" stroke="#ff4600" stroke-width="2" /><polyline fill="none" points="42.522,22.1288 45.5593,21.261" stroke="#7f0000" stroke-width="2" /></svg>