<?xml version="1.0" encoding="utf-8" ?>
<svg baseProfile="tiny" height="128" version="1.2" viewBox="0,0,128,128" width="128" xmlns="http://www.w3.org/2000/svg" xmlns:ev="http://www.w3.org/2001/xml-events" xmlns:xlink="http://www.w3.org/1999/xlink"><defs /><polyline fill="none" points="62.4814,103.2678 62.4814,103.2678" stroke="#00007f" stroke-width="2" /><polyline fill="none" points="60.7458,47.2949 19.0915,42.9559 9.5458,52.5017 8.678,66.8203 16.0542,84.6102 19.9593,87.2136 31.2407,91.5525 43.3898,91.9864 68.122,75.4983 78.5356,62.4814 74.1966,53.3695 61.6136,50.7661" stroke="#0000e8" stroke-width="2" /><polyline fill="none" points="46.4271,51.2 50.7661,59.878 52.5017,66.8203 61.6136,73.7627" stroke="#0038ff" stroke-width="2" /><polyline fill="none" points="29.5051,49.8983 32.9763,60.7458 32.9763,70.7254 26.9017,80.2712 16.0542,85.9119" stroke="#0094ff" stroke-width="2" /><polyline fill="none" points="27.7695,53.3695 27.7695,53.3695" stroke="#0cf4ea" stroke-width="2" /><polyline fill="none" points="24.2983,60.7458 25.6,62.4814" stroke="#56ffa0" stroke-width="2" /><polyline fill="none" points="22.1288,71.5932 13.4508,81.5729" stroke="#a0ff56" stroke-width="2" /><polyline fill="none" points="55.9729,55.9729 58.5763,61.6136" stroke="#eaff0c" stroke-width="2" /><polyline fill="none" points="60.3119,64.6508 60.3119,64.6508" stroke="#ffaa00" stroke-width="2" /><polyline fill="none" points="60.7458,67.6881 59.0102,65.9525" stroke="#ff5500" stroke-width="2" /><polyline fill="none" points="95.4576,11.7153 96.3254,24.2983 101.5322,40.7864 107.1729,80.2712" stroke="#e80000" stroke-width="2" /><polyline fill="none" points="94.1559,8.678 111.9458,9.1119 114.9831,12.1492 117.1525,18.2237 119.322,28.6373 119.322,39.0508 112.8136,70.2915" stroke="#7f0000" stroke-width="2" /></svg>