<?xml version="1.0" encoding="utf-8" ?>
<svg baseProfile="tiny" height="128" version="1.2" viewBox="0,0,128,128" width="128" xmlns="http://www.w3.org/2000/svg" xmlns:ev="http://www.w3.org/2001/xml-events" xmlns:xlink="http://www.w3.org/1999/xlink"><defs /><polyline fill="none" points="96.7593,72.461 83.7424,73.3288 78.1017,72.0271 69.8576,67.2542 66.8203,62.9153 63.3492,52.9356 63.7831,43.8237 66.3864,39.4847 74.1966,32.5424 85.478,28.2034 98.4949,28.2034 108.4746,34.7119 114.1153,43.8237 114.9831,54.6712 114.5492,60.3119 111.9458,65.0847 103.2678,72.8949 94.5898,75.9322 90.2508,75.4983" stroke="#00007f" stroke-width="2" /><polyline fill="none" points="77.6678,28.6373 83.3085,38.6169 82.8746,55.9729 78.5356,67.2542 69.8576,75.0644" stroke="#0000c8" stroke-width="2" /><polyline fill="none" points="104.5695,25.1661 99.7966,25.1661 91.5525,31.6746 85.478,42.9559 84.1763,50.7661 84.1763,56.8407 85.9119,60.7458 92.4203,65.5186 100.6644,68.122 103.7017,72.0271" stroke="#0000ff" stroke-width="2" /><polyline fill="none" points="72.8949,39.0508 104.5695,37.3153" stroke="#0040ff" stroke-width="2" /><polyline fill="none" points="75.4983,47.7288 97.1932,46.861" stroke="#0080ff" stroke-width="2" /><polyline fill="none" points="77.6678,55.1051 95.8915,53.8034" stroke="#00c0ff" stroke-width="2" /><polyline fill="none" points="74.6305,61.6136 94.1559,61.1797" stroke="#15ffe1" stroke-width="2" /><polyline fill="none" points="77.2339,30.8068 76.8,32.1085 80.2712,33.8441 94.5898,34.278" stroke="#49ffad" stroke-width="2" /><polyline fill="none" points="112.3797,34.7119 110.6441,34.7119 109.7763,37.7492 109.7763,49.8983 114.1153,60.3119 119.322,63.3492" stroke="#7cff79" stroke-width="2" /><polyline fill="none" points="68.9898,39.9186 71.5932,50.3322 72.0271,56.8407 68.5559,61.6136 63.7831,63.7831" stroke="#b0ff46" stroke-width="2" /><polyline fill="none" points="65.9525,50.3322 76.3661,49.8983" stroke="#e4ff12" stroke-width="2" /><polyline fill="none" points="67.6881,57.2746 76.8,55.9729" stroke="#ffcf00" stroke-width="2" /><polyline fill="none" points="66.8203,45.5593 72.8949,45.1254" stroke="#ff9400" stroke-width="2" /><polyline fill="none" points="108.4746,44.2576 114.5492,43.3898" stroke="#ff5900" stroke-width="2" /><polyline fill="none" points="107.6068,50.7661 114.1153,50.3322" stroke="#ff1d00" stroke-width="2" /><polyline fill="none" points="107.6068,56.8407 111.9458,56.4068" stroke="#c30000" stroke-width="2" /><polyline fill="none" points="32.1085,35.1458 17.7898,58.5763 11.7153,70.7254 9.1119,78.5356 13.0169,73.7627 34.7119,31.6746 42.0881,21.261 40.7864,26.4678 13.8847,81.5729 18.2237,62.4814 25.1661,45.1254 42.0881,15.6203 49.0305,8.678 28.2034,44.6915 13.0169,77.2339 8.678,89.8169 17.7898,62.9153 25.1661,47.2949 38.1831,26.9017 39.9186,26.4678 38.1831,32.1085 30.8068,45.5593 12.1492,88.5153 13.8847,75.0644 18.2237,59.878 24.2983,44.2576 35.5797,24.2983 37.3153,22.9966 37.3153,24.7322 19.5254,63.3492 14.3186,76.3661 11.2814,87.6475 20.8271,65.0847 39.0508,29.939 31.6746,40.7864 23.4305,55.9729 10.4136,88.0814 17.7898,63.3492 38.1831,20.8271 25.6,42.9559 13.0169,71.1593 9.1119,84.1763 23.4305,50.3322 36.8814,26.0339 13.4508,82.4407 20.8271,59.4441 36.4475,26.9017 20.8271,62.9153 15.6203,78.9695 16.4881,72.0271 22.9966,54.2373 31.2407,42.0881 33.8441,40.7864 36.0136,41.6542 36.8814,57.7085 35.1458,64.2169 32.5424,65.5186 27.7695,59.878 19.9593,45.1254 41.2203,62.9153 24.2983,49.4644 37.3153,59.4441 29.0712,57.2746 21.261,51.6339 23.4305,51.6339 27.7695,55.1051 45.1254,73.7627 42.0881,73.7627 31.2407,65.9525 21.261,54.6712 20.3932,52.0678 24.2983,53.8034 35.1458,63.3492" stroke="#7f0000" stroke-width="2" /></svg>