<?xml version="1.0" encoding="utf-8" ?>
<svg baseProfile="tiny" height="128" version="1.2" viewBox="0,0,128,128" width="128" xmlns="http://www.w3.org/2000/svg" xmlns:ev="http://www.w3.org/2001/xml-events" xmlns:xlink="http://www.w3.org/1999/xlink"><defs /><polyline fill="none" points="94.5898,18.6576 79.4034,19.5254 63.7831,22.9966 44.2576,33.8441 23.4305,51.2 16.922,63.7831 16.4881,69.8576 17.3559,78.1017 22.1288,85.0441 33.8441,93.2881 47.7288,99.7966 67.2542,105.0034 75.0644,106.3051 91.5525,105.0034 98.9288,101.5322 104.5695,97.1932 111.9458,87.6475 116.2847,75.9322 119.322,55.9729 119.322,43.8237 114.9831,28.2034 106.739,13.0169 100.6644,9.5458 91.9864,8.678 77.6678,13.0169 58.1424,25.6" stroke="#00007f" stroke-width="2" /><polyline fill="none" points="69.8576,17.7898 75.9322,28.6373 87.2136,37.3153 92.8542,39.9186 102.4,39.9186 117.5864,27.7695" stroke="#00d4ff" stroke-width="2" /><polyline fill="none" points="39.0508,101.5322 45.1254,90.2508 58.1424,76.8 69.8576,68.5559 78.9695,67.2542 85.9119,70.7254 100.2305,86.7797" stroke="#ffe500" stroke-width="2" /><polyline fill="none" points="39.9186,32.1085 37.3153,49.0305 37.3153,60.7458 39.4847,66.8203 39.0508,69.4237 30.8068,74.1966 8.678,81.5729" stroke="#7f0000" stroke-width="2" /></svg>