<?xml version="1.0" encoding="utf-8" ?>
<svg baseProfile="tiny" height="128" version="1.2" viewBox="0,0,128,128" width="128" xmlns="http://www.w3.org/2000/svg" xmlns:ev="http://www.w3.org/2001/xml-events" xmlns:xlink="http://www.w3.org/1999/xlink"><defs /><polyline fill="none" points="45.1254,118.0203 28.2034,111.9458 20.8271,105.4373 14.3186,97.1932 8.678,79.4034 9.1119,55.1051 15.1864,37.7492 19.5254,30.3729 29.5051,20.3932 47.7288,10.4136 66.8203,8.678 74.1966,10.8475 85.0441,18.2237 94.1559,29.5051 100.6644,41.6542 104.5695,55.539 105.4373,63.3492 105.4373,77.6678 103.7017,85.478 98.4949,96.7593 93.722,102.8339 83.7424,110.6441 72.461,116.2847 66.3864,118.4542 54.6712,119.322 48.1627,118.8881 32.9763,114.9831" stroke="#00007f" stroke-width="2" /><polyline fill="none" points="20.3932,23.4305 20.8271,26.9017 26.9017,32.5424 32.1085,40.7864 38.1831,54.6712 42.9559,83.7424 42.9559,115.8508" stroke="#7cff79" stroke-width="2" /><polyline fill="none" points="51.6339,16.0542 56.4068,18.2237 68.9898,32.1085 73.3288,45.1254 78.9695,77.2339 78.9695,94.5898 77.2339,101.9661 75.0644,104.5695" stroke="#7f0000" stroke-width="2" /></svg>