<?xml version="1.0" encoding="utf-8" ?>
<svg baseProfile="tiny" height="128" version="1.2" viewBox="0,0,128,128" width="128" xmlns="http://www.w3.org/2000/svg" xmlns:ev="http://www.w3.org/2001/xml-events" xmlns:xlink="http://www.w3.org/1999/xlink"><defs /><polyline fill="none" points="103.1837,43.102 95.7823,39.1837 77.0612,37.0068 67.9184,39.1837 63.1293,43.9728 60.9524,47.8912 59.2109,56.1633 59.2109,67.9184 62.6939,76.6259 70.966,87.0748 77.4966,90.9932 88.381,90.5578 96.6531,87.0748 102.7483,79.2381 104.0544,70.966 103.1837,49.6327 101.0068,44.4082 93.1701,36.1361" stroke="#00007f" stroke-width="2" /><polyline fill="none" points="64.8707,83.5918 63.1293,80.9796 63.1293,71.4014 67.483,63.1293 71.8367,58.7755 82.2857,55.2925 89.2517,55.2925 103.1837,67.483 104.4898,70.966" stroke="#7cff79" stroke-width="2" /><polyline fill="none" points="60.9524,99.2653 58.7755,99.7007 54.4218,98.3946 52.2449,97.0884 50.9388,94.4762 50.5034,75.3197 46.1497,37.0068 38.7483,13.4966 33.9592,8.7075 27.4286,9.5782 17.8503,13.932 12.1905,22.2041 10.0136,29.1701 9.5782,53.1156 14.8027,77.0612 20.898,95.3469 15.6735,94.9116 8.7075,100.1361 8.7075,102.3129 25.6871,115.8095 34.8299,119.2925 53.1156,119.2925 58.7755,114.9388 63.1293,105.7959 60.0816,101.4422 51.8095,101.4422" stroke="#7f0000" stroke-width="2" /></svg>