<?xml version="1.0" encoding="utf-8" ?>
<svg baseProfile="tiny" height="128" version="1.2" viewBox="0,0,128,128" width="128" xmlns="http://www.w3.org/2000/svg" xmlns:ev="http://www.w3.org/2001/xml-events" xmlns:xlink="http://www.w3.org/1999/xlink"><defs /><polyline fill="none" points="63.1293,12.6259 45.7143,12.6259 37.8776,16.1088 25.2517,26.9932 12.6259,47.8912 9.1429,56.5986 8.7075,67.9184 14.8027,81.8503 23.5102,91.4286 34.3946,96.6531 56.1633,100.5714 87.0748,100.5714 101.0068,93.1701 108.8435,84.4626 117.1156,72.2721 119.2925,57.034 116.6803,47.8912 104.0544,28.2993 78.3673,12.6259 69.6599,10.0136 57.9048,8.7075" stroke="#00007f" stroke-width="2" /><polyline fill="none" points="47.0204,12.6259 51.3741,22.2041 52.2449,28.7347 52.2449,47.4558 50.5034,56.5986 46.1497,66.6122 39.619,74.0136 33.9592,78.3673 25.6871,80.9796" stroke="#7cff79" stroke-width="2" /><polyline fill="none" points="98.8299,26.1224 90.1224,34.8299 84.0272,43.9728 76.6259,62.2585 74.449,71.4014 74.0136,80.5442 75.3197,84.4626 83.1565,89.6871 86.2041,90.5578" stroke="#7f0000" stroke-width="2" /></svg>