<?xml version="1.0" encoding="utf-8" ?>
<svg baseProfile="tiny" height="128" version="1.2" viewBox="0,0,128,128" width="128" xmlns="http://www.w3.org/2000/svg" xmlns:ev="http://www.w3.org/2001/xml-events" xmlns:xlink="http://www.w3.org/1999/xlink"><defs /><polyline fill="none" points="60.3119,8.678 49.4644,10.8475 39.0508,16.0542 30.3729,21.261 26.4678,25.6 14.7525,47.7288 9.5458,60.3119 8.678,88.9492 19.5254,105.8712 25.6,110.6441 52.0678,118.4542 75.0644,119.322 82.0068,117.5864 91.9864,113.2475 104.5695,100.2305 108.0407,89.8169 108.4746,69.8576 104.5695,54.2373 99.3627,42.9559 74.1966,20.3932 61.1797,18.2237" stroke="#00007f" stroke-width="2" /><polyline fill="none" points="46.4271,17.3559 46.4271,36.8814 48.1627,41.2203 55.539,46.861 71.1593,46.4271 84.6102,36.0136" stroke="#7cff79" stroke-width="2" /><polyline fill="none" points="41.2203,110.6441 43.3898,97.6271 52.9356,87.6475 59.0102,85.478 68.5559,85.478 72.8949,88.9492 77.2339,97.1932 78.1017,107.6068" stroke="#7f0000" stroke-width="2" /></svg>