<?xml version="1.0" encoding="utf-8" ?>
<svg baseProfile="tiny" height="128" version="1.2" viewBox="0,0,128,128" width="128" xmlns="http://www.w3.org/2000/svg" xmlns:ev="http://www.w3.org/2001/xml-events" xmlns:xlink="http://www.w3.org/1999/xlink"><defs /><polyline fill="none" points="30.8068,9.1119 54.6712,8.678 84.1763,15.1864 97.1932,20.3932 105.0034,25.6 111.078,33.4102 114.5492,41.6542 118.8881,58.1424 119.322,71.5932 112.3797,90.2508 105.8712,98.4949 91.5525,109.7763 75.4983,117.5864 70.2915,118.8881 54.2373,118.8881 40.3525,115.4169 26.4678,107.1729 19.0915,99.3627 15.6203,68.5559 9.1119,49.8983 8.678,28.6373 13.4508,17.7898 17.7898,12.1492 21.6949,10.4136" stroke="#00007f" stroke-width="2" /><polyline fill="none" points="94.5898,27.3356 88.5153,45.9932 85.478,67.6881 86.7797,88.9492 90.2508,97.1932 93.2881,99.3627" stroke="#7cff79" stroke-width="2" /><polyline fill="none" points="16.4881,13.8847 17.7898,19.0915 22.5627,27.3356 22.5627,32.9763 17.3559,54.2373 11.2814,67.2542 9.1119,79.4034" stroke="#7f0000" stroke-width="2" /></svg>