<?xml version="1.0" encoding="utf-8" ?>
<svg baseProfile="tiny" height="128" version="1.2" viewBox="0,0,128,128" width="128" xmlns="http://www.w3.org/2000/svg" xmlns:ev="http://www.w3.org/2001/xml-events" xmlns:xlink="http://www.w3.org/1999/xlink"><defs /><polyline fill="none" points="85.0441,12.5831 58.5763,8.678 43.8237,8.678 36.0136,11.2814 26.4678,16.4881 22.1288,21.261 10.8475,42.0881 8.678,52.0678 9.1119,68.5559 15.1864,85.478 23.8644,94.5898 52.9356,108.9085 63.7831,111.5119 75.0644,111.078 89.3831,107.6068 112.8136,105.0034 116.2847,102.8339 118.4542,98.9288 119.322,81.139 118.4542,68.9898 116.2847,60.3119 105.4373,42.9559 95.8915,32.5424 82.0068,12.5831 76.8,9.9797 73.3288,9.5458" stroke="#00007f" stroke-width="2" /><polyline fill="none" points="26.0339,17.7898 34.7119,27.7695 42.0881,39.4847 51.2,70.2915 51.6339,83.7424 46.4271,93.722 43.3898,105.8712" stroke="#7f0000" stroke-width="2" /></svg>