<?xml version="1.0" encoding="utf-8" ?>
<svg baseProfile="tiny" height="128" version="1.2" viewBox="0,0,128,128" width="128" xmlns="http://www.w3.org/2000/svg" xmlns:ev="http://www.w3.org/2001/xml-events" xmlns:xlink="http://www.w3.org/1999/xlink"><defs /><polyline fill="none" points="26.0339,29.939 39.0508,19.9593 48.1627,15.6203 60.3119,10.8475 70.7254,8.678 80.2712,8.678 89.8169,10.8475 98.061,16.0542 104.1356,22.9966 108.9085,32.9763 112.3797,44.6915 114.1153,56.8407 113.6814,72.8949 109.7763,85.9119 105.8712,93.2881 98.061,103.2678 90.6847,109.3424 82.4407,114.1153 69.8576,118.4542 60.7458,119.322 51.2,118.0203 39.0508,113.2475 30.3729,107.6068 23.4305,101.5322 15.1864,90.2508 11.2814,81.139 8.678,68.5559 10.8475,51.6339 17.7898,39.0508 23.8644,30.8068 29.939,26.0339 35.1458,23.8644" stroke="#00007f" stroke-width="2" /><polyline fill="none" points="26.0339,24.7322 33.4102,26.0339 41.6542,32.9763 47.7288,42.9559 50.3322,51.6339 49.4644,60.3119 41.6542,93.2881 36.0136,102.4 28.2034,108.4746" stroke="#7cff79" stroke-width="2" /><polyline fill="none" points="98.9288,15.1864 91.1186,19.9593 83.7424,30.3729 81.139,38.1831 80.2712,48.5966 81.5729,65.5186 87.2136,85.478 93.722,95.8915 96.3254,98.061 98.9288,98.4949" stroke="#7f0000" stroke-width="2" /></svg>