<?xml version="1.0" encoding="utf-8" ?>
<svg baseProfile="tiny" height="128" version="1.2" viewBox="0,0,128,128" width="128" xmlns="http://www.w3.org/2000/svg" xmlns:ev="http://www.w3.org/2001/xml-events" xmlns:xlink="http://www.w3.org/1999/xlink"><defs /><polyline fill="none" points="100.2305,11.7153 95.8915,9.1119 87.6475,8.678 78.9695,9.9797 69.8576,13.4508 39.9186,29.939 30.3729,36.0136 22.5627,43.3898 16.4881,49.8983 12.5831,57.7085 9.5458,64.6508 8.678,77.2339 10.4136,84.1763 13.8847,90.2508 23.4305,98.061 27.7695,100.6644 39.0508,102.8339 45.5593,102.8339 58.5763,100.2305 75.0644,92.8542 99.7966,76.8 106.3051,70.7254 111.5119,64.6508 117.5864,51.2 119.322,31.2407 118.4542,26.0339 112.3797,16.4881 108.0407,14.3186 104.5695,14.7525" stroke="#00007f" stroke-width="2" /><polyline fill="none" points="35.1458,35.5797 36.8814,36.4475 49.4644,51.6339 53.8034,62.0475 54.2373,72.0271 52.9356,78.1017 46.4271,94.1559 42.0881,98.9288 45.1254,100.2305" stroke="#004cff" stroke-width="2" /><polyline fill="none" points="70.7254,20.3932 71.5932,23.4305 84.1763,37.3153 88.0814,49.4644 86.3458,64.2169 77.6678,90.2508 72.8949,99.7966" stroke="#29ffcd" stroke-width="2" /><polyline fill="none" points="36.4475,59.4441 51.6339,50.7661 69.4237,43.3898" stroke="#cdff29" stroke-width="2" /><polyline fill="none" points="35.1458,91.5525 37.7492,82.8746 42.522,80.2712 55.1051,76.3661 67.6881,75.9322" stroke="#ff6700" stroke-width="2" /><polyline fill="none" points="72.8949,36.0136 75.4983,32.1085 89.3831,26.4678" stroke="#7f0000" stroke-width="2" /></svg>