<?xml version="1.0" encoding="utf-8" ?>
<svg baseProfile="tiny" height="128" version="1.2" viewBox="0,0,128,128" width="128" xmlns="http://www.w3.org/2000/svg" xmlns:ev="http://www.w3.org/2001/xml-events" xmlns:xlink="http://www.w3.org/1999/xlink"><defs /><polyline fill="none" points="108.4082,88.8163 111.4558,86.6395 116.2449,87.5102 119.2925,96.6531 111.0204,103.1837 101.4422,101.8776 95.3469,90.5578 79.2381,84.4626 68.3537,75.7551 52.2449,60.9524 37.4422,50.5034 24.381,44.4082 16.5442,38.7483 11.7551,33.5238 10.0136,30.0408 8.7075,23.9456 8.7075,15.6735 16.5442,9.1429 19.5918,8.7075 23.0748,10.449 30.0408,17.415 40.9252,31.7823 70.0952,57.9048 91.4286,80.9796 97.5238,85.3333 110.585,90.5578" stroke="#00007f" stroke-width="2" /><polyline fill="none" points="77.0612,80.9796 85.7687,77.4966" stroke="#00d4ff" stroke-width="2" /><polyline fill="none" points="83.1565,87.5102 90.1224,86.2041 94.9116,83.1565" stroke="#ffe500" stroke-width="2" /><polyline fill="none" points="92.7347,88.8163 97.0884,87.5102" stroke="#7f0000" stroke-width="2" /></svg>