<?xml version="1.0" encoding="utf-8" ?>
<svg baseProfile="tiny" height="128" version="1.2" viewBox="0,0,128,128" width="128" xmlns="http://www.w3.org/2000/svg" xmlns:ev="http://www.w3.org/2001/xml-events" xmlns:xlink="http://www.w3.org/1999/xlink"><defs /><polyline fill="none" points="96.3254,29.5051 95.4576,20.8271 89.3831,13.4508 79.4034,9.5458 65.5186,9.1119 55.539,12.1492 45.9932,16.922 29.0712,31.2407 21.261,40.3525 15.1864,50.3322 8.678,70.7254 9.9797,90.6847 16.0542,99.3627 26.4678,106.3051 40.3525,110.6441 54.6712,112.3797 68.9898,112.3797 83.3085,110.2102 93.722,105.4373 99.7966,98.9288 103.7017,91.1186 108.9085,74.6305 109.3424,48.5966 105.0034,36.0136 99.3627,27.7695 95.4576,26.0339 83.3085,25.6" stroke="#00007f" stroke-width="2" /><polyline fill="none" points="37.7492,21.261 45.1254,38.6169 45.1254,58.1424 38.1831,74.6305 25.6,97.1932" stroke="#7cff79" stroke-width="2" /><polyline fill="none" points="89.3831,8.678 85.9119,19.5254 71.1593,46.861 63.7831,67.6881 61.1797,78.9695 60.3119,100.6644 61.6136,109.7763 66.8203,119.322" stroke="#7f0000" stroke-width="2" /></svg>