<?xml version="1.0" encoding="utf-8" ?>
<svg baseProfile="tiny" height="128" version="1.2" viewBox="0,0,128,128" width="128" xmlns="http://www.w3.org/2000/svg" xmlns:ev="http://www.w3.org/2001/xml-events" xmlns:xlink="http://www.w3.org/1999/xlink"><defs /><polyline fill="none" points="84.1763,8.678 74.6305,12.1492 64.2169,18.2237 36.4475,36.8814 24.2983,49.4644 15.1864,63.3492 9.9797,80.2712 8.678,97.1932 11.2814,105.4373 15.6203,111.9458 21.6949,117.1525 29.939,119.322 47.2949,119.322 59.878,117.5864 76.8,110.2102 83.3085,105.8712 87.6475,100.2305 92.4203,88.9492 100.6644,52.9356 101.9661,30.8068 97.1932,16.922 90.2508,10.4136 85.478,9.1119" stroke="#00007f" stroke-width="2" /><polyline fill="none" points="32.5424,45.9932 43.3898,54.6712 47.2949,63.3492 49.8983,80.7051 49.8983,97.6271 49.0305,101.5322 45.9932,105.4373" stroke="#7cff79" stroke-width="2" /><polyline fill="none" points="95.4576,9.1119 84.6102,19.5254 73.3288,42.0881 67.6881,59.0102 66.3864,66.8203 66.8203,96.7593 68.122,100.6644 72.8949,106.739 80.2712,108.4746" stroke="#7f0000" stroke-width="2" /></svg>