<?xml version="1.0" encoding="utf-8" ?>
<svg baseProfile="tiny" height="128" version="1.2" viewBox="0,0,128,128" width="128" xmlns="http://www.w3.org/2000/svg" xmlns:ev="http://www.w3.org/2001/xml-events" xmlns:xlink="http://www.w3.org/1999/xlink"><defs /><polyline fill="none" points="33.5238,119.2925 26.1224,114.068 17.8503,104.0544 13.932,97.9592 10.0136,86.2041 8.7075,74.0136 9.1429,34.8299 11.7551,20.0272 15.2381,15.2381 24.8163,10.8844 35.2653,8.7075 60.9524,8.7075 67.9184,10.449 77.932,15.6735 85.7687,22.2041 92.2993,30.4762 96.6531,44.4082 95.7823,60.517 87.0748,87.9456 79.2381,98.8299 69.2245,105.3605 52.6803,111.8912 45.2789,113.1973 31.3469,111.8912 25.6871,104.9252" stroke="#00007f" stroke-width="2" /><polyline fill="none" points="25.6871,104.0544 25.2517,102.7483" stroke="#00d4ff" stroke-width="2" /><polyline fill="none" points="53.1156,11.7551 37.4422,30.4762 25.6871,53.551 23.5102,70.0952 23.9456,89.6871 28.7347,102.3129 36.5714,110.585" stroke="#ffe500" stroke-width="2" /><polyline fill="none" points="10.8844,35.2653 10.449,39.619 11.7551,41.3605 22.2041,49.6327 32.2177,53.551 50.5034,55.2925" stroke="#7f0000" stroke-width="2" /></svg>