<?xml version="1.0" encoding="utf-8" ?>
<svg baseProfile="tiny" height="128" version="1.2" viewBox="0,0,128,128" width="128" xmlns="http://www.w3.org/2000/svg" xmlns:ev="http://www.w3.org/2001/xml-events" xmlns:xlink="http://www.w3.org/1999/xlink"><defs /><polyline fill="none" points="63.7831,9.1119 51.6339,10.8475 40.3525,16.4881 19.0915,39.0508 12.1492,48.5966 8.678,59.4441 10.4136,67.2542 18.2237,82.8746 23.4305,88.9492 35.1458,96.7593 50.3322,101.9661 67.6881,104.1356 95.8915,100.2305 102.8339,93.722 106.3051,88.5153 116.2847,66.8203 119.322,56.8407 117.1525,43.3898 104.5695,18.6576 101.5322,15.1864 95.0237,10.4136 85.478,8.678 77.2339,8.678 63.7831,11.2814" stroke="#00007f" stroke-width="2" /><polyline fill="none" points="91.5525,14.3186 87.2136,27.3356 83.3085,45.5593 82.8746,80.7051 84.6102,88.5153 96.7593,98.061" stroke="#7cff79" stroke-width="2" /><polyline fill="none" points="40.3525,25.1661 47.7288,38.1831 55.9729,69.4237 53.3695,83.7424 50.3322,90.2508 39.4847,97.1932 32.9763,99.7966" stroke="#7f0000" stroke-width="2" /></svg>