<?xml version="1.0" encoding="utf-8" ?>
<svg baseProfile="tiny" height="128" version="1.2" viewBox="0,0,128,128" width="128" xmlns="http://www.w3.org/2000/svg" xmlns:ev="http://www.w3.org/2001/xml-events" xmlns:xlink="http://www.w3.org/1999/xlink"><defs /><polyline fill="none" points="63.7831,8.678 52.5017,9.5458 45.9932,11.2814 37.7492,16.4881 21.261,31.2407 14.7525,40.3525 8.678,56.4068 8.678,74.6305 16.922,91.5525 28.6373,104.5695 42.522,114.1153 52.9356,116.7186 64.2169,116.7186 100.2305,93.722 109.3424,84.1763 115.8508,75.0644 119.322,65.9525 119.322,48.1627 115.8508,39.4847 102.8339,27.3356 92.8542,23.4305 75.9322,19.0915 37.7492,13.8847" stroke="#00007f" stroke-width="2" /><polyline fill="none" points="17.3559,31.6746 30.8068,36.0136 37.7492,40.3525 43.8237,46.861 48.1627,55.1051 50.7661,68.9898 50.7661,81.139 45.5593,93.2881 36.0136,108.0407" stroke="#0080ff" stroke-width="2" /><polyline fill="none" points="90.2508,29.939 80.7051,40.3525 72.8949,57.7085 69.4237,75.4983 69.4237,91.9864 70.7254,98.9288 79.8373,109.7763 90.2508,112.3797 99.7966,112.3797" stroke="#7cff79" stroke-width="2" /><polyline fill="none" points="11.2814,59.4441 59.4441,57.7085 90.2508,53.3695" stroke="#ff9400" stroke-width="2" /><polyline fill="none" points="36.8814,83.3085 57.7085,83.3085" stroke="#7f0000" stroke-width="2" /></svg>