<?xml version="1.0" encoding="utf-8" ?>
<svg baseProfile="tiny" height="128" version="1.2" viewBox="0,0,128,128" width="128" xmlns="http://www.w3.org/2000/svg" xmlns:ev="http://www.w3.org/2001/xml-events" xmlns:xlink="http://www.w3.org/1999/xlink"><defs /><polyline fill="none" points="41.3605,9.5782 31.3469,11.7551 23.5102,17.8503 17.8503,26.9932 13.4966,38.3129 8.7075,65.3061 10.8844,90.1224 15.6735,100.5714 24.8163,112.7619 30.0408,116.6803 41.7959,119.2925 47.4558,118.8571 58.3401,114.5034 68.7891,106.2313 74.0136,99.7007 78.8027,91.8639 83.5918,78.8027 84.898,58.3401 81.8503,44.4082 78.3673,38.7483 69.6599,29.1701 58.3401,20.4626 47.4558,14.8027 33.5238,8.7075 28.2993,9.5782" stroke="#00007f" stroke-width="2" /><polyline fill="none" points="25.6871,19.1565 30.9116,32.6531 33.5238,43.5374 33.5238,67.483 30.4762,81.415 18.2857,110.585" stroke="#7cff79" stroke-width="2" /><polyline fill="none" points="62.2585,27.8639 55.2925,50.5034 50.9388,76.1905 52.2449,88.381 56.1633,101.4422 59.6463,107.102 64.0,110.1497" stroke="#7f0000" stroke-width="2" /></svg>