<?xml version="1.0" encoding="utf-8" ?>
<svg baseProfile="tiny" height="128" version="1.2" viewBox="0,0,128,128" width="128" xmlns="http://www.w3.org/2000/svg" xmlns:ev="http://www.w3.org/2001/xml-events" xmlns:xlink="http://www.w3.org/1999/xlink"><defs /><polyline fill="none" points="65.0847,8.678 53.8034,11.7153 30.3729,27.3356 19.9593,39.0508 12.5831,52.9356 8.678,66.8203 8.678,77.6678 10.8475,87.2136 17.7898,95.4576 28.2034,101.5322 39.4847,104.1356 52.5017,104.1356 65.0847,101.0983 78.5356,95.8915 90.6847,89.3831 100.6644,81.139 108.9085,71.5932 114.5492,62.0475 118.4542,52.0678 119.322,43.3898 118.4542,34.278 113.6814,26.9017 105.4373,19.5254 86.3458,10.4136 77.2339,8.678 60.3119,9.1119" stroke="#00007f" stroke-width="2" /><polyline fill="none" points="25.6,22.1288 31.6746,23.8644 39.9186,32.5424 44.2576,49.4644 43.3898,72.8949 35.1458,100.6644" stroke="#0028ff" stroke-width="2" /><polyline fill="none" points="72.8949,9.5458 60.3119,26.4678 58.1424,36.4475 59.0102,48.1627 61.1797,56.8407 72.461,81.139 81.139,94.1559 90.6847,99.7966" stroke="#00d4ff" stroke-width="2" /><polyline fill="none" points="56.4068,25.6 92.8542,28.6373" stroke="#7cff79" stroke-width="2" /><polyline fill="none" points="63.3492,71.5932 73.3288,68.5559 94.1559,67.2542" stroke="#ffe500" stroke-width="2" /><polyline fill="none" points="16.0542,51.6339 20.3932,47.2949 34.278,42.9559 60.7458,40.3525 63.3492,41.2203 63.3492,44.2576" stroke="#ff4600" stroke-width="2" /><polyline fill="none" points="35.5797,91.5525 45.5593,91.9864 53.8034,94.5898" stroke="#7f0000" stroke-width="2" /></svg>