<?xml version="1.0" encoding="utf-8" ?>
<svg baseProfile="tiny" height="128" version="1.2" viewBox="0,0,128,128" width="128" xmlns="http://www.w3.org/2000/svg" xmlns:ev="http://www.w3.org/2001/xml-events" xmlns:xlink="http://www.w3.org/1999/xlink"><defs /><polyline fill="none" points="23.5102,13.0612 8.7075,26.9932 20.0272,27.8639" stroke="#00007f" stroke-width="2" /><polyline fill="none" points="16.1088,20.898 22.2041,21.7687 22.2041,20.4626" stroke="#0000b1" stroke-width="2" /><polyline fill="none" points="19.1565,15.2381 30.0408,14.3673" stroke="#0000e8" stroke-width="2" /><polyline fill="none" points="22.2041,33.9592 29.6054,26.9932 35.7007,23.5102 33.5238,30.4762 37.8776,24.381 45.7143,22.2041 47.0204,22.2041 47.0204,29.1701 44.8435,33.0884 43.102,34.3946 43.9728,32.6531" stroke="#0008ff" stroke-width="2" /><polyline fill="none" points="52.6803,19.1565 52.2449,26.9932 49.1973,33.5238 48.3265,20.0272 49.6327,16.9796 57.9048,11.7551 60.0816,11.7551 61.3878,15.2381 59.6463,18.7211 52.6803,20.898 53.1156,23.0748" stroke="#0038ff" stroke-width="2" /><polyline fill="none" points="59.6463,30.0408 58.7755,25.2517 64.4354,19.1565 70.966,18.7211 71.4014,24.381 69.2245,26.9932 67.0476,29.6054 64.4354,25.2517" stroke="#0068ff" stroke-width="2" /><polyline fill="none" points="63.5646,24.381 72.2721,23.9456" stroke="#0094ff" stroke-width="2" /><polyline fill="none" points="79.6735,12.1905 79.6735,21.7687 78.8027,26.9932 78.3673,23.0748" stroke="#00c4ff" stroke-width="2" /><polyline fill="none" points="74.0136,8.7075 91.4286,8.7075" stroke="#0cf4ea" stroke-width="2" /><polyline fill="none" points="95.3469,11.3197 88.381,29.6054 102.7483,30.4762 99.7007,26.9932" stroke="#2fffc7" stroke-width="2" /><polyline fill="none" points="94.0408,22.6395 107.9728,18.2857" stroke="#56ffa0" stroke-width="2" /><polyline fill="none" points="97.0884,13.932 109.2789,10.0136" stroke="#7cff79" stroke-width="2" /><polyline fill="none" points="55.7279,42.6667 54.8571,47.0204" stroke="#a0ff56" stroke-width="2" /><polyline fill="none" points="50.5034,40.9252 65.3061,41.3605" stroke="#c7ff2f" stroke-width="2" /><polyline fill="none" points="50.9388,39.619 67.0476,32.6531 67.483,45.7143" stroke="#eaff0c" stroke-width="2" /><polyline fill="none" points="81.8503,41.3605 81.8503,49.6327 80.1088,48.3265" stroke="#ffd700" stroke-width="2" /><polyline fill="none" points="74.0136,41.3605 78.3673,42.6667 91.4286,42.2313" stroke="#ffaa00" stroke-width="2" /><polyline fill="none" points="90.9932,46.1497 90.9932,50.068 93.1701,50.9388 98.3946,48.3265 99.2653,42.6667 91.4286,44.8435 89.2517,47.4558 90.9932,47.8912" stroke="#ff8100" stroke-width="2" /><polyline fill="none" points="112.3265,42.2313 110.585,45.2789 113.6327,41.7959 118.8571,40.9252 119.2925,47.0204" stroke="#ff5500" stroke-width="2" /><polyline fill="none" points="110.585,40.4898 111.4558,42.6667 110.1497,49.6327" stroke="#ff2800" stroke-width="2" /><polyline fill="none" points="96.6531,50.5034 109.2789,40.4898 109.7143,38.3129 97.9592,38.3129 94.9116,39.619 92.7347,41.7959 92.7347,46.1497 94.0408,46.1497" stroke="#e80000" stroke-width="2" /><polyline fill="none" points="101.8776,56.5986 103.619,51.8095 110.1497,49.1973 110.585,52.6803 108.8435,58.3401 106.6667,54.4218" stroke="#b10000" stroke-width="2" /><polyline fill="none" points="104.4898,51.8095 105.7959,51.3741" stroke="#7f0000" stroke-width="2" /></svg>