<?xml version="1.0" encoding="utf-8" ?>
<svg baseProfile="tiny" height="128" version="1.2" viewBox="0,0,128,128" width="128" xmlns="http://www.w3.org/2000/svg" xmlns:ev="http://www.w3.org/2001/xml-events" xmlns:xlink="http://www.w3.org/1999/xlink"><defs /><polyline fill="none" points="55.9729,8.678 26.0339,18.6576 23.4305,20.8271 10.8475,36.0136 9.5458,40.7864 8.678,49.0305 12.1492,60.3119 26.0339,74.6305 36.4475,81.139 55.539,88.5153 78.9695,93.722 108.9085,91.5525 112.3797,88.5153 116.7186,79.8373 119.322,57.2746 118.4542,49.0305 111.078,34.7119 97.1932,25.6 87.2136,22.9966 55.1051,10.4136 51.6339,10.4136" stroke="#00007f" stroke-width="2" /><polyline fill="none" points="34.7119,16.922 42.9559,45.9932 42.9559,63.3492 39.9186,71.5932 34.7119,79.8373" stroke="#7cff79" stroke-width="2" /><polyline fill="none" points="91.9864,24.2983 80.7051,43.3898 76.3661,54.6712 74.6305,61.6136 78.5356,76.3661" stroke="#7f0000" stroke-width="2" /></svg>