<?xml version="1.0" encoding="utf-8" ?>
<svg baseProfile="tiny" height="128" version="1.2" viewBox="0,0,128,128" width="128" xmlns="http://www.w3.org/2000/svg" xmlns:ev="http://www.w3.org/2001/xml-events" xmlns:xlink="http://www.w3.org/1999/xlink"><defs /><polyline fill="none" points="97.1932,13.0169 92.4203,9.9797 81.139,8.678 66.3864,10.4136 52.5017,14.3186 42.0881,19.9593 30.3729,29.0712 21.6949,38.6169 15.1864,49.8983 10.4136,61.1797 8.678,75.4983 9.9797,82.8746 15.1864,92.4203 24.7322,98.061 31.2407,99.7966 47.7288,101.5322 54.6712,100.6644 74.6305,95.8915 85.0441,91.5525 92.4203,85.9119 105.4373,73.3288 118.4542,50.7661 119.322,44.2576 118.0203,39.9186 111.078,29.5051 85.478,14.7525" stroke="#00007f" stroke-width="2" /><polyline fill="none" points="37.3153,31.2407 39.9186,43.3898 37.3153,64.2169 31.2407,80.2712 20.3932,96.7593" stroke="#004cff" stroke-width="2" /><polyline fill="none" points="94.1559,17.7898 91.9864,20.3932 87.2136,34.278 85.0441,60.3119 91.1186,82.4407 100.2305,98.061" stroke="#29ffcd" stroke-width="2" /><polyline fill="none" points="77.2339,37.7492 101.5322,32.5424" stroke="#cdff29" stroke-width="2" /><polyline fill="none" points="81.139,71.5932 103.2678,63.7831" stroke="#ff6700" stroke-width="2" /><polyline fill="none" points="29.5051,51.6339 29.5051,51.6339" stroke="#7f0000" stroke-width="2" /></svg>