<?xml version="1.0" encoding="utf-8" ?>
<svg baseProfile="tiny" height="128" version="1.2" viewBox="0,0,128,128" width="128" xmlns="http://www.w3.org/2000/svg" xmlns:ev="http://www.w3.org/2001/xml-events" xmlns:xlink="http://www.w3.org/1999/xlink"><defs /><polyline fill="none" points="73.3288,10.8475 70.7254,9.1119 62.0475,8.678 44.2576,14.7525 39.0508,17.7898 26.4678,29.5051 19.0915,39.4847 9.5458,59.4441 8.678,68.5559 8.678,75.4983 13.8847,86.7797 19.5254,92.8542 28.6373,99.7966 39.0508,105.0034 49.4644,106.739 64.6508,106.739 76.3661,101.0983 84.1763,93.722 114.1153,59.4441 117.5864,52.5017 119.322,45.5593 119.322,25.6 117.1525,22.5627 111.5119,19.0915 76.8,13.0169 60.3119,14.3186" stroke="#00007f" stroke-width="2" /><polyline fill="none" points="24.7322,36.0136 27.3356,35.1458 30.3729,43.3898 31.6746,55.539 31.6746,78.9695 30.3729,98.061 21.6949,108.0407" stroke="#7cff79" stroke-width="2" /><polyline fill="none" points="117.1525,42.0881 109.3424,45.9932 103.2678,51.2 97.6271,59.4441 93.722,75.4983 94.1559,83.3085" stroke="#7f0000" stroke-width="2" /></svg>