<?xml version="1.0" encoding="utf-8" ?>
<svg baseProfile="tiny" height="128" version="1.2" viewBox="0,0,128,128" width="128" xmlns="http://www.w3.org/2000/svg" xmlns:ev="http://www.w3.org/2001/xml-events" xmlns:xlink="http://www.w3.org/1999/xlink"><defs /><polyline fill="none" points="44.6915,12.5831 38.6169,13.8847 32.5424,18.2237 25.6,25.6 16.922,39.0508 10.4136,60.7458 8.678,71.1593 9.1119,80.7051 12.5831,95.0237 22.9966,109.7763 29.5051,114.5492 36.8814,117.5864 52.5017,119.322 61.6136,117.5864 76.8,111.078 91.5525,98.4949 99.3627,88.0814 105.4373,75.9322 108.4746,65.0847 108.9085,55.1051 105.8712,42.9559 98.4949,30.8068 90.6847,22.9966 78.9695,14.7525 70.2915,11.2814 59.4441,9.1119 46.4271,9.9797 42.0881,12.5831" stroke="#00007f" stroke-width="2" /><polyline fill="none" points="62.4814,8.678 61.1797,10.8475 59.0102,42.522 56.8407,55.539 51.2,73.7627 42.0881,91.1186 21.6949,113.2475" stroke="#7cff79" stroke-width="2" /><polyline fill="none" points="59.0102,13.4508 61.6136,23.8644 65.5186,54.6712 71.5932,76.8 83.7424,97.1932 88.9492,101.5322 94.1559,101.5322" stroke="#7f0000" stroke-width="2" /></svg>