<?xml version="1.0" encoding="utf-8" ?>
<svg baseProfile="tiny" height="128" version="1.2" viewBox="0,0,128,128" width="128" xmlns="http://www.w3.org/2000/svg" xmlns:ev="http://www.w3.org/2001/xml-events" xmlns:xlink="http://www.w3.org/1999/xlink"><defs /><polyline fill="none" points="111.4558,23.0748 108.8435,23.0748 102.7483,15.6735 99.7007,13.932 81.8503,12.6259 74.449,13.4966 64.4354,20.898 62.6939,26.1224 64.8707,30.0408 81.8503,43.102 98.8299,47.8912 114.9388,48.3265 119.2925,45.2789 119.2925,34.8299 114.9388,28.7347 106.6667,23.0748 104.9252,18.7211 101.8776,20.898 94.9116,30.4762 94.9116,38.7483 99.7007,46.585" stroke="#00007f" stroke-width="2" /><polyline fill="none" points="81.8503,10.8844 84.898,11.7551 84.898,20.0272 82.7211,27.8639 82.2857,39.1837 80.1088,45.2789 77.932,45.7143" stroke="#7cff79" stroke-width="2" /><polyline fill="none" points="8.7075,8.7075 23.9456,9.5782 50.9388,20.4626 53.9864,22.2041 53.1156,23.5102" stroke="#7f0000" stroke-width="2" /></svg>