<?xml version="1.0" encoding="utf-8" ?>
<svg baseProfile="tiny" height="128" version="1.2" viewBox="0,0,128,128" width="128" xmlns="http://www.w3.org/2000/svg" xmlns:ev="http://www.w3.org/2001/xml-events" xmlns:xlink="http://www.w3.org/1999/xlink"><defs /><polyline fill="none" points="38.7483,41.3605 26.9932,48.7619 17.415,58.7755 11.7551,68.7891 8.7075,79.6735 8.7075,91.4286 13.0612,101.4422 20.0272,108.8435 31.7823,114.9388 49.1973,118.4218 68.3537,118.4218 79.2381,116.6803 94.4762,110.585 104.4898,102.7483 110.1497,91.8639 111.4558,84.898 111.0204,69.2245 105.3605,53.1156 100.1361,44.8435 93.6054,36.1361 78.3673,21.7687 69.6599,16.1088 54.4218,10.0136 49.1973,8.7075 36.5714,9.1429" stroke="#00007f" stroke-width="2" /><polyline fill="none" points="37.8776,54.4218 45.2789,70.0952 47.4558,85.3333 43.9728,97.0884 37.4422,105.3605" stroke="#00d4ff" stroke-width="2" /><polyline fill="none" points="84.898,32.2177 79.6735,61.3878 78.3673,90.9932 83.5918,108.8435 87.5102,115.3741 90.9932,118.8571 92.7347,119.2925 95.3469,117.9864 95.3469,115.8095" stroke="#ffe500" stroke-width="2" /><polyline fill="none" points="20.4626,84.898 61.8231,85.3333 114.068,80.9796" stroke="#7f0000" stroke-width="2" /></svg>