<?xml version="1.0" encoding="utf-8" ?>
<svg baseProfile="tiny" height="128" version="1.2" viewBox="0,0,128,128" width="128" xmlns="http://www.w3.org/2000/svg" xmlns:ev="http://www.w3.org/2001/xml-events" xmlns:xlink="http://www.w3.org/1999/xlink"><defs /><polyline fill="none" points="68.9898,31.6746 52.0678,27.3356 36.8814,27.7695 28.6373,31.2407 21.6949,36.4475 15.6203,44.6915 11.2814,54.2373 9.5458,65.0847 8.678,88.9492 12.1492,98.9288 17.3559,106.739 24.7322,111.078 34.7119,113.6814 45.9932,113.6814 59.878,111.078 72.461,104.1356 83.7424,95.4576 102.8339,75.0644 109.3424,64.6508 113.2475,53.8034 114.5492,42.9559 113.6814,33.4102 109.3424,25.6 102.4,18.2237 94.1559,12.5831 78.5356,8.678 70.7254,8.678 63.7831,10.4136 56.4068,14.3186" stroke="#00007f" stroke-width="2" /><polyline fill="none" points="19.9593,40.3525 18.6576,44.6915 26.9017,75.4983 28.2034,95.0237 26.0339,103.7017 16.0542,119.322" stroke="#7cff79" stroke-width="2" /><polyline fill="none" points="111.5119,25.1661 108.4746,25.1661 104.1356,27.7695 86.7797,44.2576 78.1017,56.4068 74.6305,64.6508 72.8949,71.5932 72.461,84.6102 75.4983,94.1559 83.3085,106.739" stroke="#7f0000" stroke-width="2" /></svg>