<?xml version="1.0" encoding="utf-8" ?>
<svg baseProfile="tiny" height="128" version="1.2" viewBox="0,0,128,128" width="128" xmlns="http://www.w3.org/2000/svg" xmlns:ev="http://www.w3.org/2001/xml-events" xmlns:xlink="http://www.w3.org/1999/xlink"><defs /><polyline fill="none" points="56.4068,8.678 46.861,11.2814 35.5797,19.9593 20.8271,36.4475 13.4508,50.3322 9.1119,65.0847 8.678,76.8 13.4508,95.8915 18.2237,101.5322 27.7695,106.739 44.2576,112.3797 61.1797,114.9831 70.7254,114.5492 82.4407,111.078 94.5898,106.739 104.1356,100.2305 116.7186,85.0441 119.322,65.5186 112.3797,50.7661 102.8339,38.6169 82.4407,20.3932 65.9525,10.4136 60.3119,9.5458 54.6712,10.4136" stroke="#00007f" stroke-width="2" /><polyline fill="none" points="31.2407,25.1661 37.3153,31.2407 44.6915,47.2949 47.7288,62.0475 47.7288,68.5559 41.2203,96.3254 38.1831,101.0983 29.939,107.6068" stroke="#7cff79" stroke-width="2" /><polyline fill="none" points="98.9288,33.4102 89.8169,59.4441 78.1017,76.8 75.0644,85.9119 75.0644,91.9864 90.2508,107.1729" stroke="#7f0000" stroke-width="2" /></svg>