<?xml version="1.0" encoding="utf-8" ?>
<svg baseProfile="tiny" height="128" version="1.2" viewBox="0,0,128,128" width="128" xmlns="http://www.w3.org/2000/svg" xmlns:ev="http://www.w3.org/2001/xml-events" xmlns:xlink="http://www.w3.org/1999/xlink"><defs /><polyline fill="none" points="94.5898,11.7153 91.1186,9.5458 82.8746,8.678 56.4068,17.7898 17.3559,42.0881 12.5831,48.5966 8.678,63.7831 9.1119,70.2915 11.2814,75.9322 28.2034,96.7593 42.522,105.8712 49.0305,108.0407 60.3119,108.9085 82.8746,105.0034 91.5525,101.0983 101.9661,93.722 113.6814,81.139 118.8881,68.122 119.322,56.4068 117.1525,44.2576 109.3424,29.5051 105.0034,25.6 101.5322,14.7525 96.3254,12.1492" stroke="#00007f" stroke-width="2" /><polyline fill="none" points="55.9729,18.2237 63.3492,39.0508 62.0475,67.6881 54.6712,91.1186 50.3322,95.4576 39.0508,101.9661" stroke="#7cff79" stroke-width="2" /><polyline fill="none" points="104.1356,25.6 93.722,45.9932 86.7797,65.9525 84.1763,79.4034 84.1763,92.8542 87.6475,100.2305" stroke="#7f0000" stroke-width="2" /></svg>