<?xml version="1.0" encoding="utf-8" ?>
<svg baseProfile="tiny" height="128" version="1.2" viewBox="0,0,128,128" width="128" xmlns="http://www.w3.org/2000/svg" xmlns:ev="http://www.w3.org/2001/xml-events" xmlns:xlink="http://www.w3.org/1999/xlink"><defs /><polyline fill="none" points="61.1797,10.4136 54.6712,8.678 33.8441,9.1119 19.0915,15.6203 10.4136,28.2034 8.678,45.5593 15.1864,61.6136 29.939,78.5356 45.5593,89.3831 53.8034,93.2881 63.7831,95.4576 85.478,94.5898 102.4,85.478 113.2475,78.5356 118.0203,70.7254 119.322,55.1051 112.8136,36.4475 104.1356,23.8644 99.3627,19.0915 85.478,10.8475 58.5763,9.9797" stroke="#00007f" stroke-width="2" /><polyline fill="none" points="47.2949,10.4136 48.5966,26.0339 39.9186,46.861 31.6746,55.539 18.6576,60.3119" stroke="#7cff79" stroke-width="2" /><polyline fill="none" points="104.1356,26.0339 91.5525,43.3898 86.7797,53.8034 86.7797,63.7831 89.3831,75.9322 91.5525,81.5729 98.4949,86.3458" stroke="#7f0000" stroke-width="2" /></svg>