<?xml version="1.0" encoding="utf-8" ?>
<svg baseProfile="tiny" height="128" version="1.2" viewBox="0,0,128,128" width="128" xmlns="http://www.w3.org/2000/svg" xmlns:ev="http://www.w3.org/2001/xml-events" xmlns:xlink="http://www.w3.org/1999/xlink"><defs /><polyline fill="none" points="77.932,8.7075 47.8912,14.3673 37.0068,20.0272 27.8639,27.4286 9.1429,62.6939 8.7075,77.932 13.0612,84.898 19.5918,90.9932 40.4898,99.2653 49.1973,99.2653 90.5578,95.3469 108.8435,86.6395 117.9864,77.932 119.2925,71.4014 119.2925,41.3605 107.5374,25.6871 97.5238,16.1088 88.381,9.5782 81.8503,9.5782" stroke="#00007f" stroke-width="2" /><polyline fill="none" points="37.8776,19.1565 50.068,35.7007 53.9864,43.102 53.9864,63.1293 47.0204,90.1224 43.9728,93.6054 35.7007,96.6531" stroke="#7cff79" stroke-width="2" /><polyline fill="none" points="94.0408,13.4966 89.2517,25.6871 87.0748,38.7483 85.7687,71.8367 88.381,75.3197 92.7347,77.4966 95.3469,84.898 100.5714,90.9932" stroke="#7f0000" stroke-width="2" /></svg>