<?xml version="1.0" encoding="utf-8" ?>
<svg baseProfile="tiny" height="128" version="1.2" viewBox="0,0,128,128" width="128" xmlns="http://www.w3.org/2000/svg" xmlns:ev="http://www.w3.org/2001/xml-events" xmlns:xlink="http://www.w3.org/1999/xlink"><defs /><polyline fill="none" points="59.4441,10.4136 48.1627,11.2814 33.4102,19.0915 19.0915,29.939 11.2814,40.3525 8.678,55.1051 9.5458,78.5356 11.2814,85.9119 20.8271,96.3254 40.7864,99.7966 73.7627,98.4949 96.3254,88.5153 113.2475,70.2915 118.4542,60.3119 119.322,53.8034 118.4542,45.5593 114.1153,39.4847 92.8542,18.2237 82.4407,10.4136 77.2339,8.678 55.1051,8.678" stroke="#00007f" stroke-width="2" /><polyline fill="none" points="25.1661,22.5627 34.278,26.4678 44.6915,35.1458 55.9729,59.0102 56.8407,86.3458 54.2373,99.7966 54.2373,108.0407 48.1627,104.5695" stroke="#7cff79" stroke-width="2" /><polyline fill="none" points="92.8542,21.6949 83.3085,54.2373 82.4407,77.2339 85.0441,86.7797" stroke="#7f0000" stroke-width="2" /></svg>