<?xml version="1.0" encoding="utf-8" ?>
<svg baseProfile="tiny" height="128" version="1.2" viewBox="0,0,128,128" width="128" xmlns="http://www.w3.org/2000/svg" xmlns:ev="http://www.w3.org/2001/xml-events" xmlns:xlink="http://www.w3.org/1999/xlink"><defs /><polyline fill="none" points="62.2585,8.7075 52.6803,9.1429 46.1497,11.7551 30.0408,21.7687 26.1224,25.6871 15.2381,39.619 8.7075,52.6803 8.7075,64.8707 15.6735,76.1905 20.0272,80.5442 30.9116,88.381 40.0544,93.1701 50.068,97.5238 69.2245,102.7483 89.2517,103.1837 100.5714,98.8299 106.6667,92.7347 117.551,68.7891 119.2925,59.2109 118.4218,47.0204 107.5374,26.1224 97.5238,14.8027 88.381,11.3197 61.3878,10.8844 56.1633,9.5782" stroke="#00007f" stroke-width="2" /><polyline fill="none" points="33.5238,13.4966 50.5034,47.8912 60.517,75.3197 60.517,87.9456 53.551,96.2177" stroke="#7cff79" stroke-width="2" /><polyline fill="none" points="104.0544,22.2041 103.1837,35.2653 96.2177,59.2109 95.7823,74.449 101.4422,86.6395 106.6667,94.0408 107.9728,94.0408" stroke="#7f0000" stroke-width="2" /></svg>