<?xml version="1.0" encoding="utf-8" ?>
<svg baseProfile="tiny" height="128" version="1.2" viewBox="0,0,128,128" width="128" xmlns="http://www.w3.org/2000/svg" xmlns:ev="http://www.w3.org/2001/xml-events" xmlns:xlink="http://www.w3.org/1999/xlink"><defs /><polyline fill="none" points="26.9017,9.5458 22.9966,8.678 16.4881,10.4136 9.1119,15.6203 8.678,21.261 10.4136,25.1661 14.3186,29.939 19.5254,32.1085 26.0339,29.939 28.6373,26.9017 29.0712,15.1864 25.1661,9.1119" stroke="#00007f" stroke-width="2" /><polyline fill="none" points="25.1661,9.1119 22.1288,12.5831 21.6949,16.922 25.6,21.6949 28.6373,22.1288" stroke="#0080ff" stroke-width="2" /><polyline fill="none" points="12.1492,13.0169 13.8847,16.4881 13.8847,21.6949 10.8475,26.0339" stroke="#7cff79" stroke-width="2" /><polyline fill="none" points="17.7898,30.3729 22.5627,26.9017 25.6,27.3356 27.7695,29.5051" stroke="#ff9400" stroke-width="2" /><polyline fill="none" points="119.322,14.3186 73.7627,15.1864 51.6339,17.7898 42.9559,19.5254 35.5797,22.5627 32.9763,24.7322 32.1085,29.5051 33.8441,32.1085 38.1831,34.278 43.3898,34.7119 82.4407,33.8441 98.4949,30.8068 113.2475,25.1661" stroke="#7f0000" stroke-width="2" /></svg>