<?xml version="1.0" encoding="utf-8" ?>
<svg baseProfile="tiny" height="128" version="1.2" viewBox="0,0,128,128" width="128" xmlns="http://www.w3.org/2000/svg" xmlns:ev="http://www.w3.org/2001/xml-events" xmlns:xlink="http://www.w3.org/1999/xlink"><defs /><polyline fill="none" points="119.322,20.3932 114.5492,15.6203 101.9661,10.8475 91.1186,8.678 70.2915,9.5458 55.539,16.922 34.7119,34.7119 19.9593,53.8034 13.8847,65.0847 8.678,81.5729 9.5458,99.7966 16.4881,110.2102 21.6949,113.2475 42.522,116.7186 59.878,116.7186 75.9322,114.1153 83.3085,111.078 94.5898,101.9661 103.2678,89.3831 107.6068,78.5356 113.2475,39.4847 114.9831,11.2814" stroke="#00007f" stroke-width="2" /><polyline fill="none" points="106.3051,8.678 100.6644,12.5831 69.4237,52.0678 49.4644,83.3085 39.4847,110.2102 36.8814,113.6814 33.8441,113.6814" stroke="#0080ff" stroke-width="2" /><polyline fill="none" points="29.0712,75.4983 36.4475,92.8542 51.6339,109.3424 56.4068,111.9458" stroke="#7cff79" stroke-width="2" /><polyline fill="none" points="46.4271,57.2746 54.2373,68.5559 68.5559,81.5729" stroke="#ff9400" stroke-width="2" /><polyline fill="none" points="57.2746,31.2407 59.878,34.7119 60.7458,37.3153 67.6881,48.5966 77.6678,59.878 79.8373,60.7458" stroke="#7f0000" stroke-width="2" /></svg>