<?xml version="1.0" encoding="utf-8" ?>
<svg baseProfile="tiny" height="128" version="1.2" viewBox="0,0,128,128" width="128" xmlns="http://www.w3.org/2000/svg" xmlns:ev="http://www.w3.org/2001/xml-events" xmlns:xlink="http://www.w3.org/1999/xlink"><defs /><polyline fill="none" points="68.9898,26.0339 69.8576,19.0915 65.5186,13.0169 59.0102,9.5458 49.8983,8.678 30.8068,15.6203 20.3932,22.9966 14.3186,31.2407 9.5458,41.2203 8.678,55.9729 10.8475,65.5186 17.7898,80.2712 30.8068,94.1559 42.522,101.9661 59.4441,106.3051 67.6881,106.3051 83.3085,104.1356 94.5898,99.7966 105.4373,93.2881 111.078,86.7797 117.5864,74.6305 119.322,65.5186 117.1525,53.8034 111.5119,42.522 101.5322,30.8068 88.5153,19.9593 79.8373,15.1864 67.6881,11.2814 60.3119,11.2814 49.4644,16.922" stroke="#00007f" stroke-width="2" /><polyline fill="none" points="81.5729,15.1864 79.8373,29.0712 79.8373,49.8983 83.3085,67.6881 93.2881,89.8169 103.2678,99.3627" stroke="#004cff" stroke-width="2" /><polyline fill="none" points="33.4102,13.8847 41.2203,31.2407 43.3898,43.3898 44.2576,59.878 39.9186,78.9695 26.9017,98.061" stroke="#29ffcd" stroke-width="2" /><polyline fill="none" points="60.7458,13.8847 59.878,22.5627" stroke="#cdff29" stroke-width="2" /><polyline fill="none" points="61.6136,41.2203 62.9153,50.7661" stroke="#ff6700" stroke-width="2" /><polyline fill="none" points="64.6508,74.1966 65.0847,87.6475" stroke="#7f0000" stroke-width="2" /></svg>