<?xml version="1.0" encoding="utf-8" ?>
<svg baseProfile="tiny" height="128" version="1.2" viewBox="0,0,128,128" width="128" xmlns="http://www.w3.org/2000/svg" xmlns:ev="http://www.w3.org/2001/xml-events" xmlns:xlink="http://www.w3.org/1999/xlink"><defs /><polyline fill="none" points="56.4068,8.678 33.4102,12.5831 25.1661,16.4881 19.5254,20.8271 9.5458,39.4847 8.678,43.8237 9.1119,52.0678 18.6576,75.9322 21.6949,79.8373 31.2407,87.2136 48.1627,95.0237 60.7458,98.4949 85.9119,99.7966 97.6271,95.8915 104.1356,91.5525 108.9085,87.2136 112.8136,80.7051 118.8881,62.4814 119.322,53.3695 117.1525,44.6915 112.3797,36.8814 105.8712,31.2407 88.9492,19.9593 57.2746,10.4136 47.7288,9.9797" stroke="#00007f" stroke-width="2" /><polyline fill="none" points="38.1831,19.0915 42.522,27.3356 46.4271,55.1051 43.8237,63.7831 39.0508,70.7254 35.1458,81.139" stroke="#7cff79" stroke-width="2" /><polyline fill="none" points="97.1932,30.8068 89.8169,37.3153 85.0441,47.7288 82.8746,56.4068 84.1763,69.8576 93.722,88.5153" stroke="#7f0000" stroke-width="2" /></svg>