<?xml version="1.0" encoding="utf-8" ?>
<svg baseProfile="tiny" height="128" version="1.2" viewBox="0,0,128,128" width="128" xmlns="http://www.w3.org/2000/svg" xmlns:ev="http://www.w3.org/2001/xml-events" xmlns:xlink="http://www.w3.org/1999/xlink"><defs /><polyline fill="none" points="55.1051,9.1119 43.8237,14.7525 36.0136,20.8271 21.6949,35.1458 16.922,42.522 10.8475,56.4068 8.678,72.461 8.678,82.8746 10.4136,92.4203 14.3186,101.5322 19.9593,109.3424 27.3356,114.9831 35.5797,118.4542 52.5017,119.322 64.2169,117.1525 70.7254,113.2475 83.3085,102.4 95.8915,88.0814 103.2678,72.8949 105.0034,66.3864 105.0034,52.5017 96.7593,32.9763 81.139,17.3559 71.1593,11.2814 62.9153,8.678" stroke="#00007f" stroke-width="2" /><polyline fill="none" points="39.9186,19.0915 45.9932,36.4475 45.9932,46.861 40.7864,69.8576 35.1458,86.7797 26.4678,107.6068 20.8271,115.8508" stroke="#7cff79" stroke-width="2" /><polyline fill="none" points="84.6102,15.1864 77.2339,33.8441 74.6305,54.2373 76.3661,95.0237 81.5729,111.5119" stroke="#7f0000" stroke-width="2" /></svg>