<?xml version="1.0" encoding="utf-8" ?>
<svg baseProfile="tiny" height="128" version="1.2" viewBox="0,0,128,128" width="128" xmlns="http://www.w3.org/2000/svg" xmlns:ev="http://www.w3.org/2001/xml-events" xmlns:xlink="http://www.w3.org/1999/xlink"><defs /><polyline fill="none" points="39.0508,8.678 64.2169,12.5831 86.3458,21.261 109.3424,45.1254 119.322,59.0102 119.322,65.5186 106.739,92.8542 95.4576,105.4373 88.9492,110.6441 74.1966,116.7186 52.9356,116.7186 46.4271,115.4169 32.5424,106.739 19.9593,88.0814 8.678,59.0102 8.678,45.1254 11.2814,38.6169 26.0339,17.7898 33.8441,11.2814" stroke="#00007f" stroke-width="2" /><polyline fill="none" points="32.5424,14.7525 49.8983,26.0339 63.7831,31.2407 62.9153,37.3153 51.2,51.6339 37.7492,65.0847 18.6576,80.2712" stroke="#7cff79" stroke-width="2" /><polyline fill="none" points="104.1356,41.2203 98.061,42.522 84.1763,53.8034 79.4034,59.878 77.6678,66.3864 77.6678,72.8949 80.2712,81.5729 91.5525,96.7593 96.7593,96.7593" stroke="#7f0000" stroke-width="2" /></svg>