<?xml version="1.0" encoding="utf-8" ?>
<svg baseProfile="tiny" height="128" version="1.2" viewBox="0,0,128,128" width="128" xmlns="http://www.w3.org/2000/svg" xmlns:ev="http://www.w3.org/2001/xml-events" xmlns:xlink="http://www.w3.org/1999/xlink"><defs /><polyline fill="none" points="54.2373,17.7898 49.4644,13.8847 40.7864,11.2814 23.8644,20.8271 16.0542,27.3356 11.2814,39.0508 8.678,50.3322 8.678,72.461 13.0169,84.1763 21.6949,95.4576 31.6746,102.4 46.4271,106.739 65.5186,109.7763 95.4576,110.2102 103.7017,103.2678 111.5119,91.5525 116.7186,78.5356 119.322,67.2542 119.322,56.4068 117.5864,50.3322 110.6441,37.7492 98.9288,27.7695 78.9695,15.6203 72.8949,12.5831 49.0305,8.678" stroke="#00007f" stroke-width="2" /><polyline fill="none" points="14.3186,30.3729 15.6203,33.4102 21.6949,38.1831 52.0678,47.2949 88.5153,51.2 101.5322,51.2 109.3424,49.0305 110.6441,47.7288" stroke="#7cff79" stroke-width="2" /><polyline fill="none" points="20.3932,91.9864 33.8441,87.2136 63.3492,86.7797 88.0814,93.722 96.7593,99.3627" stroke="#7f0000" stroke-width="2" /></svg>