<?xml version="1.0" encoding="utf-8" ?>
<svg baseProfile="tiny" height="128" version="1.2" viewBox="0,0,128,128" width="128" xmlns="http://www.w3.org/2000/svg" xmlns:ev="http://www.w3.org/2001/xml-events" xmlns:xlink="http://www.w3.org/1999/xlink"><defs /><polyline fill="none" points="76.8,13.4508 59.0102,13.4508 46.4271,16.4881 34.7119,23.8644 19.9593,42.522 10.4136,65.0847 8.678,85.478 10.4136,91.5525 16.0542,100.2305 20.3932,101.9661 28.6373,109.3424 41.2203,114.9831 51.2,118.0203 78.9695,119.322 100.6644,104.5695 108.0407,91.9864 112.3797,73.3288 108.0407,47.2949 104.5695,39.0508 96.7593,26.0339 88.0814,14.7525 78.9695,9.1119 69.4237,8.678" stroke="#00007f" stroke-width="2" /><polyline fill="none" points="31.2407,22.9966 37.3153,22.9966 51.2,34.7119 57.2746,47.2949 58.5763,64.6508 56.4068,71.1593 49.0305,82.4407 29.939,93.2881 19.9593,93.722" stroke="#7cff79" stroke-width="2" /><polyline fill="none" points="101.0983,31.2407 98.061,32.1085 85.0441,45.1254 81.5729,54.6712 78.9695,66.8203 80.7051,75.4983 85.478,84.1763 95.4576,91.5525 106.739,97.6271" stroke="#7f0000" stroke-width="2" /></svg>