<?xml version="1.0" encoding="utf-8" ?>
<svg baseProfile="tiny" height="128" version="1.2" viewBox="0,0,128,128" width="128" xmlns="http://www.w3.org/2000/svg" xmlns:ev="http://www.w3.org/2001/xml-events" xmlns:xlink="http://www.w3.org/1999/xlink"><defs /><polyline fill="none" points="16.5442,28.7347 18.7211,45.7143 18.7211,83.1565 16.1088,101.8776 18.2857,102.3129 24.8163,98.8299 37.0068,98.8299 40.4898,73.5782 40.9252,43.5374 36.5714,27.8639 36.5714,11.7551 34.8299,9.5782 27.4286,8.7075 19.1565,9.5782 14.8027,30.9116" stroke="#00007f" stroke-width="2" /><polyline fill="none" points="9.5782,16.5442 8.7075,56.5986 64.0,57.034 65.7415,54.8571 59.2109,29.1701 58.7755,21.7687 55.2925,20.0272 47.8912,19.1565 20.0272,19.1565" stroke="#0000fe" stroke-width="2" /><polyline fill="none" points="18.7211,57.034 21.7687,68.7891 42.6667,69.2245 43.9728,67.0476 42.6667,58.7755" stroke="#0060ff" stroke-width="2" /><polyline fill="none" points="91.4286,75.3197 80.9796,74.8844 69.2245,82.2857 64.8707,93.1701 64.8707,114.5034 72.2721,119.2925 80.5442,119.2925 93.6054,114.9388 99.7007,104.0544 102.3129,94.9116 102.3129,84.898 98.8299,81.8503 90.1224,78.3673" stroke="#00d4ff" stroke-width="2" /><polyline fill="none" points="77.0612,78.3673 73.1429,111.0204" stroke="#4cffaa" stroke-width="2" /><polyline fill="none" points="94.0408,80.5442 80.1088,110.585" stroke="#aaff4c" stroke-width="2" /><polyline fill="none" points="96.6531,90.1224 87.0748,111.0204 83.5918,111.4558" stroke="#ffe500" stroke-width="2" /><polyline fill="none" points="64.4354,81.415 66.6122,84.898 75.7551,88.8163 87.0748,90.9932 111.4558,92.2993 109.7143,93.1701" stroke="#ff7a00" stroke-width="2" /><polyline fill="none" points="68.7891,96.2177 72.7075,99.7007 83.1565,102.3129 86.6395,107.5374" stroke="#fe1200" stroke-width="2" /><polyline fill="none" points="69.2245,105.7959 69.6599,109.7143 81.8503,112.7619" stroke="#7f0000" stroke-width="2" /></svg>