<?xml version="1.0" encoding="utf-8" ?>
<svg baseProfile="tiny" height="128" version="1.2" viewBox="0,0,128,128" width="128" xmlns="http://www.w3.org/2000/svg" xmlns:ev="http://www.w3.org/2001/xml-events" xmlns:xlink="http://www.w3.org/1999/xlink"><defs /><polyline fill="none" points="67.6881,14.3186 58.5763,14.3186 42.9559,16.922 34.278,22.1288 13.8847,46.861 8.678,61.6136 8.678,80.2712 10.4136,88.9492 16.922,99.3627 25.6,107.6068 35.1458,111.9458 43.8237,115.8508 64.2169,119.322 73.3288,119.322 77.6678,117.5864 96.7593,105.4373 101.0983,101.0983 107.6068,91.9864 114.1153,76.3661 117.5864,63.3492 117.5864,49.4644 111.9458,24.7322 110.2102,20.3932 105.8712,16.922 82.8746,8.678 73.7627,8.678 51.2,12.1492" stroke="#00007f" stroke-width="2" /><polyline fill="none" points="62.9153,12.1492 46.861,30.8068 42.9559,39.4847 38.6169,66.8203 38.6169,84.6102 41.2203,93.722 48.5966,102.8339 54.2373,105.8712" stroke="#7f0000" stroke-width="2" /></svg>