<?xml version="1.0" encoding="utf-8" ?>
<svg baseProfile="tiny" height="128" version="1.2" viewBox="0,0,128,128" width="128" xmlns="http://www.w3.org/2000/svg" xmlns:ev="http://www.w3.org/2001/xml-events" xmlns:xlink="http://www.w3.org/1999/xlink"><defs /><polyline fill="none" points="69.8576,72.0271 80.2712,86.3458 86.3458,92.4203 92.4203,94.5898 96.7593,88.9492 95.8915,82.4407 93.2881,78.1017 82.0068,63.3492 75.9322,58.5763 69.8576,57.2746 66.8203,60.3119 66.3864,68.122 69.8576,76.3661" stroke="#00007f" stroke-width="2" /><polyline fill="none" points="81.5729,58.1424 75.9322,45.1254 61.6136,22.9966 54.2373,14.3186 45.9932,10.4136 39.4847,8.678 33.4102,9.5458 28.2034,13.8847 25.6,20.3932 26.4678,32.5424 29.0712,41.2203 34.7119,51.6339 40.3525,57.2746 49.4644,62.0475 71.1593,69.8576" stroke="#0000e8" stroke-width="2" /><polyline fill="none" points="20.8271,69.8576 28.2034,75.9322 32.9763,77.2339 36.4475,75.9322 39.9186,72.0271 39.9186,68.5559 38.1831,65.5186 32.1085,62.0475 25.1661,62.0475 15.6203,64.6508 13.8847,65.5186 13.0169,68.5559" stroke="#0038ff" stroke-width="2" /><polyline fill="none" points="26.4678,61.1797 26.0339,72.8949" stroke="#0094ff" stroke-width="2" /><polyline fill="none" points="37.3153,63.3492 35.5797,73.7627" stroke="#0cf4ea" stroke-width="2" /><polyline fill="none" points="23.8644,66.8203 32.9763,69.4237" stroke="#56ffa0" stroke-width="2" /><polyline fill="none" points="51.6339,24.7322 47.2949,26.0339 40.3525,30.8068 36.4475,34.278 32.9763,40.7864" stroke="#a0ff56" stroke-width="2" /><polyline fill="none" points="62.4814,34.7119 49.8983,44.2576 43.3898,55.1051" stroke="#eaff0c" stroke-width="2" /><polyline fill="none" points="29.5051,50.3322 28.2034,55.1051" stroke="#ffaa00" stroke-width="2" /><polyline fill="none" points="21.6949,96.3254 21.6949,96.3254" stroke="#ff5500" stroke-width="2" /><polyline fill="none" points="24.7322,99.3627 20.8271,84.6102 16.0542,81.139 11.7153,80.7051 9.5458,82.8746 8.678,88.9492 17.3559,112.3797" stroke="#e80000" stroke-width="2" /><polyline fill="none" points="25.6,89.3831 30.3729,83.3085 33.4102,81.5729 36.0136,84.1763 32.9763,100.2305 43.3898,89.8169 48.1627,88.5153 53.3695,91.1186 54.6712,95.8915 52.0678,104.5695 44.2576,113.6814 39.4847,116.7186 32.9763,119.322 27.3356,119.322 22.5627,117.5864 14.7525,108.4746" stroke="#7f0000" stroke-width="2" /></svg>