<?xml version="1.0" encoding="utf-8" ?>
<svg baseProfile="tiny" height="128" version="1.2" viewBox="0,0,128,128" width="128" xmlns="http://www.w3.org/2000/svg" xmlns:ev="http://www.w3.org/2001/xml-events" xmlns:xlink="http://www.w3.org/1999/xlink"><defs /><polyline fill="none" points="72.461,23.4305 65.9525,14.3186 57.2746,8.678 48.1627,9.5458 26.0339,20.3932 20.3932,25.6 9.1119,49.4644 8.678,61.6136 13.0169,70.7254 25.1661,80.7051 32.9763,84.1763 45.1254,85.478 85.478,84.1763 103.2678,80.2712 115.4169,73.3288 118.8881,68.5559 119.322,64.6508 116.7186,55.539 112.8136,49.8983 106.739,45.9932 82.8746,36.8814 80.7051,33.8441 76.8,13.0169 74.6305,12.1492 71.5932,14.3186 65.9525,13.8847" stroke="#00007f" stroke-width="2" /><polyline fill="none" points="31.2407,35.5797 54.6712,35.5797 64.2169,38.6169 78.5356,52.0678 92.4203,59.878 102.8339,68.5559 111.078,78.1017" stroke="#00d4ff" stroke-width="2" /><polyline fill="none" points="32.1085,34.278 17.3559,33.8441" stroke="#ffe500" stroke-width="2" /><polyline fill="none" points="48.1627,14.7525 49.8983,36.4475 49.8983,61.1797 56.8407,79.8373 58.5763,83.7424 65.0847,88.9492" stroke="#7f0000" stroke-width="2" /></svg>