<?xml version="1.0" encoding="utf-8" ?>
<svg baseProfile="tiny" height="128" version="1.2" viewBox="0,0,128,128" width="128" xmlns="http://www.w3.org/2000/svg" xmlns:ev="http://www.w3.org/2001/xml-events" xmlns:xlink="http://www.w3.org/1999/xlink"><defs /><polyline fill="none" points="84.6102,16.0542 64.6508,9.5458 50.7661,8.678 42.522,9.9797 34.278,14.7525 23.4305,25.1661 9.9797,34.278 8.678,46.861 12.1492,72.8949 15.6203,82.4407 26.0339,94.1559 31.6746,98.4949 49.8983,105.4373 67.6881,108.9085 88.0814,109.3424 94.1559,108.4746 98.061,105.8712 118.0203,86.7797 119.322,74.1966 118.4542,62.4814 108.4746,39.4847 100.2305,30.8068" stroke="#00007f" stroke-width="2" /><polyline fill="none" points="100.2305,30.8068 100.2305,30.8068" stroke="#00d4ff" stroke-width="2" /><polyline fill="none" points="98.061,30.8068 84.6102,16.922" stroke="#ffe500" stroke-width="2" /><polyline fill="none" points="28.2034,21.261 38.1831,39.4847 41.2203,51.2 41.6542,60.3119 41.2203,74.1966 29.0712,95.8915" stroke="#7f0000" stroke-width="2" /></svg>