<?xml version="1.0" encoding="utf-8" ?>
<svg baseProfile="tiny" height="128" version="1.2" viewBox="0,0,128,128" width="128" xmlns="http://www.w3.org/2000/svg" xmlns:ev="http://www.w3.org/2001/xml-events" xmlns:xlink="http://www.w3.org/1999/xlink"><defs /><polyline fill="none" points="61.3878,26.9932 40.9252,25.6871 22.6395,29.1701 16.5442,32.6531 9.5782,39.619 8.7075,45.2789 10.449,47.4558 17.415,50.068 33.9592,51.3741 50.9388,50.5034 66.1769,45.7143 68.7891,41.7959 66.6122,33.9592 62.6939,30.4762 55.7279,29.1701" stroke="#00007f" stroke-width="2" /><polyline fill="none" points="17.415,32.6531 28.2993,35.2653 39.1837,36.1361 50.068,33.0884 56.1633,29.6054" stroke="#0000d5" stroke-width="2" /><polyline fill="none" points="25.6871,50.068 38.3129,46.585 46.585,46.585 52.2449,48.7619" stroke="#001cff" stroke-width="2" /><polyline fill="none" points="35.7007,28.2993 35.7007,48.3265" stroke="#006cff" stroke-width="2" /><polyline fill="none" points="8.7075,41.3605 68.7891,36.1361" stroke="#00b8ff" stroke-width="2" /><polyline fill="none" points="13.0612,47.4558 16.1088,42.6667 16.5442,38.7483 15.2381,36.5714" stroke="#1cffda" stroke-width="2" /><polyline fill="none" points="63.5646,46.1497 60.517,42.6667 61.8231,33.0884 64.4354,30.0408" stroke="#5cff9a" stroke-width="2" /><polyline fill="none" points="63.5646,30.0408 57.034,25.6871" stroke="#9aff5c" stroke-width="2" /><polyline fill="none" points="102.7483,67.0476 100.5714,51.8095 101.0068,38.7483" stroke="#daff1c" stroke-width="2" /><polyline fill="none" points="92.2993,35.2653 113.6327,37.4422 118.4218,37.0068 119.2925,35.7007 116.6803,28.2993 114.5034,8.7075 107.9728,10.8844 93.6054,12.6259 91.8639,31.3469" stroke="#ffcb00" stroke-width="2" /><polyline fill="none" points="99.2653,25.6871 99.7007,29.6054 107.9728,30.4762 108.8435,29.6054 108.4082,25.6871 105.7959,23.0748 99.7007,24.381" stroke="#ff8500" stroke-width="2" /><polyline fill="none" points="101.0068,31.7823 96.2177,31.7823 96.2177,35.7007 101.0068,37.8776 106.6667,37.4422 108.4082,35.2653 107.5374,33.0884 98.8299,32.6531" stroke="#ff3b00" stroke-width="2" /><polyline fill="none" points="93.6054,30.9116 92.2993,35.7007" stroke="#d50000" stroke-width="2" /><polyline fill="none" points="101.0068,37.8776 101.0068,36.1361" stroke="#7f0000" stroke-width="2" /></svg>