<?xml version="1.0" encoding="utf-8" ?>
<svg baseProfile="tiny" height="128" version="1.2" viewBox="0,0,128,128" width="128" xmlns="http://www.w3.org/2000/svg" xmlns:ev="http://www.w3.org/2001/xml-events" xmlns:xlink="http://www.w3.org/1999/xlink"><defs /><polyline fill="none" points="13.0169,11.7153 11.2814,12.5831 9.5458,22.1288 9.5458,31.2407 11.7153,34.278 19.5254,38.1831 29.939,38.1831 36.8814,36.4475 41.6542,29.939 42.0881,17.7898 38.6169,13.8847 34.7119,11.7153 22.1288,8.678" stroke="#00007f" stroke-width="2" /><polyline fill="none" points="12.5831,13.4508 16.0542,13.8847 18.2237,15.6203 21.261,21.6949 21.6949,28.2034 19.5254,29.5051 8.678,29.5051" stroke="#0080ff" stroke-width="2" /><polyline fill="none" points="36.0136,15.1864 31.6746,16.0542 29.5051,20.3932 27.7695,28.2034 27.7695,39.0508 30.3729,40.3525 44.2576,42.0881 65.0847,42.0881" stroke="#7cff79" stroke-width="2" /><polyline fill="none" points="95.0237,33.8441 93.2881,40.3525 84.1763,55.539 55.9729,89.8169 36.0136,108.0407 21.6949,117.1525 16.4881,119.322 15.6203,116.7186 16.0542,112.3797 19.9593,107.1729" stroke="#ff9400" stroke-width="2" /><polyline fill="none" points="94.1559,36.8814 94.1559,36.8814" stroke="#7f0000" stroke-width="2" /></svg>