<?xml version="1.0" encoding="utf-8" ?>
<svg baseProfile="tiny" height="128" version="1.2" viewBox="0,0,128,128" width="128" xmlns="http://www.w3.org/2000/svg" xmlns:ev="http://www.w3.org/2001/xml-events" xmlns:xlink="http://www.w3.org/1999/xlink"><defs /><polyline fill="none" points="56.5986,13.932 49.1973,13.0612 45.7143,14.3673 31.7823,24.381 19.1565,36.1361 11.7551,48.7619 8.7075,60.517 8.7075,80.1088 14.8027,93.1701 22.2041,103.619 32.2177,111.4558 47.0204,118.4218 67.483,119.2925 82.7211,113.1973 89.2517,108.4082 99.2653,97.5238 103.619,87.5102 105.7959,74.8844 104.9252,63.5646 99.7007,50.068 95.3469,42.6667 85.3333,30.9116 74.8844,23.0748 59.2109,11.7551 53.9864,8.7075 51.8095,9.1429" stroke="#00007f" stroke-width="2" /><polyline fill="none" points="75.3197,20.898 63.1293,50.5034 61.8231,67.9184 64.0,78.8027 70.0952,93.1701 80.1088,107.102 86.2041,108.4082" stroke="#00d4ff" stroke-width="2" /><polyline fill="none" points="38.7483,17.8503 43.102,27.4286 44.8435,35.2653 44.8435,69.6599 38.3129,85.3333 29.6054,97.9592 24.381,102.7483" stroke="#ffe500" stroke-width="2" /><polyline fill="none" points="77.4966,59.2109 52.2449,61.3878 26.1224,65.7415 19.5918,65.7415 15.2381,62.6939" stroke="#7f0000" stroke-width="2" /></svg>