<?xml version="1.0" encoding="utf-8" ?>
<svg baseProfile="tiny" height="128" version="1.2" viewBox="0,0,128,128" width="128" xmlns="http://www.w3.org/2000/svg" xmlns:ev="http://www.w3.org/2001/xml-events" xmlns:xlink="http://www.w3.org/1999/xlink"><defs /><polyline fill="none" points="12.5831,42.0881 9.9797,47.7288 8.678,54.6712 10.4136,80.7051 14.3186,96.7593 18.2237,103.2678 23.8644,108.9085 39.4847,117.1525 47.7288,118.8881 55.539,118.8881 74.1966,113.6814 92.4203,103.2678 101.9661,95.0237 109.3424,85.478 114.5492,75.9322 118.0203,65.9525 119.322,56.8407 119.322,48.1627 116.2847,41.2203 111.078,32.1085 98.9288,18.6576 82.4407,10.4136 66.3864,8.678 59.0102,10.4136 49.8983,16.4881" stroke="#00007f" stroke-width="2" /><polyline fill="none" points="100.2305,38.1831 100.6644,36.4475 105.8712,32.5424" stroke="#00d4ff" stroke-width="2" /><polyline fill="none" points="104.5695,34.278 101.0983,38.6169 92.8542,56.8407 83.7424,83.7424 82.0068,98.9288 84.1763,108.4746 86.7797,111.9458" stroke="#ffe500" stroke-width="2" /><polyline fill="none" points="45.1254,40.3525 51.6339,56.8407 53.3695,68.122 35.1458,113.2475" stroke="#7f0000" stroke-width="2" /></svg>