<?xml version="1.0" encoding="utf-8" ?>
<svg baseProfile="tiny" height="128" version="1.2" viewBox="0,0,128,128" width="128" xmlns="http://www.w3.org/2000/svg" xmlns:ev="http://www.w3.org/2001/xml-events" xmlns:xlink="http://www.w3.org/1999/xlink"><defs /><polyline fill="none" points="119.322,22.5627 119.322,22.5627" stroke="#00007f" stroke-width="2" /><polyline fill="none" points="119.322,22.5627 119.322,22.5627" stroke="#004cff" stroke-width="2" /><polyline fill="none" points="29.939,9.1119 22.9966,13.8847 14.7525,22.9966 11.7153,28.2034 8.678,39.9186 11.2814,52.0678 21.261,67.2542 34.278,76.8 49.0305,78.5356 55.539,76.8 64.6508,70.7254 72.461,60.3119 74.6305,50.3322 73.3288,39.9186 67.6881,26.0339 60.3119,16.0542 51.6339,10.4136 42.9559,8.678 32.9763,10.4136 27.3356,14.3186" stroke="#29ffcd" stroke-width="2" /><polyline fill="none" points="59.4441,16.4881 55.1051,32.9763 54.2373,49.0305 56.8407,63.7831 63.3492,77.6678" stroke="#cdff29" stroke-width="2" /><polyline fill="none" points="17.7898,16.4881 25.1661,45.5593 25.6,68.9898" stroke="#ff6700" stroke-width="2" /><polyline fill="none" points="40.7864,11.2814 40.3525,29.0712 43.3898,76.3661" stroke="#7f0000" stroke-width="2" /></svg>