<?xml version="1.0" encoding="utf-8" ?>
<svg baseProfile="tiny" height="128" version="1.2" viewBox="0,0,128,128" width="128" xmlns="http://www.w3.org/2000/svg" xmlns:ev="http://www.w3.org/2001/xml-events" xmlns:xlink="http://www.w3.org/1999/xlink"><defs /><polyline fill="none" points="30.8068,26.4678 37.3153,18.2237 52.5017,10.4136 67.2542,8.678 83.3085,11.2814 99.7966,18.6576 107.6068,27.7695 115.8508,42.0881 119.322,57.2746 118.8881,67.6881 113.6814,85.9119 107.1729,97.6271 97.6271,107.1729 89.3831,111.9458 70.7254,117.1525 53.8034,117.5864 35.5797,112.3797 26.9017,106.3051 16.0542,92.4203 10.4136,77.2339 8.678,61.6136 11.2814,52.0678 18.6576,43.8237 29.939,36.4475 41.2203,31.2407" stroke="#00007f" stroke-width="2" /><polyline fill="none" points="104.1356,23.4305 98.4949,30.8068 89.8169,45.9932 77.6678,76.3661 75.9322,97.6271 78.9695,104.1356 85.0441,111.078" stroke="#7cff79" stroke-width="2" /><polyline fill="none" points="39.9186,11.7153 47.2949,33.8441 50.7661,61.6136 46.4271,91.5525 40.3525,101.0983 34.7119,105.8712" stroke="#7f0000" stroke-width="2" /></svg>