<?xml version="1.0" encoding="utf-8" ?>
<svg baseProfile="tiny" height="128" version="1.2" viewBox="0,0,128,128" width="128" xmlns="http://www.w3.org/2000/svg" xmlns:ev="http://www.w3.org/2001/xml-events" xmlns:xlink="http://www.w3.org/1999/xlink"><defs /><polyline fill="none" points="77.6678,22.5627 72.8949,18.2237 63.7831,16.0542 53.8034,15.6203 39.0508,19.0915 21.6949,31.2407 14.3186,42.522 11.7153,49.0305 8.678,65.5186 9.5458,72.8949 12.1492,82.4407 16.922,89.3831 28.6373,98.4949 47.7288,104.1356 54.2373,104.1356 84.1763,98.9288 94.1559,93.722 104.5695,83.7424 108.0407,77.6678 108.4746,73.3288 107.1729,65.5186 98.4949,52.9356 63.3492,25.1661" stroke="#00007f" stroke-width="2" /><polyline fill="none" points="80.7051,33.8441 78.9695,25.1661" stroke="#0080ff" stroke-width="2" /><polyline fill="none" points="77.6678,31.2407 73.7627,8.678" stroke="#7cff79" stroke-width="2" /><polyline fill="none" points="32.5424,19.9593 39.4847,26.4678 45.9932,37.3153 50.3322,48.5966 51.6339,56.8407 49.8983,74.6305 34.7119,119.322" stroke="#ff9400" stroke-width="2" /><polyline fill="none" points="77.6678,17.7898 72.8949,19.9593 68.9898,31.2407 69.4237,54.2373 72.0271,72.461 73.7627,78.9695 80.2712,91.5525 95.8915,110.6441" stroke="#7f0000" stroke-width="2" /></svg>