<?xml version="1.0" encoding="utf-8" ?>
<svg baseProfile="tiny" height="128" version="1.2" viewBox="0,0,128,128" width="128" xmlns="http://www.w3.org/2000/svg" xmlns:ev="http://www.w3.org/2001/xml-events" xmlns:xlink="http://www.w3.org/1999/xlink"><defs /><polyline fill="none" points="75.4983,11.7153 72.461,11.2814 52.9356,16.0542 42.0881,19.9593 31.2407,26.0339 21.261,34.7119 12.5831,46.861 9.1119,55.9729 8.678,61.1797 9.1119,72.8949 11.2814,82.0068 19.5254,92.8542 31.2407,99.7966 48.5966,106.3051 62.9153,108.9085 82.8746,107.6068 100.6644,102.4 108.9085,94.1559 117.5864,80.2712 119.322,73.3288 119.322,65.9525 114.1153,48.5966 107.6068,38.1831 99.7966,27.7695 91.1186,19.9593 73.7627,9.1119 68.9898,8.678" stroke="#00007f" stroke-width="2" /><polyline fill="none" points="59.0102,13.4508 52.0678,21.6949 41.6542,28.6373 27.3356,42.522 12.1492,65.5186 12.1492,71.1593 16.4881,72.0271 17.3559,70.7254" stroke="#004cff" stroke-width="2" /><polyline fill="none" points="68.122,17.7898 51.2,30.8068 39.4847,44.6915 17.7898,77.6678 17.7898,80.7051" stroke="#29ffcd" stroke-width="2" /><polyline fill="none" points="75.4983,17.3559 73.7627,23.8644 60.3119,49.4644 55.9729,62.0475 45.9932,76.3661 30.3729,93.722" stroke="#cdff29" stroke-width="2" /><polyline fill="none" points="79.4034,19.5254 81.139,39.0508 78.1017,65.9525 72.461,89.3831 64.2169,104.1356" stroke="#ff6700" stroke-width="2" /><polyline fill="none" points="95.0237,24.2983 102.4,57.2746 103.2678,82.0068 100.6644,97.1932" stroke="#7f0000" stroke-width="2" /></svg>