<?xml version="1.0" encoding="utf-8" ?>
<svg baseProfile="tiny" height="128" version="1.2" viewBox="0,0,128,128" width="128" xmlns="http://www.w3.org/2000/svg" xmlns:ev="http://www.w3.org/2001/xml-events" xmlns:xlink="http://www.w3.org/1999/xlink"><defs /><polyline fill="none" points="14.3186,42.0881 13.8847,33.4102 16.922,27.7695 31.2407,18.2237 45.5593,12.5831 64.2169,9.1119 75.9322,8.678 96.3254,13.4508 108.0407,18.6576 114.9831,24.2983 119.322,34.7119 118.8881,42.522 116.7186,50.7661 113.2475,59.0102 107.1729,66.3864 96.3254,75.4983 86.7797,80.2712 35.5797,96.7593 29.0712,98.061 22.1288,96.3254 15.1864,88.0814 10.8475,76.8 8.678,65.9525 9.1119,55.9729 11.2814,48.1627 15.6203,42.522 19.9593,39.4847" stroke="#00007f" stroke-width="2" /><polyline fill="none" points="64.6508,13.4508 57.7085,19.0915 50.7661,27.7695 48.5966,32.1085 49.0305,37.7492 54.6712,42.522 85.478,51.6339 91.5525,59.0102 91.9864,70.2915" stroke="#0000e8" stroke-width="2" /><polyline fill="none" points="9.1119,57.2746 30.3729,50.7661 37.3153,52.9356 40.7864,56.8407 42.0881,62.0475 40.7864,76.8 42.522,82.8746 45.9932,86.3458 49.8983,87.6475 57.2746,85.478" stroke="#0038ff" stroke-width="2" /><polyline fill="none" points="55.539,20.8271 44.6915,29.0712" stroke="#0094ff" stroke-width="2" /><polyline fill="none" points="63.3492,34.278 61.6136,39.0508 55.1051,44.2576" stroke="#0cf4ea" stroke-width="2" /><polyline fill="none" points="78.5356,42.9559 78.5356,51.6339 75.0644,57.7085" stroke="#56ffa0" stroke-width="2" /><polyline fill="none" points="94.5898,49.8983 92.8542,62.0475 88.5153,67.6881" stroke="#a0ff56" stroke-width="2" /><polyline fill="none" points="102.4,62.4814 91.5525,71.5932 84.1763,74.1966" stroke="#eaff0c" stroke-width="2" /><polyline fill="none" points="13.4508,57.2746 32.1085,39.0508" stroke="#ffaa00" stroke-width="2" /><polyline fill="none" points="31.2407,63.3492 43.8237,54.6712 46.861,54.2373" stroke="#ff5500" stroke-width="2" /><polyline fill="none" points="33.4102,76.3661 45.9932,72.8949" stroke="#e80000" stroke-width="2" /><polyline fill="none" points="49.0305,80.7051 56.8407,80.2712" stroke="#7f0000" stroke-width="2" /></svg>