<?xml version="1.0" encoding="utf-8" ?>
<svg baseProfile="tiny" height="128" version="1.2" viewBox="0,0,128,128" width="128" xmlns="http://www.w3.org/2000/svg" xmlns:ev="http://www.w3.org/2001/xml-events" xmlns:xlink="http://www.w3.org/1999/xlink"><defs /><polyline fill="none" points="68.5559,20.3932 62.9153,17.7898 47.7288,17.7898 40.3525,19.9593 28.6373,28.2034 22.1288,36.8814 11.7153,60.7458 8.678,75.4983 8.678,91.5525 15.1864,101.9661 19.5254,105.8712 34.278,114.1153 40.3525,116.2847 56.4068,119.322 72.8949,119.322 78.5356,118.0203 84.6102,114.5492 93.722,108.4746 98.9288,101.9661 103.2678,91.5525 106.3051,73.7627 106.3051,51.6339 98.061,39.0508 94.1559,34.7119 84.6102,28.2034 71.5932,22.9966" stroke="#00007f" stroke-width="2" /><polyline fill="none" points="94.1559,36.4475 87.2136,49.8983 79.8373,55.1051 70.7254,57.7085 49.8983,59.0102 26.9017,48.5966 23.4305,47.7288 22.9966,49.0305" stroke="#004cff" stroke-width="2" /><polyline fill="none" points="16.4881,101.9661 17.3559,98.4949 20.3932,94.5898 25.6,90.2508 33.8441,86.3458 59.0102,85.9119 65.9525,87.2136 78.5356,92.4203 98.061,104.5695" stroke="#29ffcd" stroke-width="2" /><polyline fill="none" points="31.2407,52.9356 26.0339,45.9932 21.6949,44.6915" stroke="#cdff29" stroke-width="2" /><polyline fill="none" points="31.6746,47.2949 19.0915,39.0508" stroke="#ff6700" stroke-width="2" /><polyline fill="none" points="101.9661,40.3525 96.3254,32.5424 85.478,24.7322 78.5356,19.9593 55.9729,10.8475 40.7864,8.678 37.3153,12.5831 35.1458,20.3932" stroke="#7f0000" stroke-width="2" /></svg>