<?xml version="1.0" encoding="utf-8" ?>
<svg baseProfile="tiny" height="128" version="1.2" viewBox="0,0,128,128" width="128" xmlns="http://www.w3.org/2000/svg" xmlns:ev="http://www.w3.org/2001/xml-events" xmlns:xlink="http://www.w3.org/1999/xlink"><defs /><polyline fill="none" points="80.2712,8.678 69.8576,11.7153 37.7492,30.3729 28.2034,37.3153 15.6203,52.5017 9.5458,67.6881 8.678,75.0644 10.4136,89.3831 15.1864,96.3254 28.2034,106.739 44.2576,113.2475 64.6508,111.5119 73.3288,105.8712 80.2712,98.061 94.1559,71.1593 101.5322,41.6542 100.6644,18.6576 95.8915,15.6203 88.0814,15.6203" stroke="#00007f" stroke-width="2" /><polyline fill="none" points="38.1831,26.4678 36.8814,30.8068 45.9932,53.3695 47.7288,65.0847 46.861,85.9119 45.1254,92.8542 39.0508,104.5695 31.6746,111.9458 19.5254,119.322" stroke="#7cff79" stroke-width="2" /><polyline fill="none" points="105.8712,10.4136 82.4407,32.1085 75.9322,42.0881 72.0271,52.0678 70.2915,63.3492 70.2915,79.4034 71.5932,85.0441 75.4983,93.722 80.2712,99.7966 87.2136,103.7017" stroke="#7f0000" stroke-width="2" /></svg>