<?xml version="1.0" encoding="utf-8" ?>
<svg baseProfile="tiny" height="128" version="1.2" viewBox="0,0,128,128" width="128" xmlns="http://www.w3.org/2000/svg" xmlns:ev="http://www.w3.org/2001/xml-events" xmlns:xlink="http://www.w3.org/1999/xlink"><defs /><polyline fill="none" points="23.8644,48.1627 24.2983,45.1254 27.7695,40.7864 36.0136,34.278 63.3492,21.261 81.5729,15.1864 97.6271,14.3186 109.7763,16.4881 116.2847,22.9966 119.322,30.3729 119.322,40.7864 115.4169,52.5017 107.6068,65.5186 97.1932,78.9695 85.0441,90.6847 71.5932,99.3627 56.4068,103.7017 29.0712,103.2678 18.6576,97.6271 12.1492,88.9492 8.678,77.2339 8.678,65.0847 11.7153,54.6712 16.922,45.9932 23.8644,39.4847" stroke="#00007f" stroke-width="2" /><polyline fill="none" points="27.3356,35.1458 32.5424,38.6169 43.8237,51.2 47.2949,59.4441 49.0305,70.7254 49.0305,106.739 46.861,116.7186 44.6915,117.1525 42.9559,114.5492" stroke="#7cff79" stroke-width="2" /><polyline fill="none" points="98.4949,8.678 95.0237,8.678 90.2508,16.4881 79.8373,52.0678 76.8,79.4034 78.1017,84.6102 82.0068,88.5153 86.3458,89.8169" stroke="#7f0000" stroke-width="2" /></svg>