<?xml version="1.0" encoding="utf-8" ?>
<svg baseProfile="tiny" height="128" version="1.2" viewBox="0,0,128,128" width="128" xmlns="http://www.w3.org/2000/svg" xmlns:ev="http://www.w3.org/2001/xml-events" xmlns:xlink="http://www.w3.org/1999/xlink"><defs /><polyline fill="none" points="40.4898,114.068 28.2993,109.2789 19.1565,104.0544 10.0136,91.4286 8.7075,85.3333 9.1429,63.1293 14.3673,46.1497 23.0748,30.0408 27.8639,23.5102 38.7483,13.932 44.8435,11.3197 58.3401,8.7075 73.1429,8.7075 88.381,12.1905 95.7823,14.8027 106.6667,23.5102 114.068,37.4422 116.2449,46.1497 117.1156,61.8231 113.6327,79.2381 107.5374,93.1701 103.1837,99.7007 94.4762,109.7143 83.1565,117.1156 41.7959,115.3741" stroke="#00007f" stroke-width="2" /><polyline fill="none" points="33.5238,27.4286 50.5034,63.1293" stroke="#00d4ff" stroke-width="2" /><polyline fill="none" points="73.5782,64.4354 99.2653,34.8299 109.7143,25.6871" stroke="#ffe500" stroke-width="2" /><polyline fill="none" points="52.2449,67.483 55.2925,94.9116 54.8571,119.2925" stroke="#7f0000" stroke-width="2" /></svg>