<?xml version="1.0" encoding="utf-8" ?>
<svg baseProfile="tiny" height="128" version="1.2" viewBox="0,0,128,128" width="128" xmlns="http://www.w3.org/2000/svg" xmlns:ev="http://www.w3.org/2001/xml-events" xmlns:xlink="http://www.w3.org/1999/xlink"><defs /><polyline fill="none" points="66.6122,11.3197 55.7279,11.3197 28.7347,21.3333 20.0272,26.9932 13.932,37.0068 9.1429,55.7279 8.7075,73.1429 14.3673,95.7823 18.7211,104.4898 25.2517,112.7619 34.8299,117.551 43.102,118.8571 57.9048,117.551 73.1429,114.068 104.9252,103.1837 114.068,96.2177 117.9864,89.6871 119.2925,84.0272 117.9864,66.6122 111.8912,50.9388 104.0544,36.5714 93.1701,26.5578 66.6122,9.5782 63.1293,8.7075" stroke="#00007f" stroke-width="2" /><polyline fill="none" points="26.5578,21.7687 33.9592,37.0068 36.1361,47.0204 36.1361,57.034 24.381,116.2449" stroke="#7cff79" stroke-width="2" /><polyline fill="none" points="87.9456,27.4286 90.9932,30.9116" stroke="#7f0000" stroke-width="2" /></svg>