<?xml version="1.0" encoding="utf-8" ?>
<svg baseProfile="tiny" height="128" version="1.2" viewBox="0,0,128,128" width="128" xmlns="http://www.w3.org/2000/svg" xmlns:ev="http://www.w3.org/2001/xml-events" xmlns:xlink="http://www.w3.org/1999/xlink"><defs /><polyline fill="none" points="66.3864,8.678 48.5966,14.7525 28.6373,25.6 17.7898,34.278 11.7153,48.1627 9.1119,61.1797 8.678,73.7627 10.8475,85.478 15.1864,96.3254 22.9966,106.3051 37.3153,114.5492 50.3322,119.322 72.0271,118.0203 80.7051,114.9831 87.6475,110.2102 93.722,98.4949 95.8915,86.7797 96.3254,78.1017 93.722,62.0475 85.478,21.261 76.3661,13.8847 69.4237,9.9797 64.2169,9.5458 60.7458,11.7153 59.878,70.7254 66.3864,87.6475 73.7627,101.5322 82.0068,110.2102 95.0237,119.322" stroke="#00007f" stroke-width="2" /><polyline fill="none" points="19.5254,29.939 33.8441,42.522 39.0508,49.0305 40.3525,52.9356 36.4475,92.8542 29.5051,111.078" stroke="#7f0000" stroke-width="2" /></svg>