<?xml version="1.0" encoding="utf-8" ?>
<svg baseProfile="tiny" height="128" version="1.2" viewBox="0,0,128,128" width="128" xmlns="http://www.w3.org/2000/svg" xmlns:ev="http://www.w3.org/2001/xml-events" xmlns:xlink="http://www.w3.org/1999/xlink"><defs /><polyline fill="none" points="86.2041,14.8027 84.4626,13.0612 72.7075,10.0136 48.7619,8.7075 32.6531,14.8027 22.2041,20.898 15.6735,27.4286 10.8844,36.5714 8.7075,43.5374 9.1429,64.8707 14.3673,83.1565 18.2857,89.6871 31.7823,104.9252 43.5374,111.4558 61.3878,117.1156 81.415,117.9864 94.9116,111.4558 107.102,101.8776 111.0204,97.0884 117.1156,81.415 119.2925,66.6122 119.2925,56.5986 113.6327,37.4422 106.6667,22.2041 98.3946,10.449 93.1701,9.1429 84.0272,12.6259" stroke="#00007f" stroke-width="2" /><polyline fill="none" points="86.6395,13.4966 83.1565,11.7551 77.932,11.7551 56.5986,17.415 40.9252,28.7347 29.6054,43.9728 22.6395,56.5986 20.0272,64.4354 16.5442,87.9456 16.9796,80.5442" stroke="#7cff79" stroke-width="2" /><polyline fill="none" points="86.6395,13.0612 88.381,30.4762 87.0748,52.6803 81.8503,84.898 77.0612,93.1701 72.7075,97.5238 55.2925,109.7143 47.8912,110.585 47.4558,108.8435" stroke="#7f0000" stroke-width="2" /></svg>