<?xml version="1.0" encoding="utf-8" ?>
<svg baseProfile="tiny" height="128" version="1.2" viewBox="0,0,128,128" width="128" xmlns="http://www.w3.org/2000/svg" xmlns:ev="http://www.w3.org/2001/xml-events" xmlns:xlink="http://www.w3.org/1999/xlink"><defs /><polyline fill="none" points="68.9898,8.678 65.5186,9.9797 48.1627,20.8271 23.4305,41.2203 14.3186,51.2 9.5458,59.878 8.678,64.2169 9.9797,72.461 12.5831,77.6678 22.5627,89.8169 39.0508,101.5322 48.1627,105.0034 57.7085,105.8712 66.3864,104.5695 85.0441,95.8915 98.9288,82.4407 106.739,68.5559 108.0407,60.7458 107.6068,53.3695 103.2678,37.7492 98.9288,30.8068 94.1559,25.6 88.0814,22.5627 65.0847,19.0915" stroke="#00007f" stroke-width="2" /><polyline fill="none" points="55.9729,21.6949 56.4068,50.3322 55.1051,59.0102 49.4644,74.1966 36.0136,96.3254" stroke="#7cff79" stroke-width="2" /><polyline fill="none" points="73.7627,20.3932 72.461,32.5424 75.9322,61.6136 75.0644,70.7254 55.1051,111.078 53.8034,117.1525 54.6712,119.322" stroke="#7f0000" stroke-width="2" /></svg>