<?xml version="1.0" encoding="utf-8" ?>
<svg baseProfile="tiny" height="128" version="1.2" viewBox="0,0,128,128" width="128" xmlns="http://www.w3.org/2000/svg" xmlns:ev="http://www.w3.org/2001/xml-events" xmlns:xlink="http://www.w3.org/1999/xlink"><defs /><polyline fill="none" points="70.0952,15.6735 57.4694,16.5442 47.8912,19.1565 35.2653,30.0408 25.6871,43.5374 17.8503,64.8707 14.3673,83.5918 14.3673,105.7959 16.5442,110.1497 20.898,114.068 38.7483,118.8571 75.7551,119.2925 87.9456,114.5034 96.6531,108.8435 104.9252,100.1361 109.2789,91.4286 113.1973,77.4966 114.068,63.1293 111.0204,45.7143 107.102,34.8299 100.5714,28.2993 76.1905,16.1088 58.7755,8.7075" stroke="#00007f" stroke-width="2" /><polyline fill="none" points="31.3469,33.0884 37.8776,40.0544 41.7959,48.3265 42.6667,58.7755 40.4898,65.3061 36.5714,70.5306 29.1701,74.8844 16.5442,78.3673 8.7075,78.8027" stroke="#00d4ff" stroke-width="2" /><polyline fill="none" points="113.1973,49.6327 103.619,54.4218 99.2653,60.9524 97.5238,72.7075 103.619,83.5918" stroke="#ffe500" stroke-width="2" /><polyline fill="none" points="24.381,62.2585 52.6803,63.1293 112.3265,69.6599" stroke="#7f0000" stroke-width="2" /></svg>