<?xml version="1.0" encoding="utf-8" ?>
<svg baseProfile="tiny" height="128" version="1.2" viewBox="0,0,128,128" width="128" xmlns="http://www.w3.org/2000/svg" xmlns:ev="http://www.w3.org/2001/xml-events" xmlns:xlink="http://www.w3.org/1999/xlink"><defs /><polyline fill="none" points="13.4508,15.6203 8.678,26.0339 9.1119,35.1458 16.922,42.522 25.1661,43.8237 42.9559,33.4102 47.7288,27.3356 48.1627,22.9966 45.9932,17.3559 36.0136,9.1119 29.5051,8.678 26.9017,9.1119 27.3356,10.8475" stroke="#00007f" stroke-width="2" /><polyline fill="none" points="29.5051,10.8475 26.4678,14.7525 26.4678,34.278 28.6373,36.8814 33.8441,37.7492" stroke="#0010ff" stroke-width="2" /><polyline fill="none" points="13.0169,25.1661 21.6949,29.5051 28.2034,30.3729 36.8814,29.0712 46.4271,21.6949" stroke="#00a4ff" stroke-width="2" /><polyline fill="none" points="106.3051,26.4678 88.0814,45.9932 82.0068,50.7661 81.5729,52.0678" stroke="#3fffb7" stroke-width="2" /><polyline fill="none" points="108.0407,30.3729 111.9458,36.0136 109.3424,41.2203 91.9864,62.9153 86.7797,80.2712 79.8373,92.8542 66.3864,106.739 53.8034,115.4169 45.5593,118.4542 19.5254,119.322 14.7525,116.7186 12.5831,114.1153 11.7153,109.7763 12.5831,103.7017 42.522,77.2339 55.539,68.9898 74.6305,53.8034 82.8746,49.4644" stroke="#b7ff3f" stroke-width="2" /><polyline fill="none" points="32.5424,72.0271 33.4102,68.122 62.9153,39.9186 65.5186,39.4847 63.3492,39.4847" stroke="#ffb900" stroke-width="2" /><polyline fill="none" points="58.1424,37.7492 62.0475,31.2407 67.2542,27.3356" stroke="#ff3000" stroke-width="2" /><polyline fill="none" points="106.3051,30.3729 96.3254,39.4847 79.4034,59.0102 52.0678,74.6305 43.3898,82.4407 32.1085,88.9492 18.2237,101.0983 12.1492,109.7763 11.2814,111.9458 12.5831,114.5492 17.7898,118.4542 29.5051,119.322 50.7661,108.9085 70.7254,94.5898 87.2136,79.8373 105.8712,60.7458 114.5492,49.8983 115.4169,44.6915" stroke="#7f0000" stroke-width="2" /></svg>