<?xml version="1.0" encoding="utf-8" ?>
<svg baseProfile="tiny" height="128" version="1.2" viewBox="0,0,128,128" width="128" xmlns="http://www.w3.org/2000/svg" xmlns:ev="http://www.w3.org/2001/xml-events" xmlns:xlink="http://www.w3.org/1999/xlink"><defs /><polyline fill="none" points="54.1706,15.727 41.9386,14.8532 36.2594,18.3481 28.8328,24.4642 14.8532,44.5597 10.4846,55.9181 8.7372,66.4027 8.7372,86.4983 11.3584,94.7986 15.727,100.041 23.5904,106.157 32.3276,109.6519 43.2491,111.3993 68.587,110.5256 93.0512,100.9147 100.9147,94.7986 108.7782,84.314 114.0205,72.9556 119.2628,58.9761 119.2628,25.7747 111.3993,15.727 105.2833,10.4846 99.1672,8.7372 76.8874,8.7372 65.529,13.1058 49.802,25.3379" stroke="#00007f" stroke-width="2" /><polyline fill="none" points="78.198,20.0956 78.198,35.8225 83.4403,55.0444 87.8089,80.3823 93.9249,99.1672 99.1672,107.0307" stroke="#7cff79" stroke-width="2" /><polyline fill="none" points="40.1911,31.4539 36.6962,37.1331 35.8225,51.1126 27.0853,92.1775" stroke="#7f0000" stroke-width="2" /></svg>