<?xml version="1.0" encoding="utf-8" ?>
<svg baseProfile="tiny" height="128" version="1.2" viewBox="0,0,128,128" width="128" xmlns="http://www.w3.org/2000/svg" xmlns:ev="http://www.w3.org/2001/xml-events" xmlns:xlink="http://www.w3.org/1999/xlink"><defs /><polyline fill="none" points="42.6667,24.8163 32.6531,26.1224 23.9456,32.2177 19.1565,38.7483 10.0136,67.9184 8.7075,82.2857 10.449,87.9456 18.2857,99.2653 26.9932,105.7959 44.8435,112.3265 60.517,112.7619 68.7891,111.4558 77.4966,108.8435 85.3333,104.0544 98.3946,93.1701 110.585,73.1429 116.2449,55.2925 119.2925,40.0544 119.2925,31.7823 117.1156,23.9456 110.1497,14.8027 99.7007,10.0136 90.9932,8.7075 74.0136,9.5782 65.3061,11.7551 53.551,16.9796" stroke="#00007f" stroke-width="2" /><polyline fill="none" points="35.2653,25.6871 41.3605,29.6054 43.5374,33.9592 46.1497,43.5374 46.585,53.1156 42.6667,85.3333 38.3129,95.7823 31.7823,105.7959" stroke="#0010ff" stroke-width="2" /><polyline fill="none" points="80.5442,12.6259 80.5442,63.1293 86.6395,77.932 100.1361,94.4762" stroke="#00a4ff" stroke-width="2" /><polyline fill="none" points="37.8776,84.4626 50.068,84.4626" stroke="#3fffb7" stroke-width="2" /><polyline fill="none" points="34.8299,56.1633 41.7959,57.9048 53.9864,53.1156" stroke="#b7ff3f" stroke-width="2" /><polyline fill="none" points="37.0068,33.5238 44.4082,35.2653 53.9864,34.8299" stroke="#ffb900" stroke-width="2" /><polyline fill="none" points="69.6599,25.2517 74.0136,25.2517 87.5102,29.6054 97.0884,30.4762" stroke="#ff3000" stroke-width="2" /><polyline fill="none" points="73.1429,51.8095 84.4626,54.4218" stroke="#7f0000" stroke-width="2" /></svg>