<?xml version="1.0" encoding="utf-8" ?>
<svg baseProfile="tiny" height="128" version="1.2" viewBox="0,0,128,128" width="128" xmlns="http://www.w3.org/2000/svg" xmlns:ev="http://www.w3.org/2001/xml-events" xmlns:xlink="http://www.w3.org/1999/xlink"><defs /><polyline fill="none" points="65.0847,17.3559 36.8814,16.922 22.5627,22.1288 14.7525,33.8441 8.678,51.2 8.678,63.7831 10.8475,68.122 19.5254,75.9322 36.4475,82.8746 44.6915,85.0441 70.2915,87.6475 91.5525,87.6475 104.1356,83.7424 111.9458,78.5356 116.7186,72.8949 119.322,64.2169 118.8881,50.3322 115.8508,42.522 109.7763,35.1458 93.722,23.8644 65.0847,9.1119 58.1424,8.678" stroke="#00007f" stroke-width="2" /><polyline fill="none" points="41.2203,16.4881 47.2949,32.1085 47.7288,44.6915 39.9186,62.4814 32.1085,71.1593 29.939,75.9322" stroke="#7cff79" stroke-width="2" /><polyline fill="none" points="98.9288,32.5424 88.5153,31.6746 83.3085,35.1458 71.1593,50.7661 66.8203,62.9153 66.8203,71.5932 70.2915,76.8 85.0441,83.3085" stroke="#7f0000" stroke-width="2" /></svg>