<?xml version="1.0" encoding="utf-8" ?>
<svg baseProfile="tiny" height="128" version="1.2" viewBox="0,0,128,128" width="128" xmlns="http://www.w3.org/2000/svg" xmlns:ev="http://www.w3.org/2001/xml-events" xmlns:xlink="http://www.w3.org/1999/xlink"><defs /><polyline fill="none" points="70.3345,13.9795 60.7235,9.1741 43.2491,8.7372 27.959,14.4164 17.4744,27.5222 13.5427,33.6382 10.4846,44.5597 8.7372,65.0922 12.2321,79.0717 20.5324,91.3038 31.8908,100.041 51.9863,107.0307 58.9761,107.4676 81.256,104.8464 96.5461,99.6041 107.9044,92.6143 115.7679,79.0717 119.2628,68.587 118.8259,58.5392 114.0205,35.8225 109.6519,27.959 102.2253,20.0956 89.5563,13.1058 76.8874,8.7372 73.3925,9.1741 70.7713,11.7952" stroke="#00007f" stroke-width="2" /><polyline fill="none" points="52.4232,14.4164 52.8601,38.4437 51.1126,49.802 46.3072,63.7816 40.1911,74.7031 37.1331,77.3242 24.0273,83.4403 14.8532,85.1877" stroke="#0028ff" stroke-width="2" /><polyline fill="none" points="79.0717,15.727 77.7611,19.2218 77.7611,37.1331 76.0137,54.6075 76.0137,71.2082 79.0717,92.6143 86.0614,98.2935 103.9727,101.3515" stroke="#00d4ff" stroke-width="2" /><polyline fill="none" points="40.1911,21.843 58.9761,28.3959 63.3447,32.7645" stroke="#7cff79" stroke-width="2" /><polyline fill="none" points="41.5017,47.1809 52.8601,53.2969 55.9181,56.7918" stroke="#ffe500" stroke-width="2" /><polyline fill="none" points="41.9386,65.9659 48.4915,68.587 52.8601,72.5188" stroke="#ff4600" stroke-width="2" /><polyline fill="none" points="37.1331,69.8976 31.0171,92.1775" stroke="#7f0000" stroke-width="2" /></svg>