<?xml version="1.0" encoding="utf-8" ?>
<svg baseProfile="tiny" height="128" version="1.2" viewBox="0,0,128,128" width="128" xmlns="http://www.w3.org/2000/svg" xmlns:ev="http://www.w3.org/2001/xml-events" xmlns:xlink="http://www.w3.org/1999/xlink"><defs /><polyline fill="none" points="57.7085,14.3186 49.8983,13.0169 38.6169,18.2237 19.5254,35.5797 11.7153,49.8983 8.678,67.2542 8.678,81.5729 10.8475,88.9492 18.6576,100.2305 23.4305,104.5695 33.4102,109.3424 43.3898,113.2475 53.3695,114.9831 75.0644,115.4169 102.8339,105.8712 114.9831,91.1186 118.0203,85.0441 119.322,65.9525 108.0407,46.4271 101.9661,24.7322 95.0237,13.0169 87.2136,10.8475 56.8407,10.8475 47.7288,13.0169" stroke="#00007f" stroke-width="2" /><polyline fill="none" points="86.7797,8.678 72.0271,20.3932 61.1797,26.4678 53.8034,36.8814 50.7661,44.6915 51.2,63.3492 56.4068,75.9322 63.7831,86.7797 84.1763,101.0983 97.1932,105.8712" stroke="#7cff79" stroke-width="2" /><polyline fill="none" points="33.8441,19.5254 27.3356,32.5424 21.6949,52.5017 21.6949,76.8" stroke="#7f0000" stroke-width="2" /></svg>