<?xml version="1.0" encoding="utf-8" ?>
<svg baseProfile="tiny" height="128" version="1.2" viewBox="0,0,128,128" width="128" xmlns="http://www.w3.org/2000/svg" xmlns:ev="http://www.w3.org/2001/xml-events" xmlns:xlink="http://www.w3.org/1999/xlink"><defs /><polyline fill="none" points="19.5254,103.7017 16.4881,102.4 12.5831,91.9864 11.7153,72.0271 17.7898,48.5966 26.4678,29.939 38.1831,23.4305 66.3864,16.4881 85.0441,18.6576 94.1559,29.939 97.6271,36.8814 103.2678,58.1424 102.4,81.139 92.8542,96.7593 74.1966,111.5119 55.1051,117.1525 36.4475,119.322 15.6203,114.1153 13.0169,111.5119 10.4136,105.4373 8.678,96.3254" stroke="#00007f" stroke-width="2" /><polyline fill="none" points="43.8237,16.0542 47.2949,40.7864 49.8983,83.7424 46.861,101.5322 40.7864,118.4542" stroke="#7cff79" stroke-width="2" /><polyline fill="none" points="94.5898,8.678 82.8746,36.0136 74.6305,68.122 73.3288,92.4203 75.9322,109.7763" stroke="#7f0000" stroke-width="2" /></svg>