<?xml version="1.0" encoding="utf-8" ?>
<svg baseProfile="tiny" height="128" version="1.2" viewBox="0,0,128,128" width="128" xmlns="http://www.w3.org/2000/svg" xmlns:ev="http://www.w3.org/2001/xml-events" xmlns:xlink="http://www.w3.org/1999/xlink"><defs /><polyline fill="none" points="57.2287,8.7372 40.1911,8.7372 32.3276,10.9215 21.843,18.785 18.785,22.7167 16.1638,27.0853 11.7952,41.0648 8.7372,58.9761 8.7372,90.8669 23.1536,105.7201 34.0751,111.3993 41.5017,113.1468 76.8874,113.1468 82.5666,111.8362 103.9727,99.6041 108.7782,88.2457 117.0785,79.9454 119.2628,75.5768 119.2628,62.9078 114.8942,38.0068 110.5256,33.6382 106.157,24.4642 99.6041,18.3481 91.3038,15.727 69.4608,15.727 57.6655,17.0375 51.5495,12.6689" stroke="#00007f" stroke-width="2" /><polyline fill="none" points="58.9761,15.727 59.8498,73.3925 57.2287,79.0717 53.7338,81.6928 40.1911,100.9147 27.5222,109.6519 30.5802,105.2833" stroke="#00d4ff" stroke-width="2" /><polyline fill="none" points="84.314,18.3481 86.9352,21.843 91.3038,34.5119 91.3038,63.3447 93.4881,76.4505 98.7304,89.1195 98.7304,94.3618 100.9147,99.6041 106.157,107.0307 113.5836,111.8362 119.2628,111.8362" stroke="#ffe500" stroke-width="2" /><polyline fill="none" points="78.198,42.8123 83.0034,41.0648" stroke="#7f0000" stroke-width="2" /></svg>