<?xml version="1.0" encoding="utf-8" ?>
<svg baseProfile="tiny" height="128" version="1.2" viewBox="0,0,128,128" width="128" xmlns="http://www.w3.org/2000/svg" xmlns:ev="http://www.w3.org/2001/xml-events" xmlns:xlink="http://www.w3.org/1999/xlink"><defs /><polyline fill="none" points="26.1224,107.5374 20.4626,103.1837 15.2381,95.3469 9.5782,80.9796 8.7075,71.4014 8.7075,61.8231 10.8844,51.8095 16.5442,42.2313 23.5102,33.5238 33.0884,24.381 43.9728,17.415 55.7279,12.1905 67.0476,9.5782 77.932,8.7075 87.5102,10.0136 95.3469,13.0612 102.7483,17.8503 109.2789,24.8163 117.9864,42.2313 119.2925,51.8095 118.8571,71.4014 116.6803,79.6735 112.3265,87.9456 101.0068,101.4422 94.4762,105.7959 77.0612,112.3265 68.7891,114.068 52.2449,114.9388 43.9728,113.6327 30.9116,108.4082 21.7687,101.4422 19.1565,96.2177" stroke="#00007f" stroke-width="2" /><polyline fill="none" points="42.2313,24.8163 43.5374,26.9932 44.8435,41.3605 43.102,54.4218" stroke="#0010ff" stroke-width="2" /><polyline fill="none" points="44.8435,65.3061 44.8435,76.1905 42.2313,83.5918 37.4422,90.5578" stroke="#00a4ff" stroke-width="2" /><polyline fill="none" points="38.3129,90.9932 34.8299,98.8299 28.7347,107.5374" stroke="#3fffb7" stroke-width="2" /><polyline fill="none" points="83.5918,16.9796 83.5918,29.6054 87.5102,41.3605" stroke="#b7ff3f" stroke-width="2" /><polyline fill="none" points="87.0748,51.3741 91.4286,60.517" stroke="#ffb900" stroke-width="2" /><polyline fill="none" points="95.7823,76.6259 100.1361,83.1565" stroke="#ff3000" stroke-width="2" /><polyline fill="none" points="101.8776,92.2993 105.3605,98.3946" stroke="#7f0000" stroke-width="2" /></svg>