<?xml version="1.0" encoding="utf-8" ?>
<svg baseProfile="tiny" height="128" version="1.2" viewBox="0,0,128,128" width="128" xmlns="http://www.w3.org/2000/svg" xmlns:ev="http://www.w3.org/2001/xml-events" xmlns:xlink="http://www.w3.org/1999/xlink"><defs /><polyline fill="none" points="73.7627,26.4678 84.1763,21.6949 91.5525,20.3932 103.7017,21.261 108.4746,24.7322 115.4169,33.8441 118.0203,41.2203 119.322,57.2746 117.1525,64.6508 106.3051,75.0644 97.6271,79.8373 74.6305,85.0441 41.6542,86.3458 30.3729,85.478 19.0915,81.139 10.8475,74.6305 8.678,68.5559 8.678,59.878 10.8475,49.8983 16.922,38.1831 25.1661,27.3356 33.4102,19.9593 41.6542,15.6203 60.3119,8.678 71.1593,8.678 85.478,20.8271 86.3458,22.9966 85.0441,26.4678" stroke="#00007f" stroke-width="2" /><polyline fill="none" points="56.8407,11.2814 59.0102,11.7153 64.2169,18.2237 76.3661,45.5593 79.8373,62.0475 80.2712,83.3085" stroke="#0080ff" stroke-width="2" /><polyline fill="none" points="57.7085,21.261 69.8576,17.7898" stroke="#7cff79" stroke-width="2" /><polyline fill="none" points="77.2339,34.278 75.4983,38.1831 70.2915,42.0881" stroke="#ff9400" stroke-width="2" /><polyline fill="none" points="68.9898,56.4068 88.0814,56.8407" stroke="#7f0000" stroke-width="2" /></svg>