<?xml version="1.0" encoding="utf-8" ?>
<svg baseProfile="tiny" height="128" version="1.2" viewBox="0,0,128,128" width="128" xmlns="http://www.w3.org/2000/svg" xmlns:ev="http://www.w3.org/2001/xml-events" xmlns:xlink="http://www.w3.org/1999/xlink"><defs /><polyline fill="none" points="107.6068,33.8441 96.3254,26.0339 80.2712,20.3932 70.2915,18.2237 45.5593,18.6576 33.8441,33.8441 26.0339,47.2949 22.1288,61.1797 22.1288,82.4407 28.2034,95.8915 47.2949,113.2475 68.5559,119.322 78.5356,119.322 88.0814,115.4169 91.9864,105.8712 95.8915,88.5153 99.7966,57.2746 99.7966,45.5593 98.061,32.5424 91.9864,16.4881 82.4407,8.678 78.5356,12.5831" stroke="#00007f" stroke-width="2" /><polyline fill="none" points="57.2746,16.4881 59.0102,26.0339 59.0102,45.5593 62.9153,59.0102 62.9153,91.9864 59.0102,101.5322 49.4644,105.8712" stroke="#7cff79" stroke-width="2" /><polyline fill="none" points="94.1559,57.2746 82.4407,59.0102 68.5559,59.0102 57.2746,62.9153 32.1085,62.9153 16.4881,55.1051 8.678,53.3695" stroke="#7f0000" stroke-width="2" /></svg>