<?xml version="1.0" encoding="utf-8" ?>
<svg baseProfile="tiny" height="128" version="1.2" viewBox="0,0,128,128" width="128" xmlns="http://www.w3.org/2000/svg" xmlns:ev="http://www.w3.org/2001/xml-events" xmlns:xlink="http://www.w3.org/1999/xlink"><defs /><polyline fill="none" points="63.1233,10.0822 35.5068,16.2192 21.4795,24.5479 12.7123,32.4384 8.7671,40.3288 8.7671,60.0548 12.7123,70.137 17.5342,77.589 24.5479,83.726 39.8904,91.6164 58.3014,99.5068 72.3288,101.6986 89.863,101.6986 97.3151,100.3836 108.7123,93.8082 117.0411,82.8493 119.2329,77.1507 119.2329,64.0 111.3425,35.9452 103.4521,23.2329 99.5068,19.2877 84.6027,13.1507 70.137,11.3973 61.3699,8.7671 53.0411,9.6438" stroke="#00007f" stroke-width="2" /><polyline fill="none" points="47.7808,11.3973 41.2055,16.2192 36.8219,25.863 24.5479,60.4932 22.3562,81.0959" stroke="#0080ff" stroke-width="2" /><polyline fill="none" points="60.0548,11.3973 56.9863,18.8493 52.1644,44.7123 45.1507,66.1918 42.9589,84.1644" stroke="#7cff79" stroke-width="2" /><polyline fill="none" points="71.4521,8.7671 73.6438,12.7123 78.0274,42.9589 78.0274,84.6027 76.274,96.8767 74.5205,98.6301" stroke="#ff9400" stroke-width="2" /><polyline fill="none" points="90.3014,16.2192 95.5616,24.5479 103.4521,47.7808 106.9589,96.0" stroke="#7f0000" stroke-width="2" /></svg>