<?xml version="1.0" encoding="utf-8" ?>
<svg baseProfile="tiny" height="128" version="1.2" viewBox="0,0,128,128" width="128" xmlns="http://www.w3.org/2000/svg" xmlns:ev="http://www.w3.org/2001/xml-events" xmlns:xlink="http://www.w3.org/1999/xlink"><defs /><polyline fill="none" points="19.9593,24.2983 15.1864,23.8644 12.5831,25.6 8.678,37.7492 10.4136,46.861 16.4881,51.2 23.8644,51.2 28.6373,49.8983 34.7119,43.3898 35.5797,37.7492 26.0339,30.8068 16.922,28.2034 11.2814,21.6949" stroke="#00007f" stroke-width="2" /><polyline fill="none" points="100.2305,105.0034 91.1186,104.5695 90.6847,106.739 94.5898,113.6814 104.1356,113.6814 104.5695,111.078 102.8339,106.739 95.4576,105.4373 91.1186,86.7797 90.2508,70.7254 87.6475,59.0102 87.6475,29.0712 91.1186,13.0169 95.4576,9.1119 102.4,8.678 105.4373,10.4136 107.1729,16.4881 107.1729,51.6339 104.5695,64.6508 98.9288,78.9695 95.4576,97.1932 94.1559,119.322" stroke="#7f0000" stroke-width="2" /></svg>