<?xml version="1.0" encoding="utf-8" ?>
<svg baseProfile="tiny" height="128" version="1.2" viewBox="0,0,128,128" width="128" xmlns="http://www.w3.org/2000/svg" xmlns:ev="http://www.w3.org/2001/xml-events" xmlns:xlink="http://www.w3.org/1999/xlink"><defs /><polyline fill="none" points="59.0102,22.5627 57.7085,19.9593 48.5966,19.5254 32.1085,27.3356 19.9593,36.8814 11.7153,49.0305 9.1119,58.1424 8.678,83.7424 17.3559,92.8542 26.9017,98.9288 56.4068,100.2305 76.3661,93.2881 82.8746,88.5153 89.8169,80.7051 97.1932,54.2373 96.7593,28.6373 92.8542,22.5627 89.8169,20.3932 71.1593,11.2814 60.7458,9.1119 37.3153,8.678 29.5051,10.8475 27.7695,13.4508" stroke="#00007f" stroke-width="2" /><polyline fill="none" points="36.8814,29.0712 37.3153,85.0441 35.1458,105.8712" stroke="#00d4ff" stroke-width="2" /><polyline fill="none" points="74.1966,19.0915 74.1966,30.8068 77.6678,56.8407 77.6678,93.722 69.8576,119.322" stroke="#ffe500" stroke-width="2" /><polyline fill="none" points="37.7492,37.3153 37.7492,37.3153" stroke="#7f0000" stroke-width="2" /></svg>