<?xml version="1.0" encoding="utf-8" ?>
<svg baseProfile="tiny" height="128" version="1.2" viewBox="0,0,128,128" width="128" xmlns="http://www.w3.org/2000/svg" xmlns:ev="http://www.w3.org/2001/xml-events" xmlns:xlink="http://www.w3.org/1999/xlink"><defs /><polyline fill="none" points="43.8237,8.678 24.2983,13.8847 19.0915,24.7322 8.678,65.0847 10.8475,79.4034 17.7898,90.6847 26.0339,96.7593 40.3525,102.4 60.7458,105.4373 72.461,102.8339 91.1186,94.1559 109.7763,77.6678 119.322,58.1424 118.0203,39.4847 114.1153,29.939 98.061,13.8847 83.3085,9.9797 67.2542,8.678 52.9356,10.4136 40.7864,13.8847 34.278,17.7898 22.5627,29.0712 19.9593,35.5797 19.0915,44.2576 19.9593,42.522" stroke="#00007f" stroke-width="2" /><polyline fill="none" points="52.5017,25.6 52.9356,34.7119 57.7085,48.1627 67.6881,54.6712 71.1593,60.3119 80.2712,79.4034 85.9119,95.8915 88.5153,97.1932 89.3831,96.3254" stroke="#7cff79" stroke-width="2" /><polyline fill="none" points="80.7051,11.2814 82.8746,29.939 86.3458,46.861 89.8169,53.3695 106.3051,76.3661" stroke="#7f0000" stroke-width="2" /></svg>