<?xml version="1.0" encoding="utf-8" ?>
<svg baseProfile="tiny" height="128" version="1.2" viewBox="0,0,128,128" width="128" xmlns="http://www.w3.org/2000/svg" xmlns:ev="http://www.w3.org/2001/xml-events" xmlns:xlink="http://www.w3.org/1999/xlink"><defs /><polyline fill="none" points="46.4271,8.678 37.7492,9.5458 30.8068,14.3186 19.0915,28.2034 13.0169,38.1831 8.678,52.5017 8.678,63.7831 12.5831,71.5932 15.1864,74.6305 28.6373,78.9695 81.139,86.7797 111.5119,88.9492 115.4169,85.478 118.8881,69.4237 119.322,55.9729 115.4169,46.4271 68.5559,15.6203 55.9729,11.7153 37.7492,11.7153" stroke="#00007f" stroke-width="2" /><polyline fill="none" points="37.7492,11.7153 39.0508,40.3525 37.3153,51.2 33.4102,62.4814 27.7695,71.5932" stroke="#00d4ff" stroke-width="2" /><polyline fill="none" points="88.9492,28.6373 85.0441,44.6915 83.3085,62.9153 83.7424,75.4983 88.9492,87.6475 88.9492,83.7424" stroke="#ffe500" stroke-width="2" /><polyline fill="none" points="81.139,39.9186 85.478,39.4847" stroke="#7f0000" stroke-width="2" /></svg>