<?xml version="1.0" encoding="utf-8" ?>
<svg baseProfile="tiny" height="128" version="1.2" viewBox="0,0,128,128" width="128" xmlns="http://www.w3.org/2000/svg" xmlns:ev="http://www.w3.org/2001/xml-events" xmlns:xlink="http://www.w3.org/1999/xlink"><defs /><polyline fill="none" points="14.7525,100.6644 13.0169,103.2678 13.0169,109.3424 13.4508,111.5119 15.1864,112.3797 21.261,111.078 26.0339,101.0983" stroke="#00007f" stroke-width="2" /><polyline fill="none" points="12.1492,99.7966 10.4136,97.1932 9.5458,91.9864 8.678,65.5186 13.4508,24.7322 15.6203,17.3559 19.5254,12.5831 26.4678,9.1119 31.2407,8.678 38.6169,13.0169 46.861,23.4305 48.1627,30.3729 48.1627,45.9932 45.1254,60.3119 36.0136,88.9492 29.5051,95.8915 26.9017,101.5322" stroke="#0000d1" stroke-width="2" /><polyline fill="none" points="11.7153,99.7966 10.8475,118.4542 12.5831,119.322 17.7898,118.4542 19.0915,116.2847 24.2983,100.6644" stroke="#0010ff" stroke-width="2" /><polyline fill="none" points="10.8475,98.9288 14.3186,97.6271 24.7322,99.7966" stroke="#0058ff" stroke-width="2" /><polyline fill="none" points="11.2814,101.5322 27.3356,103.7017" stroke="#00a4ff" stroke-width="2" /><polyline fill="none" points="12.1492,98.061 15.6203,100.2305 22.9966,101.5322" stroke="#05ecf1" stroke-width="2" /><polyline fill="none" points="13.4508,98.061 20.3932,100.6644" stroke="#3fffb7" stroke-width="2" /><polyline fill="none" points="63.7831,43.8237 62.9153,41.6542 55.1051,44.6915 50.3322,50.3322 49.4644,55.539 52.0678,64.2169 55.9729,66.8203 62.4814,66.3864 68.122,62.4814 70.2915,58.5763 70.7254,45.9932 69.4237,43.8237 66.8203,43.3898 58.5763,44.6915" stroke="#7cff79" stroke-width="2" /><polyline fill="none" points="53.3695,48.1627 55.9729,52.0678 56.4068,58.5763 55.1051,63.7831 51.2,71.1593" stroke="#b7ff3f" stroke-width="2" /><polyline fill="none" points="70.2915,45.1254 68.122,45.1254 64.6508,48.5966 61.6136,56.8407 62.4814,62.4814 66.3864,64.6508" stroke="#f1fc05" stroke-width="2" /><polyline fill="none" points="43.3898,79.8373 51.2,81.5729 56.4068,78.1017" stroke="#ffb900" stroke-width="2" /><polyline fill="none" points="45.1254,73.3288 45.1254,73.3288" stroke="#ff7300" stroke-width="2" /><polyline fill="none" points="53.8034,37.7492 58.1424,32.5424 63.7831,35.1458" stroke="#ff3000" stroke-width="2" /><polyline fill="none" points="55.1051,19.0915 63.3492,19.0915 68.9898,22.9966 69.4237,26.0339" stroke="#d10000" stroke-width="2" /><polyline fill="none" points="41.2203,86.3458 42.0881,91.1186 46.4271,93.722 57.7085,89.3831" stroke="#7f0000" stroke-width="2" /></svg>