<?xml version="1.0" encoding="utf-8" ?>
<svg baseProfile="tiny" height="128" version="1.2" viewBox="0,0,128,128" width="128" xmlns="http://www.w3.org/2000/svg" xmlns:ev="http://www.w3.org/2001/xml-events" xmlns:xlink="http://www.w3.org/1999/xlink"><defs /><polyline fill="none" points="62.9153,11.7153 60.3119,9.5458 51.6339,8.678 45.5593,10.8475 32.9763,19.9593 19.9593,34.7119 11.7153,53.8034 8.678,72.0271 8.678,80.2712 11.2814,87.6475 16.0542,93.722 22.1288,98.4949 29.939,101.5322 39.0508,102.4 47.2949,101.9661 55.9729,99.3627 65.0847,93.722 88.9492,68.9898 100.2305,53.3695 105.4373,42.0881 105.8712,32.1085 104.1356,26.9017 97.6271,18.2237 93.2881,15.1864 82.8746,10.8475 76.8,9.9797 56.4068,11.7153" stroke="#00007f" stroke-width="2" /><polyline fill="none" points="35.1458,16.922 39.4847,21.261 42.522,30.8068 45.9932,56.4068 44.6915,72.461 35.1458,87.6475 18.2237,102.8339 12.1492,106.3051" stroke="#00d4ff" stroke-width="2" /><polyline fill="none" points="91.5525,15.6203 76.8,29.0712 68.9898,38.1831 62.4814,49.8983 55.539,70.2915 53.3695,82.0068 53.8034,95.4576 60.3119,101.9661 64.6508,104.1356" stroke="#ffe500" stroke-width="2" /><polyline fill="none" points="57.7085,10.4136 52.0678,42.522 52.0678,81.5729 50.7661,91.1186 48.5966,100.6644 40.3525,119.322 42.522,116.7186" stroke="#7f0000" stroke-width="2" /></svg>