<?xml version="1.0" encoding="utf-8" ?>
<svg baseProfile="tiny" height="128" version="1.2" viewBox="0,0,128,128" width="128" xmlns="http://www.w3.org/2000/svg" xmlns:ev="http://www.w3.org/2001/xml-events" xmlns:xlink="http://www.w3.org/1999/xlink"><defs /><polyline fill="none" points="17.3559,16.922 9.5458,59.0102 8.678,82.0068 9.9797,92.8542 14.3186,101.5322 21.6949,108.0407 30.3729,111.5119 52.5017,113.2475 64.2169,112.8136 74.6305,107.6068 83.3085,100.2305 89.8169,89.3831 94.1559,76.3661 97.1932,62.0475 98.061,37.3153 96.3254,28.2034 91.5525,19.9593 78.9695,10.8475 71.1593,8.678 62.0475,8.678 51.6339,10.8475 42.522,15.6203 31.6746,26.0339" stroke="#00007f" stroke-width="2" /><polyline fill="none" points="32.9763,22.9966 31.2407,25.6 32.1085,59.4441 29.939,100.6644 31.6746,103.2678" stroke="#7cff79" stroke-width="2" /><polyline fill="none" points="72.461,22.9966 69.8576,19.0915 64.6508,98.061 64.6508,119.322" stroke="#7f0000" stroke-width="2" /></svg>