<?xml version="1.0" encoding="utf-8" ?>
<svg baseProfile="tiny" height="128" version="1.2" viewBox="0,0,128,128" width="128" xmlns="http://www.w3.org/2000/svg" xmlns:ev="http://www.w3.org/2001/xml-events" xmlns:xlink="http://www.w3.org/1999/xlink"><defs /><polyline fill="none" points="99.7966,31.2407 96.7593,24.2983 82.4407,12.5831 77.2339,10.8475 60.3119,8.678 53.8034,9.5458 44.2576,13.8847 36.4475,19.5254 27.7695,28.2034 15.6203,44.2576 10.4136,60.7458 8.678,82.0068 12.1492,101.5322 17.3559,109.7763 26.0339,116.2847 37.7492,119.322 47.2949,119.322 63.7831,117.1525 79.4034,109.3424 101.9661,91.1186 107.6068,83.7424 111.078,75.9322 110.2102,58.1424 99.7966,35.5797" stroke="#00007f" stroke-width="2" /><polyline fill="none" points="21.6949,35.5797 25.6,42.9559 35.1458,49.0305 49.8983,53.3695 63.7831,54.2373 82.0068,51.6339 96.7593,44.2576 101.9661,39.9186 104.5695,36.0136" stroke="#0000ff" stroke-width="2" /><polyline fill="none" points="21.6949,98.4949 42.522,83.3085 58.1424,80.7051 67.6881,83.3085 77.2339,88.5153 81.5729,92.4203 85.9119,101.5322" stroke="#0080ff" stroke-width="2" /><polyline fill="none" points="26.0339,32.5424 34.7119,37.7492" stroke="#15ffe1" stroke-width="2" /><polyline fill="none" points="41.2203,39.0508 41.6542,39.9186" stroke="#7cff79" stroke-width="2" /><polyline fill="none" points="52.0678,39.0508 53.8034,40.3525" stroke="#e4ff12" stroke-width="2" /><polyline fill="none" points="61.6136,42.0881 61.6136,42.0881" stroke="#ff9400" stroke-width="2" /><polyline fill="none" points="67.2542,42.9559 67.2542,42.9559" stroke="#ff1d00" stroke-width="2" /><polyline fill="none" points="74.6305,43.3898 74.6305,43.3898" stroke="#7f0000" stroke-width="2" /></svg>