<?xml version="1.0" encoding="utf-8" ?>
<svg baseProfile="tiny" height="128" version="1.2" viewBox="0,0,128,128" width="128" xmlns="http://www.w3.org/2000/svg" xmlns:ev="http://www.w3.org/2001/xml-events" xmlns:xlink="http://www.w3.org/1999/xlink"><defs /><polyline fill="none" points="54.2373,12.5831 45.9932,12.1492 33.8441,17.7898 23.4305,25.1661 15.6203,35.1458 12.1492,41.6542 9.1119,51.2 8.678,83.7424 10.8475,91.5525 17.7898,105.4373 22.5627,110.2102 27.3356,112.3797 45.5593,112.8136 68.5559,101.5322 78.9695,91.5525 86.3458,79.4034 88.0814,66.3864 88.0814,40.3525 80.7051,20.3932 78.5356,17.3559 68.5559,10.8475 59.878,8.678" stroke="#00007f" stroke-width="2" /><polyline fill="none" points="15.6203,39.9186 22.5627,39.0508 29.5051,43.3898 44.2576,66.3864 45.9932,74.1966 45.5593,94.5898 33.8441,111.5119 31.2407,119.322" stroke="#7cff79" stroke-width="2" /><polyline fill="none" points="75.9322,16.0542 73.3288,16.4881 71.1593,19.0915 65.0847,34.7119 63.3492,68.122 68.122,79.4034 70.2915,82.0068 79.8373,86.7797 84.6102,95.8915" stroke="#7f0000" stroke-width="2" /></svg>