<?xml version="1.0" encoding="utf-8" ?>
<svg baseProfile="tiny" height="128" version="1.2" viewBox="0,0,128,128" width="128" xmlns="http://www.w3.org/2000/svg" xmlns:ev="http://www.w3.org/2001/xml-events" xmlns:xlink="http://www.w3.org/1999/xlink"><defs /><polyline fill="none" points="68.122,9.9797 64.6508,9.9797 49.4644,17.3559 36.4475,28.6373 25.6,42.9559 21.6949,46.861 16.0542,56.8407 9.1119,77.2339 8.678,96.7593 10.4136,103.2678 14.3186,109.7763 20.3932,112.3797 24.7322,112.3797 44.2576,112.3797 52.0678,108.9085 68.122,95.4576 75.9322,83.7424 81.139,68.5559 83.7424,51.6339 83.7424,10.4136 71.5932,9.9797" stroke="#00007f" stroke-width="2" /><polyline fill="none" points="45.9932,22.1288 42.9559,25.1661 40.3525,32.9763 41.6542,60.7458 38.1831,84.1763 29.0712,105.0034 23.4305,112.3797 17.7898,117.1525" stroke="#7cff79" stroke-width="2" /><polyline fill="none" points="68.122,8.678 64.2169,13.8847 55.539,33.8441 49.8983,48.5966 45.5593,67.2542 46.861,98.061 52.5017,115.8508 54.6712,118.4542 57.2746,119.322" stroke="#7f0000" stroke-width="2" /></svg>