<?xml version="1.0" encoding="utf-8" ?>
<svg baseProfile="tiny" height="128" version="1.2" viewBox="0,0,128,128" width="128" xmlns="http://www.w3.org/2000/svg" xmlns:ev="http://www.w3.org/2001/xml-events" xmlns:xlink="http://www.w3.org/1999/xlink"><defs /><polyline fill="none" points="77.2339,10.4136 54.6712,9.5458 42.9559,12.5831 23.8644,22.9966 11.7153,38.6169 8.678,53.8034 8.678,64.2169 12.1492,85.478 19.0915,103.2678 26.9017,111.5119 34.7119,115.4169 62.0475,116.7186 70.7254,114.9831 83.3085,107.6068 100.6644,91.1186 108.4746,77.6678 114.1153,65.0847 118.8881,46.861 119.322,35.1458 118.8881,29.5051 113.6814,18.6576 109.3424,15.6203 90.6847,9.5458 70.2915,8.678" stroke="#00007f" stroke-width="2" /><polyline fill="none" points="43.8237,14.7525 43.3898,42.0881 34.278,67.6881 23.8644,85.9119 17.3559,91.1186 10.8475,92.4203" stroke="#7cff79" stroke-width="2" /><polyline fill="none" points="100.2305,10.8475 94.5898,13.8847 88.9492,22.9966 86.3458,32.9763 85.9119,49.0305 86.7797,55.539 95.0237,79.4034 101.0983,88.5153 105.4373,90.6847" stroke="#7f0000" stroke-width="2" /></svg>