<?xml version="1.0" encoding="utf-8" ?>
<svg baseProfile="tiny" height="128" version="1.2" viewBox="0,0,128,128" width="128" xmlns="http://www.w3.org/2000/svg" xmlns:ev="http://www.w3.org/2001/xml-events" xmlns:xlink="http://www.w3.org/1999/xlink"><defs /><polyline fill="none" points="68.9898,13.4508 62.0475,9.5458 55.1051,8.678 45.1254,9.9797 38.6169,12.1492 32.5424,16.0542 21.6949,26.4678 11.7153,43.8237 8.678,61.6136 8.678,75.4983 11.2814,87.2136 19.0915,103.7017 23.8644,109.7763 28.2034,112.8136 49.0305,118.4542 57.7085,119.322 64.2169,118.4542 77.2339,113.6814 84.6102,108.4746 92.4203,100.2305 104.5695,78.1017 107.1729,68.9898 106.739,55.539 100.2305,38.6169 85.478,19.0915 74.1966,11.7153 62.4814,9.1119" stroke="#00007f" stroke-width="2" /><polyline fill="none" points="32.1085,19.0915 41.2203,42.522 45.5593,73.7627 40.7864,99.7966 36.4475,108.0407 28.6373,114.1153" stroke="#7cff79" stroke-width="2" /><polyline fill="none" points="84.1763,18.6576 77.6678,22.5627 72.461,30.3729 65.0847,52.0678 62.4814,65.5186 63.3492,77.2339 67.2542,94.1559 74.6305,108.9085 78.1017,112.3797" stroke="#7f0000" stroke-width="2" /></svg>