<?xml version="1.0" encoding="utf-8" ?>
<svg baseProfile="tiny" height="128" version="1.2" viewBox="0,0,128,128" width="128" xmlns="http://www.w3.org/2000/svg" xmlns:ev="http://www.w3.org/2001/xml-events" xmlns:xlink="http://www.w3.org/1999/xlink"><defs /><polyline fill="none" points="39.619,11.7551 34.8299,12.1905 29.6054,13.932 18.7211,23.9456 13.0612,38.3129 9.5782,55.2925 8.7075,68.7891 10.0136,82.7211 14.3673,94.4762 21.3333,104.4898 37.8776,114.068 47.4558,117.551 65.3061,119.2925 80.1088,116.2449 89.2517,110.1497 101.4422,93.1701 104.9252,82.7211 106.6667,67.483 105.7959,54.8571 102.3129,46.585 94.9116,36.1361 82.2857,24.8163 66.1769,14.3673 53.9864,9.5782 40.0544,8.7075" stroke="#00007f" stroke-width="2" /><polyline fill="none" points="32.6531,16.1088 36.1361,20.4626 39.619,28.2993 41.7959,55.2925 38.7483,76.6259 31.7823,100.5714" stroke="#0028ff" stroke-width="2" /><polyline fill="none" points="82.2857,28.2993 72.7075,49.1973 67.9184,71.4014 68.3537,87.0748 74.8844,108.4082" stroke="#00d4ff" stroke-width="2" /><polyline fill="none" points="35.7007,25.6871 37.8776,23.5102" stroke="#7cff79" stroke-width="2" /><polyline fill="none" points="37.0068,40.0544 42.6667,38.3129" stroke="#ffe500" stroke-width="2" /><polyline fill="none" points="44.8435,51.8095 44.8435,51.8095" stroke="#ff4600" stroke-width="2" /><polyline fill="none" points="45.2789,67.483 44.4082,69.2245" stroke="#7f0000" stroke-width="2" /></svg>