<?xml version="1.0" encoding="utf-8" ?>
<svg baseProfile="tiny" height="128" version="1.2" viewBox="0,0,128,128" width="128" xmlns="http://www.w3.org/2000/svg" xmlns:ev="http://www.w3.org/2001/xml-events" xmlns:xlink="http://www.w3.org/1999/xlink"><defs /><polyline fill="none" points="56.8407,8.678 50.7661,8.678 35.1458,21.261 19.5254,39.4847 11.2814,53.8034 8.678,65.5186 9.1119,76.8 13.4508,88.0814 17.7898,93.722 27.7695,102.8339 41.6542,108.9085 57.7085,111.5119 76.3661,111.078 86.7797,108.0407 93.722,103.7017 104.5695,93.722 112.3797,83.3085 118.8881,68.122 119.322,56.4068 114.9831,44.6915 104.5695,30.3729 99.7966,27.3356 89.8169,23.8644 74.6305,22.1288 48.5966,21.6949" stroke="#00007f" stroke-width="2" /><polyline fill="none" points="22.5627,39.9186 36.4475,49.0305 49.0305,64.2169 53.8034,78.1017 53.8034,86.3458 50.3322,92.4203 52.0678,91.1186" stroke="#7cff79" stroke-width="2" /><polyline fill="none" points="83.3085,20.3932 81.139,49.4644 84.1763,64.6508 91.1186,78.5356 100.2305,85.9119 105.0034,85.9119" stroke="#7f0000" stroke-width="2" /></svg>