<?xml version="1.0" encoding="utf-8" ?>
<svg baseProfile="tiny" height="128" version="1.2" viewBox="0,0,128,128" width="128" xmlns="http://www.w3.org/2000/svg" xmlns:ev="http://www.w3.org/2001/xml-events" xmlns:xlink="http://www.w3.org/1999/xlink"><defs /><polyline fill="none" points="101.9661,34.278 100.6644,29.5051 91.9864,19.9593 75.9322,10.8475 64.6508,8.678 52.5017,8.678 39.4847,11.7153 27.7695,18.6576 18.2237,29.5051 11.2814,42.9559 8.678,57.7085 8.678,72.0271 12.5831,84.6102 20.3932,93.722 29.5051,101.0983 55.1051,111.078 68.5559,112.8136 81.139,111.9458 93.722,105.8712 104.5695,97.1932 111.5119,87.6475 117.1525,77.2339 119.322,64.2169 119.322,51.6339 117.1525,39.4847 112.3797,31.2407 106.3051,24.7322 91.5525,19.9593" stroke="#00007f" stroke-width="2" /><polyline fill="none" points="32.9763,21.261 42.0881,39.4847 46.4271,59.0102 46.4271,77.2339 44.6915,89.8169 39.0508,98.061 28.2034,107.1729 24.7322,107.1729" stroke="#7cff79" stroke-width="2" /><polyline fill="none" points="93.722,17.3559 90.2508,19.5254 85.9119,24.2983 80.7051,36.0136 75.0644,54.2373 72.8949,65.9525 72.8949,74.6305 73.7627,82.0068 78.5356,88.5153" stroke="#7f0000" stroke-width="2" /></svg>