<?xml version="1.0" encoding="utf-8" ?>
<svg baseProfile="tiny" height="128" version="1.2" viewBox="0,0,128,128" width="128" xmlns="http://www.w3.org/2000/svg" xmlns:ev="http://www.w3.org/2001/xml-events" xmlns:xlink="http://www.w3.org/1999/xlink"><defs /><polyline fill="none" points="9.5458,42.522 11.2814,36.0136 23.8644,19.5254 32.1085,13.0169 41.2203,9.9797 52.9356,8.678 67.2542,9.5458 80.7051,15.6203 91.5525,25.1661 100.6644,36.4475 106.739,49.0305 108.4746,63.7831 108.0407,78.9695 94.5898,104.5695 86.7797,112.3797 76.3661,117.1525 66.3864,118.4542 44.6915,118.0203 35.5797,115.4169 20.3932,105.8712 13.8847,95.8915 10.4136,88.5153 8.678,77.6678 8.678,59.0102 13.8847,47.7288" stroke="#00007f" stroke-width="2" /><polyline fill="none" points="29.0712,20.8271 44.6915,44.6915 50.7661,55.539 54.6712,65.5186 55.9729,76.3661 55.9729,89.8169 53.3695,99.3627 49.4644,106.739 43.3898,113.2475 37.3153,117.5864 31.2407,119.322" stroke="#0000fe" stroke-width="2" /><polyline fill="none" points="31.2407,44.2576 39.9186,40.3525 55.1051,39.0508" stroke="#0060ff" stroke-width="2" /><polyline fill="none" points="38.6169,68.122 51.6339,63.3492 59.878,63.3492" stroke="#00d4ff" stroke-width="2" /><polyline fill="none" points="47.2949,87.2136 60.3119,87.2136" stroke="#4cffaa" stroke-width="2" /><polyline fill="none" points="83.7424,19.0915 76.3661,33.4102 70.2915,48.5966 68.122,57.7085 68.122,76.3661 72.461,95.4576 76.3661,102.8339 85.0441,111.9458" stroke="#aaff4c" stroke-width="2" /><polyline fill="none" points="66.3864,42.9559 83.3085,44.2576" stroke="#ffe500" stroke-width="2" /><polyline fill="none" points="60.3119,68.122 76.8,67.2542" stroke="#ff7a00" stroke-width="2" /><polyline fill="none" points="64.2169,90.6847 75.9322,91.1186" stroke="#fe1200" stroke-width="2" /><polyline fill="none" points="75.0644,107.1729 75.0644,107.1729" stroke="#7f0000" stroke-width="2" /></svg>