<?xml version="1.0" encoding="utf-8" ?>
<svg baseProfile="tiny" height="128" version="1.2" viewBox="0,0,128,128" width="128" xmlns="http://www.w3.org/2000/svg" xmlns:ev="http://www.w3.org/2001/xml-events" xmlns:xlink="http://www.w3.org/1999/xlink"><defs /><polyline fill="none" points="43.8237,12.5831 69.8576,16.0542 93.722,26.0339 111.5119,39.0508 116.7186,47.7288 119.322,61.1797 119.322,65.0847 113.2475,79.4034 106.739,86.7797 99.3627,91.5525 91.1186,94.1559 77.2339,95.0237 67.6881,93.2881 32.9763,78.9695 9.9797,57.7085 8.678,48.1627 13.8847,40.7864 23.8644,29.939 42.522,18.6576 52.9356,8.678 52.9356,15.1864 56.4068,19.0915 60.7458,32.5424 71.5932,52.9356 85.0441,66.8203 87.6475,73.7627 86.3458,90.6847 88.0814,80.7051" stroke="#00007f" stroke-width="2" /><polyline fill="none" points="91.5525,29.0712 97.6271,36.4475 111.9458,62.4814 107.1729,64.2169 99.7966,62.9153 83.7424,62.9153" stroke="#7cff79" stroke-width="2" /><polyline fill="none" points="42.9559,26.4678 44.2576,30.3729 45.1254,53.3695 48.5966,65.9525 48.5966,79.4034 50.3322,76.3661" stroke="#7f0000" stroke-width="2" /></svg>