<?xml version="1.0" encoding="utf-8" ?>
<svg baseProfile="tiny" height="128" version="1.2" viewBox="0,0,128,128" width="128" xmlns="http://www.w3.org/2000/svg" xmlns:ev="http://www.w3.org/2001/xml-events" xmlns:xlink="http://www.w3.org/1999/xlink"><defs /><polyline fill="none" points="105.8712,10.8475 101.0983,8.678 95.8915,10.4136 78.1017,24.2983 74.6305,30.3729 73.7627,36.4475 75.0644,42.9559 79.4034,47.2949 87.2136,49.8983 96.3254,49.0305 104.1356,45.9932 110.2102,39.9186 112.8136,31.6746 111.9458,22.5627 108.4746,14.7525 102.8339,8.678" stroke="#00007f" stroke-width="2" /><polyline fill="none" points="82.8746,51.2 86.3458,35.1458 82.4407,13.4508" stroke="#0028ff" stroke-width="2" /><polyline fill="none" points="96.7593,49.0305 100.2305,31.6746 104.5695,22.9966 111.9458,16.0542 116.2847,14.7525 119.322,15.6203" stroke="#00d4ff" stroke-width="2" /><polyline fill="none" points="80.2712,28.6373 86.3458,25.1661 92.8542,23.8644" stroke="#7cff79" stroke-width="2" /><polyline fill="none" points="78.1017,37.7492 87.2136,32.1085 93.2881,30.8068" stroke="#ffe500" stroke-width="2" /><polyline fill="none" points="93.2881,30.8068 8.678,17.3559" stroke="#ff4600" stroke-width="2" /><polyline fill="none" points="79.8373,43.8237 93.722,38.1831" stroke="#7f0000" stroke-width="2" /></svg>