<?xml version="1.0" encoding="utf-8" ?>
<svg baseProfile="tiny" height="128" version="1.2" viewBox="0,0,128,128" width="128" xmlns="http://www.w3.org/2000/svg" xmlns:ev="http://www.w3.org/2001/xml-events" xmlns:xlink="http://www.w3.org/1999/xlink"><defs /><polyline fill="none" points="104.1356,16.0542 98.4949,16.4881 75.9322,8.678 54.6712,8.678 42.522,15.1864 30.8068,27.3356 17.7898,50.3322 12.5831,62.4814 8.678,75.9322 8.678,89.3831 11.2814,99.7966 16.0542,105.8712 27.7695,114.5492 40.3525,118.8881 58.5763,119.322 71.1593,117.5864 98.061,106.739 107.1729,98.9288 112.8136,87.2136 114.5492,72.8949 114.5492,55.9729 112.8136,40.7864 108.4746,28.2034 98.4949,17.3559 93.2881,16.4881" stroke="#00007f" stroke-width="2" /><polyline fill="none" points="45.5593,19.0915 41.6542,22.5627 34.278,42.9559 32.9763,52.0678 33.4102,76.8 39.0508,88.9492 52.9356,105.8712 58.5763,107.6068" stroke="#7cff79" stroke-width="2" /><polyline fill="none" points="74.1966,16.4881 67.6881,38.1831 66.3864,67.6881 75.0644,79.4034 85.0441,89.3831 97.6271,94.5898 105.4373,95.4576" stroke="#7f0000" stroke-width="2" /></svg>