<?xml version="1.0" encoding="utf-8" ?>
<svg baseProfile="tiny" height="128" version="1.2" viewBox="0,0,128,128" width="128" xmlns="http://www.w3.org/2000/svg" xmlns:ev="http://www.w3.org/2001/xml-events" xmlns:xlink="http://www.w3.org/1999/xlink"><defs /><polyline fill="none" points="42.9559,8.678 29.939,9.5458 22.5627,13.4508 15.1864,21.6949 10.8475,33.8441 8.678,51.2 8.678,59.0102 10.8475,62.9153 11.7153,71.1593 16.4881,78.9695 20.3932,82.0068 38.6169,90.6847 49.0305,93.722 72.0271,96.7593 89.8169,96.7593 97.6271,94.1559 110.6441,85.0441 119.322,65.0847 119.322,49.8983 118.0203,43.8237 116.2847,38.6169 110.2102,30.3729 107.1729,26.9017 97.6271,21.261 78.5356,17.3559 73.7627,15.1864 56.4068,12.5831 26.9017,11.7153" stroke="#00007f" stroke-width="2" /><polyline fill="none" points="31.2407,13.0169 42.9559,23.8644 49.8983,46.861 49.0305,59.0102 44.2576,67.6881 34.7119,77.2339 35.5797,78.9695" stroke="#7cff79" stroke-width="2" /><polyline fill="none" points="108.4746,29.939 99.7966,45.1254 98.9288,49.8983 98.9288,78.9695 104.5695,96.3254 107.6068,98.061" stroke="#7f0000" stroke-width="2" /></svg>