<?xml version="1.0" encoding="utf-8" ?>
<svg baseProfile="tiny" height="128" version="1.2" viewBox="0,0,128,128" width="128" xmlns="http://www.w3.org/2000/svg" xmlns:ev="http://www.w3.org/2001/xml-events" xmlns:xlink="http://www.w3.org/1999/xlink"><defs /><polyline fill="none" points="76.3661,10.8475 81.139,10.4136 89.3831,14.3186 102.4,23.8644 109.7763,31.6746 115.4169,40.3525 117.1525,45.9932 119.322,62.4814 117.1525,75.0644 105.8712,91.9864 94.1559,101.5322 87.2136,105.0034 73.3288,108.0407 55.539,106.739 39.9186,100.6644 32.9763,96.3254 26.9017,91.1186 18.6576,81.139 13.4508,70.2915 10.8475,59.4441 11.2814,48.5966 15.1864,39.0508 20.8271,29.939 31.2407,18.2237 46.4271,10.4136 67.2542,8.678 71.5932,10.8475" stroke="#00007f" stroke-width="2" /><polyline fill="none" points="114.1153,33.8441 113.6814,40.7864 108.9085,50.3322 99.7966,61.6136 91.9864,68.122 61.6136,82.8746 46.4271,86.7797 32.5424,87.2136 30.8068,86.3458" stroke="#0080ff" stroke-width="2" /><polyline fill="none" points="91.5525,13.0169 91.1186,15.6203 83.7424,25.1661 59.878,42.9559 32.1085,54.2373 8.678,59.4441" stroke="#7cff79" stroke-width="2" /><polyline fill="none" points="43.3898,12.5831 44.2576,24.2983 48.1627,33.8441 55.539,47.2949 64.6508,59.4441 81.139,73.7627 88.5153,78.1017 107.6068,85.0441" stroke="#ff9400" stroke-width="2" /><polyline fill="none" points="25.1661,24.2983 26.9017,26.4678 28.6373,42.9559 34.278,54.2373 40.7864,61.6136 64.6508,82.0068 85.9119,94.1559 89.3831,98.061" stroke="#7f0000" stroke-width="2" /></svg>