<?xml version="1.0" encoding="utf-8" ?>
<svg baseProfile="tiny" height="128" version="1.2" viewBox="0,0,128,128" width="128" xmlns="http://www.w3.org/2000/svg" xmlns:ev="http://www.w3.org/2001/xml-events" xmlns:xlink="http://www.w3.org/1999/xlink"><defs /><polyline fill="none" points="67.0476,8.7075 50.068,8.7075 40.4898,13.0612 24.381,26.1224 14.8027,38.7483 9.1429,52.6803 8.7075,64.8707 9.5782,71.8367 16.5442,80.9796 22.6395,85.7687 34.8299,90.5578 50.5034,92.2993 72.2721,92.2993 86.2041,87.9456 94.9116,83.1565 101.8776,76.6259 116.2449,57.9048 119.2925,46.1497 119.2925,34.3946 115.3741,26.1224 104.9252,16.9796 94.0408,13.0612 81.8503,12.6259 61.3878,21.3333" stroke="#00007f" stroke-width="2" /><polyline fill="none" points="33.5238,16.5442 43.9728,42.6667 48.7619,60.9524 50.068,72.2721 49.1973,88.381" stroke="#004cff" stroke-width="2" /><polyline fill="none" points="81.8503,11.3197 76.6259,40.9252 76.1905,58.7755 79.6735,82.7211 82.7211,89.6871" stroke="#29ffcd" stroke-width="2" /><polyline fill="none" points="31.3469,37.4422 39.619,36.1361" stroke="#cdff29" stroke-width="2" /><polyline fill="none" points="35.2653,59.2109 52.2449,59.2109" stroke="#ff6700" stroke-width="2" /><polyline fill="none" points="72.7075,30.0408 74.8844,30.0408" stroke="#7f0000" stroke-width="2" /></svg>