<?xml version="1.0" encoding="utf-8" ?>
<svg baseProfile="tiny" height="128" version="1.2" viewBox="0,0,128,128" width="128" xmlns="http://www.w3.org/2000/svg" xmlns:ev="http://www.w3.org/2001/xml-events" xmlns:xlink="http://www.w3.org/1999/xlink"><defs /><polyline fill="none" points="8.678,54.6712 9.5458,33.4102 12.1492,26.4678 97.1932,26.9017 89.3831,61.6136" stroke="#00007f" stroke-width="2" /><polyline fill="none" points="10.4136,38.6169 40.7864,38.6169 61.1797,36.0136 87.2136,35.5797" stroke="#0000d1" stroke-width="2" /><polyline fill="none" points="87.6475,35.1458 88.5153,35.1458" stroke="#0010ff" stroke-width="2" /><polyline fill="none" points="91.1186,27.3356 87.2136,37.3153" stroke="#0058ff" stroke-width="2" /><polyline fill="none" points="77.6678,27.3356 72.8949,37.7492" stroke="#00a4ff" stroke-width="2" /><polyline fill="none" points="65.5186,26.9017 58.1424,36.4475 55.1051,39.0508" stroke="#05ecf1" stroke-width="2" /><polyline fill="none" points="50.7661,26.0339 43.3898,33.4102" stroke="#3fffb7" stroke-width="2" /><polyline fill="none" points="36.0136,26.9017 29.5051,36.0136" stroke="#7cff79" stroke-width="2" /><polyline fill="none" points="25.6,29.5051 23.4305,31.2407" stroke="#b7ff3f" stroke-width="2" /><polyline fill="none" points="20.3932,30.3729 17.7898,32.5424 16.4881,36.8814" stroke="#f1fc05" stroke-width="2" /><polyline fill="none" points="50.3322,10.4136 43.3898,11.7153 43.8237,13.8847 46.861,14.3186 53.3695,14.3186 57.2746,12.1492 55.1051,8.678 46.861,9.9797" stroke="#ffb900" stroke-width="2" /><polyline fill="none" points="52.9356,8.678 51.2,14.3186" stroke="#ff7300" stroke-width="2" /><polyline fill="none" points="48.5966,11.7153 46.861,16.0542" stroke="#ff3000" stroke-width="2" /><polyline fill="none" points="44.6915,12.5831 49.8983,10.8475 61.6136,9.9797" stroke="#d10000" stroke-width="2" /><polyline fill="none" points="108.0407,14.7525 105.4373,17.7898 105.8712,20.3932 112.8136,23.4305 117.1525,22.1288 119.322,19.5254 118.8881,15.6203" stroke="#7f0000" stroke-width="2" /></svg>