<?xml version="1.0" encoding="utf-8" ?>
<svg baseProfile="tiny" height="128" version="1.2" viewBox="0,0,128,128" width="128" xmlns="http://www.w3.org/2000/svg" xmlns:ev="http://www.w3.org/2001/xml-events" xmlns:xlink="http://www.w3.org/1999/xlink"><defs /><polyline fill="none" points="90.2508,13.4508 76.8,9.5458 55.1051,8.678 42.0881,11.2814 33.4102,14.7525 22.5627,23.4305 13.0169,33.4102 9.1119,42.522 8.678,54.6712 11.7153,61.6136 18.2237,71.1593 24.7322,75.4983 38.6169,80.7051 70.2915,87.2136 84.1763,87.2136 96.3254,82.0068 110.6441,71.1593 114.9831,65.5186 118.8881,55.1051 119.322,45.1254 113.6814,36.4475 101.9661,26.9017 93.2881,21.6949 86.7797,11.7153 83.3085,13.4508 78.9695,19.5254 77.2339,24.7322 77.2339,36.8814 84.1763,50.7661 97.6271,68.9898 102.8339,79.4034" stroke="#00007f" stroke-width="2" /><polyline fill="none" points="15.6203,27.3356 32.5424,36.4475 47.7288,48.1627 55.1051,63.7831 55.9729,81.139 54.2373,83.3085" stroke="#0080ff" stroke-width="2" /><polyline fill="none" points="29.5051,23.8644 22.5627,37.3153" stroke="#7cff79" stroke-width="2" /><polyline fill="none" points="42.9559,33.8441 36.4475,41.2203 33.4102,46.4271 34.278,47.2949" stroke="#ff9400" stroke-width="2" /><polyline fill="none" points="60.3119,46.4271 41.2203,57.2746" stroke="#7f0000" stroke-width="2" /></svg>