<?xml version="1.0" encoding="utf-8" ?>
<svg baseProfile="tiny" height="128" version="1.2" viewBox="0,0,128,128" width="128" xmlns="http://www.w3.org/2000/svg" xmlns:ev="http://www.w3.org/2001/xml-events" xmlns:xlink="http://www.w3.org/1999/xlink"><defs /><polyline fill="none" points="66.3864,18.2237 60.7458,19.0915 58.1424,23.8644 58.5763,29.0712 62.9153,33.8441 70.7254,31.6746 72.8949,29.0712 73.7627,25.1661 70.2915,16.4881 66.8203,15.1864 62.9153,16.922" stroke="#00007f" stroke-width="2" /><polyline fill="none" points="25.1661,18.2237 26.4678,14.3186 29.5051,10.4136 33.8441,8.678 37.7492,9.5458 42.0881,12.5831 42.9559,17.7898 28.6373,42.522 19.9593,53.3695 15.6203,55.539 13.8847,49.4644 15.1864,41.2203 24.2983,14.3186 26.9017,9.1119 27.7695,9.9797" stroke="#0000e8" stroke-width="2" /><polyline fill="none" points="13.8847,52.0678 8.678,66.8203 8.678,68.9898 10.4136,69.8576 16.0542,65.9525 19.5254,51.2" stroke="#0038ff" stroke-width="2" /><polyline fill="none" points="60.7458,18.2237 65.5186,22.1288 66.3864,25.1661 65.5186,28.6373 62.0475,31.6746" stroke="#0094ff" stroke-width="2" /><polyline fill="none" points="72.461,19.5254 70.2915,21.6949 69.4237,27.3356 73.3288,29.5051" stroke="#0cf4ea" stroke-width="2" /><polyline fill="none" points="15.6203,47.2949 19.9593,49.4644" stroke="#56ffa0" stroke-width="2" /><polyline fill="none" points="11.7153,56.8407 18.6576,58.5763 13.8847,56.8407 17.7898,58.1424 13.8847,56.8407 16.0542,57.7085 13.8847,55.9729 16.922,56.8407 12.5831,52.9356 19.0915,55.1051 14.3186,50.3322 19.9593,50.3322 16.922,47.7288 18.6576,48.1627" stroke="#a0ff56" stroke-width="2" /><polyline fill="none" points="94.5898,45.5593 90.2508,37.3153 95.0237,38.1831 97.1932,26.0339 110.6441,25.6 118.8881,29.5051 119.322,39.4847 116.7186,47.2949 114.1153,49.4644 109.7763,50.3322 101.9661,49.0305 96.3254,46.4271 93.2881,42.522" stroke="#eaff0c" stroke-width="2" /><polyline fill="none" points="104.5695,44.2576 107.6068,45.9932 103.7017,46.4271 101.5322,44.6915 102.4,43.3898" stroke="#ffaa00" stroke-width="2" /><polyline fill="none" points="105.0034,21.6949 105.0034,28.6373" stroke="#ff5500" stroke-width="2" /><polyline fill="none" points="111.5119,26.0339 110.2102,35.1458" stroke="#e80000" stroke-width="2" /><polyline fill="none" points="104.1356,24.7322 102.8339,32.5424" stroke="#7f0000" stroke-width="2" /></svg>