<?xml version="1.0" encoding="utf-8" ?>
<svg baseProfile="tiny" height="128" version="1.2" viewBox="0,0,128,128" width="128" xmlns="http://www.w3.org/2000/svg" xmlns:ev="http://www.w3.org/2001/xml-events" xmlns:xlink="http://www.w3.org/1999/xlink"><defs /><polyline fill="none" points="100.6644,31.2407 88.5153,20.8271 58.5763,8.678 36.4475,9.5458 19.0915,18.2237 12.5831,25.6 9.1119,44.2576 9.1119,52.0678 11.7153,60.7458 20.8271,74.6305 33.8441,87.2136 56.8407,99.7966 75.4983,100.2305 91.1186,94.1559 99.3627,85.478 112.3797,63.7831 118.4542,38.6169" stroke="#00007f" stroke-width="2" /><polyline fill="none" points="40.7864,11.2814 44.6915,19.0915 45.5593,37.3153 51.2,54.6712 51.2,69.8576 43.3898,92.4203" stroke="#00d4ff" stroke-width="2" /><polyline fill="none" points="78.9695,17.7898 78.9695,31.2407 77.2339,33.8441 77.2339,64.2169 80.7051,85.9119 87.2136,94.1559" stroke="#ffe500" stroke-width="2" /><polyline fill="none" points="8.678,34.278 24.2983,39.9186 40.7864,42.9559 73.7627,43.3898 92.4203,43.3898 119.322,34.278" stroke="#7f0000" stroke-width="2" /></svg>