<?xml version="1.0" encoding="utf-8" ?>
<svg baseProfile="tiny" height="128" version="1.2" viewBox="0,0,128,128" width="128" xmlns="http://www.w3.org/2000/svg" xmlns:ev="http://www.w3.org/2001/xml-events" xmlns:xlink="http://www.w3.org/1999/xlink"><defs /><polyline fill="none" points="86.3458,8.678 43.8237,25.6 32.1085,36.4475 18.6576,53.3695 9.9797,72.0271 8.678,96.3254 14.7525,103.7017 22.9966,108.4746 35.5797,110.6441 52.5017,111.9458 80.2712,111.9458 92.8542,104.5695 105.8712,90.2508 114.5492,59.878 115.8508,22.1288 109.7763,17.3559 101.0983,13.4508 95.0237,13.4508 95.0237,12.1492" stroke="#00007f" stroke-width="2" /><polyline fill="none" points="68.122,32.9763 60.7458,63.7831 53.8034,81.5729 45.1254,97.6271 37.7492,101.0983 34.278,104.5695" stroke="#7cff79" stroke-width="2" /><polyline fill="none" points="116.7186,11.2814 111.9458,17.3559 97.1932,42.9559 91.5525,59.4441 87.6475,75.4983 85.478,91.5525 85.478,103.7017 86.7797,112.3797 90.2508,118.0203 93.722,119.322" stroke="#7f0000" stroke-width="2" /></svg>