<?xml version="1.0" encoding="utf-8" ?>
<svg baseProfile="tiny" height="128" version="1.2" viewBox="0,0,128,128" width="128" xmlns="http://www.w3.org/2000/svg" xmlns:ev="http://www.w3.org/2001/xml-events" xmlns:xlink="http://www.w3.org/1999/xlink"><defs /><polyline fill="none" points="40.7864,8.678 23.4305,16.4881 20.3932,22.5627 20.3932,26.9017 26.9017,36.8814 29.939,39.4847 43.8237,40.7864 54.6712,39.9186 58.5763,36.8814 61.1797,30.3729 61.6136,19.0915 60.3119,12.5831 45.9932,9.1119 35.5797,10.4136" stroke="#00007f" stroke-width="2" /><polyline fill="none" points="40.3525,9.1119 42.9559,11.7153 43.3898,16.922 40.3525,24.2983 30.3729,26.0339 22.5627,25.6" stroke="#0000fe" stroke-width="2" /><polyline fill="none" points="32.1085,37.7492 41.6542,24.7322 48.1627,18.6576 62.0475,16.0542" stroke="#0060ff" stroke-width="2" /><polyline fill="none" points="9.1119,55.1051 12.1492,64.2169 11.2814,64.2169 8.678,58.1424 9.1119,52.0678 15.1864,46.861 18.6576,47.2949 21.6949,52.0678 19.9593,58.5763 27.3356,60.3119 21.6949,70.2915 13.4508,75.0644 11.7153,71.1593 13.8847,66.3864 19.9593,63.7831 36.0136,61.1797" stroke="#00d4ff" stroke-width="2" /><polyline fill="none" points="37.3153,58.5763 37.3153,62.4814 38.6169,62.4814 39.0508,58.1424 45.9932,59.4441 46.861,58.5763" stroke="#4cffaa" stroke-width="2" /><polyline fill="none" points="46.861,52.0678 45.9932,54.6712 54.2373,51.2 56.4068,52.9356 58.1424,55.539 58.1424,60.3119 49.8983,62.9153 48.5966,61.6136 51.2,59.0102" stroke="#aaff4c" stroke-width="2" /><polyline fill="none" points="62.0475,48.5966 62.9153,45.9932 61.1797,45.5593 61.1797,49.8983 66.3864,49.8983 69.4237,42.9559" stroke="#ffe500" stroke-width="2" /><polyline fill="none" points="75.0644,42.9559 77.2339,45.9932 87.6475,52.5017 85.478,46.861 87.2136,43.3898 98.9288,34.278 100.2305,35.1458 100.2305,51.6339 99.3627,52.9356 91.9864,53.3695 92.4203,50.3322 100.6644,41.6542" stroke="#ff7a00" stroke-width="2" /><polyline fill="none" points="102.8339,31.6746 103.2678,34.7119 106.739,35.1458 105.8712,31.6746 103.2678,31.2407 114.9831,28.6373" stroke="#fe1200" stroke-width="2" /><polyline fill="none" points="105.0034,21.6949 119.322,23.8644" stroke="#7f0000" stroke-width="2" /></svg>