<?xml version="1.0" encoding="utf-8" ?>
<svg baseProfile="tiny" height="128" version="1.2" viewBox="0,0,128,128" width="128" xmlns="http://www.w3.org/2000/svg" xmlns:ev="http://www.w3.org/2001/xml-events" xmlns:xlink="http://www.w3.org/1999/xlink"><defs /><polyline fill="none" points="53.8034,20.3932 29.0712,40.3525 16.922,55.539 10.8475,68.122 8.678,81.139 9.5458,88.9492 13.0169,97.1932 20.3932,105.8712 29.0712,109.7763 42.522,112.8136 57.2746,113.2475 78.5356,107.6068 87.2136,103.2678 99.7966,93.722 105.0034,86.3458 109.7763,68.5559 111.078,53.3695 105.0034,36.0136 99.3627,25.1661 92.4203,17.3559 78.5356,9.9797 52.9356,8.678 48.1627,11.7153" stroke="#00007f" stroke-width="2" /><polyline fill="none" points="30.3729,37.3153 46.861,57.7085 52.5017,68.5559 55.9729,85.0441 55.9729,96.3254 53.3695,111.078 55.539,111.5119" stroke="#00d4ff" stroke-width="2" /><polyline fill="none" points="95.0237,19.0915 87.2136,30.3729 80.7051,46.861 75.9322,61.1797 73.7627,75.4983 73.3288,101.5322 74.6305,107.6068 78.9695,116.2847 85.478,119.322" stroke="#ffe500" stroke-width="2" /><polyline fill="none" points="32.9763,60.7458 61.6136,51.6339" stroke="#7f0000" stroke-width="2" /></svg>