<?xml version="1.0" encoding="utf-8" ?>
<svg baseProfile="tiny" height="128" version="1.2" viewBox="0,0,128,128" width="128" xmlns="http://www.w3.org/2000/svg" xmlns:ev="http://www.w3.org/2001/xml-events" xmlns:xlink="http://www.w3.org/1999/xlink"><defs /><polyline fill="none" points="72.9556,8.7372 63.7816,9.6109 49.802,13.5427 31.0171,24.0273 22.7167,33.2014 15.2901,44.5597 9.1741,61.1604 8.7372,78.198 11.7952,92.1775 16.6007,99.6041 27.5222,108.3413 40.1911,114.4573 59.413,118.3891 70.3345,118.3891 84.7509,115.7679 96.1092,110.5256 109.215,100.9147 116.6416,87.8089 119.2628,73.8294 119.2628,59.413 113.5836,40.1911 109.215,34.0751 103.9727,29.2696 87.372,20.0956 73.8294,17.9113 62.9078,19.6587" stroke="#00007f" stroke-width="2" /><polyline fill="none" points="24.0273,23.1536 38.8805,31.8908 45.8703,41.5017 52.8601,61.1604 53.7338,78.6348 48.9283,92.6143 41.0648,103.099 29.2696,110.0887 20.5324,111.3993" stroke="#0080ff" stroke-width="2" /><polyline fill="none" points="101.3515,24.4642 94.3618,25.3379 87.372,30.1433 79.9454,41.9386 72.0819,64.2184 71.2082,83.8771 72.5188,88.6826 76.8874,94.7986 86.4983,103.099 101.3515,110.5256 115.3311,113.1468" stroke="#7cff79" stroke-width="2" /><polyline fill="none" points="52.8601,29.2696 45.8703,34.0751 35.8225,38.0068 27.0853,46.3072" stroke="#ff9400" stroke-width="2" /><polyline fill="none" points="58.9761,54.6075 45.4334,59.8498 35.3857,68.587" stroke="#7f0000" stroke-width="2" /></svg>