<?xml version="1.0" encoding="utf-8" ?>
<svg baseProfile="tiny" height="128" version="1.2" viewBox="0,0,128,128" width="128" xmlns="http://www.w3.org/2000/svg" xmlns:ev="http://www.w3.org/2001/xml-events" xmlns:xlink="http://www.w3.org/1999/xlink"><defs /><polyline fill="none" points="88.5153,16.922 72.8949,16.922 61.6136,19.5254 54.6712,22.5627 42.0881,32.5424 20.3932,55.1051 11.2814,71.1593 8.678,86.3458 9.5458,94.1559 16.922,106.3051 22.9966,111.9458 34.7119,118.0203 49.8983,119.322 74.1966,110.2102 88.0814,101.5322 97.6271,91.5525 102.8339,82.4407 104.5695,71.5932 104.5695,60.3119 99.7966,48.5966 81.139,22.9966" stroke="#00007f" stroke-width="2" /><polyline fill="none" points="33.8441,34.7119 43.8237,47.7288 45.9932,55.1051 46.861,84.1763 43.3898,96.7593 37.7492,107.1729 27.7695,116.7186 22.5627,118.8881 20.8271,119.322 20.8271,117.5864" stroke="#004cff" stroke-width="2" /><polyline fill="none" points="69.8576,8.678 59.4441,44.2576 59.4441,62.4814 61.1797,68.5559 72.8949,91.9864 80.2712,100.6644 92.4203,109.3424 101.5322,110.2102" stroke="#29ffcd" stroke-width="2" /><polyline fill="none" points="29.939,55.1051 35.1458,52.0678 59.4441,49.8983 61.6136,52.5017 62.0475,55.9729" stroke="#cdff29" stroke-width="2" /><polyline fill="none" points="32.1085,94.1559 36.8814,90.2508 45.1254,88.9492 52.9356,88.9492 55.9729,92.8542" stroke="#ff6700" stroke-width="2" /><polyline fill="none" points="25.6,109.7763 44.2576,110.2102" stroke="#7f0000" stroke-width="2" /></svg>