<?xml version="1.0" encoding="utf-8" ?>
<svg baseProfile="tiny" height="128" version="1.2" viewBox="0,0,128,128" width="128" xmlns="http://www.w3.org/2000/svg" xmlns:ev="http://www.w3.org/2001/xml-events" xmlns:xlink="http://www.w3.org/1999/xlink"><defs /><polyline fill="none" points="58.7755,15.6735 58.3401,11.7551 30.9116,10.8844 24.8163,12.1905 19.5918,18.7211 12.6259,41.3605 9.1429,62.2585 8.7075,83.1565 13.4966,97.0884 24.8163,107.102 44.8435,115.8095 64.4354,119.2925 81.415,118.8571 87.5102,113.6327 92.2993,106.2313 98.8299,94.0408 102.3129,80.9796 102.7483,64.4354 101.4422,57.034 93.6054,45.7143 85.3333,25.2517 77.0612,13.932 58.7755,8.7075 48.7619,9.1429 39.1837,13.4966" stroke="#00007f" stroke-width="2" /><polyline fill="none" points="27.8639,14.3673 38.3129,17.415 46.1497,24.8163 52.2449,32.6531 58.7755,48.3265 67.483,76.6259 68.7891,84.898 66.6122,94.9116 59.6463,109.7143 54.4218,114.5034" stroke="#7cff79" stroke-width="2" /><polyline fill="none" points="70.966,13.4966 67.0476,19.5918 64.4354,33.0884 63.1293,60.0816 64.8707,66.6122 77.932,97.5238 87.0748,101.4422 93.1701,101.8776" stroke="#7f0000" stroke-width="2" /></svg>