<?xml version="1.0" encoding="utf-8" ?>
<svg baseProfile="tiny" height="128" version="1.2" viewBox="0,0,128,128" width="128" xmlns="http://www.w3.org/2000/svg" xmlns:ev="http://www.w3.org/2001/xml-events" xmlns:xlink="http://www.w3.org/1999/xlink"><defs /><polyline fill="none" points="57.7085,8.678 79.8373,11.2814 93.2881,17.7898 105.4373,29.0712 113.6814,41.2203 117.5864,49.8983 119.322,58.1424 117.5864,67.6881 108.9085,82.8746 97.1932,95.4576 87.6475,101.5322 77.2339,105.8712 65.9525,108.4746 54.2373,108.4746 39.9186,106.3051 26.9017,102.4 17.7898,97.1932 11.2814,90.6847 9.1119,84.1763 8.678,73.7627 10.8475,57.7085 15.6203,45.9932 22.9966,32.9763 36.4475,16.922 45.9932,10.4136 55.9729,9.9797" stroke="#00007f" stroke-width="2" /><polyline fill="none" points="88.0814,18.2237 80.7051,26.9017 74.6305,39.9186 72.8949,48.1627 72.461,62.9153 73.3288,77.6678 75.4983,84.6102 90.6847,94.5898" stroke="#7cff79" stroke-width="2" /><polyline fill="none" points="27.3356,25.6 32.9763,32.5424 41.6542,49.0305 43.8237,59.4441 44.6915,75.0644 41.6542,88.0814 36.0136,98.9288 30.8068,105.0034 24.7322,108.0407" stroke="#7f0000" stroke-width="2" /></svg>