<?xml version="1.0" encoding="utf-8" ?>
<svg baseProfile="tiny" height="128" version="1.2" viewBox="0,0,128,128" width="128" xmlns="http://www.w3.org/2000/svg" xmlns:ev="http://www.w3.org/2001/xml-events" xmlns:xlink="http://www.w3.org/1999/xlink"><defs /><polyline fill="none" points="26.0339,19.9593 20.8271,23.4305 13.8847,32.9763 9.5458,44.6915 8.678,58.1424 9.9797,71.1593 15.1864,83.7424 23.4305,94.5898 34.278,102.8339 45.9932,108.0407 73.7627,108.9085 88.5153,105.0034 101.0983,98.061 110.6441,88.0814 116.7186,75.0644 119.322,48.5966 118.0203,38.6169 114.1153,30.3729 98.4949,17.3559 85.0441,11.7153 72.8949,8.678 52.5017,9.5458 43.8237,13.4508 36.4475,19.5254 32.9763,24.7322" stroke="#00007f" stroke-width="2" /><polyline fill="none" points="73.3288,91.9864 84.6102,91.1186" stroke="#0000cc" stroke-width="2" /><polyline fill="none" points="72.461,82.4407 84.6102,81.5729" stroke="#0008ff" stroke-width="2" /><polyline fill="none" points="68.5559,73.7627 77.6678,73.7627" stroke="#004cff" stroke-width="2" /><polyline fill="none" points="65.0847,62.4814 81.5729,63.3492" stroke="#0090ff" stroke-width="2" /><polyline fill="none" points="72.461,47.7288 83.3085,54.2373" stroke="#00d4ff" stroke-width="2" /><polyline fill="none" points="76.8,40.7864 90.6847,49.0305" stroke="#29ffcd" stroke-width="2" /><polyline fill="none" points="84.1763,29.5051 95.0237,36.8814" stroke="#5fff96" stroke-width="2" /><polyline fill="none" points="96.7593,22.1288 104.5695,27.3356" stroke="#96ff5f" stroke-width="2" /><polyline fill="none" points="82.4407,98.9288 73.3288,82.4407 72.461,68.5559 77.2339,56.4068 86.7797,40.7864 94.5898,32.1085 102.8339,28.2034" stroke="#cdff29" stroke-width="2" /><polyline fill="none" points="33.4102,98.9288 28.2034,86.7797 23.8644,71.1593 22.5627,61.6136 22.9966,42.522 26.4678,32.1085" stroke="#ffe500" stroke-width="2" /><polyline fill="none" points="26.4678,82.8746 36.0136,82.4407" stroke="#ffa600" stroke-width="2" /><polyline fill="none" points="21.6949,75.9322 36.4475,72.0271" stroke="#ff6700" stroke-width="2" /><polyline fill="none" points="20.3932,63.7831 33.4102,58.1424" stroke="#ff2800" stroke-width="2" /><polyline fill="none" points="26.4678,45.9932 35.5797,45.5593" stroke="#cc0000" stroke-width="2" /><polyline fill="none" points="22.9966,29.0712 34.278,29.5051" stroke="#7f0000" stroke-width="2" /></svg>