<?xml version="1.0" encoding="utf-8" ?>
<svg baseProfile="tiny" height="128" version="1.2" viewBox="0,0,128,128" width="128" xmlns="http://www.w3.org/2000/svg" xmlns:ev="http://www.w3.org/2001/xml-events" xmlns:xlink="http://www.w3.org/1999/xlink"><defs /><polyline fill="none" points="88.8163,26.9932 50.5034,25.6871 32.2177,27.4286 24.381,30.0408 14.3673,36.5714 10.449,41.7959 8.7075,49.1973 9.1429,65.3061 13.0612,74.449 23.5102,90.1224 34.8299,101.0068 45.7143,107.102 61.3878,109.7143 74.449,108.4082 88.381,104.0544 101.4422,97.0884 110.585,89.6871 113.6327,84.898 116.6803,71.4014 116.2449,55.7279 111.4558,36.5714 106.2313,25.6871 100.5714,18.7211 86.2041,8.7075" stroke="#00007f" stroke-width="2" /><polyline fill="none" points="31.7823,58.7755 31.7823,53.551 33.9592,49.6327 48.3265,40.0544 79.6735,30.0408 114.068,25.6871" stroke="#0080ff" stroke-width="2" /><polyline fill="none" points="33.0884,88.8163 49.6327,79.6735 101.4422,57.9048 111.8912,51.3741" stroke="#7cff79" stroke-width="2" /><polyline fill="none" points="55.2925,105.7959 69.6599,104.0544 87.0748,98.8299 119.2925,84.0272" stroke="#ff9400" stroke-width="2" /><polyline fill="none" points="24.381,77.932 43.5374,63.1293 71.4014,47.0204 86.2041,36.1361 97.5238,32.2177" stroke="#7f0000" stroke-width="2" /></svg>