<?xml version="1.0" encoding="utf-8" ?>
<svg baseProfile="tiny" height="128" version="1.2" viewBox="0,0,128,128" width="128" xmlns="http://www.w3.org/2000/svg" xmlns:ev="http://www.w3.org/2001/xml-events" xmlns:xlink="http://www.w3.org/1999/xlink"><defs /><polyline fill="none" points="106.3051,8.678 88.9492,10.4136 56.8407,25.6 36.8814,43.3898 13.4508,68.122 8.678,82.8746 8.678,89.3831 16.922,104.5695 29.5051,111.5119 37.3153,113.6814 55.539,113.2475 71.5932,107.6068 78.9695,103.2678 106.739,82.0068 113.6814,71.1593 118.8881,51.6339 119.322,30.8068 117.1525,24.7322 111.5119,19.5254" stroke="#00007f" stroke-width="2" /><polyline fill="none" points="58.5763,108.9085 47.7288,96.3254 45.1254,91.1186 44.6915,83.3085 46.4271,71.5932 50.7661,60.7458 56.4068,53.3695 66.3864,45.1254 96.3254,45.1254 108.9085,56.4068 114.5492,77.2339" stroke="#7cff79" stroke-width="2" /><polyline fill="none" points="17.3559,103.2678 30.3729,98.9288 45.5593,87.6475 66.8203,69.4237 80.7051,50.3322 90.2508,34.278 105.4373,16.4881 102.4,13.0169 88.0814,14.3186 82.8746,18.6576 67.6881,26.4678 33.4102,52.9356 29.0712,54.6712" stroke="#7f0000" stroke-width="2" /></svg>