<?xml version="1.0" encoding="utf-8" ?>
<svg baseProfile="tiny" height="128" version="1.2" viewBox="0,0,128,128" width="128" xmlns="http://www.w3.org/2000/svg" xmlns:ev="http://www.w3.org/2001/xml-events" xmlns:xlink="http://www.w3.org/1999/xlink"><defs /><polyline fill="none" points="73.7627,13.0169 59.0102,13.0169 36.4475,24.2983 29.0712,29.939 17.7898,45.5593 12.5831,53.3695 9.5458,62.0475 8.678,69.4237 9.5458,76.8 13.4508,90.2508 16.922,95.4576 28.6373,102.8339 36.4475,106.3051 53.3695,105.8712 78.5356,101.0983 95.0237,90.2508 101.9661,82.0068 113.2475,64.2169 119.322,49.0305 118.4542,35.1458 114.5492,26.4678 110.2102,20.8271 96.7593,11.7153 86.7797,8.678 70.7254,11.2814 67.6881,45.5593 60.7458,75.0644 58.1424,93.2881" stroke="#00007f" stroke-width="2" /><polyline fill="none" points="50.7661,17.3559 45.5593,52.0678 39.0508,78.5356 35.1458,106.739" stroke="#00d4ff" stroke-width="2" /><polyline fill="none" points="9.9797,54.6712 28.6373,49.0305 58.1424,43.8237 75.0644,42.0881 114.9831,41.6542" stroke="#ffe500" stroke-width="2" /><polyline fill="none" points="18.6576,83.7424 61.6136,81.139 85.478,77.6678 103.7017,76.8" stroke="#7f0000" stroke-width="2" /></svg>