<?xml version="1.0" encoding="utf-8" ?>
<svg baseProfile="tiny" height="128" version="1.2" viewBox="0,0,128,128" width="128" xmlns="http://www.w3.org/2000/svg" xmlns:ev="http://www.w3.org/2001/xml-events" xmlns:xlink="http://www.w3.org/1999/xlink"><defs /><polyline fill="none" points="50.7661,18.6576 43.3898,9.5458 38.6169,9.9797 31.2407,16.4881 18.6576,31.6746 13.0169,44.6915 9.5458,58.1424 8.678,78.5356 12.1492,91.9864 20.3932,103.7017 36.0136,116.2847 41.2203,118.4542 58.5763,119.322 73.7627,116.7186 91.9864,110.2102 104.1356,103.7017 110.2102,97.6271 115.8508,87.6475 117.1525,79.4034 116.2847,52.0678 111.5119,42.9559 104.5695,33.8441 90.2508,21.6949 78.1017,13.0169 68.5559,9.1119 43.8237,8.678 38.1831,12.1492" stroke="#00007f" stroke-width="2" /><polyline fill="none" points="19.9593,96.3254 27.7695,94.1559 35.1458,88.5153 40.3525,78.9695 41.6542,63.7831 36.0136,45.1254 36.0136,34.7119 39.4847,30.3729 48.5966,24.7322 60.3119,20.8271 69.8576,20.8271 74.6305,21.261 78.1017,23.8644 82.0068,31.6746 83.7424,39.4847 83.7424,50.3322 75.9322,65.9525 72.8949,85.9119 75.0644,96.7593 80.2712,102.4" stroke="#7f0000" stroke-width="2" /></svg>