<?xml version="1.0" encoding="utf-8" ?>
<svg baseProfile="tiny" height="128" version="1.2" viewBox="0,0,128,128" width="128" xmlns="http://www.w3.org/2000/svg" xmlns:ev="http://www.w3.org/2001/xml-events" xmlns:xlink="http://www.w3.org/1999/xlink"><defs /><polyline fill="none" points="64.6508,113.2475 69.4237,116.2847 88.5153,108.4746 97.6271,97.6271 103.2678,82.0068 105.8712,63.3492 103.7017,49.4644 96.3254,31.2407 85.9119,19.5254 76.3661,13.4508 62.4814,8.678 52.5017,8.678 41.6542,11.2814 33.4102,16.922 21.6949,27.3356 14.7525,40.7864 9.9797,55.539 8.678,69.8576 11.7153,84.1763 16.0542,95.4576 23.4305,105.4373 29.939,111.078 45.5593,117.1525 62.4814,119.322 65.5186,118.8881 68.122,115.8508" stroke="#00007f" stroke-width="2" /><polyline fill="none" points="85.9119,112.8136 84.1763,109.7763 77.2339,81.139 76.3661,67.6881 78.1017,55.539 82.4407,41.6542 90.2508,25.1661" stroke="#0000ff" stroke-width="2" /><polyline fill="none" points="26.9017,106.3051 38.6169,72.8949 42.9559,46.4271 42.9559,37.7492 39.0508,24.2983 34.7119,18.6576 32.5424,16.4881 33.4102,19.0915" stroke="#0080ff" stroke-width="2" /><polyline fill="none" points="47.2949,29.0712 43.8237,31.6746 34.278,32.5424 35.5797,33.8441" stroke="#15ffe1" stroke-width="2" /><polyline fill="none" points="43.3898,57.2746 42.0881,59.4441 31.6746,60.7458" stroke="#7cff79" stroke-width="2" /><polyline fill="none" points="38.6169,81.5729 36.0136,83.3085 32.1085,83.3085 26.4678,81.139" stroke="#e4ff12" stroke-width="2" /><polyline fill="none" points="87.2136,94.1559 78.9695,95.8915 74.1966,95.4576 72.8949,91.9864" stroke="#ff9400" stroke-width="2" /><polyline fill="none" points="85.478,69.8576 75.0644,68.5559 72.8949,64.6508" stroke="#ff1d00" stroke-width="2" /><polyline fill="none" points="84.6102,51.6339 80.2712,49.0305 77.2339,44.6915" stroke="#7f0000" stroke-width="2" /></svg>