<?xml version="1.0" encoding="utf-8" ?>
<svg baseProfile="tiny" height="128" version="1.2" viewBox="0,0,128,128" width="128" xmlns="http://www.w3.org/2000/svg" xmlns:ev="http://www.w3.org/2001/xml-events" xmlns:xlink="http://www.w3.org/1999/xlink"><defs /><polyline fill="none" points="102.4,19.5254 92.8542,12.1492 84.1763,8.678 68.122,9.9797 53.3695,14.3186 32.1085,24.2983 24.7322,29.939 9.9797,59.878 8.678,68.122 8.678,74.1966 19.0915,100.2305 21.6949,103.7017 37.7492,113.2475 65.0847,119.322 74.1966,118.0203 82.8746,106.739 103.2678,76.3661 111.9458,58.1424 114.5492,43.8237 113.2475,32.5424 107.1729,20.3932 100.6644,17.7898" stroke="#00007f" stroke-width="2" /><polyline fill="none" points="94.1559,11.2814 91.1186,13.4508 81.139,24.7322 76.3661,32.1085 73.3288,41.6542 69.4237,65.5186 68.9898,93.722 74.1966,110.2102" stroke="#7cff79" stroke-width="2" /><polyline fill="none" points="45.5593,15.6203 48.5966,31.2407 53.3695,77.2339 46.4271,91.9864 41.2203,99.7966 37.3153,104.5695 30.8068,108.0407 29.0712,108.0407" stroke="#7f0000" stroke-width="2" /></svg>