<?xml version="1.0" encoding="utf-8" ?>
<svg baseProfile="tiny" height="128" version="1.2" viewBox="0,0,128,128" width="128" xmlns="http://www.w3.org/2000/svg" xmlns:ev="http://www.w3.org/2001/xml-events" xmlns:xlink="http://www.w3.org/1999/xlink"><defs /><polyline fill="none" points="75.4983,19.0915 75.0644,16.0542 71.5932,12.5831 63.3492,8.678 53.8034,9.5458 44.6915,15.1864 34.7119,22.5627 14.3186,49.0305 12.1492,52.0678 12.1492,56.4068 8.678,68.122 8.678,94.1559 13.0169,102.8339 23.8644,112.8136 37.7492,118.0203 46.4271,119.322 60.3119,119.322 69.8576,115.8508 77.6678,108.0407 86.3458,92.8542 91.9864,79.4034 94.5898,68.9898 94.5898,60.7458 93.722,53.8034 88.9492,42.9559 82.0068,34.278 66.3864,23.4305" stroke="#00007f" stroke-width="2" /><polyline fill="none" points="62.9153,15.6203 62.0475,15.1864" stroke="#0010ff" stroke-width="2" /><polyline fill="none" points="45.9932,15.1864 45.9932,30.3729 48.1627,40.3525 48.1627,49.0305 53.3695,67.2542 57.2746,74.6305 63.7831,80.7051 81.5729,87.6475 86.7797,87.6475" stroke="#00a4ff" stroke-width="2" /><polyline fill="none" points="20.8271,37.7492 19.0915,87.2136 20.8271,91.5525 27.7695,101.9661 39.0508,108.4746 65.9525,114.5492" stroke="#3fffb7" stroke-width="2" /><polyline fill="none" points="15.6203,59.4441 33.8441,47.2949" stroke="#b7ff3f" stroke-width="2" /><polyline fill="none" points="17.7898,86.7797 24.2983,84.1763" stroke="#ffb900" stroke-width="2" /><polyline fill="none" points="29.939,108.9085 42.522,97.6271" stroke="#ff3000" stroke-width="2" /><polyline fill="none" points="48.1627,114.9831 48.1627,111.5119 52.5017,104.5695" stroke="#7f0000" stroke-width="2" /></svg>