<?xml version="1.0" encoding="utf-8" ?>
<svg baseProfile="tiny" height="128" version="1.2" viewBox="0,0,128,128" width="128" xmlns="http://www.w3.org/2000/svg" xmlns:ev="http://www.w3.org/2001/xml-events" xmlns:xlink="http://www.w3.org/1999/xlink"><defs /><polyline fill="none" points="98.061,11.2814 84.1763,13.0169 39.4847,14.7525 30.8068,21.6949 17.3559,38.6169 10.4136,50.7661 8.678,60.7458 13.4508,71.1593 37.7492,85.0441 67.6881,91.9864 91.1186,92.8542 108.4746,91.1186 115.8508,82.0068 119.322,52.5017 116.7186,43.8237 112.8136,39.0508 91.1186,27.3356 77.2339,24.2983" stroke="#00007f" stroke-width="2" /><polyline fill="none" points="49.0305,8.678 45.5593,26.9017 32.5424,58.5763 29.0712,62.9153 24.7322,64.6508 14.7525,63.7831 12.1492,62.0475" stroke="#00d4ff" stroke-width="2" /><polyline fill="none" points="94.5898,36.8814 93.722,67.6881 98.061,76.3661" stroke="#ffe500" stroke-width="2" /><polyline fill="none" points="72.0271,14.7525 72.0271,28.6373 68.5559,42.0881 68.122,51.2 64.2169,68.5559 59.4441,78.1017" stroke="#7f0000" stroke-width="2" /></svg>