<?xml version="1.0" encoding="utf-8" ?>
<svg baseProfile="tiny" height="128" version="1.2" viewBox="0,0,128,128" width="128" xmlns="http://www.w3.org/2000/svg" xmlns:ev="http://www.w3.org/2001/xml-events" xmlns:xlink="http://www.w3.org/1999/xlink"><defs /><polyline fill="none" points="50.7661,13.8847 41.6542,9.1119 32.1085,10.8475 26.0339,16.922 19.0915,28.2034 13.4508,40.7864 8.678,62.4814 8.678,72.461 11.2814,83.3085 17.3559,93.2881 27.7695,102.8339 52.0678,116.7186 61.1797,119.322 70.2915,119.322 77.2339,117.5864 82.8746,110.6441 86.3458,98.4949 88.0814,85.0441 88.0814,49.8983 85.9119,36.0136 81.5729,22.9966 76.8,16.4881 71.5932,11.7153 65.5186,10.4136 39.0508,9.1119 37.7492,85.478 34.7119,96.3254 30.8068,102.8339 28.2034,103.7017" stroke="#00007f" stroke-width="2" /><polyline fill="none" points="70.7254,8.678 65.0847,46.861 64.6508,75.4983 66.3864,88.9492 72.461,104.1356 78.9695,110.2102 82.4407,110.6441" stroke="#7f0000" stroke-width="2" /></svg>