<?xml version="1.0" encoding="utf-8" ?>
<svg baseProfile="tiny" height="128" version="1.2" viewBox="0,0,128,128" width="128" xmlns="http://www.w3.org/2000/svg" xmlns:ev="http://www.w3.org/2001/xml-events" xmlns:xlink="http://www.w3.org/1999/xlink"><defs /><polyline fill="none" points="87.6475,11.7153 45.1254,10.8475 33.8441,13.8847 19.9593,29.5051 12.1492,40.3525 9.5458,48.5966 8.678,76.8 13.4508,88.5153 32.1085,107.1729 52.9356,111.078 65.5186,111.078 78.5356,100.6644 111.078,70.2915 119.322,54.2373 118.8881,44.6915 115.8508,40.7864 71.1593,14.7525" stroke="#00007f" stroke-width="2" /><polyline fill="none" points="68.5559,8.678 68.9898,49.0305 82.8746,74.6305 91.9864,82.4407 97.1932,84.1763" stroke="#004cff" stroke-width="2" /><polyline fill="none" points="28.6373,19.5254 33.4102,20.3932 36.0136,22.5627 37.7492,59.878 36.0136,71.5932 29.939,88.9492 24.7322,91.9864" stroke="#29ffcd" stroke-width="2" /><polyline fill="none" points="34.7119,20.3932 32.9763,22.1288 32.5424,32.1085" stroke="#cdff29" stroke-width="2" /><polyline fill="none" points="36.4475,32.9763 36.0136,39.4847 33.8441,43.8237" stroke="#ff6700" stroke-width="2" /><polyline fill="none" points="34.278,48.5966 35.5797,51.6339" stroke="#7f0000" stroke-width="2" /></svg>