<?xml version="1.0" encoding="utf-8" ?>
<svg baseProfile="tiny" height="128" version="1.2" viewBox="0,0,128,128" width="128" xmlns="http://www.w3.org/2000/svg" xmlns:ev="http://www.w3.org/2001/xml-events" xmlns:xlink="http://www.w3.org/1999/xlink"><defs /><polyline fill="none" points="29.5051,9.1119 68.9898,8.678 79.4034,11.2814 95.4576,20.3932 103.2678,28.6373 109.3424,39.9186 111.078,66.8203 108.4746,72.0271 99.3627,78.5356 85.478,84.6102 71.5932,87.6475 55.539,87.6475 42.522,81.5729 29.0712,71.1593 15.1864,54.6712 8.678,42.9559 9.1119,37.7492 22.1288,19.5254 28.2034,14.3186 36.4475,12.1492" stroke="#00007f" stroke-width="2" /><polyline fill="none" points="75.0644,10.8475 72.461,13.0169 69.8576,22.1288 69.4237,42.0881 71.1593,53.8034 80.2712,73.3288 88.0814,77.2339 89.8169,77.2339" stroke="#00d4ff" stroke-width="2" /><polyline fill="none" points="36.4475,11.7153 36.0136,40.7864 39.4847,56.8407 46.861,72.0271 55.9729,80.7051 61.1797,89.3831 63.7831,88.0814" stroke="#ffe500" stroke-width="2" /><polyline fill="none" points="73.3288,45.1254 98.061,45.1254 119.322,38.6169" stroke="#7f0000" stroke-width="2" /></svg>