<?xml version="1.0" encoding="utf-8" ?>
<svg baseProfile="tiny" height="128" version="1.2" viewBox="0,0,128,128" width="128" xmlns="http://www.w3.org/2000/svg" xmlns:ev="http://www.w3.org/2001/xml-events" xmlns:xlink="http://www.w3.org/1999/xlink"><defs /><polyline fill="none" points="88.5153,26.0339 84.1763,19.9593 75.0644,13.8847 57.7085,9.9797 45.9932,9.9797 37.3153,11.7153 26.0339,17.7898 17.3559,29.0712 9.1119,52.5017 8.678,70.2915 12.5831,83.7424 19.5254,95.4576 30.8068,107.6068 40.7864,114.9831 48.1627,117.5864 59.878,119.322 72.0271,118.0203 78.1017,115.8508 85.478,111.078 94.5898,99.3627 99.7966,88.0814 103.2678,74.6305 104.5695,60.3119 101.9661,41.6542 98.4949,32.9763 90.2508,24.2983 87.6475,22.9966" stroke="#00007f" stroke-width="2" /><polyline fill="none" points="67.2542,10.8475 52.0678,18.2237 47.7288,24.2983 47.2949,27.3356 52.0678,39.0508 69.4237,61.6136 72.461,71.1593 69.4237,92.8542 65.5186,103.7017 62.0475,109.3424 53.8034,112.3797" stroke="#0080ff" stroke-width="2" /><polyline fill="none" points="48.5966,8.678 41.2203,13.4508 36.4475,18.2237 32.1085,27.3356 30.8068,36.0136 32.9763,42.0881 52.5017,61.6136 56.4068,68.5559 56.8407,75.9322 54.2373,87.6475 47.2949,102.4 41.2203,108.0407 36.0136,110.2102" stroke="#7cff79" stroke-width="2" /><polyline fill="none" points="87.6475,49.0305 85.478,47.2949 80.2712,49.8983 76.3661,55.539 75.4983,59.0102 77.2339,62.4814 79.8373,64.2169 83.7424,64.2169 88.5153,61.6136 91.1186,56.4068 88.9492,50.7661 83.7424,47.7288" stroke="#ff9400" stroke-width="2" /><polyline fill="none" points="36.4475,67.6881 30.3729,66.3864 26.9017,70.7254 26.0339,77.6678 26.9017,80.7051 29.939,83.7424 32.9763,84.1763 38.6169,82.0068 43.3898,75.4983 43.3898,72.461 41.6542,69.8576 32.5424,65.9525" stroke="#7f0000" stroke-width="2" /></svg>