<?xml version="1.0" encoding="utf-8" ?>
<svg baseProfile="tiny" height="128" version="1.2" viewBox="0,0,128,128" width="128" xmlns="http://www.w3.org/2000/svg" xmlns:ev="http://www.w3.org/2001/xml-events" xmlns:xlink="http://www.w3.org/1999/xlink"><defs /><polyline fill="none" points="81.139,11.7153 75.9322,9.5458 67.6881,8.678 60.7458,9.9797 45.9932,15.6203 36.4475,21.261 27.3356,29.5051 18.2237,40.7864 13.4508,52.5017 9.9797,66.3864 8.678,82.8746 10.8475,93.2881 15.1864,98.4949 22.1288,103.7017 32.5424,108.9085 46.861,111.9458 66.8203,108.9085 82.4407,102.8339 100.6644,92.4203 112.3797,78.1017 119.322,62.4814 118.8881,53.8034 115.8508,39.9186 107.6068,22.5627 95.4576,16.4881 85.0441,14.7525 72.461,14.7525" stroke="#00007f" stroke-width="2" /><polyline fill="none" points="31.2407,99.7966 39.9186,88.5153 43.3898,81.139 46.4271,68.5559 47.7288,51.6339 42.9559,30.8068 44.2576,29.0712" stroke="#7cff79" stroke-width="2" /><polyline fill="none" points="92.8542,93.2881 87.2136,88.0814 81.5729,80.2712 76.8,68.9898 72.8949,52.0678 72.8949,38.6169 74.6305,29.939 81.5729,20.8271" stroke="#7f0000" stroke-width="2" /></svg>