<?xml version="1.0" encoding="utf-8" ?>
<svg baseProfile="tiny" height="128" version="1.2" viewBox="0,0,128,128" width="128" xmlns="http://www.w3.org/2000/svg" xmlns:ev="http://www.w3.org/2001/xml-events" xmlns:xlink="http://www.w3.org/1999/xlink"><defs /><polyline fill="none" points="107.5374,65.3061 104.9252,58.7755 92.2993,42.2313 68.3537,21.3333 49.6327,11.3197 42.2313,9.1429 33.5238,8.7075 26.9932,13.932 18.2857,26.1224 13.0612,37.4422 8.7075,58.3401 9.1429,78.3673 12.6259,86.2041 20.0272,97.0884 29.1701,106.6667 43.5374,116.2449 52.6803,118.8571 69.2245,119.2925 78.8027,115.3741 85.7687,110.1497 107.5374,77.4966 110.585,67.483 110.585,60.517 108.8435,56.5986 106.2313,52.6803 101.4422,50.5034 93.1701,50.5034 85.3333,57.4694 74.8844,73.5782 63.1293,101.0068 59.2109,118.4218 50.068,119.2925 46.1497,117.9864 29.1701,106.6667 23.9456,101.4422 51.8095,66.1769 60.517,52.2449 67.483,30.4762 67.9184,13.0612 66.6122,18.7211" stroke="#00007f" stroke-width="2" /><polyline fill="none" points="59.2109,35.2653 66.6122,42.6667" stroke="#0028ff" stroke-width="2" /><polyline fill="none" points="40.9252,60.517 57.4694,73.1429" stroke="#00d4ff" stroke-width="2" /><polyline fill="none" points="30.9116,74.8844 46.585,84.898" stroke="#7cff79" stroke-width="2" /><polyline fill="none" points="32.2177,116.2449 56.5986,116.2449 63.5646,113.1973" stroke="#ffe500" stroke-width="2" /><polyline fill="none" points="53.1156,93.1701 91.4286,103.1837 98.3946,103.619" stroke="#ff4600" stroke-width="2" /><polyline fill="none" points="73.5782,76.6259 94.0408,92.7347" stroke="#7f0000" stroke-width="2" /></svg>