<?xml version="1.0" encoding="utf-8" ?>
<svg baseProfile="tiny" height="128" version="1.2" viewBox="0,0,128,128" width="128" xmlns="http://www.w3.org/2000/svg" xmlns:ev="http://www.w3.org/2001/xml-events" xmlns:xlink="http://www.w3.org/1999/xlink"><defs /><polyline fill="none" points="80.1088,9.1429 64.4354,8.7075 48.3265,13.4966 33.9592,22.2041 24.8163,30.4762 16.9796,41.3605 10.0136,56.1633 8.7075,70.0952 11.7551,83.1565 16.1088,92.2993 23.0748,101.0068 31.7823,108.4082 44.4082,113.1973 58.7755,114.5034 73.1429,112.3265 91.8639,104.9252 101.4422,96.2177 109.7143,85.3333 115.3741,70.0952 116.2449,60.0816 112.7619,41.3605 104.9252,29.1701 94.4762,19.1565 89.2517,16.1088 76.6259,13.0612" stroke="#00007f" stroke-width="2" /><polyline fill="none" points="68.7891,13.932 65.7415,35.7007 62.2585,51.3741 56.5986,62.6939 45.7143,72.7075 18.2857,85.7687" stroke="#004cff" stroke-width="2" /><polyline fill="none" points="111.4558,43.5374 98.8299,46.585 90.5578,52.6803 80.9796,63.5646 71.4014,82.7211 67.0476,94.9116 67.483,104.0544 73.1429,114.5034 79.2381,119.2925" stroke="#29ffcd" stroke-width="2" /><polyline fill="none" points="94.4762,43.102 101.4422,61.3878" stroke="#cdff29" stroke-width="2" /><polyline fill="none" points="77.0612,59.6463 85.3333,68.7891 88.381,70.5306" stroke="#ff6700" stroke-width="2" /><polyline fill="none" points="53.9864,101.0068 80.1088,97.0884" stroke="#7f0000" stroke-width="2" /></svg>