<?xml version="1.0" encoding="utf-8" ?>
<svg baseProfile="tiny" height="128" version="1.2" viewBox="0,0,128,128" width="128" xmlns="http://www.w3.org/2000/svg" xmlns:ev="http://www.w3.org/2001/xml-events" xmlns:xlink="http://www.w3.org/1999/xlink"><defs /><polyline fill="none" points="30.9116,17.8503 11.7551,33.5238 8.7075,55.7279 10.449,68.3537 13.932,74.0136 24.8163,82.7211 37.0068,89.2517 49.6327,94.4762 74.0136,95.7823 89.6871,92.7347 96.6531,89.6871 107.5374,80.1088 115.3741,68.7891 118.8571,57.4694 119.2925,48.7619 114.9388,38.3129 107.9728,32.2177 106.2313,28.2993 82.2857,13.4966 67.483,10.449 48.7619,10.0136 35.7007,11.7551 25.2517,17.415" stroke="#00007f" stroke-width="2" /><polyline fill="none" points="30.9116,20.4626 37.4422,22.6395 43.102,30.4762" stroke="#0000ff" stroke-width="2" /><polyline fill="none" points="43.102,40.0544 45.2789,43.5374 47.0204,56.5986" stroke="#0080ff" stroke-width="2" /><polyline fill="none" points="47.0204,61.3878 48.7619,79.6735" stroke="#15ffe1" stroke-width="2" /><polyline fill="none" points="43.102,83.5918 43.102,83.5918" stroke="#7cff79" stroke-width="2" /><polyline fill="none" points="70.5306,8.7075 77.4966,18.2857 81.8503,30.4762" stroke="#e4ff12" stroke-width="2" /><polyline fill="none" points="90.1224,47.8912 90.1224,67.483" stroke="#ff9400" stroke-width="2" /><polyline fill="none" points="85.3333,75.3197 70.0952,93.6054" stroke="#ff1d00" stroke-width="2" /><polyline fill="none" points="43.102,81.415 35.7007,84.4626 25.2517,84.4626" stroke="#7f0000" stroke-width="2" /></svg>