<?xml version="1.0" encoding="utf-8" ?>
<svg baseProfile="tiny" height="128" version="1.2" viewBox="0,0,128,128" width="128" xmlns="http://www.w3.org/2000/svg" xmlns:ev="http://www.w3.org/2001/xml-events" xmlns:xlink="http://www.w3.org/1999/xlink"><defs /><polyline fill="none" points="103.619,17.8503 87.5102,14.3673 74.8844,9.5782 69.2245,8.7075 62.2585,9.5782 32.2177,21.7687 14.3673,38.3129 9.1429,50.068 8.7075,64.0 10.8844,73.1429 15.2381,80.5442 20.4626,84.4626 38.7483,92.7347 50.5034,94.9116 60.517,94.0408 68.7891,91.4286 100.1361,76.6259 107.9728,69.6599 111.8912,63.5646 117.9864,45.7143 119.2925,30.4762 118.4218,26.9932 114.068,20.4626 104.9252,10.0136" stroke="#00007f" stroke-width="2" /><polyline fill="none" points="48.7619,17.415 57.9048,43.5374 57.9048,68.3537 55.2925,77.932 49.6327,88.381 40.0544,100.1361" stroke="#7cff79" stroke-width="2" /><polyline fill="none" points="105.3605,16.5442 94.9116,16.5442 90.5578,18.2857 86.6395,22.6395 74.449,42.6667 72.7075,49.1973 72.7075,62.6939 80.9796,98.3946" stroke="#7f0000" stroke-width="2" /></svg>