<?xml version="1.0" encoding="utf-8" ?>
<svg baseProfile="tiny" height="128" version="1.2" viewBox="0,0,128,128" width="128" xmlns="http://www.w3.org/2000/svg" xmlns:ev="http://www.w3.org/2001/xml-events" xmlns:xlink="http://www.w3.org/1999/xlink"><defs /><polyline fill="none" points="98.4949,29.939 86.3458,26.0339 64.6508,26.4678 50.3322,29.5051 35.1458,36.4475 24.2983,44.2576 13.8847,58.1424 9.1119,70.7254 8.678,77.6678 9.5458,83.3085 13.4508,89.3831 22.1288,94.5898 30.8068,96.3254 43.8237,95.0237 59.4441,91.1186 79.8373,84.1763 92.8542,77.6678 103.2678,70.7254 111.9458,62.4814 117.5864,53.3695 119.322,43.8237 118.0203,34.7119 112.3797,23.4305 100.6644,13.8847 88.5153,9.5458 75.9322,8.678" stroke="#00007f" stroke-width="2" /><polyline fill="none" points="62.4814,27.3356 96.3254,42.0881 106.739,49.4644 110.2102,53.3695 113.2475,61.6136 114.1153,73.3288 112.3797,78.1017" stroke="#7cff79" stroke-width="2" /><polyline fill="none" points="53.3695,31.2407 47.7288,32.5424 41.2203,38.1831 33.8441,49.0305 29.939,59.4441 27.7695,68.122 27.3356,84.6102 32.1085,95.8915" stroke="#7f0000" stroke-width="2" /></svg>