<?xml version="1.0" encoding="utf-8" ?>
<svg baseProfile="tiny" height="128" version="1.2" viewBox="0,0,128,128" width="128" xmlns="http://www.w3.org/2000/svg" xmlns:ev="http://www.w3.org/2001/xml-events" xmlns:xlink="http://www.w3.org/1999/xlink"><defs /><polyline fill="none" points="19.5254,34.7119 22.9966,22.9966 26.4678,19.0915 40.3525,11.2814 59.878,8.678 83.3085,9.5458 94.5898,12.5831 103.7017,17.3559 114.5492,26.4678 119.322,37.3153 119.322,65.9525 113.2475,91.9864 107.6068,101.5322 103.7017,105.0034 98.061,107.6068 87.2136,110.6441 68.5559,110.6441 61.1797,108.9085 41.6542,101.5322 32.5424,95.8915 15.1864,80.7051 9.1119,66.3864 8.678,48.1627 13.0169,40.7864 20.8271,30.3729" stroke="#00007f" stroke-width="2" /><polyline fill="none" points="8.678,32.5424 14.3186,29.939 24.7322,28.6373 37.3153,29.0712 40.7864,31.2407 46.861,39.9186 48.1627,65.5186 42.9559,79.8373 32.1085,98.061" stroke="#7cff79" stroke-width="2" /><polyline fill="none" points="104.1356,29.939 82.8746,32.1085 76.3661,39.0508 70.2915,49.8983 69.4237,53.8034 70.2915,64.6508 76.3661,76.3661 79.8373,78.9695 93.2881,81.5729 96.7593,81.5729 100.2305,79.8373" stroke="#7f0000" stroke-width="2" /></svg>