<?xml version="1.0" encoding="utf-8" ?>
<svg baseProfile="tiny" height="128" version="1.2" viewBox="0,0,128,128" width="128" xmlns="http://www.w3.org/2000/svg" xmlns:ev="http://www.w3.org/2001/xml-events" xmlns:xlink="http://www.w3.org/1999/xlink"><defs /><polyline fill="none" points="80.2712,19.0915 82.0068,16.4881 79.8373,13.8847 63.7831,9.1119 46.4271,8.678 35.5797,10.4136 28.2034,14.7525 20.8271,21.6949 15.6203,29.939 11.2814,41.2203 9.1119,53.3695 8.678,78.5356 9.9797,89.8169 15.6203,105.0034 21.261,111.5119 32.9763,118.0203 40.3525,119.322 55.1051,118.8881 62.9153,116.7186 69.8576,112.3797 75.9322,107.6068 86.7797,94.5898 94.5898,81.139 100.6644,67.6881 103.7017,50.3322 103.7017,36.0136 101.5322,30.3729 96.3254,21.261 88.5153,15.1864 82.0068,12.5831 70.7254,12.1492 64.2169,15.1864 59.0102,21.6949" stroke="#00007f" stroke-width="2" /><polyline fill="none" points="19.0915,23.4305 19.9593,28.2034 28.2034,39.0508 35.5797,45.5593 43.3898,49.0305 78.1017,55.9729 95.0237,55.9729 102.4,52.9356 103.2678,51.2" stroke="#7cff79" stroke-width="2" /><polyline fill="none" points="12.5831,95.0237 13.4508,91.9864 20.8271,85.0441 40.3525,75.0644 56.4068,72.0271 66.8203,72.0271 71.1593,75.0644 74.1966,81.139 75.9322,98.061" stroke="#7f0000" stroke-width="2" /></svg>