<?xml version="1.0" encoding="utf-8" ?>
<svg baseProfile="tiny" height="128" version="1.2" viewBox="0,0,128,128" width="128" xmlns="http://www.w3.org/2000/svg" xmlns:ev="http://www.w3.org/2001/xml-events" xmlns:xlink="http://www.w3.org/1999/xlink"><defs /><polyline fill="none" points="66.8203,22.9966 65.9525,18.6576 61.1797,16.0542 49.8983,16.922 22.9966,30.3729 13.4508,36.8814 10.4136,41.6542 8.678,52.9356 9.9797,76.3661 18.6576,101.0983 28.6373,113.2475 41.2203,118.0203 54.2373,119.322 78.5356,119.322 84.1763,118.4542 87.6475,116.7186 90.2508,111.9458 94.1559,87.6475 94.1559,69.8576 89.8169,59.4441 83.3085,52.9356 78.1017,40.7864 72.8949,34.278 64.6508,10.8475 61.6136,8.678 59.4441,19.0915 61.1797,42.522 60.7458,89.3831 54.2373,93.722 44.2576,95.8915 30.3729,95.8915 15.6203,92.8542" stroke="#00007f" stroke-width="2" /><polyline fill="none" points="88.0814,53.8034 85.0441,64.6508 82.4407,68.5559 78.9695,82.4407 78.9695,92.4203 84.1763,108.4746 87.6475,114.1153" stroke="#7f0000" stroke-width="2" /></svg>