<?xml version="1.0" encoding="utf-8" ?>
<svg baseProfile="tiny" height="128" version="1.2" viewBox="0,0,128,128" width="128" xmlns="http://www.w3.org/2000/svg" xmlns:ev="http://www.w3.org/2001/xml-events" xmlns:xlink="http://www.w3.org/1999/xlink"><defs /><polyline fill="none" points="58.7755,17.8503 58.3401,16.1088 53.551,13.4966 45.2789,14.3673 42.2313,16.5442 25.6871,36.1361 18.2857,53.1156 14.8027,57.034 10.8844,69.2245 8.7075,80.5442 8.7075,89.2517 12.6259,100.1361 18.7211,106.6667 28.2993,112.3265 39.619,116.6803 50.068,117.9864 66.1769,116.2449 76.6259,112.7619 81.415,108.4082 84.898,101.8776 89.6871,88.8163 91.4286,79.6735 91.4286,67.9184 86.6395,39.619 82.2857,28.7347 74.0136,19.1565 57.4694,8.7075 54.8571,11.3197" stroke="#00007f" stroke-width="2" /><polyline fill="none" points="54.4218,11.7551 52.2449,33.0884 53.9864,54.8571 60.0816,84.4626 66.1769,106.2313 71.4014,117.9864 74.8844,119.2925" stroke="#7cff79" stroke-width="2" /><polyline fill="none" points="38.3129,30.4762 41.7959,40.4898 47.0204,48.7619 52.2449,61.3878 58.3401,88.381 60.517,107.5374 57.9048,115.3741 53.9864,119.2925" stroke="#7f0000" stroke-width="2" /></svg>