<?xml version="1.0" encoding="utf-8" ?>
<svg baseProfile="tiny" height="128" version="1.2" viewBox="0,0,128,128" width="128" xmlns="http://www.w3.org/2000/svg" xmlns:ev="http://www.w3.org/2001/xml-events" xmlns:xlink="http://www.w3.org/1999/xlink"><defs /><polyline fill="none" points="30.8068,114.5492 22.9966,108.9085 16.4881,100.2305 11.7153,91.1186 8.678,79.8373 8.678,56.8407 14.3186,43.3898 32.9763,22.1288 44.2576,14.3186 51.6339,10.8475 61.6136,8.678 79.8373,9.5458 88.5153,14.3186 99.7966,25.1661 110.6441,46.4271 115.4169,61.1797 116.2847,90.6847 114.5492,96.3254 107.6068,107.6068 103.2678,110.6441 90.2508,117.1525 35.1458,117.1525 25.1661,115.4169" stroke="#00007f" stroke-width="2" /><polyline fill="none" points="32.5424,28.6373 37.7492,43.3898" stroke="#0028ff" stroke-width="2" /><polyline fill="none" points="44.2576,55.1051 43.3898,78.1017" stroke="#00d4ff" stroke-width="2" /><polyline fill="none" points="44.2576,98.061 43.3898,103.7017 37.7492,117.5864" stroke="#7cff79" stroke-width="2" /><polyline fill="none" points="101.0983,18.2237 97.1932,24.2983 91.5525,52.0678" stroke="#ffe500" stroke-width="2" /><polyline fill="none" points="90.6847,64.6508 92.4203,82.0068" stroke="#ff4600" stroke-width="2" /><polyline fill="none" points="92.4203,103.7017 97.1932,113.6814 103.7017,119.322" stroke="#7f0000" stroke-width="2" /></svg>