<?xml version="1.0" encoding="utf-8" ?>
<svg baseProfile="tiny" height="128" version="1.2" viewBox="0,0,128,128" width="128" xmlns="http://www.w3.org/2000/svg" xmlns:ev="http://www.w3.org/2001/xml-events" xmlns:xlink="http://www.w3.org/1999/xlink"><defs /><polyline fill="none" points="10.4136,81.5729 24.7322,79.4034 32.5424,82.0068 36.0136,86.7797 36.0136,89.3831 29.0712,95.4576 19.5254,96.7593 9.9797,90.6847 8.678,81.139 11.2814,79.4034 19.0915,78.1017" stroke="#00007f" stroke-width="2" /><polyline fill="none" points="83.7424,101.9661 84.1763,111.5119 86.3458,118.4542 88.5153,119.322 92.8542,114.9831 94.1559,110.6441 91.5525,101.0983 91.9864,98.4949 99.7966,87.2136 104.1356,74.6305 104.5695,55.9729 102.8339,42.522 97.6271,24.7322 89.8169,13.0169 88.0814,15.6203 85.9119,35.1458 80.2712,58.5763 77.2339,83.7424 79.4034,93.2881 82.0068,98.061 88.9492,102.4 93.722,97.6271" stroke="#00d4ff" stroke-width="2" /><polyline fill="none" points="89.8169,8.678 88.9492,20.3932 81.5729,52.5017 79.4034,76.3661 79.4034,84.6102 81.139,93.2881 86.7797,104.5695" stroke="#ffe500" stroke-width="2" /><polyline fill="none" points="90.2508,9.1119 95.8915,17.3559 99.7966,26.0339 101.9661,39.9186 101.5322,78.1017 100.2305,86.7797 98.061,91.5525 90.6847,102.4" stroke="#7f0000" stroke-width="2" /></svg>