<?xml version="1.0" encoding="utf-8" ?>
<svg baseProfile="tiny" height="128" version="1.2" viewBox="0,0,128,128" width="128" xmlns="http://www.w3.org/2000/svg" xmlns:ev="http://www.w3.org/2001/xml-events" xmlns:xlink="http://www.w3.org/1999/xlink"><defs /><polyline fill="none" points="53.3695,12.1492 48.1627,14.3186 30.8068,27.7695 19.9593,37.7492 15.1864,45.1254 9.5458,62.9153 8.678,92.4203 13.4508,103.2678 21.6949,112.8136 29.0712,117.5864 38.1831,119.322 47.7288,114.9831 62.0475,101.9661 69.4237,93.2881 76.3661,82.0068 84.1763,63.3492 87.6475,47.2949 88.0814,33.8441 83.7424,26.0339 72.461,12.1492 64.2169,8.678 54.2373,10.8475" stroke="#00007f" stroke-width="2" /><polyline fill="none" points="32.9763,23.4305 32.9763,65.0847 29.0712,85.0441 26.4678,91.5525 14.3186,107.1729" stroke="#7cff79" stroke-width="2" /><polyline fill="none" points="63.3492,14.7525 55.1051,39.0508 53.3695,69.8576 58.5763,86.3458 69.4237,99.3627" stroke="#7f0000" stroke-width="2" /></svg>