<?xml version="1.0" encoding="utf-8" ?>
<svg baseProfile="tiny" height="128" version="1.2" viewBox="0,0,128,128" width="128" xmlns="http://www.w3.org/2000/svg" xmlns:ev="http://www.w3.org/2001/xml-events" xmlns:xlink="http://www.w3.org/1999/xlink"><defs /><polyline fill="none" points="35.1458,20.8271 30.8068,19.9593 26.9017,25.1661 19.9593,37.3153 10.8475,57.2746 8.678,72.0271 8.678,95.4576 10.8475,100.2305 13.8847,105.8712 18.2237,109.7763 22.9966,112.3797 37.3153,117.1525 70.2915,119.322 75.0644,117.5864 82.0068,112.3797 101.9661,89.8169 106.739,81.5729 111.078,68.5559 109.7763,49.4644 102.8339,35.5797 92.4203,23.4305 85.9119,17.7898 72.461,11.7153 56.8407,8.678 41.2203,8.678 29.0712,15.6203 24.2983,22.9966 22.1288,33.4102" stroke="#00007f" stroke-width="2" /><polyline fill="none" points="92.4203,26.0339 88.9492,27.7695 81.139,46.4271 78.9695,61.6136 78.9695,79.8373 79.8373,83.7424 83.7424,89.3831 91.1186,95.8915 95.4576,96.3254" stroke="#0000ff" stroke-width="2" /><polyline fill="none" points="29.0712,28.2034 40.7864,44.6915 45.9932,55.9729 48.5966,66.3864 49.0305,84.1763 45.1254,96.3254 40.7864,102.8339" stroke="#0080ff" stroke-width="2" /><polyline fill="none" points="30.3729,52.5017 50.7661,44.2576" stroke="#15ffe1" stroke-width="2" /><polyline fill="none" points="36.0136,78.9695 42.0881,77.6678 57.2746,78.9695" stroke="#7cff79" stroke-width="2" /><polyline fill="none" points="35.1458,90.2508 40.7864,94.1559 50.7661,95.4576" stroke="#e4ff12" stroke-width="2" /><polyline fill="none" points="95.8915,27.3356 76.3661,36.8814 66.3864,39.9186 53.3695,40.7864" stroke="#ff9400" stroke-width="2" /><polyline fill="none" points="74.6305,55.539 84.1763,54.2373 97.1932,57.2746" stroke="#ff1d00" stroke-width="2" /><polyline fill="none" points="72.8949,74.1966 82.0068,73.7627" stroke="#7f0000" stroke-width="2" /></svg>