<?xml version="1.0" encoding="utf-8" ?>
<svg baseProfile="tiny" height="128" version="1.2" viewBox="0,0,128,128" width="128" xmlns="http://www.w3.org/2000/svg" xmlns:ev="http://www.w3.org/2001/xml-events" xmlns:xlink="http://www.w3.org/1999/xlink"><defs /><polyline fill="none" points="97.9592,12.6259 85.7687,9.1429 71.4014,8.7075 55.2925,14.3673 37.4422,23.5102 27.8639,30.4762 20.898,38.7483 13.932,51.8095 8.7075,67.483 8.7075,74.0136 17.415,89.2517 32.2177,103.1837 43.5374,108.8435 67.0476,113.1973 92.2993,112.7619 111.0204,106.6667 116.6803,102.7483 119.2925,92.2993 119.2925,61.3878 116.6803,55.2925 107.102,39.1837 91.4286,18.7211 81.8503,12.1905" stroke="#00007f" stroke-width="2" /><polyline fill="none" points="47.8912,17.8503 51.8095,20.898 55.2925,30.9116 56.5986,46.1497 54.8571,58.3401 51.3741,71.4014 45.7143,85.3333 38.7483,99.2653 33.5238,104.9252" stroke="#004cff" stroke-width="2" /><polyline fill="none" points="95.7823,35.7007 92.7347,37.8776 84.4626,56.1633 79.2381,75.3197 78.3673,92.7347 79.2381,113.1973" stroke="#29ffcd" stroke-width="2" /><polyline fill="none" points="70.5306,106.2313 88.381,99.7007" stroke="#cdff29" stroke-width="2" /><polyline fill="none" points="71.8367,83.1565 86.6395,73.1429 92.2993,70.966" stroke="#ff6700" stroke-width="2" /><polyline fill="none" points="74.0136,55.2925 94.4762,53.551" stroke="#7f0000" stroke-width="2" /></svg>