<?xml version="1.0" encoding="utf-8" ?>
<svg baseProfile="tiny" height="128" version="1.2" viewBox="0,0,128,128" width="128" xmlns="http://www.w3.org/2000/svg" xmlns:ev="http://www.w3.org/2001/xml-events" xmlns:xlink="http://www.w3.org/1999/xlink"><defs /><polyline fill="none" points="55.9729,111.078 42.522,104.5695 20.8271,88.5153 8.678,65.9525 10.4136,54.2373 16.922,40.3525 27.7695,27.7695 41.6542,16.922 60.7458,9.5458 75.0644,8.678 79.4034,10.4136 86.7797,16.922 98.061,44.6915 100.2305,59.0102 99.3627,70.7254 92.4203,90.2508 83.7424,104.5695 73.7627,114.1153 68.9898,117.1525 58.1424,119.322 48.5966,117.1525 44.2576,114.1153" stroke="#00007f" stroke-width="2" /><polyline fill="none" points="27.7695,20.3932 31.6746,35.1458 39.0508,53.8034 39.4847,59.878 38.1831,72.461 33.8441,88.9492 27.7695,98.061" stroke="#7cff79" stroke-width="2" /><polyline fill="none" points="83.3085,9.9797 76.3661,21.261 70.7254,38.1831 69.8576,59.0102 72.0271,68.9898 74.1966,72.8949 78.1017,78.1017 88.5153,86.7797" stroke="#7f0000" stroke-width="2" /></svg>