<?xml version="1.0" encoding="utf-8" ?>
<svg baseProfile="tiny" height="128" version="1.2" viewBox="0,0,128,128" width="128" xmlns="http://www.w3.org/2000/svg" xmlns:ev="http://www.w3.org/2001/xml-events" xmlns:xlink="http://www.w3.org/1999/xlink"><defs /><polyline fill="none" points="75.0644,17.3559 67.6881,10.4136 64.6508,8.678 60.7458,8.678 54.2373,9.9797 39.0508,17.3559 31.2407,22.5627 24.7322,31.2407 19.0915,40.7864 10.4136,59.4441 8.678,67.6881 9.1119,85.9119 11.2814,95.8915 15.1864,104.1356 27.3356,115.8508 42.0881,119.322 59.4441,117.1525 68.9898,112.3797 84.6102,97.1932 93.2881,79.8373 94.5898,70.7254 94.1559,61.6136 89.3831,45.1254 77.6678,28.6373 60.7458,16.0542" stroke="#00007f" stroke-width="2" /><polyline fill="none" points="39.0508,21.6949 42.0881,57.7085 41.6542,68.9898 37.3153,85.478 28.6373,96.3254" stroke="#7cff79" stroke-width="2" /><polyline fill="none" points="64.6508,19.0915 61.1797,24.7322 57.2746,45.1254 56.4068,59.0102 58.5763,71.1593 64.6508,81.139 76.3661,88.9492 88.0814,92.8542 93.722,92.8542" stroke="#7f0000" stroke-width="2" /></svg>