<?xml version="1.0" encoding="utf-8" ?>
<svg baseProfile="tiny" height="128" version="1.2" viewBox="0,0,128,128" width="128" xmlns="http://www.w3.org/2000/svg" xmlns:ev="http://www.w3.org/2001/xml-events" xmlns:xlink="http://www.w3.org/1999/xlink"><defs /><polyline fill="none" points="85.478,8.678 73.7627,9.9797 48.5966,20.3932 32.1085,30.3729 20.3932,42.0881 15.1864,49.4644 12.1492,58.1424 8.678,75.0644 9.9797,88.5153 16.4881,99.7966 25.6,106.739 32.1085,107.6068 48.1627,107.6068 55.9729,105.4373 63.7831,102.4 85.9119,89.3831 97.6271,79.8373 108.0407,68.9898 118.4542,48.5966 119.322,37.3153 117.1525,30.8068 112.8136,23.8644 106.3051,18.6576 98.061,15.1864 88.9492,13.0169" stroke="#00007f" stroke-width="2" /><polyline fill="none" points="61.6136,19.0915 61.6136,30.3729 57.7085,42.9559 58.1424,45.9932 47.2949,66.3864 36.8814,78.5356 25.1661,86.7797 18.6576,89.3831" stroke="#7cff79" stroke-width="2" /><polyline fill="none" points="87.2136,12.1492 82.8746,35.5797 75.4983,56.4068 71.1593,74.1966 69.8576,94.5898 75.0644,100.2305" stroke="#7f0000" stroke-width="2" /></svg>