<?xml version="1.0" encoding="utf-8" ?>
<svg baseProfile="tiny" height="128" version="1.2" viewBox="0,0,128,128" width="128" xmlns="http://www.w3.org/2000/svg" xmlns:ev="http://www.w3.org/2001/xml-events" xmlns:xlink="http://www.w3.org/1999/xlink"><defs /><polyline fill="none" points="34.3946,23.0748 28.7347,24.8163 15.2381,37.4422 9.1429,54.4218 8.7075,71.4014 20.4626,91.8639 41.7959,112.3265 55.2925,117.9864 68.3537,119.2925 89.6871,117.1156 98.3946,114.068 111.0204,98.8299 116.2449,88.8163 119.2925,69.2245 118.8571,50.068 114.9388,35.2653 107.5374,20.4626 99.2653,13.0612 90.9932,10.0136 85.3333,8.7075 53.9864,9.1429 34.3946,17.415 30.9116,20.898" stroke="#00007f" stroke-width="2" /><polyline fill="none" points="30.9116,18.2857 42.2313,32.6531 49.6327,51.3741 49.6327,64.4354 47.0204,81.415 42.6667,95.3469 37.0068,102.3129" stroke="#7cff79" stroke-width="2" /><polyline fill="none" points="38.3129,69.2245 50.5034,57.034" stroke="#7f0000" stroke-width="2" /></svg>