<?xml version="1.0" encoding="utf-8" ?>
<svg baseProfile="tiny" height="128" version="1.2" viewBox="0,0,128,128" width="128" xmlns="http://www.w3.org/2000/svg" xmlns:ev="http://www.w3.org/2001/xml-events" xmlns:xlink="http://www.w3.org/1999/xlink"><defs /><polyline fill="none" points="81.139,8.678 66.8203,8.678 56.4068,11.2814 41.6542,17.7898 28.6373,27.3356 16.4881,41.2203 10.8475,51.6339 8.678,61.1797 9.5458,75.0644 17.7898,91.1186 37.7492,109.3424 46.861,113.2475 57.7085,113.6814 71.5932,112.3797 84.6102,105.0034 99.7966,93.2881 109.3424,82.0068 116.7186,67.2542 119.322,51.6339 119.322,34.278 117.1525,20.8271 111.9458,13.4508 100.2305,8.678 92.8542,8.678 82.8746,13.4508" stroke="#00007f" stroke-width="2" /><polyline fill="none" points="45.9932,26.4678 43.8237,37.7492" stroke="#0000c3" stroke-width="2" /><polyline fill="none" points="43.3898,48.1627 43.3898,48.1627" stroke="#0000ff" stroke-width="2" /><polyline fill="none" points="36.4475,67.2542 36.4475,67.2542" stroke="#0034ff" stroke-width="2" /><polyline fill="none" points="37.7492,85.478 34.278,96.3254" stroke="#0070ff" stroke-width="2" /><polyline fill="none" points="37.7492,54.2373 37.7492,54.2373" stroke="#00acff" stroke-width="2" /><polyline fill="none" points="42.522,50.3322 37.7492,65.9525" stroke="#02e8f4" stroke-width="2" /><polyline fill="none" points="98.4949,20.3932 97.1932,24.7322 97.1932,37.7492" stroke="#32ffc3" stroke-width="2" /><polyline fill="none" points="93.722,64.6508 93.722,75.0644" stroke="#63ff93" stroke-width="2" /><polyline fill="none" points="95.0237,59.878 94.5898,78.5356" stroke="#93ff63" stroke-width="2" /><polyline fill="none" points="87.6475,96.3254 87.6475,96.3254" stroke="#c3ff32" stroke-width="2" /><polyline fill="none" points="94.5898,45.1254 97.1932,62.0475" stroke="#f4f802" stroke-width="2" /><polyline fill="none" points="75.9322,18.2237 63.3492,36.8814" stroke="#ffc000" stroke-width="2" /><polyline fill="none" points="66.8203,38.6169 59.0102,44.6915 39.0508,67.2542" stroke="#ff8900" stroke-width="2" /><polyline fill="none" points="48.1627,62.4814 28.2034,81.139" stroke="#ff5100" stroke-width="2" /><polyline fill="none" points="30.8068,78.5356 19.0915,92.8542" stroke="#ff1a00" stroke-width="2" /><polyline fill="none" points="87.6475,19.0915 86.3458,22.9966 85.9119,43.3898" stroke="#c30000" stroke-width="2" /><polyline fill="none" points="84.6102,45.9932 85.478,59.0102" stroke="#7f0000" stroke-width="2" /></svg>