<?xml version="1.0" encoding="utf-8" ?>
<svg baseProfile="tiny" height="128" version="1.2" viewBox="0,0,128,128" width="128" xmlns="http://www.w3.org/2000/svg" xmlns:ev="http://www.w3.org/2001/xml-events" xmlns:xlink="http://www.w3.org/1999/xlink"><defs /><polyline fill="none" points="103.2678,33.8441 101.0983,29.5051 95.0237,21.6949 81.139,12.1492 62.9153,8.678 53.8034,9.9797 41.2203,14.7525 27.7695,20.8271 19.9593,26.4678 13.8847,36.8814 10.4136,49.0305 8.678,61.1797 9.1119,71.1593 15.1864,84.1763 22.5627,94.5898 30.3729,101.0983 37.7492,105.0034 62.0475,113.6814 83.3085,114.9831 91.5525,110.6441 95.8915,107.1729 114.9831,84.1763 117.5864,78.1017 119.322,66.3864 118.8881,56.8407 115.8508,47.2949 111.078,42.0881 92.8542,28.6373 88.0814,27.3356" stroke="#00007f" stroke-width="2" /><polyline fill="none" points="52.0678,9.5458 57.2746,34.7119 57.2746,55.539 54.2373,66.3864 42.522,87.2136 31.6746,93.2881 19.0915,95.0237" stroke="#0080ff" stroke-width="2" /><polyline fill="none" points="102.4,36.0136 96.3254,38.1831 87.2136,45.5593 82.0068,56.4068 78.5356,69.8576 75.9322,86.7797 75.4983,106.739 77.6678,114.1153 76.3661,105.4373" stroke="#7cff79" stroke-width="2" /><polyline fill="none" points="52.0678,41.2203 64.6508,36.0136" stroke="#ff9400" stroke-width="2" /><polyline fill="none" points="56.8407,49.4644 62.9153,51.2 63.3492,52.9356 62.0475,55.539 51.2,62.9153 44.2576,66.3864 42.9559,68.5559 53.8034,81.5729" stroke="#7f0000" stroke-width="2" /></svg>