<?xml version="1.0" encoding="utf-8" ?>
<svg baseProfile="tiny" height="128" version="1.2" viewBox="0,0,128,128" width="128" xmlns="http://www.w3.org/2000/svg" xmlns:ev="http://www.w3.org/2001/xml-events" xmlns:xlink="http://www.w3.org/1999/xlink"><defs /><polyline fill="none" points="11.2814,42.0881 11.7153,39.0508 23.8644,28.6373 35.5797,21.6949 49.4644,15.6203 64.2169,10.4136 78.5356,8.678 89.8169,8.678 99.3627,12.1492 107.6068,19.0915 113.2475,29.5051 117.5864,41.2203 119.322,52.9356 119.322,65.0847 116.7186,75.4983 111.5119,84.6102 105.8712,91.1186 98.4949,96.3254 90.6847,98.9288 73.3288,99.7966 56.4068,94.5898 29.939,78.1017 14.7525,64.6508 9.9797,56.8407 8.678,49.8983 9.1119,42.0881 14.7525,34.7119 22.1288,30.3729" stroke="#00007f" stroke-width="2" /><polyline fill="none" points="49.8983,20.3932 49.8983,27.3356 52.9356,44.6915 52.9356,65.0847 46.861,74.6305 41.2203,79.4034 35.5797,82.4407 28.2034,83.7424 26.4678,83.7424 26.4678,80.2712" stroke="#7cff79" stroke-width="2" /><polyline fill="none" points="87.2136,13.8847 77.6678,81.139 79.4034,83.7424 85.478,85.9119 95.8915,88.0814" stroke="#7f0000" stroke-width="2" /></svg>