<?xml version="1.0" encoding="utf-8" ?>
<svg baseProfile="tiny" height="128" version="1.2" viewBox="0,0,128,128" width="128" xmlns="http://www.w3.org/2000/svg" xmlns:ev="http://www.w3.org/2001/xml-events" xmlns:xlink="http://www.w3.org/1999/xlink"><defs /><polyline fill="none" points="40.7864,17.3559 39.0508,14.7525 36.8814,14.7525 27.7695,22.1288 19.0915,34.278 15.6203,41.6542 9.9797,63.3492 8.678,76.3661 9.5458,88.0814 14.7525,99.3627 23.4305,106.739 34.7119,111.5119 48.1627,113.2475 62.9153,112.8136 80.7051,107.1729 86.3458,104.1356 96.7593,96.3254 102.4,90.2508 114.1153,69.8576 118.0203,56.8407 119.322,45.9932 115.8508,38.6169 98.9288,25.1661 91.9864,20.8271 63.7831,9.9797 47.7288,8.678" stroke="#00007f" stroke-width="2" /><polyline fill="none" points="88.0814,22.1288 85.0441,21.6949 82.4407,37.3153 82.0068,63.7831 85.9119,72.0271 105.0034,93.722" stroke="#0028ff" stroke-width="2" /><polyline fill="none" points="32.1085,19.0915 33.4102,21.261 33.4102,31.2407 36.0136,49.4644 46.4271,85.478 46.4271,101.5322 44.2576,106.739 36.8814,112.8136" stroke="#00d4ff" stroke-width="2" /><polyline fill="none" points="22.5627,45.5593 29.5051,39.9186 42.522,34.7119" stroke="#7cff79" stroke-width="2" /><polyline fill="none" points="32.9763,81.5729 40.7864,75.9322 50.3322,74.1966" stroke="#ffe500" stroke-width="2" /><polyline fill="none" points="35.5797,105.4373 42.9559,105.8712 51.6339,100.6644 61.6136,96.7593" stroke="#ff4600" stroke-width="2" /><polyline fill="none" points="66.3864,43.8237 74.6305,39.0508 89.8169,35.5797" stroke="#7f0000" stroke-width="2" /></svg>