<?xml version="1.0" encoding="utf-8" ?>
<svg baseProfile="tiny" height="128" version="1.2" viewBox="0,0,128,128" width="128" xmlns="http://www.w3.org/2000/svg" xmlns:ev="http://www.w3.org/2001/xml-events" xmlns:xlink="http://www.w3.org/1999/xlink"><defs /><polyline fill="none" points="68.7891,13.932 45.7143,13.0612 32.6531,16.5442 23.5102,21.3333 16.1088,28.7347 11.3197,38.3129 8.7075,47.4558 9.1429,57.9048 13.932,63.5646 23.0748,70.0952 46.585,76.6259 65.7415,78.3673 104.0544,78.3673 114.5034,75.7551 119.2925,70.966 119.2925,59.2109 114.068,42.2313 107.102,27.8639 102.3129,22.6395 91.8639,16.1088 79.2381,13.0612" stroke="#00007f" stroke-width="2" /><polyline fill="none" points="38.7483,8.7075 45.7143,13.4966 51.3741,20.898 54.8571,33.0884 54.8571,41.3605 50.5034,51.3741 40.0544,66.1769 28.7347,77.0612 23.9456,80.1088 19.1565,80.9796" stroke="#7cff79" stroke-width="2" /><polyline fill="none" points="112.3265,20.4626 108.8435,20.898 104.9252,23.5102 91.8639,39.1837 84.898,51.8095 82.2857,64.4354 82.2857,74.449 86.2041,81.8503 93.6054,87.9456 108.8435,93.6054" stroke="#7f0000" stroke-width="2" /></svg>