<?xml version="1.0" encoding="utf-8" ?>
<svg baseProfile="tiny" height="128" version="1.2" viewBox="0,0,128,128" width="128" xmlns="http://www.w3.org/2000/svg" xmlns:ev="http://www.w3.org/2001/xml-events" xmlns:xlink="http://www.w3.org/1999/xlink"><defs /><polyline fill="none" points="77.4966,11.3197 71.8367,9.1429 57.9048,8.7075 28.7347,16.5442 16.1088,24.381 11.7551,32.2177 10.449,48.3265 14.8027,60.0816 26.1224,73.5782 33.5238,78.3673 48.3265,82.2857 74.0136,83.1565 87.0748,81.415 94.0408,78.8027 106.2313,70.966 112.7619,64.8707 118.4218,53.551 119.2925,38.7483 116.6803,30.9116 110.585,23.5102 101.0068,18.2857 84.0272,12.1905 61.8231,10.0136" stroke="#00007f" stroke-width="2" /><polyline fill="none" points="8.7075,42.2313 8.7075,45.7143 10.449,47.4558 22.6395,55.2925 53.9864,55.7279 61.3878,53.551 76.1905,45.2789 89.2517,33.5238 92.7347,26.5578 95.7823,10.449" stroke="#0080ff" stroke-width="2" /><polyline fill="none" points="74.0136,42.6667 75.3197,45.7143 83.5918,54.4218 91.4286,59.6463 102.3129,63.1293 114.5034,64.0" stroke="#7cff79" stroke-width="2" /><polyline fill="none" points="31.7823,13.932 51.8095,40.4898 73.5782,50.9388 77.4966,49.6327" stroke="#ff9400" stroke-width="2" /><polyline fill="none" points="64.0,43.9728 65.3061,46.1497 66.1769,52.6803 66.1769,78.8027 63.5646,82.2857" stroke="#7f0000" stroke-width="2" /></svg>