<?xml version="1.0" encoding="utf-8" ?>
<svg baseProfile="tiny" height="128" version="1.2" viewBox="0,0,128,128" width="128" xmlns="http://www.w3.org/2000/svg" xmlns:ev="http://www.w3.org/2001/xml-events" xmlns:xlink="http://www.w3.org/1999/xlink"><defs /><polyline fill="none" points="93.722,19.0915 92.4203,16.4881 82.4407,10.8475 73.7627,8.678 60.3119,8.678 44.2576,13.4508 25.6,25.1661 18.6576,32.9763 11.2814,47.7288 8.678,64.6508 9.1119,86.3458 19.5254,102.8339 31.2407,111.9458 47.2949,118.4542 71.1593,119.322 91.5525,108.4746 105.0034,98.4949 111.9458,88.0814 114.9831,76.3661 114.9831,55.539 103.2678,29.0712 90.6847,13.8847 85.0441,9.9797 82.0068,9.9797 76.8,13.8847 68.9898,27.3356 64.6508,42.9559 64.6508,60.7458 67.2542,69.8576 78.1017,88.9492 88.9492,100.6644" stroke="#00007f" stroke-width="2" /><polyline fill="none" points="22.1288,103.2678 32.1085,90.6847 44.2576,69.8576 47.7288,59.878 48.5966,39.9186 45.1254,28.2034 36.8814,14.7525" stroke="#0010ff" stroke-width="2" /><polyline fill="none" points="36.8814,32.1085 45.1254,32.1085" stroke="#00a4ff" stroke-width="2" /><polyline fill="none" points="38.6169,46.861 50.3322,50.3322" stroke="#3fffb7" stroke-width="2" /><polyline fill="none" points="38.6169,65.0847 48.1627,72.0271" stroke="#b7ff3f" stroke-width="2" /><polyline fill="none" points="27.3356,83.3085 29.0712,85.9119 32.9763,86.7797 49.8983,86.7797" stroke="#ffb900" stroke-width="2" /><polyline fill="none" points="91.5525,98.061 95.0237,95.8915 108.4746,81.5729" stroke="#ff3000" stroke-width="2" /><polyline fill="none" points="60.3119,68.5559 73.7627,66.8203" stroke="#7f0000" stroke-width="2" /></svg>