<?xml version="1.0" encoding="utf-8" ?>
<svg baseProfile="tiny" height="128" version="1.2" viewBox="0,0,128,128" width="128" xmlns="http://www.w3.org/2000/svg" xmlns:ev="http://www.w3.org/2001/xml-events" xmlns:xlink="http://www.w3.org/1999/xlink"><defs /><polyline fill="none" points="26.4678,18.6576 20.3932,30.3729 11.7153,54.6712 8.678,77.2339 10.8475,91.1186 22.9966,104.5695 32.1085,109.7763 45.9932,113.6814 57.7085,114.5492 69.8576,112.3797 79.8373,107.1729 88.5153,100.2305 93.722,88.9492 98.9288,74.1966 101.5322,57.7085 98.4949,45.1254 93.722,35.1458 80.2712,23.8644 59.0102,13.8847 51.6339,10.4136 40.3525,8.678 26.4678,23.4305" stroke="#00007f" stroke-width="2" /><polyline fill="none" points="48.1627,12.1492 37.3153,42.0881 32.1085,73.3288 32.5424,84.6102 36.0136,101.0983 40.3525,111.5119 46.4271,118.8881" stroke="#7cff79" stroke-width="2" /><polyline fill="none" points="73.7627,19.5254 64.2169,40.3525 58.1424,63.3492 56.8407,79.4034 57.2746,98.4949 59.0102,111.5119 62.0475,119.322" stroke="#7f0000" stroke-width="2" /></svg>