<?xml version="1.0" encoding="utf-8" ?>
<svg baseProfile="tiny" height="128" version="1.2" viewBox="0,0,128,128" width="128" xmlns="http://www.w3.org/2000/svg" xmlns:ev="http://www.w3.org/2001/xml-events" xmlns:xlink="http://www.w3.org/1999/xlink"><defs /><polyline fill="none" points="50.3322,8.678 37.3153,18.2237 24.2983,29.939 13.8847,45.9932 8.678,64.2169 11.7153,84.1763 17.7898,100.6644 25.6,111.078 35.5797,117.5864 49.8983,116.7186 66.8203,111.5119 103.7017,88.9492 112.3797,77.6678 111.9458,65.5186 109.3424,51.2 104.5695,38.1831 95.4576,22.5627 88.0814,18.2237 79.8373,15.6203 53.8034,11.7153" stroke="#00007f" stroke-width="2" /><polyline fill="none" points="31.2407,22.9966 30.8068,26.4678 36.8814,57.2746 37.7492,107.1729" stroke="#7cff79" stroke-width="2" /><polyline fill="none" points="81.5729,20.8271 73.7627,38.1831 69.8576,55.539 66.3864,81.139 65.9525,90.2508 67.6881,106.739 70.7254,116.7186 73.7627,119.322" stroke="#7f0000" stroke-width="2" /></svg>