<?xml version="1.0" encoding="utf-8" ?>
<svg baseProfile="tiny" height="128" version="1.2" viewBox="0,0,128,128" width="128" xmlns="http://www.w3.org/2000/svg" xmlns:ev="http://www.w3.org/2001/xml-events" xmlns:xlink="http://www.w3.org/1999/xlink"><defs /><polyline fill="none" points="91.1186,16.922 82.4407,11.7153 74.1966,10.4136 56.8407,11.2814 45.1254,13.8847 34.7119,18.6576 25.6,25.1661 18.2237,32.9763 12.1492,42.9559 9.1119,52.0678 8.678,64.6508 9.1119,70.7254 13.0169,82.4407 19.5254,91.5525 32.9763,101.9661 39.4847,105.0034 60.7458,110.6441 77.6678,108.4746 95.0237,95.8915 101.5322,89.3831 111.078,75.9322 119.322,54.2373 119.322,47.7288 115.4169,38.1831 111.078,31.2407 97.1932,17.3559 90.2508,13.4508 79.8373,11.2814" stroke="#00007f" stroke-width="2" /><polyline fill="none" points="82.8746,8.678 79.8373,13.8847 78.1017,22.9966 82.0068,56.8407 83.3085,61.6136 86.3458,68.5559 91.5525,75.9322 102.4,80.7051 110.2102,86.3458" stroke="#7cff79" stroke-width="2" /><polyline fill="none" points="18.2237,28.6373 29.5051,32.9763 39.9186,43.3898 47.2949,55.1051 53.8034,69.8576 55.9729,78.5356 56.4068,91.5525 51.2,105.8712 47.2949,113.2475" stroke="#7f0000" stroke-width="2" /></svg>