<?xml version="1.0" encoding="utf-8" ?>
<svg baseProfile="tiny" height="128" version="1.2" viewBox="0,0,128,128" width="128" xmlns="http://www.w3.org/2000/svg" xmlns:ev="http://www.w3.org/2001/xml-events" xmlns:xlink="http://www.w3.org/1999/xlink"><defs /><polyline fill="none" points="44.6915,8.678 20.3932,51.6339 12.5831,71.5932 9.5458,90.2508 9.9797,106.739 19.0915,110.6441 32.1085,112.8136 72.461,113.2475 96.7593,108.0407 111.5119,97.1932 113.2475,95.0237 113.6814,88.0814 111.5119,81.5729 103.2678,67.2542 89.3831,50.3322 67.6881,28.6373 61.6136,24.7322 49.0305,19.0915 35.5797,19.5254" stroke="#00007f" stroke-width="2" /><polyline fill="none" points="64.2169,25.6 42.9559,41.6542 34.278,50.7661 25.6,62.4814 21.6949,75.4983" stroke="#0010ff" stroke-width="2" /><polyline fill="none" points="95.0237,58.1424 66.3864,75.9322 41.6542,95.0237 19.0915,119.322" stroke="#00a4ff" stroke-width="2" /><polyline fill="none" points="20.8271,94.5898 27.3356,104.5695" stroke="#3fffb7" stroke-width="2" /><polyline fill="none" points="38.1831,91.9864 31.6746,93.2881 8.678,107.6068" stroke="#b7ff3f" stroke-width="2" /><polyline fill="none" points="36.0136,81.5729 36.8814,83.7424 43.3898,87.6475" stroke="#ffb900" stroke-width="2" /><polyline fill="none" points="52.9356,83.7424 42.522,86.3458" stroke="#ff3000" stroke-width="2" /><polyline fill="none" points="68.122,57.2746 83.3085,80.2712" stroke="#7f0000" stroke-width="2" /></svg>