<?xml version="1.0" encoding="utf-8" ?>
<svg baseProfile="tiny" height="128" version="1.2" viewBox="0,0,128,128" width="128" xmlns="http://www.w3.org/2000/svg" xmlns:ev="http://www.w3.org/2001/xml-events" xmlns:xlink="http://www.w3.org/1999/xlink"><defs /><polyline fill="none" points="119.322,17.7898 115.8508,18.2237 105.0034,27.3356 84.6102,51.2 81.5729,56.8407 80.7051,62.9153 83.7424,78.1017 91.9864,90.6847 96.7593,94.5898" stroke="#00007f" stroke-width="2" /><polyline fill="none" points="25.1661,15.1864 30.8068,18.2237 37.7492,26.9017 45.5593,42.0881 47.7288,51.2 47.7288,63.7831 46.4271,68.9898 36.0136,99.7966 33.8441,101.5322" stroke="#7cff79" stroke-width="2" /><polyline fill="none" points="25.1661,13.0169 11.7153,33.4102 8.678,43.8237 9.1119,62.0475 13.8847,76.8 17.7898,82.4407 34.7119,96.7593 42.0881,101.9661 48.1627,103.7017 57.7085,103.7017 71.1593,100.6644 87.6475,92.4203 103.2678,78.1017 112.8136,63.3492 117.1525,52.0678 118.8881,40.7864 118.4542,30.8068 114.9831,19.0915 111.5119,13.8847 105.0034,10.4136 87.2136,10.4136 72.461,8.678 51.2,11.2814 34.7119,9.1119 23.4305,13.8847" stroke="#7f0000" stroke-width="2" /></svg>