<?xml version="1.0" encoding="utf-8" ?>
<svg baseProfile="tiny" height="128" version="1.2" viewBox="0,0,128,128" width="128" xmlns="http://www.w3.org/2000/svg" xmlns:ev="http://www.w3.org/2001/xml-events" xmlns:xlink="http://www.w3.org/1999/xlink"><defs /><polyline fill="none" points="108.9085,20.8271 93.722,12.5831 81.139,9.1119 62.0475,8.678 50.7661,12.1492 30.3729,26.0339 22.5627,34.7119 16.0542,45.1254 8.678,65.5186 9.9797,82.4407 23.8644,100.6644 33.4102,107.6068 45.5593,111.9458 59.878,113.6814 74.1966,113.6814 87.2136,110.2102 96.7593,103.7017 105.0034,96.3254 111.078,82.8746 119.322,37.7492 119.322,28.6373 116.2847,22.5627 109.3424,18.6576" stroke="#00007f" stroke-width="2" /><polyline fill="none" points="33.4102,22.9966 37.7492,25.6 42.0881,36.8814 43.8237,44.2576 43.8237,70.7254 31.6746,107.1729 27.7695,114.5492" stroke="#0028ff" stroke-width="2" /><polyline fill="none" points="99.3627,19.5254 95.8915,19.0915 89.8169,25.6 80.2712,52.5017 77.6678,64.6508 77.2339,89.8169 81.139,106.739" stroke="#00d4ff" stroke-width="2" /><polyline fill="none" points="30.3729,39.0508 34.278,36.8814 40.7864,35.1458 54.6712,34.7119" stroke="#7cff79" stroke-width="2" /><polyline fill="none" points="31.6746,65.0847 43.8237,68.5559 45.9932,71.5932" stroke="#ffe500" stroke-width="2" /><polyline fill="none" points="26.0339,82.0068 27.7695,85.478 38.6169,95.0237" stroke="#ff4600" stroke-width="2" /><polyline fill="none" points="70.2915,33.8441 79.8373,32.1085 92.4203,35.1458" stroke="#7f0000" stroke-width="2" /></svg>