<?xml version="1.0" encoding="utf-8" ?>
<svg baseProfile="tiny" height="128" version="1.2" viewBox="0,0,128,128" width="128" xmlns="http://www.w3.org/2000/svg" xmlns:ev="http://www.w3.org/2001/xml-events" xmlns:xlink="http://www.w3.org/1999/xlink"><defs /><polyline fill="none" points="78.1017,12.1492 77.2339,9.9797 73.7627,8.678 60.3119,9.5458 43.3898,15.6203 29.0712,25.6 18.2237,39.4847 13.8847,48.1627 8.678,66.8203 8.678,74.1966 10.4136,79.4034 15.6203,82.8746 22.5627,84.6102 42.522,85.0441 77.2339,81.5729 96.3254,77.2339 104.1356,73.7627 114.1153,65.5186 118.8881,55.539 119.322,46.861 116.2847,39.0508 108.9085,29.0712 103.7017,23.8644 92.4203,17.3559 80.7051,14.3186 62.4814,12.1492" stroke="#00007f" stroke-width="2" /><polyline fill="none" points="34.7119,25.1661 44.2576,25.6 39.4847,27.3356 35.5797,32.1085 35.5797,36.0136 36.8814,36.4475 37.3153,39.0508 29.939,50.3322 30.3729,59.4441 29.0712,61.1797 33.8441,65.9525 24.7322,75.4983 27.3356,78.1017 28.6373,84.1763" stroke="#7cff79" stroke-width="2" /><polyline fill="none" points="72.0271,17.7898 74.6305,17.3559 76.3661,20.3932 86.7797,22.9966 86.7797,26.4678 90.2508,37.3153 94.1559,42.522 102.8339,47.2949 100.2305,53.8034 104.1356,60.7458 104.1356,72.0271 93.722,77.6678" stroke="#7f0000" stroke-width="2" /></svg>