<?xml version="1.0" encoding="utf-8" ?>
<svg baseProfile="tiny" height="128" version="1.2" viewBox="0,0,128,128" width="128" xmlns="http://www.w3.org/2000/svg" xmlns:ev="http://www.w3.org/2001/xml-events" xmlns:xlink="http://www.w3.org/1999/xlink"><defs /><polyline fill="none" points="65.0847,15.6203 55.9729,16.0542 50.3322,18.6576 44.2576,22.1288 30.3729,33.8441 17.3559,50.7661 9.9797,70.2915 8.678,80.2712 9.5458,90.2508 13.0169,98.9288 18.2237,106.739 24.7322,112.8136 32.5424,117.1525 39.9186,119.322 56.8407,118.0203 65.0847,114.1153 82.4407,101.5322 99.3627,85.9119 106.3051,76.8 111.078,67.6881 112.8136,58.1424 111.9458,42.0881 108.0407,33.8441 95.8915,19.9593 87.6475,13.8847 77.6678,10.4136 56.8407,8.678 46.861,12.1492 36.8814,18.6576 29.939,27.3356" stroke="#00007f" stroke-width="2" /><polyline fill="none" points="36.8814,35.5797 32.9763,43.3898 29.939,53.8034" stroke="#0028ff" stroke-width="2" /><polyline fill="none" points="32.1085,67.2542 32.1085,88.0814" stroke="#00d4ff" stroke-width="2" /><polyline fill="none" points="32.1085,94.5898 33.8441,100.6644 39.9186,110.2102" stroke="#7cff79" stroke-width="2" /><polyline fill="none" points="86.7797,21.261 86.3458,47.7288" stroke="#ffe500" stroke-width="2" /><polyline fill="none" points="86.3458,54.6712 85.0441,77.2339" stroke="#ff4600" stroke-width="2" /><polyline fill="none" points="85.478,85.478 85.0441,95.8915" stroke="#7f0000" stroke-width="2" /></svg>