<?xml version="1.0" encoding="utf-8" ?>
<svg baseProfile="tiny" height="128" version="1.2" viewBox="0,0,128,128" width="128" xmlns="http://www.w3.org/2000/svg" xmlns:ev="http://www.w3.org/2001/xml-events" xmlns:xlink="http://www.w3.org/1999/xlink"><defs /><polyline fill="none" points="64.2169,22.1288 52.0678,26.0339 31.2407,39.9186 15.6203,56.4068 9.5458,72.461 8.678,93.2881 11.2814,99.3627 17.3559,105.4373 30.3729,113.6814 46.4271,118.0203 65.0847,119.322 74.1966,118.4542 86.7797,111.5119 108.0407,93.2881 113.2475,85.478 117.1525,73.7627 119.322,52.0678 119.322,34.7119 115.4169,27.3356 108.9085,21.261 98.4949,15.1864 84.1763,8.678 73.7627,8.678 61.1797,13.4508 50.7661,25.6 45.1254,34.278 37.3153,53.3695" stroke="#00007f" stroke-width="2" /><polyline fill="none" points="48.5966,103.2678 49.8983,82.0068 55.539,45.5593 55.539,15.1864" stroke="#7cff79" stroke-width="2" /><polyline fill="none" points="72.461,106.739 72.461,97.6271 74.6305,88.5153 87.2136,48.5966 88.9492,36.8814 89.3831,22.1288 87.2136,19.0915" stroke="#7f0000" stroke-width="2" /></svg>