<?xml version="1.0" encoding="utf-8" ?>
<svg baseProfile="tiny" height="128" version="1.2" viewBox="0,0,128,128" width="128" xmlns="http://www.w3.org/2000/svg" xmlns:ev="http://www.w3.org/2001/xml-events" xmlns:xlink="http://www.w3.org/1999/xlink"><defs /><polyline fill="none" points="29.0712,26.0339 21.6949,38.1831 15.6203,56.4068 10.8475,63.3492 8.678,69.8576 8.678,79.8373 16.0542,92.8542 26.9017,106.3051 38.1831,116.2847 52.5017,119.322 62.4814,119.322 73.7627,116.2847 82.0068,108.0407 95.8915,89.8169 101.0983,75.4983 101.0983,64.2169 91.9864,47.2949 81.5729,32.5424 72.461,10.8475 67.2542,8.678 60.3119,8.678 49.4644,12.5831 32.9763,23.8644 32.9763,35.1458 40.3525,58.5763" stroke="#00007f" stroke-width="2" /><polyline fill="none" points="24.7322,83.7424 35.1458,78.9695 40.3525,78.5356 62.4814,65.5186 84.6102,43.3898" stroke="#7cff79" stroke-width="2" /><polyline fill="none" points="10.8475,62.4814 20.8271,59.4441 32.1085,53.3695 54.2373,30.8068 58.5763,26.0339 58.5763,20.8271" stroke="#7f0000" stroke-width="2" /></svg>