<?xml version="1.0" encoding="utf-8" ?>
<svg baseProfile="tiny" height="128" version="1.2" viewBox="0,0,128,128" width="128" xmlns="http://www.w3.org/2000/svg" xmlns:ev="http://www.w3.org/2001/xml-events" xmlns:xlink="http://www.w3.org/1999/xlink"><defs /><polyline fill="none" points="102.8339,18.6576 99.3627,15.6203 92.8542,13.4508 64.6508,8.678 52.5017,8.678 42.522,11.7153 30.8068,18.2237 18.6576,29.0712 10.4136,43.8237 8.678,53.3695 9.1119,62.0475 13.8847,75.4983 20.3932,83.7424 29.0712,91.5525 38.1831,96.7593 63.3492,101.9661 85.9119,100.2305 97.6271,95.8915 110.6441,89.3831 116.7186,81.139 119.322,68.5559 118.0203,53.3695 106.739,26.9017 97.6271,11.2814 89.3831,9.1119 78.9695,9.1119" stroke="#00007f" stroke-width="2" /><polyline fill="none" points="30.8068,13.4508 39.0508,20.3932 43.8237,28.2034 47.7288,44.2576 47.7288,55.1051 39.4847,80.2712 32.9763,88.0814 28.6373,95.0237" stroke="#00d4ff" stroke-width="2" /><polyline fill="none" points="104.1356,19.9593 101.0983,32.1085 99.7966,52.5017 103.2678,70.2915 113.2475,84.6102" stroke="#ffe500" stroke-width="2" /><polyline fill="none" points="106.3051,70.2915 100.6644,73.3288" stroke="#7f0000" stroke-width="2" /></svg>