<?xml version="1.0" encoding="utf-8" ?>
<svg baseProfile="tiny" height="128" version="1.2" viewBox="0,0,128,128" width="128" xmlns="http://www.w3.org/2000/svg" xmlns:ev="http://www.w3.org/2001/xml-events" xmlns:xlink="http://www.w3.org/1999/xlink"><defs /><polyline fill="none" points="83.7424,29.0712 59.878,32.5424 46.861,38.1831 35.1458,45.9932 27.3356,54.6712 19.9593,67.6881 8.678,91.9864 29.0712,113.6814 34.278,116.7186 53.8034,119.322 62.4814,118.0203 81.5729,110.6441 94.1559,100.6644 101.0983,91.9864 105.4373,83.3085 105.8712,75.9322 108.0407,68.9898 108.4746,59.878 105.4373,47.2949 101.9661,45.9932 98.9288,42.0881 91.9864,23.4305 91.1186,16.0542 85.9119,8.678" stroke="#00007f" stroke-width="2" /><polyline fill="none" points="53.8034,35.5797 60.3119,68.122 56.8407,88.0814 51.2,103.2678 51.2,108.9085" stroke="#7cff79" stroke-width="2" /><polyline fill="none" points="98.061,40.7864 92.8542,50.3322 88.9492,74.6305 86.3458,84.6102 89.3831,93.2881 100.2305,103.2678 103.7017,108.9085" stroke="#7f0000" stroke-width="2" /></svg>