<?xml version="1.0" encoding="utf-8" ?>
<svg baseProfile="tiny" height="128" version="1.2" viewBox="0,0,128,128" width="128" xmlns="http://www.w3.org/2000/svg" xmlns:ev="http://www.w3.org/2001/xml-events" xmlns:xlink="http://www.w3.org/1999/xlink"><defs /><polyline fill="none" points="9.5782,75.7551 8.7075,83.1565 10.449,89.2517 13.932,91.4286 16.9796,91.4286 19.1565,88.8163 20.0272,82.2857 19.5918,79.6735 13.932,76.1905 24.381,74.8844 39.1837,62.2585 57.4694,40.4898 69.6599,31.7823 86.2041,16.5442 100.1361,9.5782 112.7619,8.7075 115.8095,10.449 119.2925,16.5442 119.2925,22.2041 116.6803,28.2993 113.6327,31.3469 72.2721,51.8095 43.9728,70.0952 37.0068,75.7551 26.9932,80.9796 20.4626,87.0748" stroke="#00007f" stroke-width="2" /><polyline fill="none" points="27.8639,70.0952 30.9116,75.7551 31.7823,74.8844" stroke="#0080ff" stroke-width="2" /><polyline fill="none" points="38.3129,64.0 38.3129,70.0952" stroke="#7cff79" stroke-width="2" /><polyline fill="none" points="46.1497,56.5986 44.4082,59.2109 45.7143,62.2585 50.9388,64.8707" stroke="#ff9400" stroke-width="2" /><polyline fill="none" points="52.2449,49.1973 50.5034,53.551 54.8571,62.6939" stroke="#7f0000" stroke-width="2" /></svg>