<?xml version="1.0" encoding="utf-8" ?>
<svg baseProfile="tiny" height="128" version="1.2" viewBox="0,0,128,128" width="128" xmlns="http://www.w3.org/2000/svg" xmlns:ev="http://www.w3.org/2001/xml-events" xmlns:xlink="http://www.w3.org/1999/xlink"><defs /><polyline fill="none" points="52.0678,9.5458 39.0508,15.6203 29.0712,22.5627 17.3559,39.9186 12.5831,50.3322 8.678,71.5932 9.5458,88.0814 15.6203,100.2305 26.0339,110.2102 38.6169,116.7186 47.7288,119.322 68.9898,117.1525 85.9119,111.078 102.4,94.5898 112.3797,62.9153 113.2475,55.539 110.2102,43.3898 104.5695,32.9763 91.9864,19.5254 83.3085,14.7525 73.3288,12.1492 51.2,13.4508" stroke="#00007f" stroke-width="2" /><polyline fill="none" points="34.7119,19.9593 35.5797,22.5627 42.9559,27.7695 49.0305,35.1458 53.3695,48.5966 54.6712,58.1424 46.861,80.7051 25.6,105.4373" stroke="#7cff79" stroke-width="2" /><polyline fill="none" points="99.7966,8.678 95.0237,16.4881 87.6475,18.6576 81.5729,26.0339 77.2339,33.8441 73.7627,46.4271 74.6305,56.4068 83.3085,80.2712 86.7797,86.3458 95.0237,95.4576" stroke="#7f0000" stroke-width="2" /></svg>