<?xml version="1.0" encoding="utf-8" ?>
<svg baseProfile="tiny" height="128" version="1.2" viewBox="0,0,128,128" width="128" xmlns="http://www.w3.org/2000/svg" xmlns:ev="http://www.w3.org/2001/xml-events" xmlns:xlink="http://www.w3.org/1999/xlink"><defs /><polyline fill="none" points="49.0305,9.9797 40.3525,12.5831 32.9763,18.2237 16.922,38.1831 12.5831,47.7288 9.1119,61.6136 8.678,77.6678 11.7153,84.6102 19.9593,91.1186 29.939,95.8915 49.4644,98.061 82.4407,98.061 90.6847,95.4576 101.9661,89.3831 114.5492,77.6678 117.5864,72.461 119.322,63.7831 118.8881,51.2 109.3424,29.0712 101.5322,21.6949 70.7254,12.5831 53.8034,9.5458 39.0508,9.5458" stroke="#00007f" stroke-width="2" /><polyline fill="none" points="99.7966,22.5627 91.1186,22.9966 86.3458,26.9017 85.9119,55.9729 88.9492,67.6881 101.9661,90.2508" stroke="#7cff79" stroke-width="2" /><polyline fill="none" points="50.7661,8.678 55.9729,12.5831 65.9525,26.9017 70.2915,42.522 70.2915,58.1424 59.878,78.5356 50.3322,88.5153 42.522,92.8542" stroke="#7f0000" stroke-width="2" /></svg>