<?xml version="1.0" encoding="utf-8" ?>
<svg baseProfile="tiny" height="128" version="1.2" viewBox="0,0,128,128" width="128" xmlns="http://www.w3.org/2000/svg" xmlns:ev="http://www.w3.org/2001/xml-events" xmlns:xlink="http://www.w3.org/1999/xlink"><defs /><polyline fill="none" points="73.7627,12.5831 63.7831,8.678 46.861,8.678 38.1831,11.2814 27.3356,18.2237 15.6203,33.4102 10.8475,44.6915 8.678,53.8034 8.678,75.0644 11.2814,85.478 15.1864,93.2881 22.1288,101.9661 30.3729,108.9085 38.6169,113.6814 54.2373,118.8881 63.7831,119.322 76.8,116.2847 96.3254,102.4 103.2678,95.0237 108.9085,85.9119 114.5492,62.0475 113.2475,49.8983 109.3424,39.0508 100.6644,25.6 93.722,18.2237 80.7051,10.4136 68.122,8.678" stroke="#00007f" stroke-width="2" /><polyline fill="none" points="28.2034,16.0542 36.4475,25.6 42.522,45.9932 44.6915,59.0102 42.522,87.2136 37.7492,100.6644 33.8441,106.3051" stroke="#7cff79" stroke-width="2" /><polyline fill="none" points="91.5525,13.0169 85.0441,19.9593 78.5356,38.6169 76.3661,60.7458 77.2339,70.7254 82.8746,89.3831 93.2881,103.2678" stroke="#7f0000" stroke-width="2" /></svg>