<?xml version="1.0" encoding="utf-8" ?>
<svg baseProfile="tiny" height="128" version="1.2" viewBox="0,0,128,128" width="128" xmlns="http://www.w3.org/2000/svg" xmlns:ev="http://www.w3.org/2001/xml-events" xmlns:xlink="http://www.w3.org/1999/xlink"><defs /><polyline fill="none" points="47.8912,27.4286 53.9864,13.4966 64.0,9.5782 77.4966,9.1429 86.6395,13.0612 95.7823,19.1565 107.9728,31.7823 114.068,43.9728 117.1156,56.5986 119.2925,70.5306 119.2925,89.6871 115.3741,104.0544 110.1497,111.4558 106.2313,114.068 97.0884,117.1156 85.3333,119.2925 73.1429,118.4218 60.9524,115.3741 48.7619,109.2789 37.4422,101.8776 22.6395,88.381 12.1905,73.5782 8.7075,62.2585 9.1429,44.8435 13.4966,34.8299 21.3333,24.8163 36.1361,15.2381 52.2449,10.0136 64.8707,8.7075 70.0952,10.8844 72.7075,15.6735" stroke="#00007f" stroke-width="2" /><polyline fill="none" points="99.7007,19.5918 90.5578,22.6395 84.0272,41.3605 84.0272,65.3061 88.381,80.5442 90.5578,86.6395 91.8639,86.6395" stroke="#7cff79" stroke-width="2" /><polyline fill="none" points="38.3129,10.0136 45.2789,21.3333 47.8912,29.1701 51.8095,48.7619 51.8095,66.6122 49.6327,75.3197 46.585,81.415 43.102,86.2041 36.1361,91.8639" stroke="#7f0000" stroke-width="2" /></svg>