<?xml version="1.0" encoding="utf-8" ?>
<svg baseProfile="tiny" height="128" version="1.2" viewBox="0,0,128,128" width="128" xmlns="http://www.w3.org/2000/svg" xmlns:ev="http://www.w3.org/2001/xml-events" xmlns:xlink="http://www.w3.org/1999/xlink"><defs /><polyline fill="none" points="55.9729,8.678 51.2,9.1119 44.2576,11.7153 36.8814,19.0915 27.7695,29.939 19.9593,45.5593 13.4508,62.4814 9.1119,78.5356 8.678,86.7797 9.9797,89.8169 13.4508,92.4203 26.4678,95.4576 42.9559,95.8915 59.878,92.8542 85.478,85.0441 93.2881,80.7051 105.8712,71.1593 117.5864,53.8034 119.322,44.6915 118.4542,39.4847 111.078,28.2034 98.9288,19.5254 90.6847,15.6203 75.0644,10.8475 66.3864,9.9797 51.2,9.5458 37.3153,13.0169" stroke="#00007f" stroke-width="2" /><polyline fill="none" points="40.3525,16.922 50.7661,27.3356 76.3661,59.878 103.7017,87.2136" stroke="#0000ff" stroke-width="2" /><polyline fill="none" points="100.2305,19.9593 30.3729,68.122 8.678,88.0814" stroke="#0080ff" stroke-width="2" /><polyline fill="none" points="43.8237,35.5797 44.2576,34.278 54.2373,27.7695 60.3119,25.6" stroke="#15ffe1" stroke-width="2" /><polyline fill="none" points="54.6712,39.4847 65.5186,34.278" stroke="#7cff79" stroke-width="2" /><polyline fill="none" points="55.9729,44.6915 62.4814,39.0508 72.0271,33.4102" stroke="#e4ff12" stroke-width="2" /><polyline fill="none" points="67.2542,56.4068 82.0068,49.8983" stroke="#ff9400" stroke-width="2" /><polyline fill="none" points="69.8576,68.122 88.0814,60.7458" stroke="#ff1d00" stroke-width="2" /><polyline fill="none" points="79.8373,78.9695 79.8373,78.9695" stroke="#7f0000" stroke-width="2" /></svg>