<?xml version="1.0" encoding="utf-8" ?>
<svg baseProfile="tiny" height="128" version="1.2" viewBox="0,0,128,128" width="128" xmlns="http://www.w3.org/2000/svg" xmlns:ev="http://www.w3.org/2001/xml-events" xmlns:xlink="http://www.w3.org/1999/xlink"><defs /><polyline fill="none" points="58.5763,8.678 44.2576,9.1119 38.1831,11.7153 30.8068,17.7898 23.8644,25.6 12.1492,47.2949 9.1119,58.1424 8.678,82.0068 12.1492,93.722 18.2237,104.5695 24.7322,111.9458 33.4102,117.1525 49.8983,119.322 59.4441,118.0203 78.5356,108.9085 87.2136,102.8339 101.5322,88.5153 107.6068,73.7627 108.0407,66.3864 106.3051,56.8407 102.4,47.2949 91.1186,29.939 85.0441,23.8644 72.461,15.6203 65.9525,13.0169 59.878,12.1492" stroke="#00007f" stroke-width="2" /><polyline fill="none" points="40.7864,23.8644 44.6915,23.4305 46.861,25.6" stroke="#0000d1" stroke-width="2" /><polyline fill="none" points="28.6373,40.3525 39.9186,40.7864" stroke="#0010ff" stroke-width="2" /><polyline fill="none" points="26.0339,60.7458 26.0339,60.7458" stroke="#0058ff" stroke-width="2" /><polyline fill="none" points="26.9017,53.8034 36.8814,54.2373" stroke="#00a4ff" stroke-width="2" /><polyline fill="none" points="28.2034,71.5932 35.1458,72.8949" stroke="#05ecf1" stroke-width="2" /><polyline fill="none" points="35.1458,83.7424 45.1254,82.8746" stroke="#3fffb7" stroke-width="2" /><polyline fill="none" points="54.6712,81.5729 52.9356,92.4203" stroke="#7cff79" stroke-width="2" /><polyline fill="none" points="62.4814,80.2712 62.4814,86.3458 68.122,91.9864" stroke="#b7ff3f" stroke-width="2" /><polyline fill="none" points="71.1593,73.7627 78.9695,75.4983" stroke="#f1fc05" stroke-width="2" /><polyline fill="none" points="73.3288,61.6136 82.4407,61.6136" stroke="#ffb900" stroke-width="2" /><polyline fill="none" points="78.5356,47.2949 84.6102,47.7288" stroke="#ff7300" stroke-width="2" /><polyline fill="none" points="79.8373,33.4102 80.2712,31.6746 85.9119,31.6746" stroke="#ff3000" stroke-width="2" /><polyline fill="none" points="80.7051,25.6 87.2136,26.9017" stroke="#d10000" stroke-width="2" /><polyline fill="none" points="54.6712,9.1119 46.4271,18.2237 42.0881,27.3356 32.5424,57.7085 32.5424,67.6881 37.3153,79.8373 49.4644,88.5153 54.6712,90.2508 60.3119,89.8169 69.4237,82.8746 73.3288,77.2339 75.4983,71.1593 76.8,54.2373 79.4034,44.6915 90.2508,29.939 95.0237,25.6" stroke="#7f0000" stroke-width="2" /></svg>