<?xml version="1.0" encoding="utf-8" ?>
<svg baseProfile="tiny" height="128" version="1.2" viewBox="0,0,128,128" width="128" xmlns="http://www.w3.org/2000/svg" xmlns:ev="http://www.w3.org/2001/xml-events" xmlns:xlink="http://www.w3.org/1999/xlink"><defs /><polyline fill="none" points="85.9119,11.2814 81.139,9.9797 64.2169,9.9797 44.6915,13.4508 32.9763,20.3932 23.8644,29.5051 14.7525,46.4271 8.678,65.0847 10.8475,78.5356 21.6949,91.5525 35.5797,99.3627 46.861,103.2678 56.4068,105.4373 72.461,105.4373 78.9695,105.0034 91.9864,100.2305 106.3051,89.8169 113.6814,81.139 117.1525,72.8949 119.322,47.7288 114.5492,24.2983 96.7593,12.5831 85.9119,8.678 77.2339,8.678" stroke="#00007f" stroke-width="2" /><polyline fill="none" points="61.1797,9.9797 57.7085,10.8475 50.3322,16.0542 49.0305,26.0339 52.9356,34.278 59.4441,42.522 66.8203,54.2373 69.4237,62.0475 70.7254,72.461 58.5763,91.1186 52.0678,98.061 47.7288,100.6644" stroke="#00d4ff" stroke-width="2" /><polyline fill="none" points="72.461,12.5831 68.5559,12.5831 65.5186,14.7525 63.7831,21.6949 64.6508,28.2034 70.7254,39.0508 79.8373,49.0305 85.9119,57.7085 87.6475,62.0475 88.9492,73.7627 85.0441,82.4407 69.4237,92.8542 66.8203,96.3254 65.9525,95.4576" stroke="#ffe500" stroke-width="2" /><polyline fill="none" points="58.5763,100.2305 58.1424,100.6644" stroke="#7f0000" stroke-width="2" /></svg>