<?xml version="1.0" encoding="utf-8" ?>
<svg baseProfile="tiny" height="128" version="1.2" viewBox="0,0,128,128" width="128" xmlns="http://www.w3.org/2000/svg" xmlns:ev="http://www.w3.org/2001/xml-events" xmlns:xlink="http://www.w3.org/1999/xlink"><defs /><polyline fill="none" points="12.1492,29.0712 11.2814,24.7322 12.1492,20.3932 17.7898,11.7153 26.4678,8.678 39.4847,10.8475 44.2576,15.1864 44.6915,24.7322 41.2203,31.6746 31.6746,39.0508 25.1661,41.2203 17.7898,40.7864 12.5831,35.5797 8.678,27.3356" stroke="#00007f" stroke-width="2" /><polyline fill="none" points="25.1661,10.4136 24.7322,14.3186 28.2034,33.4102 27.3356,42.522" stroke="#0000b1" stroke-width="2" /><polyline fill="none" points="26.9017,9.1119 28.6373,36.8814" stroke="#0000e3" stroke-width="2" /><polyline fill="none" points="22.9966,9.1119 30.8068,39.9186" stroke="#0004ff" stroke-width="2" /><polyline fill="none" points="23.8644,9.9797 30.3729,41.6542" stroke="#0030ff" stroke-width="2" /><polyline fill="none" points="31.2407,14.3186 31.2407,14.3186" stroke="#005cff" stroke-width="2" /><polyline fill="none" points="31.2407,21.6949 31.2407,21.6949" stroke="#0088ff" stroke-width="2" /><polyline fill="none" points="33.4102,23.4305 33.4102,23.4305" stroke="#00b4ff" stroke-width="2" /><polyline fill="none" points="33.8441,29.939 33.8441,29.939" stroke="#00e4f7" stroke-width="2" /><polyline fill="none" points="29.5051,10.8475 30.3729,13.4508" stroke="#22ffd4" stroke-width="2" /><polyline fill="none" points="31.6746,16.922 32.1085,21.261" stroke="#46ffb0" stroke-width="2" /><polyline fill="none" points="31.2407,26.0339 33.4102,29.5051" stroke="#69ff8d" stroke-width="2" /><polyline fill="none" points="32.9763,32.9763 32.9763,35.5797" stroke="#8dff69" stroke-width="2" /><polyline fill="none" points="20.8271,12.5831 21.261,22.5627" stroke="#b0ff46" stroke-width="2" /><polyline fill="none" points="21.261,32.5424 23.4305,40.3525" stroke="#d4ff22" stroke-width="2" /><polyline fill="none" points="89.3831,29.5051 81.5729,35.5797 72.8949,47.7288 68.9898,57.2746 68.5559,64.2169 72.0271,68.122 81.5729,65.0847 90.6847,56.4068 93.722,48.5966 94.1559,44.6915 92.8542,39.4847 87.2136,35.1458" stroke="#f7f400" stroke-width="2" /><polyline fill="none" points="77.6678,66.3864 81.139,119.322" stroke="#ffc800" stroke-width="2" /><polyline fill="none" points="78.1017,91.5525 63.3492,82.8746 51.2,78.9695" stroke="#ff9f00" stroke-width="2" /><polyline fill="none" points="51.2,78.9695 49.8983,72.8949 13.4508,65.0847 25.6,79.8373 45.5593,79.4034 55.1051,81.139" stroke="#ff7600" stroke-width="2" /><polyline fill="none" points="79.4034,91.5525 85.478,93.2881 93.2881,98.061 99.7966,105.0034 105.4373,117.1525" stroke="#ff4d00" stroke-width="2" /><polyline fill="none" points="81.139,44.2576 81.139,44.2576" stroke="#ff2500" stroke-width="2" /><polyline fill="none" points="79.4034,43.3898 78.5356,48.1627" stroke="#e30000" stroke-width="2" /><polyline fill="none" points="85.0441,42.522 86.3458,50.7661" stroke="#b10000" stroke-width="2" /><polyline fill="none" points="76.8,57.7085 79.8373,59.878 84.6102,58.1424 88.5153,54.2373" stroke="#7f0000" stroke-width="2" /></svg>