<?xml version="1.0" encoding="utf-8" ?>
<svg baseProfile="tiny" height="128" version="1.2" viewBox="0,0,128,128" width="128" xmlns="http://www.w3.org/2000/svg" xmlns:ev="http://www.w3.org/2001/xml-events" xmlns:xlink="http://www.w3.org/1999/xlink"><defs /><polyline fill="none" points="64.6508,9.9797 56.8407,9.1119 49.8983,11.7153 26.4678,21.261 19.5254,26.4678 10.8475,42.522 8.678,51.6339 8.678,69.8576 11.2814,80.7051 16.922,90.6847 39.0508,108.4746 55.1051,114.1153 100.2305,119.322 106.3051,109.7763 117.5864,70.2915 117.1525,48.5966 113.2475,39.9186 109.3424,31.2407 103.7017,24.7322 58.1424,8.678 52.0678,8.678 49.8983,12.1492" stroke="#00007f" stroke-width="2" /><polyline fill="none" points="21.6949,30.8068 34.278,44.2576 42.0881,57.2746 44.2576,68.9898 45.1254,88.0814 50.3322,101.9661" stroke="#00d4ff" stroke-width="2" /><polyline fill="none" points="62.9153,10.4136 66.8203,11.7153 72.8949,18.2237 74.1966,22.5627 83.7424,37.7492 84.1763,45.1254 89.3831,63.3492 91.9864,107.6068 93.722,111.078 94.1559,118.0203" stroke="#ffe500" stroke-width="2" /><polyline fill="none" points="71.5932,34.7119 81.139,30.3729 88.9492,28.2034" stroke="#7f0000" stroke-width="2" /></svg>