<?xml version="1.0" encoding="utf-8" ?>
<svg baseProfile="tiny" height="128" version="1.2" viewBox="0,0,128,128" width="128" xmlns="http://www.w3.org/2000/svg" xmlns:ev="http://www.w3.org/2001/xml-events" xmlns:xlink="http://www.w3.org/1999/xlink"><defs /><polyline fill="none" points="41.2203,23.8644 32.5424,24.7322 26.4678,30.8068 13.4508,55.1051 9.1119,68.122 8.678,84.6102 10.8475,89.3831 18.2237,98.9288 28.6373,107.6068 40.7864,114.5492 59.4441,119.322 70.7254,119.322 81.139,115.8508 88.0814,107.6068 93.722,94.1559 95.0237,82.4407 94.1559,62.4814 86.3458,36.4475 78.9695,28.6373 57.7085,13.8847 41.6542,8.678 34.278,9.1119 31.6746,10.8475" stroke="#00007f" stroke-width="2" /><polyline fill="none" points="36.0136,32.5424 39.9186,55.9729 39.9186,115.8508" stroke="#0010ff" stroke-width="2" /><polyline fill="none" points="62.9153,26.9017 62.9153,62.4814 64.6508,82.4407 72.8949,105.0034 74.6305,107.1729 76.3661,108.0407 76.8,106.739" stroke="#00a4ff" stroke-width="2" /><polyline fill="none" points="56.8407,39.4847 65.5186,39.4847 83.7424,36.8814" stroke="#3fffb7" stroke-width="2" /><polyline fill="none" points="56.8407,58.5763 65.5186,58.5763 75.9322,54.6712" stroke="#b7ff3f" stroke-width="2" /><polyline fill="none" points="59.4441,74.1966 62.9153,75.4983 70.2915,75.0644 78.1017,71.5932" stroke="#ffb900" stroke-width="2" /><polyline fill="none" points="65.0847,93.2881 74.1966,95.0237 80.7051,94.1559 86.3458,91.5525" stroke="#ff3000" stroke-width="2" /><polyline fill="none" points="39.0508,45.5593 51.6339,41.2203" stroke="#7f0000" stroke-width="2" /></svg>