<?xml version="1.0" encoding="utf-8" ?>
<svg baseProfile="tiny" height="128" version="1.2" viewBox="0,0,128,128" width="128" xmlns="http://www.w3.org/2000/svg" xmlns:ev="http://www.w3.org/2001/xml-events" xmlns:xlink="http://www.w3.org/1999/xlink"><defs /><polyline fill="none" points="98.2935,20.9693 92.6143,15.2901 80.3823,9.1741 66.8396,8.7372 48.4915,11.7952 34.5119,17.0375 23.1536,27.0853 17.0375,36.6962 13.1058,46.744 10.9215,57.6655 10.9215,70.7713 13.1058,81.6928 20.0956,95.6724 24.4642,101.3515 33.6382,106.5939 51.5495,111.8362 64.2184,111.8362 94.7986,98.2935 107.9044,88.2457 112.273,80.8191 118.3891,65.529 119.2628,52.4232 116.2048,38.0068 111.8362,27.0853 107.0307,21.4061 99.1672,15.727 87.372,11.7952 79.5085,11.7952" stroke="#00007f" stroke-width="2" /><polyline fill="none" points="72.0819,10.0478 65.0922,24.901 52.8601,43.2491 18.785,76.8874 8.7372,89.1195" stroke="#7cff79" stroke-width="2" /><polyline fill="none" points="38.8805,20.5324 51.5495,40.628 61.1604,51.9863 79.9454,69.4608 93.4881,78.198 101.3515,88.2457" stroke="#7f0000" stroke-width="2" /></svg>