<?xml version="1.0" encoding="utf-8" ?>
<svg baseProfile="tiny" height="128" version="1.2" viewBox="0,0,128,128" width="128" xmlns="http://www.w3.org/2000/svg" xmlns:ev="http://www.w3.org/2001/xml-events" xmlns:xlink="http://www.w3.org/1999/xlink"><defs /><polyline fill="none" points="59.878,119.322 44.6915,114.9831 28.6373,105.0034 22.9966,99.3627 9.9797,77.6678 8.678,61.1797 11.2814,52.5017 23.8644,33.8441 31.2407,25.1661 45.9932,13.4508 52.9356,9.9797 60.3119,8.678 72.8949,8.678 77.6678,12.1492 83.3085,16.922 91.9864,32.5424 95.4576,41.6542 100.2305,56.8407 100.6644,76.8 98.061,82.4407 89.3831,93.722 80.2712,101.5322 69.4237,107.6068 56.8407,110.2102 49.0305,110.6441 43.3898,108.9085 41.6542,104.1356" stroke="#00007f" stroke-width="2" /><polyline fill="none" points="19.0915,32.5424 23.8644,34.7119 29.939,42.9559 32.5424,55.1051 32.5424,64.6508 29.5051,73.7627 22.9966,81.5729 16.922,86.3458" stroke="#7cff79" stroke-width="2" /><polyline fill="none" points="78.9695,28.6373 74.6305,31.2407 62.9153,44.6915 55.9729,54.6712 54.2373,58.5763 51.2,75.4983 51.2,90.2508 57.7085,104.1356" stroke="#7f0000" stroke-width="2" /></svg>