<?xml version="1.0" encoding="utf-8" ?>
<svg baseProfile="tiny" height="128" version="1.2" viewBox="0,0,128,128" width="128" xmlns="http://www.w3.org/2000/svg" xmlns:ev="http://www.w3.org/2001/xml-events" xmlns:xlink="http://www.w3.org/1999/xlink"><defs /><polyline fill="none" points="11.7153,41.6542 8.678,58.5763 8.678,67.6881 11.2814,78.1017 21.261,94.1559 28.6373,100.2305 37.3153,104.1356 45.9932,106.3051 65.5186,107.1729 75.9322,105.4373 86.3458,101.5322 103.7017,90.6847 110.2102,83.3085 114.9831,75.0644 119.322,55.9729 119.322,45.9932 115.4169,28.2034 110.6441,21.261 97.1932,12.5831 88.5153,9.9797 76.8,8.678 55.539,8.678 39.4847,12.1492 25.6,18.2237 19.0915,24.2983 9.1119,37.3153" stroke="#00007f" stroke-width="2" /><polyline fill="none" points="35.1458,14.7525 44.6915,40.7864 46.4271,54.2373 45.5593,74.6305 37.3153,88.9492" stroke="#0000fe" stroke-width="2" /><polyline fill="none" points="82.8746,15.6203 78.5356,35.5797 78.5356,60.3119 81.5729,68.5559 86.7797,78.1017 98.061,93.722 102.8339,97.1932" stroke="#0060ff" stroke-width="2" /><polyline fill="none" points="72.8949,44.2576 85.9119,42.0881" stroke="#00d4ff" stroke-width="2" /><polyline fill="none" points="71.1593,64.2169 82.8746,59.4441" stroke="#4cffaa" stroke-width="2" /><polyline fill="none" points="76.3661,79.8373 82.4407,77.6678 90.2508,72.0271" stroke="#aaff4c" stroke-width="2" /><polyline fill="none" points="25.1661,36.4475 46.4271,37.3153" stroke="#ffe500" stroke-width="2" /><polyline fill="none" points="39.4847,67.2542 46.861,70.2915 55.1051,71.1593" stroke="#ff7a00" stroke-width="2" /><polyline fill="none" points="41.2203,85.478 48.5966,87.6475" stroke="#fe1200" stroke-width="2" /><polyline fill="none" points="42.0881,51.2 49.0305,49.8983" stroke="#7f0000" stroke-width="2" /></svg>