<?xml version="1.0" encoding="utf-8" ?>
<svg baseProfile="tiny" height="128" version="1.2" viewBox="0,0,128,128" width="128" xmlns="http://www.w3.org/2000/svg" xmlns:ev="http://www.w3.org/2001/xml-events" xmlns:xlink="http://www.w3.org/1999/xlink"><defs /><polyline fill="none" points="96.7593,22.5627 90.2508,15.6203 79.8373,10.4136 70.2915,8.678 57.2746,9.9797 50.3322,11.7153 37.7492,18.6576 30.8068,23.8644 21.261,34.278 13.8847,45.9932 10.4136,53.8034 8.678,64.6508 9.9797,73.7627 14.3186,82.4407 19.0915,88.5153 28.2034,96.3254 36.4475,100.6644 55.9729,105.8712 70.7254,105.4373 80.7051,103.2678 101.5322,94.1559 108.9085,88.5153 114.5492,80.7051 118.8881,68.122 119.322,57.7085 117.5864,47.7288 112.3797,37.3153 106.3051,28.2034 100.2305,22.5627 91.1186,18.2237 77.2339,14.7525" stroke="#00007f" stroke-width="2" /><polyline fill="none" points="36.0136,22.5627 31.2407,24.7322 27.7695,32.1085 26.0339,42.522 26.4678,53.8034" stroke="#0000f1" stroke-width="2" /><polyline fill="none" points="29.939,32.5424 26.9017,36.0136 24.2983,52.5017 25.6,77.2339 29.0712,89.3831" stroke="#004cff" stroke-width="2" /><polyline fill="none" points="27.7695,66.3864 26.9017,74.6305 31.6746,90.6847" stroke="#00b0ff" stroke-width="2" /><polyline fill="none" points="93.2881,16.0542 99.7966,44.6915" stroke="#29ffcd" stroke-width="2" /><polyline fill="none" points="101.5322,24.7322 100.2305,62.4814 95.8915,77.6678" stroke="#7cff79" stroke-width="2" /><polyline fill="none" points="99.3627,65.0847 99.3627,72.461 92.8542,94.1559" stroke="#cdff29" stroke-width="2" /><polyline fill="none" points="96.7593,83.3085 88.5153,101.9661" stroke="#ffc400" stroke-width="2" /><polyline fill="none" points="37.7492,81.139 34.7119,80.7051" stroke="#ff6700" stroke-width="2" /><polyline fill="none" points="23.8644,85.0441 27.3356,104.5695 29.939,107.6068" stroke="#f10700" stroke-width="2" /><polyline fill="none" points="28.2034,89.3831 30.3729,98.4949" stroke="#7f0000" stroke-width="2" /></svg>