<?xml version="1.0" encoding="utf-8" ?>
<svg baseProfile="tiny" height="128" version="1.2" viewBox="0,0,128,128" width="128" xmlns="http://www.w3.org/2000/svg" xmlns:ev="http://www.w3.org/2001/xml-events" xmlns:xlink="http://www.w3.org/1999/xlink"><defs /><polyline fill="none" points="47.2949,27.3356 31.6746,27.3356 22.9966,29.0712 16.922,34.7119 10.4136,46.4271 8.678,57.2746 9.9797,71.1593 14.7525,78.5356 28.6373,88.5153 40.7864,93.2881 52.5017,96.3254 74.6305,97.1932 82.8746,95.4576 98.9288,88.5153 108.0407,81.5729 117.5864,69.4237 119.322,61.6136 119.322,51.2 113.2475,38.1831 107.1729,29.939 91.1186,17.7898 78.9695,11.7153 69.8576,8.678 57.7085,9.5458 47.2949,13.4508" stroke="#00007f" stroke-width="2" /><polyline fill="none" points="19.9593,32.1085 23.4305,24.7322 32.9763,16.4881 50.3322,9.1119" stroke="#00d4ff" stroke-width="2" /><polyline fill="none" points="43.8237,11.7153 44.6915,15.1864 54.2373,28.2034 64.6508,36.4475 73.3288,41.6542 80.2712,43.8237 94.1559,44.2576 101.0983,36.8814" stroke="#ffe500" stroke-width="2" /><polyline fill="none" points="31.2407,90.2508 38.1831,79.4034 44.6915,75.4983 61.6136,73.7627 68.122,75.4983 79.4034,82.0068 89.3831,94.5898" stroke="#7f0000" stroke-width="2" /></svg>