<?xml version="1.0" encoding="utf-8" ?>
<svg baseProfile="tiny" height="128" version="1.2" viewBox="0,0,128,128" width="128" xmlns="http://www.w3.org/2000/svg" xmlns:ev="http://www.w3.org/2001/xml-events" xmlns:xlink="http://www.w3.org/1999/xlink"><defs /><polyline fill="none" points="56.4068,9.9797 47.7288,9.9797 39.0508,13.0169 18.2237,31.2407 11.7153,40.7864 8.678,52.0678 8.678,61.6136 10.8475,68.5559 22.5627,87.6475 36.0136,101.0983 44.6915,106.3051 54.2373,109.3424 83.3085,108.9085 104.1356,98.9288 113.2475,88.5153 118.4542,79.8373 119.322,50.7661 118.0203,44.6915 106.3051,27.7695 96.3254,19.5254 88.9492,16.0542 73.7627,9.9797 63.7831,8.678 50.7661,8.678 46.861,9.9797 45.5593,12.1492" stroke="#00007f" stroke-width="2" /><polyline fill="none" points="42.0881,13.8847 42.522,68.9898 40.3525,76.8 26.9017,107.1729 24.7322,110.6441 23.4305,106.739 27.3356,101.9661" stroke="#7cff79" stroke-width="2" /><polyline fill="none" points="89.8169,18.2237 84.1763,27.3356 79.8373,40.7864 77.2339,67.2542 74.6305,81.139 74.6305,88.5153 80.2712,98.9288 82.4407,98.9288" stroke="#7f0000" stroke-width="2" /></svg>