<?xml version="1.0" encoding="utf-8" ?>
<svg baseProfile="tiny" height="128" version="1.2" viewBox="0,0,128,128" width="128" xmlns="http://www.w3.org/2000/svg" xmlns:ev="http://www.w3.org/2001/xml-events" xmlns:xlink="http://www.w3.org/1999/xlink"><defs /><polyline fill="none" points="34.7119,13.0169 16.922,29.939 10.8475,40.3525 8.678,53.8034 8.678,62.4814 13.8847,88.9492 19.9593,101.0983 25.6,105.8712 54.2373,116.7186 62.4814,117.1525 89.8169,108.0407 107.1729,91.5525 117.5864,71.5932 117.5864,63.3492 113.6814,46.861 105.4373,34.7119 95.8915,27.7695 80.7051,20.8271 54.2373,10.8475 48.5966,9.1119 36.0136,8.678 29.939,11.2814 27.3356,14.7525" stroke="#00007f" stroke-width="2" /><polyline fill="none" points="119.322,57.7085 110.2102,58.1424 97.1932,55.1051 83.3085,48.1627 80.2712,43.8237 77.2339,32.9763 78.9695,15.1864" stroke="#004cff" stroke-width="2" /><polyline fill="none" points="26.0339,20.3932 29.5051,23.8644 34.278,33.4102 35.5797,42.9559 34.7119,62.9153 31.6746,72.8949 29.939,75.0644 12.1492,78.9695" stroke="#29ffcd" stroke-width="2" /><polyline fill="none" points="67.2542,90.2508 68.122,90.2508" stroke="#cdff29" stroke-width="2" /><polyline fill="none" points="55.9729,52.0678 59.0102,54.2373" stroke="#ff6700" stroke-width="2" /><polyline fill="none" points="54.2373,30.3729 56.8407,29.939" stroke="#7f0000" stroke-width="2" /></svg>