<?xml version="1.0" encoding="utf-8" ?>
<svg baseProfile="tiny" height="128" version="1.2" viewBox="0,0,128,128" width="128" xmlns="http://www.w3.org/2000/svg" xmlns:ev="http://www.w3.org/2001/xml-events" xmlns:xlink="http://www.w3.org/1999/xlink"><defs /><polyline fill="none" points="49.4644,39.9186 51.6339,30.3729 55.1051,22.9966 61.1797,17.7898 72.461,15.1864 89.8169,14.3186 93.722,17.7898 77.2339,35.5797 71.1593,40.7864 65.0847,43.8237 52.5017,41.6542 49.4644,39.9186" stroke="#00007f" stroke-width="2" /><polyline fill="none" points="52.0678,37.3153 82.0068,21.261 78.1017,26.4678 64.6508,32.1085 54.6712,34.278 65.5186,25.1661 80.2712,21.261" stroke="#0000f1" stroke-width="2" /><polyline fill="none" points="74.6305,22.5627 76.3661,25.6" stroke="#004cff" stroke-width="2" /><polyline fill="none" points="72.461,24.7322 72.8949,27.3356" stroke="#00b0ff" stroke-width="2" /><polyline fill="none" points="67.6881,25.6 68.122,28.6373" stroke="#29ffcd" stroke-width="2" /><polyline fill="none" points="64.2169,29.0712 64.6508,30.8068" stroke="#7cff79" stroke-width="2" /><polyline fill="none" points="62.0475,31.2407 63.7831,33.8441" stroke="#cdff29" stroke-width="2" /><polyline fill="none" points="15.1864,33.8441 17.7898,25.1661 22.1288,18.2237 27.7695,14.3186 39.9186,8.678 42.0881,8.678 37.7492,20.3932 58.5763,20.3932 61.1797,21.261 62.0475,22.9966 60.3119,24.7322 46.4271,30.8068 70.2915,30.8068 54.2373,37.7492 66.3864,39.4847 68.9898,41.6542 65.0847,43.8237 47.2949,48.1627 29.5051,50.7661 13.0169,31.6746" stroke="#ffc400" stroke-width="2" /><polyline fill="none" points="14.3186,36.8814 9.1119,39.9186 8.678,45.1254" stroke="#ff6700" stroke-width="2" /><polyline fill="none" points="25.6,43.3898 8.678,53.8034" stroke="#f10700" stroke-width="2" /><polyline fill="none" points="103.2678,31.2407 78.9695,30.8068 78.1017,37.3153 81.5729,44.6915 86.7797,49.4644 94.5898,50.3322 102.4,47.2949 104.5695,44.6915 105.8712,33.8441 105.4373,14.3186 119.322,10.8475 115.8508,45.1254 105.4373,42.522" stroke="#7f0000" stroke-width="2" /></svg>