<?xml version="1.0" encoding="utf-8" ?>
<svg baseProfile="tiny" height="128" version="1.2" viewBox="0,0,128,128" width="128" xmlns="http://www.w3.org/2000/svg" xmlns:ev="http://www.w3.org/2001/xml-events" xmlns:xlink="http://www.w3.org/1999/xlink"><defs /><polyline fill="none" points="93.4881,18.785 94.7986,17.0375 93.4881,14.8532 82.5666,11.7952 55.0444,10.4846 42.3754,12.6689 30.1433,18.785 16.1638,31.0171 12.2321,37.1331 8.7372,47.6177 8.7372,59.8498 13.5427,75.5768 19.6587,83.4403 28.8328,91.3038 45.4334,98.7304 66.4027,102.2253 78.198,100.4778 87.8089,96.5461 100.041,87.8089 110.9625,77.3242 114.4573,69.0239 119.2628,50.6758 119.2628,38.8805 113.5836,20.5324 107.4676,14.8532 96.5461,8.7372" stroke="#00007f" stroke-width="2" /><polyline fill="none" points="36.6962,11.3584 46.3072,20.9693 53.7338,47.1809 54.6075,54.6075 53.2969,80.3823 50.6758,93.4881 48.4915,99.1672 42.8123,106.157" stroke="#7cff79" stroke-width="2" /><polyline fill="none" points="96.5461,11.7952 90.8669,17.9113 87.372,25.3379 84.7509,50.2389 85.1877,62.471 86.4983,69.4608 93.4881,82.1297 101.3515,92.1775 107.9044,97.4198" stroke="#7f0000" stroke-width="2" /></svg>