<?xml version="1.0" encoding="utf-8" ?>
<svg baseProfile="tiny" height="128" version="1.2" viewBox="0,0,128,128" width="128" xmlns="http://www.w3.org/2000/svg" xmlns:ev="http://www.w3.org/2001/xml-events" xmlns:xlink="http://www.w3.org/1999/xlink"><defs /><polyline fill="none" points="98.4949,16.0542 92.8542,13.0169 83.3085,10.4136 69.4237,8.678 48.5966,8.678 33.4102,12.1492 19.5254,24.2983 11.2814,42.522 8.678,53.3695 8.678,83.3085 11.2814,94.5898 16.0542,105.0034 21.261,110.2102 30.3729,113.6814 55.9729,114.1153 64.2169,112.8136 72.8949,108.4746 88.5153,93.722 92.8542,81.139 92.8542,45.9932 83.3085,16.0542 80.7051,12.1492 76.8,10.4136 72.0271,10.4136" stroke="#00007f" stroke-width="2" /><polyline fill="none" points="27.7695,16.922 32.1085,20.3932 36.8814,29.939 46.861,60.7458 68.5559,106.3051 73.7627,119.322" stroke="#7cff79" stroke-width="2" /><polyline fill="none" points="13.0169,90.2508 16.922,89.3831 20.3932,85.0441 24.2983,75.0644 33.8441,64.2169 51.2,36.8814 62.9153,25.1661 75.0644,18.6576" stroke="#7f0000" stroke-width="2" /></svg>