<?xml version="1.0" encoding="utf-8" ?>
<svg baseProfile="tiny" height="128" version="1.2" viewBox="0,0,128,128" width="128" xmlns="http://www.w3.org/2000/svg" xmlns:ev="http://www.w3.org/2001/xml-events" xmlns:xlink="http://www.w3.org/1999/xlink"><defs /><polyline fill="none" points="116.7186,31.6746 113.6814,25.6 107.1729,21.6949 89.3831,14.7525 45.5593,9.5458 24.7322,10.4136 14.7525,19.5254 12.1492,26.4678 8.678,48.1627 8.678,77.2339 16.4881,89.3831 28.2034,100.2305 36.0136,103.7017 47.2949,105.4373 65.5186,105.4373 80.7051,100.6644 90.6847,95.4576 99.7966,88.5153 109.7763,75.4983 114.1153,65.9525 116.7186,46.4271 115.8508,34.278" stroke="#00007f" stroke-width="2" /><polyline fill="none" points="35.1458,8.678 39.4847,12.1492 52.5017,37.7492 59.4441,69.4237 59.4441,105.4373 56.8407,111.5119 49.0305,119.322" stroke="#004cff" stroke-width="2" /><polyline fill="none" points="98.9288,9.5458 79.8373,36.4475 72.8949,54.2373 69.4237,71.1593 70.2915,90.2508 79.8373,103.2678 85.0441,107.1729 88.5153,108.0407" stroke="#29ffcd" stroke-width="2" /><polyline fill="none" points="35.1458,40.3525 40.7864,38.6169 49.0305,38.6169" stroke="#cdff29" stroke-width="2" /><polyline fill="none" points="42.9559,75.4983 53.3695,74.6305 67.6881,71.1593" stroke="#ff6700" stroke-width="2" /><polyline fill="none" points="43.8237,98.061 43.8237,98.061" stroke="#7f0000" stroke-width="2" /></svg>