<?xml version="1.0" encoding="utf-8" ?>
<svg baseProfile="tiny" height="128" version="1.2" viewBox="0,0,128,128" width="128" xmlns="http://www.w3.org/2000/svg" xmlns:ev="http://www.w3.org/2001/xml-events" xmlns:xlink="http://www.w3.org/1999/xlink"><defs /><polyline fill="none" points="75.4983,8.678 51.2,13.4508 31.2407,23.8644 21.6949,36.8814 13.4508,52.9356 8.678,68.5559 9.1119,83.3085 16.0542,94.1559 25.6,104.5695 32.1085,109.3424 50.7661,116.2847 60.3119,118.8881 71.1593,119.322 80.7051,117.1525 97.1932,105.4373 104.5695,96.7593 109.7763,87.6475 112.3797,77.6678 113.6814,58.5763 113.2475,47.2949 106.739,30.3729 91.1186,15.6203 74.1966,12.1492" stroke="#00007f" stroke-width="2" /><polyline fill="none" points="32.9763,25.1661 39.0508,35.5797 45.5593,42.522 56.8407,48.5966 68.5559,51.6339 80.2712,51.2 90.6847,48.1627 95.4576,44.6915 104.5695,33.4102" stroke="#0028ff" stroke-width="2" /><polyline fill="none" points="24.7322,99.7966 36.4475,92.4203 40.7864,90.6847 63.7831,88.9492 78.1017,92.4203 94.1559,102.8339" stroke="#00d4ff" stroke-width="2" /><polyline fill="none" points="45.1254,37.7492 46.4271,52.0678" stroke="#7cff79" stroke-width="2" /><polyline fill="none" points="64.2169,43.8237 64.2169,61.6136" stroke="#ffe500" stroke-width="2" /><polyline fill="none" points="77.2339,43.8237 83.3085,59.0102" stroke="#ff4600" stroke-width="2" /><polyline fill="none" points="90.6847,39.4847 89.8169,53.8034" stroke="#7f0000" stroke-width="2" /></svg>