<?xml version="1.0" encoding="utf-8" ?>
<svg baseProfile="tiny" height="128" version="1.2" viewBox="0,0,128,128" width="128" xmlns="http://www.w3.org/2000/svg" xmlns:ev="http://www.w3.org/2001/xml-events" xmlns:xlink="http://www.w3.org/1999/xlink"><defs /><polyline fill="none" points="89.8169,94.1559 87.6475,96.7593 80.2712,100.2305 45.5593,100.2305 31.2407,96.7593 19.0915,90.6847 15.6203,87.2136 8.678,72.0271 8.678,23.8644 10.8475,16.0542 13.8847,12.5831 48.1627,8.678 76.8,8.678 90.2508,12.1492 104.5695,23.8644 110.6441,30.8068 117.5864,43.3898 119.322,47.2949 119.322,57.7085 116.2847,63.3492 103.7017,75.4983 91.5525,93.2881 88.9492,94.5898" stroke="#00007f" stroke-width="2" /><polyline fill="none" points="12.1492,17.3559 25.6,26.4678 43.3898,43.8237 59.4441,65.0847 71.5932,89.3831" stroke="#7cff79" stroke-width="2" /><polyline fill="none" points="15.1864,82.8746 18.6576,82.8746 40.7864,73.7627 56.4068,62.4814 74.1966,45.9932 90.6847,36.4475 101.5322,31.6746" stroke="#7f0000" stroke-width="2" /></svg>