<?xml version="1.0" encoding="utf-8" ?>
<svg baseProfile="tiny" height="128" version="1.2" viewBox="0,0,128,128" width="128" xmlns="http://www.w3.org/2000/svg" xmlns:ev="http://www.w3.org/2001/xml-events" xmlns:xlink="http://www.w3.org/1999/xlink"><defs /><polyline fill="none" points="61.6136,13.4508 56.8407,12.5831 48.5966,15.6203 30.3729,26.0339 21.6949,36.8814 12.1492,55.1051 9.5458,64.2169 8.678,90.6847 11.7153,96.3254 22.1288,102.4 40.7864,106.739 58.5763,108.9085 77.6678,108.9085 93.722,103.7017 104.1356,94.1559 112.8136,81.139 117.5864,67.2542 119.322,57.2746 119.322,44.6915 113.2475,33.4102 109.3424,29.939 80.2712,14.3186 65.0847,8.678 60.3119,8.678 53.3695,12.1492" stroke="#00007f" stroke-width="2" /><polyline fill="none" points="47.2949,15.6203 51.2,22.9966 51.2,32.1085 48.5966,50.3322 47.7288,74.6305 45.1254,90.6847 38.1831,102.8339" stroke="#7cff79" stroke-width="2" /><polyline fill="none" points="87.2136,16.4881 72.0271,67.6881 68.5559,83.3085 68.122,99.7966 71.1593,108.4746 73.3288,111.5119" stroke="#7f0000" stroke-width="2" /></svg>