<?xml version="1.0" encoding="utf-8" ?>
<svg baseProfile="tiny" height="128" version="1.2" viewBox="0,0,128,128" width="128" xmlns="http://www.w3.org/2000/svg" xmlns:ev="http://www.w3.org/2001/xml-events" xmlns:xlink="http://www.w3.org/1999/xlink"><defs /><polyline fill="none" points="30.8068,10.4136 21.6949,11.2814 13.0169,16.922 9.9797,24.2983 8.678,48.1627 19.9593,74.6305 23.8644,79.4034 30.8068,83.3085 42.522,82.4407 50.3322,78.5356 58.5763,71.5932 65.5186,58.5763 66.3864,40.7864 64.6508,32.9763 59.0102,23.8644 23.8644,8.678" stroke="#00007f" stroke-width="2" /><polyline fill="none" points="22.5627,13.0169 22.5627,28.6373 26.0339,52.9356 26.0339,77.6678 24.2983,82.8746" stroke="#00d4ff" stroke-width="2" /><polyline fill="none" points="40.7864,20.3932 40.7864,45.5593 45.5593,67.6881 50.3322,77.6678" stroke="#ffe500" stroke-width="2" /><polyline fill="none" points="83.3085,49.0305 85.478,51.6339 90.2508,77.2339 92.4203,82.4407 95.0237,82.8746 119.322,42.0881" stroke="#7f0000" stroke-width="2" /></svg>