<?xml version="1.0" encoding="utf-8" ?>
<svg baseProfile="tiny" height="128" version="1.2" viewBox="0,0,128,128" width="128" xmlns="http://www.w3.org/2000/svg" xmlns:ev="http://www.w3.org/2001/xml-events" xmlns:xlink="http://www.w3.org/1999/xlink"><defs /><polyline fill="none" points="93.1701,9.1429 68.7891,9.5782 27.8639,20.0272 21.3333,23.0748 15.2381,28.2993 10.0136,35.7007 8.7075,39.619 8.7075,49.6327 10.0136,55.7279 16.5442,66.6122 22.6395,72.2721 29.6054,76.6259 47.0204,82.2857 73.1429,84.4626 92.7347,82.2857 108.8435,76.1905 117.1156,67.483 118.8571,61.3878 119.2925,53.551 112.3265,28.7347 105.3605,20.4626 80.5442,11.3197 65.7415,8.7075" stroke="#00007f" stroke-width="2" /><polyline fill="none" points="42.6667,11.3197 38.7483,33.9592 37.0068,51.8095 30.9116,74.8844" stroke="#0010ff" stroke-width="2" /><polyline fill="none" points="28.7347,32.2177 32.6531,34.3946 44.8435,35.7007" stroke="#00a4ff" stroke-width="2" /><polyline fill="none" points="28.7347,48.7619 30.9116,50.9388 48.7619,57.9048" stroke="#3fffb7" stroke-width="2" /><polyline fill="none" points="23.9456,69.2245 31.3469,69.2245 47.8912,72.7075" stroke="#b7ff3f" stroke-width="2" /><polyline fill="none" points="30.4762,26.9932 37.4422,25.2517 49.1973,26.1224" stroke="#ffb900" stroke-width="2" /><polyline fill="none" points="67.9184,15.6735 71.4014,65.7415 69.2245,100.5714" stroke="#ff3000" stroke-width="2" /><polyline fill="none" points="61.8231,47.8912 68.7891,46.1497" stroke="#7f0000" stroke-width="2" /></svg>