<?xml version="1.0" encoding="utf-8" ?>
<svg baseProfile="tiny" height="128" version="1.2" viewBox="0,0,128,128" width="128" xmlns="http://www.w3.org/2000/svg" xmlns:ev="http://www.w3.org/2001/xml-events" xmlns:xlink="http://www.w3.org/1999/xlink"><defs /><polyline fill="none" points="46.861,9.9797 39.4847,8.678 32.1085,14.3186 17.3559,35.1458 12.1492,44.6915 8.678,59.0102 8.678,73.7627 9.5458,79.8373 16.0542,93.722 22.5627,101.0983 37.3153,108.9085 60.7458,112.8136 75.9322,112.8136 96.7593,104.5695 106.739,96.7593 114.1153,85.478 119.322,68.122 119.322,53.3695 113.2475,34.278 108.4746,24.2983 99.7966,13.8847 89.8169,9.5458 47.7288,9.5458" stroke="#00007f" stroke-width="2" /><polyline fill="none" points="38.6169,23.4305 54.2373,48.5966 62.0475,68.5559 64.2169,91.9864 59.0102,102.4 56.4068,112.8136" stroke="#7cff79" stroke-width="2" /><polyline fill="none" points="83.3085,13.0169 82.8746,50.3322 85.0441,79.8373 89.3831,89.8169 103.2678,97.1932" stroke="#7f0000" stroke-width="2" /></svg>