<?xml version="1.0" encoding="utf-8" ?>
<svg baseProfile="tiny" height="128" version="1.2" viewBox="0,0,128,128" width="128" xmlns="http://www.w3.org/2000/svg" xmlns:ev="http://www.w3.org/2001/xml-events" xmlns:xlink="http://www.w3.org/1999/xlink"><defs /><polyline fill="none" points="52.9356,63.3492 49.4644,63.3492 49.4644,65.9525 56.4068,67.2542 57.2746,64.6508 56.4068,62.9153" stroke="#00007f" stroke-width="2" /><polyline fill="none" points="52.0678,62.4814 55.9729,25.1661 61.6136,21.6949 68.5559,22.1288 69.8576,24.2983 69.8576,30.8068 64.6508,49.0305 57.7085,61.6136 56.8407,62.4814 56.8407,61.1797" stroke="#0000e8" stroke-width="2" /><polyline fill="none" points="85.478,20.3932 81.5729,21.6949 79.4034,27.7695 82.4407,31.2407 88.5153,31.6746 90.6847,29.0712 90.6847,24.2983 87.2136,22.1288 83.7424,21.261" stroke="#0038ff" stroke-width="2" /><polyline fill="none" points="82.4407,21.6949 82.8746,26.4678 86.3458,30.3729" stroke="#0094ff" stroke-width="2" /><polyline fill="none" points="82.8746,22.5627 86.7797,24.2983 90.2508,29.5051" stroke="#0cf4ea" stroke-width="2" /><polyline fill="none" points="105.8712,8.678 93.722,17.7898" stroke="#56ffa0" stroke-width="2" /><polyline fill="none" points="97.1932,22.9966 110.2102,16.0542 119.322,13.4508" stroke="#a0ff56" stroke-width="2" /><polyline fill="none" points="24.7322,15.6203 20.8271,16.922 17.7898,19.9593 16.922,27.7695 19.9593,31.2407 22.5627,32.1085 27.3356,32.1085 31.2407,30.3729 34.278,26.4678 34.278,22.1288 32.5424,19.9593 23.4305,16.4881" stroke="#eaff0c" stroke-width="2" /><polyline fill="none" points="19.9593,32.5424 19.9593,36.4475" stroke="#ffaa00" stroke-width="2" /><polyline fill="none" points="24.7322,32.1085 51.6339,60.7458" stroke="#ff5500" stroke-width="2" /><polyline fill="none" points="28.6373,43.8237 39.9186,58.5763 50.3322,65.5186" stroke="#e80000" stroke-width="2" /><polyline fill="none" points="19.5254,31.2407 17.7898,38.6169 8.678,55.9729" stroke="#7f0000" stroke-width="2" /></svg>