<?xml version="1.0" encoding="utf-8" ?>
<svg baseProfile="tiny" height="128" version="1.2" viewBox="0,0,128,128" width="128" xmlns="http://www.w3.org/2000/svg" xmlns:ev="http://www.w3.org/2001/xml-events" xmlns:xlink="http://www.w3.org/1999/xlink"><defs /><polyline fill="none" points="100.2305,53.3695 99.3627,40.7864 95.8915,32.5424 90.6847,24.7322 82.4407,18.2237 71.5932,14.3186 56.4068,14.3186 40.7864,19.5254 25.6,32.1085 14.3186,47.2949 8.678,62.4814 8.678,73.7627 11.2814,86.3458 19.9593,95.8915 32.9763,103.7017 49.8983,108.4746 86.7797,107.6068 100.2305,101.5322 108.0407,93.722 110.6441,85.9119 110.6441,75.4983 105.0034,63.7831 84.6102,39.4847" stroke="#00007f" stroke-width="2" /><polyline fill="none" points="28.6373,25.1661 31.2407,26.9017 34.278,35.1458 34.278,51.6339 32.1085,58.5763 33.8441,55.9729 39.9186,55.9729 42.0881,59.4441 43.8237,68.9898 42.0881,78.9695 37.7492,83.3085 39.9186,88.5153 39.9186,99.3627 36.0136,119.322" stroke="#00d4ff" stroke-width="2" /><polyline fill="none" points="68.122,10.4136 71.1593,8.678 71.5932,13.0169 72.461,68.9898 75.0644,89.8169 78.5356,92.8542" stroke="#ffe500" stroke-width="2" /><polyline fill="none" points="78.9695,93.722 78.1017,96.7593 81.139,117.5864 82.0068,113.2475 74.6305,70.2915 70.7254,30.3729 68.122,21.6949" stroke="#7f0000" stroke-width="2" /></svg>