<?xml version="1.0" encoding="utf-8" ?>
<svg baseProfile="tiny" height="128" version="1.2" viewBox="0,0,128,128" width="128" xmlns="http://www.w3.org/2000/svg" xmlns:ev="http://www.w3.org/2001/xml-events" xmlns:xlink="http://www.w3.org/1999/xlink"><defs /><polyline fill="none" points="10.4136,97.1932 8.678,84.6102 9.5458,62.4814 12.1492,53.3695 20.8271,34.7119 25.6,25.6 36.0136,14.3186 48.5966,8.678 51.2,8.678 54.6712,11.2814 72.0271,32.9763 76.8,41.2203 79.8373,63.7831 79.8373,80.7051 77.6678,85.9119 72.0271,93.2881 42.522,118.0203 38.1831,119.322 26.9017,113.2475 8.678,95.4576" stroke="#00007f" stroke-width="2" /><polyline fill="none" points="26.9017,24.7322 29.939,25.6 32.1085,28.2034 34.7119,46.4271 34.7119,65.0847 30.3729,77.2339 21.261,93.2881 11.2814,100.6644" stroke="#7cff79" stroke-width="2" /><polyline fill="none" points="68.5559,38.6169 62.0475,54.6712 55.1051,66.3864 50.7661,79.8373 51.2,87.6475 67.6881,101.0983" stroke="#7f0000" stroke-width="2" /></svg>