<?xml version="1.0" encoding="utf-8" ?>
<svg baseProfile="tiny" height="128" version="1.2" viewBox="0,0,128,128" width="128" xmlns="http://www.w3.org/2000/svg" xmlns:ev="http://www.w3.org/2001/xml-events" xmlns:xlink="http://www.w3.org/1999/xlink"><defs /><polyline fill="none" points="61.6136,12.5831 47.2949,12.5831 24.7322,23.4305 15.1864,31.6746 9.5458,42.9559 8.678,52.5017 9.5458,65.9525 15.6203,79.8373 25.1661,89.8169 42.522,98.9288 60.7458,101.9661 80.7051,101.9661 96.3254,98.4949 107.6068,93.2881 114.5492,87.2136 118.4542,80.2712 119.322,75.0644 118.4542,59.0102 115.4169,40.3525 112.8136,32.1085 107.6068,24.2983 99.3627,19.0915 76.3661,11.2814 46.861,8.678" stroke="#00007f" stroke-width="2" /><polyline fill="none" points="85.478,13.8847 82.0068,14.3186 76.8,20.3932 72.8949,29.0712 71.1593,42.9559 72.0271,61.1797 75.0644,72.461 82.0068,87.6475 90.2508,97.6271 105.4373,108.0407" stroke="#0028ff" stroke-width="2" /><polyline fill="none" points="35.5797,17.7898 44.2576,31.6746 49.0305,44.6915 51.6339,56.8407 55.1051,81.139 55.1051,91.9864 50.3322,102.4 48.1627,103.2678" stroke="#00d4ff" stroke-width="2" /><polyline fill="none" points="42.0881,36.8814 46.861,34.7119 67.2542,31.6746" stroke="#7cff79" stroke-width="2" /><polyline fill="none" points="47.7288,57.7085 58.5763,53.3695" stroke="#ffe500" stroke-width="2" /><polyline fill="none" points="45.1254,76.3661 63.7831,68.9898" stroke="#ff4600" stroke-width="2" /><polyline fill="none" points="52.9356,89.8169 60.7458,85.9119" stroke="#7f0000" stroke-width="2" /></svg>