<?xml version="1.0" encoding="utf-8" ?>
<svg baseProfile="tiny" height="128" version="1.2" viewBox="0,0,128,128" width="128" xmlns="http://www.w3.org/2000/svg" xmlns:ev="http://www.w3.org/2001/xml-events" xmlns:xlink="http://www.w3.org/1999/xlink"><defs /><polyline fill="none" points="50.7661,98.9288 60.7458,98.9288 61.1797,96.3254 57.7085,94.1559" stroke="#00007f" stroke-width="2" /><polyline fill="none" points="52.5017,99.3627 48.5966,98.4949 47.2949,96.3254 48.5966,93.722 52.0678,92.4203 52.9356,90.6847 52.5017,75.9322 49.8983,58.1424 49.4644,30.3729 50.3322,27.3356 58.5763,21.6949 68.9898,22.5627 70.7254,28.6373 69.8576,42.9559 64.6508,59.4441 62.9153,71.5932 57.7085,92.8542" stroke="#00d4ff" stroke-width="2" /><polyline fill="none" points="83.7424,12.1492 79.4034,15.6203 78.5356,19.0915 79.8373,22.5627 87.2136,28.2034 89.3831,28.6373 90.6847,27.3356 91.5525,21.261 90.2508,17.3559 83.3085,13.0169" stroke="#ffe500" stroke-width="2" /><polyline fill="none" points="54.2373,8.678 50.7661,8.678 33.4102,17.7898 29.0712,22.1288 24.2983,30.8068 9.1119,80.7051 8.678,100.2305 14.3186,109.7763 23.8644,115.8508 37.7492,118.8881 53.3695,119.322 60.3119,117.1525 74.6305,108.4746 81.5729,93.722 85.478,76.8 85.478,42.0881 78.9695,28.6373 66.8203,12.5831 61.1797,11.7153 52.0678,14.3186" stroke="#7f0000" stroke-width="2" /></svg>