<?xml version="1.0" encoding="utf-8" ?>
<svg baseProfile="tiny" height="128" version="1.2" viewBox="0,0,128,128" width="128" xmlns="http://www.w3.org/2000/svg" xmlns:ev="http://www.w3.org/2001/xml-events" xmlns:xlink="http://www.w3.org/1999/xlink"><defs /><polyline fill="none" points="118.0203,13.8847 110.2102,10.4136 103.2678,9.9797 70.7254,10.8475 56.8407,13.8847 31.6746,24.2983 16.922,36.0136 12.1492,44.2576 9.1119,51.6339 8.678,68.5559 11.2814,77.6678 16.4881,86.3458 31.2407,98.4949 40.7864,102.4 51.2,104.5695 71.5932,105.8712 80.7051,104.1356 90.2508,100.2305 105.4373,87.6475 110.2102,80.7051 117.1525,65.0847 118.8881,57.7085 119.322,35.5797 118.8881,28.6373 114.9831,19.5254 107.1729,13.0169 101.0983,10.8475 84.6102,8.678" stroke="#00007f" stroke-width="2" /><polyline fill="none" points="89.8169,15.1864 76.8,26.9017 47.7288,49.4644 27.7695,73.3288" stroke="#0080ff" stroke-width="2" /><polyline fill="none" points="101.5322,30.3729 65.9525,62.0475 42.9559,85.0441 45.1254,86.3458" stroke="#7cff79" stroke-width="2" /><polyline fill="none" points="98.4949,49.8983 83.7424,68.122 71.1593,78.9695 52.9356,100.6644 53.3695,98.061" stroke="#ff9400" stroke-width="2" /><polyline fill="none" points="100.6644,51.6339 73.3288,82.8746 43.3898,108.9085" stroke="#7f0000" stroke-width="2" /></svg>