<?xml version="1.0" encoding="utf-8" ?>
<svg baseProfile="tiny" height="128" version="1.2" viewBox="0,0,128,128" width="128" xmlns="http://www.w3.org/2000/svg" xmlns:ev="http://www.w3.org/2001/xml-events" xmlns:xlink="http://www.w3.org/1999/xlink"><defs /><polyline fill="none" points="93.2881,25.6 91.1186,25.1661 87.6475,26.9017 84.1763,33.8441 83.7424,41.6542 91.1186,42.522 97.1932,39.0508 99.7966,35.1458 99.7966,26.0339 97.6271,23.8644 91.5525,23.8644" stroke="#00007f" stroke-width="2" /><polyline fill="none" points="82.4407,26.9017 59.4441,26.9017 47.7288,28.6373" stroke="#0000fe" stroke-width="2" /><polyline fill="none" points="70.2915,29.939 67.2542,29.939 47.7288,36.0136" stroke="#0060ff" stroke-width="2" /><polyline fill="none" points="74.1966,33.8441 49.8983,35.1458" stroke="#00d4ff" stroke-width="2" /><polyline fill="none" points="76.3661,36.0136 51.2,39.9186" stroke="#4cffaa" stroke-width="2" /><polyline fill="none" points="80.7051,40.3525 70.2915,41.6542 52.5017,41.6542" stroke="#aaff4c" stroke-width="2" /><polyline fill="none" points="8.678,41.6542 13.0169,23.4305" stroke="#ffe500" stroke-width="2" /><polyline fill="none" points="13.0169,41.2203 15.1864,34.7119 15.6203,26.0339 19.0915,19.5254 19.9593,13.4508 16.0542,9.9797 11.7153,10.8475 9.9797,19.9593 12.1492,24.2983" stroke="#ff7a00" stroke-width="2" /><polyline fill="none" points="8.678,39.4847 13.4508,39.9186" stroke="#fe1200" stroke-width="2" /><polyline fill="none" points="119.322,10.8475 96.7593,8.678 46.861,9.1119 39.0508,11.7153 30.8068,16.4881 24.7322,23.4305 25.1661,31.2407 36.0136,46.861 44.6915,54.6712 54.6712,60.7458 65.9525,64.2169 81.139,65.9525 97.1932,65.9525 101.5322,65.0847 108.4746,60.3119 111.9458,54.2373 115.8508,33.8441 116.2847,16.922 105.4373,15.1864" stroke="#7f0000" stroke-width="2" /></svg>