<?xml version="1.0" encoding="utf-8" ?>
<svg baseProfile="tiny" height="128" version="1.2" viewBox="0,0,128,128" width="128" xmlns="http://www.w3.org/2000/svg" xmlns:ev="http://www.w3.org/2001/xml-events" xmlns:xlink="http://www.w3.org/1999/xlink"><defs /><polyline fill="none" points="59.878,10.8475 37.3153,10.4136 29.939,12.1492 20.8271,18.6576 14.7525,26.0339 10.4136,37.7492 8.678,58.5763 13.8847,71.5932 19.0915,79.8373 25.1661,86.3458 43.3898,97.1932 60.3119,100.6644 87.6475,100.6644 97.1932,96.7593 107.1729,89.8169 115.8508,78.1017 118.4542,70.7254 119.322,50.7661 118.0203,44.6915 111.5119,31.6746 105.8712,25.6 96.7593,18.6576 82.0068,12.1492 58.1424,8.678 25.1661,8.678" stroke="#00007f" stroke-width="2" /><polyline fill="none" points="29.939,13.8847 45.5593,24.2983 51.2,32.9763 55.9729,49.8983 57.7085,57.2746 57.7085,84.6102 54.6712,92.8542 52.0678,95.4576" stroke="#7cff79" stroke-width="2" /><polyline fill="none" points="84.6102,13.8847 82.8746,26.9017 82.8746,48.1627 85.478,61.1797 88.5153,72.0271 91.9864,78.5356 97.1932,85.0441 102.8339,88.5153" stroke="#7f0000" stroke-width="2" /></svg>