<?xml version="1.0" encoding="utf-8" ?>
<svg baseProfile="tiny" height="128" version="1.2" viewBox="0,0,128,128" width="128" xmlns="http://www.w3.org/2000/svg" xmlns:ev="http://www.w3.org/2001/xml-events" xmlns:xlink="http://www.w3.org/1999/xlink"><defs /><polyline fill="none" points="68.5559,14.3186 62.9153,10.8475 53.8034,10.8475 45.9932,12.5831 38.1831,16.0542 31.6746,19.9593 23.4305,26.9017 12.5831,40.3525 10.4136,46.4271 10.4136,73.3288 16.4881,91.5525 22.9966,99.3627 39.9186,111.5119 46.4271,113.6814 64.6508,113.6814 75.0644,108.0407 86.7797,98.9288 98.061,88.5153 107.6068,76.3661 113.6814,67.2542 119.322,50.7661 118.8881,39.9186 115.4169,34.7119 98.9288,21.261 78.1017,13.4508 59.878,12.5831" stroke="#00007f" stroke-width="2" /><polyline fill="none" points="8.678,56.8407 13.4508,58.5763 47.2949,58.5763 59.878,54.6712 69.4237,49.0305 78.1017,40.7864 84.6102,33.4102 89.3831,19.5254 88.5153,8.678" stroke="#0080ff" stroke-width="2" /><polyline fill="none" points="43.3898,55.1051 49.4644,58.5763 55.1051,63.7831 59.4441,72.0271 59.4441,98.061 54.6712,108.4746" stroke="#7cff79" stroke-width="2" /><polyline fill="none" points="108.4746,18.2237 103.7017,23.8644 98.061,47.2949 98.061,58.1424 114.5492,66.3864" stroke="#ff9400" stroke-width="2" /><polyline fill="none" points="117.1525,59.4441 112.8136,61.6136 98.061,77.6678 90.6847,90.6847 90.6847,101.0983" stroke="#7f0000" stroke-width="2" /></svg>