<?xml version="1.0" encoding="utf-8" ?>
<svg baseProfile="tiny" height="128" version="1.2" viewBox="0,0,128,128" width="128" xmlns="http://www.w3.org/2000/svg" xmlns:ev="http://www.w3.org/2001/xml-events" xmlns:xlink="http://www.w3.org/1999/xlink"><defs /><polyline fill="none" points="85.478,8.678 63.3492,8.678 55.1051,11.2814 41.2203,16.922 20.3932,34.278 9.9797,62.0475 8.678,95.8915 12.1492,102.8339 22.5627,113.2475 33.4102,118.0203 48.1627,119.322 57.2746,119.322 64.6508,117.1525 78.5356,111.078 93.722,101.9661 115.8508,79.8373 118.0203,73.7627 118.0203,65.5186 112.3797,48.1627 106.3051,35.1458 85.478,20.3932 76.3661,15.6203" stroke="#00007f" stroke-width="2" /><polyline fill="none" points="79.8373,100.6644 73.7627,87.6475 71.5932,63.3492 73.7627,50.7661 83.3085,37.7492" stroke="#7cff79" stroke-width="2" /><polyline fill="none" points="23.8644,118.0203 35.5797,91.5525 39.0508,75.9322 37.7492,54.2373 32.9763,41.2203 28.6373,37.7492" stroke="#7f0000" stroke-width="2" /></svg>