<?xml version="1.0" encoding="utf-8" ?>
<svg baseProfile="tiny" height="128" version="1.2" viewBox="0,0,128,128" width="128" xmlns="http://www.w3.org/2000/svg" xmlns:ev="http://www.w3.org/2001/xml-events" xmlns:xlink="http://www.w3.org/1999/xlink"><defs /><polyline fill="none" points="67.483,10.449 55.7279,8.7075 41.3605,9.5782 33.0884,11.3197 27.4286,16.1088 12.1905,40.0544 9.1429,50.9388 8.7075,63.1293 10.449,72.7075 16.5442,88.381 27.8639,103.1837 38.7483,110.1497 48.3265,112.7619 60.9524,114.5034 74.449,113.6327 91.4286,108.8435 99.7007,102.3129 103.1837,97.0884 112.3265,78.3673 113.1973,66.1769 112.3265,56.1633 109.2789,45.7143 101.8776,29.6054 93.1701,17.8503 83.5918,12.6259 60.0816,11.7551" stroke="#00007f" stroke-width="2" /><polyline fill="none" points="52.6803,15.6735 49.6327,35.2653 48.3265,59.2109 51.3741,94.0408 54.8571,103.1837" stroke="#0080ff" stroke-width="2" /><polyline fill="none" points="69.2245,15.2381 69.2245,34.8299 70.966,65.3061 76.1905,98.8299 80.5442,112.3265" stroke="#7cff79" stroke-width="2" /><polyline fill="none" points="9.5782,55.7279 52.6803,47.8912 116.2449,49.1973" stroke="#ff9400" stroke-width="2" /><polyline fill="none" points="18.7211,75.7551 59.6463,66.6122 84.0272,64.4354 119.2925,64.8707" stroke="#7f0000" stroke-width="2" /></svg>