<?xml version="1.0" encoding="utf-8" ?>
<svg baseProfile="tiny" height="128" version="1.2" viewBox="0,0,128,128" width="128" xmlns="http://www.w3.org/2000/svg" xmlns:ev="http://www.w3.org/2001/xml-events" xmlns:xlink="http://www.w3.org/1999/xlink"><defs /><polyline fill="none" points="84.1763,20.3932 60.3119,19.9593 51.2,21.6949 41.2203,26.4678 34.278,32.1085 26.0339,44.2576 23.4305,50.7661 21.6949,61.1797 20.3932,78.1017 23.8644,97.1932 26.0339,102.4 31.6746,109.7763 42.0881,117.5864 49.4644,119.322 67.6881,119.322 81.5729,115.8508 91.1186,109.7763 96.3254,102.4 102.4,83.3085 102.4,61.6136 101.0983,52.0678 95.4576,34.278 92.4203,29.0712 81.139,14.3186 73.7627,8.678" stroke="#00007f" stroke-width="2" /><polyline fill="none" points="62.9153,21.6949 62.0475,37.7492 54.2373,51.2 43.3898,59.878 28.2034,67.6881 20.8271,74.1966 8.678,80.7051" stroke="#0080ff" stroke-width="2" /><polyline fill="none" points="93.2881,33.8441 85.9119,55.9729 83.3085,67.2542 83.3085,75.0644 85.0441,80.7051 97.1932,93.2881" stroke="#7cff79" stroke-width="2" /><polyline fill="none" points="93.722,97.6271 66.8203,92.8542 51.6339,105.0034 44.6915,116.2847" stroke="#ff9400" stroke-width="2" /><polyline fill="none" points="40.7864,60.3119 45.9932,72.461 56.8407,105.8712" stroke="#7f0000" stroke-width="2" /></svg>