<?xml version="1.0" encoding="utf-8" ?>
<svg baseProfile="tiny" height="128" version="1.2" viewBox="0,0,128,128" width="128" xmlns="http://www.w3.org/2000/svg" xmlns:ev="http://www.w3.org/2001/xml-events" xmlns:xlink="http://www.w3.org/1999/xlink"><defs /><polyline fill="none" points="74.1966,24.7322 71.1593,23.4305 51.6339,23.8644 42.522,27.3356 31.6746,34.278 22.1288,42.9559 14.7525,52.0678 8.678,66.3864 8.678,72.8949 11.2814,84.1763 16.922,91.5525 20.3932,93.2881 30.3729,97.6271 49.4644,101.9661 74.1966,103.2678 95.0237,99.3627 104.5695,94.1559 111.9458,85.0441 117.1525,74.6305 119.322,64.6508 119.322,54.6712 114.5492,44.6915 102.4,27.3356 92.4203,16.922 79.4034,9.9797 60.7458,8.678 47.7288,12.5831 36.4475,18.2237 24.7322,26.0339" stroke="#00007f" stroke-width="2" /><polyline fill="none" points="33.8441,19.9593 34.7119,33.8441 43.3898,80.7051" stroke="#00d4ff" stroke-width="2" /><polyline fill="none" points="59.878,10.4136 60.3119,15.6203 68.122,40.7864 80.2712,109.7763" stroke="#ffe500" stroke-width="2" /><polyline fill="none" points="89.8169,18.6576 96.3254,76.3661" stroke="#7f0000" stroke-width="2" /></svg>