<?xml version="1.0" encoding="utf-8" ?>
<svg baseProfile="tiny" height="128" version="1.2" viewBox="0,0,128,128" width="128" xmlns="http://www.w3.org/2000/svg" xmlns:ev="http://www.w3.org/2001/xml-events" xmlns:xlink="http://www.w3.org/1999/xlink"><defs /><polyline fill="none" points="86.7797,73.3288 75.9322,68.5559 52.0678,52.5017 36.4475,30.3729 36.8814,19.0915 38.6169,13.8847 46.861,8.678 54.2373,8.678 59.4441,13.0169 72.0271,31.2407 87.2136,48.1627 92.4203,60.7458 104.1356,76.3661 113.2475,83.3085" stroke="#00007f" stroke-width="2" /><polyline fill="none" points="87.6475,73.3288 105.8712,86.7797 107.6068,89.8169" stroke="#0028ff" stroke-width="2" /><polyline fill="none" points="106.739,89.8169 105.8712,91.5525 106.739,95.8915 109.3424,96.3254 114.1153,94.5898 118.4542,88.5153 119.322,82.4407 114.9831,81.139 112.8136,84.1763" stroke="#00d4ff" stroke-width="2" /><polyline fill="none" points="9.9797,52.5017 8.678,55.1051 9.9797,61.1797 13.0169,64.2169 24.7322,65.0847 30.3729,63.7831 33.4102,60.3119 34.7119,54.2373 33.4102,52.5017 17.3559,48.5966 14.3186,48.5966 13.0169,51.2" stroke="#7cff79" stroke-width="2" /><polyline fill="none" points="14.3186,50.3322 19.5254,55.1051 25.6,52.9356 26.4678,51.6339 25.6,50.3322" stroke="#ffe500" stroke-width="2" /><polyline fill="none" points="14.7525,62.4814 16.922,59.878 20.8271,58.1424 25.6,59.0102 26.9017,60.7458 26.0339,62.0475" stroke="#ff4600" stroke-width="2" /><polyline fill="none" points="13.4508,41.2203 16.922,40.3525 22.1288,35.5797" stroke="#7f0000" stroke-width="2" /></svg>