<?xml version="1.0" encoding="utf-8" ?>
<svg baseProfile="tiny" height="128" version="1.2" viewBox="0,0,128,128" width="128" xmlns="http://www.w3.org/2000/svg" xmlns:ev="http://www.w3.org/2001/xml-events" xmlns:xlink="http://www.w3.org/1999/xlink"><defs /><polyline fill="none" points="88.0814,11.7153 85.0441,9.9797 76.8,8.678 62.0475,9.1119 54.2373,10.8475 37.3153,16.0542 24.2983,24.7322 19.5254,29.0712 13.0169,41.6542 10.8475,49.0305 8.678,63.7831 9.5458,85.0441 15.1864,97.6271 22.9966,107.1729 34.7119,114.5492 48.1627,118.4542 68.9898,119.322 76.3661,116.7186 89.8169,111.078 105.4373,98.4949 114.5492,83.7424 117.5864,73.7627 118.4542,49.0305 116.2847,41.2203 108.0407,27.7695 98.061,16.922 92.4203,12.1492 88.5153,11.2814" stroke="#00007f" stroke-width="2" /><polyline fill="none" points="43.3898,16.922 48.5966,26.9017 53.3695,42.0881 54.2373,67.6881 47.2949,85.478 31.2407,107.1729" stroke="#0028ff" stroke-width="2" /><polyline fill="none" points="91.5525,15.1864 86.3458,48.1627 85.9119,70.7254 87.2136,79.8373 91.9864,92.8542 98.061,101.0983 102.4,103.7017" stroke="#00d4ff" stroke-width="2" /><polyline fill="none" points="38.6169,33.8441 66.3864,32.1085" stroke="#7cff79" stroke-width="2" /><polyline fill="none" points="41.2203,61.1797 62.9153,59.878" stroke="#ffe500" stroke-width="2" /><polyline fill="none" points="39.9186,74.1966 62.4814,84.6102" stroke="#ff4600" stroke-width="2" /><polyline fill="none" points="28.2034,97.6271 49.4644,101.5322" stroke="#7f0000" stroke-width="2" /></svg>