<?xml version="1.0" encoding="utf-8" ?>
<svg baseProfile="tiny" height="128" version="1.2" viewBox="0,0,128,128" width="128" xmlns="http://www.w3.org/2000/svg" xmlns:ev="http://www.w3.org/2001/xml-events" xmlns:xlink="http://www.w3.org/1999/xlink"><defs /><polyline fill="none" points="15.6203,15.1864 9.5458,29.0712 8.678,35.1458 10.4136,53.3695 14.7525,65.5186 18.2237,72.461 24.2983,78.5356 44.6915,88.9492 53.8034,89.8169 67.6881,86.3458 79.4034,81.139 85.9119,73.7627 113.2475,50.7661 117.1525,44.6915 119.322,27.7695 116.7186,24.2983 113.2475,21.6949 102.4,16.922 61.6136,9.9797 45.9932,8.678 36.4475,9.5458 25.6,11.2814 21.6949,14.3186" stroke="#00007f" stroke-width="2" /><polyline fill="none" points="21.6949,14.3186 27.7695,18.6576 39.4847,30.3729 46.861,42.0881 47.2949,47.2949 43.8237,62.9153 20.3932,82.8746" stroke="#0080ff" stroke-width="2" /><polyline fill="none" points="85.478,14.7525 84.6102,23.8644 85.9119,30.8068 92.8542,46.4271 101.5322,59.0102" stroke="#7cff79" stroke-width="2" /><polyline fill="none" points="84.6102,44.6915 95.8915,41.6542" stroke="#ff9400" stroke-width="2" /><polyline fill="none" points="80.2712,31.6746 81.139,31.6746" stroke="#7f0000" stroke-width="2" /></svg>