<?xml version="1.0" encoding="utf-8" ?>
<svg baseProfile="tiny" height="128" version="1.2" viewBox="0,0,128,128" width="128" xmlns="http://www.w3.org/2000/svg" xmlns:ev="http://www.w3.org/2001/xml-events" xmlns:xlink="http://www.w3.org/1999/xlink"><defs /><polyline fill="none" points="62.9153,14.7525 60.3119,10.4136 49.8983,8.678 42.0881,11.2814 32.5424,17.3559 24.7322,23.8644 17.3559,32.9763 10.4136,52.9356 8.678,74.1966 13.0169,87.2136 18.2237,98.9288 25.6,108.4746 30.8068,114.1153 38.1831,118.0203 45.1254,119.322 55.539,118.0203 66.8203,110.2102 77.6678,99.3627 92.8542,75.0644 96.7593,62.9153 98.4949,43.8237 96.7593,35.1458 92.8542,27.3356 86.7797,22.1288" stroke="#00007f" stroke-width="2" /><polyline fill="none" points="52.0678,12.5831 49.8983,34.278 49.0305,70.7254 46.861,85.0441 40.7864,109.3424 39.9186,111.5119 35.1458,114.5492" stroke="#0010ff" stroke-width="2" /><polyline fill="none" points="76.8,20.3932 69.4237,33.4102 64.2169,48.1627 61.6136,60.7458 61.1797,78.9695 63.7831,90.6847 68.9898,101.5322 75.0644,109.3424 83.7424,111.5119" stroke="#00a4ff" stroke-width="2" /><polyline fill="none" points="42.522,36.0136 50.3322,39.4847" stroke="#3fffb7" stroke-width="2" /><polyline fill="none" points="37.7492,66.3864 40.3525,68.122 49.4644,68.9898" stroke="#b7ff3f" stroke-width="2" /><polyline fill="none" points="37.3153,85.478 40.3525,88.9492 47.7288,90.6847" stroke="#ffb900" stroke-width="2" /><polyline fill="none" points="38.6169,103.7017 44.6915,104.1356" stroke="#ff3000" stroke-width="2" /><polyline fill="none" points="62.0475,37.7492 70.7254,39.0508 74.6305,41.6542" stroke="#7f0000" stroke-width="2" /></svg>