<?xml version="1.0" encoding="utf-8" ?>
<svg baseProfile="tiny" height="128" version="1.2" viewBox="0,0,128,128" width="128" xmlns="http://www.w3.org/2000/svg" xmlns:ev="http://www.w3.org/2001/xml-events" xmlns:xlink="http://www.w3.org/1999/xlink"><defs /><polyline fill="none" points="55.9729,8.678 50.7661,9.5458 43.3898,15.1864 26.0339,36.4475 14.3186,57.2746 11.2814,66.8203 8.678,82.4407 8.678,93.2881 13.4508,106.3051 17.3559,111.078 26.9017,116.2847 43.3898,118.8881 73.3288,119.322 95.4576,114.1153 111.078,105.0034 118.0203,92.4203 118.4542,81.139 110.2102,57.2746 104.5695,47.7288 89.3831,32.5424 78.1017,24.2983 54.6712,14.7525 49.8983,13.8847 47.7288,14.7525 47.2949,17.3559" stroke="#00007f" stroke-width="2" /><polyline fill="none" points="31.6746,35.5797 31.6746,48.1627 17.7898,98.9288 18.2237,103.2678 22.1288,112.3797 25.6,113.2475" stroke="#00d4ff" stroke-width="2" /><polyline fill="none" points="42.522,24.2983 53.8034,89.3831 53.3695,108.9085" stroke="#ffe500" stroke-width="2" /><polyline fill="none" points="63.7831,22.1288 68.9898,40.3525 83.7424,111.9458 86.3458,119.322 87.6475,115.4169" stroke="#7f0000" stroke-width="2" /></svg>