<?xml version="1.0" encoding="utf-8" ?>
<svg baseProfile="tiny" height="128" version="1.2" viewBox="0,0,128,128" width="128" xmlns="http://www.w3.org/2000/svg" xmlns:ev="http://www.w3.org/2001/xml-events" xmlns:xlink="http://www.w3.org/1999/xlink"><defs /><polyline fill="none" points="47.1809,11.3584 40.628,10.9215 36.2594,12.2321 24.4642,20.5324 13.5427,36.6962 9.1741,48.9283 8.7372,61.5973 13.9795,83.0034 19.6587,92.1775 26.6485,99.1672 36.6962,106.157 52.4232,111.8362 68.587,112.7099 83.8771,109.215 97.8567,100.9147 108.7782,89.5563 114.8942,80.3823 119.2628,68.587 118.8259,56.7918 111.8362,28.8328 107.9044,22.2799 99.6041,15.2901 81.256,9.1741 69.0239,8.7372 54.6075,11.3584 33.2014,17.9113 37.1331,20.9693 43.686,28.3959 48.0546,36.2594 50.6758,49.802 50.6758,59.413 48.9283,73.3925 43.2491,87.8089 38.0068,96.9829 29.2696,107.4676" stroke="#00007f" stroke-width="2" /><polyline fill="none" points="93.4881,13.5427 84.314,26.6485 77.3242,40.1911 69.8976,58.9761 68.1502,69.8976 70.3345,84.7509 75.1399,96.1092 82.1297,106.5939 86.9352,109.6519" stroke="#00d4ff" stroke-width="2" /><polyline fill="none" points="71.6451,89.9932 79.9454,83.4403" stroke="#ffe500" stroke-width="2" /><polyline fill="none" points="63.7816,68.1502 72.9556,68.587" stroke="#7f0000" stroke-width="2" /></svg>