<?xml version="1.0" encoding="utf-8" ?>
<svg baseProfile="tiny" height="128" version="1.2" viewBox="0,0,128,128" width="128" xmlns="http://www.w3.org/2000/svg" xmlns:ev="http://www.w3.org/2001/xml-events" xmlns:xlink="http://www.w3.org/1999/xlink"><defs /><polyline fill="none" points="86.3458,13.0169 72.8949,15.1864 52.5017,22.1288 32.5424,34.7119 23.4305,42.522 16.922,50.7661 9.1119,72.0271 8.678,82.0068 9.9797,90.2508 15.1864,99.3627 22.9966,107.6068" stroke="#00007f" stroke-width="2" /><polyline fill="none" points="80.2712,118.0203 91.5525,112.3797 101.5322,105.4373 109.3424,96.3254 115.4169,87.2136 118.4542,76.3661 119.322,64.6508 118.0203,52.5017 112.3797,40.7864 105.4373,30.8068 85.0441,13.8847 73.3288,8.678" stroke="#0010ff" stroke-width="2" /><polyline fill="none" points="46.861,29.939 58.5763,68.5559 59.878,78.9695 59.0102,93.722 55.1051,101.0983 46.4271,108.9085 37.3153,112.3797 28.2034,113.6814" stroke="#00a4ff" stroke-width="2" /><polyline fill="none" points="101.0983,20.3932 89.3831,29.939 84.1763,39.0508 79.8373,56.4068 79.4034,75.4983 80.7051,83.7424 87.2136,95.4576 95.4576,106.739 105.8712,115.8508" stroke="#3fffb7" stroke-width="2" /><polyline fill="none" points="102.4,29.5051 84.1763,36.8814" stroke="#b7ff3f" stroke-width="2" /><polyline fill="none" points="88.0814,52.9356 74.1966,64.2169" stroke="#ffb900" stroke-width="2" /><polyline fill="none" points="93.722,76.3661 90.6847,80.7051" stroke="#ff3000" stroke-width="2" /><polyline fill="none" points="100.6644,96.7593 100.6644,96.7593" stroke="#7f0000" stroke-width="2" /></svg>