<?xml version="1.0" encoding="utf-8" ?>
<svg baseProfile="tiny" height="128" version="1.2" viewBox="0,0,128,128" width="128" xmlns="http://www.w3.org/2000/svg" xmlns:ev="http://www.w3.org/2001/xml-events" xmlns:xlink="http://www.w3.org/1999/xlink"><defs /><polyline fill="none" points="19.5254,77.6678 14.7525,70.7254 14.3186,51.6339 21.261,35.5797 32.9763,22.1288 49.0305,12.1492 59.0102,9.1119 74.6305,8.678 88.9492,13.4508 101.5322,22.5627 108.9085,29.939 114.5492,39.0508 118.8881,53.8034 119.322,64.2169 116.2847,74.6305 110.6441,83.3085 102.8339,91.1186 89.8169,99.3627 84.1763,101.0983 68.9898,103.7017 52.9356,103.7017 42.522,100.2305 21.261,89.8169 12.5831,82.0068 8.678,72.461" stroke="#00007f" stroke-width="2" /><polyline fill="none" points="24.7322,38.1831 36.8814,42.9559 45.5593,44.6915 73.7627,44.6915 94.1559,37.7492 108.4746,26.9017" stroke="#0000d5" stroke-width="2" /><polyline fill="none" points="34.278,97.6271 33.8441,96.3254 36.8814,91.9864 47.7288,82.0068 60.7458,74.6305 70.7254,71.1593 85.0441,70.7254 92.4203,72.0271 100.6644,75.9322 108.9085,83.7424 110.2102,84.6102 110.2102,83.3085" stroke="#001cff" stroke-width="2" /><polyline fill="none" points="90.6847,32.5424 90.2508,43.8237 91.5525,49.4644" stroke="#006cff" stroke-width="2" /><polyline fill="none" points="76.3661,38.6169 74.1966,48.1627 72.0271,51.6339" stroke="#00b8ff" stroke-width="2" /><polyline fill="none" points="62.0475,38.1831 59.4441,47.2949 57.7085,49.4644" stroke="#1cffda" stroke-width="2" /><polyline fill="none" points="47.2949,33.4102 42.522,47.7288" stroke="#5cff9a" stroke-width="2" /><polyline fill="none" points="43.8237,72.461 47.2949,83.3085 50.7661,89.3831 52.9356,89.8169" stroke="#9aff5c" stroke-width="2" /><polyline fill="none" points="65.5186,66.3864 67.2542,70.2915 68.9898,78.5356 70.7254,78.9695" stroke="#daff1c" stroke-width="2" /><polyline fill="none" points="79.8373,65.5186 82.0068,73.3288" stroke="#ffcb00" stroke-width="2" /><polyline fill="none" points="98.4949,67.2542 98.4949,73.7627 94.1559,83.7424" stroke="#ff8500" stroke-width="2" /><polyline fill="none" points="33.8441,84.1763 37.7492,88.9492" stroke="#ff3b00" stroke-width="2" /><polyline fill="none" points="33.4102,38.1831 30.3729,39.9186 28.2034,43.8237" stroke="#d50000" stroke-width="2" /><polyline fill="none" points="13.4508,49.4644 11.2814,58.5763 11.2814,75.0644 13.4508,82.0068 17.3559,86.3458" stroke="#7f0000" stroke-width="2" /></svg>