<?xml version="1.0" encoding="utf-8" ?>
<svg baseProfile="tiny" height="128" version="1.2" viewBox="0,0,128,128" width="128" xmlns="http://www.w3.org/2000/svg" xmlns:ev="http://www.w3.org/2001/xml-events" xmlns:xlink="http://www.w3.org/1999/xlink"><defs /><polyline fill="none" points="110.2102,14.7525 96.7593,12.5831 69.8576,12.5831 63.7831,13.8847 43.3898,21.6949 35.1458,27.3356 17.3559,45.1254 9.1119,63.3492 8.678,84.1763 9.9797,88.5153 18.6576,102.4 26.9017,110.6441 40.3525,117.5864 70.2915,118.0203 84.6102,114.1153 95.0237,108.0407 102.8339,95.8915 118.8881,50.7661 119.322,34.7119 114.1153,24.2983 108.0407,16.922 101.5322,11.2814 95.8915,9.1119 88.0814,8.678 83.3085,11.2814" stroke="#00007f" stroke-width="2" /><polyline fill="none" points="58.1424,17.7898 58.5763,38.6169 56.4068,49.8983 36.4475,81.139 21.6949,91.5525" stroke="#7cff79" stroke-width="2" /><polyline fill="none" points="85.9119,16.0542 84.6102,18.6576 83.3085,52.5017 86.3458,70.2915 91.5525,78.5356 108.0407,86.7797" stroke="#7f0000" stroke-width="2" /></svg>