<?xml version="1.0" encoding="utf-8" ?>
<svg baseProfile="tiny" height="128" version="1.2" viewBox="0,0,128,128" width="128" xmlns="http://www.w3.org/2000/svg" xmlns:ev="http://www.w3.org/2001/xml-events" xmlns:xlink="http://www.w3.org/1999/xlink"><defs /><polyline fill="none" points="33.9592,97.9592 43.9728,98.8299 104.4898,90.5578 114.068,86.6395 116.2449,83.1565 118.8571,72.7075 119.2925,56.5986 117.9864,43.5374 113.6327,31.3469 110.1497,26.1224 100.1361,18.2857 89.6871,13.4966 74.449,9.5782 50.9388,8.7075 38.3129,11.7551 28.2993,21.7687 14.8027,43.9728 8.7075,65.3061 8.7075,74.449 10.0136,80.5442 13.4966,85.3333 18.7211,89.6871 36.5714,97.9592" stroke="#00007f" stroke-width="2" /><polyline fill="none" points="27.8639,93.1701 35.2653,88.8163 41.3605,82.7211 49.1973,62.6939 50.9388,55.7279 50.068,45.2789 45.2789,35.2653 34.8299,21.7687 30.0408,18.2857" stroke="#7cff79" stroke-width="2" /><polyline fill="none" points="101.4422,20.0272 97.0884,26.9932 95.3469,45.7143 100.5714,66.1769 104.4898,76.6259 107.9728,81.8503 112.3265,84.898" stroke="#7f0000" stroke-width="2" /></svg>