<?xml version="1.0" encoding="utf-8" ?>
<svg baseProfile="tiny" height="128" version="1.2" viewBox="0,0,128,128" width="128" xmlns="http://www.w3.org/2000/svg" xmlns:ev="http://www.w3.org/2001/xml-events" xmlns:xlink="http://www.w3.org/1999/xlink"><defs /><polyline fill="none" points="53.8034,14.7525 42.0881,14.7525 38.6169,16.4881 28.2034,25.1661 15.1864,40.7864 9.5458,52.9356 8.678,58.1424 8.678,75.9322 11.7153,82.4407 26.4678,94.5898 43.8237,102.8339 70.7254,109.3424 97.6271,109.3424 101.9661,107.1729 108.9085,98.9288 116.7186,82.0068 119.322,66.8203 118.0203,52.9356 109.7763,37.7492 88.5153,16.922 76.3661,8.678 59.878,8.678 57.2746,12.1492 56.4068,17.3559" stroke="#00007f" stroke-width="2" /><polyline fill="none" points="47.2949,16.4881 49.8983,21.261 53.3695,34.278 55.1051,48.1627 54.6712,66.8203 44.2576,92.8542 34.278,100.2305" stroke="#00d4ff" stroke-width="2" /><polyline fill="none" points="93.2881,25.6 87.6475,32.9763 83.3085,50.7661 81.139,61.1797 81.5729,87.2136 84.6102,98.061 89.3831,106.739 99.7966,111.5119" stroke="#ffe500" stroke-width="2" /><polyline fill="none" points="66.3864,45.9932 72.461,47.2949 76.8,51.2" stroke="#7f0000" stroke-width="2" /></svg>