<?xml version="1.0" encoding="utf-8" ?>
<svg baseProfile="tiny" height="128" version="1.2" viewBox="0,0,128,128" width="128" xmlns="http://www.w3.org/2000/svg" xmlns:ev="http://www.w3.org/2001/xml-events" xmlns:xlink="http://www.w3.org/1999/xlink"><defs /><polyline fill="none" points="84.898,19.1565 83.1565,15.6735 78.3673,11.3197 70.5306,8.7075 59.6463,8.7075 33.9592,19.1565 20.0272,29.6054 12.1905,41.7959 9.1429,51.3741 8.7075,61.3878 12.6259,81.8503 16.1088,89.2517 22.6395,97.5238 37.8776,110.585 52.2449,116.2449 67.483,119.2925 84.0272,118.4218 102.3129,111.0204 108.8435,105.3605 114.9388,89.6871 115.8095,78.8027 113.6327,60.9524 107.102,39.1837 101.4422,24.381 94.9116,14.8027 87.5102,11.7551 78.3673,11.7551" stroke="#00007f" stroke-width="2" /><polyline fill="none" points="24.381,21.3333 33.0884,26.9932 36.5714,31.3469 38.7483,39.619 38.7483,50.5034 29.6054,75.7551 17.415,90.5578" stroke="#7cff79" stroke-width="2" /><polyline fill="none" points="84.898,13.932 76.1905,37.4422 74.449,57.4694 74.8844,67.9184 78.8027,82.7211 84.898,96.2177 91.8639,105.3605 100.1361,110.585" stroke="#7f0000" stroke-width="2" /></svg>