<?xml version="1.0" encoding="utf-8" ?>
<svg baseProfile="tiny" height="128" version="1.2" viewBox="0,0,128,128" width="128" xmlns="http://www.w3.org/2000/svg" xmlns:ev="http://www.w3.org/2001/xml-events" xmlns:xlink="http://www.w3.org/1999/xlink"><defs /><polyline fill="none" points="22.1288,34.278 27.3356,24.7322 33.8441,18.2237 44.2576,11.7153 53.3695,9.1119 64.2169,8.678 76.3661,10.8475 91.9864,18.6576 102.4,28.2034 108.0407,36.0136 113.6814,46.4271 118.0203,59.4441 119.322,72.0271 118.8881,81.139 115.4169,91.5525 110.6441,98.061 102.8339,103.2678 92.8542,105.4373 81.5729,105.4373 68.122,103.2678 48.5966,98.061 36.8814,92.4203 27.7695,86.7797 19.5254,78.1017 13.0169,67.6881 9.5458,56.4068 8.678,44.2576 11.2814,34.278 15.6203,26.0339 19.9593,22.1288 32.1085,16.4881 41.2203,15.1864" stroke="#00007f" stroke-width="2" /><polyline fill="none" points="84.1763,23.4305 78.5356,30.3729 72.0271,44.6915 69.4237,58.1424 68.9898,69.4237 73.3288,80.7051 85.478,95.4576" stroke="#0028ff" stroke-width="2" /><polyline fill="none" points="45.5593,13.0169 45.5593,23.4305 52.0678,53.8034 51.6339,65.5186 48.5966,75.4983 43.8237,85.9119 37.3153,92.4203 28.2034,98.9288" stroke="#00d4ff" stroke-width="2" /><polyline fill="none" points="55.539,28.6373 39.0508,36.4475 30.8068,42.522" stroke="#7cff79" stroke-width="2" /><polyline fill="none" points="61.1797,48.5966 39.0508,61.6136" stroke="#ffe500" stroke-width="2" /><polyline fill="none" points="55.1051,79.8373 39.9186,78.9695 32.9763,80.2712" stroke="#ff4600" stroke-width="2" /><polyline fill="none" points="78.5356,41.2203 63.7831,45.5593 52.5017,50.7661" stroke="#7f0000" stroke-width="2" /></svg>