<?xml version="1.0" encoding="utf-8" ?>
<svg baseProfile="tiny" height="128" version="1.2" viewBox="0,0,128,128" width="128" xmlns="http://www.w3.org/2000/svg" xmlns:ev="http://www.w3.org/2001/xml-events" xmlns:xlink="http://www.w3.org/1999/xlink"><defs /><polyline fill="none" points="62.9153,9.9797 46.861,8.678 40.7864,10.4136 20.3932,24.2983 13.0169,37.7492 8.678,60.7458 8.678,72.8949 10.4136,78.1017 17.7898,88.0814 25.6,94.5898 37.3153,98.061 62.9153,101.9661 75.4983,101.9661 93.722,96.7593 101.9661,91.9864 114.9831,79.8373 119.322,65.5186 119.322,51.2 118.0203,46.861 113.6814,38.1831 107.6068,31.6746 97.1932,24.2983 84.6102,17.7898 65.9525,10.4136 59.4441,9.1119" stroke="#00007f" stroke-width="2" /><polyline fill="none" points="29.0712,15.6203 32.9763,30.8068 36.4475,55.539 36.0136,78.5356 31.6746,93.722" stroke="#7f0000" stroke-width="2" /></svg>