<?xml version="1.0" encoding="utf-8" ?>
<svg baseProfile="tiny" height="128" version="1.2" viewBox="0,0,128,128" width="128" xmlns="http://www.w3.org/2000/svg" xmlns:ev="http://www.w3.org/2001/xml-events" xmlns:xlink="http://www.w3.org/1999/xlink"><defs /><polyline fill="none" points="29.0712,19.5254 37.3153,11.2814 43.8237,9.1119 60.7458,8.678 69.4237,12.1492 77.2339,19.5254 80.7051,25.1661 88.9492,40.7864 98.4949,63.3492 101.5322,74.6305 102.4,84.6102 100.2305,89.3831 91.9864,99.7966 79.4034,109.3424 59.4441,117.5864 42.522,118.0203 37.7492,115.4169 32.5424,111.9458 27.7695,105.0034 13.8847,74.6305 9.9797,61.6136 8.678,51.2 8.678,46.4271 11.2814,36.8814 16.922,28.2034 23.8644,20.8271 31.6746,16.0542 45.5593,11.2814" stroke="#00007f" stroke-width="2" /><polyline fill="none" points="42.9559,9.5458 52.0678,22.9966 56.4068,36.0136 61.6136,73.3288 60.3119,98.4949 54.2373,118.4542 52.5017,119.322" stroke="#00d4ff" stroke-width="2" /><polyline fill="none" points="12.1492,75.0644 34.7119,76.3661 49.8983,73.3288 82.8746,64.6508 91.1186,59.878 96.3254,53.8034" stroke="#ffe500" stroke-width="2" /><polyline fill="none" points="13.4508,29.939 17.3559,29.939 43.3898,39.9186 59.4441,49.8983 69.8576,59.0102 83.3085,73.7627 91.1186,85.0441 98.9288,107.1729" stroke="#7f0000" stroke-width="2" /></svg>