<?xml version="1.0" encoding="utf-8" ?>
<svg baseProfile="tiny" height="128" version="1.2" viewBox="0,0,128,128" width="128" xmlns="http://www.w3.org/2000/svg" xmlns:ev="http://www.w3.org/2001/xml-events" xmlns:xlink="http://www.w3.org/1999/xlink"><defs /><polyline fill="none" points="55.1051,16.0542 50.3322,11.2814 45.5593,9.1119 35.5797,8.678 29.5051,12.5831 22.5627,19.9593 16.922,29.5051 11.2814,44.2576 8.678,60.3119 9.1119,72.0271 10.8475,77.6678 15.1864,83.3085 35.5797,91.9864 45.5593,93.2881 62.4814,93.2881 71.5932,88.9492 76.8,81.5729 79.8373,69.8576 84.1763,35.5797 84.6102,22.1288 81.5729,17.7898 74.6305,14.3186 60.7458,11.7153" stroke="#00007f" stroke-width="2" /><polyline fill="none" points="61.1797,13.4508 57.2746,32.9763 54.6712,56.4068 55.1051,68.9898 58.5763,79.8373 62.9153,85.478 71.5932,90.6847 75.4983,91.1186" stroke="#7cff79" stroke-width="2" /><polyline fill="none" points="21.261,12.1492 29.5051,33.8441 32.1085,55.539 32.1085,102.8339 29.0712,119.322" stroke="#7f0000" stroke-width="2" /></svg>