<?xml version="1.0" encoding="utf-8" ?>
<svg baseProfile="tiny" height="128" version="1.2" viewBox="0,0,128,128" width="128" xmlns="http://www.w3.org/2000/svg" xmlns:ev="http://www.w3.org/2001/xml-events" xmlns:xlink="http://www.w3.org/1999/xlink"><defs /><polyline fill="none" points="55.9729,57.2746 76.3661,57.2746 75.9322,55.539 69.4237,49.0305 60.7458,44.6915 56.4068,45.5593 48.5966,52.9356 49.4644,53.3695 62.0475,42.9559 78.5356,24.7322 96.7593,8.678 109.3424,8.678 111.5119,15.1864 110.6441,29.5051 105.0034,52.9356 108.0407,48.1627 112.8136,45.5593 117.5864,44.2576 119.322,45.5593 115.4169,55.1051 98.9288,76.8 93.2881,79.4034 78.5356,78.1017 72.0271,59.0102 66.8203,28.6373 62.0475,19.0915 49.8983,12.1492 27.7695,17.7898 8.678,30.3729 8.678,43.8237" stroke="#00007f" stroke-width="2" /></svg>