<?xml version="1.0" encoding="utf-8" ?>
<svg baseProfile="tiny" height="128" version="1.2" viewBox="0,0,128,128" width="128" xmlns="http://www.w3.org/2000/svg" xmlns:ev="http://www.w3.org/2001/xml-events" xmlns:xlink="http://www.w3.org/1999/xlink"><defs /><polyline fill="none" points="71.1593,8.678 58.1424,8.678 36.4475,13.0169 28.6373,17.3559 20.3932,24.7322 14.3186,32.5424 8.678,46.861 8.678,68.9898 9.5458,73.3288 12.5831,80.2712 23.4305,95.4576 38.1831,105.0034 45.5593,107.6068 67.6881,111.5119 87.6475,111.5119 95.4576,108.4746 102.4,103.7017 110.2102,91.9864 115.4169,76.8 115.4169,61.1797 112.3797,50.3322 105.8712,36.0136 96.7593,24.7322 76.8,12.5831 67.2542,13.0169" stroke="#00007f" stroke-width="2" /><polyline fill="none" points="62.9153,39.0508 55.1051,43.8237 49.4644,52.9356 47.2949,59.0102 47.2949,65.5186 49.0305,70.7254 52.0678,72.8949 65.9525,74.1966 69.4237,72.0271 71.5932,68.122 75.0644,55.539 75.0644,47.2949 73.3288,44.2576 62.4814,38.1831" stroke="#0028ff" stroke-width="2" /><polyline fill="none" points="68.122,40.7864 74.6305,33.4102 80.2712,20.3932 85.0441,13.8847" stroke="#00d4ff" stroke-width="2" /><polyline fill="none" points="50.3322,55.539 40.7864,42.522 22.1288,32.9763 15.1864,30.8068" stroke="#7cff79" stroke-width="2" /><polyline fill="none" points="50.7661,71.1593 47.7288,72.461 33.4102,88.0814 23.8644,95.4576" stroke="#ffe500" stroke-width="2" /><polyline fill="none" points="65.0847,77.6678 65.5186,95.8915 72.0271,119.322" stroke="#ff4600" stroke-width="2" /><polyline fill="none" points="74.6305,65.9525 79.8373,65.0847 118.8881,65.5186" stroke="#7f0000" stroke-width="2" /></svg>