<?xml version="1.0" encoding="utf-8" ?>
<svg baseProfile="tiny" height="128" version="1.2" viewBox="0,0,128,128" width="128" xmlns="http://www.w3.org/2000/svg" xmlns:ev="http://www.w3.org/2001/xml-events" xmlns:xlink="http://www.w3.org/1999/xlink"><defs /><polyline fill="none" points="70.2915,15.1864 59.4441,11.2814 48.1627,9.1119 35.5797,10.4136 27.7695,13.4508 22.1288,17.3559 16.922,24.2983 10.8475,39.4847 8.678,58.5763 9.9797,68.9898 16.0542,85.478 32.9763,103.2678 63.3492,118.4542 71.1593,119.322 79.4034,118.0203 93.722,108.9085 104.1356,98.061 111.5119,82.8746 111.5119,42.9559 108.4746,29.0712 101.9661,21.6949 95.8915,18.2237 67.2542,11.2814" stroke="#00007f" stroke-width="2" /><polyline fill="none" points="18.6576,22.9966 29.5051,25.1661 44.2576,35.1458 51.6339,44.2576 59.0102,59.878 61.6136,68.9898 62.4814,79.8373 60.7458,90.6847 53.8034,112.3797" stroke="#7cff79" stroke-width="2" /><polyline fill="none" points="56.4068,8.678 58.5763,16.4881 63.3492,26.4678 80.7051,52.0678 90.6847,59.878 112.3797,67.2542" stroke="#7f0000" stroke-width="2" /></svg>