<?xml version="1.0" encoding="utf-8" ?>
<svg baseProfile="tiny" height="128" version="1.2" viewBox="0,0,128,128" width="128" xmlns="http://www.w3.org/2000/svg" xmlns:ev="http://www.w3.org/2001/xml-events" xmlns:xlink="http://www.w3.org/1999/xlink"><defs /><polyline fill="none" points="65.0847,16.4881 55.9729,13.8847 41.2203,13.8847 35.5797,15.1864 26.4678,21.261 16.0542,36.0136 8.678,59.0102 8.678,86.7797 18.2237,99.7966 26.4678,105.4373 41.6542,108.0407 60.3119,108.4746 80.7051,101.5322 88.5153,96.3254 102.8339,82.4407 110.6441,69.4237 114.9831,55.1051 117.1525,43.8237 116.7186,30.3729 107.6068,23.8644 92.4203,19.0915 75.0644,11.2814 61.6136,8.678" stroke="#00007f" stroke-width="2" /><polyline fill="none" points="91.1186,15.1864 87.6475,16.922 78.1017,68.5559 65.0847,95.8915" stroke="#0000ff" stroke-width="2" /><polyline fill="none" points="36.4475,13.8847 34.7119,17.7898 28.2034,59.4441 25.6,100.2305 25.1661,116.2847 26.9017,119.322" stroke="#0080ff" stroke-width="2" /><polyline fill="none" points="69.4237,21.6949 95.0237,25.6" stroke="#15ffe1" stroke-width="2" /><polyline fill="none" points="67.6881,42.522 72.0271,45.1254 87.6475,45.9932" stroke="#7cff79" stroke-width="2" /><polyline fill="none" points="77.2339,46.861 97.6271,52.9356" stroke="#e4ff12" stroke-width="2" /><polyline fill="none" points="68.5559,64.2169 79.4034,67.6881 86.7797,68.5559" stroke="#ff9400" stroke-width="2" /><polyline fill="none" points="67.6881,72.461 73.3288,77.6678 86.7797,80.7051" stroke="#ff1d00" stroke-width="2" /><polyline fill="none" points="65.0847,91.1186 67.2542,95.8915 74.6305,98.9288" stroke="#7f0000" stroke-width="2" /></svg>