<?xml version="1.0" encoding="utf-8" ?>
<svg baseProfile="tiny" height="128" version="1.2" viewBox="0,0,128,128" width="128" xmlns="http://www.w3.org/2000/svg" xmlns:ev="http://www.w3.org/2001/xml-events" xmlns:xlink="http://www.w3.org/1999/xlink"><defs /><polyline fill="none" points="81.5729,12.5831 50.7661,17.7898 41.2203,25.1661 31.2407,42.522 26.9017,60.7458 27.7695,75.4983 34.7119,94.1559 40.3525,100.6644 45.1254,104.1356 58.1424,103.7017 88.0814,91.9864 108.9085,82.0068 115.8508,73.3288 119.322,53.8034 119.322,45.9932 117.5864,40.7864 108.0407,30.8068 90.2508,16.922 81.139,11.2814 72.0271,8.678" stroke="#00007f" stroke-width="2" /><polyline fill="none" points="72.0271,8.678 61.1797,34.7119 46.861,61.1797 36.4475,71.5932 8.678,92.8542 8.678,91.1186" stroke="#7cff79" stroke-width="2" /><polyline fill="none" points="68.9898,16.0542 72.461,25.6 96.3254,52.0678 116.2847,78.9695" stroke="#7f0000" stroke-width="2" /></svg>