<?xml version="1.0" encoding="utf-8" ?>
<svg baseProfile="tiny" height="128" version="1.2" viewBox="0,0,128,128" width="128" xmlns="http://www.w3.org/2000/svg" xmlns:ev="http://www.w3.org/2001/xml-events" xmlns:xlink="http://www.w3.org/1999/xlink"><defs /><polyline fill="none" points="60.0816,9.5782 50.9388,10.0136 39.1837,13.0612 23.0748,18.7211 16.9796,22.2041 13.0612,25.6871 9.1429,33.0884 8.7075,39.1837 10.0136,42.6667 18.2857,48.3265 43.102,58.3401 74.0136,66.1769 97.9592,67.9184 111.8912,61.8231 116.6803,57.4694 119.2925,52.2449 119.2925,42.2313 112.3265,32.2177 100.5714,22.2041 84.0272,13.4966 65.7415,8.7075 50.9388,8.7075 41.7959,11.3197" stroke="#00007f" stroke-width="2" /><polyline fill="none" points="38.7483,11.3197 44.8435,14.8027 47.0204,21.3333 47.0204,48.7619 43.102,60.517" stroke="#7cff79" stroke-width="2" /><polyline fill="none" points="97.9592,72.7075 92.2993,64.0 89.2517,49.1973 89.2517,38.3129 93.6054,31.7823 105.7959,27.8639" stroke="#7f0000" stroke-width="2" /></svg>