<?xml version="1.0" encoding="utf-8" ?>
<svg baseProfile="tiny" height="128" version="1.2" viewBox="0,0,128,128" width="128" xmlns="http://www.w3.org/2000/svg" xmlns:ev="http://www.w3.org/2001/xml-events" xmlns:xlink="http://www.w3.org/1999/xlink"><defs /><polyline fill="none" points="37.3153,11.2814 26.9017,8.678 20.3932,13.8847 17.3559,17.3559 13.0169,27.7695 11.2814,38.1831 8.678,62.0475 9.9797,80.7051 12.5831,91.1186 16.0542,98.4949 25.6,108.0407 35.5797,111.9458 42.9559,112.3797 56.8407,110.6441 69.8576,103.2678 75.4983,96.3254 79.4034,88.5153 82.0068,81.139 84.1763,63.3492 81.139,46.4271 74.1966,36.8814 60.7458,24.7322" stroke="#00007f" stroke-width="2" /><polyline fill="none" points="23.8644,22.9966 22.9966,29.5051 32.5424,68.5559 35.1458,85.0441 34.7119,101.5322 31.2407,116.2847 29.939,119.322 26.9017,114.9831 26.9017,106.3051" stroke="#7cff79" stroke-width="2" /><polyline fill="none" points="76.8,28.6373 66.8203,58.1424 64.2169,72.8949 64.2169,82.8746 67.2542,95.4576 71.5932,101.5322 76.3661,106.3051 84.1763,110.6441" stroke="#7f0000" stroke-width="2" /></svg>