<?xml version="1.0" encoding="utf-8" ?>
<svg baseProfile="tiny" height="128" version="1.2" viewBox="0,0,128,128" width="128" xmlns="http://www.w3.org/2000/svg" xmlns:ev="http://www.w3.org/2001/xml-events" xmlns:xlink="http://www.w3.org/1999/xlink"><defs /><polyline fill="none" points="16.4881,24.2983 17.7898,21.261 37.3153,9.9797 45.1254,8.678 75.0644,19.0915 100.6644,24.7322 110.2102,30.3729 114.1153,35.1458 118.4542,46.4271 119.322,59.0102 118.4542,69.4237 111.078,94.5898 95.4576,104.1356 91.9864,108.9085 78.1017,114.9831 68.122,114.5492 37.7492,101.5322 32.9763,100.6644 28.2034,97.6271 22.1288,89.8169 17.7898,78.9695 8.678,41.6542 9.1119,26.0339 11.7153,24.2983 20.8271,23.8644" stroke="#00007f" stroke-width="2" /><polyline fill="none" points="54.2373,11.7153 54.2373,44.2576 53.3695,47.2949 30.3729,84.6102 16.922,94.5898" stroke="#7cff79" stroke-width="2" /><polyline fill="none" points="94.5898,23.8644 96.7593,46.4271 104.1356,82.8746 106.3051,90.6847 111.9458,93.722" stroke="#7f0000" stroke-width="2" /></svg>