<?xml version="1.0" encoding="utf-8" ?>
<svg baseProfile="tiny" height="128" version="1.2" viewBox="0,0,128,128" width="128" xmlns="http://www.w3.org/2000/svg" xmlns:ev="http://www.w3.org/2001/xml-events" xmlns:xlink="http://www.w3.org/1999/xlink"><defs /><polyline fill="none" points="10.449,41.7959 9.1429,41.3605 8.7075,43.5374 10.8844,46.1497 12.1905,43.5374 26.5578,38.3129 37.0068,32.2177 41.3605,27.4286 41.7959,22.6395 40.0544,21.7687 36.5714,22.6395 30.4762,32.6531 11.3197,41.7959" stroke="#00007f" stroke-width="2" /><polyline fill="none" points="45.7143,25.6871 45.7143,23.0748 47.4558,21.3333 52.2449,20.898 59.2109,25.2517 60.0816,29.1701 57.4694,34.8299 53.1156,37.0068 49.1973,37.0068 45.2789,32.2177 45.7143,23.9456" stroke="#0010ff" stroke-width="2" /><polyline fill="none" points="99.7007,24.381 88.8163,26.5578 87.5102,30.9116 88.8163,34.3946 92.2993,36.1361 97.9592,36.1361 107.5374,35.7007 108.8435,34.3946" stroke="#00a4ff" stroke-width="2" /><polyline fill="none" points="99.2653,23.9456 97.9592,12.6259 100.1361,10.0136 111.0204,8.7075 115.8095,13.932 119.2925,21.3333 119.2925,30.9116 114.9388,35.7007 108.4082,37.0068" stroke="#3fffb7" stroke-width="2" /><polyline fill="none" points="99.2653,36.1361 98.3946,43.5374 102.3129,47.0204 108.8435,47.8912 111.8912,46.1497 115.3741,41.7959 115.8095,34.8299" stroke="#b7ff3f" stroke-width="2" /><polyline fill="none" points="102.3129,40.0544 102.3129,40.0544" stroke="#ffb900" stroke-width="2" /><polyline fill="none" points="104.0544,39.1837 104.9252,37.8776" stroke="#ff3000" stroke-width="2" /><polyline fill="none" points="36.5714,49.1973 38.7483,53.9864 40.0544,51.8095 51.3741,49.6327 64.8707,43.9728" stroke="#7f0000" stroke-width="2" /></svg>