<?xml version="1.0" encoding="utf-8" ?>
<svg baseProfile="tiny" height="128" version="1.2" viewBox="0,0,128,128" width="128" xmlns="http://www.w3.org/2000/svg" xmlns:ev="http://www.w3.org/2001/xml-events" xmlns:xlink="http://www.w3.org/1999/xlink"><defs /><polyline fill="none" points="73.7627,16.922 56.4068,13.4508 44.6915,14.3186 27.3356,20.3932 15.6203,30.8068 8.678,48.1627 9.9797,71.5932 14.7525,83.3085 19.5254,89.3831 30.8068,98.4949 42.522,105.4373 59.878,108.9085 71.5932,108.9085 100.6644,93.722 105.4373,88.0814 111.078,84.1763 117.1525,72.461 119.322,66.8203 119.322,55.1051 118.0203,49.4644 114.5492,43.8237 108.9085,39.9186 103.7017,34.278 98.4949,30.8068 92.4203,29.5051 90.2508,23.8644 78.5356,16.922 70.2915,14.3186" stroke="#00007f" stroke-width="2" /><polyline fill="none" points="49.4644,8.678 48.1627,39.0508 44.6915,44.6915 37.7492,68.122 23.8644,77.2339" stroke="#00d4ff" stroke-width="2" /><polyline fill="none" points="95.8915,26.0339 95.8915,31.6746 91.5525,37.7492 90.2508,43.3898 88.0814,67.2542 88.9492,72.461 92.4203,78.5356 107.6068,90.2508" stroke="#ffe500" stroke-width="2" /><polyline fill="none" points="114.5492,63.3492 102.8339,58.5763 85.9119,54.2373 52.9356,50.7661 27.3356,49.4644 13.4508,47.2949" stroke="#7f0000" stroke-width="2" /></svg>