<?xml version="1.0" encoding="utf-8" ?>
<svg baseProfile="tiny" height="128" version="1.2" viewBox="0,0,128,128" width="128" xmlns="http://www.w3.org/2000/svg" xmlns:ev="http://www.w3.org/2001/xml-events" xmlns:xlink="http://www.w3.org/1999/xlink"><defs /><polyline fill="none" points="24.2983,25.1661 13.8847,42.9559 8.678,59.878 8.678,66.3864 12.5831,76.3661 22.9966,93.2881 27.7695,98.061 45.5593,111.078 62.4814,116.7186 80.2712,119.322 98.4949,118.4542 106.739,114.5492 113.6814,104.5695 115.4169,95.8915 115.4169,64.2169 105.4373,36.4475 96.3254,23.4305 92.4203,19.9593 77.6678,11.7153 69.4237,9.1119 57.7085,8.678 42.9559,13.4508 32.1085,20.3932 19.5254,37.3153" stroke="#00007f" stroke-width="2" /><polyline fill="none" points="20.8271,30.3729 26.9017,33.4102 32.9763,39.9186 41.2203,52.5017 43.8237,62.0475 41.6542,78.1017 37.3153,91.9864 32.9763,100.2305" stroke="#7cff79" stroke-width="2" /><polyline fill="none" points="98.9288,28.6373 89.8169,62.0475 89.8169,67.2542 94.5898,88.9492 99.3627,100.6644 103.7017,107.1729 109.3424,110.6441" stroke="#7f0000" stroke-width="2" /></svg>