<?xml version="1.0" encoding="utf-8" ?>
<svg baseProfile="tiny" height="128" version="1.2" viewBox="0,0,128,128" width="128" xmlns="http://www.w3.org/2000/svg" xmlns:ev="http://www.w3.org/2001/xml-events" xmlns:xlink="http://www.w3.org/1999/xlink"><defs /><polyline fill="none" points="88.9492,13.8847 65.9525,8.678 56.4068,8.678 45.5593,12.5831 27.7695,25.1661 13.0169,44.2576 8.678,60.3119 9.1119,76.8 11.2814,84.6102 17.3559,96.3254 22.1288,101.5322 36.4475,108.0407 44.6915,109.7763 62.4814,108.9085 82.0068,103.2678 99.7966,94.1559 106.739,88.0814 116.2847,75.0644 118.8881,68.122 119.322,53.8034 114.9831,38.6169 111.5119,31.2407 107.6068,25.1661 96.7593,15.6203 83.3085,10.8475 74.6305,10.8475" stroke="#00007f" stroke-width="2" /><polyline fill="none" points="45.1254,11.7153 54.2373,36.8814 55.1051,60.7458 49.8983,79.8373 45.9932,88.0814 37.3153,98.9288 33.8441,100.2305" stroke="#7cff79" stroke-width="2" /><polyline fill="none" points="80.7051,11.7153 72.8949,39.9186 73.3288,56.4068 82.0068,80.7051 86.7797,86.7797 92.4203,91.1186" stroke="#7f0000" stroke-width="2" /></svg>