<?xml version="1.0" encoding="utf-8" ?>
<svg baseProfile="tiny" height="128" version="1.2" viewBox="0,0,128,128" width="128" xmlns="http://www.w3.org/2000/svg" xmlns:ev="http://www.w3.org/2001/xml-events" xmlns:xlink="http://www.w3.org/1999/xlink"><defs /><polyline fill="none" points="38.6169,21.261 36.0136,20.3932 32.5424,21.6949 26.4678,28.6373 18.6576,41.6542 12.5831,55.1051 10.4136,65.0847 10.8475,71.5932 13.4508,79.4034 24.2983,87.6475 35.1458,91.1186 45.9932,92.8542 54.2373,89.8169 63.7831,84.1763 85.9119,49.0305 90.6847,38.6169 92.8542,30.3729 92.8542,21.6949 82.8746,13.0169 74.6305,9.5458 64.6508,8.678 52.5017,11.2814 41.2203,17.7898 39.0508,19.9593 40.3525,19.9593" stroke="#00007f" stroke-width="2" /><polyline fill="none" points="29.5051,36.4475 38.1831,51.6339 42.522,66.8203 39.9186,75.4983 32.9763,85.0441" stroke="#00d4ff" stroke-width="2" /><polyline fill="none" points="65.9525,22.1288 58.1424,41.6542 56.4068,50.3322 56.4068,57.7085 58.5763,66.3864 63.3492,73.3288 74.1966,84.6102 75.9322,85.9119 75.4983,84.1763" stroke="#ffe500" stroke-width="2" /><polyline fill="none" points="12.1492,117.1525 8.678,119.322" stroke="#7f0000" stroke-width="2" /></svg>