<?xml version="1.0" encoding="utf-8" ?>
<svg baseProfile="tiny" height="128" version="1.2" viewBox="0,0,128,128" width="128" xmlns="http://www.w3.org/2000/svg" xmlns:ev="http://www.w3.org/2001/xml-events" xmlns:xlink="http://www.w3.org/1999/xlink"><defs /><polyline fill="none" points="95.8915,14.7525 88.5153,10.8475 70.2915,8.678 53.8034,8.678 45.5593,11.2814 26.9017,25.1661 11.7153,44.6915 9.5458,52.9356 8.678,65.9525 11.7153,75.4983 14.3186,79.4034 26.9017,90.6847 40.3525,96.7593 50.3322,98.4949 78.1017,99.3627 100.6644,97.1932 109.3424,93.2881 113.2475,89.8169 117.1525,85.0441 119.322,73.7627 117.1525,45.5593 108.4746,31.2407 97.6271,16.0542 88.5153,11.2814" stroke="#00007f" stroke-width="2" /><polyline fill="none" points="99.7966,11.7153 91.1186,11.2814 75.9322,15.1864 70.2915,19.0915 64.2169,29.5051 64.2169,35.5797 62.4814,37.3153 63.3492,41.2203 70.7254,51.6339 82.4407,60.3119 84.1763,64.6508 84.1763,68.5559 73.7627,76.3661 67.2542,86.3458 68.5559,90.2508 74.6305,96.7593" stroke="#7cff79" stroke-width="2" /><polyline fill="none" points="47.2949,11.7153 43.3898,11.2814 36.0136,15.6203 29.5051,27.7695 29.5051,31.6746 31.6746,35.5797 43.8237,49.8983 45.1254,59.0102 44.6915,63.3492 40.7864,68.9898 29.5051,76.8 26.9017,80.7051 33.8441,93.2881" stroke="#7f0000" stroke-width="2" /></svg>