<?xml version="1.0" encoding="utf-8" ?>
<svg baseProfile="tiny" height="128" version="1.2" viewBox="0,0,128,128" width="128" xmlns="http://www.w3.org/2000/svg" xmlns:ev="http://www.w3.org/2001/xml-events" xmlns:xlink="http://www.w3.org/1999/xlink"><defs /><polyline fill="none" points="87.6475,17.3559 78.5356,12.1492 64.2169,8.678 57.2746,8.678 39.4847,12.5831 30.8068,19.9593 24.7322,27.7695 8.678,59.0102 8.678,78.1017 10.4136,83.7424 17.3559,93.722 34.278,107.1729 53.8034,117.1525 62.0475,119.322 74.6305,117.1525 84.6102,111.9458 92.4203,102.8339 98.4949,92.4203 101.0983,86.3458 104.5695,72.8949 102.8339,55.9729 98.9288,43.3898 94.1559,16.0542 92.8542,13.0169" stroke="#00007f" stroke-width="2" /><polyline fill="none" points="34.278,26.4678 37.7492,33.8441 39.4847,61.6136 36.8814,72.0271 29.0712,87.6475 24.7322,108.0407 21.6949,115.8508" stroke="#7cff79" stroke-width="2" /><polyline fill="none" points="88.5153,15.1864 70.2915,53.3695 69.8576,62.4814 76.3661,76.8 83.7424,88.5153 90.6847,96.7593 95.8915,100.2305" stroke="#7f0000" stroke-width="2" /></svg>