<?xml version="1.0" encoding="utf-8" ?>
<svg baseProfile="tiny" height="128" version="1.2" viewBox="0,0,128,128" width="128" xmlns="http://www.w3.org/2000/svg" xmlns:ev="http://www.w3.org/2001/xml-events" xmlns:xlink="http://www.w3.org/1999/xlink"><defs /><polyline fill="none" points="79.6735,10.449 54.4218,13.4966 34.3946,18.2857 21.7687,25.6871 11.7551,42.6667 9.5782,51.8095 8.7075,61.8231 11.3197,70.966 25.6871,83.1565 63.1293,94.9116 88.381,97.5238 96.6531,95.3469 105.3605,90.5578 111.0204,83.1565 116.2449,74.0136 119.2925,63.1293 119.2925,47.0204 117.1156,40.4898 95.7823,9.5782" stroke="#00007f" stroke-width="2" /><polyline fill="none" points="101.8776,12.1905 79.6735,9.1429 47.0204,8.7075" stroke="#004cff" stroke-width="2" /><polyline fill="none" points="20.4626,8.7075 20.4626,8.7075" stroke="#29ffcd" stroke-width="2" /><polyline fill="none" points="45.2789,27.4286 47.4558,37.0068 50.068,65.3061" stroke="#cdff29" stroke-width="2" /><polyline fill="none" points="106.2313,22.2041 99.7007,33.0884 92.2993,61.3878 92.2993,72.7075 94.9116,80.5442 99.2653,84.0272" stroke="#ff6700" stroke-width="2" /><polyline fill="none" points="50.9388,26.5578 50.068,57.034 47.4558,80.1088" stroke="#7f0000" stroke-width="2" /></svg>