<?xml version="1.0" encoding="utf-8" ?>
<svg baseProfile="tiny" height="128" version="1.2" viewBox="0,0,128,128" width="128" xmlns="http://www.w3.org/2000/svg" xmlns:ev="http://www.w3.org/2001/xml-events" xmlns:xlink="http://www.w3.org/1999/xlink"><defs /><polyline fill="none" points="38.3129,14.8027 30.0408,18.7211 21.7687,26.1224 11.3197,42.6667 8.7075,55.2925 8.7075,69.2245 14.8027,82.2857 25.2517,94.0408 32.2177,98.8299 47.8912,104.9252 66.6122,105.7959 76.6259,104.0544 94.0408,95.7823 101.8776,90.5578 107.9728,84.0272 116.6803,69.2245 118.4218,62.2585 119.2925,47.4558 113.1973,33.5238 103.1837,21.3333 88.8163,14.3673 62.6939,12.1905 39.619,13.4966" stroke="#00007f" stroke-width="2" /><polyline fill="none" points="43.5374,16.9796 56.1633,33.5238 60.517,42.6667 63.1293,53.551 64.0,67.9184 62.6939,74.8844 59.2109,87.0748 53.9864,98.8299" stroke="#0028ff" stroke-width="2" /><polyline fill="none" points="107.9728,8.7075 105.3605,9.5782 101.4422,13.4966 95.3469,24.8163 90.9932,37.4422 88.8163,50.5034 88.8163,83.1565 92.2993,91.4286 95.7823,94.0408 99.2653,94.4762" stroke="#00d4ff" stroke-width="2" /><polyline fill="none" points="38.3129,45.7143 38.3129,43.5374 64.4354,33.9592" stroke="#7cff79" stroke-width="2" /><polyline fill="none" points="42.2313,67.483 63.1293,50.5034 71.4014,46.1497" stroke="#ffe500" stroke-width="2" /><polyline fill="none" points="55.2925,84.4626 67.483,74.449 78.3673,69.6599" stroke="#ff4600" stroke-width="2" /><polyline fill="none" points="87.9456,37.0068 105.7959,38.3129" stroke="#7f0000" stroke-width="2" /></svg>