<?xml version="1.0" encoding="utf-8" ?>
<svg baseProfile="tiny" height="128" version="1.2" viewBox="0,0,128,128" width="128" xmlns="http://www.w3.org/2000/svg" xmlns:ev="http://www.w3.org/2001/xml-events" xmlns:xlink="http://www.w3.org/1999/xlink"><defs /><polyline fill="none" points="45.1254,10.4136 29.939,16.922 19.9593,24.7322 14.3186,31.6746 10.8475,40.7864 9.1119,50.3322 8.678,61.6136 10.4136,78.5356 13.8847,91.1186 20.3932,102.4 31.6746,113.6814 46.861,119.322 60.3119,118.4542 67.2542,114.9831 75.9322,108.0407 82.8746,98.4949 88.0814,87.2136 91.5525,76.3661 93.722,55.539 90.2508,38.1831 85.9119,27.7695 82.8746,23.8644 69.8576,11.7153 62.0475,9.1119 51.2,8.678 36.4475,15.6203" stroke="#00007f" stroke-width="2" /><polyline fill="none" points="10.8475,39.4847 13.4508,38.1831 19.9593,39.9186 26.4678,45.5593 31.2407,53.3695 34.278,65.5186 35.1458,72.8949 33.4102,89.8169 28.6373,108.9085 22.9966,118.4542" stroke="#7cff79" stroke-width="2" /><polyline fill="none" points="80.7051,20.8271 71.1593,34.278 68.9898,42.9559 68.9898,50.7661 73.3288,74.6305 82.4407,87.6475" stroke="#7f0000" stroke-width="2" /></svg>