<?xml version="1.0" encoding="utf-8" ?>
<svg baseProfile="tiny" height="128" version="1.2" viewBox="0,0,128,128" width="128" xmlns="http://www.w3.org/2000/svg" xmlns:ev="http://www.w3.org/2001/xml-events" xmlns:xlink="http://www.w3.org/1999/xlink"><defs /><polyline fill="none" points="79.8373,18.6576 79.4034,11.7153 72.461,9.1119 58.5763,8.678 47.7288,11.2814 36.8814,15.6203 26.9017,22.5627 18.2237,31.6746 11.7153,42.9559 8.678,55.1051 8.678,68.5559 15.1864,81.5729 27.7695,91.9864 43.8237,99.7966 60.3119,105.8712 75.0644,108.4746 87.6475,108.4746 98.4949,104.1356 107.1729,95.0237 114.1153,83.3085 118.0203,70.2915 119.322,56.8407 118.0203,44.6915 111.9458,32.9763 103.2678,24.7322 93.2881,18.2237 82.4407,14.7525 69.4237,13.8847" stroke="#00007f" stroke-width="2" /><polyline fill="none" points="15.6203,26.0339 16.922,23.8644 22.1288,24.2983 29.0712,27.7695 43.3898,41.2203 48.1627,50.7661 49.4644,64.2169 46.4271,72.0271 39.9186,81.5729 33.4102,85.9119" stroke="#0010ff" stroke-width="2" /><polyline fill="none" points="75.4983,13.4508 68.9898,59.878 68.9898,68.122 71.5932,75.0644 75.4983,79.8373 80.7051,82.8746 88.5153,84.6102 98.061,84.1763 114.5492,75.9322" stroke="#00a4ff" stroke-width="2" /><polyline fill="none" points="65.9525,78.9695 91.1186,69.4237" stroke="#3fffb7" stroke-width="2" /><polyline fill="none" points="64.2169,67.6881 78.9695,52.9356" stroke="#b7ff3f" stroke-width="2" /><polyline fill="none" points="62.9153,39.9186 72.0271,36.8814" stroke="#ffb900" stroke-width="2" /><polyline fill="none" points="73.7627,16.922 82.8746,22.9966" stroke="#ff3000" stroke-width="2" /><polyline fill="none" points="40.3525,76.8 52.5017,84.1763" stroke="#7f0000" stroke-width="2" /></svg>