<?xml version="1.0" encoding="utf-8" ?>
<svg baseProfile="tiny" height="128" version="1.2" viewBox="0,0,128,128" width="128" xmlns="http://www.w3.org/2000/svg" xmlns:ev="http://www.w3.org/2001/xml-events" xmlns:xlink="http://www.w3.org/1999/xlink"><defs /><polyline fill="none" points="101.5322,23.8644 90.2508,17.3559 74.1966,14.3186 48.1627,13.4508 34.7119,16.0542 26.4678,20.3932 22.1288,24.7322 13.4508,37.7492 9.5458,48.5966 8.678,55.1051 10.4136,68.122 20.8271,85.0441 27.7695,92.4203 41.2203,101.9661 55.539,106.739 72.461,108.0407 87.2136,101.0983 95.4576,94.1559 106.3051,79.4034 112.3797,65.9525 115.4169,51.6339 114.9831,39.4847 110.6441,27.3356 103.7017,14.3186 98.9288,9.5458 95.8915,8.678" stroke="#00007f" stroke-width="2" /><polyline fill="none" points="77.6678,16.922 60.7458,39.4847 30.3729,71.1593" stroke="#0080ff" stroke-width="2" /><polyline fill="none" points="30.3729,71.1593 19.0915,78.1017" stroke="#7cff79" stroke-width="2" /><polyline fill="none" points="94.5898,17.7898 62.4814,65.0847 19.5254,119.322 19.0915,117.5864" stroke="#ff9400" stroke-width="2" /><polyline fill="none" points="9.5458,39.0508 21.261,52.9356 35.1458,65.0847" stroke="#7f0000" stroke-width="2" /></svg>