<?xml version="1.0" encoding="utf-8" ?>
<svg baseProfile="tiny" height="128" version="1.2" viewBox="0,0,128,128" width="128" xmlns="http://www.w3.org/2000/svg" xmlns:ev="http://www.w3.org/2001/xml-events" xmlns:xlink="http://www.w3.org/1999/xlink"><defs /><polyline fill="none" points="85.478,12.1492 74.6305,10.4136 61.6136,11.2814 55.539,12.5831 42.0881,19.5254 22.5627,39.4847 9.1119,63.3492 8.678,75.0644 13.0169,87.6475 18.2237,94.5898 36.4475,107.1729 53.3695,112.8136 73.7627,113.2475 82.4407,109.7763 92.8542,102.8339 100.2305,94.5898 107.1729,82.4407 113.2475,61.6136 114.1153,44.6915 112.8136,36.0136 110.2102,28.6373 103.7017,21.6949 94.5898,15.1864 81.139,9.9797 71.1593,8.678" stroke="#00007f" stroke-width="2" /><polyline fill="none" points="37.3153,20.3932 49.4644,41.2203 51.6339,61.6136 47.2949,81.5729 37.3153,103.7017" stroke="#7cff79" stroke-width="2" /><polyline fill="none" points="95.4576,13.0169 83.7424,26.9017 72.461,45.9932 69.8576,59.878 69.4237,80.7051 71.5932,90.6847 82.0068,109.3424 89.8169,114.9831 98.9288,119.322" stroke="#7f0000" stroke-width="2" /></svg>