<?xml version="1.0" encoding="utf-8" ?>
<svg baseProfile="tiny" height="128" version="1.2" viewBox="0,0,128,128" width="128" xmlns="http://www.w3.org/2000/svg" xmlns:ev="http://www.w3.org/2001/xml-events" xmlns:xlink="http://www.w3.org/1999/xlink"><defs /><polyline fill="none" points="27.3356,27.3356 24.2983,28.6373 17.3559,39.9186 9.5458,61.6136 8.678,93.722 12.5831,114.1153 15.6203,117.1525 21.261,119.322 38.6169,118.8881 49.0305,112.8136 59.4441,103.2678 63.7831,96.3254 69.8576,78.5356 72.0271,56.4068 70.2915,48.1627 65.0847,38.6169 49.0305,18.6576 39.4847,8.678" stroke="#00007f" stroke-width="2" /><polyline fill="none" points="40.3525,22.1288 40.3525,61.1797 49.8983,107.1729" stroke="#004cff" stroke-width="2" /><polyline fill="none" points="33.8441,47.7288 45.9932,47.7288" stroke="#29ffcd" stroke-width="2" /><polyline fill="none" points="42.522,61.6136 51.2,61.6136" stroke="#cdff29" stroke-width="2" /><polyline fill="none" points="45.1254,70.7254 49.0305,70.7254" stroke="#ff6700" stroke-width="2" /><polyline fill="none" points="32.1085,86.3458 44.6915,86.3458" stroke="#7f0000" stroke-width="2" /></svg>