<?xml version="1.0" encoding="utf-8" ?>
<svg baseProfile="tiny" height="128" version="1.2" viewBox="0,0,128,128" width="128" xmlns="http://www.w3.org/2000/svg" xmlns:ev="http://www.w3.org/2001/xml-events" xmlns:xlink="http://www.w3.org/1999/xlink"><defs /><polyline fill="none" points="65.7415,8.7075 33.9592,14.3673 23.5102,18.2857 17.415,21.7687 10.0136,34.3946 8.7075,59.2109 11.3197,70.966 17.8503,88.8163 26.5578,99.2653 33.5238,104.4898 40.0544,106.6667 52.2449,107.5374 84.0272,103.1837 99.2653,95.7823 109.7143,84.898 115.3741,74.0136 117.9864,65.7415 119.2925,56.1633 117.9864,51.3741 105.7959,28.2993 98.3946,19.5918 93.6054,16.5442 81.8503,11.7551 70.5306,8.7075 53.1156,13.0612" stroke="#00007f" stroke-width="2" /><polyline fill="none" points="90.1224,16.5442 82.2857,26.9932 81.415,31.3469 82.2857,51.8095 89.6871,79.2381 95.3469,89.6871 101.4422,96.6531" stroke="#7cff79" stroke-width="2" /><polyline fill="none" points="37.8776,17.8503 57.4694,38.7483 66.1769,56.1633 68.7891,69.2245 69.2245,81.415 66.1769,94.4762 61.3878,103.619" stroke="#7f0000" stroke-width="2" /></svg>