<?xml version="1.0" encoding="utf-8" ?>
<svg baseProfile="tiny" height="128" version="1.2" viewBox="0,0,128,128" width="128" xmlns="http://www.w3.org/2000/svg" xmlns:ev="http://www.w3.org/2001/xml-events" xmlns:xlink="http://www.w3.org/1999/xlink"><defs /><polyline fill="none" points="42.0881,17.3559 29.0712,22.5627 17.7898,34.7119 11.2814,44.2576 9.1119,59.0102 8.678,71.5932 9.9797,81.5729 16.0542,99.7966 25.6,111.9458 41.6542,118.4542 54.2373,119.322 65.9525,118.0203 76.3661,114.9831 86.3458,110.6441 93.2881,105.4373 103.2678,95.0237 111.5119,79.8373 114.1153,68.9898 113.6814,63.7831 110.2102,50.3322 104.1356,38.6169 93.722,26.0339 85.9119,19.0915 75.4983,13.4508 63.3492,9.5458 52.0678,8.678 38.6169,17.7898 33.8441,22.5627" stroke="#00007f" stroke-width="2" /><polyline fill="none" points="33.4102,22.1288 39.4847,26.0339 45.1254,39.4847 47.2949,51.2 46.861,68.122 42.9559,88.5153 40.3525,96.7593 36.4475,102.4 25.1661,110.2102" stroke="#7cff79" stroke-width="2" /><polyline fill="none" points="84.1763,19.5254 74.6305,64.2169 75.4983,72.0271 77.6678,78.1017 86.7797,91.1186 96.7593,96.7593" stroke="#7f0000" stroke-width="2" /></svg>