<?xml version="1.0" encoding="utf-8" ?>
<svg baseProfile="tiny" height="128" version="1.2" viewBox="0,0,128,128" width="128" xmlns="http://www.w3.org/2000/svg" xmlns:ev="http://www.w3.org/2001/xml-events" xmlns:xlink="http://www.w3.org/1999/xlink"><defs /><polyline fill="none" points="25.6871,26.1224 16.5442,31.7823 11.7551,37.4422 8.7075,44.8435 10.449,60.517 15.2381,74.0136 22.2041,85.3333 27.4286,90.5578 37.4422,97.0884 54.8571,101.8776 73.1429,101.4422 90.5578,97.9592 96.6531,95.3469 105.7959,87.9456 114.5034,75.3197 118.4218,64.8707 119.2925,45.2789 117.9864,40.9252 111.4558,32.6531 102.3129,25.2517 90.5578,19.5918 78.8027,16.1088 60.517,13.932 48.3265,14.3673 30.4762,18.7211 16.1088,29.6054" stroke="#00007f" stroke-width="2" /><polyline fill="none" points="17.8503,77.932 22.6395,77.4966 30.9116,70.966 40.4898,54.8571 43.5374,47.4558 47.4558,30.9116 45.2789,8.7075" stroke="#0000ff" stroke-width="2" /><polyline fill="none" points="101.4422,30.9116 92.7347,35.7007 84.0272,44.8435 74.449,63.1293 72.2721,72.2721 72.2721,80.1088 75.7551,90.9932 80.9796,98.8299" stroke="#0080ff" stroke-width="2" /><polyline fill="none" points="19.5918,58.7755 26.9932,75.7551 33.0884,85.7687" stroke="#15ffe1" stroke-width="2" /><polyline fill="none" points="37.0068,41.7959 47.4558,54.8571" stroke="#7cff79" stroke-width="2" /><polyline fill="none" points="40.9252,29.1701 51.3741,28.2993" stroke="#e4ff12" stroke-width="2" /><polyline fill="none" points="70.0952,90.5578 77.0612,90.5578 85.7687,87.9456" stroke="#ff9400" stroke-width="2" /><polyline fill="none" points="74.8844,57.034 84.4626,59.2109" stroke="#ff1d00" stroke-width="2" /><polyline fill="none" points="87.9456,29.6054 98.3946,40.0544" stroke="#7f0000" stroke-width="2" /></svg>