<?xml version="1.0" encoding="utf-8" ?>
<svg baseProfile="tiny" height="128" version="1.2" viewBox="0,0,128,128" width="128" xmlns="http://www.w3.org/2000/svg" xmlns:ev="http://www.w3.org/2001/xml-events" xmlns:xlink="http://www.w3.org/1999/xlink"><defs /><polyline fill="none" points="93.722,21.261 84.1763,15.1864 73.3288,12.1492 65.0847,12.1492 44.6915,8.678 31.6746,8.678 27.3356,11.2814 22.5627,16.4881 9.5458,42.0881 8.678,51.2 13.0169,61.6136 29.5051,80.7051 41.6542,86.3458 52.5017,94.5898 59.0102,97.1932 76.3661,99.3627 91.9864,96.3254 114.5492,88.5153 117.5864,84.6102 119.322,68.122 116.2847,59.0102 113.6814,45.1254 105.8712,27.7695 101.9661,23.8644 97.1932,23.4305" stroke="#00007f" stroke-width="2" /><polyline fill="none" points="97.1932,23.4305 88.0814,41.6542 83.7424,53.8034 81.139,84.6102 83.7424,96.3254" stroke="#7cff79" stroke-width="2" /><polyline fill="none" points="36.8814,11.2814 36.8814,16.4881 30.8068,43.3898 21.6949,70.7254" stroke="#7f0000" stroke-width="2" /></svg>