<?xml version="1.0" encoding="utf-8" ?>
<svg baseProfile="tiny" height="128" version="1.2" viewBox="0,0,128,128" width="128" xmlns="http://www.w3.org/2000/svg" xmlns:ev="http://www.w3.org/2001/xml-events" xmlns:xlink="http://www.w3.org/1999/xlink"><defs /><polyline fill="none" points="65.5186,15.6203 55.539,19.0915 25.6,43.3898 19.9593,49.4644 12.1492,63.3492 8.678,74.1966 8.678,85.478 12.1492,90.6847 23.8644,93.722 65.0847,94.5898 81.5729,90.6847 84.6102,83.7424 84.6102,19.0915 83.3085,15.1864 78.5356,12.1492 61.1797,8.678 53.8034,8.678" stroke="#00007f" stroke-width="2" /><polyline fill="none" points="33.4102,24.7322 34.278,34.278 39.4847,46.861 42.522,61.6136 42.522,82.8746 36.8814,105.8712 30.8068,119.322" stroke="#7cff79" stroke-width="2" /><polyline fill="none" points="70.7254,27.3356 68.9898,33.4102 68.9898,53.8034 75.0644,67.2542 78.5356,79.4034 88.5153,91.1186" stroke="#7f0000" stroke-width="2" /></svg>