<?xml version="1.0" encoding="utf-8" ?>
<svg baseProfile="tiny" height="128" version="1.2" viewBox="0,0,128,128" width="128" xmlns="http://www.w3.org/2000/svg" xmlns:ev="http://www.w3.org/2001/xml-events" xmlns:xlink="http://www.w3.org/1999/xlink"><defs /><polyline fill="none" points="35.5797,15.1864 28.6373,16.4881 21.261,21.261 12.1492,31.2407 9.5458,36.4475 8.678,45.5593 14.7525,57.2746 20.3932,63.3492 30.3729,70.7254 39.9186,74.1966 58.1424,75.4983 102.8339,75.0644 107.1729,73.3288 114.1153,65.9525 118.8881,55.1051 119.322,45.5593 116.2847,36.4475 111.078,29.0712 102.4,21.261 95.8915,17.7898 86.7797,15.6203 40.3525,8.678 28.6373,9.1119 26.9017,17.7898" stroke="#00007f" stroke-width="2" /><polyline fill="none" points="31.2407,12.5831 32.1085,18.6576 37.7492,28.6373 46.4271,37.3153 53.8034,40.7864 62.4814,39.9186 75.4983,36.4475 83.3085,26.9017 87.2136,19.0915" stroke="#7cff79" stroke-width="2" /><polyline fill="none" points="32.1085,71.5932 36.8814,65.0847 39.9186,62.9153 55.1051,59.0102 68.5559,58.5763 73.3288,59.878 78.5356,65.0847 82.0068,73.3288" stroke="#7f0000" stroke-width="2" /></svg>