<?xml version="1.0" encoding="utf-8" ?>
<svg baseProfile="tiny" height="128" version="1.2" viewBox="0,0,128,128" width="128" xmlns="http://www.w3.org/2000/svg" xmlns:ev="http://www.w3.org/2001/xml-events" xmlns:xlink="http://www.w3.org/1999/xlink"><defs /><polyline fill="none" points="43.5374,56.5986 32.6531,59.6463 19.1565,66.1769 11.7551,74.0136 8.7075,83.5918 9.1429,88.381 11.7551,90.5578 16.5442,91.4286 23.9456,90.5578 40.0544,81.415 43.5374,77.932 49.1973,67.483 43.102,60.517 30.4762,60.0816 28.2993,61.3878" stroke="#00007f" stroke-width="2" /><polyline fill="none" points="13.4966,68.7891 17.8503,70.966 20.4626,74.8844 20.0272,81.415 16.5442,85.3333" stroke="#00d4ff" stroke-width="2" /><polyline fill="none" points="33.0884,67.483 30.4762,68.3537 28.7347,73.1429 28.7347,79.6735 31.7823,82.2857" stroke="#ffe500" stroke-width="2" /><polyline fill="none" points="98.3946,88.381 43.102,33.0884 39.619,28.2993 40.4898,25.2517 47.0204,19.1565 54.4218,8.7075 59.2109,9.1429 79.6735,19.1565 89.6871,30.0408 96.6531,47.0204 106.2313,77.4966 106.6667,86.6395 116.6803,85.3333 119.2925,87.0748 118.8571,96.2177 114.9388,99.7007 111.0204,101.0068 101.0068,101.0068 98.3946,98.8299 94.4762,93.6054 94.4762,90.1224 95.7823,88.381 100.1361,87.9456" stroke="#7f0000" stroke-width="2" /></svg>