<?xml version="1.0" encoding="utf-8" ?>
<svg baseProfile="tiny" height="128" version="1.2" viewBox="0,0,128,128" width="128" xmlns="http://www.w3.org/2000/svg" xmlns:ev="http://www.w3.org/2001/xml-events" xmlns:xlink="http://www.w3.org/1999/xlink"><defs /><polyline fill="none" points="54.8571,20.0272 33.9592,20.898 24.381,25.6871 18.7211,30.4762 13.4966,39.1837 10.8844,49.1973 8.7075,63.5646 9.5782,74.0136 15.2381,86.6395 36.5714,102.3129 65.3061,116.2449 77.4966,119.2925 83.5918,116.6803 96.2177,107.102 104.4898,97.0884 106.2313,91.4286 105.7959,76.6259 101.4422,59.6463 92.7347,42.2313 72.2721,16.5442 66.1769,11.3197 60.517,9.1429 51.3741,8.7075 46.585,10.449 39.619,17.8503" stroke="#00007f" stroke-width="2" /><polyline fill="none" points="37.0068,22.6395 34.3946,62.2585 26.5578,82.7211 20.898,86.2041" stroke="#7cff79" stroke-width="2" /><polyline fill="none" points="81.415,28.7347 73.1429,45.2789 72.2721,63.5646 73.1429,74.0136 76.6259,86.6395 84.898,97.9592" stroke="#7f0000" stroke-width="2" /></svg>