<?xml version="1.0" encoding="utf-8" ?>
<svg baseProfile="tiny" height="128" version="1.2" viewBox="0,0,128,128" width="128" xmlns="http://www.w3.org/2000/svg" xmlns:ev="http://www.w3.org/2001/xml-events" xmlns:xlink="http://www.w3.org/1999/xlink"><defs /><polyline fill="none" points="85.9119,8.678 56.4068,9.5458 42.9559,13.8847 34.7119,17.7898 30.3729,21.6949 21.261,33.8441 13.0169,53.8034 11.2814,61.6136 12.1492,83.3085 18.6576,95.0237 24.7322,99.3627 42.0881,104.1356 73.7627,104.1356 84.1763,101.5322 99.3627,94.1559 106.739,81.5729 112.3797,67.6881 112.8136,46.4271 111.9458,41.2203 107.6068,32.1085 103.2678,27.7695 94.5898,22.9966 75.0644,18.6576 51.6339,19.5254 39.0508,25.6" stroke="#00007f" stroke-width="2" /><polyline fill="none" points="49.0305,21.261 52.0678,29.5051 52.0678,45.9932 49.8983,50.7661 45.5593,54.6712 32.9763,59.878 16.922,65.0847 8.678,65.5186" stroke="#0000ff" stroke-width="2" /><polyline fill="none" points="86.7797,24.7322 79.8373,42.522 79.8373,50.7661 84.1763,59.0102 88.0814,63.3492 96.7593,67.2542 105.4373,68.9898 119.322,68.122" stroke="#0080ff" stroke-width="2" /><polyline fill="none" points="80.7051,32.1085 89.8169,33.8441" stroke="#15ffe1" stroke-width="2" /><polyline fill="none" points="78.9695,49.8983 87.2136,49.8983 90.6847,48.1627" stroke="#7cff79" stroke-width="2" /><polyline fill="none" points="90.6847,60.7458 95.8915,59.4441 107.6068,52.0678" stroke="#e4ff12" stroke-width="2" /><polyline fill="none" points="48.1627,35.5797 64.2169,34.7119" stroke="#ff9400" stroke-width="2" /><polyline fill="none" points="47.2949,45.5593 51.6339,46.4271 58.1424,52.9356" stroke="#ff1d00" stroke-width="2" /><polyline fill="none" points="36.4475,47.2949 41.2203,55.539 48.1627,61.6136" stroke="#7f0000" stroke-width="2" /></svg>