<?xml version="1.0" encoding="utf-8" ?>
<svg baseProfile="tiny" height="128" version="1.2" viewBox="0,0,128,128" width="128" xmlns="http://www.w3.org/2000/svg" xmlns:ev="http://www.w3.org/2001/xml-events" xmlns:xlink="http://www.w3.org/1999/xlink"><defs /><polyline fill="none" points="15.1864,103.7017 13.0169,99.3627 10.8475,98.4949 9.1119,100.2305 8.678,108.9085 10.8475,111.9458 12.5831,113.2475 18.2237,113.2475 19.0915,110.2102 18.2237,106.739" stroke="#00007f" stroke-width="2" /><polyline fill="none" points="15.6203,101.5322 23.8644,73.7627 43.8237,25.1661 51.6339,21.261 77.6678,43.3898 45.9932,65.9525 26.4678,88.5153 16.922,105.4373" stroke="#0080ff" stroke-width="2" /><polyline fill="none" points="43.3898,26.9017 75.0644,8.678 77.2339,8.678 86.3458,15.1864 90.2508,20.8271 91.9864,33.4102 73.3288,52.0678 61.1797,59.4441 45.9932,66.3864 36.8814,74.6305 23.8644,87.2136 15.6203,101.5322" stroke="#7cff79" stroke-width="2" /><polyline fill="none" points="112.3797,49.0305 110.2102,77.6678 117.5864,63.3492 119.322,58.1424 118.0203,52.9356 101.9661,49.0305" stroke="#ff9400" stroke-width="2" /><polyline fill="none" points="114.5492,48.1627 91.1186,54.6712 89.3831,56.4068 87.6475,60.7458 87.6475,66.3864 91.1186,72.461 95.0237,75.4983 99.3627,77.2339 105.8712,77.6678 110.2102,45.5593 107.1729,45.1254" stroke="#7f0000" stroke-width="2" /></svg>