<?xml version="1.0" encoding="utf-8" ?>
<svg baseProfile="tiny" height="128" version="1.2" viewBox="0,0,128,128" width="128" xmlns="http://www.w3.org/2000/svg" xmlns:ev="http://www.w3.org/2001/xml-events" xmlns:xlink="http://www.w3.org/1999/xlink"><defs /><polyline fill="none" points="50.3322,13.8847 42.9559,16.4881 32.5424,23.8644 22.9966,32.5424 18.2237,40.7864 9.9797,63.3492 8.678,92.8542 13.0169,101.5322 24.2983,110.2102 37.3153,115.8508 52.5017,117.1525 62.4814,113.6814 75.4983,103.7017 80.7051,92.4203 88.0814,65.9525 89.3831,46.861 94.1559,31.2407 93.722,19.5254 87.6475,12.1492 82.0068,8.678 75.4983,8.678 73.7627,10.4136" stroke="#00007f" stroke-width="2" /><polyline fill="none" points="44.6915,13.8847 42.9559,39.4847 38.1831,58.5763 17.3559,102.8339 13.0169,107.1729" stroke="#7cff79" stroke-width="2" /><polyline fill="none" points="85.0441,11.2814 76.3661,21.261 64.6508,39.0508 55.1051,51.2 46.4271,70.7254 43.8237,84.6102 43.8237,108.9085 46.861,117.1525 49.0305,119.322" stroke="#7f0000" stroke-width="2" /></svg>