<?xml version="1.0" encoding="utf-8" ?>
<svg baseProfile="tiny" height="128" version="1.2" viewBox="0,0,128,128" width="128" xmlns="http://www.w3.org/2000/svg" xmlns:ev="http://www.w3.org/2001/xml-events" xmlns:xlink="http://www.w3.org/1999/xlink"><defs /><polyline fill="none" points="79.4034,12.1492 58.5763,8.678 42.0881,8.678 38.1831,9.9797 31.2407,14.3186 23.4305,22.1288 16.922,31.6746 14.7525,37.7492 8.678,63.3492 8.678,70.7254 11.2814,84.1763 16.922,95.8915 20.8271,100.2305 30.3729,106.3051 46.861,111.9458 80.2712,113.2475 90.2508,111.9458 104.1356,105.4373 113.6814,95.0237 117.1525,84.6102 119.322,71.1593 118.0203,55.9729 110.6441,38.6169 101.5322,28.2034 91.1186,19.9593 80.7051,14.3186 67.6881,10.4136" stroke="#00007f" stroke-width="2" /><polyline fill="none" points="25.1661,20.3932 40.7864,35.1458 48.5966,48.5966 49.8983,55.539 43.8237,75.4983 36.8814,86.3458 27.7695,92.8542 19.9593,95.8915" stroke="#004cff" stroke-width="2" /><polyline fill="none" points="28.2034,44.2576 45.5593,35.1458" stroke="#29ffcd" stroke-width="2" /><polyline fill="none" points="42.522,53.3695 45.9932,50.3322 56.8407,46.4271 61.6136,45.5593 62.9153,47.2949" stroke="#cdff29" stroke-width="2" /><polyline fill="none" points="38.6169,68.122 55.9729,76.3661" stroke="#ff6700" stroke-width="2" /><polyline fill="none" points="32.1085,74.6305 34.7119,79.4034 45.1254,88.5153" stroke="#7f0000" stroke-width="2" /></svg>