<?xml version="1.0" encoding="utf-8" ?>
<svg baseProfile="tiny" height="128" version="1.2" viewBox="0,0,128,128" width="128" xmlns="http://www.w3.org/2000/svg" xmlns:ev="http://www.w3.org/2001/xml-events" xmlns:xlink="http://www.w3.org/1999/xlink"><defs /><polyline fill="none" points="26.9017,72.0271 19.5254,73.7627 10.4136,84.6102 8.678,91.1186 9.1119,99.7966 17.7898,110.2102 42.0881,111.5119 47.7288,109.3424 49.8983,106.3051 50.3322,93.722 49.0305,88.0814 43.8237,80.7051 38.1831,77.6678 31.6746,71.1593 24.7322,70.2915 20.3932,72.0271" stroke="#00007f" stroke-width="2" /><polyline fill="none" points="45.1254,80.2712 42.522,83.3085 40.3525,91.1186 39.4847,101.0983 39.4847,103.7017 44.6915,108.4746" stroke="#00d4ff" stroke-width="2" /><polyline fill="none" points="11.7153,80.7051 18.2237,85.478 21.6949,95.0237 23.8644,104.5695 21.6949,107.1729 16.0542,109.3424 9.1119,115.8508" stroke="#ffe500" stroke-width="2" /><polyline fill="none" points="88.9492,110.2102 89.3831,111.9458 95.4576,112.3797 109.3424,100.6644 114.5492,91.9864 117.5864,79.4034 119.322,66.8203 118.0203,52.9356 108.0407,24.2983 105.4373,8.678" stroke="#7f0000" stroke-width="2" /></svg>