<?xml version="1.0" encoding="utf-8" ?>
<svg baseProfile="tiny" height="128" version="1.2" viewBox="0,0,128,128" width="128" xmlns="http://www.w3.org/2000/svg" xmlns:ev="http://www.w3.org/2001/xml-events" xmlns:xlink="http://www.w3.org/1999/xlink"><defs /><polyline fill="none" points="86.7797,10.4136 78.5356,8.678 47.2949,9.5458 36.4475,13.0169 25.6,19.0915 18.6576,25.6 9.9797,41.2203 8.678,49.4644 9.1119,63.3492 12.1492,68.9898 19.0915,75.0644 40.7864,82.4407 67.6881,88.5153 97.6271,89.8169 117.1525,55.1051 118.8881,49.4644 119.322,37.7492 116.7186,24.7322 112.3797,19.9593 105.0034,16.922 88.5153,15.1864" stroke="#00007f" stroke-width="2" /><polyline fill="none" points="33.8441,17.7898 38.1831,36.8814 38.6169,55.1051 36.0136,62.0475 29.939,70.2915" stroke="#7cff79" stroke-width="2" /><polyline fill="none" points="94.5898,22.1288 89.8169,27.3356 82.4407,45.5593 82.4407,65.0847 83.3085,71.1593 88.5153,83.3085 98.4949,90.6847" stroke="#7f0000" stroke-width="2" /></svg>