<?xml version="1.0" encoding="utf-8" ?>
<svg baseProfile="tiny" height="128" version="1.2" viewBox="0,0,128,128" width="128" xmlns="http://www.w3.org/2000/svg" xmlns:ev="http://www.w3.org/2001/xml-events" xmlns:xlink="http://www.w3.org/1999/xlink"><defs /><polyline fill="none" points="17.3559,72.0271 13.4508,74.1966 8.678,81.139 9.5458,83.3085 11.7153,84.6102 19.0915,84.6102 30.3729,76.8" stroke="#00007f" stroke-width="2" /><polyline fill="none" points="16.0542,72.8949 15.6203,71.5932 22.1288,72.0271 25.6,70.2915 28.2034,66.8203 42.0881,30.3729 49.8983,14.7525 56.8407,9.1119 64.2169,8.678 70.2915,12.5831 72.8949,18.2237 70.2915,27.7695 65.9525,36.8814 55.9729,49.4644 28.6373,77.2339" stroke="#0080ff" stroke-width="2" /><polyline fill="none" points="95.8915,38.6169 88.5153,37.7492 74.6305,47.2949 66.3864,58.5763 64.2169,64.2169 63.3492,73.3288 65.9525,79.8373 69.4237,83.7424 79.4034,88.9492 91.1186,89.3831 102.8339,85.9119 111.078,81.139 117.1525,73.3288 119.322,59.0102 118.4542,48.1627 115.8508,42.9559 109.3424,37.3153 101.0983,33.4102 96.7593,32.9763 90.6847,36.0136 87.6475,39.4847 86.7797,42.522" stroke="#7cff79" stroke-width="2" /><polyline fill="none" points="92.8542,38.1831 92.8542,42.522 86.3458,57.2746 79.4034,85.0441" stroke="#ff9400" stroke-width="2" /><polyline fill="none" points="107.6068,37.7492 107.6068,42.0881 103.7017,53.3695" stroke="#7f0000" stroke-width="2" /></svg>