<?xml version="1.0" encoding="utf-8" ?>
<svg baseProfile="tiny" height="128" version="1.2" viewBox="0,0,128,128" width="128" xmlns="http://www.w3.org/2000/svg" xmlns:ev="http://www.w3.org/2001/xml-events" xmlns:xlink="http://www.w3.org/1999/xlink"><defs /><polyline fill="none" points="52.5017,9.1119 43.3898,8.678 32.9763,13.8847 21.6949,25.6 14.7525,36.8814 9.9797,49.0305 8.678,71.5932 10.8475,80.2712 16.4881,89.3831 31.6746,103.2678 42.522,109.3424 59.4441,114.9831 72.8949,116.7186 83.3085,116.7186 94.5898,110.2102 102.8339,103.2678 112.8136,91.1186 116.2847,80.7051 116.7186,60.3119 114.9831,50.7661 106.739,33.8441 101.0983,26.9017 88.5153,16.4881 78.9695,13.4508 55.9729,13.4508" stroke="#00007f" stroke-width="2" /><polyline fill="none" points="62.9153,14.3186 54.6712,22.5627 54.6712,25.6 57.2746,29.0712 59.0102,35.5797 59.878,43.3898 59.878,82.8746 53.8034,98.4949 51.2,102.4 44.6915,107.1729" stroke="#00d4ff" stroke-width="2" /><polyline fill="none" points="88.9492,18.2237 85.9119,22.5627 82.8746,33.4102 79.8373,53.3695 78.5356,78.9695 80.2712,85.9119 85.0441,92.8542 90.6847,99.7966 95.0237,102.4" stroke="#ffe500" stroke-width="2" /><polyline fill="none" points="14.3186,62.0475 55.9729,66.3864 80.2712,67.2542 100.6644,63.3492 119.322,52.5017" stroke="#7f0000" stroke-width="2" /></svg>