<?xml version="1.0" encoding="utf-8" ?>
<svg baseProfile="tiny" height="128" version="1.2" viewBox="0,0,128,128" width="128" xmlns="http://www.w3.org/2000/svg" xmlns:ev="http://www.w3.org/2001/xml-events" xmlns:xlink="http://www.w3.org/1999/xlink"><defs /><polyline fill="none" points="16.922,30.8068 16.922,28.6373 19.0915,26.4678 53.8034,11.2814 70.2915,8.678 85.9119,9.1119 93.2881,10.8475 113.2475,24.7322 117.1525,33.8441 119.322,42.522 118.0203,62.4814 102.8339,83.7424 97.1932,87.6475 81.5729,89.8169 41.2203,89.8169 32.5424,86.3458 27.3356,82.8746 21.261,75.0644 8.678,49.4644 8.678,42.9559 13.0169,34.278" stroke="#00007f" stroke-width="2" /><polyline fill="none" points="42.0881,18.6576 45.1254,22.5627 47.2949,30.8068 47.7288,66.8203 42.0881,87.2136" stroke="#7cff79" stroke-width="2" /><polyline fill="none" points="92.4203,15.6203 88.0814,18.6576 86.3458,26.4678 85.0441,68.122 87.6475,86.7797" stroke="#7f0000" stroke-width="2" /></svg>