<?xml version="1.0" encoding="utf-8" ?>
<svg baseProfile="tiny" height="128" version="1.2" viewBox="0,0,128,128" width="128" xmlns="http://www.w3.org/2000/svg" xmlns:ev="http://www.w3.org/2001/xml-events" xmlns:xlink="http://www.w3.org/1999/xlink"><defs /><polyline fill="none" points="85.9119,22.1288 85.9119,17.7898 84.1763,14.7525 74.6305,9.9797 53.8034,8.678 41.6542,12.1492 29.5051,19.5254 18.2237,29.939 14.3186,35.1458 9.9797,45.5593 8.678,66.8203 11.7153,83.3085 16.922,95.4576 22.9966,105.0034 28.6373,110.6441 36.8814,114.5492 45.1254,116.7186 65.9525,119.322 73.3288,119.322 77.2339,118.0203 86.3458,111.9458 98.9288,94.5898 102.4,86.7797 105.4373,59.0102 97.1932,36.8814 90.2508,29.0712 86.3458,22.1288" stroke="#00007f" stroke-width="2" /><polyline fill="none" points="41.6542,15.1864 44.2576,25.1661 43.8237,49.0305 36.4475,93.722 32.9763,105.4373 29.939,111.078" stroke="#7f0000" stroke-width="2" /></svg>