<?xml version="1.0" encoding="utf-8" ?>
<svg baseProfile="tiny" height="128" version="1.2" viewBox="0,0,128,128" width="128" xmlns="http://www.w3.org/2000/svg" xmlns:ev="http://www.w3.org/2001/xml-events" xmlns:xlink="http://www.w3.org/1999/xlink"><defs /><polyline fill="none" points="101.0983,10.8475 49.0305,11.7153 38.1831,14.3186 22.1288,32.5424 14.3186,44.2576 11.2814,52.9356 8.678,65.0847 8.678,69.8576 12.1492,75.0644 19.5254,81.139 38.6169,91.9864 63.3492,100.2305 72.0271,100.6644 91.9864,86.3458 101.5322,77.2339 118.4542,53.3695 119.322,40.7864 104.1356,21.6949 99.3627,13.4508 94.5898,8.678" stroke="#00007f" stroke-width="2" /><polyline fill="none" points="46.861,13.4508 49.4644,14.7525 59.0102,29.0712 59.4441,37.7492 55.9729,49.4644 51.2,56.4068 31.6746,66.8203 26.9017,74.6305 26.9017,82.0068 30.8068,88.0814 35.1458,90.6847 41.6542,91.5525 55.539,78.9695" stroke="#00d4ff" stroke-width="2" /><polyline fill="none" points="89.3831,12.1492 85.478,24.2983 84.1763,49.0305 86.3458,53.8034 91.5525,57.7085 98.9288,67.6881 99.7966,76.8 97.1932,80.2712 86.3458,80.2712" stroke="#ffe500" stroke-width="2" /><polyline fill="none" points="98.9288,77.2339 98.9288,79.4034 94.5898,84.6102" stroke="#7f0000" stroke-width="2" /></svg>