<?xml version="1.0" encoding="utf-8" ?>
<svg baseProfile="tiny" height="128" version="1.2" viewBox="0,0,128,128" width="128" xmlns="http://www.w3.org/2000/svg" xmlns:ev="http://www.w3.org/2001/xml-events" xmlns:xlink="http://www.w3.org/1999/xlink"><defs /><polyline fill="none" points="73.3288,15.6203 62.9153,18.2237 40.7864,34.7119 21.6949,59.4441 14.7525,74.6305 10.4136,85.0441 8.678,93.2881 8.678,103.7017 16.4881,109.7763 29.5051,112.3797 54.2373,113.2475 65.9525,108.9085 79.8373,101.0983 101.9661,82.4407 110.6441,72.0271 119.322,50.3322 119.322,41.6542 116.7186,31.2407 105.4373,19.0915 92.4203,12.1492 73.7627,8.678 64.2169,8.678 59.4441,11.2814 59.0102,13.8847" stroke="#00007f" stroke-width="2" /><polyline fill="none" points="39.9186,25.1661 59.4441,40.7864 68.122,50.7661 69.8576,55.9729 69.8576,72.8949 61.6136,79.4034 36.4475,91.5525" stroke="#00d4ff" stroke-width="2" /><polyline fill="none" points="87.2136,25.1661 85.478,29.5051 83.7424,59.0102 83.7424,68.9898 85.478,76.8 89.3831,82.4407 101.5322,88.0814 108.4746,88.0814 116.7186,82.8746" stroke="#ffe500" stroke-width="2" /><polyline fill="none" points="75.9322,21.6949 77.6678,79.8373 81.139,105.4373 84.6102,116.7186" stroke="#7f0000" stroke-width="2" /></svg>