<?xml version="1.0" encoding="utf-8" ?>
<svg baseProfile="tiny" height="128" version="1.2" viewBox="0,0,128,128" width="128" xmlns="http://www.w3.org/2000/svg" xmlns:ev="http://www.w3.org/2001/xml-events" xmlns:xlink="http://www.w3.org/1999/xlink"><defs /><polyline fill="none" points="86.7797,12.1492 71.1593,10.4136 54.6712,10.4136 44.6915,12.5831 34.7119,18.2237 17.3559,33.4102 11.7153,42.0881 8.678,50.7661 9.5458,64.2169 15.6203,69.8576 22.9966,74.1966 33.8441,76.3661 58.1424,76.3661 83.3085,68.9898 104.1356,58.1424 111.5119,50.7661 116.2847,43.8237 118.8881,37.3153 119.322,31.6746 117.5864,25.1661 113.2475,19.9593 98.061,12.1492 90.2508,9.9797 73.7627,8.678 61.6136,9.1119 56.8407,11.2814" stroke="#00007f" stroke-width="2" /><polyline fill="none" points="41.2203,19.9593 44.6915,20.3932 46.861,28.6373 46.4271,45.9932 42.0881,53.8034 30.8068,65.0847 28.2034,70.2915" stroke="#0028ff" stroke-width="2" /><polyline fill="none" points="80.7051,14.7525 77.2339,15.6203 74.1966,18.6576 70.7254,25.6 69.4237,34.7119 69.8576,48.1627 73.7627,56.8407 85.9119,66.8203 96.3254,68.9898 105.4373,68.5559" stroke="#00d4ff" stroke-width="2" /><polyline fill="none" points="32.1085,31.2407 41.2203,30.3729 57.7085,25.1661" stroke="#7cff79" stroke-width="2" /><polyline fill="none" points="25.1661,46.861 37.3153,41.2203 50.3322,38.1831" stroke="#ffe500" stroke-width="2" /><polyline fill="none" points="23.4305,57.2746 49.0305,60.7458" stroke="#ff4600" stroke-width="2" /><polyline fill="none" points="14.7525,72.461 39.4847,72.8949" stroke="#7f0000" stroke-width="2" /></svg>