<?xml version="1.0" encoding="utf-8" ?>
<svg baseProfile="tiny" height="128" version="1.2" viewBox="0,0,128,128" width="128" xmlns="http://www.w3.org/2000/svg" xmlns:ev="http://www.w3.org/2001/xml-events" xmlns:xlink="http://www.w3.org/1999/xlink"><defs /><polyline fill="none" points="45.1254,65.5186 42.522,64.6508 38.1831,66.8203 37.7492,70.7254 41.2203,73.7627 52.5017,78.1017 57.7085,78.1017 62.9153,75.4983 61.1797,67.6881 56.4068,67.2542 70.7254,34.7119 72.8949,26.4678 75.0644,10.8475 70.2915,8.678 59.4441,9.1119 54.2373,12.1492 47.7288,21.261 44.6915,28.2034 42.522,44.2576 45.5593,69.4237" stroke="#00007f" stroke-width="2" /><polyline fill="none" points="97.6271,25.1661 104.1356,23.4305 108.4746,25.1661 112.8136,29.5051 113.2475,35.1458 111.5119,41.2203 107.6068,45.5593 101.9661,45.9932 98.061,42.9559 96.7593,32.9763 97.6271,22.9966 99.3627,18.6576" stroke="#0000f1" stroke-width="2" /><polyline fill="none" points="98.9288,26.9017 103.2678,30.8068 104.5695,36.0136 105.4373,43.3898 104.5695,49.4644" stroke="#004cff" stroke-width="2" /><polyline fill="none" points="114.9831,27.3356 111.9458,35.1458 115.8508,39.0508" stroke="#00b0ff" stroke-width="2" /><polyline fill="none" points="36.4475,54.2373 33.8441,59.4441 16.0542,78.9695 12.5831,84.1763" stroke="#29ffcd" stroke-width="2" /><polyline fill="none" points="46.4271,72.8949 15.1864,96.7593" stroke="#7cff79" stroke-width="2" /><polyline fill="none" points="22.5627,72.0271 35.5797,86.3458" stroke="#cdff29" stroke-width="2" /><polyline fill="none" points="16.4881,79.8373 13.0169,64.6508 8.678,60.3119" stroke="#ffc400" stroke-width="2" /><polyline fill="none" points="15.1864,97.1932 10.8475,102.4" stroke="#ff6700" stroke-width="2" /><polyline fill="none" points="28.6373,68.122 35.1458,52.5017" stroke="#f10700" stroke-width="2" /><polyline fill="none" points="97.6271,28.2034 101.5322,23.8644 105.8712,22.1288 110.6441,22.1288 115.8508,24.7322 119.322,36.8814 118.4542,39.9186 108.9085,49.8983 104.5695,49.8983 97.6271,47.7288 94.1559,41.6542 97.6271,32.1085 116.2847,28.6373" stroke="#7f0000" stroke-width="2" /></svg>