<?xml version="1.0" encoding="utf-8" ?>
<svg baseProfile="tiny" height="128" version="1.2" viewBox="0,0,128,128" width="128" xmlns="http://www.w3.org/2000/svg" xmlns:ev="http://www.w3.org/2001/xml-events" xmlns:xlink="http://www.w3.org/1999/xlink"><defs /><polyline fill="none" points="39.0508,9.9797 36.0136,9.5458 26.0339,18.2237 19.5254,28.6373 9.9797,60.7458 8.678,84.6102 13.0169,88.0814 29.5051,93.722 51.2,96.7593 68.122,96.3254 82.4407,90.6847 98.4949,80.2712 107.1729,72.461 118.4542,56.8407 119.322,27.7695 116.7186,19.0915 110.2102,9.5458 108.0407,8.678 75.0644,8.678 63.3492,12.5831 48.5966,15.1864 39.0508,15.1864 33.4102,12.5831" stroke="#00007f" stroke-width="2" /><polyline fill="none" points="33.4102,12.5831 38.6169,12.5831 41.2203,14.7525 48.1627,32.5424 50.3322,42.522 50.3322,68.9898 43.3898,82.4407 34.278,90.2508" stroke="#7cff79" stroke-width="2" /><polyline fill="none" points="97.1932,10.4136 95.4576,10.8475 89.8169,17.7898 84.6102,29.5051 82.0068,41.6542 82.0068,63.7831 84.6102,70.7254 89.8169,78.1017 98.4949,78.9695" stroke="#7f0000" stroke-width="2" /></svg>