<?xml version="1.0" encoding="utf-8" ?>
<svg baseProfile="tiny" height="128" version="1.2" viewBox="0,0,128,128" width="128" xmlns="http://www.w3.org/2000/svg" xmlns:ev="http://www.w3.org/2001/xml-events" xmlns:xlink="http://www.w3.org/1999/xlink"><defs /><polyline fill="none" points="70.966,9.5782 59.6463,8.7075 50.068,10.8844 42.6667,13.932 26.9932,23.5102 20.4626,31.3469 14.8027,41.3605 9.5782,57.034 8.7075,71.4014 13.932,88.8163 22.6395,100.5714 30.0408,107.102 39.1837,112.3265 54.4218,117.1156 70.5306,117.9864 79.2381,117.1156 87.0748,114.9388 101.0068,107.5374 111.4558,97.5238 115.3741,91.4286 118.8571,81.415 119.2925,67.0476 114.5034,49.1973 107.9728,36.1361 102.3129,29.6054 90.1224,21.7687 62.2585,11.3197" stroke="#00007f" stroke-width="2" /><polyline fill="none" points="79.6735,17.415 74.0136,20.0272 68.3537,26.5578 66.1769,33.0884 65.3061,40.0544 66.6122,46.585 88.381,72.7075 97.0884,90.9932 97.9592,96.6531 96.6531,101.4422 87.9456,115.8095" stroke="#7f0000" stroke-width="2" /></svg>