<?xml version="1.0" encoding="utf-8" ?>
<svg baseProfile="tiny" height="128" version="1.2" viewBox="0,0,128,128" width="128" xmlns="http://www.w3.org/2000/svg" xmlns:ev="http://www.w3.org/2001/xml-events" xmlns:xlink="http://www.w3.org/1999/xlink"><defs /><polyline fill="none" points="68.5559,14.7525 67.6881,12.1492 65.5186,11.2814 50.7661,9.1119 42.522,12.5831 29.0712,21.261 20.3932,32.1085 15.1864,43.8237 12.1492,58.5763 11.7153,84.6102 14.3186,92.8542 19.0915,102.8339 26.0339,109.3424 39.0508,116.7186 45.5593,118.8881 57.7085,119.322 67.2542,119.322 75.4983,115.8508 81.5729,109.3424 86.3458,95.8915 87.6475,85.0441 87.6475,57.7085 84.1763,42.522 80.7051,33.8441 74.6305,23.8644 65.9525,18.2237 52.5017,14.7525" stroke="#00007f" stroke-width="2" /><polyline fill="none" points="41.6542,8.678 43.3898,59.0102 44.6915,62.9153 46.4271,94.1559 48.5966,107.6068" stroke="#0080ff" stroke-width="2" /><polyline fill="none" points="61.6136,9.9797 61.6136,22.1288 66.3864,72.461 76.3661,108.4746" stroke="#7cff79" stroke-width="2" /><polyline fill="none" points="8.678,69.4237 32.9763,62.0475" stroke="#ff9400" stroke-width="2" /><polyline fill="none" points="18.2237,75.9322 45.5593,72.0271" stroke="#7f0000" stroke-width="2" /></svg>