<?xml version="1.0" encoding="utf-8" ?>
<svg baseProfile="tiny" height="128" version="1.2" viewBox="0,0,128,128" width="128" xmlns="http://www.w3.org/2000/svg" xmlns:ev="http://www.w3.org/2001/xml-events" xmlns:xlink="http://www.w3.org/1999/xlink"><defs /><polyline fill="none" points="43.9728,101.8776 31.7823,99.7007 19.1565,91.8639 13.4966,85.7687 11.3197,81.415 8.7075,64.4354 8.7075,43.5374 13.932,28.7347 20.898,20.0272 25.6871,16.5442 38.3129,10.0136 67.483,8.7075 78.3673,11.7551 90.5578,18.2857 102.3129,28.7347 110.1497,38.7483 116.6803,52.6803 117.9864,59.6463 119.2925,80.5442 117.551,87.9456 110.585,99.2653 99.7007,103.1837 72.2721,106.6667 54.4218,106.6667 40.4898,101.4422" stroke="#00007f" stroke-width="2" /><polyline fill="none" points="21.3333,16.5442 33.0884,26.9932 38.3129,38.7483 41.3605,51.3741 43.102,66.6122 43.102,82.7211 40.0544,93.6054 37.0068,99.2653" stroke="#7cff79" stroke-width="2" /><polyline fill="none" points="82.2857,16.9796 79.6735,31.3469 80.1088,60.517 84.898,73.5782 91.4286,84.898 100.5714,94.4762 110.585,99.2653" stroke="#7f0000" stroke-width="2" /></svg>