<?xml version="1.0" encoding="utf-8" ?>
<svg baseProfile="tiny" height="128" version="1.2" viewBox="0,0,128,128" width="128" xmlns="http://www.w3.org/2000/svg" xmlns:ev="http://www.w3.org/2001/xml-events" xmlns:xlink="http://www.w3.org/1999/xlink"><defs /><polyline fill="none" points="96.1092,17.0375 88.6826,10.9215 83.0034,9.1741 75.1399,8.7372 58.1024,12.2321 49.3652,15.2901 33.2014,23.5904 16.1638,39.3174 10.0478,52.8601 9.1741,59.8498 8.7372,66.4027 12.6689,78.6348 16.6007,83.8771 29.2696,91.3038 46.744,96.1092 55.9181,96.5461 74.7031,94.7986 83.8771,92.6143 104.4096,81.256 112.7099,69.4608 119.2628,49.802 119.2628,33.2014 117.5154,28.8328 109.6519,21.4061 104.4096,17.9113 92.6143,15.2901 72.5188,16.1638" stroke="#00007f" stroke-width="2" /><polyline fill="none" points="97.4198,18.785 87.8089,22.2799 80.8191,28.8328 76.0137,38.8805 73.8294,50.6758 72.5188,66.4027 73.8294,82.5666 77.7611,90.8669 81.256,93.9249 86.0614,94.3618 88.2457,93.4881" stroke="#7cff79" stroke-width="2" /><polyline fill="none" points="28.8328,25.7747 38.4437,27.959 41.0648,30.5802 42.8123,34.0751 44.5597,45.8703 42.8123,72.0819 38.8805,80.8191 31.4539,86.9352" stroke="#7f0000" stroke-width="2" /></svg>