<?xml version="1.0" encoding="utf-8" ?>
<svg baseProfile="tiny" height="128" version="1.2" viewBox="0,0,128,128" width="128" xmlns="http://www.w3.org/2000/svg" xmlns:ev="http://www.w3.org/2001/xml-events" xmlns:xlink="http://www.w3.org/1999/xlink"><defs /><polyline fill="none" points="82.8746,20.8271 77.6678,16.922 69.8576,14.3186 50.3322,14.3186 39.0508,19.0915 32.9763,23.8644 22.9966,33.8441 14.7525,45.1254 8.678,65.9525 9.5458,83.7424 14.3186,95.4576 21.261,105.8712 34.7119,114.9831 50.7661,119.322 61.6136,119.322 72.461,116.7186 90.2508,103.7017 99.7966,88.5153 103.2678,70.2915 102.4,49.8983 89.3831,24.2983 78.9695,17.7898 74.6305,16.922" stroke="#00007f" stroke-width="2" /><polyline fill="none" points="26.0339,31.2407 35.5797,41.6542 57.7085,82.0068 69.4237,98.4949 77.6678,106.739 80.2712,112.3797" stroke="#0080ff" stroke-width="2" /><polyline fill="none" points="23.4305,103.2678 39.4847,90.2508 98.9288,28.2034" stroke="#7cff79" stroke-width="2" /><polyline fill="none" points="54.6712,115.8508 63.7831,25.1661 66.8203,8.678" stroke="#ff9400" stroke-width="2" /><polyline fill="none" points="17.3559,60.7458 39.0508,63.3492 107.6068,75.9322" stroke="#7f0000" stroke-width="2" /></svg>