<?xml version="1.0" encoding="utf-8" ?>
<svg baseProfile="tiny" height="128" version="1.2" viewBox="0,0,128,128" width="128" xmlns="http://www.w3.org/2000/svg" xmlns:ev="http://www.w3.org/2001/xml-events" xmlns:xlink="http://www.w3.org/1999/xlink"><defs /><polyline fill="none" points="91.1186,16.4881 83.7424,10.8475 78.5356,9.1119 59.878,8.678 36.0136,19.9593 26.4678,28.6373 18.6576,39.0508 11.2814,54.2373 8.678,68.5559 8.678,77.6678 11.7153,86.3458 16.0542,94.1559 21.6949,98.4949 32.9763,103.2678 56.8407,104.5695 68.9898,101.0983 82.8746,94.5898 97.6271,84.1763 103.2678,78.1017 116.2847,58.5763 119.322,49.4644 119.322,39.9186 111.9458,26.9017 104.1356,19.9593 92.4203,13.4508 74.6305,10.8475" stroke="#00007f" stroke-width="2" /><polyline fill="none" points="39.0508,30.3729 39.0508,56.4068 50.3322,104.1356" stroke="#00d4ff" stroke-width="2" /><polyline fill="none" points="66.3864,10.4136 63.7831,23.8644 62.4814,62.9153 70.2915,107.6068" stroke="#ffe500" stroke-width="2" /><polyline fill="none" points="86.3458,13.8847 86.3458,64.6508 89.3831,72.8949" stroke="#7f0000" stroke-width="2" /></svg>