<?xml version="1.0" encoding="utf-8" ?>
<svg baseProfile="tiny" height="128" version="1.2" viewBox="0,0,128,128" width="128" xmlns="http://www.w3.org/2000/svg" xmlns:ev="http://www.w3.org/2001/xml-events" xmlns:xlink="http://www.w3.org/1999/xlink"><defs /><polyline fill="none" points="60.0816,15.6735 52.2449,13.932 43.102,13.932 36.5714,16.9796 24.8163,26.9932 19.5918,34.3946 11.7551,50.068 8.7075,66.1769 10.0136,84.898 16.5442,101.8776 20.4626,108.4082 26.1224,113.6327 32.2177,117.551 39.1837,119.2925 56.1633,119.2925 65.7415,116.6803 75.3197,111.4558 84.898,104.9252 93.1701,97.0884 98.8299,87.9456 103.1837,77.932 107.102,59.2109 105.7959,39.1837 103.1837,32.2177 96.2177,23.5102 81.8503,15.2381 70.966,11.7551 60.0816,10.8844" stroke="#00007f" stroke-width="2" /><polyline fill="none" points="23.5102,100.1361 23.0748,97.9592 25.6871,90.1224 37.4422,59.2109 41.7959,40.9252 40.9252,29.1701 33.9592,8.7075" stroke="#0010ff" stroke-width="2" /><polyline fill="none" points="32.6531,30.0408 52.6803,29.1701" stroke="#00a4ff" stroke-width="2" /><polyline fill="none" points="30.9116,54.4218 53.551,53.9864" stroke="#3fffb7" stroke-width="2" /><polyline fill="none" points="38.7483,75.7551 53.551,77.932" stroke="#b7ff3f" stroke-width="2" /><polyline fill="none" points="93.6054,10.0136 87.0748,19.1565 77.0612,40.0544 73.1429,58.3401 70.5306,83.1565 70.966,99.2653 74.449,104.9252 79.2381,107.5374 90.1224,107.9728" stroke="#ffb900" stroke-width="2" /><polyline fill="none" points="53.9864,93.6054 73.5782,85.3333" stroke="#ff3000" stroke-width="2" /><polyline fill="none" points="67.0476,63.1293 67.0476,63.1293" stroke="#7f0000" stroke-width="2" /></svg>