<?xml version="1.0" encoding="utf-8" ?>
<svg baseProfile="tiny" height="128" version="1.2" viewBox="0,0,128,128" width="128" xmlns="http://www.w3.org/2000/svg" xmlns:ev="http://www.w3.org/2001/xml-events" xmlns:xlink="http://www.w3.org/1999/xlink"><defs /><polyline fill="none" points="60.7458,10.8475 57.7085,9.1119 41.6542,8.678 32.9763,13.8847 23.4305,22.5627 15.6203,33.8441 10.8475,46.861 8.678,70.7254 11.7153,81.139 18.2237,89.8169 28.2034,97.1932 41.6542,100.2305 57.7085,100.6644 74.6305,96.3254 90.6847,88.5153 102.8339,77.6678 112.3797,64.6508 117.1525,54.2373 119.322,39.0508 116.2847,31.6746 109.3424,24.7322 100.6644,19.0915 90.6847,15.6203 65.5186,12.5831" stroke="#00007f" stroke-width="2" /><polyline fill="none" points="32.9763,10.8475 34.7119,10.8475 40.3525,14.7525 47.7288,22.1288 51.6339,29.939 52.0678,40.3525 50.3322,52.0678 32.5424,94.1559 29.939,97.1932" stroke="#7cff79" stroke-width="2" /><polyline fill="none" points="89.8169,15.1864 87.6475,15.6203 78.5356,36.4475 70.7254,66.8203 71.1593,77.2339 73.3288,81.5729 87.2136,98.4949" stroke="#7f0000" stroke-width="2" /></svg>