<?xml version="1.0" encoding="utf-8" ?>
<svg baseProfile="tiny" height="128" version="1.2" viewBox="0,0,128,128" width="128" xmlns="http://www.w3.org/2000/svg" xmlns:ev="http://www.w3.org/2001/xml-events" xmlns:xlink="http://www.w3.org/1999/xlink"><defs /><polyline fill="none" points="39.9186,13.8847 35.5797,14.7525 22.5627,26.9017 15.6203,35.5797 10.4136,45.5593 8.678,54.6712 8.678,69.8576 12.1492,76.8 23.4305,86.3458 31.6746,91.5525 47.7288,94.1559 74.6305,95.0237 89.8169,92.4203 98.9288,88.0814 106.3051,80.2712 117.5864,58.1424 119.322,39.9186 115.8508,30.3729 112.3797,26.0339 98.9288,15.6203 81.139,8.678 55.1051,8.678 42.522,13.0169 36.4475,16.4881" stroke="#00007f" stroke-width="2" /><polyline fill="none" points="39.9186,13.8847 46.861,43.8237 46.861,62.9153 42.522,76.8 38.1831,81.139" stroke="#7cff79" stroke-width="2" /><polyline fill="none" points="105.4373,19.9593 101.0983,21.6949 93.2881,41.6542 89.8169,59.0102 89.8169,76.8 92.4203,81.139" stroke="#7f0000" stroke-width="2" /></svg>