<?xml version="1.0" encoding="utf-8" ?>
<svg baseProfile="tiny" height="128" version="1.2" viewBox="0,0,128,128" width="128" xmlns="http://www.w3.org/2000/svg" xmlns:ev="http://www.w3.org/2001/xml-events" xmlns:xlink="http://www.w3.org/1999/xlink"><defs /><polyline fill="none" points="16.5442,31.3469 27.4286,22.6395 42.2313,17.415 60.9524,16.1088 79.6735,18.2857 89.2517,21.7687 97.5238,26.5578 110.1497,40.9252 113.6327,50.5034 114.9388,60.9524 114.068,71.4014 111.0204,82.2857 105.7959,92.7347 99.2653,101.8776 91.8639,109.2789 83.5918,114.5034 67.0476,119.2925 50.5034,118.4218 34.3946,113.6327 21.7687,104.9252 16.5442,99.2653 10.449,85.3333 8.7075,77.4966 8.7075,64.4354 10.449,54.4218 22.6395,33.5238" stroke="#00007f" stroke-width="2" /><polyline fill="none" points="24.8163,21.7687 30.4762,24.8163 37.0068,34.3946 42.6667,53.9864 44.8435,80.1088 43.9728,90.9932 40.4898,99.7007" stroke="#0000ff" stroke-width="2" /><polyline fill="none" points="70.966,8.7075 66.6122,23.0748 64.4354,38.7483 64.0,55.7279 65.7415,65.3061 70.966,80.9796 77.932,93.1701 95.3469,110.585" stroke="#0080ff" stroke-width="2" /><polyline fill="none" points="49.1973,32.2177 75.3197,29.1701" stroke="#15ffe1" stroke-width="2" /><polyline fill="none" points="58.7755,70.966 84.898,63.1293" stroke="#7cff79" stroke-width="2" /><polyline fill="none" points="76.6259,100.1361 98.3946,85.3333" stroke="#e4ff12" stroke-width="2" /><polyline fill="none" points="22.6395,40.0544 47.0204,34.3946" stroke="#ff9400" stroke-width="2" /><polyline fill="none" points="31.7823,74.8844 56.1633,65.3061" stroke="#ff1d00" stroke-width="2" /><polyline fill="none" points="37.4422,93.1701 57.034,101.0068" stroke="#7f0000" stroke-width="2" /></svg>