<?xml version="1.0" encoding="utf-8" ?>
<svg baseProfile="tiny" height="128" version="1.2" viewBox="0,0,128,128" width="128" xmlns="http://www.w3.org/2000/svg" xmlns:ev="http://www.w3.org/2001/xml-events" xmlns:xlink="http://www.w3.org/1999/xlink"><defs /><polyline fill="none" points="9.5458,67.2542 14.3186,50.3322 23.4305,35.1458 38.1831,21.261 56.8407,9.9797 72.0271,8.678 86.7797,9.1119 96.7593,13.8847 113.6814,34.7119 114.5492,38.1831 118.8881,54.6712 119.322,62.0475 114.9831,85.478 111.9458,91.5525 109.3424,92.4203" stroke="#00007f" stroke-width="2" /><polyline fill="none" points="109.3424,92.4203 95.8915,99.3627 74.6305,107.1729 65.5186,109.3424 57.7085,108.4746 48.1627,104.1356 35.1458,93.2881 18.2237,85.0441 11.7153,77.2339 8.678,68.122" stroke="#00d4ff" stroke-width="2" /><polyline fill="none" points="62.0475,9.1119 73.3288,25.1661 74.6305,36.8814 73.3288,52.5017 71.5932,52.9356 65.5186,62.0475 56.4068,67.6881 39.4847,81.5729 31.6746,84.1763 19.9593,84.1763" stroke="#ffe500" stroke-width="2" /><polyline fill="none" points="111.5119,36.0136 100.6644,43.3898 88.9492,58.1424 85.9119,71.5932 84.6102,85.9119 85.9119,101.0983" stroke="#7f0000" stroke-width="2" /></svg>