<?xml version="1.0" encoding="utf-8" ?>
<svg baseProfile="tiny" height="128" version="1.2" viewBox="0,0,128,128" width="128" xmlns="http://www.w3.org/2000/svg" xmlns:ev="http://www.w3.org/2001/xml-events" xmlns:xlink="http://www.w3.org/1999/xlink"><defs /><polyline fill="none" points="82.4407,9.9797 78.5356,10.8475 46.4271,25.6 20.8271,46.4271 13.4508,56.4068 9.1119,66.3864 8.678,80.2712 14.7525,92.4203 21.261,100.2305 29.5051,105.4373 39.9186,108.0407 66.8203,108.0407 88.0814,98.061 101.0983,88.5153 108.9085,74.1966 108.9085,43.3898 105.8712,34.7119 95.4576,16.922 83.3085,12.5831" stroke="#00007f" stroke-width="2" /><polyline fill="none" points="81.5729,8.678 52.5017,42.9559 43.8237,56.4068 36.8814,78.5356 36.8814,109.7763" stroke="#7cff79" stroke-width="2" /><polyline fill="none" points="16.922,61.1797 21.6949,56.4068 34.278,51.6339 48.5966,49.4644 63.3492,49.4644 98.9288,58.5763 107.6068,63.7831 119.322,75.0644" stroke="#7f0000" stroke-width="2" /></svg>