<?xml version="1.0" encoding="utf-8" ?>
<svg baseProfile="tiny" height="128" version="1.2" viewBox="0,0,128,128" width="128" xmlns="http://www.w3.org/2000/svg" xmlns:ev="http://www.w3.org/2001/xml-events" xmlns:xlink="http://www.w3.org/1999/xlink"><defs /><polyline fill="none" points="37.3153,57.7085 24.2983,100.6644 17.3559,111.5119 9.1119,111.078" stroke="#00007f" stroke-width="2" /><polyline fill="none" points="8.678,111.5119 10.4136,115.8508 18.6576,118.8881 20.8271,118.4542 24.7322,114.1153 28.6373,100.6644 35.5797,90.6847 37.7492,80.7051 40.7864,76.8 45.5593,55.9729 52.0678,46.861 55.1051,39.9186 55.9729,28.2034 47.2949,22.5627 43.3898,22.9966 38.1831,27.3356 34.7119,32.9763 36.0136,59.878" stroke="#0080ff" stroke-width="2" /><polyline fill="none" points="80.7051,27.3356 74.1966,30.8068 66.3864,42.0881 66.8203,48.1627 69.4237,55.539 73.3288,56.8407 79.8373,56.4068 82.8746,54.6712 87.6475,46.861 88.9492,33.4102 88.0814,29.939 85.478,27.3356 81.5729,26.4678 78.9695,28.2034" stroke="#7cff79" stroke-width="2" /><polyline fill="none" points="25.1661,111.9458 26.4678,117.5864 18.6576,119.322" stroke="#ff9400" stroke-width="2" /><polyline fill="none" points="62.0475,29.939 59.4441,46.4271 59.4441,55.539 65.5186,68.9898 70.2915,72.8949 79.4034,75.4983 91.1186,76.3661 99.7966,71.5932 103.2678,65.5186 105.8712,56.8407 105.8712,24.2983 102.4,14.7525 98.061,11.2814 92.4203,9.1119 78.1017,8.678 67.2542,10.4136 59.0102,13.0169 49.4644,20.3932 44.6915,27.3356 42.9559,32.9763 44.2576,53.3695 49.4644,54.6712" stroke="#7f0000" stroke-width="2" /></svg>