<?xml version="1.0" encoding="utf-8" ?>
<svg baseProfile="tiny" height="128" version="1.2" viewBox="0,0,128,128" width="128" xmlns="http://www.w3.org/2000/svg" xmlns:ev="http://www.w3.org/2001/xml-events" xmlns:xlink="http://www.w3.org/1999/xlink"><defs /><polyline fill="none" points="92.8542,11.2814 62.9153,8.678 55.9729,9.1119 36.8814,15.6203 19.9593,26.0339 13.8847,34.278 9.1119,46.861 8.678,65.5186 9.9797,73.3288 13.8847,85.478 21.261,97.6271 34.278,108.4746 48.5966,115.4169 59.878,117.5864 74.1966,118.4542 89.8169,117.5864 101.0983,114.5492 110.2102,105.4373 119.322,89.8169 118.8881,70.7254 113.2475,48.5966 105.0034,31.6746 91.9864,10.8475 88.5153,11.2814" stroke="#00007f" stroke-width="2" /><polyline fill="none" points="25.6,20.3932 38.6169,62.0475 42.0881,82.0068 42.0881,102.8339 39.4847,105.8712 36.0136,101.5322" stroke="#7cff79" stroke-width="2" /><polyline fill="none" points="25.6,44.2576 42.0881,43.8237" stroke="#7f0000" stroke-width="2" /></svg>