<?xml version="1.0" encoding="utf-8" ?>
<svg baseProfile="tiny" height="128" version="1.2" viewBox="0,0,128,128" width="128" xmlns="http://www.w3.org/2000/svg" xmlns:ev="http://www.w3.org/2001/xml-events" xmlns:xlink="http://www.w3.org/1999/xlink"><defs /><polyline fill="none" points="56.8407,17.3559 45.1254,20.3932 30.8068,29.939 22.1288,37.3153 16.0542,47.7288 13.0169,57.7085 12.1492,69.4237 13.8847,80.2712 18.6576,94.1559 26.4678,103.2678 38.6169,111.5119 49.8983,116.7186 59.4441,118.8881 71.1593,119.322 81.5729,117.1525 94.1559,110.2102 102.4,104.1356 108.9085,97.1932 111.5119,91.9864 116.7186,71.1593 115.4169,57.7085 111.078,36.0136 102.4,24.2983 87.2136,14.3186 75.0644,10.8475 62.0475,13.0169" stroke="#00007f" stroke-width="2" /><polyline fill="none" points="38.6169,25.6 38.6169,36.0136 41.6542,41.6542" stroke="#0028ff" stroke-width="2" /><polyline fill="none" points="49.8983,59.4441 61.1797,72.0271 74.6305,78.5356" stroke="#00d4ff" stroke-width="2" /><polyline fill="none" points="95.4576,91.9864 107.1729,91.5525" stroke="#7cff79" stroke-width="2" /><polyline fill="none" points="84.6102,15.1864 84.6102,15.1864" stroke="#ffe500" stroke-width="2" /><polyline fill="none" points="60.7458,8.678 62.0475,13.4508 70.7254,25.1661 89.3831,38.1831 110.2102,55.9729 114.5492,64.6508 118.0203,77.6678" stroke="#ff4600" stroke-width="2" /><polyline fill="none" points="8.678,72.8949 16.0542,76.3661 29.0712,86.3458 85.9119,118.8881" stroke="#7f0000" stroke-width="2" /></svg>