<?xml version="1.0" encoding="utf-8" ?>
<svg baseProfile="tiny" height="128" version="1.2" viewBox="0,0,128,128" width="128" xmlns="http://www.w3.org/2000/svg" xmlns:ev="http://www.w3.org/2001/xml-events" xmlns:xlink="http://www.w3.org/1999/xlink"><defs /><polyline fill="none" points="73.1429,9.5782 66.1769,8.7075 47.4558,15.2381 30.4762,26.9932 21.7687,36.1361 14.8027,45.7143 10.8844,55.7279 8.7075,66.1769 8.7075,76.6259 10.8844,86.6395 16.9796,96.6531 24.8163,104.4898 34.3946,110.585 46.1497,113.6327 74.8844,113.6327 89.2517,108.8435 100.1361,101.8776 109.2789,93.1701 115.8095,83.5918 119.2925,72.2721 119.2925,49.6327 116.2449,39.1837 104.9252,24.8163 97.9592,20.4626 83.1565,17.415 65.3061,16.9796" stroke="#00007f" stroke-width="2" /><polyline fill="none" points="18.7211,33.5238 23.9456,35.7007 30.9116,42.2313 37.4422,54.8571 42.6667,75.3197 43.5374,94.4762 41.7959,101.4422" stroke="#004cff" stroke-width="2" /><polyline fill="none" points="93.1701,101.0068 91.8639,96.2177 84.0272,86.6395 78.8027,74.8844 76.1905,57.4694 77.932,42.2313 84.4626,29.1701 93.1701,17.8503" stroke="#29ffcd" stroke-width="2" /><polyline fill="none" points="76.1905,36.1361 90.1224,39.619" stroke="#cdff29" stroke-width="2" /><polyline fill="none" points="71.4014,57.034 84.898,56.5986" stroke="#ff6700" stroke-width="2" /><polyline fill="none" points="80.5442,85.7687 92.2993,83.5918" stroke="#7f0000" stroke-width="2" /></svg>