<?xml version="1.0" encoding="utf-8" ?>
<svg baseProfile="tiny" height="128" version="1.2" viewBox="0,0,128,128" width="128" xmlns="http://www.w3.org/2000/svg" xmlns:ev="http://www.w3.org/2001/xml-events" xmlns:xlink="http://www.w3.org/1999/xlink"><defs /><polyline fill="none" points="67.2542,9.1119 52.5017,8.678 39.9186,10.8475 26.0339,20.3932 15.6203,33.8441 11.2814,43.3898 8.678,57.2746 10.8475,68.5559 13.4508,75.0644 21.6949,85.9119 29.0712,92.4203 38.1831,97.1932 52.5017,101.0983 70.2915,101.9661 91.9864,96.7593 101.0983,91.5525 114.1153,75.9322 118.8881,63.3492 119.322,54.2373 117.1525,47.2949 108.4746,33.4102 101.0983,25.1661 91.9864,18.2237 80.2712,13.8847 62.4814,11.2814" stroke="#00007f" stroke-width="2" /><polyline fill="none" points="36.0136,12.1492 40.3525,20.3932 42.0881,29.5051 41.6542,56.4068 39.4847,62.4814 32.9763,72.8949 25.6,79.4034 26.0339,77.6678" stroke="#7cff79" stroke-width="2" /><polyline fill="none" points="84.6102,20.8271 78.9695,24.7322 71.1593,35.1458 68.122,49.4644 68.122,61.6136 78.5356,82.4407 88.9492,92.4203" stroke="#7f0000" stroke-width="2" /></svg>