<?xml version="1.0" encoding="utf-8" ?>
<svg baseProfile="tiny" height="128" version="1.2" viewBox="0,0,128,128" width="128" xmlns="http://www.w3.org/2000/svg" xmlns:ev="http://www.w3.org/2001/xml-events" xmlns:xlink="http://www.w3.org/1999/xlink"><defs /><polyline fill="none" points="53.8034,9.1119 49.4644,8.678 45.5593,10.4136 34.7119,17.7898 19.5254,35.5797 13.4508,49.8983 9.5458,65.9525 8.678,88.5153 9.9797,94.5898 16.922,105.0034 27.7695,112.8136 45.9932,118.8881 62.0475,119.322 73.7627,114.5492 83.3085,107.1729 89.3831,99.7966 92.4203,89.3831 93.722,57.2746 88.0814,42.522 81.5729,32.5424 74.1966,26.0339 52.5017,14.7525" stroke="#00007f" stroke-width="2" /><polyline fill="none" points="42.522,13.8847 45.1254,34.7119 44.6915,68.9898 35.1458,96.7593 30.8068,106.3051 23.8644,115.4169" stroke="#004cff" stroke-width="2" /><polyline fill="none" points="79.4034,28.6373 76.3661,29.939 71.5932,36.0136 67.2542,44.6915 66.3864,60.3119 70.7254,88.9492 80.2712,105.0034" stroke="#29ffcd" stroke-width="2" /><polyline fill="none" points="59.878,44.6915 74.1966,42.0881" stroke="#cdff29" stroke-width="2" /><polyline fill="none" points="63.3492,72.0271 77.2339,68.9898" stroke="#ff6700" stroke-width="2" /><polyline fill="none" points="68.122,97.1932 72.0271,97.1932 88.9492,93.2881" stroke="#7f0000" stroke-width="2" /></svg>