<?xml version="1.0" encoding="utf-8" ?>
<svg baseProfile="tiny" height="128" version="1.2" viewBox="0,0,128,128" width="128" xmlns="http://www.w3.org/2000/svg" xmlns:ev="http://www.w3.org/2001/xml-events" xmlns:xlink="http://www.w3.org/1999/xlink"><defs /><polyline fill="none" points="26.9017,32.1085 22.1288,31.2407 18.6576,33.8441 12.5831,45.1254 8.678,55.9729 9.1119,67.6881 9.9797,70.7254 13.8847,77.6678 20.8271,85.0441 39.9186,96.7593 62.9153,102.4 93.722,103.2678 112.8136,97.6271 117.5864,93.722 119.322,89.8169 119.322,83.7424 114.9831,68.122 108.4746,51.6339 97.1932,32.9763 84.1763,21.6949 74.6305,16.4881 57.7085,10.8475 41.2203,8.678 24.2983,8.678 19.5254,10.8475 14.7525,14.3186 11.2814,22.1288 10.8475,32.9763 14.7525,39.4847 16.0542,40.3525 16.0542,38.1831" stroke="#00007f" stroke-width="2" /><polyline fill="none" points="24.2983,20.3932 32.1085,47.2949 33.4102,73.7627 30.8068,87.2136 22.1288,105.4373 23.8644,104.1356" stroke="#0080ff" stroke-width="2" /><polyline fill="none" points="85.478,24.2983 82.4407,29.939 78.9695,46.4271 77.6678,81.139 80.2712,97.1932 83.7424,108.4746 85.9119,111.9458 92.8542,111.9458 87.2136,107.1729" stroke="#7cff79" stroke-width="2" /><polyline fill="none" points="22.9966,47.7288 36.8814,45.5593 47.7288,45.5593" stroke="#ff9400" stroke-width="2" /><polyline fill="none" points="26.4678,66.8203 33.4102,67.2542 34.7119,69.8576" stroke="#7f0000" stroke-width="2" /></svg>