<?xml version="1.0" encoding="utf-8" ?>
<svg baseProfile="tiny" height="128" version="1.2" viewBox="0,0,128,128" width="128" xmlns="http://www.w3.org/2000/svg" xmlns:ev="http://www.w3.org/2001/xml-events" xmlns:xlink="http://www.w3.org/1999/xlink"><defs /><polyline fill="none" points="31.2407,104.1356 23.4305,98.061 16.922,89.8169 9.5458,72.461 8.678,66.3864 9.1119,53.8034 15.6203,38.6169 22.5627,29.5051 30.8068,22.1288 44.6915,14.3186 63.7831,9.1119 90.6847,8.678 101.5322,13.8847 105.8712,19.0915 113.2475,31.2407 118.8881,46.4271 119.322,63.7831 113.6814,79.8373 110.6441,85.0441 103.2678,92.4203 97.6271,96.3254 91.5525,98.9288 66.3864,105.4373 41.2203,106.3051 29.939,101.0983 26.4678,98.061" stroke="#00007f" stroke-width="2" /><polyline fill="none" points="22.9966,29.0712 30.8068,33.8441 35.1458,39.0508 43.8237,58.5763 44.2576,99.7966 43.3898,101.5322" stroke="#7cff79" stroke-width="2" /><polyline fill="none" points="102.8339,8.678 102.8339,11.2814 94.1559,21.6949 85.0441,37.3153 76.8,64.6508 77.6678,72.461 81.139,80.2712 88.9492,90.6847 99.3627,95.8915" stroke="#7f0000" stroke-width="2" /></svg>