<?xml version="1.0" encoding="utf-8" ?>
<svg baseProfile="tiny" height="128" version="1.2" viewBox="0,0,128,128" width="128" xmlns="http://www.w3.org/2000/svg" xmlns:ev="http://www.w3.org/2001/xml-events" xmlns:xlink="http://www.w3.org/1999/xlink"><defs /><polyline fill="none" points="54.2373,15.1864 52.0678,12.1492 47.7288,9.9797 31.6746,8.678 19.0915,13.0169 10.4136,19.5254 8.678,29.5051 13.4508,42.9559 18.6576,46.861 29.939,49.4644 41.6542,49.0305 51.2,46.4271 62.0475,36.0136 63.3492,31.2407 59.4441,20.3932 56.4068,17.3559 51.2,14.7525" stroke="#00007f" stroke-width="2" /><polyline fill="none" points="22.5627,13.4508 31.6746,17.7898 36.0136,24.2983 36.8814,32.9763 32.1085,47.2949" stroke="#00d4ff" stroke-width="2" /><polyline fill="none" points="50.3322,15.6203 42.0881,22.1288 37.3153,30.3729 35.5797,37.3153 36.4475,44.2576 38.6169,47.7288 48.5966,50.7661" stroke="#ffe500" stroke-width="2" /><polyline fill="none" points="119.322,11.7153 112.3797,9.5458 97.6271,9.1119 88.5153,12.5831 77.2339,20.3932 72.461,26.9017 68.9898,36.8814 70.2915,44.2576 74.6305,48.5966 78.5356,49.4644 86.3458,49.0305 96.7593,46.4271 105.0034,42.0881 113.2475,33.8441 117.1525,24.7322 115.8508,15.1864 112.8136,12.1492 107.6068,9.9797 102.4,9.1119 101.9661,9.9797" stroke="#7f0000" stroke-width="2" /></svg>