<?xml version="1.0" encoding="utf-8" ?>
<svg baseProfile="tiny" height="128" version="1.2" viewBox="0,0,128,128" width="128" xmlns="http://www.w3.org/2000/svg" xmlns:ev="http://www.w3.org/2001/xml-events" xmlns:xlink="http://www.w3.org/1999/xlink"><defs /><polyline fill="none" points="77.2339,21.261 62.0475,11.2814 52.9356,10.8475 48.5966,11.7153 19.0915,35.1458 12.1492,47.2949 8.678,71.1593 11.2814,93.2881 19.5254,101.0983 43.3898,115.4169 58.1424,119.322 70.7254,119.322 79.8373,115.4169 91.1186,108.4746 101.0983,100.2305 106.739,88.0814 110.6441,60.7458 111.078,35.1458 108.0407,24.7322 102.4,16.0542 82.4407,8.678 55.9729,9.5458" stroke="#00007f" stroke-width="2" /><polyline fill="none" points="55.9729,9.5458 52.5017,15.6203 38.1831,65.9525 36.0136,84.1763 33.4102,94.1559 33.4102,105.0034 35.5797,106.3051" stroke="#7cff79" stroke-width="2" /><polyline fill="none" points="81.139,11.7153 81.5729,22.9966 79.8373,37.7492 74.1966,72.0271 71.1593,77.2339 70.2915,100.2305 67.6881,102.4 70.2915,103.2678 67.6881,106.739 67.2542,113.2475 69.4237,113.6814 68.9898,116.2847 66.8203,115.4169" stroke="#7f0000" stroke-width="2" /></svg>