<?xml version="1.0" encoding="utf-8" ?>
<svg baseProfile="tiny" height="128" version="1.2" viewBox="0,0,128,128" width="128" xmlns="http://www.w3.org/2000/svg" xmlns:ev="http://www.w3.org/2001/xml-events" xmlns:xlink="http://www.w3.org/1999/xlink"><defs /><polyline fill="none" points="60.517,17.415 52.6803,16.1088 41.7959,18.2857 27.8639,24.8163 22.2041,30.0408 12.6259,43.5374 10.0136,50.9388 8.7075,66.6122 9.5782,74.449 12.6259,81.8503 23.0748,94.0408 29.6054,99.2653 37.8776,103.1837 46.585,105.7959 56.5986,106.2313 66.6122,106.2313 83.5918,100.5714 91.4286,96.6531 105.7959,83.5918 111.0204,76.1905 117.9864,60.9524 119.2925,53.551 118.8571,40.0544 112.3265,27.8639 101.8776,17.8503 95.3469,13.932 82.2857,9.1429 62.2585,8.7075 45.2789,16.9796" stroke="#00007f" stroke-width="2" /><polyline fill="none" points="94.4762,15.6735 94.9116,44.8435 91.4286,59.6463 80.5442,80.1088 74.449,86.6395 65.7415,90.9932 58.3401,89.6871 50.5034,83.1565 43.102,70.0952 39.1837,53.1156 40.0544,22.2041 39.619,20.4626 36.1361,17.8503" stroke="#00d4ff" stroke-width="2" /><polyline fill="none" points="11.7551,53.551 39.1837,53.1156" stroke="#ffe500" stroke-width="2" /><polyline fill="none" points="94.4762,41.3605 100.1361,41.3605 115.3741,48.3265" stroke="#7f0000" stroke-width="2" /></svg>