<?xml version="1.0" encoding="utf-8" ?>
<svg baseProfile="tiny" height="128" version="1.2" viewBox="0,0,128,128" width="128" xmlns="http://www.w3.org/2000/svg" xmlns:ev="http://www.w3.org/2001/xml-events" xmlns:xlink="http://www.w3.org/1999/xlink"><defs /><polyline fill="none" points="30.8068,16.0542 28.2034,16.4881 25.6,19.0915 17.3559,32.5424 12.5831,47.7288 9.1119,63.7831 8.678,85.478 9.5458,94.5898 12.1492,102.4 17.3559,110.6441 26.0339,117.5864 35.5797,119.322 42.9559,118.8881 57.2746,113.6814 73.3288,102.4 82.0068,91.1186 87.2136,78.9695 88.9492,59.878 85.9119,42.9559 80.7051,29.5051 70.7254,15.1864 60.7458,8.678 55.539,9.5458 48.1627,13.4508 38.1831,23.8644" stroke="#00007f" stroke-width="2" /><polyline fill="none" points="41.2203,19.0915 39.4847,59.4441 33.4102,95.0237 30.8068,101.9661 26.9017,106.739 20.8271,110.6441 16.4881,110.2102" stroke="#7cff79" stroke-width="2" /><polyline fill="none" points="62.4814,16.4881 59.878,32.9763 60.7458,42.9559 64.2169,54.6712 73.7627,78.5356 82.4407,88.9492 90.2508,94.5898" stroke="#7f0000" stroke-width="2" /></svg>