<?xml version="1.0" encoding="utf-8" ?>
<svg baseProfile="tiny" height="128" version="1.2" viewBox="0,0,128,128" width="128" xmlns="http://www.w3.org/2000/svg" xmlns:ev="http://www.w3.org/2001/xml-events" xmlns:xlink="http://www.w3.org/1999/xlink"><defs /><polyline fill="none" points="88.0814,8.678 76.3661,9.1119 37.3153,15.1864 28.2034,19.9593 21.6949,28.6373 14.7525,42.522 10.4136,59.0102 8.678,72.8949 8.678,80.7051 11.7153,91.9864 16.922,101.0983 24.2983,107.6068 42.0881,115.8508 61.6136,118.8881 83.3085,119.322 110.2102,110.2102 115.8508,104.1356 118.8881,80.2712 118.8881,56.4068 110.6441,35.1458 85.0441,18.2237 75.0644,12.1492 69.4237,10.4136" stroke="#00007f" stroke-width="2" /><polyline fill="none" points="31.6746,23.4305 32.1085,25.6" stroke="#0028ff" stroke-width="2" /><polyline fill="none" points="35.1458,31.6746 36.4475,37.3153" stroke="#00d4ff" stroke-width="2" /><polyline fill="none" points="37.3153,41.2203 38.6169,46.4271" stroke="#7cff79" stroke-width="2" /><polyline fill="none" points="39.4847,48.1627 39.4847,54.6712 43.8237,64.2169" stroke="#ffe500" stroke-width="2" /><polyline fill="none" points="41.6542,61.6136 48.1627,70.7254 48.5966,85.478 39.9186,112.3797" stroke="#ff4600" stroke-width="2" /><polyline fill="none" points="104.5695,28.2034 92.8542,35.5797 88.5153,42.0881" stroke="#7f0000" stroke-width="2" /></svg>