<?xml version="1.0" encoding="utf-8" ?>
<svg baseProfile="tiny" height="128" version="1.2" viewBox="0,0,128,128" width="128" xmlns="http://www.w3.org/2000/svg" xmlns:ev="http://www.w3.org/2001/xml-events" xmlns:xlink="http://www.w3.org/1999/xlink"><defs /><polyline fill="none" points="86.7797,103.2678 82.0068,107.1729 72.8949,108.4746 40.7864,107.1729 27.7695,101.9661 19.0915,95.0237 12.5831,85.9119 10.8475,79.4034 8.678,65.5186 9.9797,49.4644 13.8847,40.7864 18.6576,33.4102 25.1661,26.9017 34.278,21.261 54.2373,12.5831 65.5186,10.4136 84.6102,8.678 99.3627,9.9797 105.0034,12.1492 111.5119,18.2237 115.8508,27.7695 118.4542,39.0508 119.322,53.3695 115.4169,72.0271 100.2305,97.6271 95.8915,101.9661 90.6847,102.4" stroke="#00007f" stroke-width="2" /><polyline fill="none" points="22.5627,32.1085 34.7119,46.4271 44.6915,66.3864 49.8983,88.5153 49.8983,99.3627 45.1254,111.078" stroke="#0028ff" stroke-width="2" /><polyline fill="none" points="98.4949,10.8475 94.5898,19.0915 91.1186,32.1085 88.5153,50.3322 89.3831,73.7627 92.4203,85.9119 97.6271,95.8915" stroke="#00d4ff" stroke-width="2" /><polyline fill="none" points="89.3831,23.8644 98.9288,24.7322" stroke="#7cff79" stroke-width="2" /><polyline fill="none" points="80.7051,40.3525 118.0203,41.2203" stroke="#ffe500" stroke-width="2" /><polyline fill="none" points="82.8746,64.2169 98.4949,65.0847" stroke="#ff4600" stroke-width="2" /><polyline fill="none" points="87.2136,85.9119 98.9288,77.6678" stroke="#7f0000" stroke-width="2" /></svg>