<?xml version="1.0" encoding="utf-8" ?>
<svg baseProfile="tiny" height="128" version="1.2" viewBox="0,0,128,128" width="128" xmlns="http://www.w3.org/2000/svg" xmlns:ev="http://www.w3.org/2001/xml-events" xmlns:xlink="http://www.w3.org/1999/xlink"><defs /><polyline fill="none" points="62.9153,11.7153 49.8983,12.1492 44.6915,13.8847 27.7695,19.9593 15.1864,28.6373 11.7153,34.278 8.678,44.2576 8.678,61.1797 15.6203,79.8373 23.4305,90.2508 29.0712,94.5898 42.9559,101.5322 72.8949,104.1356 90.2508,100.2305 100.2305,95.0237 105.4373,91.1186 114.9831,77.2339 117.5864,71.5932 119.322,64.2169 119.322,51.6339 116.7186,39.4847 104.5695,19.5254 91.1186,9.5458 62.9153,10.4136 48.1627,13.0169" stroke="#00007f" stroke-width="2" /><polyline fill="none" points="48.1627,11.2814 53.3695,15.1864 57.2746,30.3729 57.2746,38.6169 55.1051,46.861 51.6339,52.0678 46.861,55.9729 25.6,69.8576 18.2237,82.8746 18.6576,84.6102" stroke="#7cff79" stroke-width="2" /><polyline fill="none" points="80.7051,8.678 83.3085,8.678 86.3458,10.8475 90.6847,19.0915 92.8542,39.9186 89.3831,45.9932 76.3661,56.8407 70.7254,67.6881 69.4237,75.4983 72.8949,83.3085 85.0441,96.3254 85.9119,100.2305" stroke="#7f0000" stroke-width="2" /></svg>