<?xml version="1.0" encoding="utf-8" ?>
<svg baseProfile="tiny" height="128" version="1.2" viewBox="0,0,128,128" width="128" xmlns="http://www.w3.org/2000/svg" xmlns:ev="http://www.w3.org/2001/xml-events" xmlns:xlink="http://www.w3.org/1999/xlink"><defs /><polyline fill="none" points="71.1593,22.5627 69.8576,24.7322 68.122,25.1661 36.8814,26.0339 28.2034,30.8068 19.9593,38.6169 13.4508,49.0305 9.1119,63.7831 8.678,92.4203 12.5831,102.8339 19.0915,109.7763 27.3356,114.1153 39.0508,115.8508 52.9356,114.9831 66.3864,108.4746 78.1017,97.6271 87.2136,85.0441 92.4203,73.3288 95.0237,60.7458 95.8915,47.7288 93.722,35.5797 87.2136,24.7322 77.6678,15.6203 69.4237,10.4136 62.0475,8.678" stroke="#00007f" stroke-width="2" /><polyline fill="none" points="32.9763,27.3356 39.0508,46.4271 39.9186,87.6475 39.4847,94.5898 32.1085,116.2847" stroke="#0028ff" stroke-width="2" /><polyline fill="none" points="86.7797,21.261 83.3085,21.261 80.7051,24.7322 74.1966,47.7288 65.0847,101.0983 65.0847,116.7186 67.6881,119.322" stroke="#00d4ff" stroke-width="2" /><polyline fill="none" points="31.2407,88.0814 48.5966,90.2508" stroke="#7cff79" stroke-width="2" /><polyline fill="none" points="33.4102,76.3661 44.2576,77.2339" stroke="#ffe500" stroke-width="2" /><polyline fill="none" points="33.8441,64.6508 41.6542,62.9153" stroke="#ff4600" stroke-width="2" /><polyline fill="none" points="32.9763,49.0305 39.0508,45.9932" stroke="#7f0000" stroke-width="2" /></svg>