<?xml version="1.0" encoding="utf-8" ?>
<svg baseProfile="tiny" height="128" version="1.2" viewBox="0,0,128,128" width="128" xmlns="http://www.w3.org/2000/svg" xmlns:ev="http://www.w3.org/2001/xml-events" xmlns:xlink="http://www.w3.org/1999/xlink"><defs /><polyline fill="none" points="91.8639,18.2857 83.1565,12.6259 69.2245,8.7075 54.4218,9.1429 45.7143,12.1905 32.2177,19.1565 16.5442,36.1361 10.8844,48.3265 9.5782,56.5986 8.7075,78.3673 11.3197,90.5578 18.2857,101.8776 25.6871,110.1497 32.6531,114.068 45.2789,117.9864 60.0816,119.2925 71.4014,116.6803 82.2857,111.8912 97.5238,100.5714 106.6667,83.1565 108.4082,77.0612 109.2789,62.2585 108.4082,53.9864 97.9592,33.0884 89.2517,23.9456 78.3673,16.5442 60.517,11.3197 47.8912,10.8844 40.4898,13.932 34.8299,18.7211 30.0408,20.4626 29.1701,22.2041 42.2313,40.9252 44.8435,55.2925 43.102,89.2517 40.4898,98.8299 33.9592,114.9388" stroke="#00007f" stroke-width="2" /><polyline fill="none" points="81.415,17.8503 75.3197,30.0408 69.2245,47.8912 65.7415,60.0816 64.4354,70.966 66.1769,80.9796 74.0136,98.8299 82.7211,108.8435" stroke="#00d4ff" stroke-width="2" /><polyline fill="none" points="65.3061,23.9456 66.1769,37.0068 71.4014,38.3129 80.1088,36.1361" stroke="#ffe500" stroke-width="2" /><polyline fill="none" points="62.2585,57.9048 62.2585,57.9048" stroke="#7f0000" stroke-width="2" /></svg>