<?xml version="1.0" encoding="utf-8" ?>
<svg baseProfile="tiny" height="128" version="1.2" viewBox="0,0,128,128" width="128" xmlns="http://www.w3.org/2000/svg" xmlns:ev="http://www.w3.org/2001/xml-events" xmlns:xlink="http://www.w3.org/1999/xlink"><defs /><polyline fill="none" points="13.4966,84.4626 10.449,85.3333 8.7075,89.2517 9.5782,91.8639 13.932,94.0408 23.0748,92.2993 32.2177,86.6395 24.381,84.898 23.9456,70.966 26.5578,54.8571 34.8299,31.3469 36.1361,17.415 34.8299,13.0612 31.3469,10.449 26.1224,8.7075 21.3333,9.5782 19.1565,20.898 20.0272,74.449 17.8503,82.7211 14.3673,86.2041 10.8844,86.6395" stroke="#00007f" stroke-width="2" /><polyline fill="none" points="103.619,30.9116 91.4286,30.9116 84.4626,32.2177 74.8844,37.4422 68.7891,42.6667 65.7415,50.9388 67.483,57.4694 72.7075,61.8231 83.1565,64.0 95.3469,63.5646 103.1837,61.3878 113.6327,54.4218 119.2925,47.0204 118.4218,40.0544 114.5034,34.3946 110.1497,30.9116 101.4422,27.8639 95.3469,28.2993 92.2993,30.0408" stroke="#00d4ff" stroke-width="2" /><polyline fill="none" points="78.8027,39.1837 87.5102,43.5374 91.8639,52.2449 93.1701,63.5646" stroke="#ffe500" stroke-width="2" /><polyline fill="none" points="110.585,58.3401 108.8435,53.1156 99.2653,37.8776 90.5578,31.7823" stroke="#7f0000" stroke-width="2" /></svg>