<?xml version="1.0" encoding="utf-8" ?>
<svg baseProfile="tiny" height="128" version="1.2" viewBox="0,0,128,128" width="128" xmlns="http://www.w3.org/2000/svg" xmlns:ev="http://www.w3.org/2001/xml-events" xmlns:xlink="http://www.w3.org/1999/xlink"><defs /><polyline fill="none" points="33.8441,19.0915 60.7458,8.678 75.9322,10.8475 88.0814,14.3186 99.3627,22.5627 103.2678,29.5051 111.5119,53.8034 113.6814,77.2339 104.5695,95.8915 95.8915,105.8712 87.2136,113.2475 75.4983,118.4542 68.5559,119.322 60.7458,118.0203 39.0508,108.0407 30.8068,102.4 18.6576,91.1186 14.3186,83.7424 9.5458,72.0271 8.678,61.6136 14.3186,42.0881 20.3932,31.6746 30.8068,26.0339 37.7492,19.9593 42.0881,32.5424 51.2,50.3322 55.9729,68.9898 55.9729,86.3458 50.3322,106.739" stroke="#00007f" stroke-width="2" /><polyline fill="none" points="83.7424,14.3186 92.8542,45.5593 96.3254,66.3864 97.1932,104.5695" stroke="#7f0000" stroke-width="2" /></svg>