<?xml version="1.0" encoding="utf-8" ?>
<svg baseProfile="tiny" height="128" version="1.2" viewBox="0,0,128,128" width="128" xmlns="http://www.w3.org/2000/svg" xmlns:ev="http://www.w3.org/2001/xml-events" xmlns:xlink="http://www.w3.org/1999/xlink"><defs /><polyline fill="none" points="98.9288,19.5254 92.4203,15.1864 85.9119,13.0169 64.6508,13.0169 45.9932,19.5254 36.8814,25.1661 20.3932,41.2203 12.1492,55.539 8.678,74.6305 9.5458,82.8746 19.5254,100.2305 30.3729,111.5119 36.4475,115.4169 51.2,119.322 70.7254,115.4169 83.3085,109.7763 94.5898,100.2305 108.9085,83.3085 112.8136,75.4983 117.5864,57.2746 117.5864,43.3898 111.9458,30.8068 105.8712,22.1288 95.8915,13.8847 87.2136,10.4136" stroke="#00007f" stroke-width="2" /><polyline fill="none" points="40.3525,22.1288 47.2949,44.2576 48.5966,62.0475 47.2949,75.9322 41.6542,88.0814 31.6746,102.4 24.2983,107.1729 16.922,107.1729" stroke="#0000fe" stroke-width="2" /><polyline fill="none" points="81.139,8.678 82.4407,84.1763 83.3085,89.3831 89.3831,97.6271 95.0237,98.4949 101.0983,96.3254 112.3797,88.5153" stroke="#0060ff" stroke-width="2" /><polyline fill="none" points="25.6,32.1085 58.5763,27.3356" stroke="#00d4ff" stroke-width="2" /><polyline fill="none" points="26.4678,65.9525 52.0678,59.0102" stroke="#4cffaa" stroke-width="2" /><polyline fill="none" points="33.8441,71.5932 58.1424,71.1593" stroke="#aaff4c" stroke-width="2" /><polyline fill="none" points="26.0339,99.3627 37.7492,102.4 45.9932,99.7966" stroke="#ffe500" stroke-width="2" /><polyline fill="none" points="79.4034,34.7119 98.061,38.1831" stroke="#ff7a00" stroke-width="2" /><polyline fill="none" points="68.9898,71.5932 84.6102,67.2542" stroke="#fe1200" stroke-width="2" /><polyline fill="none" points="86.7797,78.5356 86.7797,78.5356" stroke="#7f0000" stroke-width="2" /></svg>