<?xml version="1.0" encoding="utf-8" ?>
<svg baseProfile="tiny" height="128" version="1.2" viewBox="0,0,128,128" width="128" xmlns="http://www.w3.org/2000/svg" xmlns:ev="http://www.w3.org/2001/xml-events" xmlns:xlink="http://www.w3.org/1999/xlink"><defs /><polyline fill="none" points="43.9728,14.8027 33.5238,9.1429 25.6871,8.7075 10.0136,29.6054 8.7075,33.5238 10.0136,38.3129 14.8027,42.2313 33.5238,44.4082 39.1837,43.5374 43.9728,39.1837 50.5034,26.9932 51.8095,20.0272 49.6327,14.8027 42.6667,10.8844 37.8776,10.449" stroke="#00007f" stroke-width="2" /><polyline fill="none" points="38.3129,10.0136 26.9932,23.9456 19.1565,37.0068 16.5442,38.3129" stroke="#0028ff" stroke-width="2" /><polyline fill="none" points="16.9796,33.0884 21.7687,36.1361" stroke="#00d4ff" stroke-width="2" /><polyline fill="none" points="20.0272,27.4286 23.9456,28.7347" stroke="#7cff79" stroke-width="2" /><polyline fill="none" points="22.6395,19.1565 28.7347,20.898" stroke="#ffe500" stroke-width="2" /><polyline fill="none" points="28.7347,13.932 38.7483,14.3673" stroke="#ff4600" stroke-width="2" /><polyline fill="none" points="86.2041,57.034 93.1701,59.6463 107.102,60.517 119.2925,56.5986 118.8571,53.551 114.068,51.8095 90.9932,53.551 79.6735,57.4694" stroke="#7f0000" stroke-width="2" /></svg>