<?xml version="1.0" encoding="utf-8" ?>
<svg baseProfile="tiny" height="128" version="1.2" viewBox="0,0,128,128" width="128" xmlns="http://www.w3.org/2000/svg" xmlns:ev="http://www.w3.org/2001/xml-events" xmlns:xlink="http://www.w3.org/1999/xlink"><defs /><polyline fill="none" points="89.3831,26.0339 86.7797,22.1288 68.122,10.8475 32.5424,10.4136 24.7322,13.0169 15.1864,19.0915 8.678,37.3153 12.1492,50.3322 16.922,79.4034 22.5627,94.5898 56.4068,108.9085 69.8576,108.9085 107.1729,93.2881 112.3797,78.9695 113.6814,57.7085 111.9458,47.7288 108.0407,38.6169 105.0034,34.7119 92.4203,26.0339 77.6678,18.6576 72.0271,17.3559" stroke="#00007f" stroke-width="2" /><polyline fill="none" points="14.3186,8.678 17.3559,10.4136 20.8271,17.3559 29.5051,46.861 36.8814,63.3492 41.2203,80.2712 41.2203,83.3085 33.4102,93.2881" stroke="#7cff79" stroke-width="2" /><polyline fill="none" points="91.5525,26.4678 88.0814,29.5051 77.2339,46.4271 69.8576,64.6508 68.5559,76.8 68.5559,89.8169 73.7627,111.5119 78.9695,119.322" stroke="#7f0000" stroke-width="2" /></svg>