<?xml version="1.0" encoding="utf-8" ?>
<svg baseProfile="tiny" height="128" version="1.2" viewBox="0,0,128,128" width="128" xmlns="http://www.w3.org/2000/svg" xmlns:ev="http://www.w3.org/2001/xml-events" xmlns:xlink="http://www.w3.org/1999/xlink"><defs /><polyline fill="none" points="18.2237,26.0339 21.261,21.261 50.7661,9.5458 66.3864,9.5458 88.5153,17.3559 98.061,22.9966 106.739,31.6746 109.7763,41.6542 108.4746,57.7085 95.4576,87.6475 87.2136,98.4949 72.8949,110.6441 68.122,113.6814 53.8034,114.5492 22.9966,95.4576 18.2237,90.2508 12.5831,79.8373 8.678,64.6508 8.678,36.0136 14.3186,22.9966" stroke="#00007f" stroke-width="2" /><polyline fill="none" points="23.8644,22.9966 30.8068,44.2576 30.8068,50.3322 35.5797,72.0271 42.522,94.1559" stroke="#0080ff" stroke-width="2" /><polyline fill="none" points="64.6508,8.678 69.4237,29.939 70.2915,48.1627 72.8949,54.6712 78.9695,80.7051" stroke="#7cff79" stroke-width="2" /><polyline fill="none" points="26.0339,55.9729 29.939,51.2 35.5797,48.1627 67.2542,37.7492 119.322,30.8068" stroke="#ff9400" stroke-width="2" /><polyline fill="none" points="29.0712,82.0068 33.8441,82.0068 52.0678,75.0644 87.6475,68.122 106.739,61.6136" stroke="#7f0000" stroke-width="2" /></svg>