<?xml version="1.0" encoding="utf-8" ?>
<svg baseProfile="tiny" height="128" version="1.2" viewBox="0,0,128,128" width="128" xmlns="http://www.w3.org/2000/svg" xmlns:ev="http://www.w3.org/2001/xml-events" xmlns:xlink="http://www.w3.org/1999/xlink"><defs /><polyline fill="none" points="68.122,15.1864 65.0847,12.1492 55.1051,12.1492 37.3153,23.4305 24.2983,37.3153 14.7525,50.7661 9.5458,65.0847 8.678,72.8949 8.678,80.2712 10.8475,87.6475 15.1864,95.8915 21.6949,102.8339 33.8441,111.078 40.3525,112.8136 64.6508,113.6814 88.5153,104.1356 102.8339,93.722 107.6068,88.5153 115.4169,74.6305 116.7186,68.9898 116.7186,48.5966 108.0407,28.6373 103.7017,23.4305 93.2881,14.7525 82.4407,9.5458 71.5932,8.678 62.9153,12.1492 59.0102,17.3559" stroke="#00007f" stroke-width="2" /><polyline fill="none" points="12.5831,60.7458 13.0169,57.7085 21.261,51.2 49.4644,35.5797 55.539,33.8441 66.8203,32.1085 75.9322,33.4102 90.2508,45.9932 98.061,49.8983 102.4,50.3322 110.2102,49.4644 113.6814,47.2949 118.0203,41.2203 119.322,36.8814" stroke="#7cff79" stroke-width="2" /><polyline fill="none" points="30.3729,103.2678 29.939,97.6271 33.8441,92.4203 40.3525,87.2136 49.0305,82.8746 57.7085,81.139 67.6881,82.0068 89.3831,93.2881 98.061,93.722 110.6441,88.5153 117.1525,81.5729" stroke="#7f0000" stroke-width="2" /></svg>