<?xml version="1.0" encoding="utf-8" ?>
<svg baseProfile="tiny" height="128" version="1.2" viewBox="0,0,128,128" width="128" xmlns="http://www.w3.org/2000/svg" xmlns:ev="http://www.w3.org/2001/xml-events" xmlns:xlink="http://www.w3.org/1999/xlink"><defs /><polyline fill="none" points="72.461,15.1864 69.8576,13.8847 47.7288,13.8847 36.0136,18.6576 22.9966,28.2034 12.1492,43.8237 8.678,56.4068 9.1119,70.2915 16.922,87.6475 27.3356,100.6644 34.7119,105.4373 52.9356,110.2102 84.1763,108.9085 93.2881,105.8712 110.2102,96.7593 117.5864,85.478 119.322,78.5356 118.8881,62.4814 116.2847,52.9356 107.6068,35.5797 95.0237,20.3932 85.9119,14.7525 75.4983,10.4136 65.0847,8.678" stroke="#00007f" stroke-width="2" /><polyline fill="none" points="26.0339,8.678 34.7119,13.4508 43.3898,21.6949 46.861,26.9017 50.3322,38.6169 51.2,45.9932 50.3322,72.461 42.0881,94.1559" stroke="#0028ff" stroke-width="2" /><polyline fill="none" points="98.9288,20.3932 84.1763,34.7119 75.0644,46.4271 70.2915,58.5763 69.8576,72.0271 72.0271,78.5356 79.4034,88.5153 110.2102,110.6441" stroke="#00d4ff" stroke-width="2" /><polyline fill="none" points="33.4102,38.6169 44.6915,36.0136" stroke="#7cff79" stroke-width="2" /><polyline fill="none" points="40.7864,51.6339 47.7288,50.7661" stroke="#ffe500" stroke-width="2" /><polyline fill="none" points="33.8441,67.6881 43.3898,67.2542" stroke="#ff4600" stroke-width="2" /><polyline fill="none" points="30.8068,82.8746 53.8034,78.9695" stroke="#7f0000" stroke-width="2" /></svg>