<?xml version="1.0" encoding="utf-8" ?>
<svg baseProfile="tiny" height="128" version="1.2" viewBox="0,0,128,128" width="128" xmlns="http://www.w3.org/2000/svg" xmlns:ev="http://www.w3.org/2001/xml-events" xmlns:xlink="http://www.w3.org/1999/xlink"><defs /><polyline fill="none" points="61.6136,13.4508 59.878,10.4136 54.2373,10.4136 36.8814,16.922 26.9017,27.3356 13.4508,46.861 9.5458,54.6712 8.678,71.5932 9.5458,75.4983 15.6203,82.4407 17.3559,88.9492 24.7322,96.7593 32.5424,98.9288 49.8983,102.4 76.3661,103.7017 90.6847,99.3627 94.1559,96.3254 102.8339,92.4203 109.7763,82.8746 118.0203,52.5017 119.322,46.4271 118.4542,40.7864 109.7763,31.6746 101.5322,26.0339 90.2508,15.6203 84.6102,15.1864 75.9322,9.1119 62.9153,8.678 55.9729,9.5458 54.6712,19.9593 52.0678,26.9017 47.2949,62.9153 35.5797,99.3627 31.6746,101.5322" stroke="#00007f" stroke-width="2" /><polyline fill="none" points="64.2169,10.4136 63.7831,21.261 68.122,40.3525 74.6305,55.1051 77.6678,69.4237 84.1763,84.6102 87.2136,87.2136 89.3831,92.4203" stroke="#7f0000" stroke-width="2" /></svg>