<?xml version="1.0" encoding="utf-8" ?>
<svg baseProfile="tiny" height="128" version="1.2" viewBox="0,0,128,128" width="128" xmlns="http://www.w3.org/2000/svg" xmlns:ev="http://www.w3.org/2001/xml-events" xmlns:xlink="http://www.w3.org/1999/xlink"><defs /><polyline fill="none" points="81.5729,16.4881 76.8,12.5831 44.6915,8.678 28.6373,13.0169 21.261,18.6576 13.8847,26.4678 9.9797,36.8814 8.678,50.7661 13.8847,95.0237 16.922,103.7017 20.3932,108.9085 31.2407,113.6814 44.6915,109.7763 72.461,93.722 87.2136,81.5729 95.8915,72.0271 98.061,66.8203 98.061,57.2746 95.8915,47.2949 88.5153,30.8068 82.8746,22.1288 67.6881,18.2237" stroke="#00007f" stroke-width="2" /><polyline fill="none" points="37.7492,22.5627 45.5593,45.5593 49.0305,65.9525 48.1627,71.1593 42.0881,76.3661 29.5051,82.0068 10.8475,83.3085" stroke="#7cff79" stroke-width="2" /><polyline fill="none" points="65.9525,19.5254 64.6508,25.1661 69.8576,50.3322 86.7797,71.5932 92.8542,74.6305 105.0034,74.6305 119.322,65.9525" stroke="#7f0000" stroke-width="2" /></svg>