<?xml version="1.0" encoding="utf-8" ?>
<svg baseProfile="tiny" height="128" version="1.2" viewBox="0,0,128,128" width="128" xmlns="http://www.w3.org/2000/svg" xmlns:ev="http://www.w3.org/2001/xml-events" xmlns:xlink="http://www.w3.org/1999/xlink"><defs /><polyline fill="none" points="32.1085,11.7153 40.3525,11.7153 46.861,9.5458 75.9322,10.8475 83.7424,13.0169 98.061,25.1661 101.0983,31.6746 105.8712,64.2169 105.8712,84.6102 98.061,95.8915 86.3458,105.0034 46.4271,119.322 26.9017,119.322 18.6576,111.078 13.8847,99.7966 8.678,82.4407 9.5458,28.2034 11.7153,22.9966 19.0915,13.8847 37.3153,8.678" stroke="#00007f" stroke-width="2" /><polyline fill="none" points="22.1288,14.7525 23.8644,22.1288 38.6169,36.4475 43.3898,44.2576 48.5966,49.4644 73.3288,55.9729 101.9661,56.8407" stroke="#7cff79" stroke-width="2" /><polyline fill="none" points="47.7288,50.7661 45.5593,80.2712 42.522,91.5525 42.522,111.078" stroke="#7f0000" stroke-width="2" /></svg>