<?xml version="1.0" encoding="utf-8" ?>
<svg baseProfile="tiny" height="128" version="1.2" viewBox="0,0,128,128" width="128" xmlns="http://www.w3.org/2000/svg" xmlns:ev="http://www.w3.org/2001/xml-events" xmlns:xlink="http://www.w3.org/1999/xlink"><defs /><polyline fill="none" points="32.5424,20.8271 19.0915,27.7695 11.7153,36.4475 8.678,48.1627 10.8475,59.4441 20.8271,72.8949 30.8068,79.8373 49.8983,88.0814 72.0271,92.4203 89.3831,93.2881 101.9661,91.5525 111.078,86.7797 117.1525,80.7051 119.322,72.461 118.0203,62.0475 111.9458,47.2949 104.5695,36.8814 95.0237,27.3356 82.8746,18.2237 74.6305,13.8847 61.1797,9.5458 47.7288,8.678 31.6746,9.5458 19.9593,14.3186 13.8847,19.0915" stroke="#00007f" stroke-width="2" /><polyline fill="none" points="16.0542,17.3559 24.7322,25.6 36.0136,33.8441 46.861,39.4847 59.878,42.9559 71.1593,43.3898 85.0441,40.3525 94.1559,34.7119 98.4949,27.7695" stroke="#0000b6" stroke-width="2" /><polyline fill="none" points="22.1288,77.6678 32.9763,72.8949 47.7288,68.9898 62.9153,69.4237 75.0644,72.461 82.8746,75.9322 107.6068,93.2881 109.7763,94.1559 109.7763,93.2881" stroke="#0000ec" stroke-width="2" /><polyline fill="none" points="37.3153,21.6949 37.3153,21.6949" stroke="#0010ff" stroke-width="2" /><polyline fill="none" points="58.5763,22.1288 58.5763,22.1288" stroke="#0040ff" stroke-width="2" /><polyline fill="none" points="45.5593,22.5627 49.0305,25.1661 55.539,26.4678" stroke="#0070ff" stroke-width="2" /><polyline fill="none" points="64.2169,27.3356 64.2169,27.3356" stroke="#00a4ff" stroke-width="2" /><polyline fill="none" points="65.5186,26.0339 65.5186,26.0339" stroke="#00d4ff" stroke-width="2" /><polyline fill="none" points="76.3661,28.6373 76.3661,31.2407" stroke="#18ffdd" stroke-width="2" /><polyline fill="none" points="37.7492,71.1593 38.6169,73.3288" stroke="#3fffb7" stroke-width="2" /><polyline fill="none" points="49.0305,70.2915 50.3322,70.7254" stroke="#66ff90" stroke-width="2" /><polyline fill="none" points="58.5763,71.1593 61.6136,75.0644" stroke="#90ff66" stroke-width="2" /><polyline fill="none" points="72.0271,71.5932 74.6305,74.1966 78.5356,75.0644" stroke="#b7ff3f" stroke-width="2" /><polyline fill="none" points="87.6475,77.2339 90.2508,79.8373" stroke="#ddff18" stroke-width="2" /><polyline fill="none" points="97.1932,82.0068 97.6271,85.478" stroke="#ffe500" stroke-width="2" /><polyline fill="none" points="98.4949,90.2508 98.9288,92.8542" stroke="#ffb900" stroke-width="2" /><polyline fill="none" points="36.0136,34.278 36.8814,36.0136" stroke="#ff8900" stroke-width="2" /><polyline fill="none" points="48.5966,37.7492 48.5966,39.0508" stroke="#ff5c00" stroke-width="2" /><polyline fill="none" points="52.0678,40.3525 53.3695,42.0881" stroke="#ff3000" stroke-width="2" /><polyline fill="none" points="63.7831,42.522 71.1593,43.3898" stroke="#ec0300" stroke-width="2" /><polyline fill="none" points="78.1017,41.6542 82.8746,41.6542" stroke="#b60000" stroke-width="2" /><polyline fill="none" points="93.722,40.7864 93.722,40.7864" stroke="#7f0000" stroke-width="2" /></svg>