<?xml version="1.0" encoding="utf-8" ?>
<svg baseProfile="tiny" height="128" version="1.2" viewBox="0,0,128,128" width="128" xmlns="http://www.w3.org/2000/svg" xmlns:ev="http://www.w3.org/2001/xml-events" xmlns:xlink="http://www.w3.org/1999/xlink"><defs /><polyline fill="none" points="49.8526,13.9228 49.8526,11.2281 47.1579,11.2281 32.3368,16.6175 18.8632,27.3965 15.2702,31.4386 12.5754,39.0737 10.3298,54.3439 8.9825,84.8842 10.3298,90.2737 18.8632,108.2386 22.9053,113.6281 29.6421,117.2211 49.8526,119.0175 62.4281,118.1193 74.1053,114.5263 81.2912,110.4842 86.6807,105.993 95.6632,92.9684 98.3579,84.4351 97.4596,68.2667 92.5193,46.2596 85.3333,30.5404 79.0456,21.5579 71.8596,16.1684 61.0807,10.7789 52.5474,8.9825" stroke="#00007f" stroke-width="2" /><polyline fill="none" points="32.3368,13.0246 43.1158,32.3368 48.0561,61.9789 45.8105,73.6561 41.3193,83.986 24.2526,112.2807" stroke="#7cff79" stroke-width="2" /><polyline fill="none" points="72.3088,15.7193 65.1228,30.0912 56.1404,54.793 53.8947,65.1228 58.386,80.8421 61.0807,98.3579 65.5719,109.1368 68.2667,111.8316" stroke="#7f0000" stroke-width="2" /></svg>