<?xml version="1.0" encoding="utf-8" ?>
<svg baseProfile="tiny" height="128" version="1.2" viewBox="0,0,128,128" width="128" xmlns="http://www.w3.org/2000/svg" xmlns:ev="http://www.w3.org/2001/xml-events" xmlns:xlink="http://www.w3.org/1999/xlink"><defs /><polyline fill="none" points="63.3492,119.322 51.2,113.2475 28.6373,95.8915 21.261,88.0814 16.0542,81.139 9.9797,68.122 8.678,61.6136 9.9797,46.4271 14.7525,37.7492 25.1661,26.9017 39.4847,16.0542 50.7661,11.2814 62.0475,8.678 91.9864,8.678 104.5695,18.6576 109.3424,25.1661 113.2475,33.8441 116.7186,64.6508 116.7186,78.1017 110.6441,88.0814 104.5695,91.9864 77.2339,103.2678 63.3492,106.739 59.4441,104.5695" stroke="#00007f" stroke-width="2" /><polyline fill="none" points="87.2136,8.678 77.2339,37.3153 74.6305,53.8034 74.6305,81.139 75.9322,88.0814 84.6102,103.2678 90.6847,108.0407 95.8915,109.3424" stroke="#7cff79" stroke-width="2" /><polyline fill="none" points="27.3356,18.6576 40.7864,37.3153 44.6915,44.6915 50.7661,79.4034 50.7661,108.0407 49.8983,119.322" stroke="#7f0000" stroke-width="2" /></svg>