<?xml version="1.0" encoding="utf-8" ?>
<svg baseProfile="tiny" height="128" version="1.2" viewBox="0,0,128,128" width="128" xmlns="http://www.w3.org/2000/svg" xmlns:ev="http://www.w3.org/2001/xml-events" xmlns:xlink="http://www.w3.org/1999/xlink"><defs /><polyline fill="none" points="88.381,14.8027 82.2857,14.3673 70.0952,8.7075 43.102,8.7075 37.4422,10.8844 20.0272,20.4626 8.7075,33.0884 8.7075,56.5986 13.932,65.3061 19.5918,72.7075 26.5578,77.4966 47.4558,88.381 78.3673,92.2993 92.2993,92.2993 100.5714,90.1224 106.6667,87.0748 111.0204,82.7211 116.6803,74.0136 118.4218,68.3537 119.2925,47.0204 116.6803,38.7483 111.0204,28.7347 101.4422,20.4626 72.2721,11.7551" stroke="#00007f" stroke-width="2" /><polyline fill="none" points="68.3537,11.7551 79.2381,30.0408 84.0272,47.4558 84.898,78.8027 82.2857,82.7211" stroke="#7cff79" stroke-width="2" /><polyline fill="none" points="47.8912,9.1429 40.9252,23.9456 37.0068,35.7007 37.8776,61.8231 40.0544,71.8367 44.8435,79.6735" stroke="#7f0000" stroke-width="2" /></svg>