<?xml version="1.0" encoding="utf-8" ?>
<svg baseProfile="tiny" height="128" version="1.2" viewBox="0,0,128,128" width="128" xmlns="http://www.w3.org/2000/svg" xmlns:ev="http://www.w3.org/2001/xml-events" xmlns:xlink="http://www.w3.org/1999/xlink"><defs /><polyline fill="none" points="59.0102,14.7525 62.9153,15.1864 39.9186,31.6746 28.2034,42.522 18.6576,55.9729 12.1492,70.2915 8.678,85.0441 8.678,97.6271 12.1492,105.8712 19.9593,113.2475 31.6746,117.5864 55.1051,119.322 65.9525,115.4169 76.3661,107.1729 84.1763,94.5898 92.4203,69.8576 92.4203,55.1051 75.4983,21.261 72.0271,19.0915" stroke="#00007f" stroke-width="2" /><polyline fill="none" points="35.1458,43.8237 35.1458,47.7288 43.8237,74.1966 46.861,90.6847 45.9932,94.5898 33.4102,111.078" stroke="#0000ff" stroke-width="2" /><polyline fill="none" points="79.8373,8.678 78.1017,16.0542 68.5559,39.4847 64.6508,54.6712 63.3492,62.9153 63.3492,85.478 69.4237,95.8915 76.3661,99.3627 83.7424,99.7966" stroke="#0080ff" stroke-width="2" /><polyline fill="none" points="32.5424,58.5763 40.3525,57.2746" stroke="#15ffe1" stroke-width="2" /><polyline fill="none" points="36.4475,80.7051 44.6915,80.2712 51.2,78.1017" stroke="#7cff79" stroke-width="2" /><polyline fill="none" points="39.9186,90.2508 39.9186,90.2508" stroke="#e4ff12" stroke-width="2" /><polyline fill="none" points="33.4102,107.6068 36.0136,108.9085 45.9932,108.9085" stroke="#ff9400" stroke-width="2" /><polyline fill="none" points="59.878,52.9356 74.1966,48.1627" stroke="#ff1d00" stroke-width="2" /><polyline fill="none" points="59.878,82.0068 59.878,82.0068" stroke="#7f0000" stroke-width="2" /></svg>