<?xml version="1.0" encoding="utf-8" ?>
<svg baseProfile="tiny" height="128" version="1.2" viewBox="0,0,128,128" width="128" xmlns="http://www.w3.org/2000/svg" xmlns:ev="http://www.w3.org/2001/xml-events" xmlns:xlink="http://www.w3.org/1999/xlink"><defs /><polyline fill="none" points="39.0508,111.078 27.7695,105.4373 12.5831,90.2508 9.9797,84.6102 8.678,77.2339 8.678,63.3492 10.8475,52.9356 19.5254,36.0136 29.5051,24.7322 43.8237,15.6203 51.6339,12.5831 63.7831,10.8475 78.1017,11.7153 83.7424,13.0169 99.7966,19.9593 107.6068,26.4678 114.1153,36.8814 117.5864,47.2949 117.1525,62.0475 111.078,79.4034 95.4576,101.0983 84.1763,110.2102 65.0847,117.5864 55.1051,119.322 48.1627,118.8881 42.9559,115.8508 38.1831,110.6441 36.0136,105.8712" stroke="#00007f" stroke-width="2" /><polyline fill="none" points="29.0712,105.4373 40.7864,88.5153 48.1627,74.6305 51.2,64.6508 51.6339,52.9356 49.8983,45.1254 41.6542,27.3356 36.8814,23.4305" stroke="#0000ff" stroke-width="2" /><polyline fill="none" points="102.8339,98.061 99.3627,95.0237 88.0814,75.4983 85.9119,53.3695 88.5153,42.9559 108.0407,8.678" stroke="#0080ff" stroke-width="2" /><polyline fill="none" points="83.3085,35.5797 95.0237,35.1458" stroke="#15ffe1" stroke-width="2" /><polyline fill="none" points="81.5729,65.0847 90.2508,63.3492 94.5898,64.2169" stroke="#7cff79" stroke-width="2" /><polyline fill="none" points="90.2508,88.5153 102.4,75.0644" stroke="#e4ff12" stroke-width="2" /><polyline fill="none" points="42.9559,85.9119 43.8237,88.9492 52.0678,90.6847" stroke="#ff9400" stroke-width="2" /><polyline fill="none" points="42.9559,63.3492 51.2,65.5186 56.8407,65.5186" stroke="#ff1d00" stroke-width="2" /><polyline fill="none" points="39.0508,45.1254 51.6339,37.7492" stroke="#7f0000" stroke-width="2" /></svg>