<?xml version="1.0" encoding="utf-8" ?>
<svg baseProfile="tiny" height="128" version="1.2" viewBox="0,0,128,128" width="128" xmlns="http://www.w3.org/2000/svg" xmlns:ev="http://www.w3.org/2001/xml-events" xmlns:xlink="http://www.w3.org/1999/xlink"><defs /><polyline fill="none" points="17.7898,48.1627 19.5254,44.2576 25.6,42.522 28.6373,43.3898 35.5797,49.8983 38.1831,65.5186 32.9763,72.8949 24.2983,75.9322 20.3932,69.8576 17.3559,45.9932 23.4305,44.6915" stroke="#00007f" stroke-width="2" /><polyline fill="none" points="27.7695,46.4271 29.5051,55.9729" stroke="#0000f1" stroke-width="2" /><polyline fill="none" points="24.7322,58.5763 37.3153,58.1424" stroke="#004cff" stroke-width="2" /><polyline fill="none" points="31.6746,62.4814 24.2983,68.9898 29.939,66.3864 36.0136,66.3864" stroke="#00b0ff" stroke-width="2" /><polyline fill="none" points="36.8814,39.0508 44.2576,48.1627 47.2949,56.8407 46.861,66.8203 38.6169,80.2712" stroke="#29ffcd" stroke-width="2" /><polyline fill="none" points="53.8034,55.539 67.2542,50.7661 81.139,48.1627" stroke="#7cff79" stroke-width="2" /><polyline fill="none" points="95.4576,8.678 93.722,8.678 88.0814,16.922 86.3458,21.6949 85.9119,30.3729 91.1186,32.5424 99.7966,26.9017 103.2678,22.1288 102.8339,14.3186 98.9288,10.8475 96.3254,10.4136" stroke="#cdff29" stroke-width="2" /><polyline fill="none" points="95.4576,39.4847 94.1559,57.7085 94.1559,59.4441 95.0237,57.7085 93.2881,62.4814 76.3661,85.0441 62.0475,97.6271" stroke="#ffc400" stroke-width="2" /><polyline fill="none" points="95.4576,68.5559 100.2305,70.2915 114.5492,84.6102 119.322,83.7424" stroke="#ff6700" stroke-width="2" /><polyline fill="none" points="77.6678,52.0678 106.739,45.9932 114.5492,45.5593 115.8508,47.2949" stroke="#f10700" stroke-width="2" /><polyline fill="none" points="12.5831,10.8475 8.678,14.7525" stroke="#7f0000" stroke-width="2" /></svg>