<?xml version="1.0" encoding="utf-8" ?>
<svg baseProfile="tiny" height="128" version="1.2" viewBox="0,0,128,128" width="128" xmlns="http://www.w3.org/2000/svg" xmlns:ev="http://www.w3.org/2001/xml-events" xmlns:xlink="http://www.w3.org/1999/xlink"><defs /><polyline fill="none" points="78.9695,10.4136 72.461,8.678 62.0475,8.678 43.8237,13.0169 32.9763,19.5254 21.261,32.1085 13.4508,48.1627 11.2814,58.5763 11.2814,82.0068 16.0542,94.1559 26.0339,102.4 33.8441,105.8712 56.8407,111.078 85.478,111.078 102.4,105.8712 112.3797,98.9288 116.7186,92.4203 119.322,85.478 119.322,72.461 114.5492,55.539 110.6441,48.1627 100.2305,34.278 86.7797,21.6949 82.0068,15.1864" stroke="#00007f" stroke-width="2" /><polyline fill="none" points="25.6,14.7525 30.3729,27.3356 30.3729,55.9729 27.7695,67.6881 25.6,72.461 25.6,77.2339 18.2237,98.4949 8.678,115.8508" stroke="#7cff79" stroke-width="2" /><polyline fill="none" points="100.2305,27.3356 100.2305,30.3729 88.9492,51.2 82.0068,71.1593 80.7051,78.5356 80.7051,101.9661 83.3085,109.7763" stroke="#7f0000" stroke-width="2" /></svg>