<?xml version="1.0" encoding="utf-8" ?>
<svg baseProfile="tiny" height="128" version="1.2" viewBox="0,0,128,128" width="128" xmlns="http://www.w3.org/2000/svg" xmlns:ev="http://www.w3.org/2001/xml-events" xmlns:xlink="http://www.w3.org/1999/xlink"><defs /><polyline fill="none" points="52.0678,66.8203 46.4271,52.5017 34.7119,47.2949 29.0712,46.861 25.6,47.7288 12.5831,55.9729 8.678,64.6508 9.1119,75.0644 13.0169,84.6102 20.3932,89.3831 29.939,91.9864 40.3525,91.9864 47.2949,87.2136 52.0678,73.3288 53.3695,67.2542 51.6339,65.9525" stroke="#00007f" stroke-width="2" /><polyline fill="none" points="81.139,100.6644 81.139,73.3288 77.2339,25.1661 79.4034,16.0542 82.4407,9.5458 88.0814,8.678 94.5898,11.7153 98.061,16.0542 99.3627,20.3932 95.4576,39.4847 94.1559,59.0102 94.1559,99.3627 96.3254,115.4169 93.2881,118.8881 86.3458,119.322 82.4407,118.0203 80.7051,115.8508 79.4034,101.5322" stroke="#0028ff" stroke-width="2" /><polyline fill="none" points="79.4034,101.5322 85.9119,99.3627 95.0237,98.4949 84.1763,99.3627 91.1186,98.9288 82.0068,101.9661 93.2881,101.5322 87.6475,103.2678 92.8542,102.8339 85.0441,106.3051 94.5898,108.0407 88.9492,110.6441 92.4203,111.5119 91.5525,112.3797 87.2136,113.6814 91.1186,114.5492 88.5153,115.8508 92.8542,113.6814 87.6475,111.078 88.5153,105.8712 87.2136,105.0034 79.8373,102.4 77.6678,105.4373" stroke="#00d4ff" stroke-width="2" /><polyline fill="none" points="86.7797,18.2237 85.9119,26.0339 87.2136,58.1424 85.0441,79.8373 88.0814,94.5898" stroke="#7cff79" stroke-width="2" /><polyline fill="none" points="85.478,21.6949 89.3831,21.6949 92.4203,24.7322 95.4576,32.5424 96.3254,39.0508 95.8915,53.3695 88.5153,80.7051 88.0814,95.8915 85.9119,97.1932" stroke="#ffe500" stroke-width="2" /><polyline fill="none" points="13.8847,64.2169 23.4305,63.7831 35.1458,61.6136" stroke="#ff4600" stroke-width="2" /><polyline fill="none" points="35.5797,58.1424 36.4475,75.0644" stroke="#7f0000" stroke-width="2" /></svg>