<?xml version="1.0" encoding="utf-8" ?>
<svg baseProfile="tiny" height="128" version="1.2" viewBox="0,0,128,128" width="128" xmlns="http://www.w3.org/2000/svg" xmlns:ev="http://www.w3.org/2001/xml-events" xmlns:xlink="http://www.w3.org/1999/xlink"><defs /><polyline fill="none" points="119.322,21.261 111.5119,16.0542 93.722,10.4136 82.0068,8.678 68.5559,9.1119 49.4644,15.1864 37.3153,20.3932 22.9966,33.4102 13.0169,47.7288 8.678,58.1424 8.678,64.6508 10.4136,68.122 16.4881,76.8 26.4678,85.9119 33.8441,88.9492 48.1627,89.3831 68.5559,85.9119 79.4034,80.7051 87.6475,74.6305 96.7593,64.2169 111.9458,39.4847 116.2847,29.5051" stroke="#00007f" stroke-width="2" /><polyline fill="none" points="94.5898,13.0169 91.1186,14.3186 88.9492,17.3559 81.139,38.1831 80.2712,57.2746 85.9119,65.9525" stroke="#004cff" stroke-width="2" /><polyline fill="none" points="51.2,17.7898 52.5017,25.1661 51.6339,35.5797 50.3322,40.3525 46.4271,46.861 29.939,59.878 17.7898,66.3864 9.9797,68.9898" stroke="#29ffcd" stroke-width="2" /><polyline fill="none" points="43.3898,26.4678 52.9356,27.3356" stroke="#cdff29" stroke-width="2" /><polyline fill="none" points="35.5797,42.522 52.5017,46.861" stroke="#ff6700" stroke-width="2" /><polyline fill="none" points="20.3932,53.8034 26.4678,63.3492 31.6746,68.122" stroke="#7f0000" stroke-width="2" /></svg>