<?xml version="1.0" encoding="utf-8" ?>
<svg baseProfile="tiny" height="128" version="1.2" viewBox="0,0,128,128" width="128" xmlns="http://www.w3.org/2000/svg" xmlns:ev="http://www.w3.org/2001/xml-events" xmlns:xlink="http://www.w3.org/1999/xlink"><defs /><polyline fill="none" points="45.2789,119.2925 29.1701,114.068 17.415,101.4422 12.1905,93.1701 8.7075,75.7551 9.5782,62.6939 12.6259,48.7619 19.1565,35.7007 26.5578,25.2517 36.5714,16.9796 47.4558,11.3197 58.3401,8.7075 68.3537,8.7075 81.415,12.1905 88.8163,16.1088 101.0068,25.6871 108.8435,39.1837 110.1497,58.3401 107.9728,69.2245 98.8299,90.1224 86.6395,103.1837 75.7551,108.8435 49.1973,115.8095 43.5374,115.8095 40.4898,114.068" stroke="#00007f" stroke-width="2" /><polyline fill="none" points="77.932,92.7347 72.2721,91.8639 68.7891,84.0272 67.483,72.7075 67.9184,59.2109 70.5306,47.8912 73.5782,39.619 77.932,32.6531 86.6395,26.1224" stroke="#0010ff" stroke-width="2" /><polyline fill="none" points="26.9932,36.5714 33.9592,40.0544 39.1837,45.7143 42.6667,58.3401 42.6667,80.5442 40.0544,89.2517 35.2653,96.6531" stroke="#00a4ff" stroke-width="2" /><polyline fill="none" points="31.7823,50.9388 45.7143,41.7959" stroke="#3fffb7" stroke-width="2" /><polyline fill="none" points="37.0068,67.9184 41.3605,66.1769 51.8095,67.0476" stroke="#b7ff3f" stroke-width="2" /><polyline fill="none" points="36.1361,80.1088 49.1973,88.381" stroke="#ffb900" stroke-width="2" /><polyline fill="none" points="62.2585,37.8776 69.6599,37.0068 90.5578,43.102" stroke="#ff3000" stroke-width="2" /><polyline fill="none" points="61.3878,62.2585 78.3673,62.6939" stroke="#7f0000" stroke-width="2" /></svg>