<?xml version="1.0" encoding="utf-8" ?>
<svg baseProfile="tiny" height="128" version="1.2" viewBox="0,0,128,128" width="128" xmlns="http://www.w3.org/2000/svg" xmlns:ev="http://www.w3.org/2001/xml-events" xmlns:xlink="http://www.w3.org/1999/xlink"><defs /><polyline fill="none" points="42.9559,18.6576 33.8441,16.0542 23.4305,16.4881 16.0542,19.0915 12.1492,23.4305 8.678,31.6746 9.1119,39.4847 16.0542,46.861 24.7322,50.3322 38.1831,50.3322 42.0881,47.7288 46.4271,42.0881 49.0305,32.9763 49.0305,26.0339 43.3898,19.0915 38.1831,17.3559" stroke="#00007f" stroke-width="2" /><polyline fill="none" points="33.4102,16.4881 29.939,19.0915 28.6373,23.8644 31.2407,28.6373 41.2203,36.8814 41.2203,49.0305 42.9559,52.0678" stroke="#0028ff" stroke-width="2" /><polyline fill="none" points="83.7424,9.1119 83.3085,9.9797" stroke="#00d4ff" stroke-width="2" /><polyline fill="none" points="83.7424,8.678 75.9322,23.4305 71.5932,28.6373 73.7627,41.2203" stroke="#7cff79" stroke-width="2" /><polyline fill="none" points="73.7627,41.2203 74.1966,42.9559" stroke="#ffe500" stroke-width="2" /><polyline fill="none" points="73.7627,39.4847 84.6102,59.0102 94.5898,69.8576 98.9288,78.5356" stroke="#ff4600" stroke-width="2" /><polyline fill="none" points="81.139,15.1864 84.1763,13.4508 90.2508,16.0542 101.0983,27.7695 107.6068,39.9186 113.6814,58.5763 119.322,72.0271" stroke="#7f0000" stroke-width="2" /></svg>