<?xml version="1.0" encoding="utf-8" ?>
<svg baseProfile="tiny" height="128" version="1.2" viewBox="0,0,128,128" width="128" xmlns="http://www.w3.org/2000/svg" xmlns:ev="http://www.w3.org/2001/xml-events" xmlns:xlink="http://www.w3.org/1999/xlink"><defs /><polyline fill="none" points="82.2857,15.2381 74.8844,10.8844 62.2585,8.7075 51.3741,9.1429 40.4898,12.1905 34.8299,14.8027 24.381,24.381 13.4966,41.3605 8.7075,63.5646 8.7075,81.415 10.449,89.6871 16.9796,101.0068 22.6395,106.2313 35.7007,114.068 42.6667,116.6803 64.8707,118.4218 72.7075,117.551 92.7347,110.1497 107.5374,97.0884 114.5034,85.7687 118.4218,73.5782 119.2925,47.4558 117.9864,41.7959 108.8435,27.8639 99.7007,20.0272 87.9456,14.3673 75.7551,11.3197 66.1769,10.8844" stroke="#00007f" stroke-width="2" /><polyline fill="none" points="20.0272,31.3469 37.0068,27.8639 43.9728,27.8639 50.9388,30.0408 59.2109,34.8299 66.6122,41.7959 69.2245,49.1973 69.2245,57.9048 64.0,72.2721 52.2449,87.5102 37.0068,97.9592 18.7211,104.0544" stroke="#00d4ff" stroke-width="2" /><polyline fill="none" points="112.3265,31.7823 111.4558,29.6054 109.2789,28.2993 102.7483,26.9932 89.2517,26.9932 78.3673,30.4762 70.0952,37.8776 67.0476,42.2313 66.1769,53.551 73.5782,69.2245 80.9796,77.4966 85.3333,80.5442 93.1701,82.2857 105.3605,81.8503 114.5034,79.6735 119.2925,74.8844" stroke="#ffe500" stroke-width="2" /><polyline fill="none" points="53.1156,117.9864 49.1973,107.102 48.7619,96.2177 50.068,93.6054 53.1156,89.2517 59.6463,84.898 75.3197,78.8027 81.8503,78.8027 88.381,82.7211 92.7347,91.4286 96.2177,101.8776 96.6531,107.9728" stroke="#7f0000" stroke-width="2" /></svg>