<?xml version="1.0" encoding="utf-8" ?>
<svg baseProfile="tiny" height="128" version="1.2" viewBox="0,0,128,128" width="128" xmlns="http://www.w3.org/2000/svg" xmlns:ev="http://www.w3.org/2001/xml-events" xmlns:xlink="http://www.w3.org/1999/xlink"><defs /><polyline fill="none" points="104.1356,22.5627 92.4203,31.2407 88.9492,36.8814 91.9864,48.5966 95.4576,52.0678 103.2678,54.6712 111.5119,52.0678 114.9831,48.5966 117.1525,42.9559 110.6441,18.6576 105.4373,16.4881 98.9288,19.0915" stroke="#00007f" stroke-width="2" /><polyline fill="none" points="20.3932,53.8034 18.2237,57.7085 10.8475,64.2169 8.678,68.5559 8.678,70.2915 13.0169,71.5932 19.9593,71.1593 21.6949,68.9898 22.1288,62.9153 27.3356,55.1051 40.3525,40.3525" stroke="#00d4ff" stroke-width="2" /><polyline fill="none" points="42.0881,39.0508 50.7661,31.6746 56.8407,24.2983 57.2746,20.3932 55.9729,14.3186 54.2373,9.9797 49.8983,8.678 42.522,9.5458 35.1458,13.4508 30.3729,22.9966 28.2034,35.1458 17.7898,58.5763" stroke="#ffe500" stroke-width="2" /><polyline fill="none" points="108.0407,19.5254 104.1356,16.922 92.4203,24.7322 87.6475,39.9186 88.0814,47.7288 90.6847,50.7661 103.2678,55.9729 108.9085,54.2373 116.7186,47.2949 119.322,41.2203 119.322,37.3153 114.1153,27.7695 107.6068,25.1661" stroke="#7f0000" stroke-width="2" /></svg>