<?xml version="1.0" encoding="utf-8" ?>
<svg baseProfile="tiny" height="128" version="1.2" viewBox="0,0,128,128" width="128" xmlns="http://www.w3.org/2000/svg" xmlns:ev="http://www.w3.org/2001/xml-events" xmlns:xlink="http://www.w3.org/1999/xlink"><defs /><polyline fill="none" points="13.8847,39.0508 20.8271,29.939 33.8441,19.9593 46.4271,13.8847 62.9153,8.678 77.6678,9.1119 95.4576,14.3186 107.6068,23.4305 114.9831,33.8441 118.4542,42.522 119.322,64.2169 115.8508,72.461 107.6068,82.0068 94.5898,92.8542 89.3831,95.8915 65.9525,101.0983 46.861,101.0983 31.6746,96.7593 28.2034,94.5898 18.2237,79.8373 12.5831,62.9153 8.678,45.1254 9.5458,37.7492 10.8475,36.4475" stroke="#00007f" stroke-width="2" /><polyline fill="none" points="36.0136,29.5051 45.9932,35.5797 52.0678,56.4068 51.6339,69.8576 48.5966,84.1763 43.3898,91.1186 40.7864,91.9864" stroke="#0000ff" stroke-width="2" /><polyline fill="none" points="90.6847,25.6 82.0068,36.0136 73.3288,55.9729 71.5932,62.4814 72.0271,65.5186 79.8373,82.4407 87.6475,90.6847" stroke="#0080ff" stroke-width="2" /><polyline fill="none" points="76.8,82.0068 79.8373,78.5356" stroke="#15ffe1" stroke-width="2" /><polyline fill="none" points="69.8576,70.7254 78.1017,66.3864 79.8373,64.2169" stroke="#7cff79" stroke-width="2" /><polyline fill="none" points="68.122,54.6712 82.8746,45.5593" stroke="#e4ff12" stroke-width="2" /><polyline fill="none" points="84.1763,34.7119 84.1763,34.7119" stroke="#ff9400" stroke-width="2" /><polyline fill="none" points="37.3153,39.9186 47.7288,39.9186" stroke="#ff1d00" stroke-width="2" /><polyline fill="none" points="48.1627,53.8034 57.2746,48.5966" stroke="#7f0000" stroke-width="2" /></svg>