<?xml version="1.0" encoding="utf-8" ?>
<svg baseProfile="tiny" height="128" version="1.2" viewBox="0,0,128,128" width="128" xmlns="http://www.w3.org/2000/svg" xmlns:ev="http://www.w3.org/2001/xml-events" xmlns:xlink="http://www.w3.org/1999/xlink"><defs /><polyline fill="none" points="16.4881,89.3831 13.4508,81.139 13.8847,66.3864 16.922,54.6712 22.1288,42.522 37.3153,25.1661 45.9932,18.6576 56.4068,13.4508 75.4983,8.678 91.9864,9.5458 98.9288,13.4508 105.4373,19.5254 110.6441,28.6373 115.4169,38.6169 119.322,56.8407 119.322,65.0847 114.5492,76.3661 92.8542,97.6271 82.0068,106.3051 69.8576,113.2475 56.4068,116.7186 45.9932,117.5864 36.8814,116.2847 28.6373,112.3797 19.9593,105.8712 8.678,90.6847" stroke="#00007f" stroke-width="2" /><polyline fill="none" points="50.7661,17.3559 52.0678,42.0881 47.7288,83.7424 45.5593,95.4576 41.2203,107.1729 32.9763,117.5864" stroke="#0000d5" stroke-width="2" /><polyline fill="none" points="42.0881,25.6 51.6339,24.2983 62.4814,24.2983 65.5186,25.1661" stroke="#001cff" stroke-width="2" /><polyline fill="none" points="51.2,38.6169 66.3864,38.6169" stroke="#006cff" stroke-width="2" /><polyline fill="none" points="43.3898,55.539 63.7831,54.6712" stroke="#00b8ff" stroke-width="2" /><polyline fill="none" points="40.7864,68.5559 47.7288,70.2915 54.2373,74.1966" stroke="#1cffda" stroke-width="2" /><polyline fill="none" points="38.6169,82.8746 50.3322,89.3831" stroke="#5cff9a" stroke-width="2" /><polyline fill="none" points="35.5797,96.7593 47.2949,108.0407" stroke="#9aff5c" stroke-width="2" /><polyline fill="none" points="28.2034,105.8712 39.4847,108.0407" stroke="#daff1c" stroke-width="2" /><polyline fill="none" points="102.8339,11.7153 92.8542,24.7322 85.478,39.4847 79.4034,65.5186 78.1017,85.0441 78.1017,94.5898 80.2712,99.7966 91.5525,107.6068 101.5322,111.078" stroke="#ffcb00" stroke-width="2" /><polyline fill="none" points="86.3458,25.1661 93.2881,25.1661 103.7017,28.2034" stroke="#ff8500" stroke-width="2" /><polyline fill="none" points="80.2712,38.1831 97.1932,38.1831" stroke="#ff3b00" stroke-width="2" /><polyline fill="none" points="78.1017,48.5966 93.2881,49.8983" stroke="#d50000" stroke-width="2" /><polyline fill="none" points="74.1966,64.6508 88.9492,62.4814" stroke="#7f0000" stroke-width="2" /></svg>