<?xml version="1.0" encoding="utf-8" ?>
<svg baseProfile="tiny" height="128" version="1.2" viewBox="0,0,128,128" width="128" xmlns="http://www.w3.org/2000/svg" xmlns:ev="http://www.w3.org/2001/xml-events" xmlns:xlink="http://www.w3.org/1999/xlink"><defs /><polyline fill="none" points="119.322,17.3559 69.8576,15.6203 49.8983,19.9593 32.1085,32.1085 20.3932,45.9932 10.4136,64.6508 8.678,74.1966 8.678,83.7424 12.1492,90.6847 20.8271,96.7593 27.3356,97.6271 48.1627,97.6271 65.5186,93.2881 82.4407,86.3458 90.6847,81.139 99.3627,73.7627 105.4373,63.3492 110.6441,48.5966 111.5119,22.5627 109.7763,18.2237 108.0407,17.3559" stroke="#00007f" stroke-width="2" /><polyline fill="none" points="59.878,16.4881 53.8034,31.2407 50.3322,47.7288 52.0678,81.139 56.4068,86.3458" stroke="#00d4ff" stroke-width="2" /><polyline fill="none" points="88.0814,8.678 85.478,16.922 85.478,26.0339 83.7424,31.6746 82.8746,65.5186 85.0441,74.6305 92.4203,95.8915" stroke="#ffe500" stroke-width="2" /><polyline fill="none" points="45.9932,71.5932 49.4644,94.1559" stroke="#7f0000" stroke-width="2" /></svg>