<?xml version="1.0" encoding="utf-8" ?>
<svg baseProfile="tiny" height="128" version="1.2" viewBox="0,0,128,128" width="128" xmlns="http://www.w3.org/2000/svg" xmlns:ev="http://www.w3.org/2001/xml-events" xmlns:xlink="http://www.w3.org/1999/xlink"><defs /><polyline fill="none" points="57.4694,17.8503 53.551,18.7211 34.3946,29.6054 16.9796,44.4082 10.449,56.5986 9.1429,64.4354 8.7075,78.3673 10.0136,86.2041 16.1088,98.8299 25.2517,108.8435 39.1837,116.2449 55.2925,119.2925 71.8367,119.2925 80.1088,116.6803 94.4762,106.6667 104.9252,93.1701 108.4082,85.3333 111.8912,66.1769 111.8912,56.5986 110.1497,47.4558 105.7959,39.619 92.7347,25.6871 84.898,20.0272 64.8707,10.8844 54.4218,8.7075" stroke="#00007f" stroke-width="2" /><polyline fill="none" points="35.7007,32.6531 42.6667,34.8299 47.4558,40.9252" stroke="#0080ff" stroke-width="2" /><polyline fill="none" points="51.8095,64.4354 53.551,70.966" stroke="#7cff79" stroke-width="2" /><polyline fill="none" points="32.6531,39.619 35.7007,37.4422 41.7959,37.4422 46.585,41.7959 50.9388,51.3741 53.551,68.3537 53.551,76.6259 48.3265,99.7007 41.7959,109.7143 32.6531,118.4218" stroke="#ff9400" stroke-width="2" /><polyline fill="none" points="90.1224,20.4626 71.4014,61.8231 71.4014,77.0612 74.449,90.5578 79.2381,98.8299 87.9456,105.3605" stroke="#7f0000" stroke-width="2" /></svg>