<?xml version="1.0" encoding="utf-8" ?>
<svg baseProfile="tiny" height="128" version="1.2" viewBox="0,0,128,128" width="128" xmlns="http://www.w3.org/2000/svg" xmlns:ev="http://www.w3.org/2001/xml-events" xmlns:xlink="http://www.w3.org/1999/xlink"><defs /><polyline fill="none" points="90.2508,104.5695 75.9322,107.6068 55.9729,107.1729 41.2203,101.9661 32.1085,97.6271 18.2237,88.0814 12.1492,81.139 9.1119,73.7627 8.678,67.6881 8.678,59.0102 10.8475,51.6339 21.261,29.5051 28.2034,20.3932 34.7119,15.6203 49.0305,10.8475 67.6881,8.678 85.9119,8.678 102.4,14.3186 106.739,17.3559 114.1153,25.6 118.0203,34.7119 119.322,43.3898 118.8881,64.6508 108.4746,96.7593 104.5695,101.5322 99.3627,104.1356 68.5559,114.5492" stroke="#00007f" stroke-width="2" /><polyline fill="none" points="20.8271,23.8644 23.8644,23.8644 40.3525,32.9763 44.6915,38.6169 50.3322,48.5966 54.2373,59.4441 55.9729,72.461 55.539,101.5322" stroke="#0080ff" stroke-width="2" /><polyline fill="none" points="102.4,98.4949 98.9288,98.9288 96.7593,97.1932 85.478,82.0068 71.1593,56.8407 68.5559,49.8983 67.6881,26.9017 70.2915,21.6949 78.1017,12.1492" stroke="#7cff79" stroke-width="2" /><polyline fill="none" points="57.7085,9.9797 58.5763,54.6712 67.2542,85.0441 75.9322,104.1356" stroke="#ff9400" stroke-width="2" /><polyline fill="none" points="19.0915,71.5932 26.9017,67.2542 42.9559,62.0475 76.8,57.2746 87.2136,57.2746" stroke="#7f0000" stroke-width="2" /></svg>