<?xml version="1.0" encoding="utf-8" ?>
<svg baseProfile="tiny" height="128" version="1.2" viewBox="0,0,128,128" width="128" xmlns="http://www.w3.org/2000/svg" xmlns:ev="http://www.w3.org/2001/xml-events" xmlns:xlink="http://www.w3.org/1999/xlink"><defs /><polyline fill="none" points="50.7661,10.8475 44.2576,10.4136 38.1831,15.6203 12.1492,51.6339 9.5458,59.878 8.678,66.8203 13.8847,89.8169 21.6949,102.8339 27.7695,108.0407 35.1458,111.078 45.5593,114.1153 65.5186,117.1525 97.6271,119.322 108.0407,118.0203 112.8136,115.4169 114.5492,111.9458 115.8508,97.6271 113.2475,73.3288 108.9085,59.878 102.8339,48.5966 90.2508,36.8814 65.5186,21.6949 54.2373,16.922 32.9763,12.1492" stroke="#00007f" stroke-width="2" /><polyline fill="none" points="45.5593,16.922 32.9763,49.4644 22.9966,87.2136 15.1864,103.7017" stroke="#7cff79" stroke-width="2" /><polyline fill="none" points="52.0678,8.678 62.4814,13.4508 62.9153,38.1831 59.0102,70.7254 56.4068,108.4746" stroke="#7f0000" stroke-width="2" /></svg>