<?xml version="1.0" encoding="utf-8" ?>
<svg baseProfile="tiny" height="128" version="1.2" viewBox="0,0,128,128" width="128" xmlns="http://www.w3.org/2000/svg" xmlns:ev="http://www.w3.org/2001/xml-events" xmlns:xlink="http://www.w3.org/1999/xlink"><defs /><polyline fill="none" points="86.7797,8.678 40.3525,8.678 32.5424,10.4136 26.9017,14.7525 19.0915,28.2034 9.5458,53.8034 8.678,70.2915 12.1492,78.1017 20.3932,87.6475 48.1627,96.7593 94.5898,97.6271 107.6068,95.8915 114.5492,91.5525 119.322,68.122 118.4542,39.0508 110.6441,21.6949 104.1356,16.0542 95.4576,12.1492 88.9492,10.8475 74.1966,10.8475 69.8576,9.5458" stroke="#00007f" stroke-width="2" /><polyline fill="none" points="19.5254,38.1831 19.9593,35.1458 24.2983,32.1085 36.4475,32.1085 41.2203,32.9763 53.8034,40.3525 56.4068,43.8237 57.2746,46.861 62.0475,51.2 64.6508,63.3492 65.5186,76.8 70.2915,87.6475 72.8949,91.5525 84.6102,93.2881 88.9492,95.0237" stroke="#7cff79" stroke-width="2" /><polyline fill="none" points="99.7966,88.9492 103.2678,85.0441 108.0407,83.3085 110.6441,60.3119 108.0407,41.6542 102.4,33.4102 87.2136,25.6 68.5559,19.9593 64.6508,16.0542" stroke="#7f0000" stroke-width="2" /></svg>