<?xml version="1.0" encoding="utf-8" ?>
<svg baseProfile="tiny" height="128" version="1.2" viewBox="0,0,128,128" width="128" xmlns="http://www.w3.org/2000/svg" xmlns:ev="http://www.w3.org/2001/xml-events" xmlns:xlink="http://www.w3.org/1999/xlink"><defs /><polyline fill="none" points="78.9695,13.8847 68.122,9.1119 49.8983,8.678 36.8814,12.5831 26.4678,18.2237 19.0915,23.4305 13.8847,30.3729 8.678,43.8237 8.678,61.1797 12.5831,74.6305 19.9593,85.0441 29.5051,93.2881 42.522,98.9288 59.4441,103.7017 73.7627,103.7017 86.3458,101.0983 104.1356,94.5898 113.2475,88.5153 118.0203,79.8373 119.322,67.2542 117.1525,57.7085 110.6441,45.9932 101.5322,35.5797 85.478,23.4305 75.0644,22.9966 69.4237,25.6" stroke="#00007f" stroke-width="2" /><polyline fill="none" points="91.5525,95.0237 85.9119,91.1186 78.5356,75.0644 75.4983,63.7831 74.1966,45.9932 76.8,37.3153 84.1763,26.4678 92.4203,20.8271 100.2305,19.5254" stroke="#7cff79" stroke-width="2" /><polyline fill="none" points="30.3729,13.0169 29.0712,15.1864 34.7119,33.4102 34.7119,42.9559 32.5424,52.0678 27.3356,65.5186 22.1288,72.8949 13.8847,81.5729 9.9797,83.3085" stroke="#7f0000" stroke-width="2" /></svg>