<?xml version="1.0" encoding="utf-8" ?>
<svg baseProfile="tiny" height="128" version="1.2" viewBox="0,0,128,128" width="128" xmlns="http://www.w3.org/2000/svg" xmlns:ev="http://www.w3.org/2001/xml-events" xmlns:xlink="http://www.w3.org/1999/xlink"><defs /><polyline fill="none" points="48.1627,11.2814 79.8373,10.8475 98.9288,18.2237 113.6814,31.6746 115.8508,36.0136 119.322,49.0305 119.322,68.5559 118.0203,72.8949 109.3424,87.2136 102.4,95.8915 76.3661,108.4746 55.1051,110.2102 39.0508,108.4746 26.9017,98.4949 10.4136,75.4983 8.678,66.8203 9.5458,46.4271 17.7898,30.3729 23.8644,23.4305 29.0712,19.0915 39.4847,14.3186 49.4644,12.5831" stroke="#00007f" stroke-width="2" /><polyline fill="none" points="91.5525,14.3186 87.2136,41.6542 87.2136,75.9322 92.4203,95.0237 96.3254,98.9288" stroke="#0080ff" stroke-width="2" /><polyline fill="none" points="33.4102,17.3559 39.0508,20.8271 42.9559,27.7695 44.2576,37.3153 44.2576,50.3322 43.3898,73.3288 39.4847,84.6102 32.9763,95.4576" stroke="#7cff79" stroke-width="2" /><polyline fill="none" points="57.7085,11.2814 57.7085,87.2136 59.4441,100.2305" stroke="#ff9400" stroke-width="2" /><polyline fill="none" points="71.5932,8.678 71.1593,14.7525" stroke="#7f0000" stroke-width="2" /></svg>