<?xml version="1.0" encoding="utf-8" ?>
<svg baseProfile="tiny" height="128" version="1.2" viewBox="0,0,128,128" width="128" xmlns="http://www.w3.org/2000/svg" xmlns:ev="http://www.w3.org/2001/xml-events" xmlns:xlink="http://www.w3.org/1999/xlink"><defs /><polyline fill="none" points="69.4237,13.8847 66.3864,11.7153 60.7458,10.4136 38.6169,10.4136 28.6373,13.0169 20.8271,17.3559 15.6203,22.5627 12.5831,28.6373 9.1119,42.522 8.678,56.4068 13.8847,66.8203 19.5254,73.7627 29.939,81.5729 45.9932,90.2508 64.2169,96.3254 89.8169,96.7593 101.5322,88.9492 110.2102,79.4034 114.5492,72.0271 117.5864,65.0847 119.322,55.539 118.4542,43.3898 114.1153,34.7119 109.7763,29.0712 97.6271,20.8271 85.0441,16.922 56.8407,15.1864" stroke="#00007f" stroke-width="2" /><polyline fill="none" points="37.3153,8.678 37.3153,10.8475 43.3898,19.9593 46.861,28.6373 47.7288,59.878 39.4847,75.9322 34.7119,79.4034" stroke="#7cff79" stroke-width="2" /><polyline fill="none" points="94.1559,15.6203 88.5153,21.6949 85.0441,36.4475 82.4407,49.8983 82.4407,66.8203 85.0441,73.7627 88.9492,79.8373 97.6271,88.5153" stroke="#7f0000" stroke-width="2" /></svg>