<?xml version="1.0" encoding="utf-8" ?>
<svg baseProfile="tiny" height="128" version="1.2" viewBox="0,0,128,128" width="128" xmlns="http://www.w3.org/2000/svg" xmlns:ev="http://www.w3.org/2001/xml-events" xmlns:xlink="http://www.w3.org/1999/xlink"><defs /><polyline fill="none" points="46.4271,15.1864 42.522,14.7525 36.8814,16.0542 28.2034,22.5627 23.4305,26.9017 12.5831,42.522 9.9797,49.8983 8.678,62.9153 10.4136,82.0068 26.4678,101.9661 33.4102,107.6068 42.522,111.9458 49.0305,113.6814 61.1797,113.6814 82.0068,108.0407 96.3254,99.7966 106.739,90.2508 118.0203,71.5932 119.322,62.9153 113.2475,40.7864 108.9085,32.9763 101.9661,26.9017 77.2339,12.1492 66.8203,9.9797 55.9729,10.4136 46.4271,13.4508 35.5797,19.9593" stroke="#00007f" stroke-width="2" /><polyline fill="none" points="26.9017,21.6949 32.5424,19.0915 39.0508,17.7898 46.4271,18.2237 51.6339,19.9593 55.9729,22.1288 62.0475,27.3356 66.8203,36.8814 64.2169,52.5017 55.9729,81.139 37.3153,105.8712 32.9763,108.9085 31.2407,108.4746" stroke="#7cff79" stroke-width="2" /><polyline fill="none" points="104.5695,8.678 94.1559,13.0169 82.8746,19.9593 75.4983,36.0136 73.3288,58.1424 74.6305,66.3864 84.1763,91.1186 91.5525,96.7593 96.7593,98.061 105.8712,98.4949" stroke="#7f0000" stroke-width="2" /></svg>