<?xml version="1.0" encoding="utf-8" ?>
<svg baseProfile="tiny" height="128" version="1.2" viewBox="0,0,128,128" width="128" xmlns="http://www.w3.org/2000/svg" xmlns:ev="http://www.w3.org/2001/xml-events" xmlns:xlink="http://www.w3.org/1999/xlink"><defs /><polyline fill="none" points="71.5932,43.3898 56.8407,39.4847 39.9186,38.6169 27.7695,40.7864 16.922,46.4271 10.4136,55.1051 8.678,65.0847 11.7153,75.9322 19.9593,84.1763 32.1085,90.6847 52.9356,97.6271 60.7458,98.4949 65.9525,96.3254 73.7627,89.3831 76.3661,83.7424 79.8373,64.6508 79.8373,49.4644" stroke="#00007f" stroke-width="2" /><polyline fill="none" points="23.4305,45.1254 26.9017,49.0305 32.9763,52.9356 55.1051,58.5763 64.2169,58.1424 76.3661,54.2373" stroke="#00d4ff" stroke-width="2" /><polyline fill="none" points="102.8339,109.7763 107.1729,104.5695 108.4746,97.1932 106.739,89.8169 98.061,73.7627 91.9864,55.9729 90.2508,23.8644 91.9864,13.4508 94.1559,10.8475 104.1356,8.678 109.3424,10.8475 114.9831,23.4305 119.322,43.8237 117.5864,103.2678 114.1153,107.6068 106.3051,106.739" stroke="#ffe500" stroke-width="2" /><polyline fill="none" points="114.1153,103.7017 112.3797,103.2678 106.3051,105.0034 99.3627,110.2102 100.6644,112.3797 107.1729,111.5119 112.3797,107.6068 114.5492,101.5322 113.2475,95.0237" stroke="#7f0000" stroke-width="2" /></svg>