<?xml version="1.0" encoding="utf-8" ?>
<svg baseProfile="tiny" height="128" version="1.2" viewBox="0,0,128,128" width="128" xmlns="http://www.w3.org/2000/svg" xmlns:ev="http://www.w3.org/2001/xml-events" xmlns:xlink="http://www.w3.org/1999/xlink"><defs /><polyline fill="none" points="70.2915,13.4508 63.3492,8.678 57.7085,8.678 50.7661,10.8475 25.6,29.5051 19.9593,34.7119 12.1492,47.7288 8.678,64.6508 8.678,72.461 10.8475,80.2712 21.261,99.7966 29.5051,108.9085 38.1831,115.8508 47.2949,119.322 56.4068,119.322 80.7051,110.2102 93.2881,103.2678 101.9661,91.9864 106.739,82.8746 108.0407,62.4814 101.9661,45.1254 97.6271,39.4847 67.2542,12.1492 62.4814,9.9797" stroke="#00007f" stroke-width="2" /><polyline fill="none" points="34.7119,21.261 40.7864,33.8441 41.6542,63.7831 33.8441,84.1763 24.7322,98.4949 13.4508,113.2475 10.8475,119.322" stroke="#7cff79" stroke-width="2" /><polyline fill="none" points="75.9322,26.9017 66.8203,42.9559 61.1797,57.7085 61.1797,74.6305 65.9525,88.5153 68.9898,94.1559 75.0644,99.7966 85.9119,106.739 88.5153,101.0983 84.1763,93.2881" stroke="#7f0000" stroke-width="2" /></svg>