<?xml version="1.0" encoding="utf-8" ?>
<svg baseProfile="tiny" height="128" version="1.2" viewBox="0,0,128,128" width="128" xmlns="http://www.w3.org/2000/svg" xmlns:ev="http://www.w3.org/2001/xml-events" xmlns:xlink="http://www.w3.org/1999/xlink"><defs /><polyline fill="none" points="11.3197,29.6054 13.932,24.8163 31.3469,14.8027 47.4558,10.0136 58.3401,8.7075 84.898,9.1429 100.1361,16.9796 114.9388,28.7347 118.4218,35.2653 119.2925,40.9252 119.2925,58.7755 115.3741,74.449 111.4558,81.415 103.619,84.898 85.7687,90.1224 70.5306,90.5578 45.2789,80.9796 23.0748,62.2585 11.3197,47.8912 8.7075,41.3605 8.7075,35.2653 16.5442,27.4286" stroke="#00007f" stroke-width="2" /><polyline fill="none" points="29.6054,16.5442 38.7483,20.4626 49.1973,27.4286 57.034,40.0544 59.2109,47.8912 59.2109,69.6599 55.7279,82.2857" stroke="#0080ff" stroke-width="2" /><polyline fill="none" points="87.9456,11.7551 86.2041,12.6259 84.898,15.2381 84.898,26.5578 89.6871,40.0544 93.6054,64.0 103.1837,82.2857" stroke="#7cff79" stroke-width="2" /><polyline fill="none" points="37.8776,16.1088 32.6531,20.898" stroke="#ff9400" stroke-width="2" /><polyline fill="none" points="37.4422,22.2041 37.4422,22.2041" stroke="#7f0000" stroke-width="2" /></svg>