<?xml version="1.0" encoding="utf-8" ?>
<svg baseProfile="tiny" height="128" version="1.2" viewBox="0,0,128,128" width="128" xmlns="http://www.w3.org/2000/svg" xmlns:ev="http://www.w3.org/2001/xml-events" xmlns:xlink="http://www.w3.org/1999/xlink"><defs /><polyline fill="none" points="74.1966,13.8847 69.4237,11.2814 63.3492,10.4136 48.1627,10.4136 40.7864,11.7153 33.8441,16.4881 19.5254,29.939 12.1492,42.0881 10.4136,48.5966 9.9797,74.6305 12.5831,82.8746 19.9593,92.8542 30.8068,99.3627 55.9729,107.1729 72.8949,108.9085 90.6847,107.6068 107.6068,94.1559 113.2475,87.6475 117.1525,79.4034 119.322,69.8576 119.322,52.9356 115.4169,38.1831 111.078,31.2407 104.5695,25.6 83.3085,14.7525 77.6678,8.678" stroke="#00007f" stroke-width="2" /><polyline fill="none" points="8.678,27.7695 11.7153,29.0712 23.8644,29.939 32.5424,32.9763 41.6542,39.0508 48.1627,45.9932 54.6712,58.5763 62.9153,81.139 63.3492,100.6644 62.0475,105.0034" stroke="#0028ff" stroke-width="2" /><polyline fill="none" points="105.0034,13.0169 100.6644,14.7525 95.0237,30.8068 89.8169,53.8034 88.9492,62.4814 89.3831,79.4034 97.6271,95.0237 100.6644,99.3627 102.4,100.2305" stroke="#00d4ff" stroke-width="2" /><polyline fill="none" points="25.6,42.9559 41.6542,31.2407" stroke="#7cff79" stroke-width="2" /><polyline fill="none" points="39.0508,51.6339 56.8407,42.9559" stroke="#ffe500" stroke-width="2" /><polyline fill="none" points="52.5017,59.0102 62.0475,56.4068" stroke="#ff4600" stroke-width="2" /><polyline fill="none" points="53.8034,82.0068 59.0102,78.9695 75.0644,78.9695" stroke="#7f0000" stroke-width="2" /></svg>