<?xml version="1.0" encoding="utf-8" ?>
<svg baseProfile="tiny" height="128" version="1.2" viewBox="0,0,128,128" width="128" xmlns="http://www.w3.org/2000/svg" xmlns:ev="http://www.w3.org/2001/xml-events" xmlns:xlink="http://www.w3.org/1999/xlink"><defs /><polyline fill="none" points="69.8576,13.8847 59.0102,11.2814 50.3322,11.2814 45.5593,12.5831 26.9017,23.8644 15.1864,37.7492 9.9797,47.7288 8.678,64.2169 13.8847,78.1017 20.3932,88.0814 34.278,104.1356 50.7661,114.9831 67.6881,119.322 76.3661,119.322 90.2508,112.3797 95.4576,108.9085 102.8339,99.7966 107.6068,91.1186 111.078,77.2339 111.078,58.1424 108.9085,49.4644 104.5695,38.1831 99.3627,30.3729 86.3458,21.261 76.3661,18.6576 71.1593,16.0542" stroke="#00007f" stroke-width="2" /><polyline fill="none" points="58.1424,8.678 58.1424,28.6373 54.6712,42.0881 42.522,60.7458 36.0136,68.122 28.6373,74.6305 13.8847,82.0068" stroke="#0080ff" stroke-width="2" /><polyline fill="none" points="106.739,44.2576 101.9661,49.0305 79.4034,60.7458 71.5932,66.3864 65.0847,78.5356 61.6136,91.9864 59.878,111.9458" stroke="#7cff79" stroke-width="2" /><polyline fill="none" points="83.3085,48.1627 86.7797,52.9356 89.3831,59.4441" stroke="#ff9400" stroke-width="2" /><polyline fill="none" points="72.0271,59.4441 72.8949,64.6508" stroke="#7f0000" stroke-width="2" /></svg>