<?xml version="1.0" encoding="utf-8" ?>
<svg baseProfile="tiny" height="128" version="1.2" viewBox="0,0,128,128" width="128" xmlns="http://www.w3.org/2000/svg" xmlns:ev="http://www.w3.org/2001/xml-events" xmlns:xlink="http://www.w3.org/1999/xlink"><defs /><polyline fill="none" points="86.3458,15.6203 80.7051,9.9797 72.461,9.1119 51.2,9.9797 42.0881,14.3186 29.0712,23.4305 24.2983,29.5051 14.7525,45.5593 11.7153,55.539 8.678,76.8 9.1119,99.3627 11.7153,105.0034 15.6203,109.7763 23.8644,115.4169 36.8814,118.8881 66.3864,119.322 86.7797,111.9458 96.3254,106.3051 103.7017,99.3627 108.4746,91.5525 112.8136,79.8373 112.8136,67.2542 90.2508,9.1119" stroke="#00007f" stroke-width="2" /><polyline fill="none" points="77.2339,8.678 74.6305,23.8644 75.0644,65.5186 78.1017,73.3288 87.6475,86.7797 96.7593,95.8915 103.2678,99.3627" stroke="#00d4ff" stroke-width="2" /><polyline fill="none" points="52.0678,9.9797 53.8034,13.0169 53.8034,39.4847 49.4644,53.8034 45.1254,63.3492 37.3153,78.5356 23.8644,92.8542 18.6576,96.3254 9.9797,97.1932" stroke="#ffe500" stroke-width="2" /><polyline fill="none" points="40.3525,16.4881 56.8407,16.922" stroke="#7f0000" stroke-width="2" /></svg>