<?xml version="1.0" encoding="utf-8" ?>
<svg baseProfile="tiny" height="128" version="1.2" viewBox="0,0,128,128" width="128" xmlns="http://www.w3.org/2000/svg" xmlns:ev="http://www.w3.org/2001/xml-events" xmlns:xlink="http://www.w3.org/1999/xlink"><defs /><polyline fill="none" points="31.2407,23.4305 25.6,25.1661 21.6949,29.939 13.0169,49.8983 9.5458,66.3864 8.678,98.061 15.1864,109.7763 26.0339,116.2847 35.1458,119.322 59.4441,118.0203 74.1966,110.2102 95.0237,92.4203 100.2305,83.7424 102.4,55.9729 98.061,47.2949 91.1186,41.6542 73.3288,32.1085 52.9356,23.8644 41.6542,17.3559 29.939,8.678" stroke="#00007f" stroke-width="2" /><polyline fill="none" points="79.8373,35.5797 67.6881,49.4644 64.2169,64.6508 63.3492,85.9119 64.2169,91.9864 67.2542,95.4576 78.5356,98.9288 85.0441,98.9288" stroke="#7cff79" stroke-width="2" /><polyline fill="none" points="21.261,31.2407 22.5627,36.8814 32.5424,41.2203 36.4475,46.4271 42.0881,57.7085 48.1627,73.3288 48.1627,82.0068 46.4271,86.7797 38.1831,98.9288 30.3729,104.1356 25.6,110.6441" stroke="#7f0000" stroke-width="2" /></svg>