<?xml version="1.0" encoding="utf-8" ?>
<svg baseProfile="tiny" height="128" version="1.2" viewBox="0,0,128,128" width="128" xmlns="http://www.w3.org/2000/svg" xmlns:ev="http://www.w3.org/2001/xml-events" xmlns:xlink="http://www.w3.org/1999/xlink"><defs /><polyline fill="none" points="62.2585,11.7551 57.034,8.7075 53.551,9.5782 43.5374,17.415 26.1224,33.9592 16.1088,46.585 10.0136,64.8707 8.7075,90.9932 14.3673,107.5374 20.898,114.5034 29.1701,119.2925 48.3265,119.2925 61.3878,111.8912 71.8367,101.0068 75.7551,94.4762 80.5442,80.1088 83.1565,56.5986 82.7211,39.619 74.449,19.1565 71.4014,15.6735 64.0,12.6259 57.4694,13.0612 55.2925,14.8027" stroke="#00007f" stroke-width="2" /><polyline fill="none" points="22.2041,43.5374 29.1701,45.7143 32.2177,51.3741 32.6531,72.2721 25.6871,89.2517 13.4966,105.3605" stroke="#00d4ff" stroke-width="2" /><polyline fill="none" points="70.966,41.3605 65.3061,45.2789 59.6463,57.034 55.2925,75.7551 55.7279,91.8639 59.2109,95.3469 71.8367,96.2177 82.7211,91.8639 89.6871,86.2041" stroke="#ffe500" stroke-width="2" /><polyline fill="none" points="57.9048,8.7075 55.7279,24.8163 43.9728,61.8231 39.619,110.585" stroke="#7f0000" stroke-width="2" /></svg>