<?xml version="1.0" encoding="utf-8" ?>
<svg baseProfile="tiny" height="128" version="1.2" viewBox="0,0,128,128" width="128" xmlns="http://www.w3.org/2000/svg" xmlns:ev="http://www.w3.org/2001/xml-events" xmlns:xlink="http://www.w3.org/1999/xlink"><defs /><polyline fill="none" points="26.9017,13.4508 22.5627,16.922 14.7525,27.3356 9.9797,45.1254 8.678,75.4983 14.7525,92.8542 19.9593,101.9661 32.9763,114.5492 48.1627,119.322 58.1424,119.322 67.2542,116.7186 76.3661,111.5119 84.1763,104.1356 98.061,84.1763 103.7017,73.7627 107.6068,55.539 107.6068,37.3153 98.061,22.5627 87.2136,13.8847 74.6305,9.1119 46.4271,8.678 31.2407,13.4508 22.1288,23.4305" stroke="#00007f" stroke-width="2" /><polyline fill="none" points="10.4136,65.0847 15.6203,62.0475 29.939,63.3492 62.0475,78.5356 79.8373,90.2508 83.3085,98.061 84.1763,110.2102" stroke="#0000f1" stroke-width="2" /><polyline fill="none" points="23.4305,17.3559 50.7661,46.4271 66.8203,57.2746 77.6678,62.0475 88.0814,62.9153 93.722,61.6136 107.6068,53.8034 110.6441,36.4475" stroke="#004cff" stroke-width="2" /><polyline fill="none" points="16.4881,64.2169 20.8271,57.2746" stroke="#00b0ff" stroke-width="2" /><polyline fill="none" points="50.7661,70.7254 51.2,62.9153 52.9356,59.0102" stroke="#29ffcd" stroke-width="2" /><polyline fill="none" points="62.0475,81.139 72.0271,74.1966" stroke="#7cff79" stroke-width="2" /><polyline fill="none" points="72.461,99.7966 78.9695,94.5898 87.6475,92.4203" stroke="#cdff29" stroke-width="2" /><polyline fill="none" points="38.6169,25.6 37.3153,29.5051 37.3153,46.4271" stroke="#ffc400" stroke-width="2" /><polyline fill="none" points="59.878,39.0508 57.7085,43.3898 55.539,60.3119" stroke="#ff6700" stroke-width="2" /><polyline fill="none" points="73.7627,49.4644 72.0271,54.2373 72.0271,68.122" stroke="#f10700" stroke-width="2" /><polyline fill="none" points="90.6847,48.1627 89.3831,52.9356 89.3831,70.7254" stroke="#7f0000" stroke-width="2" /></svg>