<?xml version="1.0" encoding="utf-8" ?>
<svg baseProfile="tiny" height="128" version="1.2" viewBox="0,0,128,128" width="128" xmlns="http://www.w3.org/2000/svg" xmlns:ev="http://www.w3.org/2001/xml-events" xmlns:xlink="http://www.w3.org/1999/xlink"><defs /><polyline fill="none" points="28.7347,46.1497 21.3333,45.2789 16.5442,46.585 11.7551,50.9388 9.1429,58.7755 8.7075,70.966 11.3197,76.6259 17.415,81.8503 22.6395,83.5918 29.1701,83.5918 34.8299,79.6735 39.1837,70.5306 39.1837,57.034 36.5714,49.6327 33.5238,46.1497 25.6871,45.7143" stroke="#00007f" stroke-width="2" /><polyline fill="none" points="16.9796,54.8571 22.2041,57.034" stroke="#0000ff" stroke-width="2" /><polyline fill="none" points="30.0408,55.7279 33.0884,56.1633" stroke="#0080ff" stroke-width="2" /><polyline fill="none" points="39.1837,55.2925 39.1837,55.2925" stroke="#15ffe1" stroke-width="2" /><polyline fill="none" points="15.6735,72.7075 20.4626,70.0952 26.5578,69.2245" stroke="#7cff79" stroke-width="2" /><polyline fill="none" points="30.9116,72.2721 35.7007,72.2721" stroke="#e4ff12" stroke-width="2" /><polyline fill="none" points="64.0,111.8912 63.5646,113.6327 59.2109,114.5034 55.7279,117.551 67.483,119.2925 77.932,119.2925" stroke="#ff9400" stroke-width="2" /><polyline fill="none" points="80.1088,118.4218 77.4966,114.068 71.4014,112.3265" stroke="#ff1d00" stroke-width="2" /><polyline fill="none" points="64.4354,112.7619 63.5646,111.8912 59.2109,80.1088 59.2109,54.4218 64.4354,18.7211 66.6122,11.7551 70.0952,8.7075 77.932,10.0136 80.5442,13.4966 82.2857,19.1565 80.9796,37.8776 73.1429,70.5306 74.0136,107.102" stroke="#7f0000" stroke-width="2" /></svg>