<?xml version="1.0" encoding="utf-8" ?>
<svg baseProfile="tiny" height="128" version="1.2" viewBox="0,0,128,128" width="128" xmlns="http://www.w3.org/2000/svg" xmlns:ev="http://www.w3.org/2001/xml-events" xmlns:xlink="http://www.w3.org/1999/xlink"><defs /><polyline fill="none" points="53.3695,8.678 42.522,9.9797 32.1085,14.7525 22.9966,22.5627 15.1864,33.8441 10.4136,45.5593 8.678,59.0102 11.7153,72.0271 14.7525,78.1017 24.7322,89.8169 38.1831,99.7966 46.861,104.1356 61.6136,107.6068 76.3661,106.3051 90.2508,101.9661 102.4,93.722 107.1729,88.5153 115.4169,76.8 119.322,62.0475 118.0203,49.0305 114.5492,42.0881 110.2102,36.8814 102.8339,31.6746 58.1424,13.0169 51.2,11.7153" stroke="#00007f" stroke-width="2" /><polyline fill="none" points="23.4305,33.8441 25.1661,38.1831 31.2407,43.3898 36.8814,45.9932 49.4644,48.5966 71.1593,45.5593 82.8746,39.9186 95.4576,31.2407" stroke="#7cff79" stroke-width="2" /><polyline fill="none" points="26.4678,93.722 39.4847,87.6475 66.3864,68.5559 82.0068,62.0475 99.3627,62.0475 109.7763,66.8203 119.322,76.3661" stroke="#7f0000" stroke-width="2" /></svg>