<?xml version="1.0" encoding="utf-8" ?>
<svg baseProfile="tiny" height="128" version="1.2" viewBox="0,0,128,128" width="128" xmlns="http://www.w3.org/2000/svg" xmlns:ev="http://www.w3.org/2001/xml-events" xmlns:xlink="http://www.w3.org/1999/xlink"><defs /><polyline fill="none" points="102.3129,55.7279 97.5238,29.1701 90.9932,17.415 80.9796,10.8844 73.1429,9.1429 65.3061,8.7075 51.3741,12.1905 43.9728,16.1088 30.9116,26.9932 18.7211,43.102 13.932,52.2449 11.3197,60.517 8.7075,74.8844 9.1429,81.415 13.0612,93.6054 24.381,109.2789 37.4422,117.9864 48.7619,119.2925 61.8231,114.5034 79.6735,101.4422 91.4286,90.1224 97.0884,82.2857 99.7007,74.8844 100.5714,66.6122 97.5238,43.9728" stroke="#00007f" stroke-width="2" /><polyline fill="none" points="91.4286,22.2041 77.0612,33.5238 44.8435,72.2721 22.6395,94.4762 11.3197,109.2789" stroke="#7cff79" stroke-width="2" /><polyline fill="none" points="44.8435,115.3741 51.8095,107.5374 61.8231,81.8503 68.3537,73.1429 79.6735,67.0476 88.8163,65.3061 92.2993,66.1769 99.7007,75.3197" stroke="#7f0000" stroke-width="2" /></svg>