<?xml version="1.0" encoding="utf-8" ?>
<svg baseProfile="tiny" height="128" version="1.2" viewBox="0,0,128,128" width="128" xmlns="http://www.w3.org/2000/svg" xmlns:ev="http://www.w3.org/2001/xml-events" xmlns:xlink="http://www.w3.org/1999/xlink"><defs /><polyline fill="none" points="56.4068,17.7898 42.0881,13.4508 32.9763,13.8847 22.5627,22.1288 15.6203,32.1085 11.2814,41.2203 9.1119,52.5017 8.678,71.5932 9.9797,78.5356 16.0542,92.4203 23.8644,103.7017 28.2034,107.1729 37.7492,111.5119 44.6915,112.3797 52.9356,112.3797 62.9153,110.2102 78.9695,100.6644 85.0441,95.0237 88.9492,87.6475 90.6847,80.2712 91.1186,64.6508 84.1763,40.3525 71.5932,16.922 66.8203,12.5831 60.3119,9.5458 47.7288,8.678 41.6542,11.2814 35.5797,16.4881 27.7695,28.6373" stroke="#00007f" stroke-width="2" /><polyline fill="none" points="52.0678,9.1119 42.522,16.922 34.7119,26.4678 24.7322,43.8237 22.9966,50.3322 19.9593,66.3864 19.5254,87.6475 24.7322,110.6441" stroke="#0028ff" stroke-width="2" /><polyline fill="none" points="64.2169,25.6 63.7831,46.4271 68.122,64.2169 69.4237,89.3831 61.1797,106.739 51.2,117.5864 48.5966,119.322 45.5593,118.8881" stroke="#00d4ff" stroke-width="2" /><polyline fill="none" points="61.1797,95.0237 65.5186,100.6644 73.3288,103.7017" stroke="#7cff79" stroke-width="2" /><polyline fill="none" points="65.0847,81.5729 72.0271,85.9119 76.8,86.3458" stroke="#ffe500" stroke-width="2" /><polyline fill="none" points="64.6508,65.9525 63.3492,67.6881 64.6508,69.8576 70.7254,72.0271 76.8,72.461" stroke="#ff4600" stroke-width="2" /><polyline fill="none" points="56.8407,35.5797 73.3288,37.7492" stroke="#7f0000" stroke-width="2" /></svg>