<?xml version="1.0" encoding="utf-8" ?>
<svg baseProfile="tiny" height="128" version="1.2" viewBox="0,0,128,128" width="128" xmlns="http://www.w3.org/2000/svg" xmlns:ev="http://www.w3.org/2001/xml-events" xmlns:xlink="http://www.w3.org/1999/xlink"><defs /><polyline fill="none" points="39.4847,33.4102 29.5051,33.8441 21.6949,38.6169 17.3559,43.8237 10.8475,59.4441 8.678,70.2915 8.678,80.2712 10.4136,86.7797 13.8847,94.5898 18.6576,101.5322 29.5051,110.6441 38.1831,115.4169 54.2373,119.322 72.8949,118.8881 78.5356,115.4169 82.0068,110.6441 92.8542,86.7797 97.1932,69.8576 97.1932,54.2373 95.4576,49.4644 87.2136,36.4475 75.9322,23.8644 65.0847,15.1864 55.539,9.5458 47.7288,8.678 43.3898,9.5458 31.6746,16.4881 26.0339,26.0339 26.4678,33.8441 27.7695,35.5797" stroke="#00007f" stroke-width="2" /><polyline fill="none" points="29.939,32.1085 33.4102,64.2169 33.4102,77.2339 28.2034,95.8915 26.9017,98.4949 20.8271,102.8339" stroke="#7cff79" stroke-width="2" /><polyline fill="none" points="59.878,20.8271 59.878,45.9932 66.3864,81.139" stroke="#7f0000" stroke-width="2" /></svg>