<?xml version="1.0" encoding="utf-8" ?>
<svg baseProfile="tiny" height="128" version="1.2" viewBox="0,0,128,128" width="128" xmlns="http://www.w3.org/2000/svg" xmlns:ev="http://www.w3.org/2001/xml-events" xmlns:xlink="http://www.w3.org/1999/xlink"><defs /><polyline fill="none" points="39.619,20.898 26.5578,25.2517 22.2041,30.9116 22.2041,35.2653 24.8163,37.8776 30.9116,39.619 37.4422,39.1837 43.5374,35.7007 47.8912,31.3469 50.5034,26.5578 50.5034,22.6395 49.1973,20.4626 40.0544,18.2857 35.2653,20.4626 32.6531,23.5102" stroke="#00007f" stroke-width="2" /><polyline fill="none" points="30.0408,25.6871 26.5578,29.1701 25.6871,32.6531 28.7347,34.8299 32.2177,35.7007" stroke="#004cff" stroke-width="2" /><polyline fill="none" points="42.6667,21.3333 37.8776,27.4286 38.3129,30.9116 40.9252,32.6531 46.585,32.6531 46.1497,26.5578 47.8912,24.381 51.8095,23.0748" stroke="#29ffcd" stroke-width="2" /><polyline fill="none" points="41.3605,19.5918 47.8912,21.7687" stroke="#cdff29" stroke-width="2" /><polyline fill="none" points="22.6395,8.7075 10.8844,9.5782 8.7075,11.7551 8.7075,17.8503 14.3673,21.7687 27.4286,26.5578" stroke="#ff6700" stroke-width="2" /><polyline fill="none" points="21.3333,8.7075 26.5578,9.1429 36.1361,12.1905 43.102,17.8503 54.8571,23.5102 67.9184,34.3946 91.8639,47.8912 100.5714,50.068 119.2925,62.2585 118.4218,65.3061 114.068,68.3537 103.1837,66.6122 78.3673,55.2925 53.1156,38.3129 43.102,34.3946" stroke="#7f0000" stroke-width="2" /></svg>