<?xml version="1.0" encoding="utf-8" ?>
<svg baseProfile="tiny" height="128" version="1.2" viewBox="0,0,128,128" width="128" xmlns="http://www.w3.org/2000/svg" xmlns:ev="http://www.w3.org/2001/xml-events" xmlns:xlink="http://www.w3.org/1999/xlink"><defs /><polyline fill="none" points="31.6746,19.9593 39.4847,14.3186 45.1254,12.5831 50.7661,8.678 59.0102,9.1119 87.2136,18.6576 93.722,32.9763 102.4,44.6915 106.739,54.2373 107.1729,67.6881 105.8712,76.3661 91.9864,91.5525 69.8576,108.9085 37.7492,119.322 31.2407,116.2847 26.9017,111.078 19.0915,96.3254 10.8475,73.7627 8.678,57.2746 12.5831,42.522 28.6373,19.5254 34.278,14.3186" stroke="#00007f" stroke-width="2" /><polyline fill="none" points="44.6915,15.6203 45.5593,40.7864 44.2576,49.0305 40.3525,65.5186 32.5424,82.4407 26.4678,101.5322" stroke="#7cff79" stroke-width="2" /><polyline fill="none" points="74.1966,14.3186 75.4983,32.5424 72.8949,51.6339 77.6678,62.4814 78.1017,68.122 80.7051,78.9695 88.9492,90.2508 90.2508,92.8542 89.3831,93.2881" stroke="#7f0000" stroke-width="2" /></svg>