<?xml version="1.0" encoding="utf-8" ?>
<svg baseProfile="tiny" height="128" version="1.2" viewBox="0,0,128,128" width="128" xmlns="http://www.w3.org/2000/svg" xmlns:ev="http://www.w3.org/2001/xml-events" xmlns:xlink="http://www.w3.org/1999/xlink"><defs /><polyline fill="none" points="82.7211,8.7075 77.932,14.3673 74.8844,15.2381 48.7619,15.2381 39.619,19.1565 35.7007,29.1701 35.7007,38.7483 30.9116,61.8231 30.9116,80.1088 37.0068,90.1224 43.9728,96.2177 55.2925,102.3129 67.0476,106.6667 79.2381,108.4082 90.1224,107.9728 96.2177,105.3605 106.2313,98.3946 117.1156,86.6395 118.8571,78.3673 107.5374,40.9252 105.3605,26.9932 69.6599,20.0272" stroke="#00007f" stroke-width="2" /><polyline fill="none" points="74.0136,10.449 88.381,18.7211 101.0068,23.9456 111.8912,33.0884 111.8912,50.5034" stroke="#004cff" stroke-width="2" /><polyline fill="none" points="71.8367,8.7075 75.7551,23.9456 75.7551,67.483 67.9184,90.1224 67.0476,102.3129 68.3537,100.5714" stroke="#29ffcd" stroke-width="2" /><polyline fill="none" points="99.2653,23.9456 96.6531,31.7823 81.415,52.2449 55.2925,77.4966 37.8776,87.0748 8.7075,98.3946 13.0612,88.8163" stroke="#cdff29" stroke-width="2" /><polyline fill="none" points="44.8435,33.5238 90.5578,50.068 103.1837,55.7279 112.3265,63.5646 119.2925,74.449" stroke="#ff6700" stroke-width="2" /><polyline fill="none" points="57.9048,20.0272 63.1293,29.1701" stroke="#7f0000" stroke-width="2" /></svg>