<?xml version="1.0" encoding="utf-8" ?>
<svg baseProfile="tiny" height="128" version="1.2" viewBox="0,0,128,128" width="128" xmlns="http://www.w3.org/2000/svg" xmlns:ev="http://www.w3.org/2001/xml-events" xmlns:xlink="http://www.w3.org/1999/xlink"><defs /><polyline fill="none" points="81.415,13.4966 76.1905,10.0136 70.966,9.1429 45.7143,8.7075 23.5102,13.0612 15.2381,18.2857 9.1429,39.1837 8.7075,55.7279 10.0136,60.517 16.9796,70.0952 25.6871,77.0612 31.7823,80.1088 45.7143,84.4626 76.6259,85.7687 99.7007,77.932 107.102,70.966 111.0204,64.4354 117.9864,48.7619 119.2925,38.3129 116.6803,30.9116 110.585,21.7687 99.7007,13.4966 89.2517,9.1429 81.8503,8.7075 74.0136,10.449" stroke="#00007f" stroke-width="2" /><polyline fill="none" points="46.1497,9.1429 53.1156,15.2381 57.4694,22.2041 59.6463,32.2177 58.7755,48.3265 50.9388,62.6939 40.4898,71.8367 28.2993,78.3673" stroke="#004cff" stroke-width="2" /><polyline fill="none" points="97.5238,11.7551 90.9932,16.1088 86.6395,22.2041 83.1565,37.4422 84.898,65.3061 91.8639,80.5442" stroke="#29ffcd" stroke-width="2" /><polyline fill="none" points="37.4422,70.966 43.5374,74.8844" stroke="#cdff29" stroke-width="2" /><polyline fill="none" points="43.102,63.5646 48.3265,66.6122 50.5034,65.3061" stroke="#ff6700" stroke-width="2" /><polyline fill="none" points="47.0204,56.1633 56.5986,54.8571 57.9048,53.551" stroke="#7f0000" stroke-width="2" /></svg>