<?xml version="1.0" encoding="utf-8" ?>
<svg baseProfile="tiny" height="128" version="1.2" viewBox="0,0,128,128" width="128" xmlns="http://www.w3.org/2000/svg" xmlns:ev="http://www.w3.org/2001/xml-events" xmlns:xlink="http://www.w3.org/1999/xlink"><defs /><polyline fill="none" points="39.9186,26.9017 35.5797,31.2407 29.0712,49.0305 17.7898,60.3119 11.2814,71.1593 8.678,82.8746 8.678,92.8542 12.5831,93.722 27.3356,103.7017 38.1831,108.4746 54.6712,113.6814 61.1797,112.8136 77.6678,105.4373 86.3458,98.9288 96.3254,87.2136 98.061,82.0068 98.061,37.3153 84.6102,15.1864 80.7051,11.2814 72.8949,8.678 39.9186,21.6949 37.3153,26.9017" stroke="#00007f" stroke-width="2" /><polyline fill="none" points="37.3153,26.9017 36.4475,28.2034" stroke="#0080ff" stroke-width="2" /><polyline fill="none" points="38.1831,28.2034 38.1831,32.5424 47.2949,39.9186 73.3288,42.9559 94.5898,52.9356" stroke="#7cff79" stroke-width="2" /><polyline fill="none" points="29.939,42.0881 64.6508,56.4068 78.1017,65.9525 98.061,73.3288" stroke="#ff9400" stroke-width="2" /><polyline fill="none" points="26.9017,51.2 47.2949,75.0644 63.3492,84.6102 68.5559,89.8169 79.4034,96.7593 98.9288,119.322" stroke="#7f0000" stroke-width="2" /></svg>