<?xml version="1.0" encoding="utf-8" ?>
<svg baseProfile="tiny" height="128" version="1.2" viewBox="0,0,128,128" width="128" xmlns="http://www.w3.org/2000/svg" xmlns:ev="http://www.w3.org/2001/xml-events" xmlns:xlink="http://www.w3.org/1999/xlink"><defs /><polyline fill="none" points="94.9116,22.2041 94.4762,18.2857 91.8639,14.3673 85.3333,10.0136 79.2381,8.7075 67.0476,9.1429 51.8095,14.3673 40.4898,20.4626 26.1224,32.6531 11.7551,51.3741 9.1429,60.0816 8.7075,70.966 11.7551,80.5442 22.2041,89.2517 33.0884,94.0408 51.8095,97.9592 64.4354,97.9592 77.4966,95.3469 93.6054,89.6871 107.5374,80.1088 113.6327,71.8367 119.2925,53.9864 118.4218,44.4082 113.6327,31.7823 106.6667,21.7687 95.7823,13.4966 86.2041,9.5782 81.8503,10.449 75.3197,23.0748 67.483,43.5374 65.7415,67.0476 66.6122,88.381 68.3537,95.7823 76.6259,104.0544" stroke="#00007f" stroke-width="2" /><polyline fill="none" points="22.6395,18.2857 37.0068,33.9592 41.7959,45.7143 42.6667,51.3741 37.4422,74.8844 30.9116,87.9456 23.5102,99.2653" stroke="#7f0000" stroke-width="2" /></svg>