<?xml version="1.0" encoding="utf-8" ?>
<svg baseProfile="tiny" height="128" version="1.2" viewBox="0,0,128,128" width="128" xmlns="http://www.w3.org/2000/svg" xmlns:ev="http://www.w3.org/2001/xml-events" xmlns:xlink="http://www.w3.org/1999/xlink"><defs /><polyline fill="none" points="87.5102,14.3673 84.4626,10.8844 72.2721,8.7075 58.3401,10.449 44.4082,14.8027 26.1224,26.1224 16.9796,37.0068 11.7551,46.1497 8.7075,58.7755 9.5782,67.9184 13.932,77.932 21.3333,84.898 33.9592,90.5578 60.0816,96.2177 81.415,97.0884 93.6054,94.4762 103.619,90.5578 111.8912,84.0272 117.1156,75.3197 119.2925,62.2585 117.1156,54.4218 108.8435,39.619 94.4762,26.9932 85.7687,22.2041 82.7211,21.3333 84.4626,22.6395" stroke="#00007f" stroke-width="2" /><polyline fill="none" points="19.1565,28.2993 30.0408,28.7347 45.2789,34.3946 56.5986,45.2789 60.0816,51.3741 62.2585,60.517 60.0816,71.4014 51.8095,83.1565 41.7959,88.8163 28.2993,92.2993" stroke="#7cff79" stroke-width="2" /><polyline fill="none" points="101.0068,42.2313 94.9116,42.6667 89.2517,48.3265 86.2041,59.6463 87.0748,67.0476 93.1701,74.8844 103.619,80.1088 111.0204,81.8503" stroke="#7f0000" stroke-width="2" /></svg>