<?xml version="1.0" encoding="utf-8" ?>
<svg baseProfile="tiny" height="128" version="1.2" viewBox="0,0,128,128" width="128" xmlns="http://www.w3.org/2000/svg" xmlns:ev="http://www.w3.org/2001/xml-events" xmlns:xlink="http://www.w3.org/1999/xlink"><defs /><polyline fill="none" points="85.478,40.3525 78.1017,29.939 73.7627,26.4678 48.1627,14.3186 23.8644,8.678 16.922,9.5458 13.4508,16.922 8.678,39.9186 9.1119,59.878 13.8847,70.7254 17.7898,76.3661 26.4678,84.6102 33.4102,88.9492 55.9729,97.1932 103.2678,99.7966 115.4169,94.5898 118.0203,91.9864 119.322,84.1763 118.8881,73.3288 105.8712,44.2576 93.2881,32.5424 75.0644,22.1288" stroke="#00007f" stroke-width="2" /><polyline fill="none" points="47.2949,16.0542 45.1254,18.2237 39.9186,31.6746 36.8814,44.2576 36.8814,53.8034 41.6542,63.7831 47.7288,66.8203 53.3695,67.6881 69.8576,66.8203 80.2712,63.7831 88.5153,57.7085 91.5525,49.8983 92.4203,41.2203 91.1186,29.0712" stroke="#0080ff" stroke-width="2" /><polyline fill="none" points="109.7763,85.9119 107.6068,82.8746 96.3254,78.9695 76.8,78.9695 68.5559,85.0441 65.9525,92.4203" stroke="#7cff79" stroke-width="2" /><polyline fill="none" points="16.922,50.7661 18.6576,53.3695 25.6,75.0644 25.6,77.2339 17.3559,81.5729" stroke="#ff9400" stroke-width="2" /><polyline fill="none" points="13.8847,13.8847 17.7898,19.0915 20.3932,19.5254 31.2407,14.7525 36.8814,11.7153 38.6169,8.678" stroke="#7f0000" stroke-width="2" /></svg>