<?xml version="1.0" encoding="utf-8" ?>
<svg baseProfile="tiny" height="128" version="1.2" viewBox="0,0,128,128" width="128" xmlns="http://www.w3.org/2000/svg" xmlns:ev="http://www.w3.org/2001/xml-events" xmlns:xlink="http://www.w3.org/1999/xlink"><defs /><polyline fill="none" points="105.0034,10.8475 67.2542,11.7153 37.7492,15.6203 24.2983,20.8271 18.2237,24.7322 14.7525,29.5051 9.9797,41.6542 8.678,54.2373 10.4136,62.0475 16.0542,70.7254 22.9966,75.4983 34.7119,80.7051 55.1051,84.1763 70.7254,84.6102 84.1763,83.7424 101.0983,76.3661 111.5119,67.6881 117.1525,55.9729 119.322,39.4847 118.8881,30.8068 117.5864,26.0339 112.3797,17.7898 104.1356,10.4136 100.2305,8.678 95.4576,8.678 87.2136,10.8475" stroke="#00007f" stroke-width="2" /><polyline fill="none" points="68.5559,10.8475 68.9898,27.7695 78.1017,45.9932 90.2508,59.4441 100.2305,66.8203 110.2102,70.7254" stroke="#00d4ff" stroke-width="2" /><polyline fill="none" points="36.8814,21.6949 43.3898,48.5966 44.2576,67.6881 41.6542,73.3288 36.0136,78.1017" stroke="#ffe500" stroke-width="2" /><polyline fill="none" points="33.4102,26.9017 38.6169,24.7322 42.0881,24.7322 34.278,33.4102 45.1254,33.8441 38.6169,40.7864 48.5966,43.8237 45.1254,51.6339 40.7864,55.1051 53.3695,57.7085 50.3322,60.3119 40.3525,65.0847 42.522,65.5186" stroke="#7f0000" stroke-width="2" /></svg>