<?xml version="1.0" encoding="utf-8" ?>
<svg baseProfile="tiny" height="128" version="1.2" viewBox="0,0,128,128" width="128" xmlns="http://www.w3.org/2000/svg" xmlns:ev="http://www.w3.org/2001/xml-events" xmlns:xlink="http://www.w3.org/1999/xlink"><defs /><polyline fill="none" points="75.4983,8.678 55.9729,13.0169 48.5966,16.0542 31.2407,28.2034 21.261,38.1831 17.3559,45.1254 8.678,93.722 11.7153,105.8712 15.1864,111.9458 25.1661,118.0203 40.3525,119.322 47.7288,118.0203 66.3864,110.2102 76.3661,99.3627 84.1763,88.5153 89.8169,74.1966 91.9864,65.0847 91.9864,52.0678 85.9119,39.0508 68.5559,22.1288 59.4441,17.7898 53.8034,16.4881 43.8237,16.0542 42.9559,17.3559" stroke="#00007f" stroke-width="2" /><polyline fill="none" points="42.0881,17.3559 47.2949,36.4475 49.0305,52.9356 48.5966,69.4237 46.4271,82.8746 34.278,115.4169 32.9763,116.2847" stroke="#7cff79" stroke-width="2" /><polyline fill="none" points="74.6305,26.9017 62.9153,48.1627 61.1797,58.5763 62.4814,76.8 65.0847,87.6475" stroke="#7f0000" stroke-width="2" /></svg>