<?xml version="1.0" encoding="utf-8" ?>
<svg baseProfile="tiny" height="128" version="1.2" viewBox="0,0,128,128" width="128" xmlns="http://www.w3.org/2000/svg" xmlns:ev="http://www.w3.org/2001/xml-events" xmlns:xlink="http://www.w3.org/1999/xlink"><defs /><polyline fill="none" points="97.6271,90.2508 91.9864,95.0237 82.8746,98.061 67.6881,101.9661 55.1051,102.4 22.1288,96.3254 13.0169,89.8169 10.4136,85.478 8.678,80.2712 8.678,72.0271 11.7153,57.2746 18.6576,41.2203 27.7695,28.2034 48.1627,13.4508 62.9153,9.1119 78.1017,8.678 91.5525,12.1492 102.8339,19.5254 111.5119,29.939 117.5864,41.6542 119.322,53.3695 118.4542,67.6881 113.2475,81.139 100.2305,99.3627" stroke="#00007f" stroke-width="2" /><polyline fill="none" points="33.4102,22.9966 42.522,27.7695 48.1627,33.8441 52.5017,46.861 52.5017,77.2339 49.4644,91.9864 43.8237,105.4373" stroke="#0010ff" stroke-width="2" /><polyline fill="none" points="102.8339,12.5831 93.2881,25.6 83.3085,54.6712 78.9695,80.2712 78.9695,90.2508 80.7051,93.2881 82.8746,93.722" stroke="#00a4ff" stroke-width="2" /><polyline fill="none" points="36.4475,42.0881 43.8237,39.0508 58.1424,28.6373" stroke="#3fffb7" stroke-width="2" /><polyline fill="none" points="42.522,61.1797 47.2949,60.7458 56.4068,57.2746" stroke="#b7ff3f" stroke-width="2" /><polyline fill="none" points="47.2949,72.461 59.878,72.8949" stroke="#ffb900" stroke-width="2" /><polyline fill="none" points="46.4271,85.478 54.2373,89.8169" stroke="#ff3000" stroke-width="2" /><polyline fill="none" points="76.8,24.7322 83.7424,25.6 97.1932,32.1085" stroke="#7f0000" stroke-width="2" /></svg>