<?xml version="1.0" encoding="utf-8" ?>
<svg baseProfile="tiny" height="128" version="1.2" viewBox="0,0,128,128" width="128" xmlns="http://www.w3.org/2000/svg" xmlns:ev="http://www.w3.org/2001/xml-events" xmlns:xlink="http://www.w3.org/1999/xlink"><defs /><polyline fill="none" points="59.4441,94.5898 45.5593,97.1932 32.9763,97.1932 25.6,93.2881 14.7525,81.5729 10.8475,74.6305 8.678,67.6881 8.678,59.878 11.7153,49.4644 19.5254,36.4475 32.5424,20.8271 47.2949,12.5831 64.6508,8.678 84.1763,8.678 92.4203,10.8475 100.2305,13.8847 105.4373,19.5254 113.2475,32.5424 116.2847,40.7864 117.1525,67.2542 114.9831,73.7627 109.3424,84.6102 104.1356,89.8169 97.1932,95.4576 80.2712,104.5695 63.3492,107.1729 34.7119,107.1729 26.4678,103.2678 21.6949,95.4576" stroke="#00007f" stroke-width="2" /><polyline fill="none" points="29.5051,33.4102 38.6169,54.6712 42.522,81.139 42.522,100.2305" stroke="#0028ff" stroke-width="2" /><polyline fill="none" points="69.4237,16.4881 71.5932,21.6949 74.6305,44.6915 78.5356,55.539 103.2678,87.2136" stroke="#00d4ff" stroke-width="2" /><polyline fill="none" points="64.6508,37.7492 82.4407,28.6373" stroke="#7cff79" stroke-width="2" /><polyline fill="none" points="78.5356,58.5763 85.0441,55.539 90.2508,55.539 100.2305,50.3322" stroke="#ffe500" stroke-width="2" /><polyline fill="none" points="89.3831,89.3831 101.5322,81.5729 119.322,66.3864" stroke="#ff4600" stroke-width="2" /><polyline fill="none" points="25.6,54.6712 51.6339,37.7492" stroke="#7f0000" stroke-width="2" /></svg>