<?xml version="1.0" encoding="utf-8" ?>
<svg baseProfile="tiny" height="128" version="1.2" viewBox="0,0,128,128" width="128" xmlns="http://www.w3.org/2000/svg" xmlns:ev="http://www.w3.org/2001/xml-events" xmlns:xlink="http://www.w3.org/1999/xlink"><defs /><polyline fill="none" points="24.901,56.7918 22.7167,51.1126 20.5324,48.9283 17.4744,46.744 13.9795,46.744 10.9215,47.6177 9.1741,50.6758 8.7372,58.9761 12.6689,70.7713 19.2218,82.1297 23.5904,87.372 27.5222,89.1195 34.5119,81.6928 34.9488,76.8874 32.7645,72.5188 45.4334,69.4608 68.587,57.6655 86.0614,53.7338 98.2935,49.3652 115.3311,35.3857 117.0785,26.6485 109.6519,10.9215 104.4096,8.7372 95.6724,8.7372 64.2184,30.1433 49.3652,42.8123 37.57,47.6177 27.0853,53.7338" stroke="#00007f" stroke-width="2" /><polyline fill="none" points="93.9249,82.5666 87.8089,78.198 80.3823,75.1399 70.7713,75.1399 65.9659,78.198 62.0341,82.1297 59.413,88.6826 55.9181,103.099 55.9181,114.4573 60.2867,119.2628 75.1399,117.5154 91.7406,103.099 98.7304,92.6143 100.4778,87.372 100.041,76.8874 92.6143,72.5188 80.3823,72.0819" stroke="#0000fe" stroke-width="2" /><polyline fill="none" points="84.314,76.0137 78.198,89.5563 78.198,100.041 81.6928,105.7201 85.1877,107.0307" stroke="#0060ff" stroke-width="2" /><polyline fill="none" points="70.7713,89.5563 82.5666,86.9352" stroke="#00d4ff" stroke-width="2" /><polyline fill="none" points="72.5188,97.4198 80.3823,94.3618" stroke="#4cffaa" stroke-width="2" /><polyline fill="none" points="75.5768,105.7201 86.4983,101.7884" stroke="#aaff4c" stroke-width="2" /><polyline fill="none" points="59.8498,88.6826 65.9659,94.3618 70.3345,100.9147 71.2082,113.5836" stroke="#ffe500" stroke-width="2" /><polyline fill="none" points="60.2867,97.4198 66.8396,90.8669" stroke="#ff7a00" stroke-width="2" /><polyline fill="none" points="66.4027,105.7201 71.6451,102.2253" stroke="#fe1200" stroke-width="2" /><polyline fill="none" points="68.587,112.7099 79.0717,109.6519" stroke="#7f0000" stroke-width="2" /></svg>