<?xml version="1.0" encoding="utf-8" ?>
<svg baseProfile="tiny" height="128" version="1.2" viewBox="0,0,128,128" width="128" xmlns="http://www.w3.org/2000/svg" xmlns:ev="http://www.w3.org/2001/xml-events" xmlns:xlink="http://www.w3.org/1999/xlink"><defs /><polyline fill="none" points="78.1017,24.7322 62.9153,20.8271 49.0305,20.8271 43.3898,22.1288 33.4102,25.6 26.9017,30.3729 18.6576,39.4847 11.2814,55.539 10.8475,59.878 8.678,80.7051 8.678,95.8915 9.9797,101.9661 15.1864,106.3051 33.8441,114.1153 51.6339,119.322 67.2542,119.322 74.1966,115.4169 79.8373,109.7763 85.9119,95.4576 87.2136,87.2136 87.2136,18.6576 85.478,13.4508 82.4407,9.9797 79.4034,8.678 75.4983,9.5458 72.8949,16.4881 73.7627,20.3932" stroke="#00007f" stroke-width="2" /><polyline fill="none" points="44.6915,20.3932 43.3898,23.4305 43.3898,44.2576 42.0881,53.8034 39.4847,60.7458 28.6373,85.0441 17.7898,98.4949 11.2814,100.6644 17.7898,99.3627 22.1288,95.4576" stroke="#7cff79" stroke-width="2" /><polyline fill="none" points="67.2542,22.9966 67.2542,51.2 65.0847,64.6508 64.6508,94.1559" stroke="#7f0000" stroke-width="2" /></svg>