<?xml version="1.0" encoding="utf-8" ?>
<svg baseProfile="tiny" height="128" version="1.2" viewBox="0,0,128,128" width="128" xmlns="http://www.w3.org/2000/svg" xmlns:ev="http://www.w3.org/2001/xml-events" xmlns:xlink="http://www.w3.org/1999/xlink"><defs /><polyline fill="none" points="79.4034,9.9797 55.539,8.678 44.6915,10.8475 23.8644,19.5254 14.7525,26.0339 10.8475,31.6746 8.678,42.9559 9.1119,85.9119 12.5831,99.7966 16.0542,104.5695 19.9593,108.4746 31.2407,112.3797 68.5559,113.6814 91.5525,107.6068 98.4949,103.7017 104.5695,98.4949 114.5492,84.6102 118.0203,77.2339 119.322,50.3322 114.5492,42.522 101.5322,29.939 86.3458,17.7898 78.9695,14.7525 65.9525,12.1492 46.861,12.1492 42.0881,14.3186 39.0508,16.0542 33.8441,24.2983 19.9593,35.1458" stroke="#00007f" stroke-width="2" /><polyline fill="none" points="38.6169,10.8475 39.9186,14.7525 48.1627,26.0339 52.9356,36.0136 55.1051,45.9932 60.3119,77.6678 60.3119,97.6271 59.0102,106.3051 56.4068,112.3797 59.878,114.5492" stroke="#0080ff" stroke-width="2" /><polyline fill="none" points="96.7593,26.0339 89.3831,28.2034 86.7797,34.7119 83.7424,49.4644 82.4407,81.139 88.5153,96.3254 92.8542,103.2678 98.4949,108.0407 108.0407,108.4746" stroke="#7cff79" stroke-width="2" /><polyline fill="none" points="43.8237,34.278 74.6305,31.2407" stroke="#ff9400" stroke-width="2" /><polyline fill="none" points="48.1627,59.0102 62.4814,59.0102 70.7254,61.6136" stroke="#7f0000" stroke-width="2" /></svg>