<?xml version="1.0" encoding="utf-8" ?>
<svg baseProfile="tiny" height="128" version="1.2" viewBox="0,0,128,128" width="128" xmlns="http://www.w3.org/2000/svg" xmlns:ev="http://www.w3.org/2001/xml-events" xmlns:xlink="http://www.w3.org/1999/xlink"><defs /><polyline fill="none" points="62.4814,8.678 51.6339,8.678 45.5593,9.9797 28.2034,22.9966 19.9593,33.4102 12.1492,46.4271 8.678,54.2373 8.678,61.1797 16.0542,74.1966 22.5627,80.7051 32.1085,87.2136 79.4034,87.2136 92.4203,84.1763 98.4949,81.139 114.9831,68.9898 119.322,56.4068 119.322,44.2576 118.0203,40.7864 108.9085,31.2407 102.4,26.0339 83.7424,19.5254 69.4237,12.5831 59.4441,10.4136 40.3525,10.4136" stroke="#00007f" stroke-width="2" /><polyline fill="none" points="40.3525,11.7153 42.9559,23.8644 42.9559,46.4271 39.0508,63.3492 31.2407,76.8 28.2034,78.1017" stroke="#7cff79" stroke-width="2" /><polyline fill="none" points="85.9119,23.4305 86.3458,42.0881" stroke="#7f0000" stroke-width="2" /></svg>