<?xml version="1.0" encoding="utf-8" ?>
<svg baseProfile="tiny" height="128" version="1.2" viewBox="0,0,128,128" width="128" xmlns="http://www.w3.org/2000/svg" xmlns:ev="http://www.w3.org/2001/xml-events" xmlns:xlink="http://www.w3.org/1999/xlink"><defs /><polyline fill="none" points="50.7661,16.0542 47.2949,15.6203 19.9593,26.9017 10.4136,45.5593 8.678,68.122 12.1492,76.8 23.8644,90.6847 45.9932,102.8339 67.2542,110.6441 78.5356,111.5119 91.5525,108.9085 114.1153,88.0814 118.4542,82.8746 119.322,77.2339 114.1153,55.539 109.3424,49.0305 96.3254,44.2576 42.9559,14.7525 24.7322,8.678" stroke="#00007f" stroke-width="2" /><polyline fill="none" points="26.9017,22.1288 30.8068,26.0339 36.0136,35.1458 38.6169,43.8237 38.6169,56.4068 36.0136,65.0847 27.7695,77.2339 17.3559,87.2136 9.9797,91.5525" stroke="#00d4ff" stroke-width="2" /><polyline fill="none" points="91.9864,39.4847 83.7424,52.0678 82.0068,62.4814 82.0068,91.1186 85.478,105.0034 87.2136,106.3051" stroke="#ffe500" stroke-width="2" /><polyline fill="none" points="29.939,31.2407 35.5797,27.7695" stroke="#7f0000" stroke-width="2" /></svg>