<?xml version="1.0" encoding="utf-8" ?>
<svg baseProfile="tiny" height="128" version="1.2" viewBox="0,0,128,128" width="128" xmlns="http://www.w3.org/2000/svg" xmlns:ev="http://www.w3.org/2001/xml-events" xmlns:xlink="http://www.w3.org/1999/xlink"><defs /><polyline fill="none" points="85.3333,10.8844 82.7211,9.1429 76.1905,8.7075 61.3878,12.6259 49.6327,17.8503 41.3605,23.5102 28.2993,35.7007 19.1565,47.4558 13.0612,60.517 8.7075,87.5102 11.3197,99.7007 24.381,112.3265 29.6054,114.9388 47.8912,119.2925 58.3401,119.2925 71.4014,115.8095 84.898,106.6667 101.8776,87.0748 104.4898,80.5442 106.6667,69.6599 105.7959,56.5986 101.8776,40.9252 96.2177,29.6054 91.8639,26.9932" stroke="#00007f" stroke-width="2" /><polyline fill="none" points="27.4286,49.6327 41.3605,60.9524 49.1973,75.3197 50.5034,83.1565 49.6327,94.0408 42.2313,109.2789" stroke="#004cff" stroke-width="2" /><polyline fill="none" points="86.6395,15.6735 75.3197,40.9252 72.7075,54.4218 72.7075,67.483 74.8844,78.3673 80.5442,91.8639 86.2041,100.5714" stroke="#29ffcd" stroke-width="2" /><polyline fill="none" points="38.3129,46.585 34.3946,54.4218 34.3946,59.2109" stroke="#cdff29" stroke-width="2" /><polyline fill="none" points="53.1156,70.966 49.6327,80.5442" stroke="#ff6700" stroke-width="2" /><polyline fill="none" points="43.102,99.7007 47.0204,102.3129" stroke="#7f0000" stroke-width="2" /></svg>