<?xml version="1.0" encoding="utf-8" ?>
<svg baseProfile="tiny" height="128" version="1.2" viewBox="0,0,128,128" width="128" xmlns="http://www.w3.org/2000/svg" xmlns:ev="http://www.w3.org/2001/xml-events" xmlns:xlink="http://www.w3.org/1999/xlink"><defs /><polyline fill="none" points="92.4203,18.6576 70.7254,10.4136 59.878,8.678 39.0508,8.678 26.9017,15.6203 18.2237,22.9966 11.2814,32.1085 8.678,42.522 9.9797,66.3864 14.3186,78.1017 26.0339,98.061 42.0881,111.078 52.0678,115.4169 76.8,114.5492 89.3831,108.0407 99.7966,99.7966 108.0407,88.5153 114.5492,75.0644 119.322,49.0305 118.0203,31.2407 111.5119,24.7322 103.2678,20.3932 83.7424,19.9593" stroke="#00007f" stroke-width="2" /><polyline fill="none" points="50.3322,11.2814 57.7085,19.9593 68.9898,45.1254 71.5932,55.9729 72.8949,74.6305 72.0271,83.3085 67.6881,90.2508 62.0475,96.3254 45.5593,106.739" stroke="#7cff79" stroke-width="2" /><polyline fill="none" points="93.2881,22.5627 88.9492,28.2034 86.3458,44.6915 87.2136,84.1763 95.8915,99.3627 102.8339,104.1356 106.739,104.5695" stroke="#7f0000" stroke-width="2" /></svg>