<?xml version="1.0" encoding="utf-8" ?>
<svg baseProfile="tiny" height="128" version="1.2" viewBox="0,0,128,128" width="128" xmlns="http://www.w3.org/2000/svg" xmlns:ev="http://www.w3.org/2001/xml-events" xmlns:xlink="http://www.w3.org/1999/xlink"><defs /><polyline fill="none" points="64.2169,12.1492 41.2203,11.2814 32.9763,14.7525 24.2983,23.8644 15.1864,38.6169 8.678,64.2169 9.1119,73.3288 12.1492,82.0068 22.5627,97.1932 28.6373,102.4 36.4475,104.5695 46.861,114.1153 59.0102,118.0203 91.5525,118.0203 100.6644,114.1153 110.2102,101.5322 115.8508,90.6847 119.322,56.8407 98.061,29.939 82.0068,14.3186 68.9898,8.678 59.4441,8.678 54.2373,11.7153" stroke="#00007f" stroke-width="2" /><polyline fill="none" points="70.7254,13.8847 64.2169,108.0407" stroke="#00d4ff" stroke-width="2" /><polyline fill="none" points="105.4373,43.3898 99.7966,51.6339 94.5898,62.4814 90.6847,83.3085 90.6847,93.2881 98.061,115.4169" stroke="#ffe500" stroke-width="2" /><polyline fill="none" points="21.261,27.3356 26.9017,34.278 31.6746,44.2576 37.3153,62.4814 37.7492,81.5729 32.1085,101.9661" stroke="#7f0000" stroke-width="2" /></svg>