<?xml version="1.0" encoding="utf-8" ?>
<svg baseProfile="tiny" height="128" version="1.2" viewBox="0,0,128,128" width="128" xmlns="http://www.w3.org/2000/svg" xmlns:ev="http://www.w3.org/2001/xml-events" xmlns:xlink="http://www.w3.org/1999/xlink"><defs /><polyline fill="none" points="65.9525,8.678 27.7695,8.678 16.4881,15.1864 13.4508,19.0915 9.5458,28.6373 8.678,34.7119 8.678,51.2 11.2814,59.878 18.2237,71.5932 25.1661,78.5356 29.5051,79.4034 78.1017,80.2712 93.722,68.5559 97.1932,62.0475 97.1932,42.0881 95.4576,38.1831 84.6102,24.7322 63.7831,11.2814" stroke="#00007f" stroke-width="2" /><polyline fill="none" points="56.4068,10.4136 51.6339,10.4136 47.7288,11.7153 45.9932,17.3559 47.7288,26.0339 57.7085,36.4475 59.0102,40.3525 59.0102,45.1254 50.7661,53.8034 45.9932,66.8203 45.9932,82.4407 49.8983,90.6847" stroke="#00d4ff" stroke-width="2" /><polyline fill="none" points="72.461,14.3186 69.8576,19.9593 69.8576,29.5051 74.6305,37.3153 75.4983,49.0305 71.5932,58.5763 65.0847,68.5559 65.0847,75.4983" stroke="#ffe500" stroke-width="2" /><polyline fill="none" points="11.7153,42.9559 17.3559,38.1831 37.7492,38.1831 49.4644,39.0508 53.3695,39.9186 58.1424,42.9559 74.6305,45.1254 114.9831,48.5966 119.322,47.7288 119.322,45.1254" stroke="#7f0000" stroke-width="2" /></svg>