<?xml version="1.0" encoding="utf-8" ?>
<svg baseProfile="tiny" height="128" version="1.2" viewBox="0,0,128,128" width="128" xmlns="http://www.w3.org/2000/svg" xmlns:ev="http://www.w3.org/2001/xml-events" xmlns:xlink="http://www.w3.org/1999/xlink"><defs /><polyline fill="none" points="78.6348,21.843 76.4505,18.3481 69.4608,12.2321 57.2287,8.7372 45.4334,11.7952 39.3174,16.6007 34.0751,23.5904 28.8328,33.6382 24.0273,47.6177 8.7372,100.9147 8.7372,107.9044 10.0478,111.3993 13.9795,114.8942 19.6587,117.0785 37.1331,118.3891 61.5973,110.9625 77.7611,108.7782 83.8771,105.2833 90.43,95.2355 96.5461,77.3242 96.5461,59.413 93.0512,38.4437 89.1195,30.5802 84.7509,25.7747 66.8396,20.0956" stroke="#00007f" stroke-width="2" /><polyline fill="none" points="86.9352,34.9488 83.0034,32.3276 75.5768,31.0171 67.7133,33.2014 62.471,37.1331 36.6962,78.6348 32.7645,90.43 27.0853,119.2628" stroke="#00d4ff" stroke-width="2" /><polyline fill="none" points="76.4505,29.7065 76.8874,35.8225 72.0819,41.5017 70.7713,42.3754 70.3345,41.0648 69.4608,36.2594" stroke="#ffe500" stroke-width="2" /><polyline fill="none" points="67.7133,27.5222 65.9659,49.802 65.529,54.1706 65.529,48.0546" stroke="#7f0000" stroke-width="2" /></svg>