<?xml version="1.0" encoding="utf-8" ?>
<svg baseProfile="tiny" height="128" version="1.2" viewBox="0,0,128,128" width="128" xmlns="http://www.w3.org/2000/svg" xmlns:ev="http://www.w3.org/2001/xml-events" xmlns:xlink="http://www.w3.org/1999/xlink"><defs /><polyline fill="none" points="60.7458,12.1492 46.4271,8.678 32.1085,15.1864 26.4678,20.8271 22.1288,27.3356 12.1492,50.7661 8.678,73.7627 16.4881,102.8339 20.8271,108.0407 26.4678,113.6814 35.1458,117.1525 47.7288,119.322 63.7831,118.0203 87.2136,109.3424 94.1559,102.4 102.8339,85.9119 105.8712,70.7254 105.8712,60.7458 105.0034,51.6339 99.3627,37.3153 91.5525,25.1661 83.7424,17.3559 70.2915,12.1492 46.4271,10.8475" stroke="#00007f" stroke-width="2" /><polyline fill="none" points="67.2542,41.6542 66.3864,41.6542" stroke="#0000cc" stroke-width="2" /><polyline fill="none" points="79.4034,57.2746 78.5356,57.2746" stroke="#0008ff" stroke-width="2" /><polyline fill="none" points="79.4034,82.8746 77.2339,82.8746" stroke="#004cff" stroke-width="2" /><polyline fill="none" points="32.1085,93.722 34.278,93.722" stroke="#0090ff" stroke-width="2" /><polyline fill="none" points="25.1661,71.5932 25.1661,70.7254" stroke="#00d4ff" stroke-width="2" /><polyline fill="none" points="35.1458,47.2949 32.9763,47.2949" stroke="#29ffcd" stroke-width="2" /><polyline fill="none" points="40.7864,32.9763 39.4847,32.1085" stroke="#5fff96" stroke-width="2" /><polyline fill="none" points="60.7458,22.9966 59.4441,22.1288" stroke="#96ff5f" stroke-width="2" /><polyline fill="none" points="79.4034,36.4475 78.5356,36.4475" stroke="#cdff29" stroke-width="2" /><polyline fill="none" points="90.6847,65.0847 89.3831,65.0847" stroke="#ffe500" stroke-width="2" /><polyline fill="none" points="62.9153,105.0034 61.6136,105.8712" stroke="#ffa600" stroke-width="2" /><polyline fill="none" points="55.1051,82.8746 54.2373,82.8746" stroke="#ff6700" stroke-width="2" /><polyline fill="none" points="55.1051,51.6339 51.6339,52.9356" stroke="#ff2800" stroke-width="2" /><polyline fill="none" points="32.1085,24.2983 29.5051,26.4678" stroke="#cc0000" stroke-width="2" /><polyline fill="none" points="13.0169,61.6136 12.1492,64.2169" stroke="#7f0000" stroke-width="2" /></svg>