<?xml version="1.0" encoding="utf-8" ?>
<svg baseProfile="tiny" height="128" version="1.2" viewBox="0,0,128,128" width="128" xmlns="http://www.w3.org/2000/svg" xmlns:ev="http://www.w3.org/2001/xml-events" xmlns:xlink="http://www.w3.org/1999/xlink"><defs /><polyline fill="none" points="87.2136,22.1288 87.2136,16.922 74.6305,11.2814 61.1797,9.5458 44.2576,9.5458 29.0712,15.6203 22.1288,20.3932 13.0169,33.8441 8.678,59.0102 8.678,82.4407 12.1492,92.4203 22.1288,107.6068 28.6373,112.3797 35.5797,114.9831 49.4644,117.5864 77.6678,115.8508 95.0237,105.0034 103.2678,95.8915 105.0034,91.5525 106.739,82.0068 106.739,66.3864 102.4,50.3322 95.0237,30.8068 91.5525,24.7322 86.3458,19.5254 72.0271,16.922" stroke="#00007f" stroke-width="2" /><polyline fill="none" points="66.8203,8.678 65.0847,13.0169 65.0847,52.5017 70.2915,77.6678 75.4983,93.2881 82.8746,108.0407 91.5525,116.7186 95.0237,115.8508" stroke="#7cff79" stroke-width="2" /><polyline fill="none" points="9.5458,30.8068 16.4881,36.0136 32.1085,61.6136 40.7864,88.0814 41.6542,97.6271 47.7288,119.322" stroke="#7f0000" stroke-width="2" /></svg>