<?xml version="1.0" encoding="utf-8" ?>
<svg baseProfile="tiny" height="128" version="1.2" viewBox="0,0,128,128" width="128" xmlns="http://www.w3.org/2000/svg" xmlns:ev="http://www.w3.org/2001/xml-events" xmlns:xlink="http://www.w3.org/1999/xlink"><defs /><polyline fill="none" points="73.7627,11.2814 71.1593,11.7153 57.7085,8.678 46.4271,10.8475 27.7695,19.0915 22.5627,24.2983 15.6203,33.4102 12.1492,45.1254 12.5831,64.2169 10.8475,94.5898 12.1492,100.6644 22.5627,112.3797 40.3525,118.8881 46.861,119.322 60.7458,111.9458 82.4407,109.3424 98.9288,104.5695 101.5322,103.2678 106.3051,97.6271 107.6068,91.5525 107.6068,82.0068 101.0983,51.2 96.7593,41.6542 91.5525,19.0915 76.3661,9.9797 70.7254,9.1119" stroke="#00007f" stroke-width="2" /><polyline fill="none" points="42.522,16.0542 41.2203,37.3153 38.6169,55.539 21.261,78.9695 8.678,88.9492" stroke="#00d4ff" stroke-width="2" /><polyline fill="none" points="57.2746,9.9797 56.4068,56.4068 54.6712,66.3864 18.6576,110.2102 16.4881,109.3424" stroke="#ffe500" stroke-width="2" /><polyline fill="none" points="55.1051,39.4847 55.1051,39.4847" stroke="#7f0000" stroke-width="2" /></svg>