<?xml version="1.0" encoding="utf-8" ?>
<svg baseProfile="tiny" height="128" version="1.2" viewBox="0,0,128,128" width="128" xmlns="http://www.w3.org/2000/svg" xmlns:ev="http://www.w3.org/2001/xml-events" xmlns:xlink="http://www.w3.org/1999/xlink"><defs /><polyline fill="none" points="65.0847,11.7153 40.3525,11.7153 22.5627,25.6 15.1864,36.0136 11.7153,43.3898 8.678,64.6508 9.5458,83.3085 17.3559,93.2881 22.9966,98.061 29.939,103.2678 36.8814,106.3051 52.9356,110.2102 69.4237,111.9458 85.478,111.9458 91.1186,109.3424 100.6644,103.2678 104.1356,98.9288 114.5492,76.3661 118.4542,62.9153 119.322,41.6542 111.9458,28.6373 108.0407,24.7322 95.0237,16.922 81.5729,12.1492 56.4068,8.678" stroke="#00007f" stroke-width="2" /><polyline fill="none" points="96.7593,19.0915 82.0068,44.2576 77.2339,61.1797 77.2339,82.0068 82.8746,88.5153 94.1559,97.6271" stroke="#0028ff" stroke-width="2" /><polyline fill="none" points="65.9525,40.7864 74.6305,43.3898 104.5695,45.9932" stroke="#00d4ff" stroke-width="2" /><polyline fill="none" points="63.7831,65.9525 97.6271,66.8203" stroke="#7cff79" stroke-width="2" /><polyline fill="none" points="29.5051,24.7322 41.2203,42.522 45.1254,53.8034 46.4271,67.2542 45.5593,84.6102 40.3525,96.7593 31.2407,110.6441" stroke="#ffe500" stroke-width="2" /><polyline fill="none" points="56.4068,39.4847 32.9763,46.4271" stroke="#ff4600" stroke-width="2" /><polyline fill="none" points="66.8203,84.6102 51.6339,83.7424 38.6169,87.6475" stroke="#7f0000" stroke-width="2" /></svg>