<?xml version="1.0" encoding="utf-8" ?>
<svg baseProfile="tiny" height="128" version="1.2" viewBox="0,0,128,128" width="128" xmlns="http://www.w3.org/2000/svg" xmlns:ev="http://www.w3.org/2001/xml-events" xmlns:xlink="http://www.w3.org/1999/xlink"><defs /><polyline fill="none" points="23.4305,82.0068 18.2237,80.7051 13.8847,76.8 9.9797,66.8203 8.678,54.6712 9.5458,43.3898 10.8475,39.0508 15.6203,32.9763 29.5051,23.8644 48.5966,21.261 66.3864,22.5627 77.6678,28.2034 80.7051,32.9763 82.4407,38.6169 82.8746,52.5017 80.2712,61.1797 71.1593,75.0644 61.1797,84.6102 52.0678,88.5153 39.0508,87.6475 30.3729,82.0068 18.6576,71.1593 18.2237,68.9898 19.5254,67.6881" stroke="#00007f" stroke-width="2" /><polyline fill="none" points="74.1966,13.8847 82.8746,11.2814 119.322,8.678" stroke="#004cff" stroke-width="2" /><polyline fill="none" points="91.5525,44.6915 101.0983,41.6542 118.4542,40.3525" stroke="#29ffcd" stroke-width="2" /><polyline fill="none" points="79.8373,85.0441 116.2847,87.2136" stroke="#cdff29" stroke-width="2" /><polyline fill="none" points="54.6712,21.261 48.1627,38.1831 43.3898,57.2746 42.522,67.2542 43.3898,76.3661 46.4271,83.3085 52.0678,88.5153 59.0102,91.5525 66.8203,93.2881 75.0644,91.9864" stroke="#ff6700" stroke-width="2" /><polyline fill="none" points="28.2034,18.6576 28.6373,26.4678 25.1661,65.0847 21.261,82.4407 16.0542,96.7593" stroke="#7f0000" stroke-width="2" /></svg>