<?xml version="1.0" encoding="utf-8" ?>
<svg baseProfile="tiny" height="128" version="1.2" viewBox="0,0,128,128" width="128" xmlns="http://www.w3.org/2000/svg" xmlns:ev="http://www.w3.org/2001/xml-events" xmlns:xlink="http://www.w3.org/1999/xlink"><defs /><polyline fill="none" points="94.1559,37.3153 84.1763,22.1288 69.4237,13.0169 45.5593,8.678 25.1661,15.1864 11.7153,28.2034 8.678,36.0136 9.1119,48.5966 19.9593,72.8949 28.2034,82.0068 37.7492,88.9492 49.0305,93.722 61.1797,96.7593 74.1966,97.6271 86.3458,96.3254 102.4,88.9492 110.2102,81.139 115.8508,72.0271 119.322,56.4068 118.0203,45.1254 114.1153,35.5797 109.3424,28.6373 103.2678,23.8644 89.8169,18.2237 82.8746,17.7898" stroke="#00007f" stroke-width="2" /><polyline fill="none" points="43.3898,17.3559 47.2949,16.922 50.7661,19.5254 52.9356,23.8644 55.539,36.4475 55.539,45.1254 52.5017,63.7831 49.0305,73.7627 45.9932,78.5356 41.6542,81.5729" stroke="#0000ff" stroke-width="2" /><polyline fill="none" points="39.4847,38.6169 52.5017,39.0508 59.4441,41.2203" stroke="#0080ff" stroke-width="2" /><polyline fill="none" points="40.7864,68.9898 46.4271,77.6678" stroke="#15ffe1" stroke-width="2" /><polyline fill="none" points="45.5593,61.1797 55.1051,64.6508" stroke="#7cff79" stroke-width="2" /><polyline fill="none" points="106.739,32.5424 102.4,42.9559 100.2305,59.0102 100.6644,82.4407 103.7017,93.722" stroke="#e4ff12" stroke-width="2" /><polyline fill="none" points="99.7966,47.7288 105.0034,48.5966" stroke="#ff9400" stroke-width="2" /><polyline fill="none" points="91.9864,69.8576 102.8339,65.5186" stroke="#ff1d00" stroke-width="2" /><polyline fill="none" points="95.0237,83.7424 101.0983,81.5729" stroke="#7f0000" stroke-width="2" /></svg>