<?xml version="1.0" encoding="utf-8" ?>
<svg baseProfile="tiny" height="128" version="1.2" viewBox="0,0,128,128" width="128" xmlns="http://www.w3.org/2000/svg" xmlns:ev="http://www.w3.org/2001/xml-events" xmlns:xlink="http://www.w3.org/1999/xlink"><defs /><polyline fill="none" points="59.4441,21.6949 52.5017,20.3932 43.3898,20.8271 37.7492,22.5627 29.5051,27.3356 19.9593,36.0136 15.6203,42.0881 8.678,61.1797 10.4136,75.0644 17.7898,88.0814 33.8441,100.2305 43.8237,105.8712 54.6712,109.3424 69.8576,111.078 77.6678,110.2102 91.9864,105.0034 104.5695,96.7593 112.8136,87.2136 117.1525,78.9695 119.322,67.2542 118.0203,55.539 112.3797,40.3525 108.0407,31.2407 95.0237,17.7898 86.7797,12.5831 75.9322,8.678 61.1797,8.678 49.4644,10.4136 34.278,16.922" stroke="#00007f" stroke-width="2" /><polyline fill="none" points="32.1085,25.1661 44.2576,46.4271 48.1627,61.1797 45.9932,76.3661 33.8441,98.9288" stroke="#0080ff" stroke-width="2" /><polyline fill="none" points="87.6475,13.4508 80.7051,21.6949 77.2339,35.1458 75.4983,50.3322 77.2339,66.3864 80.7051,79.8373 85.0441,87.2136 96.3254,98.4949 105.0034,103.2678" stroke="#7cff79" stroke-width="2" /><polyline fill="none" points="32.1085,53.3695 37.7492,46.861 49.4644,40.3525" stroke="#ff9400" stroke-width="2" /><polyline fill="none" points="38.1831,77.6678 53.8034,75.0644" stroke="#7f0000" stroke-width="2" /></svg>