<?xml version="1.0" encoding="utf-8" ?>
<svg baseProfile="tiny" height="128" version="1.2" viewBox="0,0,128,128" width="128" xmlns="http://www.w3.org/2000/svg" xmlns:ev="http://www.w3.org/2001/xml-events" xmlns:xlink="http://www.w3.org/1999/xlink"><defs /><polyline fill="none" points="31.3469,16.9796 20.4626,28.7347 16.5442,34.8299 10.8844,55.2925 8.7075,69.2245 9.1429,78.8027 11.7551,92.2993 14.3673,99.2653 22.6395,106.6667 32.2177,110.1497 40.9252,111.4558 57.9048,110.1497 77.4966,102.3129 93.1701,88.8163 102.7483,74.0136 104.4898,63.1293 101.4422,49.1973 92.2993,28.7347 79.2381,16.5442 69.6599,10.8844 61.8231,8.7075 50.068,8.7075 41.3605,11.3197" stroke="#00007f" stroke-width="2" /><polyline fill="none" points="26.9932,29.6054 33.9592,53.1156 40.0544,93.1701 37.8776,109.2789 34.8299,114.5034 30.0408,119.2925" stroke="#7cff79" stroke-width="2" /><polyline fill="none" points="86.2041,11.7551 80.5442,47.4558 80.1088,62.2585 82.7211,80.1088 89.6871,101.0068" stroke="#7f0000" stroke-width="2" /></svg>