<?xml version="1.0" encoding="utf-8" ?>
<svg baseProfile="tiny" height="128" version="1.2" viewBox="0,0,128,128" width="128" xmlns="http://www.w3.org/2000/svg" xmlns:ev="http://www.w3.org/2001/xml-events" xmlns:xlink="http://www.w3.org/1999/xlink"><defs /><polyline fill="none" points="36.4475,45.9932 24.2983,45.9932 12.5831,50.7661 9.9797,55.1051 8.678,60.3119 9.9797,71.5932 11.2814,75.4983 15.1864,80.2712 20.8271,83.3085 33.8441,82.8746 40.7864,79.8373 47.7288,71.5932 50.3322,56.4068 49.0305,53.8034 37.3153,49.0305" stroke="#00007f" stroke-width="2" /><polyline fill="none" points="36.0136,50.7661 31.6746,55.9729 31.6746,63.7831 36.0136,71.5932 41.6542,73.7627" stroke="#00d4ff" stroke-width="2" /><polyline fill="none" points="19.5254,55.539 25.1661,58.5763 26.0339,67.6881 24.7322,72.8949 16.4881,75.4983" stroke="#ffe500" stroke-width="2" /><polyline fill="none" points="101.0983,17.7898 111.078,19.9593 117.1525,19.0915 119.322,16.4881 117.1525,11.2814 109.3424,8.678 98.4949,10.8475 95.4576,13.4508 95.4576,15.6203 101.5322,17.3559 110.2102,16.922" stroke="#7f0000" stroke-width="2" /></svg>