<?xml version="1.0" encoding="utf-8" ?>
<svg baseProfile="tiny" height="128" version="1.2" viewBox="0,0,128,128" width="128" xmlns="http://www.w3.org/2000/svg" xmlns:ev="http://www.w3.org/2001/xml-events" xmlns:xlink="http://www.w3.org/1999/xlink"><defs /><polyline fill="none" points="72.8949,22.5627 72.0271,14.3186 70.2915,10.4136 55.539,8.678 38.1831,9.1119 32.5424,12.5831 22.1288,22.1288 12.5831,36.8814 9.9797,42.522 8.678,62.9153 9.9797,69.4237 26.0339,82.0068 44.6915,85.478 63.7831,84.6102 91.5525,75.4983 105.4373,65.9525 108.9085,55.9729 107.6068,39.0508 95.8915,26.0339 78.9695,11.7153 67.6881,10.4136 55.1051,12.1492 53.3695,14.3186" stroke="#00007f" stroke-width="2" /><polyline fill="none" points="16.0542,13.0169 27.7695,19.5254 40.3525,32.5424 47.2949,44.2576 49.4644,53.8034 48.1627,74.1966 36.8814,98.4949" stroke="#00d4ff" stroke-width="2" /><polyline fill="none" points="80.7051,16.0542 73.3288,22.1288 62.4814,43.8237 59.0102,69.4237 59.4441,75.4983 71.1593,86.7797 84.1763,93.2881 86.7797,93.722" stroke="#ffe500" stroke-width="2" /><polyline fill="none" points="14.7525,67.2542 20.3932,64.2169 39.0508,47.2949 54.6712,37.3153 72.461,32.1085 85.0441,33.4102 91.1186,36.0136 96.7593,40.7864 114.1153,59.4441 119.322,61.1797" stroke="#7f0000" stroke-width="2" /></svg>