<?xml version="1.0" encoding="utf-8" ?>
<svg baseProfile="tiny" height="128" version="1.2" viewBox="0,0,128,128" width="128" xmlns="http://www.w3.org/2000/svg" xmlns:ev="http://www.w3.org/2001/xml-events" xmlns:xlink="http://www.w3.org/1999/xlink"><defs /><polyline fill="none" points="41.6542,92.4203 60.3119,95.4576 81.139,95.8915 95.0237,94.1559 101.5322,91.9864 111.078,85.478 114.5492,81.139 118.8881,70.2915 119.322,59.878 114.1153,46.861 106.739,37.3153 84.6102,19.9593 64.2169,11.2814 51.6339,8.678 37.7492,8.678 26.9017,13.8847 14.7525,25.6 9.9797,34.278 8.678,45.9932 11.2814,59.4441 14.3186,67.2542 18.2237,73.7627 25.6,82.4407 35.5797,90.2508 43.3898,92.4203 47.2949,91.1186" stroke="#00007f" stroke-width="2" /><polyline fill="none" points="90.6847,98.4949 85.478,78.9695 82.8746,61.6136 83.7424,55.1051 88.9492,41.6542 95.0237,31.2407" stroke="#0010ff" stroke-width="2" /><polyline fill="none" points="19.5254,63.7831 32.1085,35.5797 34.278,20.3932 33.4102,9.9797" stroke="#00a4ff" stroke-width="2" /><polyline fill="none" points="20.8271,56.4068 29.0712,61.6136" stroke="#3fffb7" stroke-width="2" /><polyline fill="none" points="24.2983,50.7661 27.7695,53.3695 31.2407,52.9356" stroke="#b7ff3f" stroke-width="2" /><polyline fill="none" points="26.9017,41.6542 32.5424,44.2576 37.3153,44.2576" stroke="#ffb900" stroke-width="2" /><polyline fill="none" points="33.4102,28.6373 37.7492,31.2407 40.3525,29.939" stroke="#ff3000" stroke-width="2" /><polyline fill="none" points="26.9017,22.1288 39.9186,16.0542 48.1627,9.9797" stroke="#7f0000" stroke-width="2" /></svg>