<?xml version="1.0" encoding="utf-8" ?>
<svg baseProfile="tiny" height="128" version="1.2" viewBox="0,0,128,128" width="128" xmlns="http://www.w3.org/2000/svg" xmlns:ev="http://www.w3.org/2001/xml-events" xmlns:xlink="http://www.w3.org/1999/xlink"><defs /><polyline fill="none" points="107.9728,15.6735 106.6667,13.0612 97.9592,8.7075 83.5918,8.7075 67.483,13.4966 48.3265,22.6395 34.3946,33.0884 24.381,43.5374 19.5918,50.068 11.7551,68.3537 8.7075,81.415 8.7075,90.5578 13.4966,101.0068 25.2517,114.068 30.4762,116.6803 40.4898,119.2925 68.3537,118.4218 76.6259,115.8095 99.7007,102.7483 110.585,88.381 113.1973,80.1088 114.9388,69.2245 114.068,49.6327 110.1497,36.1361 102.3129,17.8503" stroke="#00007f" stroke-width="2" /><polyline fill="none" points="76.6259,16.1088 81.415,20.898 86.2041,39.1837 88.381,97.0884 85.7687,108.4082" stroke="#7cff79" stroke-width="2" /><polyline fill="none" points="36.1361,30.4762 40.0544,30.4762 53.1156,50.5034 56.5986,73.1429 57.034,94.0408" stroke="#7f0000" stroke-width="2" /></svg>