<?xml version="1.0" encoding="utf-8" ?>
<svg baseProfile="tiny" height="128" version="1.2" viewBox="0,0,128,128" width="128" xmlns="http://www.w3.org/2000/svg" xmlns:ev="http://www.w3.org/2001/xml-events" xmlns:xlink="http://www.w3.org/1999/xlink"><defs /><polyline fill="none" points="72.0271,15.1864 56.4068,13.4508 41.6542,16.922 34.278,21.261 21.261,32.5424 12.1492,50.7661 8.678,65.5186 9.1119,80.2712 11.2814,90.6847 20.3932,107.1729 33.4102,117.1525 44.6915,119.322 59.0102,118.4542 68.9898,114.5492 81.5729,106.739 87.2136,101.9661 98.061,88.0814 105.8712,66.3864 106.3051,54.6712 95.4576,32.5424 80.7051,18.6576 60.7458,8.678" stroke="#00007f" stroke-width="2" /><polyline fill="none" points="32.5424,26.9017 40.3525,36.4475 45.1254,45.1254 50.3322,67.2542 50.3322,83.3085 48.5966,94.1559 42.0881,114.9831" stroke="#0080ff" stroke-width="2" /><polyline fill="none" points="82.4407,34.278 75.4983,51.6339 75.0644,72.0271 77.6678,88.0814 82.8746,101.0983 87.2136,106.3051" stroke="#7cff79" stroke-width="2" /><polyline fill="none" points="35.5797,29.5051 39.9186,30.8068 40.7864,32.5424 35.1458,41.2203 35.5797,42.9559 45.5593,48.5966 50.7661,66.8203 42.9559,91.5525 40.7864,104.5695 42.0881,110.2102" stroke="#ff9400" stroke-width="2" /><polyline fill="none" points="84.6102,39.9186 77.2339,50.3322 77.2339,52.0678 81.139,55.9729 81.5729,60.3119 76.3661,82.4407 93.722,114.5492" stroke="#7f0000" stroke-width="2" /></svg>