<?xml version="1.0" encoding="utf-8" ?>
<svg baseProfile="tiny" height="128" version="1.2" viewBox="0,0,128,128" width="128" xmlns="http://www.w3.org/2000/svg" xmlns:ev="http://www.w3.org/2001/xml-events" xmlns:xlink="http://www.w3.org/1999/xlink"><defs /><polyline fill="none" points="55.9729,18.2237 53.8034,16.922 46.4271,16.922 30.3729,19.9593 25.6,22.9966 14.3186,41.6542 9.1119,56.4068 8.678,70.7254 12.1492,83.7424 21.6949,96.3254 33.4102,103.7017 62.9153,110.6441 93.2881,112.8136 99.7966,110.2102 107.6068,102.8339 115.8508,88.0814 118.4542,79.4034 119.322,55.1051 117.5864,47.7288 113.2475,39.0508 107.6068,31.2407 95.4576,18.6576 79.4034,10.8475 68.5559,8.678 63.7831,8.678 46.861,14.3186" stroke="#00007f" stroke-width="2" /><polyline fill="none" points="42.522,16.922 47.7288,21.6949 53.3695,32.5424 53.3695,59.4441 49.8983,67.2542 43.3898,74.1966 20.8271,85.9119" stroke="#7cff79" stroke-width="2" /><polyline fill="none" points="107.1729,31.6746 102.4,31.2407 94.5898,43.3898 90.2508,62.4814 89.3831,91.9864 92.4203,98.4949" stroke="#7f0000" stroke-width="2" /></svg>