<?xml version="1.0" encoding="utf-8" ?>
<svg baseProfile="tiny" height="128" version="1.2" viewBox="0,0,128,128" width="128" xmlns="http://www.w3.org/2000/svg" xmlns:ev="http://www.w3.org/2001/xml-events" xmlns:xlink="http://www.w3.org/1999/xlink"><defs /><polyline fill="none" points="107.6068,21.6949 99.3627,12.5831 92.8542,9.5458 81.5729,8.678 65.9525,9.5458 39.0508,19.0915 29.0712,25.1661 21.6949,32.9763 16.0542,40.3525 9.5458,58.5763 8.678,76.8 10.4136,85.478 14.7525,94.5898 21.261,102.4 37.7492,111.9458 47.2949,114.9831 57.7085,115.8508 78.9695,114.9831 96.7593,105.4373 103.7017,98.9288 112.3797,85.9119 115.8508,76.8 118.8881,62.0475 119.322,40.7864 117.5864,34.7119 111.9458,25.1661 106.3051,19.0915 98.061,14.3186 91.5525,14.7525" stroke="#00007f" stroke-width="2" /><polyline fill="none" points="8.678,45.9932 12.1492,44.6915 26.4678,52.0678 35.5797,62.9153 38.1831,70.7254 38.1831,91.1186 31.6746,104.1356 26.4678,110.2102" stroke="#00d4ff" stroke-width="2" /><polyline fill="none" points="51.2,20.8271 57.2746,97.6271 62.9153,114.5492 65.9525,116.2847 68.122,114.9831" stroke="#ffe500" stroke-width="2" /><polyline fill="none" points="107.6068,18.6576 95.8915,24.7322 86.3458,32.9763 78.5356,43.8237 75.0644,54.6712 75.4983,64.2169 83.7424,73.3288 95.8915,79.8373 107.6068,79.4034" stroke="#7f0000" stroke-width="2" /></svg>