<?xml version="1.0" encoding="utf-8" ?>
<svg baseProfile="tiny" height="128" version="1.2" viewBox="0,0,128,128" width="128" xmlns="http://www.w3.org/2000/svg" xmlns:ev="http://www.w3.org/2001/xml-events" xmlns:xlink="http://www.w3.org/1999/xlink"><defs /><polyline fill="none" points="32.5424,28.2034 23.4305,37.7492 17.3559,47.2949 9.1119,76.8 8.678,89.8169 9.9797,99.3627 20.3932,113.2475 28.6373,117.5864 39.0508,119.322 50.3322,119.322 62.9153,116.2847 75.9322,110.6441 86.3458,102.8339 93.722,94.1559 97.6271,84.6102 99.3627,73.3288 99.3627,45.5593 97.1932,33.4102 92.8542,22.5627 85.478,15.1864 76.3661,10.4136 66.8203,8.678 50.7661,8.678 31.2407,17.7898 23.4305,25.1661" stroke="#00007f" stroke-width="2" /><polyline fill="none" points="28.2034,26.9017 33.8441,40.3525 42.0881,80.7051 42.522,96.7593 38.6169,109.7763" stroke="#004cff" stroke-width="2" /><polyline fill="none" points="86.3458,15.6203 80.2712,22.1288 72.8949,37.3153 70.7254,55.1051 71.1593,69.4237 73.3288,77.2339 81.139,101.9661 84.1763,105.4373" stroke="#29ffcd" stroke-width="2" /><polyline fill="none" points="28.6373,45.5593 45.5593,45.5593" stroke="#cdff29" stroke-width="2" /><polyline fill="none" points="29.939,74.6305 41.2203,76.3661 45.1254,80.2712" stroke="#ff6700" stroke-width="2" /><polyline fill="none" points="34.278,106.3051 50.7661,111.5119" stroke="#7f0000" stroke-width="2" /></svg>