<?xml version="1.0" encoding="utf-8" ?>
<svg baseProfile="tiny" height="128" version="1.2" viewBox="0,0,128,128" width="128" xmlns="http://www.w3.org/2000/svg" xmlns:ev="http://www.w3.org/2001/xml-events" xmlns:xlink="http://www.w3.org/1999/xlink"><defs /><polyline fill="none" points="76.3661,15.6203 75.9322,10.8475 72.461,8.678 62.0475,8.678 47.2949,12.5831 29.0712,21.6949 21.261,27.7695 13.0169,39.4847 9.1119,52.5017 8.678,75.4983 15.1864,88.9492 25.6,99.7966 32.1085,103.7017 49.8983,110.2102 76.8,111.078 98.4949,103.7017 114.5492,87.6475 118.8881,75.4983 119.322,53.8034 113.6814,38.6169 105.0034,30.8068 80.2712,16.4881 75.0644,14.7525" stroke="#00007f" stroke-width="2" /><polyline fill="none" points="31.2407,20.3932 32.5424,28.6373 40.3525,36.0136 65.9525,45.1254 88.0814,45.5593 111.078,36.8814" stroke="#0028ff" stroke-width="2" /><polyline fill="none" points="13.4508,89.8169 18.2237,88.9492 36.8814,88.9492 50.7661,91.1186 68.122,96.7593 82.4407,103.7017 85.0441,106.3051" stroke="#00d4ff" stroke-width="2" /><polyline fill="none" points="45.1254,32.1085 43.3898,39.4847" stroke="#7cff79" stroke-width="2" /><polyline fill="none" points="58.5763,38.1831 59.878,40.3525 60.3119,50.3322" stroke="#ffe500" stroke-width="2" /><polyline fill="none" points="77.2339,42.9559 79.4034,49.8983" stroke="#ff4600" stroke-width="2" /><polyline fill="none" points="89.3831,38.1831 91.9864,47.7288" stroke="#7f0000" stroke-width="2" /></svg>