<?xml version="1.0" encoding="utf-8" ?>
<svg baseProfile="tiny" height="128" version="1.2" viewBox="0,0,128,128" width="128" xmlns="http://www.w3.org/2000/svg" xmlns:ev="http://www.w3.org/2001/xml-events" xmlns:xlink="http://www.w3.org/1999/xlink"><defs /><polyline fill="none" points="85.478,21.6949 72.461,21.261 66.3864,23.4305 38.6169,36.4475 17.7898,49.4644 10.4136,58.5763 8.678,66.3864 8.678,75.0644 9.9797,80.7051 16.4881,89.8169 28.2034,95.4576 78.5356,102.4 99.7966,101.9661 108.0407,98.9288 113.6814,90.6847 119.322,70.7254 118.4542,53.3695 111.078,26.9017 105.0034,13.4508 101.9661,9.1119 101.0983,8.678 94.1559,13.0169 81.5729,22.5627" stroke="#00007f" stroke-width="2" /><polyline fill="none" points="70.2915,22.9966 69.4237,54.6712 65.9525,78.9695 60.7458,87.2136 50.3322,96.7593" stroke="#7cff79" stroke-width="2" /><polyline fill="none" points="98.4949,9.9797 98.9288,48.1627 96.3254,66.3864 93.2881,77.2339 89.8169,83.7424 81.5729,95.8915 75.4983,100.2305" stroke="#7f0000" stroke-width="2" /></svg>