<?xml version="1.0" encoding="utf-8" ?>
<svg baseProfile="tiny" height="128" version="1.2" viewBox="0,0,128,128" width="128" xmlns="http://www.w3.org/2000/svg" xmlns:ev="http://www.w3.org/2001/xml-events" xmlns:xlink="http://www.w3.org/1999/xlink"><defs /><polyline fill="none" points="58.5763,12.1492 54.2373,9.9797 48.5966,9.9797 36.8814,17.3559 24.7322,27.7695 13.0169,43.3898 9.5458,55.1051 8.678,84.6102 15.1864,95.4576 24.7322,101.0983 36.4475,105.4373 61.6136,111.078 73.3288,111.078 80.2712,108.9085 95.4576,100.2305 111.078,87.2136 117.1525,75.0644 118.0203,55.1051 109.7763,36.4475 106.739,32.5424 86.3458,17.3559 72.461,13.0169 55.9729,13.4508" stroke="#00007f" stroke-width="2" /><polyline fill="none" points="53.8034,10.8475 53.8034,10.8475" stroke="#0010ff" stroke-width="2" /><polyline fill="none" points="58.5763,8.678 55.1051,13.4508 55.9729,62.0475 60.3119,58.1424 72.0271,40.3525 77.6678,34.7119 82.8746,30.3729 90.2508,27.7695" stroke="#00a4ff" stroke-width="2" /><polyline fill="none" points="67.2542,60.7458 72.8949,62.0475 84.6102,62.0475 119.322,54.6712" stroke="#3fffb7" stroke-width="2" /><polyline fill="none" points="63.7831,63.7831 88.9492,81.139 93.722,86.7797 95.8915,95.8915 95.8915,102.4" stroke="#b7ff3f" stroke-width="2" /><polyline fill="none" points="62.9153,66.3864 61.6136,78.5356 58.5763,83.7424 51.6339,94.5898 40.3525,106.739" stroke="#ffb900" stroke-width="2" /><polyline fill="none" points="60.3119,66.3864 51.6339,67.2542 34.7119,73.3288 24.7322,77.6678 12.1492,86.3458" stroke="#ff3000" stroke-width="2" /><polyline fill="none" points="60.7458,65.9525 51.6339,62.9153 38.1831,53.8034 31.2407,46.4271 27.7695,38.1831" stroke="#7f0000" stroke-width="2" /></svg>