<?xml version="1.0" encoding="utf-8" ?>
<svg baseProfile="tiny" height="128" version="1.2" viewBox="0,0,128,128" width="128" xmlns="http://www.w3.org/2000/svg" xmlns:ev="http://www.w3.org/2001/xml-events" xmlns:xlink="http://www.w3.org/1999/xlink"><defs /><polyline fill="none" points="74.6305,13.0169 57.2746,8.678 50.3322,10.8475 36.0136,16.0542 21.261,28.6373 16.0542,40.3525 14.7525,54.6712 15.6203,69.4237 18.6576,76.8 22.9966,82.0068 35.5797,89.8169 44.2576,92.8542 63.7831,95.8915 97.1932,96.3254 108.4746,90.6847 118.0203,78.9695 119.322,63.3492 118.0203,57.7085 112.3797,47.7288 98.9288,30.3729 86.7797,18.6576 78.9695,12.1492 71.1593,11.7153" stroke="#00007f" stroke-width="2" /><polyline fill="none" points="64.2169,21.6949 55.9729,20.3932 53.3695,23.8644 51.6339,31.6746 52.5017,42.522 54.6712,44.2576 61.1797,46.4271 69.8576,45.5593 71.1593,42.522 71.1593,29.0712 66.3864,22.9966 62.9153,21.6949" stroke="#0028ff" stroke-width="2" /><polyline fill="none" points="69.8576,37.7492 69.8576,35.5797 75.0644,29.939 83.7424,26.0339 97.1932,26.0339 101.5322,29.0712 101.9661,31.2407" stroke="#00d4ff" stroke-width="2" /><polyline fill="none" points="69.4237,45.9932 75.0644,45.1254 82.4407,46.861 91.5525,51.2 101.0983,59.4441 104.5695,64.6508 109.7763,78.1017 112.3797,92.4203" stroke="#7cff79" stroke-width="2" /><polyline fill="none" points="51.6339,44.2576 52.0678,46.861 60.7458,55.539 62.9153,61.6136 62.9153,80.2712 57.2746,91.9864 51.2,98.4949 41.2203,104.5695 33.4102,105.8712" stroke="#ffe500" stroke-width="2" /><polyline fill="none" points="52.0678,39.4847 34.7119,51.2 24.7322,54.6712 16.4881,54.6712 11.7153,52.0678 8.678,45.1254" stroke="#ff4600" stroke-width="2" /><polyline fill="none" points="55.1051,32.5424 48.5966,32.5424 45.5593,30.8068 41.2203,26.0339 41.2203,13.4508 43.8237,8.678" stroke="#7f0000" stroke-width="2" /></svg>