<?xml version="1.0" encoding="utf-8" ?>
<svg baseProfile="tiny" height="128" version="1.2" viewBox="0,0,128,128" width="128" xmlns="http://www.w3.org/2000/svg" xmlns:ev="http://www.w3.org/2001/xml-events" xmlns:xlink="http://www.w3.org/1999/xlink"><defs /><polyline fill="none" points="46.585,25.6871 39.1837,27.4286 27.4286,40.4898 13.932,60.9524 10.0136,71.4014 8.7075,81.415 8.7075,94.9116 13.932,103.1837 17.8503,106.2313 27.8639,111.4558 41.3605,114.9388 64.4354,115.3741 70.966,114.068 82.7211,109.7143 100.5714,100.5714 106.6667,93.6054 111.0204,83.5918 114.068,69.2245 114.068,54.8571 104.0544,25.2517 94.4762,13.932 88.381,10.449 80.5442,8.7075 69.6599,8.7075 56.5986,8.7075 47.0204,11.3197 43.9728,13.4966 40.4898,21.3333 40.0544,25.2517" stroke="#00007f" stroke-width="2" /><polyline fill="none" points="77.4966,14.3673 73.5782,37.0068 72.7075,84.898 76.6259,95.7823 85.3333,106.2313 91.8639,106.6667 96.2177,103.1837" stroke="#0028ff" stroke-width="2" /><polyline fill="none" points="35.2653,23.9456 46.1497,37.0068 54.8571,55.2925 56.5986,64.0 56.5986,90.1224 54.4218,100.1361 47.4558,111.4558 40.4898,117.551 36.5714,119.2925 31.7823,119.2925" stroke="#00d4ff" stroke-width="2" /><polyline fill="none" points="66.6122,32.6531 70.0952,34.8299 72.7075,38.7483" stroke="#7cff79" stroke-width="2" /><polyline fill="none" points="90.1224,79.2381 88.381,80.1088" stroke="#ffe500" stroke-width="2" /><polyline fill="none" points="72.2721,96.2177 70.0952,99.7007" stroke="#ff4600" stroke-width="2" /><polyline fill="none" points="74.449,101.0068 71.4014,99.2653" stroke="#7f0000" stroke-width="2" /></svg>