<?xml version="1.0" encoding="utf-8" ?>
<svg baseProfile="tiny" height="128" version="1.2" viewBox="0,0,128,128" width="128" xmlns="http://www.w3.org/2000/svg" xmlns:ev="http://www.w3.org/2001/xml-events" xmlns:xlink="http://www.w3.org/1999/xlink"><defs /><polyline fill="none" points="55.1051,8.678 54.2373,13.8847 43.8237,13.0169 33.4102,13.8847 32.5424,19.9593 26.0339,23.4305 25.1661,28.2034 19.9593,32.5424 16.922,37.7492 13.0169,52.9356 13.0169,63.3492 8.678,77.2339 9.9797,99.7966 13.8847,115.4169 31.2407,116.2847 58.1424,110.2102 92.4203,94.5898 103.7017,91.5525 114.9831,85.478 119.322,79.8373 119.322,66.3864 116.2847,56.4068 100.6644,43.8237 91.5525,34.7119 91.1186,29.0712 85.478,23.4305 75.0644,16.922 70.7254,16.922" stroke="#00007f" stroke-width="2" /><polyline fill="none" points="35.5797,16.922 44.6915,26.0339 45.9932,31.2407 44.6915,66.8203 42.522,74.1966 19.9593,110.2102" stroke="#7cff79" stroke-width="2" /><polyline fill="none" points="69.8576,16.922 75.0644,33.4102 75.0644,46.861" stroke="#7f0000" stroke-width="2" /></svg>