<?xml version="1.0" encoding="utf-8" ?>
<svg baseProfile="tiny" height="128" version="1.2" viewBox="0,0,128,128" width="128" xmlns="http://www.w3.org/2000/svg" xmlns:ev="http://www.w3.org/2001/xml-events" xmlns:xlink="http://www.w3.org/1999/xlink"><defs /><polyline fill="none" points="59.878,34.278 50.3322,36.4475 42.0881,45.1254 36.8814,56.4068 36.0136,66.3864 36.4475,72.8949 44.6915,87.6475 51.6339,93.2881 60.7458,95.4576 71.1593,95.4576 77.2339,93.722 85.9119,85.478 95.4576,67.2542 97.1932,57.2746 96.3254,49.8983 88.0814,36.0136 83.7424,32.5424 78.1017,30.8068 66.3864,30.8068 52.0678,32.9763" stroke="#00007f" stroke-width="2" /><polyline fill="none" points="77.6678,28.6373 74.6305,30.8068 72.0271,36.8814 73.3288,51.6339 80.7051,60.7458 88.9492,64.2169 94.1559,64.2169" stroke="#0000f1" stroke-width="2" /><polyline fill="none" points="36.8814,66.8203 45.9932,59.878 51.6339,58.5763 68.9898,57.7085 75.0644,59.0102 81.139,63.3492 83.7424,67.6881 85.478,72.8949 85.478,82.4407" stroke="#004cff" stroke-width="2" /><polyline fill="none" points="21.6949,115.4169 21.6949,117.5864 23.8644,118.8881 33.4102,119.322 36.0136,116.2847 39.0508,109.7763 27.3356,108.4746 18.6576,114.9831 20.8271,110.6441 20.8271,98.061 18.2237,86.7797 11.7153,70.7254 9.1119,55.9729 8.678,13.4508 9.9797,11.2814 17.7898,8.678 22.1288,9.1119 22.9966,10.8475 23.4305,49.4644 30.8068,83.7424 32.9763,106.739" stroke="#00b0ff" stroke-width="2" /><polyline fill="none" points="38.6169,59.878 44.6915,58.1424 49.4644,54.6712 54.6712,49.8983 64.2169,36.8814" stroke="#29ffcd" stroke-width="2" /><polyline fill="none" points="87.6475,75.4983 98.9288,64.6508" stroke="#7cff79" stroke-width="2" /><polyline fill="none" points="35.1458,74.6305 54.6712,64.2169 67.2542,64.2169 84.6102,80.2712" stroke="#cdff29" stroke-width="2" /><polyline fill="none" points="85.478,30.3729 83.3085,31.2407 82.8746,56.4068 83.7424,60.7458 87.6475,64.2169" stroke="#ffc400" stroke-width="2" /><polyline fill="none" points="44.6915,102.8339 51.6339,117.5864 52.9356,108.4746 55.9729,106.739 66.8203,106.739 67.6881,111.5119 64.6508,113.2475 50.7661,113.2475" stroke="#ff6700" stroke-width="2" /><polyline fill="none" points="74.6305,98.061 69.8576,102.8339 68.5559,111.078 72.8949,112.8136 75.0644,111.9458 78.1017,106.739 78.5356,97.6271 80.7051,103.7017 86.7797,109.3424" stroke="#f10700" stroke-width="2" /><polyline fill="none" points="97.6271,95.0237 95.4576,93.2881 93.2881,93.722 88.5153,97.6271 91.1186,101.0983 95.8915,104.1356 96.3254,106.3051 91.5525,107.6068 91.9864,105.0034 103.7017,94.5898 111.9458,83.3085 108.0407,83.3085 105.4373,88.5153 103.7017,101.0983 106.3051,102.4 111.9458,101.0983" stroke="#7f0000" stroke-width="2" /></svg>