<?xml version="1.0" encoding="utf-8" ?>
<svg baseProfile="tiny" height="128" version="1.2" viewBox="0,0,128,128" width="128" xmlns="http://www.w3.org/2000/svg" xmlns:ev="http://www.w3.org/2001/xml-events" xmlns:xlink="http://www.w3.org/1999/xlink"><defs /><polyline fill="none" points="106.3051,16.922 100.2305,14.7525 84.6102,13.8847 61.1797,13.8847 48.1627,16.4881 29.0712,22.1288 20.8271,26.4678 13.4508,32.5424 8.678,42.522 9.5458,55.1051 13.4508,62.4814 26.9017,73.3288 35.5797,77.2339 45.5593,79.8373 56.4068,79.8373 67.2542,76.8 90.6847,63.3492 107.6068,48.5966 113.2475,41.2203 117.1525,28.2034 117.5864,17.3559 111.078,9.9797 107.6068,8.678" stroke="#00007f" stroke-width="2" /><polyline fill="none" points="93.2881,29.939 93.2881,29.939" stroke="#0000fe" stroke-width="2" /><polyline fill="none" points="95.8915,35.1458 98.9288,36.8814 100.6644,29.5051 95.0237,28.2034 85.0441,28.2034 75.4983,31.2407 64.6508,37.7492 56.4068,46.861 54.2373,52.5017" stroke="#0060ff" stroke-width="2" /><polyline fill="none" points="49.8983,14.7525 48.1627,21.6949 51.2,32.5424 53.3695,53.3695 54.2373,84.1763" stroke="#00d4ff" stroke-width="2" /><polyline fill="none" points="83.7424,22.1288 78.9695,27.7695 74.6305,35.1458 71.1593,48.1627 69.4237,65.0847 69.4237,82.0068" stroke="#4cffaa" stroke-width="2" /><polyline fill="none" points="81.139,10.4136 79.4034,17.3559 79.8373,27.7695 85.478,62.0475 90.2508,79.4034" stroke="#aaff4c" stroke-width="2" /><polyline fill="none" points="95.8915,29.5051 94.1559,40.7864 98.9288,68.5559 102.8339,78.9695" stroke="#ffe500" stroke-width="2" /><polyline fill="none" points="119.322,10.4136 111.078,25.1661 105.0034,51.6339" stroke="#ff7a00" stroke-width="2" /><polyline fill="none" points="20.8271,22.5627 15.1864,30.3729 11.7153,45.1254 11.7153,67.2542" stroke="#fe1200" stroke-width="2" /><polyline fill="none" points="40.3525,16.922 33.8441,36.8814 31.2407,65.5186" stroke="#7f0000" stroke-width="2" /></svg>