<?xml version="1.0" encoding="utf-8" ?>
<svg baseProfile="tiny" height="128" version="1.2" viewBox="0,0,128,128" width="128" xmlns="http://www.w3.org/2000/svg" xmlns:ev="http://www.w3.org/2001/xml-events" xmlns:xlink="http://www.w3.org/1999/xlink"><defs /><polyline fill="none" points="68.1502,9.1741 57.2287,9.1741 43.2491,11.7952 29.7065,18.785 23.1536,24.0273 16.1638,32.7645 10.4846,47.6177 8.7372,54.6075 9.1741,64.6553 13.1058,76.0137 19.6587,86.0614 28.8328,93.9249 39.3174,100.041 52.4232,104.8464 63.3447,107.0307 70.7713,106.5939 83.0034,103.9727 90.8669,100.041 99.1672,93.9249 112.273,79.5085 118.3891,64.2184 119.2628,50.6758 114.8942,36.6962 107.9044,26.6485 98.7304,17.4744 85.6246,10.4846 73.3925,8.7372 63.7816,10.9215" stroke="#00007f" stroke-width="2" /><polyline fill="none" points="16.6007,30.1433 35.8225,26.2116 50.2389,27.0853 62.9078,31.8908 69.4608,40.628 69.4608,49.3652 65.0922,62.471 54.1706,76.4505 45.8703,81.6928 37.1331,84.7509 24.4642,83.4403" stroke="#0028ff" stroke-width="2" /><polyline fill="none" points="48.9283,19.6587 57.6655,20.9693" stroke="#00d4ff" stroke-width="2" /><polyline fill="none" points="76.0137,27.5222 79.5085,33.2014" stroke="#7cff79" stroke-width="2" /><polyline fill="none" points="85.6246,51.1126 81.6928,60.7235" stroke="#ffe500" stroke-width="2" /><polyline fill="none" points="75.1399,77.3242 61.1604,84.314" stroke="#ff4600" stroke-width="2" /><polyline fill="none" points="50.6758,95.6724 39.3174,94.3618" stroke="#7f0000" stroke-width="2" /></svg>