<?xml version="1.0" encoding="utf-8" ?>
<svg baseProfile="tiny" height="128" version="1.2" viewBox="0,0,128,128" width="128" xmlns="http://www.w3.org/2000/svg" xmlns:ev="http://www.w3.org/2001/xml-events" xmlns:xlink="http://www.w3.org/1999/xlink"><defs /><polyline fill="none" points="93.6054,40.0544 87.9456,40.0544 86.6395,43.5374 90.5578,47.0204 95.7823,48.3265 99.2653,47.8912 100.5714,41.7959 96.2177,39.1837 88.8163,39.619" stroke="#00007f" stroke-width="2" /><polyline fill="none" points="94.4762,39.1837 93.1701,47.4558" stroke="#0010ff" stroke-width="2" /><polyline fill="none" points="85.3333,41.7959 103.1837,43.5374" stroke="#00a4ff" stroke-width="2" /><polyline fill="none" points="99.2653,38.7483 85.3333,44.4082" stroke="#3fffb7" stroke-width="2" /><polyline fill="none" points="88.381,36.1361 101.8776,47.8912" stroke="#b7ff3f" stroke-width="2" /><polyline fill="none" points="100.1361,38.3129 87.9456,45.2789 92.2993,42.2313 100.1361,41.7959 101.0068,42.6667 98.3946,46.1497 92.7347,49.6327 84.898,51.3741 79.6735,50.9388 76.6259,49.6327 75.7551,46.585 76.1905,39.619 80.1088,30.9116 86.2041,23.9456 97.5238,15.2381 109.7143,9.5782 117.1156,8.7075 118.8571,10.0136 119.2925,13.0612 113.1973,23.9456 104.0544,34.3946 95.7823,40.9252 83.5918,47.0204 69.2245,50.068 67.9184,49.1973 67.483,47.0204 78.8027,30.9116 92.7347,16.5442 101.0068,9.5782 102.7483,10.8844 98.8299,18.2857 91.4286,26.9932 84.898,32.2177 77.932,36.1361 63.1293,41.7959 47.8912,45.2789 50.9388,41.7959" stroke="#ffb900" stroke-width="2" /><polyline fill="none" points="25.2517,30.9116 26.1224,48.7619 29.6054,54.4218 33.5238,55.2925 40.9252,50.068 46.1497,40.4898 47.8912,30.9116 46.585,23.0748" stroke="#ff3000" stroke-width="2" /><polyline fill="none" points="24.381,31.7823 10.449,16.1088 8.7075,12.1905 26.9932,15.6735 50.5034,16.9796 51.3741,19.1565 50.5034,20.0272 37.8776,21.3333 31.3469,19.1565 33.0884,14.3673 35.7007,12.1905 47.4558,13.0612 54.8571,15.2381 58.7755,18.7211 58.3401,22.2041 49.1973,31.7823 47.0204,33.0884 47.0204,30.9116" stroke="#7f0000" stroke-width="2" /></svg>