<?xml version="1.0" encoding="utf-8" ?>
<svg baseProfile="tiny" height="128" version="1.2" viewBox="0,0,128,128" width="128" xmlns="http://www.w3.org/2000/svg" xmlns:ev="http://www.w3.org/2001/xml-events" xmlns:xlink="http://www.w3.org/1999/xlink"><defs /><polyline fill="none" points="79.4034,16.4881 75.4983,16.4881 64.6508,11.7153 48.5966,11.7153 32.1085,20.3932 27.7695,21.261 24.7322,24.7322 20.3932,25.6 19.5254,29.0712 16.0542,29.939 10.8475,37.7492 8.678,46.4271 12.1492,71.5932 15.1864,76.3661 23.8644,82.8746 52.9356,89.3831 73.7627,89.3831 82.8746,88.0814 85.9119,84.1763 93.722,79.8373 95.4576,75.4983 98.9288,74.6305 103.2678,66.8203 106.739,64.6508 109.3424,58.1424 117.1525,46.4271 119.322,35.1458 117.1525,31.2407 117.1525,26.9017 111.9458,19.0915 104.1356,13.8847 86.7797,12.1492 82.0068,14.3186 69.8576,15.1864 62.4814,18.6576" stroke="#00007f" stroke-width="2" /><polyline fill="none" points="36.8814,16.4881 37.3153,20.3932 45.9932,44.6915 46.4271,57.2746 34.278,71.1593" stroke="#00d4ff" stroke-width="2" /><polyline fill="none" points="91.5525,21.261 89.3831,38.6169 85.9119,42.9559 85.9119,47.2949 82.8746,52.0678 81.5729,60.3119 79.4034,64.2169 78.5356,77.6678 82.0068,91.1186 82.0068,96.7593 86.3458,105.4373 93.722,111.9458 95.4576,108.4746 98.061,106.3051" stroke="#ffe500" stroke-width="2" /><polyline fill="none" points="70.7254,8.678 67.6881,23.4305 67.6881,36.8814 66.3864,40.7864 65.5186,77.2339" stroke="#7f0000" stroke-width="2" /></svg>