<?xml version="1.0" encoding="utf-8" ?>
<svg baseProfile="tiny" height="128" version="1.2" viewBox="0,0,128,128" width="128" xmlns="http://www.w3.org/2000/svg" xmlns:ev="http://www.w3.org/2001/xml-events" xmlns:xlink="http://www.w3.org/1999/xlink"><defs /><polyline fill="none" points="76.3661,11.7153 47.7288,11.2814 26.9017,13.8847 14.3186,21.261 9.1119,30.8068 8.678,44.6915 9.5458,51.2 13.4508,62.0475 16.4881,66.3864 22.1288,71.5932 27.3356,74.1966 48.1627,82.8746 59.0102,85.478 70.7254,87.6475 80.7051,88.0814 88.9492,87.2136 96.3254,84.6102 102.4,80.2712 108.0407,73.3288 112.8136,58.5763 112.3797,51.6339 110.2102,45.5593 101.9661,33.8441 80.7051,15.1864 62.4814,8.678" stroke="#00007f" stroke-width="2" /><polyline fill="none" points="61.1797,9.5458 61.1797,14.7525 65.9525,20.8271 69.8576,29.939 86.3458,45.9932 94.5898,47.7288 118.4542,49.0305" stroke="#00d4ff" stroke-width="2" /><polyline fill="none" points="13.8847,53.3695 22.9966,52.0678 36.0136,52.5017 56.8407,55.1051 68.122,58.1424 84.1763,66.3864 91.9864,72.8949 98.4949,82.4407 100.6644,91.5525" stroke="#ffe500" stroke-width="2" /><polyline fill="none" points="13.4508,25.1661 36.0136,33.8441 77.6678,46.4271 113.2475,60.3119 119.322,64.2169" stroke="#7f0000" stroke-width="2" /></svg>