<?xml version="1.0" encoding="utf-8" ?>
<svg baseProfile="tiny" height="128" version="1.2" viewBox="0,0,128,128" width="128" xmlns="http://www.w3.org/2000/svg" xmlns:ev="http://www.w3.org/2001/xml-events" xmlns:xlink="http://www.w3.org/1999/xlink"><defs /><polyline fill="none" points="54.6712,10.4136 44.2576,17.7898 34.7119,27.3356 8.678,69.4237 9.1119,83.3085 13.8847,98.4949 19.0915,105.4373 28.6373,113.6814 38.6169,116.7186 73.7627,119.322 91.1186,112.8136 103.7017,104.5695 107.6068,98.9288 109.7763,95.4576 114.9831,76.8 115.4169,60.7458 114.1153,45.1254 108.4746,33.8441 97.6271,26.4678 72.0271,20.3932 62.4814,13.0169 49.0305,12.5831 46.861,8.678" stroke="#00007f" stroke-width="2" /><polyline fill="none" points="52.9356,12.5831 56.8407,40.7864 52.9356,73.7627 49.0305,86.7797 38.6169,102.8339 32.9763,108.9085" stroke="#7f0000" stroke-width="2" /></svg>