<?xml version="1.0" encoding="utf-8" ?>
<svg baseProfile="tiny" height="128" version="1.2" viewBox="0,0,128,128" width="128" xmlns="http://www.w3.org/2000/svg" xmlns:ev="http://www.w3.org/2001/xml-events" xmlns:xlink="http://www.w3.org/1999/xlink"><defs /><polyline fill="none" points="60.3119,8.678 36.0136,8.678 30.8068,10.8475 23.4305,17.3559 19.5254,22.9966 14.3186,30.8068 9.9797,43.3898 8.678,60.3119 9.5458,79.8373 12.5831,90.2508 20.3932,105.4373 32.1085,114.5492 39.0508,116.2847 54.6712,116.2847 73.3288,111.5119 84.6102,106.3051 96.3254,95.0237 101.5322,87.6475 104.1356,79.4034 105.0034,60.3119 101.9661,48.1627 91.9864,30.8068 82.8746,21.261 78.5356,19.0915 61.1797,19.0915" stroke="#00007f" stroke-width="2" /><polyline fill="none" points="30.8068,9.1119 31.6746,13.8847 37.7492,25.6 42.522,41.2203 45.1254,57.2746 44.6915,88.9492 42.9559,101.0983 38.6169,110.2102 36.0136,119.322" stroke="#7cff79" stroke-width="2" /><polyline fill="none" points="61.1797,22.9966 61.6136,85.9119 63.3492,95.0237 67.6881,100.6644" stroke="#7f0000" stroke-width="2" /></svg>