<?xml version="1.0" encoding="utf-8" ?>
<svg baseProfile="tiny" height="128" version="1.2" viewBox="0,0,128,128" width="128" xmlns="http://www.w3.org/2000/svg" xmlns:ev="http://www.w3.org/2001/xml-events" xmlns:xlink="http://www.w3.org/1999/xlink"><defs /><polyline fill="none" points="65.5186,15.1864 31.2407,15.6203 19.9593,24.2983 11.2814,36.4475 9.1119,50.7661 8.678,98.061 13.8847,106.3051 31.6746,118.4542 73.7627,119.322 78.1017,118.0203 92.8542,103.2678 100.2305,89.3831 101.5322,83.7424 102.8339,70.7254 101.9661,49.8983 96.3254,36.0136 92.4203,32.5424 88.0814,32.9763 75.4983,26.0339 72.461,19.9593 65.0847,12.5831 56.8407,8.678 55.539,8.678 55.1051,10.4136" stroke="#00007f" stroke-width="2" /><polyline fill="none" points="32.1085,15.1864 36.0136,21.261 46.861,31.6746 50.3322,39.0508 51.2,45.5593 50.7661,79.4034 49.4644,94.5898 44.6915,104.1356 34.278,118.8881" stroke="#00d4ff" stroke-width="2" /><polyline fill="none" points="81.139,30.3729 77.2339,41.2203 74.6305,67.6881 74.1966,89.3831 79.8373,109.7763 82.0068,112.3797" stroke="#ffe500" stroke-width="2" /><polyline fill="none" points="32.9763,25.1661 51.2,24.2983" stroke="#7f0000" stroke-width="2" /></svg>