<?xml version="1.0" encoding="utf-8" ?>
<svg baseProfile="tiny" height="128" version="1.2" viewBox="0,0,128,128" width="128" xmlns="http://www.w3.org/2000/svg" xmlns:ev="http://www.w3.org/2001/xml-events" xmlns:xlink="http://www.w3.org/1999/xlink"><defs /><polyline fill="none" points="8.7075,114.9388 15.2381,105.7959 31.3469,90.5578" stroke="#00007f" stroke-width="2" /><polyline fill="none" points="31.3469,90.5578 26.9932,73.5782 26.9932,59.2109 31.7823,46.585 40.4898,34.3946 44.8435,30.4762 62.6939,20.898 101.4422,8.7075" stroke="#0000d5" stroke-width="2" /><polyline fill="none" points="47.4558,100.1361 60.9524,86.2041 81.8503,68.3537 94.9116,59.2109 111.4558,43.5374 113.6327,38.3129 114.5034,30.0408 101.4422,10.8844" stroke="#001cff" stroke-width="2" /><polyline fill="none" points="44.8435,98.8299 36.1361,106.6667 20.4626,117.1156" stroke="#006cff" stroke-width="2" /><polyline fill="none" points="8.7075,116.2449 15.6735,119.2925 18.2857,118.8571" stroke="#00b8ff" stroke-width="2" /><polyline fill="none" points="32.6531,94.4762 40.9252,97.0884 47.8912,97.5238" stroke="#1cffda" stroke-width="2" /><polyline fill="none" points="26.1224,97.5238 37.8776,103.619" stroke="#5cff9a" stroke-width="2" /><polyline fill="none" points="25.6871,104.4898 31.7823,110.1497" stroke="#9aff5c" stroke-width="2" /><polyline fill="none" points="18.2857,103.619 20.0272,106.6667 24.8163,110.1497" stroke="#daff1c" stroke-width="2" /><polyline fill="none" points="20.4626,110.1497 26.9932,113.6327" stroke="#ffcb00" stroke-width="2" /><polyline fill="none" points="99.2653,94.4762 89.2517,95.3469 86.2041,100.5714 85.7687,104.4898 87.0748,106.2313 95.3469,111.8912 107.102,114.068 114.9388,113.1973 117.1156,110.585 117.551,105.7959 114.9388,101.0068 109.2789,96.6531 100.5714,93.6054 94.4762,95.3469 93.1701,97.0884 94.0408,97.9592" stroke="#ff8500" stroke-width="2" /><polyline fill="none" points="101.0068,94.4762 96.2177,100.1361 94.4762,105.3605" stroke="#ff3b00" stroke-width="2" /><polyline fill="none" points="105.7959,97.5238 97.9592,107.9728" stroke="#d50000" stroke-width="2" /><polyline fill="none" points="90.5578,97.9592 114.5034,111.0204" stroke="#7f0000" stroke-width="2" /></svg>