<?xml version="1.0" encoding="utf-8" ?>
<svg baseProfile="tiny" height="128" version="1.2" viewBox="0,0,128,128" width="128" xmlns="http://www.w3.org/2000/svg" xmlns:ev="http://www.w3.org/2001/xml-events" xmlns:xlink="http://www.w3.org/1999/xlink"><defs /><polyline fill="none" points="85.478,12.5831 80.2712,9.1119 72.461,8.678 61.6136,9.1119 49.4644,12.1492 36.4475,19.5254 15.1864,41.2203 10.4136,52.0678 8.678,71.5932 9.9797,82.8746 16.4881,98.061 20.3932,99.7966 72.0271,99.3627 84.1763,94.5898 96.7593,83.3085 108.4746,68.5559 114.9831,55.9729 118.8881,41.6542 119.322,28.2034 115.4169,21.261 109.3424,17.7898 88.0814,16.4881" stroke="#00007f" stroke-width="2" /><polyline fill="none" points="89.8169,17.3559 91.9864,19.0915 80.7051,28.6373 68.9898,44.2576 61.1797,61.6136 59.0102,69.4237 59.4441,96.3254 60.3119,99.7966 68.5559,99.7966" stroke="#0028ff" stroke-width="2" /><polyline fill="none" points="44.2576,15.6203 44.2576,53.3695 42.522,62.4814 32.5424,77.2339 18.2237,88.0814" stroke="#00d4ff" stroke-width="2" /><polyline fill="none" points="36.4475,36.4475 45.9932,36.8814" stroke="#7cff79" stroke-width="2" /><polyline fill="none" points="38.6169,54.6712 41.6542,55.1051" stroke="#ffe500" stroke-width="2" /><polyline fill="none" points="34.278,73.3288 32.9763,74.1966" stroke="#ff4600" stroke-width="2" /><polyline fill="none" points="33.8441,76.3661 40.3525,78.1017 44.6915,75.4983" stroke="#7f0000" stroke-width="2" /></svg>