<?xml version="1.0" encoding="utf-8" ?>
<svg baseProfile="tiny" height="128" version="1.2" viewBox="0,0,128,128" width="128" xmlns="http://www.w3.org/2000/svg" xmlns:ev="http://www.w3.org/2001/xml-events" xmlns:xlink="http://www.w3.org/1999/xlink"><defs /><polyline fill="none" points="42.0881,34.278 25.1661,36.8814 19.9593,39.9186 9.9797,54.2373 8.678,63.7831 10.4136,69.8576 15.1864,75.4983 19.9593,77.6678 27.7695,79.4034 43.8237,78.9695 56.4068,69.8576 60.7458,62.9153 59.878,50.3322 55.9729,43.8237 48.1627,36.8814 38.1831,36.4475 45.1254,35.5797 42.522,33.4102 28.6373,32.5424 40.7864,32.5424 33.8441,32.5424" stroke="#00007f" stroke-width="2" /><polyline fill="none" points="40.7864,36.0136 44.6915,39.0508 42.0881,40.3525 38.1831,46.4271 40.7864,49.4644 38.6169,54.2373 40.7864,57.2746 38.6169,60.7458 42.522,65.0847 39.4847,75.0644 44.2576,76.3661 40.7864,76.3661 44.2576,79.4034 43.3898,77.6678" stroke="#0010ff" stroke-width="2" /><polyline fill="none" points="19.0915,30.3729 19.0915,30.3729" stroke="#00a4ff" stroke-width="2" /><polyline fill="none" points="19.0915,30.3729 19.0915,30.3729" stroke="#3fffb7" stroke-width="2" /><polyline fill="none" points="19.0915,30.3729 19.0915,30.3729" stroke="#b7ff3f" stroke-width="2" /><polyline fill="none" points="20.8271,41.6542 27.7695,44.6915 21.261,54.6712 25.1661,61.6136 22.5627,69.4237 28.2034,75.4983 25.6,78.1017" stroke="#ffb900" stroke-width="2" /><polyline fill="none" points="73.3288,98.061 78.5356,85.9119 92.4203,63.7831 92.4203,61.1797 100.2305,52.0678 111.9458,34.7119 118.0203,16.922 119.322,8.678 100.6644,12.5831 91.5525,16.922 86.7797,16.0542" stroke="#ff3000" stroke-width="2" /><polyline fill="none" points="91.5525,16.922 80.7051,50.7661 79.8373,61.6136 83.7424,49.0305 77.2339,62.9153 70.2915,69.8576 69.4237,74.1966 59.4441,93.2881 59.4441,98.061 62.0475,98.9288" stroke="#7f0000" stroke-width="2" /></svg>