<?xml version="1.0" encoding="utf-8" ?>
<svg baseProfile="tiny" height="128" version="1.2" viewBox="0,0,128,128" width="128" xmlns="http://www.w3.org/2000/svg" xmlns:ev="http://www.w3.org/2001/xml-events" xmlns:xlink="http://www.w3.org/1999/xlink"><defs /><polyline fill="none" points="64.2169,20.3932 37.7492,20.3932 22.5627,24.7322 20.3932,27.7695 14.3186,43.3898 10.4136,56.8407 9.1119,77.2339 11.2814,87.6475 13.8847,93.722 21.261,105.8712 34.278,113.6814 44.2576,116.7186 60.7458,118.4542 81.5729,112.3797 90.6847,108.0407 98.4949,99.3627 105.4373,79.8373 104.5695,63.7831 101.5322,42.0881 98.4949,33.4102 90.6847,20.8271 84.6102,16.4881 66.3864,8.678 56.8407,9.9797 47.7288,16.0542" stroke="#00007f" stroke-width="2" /><polyline fill="none" points="102.8339,79.4034 93.722,75.4983 81.5729,65.0847 69.4237,57.7085 60.3119,52.9356 53.8034,51.6339 41.6542,50.7661 32.9763,52.5017 23.4305,60.7458 9.9797,68.9898" stroke="#00d4ff" stroke-width="2" /><polyline fill="none" points="8.678,56.8407 24.7322,42.9559 30.3729,39.4847 33.4102,39.9186 78.5356,55.1051 90.2508,62.9153 102.8339,77.6678" stroke="#ffe500" stroke-width="2" /><polyline fill="none" points="49.0305,119.322 46.4271,113.2475 47.2949,97.6271 49.4644,85.0441 52.9356,78.1017 56.4068,74.6305" stroke="#7f0000" stroke-width="2" /></svg>