<?xml version="1.0" encoding="utf-8" ?>
<svg baseProfile="tiny" height="128" version="1.2" viewBox="0,0,128,128" width="128" xmlns="http://www.w3.org/2000/svg" xmlns:ev="http://www.w3.org/2001/xml-events" xmlns:xlink="http://www.w3.org/1999/xlink"><defs /><polyline fill="none" points="52.0678,119.322 41.6542,112.8136 29.5051,101.9661 16.0542,87.2136 10.8475,78.5356 8.678,69.4237 8.678,51.2 9.9797,41.6542 16.922,22.1288 22.1288,14.7525 26.4678,11.2814 39.9186,8.678 54.2373,9.5458 65.9525,11.2814 82.0068,16.4881 87.6475,19.5254 95.8915,29.5051 104.5695,45.5593 114.9831,72.0271 118.0203,94.5898 117.1525,98.9288 111.9458,106.3051 91.9864,116.7186 71.5932,114.1153 53.8034,117.1525 49.8983,116.7186" stroke="#00007f" stroke-width="2" /><polyline fill="none" points="45.5593,13.0169 41.6542,14.7525 39.9186,18.6576 27.3356,54.6712 25.1661,73.3288 25.1661,99.3627 29.0712,118.8881 29.0712,107.1729" stroke="#0028ff" stroke-width="2" /><polyline fill="none" points="68.5559,11.2814 72.461,13.8847 75.9322,21.6949 79.8373,39.9186 81.139,57.2746 80.2712,77.6678 76.3661,93.2881 68.5559,114.1153" stroke="#00d4ff" stroke-width="2" /><polyline fill="none" points="78.5356,32.5424 87.2136,27.3356 91.1186,22.9966" stroke="#7cff79" stroke-width="2" /><polyline fill="none" points="78.1017,32.1085 69.8576,29.0712" stroke="#ffe500" stroke-width="2" /><polyline fill="none" points="80.7051,57.7085 87.6475,54.6712" stroke="#ff4600" stroke-width="2" /><polyline fill="none" points="80.7051,56.8407 80.7051,56.8407" stroke="#7f0000" stroke-width="2" /></svg>