<?xml version="1.0" encoding="utf-8" ?>
<svg baseProfile="tiny" height="128" version="1.2" viewBox="0,0,128,128" width="128" xmlns="http://www.w3.org/2000/svg" xmlns:ev="http://www.w3.org/2001/xml-events" xmlns:xlink="http://www.w3.org/1999/xlink"><defs /><polyline fill="none" points="64.2169,8.678 42.9559,19.9593 29.5051,29.5051 19.9593,39.0508 14.7525,48.5966 8.678,69.8576 8.678,92.4203 12.5831,101.9661 22.1288,108.0407 31.6746,111.5119 64.2169,117.5864 83.3085,117.1525 111.9458,107.6068 115.4169,98.4949 119.322,78.9695 119.322,60.3119 117.5864,49.0305 111.5119,29.5051 104.1356,19.9593 94.5898,14.3186 75.4983,22.1288 60.3119,14.3186" stroke="#00007f" stroke-width="2" /><polyline fill="none" points="31.6746,27.7695 41.2203,37.3153 50.7661,42.9559 69.8576,50.7661 78.9695,58.1424 88.9492,68.122 101.9661,86.7797 111.9458,92.8542 119.322,100.2305" stroke="#7cff79" stroke-width="2" /><polyline fill="none" points="117.5864,19.9593 85.0441,37.3153 77.2339,46.861 56.4068,67.6881 46.861,75.4983 31.6746,94.5898" stroke="#7f0000" stroke-width="2" /></svg>