<?xml version="1.0" encoding="utf-8" ?>
<svg baseProfile="tiny" height="128" version="1.2" viewBox="0,0,128,128" width="128" xmlns="http://www.w3.org/2000/svg" xmlns:ev="http://www.w3.org/2001/xml-events" xmlns:xlink="http://www.w3.org/1999/xlink"><defs /><polyline fill="none" points="9.9797,98.061 16.0542,98.4949 18.2237,88.9492 32.1085,68.122 60.7458,36.0136 65.9525,24.7322 67.2542,9.5458 63.7831,8.678 60.7458,9.9797 56.4068,20.8271 45.1254,38.6169 33.4102,46.861 29.5051,51.2 14.7525,81.139 11.2814,85.478 9.5458,90.2508 9.5458,97.1932" stroke="#00007f" stroke-width="2" /><polyline fill="none" points="101.9661,66.3864 95.0237,65.5186 88.9492,61.6136 88.0814,59.4441 88.0814,52.5017 91.5525,47.7288 96.3254,45.9932 107.6068,45.5593 117.5864,50.3322 119.322,55.539 116.2847,59.878 107.1729,66.3864 101.5322,66.3864" stroke="#0080ff" stroke-width="2" /><polyline fill="none" points="91.9864,64.2169 101.5322,55.539 103.7017,47.2949" stroke="#7cff79" stroke-width="2" /><polyline fill="none" points="87.6475,60.3119 93.722,49.0305" stroke="#ff9400" stroke-width="2" /><polyline fill="none" points="8.678,93.722 18.2237,91.5525 19.5254,95.4576 16.922,98.4949" stroke="#7f0000" stroke-width="2" /></svg>