<?xml version="1.0" encoding="utf-8" ?>
<svg baseProfile="tiny" height="128" version="1.2" viewBox="0,0,128,128" width="128" xmlns="http://www.w3.org/2000/svg" xmlns:ev="http://www.w3.org/2001/xml-events" xmlns:xlink="http://www.w3.org/1999/xlink"><defs /><polyline fill="none" points="39.0508,8.678 23.4305,13.0169 18.2237,16.4881 12.5831,26.9017 8.678,50.3322 10.4136,75.0644 13.0169,85.478 17.7898,95.0237 23.8644,102.8339 27.7695,106.739 37.3153,111.5119 51.6339,116.2847 71.1593,119.322 82.4407,116.2847 88.9492,111.9458 96.7593,101.9661 98.4949,97.6271 98.9288,84.1763 95.8915,62.9153 90.6847,43.8237 75.0644,18.6576 66.8203,13.0169 61.6136,11.2814 40.3525,9.5458 24.2983,12.1492 10.4136,18.2237" stroke="#00007f" stroke-width="2" /><polyline fill="none" points="32.1085,24.2983 36.0136,26.4678 40.3525,40.7864 41.2203,57.2746 40.3525,88.0814 46.4271,111.5119" stroke="#00d4ff" stroke-width="2" /><polyline fill="none" points="68.9898,11.2814 61.6136,62.9153 68.122,102.8339 71.1593,109.3424" stroke="#ffe500" stroke-width="2" /><polyline fill="none" points="39.9186,36.0136 38.1831,23.4305" stroke="#7f0000" stroke-width="2" /></svg>