<?xml version="1.0" encoding="utf-8" ?>
<svg baseProfile="tiny" height="128" version="1.2" viewBox="0,0,128,128" width="128" xmlns="http://www.w3.org/2000/svg" xmlns:ev="http://www.w3.org/2001/xml-events" xmlns:xlink="http://www.w3.org/1999/xlink"><defs /><polyline fill="none" points="39.9186,16.0542 27.7695,16.0542 21.6949,21.6949 17.7898,29.939 9.5458,62.9153 8.678,100.2305 10.4136,107.6068 13.4508,111.9458 21.6949,118.4542 34.278,119.322 54.6712,106.3051 72.8949,83.7424 76.8,75.9322 79.8373,63.3492 79.8373,51.2 76.8,37.3153 69.4237,20.8271 65.0847,15.1864 58.5763,11.2814 47.7288,8.678 38.1831,8.678" stroke="#00007f" stroke-width="2" /><polyline fill="none" points="18.6576,13.4508 29.0712,21.6949 34.7119,29.0712 38.1831,48.1627 38.1831,64.2169 37.3153,71.1593 31.6746,78.5356 22.1288,87.2136 8.678,103.7017" stroke="#7cff79" stroke-width="2" /><polyline fill="none" points="65.0847,16.922 62.9153,31.2407 63.3492,69.8576 71.1593,82.8746 75.9322,86.7797 88.9492,88.0814" stroke="#7f0000" stroke-width="2" /></svg>