<?xml version="1.0" encoding="utf-8" ?>
<svg baseProfile="tiny" height="128" version="1.2" viewBox="0,0,128,128" width="128" xmlns="http://www.w3.org/2000/svg" xmlns:ev="http://www.w3.org/2001/xml-events" xmlns:xlink="http://www.w3.org/1999/xlink"><defs /><polyline fill="none" points="66.3864,16.4881 62.0475,16.922 46.4271,14.3186 22.9966,20.3932 17.7898,24.2983 11.2814,35.1458 8.678,49.0305 8.678,57.7085 10.4136,66.3864 15.1864,78.1017 33.8441,95.4576 51.2,105.0034 70.7254,111.078 89.8169,110.2102 98.061,107.1729 110.2102,96.3254 114.9831,87.6475 119.322,72.461 118.8881,57.7085 114.9831,42.9559 103.7017,28.6373 91.9864,22.1288 78.1017,11.7153 64.6508,8.678 55.1051,9.1119 55.1051,11.2814" stroke="#00007f" stroke-width="2" /><polyline fill="none" points="29.0712,17.7898 45.9932,26.9017 51.6339,38.1831 55.1051,51.2 55.1051,66.3864 51.2,77.2339 42.9559,87.2136 36.8814,91.1186 32.5424,91.1186" stroke="#7cff79" stroke-width="2" /><polyline fill="none" points="100.2305,27.3356 96.3254,26.9017 86.7797,32.9763 78.9695,44.6915 73.7627,56.4068 69.8576,68.5559 68.9898,77.6678 76.3661,94.1559" stroke="#7f0000" stroke-width="2" /></svg>