<?xml version="1.0" encoding="utf-8" ?>
<svg baseProfile="tiny" height="128" version="1.2" viewBox="0,0,128,128" width="128" xmlns="http://www.w3.org/2000/svg" xmlns:ev="http://www.w3.org/2001/xml-events" xmlns:xlink="http://www.w3.org/1999/xlink"><defs /><polyline fill="none" points="110.6441,24.7322 109.3424,22.1288 103.2678,16.922 96.3254,12.5831 89.8169,10.4136 70.7254,8.678 55.539,12.1492 45.5593,16.4881 22.9966,32.9763 13.0169,48.1627 8.678,62.0475 9.1119,69.8576 15.6203,88.5153 21.6949,96.3254 30.8068,104.1356 44.6915,110.6441 62.0475,114.1153 76.3661,114.1153 88.9492,111.5119 99.3627,106.739 108.4746,99.7966 114.1153,91.5525 117.5864,82.0068 119.322,72.8949 118.8881,59.0102 115.8508,45.1254 110.2102,29.0712" stroke="#00007f" stroke-width="2" /><polyline fill="none" points="90.2508,13.0169 88.9492,31.6746 82.4407,44.2576 76.8,49.0305 60.3119,59.0102 34.7119,68.5559 26.9017,72.8949 20.8271,78.1017 14.7525,87.2136 12.5831,91.9864" stroke="#0010ff" stroke-width="2" /><polyline fill="none" points="59.4441,61.6136 70.2915,66.3864 84.6102,75.4983 105.8712,97.6271 109.7763,105.0034" stroke="#00a4ff" stroke-width="2" /><polyline fill="none" points="97.1932,28.6373 82.4407,21.6949" stroke="#3fffb7" stroke-width="2" /><polyline fill="none" points="91.5525,38.6169 82.0068,39.4847" stroke="#b7ff3f" stroke-width="2" /><polyline fill="none" points="85.9119,59.0102 63.3492,53.8034" stroke="#ffb900" stroke-width="2" /><polyline fill="none" points="40.3525,58.1424 45.9932,71.5932" stroke="#ff3000" stroke-width="2" /><polyline fill="none" points="25.1661,69.4237 32.5424,84.6102" stroke="#7f0000" stroke-width="2" /></svg>