<?xml version="1.0" encoding="utf-8" ?>
<svg baseProfile="tiny" height="128" version="1.2" viewBox="0,0,128,128" width="128" xmlns="http://www.w3.org/2000/svg" xmlns:ev="http://www.w3.org/2001/xml-events" xmlns:xlink="http://www.w3.org/1999/xlink"><defs /><polyline fill="none" points="90.2508,25.6 91.9864,26.0339 91.1186,28.2034 65.0847,31.6746 52.9356,34.7119 36.0136,44.2576 15.1864,65.5186 8.678,74.6305" stroke="#00007f" stroke-width="2" /><polyline fill="none" points="9.5458,74.6305 13.4508,70.2915 23.4305,63.7831 35.5797,59.4441 46.4271,59.0102 72.8949,61.1797 78.9695,52.9356 80.7051,46.4271 80.2712,44.2576 74.1966,39.9186 81.139,44.6915 87.6475,47.2949 83.7424,48.1627 90.6847,50.7661 103.2678,51.2 110.2102,48.1627 114.1153,44.2576 119.322,29.0712 118.0203,16.0542 114.5492,11.7153 105.8712,8.678 95.8915,9.1119 92.4203,10.4136 82.8746,20.8271" stroke="#7f0000" stroke-width="2" /></svg>