<?xml version="1.0" encoding="utf-8" ?>
<svg baseProfile="tiny" height="128" version="1.2" viewBox="0,0,128,128" width="128" xmlns="http://www.w3.org/2000/svg" xmlns:ev="http://www.w3.org/2001/xml-events" xmlns:xlink="http://www.w3.org/1999/xlink"><defs /><polyline fill="none" points="15.1864,39.4847 9.1119,48.5966 8.678,54.2373 17.3559,72.0271 29.0712,86.3458 43.3898,97.6271 54.6712,102.8339 65.5186,105.0034 75.0644,105.0034 83.7424,103.2678 98.061,96.3254 103.7017,90.6847 111.5119,79.4034 118.0203,63.7831 119.322,48.1627 117.5864,41.6542 110.6441,28.6373 105.0034,22.1288 94.5898,13.8847 84.1763,9.1119 79.8373,8.678 68.9898,9.5458 55.9729,13.0169 16.4881,27.7695 13.4508,32.9763" stroke="#00007f" stroke-width="2" /><polyline fill="none" points="41.6542,19.5254 46.861,31.6746 47.2949,41.2203 40.7864,76.3661 35.5797,82.4407" stroke="#7cff79" stroke-width="2" /><polyline fill="none" points="95.0237,12.1492 88.0814,21.6949 84.6102,29.0712 81.139,44.2576 81.139,56.4068 83.7424,66.8203 92.8542,78.9695 95.4576,84.1763" stroke="#7f0000" stroke-width="2" /></svg>