<?xml version="1.0" encoding="utf-8" ?>
<svg baseProfile="tiny" height="128" version="1.2" viewBox="0,0,128,128" width="128" xmlns="http://www.w3.org/2000/svg" xmlns:ev="http://www.w3.org/2001/xml-events" xmlns:xlink="http://www.w3.org/1999/xlink"><defs /><polyline fill="none" points="88.0814,10.8475 79.4034,8.678 66.8203,8.678 54.2373,10.8475 43.8237,14.7525 34.278,20.8271 22.1288,32.5424 16.4881,39.9186 9.9797,55.9729 8.678,63.3492 11.2814,73.7627 15.1864,83.3085 21.6949,91.5525 29.5051,99.7966 46.4271,112.8136 56.8407,117.5864 68.9898,119.322 89.3831,117.1525 100.2305,109.3424 108.0407,100.2305 115.4169,81.139 116.7186,73.7627 116.7186,45.1254 114.9831,39.0508 109.3424,27.7695 95.8915,16.922 87.2136,12.5831 79.4034,10.8475" stroke="#00007f" stroke-width="2" /><polyline fill="none" points="14.7525,72.8949 15.6203,63.7831 18.6576,58.1424 37.3153,40.3525 45.5593,33.8441 56.8407,29.0712 74.1966,29.939 83.3085,33.8441 86.3458,36.8814 92.4203,44.6915 100.2305,59.4441 108.4746,91.5525 108.0407,102.4" stroke="#0000fe" stroke-width="2" /><polyline fill="none" points="15.1864,54.6712 19.0915,62.4814 23.8644,66.3864" stroke="#0060ff" stroke-width="2" /><polyline fill="none" points="27.7695,41.6542 32.5424,52.5017" stroke="#00d4ff" stroke-width="2" /><polyline fill="none" points="47.7288,27.7695 49.0305,42.9559" stroke="#4cffaa" stroke-width="2" /><polyline fill="none" points="72.461,25.1661 69.8576,34.7119" stroke="#aaff4c" stroke-width="2" /><polyline fill="none" points="89.3831,32.9763 81.5729,41.2203 75.4983,45.5593" stroke="#ffe500" stroke-width="2" /><polyline fill="none" points="100.2305,58.5763 90.6847,62.4814" stroke="#ff7a00" stroke-width="2" /><polyline fill="none" points="111.9458,71.1593 111.9458,71.1593" stroke="#fe1200" stroke-width="2" /><polyline fill="none" points="108.0407,71.5932 98.9288,78.5356" stroke="#7f0000" stroke-width="2" /></svg>