<?xml version="1.0" encoding="utf-8" ?>
<svg baseProfile="tiny" height="128" version="1.2" viewBox="0,0,128,128" width="128" xmlns="http://www.w3.org/2000/svg" xmlns:ev="http://www.w3.org/2001/xml-events" xmlns:xlink="http://www.w3.org/1999/xlink"><defs /><polyline fill="none" points="105.7959,20.0272 101.4422,13.0612 90.9932,8.7075 69.2245,9.1429 57.9048,12.6259 46.585,18.2857 36.1361,26.1224 26.1224,36.1361 12.1905,60.0816 8.7075,80.1088 9.1429,88.8163 12.6259,96.6531 18.7211,103.619 26.1224,108.8435 36.1361,112.7619 57.4694,113.1973 68.7891,111.0204 88.8163,102.3129 104.0544,90.5578 109.7143,83.1565 114.5034,74.8844 117.1156,64.0 119.2925,51.3741 119.2925,30.4762 111.0204,15.6735 106.2313,11.7551 100.5714,10.0136 91.4286,12.6259" stroke="#00007f" stroke-width="2" /><polyline fill="none" points="24.381,36.1361 31.7823,38.7483 44.4082,48.7619 47.0204,62.2585 47.0204,68.3537 42.6667,80.5442 33.9592,91.4286 25.6871,97.0884" stroke="#0028ff" stroke-width="2" /><polyline fill="none" points="114.9388,15.6735 98.8299,30.4762 87.5102,50.9388 82.7211,65.3061 80.5442,71.4014 80.5442,83.5918 83.5918,88.8163 85.7687,90.5578 89.2517,90.9932" stroke="#00d4ff" stroke-width="2" /><polyline fill="none" points="84.4626,22.2041 85.3333,26.9932 88.8163,33.9592 92.7347,36.5714 100.1361,32.2177 105.7959,25.6871" stroke="#7cff79" stroke-width="2" /><polyline fill="none" points="77.932,50.5034 84.0272,62.2585 86.6395,64.4354 88.8163,63.1293 94.0408,54.4218" stroke="#ffe500" stroke-width="2" /><polyline fill="none" points="73.1429,84.898 73.1429,84.898" stroke="#ff4600" stroke-width="2" /><polyline fill="none" points="76.1905,82.2857 77.4966,79.2381 80.1088,77.932 82.7211,78.8027 86.2041,83.5918 89.2517,84.898 90.9932,84.0272 92.2993,78.8027" stroke="#7f0000" stroke-width="2" /></svg>