<?xml version="1.0" encoding="utf-8" ?>
<svg baseProfile="tiny" height="128" version="1.2" viewBox="0,0,128,128" width="128" xmlns="http://www.w3.org/2000/svg" xmlns:ev="http://www.w3.org/2001/xml-events" xmlns:xlink="http://www.w3.org/1999/xlink"><defs /><polyline fill="none" points="66.8203,26.4678 65.5186,22.5627 62.0475,18.2237 57.2746,15.1864 44.6915,11.2814 28.6373,11.2814 17.3559,17.7898 14.7525,21.261 8.678,39.0508 9.1119,55.539 17.7898,75.4983 24.2983,82.4407 31.6746,87.2136 78.5356,102.4 103.2678,103.2678 106.3051,102.4 114.1153,89.3831 118.4542,73.7627 119.322,41.6542 115.4169,30.8068 111.5119,24.7322 107.6068,19.9593 100.2305,15.6203 68.9898,9.1119 31.2407,8.678" stroke="#00007f" stroke-width="2" /><polyline fill="none" points="90.2508,9.5458 88.0814,9.9797" stroke="#00d4ff" stroke-width="2" /><polyline fill="none" points="89.8169,16.0542 89.8169,53.8034 94.1559,68.5559 97.1932,76.3661 102.8339,84.1763 114.1153,91.9864 117.1525,92.4203 116.7186,90.2508" stroke="#ffe500" stroke-width="2" /><polyline fill="none" points="47.2949,9.9797 46.4271,20.8271 37.7492,53.3695 26.9017,70.7254 21.6949,74.1966 14.7525,74.1966" stroke="#7f0000" stroke-width="2" /></svg>