<?xml version="1.0" encoding="utf-8" ?>
<svg baseProfile="tiny" height="128" version="1.2" viewBox="0,0,128,128" width="128" xmlns="http://www.w3.org/2000/svg" xmlns:ev="http://www.w3.org/2001/xml-events" xmlns:xlink="http://www.w3.org/1999/xlink"><defs /><polyline fill="none" points="103.2678,36.0136 93.2881,22.1288 78.1017,11.7153 67.6881,8.678 48.1627,8.678 39.4847,9.5458 32.1085,14.3186 23.4305,22.9966 11.7153,45.1254 8.678,54.6712 8.678,69.8576 10.4136,78.9695 16.0542,90.2508 24.7322,98.9288 43.3898,110.6441 60.7458,117.5864 67.6881,119.322 76.3661,119.322 91.1186,119.322 94.5898,117.5864 100.2305,112.8136 103.2678,105.4373 106.3051,38.6169 102.4,36.0136 99.7966,36.0136" stroke="#00007f" stroke-width="2" /><polyline fill="none" points="47.2949,12.5831 46.861,44.6915 28.2034,82.0068 25.6,86.3458 21.6949,89.3831" stroke="#00d4ff" stroke-width="2" /><polyline fill="none" points="100.6644,31.2407 96.7593,29.5051 85.478,30.3729 70.7254,47.7288 65.9525,57.7085 65.9525,71.5932 69.4237,82.8746 71.5932,95.0237 78.1017,102.4 79.8373,107.1729" stroke="#ffe500" stroke-width="2" /><polyline fill="none" points="79.8373,108.0407 74.1966,108.0407 61.1797,99.7966 50.7661,89.3831 23.8644,56.8407 23.8644,60.3119 38.6169,76.8 42.522,84.6102 62.0475,100.6644" stroke="#7f0000" stroke-width="2" /></svg>