<?xml version="1.0" encoding="utf-8" ?>
<svg baseProfile="tiny" height="128" version="1.2" viewBox="0,0,128,128" width="128" xmlns="http://www.w3.org/2000/svg" xmlns:ev="http://www.w3.org/2001/xml-events" xmlns:xlink="http://www.w3.org/1999/xlink"><defs /><polyline fill="none" points="19.0915,110.6441 12.1492,110.6441 8.678,114.9831 8.678,118.0203 10.8475,119.322 27.3356,119.322 22.1288,110.2102 20.3932,109.7763 19.0915,111.078" stroke="#00007f" stroke-width="2" /><polyline fill="none" points="21.261,111.078 23.4305,111.078 33.8441,101.9661 69.8576,68.122 74.6305,66.3864 91.5525,53.8034 102.8339,44.2576 106.739,39.4847 114.1153,23.4305 117.5864,9.9797 115.8508,8.678 108.0407,9.1119 101.9661,11.7153 97.1932,16.0542 74.1966,44.6915 66.3864,57.2746 47.7288,81.139 41.6542,86.7797 26.9017,97.6271 9.9797,113.6814 11.7153,114.9831" stroke="#00d4ff" stroke-width="2" /><polyline fill="none" points="28.2034,109.3424 26.4678,105.4373 17.7898,105.0034" stroke="#ffe500" stroke-width="2" /><polyline fill="none" points="31.2407,104.5695 29.5051,101.0983 26.0339,100.6644" stroke="#7f0000" stroke-width="2" /></svg>