<?xml version="1.0" encoding="utf-8" ?>
<svg baseProfile="tiny" height="128" version="1.2" viewBox="0,0,128,128" width="128" xmlns="http://www.w3.org/2000/svg" xmlns:ev="http://www.w3.org/2001/xml-events" xmlns:xlink="http://www.w3.org/1999/xlink"><defs /><polyline fill="none" points="55.539,9.5458 59.0102,8.678 85.9119,9.1119 101.9661,17.7898 112.3797,29.0712 117.5864,47.7288 119.322,67.2542 118.4542,85.478 114.9831,92.8542 110.6441,98.061 101.5322,105.0034 95.0237,107.6068 80.2712,111.078 48.5966,112.8136 34.7119,106.739 20.8271,98.4949 17.3559,92.8542 8.678,67.6881 8.678,53.8034 9.9797,47.7288 16.4881,38.1831 38.1831,18.2237 55.9729,12.5831" stroke="#00007f" stroke-width="2" /><polyline fill="none" points="90.2508,18.2237 81.5729,38.6169 79.4034,49.8983 79.4034,62.9153 80.7051,73.3288 84.1763,84.6102 91.9864,98.061 92.8542,103.7017" stroke="#7cff79" stroke-width="2" /><polyline fill="none" points="26.4678,20.3932 35.1458,27.3356 41.2203,35.5797 50.3322,60.3119 52.5017,73.7627 52.5017,86.7797 49.8983,95.0237 39.4847,109.7763 30.8068,114.5492" stroke="#7f0000" stroke-width="2" /></svg>