<?xml version="1.0" encoding="utf-8" ?>
<svg baseProfile="tiny" height="128" version="1.2" viewBox="0,0,128,128" width="128" xmlns="http://www.w3.org/2000/svg" xmlns:ev="http://www.w3.org/2001/xml-events" xmlns:xlink="http://www.w3.org/1999/xlink"><defs /><polyline fill="none" points="91.5525,10.8475 70.7254,14.7525 30.8068,27.7695 20.8271,35.5797 13.4508,44.6915 9.9797,56.4068 8.678,65.9525 12.5831,78.1017 17.7898,88.5153 26.0339,98.061 46.861,112.3797 65.0847,119.322 72.461,119.322 82.4407,116.2847 97.1932,105.8712 102.4,100.2305 105.8712,91.9864 110.6441,72.0271 111.9458,60.7458 109.7763,37.3153 104.1356,22.5627 98.061,15.1864 88.9492,8.678" stroke="#00007f" stroke-width="2" /><polyline fill="none" points="25.6,84.1763 48.5966,65.0847 55.9729,56.4068 67.6881,37.7492 84.1763,19.5254 85.478,13.4508" stroke="#0000ff" stroke-width="2" /><polyline fill="none" points="65.5186,109.7763 99.3627,64.2169 109.7763,48.5966 111.5119,42.9559 107.1729,44.6915" stroke="#0080ff" stroke-width="2" /><polyline fill="none" points="44.2576,65.0847 52.0678,77.2339 55.9729,79.4034" stroke="#15ffe1" stroke-width="2" /><polyline fill="none" points="62.4814,43.3898 65.5186,50.7661 75.4983,56.4068" stroke="#7cff79" stroke-width="2" /><polyline fill="none" points="78.1017,24.2983 83.7424,27.3356 98.4949,39.4847" stroke="#e4ff12" stroke-width="2" /><polyline fill="none" points="75.0644,86.3458 78.5356,94.5898 83.3085,98.061 89.8169,98.9288" stroke="#ff9400" stroke-width="2" /><polyline fill="none" points="100.6644,64.2169 108.0407,74.6305" stroke="#ff1d00" stroke-width="2" /><polyline fill="none" points="85.9119,61.1797 92.8542,65.9525" stroke="#7f0000" stroke-width="2" /></svg>