<?xml version="1.0" encoding="utf-8" ?>
<svg baseProfile="tiny" height="128" version="1.2" viewBox="0,0,128,128" width="128" xmlns="http://www.w3.org/2000/svg" xmlns:ev="http://www.w3.org/2001/xml-events" xmlns:xlink="http://www.w3.org/1999/xlink"><defs /><polyline fill="none" points="111.0204,48.7619 114.5034,44.8435 114.068,41.3605 110.585,33.9592 104.0544,27.4286 96.2177,22.2041 83.1565,16.1088 53.551,8.7075 38.3129,10.8844 26.1224,16.1088 19.5918,20.898 11.3197,33.9592 8.7075,42.6667 9.1429,56.5986 15.2381,77.4966 23.5102,95.3469 30.4762,105.3605 37.8776,111.4558 47.8912,116.2449 68.3537,119.2925 82.2857,117.1156 93.6054,113.1973 102.3129,107.5374 111.4558,96.2177 116.6803,84.898 119.2925,67.9184 117.9864,51.8095 112.7619,39.619" stroke="#00007f" stroke-width="2" /><polyline fill="none" points="104.0544,31.7823 95.7823,36.5714 84.898,49.6327 75.3197,64.8707 71.8367,78.3673 72.7075,93.1701 78.8027,105.7959 88.381,111.0204 94.9116,111.8912 102.3129,110.585" stroke="#7cff79" stroke-width="2" /><polyline fill="none" points="16.5442,31.7823 26.1224,32.2177 37.4422,38.3129 45.2789,44.4082 49.6327,52.2449 51.8095,61.8231 53.551,94.4762 51.3741,104.0544 44.8435,113.1973" stroke="#7f0000" stroke-width="2" /></svg>