<?xml version="1.0" encoding="utf-8" ?>
<svg baseProfile="tiny" height="128" version="1.2" viewBox="0,0,128,128" width="128" xmlns="http://www.w3.org/2000/svg" xmlns:ev="http://www.w3.org/2001/xml-events" xmlns:xlink="http://www.w3.org/1999/xlink"><defs /><polyline fill="none" points="60.3119,10.8475 45.5593,11.2814 32.9763,17.3559 24.7322,23.4305 18.2237,31.6746 14.3186,39.9186 8.678,59.0102 9.1119,67.2542 13.4508,80.7051 19.0915,89.3831 35.5797,100.2305 53.8034,105.8712 74.1966,107.6068 83.7424,105.4373 98.9288,97.6271 114.5492,81.5729 119.322,69.4237 119.322,62.9153 118.0203,55.1051 111.5119,38.1831 96.3254,20.3932 78.5356,9.9797 57.2746,8.678 53.3695,9.5458" stroke="#00007f" stroke-width="2" /><polyline fill="none" points="21.261,23.4305 38.6169,24.2983 42.522,26.4678 48.5966,33.4102 50.7661,40.3525 52.9356,57.7085 53.8034,80.7051 59.878,105.4373" stroke="#7cff79" stroke-width="2" /><polyline fill="none" points="99.3627,29.939 88.5153,24.7322 75.0644,24.2983 71.1593,27.3356 67.6881,34.278 66.3864,45.1254 66.8203,66.3864 72.461,110.6441" stroke="#7f0000" stroke-width="2" /></svg>