<?xml version="1.0" encoding="utf-8" ?>
<svg baseProfile="tiny" height="128" version="1.2" viewBox="0,0,128,128" width="128" xmlns="http://www.w3.org/2000/svg" xmlns:ev="http://www.w3.org/2001/xml-events" xmlns:xlink="http://www.w3.org/1999/xlink"><defs /><polyline fill="none" points="55.2925,9.5782 41.3605,12.6259 28.2993,19.5918 23.9456,23.5102 13.932,47.8912 8.7075,74.0136 10.0136,81.8503 13.0612,89.2517 22.2041,100.1361 37.4422,111.8912 53.9864,118.8571 67.483,119.2925 82.2857,114.9388 92.2993,108.8435 101.0068,101.4422 109.2789,90.5578 114.068,80.9796 117.1156,66.1769 117.1156,49.6327 110.1497,30.4762 104.9252,23.0748 97.5238,16.9796 89.2517,12.1905 80.1088,9.5782 47.8912,8.7075" stroke="#00007f" stroke-width="2" /><polyline fill="none" points="32.6531,16.1088 40.4898,20.4626 52.6803,36.5714 57.4694,45.7143 59.2109,51.3741 59.2109,63.5646 55.7279,76.6259 48.7619,90.1224 39.619,99.7007 30.9116,104.9252" stroke="#0010ff" stroke-width="2" /><polyline fill="none" points="97.0884,18.2857 89.6871,25.6871 84.0272,36.5714 80.1088,67.9184 81.8503,82.2857 87.5102,95.3469 94.9116,103.619 103.619,108.4082" stroke="#00a4ff" stroke-width="2" /><polyline fill="none" points="27.4286,93.6054 53.551,112.3265" stroke="#3fffb7" stroke-width="2" /><polyline fill="none" points="39.1837,86.6395 59.6463,96.2177" stroke="#b7ff3f" stroke-width="2" /><polyline fill="none" points="47.8912,74.449 70.5306,82.2857" stroke="#ffb900" stroke-width="2" /><polyline fill="none" points="47.8912,64.8707 59.6463,64.4354 65.7415,62.2585" stroke="#ff3000" stroke-width="2" /><polyline fill="none" points="41.7959,53.1156 56.1633,43.5374 61.8231,36.5714" stroke="#7f0000" stroke-width="2" /></svg>