<?xml version="1.0" encoding="utf-8" ?>
<svg baseProfile="tiny" height="128" version="1.2" viewBox="0,0,128,128" width="128" xmlns="http://www.w3.org/2000/svg" xmlns:ev="http://www.w3.org/2001/xml-events" xmlns:xlink="http://www.w3.org/1999/xlink"><defs /><polyline fill="none" points="103.7017,17.3559 101.5322,13.8847 95.8915,11.7153 80.7051,8.678 69.4237,10.8475 52.0678,18.2237 30.3729,31.2407 19.5254,42.0881 11.2814,58.5763 9.1119,69.4237 8.678,78.9695 13.0169,94.5898 19.5254,103.2678 26.9017,109.3424 39.0508,114.1153 49.0305,114.5492 62.4814,112.8136 81.5729,105.4373 93.722,97.1932 107.1729,85.0441 114.5492,75.4983 118.0203,65.9525 119.322,49.4644 116.2847,35.5797 111.9458,25.1661 99.7966,10.4136" stroke="#00007f" stroke-width="2" /><polyline fill="none" points="49.8983,19.5254 55.1051,40.3525 56.4068,65.9525 45.5593,98.061 35.1458,111.5119 29.939,114.9831" stroke="#7cff79" stroke-width="2" /><polyline fill="none" points="83.7424,16.4881 81.139,30.8068 82.8746,92.8542 84.1763,98.4949 87.6475,105.4373 90.6847,108.4746 95.4576,109.7763" stroke="#7f0000" stroke-width="2" /></svg>