<?xml version="1.0" encoding="utf-8" ?>
<svg baseProfile="tiny" height="128" version="1.2" viewBox="0,0,128,128" width="128" xmlns="http://www.w3.org/2000/svg" xmlns:ev="http://www.w3.org/2001/xml-events" xmlns:xlink="http://www.w3.org/1999/xlink"><defs /><polyline fill="none" points="32.5424,19.5254 19.5254,37.3153 13.0169,55.1051 11.7153,62.4814 11.7153,69.4237 13.4508,76.3661 17.7898,85.0441 28.2034,100.2305 43.3898,112.8136 55.9729,118.4542 66.3864,119.322 73.7627,118.0203 88.5153,110.6441 95.0237,103.2678 98.061,97.1932 98.9288,82.8746 96.7593,76.3661 89.3831,59.878 76.8,38.1831 69.8576,29.0712 57.2746,17.7898 34.278,8.678" stroke="#00007f" stroke-width="2" /><polyline fill="none" points="33.8441,30.3729 47.2949,49.8983 54.6712,65.9525 64.2169,91.5525 66.3864,106.3051 65.5186,109.7763 62.4814,112.3797" stroke="#00d4ff" stroke-width="2" /><polyline fill="none" points="72.461,50.3322 77.2339,84.1763 91.1186,111.078" stroke="#ffe500" stroke-width="2" /><polyline fill="none" points="8.678,57.2746 21.261,65.9525 39.9186,74.1966 59.0102,77.6678 71.1593,78.1017 77.2339,76.8" stroke="#7f0000" stroke-width="2" /></svg>