<?xml version="1.0" encoding="utf-8" ?>
<svg baseProfile="tiny" height="128" version="1.2" viewBox="0,0,128,128" width="128" xmlns="http://www.w3.org/2000/svg" xmlns:ev="http://www.w3.org/2001/xml-events" xmlns:xlink="http://www.w3.org/1999/xlink"><defs /><polyline fill="none" points="91.5525,17.7898 89.8169,16.0542 77.2339,11.7153 52.0678,8.678 31.2407,19.9593 20.8271,27.7695 12.1492,41.2203 8.678,54.6712 9.5458,71.1593 15.1864,81.5729 20.3932,87.6475 30.8068,94.1559 42.0881,96.7593 65.9525,99.7966 88.9492,99.7966 100.6644,95.8915 109.3424,88.9492 118.0203,73.3288 119.322,66.8203 118.8881,53.8034 105.0034,32.5424 90.6847,16.4881 83.3085,10.4136" stroke="#00007f" stroke-width="2" /><polyline fill="none" points="79.8373,12.5831 72.8949,13.4508 68.122,16.0542 63.7831,20.8271 62.4814,27.3356 62.4814,31.2407 65.9525,38.1831 77.6678,49.8983 81.5729,55.9729 83.3085,67.6881 78.9695,75.9322 72.8949,79.4034 68.5559,80.2712 24.7322,77.2339 18.6576,81.5729 16.922,85.478" stroke="#0000f1" stroke-width="2" /><polyline fill="none" points="72.8949,17.7898 72.8949,17.7898" stroke="#004cff" stroke-width="2" /><polyline fill="none" points="69.4237,22.1288 69.4237,22.5627" stroke="#00b0ff" stroke-width="2" /><polyline fill="none" points="68.9898,30.8068 68.9898,31.2407" stroke="#29ffcd" stroke-width="2" /><polyline fill="none" points="72.8949,39.4847 73.7627,39.9186" stroke="#7cff79" stroke-width="2" /><polyline fill="none" points="77.2339,44.2576 78.1017,44.6915" stroke="#cdff29" stroke-width="2" /><polyline fill="none" points="82.4407,49.4644 82.8746,50.7661" stroke="#ffc400" stroke-width="2" /><polyline fill="none" points="86.3458,59.4441 86.7797,59.878" stroke="#ff6700" stroke-width="2" /><polyline fill="none" points="87.2136,67.6881 87.2136,68.9898" stroke="#f10700" stroke-width="2" /><polyline fill="none" points="84.1763,75.4983 83.7424,76.3661" stroke="#7f0000" stroke-width="2" /></svg>