<?xml version="1.0" encoding="utf-8" ?>
<svg baseProfile="tiny" height="128" version="1.2" viewBox="0,0,128,128" width="128" xmlns="http://www.w3.org/2000/svg" xmlns:ev="http://www.w3.org/2001/xml-events" xmlns:xlink="http://www.w3.org/1999/xlink"><defs /><polyline fill="none" points="35.1458,27.3356 49.0305,16.4881 69.8576,8.678 78.1017,8.678 85.9119,11.2814 98.4949,17.7898 104.1356,22.5627 112.3797,34.7119 117.1525,45.1254 119.322,55.539 119.322,70.2915 117.5864,76.8 107.6068,93.2881 99.3627,102.4 93.722,107.1729 87.6475,109.3424 62.9153,109.7763 50.3322,107.1729 25.6,100.2305 16.922,93.722 12.5831,84.6102 8.678,70.2915 8.678,58.5763 10.4136,52.5017 14.3186,43.3898 16.922,41.2203 23.4305,37.3153 39.0508,23.8644" stroke="#00007f" stroke-width="2" /><polyline fill="none" points="102.8339,24.2983 102.4,27.3356 99.7966,29.0712 97.1932,37.7492 97.1932,55.9729 104.1356,78.1017 111.5119,91.1186" stroke="#7cff79" stroke-width="2" /><polyline fill="none" points="35.1458,29.939 40.3525,35.1458 45.9932,47.7288 47.7288,53.8034 47.7288,62.9153 38.1831,88.9492 29.5051,97.6271 22.1288,100.2305" stroke="#7f0000" stroke-width="2" /></svg>