<?xml version="1.0" encoding="utf-8" ?>
<svg baseProfile="tiny" height="128" version="1.2" viewBox="0,0,128,128" width="128" xmlns="http://www.w3.org/2000/svg" xmlns:ev="http://www.w3.org/2001/xml-events" xmlns:xlink="http://www.w3.org/1999/xlink"><defs /><polyline fill="none" points="75.0644,13.8847 67.6881,9.1119 58.1424,8.678 46.4271,11.7153 39.0508,16.0542 25.6,29.0712 14.7525,48.1627 10.8475,59.0102 8.678,71.5932 8.678,82.8746 10.8475,93.722 15.6203,103.7017 22.1288,110.6441 29.939,115.8508 37.3153,118.4542 45.9932,119.322 54.6712,117.5864 62.0475,113.6814 75.4983,99.3627 80.7051,88.0814 91.1186,45.5593 91.9864,26.0339 89.3831,19.9593 80.7051,11.7153 75.0644,9.9797 68.5559,10.4136" stroke="#00007f" stroke-width="2" /><polyline fill="none" points="36.0136,22.1288 37.7492,31.2407 39.0508,86.7797 36.4475,105.0034 32.1085,112.3797" stroke="#0010ff" stroke-width="2" /><polyline fill="none" points="83.7424,10.8475 82.0068,13.8847 79.8373,22.9966 75.9322,55.9729 76.3661,66.3864 82.8746,88.0814" stroke="#00a4ff" stroke-width="2" /><polyline fill="none" points="73.7627,24.2983 83.3085,24.2983" stroke="#3fffb7" stroke-width="2" /><polyline fill="none" points="74.1966,36.4475 82.8746,38.1831" stroke="#b7ff3f" stroke-width="2" /><polyline fill="none" points="75.0644,42.9559 82.0068,44.6915" stroke="#ffb900" stroke-width="2" /><polyline fill="none" points="73.7627,55.9729 81.5729,57.7085" stroke="#ff3000" stroke-width="2" /><polyline fill="none" points="75.4983,72.8949 82.0068,72.8949" stroke="#7f0000" stroke-width="2" /></svg>