<?xml version="1.0" encoding="utf-8" ?>
<svg baseProfile="tiny" height="128" version="1.2" viewBox="0,0,128,128" width="128" xmlns="http://www.w3.org/2000/svg" xmlns:ev="http://www.w3.org/2001/xml-events" xmlns:xlink="http://www.w3.org/1999/xlink"><defs /><polyline fill="none" points="63.1293,9.1429 32.2177,9.1429 23.0748,11.7551 14.8027,19.5918 10.8844,28.7347 8.7075,40.0544 9.1429,69.2245 16.5442,89.2517 25.6871,96.6531 33.0884,99.7007 54.8571,103.619 76.6259,103.1837 88.8163,101.0068 102.3129,95.7823 111.8912,88.381 117.1156,81.8503 118.8571,75.3197 119.2925,65.7415 118.4218,62.2585 111.0204,51.3741 99.7007,38.3129 65.7415,12.1905 47.0204,8.7075" stroke="#00007f" stroke-width="2" /><polyline fill="none" points="25.2517,9.5782 29.6054,17.8503 33.0884,32.2177 33.5238,69.6599 32.6531,78.3673 29.6054,86.6395 37.4422,74.8844" stroke="#7cff79" stroke-width="2" /><polyline fill="none" points="67.0476,16.1088 59.6463,42.6667 58.7755,70.5306 61.3878,80.5442 70.966,96.6531" stroke="#7f0000" stroke-width="2" /></svg>