<?xml version="1.0" encoding="utf-8" ?>
<svg baseProfile="tiny" height="128" version="1.2" viewBox="0,0,128,128" width="128" xmlns="http://www.w3.org/2000/svg" xmlns:ev="http://www.w3.org/2001/xml-events" xmlns:xlink="http://www.w3.org/1999/xlink"><defs /><polyline fill="none" points="64.6508,12.5831 32.5424,30.3729 17.7898,48.1627 13.4508,56.8407 9.1119,70.7254 8.678,79.8373 11.7153,89.3831 22.5627,104.1356 29.0712,107.1729 36.4475,108.4746 52.0678,108.9085 74.1966,105.4373 88.5153,100.6644 95.4576,95.4576 110.6441,68.5559 114.9831,56.4068 119.322,39.0508 119.322,30.3729 117.5864,24.2983 110.2102,12.5831 105.0034,9.1119 95.4576,8.678 83.3085,13.0169 67.2542,23.4305 62.0475,24.7322 65.9525,18.6576 86.3458,45.9932 92.8542,62.0475 92.8542,71.1593 101.0983,87.6475 98.9288,86.7797" stroke="#00007f" stroke-width="2" /><polyline fill="none" points="22.1288,36.4475 26.9017,37.3153 33.4102,42.9559 36.0136,50.7661 43.3898,62.0475 43.8237,81.5729 41.2203,91.1186 41.2203,100.2305 44.2576,106.739" stroke="#0080ff" stroke-width="2" /><polyline fill="none" points="28.2034,47.7288 40.7864,41.2203 38.1831,43.3898" stroke="#7cff79" stroke-width="2" /><polyline fill="none" points="24.7322,67.6881 49.4644,53.8034 51.6339,52.9356 50.3322,55.539" stroke="#ff9400" stroke-width="2" /><polyline fill="none" points="35.1458,82.0068 47.2949,75.4983 97.6271,59.4441 100.2305,59.0102 98.4949,60.7458 95.8915,61.1797" stroke="#7f0000" stroke-width="2" /></svg>