<?xml version="1.0" encoding="utf-8" ?>
<svg baseProfile="tiny" height="128" version="1.2" viewBox="0,0,128,128" width="128" xmlns="http://www.w3.org/2000/svg" xmlns:ev="http://www.w3.org/2001/xml-events" xmlns:xlink="http://www.w3.org/1999/xlink"><defs /><polyline fill="none" points="93.2881,16.0542 88.5153,12.1492 76.3661,8.678 44.6915,8.678 32.9763,12.5831 25.1661,19.0915 15.1864,32.1085 12.5831,37.3153 8.678,51.6339 8.678,62.4814 12.1492,69.8576 19.0915,75.9322 49.4644,92.4203 63.3492,98.061 79.8373,95.8915 94.1559,92.4203 105.0034,87.6475 112.8136,83.7424 119.322,68.122 119.322,60.7458 117.5864,53.3695 111.078,42.0881 86.7797,19.0915" stroke="#00007f" stroke-width="2" /><polyline fill="none" points="38.6169,8.678 43.8237,17.7898 43.8237,22.5627 32.9763,51.2 27.3356,60.7458 21.6949,66.3864" stroke="#00d4ff" stroke-width="2" /><polyline fill="none" points="108.9085,36.4475 93.2881,37.7492 88.5153,43.3898 85.0441,55.539 84.1763,67.6881 86.7797,73.7627 98.9288,82.0068 101.5322,86.3458 102.4,85.9119" stroke="#ffe500" stroke-width="2" /><polyline fill="none" points="88.5153,47.7288 114.5492,54.2373 111.9458,55.1051" stroke="#7f0000" stroke-width="2" /></svg>