<?xml version="1.0" encoding="utf-8" ?>
<svg baseProfile="tiny" height="128" version="1.2" viewBox="0,0,128,128" width="128" xmlns="http://www.w3.org/2000/svg" xmlns:ev="http://www.w3.org/2001/xml-events" xmlns:xlink="http://www.w3.org/1999/xlink"><defs /><polyline fill="none" points="10.4136,70.2915 8.678,66.3864 9.1119,55.539 11.7153,46.861 17.7898,37.3153 31.6746,22.1288 46.861,15.1864 80.2712,13.0169 91.9864,16.0542 107.1729,26.0339 114.5492,37.7492 118.0203,46.861 119.322,64.6508 118.4542,71.1593 114.1153,80.2712 110.6441,85.0441 104.1356,89.3831 87.6475,93.722 41.6542,95.0237 34.278,93.2881 24.2983,88.0814 16.922,81.5729 9.9797,69.8576 9.1119,64.6508" stroke="#00007f" stroke-width="2" /><polyline fill="none" points="47.7288,18.2237 53.8034,25.6 55.539,32.1085 55.539,42.522 52.9356,55.1051 39.4847,78.1017 29.5051,91.9864 25.1661,95.0237" stroke="#0000fe" stroke-width="2" /><polyline fill="none" points="101.9661,26.9017 87.2136,60.3119 84.6102,72.461 84.6102,84.1763 86.3458,94.5898" stroke="#0060ff" stroke-width="2" /><polyline fill="none" points="79.8373,8.678 78.9695,13.0169 71.5932,29.939 64.6508,57.2746 61.1797,99.7966" stroke="#00d4ff" stroke-width="2" /><polyline fill="none" points="43.8237,29.939 65.9525,26.0339" stroke="#4cffaa" stroke-width="2" /><polyline fill="none" points="38.6169,43.8237 52.0678,44.2576 66.8203,50.7661" stroke="#aaff4c" stroke-width="2" /><polyline fill="none" points="43.8237,63.3492 46.861,67.6881" stroke="#ffe500" stroke-width="2" /><polyline fill="none" points="34.7119,67.6881 36.8814,71.5932 43.3898,75.4983" stroke="#ff7a00" stroke-width="2" /><polyline fill="none" points="103.7017,28.2034 80.7051,39.9186 71.5932,45.5593" stroke="#fe1200" stroke-width="2" /><polyline fill="none" points="102.8339,49.8983 91.1186,57.2746 82.0068,64.6508" stroke="#7f0000" stroke-width="2" /></svg>