<?xml version="1.0" encoding="utf-8" ?>
<svg baseProfile="tiny" height="128" version="1.2" viewBox="0,0,128,128" width="128" xmlns="http://www.w3.org/2000/svg" xmlns:ev="http://www.w3.org/2001/xml-events" xmlns:xlink="http://www.w3.org/1999/xlink"><defs /><polyline fill="none" points="52.9356,9.9797 40.3525,10.8475 31.2407,16.4881 19.5254,29.0712 12.5831,43.3898 9.1119,58.5763 8.678,69.8576 11.2814,82.0068 17.7898,92.8542 26.9017,99.7966 42.0881,106.3051 65.5186,106.739 78.5356,102.8339 87.2136,98.061 95.0237,90.6847 99.3627,82.8746 101.5322,72.461 100.6644,61.6136 95.8915,49.8983 89.3831,39.4847 71.5932,20.8271 51.6339,8.678" stroke="#00007f" stroke-width="2" /><polyline fill="none" points="17.3559,23.8644 16.922,26.9017 18.2237,30.3729 39.0508,52.5017 42.0881,59.0102 45.5593,75.4983 46.861,109.7763 48.1627,114.9831" stroke="#0028ff" stroke-width="2" /><polyline fill="none" points="76.3661,18.6576 63.3492,22.5627 57.2746,27.7695 52.9356,34.7119 49.8983,44.6915 52.5017,76.8 58.1424,108.4746 61.6136,119.322" stroke="#00d4ff" stroke-width="2" /><polyline fill="none" points="47.7288,9.5458 69.4237,11.7153 81.139,15.6203" stroke="#7cff79" stroke-width="2" /><polyline fill="none" points="44.2576,35.5797 65.0847,51.2" stroke="#ffe500" stroke-width="2" /><polyline fill="none" points="39.0508,62.0475 75.9322,84.1763" stroke="#ff4600" stroke-width="2" /><polyline fill="none" points="52.0678,97.1932 62.0475,98.9288 79.8373,97.1932" stroke="#7f0000" stroke-width="2" /></svg>