<?xml version="1.0" encoding="utf-8" ?>
<svg baseProfile="tiny" height="128" version="1.2" viewBox="0,0,128,128" width="128" xmlns="http://www.w3.org/2000/svg" xmlns:ev="http://www.w3.org/2001/xml-events" xmlns:xlink="http://www.w3.org/1999/xlink"><defs /><polyline fill="none" points="72.2721,10.0136 67.9184,8.7075 42.2313,17.415 24.8163,26.1224 16.1088,34.3946 10.0136,47.4558 8.7075,57.9048 10.0136,60.0816 24.381,70.0952 28.7347,77.932 37.4422,82.7211 44.4082,83.1565 57.9048,89.2517 72.7075,100.5714 78.8027,102.7483 97.0884,105.3605 106.6667,105.3605 118.8571,73.1429 119.2925,62.6939 112.7619,55.7279 107.5374,44.8435 102.3129,27.4286 96.2177,19.1565 87.0748,15.2381 77.4966,14.8027" stroke="#00007f" stroke-width="2" /><polyline fill="none" points="39.619,14.3673 40.0544,50.068 33.9592,66.6122 26.1224,70.966" stroke="#7cff79" stroke-width="2" /><polyline fill="none" points="106.2313,47.0204 109.2789,48.7619 108.4082,51.3741 80.9796,81.415 79.6735,84.898" stroke="#7f0000" stroke-width="2" /></svg>