<?xml version="1.0" encoding="utf-8" ?>
<svg baseProfile="tiny" height="128" version="1.2" viewBox="0,0,128,128" width="128" xmlns="http://www.w3.org/2000/svg" xmlns:ev="http://www.w3.org/2001/xml-events" xmlns:xlink="http://www.w3.org/1999/xlink"><defs /><polyline fill="none" points="8.7372,72.9556 46.744,97.8567 58.9761,98.7304 71.6451,96.9829 82.5666,93.4881 91.7406,88.6826 99.1672,81.256 103.9727,72.5188 107.0307,62.0341 107.0307,51.5495 104.8464,41.5017 100.4778,31.8908 93.0512,23.5904 84.314,17.0375 75.1399,11.7952 65.529,8.7372 46.3072,10.0478 28.8328,21.4061 13.1058,71.6451 19.2218,74.2662" stroke="#00007f" stroke-width="2" /><polyline fill="none" points="19.6587,42.8123 19.6587,42.8123" stroke="#004cff" stroke-width="2" /><polyline fill="none" points="19.6587,42.8123 19.6587,42.8123" stroke="#29ffcd" stroke-width="2" /><polyline fill="none" points="19.6587,42.8123 50.2389,62.471 56.7918,79.5085 56.7918,91.7406 54.6075,95.6724 52.4232,95.6724" stroke="#cdff29" stroke-width="2" /><polyline fill="none" points="90.43,19.6587 89.1195,37.57 91.3038,48.4915 96.1092,58.9761 101.7884,66.4027 109.215,71.6451" stroke="#ff6700" stroke-width="2" /><polyline fill="none" points="23.5904,73.8294 93.9249,50.6758 107.9044,44.9966 119.2628,37.57" stroke="#7f0000" stroke-width="2" /></svg>