<?xml version="1.0" encoding="utf-8" ?>
<svg baseProfile="tiny" height="128" version="1.2" viewBox="0,0,128,128" width="128" xmlns="http://www.w3.org/2000/svg" xmlns:ev="http://www.w3.org/2001/xml-events" xmlns:xlink="http://www.w3.org/1999/xlink"><defs /><polyline fill="none" points="64.6508,9.9797 60.7458,9.1119 52.5017,10.8475 36.4475,19.5254 23.4305,31.2407 14.3186,45.5593 9.1119,60.7458 8.678,78.1017 12.1492,88.9492 22.1288,101.5322 32.5424,108.0407 42.522,111.078 58.1424,112.3797 72.0271,111.078 84.6102,108.0407 97.1932,101.5322 104.1356,94.1559 111.078,84.1763 113.6814,66.8203 112.8136,49.4644 108.4746,36.8814 101.0983,24.2983 95.4576,18.2237 85.9119,12.5831 75.4983,9.1119 62.9153,8.678" stroke="#00007f" stroke-width="2" /><polyline fill="none" points="45.9932,15.1864 45.9932,41.6542 52.0678,110.6441" stroke="#0080ff" stroke-width="2" /><polyline fill="none" points="68.9898,8.678 72.8949,18.2237 75.9322,58.5763 81.139,90.6847 81.139,119.322" stroke="#7cff79" stroke-width="2" /><polyline fill="none" points="39.0508,28.2034 51.6339,29.5051" stroke="#ff9400" stroke-width="2" /><polyline fill="none" points="41.2203,50.7661 55.1051,52.0678" stroke="#7f0000" stroke-width="2" /></svg>