<?xml version="1.0" encoding="utf-8" ?>
<svg baseProfile="tiny" height="128" version="1.2" viewBox="0,0,128,128" width="128" xmlns="http://www.w3.org/2000/svg" xmlns:ev="http://www.w3.org/2001/xml-events" xmlns:xlink="http://www.w3.org/1999/xlink"><defs /><polyline fill="none" points="99.7966,16.922 93.722,14.3186 75.9322,12.1492 51.2,11.2814 37.7492,17.3559 22.9966,31.2407 13.4508,47.7288 8.678,65.9525 8.678,80.2712 10.8475,94.5898 16.922,106.3051 26.4678,114.5492 36.8814,119.322 49.0305,119.322 61.1797,117.1525 89.3831,101.0983 99.7966,92.8542 108.4746,82.8746 111.5119,74.6305 111.5119,62.0475 109.3424,49.4644 105.4373,36.4475 101.0983,28.6373 95.4576,21.261 90.6847,18.6576" stroke="#00007f" stroke-width="2" /><polyline fill="none" points="36.0136,14.3186 42.0881,18.2237 45.5593,25.6 47.2949,35.1458 47.2949,52.9356 42.0881,79.4034 37.3153,95.0237 24.7322,114.1153" stroke="#7cff79" stroke-width="2" /><polyline fill="none" points="83.7424,8.678 76.3661,46.861 76.3661,71.1593 81.139,82.4407 90.2508,98.061" stroke="#7f0000" stroke-width="2" /></svg>