<?xml version="1.0" encoding="utf-8" ?>
<svg baseProfile="tiny" height="128" version="1.2" viewBox="0,0,128,128" width="128" xmlns="http://www.w3.org/2000/svg" xmlns:ev="http://www.w3.org/2001/xml-events" xmlns:xlink="http://www.w3.org/1999/xlink"><defs /><polyline fill="none" points="75.0644,29.0712 75.4983,23.8644 74.6305,21.6949 69.8576,18.6576 61.6136,16.0542 53.3695,16.0542 39.0508,24.7322 26.0339,35.1458 13.8847,50.7661 10.8475,56.8407 9.1119,62.9153 8.678,79.4034 11.2814,86.7797 19.9593,96.7593 29.939,100.6644 37.7492,101.0983 44.6915,101.0983 59.878,97.6271 68.5559,92.8542 74.6305,87.2136 85.478,62.0475 88.5153,49.0305 89.8169,26.9017 87.6475,18.6576 81.139,9.9797 74.1966,8.678 69.8576,10.8475 65.9525,15.1864" stroke="#00007f" stroke-width="2" /><polyline fill="none" points="20.8271,49.8983 25.6,52.5017 37.3153,55.1051 53.8034,55.539 62.4814,52.5017 83.3085,38.6169 113.2475,10.8475" stroke="#0000e8" stroke-width="2" /><polyline fill="none" points="24.2983,38.6169 27.7695,48.5966 29.0712,59.878 28.2034,81.5729" stroke="#0038ff" stroke-width="2" /><polyline fill="none" points="48.5966,33.8441 45.9932,46.861 45.9932,55.539 47.7288,65.9525 52.0678,73.7627" stroke="#0094ff" stroke-width="2" /><polyline fill="none" points="55.9729,31.6746 58.1424,42.9559 73.3288,67.6881" stroke="#0cf4ea" stroke-width="2" /><polyline fill="none" points="72.0271,27.7695 75.0644,33.4102 85.0441,44.6915" stroke="#56ffa0" stroke-width="2" /><polyline fill="none" points="18.6576,103.2678 21.6949,94.1559 25.1661,91.5525 37.3153,85.478 45.5593,84.1763 60.7458,84.1763 66.8203,85.478 72.461,90.6847 76.3661,99.3627" stroke="#a0ff56" stroke-width="2" /><polyline fill="none" points="28.6373,80.2712 29.0712,85.478 35.1458,103.7017" stroke="#eaff0c" stroke-width="2" /><polyline fill="none" points="47.2949,62.4814 48.1627,93.2881 49.8983,95.0237" stroke="#ffaa00" stroke-width="2" /><polyline fill="none" points="67.6881,69.4237 63.7831,75.4983 63.7831,93.722" stroke="#ff5500" stroke-width="2" /><polyline fill="none" points="81.139,69.8576 79.8373,77.6678 81.139,96.7593" stroke="#e80000" stroke-width="2" /><polyline fill="none" points="108.9085,119.322 108.9085,119.322" stroke="#7f0000" stroke-width="2" /></svg>