<?xml version="1.0" encoding="utf-8" ?>
<svg baseProfile="tiny" height="128" version="1.2" viewBox="0,0,128,128" width="128" xmlns="http://www.w3.org/2000/svg" xmlns:ev="http://www.w3.org/2001/xml-events" xmlns:xlink="http://www.w3.org/1999/xlink"><defs /><polyline fill="none" points="30.3729,8.678 16.4881,31.2407 11.2814,43.3898 8.678,57.2746 8.678,69.8576 12.1492,78.9695 20.3932,91.5525 29.939,98.9288 42.0881,105.0034 54.2373,108.9085 67.2542,110.6441 89.8169,108.0407 98.4949,103.7017 110.2102,92.4203 114.5492,83.7424 116.7186,73.7627 115.8508,59.878 111.5119,48.1627 101.5322,32.1085 93.722,25.6 74.6305,16.922 35.1458,11.2814" stroke="#00007f" stroke-width="2" /><polyline fill="none" points="32.9763,16.4881 39.0508,27.7695 42.0881,36.8814 43.8237,47.2949 43.8237,60.3119 40.7864,81.139 33.8441,95.4576 28.2034,102.4" stroke="#7cff79" stroke-width="2" /><polyline fill="none" points="82.8746,22.9966 84.1763,62.4814 88.0814,88.9492 96.3254,110.2102 100.6644,115.8508 106.3051,119.322" stroke="#7f0000" stroke-width="2" /></svg>