<?xml version="1.0" encoding="utf-8" ?>
<svg baseProfile="tiny" height="128" version="1.2" viewBox="0,0,128,128" width="128" xmlns="http://www.w3.org/2000/svg" xmlns:ev="http://www.w3.org/2001/xml-events" xmlns:xlink="http://www.w3.org/1999/xlink"><defs /><polyline fill="none" points="78.9695,13.4508 64.6508,9.1119 59.0102,8.678 40.3525,8.678 29.939,11.2814 20.8271,18.2237 15.1864,24.7322 10.8475,33.8441 8.678,44.6915 9.1119,53.8034 13.4508,66.3864 25.6,82.4407 38.6169,94.5898 48.1627,101.0983 62.4814,108.4746 69.4237,110.2102 80.2712,110.6441 90.2508,109.7763 100.6644,102.4 115.8508,84.6102 118.4542,74.6305 119.322,56.4068 118.0203,49.8983 111.9458,36.4475 104.5695,25.6 95.8915,17.7898 85.0441,11.2814 79.4034,9.9797 68.122,9.1119 59.4441,9.9797" stroke="#00007f" stroke-width="2" /><polyline fill="none" points="88.9492,14.7525 82.0068,36.4475 82.0068,56.8407 86.3458,67.2542 96.3254,83.7424 101.5322,91.1186 102.8339,90.2508" stroke="#004cff" stroke-width="2" /><polyline fill="none" points="32.1085,13.4508 35.1458,30.8068 35.1458,43.8237 29.5051,74.6305 24.2983,93.2881" stroke="#29ffcd" stroke-width="2" /><polyline fill="none" points="22.1288,25.6 29.0712,24.2983 41.2203,24.2983" stroke="#cdff29" stroke-width="2" /><polyline fill="none" points="22.1288,42.0881 52.0678,42.9559" stroke="#ff6700" stroke-width="2" /><polyline fill="none" points="19.5254,64.2169 32.9763,68.122 49.8983,71.1593" stroke="#7f0000" stroke-width="2" /></svg>