<?xml version="1.0" encoding="utf-8" ?>
<svg baseProfile="tiny" height="128" version="1.2" viewBox="0,0,128,128" width="128" xmlns="http://www.w3.org/2000/svg" xmlns:ev="http://www.w3.org/2001/xml-events" xmlns:xlink="http://www.w3.org/1999/xlink"><defs /><polyline fill="none" points="82.4407,14.7525 78.5356,10.4136 68.9898,8.678 55.1051,11.7153 40.7864,17.7898 27.3356,29.0712 19.9593,37.7492 10.4136,59.0102 9.9797,79.8373 13.0169,89.3831 17.3559,97.6271 24.2983,104.1356 33.4102,109.7763 42.0881,112.3797 54.6712,112.8136 66.8203,111.078 84.1763,102.4 92.4203,93.722 94.5898,84.1763 92.8542,66.8203 85.9119,41.2203 78.1017,25.1661 71.5932,19.5254 65.9525,16.922" stroke="#00007f" stroke-width="2" /><polyline fill="none" points="20.8271,35.5797 26.4678,39.0508 28.6373,43.3898 29.0712,54.6712 27.3356,67.2542 17.7898,87.6475 10.4136,97.6271 8.678,99.3627 8.678,97.6271" stroke="#0080ff" stroke-width="2" /><polyline fill="none" points="80.2712,30.3729 71.5932,38.1831 63.3492,50.7661 59.0102,62.0475 54.2373,85.478 55.1051,90.2508 69.8576,114.1153 77.2339,118.0203 82.8746,119.322 87.6475,117.5864" stroke="#7cff79" stroke-width="2" /><polyline fill="none" points="22.5627,88.5153 29.0712,83.3085 37.3153,79.8373 55.9729,76.8 63.7831,77.2339 65.0847,78.5356" stroke="#ff9400" stroke-width="2" /><polyline fill="none" points="26.9017,22.5627 34.278,37.7492" stroke="#7f0000" stroke-width="2" /></svg>