<?xml version="1.0" encoding="utf-8" ?>
<svg baseProfile="tiny" height="128" version="1.2" viewBox="0,0,128,128" width="128" xmlns="http://www.w3.org/2000/svg" xmlns:ev="http://www.w3.org/2001/xml-events" xmlns:xlink="http://www.w3.org/1999/xlink"><defs /><polyline fill="none" points="41.2203,8.678 27.7695,13.0169 19.5254,19.0915 10.8475,32.1085 8.678,45.9932 9.5458,61.1797 17.7898,93.2881 22.1288,101.5322 27.7695,106.739 45.5593,116.2847 56.8407,119.322 67.6881,118.8881 78.5356,115.8508 85.478,110.6441 91.5525,104.5695 100.6644,87.6475 102.8339,79.4034 103.2678,71.5932 98.4949,55.9729 85.9119,38.1831 70.7254,20.3932 63.7831,14.3186 58.5763,11.7153 53.3695,10.8475 31.2407,13.4508" stroke="#00007f" stroke-width="2" /><polyline fill="none" points="13.0169,24.2983 32.9763,46.4271 37.7492,54.6712 42.0881,65.5186 42.0881,82.4407 36.8814,99.3627 34.278,111.9458" stroke="#0028ff" stroke-width="2" /><polyline fill="none" points="49.8983,19.0915 50.3322,30.8068 52.9356,48.1627 61.1797,67.2542 72.8949,86.3458 77.2339,90.6847 86.7797,96.3254 106.739,98.061" stroke="#00d4ff" stroke-width="2" /><polyline fill="none" points="19.0915,48.1627 30.8068,40.7864 41.6542,36.8814" stroke="#7cff79" stroke-width="2" /><polyline fill="none" points="31.6746,66.3864 49.8983,65.9525 61.1797,67.6881" stroke="#ffe500" stroke-width="2" /><polyline fill="none" points="33.4102,98.4949 55.9729,94.5898" stroke="#ff4600" stroke-width="2" /><polyline fill="none" points="74.1966,49.8983 66.8203,52.9356 59.0102,60.7458 52.5017,75.9322" stroke="#7f0000" stroke-width="2" /></svg>