<?xml version="1.0" encoding="utf-8" ?>
<svg baseProfile="tiny" height="128" version="1.2" viewBox="0,0,128,128" width="128" xmlns="http://www.w3.org/2000/svg" xmlns:ev="http://www.w3.org/2001/xml-events" xmlns:xlink="http://www.w3.org/1999/xlink"><defs /><polyline fill="none" points="75.4983,27.7695 63.3492,28.2034 41.6542,33.8441 31.2407,41.2203 20.8271,52.0678 13.4508,62.0475 9.1119,74.1966 8.678,88.5153 11.2814,102.4 18.6576,112.3797 27.3356,117.5864 36.8814,119.322 49.0305,119.322 63.7831,116.7186 78.1017,108.0407 89.3831,95.8915 98.4949,77.6678 105.0034,55.9729 107.6068,38.1831 107.6068,24.2983 105.8712,15.6203 100.2305,9.9797 91.5525,8.678 79.4034,11.7153 66.8203,20.8271 49.0305,39.0508" stroke="#00007f" stroke-width="2" /><polyline fill="none" points="57.7085,26.0339 58.1424,49.0305 56.4068,61.1797 49.0305,84.1763 41.6542,114.5492" stroke="#0000ff" stroke-width="2" /><polyline fill="none" points="84.6102,21.6949 77.2339,31.2407 70.7254,44.2576 65.0847,57.7085 61.1797,74.1966 61.1797,88.5153 63.7831,98.9288 68.122,108.9085 75.4983,118.8881" stroke="#0080ff" stroke-width="2" /><polyline fill="none" points="41.6542,44.6915 41.6542,44.6915" stroke="#15ffe1" stroke-width="2" /><polyline fill="none" points="41.2203,89.3831 41.2203,89.3831" stroke="#7cff79" stroke-width="2" /><polyline fill="none" points="32.1085,119.322 32.1085,119.322" stroke="#e4ff12" stroke-width="2" /><polyline fill="none" points="54.6712,40.7864 48.5966,55.1051 42.9559,74.1966" stroke="#ff9400" stroke-width="2" /><polyline fill="none" points="44.2576,83.7424 40.3525,92.8542" stroke="#ff1d00" stroke-width="2" /><polyline fill="none" points="29.5051,109.7763 29.5051,109.7763" stroke="#7f0000" stroke-width="2" /></svg>