<?xml version="1.0" encoding="utf-8" ?>
<svg baseProfile="tiny" height="128" version="1.2" viewBox="0,0,128,128" width="128" xmlns="http://www.w3.org/2000/svg" xmlns:ev="http://www.w3.org/2001/xml-events" xmlns:xlink="http://www.w3.org/1999/xlink"><defs /><polyline fill="none" points="16.2192,60.0548 21.4795,42.9589 26.3014,34.1918 33.3151,24.9863 49.9726,14.0274 63.5616,10.0822 83.2877,8.7671 100.8219,13.589 108.274,20.1644 113.5342,28.4932 117.0411,38.5753 118.7945,54.3562 117.0411,67.5068 108.274,90.3014 100.3836,102.5753 91.6164,110.4658 73.2055,119.2329 50.8493,119.2329 39.0137,114.8493 26.7397,107.3973 19.2877,97.7534 9.6438,72.7671 8.7671,63.1233 10.0822,56.1096 13.1507,49.0959" stroke="#00007f" stroke-width="2" /><polyline fill="none" points="39.8904,32.8767 42.0822,46.9041 52.1644,80.2192 49.9726,87.2329 44.7123,95.1233 38.137,102.5753 32.0,106.5205" stroke="#00d4ff" stroke-width="2" /><polyline fill="none" points="117.4795,23.6712 101.6986,39.4521 92.4932,53.9178 88.1096,66.6301 87.2329,78.4658 89.4247,95.1233 93.3699,101.6986 100.8219,105.2055 104.7671,105.2055" stroke="#ffe500" stroke-width="2" /><polyline fill="none" points="38.5753,31.5616 42.0822,43.3973" stroke="#7f0000" stroke-width="2" /></svg>