<?xml version="1.0" encoding="utf-8" ?>
<svg baseProfile="tiny" height="128" version="1.2" viewBox="0,0,128,128" width="128" xmlns="http://www.w3.org/2000/svg" xmlns:ev="http://www.w3.org/2001/xml-events" xmlns:xlink="http://www.w3.org/1999/xlink"><defs /><polyline fill="none" points="65.7415,13.0612 29.6054,11.7551 16.5442,19.5918 11.7551,25.6871 8.7075,32.6531 8.7075,46.585 10.449,50.5034 20.0272,63.1293 33.9592,71.4014 51.8095,77.4966 63.5646,79.2381 85.3333,79.2381 107.102,61.3878 114.5034,48.7619 118.8571,33.9592 119.2925,18.2857 116.6803,10.8844 113.1973,9.1429 83.5918,8.7075 77.0612,10.8844 66.1769,11.7551" stroke="#00007f" stroke-width="2" /><polyline fill="none" points="15.2381,21.7687 33.0884,29.1701 35.2653,33.9592 36.1361,44.8435 30.0408,53.1156 13.932,52.6803" stroke="#0080ff" stroke-width="2" /><polyline fill="none" points="115.3741,36.1361 92.7347,35.2653 85.7687,37.8776 84.0272,45.2789 84.0272,52.2449 86.2041,56.5986 95.7823,60.0816 106.6667,59.2109 106.6667,57.9048" stroke="#7cff79" stroke-width="2" /><polyline fill="none" points="43.102,10.8844 41.7959,40.4898 43.9728,51.3741 45.2789,82.7211 46.585,68.7891" stroke="#ff9400" stroke-width="2" /><polyline fill="none" points="62.6939,11.7551 61.8231,25.6871 57.9048,50.5034" stroke="#7f0000" stroke-width="2" /></svg>