<?xml version="1.0" encoding="utf-8" ?>
<svg baseProfile="tiny" height="128" version="1.2" viewBox="0,0,128,128" width="128" xmlns="http://www.w3.org/2000/svg" xmlns:ev="http://www.w3.org/2001/xml-events" xmlns:xlink="http://www.w3.org/1999/xlink"><defs /><polyline fill="none" points="48.1627,12.5831 36.4475,13.4508 26.4678,20.3932 21.261,26.9017 13.8847,41.6542 8.678,55.539 8.678,82.0068 16.922,94.1559 26.4678,102.8339 40.7864,112.8136 50.3322,116.7186 65.5186,119.322 81.139,119.322 89.8169,115.8508 97.6271,110.6441 111.078,95.0237 111.9458,82.0068 108.4746,72.461 99.3627,53.8034 87.6475,38.1831 67.6881,19.5254 52.9356,8.678" stroke="#00007f" stroke-width="2" /><polyline fill="none" points="71.5932,24.2983 70.2915,39.9186 70.2915,57.2746 71.5932,62.9153 75.4983,72.461 86.7797,91.1186 101.5322,107.1729" stroke="#7cff79" stroke-width="2" /><polyline fill="none" points="32.9763,16.4881 32.9763,19.5254 38.1831,30.8068 45.1254,62.9153 44.6915,88.5153 41.2203,98.9288 36.4475,105.0034" stroke="#7f0000" stroke-width="2" /></svg>