<?xml version="1.0" encoding="utf-8" ?>
<svg baseProfile="tiny" height="128" version="1.2" viewBox="0,0,128,128" width="128" xmlns="http://www.w3.org/2000/svg" xmlns:ev="http://www.w3.org/2001/xml-events" xmlns:xlink="http://www.w3.org/1999/xlink"><defs /><polyline fill="none" points="88.9492,36.4475 83.3085,41.6542 78.9695,47.7288 79.8373,52.9356 82.0068,57.2746 88.5153,62.4814 97.6271,62.0475 117.1525,54.2373 119.322,50.7661 118.4542,45.1254 110.6441,38.1831 103.2678,36.0136 85.0441,39.4847" stroke="#00007f" stroke-width="2" /><polyline fill="none" points="85.9119,40.3525 92.4203,45.9932 98.061,46.861 108.4746,43.8237 114.1153,38.6169 110.2102,42.522" stroke="#004cff" stroke-width="2" /><polyline fill="none" points="93.2881,47.7288 93.2881,47.7288" stroke="#29ffcd" stroke-width="2" /><polyline fill="none" points="79.8373,54.2373 101.9661,54.2373" stroke="#cdff29" stroke-width="2" /><polyline fill="none" points="101.9661,54.2373 117.1525,50.3322 118.4542,48.1627" stroke="#ff6700" stroke-width="2" /><polyline fill="none" points="14.3186,42.9559 8.678,50.3322 13.4508,49.0305 17.7898,43.8237 36.0136,26.9017 52.9356,15.1864 55.1051,11.2814 54.6712,8.678 48.5966,8.678 42.522,11.2814 34.278,17.3559 16.4881,35.1458 13.0169,41.2203" stroke="#7f0000" stroke-width="2" /></svg>