<?xml version="1.0" encoding="utf-8" ?>
<svg baseProfile="tiny" height="128" version="1.2" viewBox="0,0,128,128" width="128" xmlns="http://www.w3.org/2000/svg" xmlns:ev="http://www.w3.org/2001/xml-events" xmlns:xlink="http://www.w3.org/1999/xlink"><defs /><polyline fill="none" points="41.2203,19.0915 35.5797,19.0915 26.9017,25.1661 12.1492,45.9932 8.678,62.9153 8.678,75.4983 10.8475,85.478 12.5831,87.6475 16.4881,92.4203 39.9186,108.9085 47.7288,111.078 75.4983,116.7186 88.5153,117.1525 97.1932,115.4169 108.9085,109.7763 114.1153,102.4 117.5864,87.2136 119.322,62.9153 114.1153,43.3898 103.7017,27.7695 91.1186,18.2237 78.5356,11.7153 68.9898,9.9797 50.3322,9.9797 35.5797,13.4508 32.5424,16.922 28.2034,29.0712" stroke="#00007f" stroke-width="2" /><polyline fill="none" points="41.2203,8.678 43.8237,12.1492 47.7288,21.6949 53.8034,52.5017 53.3695,70.7254 45.1254,108.0407 47.7288,105.0034" stroke="#7cff79" stroke-width="2" /><polyline fill="none" points="73.7627,10.8475 68.122,64.2169 68.122,82.4407 70.7254,95.0237 74.1966,103.2678 78.5356,108.0407 83.7424,111.5119" stroke="#7f0000" stroke-width="2" /></svg>