<?xml version="1.0" encoding="utf-8" ?>
<svg baseProfile="tiny" height="128" version="1.2" viewBox="0,0,128,128" width="128" xmlns="http://www.w3.org/2000/svg" xmlns:ev="http://www.w3.org/2001/xml-events" xmlns:xlink="http://www.w3.org/1999/xlink"><defs /><polyline fill="none" points="72.0271,16.4881 55.539,16.4881 49.4644,18.6576 37.7492,25.6 26.0339,37.7492 16.922,51.6339 10.4136,67.6881 8.678,83.7424 9.5458,91.5525 13.4508,97.6271 26.9017,107.6068 35.5797,111.078 53.3695,114.1153 75.4983,113.2475 85.0441,110.6441 100.2305,102.8339 107.1729,95.4576 115.8508,80.2712 118.4542,70.2915 119.322,51.6339 110.2102,32.9763 95.4576,18.2237 87.6475,13.4508 73.3288,8.678" stroke="#00007f" stroke-width="2" /><polyline fill="none" points="47.2949,18.6576 53.8034,39.0508 54.6712,59.878 51.2,76.8 47.7288,84.6102 38.6169,98.4949 31.2407,106.739" stroke="#0010ff" stroke-width="2" /><polyline fill="none" points="97.1932,20.8271 95.4576,29.0712 86.3458,53.8034 85.0441,61.1797 85.0441,81.139 85.9119,87.2136 88.5153,91.1186 97.6271,97.1932" stroke="#00a4ff" stroke-width="2" /><polyline fill="none" points="50.7661,32.9763 58.5763,33.4102" stroke="#3fffb7" stroke-width="2" /><polyline fill="none" points="47.2949,52.9356 54.2373,53.3695" stroke="#b7ff3f" stroke-width="2" /><polyline fill="none" points="50.7661,67.6881 55.539,68.9898" stroke="#ffb900" stroke-width="2" /><polyline fill="none" points="39.0508,88.5153 42.9559,90.6847 45.9932,90.6847" stroke="#ff3000" stroke-width="2" /><polyline fill="none" points="34.7119,96.7593 39.0508,98.061" stroke="#7f0000" stroke-width="2" /></svg>