<?xml version="1.0" encoding="utf-8" ?>
<svg baseProfile="tiny" height="128" version="1.2" viewBox="0,0,128,128" width="128" xmlns="http://www.w3.org/2000/svg" xmlns:ev="http://www.w3.org/2001/xml-events" xmlns:xlink="http://www.w3.org/1999/xlink"><defs /><polyline fill="none" points="92.4203,13.4508 86.3458,11.7153 72.461,11.7153 64.6508,13.0169 50.7661,18.6576 31.2407,32.9763 17.3559,49.8983 9.9797,67.2542 9.9797,82.4407 16.4881,93.722 23.8644,99.7966 32.1085,103.7017 42.522,105.4373 59.4441,105.0034 84.6102,97.6271 106.3051,83.3085 112.3797,76.3661 117.5864,67.6881 119.322,53.3695 117.5864,45.1254 112.3797,34.278 105.0034,28.2034 72.8949,13.0169 71.5932,8.678" stroke="#00007f" stroke-width="2" /><polyline fill="none" points="26.0339,31.6746 34.278,36.0136 45.5593,38.6169 68.122,41.2203 92.4203,42.0881 99.7966,40.7864 105.4373,38.1831 109.7763,34.278 110.6441,30.8068" stroke="#0080ff" stroke-width="2" /><polyline fill="none" points="8.678,87.2136 42.0881,76.3661 70.2915,73.7627 86.7797,80.2712 97.6271,90.6847" stroke="#7cff79" stroke-width="2" /><polyline fill="none" points="85.9119,79.4034 84.1763,81.139 83.3085,76.8 81.5729,75.9322 73.7627,77.6678 70.2915,74.6305 64.6508,74.1966 63.7831,72.461 61.6136,72.0271 59.4441,73.3288 55.1051,72.8949 53.8034,74.6305 49.8983,73.7627 49.0305,75.4983 45.1254,75.0644 41.6542,81.139 33.4102,78.1017 32.1085,82.0068 29.939,82.8746 27.3356,78.9695 22.9966,87.2136 22.5627,85.478" stroke="#ff9400" stroke-width="2" /><polyline fill="none" points="40.3525,34.278 39.9186,40.3525 44.2576,41.2203" stroke="#7f0000" stroke-width="2" /></svg>