<?xml version="1.0" encoding="utf-8" ?>
<svg baseProfile="tiny" height="128" version="1.2" viewBox="0,0,128,128" width="128" xmlns="http://www.w3.org/2000/svg" xmlns:ev="http://www.w3.org/2001/xml-events" xmlns:xlink="http://www.w3.org/1999/xlink"><defs /><polyline fill="none" points="69.8576,10.8475 53.3695,12.5831 41.2203,16.4881 23.8644,27.7695 15.1864,41.6542 11.7153,49.4644 8.678,62.4814 8.678,68.9898 11.7153,83.7424 16.922,93.2881 24.2983,101.0983 38.6169,109.7763 56.8407,114.5492 65.5186,114.9831 91.9864,107.1729 106.739,96.7593 118.0203,77.6678 119.322,62.4814 118.4542,55.9729 113.6814,45.5593 108.0407,37.3153 101.0983,29.939 78.5356,14.3186 65.0847,11.7153" stroke="#00007f" stroke-width="2" /><polyline fill="none" points="30.3729,38.6169 32.1085,41.6542" stroke="#0000ff" stroke-width="2" /><polyline fill="none" points="16.922,47.7288 19.5254,50.7661 29.5051,56.4068" stroke="#0080ff" stroke-width="2" /><polyline fill="none" points="18.6576,65.5186 29.5051,68.5559 25.6,71.5932" stroke="#15ffe1" stroke-width="2" /><polyline fill="none" points="24.7322,82.0068 32.9763,82.4407" stroke="#7cff79" stroke-width="2" /><polyline fill="none" points="39.0508,94.1559 50.3322,91.9864" stroke="#e4ff12" stroke-width="2" /><polyline fill="none" points="32.9763,32.5424 34.7119,33.4102" stroke="#ff9400" stroke-width="2" /><polyline fill="none" points="64.2169,10.8475 59.878,12.5831 57.2746,17.7898 57.7085,31.2407 65.5186,46.861 77.6678,61.1797 87.2136,77.6678 93.2881,92.8542 95.0237,103.7017 95.8915,101.0983" stroke="#ff1d00" stroke-width="2" /><polyline fill="none" points="67.6881,8.678 66.3864,23.4305 68.5559,28.2034 81.5729,49.8983 98.9288,72.461" stroke="#7f0000" stroke-width="2" /></svg>