<?xml version="1.0" encoding="utf-8" ?>
<svg baseProfile="tiny" height="128" version="1.2" viewBox="0,0,128,128" width="128" xmlns="http://www.w3.org/2000/svg" xmlns:ev="http://www.w3.org/2001/xml-events" xmlns:xlink="http://www.w3.org/1999/xlink"><defs /><polyline fill="none" points="67.6881,8.678 42.9559,8.678 24.7322,23.4305 22.1288,30.8068 11.2814,44.2576 8.678,50.3322 8.678,85.0441 11.2814,93.2881 16.922,99.3627 23.4305,103.2678 36.0136,107.1729 42.0881,107.1729 54.2373,110.6441 68.5559,110.6441 82.4407,108.4746 88.5153,104.5695 94.5898,98.4949 104.5695,78.5356 107.1729,65.5186 107.1729,53.3695 104.5695,40.3525 98.4949,24.7322 94.5898,18.6576 82.4407,14.7525 61.6136,13.4508" stroke="#00007f" stroke-width="2" /><polyline fill="none" points="40.7864,9.9797 36.8814,40.7864 33.4102,54.2373 33.4102,76.3661 40.7864,105.4373 41.6542,105.8712" stroke="#00d4ff" stroke-width="2" /><polyline fill="none" points="79.8373,14.7525 78.9695,22.1288 75.0644,28.6373 71.5932,54.2373 71.1593,72.461 73.7627,79.8373 73.7627,87.6475 83.7424,119.322" stroke="#ffe500" stroke-width="2" /><polyline fill="none" points="59.0102,33.4102 59.0102,33.4102" stroke="#7f0000" stroke-width="2" /></svg>