<?xml version="1.0" encoding="utf-8" ?>
<svg baseProfile="tiny" height="128" version="1.2" viewBox="0,0,128,128" width="128" xmlns="http://www.w3.org/2000/svg" xmlns:ev="http://www.w3.org/2001/xml-events" xmlns:xlink="http://www.w3.org/1999/xlink"><defs /><polyline fill="none" points="57.034,17.415 52.2449,15.2381 44.8435,15.2381 29.1701,21.7687 20.0272,28.7347 16.1088,33.0884 13.0612,37.8776 10.0136,47.8912 8.7075,69.2245 9.1429,75.3197 12.6259,86.6395 20.898,101.0068 37.4422,113.1973 55.2925,115.8095 65.3061,112.7619 74.0136,107.9728 83.1565,100.5714 90.9932,91.4286 99.2653,73.5782 101.4422,62.2585 100.5714,46.1497 92.7347,33.0884 85.3333,25.6871 74.0136,16.1088 66.6122,12.6259 52.2449,11.7551 49.6327,13.4966" stroke="#00007f" stroke-width="2" /><polyline fill="none" points="63.1293,8.7075 59.6463,11.3197 54.8571,22.2041 49.1973,43.102 49.1973,69.6599 53.551,79.2381 70.966,99.2653 77.4966,103.619 90.5578,104.9252" stroke="#0080ff" stroke-width="2" /><polyline fill="none" points="38.7483,10.8844 30.0408,20.4626 24.381,37.4422 22.2041,48.7619 21.7687,76.6259 25.6871,89.6871 33.9592,106.2313 42.2313,118.8571 46.585,119.2925" stroke="#7cff79" stroke-width="2" /><polyline fill="none" points="17.415,35.2653 31.7823,31.3469" stroke="#ff9400" stroke-width="2" /><polyline fill="none" points="21.3333,54.8571 26.5578,50.5034" stroke="#7f0000" stroke-width="2" /></svg>