<?xml version="1.0" encoding="utf-8" ?>
<svg baseProfile="tiny" height="128" version="1.2" viewBox="0,0,128,128" width="128" xmlns="http://www.w3.org/2000/svg" xmlns:ev="http://www.w3.org/2001/xml-events" xmlns:xlink="http://www.w3.org/1999/xlink"><defs /><polyline fill="none" points="42.0881,14.7525 24.2983,21.6949 15.6203,30.3729 10.8475,42.522 8.678,55.9729 8.678,65.9525 11.7153,72.0271 20.3932,82.4407 27.3356,88.9492 46.861,100.2305 61.6136,102.8339 83.7424,102.4 101.5322,92.8542 111.5119,82.8746 114.9831,77.2339 118.0203,70.2915 119.322,62.0475 119.322,45.9932 117.5864,38.6169 110.6441,25.6 101.5322,18.2237 89.3831,13.4508 70.2915,8.678 61.1797,9.5458 50.3322,13.0169" stroke="#00007f" stroke-width="2" /><polyline fill="none" points="42.522,16.0542 47.7288,46.4271 47.7288,72.0271 41.6542,91.1186 39.4847,93.722" stroke="#004cff" stroke-width="2" /><polyline fill="none" points="36.4475,33.8441 49.4644,34.278" stroke="#29ffcd" stroke-width="2" /><polyline fill="none" points="36.4475,47.7288 43.3898,50.7661 50.7661,51.6339" stroke="#cdff29" stroke-width="2" /><polyline fill="none" points="36.4475,64.6508 49.8983,70.2915" stroke="#ff6700" stroke-width="2" /><polyline fill="none" points="36.8814,76.3661 41.6542,77.6678 44.6915,75.9322" stroke="#7f0000" stroke-width="2" /></svg>