<?xml version="1.0" encoding="utf-8" ?>
<svg baseProfile="tiny" height="128" version="1.2" viewBox="0,0,128,128" width="128" xmlns="http://www.w3.org/2000/svg" xmlns:ev="http://www.w3.org/2001/xml-events" xmlns:xlink="http://www.w3.org/1999/xlink"><defs /><polyline fill="none" points="71.5932,13.4508 37.3153,14.7525 22.1288,19.0915 13.4508,27.7695 9.9797,45.9932 8.678,70.7254 11.7153,94.5898 14.3186,99.7966 20.3932,106.3051 27.7695,109.3424 55.9729,114.1153 66.3864,111.9458 98.9288,98.4949 102.4,95.4576 109.3424,85.9119 116.2847,73.7627 119.322,58.5763 118.8881,41.6542 114.1153,29.939 99.3627,16.0542 92.8542,12.1492 78.5356,8.678 68.9898,10.4136" stroke="#00007f" stroke-width="2" /><polyline fill="none" points="42.9559,18.2237 42.0881,38.6169 33.4102,87.6475 24.2983,104.1356 14.7525,114.1153" stroke="#7cff79" stroke-width="2" /><polyline fill="none" points="65.5186,16.4881 61.1797,39.4847 59.4441,67.6881 54.6712,88.0814 43.8237,107.1729" stroke="#7f0000" stroke-width="2" /></svg>