<?xml version="1.0" encoding="utf-8" ?>
<svg baseProfile="tiny" height="128" version="1.2" viewBox="0,0,128,128" width="128" xmlns="http://www.w3.org/2000/svg" xmlns:ev="http://www.w3.org/2001/xml-events" xmlns:xlink="http://www.w3.org/1999/xlink"><defs /><polyline fill="none" points="13.4508,106.3051 8.678,113.2475 9.5458,116.7186 16.0542,119.322 18.6576,115.8508 18.6576,108.9085 15.1864,107.1729 8.678,108.9085 11.2814,105.0034 17.3559,81.5729 32.1085,35.5797 37.7492,12.5831 39.0508,9.5458 42.522,8.678 49.0305,12.1492 52.9356,18.6576 52.0678,37.3153 45.1254,52.0678 32.1085,87.6475 24.7322,101.0983 18.6576,108.4746" stroke="#00007f" stroke-width="2" /><polyline fill="none" points="88.0814,70.7254 81.5729,78.5356 78.9695,86.7797 81.5729,95.4576 84.1763,98.9288 91.1186,101.9661 99.3627,102.4 107.1729,100.2305 110.6441,97.6271 111.9458,94.5898 111.9458,87.2136 107.1729,81.139 103.7017,78.1017 97.1932,75.4983 93.722,75.4983 86.7797,77.6678 84.1763,81.5729" stroke="#00d4ff" stroke-width="2" /><polyline fill="none" points="81.5729,86.7797 88.0814,86.7797" stroke="#ffe500" stroke-width="2" /><polyline fill="none" points="89.8169,86.7797 111.078,86.3458" stroke="#7f0000" stroke-width="2" /></svg>