<?xml version="1.0" encoding="utf-8" ?>
<svg baseProfile="tiny" height="128" version="1.2" viewBox="0,0,128,128" width="128" xmlns="http://www.w3.org/2000/svg" xmlns:ev="http://www.w3.org/2001/xml-events" xmlns:xlink="http://www.w3.org/1999/xlink"><defs /><polyline fill="none" points="47.7288,109.7763 36.0136,107.6068 26.0339,101.9661 20.3932,96.7593 12.5831,84.1763 8.678,65.5186 8.678,53.3695 13.4508,33.4102 22.9966,20.8271 32.1085,14.3186 42.9559,10.4136 54.6712,8.678 66.8203,9.1119 77.2339,11.7153 91.9864,19.5254 104.1356,29.939 111.5119,40.7864 119.322,58.1424 119.322,65.9525 116.2847,75.9322 111.078,82.8746 103.7017,89.8169 94.5898,95.4576 82.0068,101.0983 51.2,108.9085" stroke="#00007f" stroke-width="2" /><polyline fill="none" points="29.0712,12.5831 34.278,18.2237 39.0508,30.8068 42.0881,45.1254 42.0881,58.1424 37.7492,78.5356 26.4678,95.4576" stroke="#0028ff" stroke-width="2" /><polyline fill="none" points="101.9661,16.0542 84.6102,34.7119 77.6678,45.5593 72.0271,59.4441 70.7254,77.6678 74.1966,96.7593 76.8,102.4" stroke="#00d4ff" stroke-width="2" /><polyline fill="none" points="22.9966,26.0339 44.6915,34.278" stroke="#7cff79" stroke-width="2" /><polyline fill="none" points="32.5424,57.7085 52.0678,74.6305" stroke="#ffe500" stroke-width="2" /><polyline fill="none" points="23.4305,81.139 26.4678,88.5153 30.3729,92.4203" stroke="#ff4600" stroke-width="2" /><polyline fill="none" points="81.139,27.3356 82.8746,30.8068" stroke="#7f0000" stroke-width="2" /></svg>