<?xml version="1.0" encoding="utf-8" ?>
<svg baseProfile="tiny" height="128" version="1.2" viewBox="0,0,128,128" width="128" xmlns="http://www.w3.org/2000/svg" xmlns:ev="http://www.w3.org/2001/xml-events" xmlns:xlink="http://www.w3.org/1999/xlink"><defs /><polyline fill="none" points="101.9661,37.3153 101.9661,37.3153" stroke="#00007f" stroke-width="2" /><polyline fill="none" points="80.7051,12.1492 80.7051,12.1492" stroke="#0080ff" stroke-width="2" /><polyline fill="none" points="80.7051,12.1492 49.4644,19.0915 44.6915,22.9966 25.6,47.2949 18.2237,52.0678 10.4136,73.7627 8.678,97.6271 18.2237,107.1729 20.3932,111.9458 28.6373,115.8508 35.5797,118.0203 75.4983,119.322 85.9119,118.0203 99.7966,112.3797 107.1729,108.9085 116.7186,101.5322 118.0203,91.1186 117.1525,73.7627 112.3797,68.9898 106.739,57.2746 102.8339,53.8034 97.6271,45.1254 94.5898,33.8441 85.9119,12.5831 83.7424,10.4136 77.2339,8.678" stroke="#7cff79" stroke-width="2" /><polyline fill="none" points="44.2576,16.4881 45.9932,22.9966 49.8983,28.2034 52.9356,40.7864 54.6712,56.8407 54.6712,76.8 52.9356,82.0068 47.2949,89.8169 45.1254,91.1186 37.7492,105.8712 30.8068,112.3797" stroke="#ff9400" stroke-width="2" /><polyline fill="none" points="93.2881,42.9559 94.1559,49.8983 92.8542,59.4441" stroke="#7f0000" stroke-width="2" /></svg>