<?xml version="1.0" encoding="utf-8" ?>
<svg baseProfile="tiny" height="128" version="1.2" viewBox="0,0,128,128" width="128" xmlns="http://www.w3.org/2000/svg" xmlns:ev="http://www.w3.org/2001/xml-events" xmlns:xlink="http://www.w3.org/1999/xlink"><defs /><polyline fill="none" points="21.6949,24.7322 11.2814,44.2576 8.678,61.1797 8.678,77.2339 11.7153,88.9492 14.3186,95.4576 21.261,105.0034 25.6,108.4746 37.3153,113.6814 61.6136,118.8881 91.9864,119.322 104.1356,114.5492 108.9085,109.3424 111.078,102.4 111.9458,93.2881 111.5119,63.7831 100.2305,39.0508 93.2881,29.5051 85.0441,21.6949 76.3661,17.3559 36.8814,9.9797 20.3932,9.9797 16.0542,16.4881 16.4881,27.7695" stroke="#00007f" stroke-width="2" /><polyline fill="none" points="17.7898,8.678 19.9593,21.6949 26.4678,34.278 36.4475,45.9932 52.0678,53.3695 62.0475,55.9729 82.0068,56.8407 91.1186,49.4644 100.2305,37.7492" stroke="#7cff79" stroke-width="2" /><polyline fill="none" points="19.0915,39.9186 16.0542,42.522 16.0542,45.9932 20.8271,52.9356 31.6746,61.6136 42.522,65.9525 73.7627,72.0271 94.5898,72.8949 100.2305,67.6881 103.7017,61.1797" stroke="#7f0000" stroke-width="2" /></svg>