<?xml version="1.0" encoding="utf-8" ?>
<svg baseProfile="tiny" height="128" version="1.2" viewBox="0,0,128,128" width="128" xmlns="http://www.w3.org/2000/svg" xmlns:ev="http://www.w3.org/2001/xml-events" xmlns:xlink="http://www.w3.org/1999/xlink"><defs /><polyline fill="none" points="110.585,33.9592 105.3605,23.5102 95.7823,16.5442 78.3673,8.7075 70.966,8.7075 65.7415,10.0136 46.1497,25.2517 26.5578,36.5714 16.5442,49.6327 13.4966,55.2925 9.5782,69.6599 8.7075,90.5578 11.7551,99.7007 17.8503,107.9728 29.6054,114.9388 37.0068,117.551 45.7143,118.8571 70.966,117.9864 98.3946,114.5034 105.3605,111.8912 114.9388,98.8299 119.2925,76.6259 119.2925,59.2109 117.551,46.1497 112.7619,29.1701 110.1497,26.1224" stroke="#00007f" stroke-width="2" /><polyline fill="none" points="35.2653,30.4762 41.7959,30.4762 44.8435,32.6531 47.0204,48.7619 45.7143,51.3741 29.6054,60.0816 24.8163,67.0476 23.5102,88.8163 25.6871,114.5034 28.2993,117.9864" stroke="#00d4ff" stroke-width="2" /><polyline fill="none" points="53.1156,14.8027 60.9524,20.0272 68.3537,29.1701 75.3197,40.4898 78.8027,54.8571 78.8027,61.8231 75.3197,71.4014 62.2585,87.0748 56.1633,97.0884 53.1156,107.102 52.6803,115.3741 53.9864,119.2925" stroke="#ffe500" stroke-width="2" /><polyline fill="none" points="95.7823,9.1429 106.2313,48.7619 109.2789,71.8367 109.2789,81.8503 107.9728,84.898 97.0884,94.0408 92.2993,110.1497" stroke="#7f0000" stroke-width="2" /></svg>