<?xml version="1.0" encoding="utf-8" ?>
<svg baseProfile="tiny" height="128" version="1.2" viewBox="0,0,128,128" width="128" xmlns="http://www.w3.org/2000/svg" xmlns:ev="http://www.w3.org/2001/xml-events" xmlns:xlink="http://www.w3.org/1999/xlink"><defs /><polyline fill="none" points="62.9153,9.5458 45.5593,8.678 36.8814,9.9797 22.9966,19.0915 15.6203,28.6373 12.1492,36.0136 9.1119,49.4644 8.678,78.5356 11.7153,86.7797 16.922,94.1559 27.3356,103.2678 49.4644,110.6441 81.5729,110.2102 97.6271,104.1356 106.3051,98.061 118.0203,82.8746 119.322,76.8 119.322,70.7254 115.4169,62.0475 98.9288,39.0508 88.5153,30.3729 62.0475,16.0542" stroke="#00007f" stroke-width="2" /><polyline fill="none" points="18.6576,20.3932 22.1288,21.261 42.522,41.2203 52.9356,58.5763 58.5763,74.6305 59.878,83.3085 59.878,92.8542 57.2746,104.5695" stroke="#7cff79" stroke-width="2" /><polyline fill="none" points="32.9763,42.0881 42.9559,39.0508" stroke="#7f0000" stroke-width="2" /></svg>