<?xml version="1.0" encoding="utf-8" ?>
<svg baseProfile="tiny" height="128" version="1.2" viewBox="0,0,128,128" width="128" xmlns="http://www.w3.org/2000/svg" xmlns:ev="http://www.w3.org/2001/xml-events" xmlns:xlink="http://www.w3.org/1999/xlink"><defs /><polyline fill="none" points="25.1661,8.678 20.8271,11.7153 9.9797,43.3898 8.678,55.9729 8.678,84.1763 10.8475,93.2881 16.0542,100.2305 22.1288,107.1729 32.1085,112.8136 42.9559,117.1525 64.6508,119.322 85.0441,119.322 94.1559,115.8508 102.4,109.7763 113.6814,94.1559 116.2847,75.9322 116.2847,60.3119 113.6814,53.8034 109.3424,45.9932 97.1932,33.4102 89.3831,27.7695 67.6881,19.9593 48.5966,15.6203 38.6169,15.1864" stroke="#00007f" stroke-width="2" /><polyline fill="none" points="11.7153,23.4305 16.4881,29.939 35.5797,47.7288 42.522,61.6136 43.3898,88.9492 40.3525,98.061 32.9763,112.8136" stroke="#0028ff" stroke-width="2" /><polyline fill="none" points="93.2881,107.1729 91.5525,97.6271 78.1017,63.3492 77.6678,48.5966 78.5356,44.6915 81.5729,41.2203 93.722,33.4102" stroke="#00d4ff" stroke-width="2" /><polyline fill="none" points="17.7898,46.861 34.7119,35.1458 39.9186,32.9763" stroke="#7cff79" stroke-width="2" /><polyline fill="none" points="32.9763,57.7085 50.3322,58.1424" stroke="#ffe500" stroke-width="2" /><polyline fill="none" points="40.7864,71.5932 49.0305,77.6678" stroke="#ff4600" stroke-width="2" /><polyline fill="none" points="41.2203,95.0237 52.0678,95.8915" stroke="#7f0000" stroke-width="2" /></svg>