<?xml version="1.0" encoding="utf-8" ?>
<svg baseProfile="tiny" height="128" version="1.2" viewBox="0,0,128,128" width="128" xmlns="http://www.w3.org/2000/svg" xmlns:ev="http://www.w3.org/2001/xml-events" xmlns:xlink="http://www.w3.org/1999/xlink"><defs /><polyline fill="none" points="24.7322,38.6169 22.1288,40.3525 10.4136,67.2542 8.678,90.2508 11.2814,98.061 21.261,110.2102 34.7119,117.5864 56.4068,119.322 71.1593,114.1153 87.2136,100.6644 97.1932,84.1763 100.6644,74.6305 101.9661,65.9525 101.5322,48.5966 95.0237,31.6746 90.6847,25.1661 78.9695,15.1864 72.0271,11.2814 57.2746,8.678 43.3898,9.9797 28.6373,18.2237 22.5627,24.2983 13.8847,36.4475 12.1492,44.6915" stroke="#00007f" stroke-width="2" /><polyline fill="none" points="24.7322,27.7695 40.7864,51.2 46.861,68.122 46.861,78.9695 45.5593,85.478 32.5424,110.2102" stroke="#0010ff" stroke-width="2" /><polyline fill="none" points="88.5153,12.1492 75.0644,45.9932 73.7627,52.5017 73.3288,70.2915 82.8746,86.7797 86.3458,89.3831 96.3254,90.6847" stroke="#00a4ff" stroke-width="2" /><polyline fill="none" points="34.278,49.8983 42.9559,47.7288" stroke="#3fffb7" stroke-width="2" /><polyline fill="none" points="42.0881,61.1797 50.3322,60.7458" stroke="#b7ff3f" stroke-width="2" /><polyline fill="none" points="46.861,68.9898 56.8407,74.1966 59.4441,78.5356" stroke="#ffb900" stroke-width="2" /><polyline fill="none" points="43.3898,88.0814 48.1627,93.2881" stroke="#ff3000" stroke-width="2" /><polyline fill="none" points="34.7119,97.6271 40.3525,100.2305" stroke="#7f0000" stroke-width="2" /></svg>