<?xml version="1.0" encoding="utf-8" ?>
<svg baseProfile="tiny" height="128" version="1.2" viewBox="0,0,128,128" width="128" xmlns="http://www.w3.org/2000/svg" xmlns:ev="http://www.w3.org/2001/xml-events" xmlns:xlink="http://www.w3.org/1999/xlink"><defs /><polyline fill="none" points="62.9153,106.739 52.0678,111.9458 39.9186,112.3797 32.1085,111.9458 18.6576,105.4373 13.8847,100.6644 10.4136,92.8542 8.678,80.7051 8.678,65.5186 12.5831,51.6339 18.2237,41.6542 26.0339,31.6746 35.1458,24.2983 46.4271,17.7898 58.5763,13.0169 71.1593,10.4136 94.5898,10.8475 103.7017,15.1864 111.078,21.6949 116.7186,30.8068 119.322,43.8237 119.322,57.2746 116.2847,69.8576 110.2102,81.5729 101.9661,91.9864 93.722,99.7966 82.8746,106.739 72.0271,110.2102 59.878,111.078 49.8983,110.6441 42.9559,108.4746" stroke="#00007f" stroke-width="2" /><polyline fill="none" points="39.4847,26.4678 45.1254,32.5424 49.0305,42.9559 54.6712,68.9898 55.1051,94.1559 53.3695,102.8339 49.4644,114.9831 46.4271,118.4542 43.8237,118.8881" stroke="#7cff79" stroke-width="2" /><polyline fill="none" points="98.061,8.678 95.4576,9.1119 93.722,10.8475 85.478,33.4102 83.3085,42.9559 82.0068,62.4814 83.3085,71.5932 86.3458,82.0068 93.2881,96.3254 101.0983,103.2678 108.4746,106.739" stroke="#7f0000" stroke-width="2" /></svg>