<?xml version="1.0" encoding="utf-8" ?>
<svg baseProfile="tiny" height="128" version="1.2" viewBox="0,0,128,128" width="128" xmlns="http://www.w3.org/2000/svg" xmlns:ev="http://www.w3.org/2001/xml-events" xmlns:xlink="http://www.w3.org/1999/xlink"><defs /><polyline fill="none" points="95.0237,10.4136 78.1017,8.678 66.3864,11.7153 50.7661,19.5254 26.0339,41.2203 17.7898,53.3695 9.9797,72.0271 8.678,82.0068 10.8475,95.0237 19.5254,107.6068 27.3356,113.6814 37.7492,118.4542 48.1627,119.322 66.3864,116.2847 71.1593,113.6814 84.1763,103.7017 94.5898,83.3085 96.7593,72.8949 97.6271,56.8407 93.722,29.0712 91.1186,21.261 88.5153,16.922 82.8746,17.3559" stroke="#00007f" stroke-width="2" /><polyline fill="none" points="28.2034,31.2407 26.0339,37.7492 29.5051,49.8983 33.4102,72.0271 32.9763,100.6644 29.0712,112.3797" stroke="#004cff" stroke-width="2" /><polyline fill="none" points="52.5017,10.4136 54.6712,15.6203 56.8407,39.9186 58.5763,85.0441 57.7085,107.6068" stroke="#29ffcd" stroke-width="2" /><polyline fill="none" points="36.0136,103.7017 41.6542,102.8339 42.9559,100.6644" stroke="#cdff29" stroke-width="2" /><polyline fill="none" points="42.9559,71.5932 52.0678,68.122 56.8407,64.2169" stroke="#ff6700" stroke-width="2" /><polyline fill="none" points="30.3729,34.278 47.7288,26.4678 61.6136,16.4881" stroke="#7f0000" stroke-width="2" /></svg>