<?xml version="1.0" encoding="utf-8" ?>
<svg baseProfile="tiny" height="128" version="1.2" viewBox="0,0,128,128" width="128" xmlns="http://www.w3.org/2000/svg" xmlns:ev="http://www.w3.org/2001/xml-events" xmlns:xlink="http://www.w3.org/1999/xlink"><defs /><polyline fill="none" points="68.9898,12.1492 61.6136,9.5458 57.2746,9.9797 47.7288,13.0169 37.3153,19.5254 22.5627,32.5424 12.5831,49.4644 8.678,68.5559 11.2814,78.1017 15.1864,85.0441 23.4305,94.1559 35.1458,101.5322 46.861,105.0034 60.7458,105.8712 72.8949,105.4373 87.6475,101.9661 101.0983,94.5898 106.739,88.5153 118.4542,68.5559 119.322,61.6136 117.1525,49.4644 113.6814,39.9186 104.5695,27.7695 95.8915,20.3932 83.7424,14.3186 62.0475,8.678" stroke="#00007f" stroke-width="2" /><polyline fill="none" points="48.5966,13.8847 51.2,22.5627 53.8034,37.3153 49.4644,62.9153 45.9932,72.461 38.1831,86.3458 29.0712,97.6271" stroke="#0080ff" stroke-width="2" /><polyline fill="none" points="101.5322,14.7525 95.4576,21.6949 83.7424,39.9186 81.139,45.9932 76.3661,70.2915 75.0644,85.478 75.9322,91.9864 83.7424,103.7017 89.8169,105.4373" stroke="#7cff79" stroke-width="2" /><polyline fill="none" points="39.0508,22.5627 49.4644,33.4102 57.7085,33.8441 62.0475,29.939 65.9525,19.5254" stroke="#ff9400" stroke-width="2" /><polyline fill="none" points="32.5424,39.4847 39.0508,47.7288 46.4271,54.2373" stroke="#7f0000" stroke-width="2" /></svg>