<?xml version="1.0" encoding="utf-8" ?>
<svg baseProfile="tiny" height="128" version="1.2" viewBox="0,0,128,128" width="128" xmlns="http://www.w3.org/2000/svg" xmlns:ev="http://www.w3.org/2001/xml-events" xmlns:xlink="http://www.w3.org/1999/xlink"><defs /><polyline fill="none" points="17.3559,95.0237 14.7525,75.0644 14.3186,50.3322 16.0542,34.7119 20.8271,19.0915 26.0339,11.2814 29.5051,8.678 32.5424,10.8475 35.5797,16.4881 36.8814,22.1288 36.8814,81.5729 33.8441,103.7017 31.2407,115.4169 36.0136,117.5864 35.1458,119.322 17.3559,118.4542 8.678,116.7186 10.4136,113.2475 15.1864,112.3797 16.922,91.1186 19.9593,89.8169" stroke="#00007f" stroke-width="2" /><polyline fill="none" points="77.2339,80.2712 73.3288,80.7051 65.9525,86.3458 61.6136,93.722 59.878,100.2305 61.1797,106.739 63.7831,111.9458 68.9898,116.7186 74.1966,117.5864 88.5153,116.2847 93.722,111.5119 95.4576,105.4373 95.4576,96.7593 90.2508,86.3458 86.7797,82.8746 81.5729,80.2712 77.2339,78.5356 75.0644,79.8373" stroke="#00d4ff" stroke-width="2" /><polyline fill="none" points="71.1593,82.8746 73.7627,93.2881 73.7627,106.739 72.0271,117.1525 78.1017,106.3051" stroke="#ffe500" stroke-width="2" /><polyline fill="none" points="88.5153,82.4407 84.1763,104.5695 87.2136,115.4169" stroke="#7f0000" stroke-width="2" /></svg>