<?xml version="1.0" encoding="utf-8" ?>
<svg baseProfile="tiny" height="128" version="1.2" viewBox="0,0,128,128" width="128" xmlns="http://www.w3.org/2000/svg" xmlns:ev="http://www.w3.org/2001/xml-events" xmlns:xlink="http://www.w3.org/1999/xlink"><defs /><polyline fill="none" points="47.7288,8.678 33.4102,14.7525 26.0339,21.261 12.1492,47.7288 8.678,58.1424 8.678,67.6881 13.4508,78.5356 20.8271,86.3458 33.4102,95.0237 54.6712,104.1356 70.2915,105.4373 87.6475,105.0034 103.7017,98.4949 110.6441,92.4203 117.5864,78.5356 119.322,65.5186 118.8881,42.0881 111.078,26.0339 97.6271,14.7525 88.9492,12.1492 50.3322,8.678" stroke="#00007f" stroke-width="2" /><polyline fill="none" points="49.4644,8.678 39.4847,52.5017 33.8441,67.6881 25.1661,78.9695 17.7898,83.7424" stroke="#004cff" stroke-width="2" /><polyline fill="none" points="90.2508,13.4508 88.0814,23.4305 87.6475,72.461 94.1559,93.722 105.0034,105.4373" stroke="#29ffcd" stroke-width="2" /><polyline fill="none" points="42.522,21.261 48.1627,17.7898 49.4644,18.6576 51.2,22.9966" stroke="#cdff29" stroke-width="2" /><polyline fill="none" points="41.2203,29.0712 46.4271,27.3356 47.7288,29.0712 47.2949,32.5424" stroke="#ff6700" stroke-width="2" /><polyline fill="none" points="38.1831,39.4847 44.2576,36.8814 47.2949,42.522" stroke="#7f0000" stroke-width="2" /></svg>