<?xml version="1.0" encoding="utf-8" ?>
<svg baseProfile="tiny" height="128" version="1.2" viewBox="0,0,128,128" width="128" xmlns="http://www.w3.org/2000/svg" xmlns:ev="http://www.w3.org/2001/xml-events" xmlns:xlink="http://www.w3.org/1999/xlink"><defs /><polyline fill="none" points="25.1661,26.4678 27.7695,23.4305 34.7119,19.9593 54.6712,11.7153 65.5186,9.1119 88.9492,8.678 100.2305,16.922 110.6441,29.939 118.4542,44.6915 119.322,68.9898 114.1153,82.8746 108.4746,88.5153 100.6644,94.1559 88.9492,98.061 65.0847,105.0034 45.5593,107.1729 13.4508,79.8373 8.678,66.3864 8.678,52.9356 9.9797,47.2949 31.2407,25.6 42.0881,21.261" stroke="#00007f" stroke-width="2" /><polyline fill="none" points="89.8169,10.8475 85.9119,17.7898 80.2712,36.8814 78.1017,61.1797 78.1017,78.5356 80.7051,94.5898 83.7424,104.1356 85.0441,99.3627" stroke="#7cff79" stroke-width="2" /><polyline fill="none" points="38.6169,19.5254 43.3898,26.9017 48.5966,42.522 50.3322,65.9525 46.4271,74.1966 34.7119,87.6475 33.8441,102.4 32.5424,105.8712" stroke="#7f0000" stroke-width="2" /></svg>