<?xml version="1.0" encoding="utf-8" ?>
<svg baseProfile="tiny" height="128" version="1.2" viewBox="0,0,128,128" width="128" xmlns="http://www.w3.org/2000/svg" xmlns:ev="http://www.w3.org/2001/xml-events" xmlns:xlink="http://www.w3.org/1999/xlink"><defs /><polyline fill="none" points="89.2517,8.7075 55.7279,8.7075 37.8776,12.6259 29.6054,16.5442 21.7687,21.7687 9.5782,33.5238 8.7075,41.3605 10.0136,47.8912 19.1565,58.7755 24.8163,62.6939 38.3129,67.483 53.1156,68.3537 78.8027,60.0816 108.8435,47.0204 118.4218,38.3129 119.2925,24.8163 115.8095,21.3333 111.8912,18.2857 97.0884,13.4966 90.9932,13.0612" stroke="#00007f" stroke-width="2" /><polyline fill="none" points="26.9932,16.5442 37.8776,21.3333 40.4898,24.381 41.3605,29.6054 41.3605,36.5714 37.4422,48.3265 33.5238,56.1633 27.4286,64.0" stroke="#0080ff" stroke-width="2" /><polyline fill="none" points="100.5714,12.6259 94.9116,14.8027 84.898,22.2041 78.8027,30.9116 76.6259,50.9388 77.932,55.2925 81.415,57.9048" stroke="#7cff79" stroke-width="2" /><polyline fill="none" points="44.8435,26.5578 80.1088,25.6871" stroke="#ff9400" stroke-width="2" /><polyline fill="none" points="47.0204,43.102 60.517,43.102 72.2721,40.4898" stroke="#7f0000" stroke-width="2" /></svg>