<?xml version="1.0" encoding="utf-8" ?>
<svg baseProfile="tiny" height="128" version="1.2" viewBox="0,0,128,128" width="128" xmlns="http://www.w3.org/2000/svg" xmlns:ev="http://www.w3.org/2001/xml-events" xmlns:xlink="http://www.w3.org/1999/xlink"><defs /><polyline fill="none" points="39.0508,9.9797 23.8644,14.7525 16.922,28.2034 10.8475,48.5966 8.678,92.4203 14.3186,104.1356 18.2237,109.3424 29.0712,117.1525 35.1458,118.4542 53.8034,119.322 71.1593,105.4373 79.4034,95.8915 89.8169,87.6475 93.2881,81.5729 95.0237,73.3288 95.4576,59.878 94.5898,55.9729 84.1763,44.6915 71.1593,22.5627 63.7831,14.3186 59.4441,11.2814 45.1254,8.678" stroke="#00007f" stroke-width="2" /><polyline fill="none" points="11.2814,82.0068 29.5051,82.0068 32.9763,79.8373 45.5593,65.9525 46.4271,42.9559 45.1254,36.4475 40.7864,28.6373 39.0508,12.1492" stroke="#7cff79" stroke-width="2" /><polyline fill="none" points="27.7695,111.078 29.5051,105.4373 35.1458,102.8339 41.6542,95.8915 45.5593,81.5729 49.8983,76.8 67.2542,69.8576 78.1017,59.0102 86.3458,57.2746" stroke="#7f0000" stroke-width="2" /></svg>