<?xml version="1.0" encoding="utf-8" ?>
<svg baseProfile="tiny" height="128" version="1.2" viewBox="0,0,128,128" width="128" xmlns="http://www.w3.org/2000/svg" xmlns:ev="http://www.w3.org/2001/xml-events" xmlns:xlink="http://www.w3.org/1999/xlink"><defs /><polyline fill="none" points="82.0068,9.9797 66.3864,8.678 58.5763,11.7153 48.1627,18.6576 40.3525,26.4678 32.5424,36.8814 25.6,49.0305 21.6949,60.7458 19.0915,72.0271 18.2237,92.8542 19.0915,102.8339 21.6949,109.7763 26.4678,114.9831 31.2407,118.0203 45.5593,119.322 62.0475,115.4169 70.2915,111.5119 79.8373,105.0034 88.0814,96.7593 95.4576,86.7797 103.2678,65.0847 105.0034,55.1051 104.5695,38.1831 99.7966,25.1661 91.5525,16.0542 82.4407,11.7153 72.0271,10.4136" stroke="#00007f" stroke-width="2" /><polyline fill="none" points="56.8407,14.7525 57.7085,25.6 57.2746,42.0881 51.2,66.8203 45.9932,78.5356 40.3525,85.0441 34.7119,85.9119 16.922,92.8542 8.678,93.722" stroke="#7cff79" stroke-width="2" /><polyline fill="none" points="92.8542,15.1864 91.1186,15.1864 90.2508,20.8271 79.8373,44.6915 72.8949,64.6508 71.1593,75.4983 71.5932,88.9492 76.3661,97.6271 80.7051,101.9661 98.061,113.2475" stroke="#7f0000" stroke-width="2" /></svg>