<?xml version="1.0" encoding="utf-8" ?>
<svg baseProfile="tiny" height="128" version="1.2" viewBox="0,0,128,128" width="128" xmlns="http://www.w3.org/2000/svg" xmlns:ev="http://www.w3.org/2001/xml-events" xmlns:xlink="http://www.w3.org/1999/xlink"><defs /><polyline fill="none" points="65.0847,11.2814 59.878,9.9797 46.4271,10.8475 35.5797,15.1864 25.1661,22.1288 16.922,33.4102 11.7153,47.2949 8.678,65.0847 9.1119,83.7424 13.0169,100.6644 16.0542,105.4373 23.4305,111.9458 32.9763,116.7186 45.9932,119.322 53.3695,119.322 67.6881,117.5864 74.6305,114.5492 84.6102,106.3051 91.9864,96.3254 95.0237,84.1763 94.5898,71.1593 89.3831,45.9932 76.8,22.9966 58.5763,10.4136 46.861,8.678 41.6542,12.5831" stroke="#00007f" stroke-width="2" /><polyline fill="none" points="68.9898,16.922 71.5932,19.0915 74.6305,26.0339 78.1017,43.8237 78.9695,72.0271 82.8746,95.0237" stroke="#00d4ff" stroke-width="2" /><polyline fill="none" points="16.922,29.0712 22.5627,28.6373 25.6,31.6746 27.3356,36.4475 28.2034,77.2339 34.278,86.7797 35.1458,90.2508 30.8068,104.5695" stroke="#ffe500" stroke-width="2" /><polyline fill="none" points="13.0169,50.7661 13.0169,50.7661" stroke="#7f0000" stroke-width="2" /></svg>