<?xml version="1.0" encoding="utf-8" ?>
<svg baseProfile="tiny" height="128" version="1.2" viewBox="0,0,128,128" width="128" xmlns="http://www.w3.org/2000/svg" xmlns:ev="http://www.w3.org/2001/xml-events" xmlns:xlink="http://www.w3.org/1999/xlink"><defs /><polyline fill="none" points="69.8576,86.7797 52.9356,93.2881 44.2576,94.5898 29.939,94.5898 22.1288,91.5525 15.1864,85.0441 10.4136,77.6678 8.678,68.122 8.678,51.6339 14.3186,36.8814 24.2983,25.1661 30.3729,20.8271 36.4475,16.922 50.3322,11.7153 72.461,8.678 90.6847,9.1119 98.4949,11.7153 110.2102,19.5254 118.8881,33.4102 119.322,43.3898 118.0203,49.4644 109.3424,65.0847 96.3254,76.3661 75.4983,89.8169 60.7458,93.722 47.7288,93.722 41.2203,87.6475" stroke="#00007f" stroke-width="2" /><polyline fill="none" points="35.5797,23.4305 44.6915,38.6169 48.1627,52.9356 48.1627,72.8949 47.2949,76.3661 40.7864,82.4407 36.4475,83.3085" stroke="#7cff79" stroke-width="2" /><polyline fill="none" points="81.5729,10.4136 78.5356,11.7153 76.3661,14.7525 70.2915,29.5051 68.5559,39.4847 68.9898,59.0102 75.9322,69.8576 81.5729,75.9322 95.0237,80.2712 103.2678,80.2712 105.8712,78.1017" stroke="#7f0000" stroke-width="2" /></svg>