<?xml version="1.0" encoding="utf-8" ?>
<svg baseProfile="tiny" height="128" version="1.2" viewBox="0,0,128,128" width="128" xmlns="http://www.w3.org/2000/svg" xmlns:ev="http://www.w3.org/2001/xml-events" xmlns:xlink="http://www.w3.org/1999/xlink"><defs /><polyline fill="none" points="84.1763,12.5831 70.7254,9.1119 61.1797,9.1119 50.3322,10.8475 33.8441,19.0915 19.5254,35.1458 14.7525,45.5593 11.2814,57.7085 9.9797,82.8746 16.0542,98.4949 26.0339,108.9085 33.4102,113.2475 39.4847,114.5492 78.9695,114.1153 95.8915,108.4746 106.3051,100.6644 113.6814,93.2881 118.8881,81.139 119.322,67.2542 118.4542,59.4441 113.2475,42.522 104.1356,24.7322 87.6475,11.2814 82.4407,10.8475" stroke="#00007f" stroke-width="2" /><polyline fill="none" points="57.2746,8.678 25.6,49.8983 14.7525,70.2915" stroke="#0000ff" stroke-width="2" /><polyline fill="none" points="12.5831,72.0271 8.678,78.1017" stroke="#0080ff" stroke-width="2" /><polyline fill="none" points="101.5322,22.9966 89.8169,54.2373 83.3085,75.4983 65.9525,112.8136" stroke="#15ffe1" stroke-width="2" /><polyline fill="none" points="63.7831,101.5322 73.3288,101.9661" stroke="#7cff79" stroke-width="2" /><polyline fill="none" points="72.0271,85.9119 82.4407,85.9119" stroke="#e4ff12" stroke-width="2" /><polyline fill="none" points="79.4034,73.7627 89.8169,72.8949" stroke="#ff9400" stroke-width="2" /><polyline fill="none" points="82.4407,58.5763 90.6847,58.5763 95.0237,56.4068" stroke="#ff1d00" stroke-width="2" /><polyline fill="none" points="89.8169,44.2576 89.8169,44.2576" stroke="#7f0000" stroke-width="2" /></svg>