<?xml version="1.0" encoding="utf-8" ?>
<svg baseProfile="tiny" height="128" version="1.2" viewBox="0,0,128,128" width="128" xmlns="http://www.w3.org/2000/svg" xmlns:ev="http://www.w3.org/2001/xml-events" xmlns:xlink="http://www.w3.org/1999/xlink"><defs /><polyline fill="none" points="55.539,12.1492 51.6339,9.1119 42.0881,8.678 27.3356,16.0542 17.7898,23.8644 14.3186,28.6373 10.4136,39.4847 8.678,54.2373 8.678,86.3458 10.4136,104.1356 15.1864,109.3424 17.3559,111.078 25.1661,112.8136 31.6746,112.8136 51.6339,105.8712 58.5763,105.0034 72.0271,98.9288 80.2712,90.6847 83.7424,84.1763 84.1763,74.1966 82.4407,61.1797 70.2915,40.3525 62.0475,32.1085 57.7085,21.261 55.539,19.0915 54.2373,9.5458 52.5017,9.1119" stroke="#00007f" stroke-width="2" /><polyline fill="none" points="55.9729,18.6576 47.7288,35.5797 42.522,55.539 38.1831,62.4814 37.7492,68.122 35.5797,68.5559 34.7119,71.5932 34.7119,86.7797 31.2407,99.7966 29.0712,119.322" stroke="#7f0000" stroke-width="2" /></svg>