<?xml version="1.0" encoding="utf-8" ?>
<svg baseProfile="tiny" height="128" version="1.2" viewBox="0,0,128,128" width="128" xmlns="http://www.w3.org/2000/svg" xmlns:ev="http://www.w3.org/2001/xml-events" xmlns:xlink="http://www.w3.org/1999/xlink"><defs /><polyline fill="none" points="49.4644,13.4508 45.5593,12.1492 34.7119,15.6203 20.3932,27.7695 13.8847,38.1831 10.4136,47.2949 8.678,56.4068 9.1119,64.6508 11.7153,80.2712 17.7898,94.1559 23.8644,105.0034 28.6373,108.9085 40.3525,116.7186 49.8983,119.322 62.4814,118.0203 73.3288,114.1153 85.0441,107.6068 95.8915,98.061 98.4949,95.4576 103.2678,83.7424 105.0034,66.3864 104.1356,52.5017 99.7966,36.8814 87.6475,21.6949 79.4034,16.0542 68.122,11.2814 54.6712,8.678" stroke="#00007f" stroke-width="2" /><polyline fill="none" points="36.0136,16.0542 42.9559,33.8441 46.861,56.4068 49.0305,87.6475 47.2949,101.9661 47.7288,115.4169 45.1254,117.1525" stroke="#0010ff" stroke-width="2" /><polyline fill="none" points="77.6678,14.7525 70.2915,51.6339 70.7254,72.0271 72.8949,85.0441 76.8,95.8915 82.0068,103.7017 88.0814,110.2102" stroke="#00a4ff" stroke-width="2" /><polyline fill="none" points="34.278,40.3525 48.5966,37.7492" stroke="#3fffb7" stroke-width="2" /><polyline fill="none" points="38.1831,72.0271 53.3695,71.1593" stroke="#b7ff3f" stroke-width="2" /><polyline fill="none" points="41.2203,98.9288 54.2373,101.0983 63.7831,100.2305" stroke="#ffb900" stroke-width="2" /><polyline fill="none" points="65.5186,28.6373 78.1017,33.4102 85.0441,34.7119" stroke="#ff3000" stroke-width="2" /><polyline fill="none" points="65.5186,67.6881 72.0271,67.6881 74.1966,66.3864" stroke="#7f0000" stroke-width="2" /></svg>