<?xml version="1.0" encoding="utf-8" ?>
<svg baseProfile="tiny" height="128" version="1.2" viewBox="0,0,128,128" width="128" xmlns="http://www.w3.org/2000/svg" xmlns:ev="http://www.w3.org/2001/xml-events" xmlns:xlink="http://www.w3.org/1999/xlink"><defs /><polyline fill="none" points="61.6136,12.1492 55.9729,9.1119 49.4644,9.9797 42.522,13.4508 29.5051,23.4305 20.3932,33.8441 9.5458,52.0678 8.678,73.3288 9.9797,84.1763 12.5831,90.2508 21.261,103.7017 32.1085,110.2102 40.7864,113.2475 55.9729,111.5119 83.3085,103.7017 84.6102,100.6644 96.7593,86.3458 101.9661,75.4983 100.6644,50.7661 97.6271,33.8441 91.9864,23.8644 81.139,13.4508 75.0644,9.9797 62.0475,8.678 54.2373,10.8475" stroke="#00007f" stroke-width="2" /><polyline fill="none" points="29.0712,25.1661 49.8983,62.0475 66.8203,89.3831 75.4983,100.6644" stroke="#0080ff" stroke-width="2" /><polyline fill="none" points="36.0136,119.322 34.7119,107.6068 35.1458,88.5153 37.7492,77.2339 51.2,59.0102 69.4237,39.9186 79.4034,33.8441 92.8542,30.3729" stroke="#7cff79" stroke-width="2" /><polyline fill="none" points="60.3119,103.7017 62.0475,98.061 67.2542,91.1186 82.4407,73.3288" stroke="#ff9400" stroke-width="2" /><polyline fill="none" points="29.5051,62.4814 34.7119,52.5017 55.9729,25.6" stroke="#7f0000" stroke-width="2" /></svg>