<?xml version="1.0" encoding="utf-8" ?>
<svg baseProfile="tiny" height="128" version="1.2" viewBox="0,0,128,128" width="128" xmlns="http://www.w3.org/2000/svg" xmlns:ev="http://www.w3.org/2001/xml-events" xmlns:xlink="http://www.w3.org/1999/xlink"><defs /><polyline fill="none" points="70.7254,8.678 81.5729,11.7153 86.3458,16.922 94.5898,30.8068 98.4949,45.5593 98.9288,67.6881 97.1932,74.6305 91.1186,91.1186 82.0068,105.8712 76.3661,111.5119 62.4814,118.4542 47.2949,119.322 40.3525,115.4169 24.7322,100.6644 15.6203,86.3458 10.4136,70.2915 8.678,60.7458 9.9797,36.4475 14.3186,29.5051 19.5254,24.7322 27.3356,20.8271 42.522,19.0915 57.7085,19.0915 71.5932,22.1288 86.3458,29.5051 90.2508,33.4102 94.5898,37.7492 100.6644,49.0305 103.2678,64.2169 103.2678,82.0068 98.4949,99.7966" stroke="#00007f" stroke-width="2" /><polyline fill="none" points="42.522,26.4678 59.0102,63.3492 67.2542,89.8169 70.7254,97.1932" stroke="#7cff79" stroke-width="2" /><polyline fill="none" points="96.7593,45.9932 91.5525,50.3322 46.4271,77.6678 19.0915,98.9288" stroke="#7f0000" stroke-width="2" /></svg>