<?xml version="1.0" encoding="utf-8" ?>
<svg baseProfile="tiny" height="128" version="1.2" viewBox="0,0,128,128" width="128" xmlns="http://www.w3.org/2000/svg" xmlns:ev="http://www.w3.org/2001/xml-events" xmlns:xlink="http://www.w3.org/1999/xlink"><defs /><polyline fill="none" points="26.9017,10.4136 19.5254,16.4881 11.2814,31.6746 8.678,45.9932 9.1119,59.4441 16.4881,72.8949 21.6949,78.9695 29.5051,84.6102 46.861,91.5525 66.3864,92.8542 85.0441,89.3831 94.1559,85.9119 114.1153,72.461 117.5864,67.2542 118.8881,61.6136 119.322,48.5966 112.3797,35.5797 101.0983,23.4305 94.1559,18.6576 75.4983,11.2814 65.5186,9.1119 45.9932,8.678 36.8814,9.9797 29.0712,13.4508" stroke="#00007f" stroke-width="2" /><polyline fill="none" points="29.5051,9.9797 29.0712,13.8847 30.8068,22.1288 39.9186,45.9932 41.2203,64.2169 37.7492,78.5356 29.0712,88.9492" stroke="#7cff79" stroke-width="2" /><polyline fill="none" points="91.1186,12.5831 85.9119,12.5831 83.7424,14.3186 75.9322,24.2983 70.7254,38.1831 68.5559,55.9729 68.9898,69.8576 72.461,77.2339 80.7051,91.1186 88.5153,95.8915" stroke="#7f0000" stroke-width="2" /></svg>