<?xml version="1.0" encoding="utf-8" ?>
<svg baseProfile="tiny" height="128" version="1.2" viewBox="0,0,128,128" width="128" xmlns="http://www.w3.org/2000/svg" xmlns:ev="http://www.w3.org/2001/xml-events" xmlns:xlink="http://www.w3.org/1999/xlink"><defs /><polyline fill="none" points="76.8,29.0712 76.8,25.1661 73.3288,20.3932 65.0847,14.7525 57.2746,11.2814 46.4271,9.9797 29.5051,12.1492 22.1288,17.3559 17.3559,23.4305 10.8475,40.7864 8.678,52.9356 8.678,77.6678 11.7153,87.2136 19.0915,98.4949 29.5051,106.3051 53.8034,117.1525 65.9525,119.322 71.1593,118.8881 76.3661,113.6814 82.8746,102.8339 86.7797,91.9864 88.5153,77.2339 88.5153,44.6915 86.3458,36.4475 79.8373,27.3356" stroke="#00007f" stroke-width="2" /><polyline fill="none" points="37.7492,8.678 30.3729,55.539 19.0915,97.6271" stroke="#00d4ff" stroke-width="2" /><polyline fill="none" points="56.4068,9.9797 54.2373,14.7525 50.7661,37.7492 51.2,72.461 63.3492,99.3627 72.8949,108.4746 79.4034,111.5119" stroke="#ffe500" stroke-width="2" /><polyline fill="none" points="14.7525,31.2407 29.5051,40.7864 37.3153,44.2576" stroke="#7f0000" stroke-width="2" /></svg>