<?xml version="1.0" encoding="utf-8" ?>
<svg baseProfile="tiny" height="128" version="1.2" viewBox="0,0,128,128" width="128" xmlns="http://www.w3.org/2000/svg" xmlns:ev="http://www.w3.org/2001/xml-events" xmlns:xlink="http://www.w3.org/1999/xlink"><defs /><polyline fill="none" points="83.3085,13.8847 71.1593,8.678 60.7458,9.5458 47.7288,13.8847 34.7119,20.8271 26.0339,27.7695 18.6576,35.1458 13.0169,43.3898 9.5458,51.6339 8.678,59.878 9.5458,68.122 13.0169,75.0644 18.2237,81.139 26.0339,86.3458 41.2203,90.2508 63.7831,89.3831 86.7797,82.4407 98.061,76.3661 106.3051,70.2915 112.8136,63.7831 118.0203,53.8034 119.322,46.861 117.1525,38.1831 112.8136,32.1085 104.5695,24.2983 85.9119,15.6203 66.8203,12.5831" stroke="#00007f" stroke-width="2" /><polyline fill="none" points="32.9763,28.2034 41.2203,30.3729 48.1627,35.5797 52.0678,42.522 53.8034,50.7661 52.0678,62.4814 47.7288,73.7627 40.3525,86.3458 36.8814,89.8169" stroke="#0000f1" stroke-width="2" /><polyline fill="none" points="88.9492,13.8847 81.5729,22.5627 74.1966,36.4475 69.8576,49.0305 68.9898,57.2746 69.8576,64.2169 73.7627,72.0271 80.2712,76.3661 86.7797,76.3661" stroke="#004cff" stroke-width="2" /><polyline fill="none" points="72.8949,23.4305 88.5153,30.3729" stroke="#00b0ff" stroke-width="2" /><polyline fill="none" points="71.5932,45.5593 82.4407,46.861" stroke="#29ffcd" stroke-width="2" /><polyline fill="none" points="72.461,66.8203 79.4034,66.8203" stroke="#7cff79" stroke-width="2" /><polyline fill="none" points="72.461,78.5356 80.2712,75.0644 82.4407,72.0271" stroke="#cdff29" stroke-width="2" /><polyline fill="none" points="33.8441,35.5797 41.6542,29.939" stroke="#ffc400" stroke-width="2" /><polyline fill="none" points="34.278,46.4271 51.6339,42.9559" stroke="#ff6700" stroke-width="2" /><polyline fill="none" points="42.522,61.6136 49.4644,65.0847 59.0102,65.5186" stroke="#f10700" stroke-width="2" /><polyline fill="none" points="39.9186,73.7627 51.2,77.6678" stroke="#7f0000" stroke-width="2" /></svg>