<?xml version="1.0" encoding="utf-8" ?>
<svg baseProfile="tiny" height="128" version="1.2" viewBox="0,0,128,128" width="128" xmlns="http://www.w3.org/2000/svg" xmlns:ev="http://www.w3.org/2001/xml-events" xmlns:xlink="http://www.w3.org/1999/xlink"><defs /><polyline fill="none" points="71.4014,14.3673 61.3878,10.0136 53.1156,8.7075 34.8299,18.2857 24.8163,25.2517 16.9796,33.9592 10.8844,45.2789 8.7075,55.2925 9.1429,66.1769 23.9456,85.7687 36.5714,93.6054 48.7619,98.3946 68.3537,98.3946 90.1224,94.0408 105.7959,87.5102 114.9388,77.4966 118.8571,66.1769 119.2925,46.585 114.9388,37.0068 96.2177,20.0272 89.6871,15.6735 82.2857,13.0612" stroke="#00007f" stroke-width="2" /><polyline fill="none" points="38.3129,17.415 40.9252,53.1156 30.4762,71.8367 25.6871,77.932 23.0748,78.3673" stroke="#7cff79" stroke-width="2" /><polyline fill="none" points="97.0884,26.1224 90.5578,33.9592 80.9796,58.3401 80.5442,74.0136 88.8163,88.8163" stroke="#7f0000" stroke-width="2" /></svg>