<?xml version="1.0" encoding="utf-8" ?>
<svg baseProfile="tiny" height="128" version="1.2" viewBox="0,0,128,128" width="128" xmlns="http://www.w3.org/2000/svg" xmlns:ev="http://www.w3.org/2001/xml-events" xmlns:xlink="http://www.w3.org/1999/xlink"><defs /><polyline fill="none" points="89.6871,15.2381 60.517,9.1429 50.068,8.7075 43.102,11.3197 23.5102,26.1224 14.8027,38.3129 11.3197,45.7143 9.1429,56.1633 8.7075,66.6122 10.8844,74.449 14.8027,81.415 19.5918,87.5102 26.9932,93.1701 39.619,98.8299 52.2449,102.3129 64.0,103.1837 79.6735,100.1361 88.381,96.6531 96.2177,90.9932 111.0204,74.449 115.8095,66.1769 117.9864,58.7755 119.2925,41.7959 117.1156,34.8299 112.7619,27.8639" stroke="#00007f" stroke-width="2" /><polyline fill="none" points="83.1565,8.7075 78.3673,8.7075" stroke="#0000ff" stroke-width="2" /><polyline fill="none" points="85.7687,13.932 97.5238,16.5442 105.3605,22.2041 111.0204,27.8639 111.0204,30.0408" stroke="#0080ff" stroke-width="2" /><polyline fill="none" points="44.8435,13.0612 45.7143,30.4762 44.4082,44.4082 37.8776,66.1769 30.4762,83.5918" stroke="#15ffe1" stroke-width="2" /><polyline fill="none" points="76.1905,17.415 74.449,39.619 74.449,61.8231 75.3197,67.9184 78.3673,74.449 86.6395,83.5918 97.0884,87.0748 97.9592,85.7687 96.2177,82.7211" stroke="#7cff79" stroke-width="2" /><polyline fill="none" points="30.4762,35.7007 45.2789,37.4422 54.4218,37.0068" stroke="#e4ff12" stroke-width="2" /><polyline fill="none" points="33.9592,51.3741 53.551,52.2449" stroke="#ff9400" stroke-width="2" /><polyline fill="none" points="25.2517,68.7891 29.1701,70.0952 46.585,69.2245" stroke="#ff1d00" stroke-width="2" /><polyline fill="none" points="70.966,27.8639 72.2721,27.8639" stroke="#7f0000" stroke-width="2" /></svg>