<?xml version="1.0" encoding="utf-8" ?>
<svg baseProfile="tiny" height="128" version="1.2" viewBox="0,0,128,128" width="128" xmlns="http://www.w3.org/2000/svg" xmlns:ev="http://www.w3.org/2001/xml-events" xmlns:xlink="http://www.w3.org/1999/xlink"><defs /><polyline fill="none" points="81.8503,14.8027 66.1769,8.7075 53.9864,8.7075 33.5238,16.5442 24.8163,25.6871 16.1088,37.8776 8.7075,57.9048 9.1429,70.966 12.6259,78.8027 22.6395,89.2517 39.619,97.0884 47.8912,99.7007 76.6259,101.4422 94.0408,101.4422 100.1361,100.1361 111.0204,90.5578 116.2449,80.5442 118.8571,69.2245 119.2925,57.034 117.9864,51.8095 114.9388,43.9728 107.9728,34.3946 97.0884,26.1224 77.932,16.1088" stroke="#00007f" stroke-width="2" /><polyline fill="none" points="47.0204,11.3197 46.585,14.8027 49.1973,25.6871 43.9728,43.102 30.9116,64.4354 23.0748,73.1429 16.1088,77.932" stroke="#0080ff" stroke-width="2" /><polyline fill="none" points="93.6054,19.1565 84.4626,24.381 78.3673,29.1701 70.5306,42.2313 63.5646,74.449 64.8707,89.2517 69.2245,99.7007 69.6599,98.8299" stroke="#7cff79" stroke-width="2" /><polyline fill="none" points="57.034,84.4626 89.6871,82.2857" stroke="#ff9400" stroke-width="2" /><polyline fill="none" points="43.102,56.5986 67.483,56.5986" stroke="#7f0000" stroke-width="2" /></svg>