<?xml version="1.0" encoding="utf-8" ?>
<svg baseProfile="tiny" height="128" version="1.2" viewBox="0,0,128,128" width="128" xmlns="http://www.w3.org/2000/svg" xmlns:ev="http://www.w3.org/2001/xml-events" xmlns:xlink="http://www.w3.org/1999/xlink"><defs /><polyline fill="none" points="86.7797,13.4508 78.9695,10.8475 59.878,9.9797 50.7661,13.8847 39.9186,22.5627 24.2983,38.6169 15.1864,55.1051 9.9797,69.4237 8.678,77.6678 9.5458,88.5153 14.7525,99.3627 20.3932,105.4373 26.9017,110.2102 34.278,113.2475 49.0305,115.8508 64.2169,116.7186 69.8576,115.4169 79.4034,110.2102 95.8915,95.0237 105.0034,81.139 109.3424,67.2542 108.4746,49.4644 103.7017,36.4475 96.3254,24.7322 92.8542,20.3932 85.9119,15.6203 78.9695,13.8847 71.5932,13.8847" stroke="#00007f" stroke-width="2" /><polyline fill="none" points="32.9763,30.8068 44.6915,38.1831 47.7288,41.6542 50.7661,49.0305 52.5017,61.1797 54.6712,79.8373 54.2373,91.9864 49.4644,110.6441 45.5593,119.322" stroke="#00d4ff" stroke-width="2" /><polyline fill="none" points="66.3864,8.678 63.3492,31.6746 66.3864,69.8576 61.6136,118.8881" stroke="#ffe500" stroke-width="2" /><polyline fill="none" points="105.0034,53.3695 103.2678,51.2 98.061,51.6339 90.2508,58.1424 83.3085,69.4237 80.2712,80.2712 79.4034,91.5525 80.7051,93.722 86.3458,98.9288 94.1559,100.6644" stroke="#7f0000" stroke-width="2" /></svg>