<?xml version="1.0" encoding="utf-8" ?>
<svg baseProfile="tiny" height="128" version="1.2" viewBox="0,0,128,128" width="128" xmlns="http://www.w3.org/2000/svg" xmlns:ev="http://www.w3.org/2001/xml-events" xmlns:xlink="http://www.w3.org/1999/xlink"><defs /><polyline fill="none" points="67.6881,10.4136 55.1051,10.4136 45.1254,8.678 23.8644,9.5458 16.922,16.0542 13.4508,22.9966 9.9797,33.8441 8.678,47.7288 9.1119,69.4237 14.7525,85.9119 23.8644,103.2678 39.9186,111.078 69.8576,111.9458 75.0644,108.9085 82.0068,100.2305 85.478,91.9864 86.7797,85.478 86.7797,51.6339 82.0068,33.8441 77.2339,23.8644 73.7627,19.0915 68.9898,16.4881 51.2,10.8475 48.5966,15.1864 46.861,24.2983 47.7288,65.0847 62.9153,116.2847 63.3492,119.322 60.7458,116.7186" stroke="#00007f" stroke-width="2" /><polyline fill="none" points="12.1492,76.3661 42.522,80.7051 52.0678,80.7051 61.6136,76.8 83.7424,60.3119 85.0441,58.1424 85.0441,53.3695 82.0068,49.4644" stroke="#7cff79" stroke-width="2" /><polyline fill="none" points="68.5559,25.1661 64.6508,25.6 56.4068,32.9763 39.9186,52.0678 36.0136,59.878 30.8068,77.6678" stroke="#7f0000" stroke-width="2" /></svg>