<?xml version="1.0" encoding="utf-8" ?>
<svg baseProfile="tiny" height="128" version="1.2" viewBox="0,0,128,128" width="128" xmlns="http://www.w3.org/2000/svg" xmlns:ev="http://www.w3.org/2001/xml-events" xmlns:xlink="http://www.w3.org/1999/xlink"><defs /><polyline fill="none" points="62.2585,10.449 58.7755,9.5782 49.6327,13.0612 32.2177,24.8163 18.7211,42.2313 11.7551,54.8571 8.7075,69.2245 9.1429,88.381 14.8027,100.5714 23.0748,108.4082 28.2993,111.4558 44.8435,115.3741 61.8231,115.8095 71.8367,114.5034 83.5918,110.1497 94.0408,104.0544 101.4422,97.9592 111.4558,85.3333 116.6803,74.449 118.8571,66.6122 119.2925,43.5374 115.3741,33.9592 109.2789,25.6871 101.0068,18.2857 93.1701,14.8027 67.9184,8.7075 58.3401,8.7075" stroke="#00007f" stroke-width="2" /><polyline fill="none" points="68.7891,13.0612 73.5782,16.5442 80.1088,27.4286 86.6395,44.8435 87.5102,53.9864 81.415,66.6122 64.0,84.4626 52.2449,101.0068 50.5034,110.1497 51.8095,117.551" stroke="#7f0000" stroke-width="2" /></svg>