<?xml version="1.0" encoding="utf-8" ?>
<svg baseProfile="tiny" height="128" version="1.2" viewBox="0,0,128,128" width="128" xmlns="http://www.w3.org/2000/svg" xmlns:ev="http://www.w3.org/2001/xml-events" xmlns:xlink="http://www.w3.org/1999/xlink"><defs /><polyline fill="none" points="36.8814,11.7153 29.0712,16.0542 22.1288,23.8644 13.0169,39.0508 8.678,57.2746 9.1119,75.4983 12.5831,85.9119 20.3932,95.8915 36.0136,111.5119 47.7288,119.322 77.6678,116.2847 82.4407,113.2475 87.2136,107.1729 92.8542,97.1932 96.7593,83.3085 99.7966,65.9525 98.9288,49.4644 87.6475,29.939 81.5729,22.5627 73.7627,17.3559 50.3322,12.5831 38.1831,12.1492 17.7898,8.678" stroke="#00007f" stroke-width="2" /><polyline fill="none" points="29.5051,15.1864 32.1085,53.3695 32.5424,99.3627" stroke="#7cff79" stroke-width="2" /><polyline fill="none" points="74.1966,17.3559 67.6881,70.2915 69.4237,102.4 73.7627,113.2475" stroke="#7f0000" stroke-width="2" /></svg>