<?xml version="1.0" encoding="utf-8" ?>
<svg baseProfile="tiny" height="128" version="1.2" viewBox="0,0,128,128" width="128" xmlns="http://www.w3.org/2000/svg" xmlns:ev="http://www.w3.org/2001/xml-events" xmlns:xlink="http://www.w3.org/1999/xlink"><defs /><polyline fill="none" points="44.6915,8.678 30.3729,26.9017 12.5831,58.1424 9.5458,67.6881 8.678,89.3831 18.6576,104.1356 27.7695,110.6441 34.7119,112.8136 59.4441,113.6814 77.2339,104.5695 94.1559,91.9864 103.2678,79.8373 104.1356,63.3492 98.9288,44.2576 94.5898,34.7119 85.9119,20.3932 76.8,10.4136 61.6136,9.5458 44.2576,12.5831 40.7864,12.5831 40.7864,11.2814" stroke="#00007f" stroke-width="2" /><polyline fill="none" points="40.3525,17.7898 48.1627,40.3525 52.5017,58.5763 54.6712,81.5729 49.0305,98.061 39.9186,109.7763 36.8814,119.322" stroke="#004cff" stroke-width="2" /><polyline fill="none" points="92.8542,14.7525 89.3831,17.3559 86.7797,48.5966 86.7797,76.3661 93.2881,91.9864" stroke="#29ffcd" stroke-width="2" /><polyline fill="none" points="43.8237,36.0136 47.7288,32.9763 56.8407,30.8068" stroke="#cdff29" stroke-width="2" /><polyline fill="none" points="50.7661,73.3288 57.7085,71.5932" stroke="#ff6700" stroke-width="2" /><polyline fill="none" points="37.7492,94.1559 37.7492,94.1559" stroke="#7f0000" stroke-width="2" /></svg>