<?xml version="1.0" encoding="utf-8" ?>
<svg baseProfile="tiny" height="128" version="1.2" viewBox="0,0,128,128" width="128" xmlns="http://www.w3.org/2000/svg" xmlns:ev="http://www.w3.org/2001/xml-events" xmlns:xlink="http://www.w3.org/1999/xlink"><defs /><polyline fill="none" points="81.5729,9.9797 73.3288,8.678 44.2576,9.1119 33.4102,14.3186 25.6,19.5254 19.5254,25.6 13.4508,36.4475 9.1119,50.3322 8.678,64.6508 11.2814,70.2915 19.9593,79.8373 30.3729,85.9119 45.5593,92.4203 58.1424,94.1559 84.1763,94.1559 94.1559,92.8542 107.1729,87.6475 114.1153,79.8373 118.4542,68.122 119.322,52.9356 118.4542,48.1627 107.6068,32.1085 85.478,13.4508 78.1017,10.8475" stroke="#00007f" stroke-width="2" /><polyline fill="none" points="36.4475,13.8847 41.6542,19.5254 47.7288,35.1458 48.1627,39.9186 48.1627,55.539 41.6542,75.0644 36.8814,82.4407" stroke="#00d4ff" stroke-width="2" /><polyline fill="none" points="90.2508,92.8542 83.7424,83.3085 81.139,75.9322 77.6678,67.6881 75.9322,58.1424 76.3661,37.7492 82.4407,24.2983 86.3458,12.1492" stroke="#ffe500" stroke-width="2" /><polyline fill="none" points="74.1966,21.6949 84.1763,27.7695 94.1559,30.3729" stroke="#7f0000" stroke-width="2" /></svg>