<?xml version="1.0" encoding="utf-8" ?>
<svg baseProfile="tiny" height="128" version="1.2" viewBox="0,0,128,128" width="128" xmlns="http://www.w3.org/2000/svg" xmlns:ev="http://www.w3.org/2001/xml-events" xmlns:xlink="http://www.w3.org/1999/xlink"><defs /><polyline fill="none" points="93.722,24.7322 86.3458,23.4305 81.5729,26.0339 75.4983,33.4102 72.0271,41.6542 71.5932,55.9729 75.4983,62.0475 82.4407,67.2542 93.722,70.7254 109.3424,69.8576 114.5492,67.2542 119.322,59.0102 119.322,46.4271 115.8508,36.8814 111.5119,28.6373 108.0407,26.0339 100.2305,23.4305 89.8169,22.5627" stroke="#00007f" stroke-width="2" /><polyline fill="none" points="15.6203,94.1559 9.9797,95.4576 8.678,98.061 9.9797,100.2305 17.3559,102.4 23.8644,101.0983 23.4305,96.7593 32.9763,82.8746 40.3525,64.2169 49.4644,45.5593 57.2746,24.2983 59.878,10.8475 45.9932,8.678 42.0881,9.5458 29.0712,39.0508 19.9593,68.9898 17.3559,89.8169 19.9593,87.6475" stroke="#7f0000" stroke-width="2" /></svg>