<?xml version="1.0" encoding="utf-8" ?>
<svg baseProfile="tiny" height="128" version="1.2" viewBox="0,0,128,128" width="128" xmlns="http://www.w3.org/2000/svg" xmlns:ev="http://www.w3.org/2001/xml-events" xmlns:xlink="http://www.w3.org/1999/xlink"><defs /><polyline fill="none" points="48.1627,12.5831 40.3525,15.6203 28.2034,22.9966 15.1864,33.4102 11.7153,38.1831 8.678,53.3695 8.678,75.9322 9.9797,83.3085 16.4881,94.5898 25.6,101.9661 40.3525,110.2102 54.2373,114.5492 72.0271,114.9831 81.139,113.2475 89.8169,108.4746 103.2678,96.7593 110.2102,88.0814 116.7186,75.4983 119.322,66.3864 119.322,50.3322 111.5119,34.278 104.1356,24.2983 97.6271,18.2237 89.8169,13.0169 76.3661,8.678 47.2949,8.678 39.0508,10.8475 26.4678,16.922 23.4305,21.6949" stroke="#00007f" stroke-width="2" /><polyline fill="none" points="82.8746,111.5119 76.3661,101.0983 71.5932,88.0814 70.2915,52.0678 75.4983,36.4475 81.5729,27.7695 86.7797,23.8644 98.061,19.0915" stroke="#00d4ff" stroke-width="2" /><polyline fill="none" points="35.5797,16.922 40.7864,23.8644 49.0305,43.3898 54.2373,61.1797 55.539,69.8576 44.2576,90.6847 34.7119,105.4373 26.0339,109.3424" stroke="#ffe500" stroke-width="2" /><polyline fill="none" points="39.9186,103.2678 38.1831,104.5695 42.522,96.3254 45.9932,85.0441 37.3153,90.6847 33.4102,95.0237" stroke="#7f0000" stroke-width="2" /></svg>