<?xml version="1.0" encoding="utf-8" ?>
<svg baseProfile="tiny" height="128" version="1.2" viewBox="0,0,128,128" width="128" xmlns="http://www.w3.org/2000/svg" xmlns:ev="http://www.w3.org/2001/xml-events" xmlns:xlink="http://www.w3.org/1999/xlink"><defs /><polyline fill="none" points="69.8576,11.7153 66.3864,9.9797 52.0678,8.678 35.5797,17.7898 25.1661,26.9017 11.7153,46.4271 8.678,65.0847 9.9797,75.9322 15.1864,82.4407 25.6,89.8169 45.1254,97.6271 69.4237,101.9661 99.7966,101.5322 108.9085,96.7593 115.4169,87.6475 118.4542,76.3661 119.322,53.8034 112.8136,45.5593 100.2305,34.278 71.1593,18.6576 67.6881,16.0542 65.9525,12.5831" stroke="#00007f" stroke-width="2" /><polyline fill="none" points="32.9763,22.5627 35.1458,22.9966 36.0136,26.0339 37.7492,26.9017 38.1831,30.3729 44.6915,36.8814 35.1458,45.9932 34.278,52.9356 35.1458,56.4068 31.6746,59.878 32.1085,61.6136 39.9186,66.8203 40.7864,68.5559 36.8814,69.8576 34.7119,73.7627 34.278,79.8373 27.3356,85.0441" stroke="#7cff79" stroke-width="2" /><polyline fill="none" points="82.0068,29.0712 76.8,31.6746 78.1017,33.8441 95.8915,44.2576 85.478,47.2949 87.2136,51.6339 84.1763,54.6712 88.0814,68.9898 92.8542,73.3288 92.4203,77.2339 100.6644,83.7424 104.5695,94.1559" stroke="#7f0000" stroke-width="2" /></svg>