<?xml version="1.0" encoding="utf-8" ?>
<svg baseProfile="tiny" height="128" version="1.2" viewBox="0,0,128,128" width="128" xmlns="http://www.w3.org/2000/svg" xmlns:ev="http://www.w3.org/2001/xml-events" xmlns:xlink="http://www.w3.org/1999/xlink"><defs /><polyline fill="none" points="38.1831,8.678 29.0712,16.922 20.8271,27.7695 10.8475,45.1254 9.5458,51.2 8.678,88.0814 13.0169,94.1559 24.2983,101.9661 33.8441,107.1729 41.2203,108.0407 85.0441,108.0407 92.8542,106.3051 98.061,102.8339 113.2475,86.3458 119.322,73.3288 119.322,57.2746 117.1525,50.3322 111.5119,42.522 103.2678,33.8441 92.8542,20.8271 84.6102,14.7525 74.6305,13.8847 63.3492,15.6203 43.3898,15.6203 40.3525,16.922" stroke="#00007f" stroke-width="2" /><polyline fill="none" points="38.1831,17.7898 41.2203,40.3525 41.2203,62.4814 36.8814,78.1017 34.278,83.7424 33.8441,88.9492 26.9017,98.061" stroke="#7cff79" stroke-width="2" /><polyline fill="none" points="72.461,24.7322 72.461,24.7322" stroke="#7f0000" stroke-width="2" /></svg>