<?xml version="1.0" encoding="utf-8" ?>
<svg baseProfile="tiny" height="128" version="1.2" viewBox="0,0,128,128" width="128" xmlns="http://www.w3.org/2000/svg" xmlns:ev="http://www.w3.org/2001/xml-events" xmlns:xlink="http://www.w3.org/1999/xlink"><defs /><polyline fill="none" points="17.9113,37.1331 18.785,28.8328 23.1536,11.7952 26.6485,13.1058 39.3174,40.628 42.8123,41.0648 44.5597,37.1331" stroke="#00007f" stroke-width="2" /><polyline fill="none" points="44.5597,36.6962 51.5495,34.9488 62.9078,34.9488 65.9659,31.4539 72.0819,8.7372 71.6451,16.6007 80.8191,30.5802 83.0034,38.0068 83.0034,64.6553 81.256,68.1502 75.5768,70.3345 48.0546,73.8294 44.5597,72.5188 42.3754,68.587 8.7372,35.8225" stroke="#0000ff" stroke-width="2" /><polyline fill="none" points="50.6758,52.4232 50.6758,52.4232" stroke="#0080ff" stroke-width="2" /><polyline fill="none" points="44.5597,44.5597 44.5597,44.5597" stroke="#15ffe1" stroke-width="2" /><polyline fill="none" points="55.0444,55.9181 55.0444,55.9181" stroke="#7cff79" stroke-width="2" /><polyline fill="none" points="70.3345,52.4232 89.9932,43.686 107.4676,38.8805 119.2628,37.1331" stroke="#e4ff12" stroke-width="2" /><polyline fill="none" points="77.3242,58.5392 97.4198,55.9181 117.0785,55.9181 117.0785,57.2287" stroke="#ff9400" stroke-width="2" /><polyline fill="none" points="65.9659,59.413 94.3618,70.7713 115.3311,76.0137" stroke="#ff1d00" stroke-width="2" /><polyline fill="none" points="43.686,39.3174 33.2014,50.6758 22.2799,65.0922" stroke="#7f0000" stroke-width="2" /></svg>