<?xml version="1.0" encoding="utf-8" ?>
<svg baseProfile="tiny" height="128" version="1.2" viewBox="0,0,128,128" width="128" xmlns="http://www.w3.org/2000/svg" xmlns:ev="http://www.w3.org/2001/xml-events" xmlns:xlink="http://www.w3.org/1999/xlink"><defs /><polyline fill="none" points="15.1864,52.9356 11.2814,59.0102 11.2814,74.1966 14.3186,84.6102 20.3932,94.5898 27.7695,103.2678 37.7492,110.6441 49.4644,116.2847 68.9898,119.322 77.2339,118.8881 82.4407,115.4169 88.0814,108.4746 91.5525,99.3627 92.4203,82.0068 84.1763,61.1797 80.2712,55.9729 72.0271,48.5966 65.5186,45.1254 58.1424,43.3898 42.522,42.9559 30.8068,47.2949 24.2983,52.5017" stroke="#00007f" stroke-width="2" /><polyline fill="none" points="16.0542,65.5186 8.678,23.8644 14.3186,25.6 29.939,42.0881" stroke="#0028ff" stroke-width="2" /><polyline fill="none" points="64.2169,42.9559 77.6678,8.678 80.7051,13.8847 80.7051,61.6136" stroke="#00d4ff" stroke-width="2" /><polyline fill="none" points="52.0678,84.1763 53.8034,88.9492 50.3322,94.1559 41.6542,98.4949 36.4475,99.7966" stroke="#7cff79" stroke-width="2" /><polyline fill="none" points="59.0102,85.9119 64.6508,91.5525 71.5932,95.4576 77.6678,95.0237" stroke="#ffe500" stroke-width="2" /><polyline fill="none" points="29.939,75.0644 29.939,75.0644" stroke="#ff4600" stroke-width="2" /><polyline fill="none" points="65.9525,71.1593 65.9525,71.1593" stroke="#7f0000" stroke-width="2" /></svg>