<?xml version="1.0" encoding="utf-8" ?>
<svg baseProfile="tiny" height="128" version="1.2" viewBox="0,0,128,128" width="128" xmlns="http://www.w3.org/2000/svg" xmlns:ev="http://www.w3.org/2001/xml-events" xmlns:xlink="http://www.w3.org/1999/xlink"><defs /><polyline fill="none" points="46.4271,24.2983 45.5593,20.3932 38.6169,9.9797 34.7119,8.678 36.4475,26.0339 38.1831,32.1085 40.7864,34.7119" stroke="#00007f" stroke-width="2" /><polyline fill="none" points="49.4644,26.9017 49.8983,24.7322 52.9356,22.1288 62.4814,20.3932 70.7254,22.1288 82.0068,28.6373 83.7424,28.2034 84.6102,21.261 88.9492,13.0169 96.3254,9.1119 97.1932,16.922 91.1186,36.8814" stroke="#0000de" stroke-width="2" /><polyline fill="none" points="41.2203,34.7119 37.3153,37.7492 32.9763,47.7288 30.3729,59.4441 30.8068,71.1593 36.0136,80.7051 44.2576,85.478 49.4644,85.9119 80.7051,85.0441 87.6475,83.3085 97.1932,76.8 101.5322,68.122 102.8339,50.7661 96.3254,35.5797 92.8542,35.1458" stroke="#0028ff" stroke-width="2" /><polyline fill="none" points="47.2949,45.9932 48.1627,42.0881 51.6339,42.0881 52.0678,49.8983 48.5966,51.6339 46.861,48.5966 46.861,45.1254 50.3322,42.522" stroke="#0080ff" stroke-width="2" /><polyline fill="none" points="75.4983,49.8983 73.7627,48.1627 74.1966,42.9559 79.4034,41.2203 82.0068,45.5593 82.4407,51.6339 78.5356,52.0678 75.9322,49.4644 75.4983,41.2203 77.2339,38.6169" stroke="#00d4ff" stroke-width="2" /><polyline fill="none" points="58.1424,62.9153 60.3119,60.7458 65.5186,60.7458 65.5186,63.3492 61.6136,65.0847 59.4441,64.6508 58.1424,60.7458" stroke="#36ffc0" stroke-width="2" /><polyline fill="none" points="51.2,74.6305 54.2373,77.2339 59.4441,76.3661 63.3492,64.2169 63.3492,68.9898 65.5186,74.1966 69.4237,76.3661 74.1966,75.9322 77.6678,72.8949 78.1017,67.6881" stroke="#7cff79" stroke-width="2" /><polyline fill="none" points="44.6915,59.878 22.9966,52.9356 11.7153,52.5017 8.678,53.8034" stroke="#c0ff36" stroke-width="2" /><polyline fill="none" points="42.0881,72.0271 21.261,79.8373" stroke="#ffe500" stroke-width="2" /><polyline fill="none" points="42.522,77.6678 35.1458,84.6102 28.2034,95.4576" stroke="#ff9400" stroke-width="2" /><polyline fill="none" points="93.722,54.2373 102.4,48.5966 117.1525,45.5593" stroke="#ff4600" stroke-width="2" /><polyline fill="none" points="93.722,69.4237 103.7017,63.7831 107.1729,63.3492" stroke="#de0000" stroke-width="2" /><polyline fill="none" points="89.3831,74.1966 119.322,78.5356" stroke="#7f0000" stroke-width="2" /></svg>