<?xml version="1.0" encoding="utf-8" ?>
<svg baseProfile="tiny" height="128" version="1.2" viewBox="0,0,128,128" width="128" xmlns="http://www.w3.org/2000/svg" xmlns:ev="http://www.w3.org/2001/xml-events" xmlns:xlink="http://www.w3.org/1999/xlink"><defs /><polyline fill="none" points="104.1356,49.0305 106.739,49.4644 108.9085,52.0678 115.8508,64.2169 118.4542,71.5932 117.1525,84.1763 109.3424,97.1932 97.1932,107.1729 83.3085,113.6814 60.3119,115.4169 47.7288,112.3797 33.4102,103.2678 29.939,99.3627 25.1661,91.5525 21.6949,82.8746 21.261,60.7458 26.0339,51.2 32.9763,42.522 42.0881,36.0136 52.9356,32.1085 65.0847,30.8068 77.2339,31.2407 94.5898,38.6169 109.3424,50.7661" stroke="#00007f" stroke-width="2" /><polyline fill="none" points="87.2136,32.1085 95.8915,23.4305 102.8339,19.0915 119.322,17.7898 118.4542,43.8237 116.7186,50.7661" stroke="#0010ff" stroke-width="2" /><polyline fill="none" points="52.9356,32.9763 46.861,24.7322 43.3898,21.6949 19.5254,10.8475 9.5458,8.678 8.678,16.4881 13.4508,34.278 18.2237,46.861 22.9966,50.7661" stroke="#00a4ff" stroke-width="2" /><polyline fill="none" points="33.4102,41.6542 28.2034,37.7492 26.9017,34.278" stroke="#3fffb7" stroke-width="2" /><polyline fill="none" points="32.5424,40.3525 25.1661,38.6169 19.0915,33.4102 13.8847,22.9966 13.4508,10.4136" stroke="#b7ff3f" stroke-width="2" /><polyline fill="none" points="101.0983,45.1254 108.4746,40.3525 111.9458,36.0136 114.1153,27.7695 113.6814,22.1288 112.3797,19.9593" stroke="#ffb900" stroke-width="2" /><polyline fill="none" points="39.9186,65.5186 44.6915,56.8407 48.5966,54.2373 61.1797,53.8034 65.5186,56.4068 65.5186,60.7458 62.4814,64.6508 57.2746,68.5559 45.5593,70.7254 42.0881,67.2542" stroke="#ff3000" stroke-width="2" /><polyline fill="none" points="78.5356,61.1797 79.4034,56.4068 84.6102,53.3695 93.2881,52.0678 97.1932,53.8034 105.4373,60.3119 101.5322,67.6881 97.6271,69.4237" stroke="#7f0000" stroke-width="2" /></svg>