<?xml version="1.0" encoding="utf-8" ?>
<svg baseProfile="tiny" height="128" version="1.2" viewBox="0,0,128,128" width="128" xmlns="http://www.w3.org/2000/svg" xmlns:ev="http://www.w3.org/2001/xml-events" xmlns:xlink="http://www.w3.org/1999/xlink"><defs /><polyline fill="none" points="106.3051,23.8644 105.4373,16.922 100.2305,10.4136 93.2881,21.6949" stroke="#00007f" stroke-width="2" /><polyline fill="none" points="93.2881,21.6949 86.7797,11.7153 80.7051,8.678 72.8949,22.1288" stroke="#0000de" stroke-width="2" /><polyline fill="none" points="72.8949,22.5627 67.6881,24.7322 63.3492,29.5051 63.3492,38.1831 65.5186,41.6542 75.0644,48.1627 86.7797,52.9356 96.3254,54.6712 103.2678,54.6712 114.1153,48.1627 119.322,32.9763 119.322,29.0712 117.5864,26.4678 101.9661,24.7322" stroke="#0028ff" stroke-width="2" /><polyline fill="none" points="98.4949,34.278 108.0407,35.1458 111.078,38.6169" stroke="#0080ff" stroke-width="2" /><polyline fill="none" points="102.8339,39.4847 108.9085,43.8237" stroke="#00d4ff" stroke-width="2" /><polyline fill="none" points="85.0441,34.7119 76.3661,34.7119 75.4983,37.3153" stroke="#36ffc0" stroke-width="2" /><polyline fill="none" points="85.0441,40.3525 78.1017,42.9559" stroke="#7cff79" stroke-width="2" /><polyline fill="none" points="85.0441,29.0712 87.2136,31.6746 85.9119,32.5424 85.478,29.939 86.7797,29.5051" stroke="#c0ff36" stroke-width="2" /><polyline fill="none" points="95.8915,32.5424 98.4949,30.3729 98.4949,32.9763 95.8915,32.5424" stroke="#ffe500" stroke-width="2" /><polyline fill="none" points="87.2136,37.7492 87.6475,42.0881 89.3831,45.5593 91.1186,45.5593 91.9864,42.0881 93.722,45.5593 96.7593,45.5593 97.6271,42.0881 95.8915,40.3525" stroke="#ff9400" stroke-width="2" /><polyline fill="none" points="93.2881,33.4102 93.2881,33.4102" stroke="#ff4600" stroke-width="2" /><polyline fill="none" points="63.7831,26.9017 58.1424,24.7322 29.0712,26.0339 18.2237,29.5051 13.8847,32.5424 11.2814,37.3153 10.4136,43.8237 11.2814,50.3322 14.7525,54.2373 22.5627,57.7085 42.0881,60.3119 72.461,51.2 76.3661,44.6915" stroke="#de0000" stroke-width="2" /><polyline fill="none" points="8.678,34.7119 10.8475,33.8441 10.8475,31.2407" stroke="#7f0000" stroke-width="2" /></svg>