<?xml version="1.0" encoding="utf-8" ?>
<svg baseProfile="tiny" height="128" version="1.2" viewBox="0,0,128,128" width="128" xmlns="http://www.w3.org/2000/svg" xmlns:ev="http://www.w3.org/2001/xml-events" xmlns:xlink="http://www.w3.org/1999/xlink"><defs /><polyline fill="none" points="37.3153,43.3898 42.9559,9.5458 47.2949,11.7153 52.0678,19.5254 59.878,39.9186" stroke="#00007f" stroke-width="2" /><polyline fill="none" points="75.0644,37.3153 75.0644,32.9763 84.6102,8.678 88.9492,12.1492 98.4949,31.2407" stroke="#0000cc" stroke-width="2" /><polyline fill="none" points="75.0644,36.4475 59.878,36.4475" stroke="#0008ff" stroke-width="2" /><polyline fill="none" points="33.8441,40.7864 30.3729,45.1254 25.1661,49.0305 19.0915,58.5763 19.0915,66.8203 23.4305,70.2915 29.939,73.3288 61.6136,79.4034 88.9492,78.5356 101.9661,73.7627 108.9085,65.5186 113.2475,56.8407 112.3797,52.0678 107.1729,49.0305 97.6271,29.5051" stroke="#004cff" stroke-width="2" /><polyline fill="none" points="87.2136,58.1424 103.7017,57.2746 108.0407,55.539 117.5864,54.6712 119.322,50.3322" stroke="#0090ff" stroke-width="2" /><polyline fill="none" points="83.7424,49.4644 93.2881,43.3898 106.3051,38.1831" stroke="#00d4ff" stroke-width="2" /><polyline fill="none" points="90.6847,66.3864 105.4373,65.5186" stroke="#29ffcd" stroke-width="2" /><polyline fill="none" points="60.7458,52.0678 60.7458,52.0678" stroke="#5fff96" stroke-width="2" /><polyline fill="none" points="59.878,53.8034 59.0102,53.8034" stroke="#96ff5f" stroke-width="2" /><polyline fill="none" points="71.5932,51.2 71.5932,51.2" stroke="#cdff29" stroke-width="2" /><polyline fill="none" points="71.5932,52.9356 71.5932,52.9356" stroke="#ffe500" stroke-width="2" /><polyline fill="none" points="72.461,55.539 73.3288,55.539" stroke="#ffa600" stroke-width="2" /><polyline fill="none" points="38.1831,59.878 32.1085,54.6712 8.678,47.7288" stroke="#ff6700" stroke-width="2" /><polyline fill="none" points="33.8441,64.6508 19.9593,67.2542 9.5458,67.2542" stroke="#ff2800" stroke-width="2" /><polyline fill="none" points="36.4475,71.5932 21.6949,82.0068" stroke="#cc0000" stroke-width="2" /><polyline fill="none" points="54.6712,65.5186 59.0102,63.3492" stroke="#7f0000" stroke-width="2" /></svg>