<?xml version="1.0" encoding="utf-8" ?>
<svg baseProfile="tiny" height="128" version="1.2" viewBox="0,0,128,128" width="128" xmlns="http://www.w3.org/2000/svg" xmlns:ev="http://www.w3.org/2001/xml-events" xmlns:xlink="http://www.w3.org/1999/xlink"><defs /><polyline fill="none" points="67.2542,39.0508 65.9525,32.9763 62.0475,27.3356 57.2746,27.3356 53.3695,29.0712 48.1627,34.7119 45.5593,41.6542 43.8237,51.2 43.8237,57.7085 45.5593,60.3119 50.7661,65.5186 56.4068,68.122 64.6508,68.5559 67.6881,68.122 70.2915,65.0847 74.1966,55.1051 74.1966,46.861 70.7254,39.9186 65.5186,36.4475" stroke="#00007f" stroke-width="2" /><polyline fill="none" points="71.5932,39.9186 72.8949,8.678 62.0475,24.7322 57.2746,34.278" stroke="#0000d5" stroke-width="2" /><polyline fill="none" points="49.0305,32.9763 41.6542,13.0169 39.9186,39.4847 42.0881,43.8237" stroke="#001cff" stroke-width="2" /><polyline fill="none" points="60.7458,54.6712 59.4441,56.8407 61.1797,58.1424 61.1797,56.4068" stroke="#006cff" stroke-width="2" /><polyline fill="none" points="57.7085,54.2373 49.0305,50.3322" stroke="#00b8ff" stroke-width="2" /><polyline fill="none" points="63.7831,54.6712 69.4237,51.2" stroke="#1cffda" stroke-width="2" /><polyline fill="none" points="60.3119,60.3119 58.1424,59.0102 53.3695,60.3119" stroke="#5cff9a" stroke-width="2" /><polyline fill="none" points="63.7831,56.8407 65.5186,59.878" stroke="#9aff5c" stroke-width="2" /><polyline fill="none" points="58.1424,39.9186 56.8407,40.3525" stroke="#daff1c" stroke-width="2" /><polyline fill="none" points="62.4814,40.3525 64.2169,40.7864" stroke="#ffcb00" stroke-width="2" /><polyline fill="none" points="41.2203,62.4814 39.4847,65.9525 22.9966,70.7254 10.4136,69.4237 8.678,72.8949 15.1864,86.3458 21.261,92.8542 29.0712,95.8915 33.4102,95.4576 42.522,90.2508 60.3119,65.5186" stroke="#ff8500" stroke-width="2" /><polyline fill="none" points="42.9559,86.3458 45.1254,85.478 49.8983,116.2847" stroke="#ff3b00" stroke-width="2" /><polyline fill="none" points="29.939,99.3627 26.4678,119.322" stroke="#d50000" stroke-width="2" /><polyline fill="none" points="18.2237,88.0814 9.9797,109.7763" stroke="#7f0000" stroke-width="2" /></svg>