<?xml version="1.0" encoding="utf-8" ?>
<svg baseProfile="tiny" height="128" version="1.2" viewBox="0,0,128,128" width="128" xmlns="http://www.w3.org/2000/svg" xmlns:ev="http://www.w3.org/2001/xml-events" xmlns:xlink="http://www.w3.org/1999/xlink"><defs /><polyline fill="none" points="32.1085,36.4475 33.8441,22.5627 38.1831,8.678 45.9932,19.0915 52.5017,32.1085 61.1797,30.3729 81.5729,30.8068 94.5898,9.9797 111.078,46.861 111.5119,57.2746 108.0407,65.0847 103.7017,70.2915 95.8915,75.0644 86.3458,77.2339 71.1593,77.2339 57.2746,72.0271 51.2,68.122 41.6542,58.1424 34.7119,47.7288 32.9763,39.9186 36.4475,36.0136" stroke="#00007f" stroke-width="2" /><polyline fill="none" points="57.2746,54.6712 62.4814,63.7831 65.0847,63.3492 70.2915,55.539 73.7627,63.7831 75.9322,65.9525 77.6678,65.9525 83.3085,60.7458 84.6102,51.2" stroke="#0000fe" stroke-width="2" /><polyline fill="none" points="49.8983,41.2203 49.8983,41.2203" stroke="#0060ff" stroke-width="2" /><polyline fill="none" points="51.6339,42.9559 52.5017,42.522" stroke="#00d4ff" stroke-width="2" /><polyline fill="none" points="78.9695,42.9559 79.4034,45.5593 80.2712,42.522" stroke="#4cffaa" stroke-width="2" /><polyline fill="none" points="71.5932,51.2 68.9898,52.0678 72.461,52.5017 70.7254,52.0678 68.9898,54.2373 71.5932,52.9356 70.7254,51.6339" stroke="#aaff4c" stroke-width="2" /><polyline fill="none" points="90.6847,59.0102 115.4169,55.1051" stroke="#ffe500" stroke-width="2" /><polyline fill="none" points="98.061,50.3322 110.6441,48.5966 119.322,43.3898" stroke="#ff7a00" stroke-width="2" /><polyline fill="none" points="41.2203,51.6339 21.6949,52.5017 8.678,54.6712" stroke="#fe1200" stroke-width="2" /><polyline fill="none" points="38.1831,55.1051 13.4508,61.6136" stroke="#7f0000" stroke-width="2" /></svg>