<?xml version="1.0" encoding="utf-8" ?>
<svg baseProfile="tiny" height="128" version="1.2" viewBox="0,0,128,128" width="128" xmlns="http://www.w3.org/2000/svg" xmlns:ev="http://www.w3.org/2001/xml-events" xmlns:xlink="http://www.w3.org/1999/xlink"><defs /><polyline fill="none" points="117.0785,24.901 114.4573,23.1536 105.7201,22.7167 95.2355,25.7747 87.372,31.4539 81.256,41.0648 81.256,47.1809 85.6246,52.4232 96.5461,56.7918 109.215,57.2287 115.3311,55.0444 119.2628,49.3652 119.2628,41.5017 116.6416,34.0751 111.3993,25.7747 108.7782,24.4642 103.099,23.5904 97.4198,25.7747" stroke="#00007f" stroke-width="2" /><polyline fill="none" points="80.3823,50.6758 59.8498,46.744 47.6177,45.4334 36.6962,45.8703 24.4642,49.802 19.2218,55.9181 14.8532,72.0819 15.727,78.6348 22.7167,84.314 35.8225,86.9352 51.5495,87.372 62.9078,86.4983 74.7031,82.5666 79.9454,79.0717 83.4403,73.8294 86.4983,56.7918 85.6246,52.8601" stroke="#0010ff" stroke-width="2" /><polyline fill="none" points="15.727,81.6928 14.4164,90.8669 9.1741,105.2833 8.7372,112.7099" stroke="#00a4ff" stroke-width="2" /><polyline fill="none" points="28.8328,83.4403 28.8328,107.9044" stroke="#3fffb7" stroke-width="2" /><polyline fill="none" points="83.0034,75.1399 91.3038,103.099" stroke="#b7ff3f" stroke-width="2" /><polyline fill="none" points="56.7918,85.1877 56.7918,92.6143 59.8498,103.099 61.5973,104.4096" stroke="#ffb900" stroke-width="2" /><polyline fill="none" points="82.5666,34.0751 77.3242,25.3379 72.9556,8.7372 90.43,31.0171" stroke="#ff3000" stroke-width="2" /><polyline fill="none" points="103.9727,21.843 102.6621,18.785 105.7201,12.6689" stroke="#7f0000" stroke-width="2" /></svg>