<?xml version="1.0" encoding="utf-8" ?>
<svg baseProfile="tiny" height="128" version="1.2" viewBox="0,0,128,128" width="128" xmlns="http://www.w3.org/2000/svg" xmlns:ev="http://www.w3.org/2001/xml-events" xmlns:xlink="http://www.w3.org/1999/xlink"><defs /><polyline fill="none" points="9.5458,46.861 11.2814,30.3729 11.2814,11.2814 13.0169,9.1119 16.4881,8.678 18.6576,9.9797 22.9966,17.3559 26.0339,27.7695 29.0712,33.4102 33.4102,36.8814 27.3356,36.0136 24.2983,37.7492 14.3186,49.0305 11.2814,55.1051 10.8475,72.0271 20.8271,82.0068 34.278,88.9492 45.1254,90.6847 54.2373,90.6847 58.5763,89.3831 64.2169,85.478 71.1593,75.4983 75.0644,60.3119 75.0644,46.4271 69.4237,40.7864 61.1797,35.1458 51.6339,31.6746 35.1458,31.6746 33.4102,31.6746 36.0136,33.4102 35.1458,34.7119" stroke="#00007f" stroke-width="2" /><polyline fill="none" points="63.3492,29.0712 65.0847,33.8441 69.4237,23.4305 75.9322,15.1864 75.4983,27.7695 71.1593,45.1254 69.4237,50.3322 66.3864,50.7661" stroke="#0010ff" stroke-width="2" /><polyline fill="none" points="32.1085,45.9932 32.1085,45.9932" stroke="#00a4ff" stroke-width="2" /><polyline fill="none" points="29.5051,53.8034 28.6373,49.4644 32.1085,45.9932 32.5424,49.0305 30.8068,51.2" stroke="#3fffb7" stroke-width="2" /><polyline fill="none" points="45.5593,44.6915 50.7661,45.5593 52.0678,47.7288 53.3695,46.861" stroke="#b7ff3f" stroke-width="2" /><polyline fill="none" points="26.0339,65.9525 36.8814,76.8 45.9932,77.6678 50.7661,75.9322 57.7085,70.7254 60.7458,64.6508 59.878,61.1797" stroke="#ffb900" stroke-width="2" /><polyline fill="none" points="44.2576,57.2746 44.2576,59.878 44.2576,58.1424 45.5593,59.4441" stroke="#ff3000" stroke-width="2" /><polyline fill="none" points="35.1458,78.9695 26.0339,83.7424 19.0915,91.1186 8.678,119.322" stroke="#7f0000" stroke-width="2" /></svg>