<?xml version="1.0" encoding="utf-8" ?>
<svg baseProfile="tiny" height="128" version="1.2" viewBox="0,0,128,128" width="128" xmlns="http://www.w3.org/2000/svg" xmlns:ev="http://www.w3.org/2001/xml-events" xmlns:xlink="http://www.w3.org/1999/xlink"><defs /><polyline fill="none" points="26.0339,29.939 28.2034,16.4881 33.4102,13.8847 40.7864,15.1864 42.522,17.7898 44.2576,22.9966 43.3898,30.3729 68.9898,29.5051 70.2915,13.4508 71.5932,11.2814 76.3661,8.678 81.5729,11.2814 85.478,16.4881 87.2136,21.261 94.1559,26.9017 97.1932,33.8441 97.6271,45.1254 94.1559,54.6712 86.7797,65.5186 79.8373,74.1966 69.8576,82.8746 67.2542,84.6102 54.6712,85.478 45.5593,85.478 35.5797,83.3085 32.5424,81.5729 21.261,69.4237 20.8271,48.5966 23.8644,29.939" stroke="#00007f" stroke-width="2" /><polyline fill="none" points="38.1831,45.1254 35.5797,44.6915 33.4102,46.861 35.5797,49.4644 40.7864,48.5966 39.9186,45.5593" stroke="#0000ff" stroke-width="2" /><polyline fill="none" points="61.6136,44.6915 59.0102,45.1254 61.6136,45.9932 63.3492,42.522" stroke="#0080ff" stroke-width="2" /><polyline fill="none" points="52.9356,57.2746 52.9356,57.2746" stroke="#15ffe1" stroke-width="2" /><polyline fill="none" points="42.9559,58.5763 28.2034,59.0102 8.678,57.7085" stroke="#7cff79" stroke-width="2" /><polyline fill="none" points="39.4847,65.0847 20.8271,68.122" stroke="#e4ff12" stroke-width="2" /><polyline fill="none" points="75.0644,54.6712 85.0441,54.2373 107.6068,56.8407" stroke="#ff9400" stroke-width="2" /><polyline fill="none" points="75.9322,62.0475 107.1729,59.878 119.322,61.6136" stroke="#ff1d00" stroke-width="2" /><polyline fill="none" points="53.8034,63.3492 53.8034,63.3492" stroke="#7f0000" stroke-width="2" /></svg>