<?xml version="1.0" encoding="utf-8" ?>
<svg baseProfile="tiny" height="128" version="1.2" viewBox="0,0,128,128" width="128" xmlns="http://www.w3.org/2000/svg" xmlns:ev="http://www.w3.org/2001/xml-events" xmlns:xlink="http://www.w3.org/1999/xlink"><defs /><polyline fill="none" points="44.6915,35.5797 50.7661,31.6746 67.2542,25.6 76.3661,27.7695 91.5525,34.7119 100.6644,24.2983 116.7186,9.5458 119.322,8.678 116.7186,21.6949 106.739,49.8983 109.7763,55.9729 112.3797,73.7627 112.3797,82.0068 108.0407,90.6847 98.9288,100.6644 85.478,108.9085 68.9898,111.9458 53.8034,111.078 40.3525,105.0034 32.9763,96.7593 27.7695,82.0068 28.2034,66.3864 31.2407,52.5017 22.9966,45.1254 16.0542,30.3729 8.678,18.6576 22.5627,20.3932 31.6746,23.4305 41.6542,34.7119" stroke="#00007f" stroke-width="2" /><polyline fill="none" points="50.7661,60.3119 46.4271,62.0475 45.5593,65.0847 50.7661,64.6508 50.7661,62.0475 49.0305,61.1797 50.7661,62.4814" stroke="#0028ff" stroke-width="2" /><polyline fill="none" points="84.1763,61.1797 80.2712,62.4814 79.8373,63.7831 81.5729,64.2169 85.478,62.9153 85.478,61.6136 83.7424,61.1797" stroke="#00d4ff" stroke-width="2" /><polyline fill="none" points="79.4034,51.6339 85.0441,45.1254 103.7017,33.8441 117.5864,22.1288" stroke="#7cff79" stroke-width="2" /><polyline fill="none" points="91.1186,51.2 102.8339,42.0881 95.8915,41.2203" stroke="#ffe500" stroke-width="2" /><polyline fill="none" points="53.3695,48.5966 34.7119,35.5797" stroke="#ff4600" stroke-width="2" /><polyline fill="none" points="44.2576,52.0678 29.5051,49.0305" stroke="#7f0000" stroke-width="2" /></svg>