<?xml version="1.0" encoding="utf-8" ?>
<svg baseProfile="tiny" height="128" version="1.2" viewBox="0,0,128,128" width="128" xmlns="http://www.w3.org/2000/svg" xmlns:ev="http://www.w3.org/2001/xml-events" xmlns:xlink="http://www.w3.org/1999/xlink"><defs /><polyline fill="none" points="69.8576,33.4102 64.6508,32.5424 48.5966,35.1458 31.6746,39.9186 17.7898,47.7288 13.8847,51.6339 9.5458,59.4441 8.678,65.0847 9.5458,76.8 13.8847,87.2136 16.922,91.1186 26.9017,97.6271 46.861,107.1729 66.8203,111.9458 80.7051,111.9458 98.061,96.3254 101.9661,86.3458 101.9661,71.5932 95.8915,54.6712 84.6102,41.6542 58.1424,29.5051" stroke="#00007f" stroke-width="2" /><polyline fill="none" points="20.3932,40.7864 28.6373,31.6746 41.6542,8.678 45.1254,17.7898 54.2373,33.4102" stroke="#00d4ff" stroke-width="2" /><polyline fill="none" points="79.8373,36.0136 95.8915,26.9017 119.322,10.4136 106.3051,29.939 102.8339,39.4847 101.9661,48.5966 98.061,59.0102" stroke="#ffe500" stroke-width="2" /><polyline fill="none" points="53.3695,72.8949 53.3695,72.8949" stroke="#7f0000" stroke-width="2" /></svg>