<?xml version="1.0" encoding="utf-8" ?>
<svg baseProfile="tiny" height="128" version="1.2" viewBox="0,0,128,128" width="128" xmlns="http://www.w3.org/2000/svg" xmlns:ev="http://www.w3.org/2001/xml-events" xmlns:xlink="http://www.w3.org/1999/xlink"><defs /><polyline fill="none" points="75.3197,35.7007 66.6122,27.8639 60.9524,26.1224 53.551,26.1224 44.4082,29.1701 38.7483,33.9592 34.3946,40.0544 33.5238,48.7619 36.5714,56.5986 39.619,59.6463 45.7143,62.2585 60.517,64.0 79.6735,61.8231 91.4286,56.1633 94.0408,52.2449 94.0408,48.3265 92.2993,42.2313 88.8163,35.7007 80.5442,30.0408 74.0136,27.8639 67.483,27.4286" stroke="#00007f" stroke-width="2" /><polyline fill="none" points="80.5442,31.3469 101.0068,24.8163 108.4082,24.381 115.8095,27.8639 119.2925,34.8299 117.551,41.3605 111.8912,45.7143 90.5578,51.8095 81.8503,52.2449" stroke="#004cff" stroke-width="2" /><polyline fill="none" points="40.0544,56.5986 37.8776,69.2245 38.3129,84.4626 40.0544,85.3333 42.2313,84.4626 45.7143,78.8027 49.6327,64.4354 50.9388,80.9796 53.551,84.4626 56.5986,83.5918 59.2109,74.449 60.517,61.8231 63.5646,78.3673 67.9184,88.8163 70.0952,87.0748 72.2721,80.9796 72.2721,59.2109" stroke="#29ffcd" stroke-width="2" /><polyline fill="none" points="73.5782,73.5782 76.1905,80.9796 83.1565,83.5918 84.0272,82.7211" stroke="#cdff29" stroke-width="2" /><polyline fill="none" points="70.5306,60.9524 74.8844,70.5306 80.1088,78.3673 84.4626,81.8503 87.5102,81.8503 89.6871,77.0612 90.9932,66.1769 89.6871,57.034 88.381,54.4218" stroke="#ff6700" stroke-width="2" /><polyline fill="none" points="32.2177,43.102 15.6735,28.2993 13.0612,23.5102 10.449,10.0136 9.1429,8.7075 8.7075,26.9932 10.449,34.3946 13.4966,39.1837 21.7687,44.8435 39.619,50.5034" stroke="#7f0000" stroke-width="2" /></svg>