<?xml version="1.0" encoding="utf-8" ?>
<svg baseProfile="tiny" height="128" version="1.2" viewBox="0,0,128,128" width="128" xmlns="http://www.w3.org/2000/svg" xmlns:ev="http://www.w3.org/2001/xml-events" xmlns:xlink="http://www.w3.org/1999/xlink"><defs /><polyline fill="none" points="52.5017,59.0102 52.5017,59.0102" stroke="#00007f" stroke-width="2" /><polyline fill="none" points="30.8068,15.1864 59.4441,17.7898 60.7458,19.0915 62.9153,26.0339 62.9153,32.5424 59.4441,41.2203 52.0678,51.6339 45.5593,54.2373 38.6169,52.0678 34.278,42.0881 28.6373,23.8644 28.6373,13.0169" stroke="#0000d5" stroke-width="2" /><polyline fill="none" points="37.7492,25.1661 36.0136,27.3356 39.0508,26.4678 38.6169,25.1661 37.7492,26.0339" stroke="#001cff" stroke-width="2" /><polyline fill="none" points="54.2373,26.0339 54.2373,27.7695 55.1051,27.7695 55.1051,26.0339 53.8034,26.4678" stroke="#006cff" stroke-width="2" /><polyline fill="none" points="42.522,32.5424 48.5966,32.9763 44.2576,40.3525 42.522,34.7119 45.1254,32.9763 43.8237,37.7492 45.5593,34.7119 44.2576,34.278" stroke="#00b8ff" stroke-width="2" /><polyline fill="none" points="43.3898,40.7864 41.6542,44.6915 38.6169,44.6915 37.7492,42.522" stroke="#1cffda" stroke-width="2" /><polyline fill="none" points="43.8237,40.7864 46.4271,45.5593 47.7288,45.5593 48.5966,42.0881" stroke="#5cff9a" stroke-width="2" /><polyline fill="none" points="42.522,35.1458 33.8441,36.0136 8.678,46.4271" stroke="#9aff5c" stroke-width="2" /><polyline fill="none" points="41.6542,36.8814 37.3153,38.6169 29.0712,47.2949" stroke="#daff1c" stroke-width="2" /><polyline fill="none" points="48.1627,36.0136 66.8203,42.9559" stroke="#ffcb00" stroke-width="2" /><polyline fill="none" points="46.861,37.7492 73.3288,46.861" stroke="#ff8500" stroke-width="2" /><polyline fill="none" points="55.1051,12.1492 55.539,9.9797 57.7085,8.678 60.3119,15.6203" stroke="#ff3b00" stroke-width="2" /><polyline fill="none" points="36.0136,13.8847 31.6746,9.1119 30.3729,10.4136 30.3729,18.2237" stroke="#d50000" stroke-width="2" /><polyline fill="none" points="60.3119,44.2576 84.1763,39.4847 109.7763,37.3153 119.322,55.1051 114.5492,62.4814 106.3051,68.5559 101.5322,69.8576 72.0271,58.5763 62.9153,44.6915 58.5763,41.6542 55.9729,42.9559" stroke="#7f0000" stroke-width="2" /></svg>