<?xml version="1.0" encoding="utf-8" ?>
<svg baseProfile="tiny" height="128" version="1.2" viewBox="0,0,128,128" width="128" xmlns="http://www.w3.org/2000/svg" xmlns:ev="http://www.w3.org/2001/xml-events" xmlns:xlink="http://www.w3.org/1999/xlink"><defs /><polyline fill="none" points="54.6712,37.7492 45.1254,36.4475 42.9559,37.7492 38.6169,46.861 36.0136,55.1051 33.8441,70.7254 34.278,82.4407 40.7864,89.8169 45.9932,92.4203 52.5017,93.2881 67.6881,91.9864 81.5729,82.4407 91.5525,72.461 96.7593,65.0847 101.0983,55.539 99.7966,48.5966 94.5898,45.5593 75.4983,37.7492 63.7831,34.7119 48.5966,32.9763" stroke="#00007f" stroke-width="2" /><polyline fill="none" points="76.3661,23.8644 91.9864,13.0169 101.0983,9.5458 112.3797,8.678 117.5864,13.0169 118.8881,16.4881 119.322,31.6746 118.0203,35.1458" stroke="#0000de" stroke-width="2" /><polyline fill="none" points="42.9559,25.1661 35.5797,17.7898 26.9017,16.922 18.6576,21.261 10.4136,32.9763 8.678,41.2203 8.678,49.0305 9.9797,52.5017 15.6203,57.7085 32.5424,63.7831" stroke="#0028ff" stroke-width="2" /><polyline fill="none" points="48.5966,52.5017 55.9729,55.539" stroke="#0080ff" stroke-width="2" /><polyline fill="none" points="77.6678,46.861 79.4034,48.5966 82.4407,48.5966" stroke="#00d4ff" stroke-width="2" /><polyline fill="none" points="67.6881,65.5186 87.6475,65.0847 106.3051,60.7458 117.1525,59.878" stroke="#36ffc0" stroke-width="2" /><polyline fill="none" points="81.5729,66.8203 107.1729,89.8169" stroke="#7cff79" stroke-width="2" /><polyline fill="none" points="69.8576,72.8949 89.3831,89.8169 101.9661,98.061" stroke="#c0ff36" stroke-width="2" /><polyline fill="none" points="48.5966,54.6712 25.1661,63.3492" stroke="#ffe500" stroke-width="2" /><polyline fill="none" points="50.3322,70.2915 43.8237,71.5932 32.9763,77.6678 26.0339,86.3458" stroke="#ff9400" stroke-width="2" /><polyline fill="none" points="53.8034,79.4034 49.0305,83.3085 38.6169,97.6271 33.4102,107.6068 38.1831,103.2678" stroke="#ff4600" stroke-width="2" /><polyline fill="none" points="59.0102,78.1017 70.2915,85.0441 75.9322,84.6102" stroke="#de0000" stroke-width="2" /><polyline fill="none" points="52.9356,37.3153 62.0475,44.2576" stroke="#7f0000" stroke-width="2" /></svg>