<?xml version="1.0" encoding="utf-8" ?>
<svg baseProfile="tiny" height="128" version="1.2" viewBox="0,0,128,128" width="128" xmlns="http://www.w3.org/2000/svg" xmlns:ev="http://www.w3.org/2001/xml-events" xmlns:xlink="http://www.w3.org/1999/xlink"><defs /><polyline fill="none" points="27.7695,12.5831 29.0712,31.2407 34.278,45.5593 40.3525,51.2 48.1627,53.8034 55.9729,52.0678 59.0102,49.0305 62.9153,41.2203 63.7831,34.278 62.0475,18.2237 60.3119,13.4508 54.2373,26.0339 52.0678,27.7695 37.7492,26.9017 29.939,18.6576" stroke="#00007f" stroke-width="2" /><polyline fill="none" points="38.6169,55.539 39.4847,92.8542 42.0881,105.4373 45.5593,99.3627 47.2949,79.4034 47.7288,95.8915 51.2,107.6068 54.2373,105.0034 55.539,101.0983 58.5763,82.0068 86.7797,78.1017 88.0814,82.0068 88.0814,106.739 91.5525,104.5695 93.2881,101.0983 98.061,85.478 99.7966,90.2508 101.9661,107.6068 104.1356,107.1729 107.1729,102.8339 113.2475,89.8169 115.4169,79.8373 115.4169,66.3864 114.1153,63.3492 110.6441,59.878 103.2678,56.8407 72.0271,53.3695 57.7085,53.8034" stroke="#0000ff" stroke-width="2" /><polyline fill="none" points="101.9661,56.4068 111.9458,20.3932 118.0203,8.678 119.322,16.922 117.5864,41.2203 116.2847,50.7661 111.5119,66.8203" stroke="#0080ff" stroke-width="2" /><polyline fill="none" points="40.7864,41.2203 34.278,42.522 8.678,54.6712" stroke="#15ffe1" stroke-width="2" /><polyline fill="none" points="44.2576,45.5593 18.6576,61.1797" stroke="#7cff79" stroke-width="2" /><polyline fill="none" points="51.6339,40.7864 61.6136,39.4847 72.8949,39.4847 77.2339,40.7864" stroke="#e4ff12" stroke-width="2" /><polyline fill="none" points="53.8034,47.2949 80.7051,49.4644" stroke="#ff9400" stroke-width="2" /><polyline fill="none" points="39.4847,33.4102 38.1831,32.5424" stroke="#ff1d00" stroke-width="2" /><polyline fill="none" points="51.6339,32.5424 51.6339,32.5424" stroke="#7f0000" stroke-width="2" /></svg>