<?xml version="1.0" encoding="utf-8" ?>
<svg baseProfile="tiny" height="128" version="1.2" viewBox="0,0,128,128" width="128" xmlns="http://www.w3.org/2000/svg" xmlns:ev="http://www.w3.org/2001/xml-events" xmlns:xlink="http://www.w3.org/1999/xlink"><defs /><polyline fill="none" points="71.1593,29.939 42.0881,30.3729 33.8441,31.6746 26.0339,35.1458 18.6576,43.8237 12.1492,61.6136 11.7153,72.461 14.3186,81.5729 17.7898,88.9492 29.5051,103.2678 39.4847,109.3424 51.2,112.8136 69.4237,116.2847 82.4407,115.8508 97.6271,111.5119 103.7017,108.0407 112.8136,97.1932 118.0203,85.0441 118.4542,74.1966 117.1525,67.6881 111.5119,58.1424 105.4373,51.2 87.6475,37.3153 69.8576,33.8441" stroke="#00007f" stroke-width="2" /><polyline fill="none" points="83.3085,36.8814 94.1559,19.0915 102.4,12.1492 109.3424,8.678" stroke="#0010ff" stroke-width="2" /><polyline fill="none" points="109.3424,8.678 119.322,38.6169 118.0203,45.5593 114.5492,50.7661" stroke="#00a4ff" stroke-width="2" /><polyline fill="none" points="9.1119,11.2814 15.1864,16.4881 33.8441,21.6949 45.1254,36.0136" stroke="#3fffb7" stroke-width="2" /><polyline fill="none" points="8.678,12.1492 10.8475,28.2034 13.4508,34.278 18.2237,39.0508" stroke="#b7ff3f" stroke-width="2" /><polyline fill="none" points="20.8271,37.7492 19.9593,25.6 21.6949,25.1661 30.3729,34.7119" stroke="#ffb900" stroke-width="2" /><polyline fill="none" points="100.6644,28.6373 97.6271,39.0508" stroke="#ff3000" stroke-width="2" /><polyline fill="none" points="100.6644,29.0712 107.1729,42.522 108.4746,52.5017" stroke="#7f0000" stroke-width="2" /></svg>