<?xml version="1.0" encoding="utf-8" ?>
<svg baseProfile="tiny" height="128" version="1.2" viewBox="0,0,128,128" width="128" xmlns="http://www.w3.org/2000/svg" xmlns:ev="http://www.w3.org/2001/xml-events" xmlns:xlink="http://www.w3.org/1999/xlink"><defs /><polyline fill="none" points="24.2983,42.0881 21.6949,36.8814 21.6949,28.2034 22.5627,26.0339 29.0712,22.5627 36.8814,22.1288 45.5593,24.2983 52.0678,31.6746 52.0678,35.1458 50.7661,37.3153 42.9559,40.3525 27.3356,41.2203" stroke="#00007f" stroke-width="2" /><polyline fill="none" points="36.8814,20.8271 49.0305,8.678 50.3322,10.4136 51.2,23.4305" stroke="#0010ff" stroke-width="2" /><polyline fill="none" points="21.6949,24.7322 8.678,26.9017 19.5254,36.8814" stroke="#00a4ff" stroke-width="2" /><polyline fill="none" points="40.7864,30.3729 40.7864,29.5051" stroke="#3fffb7" stroke-width="2" /><polyline fill="none" points="29.0712,30.8068 29.939,30.3729" stroke="#b7ff3f" stroke-width="2" /><polyline fill="none" points="30.3729,34.7119 37.3153,34.278" stroke="#ffb900" stroke-width="2" /><polyline fill="none" points="36.0136,33.4102 34.7119,31.6746" stroke="#ff3000" stroke-width="2" /><polyline fill="none" points="44.6915,39.4847 45.9932,43.3898 49.8983,45.9932 86.3458,46.4271 101.0983,48.5966 106.3051,42.9559 108.4746,32.9763 109.3424,19.5254 112.3797,13.0169 114.5492,12.5831 118.0203,15.1864 119.322,19.5254 119.322,35.1458 114.5492,50.7661" stroke="#7f0000" stroke-width="2" /></svg>