<?xml version="1.0" encoding="utf-8" ?>
<svg baseProfile="tiny" height="128" version="1.2" viewBox="0,0,128,128" width="128" xmlns="http://www.w3.org/2000/svg" xmlns:ev="http://www.w3.org/2001/xml-events" xmlns:xlink="http://www.w3.org/1999/xlink"><defs /><polyline fill="none" points="45.9932,78.9695 32.9763,81.139 20.3932,86.7797 13.8847,93.2881 10.4136,98.9288 8.678,107.6068" stroke="#00007f" stroke-width="2" /><polyline fill="none" points="15.1864,71.5932 33.4102,60.7458 43.3898,57.7085 49.4644,57.7085" stroke="#0010ff" stroke-width="2" /><polyline fill="none" points="49.0305,86.3458 46.861,82.0068 50.3322,76.3661 55.9729,72.0271 60.3119,70.7254" stroke="#00a4ff" stroke-width="2" /><polyline fill="none" points="86.7797,78.1017 87.2136,83.3085 91.1186,88.0814 115.8508,99.3627" stroke="#3fffb7" stroke-width="2" /><polyline fill="none" points="82.0068,64.6508 89.8169,65.9525 119.322,75.4983" stroke="#b7ff3f" stroke-width="2" /><polyline fill="none" points="41.6542,73.7627 38.1831,76.3661 38.1831,81.5729 42.9559,88.5153 52.5017,95.4576 63.7831,97.1932 83.7424,97.1932 88.0814,95.0237 98.9288,82.4407 107.6068,57.7085 107.6068,51.2 98.9288,33.8441 98.9288,27.7695 102.4,12.5831 100.2305,10.8475 97.1932,10.8475 89.8169,14.7525 82.4407,22.9966 78.5356,32.9763 75.9322,34.278 65.0847,24.7322 55.9729,8.678 54.6712,12.1492 53.8034,33.8441 45.5593,37.7492 41.2203,43.3898 35.5797,59.0102 36.8814,76.3661" stroke="#ffb900" stroke-width="2" /><polyline fill="none" points="60.3119,42.9559 71.5932,52.0678" stroke="#ff3000" stroke-width="2" /><polyline fill="none" points="98.9288,38.6169 86.3458,47.2949" stroke="#7f0000" stroke-width="2" /></svg>