<?xml version="1.0" encoding="utf-8" ?>
<svg baseProfile="tiny" height="128" version="1.2" viewBox="0,0,128,128" width="128" xmlns="http://www.w3.org/2000/svg" xmlns:ev="http://www.w3.org/2001/xml-events" xmlns:xlink="http://www.w3.org/1999/xlink"><defs /><polyline fill="none" points="72.0271,49.8983 51.6339,51.2 42.0881,55.9729 34.7119,65.5186 29.0712,84.6102 29.0712,101.0983 35.1458,113.2475 41.6542,118.8881 52.5017,119.322 60.3119,117.5864 70.7254,111.078 85.478,96.7593 90.2508,85.478 90.2508,78.9695 89.8169,70.7254 84.6102,65.5186 77.2339,60.7458 62.9153,57.2746 59.4441,55.1051" stroke="#00007f" stroke-width="2" /><polyline fill="none" points="41.2203,57.2746 38.6169,54.2373 32.5424,33.4102 32.5424,19.5254 34.7119,16.922 39.4847,18.2237 48.1627,26.9017 54.2373,40.3525 55.9729,49.0305 59.0102,50.7661" stroke="#0028ff" stroke-width="2" /><polyline fill="none" points="68.9898,49.0305 72.461,37.7492 93.2881,8.678 97.1932,19.5254 98.061,31.2407 98.061,52.0678 95.0237,61.1797" stroke="#00d4ff" stroke-width="2" /><polyline fill="none" points="50.7661,85.9119 17.7898,85.9119 8.678,86.7797" stroke="#7cff79" stroke-width="2" /><polyline fill="none" points="58.5763,89.3831 38.1831,93.2881 19.0915,101.5322" stroke="#ffe500" stroke-width="2" /><polyline fill="none" points="72.0271,88.5153 79.4034,84.6102 96.3254,82.4407 116.2847,81.5729" stroke="#ff4600" stroke-width="2" /><polyline fill="none" points="67.6881,91.5525 88.5153,90.2508 110.2102,91.9864" stroke="#7f0000" stroke-width="2" /></svg>