<?xml version="1.0" encoding="utf-8" ?>
<svg baseProfile="tiny" height="128" version="1.2" viewBox="0,0,128,128" width="128" xmlns="http://www.w3.org/2000/svg" xmlns:ev="http://www.w3.org/2001/xml-events" xmlns:xlink="http://www.w3.org/1999/xlink"><defs /><polyline fill="none" points="26.4678,37.7492 22.9966,36.0136 16.4881,36.8814 9.9797,42.522 8.678,49.0305 9.5458,53.8034 13.0169,57.7085 21.261,61.6136 31.2407,61.6136 43.3898,56.8407 48.5966,54.2373 51.2,50.7661 50.7661,47.2949 42.9559,40.7864 21.261,32.1085 8.678,31.2407" stroke="#00007f" stroke-width="2" /><polyline fill="none" points="13.4508,36.8814 12.1492,8.678 27.7695,36.0136 29.5051,36.0136" stroke="#0080ff" stroke-width="2" /><polyline fill="none" points="37.7492,34.278 44.2576,22.9966 51.2,16.4881 48.5966,37.7492" stroke="#7cff79" stroke-width="2" /><polyline fill="none" points="45.9932,55.539 54.2373,56.8407 72.8949,55.9729 83.3085,53.3695 87.2136,50.7661 93.722,49.8983 98.9288,52.9356 114.9831,66.8203 119.322,73.7627" stroke="#ff9400" stroke-width="2" /><polyline fill="none" points="21.6949,64.2169 28.6373,72.461 49.4644,86.3458 70.2915,92.4203 79.4034,92.4203 99.3627,88.5153 111.078,80.2712" stroke="#7f0000" stroke-width="2" /></svg>