<?xml version="1.0" encoding="utf-8" ?>
<svg baseProfile="tiny" height="128" version="1.2" viewBox="0,0,128,128" width="128" xmlns="http://www.w3.org/2000/svg" xmlns:ev="http://www.w3.org/2001/xml-events" xmlns:xlink="http://www.w3.org/1999/xlink"><defs /><polyline fill="none" points="83.7424,29.0712 74.6305,23.4305 62.9153,21.261 50.7661,21.261 43.3898,25.1661 38.1831,35.5797 37.7492,52.5017 46.4271,72.461 64.2169,82.8746 69.8576,82.4407 75.9322,76.3661 85.0441,55.1051 85.9119,48.5966 85.0441,28.2034 80.2712,26.0339" stroke="#00007f" stroke-width="2" /><polyline fill="none" points="57.2746,52.9356 68.5559,52.9356 66.3864,59.4441 64.2169,60.3119 61.1797,57.7085 56.4068,49.4644" stroke="#0000f1" stroke-width="2" /><polyline fill="none" points="64.2169,60.3119 59.4441,72.461 49.0305,75.4983 46.861,73.7627" stroke="#004cff" stroke-width="2" /><polyline fill="none" points="66.8203,60.3119 66.8203,70.2915 71.5932,75.9322 74.6305,75.9322" stroke="#00b0ff" stroke-width="2" /><polyline fill="none" points="68.9898,57.7085 101.5322,53.8034" stroke="#29ffcd" stroke-width="2" /><polyline fill="none" points="75.0644,64.2169 90.6847,65.5186 119.322,73.3288" stroke="#7cff79" stroke-width="2" /><polyline fill="none" points="45.5593,58.5763 26.9017,55.9729 19.9593,56.4068" stroke="#cdff29" stroke-width="2" /><polyline fill="none" points="49.0305,65.9525 42.9559,65.9525 32.1085,62.9153 17.3559,56.8407 8.678,50.3322" stroke="#ffc400" stroke-width="2" /><polyline fill="none" points="54.2373,33.8441 52.0678,36.0136 54.2373,36.0136 54.6712,34.7119" stroke="#ff6700" stroke-width="2" /><polyline fill="none" points="72.461,36.8814 69.4237,38.6169 69.8576,41.6542 71.1593,41.6542 74.1966,41.2203 74.1966,36.8814" stroke="#f10700" stroke-width="2" /><polyline fill="none" points="42.9559,22.1288 50.3322,10.8475 53.8034,8.678 64.2169,22.9966" stroke="#7f0000" stroke-width="2" /></svg>