<?xml version="1.0" encoding="utf-8" ?>
<svg baseProfile="tiny" height="128" version="1.2" viewBox="0,0,128,128" width="128" xmlns="http://www.w3.org/2000/svg" xmlns:ev="http://www.w3.org/2001/xml-events" xmlns:xlink="http://www.w3.org/1999/xlink"><defs /><polyline fill="none" points="18.2237,31.2407 13.4508,32.9763 10.4136,37.3153 8.678,45.5593 9.5458,53.8034 12.1492,57.2746 17.7898,59.878 24.2983,61.1797 28.2034,59.4441 31.2407,53.3695 30.8068,47.7288 19.5254,29.5051" stroke="#00007f" stroke-width="2" /><polyline fill="none" points="12.5831,34.278 24.7322,10.8475 26.0339,13.8847 26.0339,22.5627 24.2983,36.8814" stroke="#0000ff" stroke-width="2" /><polyline fill="none" points="27.3356,21.261 40.3525,8.678 41.2203,9.9797 39.4847,18.6576 30.3729,39.4847" stroke="#0080ff" stroke-width="2" /><polyline fill="none" points="28.2034,47.2949 42.9559,39.0508 56.4068,37.7492 64.6508,40.3525 70.2915,44.6915 73.7627,49.0305 75.0644,55.1051 74.1966,64.2169 67.2542,68.9898 61.1797,70.2915 52.0678,69.8576 37.7492,66.3864 33.4102,64.2169 29.0712,59.878" stroke="#15ffe1" stroke-width="2" /><polyline fill="none" points="74.6305,51.6339 88.5153,47.7288 111.078,29.939 119.322,25.6 116.2847,37.7492 105.8712,52.0678 91.1186,56.8407 77.6678,55.1051" stroke="#7cff79" stroke-width="2" /><polyline fill="none" points="38.1831,70.2915 27.3356,82.4407 27.3356,85.478" stroke="#e4ff12" stroke-width="2" /><polyline fill="none" points="55.9729,69.4237 50.3322,85.9119" stroke="#ff9400" stroke-width="2" /><polyline fill="none" points="69.4237,70.2915 68.122,85.9119 69.4237,90.2508" stroke="#ff1d00" stroke-width="2" /><polyline fill="none" points="73.7627,63.7831 88.0814,84.1763" stroke="#7f0000" stroke-width="2" /></svg>