<?xml version="1.0" encoding="utf-8" ?>
<svg baseProfile="tiny" height="128" version="1.2" viewBox="0,0,128,128" width="128" xmlns="http://www.w3.org/2000/svg" xmlns:ev="http://www.w3.org/2001/xml-events" xmlns:xlink="http://www.w3.org/1999/xlink"><defs /><polyline fill="none" points="10.4136,43.8237 9.1119,20.8271 14.7525,32.5424 22.1288,39.4847 26.9017,33.8441 30.3729,32.5424 37.3153,31.2407 48.1627,32.1085 52.5017,16.0542 56.8407,8.678 59.0102,9.5458 60.7458,14.3186 64.6508,29.0712 64.2169,31.6746" stroke="#00007f" stroke-width="2" /><polyline fill="none" points="29.939,45.9932 28.2034,49.0305 28.6373,51.2 32.1085,54.6712 40.7864,55.539 45.9932,51.6339 46.861,49.0305 46.4271,45.1254 40.7864,43.3898" stroke="#0000f1" stroke-width="2" /><polyline fill="none" points="40.3525,53.8034 39.4847,62.4814 41.6542,66.8203 45.1254,69.4237 49.4644,69.4237 54.6712,59.878" stroke="#004cff" stroke-width="2" /><polyline fill="none" points="39.0508,54.6712 39.9186,66.8203 32.5424,70.7254 26.9017,68.5559" stroke="#00b0ff" stroke-width="2" /><polyline fill="none" points="8.678,50.7661 8.678,58.1424 12.1492,66.3864 23.4305,82.8746 29.939,87.6475 35.1458,89.8169 53.3695,89.8169 64.6508,83.3085 73.7627,75.4983 77.2339,72.0271 82.0068,63.3492 83.7424,47.7288 81.139,42.0881 68.9898,26.4678" stroke="#29ffcd" stroke-width="2" /><polyline fill="none" points="79.8373,55.1051 87.2136,54.6712 96.7593,57.2746 110.2102,65.0847 112.3797,67.6881 113.2475,71.5932 107.1729,74.6305 93.722,75.0644 74.6305,70.7254" stroke="#7cff79" stroke-width="2" /><polyline fill="none" points="77.6678,75.9322 75.0644,78.1017 75.4983,91.5525" stroke="#cdff29" stroke-width="2" /><polyline fill="none" points="90.6847,75.4983 91.5525,85.478 93.722,91.9864" stroke="#ffc400" stroke-width="2" /><polyline fill="none" points="99.7966,77.2339 101.0983,88.5153 102.4,90.6847 105.0034,91.5525" stroke="#ff6700" stroke-width="2" /><polyline fill="none" points="111.5119,75.0644 113.6814,80.7051 119.322,86.7797" stroke="#f10700" stroke-width="2" /><polyline fill="none" points="112.8136,59.0102 109.3424,53.3695 109.3424,48.5966 111.5119,42.522 118.8881,28.2034" stroke="#7f0000" stroke-width="2" /></svg>