<?xml version="1.0" encoding="utf-8" ?>
<svg baseProfile="tiny" height="128" version="1.2" viewBox="0,0,128,128" width="128" xmlns="http://www.w3.org/2000/svg" xmlns:ev="http://www.w3.org/2001/xml-events" xmlns:xlink="http://www.w3.org/1999/xlink"><defs /><polyline fill="none" points="41.6542,22.1288 18.6576,24.2983 13.0169,27.3356 9.1119,32.9763 8.678,45.9932 12.5831,55.539 22.5627,62.0475 34.7119,65.5186 68.122,64.6508 83.7424,57.2746 88.5153,50.3322 89.3831,45.5593 87.6475,39.9186 84.1763,34.7119 77.6678,29.5051 69.4237,25.6 54.6712,19.5254 43.3898,19.5254 33.8441,21.6949" stroke="#00007f" stroke-width="2" /><polyline fill="none" points="26.4678,37.3153 25.1661,39.9186 26.0339,40.7864 29.0712,42.522 32.5424,42.9559 38.1831,40.7864 39.9186,36.4475 25.1661,33.8441 24.7322,38.1831 29.0712,39.9186" stroke="#0000f1" stroke-width="2" /><polyline fill="none" points="31.2407,37.3153 30.3729,38.1831 31.2407,38.6169 32.5424,37.7492 31.6746,36.8814 34.278,37.3153" stroke="#004cff" stroke-width="2" /><polyline fill="none" points="63.3492,30.3729 59.0102,32.9763 57.2746,38.1831 59.878,40.7864 65.9525,39.0508 67.2542,35.1458 66.8203,32.5424 64.2169,30.3729 59.878,32.1085" stroke="#00b0ff" stroke-width="2" /><polyline fill="none" points="64.6508,35.5797 62.0475,36.0136" stroke="#29ffcd" stroke-width="2" /><polyline fill="none" points="64.6508,20.8271 72.461,18.2237 82.8746,11.2814 83.3085,29.0712 82.0068,29.939" stroke="#7cff79" stroke-width="2" /><polyline fill="none" points="36.0136,22.9966 24.7322,8.678 21.261,18.6576 19.5254,31.6746" stroke="#cdff29" stroke-width="2" /><polyline fill="none" points="71.1593,43.8237 74.6305,39.9186 81.139,36.4475 101.9661,31.6746" stroke="#ffc400" stroke-width="2" /><polyline fill="none" points="76.8,49.0305 119.322,49.0305 118.8881,52.0678" stroke="#ff6700" stroke-width="2" /><polyline fill="none" points="65.0847,56.8407 79.8373,64.2169 93.2881,75.4983" stroke="#f10700" stroke-width="2" /><polyline fill="none" points="30.3729,47.7288 20.3932,45.5593" stroke="#7f0000" stroke-width="2" /></svg>