<?xml version="1.0" encoding="utf-8" ?>
<svg baseProfile="tiny" height="128" version="1.2" viewBox="0,0,128,128" width="128" xmlns="http://www.w3.org/2000/svg" xmlns:ev="http://www.w3.org/2001/xml-events" xmlns:xlink="http://www.w3.org/1999/xlink"><defs /><polyline fill="none" points="32.5424,16.0542 26.9017,15.6203 20.3932,17.3559 11.2814,26.9017 8.678,32.5424 9.1119,38.6169 14.7525,43.3898 23.4305,44.2576 28.6373,42.522 37.3153,36.8814 40.3525,32.9763 39.9186,24.7322 36.0136,18.6576 29.0712,13.4508 24.7322,12.5831" stroke="#00007f" stroke-width="2" /><polyline fill="none" points="40.7864,27.3356 61.6136,23.4305 78.5356,23.4305 97.1932,24.7322 110.6441,28.2034 118.0203,34.278 119.322,46.4271 115.8508,48.5966 114.9831,48.1627 109.7763,37.7492 101.5322,35.5797 94.1559,43.3898 92.4203,50.3322 92.4203,61.1797 89.3831,64.2169 85.478,64.2169 82.0068,61.6136 81.139,55.9729 82.8746,46.4271 80.2712,42.522 78.1017,42.0881" stroke="#0000d5" stroke-width="2" /><polyline fill="none" points="84.1763,62.9153 77.2339,63.3492 73.7627,61.6136 72.461,55.9729 73.7627,50.3322 67.6881,43.3898" stroke="#001cff" stroke-width="2" /><polyline fill="none" points="66.8203,43.3898 44.2576,43.8237" stroke="#006cff" stroke-width="2" /><polyline fill="none" points="45.1254,45.9932 43.8237,59.878 42.522,62.0475 31.6746,62.9153 30.8068,59.4441 33.8441,56.4068" stroke="#00b8ff" stroke-width="2" /><polyline fill="none" points="31.2407,64.2169 23.4305,61.6136 21.6949,59.4441 26.0339,53.3695 26.4678,42.9559" stroke="#1cffda" stroke-width="2" /><polyline fill="none" points="17.7898,21.261 18.2237,29.0712" stroke="#5cff9a" stroke-width="2" /><polyline fill="none" points="25.1661,20.8271 26.4678,27.3356" stroke="#9aff5c" stroke-width="2" /><polyline fill="none" points="17.7898,20.8271 15.6203,27.3356 15.6203,29.939 17.7898,30.8068 21.261,30.3729 22.5627,29.0712 15.1864,20.8271" stroke="#daff1c" stroke-width="2" /><polyline fill="none" points="25.6,16.4881 23.4305,22.5627 23.8644,26.9017 26.4678,28.6373 31.6746,29.0712 33.4102,27.3356 33.4102,25.1661 31.6746,20.8271 26.4678,17.3559 23.4305,17.3559 22.5627,18.2237" stroke="#ffcb00" stroke-width="2" /><polyline fill="none" points="25.1661,29.939 27.3356,34.7119 28.2034,35.5797 28.6373,33.8441 28.6373,30.3729 25.6,30.3729 25.1661,31.6746" stroke="#ff8500" stroke-width="2" /><polyline fill="none" points="29.0712,32.9763 24.2983,39.0508 17.7898,40.7864" stroke="#ff3b00" stroke-width="2" /><polyline fill="none" points="26.9017,34.7119 29.5051,36.8814 32.5424,36.8814 36.8814,33.8441" stroke="#d50000" stroke-width="2" /><polyline fill="none" points="12.5831,17.7898 16.4881,8.678" stroke="#7f0000" stroke-width="2" /></svg>