<?xml version="1.0" encoding="utf-8" ?>
<svg baseProfile="tiny" height="128" version="1.2" viewBox="0,0,128,128" width="128" xmlns="http://www.w3.org/2000/svg" xmlns:ev="http://www.w3.org/2001/xml-events" xmlns:xlink="http://www.w3.org/1999/xlink"><defs /><polyline fill="none" points="18.6576,44.2576 10.4136,53.8034 8.678,62.4814 8.678,74.1966 19.0915,94.1559 28.2034,101.9661 49.4644,113.6814 72.0271,119.322 84.1763,113.2475 98.061,97.1932 109.7763,71.5932 111.9458,62.0475 111.9458,54.2373 107.6068,44.2576 88.9492,36.8814 76.3661,37.7492" stroke="#00007f" stroke-width="2" /><polyline fill="none" points="22.5627,24.7322 25.6,13.0169 24.7322,28.2034 22.5627,39.0508 19.5254,46.4271" stroke="#0000fe" stroke-width="2" /><polyline fill="none" points="29.5051,11.2814 40.3525,34.278 42.9559,36.0136 51.2,36.4475 52.9356,19.0915 56.8407,8.678 59.4441,10.8475 63.3492,20.3932 75.0644,39.9186" stroke="#0060ff" stroke-width="2" /><polyline fill="none" points="58.5763,73.7627 56.4068,72.8949 54.6712,80.7051 57.2746,78.5356 60.3119,72.461 60.3119,69.8576 58.1424,68.122" stroke="#00d4ff" stroke-width="2" /><polyline fill="none" points="62.0475,69.8576 82.0068,70.2915" stroke="#4cffaa" stroke-width="2" /><polyline fill="none" points="66.3864,76.3661 88.0814,85.478" stroke="#aaff4c" stroke-width="2" /><polyline fill="none" points="49.4644,71.5932 27.3356,69.8576 15.6203,65.9525 16.922,64.6508" stroke="#ffe500" stroke-width="2" /><polyline fill="none" points="48.1627,77.6678 46.4271,79.8373 43.3898,80.7051 41.2203,84.1763" stroke="#ff7a00" stroke-width="2" /><polyline fill="none" points="53.3695,85.9119 46.861,89.8169 36.4475,91.9864 22.5627,91.9864 22.5627,88.0814" stroke="#fe1200" stroke-width="2" /><polyline fill="none" points="32.5424,56.8407 35.1458,62.0475 37.7492,63.7831 40.3525,63.7831 42.522,60.3119 40.7864,57.7085 36.4475,58.1424" stroke="#7f0000" stroke-width="2" /></svg>