<?xml version="1.0" encoding="utf-8" ?>
<svg baseProfile="tiny" height="128" version="1.2" viewBox="0,0,128,128" width="128" xmlns="http://www.w3.org/2000/svg" xmlns:ev="http://www.w3.org/2001/xml-events" xmlns:xlink="http://www.w3.org/1999/xlink"><defs /><polyline fill="none" points="101.9661,54.6712 88.0814,42.0881 77.2339,37.3153 67.6881,35.1458 45.9932,37.7492 30.3729,42.9559 23.8644,46.4271 16.4881,53.3695 9.9797,65.0847 10.8475,82.8746 13.8847,90.2508 19.9593,98.061 27.7695,104.5695 42.0881,110.2102 69.4237,110.2102 76.3661,108.4746 97.6271,87.2136 103.7017,78.9695 105.8712,72.8949 105.0034,59.0102 101.0983,51.6339 96.7593,48.5966" stroke="#00007f" stroke-width="2" /><polyline fill="none" points="26.0339,41.6542 30.3729,37.3153 45.1254,8.678 46.861,37.3153" stroke="#0000e8" stroke-width="2" /><polyline fill="none" points="82.0068,36.8814 98.061,22.9966 111.078,16.0542 99.7966,46.4271" stroke="#0038ff" stroke-width="2" /><polyline fill="none" points="37.7492,45.5593 39.9186,46.861 39.9186,44.6915" stroke="#0094ff" stroke-width="2" /><polyline fill="none" points="36.0136,44.6915 36.0136,45.1254" stroke="#0cf4ea" stroke-width="2" /><polyline fill="none" points="87.6475,53.8034 86.3458,53.3695" stroke="#56ffa0" stroke-width="2" /><polyline fill="none" points="62.0475,76.8 82.0068,82.8746 102.8339,86.7797" stroke="#a0ff56" stroke-width="2" /><polyline fill="none" points="59.0102,78.5356 73.7627,95.0237" stroke="#eaff0c" stroke-width="2" /><polyline fill="none" points="59.4441,81.139 62.4814,107.1729 65.5186,119.322" stroke="#ffaa00" stroke-width="2" /><polyline fill="none" points="60.3119,72.8949 8.678,55.9729" stroke="#ff5500" stroke-width="2" /><polyline fill="none" points="46.861,72.0271 16.4881,76.8" stroke="#e80000" stroke-width="2" /><polyline fill="none" points="42.0881,76.3661 40.3525,78.5356" stroke="#7f0000" stroke-width="2" /></svg>