<?xml version="1.0" encoding="utf-8" ?>
<svg baseProfile="tiny" height="128" version="1.2" viewBox="0,0,128,128" width="128" xmlns="http://www.w3.org/2000/svg" xmlns:ev="http://www.w3.org/2001/xml-events" xmlns:xlink="http://www.w3.org/1999/xlink"><defs /><polyline fill="none" points="55.2925,39.1837 39.619,38.7483 30.9116,42.2313 22.2041,47.8912 16.1088,55.7279 12.1905,63.1293 8.7075,84.0272 9.1429,97.9592 12.6259,105.3605 17.415,109.7143 32.6531,116.2449 57.034,119.2925 87.5102,119.2925 91.8639,116.2449 94.4762,112.3265 97.9592,99.7007 98.8299,77.0612 97.0884,67.9184 93.1701,60.517 87.5102,52.6803 78.8027,46.1497 53.1156,36.5714" stroke="#00007f" stroke-width="2" /><polyline fill="none" points="26.1224,46.1497 25.6871,29.1701 26.9932,18.7211 30.4762,10.8844 34.3946,8.7075 44.4082,33.0884 50.068,41.3605 52.2449,43.102 53.9864,42.6667" stroke="#0028ff" stroke-width="2" /><polyline fill="none" points="75.7551,42.2313 75.7551,40.4898 82.2857,32.6531 101.8776,16.1088 104.4898,43.9728 104.4898,57.4694 102.7483,63.1293" stroke="#00d4ff" stroke-width="2" /><polyline fill="none" points="52.2449,83.5918 53.9864,80.5442 52.2449,80.5442 51.3741,82.2857 52.2449,80.5442" stroke="#7cff79" stroke-width="2" /><polyline fill="none" points="38.7483,56.5986 38.7483,56.5986" stroke="#ffe500" stroke-width="2" /><polyline fill="none" points="83.1565,67.9184 83.1565,67.9184" stroke="#ff4600" stroke-width="2" /><polyline fill="none" points="40.9252,56.5986 40.9252,56.5986" stroke="#7f0000" stroke-width="2" /></svg>