<?xml version="1.0" encoding="utf-8" ?>
<svg baseProfile="tiny" height="128" version="1.2" viewBox="0,0,128,128" width="128" xmlns="http://www.w3.org/2000/svg" xmlns:ev="http://www.w3.org/2001/xml-events" xmlns:xlink="http://www.w3.org/1999/xlink"><defs /><polyline fill="none" points="36.4475,64.2169 39.0508,77.2339 43.8237,82.4407 48.1627,83.7424 68.9898,83.7424 80.2712,77.6678 89.3831,63.7831" stroke="#00007f" stroke-width="2" /><polyline fill="none" points="56.8407,57.7085 56.4068,61.6136 59.878,64.2169 60.3119,56.8407" stroke="#0000c3" stroke-width="2" /><polyline fill="none" points="53.3695,68.5559 54.2373,69.8576 59.4441,69.8576 63.7831,66.3864" stroke="#0000ff" stroke-width="2" /><polyline fill="none" points="58.1424,65.9525 57.2746,67.2542" stroke="#0034ff" stroke-width="2" /><polyline fill="none" points="68.5559,45.1254 74.1966,45.5593 78.1017,49.0305" stroke="#0070ff" stroke-width="2" /><polyline fill="none" points="49.0305,50.3322 45.9932,52.0678" stroke="#00acff" stroke-width="2" /><polyline fill="none" points="43.8237,55.539 36.0136,55.539 8.678,59.4441" stroke="#02e8f4" stroke-width="2" /><polyline fill="none" points="45.1254,63.7831 32.9763,75.9322 18.6576,86.7797" stroke="#32ffc3" stroke-width="2" /><polyline fill="none" points="49.4644,72.461 46.4271,78.9695 36.4475,90.2508" stroke="#63ff93" stroke-width="2" /><polyline fill="none" points="94.5898,50.7661 119.322,49.8983" stroke="#93ff63" stroke-width="2" /><polyline fill="none" points="94.5898,64.6508 108.4746,87.6475" stroke="#c3ff32" stroke-width="2" /><polyline fill="none" points="84.1763,72.461 90.2508,80.7051" stroke="#f4f802" stroke-width="2" /><polyline fill="none" points="76.3661,58.5763 80.7051,66.3864 89.8169,76.8" stroke="#ffc000" stroke-width="2" /><polyline fill="none" points="88.9492,60.7458 100.6644,70.2915" stroke="#ff8900" stroke-width="2" /><polyline fill="none" points="89.3831,49.8983 101.5322,47.7288" stroke="#ff5100" stroke-width="2" /><polyline fill="none" points="39.0508,28.2034 32.9763,43.3898 33.4102,55.9729" stroke="#ff1a00" stroke-width="2" /><polyline fill="none" points="31.6746,39.0508 31.6746,18.6576 35.5797,8.678 39.9186,9.9797 43.8237,13.8847" stroke="#c30000" stroke-width="2" /><polyline fill="none" points="44.6915,16.0542 45.1254,17.3559 48.1627,17.3559 72.461,14.3186 77.6678,22.1288 91.9864,15.1864 107.1729,13.0169 109.3424,23.8644 109.3424,38.6169 105.8712,48.1627" stroke="#7f0000" stroke-width="2" /></svg>