<?xml version="1.0" encoding="utf-8" ?>
<svg baseProfile="tiny" height="128" version="1.2" viewBox="0,0,128,128" width="128" xmlns="http://www.w3.org/2000/svg" xmlns:ev="http://www.w3.org/2001/xml-events" xmlns:xlink="http://www.w3.org/1999/xlink"><defs /><polyline fill="none" points="49.8983,101.5322 39.0508,98.061 19.5254,79.4034 14.7525,68.9898 13.4508,50.7661" stroke="#00007f" stroke-width="2" /><polyline fill="none" points="13.4508,50.7661 8.678,31.6746 11.2814,12.1492 14.7525,13.8847 16.0542,20.8271 20.8271,27.7695 34.278,36.4475" stroke="#0000fe" stroke-width="2" /><polyline fill="none" points="23.4305,37.7492 13.4508,23.8644 12.1492,23.4305" stroke="#0060ff" stroke-width="2" /><polyline fill="none" points="36.4475,36.0136 56.8407,32.9763 81.5729,35.1458 82.8746,33.8441" stroke="#00d4ff" stroke-width="2" /><polyline fill="none" points="82.8746,33.8441 91.5525,15.6203 90.2508,8.678 108.9085,29.0712 114.9831,42.522 114.5492,45.1254" stroke="#4cffaa" stroke-width="2" /><polyline fill="none" points="99.7966,37.3153 101.5322,16.0542" stroke="#aaff4c" stroke-width="2" /><polyline fill="none" points="119.322,48.1627 113.6814,73.3288 107.1729,86.7797 103.7017,89.3831 90.2508,97.6271 76.8,101.0983 58.5763,101.0983 43.3898,98.4949" stroke="#ffe500" stroke-width="2" /><polyline fill="none" points="42.0881,59.4441 41.2203,55.9729 42.9559,52.9356 45.9932,53.8034 43.8237,59.0102" stroke="#ff7a00" stroke-width="2" /><polyline fill="none" points="104.5695,59.0102 101.5322,55.539 105.0034,54.6712 103.7017,58.1424 102.8339,57.7085" stroke="#fe1200" stroke-width="2" /><polyline fill="none" points="56.8407,81.139 61.1797,82.8746 68.9898,79.8373 73.3288,68.5559" stroke="#7f0000" stroke-width="2" /></svg>