<?xml version="1.0" encoding="utf-8" ?>
<svg baseProfile="tiny" height="128" version="1.2" viewBox="0,0,128,128" width="128" xmlns="http://www.w3.org/2000/svg" xmlns:ev="http://www.w3.org/2001/xml-events" xmlns:xlink="http://www.w3.org/1999/xlink"><defs /><polyline fill="none" points="78.5356,21.261 76.3661,13.0169 84.1763,18.6576 95.8915,18.6576 101.9661,20.3932 112.8136,11.2814 110.6441,24.7322 114.5492,28.6373 119.322,36.8814 115.8508,42.522 102.4,51.2 90.2508,50.7661 84.1763,47.7288 79.4034,41.2203 78.1017,32.5424 78.5356,22.9966" stroke="#00007f" stroke-width="2" /><polyline fill="none" points="76.3661,39.9186 42.522,41.2203 37.3153,37.3153 20.3932,11.7153 13.8847,8.678 9.5458,9.5458 8.678,11.7153 12.1492,17.3559 24.7322,29.0712 33.4102,47.7288 36.8814,62.4814 37.3153,76.8 43.8237,75.9322 45.1254,63.3492 46.861,59.4441 50.7661,56.8407 61.6136,58.1424 67.6881,61.1797 71.5932,68.122 72.0271,74.1966 81.139,73.3288 80.2712,71.1593 82.0068,67.2542 93.722,51.2" stroke="#00d4ff" stroke-width="2" /><polyline fill="none" points="88.0814,32.9763 88.0814,36.4475" stroke="#ffe500" stroke-width="2" /><polyline fill="none" points="107.1729,32.9763 108.0407,37.7492" stroke="#7f0000" stroke-width="2" /></svg>