<?xml version="1.0" encoding="utf-8" ?>
<svg baseProfile="tiny" height="128" version="1.2" viewBox="0,0,128,128" width="128" xmlns="http://www.w3.org/2000/svg" xmlns:ev="http://www.w3.org/2001/xml-events" xmlns:xlink="http://www.w3.org/1999/xlink"><defs /><polyline fill="none" points="96.7593,63.7831 86.7797,61.1797 45.5593,60.7458 35.5797,62.9153 21.6949,69.8576 16.4881,74.1966 10.4136,83.3085 8.678,92.8542 8.678,104.1356 10.8475,109.3424 13.0169,112.3797 21.261,117.1525 30.3729,119.322 43.8237,118.4542 83.7424,105.4373 95.8915,98.9288 102.4,90.2508 104.5695,84.1763 106.3051,78.1017 106.739,63.3492 101.0983,55.1051 94.1559,52.0678 76.8,52.9356" stroke="#00007f" stroke-width="2" /><polyline fill="none" points="22.1288,64.6508 24.2983,53.3695 19.9593,30.3729 19.9593,14.3186 20.3932,11.2814 22.9966,8.678 27.3356,11.7153 30.8068,16.4881 36.8814,29.939 47.7288,67.2542" stroke="#0028ff" stroke-width="2" /><polyline fill="none" points="64.2169,64.2169 78.9695,37.7492 95.8915,13.8847 97.1932,23.8644 94.5898,46.4271 94.5898,64.6508" stroke="#00d4ff" stroke-width="2" /><polyline fill="none" points="52.9356,89.3831 51.2,91.9864 52.9356,91.5525" stroke="#7cff79" stroke-width="2" /><polyline fill="none" points="51.2,95.0237 52.0678,98.9288 48.1627,105.8712 44.6915,108.9085 38.6169,110.2102" stroke="#ffe500" stroke-width="2" /><polyline fill="none" points="49.4644,96.7593 52.0678,102.4 55.9729,104.5695 66.3864,105.8712 69.8576,103.7017" stroke="#ff4600" stroke-width="2" /><polyline fill="none" points="32.1085,75.9322 37.3153,80.2712" stroke="#7f0000" stroke-width="2" /></svg>