<?xml version="1.0" encoding="utf-8" ?>
<svg baseProfile="tiny" height="128" version="1.2" viewBox="0,0,128,128" width="128" xmlns="http://www.w3.org/2000/svg" xmlns:ev="http://www.w3.org/2001/xml-events" xmlns:xlink="http://www.w3.org/1999/xlink"><defs /><polyline fill="none" points="110.585,34.3946 107.9728,32.2177 102.3129,30.4762 95.3469,30.9116 91.4286,32.6531 84.0272,38.3129 79.2381,43.9728 74.0136,53.551 73.5782,57.4694 74.8844,66.6122 80.9796,72.2721 90.5578,74.8844 96.6531,74.8844 100.1361,73.1429 107.102,64.0 115.8095,38.7483 116.2449,30.4762 110.585,27.8639" stroke="#00007f" stroke-width="2" /><polyline fill="none" points="86.6395,35.2653 90.9932,20.898 98.8299,8.7075 101.8776,18.2857 103.619,34.8299" stroke="#0000de" stroke-width="2" /><polyline fill="none" points="107.9728,30.9116 119.2925,12.6259 115.8095,38.7483" stroke="#0028ff" stroke-width="2" /><polyline fill="none" points="94.0408,42.2313 95.3469,49.6327" stroke="#0080ff" stroke-width="2" /><polyline fill="none" points="103.619,41.3605 104.0544,48.3265" stroke="#00d4ff" stroke-width="2" /><polyline fill="none" points="96.6531,56.1633 96.2177,63.1293 94.0408,65.7415 87.9456,65.7415 85.3333,60.9524" stroke="#36ffc0" stroke-width="2" /><polyline fill="none" points="98.3946,56.1633 99.7007,60.9524 101.8776,61.8231 104.4898,60.517" stroke="#7cff79" stroke-width="2" /><polyline fill="none" points="76.6259,50.5034 58.7755,49.1973 33.0884,55.7279 29.1701,61.3878 28.7347,66.1769 41.3605,73.1429 51.8095,74.449 63.5646,73.1429 79.6735,66.6122" stroke="#c0ff36" stroke-width="2" /><polyline fill="none" points="43.9728,71.4014 46.1497,84.4626" stroke="#ffe500" stroke-width="2" /><polyline fill="none" points="58.3401,74.449 59.6463,80.5442 61.8231,84.0272" stroke="#ff9400" stroke-width="2" /><polyline fill="none" points="66.1769,72.2721 67.483,77.0612 70.5306,81.415" stroke="#ff4600" stroke-width="2" /><polyline fill="none" points="77.932,71.4014 77.932,75.7551" stroke="#de0000" stroke-width="2" /><polyline fill="none" points="39.619,59.6463 8.7075,70.0952" stroke="#7f0000" stroke-width="2" /></svg>