<?xml version="1.0" encoding="utf-8" ?>
<svg baseProfile="tiny" height="128" version="1.2" viewBox="0,0,128,128" width="128" xmlns="http://www.w3.org/2000/svg" xmlns:ev="http://www.w3.org/2001/xml-events" xmlns:xlink="http://www.w3.org/1999/xlink"><defs /><polyline fill="none" points="57.7085,38.6169 50.3322,39.0508 44.2576,41.2203 36.8814,47.2949 33.4102,52.0678 29.5051,63.7831 30.8068,74.1966 34.278,81.139 39.0508,87.2136 48.5966,94.5898 63.3492,99.7966 71.5932,100.6644 78.9695,99.3627 86.3458,96.3254 95.8915,88.9492 104.5695,75.9322 107.1729,65.0847 106.739,57.7085 104.5695,50.7661 97.1932,40.3525 92.4203,36.4475 79.4034,31.2407 64.6508,30.8068 54.6712,34.7119" stroke="#00007f" stroke-width="2" /><polyline fill="none" points="35.5797,44.6915 34.7119,20.8271 45.9932,34.7119 48.1627,34.278" stroke="#0000e8" stroke-width="2" /><polyline fill="none" points="79.8373,25.6 79.4034,22.5627 82.8746,8.678 84.6102,11.2814 86.7797,31.2407 89.3831,33.4102" stroke="#0038ff" stroke-width="2" /><polyline fill="none" points="64.6508,62.4814 63.3492,67.6881 66.3864,61.6136 73.3288,68.5559 67.6881,67.2542 64.6508,68.122 65.5186,68.9898" stroke="#0094ff" stroke-width="2" /><polyline fill="none" points="67.6881,71.1593 70.2915,78.9695 69.4237,83.7424 61.1797,88.0814 59.0102,88.0814 58.1424,85.478" stroke="#0cf4ea" stroke-width="2" /><polyline fill="none" points="71.5932,70.7254 72.461,74.1966 78.9695,80.2712 81.5729,80.2712 84.1763,77.2339 85.0441,72.0271" stroke="#56ffa0" stroke-width="2" /><polyline fill="none" points="48.5966,49.0305 49.8983,49.4644" stroke="#a0ff56" stroke-width="2" /><polyline fill="none" points="68.122,49.8983 68.122,50.3322" stroke="#eaff0c" stroke-width="2" /><polyline fill="none" points="78.1017,59.0102 85.0441,52.0678 110.2102,33.4102" stroke="#ffaa00" stroke-width="2" /><polyline fill="none" points="85.478,59.878 96.7593,53.3695 119.322,44.6915" stroke="#ff5500" stroke-width="2" /><polyline fill="none" points="46.4271,68.5559 27.7695,71.1593 16.4881,75.4983 10.8475,79.4034" stroke="#e80000" stroke-width="2" /><polyline fill="none" points="56.8407,73.3288 47.2949,76.8 33.8441,85.0441 16.922,101.9661 8.678,113.6814" stroke="#7f0000" stroke-width="2" /></svg>