<?xml version="1.0" encoding="utf-8" ?>
<svg baseProfile="tiny" height="128" version="1.2" viewBox="0,0,128,128" width="128" xmlns="http://www.w3.org/2000/svg" xmlns:ev="http://www.w3.org/2001/xml-events" xmlns:xlink="http://www.w3.org/1999/xlink"><defs /><polyline fill="none" points="76.3661,40.3525 62.4814,39.9186 55.1051,42.0881 33.4102,51.6339 26.0339,56.8407 22.1288,61.1797 19.0915,72.0271 18.6576,87.6475 24.2983,105.4373 33.4102,116.7186 47.2949,119.322 62.4814,118.4542 79.4034,113.6814 88.0814,108.9085 92.8542,105.4373 96.7593,99.7966 100.6644,87.2136 99.7966,77.6678 96.3254,68.5559 88.0814,56.8407 81.139,51.6339 70.7254,49.4644 61.1797,51.6339" stroke="#00007f" stroke-width="2" /><polyline fill="none" points="68.122,49.4644 88.9492,16.922 92.4203,12.5831 98.061,9.1119 99.3627,14.3186 97.1932,35.1458 91.5525,57.2746" stroke="#004cff" stroke-width="2" /><polyline fill="none" points="43.8237,49.8983 38.6169,40.3525 19.5254,15.1864 17.3559,8.678 9.1119,35.1458 8.678,45.9932 10.4136,52.9356 13.8847,58.1424 18.6576,62.4814 24.2983,64.6508" stroke="#29ffcd" stroke-width="2" /><polyline fill="none" points="24.7322,53.8034 15.6203,33.4102 14.7525,27.3356 18.6576,26.0339 20.3932,27.7695 22.5627,31.6746 25.6,42.9559 30.3729,45.1254 39.9186,42.9559" stroke="#cdff29" stroke-width="2" /><polyline fill="none" points="76.8,45.9932 86.3458,29.939 91.9864,22.5627 91.9864,44.2576 94.5898,49.4644" stroke="#ff6700" stroke-width="2" /><polyline fill="none" points="38.6169,83.7424 37.7492,90.2508 39.4847,93.722 42.9559,95.4576 52.0678,94.5898 57.2746,88.9492" stroke="#7f0000" stroke-width="2" /></svg>