<?xml version="1.0" encoding="utf-8" ?>
<svg baseProfile="tiny" height="128" version="1.2" viewBox="0,0,128,128" width="128" xmlns="http://www.w3.org/2000/svg" xmlns:ev="http://www.w3.org/2001/xml-events" xmlns:xlink="http://www.w3.org/1999/xlink"><defs /><polyline fill="none" points="9.9797,36.4475 10.4136,40.3525 13.8847,43.8237 17.7898,45.1254 31.2407,45.9932 32.9763,40.7864 32.9763,34.278 29.939,30.8068 21.6949,27.7695 13.4508,27.7695 10.4136,29.0712 9.9797,30.8068" stroke="#00007f" stroke-width="2" /><polyline fill="none" points="13.8847,23.8644 8.678,12.5831 8.678,8.678 15.1864,14.3186 20.3932,24.7322" stroke="#004cff" stroke-width="2" /><polyline fill="none" points="27.7695,25.6 35.5797,19.5254 35.5797,26.9017 32.9763,31.2407" stroke="#29ffcd" stroke-width="2" /><polyline fill="none" points="21.6949,44.6915 21.6949,49.0305 25.6,52.0678 33.8441,51.2 45.5593,46.861 65.0847,46.861 76.3661,48.1627 87.6475,52.5017 91.5525,54.6712 100.6644,65.0847 103.2678,72.461 103.2678,79.8373 93.722,85.478 78.5356,88.5153 74.1966,87.6475 65.0847,83.3085 52.5017,78.9695 48.5966,78.9695 29.0712,70.7254 25.6,67.6881 22.5627,60.7458 21.261,51.2" stroke="#cdff29" stroke-width="2" /><polyline fill="none" points="100.2305,71.5932 108.9085,69.4237 116.7186,71.1593 118.4542,75.0644 119.322,83.3085 118.4542,86.7797 115.8508,89.8169" stroke="#ff6700" stroke-width="2" /><polyline fill="none" points="101.0983,72.461 108.4746,78.5356 108.9085,85.478 111.9458,88.9492 116.2847,89.8169" stroke="#7f0000" stroke-width="2" /></svg>