<?xml version="1.0" encoding="utf-8" ?>
<svg baseProfile="tiny" height="128" version="1.2" viewBox="0,0,128,128" width="128" xmlns="http://www.w3.org/2000/svg" xmlns:ev="http://www.w3.org/2001/xml-events" xmlns:xlink="http://www.w3.org/1999/xlink"><defs /><polyline fill="none" points="49.0305,40.7864 40.7864,49.4644 36.8814,56.4068 35.1458,63.7831 35.5797,72.8949 38.1831,82.0068 42.9559,91.1186 49.0305,98.061 58.1424,102.8339 66.8203,103.7017 74.6305,101.0983 80.7051,95.8915 85.0441,88.5153 87.6475,79.4034 87.6475,70.7254 85.478,61.6136 81.5729,53.8034 75.4983,48.1627 63.7831,42.522 53.8034,42.0881 51.2,43.3898" stroke="#00007f" stroke-width="2" /><polyline fill="none" points="45.1254,45.1254 42.0881,8.678 58.5763,45.1254" stroke="#0000fe" stroke-width="2" /><polyline fill="none" points="72.8949,52.9356 73.3288,48.5966 77.2339,42.9559 94.1559,27.3356 94.1559,33.4102 91.1186,48.1627 85.478,59.878" stroke="#0060ff" stroke-width="2" /><polyline fill="none" points="44.2576,61.1797 47.2949,65.0847 52.9356,66.3864 55.1051,65.9525 55.1051,62.4814 49.8983,60.7458 48.5966,64.2169 52.0678,66.3864 53.3695,63.7831 52.5017,61.6136 50.7661,61.1797 50.7661,62.0475" stroke="#00d4ff" stroke-width="2" /><polyline fill="none" points="68.5559,69.8576 68.5559,74.1966 70.2915,76.3661 72.461,76.3661 74.1966,74.6305 74.1966,70.7254 71.1593,67.2542 70.2915,68.5559 72.461,69.8576 74.1966,67.2542" stroke="#4cffaa" stroke-width="2" /><polyline fill="none" points="54.6712,79.8373 59.878,82.8746 55.539,79.4034" stroke="#aaff4c" stroke-width="2" /><polyline fill="none" points="56.8407,82.4407 85.478,85.9119 108.0407,91.5525 115.8508,95.0237" stroke="#ffe500" stroke-width="2" /><polyline fill="none" points="54.2373,76.8 61.1797,80.2712 77.2339,92.8542 99.3627,113.6814" stroke="#ff7a00" stroke-width="2" /><polyline fill="none" points="47.2949,81.5729 60.7458,92.4203 85.478,119.322" stroke="#fe1200" stroke-width="2" /><polyline fill="none" points="56.8407,84.1763 50.7661,79.8373 8.678,63.3492" stroke="#7f0000" stroke-width="2" /></svg>