<?xml version="1.0" encoding="utf-8" ?>
<svg baseProfile="tiny" height="128" version="1.2" viewBox="0,0,128,128" width="128" xmlns="http://www.w3.org/2000/svg" xmlns:ev="http://www.w3.org/2001/xml-events" xmlns:xlink="http://www.w3.org/1999/xlink"><defs /><polyline fill="none" points="45.1254,29.0712 39.0508,31.2407 32.5424,36.4475 22.5627,51.6339 19.0915,63.7831 19.0915,75.9322 20.8271,82.4407 31.2407,99.7966 40.7864,110.2102 53.3695,117.1525 60.3119,118.8881 75.0644,119.322 87.6475,112.8136 92.4203,108.4746 99.3627,98.061 103.7017,86.7797 104.5695,80.7051 103.7017,62.0475 98.061,51.2 89.3831,40.7864 79.4034,32.5424 69.8576,27.7695 57.2746,24.7322 47.7288,24.7322 43.8237,26.9017 34.278,35.5797 28.6373,37.7492 22.5627,28.2034 19.5254,13.4508 23.8644,14.3186 43.8237,24.2983 54.2373,27.3356" stroke="#00007f" stroke-width="2" /><polyline fill="none" points="70.7254,26.9017 81.139,14.3186 88.5153,8.678 88.9492,16.0542 86.7797,28.2034 86.7797,36.0136" stroke="#0000fe" stroke-width="2" /><polyline fill="none" points="55.9729,64.2169 56.4068,68.122 53.3695,77.2339 60.3119,78.1017 65.5186,76.8 64.6508,71.1593 56.4068,62.4814" stroke="#0060ff" stroke-width="2" /><polyline fill="none" points="58.5763,64.2169 63.7831,60.3119 108.0407,38.6169" stroke="#00d4ff" stroke-width="2" /><polyline fill="none" points="62.4814,69.4237 72.461,67.6881 92.4203,60.7458 106.739,58.5763" stroke="#4cffaa" stroke-width="2" /><polyline fill="none" points="64.2169,77.6678 108.4746,76.8" stroke="#aaff4c" stroke-width="2" /><polyline fill="none" points="59.4441,68.122 8.678,66.8203" stroke="#ffe500" stroke-width="2" /><polyline fill="none" points="53.3695,78.9695 38.6169,78.9695 23.4305,84.1763 14.7525,89.8169" stroke="#ff7a00" stroke-width="2" /><polyline fill="none" points="59.4441,78.9695 21.261,101.0983 9.5458,111.078" stroke="#fe1200" stroke-width="2" /><polyline fill="none" points="46.4271,39.4847 44.2576,39.0508 41.2203,41.6542 38.1831,49.8983 38.1831,53.3695 39.9186,54.6712 44.2576,54.6712 46.861,52.5017 49.0305,46.861 49.0305,42.522 46.4271,39.9186" stroke="#7f0000" stroke-width="2" /></svg>