<?xml version="1.0" encoding="utf-8" ?>
<svg baseProfile="tiny" height="128" version="1.2" viewBox="0,0,128,128" width="128" xmlns="http://www.w3.org/2000/svg" xmlns:ev="http://www.w3.org/2001/xml-events" xmlns:xlink="http://www.w3.org/1999/xlink"><defs /><polyline fill="none" points="14.7525,39.0508 17.7898,34.7119 28.6373,32.1085 36.4475,37.7492 40.3525,44.2576 41.2203,47.7288 39.9186,52.9356 33.8441,57.2746 21.6949,57.7085 17.7898,55.539 12.1492,50.7661 9.9797,41.2203 9.9797,32.5424 14.7525,29.939" stroke="#00007f" stroke-width="2" /><polyline fill="none" points="10.4136,29.939 8.678,25.6 8.678,8.678 17.7898,16.0542 26.9017,37.7492" stroke="#0000d1" stroke-width="2" /><polyline fill="none" points="27.7695,33.4102 45.5593,21.6949 53.3695,15.1864 53.8034,17.3559 47.7288,32.9763 41.6542,38.1831 36.8814,47.2949" stroke="#0010ff" stroke-width="2" /><polyline fill="none" points="25.6,57.2746 28.6373,88.0814" stroke="#0058ff" stroke-width="2" /><polyline fill="none" points="28.6373,80.2712 39.0508,77.6678 75.9322,73.7627" stroke="#00a4ff" stroke-width="2" /><polyline fill="none" points="25.6,80.2712 24.2983,88.5153" stroke="#05ecf1" stroke-width="2" /><polyline fill="none" points="73.7627,74.6305 75.4983,85.0441" stroke="#3fffb7" stroke-width="2" /><polyline fill="none" points="72.461,72.8949 66.8203,85.0441 64.6508,86.7797" stroke="#7cff79" stroke-width="2" /><polyline fill="none" points="75.0644,72.8949 77.2339,65.0847 103.7017,64.6508 119.322,57.7085" stroke="#b7ff3f" stroke-width="2" /><polyline fill="none" points="119.322,57.7085 116.2847,63.7831 106.739,71.1593 79.8373,72.0271" stroke="#f1fc05" stroke-width="2" /><polyline fill="none" points="26.4678,72.8949 67.6881,72.461 82.4407,68.122" stroke="#ffb900" stroke-width="2" /><polyline fill="none" points="22.9966,48.1627 8.678,43.8237" stroke="#ff7300" stroke-width="2" /><polyline fill="none" points="25.6,49.4644 15.1864,49.4644" stroke="#ff3000" stroke-width="2" /><polyline fill="none" points="33.8441,47.7288 42.522,46.861" stroke="#d10000" stroke-width="2" /><polyline fill="none" points="31.6746,48.1627 39.9186,52.0678" stroke="#7f0000" stroke-width="2" /></svg>