<?xml version="1.0" encoding="utf-8" ?>
<svg baseProfile="tiny" height="128" version="1.2" viewBox="0,0,128,128" width="128" xmlns="http://www.w3.org/2000/svg" xmlns:ev="http://www.w3.org/2001/xml-events" xmlns:xlink="http://www.w3.org/1999/xlink"><defs /><polyline fill="none" points="38.1831,22.5627 40.7864,19.0915 48.1627,14.7525 57.2746,12.1492 69.4237,12.1492 79.4034,16.922 86.3458,13.0169 101.5322,8.678 101.0983,23.4305" stroke="#00007f" stroke-width="2" /><polyline fill="none" points="35.1458,20.8271 26.0339,18.2237 15.1864,17.7898 22.1288,31.6746 25.6,33.8441" stroke="#0000de" stroke-width="2" /><polyline fill="none" points="26.0339,35.5797 25.6,58.1424 29.939,66.8203 42.9559,75.0644 55.539,79.4034 67.2542,78.9695 73.7627,77.6678 86.3458,68.9898 99.3627,52.5017 102.4,46.861 105.4373,29.5051 104.5695,26.4678 99.7966,23.4305" stroke="#0028ff" stroke-width="2" /><polyline fill="none" points="54.2373,49.0305 71.1593,49.0305 72.461,50.7661 62.9153,58.1424 59.4441,55.539 53.8034,47.7288" stroke="#0080ff" stroke-width="2" /><polyline fill="none" points="64.6508,61.1797 60.3119,64.6508 55.1051,67.2542 53.3695,67.2542 49.4644,62.0475" stroke="#00d4ff" stroke-width="2" /><polyline fill="none" points="63.3492,62.4814 66.3864,66.3864 73.3288,69.8576 79.4034,70.2915 82.8746,66.8203" stroke="#36ffc0" stroke-width="2" /><polyline fill="none" points="85.0441,52.0678 114.1153,45.9932 119.322,45.9932" stroke="#7cff79" stroke-width="2" /><polyline fill="none" points="90.6847,54.2373 118.0203,62.4814" stroke="#c0ff36" stroke-width="2" /><polyline fill="none" points="90.2508,61.1797 102.4,67.6881" stroke="#ffe500" stroke-width="2" /><polyline fill="none" points="33.4102,53.3695 16.4881,54.2373 10.4136,52.9356 8.678,54.2373" stroke="#ff9400" stroke-width="2" /><polyline fill="none" points="30.8068,59.4441 10.4136,66.8203" stroke="#ff4600" stroke-width="2" /><polyline fill="none" points="39.9186,63.7831 30.8068,72.8949" stroke="#de0000" stroke-width="2" /><polyline fill="none" points="46.4271,34.7119 46.4271,34.7119" stroke="#7f0000" stroke-width="2" /></svg>