<?xml version="1.0" encoding="utf-8" ?>
<svg baseProfile="tiny" height="128" version="1.2" viewBox="0,0,128,128" width="128" xmlns="http://www.w3.org/2000/svg" xmlns:ev="http://www.w3.org/2001/xml-events" xmlns:xlink="http://www.w3.org/1999/xlink"><defs /><polyline fill="none" points="13.0169,62.9153 9.9797,67.6881 9.5458,73.7627 9.5458,85.0441 12.5831,88.5153 20.8271,90.2508 30.3729,89.3831 34.7119,85.0441 36.4475,78.1017 36.4475,74.1966 29.939,67.2542 13.0169,62.0475" stroke="#00007f" stroke-width="2" /><polyline fill="none" points="13.0169,64.2169 11.7153,57.2746 13.8847,47.7288 16.922,51.2 21.261,65.5186" stroke="#0000c8" stroke-width="2" /><polyline fill="none" points="22.5627,65.9525 33.4102,45.5593 35.1458,47.2949 35.1458,59.0102 33.4102,66.3864" stroke="#0000ff" stroke-width="2" /><polyline fill="none" points="16.0542,73.3288 16.0542,73.3288" stroke="#0040ff" stroke-width="2" /><polyline fill="none" points="13.8847,72.8949 17.7898,73.3288" stroke="#0080ff" stroke-width="2" /><polyline fill="none" points="25.1661,72.8949 28.2034,73.3288 31.6746,75.0644 28.2034,74.1966 29.939,75.0644" stroke="#00c0ff" stroke-width="2" /><polyline fill="none" points="15.6203,83.7424 16.0542,83.3085" stroke="#15ffe1" stroke-width="2" /><polyline fill="none" points="33.8441,86.3458 45.1254,87.6475 53.3695,84.6102 61.6136,84.6102 62.4814,89.8169 61.1797,92.4203 54.6712,95.8915 40.7864,95.8915 29.939,93.2881 28.2034,91.9864 29.5051,91.1186" stroke="#49ffad" stroke-width="2" /><polyline fill="none" points="60.3119,91.1186 66.3864,83.3085 67.6881,78.1017 67.6881,75.4983 62.0475,68.122 61.6136,51.6339 66.3864,43.8237 68.5559,43.8237 70.7254,44.6915 72.0271,47.2949 73.3288,53.8034 73.3288,70.2915 71.5932,73.7627 66.3864,77.6678 59.4441,79.4034" stroke="#7cff79" stroke-width="2" /><polyline fill="none" points="34.278,91.9864 32.1085,94.5898 32.1085,108.4746 28.6373,116.7186" stroke="#b0ff46" stroke-width="2" /><polyline fill="none" points="27.7695,119.322 26.0339,118.4542 27.3356,114.5492 33.4102,114.5492 32.5424,117.5864 29.5051,118.4542 22.9966,118.4542 19.9593,115.8508 20.3932,111.5119 22.1288,109.7763 26.4678,108.9085" stroke="#e4ff12" stroke-width="2" /><polyline fill="none" points="41.6542,89.8169 45.5593,99.7966 47.7288,108.9085 48.1627,115.8508 45.9932,117.1525 45.9932,115.4169 49.0305,114.9831 49.4644,116.7186 44.2576,118.0203" stroke="#ffcf00" stroke-width="2" /><polyline fill="none" points="60.3119,88.5153 74.1966,102.8339 72.8949,106.3051 70.2915,106.739 69.8576,104.5695 71.5932,102.8339 77.6678,102.8339 79.4034,104.1356 79.8373,106.739 78.5356,108.0407 74.1966,108.4746" stroke="#ff9400" stroke-width="2" /><polyline fill="none" points="43.8237,89.8169 54.2373,99.7966 66.3864,108.4746 66.8203,110.6441 65.5186,112.3797 60.3119,113.2475 61.6136,107.6068 66.8203,106.3051 67.6881,108.9085" stroke="#ff5900" stroke-width="2" /><polyline fill="none" points="8.678,13.8847 9.5458,24.2983 15.1864,36.4475 13.8847,32.5424 15.1864,26.4678 20.8271,26.0339 24.7322,29.0712 28.2034,14.3186 28.6373,12.1492 30.3729,11.7153 35.1458,23.4305 39.0508,29.5051 43.3898,33.8441 48.5966,35.5797" stroke="#ff1d00" stroke-width="2" /><polyline fill="none" points="43.8237,25.6 48.5966,22.5627 50.3322,19.5254 50.3322,13.4508 48.5966,13.4508 48.1627,18.6576 50.3322,25.1661 57.2746,31.6746 64.6508,32.1085" stroke="#c30000" stroke-width="2" /><polyline fill="none" points="59.0102,15.6203 68.9898,22.5627 66.8203,13.4508 73.3288,19.0915 73.7627,8.678" stroke="#7f0000" stroke-width="2" /></svg>