<?xml version="1.0" encoding="utf-8" ?>
<svg baseProfile="tiny" height="128" version="1.2" viewBox="0,0,128,128" width="128" xmlns="http://www.w3.org/2000/svg" xmlns:ev="http://www.w3.org/2001/xml-events" xmlns:xlink="http://www.w3.org/1999/xlink"><defs /><polyline fill="none" points="62.9153,34.7119 59.878,34.7119 54.2373,38.1831 45.5593,48.5966 38.6169,59.878 33.8441,73.7627 35.1458,95.8915 43.8237,111.5119 47.7288,115.8508 55.1051,119.322 62.4814,119.322 66.3864,118.4542 88.9492,108.4746 94.1559,104.1356 99.7966,95.0237 98.061,80.2712 88.0814,55.9729 72.0271,33.8441 65.9525,30.8068 60.7458,29.939" stroke="#00007f" stroke-width="2" /><polyline fill="none" points="75.9322,34.7119 77.6678,30.8068 85.478,24.7322 102.4,16.0542 107.6068,15.1864 110.6441,18.2237 111.9458,21.261 111.078,32.1085 108.9085,35.5797 94.5898,44.2576" stroke="#0000e8" stroke-width="2" /><polyline fill="none" points="40.7864,38.6169 36.0136,38.6169 28.6373,35.1458 20.8271,30.8068 12.1492,23.4305 9.1119,19.0915 8.678,12.1492 13.0169,8.678 25.6,8.678 38.6169,13.4508 50.3322,19.9593 55.539,26.0339 61.1797,36.4475" stroke="#0038ff" stroke-width="2" /><polyline fill="none" points="97.6271,28.2034 102.4,24.7322 116.2847,24.2983 117.5864,27.7695 117.1525,34.7119 111.9458,40.3525 106.739,43.3898" stroke="#0094ff" stroke-width="2" /><polyline fill="none" points="37.3153,28.2034 29.939,17.7898 34.278,15.6203 39.0508,15.6203 49.0305,19.5254 55.1051,23.4305 56.4068,26.0339" stroke="#0cf4ea" stroke-width="2" /><polyline fill="none" points="68.5559,75.9322 65.0847,78.9695 64.6508,87.2136" stroke="#56ffa0" stroke-width="2" /><polyline fill="none" points="52.9356,91.5525 55.9729,93.2881 59.4441,93.2881 78.9695,78.9695" stroke="#a0ff56" stroke-width="2" /><polyline fill="none" points="55.539,87.6475 60.7458,90.6847 65.5186,91.1186 81.5729,91.1186 92.8542,88.9492" stroke="#eaff0c" stroke-width="2" /><polyline fill="none" points="82.4407,87.6475 93.2881,98.061 105.4373,104.1356" stroke="#ffaa00" stroke-width="2" /><polyline fill="none" points="77.2339,91.1186 96.7593,104.1356" stroke="#ff5500" stroke-width="2" /><polyline fill="none" points="52.0678,84.6102 45.5593,85.9119 32.5424,94.1559 29.5051,94.5898" stroke="#e80000" stroke-width="2" /><polyline fill="none" points="49.0305,99.7966 36.8814,103.2678" stroke="#7f0000" stroke-width="2" /></svg>