<?xml version="1.0" encoding="utf-8" ?>
<svg baseProfile="tiny" height="128" version="1.2" viewBox="0,0,128,128" width="128" xmlns="http://www.w3.org/2000/svg" xmlns:ev="http://www.w3.org/2001/xml-events" xmlns:xlink="http://www.w3.org/1999/xlink"><defs /><polyline fill="none" points="70.7254,97.6271 65.9525,98.9288 42.522,98.9288 32.1085,93.2881 23.8644,82.4407 18.6576,71.5932 17.3559,54.2373 19.0915,49.0305 29.0712,39.0508 42.522,29.5051 59.878,22.9966 78.1017,23.4305 88.5153,32.5424 99.7966,48.1627 103.7017,56.4068 105.0034,66.3864 100.6644,73.7627 97.1932,76.8 68.9898,90.2508 55.539,91.9864" stroke="#00007f" stroke-width="2" /><polyline fill="none" points="20.3932,42.522 17.3559,41.2203 8.678,10.4136 11.7153,8.678 16.0542,9.5458 41.2203,26.9017" stroke="#7cff79" stroke-width="2" /><polyline fill="none" points="91.5525,37.3153 89.8169,35.1458 95.4576,25.6 106.3051,17.3559 116.2847,12.1492 119.322,22.5627 118.4542,37.3153 111.5119,45.5593 101.5322,52.0678" stroke="#7f0000" stroke-width="2" /></svg>