<?xml version="1.0" encoding="utf-8" ?>
<svg baseProfile="tiny" height="128" version="1.2" viewBox="0,0,128,128" width="128" xmlns="http://www.w3.org/2000/svg" xmlns:ev="http://www.w3.org/2001/xml-events" xmlns:xlink="http://www.w3.org/1999/xlink"><defs /><polyline fill="none" points="61.3878,92.7347 52.6803,95.3469 40.4898,95.3469 29.1701,93.6054 21.3333,90.9932 16.1088,87.9456 10.8844,81.415 8.7075,72.2721 20.0272,36.1361 26.9932,22.2041 34.8299,16.1088 48.7619,8.7075 63.5646,9.5782 71.8367,14.8027 76.6259,20.0272 77.4966,34.3946 66.6122,63.1293 55.7279,87.0748 53.1156,89.6871 48.7619,87.9456" stroke="#00007f" stroke-width="2" /><polyline fill="none" points="42.2313,23.5102 37.8776,26.9932" stroke="#0000ff" stroke-width="2" /><polyline fill="none" points="65.7415,20.898 59.2109,28.7347" stroke="#0080ff" stroke-width="2" /><polyline fill="none" points="47.0204,43.102 45.7143,47.4558" stroke="#15ffe1" stroke-width="2" /><polyline fill="none" points="26.5578,60.517 26.9932,64.4354 30.0408,69.6599 34.8299,73.1429 53.551,74.0136 66.6122,70.966" stroke="#7cff79" stroke-width="2" /><polyline fill="none" points="55.2925,92.7347 63.5646,97.0884 76.6259,100.5714 101.0068,90.9932 102.7483,88.8163" stroke="#e4ff12" stroke-width="2" /><polyline fill="none" points="57.034,94.4762 42.2313,105.3605 27.4286,110.1497 20.4626,110.585 26.1224,110.585" stroke="#ff9400" stroke-width="2" /><polyline fill="none" points="58.7755,95.7823 58.3401,117.9864 58.3401,119.2925 60.0816,118.4218" stroke="#ff1d00" stroke-width="2" /><polyline fill="none" points="67.483,104.0544 72.7075,107.9728 76.6259,114.5034" stroke="#7f0000" stroke-width="2" /></svg>