<?xml version="1.0" encoding="utf-8" ?>
<svg baseProfile="tiny" height="128" version="1.2" viewBox="0,0,128,128" width="128" xmlns="http://www.w3.org/2000/svg" xmlns:ev="http://www.w3.org/2001/xml-events" xmlns:xlink="http://www.w3.org/1999/xlink"><defs /><polyline fill="none" points="81.5729,30.3729 80.2712,26.9017 75.9322,23.4305 68.9898,22.1288 58.1424,26.4678 42.0881,37.7492 38.1831,42.9559 36.8814,51.2 36.8814,58.1424 41.2203,72.8949 45.9932,83.7424 55.539,98.061 57.2746,98.4949 64.6508,92.4203 77.2339,74.1966 81.139,60.3119 82.4407,40.3525 79.8373,25.6" stroke="#00007f" stroke-width="2" /><polyline fill="none" points="79.8373,25.6 90.2508,9.5458 91.5525,10.4136 91.5525,19.9593 82.0068,45.5593" stroke="#0000ff" stroke-width="2" /><polyline fill="none" points="57.7085,25.6 51.6339,16.922 40.7864,8.678 40.3525,11.7153 45.5593,29.5051" stroke="#0080ff" stroke-width="2" /><polyline fill="none" points="66.8203,60.7458 104.5695,61.1797 98.061,65.9525" stroke="#15ffe1" stroke-width="2" /><polyline fill="none" points="72.8949,72.8949 93.722,76.3661 119.322,84.6102" stroke="#7cff79" stroke-width="2" /><polyline fill="none" points="63.7831,78.9695 85.0441,85.0441 88.5153,87.2136" stroke="#e4ff12" stroke-width="2" /><polyline fill="none" points="40.3525,62.4814 8.678,60.7458" stroke="#ff9400" stroke-width="2" /><polyline fill="none" points="45.1254,66.8203 26.9017,68.122" stroke="#ff1d00" stroke-width="2" /><polyline fill="none" points="50.7661,72.461 14.7525,81.5729" stroke="#7f0000" stroke-width="2" /></svg>