<?xml version="1.0" encoding="utf-8" ?>
<svg baseProfile="tiny" height="128" version="1.2" viewBox="0,0,128,128" width="128" xmlns="http://www.w3.org/2000/svg" xmlns:ev="http://www.w3.org/2001/xml-events" xmlns:xlink="http://www.w3.org/1999/xlink"><defs /><polyline fill="none" points="103.2678,21.6949 89.3831,21.6949 82.4407,23.8644 76.3661,29.0712 72.0271,37.7492 72.0271,46.4271 76.3661,52.5017 84.6102,55.1051 98.9288,55.539 102.4,54.2373 107.6068,49.4644 110.6441,44.2576 111.5119,37.7492 106.3051,26.4678 98.4949,22.1288" stroke="#00007f" stroke-width="2" /><polyline fill="none" points="77.6678,25.6 76.3661,16.0542 77.2339,13.0169 81.139,9.9797 82.8746,10.8475 89.8169,22.5627" stroke="#0000e8" stroke-width="2" /><polyline fill="none" points="95.8915,19.9593 104.5695,8.678 105.4373,11.7153 102.8339,26.0339" stroke="#0038ff" stroke-width="2" /><polyline fill="none" points="87.6475,41.2203 91.5525,41.2203" stroke="#0094ff" stroke-width="2" /><polyline fill="none" points="81.139,28.2034 80.2712,33.8441 84.1763,31.6746 84.1763,29.5051 82.0068,28.6373 85.478,28.2034" stroke="#0cf4ea" stroke-width="2" /><polyline fill="none" points="98.061,29.939 94.1559,31.6746 93.722,32.9763 95.0237,35.1458 98.4949,35.5797 99.7966,33.4102 98.061,31.2407 93.722,30.3729" stroke="#56ffa0" stroke-width="2" /><polyline fill="none" points="90.2508,50.3322 96.3254,51.2 99.3627,44.2576" stroke="#a0ff56" stroke-width="2" /><polyline fill="none" points="78.5356,39.4847 65.9525,42.0881" stroke="#eaff0c" stroke-width="2" /><polyline fill="none" points="79.8373,45.1254 68.122,45.9932" stroke="#ffaa00" stroke-width="2" /><polyline fill="none" points="103.7017,35.5797 114.1153,36.0136" stroke="#ff5500" stroke-width="2" /><polyline fill="none" points="105.0034,42.9559 119.322,43.3898" stroke="#e80000" stroke-width="2" /><polyline fill="none" points="72.0271,47.7288 70.7254,47.2949 66.3864,54.6712 60.3119,55.9729 20.8271,52.5017 13.0169,57.7085 8.678,64.2169" stroke="#7f0000" stroke-width="2" /></svg>