<?xml version="1.0" encoding="utf-8" ?>
<svg baseProfile="tiny" height="128" version="1.2" viewBox="0,0,128,128" width="128" xmlns="http://www.w3.org/2000/svg" xmlns:ev="http://www.w3.org/2001/xml-events" xmlns:xlink="http://www.w3.org/1999/xlink"><defs /><polyline fill="none" points="71.1593,44.2576 53.8034,39.4847 42.9559,39.9186 38.1831,42.0881 33.8441,45.9932 31.2407,51.2 31.2407,62.0475 33.4102,68.122 42.522,86.3458 49.4644,91.9864 55.9729,94.1559 69.8576,94.5898 80.7051,89.3831 85.0441,82.8746 86.3458,66.3864 78.5356,49.4644 66.8203,32.1085" stroke="#00007f" stroke-width="2" /><polyline fill="none" points="52.0678,41.6542 32.5424,15.1864 26.4678,9.9797 20.3932,8.678 18.2237,12.1492 18.2237,15.6203 21.6949,28.6373 26.9017,39.0508 36.0136,50.3322" stroke="#0000d5" stroke-width="2" /><polyline fill="none" points="52.5017,37.7492 54.6712,37.3153 56.8407,30.8068 65.5186,18.6576 72.8949,15.1864 75.0644,18.2237 76.3661,50.3322" stroke="#001cff" stroke-width="2" /><polyline fill="none" points="48.1627,61.1797 52.0678,60.3119" stroke="#006cff" stroke-width="2" /><polyline fill="none" points="64.2169,58.5763 64.2169,58.5763" stroke="#00b8ff" stroke-width="2" /><polyline fill="none" points="61.6136,55.539 64.2169,53.3695" stroke="#1cffda" stroke-width="2" /><polyline fill="none" points="60.7458,69.4237 63.3492,71.5932 65.0847,71.5932 65.0847,70.7254" stroke="#5cff9a" stroke-width="2" /><polyline fill="none" points="55.9729,79.8373 58.5763,81.139 72.0271,81.139 80.7051,74.1966" stroke="#9aff5c" stroke-width="2" /><polyline fill="none" points="73.7627,65.9525 77.6678,66.3864 78.1017,62.4814" stroke="#daff1c" stroke-width="2" /><polyline fill="none" points="52.0678,72.461 49.8983,74.1966 47.2949,71.1593" stroke="#ffcb00" stroke-width="2" /><polyline fill="none" points="51.2,73.3288 27.3356,84.1763 14.7525,86.3458" stroke="#ff8500" stroke-width="2" /><polyline fill="none" points="43.8237,88.5153 37.3153,93.722 28.6373,96.3254 8.678,98.061" stroke="#ff3b00" stroke-width="2" /><polyline fill="none" points="69.8576,66.8203 75.0644,65.0847 100.6644,47.2949 105.0034,43.8237 109.7763,36.0136" stroke="#d50000" stroke-width="2" /><polyline fill="none" points="91.9864,57.2746 101.5322,59.0102 110.6441,58.1424 117.1525,52.5017 119.322,47.2949" stroke="#7f0000" stroke-width="2" /></svg>