<?xml version="1.0" encoding="utf-8" ?>
<svg baseProfile="tiny" height="128" version="1.2" viewBox="0,0,128,128" width="128" xmlns="http://www.w3.org/2000/svg" xmlns:ev="http://www.w3.org/2001/xml-events" xmlns:xlink="http://www.w3.org/1999/xlink"><defs /><polyline fill="none" points="41.2203,52.0678 22.9966,64.2169 11.2814,75.4983 8.678,79.8373 10.8475,95.8915 13.0169,101.5322 17.3559,106.3051 28.2034,112.3797 38.1831,116.7186 50.3322,119.322 57.7085,119.322 69.4237,115.8508 75.9322,111.078 80.2712,105.4373 82.8746,95.4576 82.8746,84.6102 78.5356,66.3864 74.6305,58.1424 70.2915,52.9356 65.5186,49.4644 60.7458,49.0305 43.3898,55.539" stroke="#00007f" stroke-width="2" /><polyline fill="none" points="17.7898,68.122 16.4881,62.9153 16.0542,44.2576 16.922,33.8441 20.3932,28.2034 42.9559,58.1424" stroke="#004cff" stroke-width="2" /><polyline fill="none" points="60.3119,55.539 61.6136,39.9186 65.0847,26.9017 69.8576,13.0169 74.6305,8.678 82.0068,50.7661 81.5729,55.9729 78.9695,61.1797 79.8373,58.1424" stroke="#29ffcd" stroke-width="2" /><polyline fill="none" points="33.4102,76.3661 36.4475,88.0814 36.8814,77.6678" stroke="#cdff29" stroke-width="2" /><polyline fill="none" points="62.4814,72.461 64.6508,73.7627" stroke="#ff6700" stroke-width="2" /><polyline fill="none" points="35.1458,102.4 63.3492,101.5322 65.5186,101.5322 65.9525,99.7966" stroke="#7f0000" stroke-width="2" /></svg>