<?xml version="1.0" encoding="utf-8" ?>
<svg baseProfile="tiny" height="128" version="1.2" viewBox="0,0,128,128" width="128" xmlns="http://www.w3.org/2000/svg" xmlns:ev="http://www.w3.org/2001/xml-events" xmlns:xlink="http://www.w3.org/1999/xlink"><defs /><polyline fill="none" points="45.9932,23.4305 40.3525,31.2407 38.1831,39.9186 38.1831,47.2949 42.9559,53.8034 49.0305,56.8407 58.5763,56.4068 68.122,50.7661 75.4983,42.522 77.2339,32.5424 73.3288,27.3356 65.9525,27.3356 53.3695,30.8068" stroke="#00007f" stroke-width="2" /><polyline fill="none" points="41.2203,24.7322 46.861,22.9966 63.3492,21.6949 78.1017,26.4678 79.4034,27.3356 79.8373,32.1085" stroke="#0000f1" stroke-width="2" /><polyline fill="none" points="39.9186,30.8068 42.9559,20.3932 49.4644,8.678 50.7661,19.0915" stroke="#004cff" stroke-width="2" /><polyline fill="none" points="72.0271,23.8644 87.6475,11.7153 78.5356,32.1085" stroke="#00b0ff" stroke-width="2" /><polyline fill="none" points="53.3695,43.3898 52.9356,42.9559" stroke="#29ffcd" stroke-width="2" /><polyline fill="none" points="49.4644,32.1085 49.4644,32.5424" stroke="#7cff79" stroke-width="2" /><polyline fill="none" points="61.6136,33.8441 60.7458,34.278" stroke="#cdff29" stroke-width="2" /><polyline fill="none" points="47.7288,42.9559 39.0508,39.9186 21.261,39.0508" stroke="#ffc400" stroke-width="2" /><polyline fill="none" points="48.5966,48.1627 8.678,45.5593" stroke="#ff6700" stroke-width="2" /><polyline fill="none" points="61.1797,44.6915 78.5356,39.9186 91.1186,39.9186 94.1559,41.2203" stroke="#f10700" stroke-width="2" /><polyline fill="none" points="57.7085,50.3322 88.0814,52.5017 119.322,58.1424" stroke="#7f0000" stroke-width="2" /></svg>