<?xml version="1.0" encoding="utf-8" ?>
<svg baseProfile="tiny" height="128" version="1.2" viewBox="0,0,128,128" width="128" xmlns="http://www.w3.org/2000/svg" xmlns:ev="http://www.w3.org/2001/xml-events" xmlns:xlink="http://www.w3.org/1999/xlink"><defs /><polyline fill="none" points="49.0305,40.7864 41.6542,38.1831 35.1458,39.0508 22.5627,45.9932 15.1864,53.8034 13.4508,61.6136 13.0169,76.8 16.0542,91.1186 23.8644,101.9661 41.2203,112.3797 49.0305,111.078 60.3119,107.1729 72.0271,101.0983 76.8,96.7593 84.6102,73.7627 85.9119,54.2373 82.8746,52.9356 53.3695,51.6339 40.3525,53.8034" stroke="#00007f" stroke-width="2" /><polyline fill="none" points="26.0339,79.8373 11.2814,95.4576 8.678,100.2305" stroke="#0000d1" stroke-width="2" /><polyline fill="none" points="29.939,96.3254 26.9017,98.061 22.5627,103.2678 20.3932,108.0407 21.6949,108.4746" stroke="#0010ff" stroke-width="2" /><polyline fill="none" points="35.5797,107.1729 31.6746,117.1525" stroke="#0058ff" stroke-width="2" /><polyline fill="none" points="74.6305,80.7051 95.0237,94.5898 99.7966,99.7966 95.8915,102.4" stroke="#00a4ff" stroke-width="2" /><polyline fill="none" points="76.3661,102.4 79.4034,107.6068 82.4407,109.7763 86.7797,119.322" stroke="#05ecf1" stroke-width="2" /><polyline fill="none" points="65.0847,102.8339 70.2915,110.2102 72.461,116.7186 72.461,113.2475" stroke="#3fffb7" stroke-width="2" /><polyline fill="none" points="40.3525,68.5559 40.3525,68.5559" stroke="#7cff79" stroke-width="2" /><polyline fill="none" points="60.3119,69.4237 60.3119,69.4237" stroke="#b7ff3f" stroke-width="2" /><polyline fill="none" points="37.7492,68.5559 37.7492,68.5559" stroke="#f1fc05" stroke-width="2" /><polyline fill="none" points="39.0508,68.5559 40.7864,69.4237 39.9186,66.8203" stroke="#ffb900" stroke-width="2" /><polyline fill="none" points="39.9186,66.8203 43.8237,72.8949 52.9356,79.4034" stroke="#ff7300" stroke-width="2" /><polyline fill="none" points="44.6915,80.7051 49.0305,88.0814 54.2373,91.5525 62.4814,94.5898 68.5559,95.8915 74.6305,94.5898 78.1017,89.3831" stroke="#ff3000" stroke-width="2" /><polyline fill="none" points="29.939,53.8034 21.6949,41.2203 16.0542,25.6 13.8847,13.4508 17.3559,8.678 26.9017,16.4881 35.5797,26.0339 39.0508,31.6746 44.6915,48.5966" stroke="#d10000" stroke-width="2" /><polyline fill="none" points="67.2542,46.861 71.5932,51.6339 75.0644,41.6542 88.5153,22.1288 95.8915,17.7898 107.1729,14.7525 105.0034,28.2034 100.2305,40.7864 91.5525,49.4644 78.1017,56.8407" stroke="#7f0000" stroke-width="2" /></svg>