<?xml version="1.0" encoding="utf-8" ?>
<svg baseProfile="tiny" height="128" version="1.2" viewBox="0,0,128,128" width="128" xmlns="http://www.w3.org/2000/svg" xmlns:ev="http://www.w3.org/2001/xml-events" xmlns:xlink="http://www.w3.org/1999/xlink"><defs /><polyline fill="none" points="45.9932,80.2712 44.2576,61.6136" stroke="#00007f" stroke-width="2" /><polyline fill="none" points="80.2712,81.139 81.139,62.9153" stroke="#0000d1" stroke-width="2" /><polyline fill="none" points="44.6915,62.4814 33.8441,62.0475 30.3729,60.7458 27.3356,55.539 28.6373,51.2 40.7864,45.5593 54.2373,43.3898 64.6508,42.9559 93.722,45.9932 103.2678,50.7661 104.5695,53.3695 104.5695,56.4068 100.2305,62.0475 78.9695,62.9153" stroke="#0010ff" stroke-width="2" /><polyline fill="none" points="43.3898,60.7458 82.4407,62.9153" stroke="#0058ff" stroke-width="2" /><polyline fill="none" points="76.3661,62.0475 76.3661,80.2712" stroke="#00a4ff" stroke-width="2" /><polyline fill="none" points="50.3322,62.4814 52.9356,79.8373" stroke="#05ecf1" stroke-width="2" /><polyline fill="none" points="27.7695,52.5017 24.2983,51.6339 20.3932,48.1627 8.678,33.4102" stroke="#3fffb7" stroke-width="2" /><polyline fill="none" points="94.5898,45.9932 103.7017,28.6373 96.7593,24.7322 96.7593,19.9593 100.6644,16.922 105.4373,16.0542 110.2102,16.0542 115.8508,19.5254 118.4542,23.4305 118.0203,29.0712 110.6441,30.3729 106.3051,28.2034" stroke="#7cff79" stroke-width="2" /><polyline fill="none" points="103.2678,16.0542 95.0237,13.8847 86.3458,14.3186" stroke="#b7ff3f" stroke-width="2" /><polyline fill="none" points="106.739,17.3559 98.061,10.4136 91.1186,9.1119" stroke="#f1fc05" stroke-width="2" /><polyline fill="none" points="93.2881,8.678 105.4373,17.3559" stroke="#ffb900" stroke-width="2" /><polyline fill="none" points="88.5153,13.8847 93.722,15.1864 98.9288,19.0915" stroke="#ff7300" stroke-width="2" /><polyline fill="none" points="113.6814,22.1288 113.6814,22.1288" stroke="#ff3000" stroke-width="2" /><polyline fill="none" points="112.8136,19.5254 112.8136,23.8644" stroke="#d10000" stroke-width="2" /><polyline fill="none" points="119.322,23.4305 114.5492,29.939" stroke="#7f0000" stroke-width="2" /></svg>