<?xml version="1.0" encoding="utf-8" ?>
<svg baseProfile="tiny" height="128" version="1.2" viewBox="0,0,128,128" width="128" xmlns="http://www.w3.org/2000/svg" xmlns:ev="http://www.w3.org/2001/xml-events" xmlns:xlink="http://www.w3.org/1999/xlink"><defs /><polyline fill="none" points="31.2407,48.1627 26.4678,53.8034 20.8271,65.5186 19.0915,76.3661 32.5424,95.8915 44.2576,103.2678 60.3119,108.4746 79.4034,110.6441 91.1186,110.6441 98.061,108.4746 103.7017,105.0034 108.0407,98.4949 111.078,90.6847 112.8136,78.5356 112.8136,70.2915 106.739,55.539 100.6644,42.9559 96.7593,42.522 100.6644,39.4847 105.8712,30.8068 111.078,8.678 104.5695,11.2814 85.0441,22.5627 73.7627,33.4102 65.0847,33.8441 54.2373,36.8814 51.2,33.8441 40.7864,15.6203 37.3153,12.1492 33.8441,10.4136 29.939,19.9593 29.939,47.2949" stroke="#00007f" stroke-width="2" /><polyline fill="none" points="49.0305,55.539 44.6915,57.2746 41.6542,60.7458 47.7288,63.3492 52.9356,64.2169 59.878,59.4441 59.4441,57.2746 57.2746,56.8407 48.1627,58.1424" stroke="#0000f1" stroke-width="2" /><polyline fill="none" points="79.4034,57.7085 77.2339,57.7085 75.0644,61.6136 75.0644,63.3492 79.4034,63.7831 89.3831,59.878 91.5525,55.9729 86.7797,56.8407" stroke="#004cff" stroke-width="2" /><polyline fill="none" points="81.5729,55.539 81.5729,60.7458" stroke="#00b0ff" stroke-width="2" /><polyline fill="none" points="50.7661,55.539 50.7661,59.4441" stroke="#29ffcd" stroke-width="2" /><polyline fill="none" points="66.8203,77.6678 66.3864,79.4034 68.122,79.8373 68.9898,78.1017 67.2542,77.6678 65.5186,79.8373 65.5186,87.2136 67.6881,97.1932 71.5932,98.9288 79.8373,95.8915" stroke="#7cff79" stroke-width="2" /><polyline fill="none" points="64.2169,79.4034 62.9153,86.7797 60.7458,91.1186 53.3695,90.6847 49.0305,86.7797" stroke="#cdff29" stroke-width="2" /><polyline fill="none" points="76.3661,78.1017 97.1932,71.5932 114.1153,68.9898" stroke="#ffc400" stroke-width="2" /><polyline fill="none" points="83.3085,78.1017 118.0203,78.1017 118.4542,78.9695" stroke="#ff6700" stroke-width="2" /><polyline fill="none" points="78.1017,80.7051 91.5525,80.7051 98.4949,82.4407 119.322,91.9864" stroke="#f10700" stroke-width="2" /><polyline fill="none" points="48.5966,76.3661 8.678,76.3661" stroke="#7f0000" stroke-width="2" /></svg>