<?xml version="1.0" encoding="utf-8" ?>
<svg baseProfile="tiny" height="128" version="1.2" viewBox="0,0,128,128" width="128" xmlns="http://www.w3.org/2000/svg" xmlns:ev="http://www.w3.org/2001/xml-events" xmlns:xlink="http://www.w3.org/1999/xlink"><defs /><polyline fill="none" points="30.3729,47.2949 28.6373,43.8237 26.0339,26.9017 25.6,9.5458 29.0712,13.4508 41.2203,36.8814 48.1627,47.7288" stroke="#00007f" stroke-width="2" /><polyline fill="none" points="67.2542,44.6915 83.7424,8.678 88.9492,22.5627 92.8542,52.0678" stroke="#0000de" stroke-width="2" /><polyline fill="none" points="84.6102,52.5017 62.4814,42.0881 48.5966,41.6542 38.1831,44.2576 32.1085,48.1627 26.9017,61.1797 26.0339,73.3288 27.7695,79.8373 44.6915,90.6847 56.4068,94.1559 67.2542,94.1559 73.7627,92.4203 86.3458,85.9119 94.1559,73.3288 97.6271,56.8407 93.722,52.0678 77.6678,45.1254" stroke="#0028ff" stroke-width="2" /><polyline fill="none" points="39.9186,57.7085 52.0678,56.8407 56.4068,60.3119 57.2746,64.2169 53.8034,66.8203 48.1627,66.8203 42.522,64.6508 39.4847,60.7458" stroke="#0080ff" stroke-width="2" /><polyline fill="none" points="68.122,62.0475 74.1966,60.3119 85.478,60.3119 89.8169,63.3492 87.2136,68.5559 82.4407,70.2915 69.4237,64.2169" stroke="#00d4ff" stroke-width="2" /><polyline fill="none" points="50.7661,84.1763 70.2915,87.2136" stroke="#36ffc0" stroke-width="2" /><polyline fill="none" points="78.9695,72.8949 90.2508,77.2339 119.322,85.0441" stroke="#7cff79" stroke-width="2" /><polyline fill="none" points="50.3322,73.3288 19.9593,80.7051 13.0169,85.9119" stroke="#c0ff36" stroke-width="2" /><polyline fill="none" points="53.3695,80.7051 45.5593,81.5729 19.5254,93.722" stroke="#ffe500" stroke-width="2" /><polyline fill="none" points="79.4034,75.0644 82.4407,82.0068 86.7797,87.6475 92.8542,91.9864 108.0407,96.3254" stroke="#ff9400" stroke-width="2" /><polyline fill="none" points="75.0644,81.5729 105.8712,97.6271" stroke="#ff4600" stroke-width="2" /><polyline fill="none" points="77.6678,82.4407 107.1729,87.2136" stroke="#de0000" stroke-width="2" /><polyline fill="none" points="40.7864,75.4983 26.4678,73.3288 8.678,74.6305" stroke="#7f0000" stroke-width="2" /></svg>