<?xml version="1.0" encoding="utf-8" ?>
<svg baseProfile="tiny" height="128" version="1.2" viewBox="0,0,128,128" width="128" xmlns="http://www.w3.org/2000/svg" xmlns:ev="http://www.w3.org/2001/xml-events" xmlns:xlink="http://www.w3.org/1999/xlink"><defs /><polyline fill="none" points="48.1627,14.3186 43.3898,16.4881 36.4475,25.1661 32.5424,32.1085 29.939,45.1254 31.2407,52.0678 35.1458,62.4814 42.9559,72.8949 51.2,78.5356 65.9525,79.8373 81.5729,77.6678 92.8542,73.3288 103.2678,63.3492 105.4373,59.0102 106.739,50.3322 101.5322,34.278 97.6271,28.6373 89.3831,22.1288 74.1966,15.6203 59.0102,13.4508 47.7288,13.8847" stroke="#00007f" stroke-width="2" /><polyline fill="none" points="64.2169,44.2576 63.3492,47.7288 64.6508,47.7288 65.0847,43.3898 63.7831,42.522 62.9153,44.6915" stroke="#0000d5" stroke-width="2" /><polyline fill="none" points="63.3492,44.2576 61.6136,47.7288 63.3492,48.5966 65.5186,45.5593" stroke="#001cff" stroke-width="2" /><polyline fill="none" points="63.3492,47.7288 60.7458,64.2169" stroke="#006cff" stroke-width="2" /><polyline fill="none" points="53.3695,60.7458 63.3492,65.5186 67.2542,63.7831 73.3288,57.7085" stroke="#00b8ff" stroke-width="2" /><polyline fill="none" points="61.1797,46.861 52.0678,47.7288 35.1458,41.2203" stroke="#1cffda" stroke-width="2" /><polyline fill="none" points="57.2746,42.522 51.2,45.5593 39.4847,45.5593 37.3153,44.6915" stroke="#5cff9a" stroke-width="2" /><polyline fill="none" points="68.9898,44.6915 85.0441,47.2949 90.2508,46.861 91.5525,45.1254" stroke="#9aff5c" stroke-width="2" /><polyline fill="none" points="67.2542,49.8983 82.8746,53.3695 89.3831,52.0678 89.8169,49.0305" stroke="#daff1c" stroke-width="2" /><polyline fill="none" points="58.1424,27.3356 59.0102,35.5797" stroke="#ffcb00" stroke-width="2" /><polyline fill="none" points="74.6305,28.2034 76.8,36.8814" stroke="#ff8500" stroke-width="2" /><polyline fill="none" points="89.3831,24.2983 93.722,20.8271 111.9458,13.0169 119.322,8.678 118.0203,14.3186 112.8136,24.2983 108.0407,29.939 98.061,36.8814" stroke="#ff3b00" stroke-width="2" /><polyline fill="none" points="39.4847,18.2237 24.7322,12.1492 8.678,9.9797 25.1661,32.9763 29.5051,36.4475" stroke="#d50000" stroke-width="2" /><polyline fill="none" points="34.278,105.0034 32.9763,113.2475 35.5797,117.1525 42.0881,114.9831 45.5593,111.5119 51.2,117.1525 55.1051,117.5864 56.8407,110.2102" stroke="#7f0000" stroke-width="2" /></svg>