<?xml version="1.0" encoding="utf-8" ?>
<svg baseProfile="tiny" height="128" version="1.2" viewBox="0,0,128,128" width="128" xmlns="http://www.w3.org/2000/svg" xmlns:ev="http://www.w3.org/2001/xml-events" xmlns:xlink="http://www.w3.org/1999/xlink"><defs /><polyline fill="none" points="20.8271,28.6373 18.2237,24.7322 17.7898,20.8271 19.0915,8.678 23.8644,12.5831 32.5424,24.7322" stroke="#00007f" stroke-width="2" /><polyline fill="none" points="31.6746,24.7322 31.6746,22.9966 35.5797,22.1288 44.2576,22.1288 50.3322,24.2983" stroke="#0000c3" stroke-width="2" /><polyline fill="none" points="48.5966,23.4305 56.4068,13.8847 61.1797,12.1492 62.9153,16.4881 62.9153,23.8644" stroke="#0000ff" stroke-width="2" /><polyline fill="none" points="53.8034,22.9966 53.3695,21.6949 57.2746,15.6203 59.0102,22.5627" stroke="#0034ff" stroke-width="2" /><polyline fill="none" points="24.7322,22.1288 24.2983,16.922 22.9966,15.1864 21.261,23.8644" stroke="#0070ff" stroke-width="2" /><polyline fill="none" points="21.6949,28.2034 18.2237,29.939 16.4881,35.1458 15.6203,49.0305 17.3559,53.3695 23.8644,59.878 32.5424,64.6508 46.4271,66.3864 55.539,63.7831 62.4814,56.8407 68.122,32.5424 68.122,28.6373 64.6508,25.6 63.7831,26.4678" stroke="#00acff" stroke-width="2" /><polyline fill="none" points="40.7864,42.522 37.3153,42.9559 35.1458,46.4271 35.5797,49.0305 39.9186,49.4644 42.9559,47.7288 43.3898,45.1254 39.4847,45.1254 38.6169,49.0305 40.3525,49.4644 41.6542,47.7288 39.9186,45.9932 40.7864,48.5966 42.0881,47.7288 42.0881,45.9932 37.7492,44.2576 36.4475,45.9932 36.4475,49.0305 39.0508,50.7661 41.6542,49.8983 42.0881,46.861 39.4847,45.5593 38.1831,47.7288 39.4847,57.7085 37.3153,59.878 33.4102,60.7458 32.5424,57.2746" stroke="#02e8f4" stroke-width="2" /><polyline fill="none" points="40.3525,49.8983 40.3525,56.4068 41.2203,57.7085 45.5593,58.5763 48.1627,54.6712" stroke="#32ffc3" stroke-width="2" /><polyline fill="none" points="37.7492,30.3729 32.1085,26.4678 30.3729,26.9017 30.3729,28.6373 33.4102,29.939 36.0136,29.939 36.4475,28.6373" stroke="#63ff93" stroke-width="2" /><polyline fill="none" points="48.5966,30.3729 47.2949,30.3729 47.2949,32.1085 49.8983,32.9763 52.9356,31.2407 53.8034,30.3729 52.5017,29.5051" stroke="#93ff63" stroke-width="2" /><polyline fill="none" points="43.8237,50.3322 61.1797,43.3898" stroke="#c3ff32" stroke-width="2" /><polyline fill="none" points="44.6915,51.6339 54.2373,52.5017 63.3492,55.539" stroke="#f4f802" stroke-width="2" /><polyline fill="none" points="44.6915,54.6712 50.7661,61.1797 61.6136,66.3864" stroke="#ffc000" stroke-width="2" /><polyline fill="none" points="38.1831,51.6339 19.5254,44.2576" stroke="#ff8900" stroke-width="2" /><polyline fill="none" points="34.278,54.2373 25.1661,52.9356 14.3186,57.2746" stroke="#ff5100" stroke-width="2" /><polyline fill="none" points="36.8814,53.8034 25.6,60.3119 18.6576,68.5559" stroke="#ff1a00" stroke-width="2" /><polyline fill="none" points="28.2034,65.5186 23.4305,64.2169 19.5254,65.5186 12.1492,71.5932 8.678,83.3085 9.1119,95.4576 13.4508,101.9661 21.261,105.4373 30.3729,104.5695 39.9186,99.3627" stroke="#c30000" stroke-width="2" /><polyline fill="none" points="41.6542,97.1932 35.1458,112.3797 33.8441,117.1525 34.7119,118.8881 36.8814,119.322 44.6915,112.8136 50.3322,102.8339" stroke="#7f0000" stroke-width="2" /></svg>