<?xml version="1.0" encoding="utf-8" ?>
<svg baseProfile="tiny" height="128" version="1.2" viewBox="0,0,128,128" width="128" xmlns="http://www.w3.org/2000/svg" xmlns:ev="http://www.w3.org/2001/xml-events" xmlns:xlink="http://www.w3.org/1999/xlink"><defs /><polyline fill="none" points="12.5831,16.0542 18.2237,13.0169 27.3356,12.5831 32.5424,17.3559 39.9186,30.8068 44.6915,32.9763 51.6339,33.4102 64.6508,25.1661 71.5932,26.0339 77.2339,30.8068 82.0068,36.8814 86.3458,45.9932 86.7797,59.0102 85.9119,62.0475 82.0068,65.5186 71.1593,68.122 55.539,70.2915 42.0881,70.2915 40.7864,69.8576 40.7864,66.8203 45.5593,62.4814 60.3119,60.7458" stroke="#00007f" stroke-width="2" /><polyline fill="none" points="83.7424,42.0881 86.7797,50.3322 91.1186,57.2746 95.0237,59.4441 108.0407,59.878 117.5864,64.2169 119.322,68.5559 119.322,74.6305 115.4169,79.8373 112.3797,81.5729 91.5525,87.6475 88.9492,89.8169 88.9492,94.5898 85.0441,94.5898 84.6102,89.8169 86.3458,86.7797 110.6441,74.6305 111.9458,70.7254 109.7763,66.8203 95.8915,65.5186 85.478,60.7458" stroke="#0028ff" stroke-width="2" /><polyline fill="none" points="18.6576,42.0881 22.5627,51.6339 25.6,65.5186 24.7322,67.6881 20.3932,71.1593 21.6949,72.8949 28.6373,72.8949 38.1831,66.3864 42.522,59.0102 42.522,50.3322" stroke="#00d4ff" stroke-width="2" /><polyline fill="none" points="13.8847,15.6203 10.4136,24.2983 9.9797,31.6746 16.0542,33.8441 18.2237,41.2203" stroke="#7cff79" stroke-width="2" /><polyline fill="none" points="23.4305,13.8847 25.1661,11.7153 33.4102,8.678 34.278,10.4136 30.3729,19.5254" stroke="#ffe500" stroke-width="2" /><polyline fill="none" points="10.4136,18.2237 8.678,9.9797 10.8475,9.5458 16.922,14.3186" stroke="#ff4600" stroke-width="2" /><polyline fill="none" points="14.3186,24.7322 15.1864,25.6" stroke="#7f0000" stroke-width="2" /></svg>