<?xml version="1.0" encoding="utf-8" ?>
<svg baseProfile="tiny" height="128" version="1.2" viewBox="0,0,128,128" width="128" xmlns="http://www.w3.org/2000/svg" xmlns:ev="http://www.w3.org/2001/xml-events" xmlns:xlink="http://www.w3.org/1999/xlink"><defs /><polyline fill="none" points="16.0542,39.4847 14.3186,37.3153 10.4136,25.1661 8.678,8.678 21.261,16.922 36.4475,28.6373 60.3119,26.0339 82.8746,28.2034 87.2136,31.2407 90.6847,26.9017 105.8712,18.6576 119.322,16.0542 116.2847,24.2983 109.7763,36.0136 101.9661,47.7288 96.7593,52.9356 99.3627,52.0678 101.9661,54.6712 111.9458,68.122 113.2475,75.0644 113.2475,85.9119 110.6441,94.5898 100.2305,103.2678 79.4034,114.9831 60.7458,114.5492 42.0881,109.3424 31.6746,104.1356 19.5254,93.2881 14.3186,83.7424 13.4508,78.1017 13.8847,57.7085 17.7898,44.2576" stroke="#00007f" stroke-width="2" /><polyline fill="none" points="44.6915,46.861 44.2576,53.8034" stroke="#0000fe" stroke-width="2" /><polyline fill="none" points="76.3661,42.0881 76.8,51.6339" stroke="#0060ff" stroke-width="2" /><polyline fill="none" points="63.7831,74.6305 62.9153,72.461 61.1797,72.461 61.1797,74.6305 62.9153,74.6305 63.7831,72.461 59.0102,72.461 59.0102,74.6305 61.6136,75.0644 63.7831,73.7627" stroke="#00d4ff" stroke-width="2" /><polyline fill="none" points="64.2169,71.1593 98.9288,59.0102" stroke="#4cffaa" stroke-width="2" /><polyline fill="none" points="62.9153,70.7254 70.2915,77.6678 84.6102,82.0068 86.3458,85.0441" stroke="#aaff4c" stroke-width="2" /><polyline fill="none" points="59.878,75.0644 66.8203,89.8169 73.3288,97.1932" stroke="#ffe500" stroke-width="2" /><polyline fill="none" points="59.878,76.3661 59.878,76.3661" stroke="#ff7a00" stroke-width="2" /><polyline fill="none" points="57.7085,71.1593 52.5017,70.2915 31.2407,75.4983" stroke="#fe1200" stroke-width="2" /><polyline fill="none" points="59.0102,75.0644 54.2373,78.1017" stroke="#7f0000" stroke-width="2" /></svg>