<?xml version="1.0" encoding="utf-8" ?>
<svg baseProfile="tiny" height="128" version="1.2" viewBox="0,0,128,128" width="128" xmlns="http://www.w3.org/2000/svg" xmlns:ev="http://www.w3.org/2001/xml-events" xmlns:xlink="http://www.w3.org/1999/xlink"><defs /><polyline fill="none" points="92.8542,37.7492 106.3051,45.5593 111.5119,53.3695 112.8136,60.3119 111.078,66.3864 104.5695,71.5932 102.4,70.7254 91.5525,59.0102 88.5153,57.2746 74.1966,56.8407 50.3322,59.4441 42.522,61.6136 23.8644,61.1797 15.6203,56.8407 13.0169,45.9932 13.8847,36.8814 20.8271,28.6373 24.2983,30.8068 25.6,30.3729 31.2407,12.1492 34.7119,24.7322 36.0136,24.7322 41.2203,8.678 44.6915,20.3932 46.861,23.8644 84.6102,30.3729 93.722,34.7119 95.4576,38.6169" stroke="#00007f" stroke-width="2" /><polyline fill="none" points="88.9492,56.8407 89.3831,83.7424 76.8,85.478 70.7254,81.5729" stroke="#0000fe" stroke-width="2" /><polyline fill="none" points="70.2915,56.8407 67.6881,66.3864 66.3864,77.2339 60.3119,75.9322" stroke="#0060ff" stroke-width="2" /><polyline fill="none" points="58.5763,56.8407 51.6339,77.2339 50.7661,78.1017 46.4271,77.2339" stroke="#00d4ff" stroke-width="2" /><polyline fill="none" points="40.3525,58.5763 39.0508,70.7254 35.5797,79.8373 33.4102,81.5729 26.4678,77.2339" stroke="#4cffaa" stroke-width="2" /><polyline fill="none" points="12.5831,38.6169 10.4136,37.7492 9.1119,39.0508 8.678,44.2576 10.8475,47.2949 13.0169,47.7288 14.7525,45.9932 15.1864,39.9186" stroke="#aaff4c" stroke-width="2" /><polyline fill="none" points="23.8644,33.4102 26.4678,36.4475 26.0339,37.7492 23.4305,36.8814 22.5627,35.5797 23.4305,34.7119" stroke="#ffe500" stroke-width="2" /><polyline fill="none" points="24.2983,36.0136 22.1288,34.278 24.2983,35.1458" stroke="#ff7a00" stroke-width="2" /><polyline fill="none" points="14.7525,55.9729 28.2034,53.3695 30.8068,51.2 30.8068,46.4271" stroke="#fe1200" stroke-width="2" /><polyline fill="none" points="91.5525,39.0508 98.9288,44.6915 110.2102,56.8407 118.4542,72.461 119.322,76.8 119.322,86.3458 117.1525,94.1559 113.6814,100.6644 111.078,102.4 103.7017,91.1186 99.3627,68.5559 95.8915,59.0102 92.8542,56.4068" stroke="#7f0000" stroke-width="2" /></svg>