<?xml version="1.0" encoding="utf-8" ?>
<svg baseProfile="tiny" height="128" version="1.2" viewBox="0,0,128,128" width="128" xmlns="http://www.w3.org/2000/svg" xmlns:ev="http://www.w3.org/2001/xml-events" xmlns:xlink="http://www.w3.org/1999/xlink"><defs /><polyline fill="none" points="36.0136,59.4441 30.3729,48.5966 28.2034,39.4847 28.2034,35.1458 29.5051,32.5424 36.0136,28.6373 41.6542,27.7695 68.5559,33.8441 82.8746,37.7492 87.2136,42.0881 90.6847,51.2 90.2508,57.7085 83.7424,63.3492 75.9322,65.9525 62.0475,65.9525 46.861,62.0475 36.8814,56.4068 32.9763,52.5017" stroke="#00007f" stroke-width="2" /><polyline fill="none" points="28.2034,36.0136 30.8068,8.678 41.2203,26.9017" stroke="#0028ff" stroke-width="2" /><polyline fill="none" points="83.3085,35.1458 90.2508,21.6949 90.2508,42.9559" stroke="#00d4ff" stroke-width="2" /><polyline fill="none" points="50.3322,44.6915 22.1288,43.8237 8.678,47.7288" stroke="#7cff79" stroke-width="2" /><polyline fill="none" points="52.5017,43.3898 34.7119,47.2949 24.2983,51.6339" stroke="#ffe500" stroke-width="2" /><polyline fill="none" points="52.9356,42.9559 49.0305,49.8983 34.7119,62.0475" stroke="#ff4600" stroke-width="2" /><polyline fill="none" points="75.0644,44.2576 104.1356,54.2373 119.322,56.4068" stroke="#7f0000" stroke-width="2" /></svg>