<?xml version="1.0" encoding="utf-8" ?>
<svg baseProfile="tiny" height="128" version="1.2" viewBox="0,0,128,128" width="128" xmlns="http://www.w3.org/2000/svg" xmlns:ev="http://www.w3.org/2001/xml-events" xmlns:xlink="http://www.w3.org/1999/xlink"><defs /><polyline fill="none" points="48.7619,22.2041 49.6327,9.1429 50.9388,8.7075 60.517,21.3333 62.2585,23.0748 63.5646,22.6395" stroke="#00007f" stroke-width="2" /><polyline fill="none" points="62.2585,23.0748 91.4286,26.5578 95.3469,20.4626 105.7959,10.8844 110.1497,25.2517 119.2925,32.2177 119.2925,37.0068 108.8435,63.5646 90.9932,95.3469 86.6395,97.9592 77.4966,96.2177 66.1769,90.1224 58.3401,82.2857 48.3265,64.8707 44.4082,49.6327 44.4082,40.9252 48.3265,24.381" stroke="#0000de" stroke-width="2" /><polyline fill="none" points="77.4966,63.1293 75.3197,66.6122 78.3673,66.6122 79.6735,64.8707 79.2381,62.6939 77.0612,61.3878" stroke="#0028ff" stroke-width="2" /><polyline fill="none" points="77.932,65.7415 79.6735,75.3197 85.3333,82.7211 89.6871,78.8027 91.8639,71.4014 91.8639,69.6599 87.0748,68.7891" stroke="#0080ff" stroke-width="2" /><polyline fill="none" points="77.0612,65.7415 76.6259,73.1429 72.7075,82.7211 69.6599,84.0272 66.6122,77.4966" stroke="#00d4ff" stroke-width="2" /><polyline fill="none" points="66.1769,39.1837 63.5646,43.5374 64.8707,51.8095 70.966,50.5034 73.1429,45.2789 70.966,40.9252 65.7415,36.1361" stroke="#36ffc0" stroke-width="2" /><polyline fill="none" points="93.1701,43.102 90.1224,43.102 86.6395,47.8912 86.2041,55.2925 93.6054,56.5986 95.7823,53.551 95.7823,49.1973 90.9932,44.8435" stroke="#7cff79" stroke-width="2" /><polyline fill="none" points="83.1565,60.517 97.5238,63.5646 115.3741,64.8707" stroke="#c0ff36" stroke-width="2" /><polyline fill="none" points="87.0748,68.7891 91.4286,71.8367 112.7619,77.0612" stroke="#ffe500" stroke-width="2" /><polyline fill="none" points="82.2857,72.7075 97.5238,84.4626 103.619,87.5102" stroke="#ff9400" stroke-width="2" /><polyline fill="none" points="63.5646,50.5034 57.4694,53.9864 24.8163,54.8571 8.7075,49.1973" stroke="#ff4600" stroke-width="2" /><polyline fill="none" points="61.3878,69.6599 33.9592,62.2585 31.7823,63.5646 32.6531,65.7415" stroke="#de0000" stroke-width="2" /><polyline fill="none" points="64.4354,76.1905 51.8095,74.8844 46.585,79.2381 42.6667,80.1088" stroke="#7f0000" stroke-width="2" /></svg>