<?xml version="1.0" encoding="utf-8" ?>
<svg baseProfile="tiny" height="128" version="1.2" viewBox="0,0,128,128" width="128" xmlns="http://www.w3.org/2000/svg" xmlns:ev="http://www.w3.org/2001/xml-events" xmlns:xlink="http://www.w3.org/1999/xlink"><defs /><polyline fill="none" points="41.2203,26.0339 22.9966,15.1864 21.261,18.6576 22.9966,32.1085 28.2034,46.4271" stroke="#00007f" stroke-width="2" /><polyline fill="none" points="64.2169,18.6576 59.4441,16.922 49.4644,17.3559 38.6169,23.8644 21.6949,65.9525 19.5254,76.3661 20.3932,95.4576 31.2407,107.6068 37.7492,112.3797 62.4814,117.5864 87.6475,116.2847 100.6644,110.6441 110.2102,102.8339 114.5492,97.6271 118.8881,84.6102 119.322,75.4983 118.8881,68.5559 114.9831,59.878 104.1356,42.522 90.6847,26.9017 68.122,13.4508 65.9525,16.0542" stroke="#0000f1" stroke-width="2" /><polyline fill="none" points="98.9288,26.0339 110.2102,15.1864 118.8881,8.678 118.0203,19.9593 115.8508,28.2034 112.8136,36.4475 105.8712,45.1254" stroke="#004cff" stroke-width="2" /><polyline fill="none" points="53.8034,69.4237 55.539,79.8373 59.4441,71.1593 56.4068,71.5932 54.6712,74.1966 55.9729,74.1966" stroke="#00b0ff" stroke-width="2" /><polyline fill="none" points="41.2203,79.8373 24.2983,86.3458" stroke="#29ffcd" stroke-width="2" /><polyline fill="none" points="41.6542,92.8542 8.678,106.739" stroke="#7cff79" stroke-width="2" /><polyline fill="none" points="38.1831,100.6644 24.2983,112.3797" stroke="#cdff29" stroke-width="2" /><polyline fill="none" points="91.9864,79.4034 99.3627,76.3661 115.8508,75.9322" stroke="#ffc400" stroke-width="2" /><polyline fill="none" points="85.0441,93.722 112.8136,91.5525" stroke="#ff6700" stroke-width="2" /><polyline fill="none" points="91.9864,106.739 96.3254,105.4373 104.1356,109.3424" stroke="#f10700" stroke-width="2" /><polyline fill="none" points="36.8814,37.7492 43.8237,35.1458 46.861,37.7492 46.861,40.7864 39.4847,45.1254 35.1458,33.4102" stroke="#7f0000" stroke-width="2" /></svg>