<?xml version="1.0" encoding="utf-8" ?>
<svg baseProfile="tiny" height="128" version="1.2" viewBox="0,0,128,128" width="128" xmlns="http://www.w3.org/2000/svg" xmlns:ev="http://www.w3.org/2001/xml-events" xmlns:xlink="http://www.w3.org/1999/xlink"><defs /><polyline fill="none" points="33.8441,30.3729 51.6339,19.9593 66.3864,19.0915 78.5356,23.8644 95.0237,32.9763 104.5695,40.7864 106.739,44.2576 107.6068,50.3322 106.739,53.8034 92.4203,75.9322 82.0068,83.3085 76.3661,85.0441 56.4068,84.6102 44.2576,79.4034 39.0508,75.9322 29.5051,67.6881 25.1661,60.3119 22.9966,50.3322 24.2983,43.8237 29.0712,35.1458 34.278,30.8068" stroke="#00007f" stroke-width="2" /><polyline fill="none" points="31.2407,27.7695 29.5051,24.2983 25.1661,20.8271 9.5458,11.7153 8.678,13.8847 9.5458,19.5254 16.0542,38.1831 18.2237,49.8983" stroke="#0000f1" stroke-width="2" /><polyline fill="none" points="73.7627,20.8271 77.6678,20.8271 110.2102,8.678 116.2847,8.678 119.322,15.6203 118.8881,22.1288 114.9831,37.7492 112.8136,40.7864" stroke="#004cff" stroke-width="2" /><polyline fill="none" points="51.6339,46.861 51.6339,46.861" stroke="#00b0ff" stroke-width="2" /><polyline fill="none" points="70.7254,43.8237 70.7254,43.8237" stroke="#29ffcd" stroke-width="2" /><polyline fill="none" points="62.4814,59.0102 60.3119,63.3492 50.3322,71.5932 46.4271,68.9898 43.3898,62.0475" stroke="#7cff79" stroke-width="2" /><polyline fill="none" points="67.6881,43.8237 67.6881,43.8237" stroke="#cdff29" stroke-width="2" /><polyline fill="none" points="68.5559,44.6915 68.5559,44.6915" stroke="#ffc400" stroke-width="2" /><polyline fill="none" points="63.3492,59.878 72.8949,65.5186 77.2339,65.5186 85.478,61.1797 86.3458,56.8407" stroke="#ff6700" stroke-width="2" /><polyline fill="none" points="63.3492,57.7085 59.878,59.0102 64.2169,56.4068" stroke="#f10700" stroke-width="2" /><polyline fill="none" points="65.9525,46.861 67.6881,44.2576" stroke="#7f0000" stroke-width="2" /></svg>