<?xml version="1.0" encoding="utf-8" ?>
<svg baseProfile="tiny" height="128" version="1.2" viewBox="0,0,128,128" width="128" xmlns="http://www.w3.org/2000/svg" xmlns:ev="http://www.w3.org/2001/xml-events" xmlns:xlink="http://www.w3.org/1999/xlink"><defs /><polyline fill="none" points="84.1763,47.7288 69.8576,42.522 62.0475,41.2203 49.8983,42.522 20.8271,53.8034 11.2814,60.7458 9.1119,65.0847 8.678,75.4983 12.5831,85.9119 18.6576,97.6271 27.7695,108.0407 45.5593,116.7186 53.3695,118.8881 68.9898,119.322 83.7424,115.4169 90.6847,110.6441 94.1559,106.3051 101.9661,92.4203 104.5695,84.6102 104.5695,74.6305 99.3627,65.5186 88.5153,55.9729 76.3661,50.7661 64.2169,49.4644" stroke="#00007f" stroke-width="2" /><polyline fill="none" points="15.1864,55.539 20.3932,36.8814 32.1085,8.678 45.9932,37.7492" stroke="#7cff79" stroke-width="2" /><polyline fill="none" points="75.9322,43.3898 79.4034,40.3525 85.478,29.5051 89.8169,10.8475 92.8542,16.922 93.722,27.3356 96.7593,40.3525 98.061,61.1797" stroke="#7f0000" stroke-width="2" /></svg>