<?xml version="1.0" encoding="utf-8" ?>
<svg baseProfile="tiny" height="128" version="1.2" viewBox="0,0,128,128" width="128" xmlns="http://www.w3.org/2000/svg" xmlns:ev="http://www.w3.org/2001/xml-events" xmlns:xlink="http://www.w3.org/1999/xlink"><defs /><polyline fill="none" points="50.7661,13.8847 41.2203,14.7525 32.9763,20.3932 26.0339,29.0712 22.5627,38.6169 22.1288,51.6339 23.4305,57.2746 28.2034,62.4814 38.6169,69.4237 50.3322,72.461 57.2746,72.461 60.3119,70.2915 73.7627,57.2746 79.4034,41.6542 79.8373,35.5797 77.6678,29.939 66.8203,16.922 54.2373,8.678 49.8983,9.1119 46.861,11.7153" stroke="#00007f" stroke-width="2" /><polyline fill="none" points="69.8576,18.2237 78.5356,14.3186 78.9695,29.939" stroke="#0000fe" stroke-width="2" /><polyline fill="none" points="22.9966,31.2407 19.9593,14.7525 34.278,16.0542" stroke="#0060ff" stroke-width="2" /><polyline fill="none" points="43.8237,44.6915 21.6949,43.8237 8.678,47.7288" stroke="#00d4ff" stroke-width="2" /><polyline fill="none" points="36.4475,50.3322 12.5831,50.3322 8.678,52.5017" stroke="#4cffaa" stroke-width="2" /><polyline fill="none" points="35.1458,54.2373 22.1288,59.4441 17.3559,64.6508" stroke="#aaff4c" stroke-width="2" /><polyline fill="none" points="60.7458,45.9932 74.6305,41.2203 91.1186,38.6169 112.3797,38.1831 119.322,39.9186" stroke="#ffe500" stroke-width="2" /><polyline fill="none" points="68.5559,48.5966 81.139,45.9932 101.9661,45.1254 117.1525,50.3322" stroke="#ff7a00" stroke-width="2" /><polyline fill="none" points="69.8576,55.1051 91.5525,54.6712 113.2475,64.2169" stroke="#fe1200" stroke-width="2" /><polyline fill="none" points="44.6915,44.2576 59.0102,45.1254 52.5017,52.9356 44.6915,43.8237" stroke="#7f0000" stroke-width="2" /></svg>