<?xml version="1.0" encoding="utf-8" ?>
<svg baseProfile="tiny" height="128" version="1.2" viewBox="0,0,128,128" width="128" xmlns="http://www.w3.org/2000/svg" xmlns:ev="http://www.w3.org/2001/xml-events" xmlns:xlink="http://www.w3.org/1999/xlink"><defs /><polyline fill="none" points="79.6735,43.5374 71.4014,41.7959 58.7755,46.1497 47.4558,57.034 38.7483,72.7075 30.9116,94.0408 30.0408,105.7959 34.8299,118.4218 39.1837,119.2925" stroke="#00007f" stroke-width="2" /><polyline fill="none" points="62.2585,112.3265 67.0476,107.9728 75.7551,94.4762 75.7551,91.8639 80.1088,88.381 80.9796,85.3333 87.0748,77.932 93.6054,60.517 94.4762,53.9864 93.6054,50.9388 80.9796,39.619 80.1088,40.4898" stroke="#0000d1" stroke-width="2" /><polyline fill="none" points="27.4286,81.415 11.7551,84.0272 9.1429,85.7687" stroke="#0010ff" stroke-width="2" /><polyline fill="none" points="24.381,99.2653 11.7551,101.0068 9.5782,101.8776 8.7075,105.3605" stroke="#0058ff" stroke-width="2" /><polyline fill="none" points="70.0952,91.4286 82.7211,94.9116 88.381,97.9592" stroke="#00a4ff" stroke-width="2" /><polyline fill="none" points="74.0136,101.4422 78.8027,104.4898 88.381,106.6667" stroke="#05ecf1" stroke-width="2" /><polyline fill="none" points="26.5578,83.5918 20.0272,83.1565" stroke="#3fffb7" stroke-width="2" /><polyline fill="none" points="78.3673,81.8503 99.7007,84.898" stroke="#7cff79" stroke-width="2" /><polyline fill="none" points="54.4218,44.4082 44.4082,28.7347 47.4558,16.1088 51.3741,11.7551 57.034,8.7075 61.8231,10.449 65.3061,15.2381 68.7891,39.1837" stroke="#b7ff3f" stroke-width="2" /><polyline fill="none" points="87.9456,40.0544 88.8163,33.0884 92.7347,28.7347 96.2177,28.2993 104.4898,30.9116 110.1497,33.9592 113.1973,38.3129 114.068,43.5374 111.0204,47.8912" stroke="#f1fc05" stroke-width="2" /><polyline fill="none" points="102.7483,50.9388 89.2517,50.5034" stroke="#ffb900" stroke-width="2" /><polyline fill="none" points="57.4694,65.7415 51.8095,66.6122 49.6327,68.3537 48.7619,71.8367 50.5034,74.449 52.2449,75.3197 55.2925,73.1429 58.3401,66.1769 57.034,61.3878 50.9388,65.3061 50.5034,66.6122 52.6803,67.0476 56.5986,64.4354" stroke="#ff7300" stroke-width="2" /><polyline fill="none" points="80.5442,61.3878 76.1905,63.5646 74.8844,68.3537 79.2381,67.0476 84.898,61.3878 84.0272,57.9048 77.932,60.0816" stroke="#ff3000" stroke-width="2" /><polyline fill="none" points="49.1973,88.8163 46.1497,91.4286 46.1497,96.2177 49.6327,104.0544 54.4218,107.5374 60.0816,103.619 70.0952,88.8163" stroke="#d10000" stroke-width="2" /><polyline fill="none" points="63.5646,71.4014 60.9524,75.7551" stroke="#7f0000" stroke-width="2" /></svg>