<?xml version="1.0" encoding="utf-8" ?>
<svg baseProfile="tiny" height="128" version="1.2" viewBox="0,0,128,128" width="128" xmlns="http://www.w3.org/2000/svg" xmlns:ev="http://www.w3.org/2001/xml-events" xmlns:xlink="http://www.w3.org/1999/xlink"><defs /><polyline fill="none" points="62.9153,30.8068 49.4644,30.8068 43.3898,33.4102 41.2203,38.1831 42.522,45.9932 44.6915,49.0305 51.6339,51.2 75.9322,51.2 82.0068,49.4644 85.0441,45.9932 85.9119,40.7864 82.8746,36.4475 64.2169,35.5797 50.3322,32.9763" stroke="#00007f" stroke-width="2" /><polyline fill="none" points="35.1458,20.8271 31.2407,22.5627 30.8068,27.3356 37.7492,35.5797 40.7864,37.7492 45.9932,38.6169 53.3695,38.6169 55.539,37.3153 55.9729,27.7695 47.2949,15.6203 44.6915,13.0169 41.6542,12.5831 36.8814,16.4881" stroke="#0000c8" stroke-width="2" /><polyline fill="none" points="38.6169,12.1492 42.0881,8.678 42.522,12.1492" stroke="#0000ff" stroke-width="2" /><polyline fill="none" points="49.0305,17.3559 54.2373,16.0542 52.9356,20.8271" stroke="#0040ff" stroke-width="2" /><polyline fill="none" points="82.8746,36.4475 99.3627,27.7695 111.5119,25.6 119.322,25.6 118.0203,27.3356 111.9458,29.0712 95.4576,30.8068 87.6475,35.5797 83.7424,36.0136" stroke="#0080ff" stroke-width="2" /><polyline fill="none" points="49.0305,48.1627 33.8441,61.6136" stroke="#00c0ff" stroke-width="2" /><polyline fill="none" points="49.4644,49.4644 45.9932,61.1797" stroke="#15ffe1" stroke-width="2" /><polyline fill="none" points="73.3288,47.2949 76.3661,57.2746 77.2339,64.6508" stroke="#49ffad" stroke-width="2" /><polyline fill="none" points="76.3661,48.1627 86.3458,69.8576" stroke="#7cff79" stroke-width="2" /><polyline fill="none" points="34.7119,24.7322 30.3729,22.5627 8.678,22.5627" stroke="#b0ff46" stroke-width="2" /><polyline fill="none" points="33.8441,26.4678 26.0339,25.6 13.0169,26.4678" stroke="#e4ff12" stroke-width="2" /><polyline fill="none" points="35.1458,27.7695 21.6949,28.2034 16.922,29.5051 16.922,32.1085" stroke="#ffcf00" stroke-width="2" /><polyline fill="none" points="47.2949,28.6373 62.9153,28.6373" stroke="#ff9400" stroke-width="2" /><polyline fill="none" points="49.4644,26.0339 69.4237,25.6" stroke="#ff5900" stroke-width="2" /><polyline fill="none" points="40.7864,24.2983 40.7864,26.0339 42.9559,25.1661 40.3525,24.2983" stroke="#ff1d00" stroke-width="2" /><polyline fill="none" points="39.4847,19.5254 42.0881,20.8271 43.3898,19.0915 38.6169,18.6576" stroke="#c30000" stroke-width="2" /><polyline fill="none" points="46.4271,22.9966 48.1627,24.7322 49.8983,22.9966 45.1254,22.5627" stroke="#7f0000" stroke-width="2" /></svg>