<?xml version="1.0" encoding="utf-8" ?>
<svg baseProfile="tiny" height="128" version="1.2" viewBox="0,0,128,128" width="128" xmlns="http://www.w3.org/2000/svg" xmlns:ev="http://www.w3.org/2001/xml-events" xmlns:xlink="http://www.w3.org/1999/xlink"><defs /><polyline fill="none" points="56.4068,32.5424 53.8034,24.2983 49.4644,17.7898 44.2576,12.5831 39.4847,11.2814 38.6169,23.8644 42.0881,36.4475" stroke="#00007f" stroke-width="2" /><polyline fill="none" points="59.878,30.8068 64.2169,29.5051 85.0441,29.5051 87.2136,24.2983 95.0237,14.3186 103.7017,8.678 104.1356,10.4136 101.0983,26.0339 98.9288,31.2407 91.9864,29.5051 56.4068,29.0712 42.0881,33.8441 35.1458,40.3525 33.4102,44.2576 32.5424,51.6339 37.7492,57.7085 46.4271,59.878 64.2169,60.3119 78.1017,57.2746 91.9864,47.7288 99.3627,36.0136 99.3627,29.5051" stroke="#0000e8" stroke-width="2" /><polyline fill="none" points="59.0102,37.7492 63.3492,38.6169 53.3695,40.7864" stroke="#0038ff" stroke-width="2" /><polyline fill="none" points="90.2508,37.3153 84.1763,39.4847" stroke="#0094ff" stroke-width="2" /><polyline fill="none" points="39.0508,49.4644 35.5797,49.4644 27.7695,45.5593 8.678,39.9186" stroke="#0cf4ea" stroke-width="2" /><polyline fill="none" points="35.1458,53.3695 22.1288,57.7085 16.922,62.9153" stroke="#56ffa0" stroke-width="2" /><polyline fill="none" points="39.0508,54.6712 36.8814,70.7254" stroke="#a0ff56" stroke-width="2" /><polyline fill="none" points="92.8542,43.3898 113.6814,45.5593 119.322,48.5966" stroke="#eaff0c" stroke-width="2" /><polyline fill="none" points="88.5153,52.9356 95.4576,54.2373 101.5322,60.7458" stroke="#ffaa00" stroke-width="2" /><polyline fill="none" points="75.0644,62.0475 77.6678,65.5186 82.4407,78.5356" stroke="#ff5500" stroke-width="2" /><polyline fill="none" points="65.9525,45.1254 64.2169,53.8034" stroke="#e80000" stroke-width="2" /><polyline fill="none" points="54.2373,50.7661 71.1593,54.6712 75.0644,53.8034" stroke="#7f0000" stroke-width="2" /></svg>