<?xml version="1.0" encoding="utf-8" ?>
<svg baseProfile="tiny" height="128" version="1.2" viewBox="0,0,128,128" width="128" xmlns="http://www.w3.org/2000/svg" xmlns:ev="http://www.w3.org/2001/xml-events" xmlns:xlink="http://www.w3.org/1999/xlink"><defs /><polyline fill="none" points="33.8441,97.6271 29.5051,99.3627 27.3356,98.061 25.1661,93.2881 22.9966,81.5729 23.4305,68.122 28.2034,54.6712 36.8814,42.522 49.0305,34.278 62.9153,31.6746 76.8,32.9763 89.3831,37.7492 95.0237,41.6542 101.9661,51.2 105.4373,62.4814 105.4373,68.5559 105.4373,75.4983 103.2678,82.0068 95.8915,93.722 90.6847,99.3627 78.5356,109.3424 71.1593,113.2475 58.1424,117.1525 52.0678,117.1525 45.1254,115.4169 33.8441,107.1729 27.7695,93.722" stroke="#00007f" stroke-width="2" /><polyline fill="none" points="84.6102,36.8814 88.5153,30.3729 103.2678,16.922 114.5492,9.9797 119.322,8.678 119.322,25.6 112.8136,60.3119" stroke="#0010ff" stroke-width="2" /><polyline fill="none" points="26.9017,52.5017 24.2983,51.6339 20.3932,45.5593 8.678,17.3559 17.7898,16.922 56.8407,26.4678" stroke="#00a4ff" stroke-width="2" /><polyline fill="none" points="66.3864,71.5932 64.2169,87.2136 70.2915,93.722 78.9695,96.3254 88.0814,95.0237 92.8542,89.3831 92.4203,80.7051 88.5153,75.9322 84.1763,73.3288" stroke="#3fffb7" stroke-width="2" /><polyline fill="none" points="67.6881,72.0271 62.4814,91.5525 58.1424,95.8915 54.6712,97.1932 46.4271,97.1932 38.6169,92.8542 36.4475,88.0814 36.0136,81.5729" stroke="#b7ff3f" stroke-width="2" /><polyline fill="none" points="47.7288,61.1797 47.7288,61.1797" stroke="#ffb900" stroke-width="2" /><polyline fill="none" points="45.5593,60.3119 45.9932,57.7085 48.1627,56.4068 57.7085,55.539 59.0102,59.4441 58.1424,61.6136 53.8034,64.6508 49.4644,64.2169" stroke="#ff3000" stroke-width="2" /><polyline fill="none" points="79.4034,62.0475 78.5356,58.1424 80.7051,55.1051 85.0441,54.6712 88.0814,57.2746 88.0814,60.7458 81.5729,62.4814 77.2339,59.878 76.8,55.9729" stroke="#7f0000" stroke-width="2" /></svg>