<?xml version="1.0" encoding="utf-8" ?>
<svg baseProfile="tiny" height="128" version="1.2" viewBox="0,0,128,128" width="128" xmlns="http://www.w3.org/2000/svg" xmlns:ev="http://www.w3.org/2001/xml-events" xmlns:xlink="http://www.w3.org/1999/xlink"><defs /><polyline fill="none" points="11.2814,52.0678 14.3186,8.678 24.2983,24.2983 29.939,40.3525" stroke="#00007f" stroke-width="2" /><polyline fill="none" points="50.7661,37.3153 73.7627,46.4271 76.8,48.5966 76.8,51.2 73.7627,47.2949 63.3492,41.2203 51.2,39.0508 42.0881,39.0508 28.6373,45.1254" stroke="#0000fe" stroke-width="2" /><polyline fill="none" points="12.1492,46.861 8.678,57.7085 9.5458,63.3492 11.7153,66.8203 20.8271,74.1966 27.3356,77.6678 48.1627,84.6102 60.3119,84.6102 67.2542,82.8746 72.8949,79.4034 77.2339,68.9898 78.9695,50.7661" stroke="#0060ff" stroke-width="2" /><polyline fill="none" points="77.2339,49.4644 79.4034,42.9559 87.6475,35.5797 95.0237,31.6746 98.061,30.8068 98.061,32.1085 95.0237,41.6542 85.0441,51.2 79.8373,59.0102 76.8,61.6136" stroke="#00d4ff" stroke-width="2" /><polyline fill="none" points="35.1458,55.1051 35.5797,57.7085 36.4475,57.7085" stroke="#4cffaa" stroke-width="2" /><polyline fill="none" points="49.8983,55.1051 49.8983,58.1424" stroke="#aaff4c" stroke-width="2" /><polyline fill="none" points="41.6542,65.9525 37.7492,67.2542" stroke="#ffe500" stroke-width="2" /><polyline fill="none" points="41.2203,66.8203 45.9932,67.6881" stroke="#ff7a00" stroke-width="2" /><polyline fill="none" points="18.6576,75.0644 19.9593,91.9864 23.8644,105.4373 27.7695,113.2475 34.278,117.5864 46.4271,119.322 53.8034,119.322 63.3492,117.1525 68.122,110.2102 68.122,101.0983 62.0475,78.1017" stroke="#fe1200" stroke-width="2" /><polyline fill="none" points="65.9525,86.3458 68.5559,84.6102 84.6102,83.7424 94.1559,83.7424 96.7593,85.478 96.3254,88.0814 92.8542,89.3831 68.5559,92.8542" stroke="#7f0000" stroke-width="2" /></svg>