<?xml version="1.0" encoding="utf-8" ?>
<svg baseProfile="tiny" height="128" version="1.2" viewBox="0,0,128,128" width="128" xmlns="http://www.w3.org/2000/svg" xmlns:ev="http://www.w3.org/2001/xml-events" xmlns:xlink="http://www.w3.org/1999/xlink"><defs /><polyline fill="none" points="32.7645,72.9556 17.9113,66.8396 10.9215,55.4812 8.7372,45.4334 8.7372,38.0068 11.7952,24.901 22.2799,9.1741 24.0273,12.2321 26.6485,23.1536 36.2594,21.843 48.0546,24.4642 51.1126,21.4061 58.9761,8.7372 60.2867,18.3481 69.4608,28.8328 71.2082,32.7645 72.5188,44.9966 70.7713,55.9181 66.4027,63.7816 55.4812,73.3925 45.8703,76.4505 35.8225,71.2082 29.7065,65.529" stroke="#00007f" stroke-width="2" /><polyline fill="none" points="27.5222,38.4437 27.959,38.0068" stroke="#0000fe" stroke-width="2" /><polyline fill="none" points="56.3549,40.1911 58.1024,38.8805" stroke="#0060ff" stroke-width="2" /><polyline fill="none" points="28.8328,55.4812 30.5802,53.2969 36.2594,51.9863 29.2696,57.6655 26.6485,58.1024 26.2116,54.6075" stroke="#00d4ff" stroke-width="2" /><polyline fill="none" points="34.9488,50.6758 34.5119,57.2287 38.4437,65.529 44.1229,68.587 49.3652,66.4027" stroke="#4cffaa" stroke-width="2" /><polyline fill="none" points="36.6962,47.1809 50.6758,48.9283" stroke="#aaff4c" stroke-width="2" /><polyline fill="none" points="41.9386,52.8601 51.5495,56.7918" stroke="#ffe500" stroke-width="2" /><polyline fill="none" points="38.8805,50.2389 34.0751,49.802 17.4744,42.8123" stroke="#ff7a00" stroke-width="2" /><polyline fill="none" points="26.2116,50.2389 14.8532,50.2389" stroke="#fe1200" stroke-width="2" /><polyline fill="none" points="68.1502,62.471 98.2935,62.0341 114.8942,66.4027 119.2628,72.9556 118.8259,84.314 116.6416,89.5563 110.0887,96.1092 96.1092,102.2253 85.1877,103.9727 72.9556,103.099 63.3447,98.7304 48.4915,88.6826 43.2491,78.198 34.5119,84.314" stroke="#7f0000" stroke-width="2" /></svg>