<?xml version="1.0" encoding="utf-8" ?>
<svg baseProfile="tiny" height="128" version="1.2" viewBox="0,0,128,128" width="128" xmlns="http://www.w3.org/2000/svg" xmlns:ev="http://www.w3.org/2001/xml-events" xmlns:xlink="http://www.w3.org/1999/xlink"><defs /><polyline fill="none" points="33.4102,37.3153 28.2034,15.1864 39.4847,25.1661 49.4644,29.5051 52.5017,23.8644 57.2746,20.3932 64.2169,19.0915 73.3288,19.9593 80.2712,23.4305 88.5153,34.278 98.4949,14.7525 103.7017,10.4136 108.9085,8.678 109.3424,26.0339 108.4746,36.4475 105.8712,45.5593 102.4,49.0305 101.0983,72.0271 96.3254,77.6678 86.7797,80.2712 74.6305,80.2712 57.7085,78.5356 45.1254,75.0644 39.9186,69.8576 37.3153,62.4814 38.1831,52.9356 41.6542,45.1254" stroke="#00007f" stroke-width="2" /><polyline fill="none" points="58.5763,53.3695 24.2983,48.5966 8.678,49.8983" stroke="#0010ff" stroke-width="2" /><polyline fill="none" points="52.9356,59.0102 19.5254,63.7831" stroke="#00a4ff" stroke-width="2" /><polyline fill="none" points="62.9153,63.7831 47.7288,68.5559 24.2983,71.1593" stroke="#3fffb7" stroke-width="2" /><polyline fill="none" points="82.4407,49.4644 105.0034,50.3322 119.322,49.0305" stroke="#b7ff3f" stroke-width="2" /><polyline fill="none" points="83.7424,57.7085 98.9288,63.3492 114.5492,65.5186" stroke="#ffb900" stroke-width="2" /><polyline fill="none" points="87.2136,67.6881 99.7966,71.5932 111.5119,73.3288" stroke="#ff3000" stroke-width="2" /><polyline fill="none" points="69.8576,55.1051 82.0068,55.539 85.9119,58.5763 82.4407,63.7831 74.1966,65.9525 68.5559,63.7831 63.3492,59.0102 65.0847,56.4068 69.8576,56.8407" stroke="#7f0000" stroke-width="2" /></svg>