<?xml version="1.0" encoding="utf-8" ?>
<svg baseProfile="tiny" height="128" version="1.2" viewBox="0,0,128,128" width="128" xmlns="http://www.w3.org/2000/svg" xmlns:ev="http://www.w3.org/2001/xml-events" xmlns:xlink="http://www.w3.org/1999/xlink"><defs /><polyline fill="none" points="33.4102,32.5424 34.7119,20.8271 34.278,8.678" stroke="#00007f" stroke-width="2" /><polyline fill="none" points="34.7119,8.678 48.1627,28.2034 56.8407,33.4102" stroke="#0000d1" stroke-width="2" /><polyline fill="none" points="55.1051,31.6746 85.478,29.939" stroke="#0010ff" stroke-width="2" /><polyline fill="none" points="84.6102,29.5051 90.6847,15.6203" stroke="#0058ff" stroke-width="2" /><polyline fill="none" points="90.6847,14.3186 98.061,30.8068" stroke="#00a4ff" stroke-width="2" /><polyline fill="none" points="35.1458,30.8068 36.4475,47.2949 39.9186,52.9356 79.4034,55.9729 88.9492,53.8034 97.6271,48.1627 101.0983,40.7864 102.4,32.9763 101.0983,29.0712 97.1932,28.2034" stroke="#05ecf1" stroke-width="2" /><polyline fill="none" points="59.878,38.6169 64.6508,39.0508" stroke="#3fffb7" stroke-width="2" /><polyline fill="none" points="71.5932,39.0508 75.4983,38.6169" stroke="#7cff79" stroke-width="2" /><polyline fill="none" points="65.9525,41.6542 67.6881,42.9559 68.122,41.2203 66.3864,41.6542" stroke="#b7ff3f" stroke-width="2" /><polyline fill="none" points="67.2542,43.3898 66.8203,49.0305 65.0847,50.7661 61.6136,52.5017 54.2373,53.3695 53.8034,51.6339" stroke="#f1fc05" stroke-width="2" /><polyline fill="none" points="66.3864,44.2576 66.8203,47.2949 71.5932,50.3322 80.2712,49.8983 82.4407,46.861" stroke="#ffb900" stroke-width="2" /><polyline fill="none" points="47.2949,42.0881 17.3559,40.3525" stroke="#ff7300" stroke-width="2" /><polyline fill="none" points="45.1254,48.1627 8.678,54.2373" stroke="#ff3000" stroke-width="2" /><polyline fill="none" points="85.9119,39.0508 119.322,35.5797" stroke="#d10000" stroke-width="2" /><polyline fill="none" points="86.7797,46.861 114.1153,50.3322" stroke="#7f0000" stroke-width="2" /></svg>