<?xml version="1.0" encoding="utf-8" ?>
<svg baseProfile="tiny" height="128" version="1.2" viewBox="0,0,128,128" width="128" xmlns="http://www.w3.org/2000/svg" xmlns:ev="http://www.w3.org/2001/xml-events" xmlns:xlink="http://www.w3.org/1999/xlink"><defs /><polyline fill="none" points="19.5254,16.0542 16.4881,14.7525 10.8475,16.922 8.678,21.6949 9.1119,24.7322 15.1864,27.3356 25.6,26.4678 27.7695,25.1661 29.0712,22.1288 18.2237,16.4881" stroke="#00007f" stroke-width="2" /><polyline fill="none" points="13.0169,16.0542 12.5831,8.678 18.2237,14.3186" stroke="#0000d5" stroke-width="2" /><polyline fill="none" points="20.3932,16.0542 23.4305,13.0169 27.3356,11.7153 23.8644,17.7898" stroke="#001cff" stroke-width="2" /><polyline fill="none" points="17.7898,21.6949 16.922,24.2983 19.9593,25.6" stroke="#006cff" stroke-width="2" /><polyline fill="none" points="12.5831,21.6949 23.4305,23.4305" stroke="#00b8ff" stroke-width="2" /><polyline fill="none" points="14.3186,23.8644 16.4881,25.1661 21.6949,24.2983" stroke="#1cffda" stroke-width="2" /><polyline fill="none" points="14.3186,17.7898 14.3186,17.7898" stroke="#5cff9a" stroke-width="2" /><polyline fill="none" points="15.1864,18.2237 16.922,17.7898" stroke="#9aff5c" stroke-width="2" /><polyline fill="none" points="22.1288,19.5254 21.6949,19.5254" stroke="#daff1c" stroke-width="2" /><polyline fill="none" points="28.2034,23.8644 38.6169,24.7322 53.8034,23.4305 64.2169,24.7322 68.5559,26.4678 72.8949,30.8068 72.0271,35.5797 62.0475,43.3898 41.2203,42.522 30.3729,40.3525 19.5254,34.278 13.4508,27.3356" stroke="#ffcb00" stroke-width="2" /><polyline fill="none" points="72.461,32.9763 92.8542,30.3729 98.9288,31.6746 103.2678,35.1458 111.078,37.7492 119.322,36.4475" stroke="#ff8500" stroke-width="2" /><polyline fill="none" points="24.7322,36.0136 25.6,51.6339 29.5051,46.4271 29.939,39.0508" stroke="#ff3b00" stroke-width="2" /><polyline fill="none" points="38.1831,39.9186 37.7492,53.8034 41.2203,49.0305 43.8237,39.4847" stroke="#d50000" stroke-width="2" /><polyline fill="none" points="53.8034,40.3525 53.3695,52.9356" stroke="#7f0000" stroke-width="2" /></svg>