<?xml version="1.0" encoding="utf-8" ?>
<svg baseProfile="tiny" height="128" version="1.2" viewBox="0,0,128,128" width="128" xmlns="http://www.w3.org/2000/svg" xmlns:ev="http://www.w3.org/2001/xml-events" xmlns:xlink="http://www.w3.org/1999/xlink"><defs /><polyline fill="none" points="43.8237,118.8881 41.6542,119.322 32.1085,109.7763 23.4305,96.3254 15.6203,78.1017 9.5458,56.4068 8.678,44.6915 15.1864,35.5797 19.5254,32.9763 24.2983,43.3898 24.7322,20.3932 26.4678,8.678 41.2203,41.6542 52.0678,39.9186 70.2915,39.9186 86.3458,42.522 92.8542,45.9932 93.722,41.6542 98.061,36.8814 107.1729,31.2407 115.4169,28.6373 109.3424,51.2 113.2475,53.8034 117.1525,62.4814 118.0203,72.461 116.2847,82.0068 111.078,90.6847 99.7966,98.061 78.1017,106.739 73.3288,108.0407 50.7661,106.739 40.3525,110.6441 33.8441,114.9831 28.6373,100.2305" stroke="#00007f" stroke-width="2" /><polyline fill="none" points="44.2576,53.3695 49.8983,55.1051" stroke="#00d4ff" stroke-width="2" /><polyline fill="none" points="90.6847,56.4068 88.5153,55.9729 85.9119,57.2746" stroke="#ffe500" stroke-width="2" /><polyline fill="none" points="63.7831,67.6881 61.6136,69.4237 61.6136,71.5932 65.5186,74.1966 67.6881,73.3288 68.5559,70.7254" stroke="#7f0000" stroke-width="2" /></svg>