<?xml version="1.0" encoding="utf-8" ?>
<svg baseProfile="tiny" height="128" version="1.2" viewBox="0,0,128,128" width="128" xmlns="http://www.w3.org/2000/svg" xmlns:ev="http://www.w3.org/2001/xml-events" xmlns:xlink="http://www.w3.org/1999/xlink"><defs /><polyline fill="none" points="110.2102,73.3288 107.1729,63.7831 99.7966,53.8034 92.8542,47.7288 87.2136,45.9932 58.1424,45.5593 42.0881,48.1627 39.4847,50.7661 36.4475,58.5763 36.8814,76.8 39.4847,83.3085 49.4644,97.6271 62.0475,111.078 71.5932,111.5119 104.5695,86.7797 111.9458,76.3661 108.4746,73.7627" stroke="#00007f" stroke-width="2" /><polyline fill="none" points="41.2203,44.2576 41.6542,37.7492 43.8237,29.939 50.3322,14.7525 54.2373,8.678 53.3695,25.1661 62.4814,45.1254" stroke="#0000de" stroke-width="2" /><polyline fill="none" points="90.6847,46.4271 98.061,25.1661 101.0983,22.5627 104.1356,40.3525 102.8339,51.2 103.2678,56.4068" stroke="#0028ff" stroke-width="2" /><polyline fill="none" points="51.6339,60.7458 52.0678,62.4814 56.8407,63.3492 59.4441,61.1797 59.4441,58.5763" stroke="#0080ff" stroke-width="2" /><polyline fill="none" points="76.8,57.7085 76.8,59.4441 80.7051,60.7458 88.9492,52.9356" stroke="#00d4ff" stroke-width="2" /><polyline fill="none" points="70.2915,75.4983 71.1593,83.3085" stroke="#36ffc0" stroke-width="2" /><polyline fill="none" points="72.0271,88.5153 71.1593,95.0237 65.9525,98.4949 61.1797,98.061 57.7085,95.4576 57.7085,86.7797" stroke="#7cff79" stroke-width="2" /><polyline fill="none" points="71.5932,91.5525 75.4983,95.8915 77.6678,96.3254 84.6102,91.9864 88.9492,86.3458" stroke="#c0ff36" stroke-width="2" /><polyline fill="none" points="85.9119,81.139 102.4,71.5932 117.5864,68.9898" stroke="#ffe500" stroke-width="2" /><polyline fill="none" points="95.8915,81.139 115.4169,82.0068 119.322,84.1763" stroke="#ff9400" stroke-width="2" /><polyline fill="none" points="92.8542,88.9492 99.7966,96.7593 108.4746,98.9288 111.5119,103.7017" stroke="#ff4600" stroke-width="2" /><polyline fill="none" points="52.0678,81.139 36.8814,75.0644 12.1492,69.8576 8.678,67.6881" stroke="#de0000" stroke-width="2" /><polyline fill="none" points="45.1254,84.6102 36.4475,84.6102 25.1661,88.0814 17.3559,88.9492" stroke="#7f0000" stroke-width="2" /></svg>