<?xml version="1.0" encoding="utf-8" ?>
<svg baseProfile="tiny" height="128" version="1.2" viewBox="0,0,128,128" width="128" xmlns="http://www.w3.org/2000/svg" xmlns:ev="http://www.w3.org/2001/xml-events" xmlns:xlink="http://www.w3.org/1999/xlink"><defs /><polyline fill="none" points="53.9864,25.2517 43.9728,26.1224 30.9116,31.7823 17.8503,47.8912 11.3197,61.3878 8.7075,72.2721 9.1429,84.0272 12.1905,94.0408 18.7211,104.4898 28.7347,112.7619 34.3946,115.8095 51.3741,119.2925 64.4354,117.9864 71.8367,115.3741 81.8503,109.7143 89.2517,102.3129 96.6531,90.9932 100.5714,80.9796 101.8776,72.2721 99.2653,63.5646 90.9932,50.9388 78.3673,38.3129 56.1633,26.5578 52.2449,26.9932" stroke="#00007f" stroke-width="2" /><polyline fill="none" points="18.7211,41.7959 13.932,23.5102 14.3673,18.2857 18.2857,10.449 21.3333,10.449 30.4762,23.9456 35.2653,28.2993" stroke="#0000fe" stroke-width="2" /><polyline fill="none" points="76.6259,38.3129 87.0748,15.6735 90.9932,10.449 96.6531,8.7075 95.3469,24.8163 90.1224,51.3741" stroke="#0060ff" stroke-width="2" /><polyline fill="none" points="54.4218,74.0136 53.551,76.1905 50.5034,76.1905 53.9864,74.0136 55.2925,74.0136 55.7279,74.8844" stroke="#00d4ff" stroke-width="2" /><polyline fill="none" points="46.1497,74.0136 30.9116,68.7891" stroke="#4cffaa" stroke-width="2" /><polyline fill="none" points="43.9728,77.4966 27.8639,76.1905" stroke="#aaff4c" stroke-width="2" /><polyline fill="none" points="40.4898,80.1088 30.4762,83.1565" stroke="#ffe500" stroke-width="2" /><polyline fill="none" points="57.034,74.0136 84.898,62.2585" stroke="#ff7a00" stroke-width="2" /><polyline fill="none" points="67.0476,77.4966 79.2381,77.932" stroke="#fe1200" stroke-width="2" /><polyline fill="none" points="60.9524,84.898 80.9796,85.7687" stroke="#7f0000" stroke-width="2" /></svg>