<?xml version="1.0" encoding="utf-8" ?>
<svg baseProfile="tiny" height="128" version="1.2" viewBox="0,0,128,128" width="128" xmlns="http://www.w3.org/2000/svg" xmlns:ev="http://www.w3.org/2001/xml-events" xmlns:xlink="http://www.w3.org/1999/xlink"><defs /><polyline fill="none" points="8.678,58.1424 18.2237,8.678 20.3932,11.7153 26.9017,32.5424 32.1085,62.0475 35.1458,58.5763 45.9932,53.3695 55.9729,52.5017 62.9153,55.539 76.3661,51.6339 78.9695,22.5627 82.0068,8.678 84.1763,13.8847 89.3831,42.0881 91.1186,82.8746 88.0814,98.4949 81.5729,108.4746 70.7254,115.8508 63.3492,118.8881 36.8814,119.322 31.6746,117.5864 23.4305,108.0407 19.9593,101.0983 15.1864,83.7424 10.4136,59.878" stroke="#00007f" stroke-width="2" /><polyline fill="none" points="39.9186,75.0644 39.9186,73.3288 41.6542,72.0271 43.8237,73.3288 45.1254,75.0644 43.3898,76.8 37.7492,77.2339 36.4475,75.9322" stroke="#0028ff" stroke-width="2" /><polyline fill="none" points="54.2373,72.8949 61.6136,72.461 61.1797,73.3288 54.6712,75.9322 55.1051,71.5932 57.2746,69.4237" stroke="#00d4ff" stroke-width="2" /><polyline fill="none" points="44.2576,87.2136 44.2576,95.8915 45.9932,102.8339 50.7661,102.4 52.5017,101.0983 55.9729,88.5153 48.5966,86.3458 40.7864,87.2136 30.3729,82.8746 23.4305,82.4407 21.261,88.0814 21.261,95.0237 21.261,103.7017 23.8644,107.1729 28.6373,109.3424 38.6169,110.2102 44.2576,103.7017" stroke="#7cff79" stroke-width="2" /><polyline fill="none" points="55.9729,94.1559 65.5186,85.0441 77.2339,85.0441 81.5729,93.722 81.5729,108.0407 74.1966,115.8508 66.8203,116.2847 57.2746,112.3797 55.1051,109.3424 52.5017,102.4" stroke="#ffe500" stroke-width="2" /><polyline fill="none" points="66.8203,99.3627 66.8203,99.3627" stroke="#ff4600" stroke-width="2" /><polyline fill="none" points="66.8203,105.4373 66.8203,105.4373" stroke="#7f0000" stroke-width="2" /></svg>