<?xml version="1.0" encoding="utf-8" ?>
<svg baseProfile="tiny" height="128" version="1.2" viewBox="0,0,128,128" width="128" xmlns="http://www.w3.org/2000/svg" xmlns:ev="http://www.w3.org/2001/xml-events" xmlns:xlink="http://www.w3.org/1999/xlink"><defs /><polyline fill="none" points="9.1119,36.0136 9.9797,52.9356 14.7525,62.9153 20.8271,67.6881 25.6,68.5559 47.2949,68.122 60.7458,59.0102 65.9525,44.6915 67.2542,33.4102 64.6508,29.0712 62.9153,15.1864 61.1797,9.5458 59.0102,8.678 51.6339,14.7525 42.522,28.2034 38.6169,30.3729 33.4102,30.8068 30.8068,28.6373 28.6373,14.7525 14.3186,10.4136 14.3186,30.8068 11.2814,37.3153 8.678,36.8814" stroke="#00007f" stroke-width="2" /><polyline fill="none" points="20.3932,36.0136 18.2237,22.9966 19.9593,22.1288 25.1661,32.1085 25.1661,34.7119 20.3932,34.7119" stroke="#0000de" stroke-width="2" /><polyline fill="none" points="50.7661,28.2034 58.5763,16.922 61.1797,29.5051 51.6339,29.5051" stroke="#0028ff" stroke-width="2" /><polyline fill="none" points="33.4102,49.0305 33.4102,50.3322 34.7119,49.4644 33.4102,48.1627" stroke="#0080ff" stroke-width="2" /><polyline fill="none" points="33.8441,48.1627 52.0678,42.522" stroke="#00d4ff" stroke-width="2" /><polyline fill="none" points="34.7119,49.4644 49.8983,47.2949" stroke="#36ffc0" stroke-width="2" /><polyline fill="none" points="33.8441,50.3322 49.4644,51.6339" stroke="#7cff79" stroke-width="2" /><polyline fill="none" points="34.278,49.0305 16.4881,47.7288" stroke="#c0ff36" stroke-width="2" /><polyline fill="none" points="31.2407,50.3322 20.8271,50.3322" stroke="#ffe500" stroke-width="2" /><polyline fill="none" points="33.4102,51.2 19.9593,53.3695" stroke="#ff9400" stroke-width="2" /><polyline fill="none" points="28.6373,40.7864 30.8068,40.7864" stroke="#ff4600" stroke-width="2" /><polyline fill="none" points="35.5797,40.7864 35.5797,40.7864" stroke="#de0000" stroke-width="2" /><polyline fill="none" points="68.5559,34.278 105.4373,31.2407 119.322,36.0136 111.078,50.7661 99.7966,55.9729 57.7085,61.6136" stroke="#7f0000" stroke-width="2" /></svg>