<?xml version="1.0" encoding="utf-8" ?>
<svg baseProfile="tiny" height="128" version="1.2" viewBox="0,0,128,128" width="128" xmlns="http://www.w3.org/2000/svg" xmlns:ev="http://www.w3.org/2001/xml-events" xmlns:xlink="http://www.w3.org/1999/xlink"><defs /><polyline fill="none" points="59.878,22.9966 43.3898,23.8644 34.7119,29.5051 30.8068,34.278 26.9017,44.2576 26.0339,52.0678 26.0339,70.7254 29.939,79.4034 41.6542,90.6847 52.0678,92.8542 66.3864,94.1559 95.0237,93.722 105.4373,88.5153 108.0407,82.0068 108.4746,59.878 96.7593,49.4644 88.9492,33.4102 76.3661,28.6373 71.5932,26.4678 68.5559,22.9966 62.4814,20.8271" stroke="#00007f" stroke-width="2" /><polyline fill="none" points="24.7322,51.2 10.8475,26.4678 8.678,15.1864 21.6949,18.2237 31.6746,23.8644 34.7119,22.9966" stroke="#0028ff" stroke-width="2" /><polyline fill="none" points="82.4407,28.2034 103.7017,14.7525 113.2475,11.7153 118.0203,8.678 119.322,11.7153 118.4542,21.261 109.7763,39.0508 101.9661,43.8237" stroke="#00d4ff" stroke-width="2" /><polyline fill="none" points="42.9559,50.7661 49.8983,52.5017" stroke="#7cff79" stroke-width="2" /><polyline fill="none" points="78.9695,51.6339 88.0814,54.6712" stroke="#ffe500" stroke-width="2" /><polyline fill="none" points="55.9729,69.4237 64.2169,70.7254 64.6508,74.6305 60.7458,75.0644 57.7085,71.1593 61.1797,76.3661" stroke="#ff4600" stroke-width="2" /><polyline fill="none" points="61.1797,76.3661 50.7661,75.4983 45.9932,71.1593 48.1627,72.0271 52.9356,82.4407 54.6712,82.8746 57.2746,81.5729 61.6136,73.7627 63.3492,84.6102 67.2542,88.5153 71.1593,88.5153 75.4983,82.0068 75.4983,78.9695" stroke="#7f0000" stroke-width="2" /></svg>