<?xml version="1.0" encoding="utf-8" ?>
<svg baseProfile="tiny" height="128" version="1.2" viewBox="0,0,128,128" width="128" xmlns="http://www.w3.org/2000/svg" xmlns:ev="http://www.w3.org/2001/xml-events" xmlns:xlink="http://www.w3.org/1999/xlink"><defs /><polyline fill="none" points="18.2237,47.7288 19.0915,59.4441 16.0542,70.2915 16.0542,83.3085" stroke="#00007f" stroke-width="2" /><polyline fill="none" points="14.7525,84.1763 13.4508,83.7424 13.4508,84.6102 16.4881,84.6102 11.7153,87.6475 20.3932,88.0814 22.1288,68.9898 25.6,55.1051 25.6,51.2 23.4305,46.4271" stroke="#004cff" stroke-width="2" /><polyline fill="none" points="22.9966,45.9932 30.8068,46.4271 34.7119,52.5017 36.8814,53.3695 42.522,52.9356 58.5763,47.2949 68.5559,51.2 80.7051,50.7661" stroke="#29ffcd" stroke-width="2" /><polyline fill="none" points="81.139,50.3322 75.9322,58.1424 75.4983,64.2169 77.6678,70.2915 75.0644,75.0644 75.4983,85.9119 72.461,91.9864 74.1966,94.1559 78.1017,91.9864 79.4034,92.8542 85.0441,67.2542 85.9119,47.2949" stroke="#cdff29" stroke-width="2" /><polyline fill="none" points="85.9119,48.1627 96.3254,47.2949 102.4,43.8237 105.0034,37.3153 113.6814,27.7695 118.0203,19.9593 119.322,13.8847 119.322,9.1119 118.0203,8.678 114.9831,9.9797 111.078,13.8847 107.1729,25.1661 103.7017,28.6373 97.6271,31.6746 86.7797,33.4102 79.4034,37.3153 69.4237,37.7492 52.9356,33.4102 43.3898,32.9763 21.6949,35.1458 12.1492,39.0508" stroke="#ff6700" stroke-width="2" /><polyline fill="none" points="19.0915,48.1627 16.0542,43.8237 9.5458,42.9559 8.678,41.2203" stroke="#7f0000" stroke-width="2" /></svg>