<?xml version="1.0" encoding="utf-8" ?>
<svg baseProfile="tiny" height="128" version="1.2" viewBox="0,0,128,128" width="128" xmlns="http://www.w3.org/2000/svg" xmlns:ev="http://www.w3.org/2001/xml-events" xmlns:xlink="http://www.w3.org/1999/xlink"><defs /><polyline fill="none" points="17.3559,53.8034 16.0542,53.3695 13.0169,56.4068 9.1119,62.9153 9.5458,76.3661 12.5831,82.4407 40.3525,111.5119 53.8034,107.6068 65.9525,100.6644 76.3661,91.9864 83.7424,78.9695 91.5525,53.8034 94.1559,42.9559 94.5898,29.0712 98.061,8.678 85.478,27.3356 76.8,33.4102 62.9153,58.1424 39.4847,50.3322 21.6949,23.8644 17.7898,29.939 10.4136,62.4814" stroke="#00007f" stroke-width="2" /><polyline fill="none" points="50.3322,80.2712 60.3119,81.139 78.1017,80.2712" stroke="#0000f1" stroke-width="2" /><polyline fill="none" points="55.9729,89.3831 76.3661,106.3051" stroke="#004cff" stroke-width="2" /><polyline fill="none" points="56.8407,98.9288 59.878,108.4746" stroke="#00b0ff" stroke-width="2" /><polyline fill="none" points="34.7119,77.6678 21.6949,73.3288 10.8475,62.9153" stroke="#29ffcd" stroke-width="2" /><polyline fill="none" points="26.4678,83.3085 22.5627,82.4407 8.678,72.8949" stroke="#7cff79" stroke-width="2" /><polyline fill="none" points="25.1661,91.1186 18.2237,91.1186" stroke="#cdff29" stroke-width="2" /><polyline fill="none" points="37.3153,85.9119 41.6542,85.9119" stroke="#ffc400" stroke-width="2" /><polyline fill="none" points="36.8814,90.2508 37.3153,97.6271 40.7864,103.7017 44.2576,105.4373" stroke="#ff6700" stroke-width="2" /><polyline fill="none" points="34.7119,96.3254 30.8068,97.6271" stroke="#f10700" stroke-width="2" /><polyline fill="none" points="51.2,66.8203 52.9356,78.1017 52.9356,93.722 49.4644,104.5695 39.0508,117.1525 35.1458,119.322 32.9763,116.7186 32.1085,100.2305" stroke="#7f0000" stroke-width="2" /></svg>