<?xml version="1.0" encoding="utf-8" ?>
<svg baseProfile="tiny" height="128" version="1.2" viewBox="0,0,128,128" width="128" xmlns="http://www.w3.org/2000/svg" xmlns:ev="http://www.w3.org/2001/xml-events" xmlns:xlink="http://www.w3.org/1999/xlink"><defs /><polyline fill="none" points="71.1593,56.4068 52.5017,45.1254 36.4475,41.6542 26.9017,41.6542 22.5627,43.3898 12.1492,54.6712 8.678,68.5559 8.678,85.0441 9.9797,90.6847 14.3186,100.2305 19.9593,107.6068 28.6373,113.6814 33.8441,115.8508 45.1254,119.322 62.9153,118.8881 74.1966,114.1153 78.9695,107.1729 81.5729,99.3627 81.5729,75.4983 78.5356,68.9898 66.3864,55.1051" stroke="#00007f" stroke-width="2" /><polyline fill="none" points="13.0169,48.5966 16.0542,8.678 25.1661,22.1288 31.2407,40.7864" stroke="#0000ff" stroke-width="2" /><polyline fill="none" points="48.1627,41.6542 82.0068,18.6576 83.3085,21.261 79.4034,35.1458 72.461,49.4644 68.9898,54.6712" stroke="#0080ff" stroke-width="2" /><polyline fill="none" points="26.4678,70.7254 26.4678,70.7254" stroke="#15ffe1" stroke-width="2" /><polyline fill="none" points="50.3322,67.2542 50.3322,67.2542" stroke="#7cff79" stroke-width="2" /><polyline fill="none" points="26.4678,65.9525 28.6373,67.6881 28.6373,65.5186 27.3356,67.2542" stroke="#e4ff12" stroke-width="2" /><polyline fill="none" points="49.4644,66.8203 49.4644,66.3864" stroke="#ff9400" stroke-width="2" /><polyline fill="none" points="38.1831,91.1186 39.0508,83.3085 42.0881,83.7424 45.5593,91.9864 35.5797,92.8542" stroke="#ff1d00" stroke-width="2" /><polyline fill="none" points="43.8237,85.0441 69.8576,82.0068" stroke="#7f0000" stroke-width="2" /></svg>