<?xml version="1.0" encoding="utf-8" ?>
<svg baseProfile="tiny" height="128" version="1.2" viewBox="0,0,128,128" width="128" xmlns="http://www.w3.org/2000/svg" xmlns:ev="http://www.w3.org/2001/xml-events" xmlns:xlink="http://www.w3.org/1999/xlink"><defs /><polyline fill="none" points="39.9186,45.1254 30.8068,63.7831 26.4678,77.2339 26.0339,91.1186 27.3356,104.1356 29.5051,108.9085 32.9763,113.6814 41.2203,118.4542 79.4034,119.322 83.3085,118.4542 88.9492,110.2102 90.2508,96.3254 90.2508,68.122 88.0814,62.9153 81.139,54.2373 74.1966,49.8983 61.1797,45.9932 35.5797,45.9932" stroke="#00007f" stroke-width="2" /><polyline fill="none" points="33.4102,54.2373 26.4678,45.9932 8.678,8.678 19.0915,21.261 26.0339,25.1661 38.6169,28.6373 55.1051,41.2203" stroke="#004cff" stroke-width="2" /><polyline fill="none" points="64.6508,40.3525 85.9119,28.2034 102.8339,20.8271 104.1356,26.4678 88.0814,51.6339 84.6102,65.5186" stroke="#29ffcd" stroke-width="2" /><polyline fill="none" points="70.2915,79.4034 96.3254,79.8373 98.4949,83.3085" stroke="#cdff29" stroke-width="2" /><polyline fill="none" points="78.5356,95.8915 86.7797,95.8915 97.1932,99.3627" stroke="#ff6700" stroke-width="2" /><polyline fill="none" points="79.8373,109.7763 87.2136,111.5119 95.0237,115.8508" stroke="#7f0000" stroke-width="2" /></svg>