<?xml version="1.0" encoding="utf-8" ?>
<svg baseProfile="tiny" height="128" version="1.2" viewBox="0,0,128,128" width="128" xmlns="http://www.w3.org/2000/svg" xmlns:ev="http://www.w3.org/2001/xml-events" xmlns:xlink="http://www.w3.org/1999/xlink"><defs /><polyline fill="none" points="28.6373,46.861 39.0508,45.5593 48.1627,49.8983 54.2373,56.4068 55.539,64.2169 54.2373,68.122 48.1627,72.0271 41.2203,73.3288 27.7695,72.461 22.9966,67.2542 21.6949,62.0475 22.1288,56.4068 28.2034,49.8983 34.278,48.5966" stroke="#00007f" stroke-width="2" /><polyline fill="none" points="25.1661,53.3695 19.5254,38.6169 18.2237,26.0339 28.2034,34.278 36.4475,43.8237" stroke="#0000de" stroke-width="2" /><polyline fill="none" points="49.0305,49.0305 50.7661,44.2576 62.4814,29.0712 64.2169,31.2407 64.6508,42.9559 60.7458,57.7085" stroke="#0028ff" stroke-width="2" /><polyline fill="none" points="64.6508,55.539 53.3695,64.2169" stroke="#0080ff" stroke-width="2" /><polyline fill="none" points="30.3729,58.1424 30.3729,58.1424" stroke="#00d4ff" stroke-width="2" /><polyline fill="none" points="33.4102,56.8407 32.1085,57.2746 30.3729,55.9729 33.8441,55.9729" stroke="#36ffc0" stroke-width="2" /><polyline fill="none" points="24.2983,63.7831 9.9797,68.5559 8.678,70.7254 13.4508,72.8949 32.1085,75.4983" stroke="#7cff79" stroke-width="2" /><polyline fill="none" points="56.4068,65.0847 106.739,64.2169 108.4746,65.5186 108.9085,70.7254 103.7017,75.9322 96.7593,79.4034 87.6475,82.0068 74.1966,82.0068 59.878,76.3661 49.4644,67.2542" stroke="#c0ff36" stroke-width="2" /><polyline fill="none" points="59.0102,76.8 56.8407,78.1017 49.4644,94.5898 47.2949,103.2678 46.861,115.4169 55.1051,96.7593 59.0102,91.1186 65.0847,86.3458 70.7254,85.478" stroke="#ffe500" stroke-width="2" /><polyline fill="none" points="84.6102,87.6475 79.8373,102.4 78.1017,119.322 88.5153,84.6102 91.5525,82.4407" stroke="#ff9400" stroke-width="2" /><polyline fill="none" points="76.3661,84.6102 67.2542,98.9288 62.4814,112.3797 80.7051,78.9695 86.7797,73.7627" stroke="#ff4600" stroke-width="2" /><polyline fill="none" points="99.3627,79.8373 97.6271,82.8746 95.4576,99.3627 95.0237,113.6814 95.4576,115.8508 96.7593,115.4169 103.7017,90.2508 105.8712,73.7627 106.739,73.3288" stroke="#de0000" stroke-width="2" /><polyline fill="none" points="107.6068,69.8576 106.3051,69.4237 106.3051,65.5186 108.0407,51.2 105.8712,47.2949 95.8915,40.3525 89.8169,26.4678 90.6847,8.678" stroke="#7f0000" stroke-width="2" /></svg>