<?xml version="1.0" encoding="utf-8" ?>
<svg baseProfile="tiny" height="128" version="1.2" viewBox="0,0,128,128" width="128" xmlns="http://www.w3.org/2000/svg" xmlns:ev="http://www.w3.org/2001/xml-events" xmlns:xlink="http://www.w3.org/1999/xlink"><defs /><polyline fill="none" points="71.1593,33.8441 56.4068,36.0136 48.5966,39.4847 41.6542,45.9932 38.6169,52.0678 39.0508,61.1797 41.6542,64.2169 50.3322,65.5186 71.5932,65.0847 83.3085,60.7458 93.722,51.6339 96.3254,45.1254 96.3254,40.7864 91.9864,35.5797 81.139,32.1085 65.9525,30.8068 44.2576,31.6746" stroke="#00007f" stroke-width="2" /><polyline fill="none" points="78.5356,33.8441 100.2305,8.678 100.2305,26.0339 97.6271,37.7492" stroke="#0028ff" stroke-width="2" /><polyline fill="none" points="49.0305,35.5797 45.1254,25.6 39.4847,15.6203 37.3153,23.8644 37.7492,35.5797 40.3525,43.8237 43.3898,44.6915" stroke="#00d4ff" stroke-width="2" /><polyline fill="none" points="57.7085,49.0305 25.1661,49.0305" stroke="#7cff79" stroke-width="2" /><polyline fill="none" points="57.2746,52.0678 8.678,54.2373" stroke="#ffe500" stroke-width="2" /><polyline fill="none" points="58.5763,57.7085 35.5797,63.7831 25.1661,68.122" stroke="#ff4600" stroke-width="2" /><polyline fill="none" points="70.7254,47.2949 92.8542,51.2 119.322,53.8034" stroke="#7f0000" stroke-width="2" /></svg>