<?xml version="1.0" encoding="utf-8" ?>
<svg baseProfile="tiny" height="128" version="1.2" viewBox="0,0,128,128" width="128" xmlns="http://www.w3.org/2000/svg" xmlns:ev="http://www.w3.org/2001/xml-events" xmlns:xlink="http://www.w3.org/1999/xlink"><defs /><polyline fill="none" points="25.1661,56.8407 25.1661,63.3492 29.0712,66.3864 69.8576,67.2542 75.9322,63.3492 79.4034,52.9356 78.9695,46.4271 75.0644,43.8237 65.0847,42.0881 62.0475,39.9186 37.3153,39.0508 24.2983,40.7864 19.9593,54.2373 20.8271,59.878 23.8644,62.4814" stroke="#00007f" stroke-width="2" /><polyline fill="none" points="77.6678,46.4271 84.1763,44.2576 88.0814,38.6169 89.8169,32.9763" stroke="#0028ff" stroke-width="2" /><polyline fill="none" points="90.2508,30.8068 95.0237,40.3525 106.3051,40.7864 109.7763,39.0508 111.9458,36.0136 113.2475,32.9763 113.2475,20.3932 110.2102,17.3559 101.5322,13.8847 92.4203,17.3559 88.0814,21.6949 84.1763,28.2034 84.1763,30.8068 91.1186,30.8068" stroke="#00d4ff" stroke-width="2" /><polyline fill="none" points="87.2136,17.7898 80.7051,17.7898 77.6678,15.1864 81.5729,13.0169 87.2136,13.0169 91.1186,14.7525" stroke="#7cff79" stroke-width="2" /><polyline fill="none" points="111.078,12.1492 119.322,8.678 119.322,19.9593" stroke="#ffe500" stroke-width="2" /><polyline fill="none" points="72.0271,59.4441 71.1593,62.0475 75.4983,70.7254 81.139,80.7051 87.6475,88.0814" stroke="#ff4600" stroke-width="2" /><polyline fill="none" points="26.9017,62.0475 22.5627,75.0644 19.9593,77.6678 19.9593,80.2712 16.4881,86.3458 8.678,93.2881" stroke="#7f0000" stroke-width="2" /></svg>