<?xml version="1.0" encoding="utf-8" ?>
<svg baseProfile="tiny" height="128" version="1.2" viewBox="0,0,128,128" width="128" xmlns="http://www.w3.org/2000/svg" xmlns:ev="http://www.w3.org/2001/xml-events" xmlns:xlink="http://www.w3.org/1999/xlink"><defs /><polyline fill="none" points="38.1831,33.8441 39.4847,32.1085 39.9186,32.9763 38.6169,32.9763 40.3525,32.9763 39.0508,34.7119 39.9186,44.2576 41.2203,45.5593 42.9559,44.2576 42.522,43.3898 39.9186,45.9932 39.4847,43.8237 38.6169,45.9932 35.1458,42.9559" stroke="#00007f" stroke-width="2" /><polyline fill="none" points="43.3898,32.1085 53.8034,27.3356" stroke="#0000de" stroke-width="2" /><polyline fill="none" points="46.861,34.278 56.8407,34.7119" stroke="#0028ff" stroke-width="2" /><polyline fill="none" points="52.5017,38.6169 57.7085,40.7864 63.7831,40.7864" stroke="#0080ff" stroke-width="2" /><polyline fill="none" points="31.6746,30.8068 19.5254,29.5051" stroke="#00d4ff" stroke-width="2" /><polyline fill="none" points="30.3729,32.1085 17.3559,36.4475" stroke="#36ffc0" stroke-width="2" /><polyline fill="none" points="27.3356,38.6169 19.0915,43.8237" stroke="#7cff79" stroke-width="2" /><polyline fill="none" points="29.0712,20.8271 30.3729,24.7322 32.1085,21.6949 29.5051,21.261 29.5051,22.9966" stroke="#c0ff36" stroke-width="2" /><polyline fill="none" points="40.3525,20.3932 39.0508,23.4305 41.2203,22.5627" stroke="#ffe500" stroke-width="2" /><polyline fill="none" points="20.3932,19.5254 32.5424,14.7525 44.2576,14.7525 48.5966,12.1492 58.5763,8.678 53.8034,17.7898 58.1424,18.6576 62.0475,21.261 67.2542,27.7695 70.2915,35.5797 69.8576,39.9186 66.3864,45.1254 59.0102,50.7661 49.8983,55.1051 39.9186,56.8407 27.3356,55.539 19.9593,51.2 16.922,45.1254 16.922,27.3356 19.0915,22.9966 8.678,13.8847 16.4881,14.7525 23.4305,17.7898" stroke="#ff9400" stroke-width="2" /><polyline fill="none" points="27.7695,55.539 26.4678,59.0102 28.6373,60.3119 51.2,61.1797 59.0102,59.0102 63.3492,56.8407 65.0847,52.5017 62.0475,50.7661" stroke="#ff4600" stroke-width="2" /><polyline fill="none" points="43.3898,60.3119 40.3525,62.9153 40.7864,65.5186 42.9559,67.2542 45.1254,67.6881 46.861,65.9525 46.861,62.4814 38.6169,59.0102" stroke="#de0000" stroke-width="2" /><polyline fill="none" points="79.8373,31.6746 78.9695,33.8441 77.6678,29.0712 77.6678,22.5627 78.9695,21.6949 83.3085,22.1288 84.1763,28.6373 84.1763,22.1288 87.2136,19.0915 88.0814,22.5627 87.2136,32.1085 88.0814,32.9763 91.9864,29.939 95.4576,24.2983 95.0237,18.2237 93.2881,18.6576 91.5525,26.9017 93.2881,30.3729 95.0237,30.8068 101.0983,22.1288 101.9661,18.2237 100.6644,17.3559 96.3254,25.6 95.8915,30.3729 97.1932,33.4102 99.3627,32.5424 101.0983,27.7695 100.6644,22.5627 98.4949,19.9593 101.5322,18.2237 104.5695,32.1085 108.4746,28.2034 110.2102,23.4305 109.3424,30.3729 111.078,31.6746 117.5864,22.9966 119.322,15.6203 117.5864,10.8475" stroke="#7f0000" stroke-width="2" /></svg>