<?xml version="1.0" encoding="utf-8" ?>
<svg baseProfile="tiny" height="128" version="1.2" viewBox="0,0,128,128" width="128" xmlns="http://www.w3.org/2000/svg" xmlns:ev="http://www.w3.org/2001/xml-events" xmlns:xlink="http://www.w3.org/1999/xlink"><defs /><polyline fill="none" points="33.4102,40.3525 36.0136,34.7119 40.7864,29.5051 48.1627,26.4678 55.1051,27.7695 64.6508,37.7492 68.9898,38.1831 75.9322,34.7119 87.6475,24.7322 101.0983,8.678 101.9661,11.7153 97.6271,39.4847 100.6644,53.8034 100.2305,61.1797 98.4949,68.122 94.5898,74.1966 88.9492,78.9695 79.8373,82.8746 62.0475,84.1763 37.7492,81.5729 26.0339,74.6305 19.5254,66.3864 13.4508,51.6339 9.9797,36.8814 9.9797,20.3932 12.5831,21.261 33.4102,39.4847" stroke="#00007f" stroke-width="2" /><polyline fill="none" points="49.4644,50.7661 42.9559,50.7661 39.9186,52.9356 39.4847,56.4068 41.6542,57.7085 45.5593,57.7085 46.861,55.539" stroke="#0000f1" stroke-width="2" /><polyline fill="none" points="78.5356,50.3322 68.122,52.5017 66.8203,56.4068 68.5559,58.1424 75.0644,59.0102 77.2339,58.1424 79.4034,55.1051" stroke="#004cff" stroke-width="2" /><polyline fill="none" points="61.1797,60.7458 59.878,65.9525 54.2373,72.0271 47.2949,74.6305 41.6542,74.1966" stroke="#00b0ff" stroke-width="2" /><polyline fill="none" points="61.1797,68.9898 64.6508,73.7627 69.4237,75.9322 73.7627,76.3661 82.0068,73.3288" stroke="#29ffcd" stroke-width="2" /><polyline fill="none" points="82.0068,62.4814 113.2475,41.6542" stroke="#7cff79" stroke-width="2" /><polyline fill="none" points="89.3831,64.2169 118.4542,59.0102" stroke="#cdff29" stroke-width="2" /><polyline fill="none" points="85.478,74.1966 89.8169,72.8949 102.8339,73.7627 119.322,79.8373" stroke="#ffc400" stroke-width="2" /><polyline fill="none" points="47.2949,64.6508 10.4136,76.8" stroke="#ff6700" stroke-width="2" /><polyline fill="none" points="38.1831,70.2915 29.5051,76.3661 21.6949,83.7424 14.7525,92.8542 8.678,104.5695" stroke="#f10700" stroke-width="2" /><polyline fill="none" points="38.6169,65.0847 9.5458,68.122" stroke="#7f0000" stroke-width="2" /></svg>