<?xml version="1.0" encoding="utf-8" ?>
<svg baseProfile="tiny" height="128" version="1.2" viewBox="0,0,128,128" width="128" xmlns="http://www.w3.org/2000/svg" xmlns:ev="http://www.w3.org/2001/xml-events" xmlns:xlink="http://www.w3.org/1999/xlink"><defs /><polyline fill="none" points="37.7492,40.7864 30.8068,40.7864 24.7322,47.2949 19.5254,59.878 18.6576,72.8949 20.3932,77.2339 24.7322,81.5729 31.6746,85.0441 40.7864,86.3458" stroke="#00007f" stroke-width="2" /><polyline fill="none" points="89.8169,42.9559 98.9288,43.8237 105.4373,47.2949 109.3424,55.9729 109.7763,67.6881 105.4373,72.8949 99.3627,75.9322 90.6847,77.6678 74.1966,78.5356" stroke="#0000d1" stroke-width="2" /><polyline fill="none" points="36.0136,57.2746 29.5051,54.2373 20.3932,54.2373 12.1492,59.0102 8.678,64.6508" stroke="#0010ff" stroke-width="2" /><polyline fill="none" points="33.8441,65.9525 26.0339,67.6881 19.9593,70.7254 13.8847,78.5356" stroke="#0058ff" stroke-width="2" /><polyline fill="none" points="42.0881,74.1966 21.6949,85.0441 16.4881,90.6847 15.6203,95.8915" stroke="#00a4ff" stroke-width="2" /><polyline fill="none" points="88.0814,55.9729 108.4746,59.878 119.322,65.0847" stroke="#05ecf1" stroke-width="2" /><polyline fill="none" points="87.6475,67.6881 110.2102,75.0644" stroke="#3fffb7" stroke-width="2" /><polyline fill="none" points="83.7424,78.9695 88.5153,77.2339 92.4203,77.6678 113.2475,87.6475 118.8881,92.4203" stroke="#7cff79" stroke-width="2" /><polyline fill="none" points="43.3898,41.6542 36.4475,28.2034 32.5424,13.8847 49.8983,33.4102" stroke="#b7ff3f" stroke-width="2" /><polyline fill="none" points="68.122,35.5797 71.1593,24.2983 74.6305,17.7898 79.8373,10.8475 83.3085,8.678 85.478,9.1119 86.7797,15.6203 85.9119,43.3898" stroke="#f1fc05" stroke-width="2" /><polyline fill="none" points="91.1186,46.4271 91.1186,46.4271" stroke="#ffb900" stroke-width="2" /><polyline fill="none" points="55.1051,60.7458 55.1051,60.7458" stroke="#ff7300" stroke-width="2" /><polyline fill="none" points="52.0678,58.1424 61.6136,58.5763 68.5559,57.2746 56.4068,67.6881 53.8034,60.3119 51.2,58.1424" stroke="#ff3000" stroke-width="2" /><polyline fill="none" points="67.2542,45.5593 78.1017,45.9932" stroke="#d10000" stroke-width="2" /><polyline fill="none" points="44.2576,50.7661 44.2576,50.7661" stroke="#7f0000" stroke-width="2" /></svg>