<?xml version="1.0" encoding="utf-8" ?>
<svg baseProfile="tiny" height="128" version="1.2" viewBox="0,0,128,128" width="128" xmlns="http://www.w3.org/2000/svg" xmlns:ev="http://www.w3.org/2001/xml-events" xmlns:xlink="http://www.w3.org/1999/xlink"><defs /><polyline fill="none" points="32.5424,45.9932 20.8271,33.8441 9.5458,16.0542 53.3695,37.7492" stroke="#00007f" stroke-width="2" /><polyline fill="none" points="48.5966,38.1831 56.4068,36.0136 68.9898,35.5797 92.8542,43.8237" stroke="#0000d5" stroke-width="2" /><polyline fill="none" points="90.2508,47.2949 95.0237,35.1458 111.9458,8.678 112.8136,9.5458 112.8136,17.7898 108.4746,46.861" stroke="#001cff" stroke-width="2" /><polyline fill="none" points="33.4102,44.2576 26.9017,51.2 20.8271,63.3492 20.3932,80.7051 24.7322,96.3254 103.7017,98.4949 110.2102,86.3458 118.4542,62.4814 118.4542,59.0102 115.4169,52.9356 108.9085,49.8983" stroke="#006cff" stroke-width="2" /><polyline fill="none" points="67.6881,68.5559 62.0475,68.5559 59.878,70.7254 59.878,72.8949 64.2169,78.5356 69.8576,80.2712 72.0271,79.4034 73.3288,76.3661 71.1593,69.8576 65.9525,66.8203" stroke="#00b8ff" stroke-width="2" /><polyline fill="none" points="13.0169,62.4814 40.7864,71.5932 48.1627,72.0271" stroke="#1cffda" stroke-width="2" /><polyline fill="none" points="8.678,76.3661 43.3898,78.9695" stroke="#5cff9a" stroke-width="2" /><polyline fill="none" points="16.4881,89.8169 33.4102,85.0441 51.2,78.1017" stroke="#9aff5c" stroke-width="2" /><polyline fill="none" points="88.9492,69.8576 119.322,68.9898" stroke="#daff1c" stroke-width="2" /><polyline fill="none" points="84.1763,74.1966 103.2678,79.8373 114.9831,81.139" stroke="#ffcb00" stroke-width="2" /><polyline fill="none" points="86.7797,80.2712 100.6644,88.0814 118.4542,95.0237" stroke="#ff8500" stroke-width="2" /><polyline fill="none" points="52.0678,46.861 49.0305,47.2949 48.1627,51.2 48.1627,57.2746 49.8983,59.0102 53.3695,57.2746 53.3695,54.6712 45.9932,47.2949" stroke="#ff3b00" stroke-width="2" /><polyline fill="none" points="79.4034,48.1627 74.6305,48.5966 72.461,51.2 73.7627,60.3119 75.0644,63.7831 75.9322,63.7831 78.5356,61.6136 78.9695,54.2373 75.0644,49.8983 68.9898,48.1627" stroke="#d50000" stroke-width="2" /><polyline fill="none" points="55.1051,81.139 57.7085,81.5729" stroke="#7f0000" stroke-width="2" /></svg>