<?xml version="1.0" encoding="utf-8" ?>
<svg baseProfile="tiny" height="128" version="1.2" viewBox="0,0,128,128" width="128" xmlns="http://www.w3.org/2000/svg" xmlns:ev="http://www.w3.org/2001/xml-events" xmlns:xlink="http://www.w3.org/1999/xlink"><defs /><polyline fill="none" points="40.3525,42.0881 37.7492,42.9559 35.1458,66.8203 47.7288,67.6881 49.4644,42.0881 49.4644,48.5966 50.3322,50.3322 54.2373,50.7661 55.539,48.5966 55.9729,42.0881 54.6712,40.3525 52.0678,39.9186" stroke="#00007f" stroke-width="2" /><polyline fill="none" points="58.1424,37.3153 55.9729,39.0508 55.9729,41.6542 58.5763,42.9559 60.7458,42.0881 61.6136,39.0508 57.2746,37.7492" stroke="#004cff" stroke-width="2" /><polyline fill="none" points="55.1051,48.1627 58.5763,52.5017 61.1797,53.3695 62.4814,52.5017 59.878,41.2203" stroke="#29ffcd" stroke-width="2" /><polyline fill="none" points="64.2169,38.1831 86.7797,41.2203 85.9119,72.461 88.0814,74.6305 95.4576,75.9322 97.1932,71.5932 95.4576,40.3525 109.3424,39.4847 114.5492,36.8814 119.322,30.3729 118.8881,26.9017 115.8508,23.8644 111.078,22.1288 101.9661,22.1288 85.478,28.2034 30.8068,27.3356 22.5627,29.939 19.0915,32.9763 10.4136,45.1254 8.678,50.7661 12.5831,50.7661 19.0915,48.1627 26.9017,36.4475 31.6746,34.278 36.0136,36.0136 39.4847,41.6542" stroke="#cdff29" stroke-width="2" /><polyline fill="none" points="109.7763,25.1661 107.6068,26.4678 108.4746,28.6373 110.2102,29.0712 111.5119,25.6" stroke="#ff6700" stroke-width="2" /><polyline fill="none" points="97.6271,22.5627 96.7593,19.5254 100.2305,8.678 105.0034,22.9966 110.2102,9.9797 111.5119,24.2983" stroke="#7f0000" stroke-width="2" /></svg>