<?xml version="1.0" encoding="utf-8" ?>
<svg baseProfile="tiny" height="128" version="1.2" viewBox="0,0,128,128" width="128" xmlns="http://www.w3.org/2000/svg" xmlns:ev="http://www.w3.org/2001/xml-events" xmlns:xlink="http://www.w3.org/1999/xlink"><defs /><polyline fill="none" points="20.4626,48.7619 18.7211,48.3265 10.8844,58.7755 13.932,61.8231 16.5442,62.6939 31.7823,62.6939 60.9524,55.2925 69.2245,50.5034 73.1429,44.4082 72.2721,33.5238 67.9184,27.8639 54.8571,23.0748 38.7483,25.6871 31.7823,30.9116 26.1224,37.8776 23.0748,45.7143 22.6395,50.068 23.9456,51.3741" stroke="#00007f" stroke-width="2" /><polyline fill="none" points="23.9456,37.4422 21.7687,38.3129 10.449,22.2041 8.7075,16.9796 33.0884,28.7347 35.7007,28.2993" stroke="#00d4ff" stroke-width="2" /><polyline fill="none" points="50.068,22.6395 65.7415,8.7075 67.0476,12.1905 67.9184,28.2993" stroke="#ffe500" stroke-width="2" /><polyline fill="none" points="69.2245,28.2993 92.7347,20.898 98.3946,20.898 103.619,24.381 109.2789,32.2177 116.6803,52.2449 119.2925,69.2245 119.2925,85.3333 117.551,86.2041 114.5034,84.898 104.9252,76.1905 101.8776,75.3197 100.1361,78.8027 97.9592,90.1224 87.9456,82.2857 86.2041,82.7211 82.2857,90.5578 71.4014,82.7211 68.3537,84.4626 65.7415,90.1224 49.6327,74.0136" stroke="#7f0000" stroke-width="2" /></svg>