<?xml version="1.0" encoding="utf-8" ?>
<svg baseProfile="tiny" height="128" version="1.2" viewBox="0,0,128,128" width="128" xmlns="http://www.w3.org/2000/svg" xmlns:ev="http://www.w3.org/2001/xml-events" xmlns:xlink="http://www.w3.org/1999/xlink"><defs /><polyline fill="none" points="65.0847,13.0169 54.2373,14.7525 43.3898,21.261 40.7864,26.4678 40.3525,36.4475 46.4271,42.522 53.8034,44.2576 63.3492,42.9559 71.1593,37.3153 72.8949,32.1085 73.3288,19.5254 69.4237,16.0542 63.3492,15.1864" stroke="#00007f" stroke-width="2" /><polyline fill="none" points="52.9356,20.3932 50.3322,22.5627 50.7661,25.1661 53.3695,23.8644 53.8034,21.6949 52.5017,20.3932" stroke="#0000c8" stroke-width="2" /><polyline fill="none" points="51.6339,22.5627 51.6339,22.5627" stroke="#0000ff" stroke-width="2" /><polyline fill="none" points="52.0678,22.5627 51.2,22.9966" stroke="#0040ff" stroke-width="2" /><polyline fill="none" points="68.122,22.1288 64.2169,23.8644 62.9153,27.3356 63.7831,29.939 67.2542,30.8068 68.5559,26.4678 64.6508,22.9966" stroke="#0080ff" stroke-width="2" /><polyline fill="none" points="65.0847,26.0339 64.2169,27.3356" stroke="#00c0ff" stroke-width="2" /><polyline fill="none" points="55.9729,27.3356 53.8034,28.2034 53.3695,29.939 54.6712,31.2407 57.7085,31.2407 58.5763,29.0712 55.539,27.7695" stroke="#15ffe1" stroke-width="2" /><polyline fill="none" points="45.9932,32.9763 59.4441,34.7119 59.878,35.5797 57.7085,37.3153 58.1424,35.1458" stroke="#49ffad" stroke-width="2" /><polyline fill="none" points="46.4271,32.9763 46.4271,35.1458 47.7288,33.4102" stroke="#7cff79" stroke-width="2" /><polyline fill="none" points="46.861,26.9017 8.678,26.9017" stroke="#b0ff46" stroke-width="2" /><polyline fill="none" points="43.8237,29.939 8.678,31.6746" stroke="#e4ff12" stroke-width="2" /><polyline fill="none" points="43.3898,32.5424 8.678,42.0881" stroke="#ffcf00" stroke-width="2" /><polyline fill="none" points="68.5559,33.4102 93.722,36.0136 104.1356,38.6169 110.6441,42.522" stroke="#ff9400" stroke-width="2" /><polyline fill="none" points="68.5559,35.5797 102.8339,40.3525 119.322,45.9932" stroke="#ff5900" stroke-width="2" /><polyline fill="none" points="67.6881,36.8814 80.7051,46.4271 92.8542,58.1424 101.5322,59.0102" stroke="#ff1d00" stroke-width="2" /><polyline fill="none" points="69.8576,15.1864 78.5356,10.8475 83.3085,12.1492 83.3085,14.7525 76.8,21.6949" stroke="#c30000" stroke-width="2" /><polyline fill="none" points="54.2373,13.4508 50.7661,10.4136 45.9932,8.678 40.7864,8.678 38.6169,9.9797 38.6169,12.1492 40.3525,14.7525 50.7661,22.1288" stroke="#7f0000" stroke-width="2" /></svg>