<?xml version="1.0" encoding="utf-8" ?>
<svg baseProfile="tiny" height="128" version="1.2" viewBox="0,0,128,128" width="128" xmlns="http://www.w3.org/2000/svg" xmlns:ev="http://www.w3.org/2001/xml-events" xmlns:xlink="http://www.w3.org/1999/xlink"><defs /><polyline fill="none" points="56.3549,77.7611 52.8601,79.5085 50.6758,79.0717 36.6962,69.0239 30.1433,55.9181 27.5222,32.3276 22.7167,27.5222 8.7372,17.4744 34.0751,19.2218 51.5495,26.2116 74.7031,24.0273 93.4881,26.2116 96.1092,24.4642 100.9147,15.2901 106.5939,11.3584 114.0205,8.7372 119.2628,10.0478 119.2628,16.6007 108.3413,33.6382 97.8567,55.9181 86.4983,70.7713 77.7611,76.8874 66.4027,81.6928 51.5495,81.256" stroke="#00007f" stroke-width="2" /><polyline fill="none" points="51.5495,49.3652 49.3652,50.2389 51.1126,46.744 48.9283,48.0546 49.3652,45.4334" stroke="#0080ff" stroke-width="2" /><polyline fill="none" points="81.6928,41.0648 80.3823,42.8123 79.0717,41.0648" stroke="#7cff79" stroke-width="2" /><polyline fill="none" points="63.3447,48.4915 64.2184,59.413 63.3447,65.529 60.7235,69.0239 57.2287,71.2082 55.4812,69.0239 55.0444,64.6553 58.5392,57.6655 62.0341,61.1604" stroke="#ff9400" stroke-width="2" /><polyline fill="none" points="65.529,47.6177 66.4027,57.2287 68.587,62.9078 72.0819,63.7816 75.5768,62.471 81.6928,57.6655" stroke="#7f0000" stroke-width="2" /></svg>