<?xml version="1.0" encoding="utf-8" ?>
<svg baseProfile="tiny" height="128" version="1.2" viewBox="0,0,128,128" width="128" xmlns="http://www.w3.org/2000/svg" xmlns:ev="http://www.w3.org/2001/xml-events" xmlns:xlink="http://www.w3.org/1999/xlink"><defs /><polyline fill="none" points="19.0915,19.9593 12.5831,20.3932 8.678,23.8644 9.1119,31.6746 13.4508,38.1831 20.3932,42.0881 28.2034,43.8237 34.7119,43.8237 40.7864,40.3525 42.0881,37.3153 42.522,29.0712 39.4847,20.8271 36.4475,18.2237 32.1085,16.922 20.3932,17.7898" stroke="#00007f" stroke-width="2" /><polyline fill="none" points="21.6949,24.7322 21.6949,25.1661" stroke="#0000cc" stroke-width="2" /><polyline fill="none" points="32.9763,25.1661 32.9763,25.1661" stroke="#0008ff" stroke-width="2" /><polyline fill="none" points="32.1085,22.5627 32.1085,24.2983" stroke="#004cff" stroke-width="2" /><polyline fill="none" points="19.9593,32.1085 28.6373,29.0712 32.9763,29.0712 34.7119,30.3729 34.7119,32.9763 32.9763,36.4475 30.3729,37.7492 21.6949,39.0508 19.9593,34.7119 22.9966,33.4102" stroke="#0090ff" stroke-width="2" /><polyline fill="none" points="26.9017,32.5424 26.0339,35.1458 23.4305,35.1458" stroke="#00d4ff" stroke-width="2" /><polyline fill="none" points="26.4678,34.278 29.939,36.0136 30.3729,34.7119" stroke="#29ffcd" stroke-width="2" /><polyline fill="none" points="27.3356,32.1085 39.9186,32.1085" stroke="#5fff96" stroke-width="2" /><polyline fill="none" points="28.6373,33.4102 38.1831,33.8441" stroke="#96ff5f" stroke-width="2" /><polyline fill="none" points="23.8644,32.9763 9.9797,32.9763" stroke="#cdff29" stroke-width="2" /><polyline fill="none" points="23.4305,34.7119 18.6576,34.7119" stroke="#ffe500" stroke-width="2" /><polyline fill="none" points="11.7153,19.5254 14.7525,8.678 17.7898,11.7153 19.9593,16.4881" stroke="#ffa600" stroke-width="2" /><polyline fill="none" points="26.9017,15.6203 33.8441,9.1119 35.1458,18.2237" stroke="#ff6700" stroke-width="2" /><polyline fill="none" points="41.2203,36.8814 83.3085,31.2407 102.4,31.2407 111.5119,33.4102 118.0203,37.7492 119.322,40.7864 118.0203,52.0678 113.2475,59.4441 101.9661,63.7831 78.5356,64.2169 30.3729,45.1254" stroke="#ff2800" stroke-width="2" /><polyline fill="none" points="47.2949,51.6339 45.1254,63.7831 46.4271,68.122 52.5017,68.122 57.2746,65.9525 59.0102,63.3492 60.3119,56.4068" stroke="#cc0000" stroke-width="2" /><polyline fill="none" points="91.1186,63.7831 90.6847,70.7254 95.4576,72.0271 100.2305,68.122 101.9661,62.0475" stroke="#7f0000" stroke-width="2" /></svg>