<?xml version="1.0" encoding="utf-8" ?>
<svg baseProfile="tiny" height="128" version="1.2" viewBox="0,0,128,128" width="128" xmlns="http://www.w3.org/2000/svg" xmlns:ev="http://www.w3.org/2001/xml-events" xmlns:xlink="http://www.w3.org/1999/xlink"><defs /><polyline fill="none" points="42.9559,40.3525 44.2576,36.0136 49.4644,32.5424 59.0102,31.2407 80.7051,31.6746" stroke="#00007f" stroke-width="2" /><polyline fill="none" points="82.0068,32.5424 81.139,27.3356 84.1763,20.3932 92.4203,8.678 94.1559,9.5458 97.6271,16.922 99.7966,36.4475" stroke="#0000c3" stroke-width="2" /><polyline fill="none" points="48.1627,36.8814 42.9559,33.4102 37.7492,26.4678 33.8441,25.1661 32.9763,37.3153 35.5797,51.6339" stroke="#0000ff" stroke-width="2" /><polyline fill="none" points="36.0136,48.1627 32.5424,51.2 26.0339,65.5186 24.7322,75.9322 24.7322,83.3085 26.0339,85.478 36.0136,95.4576 43.3898,98.9288 54.6712,100.6644 70.7254,100.6644 79.4034,98.9288 91.5525,92.4203 98.061,87.2136 104.1356,76.8 105.0034,55.539 101.9661,49.4644 95.8915,42.522" stroke="#0034ff" stroke-width="2" /><polyline fill="none" points="53.8034,62.0475 52.0678,62.4814 52.5017,67.6881 55.9729,69.4237 58.5763,68.122 59.4441,63.7831 57.7085,61.6136 55.9729,61.1797 55.1051,62.9153" stroke="#0070ff" stroke-width="2" /><polyline fill="none" points="90.6847,58.1424 86.7797,57.2746 85.0441,61.6136 85.9119,63.7831 91.5525,65.0847 92.8542,62.4814 91.5525,60.3119 86.3458,59.0102" stroke="#00acff" stroke-width="2" /><polyline fill="none" points="65.0847,81.5729 75.9322,78.5356 77.2339,80.7051 74.1966,88.0814 64.6508,82.0068" stroke="#02e8f4" stroke-width="2" /><polyline fill="none" points="69.4237,85.478 64.6508,92.4203 59.0102,94.1559 54.2373,82.0068" stroke="#32ffc3" stroke-width="2" /><polyline fill="none" points="73.7627,86.7797 73.3288,88.9492 74.6305,91.9864 81.5729,95.0237 84.6102,94.1559 86.7797,85.9119" stroke="#63ff93" stroke-width="2" /><polyline fill="none" points="57.7085,59.878 59.4441,71.5932 57.7085,71.5932 56.8407,67.6881 58.1424,66.3864" stroke="#93ff63" stroke-width="2" /><polyline fill="none" points="90.2508,58.1424 88.9492,61.1797 87.6475,61.1797 88.0814,59.0102" stroke="#c3ff32" stroke-width="2" /><polyline fill="none" points="78.5356,85.0441 83.3085,81.139 92.4203,76.8 106.3051,75.0644" stroke="#f4f802" stroke-width="2" /><polyline fill="none" points="82.4407,85.0441 92.8542,81.5729 107.6068,80.7051" stroke="#ffc000" stroke-width="2" /><polyline fill="none" points="82.0068,88.0814 95.8915,87.2136 109.7763,89.8169" stroke="#ff8900" stroke-width="2" /><polyline fill="none" points="68.5559,83.3085 43.3898,85.0441" stroke="#ff5100" stroke-width="2" /><polyline fill="none" points="60.7458,82.4407 54.6712,82.4407 50.3322,84.6102 41.2203,95.4576" stroke="#ff1a00" stroke-width="2" /><polyline fill="none" points="61.1797,85.0441 56.8407,88.0814 52.0678,94.5898 47.2949,105.0034" stroke="#c30000" stroke-width="2" /><polyline fill="none" points="37.7492,95.8915 36.0136,97.6271 32.5424,109.3424 26.9017,114.9831 22.1288,117.5864 18.6576,117.1525 14.3186,109.7763 13.8847,103.2678 16.0542,96.7593 19.9593,75.9322 19.9593,72.0271 13.8847,62.4814 14.3186,55.9729 19.5254,44.2576 19.5254,40.7864 17.7898,41.6542 12.5831,55.9729 13.8847,79.4034 10.4136,90.6847 8.678,108.9085 9.9797,113.2475 24.2983,119.322" stroke="#7f0000" stroke-width="2" /></svg>