<?xml version="1.0" encoding="utf-8" ?>
<svg baseProfile="tiny" height="128" version="1.2" viewBox="0,0,128,128" width="128" xmlns="http://www.w3.org/2000/svg" xmlns:ev="http://www.w3.org/2001/xml-events" xmlns:xlink="http://www.w3.org/1999/xlink"><defs /><polyline fill="none" points="14.3186,50.3322 15.6203,33.8441 22.9966,8.678 22.1288,23.4305 23.8644,39.9186 30.8068,49.0305 45.9932,49.0305 69.4237,47.7288 68.5559,32.9763 69.8576,22.5627 73.7627,13.0169 76.3661,9.1119 78.1017,11.2814 80.7051,38.6169 84.6102,49.0305 86.3458,49.4644 87.6475,74.1966 86.3458,84.1763 76.8,96.7593 74.6305,102.4 64.2169,113.2475 43.3898,119.322 35.1458,118.4542 20.3932,110.6441 13.4508,100.6644 8.678,72.8949 9.9797,59.0102 13.8847,47.2949 17.3559,46.4271" stroke="#00007f" stroke-width="2" /><polyline fill="none" points="46.4271,82.8746 44.6915,81.5729 45.5593,82.8746" stroke="#004cff" stroke-width="2" /><polyline fill="none" points="48.5966,84.6102 45.9932,94.1559 42.522,96.3254 39.0508,101.9661 33.8441,103.7017 23.4305,102.8339" stroke="#29ffcd" stroke-width="2" /><polyline fill="none" points="49.8983,84.6102 57.2746,102.8339 59.4441,104.5695 65.5186,104.1356" stroke="#cdff29" stroke-width="2" /><polyline fill="none" points="29.5051,67.6881 30.3729,67.6881" stroke="#ff6700" stroke-width="2" /><polyline fill="none" points="67.6881,66.8203 68.122,68.9898" stroke="#7f0000" stroke-width="2" /></svg>