<?xml version="1.0" encoding="utf-8" ?>
<svg baseProfile="tiny" height="128" version="1.2" viewBox="0,0,128,128" width="128" xmlns="http://www.w3.org/2000/svg" xmlns:ev="http://www.w3.org/2001/xml-events" xmlns:xlink="http://www.w3.org/1999/xlink"><defs /><polyline fill="none" points="70.2915,26.9017 59.4441,30.8068 36.8814,33.4102 26.4678,41.2203 16.922,53.3695 13.0169,74.1966 13.0169,90.2508 14.3186,94.1559 24.7322,105.8712 31.6746,110.6441 41.6542,114.9831 61.6136,119.322 77.2339,118.4542 81.139,114.1153 89.3831,95.8915 92.8542,85.0441 94.1559,79.4034 94.5898,59.4441 82.8746,42.0881 75.0644,32.5424 67.2542,26.0339" stroke="#00007f" stroke-width="2" /><polyline fill="none" points="29.0712,32.9763 19.0915,22.5627 9.5458,8.678 8.678,11.2814 12.1492,42.522 13.4508,46.861" stroke="#0010ff" stroke-width="2" /><polyline fill="none" points="73.7627,26.4678 73.7627,24.7322 75.9322,22.5627 96.3254,8.678 96.7593,11.2814 92.4203,20.3932 88.5153,36.8814 86.7797,40.7864 85.9119,35.1458" stroke="#00a4ff" stroke-width="2" /><polyline fill="none" points="76.3661,64.2169 104.1356,63.3492" stroke="#3fffb7" stroke-width="2" /><polyline fill="none" points="79.4034,78.9695 108.4746,78.9695" stroke="#b7ff3f" stroke-width="2" /><polyline fill="none" points="80.7051,88.9492 115.8508,95.4576" stroke="#ffb900" stroke-width="2" /><polyline fill="none" points="39.9186,44.2576 39.9186,44.2576" stroke="#ff3000" stroke-width="2" /><polyline fill="none" points="61.1797,43.8237 61.1797,43.8237" stroke="#7f0000" stroke-width="2" /></svg>