<?xml version="1.0" encoding="utf-8" ?>
<svg baseProfile="tiny" height="128" version="1.2" viewBox="0,0,128,128" width="128" xmlns="http://www.w3.org/2000/svg" xmlns:ev="http://www.w3.org/2001/xml-events" xmlns:xlink="http://www.w3.org/1999/xlink"><defs /><polyline fill="none" points="45.1254,75.9322 41.6542,71.5932 37.3153,57.7085 37.3153,46.4271 39.9186,41.2203 43.3898,25.6 43.3898,14.3186 47.2949,17.3559 53.8034,26.9017 57.2746,29.939 64.6508,26.0339 78.1017,26.0339 82.8746,29.5051 88.0814,8.678 90.2508,9.5458 94.1559,15.1864 101.9661,41.6542 103.7017,62.0475 100.2305,69.8576 86.3458,79.8373 76.3661,82.4407 60.7458,82.4407 48.5966,80.2712 43.8237,77.6678 39.9186,73.3288" stroke="#00007f" stroke-width="2" /><polyline fill="none" points="36.4475,59.0102 21.261,59.0102 10.8475,62.4814 8.678,63.7831 8.678,66.3864" stroke="#0028ff" stroke-width="2" /><polyline fill="none" points="43.3898,64.6508 37.7492,68.5559 22.5627,70.2915 17.3559,72.461 15.6203,75.4983 15.6203,81.139" stroke="#00d4ff" stroke-width="2" /><polyline fill="none" points="90.2508,72.0271 93.722,70.7254 110.6441,70.7254 115.8508,73.3288 119.322,77.2339" stroke="#7cff79" stroke-width="2" /><polyline fill="none" points="83.3085,62.0475 86.7797,60.7458 108.4746,61.1797 114.1153,65.5186 119.322,75.0644" stroke="#ffe500" stroke-width="2" /><polyline fill="none" points="67.2542,54.6712 67.2542,56.8407 70.2915,57.7085 72.461,55.9729 72.461,53.8034 68.9898,55.539" stroke="#ff4600" stroke-width="2" /><polyline fill="none" points="55.539,42.9559 55.539,45.1254" stroke="#7f0000" stroke-width="2" /></svg>