<?xml version="1.0" encoding="utf-8" ?>
<svg baseProfile="tiny" height="128" version="1.2" viewBox="0,0,128,128" width="128" xmlns="http://www.w3.org/2000/svg" xmlns:ev="http://www.w3.org/2001/xml-events" xmlns:xlink="http://www.w3.org/1999/xlink"><defs /><polyline fill="none" points="66.6122,42.6667 39.619,34.8299 31.7823,35.2653 19.5918,42.2313 13.0612,50.068 10.8844,54.8571 8.7075,70.966 10.449,77.0612 20.898,85.7687 39.619,91.8639 49.6327,92.7347 65.7415,92.7347 75.3197,87.9456 83.1565,77.4966 84.4626,60.0816 80.1088,47.8912 68.3537,43.5374" stroke="#00007f" stroke-width="2" /><polyline fill="none" points="23.0748,34.8299 28.7347,22.6395 34.8299,13.932 40.0544,8.7075 43.102,10.8844 49.6327,33.0884 51.8095,34.8299" stroke="#0080ff" stroke-width="2" /><polyline fill="none" points="67.9184,43.5374 92.2993,33.5238 119.2925,18.7211 115.3741,34.3946 108.4082,47.8912 88.381,65.3061" stroke="#7cff79" stroke-width="2" /><polyline fill="none" points="38.3129,53.1156 41.7959,53.1156 41.7959,51.8095 46.1497,53.551 39.1837,52.2449 47.8912,53.9864" stroke="#ff9400" stroke-width="2" /><polyline fill="none" points="60.9524,57.9048 57.034,57.9048 59.6463,58.3401" stroke="#7f0000" stroke-width="2" /></svg>