<?xml version="1.0" encoding="utf-8" ?>
<svg baseProfile="tiny" height="128" version="1.2" viewBox="0,0,128,128" width="128" xmlns="http://www.w3.org/2000/svg" xmlns:ev="http://www.w3.org/2001/xml-events" xmlns:xlink="http://www.w3.org/1999/xlink"><defs /><polyline fill="none" points="20.8271,33.4102 8.678,9.5458 17.7898,17.3559 38.6169,29.939 61.1797,28.6373 74.1966,29.939 90.2508,34.278 104.5695,23.4305 119.322,8.678 110.6441,23.4305 100.2305,37.7492 94.5898,42.522 95.0237,55.1051 92.8542,65.0847 85.0441,84.6102 75.0644,93.722 64.6508,97.1932 46.4271,98.4949 37.3153,96.3254 28.6373,91.5525 19.5254,82.0068 12.1492,68.122 9.9797,59.0102 9.9797,52.9356 18.6576,33.8441" stroke="#00007f" stroke-width="2" /><polyline fill="none" points="34.278,65.0847 36.8814,70.7254 41.2203,73.3288 48.1627,73.7627 49.4644,72.8949 50.3322,68.5559" stroke="#0080ff" stroke-width="2" /><polyline fill="none" points="50.7661,62.9153 59.0102,63.3492 55.1051,68.9898 53.8034,68.9898 49.8983,63.3492" stroke="#7cff79" stroke-width="2" /><polyline fill="none" points="51.2,68.9898 53.8034,75.9322 55.539,78.1017 59.0102,78.9695 68.122,78.1017 73.7627,75.0644 75.9322,72.0271" stroke="#ff9400" stroke-width="2" /><polyline fill="none" points="73.7627,40.7864 76.8,41.2203" stroke="#7f0000" stroke-width="2" /></svg>