<?xml version="1.0" encoding="utf-8" ?>
<svg baseProfile="tiny" height="128" version="1.2" viewBox="0,0,128,128" width="128" xmlns="http://www.w3.org/2000/svg" xmlns:ev="http://www.w3.org/2001/xml-events" xmlns:xlink="http://www.w3.org/1999/xlink"><defs /><polyline fill="none" points="8.678,52.5017 9.9797,32.1085 16.922,9.9797 19.0915,12.1492 23.4305,23.4305 31.6746,39.9186 41.6542,32.9763 51.6339,30.8068 72.0271,30.8068 82.8746,33.8441 89.3831,18.6576 96.3254,8.678 98.4949,10.4136 103.7017,42.9559 105.0034,55.539 104.5695,86.7797 101.5322,94.5898 96.3254,101.5322 90.2508,107.1729 75.0644,116.2847 65.5186,119.322 51.2,119.322 42.0881,116.7186 25.6,106.739 19.5254,97.1932 16.922,88.5153 13.4508,62.0475 12.1492,42.0881" stroke="#00007f" stroke-width="2" /><polyline fill="none" points="37.7492,52.5017 37.7492,54.6712 35.1458,55.9729 34.7119,52.0678 36.4475,50.3322" stroke="#0028ff" stroke-width="2" /><polyline fill="none" points="64.2169,55.9729 66.8203,53.8034" stroke="#00d4ff" stroke-width="2" /><polyline fill="none" points="48.1627,90.2508 47.7288,88.0814 50.7661,84.1763 55.539,82.0068 55.9729,83.7424 49.4644,86.7797 49.4644,84.6102 53.8034,83.3085" stroke="#7cff79" stroke-width="2" /><polyline fill="none" points="81.139,79.8373 96.3254,68.9898 104.1356,60.7458" stroke="#ffe500" stroke-width="2" /><polyline fill="none" points="75.4983,98.4949 80.2712,98.4949 101.0983,91.9864 109.3424,86.3458" stroke="#ff4600" stroke-width="2" /><polyline fill="none" points="23.8644,86.7797 22.9966,82.4407 17.7898,75.4983" stroke="#7f0000" stroke-width="2" /></svg>