<?xml version="1.0" encoding="utf-8" ?>
<svg baseProfile="tiny" height="128" version="1.2" viewBox="0,0,128,128" width="128" xmlns="http://www.w3.org/2000/svg" xmlns:ev="http://www.w3.org/2001/xml-events" xmlns:xlink="http://www.w3.org/1999/xlink"><defs /><polyline fill="none" points="73.7627,21.6949 65.0847,19.0915 48.1627,22.9966 32.5424,30.8068 26.0339,36.8814 21.6949,42.9559 19.5254,50.3322 19.5254,59.0102 23.4305,70.2915 26.9017,75.0644 34.7119,81.139 47.2949,84.6102 70.7254,82.8746 81.5729,79.8373 89.3831,75.4983 96.7593,64.2169 97.6271,55.539 95.8915,45.5593 88.0814,29.939 79.4034,22.5627 65.0847,20.3932" stroke="#00007f" stroke-width="2" /><polyline fill="none" points="45.5593,20.3932 29.939,12.5831 24.2983,34.278" stroke="#0000fe" stroke-width="2" /><polyline fill="none" points="75.4983,18.2237 84.6102,15.1864 92.8542,8.678 92.8542,28.6373" stroke="#0060ff" stroke-width="2" /><polyline fill="none" points="76.8,38.6169 77.6678,47.7288 78.9695,43.8237 78.9695,35.1458 78.1017,44.2576 74.6305,35.1458 74.6305,41.2203" stroke="#00d4ff" stroke-width="2" /><polyline fill="none" points="49.4644,36.4475 47.2949,40.7864 46.861,45.9932 47.7288,44.6915 50.3322,36.0136 48.1627,39.9186 47.2949,46.861 48.1627,36.8814 47.7288,35.1458 46.861,36.4475 47.2949,41.6542" stroke="#4cffaa" stroke-width="2" /><polyline fill="none" points="56.4068,54.2373 62.0475,59.4441 63.3492,51.6339 57.2746,52.9356" stroke="#aaff4c" stroke-width="2" /><polyline fill="none" points="83.7424,58.1424 91.1186,49.8983 98.4949,45.1254 112.3797,39.9186 119.322,39.4847" stroke="#ffe500" stroke-width="2" /><polyline fill="none" points="84.6102,58.5763 102.4,57.7085 118.0203,60.3119" stroke="#ff7a00" stroke-width="2" /><polyline fill="none" points="87.6475,62.9153 99.7966,65.0847 112.3797,70.2915" stroke="#fe1200" stroke-width="2" /><polyline fill="none" points="42.9559,52.9356 30.8068,49.8983 19.5254,49.4644 11.2814,50.7661 8.678,55.1051" stroke="#7f0000" stroke-width="2" /></svg>