<?xml version="1.0" encoding="utf-8" ?>
<svg baseProfile="tiny" height="128" version="1.2" viewBox="0,0,128,128" width="128" xmlns="http://www.w3.org/2000/svg" xmlns:ev="http://www.w3.org/2001/xml-events" xmlns:xlink="http://www.w3.org/1999/xlink"><defs /><polyline fill="none" points="24.7322,59.4441 20.8271,58.5763 13.4508,50.7661 9.5458,39.9186 8.678,32.5424 11.2814,25.6 22.1288,17.7898 26.0339,8.678 27.3356,9.5458 35.5797,23.8644 44.6915,22.5627 53.8034,26.0339 61.6136,16.0542 71.1593,9.9797 77.2339,39.9186 75.0644,49.0305 70.2915,56.4068 62.0475,60.7458 48.5966,64.2169 39.0508,64.2169 29.939,62.0475 23.4305,58.1424" stroke="#00007f" stroke-width="2" /><polyline fill="none" points="36.8814,63.7831 26.0339,73.3288 20.8271,81.5729 14.7525,111.078 16.4881,110.2102" stroke="#0010ff" stroke-width="2" /><polyline fill="none" points="50.3322,62.9153 59.4441,70.7254 66.3864,84.1763 68.122,92.8542 68.122,105.8712 66.8203,113.2475" stroke="#00a4ff" stroke-width="2" /><polyline fill="none" points="74.1966,88.5153 82.8746,85.0441 86.7797,81.5729 88.5153,75.4983 88.5153,63.3492 90.2508,56.8407 98.4949,44.6915 106.739,39.0508 119.322,37.7492 114.1153,44.2576 109.7763,52.9356 108.9085,60.3119 111.078,73.7627 108.4746,81.5729 91.9864,97.1932 72.8949,103.7017" stroke="#3fffb7" stroke-width="2" /><polyline fill="none" points="75.4983,87.2136 70.7254,93.722" stroke="#b7ff3f" stroke-width="2" /><polyline fill="none" points="31.6746,37.3153 36.8814,37.3153" stroke="#ffb900" stroke-width="2" /><polyline fill="none" points="43.3898,36.4475 42.9559,39.0508" stroke="#ff3000" stroke-width="2" /><polyline fill="none" points="38.6169,45.5593 37.7492,52.5017 35.1458,56.4068" stroke="#7f0000" stroke-width="2" /></svg>