<?xml version="1.0" encoding="utf-8" ?>
<svg baseProfile="tiny" height="128" version="1.2" viewBox="0,0,128,128" width="128" xmlns="http://www.w3.org/2000/svg" xmlns:ev="http://www.w3.org/2001/xml-events" xmlns:xlink="http://www.w3.org/1999/xlink"><defs /><polyline fill="none" points="111.5119,54.2373 100.2305,52.0678 97.1932,52.5017 91.1186,59.878 90.2508,69.8576 91.5525,72.8949 97.1932,75.9322 104.1356,74.6305 106.3051,71.1593 108.0407,56.4068 109.7763,53.3695 117.5864,42.522 119.322,45.5593 118.0203,52.0678 108.9085,55.9729" stroke="#00007f" stroke-width="2" /><polyline fill="none" points="95.4576,49.4644 94.1559,46.861 91.1186,45.9932 89.3831,49.0305 91.1186,53.8034" stroke="#0000ff" stroke-width="2" /><polyline fill="none" points="96.3254,55.9729 96.3254,55.9729" stroke="#0080ff" stroke-width="2" /><polyline fill="none" points="100.6644,57.2746 99.3627,58.5763" stroke="#15ffe1" stroke-width="2" /><polyline fill="none" points="94.5898,58.5763 94.5898,58.5763" stroke="#7cff79" stroke-width="2" /><polyline fill="none" points="95.8915,65.5186 96.3254,65.5186" stroke="#e4ff12" stroke-width="2" /><polyline fill="none" points="97.1932,70.2915 100.6644,70.2915" stroke="#ff9400" stroke-width="2" /><polyline fill="none" points="94.1559,74.6305 91.1186,77.2339 82.4407,78.9695 51.2,78.9695 49.4644,82.0068 50.7661,84.6102 54.2373,85.9119 68.9898,88.9492 80.2712,88.0814 95.8915,76.3661 107.6068,70.2915 104.1356,71.1593" stroke="#ff1d00" stroke-width="2" /><polyline fill="none" points="48.5966,77.6678 45.5593,76.3661 38.6169,64.6508 23.8644,26.4678 15.1864,18.6576 16.0542,21.261 15.1864,15.6203 8.678,8.678" stroke="#7f0000" stroke-width="2" /></svg>