<?xml version="1.0" encoding="utf-8" ?>
<svg baseProfile="tiny" height="128" version="1.2" viewBox="0,0,128,128" width="128" xmlns="http://www.w3.org/2000/svg" xmlns:ev="http://www.w3.org/2001/xml-events" xmlns:xlink="http://www.w3.org/1999/xlink"><defs /><polyline fill="none" points="23.8644,38.6169 18.6576,45.1254 11.7153,57.2746 9.1119,67.2542 8.678,83.7424 18.2237,99.7966 27.3356,108.4746 37.3153,115.4169 45.1254,117.5864 65.5186,119.322 80.2712,115.4169 89.3831,111.5119 104.1356,99.3627 108.9085,91.1186 114.1153,72.8949 114.1153,65.5186 110.2102,56.8407 97.1932,44.6915 87.2136,39.4847 87.2136,37.3153 99.7966,12.1492 99.7966,9.9797 98.4949,8.678 91.9864,9.1119 82.0068,17.3559 74.6305,28.2034 69.4237,38.1831 63.3492,34.278 55.1051,32.5424 45.9932,32.5424 41.2203,34.278 34.7119,26.0339 26.0339,18.2237 9.5458,9.5458 9.5458,20.3932 12.5831,30.8068 18.2237,40.3525 23.4305,43.3898" stroke="#00007f" stroke-width="2" /><polyline fill="none" points="45.9932,82.4407 31.6746,81.5729 9.9797,88.0814" stroke="#0000fe" stroke-width="2" /><polyline fill="none" points="48.1627,88.0814 32.5424,89.8169 19.5254,95.0237" stroke="#0060ff" stroke-width="2" /><polyline fill="none" points="49.4644,100.2305 34.7119,100.6644 29.5051,101.9661 22.1288,105.8712" stroke="#00d4ff" stroke-width="2" /><polyline fill="none" points="84.6102,77.2339 92.4203,76.3661 111.078,81.5729" stroke="#4cffaa" stroke-width="2" /><polyline fill="none" points="82.4407,89.8169 101.0983,95.0237" stroke="#aaff4c" stroke-width="2" /><polyline fill="none" points="85.0441,98.4949 104.5695,104.5695" stroke="#ffe500" stroke-width="2" /><polyline fill="none" points="54.2373,76.3661 59.4441,79.8373 64.2169,85.0441 66.3864,84.1763 73.7627,73.7627 52.9356,77.6678" stroke="#ff7a00" stroke-width="2" /><polyline fill="none" points="62.9153,95.4576 62.4814,100.2305 58.5763,104.5695 50.7661,107.1729 45.5593,107.1729" stroke="#fe1200" stroke-width="2" /><polyline fill="none" points="65.0847,91.1186 64.2169,97.1932 66.8203,103.2678 69.8576,105.8712 78.5356,107.6068" stroke="#7f0000" stroke-width="2" /></svg>