<?xml version="1.0" encoding="utf-8" ?>
<svg baseProfile="tiny" height="128" version="1.2" viewBox="0,0,128,128" width="128" xmlns="http://www.w3.org/2000/svg" xmlns:ev="http://www.w3.org/2001/xml-events" xmlns:xlink="http://www.w3.org/1999/xlink"><defs /><polyline fill="none" points="49.0305,37.3153 45.5593,33.8441 50.3322,34.278 59.4441,31.2407 70.7254,30.8068 75.0644,32.9763 75.4983,37.3153 83.3085,23.8644 95.4576,9.9797 96.3254,54.2373" stroke="#00007f" stroke-width="2" /><polyline fill="none" points="59.0102,29.5051 57.7085,27.3356 55.9729,27.3356 49.8983,29.939 45.1254,29.939 34.7119,8.678 28.6373,35.1458 27.7695,53.8034 29.939,59.0102 30.3729,74.6305 33.4102,82.0068 40.7864,92.8542 49.8983,101.0983 55.9729,102.8339 62.9153,101.9661 71.5932,95.0237 85.0441,79.4034 95.0237,64.6508 98.061,58.1424 98.9288,50.3322 92.8542,48.5966" stroke="#0000e8" stroke-width="2" /><polyline fill="none" points="63.3492,69.4237 61.1797,71.1593 56.8407,71.5932 71.1593,74.1966 68.9898,75.4983 46.4271,78.5356 58.1424,65.5186 59.878,65.5186" stroke="#0038ff" stroke-width="2" /><polyline fill="none" points="62.9153,81.139 71.1593,88.0814 85.478,92.8542 96.7593,94.5898 108.4746,95.0237 116.2847,91.5525" stroke="#0094ff" stroke-width="2" /><polyline fill="none" points="59.878,78.5356 45.5593,87.6475 34.278,91.5525 15.1864,92.8542 10.4136,90.6847 8.678,88.0814" stroke="#0cf4ea" stroke-width="2" /><polyline fill="none" points="83.3085,73.3288 83.3085,73.3288" stroke="#56ffa0" stroke-width="2" /><polyline fill="none" points="68.9898,75.9322 78.1017,77.2339 105.4373,75.9322 117.1525,72.461" stroke="#a0ff56" stroke-width="2" /><polyline fill="none" points="76.8,68.122 100.2305,65.5186 119.322,59.4441" stroke="#eaff0c" stroke-width="2" /><polyline fill="none" points="40.3525,70.7254 8.678,74.6305" stroke="#ffaa00" stroke-width="2" /><polyline fill="none" points="31.2407,60.3119 13.0169,59.0102 9.5458,56.4068" stroke="#ff5500" stroke-width="2" /><polyline fill="none" points="45.5593,56.4068 44.2576,43.3898 47.7288,39.0508 51.2,39.4847 54.6712,48.1627 55.1051,54.6712 53.3695,56.4068 49.8983,56.4068 47.2949,55.9729 46.861,53.8034" stroke="#e80000" stroke-width="2" /><polyline fill="none" points="74.6305,52.5017 73.3288,47.7288 68.5559,44.2576 67.6881,39.0508 72.0271,33.8441 76.3661,31.6746 80.2712,31.6746" stroke="#7f0000" stroke-width="2" /></svg>