<?xml version="1.0" encoding="utf-8" ?>
<svg baseProfile="tiny" height="128" version="1.2" viewBox="0,0,128,128" width="128" xmlns="http://www.w3.org/2000/svg" xmlns:ev="http://www.w3.org/2001/xml-events" xmlns:xlink="http://www.w3.org/1999/xlink"><defs /><polyline fill="none" points="37.7492,14.7525 33.8441,32.5424 33.8441,41.2203 36.4475,52.9356 45.9932,65.0847 56.4068,69.4237 62.0475,69.4237 69.8576,65.5186 77.6678,57.7085 81.5729,52.0678 86.3458,38.1831 86.3458,27.7695 84.6102,22.1288" stroke="#00007f" stroke-width="2" /><polyline fill="none" points="36.8814,11.7153 49.4644,34.278 64.6508,34.7119 76.3661,16.0542 82.8746,8.678 84.1763,33.8441" stroke="#0000e8" stroke-width="2" /><polyline fill="none" points="50.7661,50.7661 23.4305,36.4475 13.4508,32.9763 8.678,33.4102" stroke="#0038ff" stroke-width="2" /><polyline fill="none" points="52.9356,55.1051 42.9559,55.1051 36.8814,56.8407 23.8644,65.0847 17.7898,71.1593" stroke="#0094ff" stroke-width="2" /><polyline fill="none" points="70.7254,50.7661 101.9661,39.0508" stroke="#0cf4ea" stroke-width="2" /><polyline fill="none" points="63.3492,57.2746 88.9492,69.8576" stroke="#56ffa0" stroke-width="2" /><polyline fill="none" points="57.2746,62.0475 45.9932,53.8034 54.6712,51.2 66.3864,50.7661 65.9525,54.2373 59.4441,63.7831" stroke="#a0ff56" stroke-width="2" /><polyline fill="none" points="47.7288,42.0881 48.1627,43.8237 46.861,43.3898" stroke="#eaff0c" stroke-width="2" /><polyline fill="none" points="65.5186,37.7492 62.0475,39.4847 61.6136,42.9559 62.0475,45.1254 65.0847,45.9932" stroke="#ffaa00" stroke-width="2" /><polyline fill="none" points="65.9525,37.3153 62.0475,45.1254 61.6136,48.1627 65.9525,48.1627 69.4237,43.8237 69.8576,42.0881 68.5559,40.7864 64.2169,40.7864" stroke="#ff5500" stroke-width="2" /><polyline fill="none" points="48.1627,42.9559 46.4271,42.9559 46.861,46.861 48.5966,46.861 48.5966,44.2576" stroke="#e80000" stroke-width="2" /><polyline fill="none" points="55.539,69.4237 58.1424,80.7051 77.6678,89.3831 108.0407,89.8169 114.5492,86.7797 119.322,81.139 118.0203,78.5356 111.5119,76.3661 78.9695,72.8949" stroke="#7f0000" stroke-width="2" /></svg>