<?xml version="1.0" encoding="utf-8" ?>
<svg baseProfile="tiny" height="128" version="1.2" viewBox="0,0,128,128" width="128" xmlns="http://www.w3.org/2000/svg" xmlns:ev="http://www.w3.org/2001/xml-events" xmlns:xlink="http://www.w3.org/1999/xlink"><defs /><polyline fill="none" points="56.4068,38.6169 42.9559,42.9559 35.5797,47.2949 20.8271,59.0102 13.8847,66.8203 9.9797,75.0644 8.678,78.5356 9.9797,97.1932 17.3559,106.739 25.1661,112.3797 55.1051,119.322 72.461,118.0203 86.7797,107.6068 91.9864,101.5322 95.0237,94.1559 95.8915,81.139 91.5525,72.461 86.3458,66.3864 81.5729,55.9729 78.1017,52.0678 67.2542,49.0305 52.0678,37.3153" stroke="#00007f" stroke-width="2" /><polyline fill="none" points="76.3661,56.8407 99.7966,20.8271" stroke="#0000ff" stroke-width="2" /><polyline fill="none" points="25.1661,46.4271 17.7898,30.8068 10.4136,8.678" stroke="#0080ff" stroke-width="2" /><polyline fill="none" points="38.1831,64.6508 38.1831,64.6508" stroke="#15ffe1" stroke-width="2" /><polyline fill="none" points="30.3729,61.6136 27.3356,61.1797 27.3356,62.9153" stroke="#7cff79" stroke-width="2" /><polyline fill="none" points="62.0475,64.2169 62.9153,68.122" stroke="#e4ff12" stroke-width="2" /><polyline fill="none" points="44.6915,74.6305 40.7864,76.8 34.7119,77.2339 32.9763,79.8373 39.4847,81.139 42.0881,79.8373 42.9559,78.1017" stroke="#ff9400" stroke-width="2" /><polyline fill="none" points="35.5797,74.6305 36.8814,93.722 27.7695,94.5898 24.7322,90.6847" stroke="#ff1d00" stroke-width="2" /><polyline fill="none" points="39.4847,83.3085 39.9186,92.4203 51.6339,93.2881" stroke="#7f0000" stroke-width="2" /></svg>