<?xml version="1.0" encoding="utf-8" ?>
<svg baseProfile="tiny" height="128" version="1.2" viewBox="0,0,128,128" width="128" xmlns="http://www.w3.org/2000/svg" xmlns:ev="http://www.w3.org/2001/xml-events" xmlns:xlink="http://www.w3.org/1999/xlink"><defs /><polyline fill="none" points="90.6847,15.1864 84.1763,12.5831 76.3661,12.1492 72.0271,13.4508 59.878,20.8271 54.6712,26.4678 53.8034,36.4475 55.9729,40.7864 60.7458,43.8237 81.5729,49.0305 90.6847,49.0305 100.2305,43.3898 102.8339,38.6169 103.2678,28.6373 97.6271,19.5254 87.2136,12.1492 75.0644,8.678" stroke="#00007f" stroke-width="2" /><polyline fill="none" points="77.6678,22.5627 77.6678,22.5627" stroke="#0000cc" stroke-width="2" /><polyline fill="none" points="90.6847,22.9966 90.6847,22.9966" stroke="#0008ff" stroke-width="2" /><polyline fill="none" points="69.4237,22.1288 70.2915,23.8644" stroke="#004cff" stroke-width="2" /><polyline fill="none" points="89.8169,25.1661 89.8169,25.1661" stroke="#0090ff" stroke-width="2" /><polyline fill="none" points="88.9492,22.9966 86.3458,23.4305 88.5153,25.1661 89.8169,22.5627" stroke="#00d4ff" stroke-width="2" /><polyline fill="none" points="67.2542,28.6373 71.1593,37.3153 78.9695,39.0508 85.9119,36.8814" stroke="#29ffcd" stroke-width="2" /><polyline fill="none" points="62.9153,31.2407 56.4068,31.2407 34.7119,26.0339 8.678,19.0915 13.0169,18.2237" stroke="#5fff96" stroke-width="2" /><polyline fill="none" points="59.878,33.4102 47.7288,37.7492 34.7119,44.6915" stroke="#96ff5f" stroke-width="2" /><polyline fill="none" points="60.3119,37.7492 42.9559,60.7458 42.522,58.5763" stroke="#cdff29" stroke-width="2" /><polyline fill="none" points="98.4949,31.6746 119.322,31.2407" stroke="#ffe500" stroke-width="2" /><polyline fill="none" points="92.4203,36.8814 115.8508,42.0881" stroke="#ffa600" stroke-width="2" /><polyline fill="none" points="91.9864,42.522 109.3424,52.9356" stroke="#ff6700" stroke-width="2" /><polyline fill="none" points="69.4237,47.7288 69.8576,68.5559 72.8949,63.7831" stroke="#ff2800" stroke-width="2" /><polyline fill="none" points="82.4407,50.7661 82.4407,64.2169" stroke="#cc0000" stroke-width="2" /><polyline fill="none" points="76.3661,62.0475 68.122,59.4441 59.0102,59.878 53.8034,61.1797 42.522,67.6881 36.8814,73.7627 32.5424,80.2712 32.1085,86.3458 33.8441,90.6847 41.2203,97.6271 45.1254,99.3627 55.9729,101.0983 70.7254,101.9661 78.5356,98.9288 92.4203,88.5153 94.1559,85.478 94.5898,80.2712 91.9864,77.2339 85.0441,71.5932 77.6678,68.5559 70.2915,68.122" stroke="#7f0000" stroke-width="2" /></svg>