<?xml version="1.0" encoding="utf-8" ?>
<svg baseProfile="tiny" height="128" version="1.2" viewBox="0,0,128,128" width="128" xmlns="http://www.w3.org/2000/svg" xmlns:ev="http://www.w3.org/2001/xml-events" xmlns:xlink="http://www.w3.org/1999/xlink"><defs /><polyline fill="none" points="8.7372,33.2014 9.1741,40.628 13.9795,50.2389 20.5324,58.9761 33.2014,65.0922 48.0546,65.9659 54.1706,62.0341 58.5392,51.9863 58.5392,38.8805 54.6075,30.5802" stroke="#00007f" stroke-width="2" /><polyline fill="none" points="10.4846,35.3857 9.1741,32.7645 10.0478,9.1741 20.0956,23.1536" stroke="#0000f1" stroke-width="2" /><polyline fill="none" points="23.1536,24.0273 31.8908,18.785 37.57,18.3481 39.3174,19.2218 48.0546,27.0853" stroke="#004cff" stroke-width="2" /><polyline fill="none" points="50.2389,22.7167 59.413,8.7372 57.6655,31.4539" stroke="#00b0ff" stroke-width="2" /><polyline fill="none" points="63.3447,52.4232 64.6553,50.6758 84.314,46.3072 96.5461,46.744 107.0307,49.3652" stroke="#29ffcd" stroke-width="2" /><polyline fill="none" points="34.9488,65.9659 34.9488,71.6451 41.0648,83.8771 48.4915,91.3038 62.0341,98.2935 79.9454,100.4778" stroke="#7cff79" stroke-width="2" /><polyline fill="none" points="109.6519,54.1706 109.215,66.8396 106.5939,75.1399 100.041,83.8771 93.0512,89.9932" stroke="#cdff29" stroke-width="2" /><polyline fill="none" points="49.802,96.5461 47.1809,114.0205 56.3549,100.4778" stroke="#ffc400" stroke-width="2" /><polyline fill="none" points="55.4812,106.5939 55.4812,119.2628" stroke="#ff6700" stroke-width="2" /><polyline fill="none" points="93.0512,98.2935 98.2935,107.9044 101.7884,111.3993 104.8464,112.273 104.8464,104.4096 100.9147,89.5563" stroke="#f10700" stroke-width="2" /><polyline fill="none" points="76.8874,96.9829 83.0034,95.2355 98.2935,86.9352" stroke="#7f0000" stroke-width="2" /></svg>