<?xml version="1.0" encoding="utf-8" ?>
<svg baseProfile="tiny" height="128" version="1.2" viewBox="0,0,128,128" width="128" xmlns="http://www.w3.org/2000/svg" xmlns:ev="http://www.w3.org/2001/xml-events" xmlns:xlink="http://www.w3.org/1999/xlink"><defs /><polyline fill="none" points="52.5017,24.7322 49.0305,29.5051 45.9932,37.3153 45.5593,53.3695 52.9356,62.4814 68.122,67.6881 80.2712,67.6881 88.5153,62.9153 95.8915,55.1051 96.7593,47.7288 95.8915,39.0508 88.0814,30.8068" stroke="#00007f" stroke-width="2" /><polyline fill="none" points="78.9695,22.5627 79.4034,16.922 82.4407,8.678 83.7424,18.2237 86.7797,23.8644" stroke="#0010ff" stroke-width="2" /><polyline fill="none" points="59.4441,22.5627 59.878,11.2814 64.2169,21.6949" stroke="#00a4ff" stroke-width="2" /><polyline fill="none" points="64.6508,36.8814 65.5186,35.5797 66.3864,37.3153 65.0847,36.8814" stroke="#3fffb7" stroke-width="2" /><polyline fill="none" points="79.4034,36.4475 78.1017,37.3153 78.1017,36.0136" stroke="#b7ff3f" stroke-width="2" /><polyline fill="none" points="65.0847,48.5966 8.678,43.8237" stroke="#ffb900" stroke-width="2" /><polyline fill="none" points="66.3864,47.7288 52.9356,49.8983 32.1085,58.5763 23.4305,60.7458" stroke="#ff3000" stroke-width="2" /><polyline fill="none" points="76.3661,49.4644 119.322,49.4644" stroke="#7f0000" stroke-width="2" /></svg>