<?xml version="1.0" encoding="utf-8" ?>
<svg baseProfile="tiny" height="128" version="1.2" viewBox="0,0,128,128" width="128" xmlns="http://www.w3.org/2000/svg" xmlns:ev="http://www.w3.org/2001/xml-events" xmlns:xlink="http://www.w3.org/1999/xlink"><defs /><polyline fill="none" points="27.3356,41.2203 26.0339,39.0508 26.0339,22.5627 28.6373,10.8475 39.9186,30.3729 43.3898,30.8068 63.7831,29.0712 70.7254,12.5831 74.1966,8.678 76.8,13.0169 81.5729,27.7695 91.9864,33.8441 97.6271,40.3525 100.2305,48.1627 100.6644,54.6712 100.6644,65.9525 96.7593,75.4983 87.6475,88.5153 79.8373,94.1559 69.4237,98.061 46.861,98.9288 32.9763,93.722 26.4678,86.7797 20.3932,76.3661 19.0915,54.2373 20.8271,47.7288 24.2983,42.9559 30.3729,38.1831 33.8441,37.3153" stroke="#00007f" stroke-width="2" /><polyline fill="none" points="39.4847,52.9356 39.9186,56.4068 41.2203,58.5763 43.3898,58.5763 43.8237,55.1051 41.6542,52.5017 39.0508,52.0678 40.7864,54.6712 42.9559,55.1051 42.522,52.5017" stroke="#0000e8" stroke-width="2" /><polyline fill="none" points="73.7627,50.3322 72.8949,52.9356 75.0644,54.2373 75.4983,50.7661 73.7627,48.1627 72.0271,50.3322 73.7627,50.7661" stroke="#0038ff" stroke-width="2" /><polyline fill="none" points="59.878,68.9898 51.6339,62.0475 52.0678,59.878 57.7085,58.1424 59.0102,66.8203" stroke="#0094ff" stroke-width="2" /><polyline fill="none" points="58.5763,72.0271 55.1051,76.8 46.4271,80.2712 37.7492,79.4034 32.1085,74.1966" stroke="#0cf4ea" stroke-width="2" /><polyline fill="none" points="58.5763,70.2915 65.0847,74.6305 75.9322,76.8 78.1017,74.6305 82.0068,65.5186" stroke="#56ffa0" stroke-width="2" /><polyline fill="none" points="24.2983,52.0678 10.8475,51.2 8.678,49.8983" stroke="#a0ff56" stroke-width="2" /><polyline fill="none" points="29.0712,63.3492 8.678,67.2542" stroke="#eaff0c" stroke-width="2" /><polyline fill="none" points="32.5424,83.7424 19.9593,85.478 12.5831,88.0814" stroke="#ffaa00" stroke-width="2" /><polyline fill="none" points="90.2508,50.3322 107.1729,37.7492" stroke="#ff5500" stroke-width="2" /><polyline fill="none" points="91.9864,58.5763 114.9831,57.2746" stroke="#e80000" stroke-width="2" /><polyline fill="none" points="89.8169,74.1966 113.2475,77.2339 119.322,79.8373" stroke="#7f0000" stroke-width="2" /></svg>