<?xml version="1.0" encoding="utf-8" ?>
<svg baseProfile="tiny" height="128" version="1.2" viewBox="0,0,128,128" width="128" xmlns="http://www.w3.org/2000/svg" xmlns:ev="http://www.w3.org/2001/xml-events" xmlns:xlink="http://www.w3.org/1999/xlink"><defs /><polyline fill="none" points="79.8373,47.2949 64.6508,43.3898 46.861,42.9559 31.6746,46.861 25.1661,50.7661 20.3932,55.539 16.4881,61.1797 12.1492,72.0271 10.4136,81.139 10.8475,93.2881 16.4881,105.0034 22.9966,111.5119 30.8068,116.2847 42.0881,118.8881 52.9356,119.322 70.2915,115.4169 93.2881,101.9661 98.9288,96.7593 105.4373,87.2136 108.4746,79.4034 108.4746,74.1966 102.8339,61.1797 93.2881,51.6339 81.139,45.9932 74.6305,45.1254" stroke="#00007f" stroke-width="2" /><polyline fill="none" points="16.922,62.0475 10.8475,51.2 8.678,39.9186 8.678,23.4305 10.8475,15.6203 16.4881,9.5458 18.6576,8.678 20.8271,10.4136 25.1661,17.7898 30.3729,38.1831" stroke="#0010ff" stroke-width="2" /><polyline fill="none" points="73.3288,44.2576 76.3661,29.5051 80.2712,21.6949 88.9492,13.0169 100.2305,8.678 106.3051,12.5831 109.7763,22.9966 108.9085,34.7119 102.4,49.4644" stroke="#00a4ff" stroke-width="2" /><polyline fill="none" points="42.9559,75.0644 52.5017,86.7797 61.1797,73.7627 57.2746,72.0271 48.1627,72.461" stroke="#3fffb7" stroke-width="2" /><polyline fill="none" points="52.9356,88.9492 48.1627,95.4576 41.2203,110.2102" stroke="#b7ff3f" stroke-width="2" /><polyline fill="none" points="52.0678,86.7797 59.878,99.7966 65.9525,106.3051" stroke="#ffb900" stroke-width="2" /><polyline fill="none" points="32.9763,62.4814 33.8441,64.2169" stroke="#ff3000" stroke-width="2" /><polyline fill="none" points="74.1966,62.0475 74.1966,62.0475" stroke="#7f0000" stroke-width="2" /></svg>