<?xml version="1.0" encoding="utf-8" ?>
<svg baseProfile="tiny" height="128" version="1.2" viewBox="0,0,128,128" width="128" xmlns="http://www.w3.org/2000/svg" xmlns:ev="http://www.w3.org/2001/xml-events" xmlns:xlink="http://www.w3.org/1999/xlink"><defs /><polyline fill="none" points="35.5797,24.7322 23.4305,20.3932 11.2814,22.5627 8.678,32.5424 11.7153,40.7864 30.8068,43.3898 34.278,39.9186 35.1458,35.5797 33.4102,27.3356" stroke="#00007f" stroke-width="2" /><polyline fill="none" points="35.5797,43.8237 61.1797,59.0102" stroke="#0000d1" stroke-width="2" /><polyline fill="none" points="61.6136,59.4441 74.6305,56.8407 106.3051,56.8407 111.078,57.2746 114.9831,59.878 116.7186,64.6508 114.1153,69.8576 105.4373,75.9322 98.061,77.2339 89.3831,76.3661 72.0271,71.5932 66.8203,68.122 63.3492,62.0475" stroke="#0010ff" stroke-width="2" /><polyline fill="none" points="77.2339,72.8949 75.9322,109.3424" stroke="#0058ff" stroke-width="2" /><polyline fill="none" points="90.2508,80.7051 89.8169,109.3424" stroke="#00a4ff" stroke-width="2" /><polyline fill="none" points="102.4,78.1017 102.4,105.4373" stroke="#05ecf1" stroke-width="2" /><polyline fill="none" points="108.4746,69.8576 115.8508,88.0814 119.322,103.7017" stroke="#3fffb7" stroke-width="2" /><polyline fill="none" points="9.9797,23.8644 13.0169,9.9797 14.7525,8.678 16.922,10.8475 23.4305,21.6949" stroke="#7cff79" stroke-width="2" /><polyline fill="none" points="27.3356,19.0915 36.4475,9.1119 37.7492,22.9966" stroke="#b7ff3f" stroke-width="2" /><polyline fill="none" points="20.3932,26.4678 20.3932,26.4678" stroke="#f1fc05" stroke-width="2" /><polyline fill="none" points="20.8271,28.6373 20.8271,28.6373" stroke="#ffb900" stroke-width="2" /><polyline fill="none" points="26.9017,31.2407 26.9017,31.2407" stroke="#ff7300" stroke-width="2" /><polyline fill="none" points="22.5627,26.9017 25.6,30.8068 23.4305,31.2407 22.5627,28.6373" stroke="#ff3000" stroke-width="2" /><polyline fill="none" points="13.0169,27.7695 15.1864,27.7695" stroke="#d10000" stroke-width="2" /><polyline fill="none" points="19.9593,27.7695 19.9593,27.7695" stroke="#7f0000" stroke-width="2" /></svg>