<?xml version="1.0" encoding="utf-8" ?>
<svg baseProfile="tiny" height="128" version="1.2" viewBox="0,0,128,128" width="128" xmlns="http://www.w3.org/2000/svg" xmlns:ev="http://www.w3.org/2001/xml-events" xmlns:xlink="http://www.w3.org/1999/xlink"><defs /><polyline fill="none" points="26.9017,101.0983 36.8814,107.1729 49.8983,109.7763 59.4441,109.7763 76.3661,105.8712 89.8169,98.061 96.7593,84.6102 99.3627,74.6305 99.3627,63.7831 93.722,45.9932 88.5153,41.2203 78.5356,38.1831 49.0305,38.6169 39.0508,40.3525 31.2407,45.5593 21.261,62.4814 20.3932,88.0814 21.6949,94.1559 32.9763,104.1356" stroke="#00007f" stroke-width="2" /><polyline fill="none" points="22.9966,55.539 8.678,9.5458 10.8475,8.678 17.3559,11.2814 30.3729,19.0915 48.1627,36.0136" stroke="#0028ff" stroke-width="2" /><polyline fill="none" points="80.7051,38.1831 82.0068,33.8441 86.7797,29.5051 119.322,11.2814 96.3254,55.1051" stroke="#00d4ff" stroke-width="2" /><polyline fill="none" points="57.2746,70.7254 54.2373,80.7051 54.2373,82.4407 55.9729,82.8746 62.4814,82.8746 63.3492,81.5729 61.6136,71.1593" stroke="#7cff79" stroke-width="2" /><polyline fill="none" points="49.4644,63.7831 45.9932,61.6136 37.3153,61.1797 37.3153,65.9525 41.6542,69.8576 44.6915,69.8576 47.2949,66.8203" stroke="#ffe500" stroke-width="2" /><polyline fill="none" points="73.3288,64.6508 73.3288,68.122 78.1017,70.7254 81.5729,70.2915 84.6102,68.122 84.6102,62.4814 82.0068,59.4441 78.9695,58.5763" stroke="#ff4600" stroke-width="2" /><polyline fill="none" points="45.9932,88.5153 49.0305,91.1186 54.2373,91.9864 56.8407,89.8169 58.5763,85.478 59.4441,92.8542 67.6881,95.0237 71.1593,92.4203 75.4983,85.478" stroke="#7f0000" stroke-width="2" /></svg>