<?xml version="1.0" encoding="utf-8" ?>
<svg baseProfile="tiny" height="128" version="1.2" viewBox="0,0,128,128" width="128" xmlns="http://www.w3.org/2000/svg" xmlns:ev="http://www.w3.org/2001/xml-events" xmlns:xlink="http://www.w3.org/1999/xlink"><defs /><polyline fill="none" points="13.8847,38.6169 8.678,10.8475 9.1119,9.1119 10.4136,8.678 17.3559,15.6203 29.939,34.7119 33.8441,38.1831" stroke="#00007f" stroke-width="2" /><polyline fill="none" points="32.5424,37.3153 41.6542,32.5424 52.0678,29.5051 67.2542,30.8068 84.1763,37.7492 95.8915,46.4271 99.7966,33.4102 106.739,22.5627 112.3797,16.922 113.6814,32.1085 118.8881,52.9356 119.322,65.0847 113.2475,85.0441 105.4373,95.4576 100.2305,98.061 76.3661,104.1356 60.3119,105.0034 44.6915,103.2678 31.2407,97.6271 26.4678,95.0237 16.922,85.0441 12.1492,72.0271 11.7153,62.4814 14.3186,55.539 19.0915,47.7288" stroke="#0000e8" stroke-width="2" /><polyline fill="none" points="62.0475,69.8576 55.9729,69.4237 55.1051,66.3864" stroke="#0038ff" stroke-width="2" /><polyline fill="none" points="59.878,62.9153 64.6508,63.3492 65.0847,65.0847 61.6136,70.7254 57.7085,72.8949 53.3695,72.0271 56.4068,68.9898 62.0475,70.7254 63.3492,73.3288 62.0475,78.9695 58.1424,83.3085 51.2,83.7424" stroke="#0094ff" stroke-width="2" /><polyline fill="none" points="63.3492,70.2915 65.0847,82.0068 69.4237,82.8746 75.4983,78.5356" stroke="#0cf4ea" stroke-width="2" /><polyline fill="none" points="36.0136,55.1051 36.8814,49.8983 38.6169,49.0305 48.5966,49.4644" stroke="#56ffa0" stroke-width="2" /><polyline fill="none" points="51.2,52.5017 51.2,55.1051" stroke="#a0ff56" stroke-width="2" /><polyline fill="none" points="66.8203,52.9356 73.7627,48.5966 77.2339,49.4644" stroke="#eaff0c" stroke-width="2" /><polyline fill="none" points="79.8373,52.5017 82.0068,57.7085" stroke="#ffaa00" stroke-width="2" /><polyline fill="none" points="48.5966,48.1627 52.5017,53.8034 52.5017,58.1424" stroke="#ff5500" stroke-width="2" /><polyline fill="none" points="77.6678,48.1627 72.8949,48.5966 68.122,51.2 67.2542,52.9356 72.8949,50.7661 76.8,51.2 81.139,61.1797" stroke="#e80000" stroke-width="2" /><polyline fill="none" points="15.6203,37.7492 21.6949,51.2" stroke="#7f0000" stroke-width="2" /></svg>