<?xml version="1.0" encoding="utf-8" ?>
<svg baseProfile="tiny" height="128" version="1.2" viewBox="0,0,128,128" width="128" xmlns="http://www.w3.org/2000/svg" xmlns:ev="http://www.w3.org/2001/xml-events" xmlns:xlink="http://www.w3.org/1999/xlink"><defs /><polyline fill="none" points="53.3695,69.8576 48.5966,69.8576 39.4847,65.5186 32.5424,60.3119 27.7695,54.6712 19.0915,30.8068 21.261,15.1864 22.5627,17.7898 38.6169,25.1661 50.7661,21.6949 65.0847,22.5627 74.6305,8.678 77.2339,10.8475 81.139,18.2237 82.8746,29.5051 82.8746,55.539 81.139,61.6136 77.6678,67.6881 72.461,71.1593 55.1051,73.7627" stroke="#00007f" stroke-width="2" /><polyline fill="none" points="36.4475,47.7288 18.6576,57.7085 13.0169,62.4814 8.678,69.8576" stroke="#0080ff" stroke-width="2" /><polyline fill="none" points="38.6169,62.0475 26.4678,72.8949 24.2983,78.9695" stroke="#7cff79" stroke-width="2" /><polyline fill="none" points="72.8949,52.5017 99.3627,48.1627 119.322,51.2" stroke="#ff9400" stroke-width="2" /><polyline fill="none" points="72.8949,59.0102 115.4169,71.1593" stroke="#7f0000" stroke-width="2" /></svg>