<?xml version="1.0" encoding="utf-8" ?>
<svg baseProfile="tiny" height="128" version="1.2" viewBox="0,0,128,128" width="128" xmlns="http://www.w3.org/2000/svg" xmlns:ev="http://www.w3.org/2001/xml-events" xmlns:xlink="http://www.w3.org/1999/xlink"><defs /><polyline fill="none" points="22.5627,81.5729 32.1085,89.8169 39.4847,93.2881 62.0475,93.2881 64.6508,92.4203 71.5932,84.1763 75.0644,65.9525 78.9695,53.3695 79.8373,45.1254 76.3661,39.4847 68.5559,35.5797 48.1627,34.278 41.6542,32.5424 32.1085,32.9763 23.4305,39.4847 17.7898,44.6915 16.4881,48.1627 13.0169,60.7458 12.5831,76.3661 13.8847,81.5729 16.0542,83.3085 26.4678,84.1763" stroke="#00007f" stroke-width="2" /><polyline fill="none" points="10.8475,52.9356 11.7153,35.1458 8.678,21.261 14.7525,32.5424 25.6,35.5797" stroke="#7cff79" stroke-width="2" /><polyline fill="none" points="70.7254,32.9763 87.2136,19.0915 111.9458,9.5458 116.2847,8.678 118.8881,11.7153 119.322,16.4881 114.9831,23.8644 111.078,27.7695 98.061,36.0136 75.0644,44.2576 74.1966,46.4271 75.4983,46.861" stroke="#7f0000" stroke-width="2" /></svg>