<?xml version="1.0" encoding="utf-8" ?>
<svg baseProfile="tiny" height="128" version="1.2" viewBox="0,0,128,128" width="128" xmlns="http://www.w3.org/2000/svg" xmlns:ev="http://www.w3.org/2001/xml-events" xmlns:xlink="http://www.w3.org/1999/xlink"><defs /><polyline fill="none" points="67.2542,36.0136 52.5017,35.5797 33.8441,40.7864 23.4305,48.1627 16.0542,56.8407 13.0169,64.6508 8.678,85.0441 8.678,96.7593 10.8475,102.8339 22.5627,110.2102 42.0881,118.0203 62.9153,119.322 85.0441,108.0407 89.3831,103.7017 91.9864,95.0237 91.9864,80.2712 88.9492,70.7254 76.3661,48.1627 69.4237,40.7864 51.2,29.5051 38.1831,29.5051" stroke="#00007f" stroke-width="2" /><polyline fill="none" points="16.0542,43.3898 19.9593,40.7864 23.4305,21.261 23.4305,8.678 28.2034,12.5831 34.7119,29.0712 41.2203,38.1831" stroke="#0010ff" stroke-width="2" /><polyline fill="none" points="53.3695,35.5797 56.8407,32.9763 70.2915,16.0542 73.7627,13.8847 75.4983,18.2237 75.4983,44.2576" stroke="#00a4ff" stroke-width="2" /><polyline fill="none" points="51.6339,83.7424 51.6339,83.7424" stroke="#3fffb7" stroke-width="2" /><polyline fill="none" points="51.6339,83.7424 44.2576,99.3627 40.7864,103.7017 41.2203,105.0034" stroke="#b7ff3f" stroke-width="2" /><polyline fill="none" points="53.8034,88.0814 70.7254,103.7017 65.0847,97.1932" stroke="#ffb900" stroke-width="2" /><polyline fill="none" points="51.2,71.5932 51.2,83.7424" stroke="#ff3000" stroke-width="2" /><polyline fill="none" points="24.2983,62.9153 24.2983,62.9153" stroke="#7f0000" stroke-width="2" /></svg>