<?xml version="1.0" encoding="utf-8" ?>
<svg baseProfile="tiny" height="128" version="1.2" viewBox="0,0,128,128" width="128" xmlns="http://www.w3.org/2000/svg" xmlns:ev="http://www.w3.org/2001/xml-events" xmlns:xlink="http://www.w3.org/1999/xlink"><defs /><polyline fill="none" points="75.4983,56.8407 66.8203,52.9356 52.9356,49.8983 41.6542,49.8983 37.3153,53.8034 37.7492,77.2339 49.4644,98.9288 60.3119,113.2475 75.0644,119.322 85.0441,119.322 91.9864,115.4169 99.7966,104.5695 101.9661,98.061 104.5695,74.6305 104.1356,52.9356 94.5898,39.9186 90.6847,38.1831 80.7051,38.6169 64.2169,46.4271" stroke="#00007f" stroke-width="2" /><polyline fill="none" points="74.1966,37.7492 100.2305,14.7525 111.5119,8.678 118.0203,26.9017 118.8881,32.9763 118.8881,42.0881 112.3797,53.3695" stroke="#0000de" stroke-width="2" /><polyline fill="none" points="49.0305,43.8237 29.939,38.6169 20.3932,38.6169 12.5831,41.2203 8.678,44.6915 8.678,46.861 10.8475,48.1627 38.6169,61.1797 40.7864,64.6508" stroke="#0028ff" stroke-width="2" /><polyline fill="none" points="56.4068,67.2542 57.2746,69.8576" stroke="#0080ff" stroke-width="2" /><polyline fill="none" points="88.9492,63.3492 88.9492,63.3492" stroke="#00d4ff" stroke-width="2" /><polyline fill="none" points="90.6847,62.0475 89.3831,68.122 87.2136,69.4237 84.1763,61.1797" stroke="#36ffc0" stroke-width="2" /><polyline fill="none" points="55.9729,95.8915 60.7458,97.6271 71.5932,108.9085 87.6475,108.0407 94.5898,104.1356 98.9288,98.9288 100.2305,96.3254 100.6644,88.0814" stroke="#7cff79" stroke-width="2" /><polyline fill="none" points="75.9322,78.9695 79.4034,88.5153 81.5729,105.0034" stroke="#c0ff36" stroke-width="2" /><polyline fill="none" points="85.9119,82.4407 80.2712,82.8746 79.8373,81.139 75.0644,78.5356 74.1966,74.1966 79.4034,73.7627 82.8746,77.2339 83.3085,79.4034 77.6678,80.2712 75.4983,76.3661 72.461,77.2339" stroke="#ffe500" stroke-width="2" /><polyline fill="none" points="81.5729,87.2136 98.9288,86.3458 116.2847,80.2712" stroke="#ff9400" stroke-width="2" /><polyline fill="none" points="69.8576,85.0441 58.1424,82.4407 51.2,82.4407" stroke="#ff4600" stroke-width="2" /><polyline fill="none" points="82.8746,88.5153 112.8136,98.9288" stroke="#de0000" stroke-width="2" /><polyline fill="none" points="73.7627,88.9492 62.0475,89.3831 54.2373,91.9864 40.3525,102.4" stroke="#7f0000" stroke-width="2" /></svg>