<?xml version="1.0" encoding="utf-8" ?>
<svg baseProfile="tiny" height="128" version="1.2" viewBox="0,0,128,128" width="128" xmlns="http://www.w3.org/2000/svg" xmlns:ev="http://www.w3.org/2001/xml-events" xmlns:xlink="http://www.w3.org/1999/xlink"><defs /><polyline fill="none" points="41.6542,8.678 38.6169,16.922 31.6746,26.4678" stroke="#00007f" stroke-width="2" /><polyline fill="none" points="42.9559,9.9797 49.0305,32.9763 71.5932,33.4102" stroke="#0000d5" stroke-width="2" /><polyline fill="none" points="78.9695,10.8475 78.1017,16.4881 69.4237,36.4475" stroke="#001cff" stroke-width="2" /><polyline fill="none" points="78.1017,10.8475 88.5153,38.6169" stroke="#006cff" stroke-width="2" /><polyline fill="none" points="39.9186,14.7525 29.939,41.2203 29.0712,55.1051 36.4475,68.122 47.2949,74.6305 56.8407,78.5356 64.2169,79.8373 77.6678,79.8373 82.8746,76.3661 85.9119,72.8949 88.9492,65.0847 89.8169,38.1831" stroke="#00b8ff" stroke-width="2" /><polyline fill="none" points="44.2576,45.9932 44.6915,51.2 45.9932,52.5017 48.5966,52.5017 51.2,51.6339 53.3695,47.7288 52.0678,43.8237 49.0305,44.2576 48.5966,45.9932" stroke="#1cffda" stroke-width="2" /><polyline fill="none" points="71.1593,48.1627 75.9322,55.539 81.5729,53.8034 83.3085,50.7661 83.3085,43.3898 76.3661,43.3898 70.2915,49.8983 65.5186,62.4814" stroke="#5cff9a" stroke-width="2" /><polyline fill="none" points="61.6136,56.8407 61.6136,66.3864" stroke="#9aff5c" stroke-width="2" /><polyline fill="none" points="77.6678,60.3119 117.1525,48.1627 118.8881,47.2949 119.322,45.9932 114.5492,47.2949" stroke="#daff1c" stroke-width="2" /><polyline fill="none" points="82.4407,63.3492 101.5322,67.2542 112.3797,67.2542" stroke="#ffcb00" stroke-width="2" /><polyline fill="none" points="80.2712,69.8576 83.3085,73.3288 98.9288,77.6678" stroke="#ff8500" stroke-width="2" /><polyline fill="none" points="39.4847,60.7458 19.0915,54.2373 8.678,52.9356" stroke="#ff3b00" stroke-width="2" /><polyline fill="none" points="39.0508,68.5559 19.9593,68.9898" stroke="#d50000" stroke-width="2" /><polyline fill="none" points="51.6339,70.7254 29.939,79.8373" stroke="#7f0000" stroke-width="2" /></svg>