<?xml version="1.0" encoding="utf-8" ?>
<svg baseProfile="tiny" height="128" version="1.2" viewBox="0,0,128,128" width="128" xmlns="http://www.w3.org/2000/svg" xmlns:ev="http://www.w3.org/2001/xml-events" xmlns:xlink="http://www.w3.org/1999/xlink"><defs /><polyline fill="none" points="58.3401,50.9388 41.3605,53.1156 24.381,61.3878 17.415,69.2245 10.8844,81.415 8.7075,90.5578 8.7075,98.3946 15.2381,109.7143 21.3333,114.5034 28.7347,117.1156 41.7959,119.2925 66.1769,119.2925 75.3197,117.1156 87.5102,107.5374 93.6054,97.9592 97.0884,84.898 97.5238,68.7891 87.0748,57.9048 74.8844,52.2449 57.034,52.2449 47.4558,55.2925" stroke="#00007f" stroke-width="2" /><polyline fill="none" points="16.1088,64.0 16.1088,33.5238 20.4626,13.932 24.8163,13.4966 32.2177,40.4898 38.3129,52.2449" stroke="#00d4ff" stroke-width="2" /><polyline fill="none" points="73.5782,36.5714 86.6395,8.7075 89.2517,12.1905 84.0272,37.4422 82.2857,56.5986" stroke="#ffe500" stroke-width="2" /><polyline fill="none" points="46.1497,90.1224 46.1497,93.6054 50.068,90.5578 50.068,84.4626 47.4558,88.381" stroke="#7f0000" stroke-width="2" /></svg>