<?xml version="1.0" encoding="utf-8" ?>
<svg baseProfile="tiny" height="128" version="1.2" viewBox="0,0,128,128" width="128" xmlns="http://www.w3.org/2000/svg" xmlns:ev="http://www.w3.org/2001/xml-events" xmlns:xlink="http://www.w3.org/1999/xlink"><defs /><polyline fill="none" points="13.4508,59.4441 19.0915,50.7661 26.4678,45.5593 44.2576,40.7864 72.461,41.2203 90.2508,46.861 96.7593,51.6339 101.5322,62.0475 103.2678,72.0271 102.8339,87.2136 98.4949,97.1932 89.3831,110.6441 78.9695,118.0203 71.1593,119.322 52.9356,117.5864 35.1458,111.078 26.4678,105.8712 11.7153,76.8 8.678,64.6508 8.678,53.3695" stroke="#00007f" stroke-width="2" /><polyline fill="none" points="99.7966,51.2 108.9085,22.1288 113.2475,14.7525 113.6814,55.539 107.6068,76.8" stroke="#00d4ff" stroke-width="2" /><polyline fill="none" points="25.6,41.6542 25.6,33.8441 22.1288,14.7525 19.9593,8.678 16.922,16.922 16.922,32.9763 20.3932,62.4814" stroke="#ffe500" stroke-width="2" /><polyline fill="none" points="39.4847,56.4068 42.0881,62.0475" stroke="#7f0000" stroke-width="2" /></svg>