<?xml version="1.0" encoding="utf-8" ?>
<svg baseProfile="tiny" height="128" version="1.2" viewBox="0,0,128,128" width="128" xmlns="http://www.w3.org/2000/svg" xmlns:ev="http://www.w3.org/2001/xml-events" xmlns:xlink="http://www.w3.org/1999/xlink"><defs /><polyline fill="none" points="29.5051,45.1254 39.9186,23.4305 44.2576,10.8475 47.7288,43.8237" stroke="#00007f" stroke-width="2" /><polyline fill="none" points="64.2169,47.2949 70.2915,39.0508 84.6102,8.678 88.0814,18.2237 91.5525,48.5966" stroke="#0000d5" stroke-width="2" /><polyline fill="none" points="83.3085,45.9932 70.7254,40.3525 46.861,40.3525 30.8068,42.522 17.3559,48.1627 12.5831,54.2373 8.678,69.4237 9.1119,87.2136 13.0169,98.061 26.0339,110.6441 37.7492,116.2847 58.5763,119.322 70.7254,119.322 73.3288,118.8881 80.2712,113.2475 92.8542,97.6271 100.2305,84.1763 101.5322,77.2339 101.5322,55.539 98.4949,46.4271 94.1559,40.3525 87.2136,37.7492 79.4034,37.7492" stroke="#001cff" stroke-width="2" /><polyline fill="none" points="43.8237,62.9153 43.8237,62.9153" stroke="#006cff" stroke-width="2" /><polyline fill="none" points="43.8237,62.9153 45.1254,64.6508 46.861,62.9153 44.6915,59.878 43.3898,61.6136 45.5593,62.9153" stroke="#00b8ff" stroke-width="2" /><polyline fill="none" points="80.7051,62.9153 78.9695,62.9153 78.5356,64.6508 78.5356,66.8203 79.8373,67.2542 80.7051,64.2169 78.9695,62.9153" stroke="#1cffda" stroke-width="2" /><polyline fill="none" points="59.0102,82.0068 56.4068,84.1763 56.4068,87.2136 58.1424,88.5153 64.2169,88.9492 66.8203,86.3458 65.9525,83.3085 59.0102,80.7051" stroke="#5cff9a" stroke-width="2" /><polyline fill="none" points="72.461,83.3085 103.2678,69.8576" stroke="#9aff5c" stroke-width="2" /><polyline fill="none" points="78.5356,82.4407 88.0814,86.3458 96.3254,87.6475" stroke="#daff1c" stroke-width="2" /><polyline fill="none" points="76.8,88.0814 82.8746,98.4949 89.3831,105.4373" stroke="#ffcb00" stroke-width="2" /><polyline fill="none" points="49.8983,82.0068 45.9932,79.4034 25.6,78.5356" stroke="#ff8500" stroke-width="2" /><polyline fill="none" points="49.0305,85.478 35.5797,84.6102 28.6373,88.9492" stroke="#ff3b00" stroke-width="2" /><polyline fill="none" points="52.0678,86.3458 46.861,88.0814 39.4847,93.722" stroke="#d50000" stroke-width="2" /><polyline fill="none" points="49.4644,101.0983 51.2,103.2678 55.539,104.1356 67.6881,104.5695 70.7254,103.7017 72.8949,100.6644" stroke="#7f0000" stroke-width="2" /></svg>