<?xml version="1.0" encoding="utf-8" ?>
<svg baseProfile="tiny" height="128" version="1.2" viewBox="0,0,128,128" width="128" xmlns="http://www.w3.org/2000/svg" xmlns:ev="http://www.w3.org/2001/xml-events" xmlns:xlink="http://www.w3.org/1999/xlink"><defs /><polyline fill="none" points="42.9559,24.2983 41.6542,19.0915 47.2949,22.5627 55.9729,22.1288 62.9153,17.3559 63.3492,33.4102 59.878,38.1831 55.1051,41.2203 46.4271,41.6542 42.522,38.1831 41.2203,28.6373 43.3898,24.2983 44.2576,25.1661" stroke="#00007f" stroke-width="2" /><polyline fill="none" points="47.7288,29.0712 47.7288,28.2034" stroke="#0000de" stroke-width="2" /><polyline fill="none" points="55.9729,27.7695 55.9729,28.2034" stroke="#0028ff" stroke-width="2" /><polyline fill="none" points="50.3322,32.1085 53.8034,32.1085 52.0678,35.1458" stroke="#0080ff" stroke-width="2" /><polyline fill="none" points="50.3322,31.6746 54.6712,33.8441" stroke="#00d4ff" stroke-width="2" /><polyline fill="none" points="44.2576,40.3525 29.5051,39.4847 27.3356,36.0136 26.4678,27.3356 24.2983,24.7322 18.2237,21.6949 12.5831,22.5627" stroke="#36ffc0" stroke-width="2" /><polyline fill="none" points="11.2814,22.9966 8.678,27.7695 22.9966,27.7695" stroke="#7cff79" stroke-width="2" /><polyline fill="none" points="22.5627,28.2034 23.8644,39.0508 29.5051,47.2949 30.3729,57.2746 31.2407,58.1424 35.5797,57.2746 36.4475,51.2 38.1831,49.4644 49.8983,50.7661 52.0678,52.9356 53.8034,57.7085 59.4441,57.2746 61.1797,50.7661 60.7458,39.0508" stroke="#c0ff36" stroke-width="2" /><polyline fill="none" points="72.0271,20.8271 68.122,24.2983" stroke="#ffe500" stroke-width="2" /><polyline fill="none" points="78.1017,17.3559 78.1017,11.2814 78.9695,10.4136 80.2712,17.3559 82.4407,16.0542 86.3458,8.678 87.2136,17.3559" stroke="#ff9400" stroke-width="2" /><polyline fill="none" points="91.5525,16.0542 94.1559,15.6203 96.3254,12.5831 95.8915,11.7153 92.8542,17.3559 98.061,18.6576" stroke="#ff4600" stroke-width="2" /><polyline fill="none" points="102.4,18.6576 100.6644,16.0542 101.5322,12.5831 104.5695,18.6576 101.9661,18.6576 101.0983,17.3559" stroke="#de0000" stroke-width="2" /><polyline fill="none" points="109.3424,13.8847 109.3424,20.3932 112.3797,16.4881 114.1153,21.6949 118.4542,19.0915 119.322,16.4881 118.0203,14.7525" stroke="#7f0000" stroke-width="2" /></svg>