<?xml version="1.0" encoding="utf-8" ?>
<svg baseProfile="tiny" height="128" version="1.2" viewBox="0,0,128,128" width="128" xmlns="http://www.w3.org/2000/svg" xmlns:ev="http://www.w3.org/2001/xml-events" xmlns:xlink="http://www.w3.org/1999/xlink"><defs /><polyline fill="none" points="9.5458,68.5559 8.678,63.7831 9.1119,55.9729 16.0542,46.861 26.4678,38.1831 38.1831,32.1085 56.4068,31.6746 63.3492,32.9763 75.9322,36.4475 86.7797,45.5593 95.0237,59.4441 100.6644,72.0271 103.2678,82.0068 103.2678,90.6847 101.9661,95.4576 96.7593,103.2678 86.3458,112.8136 70.7254,118.4542 46.861,119.322 33.4102,112.3797 30.3729,109.3424 21.6949,97.6271 16.4881,88.0814 13.4508,77.2339 12.5831,52.0678" stroke="#00007f" stroke-width="2" /><polyline fill="none" points="13.8847,42.9559 13.0169,27.3356 14.7525,10.8475 19.9593,14.7525 32.9763,31.2407 40.7864,37.7492" stroke="#0000fe" stroke-width="2" /><polyline fill="none" points="69.4237,31.2407 92.4203,8.678 92.4203,14.3186 83.7424,39.4847 82.4407,47.2949" stroke="#0060ff" stroke-width="2" /><polyline fill="none" points="39.4847,59.0102 42.522,66.8203" stroke="#00d4ff" stroke-width="2" /><polyline fill="none" points="70.2915,62.0475 70.2915,70.2915" stroke="#4cffaa" stroke-width="2" /><polyline fill="none" points="63.3492,84.6102 75.9322,82.0068" stroke="#aaff4c" stroke-width="2" /><polyline fill="none" points="64.6508,87.6475 73.3288,87.2136 80.2712,89.8169" stroke="#ffe500" stroke-width="2" /><polyline fill="none" points="48.1627,81.5729 42.522,79.8373 33.4102,79.8373" stroke="#ff7a00" stroke-width="2" /><polyline fill="none" points="47.7288,86.3458 36.4475,86.7797 32.5424,89.3831" stroke="#fe1200" stroke-width="2" /><polyline fill="none" points="49.4644,100.2305 55.1051,103.7017 63.7831,104.5695" stroke="#7f0000" stroke-width="2" /></svg>