<?xml version="1.0" encoding="utf-8" ?>
<svg baseProfile="tiny" height="128" version="1.2" viewBox="0,0,128,128" width="128" xmlns="http://www.w3.org/2000/svg" xmlns:ev="http://www.w3.org/2001/xml-events" xmlns:xlink="http://www.w3.org/1999/xlink"><defs /><polyline fill="none" points="63.1293,33.0884 46.585,35.7007 29.6054,42.2313 26.9932,45.2789 23.5102,54.4218 20.4626,67.0476 20.4626,77.0612 42.6667,100.1361 72.7075,119.2925 87.5102,109.2789 96.2177,99.7007 99.2653,93.1701 101.0068,84.0272 101.0068,64.4354 97.0884,53.9864 83.1565,40.4898 79.6735,38.7483 64.4354,36.1361 75.3197,20.0272 91.4286,8.7075 93.1701,16.1088 93.1701,57.4694" stroke="#00007f" stroke-width="2" /><polyline fill="none" points="37.8776,38.3129 22.2041,26.1224 8.7075,21.3333 8.7075,28.2993 12.6259,37.4422 22.6395,50.9388 23.9456,55.2925" stroke="#0000ff" stroke-width="2" /><polyline fill="none" points="40.0544,55.2925 40.0544,55.2925" stroke="#0080ff" stroke-width="2" /><polyline fill="none" points="40.0544,55.2925 40.0544,55.2925" stroke="#15ffe1" stroke-width="2" /><polyline fill="none" points="42.6667,55.2925 42.2313,58.3401 46.1497,60.0816" stroke="#7cff79" stroke-width="2" /><polyline fill="none" points="77.0612,55.7279 72.2721,55.7279" stroke="#e4ff12" stroke-width="2" /><polyline fill="none" points="57.4694,82.2857 69.6599,82.2857" stroke="#ff9400" stroke-width="2" /><polyline fill="none" points="61.3878,82.7211 67.9184,92.2993 71.4014,94.4762 77.932,94.4762 79.2381,91.8639" stroke="#ff1d00" stroke-width="2" /><polyline fill="none" points="67.483,95.3469 54.4218,95.3469" stroke="#7f0000" stroke-width="2" /></svg>