<?xml version="1.0" encoding="utf-8" ?>
<svg baseProfile="tiny" height="128" version="1.2" viewBox="0,0,128,128" width="128" xmlns="http://www.w3.org/2000/svg" xmlns:ev="http://www.w3.org/2001/xml-events" xmlns:xlink="http://www.w3.org/1999/xlink"><defs /><polyline fill="none" points="80.5442,41.7959 72.2721,34.3946 65.7415,31.7823 56.5986,30.4762 50.068,32.6531 38.7483,43.5374 27.4286,60.517 26.5578,64.0 34.8299,71.4014 68.7891,81.415 83.1565,81.415 92.2993,76.1905 94.9116,70.966 96.2177,59.6463 95.3469,53.9864 91.8639,47.4558 86.6395,40.0544 76.6259,31.7823 67.0476,27.4286 60.9524,27.8639" stroke="#00007f" stroke-width="2" /><polyline fill="none" points="43.9728,40.4898 39.1837,33.5238 37.0068,24.8163 37.4422,8.7075 42.6667,15.2381 57.4694,27.8639 57.9048,29.6054" stroke="#0000f1" stroke-width="2" /><polyline fill="none" points="78.8027,30.0408 94.0408,22.6395 105.3605,20.0272 98.3946,27.4286 86.6395,36.5714" stroke="#004cff" stroke-width="2" /><polyline fill="none" points="53.1156,43.5374 51.8095,44.8435 51.8095,47.4558 57.4694,48.3265 60.517,45.2789 59.6463,42.6667 53.551,40.9252 50.5034,43.9728 50.068,45.2789 55.7279,47.4558" stroke="#00b0ff" stroke-width="2" /><polyline fill="none" points="80.1088,46.1497 77.4966,46.1497 74.449,50.068 74.0136,52.2449 75.3197,53.1156 78.8027,49.1973 74.449,44.4082" stroke="#29ffcd" stroke-width="2" /><polyline fill="none" points="53.1156,58.7755 58.7755,66.6122 67.0476,71.8367 74.449,71.4014 75.7551,65.7415 74.449,65.3061" stroke="#7cff79" stroke-width="2" /><polyline fill="none" points="79.6735,69.6599 114.5034,67.0476 113.6327,68.3537" stroke="#cdff29" stroke-width="2" /><polyline fill="none" points="86.6395,74.8844 119.2925,79.2381 113.6327,79.2381" stroke="#ffc400" stroke-width="2" /><polyline fill="none" points="85.3333,84.898 103.1837,93.6054 116.6803,99.2653 113.6327,96.6531" stroke="#ff6700" stroke-width="2" /><polyline fill="none" points="40.9252,61.3878 15.2381,53.1156 8.7075,52.2449 10.0136,53.9864" stroke="#f10700" stroke-width="2" /><polyline fill="none" points="37.4422,67.0476 22.6395,66.1769 21.3333,67.483" stroke="#7f0000" stroke-width="2" /></svg>