<?xml version="1.0" encoding="utf-8" ?>
<svg baseProfile="tiny" height="128" version="1.2" viewBox="0,0,128,128" width="128" xmlns="http://www.w3.org/2000/svg" xmlns:ev="http://www.w3.org/2001/xml-events" xmlns:xlink="http://www.w3.org/1999/xlink"><defs /><polyline fill="none" points="65.5186,41.2203 43.8237,45.9932 39.0508,57.7085 35.5797,82.0068 36.0136,101.5322 41.2203,112.8136 43.8237,114.9831 52.9356,117.5864 57.2746,117.1525 63.3492,104.1356 68.5559,97.1932 73.3288,88.5153 78.5356,77.6678 79.8373,64.2169 78.9695,41.2203 75.9322,36.8814 72.461,34.7119 65.9525,35.1458 55.539,38.6169" stroke="#00007f" stroke-width="2" /><polyline fill="none" points="49.8983,43.3898 49.0305,36.4475 50.3322,22.5627 55.9729,10.4136 59.878,8.678 62.9153,9.1119 63.7831,12.1492 64.2169,37.3153" stroke="#0000e8" stroke-width="2" /><polyline fill="none" points="67.6881,32.9763 72.0271,17.3559 75.9322,14.7525 83.3085,34.278 78.9695,44.2576" stroke="#0038ff" stroke-width="2" /><polyline fill="none" points="51.6339,78.1017 67.6881,82.4407 88.0814,96.3254 87.2136,98.061" stroke="#0094ff" stroke-width="2" /><polyline fill="none" points="50.3322,88.0814 56.4068,95.8915 59.0102,101.0983 75.4983,119.322" stroke="#0cf4ea" stroke-width="2" /><polyline fill="none" points="41.2203,78.9695 8.678,78.9695" stroke="#56ffa0" stroke-width="2" /><polyline fill="none" points="40.7864,86.7797 36.8814,86.7797 26.4678,90.6847 14.3186,97.1932" stroke="#a0ff56" stroke-width="2" /><polyline fill="none" points="68.122,57.7085 66.3864,58.1424" stroke="#eaff0c" stroke-width="2" /><polyline fill="none" points="52.0678,63.3492 52.0678,63.3492" stroke="#ffaa00" stroke-width="2" /><polyline fill="none" points="51.6339,62.0475 51.6339,62.0475" stroke="#ff5500" stroke-width="2" /><polyline fill="none" points="51.6339,61.6136 50.3322,58.5763" stroke="#e80000" stroke-width="2" /><polyline fill="none" points="50.3322,58.5763 50.3322,58.5763" stroke="#7f0000" stroke-width="2" /></svg>