<?xml version="1.0" encoding="utf-8" ?>
<svg baseProfile="tiny" height="128" version="1.2" viewBox="0,0,128,128" width="128" xmlns="http://www.w3.org/2000/svg" xmlns:ev="http://www.w3.org/2001/xml-events" xmlns:xlink="http://www.w3.org/1999/xlink"><defs /><polyline fill="none" points="33.8441,101.5322 26.0339,95.0237 19.0915,87.2136 13.8847,71.5932 15.6203,64.6508 25.1661,52.5017 26.4678,19.5254 29.939,10.4136 31.6746,9.9797 37.3153,16.4881 52.0678,47.7288 61.6136,40.3525 73.3288,26.4678 90.6847,11.7153 95.8915,8.678 96.3254,10.8475 90.6847,29.939 90.2508,46.4271 92.4203,58.5763 98.4949,60.3119 103.2678,68.5559 103.2678,75.4983 101.0983,82.4407 82.0068,94.5898 74.1966,97.1932 52.9356,97.6271 27.3356,94.1559" stroke="#00007f" stroke-width="2" /><polyline fill="none" points="54.2373,71.1593 50.7661,74.1966 51.6339,77.6678 62.0475,78.9695 64.6508,77.6678 65.9525,73.7627 65.5186,72.0271 61.6136,69.4237" stroke="#0010ff" stroke-width="2" /><polyline fill="none" points="51.2,83.3085 33.4102,83.7424 8.678,91.5525" stroke="#00a4ff" stroke-width="2" /><polyline fill="none" points="55.1051,83.3085 22.5627,88.5153 16.922,91.5525" stroke="#3fffb7" stroke-width="2" /><polyline fill="none" points="66.8203,81.5729 87.2136,81.5729 114.1153,83.3085" stroke="#b7ff3f" stroke-width="2" /><polyline fill="none" points="69.8576,85.0441 97.6271,87.2136 119.322,91.1186" stroke="#ffb900" stroke-width="2" /><polyline fill="none" points="79.8373,62.0475 77.6678,63.7831 77.6678,67.2542 82.0068,66.3864 82.4407,61.1797 79.4034,60.3119" stroke="#ff3000" stroke-width="2" /><polyline fill="none" points="31.2407,63.7831 31.6746,66.3864 36.0136,65.9525 36.4475,62.9153 34.7119,61.6136" stroke="#7f0000" stroke-width="2" /></svg>