<?xml version="1.0" encoding="utf-8" ?>
<svg baseProfile="tiny" height="128" version="1.2" viewBox="0,0,128,128" width="128" xmlns="http://www.w3.org/2000/svg" xmlns:ev="http://www.w3.org/2001/xml-events" xmlns:xlink="http://www.w3.org/1999/xlink"><defs /><polyline fill="none" points="16.4881,22.1288 16.0542,16.4881 19.5254,11.7153 22.5627,13.4508 22.9966,20.3932" stroke="#00007f" stroke-width="2" /><polyline fill="none" points="23.4305,20.3932 27.7695,20.8271 31.6746,13.8847 34.278,13.0169 38.1831,19.0915 38.6169,22.9966 36.8814,22.9966" stroke="#0000d1" stroke-width="2" /><polyline fill="none" points="15.6203,21.6949 9.1119,25.6 8.678,30.8068 10.8475,34.7119 19.9593,40.3525 30.8068,42.0881 39.0508,32.1085 39.4847,26.9017 36.8814,21.6949" stroke="#0010ff" stroke-width="2" /><polyline fill="none" points="22.5627,32.9763 20.8271,36.8814 19.9593,33.4102" stroke="#0058ff" stroke-width="2" /><polyline fill="none" points="23.4305,32.5424 24.7322,36.4475 26.4678,36.8814 26.9017,35.1458" stroke="#00a4ff" stroke-width="2" /><polyline fill="none" points="20.3932,26.9017 21.6949,26.0339 19.9593,25.6 21.6949,26.0339" stroke="#05ecf1" stroke-width="2" /><polyline fill="none" points="29.5051,26.9017 29.0712,27.7695 29.939,27.3356" stroke="#3fffb7" stroke-width="2" /><polyline fill="none" points="38.6169,30.3729 59.0102,22.1288 71.1593,21.261 80.2712,24.7322 90.6847,32.9763 95.8915,42.0881 95.8915,49.8983 93.2881,55.539 88.5153,60.7458 79.8373,65.0847 70.7254,66.8203 57.7085,66.3864 39.4847,59.0102 31.2407,53.3695 26.0339,46.4271 23.8644,34.7119" stroke="#7cff79" stroke-width="2" /><polyline fill="none" points="89.8169,32.5424 103.2678,12.5831 109.7763,9.1119 118.0203,8.678 119.322,10.4136 118.0203,13.8847 108.9085,17.3559 96.7593,36.8814" stroke="#b7ff3f" stroke-width="2" /><polyline fill="none" points="118.4542,8.678 116.7186,9.1119 116.2847,13.0169 115.4169,10.8475 111.078,9.9797 106.3051,13.8847" stroke="#f1fc05" stroke-width="2" /><polyline fill="none" points="104.1356,13.8847 102.8339,19.0915 104.1356,22.9966" stroke="#ffb900" stroke-width="2" /><polyline fill="none" points="98.9288,21.261 102.8339,32.1085 100.6644,30.8068" stroke="#ff7300" stroke-width="2" /><polyline fill="none" points="95.0237,26.4678 96.7593,35.5797" stroke="#ff3000" stroke-width="2" /><polyline fill="none" points="36.4475,53.3695 29.0712,61.6136 27.3356,66.3864 29.0712,67.6881 33.4102,67.2542 42.522,60.7458 44.2576,57.7085 44.2576,54.2373 42.9559,51.6339 40.3525,50.7661 39.9186,58.5763" stroke="#d10000" stroke-width="2" /><polyline fill="none" points="58.1424,68.122 58.1424,73.7627 60.7458,78.1017 64.6508,79.4034 68.9898,76.3661 75.0644,69.4237 79.8373,59.0102 79.8373,52.9356 77.6678,50.3322" stroke="#7f0000" stroke-width="2" /></svg>