<?xml version="1.0" encoding="utf-8" ?>
<svg baseProfile="tiny" height="128" version="1.2" viewBox="0,0,128,128" width="128" xmlns="http://www.w3.org/2000/svg" xmlns:ev="http://www.w3.org/2001/xml-events" xmlns:xlink="http://www.w3.org/1999/xlink"><defs /><polyline fill="none" points="81.139,33.8441 79.4034,22.9966 82.4407,8.678 90.2508,31.2407 99.3627,33.4102 101.0983,32.5424 112.8136,10.8475 114.1153,15.1864 112.3797,35.5797 117.5864,40.3525 119.322,45.9932 118.4542,56.4068 114.1153,62.0475 108.9085,64.2169 89.8169,66.8203 89.3831,91.1186 88.0814,101.9661 86.3458,105.8712 78.1017,95.0237 70.7254,77.2339 64.6508,98.9288 63.3492,100.2305 62.0475,99.7966 59.0102,91.5525 57.7085,73.7627 55.1051,72.8949 36.4475,75.4983 35.1458,78.5356 32.5424,97.1932 28.6373,92.8542 22.5627,74.6305 21.261,96.7593 19.0915,101.9661 16.4881,96.7593 14.3186,88.9492 13.0169,58.5763 8.678,32.9763 9.9797,14.7525 12.1492,11.2814 13.4508,10.8475 16.922,15.1864 21.261,43.8237 23.8644,48.1627 59.878,38.6169 86.3458,33.8441" stroke="#00007f" stroke-width="2" /><polyline fill="none" points="92.4203,42.522 92.4203,42.522" stroke="#0028ff" stroke-width="2" /><polyline fill="none" points="105.8712,42.522 99.3627,43.3898 101.9661,41.2203 101.0983,42.522" stroke="#00d4ff" stroke-width="2" /><polyline fill="none" points="91.1186,41.6542 88.9492,43.3898" stroke="#7cff79" stroke-width="2" /><polyline fill="none" points="96.3254,50.3322 97.1932,56.8407 102.4,55.9729 103.2678,54.2373" stroke="#ffe500" stroke-width="2" /><polyline fill="none" points="94.5898,50.3322 93.722,56.8407 89.8169,57.7085 88.9492,55.539" stroke="#ff4600" stroke-width="2" /><polyline fill="none" points="95.8915,49.4644 93.2881,49.8983 96.3254,49.0305" stroke="#7f0000" stroke-width="2" /></svg>