<?xml version="1.0" encoding="utf-8" ?>
<svg baseProfile="tiny" height="128" version="1.2" viewBox="0,0,128,128" width="128" xmlns="http://www.w3.org/2000/svg" xmlns:ev="http://www.w3.org/2001/xml-events" xmlns:xlink="http://www.w3.org/1999/xlink"><defs /><polyline fill="none" points="18.2237,51.2 8.678,37.3153 13.8847,19.9593 31.6746,9.1119 38.1831,9.1119 52.0678,23.8644 56.4068,38.1831 57.2746,31.6746 67.2542,11.2814 80.7051,8.678 91.5525,13.8847 97.1932,19.0915 95.0237,25.6 83.3085,43.3898 66.3864,75.9322 56.4068,116.7186 53.8034,119.322 35.5797,115.8508 29.5051,113.2475 18.2237,99.7966 13.8847,86.7797 10.4136,69.8576 18.2237,45.9932" stroke="#00007f" stroke-width="2" /><polyline fill="none" points="35.5797,44.6915 34.7119,55.539 37.3153,55.1051 46.861,45.5593 40.3525,41.2203 39.4847,45.9932" stroke="#0080ff" stroke-width="2" /><polyline fill="none" points="66.3864,44.2576 64.6508,44.6915 60.3119,53.3695 61.1797,54.6712 75.4983,43.3898 74.1966,40.3525 60.7458,44.2576" stroke="#7cff79" stroke-width="2" /><polyline fill="none" points="35.5797,64.2169 38.6169,68.122 28.2034,72.8949 19.0915,68.9898 20.3932,67.6881" stroke="#ff9400" stroke-width="2" /><polyline fill="none" points="49.0305,65.0847 54.2373,74.1966 57.7085,77.6678 72.8949,73.3288 71.5932,71.5932" stroke="#7f0000" stroke-width="2" /></svg>