<?xml version="1.0" encoding="utf-8" ?>
<svg baseProfile="tiny" height="128" version="1.2" viewBox="0,0,128,128" width="128" xmlns="http://www.w3.org/2000/svg" xmlns:ev="http://www.w3.org/2001/xml-events" xmlns:xlink="http://www.w3.org/1999/xlink"><defs /><polyline fill="none" points="62.0475,29.0712 45.9932,30.3729 31.2407,39.9186 18.6576,51.6339 11.2814,61.1797 9.5458,66.8203 8.678,84.1763 14.3186,95.4576 46.861,103.7017 65.0847,103.2678 74.1966,99.7966 82.0068,94.5898 95.4576,70.2915 98.9288,57.7085 99.3627,48.5966 93.2881,35.5797 88.0814,32.5424 78.9695,29.939 64.6508,28.6373 43.8237,29.0712 42.0881,26.9017 46.861,8.678 53.3695,19.5254 54.6712,26.9017 56.4068,28.2034" stroke="#00007f" stroke-width="2" /><polyline fill="none" points="88.0814,32.5424 110.2102,25.1661 119.322,23.8644 119.322,26.9017 115.8508,30.3729 105.8712,36.0136 93.2881,41.2203" stroke="#0000f1" stroke-width="2" /><polyline fill="none" points="49.0305,46.861 48.1627,51.2 46.4271,49.8983" stroke="#004cff" stroke-width="2" /><polyline fill="none" points="76.8,50.7661 75.0644,55.1051" stroke="#00b0ff" stroke-width="2" /><polyline fill="none" points="51.2,67.2542 51.6339,72.0271 53.8034,73.7627 57.7085,70.7254 52.5017,67.2542" stroke="#29ffcd" stroke-width="2" /><polyline fill="none" points="56.4068,72.461 93.2881,73.3288" stroke="#7cff79" stroke-width="2" /><polyline fill="none" points="56.4068,74.6305 62.0475,77.2339 72.0271,85.9119" stroke="#cdff29" stroke-width="2" /><polyline fill="none" points="52.0678,74.6305 55.1051,88.9492" stroke="#ffc400" stroke-width="2" /><polyline fill="none" points="52.0678,72.8949 42.522,72.461 30.3729,69.8576" stroke="#ff6700" stroke-width="2" /><polyline fill="none" points="49.0305,68.9898 42.9559,65.0847 37.7492,55.539" stroke="#f10700" stroke-width="2" /><polyline fill="none" points="51.2,64.6508 51.2,64.6508" stroke="#7f0000" stroke-width="2" /></svg>