<?xml version="1.0" encoding="utf-8" ?>
<svg baseProfile="tiny" height="128" version="1.2" viewBox="0,0,128,128" width="128" xmlns="http://www.w3.org/2000/svg" xmlns:ev="http://www.w3.org/2001/xml-events" xmlns:xlink="http://www.w3.org/1999/xlink"><defs /><polyline fill="none" points="85.9119,44.6915 81.139,41.6542 68.5559,40.3525 52.9356,42.522 32.9763,53.8034 22.1288,64.2169 17.7898,69.8576 14.3186,82.4407 14.7525,93.2881 16.922,99.7966 22.5627,106.739 29.939,112.3797 41.2203,117.5864 60.3119,119.322 74.1966,116.7186 82.8746,112.3797 90.2508,103.7017 91.5525,99.3627 91.9864,55.539 85.0441,43.8237 80.7051,42.9559" stroke="#00007f" stroke-width="2" /><polyline fill="none" points="20.3932,68.9898 15.1864,62.4814 13.0169,54.6712 8.678,16.4881 43.8237,35.1458 52.5017,42.522" stroke="#7cff79" stroke-width="2" /><polyline fill="none" points="85.9119,47.7288 86.7797,43.8237 101.5322,15.1864 106.739,9.5458 108.4746,8.678 110.2102,9.9797 111.9458,17.3559 111.5119,36.4475 104.1356,56.4068 91.5525,74.6305" stroke="#7f0000" stroke-width="2" /></svg>