<?xml version="1.0" encoding="utf-8" ?>
<svg baseProfile="tiny" height="128" version="1.2" viewBox="0,0,128,128" width="128" xmlns="http://www.w3.org/2000/svg" xmlns:ev="http://www.w3.org/2001/xml-events" xmlns:xlink="http://www.w3.org/1999/xlink"><defs /><polyline fill="none" points="108.9085,25.1661 105.4373,22.1288 99.3627,21.261 95.4576,21.261 88.9492,24.2983 84.1763,28.2034 80.7051,34.278 79.4034,39.9186 80.2712,45.9932 84.6102,51.2 92.4203,52.5017 104.1356,51.2 113.2475,45.9932 117.5864,40.3525 119.322,31.2407 115.4169,24.7322 106.739,20.3932" stroke="#00007f" stroke-width="2" /><polyline fill="none" points="83.3085,22.9966 88.9492,9.9797 95.8915,21.6949" stroke="#0000f1" stroke-width="2" /><polyline fill="none" points="106.3051,22.1288 110.2102,16.4881 111.078,8.678 117.5864,23.4305" stroke="#004cff" stroke-width="2" /><polyline fill="none" points="95.8915,49.8983 93.2881,54.2373 85.478,59.0102 68.122,60.7458 36.4475,49.4644 27.7695,48.5966 20.8271,54.6712 18.6576,63.7831 23.8644,70.2915 34.278,75.9322 49.4644,74.6305 52.9356,75.9322 75.9322,77.2339 87.6475,75.0644 101.9661,66.8203 104.1356,51.2" stroke="#00b0ff" stroke-width="2" /><polyline fill="none" points="28.6373,48.5966 28.6373,44.2576 26.9017,42.0881 15.1864,41.2203 9.1119,33.4102 8.678,26.4678 14.3186,17.7898 17.7898,16.4881 17.7898,20.3932 12.5831,28.6373 12.5831,30.3729 15.6203,32.5424 22.9966,33.8441 32.1085,40.3525 35.5797,44.2576 35.1458,50.3322" stroke="#29ffcd" stroke-width="2" /><polyline fill="none" points="36.0136,75.4983 33.4102,86.7797" stroke="#7cff79" stroke-width="2" /><polyline fill="none" points="45.1254,74.6305 45.1254,82.4407 46.4271,84.1763" stroke="#cdff29" stroke-width="2" /><polyline fill="none" points="79.8373,75.9322 80.7051,90.6847" stroke="#ffc400" stroke-width="2" /><polyline fill="none" points="93.2881,69.8576 94.5898,86.3458" stroke="#ff6700" stroke-width="2" /><polyline fill="none" points="99.3627,38.1831 99.3627,38.1831" stroke="#f10700" stroke-width="2" /><polyline fill="none" points="97.6271,38.1831 97.6271,41.6542 97.6271,39.9186 99.7966,41.2203 100.6644,39.9186 98.9288,39.4847 98.061,42.522" stroke="#7f0000" stroke-width="2" /></svg>