<?xml version="1.0" encoding="utf-8" ?>
<svg baseProfile="tiny" height="128" version="1.2" viewBox="0,0,128,128" width="128" xmlns="http://www.w3.org/2000/svg" xmlns:ev="http://www.w3.org/2001/xml-events" xmlns:xlink="http://www.w3.org/1999/xlink"><defs /><polyline fill="none" points="33.9592,28.7347 23.9456,25.2517 16.1088,25.2517 12.6259,27.8639 9.5782,33.9592 8.7075,42.6667 13.4966,53.9864 15.6735,55.7279 20.4626,55.7279 27.8639,51.3741 30.0408,48.7619 31.7823,42.2313 31.3469,25.6871" stroke="#00007f" stroke-width="2" /><polyline fill="none" points="31.3469,25.6871 29.1701,10.8844 26.5578,25.2517 25.2517,25.6871 20.898,17.8503 17.8503,8.7075 16.5442,8.7075 14.8027,12.1905 13.932,23.0748" stroke="#0080ff" stroke-width="2" /><polyline fill="none" points="30.9116,37.4422 43.9728,35.7007 69.6599,35.7007 90.1224,39.1837 111.0204,46.1497 114.9388,53.551 115.8095,62.6939 110.1497,70.0952 100.5714,78.3673 93.6054,61.3878 92.7347,51.8095 91.4286,54.4218" stroke="#7cff79" stroke-width="2" /><polyline fill="none" points="30.9116,50.5034 32.2177,61.8231 33.9592,67.0476 35.2653,67.483 54.4218,59.2109 64.8707,51.8095 71.4014,56.5986 77.932,58.7755 80.9796,58.7755 91.4286,53.551 94.9116,53.551" stroke="#ff9400" stroke-width="2" /><polyline fill="none" points="117.9864,52.2449 119.2925,18.2857 110.585,11.7551 107.9728,11.3197 104.0544,20.898 103.1837,30.9116 111.0204,43.5374" stroke="#7f0000" stroke-width="2" /></svg>