<?xml version="1.0" encoding="utf-8" ?>
<svg baseProfile="tiny" height="128" version="1.2" viewBox="0,0,128,128" width="128" xmlns="http://www.w3.org/2000/svg" xmlns:ev="http://www.w3.org/2001/xml-events" xmlns:xlink="http://www.w3.org/1999/xlink"><defs /><polyline fill="none" points="42.0881,36.0136 30.8068,51.2 28.2034,58.1424 27.7695,67.2542 30.3729,78.1017 35.1458,84.1763 43.3898,91.1186 54.2373,95.8915 67.2542,98.9288 78.9695,99.3627 88.5153,91.9864 93.2881,81.5729 92.8542,61.1797 90.2508,48.5966 84.6102,42.0881 63.7831,35.1458 55.1051,34.7119 41.2203,39.0508" stroke="#00007f" stroke-width="2" /><polyline fill="none" points="45.1254,61.1797 11.7153,48.5966" stroke="#0000ff" stroke-width="2" /><polyline fill="none" points="37.7492,65.5186 19.9593,67.2542 8.678,69.8576" stroke="#0080ff" stroke-width="2" /><polyline fill="none" points="39.0508,73.3288 11.7153,87.2136" stroke="#15ffe1" stroke-width="2" /><polyline fill="none" points="75.9322,60.3119 91.5525,51.2 118.4542,39.0508" stroke="#7cff79" stroke-width="2" /><polyline fill="none" points="80.2712,65.5186 119.322,59.4441" stroke="#e4ff12" stroke-width="2" /><polyline fill="none" points="77.2339,79.8373 116.7186,92.8542" stroke="#ff9400" stroke-width="2" /><polyline fill="none" points="77.6678,35.5797 81.139,25.1661 89.8169,8.678 89.8169,33.4102 88.0814,42.0881" stroke="#ff1d00" stroke-width="2" /><polyline fill="none" points="44.6915,34.7119 31.6746,20.8271 26.0339,16.4881 25.1661,19.0915 28.2034,28.6373 36.8814,42.522" stroke="#7f0000" stroke-width="2" /></svg>