<?xml version="1.0" encoding="utf-8" ?>
<svg baseProfile="tiny" height="128" version="1.2" viewBox="0,0,128,128" width="128" xmlns="http://www.w3.org/2000/svg" xmlns:ev="http://www.w3.org/2001/xml-events" xmlns:xlink="http://www.w3.org/1999/xlink"><defs /><polyline fill="none" points="75.9322,117.1525 56.4068,119.322 49.0305,117.1525 44.6915,114.1153 32.1085,96.3254 21.6949,74.1966 19.5254,63.7831 20.8271,52.9356 24.7322,45.5593 39.4847,34.278 46.4271,31.6746 57.2746,29.5051 68.5559,29.5051 91.9864,31.6746 104.5695,36.0136 111.9458,40.7864 116.2847,52.0678 117.1525,63.7831 110.6441,82.8746 108.4746,86.7797 99.3627,93.722 78.5356,100.6644 62.0475,109.3424" stroke="#00007f" stroke-width="2" /><polyline fill="none" points="29.939,49.4644 26.4678,49.4644 19.9593,46.861 15.6203,43.3898 8.678,29.5051 8.678,18.6576 12.5831,18.2237 25.6,21.6949 41.6542,27.7695" stroke="#0080ff" stroke-width="2" /><polyline fill="none" points="80.2712,29.939 91.9864,16.4881 103.7017,8.678 107.1729,12.5831 107.1729,26.4678 104.1356,33.8441" stroke="#7cff79" stroke-width="2" /><polyline fill="none" points="36.0136,58.1424 36.0136,58.5763" stroke="#ff9400" stroke-width="2" /><polyline fill="none" points="74.1966,56.4068 74.1966,56.4068" stroke="#7f0000" stroke-width="2" /></svg>