<?xml version="1.0" encoding="utf-8" ?>
<svg baseProfile="tiny" height="128" version="1.2" viewBox="0,0,128,128" width="128" xmlns="http://www.w3.org/2000/svg" xmlns:ev="http://www.w3.org/2001/xml-events" xmlns:xlink="http://www.w3.org/1999/xlink"><defs /><polyline fill="none" points="9.5458,27.7695 71.5932,27.7695 82.8746,30.3729 86.7797,33.4102 88.0814,36.8814 88.0814,42.522 85.478,47.7288 76.3661,54.6712 64.2169,58.1424 48.5966,58.5763 42.522,57.2746 26.4678,52.5017 9.5458,43.8237 8.678,36.0136 11.2814,31.2407 16.0542,27.3356 25.6,26.4678" stroke="#00007f" stroke-width="2" /><polyline fill="none" points="90.6847,17.3559 86.7797,18.2237 82.4407,22.5627 80.7051,28.6373 80.2712,36.0136 85.478,42.0881 92.4203,43.8237 98.061,42.9559 103.2678,35.1458 103.7017,24.7322 100.6644,18.6576 91.9864,16.4881" stroke="#0010ff" stroke-width="2" /><polyline fill="none" points="99.3627,16.4881 119.322,9.1119 95.8915,28.2034" stroke="#00a4ff" stroke-width="2" /><polyline fill="none" points="87.6475,16.922 72.0271,8.678 73.3288,13.0169 81.5729,26.4678" stroke="#3fffb7" stroke-width="2" /><polyline fill="none" points="87.2136,24.2983 87.2136,24.2983" stroke="#b7ff3f" stroke-width="2" /><polyline fill="none" points="85.478,25.6 87.2136,26.9017" stroke="#ffb900" stroke-width="2" /><polyline fill="none" points="91.9864,24.2983 91.9864,24.7322" stroke="#ff3000" stroke-width="2" /><polyline fill="none" points="87.6475,36.0136 101.5322,33.8441 95.0237,44.6915" stroke="#7f0000" stroke-width="2" /></svg>