<?xml version="1.0" encoding="utf-8" ?>
<svg baseProfile="tiny" height="128" version="1.2" viewBox="0,0,128,128" width="128" xmlns="http://www.w3.org/2000/svg" xmlns:ev="http://www.w3.org/2001/xml-events" xmlns:xlink="http://www.w3.org/1999/xlink"><defs /><polyline fill="none" points="52.9356,40.3525 52.0678,36.4475 46.861,35.1458 37.7492,36.4475 25.6,40.7864 18.6576,46.861 14.7525,57.7085 14.3186,69.8576 17.3559,74.6305 29.0712,86.3458 38.1831,89.8169 55.539,91.1186 67.6881,86.3458 74.1966,81.5729 80.2712,72.8949 85.0441,62.9153 86.3458,54.2373 86.3458,47.2949 83.3085,42.0881 74.1966,32.9763 59.4441,25.6 54.6712,24.2983 45.1254,24.7322 40.7864,27.7695 38.6169,36.0136" stroke="#00007f" stroke-width="2" /><polyline fill="none" points="19.5254,45.9932 17.7898,20.8271 31.6746,35.5797" stroke="#0010ff" stroke-width="2" /><polyline fill="none" points="52.0678,27.3356 58.1424,16.0542 64.2169,8.678 67.2542,29.939" stroke="#00a4ff" stroke-width="2" /><polyline fill="none" points="38.6169,60.7458 29.0712,62.0475 19.5254,65.9525 12.1492,71.5932 8.678,75.4983 9.5458,77.6678 11.2814,77.6678" stroke="#3fffb7" stroke-width="2" /><polyline fill="none" points="36.8814,71.1593 35.1458,69.8576 27.3356,73.3288 16.0542,82.0068" stroke="#b7ff3f" stroke-width="2" /><polyline fill="none" points="36.8814,77.2339 24.7322,85.0441 16.922,96.3254" stroke="#ffb900" stroke-width="2" /><polyline fill="none" points="63.3492,65.9525 71.1593,61.6136 83.3085,58.1424 95.4576,56.4068 119.322,56.4068" stroke="#ff3000" stroke-width="2" /><polyline fill="none" points="66.3864,55.1051 99.7966,50.3322" stroke="#7f0000" stroke-width="2" /></svg>