<?xml version="1.0" encoding="utf-8" ?>
<svg baseProfile="tiny" height="128" version="1.2" viewBox="0,0,128,128" width="128" xmlns="http://www.w3.org/2000/svg" xmlns:ev="http://www.w3.org/2001/xml-events" xmlns:xlink="http://www.w3.org/1999/xlink"><defs /><polyline fill="none" points="19.0915,28.6373 13.0169,28.6373 8.678,47.7288 8.678,49.4644 18.2237,52.9356 27.7695,52.5017 35.5797,49.0305 37.3153,46.4271 38.1831,34.7119 31.2407,25.6 26.9017,23.4305 13.8847,23.4305 12.1492,27.7695" stroke="#00007f" stroke-width="2" /><polyline fill="none" points="21.261,31.6746 20.8271,31.6746" stroke="#0000e8" stroke-width="2" /><polyline fill="none" points="28.2034,31.6746 27.7695,32.1085" stroke="#0038ff" stroke-width="2" /><polyline fill="none" points="19.5254,38.1831 23.8644,40.3525 28.2034,38.1831" stroke="#0094ff" stroke-width="2" /><polyline fill="none" points="37.7492,31.2407 49.8983,30.8068 86.7797,35.1458 89.3831,42.0881 89.3831,51.2 87.6475,53.8034 78.1017,57.2746 65.9525,59.0102 24.2983,59.0102 18.6576,50.7661 18.6576,46.4271" stroke="#0cf4ea" stroke-width="2" /><polyline fill="none" points="36.0136,57.7085 36.8814,65.9525 40.7864,71.5932 42.9559,72.461 45.1254,71.5932 45.5593,70.2915 45.5593,59.0102" stroke="#56ffa0" stroke-width="2" /><polyline fill="none" points="52.0678,56.8407 52.0678,63.7831 56.4068,66.3864 58.1424,64.6508 58.1424,60.3119 59.878,58.1424" stroke="#a0ff56" stroke-width="2" /><polyline fill="none" points="64.2169,57.2746 64.6508,61.1797 66.8203,62.9153 72.0271,63.3492 74.1966,62.9153 71.1593,56.4068" stroke="#eaff0c" stroke-width="2" /><polyline fill="none" points="78.9695,55.1051 80.2712,58.1424 88.5153,60.3119 89.3831,52.9356" stroke="#ffaa00" stroke-width="2" /><polyline fill="none" points="88.9492,39.9186 91.5525,38.1831 95.8915,38.6169 111.5119,47.2949 119.322,58.1424 119.322,60.3119 116.7186,61.1797 109.3424,61.1797 101.0983,58.5763 98.9288,48.5966 92.8542,43.3898 84.1763,41.2203" stroke="#ff5500" stroke-width="2" /><polyline fill="none" points="18.2237,17.7898 18.2237,13.0169 19.5254,10.8475 26.0339,8.678 26.9017,25.1661" stroke="#e80000" stroke-width="2" /><polyline fill="none" points="30.8068,20.3932 30.8068,14.7525 33.8441,11.7153 37.7492,13.0169 39.9186,19.0915 40.7864,24.2983 35.5797,33.8441 35.1458,32.9763" stroke="#7f0000" stroke-width="2" /></svg>