<?xml version="1.0" encoding="utf-8" ?>
<svg baseProfile="tiny" height="128" version="1.2" viewBox="0,0,128,128" width="128" xmlns="http://www.w3.org/2000/svg" xmlns:ev="http://www.w3.org/2001/xml-events" xmlns:xlink="http://www.w3.org/1999/xlink"><defs /><polyline fill="none" points="57.7085,41.2203 53.8034,37.7492 49.0305,37.3153 44.2576,38.1831 36.4475,42.522 30.3729,49.0305 29.939,58.1424 31.2407,61.6136 34.278,65.5186 47.2949,68.5559 58.5763,42.0881 58.1424,36.0136 54.2373,34.278" stroke="#00007f" stroke-width="2" /><polyline fill="none" points="55.539,36.8814 54.2373,22.9966 49.8983,8.678 48.5966,8.678 48.1627,12.1492 45.1254,36.0136 43.3898,36.8814 8.678,20.3932 22.5627,42.0881 31.6746,50.3322" stroke="#0010ff" stroke-width="2" /><polyline fill="none" points="45.9932,50.7661 44.6915,51.2 45.9932,53.8034 47.2949,52.5017 45.9932,50.3322 40.3525,49.4644" stroke="#00a4ff" stroke-width="2" /><polyline fill="none" points="38.6169,52.5017 38.1831,55.9729" stroke="#3fffb7" stroke-width="2" /><polyline fill="none" points="47.7288,61.1797 42.522,60.7458" stroke="#b7ff3f" stroke-width="2" /><polyline fill="none" points="35.1458,68.5559 26.0339,70.7254 20.8271,73.7627 17.3559,79.4034 16.0542,92.8542 20.8271,107.6068 25.6,114.9831 32.5424,117.5864 41.6542,119.322 58.5763,119.322 65.5186,117.1525 71.1593,113.6814 75.4983,107.6068 78.9695,99.3627 78.5356,87.2136 75.9322,78.5356 69.8576,69.8576 52.0678,63.3492 47.2949,65.9525" stroke="#ffb900" stroke-width="2" /><polyline fill="none" points="46.4271,90.2508 42.522,95.8915 42.0881,103.2678 45.9932,105.8712 49.4644,101.5322 50.7661,95.4576 46.4271,92.4203 44.6915,96.3254 45.1254,101.0983 50.3322,103.7017 49.8983,99.7966" stroke="#ff3000" stroke-width="2" /><polyline fill="none" points="79.4034,90.2508 81.5729,94.5898 97.1932,103.7017 115.4169,108.0407 118.8881,98.9288 118.8881,94.5898 116.2847,91.1186 113.6814,97.6271 109.3424,99.3627 90.6847,98.4949 68.122,92.8542" stroke="#7f0000" stroke-width="2" /></svg>