<?xml version="1.0" encoding="utf-8" ?>
<svg baseProfile="tiny" height="128" version="1.2" viewBox="0,0,128,128" width="128" xmlns="http://www.w3.org/2000/svg" xmlns:ev="http://www.w3.org/2001/xml-events" xmlns:xlink="http://www.w3.org/1999/xlink"><defs /><polyline fill="none" points="37.3153,33.8441 34.278,32.1085 27.7695,32.5424 15.1864,39.9186 13.8847,44.2576 13.4508,51.6339 14.7525,55.1051 19.9593,59.4441 27.3356,63.7831 42.0881,69.4237 63.7831,71.1593 74.1966,65.9525 80.2712,60.7458 83.7424,55.539 84.1763,49.8983 82.4407,45.9932 72.461,34.7119 68.122,31.6746 49.0305,26.9017 38.1831,26.4678 30.3729,28.2034" stroke="#00007f" stroke-width="2" /><polyline fill="none" points="22.9966,35.1458 22.5627,31.6746 29.5051,8.678 39.0508,21.261 45.1254,26.0339" stroke="#0000fe" stroke-width="2" /><polyline fill="none" points="69.4237,33.8441 79.8373,25.1661 89.8169,20.3932 91.1186,22.1288 88.5153,35.5797 85.478,41.6542 79.8373,47.7288" stroke="#0060ff" stroke-width="2" /><polyline fill="none" points="42.522,55.539 44.6915,59.878 48.5966,56.8407" stroke="#00d4ff" stroke-width="2" /><polyline fill="none" points="45.1254,60.7458 45.1254,62.0475 39.4847,62.4814 38.6169,63.7831 40.3525,64.6508 45.1254,62.4814 48.1627,66.8203 49.8983,67.2542" stroke="#4cffaa" stroke-width="2" /><polyline fill="none" points="36.0136,43.8237 34.278,42.9559 32.9763,46.861 34.7119,47.7288 37.3153,46.4271 37.7492,43.3898 36.4475,43.3898 35.1458,45.5593 36.8814,45.5593" stroke="#aaff4c" stroke-width="2" /><polyline fill="none" points="63.3492,45.1254 61.6136,48.5966 64.6508,49.4644 65.5186,46.861 64.6508,45.1254 62.9153,45.5593 62.0475,47.7288 63.3492,48.5966" stroke="#ffe500" stroke-width="2" /><polyline fill="none" points="29.939,65.5186 9.9797,108.0407 8.678,115.4169" stroke="#ff7a00" stroke-width="2" /><polyline fill="none" points="66.8203,71.1593 75.4983,119.322" stroke="#fe1200" stroke-width="2" /><polyline fill="none" points="77.2339,103.2678 85.9119,100.6644 92.4203,89.3831 92.8542,84.1763 88.5153,73.7627 88.9492,63.7831 91.9864,56.4068 103.2678,51.2 106.739,48.1627 108.4746,41.2203 106.739,38.6169 111.9458,40.7864 112.8136,45.1254" stroke="#7f0000" stroke-width="2" /></svg>