<?xml version="1.0" encoding="utf-8" ?>
<svg baseProfile="tiny" height="128" version="1.2" viewBox="0,0,128,128" width="128" xmlns="http://www.w3.org/2000/svg" xmlns:ev="http://www.w3.org/2001/xml-events" xmlns:xlink="http://www.w3.org/1999/xlink"><defs /><polyline fill="none" points="8.678,25.6 12.1492,11.2814 13.8847,17.3559 18.2237,22.1288 36.4475,24.2983 40.7864,14.3186 45.5593,8.678 47.2949,15.1864 47.7288,25.6 54.2373,38.6169 55.539,49.0305 52.0678,57.2746 48.1627,60.3119 42.9559,61.6136 31.2407,60.7458 13.8847,54.6712 10.8475,47.2949 9.5458,34.7119 14.3186,25.1661" stroke="#00007f" stroke-width="2" /><polyline fill="none" points="23.4305,26.9017 17.7898,39.0508 11.2814,45.5593" stroke="#0010ff" stroke-width="2" /><polyline fill="none" points="19.9593,38.6169 19.9593,34.278 22.5627,30.3729 23.8644,29.939 23.8644,35.5797 20.3932,37.7492" stroke="#00a4ff" stroke-width="2" /><polyline fill="none" points="32.5424,24.7322 39.0508,35.1458 44.2576,39.9186 57.2746,44.2576 65.0847,45.1254" stroke="#3fffb7" stroke-width="2" /><polyline fill="none" points="36.4475,37.7492 34.7119,36.0136 34.7119,33.8441 39.9186,30.8068 39.9186,35.1458 33.8441,36.0136" stroke="#b7ff3f" stroke-width="2" /><polyline fill="none" points="52.0678,33.8441 61.6136,31.2407 97.6271,25.1661 114.1153,25.1661 115.8508,25.6 118.0203,29.5051 119.322,38.6169" stroke="#ffb900" stroke-width="2" /><polyline fill="none" points="62.4814,45.9932 61.6136,48.1627 62.4814,48.5966 74.1966,49.4644 108.9085,48.5966 116.2847,47.2949" stroke="#ff3000" stroke-width="2" /><polyline fill="none" points="71.5932,52.5017 63.3492,64.2169" stroke="#7f0000" stroke-width="2" /></svg>