<?xml version="1.0" encoding="utf-8" ?>
<svg baseProfile="tiny" height="128" version="1.2" viewBox="0,0,128,128" width="128" xmlns="http://www.w3.org/2000/svg" xmlns:ev="http://www.w3.org/2001/xml-events" xmlns:xlink="http://www.w3.org/1999/xlink"><defs /><polyline fill="none" points="24.2983,21.261 22.5627,19.9593 16.922,20.3932 13.8847,31.2407 13.8847,48.5966 19.5254,60.3119 24.7322,65.5186 31.6746,69.4237 39.9186,71.5932 60.7458,72.461 72.0271,69.8576 75.9322,65.9525 78.1017,60.3119 78.5356,43.8237 77.2339,35.1458 72.0271,26.9017 65.5186,21.6949 55.539,18.2237 26.0339,16.922 24.2983,17.3559 23.8644,19.5254" stroke="#00007f" stroke-width="2" /><polyline fill="none" points="19.0915,19.5254 12.1492,12.1492 9.9797,25.6 9.9797,29.5051 11.2814,30.8068" stroke="#0000cc" stroke-width="2" /><polyline fill="none" points="70.7254,16.0542 71.1593,20.3932 81.5729,8.678 83.3085,18.6576 83.3085,37.3153" stroke="#0008ff" stroke-width="2" /><polyline fill="none" points="42.522,52.9356 42.522,60.3119 39.9186,63.3492 32.5424,64.6508 30.8068,62.0475 30.3729,58.1424" stroke="#004cff" stroke-width="2" /><polyline fill="none" points="42.0881,55.1051 42.9559,61.1797 46.4271,65.9525 50.7661,67.2542 54.2373,61.1797" stroke="#0090ff" stroke-width="2" /><polyline fill="none" points="32.1085,36.4475 32.1085,36.4475" stroke="#00d4ff" stroke-width="2" /><polyline fill="none" points="49.8983,39.9186 47.7288,39.9186" stroke="#29ffcd" stroke-width="2" /><polyline fill="none" points="30.8068,38.6169 30.8068,38.6169" stroke="#5fff96" stroke-width="2" /><polyline fill="none" points="35.1458,38.6169 31.2407,38.1831" stroke="#96ff5f" stroke-width="2" /><polyline fill="none" points="39.4847,54.2373 20.8271,52.9356" stroke="#cdff29" stroke-width="2" /><polyline fill="none" points="32.5424,59.4441 27.3356,60.3119 8.678,70.7254" stroke="#ffe500" stroke-width="2" /><polyline fill="none" points="42.0881,49.0305 45.1254,49.8983 45.9932,48.1627 42.9559,47.7288 39.9186,49.4644 39.4847,54.2373 40.7864,55.1051 43.8237,54.6712 45.5593,50.7661" stroke="#ffa600" stroke-width="2" /><polyline fill="none" points="53.3695,52.9356 72.461,52.0678" stroke="#ff6700" stroke-width="2" /><polyline fill="none" points="50.7661,56.8407 55.539,57.2746 67.6881,61.1797" stroke="#ff2800" stroke-width="2" /><polyline fill="none" points="85.0441,61.1797 103.2678,61.1797 108.4746,59.878" stroke="#cc0000" stroke-width="2" /><polyline fill="none" points="41.6542,73.7627 41.6542,114.1153 40.7864,118.4542 37.7492,119.322" stroke="#7f0000" stroke-width="2" /></svg>