<?xml version="1.0" encoding="utf-8" ?>
<svg baseProfile="tiny" height="128" version="1.2" viewBox="0,0,128,128" width="128" xmlns="http://www.w3.org/2000/svg" xmlns:ev="http://www.w3.org/2001/xml-events" xmlns:xlink="http://www.w3.org/1999/xlink"><defs /><polyline fill="none" points="85.9119,47.7288 62.4814,46.861 55.9729,49.0305 47.7288,53.3695 37.7492,64.6508 34.278,71.5932 33.4102,97.1932 36.8814,102.8339 52.0678,113.6814 76.3661,113.6814 86.7797,110.2102 98.061,102.4 103.7017,96.7593 105.8712,91.5525 107.1729,73.3288 100.2305,62.4814 85.478,51.2 74.6305,44.2576" stroke="#00007f" stroke-width="2" /><polyline fill="none" points="90.2508,42.0881 93.722,29.939 98.061,24.2983 115.8508,11.2814 117.1525,18.6576 117.1525,80.2712" stroke="#0000d5" stroke-width="2" /><polyline fill="none" points="76.8,46.861 68.9898,43.3898 59.878,35.5797 38.6169,10.8475 32.1085,8.678 32.1085,63.3492 34.278,73.3288" stroke="#001cff" stroke-width="2" /><polyline fill="none" points="63.3492,64.6508 63.3492,64.6508" stroke="#006cff" stroke-width="2" /><polyline fill="none" points="84.6102,71.1593 84.6102,71.1593" stroke="#00b8ff" stroke-width="2" /><polyline fill="none" points="47.7288,63.3492 47.7288,63.3492" stroke="#1cffda" stroke-width="2" /><polyline fill="none" points="85.9119,70.2915 85.9119,70.2915" stroke="#5cff9a" stroke-width="2" /><polyline fill="none" points="61.1797,66.8203 61.1797,66.8203" stroke="#9aff5c" stroke-width="2" /><polyline fill="none" points="91.5525,68.122 86.7797,63.3492" stroke="#daff1c" stroke-width="2" /><polyline fill="none" points="73.3288,82.4407 73.3288,82.4407" stroke="#ffcb00" stroke-width="2" /><polyline fill="none" points="53.3695,64.6508 47.7288,61.1797 47.7288,59.878" stroke="#ff8500" stroke-width="2" /><polyline fill="none" points="68.9898,85.9119 68.9898,85.9119" stroke="#ff3b00" stroke-width="2" /><polyline fill="none" points="61.1797,85.9119 66.8203,88.0814 66.8203,79.4034 65.5186,78.9695" stroke="#d50000" stroke-width="2" /><polyline fill="none" points="62.4814,90.2508 61.1797,99.3627 49.0305,111.5119 35.1458,117.1525 19.5254,117.1525 8.678,105.0034 42.522,115.8508 56.8407,119.322 65.5186,118.0203 68.9898,109.3424 70.2915,96.7593 63.3492,90.2508 67.6881,100.2305 74.6305,108.0407 90.2508,114.9831 100.2305,93.722 100.2305,80.2712" stroke="#7f0000" stroke-width="2" /></svg>