<?xml version="1.0" encoding="utf-8" ?>
<svg baseProfile="tiny" height="128" version="1.2" viewBox="0,0,128,128" width="128" xmlns="http://www.w3.org/2000/svg" xmlns:ev="http://www.w3.org/2001/xml-events" xmlns:xlink="http://www.w3.org/1999/xlink"><defs /><polyline fill="none" points="33.9592,30.4762 33.9592,23.0748 36.1361,14.8027 48.7619,28.7347 56.1633,23.9456 65.7415,21.7687 75.3197,24.381 89.6871,31.3469 102.7483,22.6395 106.2313,43.5374 105.3605,49.1973 101.4422,57.9048 89.6871,66.6122 75.7551,72.2721 61.3878,73.1429 46.585,68.7891 37.0068,61.8231 31.7823,47.8912 32.2177,36.5714 33.9592,32.2177" stroke="#00007f" stroke-width="2" /><polyline fill="none" points="60.9524,57.9048 58.7755,62.2585 61.3878,65.3061 65.3061,64.8707 70.0952,61.3878 73.5782,64.8707 77.0612,64.4354 79.2381,62.6939" stroke="#0000de" stroke-width="2" /><polyline fill="none" points="70.5306,61.8231 69.6599,52.6803" stroke="#0028ff" stroke-width="2" /><polyline fill="none" points="69.2245,43.9728 69.2245,43.9728" stroke="#0080ff" stroke-width="2" /><polyline fill="none" points="85.7687,43.5374 86.6395,41.7959 89.2517,40.9252 93.1701,41.3605 94.4762,42.6667 94.9116,47.4558" stroke="#00d4ff" stroke-width="2" /><polyline fill="none" points="43.102,49.6327 41.7959,45.2789 43.102,41.7959 47.4558,40.4898 51.3741,41.3605" stroke="#36ffc0" stroke-width="2" /><polyline fill="none" points="47.8912,72.2721 35.2653,94.4762" stroke="#7cff79" stroke-width="2" /><polyline fill="none" points="94.4762,66.1769 101.4422,79.2381 117.551,117.9864" stroke="#c0ff36" stroke-width="2" /><polyline fill="none" points="38.3129,88.8163 30.4762,97.9592 18.7211,115.8095" stroke="#ffe500" stroke-width="2" /><polyline fill="none" points="39.619,87.9456 37.4422,82.2857 33.5238,77.0612 21.3333,65.3061 17.8503,56.5986 18.2857,50.068 20.898,42.6667 28.7347,35.7007 31.3469,31.3469 32.2177,26.1224 30.9116,18.2857 27.4286,12.1905 23.0748,9.1429 16.9796,8.7075 13.0612,11.7551 12.1905,13.4966 19.1565,20.0272 20.4626,24.381 10.0136,45.2789 8.7075,53.1156 9.5782,67.0476 13.932,81.415 20.0272,91.4286 29.6054,103.619" stroke="#ff9400" stroke-width="2" /><polyline fill="none" points="18.2857,33.0884 25.2517,37.0068" stroke="#ff4600" stroke-width="2" /><polyline fill="none" points="61.8231,88.381 57.9048,111.4558 60.0816,117.551 61.8231,119.2925 67.0476,117.1156 70.966,111.4558 74.449,101.8776 75.7551,88.8163" stroke="#de0000" stroke-width="2" /><polyline fill="none" points="79.6735,86.2041 75.3197,95.3469 73.1429,109.2789 77.0612,113.6327 80.9796,115.3741 86.2041,115.3741 88.8163,114.5034 94.9116,105.3605 96.6531,94.4762 96.2177,88.381 93.6054,83.5918" stroke="#7f0000" stroke-width="2" /></svg>