<?xml version="1.0" encoding="utf-8" ?>
<svg baseProfile="tiny" height="128" version="1.2" viewBox="0,0,128,128" width="128" xmlns="http://www.w3.org/2000/svg" xmlns:ev="http://www.w3.org/2001/xml-events" xmlns:xlink="http://www.w3.org/1999/xlink"><defs /><polyline fill="none" points="65.7415,30.4762 53.551,29.6054 48.3265,31.3469 41.3605,34.8299 29.1701,45.2789 23.0748,53.1156 16.1088,69.2245 14.8027,77.932 16.1088,91.8639 20.4626,98.8299 31.7823,111.0204 45.7143,117.551 70.5306,119.2925 80.9796,114.5034 89.6871,107.5374 97.0884,100.1361 101.0068,92.7347 104.0544,84.4626 104.0544,68.7891 99.7007,61.8231 88.8163,50.9388 61.3878,34.3946" stroke="#00007f" stroke-width="2" /><polyline fill="none" points="27.8639,58.7755 24.381,56.5986 23.0748,53.1156 16.9796,28.2993 16.5442,19.5918 24.381,20.4626 28.7347,22.6395 43.9728,34.8299 51.3741,38.7483" stroke="#0000cc" stroke-width="2" /><polyline fill="none" points="70.5306,34.3946 85.3333,11.3197 88.8163,8.7075 90.9932,11.7551 95.7823,61.3878" stroke="#0008ff" stroke-width="2" /><polyline fill="none" points="45.2789,63.1293 45.2789,63.1293" stroke="#004cff" stroke-width="2" /><polyline fill="none" points="73.1429,60.517 73.1429,60.517" stroke="#0090ff" stroke-width="2" /><polyline fill="none" points="38.7483,65.7415 40.0544,63.1293 45.2789,61.3878 45.7143,66.1769" stroke="#00d4ff" stroke-width="2" /><polyline fill="none" points="71.4014,67.483 68.7891,67.9184 68.7891,63.5646 73.1429,58.7755 74.0136,60.9524" stroke="#29ffcd" stroke-width="2" /><polyline fill="none" points="52.6803,88.8163 52.6803,86.2041 55.7279,83.5918 63.5646,82.2857" stroke="#5fff96" stroke-width="2" /><polyline fill="none" points="60.9524,83.1565 60.9524,96.6531 59.2109,100.5714 55.2925,104.4898 50.068,107.9728 44.4082,109.7143 36.1361,109.7143 35.2653,106.6667" stroke="#96ff5f" stroke-width="2" /><polyline fill="none" points="61.8231,90.5578 66.1769,100.1361 71.8367,103.619 82.2857,103.1837 88.381,100.1361" stroke="#cdff29" stroke-width="2" /><polyline fill="none" points="73.5782,86.2041 83.5918,74.449 89.6871,70.0952 101.0068,65.7415" stroke="#ffe500" stroke-width="2" /><polyline fill="none" points="79.6735,82.7211 89.2517,82.7211 102.7483,86.2041" stroke="#ffa600" stroke-width="2" /><polyline fill="none" points="80.1088,87.9456 97.5238,93.6054" stroke="#ff6700" stroke-width="2" /><polyline fill="none" points="37.0068,83.1565 26.1224,73.1429 20.4626,71.8367 8.7075,71.8367" stroke="#ff2800" stroke-width="2" /><polyline fill="none" points="47.0204,87.9456 27.8639,89.6871 16.9796,95.7823" stroke="#cc0000" stroke-width="2" /><polyline fill="none" points="44.8435,92.7347 31.3469,100.5714 25.2517,105.3605 19.1565,112.7619" stroke="#7f0000" stroke-width="2" /></svg>