<?xml version="1.0" encoding="utf-8" ?>
<svg baseProfile="tiny" height="128" version="1.2" viewBox="0,0,128,128" width="128" xmlns="http://www.w3.org/2000/svg" xmlns:ev="http://www.w3.org/2001/xml-events" xmlns:xlink="http://www.w3.org/1999/xlink"><defs /><polyline fill="none" points="46.861,46.861 52.9356,22.9966 58.5763,8.678 59.878,9.5458 63.7831,23.8644 66.8203,48.1627 82.4407,39.9186 95.8915,47.2949 100.6644,18.6576 105.0034,11.7153 106.739,12.5831 110.2102,22.1288 111.5119,49.8983" stroke="#00007f" stroke-width="2" /><polyline fill="none" points="46.861,49.8983 39.4847,55.539 35.1458,62.4814 33.4102,74.1966 34.278,81.139 40.3525,91.1186 48.5966,98.4949 60.7458,102.4 69.8576,103.2678 82.0068,100.6644 87.6475,98.4949 95.4576,93.722 106.739,82.4407 111.5119,72.0271 112.8136,58.1424 110.2102,50.7661 110.6441,47.2949" stroke="#0000fe" stroke-width="2" /><polyline fill="none" points="98.9288,69.4237 113.2475,65.9525 119.322,61.1797" stroke="#0060ff" stroke-width="2" /><polyline fill="none" points="95.8915,80.7051 112.8136,90.2508 118.4542,98.9288" stroke="#00d4ff" stroke-width="2" /><polyline fill="none" points="87.2136,88.9492 95.4576,102.8339 104.1356,111.078" stroke="#4cffaa" stroke-width="2" /><polyline fill="none" points="41.2203,64.6508 31.6746,59.0102 10.4136,40.3525" stroke="#aaff4c" stroke-width="2" /><polyline fill="none" points="38.6169,78.1017 29.5051,81.139 21.6949,85.478 10.8475,94.1559 8.678,98.4949" stroke="#ffe500" stroke-width="2" /><polyline fill="none" points="48.5966,88.0814 36.8814,95.0237 27.3356,107.1729" stroke="#ff7a00" stroke-width="2" /><polyline fill="none" points="58.5763,63.7831 59.4441,64.6508" stroke="#fe1200" stroke-width="2" /><polyline fill="none" points="79.4034,64.2169 81.5729,66.3864 83.7424,66.8203 84.6102,65.5186 82.4407,63.3492 83.3085,62.9153" stroke="#7f0000" stroke-width="2" /></svg>