<?xml version="1.0" encoding="utf-8" ?>
<svg baseProfile="tiny" height="128" version="1.2" viewBox="0,0,128,128" width="128" xmlns="http://www.w3.org/2000/svg" xmlns:ev="http://www.w3.org/2001/xml-events" xmlns:xlink="http://www.w3.org/1999/xlink"><defs /><polyline fill="none" points="11.7153,50.7661 12.1492,18.6576 22.5627,41.2203 28.6373,51.2 30.3729,49.8983" stroke="#00007f" stroke-width="2" /><polyline fill="none" points="32.1085,50.3322 46.4271,14.7525 49.4644,10.8475 55.539,8.678 57.2746,10.8475 59.4441,28.2034 65.9525,49.4644 67.2542,50.7661 83.3085,56.8407 91.1186,64.6508 93.2881,72.0271 93.2881,85.9119 88.9492,100.6644 79.8373,112.3797 68.122,118.4542 52.0678,119.322 42.9559,117.5864 28.2034,112.3797 19.0915,105.0034 13.0169,95.4576 8.678,82.4407 9.5458,69.4237 14.3186,56.4068" stroke="#0080ff" stroke-width="2" /><polyline fill="none" points="28.2034,71.5932 26.4678,75.4983 29.0712,77.2339 32.9763,77.2339 34.7119,75.4983 35.1458,71.5932 29.5051,70.7254 27.7695,72.0271" stroke="#7cff79" stroke-width="2" /><polyline fill="none" points="68.9898,69.8576 66.3864,73.7627 67.2542,76.3661 72.0271,78.1017 78.1017,75.9322 77.6678,71.5932 69.4237,70.2915" stroke="#ff9400" stroke-width="2" /><polyline fill="none" points="48.1627,79.8373 48.5966,83.3085 51.6339,85.478 56.4068,85.478 55.9729,82.0068 52.0678,81.5729 52.9356,79.8373 51.2,78.9695 49.4644,80.7051 51.2,82.0068 52.0678,81.139" stroke="#7f0000" stroke-width="2" /></svg>