<?xml version="1.0" encoding="utf-8" ?>
<svg baseProfile="tiny" height="128" version="1.2" viewBox="0,0,128,128" width="128" xmlns="http://www.w3.org/2000/svg" xmlns:ev="http://www.w3.org/2001/xml-events" xmlns:xlink="http://www.w3.org/1999/xlink"><defs /><polyline fill="none" points="41.2203,49.4644 35.1458,51.2 30.3729,55.1051 24.2983,64.2169 16.922,79.4034 14.7525,89.8169 14.7525,102.4 17.7898,111.078 22.5627,115.4169 29.939,118.4542 44.2576,119.322 55.9729,114.1153 61.6136,110.6441 68.5559,102.8339 75.0644,91.1186 77.2339,83.3085 78.1017,73.3288 76.8,62.4814 71.1593,52.0678 67.2542,48.1627 60.3119,43.8237 52.5017,42.522 42.9559,43.8237 36.4475,46.861" stroke="#00007f" stroke-width="2" /><polyline fill="none" points="26.9017,63.3492 23.8644,54.6712 29.5051,13.0169 31.2407,13.4508 32.5424,16.0542 38.6169,47.7288 41.2203,52.0678 46.4271,53.3695" stroke="#0000f1" stroke-width="2" /><polyline fill="none" points="59.878,47.7288 58.5763,40.7864 60.3119,32.1085 69.8576,8.678 69.8576,41.6542 72.0271,59.0102 75.0644,67.6881" stroke="#004cff" stroke-width="2" /><polyline fill="none" points="41.2203,88.9492 13.0169,94.5898" stroke="#00b0ff" stroke-width="2" /><polyline fill="none" points="43.3898,92.4203 8.678,105.0034" stroke="#29ffcd" stroke-width="2" /><polyline fill="none" points="38.6169,95.8915 29.939,98.9288 9.5458,111.078" stroke="#7cff79" stroke-width="2" /><polyline fill="none" points="45.5593,85.478 63.7831,94.5898 75.0644,97.6271" stroke="#cdff29" stroke-width="2" /><polyline fill="none" points="43.3898,91.5525 72.8949,100.6644" stroke="#ffc400" stroke-width="2" /><polyline fill="none" points="48.1627,97.1932 62.9153,104.5695 65.0847,102.4 65.0847,99.3627" stroke="#ff6700" stroke-width="2" /><polyline fill="none" points="42.0881,63.3492 41.2203,66.3864 42.9559,68.122 45.5593,66.3864 46.4271,63.3492 45.1254,62.4814 43.8237,65.0847" stroke="#f10700" stroke-width="2" /><polyline fill="none" points="62.9153,55.9729 58.5763,63.3492" stroke="#7f0000" stroke-width="2" /></svg>