<?xml version="1.0" encoding="utf-8" ?>
<svg baseProfile="tiny" height="128" version="1.2" viewBox="0,0,128,128" width="128" xmlns="http://www.w3.org/2000/svg" xmlns:ev="http://www.w3.org/2001/xml-events" xmlns:xlink="http://www.w3.org/1999/xlink"><defs /><polyline fill="none" points="45.9932,102.4 42.9559,101.9661 33.4102,91.5525 27.7695,78.9695 25.6,68.5559 25.1661,55.9729 26.0339,52.9356 29.5051,45.1254 35.5797,40.3525 17.7898,29.939 12.1492,21.261 8.678,9.9797 11.2814,8.678 15.1864,9.1119 28.2034,14.7525 39.0508,22.5627 47.2949,30.8068 53.8034,29.5051 64.6508,29.5051 79.8373,32.1085 91.5525,37.7492 94.5898,31.2407 101.0983,25.1661 118.0203,16.0542 119.322,19.9593 116.7186,38.1831 115.8508,70.2915 113.2475,79.8373 111.078,83.3085 101.9661,88.5153 89.3831,90.2508 51.6339,90.6847 45.9932,89.8169" stroke="#00007f" stroke-width="2" /><polyline fill="none" points="43.8237,56.4068 52.5017,59.4441 59.0102,59.0102 60.7458,56.4068 59.4441,53.8034 51.2,52.0678" stroke="#7cff79" stroke-width="2" /><polyline fill="none" points="49.0305,50.7661 49.8983,53.3695 50.7661,50.7661 52.9356,56.8407" stroke="#7f0000" stroke-width="2" /></svg>