<?xml version="1.0" encoding="utf-8" ?>
<svg baseProfile="tiny" height="128" version="1.2" viewBox="0,0,128,128" width="128" xmlns="http://www.w3.org/2000/svg" xmlns:ev="http://www.w3.org/2001/xml-events" xmlns:xlink="http://www.w3.org/1999/xlink"><defs /><polyline fill="none" points="11.7551,55.7279 11.3197,73.1429 14.8027,90.9932 20.0272,102.7483 27.8639,111.4558 33.0884,114.5034 42.6667,118.8571 48.3265,119.2925 60.0816,119.2925 65.7415,117.9864 80.9796,110.1497 91.4286,98.8299 97.9592,84.4626 98.8299,57.9048 94.0408,43.9728 89.2517,37.4422 84.0272,34.8299 85.3333,20.4626 83.1565,13.0612 79.6735,9.1429 77.932,8.7075 73.5782,14.3673 66.6122,29.1701 59.6463,27.8639 49.1973,32.2177 41.7959,37.8776 16.9796,18.7211 9.5782,15.6735 8.7075,30.9116 11.7551,44.8435 15.2381,50.5034" stroke="#00007f" stroke-width="2" /><polyline fill="none" points="27.4286,44.4082 24.8163,41.7959 20.4626,33.0884 28.2993,37.0068 32.2177,37.4422" stroke="#0000e8" stroke-width="2" /><polyline fill="none" points="79.2381,33.0884 80.1088,26.5578 81.415,24.381 83.1565,24.381 84.0272,29.1701 81.8503,36.5714" stroke="#0038ff" stroke-width="2" /><polyline fill="none" points="48.7619,67.0476 46.585,67.483 43.5374,74.0136 44.4082,79.6735 49.6327,78.3673 57.034,72.2721 54.8571,69.2245 47.0204,65.7415" stroke="#0094ff" stroke-width="2" /><polyline fill="none" points="47.8912,86.2041 38.7483,89.6871 32.2177,89.6871 24.8163,87.0748 23.5102,84.0272" stroke="#0cf4ea" stroke-width="2" /><polyline fill="none" points="52.2449,77.4966 58.7755,80.5442 68.7891,81.415 71.4014,80.5442 74.8844,76.6259" stroke="#56ffa0" stroke-width="2" /><polyline fill="none" points="69.2245,56.1633 72.7075,54.8571" stroke="#a0ff56" stroke-width="2" /><polyline fill="none" points="78.8027,63.1293 86.2041,60.9524" stroke="#eaff0c" stroke-width="2" /><polyline fill="none" points="33.0884,74.0136 29.1701,73.5782 23.5102,75.7551" stroke="#ffaa00" stroke-width="2" /><polyline fill="none" points="26.9932,82.2857 26.9932,82.2857" stroke="#ff5500" stroke-width="2" /><polyline fill="none" points="46.585,47.8912 45.7143,50.068" stroke="#e80000" stroke-width="2" /><polyline fill="none" points="59.6463,40.4898 60.0816,45.2789" stroke="#7f0000" stroke-width="2" /></svg>