<?xml version="1.0" encoding="utf-8" ?>
<svg baseProfile="tiny" height="128" version="1.2" viewBox="0,0,128,128" width="128" xmlns="http://www.w3.org/2000/svg" xmlns:ev="http://www.w3.org/2001/xml-events" xmlns:xlink="http://www.w3.org/1999/xlink"><defs /><polyline fill="none" points="22.1288,104.1356 13.4508,101.5322 9.9797,97.1932 8.678,94.1559 8.678,83.3085 14.3186,72.0271 18.6576,66.3864 41.6542,49.8983 62.9153,42.9559 83.3085,46.4271 97.6271,56.8407 101.0983,73.7627 92.8542,91.9864 85.9119,99.7966 68.5559,113.2475 48.5966,118.4542 39.0508,119.322 25.6,117.1525 17.3559,108.0407 16.4881,97.1932 19.0915,86.7797" stroke="#00007f" stroke-width="2" /><polyline fill="none" points="20.8271,59.4441 14.7525,46.861 12.1492,38.6169 11.7153,19.5254 16.922,22.1288 26.0339,39.9186 33.8441,51.2 41.2203,60.3119" stroke="#00d4ff" stroke-width="2" /><polyline fill="none" points="70.7254,51.2 70.7254,42.0881 76.3661,27.3356 83.3085,17.3559 90.2508,10.8475" stroke="#ffe500" stroke-width="2" /><polyline fill="none" points="103.2678,8.678 104.1356,30.3729 96.7593,50.3322 92.8542,56.8407" stroke="#7f0000" stroke-width="2" /></svg>