<?xml version="1.0" encoding="utf-8" ?>
<svg baseProfile="tiny" height="128" version="1.2" viewBox="0,0,128,128" width="128" xmlns="http://www.w3.org/2000/svg" xmlns:ev="http://www.w3.org/2001/xml-events" xmlns:xlink="http://www.w3.org/1999/xlink"><defs /><polyline fill="none" points="60.517,46.585 49.1973,45.7143 37.4422,48.3265 18.7211,57.4694 10.449,66.1769 8.7075,70.0952 9.5782,81.8503 13.0612,95.3469 17.8503,102.3129 22.6395,107.9728 32.6531,115.8095 50.5034,119.2925 63.1293,115.3741 74.449,107.9728 86.6395,85.7687 91.8639,73.1429 91.8639,64.4354 88.381,57.9048 78.8027,49.6327 64.0,43.102" stroke="#00007f" stroke-width="2" /><polyline fill="none" points="17.415,47.8912 16.5442,37.4422 18.2857,20.4626 20.898,10.8844 23.9456,12.1905 30.4762,27.4286 39.1837,56.1633 41.7959,60.9524" stroke="#0080ff" stroke-width="2" /><polyline fill="none" points="72.7075,39.1837 81.415,28.2993 102.3129,8.7075 101.8776,13.0612 87.0748,53.9864 80.5442,81.8503" stroke="#7cff79" stroke-width="2" /><polyline fill="none" points="38.3129,70.5306 38.3129,70.5306" stroke="#ff9400" stroke-width="2" /><polyline fill="none" points="77.932,75.7551 77.932,75.7551" stroke="#7f0000" stroke-width="2" /></svg>