<?xml version="1.0" encoding="utf-8" ?>
<svg baseProfile="tiny" height="128" version="1.2" viewBox="0,0,128,128" width="128" xmlns="http://www.w3.org/2000/svg" xmlns:ev="http://www.w3.org/2001/xml-events" xmlns:xlink="http://www.w3.org/1999/xlink"><defs /><polyline fill="none" points="28.6373,24.7322 36.4475,16.4881 45.1254,11.2814 62.4814,8.678 68.5559,9.1119 71.1593,11.2814 75.9322,17.3559 78.1017,22.5627" stroke="#00007f" stroke-width="2" /><polyline fill="none" points="29.939,27.7695 17.3559,13.4508 9.5458,8.678 8.678,10.8475 11.7153,19.5254 12.5831,29.5051 17.3559,39.4847" stroke="#0000de" stroke-width="2" /><polyline fill="none" points="78.5356,23.4305 89.3831,15.1864 100.6644,10.8475 94.1559,25.1661" stroke="#0028ff" stroke-width="2" /><polyline fill="none" points="17.3559,42.522 30.8068,58.1424 45.5593,68.5559 53.8034,70.2915 63.7831,69.8576 78.5356,65.0847 90.2508,55.539 96.3254,42.9559 96.3254,30.8068 94.5898,29.5051" stroke="#0080ff" stroke-width="2" /><polyline fill="none" points="39.0508,31.6746 42.0881,34.7119 46.861,33.8441 42.9559,32.5424 42.522,36.4475" stroke="#00d4ff" stroke-width="2" /><polyline fill="none" points="67.6881,36.4475 69.4237,36.8814 68.9898,34.7119" stroke="#36ffc0" stroke-width="2" /><polyline fill="none" points="58.5763,52.5017 81.5729,49.8983 119.322,41.2203" stroke="#7cff79" stroke-width="2" /><polyline fill="none" points="64.6508,56.8407 78.5356,58.1424 111.9458,59.0102" stroke="#c0ff36" stroke-width="2" /><polyline fill="none" points="63.3492,57.7085 68.122,62.4814 89.3831,73.7627" stroke="#ffe500" stroke-width="2" /><polyline fill="none" points="58.5763,55.539 30.8068,55.9729 15.1864,57.7085" stroke="#ff9400" stroke-width="2" /><polyline fill="none" points="64.6508,59.0102 52.0678,60.3119 11.2814,71.5932" stroke="#ff4600" stroke-width="2" /><polyline fill="none" points="61.6136,62.0475 45.9932,65.5186 14.3186,82.0068" stroke="#de0000" stroke-width="2" /><polyline fill="none" points="56.8407,69.4237 56.8407,69.4237" stroke="#7f0000" stroke-width="2" /></svg>