<?xml version="1.0" encoding="utf-8" ?>
<svg baseProfile="tiny" height="128" version="1.2" viewBox="0,0,128,128" width="128" xmlns="http://www.w3.org/2000/svg" xmlns:ev="http://www.w3.org/2001/xml-events" xmlns:xlink="http://www.w3.org/1999/xlink"><defs /><polyline fill="none" points="94.5898,32.1085 88.0814,45.9932 86.7797,62.4814 88.5153,64.6508 96.3254,65.9525 99.7966,64.6508 112.8136,51.6339 114.9831,46.861 114.1153,40.3525 107.6068,32.1085 100.6644,29.939 92.4203,29.939" stroke="#00007f" stroke-width="2" /><polyline fill="none" points="91.9864,31.6746 89.3831,24.2983 88.5153,10.4136 90.6847,10.8475 92.4203,15.1864 95.0237,29.0712" stroke="#0000ff" stroke-width="2" /><polyline fill="none" points="105.0034,26.4678 108.0407,17.3559 119.322,8.678 119.322,11.7153 115.8508,19.0915 110.6441,27.3356" stroke="#0080ff" stroke-width="2" /><polyline fill="none" points="96.7593,37.7492 96.7593,37.7492" stroke="#15ffe1" stroke-width="2" /><polyline fill="none" points="99.7966,36.8814 100.2305,36.8814" stroke="#7cff79" stroke-width="2" /><polyline fill="none" points="96.3254,39.4847 96.3254,39.4847" stroke="#e4ff12" stroke-width="2" /><polyline fill="none" points="94.1559,38.1831 94.1559,40.3525" stroke="#ff9400" stroke-width="2" /><polyline fill="none" points="105.0034,49.8983 106.739,43.8237 104.5695,43.3898 102.8339,45.1254" stroke="#ff1d00" stroke-width="2" /><polyline fill="none" points="85.9119,53.3695 79.8373,51.6339 32.9763,51.2 26.0339,52.5017 22.1288,54.6712 14.3186,55.1051 9.1119,59.878 8.678,62.0475 8.678,69.4237 13.0169,75.4983 15.1864,76.8 20.8271,76.8 30.8068,75.4983" stroke="#7f0000" stroke-width="2" /></svg>