<?xml version="1.0" encoding="utf-8" ?>
<svg baseProfile="tiny" height="128" version="1.2" viewBox="0,0,128,128" width="128" xmlns="http://www.w3.org/2000/svg" xmlns:ev="http://www.w3.org/2001/xml-events" xmlns:xlink="http://www.w3.org/1999/xlink"><defs /><polyline fill="none" points="37.3153,44.2576 40.7864,62.0475 50.7661,74.6305 62.9153,82.0068 84.6102,85.478 91.9864,83.3085 99.3627,77.6678 105.8712,68.9898 109.7763,60.7458 110.2102,49.8983 102.8339,39.0508 94.1559,32.1085 83.7424,27.3356 75.4983,24.2983 67.2542,23.8644 58.5763,26.4678 53.8034,30.3729 48.5966,43.8237" stroke="#00007f" stroke-width="2" /><polyline fill="none" points="46.4271,41.2203 43.3898,41.2203 42.522,42.522" stroke="#0010ff" stroke-width="2" /><polyline fill="none" points="42.522,45.5593 42.9559,42.0881 40.7864,37.3153 26.9017,12.5831 45.1254,19.5254 58.5763,27.3356" stroke="#00a4ff" stroke-width="2" /><polyline fill="none" points="93.722,31.2407 96.7593,29.939 117.5864,8.678 118.8881,10.4136 107.6068,39.9186" stroke="#3fffb7" stroke-width="2" /><polyline fill="none" points="62.0475,54.6712 33.4102,55.9729 8.678,60.3119" stroke="#b7ff3f" stroke-width="2" /><polyline fill="none" points="55.9729,59.878 15.6203,70.7254" stroke="#ffb900" stroke-width="2" /><polyline fill="none" points="72.0271,60.7458 63.7831,62.9153 30.8068,80.7051" stroke="#ff3000" stroke-width="2" /><polyline fill="none" points="68.9898,55.9729 98.061,53.3695 119.322,56.4068" stroke="#7f0000" stroke-width="2" /></svg>