<?xml version="1.0" encoding="utf-8" ?>
<svg baseProfile="tiny" height="128" version="1.2" viewBox="0,0,128,128" width="128" xmlns="http://www.w3.org/2000/svg" xmlns:ev="http://www.w3.org/2001/xml-events" xmlns:xlink="http://www.w3.org/1999/xlink"><defs /><polyline fill="none" points="78.5356,26.0339 65.0847,20.8271 43.8237,19.9593 31.2407,24.7322 26.9017,30.3729 24.2983,36.8814 22.5627,44.2576 22.9966,52.5017 28.6373,64.6508 39.0508,76.3661 50.7661,85.0441 58.5763,88.5153 67.6881,90.2508 80.7051,89.3831 88.0814,84.1763 90.2508,77.2339 90.2508,58.1424 86.7797,46.861 80.7051,31.6746 73.7627,23.4305 69.8576,22.5627" stroke="#00007f" stroke-width="2" /><polyline fill="none" points="40.3525,39.4847 39.9186,43.8237 43.3898,46.4271 47.7288,45.9932 48.1627,43.8237 44.2576,40.3525 40.7864,39.4847" stroke="#0000f1" stroke-width="2" /><polyline fill="none" points="59.0102,40.7864 59.878,46.861 62.0475,49.8983 68.5559,52.9356 72.461,53.3695 73.7627,51.2 73.7627,46.4271 70.2915,41.2203 57.7085,40.3525" stroke="#004cff" stroke-width="2" /><polyline fill="none" points="53.8034,60.7458 49.8983,64.6508 49.4644,66.8203 51.6339,68.5559 59.0102,68.122 58.5763,66.3864 54.6712,64.2169" stroke="#00b0ff" stroke-width="2" /><polyline fill="none" points="56.4068,64.6508 83.3085,65.0847 108.0407,62.9153" stroke="#29ffcd" stroke-width="2" /><polyline fill="none" points="51.2,68.9898 42.9559,66.8203 16.922,63.7831" stroke="#7cff79" stroke-width="2" /><polyline fill="none" points="21.6949,32.1085 23.8644,26.0339 24.2983,11.7153 32.5424,15.6203" stroke="#cdff29" stroke-width="2" /><polyline fill="none" points="59.4441,22.5627 65.0847,13.8847 71.5932,8.678 73.7627,25.1661" stroke="#ffc400" stroke-width="2" /><polyline fill="none" points="59.0102,69.4237 98.061,68.9898 119.322,72.0271" stroke="#ff6700" stroke-width="2" /><polyline fill="none" points="51.2,69.8576 43.8237,70.7254 32.1085,74.6305 8.678,87.2136" stroke="#f10700" stroke-width="2" /><polyline fill="none" points="56.4068,71.1593 92.8542,85.9119" stroke="#7f0000" stroke-width="2" /></svg>