<?xml version="1.0" encoding="utf-8" ?>
<svg baseProfile="tiny" height="128" version="1.2" viewBox="0,0,128,128" width="128" xmlns="http://www.w3.org/2000/svg" xmlns:ev="http://www.w3.org/2001/xml-events" xmlns:xlink="http://www.w3.org/1999/xlink"><defs /><polyline fill="none" points="34.7119,48.1627 29.939,51.6339 23.4305,59.878 17.7898,71.5932 16.0542,86.3458 16.4881,95.4576 20.8271,108.4746 26.0339,114.1153 32.1085,117.5864 45.9932,119.322 54.2373,117.1525 61.6136,113.2475 69.8576,106.739 76.8,98.4949 82.4407,85.9119 82.8746,78.5356 77.2339,69.4237 69.4237,63.7831 55.9729,59.878 40.3525,59.4441 34.278,61.6136 29.5051,64.6508 21.261,72.461" stroke="#00007f" stroke-width="2" /><polyline fill="none" points="18.6576,67.6881 19.5254,58.5763 17.3559,44.2576 9.9797,17.7898 8.678,11.7153 9.9797,9.5458 13.8847,8.678 26.9017,32.9763 41.6542,53.3695 43.3898,55.1051 43.3898,52.9356" stroke="#0010ff" stroke-width="2" /><polyline fill="none" points="61.6136,60.3119 70.2915,45.9932 97.1932,13.8847 98.9288,15.6203 98.4949,22.1288 94.5898,35.5797 83.7424,61.1797 80.2712,66.8203" stroke="#00a4ff" stroke-width="2" /><polyline fill="none" points="29.5051,83.7424 31.2407,81.139 35.1458,78.9695 44.6915,77.6678 47.2949,77.6678 48.1627,78.9695" stroke="#3fffb7" stroke-width="2" /><polyline fill="none" points="62.0475,74.6305 63.7831,74.6305 71.1593,82.8746 66.8203,86.3458" stroke="#b7ff3f" stroke-width="2" /><polyline fill="none" points="28.2034,88.9492 32.1085,89.8169 36.8814,88.0814 45.9932,82.4407 48.1627,79.8373" stroke="#ffb900" stroke-width="2" /><polyline fill="none" points="62.9153,74.6305 66.3864,85.0441" stroke="#ff3000" stroke-width="2" /><polyline fill="none" points="46.4271,91.5525 49.0305,100.2305" stroke="#7f0000" stroke-width="2" /></svg>