<?xml version="1.0" encoding="utf-8" ?>
<svg baseProfile="tiny" height="128" version="1.2" viewBox="0,0,128,128" width="128" xmlns="http://www.w3.org/2000/svg" xmlns:ev="http://www.w3.org/2001/xml-events" xmlns:xlink="http://www.w3.org/1999/xlink"><defs /><polyline fill="none" points="42.0881,23.8644 82.0068,17.7898 88.5153,19.9593 97.6271,25.6 108.4746,14.7525 116.7186,8.678 119.322,23.4305 119.322,32.1085 114.1153,32.5424" stroke="#00007f" stroke-width="2" /><polyline fill="none" points="41.2203,23.8644 8.678,13.8847 31.2407,39.9186 31.2407,36.4475" stroke="#0000d1" stroke-width="2" /><polyline fill="none" points="29.0712,30.8068 27.3356,24.7322 29.939,24.7322 35.1458,25.1661 45.1254,30.3729" stroke="#0010ff" stroke-width="2" /><polyline fill="none" points="103.2678,24.7322 110.6441,21.261 110.2102,25.6 108.0407,26.4678" stroke="#0058ff" stroke-width="2" /><polyline fill="none" points="49.8983,38.1831 71.1593,36.4475 75.4983,37.7492 75.0644,41.2203 71.5932,43.8237 63.3492,43.8237 48.5966,36.4475 52.0678,35.5797" stroke="#00a4ff" stroke-width="2" /><polyline fill="none" points="84.6102,40.7864 85.9119,39.0508 91.1186,39.0508 101.5322,39.0508 101.9661,40.3525 96.3254,43.3898 83.3085,42.9559" stroke="#05ecf1" stroke-width="2" /><polyline fill="none" points="81.5729,51.6339 76.3661,49.8983 81.5729,49.8983 77.6678,49.8983 79.4034,53.3695 79.4034,59.4441 78.1017,61.1797 68.9898,61.6136 68.122,60.3119 71.1593,59.878" stroke="#3fffb7" stroke-width="2" /><polyline fill="none" points="78.1017,49.8983 80.2712,57.2746 88.9492,59.0102" stroke="#7cff79" stroke-width="2" /><polyline fill="none" points="65.9525,50.3322 45.5593,50.7661 35.1458,52.5017 33.4102,53.3695 37.3153,54.2373" stroke="#b7ff3f" stroke-width="2" /><polyline fill="none" points="55.9729,53.3695 46.4271,59.878" stroke="#f1fc05" stroke-width="2" /><polyline fill="none" points="62.9153,59.878 54.6712,67.6881 58.1424,67.2542" stroke="#ffb900" stroke-width="2" /><polyline fill="none" points="88.9492,49.8983 103.7017,52.0678" stroke="#ff7300" stroke-width="2" /><polyline fill="none" points="89.3831,55.9729 89.8169,58.5763 92.8542,60.3119 115.8508,65.9525" stroke="#ff3000" stroke-width="2" /><polyline fill="none" points="96.7593,70.7254 108.4746,75.0644" stroke="#d10000" stroke-width="2" /><polyline fill="none" points="31.6746,41.6542 30.3729,42.9559 29.939,50.7661 36.8814,59.878 44.6915,65.5186 52.9356,68.9898 66.8203,72.0271 97.1932,75.4983" stroke="#7f0000" stroke-width="2" /></svg>