<?xml version="1.0" encoding="utf-8" ?>
<svg baseProfile="tiny" height="128" version="1.2" viewBox="0,0,128,128" width="128" xmlns="http://www.w3.org/2000/svg" xmlns:ev="http://www.w3.org/2001/xml-events" xmlns:xlink="http://www.w3.org/1999/xlink"><defs /><polyline fill="none" points="11.7551,43.9728 8.7075,23.0748 9.5782,8.7075 19.5918,15.2381 30.0408,30.9116 35.2653,36.5714 51.8095,31.7823 67.9184,32.2177 78.8027,37.0068 87.9456,46.1497 104.4898,20.4626 105.7959,22.2041 106.2313,26.1224 102.3129,82.2857 97.5238,96.2177 87.5102,110.585 73.5782,117.551 66.6122,119.2925 55.7279,119.2925 43.102,114.9388 34.3946,108.4082 25.2517,96.2177 15.6735,63.5646 11.7551,35.7007" stroke="#00007f" stroke-width="2" /><polyline fill="none" points="38.7483,76.6259 46.585,70.0952 56.5986,67.9184 71.4014,68.3537 80.1088,70.966 84.898,73.5782 90.1224,83.5918 89.2517,92.2993 83.1565,100.5714 73.5782,104.9252 61.3878,104.0544 48.3265,101.4422 38.7483,94.9116 34.8299,86.2041 36.1361,77.932 42.6667,70.5306 50.9388,66.6122" stroke="#00d4ff" stroke-width="2" /><polyline fill="none" points="51.8095,77.0612 55.7279,72.7075 65.7415,70.0952 67.0476,70.966 67.0476,73.5782 64.0,77.0612 59.2109,78.8027 56.1633,77.4966 56.5986,73.1429 60.517,70.0952 63.1293,71.8367 62.2585,75.7551 59.2109,76.6259 62.6939,74.8844 63.1293,76.1905 61.3878,78.3673 54.8571,80.1088 54.4218,77.0612 62.2585,71.8367 62.6939,74.449 60.0816,78.8027" stroke="#ffe500" stroke-width="2" /><polyline fill="none" points="58.7755,78.3673 60.9524,85.3333 60.517,95.3469 55.2925,95.7823 44.8435,93.6054" stroke="#7f0000" stroke-width="2" /></svg>