<?xml version="1.0" encoding="utf-8" ?>
<svg baseProfile="tiny" height="128" version="1.2" viewBox="0,0,128,128" width="128" xmlns="http://www.w3.org/2000/svg" xmlns:ev="http://www.w3.org/2001/xml-events" xmlns:xlink="http://www.w3.org/1999/xlink"><defs /><polyline fill="none" points="55.9729,40.7864 55.9729,41.2203" stroke="#00007f" stroke-width="2" /><polyline fill="none" points="38.1831,42.9559 38.1831,42.9559" stroke="#0000d1" stroke-width="2" /><polyline fill="none" points="32.1085,40.7864 32.1085,40.7864" stroke="#0010ff" stroke-width="2" /><polyline fill="none" points="43.3898,54.6712 43.3898,54.6712" stroke="#0058ff" stroke-width="2" /><polyline fill="none" points="30.3729,60.3119 33.8441,67.2542 39.4847,68.122 44.6915,63.7831 43.8237,55.1051 46.861,66.8203 52.0678,73.3288 55.9729,72.0271 58.1424,68.5559 61.6136,62.0475 63.7831,53.8034" stroke="#00a4ff" stroke-width="2" /><polyline fill="none" points="14.7525,30.8068 16.922,8.678 34.7119,18.2237 39.0508,22.5627 49.0305,20.8271 57.7085,22.5627 68.5559,11.2814 80.2712,44.6915 84.1763,61.1797 83.7424,69.4237 81.5729,75.0644 70.7254,86.7797 58.5763,91.9864 39.9186,95.0237 31.2407,93.2881 21.6949,86.7797 14.3186,77.2339 13.0169,68.9898 19.5254,38.6169" stroke="#05ecf1" stroke-width="2" /><polyline fill="none" points="88.5153,34.7119 86.7797,45.5593 86.7797,69.8576 91.9864,78.5356 97.1932,81.5729 103.2678,81.5729 108.4746,77.2339 108.9085,64.2169 105.8712,50.3322 102.8339,42.9559 98.061,39.4847 85.0441,39.9186" stroke="#3fffb7" stroke-width="2" /><polyline fill="none" points="74.6305,11.2814 71.5932,17.7898 71.5932,23.4305 72.8949,26.0339 78.9695,26.4678 81.5729,24.7322 84.1763,18.6576 83.7424,13.0169 80.7051,9.1119" stroke="#7cff79" stroke-width="2" /><polyline fill="none" points="94.1559,15.1864 92.8542,17.7898 93.2881,22.5627 97.6271,27.3356 101.5322,27.3356 102.8339,16.4881 101.5322,11.7153 98.9288,9.9797" stroke="#b7ff3f" stroke-width="2" /><polyline fill="none" points="109.3424,22.5627 106.739,26.0339 105.8712,32.5424 107.1729,36.4475 110.6441,39.4847 112.3797,36.4475 112.3797,30.3729 108.0407,22.9966" stroke="#f1fc05" stroke-width="2" /><polyline fill="none" points="15.6203,30.8068 12.5831,40.7864 12.5831,75.4983 14.7525,81.5729 25.1661,94.1559" stroke="#ffb900" stroke-width="2" /><polyline fill="none" points="8.678,100.6644 17.7898,119.322 11.2814,100.6644 11.7153,98.4949 22.9966,90.6847 27.7695,105.0034 31.6746,110.6441" stroke="#ff7300" stroke-width="2" /><polyline fill="none" points="34.278,85.478 41.6542,105.8712" stroke="#ff3000" stroke-width="2" /><polyline fill="none" points="59.0102,104.1356 56.4068,88.9492 56.4068,76.3661 70.7254,86.7797" stroke="#d10000" stroke-width="2" /><polyline fill="none" points="55.9729,87.2136 65.9525,81.139" stroke="#7f0000" stroke-width="2" /></svg>