<?xml version="1.0" encoding="utf-8" ?>
<svg baseProfile="tiny" height="128" version="1.2" viewBox="0,0,128,128" width="128" xmlns="http://www.w3.org/2000/svg" xmlns:ev="http://www.w3.org/2001/xml-events" xmlns:xlink="http://www.w3.org/1999/xlink"><defs /><polyline fill="none" points="29.5051,48.5966 19.9593,51.2 16.4881,54.6712 8.678,81.139 9.9797,94.5898 15.1864,107.1729 23.8644,113.2475 39.9186,118.0203 47.2949,119.322 59.878,118.8881 72.461,109.7763 83.3085,90.6847 85.478,83.3085 85.9119,64.2169 85.478,61.6136 82.8746,59.0102 78.5356,57.7085 65.9525,49.0305 26.4678,43.3898" stroke="#00007f" stroke-width="2" /><polyline fill="none" points="19.5254,35.5797 19.5254,32.9763 20.8271,35.1458 21.6949,51.6339 21.6949,25.1661 23.4305,22.1288 32.5424,35.1458 36.8814,37.7492" stroke="#004cff" stroke-width="2" /><polyline fill="none" points="55.1051,45.9932 58.1424,40.7864 69.4237,30.3729 105.8712,8.678 106.739,10.8475 106.739,34.278 104.1356,55.1051 93.2881,63.3492 83.7424,75.4983 68.9898,82.4407" stroke="#29ffcd" stroke-width="2" /><polyline fill="none" points="35.5797,72.0271 35.5797,74.1966 37.3153,71.5932 36.8814,79.8373 39.4847,81.5729 42.522,81.5729 45.1254,78.1017 45.5593,74.6305 42.9559,73.3288 39.4847,77.6678" stroke="#cdff29" stroke-width="2" /><polyline fill="none" points="50.7661,71.5932 50.3322,77.6678 50.7661,75.0644 51.2,76.8" stroke="#ff6700" stroke-width="2" /><polyline fill="none" points="32.1085,92.8542 34.7119,94.5898 35.1458,92.8542" stroke="#7f0000" stroke-width="2" /></svg>