<?xml version="1.0" encoding="utf-8" ?>
<svg baseProfile="tiny" height="128" version="1.2" viewBox="0,0,128,128" width="128" xmlns="http://www.w3.org/2000/svg" xmlns:ev="http://www.w3.org/2001/xml-events" xmlns:xlink="http://www.w3.org/1999/xlink"><defs /><polyline fill="none" points="29.8815,33.4495 21.8537,35.6794 11.1498,52.6272 8.9199,60.6551 9.3659,72.6969 13.3798,77.6028 22.7456,83.8467 34.3415,86.5226 49.9512,84.7387 64.669,65.115 74.4808,41.0314 66.899,24.9756 60.2091,19.1777 45.4913,19.1777 23.6376,30.7735" stroke="#00007f" stroke-width="2" /><polyline fill="none" points="18.7317,36.1254 12.4878,15.6098 8.9199,8.9199 29.8815,23.6376 26.7596,24.0836" stroke="#0028ff" stroke-width="2" /><polyline fill="none" points="65.561,20.5157 75.8188,18.7317 95.8885,17.8397 82.0627,33.0035 69.1289,38.3554" stroke="#00d4ff" stroke-width="2" /><polyline fill="none" points="30.7735,57.0871 35.2334,60.2091 41.0314,59.3171 31.2195,57.5331 39.2474,56.1951 32.1115,55.3031" stroke="#7cff79" stroke-width="2" /><polyline fill="none" points="47.7213,60.2091 53.9652,61.101 61.993,63.777 119.0801,92.7666" stroke="#ffe500" stroke-width="2" /><polyline fill="none" points="52.1812,66.453 55.3031,67.3449 65.561,75.3728 88.7526,99.9024" stroke="#ff4600" stroke-width="2" /><polyline fill="none" points="49.5052,72.6969 49.5052,72.6969" stroke="#7f0000" stroke-width="2" /></svg>