<?xml version="1.0" encoding="utf-8" ?>
<svg baseProfile="tiny" height="128" version="1.2" viewBox="0,0,128,128" width="128" xmlns="http://www.w3.org/2000/svg" xmlns:ev="http://www.w3.org/2001/xml-events" xmlns:xlink="http://www.w3.org/1999/xlink"><defs /><polyline fill="none" points="43.8237,26.0339 42.9559,23.8644 36.0136,23.4305 21.261,29.5051 10.8475,39.0508 8.678,49.0305 10.4136,52.0678 16.0542,55.1051 25.1661,55.9729 38.6169,51.6339 49.8983,43.3898 54.2373,36.4475 54.2373,30.3729 48.5966,21.261" stroke="#00007f" stroke-width="2" /><polyline fill="none" points="40.3525,24.2983 32.5424,15.6203 32.1085,9.9797 33.4102,8.678 36.0136,9.5458 43.3898,19.9593 46.4271,21.6949 48.1627,21.6949 61.1797,10.8475 66.3864,9.5458 66.3864,12.5831 61.6136,22.9966 55.9729,31.2407 50.7661,35.1458" stroke="#004cff" stroke-width="2" /><polyline fill="none" points="26.9017,39.9186 25.1661,38.1831 27.7695,36.4475" stroke="#29ffcd" stroke-width="2" /><polyline fill="none" points="39.9186,35.5797 38.6169,36.4475 42.522,36.4475" stroke="#cdff29" stroke-width="2" /><polyline fill="none" points="16.0542,35.5797 16.4881,48.1627 26.0339,48.5966 30.3729,46.4271" stroke="#ff6700" stroke-width="2" /><polyline fill="none" points="53.3695,39.9186 53.3695,38.6169 66.3864,38.6169 98.9288,39.4847 116.7186,45.5593 119.322,49.0305 118.8881,51.6339 114.9831,54.6712 105.4373,57.7085 84.1763,59.4441 64.6508,59.0102 44.6915,52.0678" stroke="#7f0000" stroke-width="2" /></svg>