<?xml version="1.0" encoding="utf-8" ?>
<svg baseProfile="tiny" height="128" version="1.2" viewBox="0,0,128,128" width="128" xmlns="http://www.w3.org/2000/svg" xmlns:ev="http://www.w3.org/2001/xml-events" xmlns:xlink="http://www.w3.org/1999/xlink"><defs /><polyline fill="none" points="105.0034,50.7661 85.478,50.7661 40.3525,47.2949 29.5051,47.2949 22.1288,50.7661 15.1864,59.0102 10.8475,68.5559 8.678,84.6102 15.6203,96.3254 23.4305,102.8339 38.6169,107.6068 58.1424,109.7763 91.1186,106.3051 108.9085,101.9661 112.3797,99.3627 113.6814,95.0237 116.2847,76.8 112.3797,66.3864 105.4373,61.1797 98.4949,48.5966" stroke="#00007f" stroke-width="2" /><polyline fill="none" points="46.861,47.2949 32.5424,14.3186 25.1661,8.678 22.1288,8.678 17.7898,19.0915 16.922,34.7119 11.2814,52.0678 12.1492,59.878" stroke="#0028ff" stroke-width="2" /><polyline fill="none" points="81.139,48.1627 100.6644,21.261 104.1356,18.2237 114.5492,16.4881 118.0203,19.5254 119.322,30.8068 119.322,39.0508 115.8508,59.878" stroke="#00d4ff" stroke-width="2" /><polyline fill="none" points="62.4814,75.9322 58.5763,82.4407 64.6508,75.9322 70.7254,86.3458 67.2542,88.0814 60.3119,86.7797 56.4068,84.1763" stroke="#7cff79" stroke-width="2" /><polyline fill="none" points="52.0678,75.0644 41.2203,74.1966 35.5797,72.461" stroke="#ffe500" stroke-width="2" /><polyline fill="none" points="41.6542,80.7051 36.4475,82.0068 32.1085,81.139" stroke="#ff4600" stroke-width="2" /><polyline fill="none" points="72.8949,79.8373 88.9492,79.4034" stroke="#7f0000" stroke-width="2" /></svg>