<?xml version="1.0" encoding="utf-8" ?>
<svg baseProfile="tiny" height="128" version="1.2" viewBox="0,0,128,128" width="128" xmlns="http://www.w3.org/2000/svg" xmlns:ev="http://www.w3.org/2001/xml-events" xmlns:xlink="http://www.w3.org/1999/xlink"><defs /><polyline fill="none" points="49.4644,38.1831 43.3898,42.9559 40.3525,47.2949 31.6746,66.8203 29.939,79.8373 33.4102,91.5525 36.4475,97.6271 43.8237,105.4373 46.861,106.3051 69.4237,104.1356 83.7424,100.2305 88.0814,95.8915 91.1186,88.9492 94.1559,68.9898 93.722,53.8034 90.2508,43.3898 87.2136,38.1831 78.1017,29.0712 71.1593,26.4678 62.4814,25.6 55.1051,26.4678 48.1627,29.5051 36.0136,42.9559" stroke="#00007f" stroke-width="2" /><polyline fill="none" points="32.1085,76.8 27.7695,19.9593 31.2407,11.2814 34.278,8.678 51.2,27.3356 62.4814,29.0712" stroke="#0000d5" stroke-width="2" /><polyline fill="none" points="85.0441,38.6169 108.9085,11.2814 115.8508,15.1864 118.0203,17.7898 119.322,22.5627 113.6814,37.3153 90.2508,74.1966" stroke="#001cff" stroke-width="2" /><polyline fill="none" points="55.1051,82.8746 52.9356,91.1186 49.8983,92.8542 46.4271,93.2881" stroke="#006cff" stroke-width="2" /><polyline fill="none" points="53.8034,84.6102 56.4068,88.0814 63.3492,91.5525 66.8203,90.6847 72.8949,87.2136" stroke="#00b8ff" stroke-width="2" /><polyline fill="none" points="46.861,57.2746 46.861,57.2746" stroke="#1cffda" stroke-width="2" /><polyline fill="none" points="44.6915,60.3119 45.1254,59.878" stroke="#5cff9a" stroke-width="2" /><polyline fill="none" points="68.122,59.4441 68.5559,59.0102" stroke="#9aff5c" stroke-width="2" /><polyline fill="none" points="81.5729,81.5729 89.8169,77.6678 110.2102,72.0271" stroke="#daff1c" stroke-width="2" /><polyline fill="none" points="88.0814,89.3831 89.3831,91.9864 97.1932,96.3254 109.3424,98.061" stroke="#ffcb00" stroke-width="2" /><polyline fill="none" points="75.4983,94.1559 84.1763,107.6068 94.1559,114.5492" stroke="#ff8500" stroke-width="2" /><polyline fill="none" points="33.4102,74.1966 8.678,78.1017" stroke="#ff3b00" stroke-width="2" /><polyline fill="none" points="31.6746,86.7797 9.1119,97.6271" stroke="#d50000" stroke-width="2" /><polyline fill="none" points="32.1085,89.8169 20.3932,117.1525" stroke="#7f0000" stroke-width="2" /></svg>