<?xml version="1.0" encoding="utf-8" ?>
<svg baseProfile="tiny" height="128" version="1.2" viewBox="0,0,128,128" width="128" xmlns="http://www.w3.org/2000/svg" xmlns:ev="http://www.w3.org/2001/xml-events" xmlns:xlink="http://www.w3.org/1999/xlink"><defs /><polyline fill="none" points="52.0678,32.1085 55.1051,30.3729 65.5186,30.3729 72.461,33.4102 79.8373,39.0508 84.6102,45.5593 86.3458,49.4644 86.3458,58.5763 84.1763,64.2169 75.9322,73.3288 65.0847,78.9695 45.9932,81.139 39.9186,76.8 36.4475,72.0271 32.1085,61.6136 30.8068,43.3898 33.4102,38.6169 38.1831,34.278 45.9932,30.8068 53.8034,29.5051" stroke="#00007f" stroke-width="2" /><polyline fill="none" points="66.8203,29.939 91.5525,8.678 72.0271,40.3525" stroke="#0000ff" stroke-width="2" /><polyline fill="none" points="39.0508,32.9763 24.7322,23.4305 14.3186,19.9593 27.7695,35.1458 33.4102,44.2576" stroke="#0080ff" stroke-width="2" /><polyline fill="none" points="58.5763,46.861 62.0475,44.2576 66.3864,42.9559 68.122,44.2576 68.122,47.7288 55.1051,49.8983" stroke="#15ffe1" stroke-width="2" /><polyline fill="none" points="40.3525,52.5017 43.8237,50.3322 52.5017,49.8983 39.0508,55.1051" stroke="#7cff79" stroke-width="2" /><polyline fill="none" points="58.5763,56.4068 61.6136,58.1424 70.2915,58.1424 84.6102,52.5017 101.9661,42.9559 110.6441,39.4847 119.322,38.1831" stroke="#e4ff12" stroke-width="2" /><polyline fill="none" points="62.0475,64.2169 82.0068,64.6508 116.2847,59.0102" stroke="#ff9400" stroke-width="2" /><polyline fill="none" points="63.3492,62.9153 118.8881,62.0475" stroke="#ff1d00" stroke-width="2" /><polyline fill="none" points="58.1424,60.3119 48.1627,62.4814 32.9763,68.5559 8.678,85.0441" stroke="#7f0000" stroke-width="2" /></svg>