<?xml version="1.0" encoding="utf-8" ?>
<svg baseProfile="tiny" height="128" version="1.2" viewBox="0,0,128,128" width="128" xmlns="http://www.w3.org/2000/svg" xmlns:ev="http://www.w3.org/2001/xml-events" xmlns:xlink="http://www.w3.org/1999/xlink"><defs /><polyline fill="none" points="60.3119,29.5051 57.7085,28.6373 51.6339,29.0712 45.1254,32.1085 39.0508,36.4475 31.2407,48.5966 29.5051,55.539 31.6746,68.9898 34.7119,75.0644 42.9559,83.7424 48.5966,86.3458 59.878,88.9492 69.4237,86.7797 74.1966,84.1763 82.4407,74.6305 88.5153,61.1797 88.9492,50.3322 82.4407,39.0508 72.0271,31.6746 58.1424,28.2034" stroke="#00007f" stroke-width="2" /><polyline fill="none" points="65.9525,34.278 90.2508,16.0542 107.6068,9.1119 109.7763,8.678 94.5898,33.4102 91.9864,40.3525 92.8542,44.6915 86.7797,43.8237 65.0847,34.278 68.9898,33.8441" stroke="#0000e8" stroke-width="2" /><polyline fill="none" points="38.1831,37.7492 31.6746,20.8271 25.6,11.2814 24.2983,15.6203 23.4305,51.2 45.5593,55.539 47.7288,55.539 46.861,54.6712" stroke="#0038ff" stroke-width="2" /><polyline fill="none" points="49.8983,42.0881 47.7288,42.9559 46.4271,48.5966 49.0305,58.1424 50.3322,59.4441 52.5017,59.4441 55.1051,56.4068 57.7085,50.7661 58.1424,45.1254 56.4068,41.2203 54.6712,39.4847 52.0678,40.3525 51.2,43.3898 52.9356,45.1254" stroke="#0094ff" stroke-width="2" /><polyline fill="none" points="73.3288,48.1627 71.1593,49.8983 70.7254,52.9356 71.5932,56.8407 73.7627,58.5763 76.8,55.9729 78.1017,50.7661 76.8,48.5966 72.8949,47.7288" stroke="#0cf4ea" stroke-width="2" /><polyline fill="none" points="45.5593,68.9898 29.5051,68.9898 11.2814,73.7627 8.678,76.3661" stroke="#56ffa0" stroke-width="2" /><polyline fill="none" points="46.861,75.9322 38.6169,78.9695 27.7695,85.9119 19.0915,92.8542 17.7898,95.4576" stroke="#a0ff56" stroke-width="2" /><polyline fill="none" points="55.539,83.7424 42.522,103.7017" stroke="#eaff0c" stroke-width="2" /><polyline fill="none" points="79.8373,74.6305 111.9458,77.6678 119.322,80.7051" stroke="#ffaa00" stroke-width="2" /><polyline fill="none" points="78.9695,77.6678 88.0814,98.061 93.2881,104.1356" stroke="#ff5500" stroke-width="2" /><polyline fill="none" points="82.8746,70.7254 116.2847,71.5932 114.9831,72.8949" stroke="#e80000" stroke-width="2" /><polyline fill="none" points="52.9356,74.6305 59.878,81.139 66.8203,83.3085 72.0271,80.7051 74.6305,73.7627" stroke="#7f0000" stroke-width="2" /></svg>