<?xml version="1.0" encoding="utf-8" ?>
<svg baseProfile="tiny" height="128" version="1.2" viewBox="0,0,128,128" width="128" xmlns="http://www.w3.org/2000/svg" xmlns:ev="http://www.w3.org/2001/xml-events" xmlns:xlink="http://www.w3.org/1999/xlink"><defs /><polyline fill="none" points="68.5559,29.939 65.0847,30.8068 56.4068,36.4475 49.0305,42.9559 40.7864,55.1051 39.9186,64.6508 45.1254,78.1017 55.539,91.9864 63.3492,97.1932 76.3661,100.2305 98.9288,98.9288 105.8712,96.3254 108.9085,94.1559 113.6814,81.139 113.6814,68.122 111.5119,53.8034 108.4746,45.5593 105.8712,42.522 72.0271,34.278 61.1797,29.5051" stroke="#00007f" stroke-width="2" /><polyline fill="none" points="48.1627,43.3898 46.861,35.5797 47.7288,27.7695 50.7661,18.6576 56.4068,8.678 65.0847,22.9966 71.1593,38.1831 72.8949,38.6169" stroke="#0000f1" stroke-width="2" /><polyline fill="none" points="87.6475,34.278 98.9288,26.4678 117.5864,9.1119 119.322,16.0542 118.0203,25.6 108.0407,53.3695" stroke="#004cff" stroke-width="2" /><polyline fill="none" points="64.2169,56.8407 60.7458,62.0475 63.3492,60.3119 64.2169,55.9729 62.0475,61.1797 62.9153,58.1424 66.3864,56.4068" stroke="#00b0ff" stroke-width="2" /><polyline fill="none" points="94.5898,59.878 94.1559,64.6508 95.0237,61.1797 94.1559,60.7458" stroke="#29ffcd" stroke-width="2" /><polyline fill="none" points="82.4407,71.5932 83.3085,72.461 84.1763,69.4237" stroke="#7cff79" stroke-width="2" /><polyline fill="none" points="84.1763,69.4237 82.4407,77.6678 75.4983,86.3458 69.4237,86.7797 65.0847,82.4407 65.0847,77.6678 68.5559,75.9322" stroke="#cdff29" stroke-width="2" /><polyline fill="none" points="80.7051,72.461 78.1017,80.7051 81.139,86.3458 83.3085,87.2136 86.3458,85.9119 89.3831,82.4407 89.3831,80.7051" stroke="#ffc400" stroke-width="2" /><polyline fill="none" points="54.2373,35.1458 60.3119,23.4305 62.4814,36.8814 64.2169,36.4475" stroke="#ff6700" stroke-width="2" /><polyline fill="none" points="101.0983,36.4475 111.9458,31.2407 104.5695,42.0881" stroke="#f10700" stroke-width="2" /><polyline fill="none" points="58.1424,93.722 18.6576,86.7797 10.4136,88.0814 8.678,90.6847 9.5458,94.5898 13.0169,97.6271 47.2949,108.4746 62.0475,110.2102 82.8746,108.4746 98.4949,112.3797 98.4949,107.6068 95.4576,104.5695 79.4034,98.4949" stroke="#7f0000" stroke-width="2" /></svg>