<?xml version="1.0" encoding="utf-8" ?>
<svg baseProfile="tiny" height="128" version="1.2" viewBox="0,0,128,128" width="128" xmlns="http://www.w3.org/2000/svg" xmlns:ev="http://www.w3.org/2001/xml-events" xmlns:xlink="http://www.w3.org/1999/xlink"><defs /><polyline fill="none" points="47.2949,26.9017 53.8034,24.2983 65.9525,23.8644 67.6881,13.4508 70.7254,8.678 73.7627,9.5458 83.3085,27.7695 86.3458,44.6915 81.139,53.8034 73.7627,58.5763 64.2169,60.7458 52.5017,60.7458 41.6542,57.7085 32.5424,51.6339 21.261,29.0712 18.2237,18.6576 18.6576,10.8475 20.3932,9.1119 24.7322,9.5458 34.7119,13.4508 44.6915,20.3932 49.0305,26.0339" stroke="#00007f" stroke-width="2" /><polyline fill="none" points="46.861,37.3153 21.261,39.9186 9.9797,45.5593" stroke="#0000fe" stroke-width="2" /><polyline fill="none" points="34.278,42.9559 8.678,53.8034" stroke="#0060ff" stroke-width="2" /><polyline fill="none" points="36.8814,53.3695 14.3186,56.8407" stroke="#00d4ff" stroke-width="2" /><polyline fill="none" points="80.7051,33.8441 86.7797,30.8068 95.4576,28.2034 114.1153,26.4678" stroke="#4cffaa" stroke-width="2" /><polyline fill="none" points="85.478,36.4475 119.322,35.5797" stroke="#aaff4c" stroke-width="2" /><polyline fill="none" points="84.1763,42.9559 103.7017,44.6915" stroke="#ffe500" stroke-width="2" /><polyline fill="none" points="52.5017,61.6136 52.0678,77.6678 45.5593,98.061 47.7288,103.7017 58.1424,111.078 67.6881,114.1153 78.5356,115.8508 99.3627,115.4169 110.2102,111.9458 113.2475,108.9085 114.9831,99.3627 113.2475,88.0814 107.6068,79.4034 84.1763,65.5186 78.1017,55.9729" stroke="#ff7a00" stroke-width="2" /><polyline fill="none" points="68.122,65.5186 69.4237,74.6305 68.5559,96.7593 69.8576,100.6644 74.6305,97.6271 75.9322,93.722 75.9322,86.3458 72.8949,76.8 72.461,70.2915" stroke="#fe1200" stroke-width="2" /><polyline fill="none" points="75.4983,68.5559 78.5356,95.8915 81.5729,99.3627 85.0441,100.6644 89.3831,95.8915 91.5525,88.5153 90.6847,81.139 85.0441,70.2915" stroke="#7f0000" stroke-width="2" /></svg>