<?xml version="1.0" encoding="utf-8" ?>
<svg baseProfile="tiny" height="128" version="1.2" viewBox="0,0,128,128" width="128" xmlns="http://www.w3.org/2000/svg" xmlns:ev="http://www.w3.org/2001/xml-events" xmlns:xlink="http://www.w3.org/1999/xlink"><defs /><polyline fill="none" points="18.6576,23.4305 19.5254,8.678 32.9763,26.9017 37.7492,31.6746 70.2915,29.939 73.3288,29.0712 88.5153,9.5458 92.8542,29.939 95.0237,55.539 91.5525,62.9153 83.7424,74.6305 77.6678,81.139 71.1593,85.478 49.8983,77.6678 40.3525,68.5559 30.8068,57.2746 22.9966,45.9932 20.3932,39.0508 19.5254,27.3356" stroke="#00007f" stroke-width="2" /><polyline fill="none" points="31.6746,60.3119 13.8847,62.0475" stroke="#0010ff" stroke-width="2" /><polyline fill="none" points="33.8441,66.3864 8.678,78.5356" stroke="#00a4ff" stroke-width="2" /><polyline fill="none" points="42.0881,77.6678 36.8814,78.1017 21.6949,83.7424" stroke="#3fffb7" stroke-width="2" /><polyline fill="none" points="80.2712,63.3492 111.5119,63.3492 119.322,62.0475" stroke="#b7ff3f" stroke-width="2" /><polyline fill="none" points="77.2339,72.461 107.6068,73.7627" stroke="#ffb900" stroke-width="2" /><polyline fill="none" points="81.5729,53.8034 117.1525,47.2949" stroke="#ff3000" stroke-width="2" /><polyline fill="none" points="60.7458,61.6136 75.4983,59.878" stroke="#7f0000" stroke-width="2" /></svg>