<?xml version="1.0" encoding="utf-8" ?>
<svg baseProfile="tiny" height="128" version="1.2" viewBox="0,0,128,128" width="128" xmlns="http://www.w3.org/2000/svg" xmlns:ev="http://www.w3.org/2001/xml-events" xmlns:xlink="http://www.w3.org/1999/xlink"><defs /><polyline fill="none" points="21.6949,41.2203 24.2983,55.9729" stroke="#00007f" stroke-width="2" /><polyline fill="none" points="24.2983,56.8407 23.8644,72.0271" stroke="#0000ff" stroke-width="2" /><polyline fill="none" points="23.8644,72.8949 27.7695,84.6102 34.7119,91.5525 46.4271,97.6271 52.5017,99.3627 65.5186,99.3627 76.8,89.8169 87.2136,71.1593 91.9864,56.4068 92.8542,47.7288 90.6847,40.3525" stroke="#0080ff" stroke-width="2" /><polyline fill="none" points="20.3932,40.3525 22.9966,31.6746 20.8271,13.0169 22.5627,13.0169 36.4475,24.2983 44.2576,25.6 53.3695,21.6949 73.3288,8.678 75.9322,12.1492 81.5729,26.0339 84.6102,30.3729 93.722,38.1831 95.4576,42.0881" stroke="#15ffe1" stroke-width="2" /><polyline fill="none" points="58.5763,62.0475 66.8203,61.1797 108.0407,47.7288" stroke="#7cff79" stroke-width="2" /><polyline fill="none" points="73.7627,66.8203 77.6678,69.8576 85.9119,71.1593 119.322,71.5932" stroke="#e4ff12" stroke-width="2" /><polyline fill="none" points="45.1254,66.8203 33.4102,60.3119 8.678,52.5017" stroke="#ff9400" stroke-width="2" /><polyline fill="none" points="41.2203,70.7254 14.7525,87.2136" stroke="#ff1d00" stroke-width="2" /><polyline fill="none" points="53.3695,65.0847 49.8983,69.8576 49.8983,74.1966 53.8034,75.9322 61.1797,75.0644 62.4814,70.2915 61.1797,67.6881 58.5763,65.5186 56.4068,65.9525 53.8034,68.9898 53.3695,71.5932 54.2373,72.8949 57.2746,72.8949 58.1424,70.7254 56.8407,69.8576" stroke="#7f0000" stroke-width="2" /></svg>