<?xml version="1.0" encoding="utf-8" ?>
<svg baseProfile="tiny" height="128" version="1.2" viewBox="0,0,128,128" width="128" xmlns="http://www.w3.org/2000/svg" xmlns:ev="http://www.w3.org/2001/xml-events" xmlns:xlink="http://www.w3.org/1999/xlink"><defs /><polyline fill="none" points="71.5932,28.2034 66.8203,26.4678 56.4068,26.0339 51.6339,26.9017 46.861,29.5051 38.6169,42.0881 36.0136,51.2 34.7119,59.4441 34.7119,75.0644 37.3153,81.139 41.2203,86.3458 46.4271,89.3831 52.0678,91.9864 57.7085,92.4203 70.7254,92.4203 78.1017,91.1186 84.6102,86.7797 90.2508,80.2712 95.8915,65.5186 95.8915,48.1627 91.5525,39.4847 82.4407,27.3356 75.0644,24.2983 66.3864,23.8644 62.0475,27.7695" stroke="#00007f" stroke-width="2" /><polyline fill="none" points="65.0847,56.8407 64.2169,65.9525 66.8203,67.2542 71.1593,61.1797 71.5932,58.5763 68.9898,57.2746 66.8203,58.5763 66.8203,60.7458 74.6305,60.7458 111.078,48.5966 119.322,47.7288" stroke="#0000ff" stroke-width="2" /><polyline fill="none" points="71.1593,68.9898 115.4169,66.8203" stroke="#0080ff" stroke-width="2" /><polyline fill="none" points="64.2169,59.0102 61.1797,57.7085 39.4847,53.8034 9.5458,54.2373" stroke="#15ffe1" stroke-width="2" /><polyline fill="none" points="58.5763,63.3492 36.0136,67.6881 18.6576,75.4983 8.678,82.8746" stroke="#7cff79" stroke-width="2" /><polyline fill="none" points="50.3322,37.7492 50.3322,40.7864 54.2373,41.2203 60.3119,39.0508 61.6136,36.4475 57.2746,35.1458 53.8034,35.5797 52.9356,37.7492" stroke="#e4ff12" stroke-width="2" /><polyline fill="none" points="76.3661,38.1831 74.6305,40.7864 74.6305,46.861 78.1017,45.5593 79.8373,39.9186 76.3661,39.0508" stroke="#ff9400" stroke-width="2" /><polyline fill="none" points="36.8814,34.7119 36.4475,10.4136 39.9186,8.678 61.1797,26.4678" stroke="#ff1d00" stroke-width="2" /><polyline fill="none" points="66.8203,26.9017 83.7424,16.4881 91.1186,15.6203 92.8542,22.1288 86.7797,43.8237" stroke="#7f0000" stroke-width="2" /></svg>