<?xml version="1.0" encoding="utf-8" ?>
<svg baseProfile="tiny" height="128" version="1.2" viewBox="0,0,128,128" width="128" xmlns="http://www.w3.org/2000/svg" xmlns:ev="http://www.w3.org/2001/xml-events" xmlns:xlink="http://www.w3.org/1999/xlink"><defs /><polyline fill="none" points="44.9966,55.9181 37.1331,51.1126 33.2014,45.4334 30.5802,38.4437 28.8328,22.7167 27.5222,18.3481 22.7167,12.2321 37.57,15.727 46.744,27.5222 58.5392,28.3959 64.6553,27.5222 71.6451,20.0956 89.1195,8.7372 81.6928,26.2116 78.198,46.3072 73.8294,53.2969 64.2184,58.9761 40.1911,59.413" stroke="#00007f" stroke-width="2" /><polyline fill="none" points="69.4608,38.0068 88.2457,36.2594 119.2628,37.57" stroke="#0028ff" stroke-width="2" /><polyline fill="none" points="67.2765,40.1911 80.3823,44.5597 115.7679,60.7235" stroke="#00d4ff" stroke-width="2" /><polyline fill="none" points="67.7133,40.1911 89.1195,65.9659" stroke="#7cff79" stroke-width="2" /><polyline fill="none" points="43.686,34.9488 8.7372,34.5119" stroke="#ffe500" stroke-width="2" /><polyline fill="none" points="41.0648,37.1331 9.1741,48.9283" stroke="#ff4600" stroke-width="2" /><polyline fill="none" points="38.4437,41.0648 15.2901,54.1706" stroke="#7f0000" stroke-width="2" /></svg>