<?xml version="1.0" encoding="utf-8" ?>
<svg baseProfile="tiny" height="128" version="1.2" viewBox="0,0,128,128" width="128" xmlns="http://www.w3.org/2000/svg" xmlns:ev="http://www.w3.org/2001/xml-events" xmlns:xlink="http://www.w3.org/1999/xlink"><defs /><polyline fill="none" points="28.2034,67.6881 28.2034,54.2373 33.4102,46.4271 39.0508,42.0881 49.4644,36.0136 55.1051,35.1458 72.461,32.5424 80.7051,33.4102 86.7797,40.7864 92.4203,65.5186 91.5525,80.7051 82.8746,94.1559 69.4237,101.5322 53.8034,101.9661 45.9932,98.9288 34.7119,91.9864 31.2407,87.6475 29.5051,82.0068 30.8068,68.9898" stroke="#00007f" stroke-width="2" /><polyline fill="none" points="34.7119,67.6881 15.1864,68.9898 8.678,72.8949" stroke="#0000d1" stroke-width="2" /><polyline fill="none" points="14.7525,97.1932 31.6746,85.0441 45.9932,78.1017" stroke="#0010ff" stroke-width="2" /><polyline fill="none" points="23.8644,119.322 38.6169,105.0034 51.2,96.3254" stroke="#0058ff" stroke-width="2" /><polyline fill="none" points="87.2136,60.7458 114.9831,71.5932" stroke="#00a4ff" stroke-width="2" /><polyline fill="none" points="81.139,73.3288 85.0441,73.7627 91.5525,76.8 104.1356,84.6102" stroke="#05ecf1" stroke-width="2" /><polyline fill="none" points="79.4034,92.4203 88.0814,94.1559 104.5695,100.6644" stroke="#3fffb7" stroke-width="2" /><polyline fill="none" points="52.5017,61.1797 50.7661,56.8407 51.6339,52.0678" stroke="#7cff79" stroke-width="2" /><polyline fill="none" points="71.5932,59.4441 71.1593,50.3322 71.5932,47.7288 72.8949,47.2949" stroke="#b7ff3f" stroke-width="2" /><polyline fill="none" points="32.5424,43.8237 29.939,40.3525 27.7695,31.6746 28.2034,18.6576 31.2407,16.0542 35.1458,15.6203 38.1831,16.922 49.4644,34.7119" stroke="#f1fc05" stroke-width="2" /><polyline fill="none" points="67.6881,36.0136 80.2712,19.0915 82.4407,20.8271 84.6102,44.6915" stroke="#ffb900" stroke-width="2" /><polyline fill="none" points="53.3695,80.2712 53.8034,84.6102 56.8407,87.2136 64.2169,87.6475 66.8203,85.478" stroke="#ff7300" stroke-width="2" /><polyline fill="none" points="53.8034,77.2339 57.2746,75.9322 66.8203,75.9322 66.8203,82.0068 63.3492,84.1763" stroke="#ff3000" stroke-width="2" /><polyline fill="none" points="27.7695,8.678 48.5966,27.3356" stroke="#d10000" stroke-width="2" /><polyline fill="none" points="66.8203,32.9763 67.2542,30.3729 82.8746,11.2814 84.6102,37.7492" stroke="#7f0000" stroke-width="2" /></svg>