<?xml version="1.0" encoding="utf-8" ?>
<svg baseProfile="tiny" height="128" version="1.2" viewBox="0,0,128,128" width="128" xmlns="http://www.w3.org/2000/svg" xmlns:ev="http://www.w3.org/2001/xml-events" xmlns:xlink="http://www.w3.org/1999/xlink"><defs /><polyline fill="none" points="54.6712,16.0542 46.4271,16.0542 39.4847,18.2237 30.8068,23.4305 24.2983,29.5051 23.4305,39.9186 24.7322,43.3898 29.0712,49.4644 34.7119,52.0678 45.9932,52.0678 53.8034,49.8983 59.4441,45.9932 62.4814,41.6542 63.7831,38.1831 63.3492,30.8068 57.2746,16.922 55.1051,16.0542" stroke="#00007f" stroke-width="2" /><polyline fill="none" points="55.1051,16.0542 59.4441,8.678 60.7458,8.678 59.4441,18.2237" stroke="#0000d1" stroke-width="2" /><polyline fill="none" points="36.4475,19.0915 35.1458,17.7898 33.8441,9.1119 38.6169,16.922" stroke="#0010ff" stroke-width="2" /><polyline fill="none" points="38.6169,26.0339 49.8983,28.2034 49.0305,32.1085 41.6542,35.1458 39.0508,26.9017" stroke="#0058ff" stroke-width="2" /><polyline fill="none" points="39.9186,21.261 42.0881,22.9966 42.522,21.6949 40.7864,21.6949" stroke="#00a4ff" stroke-width="2" /><polyline fill="none" points="50.7661,22.1288 49.4644,22.9966 48.5966,21.6949 50.7661,21.6949" stroke="#05ecf1" stroke-width="2" /><polyline fill="none" points="42.522,35.5797 40.7864,40.7864 37.7492,42.9559 32.1085,41.2203" stroke="#3fffb7" stroke-width="2" /><polyline fill="none" points="40.3525,42.522 52.9356,45.1254" stroke="#7cff79" stroke-width="2" /><polyline fill="none" points="64.2169,39.9186 69.8576,44.6915 72.0271,49.4644" stroke="#b7ff3f" stroke-width="2" /><polyline fill="none" points="55.539,45.1254 57.2746,46.4271 60.3119,59.0102" stroke="#f1fc05" stroke-width="2" /><polyline fill="none" points="48.5966,52.5017 49.0305,62.9153" stroke="#ffb900" stroke-width="2" /><polyline fill="none" points="24.7322,37.7492 8.678,37.7492" stroke="#ff7300" stroke-width="2" /><polyline fill="none" points="25.6,43.8237 13.0169,45.5593" stroke="#ff3000" stroke-width="2" /><polyline fill="none" points="29.0712,47.7288 22.5627,51.2 17.7898,60.7458" stroke="#d10000" stroke-width="2" /><polyline fill="none" points="60.3119,43.8237 71.1593,47.7288 111.5119,49.0305 118.0203,51.2 119.322,53.8034" stroke="#7f0000" stroke-width="2" /></svg>