<?xml version="1.0" encoding="utf-8" ?>
<svg baseProfile="tiny" height="128" version="1.2" viewBox="0,0,128,128" width="128" xmlns="http://www.w3.org/2000/svg" xmlns:ev="http://www.w3.org/2001/xml-events" xmlns:xlink="http://www.w3.org/1999/xlink"><defs /><polyline fill="none" points="20.3932,68.9898 15.6203,68.9898 12.1492,72.8949 8.678,83.3085 9.5458,89.3831 13.4508,100.6644 22.9966,112.3797 29.0712,117.1525 42.522,119.322 72.461,115.4169 80.7051,111.078 84.1763,105.8712 85.478,100.6644 84.6102,90.2508 74.6305,72.8949 65.9525,63.3492 61.6136,60.7458 55.9729,59.878 43.3898,62.0475" stroke="#00007f" stroke-width="2" /><polyline fill="none" points="8.678,69.8576 8.678,61.1797 19.5254,8.678 24.2983,9.5458 29.0712,24.2983 36.8814,39.4847 36.8814,52.5017" stroke="#0000fe" stroke-width="2" /><polyline fill="none" points="51.2,58.1424 72.8949,45.5593 83.3085,37.7492 91.1186,29.5051 95.8915,14.3186 95.8915,68.122 92.8542,69.8576" stroke="#0060ff" stroke-width="2" /><polyline fill="none" points="62.9153,87.2136 65.0847,83.3085 62.9153,82.4407" stroke="#00d4ff" stroke-width="2" /><polyline fill="none" points="34.7119,76.8 32.9763,80.7051 31.6746,77.2339 29.0712,78.5356" stroke="#4cffaa" stroke-width="2" /><polyline fill="none" points="43.8237,99.7966 47.2949,97.1932" stroke="#aaff4c" stroke-width="2" /><polyline fill="none" points="46.4271,97.1932 47.2949,101.0983" stroke="#ffe500" stroke-width="2" /><polyline fill="none" points="47.2949,100.6644 61.1797,97.1932 88.5153,94.1559 108.9085,94.1559 114.5492,91.9864" stroke="#ff7a00" stroke-width="2" /><polyline fill="none" points="52.5017,99.7966 62.0475,103.7017 93.2881,109.7763" stroke="#fe1200" stroke-width="2" /><polyline fill="none" points="45.5593,101.9661 67.6881,115.4169" stroke="#7f0000" stroke-width="2" /></svg>