<?xml version="1.0" encoding="utf-8" ?>
<svg baseProfile="tiny" height="128" version="1.2" viewBox="0,0,128,128" width="128" xmlns="http://www.w3.org/2000/svg" xmlns:ev="http://www.w3.org/2001/xml-events" xmlns:xlink="http://www.w3.org/1999/xlink"><defs /><polyline fill="none" points="75.3197,32.2177 75.3197,14.3673 77.0612,13.0612 86.2041,22.2041 89.6871,28.2993" stroke="#00007f" stroke-width="2" /><polyline fill="none" points="93.6054,30.9116 91.8639,30.4762 93.1701,28.7347 101.0068,25.6871" stroke="#0000ff" stroke-width="2" /><polyline fill="none" points="107.102,23.9456 105.7959,23.0748 105.3605,11.3197 107.102,8.7075 108.8435,9.1429 113.1973,16.5442 114.5034,26.5578" stroke="#0080ff" stroke-width="2" /><polyline fill="none" points="85.3333,38.3129 87.0748,44.8435 95.3469,50.9388 106.2313,56.1633 111.8912,56.1633 116.2449,53.9864 119.2925,48.3265 119.2925,30.0408" stroke="#15ffe1" stroke-width="2" /><polyline fill="none" points="100.5714,53.9864 97.5238,72.2721" stroke="#7cff79" stroke-width="2" /><polyline fill="none" points="114.5034,62.2585 107.9728,69.6599" stroke="#e4ff12" stroke-width="2" /><polyline fill="none" points="95.7823,73.1429 91.4286,71.4014 79.2381,71.4014 65.3061,68.7891 57.4694,68.7891 51.3741,71.4014 45.2789,77.932" stroke="#ff9400" stroke-width="2" /><polyline fill="none" points="102.3129,78.8027 101.0068,86.2041 92.2993,95.7823 67.0476,103.1837 60.517,103.1837 56.1633,101.4422" stroke="#ff1d00" stroke-width="2" /><polyline fill="none" points="28.2993,88.381 22.6395,85.3333 22.2041,69.6599 14.8027,61.8231 15.6735,64.0 8.7075,76.1905" stroke="#7f0000" stroke-width="2" /></svg>