<?xml version="1.0" encoding="utf-8" ?>
<svg baseProfile="tiny" height="128" version="1.2" viewBox="0,0,128,128" width="128" xmlns="http://www.w3.org/2000/svg" xmlns:ev="http://www.w3.org/2001/xml-events" xmlns:xlink="http://www.w3.org/1999/xlink"><defs /><polyline fill="none" points="29.939,28.6373 29.0712,26.9017 20.3932,26.4678 15.6203,29.0712 10.4136,37.7492 8.678,49.4644 10.8475,54.6712 17.7898,61.6136 31.6746,66.8203 35.5797,66.3864 43.8237,59.4441 47.7288,52.0678 47.7288,48.1627 43.3898,38.6169 36.4475,31.6746 31.2407,28.6373" stroke="#00007f" stroke-width="2" /><polyline fill="none" points="28.6373,26.4678 35.1458,8.678 39.0508,25.6 39.4847,36.8814" stroke="#0000d1" stroke-width="2" /><polyline fill="none" points="13.0169,30.3729 13.8847,10.8475 16.0542,9.1119 18.6576,13.8847 21.261,27.7695" stroke="#0010ff" stroke-width="2" /><polyline fill="none" points="19.0915,37.3153 19.0915,37.3153" stroke="#0058ff" stroke-width="2" /><polyline fill="none" points="18.6576,38.6169 18.2237,36.8814 19.5254,36.8814 20.3932,39.0508" stroke="#00a4ff" stroke-width="2" /><polyline fill="none" points="28.6373,38.6169 27.7695,39.0508" stroke="#05ecf1" stroke-width="2" /><polyline fill="none" points="29.0712,38.6169 29.0712,39.0508" stroke="#3fffb7" stroke-width="2" /><polyline fill="none" points="24.2983,45.1254 23.8644,47.7288 25.6,48.1627 27.3356,46.861 25.6,45.1254" stroke="#7cff79" stroke-width="2" /><polyline fill="none" points="18.6576,56.8407 27.3356,61.6136 33.4102,62.0475 37.7492,57.2746 38.6169,53.3695 37.7492,52.5017" stroke="#b7ff3f" stroke-width="2" /><polyline fill="none" points="48.1627,45.1254 50.7661,40.7864 57.7085,36.0136 64.6508,33.4102 75.9322,32.5424 85.478,35.1458 91.1186,38.6169 94.1559,42.522 94.5898,47.2949 89.3831,55.1051 79.8373,62.0475 73.3288,64.6508 65.0847,64.6508 53.8034,61.6136 45.1254,54.2373" stroke="#f1fc05" stroke-width="2" /><polyline fill="none" points="51.6339,60.3119 53.3695,83.7424" stroke="#ffb900" stroke-width="2" /><polyline fill="none" points="64.2169,64.6508 68.122,75.0644" stroke="#ff7300" stroke-width="2" /><polyline fill="none" points="80.2712,58.1424 86.3458,69.8576" stroke="#ff3000" stroke-width="2" /><polyline fill="none" points="84.1763,58.5763 91.9864,66.3864" stroke="#d10000" stroke-width="2" /><polyline fill="none" points="91.9864,40.3525 104.1356,28.2034 114.1153,21.261 118.4542,21.6949 119.322,29.0712 115.8508,32.1085 106.739,35.5797 89.3831,46.4271" stroke="#7f0000" stroke-width="2" /></svg>