<?xml version="1.0" encoding="utf-8" ?>
<svg baseProfile="tiny" height="128" version="1.2" viewBox="0,0,128,128" width="128" xmlns="http://www.w3.org/2000/svg" xmlns:ev="http://www.w3.org/2001/xml-events" xmlns:xlink="http://www.w3.org/1999/xlink"><defs /><polyline fill="none" points="19.0915,36.0136 16.922,40.7864 16.922,49.8983 20.8271,62.9153 25.6,70.2915 41.2203,78.1017 47.2949,79.4034 65.5186,81.139 75.9322,81.139 82.0068,79.4034 93.2881,72.0271 111.078,55.1051 116.2847,45.5593 117.1525,38.6169 109.3424,31.2407 94.5898,25.6 54.2373,23.4305 31.2407,29.5051 19.0915,36.4475 12.1492,39.0508 8.678,19.0915 10.4136,8.678 37.3153,22.9966 47.2949,23.8644 51.2,20.8271" stroke="#00007f" stroke-width="2" /><polyline fill="none" points="96.7593,17.7898 99.7966,25.6 114.1153,20.8271 119.322,17.7898 119.322,20.8271 113.6814,33.8441" stroke="#0080ff" stroke-width="2" /><polyline fill="none" points="76.3661,52.5017 99.3627,49.8983" stroke="#7cff79" stroke-width="2" /><polyline fill="none" points="85.9119,52.0678 96.3254,53.3695" stroke="#ff9400" stroke-width="2" /><polyline fill="none" points="80.2712,56.4068 98.9288,57.2746" stroke="#7f0000" stroke-width="2" /></svg>