<?xml version="1.0" encoding="utf-8" ?>
<svg baseProfile="tiny" height="128" version="1.2" viewBox="0,0,128,128" width="128" xmlns="http://www.w3.org/2000/svg" xmlns:ev="http://www.w3.org/2001/xml-events" xmlns:xlink="http://www.w3.org/1999/xlink"><defs /><polyline fill="none" points="33.4102,54.2373 36.4475,61.1797 36.8814,59.4441 34.278,54.2373" stroke="#00007f" stroke-width="2" /><polyline fill="none" points="34.278,53.8034 43.3898,54.6712 38.6169,64.2169" stroke="#0000e8" stroke-width="2" /><polyline fill="none" points="40.3525,62.9153 39.9186,66.3864 41.6542,70.2915 45.9932,72.0271" stroke="#0038ff" stroke-width="2" /><polyline fill="none" points="38.6169,64.2169 37.3153,72.0271 33.8441,74.6305 31.6746,73.7627" stroke="#0094ff" stroke-width="2" /><polyline fill="none" points="30.3729,45.1254 28.2034,46.4271 29.0712,47.7288 29.939,46.4271 28.6373,45.5593 27.3356,46.861 29.0712,48.1627" stroke="#0cf4ea" stroke-width="2" /><polyline fill="none" points="47.7288,45.1254 45.5593,46.4271 46.861,47.7288 48.1627,46.4271 45.9932,44.6915 45.9932,46.4271 49.0305,45.9932 49.4644,44.6915 48.1627,44.6915 46.861,46.4271" stroke="#56ffa0" stroke-width="2" /><polyline fill="none" points="55.9729,32.5424 62.4814,16.922 67.2542,10.4136 68.122,15.6203 66.3864,32.9763 67.6881,38.1831" stroke="#a0ff56" stroke-width="2" /><polyline fill="none" points="31.2407,34.7119 29.5051,31.6746 28.6373,10.8475 27.7695,8.678 18.6576,38.1831" stroke="#eaff0c" stroke-width="2" /><polyline fill="none" points="34.278,36.4475 33.8441,32.9763 38.6169,28.6373 45.1254,26.0339 51.6339,26.0339 60.7458,32.5424" stroke="#ffaa00" stroke-width="2" /><polyline fill="none" points="19.9593,43.8237 19.5254,42.522 18.2237,44.6915 16.0542,54.2373 17.3559,72.0271 21.261,79.4034 25.1661,82.8746 29.939,85.0441 39.4847,85.478 51.2,83.3085 62.4814,77.6678 71.1593,68.9898 75.4983,59.0102 75.4983,51.6339 71.5932,43.8237 61.1797,39.0508 55.9729,39.4847 51.2,42.0881" stroke="#ff5500" stroke-width="2" /><polyline fill="none" points="61.6136,86.7797 46.861,83.3085 27.3356,84.6102 14.7525,89.8169 9.5458,95.4576 8.678,100.2305 9.9797,103.7017 18.2237,112.3797 29.939,117.5864 46.4271,119.322 59.4441,117.5864 70.2915,112.3797 78.1017,105.0034 80.2712,96.3254 77.6678,88.5153 70.7254,83.7424 60.3119,83.3085 53.8034,84.6102 46.861,88.0814" stroke="#e80000" stroke-width="2" /><polyline fill="none" points="76.8,87.2136 82.8746,83.7424 88.0814,77.6678 89.3831,73.3288 86.3458,60.7458 87.2136,57.2746 101.5322,47.7288 106.739,41.2203 108.4746,34.7119 104.5695,25.6 105.8712,25.6 111.9458,33.8441 114.5492,47.2949 114.1153,53.8034 104.1356,65.9525 99.7966,80.2712 97.1932,84.1763 85.9119,89.3831 80.2712,89.3831" stroke="#7f0000" stroke-width="2" /></svg>