<?xml version="1.0" encoding="utf-8" ?>
<svg baseProfile="tiny" height="128" version="1.2" viewBox="0,0,128,128" width="128" xmlns="http://www.w3.org/2000/svg" xmlns:ev="http://www.w3.org/2001/xml-events" xmlns:xlink="http://www.w3.org/1999/xlink"><defs /><polyline fill="none" points="45.7143,119.2925 22.6395,109.2789 13.932,102.7483 11.7551,97.0884 8.7075,76.1905 11.3197,53.551 25.6871,23.9456 28.2993,13.4966 30.0408,16.9796 34.8299,44.4082 40.9252,44.8435 76.1905,41.7959 81.415,34.3946 85.3333,26.5578 87.9456,26.1224 91.8639,28.7347 102.7483,42.2313 107.9728,50.068 107.5374,56.5986 96.6531,83.1565 80.9796,102.3129 74.0136,107.9728 62.6939,111.0204 48.7619,118.8571 41.7959,119.2925" stroke="#00007f" stroke-width="2" /><polyline fill="none" points="29.6054,80.9796 33.0884,90.5578 43.9728,85.3333 48.3265,91.4286 61.8231,96.2177 67.0476,92.7347 72.2721,78.8027" stroke="#0028ff" stroke-width="2" /><polyline fill="none" points="43.5374,60.517 43.5374,68.7891" stroke="#00d4ff" stroke-width="2" /><polyline fill="none" points="57.034,64.4354 57.034,72.7075" stroke="#7cff79" stroke-width="2" /><polyline fill="none" points="39.1837,83.5918 41.3605,78.3673 43.102,79.6735" stroke="#ffe500" stroke-width="2" /><polyline fill="none" points="73.1429,39.1837 78.3673,30.4762 84.0272,15.2381 88.8163,9.1429 95.3469,8.7075 104.4898,15.2381 107.5374,30.4762 106.2313,46.1497" stroke="#ff4600" stroke-width="2" /><polyline fill="none" points="37.0068,40.9252 37.0068,40.9252" stroke="#7f0000" stroke-width="2" /></svg>