<?xml version="1.0" encoding="utf-8" ?>
<svg baseProfile="tiny" height="128" version="1.2" viewBox="0,0,128,128" width="128" xmlns="http://www.w3.org/2000/svg" xmlns:ev="http://www.w3.org/2001/xml-events" xmlns:xlink="http://www.w3.org/1999/xlink"><defs /><polyline fill="none" points="97.5238,21.7687 93.6054,21.3333 87.0748,23.9456 76.6259,33.9592 77.932,45.7143 82.7211,50.9388 94.0408,55.2925 104.0544,55.7279 115.3741,52.6803 117.551,50.9388 118.4218,44.8435 118.4218,33.9592 111.4558,21.3333 106.2313,18.7211" stroke="#00007f" stroke-width="2" /><polyline fill="none" points="80.9796,24.8163 81.415,13.4966 83.1565,13.4966 87.0748,20.0272" stroke="#0010ff" stroke-width="2" /><polyline fill="none" points="112.3265,16.9796 117.1156,9.1429 119.2925,8.7075 116.2449,30.0408" stroke="#00a4ff" stroke-width="2" /><polyline fill="none" points="90.9932,31.7823 90.5578,28.7347" stroke="#3fffb7" stroke-width="2" /><polyline fill="none" points="102.3129,31.7823 102.3129,26.9932" stroke="#b7ff3f" stroke-width="2" /><polyline fill="none" points="98.8299,36.1361 101.8776,41.7959 97.5238,41.7959" stroke="#ffb900" stroke-width="2" /><polyline fill="none" points="77.932,35.2653 51.8095,35.2653 30.0408,32.6531 13.0612,37.4422 8.7075,43.102 9.1429,47.0204 19.1565,52.6803 25.2517,54.4218 62.2585,53.551 73.5782,50.068" stroke="#ff3000" stroke-width="2" /><polyline fill="none" points="61.8231,53.551 64.0,88.381" stroke="#7f0000" stroke-width="2" /></svg>