<?xml version="1.0" encoding="utf-8" ?>
<svg baseProfile="tiny" height="128" version="1.2" viewBox="0,0,128,128" width="128" xmlns="http://www.w3.org/2000/svg" xmlns:ev="http://www.w3.org/2001/xml-events" xmlns:xlink="http://www.w3.org/1999/xlink"><defs /><polyline fill="none" points="101.0983,25.6 95.8915,24.2983 89.8169,26.0339 81.5729,31.6746 75.0644,38.1831 70.2915,48.1627 71.5932,62.9153 77.6678,74.1966 85.0441,79.4034 103.7017,79.8373 109.7763,78.1017 115.4169,74.6305 118.0203,65.5186 118.0203,38.1831 115.4169,32.9763 108.9085,28.2034 104.5695,26.9017 98.4949,27.7695" stroke="#00007f" stroke-width="2" /><polyline fill="none" points="90.2508,51.6339 90.2508,58.5763 88.9492,58.1424" stroke="#0000f1" stroke-width="2" /><polyline fill="none" points="90.6847,54.6712 108.9085,54.6712" stroke="#004cff" stroke-width="2" /><polyline fill="none" points="88.9492,53.3695 74.6305,55.539" stroke="#00b0ff" stroke-width="2" /><polyline fill="none" points="86.7797,56.8407 74.1966,62.9153" stroke="#29ffcd" stroke-width="2" /><polyline fill="none" points="91.1186,55.539 95.8915,58.1424 104.5695,59.0102" stroke="#7cff79" stroke-width="2" /><polyline fill="none" points="88.9492,35.1458 88.0814,39.0508 87.6475,37.7492 88.9492,39.0508 88.5153,42.0881 86.3458,42.0881 87.2136,39.4847 90.6847,36.8814 88.9492,38.6169" stroke="#cdff29" stroke-width="2" /><polyline fill="none" points="101.0983,40.3525 100.2305,39.4847 102.4,39.0508 103.7017,40.3525 102.4,43.8237 101.0983,42.9559 102.4,41.2203 102.8339,42.522 100.6644,43.3898 100.6644,42.522 103.2678,41.2203 101.0983,41.2203" stroke="#ffc400" stroke-width="2" /><polyline fill="none" points="68.122,61.1797 45.9932,56.8407 30.3729,56.8407 24.7322,57.7085 16.922,60.7458 11.7153,66.3864 8.678,72.8949 9.1119,78.9695 11.7153,82.8746 17.7898,87.6475 28.6373,91.9864 42.522,95.0237 63.7831,94.1559 79.4034,84.6102" stroke="#ff6700" stroke-width="2" /><polyline fill="none" points="107.1729,29.5051 109.3424,19.5254 116.2847,8.678 118.8881,16.4881 119.322,33.8441 117.5864,35.1458" stroke="#f10700" stroke-width="2" /><polyline fill="none" points="76.8,36.4475 70.2915,12.1492 73.3288,11.7153 78.5356,14.7525 88.9492,29.0712" stroke="#7f0000" stroke-width="2" /></svg>