<?xml version="1.0" encoding="utf-8" ?>
<svg baseProfile="tiny" height="128" version="1.2" viewBox="0,0,128,128" width="128" xmlns="http://www.w3.org/2000/svg" xmlns:ev="http://www.w3.org/2001/xml-events" xmlns:xlink="http://www.w3.org/1999/xlink"><defs /><polyline fill="none" points="59.4441,24.2983 56.4068,22.9966 46.861,23.8644 42.0881,26.0339 32.9763,34.278 16.922,55.1051 15.1864,65.0847 16.0542,71.1593 27.3356,76.3661 57.2746,77.6678 67.2542,75.0644 74.1966,68.9898 77.2339,61.1797 77.6678,49.8983 72.0271,38.6169 62.0475,27.3356" stroke="#00007f" stroke-width="2" /><polyline fill="none" points="36.0136,34.7119 29.939,32.5424 21.6949,25.1661 19.9593,29.5051 22.5627,38.6169 26.4678,45.5593 29.0712,47.2949" stroke="#0000f1" stroke-width="2" /><polyline fill="none" points="55.9729,29.5051 59.878,8.678 62.9153,10.4136 75.0644,26.9017" stroke="#004cff" stroke-width="2" /><polyline fill="none" points="50.7661,61.6136 48.1627,65.0847 50.7661,65.0847 54.2373,63.7831 55.1051,61.6136 51.2,59.4441" stroke="#00b0ff" stroke-width="2" /><polyline fill="none" points="48.5966,61.6136 19.0915,85.0441" stroke="#29ffcd" stroke-width="2" /><polyline fill="none" points="48.1627,67.2542 36.4475,87.6475 26.9017,97.6271 19.0915,102.8339" stroke="#7cff79" stroke-width="2" /><polyline fill="none" points="49.0305,63.3492 37.3153,63.3492 8.678,69.8576" stroke="#cdff29" stroke-width="2" /><polyline fill="none" points="55.539,59.0102 71.1593,52.5017 88.9492,43.3898 94.1559,42.0881" stroke="#ffc400" stroke-width="2" /><polyline fill="none" points="54.6712,65.9525 107.1729,73.3288" stroke="#ff6700" stroke-width="2" /><polyline fill="none" points="57.2746,66.8203 75.9322,76.3661" stroke="#f10700" stroke-width="2" /><polyline fill="none" points="53.8034,81.5729 55.1051,85.0441 55.9729,108.4746 55.1051,112.3797 48.5966,119.322" stroke="#7f0000" stroke-width="2" /></svg>