<?xml version="1.0" encoding="utf-8" ?>
<svg baseProfile="tiny" height="128" version="1.2" viewBox="0,0,128,128" width="128" xmlns="http://www.w3.org/2000/svg" xmlns:ev="http://www.w3.org/2001/xml-events" xmlns:xlink="http://www.w3.org/1999/xlink"><defs /><polyline fill="none" points="68.9898,117.5864 55.539,119.322 36.4475,119.322 25.6,113.2475 19.0915,104.5695 16.922,96.7593 16.922,79.4034 22.5627,63.3492 26.0339,57.7085 32.5424,51.2 36.0136,49.0305 42.9559,46.861 66.3864,47.2949 73.7627,51.2 78.9695,56.4068 82.4407,63.7831 89.8169,85.478 91.5525,95.0237 91.5525,103.2678 85.0441,112.3797 80.7051,114.5492 72.461,114.9831" stroke="#00007f" stroke-width="2" /><polyline fill="none" points="19.9593,53.8034 8.678,18.2237 24.7322,30.8068 41.2203,49.4644" stroke="#004cff" stroke-width="2" /><polyline fill="none" points="70.2915,48.5966 72.0271,44.6915 85.478,29.0712 107.6068,8.678 107.6068,12.1492 102.4,27.7695 86.3458,65.5186" stroke="#29ffcd" stroke-width="2" /><polyline fill="none" points="29.939,69.8576 39.9186,70.7254" stroke="#cdff29" stroke-width="2" /><polyline fill="none" points="51.2,70.7254 62.0475,71.1593 64.6508,74.1966" stroke="#ff6700" stroke-width="2" /><polyline fill="none" points="43.8237,95.0237 44.2576,113.2475 46.4271,113.6814 47.7288,111.5119 48.5966,103.2678" stroke="#7f0000" stroke-width="2" /></svg>