<?xml version="1.0" encoding="utf-8" ?>
<svg baseProfile="tiny" height="128" version="1.2" viewBox="0,0,128,128" width="128" xmlns="http://www.w3.org/2000/svg" xmlns:ev="http://www.w3.org/2001/xml-events" xmlns:xlink="http://www.w3.org/1999/xlink"><defs /><polyline fill="none" points="110.2102,54.2373 106.739,49.4644 94.5898,38.1831 89.3831,34.278 80.2712,31.2407 69.8576,29.5051 53.8034,30.8068 40.7864,34.7119 24.2983,44.2576 12.5831,57.2746 9.5458,66.8203 8.678,76.3661 9.1119,82.0068 13.0169,93.2881 24.2983,105.8712 43.8237,114.1153 63.7831,115.8508 91.9864,109.7763 105.8712,99.7966 113.2475,91.5525 118.8881,77.2339 119.322,72.0271 116.7186,59.4441 106.3051,45.9932" stroke="#00007f" stroke-width="2" /><polyline fill="none" points="82.4407,31.2407 103.7017,10.8475 109.7763,8.678 115.8508,8.678 115.8508,14.7525 113.6814,20.8271 101.9661,42.522" stroke="#7cff79" stroke-width="2" /><polyline fill="none" points="33.8441,33.4102 22.9966,11.7153 17.7898,8.678 14.7525,10.8475 13.8847,17.3559 14.7525,26.0339 19.0915,36.4475 26.4678,47.7288" stroke="#7f0000" stroke-width="2" /></svg>