<?xml version="1.0" encoding="utf-8" ?>
<svg baseProfile="tiny" height="128" version="1.2" viewBox="0,0,128,128" width="128" xmlns="http://www.w3.org/2000/svg" xmlns:ev="http://www.w3.org/2001/xml-events" xmlns:xlink="http://www.w3.org/1999/xlink"><defs /><polyline fill="none" points="56.1633,33.5238 46.585,32.6531 41.3605,33.9592 34.3946,37.0068 23.0748,47.0204 13.4966,60.517 9.1429,74.0136 8.7075,80.1088 9.1429,88.381 11.7551,96.6531 15.6735,104.4898 21.3333,110.585 26.9932,115.3741 33.9592,117.9864 40.9252,119.2925 54.8571,119.2925 68.7891,113.1973 80.1088,100.5714 89.6871,78.8027 90.5578,57.034 86.6395,45.2789 80.9796,38.3129 77.0612,36.1361 66.6122,32.6531 55.7279,32.6531 48.3265,34.8299" stroke="#00007f" stroke-width="2" /><polyline fill="none" points="25.2517,48.3265 25.2517,29.1701 30.4762,16.5442 32.6531,14.3673 35.7007,16.1088 41.3605,28.2993 47.4558,37.8776" stroke="#0000de" stroke-width="2" /><polyline fill="none" points="60.0816,33.0884 77.4966,11.7551 83.1565,8.7075 83.1565,20.898 78.3673,35.7007 76.1905,48.3265" stroke="#0028ff" stroke-width="2" /><polyline fill="none" points="54.8571,71.8367 53.1156,73.1429" stroke="#0080ff" stroke-width="2" /><polyline fill="none" points="54.4218,70.966 53.551,72.2721 52.2449,70.966 52.2449,72.7075 52.6803,71.4014 49.1973,70.0952" stroke="#00d4ff" stroke-width="2" /><polyline fill="none" points="36.5714,66.1769 24.381,67.0476 19.5918,70.0952" stroke="#36ffc0" stroke-width="2" /><polyline fill="none" points="33.0884,64.0 45.2789,70.966 52.6803,79.2381" stroke="#7cff79" stroke-width="2" /><polyline fill="none" points="51.3741,72.7075 41.7959,72.7075 30.0408,77.932 20.0272,87.0748 17.8503,93.1701" stroke="#c0ff36" stroke-width="2" /><polyline fill="none" points="50.5034,77.932 45.2789,77.0612 37.8776,80.9796 31.3469,89.6871 30.0408,95.3469" stroke="#ffe500" stroke-width="2" /><polyline fill="none" points="53.9864,72.2721 72.7075,71.4014 85.7687,74.8844" stroke="#ff9400" stroke-width="2" /><polyline fill="none" points="52.2449,72.7075 62.2585,75.7551 76.1905,84.4626 75.3197,85.3333" stroke="#ff4600" stroke-width="2" /><polyline fill="none" points="49.6327,76.1905 56.1633,77.4966 67.483,85.3333" stroke="#de0000" stroke-width="2" /><polyline fill="none" points="50.5034,77.0612 49.6327,87.9456 47.4558,97.9592" stroke="#7f0000" stroke-width="2" /></svg>