<?xml version="1.0" encoding="utf-8" ?>
<svg baseProfile="tiny" height="128" version="1.2" viewBox="0,0,128,128" width="128" xmlns="http://www.w3.org/2000/svg" xmlns:ev="http://www.w3.org/2001/xml-events" xmlns:xlink="http://www.w3.org/1999/xlink"><defs /><polyline fill="none" points="86.4983,36.2594 90.43,34.0751 99.1672,44.9966 104.4096,48.9283 110.0887,58.9761 106.5939,71.2082 99.1672,85.6246 88.6826,97.8567 77.3242,105.2833 70.7713,107.9044 53.7338,109.215 42.3754,107.0307 36.2594,104.4096 31.4539,100.4778 24.901,89.9932 22.7167,76.8874 23.5904,69.8976 28.8328,56.7918 32.7645,51.1126 44.1229,41.5017 58.5392,35.3857 74.2662,31.8908 96.9829,32.3276" stroke="#00007f" stroke-width="2" /><polyline fill="none" points="43.686,47.1809 43.686,41.9386 38.8805,26.6485 30.1433,16.6007 26.2116,13.1058 15.2901,9.1741 8.7372,8.7372 14.4164,47.1809 18.785,64.2184" stroke="#0028ff" stroke-width="2" /><polyline fill="none" points="84.314,38.4437 86.4983,33.6382 95.6724,24.4642 116.6416,8.7372 119.2628,25.7747 118.8259,70.7713 117.5154,76.4505 106.157,83.8771" stroke="#00d4ff" stroke-width="2" /><polyline fill="none" points="87.372,50.6758 85.6246,54.1706" stroke="#7cff79" stroke-width="2" /><polyline fill="none" points="53.7338,64.6553 54.6075,67.2765" stroke="#ffe500" stroke-width="2" /><polyline fill="none" points="76.8874,80.3823 74.7031,84.314 75.5768,91.3038 78.6348,94.7986 88.2457,95.6724 92.1775,94.3618 93.0512,92.6143" stroke="#ff4600" stroke-width="2" /><polyline fill="none" points="77.3242,82.5666 72.5188,99.6041 63.3447,107.0307 55.0444,109.215 52.4232,105.2833 51.5495,97.8567" stroke="#7f0000" stroke-width="2" /></svg>