<?xml version="1.0" encoding="utf-8" ?>
<svg baseProfile="tiny" height="128" version="1.2" viewBox="0,0,128,128" width="128" xmlns="http://www.w3.org/2000/svg" xmlns:ev="http://www.w3.org/2001/xml-events" xmlns:xlink="http://www.w3.org/1999/xlink"><defs /><polyline fill="none" points="15.1864,46.4271 10.8475,42.9559 8.678,35.5797 8.678,25.1661 12.1492,17.7898 13.8847,17.3559 20.3932,25.1661 29.939,19.5254 43.3898,19.5254 51.2,24.7322 55.539,8.678 57.2746,9.5458 61.1797,16.4881 63.7831,27.3356 63.3492,39.0508 59.4441,47.2949 51.2,53.8034 44.6915,55.1051 24.7322,53.8034 14.7525,48.5966 11.7153,43.8237 12.5831,40.7864" stroke="#00007f" stroke-width="2" /><polyline fill="none" points="44.2576,39.9186 45.9932,39.9186" stroke="#0080ff" stroke-width="2" /><polyline fill="none" points="23.8644,38.6169 24.2983,38.6169" stroke="#7cff79" stroke-width="2" /><polyline fill="none" points="36.8814,45.1254 41.6542,45.1254" stroke="#ff9400" stroke-width="2" /><polyline fill="none" points="36.4475,59.4441 35.1458,63.3492 35.5797,76.3661 37.7492,88.0814 39.9186,92.8542 42.0881,93.722 43.3898,90.2508 45.1254,69.8576 54.6712,69.4237 55.9729,90.2508 56.8407,93.2881 62.4814,96.7593 68.5559,95.4576 69.4237,92.8542 72.0271,65.9525 81.139,68.122 104.5695,69.4237 107.1729,89.3831 111.078,93.722 114.5492,94.1559 118.4542,86.7797 119.322,65.5186" stroke="#7f0000" stroke-width="2" /></svg>