<?xml version="1.0" encoding="utf-8" ?>
<svg baseProfile="tiny" height="128" version="1.2" viewBox="0,0,128,128" width="128" xmlns="http://www.w3.org/2000/svg" xmlns:ev="http://www.w3.org/2001/xml-events" xmlns:xlink="http://www.w3.org/1999/xlink"><defs /><polyline fill="none" points="59.878,38.1831 52.9356,45.9932 45.1254,51.2 36.8814,63.3492 36.8814,73.3288 42.0881,82.8746 47.2949,88.0814 56.4068,91.9864 68.5559,92.8542 75.9322,87.6475 77.2339,80.7051 77.2339,65.9525 71.1593,47.2949 65.9525,42.0881" stroke="#00007f" stroke-width="2" /><polyline fill="none" points="66.8203,40.7864 96.7593,19.9593 105.4373,16.4881 114.9831,8.678 110.2102,27.7695 103.7017,41.6542 96.3254,53.3695 87.2136,62.4814" stroke="#0000fe" stroke-width="2" /><polyline fill="none" points="63.3492,32.9763 52.9356,32.5424 39.4847,25.6 18.6576,17.7898 9.9797,17.7898 8.678,21.261 9.5458,38.6169 24.7322,59.878" stroke="#0060ff" stroke-width="2" /><polyline fill="none" points="56.4068,68.122 94.1559,68.122 94.1559,69.4237" stroke="#00d4ff" stroke-width="2" /><polyline fill="none" points="67.6881,72.8949 82.8746,79.4034 82.0068,80.2712" stroke="#4cffaa" stroke-width="2" /><polyline fill="none" points="69.4237,84.1763 83.7424,95.4576" stroke="#aaff4c" stroke-width="2" /><polyline fill="none" points="42.9559,65.5186 38.6169,68.122 30.3729,68.9898" stroke="#ffe500" stroke-width="2" /><polyline fill="none" points="46.4271,75.9322 36.0136,82.8746 33.8441,86.3458" stroke="#ff7a00" stroke-width="2" /><polyline fill="none" points="49.8983,87.6475 45.9932,98.9288" stroke="#fe1200" stroke-width="2" /><polyline fill="none" points="56.4068,95.0237 53.3695,119.322" stroke="#7f0000" stroke-width="2" /></svg>