<?xml version="1.0" encoding="utf-8" ?>
<svg baseProfile="tiny" height="128" version="1.2" viewBox="0,0,128,128" width="128" xmlns="http://www.w3.org/2000/svg" xmlns:ev="http://www.w3.org/2001/xml-events" xmlns:xlink="http://www.w3.org/1999/xlink"><defs /><polyline fill="none" points="12.2321,39.3174 8.7372,19.6587 8.7372,8.7372 32.7645,38.4437 34.0751,39.3174 33.2014,36.6962" stroke="#00007f" stroke-width="2" /><polyline fill="none" points="81.6928,38.8805 91.3038,35.3857 109.215,24.0273 119.2628,20.0956 119.2628,22.2799 108.7782,31.0171 100.9147,43.686" stroke="#0000d5" stroke-width="2" /><polyline fill="none" points="34.0751,37.57 43.686,32.7645 56.7918,31.8908 65.0922,31.8908 83.8771,38.4437 84.314,39.7543 83.4403,37.57" stroke="#001cff" stroke-width="2" /><polyline fill="none" points="41.5017,55.0444 48.4915,53.2969" stroke="#006cff" stroke-width="2" /><polyline fill="none" points="65.0922,54.6075 69.4608,56.3549 72.0819,58.9761" stroke="#00b8ff" stroke-width="2" /><polyline fill="none" points="55.0444,69.8976 56.3549,68.1502 55.9181,69.4608 54.6075,68.1502 52.4232,69.4608 51.5495,72.9556 54.1706,69.8976" stroke="#1cffda" stroke-width="2" /><polyline fill="none" points="48.9283,67.7133 31.4539,69.0239" stroke="#5cff9a" stroke-width="2" /><polyline fill="none" points="47.6177,70.7713 30.5802,74.2662" stroke="#9aff5c" stroke-width="2" /><polyline fill="none" points="49.3652,74.2662 38.4437,78.198" stroke="#daff1c" stroke-width="2" /><polyline fill="none" points="61.1604,69.8976 71.2082,68.1502 74.7031,69.0239" stroke="#ffcb00" stroke-width="2" /><polyline fill="none" points="61.5973,74.2662 78.6348,72.0819 79.9454,73.8294 77.7611,76.8874" stroke="#ff8500" stroke-width="2" /><polyline fill="none" points="62.471,78.198 67.7133,78.198" stroke="#ff3b00" stroke-width="2" /><polyline fill="none" points="12.6689,41.9386 15.727,48.9283 21.4061,55.9181 26.6485,83.8771 35.8225,94.3618 45.4334,97.4198 51.5495,97.4198 90.8669,88.2457 90.43,79.0717 94.7986,72.0819 100.041,59.8498 101.7884,49.3652 96.1092,55.9181" stroke="#d50000" stroke-width="2" /><polyline fill="none" points="47.6177,81.6928 52.4232,84.314" stroke="#7f0000" stroke-width="2" /></svg>