<?xml version="1.0" encoding="utf-8" ?>
<svg baseProfile="tiny" height="128" version="1.2" viewBox="0,0,128,128" width="128" xmlns="http://www.w3.org/2000/svg" xmlns:ev="http://www.w3.org/2001/xml-events" xmlns:xlink="http://www.w3.org/1999/xlink"><defs /><polyline fill="none" points="33.5238,46.1497 42.6667,40.0544 52.6803,35.7007 74.449,34.8299 92.7347,46.585 97.0884,55.2925 96.6531,61.8231 88.8163,66.1769 55.7279,67.9184 45.2789,64.0 28.7347,52.2449 28.7347,49.1973 32.6531,47.4558" stroke="#00007f" stroke-width="2" /><polyline fill="none" points="91.4286,44.8435 95.7823,40.0544 99.7007,31.3469 104.4898,24.381 107.9728,23.0748 114.068,16.1088 118.8571,8.7075" stroke="#0000ff" stroke-width="2" /><polyline fill="none" points="118.8571,8.7075 119.2925,16.1088 117.9864,18.7211 106.6667,28.7347 99.2653,40.4898 92.7347,47.8912" stroke="#0080ff" stroke-width="2" /><polyline fill="none" points="39.1837,40.4898 36.1361,25.6871 26.9932,13.932 19.1565,17.415 13.0612,23.0748 10.0136,32.2177 8.7075,51.3741 19.1565,52.2449 25.2517,46.585 37.8776,42.6667" stroke="#15ffe1" stroke-width="2" /><polyline fill="none" points="33.5238,21.7687 40.0544,15.6735 38.7483,26.9932" stroke="#7cff79" stroke-width="2" /><polyline fill="none" points="17.415,16.9796 19.1565,9.1429 20.4626,9.5782 23.5102,14.8027" stroke="#e4ff12" stroke-width="2" /><polyline fill="none" points="21.3333,22.6395 20.898,25.2517" stroke="#ff9400" stroke-width="2" /><polyline fill="none" points="26.5578,25.6871 26.5578,35.2653" stroke="#ff1d00" stroke-width="2" /><polyline fill="none" points="21.3333,36.1361 22.2041,37.4422" stroke="#7f0000" stroke-width="2" /></svg>