<?xml version="1.0" encoding="utf-8" ?>
<svg baseProfile="tiny" height="128" version="1.2" viewBox="0,0,128,128" width="128" xmlns="http://www.w3.org/2000/svg" xmlns:ev="http://www.w3.org/2001/xml-events" xmlns:xlink="http://www.w3.org/1999/xlink"><defs /><polyline fill="none" points="70.7254,48.5966 59.4441,44.2576 42.9559,43.8237 29.939,51.2 22.5627,57.7085 19.0915,63.3492 15.6203,81.5729 16.922,91.9864 22.9966,101.5322 37.7492,108.9085 46.4271,110.6441 56.4068,110.6441 62.0475,108.0407 68.122,102.8339 71.1593,98.061 76.3661,89.3831 80.2712,77.2339 79.8373,62.9153 76.3661,52.0678 74.1966,49.8983 71.5932,47.2949 62.9153,43.8237 44.6915,39.0508" stroke="#00007f" stroke-width="2" /><polyline fill="none" points="16.0542,46.4271 25.1661,30.8068 33.8441,9.1119 36.0136,9.9797 53.8034,42.0881" stroke="#0000f1" stroke-width="2" /><polyline fill="none" points="60.3119,42.0881 62.9153,36.4475 72.0271,25.6 89.8169,8.678 88.5153,17.7898 80.7051,45.5593 74.6305,57.2746" stroke="#004cff" stroke-width="2" /><polyline fill="none" points="27.7695,73.3288 9.9797,68.122" stroke="#00b0ff" stroke-width="2" /><polyline fill="none" points="29.0712,84.1763 20.3932,84.6102 8.678,88.5153" stroke="#29ffcd" stroke-width="2" /><polyline fill="none" points="35.5797,94.5898 16.922,118.4542 25.1661,119.322" stroke="#7cff79" stroke-width="2" /><polyline fill="none" points="61.6136,76.3661 93.2881,79.4034" stroke="#cdff29" stroke-width="2" /><polyline fill="none" points="69.4237,85.9119 85.9119,93.2881" stroke="#ffc400" stroke-width="2" /><polyline fill="none" points="64.6508,97.1932 79.8373,116.2847" stroke="#ff6700" stroke-width="2" /><polyline fill="none" points="36.4475,58.1424 35.1458,66.8203 39.4847,67.2542 41.6542,66.3864 38.6169,62.9153 36.4475,62.4814" stroke="#f10700" stroke-width="2" /><polyline fill="none" points="57.2746,59.878 57.2746,61.6136 59.0102,62.0475 61.6136,59.4441" stroke="#7f0000" stroke-width="2" /></svg>