<?xml version="1.0" encoding="utf-8" ?>
<svg baseProfile="tiny" height="128" version="1.2" viewBox="0,0,128,128" width="128" xmlns="http://www.w3.org/2000/svg" xmlns:ev="http://www.w3.org/2001/xml-events" xmlns:xlink="http://www.w3.org/1999/xlink"><defs /><polyline fill="none" points="82.0068,24.7322 78.1017,22.1288 68.9898,21.6949 58.1424,26.4678 49.4644,36.0136 45.1254,47.7288 44.6915,58.5763 46.4271,62.9153 53.3695,71.5932 61.6136,75.0644 74.1966,75.4983 79.4034,73.3288 85.0441,68.9898 90.6847,57.7085 90.6847,40.3525 84.6102,24.2983" stroke="#00007f" stroke-width="2" /><polyline fill="none" points="81.5729,19.5254 83.3085,16.922 91.9864,11.2814 101.5322,8.678 108.0407,9.1119 107.1729,13.8847 91.1186,39.9186" stroke="#0000d1" stroke-width="2" /><polyline fill="none" points="58.1424,24.2983 51.6339,15.6203 44.6915,11.2814 43.3898,14.7525 44.2576,43.8237" stroke="#0010ff" stroke-width="2" /><polyline fill="none" points="59.0102,32.9763 56.4068,33.8441 55.9729,36.8814 55.9729,41.6542 58.1424,41.2203 59.0102,39.0508 58.1424,34.7119" stroke="#0058ff" stroke-width="2" /><polyline fill="none" points="72.8949,36.8814 70.7254,37.7492 70.2915,41.6542 72.8949,42.9559 74.6305,42.9559 75.9322,40.7864 75.4983,36.8814" stroke="#00a4ff" stroke-width="2" /><polyline fill="none" points="65.5186,48.5966 65.5186,48.5966" stroke="#05ecf1" stroke-width="2" /><polyline fill="none" points="59.4441,51.6339 60.7458,51.2" stroke="#3fffb7" stroke-width="2" /><polyline fill="none" points="61.1797,59.878 56.8407,64.6508 56.4068,68.122" stroke="#7cff79" stroke-width="2" /><polyline fill="none" points="60.3119,64.2169 62.4814,63.7831 66.8203,68.5559" stroke="#b7ff3f" stroke-width="2" /><polyline fill="none" points="72.0271,53.3695 99.3627,44.6915 119.322,41.6542" stroke="#f1fc05" stroke-width="2" /><polyline fill="none" points="74.1966,56.4068 98.4949,52.9356 114.5492,52.5017" stroke="#ffb900" stroke-width="2" /><polyline fill="none" points="76.8,64.2169 111.9458,59.878" stroke="#ff7300" stroke-width="2" /><polyline fill="none" points="46.4271,51.6339 43.8237,48.5966 28.6373,43.8237 8.678,44.2576" stroke="#ff3000" stroke-width="2" /><polyline fill="none" points="49.0305,57.7085 46.4271,56.4068 10.4136,56.8407" stroke="#d10000" stroke-width="2" /><polyline fill="none" points="45.1254,72.8949 38.1831,70.2915 32.9763,70.2915 21.261,75.4983" stroke="#7f0000" stroke-width="2" /></svg>