<?xml version="1.0" encoding="utf-8" ?>
<svg baseProfile="tiny" height="128" version="1.2" viewBox="0,0,128,128" width="128" xmlns="http://www.w3.org/2000/svg" xmlns:ev="http://www.w3.org/2001/xml-events" xmlns:xlink="http://www.w3.org/1999/xlink"><defs /><polyline fill="none" points="34.278,40.7864 33.8441,22.5627 35.1458,8.678 38.1831,14.3186 46.861,25.6 49.8983,34.278 65.5186,28.6373 78.5356,27.7695 87.2136,30.8068 91.5525,36.4475 93.2881,35.5797 102.4,16.922 110.2102,9.5458 112.3797,42.522" stroke="#00007f" stroke-width="2" /><polyline fill="none" points="32.5424,37.3153 32.5424,42.0881 37.7492,61.6136 40.7864,67.2542 44.6915,72.0271 49.0305,74.1966 62.0475,76.8 73.3288,76.3661 79.8373,75.0644 93.722,67.2542 101.0983,61.1797 110.2102,50.3322 112.8136,41.6542" stroke="#0000f1" stroke-width="2" /><polyline fill="none" points="58.1424,55.539 67.2542,65.9525 72.0271,61.1797 78.5356,50.7661 57.2746,54.6712" stroke="#004cff" stroke-width="2" /><polyline fill="none" points="29.0712,47.7288 8.678,52.0678" stroke="#00b0ff" stroke-width="2" /><polyline fill="none" points="36.0136,71.1593 19.5254,81.139 14.3186,85.478" stroke="#29ffcd" stroke-width="2" /><polyline fill="none" points="109.3424,57.7085 119.322,54.6712" stroke="#7cff79" stroke-width="2" /><polyline fill="none" points="102.8339,68.5559 116.2847,71.5932" stroke="#cdff29" stroke-width="2" /><polyline fill="none" points="52.9356,44.2576 52.9356,45.9932 54.6712,46.861 59.4441,42.0881 55.539,44.2576 57.7085,45.1254" stroke="#ffc400" stroke-width="2" /><polyline fill="none" points="75.0644,39.0508 72.0271,43.8237 76.8,44.6915 78.9695,42.522 76.8,40.7864 75.0644,41.2203 76.8,42.0881" stroke="#ff6700" stroke-width="2" /><polyline fill="none" points="68.5559,68.122 72.461,72.0271 76.8,72.8949 81.5729,72.0271 84.6102,68.9898" stroke="#f10700" stroke-width="2" /><polyline fill="none" points="72.0271,69.4237 59.4441,73.3288 56.4068,70.7254 54.6712,66.8203" stroke="#7f0000" stroke-width="2" /></svg>