<?xml version="1.0" encoding="utf-8" ?>
<svg baseProfile="tiny" height="128" version="1.2" viewBox="0,0,128,128" width="128" xmlns="http://www.w3.org/2000/svg" xmlns:ev="http://www.w3.org/2001/xml-events" xmlns:xlink="http://www.w3.org/1999/xlink"><defs /><polyline fill="none" points="22.9966,8.678 39.4847,9.5458 55.539,12.1492 89.8169,13.4508 90.2508,65.0847 59.4441,58.5763 10.8475,52.5017 14.7525,34.7119 23.4305,13.8847 23.8644,8.678" stroke="#00007f" stroke-width="2" /><polyline fill="none" points="15.1864,52.9356 8.678,72.0271" stroke="#0000d1" stroke-width="2" /><polyline fill="none" points="19.9593,54.6712 18.2237,62.4814 18.6576,73.3288" stroke="#0010ff" stroke-width="2" /><polyline fill="none" points="76.8,62.0475 70.7254,76.8" stroke="#0058ff" stroke-width="2" /><polyline fill="none" points="83.7424,65.5186 81.139,85.478" stroke="#00a4ff" stroke-width="2" /><polyline fill="none" points="99.7966,10.8475 111.9458,11.2814 117.1525,15.6203 119.322,23.4305 117.5864,30.3729 114.5492,36.0136 110.2102,38.6169 104.1356,39.9186 87.6475,38.6169" stroke="#05ecf1" stroke-width="2" /><polyline fill="none" points="95.0237,10.4136 95.4576,10.4136" stroke="#3fffb7" stroke-width="2" /><polyline fill="none" points="96.3254,10.4136 85.478,13.8847" stroke="#7cff79" stroke-width="2" /><polyline fill="none" points="98.9288,9.9797 102.8339,10.4136" stroke="#b7ff3f" stroke-width="2" /><polyline fill="none" points="110.6441,18.6576 110.6441,18.6576" stroke="#f1fc05" stroke-width="2" /><polyline fill="none" points="112.8136,19.0915 110.6441,18.6576" stroke="#ffb900" stroke-width="2" /><polyline fill="none" points="107.1729,23.4305 107.1729,37.3153 109.3424,44.2576 110.6441,43.3898" stroke="#ff7300" stroke-width="2" /><polyline fill="none" points="113.6814,23.8644 114.1153,31.6746" stroke="#ff3000" stroke-width="2" /><polyline fill="none" points="114.9831,18.2237 118.4542,36.4475" stroke="#d10000" stroke-width="2" /><polyline fill="none" points="76.8,37.3153 82.4407,37.7492 66.8203,38.1831" stroke="#7f0000" stroke-width="2" /></svg>