<?xml version="1.0" encoding="utf-8" ?>
<svg baseProfile="tiny" height="128" version="1.2" viewBox="0,0,128,128" width="128" xmlns="http://www.w3.org/2000/svg" xmlns:ev="http://www.w3.org/2001/xml-events" xmlns:xlink="http://www.w3.org/1999/xlink"><defs /><polyline fill="none" points="66.3864,57.7085 65.9525,55.539 62.0475,54.2373 44.2576,55.9729 32.9763,61.1797 15.6203,73.3288 10.8475,79.4034 8.678,93.722 9.9797,105.8712 13.0169,109.7763 24.2983,114.9831 45.5593,118.8881 62.0475,119.322 73.3288,115.4169 78.1017,109.7763 79.4034,103.7017 78.5356,74.1966 64.6508,57.7085 67.6881,56.4068 79.4034,34.7119 80.2712,39.4847 78.1017,65.9525" stroke="#00007f" stroke-width="2" /><polyline fill="none" points="32.5424,59.4441 37.3153,45.5593 42.9559,37.3153 45.1254,57.7085" stroke="#0000c8" stroke-width="2" /><polyline fill="none" points="40.7864,62.4814 41.2203,68.9898" stroke="#0000ff" stroke-width="2" /><polyline fill="none" points="55.539,62.0475 55.539,71.1593" stroke="#0040ff" stroke-width="2" /><polyline fill="none" points="45.5593,78.9695 44.6915,79.4034" stroke="#0080ff" stroke-width="2" /><polyline fill="none" points="44.6915,79.4034 44.2576,88.9492 36.4475,90.2508 33.4102,86.7797 33.4102,84.6102" stroke="#00c0ff" stroke-width="2" /><polyline fill="none" points="44.6915,82.4407 42.9559,88.9492 43.8237,91.9864 52.5017,91.9864 60.7458,89.3831" stroke="#15ffe1" stroke-width="2" /><polyline fill="none" points="56.4068,83.7424 62.0475,81.5729 67.2542,81.5729" stroke="#49ffad" stroke-width="2" /><polyline fill="none" points="61.1797,88.5153 74.1966,89.8169" stroke="#7cff79" stroke-width="2" /><polyline fill="none" points="60.7458,92.4203 89.3831,98.061" stroke="#b0ff46" stroke-width="2" /><polyline fill="none" points="21.261,80.2712 24.2983,80.2712" stroke="#e4ff12" stroke-width="2" /><polyline fill="none" points="19.5254,82.0068 26.9017,82.8746" stroke="#ffcf00" stroke-width="2" /><polyline fill="none" points="16.0542,85.478 38.6169,87.2136" stroke="#ff9400" stroke-width="2" /><polyline fill="none" points="66.3864,16.922 60.7458,14.3186 48.1627,19.5254 40.3525,28.6373 40.3525,32.9763 42.522,34.7119 53.8034,35.1458 64.6508,32.9763 70.7254,29.939" stroke="#ff5900" stroke-width="2" /><polyline fill="none" points="76.8,15.6203 72.461,17.7898 69.8576,21.6949 69.4237,25.1661 71.5932,29.939 73.3288,30.8068 79.4034,27.7695 82.0068,23.8644 82.0068,19.0915 83.7424,28.6373 87.2136,36.4475 88.5153,36.0136 88.5153,34.7119" stroke="#ff1d00" stroke-width="2" /><polyline fill="none" points="91.5525,8.678 92.4203,19.5254 95.0237,29.5051" stroke="#c30000" stroke-width="2" /><polyline fill="none" points="78.5356,19.9593 95.4576,19.9593" stroke="#7f0000" stroke-width="2" /></svg>