<?xml version="1.0" encoding="utf-8" ?>
<svg baseProfile="tiny" height="128" version="1.2" viewBox="0,0,128,128" width="128" xmlns="http://www.w3.org/2000/svg" xmlns:ev="http://www.w3.org/2001/xml-events" xmlns:xlink="http://www.w3.org/1999/xlink"><defs /><polyline fill="none" points="28.2034,22.5627 30.8068,18.2237 37.3153,13.8847 45.5593,9.5458 50.3322,8.678 53.8034,13.4508 55.1051,29.0712 76.3661,29.939 78.1017,15.6203 82.0068,11.7153 86.3458,10.4136 90.2508,39.4847 94.5898,49.4644 94.5898,60.3119 94.1559,67.2542 91.5525,74.6305 84.6102,82.4407 79.4034,84.6102 68.5559,84.6102 60.7458,82.8746 50.3322,79.8373 40.3525,71.5932 34.7119,62.0475 31.6746,52.5017 31.2407,21.261" stroke="#00007f" stroke-width="2" /><polyline fill="none" points="57.2746,39.9186 53.3695,42.522 54.6712,42.9559 55.539,39.9186 53.8034,40.3525" stroke="#0000ff" stroke-width="2" /><polyline fill="none" points="70.2915,38.6169 69.4237,43.3898 72.8949,45.5593 74.1966,43.8237 73.7627,40.3525 68.9898,38.1831 59.878,37.3153" stroke="#0080ff" stroke-width="2" /><polyline fill="none" points="59.0102,53.3695 59.4441,65.9525 61.1797,67.2542 68.9898,68.122" stroke="#15ffe1" stroke-width="2" /><polyline fill="none" points="60.3119,65.9525 52.5017,68.5559 48.1627,65.5186" stroke="#7cff79" stroke-width="2" /><polyline fill="none" points="62.4814,58.1424 75.9322,53.3695 95.4576,48.1627 111.078,41.6542" stroke="#e4ff12" stroke-width="2" /><polyline fill="none" points="65.0847,63.3492 68.5559,63.3492 119.322,47.2949" stroke="#ff9400" stroke-width="2" /><polyline fill="none" points="52.5017,57.2746 13.4508,53.3695" stroke="#ff1d00" stroke-width="2" /><polyline fill="none" points="52.9356,64.2169 8.678,65.0847" stroke="#7f0000" stroke-width="2" /></svg>