<?xml version="1.0" encoding="utf-8" ?>
<svg baseProfile="tiny" height="128" version="1.2" viewBox="0,0,128,128" width="128" xmlns="http://www.w3.org/2000/svg" xmlns:ev="http://www.w3.org/2001/xml-events" xmlns:xlink="http://www.w3.org/1999/xlink"><defs /><polyline fill="none" points="25.6,29.939 12.1492,52.9356 10.8475,59.4441 16.4881,58.1424 25.6,46.861 27.7695,45.1254 29.939,45.5593 32.1085,72.8949 33.4102,75.0644 38.1831,75.9322 40.3525,75.0644 41.2203,72.461 42.9559,55.1051 45.1254,53.3695 52.5017,52.0678 65.5186,51.6339 68.122,53.3695 70.7254,60.3119 71.5932,69.4237 74.6305,73.7627 78.5356,75.0644 82.4407,66.3864 82.4407,57.7085 78.9695,45.1254 78.5356,35.5797 85.478,35.5797 96.7593,44.2576 101.0983,44.2576 109.3424,35.5797 110.2102,25.6 97.1932,14.3186 89.8169,11.7153 79.4034,11.7153 59.4441,16.0542 39.0508,24.2983 25.1661,26.9017" stroke="#00007f" stroke-width="2" /><polyline fill="none" points="92.8542,12.5831 105.4373,8.678 105.0034,16.4881 102.8339,21.6949" stroke="#0000a3" stroke-width="2" /><polyline fill="none" points="109.7763,24.2983 118.8881,24.2983 119.322,26.4678 115.8508,31.2407 105.8712,38.1831" stroke="#0000c8" stroke-width="2" /><polyline fill="none" points="90.2508,17.3559 88.9492,19.5254 91.1186,21.261 91.9864,16.4881 87.6475,17.3559 84.1763,21.261" stroke="#0000ec" stroke-width="2" /><polyline fill="none" points="96.7593,29.939 98.4949,34.7119 100.6644,34.278 100.6644,32.1085 97.1932,31.2407" stroke="#0000ff" stroke-width="2" /><polyline fill="none" points="29.0712,28.6373 25.6,37.7492" stroke="#0020ff" stroke-width="2" /><polyline fill="none" points="32.5424,27.7695 22.5627,42.0881" stroke="#0040ff" stroke-width="2" /><polyline fill="none" points="20.3932,36.4475 9.5458,49.4644 8.678,53.3695" stroke="#0060ff" stroke-width="2" /><polyline fill="none" points="29.939,32.1085 22.1288,42.522 16.4881,53.8034" stroke="#0080ff" stroke-width="2" /><polyline fill="none" points="39.9186,23.8644 29.939,41.6542" stroke="#00a0ff" stroke-width="2" /><polyline fill="none" points="35.5797,31.6746 34.278,42.9559" stroke="#00c0ff" stroke-width="2" /><polyline fill="none" points="42.0881,31.2407 39.4847,51.6339 39.4847,62.0475" stroke="#00e0fa" stroke-width="2" /><polyline fill="none" points="41.2203,30.3729 37.7492,36.8814 35.1458,46.4271 34.278,67.2542 35.5797,68.5559" stroke="#15ffe1" stroke-width="2" /><polyline fill="none" points="42.522,23.4305 39.0508,55.9729" stroke="#2fffc7" stroke-width="2" /><polyline fill="none" points="39.0508,26.0339 41.2203,32.1085 41.2203,50.7661" stroke="#49ffad" stroke-width="2" /><polyline fill="none" points="45.9932,31.6746 47.7288,28.6373 47.7288,47.7288" stroke="#63ff93" stroke-width="2" /><polyline fill="none" points="47.7288,22.9966 48.5966,48.1627 50.7661,52.0678" stroke="#7cff79" stroke-width="2" /><polyline fill="none" points="53.8034,20.8271 55.9729,25.1661 57.2746,42.0881 59.0102,48.1627 60.7458,51.2 65.0847,53.8034" stroke="#96ff5f" stroke-width="2" /><polyline fill="none" points="62.9153,20.8271 61.6136,26.0339 63.3492,39.4847" stroke="#b0ff46" stroke-width="2" /><polyline fill="none" points="67.6881,19.5254 76.8,55.9729" stroke="#caff2c" stroke-width="2" /><polyline fill="none" points="68.122,19.0915 74.1966,57.2746 78.9695,72.461" stroke="#e4ff12" stroke-width="2" /><polyline fill="none" points="57.7085,29.939 77.6678,69.4237" stroke="#feed00" stroke-width="2" /><polyline fill="none" points="52.0678,21.261 62.0475,47.7288 68.122,56.8407" stroke="#ffcf00" stroke-width="2" /><polyline fill="none" points="62.4814,17.7898 70.2915,40.7864 75.4983,63.7831" stroke="#ffb100" stroke-width="2" /><polyline fill="none" points="68.9898,18.2237 71.5932,23.8644 74.1966,38.6169 76.8,42.9559" stroke="#ff9400" stroke-width="2" /><polyline fill="none" points="77.2339,13.0169 78.9695,21.261" stroke="#ff7600" stroke-width="2" /><polyline fill="none" points="81.139,19.0915 80.7051,34.278" stroke="#ff5900" stroke-width="2" /><polyline fill="none" points="74.1966,10.8475 75.9322,19.0915 76.3661,33.8441" stroke="#ff3b00" stroke-width="2" /><polyline fill="none" points="75.0644,13.4508 76.3661,18.2237 76.3661,33.4102" stroke="#ff1d00" stroke-width="2" /><polyline fill="none" points="72.8949,16.4881 73.7627,35.5797 75.0644,38.6169" stroke="#e80000" stroke-width="2" /><polyline fill="none" points="68.9898,13.4508 71.5932,51.6339 77.2339,75.0644" stroke="#c30000" stroke-width="2" /><polyline fill="none" points="48.5966,21.6949 55.9729,55.9729" stroke="#9f0000" stroke-width="2" /><polyline fill="none" points="42.9559,22.9966 43.3898,43.3898 45.1254,44.6915" stroke="#7f0000" stroke-width="2" /></svg>