<?xml version="1.0" encoding="utf-8" ?>
<svg baseProfile="tiny" height="128" version="1.2" viewBox="0,0,128,128" width="128" xmlns="http://www.w3.org/2000/svg" xmlns:ev="http://www.w3.org/2001/xml-events" xmlns:xlink="http://www.w3.org/1999/xlink"><defs /><polyline fill="none" points="44.6915,39.9186 50.7661,34.7119 62.0475,29.5051 67.6881,28.6373 80.7051,29.5051 86.7797,33.4102 91.1186,39.0508 97.6271,54.2373 98.061,68.122 93.722,76.8 87.2136,84.1763 78.1017,90.6847 68.5559,94.5898 52.0678,95.4576 45.1254,94.5898 35.1458,85.9119 30.8068,69.4237 30.3729,59.878 31.6746,44.6915 36.4475,39.0508 43.8237,34.278" stroke="#00007f" stroke-width="2" /><polyline fill="none" points="38.6169,35.5797 45.5593,14.7525 48.5966,11.7153 52.0678,11.7153 54.6712,13.8847 64.6508,27.7695" stroke="#0000f1" stroke-width="2" /><polyline fill="none" points="71.5932,26.9017 71.1593,24.7322 80.7051,8.678 83.7424,8.678 92.4203,22.9966 96.7593,35.1458" stroke="#004cff" stroke-width="2" /><polyline fill="none" points="65.5186,51.2 71.1593,58.5763 70.7254,61.1797 62.9153,64.2169 53.3695,65.5186 53.3695,62.9153 63.3492,55.1051" stroke="#00b0ff" stroke-width="2" /><polyline fill="none" points="64.6508,65.5186 64.6508,76.8 69.8576,78.1017 75.0644,75.0644" stroke="#29ffcd" stroke-width="2" /><polyline fill="none" points="57.7085,69.4237 57.7085,74.6305 54.6712,78.5356 51.2,79.8373 45.9932,78.9695" stroke="#7cff79" stroke-width="2" /><polyline fill="none" points="82.4407,55.1051 85.478,55.1051 90.6847,52.0678 111.078,38.1831" stroke="#cdff29" stroke-width="2" /><polyline fill="none" points="86.3458,60.3119 110.2102,59.878 119.322,62.0475" stroke="#ffc400" stroke-width="2" /><polyline fill="none" points="38.6169,60.3119 24.2983,58.5763 8.678,61.1797" stroke="#ff6700" stroke-width="2" /><polyline fill="none" points="35.5797,78.5356 32.5424,77.2339 26.9017,77.6678 12.1492,84.1763" stroke="#f10700" stroke-width="2" /><polyline fill="none" points="75.0644,41.6542 75.4983,35.1458 67.2542,33.8441 62.0475,37.7492 62.0475,40.7864 51.6339,39.9186 45.9932,42.522 44.6915,45.9932 48.1627,49.0305" stroke="#7f0000" stroke-width="2" /></svg>