<?xml version="1.0" encoding="utf-8" ?>
<svg baseProfile="tiny" height="128" version="1.2" viewBox="0,0,128,128" width="128" xmlns="http://www.w3.org/2000/svg" xmlns:ev="http://www.w3.org/2001/xml-events" xmlns:xlink="http://www.w3.org/1999/xlink"><defs /><polyline fill="none" points="73.7627,23.8644 64.6508,22.1288 54.2373,24.2983 43.3898,30.8068 36.0136,41.2203 34.7119,51.6339 37.3153,57.2746 46.861,65.5186 53.3695,67.6881 59.878,68.122 65.9525,67.6881 71.5932,64.6508 82.0068,56.4068 86.3458,50.7661 88.5153,41.2203 87.6475,36.8814 82.0068,30.3729 72.8949,26.0339 61.1797,24.2983" stroke="#00007f" stroke-width="2" /><polyline fill="none" points="40.3525,36.4475 39.9186,21.6949 41.6542,13.0169 43.8237,12.5831 55.1051,23.8644" stroke="#0010ff" stroke-width="2" /><polyline fill="none" points="70.7254,19.9593 78.1017,8.678 82.4407,24.2983 87.6475,33.8441" stroke="#00a4ff" stroke-width="2" /><polyline fill="none" points="63.7831,51.2 104.5695,38.6169 119.322,35.5797" stroke="#3fffb7" stroke-width="2" /><polyline fill="none" points="72.461,48.1627 93.722,46.861 117.5864,51.2" stroke="#b7ff3f" stroke-width="2" /><polyline fill="none" points="48.5966,51.6339 40.3525,47.2949 34.278,45.5593 19.5254,45.9932 8.678,49.0305" stroke="#ffb900" stroke-width="2" /><polyline fill="none" points="62.4814,51.2 62.0475,52.0678 32.5424,59.4441 16.922,65.9525 12.1492,69.4237" stroke="#ff3000" stroke-width="2" /><polyline fill="none" points="55.539,44.2576 60.3119,52.5017 68.5559,52.0678" stroke="#7f0000" stroke-width="2" /></svg>