<?xml version="1.0" encoding="utf-8" ?>
<svg baseProfile="tiny" height="128" version="1.2" viewBox="0,0,128,128" width="128" xmlns="http://www.w3.org/2000/svg" xmlns:ev="http://www.w3.org/2001/xml-events" xmlns:xlink="http://www.w3.org/1999/xlink"><defs /><polyline fill="none" points="81.139,14.3186 74.6305,14.7525 59.0102,20.8271 55.539,23.8644 54.2373,45.1254 57.2746,49.0305 61.6136,50.3322 86.3458,49.8983 102.4,43.3898 114.1153,41.2203 117.5864,39.9186 118.8881,37.3153 119.322,31.6746 118.4542,29.0712 107.1729,16.4881 95.8915,13.0169 75.9322,13.8847" stroke="#00007f" stroke-width="2" /><polyline fill="none" points="106.3051,41.2203 106.3051,55.1051 108.0407,63.3492 105.0034,62.0475 101.0983,63.7831 99.7966,58.5763 99.3627,40.7864 98.4949,39.4847" stroke="#0080ff" stroke-width="2" /><polyline fill="none" points="64.2169,47.7288 64.6508,61.6136 83.3085,74.1966 87.2136,73.7627 88.0814,71.5932 85.478,47.2949 84.6102,48.1627" stroke="#7cff79" stroke-width="2" /><polyline fill="none" points="53.8034,31.6746 45.1254,27.3356 41.6542,22.5627 25.6,16.4881 13.0169,8.678 11.2814,8.678 9.1119,14.7525 8.678,25.6 10.4136,32.1085 15.6203,37.7492 21.261,40.7864 29.5051,43.3898 39.9186,43.8237 44.2576,38.6169 53.3695,37.7492 42.9559,31.6746" stroke="#ff9400" stroke-width="2" /><polyline fill="none" points="26.9017,23.4305 26.4678,23.8644" stroke="#7f0000" stroke-width="2" /></svg>