<?xml version="1.0" encoding="utf-8" ?>
<svg baseProfile="tiny" height="128" version="1.2" viewBox="0,0,128,128" width="128" xmlns="http://www.w3.org/2000/svg" xmlns:ev="http://www.w3.org/2001/xml-events" xmlns:xlink="http://www.w3.org/1999/xlink"><defs /><polyline fill="none" points="44.6915,30.3729 31.6746,37.3153 20.8271,47.7288 13.0169,63.7831 10.4136,75.0644 8.678,98.061 10.8475,108.0407 15.6203,114.9831 22.5627,118.4542 30.8068,119.322 43.3898,118.0203 54.6712,113.6814 73.7627,103.7017 85.478,92.8542 87.6475,86.3458 88.0814,78.9695 86.3458,69.4237 76.3661,52.5017 63.7831,41.2203 44.2576,30.3729" stroke="#00007f" stroke-width="2" /><polyline fill="none" points="12.5831,53.8034 17.7898,23.4305 20.8271,14.3186 24.7322,17.7898 33.8441,37.3153" stroke="#0000fe" stroke-width="2" /><polyline fill="none" points="54.6712,34.278 65.0847,13.4508 71.5932,8.678 74.1966,9.1119 75.9322,15.1864 77.2339,33.8441" stroke="#0060ff" stroke-width="2" /><polyline fill="none" points="25.1661,63.3492 28.2034,65.0847 31.2407,63.3492 33.8441,59.0102" stroke="#00d4ff" stroke-width="2" /><polyline fill="none" points="52.0678,57.7085 54.6712,56.8407" stroke="#4cffaa" stroke-width="2" /><polyline fill="none" points="33.4102,91.9864 42.0881,99.7966 49.0305,101.9661 54.6712,101.5322 57.7085,98.9288 59.4441,94.1559" stroke="#aaff4c" stroke-width="2" /><polyline fill="none" points="43.8237,98.4949 43.8237,90.6847 40.3525,85.478" stroke="#ffe500" stroke-width="2" /><polyline fill="none" points="52.5017,99.7966 52.5017,92.4203 50.7661,84.6102" stroke="#ff7a00" stroke-width="2" /><polyline fill="none" points="57.7085,99.7966 77.2339,89.3831" stroke="#fe1200" stroke-width="2" /><polyline fill="none" points="60.3119,94.1559 78.1017,77.6678" stroke="#7f0000" stroke-width="2" /></svg>