<?xml version="1.0" encoding="utf-8" ?>
<svg baseProfile="tiny" height="128" version="1.2" viewBox="0,0,128,128" width="128" xmlns="http://www.w3.org/2000/svg" xmlns:ev="http://www.w3.org/2001/xml-events" xmlns:xlink="http://www.w3.org/1999/xlink"><defs /><polyline fill="none" points="61.6136,45.5593 56.8407,41.6542 50.3322,39.0508 40.7864,38.6169 35.1458,41.6542 29.0712,49.8983 24.2983,60.3119 21.261,73.7627 21.261,85.9119 23.8644,99.7966 30.3729,109.7763 38.1831,114.9831 48.1627,118.4542 59.0102,119.322 69.4237,119.322 78.1017,115.8508 85.0441,107.1729 88.9492,97.1932 91.1186,86.3458 89.8169,63.7831 86.3458,55.9729 81.139,50.3322 73.7627,45.9932 53.3695,42.9559 51.6339,45.1254" stroke="#00007f" stroke-width="2" /><polyline fill="none" points="47.2949,67.6881 49.4644,70.2915 49.8983,76.8 45.1254,76.8 43.8237,73.7627 44.6915,75.4983" stroke="#0000ff" stroke-width="2" /><polyline fill="none" points="64.2169,76.8 68.9898,75.4983 63.7831,76.8 61.1797,75.4983 60.7458,72.8949 65.9525,71.5932 62.9153,72.8949" stroke="#0080ff" stroke-width="2" /><polyline fill="none" points="56.4068,92.4203 59.0102,90.2508 59.4441,93.2881 55.539,94.5898 52.5017,94.1559 54.6712,92.8542 55.539,107.1729 54.6712,109.7763 46.861,111.078 44.2576,110.2102 43.8237,107.1729" stroke="#15ffe1" stroke-width="2" /><polyline fill="none" points="57.7085,102.8339 59.4441,109.7763 62.4814,112.8136 68.5559,113.2475 72.8949,109.7763 73.3288,108.0407" stroke="#7cff79" stroke-width="2" /><polyline fill="none" points="58.1424,102.4 61.1797,98.061 73.3288,90.6847" stroke="#e4ff12" stroke-width="2" /><polyline fill="none" points="55.9729,95.0237 59.4441,91.1186" stroke="#ff9400" stroke-width="2" /><polyline fill="none" points="52.9356,98.4949 35.1458,92.8542" stroke="#ff1d00" stroke-width="2" /><polyline fill="none" points="19.5254,27.7695 13.0169,25.6 8.678,21.6949 8.678,9.9797 12.5831,8.678 44.2576,39.0508" stroke="#7f0000" stroke-width="2" /></svg>