<?xml version="1.0" encoding="utf-8" ?>
<svg baseProfile="tiny" height="128" version="1.2" viewBox="0,0,128,128" width="128" xmlns="http://www.w3.org/2000/svg" xmlns:ev="http://www.w3.org/2001/xml-events" xmlns:xlink="http://www.w3.org/1999/xlink"><defs /><polyline fill="none" points="8.678,53.8034 36.0136,53.8034 101.0983,58.1424 101.0983,68.122 98.4949,85.0441 93.2881,95.0237 84.1763,102.8339 65.9525,107.1729 41.6542,106.739 30.3729,100.6644 24.2983,93.722 18.6576,82.4407 15.1864,65.0847 16.4881,59.878" stroke="#00007f" stroke-width="2" /><polyline fill="none" points="43.8237,79.8373 44.6915,82.4407 45.9932,79.4034 43.8237,75.9322 40.3525,75.0644 39.0508,77.2339 40.3525,79.8373 43.8237,79.8373" stroke="#0028ff" stroke-width="2" /><polyline fill="none" points="80.2712,74.6305 78.1017,76.3661 80.2712,79.4034 82.8746,80.2712 82.4407,79.4034" stroke="#00d4ff" stroke-width="2" /><polyline fill="none" points="65.0847,82.4407 62.9153,89.3831 59.0102,93.722 52.5017,96.7593" stroke="#7cff79" stroke-width="2" /><polyline fill="none" points="69.4237,89.3831 68.5559,91.9864 69.4237,95.0237 72.8949,97.6271 82.0068,98.9288" stroke="#ffe500" stroke-width="2" /><polyline fill="none" points="18.2237,55.9729 19.0915,16.0542 21.261,9.9797 24.2983,8.678 26.9017,8.678 30.3729,12.5831 44.6915,40.3525 53.3695,52.5017" stroke="#ff4600" stroke-width="2" /><polyline fill="none" points="86.7797,59.878 85.0441,54.2373 108.4746,28.6373 116.7186,24.2983 119.322,24.7322 119.322,35.5797 111.078,60.3119" stroke="#7f0000" stroke-width="2" /></svg>