<?xml version="1.0" encoding="utf-8" ?>
<svg baseProfile="tiny" height="128" version="1.2" viewBox="0,0,128,128" width="128" xmlns="http://www.w3.org/2000/svg" xmlns:ev="http://www.w3.org/2001/xml-events" xmlns:xlink="http://www.w3.org/1999/xlink"><defs /><polyline fill="none" points="11.2814,112.8136 8.678,108.4746 8.678,101.5322 11.2814,95.8915 19.5254,89.8169 27.7695,89.3831 33.4102,90.6847 40.7864,94.1559 43.3898,98.061 43.8237,108.9085 41.2203,113.2475 35.5797,117.5864 25.1661,119.322 15.1864,117.1525 8.678,114.1153 9.9797,110.2102" stroke="#00007f" stroke-width="2" /><polyline fill="none" points="51.2,95.4576 47.7288,97.1932 43.8237,102.8339 44.6915,111.9458 51.6339,117.1525 63.7831,117.5864 70.7254,114.9831 73.3288,112.8136 77.6678,103.2678 77.6678,98.9288 74.1966,96.7593 66.3864,95.0237 52.5017,94.5898 48.5966,95.8915" stroke="#0028ff" stroke-width="2" /><polyline fill="none" points="25.6,88.5153 24.7322,61.6136 28.6373,47.7288 35.1458,37.7492 38.1831,35.5797 45.9932,32.5424 53.8034,32.1085 59.878,33.8441 64.6508,38.1831 70.7254,68.122 62.0475,94.1559" stroke="#00d4ff" stroke-width="2" /><polyline fill="none" points="26.4678,52.0678 52.5017,53.3695 71.5932,59.0102" stroke="#7cff79" stroke-width="2" /><polyline fill="none" points="55.1051,32.1085 50.7661,36.8814" stroke="#ffe500" stroke-width="2" /><polyline fill="none" points="19.5254,39.0508 37.3153,28.2034 47.7288,26.9017 61.1797,29.5051 78.9695,40.7864 83.7424,46.861 85.478,57.2746" stroke="#ff4600" stroke-width="2" /><polyline fill="none" points="85.478,57.2746 89.8169,52.9356 91.1186,49.0305 88.9492,35.5797 82.8746,26.0339 72.8949,18.6576 49.4644,10.4136 34.278,8.678 24.7322,10.4136 15.1864,19.0915" stroke="#7f0000" stroke-width="2" /></svg>