<?xml version="1.0" encoding="utf-8" ?>
<svg baseProfile="tiny" height="128" version="1.2" viewBox="0,0,128,128" width="128" xmlns="http://www.w3.org/2000/svg" xmlns:ev="http://www.w3.org/2001/xml-events" xmlns:xlink="http://www.w3.org/1999/xlink"><defs /><polyline fill="none" points="26.4678,25.1661 22.5627,19.5254 8.678,9.5458 16.0542,40.7864" stroke="#00007f" stroke-width="2" /><polyline fill="none" points="25.6,23.4305 37.3153,17.3559 50.3322,15.6203 74.6305,22.9966 80.7051,26.4678 82.0068,29.939 87.6475,17.3559 97.1932,11.2814" stroke="#0000f1" stroke-width="2" /><polyline fill="none" points="105.8712,9.5458 107.1729,12.1492 107.1729,17.7898 104.1356,16.922" stroke="#004cff" stroke-width="2" /><polyline fill="none" points="97.6271,9.5458 105.0034,8.678 103.7017,15.1864 103.7017,49.4644 100.2305,61.6136 97.6271,65.9525 94.5898,68.122 80.2712,68.5559 56.4068,62.9153 48.1627,57.7085 40.7864,54.6712 16.922,49.0305 15.6203,48.1627 16.0542,40.7864" stroke="#00b0ff" stroke-width="2" /><polyline fill="none" points="27.7695,40.3525 10.4136,41.6542 22.1288,43.3898" stroke="#29ffcd" stroke-width="2" /><polyline fill="none" points="37.7492,45.5593 26.0339,49.8983 23.4305,53.3695 24.7322,53.8034" stroke="#7cff79" stroke-width="2" /><polyline fill="none" points="46.4271,48.5966 45.1254,64.6508" stroke="#cdff29" stroke-width="2" /><polyline fill="none" points="77.2339,43.3898 119.322,36.4475" stroke="#ffc400" stroke-width="2" /><polyline fill="none" points="90.2508,45.9932 96.7593,47.2949 117.1525,47.2949" stroke="#ff6700" stroke-width="2" /><polyline fill="none" points="91.9864,54.2373 98.4949,62.9153 110.2102,71.1593" stroke="#f10700" stroke-width="2" /><polyline fill="none" points="41.2203,34.7119 43.8237,33.4102 40.3525,36.8814 43.3898,37.3153 45.1254,36.0136 42.9559,34.7119 46.4271,34.278" stroke="#7f0000" stroke-width="2" /></svg>