<?xml version="1.0" encoding="utf-8" ?>
<svg baseProfile="tiny" height="128" version="1.2" viewBox="0,0,128,128" width="128" xmlns="http://www.w3.org/2000/svg" xmlns:ev="http://www.w3.org/2001/xml-events" xmlns:xlink="http://www.w3.org/1999/xlink"><defs /><polyline fill="none" points="98.4949,58.1424 92.8542,52.9356 67.6881,38.1831 57.7085,34.278 50.3322,33.4102 37.3153,36.4475 26.0339,45.5593 24.7322,49.0305 23.8644,59.878 24.7322,65.0847 29.5051,73.7627 42.522,84.1763 47.7288,86.3458 72.8949,86.3458 80.2712,84.6102 83.7424,82.0068 94.1559,68.122 96.7593,62.4814 96.7593,54.6712 97.6271,51.2" stroke="#00007f" stroke-width="2" /><polyline fill="none" points="21.261,47.7288 19.9593,32.5424 21.261,26.4678 34.278,8.678 36.0136,10.4136 46.4271,32.9763" stroke="#0000e8" stroke-width="2" /><polyline fill="none" points="82.4407,38.1831 88.9492,28.2034 102.4,15.6203 107.1729,12.1492 117.1525,10.4136 101.0983,33.8441 87.6475,51.2 83.3085,54.6712" stroke="#0038ff" stroke-width="2" /><polyline fill="none" points="82.4407,37.7492 77.6678,39.0508 72.461,42.522" stroke="#0094ff" stroke-width="2" /><polyline fill="none" points="42.9559,52.5017 42.9559,52.5017" stroke="#0cf4ea" stroke-width="2" /><polyline fill="none" points="47.7288,52.5017 50.7661,49.8983 50.3322,48.1627 49.0305,48.1627" stroke="#56ffa0" stroke-width="2" /><polyline fill="none" points="65.0847,50.7661 66.3864,50.3322" stroke="#a0ff56" stroke-width="2" /><polyline fill="none" points="35.1458,69.8576 8.678,67.6881" stroke="#eaff0c" stroke-width="2" /><polyline fill="none" points="42.522,75.4983 30.3729,81.5729 21.261,87.6475" stroke="#ffaa00" stroke-width="2" /><polyline fill="none" points="53.3695,74.6305 33.8441,91.9864 26.0339,97.6271" stroke="#ff5500" stroke-width="2" /><polyline fill="none" points="76.8,67.2542 99.7966,70.2915 119.322,75.0644" stroke="#e80000" stroke-width="2" /><polyline fill="none" points="72.461,78.5356 81.5729,78.1017 101.0983,84.6102" stroke="#7f0000" stroke-width="2" /></svg>