<?xml version="1.0" encoding="utf-8" ?>
<svg baseProfile="tiny" height="128" version="1.2" viewBox="0,0,128,128" width="128" xmlns="http://www.w3.org/2000/svg" xmlns:ev="http://www.w3.org/2001/xml-events" xmlns:xlink="http://www.w3.org/1999/xlink"><defs /><polyline fill="none" points="17.3559,55.1051 13.0169,44.2576 12.1492,23.8644 13.4508,14.3186 16.4881,9.9797 19.0915,8.678 25.1661,10.8475 28.6373,15.6203 40.7864,48.5966" stroke="#00007f" stroke-width="2" /><polyline fill="none" points="41.6542,50.3322 69.4237,49.8983 89.8169,16.0542 94.1559,12.5831 96.3254,13.4508 97.1932,16.0542 101.0983,63.3492 99.3627,63.7831 98.9288,74.1966 96.3254,82.0068 87.2136,96.7593 82.8746,99.7966 73.7627,104.1356 48.5966,111.5119 43.3898,111.9458 30.8068,110.2102 21.6949,104.1356 16.922,97.1932 13.0169,84.1763 12.5831,76.8 15.1864,68.5559 22.5627,53.3695" stroke="#0000f1" stroke-width="2" /><polyline fill="none" points="44.6915,91.9864 45.1254,91.5525" stroke="#004cff" stroke-width="2" /><polyline fill="none" points="29.5051,66.3864 30.8068,70.7254 33.4102,71.1593" stroke="#00b0ff" stroke-width="2" /><polyline fill="none" points="73.7627,67.6881 75.0644,71.5932 77.2339,69.8576" stroke="#29ffcd" stroke-width="2" /><polyline fill="none" points="44.6915,90.6847 49.8983,89.3831 51.6339,91.5525 49.4644,96.3254" stroke="#7cff79" stroke-width="2" /><polyline fill="none" points="63.7831,91.9864 91.5525,79.4034" stroke="#cdff29" stroke-width="2" /><polyline fill="none" points="58.1424,93.722 86.3458,104.1356 87.6475,105.8712" stroke="#ffc400" stroke-width="2" /><polyline fill="none" points="55.1051,99.3627 74.6305,119.322" stroke="#ff6700" stroke-width="2" /><polyline fill="none" points="40.7864,92.8542 14.3186,84.1763" stroke="#f10700" stroke-width="2" /><polyline fill="none" points="36.0136,99.3627 8.678,100.6644" stroke="#7f0000" stroke-width="2" /></svg>