<?xml version="1.0" encoding="utf-8" ?>
<svg baseProfile="tiny" height="128" version="1.2" viewBox="0,0,128,128" width="128" xmlns="http://www.w3.org/2000/svg" xmlns:ev="http://www.w3.org/2001/xml-events" xmlns:xlink="http://www.w3.org/1999/xlink"><defs /><polyline fill="none" points="51.2,42.0881 49.8983,57.7085 51.6339,58.1424 59.4441,55.9729 57.2746,50.3322 56.8407,42.0881 49.0305,42.0881" stroke="#00007f" stroke-width="2" /><polyline fill="none" points="71.1593,41.6542 69.8576,58.1424 72.0271,58.5763 81.5729,55.539 78.5356,42.522 76.3661,41.2203 67.2542,42.522" stroke="#0000fe" stroke-width="2" /><polyline fill="none" points="47.2949,42.522 80.2712,43.3898 92.4203,39.4847 96.7593,30.3729 96.7593,19.9593 93.2881,13.8847 86.7797,11.2814 79.4034,11.2814 69.8576,13.4508 54.2373,20.3932 45.1254,27.3356 41.6542,35.5797 41.6542,40.7864 43.3898,44.2576 50.3322,45.9932 63.7831,45.1254" stroke="#0060ff" stroke-width="2" /><polyline fill="none" points="84.6102,21.6949 88.5153,29.939" stroke="#00d4ff" stroke-width="2" /><polyline fill="none" points="89.3831,21.6949 80.7051,29.939" stroke="#4cffaa" stroke-width="2" /><polyline fill="none" points="78.1017,16.922 77.6678,18.6576 79.4034,19.0915 83.7424,15.1864 80.7051,16.0542 79.8373,18.2237" stroke="#aaff4c" stroke-width="2" /><polyline fill="none" points="86.7797,18.2237 86.7797,19.9593 91.1186,17.3559 89.3831,16.922 88.0814,18.2237" stroke="#ffe500" stroke-width="2" /><polyline fill="none" points="85.478,35.1458 84.1763,38.6169 88.9492,39.4847 94.1559,33.8441 91.9864,33.4102 88.9492,35.1458 85.0441,40.3525 90.2508,38.6169 93.722,34.7119 88.9492,38.6169 95.4576,36.8814" stroke="#ff7a00" stroke-width="2" /><polyline fill="none" points="44.2576,40.3525 36.4475,42.0881 30.8068,45.9932 19.0915,60.3119 8.678,69.8576 16.0542,58.1424 32.5424,41.6542 42.9559,33.8441 18.2237,55.1051 45.1254,33.8441 28.2034,47.2949 16.922,59.0102 29.0712,46.4271 43.3898,35.5797 22.9966,55.9729 9.9797,71.5932 12.1492,70.7254" stroke="#fe1200" stroke-width="2" /><polyline fill="none" points="65.0847,33.8441 62.9153,36.4475 72.461,33.8441 101.9661,16.4881 82.8746,28.2034 52.0678,55.539 66.3864,37.3153 78.9695,24.2983 98.9288,8.678 85.9119,16.4881 54.6712,41.2203 39.0508,58.5763 82.8746,16.0542 56.8407,36.8814 42.9559,52.0678 33.8441,66.8203 39.9186,62.9153 66.8203,38.6169 83.3085,26.9017 96.7593,18.6576 106.3051,16.4881 101.9661,22.1288 72.461,45.1254 60.3119,57.7085 52.0678,73.7627 57.7085,69.4237 81.5729,41.6542 95.8915,28.6373 108.4746,21.261 114.9831,19.9593 114.5492,22.9966 89.3831,46.861 75.9322,62.4814 62.9153,83.7424 76.3661,65.9525 88.5153,52.9356 109.7763,36.4475 114.5492,34.7119 111.9458,39.4847 89.3831,59.4441 80.2712,70.7254 73.7627,81.139 89.8169,69.8576 103.2678,62.0475 119.322,56.8407" stroke="#7f0000" stroke-width="2" /></svg>