<?xml version="1.0" encoding="utf-8" ?>
<svg baseProfile="tiny" height="128" version="1.2" viewBox="0,0,128,128" width="128" xmlns="http://www.w3.org/2000/svg" xmlns:ev="http://www.w3.org/2001/xml-events" xmlns:xlink="http://www.w3.org/1999/xlink"><defs /><polyline fill="none" points="29.0712,19.0915 22.9966,18.6576 18.2237,20.3932 13.0169,25.1661 9.1119,33.8441 8.678,45.1254 13.4508,52.0678 16.922,53.3695" stroke="#00007f" stroke-width="2" /><polyline fill="none" points="13.0169,56.4068 31.6746,59.878 50.7661,60.7458 59.878,56.4068 66.8203,48.5966 67.6881,37.7492 66.3864,32.5424 62.4814,27.7695 52.9356,21.6949 45.9932,19.5254 35.1458,19.0915" stroke="#0028ff" stroke-width="2" /><polyline fill="none" points="21.6949,20.3932 19.0915,11.7153 25.1661,18.6576" stroke="#00d4ff" stroke-width="2" /><polyline fill="none" points="49.0305,23.8644 52.9356,14.3186 58.1424,8.678 59.4441,20.3932" stroke="#7cff79" stroke-width="2" /><polyline fill="none" points="64.6508,55.539 67.6881,58.1424 70.7254,65.9525 72.461,75.0644 74.1966,106.3051 78.1017,111.9458" stroke="#ffe500" stroke-width="2" /><polyline fill="none" points="18.2237,55.539 13.8847,58.5763 9.9797,67.6881 9.9797,87.6475 14.7525,108.0407 16.0542,108.9085" stroke="#ff4600" stroke-width="2" /><polyline fill="none" points="27.7695,84.6102 27.7695,107.1729 29.0712,113.2475 31.6746,117.5864 34.278,119.322 36.8814,112.3797 36.8814,83.3085" stroke="#7f0000" stroke-width="2" /></svg>