<?xml version="1.0" encoding="utf-8" ?>
<svg baseProfile="tiny" height="128" version="1.2" viewBox="0,0,128,128" width="128" xmlns="http://www.w3.org/2000/svg" xmlns:ev="http://www.w3.org/2001/xml-events" xmlns:xlink="http://www.w3.org/1999/xlink"><defs /><polyline fill="none" points="32.1085,55.539 30.8068,55.9729 29.939,72.0271 28.2034,76.8 29.5051,75.0644 39.9186,73.7627 39.4847,62.0475 43.8237,55.539 36.4475,52.9356 32.1085,52.9356 22.5627,58.5763" stroke="#00007f" stroke-width="2" /><polyline fill="none" points="37.7492,55.539 63.7831,49.4644 70.2915,50.3322 72.0271,55.1051 73.3288,74.1966 58.1424,73.3288 42.9559,77.2339" stroke="#0000e8" stroke-width="2" /><polyline fill="none" points="41.6542,77.2339 45.1254,77.2339" stroke="#0038ff" stroke-width="2" /><polyline fill="none" points="45.5593,77.2339 58.1424,66.8203 70.2915,49.8983" stroke="#0094ff" stroke-width="2" /><polyline fill="none" points="49.4644,50.3322 50.3322,55.539 49.0305,71.1593 50.3322,75.0644" stroke="#0cf4ea" stroke-width="2" /><polyline fill="none" points="63.3492,45.9932 61.6136,47.2949 62.4814,69.4237 63.7831,73.3288" stroke="#56ffa0" stroke-width="2" /><polyline fill="none" points="27.3356,53.3695 34.278,46.4271 47.7288,37.7492 62.4814,30.3729 69.8576,28.6373 76.8,28.2034 82.8746,30.3729 84.1763,32.9763 83.7424,36.8814 78.1017,42.0881 59.878,50.3322" stroke="#a0ff56" stroke-width="2" /><polyline fill="none" points="32.5424,48.5966 24.2983,44.2576 20.8271,44.2576 16.922,46.4271 9.9797,56.8407 8.678,70.2915" stroke="#eaff0c" stroke-width="2" /><polyline fill="none" points="82.4407,31.2407 95.4576,23.8644 113.2475,22.1288 116.7186,24.2983 119.322,28.6373 118.8881,32.1085 113.6814,36.8814 102.8339,41.2203 63.7831,43.8237" stroke="#ffaa00" stroke-width="2" /><polyline fill="none" points="96.3254,27.3356 93.2881,23.4305 95.4576,10.4136 98.4949,11.2814 101.5322,18.2237 105.0034,22.1288" stroke="#ff5500" stroke-width="2" /><polyline fill="none" points="107.6068,18.2237 117.5864,8.678 116.2847,26.0339" stroke="#e80000" stroke-width="2" /><polyline fill="none" points="88.5153,33.4102 95.8915,36.8814 104.5695,36.8814 113.6814,28.2034" stroke="#7f0000" stroke-width="2" /></svg>