<?xml version="1.0" encoding="utf-8" ?>
<svg baseProfile="tiny" height="128" version="1.2" viewBox="0,0,128,128" width="128" xmlns="http://www.w3.org/2000/svg" xmlns:ev="http://www.w3.org/2001/xml-events" xmlns:xlink="http://www.w3.org/1999/xlink"><defs /><polyline fill="none" points="34.278,25.1661 23.8644,25.1661 19.0915,27.3356 16.0542,36.8814 16.4881,41.2203 19.0915,43.8237 28.2034,45.1254 33.8441,43.8237 36.8814,41.2203 38.1831,37.7492 37.7492,29.5051 35.1458,24.7322 31.2407,23.4305" stroke="#00007f" stroke-width="2" /><polyline fill="none" points="17.3559,29.0712 20.8271,8.678 26.0339,27.3356" stroke="#0000d1" stroke-width="2" /><polyline fill="none" points="30.8068,26.4678 45.1254,19.5254 48.5966,19.0915 34.7119,36.4475" stroke="#0010ff" stroke-width="2" /><polyline fill="none" points="24.2983,30.3729 20.3932,29.5051 20.3932,31.2407 22.5627,32.5424 25.1661,32.9763 23.8644,30.8068" stroke="#0058ff" stroke-width="2" /><polyline fill="none" points="31.6746,31.6746 34.278,32.5424 32.1085,30.8068" stroke="#00a4ff" stroke-width="2" /><polyline fill="none" points="25.1661,35.5797 29.5051,35.5797 25.6,38.1831 24.7322,34.7119" stroke="#05ecf1" stroke-width="2" /><polyline fill="none" points="25.1661,37.7492 24.2983,40.3525 19.5254,39.0508" stroke="#3fffb7" stroke-width="2" /><polyline fill="none" points="24.7322,40.7864 27.7695,40.3525 29.939,38.1831" stroke="#7cff79" stroke-width="2" /><polyline fill="none" points="34.7119,37.7492 51.6339,37.7492" stroke="#b7ff3f" stroke-width="2" /><polyline fill="none" points="35.5797,39.4847 41.2203,41.2203" stroke="#f1fc05" stroke-width="2" /><polyline fill="none" points="32.9763,41.2203 39.0508,45.5593" stroke="#ffb900" stroke-width="2" /><polyline fill="none" points="18.2237,34.7119 12.1492,32.9763" stroke="#ff7300" stroke-width="2" /><polyline fill="none" points="19.0915,36.8814 8.678,37.3153" stroke="#ff3000" stroke-width="2" /><polyline fill="none" points="17.3559,39.0508 11.7153,40.3525" stroke="#d10000" stroke-width="2" /><polyline fill="none" points="39.0508,34.278 52.5017,30.8068 65.0847,31.2407 72.461,33.8441 71.1593,42.9559 74.6305,45.1254 80.7051,45.1254 119.322,29.0712" stroke="#7f0000" stroke-width="2" /></svg>