<?xml version="1.0" encoding="utf-8" ?>
<svg baseProfile="tiny" height="128" version="1.2" viewBox="0,0,128,128" width="128" xmlns="http://www.w3.org/2000/svg" xmlns:ev="http://www.w3.org/2001/xml-events" xmlns:xlink="http://www.w3.org/1999/xlink"><defs /><polyline fill="none" points="60.3119,32.5424 53.3695,32.5424 41.2203,36.8814 32.9763,43.3898 29.939,50.7661 31.6746,61.6136 37.3153,71.5932 45.1254,78.1017 55.9729,82.8746 71.5932,83.7424 81.139,82.0068 88.9492,78.1017 98.4949,63.7831 100.2305,52.5017 98.061,46.861 82.0068,36.0136 67.2542,31.6746 54.6712,30.3729" stroke="#00007f" stroke-width="2" /><polyline fill="none" points="36.8814,34.278 43.8237,24.2983 50.3322,8.678 60.3119,29.0712" stroke="#0000ff" stroke-width="2" /><polyline fill="none" points="81.5729,35.1458 99.3627,13.8847 95.8915,33.8441 95.8915,43.3898" stroke="#0080ff" stroke-width="2" /><polyline fill="none" points="13.8847,36.8814 21.261,44.6915 45.1254,62.9153" stroke="#15ffe1" stroke-width="2" /><polyline fill="none" points="8.678,62.9153 42.9559,58.1424" stroke="#7cff79" stroke-width="2" /><polyline fill="none" points="12.5831,81.5729 19.9593,78.9695 45.5593,65.5186" stroke="#e4ff12" stroke-width="2" /><polyline fill="none" points="119.322,58.1424 81.139,54.2373" stroke="#ff9400" stroke-width="2" /><polyline fill="none" points="78.5356,57.2746 95.4576,67.6881 107.6068,72.461" stroke="#ff1d00" stroke-width="2" /><polyline fill="none" points="76.3661,61.6136 88.5153,73.7627 101.9661,90.2508" stroke="#7f0000" stroke-width="2" /></svg>