<?xml version="1.0" encoding="utf-8" ?>
<svg baseProfile="tiny" height="128" version="1.2" viewBox="0,0,128,128" width="128" xmlns="http://www.w3.org/2000/svg" xmlns:ev="http://www.w3.org/2001/xml-events" xmlns:xlink="http://www.w3.org/1999/xlink"><defs /><polyline fill="none" points="72.0271,26.4678 72.8949,24.2983 88.9492,8.678 98.4949,25.1661 101.0983,38.1831" stroke="#00007f" stroke-width="2" /><polyline fill="none" points="71.1593,29.0712 55.539,27.7695 42.522,32.9763 27.7695,19.0915 22.5627,16.0542 20.3932,17.7898 20.8271,41.2203 22.9966,54.6712 33.4102,72.461 47.2949,82.0068 57.7085,86.3458 68.9898,87.2136 74.6305,86.3458 86.3458,80.7051 94.1559,71.5932 98.9288,60.7458 98.9288,49.4644 95.4576,41.2203" stroke="#0000ff" stroke-width="2" /><polyline fill="none" points="63.3492,68.9898 64.6508,70.7254" stroke="#0080ff" stroke-width="2" /><polyline fill="none" points="81.5729,62.9153 99.3627,54.6712 119.322,48.5966" stroke="#15ffe1" stroke-width="2" /><polyline fill="none" points="81.5729,68.5559 85.0441,65.9525 95.4576,64.2169 113.2475,65.5186" stroke="#7cff79" stroke-width="2" /><polyline fill="none" points="80.7051,71.1593 81.5729,72.8949 100.6644,79.4034" stroke="#e4ff12" stroke-width="2" /><polyline fill="none" points="46.4271,66.3864 24.7322,72.0271 8.678,80.2712" stroke="#ff9400" stroke-width="2" /><polyline fill="none" points="44.2576,70.7254 28.6373,80.2712 16.0542,90.6847" stroke="#ff1d00" stroke-width="2" /><polyline fill="none" points="45.5593,76.3661 32.5424,91.9864" stroke="#7f0000" stroke-width="2" /></svg>