<?xml version="1.0" encoding="utf-8" ?>
<svg baseProfile="tiny" height="128" version="1.2" viewBox="0,0,128,128" width="128" xmlns="http://www.w3.org/2000/svg" xmlns:ev="http://www.w3.org/2001/xml-events" xmlns:xlink="http://www.w3.org/1999/xlink"><defs /><polyline fill="none" points="89.8169,75.0644 88.5153,63.7831 77.6678,49.0305 66.3864,41.6542 43.8237,34.7119 32.5424,36.0136 20.8271,41.6542 11.7153,53.3695 9.5458,67.6881 11.7153,75.9322 16.4881,82.0068 17.7898,62.9153 20.8271,54.2373 26.0339,48.5966 36.0136,47.7288 46.861,49.0305 58.5763,54.6712 62.9153,59.878 64.2169,73.7627 70.7254,80.2712 79.4034,81.5729 86.3458,79.8373 88.9492,76.8 100.2305,87.2136 106.739,90.2508 110.2102,90.6847 115.4169,88.0814 119.322,78.5356 117.5864,69.8576 111.078,62.9153 101.9661,61.6136 95.4576,62.9153 91.1186,66.8203 89.8169,71.5932" stroke="#00007f" stroke-width="2" /><polyline fill="none" points="106.3051,83.7424 102.8339,78.9695 94.1559,78.9695 94.5898,68.122 99.3627,67.6881 108.0407,75.9322 113.6814,77.2339 113.6814,81.139 111.5119,85.9119 108.4746,86.3458" stroke="#0000cc" stroke-width="2" /><polyline fill="none" points="97.6271,67.6881 98.4949,72.8949 101.5322,71.5932 104.1356,77.6678 106.3051,78.5356 106.739,76.8" stroke="#0008ff" stroke-width="2" /><polyline fill="none" points="108.0407,84.1763 106.739,80.2712 102.4,82.0068 98.4949,75.4983 93.2881,77.2339" stroke="#004cff" stroke-width="2" /><polyline fill="none" points="109.7763,69.8576 109.7763,70.2915" stroke="#0090ff" stroke-width="2" /><polyline fill="none" points="101.9661,66.3864 101.9661,66.3864" stroke="#00d4ff" stroke-width="2" /><polyline fill="none" points="98.9288,62.4814 102.8339,49.4644 105.4373,60.7458 107.6068,58.5763 109.7763,61.1797 112.3797,55.1051 114.5492,52.9356 114.9831,59.4441 113.6814,65.5186" stroke="#29ffcd" stroke-width="2" /><polyline fill="none" points="68.5559,79.8373 68.122,91.5525" stroke="#5fff96" stroke-width="2" /><polyline fill="none" points="74.6305,82.0068 75.0644,92.8542" stroke="#96ff5f" stroke-width="2" /><polyline fill="none" points="9.9797,81.5729 8.678,94.5898" stroke="#cdff29" stroke-width="2" /><polyline fill="none" points="15.6203,82.8746 16.4881,92.8542" stroke="#ffe500" stroke-width="2" /><polyline fill="none" points="94.5898,60.3119 90.6847,54.2373 90.2508,42.9559 80.7051,42.0881 74.6305,37.7492 68.9898,30.3729 65.9525,19.0915 70.2915,11.7153 76.3661,9.5458 85.0441,8.678 104.1356,12.5831 110.2102,16.0542 114.9831,20.8271 114.9831,27.3356 109.3424,36.4475 101.0983,43.3898 98.061,56.4068 93.722,63.7831" stroke="#ffa600" stroke-width="2" /><polyline fill="none" points="72.8949,37.3153 74.1966,32.9763 74.6305,14.7525 80.2712,32.1085 82.0068,33.4102 81.5729,12.1492 88.9492,31.2407 91.1186,41.6542" stroke="#ff6700" stroke-width="2" /><polyline fill="none" points="99.7966,33.4102 95.4576,30.3729 91.9864,18.6576 94.1559,13.8847 96.3254,13.8847 98.061,16.0542 98.9288,22.5627 96.3254,24.7322 95.0237,24.7322" stroke="#ff2800" stroke-width="2" /><polyline fill="none" points="104.1356,26.0339 100.6644,29.5051 102.8339,32.5424 105.4373,31.2407 105.8712,26.9017" stroke="#cc0000" stroke-width="2" /><polyline fill="none" points="108.0407,24.2983 110.2102,30.3729 111.5119,30.3729 113.6814,28.2034 117.5864,30.3729 117.5864,26.0339 111.9458,18.6576" stroke="#7f0000" stroke-width="2" /></svg>