<?xml version="1.0" encoding="utf-8" ?>
<svg baseProfile="tiny" height="128" version="1.2" viewBox="0,0,128,128" width="128" xmlns="http://www.w3.org/2000/svg" xmlns:ev="http://www.w3.org/2001/xml-events" xmlns:xlink="http://www.w3.org/1999/xlink"><defs /><polyline fill="none" points="28.2993,51.3741 24.8163,80.1088 27.8639,98.8299 34.8299,111.0204 48.3265,117.1156 63.5646,119.2925 79.2381,112.3265 88.381,104.4898 102.3129,86.2041 107.102,74.0136 107.9728,66.6122 103.1837,53.1156 101.0068,49.1973 96.2177,47.8912 97.0884,21.7687 94.4762,15.6735 84.898,10.0136 80.1088,8.7075 74.8844,10.0136 70.5306,14.8027 58.7755,35.7007 48.7619,33.0884 31.7823,25.6871 25.2517,27.4286 25.6871,66.1769" stroke="#00007f" stroke-width="2" /><polyline fill="none" points="43.9728,53.9864 40.4898,43.9728 38.7483,44.4082 40.9252,45.7143 58.3401,50.5034" stroke="#0000f1" stroke-width="2" /><polyline fill="none" points="77.932,46.1497 84.4626,29.6054 83.5918,43.5374 85.3333,53.551" stroke="#004cff" stroke-width="2" /><polyline fill="none" points="66.6122,82.7211 64.0,83.1565 61.3878,87.0748 64.0,87.9456 67.9184,84.4626 64.8707,86.6395" stroke="#00b0ff" stroke-width="2" /><polyline fill="none" points="69.2245,90.1224 67.9184,92.7347 67.483,104.4898 65.7415,109.7143 63.1293,112.3265 55.2925,113.6327 47.8912,112.7619 44.8435,107.102 44.4082,104.4898 46.585,101.0068" stroke="#29ffcd" stroke-width="2" /><polyline fill="none" points="66.6122,92.7347 63.1293,92.7347 73.1429,96.2177 80.5442,95.7823 87.0748,87.5102 87.5102,83.1565 84.4626,79.6735" stroke="#7cff79" stroke-width="2" /><polyline fill="none" points="76.6259,73.5782 101.4422,57.034 111.4558,47.8912" stroke="#cdff29" stroke-width="2" /><polyline fill="none" points="85.3333,80.5442 118.4218,66.6122" stroke="#ffc400" stroke-width="2" /><polyline fill="none" points="96.2177,92.7347 105.7959,97.5238" stroke="#ff6700" stroke-width="2" /><polyline fill="none" points="53.1156,89.6871 37.8776,93.1701 8.7075,94.0408" stroke="#f10700" stroke-width="2" /><polyline fill="none" points="57.9048,102.3129 50.9388,107.102" stroke="#7f0000" stroke-width="2" /></svg>