<?xml version="1.0" encoding="utf-8" ?>
<svg baseProfile="tiny" height="128" version="1.2" viewBox="0,0,128,128" width="128" xmlns="http://www.w3.org/2000/svg" xmlns:ev="http://www.w3.org/2001/xml-events" xmlns:xlink="http://www.w3.org/1999/xlink"><defs /><polyline fill="none" points="73.7627,33.4102 70.2915,30.8068 65.9525,30.8068 57.2746,35.1458 53.8034,39.0508 49.4644,47.7288 47.7288,59.0102 49.8983,66.8203 56.8407,74.6305 68.122,78.9695 75.0644,78.5356 82.4407,75.4983 88.9492,66.8203 90.2508,60.7458 89.8169,53.8034 84.6102,43.3898 80.7051,39.9186 74.6305,36.8814 64.2169,35.5797" stroke="#00007f" stroke-width="2" /><polyline fill="none" points="52.5017,43.3898 40.3525,15.1864 61.1797,37.3153 63.3492,37.7492 65.0847,36.4475" stroke="#0000d5" stroke-width="2" /><polyline fill="none" points="67.2542,29.5051 73.7627,15.1864 79.8373,8.678 78.9695,30.3729 81.139,40.3525" stroke="#001cff" stroke-width="2" /><polyline fill="none" points="65.5186,43.3898 68.9898,47.7288 68.122,45.5593" stroke="#006cff" stroke-width="2" /><polyline fill="none" points="75.9322,46.4271 76.3661,48.5966" stroke="#00b8ff" stroke-width="2" /><polyline fill="none" points="68.9898,55.1051 68.122,60.7458" stroke="#1cffda" stroke-width="2" /><polyline fill="none" points="70.7254,54.2373 74.1966,59.4441 71.1593,61.6136" stroke="#5cff9a" stroke-width="2" /><polyline fill="none" points="75.9322,56.8407 104.1356,41.2203 118.4542,36.4475" stroke="#9aff5c" stroke-width="2" /><polyline fill="none" points="83.7424,59.878 108.0407,46.861" stroke="#daff1c" stroke-width="2" /><polyline fill="none" points="94.5898,63.3492 119.322,59.0102" stroke="#ffcb00" stroke-width="2" /><polyline fill="none" points="61.6136,59.878 42.522,57.2746 15.6203,59.4441 8.678,61.6136" stroke="#ff8500" stroke-width="2" /><polyline fill="none" points="58.5763,63.7831 52.0678,63.7831 29.0712,68.5559" stroke="#ff3b00" stroke-width="2" /><polyline fill="none" points="60.3119,66.8203 47.2949,70.7254 27.3356,79.4034" stroke="#d50000" stroke-width="2" /><polyline fill="none" points="72.461,61.1797 69.8576,70.2915 63.7831,77.2339 61.6136,78.1017" stroke="#7f0000" stroke-width="2" /></svg>