<?xml version="1.0" encoding="utf-8" ?>
<svg baseProfile="tiny" height="128" version="1.2" viewBox="0,0,128,128" width="128" xmlns="http://www.w3.org/2000/svg" xmlns:ev="http://www.w3.org/2001/xml-events" xmlns:xlink="http://www.w3.org/1999/xlink"><defs /><polyline fill="none" points="67.6881,49.0305 56.8407,44.6915 39.9186,44.6915 30.3729,49.0305 19.0915,60.3119 14.7525,72.461 13.4508,89.8169 16.4881,108.4746 19.5254,114.9831 36.4475,119.322 52.9356,116.2847 65.5186,109.7763 82.4407,91.5525 88.0814,82.8746 91.1186,75.4983 77.2339,54.2373 64.6508,45.5593" stroke="#00007f" stroke-width="2" /><polyline fill="none" points="61.1797,44.6915 87.2136,25.6 93.2881,23.8644 93.2881,30.3729 85.478,46.861 82.4407,59.878" stroke="#0010ff" stroke-width="2" /><polyline fill="none" points="39.9186,43.8237 26.0339,29.0712 16.922,12.1492 10.4136,8.678 14.3186,40.3525 14.7525,51.6339 17.3559,62.4814" stroke="#00a4ff" stroke-width="2" /><polyline fill="none" points="38.6169,72.461 34.278,70.2915 28.2034,70.7254 27.3356,78.9695 34.278,78.9695 40.3525,73.7627 37.7492,72.8949" stroke="#3fffb7" stroke-width="2" /><polyline fill="none" points="61.1797,75.4983 50.7661,74.6305 48.5966,78.1017 48.5966,81.139 51.2,83.3085 59.4441,83.7424 61.1797,80.7051 61.1797,75.4983" stroke="#b7ff3f" stroke-width="2" /><polyline fill="none" points="29.5051,93.722 12.5831,81.139" stroke="#ffb900" stroke-width="2" /><polyline fill="none" points="25.1661,95.8915 10.4136,96.3254" stroke="#ff3000" stroke-width="2" /><polyline fill="none" points="24.2983,101.0983 8.678,104.5695" stroke="#7f0000" stroke-width="2" /></svg>