<?xml version="1.0" encoding="utf-8" ?>
<svg baseProfile="tiny" height="128" version="1.2" viewBox="0,0,128,128" width="128" xmlns="http://www.w3.org/2000/svg" xmlns:ev="http://www.w3.org/2001/xml-events" xmlns:xlink="http://www.w3.org/1999/xlink"><defs /><polyline fill="none" points="64.2169,57.7085 61.6136,59.878 61.6136,64.2169 65.5186,65.5186 69.4237,65.5186 72.461,61.6136 73.3288,57.7085 65.9525,55.539 62.0475,58.5763" stroke="#00007f" stroke-width="2" /><polyline fill="none" points="50.7661,62.9153 39.0508,64.2169 8.678,71.5932" stroke="#0000de" stroke-width="2" /><polyline fill="none" points="51.6339,67.6881 31.6746,76.3661 26.4678,80.7051" stroke="#0028ff" stroke-width="2" /><polyline fill="none" points="45.1254,57.7085 39.9186,54.2373 26.4678,50.7661" stroke="#0080ff" stroke-width="2" /><polyline fill="none" points="86.3458,56.8407 119.322,53.3695" stroke="#00d4ff" stroke-width="2" /><polyline fill="none" points="83.7424,61.6136 113.2475,63.7831 111.078,65.0847" stroke="#36ffc0" stroke-width="2" /><polyline fill="none" points="85.0441,70.2915 107.6068,72.8949" stroke="#7cff79" stroke-width="2" /><polyline fill="none" points="35.5797,29.939 37.3153,17.3559 41.2203,12.1492 44.6915,9.1119 48.1627,8.678 49.8983,10.8475 51.6339,24.2983" stroke="#c0ff36" stroke-width="2" /><polyline fill="none" points="75.4983,22.9966 78.5356,15.6203 82.0068,12.1492 85.0441,11.7153 90.2508,13.0169 92.8542,17.7898 92.8542,26.0339 91.1186,30.8068" stroke="#ffe500" stroke-width="2" /><polyline fill="none" points="53.8034,41.2203 55.539,44.2576 57.7085,43.3898 56.8407,40.3525 52.9356,39.9186 51.6339,40.7864" stroke="#ff9400" stroke-width="2" /><polyline fill="none" points="72.0271,40.7864 72.0271,44.2576 73.7627,44.6915 76.8,43.3898 77.6678,41.6542 75.4983,40.7864 72.0271,41.2203" stroke="#ff4600" stroke-width="2" /><polyline fill="none" points="33.8441,31.6746 27.3356,38.1831 22.5627,48.1627 20.3932,61.6136 22.1288,79.4034 27.3356,88.0814 36.0136,93.722 59.878,95.8915 86.7797,85.9119 91.9864,81.139 97.6271,71.1593 102.4,52.9356 102.8339,35.5797 100.2305,32.1085 93.722,32.5424 91.9864,31.2407" stroke="#de0000" stroke-width="2" /><polyline fill="none" points="53.3695,26.9017 73.7627,25.1661" stroke="#7f0000" stroke-width="2" /></svg>