<?xml version="1.0" encoding="utf-8" ?>
<svg baseProfile="tiny" height="128" version="1.2" viewBox="0,0,128,128" width="128" xmlns="http://www.w3.org/2000/svg" xmlns:ev="http://www.w3.org/2001/xml-events" xmlns:xlink="http://www.w3.org/1999/xlink"><defs /><polyline fill="none" points="59.0102,34.7119 53.8034,38.1831 49.8983,45.5593 49.4644,59.0102 51.6339,64.6508 58.1424,72.0271 67.2542,75.9322 75.0644,77.2339 84.1763,76.3661 92.4203,68.9898 102.4,52.0678 102.4,48.1627 99.7966,42.0881 97.1932,39.0508 91.1186,36.4475 97.6271,13.0169 85.9119,31.6746 72.8949,32.5424 64.6508,8.678 59.4441,36.4475" stroke="#00007f" stroke-width="2" /><polyline fill="none" points="92.8542,52.5017 102.8339,45.9932 117.5864,40.7864" stroke="#0028ff" stroke-width="2" /><polyline fill="none" points="92.8542,55.1051 119.322,62.9153" stroke="#00d4ff" stroke-width="2" /><polyline fill="none" points="90.2508,60.3119 105.4373,78.1017 108.0407,87.2136" stroke="#7cff79" stroke-width="2" /><polyline fill="none" points="55.1051,41.2203 51.2,40.3525 39.9186,31.6746 31.2407,22.1288" stroke="#ffe500" stroke-width="2" /><polyline fill="none" points="53.3695,47.7288 28.6373,53.8034 8.678,57.2746" stroke="#ff4600" stroke-width="2" /><polyline fill="none" points="53.8034,62.0475 47.2949,64.2169" stroke="#7f0000" stroke-width="2" /></svg>