<?xml version="1.0" encoding="utf-8" ?>
<svg baseProfile="tiny" height="128" version="1.2" viewBox="0,0,128,128" width="128" xmlns="http://www.w3.org/2000/svg" xmlns:ev="http://www.w3.org/2001/xml-events" xmlns:xlink="http://www.w3.org/1999/xlink"><defs /><polyline fill="none" points="63.7831,60.7458 64.2169,88.9492 75.4983,88.5153 82.8746,85.478 82.0068,83.3085 75.4983,82.0068 81.139,77.6678 82.8746,73.7627 75.0644,71.1593 72.0271,66.8203 70.7254,58.5763 67.2542,58.5763 66.8203,59.878" stroke="#00007f" stroke-width="2" /><polyline fill="none" points="66.8203,56.4068 44.6915,53.8034 38.1831,54.6712 33.8441,69.4237 33.4102,78.1017 47.7288,80.2712 48.1627,77.6678 44.6915,74.1966 47.7288,72.8949 41.2203,65.9525" stroke="#0000ff" stroke-width="2" /><polyline fill="none" points="46.861,48.5966 46.861,48.5966" stroke="#0080ff" stroke-width="2" /><polyline fill="none" points="47.2949,51.6339 48.5966,54.6712 68.122,56.4068 89.3831,60.7458 86.3458,78.1017 86.3458,84.1763 87.6475,88.5153 103.2678,84.1763 105.8712,78.9695 100.2305,76.3661 99.3627,76.8 109.3424,70.2915 113.6814,64.6508 97.6271,60.7458" stroke="#15ffe1" stroke-width="2" /><polyline fill="none" points="43.3898,52.5017 17.7898,50.3322 17.3559,57.7085 8.678,78.9695 22.5627,80.2712 25.6,77.6678 26.4678,68.122 23.4305,66.8203 21.261,68.122 25.1661,67.6881 27.7695,61.6136 27.7695,58.1424 20.8271,55.539" stroke="#7cff79" stroke-width="2" /><polyline fill="none" points="82.8746,62.9153 112.8136,62.4814 118.8881,53.8034 119.322,48.5966 109.7763,18.2237 103.2678,13.4508 99.3627,12.5831 67.6881,10.8475 50.7661,11.2814 26.9017,14.3186 16.0542,24.7322 13.0169,39.9186 16.4881,48.1627 31.2407,53.8034 39.9186,54.2373" stroke="#e4ff12" stroke-width="2" /><polyline fill="none" points="96.7593,8.678 96.7593,57.7085" stroke="#ff9400" stroke-width="2" /><polyline fill="none" points="108.0407,33.4102 107.6068,31.2407 107.1729,33.8441" stroke="#ff1d00" stroke-width="2" /><polyline fill="none" points="101.5322,10.8475 101.5322,10.8475" stroke="#7f0000" stroke-width="2" /></svg>