<?xml version="1.0" encoding="utf-8" ?>
<svg baseProfile="tiny" height="128" version="1.2" viewBox="0,0,128,128" width="128" xmlns="http://www.w3.org/2000/svg" xmlns:ev="http://www.w3.org/2001/xml-events" xmlns:xlink="http://www.w3.org/1999/xlink"><defs /><polyline fill="none" points="29.2696,51.5495 31.0171,48.9283 33.2014,24.4642 36.6962,16.6007 38.0068,16.6007 45.4334,30.5802 49.802,47.1809 63.3447,38.4437 69.8976,37.1331 77.7611,37.1331 80.3823,39.3174 86.0614,48.9283 93.4881,18.785 97.4198,9.6109 98.7304,8.7372 102.6621,15.727 108.7782,36.2594 111.3993,53.7338 111.3993,71.6451 107.9044,83.4403 95.2355,102.2253 84.314,112.273 70.3345,118.3891 52.4232,119.2628 41.9386,114.8942 31.0171,106.5939 23.1536,98.7304 17.4744,91.3038 11.7952,76.8874 9.6109,65.9659 10.0478,56.3549 13.9795,48.4915" stroke="#00007f" stroke-width="2" /><polyline fill="none" points="69.4608,72.9556 68.1502,71.6451 63.7816,71.6451 61.5973,73.3925 60.7235,79.5085 62.9078,82.5666 69.0239,83.0034 71.2082,80.3823 71.2082,76.0137 65.529,72.0819" stroke="#0000ff" stroke-width="2" /><polyline fill="none" points="8.7372,53.2969 12.6689,51.1126 29.7065,48.9283" stroke="#0080ff" stroke-width="2" /><polyline fill="none" points="60.2867,76.4505 37.57,71.6451" stroke="#15ffe1" stroke-width="2" /><polyline fill="none" points="59.8498,79.5085 41.5017,82.5666" stroke="#7cff79" stroke-width="2" /><polyline fill="none" points="70.3345,75.5768 86.9352,73.8294" stroke="#e4ff12" stroke-width="2" /><polyline fill="none" points="71.6451,82.5666 82.1297,83.8771 85.1877,84.314 85.1877,83.0034" stroke="#ff9400" stroke-width="2" /><polyline fill="none" points="51.5495,58.9761 48.9283,58.5392 47.1809,61.1604 47.6177,62.0341 50.2389,62.0341 51.5495,60.7235 51.5495,57.6655" stroke="#ff1d00" stroke-width="2" /><polyline fill="none" points="72.9556,57.6655 68.1502,56.7918 69.4608,59.413 72.5188,59.413 72.9556,58.1024 70.3345,56.7918" stroke="#7f0000" stroke-width="2" /></svg>