<?xml version="1.0" encoding="utf-8" ?>
<svg baseProfile="tiny" height="128" version="1.2" viewBox="0,0,128,128" width="128" xmlns="http://www.w3.org/2000/svg" xmlns:ev="http://www.w3.org/2001/xml-events" xmlns:xlink="http://www.w3.org/1999/xlink"><defs /><polyline fill="none" points="38.6169,35.5797 38.6169,19.0915 39.9186,12.5831 46.861,23.8644 65.5186,24.2983 73.3288,26.9017 81.139,17.7898 95.0237,8.678 95.0237,16.922 93.2881,25.1661 105.0034,34.7119 108.4746,41.6542 108.9085,47.2949 105.8712,55.1051 102.8339,59.0102 94.5898,65.5186 75.4983,71.1593 62.4814,70.2915 48.5966,66.3864 46.4271,64.6508 42.9559,57.7085 41.6542,50.3322 42.0881,39.9186" stroke="#00007f" stroke-width="2" /><polyline fill="none" points="49.8983,36.8814 50.3322,45.5593" stroke="#0000fe" stroke-width="2" /><polyline fill="none" points="78.9695,41.2203 79.8373,49.0305" stroke="#0060ff" stroke-width="2" /><polyline fill="none" points="60.3119,56.4068 71.5932,57.7085" stroke="#00d4ff" stroke-width="2" /><polyline fill="none" points="95.8915,40.7864 119.322,41.6542" stroke="#4cffaa" stroke-width="2" /><polyline fill="none" points="89.3831,52.9356 105.8712,55.9729" stroke="#aaff4c" stroke-width="2" /><polyline fill="none" points="89.8169,57.2746 119.322,69.4237" stroke="#ffe500" stroke-width="2" /><polyline fill="none" points="8.678,35.1458 34.278,42.522" stroke="#ff7a00" stroke-width="2" /><polyline fill="none" points="12.5831,51.6339 19.0915,53.3695 51.2,53.3695 52.5017,54.2373" stroke="#fe1200" stroke-width="2" /><polyline fill="none" points="44.6915,61.1797 40.3525,66.3864 27.7695,74.1966" stroke="#7f0000" stroke-width="2" /></svg>