<?xml version="1.0" encoding="utf-8" ?>
<svg baseProfile="tiny" height="128" version="1.2" viewBox="0,0,128,128" width="128" xmlns="http://www.w3.org/2000/svg" xmlns:ev="http://www.w3.org/2001/xml-events" xmlns:xlink="http://www.w3.org/1999/xlink"><defs /><polyline fill="none" points="52.0678,116.7186 26.0339,115.8508 16.0542,105.0034 13.0169,97.1932 8.678,78.9695 8.678,66.3864 13.0169,51.6339 13.0169,36.8814 18.2237,10.4136 21.261,11.7153 37.3153,32.9763 42.522,41.6542 45.5593,52.0678 45.5593,47.7288 47.7288,46.861 59.878,46.861 72.0271,52.5017 73.3288,39.4847 81.5729,24.2983 86.3458,18.6576 90.6847,8.678 96.3254,31.6746 98.061,54.6712 98.061,78.5356 93.722,91.9864 86.7797,106.739 70.7254,119.322 52.0678,119.322" stroke="#00007f" stroke-width="2" /><polyline fill="none" points="35.5797,73.7627 34.278,71.5932 38.1831,71.5932 38.1831,74.1966 36.0136,75.0644" stroke="#0010ff" stroke-width="2" /><polyline fill="none" points="55.539,75.9322 55.1051,76.8" stroke="#00a4ff" stroke-width="2" /><polyline fill="none" points="45.9932,93.2881 44.2576,88.9492 50.3322,90.2508 50.3322,92.4203 46.4271,94.1559" stroke="#3fffb7" stroke-width="2" /><polyline fill="none" points="45.5593,94.1559 45.5593,100.6644 40.3525,101.0983 49.8983,101.0983 53.8034,98.4949" stroke="#b7ff3f" stroke-width="2" /><polyline fill="none" points="42.9559,88.0814 37.7492,85.478 13.4508,79.8373" stroke="#ffb900" stroke-width="2" /><polyline fill="none" points="42.9559,88.5153 23.4305,87.2136" stroke="#ff3000" stroke-width="2" /><polyline fill="none" points="43.8237,88.5153 39.0508,90.2508 25.1661,90.6847 20.8271,92.8542" stroke="#7f0000" stroke-width="2" /></svg>