<?xml version="1.0" encoding="utf-8" ?>
<svg baseProfile="tiny" height="128" version="1.2" viewBox="0,0,128,128" width="128" xmlns="http://www.w3.org/2000/svg" xmlns:ev="http://www.w3.org/2001/xml-events" xmlns:xlink="http://www.w3.org/1999/xlink"><defs /><polyline fill="none" points="46.861,108.0407 23.8644,95.0237 15.1864,85.0441 12.5831,79.4034 10.4136,67.6881 10.4136,54.6712 12.5831,48.1627 20.3932,38.6169 40.3525,26.0339 46.4271,23.4305 58.1424,21.261 83.7424,21.261 86.3458,22.1288 89.3831,25.6 96.3254,39.4847 101.0983,44.2576 102.8339,53.8034 102.4,71.1593 95.4576,84.1763 91.5525,89.3831 81.5729,95.0237 63.3492,99.7966 54.6712,104.5695 45.9932,105.8712" stroke="#00007f" stroke-width="2" /><polyline fill="none" points="10.4136,38.1831 10.4136,38.1831" stroke="#0080ff" stroke-width="2" /><polyline fill="none" points="10.4136,37.7492 10.8475,37.7492" stroke="#7cff79" stroke-width="2" /><polyline fill="none" points="12.1492,38.1831 12.5831,32.1085 9.1119,17.3559 8.678,8.678 12.1492,9.5458 21.261,24.2983 26.9017,29.939 29.939,32.1085 36.0136,32.1085" stroke="#ff9400" stroke-width="2" /><polyline fill="none" points="88.0814,27.7695 92.4203,22.5627 101.0983,16.0542 119.322,8.678 119.322,11.2814 111.9458,23.4305 108.9085,36.0136 101.0983,45.5593" stroke="#7f0000" stroke-width="2" /></svg>