<?xml version="1.0" encoding="utf-8" ?>
<svg baseProfile="tiny" height="128" version="1.2" viewBox="0,0,128,128" width="128" xmlns="http://www.w3.org/2000/svg" xmlns:ev="http://www.w3.org/2001/xml-events" xmlns:xlink="http://www.w3.org/1999/xlink"><defs /><polyline fill="none" points="27.4286,30.4762 10.449,45.2789 8.7075,50.5034 8.7075,58.3401 10.0136,61.3878 13.4966,64.8707 26.5578,66.1769 37.4422,61.3878 46.585,53.1156 47.0204,41.3605 43.5374,33.9592 36.5714,25.6871 31.7823,23.5102 25.2517,22.6395" stroke="#00007f" stroke-width="2" /><polyline fill="none" points="11.3197,46.585 12.1905,37.4422 17.8503,20.898 22.2041,37.0068" stroke="#0000ff" stroke-width="2" /><polyline fill="none" points="22.6395,33.5238 29.6054,16.9796 33.5238,12.1905 38.3129,20.0272 40.0544,30.9116" stroke="#0080ff" stroke-width="2" /><polyline fill="none" points="46.1497,51.3741 38.7483,64.8707 37.4422,69.2245 74.449,83.5918 88.8163,84.898 106.6667,79.2381 107.102,67.0476 101.8776,55.7279 93.1701,48.7619 84.4626,47.4558 77.0612,49.1973 58.3401,42.2313 50.9388,42.2313 45.7143,45.2789" stroke="#15ffe1" stroke-width="2" /><polyline fill="none" points="102.3129,53.551 107.5374,39.1837 112.3265,14.8027 116.6803,8.7075 119.2925,15.2381 119.2925,20.898 113.6327,40.9252 103.619,60.0816" stroke="#7cff79" stroke-width="2" /><polyline fill="none" points="17.8503,44.4082 19.1565,45.2789" stroke="#e4ff12" stroke-width="2" /><polyline fill="none" points="31.7823,43.5374 29.1701,48.3265" stroke="#ff9400" stroke-width="2" /><polyline fill="none" points="20.0272,53.551 28.2993,53.551 28.2993,57.9048 25.2517,61.3878 20.4626,59.2109 17.8503,53.9864" stroke="#ff1d00" stroke-width="2" /><polyline fill="none" points="28.2993,66.1769 28.7347,67.0476 30.0408,67.0476 35.2653,60.9524 35.7007,47.0204" stroke="#7f0000" stroke-width="2" /></svg>