<?xml version="1.0" encoding="utf-8" ?>
<svg baseProfile="tiny" height="128" version="1.2" viewBox="0,0,128,128" width="128" xmlns="http://www.w3.org/2000/svg" xmlns:ev="http://www.w3.org/2001/xml-events" xmlns:xlink="http://www.w3.org/1999/xlink"><defs /><polyline fill="none" points="42.522,36.0136 45.1254,34.278 85.0441,34.278 91.9864,37.3153 108.4746,69.4237 106.739,75.0644 85.478,95.0237 60.7458,99.7966 55.1051,98.9288 39.9186,91.9864 25.6,65.5186 24.2983,56.4068 30.3729,41.6542 40.7864,36.0136" stroke="#00007f" stroke-width="2" /><polyline fill="none" points="27.7695,35.5797 29.939,30.3729 9.1119,8.678 8.678,13.4508 11.2814,37.3153 21.261,68.5559 29.939,87.2136 30.8068,92.4203 29.5051,93.2881" stroke="#0080ff" stroke-width="2" /><polyline fill="none" points="88.9492,36.8814 90.2508,34.7119 96.3254,30.8068 108.9085,19.9593 117.1525,14.7525 119.322,15.1864 111.5119,53.3695 109.3424,60.3119 105.0034,68.122" stroke="#7cff79" stroke-width="2" /><polyline fill="none" points="82.4407,65.5186 82.0068,64.6508" stroke="#ff9400" stroke-width="2" /><polyline fill="none" points="42.522,56.4068 42.0881,56.4068" stroke="#7f0000" stroke-width="2" /></svg>