<?xml version="1.0" encoding="utf-8" ?>
<svg baseProfile="tiny" height="128" version="1.2" viewBox="0,0,128,128" width="128" xmlns="http://www.w3.org/2000/svg" xmlns:ev="http://www.w3.org/2001/xml-events" xmlns:xlink="http://www.w3.org/1999/xlink"><defs /><polyline fill="none" points="8.678,36.4475 14.3186,32.9763 28.2034,12.1492 34.278,8.678 36.8814,9.1119 36.8814,35.1458 39.4847,36.4475 44.6915,31.2407 49.8983,20.8271 56.8407,14.3186 55.539,43.3898 53.3695,55.1051 50.7661,60.3119 45.5593,65.9525 31.6746,69.8576 25.1661,62.9153 20.8271,53.8034 18.2237,42.522 18.6576,26.0339 19.0915,34.7119 21.6949,39.9186" stroke="#00007f" stroke-width="2" /><polyline fill="none" points="34.278,44.6915 33.4102,47.2949 35.5797,49.8983 37.7492,47.2949 37.7492,42.9559 36.0136,41.2203" stroke="#0028ff" stroke-width="2" /><polyline fill="none" points="36.0136,46.861 36.4475,53.3695 33.8441,55.539 29.939,53.8034" stroke="#00d4ff" stroke-width="2" /><polyline fill="none" points="36.8814,49.8983 39.9186,52.9356 44.2576,54.2373 47.2949,47.2949" stroke="#7cff79" stroke-width="2" /><polyline fill="none" points="52.0678,31.2407 53.3695,36.0136" stroke="#ffe500" stroke-width="2" /><polyline fill="none" points="23.8644,33.4102 25.1661,36.4475" stroke="#ff4600" stroke-width="2" /><polyline fill="none" points="52.5017,59.4441 54.2373,56.8407 57.2746,55.539 74.1966,55.1051 95.0237,61.6136 103.7017,66.3864 114.5492,76.8 118.0203,84.1763 119.322,95.0237 115.8508,102.8339 105.4373,106.3051 89.8169,107.1729 72.461,103.7017 55.9729,97.6271 36.8814,84.6102 36.0136,72.0271" stroke="#7f0000" stroke-width="2" /></svg>