<?xml version="1.0" encoding="utf-8" ?>
<svg baseProfile="tiny" height="128" version="1.2" viewBox="0,0,128,128" width="128" xmlns="http://www.w3.org/2000/svg" xmlns:ev="http://www.w3.org/2001/xml-events" xmlns:xlink="http://www.w3.org/1999/xlink"><defs /><polyline fill="none" points="53.8034,29.0712 49.8983,31.2407 47.2949,37.3153 46.861,45.9932 49.0305,52.0678 51.6339,55.1051 56.8407,56.4068 59.4441,63.3492 62.0475,66.8203 72.8949,69.4237 76.3661,65.9525 78.5356,56.4068 91.5525,57.7085 95.8915,52.5017 97.1932,39.4847 94.5898,33.8441 88.5153,28.6373" stroke="#00007f" stroke-width="2" /><polyline fill="none" points="60.7458,47.7288 32.1085,58.1424" stroke="#0000de" stroke-width="2" /><polyline fill="none" points="56.8407,40.3525 22.9966,39.9186" stroke="#0028ff" stroke-width="2" /><polyline fill="none" points="51.6339,35.5797 30.8068,30.3729 8.678,26.4678" stroke="#0080ff" stroke-width="2" /><polyline fill="none" points="82.0068,37.7492 111.9458,37.3153" stroke="#00d4ff" stroke-width="2" /><polyline fill="none" points="90.2508,43.8237 98.9288,45.5593 117.5864,45.5593" stroke="#36ffc0" stroke-width="2" /><polyline fill="none" points="82.0068,50.3322 108.0407,57.7085 119.322,62.9153" stroke="#7cff79" stroke-width="2" /><polyline fill="none" points="63.7831,52.9356 78.5356,52.5017" stroke="#c0ff36" stroke-width="2" /><polyline fill="none" points="65.9525,19.9593 63.7831,20.3932 63.3492,22.1288 65.9525,22.9966 67.2542,22.1288 68.122,19.0915 66.8203,18.2237" stroke="#ffe500" stroke-width="2" /><polyline fill="none" points="78.9695,18.6576 72.461,19.0915 72.0271,21.261 75.4983,22.9966 77.6678,18.6576 76.8,15.6203" stroke="#ff9400" stroke-width="2" /><polyline fill="none" points="57.2746,26.9017 59.4441,15.6203 62.0475,11.7153 69.4237,9.1119 81.5729,8.678 90.6847,11.7153 94.5898,15.1864 96.3254,26.0339 95.8915,35.1458" stroke="#ff4600" stroke-width="2" /><polyline fill="none" points="92.4203,12.5831 111.078,11.7153 108.0407,16.922 97.1932,22.5627" stroke="#de0000" stroke-width="2" /><polyline fill="none" points="61.1797,9.9797 32.9763,10.8475 38.6169,15.1864 59.4441,26.0339" stroke="#7f0000" stroke-width="2" /></svg>