<?xml version="1.0" encoding="utf-8" ?>
<svg baseProfile="tiny" height="128" version="1.2" viewBox="0,0,128,128" width="128" xmlns="http://www.w3.org/2000/svg" xmlns:ev="http://www.w3.org/2001/xml-events" xmlns:xlink="http://www.w3.org/1999/xlink"><defs /><polyline fill="none" points="98.7304,32.3276 94.7986,26.6485 86.0614,25.3379 79.9454,31.4539 77.7611,38.0068 77.7611,44.5597 79.9454,51.5495 85.1877,57.6655 95.6724,63.3447 102.6621,62.471 107.0307,55.4812 107.4676,39.7543 104.8464,33.2014 98.2935,25.3379" stroke="#00007f" stroke-width="2" /><polyline fill="none" points="98.2935,31.0171 102.6621,25.3379 119.2628,15.727 118.3891,25.3379 115.7679,32.7645 106.157,34.0751" stroke="#004cff" stroke-width="2" /><polyline fill="none" points="87.372,23.5904 79.5085,14.8532 71.2082,8.7372 69.4608,9.1741 69.4608,16.6007 71.2082,23.1536 75.5768,31.4539 79.9454,34.5119" stroke="#29ffcd" stroke-width="2" /><polyline fill="none" points="84.7509,38.8805 86.0614,34.9488 84.314,33.2014 82.1297,34.0751 81.6928,41.5017 84.7509,44.9966 86.4983,42.8123 86.0614,35.3857" stroke="#cdff29" stroke-width="2" /><polyline fill="none" points="94.7986,40.1911 92.6143,40.1911 90.8669,42.3754 91.3038,48.4915 94.7986,51.1126 100.4778,49.802 98.2935,44.9966 93.9249,42.3754" stroke="#ff6700" stroke-width="2" /><polyline fill="none" points="111.8362,43.686 100.041,43.2491 110.9625,44.9966 105.2833,48.4915 98.7304,50.2389 14.8532,62.471 8.7372,62.471 9.6109,61.1604 21.843,55.0444 47.1809,44.5597" stroke="#7f0000" stroke-width="2" /></svg>