<?xml version="1.0" encoding="utf-8" ?>
<svg baseProfile="tiny" height="128" version="1.2" viewBox="0,0,128,128" width="128" xmlns="http://www.w3.org/2000/svg" xmlns:ev="http://www.w3.org/2001/xml-events" xmlns:xlink="http://www.w3.org/1999/xlink"><defs /><polyline fill="none" points="22.5627,36.8814 19.5254,36.4475 16.922,37.7492 9.1119,54.6712 8.678,58.1424 23.8644,72.461 32.5424,75.0644 46.861,75.4983 56.4068,67.2542 60.3119,58.5763 60.3119,49.4644 54.6712,45.9932 22.5627,42.0881" stroke="#00007f" stroke-width="2" /><polyline fill="none" points="16.0542,33.4102 15.1864,8.678 33.4102,43.3898" stroke="#0028ff" stroke-width="2" /><polyline fill="none" points="41.6542,41.2203 41.2203,32.9763 43.8237,26.4678 50.7661,16.0542 53.3695,13.8847 56.8407,18.2237 57.2746,22.1288 55.9729,58.1424" stroke="#00d4ff" stroke-width="2" /><polyline fill="none" points="19.5254,48.5966 19.5254,48.5966" stroke="#7cff79" stroke-width="2" /><polyline fill="none" points="17.7898,50.7661 17.7898,50.7661" stroke="#ffe500" stroke-width="2" /><polyline fill="none" points="15.1864,64.2169 18.2237,65.9525 26.9017,66.8203 29.939,58.1424" stroke="#ff4600" stroke-width="2" /><polyline fill="none" points="52.9356,73.3288 50.3322,76.3661 49.0305,84.1763 49.0305,108.9085 52.0678,117.1525 56.8407,119.322 68.5559,118.4542 71.1593,110.2102 71.1593,99.7966 68.9898,93.722 68.9898,88.0814" stroke="#7f0000" stroke-width="2" /></svg>