<?xml version="1.0" encoding="utf-8" ?>
<svg baseProfile="tiny" height="128" version="1.2" viewBox="0,0,128,128" width="128" xmlns="http://www.w3.org/2000/svg" xmlns:ev="http://www.w3.org/2001/xml-events" xmlns:xlink="http://www.w3.org/1999/xlink"><defs /><polyline fill="none" points="49.0305,21.261 49.0305,19.9593" stroke="#00007f" stroke-width="2" /><polyline fill="none" points="28.2034,19.9593 28.2034,19.9593" stroke="#0000c8" stroke-width="2" /><polyline fill="none" points="26.9017,19.5254 26.4678,19.5254" stroke="#0000ff" stroke-width="2" /><polyline fill="none" points="34.7119,32.5424 32.1085,39.4847 28.2034,41.6542 22.9966,41.6542 19.9593,36.4475" stroke="#0040ff" stroke-width="2" /><polyline fill="none" points="34.7119,31.2407 34.7119,36.4475 42.0881,40.3525 46.4271,39.4847 50.3322,35.5797" stroke="#0080ff" stroke-width="2" /><polyline fill="none" points="50.7661,28.6373 63.3492,27.7695" stroke="#00c0ff" stroke-width="2" /><polyline fill="none" points="56.4068,31.2407 62.4814,31.6746" stroke="#15ffe1" stroke-width="2" /><polyline fill="none" points="54.6712,34.7119 63.3492,35.5797" stroke="#49ffad" stroke-width="2" /><polyline fill="none" points="22.5627,30.8068 16.4881,30.8068" stroke="#7cff79" stroke-width="2" /><polyline fill="none" points="23.8644,32.9763 15.6203,33.4102" stroke="#b0ff46" stroke-width="2" /><polyline fill="none" points="19.0915,36.4475 10.8475,38.1831" stroke="#e4ff12" stroke-width="2" /><polyline fill="none" points="34.278,27.7695 34.7119,27.7695" stroke="#ffcf00" stroke-width="2" /><polyline fill="none" points="43.3898,14.3186 54.2373,9.5458 55.539,11.2814 56.4068,20.8271" stroke="#ff9400" stroke-width="2" /><polyline fill="none" points="31.6746,16.0542 26.0339,10.4136 19.5254,8.678 15.6203,20.8271" stroke="#ff5900" stroke-width="2" /><polyline fill="none" points="15.6203,20.8271 9.1119,24.2983 8.678,30.8068 10.8475,40.3525 13.0169,43.3898 16.922,46.4271 26.0339,48.5966 63.7831,48.1627 72.8949,44.6915 74.6305,41.2203 75.0644,36.0136 63.3492,28.2034 59.878,23.8644" stroke="#ff1d00" stroke-width="2" /><polyline fill="none" points="31.6746,15.6203 38.1831,16.0542" stroke="#c30000" stroke-width="2" /><polyline fill="none" points="61.1797,24.7322 93.2881,27.7695 115.8508,32.9763 119.322,37.7492 118.8881,41.2203 107.1729,46.4271 66.3864,47.7288 63.3492,57.7085" stroke="#7f0000" stroke-width="2" /></svg>