<?xml version="1.0" encoding="utf-8" ?>
<svg baseProfile="tiny" height="128" version="1.2" viewBox="0,0,128,128" width="128" xmlns="http://www.w3.org/2000/svg" xmlns:ev="http://www.w3.org/2001/xml-events" xmlns:xlink="http://www.w3.org/1999/xlink"><defs /><polyline fill="none" points="13.8847,52.5017 17.3559,52.0678 18.6576,45.1254 26.4678,36.0136 41.2203,28.6373 52.5017,26.0339 59.878,26.9017 65.0847,30.8068 66.8203,36.4475 65.9525,45.1254 58.5763,54.2373 46.4271,64.2169 34.278,70.2915 26.9017,72.0271 20.8271,70.2915 16.0542,63.3492 14.3186,53.3695 14.3186,49.0305 16.0542,47.7288" stroke="#00007f" stroke-width="2" /><polyline fill="none" points="26.9017,35.1458 24.7322,30.3729 24.7322,12.5831 31.2407,23.8644 35.5797,28.2034" stroke="#0080ff" stroke-width="2" /><polyline fill="none" points="48.1627,28.6373 67.2542,8.678 68.122,10.4136 63.3492,20.8271 62.4814,26.9017" stroke="#7cff79" stroke-width="2" /><polyline fill="none" points="26.9017,72.0271 26.9017,72.0271" stroke="#ff9400" stroke-width="2" /><polyline fill="none" points="27.7695,72.461 25.6,72.461 23.8644,74.6305 18.6576,88.5153 16.0542,106.3051 17.7898,113.2475 8.678,117.1525 13.8847,119.322" stroke="#7f0000" stroke-width="2" /></svg>