<?xml version="1.0" encoding="utf-8" ?>
<svg baseProfile="tiny" height="128" version="1.2" viewBox="0,0,128,128" width="128" xmlns="http://www.w3.org/2000/svg" xmlns:ev="http://www.w3.org/2001/xml-events" xmlns:xlink="http://www.w3.org/1999/xlink"><defs /><polyline fill="none" points="32.5424,13.4508 26.9017,8.678 19.9593,8.678 11.7153,15.6203 8.678,22.9966 8.678,26.0339 11.2814,30.3729 21.6949,34.278 25.6,37.7492 29.939,43.8237 31.6746,50.3322" stroke="#00007f" stroke-width="2" /><polyline fill="none" points="36.0136,37.7492 32.5424,62.9153" stroke="#0000ff" stroke-width="2" /><polyline fill="none" points="35.1458,37.7492 38.6169,34.7119 44.6915,32.5424 49.4644,32.5424 64.6508,38.6169 71.5932,39.0508 76.8,37.3153 85.0441,32.1085 93.2881,18.2237 95.0237,22.5627 102.4,21.6949 107.1729,24.7322 109.7763,29.5051 110.2102,33.8441 107.6068,37.3153 99.3627,39.0508 95.8915,67.6881 98.9288,67.2542 100.6644,69.4237 99.7966,72.0271 90.2508,70.2915 90.2508,52.5017 89.3831,50.7661 82.4407,67.6881 81.139,68.5559 79.8373,67.6881 83.7424,67.2542 84.6102,71.1593 79.8373,72.461 77.6678,70.7254 76.3661,63.3492 76.3661,52.9356 71.1593,57.2746 61.1797,58.5763 48.1627,55.1051 47.7288,65.9525 51.2,65.0847 52.9356,68.9898 49.4644,72.0271 45.1254,69.8576 42.9559,58.1424 42.522,68.9898 39.4847,71.5932 42.522,71.1593 43.8237,75.4983 39.9186,76.3661 33.4102,72.461 30.8068,68.9898 30.3729,58.5763 32.1085,52.9356" stroke="#0080ff" stroke-width="2" /><polyline fill="none" points="108.4746,27.3356 116.7186,22.9966" stroke="#15ffe1" stroke-width="2" /><polyline fill="none" points="112.8136,32.1085 115.8508,31.2407" stroke="#7cff79" stroke-width="2" /><polyline fill="none" points="111.9458,34.7119 119.322,34.7119" stroke="#e4ff12" stroke-width="2" /><polyline fill="none" points="101.9661,39.9186 101.5322,43.8237" stroke="#ff9400" stroke-width="2" /><polyline fill="none" points="107.1729,35.5797 104.5695,42.522" stroke="#ff1d00" stroke-width="2" /><polyline fill="none" points="106.739,29.0712 100.2305,40.7864" stroke="#7f0000" stroke-width="2" /></svg>