<?xml version="1.0" encoding="utf-8" ?>
<svg baseProfile="tiny" height="128" version="1.2" viewBox="0,0,128,128" width="128" xmlns="http://www.w3.org/2000/svg" xmlns:ev="http://www.w3.org/2001/xml-events" xmlns:xlink="http://www.w3.org/1999/xlink"><defs /><polyline fill="none" points="32.5424,52.5017 26.0339,85.9119 26.9017,96.3254 28.6373,96.7593 31.6746,89.3831 37.7492,59.0102 35.5797,85.0441 35.5797,93.2881 37.7492,98.061 40.7864,95.0237 42.522,89.8169 44.2576,60.7458 53.8034,62.9153 87.2136,61.1797 88.9492,63.3492 85.478,76.8 84.1763,90.2508 84.1763,97.6271 86.3458,99.3627 91.9864,86.7797 97.6271,60.7458 96.7593,82.4407 98.061,92.8542 100.6644,96.7593 102.4,96.3254 105.4373,92.4203 107.1729,86.3458 108.4746,77.6678 107.6068,66.3864 105.0034,57.2746 98.9288,51.2 106.739,44.2576 110.2102,35.5797 108.9085,23.4305 105.0034,17.7898 100.6644,15.6203 94.1559,15.6203 85.9119,20.3932 84.6102,26.0339 88.5153,42.9559 87.2136,44.6915 40.3525,45.9932 19.5254,28.2034 9.1119,22.9966 8.678,24.7322 10.8475,28.6373 15.1864,34.7119 35.1458,52.5017" stroke="#00007f" stroke-width="2" /><polyline fill="none" points="88.0814,22.9966 83.3085,17.7898 82.0068,12.1492 82.4407,9.1119 84.1763,10.4136 87.6475,19.0915" stroke="#0000ff" stroke-width="2" /><polyline fill="none" points="98.9288,15.6203 103.2678,10.4136 106.739,8.678 109.3424,11.2814 111.078,19.0915" stroke="#0080ff" stroke-width="2" /><polyline fill="none" points="96.7593,37.3153 87.2136,37.7492 72.8949,33.4102" stroke="#15ffe1" stroke-width="2" /><polyline fill="none" points="93.722,34.278 73.7627,28.2034" stroke="#7cff79" stroke-width="2" /><polyline fill="none" points="93.722,42.522 74.6305,43.3898" stroke="#e4ff12" stroke-width="2" /><polyline fill="none" points="101.5322,36.4475 116.2847,27.7695" stroke="#ff9400" stroke-width="2" /><polyline fill="none" points="102.8339,41.2203 114.5492,37.3153" stroke="#ff1d00" stroke-width="2" /><polyline fill="none" points="101.0983,45.1254 119.322,51.6339" stroke="#7f0000" stroke-width="2" /></svg>