<?xml version="1.0" encoding="utf-8" ?>
<svg baseProfile="tiny" height="128" version="1.2" viewBox="0,0,128,128" width="128" xmlns="http://www.w3.org/2000/svg" xmlns:ev="http://www.w3.org/2001/xml-events" xmlns:xlink="http://www.w3.org/1999/xlink"><defs /><polyline fill="none" points="41.6542,41.6542 40.7864,15.1864 39.4847,8.678 41.2203,10.4136 46.861,23.4305 57.2746,35.1458" stroke="#00007f" stroke-width="2" /><polyline fill="none" points="41.2203,42.522 63.3492,33.8441 82.8746,34.278 100.6644,36.8814 107.1729,39.0508 114.5492,42.0881 116.7186,50.3322 114.9831,55.9729 107.1729,66.3864 95.8915,71.1593 68.5559,74.6305 36.4475,66.8203 34.7119,65.5186 33.8441,62.9153 34.7119,58.1424 36.8814,51.6339 43.8237,40.3525" stroke="#0010ff" stroke-width="2" /><polyline fill="none" points="102.4,33.8441 111.078,18.6576 118.4542,12.5831 119.322,15.1864 118.4542,22.1288 114.5492,36.8814" stroke="#00a4ff" stroke-width="2" /><polyline fill="none" points="60.7458,43.3898 64.2169,45.9932 64.6508,44.2576 62.0475,42.9559" stroke="#3fffb7" stroke-width="2" /><polyline fill="none" points="85.9119,45.9932 85.478,48.1627" stroke="#b7ff3f" stroke-width="2" /><polyline fill="none" points="59.4441,59.0102 65.9525,62.4814 84.6102,62.0475" stroke="#ffb900" stroke-width="2" /><polyline fill="none" points="70.7254,50.3322 69.4237,53.8034 72.461,54.6712 71.1593,49.0305" stroke="#ff3000" stroke-width="2" /><polyline fill="none" points="48.1627,56.4068 21.6949,44.2576 8.678,40.3525" stroke="#7f0000" stroke-width="2" /></svg>