<?xml version="1.0" encoding="utf-8" ?>
<svg baseProfile="tiny" height="128" version="1.2" viewBox="0,0,128,128" width="128" xmlns="http://www.w3.org/2000/svg" xmlns:ev="http://www.w3.org/2001/xml-events" xmlns:xlink="http://www.w3.org/1999/xlink"><defs /><polyline fill="none" points="62.9153,38.6169 44.6915,40.7864 37.3153,42.9559 22.9966,50.3322 13.4508,61.1797 9.9797,73.7627 11.7153,86.7797 20.8271,104.5695 31.6746,114.9831 43.8237,118.8881 49.8983,119.322 59.878,117.1525 75.9322,107.1729 88.5153,94.1559 92.4203,87.2136 93.722,80.2712 92.4203,71.1593 88.9492,57.2746 82.4407,47.7288 65.0847,36.0136 58.5763,34.278 51.6339,36.0136" stroke="#00007f" stroke-width="2" /><polyline fill="none" points="20.3932,45.9932 10.8475,28.6373 8.678,12.1492 30.8068,31.6746 40.7864,42.9559" stroke="#00d4ff" stroke-width="2" /><polyline fill="none" points="68.122,43.3898 72.8949,32.9763 87.2136,11.7153 90.2508,8.678 95.8915,13.8847 99.7966,24.7322 97.6271,41.6542 90.2508,54.6712" stroke="#ffe500" stroke-width="2" /><polyline fill="none" points="68.9898,35.1458 76.8,26.0339 85.478,18.6576 92.4203,33.8441 96.7593,49.4644" stroke="#7f0000" stroke-width="2" /></svg>