<?xml version="1.0" encoding="utf-8" ?>
<svg baseProfile="tiny" height="128" version="1.2" viewBox="0,0,128,128" width="128" xmlns="http://www.w3.org/2000/svg" xmlns:ev="http://www.w3.org/2001/xml-events" xmlns:xlink="http://www.w3.org/1999/xlink"><defs /><polyline fill="none" points="8.678,42.9559 18.6576,39.0508 28.6373,37.3153 50.7661,33.8441 60.3119,33.8441 67.6881,36.8814 74.6305,41.6542 82.8746,49.4644 88.5153,58.1424 93.722,76.8 93.722,87.2136 91.9864,92.8542 88.0814,99.7966 78.1017,108.9085 49.4644,117.5864 36.4475,119.322 26.9017,117.1525 18.2237,111.5119 13.8847,105.0034 10.8475,97.6271 10.8475,83.3085 13.8847,64.6508 20.8271,43.3898" stroke="#00007f" stroke-width="2" /><polyline fill="none" points="8.678,45.1254 21.261,8.678 24.2983,11.7153 39.9186,37.3153" stroke="#0000ff" stroke-width="2" /><polyline fill="none" points="23.8644,29.939 23.8644,23.8644 22.9966,29.0712 26.4678,28.6373" stroke="#0080ff" stroke-width="2" /><polyline fill="none" points="68.9898,33.8441 75.0644,29.0712 102.4,15.6203 99.7966,26.9017 85.478,58.1424" stroke="#15ffe1" stroke-width="2" /><polyline fill="none" points="80.7051,37.7492 81.5729,40.7864 84.1763,39.9186 86.7797,36.0136" stroke="#7cff79" stroke-width="2" /><polyline fill="none" points="90.6847,31.6746 84.1763,38.1831" stroke="#e4ff12" stroke-width="2" /><polyline fill="none" points="28.6373,59.0102 28.6373,59.0102" stroke="#ff9400" stroke-width="2" /><polyline fill="none" points="33.8441,53.8034 35.5797,59.4441 33.8441,56.4068 37.7492,51.6339" stroke="#ff1d00" stroke-width="2" /><polyline fill="none" points="59.0102,55.9729 61.6136,54.6712 62.9153,57.7085" stroke="#7f0000" stroke-width="2" /></svg>