<?xml version="1.0" encoding="utf-8" ?>
<svg baseProfile="tiny" height="128" version="1.2" viewBox="0,0,128,128" width="128" xmlns="http://www.w3.org/2000/svg" xmlns:ev="http://www.w3.org/2001/xml-events" xmlns:xlink="http://www.w3.org/1999/xlink"><defs /><polyline fill="none" points="18.2237,19.9593 12.1492,28.2034 8.678,41.2203 9.9797,51.6339 16.922,59.4441 28.2034,62.4814 39.0508,62.0475 46.861,59.878 57.2746,52.9356 64.2169,41.6542 64.2169,28.6373 61.1797,23.8644 56.8407,20.3932 48.1627,18.2237 35.5797,17.3559 24.7322,21.261 17.7898,21.6949" stroke="#00007f" stroke-width="2" /><polyline fill="none" points="13.4508,22.1288 12.5831,13.4508 19.5254,18.6576 23.4305,19.9593" stroke="#0000de" stroke-width="2" /><polyline fill="none" points="43.3898,17.3559 51.6339,8.678 53.3695,21.6949" stroke="#0028ff" stroke-width="2" /><polyline fill="none" points="31.2407,40.7864 30.3729,44.6915 35.5797,42.9559 35.1458,41.2203 32.5424,39.9186" stroke="#0080ff" stroke-width="2" /><polyline fill="none" points="32.5424,43.3898 30.8068,48.1627 28.2034,49.8983 21.261,48.5966 19.0915,43.8237" stroke="#00d4ff" stroke-width="2" /><polyline fill="none" points="34.7119,44.2576 38.1831,48.1627 41.2203,49.0305 48.1627,47.7288 51.2,44.2576" stroke="#36ffc0" stroke-width="2" /><polyline fill="none" points="35.1458,45.1254 36.8814,49.8983 42.0881,53.3695 50.7661,54.6712 52.5017,52.9356" stroke="#7cff79" stroke-width="2" /><polyline fill="none" points="35.5797,44.2576 47.7288,44.6915 52.0678,43.8237" stroke="#c0ff36" stroke-width="2" /><polyline fill="none" points="33.4102,46.4271 29.939,50.7661 22.1288,52.0678" stroke="#ffe500" stroke-width="2" /><polyline fill="none" points="29.5051,44.6915 22.5627,43.8237" stroke="#ff9400" stroke-width="2" /><polyline fill="none" points="19.5254,33.8441 17.7898,35.5797 18.6576,36.4475 22.9966,38.6169 28.2034,37.7492 32.1085,33.8441 27.3356,32.5424 21.6949,32.5424 19.9593,33.8441" stroke="#ff4600" stroke-width="2" /><polyline fill="none" points="48.1627,31.6746 44.2576,33.8441 42.9559,36.4475 42.9559,37.7492 47.7288,38.1831 50.7661,35.5797 50.3322,32.9763 43.8237,32.5424" stroke="#de0000" stroke-width="2" /><polyline fill="none" points="22.9966,63.3492 18.6576,78.9695 18.6576,93.2881 20.3932,106.739 24.7322,118.4542 28.2034,119.322 32.1085,117.1525" stroke="#7f0000" stroke-width="2" /></svg>