<?xml version="1.0" encoding="utf-8" ?>
<svg baseProfile="tiny" height="128" version="1.2" viewBox="0,0,128,128" width="128" xmlns="http://www.w3.org/2000/svg" xmlns:ev="http://www.w3.org/2001/xml-events" xmlns:xlink="http://www.w3.org/1999/xlink"><defs /><polyline fill="none" points="31.2407,31.2407 27.3356,51.2 27.7695,69.8576 36.0136,86.3458 40.3525,91.1186 49.4644,95.4576 67.6881,95.4576 75.0644,92.8542 82.8746,86.7797 87.2136,80.7051 90.6847,72.0271 95.0237,49.0305 95.0237,20.3932 93.2881,13.4508 90.2508,12.1492 82.4407,17.7898 73.3288,35.1458 71.1593,36.4475 64.2169,33.8441 49.4644,33.8441 47.2949,13.0169 45.5593,8.678 42.9559,8.678 36.0136,17.7898 32.5424,26.4678 30.8068,36.4475" stroke="#00007f" stroke-width="2" /><polyline fill="none" points="66.8203,58.1424 76.3661,58.5763 119.322,49.8983" stroke="#0028ff" stroke-width="2" /><polyline fill="none" points="69.4237,64.6508 113.6814,59.4441" stroke="#00d4ff" stroke-width="2" /><polyline fill="none" points="73.7627,70.2915 89.8169,70.2915 110.2102,75.4983" stroke="#7cff79" stroke-width="2" /><polyline fill="none" points="51.6339,59.878 12.1492,54.6712" stroke="#ffe500" stroke-width="2" /><polyline fill="none" points="48.5966,69.4237 35.5797,70.2915 9.5458,77.6678" stroke="#ff4600" stroke-width="2" /><polyline fill="none" points="52.9356,77.2339 26.9017,86.3458 8.678,97.6271" stroke="#7f0000" stroke-width="2" /></svg>