<?xml version="1.0" encoding="utf-8" ?>
<svg baseProfile="tiny" height="128" version="1.2" viewBox="0,0,128,128" width="128" xmlns="http://www.w3.org/2000/svg" xmlns:ev="http://www.w3.org/2001/xml-events" xmlns:xlink="http://www.w3.org/1999/xlink"><defs /><polyline fill="none" points="28.6373,48.5966 25.6,39.9186 28.2034,29.939 32.9763,26.4678 40.3525,24.7322 45.1254,25.6 49.8983,28.2034 53.8034,35.5797 54.6712,39.0508 53.8034,45.5593 51.6339,49.8983 46.4271,53.3695 40.3525,55.1051 36.4475,55.1051 32.9763,52.9356" stroke="#00007f" stroke-width="2" /><polyline fill="none" points="34.278,39.0508 27.7695,38.1831 19.5254,41.2203 13.0169,47.7288 8.678,55.539" stroke="#0000e8" stroke-width="2" /><polyline fill="none" points="42.522,36.0136 49.4644,34.7119 54.2373,35.1458 57.7085,37.3153 59.878,40.3525" stroke="#0038ff" stroke-width="2" /><polyline fill="none" points="29.939,46.861 22.9966,51.2 20.8271,56.4068 19.9593,62.9153" stroke="#0094ff" stroke-width="2" /><polyline fill="none" points="41.2203,44.6915 51.2,44.2576 57.7085,48.5966" stroke="#0cf4ea" stroke-width="2" /><polyline fill="none" points="32.9763,49.4644 29.0712,52.5017 26.0339,58.1424" stroke="#56ffa0" stroke-width="2" /><polyline fill="none" points="43.3898,50.3322 50.3322,55.539" stroke="#a0ff56" stroke-width="2" /><polyline fill="none" points="26.0339,29.5051 22.1288,22.5627 20.8271,16.4881 32.9763,25.1661" stroke="#eaff0c" stroke-width="2" /><polyline fill="none" points="43.8237,25.1661 47.7288,16.0542 50.3322,19.9593 52.0678,28.6373" stroke="#ffaa00" stroke-width="2" /><polyline fill="none" points="50.7661,30.3729 62.9153,23.4305 75.0644,20.3932 83.3085,19.9593 104.5695,22.9966 111.078,27.7695 113.2475,33.4102 103.7017,43.8237 85.478,50.3322 63.3492,53.3695 47.2949,52.5017" stroke="#ff5500" stroke-width="2" /><polyline fill="none" points="108.9085,24.7322 114.1153,10.4136 117.1525,8.678 118.8881,11.7153 119.322,18.2237 117.5864,23.4305 113.2475,29.5051" stroke="#e80000" stroke-width="2" /><polyline fill="none" points="63.3492,58.5763 63.3492,58.5763" stroke="#7f0000" stroke-width="2" /></svg>