<?xml version="1.0" encoding="utf-8" ?>
<svg baseProfile="tiny" height="128" version="1.2" viewBox="0,0,128,128" width="128" xmlns="http://www.w3.org/2000/svg" xmlns:ev="http://www.w3.org/2001/xml-events" xmlns:xlink="http://www.w3.org/1999/xlink"><defs /><polyline fill="none" points="68.122,30.8068 59.878,27.7695 52.9356,27.7695 48.1627,29.0712 40.3525,35.5797 35.5797,44.6915 35.5797,55.9729 38.6169,63.7831 44.6915,72.0271 54.2373,75.9322 66.3864,75.4983 72.0271,73.3288 82.8746,65.0847 87.2136,57.2746 87.6475,48.5966 82.0068,38.1831 74.6305,31.6746 64.6508,30.3729" stroke="#00007f" stroke-width="2" /><polyline fill="none" points="86.7797,46.4271 97.1932,46.4271 119.322,41.6542" stroke="#0000e8" stroke-width="2" /><polyline fill="none" points="82.8746,60.7458 108.4746,68.122" stroke="#0038ff" stroke-width="2" /><polyline fill="none" points="76.8,68.5559 86.7797,77.2339 91.1186,83.3085" stroke="#0094ff" stroke-width="2" /><polyline fill="none" points="33.4102,47.2949 8.678,44.6915" stroke="#0cf4ea" stroke-width="2" /><polyline fill="none" points="37.3153,56.4068 20.3932,62.4814 17.3559,65.0847" stroke="#56ffa0" stroke-width="2" /><polyline fill="none" points="53.8034,66.8203 42.522,72.0271 29.939,82.8746" stroke="#a0ff56" stroke-width="2" /><polyline fill="none" points="38.6169,32.1085 35.5797,27.3356 35.5797,10.8475 36.4475,9.1119 38.1831,8.678 41.2203,9.5458 47.7288,15.6203 56.4068,25.1661 60.3119,31.2407" stroke="#eaff0c" stroke-width="2" /><polyline fill="none" points="81.139,32.1085 91.5525,16.922 93.722,16.0542 93.2881,23.8644 87.2136,41.6542" stroke="#ffaa00" stroke-width="2" /><polyline fill="none" points="50.7661,42.522 52.9356,42.9559" stroke="#ff5500" stroke-width="2" /><polyline fill="none" points="68.9898,42.9559 74.1966,44.2576" stroke="#e80000" stroke-width="2" /><polyline fill="none" points="55.1051,57.2746 56.8407,59.4441 65.0847,61.1797 71.1593,59.4441 74.1966,55.9729" stroke="#7f0000" stroke-width="2" /></svg>