<?xml version="1.0" encoding="utf-8" ?>
<svg baseProfile="tiny" height="128" version="1.2" viewBox="0,0,128,128" width="128" xmlns="http://www.w3.org/2000/svg" xmlns:ev="http://www.w3.org/2001/xml-events" xmlns:xlink="http://www.w3.org/1999/xlink"><defs /><polyline fill="none" points="13.8847,24.2983 11.2814,32.9763 12.1492,37.7492 14.7525,40.7864 31.6746,46.4271 37.3153,44.6915 41.2203,39.4847 41.6542,31.6746 38.6169,27.3356 32.9763,24.7322 31.6746,22.1288 37.7492,8.678 33.4102,8.678 26.9017,18.2237 21.261,19.5254 15.1864,19.9593 11.2814,13.0169 8.678,12.5831 9.9797,19.9593 15.1864,26.4678" stroke="#00007f" stroke-width="2" /><polyline fill="none" points="19.5254,42.9559 16.0542,67.6881 16.4881,78.1017 19.9593,82.4407 22.1288,82.0068 24.7322,75.0644 25.1661,67.2542 26.0339,65.0847 28.2034,64.6508 32.1085,72.0271 32.5424,82.0068 34.278,84.6102 38.6169,80.7051 39.9186,75.0644 39.9186,65.5186 42.0881,63.3492 59.878,63.3492 75.9322,67.6881 76.8,75.9322 81.139,83.3085 83.3085,82.8746 85.9119,76.8 85.9119,65.5186 88.0814,66.8203 90.6847,74.6305 95.4576,80.2712 98.061,82.0068 99.7966,79.4034 99.7966,72.461 94.1559,59.878 93.722,55.1051 105.0034,47.2949 118.4542,28.6373 119.322,25.6 116.2847,21.6949 108.4746,22.1288 104.1356,36.4475 99.7966,41.2203 94.5898,43.8237 81.5729,45.9932 53.3695,44.6915" stroke="#7f0000" stroke-width="2" /></svg>