<?xml version="1.0" encoding="utf-8" ?>
<svg baseProfile="tiny" height="128" version="1.2" viewBox="0,0,128,128" width="128" xmlns="http://www.w3.org/2000/svg" xmlns:ev="http://www.w3.org/2001/xml-events" xmlns:xlink="http://www.w3.org/1999/xlink"><defs /><polyline fill="none" points="19.0915,23.4305 13.0169,30.3729 13.4508,36.8814 16.0542,42.522 25.1661,45.9932 29.939,45.5593 35.1458,43.3898 38.6169,37.3153 41.2203,28.2034 36.4475,17.3559 25.6,18.6576 18.6576,21.261" stroke="#00007f" stroke-width="2" /><polyline fill="none" points="16.922,28.2034 8.678,8.678 20.3932,18.2237" stroke="#0080ff" stroke-width="2" /><polyline fill="none" points="36.0136,16.4881 52.0678,9.1119 40.7864,29.939" stroke="#7cff79" stroke-width="2" /><polyline fill="none" points="32.1085,44.6915 43.3898,43.3898 70.2915,55.9729 86.3458,58.5763 93.722,58.1424 103.2678,52.9356 108.4746,48.1627 115.4169,37.3153 118.8881,26.9017 117.1525,64.2169 107.1729,70.2915" stroke="#ff9400" stroke-width="2" /><polyline fill="none" points="89.8169,65.9525 96.3254,57.2746 112.8136,39.4847 118.4542,33.4102 119.322,34.7119 119.322,52.5017 118.0203,62.9153 113.2475,67.2542 108.0407,75.0644 105.8712,79.8373 102.8339,95.0237 97.6271,105.8712 93.722,108.0407 89.3831,106.739 85.478,99.3627 79.8373,83.3085 76.8,79.8373 74.1966,79.4034 67.2542,82.4407 57.7085,104.1356 52.5017,108.0407 49.0305,108.4746 39.4847,104.1356 37.3153,101.5322 34.278,95.0237 30.8068,79.8373 27.7695,74.6305 17.3559,68.9898 15.1864,66.3864 12.1492,57.7085 12.5831,51.2 15.1864,43.3898 21.261,40.7864" stroke="#7f0000" stroke-width="2" /></svg>