<?xml version="1.0" encoding="utf-8" ?>
<svg baseProfile="tiny" height="128" version="1.2" viewBox="0,0,128,128" width="128" xmlns="http://www.w3.org/2000/svg" xmlns:ev="http://www.w3.org/2001/xml-events" xmlns:xlink="http://www.w3.org/1999/xlink"><defs /><polyline fill="none" points="100.2305,15.1864 107.6068,16.922 118.4542,25.6 119.322,31.2407 117.1525,33.4102 109.7763,33.8441 98.9288,29.0712 91.1186,23.4305 90.6847,21.261 91.9864,19.5254 101.9661,14.7525" stroke="#00007f" stroke-width="2" /><polyline fill="none" points="90.6847,22.9966 50.3322,34.278 36.8814,39.9186 24.7322,47.7288 23.8644,50.3322 26.0339,52.5017 41.6542,52.9356 59.4441,46.4271 97.6271,39.0508 104.1356,36.4475 105.4373,31.6746" stroke="#0000de" stroke-width="2" /><polyline fill="none" points="94.1559,39.9186 104.5695,59.878" stroke="#0028ff" stroke-width="2" /><polyline fill="none" points="52.5017,53.3695 55.539,62.4814 59.4441,68.122" stroke="#0080ff" stroke-width="2" /><polyline fill="none" points="84.1763,41.2203 91.1186,63.7831" stroke="#00d4ff" stroke-width="2" /><polyline fill="none" points="60.3119,50.3322 68.122,56.4068 74.6305,72.0271 76.3661,75.0644 76.8,72.8949" stroke="#36ffc0" stroke-width="2" /><polyline fill="none" points="33.4102,40.7864 23.4305,36.8814 11.7153,34.7119 8.678,29.0712 8.678,24.7322 13.0169,22.1288" stroke="#7cff79" stroke-width="2" /><polyline fill="none" points="13.8847,21.6949 12.5831,24.2983 13.0169,29.5051 17.7898,34.7119 24.2983,37.3153 29.5051,36.8814 36.8814,40.7864" stroke="#c0ff36" stroke-width="2" /><polyline fill="none" points="95.4576,15.6203 97.1932,8.678 99.3627,12.1492" stroke="#ffe500" stroke-width="2" /><polyline fill="none" points="105.8712,19.5254 108.4746,25.6" stroke="#ff9400" stroke-width="2" /><polyline fill="none" points="106.3051,27.3356 108.4746,30.3729 111.078,30.8068 116.2847,28.6373 118.8881,25.1661" stroke="#ff4600" stroke-width="2" /><polyline fill="none" points="54.2373,34.7119 54.6712,55.539 59.4441,44.6915" stroke="#de0000" stroke-width="2" /><polyline fill="none" points="68.5559,26.9017 70.2915,39.4847" stroke="#7f0000" stroke-width="2" /></svg>