<?xml version="1.0" encoding="utf-8" ?>
<svg baseProfile="tiny" height="128" version="1.2" viewBox="0,0,128,128" width="128" xmlns="http://www.w3.org/2000/svg" xmlns:ev="http://www.w3.org/2001/xml-events" xmlns:xlink="http://www.w3.org/1999/xlink"><defs /><polyline fill="none" points="94.1559,10.4136 84.6102,9.1119 61.1797,10.4136 51.6339,13.8847 35.1458,25.6 25.1661,39.9186 22.9966,47.7288 22.5627,62.0475 25.6,69.4237 29.5051,74.6305 40.3525,80.2712 46.4271,82.0068 59.0102,82.4407 72.8949,80.7051 85.478,76.8 99.7966,68.122 105.8712,58.1424 107.1729,47.7288 101.0983,19.9593 97.1932,12.5831 92.8542,8.678" stroke="#00007f" stroke-width="2" /><polyline fill="none" points="54.6712,49.0305 65.9525,50.3322" stroke="#0000ac" stroke-width="2" /><polyline fill="none" points="55.1051,51.6339 57.2746,61.1797 59.0102,63.7831 62.9153,62.0475 68.5559,53.3695" stroke="#0000de" stroke-width="2" /><polyline fill="none" points="55.1051,24.7322 49.8983,24.2983 46.4271,26.0339 45.1254,28.2034 46.4271,31.6746 52.0678,32.9763 56.4068,31.6746 57.2746,28.6373 53.8034,23.8644" stroke="#0000ff" stroke-width="2" /><polyline fill="none" points="80.2712,29.0712 77.6678,27.7695 74.6305,29.0712 72.0271,32.1085 72.0271,35.1458 74.6305,38.1831 81.139,38.6169 83.3085,35.5797 83.7424,32.1085 81.5729,30.3729 78.1017,29.939" stroke="#0028ff" stroke-width="2" /><polyline fill="none" points="98.9288,16.922 98.9288,16.922" stroke="#0054ff" stroke-width="2" /><polyline fill="none" points="96.3254,13.8847 95.4576,19.5254 97.1932,32.1085 103.7017,43.8237 108.9085,49.0305 115.8508,51.6339 116.2847,45.9932 111.5119,31.2407 103.2678,18.6576" stroke="#0080ff" stroke-width="2" /><polyline fill="none" points="63.3492,14.3186 55.9729,17.3559 37.7492,29.5051 25.1661,34.278 26.0339,29.939 37.3153,17.7898 57.7085,13.0169" stroke="#00a8ff" stroke-width="2" /><polyline fill="none" points="45.5593,71.1593 60.7458,72.8949 72.8949,68.122" stroke="#00d4ff" stroke-width="2" /><polyline fill="none" points="75.9322,62.0475 90.6847,63.7831" stroke="#15ffe1" stroke-width="2" /><polyline fill="none" points="73.3288,62.0475 73.3288,62.0475" stroke="#36ffc0" stroke-width="2" /><polyline fill="none" points="71.1593,59.4441 72.461,61.1797" stroke="#59ff9d" stroke-width="2" /><polyline fill="none" points="75.4983,56.8407 75.4983,56.8407" stroke="#7cff79" stroke-width="2" /><polyline fill="none" points="74.6305,54.2373 74.6305,57.2746" stroke="#9dff59" stroke-width="2" /><polyline fill="none" points="79.8373,56.4068 105.0034,61.1797 119.322,61.6136" stroke="#c0ff36" stroke-width="2" /><polyline fill="none" points="79.4034,66.8203 79.4034,68.5559" stroke="#e4ff12" stroke-width="2" /><polyline fill="none" points="83.7424,68.5559 95.8915,68.5559 101.5322,70.7254" stroke="#ffe500" stroke-width="2" /><polyline fill="none" points="34.7119,59.878 34.7119,59.878" stroke="#ffbd00" stroke-width="2" /><polyline fill="none" points="40.3525,49.0305 39.4847,52.0678" stroke="#ff9400" stroke-width="2" /><polyline fill="none" points="34.7119,62.0475 34.7119,62.0475" stroke="#ff6f00" stroke-width="2" /><polyline fill="none" points="32.5424,58.1424 32.9763,59.0102" stroke="#ff4600" stroke-width="2" /><polyline fill="none" points="40.7864,59.878 40.7864,62.0475" stroke="#ff1d00" stroke-width="2" /><polyline fill="none" points="22.1288,58.5763 12.5831,58.1424" stroke="#de0000" stroke-width="2" /><polyline fill="none" points="29.939,46.861 16.922,45.9932" stroke="#ac0000" stroke-width="2" /><polyline fill="none" points="36.8814,63.3492 8.678,66.8203" stroke="#7f0000" stroke-width="2" /></svg>