<?xml version="1.0" encoding="utf-8" ?>
<svg baseProfile="tiny" height="128" version="1.2" viewBox="0,0,128,128" width="128" xmlns="http://www.w3.org/2000/svg" xmlns:ev="http://www.w3.org/2001/xml-events" xmlns:xlink="http://www.w3.org/1999/xlink"><defs /><polyline fill="none" points="55.9729,51.6339 52.0678,49.4644 39.4847,49.0305 31.6746,55.1051 27.3356,63.3492 25.6,74.6305 26.4678,85.0441 32.1085,94.1559 41.6542,101.0983 62.9153,106.3051 69.4237,106.3051 75.9322,103.7017 83.7424,96.7593 86.3458,92.4203 88.5153,83.3085 88.9492,68.5559 84.1763,58.5763 74.1966,46.861 67.6881,42.522 55.539,40.7864" stroke="#00007f" stroke-width="2" /><polyline fill="none" points="26.0339,58.1424 29.5051,36.0136 36.8814,12.5831 38.6169,12.5831 52.9356,31.6746 62.0475,45.9932" stroke="#0000d5" stroke-width="2" /><polyline fill="none" points="62.4814,45.1254 77.2339,21.6949 88.5153,8.678 88.5153,22.1288 84.6102,46.861 84.1763,61.6136" stroke="#001cff" stroke-width="2" /><polyline fill="none" points="46.861,64.6508 46.861,64.6508" stroke="#006cff" stroke-width="2" /><polyline fill="none" points="67.6881,63.7831 67.6881,63.7831" stroke="#00b8ff" stroke-width="2" /><polyline fill="none" points="45.1254,63.3492 43.8237,65.0847 44.6915,67.6881 46.861,68.122 47.7288,65.5186 44.6915,63.7831" stroke="#1cffda" stroke-width="2" /><polyline fill="none" points="62.0475,64.2169 62.4814,66.3864 61.6136,64.6508 59.4441,64.2169" stroke="#5cff9a" stroke-width="2" /><polyline fill="none" points="54.6712,78.1017 49.8983,85.9119 53.3695,87.6475 66.8203,87.6475 61.1797,79.8373 55.1051,75.4983" stroke="#9aff5c" stroke-width="2" /><polyline fill="none" points="62.0475,80.2712 81.5729,72.0271 92.8542,65.0847 98.9288,55.9729 100.2305,50.3322 99.3627,47.2949" stroke="#daff1c" stroke-width="2" /><polyline fill="none" points="64.2169,81.139 80.2712,81.139 94.5898,76.3661 111.5119,66.8203 114.1153,62.9153 113.2475,62.4814" stroke="#ffcb00" stroke-width="2" /><polyline fill="none" points="67.2542,82.4407 71.1593,86.7797 82.0068,92.4203 96.7593,92.8542 116.2847,83.7424 119.322,78.5356" stroke="#ff8500" stroke-width="2" /><polyline fill="none" points="49.8983,76.8 41.6542,78.9695 32.1085,78.9695 27.7695,77.6678 22.5627,75.0644 14.3186,68.122 12.1492,63.3492" stroke="#ff3b00" stroke-width="2" /><polyline fill="none" points="50.3322,80.2712 45.5593,84.6102 37.7492,87.6475 19.9593,88.0814 14.7525,85.9119 9.1119,81.5729 8.678,76.3661" stroke="#d50000" stroke-width="2" /><polyline fill="none" points="56.4068,88.9492 57.7085,96.7593 55.9729,98.9288" stroke="#7f0000" stroke-width="2" /></svg>