<?xml version="1.0" encoding="utf-8" ?>
<svg baseProfile="tiny" height="128" version="1.2" viewBox="0,0,128,128" width="128" xmlns="http://www.w3.org/2000/svg" xmlns:ev="http://www.w3.org/2001/xml-events" xmlns:xlink="http://www.w3.org/1999/xlink"><defs /><polyline fill="none" points="45.9932,22.5627 39.4847,11.7153 36.0136,8.678 35.1458,19.5254 24.7322,19.0915 20.8271,27.7695 17.3559,20.3932 9.1119,15.6203 8.678,16.4881 13.8847,43.3898 19.9593,49.0305 32.9763,53.8034 36.4475,69.8576 43.3898,69.8576 47.7288,66.3864 49.4644,49.4644 62.4814,51.2 65.5186,67.2542 72.461,66.3864 79.8373,62.9153 81.5729,60.3119 79.4034,52.5017 80.2712,42.522 91.1186,45.9932 90.6847,61.6136 92.8542,65.9525 100.6644,65.9525 107.1729,59.0102 108.4746,54.6712 108.4746,49.0305 103.7017,35.5797 118.4542,42.0881 119.322,41.2203 118.4542,37.7492 110.6441,31.2407 101.0983,26.0339 88.9492,22.9966 45.5593,25.1661 43.3898,23.8644" stroke="#00007f" stroke-width="2" /><polyline fill="none" points="24.7322,34.278 20.3932,36.8814 22.1288,34.278 23.4305,34.7119" stroke="#00d4ff" stroke-width="2" /><polyline fill="none" points="33.8441,29.0712 34.7119,28.2034 36.8814,28.6373 34.7119,29.939 37.3153,29.0712" stroke="#ffe500" stroke-width="2" /><polyline fill="none" points="25.6,42.0881 34.7119,44.2576 41.2203,39.9186" stroke="#7f0000" stroke-width="2" /></svg>