<?xml version="1.0" encoding="utf-8" ?>
<svg baseProfile="tiny" height="128" version="1.2" viewBox="0,0,128,128" width="128" xmlns="http://www.w3.org/2000/svg" xmlns:ev="http://www.w3.org/2001/xml-events" xmlns:xlink="http://www.w3.org/1999/xlink"><defs /><polyline fill="none" points="74.1966,39.9186 65.0847,35.5797 55.1051,36.0136 52.9356,39.9186 52.9356,47.7288 58.1424,57.2746 63.7831,60.7458 72.0271,61.6136 78.9695,56.8407 81.139,51.2 81.139,41.6542 76.3661,35.1458" stroke="#00007f" stroke-width="2" /><polyline fill="none" points="59.878,30.8068 58.5763,29.0712 58.5763,20.8271 60.7458,18.2237 64.6508,17.3559 65.9525,8.678 71.5932,36.0136" stroke="#004cff" stroke-width="2" /><polyline fill="none" points="81.5729,38.6169 82.0068,35.1458 93.722,22.9966 88.5153,39.9186 86.3458,43.3898 85.478,42.9559" stroke="#29ffcd" stroke-width="2" /><polyline fill="none" points="64.6508,63.3492 24.7322,62.9153 15.1864,69.4237 9.1119,76.3661 8.678,80.7051 16.922,85.478 37.7492,87.2136 48.1627,85.478 65.0847,76.8 73.7627,68.5559 74.6305,64.2169 65.9525,58.5763" stroke="#cdff29" stroke-width="2" /><polyline fill="none" points="16.0542,83.7424 14.7525,85.9119 12.5831,114.5492" stroke="#ff6700" stroke-width="2" /><polyline fill="none" points="46.4271,75.0644 45.1254,77.2339 45.1254,95.4576 46.4271,119.322" stroke="#7f0000" stroke-width="2" /></svg>