<?xml version="1.0" encoding="utf-8" ?>
<svg baseProfile="tiny" height="128" version="1.2" viewBox="0,0,128,128" width="128" xmlns="http://www.w3.org/2000/svg" xmlns:ev="http://www.w3.org/2001/xml-events" xmlns:xlink="http://www.w3.org/1999/xlink"><defs /><polyline fill="none" points="33.8441,27.3356 22.1288,29.5051 18.2237,32.5424 14.7525,40.7864 14.3186,45.9932 17.3559,54.6712 24.2983,60.3119 35.1458,61.1797 45.9932,55.539 50.7661,50.7661 54.6712,44.2576 55.539,36.4475 55.1051,32.1085 50.3322,24.7322 46.4271,22.9966 38.1831,26.0339 31.2407,31.2407 25.6,39.4847" stroke="#00007f" stroke-width="2" /><polyline fill="none" points="18.2237,33.8441 18.2237,28.6373 22.5627,13.0169 24.7322,13.4508 26.9017,15.6203 29.0712,18.6576 31.6746,26.9017 33.8441,27.3356" stroke="#0000ff" stroke-width="2" /><polyline fill="none" points="37.3153,26.4678 37.3153,21.6949 39.9186,16.0542 43.3898,9.5458 45.9932,8.678 47.7288,10.8475 48.5966,26.4678 50.7661,30.3729" stroke="#0080ff" stroke-width="2" /><polyline fill="none" points="22.5627,35.1458 24.2983,37.3153 32.5424,39.0508" stroke="#15ffe1" stroke-width="2" /><polyline fill="none" points="42.522,34.278 44.6915,36.8814" stroke="#7cff79" stroke-width="2" /><polyline fill="none" points="37.7492,40.7864 36.4475,43.3898" stroke="#e4ff12" stroke-width="2" /><polyline fill="none" points="25.1661,49.0305 29.939,52.5017 36.4475,53.3695 40.3525,51.2 43.3898,46.861" stroke="#ff9400" stroke-width="2" /><polyline fill="none" points="21.6949,59.878 19.5254,60.7458 15.1864,65.5186 10.8475,76.3661 8.678,88.5153 9.5458,104.5695 12.1492,112.8136 16.922,118.4542 22.5627,119.322 30.8068,117.5864 50.3322,101.5322 52.9356,98.4949 55.1051,93.2881 54.6712,78.1017 49.8983,61.6136 46.861,57.7085 44.6915,56.4068 37.7492,57.2746 28.2034,62.9153 22.5627,68.9898 23.4305,72.8949" stroke="#ff1d00" stroke-width="2" /><polyline fill="none" points="50.3322,104.1356 55.1051,106.739 65.9525,107.1729" stroke="#7f0000" stroke-width="2" /></svg>