<?xml version="1.0" encoding="utf-8" ?>
<svg baseProfile="tiny" height="128" version="1.2" viewBox="0,0,128,128" width="128" xmlns="http://www.w3.org/2000/svg" xmlns:ev="http://www.w3.org/2001/xml-events" xmlns:xlink="http://www.w3.org/1999/xlink"><defs /><polyline fill="none" points="28.2034,45.5593 36.8814,10.4136 45.5593,32.5424 47.7288,42.522" stroke="#00007f" stroke-width="2" /><polyline fill="none" points="73.3288,47.2949 86.7797,22.5627 94.1559,12.1492 98.4949,8.678 101.9661,49.4644" stroke="#004cff" stroke-width="2" /><polyline fill="none" points="10.8475,100.6644 8.678,81.139 8.678,70.7254 10.4136,65.0847 18.2237,55.1051 32.1085,46.861 53.3695,42.522 86.3458,43.3898 106.739,48.5966 111.078,51.2 114.9831,56.4068 119.322,67.2542 118.8881,82.0068 110.6441,103.2678 105.4373,110.2102 95.4576,114.9831 83.3085,118.4542 55.9729,118.0203 42.522,114.9831 14.3186,105.4373 10.4136,102.4 9.5458,98.9288" stroke="#29ffcd" stroke-width="2" /><polyline fill="none" points="34.7119,62.9153 32.5424,70.7254 32.5424,76.8 35.1458,81.5729 37.7492,83.7424 50.3322,84.1763 52.5017,82.8746 56.4068,76.8 57.2746,70.2915 51.6339,65.5186 36.4475,59.4441 34.278,62.0475 35.5797,67.2542" stroke="#cdff29" stroke-width="2" /><polyline fill="none" points="90.2508,72.461 87.6475,73.3288 84.6102,76.3661 82.8746,80.7051 82.4407,86.7797 86.3458,90.2508 91.9864,90.2508 95.0237,88.0814 101.5322,79.4034 102.4,72.0271 97.1932,68.122 91.1186,67.6881 80.7051,75.0644" stroke="#ff6700" stroke-width="2" /><polyline fill="none" points="50.7661,108.0407 57.7085,95.4576 62.9153,92.8542 68.9898,91.9864" stroke="#7f0000" stroke-width="2" /></svg>