<?xml version="1.0" encoding="utf-8" ?>
<svg baseProfile="tiny" height="128" version="1.2" viewBox="0,0,128,128" width="128" xmlns="http://www.w3.org/2000/svg" xmlns:ev="http://www.w3.org/2001/xml-events" xmlns:xlink="http://www.w3.org/1999/xlink"><defs /><polyline fill="none" points="58.5763,34.278 52.9356,30.3729 36.0136,12.1492 35.5797,21.261 42.0881,49.4644 43.8237,54.2373 46.861,55.9729 55.1051,57.2746 69.8576,56.8407 82.0068,53.3695 89.3831,48.1627 91.1186,45.1254 91.1186,35.1458 88.5153,26.9017 78.9695,10.4136 75.9322,8.678 73.3288,19.9593 68.5559,29.0712 59.4441,34.7119" stroke="#00007f" stroke-width="2" /><polyline fill="none" points="67.6881,39.9186 86.3458,35.5797 103.7017,34.278" stroke="#004cff" stroke-width="2" /><polyline fill="none" points="70.2915,42.0881 95.8915,44.6915 119.322,48.5966" stroke="#29ffcd" stroke-width="2" /><polyline fill="none" points="72.0271,45.5593 99.7966,54.2373 107.6068,55.539 106.739,54.6712" stroke="#cdff29" stroke-width="2" /><polyline fill="none" points="61.1797,41.2203 33.8441,38.1831 8.678,33.4102" stroke="#ff6700" stroke-width="2" /><polyline fill="none" points="59.4441,45.1254 22.1288,42.0881" stroke="#7f0000" stroke-width="2" /></svg>