<?xml version="1.0" encoding="utf-8" ?>
<svg baseProfile="tiny" height="128" version="1.2" viewBox="0,0,128,128" width="128" xmlns="http://www.w3.org/2000/svg" xmlns:ev="http://www.w3.org/2001/xml-events" xmlns:xlink="http://www.w3.org/1999/xlink"><defs /><polyline fill="none" points="33.8441,52.0678 24.2983,60.3119 19.5254,69.8576 16.922,80.2712 16.922,88.5153 17.7898,92.8542 22.5627,99.7966 36.4475,105.8712 55.1051,106.739 75.0644,101.5322 87.6475,91.9864 91.5525,82.8746 91.9864,72.0271 89.8169,67.2542 78.5356,57.7085 65.0847,52.5017 47.7288,51.6339 43.3898,53.3695" stroke="#00007f" stroke-width="2" /><polyline fill="none" points="22.9966,62.4814 17.7898,40.3525 17.3559,22.1288 19.5254,21.261 24.7322,22.1288 44.6915,46.861" stroke="#0028ff" stroke-width="2" /><polyline fill="none" points="77.2339,57.7085 105.4373,19.9593 113.2475,11.2814 118.0203,8.678 119.322,11.7153 118.8881,16.922 104.5695,61.6136 99.7966,71.1593" stroke="#00d4ff" stroke-width="2" /><polyline fill="none" points="39.4847,73.3288 43.8237,85.0441 45.5593,84.6102" stroke="#7cff79" stroke-width="2" /><polyline fill="none" points="38.6169,76.3661 55.1051,71.5932 54.2373,74.6305 43.3898,84.1763" stroke="#ffe500" stroke-width="2" /><polyline fill="none" points="54.2373,78.5356 60.7458,74.6305 71.1593,71.1593 86.3458,68.9898" stroke="#ff4600" stroke-width="2" /><polyline fill="none" points="43.3898,79.4034 19.5254,75.0644 8.678,74.6305" stroke="#7f0000" stroke-width="2" /></svg>