<?xml version="1.0" encoding="utf-8" ?>
<svg baseProfile="tiny" height="128" version="1.2" viewBox="0,0,128,128" width="128" xmlns="http://www.w3.org/2000/svg" xmlns:ev="http://www.w3.org/2001/xml-events" xmlns:xlink="http://www.w3.org/1999/xlink"><defs /><polyline fill="none" points="101.6986,34.6301 96.8767,34.6301 87.2329,37.6986 78.4658,42.5205 67.5068,50.411 59.6164,60.4932 56.5479,70.5753 56.5479,78.4658 58.3014,81.0959 62.6849,83.2877 71.8904,82.8493 98.1918,74.9589 108.7123,68.8219 110.4658,64.8767 110.4658,60.0548 105.2055,33.3151 103.4521,32.0" stroke="#00007f" stroke-width="2" /><polyline fill="none" points="103.8904,37.6986 105.6438,32.4384 118.7945,17.9726 119.2329,12.7123 112.6575,10.9589 106.5205,14.4658 100.3836,21.0411 87.6712,41.6438 86.7945,34.1918 89.863,17.5342 85.0411,9.6438 81.9726,8.7671 77.1507,16.6575 74.0822,35.9452 74.5205,43.8356" stroke="#0000e8" stroke-width="2" /><polyline fill="none" points="61.8082,60.4932 35.9452,60.0548 17.9726,63.1233 10.5205,68.8219 8.7671,72.7671 8.7671,85.9178 14.0274,93.3699 17.5342,95.1233 33.7534,96.0 42.9589,93.3699 61.8082,81.0959 69.2603,78.9041" stroke="#0038ff" stroke-width="2" /><polyline fill="none" points="80.2192,55.6712 75.3973,63.1233 85.9178,64.4384 88.5479,62.6849 79.7808,56.1096 81.0959,60.0548 78.9041,59.1781 77.1507,60.4932" stroke="#0094ff" stroke-width="2" /><polyline fill="none" points="80.2192,55.6712 72.3288,52.1644 61.3699,43.8356" stroke="#0cf4ea" stroke-width="2" /><polyline fill="none" points="75.3973,60.4932 58.3014,54.7945" stroke="#56ffa0" stroke-width="2" /><polyline fill="none" points="75.8356,64.8767 65.7534,64.4384 56.5479,62.2466" stroke="#a0ff56" stroke-width="2" /><polyline fill="none" points="86.3562,60.9315 94.6849,62.2466 110.9041,55.2329" stroke="#eaff0c" stroke-width="2" /><polyline fill="none" points="84.6027,62.6849 95.1233,67.9452 105.6438,69.2603" stroke="#ffaa00" stroke-width="2" /><polyline fill="none" points="83.726,64.0 95.1233,73.2055 103.4521,77.1507" stroke="#ff5500" stroke-width="2" /><polyline fill="none" points="78.4658,64.8767 74.0822,70.137 67.5068,68.3836" stroke="#e80000" stroke-width="2" /><polyline fill="none" points="81.0959,63.5616 80.2192,69.6986 85.0411,72.7671 88.9863,71.8904" stroke="#7f0000" stroke-width="2" /></svg>