<?xml version="1.0" encoding="utf-8" ?>
<svg baseProfile="tiny" height="128" version="1.2" viewBox="0,0,128,128" width="128" xmlns="http://www.w3.org/2000/svg" xmlns:ev="http://www.w3.org/2001/xml-events" xmlns:xlink="http://www.w3.org/1999/xlink"><defs /><polyline fill="none" points="12.1905,54.8571 9.1429,59.2109 8.7075,70.5306 10.8844,86.2041 15.2381,99.7007 27.4286,108.8435 36.5714,113.6327 51.3741,117.9864 68.7891,119.2925 77.932,113.1973 93.6054,95.3469 100.5714,73.5782 100.1361,62.6939 96.6531,58.3401 85.3333,53.551 62.2585,50.068 40.9252,49.6327 9.1429,56.5986 10.8844,29.6054 20.0272,8.7075 23.9456,20.4626 40.9252,40.9252 43.5374,48.3265" stroke="#00007f" stroke-width="2" /><polyline fill="none" points="69.2245,40.4898 88.381,11.7551 90.5578,16.5442 101.4422,62.6939" stroke="#00d4ff" stroke-width="2" /><polyline fill="none" points="28.2993,62.6939 35.2653,59.6463 46.1497,59.6463 48.7619,60.9524 40.0544,79.6735 23.0748,71.4014 21.7687,68.3537 21.7687,65.3061 23.9456,62.6939 34.8299,58.3401" stroke="#ffe500" stroke-width="2" /><polyline fill="none" points="68.7891,71.4014 66.1769,72.7075 60.0816,72.7075 55.2925,69.2245 53.9864,65.3061 54.8571,60.9524 59.2109,57.4694 67.483,55.2925 84.898,56.5986 89.6871,60.517 92.7347,68.3537 92.2993,72.7075 88.381,74.8844 66.6122,61.8231" stroke="#7f0000" stroke-width="2" /></svg>