<?xml version="1.0" encoding="utf-8" ?>
<svg baseProfile="tiny" height="128" version="1.2" viewBox="0,0,128,128" width="128" xmlns="http://www.w3.org/2000/svg" xmlns:ev="http://www.w3.org/2001/xml-events" xmlns:xlink="http://www.w3.org/1999/xlink"><defs /><polyline fill="none" points="27.3356,40.7864 27.7695,52.9356" stroke="#00007f" stroke-width="2" /><polyline fill="none" points="27.3356,39.9186 52.9356,38.6169 53.3695,49.8983" stroke="#0000d5" stroke-width="2" /><polyline fill="none" points="52.9356,38.1831 60.7458,38.1831 62.9153,30.8068 59.878,28.2034 51.6339,27.7695 44.6915,32.5424 40.3525,31.2407 23.4305,31.2407 22.5627,37.7492 26.0339,42.9559" stroke="#001cff" stroke-width="2" /><polyline fill="none" points="22.1288,32.9763 11.2814,38.1831 9.9797,41.2203 10.4136,50.3322 8.678,54.6712 9.9797,54.6712 15.6203,51.2 19.9593,39.4847 21.6949,37.3153" stroke="#006cff" stroke-width="2" /><polyline fill="none" points="54.6712,32.1085 54.6712,32.5424" stroke="#00b8ff" stroke-width="2" /><polyline fill="none" points="57.2746,32.5424 57.2746,32.5424" stroke="#1cffda" stroke-width="2" /><polyline fill="none" points="55.1051,37.3153 47.7288,33.4102" stroke="#5cff9a" stroke-width="2" /><polyline fill="none" points="54.6712,35.5797 52.0678,32.1085" stroke="#9aff5c" stroke-width="2" /><polyline fill="none" points="53.3695,34.7119 49.0305,32.9763" stroke="#daff1c" stroke-width="2" /><polyline fill="none" points="60.3119,36.8814 58.1424,34.278" stroke="#ffcb00" stroke-width="2" /><polyline fill="none" points="52.0678,26.0339 49.0305,22.9966 49.0305,8.678" stroke="#ff8500" stroke-width="2" /><polyline fill="none" points="49.0305,8.678 42.9559,9.9797 42.0881,11.7153 44.6915,14.3186 58.5763,14.7525 68.122,12.5831 62.9153,13.0169 57.7085,15.1864 59.878,16.922 66.3864,16.0542 64.6508,14.3186 35.1458,14.3186 58.1424,14.3186 39.0508,19.5254 60.7458,18.6576" stroke="#ff3b00" stroke-width="2" /><polyline fill="none" points="80.7051,19.0915 74.1966,21.261 72.8949,22.9966 73.7627,24.2983 80.7051,23.8644 95.8915,18.6576 92.4203,21.6949 99.3627,20.8271 101.0983,19.0915 101.0983,21.261 104.1356,22.1288 110.2102,18.6576 112.3797,12.5831 108.4746,21.261 109.3424,22.9966 111.9458,19.9593" stroke="#d50000" stroke-width="2" /><polyline fill="none" points="111.5119,19.5254 113.2475,16.922 119.322,16.4881" stroke="#7f0000" stroke-width="2" /></svg>