<?xml version="1.0" encoding="utf-8" ?>
<svg baseProfile="tiny" height="128" version="1.2" viewBox="0,0,128,128" width="128" xmlns="http://www.w3.org/2000/svg" xmlns:ev="http://www.w3.org/2001/xml-events" xmlns:xlink="http://www.w3.org/1999/xlink"><defs /><polyline fill="none" points="42.9559,22.1288 36.4475,22.5627 25.6,31.2407 19.0915,38.1831 10.4136,55.9729 10.4136,73.7627 18.6576,81.5729 42.522,91.1186 53.3695,91.9864 68.122,91.1186 95.4576,82.0068 101.9661,76.3661 106.3051,70.2915 108.4746,64.6508 109.3424,52.0678 108.0407,46.4271 98.4949,35.1458 82.4407,26.0339 73.3288,23.4305 42.9559,22.1288" stroke="#00007f" stroke-width="2" /><polyline fill="none" points="26.4678,24.7322 22.5627,17.7898 16.922,12.5831 8.678,8.678 8.678,13.0169 14.3186,34.278" stroke="#004cff" stroke-width="2" /><polyline fill="none" points="89.3831,24.7322 91.9864,21.6949 105.4373,13.8847 118.0203,10.4136 119.322,16.0542 118.8881,20.8271 111.078,42.0881" stroke="#29ffcd" stroke-width="2" /><polyline fill="none" points="39.0508,45.9932 41.2203,50.3322 47.7288,49.8983 49.4644,42.0881 43.8237,39.9186 42.522,44.2576" stroke="#cdff29" stroke-width="2" /><polyline fill="none" points="81.139,44.2576 83.3085,49.8983 85.478,50.3322 88.5153,47.2949 88.5153,41.6542 86.7797,39.4847 82.0068,39.4847" stroke="#ff6700" stroke-width="2" /><polyline fill="none" points="55.1051,52.9356 67.6881,53.3695 63.7831,62.4814" stroke="#7f0000" stroke-width="2" /></svg>