<?xml version="1.0" encoding="utf-8" ?>
<svg baseProfile="tiny" height="128" version="1.2" viewBox="0,0,128,128" width="128" xmlns="http://www.w3.org/2000/svg" xmlns:ev="http://www.w3.org/2001/xml-events" xmlns:xlink="http://www.w3.org/1999/xlink"><defs /><polyline fill="none" points="36.0136,47.2949 35.5797,48.5966 32.1085,49.0305 26.4678,48.1627 22.5627,45.1254 20.8271,41.2203 21.6949,32.5424 29.5051,20.8271 40.3525,19.9593 52.5017,26.0339 57.7085,33.4102 59.0102,46.861 60.3119,50.3322 63.3492,53.3695 68.9898,56.4068 76.8,56.8407 91.1186,52.0678 98.061,46.4271 112.8136,23.8644 116.2847,14.7525 118.4542,13.8847 119.322,15.6203 119.322,20.3932 105.0034,42.522 97.1932,62.0475 96.3254,68.5559 100.2305,81.5729 95.8915,84.6102 93.722,83.7424 94.5898,76.8 91.1186,65.0847 89.8169,68.9898 89.8169,82.4407 84.1763,82.4407 84.6102,70.7254 83.7424,67.6881 80.7051,64.6508 58.1424,65.9525 54.6712,76.8 47.7288,82.4407 46.4271,77.2339 49.0305,73.7627 48.1627,61.6136 41.6542,72.8949 39.0508,81.139 34.278,81.139 32.5424,78.1017 36.0136,72.8949 39.0508,56.4068 35.1458,52.5017 35.1458,41.6542" stroke="#00007f" stroke-width="2" /><polyline fill="none" points="44.6915,22.5627 50.3322,19.9593 54.6712,15.1864 56.4068,33.8441" stroke="#0000fe" stroke-width="2" /><polyline fill="none" points="22.9966,23.8644 28.2034,8.678 42.522,18.6576" stroke="#0060ff" stroke-width="2" /><polyline fill="none" points="22.9966,41.6542 8.678,35.1458" stroke="#00d4ff" stroke-width="2" /><polyline fill="none" points="20.8271,40.7864 14.7525,42.522" stroke="#4cffaa" stroke-width="2" /><polyline fill="none" points="21.6949,44.2576 12.1492,45.1254" stroke="#aaff4c" stroke-width="2" /><polyline fill="none" points="59.878,32.5424 59.878,32.5424" stroke="#ffe500" stroke-width="2" /><polyline fill="none" points="44.6915,38.6169 57.7085,34.7119" stroke="#ff7a00" stroke-width="2" /><polyline fill="none" points="46.861,40.7864 53.3695,42.522" stroke="#fe1200" stroke-width="2" /><polyline fill="none" points="43.8237,42.9559 53.3695,44.6915" stroke="#7f0000" stroke-width="2" /></svg>