<?xml version="1.0" encoding="utf-8" ?>
<svg baseProfile="tiny" height="128" version="1.2" viewBox="0,0,128,128" width="128" xmlns="http://www.w3.org/2000/svg" xmlns:ev="http://www.w3.org/2001/xml-events" xmlns:xlink="http://www.w3.org/1999/xlink"><defs /><polyline fill="none" points="110.6441,57.2746 110.6441,80.7051 105.4373,98.4949 97.1932,105.8712 87.6475,108.9085 72.461,110.6441 56.4068,110.2102 41.6542,100.2305 34.7119,90.2508 32.5424,84.6102 29.5051,55.9729 26.4678,42.0881 13.8847,21.261 8.678,8.678 16.922,11.7153 38.1831,25.6 60.3119,23.4305 75.0644,23.4305 94.1559,28.6373 99.3627,26.9017 119.322,14.3186 114.9831,29.939 114.9831,41.2203 116.7186,48.1627 114.5492,56.4068" stroke="#00007f" stroke-width="2" /><polyline fill="none" points="87.6475,59.0102 85.478,57.7085 83.3085,62.0475 85.9119,63.3492 87.6475,60.3119" stroke="#0010ff" stroke-width="2" /><polyline fill="none" points="57.2746,62.9153 52.0678,62.9153 56.8407,63.7831" stroke="#00a4ff" stroke-width="2" /><polyline fill="none" points="69.8576,72.461 69.4237,76.8 71.5932,77.6678 73.7627,76.3661 73.7627,74.1966 71.1593,73.3288 69.4237,74.6305" stroke="#3fffb7" stroke-width="2" /><polyline fill="none" points="70.2915,78.9695 70.7254,89.3831 72.461,90.2508 77.6678,88.0814 87.6475,86.7797 98.061,82.8746" stroke="#b7ff3f" stroke-width="2" /><polyline fill="none" points="72.8949,88.9492 52.0678,89.3831 41.6542,85.9119 42.0881,84.6102" stroke="#ffb900" stroke-width="2" /><polyline fill="none" points="57.7085,73.7627 39.9186,67.6881" stroke="#ff3000" stroke-width="2" /><polyline fill="none" points="55.539,82.4407 28.6373,82.4407 29.5051,79.8373" stroke="#7f0000" stroke-width="2" /></svg>