<?xml version="1.0" encoding="utf-8" ?>
<svg baseProfile="tiny" height="128" version="1.2" viewBox="0,0,128,128" width="128" xmlns="http://www.w3.org/2000/svg" xmlns:ev="http://www.w3.org/2001/xml-events" xmlns:xlink="http://www.w3.org/1999/xlink"><defs /><polyline fill="none" points="55.539,66.8203 54.2373,76.8 58.5763,78.5356 60.3119,76.3661 60.7458,70.2915 59.0102,68.5559 55.1051,68.9898 53.3695,70.7254 53.8034,72.8949" stroke="#00007f" stroke-width="2" /><polyline fill="none" points="36.8814,52.0678 37.3153,39.0508 45.5593,8.678 49.4644,12.1492 55.539,22.9966 70.2915,44.2576" stroke="#0000f1" stroke-width="2" /><polyline fill="none" points="88.5153,46.4271 101.9661,32.9763 116.7186,22.1288 118.4542,22.5627 119.322,30.3729 114.5492,49.0305 111.9458,55.1051 108.9085,55.9729" stroke="#004cff" stroke-width="2" /><polyline fill="none" points="68.122,41.2203 85.9119,48.5966" stroke="#00b0ff" stroke-width="2" /><polyline fill="none" points="31.2407,49.4644 25.6,71.5932 26.9017,87.2136 32.1085,97.1932 39.0508,105.4373 46.4271,109.7763 52.5017,111.5119 75.4983,111.9458 85.9119,108.4746 88.9492,105.8712 95.0237,99.3627 101.5322,86.3458 105.4373,81.139 108.9085,71.5932 108.4746,63.7831" stroke="#29ffcd" stroke-width="2" /><polyline fill="none" points="78.9695,72.8949 79.8373,76.8 83.7424,75.0644 85.0441,72.8949 85.478,69.8576 80.7051,66.8203 76.8,68.9898 74.6305,72.8949" stroke="#7cff79" stroke-width="2" /><polyline fill="none" points="70.7254,87.2136 85.478,85.9119 108.9085,86.7797" stroke="#cdff29" stroke-width="2" /><polyline fill="none" points="79.8373,90.2508 75.4983,93.722 101.5322,100.2305" stroke="#ffc400" stroke-width="2" /><polyline fill="none" points="45.1254,82.4407 8.678,75.9322" stroke="#ff6700" stroke-width="2" /><polyline fill="none" points="43.3898,91.1186 20.3932,93.2881 11.7153,96.7593" stroke="#f10700" stroke-width="2" /><polyline fill="none" points="51.2,99.3627 13.4508,115.4169" stroke="#7f0000" stroke-width="2" /></svg>