<?xml version="1.0" encoding="utf-8" ?>
<svg baseProfile="tiny" height="128" version="1.2" viewBox="0,0,128,128" width="128" xmlns="http://www.w3.org/2000/svg" xmlns:ev="http://www.w3.org/2001/xml-events" xmlns:xlink="http://www.w3.org/1999/xlink"><defs /><polyline fill="none" points="19.9593,45.5593 8.678,16.0542 34.7119,30.8068 36.8814,30.8068 48.5966,26.0339 61.1797,26.4678 70.2915,30.3729 77.2339,21.261 82.0068,8.678 83.3085,13.0169 95.4576,29.0712 99.7966,39.4847 102.4,49.0305 99.7966,64.2169 93.722,71.1593 60.3119,85.9119 43.3898,90.6847 33.4102,90.6847 26.9017,84.6102 21.261,63.3492 19.9593,51.6339 20.8271,50.3322" stroke="#00007f" stroke-width="2" /><polyline fill="none" points="38.1831,45.5593 38.1831,45.5593" stroke="#004cff" stroke-width="2" /><polyline fill="none" points="83.3085,47.7288 83.3085,47.7288" stroke="#29ffcd" stroke-width="2" /><polyline fill="none" points="88.9492,73.7627 98.4949,75.9322 100.2305,75.4983 103.7017,71.1593 108.0407,71.1593 112.3797,73.7627 114.1153,78.1017 106.3051,83.3085 98.4949,83.7424 77.6678,77.2339" stroke="#cdff29" stroke-width="2" /><polyline fill="none" points="106.739,64.2169 107.6068,71.1593" stroke="#ff6700" stroke-width="2" /><polyline fill="none" points="119.322,68.9898 110.6441,75.4983" stroke="#7f0000" stroke-width="2" /></svg>