<?xml version="1.0" encoding="utf-8" ?>
<svg baseProfile="tiny" height="128" version="1.2" viewBox="0,0,128,128" width="128" xmlns="http://www.w3.org/2000/svg" xmlns:ev="http://www.w3.org/2001/xml-events" xmlns:xlink="http://www.w3.org/1999/xlink"><defs /><polyline fill="none" points="39.0508,10.8475 45.1254,15.1864 46.4271,13.0169 42.9559,9.1119 39.9186,8.678 38.6169,11.2814" stroke="#00007f" stroke-width="2" /><polyline fill="none" points="59.4441,11.7153 70.7254,17.7898 72.0271,14.7525 66.3864,9.5458 60.3119,9.9797 57.2746,13.0169" stroke="#0000d1" stroke-width="2" /><polyline fill="none" points="64.6508,11.7153 68.122,14.7525" stroke="#0010ff" stroke-width="2" /><polyline fill="none" points="42.0881,10.8475 43.8237,13.0169" stroke="#0058ff" stroke-width="2" /><polyline fill="none" points="55.1051,20.3932 56.8407,25.1661 56.8407,34.278 53.8034,48.5966 49.0305,51.2 43.8237,51.6339 34.278,47.2949 32.5424,44.6915 32.5424,42.522" stroke="#00a4ff" stroke-width="2" /><polyline fill="none" points="58.1424,20.8271 63.3492,32.1085 75.4983,51.6339 81.139,54.6712 85.9119,52.5017 87.6475,50.3322" stroke="#05ecf1" stroke-width="2" /><polyline fill="none" points="44.6915,32.5424 48.5966,33.8441" stroke="#3fffb7" stroke-width="2" /><polyline fill="none" points="78.5356,34.278 74.6305,35.1458" stroke="#7cff79" stroke-width="2" /><polyline fill="none" points="59.4441,42.9559 59.4441,45.1254" stroke="#b7ff3f" stroke-width="2" /><polyline fill="none" points="59.878,29.5051 48.5966,29.0712 26.4678,25.6" stroke="#f1fc05" stroke-width="2" /><polyline fill="none" points="56.8407,36.0136 38.6169,36.0136 18.2237,39.9186 8.678,42.522 9.1119,44.2576" stroke="#ffb900" stroke-width="2" /><polyline fill="none" points="41.6542,42.0881 34.278,44.6915 24.2983,52.5017 24.7322,54.6712 26.4678,56.4068 33.8441,57.7085" stroke="#ff7300" stroke-width="2" /><polyline fill="none" points="62.9153,38.1831 75.9322,29.5051 91.9864,20.8271" stroke="#ff3000" stroke-width="2" /><polyline fill="none" points="81.139,29.5051 91.9864,34.278 107.1729,39.0508 109.7763,39.9186 108.4746,40.3525" stroke="#d10000" stroke-width="2" /><polyline fill="none" points="75.9322,35.5797 85.9119,42.9559 98.9288,47.7288 119.322,60.7458" stroke="#7f0000" stroke-width="2" /></svg>