<?xml version="1.0" encoding="utf-8" ?>
<svg baseProfile="tiny" height="128" version="1.2" viewBox="0,0,128,128" width="128" xmlns="http://www.w3.org/2000/svg" xmlns:ev="http://www.w3.org/2001/xml-events" xmlns:xlink="http://www.w3.org/1999/xlink"><defs /><polyline fill="none" points="29.5051,32.1085 29.939,42.9559 29.0712,46.4271 25.6,48.5966 26.0339,51.2 32.5424,53.3695 33.8441,52.0678 34.7119,31.2407 34.7119,43.8237 45.5593,44.2576 45.5593,42.522 47.2949,49.0305 49.8983,48.5966 51.2,42.9559 50.3322,39.9186 47.2949,38.1831 42.0881,37.3153 35.5797,39.0508" stroke="#00007f" stroke-width="2" /><polyline fill="none" points="59.4441,29.939 59.0102,47.2949 55.1051,51.2 58.5763,53.3695 62.9153,52.5017 64.6508,48.5966 64.2169,29.939" stroke="#0000f1" stroke-width="2" /><polyline fill="none" points="64.2169,39.0508 76.3661,38.1831 77.2339,45.1254 74.6305,44.6915 73.7627,40.3525 64.6508,42.0881" stroke="#004cff" stroke-width="2" /><polyline fill="none" points="28.6373,29.939 35.5797,31.6746 63.7831,32.1085 76.8,29.0712 77.2339,23.4305 75.9322,19.5254 70.2915,12.1492 63.7831,8.678 55.9729,9.9797 37.3153,16.4881 28.2034,16.4881" stroke="#00b0ff" stroke-width="2" /><polyline fill="none" points="76.8,22.5627 85.478,15.6203 91.5525,14.7525 96.3254,16.0542 99.3627,19.0915 101.9661,24.7322 104.1356,35.1458 106.739,41.6542 114.5492,48.5966 119.322,48.5966" stroke="#29ffcd" stroke-width="2" /><polyline fill="none" points="29.5051,17.7898 24.7322,13.4508 17.3559,12.1492 13.4508,15.1864 12.5831,22.1288 13.8847,25.6 21.261,30.8068 27.3356,31.2407 30.3729,29.5051" stroke="#7cff79" stroke-width="2" /><polyline fill="none" points="77.2339,26.0339 78.1017,23.8644 80.2712,22.9966 87.6475,25.1661 95.8915,33.4102 100.6644,42.0881 110.2102,50.7661 114.5492,51.2 118.8881,48.1627" stroke="#cdff29" stroke-width="2" /><polyline fill="none" points="20.3932,19.5254 8.678,22.5627" stroke="#ffc400" stroke-width="2" /><polyline fill="none" points="20.3932,19.9593 13.0169,26.4678" stroke="#ff6700" stroke-width="2" /><polyline fill="none" points="21.6949,21.261 14.3186,32.9763" stroke="#f10700" stroke-width="2" /><polyline fill="none" points="23.4305,22.9966 20.3932,32.1085" stroke="#7f0000" stroke-width="2" /></svg>