<?xml version="1.0" encoding="utf-8" ?>
<svg baseProfile="tiny" height="128" version="1.2" viewBox="0,0,128,128" width="128" xmlns="http://www.w3.org/2000/svg" xmlns:ev="http://www.w3.org/2001/xml-events" xmlns:xlink="http://www.w3.org/1999/xlink"><defs /><polyline fill="none" points="19.5254,63.7831 31.2407,55.9729 45.5593,50.3322 63.3492,48.1627 91.1186,48.1627 108.0407,55.539 117.1525,63.3492 119.322,67.6881 119.322,73.7627 113.2475,88.5153 105.8712,98.4949 92.8542,106.739 89.3831,107.6068 62.4814,111.9458 46.4271,111.5119 32.9763,108.0407 20.3932,100.2305 17.7898,96.7593 15.6203,89.3831 16.4881,62.0475 17.7898,60.3119 22.5627,58.5763" stroke="#00007f" stroke-width="2" /><polyline fill="none" points="22.9966,58.5763 20.3932,39.9186 20.8271,8.678 29.939,16.4881 52.9356,47.2949" stroke="#0000fe" stroke-width="2" /><polyline fill="none" points="84.6102,46.4271 100.6644,20.3932 111.9458,46.861 112.8136,56.4068" stroke="#0060ff" stroke-width="2" /><polyline fill="none" points="94.5898,48.1627 95.4576,45.1254 97.1932,44.2576 99.3627,54.6712" stroke="#00d4ff" stroke-width="2" /><polyline fill="none" points="30.8068,51.2 30.8068,37.3153 45.1254,50.3322" stroke="#4cffaa" stroke-width="2" /><polyline fill="none" points="49.0305,70.2915 42.9559,70.2915 42.0881,76.3661 45.5593,76.3661 47.2949,74.6305 47.7288,71.1593 46.4271,68.9898" stroke="#aaff4c" stroke-width="2" /><polyline fill="none" points="76.3661,67.6881 76.3661,72.8949 78.1017,74.1966 80.2712,73.7627 81.5729,69.8576 77.2339,68.5559" stroke="#ffe500" stroke-width="2" /><polyline fill="none" points="62.4814,82.0068 68.122,82.0068 67.6881,86.3458 65.0847,91.1186 61.6136,85.478 60.7458,87.2136 62.9153,91.9864 56.4068,90.2508 41.6542,91.1186 8.678,104.1356 9.9797,105.0034" stroke="#ff7a00" stroke-width="2" /><polyline fill="none" points="63.7831,94.1559 52.9356,94.5898 42.0881,98.4949 31.6746,104.5695 22.9966,113.6814" stroke="#fe1200" stroke-width="2" /><polyline fill="none" points="54.2373,95.0237 53.8034,98.061 40.3525,119.322" stroke="#7f0000" stroke-width="2" /></svg>