<?xml version="1.0" encoding="utf-8" ?>
<svg baseProfile="tiny" height="128" version="1.2" viewBox="0,0,128,128" width="128" xmlns="http://www.w3.org/2000/svg" xmlns:ev="http://www.w3.org/2001/xml-events" xmlns:xlink="http://www.w3.org/1999/xlink"><defs /><polyline fill="none" points="57.7085,35.5797 71.5932,36.8814 75.9322,17.7898 79.4034,11.7153 84.1763,20.3932 86.3458,34.7119 87.2136,35.1458" stroke="#00007f" stroke-width="2" /><polyline fill="none" points="61.1797,34.278 53.3695,34.7119 52.0678,32.1085 51.6339,20.3932 45.9932,12.5831 40.3525,8.678 38.1831,11.7153 38.1831,16.4881 43.3898,32.5424 30.3729,39.0508 27.3356,46.4271 27.3356,51.2 33.8441,60.3119 39.4847,65.5186 48.5966,68.9898 61.6136,70.2915 77.6678,70.2915 87.2136,65.5186 97.1932,55.9729 98.061,47.2949 93.2881,36.4475 88.5153,33.4102 81.5729,35.1458" stroke="#0000fe" stroke-width="2" /><polyline fill="none" points="35.1458,46.861 8.678,49.4644" stroke="#0060ff" stroke-width="2" /><polyline fill="none" points="34.7119,53.8034 22.1288,63.7831 27.3356,63.7831" stroke="#00d4ff" stroke-width="2" /><polyline fill="none" points="84.1763,46.4271 119.322,45.1254" stroke="#4cffaa" stroke-width="2" /><polyline fill="none" points="82.4407,58.1424 88.0814,59.878 115.4169,59.878" stroke="#aaff4c" stroke-width="2" /><polyline fill="none" points="58.5763,52.9356 57.2746,57.7085 59.4441,58.5763 62.4814,58.5763 63.7831,56.4068 61.1797,53.8034" stroke="#ffe500" stroke-width="2" /><polyline fill="none" points="44.6915,42.9559 44.6915,42.9559" stroke="#ff7a00" stroke-width="2" /><polyline fill="none" points="46.861,42.9559 47.2949,43.8237" stroke="#fe1200" stroke-width="2" /><polyline fill="none" points="71.5932,43.3898 71.5932,43.3898" stroke="#7f0000" stroke-width="2" /></svg>