<?xml version="1.0" encoding="utf-8" ?>
<svg baseProfile="tiny" height="128" version="1.2" viewBox="0,0,128,128" width="128" xmlns="http://www.w3.org/2000/svg" xmlns:ev="http://www.w3.org/2001/xml-events" xmlns:xlink="http://www.w3.org/1999/xlink"><defs /><polyline fill="none" points="42.9559,25.1661 40.3525,42.9559 41.6542,47.2949 46.4271,53.3695 52.9356,55.9729 64.2169,58.1424 69.4237,58.1424 82.4407,54.6712 88.9492,50.7661 90.6847,45.5593 83.7424,8.678 75.0644,20.3932 59.0102,21.6949 56.8407,21.6949 52.5017,10.4136 43.8237,26.4678" stroke="#00007f" stroke-width="2" /><polyline fill="none" points="56.4068,29.0712 56.4068,31.2407" stroke="#0000c8" stroke-width="2" /><polyline fill="none" points="68.9898,28.6373 68.9898,32.1085" stroke="#0000ff" stroke-width="2" /><polyline fill="none" points="60.3119,43.3898 61.6136,40.3525 63.7831,43.8237 61.1797,43.3898" stroke="#0040ff" stroke-width="2" /><polyline fill="none" points="61.6136,42.9559 61.6136,48.1627 59.0102,49.8983 54.2373,48.1627 67.6881,48.5966 72.8949,46.4271 73.7627,45.5593 72.8949,44.2576" stroke="#0080ff" stroke-width="2" /><polyline fill="none" points="57.7085,42.9559 57.7085,44.2576" stroke="#00c0ff" stroke-width="2" /><polyline fill="none" points="55.9729,44.6915 56.8407,45.5593" stroke="#15ffe1" stroke-width="2" /><polyline fill="none" points="59.4441,45.1254 59.878,45.1254" stroke="#49ffad" stroke-width="2" /><polyline fill="none" points="68.9898,42.522 68.5559,43.3898" stroke="#7cff79" stroke-width="2" /><polyline fill="none" points="67.6881,44.6915 67.6881,45.1254" stroke="#b0ff46" stroke-width="2" /><polyline fill="none" points="69.4237,44.6915 69.4237,45.1254" stroke="#e4ff12" stroke-width="2" /><polyline fill="none" points="77.2339,41.2203 81.5729,37.3153 91.9864,32.1085 114.1153,24.7322 119.322,23.8644 117.5864,26.0339" stroke="#ffcf00" stroke-width="2" /><polyline fill="none" points="81.5729,42.522 103.2678,42.522" stroke="#ff9400" stroke-width="2" /><polyline fill="none" points="80.2712,48.1627 99.3627,70.7254" stroke="#ff5900" stroke-width="2" /><polyline fill="none" points="45.5593,33.8441 29.939,33.4102 8.678,30.3729" stroke="#ff1d00" stroke-width="2" /><polyline fill="none" points="45.1254,40.3525 36.4475,42.522 19.0915,43.3898" stroke="#c30000" stroke-width="2" /><polyline fill="none" points="50.3322,43.3898 43.8237,50.3322 33.8441,56.8407 23.4305,60.7458 9.9797,62.9153" stroke="#7f0000" stroke-width="2" /></svg>