<?xml version="1.0" encoding="utf-8" ?>
<svg baseProfile="tiny" height="128" version="1.2" viewBox="0,0,128,128" width="128" xmlns="http://www.w3.org/2000/svg" xmlns:ev="http://www.w3.org/2001/xml-events" xmlns:xlink="http://www.w3.org/1999/xlink"><defs /><polyline fill="none" points="73.3288,43.8237 43.3898,43.3898 32.5424,46.861 27.3356,53.8034 26.4678,58.1424 27.7695,72.0271 33.4102,80.7051 42.9559,85.478 57.2746,88.0814 69.8576,93.2881 84.1763,95.0237 89.3831,92.8542 97.6271,81.5729 98.9288,75.4983 98.9288,65.9525 95.0237,59.4441 87.2136,55.1051 80.2712,52.9356 68.5559,40.7864" stroke="#00007f" stroke-width="2" /><polyline fill="none" points="68.5559,44.2576 110.2102,12.1492 119.322,8.678 110.2102,32.9763 109.3424,41.2203 101.0983,49.4644 97.1932,56.4068" stroke="#004cff" stroke-width="2" /><polyline fill="none" points="43.3898,45.5593 29.5051,28.6373 15.6203,17.3559 9.5458,14.7525 8.678,16.4881 9.5458,24.7322 21.261,51.6339 29.939,61.6136" stroke="#29ffcd" stroke-width="2" /><polyline fill="none" points="46.4271,59.4441 42.522,65.0847 44.2576,66.3864 47.7288,65.9525 49.8983,65.0847 49.0305,61.1797 45.5593,59.4441 42.9559,60.3119" stroke="#cdff29" stroke-width="2" /><polyline fill="none" points="68.122,59.878 67.2542,61.6136 68.9898,63.3492 71.1593,63.3492 72.0271,61.6136 67.6881,59.0102" stroke="#ff6700" stroke-width="2" /><polyline fill="none" points="58.5763,72.8949 60.7458,73.7627 61.1797,72.0271 59.878,71.5932 58.1424,73.3288" stroke="#7f0000" stroke-width="2" /></svg>