<?xml version="1.0" encoding="utf-8" ?>
<svg baseProfile="tiny" height="128" version="1.2" viewBox="0,0,128,128" width="128" xmlns="http://www.w3.org/2000/svg" xmlns:ev="http://www.w3.org/2001/xml-events" xmlns:xlink="http://www.w3.org/1999/xlink"><defs /><polyline fill="none" points="26.9932,23.5102 15.6735,37.8776 8.7075,52.6803 9.5782,62.2585 16.1088,88.381 19.1565,94.9116 29.1701,108.8435 43.5374,117.551 56.5986,119.2925 76.6259,116.6803 90.1224,110.1497 98.3946,101.4422 105.7959,88.381 108.8435,75.7551 107.5374,63.5646 100.5714,44.8435 87.0748,34.8299 48.3265,21.7687 31.7823,25.6871 23.9456,31.3469" stroke="#00007f" stroke-width="2" /><polyline fill="none" points="16.1088,38.7483 16.5442,21.3333 17.8503,8.7075 24.8163,9.1429 33.0884,16.9796 40.4898,26.5578" stroke="#0000ff" stroke-width="2" /><polyline fill="none" points="85.7687,33.9592 93.6054,20.4626 100.1361,13.4966 105.3605,21.7687 103.619,52.6803" stroke="#0080ff" stroke-width="2" /><polyline fill="none" points="27.8639,59.6463 43.102,53.1156 54.8571,52.2449" stroke="#15ffe1" stroke-width="2" /><polyline fill="none" points="29.1701,60.0816 45.7143,64.8707 50.9388,64.4354 57.9048,61.3878 60.0816,55.7279" stroke="#7cff79" stroke-width="2" /><polyline fill="none" points="74.0136,67.483 87.5102,60.0816 91.8639,60.0816 94.4762,62.2585" stroke="#e4ff12" stroke-width="2" /><polyline fill="none" points="70.966,69.2245 77.0612,74.0136 88.381,77.4966 107.102,70.5306" stroke="#ff9400" stroke-width="2" /><polyline fill="none" points="82.7211,63.1293 91.8639,61.8231 99.2653,64.0 108.4082,69.6599" stroke="#ff1d00" stroke-width="2" /><polyline fill="none" points="83.1565,68.3537 88.8163,71.8367 87.0748,69.2245 93.1701,73.1429" stroke="#7f0000" stroke-width="2" /></svg>