<?xml version="1.0" encoding="utf-8" ?>
<svg baseProfile="tiny" height="128" version="1.2" viewBox="0,0,128,128" width="128" xmlns="http://www.w3.org/2000/svg" xmlns:ev="http://www.w3.org/2001/xml-events" xmlns:xlink="http://www.w3.org/1999/xlink"><defs /><polyline fill="none" points="32.3276,35.8225 47.1809,8.7372 60.2867,39.7543 65.529,37.57 72.5188,37.1331 95.2355,40.628 107.0307,16.6007 107.0307,24.901 110.5256,48.4915 110.9625,62.9078 107.4676,71.6451 100.9147,75.1399 61.5973,82.5666 50.2389,82.1297 40.1911,78.198 33.2014,71.6451 31.0171,61.5973 35.3857,49.802 35.8225,38.0068" stroke="#00007f" stroke-width="2" /><polyline fill="none" points="53.7338,60.2867 55.9181,55.4812 58.5392,53.2969 64.2184,57.6655" stroke="#0010ff" stroke-width="2" /><polyline fill="none" points="76.8874,59.8498 79.0717,56.3549 83.4403,52.8601 86.4983,55.0444 89.1195,59.413" stroke="#00a4ff" stroke-width="2" /><polyline fill="none" points="98.2935,59.8498 119.2628,51.5495" stroke="#3fffb7" stroke-width="2" /><polyline fill="none" points="106.157,66.8396 112.7099,61.5973 117.9522,59.8498" stroke="#b7ff3f" stroke-width="2" /><polyline fill="none" points="31.8908,67.2765 8.7372,72.0819" stroke="#ffb900" stroke-width="2" /><polyline fill="none" points="38.0068,72.9556 13.1058,82.1297" stroke="#ff3000" stroke-width="2" /><polyline fill="none" points="67.7133,67.7133 75.1399,66.4027 65.9659,66.8396 67.2765,68.587 71.2082,69.4608 73.3925,68.1502 71.6451,67.2765" stroke="#7f0000" stroke-width="2" /></svg>