<?xml version="1.0" encoding="utf-8" ?>
<svg baseProfile="tiny" height="128" version="1.2" viewBox="0,0,128,128" width="128" xmlns="http://www.w3.org/2000/svg" xmlns:ev="http://www.w3.org/2001/xml-events" xmlns:xlink="http://www.w3.org/1999/xlink"><defs /><polyline fill="none" points="50.3322,45.9932 40.3525,45.5593 21.6949,56.4068 14.7525,65.5186 9.9797,75.4983 8.678,85.0441 9.5458,95.0237 13.8847,104.1356 20.3932,111.9458 31.2407,116.7186 43.3898,119.322 65.0847,114.5492 73.3288,108.9085 81.139,101.5322 85.9119,91.1186 88.5153,80.2712 88.9492,68.122 87.2136,56.4068 83.3085,48.1627 76.8,43.8237 69.8576,40.7864 44.2576,41.6542 37.3153,42.9559 30.8068,46.4271" stroke="#00007f" stroke-width="2" /><polyline fill="none" points="19.5254,67.2542 16.4881,59.0102 16.922,50.7661 23.4305,18.6576 27.3356,24.7322 36.0136,49.8983 41.2203,55.9729 43.8237,56.4068" stroke="#0010ff" stroke-width="2" /><polyline fill="none" points="67.2542,39.4847 70.7254,28.6373 75.4983,19.5254 81.5729,12.5831 85.9119,9.1119 88.0814,8.678 89.3831,10.4136 89.3831,19.0915 84.1763,45.9932 85.478,58.5763" stroke="#00a4ff" stroke-width="2" /><polyline fill="none" points="50.3322,62.9153 37.7492,61.1797 32.1085,63.3492 26.4678,67.2542 25.1661,74.1966 26.4678,79.8373 30.8068,82.4407 37.3153,82.8746 44.2576,80.2712 49.4644,75.9322 52.5017,69.4237 53.8034,63.3492 51.6339,57.7085 48.1627,52.9356 45.1254,51.6339 41.2203,53.8034 37.7492,58.5763 38.1831,67.6881" stroke="#3fffb7" stroke-width="2" /><polyline fill="none" points="76.3661,59.878 67.6881,59.4441 61.1797,62.0475 55.9729,66.8203 54.6712,75.0644 57.7085,82.4407 64.2169,83.3085 72.461,81.5729 83.7424,71.5932 84.6102,64.6508 82.8746,59.4441 72.8949,53.8034 66.3864,55.1051 54.6712,60.3119" stroke="#b7ff3f" stroke-width="2" /><polyline fill="none" points="49.8983,91.9864 22.1288,98.9288 19.5254,95.8915" stroke="#ffb900" stroke-width="2" /><polyline fill="none" points="49.0305,108.4746 20.8271,119.322" stroke="#ff3000" stroke-width="2" /><polyline fill="none" points="44.2576,112.8136 43.8237,113.2475" stroke="#7f0000" stroke-width="2" /></svg>