<?xml version="1.0" encoding="utf-8" ?>
<svg baseProfile="tiny" height="128" version="1.2" viewBox="0,0,128,128" width="128" xmlns="http://www.w3.org/2000/svg" xmlns:ev="http://www.w3.org/2001/xml-events" xmlns:xlink="http://www.w3.org/1999/xlink"><defs /><polyline fill="none" points="81.8503,43.9728 69.6599,33.9592 62.6939,30.4762 58.7755,30.4762 52.6803,33.9592 50.5034,39.1837 49.1973,55.7279 53.551,71.4014 57.4694,79.6735 63.5646,86.6395 71.8367,92.7347 77.4966,92.2993 83.5918,90.1224 87.0748,80.9796 88.381,70.966 86.2041,58.7755 82.2857,50.068 80.5442,40.9252 85.7687,34.3946 119.2925,8.7075 115.8095,24.8163 93.1701,54.8571 87.9456,60.0816" stroke="#00007f" stroke-width="2" /><polyline fill="none" points="47.8912,46.585 37.4422,40.4898 19.5918,33.0884 8.7075,25.6871 8.7075,27.8639 17.415,37.4422 51.8095,62.6939" stroke="#0000de" stroke-width="2" /><polyline fill="none" points="67.483,66.6122 67.483,66.6122" stroke="#0028ff" stroke-width="2" /><polyline fill="none" points="67.0476,64.8707 66.6122,65.3061" stroke="#0080ff" stroke-width="2" /><polyline fill="none" points="68.3537,64.8707 77.4966,51.8095" stroke="#00d4ff" stroke-width="2" /><polyline fill="none" points="72.2721,64.8707 81.8503,63.5646" stroke="#36ffc0" stroke-width="2" /><polyline fill="none" points="74.449,69.2245 82.7211,68.7891" stroke="#7cff79" stroke-width="2" /><polyline fill="none" points="63.5646,69.6599 52.6803,76.1905" stroke="#c0ff36" stroke-width="2" /><polyline fill="none" points="62.6939,66.1769 52.6803,67.0476" stroke="#ffe500" stroke-width="2" /><polyline fill="none" points="59.6463,62.6939 51.8095,61.8231" stroke="#ff9400" stroke-width="2" /><polyline fill="none" points="63.1293,52.2449 64.4354,49.6327 67.483,50.5034" stroke="#ff4600" stroke-width="2" /><polyline fill="none" points="56.5986,54.4218 55.2925,53.9864 55.7279,56.1633" stroke="#de0000" stroke-width="2" /><polyline fill="none" points="67.483,82.2857 73.1429,80.5442 74.0136,77.932 72.7075,75.3197" stroke="#7f0000" stroke-width="2" /></svg>