<?xml version="1.0" encoding="utf-8" ?>
<svg baseProfile="tiny" height="128" version="1.2" viewBox="0,0,128,128" width="128" xmlns="http://www.w3.org/2000/svg" xmlns:ev="http://www.w3.org/2001/xml-events" xmlns:xlink="http://www.w3.org/1999/xlink"><defs /><polyline fill="none" points="86.3458,19.5254 81.5729,15.1864 72.461,12.1492 56.4068,11.7153 34.7119,17.7898 26.9017,22.5627 24.2983,25.6 22.5627,36.4475 22.9966,39.9186 26.4678,43.3898 52.0678,59.0102 65.0847,62.9153 82.4407,61.6136 91.5525,53.8034 97.6271,43.3898 98.9288,32.9763 98.061,26.0339 92.8542,21.6949 83.3085,19.0915" stroke="#00007f" stroke-width="2" /><polyline fill="none" points="85.478,15.6203 119.322,14.3186 117.1525,17.7898 109.7763,24.7322 100.6644,28.6373" stroke="#0010ff" stroke-width="2" /><polyline fill="none" points="42.522,13.0169 24.2983,11.7153 8.678,8.678 9.5458,13.8847 15.1864,23.8644" stroke="#00a4ff" stroke-width="2" /><polyline fill="none" points="69.4237,39.9186 64.6508,39.4847" stroke="#3fffb7" stroke-width="2" /><polyline fill="none" points="66.8203,39.0508 66.3864,43.3898 95.0237,50.7661" stroke="#b7ff3f" stroke-width="2" /><polyline fill="none" points="66.8203,39.0508 71.5932,52.5017 77.6678,58.1424" stroke="#ffb900" stroke-width="2" /><polyline fill="none" points="63.3492,38.6169 63.3492,44.2576 72.0271,64.2169" stroke="#ff3000" stroke-width="2" /><polyline fill="none" points="68.122,36.8814 42.522,36.8814" stroke="#7f0000" stroke-width="2" /></svg>