<?xml version="1.0" encoding="utf-8" ?>
<svg baseProfile="tiny" height="128" version="1.2" viewBox="0,0,128,128" width="128" xmlns="http://www.w3.org/2000/svg" xmlns:ev="http://www.w3.org/2001/xml-events" xmlns:xlink="http://www.w3.org/1999/xlink"><defs /><polyline fill="none" points="41.3605,25.2517 29.6054,33.0884 19.1565,50.5034 16.1088,60.0816 14.8027,70.966 15.2381,87.0748 20.898,102.3129 26.9932,109.7143 39.619,117.551 44.8435,118.8571 53.1156,119.2925 58.7755,118.4218 70.0952,112.7619 80.1088,101.8776 87.0748,82.2857 88.381,72.7075 87.0748,63.1293 82.2857,46.585 78.3673,39.1837 63.1293,25.6871 55.2925,22.2041 45.7143,20.4626 40.0544,22.2041 34.8299,26.1224 36.1361,26.1224" stroke="#00007f" stroke-width="2" /><polyline fill="none" points="23.0748,40.4898 24.8163,9.1429 26.9932,8.7075 42.2313,21.3333" stroke="#0000cc" stroke-width="2" /><polyline fill="none" points="54.4218,27.4286 64.8707,10.449 68.3537,13.4966 72.2721,20.4626 77.932,37.8776" stroke="#0008ff" stroke-width="2" /><polyline fill="none" points="37.8776,50.068 37.8776,55.7279 39.1837,56.1633 40.9252,54.8571 40.9252,53.1156 39.1837,51.8095" stroke="#004cff" stroke-width="2" /><polyline fill="none" points="58.7755,51.3741 57.9048,52.6803 57.034,51.3741" stroke="#0090ff" stroke-width="2" /><polyline fill="none" points="47.0204,74.449 47.8912,80.1088 50.068,81.415 54.8571,76.6259 53.551,74.8844 49.1973,73.5782" stroke="#00d4ff" stroke-width="2" /><polyline fill="none" points="49.1973,77.932 49.6327,77.932" stroke="#29ffcd" stroke-width="2" /><polyline fill="none" points="49.6327,78.8027 48.3265,84.898 43.5374,90.5578 37.8776,92.7347 34.3946,92.7347 33.0884,90.9932" stroke="#5fff96" stroke-width="2" /><polyline fill="none" points="47.8912,78.8027 49.6327,87.0748 54.4218,91.4286 61.3878,93.1701 68.7891,90.9932" stroke="#96ff5f" stroke-width="2" /><polyline fill="none" points="45.2789,87.9456 47.4558,93.1701 50.5034,96.2177 52.2449,95.7823 55.7279,89.6871" stroke="#cdff29" stroke-width="2" /><polyline fill="none" points="47.0204,81.415 41.3605,77.932 37.8776,77.4966 13.932,80.1088 8.7075,81.415" stroke="#ffe500" stroke-width="2" /><polyline fill="none" points="46.1497,80.9796 21.3333,84.898 15.2381,86.2041 11.3197,88.8163" stroke="#ffa600" stroke-width="2" /><polyline fill="none" points="42.6667,82.7211 22.6395,92.2993 12.1905,101.8776" stroke="#ff6700" stroke-width="2" /><polyline fill="none" points="53.551,79.2381 76.1905,76.6259 99.2653,78.3673" stroke="#ff2800" stroke-width="2" /><polyline fill="none" points="51.3741,81.415 72.7075,81.8503 97.5238,87.5102" stroke="#cc0000" stroke-width="2" /><polyline fill="none" points="48.3265,81.415 65.7415,84.0272 82.7211,89.6871 94.9116,95.3469 92.2993,94.9116" stroke="#7f0000" stroke-width="2" /></svg>