<?xml version="1.0" encoding="utf-8" ?>
<svg baseProfile="tiny" height="128" version="1.2" viewBox="0,0,128,128" width="128" xmlns="http://www.w3.org/2000/svg" xmlns:ev="http://www.w3.org/2001/xml-events" xmlns:xlink="http://www.w3.org/1999/xlink"><defs /><polyline fill="none" points="19.1565,15.2381 23.5102,8.7075 29.1701,14.3673 40.4898,14.8027 57.4694,18.7211 59.2109,18.7211 62.6939,13.932 69.6599,13.0612 68.3537,27.8639 66.1769,35.7007 59.6463,40.9252 52.6803,43.5374 30.4762,43.102 24.381,41.7959 20.4626,37.0068 16.5442,29.6054 15.6735,23.5102 19.5918,16.5442" stroke="#00007f" stroke-width="2" /><polyline fill="none" points="43.5374,22.6395 43.102,23.0748" stroke="#0000d5" stroke-width="2" /><polyline fill="none" points="48.3265,23.5102 48.3265,24.381" stroke="#001cff" stroke-width="2" /><polyline fill="none" points="40.9252,27.8639 46.1497,28.2993" stroke="#006cff" stroke-width="2" /><polyline fill="none" points="40.4898,27.4286 43.9728,30.4762 45.7143,29.6054 45.2789,28.7347" stroke="#00b8ff" stroke-width="2" /><polyline fill="none" points="36.1361,31.7823 40.0544,35.7007 44.8435,37.4422 48.3265,36.5714 51.3741,33.0884" stroke="#1cffda" stroke-width="2" /><polyline fill="none" points="62.2585,26.9932 84.4626,29.6054 76.1905,30.4762" stroke="#5cff9a" stroke-width="2" /><polyline fill="none" points="66.1769,31.3469 59.6463,32.6531 70.966,37.4422" stroke="#9aff5c" stroke-width="2" /><polyline fill="none" points="58.7755,37.0068 63.5646,40.9252 66.6122,48.7619" stroke="#daff1c" stroke-width="2" /><polyline fill="none" points="8.7075,25.2517 23.0748,28.7347" stroke="#ffcb00" stroke-width="2" /><polyline fill="none" points="15.2381,30.9116 23.0748,30.4762" stroke="#ff8500" stroke-width="2" /><polyline fill="none" points="14.3673,35.7007 30.9116,34.3946" stroke="#ff3b00" stroke-width="2" /><polyline fill="none" points="44.4082,42.6667 44.8435,48.7619 53.551,55.7279 67.483,57.034 80.1088,52.6803 92.7347,52.6803 107.5374,55.2925 116.2449,60.9524 119.2925,64.4354 119.2925,70.5306 111.4558,75.7551 80.9796,80.9796 64.0,81.415 33.5238,76.6259 23.9456,71.4014 17.415,65.3061 15.6735,61.8231 16.9796,57.4694 22.2041,51.3741 33.9592,42.6667" stroke="#d50000" stroke-width="2" /><polyline fill="none" points="40.9252,76.1905 40.4898,85.3333 41.7959,86.2041 45.2789,87.0748 46.585,85.7687 48.3265,79.2381" stroke="#7f0000" stroke-width="2" /></svg>