<?xml version="1.0" encoding="utf-8" ?>
<svg baseProfile="tiny" height="128" version="1.2" viewBox="0,0,128,128" width="128" xmlns="http://www.w3.org/2000/svg" xmlns:ev="http://www.w3.org/2001/xml-events" xmlns:xlink="http://www.w3.org/1999/xlink"><defs /><polyline fill="none" points="60.7458,59.0102 55.9729,55.1051 52.5017,47.7288 52.9356,39.4847 55.1051,33.8441 62.4814,27.3356 69.4237,24.7322 76.8,24.2983 82.4407,26.9017 90.6847,35.1458 95.0237,43.3898 94.1559,55.1051 89.8169,60.7458 83.3085,62.4814 57.2746,62.4814 51.6339,51.6339" stroke="#00007f" stroke-width="2" /><polyline fill="none" points="57.2746,26.9017 54.2373,17.7898 47.7288,8.678 45.5593,9.9797 43.3898,13.8847 41.6542,21.6949 41.6542,31.6746 42.9559,35.5797 47.7288,44.2576 49.4644,42.522" stroke="#0000f1" stroke-width="2" /><polyline fill="none" points="75.4983,26.9017 81.139,21.6949 88.9492,17.7898" stroke="#004cff" stroke-width="2" /><polyline fill="none" points="93.2881,15.6203 98.061,13.8847 98.9288,30.8068 98.061,34.278 89.8169,38.6169" stroke="#00b0ff" stroke-width="2" /><polyline fill="none" points="65.0847,45.1254 65.5186,44.2576 75.4983,44.2576 76.8,46.861 75.9322,48.1627 72.0271,49.0305 68.5559,45.9932 67.2542,40.7864 71.5932,42.522" stroke="#29ffcd" stroke-width="2" /><polyline fill="none" points="77.2339,46.861 111.5119,35.5797" stroke="#7cff79" stroke-width="2" /><polyline fill="none" points="77.6678,49.4644 88.5153,47.2949 119.322,46.861" stroke="#cdff29" stroke-width="2" /><polyline fill="none" points="79.4034,54.2373 93.722,57.7085 111.9458,60.3119" stroke="#ffc400" stroke-width="2" /><polyline fill="none" points="54.2373,45.9932 8.678,46.861" stroke="#ff6700" stroke-width="2" /><polyline fill="none" points="92.4203,45.9932 46.861,53.8034" stroke="#f10700" stroke-width="2" /><polyline fill="none" points="75.0644,52.0678 45.1254,65.9525 33.4102,69.4237 33.4102,67.6881" stroke="#7f0000" stroke-width="2" /></svg>