<?xml version="1.0" encoding="utf-8" ?>
<svg baseProfile="tiny" height="128" version="1.2" viewBox="0,0,128,128" width="128" xmlns="http://www.w3.org/2000/svg" xmlns:ev="http://www.w3.org/2001/xml-events" xmlns:xlink="http://www.w3.org/1999/xlink"><defs /><polyline fill="none" points="24.7322,46.861 22.5627,37.3153 17.7898,31.2407 34.278,37.3153 42.0881,42.9559 53.3695,39.0508 78.9695,40.7864 85.9119,27.7695 92.4203,19.9593 111.5119,8.678 100.6644,25.6 97.1932,43.8237 99.7966,45.1254 106.3051,44.6915 109.3424,48.5966 115.4169,68.9898 117.5864,80.7051 117.5864,89.8169 116.7186,95.0237 112.3797,101.5322 102.4,110.2102 77.6678,118.0203 68.122,119.322 55.539,119.322 27.7695,110.2102 22.9966,106.3051 18.6576,98.4949 11.7153,77.2339 8.678,60.3119 8.678,53.3695 11.2814,49.8983 26.4678,44.6915" stroke="#00007f" stroke-width="2" /><polyline fill="none" points="64.2169,82.8746 42.522,78.9695 32.5424,78.9695" stroke="#0080ff" stroke-width="2" /><polyline fill="none" points="61.1797,85.478 57.2746,88.5153 30.8068,89.8169 26.4678,95.0237" stroke="#7cff79" stroke-width="2" /><polyline fill="none" points="53.8034,97.6271 53.8034,99.7966 46.861,111.078" stroke="#ff9400" stroke-width="2" /><polyline fill="none" points="64.2169,81.5729 62.4814,82.8746 62.9153,88.0814 68.122,87.2136 68.5559,84.6102 68.5559,81.5729 64.6508,79.8373 63.7831,81.5729 65.5186,82.0068 63.3492,81.139" stroke="#7f0000" stroke-width="2" /></svg>