<?xml version="1.0" encoding="utf-8" ?>
<svg baseProfile="tiny" height="128" version="1.2" viewBox="0,0,128,128" width="128" xmlns="http://www.w3.org/2000/svg" xmlns:ev="http://www.w3.org/2001/xml-events" xmlns:xlink="http://www.w3.org/1999/xlink"><defs /><polyline fill="none" points="16.0542,46.4271 9.1119,41.6542 9.5458,35.1458 13.0169,31.6746 17.3559,30.8068 23.4305,34.7119 25.1661,38.6169 24.7322,41.6542 20.3932,45.9932 15.1864,45.1254 11.7153,39.9186" stroke="#00007f" stroke-width="2" /><polyline fill="none" points="8.678,30.3729 11.7153,25.6 13.4508,29.939" stroke="#0000e8" stroke-width="2" /><polyline fill="none" points="18.2237,29.0712 20.8271,26.0339 23.4305,25.6 22.9966,34.278" stroke="#0038ff" stroke-width="2" /><polyline fill="none" points="15.6203,39.0508 16.922,42.0881 18.2237,39.4847 19.0915,41.6542 20.3932,41.2203 20.8271,38.6169" stroke="#0094ff" stroke-width="2" /><polyline fill="none" points="23.4305,45.1254 26.0339,41.6542 37.7492,36.8814 52.0678,35.1458 70.7254,39.9186 76.3661,43.8237 76.3661,46.861 71.1593,54.6712 65.5186,59.0102 52.0678,63.3492 42.0881,63.7831 31.6746,59.878 24.7322,53.3695 22.5627,42.9559 23.8644,38.6169 25.1661,38.6169" stroke="#0cf4ea" stroke-width="2" /><polyline fill="none" points="61.6136,58.5763 68.122,80.2712 65.0847,77.6678" stroke="#56ffa0" stroke-width="2" /><polyline fill="none" points="56.8407,60.7458 59.0102,66.3864 60.7458,85.0441 59.0102,81.139" stroke="#a0ff56" stroke-width="2" /><polyline fill="none" points="34.7119,61.6136 34.7119,80.2712 28.6373,79.4034 26.4678,76.8" stroke="#eaff0c" stroke-width="2" /><polyline fill="none" points="29.939,57.7085 27.7695,68.122 24.2983,76.8 17.7898,74.6305" stroke="#ffaa00" stroke-width="2" /><polyline fill="none" points="74.1966,41.6542 82.4407,35.5797 83.3085,30.3729 82.0068,19.9593 85.9119,15.1864 107.1729,9.1119 114.9831,8.678 119.322,10.8475" stroke="#ff5500" stroke-width="2" /><polyline fill="none" points="13.4508,36.0136 13.8847,35.5797" stroke="#e80000" stroke-width="2" /><polyline fill="none" points="18.6576,34.7119 18.6576,34.7119" stroke="#7f0000" stroke-width="2" /></svg>