<?xml version="1.0" encoding="utf-8" ?>
<svg baseProfile="tiny" height="128" version="1.2" viewBox="0,0,128,128" width="128" xmlns="http://www.w3.org/2000/svg" xmlns:ev="http://www.w3.org/2001/xml-events" xmlns:xlink="http://www.w3.org/1999/xlink"><defs /><polyline fill="none" points="34.7119,19.9593 29.5051,29.0712 29.0712,39.9186 31.2407,44.6915 39.0508,52.9356 49.0305,57.2746 66.3864,61.1797 80.7051,60.7458 91.9864,54.6712 99.3627,40.3525 99.7966,33.4102 97.6271,29.0712 90.6847,22.9966 80.2712,18.6576 62.0475,15.6203 46.861,16.922 32.9763,22.1288" stroke="#00007f" stroke-width="2" /><polyline fill="none" points="26.9017,22.5627 27.3356,17.3559 29.5051,9.1119 31.6746,8.678 38.1831,18.2237" stroke="#0028ff" stroke-width="2" /><polyline fill="none" points="86.7797,19.0915 98.061,11.7153 99.3627,16.0542 98.061,23.4305 95.4576,27.3356" stroke="#00d4ff" stroke-width="2" /><polyline fill="none" points="39.0508,32.5424 9.9797,33.4102" stroke="#7cff79" stroke-width="2" /><polyline fill="none" points="36.8814,35.5797 8.678,45.5593" stroke="#ffe500" stroke-width="2" /><polyline fill="none" points="38.6169,40.7864 19.5254,55.9729" stroke="#ff4600" stroke-width="2" /><polyline fill="none" points="87.6475,37.3153 119.322,36.0136" stroke="#7f0000" stroke-width="2" /></svg>