<?xml version="1.0" encoding="utf-8" ?>
<svg baseProfile="tiny" height="128" version="1.2" viewBox="0,0,128,128" width="128" xmlns="http://www.w3.org/2000/svg" xmlns:ev="http://www.w3.org/2001/xml-events" xmlns:xlink="http://www.w3.org/1999/xlink"><defs /><polyline fill="none" points="13.932,30.9116 19.5918,26.5578 27.8639,26.1224 33.9592,27.4286 40.0544,32.6531 41.7959,43.9728 39.619,50.9388 34.8299,56.1633 28.2993,58.3401 18.7211,57.034 10.8844,50.9388 8.7075,45.7143 9.1429,38.3129 13.4966,34.8299" stroke="#00007f" stroke-width="2" /><polyline fill="none" points="37.4422,26.5578 54.4218,24.8163 68.7891,27.4286 77.932,33.5238 81.415,38.3129 82.7211,43.9728 82.2857,50.5034 79.2381,55.7279 73.1429,59.2109 69.2245,59.6463 57.9048,59.6463 39.1837,50.068" stroke="#0000bf" stroke-width="2" /><polyline fill="none" points="83.1565,42.2313 87.0748,40.0544 91.8639,27.8639 101.0068,15.2381 104.0544,13.0612 108.4082,12.1905 110.585,13.4966 111.4558,16.5442 110.585,23.5102 106.2313,29.6054 87.5102,49.6327 84.0272,50.068" stroke="#0000fe" stroke-width="2" /><polyline fill="none" points="70.0952,57.034 74.449,70.0952 74.8844,78.8027 71.4014,79.2381 69.2245,77.4966 69.2245,73.5782 72.7075,73.1429 73.1429,71.4014 66.6122,63.1293 66.6122,60.517" stroke="#0028ff" stroke-width="2" /><polyline fill="none" points="64.8707,64.0 63.5646,78.8027 60.9524,79.2381 58.7755,74.8844 60.0816,72.7075 64.0,73.1429 62.6939,66.6122 63.5646,49.6327" stroke="#0060ff" stroke-width="2" /><polyline fill="none" points="33.9592,24.381 33.0884,15.6735 30.4762,8.7075 26.9932,26.5578" stroke="#009cff" stroke-width="2" /><polyline fill="none" points="17.8503,26.1224 13.932,21.3333 11.7551,22.2041 11.3197,34.8299" stroke="#00d4ff" stroke-width="2" /><polyline fill="none" points="14.3673,27.8639 13.932,25.6871 13.0612,28.2993 14.8027,30.4762" stroke="#1fffd7" stroke-width="2" /><polyline fill="none" points="30.0408,42.6667 37.8776,44.4082 39.1837,45.7143" stroke="#4cffaa" stroke-width="2" /><polyline fill="none" points="30.4762,45.2789 37.8776,48.7619" stroke="#7cff79" stroke-width="2" /><polyline fill="none" points="29.1701,47.0204 35.7007,49.6327" stroke="#aaff4c" stroke-width="2" /><polyline fill="none" points="26.1224,40.9252 26.1224,45.7143" stroke="#d7ff1f" stroke-width="2" /><polyline fill="none" points="23.9456,39.619 21.7687,43.102 25.6871,44.4082" stroke="#ffe500" stroke-width="2" /><polyline fill="none" points="19.1565,37.8776 12.6259,40.0544" stroke="#ffb100" stroke-width="2" /><polyline fill="none" points="20.0272,43.102 13.0612,43.102 11.7551,44.4082" stroke="#ff7a00" stroke-width="2" /><polyline fill="none" points="18.2857,48.3265 12.1905,51.3741" stroke="#ff4600" stroke-width="2" /><polyline fill="none" points="93.1701,56.5986 101.8776,56.5986" stroke="#fe1200" stroke-width="2" /><polyline fill="none" points="101.8776,63.1293 104.9252,50.9388 106.6667,53.9864 107.5374,61.8231 110.1497,52.2449 111.0204,61.8231 112.7619,66.6122" stroke="#bf0000" stroke-width="2" /><polyline fill="none" points="119.2925,65.7415 115.3741,62.2585 112.7619,61.8231 110.585,63.5646 109.7143,66.1769" stroke="#7f0000" stroke-width="2" /></svg>