<?xml version="1.0" encoding="utf-8" ?>
<svg baseProfile="tiny" height="128" version="1.2" viewBox="0,0,128,128" width="128" xmlns="http://www.w3.org/2000/svg" xmlns:ev="http://www.w3.org/2001/xml-events" xmlns:xlink="http://www.w3.org/1999/xlink"><defs /><polyline fill="none" points="39.4847,31.2407 28.2034,36.4475 22.1288,44.6915 20.3932,50.3322 20.3932,65.0847 22.5627,70.7254 31.6746,78.5356 42.9559,82.8746 66.8203,86.7797 81.139,86.7797 87.2136,84.1763 97.1932,73.3288 100.6644,63.7831 101.0983,43.8237 98.061,39.4847 94.1559,35.1458 89.8169,33.4102 76.8,31.2407" stroke="#00007f" stroke-width="2" /><polyline fill="none" points="38.6169,35.1458 37.7492,31.2407 37.7492,16.0542 42.0881,8.678 46.4271,9.9797 49.8983,13.0169 53.3695,20.8271 55.1051,32.1085 59.4441,33.4102 77.6678,35.1458 83.7424,20.8271 93.722,16.922 95.8915,22.1288 95.8915,36.0136 94.5898,39.9186" stroke="#0000f1" stroke-width="2" /><polyline fill="none" points="52.5017,54.6712 53.3695,58.5763 51.6339,57.2746" stroke="#004cff" stroke-width="2" /><polyline fill="none" points="70.2915,54.2373 70.7254,57.7085 73.7627,56.8407 74.6305,54.6712" stroke="#00b0ff" stroke-width="2" /><polyline fill="none" points="51.2,72.0271 55.539,74.6305 64.6508,74.1966 68.5559,72.0271 81.139,72.461" stroke="#29ffcd" stroke-width="2" /><polyline fill="none" points="38.1831,64.2169 34.7119,59.0102 13.0169,51.6339 11.2814,49.8983" stroke="#7cff79" stroke-width="2" /><polyline fill="none" points="32.1085,68.9898 8.678,70.2915" stroke="#cdff29" stroke-width="2" /><polyline fill="none" points="42.522,70.7254 16.0542,88.9492 10.4136,91.5525" stroke="#ffc400" stroke-width="2" /><polyline fill="none" points="89.8169,59.878 99.7966,58.5763 113.6814,53.8034 119.322,52.9356" stroke="#ff6700" stroke-width="2" /><polyline fill="none" points="92.8542,72.0271 100.6644,73.3288 111.9458,82.0068 116.7186,82.8746" stroke="#f10700" stroke-width="2" /><polyline fill="none" points="92.4203,74.6305 95.8915,85.478 101.9661,95.0237 110.2102,100.6644" stroke="#7f0000" stroke-width="2" /></svg>