<?xml version="1.0" encoding="utf-8" ?>
<svg baseProfile="tiny" height="128" version="1.2" viewBox="0,0,128,128" width="128" xmlns="http://www.w3.org/2000/svg" xmlns:ev="http://www.w3.org/2001/xml-events" xmlns:xlink="http://www.w3.org/1999/xlink"><defs /><polyline fill="none" points="43.3898,53.3695 42.9559,8.678 45.1254,8.678 46.4271,10.4136 54.2373,26.4678 56.4068,47.2949 73.3288,47.2949 77.6678,37.7492 82.4407,15.6203 84.6102,23.4305 85.0441,39.9186 94.1559,55.9729 94.1559,70.7254 90.2508,76.8 85.478,80.2712 79.4034,82.0068 51.6339,82.0068 49.8983,80.2712 47.2949,69.8576 43.8237,66.3864 42.9559,52.5017" stroke="#00007f" stroke-width="2" /><polyline fill="none" points="55.539,69.8576 26.0339,68.5559 23.4305,70.7254" stroke="#0000ff" stroke-width="2" /><polyline fill="none" points="55.1051,72.0271 30.8068,91.9864 27.7695,96.3254 15.6203,103.7017 8.678,111.5119" stroke="#0080ff" stroke-width="2" /><polyline fill="none" points="85.478,68.5559 85.478,68.5559" stroke="#15ffe1" stroke-width="2" /><polyline fill="none" points="109.3424,55.1051 109.3424,55.1051" stroke="#7cff79" stroke-width="2" /><polyline fill="none" points="59.4441,55.539 59.878,57.2746 60.3119,55.9729" stroke="#e4ff12" stroke-width="2" /><polyline fill="none" points="75.4983,55.539 75.4983,60.3119" stroke="#ff9400" stroke-width="2" /><polyline fill="none" points="65.9525,68.9898 71.5932,68.5559 68.9898,72.0271 65.0847,73.3288 64.6508,68.5559" stroke="#ff1d00" stroke-width="2" /><polyline fill="none" points="80.7051,65.0847 119.322,64.6508" stroke="#7f0000" stroke-width="2" /></svg>