<?xml version="1.0" encoding="utf-8" ?>
<svg baseProfile="tiny" height="128" version="1.2" viewBox="0,0,128,128" width="128" xmlns="http://www.w3.org/2000/svg" xmlns:ev="http://www.w3.org/2001/xml-events" xmlns:xlink="http://www.w3.org/1999/xlink"><defs /><polyline fill="none" points="57.2746,41.2203 59.0102,40.3525 61.6136,34.7119 66.3864,15.1864 72.0271,41.2203 74.1966,42.522 88.0814,41.2203 93.722,45.1254 118.4542,28.2034 119.322,36.0136 116.7186,49.8983 118.8881,54.6712 118.8881,67.2542 111.9458,77.6678 108.0407,80.2712 97.6271,80.7051 89.3831,78.5356 79.4034,73.7627 68.5559,65.9525 57.7085,55.9729 47.7288,42.9559 49.8983,41.2203 59.4441,40.3525" stroke="#00007f" stroke-width="2" /><polyline fill="none" points="57.7085,60.7458 59.4441,60.3119 60.3119,62.0475 55.9729,67.6881 30.8068,68.122 28.6373,68.5559 26.0339,71.5932 26.4678,79.4034 30.3729,87.6475 33.8441,90.2508 47.7288,93.722" stroke="#0000f1" stroke-width="2" /><polyline fill="none" points="94.5898,80.2712 92.4203,90.2508 90.2508,82.4407 88.5153,83.3085 83.7424,88.5153 81.5729,88.9492 78.1017,97.1932 72.0271,86.7797" stroke="#004cff" stroke-width="2" /><polyline fill="none" points="69.8576,80.2712 67.2542,87.2136 66.8203,96.7593 61.1797,98.061 58.5763,94.1559 58.5763,87.6475 67.6881,77.6678" stroke="#00b0ff" stroke-width="2" /><polyline fill="none" points="44.2576,87.2136 44.2576,91.1186 45.9932,92.8542 52.9356,92.8542 63.3492,89.8169" stroke="#29ffcd" stroke-width="2" /><polyline fill="none" points="34.278,77.2339 30.8068,77.6678 27.7695,82.0068 28.2034,86.3458 33.4102,91.1186 32.9763,98.4949 36.8814,98.4949 38.1831,96.7593 39.4847,88.5153" stroke="#7cff79" stroke-width="2" /><polyline fill="none" points="37.3153,65.9525 26.9017,56.4068 26.0339,44.2576 28.2034,35.1458 28.2034,26.9017 24.2983,17.3559 23.8644,8.678 18.2237,20.8271 10.4136,30.3729 8.678,44.6915 9.1119,48.1627 14.3186,58.1424 15.1864,70.7254 19.5254,76.3661 26.0339,80.2712" stroke="#cdff29" stroke-width="2" /><polyline fill="none" points="77.6678,50.7661 77.2339,50.7661" stroke="#ffc400" stroke-width="2" /><polyline fill="none" points="91.5525,61.1797 91.5525,61.1797" stroke="#ff6700" stroke-width="2" /><polyline fill="none" points="80.2712,59.0102 80.7051,63.3492 85.478,64.2169 87.2136,64.2169 88.9492,60.3119" stroke="#f10700" stroke-width="2" /><polyline fill="none" points="93.722,55.539 93.722,55.539" stroke="#7f0000" stroke-width="2" /></svg>