<?xml version="1.0" encoding="utf-8" ?>
<svg baseProfile="tiny" height="128" version="1.2" viewBox="0,0,128,128" width="128" xmlns="http://www.w3.org/2000/svg" xmlns:ev="http://www.w3.org/2001/xml-events" xmlns:xlink="http://www.w3.org/1999/xlink"><defs /><polyline fill="none" points="49.8983,23.8644 44.2576,26.4678 42.522,30.3729 42.9559,37.3153 46.4271,42.522 49.8983,45.1254 56.4068,46.861 63.7831,47.7288 73.7627,46.4271 80.2712,40.7864 82.8746,33.8441 82.0068,27.7695 75.4983,20.3932 79.8373,13.4508 81.139,8.678 76.3661,9.5458 67.2542,17.7898 53.8034,21.261 50.7661,16.0542 43.8237,14.3186 42.522,16.0542 43.3898,19.5254 51.2,28.2034" stroke="#00007f" stroke-width="2" /><polyline fill="none" points="64.2169,32.5424 62.9153,31.2407" stroke="#0000fe" stroke-width="2" /><polyline fill="none" points="51.2,36.8814 42.522,33.4102 10.8475,32.1085" stroke="#0060ff" stroke-width="2" /><polyline fill="none" points="53.3695,46.4271 44.2576,43.8237 24.7322,43.3898 8.678,45.5593" stroke="#00d4ff" stroke-width="2" /><polyline fill="none" points="57.7085,43.8237 45.1254,45.1254 33.4102,49.0305 23.4305,54.2373 17.7898,59.0102" stroke="#4cffaa" stroke-width="2" /><polyline fill="none" points="76.8,32.1085 93.722,28.6373 108.9085,23.4305" stroke="#aaff4c" stroke-width="2" /><polyline fill="none" points="72.8949,39.9186 81.139,36.4475 88.5153,35.1458 119.322,33.8441" stroke="#ffe500" stroke-width="2" /><polyline fill="none" points="78.5356,38.1831 118.4542,42.522" stroke="#ff7a00" stroke-width="2" /><polyline fill="none" points="55.1051,40.3525 59.878,42.0881 68.5559,42.0881 78.1017,39.0508" stroke="#fe1200" stroke-width="2" /><polyline fill="none" points="65.5186,45.9932 63.3492,52.9356" stroke="#7f0000" stroke-width="2" /></svg>