<?xml version="1.0" encoding="utf-8" ?>
<svg baseProfile="tiny" height="128" version="1.2" viewBox="0,0,128,128" width="128" xmlns="http://www.w3.org/2000/svg" xmlns:ev="http://www.w3.org/2001/xml-events" xmlns:xlink="http://www.w3.org/1999/xlink"><defs /><polyline fill="none" points="29.5051,24.2983 11.7153,39.9186 8.678,45.1254 9.9797,51.6339 21.6949,61.6136 26.9017,63.3492 32.5424,63.3492 34.7119,61.6136 36.8814,55.9729 38.1831,33.4102 35.1458,25.1661" stroke="#00007f" stroke-width="2" /><polyline fill="none" points="28.2034,26.4678 27.7695,19.0915 31.2407,12.1492 33.8441,10.8475 38.1831,12.1492 40.7864,15.6203 42.0881,22.1288 38.6169,23.8644" stroke="#0010ff" stroke-width="2" /><polyline fill="none" points="22.9966,29.5051 22.9966,24.7322 17.3559,17.3559 15.1864,10.4136 17.7898,8.678 22.9966,14.3186 25.1661,19.0915 25.6,25.6" stroke="#00a4ff" stroke-width="2" /><polyline fill="none" points="38.1831,35.1458 54.2373,33.4102 61.6136,35.5797 74.1966,44.6915 86.7797,50.3322 89.8169,57.2746 88.9492,62.0475 86.3458,63.7831 76.3661,64.2169 45.9932,53.8034 39.4847,49.4644" stroke="#3fffb7" stroke-width="2" /><polyline fill="none" points="52.0678,56.8407 51.2,61.6136 48.1627,66.3864 38.6169,70.2915 36.4475,73.3288 33.4102,82.8746 46.861,88.5153 49.8983,83.7424 51.2,75.0644 61.6136,65.9525" stroke="#b7ff3f" stroke-width="2" /><polyline fill="none" points="76.8,64.6508 76.8,73.3288 74.1966,88.5153 85.9119,77.6678 86.3458,73.3288 83.7424,67.2542 83.7424,61.1797" stroke="#ffb900" stroke-width="2" /><polyline fill="none" points="88.9492,62.4814 91.5525,62.9153 96.7593,65.9525 101.5322,65.0847 110.6441,59.878 115.4169,55.1051 118.4542,54.2373 119.322,51.6339" stroke="#ff3000" stroke-width="2" /><polyline fill="none" points="30.3729,36.8814 30.3729,36.8814" stroke="#7f0000" stroke-width="2" /></svg>