<?xml version="1.0" encoding="utf-8" ?>
<svg baseProfile="tiny" height="128" version="1.2" viewBox="0,0,128,128" width="128" xmlns="http://www.w3.org/2000/svg" xmlns:ev="http://www.w3.org/2001/xml-events" xmlns:xlink="http://www.w3.org/1999/xlink"><defs /><polyline fill="none" points="20.3932,8.678 36.0136,23.8644 44.2576,35.5797" stroke="#00007f" stroke-width="2" /><polyline fill="none" points="19.5254,8.678 22.9966,37.7492 25.1661,43.8237" stroke="#0000d5" stroke-width="2" /><polyline fill="none" points="85.9119,14.3186 72.461,39.4847" stroke="#001cff" stroke-width="2" /><polyline fill="none" points="90.2508,13.8847 96.7593,30.3729 98.9288,40.3525" stroke="#006cff" stroke-width="2" /><polyline fill="none" points="44.6915,51.6339 44.6915,54.2373 46.4271,54.2373 48.1627,50.7661" stroke="#00b8ff" stroke-width="2" /><polyline fill="none" points="77.2339,49.0305 75.4983,51.6339" stroke="#1cffda" stroke-width="2" /><polyline fill="none" points="45.5593,72.8949 50.7661,77.2339 60.7458,78.1017 67.2542,74.6305 72.0271,69.8576" stroke="#5cff9a" stroke-width="2" /><polyline fill="none" points="57.2746,55.539 58.5763,57.2746 58.5763,66.3864 55.539,74.6305" stroke="#9aff5c" stroke-width="2" /><polyline fill="none" points="43.3898,35.5797 66.8203,35.5797 75.0644,41.6542" stroke="#daff1c" stroke-width="2" /><polyline fill="none" points="25.6,45.9932 26.9017,51.2 37.7492,67.2542 49.0305,78.9695 60.3119,83.7424 75.4983,84.6102 83.3085,80.7051 90.2508,69.4237 93.2881,57.2746 95.0237,40.3525" stroke="#ffcb00" stroke-width="2" /><polyline fill="none" points="85.478,64.2169 112.8136,62.9153" stroke="#ff8500" stroke-width="2" /><polyline fill="none" points="78.9695,74.6305 102.8339,74.6305 109.7763,75.4983 119.322,79.4034" stroke="#ff3b00" stroke-width="2" /><polyline fill="none" points="49.0305,59.0102 45.1254,56.8407 8.678,55.9729" stroke="#d50000" stroke-width="2" /><polyline fill="none" points="41.2203,67.6881 35.1458,68.122 19.0915,77.2339" stroke="#7f0000" stroke-width="2" /></svg>