<?xml version="1.0" encoding="utf-8" ?>
<svg baseProfile="tiny" height="128" version="1.2" viewBox="0,0,128,128" width="128" xmlns="http://www.w3.org/2000/svg" xmlns:ev="http://www.w3.org/2001/xml-events" xmlns:xlink="http://www.w3.org/1999/xlink"><defs /><polyline fill="none" points="59.878,111.9458 52.9356,110.2102 39.0508,103.7017 35.1458,100.6644 29.939,91.5525 26.4678,77.6678 26.0339,70.2915 27.3356,58.1424 29.939,51.6339 38.6169,40.7864 51.2,34.7119 75.9322,32.9763 84.6102,34.278 91.9864,37.7492 102.4,47.2949 106.3051,54.2373 105.4373,79.4034 104.1356,86.7797 98.061,99.3627 88.9492,107.6068 76.8,112.3797 65.9525,114.9831 58.5763,115.4169 55.9729,114.1153 51.6339,109.7763 49.8983,105.4373" stroke="#00007f" stroke-width="2" /><polyline fill="none" points="44.6915,60.3119 44.6915,60.3119" stroke="#0000d1" stroke-width="2" /><polyline fill="none" points="43.3898,70.2915 44.2576,67.2542 49.4644,62.4814 53.3695,62.0475 53.3695,66.3864 48.5966,68.9898" stroke="#0010ff" stroke-width="2" /><polyline fill="none" points="87.6475,65.0847 88.9492,68.5559 87.2136,69.4237 85.478,67.2542" stroke="#0058ff" stroke-width="2" /><polyline fill="none" points="62.4814,85.478 60.7458,83.3085 60.7458,78.5356 63.3492,76.8 68.122,78.1017 67.2542,79.8373 63.3492,81.139" stroke="#00a4ff" stroke-width="2" /><polyline fill="none" points="68.5559,82.8746 62.9153,93.722 59.0102,96.7593 51.6339,98.061 50.3322,94.5898" stroke="#05ecf1" stroke-width="2" /><polyline fill="none" points="63.7831,82.0068 62.9153,86.7797 64.6508,92.4203 66.3864,94.5898 70.7254,97.1932 78.1017,96.3254 87.2136,88.9492" stroke="#3fffb7" stroke-width="2" /><polyline fill="none" points="86.7797,79.8373 108.0407,76.3661 114.5492,73.3288" stroke="#7cff79" stroke-width="2" /><polyline fill="none" points="95.8915,85.478 114.9831,92.4203 119.322,95.8915" stroke="#b7ff3f" stroke-width="2" /><polyline fill="none" points="92.8542,95.4576 104.1356,108.0407" stroke="#f1fc05" stroke-width="2" /><polyline fill="none" points="27.3356,74.6305 9.9797,68.122" stroke="#ffb900" stroke-width="2" /><polyline fill="none" points="26.4678,82.0068 12.1492,88.5153" stroke="#ff7300" stroke-width="2" /><polyline fill="none" points="34.7119,92.8542 18.2237,101.0983 8.678,101.9661" stroke="#ff3000" stroke-width="2" /><polyline fill="none" points="42.522,37.7492 24.2983,20.8271 20.8271,49.0305" stroke="#d10000" stroke-width="2" /><polyline fill="none" points="82.8746,29.939 87.2136,23.4305 90.6847,13.0169 95.0237,8.678" stroke="#7f0000" stroke-width="2" /></svg>