<?xml version="1.0" encoding="utf-8" ?>
<svg baseProfile="tiny" height="128" version="1.2" viewBox="0,0,128,128" width="128" xmlns="http://www.w3.org/2000/svg" xmlns:ev="http://www.w3.org/2001/xml-events" xmlns:xlink="http://www.w3.org/1999/xlink"><defs /><polyline fill="none" points="17.7898,44.6915 16.0542,10.8475 17.7898,8.678 26.0339,13.8847 32.9763,21.261 41.6542,37.3153 51.2,36.8814 74.6305,45.5593 87.2136,53.8034 97.6271,63.7831 96.7593,55.1051 101.0983,43.8237 107.1729,36.4475 113.6814,35.5797 113.6814,45.9932 111.9458,56.4068 109.3424,62.9153 106.3051,65.5186" stroke="#00007f" stroke-width="2" /><polyline fill="none" points="32.9763,64.2169 36.0136,70.7254 42.0881,72.0271" stroke="#004cff" stroke-width="2" /><polyline fill="none" points="75.9322,72.0271 57.7085,78.9695" stroke="#29ffcd" stroke-width="2" /><polyline fill="none" points="47.7288,85.478 44.2576,91.1186" stroke="#cdff29" stroke-width="2" /><polyline fill="none" points="29.5051,93.2881 29.5051,95.0237 32.1085,97.1932 36.8814,98.4949" stroke="#ff6700" stroke-width="2" /><polyline fill="none" points="13.4508,72.461 9.1119,81.139 8.678,100.2305 11.2814,107.6068 18.2237,115.4169 32.9763,119.322 39.9186,119.322 46.4271,117.1525 62.4814,106.3051" stroke="#7f0000" stroke-width="2" /></svg>