<?xml version="1.0" encoding="utf-8" ?>
<svg baseProfile="tiny" height="128" version="1.2" viewBox="0,0,128,128" width="128" xmlns="http://www.w3.org/2000/svg" xmlns:ev="http://www.w3.org/2001/xml-events" xmlns:xlink="http://www.w3.org/1999/xlink"><defs /><polyline fill="none" points="12.1492,55.539 16.0542,34.7119 21.6949,21.261 28.2034,8.678 30.3729,21.261 34.278,29.5051 41.6542,38.1831 42.522,45.9932 49.8983,42.0881 62.9153,42.0881 79.8373,48.1627 80.7051,36.4475 88.9492,23.8644 103.7017,12.1492 105.0034,11.7153 110.2102,14.3186 115.4169,18.2237 118.4542,22.9966 119.322,36.0136 117.5864,46.861 109.7763,52.9356 108.4746,82.8746 105.0034,95.4576 101.5322,101.5322 96.3254,105.0034 68.9898,111.9458 45.9932,110.2102 27.3356,103.7017 18.2237,95.4576 11.2814,79.8373 8.678,55.1051 10.4136,52.5017 17.3559,49.4644" stroke="#00007f" stroke-width="2" /><polyline fill="none" points="43.3898,56.4068 39.0508,55.539 36.8814,56.8407 32.1085,65.0847 39.0508,65.5186 45.1254,59.878" stroke="#0000f1" stroke-width="2" /><polyline fill="none" points="78.5356,64.6508 74.6305,65.0847 73.7627,68.5559 77.2339,72.0271 81.5729,72.461 83.3085,71.5932 86.3458,62.9153 87.2136,57.2746 85.0441,56.4068 79.8373,58.1424" stroke="#004cff" stroke-width="2" /><polyline fill="none" points="55.539,72.8949 52.9356,77.6678 54.6712,78.5356 62.9153,78.1017 63.3492,74.6305 60.7458,74.6305" stroke="#00b0ff" stroke-width="2" /><polyline fill="none" points="51.2,78.5356 42.522,79.4034 28.2034,77.2339" stroke="#29ffcd" stroke-width="2" /><polyline fill="none" points="57.2746,79.8373 33.4102,79.4034" stroke="#7cff79" stroke-width="2" /><polyline fill="none" points="46.4271,82.8746 35.5797,82.4407 26.4678,86.7797" stroke="#cdff29" stroke-width="2" /><polyline fill="none" points="46.861,83.7424 38.6169,86.3458 34.7119,89.3831" stroke="#ffc400" stroke-width="2" /><polyline fill="none" points="65.5186,76.3661 77.6678,88.0814 82.8746,91.1186" stroke="#ff6700" stroke-width="2" /><polyline fill="none" points="68.5559,72.461 85.9119,77.6678" stroke="#f10700" stroke-width="2" /><polyline fill="none" points="67.6881,79.8373 65.0847,78.9695 64.6508,80.2712 68.122,83.3085 79.8373,87.6475" stroke="#7f0000" stroke-width="2" /></svg>