<?xml version="1.0" encoding="utf-8" ?>
<svg baseProfile="tiny" height="128" version="1.2" viewBox="0,0,128,128" width="128" xmlns="http://www.w3.org/2000/svg" xmlns:ev="http://www.w3.org/2001/xml-events" xmlns:xlink="http://www.w3.org/1999/xlink"><defs /><polyline fill="none" points="18.7211,31.3469 34.3946,28.2993 48.3265,28.2993 81.8503,38.3129 102.3129,49.6327 106.6667,55.2925 109.7143,64.4354 110.585,76.6259 107.9728,80.1088 103.1837,83.5918 89.6871,86.6395 40.4898,86.6395 32.6531,84.0272 26.1224,79.6735 18.2857,64.8707 14.3673,51.8095 15.6735,42.6667 20.4626,33.9592 24.381,30.9116" stroke="#00007f" stroke-width="2" /><polyline fill="none" points="90.9932,40.0544 99.7007,39.1837 105.7959,33.5238 118.4218,29.1701 119.2925,37.8776 112.7619,48.3265 109.2789,51.3741" stroke="#004cff" stroke-width="2" /><polyline fill="none" points="31.3469,27.8639 17.8503,9.1429 11.3197,8.7075 8.7075,13.4966 8.7075,19.5918 14.3673,29.6054 20.898,33.0884" stroke="#29ffcd" stroke-width="2" /><polyline fill="none" points="37.0068,42.6667 40.4898,43.5374 38.7483,42.2313" stroke="#cdff29" stroke-width="2" /><polyline fill="none" points="75.3197,50.068 77.0612,53.551 83.5918,57.034 87.5102,57.4694 88.381,52.6803 80.9796,51.3741" stroke="#ff6700" stroke-width="2" /><polyline fill="none" points="56.5986,51.8095 55.2925,60.0816" stroke="#7f0000" stroke-width="2" /></svg>