<?xml version="1.0" encoding="utf-8" ?>
<svg baseProfile="tiny" height="128" version="1.2" viewBox="0,0,128,128" width="128" xmlns="http://www.w3.org/2000/svg" xmlns:ev="http://www.w3.org/2001/xml-events" xmlns:xlink="http://www.w3.org/1999/xlink"><defs /><polyline fill="none" points="33.4102,57.2746 33.4102,75.0644" stroke="#00007f" stroke-width="2" /><polyline fill="none" points="45.5593,55.1051 47.7288,65.0847" stroke="#0000f1" stroke-width="2" /><polyline fill="none" points="56.4068,51.2 58.5763,52.5017 63.3492,60.7458 65.0847,66.8203" stroke="#004cff" stroke-width="2" /><polyline fill="none" points="72.8949,52.9356 73.7627,63.7831" stroke="#00b0ff" stroke-width="2" /><polyline fill="none" points="21.6949,55.539 39.0508,55.539 50.7661,52.0678 71.5932,51.2 85.478,49.4644 87.2136,45.1254 85.0441,42.522 74.6305,39.0508 50.7661,39.0508 32.1085,43.3898 19.5254,49.0305 18.6576,51.2 24.7322,55.539 32.9763,55.9729" stroke="#29ffcd" stroke-width="2" /><polyline fill="none" points="87.2136,43.8237 85.0441,32.1085 89.8169,23.4305 96.7593,18.2237 111.078,13.8847 114.9831,14.3186 119.322,26.4678 119.322,36.4475 116.7186,41.6542 98.061,47.7288 90.2508,47.7288 84.6102,43.8237" stroke="#7cff79" stroke-width="2" /><polyline fill="none" points="101.0983,25.1661 101.9661,27.7695 100.6644,28.6373" stroke="#cdff29" stroke-width="2" /><polyline fill="none" points="110.6441,28.6373 111.078,26.0339 112.8136,26.9017" stroke="#ffc400" stroke-width="2" /><polyline fill="none" points="100.2305,13.0169 109.3424,8.678 111.5119,9.9797 111.9458,13.8847" stroke="#ff6700" stroke-width="2" /><polyline fill="none" points="85.9119,20.3932 88.0814,14.3186 94.1559,12.5831 96.7593,13.8847 97.1932,20.3932" stroke="#f10700" stroke-width="2" /><polyline fill="none" points="17.7898,48.1627 13.4508,48.5966 10.4136,45.5593 8.678,41.2203 8.678,33.8441 9.9797,31.6746 15.1864,29.5051 16.922,31.6746 12.1492,35.5797 11.7153,39.4847 16.0542,42.9559 22.1288,44.6915" stroke="#7f0000" stroke-width="2" /></svg>