<?xml version="1.0" encoding="utf-8" ?>
<svg baseProfile="tiny" height="128" version="1.2" viewBox="0,0,128,128" width="128" xmlns="http://www.w3.org/2000/svg" xmlns:ev="http://www.w3.org/2001/xml-events" xmlns:xlink="http://www.w3.org/1999/xlink"><defs /><polyline fill="none" points="26.9932,50.5034 28.2993,48.3265 27.4286,40.4898 12.1905,17.415 8.7075,8.7075 13.4966,10.449 23.5102,18.2857 45.7143,45.2789" stroke="#00007f" stroke-width="2" /><polyline fill="none" points="76.6259,41.3605 81.8503,31.7823 88.8163,23.5102 101.8776,14.3673 102.3129,16.5442 94.4762,33.5238 93.6054,49.1973" stroke="#0000fe" stroke-width="2" /><polyline fill="none" points="44.8435,46.1497 55.7279,40.4898 61.3878,39.619 70.5306,39.1837 76.6259,41.3605" stroke="#0060ff" stroke-width="2" /><polyline fill="none" points="55.2925,73.5782 64.0,70.966 62.2585,79.2381 59.6463,82.2857 53.1156,73.1429" stroke="#00d4ff" stroke-width="2" /><polyline fill="none" points="33.0884,65.7415 37.4422,61.8231 44.4082,62.6939" stroke="#4cffaa" stroke-width="2" /><polyline fill="none" points="72.2721,61.8231 82.2857,61.3878" stroke="#aaff4c" stroke-width="2" /><polyline fill="none" points="57.9048,81.415 59.2109,87.9456 65.7415,93.6054 73.5782,93.1701 75.7551,91.8639 77.4966,88.381" stroke="#ffe500" stroke-width="2" /><polyline fill="none" points="56.5986,81.8503 55.2925,88.8163 51.8095,94.4762 41.7959,101.4422" stroke="#ff7a00" stroke-width="2" /><polyline fill="none" points="21.7687,96.2177 21.7687,103.619 23.9456,106.2313 29.6054,111.0204 40.4898,116.2449 52.6803,119.2925 58.7755,119.2925 76.1905,116.2449 83.5918,113.6327 86.6395,110.1497 94.4762,94.4762 94.4762,57.9048 91.8639,49.1973" stroke="#fe1200" stroke-width="2" /><polyline fill="none" points="23.5102,53.1156 19.1565,71.4014 16.5442,90.5578 16.9796,97.9592 21.7687,105.7959 23.0748,105.3605" stroke="#7f0000" stroke-width="2" /></svg>