<?xml version="1.0" encoding="utf-8" ?>
<svg baseProfile="tiny" height="128" version="1.2" viewBox="0,0,128,128" width="128" xmlns="http://www.w3.org/2000/svg" xmlns:ev="http://www.w3.org/2001/xml-events" xmlns:xlink="http://www.w3.org/1999/xlink"><defs /><polyline fill="none" points="36.4475,54.6712 29.5051,54.6712 22.5627,58.1424 20.8271,64.2169 21.261,72.0271 23.4305,82.8746 29.939,100.2305 36.8814,109.7763 44.6915,116.2847 57.7085,119.322 65.9525,117.5864 73.3288,112.8136 85.478,96.3254 89.8169,88.0814 91.9864,75.4983 91.5525,67.2542 87.2136,55.9729 82.0068,48.5966 74.1966,42.0881 64.6508,38.1831 54.2373,36.4475 43.3898,37.3153 29.0712,45.1254 22.9966,52.5017" stroke="#00007f" stroke-width="2" /><polyline fill="none" points="24.2983,54.6712 18.2237,40.7864 9.9797,27.3356 8.678,29.939 19.5254,76.3661" stroke="#0000ff" stroke-width="2" /><polyline fill="none" points="57.7085,36.8814 67.2542,13.8847 71.5932,8.678 81.139,50.7661" stroke="#0080ff" stroke-width="2" /><polyline fill="none" points="55.1051,78.1017 52.5017,76.8 55.539,76.3661" stroke="#15ffe1" stroke-width="2" /><polyline fill="none" points="52.9356,78.5356 55.9729,82.0068 59.0102,91.5525 57.2746,100.2305 52.0678,102.8339 46.861,101.9661 41.6542,95.4576 41.6542,91.5525" stroke="#7cff79" stroke-width="2" /><polyline fill="none" points="52.5017,83.7424 51.6339,86.3458 53.3695,89.3831 59.4441,94.5898 65.9525,95.0237 72.0271,92.8542 68.122,73.7627" stroke="#e4ff12" stroke-width="2" /><polyline fill="none" points="58.1424,98.9288 56.8407,101.5322 65.9525,107.6068 67.2542,103.7017 65.9525,92.4203" stroke="#ff9400" stroke-width="2" /><polyline fill="none" points="35.5797,62.0475 37.3153,61.6136" stroke="#ff1d00" stroke-width="2" /><polyline fill="none" points="54.6712,49.8983 54.6712,49.8983" stroke="#7f0000" stroke-width="2" /></svg>