<?xml version="1.0" encoding="utf-8" ?>
<svg baseProfile="tiny" height="128" version="1.2" viewBox="0,0,128,128" width="128" xmlns="http://www.w3.org/2000/svg" xmlns:ev="http://www.w3.org/2001/xml-events" xmlns:xlink="http://www.w3.org/1999/xlink"><defs /><polyline fill="none" points="69.4237,30.8068 66.3864,26.9017 62.0475,25.6 49.4644,27.3356 43.3898,30.3729 36.8814,35.5797 31.2407,43.8237 26.9017,52.0678 25.6,59.878 29.0712,73.3288 41.6542,92.4203 60.7458,105.0034 66.8203,107.6068 78.9695,108.9085 91.1186,108.0407 97.6271,105.0034 103.7017,99.3627 108.9085,92.8542 111.9458,83.3085 111.078,58.5763 105.4373,47.2949 94.1559,33.8441 79.8373,23.4305 72.461,20.3932 58.1424,18.2237 50.3322,18.6576 42.9559,22.1288" stroke="#00007f" stroke-width="2" /><polyline fill="none" points="42.9559,47.2949 39.9186,45.1254 38.1831,40.7864 32.1085,18.2237 36.4475,19.9593 59.4441,42.9559" stroke="#004cff" stroke-width="2" /><polyline fill="none" points="85.9119,44.6915 86.3458,39.9186 97.1932,21.261 107.6068,8.678 107.1729,22.9966 98.9288,54.2373" stroke="#29ffcd" stroke-width="2" /><polyline fill="none" points="58.5763,62.4814 59.0102,62.4814" stroke="#cdff29" stroke-width="2" /><polyline fill="none" points="85.9119,62.4814 85.0441,62.0475" stroke="#ff6700" stroke-width="2" /><polyline fill="none" points="8.678,76.3661 41.6542,74.6305 59.4441,75.9322 10.8475,92.8542 16.4881,94.5898 30.3729,92.4203 52.5017,85.0441 16.0542,119.322" stroke="#7f0000" stroke-width="2" /></svg>