<?xml version="1.0" encoding="utf-8" ?>
<svg baseProfile="tiny" height="128" version="1.2" viewBox="0,0,128,128" width="128" xmlns="http://www.w3.org/2000/svg" xmlns:ev="http://www.w3.org/2001/xml-events" xmlns:xlink="http://www.w3.org/1999/xlink"><defs /><polyline fill="none" points="32.9763,49.0305 26.0339,49.8983 20.8271,52.9356 10.8475,63.3492 8.678,68.5559 9.5458,87.6475 21.6949,101.0983 42.9559,113.6814 55.1051,118.4542 72.461,119.322 78.1017,116.2847 91.1186,102.8339 93.722,91.9864 93.722,74.1966 88.5153,63.7831 82.4407,57.7085 61.1797,45.5593 49.8983,41.2203 24.2983,41.6542" stroke="#00007f" stroke-width="2" /><polyline fill="none" points="15.6203,52.9356 17.7898,8.678 28.6373,32.9763" stroke="#004cff" stroke-width="2" /><polyline fill="none" points="87.6475,50.7661 102.4,33.8441 102.8339,35.1458 95.4576,62.0475 91.5525,72.461 90.6847,71.1593" stroke="#29ffcd" stroke-width="2" /><polyline fill="none" points="36.8814,68.5559 30.3729,68.122 29.5051,69.8576 31.2407,75.9322 37.7492,77.6678 39.4847,72.461 39.0508,56.8407" stroke="#cdff29" stroke-width="2" /><polyline fill="none" points="69.4237,71.1593 63.7831,71.1593 58.5763,74.1966 53.8034,79.4034 53.3695,83.7424 63.3492,84.1763 70.7254,77.6678 71.5932,70.7254" stroke="#ff6700" stroke-width="2" /><polyline fill="none" points="37.3153,86.3458 37.7492,88.0814 41.6542,85.478" stroke="#7f0000" stroke-width="2" /></svg>