<?xml version="1.0" encoding="utf-8" ?>
<svg baseProfile="tiny" height="128" version="1.2" viewBox="0,0,128,128" width="128" xmlns="http://www.w3.org/2000/svg" xmlns:ev="http://www.w3.org/2001/xml-events" xmlns:xlink="http://www.w3.org/1999/xlink"><defs /><polyline fill="none" points="36.3183,24.8028 39.4187,16.8304 46.0623,9.301 47.391,19.4879 51.3772,20.3737 61.1211,18.6021 84.5952,19.4879 84.1522,14.173 85.481,8.8581 88.1384,13.7301 89.4671,23.474 92.1246,23.0311 96.1107,27.0173 96.5536,60.6782 94.3391,62.8927 74.4083,66.8789 45.6194,66.8789 34.5467,61.564 27.9031,49.1626 27.0173,25.6886 28.7889,23.0311 33.218,21.7024 35.4325,22.5882" stroke="#00007f" stroke-width="2" /><polyline fill="none" points="76.1799,36.7612 90.3529,34.9896 119.1419,35.4325" stroke="#0028ff" stroke-width="2" /><polyline fill="none" points="80.1661,40.3045 98.7682,38.09 110.7266,38.09 105.4118,38.9758" stroke="#00d4ff" stroke-width="2" /><polyline fill="none" points="82.8235,44.7336 108.0692,45.6194" stroke="#7cff79" stroke-width="2" /><polyline fill="none" points="56.2491,38.09 11.0727,38.5329" stroke="#ffe500" stroke-width="2" /><polyline fill="none" points="43.8478,43.4048 8.8581,42.9619" stroke="#ff4600" stroke-width="2" /><polyline fill="none" points="42.0761,46.5052 15.5017,49.6055" stroke="#7f0000" stroke-width="2" /></svg>