<?xml version="1.0" encoding="utf-8" ?>
<svg baseProfile="tiny" height="128" version="1.2" viewBox="0,0,128,128" width="128" xmlns="http://www.w3.org/2000/svg" xmlns:ev="http://www.w3.org/2001/xml-events" xmlns:xlink="http://www.w3.org/1999/xlink"><defs /><polyline fill="none" points="33.4102,38.6169 28.2034,45.1254 24.2983,52.9356 23.8644,65.0847 31.2407,79.4034 42.522,88.0814 51.2,91.1186 62.0475,92.8542 70.2915,91.9864 82.0068,87.2136 89.3831,79.8373 96.3254,69.4237 99.7966,56.4068 99.7966,49.4644 96.7593,44.6915 88.9492,37.7492 74.1966,32.5424 57.2746,31.6746 26.9017,35.5797" stroke="#00007f" stroke-width="2" /><polyline fill="none" points="49.8983,62.9153 55.539,71.1593 57.7085,71.5932 61.6136,68.5559 64.2169,64.2169 62.9153,63.3492 50.7661,61.6136" stroke="#0000de" stroke-width="2" /><polyline fill="none" points="63.7831,64.6508 72.461,61.6136 90.6847,63.7831 97.1932,66.8203 104.5695,72.8949 108.9085,78.1017 111.5119,84.6102" stroke="#0028ff" stroke-width="2" /><polyline fill="none" points="62.9153,67.2542 77.2339,67.6881 91.9864,72.461 99.7966,78.5356 108.0407,91.5525" stroke="#0080ff" stroke-width="2" /><polyline fill="none" points="60.7458,70.2915 80.2712,73.3288 87.2136,76.3661 94.5898,82.4407 101.9661,93.2881 110.6441,117.1525" stroke="#00d4ff" stroke-width="2" /><polyline fill="none" points="44.2576,62.4814 48.1627,59.878 45.9932,60.3119 33.8441,64.6508 23.8644,70.2915 16.4881,77.6678 9.9797,87.6475 8.678,95.8915 9.5458,101.5322" stroke="#36ffc0" stroke-width="2" /><polyline fill="none" points="51.2,66.3864 37.7492,70.7254 27.3356,78.9695 23.4305,84.1763 19.0915,94.1559 17.7898,103.7017" stroke="#7cff79" stroke-width="2" /><polyline fill="none" points="58.5763,65.5186 43.8237,77.6678 38.1831,84.1763 32.9763,94.5898 31.6746,103.7017" stroke="#c0ff36" stroke-width="2" /><polyline fill="none" points="41.2203,44.2576 46.861,48.5966 50.7661,46.4271 49.4644,44.2576 46.861,43.8237 45.5593,45.9932 47.2949,47.7288 52.0678,44.6915 49.4644,43.3898 47.2949,45.1254" stroke="#ffe500" stroke-width="2" /><polyline fill="none" points="78.5356,42.9559 76.8,43.8237 77.6678,45.1254 75.9322,43.8237 75.4983,45.9932 78.5356,51.2 80.7051,49.8983 80.2712,47.7288 77.2339,45.9932" stroke="#ff9400" stroke-width="2" /><polyline fill="none" points="52.0678,83.3085 65.9525,84.6102 72.8949,82.0068" stroke="#ff4600" stroke-width="2" /><polyline fill="none" points="99.3627,48.1627 103.2678,39.9186 118.8881,20.3932 119.322,17.7898 116.2847,16.922 112.3797,18.6576 94.1559,32.1085 86.3458,36.8814" stroke="#de0000" stroke-width="2" /><polyline fill="none" points="56.8407,31.6746 49.4644,18.2237 46.861,9.9797 44.6915,8.678 38.6169,14.7525 36.0136,19.9593 33.8441,34.7119" stroke="#7f0000" stroke-width="2" /></svg>