<?xml version="1.0" encoding="utf-8" ?>
<svg baseProfile="tiny" height="128" version="1.2" viewBox="0,0,128,128" width="128" xmlns="http://www.w3.org/2000/svg" xmlns:ev="http://www.w3.org/2001/xml-events" xmlns:xlink="http://www.w3.org/1999/xlink"><defs /><polyline fill="none" points="75.4983,32.1085 50.7661,32.9763 40.7864,29.0712 27.7695,8.678 26.0339,10.8475 24.7322,22.1288 26.4678,46.4271 29.939,56.8407 34.278,62.9153 38.1831,65.9525 51.2,72.0271 64.2169,74.6305 72.461,73.3288 81.5729,67.6881 84.6102,64.2169 89.8169,45.9932 89.8169,32.5424 85.478,15.6203 82.8746,9.1119 70.2915,29.5051" stroke="#00007f" stroke-width="2" /><polyline fill="none" points="45.1254,57.2746 38.1831,63.7831 12.5831,78.9695" stroke="#0010ff" stroke-width="2" /><polyline fill="none" points="31.6746,47.2949 19.5254,44.6915 8.678,38.6169" stroke="#00a4ff" stroke-width="2" /><polyline fill="none" points="42.522,49.4644 16.922,19.5254" stroke="#3fffb7" stroke-width="2" /><polyline fill="none" points="67.6881,37.7492 75.9322,37.7492 93.2881,41.2203 111.5119,42.522 119.322,39.9186" stroke="#b7ff3f" stroke-width="2" /><polyline fill="none" points="75.4983,57.2746 82.8746,56.8407 90.6847,59.4441 102.4,69.4237" stroke="#ffb900" stroke-width="2" /><polyline fill="none" points="68.122,66.3864 79.8373,108.9085" stroke="#ff3000" stroke-width="2" /><polyline fill="none" points="67.6881,48.1627 68.122,50.3322" stroke="#7f0000" stroke-width="2" /></svg>