<?xml version="1.0" encoding="utf-8" ?>
<svg baseProfile="tiny" height="128" version="1.2" viewBox="0,0,128,128" width="128" xmlns="http://www.w3.org/2000/svg" xmlns:ev="http://www.w3.org/2001/xml-events" xmlns:xlink="http://www.w3.org/1999/xlink"><defs /><polyline fill="none" points="85.478,30.8068 85.478,20.8271 88.5153,8.678 80.7051,12.5831 70.7254,21.6949 57.7085,20.3932 43.3898,20.8271 36.4475,25.1661 26.4678,37.3153 13.8847,32.5424 9.9797,32.5424 8.678,34.7119 16.922,41.6542 21.6949,43.3898 22.9966,54.2373 32.9763,64.6508 44.6915,69.4237 67.6881,72.0271 74.1966,69.8576 83.7424,63.3492 91.9864,52.9356 93.2881,43.8237 89.3831,37.3153 82.8746,36.8814 86.3458,34.7119" stroke="#00007f" stroke-width="2" /><polyline fill="none" points="85.0441,64.2169 94.1559,83.3085 93.2881,97.1932 85.9119,106.739 76.8,112.8136 64.6508,114.9831 46.4271,114.9831 36.8814,113.2475 33.8441,110.6441 27.7695,99.3627 26.4678,91.5525 27.7695,84.1763 37.7492,71.5932 43.3898,67.6881" stroke="#00d4ff" stroke-width="2" /><polyline fill="none" points="61.1797,49.4644 119.322,51.2" stroke="#ffe500" stroke-width="2" /><polyline fill="none" points="48.5966,53.3695 45.5593,54.2373 32.5424,63.7831 13.0169,82.4407" stroke="#7f0000" stroke-width="2" /></svg>