<?xml version="1.0" encoding="utf-8" ?>
<svg baseProfile="tiny" height="128" version="1.2" viewBox="0,0,128,128" width="128" xmlns="http://www.w3.org/2000/svg" xmlns:ev="http://www.w3.org/2001/xml-events" xmlns:xlink="http://www.w3.org/1999/xlink"><defs /><polyline fill="none" points="78.5356,34.7119 71.5932,30.8068 61.1797,27.3356 40.7864,26.0339 36.4475,28.2034 32.9763,32.5424 30.8068,44.6915 31.6746,58.1424 39.9186,72.0271 52.0678,83.3085 62.4814,90.2508 66.3864,91.5525 77.2339,91.5525 89.3831,85.0441 93.722,80.7051 97.6271,70.7254 97.6271,64.2169 95.0237,56.8407 85.9119,47.2949 75.4983,39.4847 70.2915,37.3153" stroke="#00007f" stroke-width="2" /><polyline fill="none" points="55.9729,65.9525 60.3119,66.8203" stroke="#0000e8" stroke-width="2" /><polyline fill="none" points="49.4644,47.2949 47.2949,45.9932 48.1627,47.7288" stroke="#0038ff" stroke-width="2" /><polyline fill="none" points="70.2915,51.2 69.8576,49.8983" stroke="#0094ff" stroke-width="2" /><polyline fill="none" points="45.1254,64.2169 32.5424,54.2373 23.4305,51.2 12.1492,51.2 8.678,57.2746" stroke="#0cf4ea" stroke-width="2" /><polyline fill="none" points="80.7051,71.5932 85.478,66.8203 89.3831,65.5186 103.2678,65.0847 109.7763,66.8203 119.322,72.8949" stroke="#56ffa0" stroke-width="2" /><polyline fill="none" points="50.7661,71.1593 32.1085,66.8203 18.6576,67.2542" stroke="#a0ff56" stroke-width="2" /><polyline fill="none" points="76.8,77.2339 86.7797,76.3661 98.4949,78.9695 108.4746,83.3085 111.9458,85.9119 112.8136,88.5153" stroke="#eaff0c" stroke-width="2" /><polyline fill="none" points="30.8068,31.2407 30.8068,28.2034 26.4678,20.8271 24.7322,15.1864 24.7322,10.4136 29.5051,8.678 32.9763,10.4136 41.6542,17.7898 46.4271,24.7322" stroke="#ffaa00" stroke-width="2" /><polyline fill="none" points="73.3288,30.3729 82.8746,20.8271 89.8169,19.0915 93.722,21.261 95.0237,31.2407 89.3831,49.4644" stroke="#ff5500" stroke-width="2" /><polyline fill="none" points="61.6136,71.5932 62.9153,80.2712 57.2746,80.7051" stroke="#e80000" stroke-width="2" /><polyline fill="none" points="62.0475,83.3085 73.3288,83.7424 73.3288,81.139" stroke="#7f0000" stroke-width="2" /></svg>