<?xml version="1.0" encoding="utf-8" ?>
<svg baseProfile="tiny" height="128" version="1.2" viewBox="0,0,128,128" width="128" xmlns="http://www.w3.org/2000/svg" xmlns:ev="http://www.w3.org/2001/xml-events" xmlns:xlink="http://www.w3.org/1999/xlink"><defs /><polyline fill="none" points="23.4305,49.8983 12.5831,69.8576 8.678,86.7797 9.1119,91.5525 12.1492,101.5322 29.0712,114.1153 35.5797,115.8508 71.1593,119.322 86.7797,118.8881 95.8915,113.2475 100.6644,105.8712 96.7593,66.8203 93.2881,61.1797 90.6847,59.878 70.7254,57.2746 54.6712,50.7661 29.5051,49.0305 16.922,53.8034 10.8475,42.0881 9.1119,8.678 19.9593,21.6949 28.2034,36.4475 38.1831,49.0305 46.861,49.0305 59.4441,53.3695 64.6508,52.9356 76.8,55.1051 91.5525,62.4814 93.2881,50.7661 97.1932,41.2203 113.2475,25.6 115.4169,28.6373 112.3797,42.522 102.4,52.9356 97.1932,64.6508" stroke="#00007f" stroke-width="2" /><polyline fill="none" points="32.1085,67.6881 32.1085,67.6881" stroke="#0080ff" stroke-width="2" /><polyline fill="none" points="31.2407,69.8576 28.6373,71.1593 30.8068,73.7627 33.4102,73.3288 32.5424,68.122" stroke="#7cff79" stroke-width="2" /><polyline fill="none" points="75.4983,72.0271 75.0644,75.0644 77.2339,75.4983" stroke="#ff9400" stroke-width="2" /><polyline fill="none" points="56.4068,84.1763 59.878,85.9119 61.1797,83.3085 52.9356,85.478 50.3322,91.5525 39.4847,106.3051 29.5051,108.9085 22.9966,108.9085 43.3898,106.3051 50.7661,101.5322 64.2169,87.2136 73.7627,98.4949 80.2712,100.6644 89.3831,98.4949" stroke="#7f0000" stroke-width="2" /></svg>