<?xml version="1.0" encoding="utf-8" ?>
<svg baseProfile="tiny" height="128" version="1.2" viewBox="0,0,128,128" width="128" xmlns="http://www.w3.org/2000/svg" xmlns:ev="http://www.w3.org/2001/xml-events" xmlns:xlink="http://www.w3.org/1999/xlink"><defs /><polyline fill="none" points="11.7153,19.5254 8.678,32.9763 10.4136,45.9932 14.7525,56.8407 20.8271,65.9525 34.7119,78.5356 45.9932,75.4983 54.2373,71.5932 64.2169,63.3492 69.8576,55.1051 72.0271,44.2576 71.1593,26.9017 68.122,16.4881 61.6136,8.678 53.8034,11.2814 48.5966,18.6576 29.5051,21.261 25.6,21.261 22.1288,11.7153 16.0542,11.7153 11.2814,14.3186 9.5458,18.2237 9.9797,22.9966" stroke="#00007f" stroke-width="2" /><polyline fill="none" points="33.4102,48.1627 33.4102,51.2 35.5797,52.9356 41.6542,52.9356 42.522,48.1627 31.2407,49.8983" stroke="#0000de" stroke-width="2" /><polyline fill="none" points="38.1831,53.8034 39.4847,58.5763 42.522,58.1424" stroke="#0028ff" stroke-width="2" /><polyline fill="none" points="39.9186,58.5763 30.8068,58.1424 28.2034,56.4068" stroke="#0080ff" stroke-width="2" /><polyline fill="none" points="39.9186,59.4441 46.861,58.1424 50.7661,53.8034" stroke="#00d4ff" stroke-width="2" /><polyline fill="none" points="21.6949,36.0136 21.6949,34.278 23.4305,34.278 22.5627,35.5797 21.6949,35.1458 23.8644,34.278" stroke="#36ffc0" stroke-width="2" /><polyline fill="none" points="41.6542,36.0136 42.9559,34.7119 44.6915,36.4475 42.522,36.0136 42.9559,35.1458 43.8237,36.0136 42.522,36.4475 44.2576,36.0136" stroke="#7cff79" stroke-width="2" /><polyline fill="none" points="84.6102,44.2576 84.1763,36.4475 86.7797,40.3525 89.3831,38.6169 90.6847,44.6915 91.9864,45.1254" stroke="#c0ff36" stroke-width="2" /><polyline fill="none" points="92.8542,45.1254 93.2881,40.3525" stroke="#ffe500" stroke-width="2" /><polyline fill="none" points="93.722,38.1831 94.1559,36.8814" stroke="#ff9400" stroke-width="2" /><polyline fill="none" points="98.4949,46.4271 98.061,39.4847 99.7966,37.3153 102.4,41.6542 102.8339,46.4271" stroke="#ff4600" stroke-width="2" /><polyline fill="none" points="100.6644,44.2576 100.2305,44.2576" stroke="#de0000" stroke-width="2" /><polyline fill="none" points="111.9458,45.9932 110.2102,45.5593 109.7763,42.9559 114.1153,41.2203 117.5864,42.0881 119.322,45.9932" stroke="#7f0000" stroke-width="2" /></svg>