<?xml version="1.0" encoding="utf-8" ?>
<svg baseProfile="tiny" height="128" version="1.2" viewBox="0,0,128,128" width="128" xmlns="http://www.w3.org/2000/svg" xmlns:ev="http://www.w3.org/2001/xml-events" xmlns:xlink="http://www.w3.org/1999/xlink"><defs /><polyline fill="none" points="8.7075,37.0068 30.0408,8.7075 33.9592,28.7347 39.619,46.585" stroke="#00007f" stroke-width="2" /><polyline fill="none" points="39.619,46.585 66.6122,49.1973 71.4014,41.7959 79.2381,24.8163 84.0272,17.8503 88.381,42.2313 94.4762,63.5646 93.6054,86.2041 90.1224,96.2177 86.6395,102.3129 80.9796,108.8435 69.6599,116.2449 59.2109,119.2925 49.6327,118.4218 26.5578,103.1837 13.932,87.9456 9.5782,69.2245 9.1429,38.7483" stroke="#0028ff" stroke-width="2" /><polyline fill="none" points="31.7823,63.5646 32.2177,67.9184 34.3946,69.2245 39.1837,69.6599 41.3605,65.7415 41.3605,63.1293 37.0068,61.8231 31.3469,64.0" stroke="#00d4ff" stroke-width="2" /><polyline fill="none" points="74.0136,61.3878 69.6599,71.4014 70.966,75.7551 74.8844,75.7551 83.1565,70.0952 84.0272,65.7415 79.2381,64.0" stroke="#7cff79" stroke-width="2" /><polyline fill="none" points="57.4694,80.9796 57.4694,84.4626 57.4694,82.2857 55.2925,82.2857" stroke="#ffe500" stroke-width="2" /><polyline fill="none" points="56.1633,83.1565 54.8571,91.4286 51.8095,95.7823 43.5374,97.0884 40.9252,96.2177 40.0544,93.6054" stroke="#ff4600" stroke-width="2" /><polyline fill="none" points="57.034,85.7687 57.4694,96.6531 60.9524,98.3946 67.0476,98.8299 67.9184,97.9592" stroke="#7f0000" stroke-width="2" /></svg>