<?xml version="1.0" encoding="utf-8" ?>
<svg baseProfile="tiny" height="128" version="1.2" viewBox="0,0,128,128" width="128" xmlns="http://www.w3.org/2000/svg" xmlns:ev="http://www.w3.org/2001/xml-events" xmlns:xlink="http://www.w3.org/1999/xlink"><defs /><polyline fill="none" points="84.0272,43.9728 65.3061,37.4422 53.551,37.4422 46.1497,39.1837 38.3129,43.5374 29.6054,49.6327 22.2041,56.5986 13.932,69.6599 10.449,78.8027 8.7075,87.9456 9.5782,95.7823 14.8027,106.6667 20.0272,111.8912 29.1701,116.2449 43.5374,119.2925 58.3401,116.2449 69.6599,108.4082 79.2381,96.6531 85.3333,81.8503 85.3333,60.0816 82.2857,50.5034 73.1429,39.1837" stroke="#00007f" stroke-width="2" /><polyline fill="none" points="23.5102,49.1973 18.7211,39.1837 14.8027,13.932 16.9796,13.4966 23.5102,20.0272 37.4422,29.6054 53.1156,36.1361" stroke="#0028ff" stroke-width="2" /><polyline fill="none" points="64.8707,38.7483 68.3537,31.7823 90.1224,12.6259 101.0068,8.7075 105.3605,9.1429 104.0544,19.1565 98.3946,36.1361 85.7687,59.2109 86.6395,60.0816" stroke="#00d4ff" stroke-width="2" /><polyline fill="none" points="44.4082,79.6735 50.9388,79.2381 44.4082,83.5918 42.6667,81.8503 42.6667,77.932 44.4082,76.6259" stroke="#7cff79" stroke-width="2" /><polyline fill="none" points="44.4082,80.5442 45.7143,95.7823 43.5374,104.0544 41.3605,106.2313 37.0068,107.9728 32.2177,107.9728 25.6871,101.0068 24.381,96.2177 25.2517,93.6054 27.8639,91.4286 36.5714,89.2517" stroke="#ffe500" stroke-width="2" /><polyline fill="none" points="46.1497,84.4626 48.7619,101.0068 52.2449,107.102 56.1633,108.8435 61.8231,106.6667 65.3061,101.8776 67.9184,93.1701 66.1769,87.9456" stroke="#ff4600" stroke-width="2" /><polyline fill="none" points="41.7959,51.3741 35.2653,59.2109 35.2653,62.6939 40.0544,65.3061 44.8435,63.1293 48.7619,59.2109 48.7619,54.4218 46.585,51.8095" stroke="#7f0000" stroke-width="2" /></svg>