<?xml version="1.0" encoding="utf-8" ?>
<svg baseProfile="tiny" height="128" version="1.2" viewBox="0,0,128,128" width="128" xmlns="http://www.w3.org/2000/svg" xmlns:ev="http://www.w3.org/2001/xml-events" xmlns:xlink="http://www.w3.org/1999/xlink"><defs /><polyline fill="none" points="95.0237,34.7119 82.4407,26.9017 72.461,25.1661 61.6136,24.7322 49.8983,26.9017 38.6169,30.8068 29.0712,35.5797 20.3932,43.8237 13.8847,53.3695 9.5458,64.2169 8.678,76.3661 11.7153,88.0814 17.7898,98.061 27.7695,105.8712 48.5966,115.4169 68.9898,119.322 86.3458,116.2847 93.2881,112.3797 98.4949,106.739 102.8339,99.7966 105.4373,91.1186 105.8712,81.5729 103.7017,60.3119 95.0237,31.6746 86.7797,22.9966 83.7424,22.1288 79.4034,23.8644" stroke="#00007f" stroke-width="2" /><polyline fill="none" points="19.9593,49.4644 19.0915,29.939 22.9966,9.5458 25.1661,8.678 29.939,11.7153 39.9186,29.0712 43.8237,33.8441 45.5593,33.8441" stroke="#004cff" stroke-width="2" /><polyline fill="none" points="84.1763,28.2034 98.061,16.4881 110.2102,9.9797 113.2475,10.8475 113.2475,22.5627 108.9085,45.5593" stroke="#29ffcd" stroke-width="2" /><polyline fill="none" points="34.278,32.1085 31.6746,29.0712 29.5051,29.939 30.8068,36.8814" stroke="#cdff29" stroke-width="2" /><polyline fill="none" points="95.0237,30.8068 107.6068,28.2034 100.6644,42.0881" stroke="#ff6700" stroke-width="2" /><polyline fill="none" points="57.2746,73.3288 58.5763,94.1559 60.3119,97.6271 63.7831,99.7966 71.5932,101.0983 77.6678,98.9288 81.139,96.3254 83.3085,92.4203 82.8746,85.9119" stroke="#7f0000" stroke-width="2" /></svg>