<?xml version="1.0" encoding="utf-8" ?>
<svg baseProfile="tiny" height="128" version="1.2" viewBox="0,0,128,128" width="128" xmlns="http://www.w3.org/2000/svg" xmlns:ev="http://www.w3.org/2001/xml-events" xmlns:xlink="http://www.w3.org/1999/xlink"><defs /><polyline fill="none" points="46.861,119.322 30.8068,114.5492 17.7898,107.1729 9.1119,92.4203 8.678,82.4407 10.4136,78.5356 17.7898,68.9898 29.5051,59.0102 36.8814,53.8034 50.3322,46.861 65.0847,45.1254 75.4983,50.3322 82.0068,56.8407 85.9119,68.122 86.7797,81.139 85.478,87.6475 78.5356,98.9288 63.3492,109.3424 57.2746,110.6441 47.7288,110.6441 39.4847,108.4746 36.8814,106.3051" stroke="#00007f" stroke-width="2" /><polyline fill="none" points="16.0542,77.2339 12.1492,51.2 12.1492,28.2034 14.3186,23.4305 19.5254,19.9593 36.8814,49.4644" stroke="#004cff" stroke-width="2" /><polyline fill="none" points="58.1424,37.7492 69.8576,14.7525 74.1966,8.678 76.8,49.0305 78.9695,53.3695" stroke="#29ffcd" stroke-width="2" /><polyline fill="none" points="51.2,84.6102 51.2,85.478" stroke="#cdff29" stroke-width="2" /><polyline fill="none" points="42.522,90.2508 39.0508,97.1932 32.5424,101.5322" stroke="#ff6700" stroke-width="2" /><polyline fill="none" points="56.4068,85.478 73.7627,82.4407" stroke="#7f0000" stroke-width="2" /></svg>