<?xml version="1.0" encoding="utf-8" ?>
<svg baseProfile="tiny" height="128" version="1.2" viewBox="0,0,128,128" width="128" xmlns="http://www.w3.org/2000/svg" xmlns:ev="http://www.w3.org/2001/xml-events" xmlns:xlink="http://www.w3.org/1999/xlink"><defs /><polyline fill="none" points="55.9729,114.1153 54.2373,109.3424 53.8034,99.7966 53.8034,81.5729 54.6712,81.139" stroke="#00007f" stroke-width="2" /><polyline fill="none" points="82.8746,111.5119 82.4407,77.6678" stroke="#0000de" stroke-width="2" /><polyline fill="none" points="37.3153,80.7051 70.7254,78.5356 81.139,76.3661 93.722,70.2915 95.4576,67.6881 95.8915,62.0475 93.2881,55.539 88.0814,52.0678 80.7051,51.2 63.7831,52.0678 53.3695,55.1051 43.3898,62.0475 36.8814,70.2915 36.8814,76.3661" stroke="#0028ff" stroke-width="2" /><polyline fill="none" points="91.9864,50.3322 99.7966,48.5966 103.2678,45.5593 108.0407,37.3153 111.078,27.3356 107.1729,25.1661 91.9864,26.0339 87.2136,31.2407 83.3085,38.6169 82.4407,48.5966 83.7424,51.2 87.6475,52.0678" stroke="#0080ff" stroke-width="2" /><polyline fill="none" points="95.8915,22.9966 97.1932,16.0542 101.0983,8.678 104.5695,14.3186 107.6068,26.0339" stroke="#00d4ff" stroke-width="2" /><polyline fill="none" points="98.9288,33.8441 98.9288,33.8441" stroke="#36ffc0" stroke-width="2" /><polyline fill="none" points="103.7017,32.1085 101.5322,36.0136" stroke="#7cff79" stroke-width="2" /><polyline fill="none" points="38.6169,75.4983 31.2407,78.1017 27.3356,86.3458 23.4305,88.5153 13.4508,88.5153 9.9797,89.8169 8.678,97.6271 14.3186,111.5119 14.7525,119.322" stroke="#c0ff36" stroke-width="2" /><polyline fill="none" points="58.1424,113.6814 64.6508,111.9458" stroke="#ffe500" stroke-width="2" /><polyline fill="none" points="82.0068,111.078 87.2136,111.078" stroke="#ff9400" stroke-width="2" /><polyline fill="none" points="64.2169,78.9695 61.1797,85.9119 64.2169,104.1356 73.3288,105.0034" stroke="#ff4600" stroke-width="2" /><polyline fill="none" points="78.1017,105.4373 78.1017,105.4373" stroke="#de0000" stroke-width="2" /><polyline fill="none" points="84.6102,75.4983 85.478,94.5898 95.0237,98.061" stroke="#7f0000" stroke-width="2" /></svg>