<?xml version="1.0" encoding="utf-8" ?>
<svg baseProfile="tiny" height="128" version="1.2" viewBox="0,0,128,128" width="128" xmlns="http://www.w3.org/2000/svg" xmlns:ev="http://www.w3.org/2001/xml-events" xmlns:xlink="http://www.w3.org/1999/xlink"><defs /><polyline fill="none" points="13.4508,64.2169 10.8475,84.1763 10.8475,97.6271 15.6203,104.1356 25.6,113.2475 34.278,117.1525 42.522,119.322 76.3661,118.8881 84.6102,113.6814 92.4203,105.0034 97.6271,92.8542 98.9288,80.7051 98.061,51.2 94.1559,45.1254 88.5153,39.4847 85.0441,36.4475 77.2339,33.4102 46.861,32.1085 27.7695,36.8814 22.1288,42.522 15.6203,45.5593 12.1492,50.7661 8.678,67.6881 8.678,72.8949 10.4136,74.1966" stroke="#00007f" stroke-width="2" /><polyline fill="none" points="21.261,38.1831 18.6576,11.7153 21.261,12.5831 34.7119,31.2407" stroke="#0028ff" stroke-width="2" /><polyline fill="none" points="73.3288,30.3729 77.6678,22.9966 83.7424,18.2237 102.8339,8.678 102.8339,12.1492 98.9288,23.8644 91.9864,38.1831" stroke="#00d4ff" stroke-width="2" /><polyline fill="none" points="28.2034,71.1593 32.5424,65.9525 37.7492,64.6508 50.7661,65.5186" stroke="#7cff79" stroke-width="2" /><polyline fill="none" points="29.5051,70.7254 42.522,70.7254 46.861,68.122" stroke="#ffe500" stroke-width="2" /><polyline fill="none" points="64.6508,65.9525 67.6881,63.7831 78.5356,63.3492" stroke="#ff4600" stroke-width="2" /><polyline fill="none" points="61.6136,66.8203 72.8949,67.2542 78.1017,64.2169" stroke="#7f0000" stroke-width="2" /></svg>