<?xml version="1.0" encoding="utf-8" ?>
<svg baseProfile="tiny" height="128" version="1.2" viewBox="0,0,128,128" width="128" xmlns="http://www.w3.org/2000/svg" xmlns:ev="http://www.w3.org/2001/xml-events" xmlns:xlink="http://www.w3.org/1999/xlink"><defs /><polyline fill="none" points="98.3253,42.519 94.782,35.8754 89.4671,31.8893 77.9516,29.2318 67.3218,31.0035 55.3633,35.4325 48.7197,38.9758 41.6332,45.6194 33.6609,55.8062 27.4602,68.6505 24.8028,80.609 25.2457,89.0242 31.0035,102.7543 37.2042,110.2837 42.519,113.3841 53.5917,116.4844 63.7785,116.4844 78.8374,111.6125 87.6955,106.2976 97.4394,96.1107 101.8685,78.8374 102.3114,62.0069 96.5536,52.7059 93.4533,50.4913 90.7958,51.3772" stroke="#00007f" stroke-width="2" /><polyline fill="none" points="100.5398,37.2042 99.654,44.7336" stroke="#0000ba" stroke-width="2" /><polyline fill="none" points="57.1349,73.9654 58.4637,79.7232 65.1073,73.9654 56.692,73.0796" stroke="#0000f5" stroke-width="2" /><polyline fill="none" points="57.5779,80.609 57.1349,91.6817 61.564,97.8824 64.6644,97.8824 70.8651,92.5675 72.1938,86.3668" stroke="#0020ff" stroke-width="2" /><polyline fill="none" points="57.1349,80.1661 50.0484,95.2249 43.4048,99.2111 40.7474,98.7682" stroke="#0054ff" stroke-width="2" /><polyline fill="none" points="48.2768,94.782 48.7197,102.7543 53.1488,106.2976 56.2491,104.9689 58.9066,95.2249" stroke="#008cff" stroke-width="2" /><polyline fill="none" points="50.9343,47.8339 49.6055,46.5052 48.7197,47.391 45.6194,54.4775 45.6194,63.3356 48.2768,65.5502 51.3772,64.6644 56.692,58.4637 55.3633,49.6055 51.3772,45.6194" stroke="#00c0ff" stroke-width="2" /><polyline fill="none" points="85.0381,48.2768 80.609,48.2768 76.1799,54.0346 76.1799,61.1211 77.9516,63.3356 81.0519,64.2215 83.7093,63.3356 86.8097,58.9066 88.1384,53.5917 87.2526,47.8339" stroke="#0ff8e7" stroke-width="2" /><polyline fill="none" points="77.5087,58.9066 82.8235,48.7197" stroke="#39ffbd" stroke-width="2" /><polyline fill="none" points="77.9516,63.3356 82.8235,57.5779 87.6955,57.1349" stroke="#66ff90" stroke-width="2" /><polyline fill="none" points="42.9619,56.692 46.5052,56.692 54.9204,50.0484" stroke="#90ff66" stroke-width="2" /><polyline fill="none" points="47.391,63.3356 50.0484,58.0208 54.4775,56.2491" stroke="#bdff39" stroke-width="2" /><polyline fill="none" points="85.9239,78.8374 110.2837,70.8651" stroke="#e7ff0f" stroke-width="2" /><polyline fill="none" points="87.6955,86.3668 119.1419,92.5675" stroke="#ffd300" stroke-width="2" /><polyline fill="none" points="87.6955,95.2249 99.654,108.0692" stroke="#ffa300" stroke-width="2" /><polyline fill="none" points="41.1903,74.4083 30.1176,74.4083 15.5017,77.0657 8.8581,79.2803 11.5156,79.2803" stroke="#ff6f00" stroke-width="2" /><polyline fill="none" points="46.5052,82.8235 32.7751,88.1384" stroke="#ff3f00" stroke-width="2" /><polyline fill="none" points="42.519,95.2249 29.6747,100.9827 17.7163,111.6125" stroke="#f50b00" stroke-width="2" /><polyline fill="none" points="46.5052,42.0761 46.0623,30.1176 49.6055,11.9585 58.0208,27.0173 66.8789,33.6609" stroke="#ba0000" stroke-width="2" /><polyline fill="none" points="88.1384,31.0035 101.8685,11.0727 104.526,8.8581 105.4118,11.5156" stroke="#7f0000" stroke-width="2" /></svg>