<?xml version="1.0" encoding="utf-8" ?>
<svg baseProfile="tiny" height="128" version="1.2" viewBox="0,0,128,128" width="128" xmlns="http://www.w3.org/2000/svg" xmlns:ev="http://www.w3.org/2001/xml-events" xmlns:xlink="http://www.w3.org/1999/xlink"><defs /><polyline fill="none" points="42.3754,13.9795 39.7543,27.959 42.8123,10.4846 49.802,28.3959 65.0922,21.4061 73.3925,21.843 87.372,25.3379 88.6826,16.6007 93.4881,8.7372 98.2935,22.7167 103.099,32.3276 97.8567,44.1229 89.1195,50.6758 70.3345,58.1024 60.2867,58.5392 46.3072,54.1706 42.3754,50.6758 40.628,37.57 42.8123,26.6485" stroke="#00007f" stroke-width="2" /><polyline fill="none" points="56.3549,34.9488 55.4812,37.1331 57.2287,38.0068 57.2287,34.9488" stroke="#0010ff" stroke-width="2" /><polyline fill="none" points="79.9454,35.3857 77.7611,34.9488 78.198,36.6962 79.9454,35.8225 79.9454,34.0751 78.198,34.5119" stroke="#00a4ff" stroke-width="2" /><polyline fill="none" points="67.7133,42.3754 64.6553,51.9863 61.5973,52.8601 58.9761,51.9863" stroke="#3fffb7" stroke-width="2" /><polyline fill="none" points="66.8396,44.9966 67.7133,51.9863 72.5188,52.8601" stroke="#b7ff3f" stroke-width="2" /><polyline fill="none" points="65.9659,47.6177 36.2594,42.3754 8.7372,41.5017" stroke="#ffb900" stroke-width="2" /><polyline fill="none" points="67.2765,45.8703 91.7406,41.0648 119.2628,40.1911" stroke="#ff3000" stroke-width="2" /><polyline fill="none" points="64.2184,46.744 23.5904,57.6655 58.1024,49.3652 40.1911,48.4915" stroke="#7f0000" stroke-width="2" /></svg>