<?xml version="1.0" encoding="utf-8" ?>
<svg baseProfile="tiny" height="128" version="1.2" viewBox="0,0,128,128" width="128" xmlns="http://www.w3.org/2000/svg" xmlns:ev="http://www.w3.org/2001/xml-events" xmlns:xlink="http://www.w3.org/1999/xlink"><defs /><polyline fill="none" points="8.678,32.5424 46.861,36.0136" stroke="#00007f" stroke-width="2" /><polyline fill="none" points="68.9898,8.678 62.4814,24.7322 59.0102,27.3356" stroke="#0010ff" stroke-width="2" /><polyline fill="none" points="69.4237,9.1119 77.6678,33.4102 81.139,33.8441 102.8339,30.3729 104.1356,19.0915 106.739,9.5458 118.0203,34.7119 119.322,40.3525 118.8881,44.6915 109.3424,49.0305 107.6068,47.2949 107.6068,52.9356 105.8712,54.6712 90.2508,54.2373 82.0068,52.9356 67.2542,45.9932 64.2169,36.0136 58.1424,24.7322" stroke="#00a4ff" stroke-width="2" /><polyline fill="none" points="87.2136,42.522 88.0814,44.6915 88.9492,44.2576" stroke="#3fffb7" stroke-width="2" /><polyline fill="none" points="86.7797,44.2576 80.2712,41.6542" stroke="#b7ff3f" stroke-width="2" /><polyline fill="none" points="88.5153,42.522 94.1559,41.6542" stroke="#ffb900" stroke-width="2" /><polyline fill="none" points="86.7797,44.6915 85.0441,45.9932" stroke="#ff3000" stroke-width="2" /><polyline fill="none" points="87.6475,46.4271 91.9864,47.2949" stroke="#7f0000" stroke-width="2" /></svg>