<?xml version="1.0" encoding="utf-8" ?>
<svg baseProfile="tiny" height="128" version="1.2" viewBox="0,0,128,128" width="128" xmlns="http://www.w3.org/2000/svg" xmlns:ev="http://www.w3.org/2001/xml-events" xmlns:xlink="http://www.w3.org/1999/xlink"><defs /><polyline fill="none" points="62.2585,44.8435 55.2925,44.8435 54.8571,46.585 56.5986,50.068 60.9524,52.2449 64.0,49.6327 65.3061,45.7143 64.0,44.8435" stroke="#00007f" stroke-width="2" /><polyline fill="none" points="47.0204,33.5238 43.5374,35.2653 43.9728,39.619 47.8912,41.3605 50.068,39.1837 50.068,34.8299 46.585,33.9592" stroke="#0000de" stroke-width="2" /><polyline fill="none" points="70.5306,34.3946 68.3537,37.0068 71.4014,39.1837 74.0136,37.4422 74.0136,32.2177 66.6122,34.3946" stroke="#0028ff" stroke-width="2" /><polyline fill="none" points="43.5374,50.068 35.7007,45.7143 17.415,41.3605" stroke="#0080ff" stroke-width="2" /><polyline fill="none" points="37.4422,51.8095 8.7075,56.5986" stroke="#00d4ff" stroke-width="2" /><polyline fill="none" points="31.7823,57.034 17.8503,67.483 16.5442,68.7891 22.2041,68.3537" stroke="#36ffc0" stroke-width="2" /><polyline fill="none" points="78.8027,47.8912 88.8163,40.4898 97.5238,37.4422 101.4422,37.0068 100.5714,38.7483" stroke="#7cff79" stroke-width="2" /><polyline fill="none" points="80.1088,55.2925 105.3605,55.2925 110.1497,55.7279 104.9252,57.4694" stroke="#c0ff36" stroke-width="2" /><polyline fill="none" points="78.8027,61.3878 107.102,67.9184 118.4218,71.4014 119.2925,72.2721 116.6803,72.7075" stroke="#ffe500" stroke-width="2" /><polyline fill="none" points="52.6803,61.3878 63.5646,62.2585 66.1769,59.6463" stroke="#ff9400" stroke-width="2" /><polyline fill="none" points="53.1156,18.2857 41.3605,20.0272 28.2993,30.4762 23.9456,39.1837 23.0748,43.9728 28.2993,55.7279 37.0068,67.483 45.2789,74.0136 68.7891,79.2381 83.1565,76.6259 86.2041,73.5782 94.9116,50.9388 96.2177,39.1837 94.4762,34.8299 86.2041,26.1224 77.0612,20.0272 69.2245,18.2857 52.6803,18.7211" stroke="#ff4600" stroke-width="2" /><polyline fill="none" points="30.9116,24.8163 31.7823,15.6735 35.2653,10.0136 47.8912,20.898" stroke="#de0000" stroke-width="2" /><polyline fill="none" points="72.7075,20.0272 81.415,11.3197 87.0748,8.7075 91.4286,17.415 90.1224,26.1224" stroke="#7f0000" stroke-width="2" /></svg>