<?xml version="1.0" encoding="utf-8" ?>
<svg baseProfile="tiny" height="128" version="1.2" viewBox="0,0,128,128" width="128" xmlns="http://www.w3.org/2000/svg" xmlns:ev="http://www.w3.org/2001/xml-events" xmlns:xlink="http://www.w3.org/1999/xlink"><defs /><polyline fill="none" points="75.4983,19.5254 65.9525,17.3559 56.8407,17.3559 49.8983,21.261 43.8237,29.0712 39.9186,39.4847 39.9186,48.5966 45.1254,56.8407 53.8034,62.4814 62.9153,63.3492 73.3288,59.0102 81.5729,51.2 86.7797,42.522 88.0814,37.7492 86.3458,29.0712 79.8373,21.6949 75.0644,19.0915 65.0847,16.4881" stroke="#00007f" stroke-width="2" /><polyline fill="none" points="75.4983,16.4881 91.5525,10.8475 91.9864,16.0542 86.7797,32.1085" stroke="#0000de" stroke-width="2" /><polyline fill="none" points="52.0678,15.6203 47.2949,11.2814 41.2203,8.678 38.1831,8.678 37.3153,12.1492 49.4644,34.278" stroke="#0028ff" stroke-width="2" /><polyline fill="none" points="56.8407,32.9763 54.6712,33.8441 52.0678,36.8814 52.0678,38.6169 55.539,39.0508 59.0102,36.4475 58.5763,34.7119 52.9356,33.8441" stroke="#0080ff" stroke-width="2" /><polyline fill="none" points="75.0644,35.5797 75.0644,39.0508 78.9695,39.4847 79.8373,37.7492 72.8949,36.4475" stroke="#00d4ff" stroke-width="2" /><polyline fill="none" points="63.7831,48.5966 63.7831,48.5966" stroke="#36ffc0" stroke-width="2" /><polyline fill="none" points="61.6136,50.3322 62.9153,49.4644" stroke="#7cff79" stroke-width="2" /><polyline fill="none" points="63.7831,50.7661 61.6136,58.1424" stroke="#c0ff36" stroke-width="2" /><polyline fill="none" points="70.7254,50.7661 94.5898,43.8237 119.322,39.9186" stroke="#ffe500" stroke-width="2" /><polyline fill="none" points="72.0271,55.539 114.5492,53.3695" stroke="#ff9400" stroke-width="2" /><polyline fill="none" points="53.8034,47.7288 46.861,44.6915 39.4847,43.3898 13.0169,42.522 8.678,44.6915" stroke="#ff4600" stroke-width="2" /><polyline fill="none" points="47.7288,59.0102 36.8814,59.878 26.9017,63.7831" stroke="#de0000" stroke-width="2" /><polyline fill="none" points="59.878,66.8203 60.3119,74.6305 47.7288,83.3085 42.0881,91.1186" stroke="#7f0000" stroke-width="2" /></svg>