<?xml version="1.0" encoding="utf-8" ?>
<svg baseProfile="tiny" height="128" version="1.2" viewBox="0,0,128,128" width="128" xmlns="http://www.w3.org/2000/svg" xmlns:ev="http://www.w3.org/2001/xml-events" xmlns:xlink="http://www.w3.org/1999/xlink"><defs /><polyline fill="none" points="88.9492,40.3525 84.1763,38.1831 68.9898,35.5797 54.6712,36.4475 40.7864,39.9186 29.5051,44.6915 19.0915,52.9356 14.7525,58.1424 10.8475,67.2542 8.678,81.5729 9.5458,86.7797 13.8847,94.1559 17.3559,98.4949 29.5051,107.6068 42.9559,113.2475 53.8034,115.4169 81.139,113.6814 90.6847,110.6441 105.0034,101.9661 112.3797,93.722 116.7186,85.0441 119.322,73.3288 118.0203,59.878 113.6814,49.4644 108.0407,40.7864 100.2305,34.7119 88.0814,32.5424 75.0644,32.5424" stroke="#00007f" stroke-width="2" /><polyline fill="none" points="25.1661,49.4644 25.1661,45.1254 36.4475,8.678 45.5593,26.0339 51.2,43.3898" stroke="#004cff" stroke-width="2" /><polyline fill="none" points="81.5729,37.3153 93.2881,23.8644 106.3051,11.7153 112.8136,48.1627" stroke="#29ffcd" stroke-width="2" /><polyline fill="none" points="36.8814,59.4441 53.8034,59.4441" stroke="#cdff29" stroke-width="2" /><polyline fill="none" points="78.5356,56.4068 94.1559,56.4068" stroke="#ff6700" stroke-width="2" /><polyline fill="none" points="50.3322,81.5729 63.7831,82.8746 68.5559,80.7051 74.6305,82.4407 77.6678,79.8373" stroke="#7f0000" stroke-width="2" /></svg>