<?xml version="1.0" encoding="utf-8" ?>
<svg baseProfile="tiny" height="128" version="1.2" viewBox="0,0,128,128" width="128" xmlns="http://www.w3.org/2000/svg" xmlns:ev="http://www.w3.org/2001/xml-events" xmlns:xlink="http://www.w3.org/1999/xlink"><defs /><polyline fill="none" points="42.522,26.9017 44.6915,42.0881 49.4644,38.1831 51.2,33.4102 50.3322,27.3356 51.6339,26.4678 55.539,28.6373 55.539,37.7492 59.4441,38.6169 62.0475,36.8814 62.9153,34.278 60.3119,27.7695 60.7458,26.0339 78.9695,25.6 80.2712,38.1831 82.8746,38.6169 85.478,35.1458 84.6102,26.4678 86.7797,25.6 89.3831,36.8814 91.1186,37.3153 93.722,32.9763 93.722,28.2034 91.5525,24.2983 111.5119,21.261 118.4542,18.2237 119.322,15.1864 115.4169,13.4508 110.2102,13.8847 104.5695,18.2237 98.4949,20.8271 93.722,20.3932 82.8746,16.0542 59.0102,12.1492 38.6169,12.5831 38.1831,18.6576 29.0712,15.6203 22.5627,15.6203 20.8271,20.3932 21.261,27.7695 24.7322,30.8068 29.939,31.6746 39.0508,28.2034 40.7864,26.0339 41.2203,19.9593 36.4475,17.3559" stroke="#00007f" stroke-width="2" /><polyline fill="none" points="27.7695,16.4881 26.4678,12.1492 26.9017,8.678 30.3729,16.922" stroke="#0000e8" stroke-width="2" /><polyline fill="none" points="30.8068,17.3559 32.9763,10.8475 35.5797,13.4508 35.1458,17.3559" stroke="#0038ff" stroke-width="2" /><polyline fill="none" points="27.7695,24.7322 32.5424,29.5051" stroke="#0094ff" stroke-width="2" /><polyline fill="none" points="29.0712,22.1288 34.278,25.6" stroke="#0cf4ea" stroke-width="2" /><polyline fill="none" points="27.3356,26.4678 35.1458,29.939" stroke="#56ffa0" stroke-width="2" /><polyline fill="none" points="20.3932,22.5627 8.678,22.5627" stroke="#a0ff56" stroke-width="2" /><polyline fill="none" points="21.261,23.8644 9.9797,25.6" stroke="#eaff0c" stroke-width="2" /><polyline fill="none" points="20.3932,25.6 12.1492,27.7695" stroke="#ffaa00" stroke-width="2" /><polyline fill="none" points="22.9966,17.7898 23.4305,19.0915 23.8644,18.2237" stroke="#ff5500" stroke-width="2" /><polyline fill="none" points="29.0712,19.0915 27.7695,20.3932 27.3356,19.5254" stroke="#e80000" stroke-width="2" /><polyline fill="none" points="22.9966,24.2983 24.7322,23.4305 26.0339,24.7322 24.7322,25.1661" stroke="#7f0000" stroke-width="2" /></svg>