<?xml version="1.0" encoding="utf-8" ?>
<svg baseProfile="tiny" height="128" version="1.2" viewBox="0,0,128,128" width="128" xmlns="http://www.w3.org/2000/svg" xmlns:ev="http://www.w3.org/2001/xml-events" xmlns:xlink="http://www.w3.org/1999/xlink"><defs /><polyline fill="none" points="38.1831,42.9559 22.5627,45.5593 17.3559,56.4068 15.6203,65.9525 15.6203,79.8373 18.2237,89.3831 26.0339,103.7017 35.5797,113.2475 45.9932,118.4542 52.0678,119.322 67.6881,113.2475 79.4034,100.6644 81.139,96.3254 82.4407,89.3831 82.4407,77.6678 80.2712,66.3864 74.6305,55.539 70.7254,52.9356 60.3119,49.4644 41.6542,45.9932" stroke="#00007f" stroke-width="2" /><polyline fill="none" points="57.7085,44.6915 73.7627,14.7525 75.4983,8.678 73.7627,43.3898" stroke="#0080ff" stroke-width="2" /><polyline fill="none" points="8.678,54.2373 11.7153,38.6169 12.5831,23.4305 16.4881,23.8644 22.5627,31.2407 37.3153,39.9186" stroke="#7cff79" stroke-width="2" /><polyline fill="none" points="54.6712,63.7831 68.122,65.0847 59.878,65.5186" stroke="#ff9400" stroke-width="2" /><polyline fill="none" points="27.7695,65.5186 27.3356,68.5559 30.3729,70.2915 36.8814,72.461 35.5797,66.3864 35.1458,69.8576 37.7492,72.461 38.1831,69.4237 36.0136,68.122" stroke="#7f0000" stroke-width="2" /></svg>