<?xml version="1.0" encoding="utf-8" ?>
<svg baseProfile="tiny" height="128" version="1.2" viewBox="0,0,128,128" width="128" xmlns="http://www.w3.org/2000/svg" xmlns:ev="http://www.w3.org/2001/xml-events" xmlns:xlink="http://www.w3.org/1999/xlink"><defs /><polyline fill="none" points="76.6259,16.1088 94.4762,14.3673 102.3129,17.415 112.7619,9.1429 111.8912,28.2993 107.102,38.3129 102.7483,40.0544 88.8163,40.4898 78.3673,37.0068 70.0952,27.8639 69.6599,23.0748 70.966,20.0272 68.3537,12.6259 68.3537,8.7075 70.5306,9.5782 77.0612,16.5442" stroke="#00007f" stroke-width="2" /><polyline fill="none" points="84.4626,22.6395 82.7211,22.6395 81.415,25.2517 82.2857,26.1224 85.3333,26.1224 84.898,23.9456" stroke="#0000cc" stroke-width="2" /><polyline fill="none" points="99.2653,23.9456 96.2177,24.8163 94.9116,26.1224 95.7823,26.9932 94.4762,25.2517" stroke="#0008ff" stroke-width="2" /><polyline fill="none" points="87.0748,30.4762 88.8163,33.5238 90.5578,33.9592 90.5578,29.1701 88.381,29.6054" stroke="#004cff" stroke-width="2" /><polyline fill="none" points="87.0748,32.6531 64.8707,28.7347" stroke="#0090ff" stroke-width="2" /><polyline fill="none" points="87.0748,34.8299 70.966,33.9592 65.7415,35.2653" stroke="#00d4ff" stroke-width="2" /><polyline fill="none" points="84.898,34.8299 74.8844,37.4422 70.0952,40.0544" stroke="#29ffcd" stroke-width="2" /><polyline fill="none" points="92.7347,33.0884 114.5034,28.7347" stroke="#5fff96" stroke-width="2" /><polyline fill="none" points="87.9456,37.4422 104.0544,34.8299 119.2925,34.8299" stroke="#96ff5f" stroke-width="2" /><polyline fill="none" points="88.381,33.9592 88.8163,37.0068 92.7347,38.3129" stroke="#cdff29" stroke-width="2" /><polyline fill="none" points="87.5102,35.7007 82.2857,37.8776" stroke="#ffe500" stroke-width="2" /><polyline fill="none" points="71.4014,32.2177 61.3878,30.0408 53.1156,30.0408 38.7483,36.5714 30.9116,37.0068 27.8639,35.2653 20.4626,26.5578 14.3673,10.8844 8.7075,18.7211 8.7075,21.7687 10.8844,25.6871 23.9456,36.5714 26.1224,47.0204 29.6054,51.8095 39.619,53.9864 70.0952,54.8571 82.2857,50.9388 84.4626,40.0544" stroke="#ffa600" stroke-width="2" /><polyline fill="none" points="42.6667,54.4218 42.6667,57.034" stroke="#ff6700" stroke-width="2" /><polyline fill="none" points="61.8231,54.8571 60.9524,58.7755" stroke="#ff2800" stroke-width="2" /><polyline fill="none" points="74.449,54.8571 76.6259,60.0816" stroke="#cc0000" stroke-width="2" /><polyline fill="none" points="84.0272,50.5034 83.5918,55.7279" stroke="#7f0000" stroke-width="2" /></svg>