<?xml version="1.0" encoding="utf-8" ?>
<svg baseProfile="tiny" height="128" version="1.2" viewBox="0,0,128,128" width="128" xmlns="http://www.w3.org/2000/svg" xmlns:ev="http://www.w3.org/2001/xml-events" xmlns:xlink="http://www.w3.org/1999/xlink"><defs /><polyline fill="none" points="26.0339,36.8814 26.0339,47.7288 27.7695,51.6339 39.0508,62.0475 49.0305,65.5186 61.6136,65.0847 66.8203,63.3492 71.1593,59.878 75.9322,50.7661 76.3661,37.7492" stroke="#00007f" stroke-width="2" /><polyline fill="none" points="25.6,35.1458 21.261,25.6 19.5254,17.7898 23.4305,16.922 26.4678,18.2237 42.9559,28.6373 55.9729,28.2034 85.0441,8.678 85.478,11.2814 82.0068,19.5254 78.5356,36.8814" stroke="#0028ff" stroke-width="2" /><polyline fill="none" points="49.0305,44.2576 56.4068,44.2576 57.2746,45.9932 52.0678,51.2 49.0305,46.861" stroke="#00d4ff" stroke-width="2" /><polyline fill="none" points="49.0305,47.2949 46.4271,51.2 42.522,52.9356 31.2407,54.2373 28.6373,52.9356" stroke="#7cff79" stroke-width="2" /><polyline fill="none" points="41.2203,45.1254 32.9763,43.3898 8.678,43.8237" stroke="#ffe500" stroke-width="2" /><polyline fill="none" points="66.8203,50.7661 77.2339,50.3322 119.322,41.2203" stroke="#ff4600" stroke-width="2" /><polyline fill="none" points="69.4237,42.522 79.8373,40.3525 110.2102,39.4847" stroke="#7f0000" stroke-width="2" /></svg>