<?xml version="1.0" encoding="utf-8" ?>
<svg baseProfile="tiny" height="128" version="1.2" viewBox="0,0,128,128" width="128" xmlns="http://www.w3.org/2000/svg" xmlns:ev="http://www.w3.org/2001/xml-events" xmlns:xlink="http://www.w3.org/1999/xlink"><defs /><polyline fill="none" points="70.2915,46.4271 68.9898,46.4271 68.9898,40.7864 72.461,31.2407 75.9322,27.3356 82.8746,24.2983 88.5153,24.7322 94.1559,27.7695 101.5322,39.0508 103.2678,44.2576 105.0034,44.6915" stroke="#00007f" stroke-width="2" /><polyline fill="none" points="98.9288,33.4102 105.4373,13.0169 108.4746,8.678 119.322,48.1627" stroke="#004cff" stroke-width="2" /><polyline fill="none" points="74.6305,34.7119 69.8576,18.2237 66.8203,11.7153 65.5186,13.4508 62.4814,31.6746 63.7831,52.0678" stroke="#29ffcd" stroke-width="2" /><polyline fill="none" points="71.5932,46.4271 76.3661,61.6136 83.3085,76.8 86.3458,79.4034 91.9864,79.8373 98.4949,76.3661 102.4,71.5932 105.0034,64.6508 107.6068,51.6339 105.4373,41.6542" stroke="#cdff29" stroke-width="2" /><polyline fill="none" points="76.8,60.7458 71.1593,57.2746 65.0847,55.539 49.4644,52.9356 39.0508,52.9356 32.5424,55.539 28.2034,60.3119 27.3356,74.1966 29.939,78.5356 34.278,82.4407 40.7864,85.0441 48.5966,85.9119 71.5932,80.7051 80.2712,75.4983 79.4034,72.8949" stroke="#ff6700" stroke-width="2" /><polyline fill="none" points="26.0339,66.3864 21.261,56.8407 19.5254,50.3322 19.5254,45.5593 23.4305,30.3729 23.4305,21.6949 21.261,18.2237 8.678,9.1119 17.7898,9.1119 22.9966,12.1492 28.2034,17.3559 31.2407,25.6 32.1085,44.6915" stroke="#7f0000" stroke-width="2" /></svg>