<?xml version="1.0" encoding="utf-8" ?>
<svg baseProfile="tiny" height="128" version="1.2" viewBox="0,0,128,128" width="128" xmlns="http://www.w3.org/2000/svg" xmlns:ev="http://www.w3.org/2001/xml-events" xmlns:xlink="http://www.w3.org/1999/xlink"><defs /><polyline fill="none" points="36.0136,27.7695 34.7119,25.6 32.1085,25.1661 24.2983,29.5051 18.6576,36.4475 15.1864,45.5593 15.1864,55.539 17.7898,61.6136 22.1288,65.0847 29.0712,63.7831 37.7492,54.2373 39.4847,49.8983 40.3525,42.0881 38.1831,35.5797 35.1458,32.5424 30.3729,32.5424 26.4678,34.7119" stroke="#00007f" stroke-width="2" /><polyline fill="none" points="61.1797,42.522 54.6712,45.1254 42.522,54.6712 32.5424,67.2542 29.5051,73.7627 29.5051,80.2712 33.4102,88.9492 40.7864,94.1559 47.2949,95.0237 53.8034,92.4203 61.6136,84.6102 68.5559,72.8949 70.7254,65.0847 70.7254,57.7085 67.2542,46.4271 64.2169,42.9559 60.3119,41.6542 54.2373,43.8237" stroke="#0000ff" stroke-width="2" /><polyline fill="none" points="63.3492,71.1593 71.5932,64.6508 78.5356,62.0475 92.8542,62.4814 98.061,63.7831 108.0407,71.1593 114.5492,82.0068 114.1153,87.2136 111.5119,92.4203 100.2305,99.7966 92.8542,101.0983 88.0814,99.3627 85.0441,97.6271 83.3085,92.4203 85.9119,87.6475 101.0983,81.139 101.9661,78.9695 98.9288,75.0644 91.9864,73.7627 76.8,75.9322 68.9898,73.7627" stroke="#0080ff" stroke-width="2" /><polyline fill="none" points="21.261,27.3356 21.6949,19.5254 25.1661,13.4508 30.8068,11.2814 35.1458,14.7525 38.6169,21.6949 39.4847,30.3729 35.1458,45.1254" stroke="#15ffe1" stroke-width="2" /><polyline fill="none" points="26.0339,46.4271 24.2983,46.861" stroke="#7cff79" stroke-width="2" /><polyline fill="none" points="58.1424,85.478 58.1424,93.722 51.6339,116.2847 43.8237,119.322 39.0508,117.1525 37.3153,114.5492 38.1831,111.9458 44.2576,106.739 48.5966,90.6847 55.539,79.4034" stroke="#e4ff12" stroke-width="2" /><polyline fill="none" points="31.6746,81.5729 29.5051,81.139 27.3356,84.1763 26.0339,91.1186 26.0339,109.7763 22.1288,116.7186 17.7898,119.322 12.5831,116.2847 9.1119,110.2102 8.678,101.9661 24.7322,77.6678 30.8068,74.1966 40.3525,73.3288" stroke="#ff9400" stroke-width="2" /><polyline fill="none" points="81.139,9.5458 75.4983,8.678 72.8949,9.9797 65.0847,16.4881 62.0475,22.1288 65.5186,29.939 70.2915,32.9763 75.4983,33.4102" stroke="#ff1d00" stroke-width="2" /><polyline fill="none" points="109.7763,19.5254 96.7593,23.4305 88.5153,31.6746 93.2881,29.0712 100.6644,21.261 102.4,31.6746" stroke="#7f0000" stroke-width="2" /></svg>