<?xml version="1.0" encoding="utf-8" ?>
<svg baseProfile="tiny" height="128" version="1.2" viewBox="0,0,128,128" width="128" xmlns="http://www.w3.org/2000/svg" xmlns:ev="http://www.w3.org/2001/xml-events" xmlns:xlink="http://www.w3.org/1999/xlink"><defs /><polyline fill="none" points="30.8068,51.2 30.8068,30.3729 35.1458,13.0169 38.6169,15.1864 51.6339,40.3525 54.2373,41.2203 60.3119,39.0508 72.8949,39.9186 76.8,36.0136 86.3458,17.3559 94.1559,8.678 96.3254,11.7153 97.1932,42.9559 103.2678,64.2169 103.2678,80.2712 100.6644,83.7424 85.9119,89.8169 65.5186,89.8169 44.2576,84.6102 38.1831,80.7051 32.5424,71.5932 29.0712,63.3492 29.0712,55.539" stroke="#00007f" stroke-width="2" /><polyline fill="none" points="29.0712,55.539 29.0712,50.7661" stroke="#0010ff" stroke-width="2" /><polyline fill="none" points="44.2576,65.5186 31.2407,61.6136 8.678,61.1797" stroke="#00a4ff" stroke-width="2" /><polyline fill="none" points="54.6712,73.3288 43.3898,73.3288 19.9593,76.8" stroke="#3fffb7" stroke-width="2" /><polyline fill="none" points="57.7085,78.9695 18.2237,105.4373" stroke="#b7ff3f" stroke-width="2" /><polyline fill="none" points="91.9864,55.1051 108.0407,49.8983 117.5864,44.6915" stroke="#ffb900" stroke-width="2" /><polyline fill="none" points="103.2678,67.6881 119.322,71.1593" stroke="#ff3000" stroke-width="2" /><polyline fill="none" points="96.7593,72.8949 96.7593,72.8949" stroke="#7f0000" stroke-width="2" /></svg>