<?xml version="1.0" encoding="utf-8" ?>
<svg baseProfile="tiny" height="128" version="1.2" viewBox="0,0,128,128" width="128" xmlns="http://www.w3.org/2000/svg" xmlns:ev="http://www.w3.org/2001/xml-events" xmlns:xlink="http://www.w3.org/1999/xlink"><defs /><polyline fill="none" points="65.7415,10.0136 57.034,20.898 57.4694,53.9864 63.1293,62.2585 68.3537,67.0476 74.449,68.3537 104.9252,61.3878 114.068,54.8571 119.2925,44.4082 118.8571,30.4762 109.7143,16.5442 94.9116,12.6259 58.7755,8.7075 63.5646,16.9796" stroke="#00007f" stroke-width="2" /><polyline fill="none" points="64.4354,25.6871 64.4354,24.8163" stroke="#0000ff" stroke-width="2" /><polyline fill="none" points="98.3946,24.381 97.9592,24.381" stroke="#0080ff" stroke-width="2" /><polyline fill="none" points="81.8503,42.2313 81.8503,42.2313" stroke="#15ffe1" stroke-width="2" /><polyline fill="none" points="82.7211,37.4422 82.2857,41.7959 85.7687,42.2313" stroke="#7cff79" stroke-width="2" /><polyline fill="none" points="72.2721,48.7619 77.932,51.3741 97.0884,51.3741 112.3265,46.1497" stroke="#e4ff12" stroke-width="2" /><polyline fill="none" points="57.9048,41.7959 29.1701,36.1361 8.7075,35.2653" stroke="#ff9400" stroke-width="2" /><polyline fill="none" points="61.8231,51.8095 59.6463,51.8095 52.6803,58.7755 47.8912,61.3878" stroke="#ff1d00" stroke-width="2" /><polyline fill="none" points="77.932,53.1156 61.3878,72.7075" stroke="#7f0000" stroke-width="2" /></svg>