<?xml version="1.0" encoding="utf-8" ?>
<svg baseProfile="tiny" height="128" version="1.2" viewBox="0,0,128,128" width="128" xmlns="http://www.w3.org/2000/svg" xmlns:ev="http://www.w3.org/2001/xml-events" xmlns:xlink="http://www.w3.org/1999/xlink"><defs /><polyline fill="none" points="19.5254,76.8 14.7525,73.3288 10.4136,68.5559 8.678,54.2373 12.5831,47.2949 24.2983,36.0136 32.1085,31.6746 46.4271,27.7695 60.7458,28.2034 66.8203,30.3729 71.1593,33.8441 73.7627,38.6169 74.6305,49.8983 70.7254,57.7085 58.5763,68.5559 49.8983,72.0271 36.4475,74.6305 23.4305,73.7627" stroke="#00007f" stroke-width="2" /><polyline fill="none" points="21.6949,54.2373 23.4305,61.6136 25.1661,64.2169 27.3356,64.6508 32.1085,63.3492 39.4847,53.8034 40.7864,54.2373 44.2576,61.6136 51.6339,63.3492 62.9153,53.8034" stroke="#0010ff" stroke-width="2" /><polyline fill="none" points="43.3898,52.5017 43.3898,53.3695" stroke="#00a4ff" stroke-width="2" /><polyline fill="none" points="36.0136,38.1831 35.5797,48.5966" stroke="#3fffb7" stroke-width="2" /><polyline fill="none" points="56.8407,36.8814 53.8034,47.7288" stroke="#b7ff3f" stroke-width="2" /><polyline fill="none" points="16.0542,37.3153 14.7525,35.1458 15.1864,29.0712 25.6,8.678 32.9763,27.3356" stroke="#ffb900" stroke-width="2" /><polyline fill="none" points="56.8407,23.4305 69.4237,14.7525 82.4407,10.8475 82.4407,15.6203 74.1966,30.3729" stroke="#ff3000" stroke-width="2" /><polyline fill="none" points="29.5051,79.4034 29.0712,89.3831 32.1085,99.7966 39.9186,111.078 50.3322,118.0203 56.4068,119.322 75.0644,119.322 96.7593,111.9458 102.4,107.6068 77.2339,98.061 62.4814,88.5153 53.8034,78.9695 49.8983,68.122" stroke="#7f0000" stroke-width="2" /></svg>