<?xml version="1.0" encoding="utf-8" ?>
<svg baseProfile="tiny" height="128" version="1.2" viewBox="0,0,128,128" width="128" xmlns="http://www.w3.org/2000/svg" xmlns:ev="http://www.w3.org/2001/xml-events" xmlns:xlink="http://www.w3.org/1999/xlink"><defs /><polyline fill="none" points="28.6373,28.6373 28.6373,10.4136 32.5424,9.5458 37.3153,12.1492 46.861,21.6949 82.8746,21.6949 90.2508,16.922 94.1559,9.1119 95.4576,8.678 99.7966,24.7322" stroke="#00007f" stroke-width="2" /><polyline fill="none" points="28.6373,36.0136 29.5051,43.3898 34.278,50.3322 42.522,55.9729 55.1051,62.0475 62.4814,63.7831 86.3458,64.6508 93.722,62.9153 97.6271,58.5763 103.2678,44.2576 104.1356,30.3729" stroke="#0000f1" stroke-width="2" /><polyline fill="none" points="8.678,37.7492 11.2814,39.0508 47.7288,39.0508" stroke="#004cff" stroke-width="2" /><polyline fill="none" points="21.261,53.8034 42.522,49.8983 49.0305,46.4271" stroke="#00b0ff" stroke-width="2" /><polyline fill="none" points="37.3153,68.122 38.6169,65.5186 41.2203,64.2169 63.3492,56.4068" stroke="#29ffcd" stroke-width="2" /><polyline fill="none" points="88.5153,42.9559 89.8169,40.3525 105.8712,37.3153 118.0203,33.4102" stroke="#7cff79" stroke-width="2" /><polyline fill="none" points="83.3085,46.4271 104.5695,47.7288 119.322,52.9356" stroke="#cdff29" stroke-width="2" /><polyline fill="none" points="83.7424,56.8407 86.3458,56.8407 96.3254,61.6136 107.6068,69.4237" stroke="#ffc400" stroke-width="2" /><polyline fill="none" points="67.2542,44.6915 67.6881,44.6915" stroke="#ff6700" stroke-width="2" /><polyline fill="none" points="50.7661,32.9763 50.7661,39.0508" stroke="#f10700" stroke-width="2" /><polyline fill="none" points="80.2712,31.6746 81.139,40.3525" stroke="#7f0000" stroke-width="2" /></svg>