<?xml version="1.0" encoding="utf-8" ?>
<svg baseProfile="tiny" height="128" version="1.2" viewBox="0,0,128,128" width="128" xmlns="http://www.w3.org/2000/svg" xmlns:ev="http://www.w3.org/2001/xml-events" xmlns:xlink="http://www.w3.org/1999/xlink"><defs /><polyline fill="none" points="69.8576,52.5017 67.6881,48.1627 65.0847,46.4271 52.5017,43.3898 44.2576,43.3898 35.5797,45.9932 28.2034,50.7661 17.7898,63.3492 15.6203,71.1593 15.6203,88.9492 19.5254,97.6271 31.6746,111.5119 40.3525,116.7186 49.0305,119.322 68.122,118.0203 77.2339,112.8136 91.9864,98.9288 96.3254,91.1186 98.4949,83.7424 98.9288,75.9322 97.6271,65.0847 93.722,56.4068 82.8746,43.8237 78.1017,40.3525 66.8203,36.4475 59.0102,37.7492" stroke="#00007f" stroke-width="2" /><polyline fill="none" points="9.9797,67.6881 8.678,63.7831 8.678,28.2034 10.4136,20.8271 12.1492,19.0915 15.6203,19.0915 37.3153,44.2576 39.0508,45.9932 39.4847,45.1254" stroke="#004cff" stroke-width="2" /><polyline fill="none" points="62.0475,42.9559 97.1932,13.4508 106.739,8.678 108.9085,8.678 108.9085,18.6576 102.4,40.7864 100.2305,59.0102" stroke="#29ffcd" stroke-width="2" /><polyline fill="none" points="36.4475,68.9898 34.7119,68.122 32.1085,71.5932 31.2407,79.8373 38.1831,82.0068 41.6542,79.4034 44.2576,72.0271 42.522,67.6881" stroke="#cdff29" stroke-width="2" /><polyline fill="none" points="76.8,69.4237 63.3492,68.122 59.4441,70.2915 59.0102,75.4983 64.2169,80.7051 69.4237,81.5729 74.1966,76.3661 75.0644,71.5932 73.7627,62.9153" stroke="#ff6700" stroke-width="2" /><polyline fill="none" points="41.2203,98.9288 43.3898,101.9661 50.7661,107.1729 57.2746,108.0407 64.2169,103.2678 72.461,86.7797" stroke="#7f0000" stroke-width="2" /></svg>