<?xml version="1.0" encoding="utf-8" ?>
<svg baseProfile="tiny" height="128" version="1.2" viewBox="0,0,128,128" width="128" xmlns="http://www.w3.org/2000/svg" xmlns:ev="http://www.w3.org/2001/xml-events" xmlns:xlink="http://www.w3.org/1999/xlink"><defs /><polyline fill="none" points="30.8068,38.6169 21.6949,42.522" stroke="#00007f" stroke-width="2" /><polyline fill="none" points="32.9763,28.2034 25.6,28.6373 18.2237,32.1085 12.1492,39.0508 9.1119,49.0305 8.678,62.4814 11.2814,72.8949 13.4508,77.2339 24.7322,85.9119 34.278,89.3831 43.3898,89.8169 53.8034,76.3661 58.5763,63.3492 59.0102,49.4644 55.539,40.7864 52.0678,37.3153 41.6542,33.4102" stroke="#0000ff" stroke-width="2" /><polyline fill="none" points="33.4102,24.7322 50.3322,10.4136 56.4068,8.678 59.0102,9.5458 59.4441,30.8068 55.9729,40.7864 52.0678,44.6915" stroke="#0080ff" stroke-width="2" /><polyline fill="none" points="60.3119,45.1254 77.6678,39.4847 82.8746,39.0508 92.8542,39.0508 101.0983,42.0881 106.739,47.7288 114.1153,61.6136 114.9831,75.9322 106.3051,84.6102 88.0814,90.6847 59.878,90.6847 52.9356,88.0814" stroke="#15ffe1" stroke-width="2" /><polyline fill="none" points="47.7288,88.5153 44.2576,102.4 44.2576,117.5864 45.5593,119.322" stroke="#7cff79" stroke-width="2" /><polyline fill="none" points="48.5966,114.9831 54.2373,117.5864 60.3119,117.5864 62.9153,115.4169 67.2542,102.8339 67.2542,93.722" stroke="#e4ff12" stroke-width="2" /><polyline fill="none" points="85.9119,93.722 87.2136,100.2305 90.6847,106.739 96.7593,111.5119 102.8339,113.2475 108.9085,113.2475 112.8136,106.739 112.8136,98.9288 110.2102,92.4203 106.739,87.6475" stroke="#ff9400" stroke-width="2" /><polyline fill="none" points="78.5356,91.5525 79.8373,103.7017 82.8746,109.3424 85.9119,113.6814 92.8542,114.9831" stroke="#ff1d00" stroke-width="2" /><polyline fill="none" points="75.0644,90.6847 75.0644,102.8339 70.7254,110.2102 67.6881,111.9458" stroke="#7f0000" stroke-width="2" /></svg>