<?xml version="1.0" encoding="utf-8" ?>
<svg baseProfile="tiny" height="128" version="1.2" viewBox="0,0,128,128" width="128" xmlns="http://www.w3.org/2000/svg" xmlns:ev="http://www.w3.org/2001/xml-events" xmlns:xlink="http://www.w3.org/1999/xlink"><defs /><polyline fill="none" points="21.6949,58.1424 15.6203,51.6339 8.678,32.1085 39.0508,40.3525 44.2576,32.9763 52.9356,26.9017 62.0475,25.1661 71.5932,25.6 80.2712,28.6373 82.8746,32.5424 84.1763,38.6169 95.8915,23.4305 118.8881,8.678 119.322,12.5831 116.7186,22.1288 116.7186,39.0508 113.2475,63.7831 108.0407,79.4034 102.4,85.9119 80.2712,99.7966 57.7085,106.739 45.9932,107.6068 38.1831,105.8712 26.9017,95.0237 25.6,82.4407 28.2034,72.0271 27.7695,58.5763 29.939,58.1424" stroke="#00007f" stroke-width="2" /><polyline fill="none" points="61.1797,72.8949 48.5966,81.139 43.8237,85.478 43.3898,87.6475" stroke="#0028ff" stroke-width="2" /><polyline fill="none" points="63.3492,81.139 55.539,95.8915" stroke="#00d4ff" stroke-width="2" /><polyline fill="none" points="85.9119,65.0847 92.8542,59.878 101.5322,56.8407" stroke="#7cff79" stroke-width="2" /><polyline fill="none" points="82.8746,77.2339 94.5898,73.7627" stroke="#ffe500" stroke-width="2" /><polyline fill="none" points="66.3864,71.5932 62.9153,71.5932 61.6136,75.4983 62.0475,82.0068 65.5186,87.6475 70.7254,88.0814 74.1966,86.3458 78.1017,83.7424 82.0068,77.2339 79.8373,72.8949 72.0271,69.8576 68.122,69.8576 65.9525,72.0271 64.6508,76.3661 65.9525,77.2339" stroke="#ff4600" stroke-width="2" /><polyline fill="none" points="37.3153,72.461 44.6915,62.0475 45.9932,58.1424" stroke="#7f0000" stroke-width="2" /></svg>