<?xml version="1.0" encoding="utf-8" ?>
<svg baseProfile="tiny" height="128" version="1.2" viewBox="0,0,128,128" width="128" xmlns="http://www.w3.org/2000/svg" xmlns:ev="http://www.w3.org/2001/xml-events" xmlns:xlink="http://www.w3.org/1999/xlink"><defs /><polyline fill="none" points="45.5593,37.7492 44.2576,41.6542 46.4271,45.1254 51.2,49.8983 56.8407,51.2 75.0644,41.6542 84.1763,34.278 86.3458,27.7695 84.6102,22.1288 77.6678,13.4508 69.8576,10.4136 64.6508,12.1492 54.2373,21.261 48.5966,28.6373 48.5966,32.1085" stroke="#00007f" stroke-width="2" /><polyline fill="none" points="63.3492,29.5051 62.0475,30.8068" stroke="#0000de" stroke-width="2" /><polyline fill="none" points="68.122,32.9763 109.7763,25.1661" stroke="#0028ff" stroke-width="2" /><polyline fill="none" points="74.6305,38.6169 119.322,38.1831" stroke="#0080ff" stroke-width="2" /><polyline fill="none" points="68.122,41.2203 81.139,44.2576 96.3254,45.5593" stroke="#00d4ff" stroke-width="2" /><polyline fill="none" points="49.8983,36.8814 26.0339,34.7119 9.9797,34.7119 8.678,35.5797 12.1492,36.0136" stroke="#36ffc0" stroke-width="2" /><polyline fill="none" points="49.0305,38.6169 42.522,43.3898 28.2034,49.8983 26.0339,51.2 29.0712,51.2" stroke="#7cff79" stroke-width="2" /><polyline fill="none" points="57.2746,42.522 37.3153,61.1797 38.6169,56.8407" stroke="#c0ff36" stroke-width="2" /><polyline fill="none" points="57.7085,22.5627 58.1424,22.9966" stroke="#ffe500" stroke-width="2" /><polyline fill="none" points="71.5932,22.5627 72.0271,22.5627" stroke="#ff9400" stroke-width="2" /><polyline fill="none" points="79.8373,14.7525 80.7051,12.5831 86.7797,8.678 86.7797,15.6203 85.478,20.3932" stroke="#ff4600" stroke-width="2" /><polyline fill="none" points="57.2746,14.3186 55.1051,10.4136 53.3695,10.8475 49.8983,26.9017" stroke="#de0000" stroke-width="2" /><polyline fill="none" points="57.2746,12.1492 59.4441,19.5254" stroke="#7f0000" stroke-width="2" /></svg>