<?xml version="1.0" encoding="utf-8" ?>
<svg baseProfile="tiny" height="128" version="1.2" viewBox="0,0,128,128" width="128" xmlns="http://www.w3.org/2000/svg" xmlns:ev="http://www.w3.org/2001/xml-events" xmlns:xlink="http://www.w3.org/1999/xlink"><defs /><polyline fill="none" points="26.9017,77.2339 18.6576,62.9153 16.922,52.5017 16.922,35.1458 20.8271,10.8475 31.6746,23.8644 38.6169,27.7695 59.4441,28.2034 85.0441,26.0339 97.1932,8.678 101.9661,29.5051 106.3051,42.0881 106.3051,55.9729 102.4,69.4237 98.061,75.0644 92.4203,79.4034 81.139,84.1763 62.4814,86.7797 32.5424,85.9119 29.5051,84.6102 26.4678,79.4034" stroke="#00007f" stroke-width="2" /><polyline fill="none" points="57.7085,59.4441 67.2542,59.4441 67.2542,61.6136 63.7831,65.9525 61.6136,66.3864 59.878,63.7831 61.1797,64.6508" stroke="#004cff" stroke-width="2" /><polyline fill="none" points="46.861,65.5186 27.3356,66.8203 8.678,73.7627" stroke="#29ffcd" stroke-width="2" /><polyline fill="none" points="42.9559,70.2915 35.1458,70.7254 24.2983,74.6305 19.5254,78.1017 16.4881,85.0441" stroke="#cdff29" stroke-width="2" /><polyline fill="none" points="77.6678,60.3119 93.2881,60.3119 119.322,66.8203" stroke="#ff6700" stroke-width="2" /><polyline fill="none" points="78.9695,66.3864 92.8542,67.2542 114.9831,75.0644" stroke="#7f0000" stroke-width="2" /></svg>