<?xml version="1.0" encoding="utf-8" ?>
<svg baseProfile="tiny" height="128" version="1.2" viewBox="0,0,128,128" width="128" xmlns="http://www.w3.org/2000/svg" xmlns:ev="http://www.w3.org/2001/xml-events" xmlns:xlink="http://www.w3.org/1999/xlink"><defs /><polyline fill="none" points="46.4271,44.2576 36.4475,44.6915 25.1661,55.9729 22.5627,62.4814 22.5627,73.3288 24.7322,82.0068 33.4102,95.0237 40.7864,99.7966 61.1797,108.9085 93.722,111.5119 113.2475,107.1729 115.4169,103.7017 115.4169,93.2881 113.2475,74.6305 109.3424,60.3119 106.3051,54.6712 93.722,40.3525 89.3831,38.1831 65.5186,37.7492 33.8441,40.3525 32.5424,42.0881" stroke="#00007f" stroke-width="2" /><polyline fill="none" points="85.9119,36.0136 103.7017,13.0169 104.5695,16.4881 103.7017,57.7085" stroke="#0000ff" stroke-width="2" /><polyline fill="none" points="51.2,39.9186 49.8983,34.278 46.4271,28.2034 46.4271,25.1661 33.4102,8.678 31.2407,12.1492 30.3729,18.6576 32.5424,47.7288" stroke="#0080ff" stroke-width="2" /><polyline fill="none" points="66.3864,77.6678 65.0847,80.2712 68.122,79.4034 68.122,76.3661" stroke="#15ffe1" stroke-width="2" /><polyline fill="none" points="65.9525,75.9322 32.9763,72.0271 16.4881,71.5932" stroke="#7cff79" stroke-width="2" /><polyline fill="none" points="68.122,75.9322 87.6475,73.3288 110.6441,65.9525" stroke="#e4ff12" stroke-width="2" /><polyline fill="none" points="69.8576,79.4034 85.0441,81.139 119.322,81.139" stroke="#ff9400" stroke-width="2" /><polyline fill="none" points="64.2169,78.5356 48.1627,78.5356 8.678,84.1763" stroke="#ff1d00" stroke-width="2" /><polyline fill="none" points="66.3864,81.139 59.878,82.0068 32.5424,91.5525" stroke="#7f0000" stroke-width="2" /></svg>