<?xml version="1.0" encoding="utf-8" ?>
<svg baseProfile="tiny" height="128" version="1.2" viewBox="0,0,128,128" width="128" xmlns="http://www.w3.org/2000/svg" xmlns:ev="http://www.w3.org/2001/xml-events" xmlns:xlink="http://www.w3.org/1999/xlink"><defs /><polyline fill="none" points="85.478,45.1254 80.7051,44.2576 21.261,44.2576 9.5458,59.0102 8.678,90.6847 18.2237,105.8712 37.3153,114.5492 103.7017,114.5492 119.322,89.3831 117.5864,75.0644 96.3254,43.3898 91.5525,43.3898" stroke="#00007f" stroke-width="2" /><polyline fill="none" points="19.0915,39.4847 18.2237,8.678 41.2203,55.9729" stroke="#0000fe" stroke-width="2" /><polyline fill="none" points="91.5525,35.5797 96.3254,30.8068 107.6068,13.4508 105.8712,31.6746 101.0983,42.9559 101.0983,45.9932" stroke="#0060ff" stroke-width="2" /><polyline fill="none" points="42.522,71.1593 39.4847,71.1593" stroke="#00d4ff" stroke-width="2" /><polyline fill="none" points="78.9695,69.4237 78.9695,75.0644 83.7424,74.1966 78.1017,75.0644 76.8,73.3288" stroke="#4cffaa" stroke-width="2" /><polyline fill="none" points="64.6508,88.5153 62.4814,84.6102" stroke="#aaff4c" stroke-width="2" /><polyline fill="none" points="62.4814,84.6102 62.4814,84.6102" stroke="#ffe500" stroke-width="2" /><polyline fill="none" points="62.4814,84.6102 62.4814,84.6102" stroke="#ff7a00" stroke-width="2" /><polyline fill="none" points="63.3492,85.478 63.3492,94.1559 68.5559,103.7017 82.0068,97.1932" stroke="#fe1200" stroke-width="2" /><polyline fill="none" points="62.4814,101.9661 57.7085,102.8339 49.4644,101.9661 44.2576,95.4576 37.7492,92.4203" stroke="#7f0000" stroke-width="2" /></svg>