<?xml version="1.0" encoding="utf-8" ?>
<svg baseProfile="tiny" height="128" version="1.2" viewBox="0,0,128,128" width="128" xmlns="http://www.w3.org/2000/svg" xmlns:ev="http://www.w3.org/2001/xml-events" xmlns:xlink="http://www.w3.org/1999/xlink"><defs /><polyline fill="none" points="61.6136,33.8441 55.1051,33.4102 50.3322,35.1458 34.278,44.2576 16.922,58.1424 10.8475,68.122 8.678,79.4034 8.678,84.1763 10.8475,88.5153 16.922,94.5898 35.5797,103.7017 54.2373,109.7763 88.9492,114.5492 98.4949,114.5492 108.0407,111.9458 112.8136,108.9085 115.4169,105.4373 118.8881,92.8542 119.322,82.8746 112.8136,67.2542 95.0237,48.1627 76.8,38.6169 63.3492,34.7119" stroke="#00007f" stroke-width="2" /><polyline fill="none" points="32.5424,46.861 34.7119,24.7322 39.0508,8.678 40.7864,11.2814 46.861,35.5797" stroke="#0000cc" stroke-width="2" /><polyline fill="none" points="88.0814,46.4271 98.061,12.5831 100.2305,18.6576 104.5695,40.3525 106.739,65.5186" stroke="#0008ff" stroke-width="2" /><polyline fill="none" points="51.2,58.1424 51.2,57.7085" stroke="#004cff" stroke-width="2" /><polyline fill="none" points="51.2,57.7085 51.2,57.7085" stroke="#0090ff" stroke-width="2" /><polyline fill="none" points="80.7051,62.4814 80.7051,62.4814" stroke="#00d4ff" stroke-width="2" /><polyline fill="none" points="80.7051,62.4814 80.7051,62.4814" stroke="#29ffcd" stroke-width="2" /><polyline fill="none" points="81.139,62.4814 81.139,62.4814" stroke="#5fff96" stroke-width="2" /><polyline fill="none" points="80.2712,58.5763 80.2712,58.5763" stroke="#96ff5f" stroke-width="2" /><polyline fill="none" points="80.2712,60.3119 80.2712,60.3119" stroke="#cdff29" stroke-width="2" /><polyline fill="none" points="82.4407,59.4441 82.4407,59.878" stroke="#ffe500" stroke-width="2" /><polyline fill="none" points="62.0475,67.2542 63.3492,73.3288" stroke="#ffa600" stroke-width="2" /><polyline fill="none" points="39.4847,75.4983 40.3525,82.8746 43.3898,87.2136 47.7288,90.2508 54.2373,91.1186 73.3288,90.6847 82.0068,86.7797" stroke="#ff6700" stroke-width="2" /><polyline fill="none" points="50.7661,72.461 30.3729,58.1424" stroke="#ff2800" stroke-width="2" /><polyline fill="none" points="47.7288,75.4983 36.8814,76.3661 20.3932,81.139" stroke="#cc0000" stroke-width="2" /><polyline fill="none" points="42.9559,72.8949 42.9559,72.8949" stroke="#7f0000" stroke-width="2" /></svg>