<?xml version="1.0" encoding="utf-8" ?>
<svg baseProfile="tiny" height="128" version="1.2" viewBox="0,0,128,128" width="128" xmlns="http://www.w3.org/2000/svg" xmlns:ev="http://www.w3.org/2001/xml-events" xmlns:xlink="http://www.w3.org/1999/xlink"><defs /><polyline fill="none" points="15.6735,25.6871 15.6735,22.6395 11.7551,18.2857 11.7551,25.6871" stroke="#00007f" stroke-width="2" /><polyline fill="none" points="25.2517,23.5102 32.2177,19.1565 33.0884,26.5578" stroke="#0000d5" stroke-width="2" /><polyline fill="none" points="24.8163,24.381 19.1565,24.8163 17.415,26.5578" stroke="#001cff" stroke-width="2" /><polyline fill="none" points="10.8844,26.5578 8.7075,31.3469 10.0136,38.3129 11.3197,39.619 17.415,41.3605 24.381,41.3605 29.1701,39.619 33.5238,34.3946 34.3946,27.8639" stroke="#006cff" stroke-width="2" /><polyline fill="none" points="33.9592,34.3946 40.9252,35.2653 49.1973,39.619 76.1905,39.619 78.8027,40.4898 83.1565,46.1497 84.4626,51.3741 85.7687,65.3061 84.898,79.6735 82.7211,80.5442 80.9796,79.2381 78.3673,67.0476 75.3197,62.2585 71.8367,64.0 68.7891,68.3537 64.8707,82.2857 62.6939,64.0 61.3878,61.3878 58.3401,60.0816 49.1973,60.0816 45.7143,61.3878 41.3605,65.7415 34.8299,77.4966 33.9592,60.9524 32.2177,60.517 25.2517,75.7551 23.5102,77.0612 20.4626,76.6259 20.0272,64.0 22.6395,55.2925 23.0748,43.102" stroke="#00b8ff" stroke-width="2" /><polyline fill="none" points="84.4626,42.6667 103.1837,33.9592 104.9252,30.9116 105.3605,17.415 107.5374,14.3673 118.4218,8.7075 119.2925,13.0612 111.8912,23.0748 107.5374,33.9592 99.7007,40.4898 81.8503,49.1973" stroke="#1cffda" stroke-width="2" /><polyline fill="none" points="15.2381,29.6054 15.6735,29.6054" stroke="#5cff9a" stroke-width="2" /><polyline fill="none" points="21.7687,29.6054 22.6395,29.6054" stroke="#9aff5c" stroke-width="2" /><polyline fill="none" points="17.415,33.9592 18.2857,33.0884" stroke="#daff1c" stroke-width="2" /><polyline fill="none" points="15.6735,33.0884 13.0612,39.619" stroke="#ffcb00" stroke-width="2" /><polyline fill="none" points="19.5918,33.0884 24.8163,35.2653" stroke="#ff8500" stroke-width="2" /><polyline fill="none" points="19.5918,34.3946 23.9456,35.7007" stroke="#ff3b00" stroke-width="2" /><polyline fill="none" points="18.2857,35.2653 18.2857,37.0068 16.1088,36.1361" stroke="#d50000" stroke-width="2" /><polyline fill="none" points="16.9796,35.2653 18.7211,37.0068 20.4626,35.2653" stroke="#7f0000" stroke-width="2" /></svg>