<?xml version="1.0" encoding="utf-8" ?>
<svg baseProfile="tiny" height="128" version="1.2" viewBox="0,0,128,128" width="128" xmlns="http://www.w3.org/2000/svg" xmlns:ev="http://www.w3.org/2001/xml-events" xmlns:xlink="http://www.w3.org/1999/xlink"><defs /><polyline fill="none" points="61.6136,42.9559 59.0102,45.9932 58.5763,49.4644 63.3492,51.6339 68.9898,50.7661 70.2915,45.5593 68.122,42.9559 69.8576,39.0508 65.9525,42.522 60.7458,39.0508 61.1797,42.9559" stroke="#00007f" stroke-width="2" /><polyline fill="none" points="62.0475,45.1254 62.0475,45.1254" stroke="#0010ff" stroke-width="2" /><polyline fill="none" points="62.0475,44.2576 61.1797,44.6915" stroke="#00a4ff" stroke-width="2" /><polyline fill="none" points="66.8203,44.2576 67.2542,44.6915" stroke="#3fffb7" stroke-width="2" /><polyline fill="none" points="64.2169,45.9932 64.2169,48.1627" stroke="#b7ff3f" stroke-width="2" /><polyline fill="none" points="64.2169,46.4271 64.2169,46.4271" stroke="#ffb900" stroke-width="2" /><polyline fill="none" points="64.2169,46.4271 66.8203,46.4271" stroke="#ff3000" stroke-width="2" /><polyline fill="none" points="119.322,39.0508 112.8136,34.7119 106.739,27.3356 104.1356,22.1288 101.5322,11.2814 95.8915,14.3186 80.7051,14.3186 21.261,8.678 16.4881,19.5254 8.678,28.2034 9.1119,38.6169 26.0339,37.7492 36.4475,35.5797 77.2339,24.7322 81.5729,24.7322 82.8746,29.0712 85.0441,29.0712 65.0847,49.4644 58.5763,52.9356 82.4407,38.1831 101.5322,31.2407 87.2136,39.9186 51.6339,55.9729 42.0881,57.2746 40.3525,56.4068 41.2203,53.8034 49.4644,50.7661 75.0644,47.7288 100.6644,42.9559 96.3254,52.9356 87.2136,63.7831 68.5559,66.8203 56.4068,65.9525 54.2373,62.4814 55.1051,56.8407 58.5763,50.7661 60.7458,50.7661 69.8576,57.2746 70.7254,60.7458 68.5559,62.4814" stroke="#7f0000" stroke-width="2" /></svg>