<?xml version="1.0" encoding="utf-8" ?>
<svg baseProfile="tiny" height="128" version="1.2" viewBox="0,0,128,128" width="128" xmlns="http://www.w3.org/2000/svg" xmlns:ev="http://www.w3.org/2001/xml-events" xmlns:xlink="http://www.w3.org/1999/xlink"><defs /><polyline fill="none" points="22.5627,13.8847 19.9593,31.2407 20.3932,20.3932 22.9966,8.678 26.9017,27.3356 27.3356,28.6373 28.2034,28.2034" stroke="#00007f" stroke-width="2" /><polyline fill="none" points="38.1831,29.939 43.8237,13.8847 45.1254,15.1864 48.5966,32.1085" stroke="#0000fe" stroke-width="2" /><polyline fill="none" points="48.5966,32.1085 15.1864,33.4102 12.5831,39.4847 12.5831,50.7661 16.0542,56.8407 22.1288,59.4441 27.7695,59.4441 31.2407,57.7085 47.2949,43.3898 49.0305,40.3525 45.9932,33.4102" stroke="#0060ff" stroke-width="2" /><polyline fill="none" points="24.2983,39.0508 24.2983,39.0508" stroke="#00d4ff" stroke-width="2" /><polyline fill="none" points="38.6169,38.6169 37.3153,42.522" stroke="#4cffaa" stroke-width="2" /><polyline fill="none" points="21.6949,39.0508 21.6949,47.7288" stroke="#aaff4c" stroke-width="2" /><polyline fill="none" points="19.5254,53.8034 28.6373,50.3322 31.2407,47.2949" stroke="#ffe500" stroke-width="2" /><polyline fill="none" points="26.0339,59.4441 26.4678,62.4814 31.2407,63.7831 72.8949,62.4814 70.2915,90.2508" stroke="#ff7a00" stroke-width="2" /><polyline fill="none" points="29.939,63.7831 8.678,93.2881" stroke="#fe1200" stroke-width="2" /><polyline fill="none" points="68.5559,62.0475 83.7424,60.7458 98.9288,57.7085 119.322,57.7085" stroke="#7f0000" stroke-width="2" /></svg>