<?xml version="1.0" encoding="utf-8" ?>
<svg baseProfile="tiny" height="128" version="1.2" viewBox="0,0,128,128" width="128" xmlns="http://www.w3.org/2000/svg" xmlns:ev="http://www.w3.org/2001/xml-events" xmlns:xlink="http://www.w3.org/1999/xlink"><defs /><polyline fill="none" points="24.7322,89.8169 40.3525,95.4576 48.5966,96.3254 81.5729,96.3254 92.4203,94.5898 98.4949,91.5525 105.8712,85.9119 112.8136,75.4983 117.1525,63.7831 118.4542,37.3153 111.078,20.8271 106.739,16.922 98.9288,13.0169 96.7593,15.6203 96.7593,24.2983 94.1559,34.7119 47.7288,34.278 45.5593,31.6746 44.2576,12.1492 40.3525,8.678 35.5797,8.678 28.6373,12.5831 23.4305,22.1288 21.6949,30.3729 21.261,71.5932 32.5424,88.0814" stroke="#00007f" stroke-width="2" /><polyline fill="none" points="72.0271,66.8203 72.8949,64.6508 71.5932,62.4814 69.4237,62.0475 68.9898,64.2169 69.8576,62.0475 70.2915,63.3492" stroke="#0000f1" stroke-width="2" /><polyline fill="none" points="70.2915,62.9153 67.6881,63.3492" stroke="#004cff" stroke-width="2" /><polyline fill="none" points="92.8542,62.4814 112.3797,55.539" stroke="#00b0ff" stroke-width="2" /><polyline fill="none" points="95.4576,71.5932 109.3424,71.5932 119.322,75.0644" stroke="#29ffcd" stroke-width="2" /><polyline fill="none" points="95.4576,80.2712 108.9085,83.7424 118.4542,89.3831" stroke="#7cff79" stroke-width="2" /><polyline fill="none" points="49.8983,75.0644 36.8814,76.8 31.2407,80.7051" stroke="#cdff29" stroke-width="2" /><polyline fill="none" points="43.8237,65.9525 24.7322,65.9525" stroke="#ffc400" stroke-width="2" /><polyline fill="none" points="46.861,57.7085 44.2576,57.7085 8.678,36.8814" stroke="#ff6700" stroke-width="2" /><polyline fill="none" points="55.1051,49.8983 57.2746,50.7661 57.2746,48.1627" stroke="#f10700" stroke-width="2" /><polyline fill="none" points="56.4068,47.2949 56.4068,47.2949" stroke="#7f0000" stroke-width="2" /></svg>