<?xml version="1.0" encoding="utf-8" ?>
<svg baseProfile="tiny" height="128" version="1.2" viewBox="0,0,128,128" width="128" xmlns="http://www.w3.org/2000/svg" xmlns:ev="http://www.w3.org/2001/xml-events" xmlns:xlink="http://www.w3.org/1999/xlink"><defs /><polyline fill="none" points="31.6746,31.6746 24.2983,41.2203 21.261,47.7288 19.9593,65.0847 25.1661,78.9695 32.1085,87.6475 43.3898,97.1932 51.6339,100.6644 58.5763,101.5322 73.7627,101.5322 83.7424,97.1932 89.8169,93.2881 93.2881,90.2508 98.061,81.139 99.7966,72.461 99.7966,61.6136 97.6271,55.539 89.3831,42.522 73.7627,30.3729 61.6136,25.1661 42.9559,27.3356 29.939,32.5424 29.0712,14.3186 30.3729,8.678 42.0881,16.4881 53.3695,28.2034 67.2542,32.1085 81.5729,32.5424 89.3831,23.8644 91.5525,18.2237 95.4576,48.1627" stroke="#00007f" stroke-width="2" /><polyline fill="none" points="88.5153,64.2169 94.5898,66.3864 118.8881,65.9525" stroke="#0028ff" stroke-width="2" /><polyline fill="none" points="91.1186,72.0271 92.4203,74.1966 101.5322,78.5356 119.322,82.4407" stroke="#00d4ff" stroke-width="2" /><polyline fill="none" points="90.2508,85.0441 91.5525,91.1186 97.1932,100.6644" stroke="#7cff79" stroke-width="2" /><polyline fill="none" points="34.278,76.8 18.2237,76.8 8.678,80.7051" stroke="#ffe500" stroke-width="2" /><polyline fill="none" points="36.8814,80.7051 35.1458,81.139 19.9593,95.4576" stroke="#ff4600" stroke-width="2" /><polyline fill="none" points="44.2576,85.478 27.7695,106.739" stroke="#7f0000" stroke-width="2" /></svg>