<?xml version="1.0" encoding="utf-8" ?>
<svg baseProfile="tiny" height="128" version="1.2" viewBox="0,0,128,128" width="128" xmlns="http://www.w3.org/2000/svg" xmlns:ev="http://www.w3.org/2001/xml-events" xmlns:xlink="http://www.w3.org/1999/xlink"><defs /><polyline fill="none" points="52.9356,45.5593 48.5966,44.2576 35.1458,43.8237 22.9966,52.0678 18.6576,58.1424 16.0542,63.7831 16.0542,73.3288 21.261,82.4407 31.2407,91.1186 41.2203,95.8915 48.5966,98.061 67.2542,99.3627 82.0068,97.6271 88.5153,94.1559 97.6271,86.7797 101.5322,77.2339 101.5322,67.2542 99.3627,57.7085 91.1186,44.2576 73.3288,40.7864 51.2,40.3525 44.6915,42.522" stroke="#00007f" stroke-width="2" /><polyline fill="none" points="30.3729,45.1254 24.2983,31.6746 9.5458,11.7153 8.678,54.6712 11.2814,62.0475 19.0915,71.5932" stroke="#0010ff" stroke-width="2" /><polyline fill="none" points="94.1559,43.8237 114.5492,8.678 116.7186,8.678 118.8881,13.0169 119.322,31.2407 116.7186,56.4068 111.078,67.2542 107.6068,71.1593 100.6644,73.7627" stroke="#00a4ff" stroke-width="2" /><polyline fill="none" points="70.7254,72.8949 66.8203,70.7254 59.878,68.9898 49.8983,74.6305 48.1627,78.9695 48.5966,82.4407 55.1051,86.7797 72.0271,88.0814 76.8,87.6475 78.9695,85.9119 78.9695,77.6678 76.3661,72.461 73.7627,71.1593 62.4814,71.1593" stroke="#3fffb7" stroke-width="2" /><polyline fill="none" points="69.4237,77.6678 79.8373,72.8949 93.722,62.9153" stroke="#b7ff3f" stroke-width="2" /><polyline fill="none" points="81.5729,76.8 75.9322,78.9695 89.3831,78.5356 94.1559,76.8" stroke="#ffb900" stroke-width="2" /><polyline fill="none" points="77.2339,81.139 88.9492,82.8746" stroke="#ff3000" stroke-width="2" /><polyline fill="none" points="53.8034,76.3661 36.0136,72.8949" stroke="#7f0000" stroke-width="2" /></svg>