<?xml version="1.0" encoding="utf-8" ?>
<svg baseProfile="tiny" height="128" version="1.2" viewBox="0,0,128,128" width="128" xmlns="http://www.w3.org/2000/svg" xmlns:ev="http://www.w3.org/2001/xml-events" xmlns:xlink="http://www.w3.org/1999/xlink"><defs /><polyline fill="none" points="38.6169,22.9966 37.7492,18.2237 38.6169,9.5458 40.7864,8.678 43.8237,9.5458 49.8983,16.4881" stroke="#00007f" stroke-width="2" /><polyline fill="none" points="81.139,17.7898 88.0814,10.8475 92.8542,10.4136 93.722,21.261" stroke="#0000e8" stroke-width="2" /><polyline fill="none" points="65.5186,19.0915 62.9153,18.2237 48.1627,18.2237 43.8237,20.3932 31.6746,34.278 29.939,39.9186 29.939,48.5966 38.6169,59.4441 43.3898,62.4814 54.6712,65.5186 72.0271,66.3864 84.1763,60.7458 92.4203,54.2373 95.4576,49.0305 96.3254,34.278 92.4203,26.4678 85.478,21.6949 76.3661,19.0915 62.4814,19.5254" stroke="#0038ff" stroke-width="2" /><polyline fill="none" points="48.1627,40.3525 27.7695,39.9186 25.1661,40.3525 24.2983,42.9559" stroke="#0094ff" stroke-width="2" /><polyline fill="none" points="45.1254,49.0305 14.7525,48.5966 9.5458,51.2 8.678,52.5017" stroke="#0cf4ea" stroke-width="2" /><polyline fill="none" points="47.2949,52.9356 39.4847,52.9356 29.5051,56.8407 23.8644,60.3119 22.5627,64.2169" stroke="#56ffa0" stroke-width="2" /><polyline fill="none" points="84.6102,40.7864 91.5525,37.7492 111.5119,35.1458" stroke="#a0ff56" stroke-width="2" /><polyline fill="none" points="83.7424,49.8983 119.322,49.4644" stroke="#eaff0c" stroke-width="2" /><polyline fill="none" points="80.7051,52.5017 91.9864,54.2373 115.4169,62.9153" stroke="#ffaa00" stroke-width="2" /><polyline fill="none" points="61.1797,42.0881 58.5763,44.2576 59.0102,46.861 64.6508,49.4644 66.8203,49.0305 66.8203,47.2949 62.4814,45.5593" stroke="#ff5500" stroke-width="2" /><polyline fill="none" points="59.878,51.2 59.878,59.878 53.3695,61.1797 51.6339,59.878 51.2,57.2746" stroke="#e80000" stroke-width="2" /><polyline fill="none" points="60.7458,52.9356 66.3864,59.878 71.1593,59.0102" stroke="#7f0000" stroke-width="2" /></svg>