<?xml version="1.0" encoding="utf-8" ?>
<svg baseProfile="tiny" height="128" version="1.2" viewBox="0,0,128,128" width="128" xmlns="http://www.w3.org/2000/svg" xmlns:ev="http://www.w3.org/2001/xml-events" xmlns:xlink="http://www.w3.org/1999/xlink"><defs /><polyline fill="none" points="32.6531,47.4558 35.2653,38.7483 37.4422,35.2653 39.1837,37.0068 37.8776,45.2789 35.7007,47.8912 33.9592,47.8912" stroke="#00007f" stroke-width="2" /><polyline fill="none" points="56.1633,46.585 58.3401,39.619 60.9524,37.0068 64.0,38.3129 65.3061,45.2789 64.0,46.585 59.2109,46.1497" stroke="#0000e8" stroke-width="2" /><polyline fill="none" points="60.517,47.0204 57.9048,47.4558" stroke="#0038ff" stroke-width="2" /><polyline fill="none" points="29.6054,34.3946 70.0952,39.1837 78.3673,32.6531 77.932,30.9116 68.7891,26.9932 30.9116,26.9932 25.6871,28.7347 26.5578,31.7823" stroke="#0094ff" stroke-width="2" /><polyline fill="none" points="71.8367,32.6531 84.898,30.4762 119.2925,18.2857 119.2925,16.5442 111.4558,11.3197 93.1701,13.4966 83.5918,27.8639 80.1088,30.0408" stroke="#0cf4ea" stroke-width="2" /><polyline fill="none" points="24.8163,27.8639 19.5918,20.898" stroke="#56ffa0" stroke-width="2" /><polyline fill="none" points="28.7347,26.5578 24.8163,19.5918" stroke="#a0ff56" stroke-width="2" /><polyline fill="none" points="26.1224,18.2857 23.5102,21.3333 17.8503,22.6395 11.7551,19.1565 8.7075,13.932 9.1429,12.6259 14.3673,10.0136 22.6395,10.0136 26.1224,14.3673 26.5578,20.898" stroke="#eaff0c" stroke-width="2" /><polyline fill="none" points="26.5578,12.1905 29.6054,10.0136 27.4286,14.8027" stroke="#ffaa00" stroke-width="2" /><polyline fill="none" points="22.2041,11.7551 26.5578,8.7075 24.8163,11.3197" stroke="#ff5500" stroke-width="2" /><polyline fill="none" points="10.8844,16.1088 9.5782,16.5442 10.449,15.6735" stroke="#e80000" stroke-width="2" /><polyline fill="none" points="14.8027,13.932 14.8027,13.932" stroke="#7f0000" stroke-width="2" /></svg>