<?xml version="1.0" encoding="utf-8" ?>
<svg baseProfile="tiny" height="128" version="1.2" viewBox="0,0,128,128" width="128" xmlns="http://www.w3.org/2000/svg" xmlns:ev="http://www.w3.org/2001/xml-events" xmlns:xlink="http://www.w3.org/1999/xlink"><defs /><polyline fill="none" points="37.7492,33.8441 30.3729,26.9017 22.5627,28.2034 18.6576,36.0136 18.6576,45.5593 26.4678,50.7661 39.9186,52.5017 42.0881,52.5017 44.2576,47.7288 44.2576,36.8814 28.2034,33.8441" stroke="#00007f" stroke-width="2" /><polyline fill="none" points="54.2373,57.7085 51.2,55.539 29.5051,55.539 21.6949,59.0102 15.1864,64.2169 13.0169,67.2542 10.8475,75.0644 10.8475,87.2136 14.7525,93.2881 24.7322,101.5322 37.7492,105.4373 64.6508,106.3051 72.8949,101.0983 75.4983,91.5525 75.4983,74.6305 74.1966,70.7254 72.0271,67.2542 61.6136,58.5763 52.5017,55.539" stroke="#0000fe" stroke-width="2" /><polyline fill="none" points="8.678,31.6746 11.2814,22.5627 12.1492,13.8847 15.1864,20.8271" stroke="#0060ff" stroke-width="2" /><polyline fill="none" points="32.5424,28.2034 36.8814,22.5627 41.2203,8.678 43.8237,9.9797 44.2576,13.0169 43.8237,28.2034" stroke="#00d4ff" stroke-width="2" /><polyline fill="none" points="77.2339,95.4576 95.8915,95.4576 93.722,111.078 97.1932,112.8136 108.9085,113.2475 118.0203,111.078" stroke="#4cffaa" stroke-width="2" /><polyline fill="none" points="30.8068,67.2542 28.6373,71.5932" stroke="#aaff4c" stroke-width="2" /><polyline fill="none" points="56.4068,67.2542 54.6712,71.5932 54.6712,81.139" stroke="#ffe500" stroke-width="2" /><polyline fill="none" points="30.8068,96.3254 30.3729,100.2305 26.0339,105.8712" stroke="#ff7a00" stroke-width="2" /><polyline fill="none" points="55.539,98.061 56.4068,119.322" stroke="#fe1200" stroke-width="2" /><polyline fill="none" points="36.4475,36.4475 45.5593,32.1085 69.4237,23.8644" stroke="#7f0000" stroke-width="2" /></svg>