<?xml version="1.0" encoding="utf-8" ?>
<svg baseProfile="tiny" height="128" version="1.2" viewBox="0,0,128,128" width="128" xmlns="http://www.w3.org/2000/svg" xmlns:ev="http://www.w3.org/2001/xml-events" xmlns:xlink="http://www.w3.org/1999/xlink"><defs /><polyline fill="none" points="9.1429,48.7619 8.7075,27.4286 10.0136,24.381 15.2381,19.1565 18.2857,26.5578 19.5918,27.4286 28.7347,25.6871 37.0068,25.6871 43.102,15.6735 44.8435,15.6735 48.7619,23.9456 50.068,35.7007 48.7619,40.9252 43.102,47.8912 39.619,50.068 30.9116,52.2449 19.1565,49.1973 10.449,33.9592" stroke="#00007f" stroke-width="2" /><polyline fill="none" points="22.2041,39.619 24.381,44.4082 26.1224,43.9728 26.9932,39.619 30.0408,43.9728 33.9592,43.5374" stroke="#0000fe" stroke-width="2" /><polyline fill="none" points="27.4286,38.7483 27.4286,38.7483" stroke="#0060ff" stroke-width="2" /><polyline fill="none" points="36.1361,35.7007 38.7483,30.9116 40.9252,31.3469 43.5374,36.1361 40.4898,38.7483" stroke="#00d4ff" stroke-width="2" /><polyline fill="none" points="35.7007,38.3129 39.1837,39.1837" stroke="#4cffaa" stroke-width="2" /><polyline fill="none" points="23.9456,37.8776 23.0748,34.3946 17.415,34.3946 14.8027,37.8776 19.5918,40.0544 22.2041,39.1837" stroke="#aaff4c" stroke-width="2" /><polyline fill="none" points="41.7959,47.0204 49.1973,47.0204 57.034,44.4082 71.8367,37.0068 80.5442,34.8299 91.8639,35.2653" stroke="#ffe500" stroke-width="2" /><polyline fill="none" points="90.1224,35.7007 99.2653,28.7347 105.7959,21.7687 109.2789,13.932 116.2449,8.7075 117.551,8.7075 118.8571,14.8027 119.2925,29.1701 114.068,36.1361 100.5714,45.2789 100.1361,51.3741 103.619,69.6599 102.7483,72.7075 99.2653,76.6259 96.6531,77.0612 97.5238,65.7415 89.6871,55.7279 88.8163,73.5782 85.3333,77.0612 83.1565,77.0612 83.5918,61.8231 82.2857,57.034" stroke="#ff7a00" stroke-width="2" /><polyline fill="none" points="92.2993,52.6803 87.5102,57.034 73.1429,64.0 52.2449,70.5306 43.5374,71.4014" stroke="#fe1200" stroke-width="2" /><polyline fill="none" points="28.7347,53.1156 30.0408,66.6122 33.5238,79.6735 32.6531,92.7347 37.8776,90.5578 38.7483,75.7551 41.3605,72.7075 43.9728,74.0136 43.9728,87.9456 45.7143,89.6871 50.068,89.2517 52.6803,79.6735 53.9864,68.3537" stroke="#7f0000" stroke-width="2" /></svg>