<?xml version="1.0" encoding="utf-8" ?>
<svg baseProfile="tiny" height="128" version="1.2" viewBox="0,0,128,128" width="128" xmlns="http://www.w3.org/2000/svg" xmlns:ev="http://www.w3.org/2001/xml-events" xmlns:xlink="http://www.w3.org/1999/xlink"><defs /><polyline fill="none" points="25.6,95.0237 17.3559,88.9492 13.0169,82.0068 13.0169,65.0847 14.7525,59.878 22.1288,48.5966 36.4475,36.8814 50.3322,30.3729 60.7458,28.2034 70.7254,29.0712 76.3661,31.2407 88.9492,39.0508 93.2881,44.2576 97.6271,50.7661 104.5695,67.6881 107.1729,88.0814 105.0034,97.1932 94.5898,106.739 83.3085,112.3797 73.3288,114.5492 63.7831,114.5492 43.8237,106.3051 33.4102,98.9288 26.9017,88.0814 25.6,81.5729 26.0339,75.0644" stroke="#00007f" stroke-width="2" /><polyline fill="none" points="82.0068,33.4102 88.0814,23.4305 95.4576,18.2237 104.1356,12.5831 113.6814,8.678 116.7186,9.5458 119.322,16.922 119.322,21.261 117.5864,38.1831 113.6814,52.0678" stroke="#0080ff" stroke-width="2" /><polyline fill="none" points="41.6542,31.6746 28.6373,25.1661 13.8847,23.4305 8.678,24.2983 10.4136,32.9763 15.6203,46.4271 18.6576,51.2" stroke="#7cff79" stroke-width="2" /><polyline fill="none" points="56.4068,77.2339 67.2542,78.1017" stroke="#ff9400" stroke-width="2" /><polyline fill="none" points="61.1797,84.1763 57.2746,88.0814 48.5966,87.6475" stroke="#7f0000" stroke-width="2" /></svg>