<?xml version="1.0" encoding="utf-8" ?>
<svg baseProfile="tiny" height="128" version="1.2" viewBox="0,0,128,128" width="128" xmlns="http://www.w3.org/2000/svg" xmlns:ev="http://www.w3.org/2001/xml-events" xmlns:xlink="http://www.w3.org/1999/xlink"><defs /><polyline fill="none" points="86.7797,46.4271 68.9898,41.2203 55.1051,40.3525 43.8237,42.9559 32.9763,47.7288 21.6949,55.539 13.8847,65.9525 10.4136,76.8 9.1119,86.7797 11.7153,98.061 18.2237,106.739 23.4305,111.078 36.0136,116.7186 55.1051,119.322 66.8203,119.322 85.0441,113.6814 91.9864,109.3424 98.9288,100.6644 105.0034,87.6475 107.1729,76.3661 105.8712,68.5559 103.2678,64.2169 97.6271,56.8407 86.7797,48.1627" stroke="#00007f" stroke-width="2" /><polyline fill="none" points="76.8,46.4271 77.6678,41.2203 82.4407,33.4102 91.9864,21.261 105.0034,8.678 109.3424,52.9356 109.3424,59.878 107.6068,62.9153" stroke="#004cff" stroke-width="2" /><polyline fill="none" points="43.3898,49.4644 39.4847,48.5966 32.5424,41.2203 18.6576,18.6576 12.5831,12.5831 11.2814,16.0542 10.8475,33.4102 8.678,50.7661 8.678,69.4237" stroke="#29ffcd" stroke-width="2" /><polyline fill="none" points="63.3492,88.5153 60.7458,85.9119 58.1424,88.5153 62.4814,88.9492 65.5186,86.3458 62.0475,84.1763 61.6136,85.9119" stroke="#cdff29" stroke-width="2" /><polyline fill="none" points="64.6508,92.4203 63.7831,100.6644 65.0847,103.7017 68.122,103.7017 81.5729,97.6271 85.478,93.722 88.0814,88.5153" stroke="#ff6700" stroke-width="2" /><polyline fill="none" points="64.2169,88.9492 63.3492,101.0983 61.6136,105.0034 57.7085,108.0407 50.7661,108.4746 45.1254,107.1729 30.3729,101.0983" stroke="#7f0000" stroke-width="2" /></svg>