<?xml version="1.0" encoding="utf-8" ?>
<svg baseProfile="tiny" height="128" version="1.2" viewBox="0,0,128,128" width="128" xmlns="http://www.w3.org/2000/svg" xmlns:ev="http://www.w3.org/2001/xml-events" xmlns:xlink="http://www.w3.org/1999/xlink"><defs /><polyline fill="none" points="99.3627,37.7492 59.4441,26.9017 39.4847,30.3729 22.5627,39.4847 10.4136,57.7085 8.678,62.4814 8.678,79.4034 16.4881,88.5153 20.8271,91.5525 29.939,94.5898 39.4847,96.3254 50.3322,96.3254 83.7424,84.1763 96.3254,77.6678 114.9831,62.4814 119.322,52.9356 110.2102,47.2949 99.3627,42.522" stroke="#00007f" stroke-width="2" /><polyline fill="none" points="26.9017,37.7492 27.3356,20.8271 31.6746,11.7153 36.0136,8.678 39.4847,13.0169 40.7864,22.5627 43.8237,26.9017 45.5593,26.9017" stroke="#0028ff" stroke-width="2" /><polyline fill="none" points="84.1763,26.9017 98.061,19.5254 107.1729,18.2237 110.2102,22.5627 110.2102,27.3356 108.4746,31.6746 102.4,41.2203 100.6644,47.2949" stroke="#00d4ff" stroke-width="2" /><polyline fill="none" points="39.4847,56.4068 39.4847,56.4068" stroke="#7cff79" stroke-width="2" /><polyline fill="none" points="36.4475,54.6712 31.6746,55.1051 28.6373,59.4441 33.4102,60.7458 37.7492,59.4441 39.4847,54.6712 37.7492,54.6712" stroke="#ffe500" stroke-width="2" /><polyline fill="none" points="68.5559,54.6712 63.7831,56.4068 60.7458,60.7458 61.1797,65.5186 65.5186,65.5186 68.5559,60.7458 70.2915,56.4068 67.2542,54.6712" stroke="#ff4600" stroke-width="2" /><polyline fill="none" points="40.7864,68.5559 46.861,77.6678 45.5593,68.5559" stroke="#7f0000" stroke-width="2" /></svg>