<?xml version="1.0" encoding="utf-8" ?>
<svg baseProfile="tiny" height="128" version="1.2" viewBox="0,0,128,128" width="128" xmlns="http://www.w3.org/2000/svg" xmlns:ev="http://www.w3.org/2001/xml-events" xmlns:xlink="http://www.w3.org/1999/xlink"><defs /><polyline fill="none" points="36.0136,27.7695 32.9763,14.7525 29.939,9.5458 22.5627,21.6949 17.7898,33.8441" stroke="#00007f" stroke-width="2" /><polyline fill="none" points="36.0136,27.7695 39.0508,21.6949 46.4271,19.0915 57.7085,19.0915 60.7458,26.4678 63.3492,13.4508 65.9525,8.678 67.6881,8.678 73.7627,30.3729 72.461,46.861 75.0644,66.3864 71.5932,72.8949 67.2542,75.0644 42.0881,75.9322 31.6746,72.8949 24.2983,67.6881 18.2237,58.5763 15.1864,49.4644 16.0542,42.522 23.4305,30.8068" stroke="#0000d5" stroke-width="2" /><polyline fill="none" points="35.5797,36.0136 35.5797,42.9559 36.8814,44.2576" stroke="#001cff" stroke-width="2" /><polyline fill="none" points="46.4271,36.0136 52.0678,47.2949" stroke="#006cff" stroke-width="2" /><polyline fill="none" points="32.5424,57.2746 33.8441,62.9153 38.6169,70.2915 42.9559,72.0271 54.2373,72.8949 59.0102,70.7254 60.7458,67.6881 61.6136,55.539" stroke="#00b8ff" stroke-width="2" /><polyline fill="none" points="46.4271,69.8576 46.861,62.0475 43.8237,52.0678" stroke="#1cffda" stroke-width="2" /><polyline fill="none" points="32.5424,64.2169 12.5831,63.3492" stroke="#5cff9a" stroke-width="2" /><polyline fill="none" points="43.8237,68.9898 21.261,73.7627" stroke="#9aff5c" stroke-width="2" /><polyline fill="none" points="31.2407,59.878 22.9966,56.8407 8.678,54.6712" stroke="#daff1c" stroke-width="2" /><polyline fill="none" points="65.5186,62.4814 71.5932,57.7085 81.5729,53.3695" stroke="#ffcb00" stroke-width="2" /><polyline fill="none" points="62.0475,65.9525 64.6508,67.2542 91.1186,70.7254 91.5525,71.5932 89.8169,72.0271" stroke="#ff8500" stroke-width="2" /><polyline fill="none" points="61.6136,70.2915 78.9695,85.9119 88.5153,92.4203 95.4576,95.4576" stroke="#ff3b00" stroke-width="2" /><polyline fill="none" points="93.722,24.7322 88.5153,28.2034 82.0068,38.6169 79.8373,46.4271 80.2712,57.2746 88.5153,62.4814 107.1729,65.5186 115.4169,64.6508 119.322,60.7458 119.322,57.2746" stroke="#d50000" stroke-width="2" /><polyline fill="none" points="117.1525,36.8814 116.2847,36.4475" stroke="#7f0000" stroke-width="2" /></svg>