<?xml version="1.0" encoding="utf-8" ?>
<svg baseProfile="tiny" height="128" version="1.2" viewBox="0,0,128,128" width="128" xmlns="http://www.w3.org/2000/svg" xmlns:ev="http://www.w3.org/2001/xml-events" xmlns:xlink="http://www.w3.org/1999/xlink"><defs /><polyline fill="none" points="53.3695,28.6373 48.5966,29.0712 42.522,33.8441 36.4475,43.8237 34.278,52.9356 36.8814,59.4441 41.6542,65.0847 51.2,73.3288 61.1797,78.9695 72.8949,78.5356 88.0814,72.0271 98.061,60.3119 101.5322,52.9356 101.5322,45.9932 96.3254,37.7492 75.9322,26.4678 62.9153,24.2983 53.3695,24.2983 47.7288,26.4678" stroke="#00007f" stroke-width="2" /><polyline fill="none" points="43.8237,47.7288 39.4847,49.0305 22.9966,47.7288 15.1864,49.8983 9.5458,53.3695" stroke="#0000ff" stroke-width="2" /><polyline fill="none" points="45.5593,55.9729 39.9186,58.1424 17.3559,57.2746 8.678,61.1797" stroke="#0080ff" stroke-width="2" /><polyline fill="none" points="51.6339,62.0475 35.1458,65.9525 20.8271,72.8949" stroke="#15ffe1" stroke-width="2" /><polyline fill="none" points="52.0678,24.7322 34.278,16.0542 36.4475,26.0339 39.0508,31.6746" stroke="#7cff79" stroke-width="2" /><polyline fill="none" points="81.139,25.6 105.8712,8.678 98.061,35.1458" stroke="#e4ff12" stroke-width="2" /><polyline fill="none" points="89.8169,47.2949 109.3424,48.1627 117.5864,51.2" stroke="#ff9400" stroke-width="2" /><polyline fill="none" points="87.2136,55.539 107.1729,55.539 119.322,58.5763" stroke="#ff1d00" stroke-width="2" /><polyline fill="none" points="93.2881,64.6508 108.9085,66.3864" stroke="#7f0000" stroke-width="2" /></svg>