<?xml version="1.0" encoding="utf-8" ?>
<svg baseProfile="tiny" height="128" version="1.2" viewBox="0,0,128,128" width="128" xmlns="http://www.w3.org/2000/svg" xmlns:ev="http://www.w3.org/2001/xml-events" xmlns:xlink="http://www.w3.org/1999/xlink"><defs /><polyline fill="none" points="39.4847,23.4305 45.5593,8.678 53.3695,18.6576" stroke="#00007f" stroke-width="2" /><polyline fill="none" points="55.1051,21.6949 62.0475,18.2237 69.4237,17.7898 83.7424,22.5627" stroke="#0000ff" stroke-width="2" /><polyline fill="none" points="86.7797,25.1661 96.7593,11.7153 98.4949,13.0169 101.0983,21.261" stroke="#0080ff" stroke-width="2" /><polyline fill="none" points="43.8237,26.4678 36.4475,29.5051 30.8068,36.8814 28.2034,45.5593 29.5051,53.3695 42.0881,65.9525 48.1627,68.9898 59.4441,71.1593 68.9898,71.1593 81.5729,69.4237 84.6102,68.5559 93.722,61.1797 99.7966,51.6339 101.5322,45.5593 100.6644,36.8814 96.3254,29.939" stroke="#15ffe1" stroke-width="2" /><polyline fill="none" points="43.8237,41.2203 21.6949,42.0881 8.678,46.4271" stroke="#7cff79" stroke-width="2" /><polyline fill="none" points="39.9186,48.5966 26.9017,50.3322 15.1864,54.6712" stroke="#e4ff12" stroke-width="2" /><polyline fill="none" points="43.3898,59.0102 22.5627,62.9153 11.7153,69.4237" stroke="#ff9400" stroke-width="2" /><polyline fill="none" points="94.1559,45.1254 104.5695,45.9932 119.322,49.0305" stroke="#ff1d00" stroke-width="2" /><polyline fill="none" points="89.3831,57.2746 91.1186,57.2746" stroke="#7f0000" stroke-width="2" /></svg>