<?xml version="1.0" encoding="utf-8" ?>
<svg baseProfile="tiny" height="128" version="1.2" viewBox="0,0,128,128" width="128" xmlns="http://www.w3.org/2000/svg" xmlns:ev="http://www.w3.org/2001/xml-events" xmlns:xlink="http://www.w3.org/1999/xlink"><defs /><polyline fill="none" points="72.461,39.9186 63.7831,35.1458 52.0678,35.1458 39.4847,39.0508 26.0339,47.2949 19.5254,55.539 16.4881,65.9525 16.4881,82.8746 20.8271,90.2508 35.5797,101.9661 45.5593,105.8712 55.1051,107.6068 74.1966,107.6068 82.8746,105.4373 93.2881,99.7966 96.7593,96.3254 101.5322,90.2508 105.0034,78.9695 104.5695,63.3492 94.1559,49.4644 85.478,41.6542 78.1017,37.7492 68.9898,35.5797" stroke="#00007f" stroke-width="2" /><polyline fill="none" points="73.7627,36.0136 84.6102,15.6203 89.3831,9.5458 92.4203,8.678 93.2881,45.5593" stroke="#0000f1" stroke-width="2" /><polyline fill="none" points="28.6373,44.2576 28.6373,22.5627 30.3729,17.3559 32.5424,16.922 35.5797,18.2237 42.522,29.0712 48.1627,34.7119" stroke="#004cff" stroke-width="2" /><polyline fill="none" points="39.4847,67.2542 34.278,67.6881 26.0339,65.9525 8.678,59.4441" stroke="#00b0ff" stroke-width="2" /><polyline fill="none" points="34.278,75.0644 22.1288,77.6678 14.7525,85.0441" stroke="#29ffcd" stroke-width="2" /><polyline fill="none" points="41.2203,77.2339 41.2203,82.0068 33.4102,103.2678 29.939,119.322" stroke="#7cff79" stroke-width="2" /><polyline fill="none" points="83.7424,67.6881 90.2508,68.122 107.1729,64.6508" stroke="#cdff29" stroke-width="2" /><polyline fill="none" points="80.7051,86.7797 95.4576,86.7797 100.6644,88.0814" stroke="#ffc400" stroke-width="2" /><polyline fill="none" points="78.1017,95.4576 90.2508,107.6068 94.1559,109.3424" stroke="#ff6700" stroke-width="2" /><polyline fill="none" points="49.8983,52.0678 46.861,54.2373 45.5593,66.3864 49.4644,69.8576 51.6339,69.8576 53.8034,65.0847 53.8034,53.8034 53.3695,51.2 51.6339,50.7661" stroke="#f10700" stroke-width="2" /><polyline fill="none" points="71.1593,52.0678 70.7254,65.5186" stroke="#7f0000" stroke-width="2" /></svg>