<?xml version="1.0" encoding="utf-8" ?>
<svg baseProfile="tiny" height="128" version="1.2" viewBox="0,0,128,128" width="128" xmlns="http://www.w3.org/2000/svg" xmlns:ev="http://www.w3.org/2001/xml-events" xmlns:xlink="http://www.w3.org/1999/xlink"><defs /><polyline fill="none" points="32.9763,14.7525 33.4102,41.6542 38.1831,54.6712 53.8034,57.7085 68.122,57.2746 76.8,53.8034 80.7051,45.5593 81.139,31.6746 78.1017,9.1119 75.4983,9.9797 72.461,16.0542 65.9525,23.4305 47.2949,22.9966 42.9559,19.0915 39.0508,9.9797 36.0136,8.678 32.1085,16.4881 32.1085,19.5254" stroke="#00007f" stroke-width="2" /><polyline fill="none" points="36.8814,17.3559 36.8814,23.8644 40.7864,24.2983 41.6542,22.1288 34.7119,15.6203" stroke="#0000ff" stroke-width="2" /><polyline fill="none" points="74.6305,19.9593 73.7627,23.8644 77.6678,24.7322 78.1017,22.5627 75.0644,19.5254" stroke="#0080ff" stroke-width="2" /><polyline fill="none" points="64.6508,37.7492 75.0644,32.5424" stroke="#15ffe1" stroke-width="2" /><polyline fill="none" points="47.7288,38.1831 32.5424,34.7119" stroke="#7cff79" stroke-width="2" /><polyline fill="none" points="63.3492,44.6915 83.3085,36.0136 119.322,29.5051" stroke="#e4ff12" stroke-width="2" /><polyline fill="none" points="65.0847,44.2576 109.7763,42.522" stroke="#ff9400" stroke-width="2" /><polyline fill="none" points="44.2576,44.6915 39.0508,44.2576 22.5627,36.4475 16.922,35.5797 20.3932,35.5797" stroke="#ff1d00" stroke-width="2" /><polyline fill="none" points="42.0881,44.2576 8.678,52.5017" stroke="#7f0000" stroke-width="2" /></svg>