<?xml version="1.0" encoding="utf-8" ?>
<svg baseProfile="tiny" height="128" version="1.2" viewBox="0,0,128,128" width="128" xmlns="http://www.w3.org/2000/svg" xmlns:ev="http://www.w3.org/2001/xml-events" xmlns:xlink="http://www.w3.org/1999/xlink"><defs /><polyline fill="none" points="48.1627,25.1661 44.6915,24.2983 39.4847,25.1661 34.7119,29.0712 29.5051,39.4847 30.3729,45.1254 32.9763,48.5966 38.1831,52.5017 48.1627,56.4068 63.7831,58.1424 71.5932,54.6712 74.6305,49.8983 75.4983,46.861 75.4983,41.6542 73.3288,35.1458 64.6508,22.9966 55.539,18.2237 47.7288,15.6203 40.3525,15.6203 38.6169,16.922" stroke="#00007f" stroke-width="2" /><polyline fill="none" points="41.2203,30.3729 36.4475,33.8441 37.3153,37.3153 43.3898,39.9186 45.1254,39.4847 45.9932,36.8814 43.8237,31.6746 39.4847,29.0712" stroke="#0000fe" stroke-width="2" /><polyline fill="none" points="64.2169,33.8441 62.0475,39.9186 67.6881,45.1254 69.8576,45.5593 72.461,43.3898 72.461,38.1831 69.4237,33.4102 63.3492,31.6746" stroke="#0060ff" stroke-width="2" /><polyline fill="none" points="33.8441,25.1661 36.0136,10.8475 43.3898,23.8644" stroke="#00d4ff" stroke-width="2" /><polyline fill="none" points="61.1797,19.5254 70.2915,8.678 72.8949,26.4678" stroke="#4cffaa" stroke-width="2" /><polyline fill="none" points="48.1627,45.1254 8.678,40.3525" stroke="#aaff4c" stroke-width="2" /><polyline fill="none" points="42.0881,47.2949 25.6,47.7288 9.9797,49.8983" stroke="#ffe500" stroke-width="2" /><polyline fill="none" points="65.9525,49.0305 119.322,48.1627" stroke="#ff7a00" stroke-width="2" /><polyline fill="none" points="65.0847,52.0678 80.2712,60.7458 99.7966,65.0847" stroke="#fe1200" stroke-width="2" /><polyline fill="none" points="58.1424,52.9356 62.9153,58.1424 70.2915,63.3492 85.478,70.2915 96.3254,73.3288" stroke="#7f0000" stroke-width="2" /></svg>