<?xml version="1.0" encoding="utf-8" ?>
<svg baseProfile="tiny" height="128" version="1.2" viewBox="0,0,128,128" width="128" xmlns="http://www.w3.org/2000/svg" xmlns:ev="http://www.w3.org/2001/xml-events" xmlns:xlink="http://www.w3.org/1999/xlink"><defs /><polyline fill="none" points="82.8746,55.9729 76.8,52.5017 59.4441,48.1627 29.939,50.3322 22.5627,52.9356 12.5831,63.7831 9.9797,69.8576 8.678,87.2136 9.5458,91.1186 14.3186,98.9288 24.7322,109.7763 43.3898,118.0203 69.4237,119.322 82.4407,115.4169 90.2508,109.3424 96.3254,101.0983 100.2305,91.5525 101.9661,72.461 100.6644,68.122 93.2881,60.7458 75.4983,51.2" stroke="#00007f" stroke-width="2" /><polyline fill="none" points="14.7525,54.2373 21.261,30.3729 29.939,22.9966 39.9186,18.6576 43.8237,17.3559 45.9932,26.4678 46.4271,36.4475 44.6915,43.8237" stroke="#004cff" stroke-width="2" /><polyline fill="none" points="89.8169,54.2373 90.6847,26.9017 88.5153,15.1864 84.1763,9.9797 80.2712,8.678 70.7254,20.8271 65.9525,38.1831 65.9525,45.5593" stroke="#29ffcd" stroke-width="2" /><polyline fill="none" points="74.1966,46.4271 74.1966,27.3356 78.5356,22.9966 80.7051,22.5627 81.5729,24.2983 84.6102,32.1085 84.6102,39.9186 80.7051,56.8407" stroke="#cdff29" stroke-width="2" /><polyline fill="none" points="25.1661,48.1627 28.6373,41.2203 30.3729,30.8068 36.4475,28.2034 39.4847,40.7864 39.4847,47.2949 38.1831,51.6339" stroke="#ff6700" stroke-width="2" /><polyline fill="none" points="34.7119,69.4237 29.0712,74.1966 28.6373,75.9322 30.8068,77.6678 39.9186,80.2712 41.6542,74.6305 42.0881,69.8576 39.9186,67.6881 36.0136,65.9525 32.5424,67.6881" stroke="#7f0000" stroke-width="2" /></svg>