<?xml version="1.0" encoding="utf-8" ?>
<svg baseProfile="tiny" height="128" version="1.2" viewBox="0,0,128,128" width="128" xmlns="http://www.w3.org/2000/svg" xmlns:ev="http://www.w3.org/2001/xml-events" xmlns:xlink="http://www.w3.org/1999/xlink"><defs /><polyline fill="none" points="66.8203,38.6169 65.5186,35.5797 59.878,30.8068 51.2,26.9017 44.6915,26.4678 35.5797,29.939 30.3729,36.0136 27.3356,43.3898 26.0339,59.0102 28.6373,65.0847 38.1831,76.3661 52.5017,83.3085 60.3119,83.3085 66.8203,80.7051 72.461,75.0644 75.0644,68.5559 76.3661,61.6136 75.4983,45.9932 70.7254,38.6169 64.2169,35.1458 82.4407,26.4678 77.2339,41.2203" stroke="#00007f" stroke-width="2" /><polyline fill="none" points="46.861,27.3356 38.6169,15.1864 31.2407,8.678 32.9763,36.8814" stroke="#0000de" stroke-width="2" /><polyline fill="none" points="43.3898,45.5593 45.1254,44.6915 44.6915,42.9559" stroke="#0028ff" stroke-width="2" /><polyline fill="none" points="58.5763,48.1627 57.2746,49.0305 59.878,49.4644 58.1424,48.5966" stroke="#0080ff" stroke-width="2" /><polyline fill="none" points="50.7661,55.539 44.2576,54.2373 44.2576,55.539 45.1254,58.1424 46.4271,58.1424 50.7661,55.1051" stroke="#00d4ff" stroke-width="2" /><polyline fill="none" points="46.861,56.4068 40.7864,65.5186 35.5797,66.8203 33.8441,65.9525 32.5424,62.0475 34.7119,56.4068" stroke="#36ffc0" stroke-width="2" /><polyline fill="none" points="40.7864,65.5186 43.8237,72.461 49.0305,76.8 58.5763,78.9695 61.1797,75.9322" stroke="#7cff79" stroke-width="2" /><polyline fill="none" points="54.2373,58.5763 119.322,46.861" stroke="#c0ff36" stroke-width="2" /><polyline fill="none" points="58.1424,61.6136 84.1763,61.1797" stroke="#ffe500" stroke-width="2" /><polyline fill="none" points="57.2746,66.3864 75.0644,70.7254 98.9288,79.8373" stroke="#ff9400" stroke-width="2" /><polyline fill="none" points="39.9186,52.5017 20.8271,36.8814" stroke="#ff4600" stroke-width="2" /><polyline fill="none" points="31.6746,52.9356 17.3559,47.2949" stroke="#de0000" stroke-width="2" /><polyline fill="none" points="29.939,51.6339 22.1288,52.5017 8.678,55.9729" stroke="#7f0000" stroke-width="2" /></svg>