<?xml version="1.0" encoding="utf-8" ?>
<svg baseProfile="tiny" height="128" version="1.2" viewBox="0,0,128,128" width="128" xmlns="http://www.w3.org/2000/svg" xmlns:ev="http://www.w3.org/2001/xml-events" xmlns:xlink="http://www.w3.org/1999/xlink"><defs /><polyline fill="none" points="12.5831,26.4678 12.5831,26.4678" stroke="#00007f" stroke-width="2" /><polyline fill="none" points="15.1864,26.0339 19.9593,19.5254 24.7322,8.678 25.1661,16.0542 30.3729,27.3356 34.7119,11.7153 43.8237,25.6 43.8237,29.939 8.678,25.6 10.8475,30.8068 12.5831,50.3322 29.939,54.2373 48.5966,44.2576 52.0678,30.8068 50.7661,26.9017 41.2203,28.2034" stroke="#0028ff" stroke-width="2" /><polyline fill="none" points="45.9932,47.7288 55.1051,61.6136 61.6136,59.4441 70.7254,59.4441 110.6441,67.6881 119.322,28.6373 55.1051,38.1831 42.0881,37.7492" stroke="#00d4ff" stroke-width="2" /><polyline fill="none" points="60.7458,65.5186 58.1424,63.3492" stroke="#7cff79" stroke-width="2" /><polyline fill="none" points="58.1424,61.1797 45.5593,97.6271 48.5966,95.4576 67.2542,97.6271 66.8203,86.7797 72.461,72.0271 73.7627,62.4814" stroke="#ffe500" stroke-width="2" /><polyline fill="none" points="90.2508,63.7831 91.5525,95.4576 96.7593,96.3254 97.6271,95.8915 98.4949,83.3085 105.4373,62.0475" stroke="#ff4600" stroke-width="2" /><polyline fill="none" points="16.4881,29.939 16.4881,29.939" stroke="#7f0000" stroke-width="2" /></svg>