<?xml version="1.0" encoding="utf-8" ?>
<svg baseProfile="tiny" height="128" version="1.2" viewBox="0,0,128,128" width="128" xmlns="http://www.w3.org/2000/svg" xmlns:ev="http://www.w3.org/2001/xml-events" xmlns:xlink="http://www.w3.org/1999/xlink"><defs /><polyline fill="none" points="73.7627,38.6169 64.2169,39.4847 44.6915,48.1627 35.1458,57.2746 29.939,69.4237 29.0712,80.7051 34.278,94.5898 41.6542,102.4 53.3695,107.1729 71.1593,108.4746 77.6678,106.3051 86.3458,97.6271 95.0237,82.0068 97.6271,62.4814 94.5898,50.3322 85.478,41.6542 74.1966,38.6169" stroke="#00007f" stroke-width="2" /><polyline fill="none" points="38.6169,56.8407 32.9763,42.522 29.939,21.6949 33.4102,20.3932 47.7288,35.5797 54.6712,40.7864" stroke="#0000fe" stroke-width="2" /><polyline fill="none" points="83.7424,38.6169 90.6847,26.0339 96.3254,11.2814 98.4949,8.678 98.9288,14.3186 91.9864,55.1051" stroke="#0060ff" stroke-width="2" /><polyline fill="none" points="57.2746,78.9695 56.4068,81.5729" stroke="#00d4ff" stroke-width="2" /><polyline fill="none" points="64.6508,74.1966 96.7593,74.1966 103.2678,75.4983" stroke="#4cffaa" stroke-width="2" /><polyline fill="none" points="64.6508,80.2712 88.5153,86.7797 108.0407,94.1559 115.8508,99.7966" stroke="#aaff4c" stroke-width="2" /><polyline fill="none" points="66.3864,86.3458 79.8373,99.3627 114.5492,119.322" stroke="#ffe500" stroke-width="2" /><polyline fill="none" points="51.6339,78.5356 42.522,78.5356 33.4102,82.0068 16.0542,96.7593 8.678,105.4373" stroke="#ff7a00" stroke-width="2" /><polyline fill="none" points="46.4271,100.6644 37.3153,101.5322 28.2034,107.1729 23.8644,114.1153 23.8644,117.1525 26.0339,118.4542" stroke="#fe1200" stroke-width="2" /><polyline fill="none" points="57.2746,113.2475 52.5017,118.4542" stroke="#7f0000" stroke-width="2" /></svg>