<?xml version="1.0" encoding="utf-8" ?>
<svg baseProfile="tiny" height="128" version="1.2" viewBox="0,0,128,128" width="128" xmlns="http://www.w3.org/2000/svg" xmlns:ev="http://www.w3.org/2001/xml-events" xmlns:xlink="http://www.w3.org/1999/xlink"><defs /><polyline fill="none" points="11.7153,61.1797 11.7153,54.6712 8.678,42.9559 9.9797,36.4475 11.7153,36.8814 21.261,49.0305 27.3356,53.8034 35.1458,44.6915 53.8034,32.9763 55.9729,50.3322 64.6508,58.5763 68.9898,69.4237 69.4237,73.7627 65.5186,79.4034 56.8407,83.7424 44.6915,86.7797 32.5424,85.9119 22.1288,83.3085 14.7525,79.8373 12.1492,75.9322 11.2814,65.0847 12.5831,61.1797" stroke="#00007f" stroke-width="2" /><polyline fill="none" points="39.9186,72.461 37.7492,73.7627 38.6169,77.2339 41.2203,76.8 43.8237,73.3288 42.9559,69.8576 39.9186,70.7254" stroke="#0000f1" stroke-width="2" /><polyline fill="none" points="40.3525,74.6305 41.2203,78.5356 43.8237,80.7051 47.7288,79.4034 50.3322,75.0644" stroke="#004cff" stroke-width="2" /><polyline fill="none" points="43.3898,79.4034 39.0508,82.0068 34.278,82.8746 30.3729,77.6678" stroke="#00b0ff" stroke-width="2" /><polyline fill="none" points="26.9017,65.9525 25.1661,67.2542 26.9017,68.5559 29.0712,68.122 29.5051,67.2542 27.7695,63.3492 26.9017,65.9525" stroke="#29ffcd" stroke-width="2" /><polyline fill="none" points="45.9932,59.878 45.9932,64.2169 49.8983,62.0475 49.4644,59.0102 47.7288,60.3119" stroke="#7cff79" stroke-width="2" /><polyline fill="none" points="15.6203,55.1051 14.3186,47.7288 19.5254,54.2373 16.922,55.9729" stroke="#cdff29" stroke-width="2" /><polyline fill="none" points="41.2203,50.3322 49.0305,45.1254 50.7661,52.0678 43.3898,50.7661" stroke="#ffc400" stroke-width="2" /><polyline fill="none" points="23.8644,83.7424 19.9593,86.3458 18.6576,89.3831 16.4881,102.4 20.8271,111.078 25.1661,115.8508 28.6373,117.5864 38.1831,118.8881 46.861,118.8881 61.6136,116.2847 72.461,112.3797 79.4034,105.8712 90.6847,86.3458 91.1186,81.5729 88.5153,75.9322 81.5729,72.461 71.1593,71.5932 65.9525,75.9322" stroke="#ff6700" stroke-width="2" /><polyline fill="none" points="85.478,72.8949 93.2881,68.122 103.7017,57.2746 111.078,43.3898 111.5119,32.9763 109.3424,25.6 105.0034,18.6576 104.5695,14.7525 105.8712,11.7153 111.5119,8.678 116.2847,9.1119 117.5864,10.4136 119.322,20.8271 109.3424,49.0305 107.1729,66.3864 103.2678,72.0271 90.6847,80.2712" stroke="#f10700" stroke-width="2" /><polyline fill="none" points="90.6847,80.2712 111.9458,50.3322 117.5864,37.3153 119.322,22.9966" stroke="#7f0000" stroke-width="2" /></svg>