<?xml version="1.0" encoding="utf-8" ?>
<svg baseProfile="tiny" height="128" version="1.2" viewBox="0,0,128,128" width="128" xmlns="http://www.w3.org/2000/svg" xmlns:ev="http://www.w3.org/2001/xml-events" xmlns:xlink="http://www.w3.org/1999/xlink"><defs /><polyline fill="none" points="68.5559,56.4068 54.2373,47.7288 47.7288,45.9932 37.3153,45.9932 23.4305,51.6339 15.1864,59.878 9.9797,75.9322 8.678,98.061 17.7898,110.2102 31.6746,118.0203 50.3322,119.322 63.7831,114.9831 67.6881,112.8136 71.1593,108.4746 74.6305,67.6881 69.4237,57.2746 66.8203,54.6712 55.539,53.3695" stroke="#00007f" stroke-width="2" /><polyline fill="none" points="41.2203,82.0068 20.8271,84.6102" stroke="#0000fe" stroke-width="2" /><polyline fill="none" points="44.2576,87.2136 33.8441,88.0814 22.9966,93.722" stroke="#0060ff" stroke-width="2" /><polyline fill="none" points="52.0678,80.2712 75.9322,78.5356" stroke="#00d4ff" stroke-width="2" /><polyline fill="none" points="55.539,88.9492 75.4983,90.6847" stroke="#4cffaa" stroke-width="2" /><polyline fill="none" points="54.6712,85.0441 48.5966,84.6102 46.4271,85.9119 46.4271,84.1763 47.7288,82.8746" stroke="#aaff4c" stroke-width="2" /><polyline fill="none" points="31.2407,65.0847 27.3356,68.5559 29.5051,69.8576 32.1085,65.5186 29.939,66.3864 29.939,68.9898 32.9763,69.4237 35.1458,68.122 35.1458,65.5186 32.1085,65.5186 29.939,66.8203 29.939,68.5559" stroke="#ffe500" stroke-width="2" /><polyline fill="none" points="54.6712,60.3119 49.8983,65.5186 49.8983,67.2542 51.6339,66.3864 52.0678,64.2169 49.0305,65.9525 48.5966,68.9898 54.6712,68.5559 57.7085,65.5186 57.7085,61.6136 52.5017,60.7458 50.7661,62.4814 50.3322,66.8203 56.4068,67.6881 59.0102,65.0847" stroke="#ff7a00" stroke-width="2" /><polyline fill="none" points="9.1119,59.0102 8.678,24.2983 10.8475,8.678 24.2983,25.1661 28.6373,32.5424 30.8068,41.2203 33.8441,42.522" stroke="#fe1200" stroke-width="2" /><polyline fill="none" points="62.4814,41.6542 57.7085,41.2203 59.4441,38.1831 65.0847,32.5424 76.3661,17.3559 81.5729,13.4508 86.3458,11.7153 86.3458,23.4305 79.8373,35.1458 68.5559,60.7458 66.3864,63.7831" stroke="#7f0000" stroke-width="2" /></svg>