<?xml version="1.0" encoding="utf-8" ?>
<svg baseProfile="tiny" height="128" version="1.2" viewBox="0,0,128,128" width="128" xmlns="http://www.w3.org/2000/svg" xmlns:ev="http://www.w3.org/2001/xml-events" xmlns:xlink="http://www.w3.org/1999/xlink"><defs /><polyline fill="none" points="42.9559,36.4475 20.3932,43.8237 13.4508,49.4644 12.1492,52.0678 8.678,70.2915 8.678,91.1186 10.4136,96.7593 28.2034,109.7763 38.6169,115.8508 55.1051,119.322 75.9322,118.8881 85.0441,114.9831 88.5153,105.4373 90.2508,97.1932 90.2508,72.8949 89.3831,66.3864 86.3458,60.3119 67.6881,46.4271 64.2169,40.3525 58.5763,34.7119 47.7288,28.2034 41.6542,27.7695 36.0136,30.8068 30.3729,32.1085 27.7695,36.0136" stroke="#00007f" stroke-width="2" /><polyline fill="none" points="20.8271,39.9186 17.3559,39.4847 16.0542,36.0136 16.0542,13.8847 16.4881,10.4136 21.6949,8.678 36.0136,41.6542 38.1831,41.6542" stroke="#0000f1" stroke-width="2" /><polyline fill="none" points="70.2915,45.9932 79.4034,42.0881 84.6102,32.1085 90.2508,28.2034 88.0814,53.8034 87.2136,55.9729" stroke="#004cff" stroke-width="2" /><polyline fill="none" points="37.7492,52.5017 28.6373,53.3695 27.7695,61.6136 28.6373,65.9525 32.1085,68.5559 38.1831,69.4237 44.2576,67.2542 45.9932,64.6508 45.9932,61.6136 42.0881,52.0678 39.0508,48.5966" stroke="#00b0ff" stroke-width="2" /><polyline fill="none" points="69.8576,58.5763 62.4814,62.4814 60.7458,69.8576 67.2542,75.4983 75.0644,74.1966 75.9322,68.5559 74.6305,65.0847 72.0271,63.3492 66.3864,63.7831" stroke="#29ffcd" stroke-width="2" /><polyline fill="none" points="45.5593,88.9492 42.522,87.6475 47.7288,91.9864 49.4644,89.3831 47.7288,88.0814" stroke="#7cff79" stroke-width="2" /><polyline fill="none" points="53.3695,88.9492 57.2746,88.9492 73.7627,83.3085" stroke="#cdff29" stroke-width="2" /><polyline fill="none" points="45.5593,91.1186 58.5763,89.3831 74.6305,89.3831" stroke="#ffc400" stroke-width="2" /><polyline fill="none" points="46.861,91.9864 53.3695,92.4203 67.2542,100.6644 71.5932,101.9661" stroke="#ff6700" stroke-width="2" /><polyline fill="none" points="40.7864,86.3458 29.939,88.9492 17.7898,86.3458" stroke="#f10700" stroke-width="2" /><polyline fill="none" points="42.0881,91.1186 30.3729,93.722" stroke="#7f0000" stroke-width="2" /></svg>