<?xml version="1.0" encoding="utf-8" ?>
<svg baseProfile="tiny" height="128" version="1.2" viewBox="0,0,128,128" width="128" xmlns="http://www.w3.org/2000/svg" xmlns:ev="http://www.w3.org/2001/xml-events" xmlns:xlink="http://www.w3.org/1999/xlink"><defs /><polyline fill="none" points="34.278,46.861 25.6,49.0305 10.8475,59.0102 9.1119,68.122 8.678,96.7593 22.5627,107.1729 38.6169,115.8508 51.2,118.8881 67.2542,119.322 80.7051,114.5492 88.5153,109.3424 92.8542,104.5695 97.6271,87.6475 97.6271,76.8 100.6644,68.122 99.7966,62.0475 97.1932,59.4441 88.9492,55.9729 57.2746,49.8983 29.5051,48.5966 29.5051,47.2949" stroke="#00007f" stroke-width="2" /><polyline fill="none" points="19.0915,51.6339 22.5627,8.678 23.4305,13.4508 30.3729,20.8271 32.1085,25.1661 32.1085,42.0881 35.1458,46.4271" stroke="#0028ff" stroke-width="2" /><polyline fill="none" points="69.4237,47.2949 76.3661,39.4847 83.7424,34.278 111.5119,23.8644 111.9458,27.7695 106.739,38.6169 105.4373,55.9729 100.6644,58.5763 92.8542,58.5763" stroke="#00d4ff" stroke-width="2" /><polyline fill="none" points="39.4847,68.122 39.4847,68.122" stroke="#7cff79" stroke-width="2" /><polyline fill="none" points="30.8068,68.122 34.7119,71.5932 35.5797,66.3864 32.5424,64.6508" stroke="#ffe500" stroke-width="2" /><polyline fill="none" points="73.3288,68.122 68.9898,75.0644 68.122,78.5356 69.8576,78.9695 75.0644,74.6305 75.0644,71.1593 69.4237,67.6881 65.9525,68.122" stroke="#ff4600" stroke-width="2" /><polyline fill="none" points="28.6373,91.9864 32.9763,99.3627 42.9559,101.9661 45.1254,101.5322 48.1627,97.6271 49.8983,89.3831 50.3322,102.4 57.2746,103.2678 66.8203,94.5898 69.4237,82.0068 68.9898,78.5356 68.122,78.5356" stroke="#7f0000" stroke-width="2" /></svg>