<?xml version="1.0" encoding="utf-8" ?>
<svg baseProfile="tiny" height="128" version="1.2" viewBox="0,0,128,128" width="128" xmlns="http://www.w3.org/2000/svg" xmlns:ev="http://www.w3.org/2001/xml-events" xmlns:xlink="http://www.w3.org/1999/xlink"><defs /><polyline fill="none" points="36.0136,27.7695 19.5254,27.3356 10.8475,28.6373 8.678,61.1797 9.9797,65.5186 13.0169,67.6881 16.4881,64.2169 17.3559,51.2 18.2237,47.7288 21.261,45.1254 29.5051,42.522 46.861,44.6915 62.4814,43.8237 65.0847,46.861 68.5559,65.9525 70.7254,68.5559 75.9322,69.8576 78.9695,64.2169 82.0068,43.3898 83.7424,42.0881 94.5898,41.6542 103.2678,37.3153" stroke="#00007f" stroke-width="2" /><polyline fill="none" points="33.4102,29.939 41.6542,29.0712 55.9729,22.9966 71.1593,23.4305 78.5356,14.7525 83.3085,11.2814 93.2881,8.678 102.8339,12.5831 107.6068,17.7898 109.7763,22.5627 109.7763,30.3729 102.8339,39.9186" stroke="#0000e8" stroke-width="2" /><polyline fill="none" points="91.5525,28.6373 84.1763,34.278" stroke="#0038ff" stroke-width="2" /><polyline fill="none" points="94.5898,32.9763 85.9119,39.4847" stroke="#0094ff" stroke-width="2" /><polyline fill="none" points="96.3254,35.1458 89.8169,42.0881" stroke="#0cf4ea" stroke-width="2" /><polyline fill="none" points="104.1356,26.4678 117.1525,20.3932" stroke="#56ffa0" stroke-width="2" /><polyline fill="none" points="106.3051,31.2407 110.6441,28.6373 116.2847,27.7695" stroke="#a0ff56" stroke-width="2" /><polyline fill="none" points="108.0407,35.1458 119.322,35.1458" stroke="#eaff0c" stroke-width="2" /><polyline fill="none" points="98.061,28.6373 98.4949,28.6373" stroke="#ffaa00" stroke-width="2" /><polyline fill="none" points="87.2136,21.261 85.0441,24.2983 85.0441,26.4678 86.3458,27.7695 88.9492,26.9017 93.2881,22.5627 91.9864,21.261 89.3831,21.6949" stroke="#ff5500" stroke-width="2" /><polyline fill="none" points="99.7966,15.1864 95.8915,19.0915 100.2305,21.6949 102.8339,15.6203 101.5322,14.7525 98.9288,16.0542" stroke="#e80000" stroke-width="2" /><polyline fill="none" points="88.9492,23.8644 88.9492,23.8644" stroke="#7f0000" stroke-width="2" /></svg>