<?xml version="1.0" encoding="utf-8" ?>
<svg baseProfile="tiny" height="128" version="1.2" viewBox="0,0,128,128" width="128" xmlns="http://www.w3.org/2000/svg" xmlns:ev="http://www.w3.org/2001/xml-events" xmlns:xlink="http://www.w3.org/1999/xlink"><defs /><polyline fill="none" points="61.1797,55.9729 49.4644,56.4068 44.2576,54.2373 36.8814,47.7288 32.5424,41.2203 28.2034,29.939 26.9017,10.8475 28.2034,9.9797 39.9186,22.5627 51.2,18.6576 65.0847,18.6576 71.5932,23.8644 84.6102,9.9797 88.0814,8.678 89.3831,19.9593 86.3458,38.6169 80.2712,44.2576 61.6136,54.2373" stroke="#00007f" stroke-width="2" /><polyline fill="none" points="65.5186,38.1831 62.9153,35.1458 62.4814,31.2407 63.3492,29.939 66.8203,29.939 67.6881,32.5424 68.122,37.3153 65.0847,35.5797 64.6508,32.5424 64.6508,33.8441 62.9153,32.5424" stroke="#0000fe" stroke-width="2" /><polyline fill="none" points="45.1254,37.3153 44.6915,34.278 46.4271,33.4102 49.0305,37.7492 46.4271,38.6169 45.1254,38.6169 44.6915,33.8441 46.4271,33.8441 45.5593,36.4475 42.522,36.0136 41.6542,34.278 44.2576,33.4102 45.9932,35.1458" stroke="#0060ff" stroke-width="2" /><polyline fill="none" points="54.2373,49.0305 51.2,45.9932 51.2,44.2576 55.9729,42.9559 57.7085,44.2576 54.2373,52.9356 50.7661,54.6712 46.861,52.0678" stroke="#00d4ff" stroke-width="2" /><polyline fill="none" points="55.9729,50.7661 57.7085,54.2373 60.7458,54.6712" stroke="#4cffaa" stroke-width="2" /><polyline fill="none" points="68.9898,48.5966 94.1559,48.5966 108.0407,49.8983 113.6814,52.5017" stroke="#aaff4c" stroke-width="2" /><polyline fill="none" points="74.6305,50.3322 103.7017,70.7254" stroke="#ffe500" stroke-width="2" /><polyline fill="none" points="75.9322,54.2373 119.322,58.1424" stroke="#ff7a00" stroke-width="2" /><polyline fill="none" points="33.8441,46.861 8.678,46.861" stroke="#fe1200" stroke-width="2" /><polyline fill="none" points="42.522,49.4644 35.5797,54.6712 20.8271,70.7254" stroke="#7f0000" stroke-width="2" /></svg>