<?xml version="1.0" encoding="utf-8" ?>
<svg baseProfile="tiny" height="128" version="1.2" viewBox="0,0,128,128" width="128" xmlns="http://www.w3.org/2000/svg" xmlns:ev="http://www.w3.org/2001/xml-events" xmlns:xlink="http://www.w3.org/1999/xlink"><defs /><polyline fill="none" points="15.6735,29.1701 10.0136,16.1088 9.5782,12.6259 18.2857,16.1088 29.6054,25.6871 61.3878,16.9796 67.0476,17.8503 74.8844,23.9456 81.415,16.9796 96.2177,8.7075 93.6054,28.2993 97.5238,41.3605 97.5238,51.3741 95.7823,61.3878 92.2993,67.9184 87.0748,74.0136 72.2721,82.7211 59.2109,84.0272 50.5034,82.7211 43.9728,79.6735 33.0884,67.483 24.8163,53.9864 18.2857,34.8299" stroke="#00007f" stroke-width="2" /><polyline fill="none" points="34.3946,48.7619 8.7075,65.7415 9.1429,67.0476 15.6735,67.483" stroke="#0000ff" stroke-width="2" /><polyline fill="none" points="44.8435,64.0 13.4966,73.1429" stroke="#0080ff" stroke-width="2" /><polyline fill="none" points="51.8095,74.0136 39.1837,81.415 29.6054,83.5918" stroke="#15ffe1" stroke-width="2" /><polyline fill="none" points="85.3333,46.1497 103.619,47.0204 104.0544,48.3265" stroke="#7cff79" stroke-width="2" /><polyline fill="none" points="79.6735,57.4694 101.4422,61.3878 102.3129,62.6939 101.4422,64.0" stroke="#e4ff12" stroke-width="2" /><polyline fill="none" points="81.8503,69.6599 113.6327,79.2381 119.2925,80.1088 117.551,78.8027" stroke="#ff9400" stroke-width="2" /><polyline fill="none" points="48.3265,41.3605 47.8912,41.3605" stroke="#ff1d00" stroke-width="2" /><polyline fill="none" points="67.0476,40.9252 67.483,40.9252" stroke="#7f0000" stroke-width="2" /></svg>