<?xml version="1.0" encoding="utf-8" ?>
<svg baseProfile="tiny" height="128" version="1.2" viewBox="0,0,128,128" width="128" xmlns="http://www.w3.org/2000/svg" xmlns:ev="http://www.w3.org/2001/xml-events" xmlns:xlink="http://www.w3.org/1999/xlink"><defs /><polyline fill="none" points="50.3322,42.9559 42.522,44.2576 27.7695,49.8983 19.5254,57.2746 17.7898,69.8576 17.7898,92.8542 22.5627,98.4949 35.5797,104.5695 52.9356,107.1729 65.0847,106.739 68.5559,104.5695 76.3661,96.7593 93.722,72.8949 98.061,62.9153 98.4949,55.1051 95.4576,49.0305 91.1186,44.6915 84.6102,40.7864 69.4237,34.278 55.1051,32.5424 32.9763,34.278 31.6746,36.8814" stroke="#00007f" stroke-width="2" /><polyline fill="none" points="90.2508,40.7864 97.6271,31.6746 119.322,10.4136 119.322,14.3186 110.6441,42.522 101.5322,61.1797 98.061,61.6136" stroke="#0080ff" stroke-width="2" /><polyline fill="none" points="33.8441,33.8441 33.8441,21.261 32.1085,17.3559 26.0339,9.5458 22.9966,8.678 19.9593,12.5831 16.922,23.4305 9.5458,52.5017 8.678,59.4441 10.8475,57.2746" stroke="#7cff79" stroke-width="2" /><polyline fill="none" points="45.5593,66.3864 54.6712,67.2542 55.1051,71.1593 52.5017,74.6305 49.4644,75.0644 48.5966,68.9898 45.9932,66.3864 46.861,83.3085 45.5593,91.5525 42.9559,94.5898 36.8814,95.8915 34.278,91.9864 35.1458,88.9492" stroke="#ff9400" stroke-width="2" /><polyline fill="none" points="45.5593,82.4407 45.5593,94.5898 47.2949,100.2305 54.6712,99.3627 56.4068,95.8915 56.8407,88.5153" stroke="#7f0000" stroke-width="2" /></svg>