<?xml version="1.0" encoding="utf-8" ?>
<svg baseProfile="tiny" height="128" version="1.2" viewBox="0,0,128,128" width="128" xmlns="http://www.w3.org/2000/svg" xmlns:ev="http://www.w3.org/2001/xml-events" xmlns:xlink="http://www.w3.org/1999/xlink"><defs /><polyline fill="none" points="30.8068,21.261 17.7898,26.0339 10.4136,32.1085 9.1119,36.0136 9.5458,39.9186 10.8475,42.522 15.6203,45.1254 31.2407,46.861 39.0508,43.8237 44.6915,39.9186 46.4271,34.278 45.1254,29.5051 42.9559,26.9017 34.7119,22.9966" stroke="#00007f" stroke-width="2" /><polyline fill="none" points="8.678,27.7695 9.5458,16.0542 15.6203,26.4678" stroke="#0000e8" stroke-width="2" /><polyline fill="none" points="36.4475,22.9966 49.4644,15.1864 43.3898,26.4678" stroke="#0038ff" stroke-width="2" /><polyline fill="none" points="45.1254,36.0136 71.5932,29.0712 95.8915,27.7695 101.5322,29.0712 110.6441,34.7119 114.1153,38.1831 114.9831,42.522 112.8136,45.5593 108.9085,48.1627 84.1763,49.4644 59.878,46.861 44.2576,42.0881" stroke="#0094ff" stroke-width="2" /><polyline fill="none" points="50.7661,49.4644 51.2,63.3492" stroke="#0cf4ea" stroke-width="2" /><polyline fill="none" points="66.3864,49.0305 64.2169,60.7458" stroke="#56ffa0" stroke-width="2" /><polyline fill="none" points="78.9695,48.1627 79.8373,62.0475" stroke="#a0ff56" stroke-width="2" /><polyline fill="none" points="95.4576,47.2949 96.3254,57.7085" stroke="#eaff0c" stroke-width="2" /><polyline fill="none" points="109.7763,33.8441 114.1153,33.8441 115.8508,32.1085 114.9831,19.5254 108.9085,16.4881 99.3627,15.6203 97.1932,14.7525 97.1932,13.0169 101.5322,9.5458 108.4746,8.678 118.0203,13.4508 119.322,34.7119 112.3797,38.1831" stroke="#ffaa00" stroke-width="2" /><polyline fill="none" points="23.4305,28.6373 21.6949,36.0136 23.4305,32.5424" stroke="#ff5500" stroke-width="2" /><polyline fill="none" points="32.5424,30.3729 32.1085,34.7119 33.8441,31.2407 31.6746,38.1831" stroke="#e80000" stroke-width="2" /><polyline fill="none" points="17.7898,40.7864 25.1661,42.9559 33.4102,40.7864" stroke="#7f0000" stroke-width="2" /></svg>