<?xml version="1.0" encoding="utf-8" ?>
<svg baseProfile="tiny" height="128" version="1.2" viewBox="0,0,128,128" width="128" xmlns="http://www.w3.org/2000/svg" xmlns:ev="http://www.w3.org/2001/xml-events" xmlns:xlink="http://www.w3.org/1999/xlink"><defs /><polyline fill="none" points="22.9966,57.2746 16.922,56.8407 9.5458,68.9898 8.678,82.0068 10.8475,89.8169 24.2983,104.5695 37.3153,111.5119 54.2373,118.4542 72.461,119.322 73.7627,118.0203 82.8746,88.0814 82.0068,80.2712 76.3661,73.3288 57.2746,56.8407 42.9559,52.9356 29.0712,50.7661 25.1661,50.7661 15.1864,56.4068" stroke="#00007f" stroke-width="2" /><polyline fill="none" points="15.1864,56.4068 19.5254,43.3898 24.7322,20.3932 29.5051,8.678 30.3729,9.5458 30.8068,20.3932 32.9763,31.6746 37.3153,47.7288 36.4475,51.6339" stroke="#0000e8" stroke-width="2" /><polyline fill="none" points="24.2983,49.8983 29.0712,31.6746 31.6746,49.0305" stroke="#0038ff" stroke-width="2" /><polyline fill="none" points="54.2373,55.9729 63.3492,54.2373 78.9695,45.1254 97.6271,36.8814 97.1932,35.1458 93.2881,36.0136 86.7797,40.7864 70.7254,69.4237 68.122,69.8576" stroke="#0094ff" stroke-width="2" /><polyline fill="none" points="65.5186,59.878 72.461,56.8407 67.6881,65.9525 64.6508,67.6881" stroke="#0cf4ea" stroke-width="2" /><polyline fill="none" points="27.7695,65.0847 28.2034,65.0847" stroke="#56ffa0" stroke-width="2" /><polyline fill="none" points="52.5017,68.122 52.5017,68.122" stroke="#a0ff56" stroke-width="2" /><polyline fill="none" points="48.5966,70.7254 48.5966,70.7254" stroke="#eaff0c" stroke-width="2" /><polyline fill="none" points="49.8983,68.122 49.8983,68.122" stroke="#ffaa00" stroke-width="2" /><polyline fill="none" points="49.8983,68.122 48.5966,69.8576" stroke="#ff5500" stroke-width="2" /><polyline fill="none" points="42.9559,83.3085 37.7492,82.0068 36.8814,85.0441 38.1831,86.3458 42.522,87.6475 44.2576,85.478 44.2576,83.3085 38.6169,81.5729" stroke="#e80000" stroke-width="2" /><polyline fill="none" points="39.0508,82.0068 40.3525,84.1763" stroke="#7f0000" stroke-width="2" /></svg>