<?xml version="1.0" encoding="utf-8" ?>
<svg baseProfile="tiny" height="128" version="1.2" viewBox="0,0,128,128" width="128" xmlns="http://www.w3.org/2000/svg" xmlns:ev="http://www.w3.org/2001/xml-events" xmlns:xlink="http://www.w3.org/1999/xlink"><defs /><polyline fill="none" points="71.5932,29.939 59.878,25.6 54.6712,27.3356 34.278,41.2203 26.9017,49.4644 24.7322,55.9729 24.2983,65.9525 33.8441,75.9322 48.1627,81.139 60.7458,81.139 75.0644,72.461 83.3085,61.1797 86.3458,54.2373 88.0814,34.278 85.9119,26.9017 80.7051,23.4305 67.2542,26.9017 55.539,33.4102" stroke="#00007f" stroke-width="2" /><polyline fill="none" points="30.3729,46.861 29.0712,38.6169 29.5051,24.7322 32.9763,30.3729 40.3525,36.0136 51.2,37.7492" stroke="#0000fe" stroke-width="2" /><polyline fill="none" points="67.6881,25.6 83.7424,12.1492 89.3831,8.678 87.6475,20.3932 88.9492,32.5424" stroke="#0060ff" stroke-width="2" /><polyline fill="none" points="47.2949,55.539 48.5966,55.539" stroke="#00d4ff" stroke-width="2" /><polyline fill="none" points="68.122,48.5966 68.5559,49.0305" stroke="#4cffaa" stroke-width="2" /><polyline fill="none" points="51.2,67.6881 61.6136,66.3864 70.7254,59.878" stroke="#aaff4c" stroke-width="2" /><polyline fill="none" points="31.6746,59.878 17.7898,58.1424 10.4136,62.0475 8.678,64.6508" stroke="#ffe500" stroke-width="2" /><polyline fill="none" points="37.7492,65.0847 32.1085,66.3864 19.5254,75.4983 13.4508,82.8746 13.0169,87.2136" stroke="#ff7a00" stroke-width="2" /><polyline fill="none" points="85.0441,46.4271 108.0407,34.278" stroke="#fe1200" stroke-width="2" /><polyline fill="none" points="82.0068,53.8034 110.6441,53.8034 119.322,55.1051" stroke="#7f0000" stroke-width="2" /></svg>