<?xml version="1.0" encoding="utf-8" ?>
<svg baseProfile="tiny" height="128" version="1.2" viewBox="0,0,128,128" width="128" xmlns="http://www.w3.org/2000/svg" xmlns:ev="http://www.w3.org/2001/xml-events" xmlns:xlink="http://www.w3.org/1999/xlink"><defs /><polyline fill="none" points="108.0407,11.7153 102.4,8.678 88.9492,19.5254 79.8373,32.9763 77.6678,46.4271 83.7424,58.5763 89.8169,63.3492 96.3254,65.9525 101.9661,65.9525 107.6068,62.9153 114.1153,55.539 118.8881,43.8237 119.322,33.8441 114.1153,22.1288 108.9085,17.3559 104.5695,16.922" stroke="#00007f" stroke-width="2" /><polyline fill="none" points="78.5356,49.0305 73.3288,47.7288 35.1458,44.6915 24.7322,50.3322 17.7898,56.4068 11.2814,67.2542 8.678,81.139 8.678,97.6271 12.5831,116.2847" stroke="#0028ff" stroke-width="2" /><polyline fill="none" points="17.7898,79.8373 45.9932,78.5356 62.9153,79.8373 75.4983,75.0644 83.7424,69.8576" stroke="#00d4ff" stroke-width="2" /><polyline fill="none" points="43.8237,84.6102 44.2576,106.3051" stroke="#7cff79" stroke-width="2" /><polyline fill="none" points="66.8203,79.8373 66.8203,85.9119 69.8576,99.3627" stroke="#ffe500" stroke-width="2" /><polyline fill="none" points="82.8746,74.6305 85.478,92.4203" stroke="#ff4600" stroke-width="2" /><polyline fill="none" points="55.1051,82.4407 60.3119,98.9288" stroke="#7f0000" stroke-width="2" /></svg>