<?xml version="1.0" encoding="utf-8" ?>
<svg baseProfile="tiny" height="128" version="1.2" viewBox="0,0,128,128" width="128" xmlns="http://www.w3.org/2000/svg" xmlns:ev="http://www.w3.org/2001/xml-events" xmlns:xlink="http://www.w3.org/1999/xlink"><defs /><polyline fill="none" points="64.6508,34.278 41.6542,43.3898 36.8814,46.4271 29.0712,55.1051 21.261,59.4441 8.678,93.722 9.9797,96.7593 22.5627,107.1729 26.9017,110.2102 32.5424,111.5119 61.6136,111.5119 67.2542,110.2102 89.3831,97.1932 95.0237,75.0644 95.0237,70.2915 90.2508,53.8034 78.1017,46.4271 70.7254,37.3153 63.7831,31.2407" stroke="#00007f" stroke-width="2" /><polyline fill="none" points="32.5424,48.5966 28.2034,14.3186 28.2034,9.9797 29.939,8.678 41.6542,26.9017 45.9932,42.522" stroke="#0000f1" stroke-width="2" /><polyline fill="none" points="72.8949,37.3153 74.1966,33.8441 78.1017,29.939 94.1559,19.9593 87.2136,48.1627" stroke="#004cff" stroke-width="2" /><polyline fill="none" points="45.9932,55.9729 45.1254,57.7085 46.4271,58.1424 48.1627,55.1051" stroke="#00b0ff" stroke-width="2" /><polyline fill="none" points="66.8203,54.6712 65.5186,55.9729 67.2542,56.8407 68.9898,56.8407 68.9898,54.6712" stroke="#29ffcd" stroke-width="2" /><polyline fill="none" points="54.6712,59.878 54.6712,62.0475" stroke="#7cff79" stroke-width="2" /><polyline fill="none" points="55.539,66.3864 75.4983,67.6881 91.5525,71.1593 102.8339,75.0644 119.322,86.7797" stroke="#cdff29" stroke-width="2" /><polyline fill="none" points="59.4441,70.2915 63.3492,71.1593 78.9695,79.8373" stroke="#ffc400" stroke-width="2" /><polyline fill="none" points="65.9525,76.3661 71.1593,83.3085" stroke="#ff6700" stroke-width="2" /><polyline fill="none" points="49.8983,68.122 25.6,76.8 12.1492,78.9695" stroke="#f10700" stroke-width="2" /><polyline fill="none" points="49.8983,69.8576 45.9932,74.6305 33.8441,78.9695" stroke="#7f0000" stroke-width="2" /></svg>