<?xml version="1.0" encoding="utf-8" ?>
<svg baseProfile="tiny" height="128" version="1.2" viewBox="0,0,128,128" width="128" xmlns="http://www.w3.org/2000/svg" xmlns:ev="http://www.w3.org/2001/xml-events" xmlns:xlink="http://www.w3.org/1999/xlink"><defs /><polyline fill="none" points="46.4271,20.8271 30.8068,12.5831 30.3729,28.2034" stroke="#00007f" stroke-width="2" /><polyline fill="none" points="49.8983,20.3932 56.8407,21.261 67.2542,19.0915 78.5356,19.5254 89.3831,8.678 91.5525,10.4136 93.2881,24.7322" stroke="#0028ff" stroke-width="2" /><polyline fill="none" points="33.4102,30.3729 34.7119,55.9729 39.0508,64.2169 43.8237,68.9898 51.2,72.8949 66.3864,74.1966 74.1966,71.1593 78.9695,67.6881 90.2508,52.9356 93.722,44.2576 97.6271,27.7695" stroke="#00d4ff" stroke-width="2" /><polyline fill="none" points="58.1424,46.4271 8.678,61.6136" stroke="#7cff79" stroke-width="2" /><polyline fill="none" points="54.6712,52.5017 16.4881,74.6305" stroke="#ffe500" stroke-width="2" /><polyline fill="none" points="57.2746,58.5763 37.7492,78.5356 30.3729,83.7424" stroke="#ff4600" stroke-width="2" /><polyline fill="none" points="66.8203,48.1627 101.5322,47.2949 119.322,50.7661" stroke="#7f0000" stroke-width="2" /></svg>