<?xml version="1.0" encoding="utf-8" ?>
<svg baseProfile="tiny" height="128" version="1.2" viewBox="0,0,128,128" width="128" xmlns="http://www.w3.org/2000/svg" xmlns:ev="http://www.w3.org/2001/xml-events" xmlns:xlink="http://www.w3.org/1999/xlink"><defs /><polyline fill="none" points="11.7153,65.9525 8.678,58.5763 9.1119,53.8034 19.9593,11.7153 26.9017,30.8068 34.278,59.0102 41.2203,50.3322 46.861,47.2949 64.6508,43.8237 68.9898,45.5593 72.0271,48.1627 78.9695,59.4441 78.5356,42.9559 81.5729,29.0712 88.5153,17.3559 97.6271,8.678 98.9288,10.8475 97.1932,22.9966 102.4,62.4814 101.9661,66.8203 105.4373,86.3458 104.1356,90.2508 99.3627,97.1932 87.6475,107.6068 72.8949,114.1153 59.0102,116.2847 34.7119,116.7186 21.261,114.1153 15.1864,104.1356 11.7153,88.9492 12.1492,76.8 15.6203,66.8203" stroke="#00007f" stroke-width="2" /><polyline fill="none" points="44.2576,72.0271 42.0881,73.3288 41.6542,75.9322 44.2576,78.1017 49.8983,79.4034 49.8983,77.2339 44.6915,71.5932" stroke="#0028ff" stroke-width="2" /><polyline fill="none" points="76.8,75.0644 70.2915,75.4983 72.461,76.8 72.0271,75.4983" stroke="#00d4ff" stroke-width="2" /><polyline fill="none" points="59.0102,88.0814 60.7458,96.7593 58.1424,98.061 62.0475,99.3627 60.3119,98.061" stroke="#7cff79" stroke-width="2" /><polyline fill="none" points="59.0102,100.6644 36.0136,100.6644 28.2034,104.1356" stroke="#ffe500" stroke-width="2" /><polyline fill="none" points="58.5763,105.8712 49.0305,113.6814 44.6915,119.322" stroke="#ff4600" stroke-width="2" /><polyline fill="none" points="61.1797,97.6271 89.3831,90.2508" stroke="#7f0000" stroke-width="2" /></svg>