<?xml version="1.0" encoding="utf-8" ?>
<svg baseProfile="tiny" height="128" version="1.2" viewBox="0,0,128,128" width="128" xmlns="http://www.w3.org/2000/svg" xmlns:ev="http://www.w3.org/2001/xml-events" xmlns:xlink="http://www.w3.org/1999/xlink"><defs /><polyline fill="none" points="42.2313,19.5918 41.3605,13.932 38.3129,11.3197 26.5578,8.7075 19.1565,9.1429 12.1905,13.4966 10.0136,16.9796 8.7075,20.4626 8.7075,26.9932 10.8844,31.3469 15.6735,34.8299 25.2517,39.1837 30.4762,37.4422 39.1837,30.9116 43.9728,32.6531 52.6803,33.5238 53.1156,42.2313 48.7619,42.2313 49.6327,43.9728 56.1633,44.8435 57.034,34.8299 59.6463,34.8299 59.2109,45.7143 53.1156,47.0204 53.551,48.7619 63.1293,49.1973 64.0,35.2653 89.2517,34.8299 90.9932,37.4422 91.8639,44.8435 87.0748,44.8435 86.6395,47.0204 94.0408,47.8912 94.9116,35.7007 96.2177,37.4422 96.6531,49.1973 92.2993,50.5034 90.9932,54.4218 99.2653,54.4218 100.1361,47.8912 99.2653,34.3946 107.9728,35.2653 115.8095,31.7823 119.2925,26.5578 119.2925,18.7211 113.6327,12.6259 108.4082,10.0136 94.9116,10.0136 57.9048,17.415 39.1837,18.7211" stroke="#00007f" stroke-width="2" /><polyline fill="none" points="13.0612,20.898 13.0612,20.898" stroke="#00d4ff" stroke-width="2" /><polyline fill="none" points="16.9796,13.4966 16.9796,13.4966" stroke="#ffe500" stroke-width="2" /><polyline fill="none" points="10.8844,23.0748 10.8844,23.5102" stroke="#7f0000" stroke-width="2" /></svg>