<?xml version="1.0" encoding="utf-8" ?>
<svg baseProfile="tiny" height="128" version="1.2" viewBox="0,0,128,128" width="128" xmlns="http://www.w3.org/2000/svg" xmlns:ev="http://www.w3.org/2001/xml-events" xmlns:xlink="http://www.w3.org/1999/xlink"><defs /><polyline fill="none" points="81.5729,30.3729 65.9525,27.7695 53.8034,29.0712 42.522,33.4102 31.6746,39.9186 23.8644,48.5966 17.7898,60.7458 15.6203,76.8 20.8271,89.3831 28.6373,95.4576 44.2576,100.2305 66.3864,98.9288 78.5356,95.4576 83.3085,92.8542 94.5898,78.5356 96.3254,73.7627 98.4949,57.2746 96.3254,47.2949 92.8542,38.6169 89.8169,32.9763 81.5729,26.0339 70.2915,22.5627" stroke="#00007f" stroke-width="2" /><polyline fill="none" points="85.9119,28.2034 93.2881,22.1288 119.322,10.4136 116.2847,20.8271 90.6847,60.3119" stroke="#0010ff" stroke-width="2" /><polyline fill="none" points="19.0915,47.7288 13.4508,30.3729 8.678,8.678 42.9559,28.6373 49.0305,30.3729" stroke="#00a4ff" stroke-width="2" /><polyline fill="none" points="17.3559,51.6339 50.3322,53.3695" stroke="#3fffb7" stroke-width="2" /><polyline fill="none" points="9.9797,70.7254 22.9966,68.9898" stroke="#b7ff3f" stroke-width="2" /><polyline fill="none" points="60.3119,56.4068 92.8542,70.7254 96.7593,71.1593" stroke="#ffb900" stroke-width="2" /><polyline fill="none" points="52.5017,33.8441 57.7085,29.0712 54.2373,29.939 51.6339,33.4102" stroke="#ff3000" stroke-width="2" /><polyline fill="none" points="68.9898,33.4102 68.9898,33.4102" stroke="#7f0000" stroke-width="2" /></svg>