<?xml version="1.0" encoding="utf-8" ?>
<svg baseProfile="tiny" height="128" version="1.2" viewBox="0,0,128,128" width="128" xmlns="http://www.w3.org/2000/svg" xmlns:ev="http://www.w3.org/2001/xml-events" xmlns:xlink="http://www.w3.org/1999/xlink"><defs /><polyline fill="none" points="112.7619,19.1565 112.7619,19.1565" stroke="#00007f" stroke-width="2" /><polyline fill="none" points="112.7619,19.1565 103.1837,23.0748 102.3129,29.6054 107.102,35.2653 112.7619,35.7007 115.3741,33.9592 116.6803,27.4286 114.9388,20.898 112.3265,18.2857" stroke="#0000fe" stroke-width="2" /><polyline fill="none" points="104.9252,23.5102 106.6667,12.1905 110.1497,20.0272" stroke="#0060ff" stroke-width="2" /><polyline fill="none" points="114.068,18.2857 119.2925,8.7075 117.1156,22.2041" stroke="#00d4ff" stroke-width="2" /><polyline fill="none" points="103.1837,26.9932 77.4966,26.5578 51.3741,28.7347 41.3605,32.2177 37.4422,35.7007 36.5714,38.3129 37.4422,42.6667 45.2789,46.585 64.4354,47.8912 83.1565,43.5374 103.1837,34.3946" stroke="#4cffaa" stroke-width="2" /><polyline fill="none" points="54.4218,50.068 55.7279,63.5646" stroke="#aaff4c" stroke-width="2" /><polyline fill="none" points="71.4014,43.5374 71.4014,55.2925" stroke="#ffe500" stroke-width="2" /><polyline fill="none" points="87.0748,39.619 88.8163,48.3265" stroke="#ff7a00" stroke-width="2" /><polyline fill="none" points="99.2653,38.3129 103.619,53.9864" stroke="#fe1200" stroke-width="2" /><polyline fill="none" points="36.5714,33.9592 24.381,37.4422 19.1565,40.9252 12.6259,47.8912 8.7075,57.9048 19.1565,57.9048 23.5102,53.1156 25.2517,45.2789 33.0884,38.7483 35.2653,38.3129 42.6667,40.9252" stroke="#7f0000" stroke-width="2" /></svg>