<?xml version="1.0" encoding="utf-8" ?>
<svg baseProfile="tiny" height="128" version="1.2" viewBox="0,0,128,128" width="128" xmlns="http://www.w3.org/2000/svg" xmlns:ev="http://www.w3.org/2001/xml-events" xmlns:xlink="http://www.w3.org/1999/xlink"><defs /><polyline fill="none" points="37.3153,27.7695 16.0542,13.4508 8.678,11.2814 9.1119,54.6712" stroke="#00007f" stroke-width="2" /><polyline fill="none" points="36.8814,25.1661 51.2,20.8271 64.2169,19.9593 67.6881,21.261 71.1593,27.3356" stroke="#004cff" stroke-width="2" /><polyline fill="none" points="71.1593,27.3356 78.5356,21.6949 95.8915,13.0169 100.6644,8.678 101.0983,10.8475 96.7593,43.3898 92.4203,50.3322 85.478,53.3695 84.1763,55.1051 88.0814,66.3864 88.0814,74.1966 84.6102,80.7051 75.4983,88.5153 54.2373,91.9864 44.6915,91.1186 26.4678,85.9119 21.261,82.0068 17.3559,76.8 12.5831,66.8203 10.8475,53.8034" stroke="#29ffcd" stroke-width="2" /><polyline fill="none" points="41.6542,58.5763 49.0305,59.878 49.8983,61.6136 42.9559,63.7831 41.2203,63.7831 41.6542,62.0475" stroke="#cdff29" stroke-width="2" /><polyline fill="none" points="50.7661,64.2169 62.0475,63.3492 86.3458,67.2542 105.0034,68.122 119.322,71.5932 119.322,73.7627" stroke="#ff6700" stroke-width="2" /><polyline fill="none" points="59.0102,69.8576 88.0814,100.6644" stroke="#7f0000" stroke-width="2" /></svg>