<?xml version="1.0" encoding="utf-8" ?>
<svg baseProfile="tiny" height="128" version="1.2" viewBox="0,0,128,128" width="128" xmlns="http://www.w3.org/2000/svg" xmlns:ev="http://www.w3.org/2001/xml-events" xmlns:xlink="http://www.w3.org/1999/xlink"><defs /><polyline fill="none" points="50.068,60.0816 58.7755,40.9252" stroke="#00007f" stroke-width="2" /><polyline fill="none" points="63.5646,62.6939 59.2109,47.0204 54.8571,38.3129" stroke="#0000d5" stroke-width="2" /><polyline fill="none" points="83.5918,61.3878 93.1701,40.4898" stroke="#001cff" stroke-width="2" /><polyline fill="none" points="91.8639,44.4082 97.9592,57.4694" stroke="#006cff" stroke-width="2" /><polyline fill="none" points="87.9456,21.3333 72.2721,20.898 62.6939,23.0748 53.551,27.8639 48.3265,32.6531 50.9388,38.7483 56.5986,41.7959 78.8027,44.8435 87.5102,43.5374 97.5238,36.5714 99.7007,30.4762 94.9116,23.5102 83.1565,23.0748" stroke="#00b8ff" stroke-width="2" /><polyline fill="none" points="46.585,34.3946 46.1497,32.2177 40.9252,29.6054 25.6871,27.8639 8.7075,35.7007" stroke="#1cffda" stroke-width="2" /><polyline fill="none" points="112.3265,18.2857 106.6667,18.2857 102.3129,20.0272 97.0884,27.8639 97.0884,30.4762 99.7007,34.3946 105.7959,37.4422 109.7143,36.5714 114.9388,33.0884 117.9864,29.1701 119.2925,24.8163 118.8571,20.0272 115.8095,17.8503 109.7143,17.8503" stroke="#5cff9a" stroke-width="2" /><polyline fill="none" points="101.8776,21.3333 102.3129,8.7075 107.9728,15.6735" stroke="#9aff5c" stroke-width="2" /><polyline fill="none" points="109.7143,16.5442 114.9388,10.8844 117.551,18.7211" stroke="#daff1c" stroke-width="2" /><polyline fill="none" points="103.1837,25.2517 107.9728,25.2517" stroke="#ffcb00" stroke-width="2" /><polyline fill="none" points="110.1497,25.6871 113.1973,26.5578" stroke="#ff8500" stroke-width="2" /><polyline fill="none" points="107.102,31.3469 102.7483,28.7347" stroke="#ff3b00" stroke-width="2" /><polyline fill="none" points="105.3605,31.7823 104.0544,31.7823" stroke="#d50000" stroke-width="2" /><polyline fill="none" points="108.4082,30.9116 111.0204,29.6054" stroke="#7f0000" stroke-width="2" /></svg>