<?xml version="1.0" encoding="utf-8" ?>
<svg baseProfile="tiny" height="128" version="1.2" viewBox="0,0,128,128" width="128" xmlns="http://www.w3.org/2000/svg" xmlns:ev="http://www.w3.org/2001/xml-events" xmlns:xlink="http://www.w3.org/1999/xlink"><defs /><polyline fill="none" points="81.139,25.6 74.1966,20.8271 64.6508,19.9593 52.5017,22.5627 42.0881,26.4678" stroke="#00007f" stroke-width="2" /><polyline fill="none" points="82.0068,23.4305 88.0814,16.4881 90.6847,8.678 91.1186,18.6576 94.5898,38.6169 92.8542,51.2 90.6847,57.2746 85.478,62.9153 77.6678,66.3864 68.5559,67.6881 55.539,66.8203 49.0305,64.2169 44.2576,59.878 41.6542,55.1051 37.7492,32.5424 30.8068,12.1492 43.8237,25.1661" stroke="#004cff" stroke-width="2" /><polyline fill="none" points="80.7051,39.0508 117.1525,45.1254" stroke="#29ffcd" stroke-width="2" /><polyline fill="none" points="85.478,41.2203 88.9492,43.3898 111.5119,75.0644" stroke="#cdff29" stroke-width="2" /><polyline fill="none" points="82.8746,39.0508 90.2508,41.2203 100.6644,46.4271 119.322,58.5763" stroke="#ff6700" stroke-width="2" /><polyline fill="none" points="38.6169,44.2576 20.8271,48.1627 8.678,48.5966" stroke="#7f0000" stroke-width="2" /></svg>