<?xml version="1.0" encoding="utf-8" ?>
<svg baseProfile="tiny" height="128" version="1.2" viewBox="0,0,128,128" width="128" xmlns="http://www.w3.org/2000/svg" xmlns:ev="http://www.w3.org/2001/xml-events" xmlns:xlink="http://www.w3.org/1999/xlink"><defs /><polyline fill="none" points="12.6259,21.3333 10.449,24.8163 9.1429,31.3469 8.7075,42.6667 14.3673,50.5034 21.3333,53.9864 28.7347,54.4218 37.0068,48.3265 40.9252,40.9252 40.4898,31.7823 34.3946,23.0748 23.0748,15.2381 16.5442,14.3673 10.8844,20.898" stroke="#00007f" stroke-width="2" /><polyline fill="none" points="41.7959,28.2993 40.4898,26.9932 41.3605,24.381 48.7619,16.5442 59.2109,11.3197 72.2721,8.7075 80.1088,8.7075 90.1224,12.1905 95.3469,17.8503 98.8299,26.5578 97.9592,38.7483 89.6871,50.068 81.415,54.4218 62.2585,55.7279 50.5034,51.8095 44.8435,46.585 40.4898,35.2653 40.4898,28.2993 41.7959,25.6871" stroke="#0000f1" stroke-width="2" /><polyline fill="none" points="62.2585,57.4694 62.6939,65.7415" stroke="#004cff" stroke-width="2" /><polyline fill="none" points="78.8027,53.9864 80.5442,64.4354" stroke="#00b0ff" stroke-width="2" /><polyline fill="none" points="99.7007,34.3946 98.8299,30.0408 105.3605,19.1565 110.1497,15.6735 116.6803,13.932 119.2925,14.3673 119.2925,19.1565 111.8912,26.1224 97.0884,36.5714" stroke="#29ffcd" stroke-width="2" /><polyline fill="none" points="12.1905,28.2993 14.3673,30.9116" stroke="#7cff79" stroke-width="2" /><polyline fill="none" points="15.6735,44.8435 18.2857,41.7959" stroke="#cdff29" stroke-width="2" /><polyline fill="none" points="91.4286,49.6327 92.2993,52.6803" stroke="#ffc400" stroke-width="2" /><polyline fill="none" points="54.4218,55.2925 48.3265,59.6463" stroke="#ff6700" stroke-width="2" /><polyline fill="none" points="20.898,16.9796 43.102,10.449 62.2585,10.0136" stroke="#f10700" stroke-width="2" /><polyline fill="none" points="33.9592,55.2925 51.3741,55.7279" stroke="#7f0000" stroke-width="2" /></svg>