<?xml version="1.0" encoding="utf-8" ?>
<svg baseProfile="tiny" height="128" version="1.2" viewBox="0,0,128,128" width="128" xmlns="http://www.w3.org/2000/svg" xmlns:ev="http://www.w3.org/2001/xml-events" xmlns:xlink="http://www.w3.org/1999/xlink"><defs /><polyline fill="none" points="28.6373,85.0441 20.8271,78.5356 11.7153,66.3864 8.678,56.4068 9.9797,40.7864 19.9593,28.2034 19.0915,11.2814 33.8441,23.4305 45.1254,34.278 49.8983,34.7119 68.5559,31.2407 78.5356,31.2407 87.6475,35.1458 95.8915,14.7525 99.7966,8.678 109.7763,41.2203 110.2102,59.0102 116.2847,77.6678 117.1525,87.6475 112.3797,94.1559 98.9288,103.2678 82.8746,104.5695 62.0475,104.5695 43.3898,102.8339 34.7119,101.0983 29.5051,97.1932 27.7695,88.5153 29.0712,77.2339" stroke="#00007f" stroke-width="2" /><polyline fill="none" points="65.0847,70.2915 39.9186,65.9525 30.3729,63.7831 31.6746,62.9153" stroke="#004cff" stroke-width="2" /><polyline fill="none" points="59.0102,73.3288 54.6712,76.8 36.8814,86.7797" stroke="#29ffcd" stroke-width="2" /><polyline fill="none" points="70.2915,77.2339 44.6915,106.739" stroke="#cdff29" stroke-width="2" /><polyline fill="none" points="79.4034,66.8203 88.0814,59.878 106.739,48.5966" stroke="#ff6700" stroke-width="2" /><polyline fill="none" points="91.1186,71.5932 119.322,74.6305" stroke="#7f0000" stroke-width="2" /></svg>