<?xml version="1.0" encoding="utf-8" ?>
<svg baseProfile="tiny" height="128" version="1.2" viewBox="0,0,128,128" width="128" xmlns="http://www.w3.org/2000/svg" xmlns:ev="http://www.w3.org/2001/xml-events" xmlns:xlink="http://www.w3.org/1999/xlink"><defs /><polyline fill="none" points="53.3695,38.6169 34.278,50.3322 18.2237,68.5559 9.9797,84.6102 8.678,93.2881 9.9797,102.4 13.0169,107.6068 19.9593,113.6814 28.2034,117.5864 39.0508,119.322 50.7661,119.322 62.0475,117.5864 85.478,107.6068 95.8915,98.9288 104.5695,85.0441 113.2475,60.3119 114.1153,49.0305 111.9458,45.1254 98.4949,36.4475 85.0441,31.6746 73.7627,32.9763 56.4068,40.3525 42.522,44.6915" stroke="#00007f" stroke-width="2" /><polyline fill="none" points="32.9763,45.9932 31.6746,43.8237 29.0712,16.922 33.4102,20.8271 54.6712,48.5966" stroke="#0010ff" stroke-width="2" /><polyline fill="none" points="96.3254,32.1085 103.2678,19.0915 109.7763,11.2814 114.1153,8.678 114.9831,22.5627 111.9458,42.522" stroke="#00a4ff" stroke-width="2" /><polyline fill="none" points="51.2,83.3085 57.2746,80.2712 65.9525,79.4034 67.6881,80.2712 68.5559,82.8746 65.9525,85.0441 58.5763,85.478 55.9729,84.6102" stroke="#3fffb7" stroke-width="2" /><polyline fill="none" points="53.3695,81.139 39.4847,78.5356" stroke="#b7ff3f" stroke-width="2" /><polyline fill="none" points="54.2373,82.8746 42.0881,86.3458" stroke="#ffb900" stroke-width="2" /><polyline fill="none" points="52.9356,85.478 49.4644,89.8169" stroke="#ff3000" stroke-width="2" /><polyline fill="none" points="70.2915,78.5356 70.2915,78.5356" stroke="#7f0000" stroke-width="2" /></svg>