<?xml version="1.0" encoding="utf-8" ?>
<svg baseProfile="tiny" height="128" version="1.2" viewBox="0,0,128,128" width="128" xmlns="http://www.w3.org/2000/svg" xmlns:ev="http://www.w3.org/2001/xml-events" xmlns:xlink="http://www.w3.org/1999/xlink"><defs /><polyline fill="none" points="60.0816,43.102 22.6395,50.9388 8.7075,57.9048 9.1429,61.8231 12.1905,66.1769 20.0272,74.449 36.5714,86.2041 52.2449,93.1701 61.8231,94.4762 77.4966,94.9116 82.2857,93.1701 96.2177,84.898 99.7007,80.5442 101.4422,68.3537 93.1701,55.2925 86.2041,50.9388 74.8844,47.0204 57.4694,46.1497" stroke="#00007f" stroke-width="2" /><polyline fill="none" points="23.9456,46.1497 18.2857,14.8027 18.2857,10.8844 22.2041,8.7075 34.8299,17.415 44.8435,29.6054 48.7619,37.4422" stroke="#0000ff" stroke-width="2" /><polyline fill="none" points="82.7211,46.1497 86.6395,43.5374 98.8299,28.2993 109.2789,26.5578 112.7619,28.7347 118.4218,41.3605 119.2925,50.9388 112.7619,57.9048 100.5714,60.517" stroke="#0080ff" stroke-width="2" /><polyline fill="none" points="37.8776,64.4354 22.6395,61.8231 14.3673,57.9048" stroke="#15ffe1" stroke-width="2" /><polyline fill="none" points="36.5714,75.7551 20.0272,83.1565" stroke="#7cff79" stroke-width="2" /><polyline fill="none" points="45.7143,91.4286 25.6871,98.8299" stroke="#e4ff12" stroke-width="2" /><polyline fill="none" points="81.8503,73.5782 98.8299,67.483 108.4082,66.6122" stroke="#ff9400" stroke-width="2" /><polyline fill="none" points="77.932,86.2041 81.8503,86.2041 105.3605,94.0408" stroke="#ff1d00" stroke-width="2" /><polyline fill="none" points="75.3197,97.9592 98.3946,106.2313" stroke="#7f0000" stroke-width="2" /></svg>