<?xml version="1.0" encoding="utf-8" ?>
<svg baseProfile="tiny" height="128" version="1.2" viewBox="0,0,128,128" width="128" xmlns="http://www.w3.org/2000/svg" xmlns:ev="http://www.w3.org/2001/xml-events" xmlns:xlink="http://www.w3.org/1999/xlink"><defs /><polyline fill="none" points="75.9322,37.3153 68.5559,37.7492 68.5559,42.9559 71.1593,43.3898 72.8949,41.6542 74.6305,37.3153 74.1966,33.8441 73.3288,33.8441" stroke="#00007f" stroke-width="2" /><polyline fill="none" points="68.9898,37.7492 69.4237,32.1085 70.7254,37.7492" stroke="#0000d1" stroke-width="2" /><polyline fill="none" points="72.461,37.3153 76.3661,31.2407 75.4983,39.9186" stroke="#0010ff" stroke-width="2" /><polyline fill="none" points="70.2915,38.6169 70.2915,38.6169" stroke="#0058ff" stroke-width="2" /><polyline fill="none" points="69.4237,39.0508 70.7254,39.4847" stroke="#00a4ff" stroke-width="2" /><polyline fill="none" points="71.5932,39.4847 71.5932,39.4847" stroke="#05ecf1" stroke-width="2" /><polyline fill="none" points="72.461,38.6169 72.461,38.6169" stroke="#3fffb7" stroke-width="2" /><polyline fill="none" points="70.7254,40.7864 71.5932,40.7864" stroke="#7cff79" stroke-width="2" /><polyline fill="none" points="67.6881,41.6542 59.878,45.5593 56.4068,49.8983 62.9153,51.2 69.4237,43.3898" stroke="#b7ff3f" stroke-width="2" /><polyline fill="none" points="56.8407,50.3322 56.8407,55.539 57.7085,52.9356" stroke="#f1fc05" stroke-width="2" /><polyline fill="none" points="58.1424,51.6339 58.5763,55.9729 59.4441,53.8034" stroke="#ffb900" stroke-width="2" /><polyline fill="none" points="60.3119,51.2 60.7458,55.9729 60.7458,52.5017" stroke="#ff7300" stroke-width="2" /><polyline fill="none" points="61.6136,49.8983 61.6136,55.1051" stroke="#ff3000" stroke-width="2" /><polyline fill="none" points="60.3119,44.6915 57.2746,44.6915 50.7661,40.3525 48.5966,40.7864 47.7288,43.3898 49.8983,47.7288 52.5017,49.4644 56.4068,49.4644" stroke="#d10000" stroke-width="2" /><polyline fill="none" points="87.6475,25.6 82.4407,21.261 64.6508,13.0169 49.0305,9.1119 41.2203,8.678 35.1458,11.7153 23.8644,26.0339 19.9593,35.5797 18.6576,42.9559 19.0915,54.2373 23.4305,63.3492 30.3729,67.6881 40.3525,70.2915 61.1797,72.461 76.8,67.2542 80.7051,62.9153 83.3085,57.2746 85.0441,42.0881 82.4407,19.0915 75.0644,16.922 66.3864,16.922 42.522,20.8271 19.9593,29.5051 9.5458,37.3153 8.678,40.3525 12.1492,41.2203 49.0305,42.522 50.3322,42.9559 48.5966,43.8237 39.4847,45.9932 18.2237,46.861 32.5424,39.9186 52.0678,32.9763 84.6102,25.1661 119.322,22.5627 107.6068,26.4678 82.4407,29.939 45.5593,32.1085 18.6576,32.1085 44.2576,34.278 60.7458,38.1831 83.7424,47.2949 97.1932,55.1051 101.9661,61.1797 99.3627,62.9153 87.2136,65.5186 59.4441,65.9525 44.2576,64.2169 12.5831,57.7085 44.2576,57.7085 69.8576,61.1797" stroke="#7f0000" stroke-width="2" /></svg>