<?xml version="1.0" encoding="utf-8" ?>
<svg baseProfile="tiny" height="128" version="1.2" viewBox="0,0,128,128" width="128" xmlns="http://www.w3.org/2000/svg" xmlns:ev="http://www.w3.org/2001/xml-events" xmlns:xlink="http://www.w3.org/1999/xlink"><defs /><polyline fill="none" points="28.6373,25.1661 14.3186,31.2407 9.1119,37.3153 8.678,43.3898 9.9797,49.4644 12.5831,53.8034 17.7898,57.2746 32.1085,55.1051 38.6169,51.6339 47.2949,45.5593 50.7661,40.7864 52.9356,34.7119 53.3695,29.0712 51.6339,24.2983 49.4644,20.8271 45.1254,17.7898 38.6169,17.3559 33.8441,18.2237 23.8644,23.4305" stroke="#00007f" stroke-width="2" /><polyline fill="none" points="29.0712,38.6169 37.3153,38.6169 40.3525,37.3153 39.4847,36.8814" stroke="#0000e8" stroke-width="2" /><polyline fill="none" points="28.2034,42.522 37.3153,40.7864" stroke="#0038ff" stroke-width="2" /><polyline fill="none" points="24.7322,39.4847 14.3186,41.6542" stroke="#0094ff" stroke-width="2" /><polyline fill="none" points="22.1288,41.6542 12.1492,46.861" stroke="#0cf4ea" stroke-width="2" /><polyline fill="none" points="18.6576,46.4271 22.5627,48.5966 24.2983,45.9932 29.5051,46.861 32.1085,43.8237" stroke="#56ffa0" stroke-width="2" /><polyline fill="none" points="37.3153,25.1661 37.3153,27.7695 38.1831,25.1661 35.5797,26.9017" stroke="#a0ff56" stroke-width="2" /><polyline fill="none" points="22.1288,29.0712 22.1288,30.8068 23.4305,30.8068 25.1661,27.7695 26.4678,26.9017" stroke="#eaff0c" stroke-width="2" /><polyline fill="none" points="43.3898,15.6203 49.8983,8.678 52.5017,17.3559" stroke="#ffaa00" stroke-width="2" /><polyline fill="none" points="12.1492,31.6746 14.7525,12.1492 22.5627,19.0915 23.8644,21.261" stroke="#ff5500" stroke-width="2" /><polyline fill="none" points="23.4305,57.2746 27.7695,61.6136 39.9186,65.5186 55.9729,66.3864 79.4034,63.7831 88.0814,58.5763 93.2881,52.5017 92.8542,47.2949 89.3831,43.3898 78.5356,42.0881 66.8203,42.0881 45.1254,49.0305" stroke="#e80000" stroke-width="2" /><polyline fill="none" points="88.0814,42.522 91.9864,29.5051 97.1932,27.7695 106.739,29.939 111.5119,23.8644 112.8136,16.4881 115.4169,16.4881 118.8881,20.8271 119.322,23.4305 101.0983,33.4102 96.3254,38.1831 92.8542,44.6915" stroke="#7f0000" stroke-width="2" /></svg>