<?xml version="1.0" encoding="utf-8" ?>
<svg baseProfile="tiny" height="128" version="1.2" viewBox="0,0,128,128" width="128" xmlns="http://www.w3.org/2000/svg" xmlns:ev="http://www.w3.org/2001/xml-events" xmlns:xlink="http://www.w3.org/1999/xlink"><defs /><polyline fill="none" points="95.8915,12.1492 68.5559,16.0542 56.8407,19.0915 40.3525,30.8068 36.0136,37.7492 32.9763,48.5966 32.9763,58.1424 34.7119,65.0847 44.6915,74.6305 60.3119,84.1763 64.6508,89.3831 68.122,90.2508 86.7797,78.5356 103.2678,61.6136 114.1153,45.9932 119.322,31.6746 119.322,17.3559 115.4169,11.7153 111.9458,10.4136 100.6644,8.678 77.6678,17.3559" stroke="#00007f" stroke-width="2" /><polyline fill="none" points="56.4068,39.4847 50.3322,40.7864 49.8983,43.8237 52.0678,45.1254 53.3695,45.5593 59.0102,40.7864" stroke="#0000e8" stroke-width="2" /><polyline fill="none" points="90.2508,38.1831 83.3085,41.2203 86.3458,42.522 88.9492,39.9186 89.3831,37.3153 86.7797,39.0508 85.9119,43.8237" stroke="#0038ff" stroke-width="2" /><polyline fill="none" points="71.1593,57.7085 68.122,59.878 68.5559,58.1424" stroke="#0094ff" stroke-width="2" /><polyline fill="none" points="67.2542,71.5932 83.7424,68.9898 106.3051,62.4814 119.322,52.9356" stroke="#0cf4ea" stroke-width="2" /><polyline fill="none" points="69.8576,74.6305 77.2339,75.0644 79.8373,77.6678 75.9322,77.6678" stroke="#56ffa0" stroke-width="2" /><polyline fill="none" points="67.2542,75.0644 80.7051,75.0644 102.8339,77.6678" stroke="#a0ff56" stroke-width="2" /><polyline fill="none" points="73.7627,75.0644 73.3288,78.1017 76.8,79.8373 95.0237,84.1763 104.1356,88.0814" stroke="#eaff0c" stroke-width="2" /><polyline fill="none" points="63.7831,71.1593 54.6712,69.8576 36.0136,64.2169 25.1661,59.0102" stroke="#ffaa00" stroke-width="2" /><polyline fill="none" points="61.1797,71.1593 10.8475,73.7627 22.9966,75.0644" stroke="#ff5500" stroke-width="2" /><polyline fill="none" points="59.878,71.1593 37.3153,81.139 15.6203,88.5153 8.678,95.8915 8.678,97.6271" stroke="#e80000" stroke-width="2" /><polyline fill="none" points="42.9559,24.2983 41.2203,21.261 41.2203,15.1864 50.7661,8.678 47.2949,17.3559 51.2,20.8271" stroke="#7f0000" stroke-width="2" /></svg>