<?xml version="1.0" encoding="utf-8" ?>
<svg baseProfile="tiny" height="128" version="1.2" viewBox="0,0,128,128" width="128" xmlns="http://www.w3.org/2000/svg" xmlns:ev="http://www.w3.org/2001/xml-events" xmlns:xlink="http://www.w3.org/1999/xlink"><defs /><polyline fill="none" points="67.6881,63.7831 68.5559,55.9729 66.3864,53.8034 60.3119,51.2 52.0678,51.2 42.9559,53.8034 25.1661,62.9153 14.3186,72.8949 10.8475,81.139 11.2814,94.5898 13.4508,101.9661 18.6576,111.078 27.3356,117.5864 33.8441,119.322 43.3898,118.4542 58.5763,112.3797 67.2542,107.1729 75.0644,100.2305 82.0068,87.6475 82.4407,76.8 81.139,72.0271 76.3661,65.9525 63.3492,57.2746 41.2203,51.6339" stroke="#00007f" stroke-width="2" /><polyline fill="none" points="8.678,63.3492 16.4881,27.3356 19.9593,19.5254 21.261,20.8271 26.0339,63.7831" stroke="#0028ff" stroke-width="2" /><polyline fill="none" points="58.1424,55.539 62.9153,46.4271 72.461,17.7898 77.2339,8.678 77.2339,53.8034" stroke="#00d4ff" stroke-width="2" /><polyline fill="none" points="34.7119,71.1593 30.3729,75.9322 36.0136,72.461 34.278,72.0271 35.1458,72.8949" stroke="#7cff79" stroke-width="2" /><polyline fill="none" points="36.4475,69.8576 36.4475,69.8576" stroke="#ffe500" stroke-width="2" /><polyline fill="none" points="56.4068,71.5932 53.3695,73.7627 53.3695,75.9322 59.0102,74.1966 58.1424,72.461 55.9729,72.461 52.9356,74.6305 53.8034,75.4983" stroke="#ff4600" stroke-width="2" /><polyline fill="none" points="29.5051,88.5153 34.7119,99.3627 40.7864,102.4 50.3322,101.9661 56.4068,98.061 57.7085,94.5898" stroke="#7f0000" stroke-width="2" /></svg>