<?xml version="1.0" encoding="utf-8" ?>
<svg baseProfile="tiny" height="128" version="1.2" viewBox="0,0,128,128" width="128" xmlns="http://www.w3.org/2000/svg" xmlns:ev="http://www.w3.org/2001/xml-events" xmlns:xlink="http://www.w3.org/1999/xlink"><defs /><polyline fill="none" points="100.6644,55.9729 100.6644,55.9729" stroke="#00007f" stroke-width="2" /><polyline fill="none" points="71.5932,14.7525 72.0271,26.0339 70.7254,40.3525 75.0644,45.1254 89.3831,51.6339 99.7966,51.6339 106.739,49.4644 111.9458,40.3525 118.0203,33.8441 119.322,24.2983 118.0203,15.6203 114.5492,8.678 111.5119,20.8271 108.0407,23.4305 98.061,25.6 84.6102,24.7322 77.2339,19.5254 75.9322,16.0542 72.461,13.8847 71.5932,11.2814" stroke="#0080ff" stroke-width="2" /><polyline fill="none" points="89.8169,39.0508 90.2508,36.8814 93.722,35.5797 94.5898,40.3525 93.2881,41.6542 88.5153,38.6169" stroke="#7cff79" stroke-width="2" /><polyline fill="none" points="77.2339,45.9932 37.7492,39.0508 30.8068,27.3356 23.4305,18.6576 15.6203,9.9797 9.9797,8.678 8.678,19.9593 18.6576,35.5797 23.4305,50.7661 23.4305,74.1966 28.2034,78.5356 35.1458,80.7051 38.6169,80.7051 43.3898,76.3661 48.5966,68.9898 48.5966,65.5186 55.9729,68.5559 68.9898,68.9898 72.461,76.8 82.0068,83.7424 95.4576,84.6102 97.1932,82.4407 97.1932,77.2339 93.722,71.5932 93.2881,59.878 96.3254,57.2746 100.2305,50.3322" stroke="#ff9400" stroke-width="2" /><polyline fill="none" points="75.9322,33.4102 69.8576,32.9763 65.0847,30.8068" stroke="#7f0000" stroke-width="2" /></svg>