<?xml version="1.0" encoding="utf-8" ?>
<svg baseProfile="tiny" height="128" version="1.2" viewBox="0,0,128,128" width="128" xmlns="http://www.w3.org/2000/svg" xmlns:ev="http://www.w3.org/2001/xml-events" xmlns:xlink="http://www.w3.org/1999/xlink"><defs /><polyline fill="none" points="70.2915,35.5797 56.8407,34.7119 45.9932,38.1831 34.278,45.5593 23.4305,55.1051 19.5254,60.3119 15.1864,74.1966 14.7525,100.2305 19.0915,108.4746 26.4678,114.9831 32.5424,118.4542 42.0881,119.322 55.9729,119.322 62.0475,116.7186 76.3661,103.2678 88.0814,81.5729 90.6847,71.1593 90.6847,52.5017 87.6475,44.2576 82.4407,36.4475 77.2339,31.6746 68.9898,27.7695" stroke="#00007f" stroke-width="2" /><polyline fill="none" points="83.7424,36.4475 85.0441,33.8441 92.8542,28.6373 111.078,19.0915 112.3797,29.5051 111.078,39.9186 106.739,52.9356 101.5322,59.4441 94.1559,62.0475" stroke="#004cff" stroke-width="2" /><polyline fill="none" points="55.9729,32.5424 31.6746,22.1288 8.678,8.678 9.1119,31.6746 13.0169,48.1627 18.6576,61.1797" stroke="#29ffcd" stroke-width="2" /><polyline fill="none" points="47.7288,55.9729 47.2949,55.539" stroke="#cdff29" stroke-width="2" /><polyline fill="none" points="74.1966,58.1424 74.6305,58.1424" stroke="#ff6700" stroke-width="2" /><polyline fill="none" points="40.3525,77.6678 40.7864,95.8915 43.3898,105.0034 45.1254,106.739 49.4644,107.1729 62.4814,95.0237" stroke="#7f0000" stroke-width="2" /></svg>