<?xml version="1.0" encoding="utf-8" ?>
<svg baseProfile="tiny" height="128" version="1.2" viewBox="0,0,128,128" width="128" xmlns="http://www.w3.org/2000/svg" xmlns:ev="http://www.w3.org/2001/xml-events" xmlns:xlink="http://www.w3.org/1999/xlink"><defs /><polyline fill="none" points="71.1593,23.8644 62.0475,36.4475 61.6136,42.9559 65.9525,49.0305 74.1966,49.8983 84.1763,46.861 88.9492,42.9559 89.8169,38.1831 88.5153,30.8068 84.6102,26.9017 72.8949,22.9966 69.4237,22.9966" stroke="#00007f" stroke-width="2" /><polyline fill="none" points="59.878,33.4102 61.1797,26.0339 66.3864,13.4508 69.8576,8.678 71.1593,24.7322" stroke="#0000fe" stroke-width="2" /><polyline fill="none" points="85.478,25.1661 91.1186,14.7525 90.6847,30.8068" stroke="#0060ff" stroke-width="2" /><polyline fill="none" points="66.8203,53.8034 59.878,79.4034 58.1424,81.5729 52.0678,80.2712 45.1254,83.3085 39.0508,95.8915 38.6169,102.4 45.1254,111.9458 50.3322,115.4169 61.1797,118.4542 68.122,118.8881 76.3661,113.6814 84.1763,106.3051 89.8169,94.5898" stroke="#00d4ff" stroke-width="2" /><polyline fill="none" points="91.5525,89.3831 91.5525,78.5356 82.0068,74.1966 75.9322,65.0847 75.0644,59.4441 78.9695,47.7288 77.2339,38.6169" stroke="#4cffaa" stroke-width="2" /><polyline fill="none" points="36.0136,100.6644 30.3729,99.3627 19.0915,91.9864 9.9797,80.7051 8.678,73.3288" stroke="#aaff4c" stroke-width="2" /><polyline fill="none" points="43.8237,97.6271 39.4847,97.1932 24.7322,82.4407 13.0169,72.0271 9.1119,71.1593" stroke="#ffe500" stroke-width="2" /><polyline fill="none" points="60.7458,100.6644 59.4441,110.6441 55.1051,111.5119 55.1051,114.9831 55.9729,118.0203 59.0102,119.322 62.4814,118.0203 64.6508,114.5492 59.878,112.3797" stroke="#ff7a00" stroke-width="2" /><polyline fill="none" points="68.122,98.061 65.5186,101.5322 65.5186,107.6068" stroke="#fe1200" stroke-width="2" /><polyline fill="none" points="77.6678,98.061 77.6678,98.061" stroke="#7f0000" stroke-width="2" /></svg>