<?xml version="1.0" encoding="utf-8" ?>
<svg baseProfile="tiny" height="128" version="1.2" viewBox="0,0,128,128" width="128" xmlns="http://www.w3.org/2000/svg" xmlns:ev="http://www.w3.org/2001/xml-events" xmlns:xlink="http://www.w3.org/1999/xlink"><defs /><polyline fill="none" points="63.7831,50.3322 62.9153,55.539 64.2169,56.8407 66.3864,54.2373 63.7831,51.6339 67.2542,55.539 81.139,55.9729 95.4576,54.2373 107.6068,49.4644 86.3458,36.4475 79.8373,31.2407 70.7254,27.3356 71.5932,28.6373 58.5763,48.5966 51.6339,66.8203 48.5966,70.7254 40.7864,70.7254 55.539,70.7254 63.7831,64.6508 77.2339,48.1627 91.1186,20.8271 102.4,8.678 110.6441,8.678 85.9119,8.678 70.7254,11.7153 49.4644,24.7322 27.7695,43.8237 9.9797,65.0847 8.678,70.7254 41.6542,70.2915 67.2542,62.4814 118.8881,29.5051 119.322,8.678 109.7763,10.4136 85.0441,23.4305 8.678,70.7254 27.3356,56.4068 76.3661,10.4136 119.322,8.678 103.2678,12.1492 84.1763,23.8644 43.8237,55.539 8.678,70.7254 11.7153,70.7254 40.3525,55.539 83.7424,26.4678 104.5695,10.4136 118.8881,8.678 112.8136,9.9797 73.7627,32.9763 29.5051,65.5186 8.678,70.7254 14.3186,67.2542 48.1627,35.5797 71.1593,11.2814 119.322,8.678 115.4169,9.5458 102.4,17.7898 62.9153,49.4644 20.8271,70.7254 8.678,70.7254 15.1864,67.6881 55.1051,35.5797 106.739,8.678 119.322,8.678 118.0203,11.7153 109.3424,22.9966 68.5559,58.5763 26.4678,70.7254 9.5458,70.7254 22.9966,69.4237 93.2881,11.7153 119.322,8.678 31.2407,64.2169 8.678,70.7254 66.8203,19.9593 91.1186,8.678 119.322,9.1119 117.1525,12.1492 52.9356,70.7254 20.8271,70.7254 26.9017,69.8576 89.8169,25.1661 118.8881,8.678 106.3051,20.3932 70.7254,59.878 110.2102,21.6949 119.322,8.678 84.1763,34.278 62.4814,54.2373 95.4576,19.0915 119.322,8.678 69.4237,62.4814 109.7763,22.5627 119.322,8.678 90.2508,39.9186 58.5763,70.7254 78.1017,53.3695" stroke="#00007f" stroke-width="2" /><polyline fill="none" points="78.1017,53.3695 78.1017,53.3695" stroke="#7f0000" stroke-width="2" /></svg>