<?xml version="1.0" encoding="utf-8" ?>
<svg baseProfile="tiny" height="128" version="1.2" viewBox="0,0,128,128" width="128" xmlns="http://www.w3.org/2000/svg" xmlns:ev="http://www.w3.org/2001/xml-events" xmlns:xlink="http://www.w3.org/1999/xlink"><defs /><polyline fill="none" points="32.9763,22.5627 30.8068,13.8847 31.2407,9.5458 35.1458,9.9797 45.1254,18.2237" stroke="#00007f" stroke-width="2" /><polyline fill="none" points="81.5729,22.5627 91.1186,11.7153 95.4576,8.678 98.9288,16.922 98.9288,24.7322" stroke="#0000e8" stroke-width="2" /><polyline fill="none" points="91.9864,24.7322 87.2136,21.6949 65.0847,18.6576 45.9932,18.2237 33.4102,21.6949 24.7322,30.8068 23.4305,38.1831 26.9017,48.5966 36.8814,59.4441 51.6339,64.2169 69.8576,64.6508 81.139,60.7458 92.8542,50.7661 99.3627,37.3153 99.3627,25.6 95.0237,20.3932 90.2508,17.3559 79.8373,17.7898" stroke="#0038ff" stroke-width="2" /><polyline fill="none" points="42.9559,51.6339 52.0678,51.6339 58.1424,47.7288 60.3119,44.2576 62.4814,47.7288 69.8576,52.0678 80.7051,52.0678" stroke="#0094ff" stroke-width="2" /><polyline fill="none" points="45.1254,28.2034 45.5593,33.4102 46.861,33.8441 47.7288,32.5424 47.2949,29.0712 46.861,32.5424 48.5966,32.5424 48.5966,31.2407" stroke="#0cf4ea" stroke-width="2" /><polyline fill="none" points="79.4034,32.9763 78.9695,35.5797 81.5729,36.4475 78.9695,32.9763" stroke="#56ffa0" stroke-width="2" /><polyline fill="none" points="81.5729,48.1627 103.2678,38.1831 118.4542,32.9763" stroke="#a0ff56" stroke-width="2" /><polyline fill="none" points="84.6102,49.8983 119.322,56.8407" stroke="#eaff0c" stroke-width="2" /><polyline fill="none" points="85.9119,52.5017 104.1356,74.1966" stroke="#ffaa00" stroke-width="2" /><polyline fill="none" points="39.4847,45.5593 26.4678,40.3525 8.678,36.4475" stroke="#ff5500" stroke-width="2" /><polyline fill="none" points="34.7119,45.1254 22.9966,52.5017 11.2814,62.4814" stroke="#e80000" stroke-width="2" /><polyline fill="none" points="41.6542,43.3898 29.5051,58.5763" stroke="#7f0000" stroke-width="2" /></svg>