<?xml version="1.0" encoding="utf-8" ?>
<svg baseProfile="tiny" height="128" version="1.2" viewBox="0,0,128,128" width="128" xmlns="http://www.w3.org/2000/svg" xmlns:ev="http://www.w3.org/2001/xml-events" xmlns:xlink="http://www.w3.org/1999/xlink"><defs /><polyline fill="none" points="70.2915,55.9729 61.1797,52.5017 45.5593,52.5017 30.3729,59.4441 25.1661,66.3864 24.2983,71.1593 24.7322,76.8 28.2034,85.0441 36.4475,95.0237 45.5593,101.0983 52.5017,104.1356 68.5559,105.0034 101.5322,98.4949 96.3254,78.9695 87.6475,64.2169 82.0068,57.7085 75.4983,52.9356 66.8203,49.4644" stroke="#00007f" stroke-width="2" /><polyline fill="none" points="41.2203,48.5966 42.522,35.1458 46.861,25.6 50.7661,20.8271 52.5017,21.261 53.8034,26.0339 56.4068,47.2949" stroke="#0000fe" stroke-width="2" /><polyline fill="none" points="72.461,48.5966 72.8949,45.1254 82.0068,27.7695 95.8915,12.1492 104.5695,8.678 103.7017,16.922 92.4203,54.6712 88.0814,63.3492" stroke="#0060ff" stroke-width="2" /><polyline fill="none" points="49.4644,67.2542 49.4644,67.2542" stroke="#00d4ff" stroke-width="2" /><polyline fill="none" points="43.3898,67.6881 44.2576,67.2542" stroke="#4cffaa" stroke-width="2" /><polyline fill="none" points="75.4983,72.0271 75.0644,72.0271" stroke="#aaff4c" stroke-width="2" /><polyline fill="none" points="74.1966,72.0271 73.7627,72.0271" stroke="#ffe500" stroke-width="2" /><polyline fill="none" points="42.522,88.0814 39.0508,88.0814 8.678,105.4373" stroke="#ff7a00" stroke-width="2" /><polyline fill="none" points="38.6169,90.2508 23.4305,115.8508" stroke="#fe1200" stroke-width="2" /><polyline fill="none" points="39.9186,91.5525 40.3525,119.322" stroke="#7f0000" stroke-width="2" /></svg>