<?xml version="1.0" encoding="utf-8" ?>
<svg baseProfile="tiny" height="128" version="1.2" viewBox="0,0,128,128" width="128" xmlns="http://www.w3.org/2000/svg" xmlns:ev="http://www.w3.org/2001/xml-events" xmlns:xlink="http://www.w3.org/1999/xlink"><defs /><polyline fill="none" points="55.6712,23.2329 52.6027,21.4795 48.2192,21.9178 36.3836,29.3699 29.8082,39.0137 26.7397,53.0411 26.3014,59.1781 31.1233,72.7671 39.0137,81.9726 46.9041,86.3562 58.7397,87.6712 70.137,81.9726 84.1644,69.2603 88.9863,53.9178 89.4247,42.5205 84.1644,29.8082 78.4658,21.9178 70.5753,14.4658 48.6575,17.9726 42.0822,23.2329 40.7671,26.3014" stroke="#00007f" stroke-width="2" /><polyline fill="none" points="33.3151,31.5616 33.3151,17.5342 41.2055,23.6712" stroke="#0000fe" stroke-width="2" /><polyline fill="none" points="71.0137,12.7123 82.411,8.7671 80.6575,19.726" stroke="#0060ff" stroke-width="2" /><polyline fill="none" points="59.6164,58.7397 80.6575,52.1644 99.9452,48.2192" stroke="#00d4ff" stroke-width="2" /><polyline fill="none" points="61.8082,59.6164 119.2329,64.0" stroke="#4cffaa" stroke-width="2" /><polyline fill="none" points="63.1233,60.9315 95.1233,87.6712" stroke="#aaff4c" stroke-width="2" /><polyline fill="none" points="58.3014,58.7397 8.7671,48.2192" stroke="#ffe500" stroke-width="2" /><polyline fill="none" points="56.5479,58.7397 13.589,74.9589" stroke="#ff7a00" stroke-width="2" /><polyline fill="none" points="60.0548,60.4932 43.8356,73.2055 33.7534,92.9315 33.3151,90.7397" stroke="#fe1200" stroke-width="2" /><polyline fill="none" points="46.0274,32.0 45.589,35.0685 46.9041,36.3836" stroke="#7f0000" stroke-width="2" /></svg>