<?xml version="1.0" encoding="utf-8" ?>
<svg baseProfile="tiny" height="128" version="1.2" viewBox="0,0,128,128" width="128" xmlns="http://www.w3.org/2000/svg" xmlns:ev="http://www.w3.org/2001/xml-events" xmlns:xlink="http://www.w3.org/1999/xlink"><defs /><polyline fill="none" points="100.6644,16.4881 92.8542,19.0915 90.2508,22.9966 89.8169,26.4678 92.8542,30.8068 96.7593,32.9763 107.1729,34.7119 114.5492,31.2407 116.2847,28.2034 115.4169,24.2983 111.5119,19.9593 103.7017,15.6203 98.9288,14.7525 95.8915,16.4881" stroke="#00007f" stroke-width="2" /><polyline fill="none" points="89.8169,19.5254 78.1017,15.1864 37.7492,8.678 16.0542,9.9797 10.8475,12.5831 8.678,16.0542 9.9797,22.9966 17.7898,32.5424 29.5051,40.3525 42.9559,45.1254 59.878,45.9932 74.6305,43.3898 82.8746,39.0508 85.478,35.1458 86.7797,29.0712" stroke="#0000f1" stroke-width="2" /><polyline fill="none" points="19.5254,36.4475 22.1288,56.4068" stroke="#004cff" stroke-width="2" /><polyline fill="none" points="40.3525,45.5593 39.9186,52.0678 42.0881,56.4068" stroke="#00b0ff" stroke-width="2" /><polyline fill="none" points="62.0475,46.861 63.3492,56.4068" stroke="#29ffcd" stroke-width="2" /><polyline fill="none" points="76.3661,39.9186 81.5729,47.2949" stroke="#7cff79" stroke-width="2" /><polyline fill="none" points="97.1932,16.4881 100.6644,9.5458 103.2678,16.4881" stroke="#cdff29" stroke-width="2" /><polyline fill="none" points="109.3424,17.3559 117.5864,14.7525 113.2475,23.4305" stroke="#ffc400" stroke-width="2" /><polyline fill="none" points="111.9458,26.4678 119.322,28.2034" stroke="#ff6700" stroke-width="2" /><polyline fill="none" points="110.6441,29.5051 119.322,31.6746" stroke="#f10700" stroke-width="2" /><polyline fill="none" points="112.8136,28.2034 119.322,36.4475" stroke="#7f0000" stroke-width="2" /></svg>