<?xml version="1.0" encoding="utf-8" ?>
<svg baseProfile="tiny" height="128" version="1.2" viewBox="0,0,128,128" width="128" xmlns="http://www.w3.org/2000/svg" xmlns:ev="http://www.w3.org/2001/xml-events" xmlns:xlink="http://www.w3.org/1999/xlink"><defs /><polyline fill="none" points="74.6305,22.9966 66.3864,17.3559 56.8407,16.922 55.1051,19.5254 55.1051,25.6 56.8407,30.8068 62.0475,31.2407 70.2915,26.0339 71.1593,22.9966 69.8576,18.6576" stroke="#00007f" stroke-width="2" /><polyline fill="none" points="67.6881,20.3932 69.8576,16.4881 76.3661,11.7153 78.1017,12.5831 77.2339,16.4881 73.7627,21.261 72.0271,20.3932" stroke="#0000b6" stroke-width="2" /><polyline fill="none" points="72.0271,21.6949 77.6678,20.3932 90.6847,23.8644 94.1559,28.2034 90.2508,31.6746 83.7424,33.8441 78.1017,33.4102 62.9153,26.0339" stroke="#0000f1" stroke-width="2" /><polyline fill="none" points="70.2915,32.1085 67.6881,32.5424 64.2169,39.0508 67.2542,39.4847 70.7254,36.8814 71.1593,30.8068" stroke="#0018ff" stroke-width="2" /><polyline fill="none" points="81.139,33.8441 81.139,41.6542 83.7424,41.2203 85.0441,36.8814 82.0068,32.5424" stroke="#004cff" stroke-width="2" /><polyline fill="none" points="87.2136,32.9763 88.5153,39.9186 89.8169,36.0136 87.2136,33.4102" stroke="#0080ff" stroke-width="2" /><polyline fill="none" points="73.7627,31.6746 75.0644,37.3153 76.3661,35.5797 75.0644,31.6746" stroke="#00b0ff" stroke-width="2" /><polyline fill="none" points="93.722,25.1661 102.4,24.2983 116.2847,12.1492 119.322,12.1492 118.8881,16.4881 117.1525,20.8271 113.2475,24.2983 102.4,24.2983 96.7593,25.1661 94.1559,28.2034 92.8542,28.2034" stroke="#00e4f7" stroke-width="2" /><polyline fill="none" points="64.2169,22.5627 71.1593,25.6" stroke="#29ffcd" stroke-width="2" /><polyline fill="none" points="64.2169,25.1661 68.9898,29.0712" stroke="#53ffa3" stroke-width="2" /><polyline fill="none" points="62.4814,26.4678 68.122,31.6746" stroke="#7cff79" stroke-width="2" /><polyline fill="none" points="62.0475,28.6373 64.6508,35.1458" stroke="#a3ff53" stroke-width="2" /><polyline fill="none" points="60.3119,29.5051 61.6136,31.2407 62.0475,36.8814" stroke="#cdff29" stroke-width="2" /><polyline fill="none" points="59.4441,19.5254 59.0102,20.8271 60.3119,21.261" stroke="#f7f400" stroke-width="2" /><polyline fill="none" points="8.678,14.3186 9.5458,19.0915 9.9797,12.1492 13.4508,8.678 17.7898,13.0169 20.8271,11.7153 23.4305,16.0542" stroke="#ffc400" stroke-width="2" /><polyline fill="none" points="24.7322,13.8847 27.3356,15.6203 29.5051,13.0169" stroke="#ff9400" stroke-width="2" /><polyline fill="none" points="29.0712,11.2814 27.3356,13.0169 26.9017,15.6203 29.939,18.6576 30.8068,16.4881" stroke="#ff6700" stroke-width="2" /><polyline fill="none" points="34.7119,12.1492 34.278,14.7525 35.1458,17.7898 39.4847,16.0542" stroke="#ff3700" stroke-width="2" /><polyline fill="none" points="39.9186,15.1864 42.9559,19.0915" stroke="#f10700" stroke-width="2" /><polyline fill="none" points="45.9932,12.1492 44.6915,13.4508 45.1254,16.922 49.0305,17.7898 51.6339,15.6203 52.5017,11.7153" stroke="#b60000" stroke-width="2" /><polyline fill="none" points="36.8814,11.7153 34.278,14.7525 39.9186,19.9593 41.6542,19.9593 44.2576,16.0542 39.9186,13.0169" stroke="#7f0000" stroke-width="2" /></svg>