<?xml version="1.0" encoding="utf-8" ?>
<svg baseProfile="tiny" height="128" version="1.2" viewBox="0,0,128,128" width="128" xmlns="http://www.w3.org/2000/svg" xmlns:ev="http://www.w3.org/2001/xml-events" xmlns:xlink="http://www.w3.org/1999/xlink"><defs /><polyline fill="none" points="73.7627,20.3932 63.3492,17.7898 47.2949,19.9593 41.6542,22.5627 35.1458,28.6373 32.9763,31.2407 31.2407,38.1831 31.2407,45.1254 32.5424,51.2 38.1831,60.3119 55.539,68.9898 70.7254,70.7254 79.4034,69.8576 82.8746,62.0475 86.3458,39.0508 86.3458,29.0712 85.478,24.7322 80.2712,20.8271 77.2339,19.9593 63.7831,19.5254" stroke="#00007f" stroke-width="2" /><polyline fill="none" points="47.2949,33.8441 47.7288,36.0136" stroke="#0000fe" stroke-width="2" /><polyline fill="none" points="69.8576,29.5051 70.2915,35.1458" stroke="#0060ff" stroke-width="2" /><polyline fill="none" points="55.539,41.2203 50.7661,47.2949 12.1492,53.3695" stroke="#00d4ff" stroke-width="2" /><polyline fill="none" points="50.3322,45.9932 41.6542,55.9729 34.278,61.6136 25.1661,66.8203 9.5458,72.8949" stroke="#4cffaa" stroke-width="2" /><polyline fill="none" points="48.1627,49.0305 47.7288,46.4271 44.6915,43.8237 32.1085,37.3153 8.678,32.1085" stroke="#aaff4c" stroke-width="2" /><polyline fill="none" points="52.5017,42.0881 58.1424,43.8237 84.1763,42.522 97.1932,39.9186 103.2678,36.8814" stroke="#ffe500" stroke-width="2" /><polyline fill="none" points="59.0102,45.9932 60.3119,48.1627 82.4407,55.1051 119.322,60.7458" stroke="#ff7a00" stroke-width="2" /><polyline fill="none" points="61.6136,43.8237 64.2169,45.9932 72.0271,48.1627 106.3051,52.5017" stroke="#fe1200" stroke-width="2" /><polyline fill="none" points="24.2983,26.0339 34.7119,13.4508 42.0881,8.678 49.4644,20.3932" stroke="#7f0000" stroke-width="2" /></svg>