<?xml version="1.0" encoding="utf-8" ?>
<svg baseProfile="tiny" height="128" version="1.2" viewBox="0,0,128,128" width="128" xmlns="http://www.w3.org/2000/svg" xmlns:ev="http://www.w3.org/2001/xml-events" xmlns:xlink="http://www.w3.org/1999/xlink"><defs /><polyline fill="none" points="65.5186,33.4102 52.9356,33.8441 48.1627,37.7492 43.8237,44.6915 42.522,55.539 42.9559,67.6881 48.5966,79.8373 52.9356,85.0441 58.1424,89.3831 66.3864,93.2881 78.5356,93.722 85.478,89.8169 92.8542,82.4407 97.1932,74.6305 97.6271,68.5559 97.6271,63.7831 95.8915,59.4441 85.9119,46.4271 73.7627,36.0136 65.5186,35.5797" stroke="#00007f" stroke-width="2" /><polyline fill="none" points="46.4271,39.9186 46.861,8.678 58.5763,21.261 67.6881,35.1458" stroke="#0000ff" stroke-width="2" /><polyline fill="none" points="77.6678,39.0508 94.1559,17.7898 94.5898,25.6 89.3831,44.6915" stroke="#0080ff" stroke-width="2" /><polyline fill="none" points="78.1017,67.6881 119.322,67.6881" stroke="#15ffe1" stroke-width="2" /><polyline fill="none" points="79.8373,72.8949 118.4542,72.8949" stroke="#7cff79" stroke-width="2" /><polyline fill="none" points="80.7051,81.139 103.2678,81.5729" stroke="#e4ff12" stroke-width="2" /><polyline fill="none" points="54.6712,62.9153 8.678,62.9153" stroke="#ff9400" stroke-width="2" /><polyline fill="none" points="53.3695,67.6881 15.6203,68.9898" stroke="#ff1d00" stroke-width="2" /><polyline fill="none" points="53.8034,74.1966 23.4305,74.1966" stroke="#7f0000" stroke-width="2" /></svg>