<?xml version="1.0" encoding="utf-8" ?>
<svg baseProfile="tiny" height="128" version="1.2" viewBox="0,0,128,128" width="128" xmlns="http://www.w3.org/2000/svg" xmlns:ev="http://www.w3.org/2001/xml-events" xmlns:xlink="http://www.w3.org/1999/xlink"><defs /><polyline fill="none" points="57.9048,35.2653 45.7143,34.3946 38.7483,37.8776 27.8639,49.6327 22.6395,60.9524 20.4626,74.8844 21.3333,89.6871 23.5102,96.2177 30.4762,107.102 39.619,115.3741 51.3741,119.2925 63.1293,118.4218 68.7891,115.3741 78.8027,107.102 82.2857,101.8776 87.5102,85.7687 86.6395,68.3537 83.5918,56.5986 79.2381,47.0204 71.8367,38.3129 63.5646,32.6531 52.2449,31.7823" stroke="#00007f" stroke-width="2" /><polyline fill="none" points="68.7891,35.2653 84.898,11.3197 88.381,8.7075 90.5578,8.7075 87.5102,26.9932 79.2381,48.7619" stroke="#0000f1" stroke-width="2" /><polyline fill="none" points="38.3129,41.7959 23.9456,32.2177 8.7075,25.2517 14.8027,31.7823 26.1224,50.068" stroke="#004cff" stroke-width="2" /><polyline fill="none" points="40.0544,57.4694 43.102,54.8571 49.1973,53.551 55.2925,53.551 55.2925,54.8571 52.6803,56.5986 41.7959,57.034" stroke="#00b0ff" stroke-width="2" /><polyline fill="none" points="59.6463,52.6803 67.9184,50.9388 74.0136,50.9388 74.8844,52.2449 73.5782,53.9864 60.517,54.8571" stroke="#29ffcd" stroke-width="2" /><polyline fill="none" points="55.2925,63.1293 52.2449,74.0136 65.3061,73.1429 60.9524,66.6122 55.7279,63.5646" stroke="#7cff79" stroke-width="2" /><polyline fill="none" points="58.3401,70.966 58.3401,80.5442 55.2925,87.0748 49.1973,88.8163 44.4082,84.4626" stroke="#cdff29" stroke-width="2" /><polyline fill="none" points="60.0816,74.8844 60.9524,79.6735 66.1769,81.415 70.966,79.6735 77.932,74.0136" stroke="#ffc400" stroke-width="2" /><polyline fill="none" points="74.449,66.6122 98.8299,57.9048" stroke="#ff6700" stroke-width="2" /><polyline fill="none" points="77.0612,76.1905 94.0408,71.4014 104.4898,70.0952" stroke="#f10700" stroke-width="2" /><polyline fill="none" points="75.3197,81.8503 93.1701,82.2857 104.4898,85.3333" stroke="#7f0000" stroke-width="2" /></svg>