<?xml version="1.0" encoding="utf-8" ?>
<svg baseProfile="tiny" height="128" version="1.2" viewBox="0,0,128,128" width="128" xmlns="http://www.w3.org/2000/svg" xmlns:ev="http://www.w3.org/2001/xml-events" xmlns:xlink="http://www.w3.org/1999/xlink"><defs /><polyline fill="none" points="54.2373,23.8644 72.461,24.2983 92.8542,32.1085 94.1559,36.4475 94.1559,68.122 90.2508,73.7627 69.4237,73.7627 61.1797,72.8949 40.7864,66.3864 30.3729,55.9729 23.8644,44.2576 22.9966,38.1831 26.0339,35.5797 39.4847,30.8068 60.3119,29.0712" stroke="#00007f" stroke-width="2" /><polyline fill="none" points="49.8983,38.1831 54.6712,38.6169" stroke="#004cff" stroke-width="2" /><polyline fill="none" points="72.0271,39.0508 72.0271,39.0508" stroke="#29ffcd" stroke-width="2" /><polyline fill="none" points="74.6305,37.7492 73.7627,32.9763" stroke="#cdff29" stroke-width="2" /><polyline fill="none" points="86.3458,22.9966 107.6068,12.5831 119.322,8.678 116.2847,17.7898 105.8712,29.939 96.3254,34.7119 89.3831,34.7119" stroke="#ff6700" stroke-width="2" /><polyline fill="none" points="22.9966,32.9763 24.2983,28.6373 22.9966,20.3932 18.2237,14.3186 13.8847,12.5831 10.8475,12.5831 8.678,16.4881 8.678,29.5051 18.6576,41.6542 23.4305,55.1051 28.2034,57.7085" stroke="#7f0000" stroke-width="2" /></svg>