<?xml version="1.0" encoding="utf-8" ?>
<svg baseProfile="tiny" height="128" version="1.2" viewBox="0,0,128,128" width="128" xmlns="http://www.w3.org/2000/svg" xmlns:ev="http://www.w3.org/2001/xml-events" xmlns:xlink="http://www.w3.org/1999/xlink"><defs /><polyline fill="none" points="46.4271,29.5051 35.1458,49.4644 32.1085,62.4814 32.5424,71.1593 38.1831,79.8373 50.7661,87.2136 56.8407,88.9492 65.9525,88.0814 75.4983,86.7797 90.2508,81.139 100.6644,70.7254 101.9661,49.4644 101.5322,42.9559 97.1932,36.8814 81.5729,26.4678 71.5932,24.7322 54.2373,33.4102 43.8237,41.6542" stroke="#00007f" stroke-width="2" /><polyline fill="none" points="27.7695,51.2 13.8847,33.8441 8.678,22.5627 12.1492,20.8271 29.5051,23.8644 39.0508,26.9017 51.6339,34.278" stroke="#004cff" stroke-width="2" /><polyline fill="none" points="86.7797,26.0339 119.322,8.678 102.8339,38.6169 97.1932,52.5017 97.6271,56.8407" stroke="#29ffcd" stroke-width="2" /><polyline fill="none" points="57.2746,52.0678 63.3492,69.4237" stroke="#cdff29" stroke-width="2" /><polyline fill="none" points="70.2915,45.5593 74.6305,59.4441" stroke="#ff6700" stroke-width="2" /><polyline fill="none" points="44.6915,75.9322 59.0102,78.1017 80.7051,78.1017 85.0441,74.1966 89.3831,66.8203" stroke="#7f0000" stroke-width="2" /></svg>