<?xml version="1.0" encoding="utf-8" ?>
<svg baseProfile="tiny" height="128" version="1.2" viewBox="0,0,128,128" width="128" xmlns="http://www.w3.org/2000/svg" xmlns:ev="http://www.w3.org/2001/xml-events" xmlns:xlink="http://www.w3.org/1999/xlink"><defs /><polyline fill="none" points="26.4678,107.1729 23.8644,106.3051 16.922,97.1932 10.4136,82.8746 8.678,66.3864 12.5831,58.1424 16.4881,54.2373" stroke="#00007f" stroke-width="2" /><polyline fill="none" points="16.4881,54.2373 11.2814,19.0915 12.1492,9.5458 15.1864,8.678 17.3559,9.9797 22.1288,16.4881 39.9186,47.2949" stroke="#0028ff" stroke-width="2" /><polyline fill="none" points="38.1831,43.8237 45.5593,42.522 58.1424,42.522 86.3458,44.6915" stroke="#00d4ff" stroke-width="2" /><polyline fill="none" points="85.478,44.6915 85.0441,36.8814 86.3458,29.5051 95.8915,14.3186 98.4949,12.5831 99.3627,9.5458" stroke="#7cff79" stroke-width="2" /><polyline fill="none" points="99.3627,9.5458 106.3051,23.8644 109.7763,42.522" stroke="#ffe500" stroke-width="2" /><polyline fill="none" points="108.0407,42.9559 113.6814,49.4644 119.322,63.7831 116.7186,81.5729 103.2678,102.4 88.9492,113.6814 75.9322,118.4542 56.4068,117.5864 47.2949,114.5492 30.8068,106.3051 26.4678,102.4 25.6,98.4949" stroke="#ff4600" stroke-width="2" /><polyline fill="none" points="57.7085,77.6678 62.4814,80.7051 64.6508,79.4034" stroke="#7f0000" stroke-width="2" /></svg>