<?xml version="1.0" encoding="utf-8" ?>
<svg baseProfile="tiny" height="128" version="1.2" viewBox="0,0,128,128" width="128" xmlns="http://www.w3.org/2000/svg" xmlns:ev="http://www.w3.org/2001/xml-events" xmlns:xlink="http://www.w3.org/1999/xlink"><defs /><polyline fill="none" points="59.2109,29.6054 52.2449,29.1701 47.4558,25.2517 40.0544,24.8163 33.5238,29.1701 27.4286,36.1361 25.2517,43.9728 26.5578,53.9864 30.0408,59.2109 38.3129,65.7415 47.8912,67.483 56.5986,65.7415 62.2585,60.0816 66.1769,53.1156 67.9184,38.7483 66.1769,32.2177 61.8231,27.4286 48.3265,22.6395" stroke="#00007f" stroke-width="2" /><polyline fill="none" points="51.3741,17.415 58.3401,16.1088 66.6122,9.5782 70.5306,8.7075 70.5306,14.8027 67.0476,24.8163 66.6122,30.0408" stroke="#00d4ff" stroke-width="2" /><polyline fill="none" points="35.7007,25.6871 30.4762,24.8163 14.8027,16.1088 9.1429,16.1088 8.7075,22.6395 16.9796,40.4898" stroke="#ffe500" stroke-width="2" /><polyline fill="none" points="74.0136,47.0204 76.6259,45.7143 93.6054,45.7143 97.9592,47.0204 114.5034,57.4694 117.9864,60.9524 119.2925,65.3061 117.551,67.0476 85.7687,73.5782 64.8707,74.0136 59.2109,72.7075" stroke="#7f0000" stroke-width="2" /></svg>