<?xml version="1.0" encoding="utf-8" ?>
<svg baseProfile="tiny" height="128" version="1.2" viewBox="0,0,128,128" width="128" xmlns="http://www.w3.org/2000/svg" xmlns:ev="http://www.w3.org/2001/xml-events" xmlns:xlink="http://www.w3.org/1999/xlink"><defs /><polyline fill="none" points="34.278,8.678 43.3898,9.5458 47.2949,12.5831 46.861,26.9017 41.6542,33.4102 36.0136,33.8441 26.9017,31.6746 18.6576,28.2034 13.4508,23.8644 13.4508,17.3559 16.0542,14.3186 21.261,12.5831 36.0136,11.7153" stroke="#00007f" stroke-width="2" /><polyline fill="none" points="30.8068,15.6203 30.8068,15.6203" stroke="#0000e8" stroke-width="2" /><polyline fill="none" points="19.0915,17.3559 32.9763,18.6576 27.7695,19.0915" stroke="#0038ff" stroke-width="2" /><polyline fill="none" points="39.9186,16.0542 41.6542,19.0915" stroke="#0094ff" stroke-width="2" /><polyline fill="none" points="15.1864,42.522 19.0915,39.9186 27.3356,39.4847 35.5797,44.2576 38.6169,48.5966 39.4847,52.9356 39.4847,62.4814 37.3153,65.9525 27.7695,66.3864 16.0542,62.0475 10.8475,58.1424 8.678,48.5966 10.4136,40.3525 14.7525,35.5797 19.9593,35.1458 21.261,36.0136" stroke="#0cf4ea" stroke-width="2" /><polyline fill="none" points="41.6542,36.8814 66.8203,50.3322 68.9898,53.8034 70.2915,74.6305 67.6881,73.7627 51.6339,66.3864 44.6915,61.1797 41.2203,52.9356 40.7864,44.6915 42.522,42.9559" stroke="#56ffa0" stroke-width="2" /><polyline fill="none" points="42.522,36.8814 43.3898,43.8237" stroke="#a0ff56" stroke-width="2" /><polyline fill="none" points="30.8068,67.2542 33.8441,81.5729 38.1831,87.6475 49.8983,95.0237 79.8373,106.739 78.5356,97.6271 71.1593,85.0441 68.5559,77.6678 66.3864,64.6508" stroke="#eaff0c" stroke-width="2" /><polyline fill="none" points="70.7254,74.6305 67.2542,83.7424 62.0475,89.8169 45.1254,97.6271" stroke="#ffaa00" stroke-width="2" /><polyline fill="none" points="55.539,87.6475 72.461,94.1559 112.8136,105.4373 118.8881,108.0407 119.322,104.5695" stroke="#ff5500" stroke-width="2" /><polyline fill="none" points="32.9763,33.8441 31.2407,42.0881" stroke="#e80000" stroke-width="2" /><polyline fill="none" points="39.0508,34.278 43.8237,37.7492" stroke="#7f0000" stroke-width="2" /></svg>