<?xml version="1.0" encoding="utf-8" ?>
<svg baseProfile="tiny" height="128" version="1.2" viewBox="0,0,128,128" width="128" xmlns="http://www.w3.org/2000/svg" xmlns:ev="http://www.w3.org/2001/xml-events" xmlns:xlink="http://www.w3.org/1999/xlink"><defs /><polyline fill="none" points="29.939,40.3525 42.0881,37.7492 54.2373,39.9186 62.0475,43.8237 75.0644,59.878 78.5356,76.8 75.9322,96.3254 70.2915,106.3051 61.6136,112.8136 52.9356,116.2847 37.7492,119.322 25.6,116.7186 18.6576,111.9458 11.7153,102.4 8.678,86.7797 9.9797,69.4237 15.6203,57.7085 20.3932,50.7661 35.5797,36.4475" stroke="#00007f" stroke-width="2" /><polyline fill="none" points="19.9593,45.5593 21.261,38.6169 22.1288,8.678 26.0339,14.3186 34.278,36.4475" stroke="#004cff" stroke-width="2" /><polyline fill="none" points="61.1797,41.6542 71.1593,15.1864 72.8949,14.7525 73.3288,19.9593 69.8576,53.8034" stroke="#29ffcd" stroke-width="2" /><polyline fill="none" points="60.3119,68.122 63.3492,65.9525 68.5559,68.5559 69.4237,73.3288 65.0847,78.5356 62.0475,78.5356 59.0102,75.0644 59.4441,69.8576 63.3492,67.2542" stroke="#cdff29" stroke-width="2" /><polyline fill="none" points="26.4678,74.6305 31.6746,70.7254 36.4475,73.7627 34.7119,79.8373 30.3729,84.1763 25.6,83.7424 22.9966,77.2339 26.9017,70.2915 29.939,68.9898 30.8068,71.1593" stroke="#ff6700" stroke-width="2" /><polyline fill="none" points="51.6339,90.6847 36.4475,91.1186 35.1458,93.2881 39.0508,99.3627 41.6542,101.0983 44.2576,101.0983 52.5017,96.3254" stroke="#7f0000" stroke-width="2" /></svg>