<?xml version="1.0" encoding="utf-8" ?>
<svg baseProfile="tiny" height="128" version="1.2" viewBox="0,0,128,128" width="128" xmlns="http://www.w3.org/2000/svg" xmlns:ev="http://www.w3.org/2001/xml-events" xmlns:xlink="http://www.w3.org/1999/xlink"><defs /><polyline fill="none" points="50.7661,80.7051 49.8983,84.1763 53.8034,86.3458 55.9729,81.5729 55.539,79.4034 52.0678,78.1017 50.7661,83.7424" stroke="#00007f" stroke-width="2" /><polyline fill="none" points="50.7661,90.2508 50.7661,105.0034 48.5966,108.4746 45.1254,110.2102 41.6542,109.3424 38.6169,98.4949" stroke="#0000e8" stroke-width="2" /><polyline fill="none" points="53.8034,90.2508 55.1051,97.1932 57.2746,100.6644 64.2169,102.4 68.122,99.3627 68.122,98.061" stroke="#0038ff" stroke-width="2" /><polyline fill="none" points="47.2949,83.7424 26.4678,82.0068 22.9966,80.7051" stroke="#0094ff" stroke-width="2" /><polyline fill="none" points="42.0881,91.5525 31.2407,91.5525 21.6949,95.8915" stroke="#0cf4ea" stroke-width="2" /><polyline fill="none" points="52.9356,85.9119 60.3119,84.1763 69.8576,79.4034" stroke="#56ffa0" stroke-width="2" /><polyline fill="none" points="55.9729,90.6847 91.5525,90.6847" stroke="#a0ff56" stroke-width="2" /><polyline fill="none" points="40.7864,49.8983 39.9186,47.2949" stroke="#eaff0c" stroke-width="2" /><polyline fill="none" points="52.0678,45.1254 52.0678,48.5966 55.9729,49.0305 57.7085,45.9932 58.1424,42.9559" stroke="#ffaa00" stroke-width="2" /><polyline fill="none" points="21.6949,48.5966 12.1492,64.2169 9.5458,80.2712 8.678,94.5898 9.9797,101.5322 15.1864,109.3424 26.0339,116.2847 34.278,118.4542 65.9525,119.322 77.2339,116.2847 80.7051,113.6814 87.2136,105.8712 101.5322,82.0068 101.5322,60.3119 95.0237,49.0305 88.0814,40.7864 65.5186,32.9763 56.4068,33.8441 43.3898,37.3153 32.5424,46.4271 22.1288,52.0678" stroke="#ff5500" stroke-width="2" /><polyline fill="none" points="13.8847,52.0678 13.8847,25.1661 43.8237,38.6169" stroke="#e80000" stroke-width="2" /><polyline fill="none" points="58.1424,26.4678 58.5763,19.0915 62.9153,8.678 66.3864,8.678 84.6102,25.1661 87.2136,28.6373 89.3831,36.0136" stroke="#7f0000" stroke-width="2" /></svg>