<?xml version="1.0" encoding="utf-8" ?>
<svg baseProfile="tiny" height="128" version="1.2" viewBox="0,0,128,128" width="128" xmlns="http://www.w3.org/2000/svg" xmlns:ev="http://www.w3.org/2001/xml-events" xmlns:xlink="http://www.w3.org/1999/xlink"><defs /><polyline fill="none" points="52.5017,42.522 72.8949,49.4644 85.0441,55.9729 99.7966,66.8203 107.1729,75.4983 108.4746,78.9695 108.4746,85.9119 95.8915,99.7966 80.2712,112.3797 69.8576,118.0203 62.9153,119.322 52.0678,118.8881 21.261,96.3254 15.1864,90.2508 10.4136,82.4407 8.678,71.1593 11.2814,65.0847 17.3559,58.1424 24.7322,51.2 34.7119,44.6915 42.0881,42.9559 52.5017,42.0881 73.3288,42.0881 75.9322,42.9559" stroke="#00007f" stroke-width="2" /><polyline fill="none" points="21.6949,49.8983 17.3559,22.1288 17.3559,14.3186 20.3932,14.7525 29.0712,22.5627 38.1831,35.1458 40.3525,42.9559" stroke="#004cff" stroke-width="2" /><polyline fill="none" points="80.7051,49.8983 91.5525,27.3356 98.061,19.5254 114.5492,8.678 88.5153,50.7661 85.9119,60.3119" stroke="#29ffcd" stroke-width="2" /><polyline fill="none" points="51.2,88.5153 38.6169,90.2508 29.0712,89.8169" stroke="#cdff29" stroke-width="2" /><polyline fill="none" points="49.8983,89.3831 36.0136,91.1186" stroke="#ff6700" stroke-width="2" /><polyline fill="none" points="53.3695,89.8169 49.8983,90.2508 44.6915,93.722 31.2407,104.1356" stroke="#7f0000" stroke-width="2" /></svg>