<?xml version="1.0" encoding="utf-8" ?>
<svg baseProfile="tiny" height="128" version="1.2" viewBox="0,0,128,128" width="128" xmlns="http://www.w3.org/2000/svg" xmlns:ev="http://www.w3.org/2001/xml-events" xmlns:xlink="http://www.w3.org/1999/xlink"><defs /><polyline fill="none" points="27.7695,81.139 20.8271,74.6305 17.7898,66.3864 16.922,29.5051 22.5627,13.4508 32.1085,10.4136 35.5797,17.3559 37.3153,38.1831 44.6915,41.2203 51.2,41.2203 56.8407,38.6169 62.0475,32.1085 72.8949,32.5424 74.6305,21.261 78.9695,13.0169 87.2136,8.678 94.5898,8.678 99.3627,14.7525 103.7017,25.1661 103.7017,42.0881 98.061,61.1797 85.0441,75.0644 79.8373,75.9322 61.6136,85.9119 42.9559,85.0441 36.0136,82.0068" stroke="#00007f" stroke-width="2" /><polyline fill="none" points="56.8407,60.7458 57.2746,63.3492 62.4814,64.6508 62.4814,59.0102 60.3119,56.8407 48.1627,67.6881 45.1254,72.461 50.7661,73.7627 56.4068,71.5932 60.3119,69.4237 60.7458,65.0847" stroke="#0010ff" stroke-width="2" /><polyline fill="none" points="55.539,65.0847 47.7288,66.8203 43.8237,65.5186 40.7864,62.4814 18.2237,62.0475" stroke="#00a4ff" stroke-width="2" /><polyline fill="none" points="52.9356,65.5186 45.1254,71.1593 38.6169,72.461 8.678,74.6305" stroke="#3fffb7" stroke-width="2" /><polyline fill="none" points="65.0847,56.4068 65.5186,59.878 71.5932,56.4068 82.0068,53.3695 119.322,48.1627" stroke="#b7ff3f" stroke-width="2" /><polyline fill="none" points="40.3525,68.5559 86.7797,67.6881 99.7966,72.461" stroke="#ffb900" stroke-width="2" /><polyline fill="none" points="37.3153,48.1627 39.0508,51.6339 44.2576,52.0678 42.522,50.7661" stroke="#ff3000" stroke-width="2" /><polyline fill="none" points="64.6508,45.5593 69.4237,50.3322 70.7254,45.9932" stroke="#7f0000" stroke-width="2" /></svg>