<?xml version="1.0" encoding="utf-8" ?>
<svg baseProfile="tiny" height="128" version="1.2" viewBox="0,0,128,128" width="128" xmlns="http://www.w3.org/2000/svg" xmlns:ev="http://www.w3.org/2001/xml-events" xmlns:xlink="http://www.w3.org/1999/xlink"><defs /><polyline fill="none" points="67.6881,41.2203 50.7661,40.7864 40.3525,42.9559 30.8068,47.7288 25.6,52.0678 16.4881,63.7831 11.7153,74.6305 9.1119,85.478 8.678,98.9288 9.9797,103.7017 15.1864,109.7763 26.9017,115.4169 55.9729,119.322 70.2915,119.322 84.1763,113.6814 95.0237,105.4373 98.9288,99.3627 102.8339,89.3831 104.5695,81.139 104.5695,67.2542 102.8339,61.1797 98.4949,54.2373 93.2881,49.8983 87.6475,47.2949" stroke="#00007f" stroke-width="2" /><polyline fill="none" points="24.7322,42.522 25.6,8.678 37.7492,18.6576 48.1627,32.1085" stroke="#004cff" stroke-width="2" /><polyline fill="none" points="64.2169,35.5797 78.1017,19.0915 90.2508,8.678 92.4203,11.2814 95.8915,53.8034" stroke="#29ffcd" stroke-width="2" /><polyline fill="none" points="42.522,65.5186 42.522,68.122 45.1254,69.8576 47.7288,68.122 47.7288,65.5186 46.4271,65.0847" stroke="#cdff29" stroke-width="2" /><polyline fill="none" points="90.2508,65.5186 85.478,66.8203 84.1763,69.4237 86.7797,69.4237 89.3831,67.6881 90.2508,63.3492" stroke="#ff6700" stroke-width="2" /><polyline fill="none" points="74.1966,82.4407 68.122,82.4407 65.5186,84.1763 68.122,84.6102 71.5932,81.139" stroke="#7f0000" stroke-width="2" /></svg>