<?xml version="1.0" encoding="utf-8" ?>
<svg baseProfile="tiny" height="128" version="1.2" viewBox="0,0,128,128" width="128" xmlns="http://www.w3.org/2000/svg" xmlns:ev="http://www.w3.org/2001/xml-events" xmlns:xlink="http://www.w3.org/1999/xlink"><defs /><polyline fill="none" points="37.8776,51.8095 43.5374,52.2449 42.2313,58.3401 39.619,58.7755 36.5714,51.3741" stroke="#00007f" stroke-width="2" /><polyline fill="none" points="43.5374,58.7755 74.449,58.7755" stroke="#0000de" stroke-width="2" /><polyline fill="none" points="49.6327,63.1293 59.6463,64.8707 67.483,67.483" stroke="#0028ff" stroke-width="2" /><polyline fill="none" points="48.7619,67.483 57.034,72.7075" stroke="#0080ff" stroke-width="2" /><polyline fill="none" points="35.7007,69.2245 14.8027,71.8367 8.7075,74.0136" stroke="#00d4ff" stroke-width="2" /><polyline fill="none" points="28.2993,64.8707 22.6395,62.6939 10.449,63.5646" stroke="#36ffc0" stroke-width="2" /><polyline fill="none" points="33.0884,57.4694 24.381,53.551" stroke="#7cff79" stroke-width="2" /><polyline fill="none" points="39.619,59.2109 39.619,64.0 38.3129,65.3061 30.9116,62.2585 31.7823,61.3878" stroke="#c0ff36" stroke-width="2" /><polyline fill="none" points="39.619,60.517 40.9252,67.9184 43.9728,67.9184 46.585,65.7415 47.0204,61.8231" stroke="#ffe500" stroke-width="2" /><polyline fill="none" points="52.2449,43.5374 47.8912,41.7959 47.4558,47.0204 51.8095,48.3265 53.551,46.585 52.2449,44.4082" stroke="#ff9400" stroke-width="2" /><polyline fill="none" points="36.5714,42.6667 32.6531,45.2789 32.6531,48.7619 34.3946,49.6327 36.5714,49.6327 37.8776,43.102" stroke="#ff4600" stroke-width="2" /><polyline fill="none" points="64.0,40.9252 67.9184,29.1701 68.3537,23.9456 63.5646,30.4762 54.8571,35.2653 40.0544,34.3946 35.7007,35.2653 32.2177,28.2993 27.8639,24.8163 27.8639,34.8299 25.2517,45.2789 25.2517,60.517 26.1224,62.6939 40.4898,71.4014 48.3265,71.8367 56.1633,65.7415 62.2585,50.5034 64.0,40.4898" stroke="#de0000" stroke-width="2" /><polyline fill="none" points="63.1293,42.2313 99.2653,38.7483 101.4422,28.7347 96.2177,20.0272 95.3469,16.1088 98.3946,13.0612 104.4898,10.0136 115.3741,8.7075 119.2925,10.8844 119.2925,14.3673 114.9388,15.2381 110.585,20.4626 110.1497,26.5578" stroke="#7f0000" stroke-width="2" /></svg>