<?xml version="1.0" encoding="utf-8" ?>
<svg baseProfile="tiny" height="128" version="1.2" viewBox="0,0,128,128" width="128" xmlns="http://www.w3.org/2000/svg" xmlns:ev="http://www.w3.org/2001/xml-events" xmlns:xlink="http://www.w3.org/1999/xlink"><defs /><polyline fill="none" points="74.2662,47.1809 52.8601,41.9386 41.0648,41.9386 26.2116,46.744 17.4744,54.1706 8.7372,73.8294 9.1741,83.0034 17.0375,102.2253 26.2116,108.7782 36.2594,113.5836 43.686,116.2048 58.5392,117.0785 78.198,107.9044 92.6143,95.2355 99.1672,87.8089 102.2253,82.5666 104.8464,71.2082 103.099,58.9761 99.6041,50.6758 95.2355,45.8703 85.1877,40.1911 62.9078,38.4437" stroke="#00007f" stroke-width="2" /><polyline fill="none" points="10.9215,61.1604 12.6689,42.8123 11.7952,13.1058 13.5427,13.9795 16.6007,20.9693 24.0273,33.2014 33.6382,44.1229" stroke="#004cff" stroke-width="2" /><polyline fill="none" points="84.7509,44.1229 86.9352,39.7543 100.9147,27.0853 113.5836,12.6689 119.2628,8.7372 119.2628,21.843 114.0205,37.1331 110.0887,52.8601" stroke="#29ffcd" stroke-width="2" /><polyline fill="none" points="17.4744,36.2594 17.9113,45.8703" stroke="#cdff29" stroke-width="2" /><polyline fill="none" points="21.4061,33.6382 24.4642,42.8123" stroke="#ff6700" stroke-width="2" /><polyline fill="none" points="103.099,29.2696 100.4778,35.3857 94.3618,42.8123" stroke="#7f0000" stroke-width="2" /></svg>