<?xml version="1.0" encoding="utf-8" ?>
<svg baseProfile="tiny" height="128" version="1.2" viewBox="0,0,128,128" width="128" xmlns="http://www.w3.org/2000/svg" xmlns:ev="http://www.w3.org/2001/xml-events" xmlns:xlink="http://www.w3.org/1999/xlink"><defs /><polyline fill="none" points="40.7864,27.3356 36.8814,47.7288 37.3153,60.7458 39.4847,70.2915 46.861,78.9695 55.9729,85.0441 65.0847,87.2136 75.4983,86.3458 91.9864,76.3661 101.0983,65.9525 105.0034,55.1051 105.8712,49.8983 103.2678,41.2203 100.2305,36.0136 96.3254,33.4102 93.2881,33.4102 92.8542,30.8068 97.6271,9.5458 95.0237,8.678 87.2136,13.8847 83.3085,17.7898 78.1017,29.0712 73.7627,28.6373 61.6136,24.7322 49.8983,15.1864 43.3898,12.1492 40.7864,13.0169 39.4847,16.922 40.3525,21.6949 44.2576,32.5424" stroke="#00007f" stroke-width="2" /><polyline fill="none" points="77.2339,63.7831 119.322,35.1458" stroke="#0028ff" stroke-width="2" /><polyline fill="none" points="87.6475,75.0644 111.078,84.6102" stroke="#00d4ff" stroke-width="2" /><polyline fill="none" points="74.6305,81.5729 85.478,97.1932" stroke="#7cff79" stroke-width="2" /><polyline fill="none" points="51.6339,54.6712 26.0339,46.4271 8.678,44.2576" stroke="#ffe500" stroke-width="2" /><polyline fill="none" points="56.8407,62.0475 26.0339,67.2542 11.7153,72.461" stroke="#ff4600" stroke-width="2" /><polyline fill="none" points="63.3492,74.6305 48.1627,92.8542 44.2576,95.4576" stroke="#7f0000" stroke-width="2" /></svg>