<?xml version="1.0" encoding="utf-8" ?>
<svg baseProfile="tiny" height="128" version="1.2" viewBox="0,0,128,128" width="128" xmlns="http://www.w3.org/2000/svg" xmlns:ev="http://www.w3.org/2001/xml-events" xmlns:xlink="http://www.w3.org/1999/xlink"><defs /><polyline fill="none" points="51.6339,41.6542 42.9559,41.2203 38.6169,39.0508 27.3356,29.0712 19.0915,18.2237 9.5458,8.678 8.678,10.8475 10.4136,18.6576 17.7898,34.278 17.3559,41.2203 14.7525,49.0305 10.8475,71.1593 10.8475,86.7797 15.1864,98.4949 20.3932,104.5695 32.1085,114.1153 40.3525,117.5864 49.8983,119.322 68.9898,118.4542 77.6678,116.2847 90.6847,108.4746 98.061,102.8339 104.5695,93.722 106.3051,82.0068 91.1186,52.5017 90.6847,45.1254 107.6068,11.7153 105.8712,11.2814 102.4,13.8847 87.6475,30.8068 77.6678,37.3153 72.0271,39.0508 53.3695,39.9186" stroke="#00007f" stroke-width="2" /><polyline fill="none" points="45.9932,85.478 50.7661,93.722 54.2373,95.0237 59.0102,92.8542 61.6136,87.6475 61.6136,84.1763 59.4441,82.8746 46.4271,83.7424" stroke="#0028ff" stroke-width="2" /><polyline fill="none" points="50.3322,91.5525 31.6746,88.9492" stroke="#00d4ff" stroke-width="2" /><polyline fill="none" points="45.9932,91.1186 31.2407,93.722 34.278,93.722" stroke="#7cff79" stroke-width="2" /><polyline fill="none" points="48.5966,92.8542 39.4847,96.3254" stroke="#ffe500" stroke-width="2" /><polyline fill="none" points="62.9153,84.6102 65.0847,86.7797 76.8,89.3831" stroke="#ff4600" stroke-width="2" /><polyline fill="none" points="61.6136,92.4203 79.4034,92.4203 78.5356,91.1186" stroke="#7f0000" stroke-width="2" /></svg>