<?xml version="1.0" encoding="utf-8" ?>
<svg baseProfile="tiny" height="128" version="1.2" viewBox="0,0,128,128" width="128" xmlns="http://www.w3.org/2000/svg" xmlns:ev="http://www.w3.org/2001/xml-events" xmlns:xlink="http://www.w3.org/1999/xlink"><defs /><polyline fill="none" points="52.5017,117.1525 38.6169,117.1525 22.9966,114.1153 19.0915,112.8136 14.3186,108.4746 8.678,89.8169 8.678,64.6508 12.1492,8.678 13.8847,9.1119 18.6576,18.6576 27.7695,32.1085 32.1085,35.5797 69.8576,35.5797 73.7627,34.7119 78.1017,31.6746 87.6475,16.0542 91.5525,46.4271 91.5525,72.461 90.2508,80.7051 84.6102,98.9288 76.3661,112.8136 72.8949,116.2847 68.122,118.4542 50.7661,119.322 38.1831,115.4169" stroke="#00007f" stroke-width="2" /><polyline fill="none" points="38.1831,94.5898 33.4102,85.0441 32.5424,77.6678 42.0881,75.0644 49.0305,75.0644 50.3322,77.2339 47.7288,82.4407 34.7119,95.4576 34.278,108.0407 36.0136,107.1729" stroke="#00d4ff" stroke-width="2" /><polyline fill="none" points="68.122,59.878 65.9525,64.2169 63.7831,64.6508 64.2169,58.1424 65.9525,57.7085 66.8203,59.878 63.7831,62.9153 65.9525,62.4814" stroke="#ffe500" stroke-width="2" /><polyline fill="none" points="22.5627,62.4814 21.261,57.2746 25.1661,56.8407 25.1661,60.7458 23.4305,61.6136 22.1288,57.2746" stroke="#7f0000" stroke-width="2" /></svg>