<?xml version="1.0" encoding="utf-8" ?>
<svg baseProfile="tiny" height="128" version="1.2" viewBox="0,0,128,128" width="128" xmlns="http://www.w3.org/2000/svg" xmlns:ev="http://www.w3.org/2001/xml-events" xmlns:xlink="http://www.w3.org/1999/xlink"><defs /><polyline fill="none" points="82.8746,33.4102 62.0475,31.6746 49.0305,33.8441 38.1831,40.7864 32.9763,50.7661 32.9763,65.5186 39.0508,82.8746 47.2949,92.8542 58.5763,99.7966 69.8576,102.4 79.8373,99.7966 85.0441,95.0237 87.2136,85.0441 83.3085,64.6508 77.2339,48.1627 68.122,31.2407 63.7831,27.3356 60.7458,26.4678" stroke="#00007f" stroke-width="2" /><polyline fill="none" points="32.1085,59.0102 11.2814,31.2407 8.678,24.2983 10.4136,23.4305 36.4475,32.5424 48.1627,34.278 52.0678,33.4102" stroke="#0000fe" stroke-width="2" /><polyline fill="none" points="68.122,40.3525 80.7051,32.5424 105.0034,8.678 94.5898,46.861 85.9119,63.3492 81.5729,66.3864" stroke="#0060ff" stroke-width="2" /><polyline fill="none" points="66.8203,82.0068 63.3492,84.1763 66.8203,87.6475 68.9898,86.7797 66.3864,83.7424 64.6508,83.3085 63.3492,85.478 42.0881,79.8373 33.4102,76.3661" stroke="#00d4ff" stroke-width="2" /><polyline fill="none" points="59.4441,88.0814 56.4068,88.0814 35.5797,101.0983 28.2034,103.7017" stroke="#4cffaa" stroke-width="2" /><polyline fill="none" points="65.5186,92.8542 61.1797,97.1932 47.7288,118.8881 49.0305,119.322" stroke="#aaff4c" stroke-width="2" /><polyline fill="none" points="65.5186,82.0068 83.3085,78.5356 95.4576,74.1966" stroke="#ffe500" stroke-width="2" /><polyline fill="none" points="62.4814,91.5525 81.139,92.8542 105.0034,89.8169" stroke="#ff7a00" stroke-width="2" /><polyline fill="none" points="65.0847,98.9288 72.0271,101.0983 86.7797,110.6441 99.3627,115.8508" stroke="#fe1200" stroke-width="2" /><polyline fill="none" points="47.2949,64.2169 51.6339,66.3864 53.3695,64.2169 48.1627,63.7831 47.7288,65.0847 50.7661,66.8203" stroke="#7f0000" stroke-width="2" /></svg>