<?xml version="1.0" encoding="utf-8" ?>
<svg baseProfile="tiny" height="128" version="1.2" viewBox="0,0,128,128" width="128" xmlns="http://www.w3.org/2000/svg" xmlns:ev="http://www.w3.org/2001/xml-events" xmlns:xlink="http://www.w3.org/1999/xlink"><defs /><polyline fill="none" points="21.261,46.4271 19.5254,21.261 28.2034,35.5797 34.7119,42.0881 48.5966,39.0508 62.4814,39.0508 72.8949,42.9559 78.9695,46.861 81.139,45.5593 90.2508,29.5051 97.6271,13.0169 101.0983,8.678 103.7017,9.1119 105.0034,13.8847 108.9085,45.5593" stroke="#00007f" stroke-width="2" /><polyline fill="none" points="16.4881,41.6542 9.5458,59.878 8.678,76.3661 9.9797,83.3085 15.6203,90.2508 23.8644,94.5898 33.8441,98.4949 46.861,100.2305 74.1966,100.2305 83.7424,97.6271 93.2881,92.8542 101.5322,87.2136 107.1729,80.2712 112.3797,73.3288 118.0203,59.878 119.322,48.5966 117.1525,41.6542 110.6441,35.1458 103.2678,30.8068 93.722,28.2034 83.7424,28.2034 74.1966,30.8068 66.8203,39.4847 62.4814,48.1627" stroke="#0000f1" stroke-width="2" /><polyline fill="none" points="23.4305,60.3119 45.1254,65.0847 60.7458,64.6508" stroke="#004cff" stroke-width="2" /><polyline fill="none" points="38.1831,83.7424 49.8983,67.6881 57.2746,61.6136" stroke="#00b0ff" stroke-width="2" /><polyline fill="none" points="59.4441,62.9153 54.2373,70.7254 44.6915,90.2508" stroke="#29ffcd" stroke-width="2" /><polyline fill="none" points="56.4068,62.4814 94.5898,50.3322" stroke="#7cff79" stroke-width="2" /><polyline fill="none" points="55.539,67.2542 69.4237,71.5932 87.6475,72.0271 93.722,69.8576" stroke="#cdff29" stroke-width="2" /><polyline fill="none" points="52.0678,72.461 53.8034,74.1966 56.4068,74.6305 75.9322,84.1763 81.139,84.6102" stroke="#ffc400" stroke-width="2" /><polyline fill="none" points="55.539,59.878 52.5017,61.6136 53.3695,64.6508 57.7085,68.122 62.0475,68.9898 62.4814,62.9153 59.878,61.1797 58.1424,66.3864" stroke="#ff6700" stroke-width="2" /><polyline fill="none" points="41.6542,45.5593 40.7864,47.7288 42.522,49.8983 44.6915,46.861 44.6915,44.2576 42.9559,43.8237 40.7864,49.0305 40.7864,53.3695" stroke="#f10700" stroke-width="2" /><polyline fill="none" points="85.478,41.6542 85.478,44.6915 88.9492,45.9932 93.2881,45.1254 94.1559,38.6169 90.6847,37.3153 88.0814,37.7492 85.0441,42.9559" stroke="#7f0000" stroke-width="2" /></svg>