<?xml version="1.0" encoding="utf-8" ?>
<svg baseProfile="tiny" height="128" version="1.2" viewBox="0,0,128,128" width="128" xmlns="http://www.w3.org/2000/svg" xmlns:ev="http://www.w3.org/2001/xml-events" xmlns:xlink="http://www.w3.org/1999/xlink"><defs /><polyline fill="none" points="23.8644,16.4881 24.2983,13.0169 29.0712,8.678 30.8068,17.3559 29.5051,18.2237" stroke="#00007f" stroke-width="2" /><polyline fill="none" points="21.6949,15.6203 17.7898,14.7525 14.7525,16.922 12.1492,22.9966 8.678,26.4678 13.4508,29.5051 27.3356,29.5051 29.0712,30.8068 34.278,39.9186 35.5797,49.4644 37.7492,49.8983" stroke="#004cff" stroke-width="2" /><polyline fill="none" points="36.8814,49.8983 43.3898,36.4475" stroke="#29ffcd" stroke-width="2" /><polyline fill="none" points="44.2576,36.4475 44.2576,42.522 41.6542,49.4644 49.8983,42.9559 54.2373,36.8814" stroke="#cdff29" stroke-width="2" /><polyline fill="none" points="54.2373,36.8814 68.122,40.7864 73.7627,49.4644 78.1017,44.2576 80.2712,44.6915 83.3085,52.5017 88.5153,42.9559" stroke="#ff6700" stroke-width="2" /><polyline fill="none" points="87.6475,42.0881 91.5525,40.3525 101.9661,47.7288 111.078,42.522 117.1525,35.1458 119.322,28.2034 118.8881,24.2983 113.6814,19.9593 111.5119,22.1288 111.078,29.0712 109.3424,31.2407 96.7593,36.4475 86.7797,32.1085 66.8203,20.8271 55.539,17.3559 41.2203,10.8475 36.8814,11.2814 29.5051,19.0915 26.9017,19.0915" stroke="#7f0000" stroke-width="2" /></svg>