<?xml version="1.0" encoding="utf-8" ?>
<svg baseProfile="tiny" height="128" version="1.2" viewBox="0,0,128,128" width="128" xmlns="http://www.w3.org/2000/svg" xmlns:ev="http://www.w3.org/2001/xml-events" xmlns:xlink="http://www.w3.org/1999/xlink"><defs /><polyline fill="none" points="19.9593,39.4847 21.6949,41.6542 28.2034,42.0881 39.4847,40.3525 49.4644,37.3153 67.6881,26.4678 79.4034,25.6 89.3831,29.939 101.5322,40.3525 110.2102,50.7661 113.2475,60.3119 112.8136,66.3864 108.0407,70.7254 105.8712,70.2915 98.4949,64.6508 94.5898,66.3864 95.4576,91.9864 86.3458,71.5932 84.6102,68.122 83.3085,68.5559 79.8373,78.5356 78.1017,95.4576 75.9322,89.8169 74.1966,74.1966 71.5932,70.2915 68.9898,76.3661 65.0847,96.7593 63.3492,93.722 62.9153,75.0644 60.7458,68.9898 58.5763,68.5559 57.7085,70.2915 55.1051,87.2136 52.9356,91.9864 51.2,92.8542 44.6915,75.0644 41.2203,69.4237 33.4102,66.8203 17.3559,66.3864 10.8475,60.3119 8.678,55.1051 8.678,47.2949 12.1492,40.3525 15.6203,37.7492 18.6576,38.1831 21.6949,40.3525 26.0339,50.7661 25.6,56.4068 22.5627,59.4441 20.8271,59.878 21.6949,58.5763" stroke="#00007f" stroke-width="2" /><polyline fill="none" points="16.0542,46.4271 16.0542,48.1627" stroke="#0028ff" stroke-width="2" /><polyline fill="none" points="20.8271,46.4271 23.8644,46.4271" stroke="#00d4ff" stroke-width="2" /><polyline fill="none" points="22.5627,55.1051 21.261,55.539" stroke="#7cff79" stroke-width="2" /><polyline fill="none" points="20.3932,57.7085 16.922,62.4814 14.3186,63.3492" stroke="#ffe500" stroke-width="2" /><polyline fill="none" points="23.8644,55.539 27.7695,57.2746 32.9763,57.2746 39.9186,54.2373" stroke="#ff4600" stroke-width="2" /><polyline fill="none" points="111.078,38.1831 110.2102,42.9559 112.8136,51.2 114.5492,53.3695 116.2847,49.8983 114.9831,46.4271 112.8136,48.5966 112.3797,50.7661 114.5492,50.3322 117.1525,45.9932 117.5864,42.0881 114.5492,40.3525 112.3797,45.1254 116.2847,39.4847 118.0203,32.5424 118.4542,21.6949 114.5492,8.678 114.1153,43.3898 109.3424,52.5017 117.1525,39.0508 119.322,32.1085 118.4542,21.6949 112.8136,10.4136 114.9831,27.7695 113.2475,49.8983" stroke="#7f0000" stroke-width="2" /></svg>