<?xml version="1.0" encoding="utf-8" ?>
<svg baseProfile="tiny" height="128" version="1.2" viewBox="0,0,128,128" width="128" xmlns="http://www.w3.org/2000/svg" xmlns:ev="http://www.w3.org/2001/xml-events" xmlns:xlink="http://www.w3.org/1999/xlink"><defs /><polyline fill="none" points="62.9153,45.9932 58.1424,42.522 53.8034,43.8237 48.5966,45.5593 36.4475,56.4068 31.2407,63.7831 27.7695,72.0271 25.1661,85.0441 29.5051,103.7017 33.8441,110.2102 40.3525,115.4169 47.2949,118.4542 55.539,119.322 63.7831,117.5864 74.6305,111.9458 85.478,105.0034 94.5898,96.3254 105.8712,78.9695 107.6068,70.7254 106.3051,61.6136 102.8339,53.8034 97.6271,48.1627 88.9492,43.8237 78.1017,42.9559 33.4102,50.3322" stroke="#00007f" stroke-width="2" /><polyline fill="none" points="38.6169,53.3695 31.2407,49.4644 23.4305,41.2203 16.0542,29.939 8.678,14.7525 15.6203,16.4881 26.9017,22.9966 52.5017,41.6542" stroke="#0080ff" stroke-width="2" /><polyline fill="none" points="78.1017,45.1254 103.7017,13.4508 109.7763,8.678 112.3797,13.0169 111.9458,24.2983 106.739,49.0305" stroke="#7cff79" stroke-width="2" /><polyline fill="none" points="45.1254,61.1797 46.861,66.3864 49.8983,68.122 54.6712,66.3864 54.6712,64.2169 50.3322,62.4814" stroke="#ff9400" stroke-width="2" /><polyline fill="none" points="76.3661,56.8407 76.8,62.4814 78.9695,64.2169 81.139,64.2169 82.8746,62.0475 82.0068,58.5763" stroke="#7f0000" stroke-width="2" /></svg>