<?xml version="1.0" encoding="utf-8" ?>
<svg baseProfile="tiny" height="128" version="1.2" viewBox="0,0,128,128" width="128" xmlns="http://www.w3.org/2000/svg" xmlns:ev="http://www.w3.org/2001/xml-events" xmlns:xlink="http://www.w3.org/1999/xlink"><defs /><polyline fill="none" points="29.0909,29.5385 21.9301,8.951 47.8881,28.1958 58.1818,25.5105 69.8182,25.5105 81.4545,29.0909 85.4825,22.3776 90.4056,17.9021 103.8322,8.951 99.3566,21.4825 91.3007,35.8042 94.8811,41.1748 95.7762,47.4406 95.7762,59.972 93.986,65.3427 89.0629,72.951 79.6643,80.5594 60.8671,88.1678 51.021,87.7203 42.965,85.035 36.6993,80.5594 28.1958,67.1329 26.4056,49.6783 33.5664,32.2238" stroke="#00007f" stroke-width="2" /><polyline fill="none" points="45.2028,43.8601 48.3357,45.6503 46.5455,46.993 45.2028,45.2028" stroke="#0028ff" stroke-width="2" /><polyline fill="none" points="72.5035,47.4406 72.5035,45.2028 74.7413,44.3077 76.979,45.6503 76.5315,47.4406 73.8462,46.5455" stroke="#00d4ff" stroke-width="2" /><polyline fill="none" points="37.5944,59.972 30.8811,55.4965 8.951,49.2308" stroke="#7cff79" stroke-width="2" /><polyline fill="none" points="30.8811,66.6853 17.9021,65.7902 11.6364,64.4476" stroke="#ffe500" stroke-width="2" /><polyline fill="none" points="81.4545,55.9441 95.7762,56.3916 116.3636,55.049" stroke="#ff4600" stroke-width="2" /><polyline fill="none" points="84.5874,70.2657 119.049,70.7133" stroke="#7f0000" stroke-width="2" /></svg>