<?xml version="1.0" encoding="utf-8" ?>
<svg baseProfile="tiny" height="128" version="1.2" viewBox="0,0,128,128" width="128" xmlns="http://www.w3.org/2000/svg" xmlns:ev="http://www.w3.org/2001/xml-events" xmlns:xlink="http://www.w3.org/1999/xlink"><defs /><polyline fill="none" points="18.6576,10.4136 29.939,8.678 39.9186,11.2814 56.4068,17.7898 66.3864,24.2983" stroke="#00007f" stroke-width="2" /><polyline fill="none" points="18.2237,9.9797 13.4508,13.0169 9.9797,19.5254 8.678,33.4102 12.1492,36.8814 26.4678,43.3898 37.7492,45.5593 62.0475,47.7288 74.1966,41.6542 81.139,36.4475 85.0441,30.8068 85.478,24.2983 79.8373,18.6576 63.7831,12.5831 55.539,12.5831 48.1627,15.6203 45.9932,18.6576 49.4644,18.6576" stroke="#0000fe" stroke-width="2" /><polyline fill="none" points="92.8542,20.3932 88.5153,17.7898 85.9119,17.7898 74.1966,27.7695 69.4237,38.6169 69.8576,48.1627 75.9322,52.9356 87.2136,55.539 95.8915,55.9729 107.1729,51.2 115.4169,45.1254 119.322,36.4475 117.5864,26.4678 111.078,19.0915 96.7593,11.7153 88.9492,10.4136 79.4034,16.922 75.0644,24.2983 74.6305,30.8068" stroke="#0060ff" stroke-width="2" /><polyline fill="none" points="15.6203,39.0508 12.1492,45.1254 10.8475,53.3695 19.5254,59.4441 25.1661,58.5763 29.5051,55.539 36.4475,42.0881" stroke="#00d4ff" stroke-width="2" /><polyline fill="none" points="53.3695,49.4644 54.2373,59.878 58.1424,62.4814 63.3492,63.7831 67.2542,59.4441 70.7254,44.6915" stroke="#4cffaa" stroke-width="2" /><polyline fill="none" points="30.8068,23.4305 27.7695,25.6 26.4678,29.5051 27.3356,31.6746 29.939,31.2407" stroke="#aaff4c" stroke-width="2" /><polyline fill="none" points="37.7492,29.5051 36.4475,30.3729 37.3153,32.9763 40.7864,32.9763 41.6542,28.6373 41.2203,32.5424 45.1254,35.1458" stroke="#ffe500" stroke-width="2" /><polyline fill="none" points="51.6339,27.7695 49.4644,37.3153" stroke="#ff7a00" stroke-width="2" /><polyline fill="none" points="49.0305,32.5424 55.539,34.7119" stroke="#fe1200" stroke-width="2" /><polyline fill="none" points="38.1831,27.7695 42.0881,28.2034" stroke="#7f0000" stroke-width="2" /></svg>