<?xml version="1.0" encoding="utf-8" ?>
<svg baseProfile="tiny" height="128" version="1.2" viewBox="0,0,128,128" width="128" xmlns="http://www.w3.org/2000/svg" xmlns:ev="http://www.w3.org/2001/xml-events" xmlns:xlink="http://www.w3.org/1999/xlink"><defs /><polyline fill="none" points="40.7864,49.0305 55.539,45.5593 74.1966,46.861 83.7424,20.8271 90.6847,11.2814 91.9864,43.8237 90.2508,54.6712 90.6847,56.8407 95.4576,60.3119 101.9661,73.3288 101.9661,85.0441 100.6644,91.1186 96.3254,101.9661 87.2136,112.3797 73.3288,118.0203 64.2169,119.322 48.5966,117.5864 17.3559,106.739 16.4881,90.2508 14.3186,84.6102 12.5831,72.0271 13.0169,67.6881 16.0542,62.4814 16.922,55.1051 9.9797,28.6373 8.678,9.9797 11.2814,8.678 17.3559,13.4508 27.7695,23.8644 33.4102,30.8068 34.7119,33.4102 35.1458,47.7288" stroke="#00007f" stroke-width="2" /><polyline fill="none" points="38.1831,72.0271 40.7864,70.2915 36.4475,70.7254 38.6169,68.5559 40.7864,68.5559" stroke="#00d4ff" stroke-width="2" /><polyline fill="none" points="65.0847,62.0475 63.3492,64.6508 65.5186,64.2169 64.2169,63.3492" stroke="#ffe500" stroke-width="2" /><polyline fill="none" points="68.9898,95.4576 63.7831,97.6271 59.0102,101.9661 56.4068,102.4 37.3153,96.7593" stroke="#7f0000" stroke-width="2" /></svg>