<?xml version="1.0" encoding="utf-8" ?>
<svg baseProfile="tiny" height="128" version="1.2" viewBox="0,0,128,128" width="128" xmlns="http://www.w3.org/2000/svg" xmlns:ev="http://www.w3.org/2001/xml-events" xmlns:xlink="http://www.w3.org/1999/xlink"><defs /><polyline fill="none" points="35.5797,35.1458 19.9593,43.3898 12.5831,49.4644 8.678,62.9153 9.5458,68.122 12.1492,71.5932 16.922,76.3661 28.2034,83.3085 46.4271,91.9864 55.9729,94.5898 90.6847,94.5898 100.2305,90.2508 102.4,87.6475 113.2475,65.0847 111.9458,52.0678 106.3051,41.6542 95.8915,32.1085 84.1763,28.6373 59.878,25.6 39.9186,27.7695 29.939,31.6746 25.6,34.278 25.6,36.4475" stroke="#00007f" stroke-width="2" /><polyline fill="none" points="20.3932,45.9932 25.6,26.4678 35.1458,8.678 38.6169,9.5458 41.6542,13.4508 47.7288,29.939 50.3322,34.278 48.5966,35.1458 48.1627,32.9763" stroke="#0000e8" stroke-width="2" /><polyline fill="none" points="89.3831,49.0305 89.3831,43.8237 94.1559,30.8068 108.9085,10.4136 111.9458,15.1864 119.322,48.5966 118.0203,46.861" stroke="#0038ff" stroke-width="2" /><polyline fill="none" points="32.9763,39.4847 36.4475,15.6203 38.6169,24.2983 37.3153,30.8068" stroke="#0094ff" stroke-width="2" /><polyline fill="none" points="93.722,45.1254 92.8542,38.1831 96.3254,33.8441 98.9288,27.7695 101.0983,29.0712 104.5695,47.7288" stroke="#0cf4ea" stroke-width="2" /><polyline fill="none" points="59.4441,64.2169 68.122,68.122 65.5186,68.5559 59.4441,63.7831 60.3119,70.7254 62.0475,70.2915 65.0847,65.9525 64.2169,65.0847" stroke="#56ffa0" stroke-width="2" /><polyline fill="none" points="53.3695,63.7831 46.861,62.9153 27.7695,57.2746 30.8068,59.878" stroke="#a0ff56" stroke-width="2" /><polyline fill="none" points="45.9932,71.1593 39.4847,68.122 29.5051,68.122 24.7322,69.4237" stroke="#eaff0c" stroke-width="2" /><polyline fill="none" points="45.1254,73.7627 25.6,78.1017" stroke="#ffaa00" stroke-width="2" /><polyline fill="none" points="75.4983,68.122 82.4407,70.7254 91.5525,71.1593 87.6475,72.461" stroke="#ff5500" stroke-width="2" /><polyline fill="none" points="76.8,76.8 90.6847,80.2712 89.3831,81.139" stroke="#e80000" stroke-width="2" /><polyline fill="none" points="76.8,86.3458 80.2712,95.0237" stroke="#7f0000" stroke-width="2" /></svg>