<?xml version="1.0" encoding="utf-8" ?>
<svg baseProfile="tiny" height="128" version="1.2" viewBox="0,0,128,128" width="128" xmlns="http://www.w3.org/2000/svg" xmlns:ev="http://www.w3.org/2001/xml-events" xmlns:xlink="http://www.w3.org/1999/xlink"><defs /><polyline fill="none" points="13.4508,9.5458 31.2407,19.0915 42.522,22.5627 59.4441,24.7322" stroke="#00007f" stroke-width="2" /><polyline fill="none" points="9.1119,8.678 8.678,12.5831 10.8475,17.3559 19.0915,29.0712 30.8068,34.7119 49.0305,39.9186 52.0678,60.7458 54.6712,65.0847 59.878,67.6881 68.5559,65.9525 71.1593,62.9153 72.8949,56.8407 71.5932,41.6542 77.6678,69.4237 81.139,71.5932 85.478,71.1593 91.9864,65.9525 96.7593,52.9356 96.7593,47.7288 93.722,40.3525 96.3254,56.4068 101.9661,67.6881 107.6068,69.4237 113.2475,68.9898 115.4169,68.122 119.322,59.0102 113.6814,42.9559" stroke="#7f0000" stroke-width="2" /></svg>