<?xml version="1.0" encoding="utf-8" ?>
<svg baseProfile="tiny" height="128" version="1.2" viewBox="0,0,128,128" width="128" xmlns="http://www.w3.org/2000/svg" xmlns:ev="http://www.w3.org/2001/xml-events" xmlns:xlink="http://www.w3.org/1999/xlink"><defs /><polyline fill="none" points="64.8707,27.4286 47.0204,29.1701 43.102,30.9116 16.1088,49.6327 11.7551,54.8571 8.7075,64.0 9.1429,78.8027 12.6259,84.0272 20.0272,89.6871 29.1701,93.6054 38.7483,95.3469 65.3061,94.0408 89.2517,87.0748 97.0884,80.9796 102.3129,74.0136 108.8435,53.9864 109.2789,44.4082 102.3129,35.2653 71.4014,23.9456" stroke="#00007f" stroke-width="2" /><polyline fill="none" points="34.8299,36.5714 34.3946,33.0884 30.4762,26.5578 16.9796,9.5782 12.6259,21.7687 11.7551,28.7347 12.6259,40.4898 13.0612,41.7959 14.3673,41.3605" stroke="#0000f1" stroke-width="2" /><polyline fill="none" points="79.2381,26.5578 86.6395,13.932 93.1701,8.7075 97.9592,14.3673 103.1837,34.3946" stroke="#004cff" stroke-width="2" /><polyline fill="none" points="44.8435,49.1973 43.9728,51.8095 45.2789,51.8095 46.585,49.6327" stroke="#00b0ff" stroke-width="2" /><polyline fill="none" points="75.3197,46.1497 74.0136,48.3265 76.6259,46.585 74.0136,47.4558" stroke="#29ffcd" stroke-width="2" /><polyline fill="none" points="63.1293,60.0816 56.5986,60.0816 49.6327,62.6939 52.2449,65.7415 57.9048,67.9184 61.8231,59.2109" stroke="#7cff79" stroke-width="2" /><polyline fill="none" points="56.1633,69.2245 50.9388,85.7687 41.3605,85.7687 37.0068,83.1565" stroke="#cdff29" stroke-width="2" /><polyline fill="none" points="57.9048,67.9184 65.3061,85.7687 69.6599,85.3333 80.1088,79.2381" stroke="#ffc400" stroke-width="2" /><polyline fill="none" points="78.3673,66.1769 84.898,61.8231 106.6667,52.6803 117.9864,50.5034" stroke="#ff6700" stroke-width="2" /><polyline fill="none" points="89.2517,66.6122 115.3741,60.9524" stroke="#f10700" stroke-width="2" /><polyline fill="none" points="88.8163,73.5782 98.8299,74.8844 119.2925,74.8844" stroke="#7f0000" stroke-width="2" /></svg>