<?xml version="1.0" encoding="utf-8" ?>
<svg baseProfile="tiny" height="128" version="1.2" viewBox="0,0,128,128" width="128" xmlns="http://www.w3.org/2000/svg" xmlns:ev="http://www.w3.org/2001/xml-events" xmlns:xlink="http://www.w3.org/1999/xlink"><defs /><polyline fill="none" points="71.8367,29.1701 68.3537,26.1224 62.2585,25.2517 43.102,26.9932 25.2517,33.5238 12.6259,44.8435 8.7075,55.2925 8.7075,60.9524 14.3673,74.449 27.8639,85.7687 35.7007,88.8163 43.9728,90.1224 62.6939,87.0748 80.1088,80.1088 85.3333,75.3197 87.5102,69.2245 87.5102,62.6939 82.7211,44.8435 77.4966,36.5714 69.6599,30.4762 60.517,26.9932 52.6803,26.1224 46.585,26.5578 43.5374,28.7347" stroke="#00007f" stroke-width="2" /><polyline fill="none" points="15.6735,34.3946 23.5102,13.0612 26.9932,8.7075 29.1701,8.7075 33.9592,19.1565 39.619,25.6871" stroke="#0000e8" stroke-width="2" /><polyline fill="none" points="58.7755,25.6871 70.5306,15.6735 78.8027,13.932 79.6735,15.6735 79.6735,34.3946" stroke="#0038ff" stroke-width="2" /><polyline fill="none" points="34.8299,45.7143 29.6054,43.102 26.1224,48.3265 25.6871,52.6803 29.1701,55.7279 33.0884,55.7279 38.7483,52.6803 40.0544,50.5034 38.3129,46.585 33.5238,43.5374" stroke="#0094ff" stroke-width="2" /><polyline fill="none" points="62.2585,44.8435 57.9048,46.585 56.5986,48.3265 57.4694,53.551 60.0816,55.2925 62.6939,53.1156 63.5646,48.3265 60.517,44.4082 57.4694,43.9728" stroke="#0cf4ea" stroke-width="2" /><polyline fill="none" points="27.4286,51.8095 27.4286,51.8095" stroke="#56ffa0" stroke-width="2" /><polyline fill="none" points="59.6463,50.5034 59.2109,50.9388" stroke="#a0ff56" stroke-width="2" /><polyline fill="none" points="30.9116,70.966 38.3129,65.7415 43.5374,71.4014 54.8571,67.483 60.9524,71.8367 64.4354,71.4014" stroke="#eaff0c" stroke-width="2" /><polyline fill="none" points="44.8435,55.7279 42.2313,60.9524 50.9388,61.8231 48.3265,56.5986" stroke="#ffaa00" stroke-width="2" /><polyline fill="none" points="27.4286,88.381 23.9456,94.4762 19.5918,108.4082 20.0272,111.8912 31.7823,118.8571 42.2313,119.2925 104.9252,115.3741 112.3265,110.585 114.068,103.1837 113.6327,97.0884 111.0204,93.1701 84.898,89.6871 42.2313,87.9456" stroke="#ff5500" stroke-width="2" /><polyline fill="none" points="105.3605,88.8163 104.4898,87.0748 106.6667,82.2857 110.1497,76.1905 113.6327,74.449 116.2449,68.3537 116.2449,64.0 113.6327,53.551" stroke="#e80000" stroke-width="2" /><polyline fill="none" points="107.102,90.1224 109.2789,84.4626 115.3741,78.8027 117.1156,61.3878" stroke="#7f0000" stroke-width="2" /></svg>