<?xml version="1.0" encoding="utf-8" ?>
<svg baseProfile="tiny" height="128" version="1.2" viewBox="0,0,128,128" width="128" xmlns="http://www.w3.org/2000/svg" xmlns:ev="http://www.w3.org/2001/xml-events" xmlns:xlink="http://www.w3.org/1999/xlink"><defs /><polyline fill="none" points="67.2542,48.1627 53.8034,46.861 45.1254,49.4644 32.1085,56.8407 21.6949,67.2542 13.4508,79.4034 9.9797,88.0814 8.678,95.8915 9.9797,102.8339 18.6576,112.3797 25.1661,115.8508 37.3153,119.322 50.7661,119.322 59.4441,117.5864 78.9695,109.3424 88.5153,102.4 96.3254,95.0237 102.8339,85.478 106.3051,76.3661 106.3051,62.4814 102.8339,55.9729 92.4203,45.9932 77.6678,41.6542 70.7254,41.6542 67.2542,43.3898" stroke="#00007f" stroke-width="2" /><polyline fill="none" points="21.6949,62.9153 19.0915,55.1051 18.6576,43.3898 22.1288,26.4678 29.5051,9.5458 31.6746,8.678 33.8441,11.2814 40.3525,26.4678 42.522,36.0136 46.861,43.3898 50.3322,44.6915" stroke="#7cff79" stroke-width="2" /><polyline fill="none" points="75.9322,41.6542 81.5729,29.939 94.1559,15.6203 96.3254,15.6203 97.6271,54.2373 95.8915,59.878" stroke="#7f0000" stroke-width="2" /></svg>