<?xml version="1.0" encoding="utf-8" ?>
<svg baseProfile="tiny" height="128" version="1.2" viewBox="0,0,128,128" width="128" xmlns="http://www.w3.org/2000/svg" xmlns:ev="http://www.w3.org/2001/xml-events" xmlns:xlink="http://www.w3.org/1999/xlink"><defs /><polyline fill="none" points="32.9763,36.8814 31.2407,22.5627 36.4475,23.4305" stroke="#00007f" stroke-width="2" /><polyline fill="none" points="36.8814,23.8644 40.7864,27.7695 43.3898,27.7695 53.8034,20.3932 63.7831,16.4881" stroke="#0000d5" stroke-width="2" /><polyline fill="none" points="65.5186,15.6203 81.139,20.3932 85.478,13.8847 93.2881,8.678 94.5898,26.0339" stroke="#001cff" stroke-width="2" /><polyline fill="none" points="32.9763,36.8814 31.2407,41.6542 31.2407,52.9356 34.7119,60.3119 39.9186,63.3492 49.0305,65.0847 62.4814,65.5186 76.8,62.9153 82.8746,58.5763" stroke="#006cff" stroke-width="2" /><polyline fill="none" points="82.8746,58.5763 88.0814,54.2373 91.9864,44.6915 92.4203,36.4475 91.1186,32.9763" stroke="#00b8ff" stroke-width="2" /><polyline fill="none" points="57.2746,36.8814 56.8407,37.7492" stroke="#1cffda" stroke-width="2" /><polyline fill="none" points="73.7627,35.5797 73.7627,35.5797" stroke="#5cff9a" stroke-width="2" /><polyline fill="none" points="70.2915,36.0136 70.2915,36.0136" stroke="#9aff5c" stroke-width="2" /><polyline fill="none" points="49.8983,47.2949 45.1254,46.4271 42.0881,50.7661 42.522,55.539 45.9932,58.1424 64.2169,59.0102 74.6305,56.8407" stroke="#daff1c" stroke-width="2" /><polyline fill="none" points="76.3661,55.539 78.9695,52.0678 79.8373,47.7288 69.8576,47.2949 66.3864,49.0305" stroke="#ffcb00" stroke-width="2" /><polyline fill="none" points="66.3864,49.0305 64.2169,44.2576 58.5763,46.861 47.7288,47.2949" stroke="#ff8500" stroke-width="2" /><polyline fill="none" points="47.2949,52.0678 28.6373,50.3322 10.8475,56.4068" stroke="#ff3b00" stroke-width="2" /><polyline fill="none" points="49.4644,52.5017 27.7695,65.9525 8.678,82.0068" stroke="#d50000" stroke-width="2" /><polyline fill="none" points="69.4237,51.2 81.5729,51.2 119.322,48.1627" stroke="#7f0000" stroke-width="2" /></svg>