<?xml version="1.0" encoding="utf-8" ?>
<svg baseProfile="tiny" height="128" version="1.2" viewBox="0,0,128,128" width="128" xmlns="http://www.w3.org/2000/svg" xmlns:ev="http://www.w3.org/2001/xml-events" xmlns:xlink="http://www.w3.org/1999/xlink"><defs /><polyline fill="none" points="49.4644,26.9017 48.1627,21.6949 41.2203,16.4881 32.1085,12.1492 19.9593,9.5458 15.6203,27.7695 13.8847,29.0712 12.1492,27.7695 10.8475,31.6746 10.4136,40.3525 12.1492,43.8237 9.1119,43.8237 9.9797,52.9356 13.0169,61.1797 8.678,62.0475 8.678,63.7831 15.1864,75.4983 19.5254,80.2712 27.3356,85.478 44.2576,89.3831 93.722,90.2508 98.4949,88.9492 108.9085,83.3085 119.322,70.2915 110.6441,72.8949 109.7763,74.6305 115.4169,64.6508 117.1525,50.3322 108.0407,56.8407 110.6441,41.6542 104.1356,49.4644 108.4746,38.6169 111.078,21.6949 107.6068,8.678 105.4373,8.678 91.1186,18.6576 81.139,30.8068 76.8,26.9017 70.2915,25.1661 68.9898,25.6 67.6881,30.3729 66.3864,30.8068 61.6136,23.8644 59.4441,27.3356 56.4068,25.1661 53.3695,24.7322 54.2373,29.939 50.3322,27.7695" stroke="#00007f" stroke-width="2" /><polyline fill="none" points="59.0102,66.8203 65.0847,66.8203 63.3492,68.5559 57.2746,68.5559 58.1424,65.5186 67.6881,65.9525 67.2542,67.6881 60.7458,68.9898 55.9729,67.6881 56.4068,65.9525 58.5763,65.9525" stroke="#7cff79" stroke-width="2" /><polyline fill="none" points="32.1085,39.9186 27.3356,47.7288 26.9017,59.4441 28.6373,60.7458 40.7864,60.7458 42.522,60.3119 43.8237,56.8407 42.9559,43.8237 39.9186,38.6169 33.8441,38.6169 31.6746,43.3898 30.8068,51.2" stroke="#7f0000" stroke-width="2" /></svg>