<?xml version="1.0" encoding="utf-8" ?>
<svg baseProfile="tiny" height="128" version="1.2" viewBox="0,0,128,128" width="128" xmlns="http://www.w3.org/2000/svg" xmlns:ev="http://www.w3.org/2001/xml-events" xmlns:xlink="http://www.w3.org/1999/xlink"><defs /><polyline fill="none" points="28.6373,39.9186 28.6373,51.2 26.4678,60.3119 26.9017,71.1593 23.8644,72.0271 23.8644,73.7627 29.939,74.6305 32.1085,72.461 33.8441,63.7831 33.8441,52.9356 36.0136,72.461 32.9763,73.3288 32.9763,75.0644 35.1458,76.8 39.9186,76.8 41.6542,75.4983 42.522,71.5932 41.6542,48.1627 47.2949,49.8983 55.9729,50.3322 64.6508,48.5966 70.7254,45.5593 71.1593,67.6881 63.7831,67.2542 61.1797,70.2915 65.5186,72.461 71.1593,72.0271" stroke="#00007f" stroke-width="2" /><polyline fill="none" points="78.9695,45.5593 79.8373,63.7831 75.4983,67.6881 78.5356,69.8576 82.8746,70.2915" stroke="#0000cc" stroke-width="2" /><polyline fill="none" points="72.0271,71.5932 73.3288,67.6881 72.461,49.0305" stroke="#0008ff" stroke-width="2" /><polyline fill="none" points="83.3085,66.8203 85.0441,61.1797 85.9119,48.5966 81.5729,36.4475 76.8,30.8068 68.122,24.2983 50.3322,22.1288 36.4475,26.9017" stroke="#004cff" stroke-width="2" /><polyline fill="none" points="15.1864,21.261 8.678,27.7695 9.5458,31.6746 12.5831,33.8441 18.6576,36.0136 22.9966,36.4475 28.2034,36.4475 33.8441,33.8441 36.0136,29.0712 34.7119,21.6949 22.9966,17.7898 17.7898,18.6576" stroke="#0090ff" stroke-width="2" /><polyline fill="none" points="14.3186,20.8271 11.2814,13.8847 19.5254,16.4881" stroke="#00d4ff" stroke-width="2" /><polyline fill="none" points="23.4305,16.922 25.6,12.5831 28.6373,11.2814 32.5424,15.6203 33.4102,20.3932" stroke="#29ffcd" stroke-width="2" /><polyline fill="none" points="20.3932,22.9966 20.8271,22.9966" stroke="#5fff96" stroke-width="2" /><polyline fill="none" points="31.2407,21.6949 31.2407,22.1288" stroke="#96ff5f" stroke-width="2" /><polyline fill="none" points="20.8271,31.2407 22.5627,27.7695 27.7695,30.8068" stroke="#cdff29" stroke-width="2" /><polyline fill="none" points="15.1864,18.2237 14.3186,16.922 19.9593,17.7898" stroke="#ffe500" stroke-width="2" /><polyline fill="none" points="25.1661,17.3559 27.7695,14.3186 31.2407,19.0915" stroke="#ffa600" stroke-width="2" /><polyline fill="none" points="42.0881,36.8814 66.3864,38.1831 64.2169,39.4847" stroke="#ff6700" stroke-width="2" /><polyline fill="none" points="61.6136,39.9186 46.861,38.6169 37.7492,39.9186" stroke="#ff2800" stroke-width="2" /><polyline fill="none" points="79.4034,18.6576 105.0034,8.678 107.6068,9.5458" stroke="#cc0000" stroke-width="2" /><polyline fill="none" points="81.5729,40.3525 78.1017,45.1254 81.139,45.9932 91.5525,40.7864 119.322,22.1288" stroke="#7f0000" stroke-width="2" /></svg>