<?xml version="1.0" encoding="utf-8" ?>
<svg baseProfile="tiny" height="128" version="1.2" viewBox="0,0,128,128" width="128" xmlns="http://www.w3.org/2000/svg" xmlns:ev="http://www.w3.org/2001/xml-events" xmlns:xlink="http://www.w3.org/1999/xlink"><defs /><polyline fill="none" points="98.7304,25.7747 96.1092,20.5324 84.7509,15.727 78.6348,15.727 63.7816,19.6587 58.5392,23.1536 49.802,32.3276 45.4334,39.3174 43.686,44.1229 44.9966,55.9181 53.7338,63.7816 58.9761,65.9659 71.2082,67.7133 89.1195,66.4027 96.5461,61.1604 100.041,56.7918 106.5939,44.1229 106.5939,35.8225 102.2253,26.2116 98.7304,21.843" stroke="#00007f" stroke-width="2" /><polyline fill="none" points="56.3549,24.901 43.686,20.5324 36.6962,20.5324 42.8123,34.9488 47.6177,39.7543" stroke="#0000fe" stroke-width="2" /><polyline fill="none" points="90.8669,17.4744 101.3515,10.9215 107.0307,8.7372 107.4676,21.4061 105.2833,27.959 102.2253,31.0171" stroke="#0060ff" stroke-width="2" /><polyline fill="none" points="75.1399,45.4334 79.0717,48.0546 82.5666,45.4334 83.0034,41.0648 75.5768,44.1229" stroke="#00d4ff" stroke-width="2" /><polyline fill="none" points="61.1604,38.8805 60.2867,41.0648 62.471,39.7543 60.7235,39.3174 60.7235,41.0648" stroke="#4cffaa" stroke-width="2" /><polyline fill="none" points="93.4881,31.8908 92.1775,31.8908 92.6143,34.0751 95.2355,34.5119" stroke="#aaff4c" stroke-width="2" /><polyline fill="none" points="60.2867,60.2867 62.471,60.7235 65.0922,62.9078 71.6451,62.0341 81.6928,51.9863 84.314,46.3072 83.0034,48.4915 85.1877,49.802 96.5461,49.802 100.4778,45.8703 101.7884,40.628" stroke="#ffe500" stroke-width="2" /><polyline fill="none" points="67.2765,49.802 35.8225,47.1809 17.9113,53.2969" stroke="#ff7a00" stroke-width="2" /><polyline fill="none" points="58.1024,53.2969 48.0546,58.9761 18.785,69.4608 8.7372,75.5768" stroke="#fe1200" stroke-width="2" /><polyline fill="none" points="95.6724,39.7543 101.7884,29.2696 110.9625,20.0956 119.2628,13.9795 112.273,25.7747" stroke="#7f0000" stroke-width="2" /></svg>