<?xml version="1.0" encoding="utf-8" ?>
<svg baseProfile="tiny" height="128" version="1.2" viewBox="0,0,128,128" width="128" xmlns="http://www.w3.org/2000/svg" xmlns:ev="http://www.w3.org/2001/xml-events" xmlns:xlink="http://www.w3.org/1999/xlink"><defs /><polyline fill="none" points="75.4983,28.6373 77.6678,28.2034 85.0441,19.5254 92.8542,13.8847 103.7017,12.1492 106.739,14.3186 107.6068,22.1288 101.9661,32.9763 98.9288,47.7288 91.1186,55.1051 72.461,54.2373 60.7458,55.9729 38.1831,54.6712 36.4475,52.5017 36.4475,42.522 39.0508,39.0508 54.2373,26.4678 65.5186,26.0339 75.0644,29.939" stroke="#00007f" stroke-width="2" /><polyline fill="none" points="89.3831,55.539 87.6475,72.0271" stroke="#0000de" stroke-width="2" /><polyline fill="none" points="75.0644,54.2373 73.7627,72.0271" stroke="#0028ff" stroke-width="2" /><polyline fill="none" points="59.0102,55.9729 55.539,71.1593" stroke="#0080ff" stroke-width="2" /><polyline fill="none" points="49.4644,55.9729 46.861,72.8949" stroke="#00d4ff" stroke-width="2" /><polyline fill="none" points="36.0136,43.3898 28.6373,45.9932 22.1288,52.9356 11.2814,59.0102 8.678,59.0102" stroke="#36ffc0" stroke-width="2" /><polyline fill="none" points="99.7966,16.922 99.3627,18.2237" stroke="#7cff79" stroke-width="2" /><polyline fill="none" points="93.722,24.2983 81.5729,13.4508 72.0271,8.678" stroke="#c0ff36" stroke-width="2" /><polyline fill="none" points="96.7593,21.261 91.1186,11.7153" stroke="#ffe500" stroke-width="2" /><polyline fill="none" points="101.9661,21.6949 111.5119,21.6949 119.322,26.0339" stroke="#ff9400" stroke-width="2" /><polyline fill="none" points="101.9661,25.6 106.3051,27.3356 110.6441,31.6746" stroke="#ff4600" stroke-width="2" /><polyline fill="none" points="89.3831,23.8644 94.1559,28.2034 96.3254,27.7695" stroke="#de0000" stroke-width="2" /><polyline fill="none" points="62.0475,25.6 65.5186,37.7492 71.5932,52.5017 76.8,61.1797 86.3458,69.8576 95.0237,74.6305 99.3627,67.2542 101.5322,59.0102" stroke="#7f0000" stroke-width="2" /></svg>