<?xml version="1.0" encoding="utf-8" ?>
<svg baseProfile="tiny" height="128" version="1.2" viewBox="0,0,128,128" width="128" xmlns="http://www.w3.org/2000/svg" xmlns:ev="http://www.w3.org/2001/xml-events" xmlns:xlink="http://www.w3.org/1999/xlink"><defs /><polyline fill="none" points="9.1119,61.1797 8.678,16.0542 9.9797,15.1864 43.3898,42.0881 65.9525,42.0881 81.139,51.2 93.722,33.8441 118.0203,8.678 119.322,10.8475 118.8881,43.3898 111.078,59.4441" stroke="#00007f" stroke-width="2" /><polyline fill="none" points="8.678,56.4068 14.7525,85.0441 19.9593,98.9288 29.939,109.3424 45.5593,116.7186 59.878,116.7186 76.3661,112.3797 93.722,101.9661 99.7966,95.4576 109.3424,80.2712 114.1153,57.7085" stroke="#0000ba" stroke-width="2" /><polyline fill="none" points="93.2881,46.4271 94.1559,42.9559 107.1729,30.8068 107.6068,55.539 101.0983,55.539" stroke="#0000f5" stroke-width="2" /><polyline fill="none" points="16.922,52.0678 15.6203,42.0881 18.2237,35.1458 29.0712,45.9932 29.5051,51.6339" stroke="#0020ff" stroke-width="2" /><polyline fill="none" points="42.522,62.9153 39.4847,62.4814 38.6169,63.7831 38.1831,69.8576 41.6542,70.2915 43.3898,68.5559" stroke="#0054ff" stroke-width="2" /><polyline fill="none" points="43.8237,66.3864 43.8237,65.0847" stroke="#008cff" stroke-width="2" /><polyline fill="none" points="74.6305,61.1797 74.1966,67.2542 75.9322,67.6881 76.3661,64.2169" stroke="#00c0ff" stroke-width="2" /><polyline fill="none" points="75.4983,63.3492 75.4983,62.9153" stroke="#0ff8e7" stroke-width="2" /><polyline fill="none" points="53.8034,85.478 52.0678,87.6475 52.0678,90.6847 59.4441,91.5525 61.1797,85.9119 58.5763,83.3085" stroke="#39ffbd" stroke-width="2" /><polyline fill="none" points="58.1424,83.3085 58.1424,83.3085" stroke="#66ff90" stroke-width="2" /><polyline fill="none" points="58.1424,82.8746 61.1797,79.8373 82.4407,72.0271" stroke="#90ff66" stroke-width="2" /><polyline fill="none" points="64.2169,82.8746 64.2169,82.8746" stroke="#bdff39" stroke-width="2" /><polyline fill="none" points="64.2169,82.8746 85.478,76.8" stroke="#e7ff0f" stroke-width="2" /><polyline fill="none" points="61.1797,90.2508 74.6305,90.2508 84.1763,87.6475" stroke="#ffd300" stroke-width="2" /><polyline fill="none" points="84.6102,87.6475 84.6102,87.6475" stroke="#ffa300" stroke-width="2" /><polyline fill="none" points="51.2,85.478 32.5424,78.9695" stroke="#ff6f00" stroke-width="2" /><polyline fill="none" points="48.5966,86.7797 48.5966,86.7797" stroke="#ff3f00" stroke-width="2" /><polyline fill="none" points="48.5966,86.7797 35.5797,86.7797" stroke="#f50b00" stroke-width="2" /><polyline fill="none" points="49.8983,89.3831 29.939,89.3831" stroke="#ba0000" stroke-width="2" /><polyline fill="none" points="43.8237,105.4373 59.4441,105.8712 68.5559,102.8339" stroke="#7f0000" stroke-width="2" /></svg>