<?xml version="1.0" encoding="utf-8" ?>
<svg baseProfile="tiny" height="128" version="1.2" viewBox="0,0,128,128" width="128" xmlns="http://www.w3.org/2000/svg" xmlns:ev="http://www.w3.org/2001/xml-events" xmlns:xlink="http://www.w3.org/1999/xlink"><defs /><polyline fill="none" points="101.9661,15.6203 106.739,11.2814 113.6814,11.7153 113.6814,17.7898 108.0407,25.6 104.1356,28.2034 99.3627,29.5051 95.0237,28.6373 94.1559,26.4678 94.1559,22.9966 95.8915,20.3932 105.8712,12.1492" stroke="#00007f" stroke-width="2" /><polyline fill="none" points="103.7017,20.3932 107.6068,21.6949 105.8712,23.8644 104.1356,23.8644 104.5695,22.5627" stroke="#0000bf" stroke-width="2" /><polyline fill="none" points="105.8712,20.3932 119.322,15.1864" stroke="#0000fe" stroke-width="2" /><polyline fill="none" points="109.3424,21.6949 117.1525,21.6949" stroke="#0028ff" stroke-width="2" /><polyline fill="none" points="108.0407,22.5627 111.5119,23.4305 113.2475,26.4678" stroke="#0060ff" stroke-width="2" /><polyline fill="none" points="105.0034,18.6576 96.3254,16.0542" stroke="#009cff" stroke-width="2" /><polyline fill="none" points="104.1356,23.4305 95.4576,22.9966 91.1186,24.2983" stroke="#00d4ff" stroke-width="2" /><polyline fill="none" points="105.0034,24.7322 92.8542,30.8068" stroke="#1fffd7" stroke-width="2" /><polyline fill="none" points="109.3424,13.8847 110.2102,12.5831 110.6441,14.3186 108.4746,14.7525 107.6068,12.5831" stroke="#4cffaa" stroke-width="2" /><polyline fill="none" points="113.2475,12.1492 114.9831,12.1492 111.9458,10.8475 114.1153,9.5458" stroke="#7cff79" stroke-width="2" /><polyline fill="none" points="95.0237,25.6 84.1763,24.7322 70.2915,30.3729 65.5186,36.4475 65.0847,43.3898 89.3831,37.3153 99.3627,29.0712" stroke="#aaff4c" stroke-width="2" /><polyline fill="none" points="71.1593,43.8237 72.461,53.8034 75.0644,57.7085 77.2339,58.5763 78.9695,56.4068 78.9695,51.2 76.3661,42.522" stroke="#d7ff1f" stroke-width="2" /><polyline fill="none" points="86.7797,37.7492 86.3458,45.1254 88.9492,51.2 92.8542,55.539 93.722,49.0305 93.2881,36.0136" stroke="#ffe500" stroke-width="2" /><polyline fill="none" points="67.2542,34.278 65.9525,31.6746 65.9525,22.5627 68.5559,18.6576 67.6881,12.5831 70.2915,8.678" stroke="#ffb100" stroke-width="2" /><polyline fill="none" points="73.7627,29.5051 78.5356,39.0508" stroke="#ff7a00" stroke-width="2" /><polyline fill="none" points="78.9695,27.3356 84.6102,37.7492" stroke="#ff4600" stroke-width="2" /><polyline fill="none" points="88.5153,22.9966 90.2508,34.7119" stroke="#fe1200" stroke-width="2" /><polyline fill="none" points="65.0847,39.0508 68.122,36.4475 8.678,35.5797 17.7898,31.6746 26.0339,30.3729 9.1119,36.8814" stroke="#bf0000" stroke-width="2" /><polyline fill="none" points="93.722,27.3356 75.0644,32.9763 65.9525,39.0508" stroke="#7f0000" stroke-width="2" /></svg>