<?xml version="1.0" encoding="utf-8" ?>
<svg baseProfile="tiny" height="128" version="1.2" viewBox="0,0,128,128" width="128" xmlns="http://www.w3.org/2000/svg" xmlns:ev="http://www.w3.org/2001/xml-events" xmlns:xlink="http://www.w3.org/1999/xlink"><defs /><polyline fill="none" points="49.0305,39.9186 36.8814,19.0915 29.0712,8.678 29.0712,23.4305 38.1831,45.5593" stroke="#00007f" stroke-width="2" /><polyline fill="none" points="66.8203,43.8237 84.6102,11.2814 91.9864,42.522" stroke="#0000de" stroke-width="2" /><polyline fill="none" points="48.1627,61.1797 48.1627,61.1797" stroke="#0028ff" stroke-width="2" /><polyline fill="none" points="67.6881,55.1051 67.6881,55.1051" stroke="#0080ff" stroke-width="2" /><polyline fill="none" points="69.4237,62.4814 68.5559,60.7458" stroke="#00d4ff" stroke-width="2" /><polyline fill="none" points="76.8,70.2915 79.4034,65.9525 86.3458,62.0475 114.1153,51.6339" stroke="#36ffc0" stroke-width="2" /><polyline fill="none" points="83.3085,73.7627 101.0983,69.4237 119.322,68.9898" stroke="#7cff79" stroke-width="2" /><polyline fill="none" points="94.1559,78.1017 110.2102,77.6678" stroke="#c0ff36" stroke-width="2" /><polyline fill="none" points="40.7864,68.5559 8.678,67.2542" stroke="#ffe500" stroke-width="2" /><polyline fill="none" points="42.9559,78.9695 22.9966,77.2339" stroke="#ff9400" stroke-width="2" /><polyline fill="none" points="42.9559,81.5729 24.7322,89.8169" stroke="#ff4600" stroke-width="2" /><polyline fill="none" points="37.3153,47.7288 33.4102,58.1424 32.9763,69.8576 35.1458,77.6678 38.1831,82.0068 43.8237,85.9119 55.9729,89.8169 71.5932,91.5525 91.1186,79.8373 97.6271,72.461 100.2305,65.0847 100.2305,54.2373 98.061,47.2949 95.4576,46.861" stroke="#de0000" stroke-width="2" /><polyline fill="none" points="60.7458,69.4237 58.5763,77.2339 56.4068,78.9695 53.3695,78.9695 60.7458,79.4034 62.0475,76.3661 62.0475,73.7627" stroke="#7f0000" stroke-width="2" /></svg>