<?xml version="1.0" encoding="utf-8" ?>
<svg baseProfile="tiny" height="128" version="1.2" viewBox="0,0,128,128" width="128" xmlns="http://www.w3.org/2000/svg" xmlns:ev="http://www.w3.org/2001/xml-events" xmlns:xlink="http://www.w3.org/1999/xlink"><defs /><polyline fill="none" points="64.0,57.4694 33.9592,37.8776" stroke="#00007f" stroke-width="2" /><polyline fill="none" points="48.7619,55.7279 42.2313,56.1633 30.4762,52.6803 12.1905,44.8435" stroke="#0000fe" stroke-width="2" /><polyline fill="none" points="43.5374,61.3878 8.7075,65.7415" stroke="#0060ff" stroke-width="2" /><polyline fill="none" points="69.2245,63.1293 74.449,62.6939 74.8844,63.5646 70.0952,63.5646 66.6122,62.2585" stroke="#00d4ff" stroke-width="2" /><polyline fill="none" points="63.1293,39.1837 67.0476,37.8776 67.483,39.619 64.8707,39.1837" stroke="#4cffaa" stroke-width="2" /><polyline fill="none" points="79.6735,38.3129 85.7687,40.0544 85.7687,41.7959 84.0272,41.3605" stroke="#aaff4c" stroke-width="2" /><polyline fill="none" points="92.2993,49.1973 115.8095,38.3129" stroke="#ffe500" stroke-width="2" /><polyline fill="none" points="84.4626,51.3741 103.1837,52.2449" stroke="#ff7a00" stroke-width="2" /><polyline fill="none" points="81.415,59.2109 102.3129,64.8707" stroke="#fe1200" stroke-width="2" /><polyline fill="none" points="53.9864,30.4762 51.3741,8.7075 59.2109,20.4626 64.8707,24.8163 71.8367,24.8163 87.5102,18.2857 100.1361,15.2381 98.8299,19.1565 90.9932,28.7347 116.6803,43.102 119.2925,47.4558 119.2925,51.8095 114.5034,64.0 108.4082,72.7075 103.619,76.6259 95.7823,79.6735 76.1905,83.5918 60.0816,83.5918 53.9864,82.2857 44.8435,77.4966 39.619,73.5782 35.2653,67.9184 33.9592,57.4694 36.1361,50.9388 42.2313,40.9252 47.8912,35.7007 55.7279,31.7823" stroke="#7f0000" stroke-width="2" /></svg>