<?xml version="1.0" encoding="utf-8" ?>
<svg baseProfile="tiny" height="128" version="1.2" viewBox="0,0,128,128" width="128" xmlns="http://www.w3.org/2000/svg" xmlns:ev="http://www.w3.org/2001/xml-events" xmlns:xlink="http://www.w3.org/1999/xlink"><defs /><polyline fill="none" points="8.678,78.1017 47.7288,78.1017" stroke="#00007f" stroke-width="2" /><polyline fill="none" points="45.9932,75.4983 45.9932,62.0475 48.1627,54.2373 54.6712,42.9559 63.3492,38.6169 77.2339,37.3153 82.0068,34.278 85.9119,21.261 97.1932,16.0542 105.8712,15.6203 110.6441,18.6576 111.9458,29.5051 107.1729,47.2949 106.739,78.5356 104.5695,81.139 56.8407,82.0068 43.8237,84.6102 41.6542,82.0068 45.1254,75.9322" stroke="#0000ff" stroke-width="2" /><polyline fill="none" points="87.6475,20.8271 88.5153,13.4508 92.4203,8.678 95.8915,16.922" stroke="#0080ff" stroke-width="2" /><polyline fill="none" points="108.9085,14.3186 119.322,10.4136 119.322,12.5831 109.7763,22.9966" stroke="#15ffe1" stroke-width="2" /><polyline fill="none" points="89.8169,24.2983 89.8169,24.2983" stroke="#7cff79" stroke-width="2" /><polyline fill="none" points="89.8169,26.9017 92.4203,27.3356 95.0237,24.7322" stroke="#e4ff12" stroke-width="2" /><polyline fill="none" points="107.1729,25.1661 109.7763,25.1661 110.6441,20.3932 107.6068,19.9593 105.0034,24.7322" stroke="#ff9400" stroke-width="2" /><polyline fill="none" points="91.5525,32.5424 96.3254,32.1085 97.6271,34.7119 104.1356,35.5797" stroke="#ff1d00" stroke-width="2" /><polyline fill="none" points="90.6847,24.2983 90.6847,24.2983" stroke="#7f0000" stroke-width="2" /></svg>