<?xml version="1.0" encoding="utf-8" ?>
<svg baseProfile="tiny" height="128" version="1.2" viewBox="0,0,128,128" width="128" xmlns="http://www.w3.org/2000/svg" xmlns:ev="http://www.w3.org/2001/xml-events" xmlns:xlink="http://www.w3.org/1999/xlink"><defs /><polyline fill="none" points="106.739,15.6203 103.2678,13.0169 95.0237,12.5831 91.5525,14.3186 88.5153,19.0915 88.0814,24.7322 90.2508,28.6373 99.7966,37.7492 106.739,37.3153 111.078,33.4102 114.5492,27.7695 114.9831,19.0915 111.9458,16.4881 107.1729,16.0542" stroke="#00007f" stroke-width="2" /><polyline fill="none" points="90.6847,14.7525 91.5525,9.5458 93.722,10.8475" stroke="#0000e8" stroke-width="2" /><polyline fill="none" points="107.6068,14.7525 119.322,8.678 117.5864,12.5831" stroke="#0038ff" stroke-width="2" /><polyline fill="none" points="95.0237,29.0712 99.3627,26.0339 108.4746,26.0339 112.8136,29.5051" stroke="#0094ff" stroke-width="2" /><polyline fill="none" points="101.0983,28.6373 104.1356,29.0712 101.9661,27.7695 104.5695,28.2034" stroke="#0cf4ea" stroke-width="2" /><polyline fill="none" points="95.4576,25.6 97.1932,19.0915 98.061,22.9966" stroke="#56ffa0" stroke-width="2" /><polyline fill="none" points="111.5119,19.9593 111.9458,21.6949" stroke="#a0ff56" stroke-width="2" /><polyline fill="none" points="111.5119,20.3932 108.9085,21.6949 108.4746,24.2983" stroke="#eaff0c" stroke-width="2" /><polyline fill="none" points="111.9458,19.9593 108.9085,27.3356" stroke="#ffaa00" stroke-width="2" /><polyline fill="none" points="97.1932,23.8644 97.1932,25.1661" stroke="#ff5500" stroke-width="2" /><polyline fill="none" points="108.4746,23.4305 108.4746,23.4305" stroke="#e80000" stroke-width="2" /><polyline fill="none" points="94.5898,33.8441 85.0441,39.0508 76.8,40.7864 72.0271,40.3525 57.7085,32.5424 43.3898,32.5424 27.7695,36.8814 19.9593,26.9017 16.0542,26.0339 11.7153,30.3729 9.1119,37.3153 8.678,44.2576 10.8475,47.2949 24.7322,48.1627 55.1051,42.9559 56.8407,46.4271 56.8407,54.2373 52.5017,66.3864 53.3695,73.7627 55.1051,73.7627 58.5763,69.4237 62.4814,53.8034 68.122,51.6339 75.4983,72.0271 78.1017,74.1966 81.5729,74.6305 85.9119,72.0271 89.8169,66.8203 92.8542,58.5763 92.8542,48.1627 96.7593,44.6915 101.5322,45.1254 100.2305,38.1831" stroke="#7f0000" stroke-width="2" /></svg>