<?xml version="1.0" encoding="utf-8" ?>
<svg baseProfile="tiny" height="128" version="1.2" viewBox="0,0,128,128" width="128" xmlns="http://www.w3.org/2000/svg" xmlns:ev="http://www.w3.org/2001/xml-events" xmlns:xlink="http://www.w3.org/1999/xlink"><defs /><polyline fill="none" points="32.7645,67.7133 31.4539,64.2184 32.7645,54.6075 31.4539,47.6177 22.2799,39.7543 12.6689,23.1536 8.7372,11.7952 8.7372,9.6109 10.9215,8.7372 18.3481,13.9795 31.4539,38.4437 40.628,43.686 58.1024,46.3072 71.6451,44.1229 81.256,44.9966 84.314,34.5119 85.6246,17.9113 90.43,38.8805 101.3515,41.5017 103.099,43.2491 103.099,46.744 97.8567,53.2969 93.4881,54.6075 86.0614,54.1706 89.9932,62.9078 88.6826,66.4027 80.8191,62.471 77.7611,57.6655 46.744,60.2867 36.2594,69.8976 27.959,67.7133" stroke="#00007f" stroke-width="2" /><polyline fill="none" points="89.1195,40.628 91.7406,42.8123 90.43,42.8123 92.6143,42.3754 89.9932,41.5017" stroke="#0080ff" stroke-width="2" /><polyline fill="none" points="94.3618,48.9283 104.4096,47.1809 119.2628,41.5017" stroke="#7cff79" stroke-width="2" /><polyline fill="none" points="96.5461,50.2389 106.5939,58.1024" stroke="#ff9400" stroke-width="2" /><polyline fill="none" points="94.3618,50.6758 96.5461,58.9761 96.9829,68.1502" stroke="#7f0000" stroke-width="2" /></svg>