<?xml version="1.0" encoding="utf-8" ?>
<svg baseProfile="tiny" height="128" version="1.2" viewBox="0,0,128,128" width="128" xmlns="http://www.w3.org/2000/svg" xmlns:ev="http://www.w3.org/2001/xml-events" xmlns:xlink="http://www.w3.org/1999/xlink"><defs /><polyline fill="none" points="15.6203,55.1051 9.9797,70.7254 8.678,82.8746 9.5458,103.7017 13.4508,109.3424 20.8271,113.6814 44.2576,115.4169 67.6881,114.9831 78.1017,108.0407 84.6102,101.0983 87.2136,93.722 88.5153,78.9695 78.5356,66.8203 71.1593,55.1051 62.9153,48.5966 57.7085,47.2949 57.7085,44.2576 62.0475,36.4475 64.2169,27.3356 65.0847,9.9797 61.6136,8.678 56.8407,11.7153 33.4102,40.3525 31.2407,40.7864 25.6,36.8814 22.5627,28.2034 22.1288,19.0915 19.9593,20.3932 17.3559,36.8814 17.7898,53.8034" stroke="#00007f" stroke-width="2" /><polyline fill="none" points="43.8237,86.7797 37.7492,85.9119 33.8441,76.8 36.8814,75.0644 49.0305,76.8 48.1627,79.8373 39.4847,86.7797 38.6169,91.5525" stroke="#0010ff" stroke-width="2" /><polyline fill="none" points="40.7864,85.0441 45.9932,87.2136 64.2169,85.9119 72.461,90.6847 80.7051,92.8542" stroke="#00a4ff" stroke-width="2" /><polyline fill="none" points="40.3525,84.1763 42.0881,87.2136 50.7661,92.8542 70.2915,102.4" stroke="#3fffb7" stroke-width="2" /><polyline fill="none" points="34.7119,84.1763 35.5797,89.3831 47.2949,112.8136 50.3322,115.8508 57.7085,119.322" stroke="#b7ff3f" stroke-width="2" /><polyline fill="none" points="36.0136,81.139 13.0169,81.139" stroke="#ffb900" stroke-width="2" /><polyline fill="none" points="41.2203,86.7797 28.2034,90.2508 19.9593,96.7593" stroke="#ff3000" stroke-width="2" /><polyline fill="none" points="41.6542,89.3831 30.8068,101.0983 27.7695,109.7763" stroke="#7f0000" stroke-width="2" /></svg>