<?xml version="1.0" encoding="utf-8" ?>
<svg baseProfile="tiny" height="128" version="1.2" viewBox="0,0,128,128" width="128" xmlns="http://www.w3.org/2000/svg" xmlns:ev="http://www.w3.org/2001/xml-events" xmlns:xlink="http://www.w3.org/1999/xlink"><defs /><polyline fill="none" points="58.5763,74.1966 55.1051,77.6678 54.6712,82.8746 56.4068,87.6475 59.0102,88.5153 60.7458,87.2136 61.1797,79.4034 58.1424,77.6678 55.1051,79.4034 55.539,82.8746 57.2746,83.3085 58.5763,82.4407 59.0102,78.9695 56.4068,76.8 55.9729,79.8373 59.0102,81.5729 61.1797,81.5729 62.4814,77.2339 61.6136,75.4983 57.7085,75.4983 55.9729,76.3661 55.539,80.7051 56.8407,82.8746 59.0102,83.7424 59.0102,82.0068" stroke="#00007f" stroke-width="2" /><polyline fill="none" points="51.2,77.6678 45.1254,75.0644 12.1492,55.1051" stroke="#0000fe" stroke-width="2" /><polyline fill="none" points="42.9559,85.9119 18.6576,89.8169 8.678,95.4576" stroke="#0060ff" stroke-width="2" /><polyline fill="none" points="75.4983,72.8949 85.9119,65.0847 101.5322,57.2746 119.322,55.1051" stroke="#00d4ff" stroke-width="2" /><polyline fill="none" points="73.7627,85.0441 81.139,84.6102 91.1186,88.0814 95.4576,95.0237 96.3254,102.4" stroke="#4cffaa" stroke-width="2" /><polyline fill="none" points="54.6712,98.9288 63.7831,108.9085 62.0475,97.1932" stroke="#aaff4c" stroke-width="2" /><polyline fill="none" points="34.7119,42.0881 32.1085,27.7695 32.1085,9.1119 35.1458,10.8475 53.3695,33.8441 56.4068,35.5797" stroke="#ffe500" stroke-width="2" /><polyline fill="none" points="64.2169,33.4102 70.7254,21.261 79.8373,8.678 81.5729,11.2814 82.4407,35.1458 86.3458,49.0305" stroke="#ff7a00" stroke-width="2" /><polyline fill="none" points="43.3898,52.9356 49.0305,52.9356 56.4068,56.4068" stroke="#fe1200" stroke-width="2" /><polyline fill="none" points="68.9898,44.6915 73.7627,45.5593" stroke="#7f0000" stroke-width="2" /></svg>