<?xml version="1.0" encoding="utf-8" ?>
<svg baseProfile="tiny" height="128" version="1.2" viewBox="0,0,128,128" width="128" xmlns="http://www.w3.org/2000/svg" xmlns:ev="http://www.w3.org/2001/xml-events" xmlns:xlink="http://www.w3.org/1999/xlink"><defs /><polyline fill="none" points="37.4422,32.2177 35.7007,17.415 36.1361,10.0136 51.3741,26.9932 66.6122,27.8639 68.3537,19.5918 72.7075,11.3197 75.7551,9.1429 87.0748,8.7075 89.2517,14.3673 88.381,29.6054 94.4762,32.2177 99.2653,38.7483 102.3129,47.4558 102.3129,58.7755 94.4762,65.3061 80.9796,69.6599 51.3741,69.6599 44.4082,66.6122 36.5714,60.0816 31.3469,53.551 28.2993,44.4082 28.2993,37.4422 30.0408,33.5238 34.3946,30.9116 41.3605,29.6054" stroke="#00007f" stroke-width="2" /><polyline fill="none" points="41.7959,46.1497 16.1088,43.9728 8.7075,40.9252" stroke="#0028ff" stroke-width="2" /><polyline fill="none" points="31.3469,50.9388 17.8503,54.8571 9.1429,60.0816" stroke="#00d4ff" stroke-width="2" /><polyline fill="none" points="35.7007,60.517 25.2517,72.7075" stroke="#7cff79" stroke-width="2" /><polyline fill="none" points="85.7687,43.9728 107.9728,40.9252 108.4082,43.9728" stroke="#ffe500" stroke-width="2" /><polyline fill="none" points="96.6531,53.1156 107.102,53.551 114.5034,55.7279 113.6327,57.034" stroke="#ff4600" stroke-width="2" /><polyline fill="none" points="93.1701,58.7755 103.1837,60.517 119.2925,68.7891" stroke="#7f0000" stroke-width="2" /></svg>