<?xml version="1.0" encoding="utf-8" ?>
<svg baseProfile="tiny" height="128" version="1.2" viewBox="0,0,128,128" width="128" xmlns="http://www.w3.org/2000/svg" xmlns:ev="http://www.w3.org/2001/xml-events" xmlns:xlink="http://www.w3.org/1999/xlink"><defs /><polyline fill="none" points="28.2034,21.6949 9.9797,9.1119 8.678,10.4136 8.678,16.4881 10.8475,20.3932 16.0542,25.6" stroke="#00007f" stroke-width="2" /><polyline fill="none" points="27.7695,21.261 40.7864,18.2237 54.6712,18.2237 59.4441,20.3932 63.3492,16.0542 74.6305,8.678 76.8,19.0915 75.4983,25.6 82.8746,34.7119 85.478,40.3525 86.7797,58.1424 84.6102,65.5186 80.2712,72.461 70.7254,79.8373 63.7831,82.8746 41.2203,83.3085 23.4305,73.3288 17.3559,64.6508 12.5831,44.2576 12.5831,34.278 17.3559,26.9017" stroke="#0080ff" stroke-width="2" /><polyline fill="none" points="72.8949,61.1797 75.0644,59.0102 80.2712,57.2746 114.1153,52.0678" stroke="#7cff79" stroke-width="2" /><polyline fill="none" points="66.8203,54.2373 97.6271,54.6712 109.3424,56.8407 119.322,59.878" stroke="#ff9400" stroke-width="2" /><polyline fill="none" points="83.3085,65.5186 73.7627,65.5186 86.3458,63.7831 110.6441,63.3492" stroke="#7f0000" stroke-width="2" /></svg>