<?xml version="1.0" encoding="utf-8" ?>
<svg baseProfile="tiny" height="128" version="1.2" viewBox="0,0,128,128" width="128" xmlns="http://www.w3.org/2000/svg" xmlns:ev="http://www.w3.org/2001/xml-events" xmlns:xlink="http://www.w3.org/1999/xlink"><defs /><polyline fill="none" points="19.9593,52.9356 19.9593,35.5797 14.3186,10.8475 24.2983,26.9017 36.8814,39.9186 62.9153,36.8814 74.1966,36.8814 80.7051,39.0508 102.4,16.922 114.9831,8.678 114.9831,11.7153 107.6068,24.2983 86.7797,49.8983 86.7797,52.0678 102.8339,52.9356 109.3424,56.8407 113.2475,64.6508 112.8136,76.3661 106.3051,91.5525 96.7593,100.2305 86.3458,105.4373 69.4237,110.6441 52.5017,111.5119 22.5627,105.8712 17.7898,103.7017 14.3186,97.6271 10.8475,72.0271 12.1492,66.3864 24.2983,51.2" stroke="#00007f" stroke-width="2" /><polyline fill="none" points="61.1797,71.1593 57.2746,72.0271 55.539,74.1966 55.1051,77.2339 55.9729,78.9695 63.7831,82.0068 69.4237,82.0068 72.461,76.8 72.0271,71.5932 62.4814,69.8576" stroke="#0010ff" stroke-width="2" /><polyline fill="none" points="53.8034,78.9695 52.9356,92.4203 48.1627,95.0237 38.6169,95.4576" stroke="#00a4ff" stroke-width="2" /><polyline fill="none" points="62.0475,83.7424 64.2169,88.0814 71.5932,90.2508 78.1017,90.2508 85.478,86.7797" stroke="#3fffb7" stroke-width="2" /><polyline fill="none" points="50.3322,72.8949 39.4847,72.8949 18.6576,68.9898" stroke="#b7ff3f" stroke-width="2" /><polyline fill="none" points="46.4271,79.8373 34.278,78.5356 8.678,82.4407" stroke="#ffb900" stroke-width="2" /><polyline fill="none" points="44.2576,94.1559 37.7492,95.0237 9.1119,108.4746" stroke="#ff3000" stroke-width="2" /><polyline fill="none" points="76.8,75.9322 119.322,60.3119" stroke="#7f0000" stroke-width="2" /></svg>