<?xml version="1.0" encoding="utf-8" ?>
<svg baseProfile="tiny" height="128" version="1.2" viewBox="0,0,128,128" width="128" xmlns="http://www.w3.org/2000/svg" xmlns:ev="http://www.w3.org/2001/xml-events" xmlns:xlink="http://www.w3.org/1999/xlink"><defs /><polyline fill="none" points="105.4373,21.6949 98.061,19.9593 86.7797,20.8271 72.0271,28.6373 65.9525,36.8814 63.7831,45.5593 64.2169,50.7661 69.4237,59.878 78.5356,65.9525 88.9492,68.122 101.9661,67.6881 107.6068,65.9525 114.9831,61.1797 117.1525,58.5763 119.322,52.5017 118.8881,37.3153 116.2847,31.6746 108.4746,25.1661" stroke="#00007f" stroke-width="2" /><polyline fill="none" points="105.8712,22.1288 108.0407,18.6576 118.8881,9.5458 111.9458,29.5051" stroke="#0000ff" stroke-width="2" /><polyline fill="none" points="76.8,22.9966 74.1966,16.4881 67.6881,8.678 67.2542,11.2814 72.0271,26.9017" stroke="#0080ff" stroke-width="2" /><polyline fill="none" points="97.1932,44.2576 91.9864,43.3898 95.0237,48.5966 97.6271,44.6915" stroke="#15ffe1" stroke-width="2" /><polyline fill="none" points="93.2881,51.6339 93.722,58.5763 90.6847,60.3119 85.9119,60.3119 80.2712,56.8407 77.6678,51.2 79.4034,49.4644" stroke="#7cff79" stroke-width="2" /><polyline fill="none" points="95.0237,49.4644 96.3254,57.7085 98.4949,59.0102 110.2102,58.5763" stroke="#e4ff12" stroke-width="2" /><polyline fill="none" points="85.478,36.4475 85.0441,38.6169 86.3458,39.0508 86.3458,38.1831 85.0441,36.8814 86.7797,39.4847" stroke="#ff9400" stroke-width="2" /><polyline fill="none" points="97.6271,36.4475 97.6271,37.7492 96.3254,36.0136" stroke="#ff1d00" stroke-width="2" /><polyline fill="none" points="67.2542,61.6136 65.5186,59.878 58.1424,59.878 53.3695,62.4814 51.2,65.5186 47.2949,78.9695 39.9186,85.9119 30.8068,88.0814 25.1661,88.0814 22.1288,86.7797 16.922,78.9695 17.3559,68.122 20.8271,62.0475 34.7119,45.1254 38.6169,35.1458 37.7492,30.3729 33.8441,27.7695 27.7695,26.9017 24.7322,28.6373 24.7322,31.2407 27.7695,37.3153 27.3356,42.0881 17.3559,54.2373 9.9797,66.3864 8.678,80.2712 12.5831,87.6475 16.4881,90.6847 30.8068,94.5898 42.9559,93.722" stroke="#7f0000" stroke-width="2" /></svg>