<?xml version="1.0" encoding="utf-8" ?>
<svg baseProfile="tiny" height="128" version="1.2" viewBox="0,0,128,128" width="128" xmlns="http://www.w3.org/2000/svg" xmlns:ev="http://www.w3.org/2001/xml-events" xmlns:xlink="http://www.w3.org/1999/xlink"><defs /><polyline fill="none" points="73.3288,50.3322 59.878,49.0305 46.861,51.6339 39.9186,56.4068 33.8441,64.2169 30.8068,70.2915 29.0712,78.9695 28.6373,92.4203 31.6746,104.5695 36.8814,112.8136 45.5593,118.8881 54.6712,119.322 81.139,103.2678 89.8169,95.0237 94.5898,88.5153 95.4576,83.3085 90.2508,62.0475 82.4407,42.9559 77.6678,38.1831 73.7627,36.8814 66.3864,36.0136 62.9153,38.1831" stroke="#00007f" stroke-width="2" /><polyline fill="none" points="31.6746,62.9153 32.9763,45.9932 36.0136,29.939 36.8814,30.8068" stroke="#0000c8" stroke-width="2" /><polyline fill="none" points="46.861,62.0475 39.9186,24.2983" stroke="#0000ff" stroke-width="2" /><polyline fill="none" points="64.6508,45.5593 82.8746,16.0542 88.9492,8.678" stroke="#0040ff" stroke-width="2" /><polyline fill="none" points="89.3831,52.5017 88.0814,41.2203 89.3831,16.0542" stroke="#0080ff" stroke-width="2" /><polyline fill="none" points="48.5966,81.5729 56.4068,82.4407" stroke="#00c0ff" stroke-width="2" /><polyline fill="none" points="48.5966,82.0068 50.3322,87.6475 52.5017,89.8169 56.4068,83.7424" stroke="#15ffe1" stroke-width="2" /><polyline fill="none" points="51.2,91.9864 48.1627,101.9661 42.522,109.3424 38.1831,104.5695 35.1458,91.9864" stroke="#49ffad" stroke-width="2" /><polyline fill="none" points="51.6339,95.4576 52.0678,98.4949 55.539,100.6644 60.3119,98.9288 61.1797,95.8915" stroke="#7cff79" stroke-width="2" /><polyline fill="none" points="38.1831,69.8576 40.7864,65.5186 44.2576,75.0644" stroke="#b0ff46" stroke-width="2" /><polyline fill="none" points="60.7458,73.3288 65.0847,64.6508 69.4237,78.5356" stroke="#e4ff12" stroke-width="2" /><polyline fill="none" points="47.2949,82.8746 24.2983,68.122 8.678,60.3119" stroke="#ffcf00" stroke-width="2" /><polyline fill="none" points="62.0475,80.7051 109.7763,61.1797" stroke="#ff9400" stroke-width="2" /><polyline fill="none" points="46.861,85.0441 19.0915,79.8373 13.0169,76.8" stroke="#ff5900" stroke-width="2" /><polyline fill="none" points="57.7085,88.0814 91.1186,84.6102" stroke="#ff1d00" stroke-width="2" /><polyline fill="none" points="52.9356,90.2508 82.4407,111.5119" stroke="#c30000" stroke-width="2" /><polyline fill="none" points="45.5593,88.5153 38.1831,89.8169 16.0542,105.8712" stroke="#7f0000" stroke-width="2" /></svg>