<?xml version="1.0" encoding="utf-8" ?>
<svg baseProfile="tiny" height="128" version="1.2" viewBox="0,0,128,128" width="128" xmlns="http://www.w3.org/2000/svg" xmlns:ev="http://www.w3.org/2001/xml-events" xmlns:xlink="http://www.w3.org/1999/xlink"><defs /><polyline fill="none" points="49.0305,39.9186 29.0712,35.5797 20.8271,35.5797 15.6203,37.3153 10.8475,41.6542 8.678,46.861 8.678,60.3119 13.0169,67.6881 18.6576,72.0271 32.9763,73.3288 43.8237,60.3119 47.7288,51.6339 48.1627,43.8237 49.4644,42.522" stroke="#00007f" stroke-width="2" /><polyline fill="none" points="41.2203,65.0847 42.522,70.7254 46.861,72.8949 69.4237,76.3661 86.7797,76.3661 92.8542,72.8949 97.6271,67.6881 99.3627,60.7458 99.3627,51.2 95.0237,42.9559 90.6847,39.0508 82.4407,36.4475 66.8203,36.0136 51.2,42.522" stroke="#0000ff" stroke-width="2" /><polyline fill="none" points="55.1051,76.3661 47.7288,84.1763 43.8237,94.5898 42.522,114.5492 42.9559,117.1525 46.4271,119.322" stroke="#0080ff" stroke-width="2" /><polyline fill="none" points="72.0271,76.8 66.8203,81.5729 64.6508,87.2136 62.0475,108.9085" stroke="#15ffe1" stroke-width="2" /><polyline fill="none" points="84.6102,74.6305 81.5729,78.5356 80.2712,101.0983 87.6475,109.7763" stroke="#7cff79" stroke-width="2" /><polyline fill="none" points="25.1661,35.1458 21.261,36.0136 16.4881,34.7119 9.1119,28.6373 9.5458,19.5254 12.5831,15.1864" stroke="#e4ff12" stroke-width="2" /><polyline fill="none" points="34.278,35.5797 31.6746,34.7119 23.8644,23.8644 13.0169,16.0542" stroke="#ff9400" stroke-width="2" /><polyline fill="none" points="37.7492,34.278 36.0136,31.6746 36.0136,20.3932 32.5424,9.9797 30.3729,8.678 18.6576,13.0169" stroke="#ff1d00" stroke-width="2" /><polyline fill="none" points="106.739,50.7661 104.1356,50.3322 105.4373,22.9966 101.5322,19.5254 78.9695,12.5831" stroke="#7f0000" stroke-width="2" /></svg>