<?xml version="1.0" encoding="utf-8" ?>
<svg baseProfile="tiny" height="128" version="1.2" viewBox="0,0,128,128" width="128" xmlns="http://www.w3.org/2000/svg" xmlns:ev="http://www.w3.org/2001/xml-events" xmlns:xlink="http://www.w3.org/1999/xlink"><defs /><polyline fill="none" points="93.2881,45.9932 59.0102,40.7864 47.2949,40.7864 39.0508,43.3898 26.9017,19.9593 18.2237,10.8475 9.9797,43.3898" stroke="#00007f" stroke-width="2" /><polyline fill="none" points="87.6475,49.4644 96.7593,16.4881 101.0983,9.1119 104.5695,8.678 107.6068,19.9593 116.2847,42.0881 118.4542,53.8034" stroke="#0028ff" stroke-width="2" /><polyline fill="none" points="113.6814,59.0102 116.7186,65.5186 114.9831,87.2136 110.2102,96.3254 104.5695,103.2678 97.6271,108.4746 82.0068,114.9831 69.8576,117.5864 48.1627,118.4542 33.8441,116.2847 24.2983,111.5119 16.4881,104.5695 10.4136,97.1932 8.678,89.3831 8.678,79.8373 10.8475,63.3492 13.4508,55.539" stroke="#00d4ff" stroke-width="2" /><polyline fill="none" points="55.9729,91.5525 11.7153,90.2508" stroke="#7cff79" stroke-width="2" /><polyline fill="none" points="62.0475,98.061 36.4475,109.7763 11.7153,117.5864" stroke="#ffe500" stroke-width="2" /><polyline fill="none" points="86.7797,96.7593 116.2847,88.9492" stroke="#ff4600" stroke-width="2" /><polyline fill="none" points="75.4983,106.3051 115.4169,110.6441 118.0203,111.9458 119.322,114.5492" stroke="#7f0000" stroke-width="2" /></svg>