<?xml version="1.0" encoding="utf-8" ?>
<svg baseProfile="tiny" height="128" version="1.2" viewBox="0,0,128,128" width="128" xmlns="http://www.w3.org/2000/svg" xmlns:ev="http://www.w3.org/2001/xml-events" xmlns:xlink="http://www.w3.org/1999/xlink"><defs /><polyline fill="none" points="85.0441,26.4678 50.7661,26.0339 32.9763,28.6373 20.3932,33.8441 16.4881,40.7864 16.922,55.9729 26.9017,81.5729 31.2407,88.0814 38.1831,96.3254 45.5593,101.5322 61.6136,104.1356 81.5729,104.1356 87.2136,102.8339 91.9864,99.7966 99.7966,91.9864 108.9085,77.2339 112.8136,67.2542 114.5492,59.0102 114.5492,45.9932 112.3797,41.2203 107.6068,36.4475 74.1966,26.4678 62.9153,25.1661" stroke="#00007f" stroke-width="2" /><polyline fill="none" points="89.8169,28.2034 98.4949,12.1492 105.8712,9.1119 112.8136,9.1119 116.2847,12.1492 118.8881,16.4881 119.322,26.0339 111.5119,39.4847 110.2102,38.6169" stroke="#0000de" stroke-width="2" /><polyline fill="none" points="30.3729,26.9017 29.939,17.7898 25.6,9.5458 15.1864,8.678 10.4136,11.2814 8.678,13.0169 8.678,16.4881 21.261,36.0136" stroke="#0028ff" stroke-width="2" /><polyline fill="none" points="64.6508,68.9898 62.0475,62.0475 70.7254,60.7458 71.1593,62.9153 66.3864,69.4237 63.3492,76.8 58.5763,79.4034 47.2949,79.8373 35.5797,72.8949" stroke="#0080ff" stroke-width="2" /><polyline fill="none" points="66.3864,70.2915 66.3864,74.1966 68.5559,77.2339 71.5932,78.5356 77.6678,77.6678" stroke="#00d4ff" stroke-width="2" /><polyline fill="none" points="45.9932,42.9559 42.0881,42.522 39.0508,46.861 39.9186,49.4644 43.3898,52.5017 47.7288,53.8034 50.7661,49.0305 50.7661,45.9932 48.1627,43.3898 43.3898,42.0881" stroke="#36ffc0" stroke-width="2" /><polyline fill="none" points="80.2712,46.4271 77.6678,48.5966 77.2339,51.2 82.8746,55.539 92.8542,55.539 95.8915,53.3695 96.3254,51.2 92.4203,47.7288 79.8373,45.1254" stroke="#7cff79" stroke-width="2" /><polyline fill="none" points="88.5153,67.6881 94.5898,71.5932 119.322,78.5356 113.6814,78.9695" stroke="#c0ff36" stroke-width="2" /><polyline fill="none" points="90.2508,80.7051 96.7593,84.1763 106.739,87.2136" stroke="#ffe500" stroke-width="2" /><polyline fill="none" points="91.5525,88.5153 96.3254,94.5898 105.4373,98.061" stroke="#ff9400" stroke-width="2" /><polyline fill="none" points="31.6746,68.5559 19.5254,72.8949" stroke="#ff4600" stroke-width="2" /><polyline fill="none" points="30.8068,80.2712 21.6949,83.3085 20.8271,85.478" stroke="#de0000" stroke-width="2" /><polyline fill="none" points="39.4847,85.9119 24.2983,89.8169" stroke="#7f0000" stroke-width="2" /></svg>