<?xml version="1.0" encoding="utf-8" ?>
<svg baseProfile="tiny" height="128" version="1.2" viewBox="0,0,128,128" width="128" xmlns="http://www.w3.org/2000/svg" xmlns:ev="http://www.w3.org/2001/xml-events" xmlns:xlink="http://www.w3.org/1999/xlink"><defs /><polyline fill="none" points="80.7051,93.722 102.8339,93.722 111.5119,91.1186 111.9458,76.8 111.078,71.5932 105.0034,52.9356 99.3627,43.8237 89.8169,36.0136 82.8746,36.0136 49.0305,42.522 31.6746,48.1627 29.939,62.0475 30.8068,67.6881 36.8814,79.8373 44.6915,87.6475 59.4441,92.8542 72.0271,93.2881 75.0644,86.3458" stroke="#00007f" stroke-width="2" /><polyline fill="none" points="99.3627,46.4271 101.9661,43.8237 108.4746,32.5424 119.322,9.9797 116.7186,8.678 112.8136,10.4136 88.5153,26.0339 82.4407,28.6373" stroke="#0080ff" stroke-width="2" /><polyline fill="none" points="39.4847,39.0508 16.922,29.939 8.678,27.7695 14.7525,39.0508 19.0915,50.3322 30.3729,55.1051" stroke="#7cff79" stroke-width="2" /><polyline fill="none" points="67.2542,66.8203 64.6508,66.8203" stroke="#ff9400" stroke-width="2" /><polyline fill="none" points="83.3085,60.7458 83.3085,60.7458" stroke="#7f0000" stroke-width="2" /></svg>