<?xml version="1.0" encoding="utf-8" ?>
<svg baseProfile="tiny" height="128" version="1.2" viewBox="0,0,128,128" width="128" xmlns="http://www.w3.org/2000/svg" xmlns:ev="http://www.w3.org/2001/xml-events" xmlns:xlink="http://www.w3.org/1999/xlink"><defs /><polyline fill="none" points="46.861,30.8068 32.1085,13.4508 30.8068,27.7695 26.0339,48.1627" stroke="#00007f" stroke-width="2" /><polyline fill="none" points="48.5966,29.939 55.9729,24.7322 64.6508,22.9966 70.7254,25.1661 75.0644,31.2407" stroke="#0000ff" stroke-width="2" /><polyline fill="none" points="76.3661,30.8068 82.4407,18.2237 91.1186,8.678 96.3254,50.3322 91.9864,58.5763 82.4407,68.9898 73.3288,74.6305 64.6508,78.1017 45.5593,79.8373 38.6169,78.5356 31.6746,75.0644 26.0339,68.9898 23.8644,58.5763 25.1661,48.5966 29.0712,42.9559" stroke="#0080ff" stroke-width="2" /><polyline fill="none" points="77.2339,52.0678 101.9661,38.6169 110.6441,36.4475" stroke="#15ffe1" stroke-width="2" /><polyline fill="none" points="77.2339,52.0678 109.7763,56.4068 119.322,59.878" stroke="#7cff79" stroke-width="2" /><polyline fill="none" points="78.5356,51.6339 111.9458,84.6102" stroke="#e4ff12" stroke-width="2" /><polyline fill="none" points="43.8237,51.2 23.4305,48.5966 8.678,48.1627" stroke="#ff9400" stroke-width="2" /><polyline fill="none" points="45.1254,49.8983 9.9797,64.2169" stroke="#ff1d00" stroke-width="2" /><polyline fill="none" points="43.3898,51.6339 31.6746,62.9153 19.5254,79.8373" stroke="#7f0000" stroke-width="2" /></svg>