<?xml version="1.0" encoding="utf-8" ?>
<svg baseProfile="tiny" height="128" version="1.2" viewBox="0,0,128,128" width="128" xmlns="http://www.w3.org/2000/svg" xmlns:ev="http://www.w3.org/2001/xml-events" xmlns:xlink="http://www.w3.org/1999/xlink"><defs /><polyline fill="none" points="32.5424,32.1085 8.678,12.1492 9.9797,43.8237 12.5831,55.1051 16.922,62.9153 27.3356,71.1593 39.0508,75.9322 56.8407,78.1017 69.4237,73.7627 75.0644,68.5559 79.8373,56.8407 80.7051,50.7661 77.2339,28.2034 70.2915,8.678 66.3864,32.9763 62.0475,33.4102 48.5966,31.6746 39.0508,33.4102" stroke="#00007f" stroke-width="2" /><polyline fill="none" points="36.0136,73.7627 28.6373,75.9322 25.1661,80.7051 19.5254,94.1559 18.2237,107.6068 22.1288,116.2847 26.4678,117.1525 31.2407,116.2847 38.6169,108.9085 39.4847,95.8915" stroke="#00d4ff" stroke-width="2" /><polyline fill="none" points="70.7254,77.6678 74.1966,76.3661 78.5356,76.8 84.1763,82.4407 87.6475,93.2881 88.9492,108.4746 86.3458,117.1525 81.5729,119.322 79.4034,118.0203 69.8576,96.3254" stroke="#ffe500" stroke-width="2" /><polyline fill="none" points="41.2203,43.8237 41.2203,43.8237" stroke="#7f0000" stroke-width="2" /></svg>