<?xml version="1.0" encoding="utf-8" ?>
<svg baseProfile="tiny" height="128" version="1.2" viewBox="0,0,128,128" width="128" xmlns="http://www.w3.org/2000/svg" xmlns:ev="http://www.w3.org/2001/xml-events" xmlns:xlink="http://www.w3.org/1999/xlink"><defs /><polyline fill="none" points="21.6949,45.5593 22.9966,23.8644 26.9017,10.8475 29.0712,8.678 36.0136,22.1288 44.6915,46.861 47.2949,43.8237 53.8034,41.2203 78.5356,41.2203 87.2136,43.8237 88.5153,35.5797 93.722,21.6949 98.9288,12.1492 101.0983,10.8475 105.0034,27.7695 106.3051,56.8407" stroke="#00007f" stroke-width="2" /><polyline fill="none" points="17.7898,52.9356 13.4508,74.6305 13.8847,88.0814 16.0542,90.6847 29.939,100.2305 48.1627,105.8712 59.878,107.6068 77.6678,107.6068 86.3458,105.4373 97.1932,100.6644 107.6068,91.1186 110.6441,85.478 111.078,70.2915 110.2102,67.2542 101.5322,57.2746" stroke="#0000e8" stroke-width="2" /><polyline fill="none" points="59.0102,74.6305 57.7085,82.4407 54.6712,87.2136 49.4644,91.9864 43.8237,93.2881" stroke="#0038ff" stroke-width="2" /><polyline fill="none" points="61.6136,81.139 62.0475,88.0814 65.9525,94.1559 70.2915,97.6271 77.6678,98.4949" stroke="#0094ff" stroke-width="2" /><polyline fill="none" points="44.2576,56.4068 44.2576,62.0475 45.5593,63.7831" stroke="#0cf4ea" stroke-width="2" /><polyline fill="none" points="79.4034,60.7458 77.2339,64.2169 76.8,68.5559" stroke="#56ffa0" stroke-width="2" /><polyline fill="none" points="8.678,75.0644 12.1492,73.7627 35.5797,72.461" stroke="#a0ff56" stroke-width="2" /><polyline fill="none" points="20.3932,79.8373 41.2203,76.8" stroke="#eaff0c" stroke-width="2" /><polyline fill="none" points="21.261,87.6475 47.2949,86.3458" stroke="#ffaa00" stroke-width="2" /><polyline fill="none" points="86.3458,72.0271 91.5525,71.5932 119.322,77.6678" stroke="#ff5500" stroke-width="2" /><polyline fill="none" points="82.8746,82.0068 109.3424,88.9492" stroke="#e80000" stroke-width="2" /><polyline fill="none" points="85.478,89.3831 115.4169,92.4203" stroke="#7f0000" stroke-width="2" /></svg>