<?xml version="1.0" encoding="utf-8" ?>
<svg baseProfile="tiny" height="128" version="1.2" viewBox="0,0,128,128" width="128" xmlns="http://www.w3.org/2000/svg" xmlns:ev="http://www.w3.org/2001/xml-events" xmlns:xlink="http://www.w3.org/1999/xlink"><defs /><polyline fill="none" points="22.1288,43.8237 38.6169,12.1492 42.0881,28.2034 46.861,38.1831 65.5186,39.0508 75.9322,42.0881 79.4034,24.2983 88.0814,10.4136 91.1186,8.678 91.1186,29.0712 92.8542,38.1831 94.5898,43.3898 96.3254,43.8237 102.4,55.1051 104.5695,65.0847 100.2305,76.8 94.1559,85.478 78.1017,94.1559 62.0475,98.061 53.3695,97.1932 45.9932,93.2881 44.2576,90.6847 35.5797,84.6102 22.1288,64.6508 20.3932,51.6339 21.261,44.2576" stroke="#00007f" stroke-width="2" /><polyline fill="none" points="58.5763,61.6136 56.8407,68.5559 65.0847,69.4237 59.4441,59.0102" stroke="#0000e8" stroke-width="2" /><polyline fill="none" points="58.5763,70.2915 59.0102,75.4983 56.8407,80.2712 48.1627,80.2712 45.9932,78.5356" stroke="#0038ff" stroke-width="2" /><polyline fill="none" points="60.3119,70.2915 65.0847,80.2712 68.9898,82.8746 77.6678,82.0068 79.4034,75.4983" stroke="#0094ff" stroke-width="2" /><polyline fill="none" points="82.0068,65.0847 89.3831,56.8407 95.4576,53.3695" stroke="#0cf4ea" stroke-width="2" /><polyline fill="none" points="85.478,67.6881 96.3254,63.3492 99.7966,63.3492" stroke="#56ffa0" stroke-width="2" /><polyline fill="none" points="92.4203,75.4983 101.5322,73.7627 112.3797,73.7627 119.322,75.9322" stroke="#a0ff56" stroke-width="2" /><polyline fill="none" points="35.5797,66.3864 22.9966,65.0847 13.8847,66.8203 8.678,69.4237" stroke="#eaff0c" stroke-width="2" /><polyline fill="none" points="41.6542,72.0271 27.7695,79.4034 23.8644,84.6102" stroke="#ffaa00" stroke-width="2" /><polyline fill="none" points="31.2407,80.2712 27.7695,91.5525" stroke="#ff5500" stroke-width="2" /><polyline fill="none" points="48.1627,52.5017 48.1627,52.5017" stroke="#e80000" stroke-width="2" /><polyline fill="none" points="75.4983,49.4644 75.4983,49.8983" stroke="#7f0000" stroke-width="2" /></svg>