<?xml version="1.0" encoding="utf-8" ?>
<svg baseProfile="tiny" height="128" version="1.2" viewBox="0,0,128,128" width="128" xmlns="http://www.w3.org/2000/svg" xmlns:ev="http://www.w3.org/2001/xml-events" xmlns:xlink="http://www.w3.org/1999/xlink"><defs /><polyline fill="none" points="8.678,45.5593 12.1492,8.678 19.0915,26.0339 33.8441,50.7661" stroke="#00007f" stroke-width="2" /><polyline fill="none" points="77.6678,48.5966 100.2305,14.7525 102.4,12.1492 108.4746,10.4136 109.3424,14.3186 107.1729,20.8271 107.1729,26.9017 108.9085,42.0881 111.078,49.4644" stroke="#004cff" stroke-width="2" /><polyline fill="none" points="111.078,49.4644 91.5525,49.4644 80.2712,47.7288 20.3932,45.1254 15.6203,46.4271 12.1492,49.8983 9.5458,58.1424 8.678,73.3288 13.8847,88.9492 18.2237,96.3254 27.3356,102.8339 34.278,105.8712 49.8983,108.4746 74.1966,108.4746 85.9119,106.3051 101.5322,99.7966 111.078,92.8542 119.322,84.6102 118.0203,80.7051 118.0203,68.122 113.6814,64.6508 101.0983,50.3322" stroke="#29ffcd" stroke-width="2" /><polyline fill="none" points="64.6508,83.3085 50.3322,85.478 49.0305,87.6475 49.4644,89.3831 53.3695,93.2881 60.3119,94.5898 68.5559,93.2881 72.8949,90.2508 73.3288,88.0814 71.5932,83.7424 68.9898,81.5729" stroke="#cdff29" stroke-width="2" /><polyline fill="none" points="37.7492,85.9119 29.5051,76.8 23.8644,72.8949" stroke="#ff6700" stroke-width="2" /><polyline fill="none" points="45.9932,85.0441 42.9559,84.1763" stroke="#7f0000" stroke-width="2" /></svg>