<?xml version="1.0" encoding="utf-8" ?>
<svg baseProfile="tiny" height="128" version="1.2" viewBox="0,0,128,128" width="128" xmlns="http://www.w3.org/2000/svg" xmlns:ev="http://www.w3.org/2001/xml-events" xmlns:xlink="http://www.w3.org/1999/xlink"><defs /><polyline fill="none" points="16.0542,42.522 10.4136,42.9559 8.678,48.1627 9.1119,53.8034 13.0169,56.4068 24.2983,57.2746 26.4678,55.9729 28.2034,52.9356 26.4678,49.0305 22.1288,44.6915 13.4508,39.4847 12.5831,41.2203" stroke="#00007f" stroke-width="2" /><polyline fill="none" points="65.9525,48.5966 45.5593,47.7288 36.4475,49.0305 23.8644,54.6712 19.9593,59.4441 20.3932,67.6881 24.2983,71.1593 31.2407,73.7627 48.1627,76.3661 60.3119,75.0644 73.7627,67.6881 75.4983,63.7831 74.1966,59.4441 67.2542,54.2373 61.1797,52.5017 52.9356,52.5017 45.9932,55.9729" stroke="#0028ff" stroke-width="2" /><polyline fill="none" points="29.0712,73.3288 28.2034,77.2339" stroke="#00d4ff" stroke-width="2" /><polyline fill="none" points="35.1458,73.3288 35.1458,78.9695 37.3153,80.2712" stroke="#7cff79" stroke-width="2" /><polyline fill="none" points="51.6339,75.0644 54.2373,79.8373" stroke="#ffe500" stroke-width="2" /><polyline fill="none" points="61.6136,73.7627 68.5559,78.5356" stroke="#ff4600" stroke-width="2" /><polyline fill="none" points="74.6305,58.1424 78.9695,57.7085 88.5153,52.0678 96.7593,43.8237 101.5322,36.4475 105.8712,25.1661 106.739,16.4881 103.2678,9.9797 101.0983,8.678 98.9288,9.5458 96.3254,12.5831 93.722,20.8271 94.1559,28.2034 96.3254,31.2407 99.7966,33.8441 104.5695,34.278 108.0407,32.9763 111.9458,28.6373 119.322,30.8068 119.322,32.5424" stroke="#7f0000" stroke-width="2" /></svg>