<?xml version="1.0" encoding="utf-8" ?>
<svg baseProfile="tiny" height="128" version="1.2" viewBox="0,0,128,128" width="128" xmlns="http://www.w3.org/2000/svg" xmlns:ev="http://www.w3.org/2001/xml-events" xmlns:xlink="http://www.w3.org/1999/xlink"><defs /><polyline fill="none" points="22.9966,26.9017 16.0542,28.2034 16.0542,33.8441 18.2237,34.7119 19.9593,33.4102 20.8271,25.1661" stroke="#00007f" stroke-width="2" /><polyline fill="none" points="38.1831,26.9017 32.1085,28.2034 31.6746,32.5424 32.9763,32.5424 36.8814,30.8068 37.3153,27.7695" stroke="#004cff" stroke-width="2" /><polyline fill="none" points="14.3186,25.6 21.6949,20.8271 31.6746,20.8271 38.1831,22.5627 43.3898,29.5051 43.8237,36.0136 42.0881,39.0508 38.6169,42.522 34.278,44.2576 26.4678,44.2576 22.1288,42.9559 15.6203,38.6169 8.678,29.5051 11.2814,24.7322 15.1864,24.2983" stroke="#29ffcd" stroke-width="2" /><polyline fill="none" points="14.7525,22.9966 15.1864,8.678 17.7898,11.7153 20.8271,22.1288" stroke="#cdff29" stroke-width="2" /><polyline fill="none" points="34.278,21.6949 40.3525,11.2814 39.0508,22.1288" stroke="#ff6700" stroke-width="2" /><polyline fill="none" points="43.3898,36.0136 72.0271,34.278 115.4169,34.278 117.5864,36.4475 119.322,43.3898" stroke="#7f0000" stroke-width="2" /></svg>