<?xml version="1.0" encoding="utf-8" ?>
<svg baseProfile="tiny" height="128" version="1.2" viewBox="0,0,128,128" width="128" xmlns="http://www.w3.org/2000/svg" xmlns:ev="http://www.w3.org/2001/xml-events" xmlns:xlink="http://www.w3.org/1999/xlink"><defs /><polyline fill="none" points="101.0983,54.2373 94.5898,49.0305 83.7424,45.5593 75.9322,43.8237 60.7458,44.6915 45.5593,49.0305 38.1831,53.8034 36.8814,57.2746 43.8237,62.4814 55.1051,65.0847 66.8203,65.0847 83.3085,62.9153 92.4203,59.4441 96.7593,55.9729 95.8915,51.2 91.9864,49.4644" stroke="#00007f" stroke-width="2" /><polyline fill="none" points="95.4576,51.2 109.3424,55.539 113.6814,53.3695 117.5864,49.0305 119.322,41.2203 116.7186,31.2407 111.9458,25.6 103.7017,18.6576 109.7763,11.2814 114.1153,8.678" stroke="#0000e8" stroke-width="2" /><polyline fill="none" points="94.1559,58.1424 97.6271,76.8" stroke="#0038ff" stroke-width="2" /><polyline fill="none" points="76.8,68.5559 78.1017,77.6678" stroke="#0094ff" stroke-width="2" /><polyline fill="none" points="43.3898,68.5559 40.3525,80.7051" stroke="#0cf4ea" stroke-width="2" /><polyline fill="none" points="54.6712,67.6881 53.3695,79.8373" stroke="#56ffa0" stroke-width="2" /><polyline fill="none" points="49.4644,45.5593 50.3322,34.7119 45.1254,28.2034 39.0508,24.2983 32.1085,23.8644 25.1661,27.7695 22.5627,37.7492 24.2983,46.861 28.6373,52.5017 34.7119,53.8034 44.2576,49.8983 48.5966,45.1254" stroke="#a0ff56" stroke-width="2" /><polyline fill="none" points="37.7492,21.6949 42.0881,16.0542 49.0305,13.0169 52.5017,13.0169 52.9356,14.7525 46.4271,28.2034" stroke="#eaff0c" stroke-width="2" /><polyline fill="none" points="26.0339,23.4305 18.6576,21.6949 8.678,24.7322 10.4136,28.2034 23.8644,39.0508" stroke="#ffaa00" stroke-width="2" /><polyline fill="none" points="37.7492,34.278 37.7492,34.278" stroke="#ff5500" stroke-width="2" /><polyline fill="none" points="25.1661,39.4847 25.1661,39.4847" stroke="#e80000" stroke-width="2" /><polyline fill="none" points="35.5797,40.7864 36.0136,46.4271 34.278,47.7288 30.8068,48.1627" stroke="#7f0000" stroke-width="2" /></svg>