<?xml version="1.0" encoding="utf-8" ?>
<svg baseProfile="tiny" height="128" version="1.2" viewBox="0,0,128,128" width="128" xmlns="http://www.w3.org/2000/svg" xmlns:ev="http://www.w3.org/2001/xml-events" xmlns:xlink="http://www.w3.org/1999/xlink"><defs /><polyline fill="none" points="8.678,67.6881 32.9763,89.8169 43.3898,92.4203 46.4271,92.4203 49.8983,90.2508 60.3119,78.1017 62.9153,71.1593 65.5186,54.6712 65.5186,45.9932 63.7831,37.7492 56.8407,23.8644 45.9932,13.4508 33.4102,9.1119 25.6,8.678 22.1288,9.9797 17.7898,14.7525 12.1492,24.2983 8.678,39.4847 9.1119,50.7661 15.6203,77.2339" stroke="#00007f" stroke-width="2" /><polyline fill="none" points="25.1661,40.3525 28.2034,38.1831" stroke="#0000fe" stroke-width="2" /><polyline fill="none" points="43.8237,40.7864 43.8237,40.7864" stroke="#0060ff" stroke-width="2" /><polyline fill="none" points="40.7864,38.1831 42.0881,40.3525 42.0881,39.0508" stroke="#00d4ff" stroke-width="2" /><polyline fill="none" points="29.0712,49.4644 29.0712,68.9898 30.8068,70.7254 38.1831,63.3492 44.6915,51.6339 30.8068,52.9356 25.6,52.9356 23.8644,51.6339" stroke="#4cffaa" stroke-width="2" /><polyline fill="none" points="85.9119,57.7085 91.5525,57.7085" stroke="#aaff4c" stroke-width="2" /><polyline fill="none" points="80.7051,49.0305 85.0441,57.7085 85.9119,63.7831 82.8746,83.7424 85.9119,56.4068 88.5153,52.5017 93.2881,63.3492 98.061,88.0814 101.0983,75.4983" stroke="#ffe500" stroke-width="2" /><polyline fill="none" points="101.0983,74.1966 101.9661,59.878 102.8339,56.4068 104.1356,56.4068" stroke="#ff7a00" stroke-width="2" /><polyline fill="none" points="103.7017,51.2 109.3424,81.5729" stroke="#fe1200" stroke-width="2" /><polyline fill="none" points="110.6441,72.461 116.7186,70.7254 118.0203,66.8203 117.1525,63.7831 114.5492,63.7831 112.3797,66.3864 111.9458,73.7627 114.5492,79.4034 119.322,82.8746" stroke="#7f0000" stroke-width="2" /></svg>