<?xml version="1.0" encoding="utf-8" ?>
<svg baseProfile="tiny" height="128" version="1.2" viewBox="0,0,128,128" width="128" xmlns="http://www.w3.org/2000/svg" xmlns:ev="http://www.w3.org/2001/xml-events" xmlns:xlink="http://www.w3.org/1999/xlink"><defs /><polyline fill="none" points="55.539,40.7864 91.9864,39.4847 95.0237,36.8814 105.8712,8.678 109.3424,26.4678 113.2475,35.1458 119.322,43.8237 116.7186,72.461 112.3797,80.7051 101.5322,89.3831 92.4203,93.722 78.1017,96.7593 58.1424,95.4576 54.6712,94.1559 45.5593,87.2136 36.0136,68.122 21.6949,52.9356 9.1119,34.278 8.678,31.2407 10.8475,29.0712 18.6576,28.2034 42.0881,43.8237 50.3322,46.4271 53.3695,46.4271 58.1424,42.0881 61.1797,40.7864" stroke="#00007f" stroke-width="2" /><polyline fill="none" points="66.8203,59.0102 58.1424,64.6508 61.1797,65.5186 68.9898,65.0847 69.8576,62.4814 67.2542,60.7458 61.6136,61.6136" stroke="#0000fe" stroke-width="2" /><polyline fill="none" points="82.8746,56.8407 88.5153,61.6136 90.6847,60.7458" stroke="#0060ff" stroke-width="2" /><polyline fill="none" points="90.6847,59.0102 89.3831,59.0102" stroke="#00d4ff" stroke-width="2" /><polyline fill="none" points="90.6847,59.0102 85.0441,60.3119 83.3085,61.6136" stroke="#4cffaa" stroke-width="2" /><polyline fill="none" points="89.3831,68.9898 97.1932,67.2542" stroke="#aaff4c" stroke-width="2" /><polyline fill="none" points="88.5153,80.2712 89.3831,79.8373" stroke="#ffe500" stroke-width="2" /><polyline fill="none" points="74.1966,80.7051 74.1966,80.7051" stroke="#ff7a00" stroke-width="2" /><polyline fill="none" points="74.1966,80.7051 70.7254,80.7051 63.3492,84.6102" stroke="#fe1200" stroke-width="2" /><polyline fill="none" points="75.4983,84.6102 74.6305,85.0441" stroke="#7f0000" stroke-width="2" /></svg>