<?xml version="1.0" encoding="utf-8" ?>
<svg baseProfile="tiny" height="128" version="1.2" viewBox="0,0,128,128" width="128" xmlns="http://www.w3.org/2000/svg" xmlns:ev="http://www.w3.org/2001/xml-events" xmlns:xlink="http://www.w3.org/1999/xlink"><defs /><polyline fill="none" points="34.7119,46.861 29.939,40.7864 19.9593,35.5797 10.4136,28.2034 8.678,24.2983 9.1119,17.3559 12.1492,14.7525 19.5254,15.6203 26.0339,19.9593 39.9186,34.7119" stroke="#00007f" stroke-width="2" /><polyline fill="none" points="25.1661,57.2746 35.5797,39.0508 40.7864,33.4102 56.8407,26.4678 68.5559,25.6 82.8746,33.4102 95.0237,46.4271 99.3627,56.4068 100.6644,65.5186 100.6644,69.4237 97.1932,76.8 91.1186,82.0068 87.6475,83.3085 60.7458,87.6475 49.8983,87.6475 37.7492,84.6102 35.1458,82.8746 32.9763,78.1017 31.2407,55.1051 35.1458,41.6542 39.4847,37.3153" stroke="#0000fe" stroke-width="2" /><polyline fill="none" points="85.0441,30.3729 85.0441,23.8644 88.5153,16.0542 94.1559,9.5458 98.9288,8.678 101.9661,13.8847 104.5695,22.5627 104.1356,30.8068 98.9288,41.6542" stroke="#0060ff" stroke-width="2" /><polyline fill="none" points="52.9356,65.0847 47.2949,62.9153 38.1831,62.0475 33.4102,67.6881" stroke="#00d4ff" stroke-width="2" /><polyline fill="none" points="52.9356,75.0644 49.0305,73.3288 42.0881,73.3288 37.7492,73.7627 33.8441,75.9322" stroke="#4cffaa" stroke-width="2" /><polyline fill="none" points="57.7085,78.1017 39.4847,85.0441" stroke="#aaff4c" stroke-width="2" /><polyline fill="none" points="80.2712,64.6508 105.0034,60.7458" stroke="#ffe500" stroke-width="2" /><polyline fill="none" points="85.9119,76.8 100.6644,69.8576 114.9831,67.6881" stroke="#ff7a00" stroke-width="2" /><polyline fill="none" points="89.8169,78.1017 119.322,76.8" stroke="#fe1200" stroke-width="2" /><polyline fill="none" points="66.3864,64.6508 65.0847,62.9153 62.4814,67.2542 64.6508,67.2542 65.5186,65.5186 65.9525,62.0475 64.6508,61.1797 65.9525,62.4814 65.0847,62.9153" stroke="#7f0000" stroke-width="2" /></svg>