<?xml version="1.0" encoding="utf-8" ?>
<svg baseProfile="tiny" height="128" version="1.2" viewBox="0,0,128,128" width="128" xmlns="http://www.w3.org/2000/svg" xmlns:ev="http://www.w3.org/2001/xml-events" xmlns:xlink="http://www.w3.org/1999/xlink"><defs /><polyline fill="none" points="67.6881,38.1831 74.1966,36.0136 86.3458,35.5797 91.9864,39.0508 99.7966,48.1627 105.4373,64.2169 105.8712,77.2339 101.0983,92.4203 95.4576,102.8339 88.0814,107.1729 71.1593,107.6068 57.2746,103.7017 49.8983,99.7966 40.7864,90.6847 34.7119,80.2712 32.9763,67.6881 32.9763,58.1424 34.7119,52.0678 42.522,42.9559 51.6339,35.5797" stroke="#00007f" stroke-width="2" /><polyline fill="none" points="55.9729,73.3288 36.4475,61.1797 17.3559,47.2949" stroke="#0000fe" stroke-width="2" /><polyline fill="none" points="46.4271,75.4983 21.261,86.7797 8.678,96.7593" stroke="#0060ff" stroke-width="2" /><polyline fill="none" points="45.9932,85.0441 45.5593,96.7593 37.7492,119.322" stroke="#00d4ff" stroke-width="2" /><polyline fill="none" points="80.2712,79.8373 95.4576,67.6881 107.1729,55.1051" stroke="#4cffaa" stroke-width="2" /><polyline fill="none" points="78.5356,82.4407 92.8542,81.139 108.9085,91.9864" stroke="#aaff4c" stroke-width="2" /><polyline fill="none" points="85.478,88.9492 86.3458,92.8542 104.1356,110.6441 107.6068,118.0203 104.5695,118.0203" stroke="#ffe500" stroke-width="2" /><polyline fill="none" points="39.4847,49.0305 34.278,38.1831 30.3729,24.2983 33.4102,24.2983 42.0881,28.6373 44.6915,34.7119" stroke="#ff7a00" stroke-width="2" /><polyline fill="none" points="70.2915,29.0712 73.7627,29.0712 80.2712,24.7322 95.4576,8.678 97.6271,13.8847 88.9492,36.4475" stroke="#fe1200" stroke-width="2" /><polyline fill="none" points="51.2,49.4644 49.0305,59.878 49.4644,62.9153 52.9356,64.6508 60.7458,63.3492 63.7831,61.1797 65.0847,58.1424 65.5186,55.1051 62.9153,51.6339 56.4068,49.0305 50.7661,48.1627 50.7661,51.6339" stroke="#7f0000" stroke-width="2" /></svg>