<?xml version="1.0" encoding="utf-8" ?>
<svg baseProfile="tiny" height="128" version="1.2" viewBox="0,0,128,128" width="128" xmlns="http://www.w3.org/2000/svg" xmlns:ev="http://www.w3.org/2001/xml-events" xmlns:xlink="http://www.w3.org/1999/xlink"><defs /><polyline fill="none" points="13.8847,19.0915 10.8475,29.0712 10.8475,47.7288 13.0169,57.7085 18.6576,69.4237 26.0339,77.2339 36.8814,85.0441 48.1627,89.3831 63.3492,91.1186 75.0644,89.3831 84.6102,85.0441 97.6271,74.1966 108.4746,60.3119 114.1153,47.2949 118.8881,26.0339 119.322,17.3559 116.2847,8.678 99.7966,30.3729 72.0271,30.8068 35.1458,38.1831 27.7695,37.3153 23.4305,33.8441 8.678,13.0169" stroke="#00007f" stroke-width="2" /><polyline fill="none" points="34.278,55.1051 34.7119,55.1051" stroke="#00d4ff" stroke-width="2" /><polyline fill="none" points="87.6475,45.9932 87.6475,45.9932" stroke="#ffe500" stroke-width="2" /><polyline fill="none" points="51.6339,62.0475 52.9356,65.0847" stroke="#7f0000" stroke-width="2" /></svg>