<?xml version="1.0" encoding="utf-8" ?>
<svg baseProfile="tiny" height="128" version="1.2" viewBox="0,0,128,128" width="128" xmlns="http://www.w3.org/2000/svg" xmlns:ev="http://www.w3.org/2001/xml-events" xmlns:xlink="http://www.w3.org/1999/xlink"><defs /><polyline fill="none" points="50.7661,33.8441 50.7661,24.2983 54.2373,17.3559 62.0475,13.4508 73.3288,13.0169 79.8373,15.1864 82.8746,19.5254 83.3085,37.7492 84.1763,31.6746 88.9492,24.7322 104.1356,8.678 105.0034,11.7153 105.0034,19.9593 98.9288,49.8983" stroke="#00007f" stroke-width="2" /><polyline fill="none" points="48.5966,31.2407 32.9763,22.1288 22.9966,19.0915 26.0339,26.9017 40.3525,51.6339" stroke="#0000d1" stroke-width="2" /><polyline fill="none" points="60.7458,34.278 59.4441,40.3525 59.4441,38.1831 62.4814,37.3153 59.878,37.3153" stroke="#0010ff" stroke-width="2" /><polyline fill="none" points="79.8373,42.522 74.6305,40.3525 76.3661,40.7864 76.3661,42.522" stroke="#0058ff" stroke-width="2" /><polyline fill="none" points="65.9525,50.7661 67.6881,59.878" stroke="#00a4ff" stroke-width="2" /><polyline fill="none" points="61.1797,51.2 75.4983,51.2" stroke="#05ecf1" stroke-width="2" /><polyline fill="none" points="70.7254,52.5017 76.3661,59.878 82.4407,63.7831 92.4203,64.6508" stroke="#3fffb7" stroke-width="2" /><polyline fill="none" points="64.2169,58.1424 66.3864,61.1797 65.9525,65.5186 54.2373,65.5186 50.7661,65.0847 50.7661,64.2169" stroke="#7cff79" stroke-width="2" /><polyline fill="none" points="87.2136,56.8407 92.4203,54.6712 109.7763,51.6339" stroke="#b7ff3f" stroke-width="2" /><polyline fill="none" points="88.0814,58.5763 98.061,67.2542 119.322,80.7051" stroke="#f1fc05" stroke-width="2" /><polyline fill="none" points="94.5898,59.4441 107.1729,59.0102 116.7186,60.3119" stroke="#ffb900" stroke-width="2" /><polyline fill="none" points="46.861,56.8407 42.9559,57.7085 8.678,57.2746" stroke="#ff7300" stroke-width="2" /><polyline fill="none" points="46.861,59.0102 46.861,79.4034" stroke="#ff3000" stroke-width="2" /><polyline fill="none" points="41.6542,59.4441 41.2203,64.2169 35.1458,70.7254 30.3729,74.6305 33.4102,71.5932" stroke="#d10000" stroke-width="2" /><polyline fill="none" points="37.7492,49.4644 49.8983,76.3661 55.9729,85.478 65.0847,92.4203 76.3661,92.8542 86.7797,86.7797 90.6847,80.7051 89.8169,67.2542" stroke="#7f0000" stroke-width="2" /></svg>