<?xml version="1.0" encoding="utf-8" ?>
<svg baseProfile="tiny" height="128" version="1.2" viewBox="0,0,128,128" width="128" xmlns="http://www.w3.org/2000/svg" xmlns:ev="http://www.w3.org/2001/xml-events" xmlns:xlink="http://www.w3.org/1999/xlink"><defs /><polyline fill="none" points="82.8746,27.3356 67.6881,23.4305 57.7085,22.9966 47.7288,25.6 42.0881,29.0712 32.9763,37.3153 29.0712,42.9559 24.7322,55.1051 22.9966,67.6881 23.4305,72.8949 27.3356,84.1763 36.4475,96.3254 44.6915,103.2678 54.2373,108.4746 62.9153,110.6441 76.8,110.2102 82.4407,108.4746 100.2305,97.1932 108.9085,85.0441 111.5119,75.9322 109.3424,58.1424 104.5695,47.2949 98.4949,38.6169 86.3458,29.0712 76.8,27.3356 70.2915,28.6373 59.4441,34.7119" stroke="#00007f" stroke-width="2" /><polyline fill="none" points="59.4441,56.8407 49.4644,58.1424 43.3898,62.9153 39.4847,70.2915 39.9186,78.1017 42.9559,82.4407 45.9932,84.6102 55.1051,86.7797 62.4814,85.478 65.0847,83.3085 67.6881,79.8373 69.8576,73.3288 69.4237,65.9525 65.5186,59.878 61.1797,56.8407 55.9729,56.8407" stroke="#0000ac" stroke-width="2" /><polyline fill="none" points="75.4983,58.5763 71.1593,59.878 67.2542,64.2169 66.3864,71.1593 67.2542,75.4983 73.3288,80.7051 81.139,82.4407 88.0814,81.5729 94.5898,73.3288 95.0237,62.9153 91.1186,58.1424 88.0814,56.4068 81.5729,55.9729 78.1017,57.2746" stroke="#0000de" stroke-width="2" /><polyline fill="none" points="60.3119,72.0271 60.7458,70.2915" stroke="#0000ff" stroke-width="2" /><polyline fill="none" points="55.1051,65.9525 52.0678,65.9525" stroke="#0028ff" stroke-width="2" /><polyline fill="none" points="49.4644,78.1017 49.4644,78.1017" stroke="#0054ff" stroke-width="2" /><polyline fill="none" points="75.9322,70.2915 75.4983,72.461 74.1966,71.1593" stroke="#0080ff" stroke-width="2" /><polyline fill="none" points="82.0068,64.2169 82.0068,64.2169" stroke="#00a8ff" stroke-width="2" /><polyline fill="none" points="85.478,71.1593 85.478,71.1593" stroke="#00d4ff" stroke-width="2" /><polyline fill="none" points="82.8746,65.0847 84.1763,65.9525" stroke="#15ffe1" stroke-width="2" /><polyline fill="none" points="84.1763,71.5932 84.1763,71.5932" stroke="#36ffc0" stroke-width="2" /><polyline fill="none" points="51.2,75.9322 51.2,75.9322" stroke="#59ff9d" stroke-width="2" /><polyline fill="none" points="54.2373,67.6881 32.1085,64.2169 8.678,64.6508" stroke="#7cff79" stroke-width="2" /><polyline fill="none" points="57.7085,74.6305 29.0712,76.8 22.1288,78.5356 13.8847,82.4407" stroke="#9dff59" stroke-width="2" /><polyline fill="none" points="63.7831,73.7627 41.2203,85.478 26.4678,97.6271" stroke="#c0ff36" stroke-width="2" /><polyline fill="none" points="82.4407,65.0847 106.739,59.4441 117.1525,58.5763" stroke="#e4ff12" stroke-width="2" /><polyline fill="none" points="71.5932,75.0644 96.3254,72.0271 119.322,71.1593" stroke="#ffe500" stroke-width="2" /><polyline fill="none" points="73.7627,73.3288 91.5525,81.5729 118.0203,90.6847" stroke="#ffbd00" stroke-width="2" /><polyline fill="none" points="54.6712,42.0881 52.0678,41.2203 49.0305,43.8237 49.0305,46.861 52.9356,48.1627 54.2373,45.1254 52.0678,43.3898 48.5966,43.3898 48.1627,46.4271 54.6712,46.4271 55.9729,42.9559 54.2373,41.2203 50.7661,42.0881 50.7661,46.861 54.2373,47.7288 57.7085,46.861 58.5763,41.2203 55.539,39.0508 51.2,39.0508 49.0305,40.3525 47.2949,46.4271 50.3322,48.5966 54.6712,48.5966 56.4068,46.861 57.2746,42.0881 55.9729,40.7864 51.6339,40.7864 50.7661,44.6915 51.6339,45.9932 54.2373,45.5593 54.6712,43.3898 52.0678,42.522 51.6339,45.1254" stroke="#ff9400" stroke-width="2" /><polyline fill="none" points="79.8373,42.0881 73.7627,42.0881 72.461,43.3898 72.461,45.9932 74.1966,46.861 79.8373,46.861 81.139,44.2576 79.8373,40.7864 75.9322,40.3525 73.3288,42.0881 73.7627,46.861 77.2339,46.861 79.4034,44.6915 79.4034,41.2203 76.3661,41.2203 75.4983,43.3898 75.0644,48.1627 77.2339,47.7288 78.9695,42.522 78.9695,41.2203 77.2339,42.522" stroke="#ff6f00" stroke-width="2" /><polyline fill="none" points="46.861,32.1085 45.1254,28.2034 36.4475,16.4881 33.4102,8.678 33.8441,41.2203" stroke="#ff4600" stroke-width="2" /><polyline fill="none" points="93.722,30.3729 108.0407,15.6203 100.6644,45.1254" stroke="#ff1d00" stroke-width="2" /><polyline fill="none" points="60.7458,90.2508 64.2169,95.0237 68.5559,96.3254 73.3288,95.4576 76.3661,91.5525" stroke="#de0000" stroke-width="2" /><polyline fill="none" points="59.0102,84.6102 62.9153,93.2881 67.6881,96.3254 71.5932,96.7593 75.4983,95.0237 81.139,82.8746" stroke="#ac0000" stroke-width="2" /><polyline fill="none" points="65.5186,84.1763 70.2915,88.5153 73.3288,88.5153 75.0644,87.2136 77.6678,82.0068" stroke="#7f0000" stroke-width="2" /></svg>