<?xml version="1.0" encoding="utf-8" ?>
<svg baseProfile="tiny" height="128" version="1.2" viewBox="0,0,128,128" width="128" xmlns="http://www.w3.org/2000/svg" xmlns:ev="http://www.w3.org/2001/xml-events" xmlns:xlink="http://www.w3.org/1999/xlink"><defs /><polyline fill="none" points="98.061,23.4305 98.4949,19.9593 95.4576,9.5458 92.4203,10.4136 85.478,18.6576" stroke="#00007f" stroke-width="2" /><polyline fill="none" points="81.139,19.0915 75.4983,16.0542 63.3492,16.0542 54.2373,19.5254" stroke="#0000fe" stroke-width="2" /><polyline fill="none" points="52.5017,19.0915 49.0305,11.2814 42.9559,8.678 37.7492,27.7695" stroke="#0060ff" stroke-width="2" /><polyline fill="none" points="81.139,36.4475 98.061,36.0136 115.4169,39.4847" stroke="#00d4ff" stroke-width="2" /><polyline fill="none" points="89.8169,46.4271 90.6847,44.6915 105.8712,46.4271 118.8881,51.6339 106.739,50.3322" stroke="#4cffaa" stroke-width="2" /><polyline fill="none" points="82.8746,51.6339 84.6102,49.8983 93.722,51.2 111.5119,59.0102 119.322,65.0847" stroke="#aaff4c" stroke-width="2" /><polyline fill="none" points="49.8983,38.6169 40.3525,36.0136 29.939,35.1458 19.5254,35.5797 14.3186,37.7492" stroke="#ffe500" stroke-width="2" /><polyline fill="none" points="45.9932,44.2576 23.4305,43.8237 20.8271,46.861" stroke="#ff7a00" stroke-width="2" /><polyline fill="none" points="48.5966,52.9356 28.6373,52.0678 13.8847,55.9729 8.678,59.4441" stroke="#fe1200" stroke-width="2" /><polyline fill="none" points="79.8373,29.0712 77.6678,32.1085 81.139,32.9763 82.8746,31.6746 81.139,30.3729 78.5356,31.2407 77.6678,32.9763 78.9695,34.278 81.5729,34.278 82.8746,32.5424 82.0068,31.2407" stroke="#7f0000" stroke-width="2" /></svg>