<?xml version="1.0" encoding="utf-8" ?>
<svg baseProfile="tiny" height="128" version="1.2" viewBox="0,0,128,128" width="128" xmlns="http://www.w3.org/2000/svg" xmlns:ev="http://www.w3.org/2001/xml-events" xmlns:xlink="http://www.w3.org/1999/xlink"><defs /><polyline fill="none" points="65.0847,29.5051 56.4068,29.5051 36.8814,35.5797 19.9593,47.7288 15.6203,53.8034 10.8475,68.9898 8.678,82.4407 8.678,94.1559 12.5831,101.9661 16.922,106.739 33.4102,116.2847 52.0678,119.322 67.2542,119.322 72.0271,117.5864 87.6475,105.4373 95.8915,93.2881 98.9288,82.4407 99.3627,62.4814 95.8915,51.6339 87.2136,40.7864 76.3661,34.7119 60.3119,30.8068" stroke="#00007f" stroke-width="2" /><polyline fill="none" points="17.7898,44.2576 16.4881,17.3559 32.1085,37.3153" stroke="#0028ff" stroke-width="2" /><polyline fill="none" points="75.4983,36.8814 78.1017,20.3932 82.8746,8.678 91.1186,39.4847" stroke="#00d4ff" stroke-width="2" /><polyline fill="none" points="51.2,78.1017 52.5017,95.8915 49.0305,101.5322 45.1254,102.8339" stroke="#7cff79" stroke-width="2" /><polyline fill="none" points="49.4644,81.5729 55.1051,100.6644 63.7831,103.7017" stroke="#ffe500" stroke-width="2" /><polyline fill="none" points="45.5593,101.0983 45.5593,101.0983" stroke="#ff4600" stroke-width="2" /><polyline fill="none" points="45.5593,101.0983 47.2949,111.5119 58.5763,111.9458 59.0102,97.6271" stroke="#7f0000" stroke-width="2" /></svg>