<?xml version="1.0" encoding="utf-8" ?>
<svg baseProfile="tiny" height="128" version="1.2" viewBox="0,0,128,128" width="128" xmlns="http://www.w3.org/2000/svg" xmlns:ev="http://www.w3.org/2001/xml-events" xmlns:xlink="http://www.w3.org/1999/xlink"><defs /><polyline fill="none" points="42.0881,43.3898 41.2203,33.8441 34.7119,18.6576" stroke="#00007f" stroke-width="2" /><polyline fill="none" points="31.6746,14.7525 27.7695,13.8847" stroke="#0000de" stroke-width="2" /><polyline fill="none" points="22.5627,13.8847 17.7898,15.1864 14.7525,22.9966 13.4508,47.2949 14.7525,21.6949 17.7898,15.1864 22.5627,13.8847 29.0712,15.1864 35.5797,29.0712 44.2576,43.3898" stroke="#0028ff" stroke-width="2" /><polyline fill="none" points="44.2576,43.8237 65.9525,40.3525 70.2915,34.278 78.5356,15.6203 85.0441,8.678 93.2881,14.7525 96.7593,27.3356 97.6271,45.1254 102.4,65.5186 102.8339,75.4983 99.3627,82.4407 93.2881,88.5153 85.0441,92.4203 77.6678,93.2881 67.6881,93.2881 57.7085,90.6847 32.5424,81.139 27.3356,67.6881 16.4881,53.8034 13.4508,46.861" stroke="#0080ff" stroke-width="2" /><polyline fill="none" points="41.2203,64.2169 41.6542,60.3119 43.8237,58.1424 47.7288,59.0102 49.4644,62.4814" stroke="#00d4ff" stroke-width="2" /><polyline fill="none" points="64.2169,63.7831 65.5186,59.0102 68.9898,56.8407 72.461,59.878 72.461,61.6136" stroke="#36ffc0" stroke-width="2" /><polyline fill="none" points="45.9932,73.7627 8.678,80.2712" stroke="#7cff79" stroke-width="2" /><polyline fill="none" points="45.9932,77.2339 44.2576,80.2712 39.9186,83.7424 26.4678,87.6475" stroke="#c0ff36" stroke-width="2" /><polyline fill="none" points="45.9932,82.4407 42.9559,87.6475 26.9017,100.6644" stroke="#ffe500" stroke-width="2" /><polyline fill="none" points="78.9695,77.2339 95.0237,63.7831 103.7017,58.5763 115.4169,54.2373" stroke="#ff9400" stroke-width="2" /><polyline fill="none" points="92.8542,79.4034 97.6271,75.0644 102.4,72.8949 114.1153,71.1593" stroke="#ff4600" stroke-width="2" /><polyline fill="none" points="86.7797,84.6102 103.7017,85.9119 119.322,89.3831" stroke="#de0000" stroke-width="2" /><polyline fill="none" points="67.2542,70.7254 64.6508,70.2915 59.878,72.461 60.3119,74.1966 65.9525,75.0644 69.4237,73.7627 69.8576,71.5932 56.8407,71.1593" stroke="#7f0000" stroke-width="2" /></svg>