<?xml version="1.0" encoding="utf-8" ?>
<svg baseProfile="tiny" height="128" version="1.2" viewBox="0,0,128,128" width="128" xmlns="http://www.w3.org/2000/svg" xmlns:ev="http://www.w3.org/2001/xml-events" xmlns:xlink="http://www.w3.org/1999/xlink"><defs /><polyline fill="none" points="33.5238,41.7959 28.7347,64.8707 33.0884,64.8707 35.7007,62.2585 41.3605,40.0544 38.3129,57.034 38.3129,64.4354 41.3605,68.3537 44.4082,64.8707 52.2449,37.4422" stroke="#00007f" stroke-width="2" /><polyline fill="none" points="52.2449,37.4422 71.8367,37.0068 66.1769,42.6667 63.5646,47.4558 62.2585,57.034 62.2585,61.3878 63.5646,62.6939 69.6599,56.5986 70.5306,51.8095 74.8844,45.2789 76.6259,37.4422 72.7075,42.6667 70.0952,57.4694 70.5306,60.9524 75.7551,61.8231 80.5442,55.2925 87.5102,34.8299 93.6054,32.6531 118.8571,33.5238 119.2925,25.6871 114.5034,24.381 105.7959,26.5578 91.8639,26.9932 82.2857,20.0272 61.3878,16.5442 42.6667,16.5442 40.4898,17.8503 38.7483,20.4626 35.7007,21.3333 30.0408,15.6735 26.9932,15.2381 18.7211,20.0272 18.2857,28.2993 23.0748,38.7483 26.5578,40.9252 33.0884,41.7959" stroke="#0000e8" stroke-width="2" /><polyline fill="none" points="21.3333,23.0748 21.3333,23.0748" stroke="#0038ff" stroke-width="2" /><polyline fill="none" points="21.3333,23.0748 21.7687,23.5102" stroke="#0094ff" stroke-width="2" /><polyline fill="none" points="26.5578,23.0748 26.5578,23.0748" stroke="#0cf4ea" stroke-width="2" /><polyline fill="none" points="26.5578,23.0748 26.5578,23.0748" stroke="#56ffa0" stroke-width="2" /><polyline fill="none" points="26.1224,21.3333 25.6871,21.7687" stroke="#a0ff56" stroke-width="2" /><polyline fill="none" points="20.4626,16.9796 23.9456,8.7075 23.9456,14.8027" stroke="#eaff0c" stroke-width="2" /><polyline fill="none" points="27.8639,14.3673 32.6531,10.449 37.4422,8.7075 33.0884,18.7211" stroke="#ffaa00" stroke-width="2" /><polyline fill="none" points="23.5102,13.932 23.5102,16.5442" stroke="#ff5500" stroke-width="2" /><polyline fill="none" points="20.4626,15.6735 19.5918,20.4626" stroke="#e80000" stroke-width="2" /><polyline fill="none" points="24.8163,31.3469 10.449,30.4762 9.1429,30.9116 8.7075,33.0884 12.1905,35.2653 25.2517,35.2653" stroke="#7f0000" stroke-width="2" /></svg>