<?xml version="1.0" encoding="utf-8" ?>
<svg baseProfile="tiny" height="128" version="1.2" viewBox="0,0,128,128" width="128" xmlns="http://www.w3.org/2000/svg" xmlns:ev="http://www.w3.org/2001/xml-events" xmlns:xlink="http://www.w3.org/1999/xlink"><defs /><polyline fill="none" points="32.9763,45.1254 21.6949,58.1424 14.3186,72.461 9.9797,89.8169 9.9797,99.3627 10.8475,103.2678 18.6576,112.8136 28.6373,116.7186 44.6915,119.322 76.8,118.8881 93.2881,112.3797 102.4,107.6068 108.9085,101.5322 112.8136,88.9492 112.3797,82.4407 90.6847,52.0678 92.4203,48.5966 106.3051,36.8814 119.322,15.6203 89.3831,31.6746 75.9322,44.2576 65.0847,37.7492 61.1797,36.8814 49.4644,37.3153 42.0881,40.7864 38.6169,38.6169 23.4305,21.261 8.678,8.678 8.678,12.5831 15.6203,27.3356 26.0339,45.1254" stroke="#00007f" stroke-width="2" /><polyline fill="none" points="53.8034,52.5017 49.8983,53.3695 49.4644,59.878 52.5017,61.6136 55.1051,57.7085 52.0678,50.7661 48.5966,49.4644" stroke="#0000fe" stroke-width="2" /><polyline fill="none" points="72.8949,55.1051 69.8576,55.1051 69.8576,57.7085 73.3288,59.878 75.4983,56.8407 72.8949,52.9356" stroke="#0060ff" stroke-width="2" /><polyline fill="none" points="62.4814,76.3661 59.4441,78.5356 58.5763,81.5729 61.6136,84.1763 65.0847,84.1763 66.3864,78.5356" stroke="#00d4ff" stroke-width="2" /><polyline fill="none" points="66.3864,78.5356 73.7627,72.461 84.1763,66.8203" stroke="#4cffaa" stroke-width="2" /><polyline fill="none" points="69.8576,82.4407 95.4576,78.5356" stroke="#aaff4c" stroke-width="2" /><polyline fill="none" points="66.3864,84.1763 70.7254,91.1186" stroke="#ffe500" stroke-width="2" /><polyline fill="none" points="52.9356,76.8 27.3356,71.1593" stroke="#ff7a00" stroke-width="2" /><polyline fill="none" points="54.2373,81.139 37.3153,84.1763" stroke="#fe1200" stroke-width="2" /><polyline fill="none" points="64.2169,82.4407 48.5966,106.3051" stroke="#7f0000" stroke-width="2" /></svg>