<?xml version="1.0" encoding="utf-8" ?>
<svg baseProfile="tiny" height="128" version="1.2" viewBox="0,0,128,128" width="128" xmlns="http://www.w3.org/2000/svg" xmlns:ev="http://www.w3.org/2001/xml-events" xmlns:xlink="http://www.w3.org/1999/xlink"><defs /><polyline fill="none" points="63.3492,28.2034 57.2746,30.3729 47.2949,38.6169 41.2203,49.8983 40.7864,56.4068 43.3898,60.7458 49.4644,64.2169 66.8203,65.9525 78.1017,64.2169 87.6475,59.878 93.722,55.539 97.1932,47.7288 94.5898,40.7864 79.4034,31.2407 67.2542,29.0712 55.1051,30.3729" stroke="#00007f" stroke-width="2" /><polyline fill="none" points="54.6712,66.8203 53.8034,69.8576 52.0678,71.1593 43.8237,71.1593" stroke="#0000ba" stroke-width="2" /><polyline fill="none" points="94.1559,58.5763 92.8542,65.0847 85.0441,65.5186" stroke="#0000f5" stroke-width="2" /><polyline fill="none" points="96.7593,45.5593 119.322,42.0881" stroke="#0020ff" stroke-width="2" /><polyline fill="none" points="34.278,22.1288 24.2983,22.9966 20.3932,27.7695 19.0915,43.8237 20.3932,47.2949 26.0339,52.0678 31.2407,52.9356 35.5797,50.7661 39.4847,45.5593 42.0881,38.1831 41.6542,25.1661 37.3153,21.6949 32.1085,20.8271" stroke="#0054ff" stroke-width="2" /><polyline fill="none" points="20.3932,24.7322 16.0542,18.6576 25.1661,21.261" stroke="#008cff" stroke-width="2" /><polyline fill="none" points="29.5051,21.6949 37.3153,8.678 41.2203,21.6949" stroke="#00c0ff" stroke-width="2" /><polyline fill="none" points="42.0881,36.0136 43.3898,41.2203" stroke="#0ff8e7" stroke-width="2" /><polyline fill="none" points="39.0508,45.1254 40.3525,49.0305" stroke="#39ffbd" stroke-width="2" /><polyline fill="none" points="30.3729,38.1831 29.939,44.6915 28.6373,47.2949 25.1661,48.1627 24.7322,44.6915" stroke="#66ff90" stroke-width="2" /><polyline fill="none" points="29.939,39.4847 35.1458,44.6915 36.4475,44.6915 36.4475,40.7864" stroke="#90ff66" stroke-width="2" /><polyline fill="none" points="24.7322,27.3356 24.2983,27.3356" stroke="#bdff39" stroke-width="2" /><polyline fill="none" points="34.7119,28.2034 34.7119,28.2034" stroke="#e7ff0f" stroke-width="2" /><polyline fill="none" points="34.278,25.6 34.7119,26.9017" stroke="#ffd300" stroke-width="2" /><polyline fill="none" points="37.7492,32.1085 48.5966,22.5627" stroke="#ffa300" stroke-width="2" /><polyline fill="none" points="40.7864,32.1085 51.2,28.6373" stroke="#ff6f00" stroke-width="2" /><polyline fill="none" points="24.7322,32.1085 9.1119,30.8068" stroke="#ff3f00" stroke-width="2" /><polyline fill="none" points="22.5627,36.4475 9.5458,42.0881" stroke="#f50b00" stroke-width="2" /><polyline fill="none" points="21.6949,42.522 8.678,49.8983" stroke="#ba0000" stroke-width="2" /><polyline fill="none" points="38.6169,36.8814 46.861,39.0508" stroke="#7f0000" stroke-width="2" /></svg>