<?xml version="1.0" encoding="utf-8" ?>
<svg baseProfile="tiny" height="128" version="1.2" viewBox="0,0,128,128" width="128" xmlns="http://www.w3.org/2000/svg" xmlns:ev="http://www.w3.org/2001/xml-events" xmlns:xlink="http://www.w3.org/1999/xlink"><defs /><polyline fill="none" points="29.939,38.1831 39.0508,14.3186 41.2203,11.7153 47.7288,31.6746" stroke="#00007f" stroke-width="2" /><polyline fill="none" points="59.878,35.1458 63.3492,29.939 78.9695,30.8068 80.2712,35.1458" stroke="#0000f1" stroke-width="2" /><polyline fill="none" points="61.6136,32.1085 62.9153,28.2034 75.4983,8.678 83.7424,35.5797" stroke="#004cff" stroke-width="2" /><polyline fill="none" points="75.0644,31.6746 65.5186,30.3729 32.9763,31.2407 28.2034,32.1085 22.1288,36.4475 17.7898,45.9932 17.7898,50.7661 59.4441,72.461 74.1966,68.5559 80.2712,64.2169 84.6102,59.0102 87.6475,51.2 87.2136,46.4271 84.6102,42.9559 76.8,38.1831 70.7254,36.4475 64.6508,37.7492" stroke="#00b0ff" stroke-width="2" /><polyline fill="none" points="40.3525,39.9186 43.3898,49.0305 44.2576,47.2949" stroke="#29ffcd" stroke-width="2" /><polyline fill="none" points="64.6508,41.2203 65.5186,50.7661" stroke="#7cff79" stroke-width="2" /><polyline fill="none" points="37.7492,50.7661 15.6203,52.9356 10.4136,54.6712 8.678,55.539 9.9797,56.4068" stroke="#cdff29" stroke-width="2" /><polyline fill="none" points="35.1458,56.8407 19.0915,63.3492 10.8475,70.7254" stroke="#ffc400" stroke-width="2" /><polyline fill="none" points="38.1831,62.4814 19.0915,73.7627 24.7322,72.461" stroke="#ff6700" stroke-width="2" /><polyline fill="none" points="77.6678,51.2 88.9492,52.0678 114.1153,56.8407 119.322,59.4441" stroke="#f10700" stroke-width="2" /><polyline fill="none" points="77.2339,59.4441 90.2508,62.0475" stroke="#7f0000" stroke-width="2" /></svg>