<?xml version="1.0" encoding="utf-8" ?>
<svg baseProfile="tiny" height="128" version="1.2" viewBox="0,0,128,128" width="128" xmlns="http://www.w3.org/2000/svg" xmlns:ev="http://www.w3.org/2001/xml-events" xmlns:xlink="http://www.w3.org/1999/xlink"><defs /><polyline fill="none" points="22.5627,105.0034 24.7322,68.5559 28.6373,56.8407 39.9186,46.4271 48.1627,42.522 70.2915,41.2203 77.6678,44.2576 94.1559,80.7051 94.1559,105.4373 89.3831,112.8136 81.5729,117.1525 70.7254,118.8881 49.4644,119.322 45.5593,118.0203 33.4102,107.6068 24.2983,95.0237" stroke="#00007f" stroke-width="2" /><polyline fill="none" points="57.2746,81.139 60.7458,80.7051 61.6136,83.3085 59.0102,84.1763 57.2746,81.139 59.878,86.7797 59.4441,98.4949 55.9729,99.7966 52.0678,99.3627 48.5966,98.061 46.4271,95.4576 58.1424,97.6271 70.7254,96.7593 76.8,90.2508 78.1017,85.0441" stroke="#0000ff" stroke-width="2" /><polyline fill="none" points="31.6746,47.2949 32.5424,43.3898 30.3729,40.3525 15.6203,28.2034 9.5458,21.261 8.678,28.2034 16.0542,49.0305 18.2237,53.3695 22.5627,56.4068" stroke="#0080ff" stroke-width="2" /><polyline fill="none" points="72.461,42.9559 73.7627,37.3153 87.2136,8.678 88.0814,34.7119 86.3458,53.3695" stroke="#15ffe1" stroke-width="2" /><polyline fill="none" points="32.9763,67.2542 32.9763,67.2542" stroke="#7cff79" stroke-width="2" /><polyline fill="none" points="29.0712,67.2542 29.0712,67.2542" stroke="#e4ff12" stroke-width="2" /><polyline fill="none" points="76.8,60.3119 76.8,60.3119" stroke="#ff9400" stroke-width="2" /><polyline fill="none" points="68.5559,55.539 70.7254,64.2169" stroke="#ff1d00" stroke-width="2" /><polyline fill="none" points="29.939,67.2542 32.9763,65.9525 34.278,74.6305" stroke="#7f0000" stroke-width="2" /></svg>