<?xml version="1.0" encoding="utf-8" ?>
<svg baseProfile="tiny" height="128" version="1.2" viewBox="0,0,128,128" width="128" xmlns="http://www.w3.org/2000/svg" xmlns:ev="http://www.w3.org/2001/xml-events" xmlns:xlink="http://www.w3.org/1999/xlink"><defs /><polyline fill="none" points="38.3129,39.619 23.0748,54.4218 18.7211,64.8707 17.415,84.898 22.6395,93.6054 25.2517,95.7823 34.3946,99.2653 46.1497,101.0068 73.5782,102.7483 104.4898,102.7483 106.6667,102.3129 110.585,97.9592 117.1156,87.0748 117.1156,54.8571 114.068,43.5374 104.4898,32.2177 99.7007,32.2177 92.2993,36.1361 81.8503,39.1837 81.8503,24.8163 78.8027,10.0136 72.7075,25.6871 66.1769,34.8299 61.8231,30.4762 55.7279,19.5918 46.585,13.4966 43.9728,8.7075 42.2313,27.8639 38.7483,43.5374 37.0068,47.0204" stroke="#00007f" stroke-width="2" /><polyline fill="none" points="53.9864,70.966 47.4558,70.966 31.7823,74.8844 29.1701,78.3673 33.0884,83.1565 43.9728,86.2041 65.7415,86.6395 67.483,82.7211 67.483,84.898 72.7075,87.5102 98.3946,87.5102 100.1361,86.6395 100.5714,78.3673 96.6531,65.3061 86.2041,60.9524 76.6259,60.0816 74.0136,60.0816 75.3197,63.5646" stroke="#0000ff" stroke-width="2" /><polyline fill="none" points="75.7551,69.2245 77.0612,66.1769 80.1088,63.1293 90.9932,55.7279 105.3605,47.4558 110.585,46.585" stroke="#0080ff" stroke-width="2" /><polyline fill="none" points="96.6531,67.9184 119.2925,64.8707" stroke="#15ffe1" stroke-width="2" /><polyline fill="none" points="84.0272,80.1088 96.2177,82.2857 109.7143,83.1565 113.6327,85.3333" stroke="#7cff79" stroke-width="2" /><polyline fill="none" points="40.9252,77.0612 39.619,74.8844 37.8776,74.449 9.1429,74.0136" stroke="#e4ff12" stroke-width="2" /><polyline fill="none" points="37.8776,83.1565 18.7211,86.2041 9.5782,90.5578 8.7075,93.6054" stroke="#ff9400" stroke-width="2" /><polyline fill="none" points="52.6803,81.8503 40.0544,96.6531 28.7347,104.9252" stroke="#ff1d00" stroke-width="2" /><polyline fill="none" points="40.9252,64.8707 41.7959,46.585 42.6667,45.2789 46.1497,44.8435 49.1973,49.1973 51.3741,69.6599" stroke="#7f0000" stroke-width="2" /></svg>