<?xml version="1.0" encoding="utf-8" ?>
<svg baseProfile="tiny" height="128" version="1.2" viewBox="0,0,128,128" width="128" xmlns="http://www.w3.org/2000/svg" xmlns:ev="http://www.w3.org/2001/xml-events" xmlns:xlink="http://www.w3.org/1999/xlink"><defs /><polyline fill="none" points="64.6508,21.6949 58.5763,26.4678 55.539,33.8441 57.2746,45.9932 59.0102,49.8983 62.9153,53.3695 64.2169,53.3695" stroke="#00007f" stroke-width="2" /><polyline fill="none" points="64.6508,21.6949 64.2169,8.678 70.7254,20.8271 75.4983,19.5254 86.3458,19.9593 94.1559,11.7153 91.1186,23.4305 93.2881,36.0136 92.4203,45.9932 89.8169,48.5966 85.0441,50.7661" stroke="#0010ff" stroke-width="2" /><polyline fill="none" points="87.6475,34.278 119.322,29.5051" stroke="#00a4ff" stroke-width="2" /><polyline fill="none" points="89.8169,39.4847 110.6441,42.0881" stroke="#3fffb7" stroke-width="2" /><polyline fill="none" points="86.7797,47.7288 109.3424,55.539" stroke="#b7ff3f" stroke-width="2" /><polyline fill="none" points="62.4814,32.9763 42.9559,32.1085" stroke="#ffb900" stroke-width="2" /><polyline fill="none" points="61.6136,39.4847 41.2203,39.9186" stroke="#ff3000" stroke-width="2" /><polyline fill="none" points="59.0102,45.1254 29.5051,45.9932 8.678,52.9356" stroke="#7f0000" stroke-width="2" /></svg>