<?xml version="1.0" encoding="utf-8" ?>
<svg baseProfile="tiny" height="128" version="1.2" viewBox="0,0,128,128" width="128" xmlns="http://www.w3.org/2000/svg" xmlns:ev="http://www.w3.org/2001/xml-events" xmlns:xlink="http://www.w3.org/1999/xlink"><defs /><polyline fill="none" points="44.2576,74.6305 39.0508,66.3864 32.1085,61.6136 28.6373,57.2746 21.6949,45.5593 16.4881,33.8441 15.6203,26.4678 17.7898,23.4305 25.6,19.9593 42.0881,17.3559 74.1966,16.922 91.1186,23.4305 94.5898,26.0339 97.6271,31.2407 98.9288,36.8814 98.9288,49.0305 93.722,58.5763 84.1763,66.3864 67.6881,72.461 42.0881,72.461 40.7864,65.9525" stroke="#00007f" stroke-width="2" /><polyline fill="none" points="32.1085,18.2237 33.4102,13.0169 41.6542,8.678 45.1254,8.678 46.4271,13.4508" stroke="#0000fe" stroke-width="2" /><polyline fill="none" points="69.4237,18.6576 72.8949,13.4508 77.2339,11.2814 78.9695,11.7153 80.2712,14.7525 76.3661,19.0915" stroke="#0060ff" stroke-width="2" /><polyline fill="none" points="72.8949,45.1254 78.1017,48.1627 97.1932,54.2373 110.6441,62.0475 119.322,65.0847 116.7186,65.0847" stroke="#00d4ff" stroke-width="2" /><polyline fill="none" points="79.8373,62.0475 98.061,66.3864 104.1356,69.4237 94.1559,69.8576 85.9119,67.6881" stroke="#4cffaa" stroke-width="2" /><polyline fill="none" points="69.4237,64.2169 78.1017,72.461 85.478,82.4407 83.3085,82.0068 74.6305,75.4983" stroke="#aaff4c" stroke-width="2" /><polyline fill="none" points="40.3525,48.1627 25.1661,48.1627 16.0542,49.8983" stroke="#ffe500" stroke-width="2" /><polyline fill="none" points="41.6542,57.2746 34.278,58.5763 8.678,59.0102" stroke="#ff7a00" stroke-width="2" /><polyline fill="none" points="40.3525,61.6136 37.7492,66.8203 26.4678,72.461 22.9966,73.3288" stroke="#fe1200" stroke-width="2" /><polyline fill="none" points="40.7864,34.7119 40.7864,34.7119" stroke="#7f0000" stroke-width="2" /></svg>