<?xml version="1.0" encoding="utf-8" ?>
<svg baseProfile="tiny" height="128" version="1.2" viewBox="0,0,128,128" width="128" xmlns="http://www.w3.org/2000/svg" xmlns:ev="http://www.w3.org/2001/xml-events" xmlns:xlink="http://www.w3.org/1999/xlink"><defs /><polyline fill="none" points="37.0068,40.0544 39.1837,20.0272 38.7483,12.1905 36.5714,10.449 34.8299,14.3673 35.7007,31.7823 33.9592,37.8776 22.6395,33.9592 20.4626,35.2653 19.1565,39.1837 15.6735,8.7075 12.1905,19.5918 8.7075,37.8776 9.1429,46.1497 11.3197,50.9388 14.3673,53.1156 18.2857,53.1156 25.6871,50.068 35.7007,37.8776" stroke="#00007f" stroke-width="2" /><polyline fill="none" points="17.8503,47.8912 17.8503,45.7143 20.898,46.1497 17.415,48.3265" stroke="#0000d1" stroke-width="2" /><polyline fill="none" points="16.9796,49.6327 18.7211,48.7619 19.5918,45.7143 20.4626,49.6327 22.2041,47.8912" stroke="#0010ff" stroke-width="2" /><polyline fill="none" points="13.932,41.7959 14.3673,43.9728 16.5442,44.8435 16.5442,41.7959 13.4966,41.3605 13.0612,42.6667" stroke="#0058ff" stroke-width="2" /><polyline fill="none" points="13.932,42.6667 14.8027,43.9728 15.2381,41.3605 15.2381,43.9728" stroke="#00a4ff" stroke-width="2" /><polyline fill="none" points="16.5442,54.8571 17.415,66.6122" stroke="#05ecf1" stroke-width="2" /><polyline fill="none" points="21.3333,53.9864 21.7687,62.6939 23.0748,65.3061 26.9932,66.1769 44.4082,64.4354 46.1497,67.483 46.1497,72.7075 47.4558,53.551 52.6803,45.2789 59.6463,37.4422 60.517,33.0884 60.0816,34.8299 62.2585,41.3605 62.6939,53.551 61.8231,68.3537 59.2109,80.9796 56.1633,84.4626 53.551,85.3333 31.7823,80.9796 16.1088,72.2721 16.5442,65.3061" stroke="#3fffb7" stroke-width="2" /><polyline fill="none" points="18.7211,74.449 19.1565,85.7687 20.4626,89.2517 24.381,86.6395 26.9932,77.932" stroke="#7cff79" stroke-width="2" /><polyline fill="none" points="16.1088,71.4014 16.1088,85.3333 17.8503,87.0748 20.4626,86.6395" stroke="#b7ff3f" stroke-width="2" /><polyline fill="none" points="43.9728,85.3333 45.2789,90.5578 48.3265,90.9932 52.2449,87.9456 53.1156,83.5918" stroke="#f1fc05" stroke-width="2" /><polyline fill="none" points="41.7959,82.2857 41.3605,87.9456 43.5374,88.381 44.8435,86.2041" stroke="#ffb900" stroke-width="2" /><polyline fill="none" points="71.4014,10.0136 66.6122,10.449 65.3061,12.1905 61.3878,21.7687 60.517,31.3469 60.9524,35.7007 63.1293,37.8776 72.7075,33.0884" stroke="#ff7300" stroke-width="2" /><polyline fill="none" points="100.1361,20.4626 97.9592,15.2381 93.6054,13.4966 84.0272,14.3673 74.0136,18.7211 70.0952,25.6871 68.7891,34.8299 70.0952,43.5374 72.7075,47.4558 76.6259,45.2789 88.8163,26.9932 86.2041,31.7823 85.7687,39.1837 90.1224,44.4082 94.4762,43.102 100.1361,37.0068 104.9252,26.1224" stroke="#ff3000" stroke-width="2" /><polyline fill="none" points="106.2313,24.381 104.9252,35.2653 105.3605,47.8912 107.9728,48.7619 115.8095,44.4082 119.2925,40.0544 119.2925,36.1361" stroke="#d10000" stroke-width="2" /><polyline fill="none" points="95.3469,28.7347 99.2653,30.4762 110.1497,29.6054 110.585,30.9116" stroke="#7f0000" stroke-width="2" /></svg>