<?xml version="1.0" encoding="utf-8" ?>
<svg baseProfile="tiny" height="128" version="1.2" viewBox="0,0,128,128" width="128" xmlns="http://www.w3.org/2000/svg" xmlns:ev="http://www.w3.org/2001/xml-events" xmlns:xlink="http://www.w3.org/1999/xlink"><defs /><polyline fill="none" points="69.6599,49.6327 67.0476,47.0204 58.3401,44.8435 37.0068,43.9728 30.4762,46.1497 21.7687,53.1156 13.0612,64.4354 9.1429,75.3197 8.7075,91.4286 13.0612,101.0068 20.0272,108.4082 25.6871,112.3265 44.8435,119.2925 60.9524,119.2925 67.483,114.5034 76.1905,94.4762 79.6735,79.6735 80.5442,66.6122 79.6735,62.2585 74.0136,51.8095 67.483,43.5374 60.0816,37.0068" stroke="#00007f" stroke-width="2" /><polyline fill="none" points="16.1088,60.517 15.6735,26.9932 18.2857,18.7211 20.4626,16.5442 33.9592,39.619 39.619,46.1497 43.5374,47.8912" stroke="#00d4ff" stroke-width="2" /><polyline fill="none" points="63.1293,52.6803 63.5646,47.4558 74.449,20.4626 80.1088,12.1905 84.4626,8.7075 85.7687,11.7551 85.3333,17.8503 79.6735,43.5374 79.6735,53.551" stroke="#ffe500" stroke-width="2" /><polyline fill="none" points="45.7143,83.1565 40.9252,79.6735 38.7483,79.6735 37.0068,82.7211 37.0068,91.4286 39.1837,91.8639 41.7959,86.6395 43.5374,77.4966 40.4898,92.7347 42.2313,77.4966 38.3129,90.5578 41.3605,82.2857 42.2313,74.449 39.619,78.8027 37.8776,86.2041 38.3129,93.1701 41.7959,91.8639 45.2789,83.1565 45.7143,72.2721 43.9728,74.0136 41.7959,84.0272 42.2313,90.9932 44.4082,90.5578 45.2789,88.8163 47.0204,74.0136 44.8435,74.449 42.6667,77.932 40.0544,87.0748 40.0544,89.6871 45.2789,90.5578 48.7619,84.898 48.7619,75.3197 44.4082,80.5442 43.5374,88.8163" stroke="#7f0000" stroke-width="2" /></svg>