<?xml version="1.0" encoding="utf-8" ?>
<svg baseProfile="tiny" height="128" version="1.2" viewBox="0,0,128,128" width="128" xmlns="http://www.w3.org/2000/svg" xmlns:ev="http://www.w3.org/2001/xml-events" xmlns:xlink="http://www.w3.org/1999/xlink"><defs /><polyline fill="none" points="30.0408,57.034 25.2517,56.5986 18.7211,58.7755 10.8844,66.6122 8.7075,77.932 12.1905,90.1224 21.3333,101.0068 31.7823,107.9728 35.7007,109.2789 43.9728,108.4082 52.6803,106.2313 66.6122,98.3946 72.7075,88.8163 73.5782,78.8027 66.6122,60.9524 57.034,52.6803 43.102,49.6327 30.9116,51.8095 18.2857,61.3878" stroke="#00007f" stroke-width="2" /><polyline fill="none" points="62.6939,26.1224 57.034,27.4286 50.9388,30.9116 47.8912,37.8776 51.8095,53.1156 59.2109,60.9524 67.0476,63.5646 79.6735,62.6939 86.6395,58.3401 90.1224,50.5034 87.9456,39.619 79.2381,29.1701 73.1429,25.2517 60.0816,24.381" stroke="#0000c8" stroke-width="2" /><polyline fill="none" points="56.5986,39.1837 46.585,17.415 57.034,20.898 68.3537,28.7347" stroke="#0000ff" stroke-width="2" /><polyline fill="none" points="78.8027,29.6054 93.6054,8.7075 94.4762,16.5442 88.8163,50.068" stroke="#0040ff" stroke-width="2" /><polyline fill="none" points="70.5306,45.7143 68.7891,47.0204 75.3197,46.1497 74.8844,47.8912 73.1429,48.3265 70.966,47.4558 73.5782,46.1497 74.449,47.8912 72.2721,47.8912 76.1905,45.2789" stroke="#0080ff" stroke-width="2" /><polyline fill="none" points="76.1905,44.4082 94.0408,35.7007" stroke="#00c0ff" stroke-width="2" /><polyline fill="none" points="73.1429,49.1973 92.7347,48.7619" stroke="#15ffe1" stroke-width="2" /><polyline fill="none" points="77.4966,53.9864 94.9116,61.8231" stroke="#49ffad" stroke-width="2" /><polyline fill="none" points="71.8367,51.3741 44.4082,37.4422 37.4422,37.0068" stroke="#7cff79" stroke-width="2" /><polyline fill="none" points="69.6599,47.0204 64.4354,45.7143 44.8435,47.0204" stroke="#b0ff46" stroke-width="2" /><polyline fill="none" points="67.483,52.6803 57.034,53.551 48.7619,57.034" stroke="#e4ff12" stroke-width="2" /><polyline fill="none" points="71.8367,48.7619 74.8844,57.4694 70.966,67.9184" stroke="#ffcf00" stroke-width="2" /><polyline fill="none" points="73.1429,52.6803 77.932,64.0 81.415,67.0476 87.9456,67.9184" stroke="#ff9400" stroke-width="2" /><polyline fill="none" points="63.5646,35.7007 62.2585,35.2653" stroke="#ff5900" stroke-width="2" /><polyline fill="none" points="76.6259,36.1361 76.6259,34.8299" stroke="#ff1d00" stroke-width="2" /><polyline fill="none" points="30.9116,92.7347 30.4762,97.9592 26.5578,108.4082 26.5578,115.8095 27.8639,117.9864 33.5238,119.2925 39.619,114.068 41.3605,107.9728 40.4898,90.9932" stroke="#c30000" stroke-width="2" /><polyline fill="none" points="62.2585,87.0748 69.2245,101.4422 73.5782,107.102 77.4966,109.2789 79.6735,108.8435 83.5918,103.1837 84.0272,97.5238 80.1088,89.2517 67.9184,78.8027 64.8707,73.5782 65.3061,70.966" stroke="#7f0000" stroke-width="2" /></svg>