<?xml version="1.0" encoding="utf-8" ?>
<svg baseProfile="tiny" height="128" version="1.2" viewBox="0,0,128,128" width="128" xmlns="http://www.w3.org/2000/svg" xmlns:ev="http://www.w3.org/2001/xml-events" xmlns:xlink="http://www.w3.org/1999/xlink"><defs /><polyline fill="none" points="110.2102,19.5254 96.7593,23.8644 90.2508,29.0712 84.1763,38.1831 83.3085,47.7288 84.1763,51.2 88.5153,53.8034 98.061,55.1051 104.5695,53.8034 114.5492,48.5966 119.322,39.9186 118.8881,32.1085 113.6814,25.1661 108.0407,21.6949" stroke="#00007f" stroke-width="2" /><polyline fill="none" points="80.7051,53.8034 63.3492,50.7661 49.4644,51.2 39.0508,55.1051 29.939,61.6136 20.3932,74.1966 19.9593,80.2712 24.2983,83.7424 39.0508,84.1763 56.4068,79.8373 79.8373,70.7254 93.2881,60.3119 94.1559,55.539 88.9492,54.2373 79.8373,54.2373 71.5932,56.8407" stroke="#0000fe" stroke-width="2" /><polyline fill="none" points="88.5153,26.9017 82.8746,10.8475 99.7966,30.3729" stroke="#0060ff" stroke-width="2" /><polyline fill="none" points="110.2102,24.7322 114.5492,14.7525 118.8881,8.678 119.322,14.3186 115.4169,28.2034" stroke="#00d4ff" stroke-width="2" /><polyline fill="none" points="94.5898,39.4847 94.5898,39.4847" stroke="#4cffaa" stroke-width="2" /><polyline fill="none" points="95.0237,36.4475 95.0237,36.4475" stroke="#aaff4c" stroke-width="2" /><polyline fill="none" points="96.3254,36.4475 96.7593,37.7492" stroke="#ffe500" stroke-width="2" /><polyline fill="none" points="108.9085,32.9763 107.6068,36.8814 109.7763,35.5797" stroke="#ff7a00" stroke-width="2" /><polyline fill="none" points="94.1559,45.1254 96.7593,46.861 107.6068,45.9932" stroke="#fe1200" stroke-width="2" /><polyline fill="none" points="22.1288,82.8746 8.678,97.6271 11.7153,95.8915 12.5831,92.8542 13.8847,84.6102" stroke="#7f0000" stroke-width="2" /></svg>