<?xml version="1.0" encoding="utf-8" ?>
<svg baseProfile="tiny" height="128" version="1.2" viewBox="0,0,128,128" width="128" xmlns="http://www.w3.org/2000/svg" xmlns:ev="http://www.w3.org/2001/xml-events" xmlns:xlink="http://www.w3.org/1999/xlink"><defs /><polyline fill="none" points="21.261,39.4847 19.5254,36.4475 19.5254,31.6746 23.4305,8.678 25.1661,9.1119 34.278,25.1661 40.7864,31.2407 46.861,32.5424 79.4034,34.278 88.5153,34.278 94.1559,31.6746 102.8339,12.5831 108.4746,59.878 107.1729,79.4034 103.2678,88.5153 97.1932,96.7593 87.2136,103.7017 81.139,105.8712 60.7458,109.7763 41.6542,110.2102 36.0136,109.3424 31.6746,106.3051 25.1661,98.061 15.6203,79.8373 14.3186,56.8407 17.7898,46.4271 22.5627,39.9186 26.0339,37.3153 32.5424,35.5797" stroke="#00007f" stroke-width="2" /><polyline fill="none" points="48.1627,53.3695 43.8237,54.6712 42.9559,63.7831 44.6915,61.6136 45.1254,55.1051 44.6915,57.7085 45.9932,57.2746 45.9932,55.1051 45.1254,59.878" stroke="#0000ff" stroke-width="2" /><polyline fill="none" points="85.9119,55.539 82.8746,53.3695 79.8373,52.9356 77.2339,56.4068 76.8,61.6136 80.7051,63.3492 82.0068,61.1797 82.4407,56.4068 79.4034,54.6712 77.6678,56.4068 77.6678,60.3119 79.4034,61.6136 81.139,60.7458 82.0068,55.539 80.7051,56.4068 80.7051,60.7458" stroke="#0080ff" stroke-width="2" /><polyline fill="none" points="89.3831,76.8 107.6068,64.2169 113.6814,61.6136" stroke="#15ffe1" stroke-width="2" /><polyline fill="none" points="94.5898,78.1017 107.1729,76.8 119.322,72.461" stroke="#7cff79" stroke-width="2" /><polyline fill="none" points="91.5525,89.8169 115.4169,93.722" stroke="#e4ff12" stroke-width="2" /><polyline fill="none" points="29.939,78.5356 19.5254,77.6678 8.678,72.461" stroke="#ff9400" stroke-width="2" /><polyline fill="none" points="45.1254,82.0068 16.0542,87.2136" stroke="#ff1d00" stroke-width="2" /><polyline fill="none" points="45.9932,92.4203 18.6576,100.6644 14.3186,104.1356" stroke="#7f0000" stroke-width="2" /></svg>