<?xml version="1.0" encoding="utf-8" ?>
<svg baseProfile="tiny" height="128" version="1.2" viewBox="0,0,128,128" width="128" xmlns="http://www.w3.org/2000/svg" xmlns:ev="http://www.w3.org/2001/xml-events" xmlns:xlink="http://www.w3.org/1999/xlink"><defs /><polyline fill="none" points="9.9797,38.6169 15.1864,57.2746 24.7322,67.2542 34.7119,71.1593 54.6712,72.0271 69.8576,69.8576 78.5356,66.8203 87.2136,60.3119 93.722,43.8237 88.9492,30.3729 84.1763,25.1661 62.0475,9.9797 51.6339,8.678 52.5017,25.6 25.1661,32.5424 20.8271,24.2983 16.922,10.8475 14.3186,9.1119 8.678,19.5254 9.1119,26.9017 13.4508,33.8441" stroke="#00007f" stroke-width="2" /><polyline fill="none" points="33.4102,63.7831 54.2373,53.8034 70.2915,52.0678 74.6305,55.9729" stroke="#0028ff" stroke-width="2" /><polyline fill="none" points="73.3288,55.9729 42.9559,50.3322" stroke="#00d4ff" stroke-width="2" /><polyline fill="none" points="43.3898,49.0305 45.9932,50.3322 55.1051,45.5593 60.7458,44.6915 58.5763,52.5017" stroke="#7cff79" stroke-width="2" /><polyline fill="none" points="85.0441,52.5017 87.6475,50.3322 92.8542,49.0305 115.8508,46.861" stroke="#ffe500" stroke-width="2" /><polyline fill="none" points="91.1186,44.2576 103.7017,39.0508 119.322,34.7119" stroke="#ff4600" stroke-width="2" /><polyline fill="none" points="55.9729,38.1831 55.9729,38.1831" stroke="#7f0000" stroke-width="2" /></svg>