<?xml version="1.0" encoding="utf-8" ?>
<svg baseProfile="tiny" height="128" version="1.2" viewBox="0,0,128,128" width="128" xmlns="http://www.w3.org/2000/svg" xmlns:ev="http://www.w3.org/2001/xml-events" xmlns:xlink="http://www.w3.org/1999/xlink"><defs /><polyline fill="none" points="64.6508,18.2237 66.8203,8.678 68.9898,8.678 77.6678,23.4305 87.6475,16.922 91.5525,9.1119 93.2881,12.1492 95.0237,23.4305" stroke="#00007f" stroke-width="2" /><polyline fill="none" points="102.4,28.6373 69.4237,22.9966 52.9356,23.8644 49.8983,25.6 48.1627,29.5051 50.3322,34.7119 59.878,41.6542 72.461,45.1254 78.1017,45.9932 95.0237,46.4271 103.2678,43.3898 108.0407,38.1831 109.7763,33.4102 103.7017,24.7322 97.6271,21.6949 85.478,24.2983" stroke="#0000f1" stroke-width="2" /><polyline fill="none" points="71.5932,26.0339 71.5932,26.0339" stroke="#004cff" stroke-width="2" /><polyline fill="none" points="90.2508,31.6746 90.2508,31.6746" stroke="#00b0ff" stroke-width="2" /><polyline fill="none" points="65.9525,27.7695 73.7627,31.2407 71.1593,34.278" stroke="#29ffcd" stroke-width="2" /><polyline fill="none" points="90.6847,33.4102 90.2508,33.4102" stroke="#7cff79" stroke-width="2" /><polyline fill="none" points="76.8,46.4271 70.7254,59.0102 64.2169,65.5186 59.0102,68.5559 52.0678,69.4237 32.5424,63.3492 24.7322,62.9153 17.7898,64.6508 13.4508,68.122 8.678,77.2339 9.1119,90.2508 13.8847,97.1932 21.6949,98.4949 36.4475,104.1356 54.6712,103.2678 63.7831,99.3627 69.4237,93.722 72.461,87.6475 72.0271,78.5356 68.5559,71.5932 64.2169,66.8203 57.2746,62.9153 48.1627,59.878" stroke="#cdff29" stroke-width="2" /><polyline fill="none" points="17.3559,104.5695 15.6203,119.322" stroke="#ffc400" stroke-width="2" /><polyline fill="none" points="43.3898,109.3424 42.522,118.4542" stroke="#ff6700" stroke-width="2" /><polyline fill="none" points="65.0847,107.1729 65.9525,112.8136" stroke="#f10700" stroke-width="2" /><polyline fill="none" points="26.0339,104.5695 24.2983,115.4169" stroke="#7f0000" stroke-width="2" /></svg>