<?xml version="1.0" encoding="utf-8" ?>
<svg baseProfile="tiny" height="128" version="1.2" viewBox="0,0,128,128" width="128" xmlns="http://www.w3.org/2000/svg" xmlns:ev="http://www.w3.org/2001/xml-events" xmlns:xlink="http://www.w3.org/1999/xlink"><defs /><polyline fill="none" points="57.7085,30.3729 40.3525,38.6169 34.278,44.2576 19.0915,64.2169 12.5831,77.2339 8.678,90.6847 9.9797,103.7017 13.4508,108.9085 17.3559,113.2475 31.2407,118.4542 39.4847,119.322 54.6712,117.1525 68.9898,112.3797 81.139,106.3051 92.4203,97.1932 101.0983,86.3458 105.8712,75.0644 107.1729,65.0847 105.0034,54.6712 101.9661,49.8983 92.8542,42.0881 82.0068,36.4475 70.7254,34.7119 60.7458,35.5797" stroke="#00007f" stroke-width="2" /><polyline fill="none" points="48.1627,71.5932 47.2949,76.8 49.0305,79.4034 52.9356,78.1017 55.539,75.4983 55.539,73.3288 51.6339,74.6305" stroke="#0000fe" stroke-width="2" /><polyline fill="none" points="48.1627,75.9322 48.1627,84.6102 45.9932,88.9492 38.1831,92.8542 34.278,92.4203" stroke="#0060ff" stroke-width="2" /><polyline fill="none" points="51.6339,79.8373 52.5017,86.7797 55.9729,89.3831 61.6136,88.5153" stroke="#00d4ff" stroke-width="2" /><polyline fill="none" points="79.4034,38.1831 91.1186,11.2814 92.8542,8.678 95.4576,10.4136 99.3627,29.5051 101.0983,49.0305 100.6644,59.878" stroke="#4cffaa" stroke-width="2" /><polyline fill="none" points="40.7864,41.6542 37.3153,36.4475 28.6373,14.3186 26.4678,12.1492 23.8644,15.1864 21.6949,29.939 19.9593,70.2915" stroke="#aaff4c" stroke-width="2" /><polyline fill="none" points="64.2169,62.0475 69.4237,54.2373 75.9322,50.7661 82.4407,51.6339 88.0814,55.9729" stroke="#ffe500" stroke-width="2" /><polyline fill="none" points="65.0847,66.3864 79.4034,63.7831 86.7797,57.7085" stroke="#ff7a00" stroke-width="2" /><polyline fill="none" points="48.5966,60.7458 41.6542,53.8034 36.4475,51.2 30.3729,51.6339 25.1661,53.8034" stroke="#fe1200" stroke-width="2" /><polyline fill="none" points="42.9559,62.9153 38.6169,65.5186 34.278,65.9525 27.3356,63.7831 21.261,59.0102" stroke="#7f0000" stroke-width="2" /></svg>