<?xml version="1.0" encoding="utf-8" ?>
<svg baseProfile="tiny" height="128" version="1.2" viewBox="0,0,128,128" width="128" xmlns="http://www.w3.org/2000/svg" xmlns:ev="http://www.w3.org/2001/xml-events" xmlns:xlink="http://www.w3.org/1999/xlink"><defs /><polyline fill="none" points="21.261,37.3153 39.0508,32.9763 49.0305,33.8441 52.0678,35.5797 58.5763,42.0881 61.1797,47.7288 62.0475,73.3288 56.4068,77.2339 52.5017,78.5356 39.0508,78.9695 17.3559,66.8203 11.2814,62.0475 8.678,56.8407 11.2814,49.8983 16.922,41.2203 22.9966,34.7119" stroke="#00007f" stroke-width="2" /><polyline fill="none" points="13.8847,36.0136 14.3186,17.3559 16.0542,11.2814 18.6576,9.9797 23.8644,15.1864 30.3729,29.939 32.5424,38.1831 31.6746,26.9017 32.5424,23.4305 42.9559,9.9797 48.5966,8.678 51.2,9.5458 51.6339,12.5831 53.8034,28.6373 52.9356,36.4475" stroke="#0000f1" stroke-width="2" /><polyline fill="none" points="27.3356,45.5593 29.939,45.5593 32.5424,47.2949" stroke="#004cff" stroke-width="2" /><polyline fill="none" points="43.8237,49.4644 44.6915,51.2" stroke="#00b0ff" stroke-width="2" /><polyline fill="none" points="34.7119,58.1424 34.278,60.7458" stroke="#29ffcd" stroke-width="2" /><polyline fill="none" points="26.9017,59.0102 15.1864,58.5763 12.5831,57.7085 14.3186,56.4068" stroke="#7cff79" stroke-width="2" /><polyline fill="none" points="30.3729,63.3492 15.1864,63.3492 22.9966,64.2169" stroke="#cdff29" stroke-width="2" /><polyline fill="none" points="30.3729,67.2542 23.4305,68.9898" stroke="#ffc400" stroke-width="2" /><polyline fill="none" points="44.2576,62.0475 69.8576,62.0475" stroke="#ff6700" stroke-width="2" /><polyline fill="none" points="46.4271,65.9525 66.8203,67.2542" stroke="#f10700" stroke-width="2" /><polyline fill="none" points="63.3492,75.4983 101.5322,75.0644 111.078,78.1017 115.4169,83.7424 115.4169,90.2508 108.4746,101.0983 101.5322,108.9085 94.5898,114.5492 85.0441,118.0203 78.1017,119.322 66.8203,118.8881 55.539,112.3797 42.0881,99.3627 39.4847,95.4576" stroke="#7f0000" stroke-width="2" /></svg>