<?xml version="1.0" encoding="utf-8" ?>
<svg baseProfile="tiny" height="128" version="1.2" viewBox="0,0,128,128" width="128" xmlns="http://www.w3.org/2000/svg" xmlns:ev="http://www.w3.org/2001/xml-events" xmlns:xlink="http://www.w3.org/1999/xlink"><defs /><polyline fill="none" points="51.2,36.0136 45.1254,33.4102 27.7695,33.8441 24.2983,36.0136 20.8271,42.9559 14.7525,60.3119 14.7525,73.7627 21.6949,84.1763 30.3729,90.2508 42.522,90.6847 49.0305,87.6475 60.7458,75.9322 68.122,67.2542 70.2915,62.4814 70.2915,56.4068 63.7831,49.8983 43.8237,38.6169" stroke="#00007f" stroke-width="2" /><polyline fill="none" points="53.3695,40.7864 58.1424,38.1831 71.5932,26.4678 67.6881,41.2203 67.6881,55.539" stroke="#0000d5" stroke-width="2" /><polyline fill="none" points="26.0339,38.6169 20.3932,37.3153 13.8847,31.6746 8.678,29.5051 9.5458,36.0136 23.4305,59.878" stroke="#001cff" stroke-width="2" /><polyline fill="none" points="68.5559,62.0475 82.0068,57.2746 96.7593,57.2746 101.5322,59.0102 103.7017,61.6136 105.0034,68.122 105.0034,77.6678 101.5322,85.0441 83.7424,94.5898 70.2915,97.1932 50.7661,97.6271 44.2576,95.8915 36.8814,89.3831" stroke="#006cff" stroke-width="2" /><polyline fill="none" points="58.1424,97.6271 55.9729,98.061 52.9356,104.5695 51.6339,118.4542 54.6712,119.322 62.4814,112.3797 65.5186,105.4373 65.5186,98.061" stroke="#00b8ff" stroke-width="2" /><polyline fill="none" points="91.5525,91.9864 88.0814,102.8339 88.0814,106.739 91.1186,111.5119 95.0237,111.9458 96.7593,109.3424 98.9288,96.3254" stroke="#1cffda" stroke-width="2" /><polyline fill="none" points="97.1932,59.4441 93.2881,58.5763 91.1186,55.1051 91.1186,49.4644 100.6644,39.4847 100.6644,37.7492 95.4576,35.5797 91.9864,31.2407 88.9492,9.1119 95.0237,8.678 98.061,11.7153 102.8339,47.7288 104.5695,53.3695 104.5695,55.1051 95.8915,62.0475 95.8915,65.9525" stroke="#5cff9a" stroke-width="2" /><polyline fill="none" points="37.3153,54.2373 37.3153,54.2373" stroke="#9aff5c" stroke-width="2" /><polyline fill="none" points="49.8983,56.4068 49.8983,56.4068" stroke="#daff1c" stroke-width="2" /><polyline fill="none" points="30.3729,58.1424 32.9763,62.0475 36.4475,60.7458" stroke="#ffcb00" stroke-width="2" /><polyline fill="none" points="44.6915,55.9729 47.7288,62.9153" stroke="#ff8500" stroke-width="2" /><polyline fill="none" points="44.2576,70.2915 40.7864,74.6305 33.8441,77.6678" stroke="#ff3b00" stroke-width="2" /><polyline fill="none" points="46.4271,69.8576 45.1254,74.1966 49.4644,77.6678 54.6712,78.1017" stroke="#d50000" stroke-width="2" /><polyline fill="none" points="39.9186,65.9525 41.6542,67.6881 47.7288,68.5559 49.8983,71.5932 48.5966,72.0271" stroke="#7f0000" stroke-width="2" /></svg>