<?xml version="1.0" encoding="utf-8" ?>
<svg baseProfile="tiny" height="128" version="1.2" viewBox="0,0,128,128" width="128" xmlns="http://www.w3.org/2000/svg" xmlns:ev="http://www.w3.org/2001/xml-events" xmlns:xlink="http://www.w3.org/1999/xlink"><defs /><polyline fill="none" points="26.9017,116.2847 31.2407,118.4542 46.4271,119.322 68.122,112.8136 74.1966,108.0407 86.3458,91.9864 89.3831,82.4407 89.8169,74.1966 83.7424,61.6136 75.9322,53.8034 60.3119,44.6915 45.9932,43.3898 33.4102,47.7288 16.922,56.4068 10.4136,68.5559 8.678,81.139 8.678,97.6271 12.1492,104.5695 17.3559,113.2475 22.5627,118.0203 36.0136,117.5864" stroke="#00007f" stroke-width="2" /><polyline fill="none" points="12.5831,57.2746 16.0542,41.6542 16.0542,11.2814 17.7898,18.6576 25.6,36.4475 30.8068,41.2203 38.6169,44.2576" stroke="#00d4ff" stroke-width="2" /><polyline fill="none" points="61.6136,42.9559 76.3661,31.2407 87.6475,18.6576 93.722,8.678 89.8169,14.3186 86.7797,31.2407 87.6475,65.5186" stroke="#ffe500" stroke-width="2" /><polyline fill="none" points="38.6169,101.0983 39.4847,97.6271 36.4475,95.4576 35.5797,93.2881 35.5797,88.0814 36.8814,86.7797 47.7288,87.2136 50.7661,89.8169 46.4271,92.8542 42.9559,99.7966 37.3153,101.5322" stroke="#7f0000" stroke-width="2" /></svg>