<?xml version="1.0" encoding="utf-8" ?>
<svg baseProfile="tiny" height="128" version="1.2" viewBox="0,0,128,128" width="128" xmlns="http://www.w3.org/2000/svg" xmlns:ev="http://www.w3.org/2001/xml-events" xmlns:xlink="http://www.w3.org/1999/xlink"><defs /><polyline fill="none" points="94.5898,42.0881 68.9898,37.3153 58.5763,36.8814 49.8983,37.7492 42.522,42.522 19.9593,16.922 9.9797,8.678 8.678,10.8475 8.678,16.922 12.1492,42.0881 16.922,60.7458 13.8847,70.2915 13.0169,88.0814 14.7525,93.2881 20.8271,103.7017 28.6373,110.2102 38.6169,115.8508 64.6508,119.322 74.1966,119.322 83.7424,117.1525 102.8339,103.7017 114.9831,87.2136 118.4542,74.6305 118.8881,61.1797 110.2102,43.8237 114.9831,30.8068 118.0203,14.3186 103.2678,24.7322 92.4203,29.939 89.8169,35.5797" stroke="#00007f" stroke-width="2" /><polyline fill="none" points="49.0305,57.7085 46.861,57.7085 44.6915,59.878 44.2576,65.5186 49.0305,67.6881 54.2373,66.8203 59.0102,62.0475 59.4441,59.4441 59.4441,57.2746 54.6712,54.6712" stroke="#0010ff" stroke-width="2" /><polyline fill="none" points="78.1017,57.2746 76.8,64.6508 82.4407,67.2542 91.5525,67.6881 93.722,66.3864 95.4576,61.6136 88.0814,59.4441" stroke="#00a4ff" stroke-width="2" /><polyline fill="none" points="62.9153,82.4407 77.6678,82.0068 77.6678,84.1763 73.3288,90.6847 71.1593,91.1186 68.122,82.4407 65.9525,79.4034" stroke="#3fffb7" stroke-width="2" /><polyline fill="none" points="70.7254,91.9864 69.4237,108.4746" stroke="#b7ff3f" stroke-width="2" /><polyline fill="none" points="55.9729,91.9864 23.8644,84.6102" stroke="#ffb900" stroke-width="2" /><polyline fill="none" points="44.6915,95.8915 32.1085,98.9288 22.5627,103.7017 24.7322,104.1356" stroke="#ff3000" stroke-width="2" /><polyline fill="none" points="49.0305,105.0034 33.8441,112.8136 38.6169,114.1153" stroke="#7f0000" stroke-width="2" /></svg>