<?xml version="1.0" encoding="utf-8" ?>
<svg baseProfile="tiny" height="128" version="1.2" viewBox="0,0,128,128" width="128" xmlns="http://www.w3.org/2000/svg" xmlns:ev="http://www.w3.org/2001/xml-events" xmlns:xlink="http://www.w3.org/1999/xlink"><defs /><polyline fill="none" points="78.5356,26.9017 69.8576,22.1288 60.7458,19.0915 52.5017,20.3932 44.2576,24.7322 38.1831,30.8068 35.1458,37.3153 32.5424,46.4271 33.4102,62.4814 36.8814,69.4237 42.522,76.3661 50.3322,81.5729 55.9729,83.7424 62.4814,84.1763 67.6881,82.4407 80.7051,74.1966 88.0814,62.4814 89.8169,50.3322 86.7797,36.8814 82.8746,29.5051 77.2339,23.4305" stroke="#00007f" stroke-width="2" /><polyline fill="none" points="36.0136,9.1119 39.4847,33.4102" stroke="#0000f1" stroke-width="2" /><polyline fill="none" points="42.0881,9.5458 49.0305,20.3932" stroke="#004cff" stroke-width="2" /><polyline fill="none" points="77.6678,22.9966 88.5153,10.4136 91.9864,8.678 88.9492,29.0712" stroke="#00b0ff" stroke-width="2" /><polyline fill="none" points="59.4441,52.5017 55.9729,56.4068 57.7085,57.2746 60.3119,56.8407 61.6136,54.6712 57.7085,53.3695" stroke="#29ffcd" stroke-width="2" /><polyline fill="none" points="55.9729,36.8814 55.9729,36.8814" stroke="#7cff79" stroke-width="2" /><polyline fill="none" points="71.5932,38.6169 71.1593,38.1831" stroke="#cdff29" stroke-width="2" /><polyline fill="none" points="52.9356,36.0136 50.7661,36.8814 49.8983,40.3525 51.6339,41.2203 53.8034,39.9186 54.6712,37.7492 53.8034,37.3153" stroke="#ffc400" stroke-width="2" /><polyline fill="none" points="59.0102,58.1424 45.9932,52.5017 22.5627,48.1627 8.678,47.7288" stroke="#ff6700" stroke-width="2" /><polyline fill="none" points="57.2746,65.9525 44.2576,63.7831 35.5797,64.6508 26.9017,68.122 16.0542,75.0644" stroke="#f10700" stroke-width="2" /><polyline fill="none" points="65.0847,54.6712 71.5932,51.6339 97.1932,46.4271 107.6068,45.1254 114.5492,45.5593 119.322,47.2949" stroke="#7f0000" stroke-width="2" /></svg>