<?xml version="1.0" encoding="utf-8" ?>
<svg baseProfile="tiny" height="128" version="1.2" viewBox="0,0,128,128" width="128" xmlns="http://www.w3.org/2000/svg" xmlns:ev="http://www.w3.org/2001/xml-events" xmlns:xlink="http://www.w3.org/1999/xlink"><defs /><polyline fill="none" points="29.5051,73.3288 32.5424,50.3322 32.1085,35.5797 48.1627,35.5797 67.6881,40.7864 85.0441,40.3525 84.1763,80.2712 85.478,88.9492 86.7797,83.3085 83.3085,60.3119 89.3831,36.8814 98.061,39.9186 104.1356,44.6915 109.7763,46.861 119.322,48.1627 110.6441,47.2949 95.8915,41.6542 92.8542,39.4847 88.0814,27.7695 78.9695,24.2983 66.8203,16.0542 63.7831,15.6203 59.878,17.3559 48.1627,16.922 39.9186,12.5831 27.7695,15.1864 26.4678,17.7898 27.7695,23.8644 27.7695,36.0136 26.9017,37.7492" stroke="#00007f" stroke-width="2" /><polyline fill="none" points="26.0339,16.922 17.3559,14.3186 8.678,8.678" stroke="#7f0000" stroke-width="2" /></svg>