<?xml version="1.0" encoding="utf-8" ?>
<svg baseProfile="tiny" height="128" version="1.2" viewBox="0,0,128,128" width="128" xmlns="http://www.w3.org/2000/svg" xmlns:ev="http://www.w3.org/2001/xml-events" xmlns:xlink="http://www.w3.org/1999/xlink"><defs /><polyline fill="none" points="48.3265,40.9252 40.9252,23.5102 33.9592,10.449 32.2177,8.7075 30.9116,34.8299 26.5578,47.8912" stroke="#00007f" stroke-width="2" /><polyline fill="none" points="50.5034,46.1497 57.034,44.4082 65.7415,44.4082 80.5442,48.7619 91.4286,32.6531 99.2653,23.5102 103.1837,20.898 104.0544,23.9456 107.5374,54.8571 107.102,72.7075 101.0068,92.7347 90.5578,108.8435 67.0476,119.2925 60.517,119.2925 50.9388,111.8912 40.4898,98.3946 34.8299,88.381 27.8639,71.4014 26.9932,61.3878 30.0408,51.3741" stroke="#0028ff" stroke-width="2" /><polyline fill="none" points="75.7551,76.6259 97.9592,80.5442" stroke="#00d4ff" stroke-width="2" /><polyline fill="none" points="74.449,87.9456 84.898,91.8639 114.9388,98.8299" stroke="#7cff79" stroke-width="2" /><polyline fill="none" points="46.1497,80.9796 43.9728,79.2381 26.1224,74.8844 8.7075,74.8844" stroke="#ffe500" stroke-width="2" /><polyline fill="none" points="48.3265,88.381 32.6531,88.8163 14.8027,92.7347" stroke="#ff4600" stroke-width="2" /><polyline fill="none" points="46.585,98.3946 42.6667,98.8299 31.7823,106.2313" stroke="#7f0000" stroke-width="2" /></svg>