<?xml version="1.0" encoding="utf-8" ?>
<svg baseProfile="tiny" height="128" version="1.2" viewBox="0,0,128,128" width="128" xmlns="http://www.w3.org/2000/svg" xmlns:ev="http://www.w3.org/2001/xml-events" xmlns:xlink="http://www.w3.org/1999/xlink"><defs /><polyline fill="none" points="45.9932,61.6136 45.5593,68.9898 52.9356,76.8 60.3119,79.8373 72.8949,79.8373 79.8373,75.9322 83.7424,70.7254 85.478,63.7831 85.9119,48.5966 83.7424,40.3525 80.2712,34.7119 73.7627,32.5424 61.6136,32.1085 53.3695,36.4475 48.5966,41.6542 45.9932,48.5966 45.9932,61.6136 39.0508,13.4508 44.6915,16.0542 57.2746,31.2407 63.7831,36.4475 75.0644,12.5831 78.9695,8.678 82.0068,18.6576 82.8746,40.3525" stroke="#00007f" stroke-width="2" /><polyline fill="none" points="49.0305,60.7458 36.4475,60.7458 8.678,68.9898" stroke="#0000fe" stroke-width="2" /><polyline fill="none" points="49.0305,68.122 40.3525,72.0271 35.1458,75.9322 30.8068,81.139 29.5051,85.9119" stroke="#0060ff" stroke-width="2" /><polyline fill="none" points="57.2746,71.1593 47.7288,85.0441 44.6915,94.5898" stroke="#00d4ff" stroke-width="2" /><polyline fill="none" points="62.9153,48.1627 62.9153,48.1627" stroke="#4cffaa" stroke-width="2" /><polyline fill="none" points="74.1966,45.1254 74.1966,46.861" stroke="#aaff4c" stroke-width="2" /><polyline fill="none" points="58.5763,49.8983 62.0475,52.0678" stroke="#ffe500" stroke-width="2" /><polyline fill="none" points="81.139,56.4068 95.4576,51.6339 119.322,46.861" stroke="#ff7a00" stroke-width="2" /><polyline fill="none" points="81.139,61.6136 98.4949,59.878 107.6068,59.878 111.078,61.6136" stroke="#fe1200" stroke-width="2" /><polyline fill="none" points="82.4407,70.7254 103.2678,68.5559 109.3424,71.1593" stroke="#7f0000" stroke-width="2" /></svg>