<?xml version="1.0" encoding="utf-8" ?>
<svg baseProfile="tiny" height="128" version="1.2" viewBox="0,0,128,128" width="128" xmlns="http://www.w3.org/2000/svg" xmlns:ev="http://www.w3.org/2001/xml-events" xmlns:xlink="http://www.w3.org/1999/xlink"><defs /><polyline fill="none" points="84.6102,48.5966 72.0271,49.4644 59.0102,54.2373 45.1254,63.3492 32.1085,78.1017 26.9017,93.2881 26.9017,101.9661 28.6373,105.4373 34.7119,111.9458 39.9186,114.9831 52.5017,118.4542 63.3492,119.322 73.7627,118.4542 92.8542,105.0034 100.2305,98.061 104.1356,86.7797 106.3051,73.3288 105.8712,61.6136 101.5322,55.539 84.1763,49.8983 82.0068,48.5966 82.0068,46.4271 103.2678,22.9966 107.6068,16.0542 116.2847,8.678 116.7186,27.3356 114.1153,41.6542 111.078,50.3322 107.6068,53.3695" stroke="#00007f" stroke-width="2" /><polyline fill="none" points="57.2746,53.3695 53.8034,52.9356 48.1627,49.0305 25.1661,29.939 8.678,23.8644 12.5831,50.3322 15.1864,59.4441 20.3932,68.5559 22.9966,70.2915 26.9017,70.7254" stroke="#0080ff" stroke-width="2" /><polyline fill="none" points="62.0475,69.8576 64.2169,77.6678 62.0475,71.5932 62.9153,78.9695" stroke="#7cff79" stroke-width="2" /><polyline fill="none" points="90.2508,69.4237 90.2508,77.6678 90.2508,68.9898 90.6847,73.7627" stroke="#ff9400" stroke-width="2" /><polyline fill="none" points="75.0644,89.3831 66.8203,100.2305" stroke="#7f0000" stroke-width="2" /></svg>