<?xml version="1.0" encoding="utf-8" ?>
<svg baseProfile="tiny" height="128" version="1.2" viewBox="0,0,128,128" width="128" xmlns="http://www.w3.org/2000/svg" xmlns:ev="http://www.w3.org/2001/xml-events" xmlns:xlink="http://www.w3.org/1999/xlink"><defs /><polyline fill="none" points="56.8407,28.6373 38.6169,27.3356 32.1085,29.5051 26.0339,33.4102 13.8847,43.8237 9.9797,51.6339 8.678,65.5186 14.7525,82.0068 23.8644,90.6847 34.7119,94.5898 59.4441,95.0237 69.8576,93.722 84.1763,88.9492 90.6847,84.6102 93.2881,81.139 94.5898,60.3119 91.5525,49.8983 85.0441,41.6542 65.0847,31.2407 66.3864,30.8068" stroke="#00007f" stroke-width="2" /><polyline fill="none" points="76.8,33.8441 119.322,12.5831 115.4169,27.7695 106.3051,45.5593 89.3831,61.1797" stroke="#0028ff" stroke-width="2" /><polyline fill="none" points="43.3898,21.6949 40.3525,22.5627 13.0169,8.678 19.5254,37.3153" stroke="#00d4ff" stroke-width="2" /><polyline fill="none" points="39.4847,69.4237 42.0881,72.461 46.861,70.7254 39.9186,68.5559" stroke="#7cff79" stroke-width="2" /><polyline fill="none" points="42.0881,72.8949 40.7864,83.7424" stroke="#ffe500" stroke-width="2" /><polyline fill="none" points="65.9525,46.4271 64.6508,69.4237" stroke="#ff4600" stroke-width="2" /><polyline fill="none" points="35.1458,44.2576 32.5424,63.7831" stroke="#7f0000" stroke-width="2" /></svg>