<?xml version="1.0" encoding="utf-8" ?>
<svg baseProfile="tiny" height="128" version="1.2" viewBox="0,0,128,128" width="128" xmlns="http://www.w3.org/2000/svg" xmlns:ev="http://www.w3.org/2001/xml-events" xmlns:xlink="http://www.w3.org/1999/xlink"><defs /><polyline fill="none" points="86.7797,52.9356 74.6305,45.1254 63.7831,41.6542 56.8407,41.6542 40.7864,45.9932 25.6,55.1051 20.8271,59.4441 13.0169,69.8576 10.4136,81.139 13.4508,91.1186 21.261,104.1356 31.2407,112.3797 49.8983,119.322 57.2746,119.322 82.8746,107.6068 88.0814,104.1356 94.1559,95.4576 97.1932,90.2508 98.061,84.1763 96.7593,69.8576 93.722,63.3492 84.1763,46.861 76.3661,42.9559 69.4237,42.522" stroke="#00007f" stroke-width="2" /><polyline fill="none" points="8.678,62.9153 15.1864,29.939 20.8271,11.2814 23.4305,8.678 28.6373,11.7153 31.6746,16.922 34.7119,39.4847 39.9186,48.5966" stroke="#004cff" stroke-width="2" /><polyline fill="none" points="62.9153,50.7661 65.0847,39.9186 74.1966,21.6949 81.5729,12.5831 87.6475,9.1119 91.9864,15.6203 101.5322,60.3119" stroke="#29ffcd" stroke-width="2" /><polyline fill="none" points="54.2373,78.9695 48.5966,86.3458 51.2,87.6475 55.539,87.2136 62.9153,83.7424 55.539,77.6678 54.2373,73.3288" stroke="#cdff29" stroke-width="2" /><polyline fill="none" points="51.6339,94.1559 47.7288,102.8339 42.9559,105.8712 30.8068,106.739" stroke="#ff6700" stroke-width="2" /><polyline fill="none" points="55.9729,95.8915 62.9153,104.1356 66.3864,105.8712 74.1966,105.8712 81.139,103.2678" stroke="#7f0000" stroke-width="2" /></svg>