<?xml version="1.0" encoding="utf-8" ?>
<svg baseProfile="tiny" height="128" version="1.2" viewBox="0,0,128,128" width="128" xmlns="http://www.w3.org/2000/svg" xmlns:ev="http://www.w3.org/2001/xml-events" xmlns:xlink="http://www.w3.org/1999/xlink"><defs /><polyline fill="none" points="88.0814,51.2 83.3085,48.1627 73.7627,47.2949 56.4068,47.2949 45.9932,49.8983 26.0339,59.878 13.8847,70.7254 10.8475,75.4983 9.5458,79.8373 9.5458,95.4576 18.6576,104.1356 25.6,106.739 39.0508,108.0407 52.9356,108.0407 66.8203,105.0034 78.1017,98.061 85.9119,88.0814 88.0814,77.6678 86.7797,62.9153 78.5356,53.8034 70.7254,50.7661 44.6915,51.2" stroke="#00007f" stroke-width="2" /><polyline fill="none" points="18.2237,69.8576 16.0542,53.3695 9.9797,31.6746 8.678,18.2237 12.5831,19.5254 23.4305,29.5051 31.6746,39.0508 39.9186,53.8034" stroke="#0028ff" stroke-width="2" /><polyline fill="none" points="75.9322,53.3695 77.6678,47.2949 119.322,8.678 114.5492,19.0915 99.7966,65.9525" stroke="#00d4ff" stroke-width="2" /><polyline fill="none" points="50.7661,73.3288 50.7661,82.0068 53.3695,85.478 56.8407,82.4407 58.1424,78.5356" stroke="#7cff79" stroke-width="2" /><polyline fill="none" points="55.539,81.139 40.7864,101.0983 36.0136,103.2678 26.0339,104.5695 18.6576,104.1356 15.6203,101.5322 13.8847,98.061 16.0542,93.2881" stroke="#ffe500" stroke-width="2" /><polyline fill="none" points="56.8407,84.1763 64.2169,98.061 68.9898,101.9661 78.1017,102.8339 82.0068,101.9661 86.7797,98.4949 98.061,83.3085" stroke="#ff4600" stroke-width="2" /><polyline fill="none" points="45.1254,61.1797 45.1254,61.1797" stroke="#7f0000" stroke-width="2" /></svg>