<?xml version="1.0" encoding="utf-8" ?>
<svg baseProfile="tiny" height="128" version="1.2" viewBox="0,0,128,128" width="128" xmlns="http://www.w3.org/2000/svg" xmlns:ev="http://www.w3.org/2001/xml-events" xmlns:xlink="http://www.w3.org/1999/xlink"><defs /><polyline fill="none" points="41.2203,22.5627 41.2203,22.5627" stroke="#00007f" stroke-width="2" /><polyline fill="none" points="41.2203,22.5627 41.2203,22.5627" stroke="#0000d1" stroke-width="2" /><polyline fill="none" points="41.2203,22.5627 41.6542,19.9593 46.861,14.3186" stroke="#0010ff" stroke-width="2" /><polyline fill="none" points="47.2949,13.8847 55.9729,10.4136" stroke="#0058ff" stroke-width="2" /><polyline fill="none" points="56.4068,9.1119 61.6136,8.678" stroke="#00a4ff" stroke-width="2" /><polyline fill="none" points="61.6136,8.678 61.6136,8.678" stroke="#05ecf1" stroke-width="2" /><polyline fill="none" points="61.6136,8.678 62.0475,8.678" stroke="#3fffb7" stroke-width="2" /><polyline fill="none" points="62.4814,8.678 62.4814,13.8847 57.2746,21.6949 56.4068,26.4678" stroke="#7cff79" stroke-width="2" /><polyline fill="none" points="40.3525,20.8271 40.3525,20.8271" stroke="#b7ff3f" stroke-width="2" /><polyline fill="none" points="40.3525,20.8271 35.1458,19.5254 26.0339,19.5254 20.8271,21.261" stroke="#f1fc05" stroke-width="2" /><polyline fill="none" points="20.8271,21.261 20.8271,21.261" stroke="#ffb900" stroke-width="2" /><polyline fill="none" points="20.8271,21.261 17.3559,16.922" stroke="#ff7300" stroke-width="2" /><polyline fill="none" points="17.3559,16.4881 9.5458,13.8847" stroke="#ff3000" stroke-width="2" /><polyline fill="none" points="9.5458,14.3186 9.5458,19.9593 13.4508,24.7322" stroke="#d10000" stroke-width="2" /><polyline fill="none" points="13.4508,25.6 9.5458,36.0136 8.678,45.5593 10.4136,48.1627 15.1864,50.7661 32.9763,52.9356 44.2576,50.7661 54.6712,43.8237 59.878,36.0136 61.6136,30.8068 58.5763,26.0339 65.0847,36.0136 67.6881,49.4644 67.6881,56.8407 63.3492,73.7627 63.3492,93.722 65.9525,112.8136 61.6136,117.1525 56.8407,119.322 42.9559,118.8881 40.3525,117.1525" stroke="#7f0000" stroke-width="2" /></svg>