<?xml version="1.0" encoding="utf-8" ?>
<svg baseProfile="tiny" height="128" version="1.2" viewBox="0,0,128,128" width="128" xmlns="http://www.w3.org/2000/svg" xmlns:ev="http://www.w3.org/2001/xml-events" xmlns:xlink="http://www.w3.org/1999/xlink"><defs /><polyline fill="none" points="8.678,73.3288 12.1492,68.9898 19.5254,63.7831" stroke="#00007f" stroke-width="2" /><polyline fill="none" points="10.4136,71.1593 22.1288,71.5932 27.7695,73.3288 32.9763,76.8 52.0678,81.139 75.4983,83.3085 96.3254,82.8746 112.3797,65.5186 119.322,43.3898 118.8881,21.261 114.9831,17.3559 105.0034,12.5831 96.7593,12.5831 80.2712,8.678 47.7288,8.678 40.3525,11.7153 31.6746,18.6576 28.6373,25.6 25.1661,41.2203 17.7898,49.4644 16.922,53.3695 20.3932,61.1797" stroke="#0010ff" stroke-width="2" /><polyline fill="none" points="44.6915,29.0712 57.7085,29.5051" stroke="#00a4ff" stroke-width="2" /><polyline fill="none" points="42.9559,29.5051 43.8237,24.2983 45.5593,22.9966 49.4644,31.6746 49.8983,24.7322 51.6339,23.8644 53.3695,24.7322 55.9729,29.939" stroke="#3fffb7" stroke-width="2" /><polyline fill="none" points="62.9153,23.4305 63.3492,25.6 68.9898,29.5051 75.9322,22.1288" stroke="#b7ff3f" stroke-width="2" /><polyline fill="none" points="76.3661,21.6949 80.2712,30.8068 82.4407,30.3729 83.3085,26.9017 86.3458,26.0339" stroke="#ffb900" stroke-width="2" /><polyline fill="none" points="88.5153,29.5051 92.8542,25.6 85.478,24.7322 81.5729,26.0339 85.478,32.1085 88.5153,33.4102 89.3831,32.1085" stroke="#ff3000" stroke-width="2" /><polyline fill="none" points="104.5695,20.3932 105.0034,26.4678 106.739,31.6746" stroke="#7f0000" stroke-width="2" /></svg>