<?xml version="1.0" encoding="utf-8" ?>
<svg baseProfile="tiny" height="128" version="1.2" viewBox="0,0,128,128" width="128" xmlns="http://www.w3.org/2000/svg" xmlns:ev="http://www.w3.org/2001/xml-events" xmlns:xlink="http://www.w3.org/1999/xlink"><defs /><polyline fill="none" points="22.1288,48.1627 20.8271,81.5729 22.5627,84.6102 26.0339,86.7797 31.6746,86.7797 35.5797,85.0441 43.3898,76.8 50.7661,65.9525 52.0678,49.0305 59.0102,27.7695 59.878,17.3559 45.9932,27.7695 37.3153,44.6915 30.8068,46.4271 26.0339,34.278 12.5831,8.678 8.678,21.6949 8.678,26.9017 13.8847,41.6542 24.2983,62.4814" stroke="#00007f" stroke-width="2" /><polyline fill="none" points="31.2407,67.2542 36.0136,66.8203 32.5424,72.461 31.2407,72.461 30.3729,66.8203" stroke="#0010ff" stroke-width="2" /><polyline fill="none" points="29.0712,51.2 26.9017,52.0678 25.6,55.1051 28.6373,59.0102 31.2407,60.3119 33.8441,59.4441 34.7119,56.4068 27.3356,51.2" stroke="#00a4ff" stroke-width="2" /><polyline fill="none" points="40.7864,52.5017 36.4475,54.2373 38.6169,60.7458 39.9186,61.6136 44.6915,59.4441 46.4271,55.539 43.8237,52.0678 39.4847,52.0678" stroke="#3fffb7" stroke-width="2" /><polyline fill="none" points="41.2203,55.539 40.7864,55.539" stroke="#b7ff3f" stroke-width="2" /><polyline fill="none" points="29.5051,56.4068 29.5051,56.4068" stroke="#ffb900" stroke-width="2" /><polyline fill="none" points="29.939,55.9729 29.939,56.4068" stroke="#ff3000" stroke-width="2" /><polyline fill="none" points="119.322,12.1492 101.5322,23.8644 79.4034,42.522 59.4441,63.7831 64.6508,47.7288 77.2339,29.939 63.3492,63.3492" stroke="#7f0000" stroke-width="2" /></svg>