<?xml version="1.0" encoding="utf-8" ?>
<svg baseProfile="tiny" height="128" version="1.2" viewBox="0,0,128,128" width="128" xmlns="http://www.w3.org/2000/svg" xmlns:ev="http://www.w3.org/2001/xml-events" xmlns:xlink="http://www.w3.org/1999/xlink"><defs /><polyline fill="none" points="21.261,46.861 19.0915,33.4102 19.5254,8.678 42.0881,39.4847 55.539,36.0136 72.0271,43.3898 72.8949,39.0508 84.1763,26.0339 105.8712,9.1119 110.2102,29.5051 111.078,49.4644 114.9831,56.8407 114.5492,67.6881 104.1356,91.1186 96.7593,95.8915 85.478,100.6644 74.1966,102.8339 65.9525,103.2678 51.6339,100.6644 28.6373,91.5525 17.7898,82.8746 10.4136,73.3288 8.678,61.6136 12.1492,50.3322 16.4881,47.7288 22.9966,46.4271" stroke="#00007f" stroke-width="2" /><polyline fill="none" points="59.4441,68.5559 57.2746,67.6881 52.9356,68.5559 51.2,70.2915 51.2,73.7627 53.8034,78.9695 62.0475,85.478 69.4237,87.2136 70.7254,85.478 70.2915,82.0068 63.3492,70.2915 57.2746,66.3864 55.539,66.3864" stroke="#0000fe" stroke-width="2" /><polyline fill="none" points="51.6339,71.1593 22.1288,62.9153" stroke="#0060ff" stroke-width="2" /><polyline fill="none" points="52.5017,77.6678 23.8644,76.3661" stroke="#00d4ff" stroke-width="2" /><polyline fill="none" points="54.2373,81.5729 51.2,80.7051 12.5831,87.2136" stroke="#4cffaa" stroke-width="2" /><polyline fill="none" points="62.9153,72.0271 97.1932,70.2915" stroke="#aaff4c" stroke-width="2" /><polyline fill="none" points="59.878,77.2339 86.3458,81.5729" stroke="#ffe500" stroke-width="2" /><polyline fill="none" points="72.461,82.4407 79.4034,85.0441 90.2508,91.5525 119.322,113.2475" stroke="#ff7a00" stroke-width="2" /><polyline fill="none" points="46.4271,57.7085 48.1627,57.2746" stroke="#fe1200" stroke-width="2" /><polyline fill="none" points="67.2542,59.0102 67.2542,59.0102" stroke="#7f0000" stroke-width="2" /></svg>