<?xml version="1.0" encoding="utf-8" ?>
<svg baseProfile="tiny" height="128" version="1.2" viewBox="0,0,128,128" width="128" xmlns="http://www.w3.org/2000/svg" xmlns:ev="http://www.w3.org/2001/xml-events" xmlns:xlink="http://www.w3.org/1999/xlink"><defs /><polyline fill="none" points="56.8407,31.2407 46.4271,32.1085 32.5424,38.1831 22.9966,46.861 17.3559,55.1051 10.8475,71.5932 9.1119,81.139 9.9797,94.1559 13.4508,105.0034 18.2237,111.5119 25.6,116.2847 30.3729,118.4542 40.3525,119.322 55.1051,115.8508 65.0847,109.7763 71.5932,104.1356 80.2712,91.5525 82.8746,82.8746 82.8746,75.0644 79.4034,63.7831 74.6305,56.4068 65.9525,48.1627" stroke="#00007f" stroke-width="2" /><polyline fill="none" points="25.6,48.1627 10.8475,19.5254 8.678,8.678 16.922,13.4508 35.5797,29.939 42.0881,33.4102" stroke="#0000fe" stroke-width="2" /><polyline fill="none" points="65.9525,48.1627 79.8373,15.1864 82.0068,15.1864 84.1763,25.6 83.7424,36.8814 79.4034,55.9729" stroke="#0060ff" stroke-width="2" /><polyline fill="none" points="31.2407,81.5729 32.1085,76.8 38.6169,62.4814 40.7864,63.7831 43.8237,70.7254 41.2203,73.7627 36.8814,74.6305" stroke="#00d4ff" stroke-width="2" /><polyline fill="none" points="44.6915,66.8203 50.3322,61.1797" stroke="#4cffaa" stroke-width="2" /><polyline fill="none" points="51.6339,71.1593 55.539,72.8949" stroke="#aaff4c" stroke-width="2" /><polyline fill="none" points="55.539,80.7051 62.0475,83.3085" stroke="#ffe500" stroke-width="2" /><polyline fill="none" points="22.1288,70.2915 14.7525,66.3864" stroke="#ff7a00" stroke-width="2" /><polyline fill="none" points="21.261,78.5356 18.6576,80.2712" stroke="#fe1200" stroke-width="2" /><polyline fill="none" points="33.8441,78.5356 35.1458,80.2712" stroke="#7f0000" stroke-width="2" /></svg>