<?xml version="1.0" encoding="utf-8" ?>
<svg baseProfile="tiny" height="128" version="1.2" viewBox="0,0,128,128" width="128" xmlns="http://www.w3.org/2000/svg" xmlns:ev="http://www.w3.org/2001/xml-events" xmlns:xlink="http://www.w3.org/1999/xlink"><defs /><polyline fill="none" points="13.0169,34.7119 35.1458,50.3322 40.7864,59.4441 41.6542,65.5186 38.1831,72.8949 30.3729,75.9322 25.6,75.9322 10.8475,70.2915 8.678,63.3492 11.2814,33.4102 16.4881,8.678 27.3356,37.7492 28.2034,45.5593" stroke="#00007f" stroke-width="2" /><polyline fill="none" points="30.3729,48.5966 36.4475,23.4305 41.2203,14.3186 45.9932,9.1119 48.1627,23.8644 48.5966,37.3153 43.8237,50.3322 40.7864,55.1051 39.0508,55.539" stroke="#0000de" stroke-width="2" /><polyline fill="none" points="18.2237,59.0102 23.4305,63.7831 19.5254,66.3864" stroke="#0028ff" stroke-width="2" /><polyline fill="none" points="22.5627,63.3492 25.6,62.0475" stroke="#0080ff" stroke-width="2" /><polyline fill="none" points="18.6576,48.1627 18.6576,48.1627" stroke="#00d4ff" stroke-width="2" /><polyline fill="none" points="28.6373,50.3322 28.6373,50.3322" stroke="#36ffc0" stroke-width="2" /><polyline fill="none" points="42.0881,68.122 58.5763,63.3492 72.8949,61.6136 85.0441,63.3492 98.9288,68.5559 101.9661,72.0271 103.2678,78.9695 102.4,97.6271 99.3627,101.5322 91.9864,105.4373 84.1763,107.6068 78.5356,107.6068 66.3864,102.8339 35.5797,83.3085 33.8441,78.5356 33.4102,71.5932" stroke="#7cff79" stroke-width="2" /><polyline fill="none" points="26.4678,53.8034 26.9017,53.8034" stroke="#c0ff36" stroke-width="2" /><polyline fill="none" points="36.0136,86.3458 36.4475,119.322" stroke="#ffe500" stroke-width="2" /><polyline fill="none" points="45.9932,93.2881 41.6542,115.8508" stroke="#ff9400" stroke-width="2" /><polyline fill="none" points="97.6271,98.4949 94.1559,103.7017 92.8542,115.8508" stroke="#ff4600" stroke-width="2" /><polyline fill="none" points="101.9661,96.3254 101.5322,113.2475" stroke="#de0000" stroke-width="2" /><polyline fill="none" points="97.1932,70.2915 103.2678,66.3864 106.3051,59.878 106.739,55.1051 104.5695,49.8983 92.8542,40.7864 89.3831,30.3729 101.5322,22.9966 101.9661,21.261 98.061,15.1864 88.5153,14.3186 86.3458,9.1119" stroke="#7f0000" stroke-width="2" /></svg>