<?xml version="1.0" encoding="utf-8" ?>
<svg baseProfile="tiny" height="128" version="1.2" viewBox="0,0,128,128" width="128" xmlns="http://www.w3.org/2000/svg" xmlns:ev="http://www.w3.org/2001/xml-events" xmlns:xlink="http://www.w3.org/1999/xlink"><defs /><polyline fill="none" points="39.0508,42.9559 28.6373,44.2576 26.9017,47.7288 25.1661,59.878 9.9797,75.0644 8.678,82.4407 9.5458,87.2136 13.0169,86.7797 18.2237,82.8746 22.1288,72.461 37.3153,59.4441 38.6169,52.5017 36.8814,44.6915 39.4847,39.9186 41.2203,38.6169 44.6915,39.9186 41.2203,50.3322 41.6542,59.4441 45.9932,66.8203 52.5017,73.7627 60.3119,75.9322 73.3288,75.9322 78.1017,73.7627 85.478,67.6881 92.4203,50.3322 93.2881,42.9559 90.6847,39.4847 62.4814,35.5797 52.0678,35.5797 36.0136,40.3525 34.7119,41.6542 33.8441,49.0305" stroke="#00007f" stroke-width="2" /><polyline fill="none" points="49.0305,63.7831 45.5593,65.5186 41.6542,70.7254 35.5797,91.9864 35.1458,95.4576 36.4475,95.0237 41.6542,89.3831 42.9559,96.3254 45.9932,93.2881 48.1627,87.6475 49.4644,72.0271 54.2373,59.878" stroke="#0000fe" stroke-width="2" /><polyline fill="none" points="73.7627,71.1593 78.9695,100.2305 82.4407,93.2881 84.1763,84.1763 85.478,88.0814 87.2136,86.7797 87.6475,83.7424 88.0814,75.4983 85.478,63.7831" stroke="#0060ff" stroke-width="2" /><polyline fill="none" points="98.061,27.3356 91.9864,27.3356 87.6475,29.939 83.3085,39.4847 82.8746,45.9932 84.6102,49.4644 87.6475,52.0678 100.6644,55.539 112.3797,55.9729 117.1525,53.8034 119.322,44.6915 119.322,38.6169 115.4169,32.5424 101.5322,25.6 93.722,22.1288 90.6847,26.0339" stroke="#00d4ff" stroke-width="2" /><polyline fill="none" points="86.7797,30.8068 88.9492,18.2237 91.9864,8.678 95.0237,22.1288" stroke="#4cffaa" stroke-width="2" /><polyline fill="none" points="104.1356,29.5051 107.6068,17.3559 110.6441,14.7525 112.3797,15.1864 114.5492,19.5254 115.8508,27.3356" stroke="#aaff4c" stroke-width="2" /><polyline fill="none" points="93.2881,33.4102 99.7966,34.7119 101.5322,36.8814 101.0983,37.7492 96.3254,36.4475 93.2881,33.4102 93.2881,31.2407" stroke="#ffe500" stroke-width="2" /><polyline fill="none" points="111.9458,32.9763 108.4746,34.7119 105.8712,37.7492 107.6068,37.7492 113.2475,31.2407" stroke="#ff7a00" stroke-width="2" /><polyline fill="none" points="102.4,45.1254 97.1932,45.1254 96.7593,46.861 101.5322,51.2 105.0034,49.4644 106.739,46.4271 105.0034,44.6915 102.4,45.1254" stroke="#fe1200" stroke-width="2" /><polyline fill="none" points="100.6644,47.7288 100.6644,47.7288" stroke="#7f0000" stroke-width="2" /></svg>