<?xml version="1.0" encoding="utf-8" ?>
<svg baseProfile="tiny" height="128" version="1.2" viewBox="0,0,128,128" width="128" xmlns="http://www.w3.org/2000/svg" xmlns:ev="http://www.w3.org/2001/xml-events" xmlns:xlink="http://www.w3.org/1999/xlink"><defs /><polyline fill="none" points="75.3197,43.9728 63.5646,43.5374 46.1497,46.1497 32.6531,49.6327 20.0272,55.7279 11.3197,63.1293 8.7075,70.0952 10.0136,82.7211 15.6735,87.5102 29.6054,91.4286 54.4218,89.6871 67.9184,85.7687 80.5442,78.3673 87.5102,69.6599 90.5578,61.8231 90.9932,57.9048 89.2517,50.9388 82.7211,43.9728 78.8027,41.3605 74.8844,39.619 65.3061,39.1837" stroke="#00007f" stroke-width="2" /><polyline fill="none" points="101.0068,17.415 95.7823,19.5918 84.898,27.8639 76.6259,41.3605 74.449,48.3265 76.1905,56.5986 78.8027,59.2109 82.2857,60.517 93.1701,57.034 100.5714,47.8912 101.0068,37.0068 94.9116,27.8639 90.1224,23.9456" stroke="#0010ff" stroke-width="2" /><polyline fill="none" points="80.1088,34.3946 77.4966,15.6735 78.3673,9.1429 81.8503,8.7075 85.7687,15.6735 87.0748,23.5102 86.6395,31.3469 87.5102,30.4762" stroke="#00a4ff" stroke-width="2" /><polyline fill="none" points="97.9592,26.1224 97.0884,24.8163 101.0068,19.1565 107.5374,13.0612 113.6327,9.1429 112.7619,15.6735 106.2313,26.9932 98.8299,34.3946 100.1361,35.2653" stroke="#3fffb7" stroke-width="2" /><polyline fill="none" points="90.1224,41.3605 90.5578,42.2313" stroke="#b7ff3f" stroke-width="2" /><polyline fill="none" points="83.5918,46.585 93.6054,47.0204 87.0748,47.4558 97.9592,44.8435 90.9932,48.7619" stroke="#ffb900" stroke-width="2" /><polyline fill="none" points="86.6395,47.0204 86.2041,45.2789 98.8299,37.4422 88.381,44.4082" stroke="#ff3000" stroke-width="2" /><polyline fill="none" points="79.6735,83.5918 87.5102,116.6803 87.0748,119.2925" stroke="#7f0000" stroke-width="2" /></svg>