<?xml version="1.0" encoding="utf-8" ?>
<svg baseProfile="tiny" height="128" version="1.2" viewBox="0,0,128,128" width="128" xmlns="http://www.w3.org/2000/svg" xmlns:ev="http://www.w3.org/2001/xml-events" xmlns:xlink="http://www.w3.org/1999/xlink"><defs /><polyline fill="none" points="41.6542,27.3356 39.9186,17.7898 41.6542,11.2814 52.0678,17.7898 75.0644,16.4881 82.0068,19.5254 87.6475,12.5831 92.8542,8.678 95.4576,8.678 96.7593,14.3186 95.8915,43.8237 91.9864,53.3695 85.9119,60.3119 72.461,67.6881 58.5763,69.8576 54.6712,69.4237 33.4102,59.878 31.2407,55.9729 32.9763,40.3525 36.4475,32.1085 39.0508,29.5051" stroke="#00007f" stroke-width="2" /><polyline fill="none" points="45.5593,38.1831 30.3729,36.0136 16.922,36.4475 12.5831,38.6169 8.678,46.4271" stroke="#0000ff" stroke-width="2" /><polyline fill="none" points="46.4271,44.6915 30.3729,46.861 21.261,49.8983 13.0169,56.4068 10.8475,61.1797" stroke="#0080ff" stroke-width="2" /><polyline fill="none" points="45.5593,55.539 30.3729,67.6881 25.6,75.4983" stroke="#15ffe1" stroke-width="2" /><polyline fill="none" points="72.461,46.4271 94.1559,42.9559 114.9831,42.9559 118.8881,43.8237 119.322,45.5593" stroke="#7cff79" stroke-width="2" /><polyline fill="none" points="82.4407,56.4068 104.1356,55.9729 109.7763,59.4441" stroke="#e4ff12" stroke-width="2" /><polyline fill="none" points="71.5932,62.0475 74.6305,65.9525 94.5898,78.9695 93.722,79.4034" stroke="#ff9400" stroke-width="2" /><polyline fill="none" points="55.539,39.4847 57.7085,39.4847" stroke="#ff1d00" stroke-width="2" /><polyline fill="none" points="77.2339,36.8814 77.2339,36.8814" stroke="#7f0000" stroke-width="2" /></svg>