<?xml version="1.0" encoding="utf-8" ?>
<svg baseProfile="tiny" height="128" version="1.2" viewBox="0,0,128,128" width="128" xmlns="http://www.w3.org/2000/svg" xmlns:ev="http://www.w3.org/2001/xml-events" xmlns:xlink="http://www.w3.org/1999/xlink"><defs /><polyline fill="none" points="22.5627,35.5797 25.6,18.2237 28.6373,10.8475 32.1085,12.5831 39.0508,23.8644 42.9559,24.2983 55.1051,18.6576 64.6508,16.4881 71.5932,16.4881 79.4034,22.5627 82.8746,22.5627 86.7797,15.6203 94.1559,8.678 97.1932,10.8475 98.9288,15.1864 98.9288,36.8814 106.739,49.0305 107.1729,55.9729 105.8712,69.8576 98.061,82.8746 94.1559,86.7797 85.478,91.9864 75.4983,96.7593 63.7831,100.2305 47.2949,100.2305 35.1458,95.0237 22.1288,83.3085 17.7898,72.0271 17.7898,41.2203 19.0915,37.7492 21.261,36.8814" stroke="#00007f" stroke-width="2" /><polyline fill="none" points="33.4102,56.4068 29.5051,58.5763 8.678,60.3119" stroke="#0028ff" stroke-width="2" /><polyline fill="none" points="40.3525,71.5932 16.4881,88.9492" stroke="#00d4ff" stroke-width="2" /><polyline fill="none" points="37.7492,86.3458 36.0136,90.6847 22.1288,108.0407" stroke="#7cff79" stroke-width="2" /><polyline fill="none" points="88.5153,43.8237 98.061,44.6915 114.5492,49.4644" stroke="#ffe500" stroke-width="2" /><polyline fill="none" points="81.139,59.4441 85.478,62.4814 117.1525,75.0644" stroke="#ff4600" stroke-width="2" /><polyline fill="none" points="87.6475,76.3661 94.5898,85.478 119.322,111.5119" stroke="#7f0000" stroke-width="2" /></svg>