<?xml version="1.0" encoding="utf-8" ?>
<svg baseProfile="tiny" height="128" version="1.2" viewBox="0,0,128,128" width="128" xmlns="http://www.w3.org/2000/svg" xmlns:ev="http://www.w3.org/2001/xml-events" xmlns:xlink="http://www.w3.org/1999/xlink"><defs /><polyline fill="none" points="66.8203,35.1458 60.7458,32.1085 55.1051,32.1085 49.4644,33.4102 43.8237,37.7492 38.1831,44.2576 35.5797,50.3322 33.8441,62.9153 36.4475,69.8576 42.0881,76.3661 51.2,82.0068 61.6136,84.6102 72.8949,84.6102 83.3085,83.7424 91.1186,78.5356 96.7593,71.1593 101.0983,63.3492 102.8339,54.6712 103.2678,45.9932 101.0983,39.0508 97.1932,33.8441 91.5525,29.939 78.5356,27.7695 68.9898,27.7695 58.1424,31.6746 50.3322,36.0136" stroke="#00007f" stroke-width="2" /><polyline fill="none" points="52.5017,38.1831 50.3322,35.5797 50.3322,31.2407 43.8237,9.9797 60.7458,23.8644 69.4237,35.5797" stroke="#0000fe" stroke-width="2" /><polyline fill="none" points="77.6678,27.3356 81.139,17.7898 86.7797,11.2814 91.1186,8.678 92.4203,11.2814 93.722,35.5797" stroke="#0060ff" stroke-width="2" /><polyline fill="none" points="65.0847,58.1424 68.122,58.5763 69.8576,61.6136 66.3864,63.3492 63.7831,62.9153 64.6508,60.3119 68.122,60.3119 68.9898,62.4814 65.0847,62.9153" stroke="#00d4ff" stroke-width="2" /><polyline fill="none" points="54.6712,54.2373 63.3492,48.5966 71.5932,48.5966 76.8,51.2" stroke="#4cffaa" stroke-width="2" /><polyline fill="none" points="64.6508,58.5763 10.4136,56.8407" stroke="#aaff4c" stroke-width="2" /><polyline fill="none" points="56.8407,63.3492 40.3525,64.6508 20.3932,69.4237 8.678,73.7627" stroke="#ffe500" stroke-width="2" /><polyline fill="none" points="64.6508,64.6508 119.322,69.4237" stroke="#ff7a00" stroke-width="2" /><polyline fill="none" points="60.7458,60.7458 64.6508,62.9153 79.4034,62.9153 97.1932,59.4441 114.9831,58.5763" stroke="#fe1200" stroke-width="2" /><polyline fill="none" points="56.4068,65.5186 65.9525,76.3661 78.9695,76.8" stroke="#7f0000" stroke-width="2" /></svg>