<?xml version="1.0" encoding="utf-8" ?>
<svg baseProfile="tiny" height="128" version="1.2" viewBox="0,0,128,128" width="128" xmlns="http://www.w3.org/2000/svg" xmlns:ev="http://www.w3.org/2001/xml-events" xmlns:xlink="http://www.w3.org/1999/xlink"><defs /><polyline fill="none" points="62.0475,113.2475 47.7288,113.2475 32.1085,106.739 15.6203,95.0237 10.4136,86.7797 8.678,77.6678 8.678,67.6881 12.5831,59.4441 23.4305,48.5966 39.4847,39.0508 53.8034,34.278 63.7831,34.278 70.2915,36.0136 76.3661,40.7864 81.5729,47.2949 86.3458,54.6712 89.3831,63.3492 91.5525,78.9695 91.5525,93.722 87.2136,105.4373 79.8373,114.5492 74.1966,118.4542 64.2169,119.322 57.7085,115.4169" stroke="#00007f" stroke-width="2" /><polyline fill="none" points="24.2983,52.0678 17.7898,31.6746 16.0542,13.8847 41.6542,40.3525" stroke="#0080ff" stroke-width="2" /><polyline fill="none" points="66.8203,37.7492 72.0271,28.2034 89.8169,8.678 89.8169,11.7153 85.9119,29.5051 79.4034,43.8237" stroke="#7cff79" stroke-width="2" /><polyline fill="none" points="25.1661,40.7864 21.261,25.1661 29.5051,34.278 37.7492,49.4644" stroke="#ff9400" stroke-width="2" /><polyline fill="none" points="72.8949,35.5797 78.5356,34.7119 86.3458,23.8644" stroke="#7f0000" stroke-width="2" /></svg>