<?xml version="1.0" encoding="utf-8" ?>
<svg baseProfile="tiny" height="128" version="1.2" viewBox="0,0,128,128" width="128" xmlns="http://www.w3.org/2000/svg" xmlns:ev="http://www.w3.org/2001/xml-events" xmlns:xlink="http://www.w3.org/1999/xlink"><defs /><polyline fill="none" points="32.9763,30.3729 26.9017,12.1492 38.1831,19.5254 42.0881,24.7322 49.0305,22.1288 66.3864,21.6949 74.1966,23.4305 77.6678,26.4678 82.4407,14.7525 88.9492,8.678 90.6847,21.261 88.9492,29.5051 98.061,42.9559 99.3627,54.2373 95.4576,59.878 88.5153,64.6508 72.461,70.2915 60.7458,72.0271 46.4271,68.122 36.0136,61.1797 29.5051,49.8983 28.6373,36.8814 30.3729,31.6746 32.9763,28.2034" stroke="#00007f" stroke-width="2" /><polyline fill="none" points="38.6169,45.1254 8.678,49.8983" stroke="#0028ff" stroke-width="2" /><polyline fill="none" points="48.1627,56.4068 19.9593,62.4814" stroke="#00d4ff" stroke-width="2" /><polyline fill="none" points="43.8237,62.4814 24.7322,68.9898" stroke="#7cff79" stroke-width="2" /><polyline fill="none" points="87.2136,40.3525 115.4169,40.3525" stroke="#ffe500" stroke-width="2" /><polyline fill="none" points="89.8169,50.7661 119.322,52.9356" stroke="#ff4600" stroke-width="2" /><polyline fill="none" points="91.5525,57.7085 116.7186,63.7831" stroke="#7f0000" stroke-width="2" /></svg>