<?xml version="1.0" encoding="utf-8" ?>
<svg baseProfile="tiny" height="128" version="1.2" viewBox="0,0,128,128" width="128" xmlns="http://www.w3.org/2000/svg" xmlns:ev="http://www.w3.org/2001/xml-events" xmlns:xlink="http://www.w3.org/1999/xlink"><defs /><polyline fill="none" points="60.3119,31.2407 57.2746,26.4678 49.0305,20.8271 42.0881,19.9593 26.0339,38.6169 23.8644,45.1254 24.7322,49.0305 35.1458,61.1797 43.8237,66.3864 49.4644,66.8203 58.1424,65.0847 66.3864,61.1797 69.8576,56.4068 72.461,44.6915 71.1593,36.8814 53.8034,28.2034" stroke="#00007f" stroke-width="2" /><polyline fill="none" points="37.3153,23.4305 36.8814,19.5254 38.1831,15.6203 41.6542,9.5458 43.8237,8.678 50.7661,26.0339" stroke="#0000d1" stroke-width="2" /><polyline fill="none" points="59.0102,23.4305 71.5932,13.4508 62.9153,36.0136" stroke="#0010ff" stroke-width="2" /><polyline fill="none" points="46.4271,34.7119 45.1254,35.5797 45.5593,34.278 43.8237,34.278 44.6915,36.8814 47.7288,35.1458" stroke="#0058ff" stroke-width="2" /><polyline fill="none" points="52.5017,36.8814 55.539,40.7864 56.4068,38.1831 55.1051,37.7492 56.4068,39.0508 53.8034,39.4847" stroke="#00a4ff" stroke-width="2" /><polyline fill="none" points="43.8237,46.4271 43.8237,55.539 39.9186,55.9729 37.3153,53.3695" stroke="#05ecf1" stroke-width="2" /><polyline fill="none" points="42.0881,48.5966 45.9932,51.6339 50.3322,59.878 58.1424,55.1051 58.5763,53.8034" stroke="#3fffb7" stroke-width="2" /><polyline fill="none" points="36.4475,57.7085 30.3729,80.7051 29.939,91.5525 33.8441,89.8169 38.6169,79.4034 41.6542,76.3661 42.522,95.0237 44.6915,97.6271 46.4271,97.6271 48.1627,95.8915 54.2373,82.4407 81.139,81.139 117.1525,84.6102" stroke="#7cff79" stroke-width="2" /><polyline fill="none" points="63.3492,48.1627 63.7831,46.861 75.9322,41.6542 84.1763,39.0508" stroke="#b7ff3f" stroke-width="2" /><polyline fill="none" points="67.6881,52.9356 68.5559,56.8407 75.9322,61.6136" stroke="#f1fc05" stroke-width="2" /><polyline fill="none" points="57.7085,57.7085 62.4814,63.3492 71.1593,69.4237" stroke="#ffb900" stroke-width="2" /><polyline fill="none" points="35.5797,45.9932 8.678,38.1831" stroke="#ff7300" stroke-width="2" /><polyline fill="none" points="30.3729,49.4644 10.4136,50.3322" stroke="#ff3000" stroke-width="2" /><polyline fill="none" points="38.6169,55.539 29.0712,63.3492 18.6576,69.4237" stroke="#d10000" stroke-width="2" /><polyline fill="none" points="115.4169,84.6102 118.8881,91.1186 119.322,95.0237" stroke="#7f0000" stroke-width="2" /></svg>