<?xml version="1.0" encoding="utf-8" ?>
<svg baseProfile="tiny" height="128" version="1.2" viewBox="0,0,128,128" width="128" xmlns="http://www.w3.org/2000/svg" xmlns:ev="http://www.w3.org/2001/xml-events" xmlns:xlink="http://www.w3.org/1999/xlink"><defs /><polyline fill="none" points="36.5714,42.6667 32.2177,44.8435 28.7347,49.1973 25.6871,57.034 24.381,64.8707 26.1224,85.3333 32.6531,102.3129 43.9728,114.068 54.8571,118.4218 71.8367,119.2925 78.8027,116.6803 94.9116,106.6667 100.1361,101.4422 106.2313,90.9932 110.585,76.1905 110.585,64.4354 99.7007,49.6327 88.381,40.4898 71.8367,31.7823 59.6463,28.7347 49.6327,30.4762 35.7007,40.0544 27.8639,51.3741 23.9456,62.2585 10.8844,26.9932 8.7075,10.8844 11.7551,8.7075 14.8027,9.1429 23.0748,13.932 46.1497,38.7483" stroke="#00007f" stroke-width="2" /><polyline fill="none" points="74.0136,32.6531 87.0748,15.6735 91.8639,10.8844 94.4762,11.3197 94.0408,38.7483 95.7823,42.2313" stroke="#0000ff" stroke-width="2" /><polyline fill="none" points="57.034,84.0272 56.1633,87.0748 58.7755,89.2517 65.3061,90.9932 70.0952,90.9932 72.2721,89.2517 72.2721,86.6395 70.966,84.0272 68.3537,83.1565 63.5646,84.4626" stroke="#0080ff" stroke-width="2" /><polyline fill="none" points="61.8231,100.1361 39.619,93.1701 23.9456,91.8639" stroke="#15ffe1" stroke-width="2" /><polyline fill="none" points="60.9524,99.2653 57.034,102.3129 30.9116,108.8435" stroke="#7cff79" stroke-width="2" /><polyline fill="none" points="67.0476,98.3946 66.1769,101.4422 71.8367,100.1361 113.1973,80.1088" stroke="#e4ff12" stroke-width="2" /><polyline fill="none" points="77.4966,99.2653 79.2381,102.7483 82.2857,104.4898 108.4082,113.6327" stroke="#ff9400" stroke-width="2" /><polyline fill="none" points="48.7619,57.034 47.0204,59.2109 47.0204,64.0 49.1973,65.3061 51.3741,62.6939 47.4558,62.2585" stroke="#ff1d00" stroke-width="2" /><polyline fill="none" points="67.483,61.3878 72.7075,63.5646 74.8844,60.517 71.8367,59.2109 67.483,61.3878" stroke="#7f0000" stroke-width="2" /></svg>