<?xml version="1.0" encoding="utf-8" ?>
<svg baseProfile="tiny" height="128" version="1.2" viewBox="0,0,128,128" width="128" xmlns="http://www.w3.org/2000/svg" xmlns:ev="http://www.w3.org/2001/xml-events" xmlns:xlink="http://www.w3.org/1999/xlink"><defs /><polyline fill="none" points="16.1088,52.2449 10.8844,56.1633 9.1429,61.3878 8.7075,76.6259 16.9796,94.0408 20.898,99.2653 27.4286,106.2313 37.4422,112.3265 45.2789,114.9388 68.3537,114.9388 77.932,113.1973 92.2993,103.619 99.7007,88.8163 101.4422,78.8027 101.4422,66.6122 99.7007,59.2109 94.0408,47.8912 86.2041,40.0544 78.8027,35.7007 61.8231,35.7007 53.551,37.8776 37.0068,44.4082 14.8027,56.5986" stroke="#00007f" stroke-width="2" /><polyline fill="none" points="13.0612,59.2109 10.449,20.0272 19.5918,33.5238 32.2177,43.5374" stroke="#0080ff" stroke-width="2" /><polyline fill="none" points="88.8163,43.9728 99.2653,22.2041 119.2925,8.7075 101.0068,59.2109" stroke="#7cff79" stroke-width="2" /><polyline fill="none" points="48.7619,53.551 46.585,52.2449 38.3129,52.2449 32.6531,56.5986 30.0408,60.517 28.2993,67.9184 28.7347,76.1905 30.9116,79.6735 36.5714,81.8503 48.3265,81.415 51.8095,76.1905 53.551,64.4354 47.8912,53.1156" stroke="#ff9400" stroke-width="2" /><polyline fill="none" points="69.6599,60.0816 66.1769,62.2585 61.8231,68.3537 60.517,77.0612" stroke="#7f0000" stroke-width="2" /></svg>