<?xml version="1.0" encoding="utf-8" ?>
<svg baseProfile="tiny" height="128" version="1.2" viewBox="0,0,128,128" width="128" xmlns="http://www.w3.org/2000/svg" xmlns:ev="http://www.w3.org/2001/xml-events" xmlns:xlink="http://www.w3.org/1999/xlink"><defs /><polyline fill="none" points="78.1017,45.5593 68.5559,37.7492 62.0475,36.4475 49.0305,36.4475 38.6169,41.2203 29.939,49.8983 24.2983,59.878 21.261,75.0644 21.261,85.478 28.2034,95.8915 48.1627,107.1729 53.8034,109.3424 65.0847,110.2102 74.1966,105.8712 91.5525,87.6475 93.2881,84.1763 94.5898,74.6305 94.1559,65.9525 82.4407,48.5966 79.8373,37.3153 75.4983,36.4475" stroke="#00007f" stroke-width="2" /><polyline fill="none" points="66.8203,37.3153 84.6102,21.6949 95.4576,15.6203 98.061,15.1864 97.6271,21.6949 90.2508,49.8983 89.8169,57.2746 91.9864,58.1424" stroke="#0000c8" stroke-width="2" /><polyline fill="none" points="54.6712,39.0508 49.4644,38.1831 46.4271,36.0136 30.3729,18.2237 25.1661,8.678 27.3356,53.8034 29.939,56.8407" stroke="#0000ff" stroke-width="2" /><polyline fill="none" points="38.1831,46.4271 36.4475,43.8237 37.7492,28.6373 40.7864,29.5051 51.2,41.2203" stroke="#0040ff" stroke-width="2" /><polyline fill="none" points="86.7797,38.6169 84.6102,38.1831 85.0441,32.5424 88.5153,28.2034 89.3831,32.9763 87.6475,49.8983" stroke="#0080ff" stroke-width="2" /><polyline fill="none" points="65.5186,84.1763 62.4814,82.0068 59.878,82.0068" stroke="#00c0ff" stroke-width="2" /><polyline fill="none" points="49.4644,66.8203 44.6915,57.2746 44.6915,51.6339 46.861,49.0305 49.0305,47.7288 53.8034,48.5966 60.3119,54.6712 61.6136,67.2542 58.5763,69.8576 53.3695,69.8576 50.3322,68.122 47.2949,64.6508 46.861,60.3119" stroke="#15ffe1" stroke-width="2" /><polyline fill="none" points="79.8373,65.9525 75.4983,64.6508 72.8949,61.1797 72.461,51.2 74.6305,46.861 78.9695,46.861 82.0068,48.5966 84.1763,52.0678 85.0441,59.0102 80.7051,65.9525 74.1966,67.2542" stroke="#49ffad" stroke-width="2" /><polyline fill="none" points="66.8203,84.6102 65.0847,83.7424 65.5186,82.0068 63.7831,88.0814" stroke="#7cff79" stroke-width="2" /><polyline fill="none" points="65.0847,85.9119 65.5186,90.6847 61.1797,92.8542 49.8983,93.722 38.6169,89.8169" stroke="#b0ff46" stroke-width="2" /><polyline fill="none" points="69.8576,84.1763 68.9898,86.7797 70.7254,89.3831 75.4983,95.0237 78.5356,96.3254 87.6475,96.7593 99.3627,89.3831" stroke="#e4ff12" stroke-width="2" /><polyline fill="none" points="57.7085,85.0441 52.0678,81.139 30.3729,56.8407" stroke="#ffcf00" stroke-width="2" /><polyline fill="none" points="56.8407,78.9695 21.261,78.9695" stroke="#ff9400" stroke-width="2" /><polyline fill="none" points="50.7661,83.7424 31.2407,85.478 17.3559,88.5153 8.678,95.0237" stroke="#ff5900" stroke-width="2" /><polyline fill="none" points="81.139,80.7051 94.5898,68.9898 106.739,61.1797" stroke="#ff1d00" stroke-width="2" /><polyline fill="none" points="89.3831,83.7424 110.2102,82.8746" stroke="#c30000" stroke-width="2" /><polyline fill="none" points="82.0068,92.4203 119.322,104.5695" stroke="#7f0000" stroke-width="2" /></svg>