<?xml version="1.0" encoding="utf-8" ?>
<svg baseProfile="tiny" height="128" version="1.2" viewBox="0,0,128,128" width="128" xmlns="http://www.w3.org/2000/svg" xmlns:ev="http://www.w3.org/2001/xml-events" xmlns:xlink="http://www.w3.org/1999/xlink"><defs /><polyline fill="none" points="35.1458,44.2576 35.1458,44.2576" stroke="#00007f" stroke-width="2" /><polyline fill="none" points="53.3695,32.5424 46.861,32.5424 35.5797,35.1458 21.6949,48.1627 12.5831,65.9525 9.9797,82.4407 11.2814,93.2881 14.7525,103.2678 19.5254,110.2102 26.0339,115.4169 36.0136,119.322 50.3322,118.0203 63.7831,111.078 71.1593,104.5695 82.0068,88.9492 83.3085,70.2915 78.5356,54.6712 75.4983,49.0305 64.6508,34.278 56.8407,28.6373" stroke="#0010ff" stroke-width="2" /><polyline fill="none" points="12.5831,71.1593 9.9797,62.0475 8.678,49.0305 8.678,33.8441 11.2814,23.8644 13.8847,21.6949 20.3932,24.7322 28.2034,32.9763 30.8068,39.9186" stroke="#00a4ff" stroke-width="2" /><polyline fill="none" points="52.0678,32.9763 81.5729,11.7153 88.0814,8.678 91.1186,9.5458 91.5525,19.5254 90.2508,28.2034 81.5729,49.8983" stroke="#3fffb7" stroke-width="2" /><polyline fill="none" points="36.0136,75.9322 58.1424,74.1966 59.0102,76.8 55.9729,82.8746 46.861,92.4203 43.8237,90.2508 42.9559,79.4034" stroke="#b7ff3f" stroke-width="2" /><polyline fill="none" points="65.9525,74.6305 72.461,73.7627 96.7593,64.6508 107.1729,62.4814" stroke="#ffb900" stroke-width="2" /><polyline fill="none" points="66.3864,87.6475 81.139,84.6102 93.2881,79.8373 112.8136,76.8" stroke="#ff3000" stroke-width="2" /><polyline fill="none" points="60.7458,98.061 93.2881,100.6644 106.3051,103.7017" stroke="#7f0000" stroke-width="2" /></svg>