<?xml version="1.0" encoding="utf-8" ?>
<svg baseProfile="tiny" height="128" version="1.2" viewBox="0,0,128,128" width="128" xmlns="http://www.w3.org/2000/svg" xmlns:ev="http://www.w3.org/2001/xml-events" xmlns:xlink="http://www.w3.org/1999/xlink"><defs /><polyline fill="none" points="57.4694,28.7347 47.8912,30.0408 37.0068,40.0544 32.6531,48.7619 31.3469,55.2925 30.9116,62.6939 32.6531,67.9184 35.2653,73.1429 41.7959,77.932 48.3265,79.2381 62.6939,79.2381 82.2857,74.449 90.1224,67.0476 93.1701,57.9048 94.4762,45.2789 94.0408,42.6667 88.381,34.8299 82.2857,30.0408 75.3197,28.2993 57.4694,28.2993" stroke="#00007f" stroke-width="2" /><polyline fill="none" points="80.1088,30.9116 84.4626,30.4762 117.9864,8.7075 119.2925,14.3673 111.0204,33.9592 101.8776,47.0204 94.0408,53.551" stroke="#0000fe" stroke-width="2" /><polyline fill="none" points="53.9864,26.9932 42.6667,23.9456 8.7075,17.415 10.8844,22.6395 30.4762,38.7483 33.5238,43.102" stroke="#0060ff" stroke-width="2" /><polyline fill="none" points="34.8299,34.3946 32.6531,34.3946 26.9932,30.4762 29.6054,29.1701 36.5714,29.6054" stroke="#00d4ff" stroke-width="2" /><polyline fill="none" points="90.9932,30.9116 106.2313,29.6054 98.8299,40.0544 92.2993,43.9728" stroke="#4cffaa" stroke-width="2" /><polyline fill="none" points="91.4286,57.4694 105.7959,57.4694" stroke="#aaff4c" stroke-width="2" /><polyline fill="none" points="87.9456,62.6939 101.4422,61.8231" stroke="#ffe500" stroke-width="2" /><polyline fill="none" points="87.0748,65.7415 88.381,67.9184 91.4286,68.3537" stroke="#ff7a00" stroke-width="2" /><polyline fill="none" points="40.9252,53.551 37.4422,55.7279 28.2993,57.4694" stroke="#fe1200" stroke-width="2" /><polyline fill="none" points="33.0884,62.6939 29.1701,66.1769 24.8163,67.9184" stroke="#7f0000" stroke-width="2" /></svg>