<?xml version="1.0" encoding="utf-8" ?>
<svg baseProfile="tiny" height="128" version="1.2" viewBox="0,0,128,128" width="128" xmlns="http://www.w3.org/2000/svg" xmlns:ev="http://www.w3.org/2001/xml-events" xmlns:xlink="http://www.w3.org/1999/xlink"><defs /><polyline fill="none" points="96.3254,29.939 96.3254,29.5051" stroke="#00007f" stroke-width="2" /><polyline fill="none" points="91.9864,29.0712 82.8746,24.2983 73.3288,27.7695 66.8203,32.9763 59.878,48.1627 63.3492,52.0678 77.2339,57.7085 87.2136,58.5763 95.8915,53.8034 100.2305,45.5593 101.0983,36.4475 99.7966,29.0712 94.5898,26.0339 89.3831,25.6" stroke="#0000d1" stroke-width="2" /><polyline fill="none" points="95.8915,25.1661 98.4949,20.3932 115.8508,9.5458 114.9831,19.5254 108.9085,35.1458" stroke="#0010ff" stroke-width="2" /><polyline fill="none" points="82.0068,27.7695 75.4983,22.1288 72.0271,15.1864 66.8203,10.8475 64.2169,12.5831 62.0475,19.9593 61.6136,27.3356 63.3492,29.5051" stroke="#0058ff" stroke-width="2" /><polyline fill="none" points="70.2915,57.7085 52.9356,63.3492 44.2576,68.9898 34.278,82.4407 31.2407,96.7593 32.1085,100.6644 39.4847,104.1356 43.3898,104.1356 65.9525,98.061 74.1966,93.2881 80.2712,86.7797 84.1763,80.7051 87.6475,65.5186 85.9119,56.8407 70.2915,59.4441 54.6712,68.5559" stroke="#00a4ff" stroke-width="2" /><polyline fill="none" points="39.9186,98.9288 32.9763,100.6644 21.6949,97.1932 9.9797,79.4034 8.678,72.461 15.1864,44.6915 18.2237,41.2203 25.1661,39.4847 32.5424,39.4847 34.7119,41.2203 31.2407,52.9356" stroke="#05ecf1" stroke-width="2" /><polyline fill="none" points="85.9119,81.5729 90.2508,105.4373" stroke="#3fffb7" stroke-width="2" /><polyline fill="none" points="82.4407,88.5153 79.4034,105.8712 81.5729,109.3424" stroke="#7cff79" stroke-width="2" /><polyline fill="none" points="64.6508,102.8339 62.0475,119.322" stroke="#b7ff3f" stroke-width="2" /><polyline fill="none" points="45.9932,103.7017 49.0305,115.4169" stroke="#f1fc05" stroke-width="2" /><polyline fill="none" points="82.0068,37.7492 82.0068,37.3153" stroke="#ffb900" stroke-width="2" /><polyline fill="none" points="88.0814,42.522 88.9492,42.0881" stroke="#ff7300" stroke-width="2" /><polyline fill="none" points="86.3458,44.2576 85.478,44.2576" stroke="#ff3000" stroke-width="2" /><polyline fill="none" points="71.5932,42.0881 78.9695,49.8983 86.7797,52.5017 91.9864,52.5017 99.7966,49.4644" stroke="#d10000" stroke-width="2" /><polyline fill="none" points="60.3119,8.678 62.9153,19.0915 63.3492,41.6542" stroke="#7f0000" stroke-width="2" /></svg>