<?xml version="1.0" encoding="utf-8" ?>
<svg baseProfile="tiny" height="128" version="1.2" viewBox="0,0,128,128" width="128" xmlns="http://www.w3.org/2000/svg" xmlns:ev="http://www.w3.org/2001/xml-events" xmlns:xlink="http://www.w3.org/1999/xlink"><defs /><polyline fill="none" points="9.1429,89.6871 8.7075,56.1633 13.4966,46.1497 21.7687,39.1837 29.1701,36.5714 38.7483,36.5714 42.6667,37.0068 50.5034,42.2313 54.4218,47.4558 56.5986,53.551 56.5986,64.4354 55.2925,68.7891 42.6667,90.9932 38.3129,96.2177 32.6531,99.7007 23.5102,99.7007 10.8844,85.3333" stroke="#00007f" stroke-width="2" /><polyline fill="none" points="11.3197,52.2449 14.3673,49.1973 15.6735,8.7075 17.8503,9.1429 23.9456,17.415 30.0408,32.2177" stroke="#00d4ff" stroke-width="2" /><polyline fill="none" points="47.0204,44.8435 50.068,32.2177 51.8095,11.7551 60.0816,32.2177 60.9524,41.7959 59.6463,41.7959" stroke="#ffe500" stroke-width="2" /><polyline fill="none" points="47.0204,70.5306 50.5034,72.2721 76.1905,71.4014 86.6395,72.7075 101.0068,72.7075 117.1156,70.5306 119.2925,71.4014 119.2925,84.4626 116.6803,89.6871 114.068,92.7347 104.4898,97.5238 89.2517,98.8299 55.7279,97.0884 31.7823,91.4286" stroke="#7f0000" stroke-width="2" /></svg>