<?xml version="1.0" encoding="utf-8" ?>
<svg baseProfile="tiny" height="128" version="1.2" viewBox="0,0,128,128" width="128" xmlns="http://www.w3.org/2000/svg" xmlns:ev="http://www.w3.org/2001/xml-events" xmlns:xlink="http://www.w3.org/1999/xlink"><defs /><polyline fill="none" points="50.9388,34.3946 46.1497,34.3946 41.7959,38.7483 36.1361,45.2789 32.2177,55.2925 32.2177,66.1769 33.9592,72.2721 46.585,91.4286 60.517,100.5714 74.449,101.0068 94.4762,90.5578 98.3946,84.898 100.1361,78.8027 99.2653,71.4014 91.4286,56.5986 70.5306,33.0884 60.0816,26.1224 51.8095,26.1224 46.585,29.1701" stroke="#00007f" stroke-width="2" /><polyline fill="none" points="39.619,37.4422 39.619,9.5782 45.2789,16.5442 60.9524,29.6054 63.5646,33.5238" stroke="#0000fe" stroke-width="2" /><polyline fill="none" points="69.2245,31.3469 70.0952,25.6871 78.3673,8.7075 82.2857,30.0408 82.2857,41.7959" stroke="#0060ff" stroke-width="2" /><polyline fill="none" points="60.517,64.4354 62.6939,63.5646 63.1293,61.3878 60.9524,60.9524 60.0816,65.3061" stroke="#00d4ff" stroke-width="2" /><polyline fill="none" points="46.585,47.0204 47.8912,51.3741 52.2449,53.551 54.8571,51.8095 57.034,47.4558 52.2449,45.2789 47.8912,46.1497" stroke="#4cffaa" stroke-width="2" /><polyline fill="none" points="72.2721,51.3741 74.0136,53.551 78.3673,53.1156 77.4966,50.9388 74.449,50.5034" stroke="#aaff4c" stroke-width="2" /><polyline fill="none" points="83.1565,60.9524 87.9456,60.9524 79.2381,63.5646 76.1905,65.3061 79.6735,65.7415 111.0204,61.8231 105.3605,61.3878 98.3946,63.1293 100.5714,64.0 113.1973,63.1293 97.9592,70.0952 111.4558,66.1769 92.2993,68.3537" stroke="#ffe500" stroke-width="2" /><polyline fill="none" points="43.102,67.483 31.7823,67.483 37.4422,70.0952 72.7075,73.1429 57.9048,74.8844 30.9116,84.898 33.0884,86.2041 40.4898,86.2041 53.551,84.0272 55.7279,82.7211 52.2449,80.5442 34.3946,81.415" stroke="#ff7a00" stroke-width="2" /><polyline fill="none" points="62.2585,84.4626 71.4014,83.5918 80.9796,78.8027" stroke="#fe1200" stroke-width="2" /><polyline fill="none" points="45.7143,93.1701 29.6054,93.1701 19.5918,98.8299 11.3197,107.5374 8.7075,112.7619 9.1429,117.9864 13.4966,119.2925 23.9456,118.8571 47.4558,110.585 65.3061,95.3469" stroke="#7f0000" stroke-width="2" /></svg>