<?xml version="1.0" encoding="utf-8" ?>
<svg baseProfile="tiny" height="128" version="1.2" viewBox="0,0,128,128" width="128" xmlns="http://www.w3.org/2000/svg" xmlns:ev="http://www.w3.org/2001/xml-events" xmlns:xlink="http://www.w3.org/1999/xlink"><defs /><polyline fill="none" points="38.1831,35.1458 31.6746,43.8237 8.678,83.3085 8.678,92.4203 10.8475,98.061 16.4881,106.739 24.2983,113.6814 32.9763,118.0203 59.4441,119.322 73.7627,112.8136 85.9119,103.2678 91.5525,95.8915 95.0237,90.2508 98.4949,77.2339 98.9288,62.9153 95.4576,56.8407 87.2136,48.5966 81.139,44.6915 68.5559,40.3525 57.2746,38.1831 47.2949,38.1831" stroke="#00007f" stroke-width="2" /><polyline fill="none" points="17.7898,65.9525 16.4881,51.2 10.8475,31.2407 14.3186,29.5051 18.2237,29.939 44.6915,41.6542" stroke="#004cff" stroke-width="2" /><polyline fill="none" points="76.8,48.5966 77.6678,45.1254 105.4373,14.3186 112.3797,8.678 111.5119,20.8271 99.3627,67.6881" stroke="#29ffcd" stroke-width="2" /><polyline fill="none" points="23.4305,96.3254 32.5424,101.9661 39.4847,102.4 43.3898,101.5322 47.2949,97.6271 55.1051,84.6102 65.0847,99.7966 71.5932,102.4 78.5356,102.4 95.0237,87.2136" stroke="#cdff29" stroke-width="2" /><polyline fill="none" points="42.9559,61.6136 45.9932,63.7831 46.4271,67.2542 47.7288,64.6508" stroke="#ff6700" stroke-width="2" /><polyline fill="none" points="80.2712,58.1424 76.8,62.0475 76.8,65.0847 78.9695,64.6508" stroke="#7f0000" stroke-width="2" /></svg>