<?xml version="1.0" encoding="utf-8" ?>
<svg baseProfile="tiny" height="128" version="1.2" viewBox="0,0,128,128" width="128" xmlns="http://www.w3.org/2000/svg" xmlns:ev="http://www.w3.org/2001/xml-events" xmlns:xlink="http://www.w3.org/1999/xlink"><defs /><polyline fill="none" points="73.7627,18.2237 63.7831,18.2237 57.2746,19.9593 50.3322,23.8644 46.861,27.7695 40.3525,39.9186 39.0508,45.9932 39.4847,55.539 45.1254,62.4814 49.0305,65.5186 55.1051,67.2542 69.4237,68.122 84.1763,62.0475 93.2881,53.3695 94.1559,40.7864 88.0814,32.5424 75.9322,20.3932 76.8,18.2237 91.1186,8.678 91.1186,32.1085" stroke="#00007f" stroke-width="2" /><polyline fill="none" points="55.9729,22.5627 50.7661,21.6949 36.0136,11.7153 36.4475,27.3356 37.3153,31.2407 39.9186,33.8441 43.8237,34.278" stroke="#004cff" stroke-width="2" /><polyline fill="none" points="62.4814,44.2576 49.4644,43.8237 41.2203,45.9932 15.1864,58.1424" stroke="#29ffcd" stroke-width="2" /><polyline fill="none" points="66.3864,42.0881 70.7254,40.3525 108.9085,39.9186" stroke="#cdff29" stroke-width="2" /><polyline fill="none" points="62.0475,52.5017 55.9729,52.9356 49.4644,55.9729 28.2034,70.2915 8.678,86.3458" stroke="#ff6700" stroke-width="2" /><polyline fill="none" points="66.3864,42.9559 86.3458,59.878 96.3254,63.3492 119.322,64.6508" stroke="#7f0000" stroke-width="2" /></svg>