<?xml version="1.0" encoding="utf-8" ?>
<svg baseProfile="tiny" height="128" version="1.2" viewBox="0,0,128,128" width="128" xmlns="http://www.w3.org/2000/svg" xmlns:ev="http://www.w3.org/2001/xml-events" xmlns:xlink="http://www.w3.org/1999/xlink"><defs /><polyline fill="none" points="50.7661,18.2237 42.9559,16.4881 32.5424,19.5254 22.9966,31.2407 15.1864,46.4271 12.1492,55.9729 9.1119,69.4237 8.678,80.7051 18.2237,92.4203 65.5186,119.322 101.0983,89.8169 103.7017,82.8746 105.8712,72.0271 105.0034,51.6339 99.3627,39.4847 93.722,32.9763 80.7051,26.9017 65.9525,24.2983 46.4271,25.1661 39.9186,27.3356" stroke="#00007f" stroke-width="2" /><polyline fill="none" points="71.5932,21.261 76.8,13.0169 84.1763,8.678 88.0814,26.9017" stroke="#0000de" stroke-width="2" /><polyline fill="none" points="17.7898,34.7119 11.2814,12.5831 21.261,17.3559 30.8068,19.5254" stroke="#0028ff" stroke-width="2" /><polyline fill="none" points="32.9763,39.9186 33.8441,50.3322 36.4475,53.8034" stroke="#0080ff" stroke-width="2" /><polyline fill="none" points="65.0847,41.6542 72.461,58.5763" stroke="#00d4ff" stroke-width="2" /><polyline fill="none" points="58.1424,66.3864 55.9729,67.6881 52.9356,73.7627 52.0678,80.7051 53.3695,82.4407 58.1424,84.1763 62.9153,81.139 63.3492,76.8 61.1797,71.1593 57.2746,69.8576 53.8034,72.461" stroke="#36ffc0" stroke-width="2" /><polyline fill="none" points="58.5763,72.461 65.9525,68.122 82.8746,61.1797" stroke="#7cff79" stroke-width="2" /><polyline fill="none" points="61.1797,74.6305 77.6678,81.5729 99.3627,88.0814" stroke="#c0ff36" stroke-width="2" /><polyline fill="none" points="51.2,73.3288 29.5051,69.8576" stroke="#ffe500" stroke-width="2" /><polyline fill="none" points="48.1627,75.4983 36.4475,83.7424 33.4102,87.6475" stroke="#ff9400" stroke-width="2" /><polyline fill="none" points="57.2746,85.9119 60.3119,100.2305 59.0102,101.9661 55.1051,103.7017 48.1627,104.1356 41.2203,101.5322" stroke="#ff4600" stroke-width="2" /><polyline fill="none" points="60.3119,82.8746 61.1797,86.7797 67.2542,94.5898 79.8373,95.8915 84.6102,92.8542" stroke="#de0000" stroke-width="2" /><polyline fill="none" points="62.9153,96.7593 63.3492,107.1729 64.6508,109.3424 68.9898,110.2102 72.461,107.1729 72.8949,94.5898" stroke="#7f0000" stroke-width="2" /></svg>