<?xml version="1.0" encoding="utf-8" ?>
<svg baseProfile="tiny" height="128" version="1.2" viewBox="0,0,128,128" width="128" xmlns="http://www.w3.org/2000/svg" xmlns:ev="http://www.w3.org/2001/xml-events" xmlns:xlink="http://www.w3.org/1999/xlink"><defs /><polyline fill="none" points="9.1119,33.8441 9.1119,11.2814 14.3186,21.261 17.3559,24.7322 34.278,22.5627 55.1051,24.2983 59.0102,9.5458 63.7831,31.6746 63.7831,37.3153 61.1797,44.2576 51.2,54.2373 38.6169,54.2373 22.5627,42.522 13.0169,40.3525 8.678,34.7119" stroke="#00007f" stroke-width="2" /><polyline fill="none" points="25.1661,49.8983 23.8644,62.0475 28.6373,78.5356 23.8644,81.139 14.3186,93.2881 27.3356,90.2508 37.3153,83.3085 48.5966,85.0441 47.2949,89.8169 50.3322,92.4203 57.7085,87.2136 81.5729,84.6102 84.6102,89.8169 88.0814,85.0441 91.5525,83.7424 94.1559,84.1763 97.1932,89.3831 99.7966,90.2508 105.8712,88.5153 109.7763,85.9119 108.0407,74.6305 108.9085,66.8203 110.6441,60.3119 115.8508,50.7661 118.0203,31.2407 119.322,13.0169 117.1525,8.678 114.1153,8.678 112.3797,10.4136 111.078,29.0712 111.5119,38.6169 105.4373,43.8237 99.7966,46.4271 84.1763,48.5966 57.2746,45.5593" stroke="#7f0000" stroke-width="2" /></svg>