<?xml version="1.0" encoding="utf-8" ?>
<svg baseProfile="tiny" height="128" version="1.2" viewBox="0,0,128,128" width="128" xmlns="http://www.w3.org/2000/svg" xmlns:ev="http://www.w3.org/2001/xml-events" xmlns:xlink="http://www.w3.org/1999/xlink"><defs /><polyline fill="none" points="52.9356,65.5186 54.2373,75.0644 57.2746,78.5356 62.9153,78.9695 65.9525,74.6305" stroke="#00007f" stroke-width="2" /><polyline fill="none" points="49.4644,66.3864 49.8983,76.8 45.9932,80.2712 39.4847,80.7051 36.4475,72.8949" stroke="#0000c3" stroke-width="2" /><polyline fill="none" points="48.5966,63.3492 48.1627,59.878 50.3322,59.4441 50.3322,62.0475 48.5966,62.9153 47.2949,62.0475" stroke="#0000ff" stroke-width="2" /><polyline fill="none" points="48.5966,58.5763 49.8983,60.3119 50.3322,67.2542 47.7288,65.9525" stroke="#0034ff" stroke-width="2" /><polyline fill="none" points="63.3492,45.1254 63.7831,43.3898 65.0847,43.3898" stroke="#0070ff" stroke-width="2" /><polyline fill="none" points="31.2407,46.4271 32.9763,46.4271 33.4102,45.1254" stroke="#00acff" stroke-width="2" /><polyline fill="none" points="56.4068,25.1661 69.8576,8.678 78.1017,22.9966 84.1763,43.8237" stroke="#02e8f4" stroke-width="2" /><polyline fill="none" points="30.3729,33.4102 14.3186,21.261 12.5831,55.1051" stroke="#32ffc3" stroke-width="2" /><polyline fill="none" points="60.7458,27.3356 56.4068,30.3729 38.6169,32.5424 32.1085,35.1458" stroke="#63ff93" stroke-width="2" /><polyline fill="none" points="88.5153,51.6339 90.6847,65.5186 90.6847,80.2712 88.0814,85.9119 83.3085,89.8169 68.9898,94.5898 50.7661,95.8915 34.7119,91.9864 22.1288,82.8746 13.4508,70.2915 9.9797,51.6339" stroke="#93ff63" stroke-width="2" /><polyline fill="none" points="80.2712,91.5525 86.7797,95.4576 107.1729,119.322" stroke="#c3ff32" stroke-width="2" /><polyline fill="none" points="75.0644,59.878 87.6475,59.878" stroke="#f4f802" stroke-width="2" /><polyline fill="none" points="64.6508,59.0102 74.1966,56.4068 76.3661,52.9356" stroke="#ffc000" stroke-width="2" /><polyline fill="none" points="62.4814,67.6881 62.4814,67.6881" stroke="#ff8900" stroke-width="2" /><polyline fill="none" points="74.6305,75.0644 80.7051,73.3288" stroke="#ff5100" stroke-width="2" /><polyline fill="none" points="24.2983,74.6305 8.678,71.1593" stroke="#ff1a00" stroke-width="2" /><polyline fill="none" points="35.1458,64.6508 22.1288,61.6136" stroke="#c30000" stroke-width="2" /><polyline fill="none" points="31.2407,56.8407 9.5458,53.8034" stroke="#7f0000" stroke-width="2" /></svg>