<?xml version="1.0" encoding="utf-8" ?>
<svg baseProfile="tiny" height="128" version="1.2" viewBox="0,0,128,128" width="128" xmlns="http://www.w3.org/2000/svg" xmlns:ev="http://www.w3.org/2001/xml-events" xmlns:xlink="http://www.w3.org/1999/xlink"><defs /><polyline fill="none" points="88.5153,37.3153 90.6847,33.4102 92.8542,32.9763 92.8542,35.5797 89.3831,38.1831" stroke="#00007f" stroke-width="2" /><polyline fill="none" points="89.3831,42.9559 91.1186,45.5593 93.2881,43.3898" stroke="#0000fe" stroke-width="2" /><polyline fill="none" points="87.2136,28.6373 85.478,25.6" stroke="#0060ff" stroke-width="2" /><polyline fill="none" points="98.9288,22.1288 97.1932,22.1288" stroke="#00d4ff" stroke-width="2" /><polyline fill="none" points="72.461,24.2983 71.5932,21.261 73.7627,11.7153 78.1017,13.8847 87.2136,9.5458 101.0983,8.678 106.739,14.3186 111.5119,8.678 112.8136,11.7153 113.2475,28.2034 109.7763,44.6915 105.4373,52.5017 96.3254,58.1424 86.7797,57.7085 75.4983,47.2949 71.5932,40.3525 70.2915,21.261" stroke="#4cffaa" stroke-width="2" /><polyline fill="none" points="82.8746,40.7864 71.5932,38.6169" stroke="#aaff4c" stroke-width="2" /><polyline fill="none" points="87.2136,42.522 75.9322,51.6339 71.5932,56.4068" stroke="#ffe500" stroke-width="2" /><polyline fill="none" points="106.3051,31.2407 119.322,26.4678" stroke="#ff7a00" stroke-width="2" /><polyline fill="none" points="104.5695,40.3525 110.6441,40.7864 114.5492,43.3898" stroke="#fe1200" stroke-width="2" /><polyline fill="none" points="71.1593,40.3525 47.7288,34.278 28.2034,34.278 14.7525,35.5797 11.2814,37.3153 8.678,41.6542 9.5458,74.1966 11.7153,85.0441 15.6203,91.9864 17.7898,93.2881 22.5627,93.2881 30.3729,75.4983 32.9763,73.3288 40.7864,88.5153 45.9932,90.2508 48.1627,88.9492 55.1051,72.461 56.8407,72.461 59.878,88.9492 64.2169,92.8542" stroke="#7f0000" stroke-width="2" /></svg>