<?xml version="1.0" encoding="utf-8" ?>
<svg baseProfile="tiny" height="128" version="1.2" viewBox="0,0,128,128" width="128" xmlns="http://www.w3.org/2000/svg" xmlns:ev="http://www.w3.org/2001/xml-events" xmlns:xlink="http://www.w3.org/1999/xlink"><defs /><polyline fill="none" points="17.7898,29.939 22.1288,30.8068 45.5593,27.3356 59.878,27.7695 72.8949,36.0136 81.5729,45.1254 86.7797,54.6712 90.2508,65.0847 90.2508,77.2339 88.5153,82.4407 84.1763,92.4203 74.1966,103.2678 65.5186,108.0407 60.3119,109.3424 40.7864,109.7763 32.5424,108.9085 19.0915,99.3627 13.8847,93.722 9.5458,84.1763 8.678,77.6678 9.1119,63.3492 15.6203,51.6339 31.2407,32.1085 20.8271,22.9966 12.1492,9.5458 10.4136,11.7153 11.7153,25.6 19.5254,43.3898" stroke="#00007f" stroke-width="2" /><polyline fill="none" points="56.4068,41.6542 60.7458,29.5051 72.461,8.678 75.0644,12.5831 77.2339,44.6915" stroke="#0028ff" stroke-width="2" /><polyline fill="none" points="35.1458,56.4068 32.1085,60.3119" stroke="#00d4ff" stroke-width="2" /><polyline fill="none" points="61.1797,64.6508 63.3492,62.0475" stroke="#7cff79" stroke-width="2" /><polyline fill="none" points="42.522,75.0644 45.1254,75.0644 43.8237,78.5356 44.2576,92.8542 42.9559,100.6644 39.9186,102.4 36.8814,101.5322 32.9763,96.3254 32.1085,91.5525" stroke="#ffe500" stroke-width="2" /><polyline fill="none" points="37.7492,76.8 43.3898,97.1932 49.8983,105.8712 56.8407,105.4373 61.6136,103.2678 65.5186,98.4949 66.8203,94.1559" stroke="#ff4600" stroke-width="2" /><polyline fill="none" points="22.1288,119.322 22.1288,119.322" stroke="#7f0000" stroke-width="2" /></svg>