<?xml version="1.0" encoding="utf-8" ?>
<svg baseProfile="tiny" height="128" version="1.2" viewBox="0,0,128,128" width="128" xmlns="http://www.w3.org/2000/svg" xmlns:ev="http://www.w3.org/2001/xml-events" xmlns:xlink="http://www.w3.org/1999/xlink"><defs /><polyline fill="none" points="29.5051,36.0136 16.0542,17.7898 13.8847,16.4881 10.8475,18.2237 9.1119,26.0339 13.0169,35.1458 18.2237,39.4847 26.9017,39.4847" stroke="#00007f" stroke-width="2" /><polyline fill="none" points="28.6373,35.5797 32.9763,26.0339 36.8814,20.8271 46.861,16.922 54.2373,16.4881 65.0847,17.3559 78.1017,22.5627 79.8373,25.1661 81.139,33.8441 83.3085,35.1458 88.5153,30.8068 90.6847,22.5627 96.3254,16.0542 108.4746,8.678 117.1525,9.1119 119.322,16.0542 117.1525,19.5254 105.0034,19.9593 95.8915,33.8441 85.0441,40.7864 78.9695,42.522 75.9322,38.1831 72.461,45.5593 72.461,59.878 67.2542,65.9525 61.6136,70.2915 55.539,59.878 54.6712,44.6915 53.8034,44.6915 49.4644,57.2746 49.4644,67.6881 45.9932,49.4644 41.6542,69.4237 37.7492,51.6339 32.1085,68.9898 28.2034,59.0102 26.9017,48.5966 24.2983,55.1051 22.9966,55.1051 25.6,36.8814" stroke="#0080ff" stroke-width="2" /><polyline fill="none" points="16.0542,24.2983 13.0169,25.1661 15.1864,25.1661 16.922,20.8271 12.5831,21.6949" stroke="#7cff79" stroke-width="2" /><polyline fill="none" points="9.9797,24.7322 8.678,29.5051 10.8475,32.9763 12.5831,33.4102 18.2237,30.3729" stroke="#ff9400" stroke-width="2" /><polyline fill="none" points="45.1254,26.0339 33.4102,33.8441 47.2949,29.939 46.861,30.8068 34.7119,37.3153 37.3153,37.7492 56.8407,32.1085 50.3322,35.5797 49.8983,36.8814 56.4068,41.2203 65.5186,42.9559 64.2169,48.1627 67.6881,55.539 66.8203,61.1797 63.3492,61.6136" stroke="#7f0000" stroke-width="2" /></svg>