<?xml version="1.0" encoding="utf-8" ?>
<svg baseProfile="tiny" height="128" version="1.2" viewBox="0,0,128,128" width="128" xmlns="http://www.w3.org/2000/svg" xmlns:ev="http://www.w3.org/2001/xml-events" xmlns:xlink="http://www.w3.org/1999/xlink"><defs /><polyline fill="none" points="46.4271,38.1831 20.8271,52.0678 12.1492,60.7458 11.2814,67.2542 12.5831,74.6305 15.6203,81.5729 21.6949,89.8169 34.278,98.061 43.8237,101.5322 90.6847,109.7763 109.3424,110.6441 114.1153,108.0407 114.5492,106.3051 115.4169,88.0814 109.7763,70.2915 101.5322,56.4068 87.2136,44.2576 75.4983,37.7492 61.1797,32.1085 54.2373,31.6746 42.0881,39.0508" stroke="#00007f" stroke-width="2" /><polyline fill="none" points="17.7898,42.522 9.5458,13.8847 8.678,9.1119 10.8475,8.678 19.9593,13.8847 39.4847,39.4847" stroke="#0000fe" stroke-width="2" /><polyline fill="none" points="85.478,38.1831 88.9492,27.7695 98.9288,9.9797 101.5322,9.1119 102.8339,17.3559 101.0983,25.1661 91.9864,43.8237 87.6475,57.2746 83.7424,91.1186 95.0237,65.9525 97.6271,55.539" stroke="#0060ff" stroke-width="2" /><polyline fill="none" points="39.0508,49.8983 38.1831,52.5017 39.4847,54.2373 44.2576,57.7085 48.5966,58.5763 48.5966,53.8034 44.6915,49.8983 35.1458,44.6915" stroke="#00d4ff" stroke-width="2" /><polyline fill="none" points="69.4237,49.8983 65.5186,50.7661 64.2169,52.9356 69.4237,56.4068 77.6678,56.8407 77.2339,54.6712 64.6508,47.7288" stroke="#4cffaa" stroke-width="2" /><polyline fill="none" points="57.7085,69.4237 55.539,71.5932 54.6712,75.0644 56.8407,79.4034 59.4441,80.2712 76.3661,75.4983 75.4983,72.8949 68.9898,66.8203 59.4441,68.5559 59.878,72.461" stroke="#aaff4c" stroke-width="2" /><polyline fill="none" points="47.7288,69.8576 38.1831,63.3492 36.0136,58.5763" stroke="#ffe500" stroke-width="2" /><polyline fill="none" points="46.861,77.2339 33.4102,72.461" stroke="#ff7a00" stroke-width="2" /><polyline fill="none" points="80.2712,63.3492 90.6847,54.2373" stroke="#fe1200" stroke-width="2" /><polyline fill="none" points="82.0068,72.8949 119.322,83.7424" stroke="#7f0000" stroke-width="2" /></svg>