<?xml version="1.0" encoding="utf-8" ?>
<svg baseProfile="tiny" height="128" version="1.2" viewBox="0,0,128,128" width="128" xmlns="http://www.w3.org/2000/svg" xmlns:ev="http://www.w3.org/2001/xml-events" xmlns:xlink="http://www.w3.org/1999/xlink"><defs /><polyline fill="none" points="29.0712,35.1458 26.9017,52.9356 30.8068,62.4814 44.6915,72.8949 55.539,77.6678 64.2169,78.9695 77.2339,79.4034 89.3831,75.9322 92.4203,73.3288 98.9288,66.3864 103.2678,56.4068 104.1356,46.4271 102.4,42.0881" stroke="#00007f" stroke-width="2" /><polyline fill="none" points="60.7458,50.3322 63.3492,50.7661 64.6508,51.2 63.7831,52.0678 61.1797,50.3322" stroke="#0000e8" stroke-width="2" /><polyline fill="none" points="62.0475,52.9356 58.1424,65.9525 56.8407,67.2542 50.7661,68.9898 45.9932,62.9153" stroke="#0038ff" stroke-width="2" /><polyline fill="none" points="62.4814,54.6712 62.9153,58.5763 68.9898,68.122 74.1966,69.8576 78.1017,66.8203" stroke="#0094ff" stroke-width="2" /><polyline fill="none" points="43.8237,39.4847 46.4271,39.9186 46.861,38.6169 45.1254,38.1831 44.2576,41.2203" stroke="#0cf4ea" stroke-width="2" /><polyline fill="none" points="86.7797,39.9186 88.0814,40.7864 88.0814,39.4847 86.3458,39.9186 87.2136,40.7864" stroke="#56ffa0" stroke-width="2" /><polyline fill="none" points="8.678,44.2576 31.2407,49.0305" stroke="#a0ff56" stroke-width="2" /><polyline fill="none" points="32.5424,55.539 14.7525,61.6136 9.1119,62.4814" stroke="#eaff0c" stroke-width="2" /><polyline fill="none" points="92.4203,53.3695 102.8339,51.6339 119.322,50.7661" stroke="#ffaa00" stroke-width="2" /><polyline fill="none" points="91.5525,59.0102 97.6271,63.7831 118.4542,72.8949" stroke="#ff5500" stroke-width="2" /><polyline fill="none" points="34.7119,25.1661 37.3153,15.6203 46.861,26.9017" stroke="#e80000" stroke-width="2" /><polyline fill="none" points="85.478,26.0339 88.5153,14.7525 91.9864,8.678 98.9288,29.5051" stroke="#7f0000" stroke-width="2" /></svg>