<?xml version="1.0" encoding="utf-8" ?>
<svg baseProfile="tiny" height="128" version="1.2" viewBox="0,0,128,128" width="128" xmlns="http://www.w3.org/2000/svg" xmlns:ev="http://www.w3.org/2001/xml-events" xmlns:xlink="http://www.w3.org/1999/xlink"><defs /><polyline fill="none" points="55.1051,42.9559 47.7288,41.6542 43.3898,43.3898 32.1085,54.6712 24.2983,68.122 22.1288,79.4034 23.4305,88.9492 26.9017,93.722 35.5797,100.2305 41.6542,101.5322 53.3695,101.9661 63.3492,95.4576 67.2542,88.9492 72.461,64.2169 72.0271,50.7661 67.2542,44.6915 65.0847,43.3898 59.0102,44.2576" stroke="#00007f" stroke-width="2" /><polyline fill="none" points="39.4847,67.6881 39.4847,67.6881" stroke="#0000ac" stroke-width="2" /><polyline fill="none" points="56.4068,63.3492 56.4068,63.3492" stroke="#0000da" stroke-width="2" /><polyline fill="none" points="39.0508,64.6508 36.8814,66.3864 38.1831,72.8949 37.7492,68.122 36.0136,64.6508" stroke="#0000ff" stroke-width="2" /><polyline fill="none" points="50.3322,63.3492 50.3322,67.2542 51.6339,67.6881 53.8034,63.3492" stroke="#0020ff" stroke-width="2" /><polyline fill="none" points="64.2169,42.522 72.8949,32.5424 81.139,26.9017 90.2508,26.9017 93.2881,31.2407" stroke="#004cff" stroke-width="2" /><polyline fill="none" points="72.8949,55.1051 75.0644,56.8407 77.2339,56.4068 81.139,51.2 92.4203,23.4305" stroke="#0074ff" stroke-width="2" /><polyline fill="none" points="40.7864,47.2949 27.7695,32.5424 24.7322,30.8068" stroke="#009cff" stroke-width="2" /><polyline fill="none" points="22.9966,66.8203 20.3932,39.4847 21.6949,29.5051" stroke="#00c4ff" stroke-width="2" /><polyline fill="none" points="28.6373,57.2746 26.9017,44.2576 33.8441,51.6339" stroke="#08f0ed" stroke-width="2" /><polyline fill="none" points="65.9525,44.2576 79.4034,33.8441 75.0644,50.3322" stroke="#29ffcd" stroke-width="2" /><polyline fill="none" points="27.3356,92.8542 24.7322,95.0237 18.2237,107.1729 17.7898,113.2475 19.0915,115.4169 27.3356,118.4542 53.3695,119.322 65.0847,117.1525 70.2915,114.9831 75.4983,111.5119 81.139,105.0034 82.4407,97.6271 78.9695,91.5525 73.7627,88.0814 67.6881,88.9492" stroke="#49ffad" stroke-width="2" /><polyline fill="none" points="45.5593,80.7051 44.2576,81.5729 42.9559,86.7797 39.9186,86.7797 42.522,82.8746 50.3322,76.8 55.539,75.4983 55.9729,86.3458 40.7864,86.3458" stroke="#69ff8d" stroke-width="2" /><polyline fill="none" points="50.3322,79.8373 49.8983,84.6102 49.8983,82.8746 53.3695,82.4407" stroke="#8dff69" stroke-width="2" /><polyline fill="none" points="44.2576,88.9492 34.7119,107.1729 30.8068,109.7763 23.8644,110.6441" stroke="#adff49" stroke-width="2" /><polyline fill="none" points="50.3322,85.9119 49.8983,94.1559 52.9356,98.061 55.9729,99.3627 62.9153,98.4949 74.6305,86.7797" stroke="#cdff29" stroke-width="2" /><polyline fill="none" points="63.3492,75.9322 71.5932,75.9322 79.8373,70.7254" stroke="#edff08" stroke-width="2" /><polyline fill="none" points="60.7458,81.5729 68.5559,80.7051 78.9695,77.2339 85.478,77.6678" stroke="#ffd700" stroke-width="2" /><polyline fill="none" points="61.6136,78.1017 87.6475,73.7627" stroke="#ffb100" stroke-width="2" /><polyline fill="none" points="40.3525,80.7051 20.3932,80.7051 12.1492,82.0068" stroke="#ff8c00" stroke-width="2" /><polyline fill="none" points="39.0508,89.3831 32.5424,91.5525 8.678,93.722" stroke="#ff6700" stroke-width="2" /><polyline fill="none" points="78.9695,56.4068 72.461,61.6136" stroke="#ff3f00" stroke-width="2" /><polyline fill="none" points="40.7864,22.9966 39.9186,24.7322 39.4847,21.261 45.1254,14.3186 45.9932,19.0915 51.6339,14.3186 52.0678,17.3559 49.0305,25.1661" stroke="#ff1a00" stroke-width="2" /><polyline fill="none" points="57.7085,23.4305 64.2169,19.9593 65.5186,16.4881 62.0475,16.4881 59.0102,18.6576 57.7085,24.2983 57.7085,25.6 60.3119,24.7322" stroke="#da0000" stroke-width="2" /><polyline fill="none" points="76.3661,13.0169 68.122,19.9593 68.122,22.1288 72.461,21.6949 75.4983,17.7898 75.9322,14.3186" stroke="#ac0000" stroke-width="2" /><polyline fill="none" points="87.2136,11.7153 85.9119,14.7525 85.9119,20.8271 85.9119,22.5627 88.0814,23.4305 95.0237,18.6576 98.061,20.3932 100.2305,19.5254 106.3051,8.678" stroke="#7f0000" stroke-width="2" /></svg>