<?xml version="1.0" encoding="utf-8" ?>
<svg baseProfile="tiny" height="128" version="1.2" viewBox="0,0,128,128" width="128" xmlns="http://www.w3.org/2000/svg" xmlns:ev="http://www.w3.org/2001/xml-events" xmlns:xlink="http://www.w3.org/1999/xlink"><defs /><polyline fill="none" points="49.4644,34.278 34.7119,34.278 26.9017,36.8814 18.2237,45.5593 16.4881,56.8407 16.4881,71.5932 18.6576,79.4034 29.5051,100.2305 33.4102,105.8712 37.3153,108.4746 47.7288,108.9085 67.2542,104.5695 75.4983,91.9864 76.8,85.9119 76.8,58.1424 73.7627,51.2 70.2915,46.4271 60.7458,39.9186 48.1627,39.0508" stroke="#00007f" stroke-width="2" /><polyline fill="none" points="9.9797,53.8034 9.9797,8.678 12.5831,9.9797 32.1085,32.1085" stroke="#0010ff" stroke-width="2" /><polyline fill="none" points="37.7492,29.939 44.2576,26.4678 46.4271,23.4305 55.1051,16.922 61.6136,14.3186 61.6136,45.5593" stroke="#00a4ff" stroke-width="2" /><polyline fill="none" points="42.522,67.6881 45.1254,67.6881" stroke="#3fffb7" stroke-width="2" /><polyline fill="none" points="34.278,72.8949 17.3559,80.7051 11.2814,86.3458 8.678,93.2881" stroke="#b7ff3f" stroke-width="2" /><polyline fill="none" points="27.3356,88.0814 12.1492,100.6644 10.4136,105.0034" stroke="#ffb900" stroke-width="2" /><polyline fill="none" points="34.278,99.7966 29.0712,109.3424 25.1661,111.5119 22.9966,114.9831 22.5627,119.322" stroke="#ff3000" stroke-width="2" /><polyline fill="none" points="71.5932,84.6102 76.3661,89.8169" stroke="#7f0000" stroke-width="2" /></svg>