<?xml version="1.0" encoding="utf-8" ?>
<svg baseProfile="tiny" height="128" version="1.2" viewBox="0,0,128,128" width="128" xmlns="http://www.w3.org/2000/svg" xmlns:ev="http://www.w3.org/2001/xml-events" xmlns:xlink="http://www.w3.org/1999/xlink"><defs /><polyline fill="none" points="49.8983,27.7695 49.4644,27.7695" stroke="#00007f" stroke-width="2" /><polyline fill="none" points="48.5966,29.0712 45.1254,38.6169 45.1254,48.1627 49.8983,57.7085 59.0102,65.0847 70.7254,68.5559 77.2339,68.9898 86.7797,65.9525 88.9492,62.0475 88.9492,55.539 84.6102,45.1254 76.8,33.8441 68.5559,26.0339 62.9153,23.4305 59.4441,22.9966 50.3322,32.1085" stroke="#0000d1" stroke-width="2" /><polyline fill="none" points="46.4271,28.2034 47.7288,26.0339" stroke="#0010ff" stroke-width="2" /><polyline fill="none" points="48.1627,25.6 48.1627,24.7322" stroke="#0058ff" stroke-width="2" /><polyline fill="none" points="49.4644,22.5627 58.1424,8.678 58.5763,21.6949" stroke="#00a4ff" stroke-width="2" /><polyline fill="none" points="72.0271,31.2407 77.6678,19.5254 77.6678,38.1831" stroke="#05ecf1" stroke-width="2" /><polyline fill="none" points="71.5932,46.4271 117.1525,48.1627" stroke="#3fffb7" stroke-width="2" /><polyline fill="none" points="79.8373,51.2 95.8915,55.9729 119.322,59.0102" stroke="#7cff79" stroke-width="2" /><polyline fill="none" points="81.139,59.0102 101.9661,64.6508" stroke="#b7ff3f" stroke-width="2" /><polyline fill="none" points="51.2,45.5593 50.7661,45.9932" stroke="#f1fc05" stroke-width="2" /><polyline fill="none" points="50.7661,45.9932 37.7492,51.2 8.678,59.4441" stroke="#ffb900" stroke-width="2" /><polyline fill="none" points="52.0678,51.2 51.2,52.0678" stroke="#ff7300" stroke-width="2" /><polyline fill="none" points="50.7661,52.5017 39.9186,58.5763 14.3186,67.2542" stroke="#ff3000" stroke-width="2" /><polyline fill="none" points="56.8407,54.6712 47.7288,62.9153 39.9186,66.3864" stroke="#d10000" stroke-width="2" /><polyline fill="none" points="65.5186,49.4644 65.5186,54.6712 67.2542,54.2373 68.5559,50.3322 65.5186,48.5966" stroke="#7f0000" stroke-width="2" /></svg>