<?xml version="1.0" encoding="utf-8" ?>
<svg baseProfile="tiny" height="128" version="1.2" viewBox="0,0,128,128" width="128" xmlns="http://www.w3.org/2000/svg" xmlns:ev="http://www.w3.org/2001/xml-events" xmlns:xlink="http://www.w3.org/1999/xlink"><defs /><polyline fill="none" points="45.2789,33.0884 30.4762,34.8299 25.2517,40.4898 8.7075,47.0204" stroke="#00007f" stroke-width="2" /><polyline fill="none" points="45.2789,33.5238 44.8435,37.4422 38.3129,45.2789 38.7483,51.3741" stroke="#0028ff" stroke-width="2" /><polyline fill="none" points="47.0204,32.2177 53.1156,38.7483 53.1156,51.8095 54.8571,53.1156" stroke="#00d4ff" stroke-width="2" /><polyline fill="none" points="45.7143,30.0408 53.9864,24.381 60.9524,16.1088 69.2245,13.4966 83.1565,13.4966 93.1701,18.7211 98.8299,19.1565 98.8299,20.4626" stroke="#7cff79" stroke-width="2" /><polyline fill="none" points="50.5034,33.5238 62.2585,37.0068 87.9456,37.4422 94.0408,33.5238 99.7007,22.2041 105.7959,30.0408 109.2789,30.0408 118.4218,26.1224 119.2925,18.2857 117.9864,13.4966 108.8435,8.7075 103.1837,10.0136 97.5238,20.4626" stroke="#ffe500" stroke-width="2" /><polyline fill="none" points="82.7211,36.1361 82.7211,42.6667 74.449,59.2109" stroke="#ff4600" stroke-width="2" /><polyline fill="none" points="90.1224,35.7007 102.3129,42.2313 105.7959,56.5986" stroke="#7f0000" stroke-width="2" /></svg>