<?xml version="1.0" encoding="utf-8" ?>
<svg baseProfile="tiny" height="128" version="1.2" viewBox="0,0,128,128" width="128" xmlns="http://www.w3.org/2000/svg" xmlns:ev="http://www.w3.org/2001/xml-events" xmlns:xlink="http://www.w3.org/1999/xlink"><defs /><polyline fill="none" points="48.1627,50.7661 25.1661,45.9932 20.8271,46.861 16.922,49.4644 11.2814,62.9153 9.1119,71.5932 8.678,79.8373 10.4136,93.2881 16.4881,107.6068 26.4678,117.5864 36.8814,119.322 45.1254,118.8881 57.7085,113.6814 66.8203,106.3051 76.3661,95.4576 78.9695,87.2136 78.5356,76.3661 75.9322,68.122 71.1593,61.6136 54.2373,52.9356 51.2,49.0305" stroke="#00007f" stroke-width="2" /><polyline fill="none" points="14.7525,60.3119 15.1864,33.8441 16.922,17.7898 20.3932,18.6576 23.4305,22.1288 37.7492,42.522" stroke="#0028ff" stroke-width="2" /><polyline fill="none" points="51.2,44.2576 52.0678,36.8814 56.8407,25.6 72.461,8.678 74.6305,13.4508 68.9898,59.0102" stroke="#00d4ff" stroke-width="2" /><polyline fill="none" points="22.5627,73.7627 29.0712,68.9898 33.4102,74.1966 35.5797,82.4407" stroke="#7cff79" stroke-width="2" /><polyline fill="none" points="52.5017,79.8373 55.1051,72.0271 59.0102,73.7627 59.0102,76.3661 55.9729,78.5356 55.1051,74.6305" stroke="#ffe500" stroke-width="2" /><polyline fill="none" points="36.4475,93.2881 36.4475,93.2881" stroke="#ff4600" stroke-width="2" /><polyline fill="none" points="37.7492,97.6271 37.3153,100.6644 32.5424,107.6068" stroke="#7f0000" stroke-width="2" /></svg>