<?xml version="1.0" encoding="utf-8" ?>
<svg baseProfile="tiny" height="128" version="1.2" viewBox="0,0,128,128" width="128" xmlns="http://www.w3.org/2000/svg" xmlns:ev="http://www.w3.org/2001/xml-events" xmlns:xlink="http://www.w3.org/1999/xlink"><defs /><polyline fill="none" points="9.9797,30.3729 19.9593,14.3186 25.6,8.678 29.0712,32.1085 42.0881,26.4678 56.8407,25.6 75.4983,28.2034 89.3831,32.9763 104.5695,14.7525 110.6441,9.9797 112.3797,9.5458 118.8881,36.0136 119.322,54.2373 118.0203,65.0847 113.2475,77.2339 105.4373,85.0441 97.6271,89.8169 89.3831,91.9864 63.3492,91.9864 38.6169,85.9119 30.3729,82.0068 17.3559,70.7254 9.9797,59.0102 8.678,41.2203 10.4136,33.4102 13.0169,29.0712" stroke="#00007f" stroke-width="2" /><polyline fill="none" points="34.7119,42.9559 39.9186,40.3525 47.7288,39.4847 52.0678,41.2203 55.9729,46.4271" stroke="#0000f1" stroke-width="2" /><polyline fill="none" points="76.8,50.3322 78.5356,47.7288 83.3085,45.1254 91.5525,44.2576 97.6271,48.1627 101.5322,53.8034" stroke="#004cff" stroke-width="2" /><polyline fill="none" points="56.4068,68.9898 62.9153,68.5559 78.9695,70.2915 68.122,78.5356 62.9153,85.0441 55.9729,68.122" stroke="#00b0ff" stroke-width="2" /><polyline fill="none" points="59.4441,69.8576 62.9153,77.2339 60.3119,68.5559 62.0475,78.5356 62.9153,78.9695 63.7831,76.3661" stroke="#29ffcd" stroke-width="2" /><polyline fill="none" points="59.0102,68.122 47.2949,64.6508 20.3932,49.4644" stroke="#7cff79" stroke-width="2" /><polyline fill="none" points="58.1424,65.9525 45.5593,68.122 27.3356,67.2542" stroke="#cdff29" stroke-width="2" /><polyline fill="none" points="55.539,69.8576 41.2203,76.3661 34.7119,81.5729 31.6746,85.9119" stroke="#ffc400" stroke-width="2" /><polyline fill="none" points="77.2339,70.2915 98.061,70.7254 110.6441,68.9898" stroke="#ff6700" stroke-width="2" /><polyline fill="none" points="76.8,71.1593 105.0034,87.6475" stroke="#f10700" stroke-width="2" /><polyline fill="none" points="78.1017,72.461 83.3085,80.2712 93.722,91.1186" stroke="#7f0000" stroke-width="2" /></svg>