<?xml version="1.0" encoding="utf-8" ?>
<svg baseProfile="tiny" height="128" version="1.2" viewBox="0,0,128,128" width="128" xmlns="http://www.w3.org/2000/svg" xmlns:ev="http://www.w3.org/2001/xml-events" xmlns:xlink="http://www.w3.org/1999/xlink"><defs /><polyline fill="none" points="36.8814,54.6712 49.8983,55.539 66.3864,60.3119 77.6678,60.3119" stroke="#00007f" stroke-width="2" /><polyline fill="none" points="75.4983,56.4068 75.4983,48.1627 78.9695,40.7864 83.7424,36.4475 87.2136,34.7119 96.7593,34.278 102.8339,39.0508 108.0407,46.861 110.2102,53.3695 110.2102,61.6136 108.4746,65.9525 102.8339,69.8576 95.8915,72.461 91.1186,72.8949 89.8169,70.2915" stroke="#0080ff" stroke-width="2" /><polyline fill="none" points="79.4034,34.7119 75.0644,23.8644 63.3492,8.678 62.9153,13.0169 64.6508,19.0915 74.1966,39.0508" stroke="#7cff79" stroke-width="2" /><polyline fill="none" points="99.7966,36.8814 105.8712,26.0339 119.322,16.0542 119.322,19.9593 104.5695,49.0305" stroke="#ff9400" stroke-width="2" /><polyline fill="none" points="93.2881,67.2542 88.0814,69.8576 70.7254,72.8949 68.122,77.2339 67.6881,97.6271 66.8203,100.6644 62.9153,103.7017 60.7458,96.7593 58.5763,70.7254 53.8034,70.2915 49.4644,75.0644 48.5966,78.1017 45.5593,105.4373 42.522,107.6068 38.1831,107.6068 37.7492,69.4237 36.0136,67.2542 29.5051,68.122 19.9593,87.2136 15.6203,91.5525 10.4136,91.1186 8.678,88.5153 8.678,82.0068 11.2814,74.6305 16.4881,67.6881 39.4847,53.8034" stroke="#7f0000" stroke-width="2" /></svg>