<?xml version="1.0" encoding="utf-8" ?>
<svg baseProfile="tiny" height="128" version="1.2" viewBox="0,0,128,128" width="128" xmlns="http://www.w3.org/2000/svg" xmlns:ev="http://www.w3.org/2001/xml-events" xmlns:xlink="http://www.w3.org/1999/xlink"><defs /><polyline fill="none" points="73.457,38.268 71.6976,34.7491 68.6186,34.3093 51.0241,34.7491 36.5086,40.4674 28.5911,49.2646 26.8316,62.4605 32.5498,75.2165 37.3883,80.9347 50.1443,87.0928 65.5395,90.1718 80.055,90.1718 88.8522,85.7732 93.6907,81.3746 97.2096,71.6976 100.2887,55.8625 100.2887,45.3058 96.3299,37.8282 91.0515,33.8694 77.4158,30.7904 69.4983,30.7904 63.7801,34.7491" stroke="#00007f" stroke-width="2" /><polyline fill="none" points="58.0619,62.9003 65.9794,62.9003 65.9794,64.2199 59.8213,69.4983 58.0619,69.9381 56.3024,68.6186" stroke="#0000f1" stroke-width="2" /><polyline fill="none" points="58.0619,63.7801 58.0619,69.9381" stroke="#004cff" stroke-width="2" /><polyline fill="none" points="81.3746,62.4605 119.2027,63.7801" stroke="#00b0ff" stroke-width="2" /><polyline fill="none" points="80.4948,71.6976 93.6907,73.8969 108.646,73.8969" stroke="#29ffcd" stroke-width="2" /><polyline fill="none" points="41.7869,65.9794 27.7113,69.9381" stroke="#7cff79" stroke-width="2" /><polyline fill="none" points="50.5842,71.6976 43.1065,73.8969 8.7973,77.4158" stroke="#cdff29" stroke-width="2" /><polyline fill="none" points="36.9485,38.7079 41.7869,14.5155 43.5464,14.5155 48.3849,26.3918" stroke="#ffc400" stroke-width="2" /><polyline fill="none" points="75.6564,30.3505 89.2921,16.7148 101.6082,8.7973 102.0481,21.1134 99.4089,35.189" stroke="#ff6700" stroke-width="2" /><polyline fill="none" points="75.6564,43.1065 70.8179,57.622 76.0962,50.5842 76.5361,45.7457 74.7766,46.6254" stroke="#f10700" stroke-width="2" /><polyline fill="none" points="49.7045,49.7045 51.9038,56.7423 52.3436,52.3436" stroke="#7f0000" stroke-width="2" /></svg>