<?xml version="1.0" encoding="utf-8" ?>
<svg baseProfile="tiny" height="128" version="1.2" viewBox="0,0,128,128" width="128" xmlns="http://www.w3.org/2000/svg" xmlns:ev="http://www.w3.org/2001/xml-events" xmlns:xlink="http://www.w3.org/1999/xlink"><defs /><polyline fill="none" points="30.3729,64.2169 63.3492,68.122 87.6475,68.122 93.722,59.4441 95.4576,51.2 93.2881,45.1254 81.5729,30.3729 87.2136,32.9763 95.8915,40.3525 99.7966,47.7288 101.9661,55.1051 100.6644,65.5186 95.0237,75.9322 89.8169,109.7763 87.2136,117.1525 85.0441,119.322 82.4407,118.4542 80.7051,114.1153 80.7051,97.1932 82.8746,83.7424 82.0068,82.0068 69.4237,83.3085 46.4271,83.3085 39.9186,84.6102 40.3525,91.1186 34.278,112.3797 30.3729,108.9085 27.7695,99.3627 30.3729,75.4983" stroke="#00007f" stroke-width="2" /><polyline fill="none" points="32.5424,63.3492 45.1254,46.861 48.5966,37.7492 48.1627,33.8441 39.4847,24.2983 33.8441,21.261 29.5051,20.8271 16.922,24.2983 13.8847,27.3356 9.9797,33.8441 8.678,47.7288 10.8475,59.878 16.922,68.9898 28.2034,76.3661" stroke="#00d4ff" stroke-width="2" /><polyline fill="none" points="35.5797,20.3932 44.2576,11.7153 57.7085,8.678 48.1627,31.2407" stroke="#ffe500" stroke-width="2" /><polyline fill="none" points="24.7322,22.5627 11.7153,19.0915 11.2814,35.5797" stroke="#7f0000" stroke-width="2" /></svg>