<?xml version="1.0" encoding="utf-8" ?>
<svg baseProfile="tiny" height="128" version="1.2" viewBox="0,0,128,128" width="128" xmlns="http://www.w3.org/2000/svg" xmlns:ev="http://www.w3.org/2001/xml-events" xmlns:xlink="http://www.w3.org/1999/xlink"><defs /><polyline fill="none" points="55.9729,42.9559 60.7458,45.5593 70.2915,48.1627 79.8373,42.0881 73.3288,36.0136 66.8203,33.4102 52.9356,32.5424 49.4644,35.5797 50.7661,49.0305 56.8407,46.4271 57.2746,45.1254 59.4441,48.5966 63.3492,73.7627 65.9525,75.0644 82.4407,68.122 82.8746,41.2203 76.8,41.6542 76.8,43.8237 78.1017,53.8034 83.7424,65.9525 100.6644,87.6475 107.1729,94.1559 112.3797,97.1932 119.322,97.1932 119.322,68.5559 103.7017,58.5763 95.4576,55.539 62.4814,53.3695" stroke="#00007f" stroke-width="2" /><polyline fill="none" points="22.5627,42.522 26.4678,44.2576 42.9559,36.4475 42.0881,42.0881 23.4305,45.5593 13.8847,51.2 11.2814,54.2373 20.3932,40.3525 27.3356,33.8441 33.8441,30.8068 44.6915,46.4271 47.7288,55.9729 45.1254,59.4441 38.6169,63.7831 19.5254,71.5932 13.4508,69.4237 28.6373,53.8034 53.8034,39.4847 72.0271,31.2407 83.3085,28.2034 98.061,26.0339 107.1729,26.0339 118.0203,29.0712 119.322,39.0508 119.322,71.1593 113.2475,85.9119 107.6068,88.5153 100.6644,90.6847 35.1458,97.1932 9.1119,97.1932 8.678,88.9492 13.0169,83.7424 45.1254,66.8203 119.322,38.1831 119.322,8.678 119.322,16.922 107.1729,40.7864 100.2305,48.1627 69.4237,68.5559 43.3898,78.5356 9.1119,88.0814 10.8475,66.8203 15.6203,59.4441 52.9356,27.3356 75.9322,12.5831 118.8881,8.678 113.6814,29.0712 108.4746,37.7492 78.1017,71.1593 16.922,97.1932 8.678,97.1932 13.4508,93.722 102.8339,52.0678 119.322,41.6542 119.322,8.678 102.8339,22.1288 8.678,75.9322 8.678,97.1932 20.3932,91.5525 118.4542,58.1424 119.322,9.1119 117.5864,9.1119 40.3525,30.8068 14.3186,39.4847 8.678,79.4034 8.678,97.1932 119.322,42.522 119.322,8.678 96.3254,17.7898 8.678,85.0441 8.678,96.7593 19.9593,91.5525 118.8881,27.7695 119.322,8.678 101.5322,9.5458 68.5559,19.0915 9.1119,88.5153 8.678,96.7593 72.8949,70.7254 95.0237,60.3119 119.322,38.1831 117.1525,10.4136 8.678,97.1932 20.8271,97.1932 119.322,73.7627 119.322,14.3186 11.2814,75.0644 8.678,96.7593 13.4508,97.1932 96.7593,81.139 119.322,8.678 8.678,97.1932 26.0339,67.6881 79.4034,8.678 98.9288,8.678 92.8542,9.1119 8.678,80.2712 8.678,97.1932 19.9593,91.5525 75.0644,8.678 100.2305,8.678 75.4983,97.1932 64.2169,97.1932 80.2712,72.0271 109.3424,8.678 116.7186,15.6203 108.0407,62.9153 105.4373,97.1932 110.2102,96.7593 119.322,62.0475 119.322,8.678 107.6068,53.3695 92.8542,97.1932 99.7966,48.5966 103.2678,8.678 91.9864,21.6949 51.2,97.1932 60.3119,37.7492 62.0475,9.5458 40.3525,95.0237 40.7864,97.1932 85.478,63.7831 101.5322,39.4847 74.1966,96.7593 61.1797,97.1932 66.8203,90.6847 74.1966,73.7627 65.9525,49.0305 57.7085,66.8203 41.6542,91.5525 43.8237,77.2339 35.1458,8.678 8.678,12.5831 8.678,21.6949" stroke="#7f0000" stroke-width="2" /></svg>