<?xml version="1.0" encoding="utf-8" ?>
<svg baseProfile="tiny" height="128" version="1.2" viewBox="0,0,128,128" width="128" xmlns="http://www.w3.org/2000/svg" xmlns:ev="http://www.w3.org/2001/xml-events" xmlns:xlink="http://www.w3.org/1999/xlink"><defs /><polyline fill="none" points="30.3729,68.122 32.1085,71.5932 32.9763,86.7797" stroke="#00007f" stroke-width="2" /><polyline fill="none" points="34.7119,75.0644 36.8814,77.6678 39.4847,96.7593" stroke="#0000c3" stroke-width="2" /><polyline fill="none" points="45.1254,64.6508 46.4271,79.4034" stroke="#0000ff" stroke-width="2" /><polyline fill="none" points="49.0305,69.8576 48.1627,86.3458" stroke="#0034ff" stroke-width="2" /><polyline fill="none" points="22.1288,65.9525 25.6,65.9525 40.7864,70.7254 58.5763,68.9898 64.6508,65.9525 66.3864,56.8407 64.2169,50.7661 59.4441,42.522 53.3695,39.4847 41.2203,41.6542 36.8814,45.9932 29.5051,59.4441 25.6,62.4814" stroke="#0070ff" stroke-width="2" /><polyline fill="none" points="55.1051,43.3898 56.4068,31.2407 58.1424,26.9017 61.6136,26.9017 67.2542,30.3729 69.4237,36.4475 71.1593,49.4644 68.5559,52.5017 63.7831,52.9356 61.1797,51.6339 59.878,47.7288" stroke="#00acff" stroke-width="2" /><polyline fill="none" points="55.539,38.6169 54.2373,33.8441 55.1051,8.678 58.1424,26.0339" stroke="#02e8f4" stroke-width="2" /><polyline fill="none" points="58.5763,25.1661 60.3119,21.261 61.1797,28.6373" stroke="#32ffc3" stroke-width="2" /><polyline fill="none" points="59.4441,33.4102 59.4441,32.9763" stroke="#63ff93" stroke-width="2" /><polyline fill="none" points="62.9153,31.6746 62.0475,32.9763" stroke="#93ff63" stroke-width="2" /><polyline fill="none" points="63.7831,40.3525 63.7831,40.3525" stroke="#c3ff32" stroke-width="2" /><polyline fill="none" points="64.2169,40.7864 64.2169,40.7864" stroke="#f4f802" stroke-width="2" /><polyline fill="none" points="64.2169,41.2203 63.7831,43.8237 61.6136,43.3898 67.2542,43.8237 68.122,40.3525" stroke="#ffc000" stroke-width="2" /><polyline fill="none" points="28.2034,56.4068 24.7322,52.5017 19.5254,54.2373 9.9797,75.4983 8.678,81.139 22.1288,81.5729 24.7322,83.3085 24.2983,86.7797 20.3932,90.6847 11.7153,93.722 15.6203,95.0237" stroke="#ff8900" stroke-width="2" /><polyline fill="none" points="88.9492,63.3492 84.1763,70.2915 82.8746,77.6678 85.478,79.8373 88.9492,78.5356" stroke="#ff5100" stroke-width="2" /><polyline fill="none" points="92.4203,73.7627 95.8915,77.6678 99.3627,79.4034 101.5322,77.6678 100.6644,73.7627 101.9661,79.4034 105.4373,81.139 114.1153,77.6678" stroke="#ff1a00" stroke-width="2" /><polyline fill="none" points="112.8136,69.8576 114.5492,85.9119 115.8508,86.3458 119.322,80.2712" stroke="#c30000" stroke-width="2" /><polyline fill="none" points="114.5492,76.8 118.0203,74.6305" stroke="#7f0000" stroke-width="2" /></svg>