<?xml version="1.0" encoding="utf-8" ?>
<svg baseProfile="tiny" height="128" version="1.2" viewBox="0,0,128,128" width="128" xmlns="http://www.w3.org/2000/svg" xmlns:ev="http://www.w3.org/2001/xml-events" xmlns:xlink="http://www.w3.org/1999/xlink"><defs /><polyline fill="none" points="29.939,59.0102 32.5424,59.0102 33.4102,57.2746 26.9017,54.6712" stroke="#00007f" stroke-width="2" /><polyline fill="none" points="16.4881,50.7661 8.678,52.0678" stroke="#0000f1" stroke-width="2" /><polyline fill="none" points="63.7831,37.3153 54.6712,19.5254 53.8034,11.7153 55.9729,12.5831 72.0271,32.9763 75.0644,26.4678 82.4407,25.6 86.7797,27.3356 93.722,36.0136 99.7966,20.3932 106.739,8.678 108.9085,15.6203 111.078,31.2407 113.2475,35.5797" stroke="#004cff" stroke-width="2" /><polyline fill="none" points="60.7458,35.5797 51.2,41.2203 45.9932,48.5966 45.5593,58.5763 48.5966,71.5932 54.6712,81.139 60.7458,86.7797 69.8576,90.2508 79.8373,90.6847 94.5898,85.478 105.0034,77.6678 109.3424,72.8949 116.7186,59.878 119.322,51.6339 118.8881,43.3898 113.2475,37.7492 102.4,34.278" stroke="#00b0ff" stroke-width="2" /><polyline fill="none" points="54.2373,49.4644 72.461,53.8034" stroke="#29ffcd" stroke-width="2" /><polyline fill="none" points="55.9729,56.4068 72.461,56.4068" stroke="#7cff79" stroke-width="2" /><polyline fill="none" points="72.0271,60.7458 55.9729,68.5559" stroke="#cdff29" stroke-width="2" /><polyline fill="none" points="90.2508,55.1051 108.0407,48.5966" stroke="#ffc400" stroke-width="2" /><polyline fill="none" points="88.9492,57.2746 105.0034,59.4441" stroke="#ff6700" stroke-width="2" /><polyline fill="none" points="88.9492,56.8407 102.4,66.8203" stroke="#f10700" stroke-width="2" /><polyline fill="none" points="81.5729,56.8407 80.2712,55.9729" stroke="#7f0000" stroke-width="2" /></svg>