<?xml version="1.0" encoding="utf-8" ?>
<svg baseProfile="tiny" height="128" version="1.2" viewBox="0,0,128,128" width="128" xmlns="http://www.w3.org/2000/svg" xmlns:ev="http://www.w3.org/2001/xml-events" xmlns:xlink="http://www.w3.org/1999/xlink"><defs /><polyline fill="none" points="56.8407,117.5864 50.3322,117.1525 34.278,111.078 26.9017,106.739 13.8847,94.5898 11.7153,85.0441" stroke="#00007f" stroke-width="2" /><polyline fill="none" points="12.5831,74.6305 16.4881,59.4441 25.1661,47.2949 33.4102,40.3525 48.1627,36.4475 66.8203,36.4475 84.6102,39.4847 99.7966,49.8983 108.4746,59.878 111.5119,67.2542 113.2475,85.478 111.078,93.2881 105.8712,101.9661 98.061,110.2102 82.0068,115.4169 73.7627,116.2847 36.8814,111.078 23.8644,106.3051 16.922,101.0983 13.0169,95.4576 9.1119,84.6102 8.678,76.8 10.8475,68.122" stroke="#0000ff" stroke-width="2" /><polyline fill="none" points="15.6203,44.6915 14.3186,44.2576 11.2814,34.278 10.8475,8.678 16.4881,10.4136 33.4102,26.0339 44.2576,33.4102 47.2949,37.7492" stroke="#0080ff" stroke-width="2" /><polyline fill="none" points="16.922,55.539 15.6203,48.1627 9.1119,30.3729" stroke="#15ffe1" stroke-width="2" /><polyline fill="none" points="84.6102,41.6542 103.7017,18.2237 112.8136,12.5831 117.1525,11.7153 119.322,14.7525 117.5864,32.1085 109.3424,54.6712" stroke="#7cff79" stroke-width="2" /><polyline fill="none" points="106.739,61.1797 106.3051,65.0847" stroke="#e4ff12" stroke-width="2" /><polyline fill="none" points="44.2576,64.2169 41.6542,65.9525 43.8237,65.5186 43.8237,63.7831" stroke="#ff9400" stroke-width="2" /><polyline fill="none" points="81.5729,65.0847 80.7051,66.3864 82.0068,66.3864 82.8746,65.0847 82.4407,62.4814 80.7051,64.6508 84.6102,66.8203 82.4407,66.3864" stroke="#ff1d00" stroke-width="2" /><polyline fill="none" points="60.7458,89.3831 59.4441,95.8915 56.8407,99.7966 52.5017,102.4 45.5593,101.0983" stroke="#7f0000" stroke-width="2" /></svg>