<?xml version="1.0" encoding="utf-8" ?>
<svg baseProfile="tiny" height="128" version="1.2" viewBox="0,0,128,128" width="128" xmlns="http://www.w3.org/2000/svg" xmlns:ev="http://www.w3.org/2001/xml-events" xmlns:xlink="http://www.w3.org/1999/xlink"><defs /><polyline fill="none" points="45.9932,36.8814 40.3525,56.4068 41.2203,62.9153 47.2949,71.1593 60.3119,78.9695 69.8576,80.2712 77.2339,78.9695 83.7424,76.3661 92.8542,66.3864 96.7593,52.9356 85.0441,35.1458 78.1017,30.3729 54.6712,34.7119 48.5966,36.4475 46.861,38.6169" stroke="#00007f" stroke-width="2" /><polyline fill="none" points="44.6915,42.0881 36.8814,21.261 34.278,10.4136 58.1424,29.0712" stroke="#0028ff" stroke-width="2" /><polyline fill="none" points="68.5559,27.7695 85.9119,9.9797 88.5153,8.678 91.9864,9.5458 95.0237,14.3186 96.3254,25.1661 96.3254,34.278 93.722,44.6915" stroke="#00d4ff" stroke-width="2" /><polyline fill="none" points="86.3458,52.5017 118.0203,54.6712" stroke="#7cff79" stroke-width="2" /><polyline fill="none" points="88.9492,55.9729 119.322,62.9153" stroke="#ffe500" stroke-width="2" /><polyline fill="none" points="44.2576,52.5017 8.678,61.6136" stroke="#ff4600" stroke-width="2" /><polyline fill="none" points="47.7288,58.1424 30.8068,67.2542 17.3559,70.2915" stroke="#7f0000" stroke-width="2" /></svg>