<?xml version="1.0" encoding="utf-8" ?>
<svg baseProfile="tiny" height="128" version="1.2" viewBox="0,0,128,128" width="128" xmlns="http://www.w3.org/2000/svg" xmlns:ev="http://www.w3.org/2001/xml-events" xmlns:xlink="http://www.w3.org/1999/xlink"><defs /><polyline fill="none" points="13.8847,65.0847 10.8475,61.1797 8.678,45.5593 11.2814,26.9017 16.922,15.1864 23.8644,29.0712 32.5424,57.7085 34.278,59.0102 49.4644,52.0678 78.9695,46.4271 75.4983,39.0508 76.8,25.6 79.4034,17.7898 84.6102,8.678 88.9492,20.3932 94.5898,49.8983 91.5525,59.878 84.1763,72.8949 74.6305,82.0068 66.8203,87.2136 53.8034,91.5525 43.3898,92.4203 22.1288,90.2508 14.3186,85.0441 9.1119,75.4983 11.2814,65.0847 14.3186,59.4441 19.9593,54.6712" stroke="#00007f" stroke-width="2" /><polyline fill="none" points="16.922,58.5763 16.922,39.9186 19.0915,33.4102 29.939,57.7085" stroke="#0000ff" stroke-width="2" /><polyline fill="none" points="83.3085,45.5593 87.2136,20.8271 87.2136,40.3525 84.6102,46.4271" stroke="#0080ff" stroke-width="2" /><polyline fill="none" points="29.0712,70.7254 29.939,70.7254" stroke="#15ffe1" stroke-width="2" /><polyline fill="none" points="83.7424,59.4441 83.3085,59.4441" stroke="#7cff79" stroke-width="2" /><polyline fill="none" points="55.539,70.7254 55.1051,73.7627 46.861,82.8746" stroke="#e4ff12" stroke-width="2" /><polyline fill="none" points="59.4441,70.2915 61.6136,74.6305 67.6881,77.2339 72.0271,77.2339" stroke="#ff9400" stroke-width="2" /><polyline fill="none" points="35.1458,93.722 41.6542,107.1729 65.5186,117.5864 81.5729,117.1525" stroke="#ff1d00" stroke-width="2" /><polyline fill="none" points="106.3051,113.2475 119.322,109.7763" stroke="#7f0000" stroke-width="2" /></svg>