<?xml version="1.0" encoding="utf-8" ?>
<svg baseProfile="tiny" height="128" version="1.2" viewBox="0,0,128,128" width="128" xmlns="http://www.w3.org/2000/svg" xmlns:ev="http://www.w3.org/2001/xml-events" xmlns:xlink="http://www.w3.org/1999/xlink"><defs /><polyline fill="none" points="41.6542,47.2949 31.6746,47.2949 23.4305,52.0678 16.0542,61.6136 13.0169,71.1593 13.4508,90.2508 18.6576,100.6644 25.6,108.9085 32.1085,113.2475 48.5966,119.322 62.4814,118.8881 69.8576,114.9831 78.9695,106.739 83.7424,98.9288 86.3458,90.6847 86.3458,79.8373 80.2712,64.6508 69.8576,50.7661 62.4814,43.3898 55.539,40.3525 32.1085,40.3525" stroke="#00007f" stroke-width="2" /><polyline fill="none" points="8.678,53.8034 9.5458,8.678 13.0169,8.678 18.6576,11.7153 29.0712,20.3932 47.7288,42.0881 49.0305,46.4271" stroke="#004cff" stroke-width="2" /><polyline fill="none" points="65.9525,41.6542 88.0814,31.2407 105.8712,25.6 105.8712,29.5051 99.7966,47.2949 91.1186,62.4814 88.0814,74.6305" stroke="#29ffcd" stroke-width="2" /><polyline fill="none" points="36.0136,74.6305 39.4847,76.3661 37.3153,77.2339" stroke="#cdff29" stroke-width="2" /><polyline fill="none" points="59.878,78.5356 57.7085,82.4407 60.7458,83.7424 57.7085,85.0441" stroke="#ff6700" stroke-width="2" /><polyline fill="none" points="31.2407,89.8169 34.278,91.5525 38.6169,98.9288 42.0881,102.8339 50.3322,105.8712 58.1424,104.5695 65.0847,99.7966 63.7831,98.4949" stroke="#7f0000" stroke-width="2" /></svg>