<?xml version="1.0" encoding="utf-8" ?>
<svg baseProfile="tiny" height="128" version="1.2" viewBox="0,0,128,128" width="128" xmlns="http://www.w3.org/2000/svg" xmlns:ev="http://www.w3.org/2001/xml-events" xmlns:xlink="http://www.w3.org/1999/xlink"><defs /><polyline fill="none" points="102.8339,14.3186 96.3254,10.8475 89.8169,11.2814 76.8,17.7898 71.5932,24.2983 69.4237,30.8068 70.7254,39.9186 75.9322,47.2949 81.5729,50.3322 92.8542,50.3322 98.9288,48.1627 104.1356,44.6915 110.6441,37.3153 112.3797,31.6746 111.078,26.0339 100.2305,9.5458 99.3627,8.678 98.061,13.4508" stroke="#00007f" stroke-width="2" /><polyline fill="none" points="83.7424,34.278 89.8169,36.4475 98.4949,35.5797" stroke="#0000de" stroke-width="2" /><polyline fill="none" points="82.4407,36.8814 86.3458,42.0881 90.6847,43.8237" stroke="#0028ff" stroke-width="2" /><polyline fill="none" points="96.7593,37.7492 86.7797,45.5593" stroke="#0080ff" stroke-width="2" /><polyline fill="none" points="87.6475,42.522 87.6475,49.0305 91.5525,52.0678 96.3254,51.6339 102.8339,48.1627" stroke="#00d4ff" stroke-width="2" /><polyline fill="none" points="86.3458,47.2949 81.5729,51.6339 76.8,53.8034 74.1966,53.3695 73.3288,51.2 74.6305,49.8983" stroke="#36ffc0" stroke-width="2" /><polyline fill="none" points="100.2305,36.4475 117.1525,28.6373" stroke="#7cff79" stroke-width="2" /><polyline fill="none" points="100.2305,42.9559 119.322,34.7119" stroke="#c0ff36" stroke-width="2" /><polyline fill="none" points="77.2339,37.7492 73.3288,35.5797 58.5763,36.0136" stroke="#ffe500" stroke-width="2" /><polyline fill="none" points="78.5356,49.4644 72.0271,46.4271 60.3119,45.5593" stroke="#ff9400" stroke-width="2" /><polyline fill="none" points="90.6847,18.6576 88.0814,18.2237 83.3085,21.261 81.139,24.2983 79.8373,30.3729 85.0441,29.939 92.4203,22.5627 91.9864,17.7898 88.5153,16.922 85.478,19.0915" stroke="#ff4600" stroke-width="2" /><polyline fill="none" points="103.2678,20.3932 97.6271,23.4305 96.3254,28.6373 97.6271,30.8068 101.0983,30.8068 109.3424,25.1661 108.4746,22.5627 104.5695,21.6949 101.5322,22.9966" stroke="#de0000" stroke-width="2" /><polyline fill="none" points="65.9525,29.939 62.9153,30.3729 39.4847,41.6542 21.6949,44.2576 12.5831,48.1627 9.5458,52.5017 8.678,59.0102 12.1492,65.9525 19.5254,68.5559 34.278,68.5559" stroke="#7f0000" stroke-width="2" /></svg>