<?xml version="1.0" encoding="utf-8" ?>
<svg baseProfile="tiny" height="128" version="1.2" viewBox="0,0,128,128" width="128" xmlns="http://www.w3.org/2000/svg" xmlns:ev="http://www.w3.org/2001/xml-events" xmlns:xlink="http://www.w3.org/1999/xlink"><defs /><polyline fill="none" points="25.1661,36.0136 26.0339,29.5051 33.4102,22.1288 38.6169,20.3932" stroke="#00007f" stroke-width="2" /><polyline fill="none" points="27.3356,28.6373 30.8068,17.7898" stroke="#0000a3" stroke-width="2" /><polyline fill="none" points="29.0712,19.9593 29.939,13.8847" stroke="#0000cc" stroke-width="2" /><polyline fill="none" points="29.939,13.8847 36.4475,8.678" stroke="#0000f5" stroke-width="2" /><polyline fill="none" points="35.1458,9.5458 39.9186,13.4508" stroke="#000cff" stroke-width="2" /><polyline fill="none" points="38.6169,12.1492 44.2576,19.9593" stroke="#0030ff" stroke-width="2" /><polyline fill="none" points="42.522,19.5254 50.7661,19.5254 55.1051,21.261" stroke="#0050ff" stroke-width="2" /><polyline fill="none" points="54.2373,19.0915 59.4441,19.0915" stroke="#0074ff" stroke-width="2" /><polyline fill="none" points="55.539,19.9593 61.1797,21.261" stroke="#0098ff" stroke-width="2" /><polyline fill="none" points="61.6136,21.261 66.3864,13.8847" stroke="#00bcff" stroke-width="2" /><polyline fill="none" points="66.3864,15.6203 74.6305,8.678" stroke="#00e0fa" stroke-width="2" /><polyline fill="none" points="73.7627,8.678 75.4983,11.2814 75.9322,18.2237" stroke="#18ffdd" stroke-width="2" /><polyline fill="none" points="74.6305,17.3559 74.1966,25.1661" stroke="#32ffc3" stroke-width="2" /><polyline fill="none" points="74.6305,25.1661 75.9322,29.5051" stroke="#4fffa6" stroke-width="2" /><polyline fill="none" points="75.9322,29.939 78.1017,36.0136 78.5356,50.7661" stroke="#6cff89" stroke-width="2" /><polyline fill="none" points="78.5356,42.0881 75.9322,49.4644 71.5932,55.9729" stroke="#89ff6c" stroke-width="2" /><polyline fill="none" points="75.9322,50.3322 74.1966,55.539 66.3864,60.7458" stroke="#a6ff4f" stroke-width="2" /><polyline fill="none" points="70.7254,59.0102 58.5763,65.9525" stroke="#c3ff32" stroke-width="2" /><polyline fill="none" points="62.9153,62.9153 53.3695,65.5186 45.1254,65.5186" stroke="#ddff18" stroke-width="2" /><polyline fill="none" points="51.2,66.3864 32.5424,62.9153" stroke="#faf000" stroke-width="2" /><polyline fill="none" points="39.0508,64.6508 32.9763,61.6136 29.0712,57.7085" stroke="#ffcf00" stroke-width="2" /><polyline fill="none" points="29.0712,61.1797 26.0339,45.1254" stroke="#ffae00" stroke-width="2" /><polyline fill="none" points="26.0339,47.7288 24.7322,41.2203 25.1661,35.1458" stroke="#ff8c00" stroke-width="2" /><polyline fill="none" points="31.2407,45.1254 8.678,39.9186" stroke="#ff6b00" stroke-width="2" /><polyline fill="none" points="30.3729,49.0305 11.2814,49.8983" stroke="#ff4d00" stroke-width="2" /><polyline fill="none" points="28.6373,53.3695 18.6576,55.539 15.6203,59.4441" stroke="#ff2c00" stroke-width="2" /><polyline fill="none" points="61.6136,44.2576 90.2508,39.4847 119.322,38.6169" stroke="#f50b00" stroke-width="2" /><polyline fill="none" points="68.122,47.7288 80.7051,47.2949 92.8542,50.3322" stroke="#cc0000" stroke-width="2" /><polyline fill="none" points="72.8949,52.5017 82.4407,58.5763 102.8339,65.0847" stroke="#a30000" stroke-width="2" /><polyline fill="none" points="55.9729,36.8814 60.3119,34.7119 63.7831,35.1458 61.1797,36.4475 59.0102,33.8441" stroke="#7f0000" stroke-width="2" /></svg>