<?xml version="1.0" encoding="utf-8" ?>
<svg baseProfile="tiny" height="128" version="1.2" viewBox="0,0,128,128" width="128" xmlns="http://www.w3.org/2000/svg" xmlns:ev="http://www.w3.org/2001/xml-events" xmlns:xlink="http://www.w3.org/1999/xlink"><defs /><polyline fill="none" points="54.2373,68.9898 39.0508,68.122 32.9763,65.9525 25.1661,62.0475 17.7898,54.6712 15.1864,47.2949 16.0542,39.9186 21.6949,35.5797 32.5424,31.6746 36.4475,24.7322 35.1458,19.5254 23.8644,8.678 22.9966,9.9797 26.4678,16.4881 27.3356,22.9966 26.0339,24.2983 14.7525,25.1661 11.7153,30.3729 8.678,45.5593 9.1119,53.8034 13.4508,63.3492 16.922,68.122 27.3356,72.8949 49.8983,75.9322 52.5017,87.6475 61.6136,98.4949 71.1593,98.061 73.7627,96.3254 68.122,90.2508 60.7458,88.5153 59.878,82.0068 62.0475,79.8373 71.5932,77.6678 77.2339,80.7051 80.7051,80.7051 91.5525,75.0644" stroke="#00007f" stroke-width="2" /><polyline fill="none" points="89.8169,74.6305 94.5898,89.8169 98.9288,93.722 102.4,95.0237 105.8712,93.722 109.3424,89.8169 109.7763,88.0814 101.9661,85.0441 97.6271,76.8 106.739,59.0102 115.4169,61.1797 119.322,57.7085 117.1525,52.9356 110.6441,47.2949 108.4746,39.4847 104.5695,47.7288 97.6271,49.8983 87.6475,59.878 70.7254,66.3864 50.7661,68.9898" stroke="#7cff79" stroke-width="2" /><polyline fill="none" points="113.6814,52.9356 111.5119,54.2373" stroke="#7f0000" stroke-width="2" /></svg>