<?xml version="1.0" encoding="utf-8" ?>
<svg baseProfile="tiny" height="128" version="1.2" viewBox="0,0,128,128" width="128" xmlns="http://www.w3.org/2000/svg" xmlns:ev="http://www.w3.org/2001/xml-events" xmlns:xlink="http://www.w3.org/1999/xlink"><defs /><polyline fill="none" points="22.9966,41.6542 22.9966,13.8847 28.2034,16.922 40.3525,33.8441 48.5966,28.2034 56.4068,26.9017 67.6881,26.9017 78.5356,30.8068 87.6475,8.678 94.5898,24.2983 99.3627,42.522 99.7966,61.6136 97.1932,69.4237 87.6475,83.3085 76.8,89.8169 72.0271,91.1186 62.0475,91.1186 36.0136,79.4034 31.2407,74.1966 28.2034,68.122 24.2983,50.7661" stroke="#00007f" stroke-width="2" /><polyline fill="none" points="42.9559,52.9356 52.9356,59.878" stroke="#0010ff" stroke-width="2" /><polyline fill="none" points="74.1966,58.1424 82.4407,49.4644" stroke="#00a4ff" stroke-width="2" /><polyline fill="none" points="63.3492,68.122 64.6508,70.2915 66.3864,70.2915 67.6881,68.122 63.7831,66.8203 63.3492,68.5559" stroke="#3fffb7" stroke-width="2" /><polyline fill="none" points="46.861,74.1966 27.3356,74.6305 8.678,78.5356" stroke="#b7ff3f" stroke-width="2" /><polyline fill="none" points="43.8237,84.6102 32.9763,88.0814 23.4305,94.5898" stroke="#ffb900" stroke-width="2" /><polyline fill="none" points="89.8169,68.5559 119.322,66.3864" stroke="#ff3000" stroke-width="2" /><polyline fill="none" points="93.722,73.3288 98.9288,75.9322 111.5119,86.7797" stroke="#7f0000" stroke-width="2" /></svg>