<?xml version="1.0" encoding="utf-8" ?>
<svg baseProfile="tiny" height="128" version="1.2" viewBox="0,0,128,128" width="128" xmlns="http://www.w3.org/2000/svg" xmlns:ev="http://www.w3.org/2001/xml-events" xmlns:xlink="http://www.w3.org/1999/xlink"><defs /><polyline fill="none" points="82.0068,39.9186 62.0475,47.7288 37.3153,60.3119 26.4678,70.2915 23.8644,75.9322 24.7322,80.7051 33.4102,87.6475 42.522,90.2508 53.8034,90.6847 72.0271,89.3831 87.2136,82.4407 94.1559,76.8 98.4949,70.2915 99.7966,57.2746 98.9288,53.3695 95.0237,46.861 81.5729,37.7492" stroke="#00007f" stroke-width="2" /><polyline fill="none" points="79.4034,39.9186 100.2305,18.6576 119.322,8.678 104.1356,62.0475 101.0983,67.2542" stroke="#004cff" stroke-width="2" /><polyline fill="none" points="49.8983,52.9356 31.2407,22.5627 22.9966,16.0542 22.9966,22.1288 32.1085,65.0847" stroke="#29ffcd" stroke-width="2" /><polyline fill="none" points="71.5932,65.9525 91.9864,77.6678 101.5322,88.9492 107.6068,101.0983" stroke="#cdff29" stroke-width="2" /><polyline fill="none" points="49.0305,65.9525 37.7492,73.3288 24.2983,86.7797 14.3186,101.5322 8.678,116.2847" stroke="#ff6700" stroke-width="2" /><polyline fill="none" points="80.2712,49.0305 75.4983,54.2373 74.6305,61.1797 77.2339,63.7831 82.4407,63.7831 81.139,56.4068 80.2712,55.1051 78.1017,55.1051" stroke="#7f0000" stroke-width="2" /></svg>