<?xml version="1.0" encoding="utf-8" ?>
<svg baseProfile="tiny" height="128" version="1.2" viewBox="0,0,128,128" width="128" xmlns="http://www.w3.org/2000/svg" xmlns:ev="http://www.w3.org/2001/xml-events" xmlns:xlink="http://www.w3.org/1999/xlink"><defs /><polyline fill="none" points="43.3898,42.9559 44.2576,26.9017 47.2949,9.5458 50.7661,13.8847 62.0475,42.0881" stroke="#00007f" stroke-width="2" /><polyline fill="none" points="64.6508,45.1254 67.2542,34.278 72.461,23.8644 83.7424,8.678 86.3458,10.8475 92.8542,41.6542" stroke="#0000e8" stroke-width="2" /><polyline fill="none" points="50.3322,47.7288 48.5966,41.2203 48.1627,32.1085 51.2,33.8441 55.1051,41.2203" stroke="#0038ff" stroke-width="2" /><polyline fill="none" points="80.7051,41.6542 82.4407,31.2407 83.3085,28.2034 85.478,26.9017 90.2508,40.3525" stroke="#0094ff" stroke-width="2" /><polyline fill="none" points="39.4847,47.7288 33.4102,54.6712 29.939,62.9153 29.939,75.9322 32.5424,84.1763 39.4847,91.9864 44.6915,94.5898 52.5017,95.8915 64.2169,94.1559 71.5932,91.9864 83.3085,83.7424 94.1559,72.0271 100.2305,62.0475 101.9661,55.9729 100.6644,49.0305 94.5898,39.4847 90.2508,37.3153" stroke="#0cf4ea" stroke-width="2" /><polyline fill="none" points="50.3322,67.6881 37.7492,73.7627 14.7525,82.0068 8.678,86.7797" stroke="#56ffa0" stroke-width="2" /><polyline fill="none" points="60.3119,76.8 49.8983,80.7051 26.0339,101.0983" stroke="#a0ff56" stroke-width="2" /><polyline fill="none" points="73.3288,79.8373 57.7085,91.9864 48.1627,104.5695" stroke="#eaff0c" stroke-width="2" /><polyline fill="none" points="84.1763,64.2169 100.2305,66.8203 119.322,67.6881" stroke="#ffaa00" stroke-width="2" /><polyline fill="none" points="84.6102,76.3661 108.4746,84.1763" stroke="#ff5500" stroke-width="2" /><polyline fill="none" points="78.9695,80.2712 106.3051,95.0237" stroke="#e80000" stroke-width="2" /><polyline fill="none" points="68.9898,65.9525 71.1593,65.0847" stroke="#7f0000" stroke-width="2" /></svg>