<?xml version="1.0" encoding="utf-8" ?>
<svg baseProfile="tiny" height="128" version="1.2" viewBox="0,0,128,128" width="128" xmlns="http://www.w3.org/2000/svg" xmlns:ev="http://www.w3.org/2001/xml-events" xmlns:xlink="http://www.w3.org/1999/xlink"><defs /><polyline fill="none" points="60.3119,25.1661 54.6712,24.2983 45.9932,26.9017 36.8814,32.1085 29.939,39.0508 26.9017,43.3898 22.9966,52.5017 21.261,70.2915 28.2034,82.0068 35.5797,88.5153 51.6339,91.9864 70.2915,91.9864 87.6475,85.9119 101.5322,75.9322 105.8712,68.122 107.1729,60.3119 106.3051,51.6339 99.7966,40.3525 96.3254,36.8814 82.0068,31.2407 65.0847,27.7695 49.8983,27.3356 42.522,29.0712 29.939,40.7864 29.0712,16.0542 30.3729,13.8847 33.8441,14.3186 42.9559,24.7322 48.1627,27.3356" stroke="#00007f" stroke-width="2" /><polyline fill="none" points="83.3085,31.2407 81.139,30.3729 81.5729,28.6373 97.1932,8.678 96.3254,34.278 98.9288,37.7492" stroke="#0000ff" stroke-width="2" /><polyline fill="none" points="44.6915,59.878 27.3356,53.8034 8.678,50.3322" stroke="#0080ff" stroke-width="2" /><polyline fill="none" points="48.5966,68.122 38.1831,64.6508 12.5831,65.5186" stroke="#15ffe1" stroke-width="2" /><polyline fill="none" points="47.2949,74.6305 32.1085,77.6678 22.5627,83.3085 15.1864,90.2508" stroke="#7cff79" stroke-width="2" /><polyline fill="none" points="76.8,58.1424 86.3458,57.7085 119.322,50.7661" stroke="#e4ff12" stroke-width="2" /><polyline fill="none" points="77.2339,63.3492 114.1153,66.3864" stroke="#ff9400" stroke-width="2" /><polyline fill="none" points="76.3661,69.8576 88.9492,77.6678 103.7017,84.1763" stroke="#ff1d00" stroke-width="2" /><polyline fill="none" points="43.8237,42.522 43.3898,45.1254 43.8237,42.522 44.6915,44.2576 47.2949,44.2576" stroke="#7f0000" stroke-width="2" /></svg>