<?xml version="1.0" encoding="utf-8" ?>
<svg baseProfile="tiny" height="128" version="1.2" viewBox="0,0,128,128" width="128" xmlns="http://www.w3.org/2000/svg" xmlns:ev="http://www.w3.org/2001/xml-events" xmlns:xlink="http://www.w3.org/1999/xlink"><defs /><polyline fill="none" points="105.0034,38.6169 96.3254,36.0136 82.0068,35.1458 72.0271,36.4475 55.1051,41.2203 43.3898,47.2949 34.278,54.2373 23.8644,67.6881 21.261,80.7051 22.9966,88.9492" stroke="#00007f" stroke-width="2" /><polyline fill="none" points="33.4102,102.8339 45.5593,108.0407 59.878,109.7763 75.0644,107.6068 104.5695,92.4203 110.2102,86.3458 114.9831,78.9695 118.8881,66.3864 118.8881,54.6712 115.8508,45.1254 112.3797,40.3525 108.0407,37.3153 100.6644,35.1458 92.8542,35.5797" stroke="#0010ff" stroke-width="2" /><polyline fill="none" points="32.5424,61.1797 22.1288,46.4271 15.6203,32.9763 8.678,8.678 31.2407,19.9593 52.5017,42.0881" stroke="#00a4ff" stroke-width="2" /><polyline fill="none" points="87.2136,39.0508 98.4949,26.0339 108.9085,17.3559 114.1153,16.0542 118.4542,20.3932 119.322,23.4305 118.4542,44.6915" stroke="#3fffb7" stroke-width="2" /><polyline fill="none" points="69.4237,79.4034 67.2542,82.4407 68.9898,82.4407" stroke="#b7ff3f" stroke-width="2" /><polyline fill="none" points="72.461,78.5356 46.861,77.6678" stroke="#ffb900" stroke-width="2" /><polyline fill="none" points="67.2542,82.8746 48.1627,93.722" stroke="#ff3000" stroke-width="2" /><polyline fill="none" points="75.0644,78.5356 78.9695,80.7051" stroke="#7f0000" stroke-width="2" /></svg>