<?xml version="1.0" encoding="utf-8" ?>
<svg baseProfile="tiny" height="128" version="1.2" viewBox="0,0,128,128" width="128" xmlns="http://www.w3.org/2000/svg" xmlns:ev="http://www.w3.org/2001/xml-events" xmlns:xlink="http://www.w3.org/1999/xlink"><defs /><polyline fill="none" points="42.9559,50.7661 29.5051,50.7661 22.5627,52.9356 16.922,60.7458 9.9797,76.3661 8.678,101.9661 13.4508,108.0407 19.0915,110.2102 47.2949,118.0203 63.7831,119.322 82.0068,119.322 101.9661,110.2102 106.739,104.5695 114.5492,90.6847 113.6814,68.122 110.2102,60.3119 104.5695,53.3695 98.9288,49.8983 91.9864,46.4271 78.5356,42.9559 59.0102,42.9559 47.2949,49.8983 31.6746,50.7661" stroke="#00007f" stroke-width="2" /><polyline fill="none" points="21.261,41.6542 21.261,14.3186 23.4305,8.678 40.3525,25.6 48.5966,31.6746 52.0678,37.3153 53.3695,37.3153" stroke="#0010ff" stroke-width="2" /><polyline fill="none" points="85.0441,47.2949 85.0441,36.0136 87.2136,30.3729 92.8542,26.0339 102.4,13.4508 105.4373,22.5627 106.739,55.539" stroke="#00a4ff" stroke-width="2" /><polyline fill="none" points="42.9559,72.461 42.9559,72.461" stroke="#3fffb7" stroke-width="2" /><polyline fill="none" points="53.3695,66.8203 53.3695,66.8203" stroke="#b7ff3f" stroke-width="2" /><polyline fill="none" points="53.3695,66.8203 38.1831,72.461" stroke="#ffb900" stroke-width="2" /><polyline fill="none" points="79.4034,78.1017 79.4034,74.6305" stroke="#ff3000" stroke-width="2" /><polyline fill="none" points="46.4271,90.6847 52.0678,90.6847 63.7831,96.3254 72.461,96.3254" stroke="#7f0000" stroke-width="2" /></svg>