<?xml version="1.0" encoding="utf-8" ?>
<svg baseProfile="tiny" height="128" version="1.2" viewBox="0,0,128,128" width="128" xmlns="http://www.w3.org/2000/svg" xmlns:ev="http://www.w3.org/2001/xml-events" xmlns:xlink="http://www.w3.org/1999/xlink"><defs /><polyline fill="none" points="39.9186,21.261 33.8441,22.9966 17.7898,34.7119 9.5458,52.0678 8.678,62.9153 11.7153,68.122 20.3932,74.1966 29.939,78.5356 53.3695,84.6102 104.1356,84.1763 108.0407,82.4407 112.8136,77.2339 119.322,61.1797 118.4542,52.9356 114.1153,43.8237 101.0983,33.4102 55.1051,20.3932 35.1458,19.5254" stroke="#00007f" stroke-width="2" /><polyline fill="none" points="46.861,33.4102 39.9186,32.5424 34.7119,34.278 33.4102,35.5797 33.4102,39.0508 39.0508,42.522 45.5593,41.2203 46.861,36.4475 42.9559,30.8068" stroke="#0000c8" stroke-width="2" /><polyline fill="none" points="87.2136,39.0508 78.5356,39.4847 75.0644,42.9559 76.8,45.9932 85.9119,48.5966 85.9119,41.6542" stroke="#0000ff" stroke-width="2" /><polyline fill="none" points="59.0102,49.4644 58.5763,53.3695 55.1051,59.0102 49.0305,62.0475 42.9559,59.0102 41.6542,55.539 42.9559,55.1051" stroke="#0040ff" stroke-width="2" /><polyline fill="none" points="58.1424,49.8983 58.5763,56.8407 61.1797,63.3492 65.0847,64.6508 70.7254,59.878" stroke="#0080ff" stroke-width="2" /><polyline fill="none" points="88.9492,27.7695 108.9085,16.922 110.2102,36.8814" stroke="#00c0ff" stroke-width="2" /><polyline fill="none" points="38.6169,19.5254 30.8068,9.5458 29.0712,8.678 25.6,10.4136 20.3932,26.4678 20.3932,28.6373 22.1288,29.939" stroke="#15ffe1" stroke-width="2" /><polyline fill="none" points="36.0136,55.539 24.7322,53.8034" stroke="#49ffad" stroke-width="2" /><polyline fill="none" points="33.8441,61.6136 29.0712,61.6136" stroke="#7cff79" stroke-width="2" /><polyline fill="none" points="36.0136,65.0847 32.1085,68.122" stroke="#b0ff46" stroke-width="2" /><polyline fill="none" points="74.6305,54.2373 92.4203,52.0678" stroke="#e4ff12" stroke-width="2" /><polyline fill="none" points="82.0068,59.878 99.3627,60.3119" stroke="#ffcf00" stroke-width="2" /><polyline fill="none" points="82.8746,65.9525 95.4576,70.7254" stroke="#ff9400" stroke-width="2" /><polyline fill="none" points="81.5729,43.3898 79.8373,43.3898" stroke="#ff5900" stroke-width="2" /><polyline fill="none" points="42.9559,36.4475 36.4475,36.8814" stroke="#ff1d00" stroke-width="2" /><polyline fill="none" points="25.6,23.8644 29.939,14.3186 31.6746,15.1864 35.5797,21.261" stroke="#c30000" stroke-width="2" /><polyline fill="none" points="92.8542,31.2407 104.5695,26.4678 105.8712,35.1458" stroke="#7f0000" stroke-width="2" /></svg>