<?xml version="1.0" encoding="utf-8" ?>
<svg baseProfile="tiny" height="128" version="1.2" viewBox="0,0,128,128" width="128" xmlns="http://www.w3.org/2000/svg" xmlns:ev="http://www.w3.org/2001/xml-events" xmlns:xlink="http://www.w3.org/1999/xlink"><defs /><polyline fill="none" points="31.6746,45.9932 30.8068,24.2983 32.5424,9.1119 41.2203,26.9017 75.4983,26.9017 85.0441,16.922 88.5153,8.678 100.2305,62.4814 93.2881,69.4237 84.6102,73.3288 71.1593,75.4983 41.2203,75.4983 37.7492,71.1593 33.8441,62.4814 33.4102,46.4271 32.1085,42.0881" stroke="#00007f" stroke-width="2" /><polyline fill="none" points="50.3322,48.1627 63.3492,47.2949 52.9356,47.2949" stroke="#0000e8" stroke-width="2" /><polyline fill="none" points="55.539,47.7288 56.4068,57.2746 54.2373,58.5763 52.0678,57.7085" stroke="#0038ff" stroke-width="2" /><polyline fill="none" points="54.6712,56.8407 59.0102,57.2746 60.3119,55.539" stroke="#0094ff" stroke-width="2" /><polyline fill="none" points="42.9559,34.7119 43.3898,35.5797" stroke="#0cf4ea" stroke-width="2" /><polyline fill="none" points="68.5559,34.7119 67.6881,35.5797 68.9898,36.0136 68.5559,34.7119" stroke="#56ffa0" stroke-width="2" /><polyline fill="none" points="41.6542,47.2949 14.7525,46.861" stroke="#a0ff56" stroke-width="2" /><polyline fill="none" points="36.8814,53.3695 22.9966,55.1051 8.678,59.0102" stroke="#eaff0c" stroke-width="2" /><polyline fill="none" points="35.5797,61.6136 22.1288,62.9153" stroke="#ffaa00" stroke-width="2" /><polyline fill="none" points="65.0847,48.1627 67.6881,45.5593 105.8712,35.5797" stroke="#ff5500" stroke-width="2" /><polyline fill="none" points="74.6305,48.5966 92.4203,47.7288" stroke="#e80000" stroke-width="2" /><polyline fill="none" points="73.3288,56.4068 89.8169,58.1424 119.322,65.0847" stroke="#7f0000" stroke-width="2" /></svg>