<?xml version="1.0" encoding="utf-8" ?>
<svg baseProfile="tiny" height="128" version="1.2" viewBox="0,0,128,128" width="128" xmlns="http://www.w3.org/2000/svg" xmlns:ev="http://www.w3.org/2001/xml-events" xmlns:xlink="http://www.w3.org/1999/xlink"><defs /><polyline fill="none" points="69.2245,65.7415 54.8571,60.0816 40.4898,59.2109 33.0884,60.517 21.7687,66.1769 16.9796,70.5306 9.5782,84.4626 8.7075,97.0884 13.932,105.7959 27.4286,114.068 46.1497,118.8571 64.4354,119.2925 72.2721,117.1156 83.1565,109.7143 86.2041,105.3605 87.9456,98.8299 87.0748,90.9932 84.0272,83.1565 78.8027,75.7551 62.6939,63.5646" stroke="#00007f" stroke-width="2" /><polyline fill="none" points="51.8095,20.4626 43.5374,20.4626 32.2177,24.8163 26.5578,31.3469 23.5102,40.0544 24.8163,48.7619 30.4762,54.8571 35.7007,57.9048 53.551,63.1293 62.2585,62.2585 65.7415,60.9524 69.6599,55.7279 70.966,50.5034 69.2245,39.619 61.8231,30.0408 51.3741,22.6395" stroke="#0000d5" stroke-width="2" /><polyline fill="none" points="26.5578,26.9932 28.2993,11.7551 30.0408,12.1905 38.3129,20.0272" stroke="#001cff" stroke-width="2" /><polyline fill="none" points="51.8095,25.2517 57.034,14.3673 61.3878,8.7075 63.5646,10.8844 64.0,24.381" stroke="#006cff" stroke-width="2" /><polyline fill="none" points="70.0952,84.0272 63.5646,86.6395 60.0816,86.2041 54.8571,82.2857" stroke="#00b8ff" stroke-width="2" /><polyline fill="none" points="38.3129,78.3673 30.9116,81.415 24.381,77.4966" stroke="#1cffda" stroke-width="2" /><polyline fill="none" points="53.551,40.9252 40.9252,40.9252 42.6667,45.2789 46.585,46.1497 48.7619,44.8435" stroke="#5cff9a" stroke-width="2" /><polyline fill="none" points="38.7483,46.585 8.7075,37.4422" stroke="#9aff5c" stroke-width="2" /><polyline fill="none" points="38.7483,50.5034 29.1701,48.7619 14.8027,49.1973" stroke="#daff1c" stroke-width="2" /><polyline fill="none" points="29.6054,53.551 17.415,51.8095" stroke="#ffcb00" stroke-width="2" /><polyline fill="none" points="57.9048,46.1497 69.2245,43.5374" stroke="#ff8500" stroke-width="2" /><polyline fill="none" points="46.585,50.068 54.8571,49.6327 80.5442,53.9864" stroke="#ff3b00" stroke-width="2" /><polyline fill="none" points="55.2925,53.551 66.6122,53.1156 83.5918,57.9048" stroke="#d50000" stroke-width="2" /><polyline fill="none" points="87.9456,92.2993 105.3605,78.3673 110.585,70.5306 112.7619,62.6939" stroke="#7f0000" stroke-width="2" /></svg>