<?xml version="1.0" encoding="utf-8" ?>
<svg baseProfile="tiny" height="128" version="1.2" viewBox="0,0,128,128" width="128" xmlns="http://www.w3.org/2000/svg" xmlns:ev="http://www.w3.org/2001/xml-events" xmlns:xlink="http://www.w3.org/1999/xlink"><defs /><polyline fill="none" points="62.0475,34.278 55.9729,33.4102 49.0305,39.0508 45.1254,45.9932 43.3898,52.9356 43.3898,67.6881 46.4271,74.1966 52.0678,78.9695 59.0102,81.5729 67.2542,81.5729 74.6305,79.8373 81.5729,74.1966 85.9119,66.3864 87.6475,58.5763 86.3458,42.522 82.0068,35.5797 76.3661,29.5051 70.2915,26.0339 64.6508,25.1661 57.7085,27.7695" stroke="#00007f" stroke-width="2" /><polyline fill="none" points="41.2203,59.878 41.2203,23.8644 43.3898,13.0169 53.3695,35.5797" stroke="#0028ff" stroke-width="2" /><polyline fill="none" points="65.9525,33.8441 66.8203,30.8068 71.5932,24.7322 84.1763,12.1492 89.3831,8.678 84.1763,32.1085 83.3085,42.522" stroke="#00d4ff" stroke-width="2" /><polyline fill="none" points="63.3492,57.7085 48.1627,63.3492 36.0136,72.0271 22.9966,84.6102 8.678,102.4" stroke="#7cff79" stroke-width="2" /><polyline fill="none" points="66.3864,61.6136 56.4068,68.5559 38.6169,88.0814 31.2407,99.3627 27.7695,107.6068" stroke="#ffe500" stroke-width="2" /><polyline fill="none" points="74.1966,55.1051 83.7424,51.6339 105.0034,52.5017 114.1153,55.1051" stroke="#ff4600" stroke-width="2" /><polyline fill="none" points="75.4983,63.3492 78.9695,61.6136 84.1763,61.6136 93.2881,63.7831 112.8136,75.9322 119.322,82.8746" stroke="#7f0000" stroke-width="2" /></svg>