<?xml version="1.0" encoding="utf-8" ?>
<svg baseProfile="tiny" height="128" version="1.2" viewBox="0,0,128,128" width="128" xmlns="http://www.w3.org/2000/svg" xmlns:ev="http://www.w3.org/2001/xml-events" xmlns:xlink="http://www.w3.org/1999/xlink"><defs /><polyline fill="none" points="72.2878,33.1511 69.9856,23.9424 66.3022,17.4964 53.4101,9.2086 48.8058,29.4676 47.4245,51.1079 50.6475,48.3453" stroke="#00007f" stroke-width="2" /><polyline fill="none" points="72.2878,31.7698 79.1942,27.6259 85.1799,27.6259 94.8489,40.518 98.0719,30.3885 104.518,23.9424 110.964,11.0504 111.4245,21.6403 116.9496,41.8993 117.4101,56.1727 108.2014,78.7338 104.518,80.5755 101.295,86.1007 100.8345,84.259" stroke="#0000de" stroke-width="2" /><polyline fill="none" points="45.5827,48.3453 47.4245,48.8058 47.4245,62.1583 48.8058,68.6043 55.2518,81.4964 58.4748,85.6403 60.777,78.2734" stroke="#0028ff" stroke-width="2" /><polyline fill="none" points="94.3885,52.4892 91.1655,52.0288 89.7842,57.0935 89.7842,59.3957 92.5468,59.3957 92.5468,53.4101 91.1655,54.3309" stroke="#0080ff" stroke-width="2" /><polyline fill="none" points="62.6187,52.0288 62.6187,49.7266 60.3165,51.1079 60.777,53.8705 64.9209,52.9496 65.3813,47.8849 64.4604,46.964 61.6978,51.1079" stroke="#00d4ff" stroke-width="2" /><polyline fill="none" points="76.4317,62.6187 75.5108,65.8417 75.9712,75.9712 77.3525,77.3525 81.036,77.3525 82.4173,72.7482" stroke="#36ffc0" stroke-width="2" /><polyline fill="none" points="75.5108,63.0791 70.9065,75.5108 67.6835,77.3525 66.3022,75.5108" stroke="#7cff79" stroke-width="2" /><polyline fill="none" points="98.9928,68.1439 115.5683,67.223 118.7914,65.3813" stroke="#c0ff36" stroke-width="2" /><polyline fill="none" points="98.0719,72.7482 102.2158,73.6691 106.8201,77.8129 115.5683,80.5755" stroke="#ffe500" stroke-width="2" /><polyline fill="none" points="93.0072,75.5108 95.7698,76.8921 102.6763,86.1007 104.9784,87.482 105.8993,86.5612" stroke="#ff9400" stroke-width="2" /><polyline fill="none" points="56.6331,64.9209 49.7266,64.0 9.2086,63.5396" stroke="#ff4600" stroke-width="2" /><polyline fill="none" points="55.7122,69.9856 27.1655,77.3525 36.3741,78.2734" stroke="#de0000" stroke-width="2" /><polyline fill="none" points="59.3957,70.9065 20.259,93.4676" stroke="#7f0000" stroke-width="2" /></svg>