<?xml version="1.0" encoding="utf-8" ?>
<svg baseProfile="tiny" height="128" version="1.2" viewBox="0,0,128,128" width="128" xmlns="http://www.w3.org/2000/svg" xmlns:ev="http://www.w3.org/2001/xml-events" xmlns:xlink="http://www.w3.org/1999/xlink"><defs /><polyline fill="none" points="37.7492,64.6508 35.5797,51.2 36.0136,48.5966 38.1831,47.7288 42.0881,47.2949 53.8034,52.5017 86.3458,55.539 110.2102,40.7864 112.8136,56.4068 112.8136,65.0847 118.8881,78.9695 119.322,87.6475 118.4542,90.2508 103.7017,105.0034 94.5898,110.6441 81.5729,111.9458 73.7627,111.078 55.1051,98.9288 48.1627,91.5525 42.522,80.7051 40.3525,70.2915" stroke="#00007f" stroke-width="2" /><polyline fill="none" points="66.3864,91.5525 72.8949,97.1932 75.0644,97.1932 77.6678,91.5525 79.4034,91.1186 84.1763,94.1559 89.3831,90.6847" stroke="#0000de" stroke-width="2" /><polyline fill="none" points="75.9322,87.6475 74.6305,82.8746 76.8,81.5729 81.139,85.0441 78.5356,88.9492" stroke="#0028ff" stroke-width="2" /><polyline fill="none" points="99.3627,80.7051 117.5864,79.8373" stroke="#0080ff" stroke-width="2" /><polyline fill="none" points="102.8339,84.1763 111.078,85.0441 117.1525,88.5153" stroke="#00d4ff" stroke-width="2" /><polyline fill="none" points="99.3627,86.7797 106.3051,97.1932 105.4373,98.9288" stroke="#36ffc0" stroke-width="2" /><polyline fill="none" points="52.9356,84.6102 44.6915,82.4407 30.8068,82.0068 28.2034,82.4407 26.0339,85.0441" stroke="#7cff79" stroke-width="2" /><polyline fill="none" points="52.5017,89.8169 47.7288,89.8169 41.2203,91.9864 35.5797,100.2305 35.5797,102.4 38.1831,104.1356" stroke="#c0ff36" stroke-width="2" /><polyline fill="none" points="55.1051,93.722 48.1627,102.4 46.861,110.6441 53.8034,115.4169" stroke="#ffe500" stroke-width="2" /><polyline fill="none" points="61.6136,69.8576 62.4814,70.7254" stroke="#ff9400" stroke-width="2" /><polyline fill="none" points="85.478,69.8576 85.9119,74.6305 84.6102,69.8576" stroke="#ff4600" stroke-width="2" /><polyline fill="none" points="8.678,24.2983 13.4508,26.9017 20.8271,35.5797 22.9966,25.1661 27.7695,19.5254 30.8068,20.3932 36.8814,31.2407 40.7864,20.3932 49.0305,13.0169 51.6339,18.2237 52.9356,25.1661" stroke="#de0000" stroke-width="2" /><polyline fill="none" points="74.1966,19.9593 75.0644,15.1864 67.6881,8.678 61.1797,13.8847 60.7458,25.6 63.7831,29.5051 71.5932,31.6746 78.9695,29.0712 81.5729,24.7322 81.5729,17.7898" stroke="#7f0000" stroke-width="2" /></svg>