<?xml version="1.0" encoding="utf-8" ?>
<svg baseProfile="tiny" height="128" version="1.2" viewBox="0,0,128,128" width="128" xmlns="http://www.w3.org/2000/svg" xmlns:ev="http://www.w3.org/2001/xml-events" xmlns:xlink="http://www.w3.org/1999/xlink"><defs /><polyline fill="none" points="64.8707,31.3469 53.9864,33.0884 42.6667,39.1837 33.0884,47.0204 28.7347,54.8571 32.6531,58.7755 41.7959,60.517 73.1429,60.9524 89.6871,57.4694 97.9592,54.4218 103.1837,48.3265 103.1837,40.9252 96.6531,34.3946 84.898,30.4762 73.5782,30.4762 56.5986,32.6531" stroke="#00007f" stroke-width="2" /><polyline fill="none" points="39.619,61.3878 37.4422,78.8027 41.7959,74.449 44.8435,68.7891 45.2789,62.6939 42.6667,60.9524 38.7483,62.6939" stroke="#0000ff" stroke-width="2" /><polyline fill="none" points="50.068,60.0816 49.1973,79.2381 55.7279,70.966 56.5986,64.0 55.2925,59.6463 49.1973,62.6939" stroke="#0080ff" stroke-width="2" /><polyline fill="none" points="90.1224,57.4694 89.2517,77.932 94.4762,69.2245 94.0408,56.1633" stroke="#15ffe1" stroke-width="2" /><polyline fill="none" points="96.2177,54.8571 99.2653,78.8027 102.3129,66.1769 102.3129,59.2109 100.1361,53.9864" stroke="#7cff79" stroke-width="2" /><polyline fill="none" points="33.0884,48.7619 26.9932,46.585 9.1429,46.1497 8.7075,48.7619" stroke="#e4ff12" stroke-width="2" /><polyline fill="none" points="96.2177,34.8299 103.619,21.7687 110.1497,16.9796 113.6327,16.9796 114.5034,24.8163 112.3265,31.7823 109.2789,37.4422 104.0544,40.9252" stroke="#ff9400" stroke-width="2" /><polyline fill="none" points="103.1837,25.6871 101.4422,16.5442 102.3129,10.0136 105.7959,8.7075 107.5374,10.8844 107.102,20.4626" stroke="#ff1d00" stroke-width="2" /><polyline fill="none" points="111.4558,25.6871 117.1156,21.7687 119.2925,21.3333 118.8571,22.6395 114.5034,30.9116 109.2789,33.9592" stroke="#7f0000" stroke-width="2" /></svg>