<?xml version="1.0" encoding="utf-8" ?>
<svg baseProfile="tiny" height="128" version="1.2" viewBox="0,0,128,128" width="128" xmlns="http://www.w3.org/2000/svg" xmlns:ev="http://www.w3.org/2001/xml-events" xmlns:xlink="http://www.w3.org/1999/xlink"><defs /><polyline fill="none" points="46.585,30.4762 39.619,24.8163 22.6395,21.3333 15.2381,23.9456 11.3197,26.5578 8.7075,32.2177 12.1905,41.7959 15.6735,46.585 22.6395,50.9388 30.9116,52.2449 40.9252,49.1973 48.3265,44.4082 49.6327,40.0544 45.7143,35.2653 46.585,30.0408" stroke="#00007f" stroke-width="2" /><polyline fill="none" points="37.0068,20.898 39.619,20.898 51.8095,10.8844 52.6803,13.0612 46.585,33.9592 45.2789,35.2653" stroke="#004cff" stroke-width="2" /><polyline fill="none" points="15.2381,21.3333 20.0272,18.2857 26.9932,8.7075 25.2517,24.8163" stroke="#29ffcd" stroke-width="2" /><polyline fill="none" points="49.6327,38.7483 54.8571,36.5714 64.4354,36.5714 84.0272,43.102 94.4762,49.6327 108.4082,64.8707 117.551,83.5918 119.2925,90.9932 115.3741,95.3469 106.6667,97.0884 91.8639,96.2177 70.0952,91.4286 60.517,86.6395 53.1156,73.5782 43.9728,63.5646 38.7483,53.1156 37.4422,47.0204" stroke="#cdff29" stroke-width="2" /><polyline fill="none" points="38.3129,51.8095 45.7143,84.0272 45.7143,88.381 41.7959,93.1701 39.619,93.1701 37.0068,85.3333 39.619,67.9184 36.5714,60.9524 36.1361,55.7279 32.2177,48.7619 33.9592,91.8639 33.0884,94.0408 30.4762,94.4762 28.2993,93.1701 25.6871,88.381 24.381,61.3878 27.8639,54.4218" stroke="#ff6700" stroke-width="2" /><polyline fill="none" points="98.8299,97.5238 98.8299,97.5238" stroke="#7f0000" stroke-width="2" /></svg>