<?xml version="1.0" encoding="utf-8" ?>
<svg baseProfile="tiny" height="128" version="1.2" viewBox="0,0,128,128" width="128" xmlns="http://www.w3.org/2000/svg" xmlns:ev="http://www.w3.org/2001/xml-events" xmlns:xlink="http://www.w3.org/1999/xlink"><defs /><polyline fill="none" points="53.3695,33.8441 43.3898,33.8441 34.278,36.8814 24.7322,43.8237 13.8847,55.9729 9.9797,63.7831 8.678,77.6678 10.8475,85.478 16.0542,94.1559 22.5627,100.6644 28.2034,104.1356 37.3153,107.6068 50.7661,109.3424 66.3864,108.0407 79.8373,104.5695 87.2136,100.6644 92.4203,94.5898 95.8915,84.6102 97.1932,65.9525 96.7593,59.4441 91.9864,49.0305 85.478,42.0881 75.9322,36.8814 51.2,30.8068" stroke="#00007f" stroke-width="2" /><polyline fill="none" points="18.2237,47.2949 13.0169,23.8644 12.1492,8.678 24.7322,19.0915 33.4102,24.2983" stroke="#004cff" stroke-width="2" /><polyline fill="none" points="80.7051,35.1458 89.8169,25.6 95.8915,21.261 104.1356,16.0542 117.1525,10.4136 119.322,22.5627 118.8881,35.5797 117.1525,43.3898 112.3797,54.2373" stroke="#29ffcd" stroke-width="2" /><polyline fill="none" points="40.3525,54.2373 38.1831,59.4441 39.4847,64.2169 44.6915,63.3492 47.2949,59.878 45.9932,53.8034 42.9559,52.5017 40.3525,55.1051" stroke="#cdff29" stroke-width="2" /><polyline fill="none" points="63.3492,55.9729 61.6136,55.539 59.0102,57.7085 58.1424,62.9153 60.7458,67.6881 63.3492,68.5559 65.5186,67.6881 66.3864,62.9153 65.9525,56.4068 62.9153,57.2746" stroke="#ff6700" stroke-width="2" /><polyline fill="none" points="43.8237,85.0441 50.7661,95.4576 54.6712,90.6847" stroke="#7f0000" stroke-width="2" /></svg>