<?xml version="1.0" encoding="utf-8" ?>
<svg baseProfile="tiny" height="128" version="1.2" viewBox="0,0,128,128" width="128" xmlns="http://www.w3.org/2000/svg" xmlns:ev="http://www.w3.org/2001/xml-events" xmlns:xlink="http://www.w3.org/1999/xlink"><defs /><polyline fill="none" points="56.8407,27.3356 44.6915,26.9017 31.6746,32.9763 17.7898,44.2576 11.2814,55.1051 8.678,63.7831 8.678,77.2339 13.4508,83.3085 19.0915,87.6475 32.1085,93.722 60.7458,98.9288 89.8169,98.4949 100.2305,93.2881 105.4373,88.9492 111.5119,79.8373 118.0203,64.6508 119.322,57.2746 118.4542,45.9932 113.2475,36.8814 105.4373,31.6746 86.3458,23.8644 73.7627,20.3932 47.7288,20.3932 44.6915,24.2983" stroke="#00007f" stroke-width="2" /><polyline fill="none" points="26.0339,32.9763 25.6,29.0712 29.939,17.7898 31.6746,14.3186 35.1458,12.1492 37.7492,12.5831 46.4271,22.1288 51.6339,23.8644" stroke="#0000cc" stroke-width="2" /><polyline fill="none" points="83.7424,21.261 98.4949,8.678 102.8339,16.0542 106.3051,28.6373" stroke="#0008ff" stroke-width="2" /><polyline fill="none" points="44.2576,46.861 44.2576,46.861" stroke="#004cff" stroke-width="2" /><polyline fill="none" points="85.9119,44.6915 85.9119,44.6915" stroke="#0090ff" stroke-width="2" /><polyline fill="none" points="39.4847,46.4271 39.4847,46.4271" stroke="#00d4ff" stroke-width="2" /><polyline fill="none" points="45.9932,43.3898 45.5593,45.1254 41.2203,46.861" stroke="#29ffcd" stroke-width="2" /><polyline fill="none" points="83.7424,46.861 83.7424,45.1254 85.478,45.1254 85.9119,46.861" stroke="#5fff96" stroke-width="2" /><polyline fill="none" points="62.9153,63.7831 65.0847,62.4814" stroke="#96ff5f" stroke-width="2" /><polyline fill="none" points="63.3492,62.4814 48.1627,63.3492 36.0136,61.1797" stroke="#cdff29" stroke-width="2" /><polyline fill="none" points="51.6339,64.2169 50.3322,67.6881 23.8644,72.0271" stroke="#ffe500" stroke-width="2" /><polyline fill="none" points="60.3119,72.8949 42.0881,76.3661 34.278,78.9695 38.6169,79.8373 43.3898,78.5356" stroke="#ffa600" stroke-width="2" /><polyline fill="none" points="64.2169,63.3492 102.8339,53.3695" stroke="#ff6700" stroke-width="2" /><polyline fill="none" points="66.3864,68.122 98.4949,67.6881" stroke="#ff2800" stroke-width="2" /><polyline fill="none" points="75.4983,72.461 95.0237,77.2339" stroke="#cc0000" stroke-width="2" /><polyline fill="none" points="55.9729,81.139 56.4068,83.3085 61.1797,88.0814 69.8576,92.8542 83.3085,93.2881 88.5153,91.5525" stroke="#7f0000" stroke-width="2" /></svg>