<?xml version="1.0" encoding="utf-8" ?>
<svg baseProfile="tiny" height="128" version="1.2" viewBox="0,0,128,128" width="128" xmlns="http://www.w3.org/2000/svg" xmlns:ev="http://www.w3.org/2001/xml-events" xmlns:xlink="http://www.w3.org/1999/xlink"><defs /><polyline fill="none" points="58.5763,38.6169 43.3898,42.522 34.278,47.7288 27.3356,56.4068 23.8644,65.0847 23.8644,70.2915 24.7322,74.1966 28.2034,78.5356 42.9559,85.0441 61.1797,84.6102 72.0271,82.8746 85.9119,77.2339 90.2508,74.1966 95.4576,67.2542 95.4576,54.6712 92.8542,46.4271 87.6475,38.6169 79.8373,34.7119 61.1797,29.939" stroke="#00007f" stroke-width="2" /><polyline fill="none" points="29.0712,51.2 37.3153,31.6746 43.8237,8.678 47.7288,11.2814 50.3322,36.0136" stroke="#0000e8" stroke-width="2" /><polyline fill="none" points="66.3864,37.3153 71.5932,26.9017 82.4407,18.6576 85.0441,14.7525 86.3458,18.6576 85.478,41.2203" stroke="#0038ff" stroke-width="2" /><polyline fill="none" points="10.8475,49.0305 29.939,52.9356" stroke="#0094ff" stroke-width="2" /><polyline fill="none" points="8.678,68.9898 26.4678,63.7831" stroke="#0cf4ea" stroke-width="2" /><polyline fill="none" points="10.8475,85.478 10.8475,85.478" stroke="#56ffa0" stroke-width="2" /><polyline fill="none" points="93.2881,51.2 105.8712,49.0305 114.1153,50.3322 119.322,54.2373" stroke="#a0ff56" stroke-width="2" /><polyline fill="none" points="93.2881,63.7831 111.078,65.0847 116.7186,67.6881" stroke="#eaff0c" stroke-width="2" /><polyline fill="none" points="95.4576,72.461 95.4576,72.461" stroke="#ffaa00" stroke-width="2" /><polyline fill="none" points="26.4678,82.8746 30.3729,77.6678 34.7119,76.8" stroke="#ff5500" stroke-width="2" /><polyline fill="none" points="48.5966,58.5763 52.9356,60.7458 56.8407,58.5763 59.0102,54.2373 53.8034,54.2373" stroke="#e80000" stroke-width="2" /><polyline fill="none" points="75.4983,52.9356 79.8373,54.2373 82.8746,53.8034" stroke="#7f0000" stroke-width="2" /></svg>