<?xml version="1.0" encoding="utf-8" ?>
<svg baseProfile="tiny" height="128" version="1.2" viewBox="0,0,128,128" width="128" xmlns="http://www.w3.org/2000/svg" xmlns:ev="http://www.w3.org/2001/xml-events" xmlns:xlink="http://www.w3.org/1999/xlink"><defs /><polyline fill="none" points="33.8441,26.4678 33.8441,26.4678" stroke="#00007f" stroke-width="2" /><polyline fill="none" points="37.7492,27.3356 31.2407,30.3729 26.0339,35.5797 23.8644,43.8237 25.1661,49.8983 30.8068,60.3119 34.7119,63.3492 41.2203,63.3492 48.5966,59.0102 52.9356,54.2373 54.6712,48.1627 51.2,36.4475 48.1627,32.1085 43.3898,28.6373 38.6169,27.7695 36.0136,29.5051" stroke="#0000d5" stroke-width="2" /><polyline fill="none" points="39.9186,29.0712 46.4271,23.4305 52.9356,13.4508 60.3119,8.678 59.878,23.8644 57.7085,38.1831" stroke="#001cff" stroke-width="2" /><polyline fill="none" points="31.2407,29.939 24.2983,19.0915 18.2237,19.0915 15.6203,21.6949 20.3932,29.5051 30.3729,40.3525" stroke="#006cff" stroke-width="2" /><polyline fill="none" points="53.3695,43.3898 96.3254,32.9763 111.9458,33.4102 117.5864,35.1458 119.322,36.8814 118.8881,42.0881 115.8508,48.1627 110.6441,53.8034 86.7797,65.9525 77.2339,66.8203 65.9525,65.0847 54.6712,62.0475 49.4644,59.0102" stroke="#00b8ff" stroke-width="2" /><polyline fill="none" points="60.7458,62.4814 56.8407,78.5356 52.5017,87.2136 49.8983,88.5153 43.8237,87.6475 36.4475,81.5729" stroke="#1cffda" stroke-width="2" /><polyline fill="none" points="66.8203,65.5186 62.9153,87.2136 59.878,91.1186 54.6712,93.722 52.0678,93.2881" stroke="#5cff9a" stroke-width="2" /><polyline fill="none" points="36.0136,41.6542 8.678,36.0136" stroke="#9aff5c" stroke-width="2" /><polyline fill="none" points="103.7017,57.2746 101.5322,78.5356" stroke="#daff1c" stroke-width="2" /><polyline fill="none" points="101.5322,78.5356 100.6644,93.722" stroke="#ffcb00" stroke-width="2" /><polyline fill="none" points="42.9559,51.2 20.8271,52.9356" stroke="#ff8500" stroke-width="2" /><polyline fill="none" points="20.8271,52.9356 112.8136,55.1051" stroke="#ff3b00" stroke-width="2" /><polyline fill="none" points="52.0678,36.0136 69.4237,29.939 75.4983,29.5051 82.4407,31.2407 112.3797,95.8915" stroke="#d50000" stroke-width="2" /><polyline fill="none" points="49.8983,42.9559 59.0102,45.5593 71.1593,53.8034" stroke="#7f0000" stroke-width="2" /></svg>