<?xml version="1.0" encoding="utf-8" ?>
<svg baseProfile="tiny" height="128" version="1.2" viewBox="0,0,128,128" width="128" xmlns="http://www.w3.org/2000/svg" xmlns:ev="http://www.w3.org/2001/xml-events" xmlns:xlink="http://www.w3.org/1999/xlink"><defs /><polyline fill="none" points="27.3356,34.278 22.5627,33.8441 19.5254,36.0136 17.7898,39.9186 17.7898,59.4441 19.5254,65.5186 23.4305,72.0271 38.1831,84.1763 54.6712,91.5525 63.7831,94.5898 78.1017,95.0237 90.6847,84.6102 101.9661,66.3864 103.7017,52.0678 101.9661,46.861 98.061,41.2203 87.2136,35.5797 60.3119,29.939 35.5797,27.7695 30.8068,32.1085 27.3356,32.5424 23.8644,17.7898 13.0169,8.678 13.0169,38.1831" stroke="#00007f" stroke-width="2" /><polyline fill="none" points="21.261,27.7695 14.3186,27.7695 14.3186,21.6949 15.6203,21.6949 19.9593,27.7695" stroke="#0000ff" stroke-width="2" /><polyline fill="none" points="94.1559,37.7492 106.3051,31.6746 119.322,29.0712 111.078,38.6169 103.2678,43.8237" stroke="#0080ff" stroke-width="2" /><polyline fill="none" points="101.9661,37.3153 104.1356,41.2203 108.4746,35.5797 102.4,34.7119" stroke="#15ffe1" stroke-width="2" /><polyline fill="none" points="37.7492,57.2746 25.6,48.5966 8.678,40.7864" stroke="#7cff79" stroke-width="2" /><polyline fill="none" points="35.5797,61.6136 26.4678,63.3492 13.8847,67.2542" stroke="#e4ff12" stroke-width="2" /><polyline fill="none" points="33.8441,68.122 25.1661,87.2136" stroke="#ff9400" stroke-width="2" /><polyline fill="none" points="87.6475,68.5559 114.5492,60.7458" stroke="#ff1d00" stroke-width="2" /><polyline fill="none" points="84.6102,75.9322 100.2305,85.0441 114.1153,90.2508" stroke="#7f0000" stroke-width="2" /></svg>