<?xml version="1.0" encoding="utf-8" ?>
<svg baseProfile="tiny" height="128" version="1.2" viewBox="0,0,128,128" width="128" xmlns="http://www.w3.org/2000/svg" xmlns:ev="http://www.w3.org/2001/xml-events" xmlns:xlink="http://www.w3.org/1999/xlink"><defs /><polyline fill="none" points="18.2237,68.9898 16.0542,62.9153 16.0542,46.4271 13.4508,30.8068 13.4508,20.8271 18.6576,21.261 22.5627,26.4678 37.3153,57.7085 41.2203,59.0102 45.1254,58.1424 53.3695,53.3695 62.4814,51.2 79.4034,51.2 87.6475,55.9729 98.061,18.2237 98.9288,10.4136 102.8339,8.678 107.1729,11.2814 109.7763,34.278 115.4169,55.9729 115.4169,63.7831 119.322,66.3864" stroke="#00007f" stroke-width="2" /><polyline fill="none" points="8.678,58.1424 11.7153,62.4814 14.3186,88.5153 21.6949,101.5322 34.7119,111.9458 61.6136,116.7186 81.139,116.7186 90.2508,112.8136 106.3051,85.9119 110.6441,75.9322 118.4542,64.6508" stroke="#0010ff" stroke-width="2" /><polyline fill="none" points="65.5186,81.139 65.5186,81.139" stroke="#00a4ff" stroke-width="2" /><polyline fill="none" points="60.7458,82.8746 59.878,85.9119" stroke="#3fffb7" stroke-width="2" /><polyline fill="none" points="59.878,87.6475 40.3525,87.6475 32.9763,85.0441" stroke="#b7ff3f" stroke-width="2" /><polyline fill="none" points="56.8407,85.9119 67.6881,85.9119 77.2339,83.3085" stroke="#ffb900" stroke-width="2" /><polyline fill="none" points="59.878,91.5525 64.2169,92.4203 71.1593,101.5322" stroke="#ff3000" stroke-width="2" /><polyline fill="none" points="49.4644,93.2881 45.9932,97.1932 45.9932,99.7966" stroke="#7f0000" stroke-width="2" /></svg>