<?xml version="1.0" encoding="utf-8" ?>
<svg baseProfile="tiny" height="128" version="1.2" viewBox="0,0,128,128" width="128" xmlns="http://www.w3.org/2000/svg" xmlns:ev="http://www.w3.org/2001/xml-events" xmlns:xlink="http://www.w3.org/1999/xlink"><defs /><polyline fill="none" points="27.8069,31.7793 28.6897,17.2138 32.6621,11.0345 40.1655,26.9241 69.2966,29.131 75.0345,28.2483 78.1241,15.8897 83.4207,8.8276 85.1862,8.8276 87.3931,11.4759 90.9241,21.1862 94.8966,42.8138 94.0138,60.469 90.4828,73.7103 84.7448,85.1862 82.0966,88.7172 76.8,92.2483 68.4138,94.0138 48.1103,93.131 40.6069,90.4828 32.2207,84.3034 26.0414,75.0345 23.8345,64.4414 24.2759,54.731 30.0138,36.1931" stroke="#00007f" stroke-width="2" /><polyline fill="none" points="28.2483,51.6414 10.1517,50.3172 13.2414,52.0828" stroke="#0000fe" stroke-width="2" /><polyline fill="none" points="31.3379,60.0276 22.069,63.5586 9.269,64.8828" stroke="#0060ff" stroke-width="2" /><polyline fill="none" points="34.4276,67.9724 24.7172,72.8276 8.8276,75.9172" stroke="#00d4ff" stroke-width="2" /><polyline fill="none" points="89.1586,58.2621 106.8138,57.3793 119.1724,58.2621" stroke="#4cffaa" stroke-width="2" /><polyline fill="none" points="86.5103,73.7103 105.4897,76.8 111.669,79.0069" stroke="#aaff4c" stroke-width="2" /><polyline fill="none" points="77.6828,81.6552 109.9034,88.7172" stroke="#ffe500" stroke-width="2" /><polyline fill="none" points="42.8138,48.1103 42.8138,48.1103" stroke="#ff7a00" stroke-width="2" /><polyline fill="none" points="64.4414,49.8759 64.4414,49.8759" stroke="#fe1200" stroke-width="2" /><polyline fill="none" points="50.7586,56.0552 50.7586,56.0552" stroke="#7f0000" stroke-width="2" /></svg>