<?xml version="1.0" encoding="utf-8" ?>
<svg baseProfile="tiny" height="128" version="1.2" viewBox="0,0,128,128" width="128" xmlns="http://www.w3.org/2000/svg" xmlns:ev="http://www.w3.org/2001/xml-events" xmlns:xlink="http://www.w3.org/1999/xlink"><defs /><polyline fill="none" points="9.9797,8.678 8.678,16.0542 9.1119,42.0881 19.0915,84.6102 26.0339,95.8915 31.6746,99.7966 40.3525,103.2678 52.0678,105.0034 71.1593,103.7017 74.6305,101.9661 79.8373,96.7593 85.9119,80.2712 88.0814,69.4237 90.2508,44.2576 94.5898,19.0915 94.5898,12.1492 93.2881,10.8475" stroke="#00007f" stroke-width="2" /><polyline fill="none" points="12.5831,8.678 13.8847,12.5831 26.4678,26.9017 67.2542,28.6373 72.461,31.6746 75.9322,29.939 90.2508,9.5458" stroke="#0000d5" stroke-width="2" /><polyline fill="none" points="36.4475,43.3898 34.7119,48.5966 39.4847,51.6339 43.3898,52.0678 44.6915,50.3322 45.1254,46.4271 42.9559,43.3898 38.1831,43.8237" stroke="#001cff" stroke-width="2" /><polyline fill="none" points="68.9898,45.9932 67.6881,45.9932 66.3864,48.1627 67.6881,50.3322 71.5932,49.8983 73.3288,47.7288 68.9898,47.2949" stroke="#006cff" stroke-width="2" /><polyline fill="none" points="45.5593,75.9322 43.3898,78.9695 44.2576,87.2136 48.5966,90.6847 54.6712,91.5525" stroke="#00b8ff" stroke-width="2" /><polyline fill="none" points="62.0475,82.8746 67.2542,86.7797 69.4237,90.6847 67.6881,94.1559 63.3492,96.3254" stroke="#1cffda" stroke-width="2" /><polyline fill="none" points="53.3695,76.3661 55.1051,76.8 55.9729,73.7627 52.5017,73.7627 52.0678,76.8 56.8407,77.6678 57.2746,73.3288 53.8034,71.5932 53.3695,74.6305 55.539,83.7424" stroke="#5cff9a" stroke-width="2" /><polyline fill="none" points="51.2,85.9119 59.4441,87.6475" stroke="#9aff5c" stroke-width="2" /><polyline fill="none" points="40.7864,81.139 12.5831,78.1017" stroke="#daff1c" stroke-width="2" /><polyline fill="none" points="45.5593,85.9119 24.7322,88.5153 17.7898,90.6847" stroke="#ffcb00" stroke-width="2" /><polyline fill="none" points="38.6169,95.0237 21.6949,95.8915" stroke="#ff8500" stroke-width="2" /><polyline fill="none" points="62.0475,83.7424 82.0068,81.5729 98.4949,81.5729" stroke="#ff3b00" stroke-width="2" /><polyline fill="none" points="72.461,91.1186 91.9864,92.8542" stroke="#d50000" stroke-width="2" /><polyline fill="none" points="78.1017,97.6271 78.5356,99.7966 90.2508,105.0034 119.322,108.9085" stroke="#7f0000" stroke-width="2" /></svg>