<?xml version="1.0" encoding="utf-8" ?>
<svg baseProfile="tiny" height="128" version="1.2" viewBox="0,0,128,128" width="128" xmlns="http://www.w3.org/2000/svg" xmlns:ev="http://www.w3.org/2001/xml-events" xmlns:xlink="http://www.w3.org/1999/xlink"><defs /><polyline fill="none" points="32.5424,36.8814 26.4678,19.0915 40.3525,29.0712 50.3322,22.1288 59.878,20.8271 88.9492,20.8271 101.9661,25.6 119.322,8.678 111.5119,34.7119 105.4373,41.6542 98.4949,43.8237 97.1932,63.7831 94.1559,71.1593 88.9492,76.8 78.1017,83.3085 62.4814,86.3458 45.1254,86.7797 28.6373,78.9695 26.4678,71.5932 27.3356,52.5017 32.1085,38.6169" stroke="#00007f" stroke-width="2" /><polyline fill="none" points="53.8034,56.8407 61.1797,54.2373 63.3492,61.1797 59.878,64.6508 52.9356,65.5186 49.4644,61.1797 50.7661,57.2746 52.5017,56.8407" stroke="#0000ff" stroke-width="2" /><polyline fill="none" points="45.9932,73.7627 65.9525,76.3661 68.9898,75.4983 70.2915,72.8949" stroke="#0080ff" stroke-width="2" /><polyline fill="none" points="62.9153,64.6508 90.2508,64.2169" stroke="#15ffe1" stroke-width="2" /><polyline fill="none" points="72.0271,68.5559 82.8746,69.4237 103.7017,74.6305 110.6441,79.8373" stroke="#7cff79" stroke-width="2" /><polyline fill="none" points="50.7661,64.6508 14.7525,68.9898 8.678,71.1593" stroke="#e4ff12" stroke-width="2" /><polyline fill="none" points="45.1254,67.6881 15.1864,83.3085" stroke="#ff9400" stroke-width="2" /><polyline fill="none" points="74.6305,36.8814 74.6305,36.8814" stroke="#ff1d00" stroke-width="2" /><polyline fill="none" points="47.2949,39.4847 47.2949,39.4847" stroke="#7f0000" stroke-width="2" /></svg>