<?xml version="1.0" encoding="utf-8" ?>
<svg baseProfile="tiny" height="128" version="1.2" viewBox="0,0,128,128" width="128" xmlns="http://www.w3.org/2000/svg" xmlns:ev="http://www.w3.org/2001/xml-events" xmlns:xlink="http://www.w3.org/1999/xlink"><defs /><polyline fill="none" points="14.7525,39.9186 11.2814,23.4305 9.9797,10.4136 10.8475,9.5458 20.3932,13.0169 32.9763,27.7695 38.1831,24.2983 48.1627,20.3932 59.0102,20.3932 75.0644,25.6 87.6475,32.9763 99.3627,8.678 117.1525,41.2203 119.322,47.7288 119.322,55.9729 113.6814,67.6881 104.1356,78.1017 98.4949,82.0068 88.0814,86.3458 75.4983,89.3831 58.5763,89.8169 32.5424,85.0441 19.0915,78.9695 13.4508,72.8949 10.8475,67.2542 8.678,50.7661 13.8847,42.0881 26.9017,35.5797" stroke="#00007f" stroke-width="2" /><polyline fill="none" points="53.8034,49.8983 57.7085,55.9729 65.0847,71.5932 71.5932,77.2339 75.0644,78.5356 80.7051,77.6678 82.8746,75.0644 83.3085,70.2915" stroke="#0000de" stroke-width="2" /><polyline fill="none" points="53.8034,49.0305 64.6508,49.0305 54.6712,58.5763 42.9559,74.6305 34.7119,76.3661 32.1085,70.7254" stroke="#0028ff" stroke-width="2" /><polyline fill="none" points="45.9932,39.4847 45.1254,40.3525 44.2576,38.6169 45.9932,38.6169 45.1254,39.0508" stroke="#0080ff" stroke-width="2" /><polyline fill="none" points="68.122,40.3525 66.3864,40.7864 66.8203,39.9186" stroke="#00d4ff" stroke-width="2" /><polyline fill="none" points="40.7864,63.3492 36.8814,62.4814 31.6746,58.5763" stroke="#36ffc0" stroke-width="2" /><polyline fill="none" points="44.2576,59.878 35.1458,54.2373" stroke="#7cff79" stroke-width="2" /><polyline fill="none" points="41.6542,66.3864 36.8814,66.3864 31.6746,62.9153" stroke="#c0ff36" stroke-width="2" /><polyline fill="none" points="68.122,62.4814 73.3288,60.3119 76.3661,60.3119" stroke="#ffe500" stroke-width="2" /><polyline fill="none" points="69.8576,69.8576 78.5356,67.2542" stroke="#ff9400" stroke-width="2" /><polyline fill="none" points="73.7627,74.1966 81.5729,71.1593" stroke="#ff4600" stroke-width="2" /><polyline fill="none" points="96.3254,34.7119 98.9288,20.8271 107.6068,36.0136 95.4576,34.278" stroke="#de0000" stroke-width="2" /><polyline fill="none" points="19.9593,34.278 18.2237,17.7898 28.6373,28.2034 19.5254,30.8068" stroke="#7f0000" stroke-width="2" /></svg>