<?xml version="1.0" encoding="utf-8" ?>
<svg baseProfile="tiny" height="128" version="1.2" viewBox="0,0,128,128" width="128" xmlns="http://www.w3.org/2000/svg" xmlns:ev="http://www.w3.org/2001/xml-events" xmlns:xlink="http://www.w3.org/1999/xlink"><defs /><polyline fill="none" points="35.5797,31.2407 33.4102,31.2407 30.8068,34.278 30.3729,47.2949 33.4102,60.3119 40.7864,67.2542 55.9729,67.2542 69.4237,60.3119 77.2339,53.8034 82.4407,45.5593 83.3085,35.5797 72.0271,26.4678 75.0644,10.4136 61.1797,18.2237 51.6339,27.3356 49.4644,26.9017 33.4102,8.678 31.2407,15.6203 31.2407,25.6 34.278,33.4102" stroke="#00007f" stroke-width="2" /><polyline fill="none" points="49.8983,47.2949 55.9729,47.2949 57.2746,49.4644 53.8034,52.5017 49.4644,48.1627" stroke="#0000ff" stroke-width="2" /><polyline fill="none" points="65.0847,42.522 88.0814,32.5424 114.1153,22.9966 119.322,21.6949 114.9831,23.8644" stroke="#0080ff" stroke-width="2" /><polyline fill="none" points="73.3288,47.2949 76.8,45.5593 89.3831,44.6915 116.2847,45.5593" stroke="#15ffe1" stroke-width="2" /><polyline fill="none" points="73.3288,51.6339 95.0237,59.878" stroke="#7cff79" stroke-width="2" /><polyline fill="none" points="35.1458,47.2949 29.0712,42.9559 13.0169,39.9186" stroke="#e4ff12" stroke-width="2" /><polyline fill="none" points="32.1085,49.4644 23.8644,52.5017 9.5458,60.7458" stroke="#ff9400" stroke-width="2" /><polyline fill="none" points="42.9559,53.8034 36.4475,55.1051 28.2034,59.4441 8.678,73.3288" stroke="#ff1d00" stroke-width="2" /><polyline fill="none" points="33.8441,62.9153 26.9017,97.1932" stroke="#7f0000" stroke-width="2" /></svg>