<?xml version="1.0" encoding="utf-8" ?>
<svg baseProfile="tiny" height="128" version="1.2" viewBox="0,0,128,128" width="128" xmlns="http://www.w3.org/2000/svg" xmlns:ev="http://www.w3.org/2001/xml-events" xmlns:xlink="http://www.w3.org/1999/xlink"><defs /><polyline fill="none" points="26.0339,21.6949 34.278,9.5458 36.8814,8.678 42.0881,20.8271 47.7288,16.0542 56.4068,13.4508 75.0644,13.8847 85.9119,19.5254 94.5898,12.1492 102.8339,8.678 105.4373,9.1119 105.4373,22.1288 106.3051,27.3356 107.1729,27.7695" stroke="#00007f" stroke-width="2" /><polyline fill="none" points="29.5051,29.939 24.7322,28.2034 20.8271,33.4102 19.5254,39.0508 19.9593,53.8034 26.4678,65.9525 35.5797,74.1966 40.3525,76.8 55.9729,79.8373 73.7627,79.8373 83.7424,78.5356 90.6847,75.4983 108.4746,57.2746 111.078,46.861 111.078,35.1458 109.3424,29.5051 106.739,28.2034" stroke="#0000e8" stroke-width="2" /><polyline fill="none" points="49.4644,34.278 52.0678,34.7119 50.3322,36.0136" stroke="#0038ff" stroke-width="2" /><polyline fill="none" points="77.2339,37.3153 75.9322,39.9186 78.1017,40.7864 80.2712,38.6169 78.1017,38.1831" stroke="#0094ff" stroke-width="2" /><polyline fill="none" points="61.6136,48.5966 62.4814,57.2746 59.4441,60.7458 54.6712,62.0475 51.6339,60.3119 50.7661,57.7085" stroke="#0cf4ea" stroke-width="2" /><polyline fill="none" points="61.1797,48.5966 62.4814,53.8034 66.8203,58.5763 74.1966,59.4441 78.5356,54.2373" stroke="#56ffa0" stroke-width="2" /><polyline fill="none" points="86.3458,48.1627 119.322,39.9186" stroke="#a0ff56" stroke-width="2" /><polyline fill="none" points="88.9492,54.6712 105.8712,53.8034" stroke="#eaff0c" stroke-width="2" /><polyline fill="none" points="88.9492,70.2915 110.6441,83.3085" stroke="#ffaa00" stroke-width="2" /><polyline fill="none" points="44.2576,46.861 39.9186,49.4644 8.678,50.3322" stroke="#ff5500" stroke-width="2" /><polyline fill="none" points="41.6542,67.2542 25.1661,73.7627 15.6203,79.8373" stroke="#e80000" stroke-width="2" /><polyline fill="none" points="52.0678,68.5559 43.3898,74.1966 30.3729,89.8169" stroke="#7f0000" stroke-width="2" /></svg>