<?xml version="1.0" encoding="utf-8" ?>
<svg baseProfile="tiny" height="128" version="1.2" viewBox="0,0,128,128" width="128" xmlns="http://www.w3.org/2000/svg" xmlns:ev="http://www.w3.org/2001/xml-events" xmlns:xlink="http://www.w3.org/1999/xlink"><defs /><polyline fill="none" points="47.7288,36.4475 39.4847,38.1831 33.8441,42.522 27.3356,50.7661 25.6,56.8407 24.7322,70.7254 26.4678,78.5356 32.1085,95.4576 36.0136,101.9661 47.2949,112.8136 54.2373,116.7186 61.6136,118.8881 68.5559,119.322 75.4983,118.4542 82.0068,115.4169 87.2136,110.2102 91.1186,103.7017 93.2881,95.4576 93.2881,85.0441 89.8169,55.539 85.478,40.7864 76.8,31.2407 65.0847,29.0712 58.1424,29.939 52.0678,32.9763 39.4847,44.2576 35.5797,51.6339 34.278,60.3119" stroke="#00007f" stroke-width="2" /><polyline fill="none" points="54.2373,84.6102 64.2169,84.6102" stroke="#0000de" stroke-width="2" /><polyline fill="none" points="52.9356,85.0441 54.2373,89.3831 62.0475,94.5898 64.2169,94.1559 66.3864,84.6102" stroke="#0028ff" stroke-width="2" /><polyline fill="none" points="61.6136,96.7593 60.7458,107.1729 50.7661,104.5695 43.3898,99.3627" stroke="#0080ff" stroke-width="2" /><polyline fill="none" points="59.878,104.1356 68.9898,104.5695 78.5356,100.6644" stroke="#00d4ff" stroke-width="2" /><polyline fill="none" points="39.9186,55.9729 45.5593,59.0102" stroke="#36ffc0" stroke-width="2" /><polyline fill="none" points="70.2915,56.8407 78.5356,56.8407" stroke="#7cff79" stroke-width="2" /><polyline fill="none" points="46.4271,32.5424 40.3525,22.1288 37.3153,20.3932 34.278,20.3932 29.939,29.5051 29.0712,42.0881" stroke="#c0ff36" stroke-width="2" /><polyline fill="none" points="68.122,30.3729 80.7051,10.8475 85.0441,8.678 83.3085,35.1458" stroke="#ffe500" stroke-width="2" /><polyline fill="none" points="57.7085,93.2881 28.2034,84.6102 13.0169,83.3085 8.678,85.0441" stroke="#ff9400" stroke-width="2" /><polyline fill="none" points="59.0102,97.1932 31.6746,97.6271 19.0915,102.8339" stroke="#ff4600" stroke-width="2" /><polyline fill="none" points="68.9898,87.2136 74.6305,83.3085 80.7051,82.0068 104.1356,81.5729" stroke="#de0000" stroke-width="2" /><polyline fill="none" points="72.461,93.722 81.139,94.1559 109.3424,101.9661" stroke="#7f0000" stroke-width="2" /></svg>