<?xml version="1.0" encoding="utf-8" ?>
<svg baseProfile="tiny" height="128" version="1.2" viewBox="0,0,128,128" width="128" xmlns="http://www.w3.org/2000/svg" xmlns:ev="http://www.w3.org/2001/xml-events" xmlns:xlink="http://www.w3.org/1999/xlink"><defs /><polyline fill="none" points="21.3333,37.4422 18.2857,42.2313 18.2857,53.551 21.3333,60.0816 29.6054,69.6599 47.8912,76.1905 80.5442,78.8027 95.7823,74.8844 98.8299,72.2721 104.9252,53.1156 107.5374,40.0544 107.102,33.9592 101.4422,31.3469" stroke="#00007f" stroke-width="2" /><polyline fill="none" points="20.4626,36.5714 10.449,20.0272 8.7075,13.4966 27.8639,20.0272 35.2653,24.8163" stroke="#0000fe" stroke-width="2" /><polyline fill="none" points="97.9592,29.6054 106.2313,23.5102 119.2925,8.7075 112.3265,9.1429 98.8299,13.4966 81.8503,24.381" stroke="#0060ff" stroke-width="2" /><polyline fill="none" points="33.5238,23.5102 69.2245,11.7551 80.5442,23.9456 78.3673,25.2517" stroke="#00d4ff" stroke-width="2" /><polyline fill="none" points="22.6395,29.6054 17.415,18.7211 19.5918,17.8503 25.6871,20.0272 30.9116,25.2517" stroke="#4cffaa" stroke-width="2" /><polyline fill="none" points="89.6871,24.8163 96.6531,21.3333 114.5034,16.5442 106.2313,24.381 91.8639,31.7823" stroke="#aaff4c" stroke-width="2" /><polyline fill="none" points="41.7959,43.5374 41.7959,46.585 44.4082,49.6327 47.4558,50.068 49.1973,48.7619 52.2449,42.2313 51.8095,40.0544 48.3265,37.4422 49.1973,36.1361" stroke="#ffe500" stroke-width="2" /><polyline fill="none" points="93.6054,40.0544 90.5578,46.1497 92.2993,47.0204 93.1701,44.4082 90.9932,40.9252 86.6395,38.3129 82.7211,38.7483" stroke="#ff7a00" stroke-width="2" /><polyline fill="none" points="48.3265,64.4354 49.6327,67.9184 53.9864,70.966 57.4694,70.966 64.0,69.2245 70.966,63.1293 71.4014,53.9864 74.8844,65.7415 82.7211,67.0476 88.8163,61.8231 83.5918,48.3265" stroke="#fe1200" stroke-width="2" /><polyline fill="none" points="65.7415,53.1156 67.9184,53.9864 72.7075,52.6803" stroke="#7f0000" stroke-width="2" /></svg>