<?xml version="1.0" encoding="utf-8" ?>
<svg baseProfile="tiny" height="128" version="1.2" viewBox="0,0,128,128" width="128" xmlns="http://www.w3.org/2000/svg" xmlns:ev="http://www.w3.org/2001/xml-events" xmlns:xlink="http://www.w3.org/1999/xlink"><defs /><polyline fill="none" points="15.1864,35.1458 14.3186,39.0508 15.1864,40.7864 18.6576,41.6542 20.3932,40.3525 20.8271,38.1831 19.0915,36.0136 15.1864,35.1458 13.8847,36.8814" stroke="#00007f" stroke-width="2" /><polyline fill="none" points="19.5254,36.4475 21.261,41.2203 25.1661,38.6169 24.2983,36.0136 19.5254,35.5797" stroke="#0000e8" stroke-width="2" /><polyline fill="none" points="16.922,32.1085 17.3559,27.3356 20.3932,26.0339 21.261,36.4475" stroke="#0038ff" stroke-width="2" /><polyline fill="none" points="16.4881,31.6746 16.4881,35.5797" stroke="#0094ff" stroke-width="2" /><polyline fill="none" points="16.922,29.5051 22.5627,29.0712" stroke="#0cf4ea" stroke-width="2" /><polyline fill="none" points="44.6915,32.1085 46.4271,12.1492 52.9356,19.9593 67.2542,16.4881 75.4983,16.0542 79.8373,17.3559 81.139,12.1492 85.478,8.678 89.3831,13.4508 93.722,29.939 93.2881,57.7085 81.5729,61.1797 61.6136,63.3492 52.5017,61.6136 47.2949,53.3695 42.9559,39.9186 42.522,32.5424 43.8237,32.1085" stroke="#56ffa0" stroke-width="2" /><polyline fill="none" points="71.1593,39.0508 86.7797,31.6746 102.8339,28.2034 110.6441,28.6373" stroke="#a0ff56" stroke-width="2" /><polyline fill="none" points="74.1966,38.1831 82.8746,33.8441 95.0237,31.2407 113.2475,31.2407 119.322,32.9763" stroke="#eaff0c" stroke-width="2" /><polyline fill="none" points="67.6881,38.6169 8.678,49.8983" stroke="#ffaa00" stroke-width="2" /><polyline fill="none" points="60.3119,38.1831 48.5966,39.0508 36.0136,42.9559 23.8644,49.4644" stroke="#ff5500" stroke-width="2" /><polyline fill="none" points="69.4237,40.3525 69.4237,44.6915 66.8203,48.5966 59.4441,55.1051 51.6339,58.1424 47.7288,58.1424 45.5593,55.1051" stroke="#e80000" stroke-width="2" /><polyline fill="none" points="76.8,41.6542 88.5153,57.7085 99.3627,66.3864" stroke="#7f0000" stroke-width="2" /></svg>