<?xml version="1.0" encoding="utf-8" ?>
<svg baseProfile="tiny" height="128" version="1.2" viewBox="0,0,128,128" width="128" xmlns="http://www.w3.org/2000/svg" xmlns:ev="http://www.w3.org/2001/xml-events" xmlns:xlink="http://www.w3.org/1999/xlink"><defs /><polyline fill="none" points="29.0712,83.7424 22.1288,77.6678 18.6576,69.8576 16.922,53.8034 18.6576,46.4271 28.2034,37.7492 39.9186,32.9763 49.0305,31.6746 65.5186,32.1085 75.9322,35.5797 85.478,42.522 91.9864,49.8983 93.722,55.539 93.722,65.5186 90.6847,72.0271 83.7424,80.7051 77.6678,85.0441 52.5017,91.9864 30.8068,91.9864 17.3559,84.6102" stroke="#00007f" stroke-width="2" /><polyline fill="none" points="22.1288,46.4271 17.7898,44.6915 15.6203,36.0136 9.1119,20.3932 8.678,9.9797 12.5831,8.678 23.8644,16.0542 34.7119,26.9017 41.2203,37.3153" stroke="#0028ff" stroke-width="2" /><polyline fill="none" points="62.0475,40.7864 67.2542,35.1458 79.8373,25.1661 89.8169,19.5254 101.5322,16.4881 97.6271,34.278 86.7797,53.8034" stroke="#00d4ff" stroke-width="2" /><polyline fill="none" points="65.5186,45.1254 65.5186,41.2203 67.6881,40.7864 68.9898,45.1254 67.6881,46.4271" stroke="#7cff79" stroke-width="2" /><polyline fill="none" points="44.6915,43.3898 46.4271,42.522 44.6915,43.3898" stroke="#ffe500" stroke-width="2" /><polyline fill="none" points="41.6542,60.3119 45.9932,65.0847 50.7661,66.3864 68.9898,55.9729" stroke="#ff4600" stroke-width="2" /><polyline fill="none" points="48.1627,90.6847 49.4644,119.322 64.6508,118.4542 67.2542,117.5864 73.7627,111.9458 71.5932,86.3458" stroke="#7f0000" stroke-width="2" /></svg>