<?xml version="1.0" encoding="utf-8" ?>
<svg baseProfile="tiny" height="128" version="1.2" viewBox="0,0,128,128" width="128" xmlns="http://www.w3.org/2000/svg" xmlns:ev="http://www.w3.org/2001/xml-events" xmlns:xlink="http://www.w3.org/1999/xlink"><defs /><polyline fill="none" points="79.8373,36.8814 70.2915,35.5797 49.8983,35.5797 34.7119,41.6542 24.7322,50.3322 20.8271,55.9729 16.4881,69.8576 16.0542,76.8 16.4881,91.5525 18.6576,97.1932 21.261,102.4 29.5051,111.5119 40.3525,117.1525 52.0678,119.322 66.3864,119.322 78.9695,115.4169 85.0441,111.9458 93.2881,101.5322 96.3254,90.2508 96.3254,69.8576 92.8542,57.2746 86.7797,47.2949 83.3085,43.8237 75.9322,40.3525 72.0271,40.3525" stroke="#00007f" stroke-width="2" /><polyline fill="none" points="20.8271,52.0678 22.9966,27.7695 26.9017,17.3559 29.5051,18.2237 49.0305,41.6542" stroke="#0000f1" stroke-width="2" /><polyline fill="none" points="78.9695,37.3153 93.722,15.6203 101.5322,8.678 101.5322,14.3186 94.5898,49.8983" stroke="#004cff" stroke-width="2" /><polyline fill="none" points="42.522,65.0847 42.522,65.0847" stroke="#00b0ff" stroke-width="2" /><polyline fill="none" points="43.3898,63.3492 40.3525,63.7831 40.3525,65.9525 42.522,66.3864 43.3898,65.0847" stroke="#29ffcd" stroke-width="2" /><polyline fill="none" points="77.6678,59.4441 75.4983,60.7458 77.6678,62.0475" stroke="#7cff79" stroke-width="2" /><polyline fill="none" points="61.6136,77.2339 57.2746,74.6305 55.9729,80.2712 59.4441,79.8373 59.878,77.6678" stroke="#cdff29" stroke-width="2" /><polyline fill="none" points="36.0136,82.8746 22.1288,67.6881 12.5831,62.0475" stroke="#ffc400" stroke-width="2" /><polyline fill="none" points="38.6169,89.3831 20.3932,89.3831 8.678,95.4576" stroke="#ff6700" stroke-width="2" /><polyline fill="none" points="37.3153,96.3254 20.3932,109.7763" stroke="#f10700" stroke-width="2" /><polyline fill="none" points="81.139,80.2712 110.2102,58.5763" stroke="#7f0000" stroke-width="2" /></svg>