<?xml version="1.0" encoding="utf-8" ?>
<svg baseProfile="tiny" height="128" version="1.2" viewBox="0,0,128,128" width="128" xmlns="http://www.w3.org/2000/svg" xmlns:ev="http://www.w3.org/2001/xml-events" xmlns:xlink="http://www.w3.org/1999/xlink"><defs /><polyline fill="none" points="9.5782,30.9116 11.7551,10.449 21.7687,23.5102 31.3469,26.9932 45.2789,28.2993 51.3741,21.7687 60.0816,8.7075 70.5306,28.2993 75.7551,49.6327 75.7551,59.2109 72.7075,64.8707 69.2245,67.0476 57.034,68.7891 40.4898,68.7891 23.9456,63.1293 17.415,57.9048 13.0612,51.3741 10.449,44.8435 8.7075,30.4762" stroke="#00007f" stroke-width="2" /><polyline fill="none" points="45.7143,51.3741 37.0068,47.8912 33.9592,48.3265 33.9592,50.9388 38.7483,54.4218 44.4082,55.7279 45.7143,54.8571 45.2789,50.068 47.0204,49.1973 48.7619,52.2449 48.7619,61.3878 51.3741,64.4354 58.7755,66.1769 63.1293,63.1293" stroke="#0028ff" stroke-width="2" /><polyline fill="none" points="43.102,53.551 43.5374,64.0 37.4422,63.5646" stroke="#00d4ff" stroke-width="2" /><polyline fill="none" points="33.9592,32.2177 34.3946,36.5714" stroke="#7cff79" stroke-width="2" /><polyline fill="none" points="43.102,32.6531 44.4082,37.8776" stroke="#ffe500" stroke-width="2" /><polyline fill="none" points="80.5442,53.9864 90.1224,57.034 105.3605,57.4694 108.4082,56.1633 114.9388,47.4558 119.2925,33.9592 119.2925,82.7211 116.2449,94.0408 114.068,97.0884 104.4898,97.5238 98.3946,95.3469 94.9116,88.381 93.1701,72.7075 91.8639,71.4014 86.2041,70.966 74.8844,77.0612 57.034,80.5442 56.1633,83.1565 57.9048,99.7007 56.1633,101.0068 51.3741,100.5714 41.7959,95.3469 36.5714,89.2517 35.2653,85.3333 36.1361,65.7415" stroke="#ff4600" stroke-width="2" /><polyline fill="none" points="58.7755,96.2177 62.2585,96.2177 68.3537,94.0408 68.7891,92.7347 63.1293,76.6259" stroke="#7f0000" stroke-width="2" /></svg>