<?xml version="1.0" encoding="utf-8" ?>
<svg baseProfile="tiny" height="128" version="1.2" viewBox="0,0,128,128" width="128" xmlns="http://www.w3.org/2000/svg" xmlns:ev="http://www.w3.org/2001/xml-events" xmlns:xlink="http://www.w3.org/1999/xlink"><defs /><polyline fill="none" points="119.322,89.8169 111.9458,90.2508 89.3831,97.1932 74.6305,100.6644 67.6881,100.2305 59.0102,95.0237 54.2373,90.6847 51.6339,85.478 51.6339,77.2339 52.9356,73.3288 61.1797,65.5186 68.122,62.0475 81.139,58.5763 90.6847,57.2746 101.9661,58.5763 110.2102,63.3492 118.4542,72.461 119.322,78.1017 111.5119,90.6847 106.739,93.2881 96.7593,93.722" stroke="#00007f" stroke-width="2" /><polyline fill="none" points="56.8407,67.2542 47.7288,61.1797 44.6915,54.2373 43.3898,42.9559 49.0305,36.8814 55.539,34.278 63.3492,34.278 67.6881,36.0136 73.3288,39.9186 75.9322,44.6915 76.3661,52.5017 74.6305,59.878 71.1593,64.2169 65.0847,65.0847" stroke="#0000e8" stroke-width="2" /><polyline fill="none" points="49.0305,39.9186 43.3898,39.9186 36.8814,35.1458 30.3729,26.0339 29.5051,17.7898 32.5424,17.3559 36.0136,19.0915 52.9356,29.939 56.4068,34.278" stroke="#0038ff" stroke-width="2" /><polyline fill="none" points="60.7458,29.5051 62.9153,16.4881 67.6881,8.678 70.2915,19.5254 69.4237,37.7492" stroke="#0094ff" stroke-width="2" /><polyline fill="none" points="62.9153,23.4305 61.1797,32.5424" stroke="#0cf4ea" stroke-width="2" /><polyline fill="none" points="57.7085,54.6712 60.7458,51.6339 62.0475,51.2 62.0475,52.5017 59.878,53.3695" stroke="#56ffa0" stroke-width="2" /><polyline fill="none" points="62.0475,48.1627 78.5356,33.8441 91.5525,27.3356" stroke="#a0ff56" stroke-width="2" /><polyline fill="none" points="62.9153,49.8983 105.8712,42.9559" stroke="#eaff0c" stroke-width="2" /><polyline fill="none" points="66.8203,48.1627 68.9898,46.4271 104.5695,36.4475" stroke="#ffaa00" stroke-width="2" /><polyline fill="none" points="59.0102,53.8034 51.6339,53.8034 24.2983,64.6508 8.678,72.8949" stroke="#ff5500" stroke-width="2" /><polyline fill="none" points="59.878,52.9356 56.4068,53.8034 37.7492,64.2169 32.9763,71.5932" stroke="#e80000" stroke-width="2" /><polyline fill="none" points="53.3695,56.4068 46.861,55.9729 32.9763,62.9153 19.0915,77.2339" stroke="#7f0000" stroke-width="2" /></svg>