<?xml version="1.0" encoding="utf-8" ?>
<svg baseProfile="tiny" height="128" version="1.2" viewBox="0,0,128,128" width="128" xmlns="http://www.w3.org/2000/svg" xmlns:ev="http://www.w3.org/2001/xml-events" xmlns:xlink="http://www.w3.org/1999/xlink"><defs /><polyline fill="none" points="27.7695,52.5017 26.4678,59.4441 26.9017,69.4237 28.6373,74.6305 33.8441,82.4407 48.1627,92.4203 58.5763,94.1559 70.2915,93.2881 77.6678,90.2508 86.3458,83.3085 93.722,72.0271 97.1932,60.3119 98.9288,32.1085 96.7593,25.1661 91.5525,17.7898 79.4034,8.678 73.7627,39.4847 72.0271,39.4847 69.4237,36.0136 64.2169,34.278 55.9729,34.278 52.5017,36.4475 51.2,29.0712 48.5966,22.5627 42.522,13.8847 36.4475,9.9797 33.4102,14.7525 30.3729,34.7119 29.939,62.0475" stroke="#00007f" stroke-width="2" /><polyline fill="none" points="43.3898,55.539 45.5593,54.2373 59.0102,54.2373" stroke="#0000fe" stroke-width="2" /><polyline fill="none" points="73.7627,52.9356 79.8373,52.9356" stroke="#0060ff" stroke-width="2" /><polyline fill="none" points="56.8407,71.1593 8.678,91.5525" stroke="#00d4ff" stroke-width="2" /><polyline fill="none" points="68.9898,70.2915 74.1966,69.8576 100.2305,74.6305" stroke="#4cffaa" stroke-width="2" /><polyline fill="none" points="60.7458,77.6678 33.4102,93.722 22.1288,101.9661" stroke="#aaff4c" stroke-width="2" /><polyline fill="none" points="61.1797,75.4983 69.4237,75.9322 119.322,85.9119" stroke="#ffe500" stroke-width="2" /><polyline fill="none" points="72.0271,82.8746 76.3661,82.4407 112.3797,90.2508" stroke="#ff7a00" stroke-width="2" /><polyline fill="none" points="67.2542,82.0068 35.5797,100.2305" stroke="#fe1200" stroke-width="2" /><polyline fill="none" points="62.4814,72.461 60.3119,73.7627 59.0102,77.2339 60.7458,80.2712 62.9153,77.2339 62.4814,72.8949 57.2746,71.1593" stroke="#7f0000" stroke-width="2" /></svg>