<?xml version="1.0" encoding="utf-8" ?>
<svg baseProfile="tiny" height="128" version="1.2" viewBox="0,0,128,128" width="128" xmlns="http://www.w3.org/2000/svg" xmlns:ev="http://www.w3.org/2001/xml-events" xmlns:xlink="http://www.w3.org/1999/xlink"><defs /><polyline fill="none" points="68.9898,23.8644 58.5763,19.0915 52.0678,18.2237 42.9559,22.1288 38.1831,29.5051 36.8814,40.7864 40.7864,50.7661 46.4271,55.9729 58.5763,60.3119 72.461,60.7458 84.6102,55.539 88.9492,52.5017 93.2881,46.4271 95.0237,36.0136 89.8169,27.7695 78.1017,22.1288 64.6508,17.3559 57.2746,17.3559 51.6339,19.5254" stroke="#00007f" stroke-width="2" /><polyline fill="none" points="76.3661,26.4678 77.6678,22.5627 82.4407,18.2237 89.3831,13.8847 92.4203,32.1085" stroke="#0000de" stroke-width="2" /><polyline fill="none" points="55.539,20.3932 54.2373,16.922 43.3898,8.678 42.0881,16.4881 42.9559,26.0339" stroke="#0028ff" stroke-width="2" /><polyline fill="none" points="65.0847,39.9186 64.6508,48.5966 59.878,51.6339 60.7458,53.3695" stroke="#0080ff" stroke-width="2" /><polyline fill="none" points="62.9153,47.2949 70.2915,52.9356" stroke="#00d4ff" stroke-width="2" /><polyline fill="none" points="52.5017,32.9763 53.3695,31.6746 57.2746,31.2407 62.9153,32.5424" stroke="#36ffc0" stroke-width="2" /><polyline fill="none" points="79.4034,33.4102 85.478,34.278" stroke="#7cff79" stroke-width="2" /><polyline fill="none" points="83.3085,48.1627 89.3831,44.2576 105.4373,39.9186 119.322,34.278" stroke="#c0ff36" stroke-width="2" /><polyline fill="none" points="89.3831,47.7288 107.1729,57.2746" stroke="#ffe500" stroke-width="2" /><polyline fill="none" points="86.7797,51.2 97.1932,75.0644 101.5322,81.5729" stroke="#ff9400" stroke-width="2" /><polyline fill="none" points="45.9932,41.6542 42.522,39.4847 17.7898,36.8814 8.678,33.4102" stroke="#ff4600" stroke-width="2" /><polyline fill="none" points="39.9186,47.2949 38.6169,45.5593 34.7119,45.5593 22.1288,51.6339" stroke="#de0000" stroke-width="2" /><polyline fill="none" points="54.6712,50.7661 53.3695,50.7661" stroke="#7f0000" stroke-width="2" /></svg>