<?xml version="1.0" encoding="utf-8" ?>
<svg baseProfile="tiny" height="128" version="1.2" viewBox="0,0,128,128" width="128" xmlns="http://www.w3.org/2000/svg" xmlns:ev="http://www.w3.org/2001/xml-events" xmlns:xlink="http://www.w3.org/1999/xlink"><defs /><polyline fill="none" points="45.1254,20.8271 36.8814,24.2983 31.6746,29.0712 28.2034,43.3898 30.8068,51.2 37.3153,56.8407 49.0305,63.3492 52.9356,60.7458 55.539,52.9356 55.539,33.4102 52.9356,24.2983 45.1254,17.3559" stroke="#00007f" stroke-width="2" /><polyline fill="none" points="27.3356,27.7695 26.9017,8.678 42.522,26.4678" stroke="#0010ff" stroke-width="2" /><polyline fill="none" points="48.5966,18.6576 56.8407,12.5831 63.3492,9.5458 61.6136,17.3559 53.3695,32.1085" stroke="#00a4ff" stroke-width="2" /><polyline fill="none" points="41.2203,43.3898 8.678,54.6712" stroke="#3fffb7" stroke-width="2" /><polyline fill="none" points="45.5593,44.2576 72.461,40.3525" stroke="#b7ff3f" stroke-width="2" /><polyline fill="none" points="40.7864,50.3322 18.2237,66.3864 14.3186,72.461" stroke="#ffb900" stroke-width="2" /><polyline fill="none" points="45.1254,46.4271 73.3288,52.9356" stroke="#ff3000" stroke-width="2" /><polyline fill="none" points="54.2373,36.4475 64.2169,36.0136 82.4407,31.6746 101.0983,30.3729 112.3797,34.278 118.0203,40.3525 119.322,45.5593 118.8881,58.1424 109.3424,65.9525 96.7593,70.2915 83.7424,70.7254 64.2169,64.6508" stroke="#7f0000" stroke-width="2" /></svg>