<?xml version="1.0" encoding="utf-8" ?>
<svg baseProfile="tiny" height="128" version="1.2" viewBox="0,0,128,128" width="128" xmlns="http://www.w3.org/2000/svg" xmlns:ev="http://www.w3.org/2001/xml-events" xmlns:xlink="http://www.w3.org/1999/xlink"><defs /><polyline fill="none" points="37.3153,26.4678 33.8441,8.678 38.6169,12.1492 49.8983,25.1661 62.0475,23.4305 74.1966,26.0339 85.0441,10.8475 91.1186,28.6373 93.2881,42.0881 92.8542,54.2373 88.5153,63.3492 78.1017,68.5559 61.1797,69.4237 51.2,66.8203 43.3898,61.6136 36.0136,51.6339 33.4102,36.0136 36.8814,28.6373" stroke="#00007f" stroke-width="2" /><polyline fill="none" points="52.5017,48.5966 47.7288,49.8983 8.678,49.4644" stroke="#0028ff" stroke-width="2" /><polyline fill="none" points="52.5017,51.2 18.6576,59.4441" stroke="#00d4ff" stroke-width="2" /><polyline fill="none" points="51.2,54.6712 29.0712,63.3492 21.261,65.5186 19.9593,65.0847 19.9593,63.3492 19.5254,64.6508" stroke="#7cff79" stroke-width="2" /><polyline fill="none" points="71.1593,46.4271 106.739,42.0881" stroke="#ffe500" stroke-width="2" /><polyline fill="none" points="75.9322,54.2373 119.322,51.2" stroke="#ff4600" stroke-width="2" /><polyline fill="none" points="84.1763,63.3492 114.1153,59.4441" stroke="#7f0000" stroke-width="2" /></svg>