<?xml version="1.0" encoding="utf-8" ?>
<svg baseProfile="tiny" height="128" version="1.2" viewBox="0,0,128,128" width="128" xmlns="http://www.w3.org/2000/svg" xmlns:ev="http://www.w3.org/2001/xml-events" xmlns:xlink="http://www.w3.org/1999/xlink"><defs /><polyline fill="none" points="71.1593,51.2 32.1085,51.6339 21.261,55.9729 15.1864,61.6136 15.1864,66.8203 24.2983,72.461 35.5797,74.6305 61.6136,75.0644 72.8949,72.8949 82.0068,69.4237 87.2136,62.9153 87.6475,59.4441 85.478,56.8407 76.3661,52.0678 65.5186,50.7661" stroke="#00007f" stroke-width="2" /><polyline fill="none" points="26.4678,73.3288 26.4678,88.9492 29.0712,98.061 30.8068,98.9288 34.278,97.6271 36.8814,92.8542 33.8441,72.8949 36.0136,88.5153 38.6169,95.4576 40.7864,95.8915 42.9559,93.2881 44.6915,83.7424 42.0881,75.0644" stroke="#0080ff" stroke-width="2" /><polyline fill="none" points="62.9153,75.0644 60.7458,85.478 61.6136,94.1559 64.2169,96.3254 67.2542,96.7593 71.1593,91.5525 72.8949,82.4407 70.7254,75.4983 68.5559,96.7593 71.5932,97.1932 76.8,91.5525 79.8373,85.478 80.2712,75.9322 78.9695,65.9525" stroke="#7cff79" stroke-width="2" /><polyline fill="none" points="110.6441,41.6542 108.4746,37.7492 93.722,37.3153 83.7424,42.0881 79.8373,46.861 82.4407,53.8034 88.5153,59.878 94.5898,62.9153 101.9661,63.3492 111.5119,59.4441 117.5864,53.3695 119.322,45.1254 116.7186,40.7864" stroke="#ff9400" stroke-width="2" /><polyline fill="none" points="23.8644,54.6712 15.6203,42.9559 10.8475,32.5424 8.678,14.7525 10.8475,9.5458 12.5831,8.678 16.4881,8.678 19.0915,11.7153 21.6949,23.4305 34.278,52.5017" stroke="#7f0000" stroke-width="2" /></svg>