<?xml version="1.0" encoding="utf-8" ?>
<svg baseProfile="tiny" height="128" version="1.2" viewBox="0,0,128,128" width="128" xmlns="http://www.w3.org/2000/svg" xmlns:ev="http://www.w3.org/2001/xml-events" xmlns:xlink="http://www.w3.org/1999/xlink"><defs /><polyline fill="none" points="37.3153,36.8814 19.5254,27.3356 13.8847,25.6 8.678,26.4678 8.678,28.6373 31.6746,52.9356" stroke="#00007f" stroke-width="2" /><polyline fill="none" points="41.6542,40.7864 54.6712,35.5797 69.8576,32.1085 89.3831,31.2407 98.061,32.9763 97.6271,20.8271 98.9288,18.6576 107.1729,11.7153 116.2847,8.678 118.4542,20.3932 119.322,42.522" stroke="#0010ff" stroke-width="2" /><polyline fill="none" points="59.878,59.0102 56.4068,59.878 56.4068,62.0475 58.5763,63.3492 65.5186,63.7831 65.9525,60.3119" stroke="#00a4ff" stroke-width="2" /><polyline fill="none" points="94.1559,54.2373 94.1559,55.9729 98.4949,56.8407 99.3627,52.9356 96.7593,52.0678" stroke="#3fffb7" stroke-width="2" /><polyline fill="none" points="80.2712,72.0271 80.2712,81.139 82.0068,80.7051 85.0441,75.4983 83.3085,73.3288" stroke="#b7ff3f" stroke-width="2" /><polyline fill="none" points="82.4407,85.0441 82.4407,89.3831 80.7051,92.8542 74.6305,97.1932 52.9356,98.4949" stroke="#ffb900" stroke-width="2" /><polyline fill="none" points="82.4407,84.1763 84.6102,88.5153 89.8169,91.9864 99.3627,95.0237 103.7017,95.0237 111.5119,90.2508" stroke="#ff3000" stroke-width="2" /><polyline fill="none" points="29.939,64.2169 29.939,70.2915 32.9763,75.9322 43.8237,91.1186 51.6339,97.6271 71.5932,106.739 103.2678,114.5492" stroke="#7f0000" stroke-width="2" /></svg>