<?xml version="1.0" encoding="utf-8" ?>
<svg baseProfile="tiny" height="128" version="1.2" viewBox="0,0,128,128" width="128" xmlns="http://www.w3.org/2000/svg" xmlns:ev="http://www.w3.org/2001/xml-events" xmlns:xlink="http://www.w3.org/1999/xlink"><defs /><polyline fill="none" points="49.8983,35.5797 68.5559,27.3356 85.478,23.4305 90.6847,24.7322 94.5898,28.6373 103.7017,33.4102 106.739,37.3153 106.739,41.2203 103.2678,49.8983 72.0271,75.0644 63.7831,77.6678 55.539,77.6678 45.5593,73.7627 42.0881,71.5932 39.0508,66.8203 35.1458,52.0678 35.5797,43.3898 42.9559,34.278 50.3322,27.3356 56.8407,24.7322" stroke="#00007f" stroke-width="2" /><polyline fill="none" points="85.478,21.6949 106.739,12.5831 119.322,8.678 115.4169,12.5831 111.5119,20.3932 108.4746,39.0508" stroke="#0000fe" stroke-width="2" /><polyline fill="none" points="59.0102,28.6373 43.3898,18.6576 40.3525,14.7525 39.4847,11.2814 37.3153,23.4305 37.3153,32.5424 39.0508,35.5797" stroke="#0060ff" stroke-width="2" /><polyline fill="none" points="50.3322,49.0305 50.3322,49.0305" stroke="#00d4ff" stroke-width="2" /><polyline fill="none" points="54.2373,44.2576 55.1051,45.1254" stroke="#4cffaa" stroke-width="2" /><polyline fill="none" points="81.5729,44.2576 80.7051,44.2576" stroke="#aaff4c" stroke-width="2" /><polyline fill="none" points="55.9729,55.1051 65.0847,55.9729 69.8576,54.2373" stroke="#ffe500" stroke-width="2" /><polyline fill="none" points="57.2746,52.0678 70.7254,46.861 66.8203,55.1051" stroke="#ff7a00" stroke-width="2" /><polyline fill="none" points="51.2,65.0847 59.878,69.8576 67.2542,70.7254 68.9898,68.9898" stroke="#fe1200" stroke-width="2" /><polyline fill="none" points="46.4271,76.8 29.939,84.6102 26.4678,84.1763 22.5627,81.5729 18.6576,81.5729 14.3186,88.9492 9.5458,97.6271 8.678,105.4373 17.7898,116.7186 22.1288,119.322 35.1458,119.322 52.5017,113.2475 57.2746,109.3424 62.9153,99.3627 63.7831,91.5525 67.2542,83.7424 63.7831,82.0068" stroke="#7f0000" stroke-width="2" /></svg>