<?xml version="1.0" encoding="utf-8" ?>
<svg baseProfile="tiny" height="128" version="1.2" viewBox="0,0,128,128" width="128" xmlns="http://www.w3.org/2000/svg" xmlns:ev="http://www.w3.org/2001/xml-events" xmlns:xlink="http://www.w3.org/1999/xlink"><defs /><polyline fill="none" points="87.6475,24.7322 77.6678,21.261 55.9729,28.2034 46.861,33.4102 31.6746,46.861 22.9966,64.2169 21.261,86.7797 24.7322,93.722 31.2407,100.2305 39.4847,105.8712 48.5966,107.6068 66.8203,107.6068 74.1966,105.0034 81.5729,99.7966 91.9864,84.6102 98.9288,65.9525 99.7966,53.3695 98.061,46.4271 90.2508,36.0136 77.6678,25.6" stroke="#00007f" stroke-width="2" /><polyline fill="none" points="33.4102,63.3492 25.6,54.6712 23.8644,50.3322 22.1288,18.6576 26.4678,16.922 44.6915,36.8814 47.7288,37.7492" stroke="#0000e8" stroke-width="2" /><polyline fill="none" points="88.5153,27.3356 86.7797,22.9966 91.1186,19.5254 118.4542,8.678 119.322,16.4881 118.4542,22.9966 112.3797,35.1458 102.4,49.4644" stroke="#0038ff" stroke-width="2" /><polyline fill="none" points="49.4644,52.9356 51.2,52.9356" stroke="#0094ff" stroke-width="2" /><polyline fill="none" points="70.7254,45.1254 70.7254,46.861" stroke="#0cf4ea" stroke-width="2" /><polyline fill="none" points="55.539,78.5356 65.9525,88.9492 70.2915,84.1763 73.3288,73.3288 58.1424,74.1966" stroke="#56ffa0" stroke-width="2" /><polyline fill="none" points="44.2576,68.122 39.4847,65.5186 26.0339,65.0847 13.0169,62.4814" stroke="#a0ff56" stroke-width="2" /><polyline fill="none" points="35.1458,74.1966 22.5627,74.1966 12.1492,77.6678" stroke="#eaff0c" stroke-width="2" /><polyline fill="none" points="46.861,82.0068 32.5424,88.5153 8.678,103.2678" stroke="#ffaa00" stroke-width="2" /><polyline fill="none" points="85.478,65.5186 101.5322,65.5186" stroke="#ff5500" stroke-width="2" /><polyline fill="none" points="77.6678,81.139 98.061,82.0068 105.8712,86.7797" stroke="#e80000" stroke-width="2" /><polyline fill="none" points="91.1186,79.4034 113.2475,78.5356" stroke="#7f0000" stroke-width="2" /></svg>