<?xml version="1.0" encoding="utf-8" ?>
<svg baseProfile="tiny" height="128" version="1.2" viewBox="0,0,128,128" width="128" xmlns="http://www.w3.org/2000/svg" xmlns:ev="http://www.w3.org/2001/xml-events" xmlns:xlink="http://www.w3.org/1999/xlink"><defs /><polyline fill="none" points="95.8915,36.8814 93.722,33.8441 90.6847,32.1085 68.122,30.8068 50.3322,31.6746 36.0136,39.0508 22.1288,52.5017 15.6203,62.0475 11.2814,72.0271 8.678,82.8746 10.4136,101.0983 15.6203,108.4746 23.4305,114.9831 34.278,118.8881 48.1627,119.322 62.0475,115.8508 75.0644,109.3424 87.6475,101.5322 96.3254,92.8542 101.9661,83.3085 104.5695,74.1966 104.5695,65.0847 101.9661,56.8407 89.8169,42.9559 83.3085,37.7492 65.0847,28.6373" stroke="#00007f" stroke-width="2" /><polyline fill="none" points="30.3729,42.522 29.0712,35.5797 29.5051,22.1288 32.1085,14.3186 36.8814,8.678 44.6915,31.2407 48.5966,36.4475" stroke="#0028ff" stroke-width="2" /><polyline fill="none" points="80.2712,36.4475 78.9695,34.278 87.6475,21.6949 96.3254,11.2814 99.7966,8.678 101.5322,9.1119 99.7966,24.2983 92.4203,45.5593 93.722,47.7288" stroke="#00d4ff" stroke-width="2" /><polyline fill="none" points="27.3356,88.5153 30.8068,95.0237 36.4475,99.3627 45.1254,101.5322 61.1797,101.5322 71.1593,96.7593 74.6305,93.2881 77.2339,88.9492 77.2339,85.0441 75.9322,84.6102" stroke="#7cff79" stroke-width="2" /><polyline fill="none" points="48.1627,105.0034 48.1627,91.5525 49.8983,80.7051 49.8983,72.8949 48.5966,75.0644 49.0305,80.2712 51.2,81.5729 54.6712,81.139 55.1051,76.8 52.9356,73.7627 48.5966,73.3288 46.4271,74.6305 45.5593,77.6678 47.2949,79.4034 52.5017,78.9695 54.6712,74.1966 52.0678,72.0271 48.1627,72.0271 47.2949,75.9322" stroke="#ffe500" stroke-width="2" /><polyline fill="none" points="26.0339,78.9695 9.1119,77.6678" stroke="#ff4600" stroke-width="2" /><polyline fill="none" points="31.2407,74.6305 26.0339,74.6305 12.5831,78.1017" stroke="#7f0000" stroke-width="2" /></svg>