<?xml version="1.0" encoding="utf-8" ?>
<svg baseProfile="tiny" height="128" version="1.2" viewBox="0,0,128,128" width="128" xmlns="http://www.w3.org/2000/svg" xmlns:ev="http://www.w3.org/2001/xml-events" xmlns:xlink="http://www.w3.org/1999/xlink"><defs /><polyline fill="none" points="42.522,50.3322 35.1458,51.6339 30.3729,55.539 24.7322,71.5932 23.8644,80.2712 26.0339,88.5153 29.5051,95.8915 37.3153,99.7966 45.5593,100.6644 65.0847,98.061 73.7627,93.722 82.8746,86.7797 87.6475,82.4407 90.6847,77.2339 92.4203,70.7254 91.5525,65.5186 86.3458,54.2373 78.1017,46.4271 72.0271,44.6915 61.6136,43.8237 49.8983,44.6915 39.4847,47.2949 31.2407,51.2" stroke="#00007f" stroke-width="2" /><polyline fill="none" points="34.278,51.2 30.3729,50.3322 28.2034,48.5966 24.7322,41.6542 22.9966,26.0339 26.9017,17.3559 32.1085,21.6949 46.861,49.4644" stroke="#0000fe" stroke-width="2" /><polyline fill="none" points="68.9898,45.1254 78.1017,8.678 79.4034,8.678 83.3085,22.1288 81.5729,45.9932 82.4407,49.8983" stroke="#0060ff" stroke-width="2" /><polyline fill="none" points="29.5051,76.3661 8.678,74.1966" stroke="#00d4ff" stroke-width="2" /><polyline fill="none" points="25.1661,79.4034 12.1492,89.8169" stroke="#4cffaa" stroke-width="2" /><polyline fill="none" points="26.0339,78.9695 8.678,81.5729" stroke="#aaff4c" stroke-width="2" /><polyline fill="none" points="119.322,63.3492 119.322,63.3492" stroke="#ffe500" stroke-width="2" /><polyline fill="none" points="91.5525,68.9898 108.9085,62.9153 115.4169,58.5763" stroke="#ff7a00" stroke-width="2" /><polyline fill="none" points="90.2508,75.0644 109.7763,78.5356" stroke="#fe1200" stroke-width="2" /><polyline fill="none" points="92.4203,75.9322 101.0983,74.1966 111.9458,69.8576" stroke="#7f0000" stroke-width="2" /></svg>