<?xml version="1.0" encoding="utf-8" ?>
<svg baseProfile="tiny" height="128" version="1.2" viewBox="0,0,128,128" width="128" xmlns="http://www.w3.org/2000/svg" xmlns:ev="http://www.w3.org/2001/xml-events" xmlns:xlink="http://www.w3.org/1999/xlink"><defs /><polyline fill="none" points="19.5254,23.4305 13.0169,27.3356 9.1119,32.5424 8.678,36.4475 15.6203,43.8237 22.9966,44.2576 27.3356,42.9559 29.5051,37.3153 28.6373,32.9763 23.4305,26.9017 19.9593,26.4678" stroke="#00007f" stroke-width="2" /><polyline fill="none" points="18.6576,23.8644 26.4678,8.678 28.2034,9.1119 30.3729,19.5254 30.3729,27.3356 28.2034,32.9763" stroke="#0000d1" stroke-width="2" /><polyline fill="none" points="17.3559,23.4305 12.1492,12.5831 11.7153,24.7322" stroke="#0010ff" stroke-width="2" /><polyline fill="none" points="29.5051,35.5797 38.1831,25.1661 48.1627,21.261 71.5932,19.9593 90.2508,21.261 95.0237,23.4305 100.2305,30.8068 100.6644,39.4847 97.1932,46.4271 89.8169,51.6339 71.5932,54.2373 52.5017,54.2373 37.7492,51.6339 32.1085,49.4644 29.939,46.861 24.7322,33.8441" stroke="#0058ff" stroke-width="2" /><polyline fill="none" points="28.2034,45.9932 31.6746,65.9525" stroke="#00a4ff" stroke-width="2" /><polyline fill="none" points="44.6915,53.3695 48.5966,62.9153" stroke="#05ecf1" stroke-width="2" /><polyline fill="none" points="83.7424,53.8034 85.9119,54.2373 87.2136,56.4068 89.3831,64.6508" stroke="#3fffb7" stroke-width="2" /><polyline fill="none" points="90.2508,54.2373 92.4203,55.539 93.722,60.3119" stroke="#7cff79" stroke-width="2" /><polyline fill="none" points="91.5525,51.6339 93.722,52.5017 95.8915,62.9153" stroke="#b7ff3f" stroke-width="2" /><polyline fill="none" points="98.061,33.4102 100.2305,34.278 103.2678,41.2203 104.5695,52.9356 107.1729,56.4068 118.4542,61.6136 119.322,67.2542 118.4542,67.6881" stroke="#f1fc05" stroke-width="2" /><polyline fill="none" points="13.8847,32.5424 13.8847,32.5424" stroke="#ffb900" stroke-width="2" /><polyline fill="none" points="13.8847,32.5424 13.8847,32.5424" stroke="#ff7300" stroke-width="2" /><polyline fill="none" points="13.8847,32.5424 13.8847,32.5424" stroke="#ff3000" stroke-width="2" /><polyline fill="none" points="13.8847,32.5424 13.8847,32.5424" stroke="#d10000" stroke-width="2" /><polyline fill="none" points="13.8847,32.5424 13.8847,32.5424" stroke="#7f0000" stroke-width="2" /></svg>