<?xml version="1.0" encoding="utf-8" ?>
<svg baseProfile="tiny" height="128" version="1.2" viewBox="0,0,128,128" width="128" xmlns="http://www.w3.org/2000/svg" xmlns:ev="http://www.w3.org/2001/xml-events" xmlns:xlink="http://www.w3.org/1999/xlink"><defs /><polyline fill="none" points="27.3356,36.4475 21.261,37.3153 16.4881,41.6542 9.1119,52.5017 8.678,55.9729 9.9797,57.7085 14.3186,57.2746 26.0339,38.6169 28.6373,36.8814 28.2034,81.5729 31.6746,53.3695 36.4475,45.9932 42.9559,42.9559 46.4271,43.3898 49.0305,46.4271 50.7661,78.9695 50.3322,62.0475 52.0678,53.8034 57.2746,45.9932 62.4814,44.2576 64.2169,46.861 66.8203,56.4068 68.5559,80.2712 73.3288,47.2949 74.6305,43.8237 78.5356,41.2203 82.0068,41.6542 85.0441,43.8237 87.2136,49.4644 86.7797,75.0644 85.9119,61.1797 86.7797,54.2373 89.3831,45.9932 92.8542,42.522 95.0237,42.522 97.6271,44.6915 99.3627,51.2 100.6644,71.5932 102.4,75.4983 105.0034,76.3661 110.6441,61.6136 111.5119,54.2373 105.0034,32.9763 104.5695,27.3356 107.1729,22.5627 110.2102,21.6949 114.1153,21.6949 115.4169,25.1661 114.9831,28.6373 112.3797,32.1085 104.5695,34.278" stroke="#00007f" stroke-width="2" /><polyline fill="none" points="105.0034,23.4305 104.1356,15.1864 107.1729,12.1492 109.7763,13.0169 112.3797,20.8271 114.9831,15.1864 118.4542,13.8847 119.322,16.4881 117.5864,22.9966" stroke="#0010ff" stroke-width="2" /><polyline fill="none" points="103.7017,37.3153 97.1932,32.1085 87.6475,27.7695 83.3085,27.7695 60.3119,31.2407 38.1831,31.6746 28.2034,37.7492" stroke="#00a4ff" stroke-width="2" /><polyline fill="none" points="98.9288,41.2203 98.4949,39.4847 101.0983,37.7492" stroke="#3fffb7" stroke-width="2" /><polyline fill="none" points="19.9593,15.1864 17.3559,14.7525 9.9797,20.8271 13.4508,26.4678 19.0915,27.7695 21.6949,26.4678" stroke="#b7ff3f" stroke-width="2" /><polyline fill="none" points="32.9763,17.3559 29.939,19.5254 28.6373,24.2983 35.1458,23.8644 36.8814,17.3559 35.5797,18.2237 37.3153,23.4305 45.5593,26.4678" stroke="#ffb900" stroke-width="2" /><polyline fill="none" points="56.4068,8.678 58.5763,27.7695" stroke="#ff3000" stroke-width="2" /><polyline fill="none" points="45.1254,16.922 67.2542,14.3186" stroke="#7f0000" stroke-width="2" /></svg>