<?xml version="1.0" encoding="utf-8" ?>
<svg baseProfile="tiny" height="128" version="1.2" viewBox="0,0,128,128" width="128" xmlns="http://www.w3.org/2000/svg" xmlns:ev="http://www.w3.org/2001/xml-events" xmlns:xlink="http://www.w3.org/1999/xlink"><defs /><polyline fill="none" points="91.5525,32.5424 88.9492,29.0712 85.0441,27.7695 69.8576,26.9017 55.9729,29.0712 49.4644,32.9763 42.0881,45.1254 41.2203,58.5763 45.9932,70.2915 54.2373,75.9322 73.7627,76.8 84.6102,74.6305 93.722,68.5559 98.061,62.9153 101.5322,47.7288 101.5322,42.522 98.9288,36.0136 95.4576,32.9763 88.9492,29.939 80.7051,28.2034" stroke="#00007f" stroke-width="2" /><polyline fill="none" points="49.8983,30.8068 55.9729,8.678 56.8407,9.1119 63.3492,28.6373" stroke="#0000e8" stroke-width="2" /><polyline fill="none" points="83.7424,26.9017 85.478,21.6949 92.8542,9.9797 94.1559,9.9797 96.3254,13.0169 98.061,17.7898 96.3254,36.4475" stroke="#0038ff" stroke-width="2" /><polyline fill="none" points="65.5186,51.2 64.6508,54.6712 65.9525,55.539 68.9898,52.5017 65.5186,51.6339 64.6508,54.2373 65.5186,54.6712 66.3864,52.5017 67.2542,53.8034 67.6881,52.9356 64.6508,52.9356 65.5186,57.7085 68.5559,51.2" stroke="#0094ff" stroke-width="2" /><polyline fill="none" points="66.3864,57.2746 63.3492,62.0475 59.4441,63.7831 57.2746,55.539" stroke="#0cf4ea" stroke-width="2" /><polyline fill="none" points="66.3864,57.2746 67.2542,61.6136 70.2915,65.0847 75.9322,59.878 75.9322,55.9729" stroke="#56ffa0" stroke-width="2" /><polyline fill="none" points="58.5763,39.0508 58.1424,42.9559 60.3119,42.9559 61.1797,40.7864 58.5763,39.4847 58.1424,42.0881 59.878,40.7864" stroke="#a0ff56" stroke-width="2" /><polyline fill="none" points="78.1017,40.7864 75.4983,41.2203 75.0644,43.3898 76.3661,44.2576 77.2339,42.9559 75.9322,42.9559" stroke="#eaff0c" stroke-width="2" /><polyline fill="none" points="76.8,52.5017 89.3831,45.9932 99.7966,42.522" stroke="#ffaa00" stroke-width="2" /><polyline fill="none" points="82.0068,52.9356 116.7186,53.3695" stroke="#ff5500" stroke-width="2" /><polyline fill="none" points="82.8746,57.2746 94.5898,62.4814 119.322,68.122" stroke="#e80000" stroke-width="2" /><polyline fill="none" points="55.9729,53.8034 8.678,45.1254" stroke="#7f0000" stroke-width="2" /></svg>