<?xml version="1.0" encoding="utf-8" ?>
<svg baseProfile="tiny" height="128" version="1.2" viewBox="0,0,128,128" width="128" xmlns="http://www.w3.org/2000/svg" xmlns:ev="http://www.w3.org/2001/xml-events" xmlns:xlink="http://www.w3.org/1999/xlink"><defs /><polyline fill="none" points="49.0305,56.8407 52.0678,51.2 59.0102,47.7288 66.3864,48.5966 72.0271,52.0678 80.7051,63.7831 85.9119,82.0068 84.6102,96.3254 78.9695,107.1729 68.9898,114.5492 55.9729,118.8881 45.9932,119.322 38.1831,117.5864 29.939,114.1153 19.5254,107.6068 11.7153,95.4576 8.678,80.7051 9.1119,72.461 10.4136,66.3864 13.8847,58.5763 19.9593,52.5017 26.9017,48.5966 32.5424,47.2949 46.4271,46.861 58.1424,49.8983 60.7458,51.6339 61.1797,54.2373" stroke="#00007f" stroke-width="2" /><polyline fill="none" points="38.1831,80.7051 35.5797,72.461 24.2983,49.8983" stroke="#0000e8" stroke-width="2" /><polyline fill="none" points="34.7119,68.9898 34.278,72.8949 31.2407,75.4983 12.5831,78.1017" stroke="#0038ff" stroke-width="2" /><polyline fill="none" points="32.5424,83.3085 35.5797,85.478 32.9763,88.9492 13.8847,100.2305" stroke="#0094ff" stroke-width="2" /><polyline fill="none" points="52.9356,84.1763 53.8034,81.5729 56.8407,79.4034 85.478,69.8576 87.6475,69.8576" stroke="#0cf4ea" stroke-width="2" /><polyline fill="none" points="66.3864,84.1763 59.4441,86.3458 59.878,87.6475 72.8949,98.061 78.5356,105.4373" stroke="#56ffa0" stroke-width="2" /><polyline fill="none" points="59.0102,93.722 56.8407,92.8542 56.4068,94.1559 64.6508,117.1525" stroke="#a0ff56" stroke-width="2" /><polyline fill="none" points="47.7288,82.8746 47.7288,81.5729 49.0305,81.5729 50.7661,84.6102 48.1627,87.2136 44.2576,84.6102 44.2576,82.0068 46.4271,81.139 48.1627,82.8746 47.2949,85.9119 45.9932,86.3458 44.6915,85.478 45.9932,82.4407" stroke="#eaff0c" stroke-width="2" /><polyline fill="none" points="40.7864,48.5966 34.278,23.4305 29.0712,13.8847 24.7322,8.678 22.1288,13.4508 19.5254,29.939 18.2237,45.1254 19.5254,49.4644" stroke="#ffaa00" stroke-width="2" /><polyline fill="none" points="65.9525,55.1051 68.9898,49.8983 85.0441,32.9763 90.2508,29.5051 93.2881,30.3729 93.722,35.1458 91.5525,44.6915 83.3085,66.3864 77.2339,78.9695" stroke="#ff5500" stroke-width="2" /><polyline fill="none" points="61.6136,64.2169 65.5186,62.4814 67.6881,65.0847 66.8203,68.9898 62.9153,69.4237 60.7458,66.3864 61.6136,62.9153" stroke="#e80000" stroke-width="2" /><polyline fill="none" points="51.2,62.9153 47.2949,58.1424 49.0305,60.7458 49.0305,65.5186 46.4271,68.5559 43.3898,67.2542 40.3525,60.3119 40.7864,57.7085 43.3898,56.4068" stroke="#7f0000" stroke-width="2" /></svg>