<?xml version="1.0" encoding="utf-8" ?>
<svg baseProfile="tiny" height="128" version="1.2" viewBox="0,0,128,128" width="128" xmlns="http://www.w3.org/2000/svg" xmlns:ev="http://www.w3.org/2001/xml-events" xmlns:xlink="http://www.w3.org/1999/xlink"><defs /><polyline fill="none" points="8.678,43.8237 12.5831,25.6 17.3559,10.8475 18.6576,10.4136 29.5051,23.8644 38.6169,42.522 42.0881,36.8814 48.5966,33.4102 54.2373,30.8068 65.0847,29.5051 76.8,29.5051 84.6102,32.5424 93.2881,39.0508 96.3254,28.2034 104.5695,10.8475 106.739,8.678 108.4746,10.8475 118.0203,39.9186 116.7186,41.6542 114.1153,38.6169 117.5864,47.7288 119.322,64.6508 117.5864,75.9322 110.2102,88.0814 99.3627,97.1932 89.3831,100.6644 68.5559,102.4 59.0102,98.4949 32.9763,82.0068 15.6203,63.7831 12.1492,55.1051 9.9797,44.2576 9.9797,40.3525 12.1492,37.7492 13.8847,37.7492" stroke="#00007f" stroke-width="2" /><polyline fill="none" points="48.5966,44.6915 49.8983,56.8407" stroke="#0000fe" stroke-width="2" /><polyline fill="none" points="84.6102,43.8237 86.3458,57.7085" stroke="#0060ff" stroke-width="2" /><polyline fill="none" points="70.2915,80.2712 68.122,77.6678 68.122,71.1593 70.7254,73.3288 70.7254,77.2339 68.9898,76.8 67.2542,71.5932 72.8949,74.1966 72.8949,75.9322 71.5932,77.2339" stroke="#00d4ff" stroke-width="2" /><polyline fill="none" points="75.4983,71.5932 87.2136,65.0847 94.5898,62.4814" stroke="#4cffaa" stroke-width="2" /><polyline fill="none" points="84.6102,74.1966 92.4203,75.0644 104.1356,72.8949" stroke="#aaff4c" stroke-width="2" /><polyline fill="none" points="82.8746,80.2712 86.7797,83.3085 104.5695,85.0441" stroke="#ffe500" stroke-width="2" /><polyline fill="none" points="55.9729,71.1593 36.8814,65.0847" stroke="#ff7a00" stroke-width="2" /><polyline fill="none" points="56.8407,76.3661 46.4271,73.3288 39.4847,72.8949" stroke="#fe1200" stroke-width="2" /><polyline fill="none" points="64.2169,84.6102 58.1424,84.1763 47.2949,86.3458" stroke="#7f0000" stroke-width="2" /></svg>