<?xml version="1.0" encoding="utf-8" ?>
<svg baseProfile="tiny" height="128" version="1.2" viewBox="0,0,128,128" width="128" xmlns="http://www.w3.org/2000/svg" xmlns:ev="http://www.w3.org/2001/xml-events" xmlns:xlink="http://www.w3.org/1999/xlink"><defs /><polyline fill="none" points="26.4678,28.2034 18.2237,30.8068 12.1492,36.4475 8.678,42.0881 9.1119,47.2949 16.0542,56.4068 23.8644,60.7458 37.7492,60.3119 43.8237,57.7085 48.1627,53.8034 50.3322,44.6915 50.7661,38.1831 49.0305,34.278 42.9559,28.2034 27.7695,26.9017 18.2237,29.5051 15.6203,17.3559 15.6203,8.678 25.1661,18.2237 32.1085,26.9017" stroke="#00007f" stroke-width="2" /><polyline fill="none" points="41.6542,25.6 43.8237,21.6949 51.6339,16.0542 53.3695,22.9966 52.5017,34.7119" stroke="#00d4ff" stroke-width="2" /><polyline fill="none" points="51.6339,38.6169 62.9153,32.5424 85.9119,31.6746 90.6847,32.9763 97.6271,37.7492 107.6068,47.2949 110.2102,53.8034 109.7763,61.1797 103.7017,66.3864 92.4203,70.7254 65.5186,71.1593 53.3695,66.8203 49.4644,62.9153 45.9932,54.2373" stroke="#ffe500" stroke-width="2" /><polyline fill="none" points="102.8339,42.0881 109.7763,42.9559 113.2475,41.6542 118.0203,36.8814 119.322,16.0542" stroke="#7f0000" stroke-width="2" /></svg>