<?xml version="1.0" encoding="utf-8" ?>
<svg baseProfile="tiny" height="128" version="1.2" viewBox="0,0,128,128" width="128" xmlns="http://www.w3.org/2000/svg" xmlns:ev="http://www.w3.org/2001/xml-events" xmlns:xlink="http://www.w3.org/1999/xlink"><defs /><polyline fill="none" points="46.861,49.8983 40.7864,45.9932 30.8068,45.9932 20.8271,54.2373 16.922,63.7831 16.922,78.1017 24.2983,93.722 34.278,105.0034 45.9932,115.4169 54.6712,118.8881 71.1593,119.322 83.3085,111.9458 90.2508,104.1356 95.4576,95.4576 98.061,82.8746 98.061,68.5559 94.1559,57.7085 86.7797,51.2 83.7424,46.4271 75.9322,18.6576 72.8949,14.7525 69.8576,16.4881 66.3864,25.6 62.9153,36.0136 62.4814,41.6542 52.5017,18.2237 44.2576,8.678 42.0881,13.8847 39.9186,45.5593" stroke="#00007f" stroke-width="2" /><polyline fill="none" points="59.4441,81.139 8.678,86.7797" stroke="#0010ff" stroke-width="2" /><polyline fill="none" points="56.8407,86.3458 42.522,92.4203 25.1661,101.9661" stroke="#00a4ff" stroke-width="2" /><polyline fill="none" points="62.4814,91.1186 116.7186,93.2881" stroke="#3fffb7" stroke-width="2" /><polyline fill="none" points="59.0102,82.4407 78.9695,82.0068 87.6475,79.4034" stroke="#b7ff3f" stroke-width="2" /><polyline fill="none" points="41.2203,59.0102 45.5593,59.878" stroke="#ffb900" stroke-width="2" /><polyline fill="none" points="70.2915,59.4441 70.2915,59.4441" stroke="#ff3000" stroke-width="2" /><polyline fill="none" points="61.6136,50.7661 61.6136,50.7661" stroke="#7f0000" stroke-width="2" /></svg>