<?xml version="1.0" encoding="utf-8" ?>
<svg baseProfile="tiny" height="128" version="1.2" viewBox="0,0,128,128" width="128" xmlns="http://www.w3.org/2000/svg" xmlns:ev="http://www.w3.org/2001/xml-events" xmlns:xlink="http://www.w3.org/1999/xlink"><defs /><polyline fill="none" points="52.5017,29.939 39.0508,29.5051 31.6746,32.1085 24.2983,36.8814 16.4881,45.5593 9.5458,64.6508 9.5458,77.2339 13.4508,86.3458 24.2983,98.9288 42.522,112.3797 51.6339,117.1525 62.4814,119.322 78.1017,119.322 89.3831,114.1153 97.1932,107.6068 102.4,102.4 112.8136,82.0068 114.9831,73.3288 114.9831,63.7831 113.6814,57.2746 102.4,43.8237 93.722,37.7492 72.0271,30.3729 64.6508,29.0712 52.9356,29.5051" stroke="#00007f" stroke-width="2" /><polyline fill="none" points="84.6102,28.2034 94.1559,11.7153 96.3254,11.2814 106.739,49.4644" stroke="#0000fe" stroke-width="2" /><polyline fill="none" points="32.9763,30.8068 9.5458,8.678 8.678,29.939 15.6203,55.539" stroke="#0060ff" stroke-width="2" /><polyline fill="none" points="62.0475,73.7627 68.9898,73.3288 69.8576,75.4983 69.4237,82.8746 67.2542,82.4407 61.6136,74.6305" stroke="#00d4ff" stroke-width="2" /><polyline fill="none" points="66.8203,80.7051 69.4237,89.8169 71.5932,92.4203 75.9322,92.4203 78.9695,90.2508 79.8373,84.1763" stroke="#4cffaa" stroke-width="2" /><polyline fill="none" points="68.5559,82.4407 63.3492,92.4203 60.7458,93.2881 55.9729,92.8542 49.8983,85.0441" stroke="#aaff4c" stroke-width="2" /><polyline fill="none" points="32.9763,52.9356 42.0881,50.3322 51.6339,50.3322" stroke="#ffe500" stroke-width="2" /><polyline fill="none" points="73.3288,52.9356 75.9322,51.6339 92.8542,52.5017" stroke="#ff7a00" stroke-width="2" /><polyline fill="none" points="71.5932,54.2373 78.1017,59.0102 83.3085,59.0102 88.0814,55.539" stroke="#fe1200" stroke-width="2" /><polyline fill="none" points="32.5424,54.2373 39.9186,56.4068" stroke="#7f0000" stroke-width="2" /></svg>