<?xml version="1.0" encoding="utf-8" ?>
<svg baseProfile="tiny" height="128" version="1.2" viewBox="0,0,128,128" width="128" xmlns="http://www.w3.org/2000/svg" xmlns:ev="http://www.w3.org/2001/xml-events" xmlns:xlink="http://www.w3.org/1999/xlink"><defs /><polyline fill="none" points="57.2746,22.5627 42.522,36.8814 40.3525,44.6915 42.9559,50.7661 47.2949,52.5017 54.2373,52.0678 60.7458,49.4644 66.8203,43.8237 69.8576,39.0508 69.4237,33.4102 64.2169,28.2034 60.7458,26.9017" stroke="#00007f" stroke-width="2" /><polyline fill="none" points="45.9932,53.8034 32.1085,59.4441 24.2983,68.5559 19.0915,78.1017 17.3559,86.7797 17.7898,94.5898 24.2983,106.739 29.5051,111.5119 38.6169,113.2475 49.8983,110.6441 72.0271,99.7966 79.4034,92.8542 82.8746,84.1763 82.0068,72.461 78.1017,63.7831 72.461,56.4068 57.2746,49.0305" stroke="#0000de" stroke-width="2" /><polyline fill="none" points="46.4271,26.4678 42.9559,18.6576 42.9559,12.5831 45.5593,12.1492 48.1627,13.4508 54.2373,20.8271" stroke="#0028ff" stroke-width="2" /><polyline fill="none" points="63.7831,22.5627 71.1593,12.1492 75.9322,8.678 78.5356,8.678 81.139,13.0169 79.8373,19.5254" stroke="#0080ff" stroke-width="2" /><polyline fill="none" points="54.6712,108.0407 52.9356,105.0034 51.2,96.3254 51.6339,91.9864 57.7085,85.0441 62.0475,83.3085 75.0644,83.3085 89.8169,95.4576 96.3254,103.7017 106.739,109.7763 116.2847,108.0407 119.322,105.8712" stroke="#00d4ff" stroke-width="2" /><polyline fill="none" points="61.1797,37.7492 78.9695,33.8441 88.9492,33.8441" stroke="#36ffc0" stroke-width="2" /><polyline fill="none" points="59.4441,41.6542 88.9492,44.6915" stroke="#7cff79" stroke-width="2" /><polyline fill="none" points="56.8407,39.4847 32.9763,39.9186 18.6576,43.8237" stroke="#c0ff36" stroke-width="2" /><polyline fill="none" points="43.8237,45.5593 8.678,57.7085" stroke="#ffe500" stroke-width="2" /><polyline fill="none" points="52.5017,34.7119 52.5017,34.7119" stroke="#ff9400" stroke-width="2" /><polyline fill="none" points="61.6136,29.5051 62.0475,29.0712" stroke="#ff4600" stroke-width="2" /><polyline fill="none" points="52.9356,32.9763 52.9356,32.9763" stroke="#de0000" stroke-width="2" /><polyline fill="none" points="51.2,35.5797 51.2,35.5797" stroke="#7f0000" stroke-width="2" /></svg>