<?xml version="1.0" encoding="utf-8" ?>
<svg baseProfile="tiny" height="128" version="1.2" viewBox="0,0,128,128" width="128" xmlns="http://www.w3.org/2000/svg" xmlns:ev="http://www.w3.org/2001/xml-events" xmlns:xlink="http://www.w3.org/1999/xlink"><defs /><polyline fill="none" points="75.3197,43.102 74.8844,40.9252 93.6054,8.7075 93.1701,30.0408 100.1361,22.6395 119.2925,10.449 113.1973,48.7619 110.1497,56.5986 105.3605,62.6939 91.8639,68.7891 86.6395,67.9184 80.1088,57.4694 78.3673,48.3265 78.8027,42.2313 83.1565,37.4422" stroke="#00007f" stroke-width="2" /><polyline fill="none" points="92.2993,40.0544 100.1361,37.4422 100.5714,42.2313 97.9592,43.9728 95.7823,44.8435 94.4762,43.102 94.4762,39.1837 98.3946,37.4422" stroke="#004cff" stroke-width="2" /><polyline fill="none" points="103.1837,37.4422 107.102,38.3129 104.9252,41.3605 106.6667,37.4422" stroke="#29ffcd" stroke-width="2" /><polyline fill="none" points="90.1224,53.1156 92.7347,56.1633 97.0884,56.1633 101.0068,54.8571 104.0544,50.5034" stroke="#cdff29" stroke-width="2" /><polyline fill="none" points="83.1565,75.3197 75.7551,81.415 73.1429,85.7687 71.8367,97.5238 72.7075,108.4082 75.7551,112.7619 83.5918,117.1156 93.6054,118.4218 99.7007,117.551 101.8776,114.5034 105.3605,97.9592 104.9252,81.8503 101.0068,70.5306 94.9116,67.0476" stroke="#ff6700" stroke-width="2" /><polyline fill="none" points="68.7891,105.3605 64.4354,111.0204 59.2109,113.6327 43.5374,115.8095 38.7483,103.1837 37.0068,88.381 34.3946,88.381 16.5442,100.1361 8.7075,108.8435" stroke="#7f0000" stroke-width="2" /></svg>