<?xml version="1.0" encoding="utf-8" ?>
<svg baseProfile="tiny" height="128" version="1.2" viewBox="0,0,128,128" width="128" xmlns="http://www.w3.org/2000/svg" xmlns:ev="http://www.w3.org/2001/xml-events" xmlns:xlink="http://www.w3.org/1999/xlink"><defs /><polyline fill="none" points="66.3864,29.0712 43.8237,34.278 38.1831,39.9186 31.6746,44.2576 20.3932,60.3119 18.6576,65.0847 18.2237,80.7051 20.8271,90.2508 26.0339,97.1932 36.4475,105.4373 40.3525,108.0407 46.4271,108.9085 64.6508,109.3424 75.4983,107.6068 93.2881,96.7593 102.4,85.478 106.739,75.9322 108.9085,62.4814 108.0407,52.0678 106.739,46.861 99.7966,33.8441 86.3458,25.6 77.2339,22.1288" stroke="#00007f" stroke-width="2" /><polyline fill="none" points="31.2407,52.5017 29.0712,47.2949 29.0712,33.4102 31.2407,14.3186 32.9763,9.5458 35.1458,9.1119 37.3153,12.5831 43.8237,37.3153 46.861,40.3525 51.2,41.2203" stroke="#0000e8" stroke-width="2" /><polyline fill="none" points="70.2915,41.2203 76.8,23.4305 81.139,19.5254 88.0814,8.678 88.9492,27.7695 93.2881,41.6542" stroke="#0038ff" stroke-width="2" /><polyline fill="none" points="45.5593,65.9525 48.5966,65.0847" stroke="#0094ff" stroke-width="2" /><polyline fill="none" points="70.2915,63.3492 70.7254,63.7831" stroke="#0cf4ea" stroke-width="2" /><polyline fill="none" points="60.7458,79.4034 60.3119,84.1763 57.7085,85.0441 59.878,85.9119" stroke="#56ffa0" stroke-width="2" /><polyline fill="none" points="67.6881,79.4034 82.4407,75.9322 97.1932,67.2542 104.5695,64.6508 116.2847,64.2169" stroke="#a0ff56" stroke-width="2" /><polyline fill="none" points="79.4034,80.2712 96.3254,81.139 118.0203,85.9119" stroke="#eaff0c" stroke-width="2" /><polyline fill="none" points="76.8,81.5729 84.1763,86.7797 98.4949,90.6847 114.9831,98.061 119.322,101.5322" stroke="#ffaa00" stroke-width="2" /><polyline fill="none" points="48.1627,87.2136 35.1458,87.2136 19.0915,78.5356" stroke="#ff5500" stroke-width="2" /><polyline fill="none" points="49.8983,90.6847 39.0508,91.9864 17.7898,89.8169 14.3186,90.6847 8.678,96.7593" stroke="#e80000" stroke-width="2" /><polyline fill="none" points="46.861,98.4949 29.939,104.5695" stroke="#7f0000" stroke-width="2" /></svg>