<?xml version="1.0" encoding="utf-8" ?>
<svg baseProfile="tiny" height="128" version="1.2" viewBox="0,0,128,128" width="128" xmlns="http://www.w3.org/2000/svg" xmlns:ev="http://www.w3.org/2001/xml-events" xmlns:xlink="http://www.w3.org/1999/xlink"><defs /><polyline fill="none" points="52.6803,20.4626 55.7279,8.7075 60.0816,13.932" stroke="#00007f" stroke-width="2" /><polyline fill="none" points="52.2449,19.5918 40.0544,21.7687 33.5238,14.3673 32.6531,23.5102 26.5578,23.9456" stroke="#0000ff" stroke-width="2" /><polyline fill="none" points="30.9116,24.381 27.8639,36.5714 29.1701,40.9252 33.9592,46.1497 43.102,50.068 53.551,51.8095 59.2109,51.8095 65.7415,49.6327 68.3537,47.8912 72.7075,40.0544 74.8844,30.9116 73.5782,24.8163 67.9184,23.0748 67.483,18.7211 64.4354,13.0612 60.9524,11.7551 58.3401,13.932" stroke="#0080ff" stroke-width="2" /><polyline fill="none" points="54.4218,25.6871 53.9864,27.8639 54.8571,26.1224" stroke="#15ffe1" stroke-width="2" /><polyline fill="none" points="44.8435,28.7347 43.9728,33.9592 45.2789,33.0884 46.585,30.0408" stroke="#7cff79" stroke-width="2" /><polyline fill="none" points="51.3741,33.0884 52.2449,33.9592 51.8095,33.0884" stroke="#e4ff12" stroke-width="2" /><polyline fill="none" points="62.2585,37.0068 41.7959,41.7959 52.2449,43.102 58.3401,38.3129" stroke="#ff9400" stroke-width="2" /><polyline fill="none" points="61.3878,50.9388 79.6735,60.0816 90.5578,61.3878 105.3605,57.9048 117.551,48.7619 118.8571,50.5034 119.2925,58.7755 117.551,66.1769 113.1973,74.449 104.4898,85.7687 93.1701,92.7347 85.3333,95.3469 70.5306,94.4762 28.2993,83.1565 18.2857,78.3673 9.1429,69.6599 8.7075,63.5646 16.9796,55.7279 26.5578,51.8095 47.0204,48.3265" stroke="#ff1d00" stroke-width="2" /><polyline fill="none" points="69.2245,54.4218 69.2245,54.4218" stroke="#7f0000" stroke-width="2" /></svg>