<?xml version="1.0" encoding="utf-8" ?>
<svg baseProfile="tiny" height="128" version="1.2" viewBox="0,0,128,128" width="128" xmlns="http://www.w3.org/2000/svg" xmlns:ev="http://www.w3.org/2001/xml-events" xmlns:xlink="http://www.w3.org/1999/xlink"><defs /><polyline fill="none" points="51.3772,28.346 50.0484,8.8581 58.4637,16.8304 63.3356,24.8028" stroke="#00007f" stroke-width="2" /><polyline fill="none" points="50.9343,27.9031 41.6332,30.1176 38.09,34.5467 39.4187,39.8616 45.1765,46.0623 65.1073,52.263 87.6955,53.5917 90.7958,53.1488 95.6678,49.1626 97.4394,45.1765 97.4394,39.4187 95.6678,35.8754 91.6817,32.7751 81.0519,29.6747 80.1661,10.1869 78.3945,13.2872 77.9516,27.0173" stroke="#0000e8" stroke-width="2" /><polyline fill="none" points="60.6782,34.1038 61.1211,34.1038" stroke="#0038ff" stroke-width="2" /><polyline fill="none" points="67.3218,33.6609 67.3218,33.6609" stroke="#0094ff" stroke-width="2" /><polyline fill="none" points="77.9516,35.4325 77.9516,35.4325" stroke="#0cf4ea" stroke-width="2" /><polyline fill="none" points="77.5087,35.4325 77.0657,35.8754" stroke="#56ffa0" stroke-width="2" /><polyline fill="none" points="78.3945,38.5329 119.1419,38.9758" stroke="#a0ff56" stroke-width="2" /><polyline fill="none" points="84.1522,46.0623 116.9273,53.5917" stroke="#eaff0c" stroke-width="2" /><polyline fill="none" points="77.9516,49.1626 104.526,58.9066" stroke="#ffaa00" stroke-width="2" /><polyline fill="none" points="42.519,35.8754 21.2595,31.8893 13.2872,32.3322" stroke="#ff5500" stroke-width="2" /><polyline fill="none" points="34.5467,39.8616 34.5467,39.8616" stroke="#e80000" stroke-width="2" /><polyline fill="none" points="41.6332,39.4187 25.6886,39.8616 8.8581,44.2907" stroke="#7f0000" stroke-width="2" /></svg>