<?xml version="1.0" encoding="utf-8" ?>
<svg baseProfile="tiny" height="128" version="1.2" viewBox="0,0,128,128" width="128" xmlns="http://www.w3.org/2000/svg" xmlns:ev="http://www.w3.org/2001/xml-events" xmlns:xlink="http://www.w3.org/1999/xlink"><defs /><polyline fill="none" points="80.2712,56.4068 72.8949,51.6339 61.1797,47.7288 49.0305,46.861 41.2203,48.1627 27.3356,59.0102 15.6203,74.1966 9.9797,88.5153 8.678,107.1729 9.5458,111.9458 13.4508,115.4169 17.7898,118.0203 41.6542,119.322 54.2373,115.4169 63.7831,108.4746 67.2542,104.5695 72.8949,93.722 76.8,80.2712 79.8373,67.2542 80.2712,55.1051 78.9695,50.3322 63.3492,43.3898" stroke="#00007f" stroke-width="2" /><polyline fill="none" points="16.0542,61.1797 16.0542,50.3322 26.4678,8.678 29.0712,20.8271 42.0881,43.3898 44.2576,44.6915" stroke="#00d4ff" stroke-width="2" /><polyline fill="none" points="85.9119,15.6203 83.3085,22.5627 78.9695,56.4068" stroke="#ffe500" stroke-width="2" /><polyline fill="none" points="83.3085,14.3186 87.2136,15.6203 92.4203,23.4305 95.4576,29.939 97.6271,39.4847 97.1932,55.9729 85.0441,79.8373" stroke="#7f0000" stroke-width="2" /></svg>