<?xml version="1.0" encoding="utf-8" ?>
<svg baseProfile="tiny" height="128" version="1.2" viewBox="0,0,128,128" width="128" xmlns="http://www.w3.org/2000/svg" xmlns:ev="http://www.w3.org/2001/xml-events" xmlns:xlink="http://www.w3.org/1999/xlink"><defs /><polyline fill="none" points="59.878,29.5051 48.5966,32.1085 29.939,41.2203 22.5627,47.7288 16.0542,57.7085 8.678,72.8949 9.1119,92.4203 11.7153,99.3627 17.3559,105.8712 30.3729,113.6814 44.6915,118.0203 59.4441,119.322 76.8,118.8881 82.8746,117.5864 88.9492,113.6814 93.2881,108.0407 95.8915,101.9661 97.6271,90.2508 97.6271,81.139 92.4203,59.4441 90.6847,54.2373 85.478,48.1627 77.2339,39.9186 69.4237,34.7119 61.1797,31.6746 52.9356,31.2407 52.0678,29.5051" stroke="#00007f" stroke-width="2" /><polyline fill="none" points="16.0542,8.678 16.0542,46.861 17.3559,53.8034" stroke="#0000ff" stroke-width="2" /><polyline fill="none" points="17.3559,9.1119 17.3559,15.1864 19.0915,20.3932 32.1085,42.9559" stroke="#0080ff" stroke-width="2" /><polyline fill="none" points="74.6305,34.278 83.3085,15.1864 84.6102,14.7525 84.6102,22.5627 78.1017,45.5593" stroke="#15ffe1" stroke-width="2" /><polyline fill="none" points="30.3729,61.6136 30.3729,72.0271 31.6746,70.7254 31.6746,68.5559" stroke="#7cff79" stroke-width="2" /><polyline fill="none" points="69.4237,66.8203 69.4237,77.6678" stroke="#e4ff12" stroke-width="2" /><polyline fill="none" points="34.278,85.0441 28.2034,85.478 22.1288,88.0814 16.0542,92.8542" stroke="#ff9400" stroke-width="2" /><polyline fill="none" points="36.8814,92.4203 22.9966,100.6644" stroke="#ff1d00" stroke-width="2" /><polyline fill="none" points="42.522,98.4949 37.7492,99.3627 33.4102,102.8339" stroke="#7f0000" stroke-width="2" /></svg>