<?xml version="1.0" encoding="utf-8" ?>
<svg baseProfile="tiny" height="128" version="1.2" viewBox="0,0,128,128" width="128" xmlns="http://www.w3.org/2000/svg" xmlns:ev="http://www.w3.org/2001/xml-events" xmlns:xlink="http://www.w3.org/1999/xlink"><defs /><polyline fill="none" points="25.6,82.8746 25.6,72.461 28.6373,60.7458 30.3729,59.0102 38.1831,76.3661 41.6542,78.1017 53.8034,75.4983 64.2169,75.4983 68.5559,76.8 86.7797,59.0102 88.9492,95.0237 84.1763,104.5695 68.122,116.2847 53.3695,119.322 40.7864,119.322 33.4102,117.1525 24.7322,110.6441 20.8271,104.1356 22.9966,79.8373" stroke="#00007f" stroke-width="2" /><polyline fill="none" points="29.5051,82.8746 30.8068,72.0271 37.7492,81.139" stroke="#0000e8" stroke-width="2" /><polyline fill="none" points="75.9322,81.5729 76.3661,78.5356 79.4034,74.6305 80.7051,78.5356 80.7051,84.6102" stroke="#0038ff" stroke-width="2" /><polyline fill="none" points="37.3153,91.9864 39.0508,90.2508 39.4847,92.4203 37.3153,93.2881" stroke="#0094ff" stroke-width="2" /><polyline fill="none" points="54.2373,91.1186 55.1051,89.3831 57.2746,89.3831 57.2746,91.1186 55.1051,91.5525" stroke="#0cf4ea" stroke-width="2" /><polyline fill="none" points="47.7288,99.3627 47.2949,100.6644" stroke="#56ffa0" stroke-width="2" /><polyline fill="none" points="45.1254,100.6644 45.5593,105.4373 39.9186,109.3424 37.3153,109.3424 36.4475,104.5695" stroke="#a0ff56" stroke-width="2" /><polyline fill="none" points="45.9932,100.2305 46.861,104.5695 53.3695,105.4373" stroke="#eaff0c" stroke-width="2" /><polyline fill="none" points="24.7322,15.6203 18.6576,16.0542 12.5831,20.3932 8.678,31.6746 8.678,36.4475 12.5831,39.9186 21.6949,39.4847 29.5051,31.2407" stroke="#ffaa00" stroke-width="2" /><polyline fill="none" points="31.6746,41.6542 40.7864,26.0339 52.5017,10.4136 55.1051,25.1661 55.9729,40.7864" stroke="#ff5500" stroke-width="2" /><polyline fill="none" points="36.0136,27.7695 38.1831,26.4678 64.6508,25.1661" stroke="#e80000" stroke-width="2" /><polyline fill="none" points="75.9322,8.678 74.6305,13.8847 74.1966,25.1661" stroke="#7f0000" stroke-width="2" /></svg>