<?xml version="1.0" encoding="utf-8" ?>
<svg baseProfile="tiny" height="128" version="1.2" viewBox="0,0,128,128" width="128" xmlns="http://www.w3.org/2000/svg" xmlns:ev="http://www.w3.org/2001/xml-events" xmlns:xlink="http://www.w3.org/1999/xlink"><defs /><polyline fill="none" points="15.2901,52.4232 15.727,41.0648 21.4061,18.3481 23.5904,10.9215 27.0853,8.7372 31.0171,17.0375 33.2014,35.8225 36.6962,48.9283" stroke="#00007f" stroke-width="2" /><polyline fill="none" points="36.6962,48.9283 65.0922,47.1809 69.0239,43.686 78.198,26.2116 84.7509,19.2218 86.4983,25.3379 86.4983,45.8703 89.9932,52.4232 93.4881,68.587 93.9249,110.0887 88.2457,116.2048 81.256,119.2628 58.5392,119.2628 22.2799,99.1672 15.2901,92.6143 9.1741,82.1297 8.7372,70.3345 11.7952,63.3447 20.5324,54.1706" stroke="#0028ff" stroke-width="2" /><polyline fill="none" points="49.802,75.1399 48.0546,82.1297 51.5495,79.5085 51.9863,76.4505 53.2969,79.5085 50.6758,83.4403" stroke="#00d4ff" stroke-width="2" /><polyline fill="none" points="50.6758,83.4403 49.3652,92.1775 44.1229,99.1672 41.5017,98.7304" stroke="#7cff79" stroke-width="2" /><polyline fill="none" points="52.4232,86.4983 52.4232,93.4881 54.6075,96.9829 57.2287,100.4778 62.0341,99.1672" stroke="#ffe500" stroke-width="2" /><polyline fill="none" points="34.9488,67.7133 34.9488,70.7713 36.2594,66.4027" stroke="#ff4600" stroke-width="2" /><polyline fill="none" points="63.7816,67.7133 63.7816,70.3345" stroke="#7f0000" stroke-width="2" /></svg>