<?xml version="1.0" encoding="utf-8" ?>
<svg baseProfile="tiny" height="128" version="1.2" viewBox="0,0,128,128" width="128" xmlns="http://www.w3.org/2000/svg" xmlns:ev="http://www.w3.org/2001/xml-events" xmlns:xlink="http://www.w3.org/1999/xlink"><defs /><polyline fill="none" points="39.1837,32.6531 36.1361,30.0408 29.6054,28.7347 23.9456,28.7347 20.898,30.0408 13.4966,41.3605 11.7551,54.4218 25.2517,66.1769 30.9116,67.9184 36.5714,67.9184 39.1837,66.6122 44.8435,57.9048 47.8912,43.9728 45.7143,39.1837 42.2313,33.9592 36.5714,30.0408 36.5714,28.2993 51.3741,15.6735 51.8095,23.5102 47.0204,41.3605" stroke="#00007f" stroke-width="2" /><polyline fill="none" points="24.8163,26.9932 10.449,8.7075 10.0136,40.0544" stroke="#0000d5" stroke-width="2" /><polyline fill="none" points="40.0544,71.4014 40.9252,68.7891 58.3401,67.0476 81.415,67.9184 90.9932,70.966 93.6054,74.8844 94.0408,79.2381 93.1701,83.1565 88.8163,86.6395 79.6735,91.4286 58.3401,91.8639 47.0204,88.381 38.3129,82.7211 34.3946,78.3673 32.6531,71.8367 34.3946,77.4966 35.2653,103.619" stroke="#001cff" stroke-width="2" /><polyline fill="none" points="50.068,88.8163 50.9388,108.4082" stroke="#006cff" stroke-width="2" /><polyline fill="none" points="72.2721,91.4286 73.1429,105.7959" stroke="#00b8ff" stroke-width="2" /><polyline fill="none" points="89.2517,88.8163 89.2517,97.5238 90.9932,105.3605" stroke="#1cffda" stroke-width="2" /><polyline fill="none" points="95.3469,71.8367 116.2449,53.9864 118.8571,47.8912 119.2925,37.8776 117.1156,37.8776 109.2789,44.8435 95.7823,65.7415 89.6871,70.5306" stroke="#5cff9a" stroke-width="2" /><polyline fill="none" points="42.2313,53.551 67.0476,41.7959" stroke="#9aff5c" stroke-width="2" /><polyline fill="none" points="39.1837,58.3401 49.1973,58.3401 61.8231,61.3878" stroke="#daff1c" stroke-width="2" /><polyline fill="none" points="37.4422,55.7279 47.8912,76.6259" stroke="#ffcb00" stroke-width="2" /><polyline fill="none" points="21.7687,44.4082 19.5918,43.102 12.6259,42.6667 8.7075,40.4898" stroke="#ff8500" stroke-width="2" /><polyline fill="none" points="10.0136,47.8912 10.0136,47.8912" stroke="#ff3b00" stroke-width="2" /><polyline fill="none" points="24.381,57.4694 13.4966,67.9184 9.5782,74.0136" stroke="#d50000" stroke-width="2" /><polyline fill="none" points="16.5442,51.3741 13.932,50.9388 9.5782,53.551" stroke="#7f0000" stroke-width="2" /></svg>