<?xml version="1.0" encoding="utf-8" ?>
<svg baseProfile="tiny" height="128" version="1.2" viewBox="0,0,128,128" width="128" xmlns="http://www.w3.org/2000/svg" xmlns:ev="http://www.w3.org/2001/xml-events" xmlns:xlink="http://www.w3.org/1999/xlink"><defs /><polyline fill="none" points="37.7492,47.2949 31.2407,47.7288 24.7322,53.3695 21.6949,60.7458 21.6949,75.4983 26.0339,82.8746 32.9763,89.8169 41.2203,94.1559 53.8034,97.1932 70.7254,96.3254 82.4407,91.9864 97.6271,82.8746 105.8712,71.5932 107.6068,63.7831 107.6068,55.539 104.1356,50.3322 98.9288,46.861 84.1763,41.2203 61.1797,41.2203 36.8814,45.5593" stroke="#00007f" stroke-width="2" /><polyline fill="none" points="29.0712,47.2949 22.9966,42.9559 9.1119,22.1288 8.678,13.8847 13.0169,8.678 37.3153,36.8814 41.6542,39.9186" stroke="#004cff" stroke-width="2" /><polyline fill="none" points="95.4576,47.2949 105.0034,36.8814 114.9831,22.9966 118.0203,18.6576 118.8881,15.1864 119.322,33.8441 117.5864,38.6169 111.9458,45.1254 102.4,51.6339" stroke="#29ffcd" stroke-width="2" /><polyline fill="none" points="62.0475,68.122 60.3119,68.5559 59.0102,70.7254 60.7458,72.461 62.0475,70.7254 60.7458,68.5559 55.9729,68.5559 55.1051,71.5932" stroke="#cdff29" stroke-width="2" /><polyline fill="none" points="65.0847,67.2542 57.2746,66.8203 43.3898,63.3492" stroke="#ff6700" stroke-width="2" /><polyline fill="none" points="63.7831,68.9898 85.0441,58.1424" stroke="#7f0000" stroke-width="2" /></svg>