<?xml version="1.0" encoding="utf-8" ?>
<svg baseProfile="tiny" height="128" version="1.2" viewBox="0,0,128,128" width="128" xmlns="http://www.w3.org/2000/svg" xmlns:ev="http://www.w3.org/2001/xml-events" xmlns:xlink="http://www.w3.org/1999/xlink"><defs /><polyline fill="none" points="38.0068,29.2696 33.6382,31.0171 29.7065,37.57 33.6382,44.1229 37.57,45.4334 43.686,44.1229 57.2287,35.8225 59.8498,32.3276 59.8498,28.8328 58.5392,25.7747 47.6177,24.0273 40.1911,25.3379 34.5119,28.8328" stroke="#00007f" stroke-width="2" /><polyline fill="none" points="41.9386,29.2696 41.0648,33.2014" stroke="#0000c8" stroke-width="2" /><polyline fill="none" points="50.2389,29.7065 49.802,32.7645" stroke="#0000ff" stroke-width="2" /><polyline fill="none" points="44.9966,35.8225 44.5597,39.3174" stroke="#0040ff" stroke-width="2" /><polyline fill="none" points="45.4334,36.6962 78.6348,35.8225" stroke="#0080ff" stroke-width="2" /><polyline fill="none" points="47.1809,40.628 76.4505,40.628" stroke="#00c0ff" stroke-width="2" /><polyline fill="none" points="44.5597,40.628 39.3174,38.8805 32.3276,38.8805 8.7372,41.5017" stroke="#15ffe1" stroke-width="2" /><polyline fill="none" points="40.628,40.628 14.8532,47.6177" stroke="#49ffad" stroke-width="2" /><polyline fill="none" points="27.0853,24.4642 34.5119,13.5427 41.0648,8.7372 41.9386,28.3959" stroke="#7cff79" stroke-width="2" /><polyline fill="none" points="53.2969,23.1536 56.3549,20.0956 64.2184,16.1638 62.471,23.1536 58.5392,28.8328" stroke="#b0ff46" stroke-width="2" /><polyline fill="none" points="28.8328,22.7167 33.2014,31.0171" stroke="#e4ff12" stroke-width="2" /><polyline fill="none" points="45.8703,46.744 75.1399,46.744 84.314,48.0546 87.372,49.802 87.8089,51.9863 85.1877,55.9181 79.0717,58.5392 55.4812,57.6655 42.3754,52.8601 37.57,47.6177 37.1331,44.5597" stroke="#ffcf00" stroke-width="2" /><polyline fill="none" points="47.6177,54.1706 43.2491,65.9659 43.2491,78.6348" stroke="#ff9400" stroke-width="2" /><polyline fill="none" points="62.9078,55.9181 59.413,78.198" stroke="#ff5900" stroke-width="2" /><polyline fill="none" points="72.5188,58.5392 72.5188,78.6348" stroke="#ff1d00" stroke-width="2" /><polyline fill="none" points="83.0034,58.9761 84.7509,65.0922 83.8771,78.198" stroke="#c30000" stroke-width="2" /><polyline fill="none" points="86.9352,52.8601 95.6724,51.1126 100.9147,47.6177 102.6621,43.686 103.099,29.2696 107.0307,24.901 110.5256,24.4642 118.8259,28.3959 119.2628,40.1911 115.7679,39.7543 112.273,34.0751 110.5256,33.2014 107.0307,36.2594 106.5939,38.4437 109.6519,47.6177 107.4676,51.5495 93.0512,55.9181 81.6928,55.0444" stroke="#7f0000" stroke-width="2" /></svg>