<?xml version="1.0" encoding="utf-8" ?>
<svg baseProfile="tiny" height="128" version="1.2" viewBox="0,0,128,128" width="128" xmlns="http://www.w3.org/2000/svg" xmlns:ev="http://www.w3.org/2001/xml-events" xmlns:xlink="http://www.w3.org/1999/xlink"><defs /><polyline fill="none" points="57.7085,29.0712 49.0305,25.6 33.4102,25.6 22.5627,31.6746 16.4881,39.4847 13.4508,49.8983 13.4508,64.2169 21.261,75.9322 32.5424,85.0441 42.0881,87.6475 48.5966,87.2136 55.539,82.0068 59.878,75.0644 62.9153,64.2169 63.3492,49.8983 61.6136,37.7492 56.8407,28.6373" stroke="#00007f" stroke-width="2" /><polyline fill="none" points="36.4475,56.4068 37.3153,61.6136 34.278,67.6881 32.1085,69.8576 24.7322,71.1593" stroke="#0000de" stroke-width="2" /><polyline fill="none" points="37.7492,56.8407 39.0508,65.9525 43.3898,71.1593 50.7661,72.0271 54.2373,70.2915" stroke="#0028ff" stroke-width="2" /><polyline fill="none" points="29.0712,70.7254 30.8068,74.1966 34.7119,76.8 42.0881,76.8 44.6915,75.9322 47.7288,70.2915" stroke="#0080ff" stroke-width="2" /><polyline fill="none" points="22.5627,51.2 13.0169,50.7661" stroke="#00d4ff" stroke-width="2" /><polyline fill="none" points="22.1288,57.2746 8.678,57.2746" stroke="#36ffc0" stroke-width="2" /><polyline fill="none" points="48.1627,51.6339 62.0475,50.7661" stroke="#7cff79" stroke-width="2" /><polyline fill="none" points="46.861,57.2746 59.0102,55.9729" stroke="#c0ff36" stroke-width="2" /><polyline fill="none" points="32.9763,44.2576 32.5424,37.7492" stroke="#ffe500" stroke-width="2" /><polyline fill="none" points="44.6915,39.9186 44.2576,36.0136" stroke="#ff9400" stroke-width="2" /><polyline fill="none" points="43.3898,23.8644 63.7831,8.678 63.3492,13.4508 57.2746,29.0712" stroke="#ff4600" stroke-width="2" /><polyline fill="none" points="22.1288,27.3356 8.678,9.5458 8.678,15.6203 13.0169,36.8814" stroke="#de0000" stroke-width="2" /><polyline fill="none" points="62.9153,55.9729 75.9322,53.8034 88.9492,53.3695 102.4,56.4068 108.0407,59.0102 113.6814,64.2169 118.0203,72.0271 119.322,77.2339 119.322,80.7051 117.1525,83.7424 102.8339,92.8542 94.1559,94.1559 65.5186,93.2881" stroke="#7f0000" stroke-width="2" /></svg>