<?xml version="1.0" encoding="utf-8" ?>
<svg baseProfile="tiny" height="128" version="1.2" viewBox="0,0,128,128" width="128" xmlns="http://www.w3.org/2000/svg" xmlns:ev="http://www.w3.org/2001/xml-events" xmlns:xlink="http://www.w3.org/1999/xlink"><defs /><polyline fill="none" points="54.6712,88.0814 49.4644,88.5153 38.6169,83.7424 29.939,73.7627 21.261,47.7288 17.7898,33.8441 18.6576,11.7153 20.8271,11.7153 29.0712,29.939 35.1458,36.8814 53.8034,36.8814 67.2542,33.8441 67.2542,17.3559 69.4237,8.678 80.2712,11.7153 86.3458,16.922 88.5153,19.9593 91.9864,31.2407 91.9864,46.861 88.9492,56.4068 71.1593,81.139 67.6881,84.1763 59.878,87.6475" stroke="#00007f" stroke-width="2" /><polyline fill="none" points="39.0508,65.9525 34.278,61.6136 29.5051,52.5017 29.0712,61.6136 32.1085,73.7627 33.4102,84.6102 23.8644,90.2508 17.7898,91.9864" stroke="#0000fe" stroke-width="2" /><polyline fill="none" points="40.7864,62.4814 38.6169,65.0847 30.3729,82.4407 26.0339,87.2136 16.4881,94.1559" stroke="#0060ff" stroke-width="2" /><polyline fill="none" points="36.4475,70.2915 27.3356,67.6881 19.9593,63.7831 16.0542,59.4441 14.7525,53.8034" stroke="#00d4ff" stroke-width="2" /><polyline fill="none" points="32.1085,69.8576 16.4881,71.1593 9.5458,73.3288 8.678,74.6305" stroke="#4cffaa" stroke-width="2" /><polyline fill="none" points="85.9119,63.3492 116.2847,40.7864 119.322,37.7492" stroke="#aaff4c" stroke-width="2" /><polyline fill="none" points="87.2136,62.0475 88.0814,68.122 92.8542,77.2339 101.5322,89.8169" stroke="#ffe500" stroke-width="2" /><polyline fill="none" points="84.1763,64.2169 88.0814,62.4814 98.4949,62.4814 115.8508,65.0847" stroke="#ff7a00" stroke-width="2" /><polyline fill="none" points="46.861,50.3322 49.0305,50.3322 52.0678,53.3695" stroke="#fe1200" stroke-width="2" /><polyline fill="none" points="75.0644,52.9356 75.0644,52.9356" stroke="#7f0000" stroke-width="2" /></svg>