<?xml version="1.0" encoding="utf-8" ?>
<svg baseProfile="tiny" height="128" version="1.2" viewBox="0,0,128,128" width="128" xmlns="http://www.w3.org/2000/svg" xmlns:ev="http://www.w3.org/2001/xml-events" xmlns:xlink="http://www.w3.org/1999/xlink"><defs /><polyline fill="none" points="37.7492,19.0915 35.5797,20.8271 33.4102,25.6 34.7119,33.8441 40.3525,39.4847 46.861,41.6542 52.5017,42.0881 57.2746,40.3525 59.878,36.8814 60.7458,29.939 57.7085,23.4305 53.3695,18.6576 37.7492,10.4136 35.1458,12.1492 34.278,19.5254" stroke="#00007f" stroke-width="2" /><polyline fill="none" points="49.0305,19.5254 65.9525,8.678" stroke="#0000e8" stroke-width="2" /><polyline fill="none" points="50.7661,28.2034 62.9153,24.7322 77.2339,17.7898" stroke="#0038ff" stroke-width="2" /><polyline fill="none" points="53.8034,21.6949 81.139,13.4508" stroke="#0094ff" stroke-width="2" /><polyline fill="none" points="36.0136,26.0339 8.678,30.8068" stroke="#0cf4ea" stroke-width="2" /><polyline fill="none" points="41.2203,29.5051 12.5831,40.7864" stroke="#56ffa0" stroke-width="2" /><polyline fill="none" points="42.522,34.278 34.7119,46.4271" stroke="#a0ff56" stroke-width="2" /><polyline fill="none" points="42.0881,27.3356 42.0881,31.2407 44.6915,32.9763 45.9932,30.3729 49.8983,29.5051 49.4644,26.0339" stroke="#eaff0c" stroke-width="2" /><polyline fill="none" points="41.6542,22.1288 40.7864,18.6576" stroke="#ffaa00" stroke-width="2" /><polyline fill="none" points="44.2576,16.0542 45.1254,19.0915" stroke="#ff5500" stroke-width="2" /><polyline fill="none" points="58.1424,42.0881 52.5017,48.1627 51.2,58.5763 54.6712,64.6508 65.0847,69.8576 78.5356,72.461 90.2508,72.8949 98.9288,65.9525 99.7966,56.4068 93.2881,49.4644 75.9322,45.5593 69.8576,45.9932 61.6136,50.7661" stroke="#e80000" stroke-width="2" /><polyline fill="none" points="99.3627,60.7458 105.8712,55.539 113.2475,45.9932 117.1525,39.0508 119.322,30.3729" stroke="#7f0000" stroke-width="2" /></svg>