<?xml version="1.0" encoding="utf-8" ?>
<svg baseProfile="tiny" height="128" version="1.2" viewBox="0,0,128,128" width="128" xmlns="http://www.w3.org/2000/svg" xmlns:ev="http://www.w3.org/2001/xml-events" xmlns:xlink="http://www.w3.org/1999/xlink"><defs /><polyline fill="none" points="21.6949,78.5356 19.0915,83.7424 18.6576,88.0814 21.6949,91.5525 24.7322,91.9864 30.3729,81.5729 33.4102,68.9898 34.7119,68.122 38.1831,71.1593 42.0881,71.5932 44.2576,62.0475 78.1017,62.9153 78.1017,69.8576 81.5729,72.461 85.9119,68.9898 86.7797,63.7831 85.9119,85.0441 87.6475,88.0814 90.6847,89.3831 93.2881,87.2136 95.4576,82.4407 95.8915,60.7458 100.2305,59.0102 118.8881,77.6678 119.322,71.5932 117.1525,65.0847 109.7763,57.2746 108.9085,54.2373 106.739,39.9186 104.1356,36.0136 98.9288,32.1085 76.3661,26.9017 54.6712,26.0339 51.6339,27.7695 44.2576,36.8814 34.7119,26.9017 27.7695,23.8644 19.9593,24.7322 14.7525,29.939 8.678,43.8237 8.678,49.8983 10.4136,55.1051 14.7525,59.4441 22.1288,63.7831 22.1288,76.3661" stroke="#00007f" stroke-width="2" /><polyline fill="none" points="19.5254,24.7322 19.0915,13.8847 27.7695,24.2983" stroke="#00d4ff" stroke-width="2" /><polyline fill="none" points="28.6373,21.6949 32.9763,8.678 33.8441,26.9017" stroke="#ffe500" stroke-width="2" /><polyline fill="none" points="27.7695,21.261 26.9017,22.9966" stroke="#7f0000" stroke-width="2" /></svg>