<?xml version="1.0" encoding="utf-8" ?>
<svg baseProfile="tiny" height="128" version="1.2" viewBox="0,0,128,128" width="128" xmlns="http://www.w3.org/2000/svg" xmlns:ev="http://www.w3.org/2001/xml-events" xmlns:xlink="http://www.w3.org/1999/xlink"><defs /><polyline fill="none" points="77.6678,25.6 75.9322,23.8644 59.878,22.9966 54.2373,25.1661 47.2949,31.2407 42.9559,40.7864 42.9559,50.3322 44.6915,56.8407 48.1627,60.3119 56.8407,59.4441 70.7254,53.3695 78.5356,48.1627 82.8746,39.9186 83.3085,32.5424 79.4034,25.1661 75.0644,25.1661" stroke="#00007f" stroke-width="2" /><polyline fill="none" points="75.9322,22.5627 75.9322,21.261 84.6102,16.4881 105.8712,8.678 87.6475,34.7119 82.8746,39.0508" stroke="#0000d5" stroke-width="2" /><polyline fill="none" points="52.0678,23.8644 52.0678,22.1288 49.8983,21.261 43.3898,19.9593 36.0136,20.8271 34.278,23.8644 55.539,33.8441" stroke="#001cff" stroke-width="2" /><polyline fill="none" points="40.3525,62.0475 39.0508,59.878 35.5797,60.3119 16.4881,68.5559 11.2814,74.6305 8.678,83.7424 8.678,94.5898 10.8475,105.0034 16.922,116.7186 21.261,118.4542 37.7492,119.322 51.6339,113.6814 59.878,107.6068 65.9525,94.5898 68.5559,75.0644 68.5559,61.6136 64.2169,58.1424 57.7085,57.7085" stroke="#006cff" stroke-width="2" /><polyline fill="none" points="46.4271,58.5763 34.7119,75.9322 24.7322,87.2136" stroke="#00b8ff" stroke-width="2" /><polyline fill="none" points="51.2,64.2169 50.7661,85.478 49.0305,95.8915 46.4271,101.5322" stroke="#1cffda" stroke-width="2" /><polyline fill="none" points="76.8,40.3525 86.7797,41.2203" stroke="#5cff9a" stroke-width="2" /><polyline fill="none" points="75.0644,49.8983 89.8169,51.6339" stroke="#9aff5c" stroke-width="2" /><polyline fill="none" points="46.4271,42.0881 40.3525,41.6542" stroke="#daff1c" stroke-width="2" /><polyline fill="none" points="49.4644,45.9932 49.4644,48.5966 46.861,50.7661 35.1458,52.9356" stroke="#ffcb00" stroke-width="2" /><polyline fill="none" points="59.878,41.6542 59.4441,48.5966 57.2746,55.1051 54.2373,57.7085 54.2373,49.4644" stroke="#ff8500" stroke-width="2" /><polyline fill="none" points="59.878,44.6915 65.9525,53.3695 68.5559,53.3695 73.3288,46.861 75.4983,40.7864" stroke="#ff3b00" stroke-width="2" /><polyline fill="none" points="58.1424,33.8441 58.1424,33.8441" stroke="#d50000" stroke-width="2" /><polyline fill="none" points="66.3864,32.9763 66.3864,32.9763" stroke="#7f0000" stroke-width="2" /></svg>