<?xml version="1.0" encoding="utf-8" ?>
<svg baseProfile="tiny" height="128" version="1.2" viewBox="0,0,128,128" width="128" xmlns="http://www.w3.org/2000/svg" xmlns:ev="http://www.w3.org/2001/xml-events" xmlns:xlink="http://www.w3.org/1999/xlink"><defs /><polyline fill="none" points="56.4068,45.1254 53.3695,52.9356 53.8034,60.3119 55.9729,67.2542 64.6508,75.9322 78.9695,81.139 95.8915,78.9695 107.6068,72.0271 111.078,65.9525 112.8136,55.9729 111.5119,45.1254 108.9085,39.9186 102.8339,33.4102 95.8915,29.0712 88.0814,26.4678 80.2712,26.0339 67.2542,28.6373 59.0102,32.5424 50.7661,44.2576" stroke="#00007f" stroke-width="2" /><polyline fill="none" points="94.5898,26.4678 96.7593,19.9593 103.7017,12.5831 105.8712,15.1864 105.8712,28.2034" stroke="#0080ff" stroke-width="2" /><polyline fill="none" points="63.3492,25.1661 58.5763,22.5627 45.9932,19.9593 45.5593,21.6949 50.3322,32.1085" stroke="#7cff79" stroke-width="2" /><polyline fill="none" points="52.0678,66.3864 44.2576,65.9525 29.939,69.8576 22.1288,77.6678 19.9593,84.1763 19.9593,91.5525 22.1288,111.078 25.6,117.1525 29.939,118.8881 39.9186,119.322 49.4644,115.8508 69.8576,101.5322 82.8746,86.3458" stroke="#ff9400" stroke-width="2" /><polyline fill="none" points="29.939,69.8576 28.6373,64.2169 21.6949,50.7661 20.3932,42.522 23.8644,30.8068 29.0712,18.6576 29.5051,15.1864 26.4678,10.8475 21.6949,8.678 17.3559,9.5458 15.6203,11.2814 10.8475,22.5627 10.4136,28.6373 12.5831,46.4271 8.678,60.3119 9.1119,67.6881" stroke="#7f0000" stroke-width="2" /></svg>