<?xml version="1.0" encoding="utf-8" ?>
<svg baseProfile="tiny" height="128" version="1.2" viewBox="0,0,128,128" width="128" xmlns="http://www.w3.org/2000/svg" xmlns:ev="http://www.w3.org/2001/xml-events" xmlns:xlink="http://www.w3.org/1999/xlink"><defs /><polyline fill="none" points="45.1254,65.5186 40.7864,62.0475 36.4475,63.3492 28.2034,68.9898 17.7898,79.4034 13.4508,92.8542 13.4508,100.2305 14.7525,103.7017 24.7322,111.5119 38.6169,117.1525 55.539,119.322 78.1017,119.322 85.0441,116.7186 91.1186,111.9458 98.4949,101.0983 99.7966,93.722 99.7966,72.8949 95.0237,66.3864 85.0441,59.878 74.6305,57.2746 49.4644,56.8407 34.7119,61.6136 31.2407,63.7831 31.2407,66.8203" stroke="#00007f" stroke-width="2" /><polyline fill="none" points="10.8475,72.461 9.5458,68.5559 8.678,17.3559 12.5831,15.6203 17.7898,18.6576 25.6,26.9017 50.7661,59.878" stroke="#0010ff" stroke-width="2" /><polyline fill="none" points="15.6203,64.6508 16.922,79.4034 19.9593,80.7051" stroke="#00a4ff" stroke-width="2" /><polyline fill="none" points="68.9898,51.2 70.2915,40.7864 77.2339,26.9017 86.7797,12.1492 94.1559,8.678 93.2881,54.2373 91.1186,67.6881" stroke="#3fffb7" stroke-width="2" /><polyline fill="none" points="45.9932,75.0644 49.8983,85.9119" stroke="#b7ff3f" stroke-width="2" /><polyline fill="none" points="70.2915,75.9322 68.9898,79.8373 69.4237,86.3458" stroke="#ffb900" stroke-width="2" /><polyline fill="none" points="55.539,98.4949 63.3492,98.4949" stroke="#ff3000" stroke-width="2" /><polyline fill="none" points="59.0102,97.6271 59.0102,97.6271" stroke="#7f0000" stroke-width="2" /></svg>