<?xml version="1.0" encoding="utf-8" ?>
<svg baseProfile="tiny" height="128" version="1.2" viewBox="0,0,128,128" width="128" xmlns="http://www.w3.org/2000/svg" xmlns:ev="http://www.w3.org/2001/xml-events" xmlns:xlink="http://www.w3.org/1999/xlink"><defs /><polyline fill="none" points="37.3153,87.2136 54.2373,92.8542 70.2915,94.1559 75.4983,91.9864 87.6475,83.3085 94.1559,75.4983 95.8915,72.0271 96.7593,59.4441 88.0814,52.5017 71.5932,46.861 52.5017,45.9932 45.9932,48.5966 39.0508,56.4068 36.8814,63.3492 36.4475,70.2915 36.4475,79.4034 37.7492,83.3085 42.9559,86.7797 51.6339,86.7797" stroke="#00007f" stroke-width="2" /><polyline fill="none" points="95.4576,59.0102 109.7763,45.5593 117.1525,34.7119 119.322,27.7695 113.2475,28.2034 79.4034,44.6915" stroke="#0000ff" stroke-width="2" /><polyline fill="none" points="45.9932,43.3898 47.2949,39.9186 44.6915,36.8814 9.9797,8.678 8.678,17.3559 9.5458,20.8271 39.0508,52.9356" stroke="#0080ff" stroke-width="2" /><polyline fill="none" points="62.0475,72.8949 66.3864,73.3288 68.122,71.5932 63.3492,70.2915 61.1797,71.1593 63.3492,72.0271 67.2542,72.0271 64.2169,71.5932" stroke="#15ffe1" stroke-width="2" /><polyline fill="none" points="66.3864,73.3288 76.3661,74.1966 84.6102,78.9695" stroke="#7cff79" stroke-width="2" /><polyline fill="none" points="69.8576,72.8949 81.139,69.4237" stroke="#e4ff12" stroke-width="2" /><polyline fill="none" points="67.6881,72.8949 79.8373,57.7085" stroke="#ff9400" stroke-width="2" /><polyline fill="none" points="63.3492,68.9898 59.0102,68.5559 52.9356,65.9525 44.6915,58.5763" stroke="#ff1d00" stroke-width="2" /><polyline fill="none" points="55.9729,71.1593 41.2203,71.5932" stroke="#7f0000" stroke-width="2" /></svg>