<?xml version="1.0" encoding="utf-8" ?>
<svg baseProfile="tiny" height="128" version="1.2" viewBox="0,0,128,128" width="128" xmlns="http://www.w3.org/2000/svg" xmlns:ev="http://www.w3.org/2001/xml-events" xmlns:xlink="http://www.w3.org/1999/xlink"><defs /><polyline fill="none" points="55.9729,82.0068 55.9729,82.0068" stroke="#00007f" stroke-width="2" /><polyline fill="none" points="22.1288,29.939 22.5627,40.3525 23.8644,43.8237 26.9017,46.4271 29.5051,46.4271 34.7119,44.2576 38.1831,40.3525 40.7864,33.8441 38.1831,30.3729 32.5424,27.7695 28.2034,29.0712 26.4678,32.1085" stroke="#0000e8" stroke-width="2" /><polyline fill="none" points="40.3525,45.1254 49.4644,52.0678 74.1966,58.1424 88.5153,57.2746 98.9288,51.6339 101.0983,47.7288 99.7966,44.6915 93.722,38.1831 84.6102,33.8441 64.6508,31.2407 57.7085,32.9763 43.8237,39.9186" stroke="#0038ff" stroke-width="2" /><polyline fill="none" points="26.0339,38.6169 8.678,46.861" stroke="#0094ff" stroke-width="2" /><polyline fill="none" points="29.0712,41.6542 43.3898,56.4068" stroke="#0cf4ea" stroke-width="2" /><polyline fill="none" points="55.1051,60.7458 53.8034,81.139" stroke="#56ffa0" stroke-width="2" /><polyline fill="none" points="65.5186,62.0475 53.8034,81.5729" stroke="#a0ff56" stroke-width="2" /><polyline fill="none" points="72.8949,62.4814 87.2136,75.9322" stroke="#eaff0c" stroke-width="2" /><polyline fill="none" points="94.1559,59.0102 87.2136,79.8373" stroke="#ffaa00" stroke-width="2" /><polyline fill="none" points="101.0983,48.5966 113.6814,39.4847 117.1525,30.8068 119.322,20.3932 118.0203,16.4881 112.3797,11.2814 103.7017,8.678 91.9864,13.8847 104.1356,19.0915 109.3424,19.5254 111.5119,24.7322 113.2475,34.7119 105.8712,45.1254 100.2305,49.8983" stroke="#ff5500" stroke-width="2" /><polyline fill="none" points="22.1288,32.9763 25.1661,24.7322 28.6373,30.3729" stroke="#e80000" stroke-width="2" /><polyline fill="none" points="36.8814,32.9763 51.6339,24.2983 52.0678,22.9966 42.9559,39.9186" stroke="#7f0000" stroke-width="2" /></svg>