<?xml version="1.0" encoding="utf-8" ?>
<svg baseProfile="tiny" height="128" version="1.2" viewBox="0,0,128,128" width="128" xmlns="http://www.w3.org/2000/svg" xmlns:ev="http://www.w3.org/2001/xml-events" xmlns:xlink="http://www.w3.org/1999/xlink"><defs /><polyline fill="none" points="25.1661,69.4237 15.6203,60.7458 15.6203,57.7085 16.4881,51.2 29.939,33.8441 39.4847,27.7695 52.5017,24.2983 82.8746,24.2983 91.1186,27.3356 98.061,32.9763 106.739,45.1254 109.7763,61.6136 109.7763,75.4983 108.0407,80.7051 102.4,92.4203 94.5898,100.6644 88.0814,103.7017 77.2339,104.1356 64.6508,98.4949 46.4271,84.1763 34.7119,71.1593 29.0712,62.0475 26.9017,49.8983 30.8068,43.8237 36.8814,40.3525" stroke="#00007f" stroke-width="2" /><polyline fill="none" points="19.0915,24.2983 13.4508,11.2814 10.4136,8.678 8.678,14.7525 9.9797,26.9017 16.4881,39.0508 25.1661,50.3322 31.6746,51.2" stroke="#0028ff" stroke-width="2" /><polyline fill="none" points="86.3458,22.1288 90.2508,20.8271 119.322,17.7898 117.5864,27.3356 113.6814,32.9763 108.9085,35.5797" stroke="#00d4ff" stroke-width="2" /><polyline fill="none" points="63.3492,37.7492 63.3492,37.7492" stroke="#7cff79" stroke-width="2" /><polyline fill="none" points="85.0441,39.9186 85.0441,42.0881" stroke="#ffe500" stroke-width="2" /><polyline fill="none" points="56.8407,42.0881 56.8407,42.9559" stroke="#ff4600" stroke-width="2" /><polyline fill="none" points="55.9729,63.3492 55.9729,63.3492" stroke="#7f0000" stroke-width="2" /></svg>