<?xml version="1.0" encoding="utf-8" ?>
<svg baseProfile="tiny" height="128" version="1.2" viewBox="0,0,128,128" width="128" xmlns="http://www.w3.org/2000/svg" xmlns:ev="http://www.w3.org/2001/xml-events" xmlns:xlink="http://www.w3.org/1999/xlink"><defs /><polyline fill="none" points="32.2177,17.8503 29.6054,17.8503 23.9456,23.0748 22.2041,26.9932 22.2041,33.5238 26.9932,38.3129 37.4422,39.619 42.6667,37.4422 46.1497,33.5238 48.3265,26.5578 47.8912,24.381 44.8435,20.898 36.5714,17.8503" stroke="#00007f" stroke-width="2" /><polyline fill="none" points="40.4898,16.1088 56.1633,8.7075 56.1633,12.1905 50.5034,24.381" stroke="#0000cc" stroke-width="2" /><polyline fill="none" points="27.8639,16.5442 17.415,8.7075 17.415,12.1905 22.2041,25.6871" stroke="#0008ff" stroke-width="2" /><polyline fill="none" points="47.4558,29.6054 64.0,23.5102 75.7551,22.6395 81.8503,26.5578 83.5918,30.0408 83.5918,34.8299 78.3673,41.3605 69.2245,44.8435 58.3401,44.8435 49.1973,42.2313 44.4082,39.1837" stroke="#004cff" stroke-width="2" /><polyline fill="none" points="47.8912,41.7959 43.102,57.034" stroke="#0090ff" stroke-width="2" /><polyline fill="none" points="58.3401,42.6667 58.7755,47.8912 56.1633,59.2109" stroke="#00d4ff" stroke-width="2" /><polyline fill="none" points="70.5306,46.1497 74.0136,60.9524" stroke="#29ffcd" stroke-width="2" /><polyline fill="none" points="78.8027,42.6667 82.2857,58.7755" stroke="#5fff96" stroke-width="2" /><polyline fill="none" points="87.0748,27.8639 90.1224,24.8163 96.6531,23.9456 110.1497,31.3469 116.2449,31.7823 119.2925,27.4286 119.2925,19.5918 115.8095,16.9796 110.585,16.1088 107.102,17.415 105.3605,19.5918 105.7959,23.9456 108.4082,25.6871" stroke="#96ff5f" stroke-width="2" /><polyline fill="none" points="28.7347,23.9456 29.1701,27.8639 31.3469,27.8639 30.4762,25.2517" stroke="#cdff29" stroke-width="2" /><polyline fill="none" points="40.9252,25.2517 39.619,26.5578 42.2313,27.4286 41.7959,23.9456" stroke="#ffe500" stroke-width="2" /><polyline fill="none" points="29.6054,30.9116 22.6395,32.2177 8.7075,37.4422" stroke="#ffa600" stroke-width="2" /><polyline fill="none" points="28.2993,30.4762 17.8503,40.9252" stroke="#ff6700" stroke-width="2" /><polyline fill="none" points="42.2313,28.2993 56.5986,30.4762" stroke="#ff2800" stroke-width="2" /><polyline fill="none" points="41.7959,30.4762 54.8571,34.3946" stroke="#cc0000" stroke-width="2" /><polyline fill="none" points="35.7007,31.3469 35.2653,32.6531 37.8776,34.3946 39.619,33.0884 37.0068,31.7823" stroke="#7f0000" stroke-width="2" /></svg>