<?xml version="1.0" encoding="utf-8" ?>
<svg baseProfile="tiny" height="128" version="1.2" viewBox="0,0,128,128" width="128" xmlns="http://www.w3.org/2000/svg" xmlns:ev="http://www.w3.org/2001/xml-events" xmlns:xlink="http://www.w3.org/1999/xlink"><defs /><polyline fill="none" points="67.483,119.2925 67.9184,67.483" stroke="#00007f" stroke-width="2" /><polyline fill="none" points="67.0476,66.1769 90.1224,61.3878 96.6531,55.2925 100.1361,47.0204 99.7007,43.102 95.7823,36.5714 89.2517,32.6531 78.8027,29.6054 69.6599,29.1701 56.5986,33.9592 31.3469,39.619 19.1565,44.8435 10.8844,51.3741 8.7075,55.7279 14.3673,63.1293 21.3333,67.0476 29.1701,68.3537 37.4422,66.6122 52.2449,66.1769 65.3061,61.3878 75.7551,60.0816 75.3197,61.3878" stroke="#0010ff" stroke-width="2" /><polyline fill="none" points="33.9592,67.483 35.7007,78.3673 43.102,105.3605 47.0204,115.8095 47.8912,110.585" stroke="#00a4ff" stroke-width="2" /><polyline fill="none" points="47.0204,69.2245 53.1156,75.7551 59.6463,100.1361 61.8231,113.6327 64.0,118.8571 64.8707,117.9864" stroke="#3fffb7" stroke-width="2" /><polyline fill="none" points="76.1905,64.4354 87.0748,84.898 94.9116,110.585 95.7823,112.3265 96.2177,107.5374" stroke="#b7ff3f" stroke-width="2" /><polyline fill="none" points="88.381,31.3469 92.2993,20.0272 100.5714,9.5782 104.4898,8.7075 113.1973,16.9796 114.5034,20.898 114.068,26.1224 111.4558,30.0408 103.619,35.7007 97.5238,37.4422 95.3469,35.2653" stroke="#ffb900" stroke-width="2" /><polyline fill="none" points="102.7483,15.6735 102.7483,15.6735" stroke="#ff3000" stroke-width="2" /><polyline fill="none" points="104.9252,16.5442 104.9252,16.1088" stroke="#7f0000" stroke-width="2" /></svg>