<?xml version="1.0" encoding="utf-8" ?>
<svg baseProfile="tiny" height="128" version="1.2" viewBox="0,0,128,128" width="128" xmlns="http://www.w3.org/2000/svg" xmlns:ev="http://www.w3.org/2001/xml-events" xmlns:xlink="http://www.w3.org/1999/xlink"><defs /><polyline fill="none" points="24.7322,43.8237 25.1661,17.7898 28.6373,8.678 30.3729,9.1119 39.4847,24.2983 45.5593,39.0508 52.0678,34.278 62.4814,32.9763 75.0644,39.0508 77.2339,32.5424 88.5153,9.1119 92.4203,23.8644 92.4203,38.1831 94.1559,48.1627 94.1559,55.539 91.9864,62.0475 83.3085,72.0271 72.0271,77.6678 51.2,78.5356 44.6915,76.8 36.4475,70.2915 26.4678,54.6712 24.7322,48.5966 24.7322,42.9559" stroke="#00007f" stroke-width="2" /><polyline fill="none" points="48.5966,52.9356 58.5763,58.5763 61.1797,50.7661" stroke="#0000e8" stroke-width="2" /><polyline fill="none" points="59.0102,59.0102 60.3119,67.2542 54.6712,72.8949 50.7661,72.0271 47.7288,68.5559 48.1627,64.6508 51.6339,61.6136" stroke="#0038ff" stroke-width="2" /><polyline fill="none" points="57.2746,58.1424 57.7085,61.6136 65.0847,68.5559 68.9898,68.5559 70.2915,62.4814" stroke="#0094ff" stroke-width="2" /><polyline fill="none" points="76.8,44.2576 75.4983,48.1627 75.9322,43.8237" stroke="#0cf4ea" stroke-width="2" /><polyline fill="none" points="44.6915,47.7288 44.6915,47.7288" stroke="#56ffa0" stroke-width="2" /><polyline fill="none" points="39.0508,47.2949 38.1831,49.4644 39.4847,50.7661 42.0881,48.1627" stroke="#a0ff56" stroke-width="2" /><polyline fill="none" points="79.4034,54.2373 119.322,47.7288" stroke="#eaff0c" stroke-width="2" /><polyline fill="none" points="86.7797,61.1797 88.9492,59.878 95.8915,59.0102 112.3797,60.7458 119.322,59.878" stroke="#ffaa00" stroke-width="2" /><polyline fill="none" points="89.8169,68.122 95.8915,71.1593 118.8881,75.0644" stroke="#ff5500" stroke-width="2" /><polyline fill="none" points="36.4475,59.878 8.678,60.3119" stroke="#e80000" stroke-width="2" /><polyline fill="none" points="36.8814,70.7254 35.5797,69.8576" stroke="#7f0000" stroke-width="2" /></svg>