<?xml version="1.0" encoding="utf-8" ?>
<svg baseProfile="tiny" height="128" version="1.2" viewBox="0,0,128,128" width="128" xmlns="http://www.w3.org/2000/svg" xmlns:ev="http://www.w3.org/2001/xml-events" xmlns:xlink="http://www.w3.org/1999/xlink"><defs /><polyline fill="none" points="23.5102,43.102 18.2857,47.4558 14.3673,55.2925 13.4966,73.5782 17.8503,85.3333 26.5578,100.5714 32.6531,108.4082 42.2313,115.3741 49.1973,118.8571 62.6939,119.2925 68.3537,117.551 74.449,113.1973 80.5442,101.8776 82.2857,92.7347 81.415,84.0272 76.1905,70.5306 70.5306,63.5646 55.2925,53.551 39.1837,47.8912 26.5578,46.585 21.7687,48.7619" stroke="#00007f" stroke-width="2" /><polyline fill="none" points="11.3197,50.9388 9.1429,40.0544 8.7075,30.4762 10.449,18.7211 14.3673,8.7075 26.5578,30.9116 33.5238,52.6803" stroke="#004cff" stroke-width="2" /><polyline fill="none" points="71.4014,57.4694 86.2041,31.7823 97.5238,16.1088 98.3946,27.4286 95.7823,47.0204 85.7687,79.2381" stroke="#29ffcd" stroke-width="2" /><polyline fill="none" points="45.2789,91.4286 45.7143,90.5578 43.9728,91.8639 40.4898,90.1224" stroke="#cdff29" stroke-width="2" /><polyline fill="none" points="30.0408,93.6054 36.1361,88.8163 39.1837,90.9932 43.9728,97.9592 49.6327,99.7007 53.9864,98.3946 59.2109,91.4286" stroke="#ff6700" stroke-width="2" /><polyline fill="none" points="59.2109,89.6871 61.8231,93.6054 65.7415,95.3469 76.1905,95.3469" stroke="#7f0000" stroke-width="2" /></svg>