<?xml version="1.0" encoding="utf-8" ?>
<svg baseProfile="tiny" height="128" version="1.2" viewBox="0,0,128,128" width="128" xmlns="http://www.w3.org/2000/svg" xmlns:ev="http://www.w3.org/2001/xml-events" xmlns:xlink="http://www.w3.org/1999/xlink"><defs /><polyline fill="none" points="53.8034,10.4136 55.9729,37.7492 57.7085,33.4102" stroke="#00007f" stroke-width="2" /><polyline fill="none" points="60.7458,8.678 60.7458,36.4475 61.6136,37.3153 66.3864,37.7492 70.2915,36.4475 76.3661,26.9017 75.9322,36.8814 77.6678,39.9186 85.0441,41.6542 91.1186,41.6542 99.3627,36.4475 104.1356,29.5051 105.8712,38.1831 110.2102,40.7864 114.1153,38.1831 118.8881,30.8068 119.322,32.9763 116.2847,40.7864 110.2102,51.6339 96.7593,60.7458 80.2712,65.9525 47.7288,65.9525 25.6,60.3119 13.8847,55.1051 9.5458,51.2 8.678,36.0136 10.8475,29.0712 12.1492,29.939 15.1864,36.0136 19.0915,36.4475 42.0881,25.6" stroke="#7f0000" stroke-width="2" /></svg>