<?xml version="1.0" encoding="utf-8" ?>
<svg baseProfile="tiny" height="128" version="1.2" viewBox="0,0,128,128" width="128" xmlns="http://www.w3.org/2000/svg" xmlns:ev="http://www.w3.org/2001/xml-events" xmlns:xlink="http://www.w3.org/1999/xlink"><defs /><polyline fill="none" points="9.1119,11.7153 8.678,33.4102 10.8475,36.8814 16.922,42.0881 28.6373,45.9932 41.2203,48.1627 59.878,48.1627 75.4983,43.3898 87.6475,36.4475 94.5898,27.7695 98.061,19.0915 98.061,9.9797 94.1559,8.678" stroke="#00007f" stroke-width="2" /><polyline fill="none" points="12.5831,33.8441 10.4136,42.522 10.4136,52.0678 12.5831,58.1424 16.4881,62.0475 20.3932,62.0475 23.4305,56.4068 31.6746,61.6136 38.1831,63.3492 45.1254,63.3492 51.6339,59.878 64.2169,62.9153 70.7254,62.4814 76.8,56.4068 86.3458,57.2746 88.0814,55.1051 90.2508,39.9186 90.6847,11.2814" stroke="#0010ff" stroke-width="2" /><polyline fill="none" points="21.6949,60.3119 20.8271,64.6508 21.6949,69.8576 22.9966,73.7627 27.3356,78.1017 34.278,77.2339 37.3153,71.1593 45.9932,76.8 49.0305,76.8 52.9356,72.8949 59.878,75.9322 65.9525,76.3661 75.4983,69.8576 79.4034,65.0847 81.139,57.7085 81.139,46.861" stroke="#00a4ff" stroke-width="2" /><polyline fill="none" points="30.3729,74.1966 28.6373,75.0644 29.0712,86.7797 32.5424,94.1559 36.0136,98.061 42.522,98.9288 44.6915,97.6271 51.6339,87.6475 56.4068,91.9864 62.0475,92.8542 67.2542,85.9119 70.2915,78.9695 70.7254,69.4237 68.9898,58.1424" stroke="#3fffb7" stroke-width="2" /><polyline fill="none" points="37.7492,98.4949 36.0136,99.7966 36.0136,115.8508 36.8814,118.4542 40.3525,119.322 42.522,113.6814 43.8237,106.3051 42.9559,93.722" stroke="#b7ff3f" stroke-width="2" /><polyline fill="none" points="53.8034,85.478 51.6339,87.6475 51.6339,97.6271 54.2373,113.6814 57.2746,116.7186 61.1797,113.6814 62.0475,101.9661 55.9729,83.3085 55.9729,77.2339" stroke="#ffb900" stroke-width="2" /><polyline fill="none" points="62.9153,83.3085 62.4814,92.8542 65.0847,102.4 72.461,108.4746 77.2339,107.6068 76.8,98.4949 66.8203,78.1017" stroke="#ff3000" stroke-width="2" /><polyline fill="none" points="31.6746,87.2136 27.7695,96.3254 27.3356,106.3051 29.5051,110.6441 35.1458,111.9458 37.7492,110.2102 39.4847,104.1356 39.4847,98.061 36.0136,86.7797" stroke="#7f0000" stroke-width="2" /></svg>