<?xml version="1.0" encoding="utf-8" ?>
<svg baseProfile="tiny" height="128" version="1.2" viewBox="0,0,128,128" width="128" xmlns="http://www.w3.org/2000/svg" xmlns:ev="http://www.w3.org/2001/xml-events" xmlns:xlink="http://www.w3.org/1999/xlink"><defs /><polyline fill="none" points="62.9153,8.678 69.4237,31.2407 79.4034,44.2576 85.9119,47.2949 94.1559,47.2949 100.2305,43.3898 104.5695,36.0136 103.2678,47.2949 99.3627,53.3695 95.4576,55.9729 88.5153,58.1424 58.5763,60.7458 34.7119,59.4441 19.5254,55.1051 12.5831,49.8983 9.5458,44.6915 8.678,38.1831 11.7153,32.9763 16.4881,30.3729 20.3932,30.3729 41.2203,43.8237 46.4271,45.1254 50.7661,44.6915 55.9729,40.7864 61.1797,30.3729 65.0847,9.5458" stroke="#00007f" stroke-width="2" /><polyline fill="none" points="104.5695,45.9932 100.6644,49.8983 91.5525,54.2373 82.8746,54.2373 78.1017,53.3695 81.139,48.1627 79.4034,47.7288 46.4271,56.8407 39.0508,50.3322 24.7322,46.4271 15.6203,40.3525 13.8847,41.2203" stroke="#0000fe" stroke-width="2" /><polyline fill="none" points="13.0169,54.2373 13.8847,63.7831" stroke="#0060ff" stroke-width="2" /><polyline fill="none" points="27.7695,56.8407 28.2034,61.6136 31.2407,62.4814" stroke="#00d4ff" stroke-width="2" /><polyline fill="none" points="45.9932,58.1424 49.4644,64.2169 56.4068,65.0847" stroke="#4cffaa" stroke-width="2" /><polyline fill="none" points="66.8203,61.1797 73.7627,65.9525" stroke="#aaff4c" stroke-width="2" /><polyline fill="none" points="87.6475,61.1797 89.8169,63.7831 92.8542,64.2169" stroke="#ffe500" stroke-width="2" /><polyline fill="none" points="100.6644,59.878 101.0983,59.4441" stroke="#ff7a00" stroke-width="2" /><polyline fill="none" points="103.7017,50.3322 106.739,53.8034" stroke="#fe1200" stroke-width="2" /><polyline fill="none" points="109.7763,45.1254 119.322,48.1627" stroke="#7f0000" stroke-width="2" /></svg>