<?xml version="1.0" encoding="utf-8" ?>
<svg baseProfile="tiny" height="128" version="1.2" viewBox="0,0,128,128" width="128" xmlns="http://www.w3.org/2000/svg" xmlns:ev="http://www.w3.org/2001/xml-events" xmlns:xlink="http://www.w3.org/1999/xlink"><defs /><polyline fill="none" points="31.4539,110.0887 42.3754,110.0887 44.9966,113.5836 44.9966,119.2628 32.7645,119.2628 28.8328,117.9522 27.959,116.2048 31.8908,111.8362" stroke="#00007f" stroke-width="2" /><polyline fill="none" points="34.0751,115.3311 31.8908,77.3242 24.4642,67.2765 11.7952,59.413 9.1741,53.7338 8.7372,48.0546 13.5427,48.0546 20.0956,57.6655 35.3857,68.587 38.0068,66.8396 39.7543,56.3549 39.7543,41.0648 43.2491,40.628 44.1229,42.3754 45.4334,65.529 47.1809,66.4027 53.7338,65.0922 57.2287,51.5495 59.413,46.744 63.3447,42.8123 66.4027,41.0648 70.3345,41.0648 72.9556,44.5597 73.8294,48.0546 72.9556,53.2969 65.529,63.3447 62.0341,69.8976 44.1229,77.3242 41.0648,80.3823 40.1911,104.4096 38.0068,114.0205" stroke="#0080ff" stroke-width="2" /><polyline fill="none" points="11.3584,44.9966 11.3584,21.843 14.8532,22.2799 16.1638,25.7747 16.6007,48.4915 14.8532,49.802 11.7952,48.9283" stroke="#7cff79" stroke-width="2" /><polyline fill="none" points="42.3754,38.0068 41.5017,29.7065 43.2491,14.8532 47.1809,15.2901 44.1229,39.3174" stroke="#ff9400" stroke-width="2" /><polyline fill="none" points="70.3345,39.7543 69.4608,34.9488 69.4608,20.9693 72.5188,8.7372 74.7031,10.0478 76.4505,19.2218 72.0819,42.3754 65.9659,31.4539" stroke="#7f0000" stroke-width="2" /></svg>