<?xml version="1.0" encoding="utf-8" ?>
<svg baseProfile="tiny" height="128" version="1.2" viewBox="0,0,128,128" width="128" xmlns="http://www.w3.org/2000/svg" xmlns:ev="http://www.w3.org/2001/xml-events" xmlns:xlink="http://www.w3.org/1999/xlink"><defs /><polyline fill="none" points="8.678,25.1661 26.9017,41.2203 32.1085,47.2949 45.5593,57.7085 55.539,62.4814 65.0847,62.9153 70.2915,62.4814 75.0644,59.0102 81.139,51.6339 86.7797,37.3153 88.0814,22.5627" stroke="#00007f" stroke-width="2" /><polyline fill="none" points="52.9356,64.2169 55.539,39.4847" stroke="#0000ff" stroke-width="2" /><polyline fill="none" points="53.3695,29.939 54.6712,32.9763 61.6136,35.1458 62.4814,57.2746" stroke="#0080ff" stroke-width="2" /><polyline fill="none" points="57.7085,19.5254 54.6712,9.1119 58.5763,8.678 66.3864,16.922 69.4237,26.0339" stroke="#15ffe1" stroke-width="2" /><polyline fill="none" points="59.878,17.7898 58.5763,21.6949 58.5763,31.2407" stroke="#7cff79" stroke-width="2" /><polyline fill="none" points="25.1661,35.5797 21.261,37.3153 21.6949,75.0644 26.0339,76.3661 32.5424,74.6305 39.4847,69.4237 45.1254,60.7458 42.0881,77.2339 42.0881,90.6847 43.3898,93.722 46.861,95.4576 53.3695,95.4576 57.2746,92.4203 65.0847,92.4203 78.9695,100.2305 80.2712,95.4576 80.2712,74.6305" stroke="#e4ff12" stroke-width="2" /><polyline fill="none" points="50.7661,91.9864 47.7288,95.8915 47.7288,104.1356 49.0305,108.4746 55.1051,114.9831 61.6136,116.2847 64.6508,114.5492 66.3864,110.2102 65.5186,102.4 62.4814,98.061 59.0102,96.3254 58.1424,104.1356 59.0102,111.078 65.0847,119.322" stroke="#ff9400" stroke-width="2" /><polyline fill="none" points="82.4407,82.8746 93.722,89.8169 98.9288,98.061 104.1356,91.9864 107.1729,82.4407 108.4746,64.2169 102.8339,55.539 95.0237,50.7661" stroke="#ff1d00" stroke-width="2" /><polyline fill="none" points="92.4203,40.7864 92.4203,40.7864" stroke="#7f0000" stroke-width="2" /></svg>