<?xml version="1.0" encoding="utf-8" ?>
<svg baseProfile="tiny" height="128" version="1.2" viewBox="0,0,128,128" width="128" xmlns="http://www.w3.org/2000/svg" xmlns:ev="http://www.w3.org/2001/xml-events" xmlns:xlink="http://www.w3.org/1999/xlink"><defs /><polyline fill="none" points="42.9559,8.678 49.0305,18.6576 53.8034,30.3729 53.8034,34.7119" stroke="#00007f" stroke-width="2" /><polyline fill="none" points="60.7458,39.0508 42.522,39.9186 36.4475,42.0881 24.2983,50.3322 16.4881,63.7831 13.4508,73.7627 13.0169,86.7797 14.3186,89.3831" stroke="#004cff" stroke-width="2" /><polyline fill="none" points="67.2542,37.3153 76.3661,39.9186 85.0441,44.2576 90.6847,50.3322 96.7593,61.6136 98.9288,67.2542 98.9288,80.2712 93.2881,98.4949 82.8746,98.9288 42.522,93.722 11.2814,93.722 8.678,95.4576" stroke="#29ffcd" stroke-width="2" /><polyline fill="none" points="8.678,95.4576 15.6203,104.5695 17.7898,113.6814 22.1288,119.322 24.7322,118.8881 26.9017,115.8508 29.0712,106.739 29.0712,98.9288 26.9017,92.4203" stroke="#cdff29" stroke-width="2" /><polyline fill="none" points="40.3525,98.061 49.4644,115.8508 54.2373,101.0983 58.1424,95.4576" stroke="#ff6700" stroke-width="2" /><polyline fill="none" points="69.8576,98.061 76.3661,106.739 83.3085,112.3797 85.9119,111.9458 88.0814,109.3424 93.2881,98.061" stroke="#7f0000" stroke-width="2" /></svg>