<?xml version="1.0" encoding="utf-8" ?>
<svg baseProfile="tiny" height="128" version="1.2" viewBox="0,0,128,128" width="128" xmlns="http://www.w3.org/2000/svg" xmlns:ev="http://www.w3.org/2001/xml-events" xmlns:xlink="http://www.w3.org/1999/xlink"><defs /><polyline fill="none" points="57.7085,8.678 54.2373,27.7695 59.878,68.122 57.7085,58.5763 50.7661,50.3322 46.4271,47.7288 42.0881,47.7288 37.7492,50.7661 32.5424,55.539 26.9017,64.6508 22.5627,76.3661 26.4678,88.0814 27.7695,90.2508 31.6746,91.1186" stroke="#00007f" stroke-width="2" /><polyline fill="none" points="60.3119,67.6881 65.0847,52.5017 67.2542,49.8983 72.461,47.7288 78.5356,48.5966 92.4203,59.4441 97.1932,67.6881 97.6271,74.6305 93.2881,89.3831 91.1186,87.6475" stroke="#0028ff" stroke-width="2" /><polyline fill="none" points="54.6712,64.2169 62.0475,54.6712 67.2542,41.2203 73.3288,31.2407 78.1017,26.4678 80.7051,26.0339 87.6475,29.939 96.3254,36.8814 103.2678,46.861 119.322,86.7797 117.1525,88.5153 115.8508,88.0814" stroke="#00d4ff" stroke-width="2" /><polyline fill="none" points="61.1797,53.8034 49.8983,31.2407 33.8441,23.4305 27.3356,22.9966 19.5254,26.9017 13.4508,34.278 9.1119,49.4644 8.678,64.2169 11.2814,73.7627 15.6203,75.0644 19.5254,73.7627" stroke="#7cff79" stroke-width="2" /><polyline fill="none" points="32.1085,94.1559 34.278,96.7593 36.8814,97.6271 39.4847,95.4576 39.4847,88.9492 35.1458,88.0814 28.6373,91.1186" stroke="#ffe500" stroke-width="2" /><polyline fill="none" points="17.3559,72.461 12.5831,75.9322 9.9797,80.2712 8.678,89.3831 16.4881,88.9492 20.8271,83.3085 21.6949,76.8 20.3932,72.0271 14.7525,68.122 12.5831,68.122 11.2814,70.2915 18.6576,77.6678" stroke="#ff4600" stroke-width="2" /><polyline fill="none" points="88.5153,84.1763 82.8746,88.5153 81.139,98.4949 81.5729,109.3424 83.7424,114.5492 86.7797,117.1525 92.4203,117.1525 98.4949,108.9085 101.0983,96.7593 98.4949,86.3458 96.7593,84.1763 95.0237,83.7424 94.5898,85.9119 96.3254,87.2136" stroke="#7f0000" stroke-width="2" /></svg>