<?xml version="1.0" encoding="utf-8" ?>
<svg baseProfile="tiny" height="128" version="1.2" viewBox="0,0,128,128" width="128" xmlns="http://www.w3.org/2000/svg" xmlns:ev="http://www.w3.org/2001/xml-events" xmlns:xlink="http://www.w3.org/1999/xlink"><defs /><polyline fill="none" points="60.3119,17.7898 56.4068,46.861 49.0305,66.8203" stroke="#00007f" stroke-width="2" /><polyline fill="none" points="55.1051,8.678 54.6712,11.7153 55.9729,13.8847 62.9153,16.922 73.3288,15.6203 80.2712,12.5831" stroke="#004cff" stroke-width="2" /><polyline fill="none" points="74.6305,17.3559 71.5932,30.3729 71.5932,43.3898 74.1966,64.2169 75.4983,65.9525 85.9119,72.8949 92.4203,74.1966 101.0983,72.8949 107.6068,66.3864 109.3424,56.8407" stroke="#29ffcd" stroke-width="2" /><polyline fill="none" points="47.7288,64.2169 42.9559,68.122 37.3153,69.8576 30.8068,67.2542 27.3356,62.4814 26.0339,57.7085 27.7695,43.3898" stroke="#cdff29" stroke-width="2" /><polyline fill="none" points="50.7661,64.6508 50.7661,91.9864 47.2949,99.7966 42.9559,105.8712 37.7492,109.3424 29.5051,111.5119 21.6949,108.0407 13.8847,98.9288 8.678,88.5153" stroke="#ff6700" stroke-width="2" /><polyline fill="none" points="77.2339,65.9525 76.8,72.8949 81.139,91.1186 87.2136,104.1356 92.8542,109.7763 99.3627,110.6441 106.3051,108.4746 110.2102,105.4373 116.7186,94.1559 119.322,82.8746" stroke="#7f0000" stroke-width="2" /></svg>