<?xml version="1.0" encoding="utf-8" ?>
<svg baseProfile="tiny" height="128" version="1.2" viewBox="0,0,128,128" width="128" xmlns="http://www.w3.org/2000/svg" xmlns:ev="http://www.w3.org/2001/xml-events" xmlns:xlink="http://www.w3.org/1999/xlink"><defs /><polyline fill="none" points="58.7755,10.0136 57.4694,8.7075 56.5986,15.2381 56.1633,26.9932 57.9048,43.9728 55.7279,47.8912 41.7959,49.6327 22.6395,46.585 16.5442,42.6667 12.6259,37.4422 10.449,29.6054 11.3197,33.5238" stroke="#00007f" stroke-width="2" /><polyline fill="none" points="57.4694,45.7143 64.0,47.0204 75.7551,47.0204 94.0408,41.7959 108.8435,33.0884 112.7619,29.1701 117.9864,19.5918" stroke="#0000fe" stroke-width="2" /><polyline fill="none" points="12.1905,30.0408 9.5782,23.0748 10.449,28.2993 8.7075,21.3333 8.7075,28.2993" stroke="#0060ff" stroke-width="2" /><polyline fill="none" points="118.4218,19.1565 119.2925,10.8844 119.2925,17.415" stroke="#00d4ff" stroke-width="2" /><polyline fill="none" points="22.6395,49.1973 23.5102,50.9388 23.0748,63.5646 25.6871,67.0476 33.5238,71.8367 33.9592,77.932" stroke="#4cffaa" stroke-width="2" /><polyline fill="none" points="47.4558,51.3741 47.8912,61.3878 52.6803,74.0136 53.9864,74.0136" stroke="#aaff4c" stroke-width="2" /><polyline fill="none" points="68.7891,44.8435 64.8707,57.4694 67.0476,60.0816 76.1905,65.3061 76.6259,73.1429" stroke="#ffe500" stroke-width="2" /><polyline fill="none" points="95.7823,43.5374 102.7483,53.9864 102.7483,58.3401 99.2653,68.3537 101.4422,70.5306 104.4898,70.966" stroke="#ff7a00" stroke-width="2" /><polyline fill="none" points="58.7755,45.2789 68.7891,41.3605 76.6259,33.9592 80.9796,20.0272" stroke="#fe1200" stroke-width="2" /><polyline fill="none" points="61.8231,45.7143 46.1497,39.1837 42.6667,36.5714" stroke="#7f0000" stroke-width="2" /></svg>