<?xml version="1.0" encoding="utf-8" ?>
<svg baseProfile="tiny" height="128" version="1.2" viewBox="0,0,128,128" width="128" xmlns="http://www.w3.org/2000/svg" xmlns:ev="http://www.w3.org/2001/xml-events" xmlns:xlink="http://www.w3.org/1999/xlink"><defs /><polyline fill="none" points="62.0475,8.678 62.0475,22.9966 55.1051,24.2983 51.2,31.6746 37.3153,41.6542 33.4102,43.8237 27.7695,44.6915 15.6203,39.0508" stroke="#00007f" stroke-width="2" /><polyline fill="none" points="61.1797,23.4305 70.7254,23.4305 73.3288,24.7322 80.7051,39.9186 87.2136,46.861 94.1559,47.2949 104.5695,43.3898 108.9085,36.0136" stroke="#004cff" stroke-width="2" /><polyline fill="none" points="61.1797,22.9966 60.7458,40.7864 49.4644,56.8407 44.2576,60.3119 33.4102,63.3492 9.1119,62.9153 8.678,60.7458" stroke="#29ffcd" stroke-width="2" /><polyline fill="none" points="65.5186,25.1661 64.2169,40.3525 71.1593,45.9932 98.061,60.7458 107.6068,59.878 114.5492,54.6712" stroke="#cdff29" stroke-width="2" /><polyline fill="none" points="103.7017,32.1085 110.6441,35.5797 111.5119,26.9017 109.3424,26.4678 107.1729,29.939" stroke="#ff6700" stroke-width="2" /><polyline fill="none" points="115.4169,48.5966 114.1153,52.9356 114.9831,55.1051 117.1525,55.9729 119.322,48.1627 116.7186,45.9932" stroke="#7f0000" stroke-width="2" /></svg>