<?xml version="1.0" encoding="utf-8" ?>
<svg baseProfile="tiny" height="128" version="1.2" viewBox="0,0,128,128" width="128" xmlns="http://www.w3.org/2000/svg" xmlns:ev="http://www.w3.org/2001/xml-events" xmlns:xlink="http://www.w3.org/1999/xlink"><defs /><polyline fill="none" points="57.2746,8.678 56.4068,19.0915 61.6136,52.0678 62.4814,75.9322" stroke="#00007f" stroke-width="2" /><polyline fill="none" points="64.6508,77.2339 72.8949,85.0441 79.4034,88.0814 85.0441,88.9492 92.4203,85.0441 98.9288,78.5356 101.5322,68.5559" stroke="#0028ff" stroke-width="2" /><polyline fill="none" points="63.3492,75.4983 52.0678,86.7797 38.1831,95.4576 28.6373,95.8915 16.0542,91.1186 8.678,86.3458" stroke="#00d4ff" stroke-width="2" /><polyline fill="none" points="61.6136,76.3661 66.8203,74.6305 75.4983,68.122 80.7051,62.9153 84.6102,56.4068" stroke="#7cff79" stroke-width="2" /><polyline fill="none" points="59.878,70.7254 52.9356,72.8949 47.2949,72.0271 27.3356,62.0475" stroke="#ffe500" stroke-width="2" /><polyline fill="none" points="63.3492,78.9695 63.3492,82.4407 70.2915,101.9661 78.1017,113.6814 86.3458,119.322" stroke="#ff4600" stroke-width="2" /><polyline fill="none" points="62.9153,79.8373 59.878,91.9864" stroke="#7f0000" stroke-width="2" /></svg>