<?xml version="1.0" encoding="utf-8" ?>
<svg baseProfile="tiny" height="128" version="1.2" viewBox="0,0,128,128" width="128" xmlns="http://www.w3.org/2000/svg" xmlns:ev="http://www.w3.org/2001/xml-events" xmlns:xlink="http://www.w3.org/1999/xlink"><defs /><polyline fill="none" points="61.6136,39.0508 62.9153,19.5254 61.6136,8.678" stroke="#00007f" stroke-width="2" /><polyline fill="none" points="62.4814,39.0508 73.7627,41.2203 79.4034,47.7288 79.8373,50.7661 77.6678,53.3695 71.5932,53.3695 66.8203,49.4644 59.4441,38.1831" stroke="#0000cc" stroke-width="2" /><polyline fill="none" points="59.878,43.3898 59.4441,40.3525 60.7458,39.9186 65.9525,45.5593 66.3864,59.0102 60.3119,64.6508 53.3695,64.6508 51.2,58.1424 51.2,49.8983 54.2373,43.8237 57.7085,42.0881" stroke="#0008ff" stroke-width="2" /><polyline fill="none" points="59.878,39.9186 47.2949,52.0678 39.4847,52.5017 35.5797,49.0305 35.1458,40.3525 39.0508,35.1458 43.8237,32.5424 51.6339,32.1085 54.6712,33.4102 61.1797,39.9186" stroke="#004cff" stroke-width="2" /><polyline fill="none" points="61.1797,65.0847 68.5559,72.8949" stroke="#0090ff" stroke-width="2" /><polyline fill="none" points="50.7661,65.0847 41.6542,81.5729" stroke="#00d4ff" stroke-width="2" /><polyline fill="none" points="56.4068,70.2915 49.8983,73.3288 41.6542,80.7051" stroke="#29ffcd" stroke-width="2" /><polyline fill="none" points="45.5593,60.7458 42.9559,61.1797 34.278,66.3864 18.6576,81.139" stroke="#5fff96" stroke-width="2" /><polyline fill="none" points="25.6,55.1051 11.2814,58.5763" stroke="#96ff5f" stroke-width="2" /><polyline fill="none" points="26.4678,35.5797 9.5458,30.3729" stroke="#cdff29" stroke-width="2" /><polyline fill="none" points="31.2407,34.278 22.9966,31.2407 14.7525,25.1661 8.678,18.2237" stroke="#ffe500" stroke-width="2" /><polyline fill="none" points="87.2136,47.7288 87.6475,49.8983 94.5898,55.1051 109.7763,56.4068 112.8136,58.5763" stroke="#ffa600" stroke-width="2" /><polyline fill="none" points="77.2339,66.8203 89.8169,78.1017" stroke="#ff6700" stroke-width="2" /><polyline fill="none" points="77.2339,62.4814 81.139,64.6508" stroke="#ff2800" stroke-width="2" /><polyline fill="none" points="90.6847,41.2203 107.6068,37.3153" stroke="#cc0000" stroke-width="2" /><polyline fill="none" points="96.7593,37.3153 106.3051,34.7119 119.322,34.278" stroke="#7f0000" stroke-width="2" /></svg>