<?xml version="1.0" encoding="utf-8" ?>
<svg baseProfile="tiny" height="128" version="1.2" viewBox="0,0,128,128" width="128" xmlns="http://www.w3.org/2000/svg" xmlns:ev="http://www.w3.org/2001/xml-events" xmlns:xlink="http://www.w3.org/1999/xlink"><defs /><polyline fill="none" points="59.4441,11.7153 56.4068,40.7864 58.5763,38.6169" stroke="#00007f" stroke-width="2" /><polyline fill="none" points="83.7424,8.678 81.5729,21.261 74.6305,33.8441" stroke="#0000ff" stroke-width="2" /><polyline fill="none" points="55.539,44.6915 33.8441,44.2576 31.6746,42.522 29.939,28.2034" stroke="#0080ff" stroke-width="2" /><polyline fill="none" points="70.7254,34.7119 78.9695,36.8814 88.0814,34.7119 104.5695,17.3559 107.6068,15.6203" stroke="#15ffe1" stroke-width="2" /><polyline fill="none" points="87.2136,36.8814 86.7797,39.9186 88.9492,46.4271 94.5898,54.2373 107.1729,61.6136 119.322,64.2169" stroke="#7cff79" stroke-width="2" /><polyline fill="none" points="50.7661,47.2949 36.0136,62.4814 22.1288,74.1966 10.8475,79.4034 8.678,78.9695" stroke="#e4ff12" stroke-width="2" /><polyline fill="none" points="58.5763,48.5966 58.1424,75.0644 56.4068,82.8746 53.3695,87.6475 37.3153,101.9661" stroke="#ff9400" stroke-width="2" /><polyline fill="none" points="81.5729,36.0136 79.4034,44.6915 79.8373,60.3119 84.6102,80.7051 91.5525,87.2136 100.6644,91.5525 114.5492,92.4203 116.7186,91.1186" stroke="#ff1d00" stroke-width="2" /><polyline fill="none" points="29.5051,29.939 26.4678,23.4305 27.3356,18.6576 39.0508,19.9593 45.5593,22.9966" stroke="#7f0000" stroke-width="2" /></svg>