<?xml version="1.0" encoding="utf-8" ?>
<svg baseProfile="tiny" height="128" version="1.2" viewBox="0,0,128,128" width="128" xmlns="http://www.w3.org/2000/svg" xmlns:ev="http://www.w3.org/2001/xml-events" xmlns:xlink="http://www.w3.org/1999/xlink"><defs /><polyline fill="none" points="46.4271,79.4034 30.8068,78.9695 17.3559,82.0068 10.8475,85.478 8.678,93.2881 9.5458,107.1729 10.8475,109.3424 16.4881,111.9458 35.1458,112.8136 46.4271,111.078 78.9695,110.6441 93.722,108.0407 102.4,105.4373 111.078,99.7966 117.1525,91.5525 116.7186,86.7797 111.9458,75.4983 102.4,67.2542 83.7424,63.3492 50.3322,64.6508" stroke="#00007f" stroke-width="2" /><polyline fill="none" points="48.5966,78.1017 57.7085,81.139 65.0847,80.2712 78.5356,69.8576 79.8373,63.3492 78.1017,60.7458 69.8576,59.4441 59.878,62.0475" stroke="#00d4ff" stroke-width="2" /><polyline fill="none" points="24.2983,98.4949 25.1661,105.0034 23.8644,116.2847 27.3356,119.322 36.8814,117.5864 95.0237,114.9831 97.1932,113.2475 97.1932,110.6441 91.1186,84.6102" stroke="#ffe500" stroke-width="2" /><polyline fill="none" points="82.0068,84.1763 82.8746,65.9525 77.6678,35.5797 77.6678,41.2203 75.4983,43.3898 70.7254,45.5593 63.3492,43.8237 62.9153,45.9932 68.5559,59.878 73.7627,85.478 71.1593,70.2915 69.4237,43.3898 73.7627,58.5763 69.4237,36.8814 77.2339,55.9729 76.8,46.4271 74.1966,36.8814 76.3661,50.3322 80.7051,62.9153 72.8949,19.0915 68.5559,8.678 68.122,19.0915 76.3661,50.7661" stroke="#7f0000" stroke-width="2" /></svg>