<?xml version="1.0" encoding="utf-8" ?>
<svg baseProfile="tiny" height="128" version="1.2" viewBox="0,0,128,128" width="128" xmlns="http://www.w3.org/2000/svg" xmlns:ev="http://www.w3.org/2001/xml-events" xmlns:xlink="http://www.w3.org/1999/xlink"><defs /><polyline fill="none" points="39.0508,46.4271 17.3559,38.6169 8.678,39.4847 12.5831,46.861 22.9966,59.0102 58.5763,71.5932 78.5356,81.139 92.4203,83.3085 107.1729,83.3085 114.1153,82.0068 118.8881,72.0271 119.322,52.5017 116.7186,45.1254 115.4169,44.6915 92.4203,53.8034 59.878,60.7458 40.3525,62.4814 24.7322,61.1797 20.8271,57.2746 18.2237,52.0678 18.6576,50.3322 25.6,45.9932 36.4475,42.522" stroke="#00007f" stroke-width="2" /><polyline fill="none" points="68.9898,57.2746 64.2169,46.861 63.3492,30.8068 59.878,29.5051 60.7458,13.0169 59.878,8.678" stroke="#004cff" stroke-width="2" /><polyline fill="none" points="79.8373,53.8034 79.8373,35.5797 78.1017,18.2237" stroke="#29ffcd" stroke-width="2" /><polyline fill="none" points="27.3356,61.6136 29.939,67.2542 32.9763,70.2915 44.2576,76.8 51.2,77.6678 59.0102,77.6678 76.3661,73.7627 91.9864,72.461 99.3627,69.8576 105.4373,64.2169" stroke="#cdff29" stroke-width="2" /><polyline fill="none" points="65.9525,72.8949 65.5186,90.6847 67.6881,102.8339" stroke="#ff6700" stroke-width="2" /><polyline fill="none" points="76.3661,75.0644 81.139,90.2508 88.9492,101.0983" stroke="#7f0000" stroke-width="2" /></svg>