<?xml version="1.0" encoding="utf-8" ?>
<svg baseProfile="tiny" height="128" version="1.2" viewBox="0,0,128,128" width="128" xmlns="http://www.w3.org/2000/svg" xmlns:ev="http://www.w3.org/2001/xml-events" xmlns:xlink="http://www.w3.org/1999/xlink"><defs /><polyline fill="none" points="61.1797,8.678 62.0475,26.4678" stroke="#00007f" stroke-width="2" /><polyline fill="none" points="70.7254,11.2814 69.4237,14.7525 69.4237,29.0712" stroke="#0000bf" stroke-width="2" /><polyline fill="none" points="78.9695,29.5051 59.878,29.0712 57.2746,29.939 52.0678,35.5797 50.3322,44.2576" stroke="#0000fe" stroke-width="2" /><polyline fill="none" points="50.3322,42.522 61.6136,45.1254 72.0271,45.1254 85.0441,42.9559" stroke="#0028ff" stroke-width="2" /><polyline fill="none" points="80.2712,29.0712 85.0441,37.3153 86.7797,45.5593" stroke="#0060ff" stroke-width="2" /><polyline fill="none" points="56.4068,46.4271 56.4068,53.3695" stroke="#009cff" stroke-width="2" /><polyline fill="none" points="52.5017,56.4068 8.678,56.4068" stroke="#00d4ff" stroke-width="2" /><polyline fill="none" points="12.1492,56.4068 10.8475,77.6678" stroke="#1fffd7" stroke-width="2" /><polyline fill="none" points="26.4678,57.7085 29.0712,67.6881 32.5424,73.3288" stroke="#4cffaa" stroke-width="2" /><polyline fill="none" points="39.4847,60.7458 40.3525,67.6881 42.0881,70.2915" stroke="#7cff79" stroke-width="2" /><polyline fill="none" points="52.5017,57.2746 49.8983,59.4441 49.4644,67.2542" stroke="#aaff4c" stroke-width="2" /><polyline fill="none" points="62.0475,49.4644 64.2169,59.4441" stroke="#d7ff1f" stroke-width="2" /><polyline fill="none" points="71.5932,49.8983 69.8576,53.8034 71.5932,70.2915" stroke="#ffe500" stroke-width="2" /><polyline fill="none" points="83.3085,51.2 82.4407,57.2746 83.3085,72.461" stroke="#ffb100" stroke-width="2" /><polyline fill="none" points="90.2508,45.9932 90.2508,61.1797 92.4203,69.8576" stroke="#ff7a00" stroke-width="2" /><polyline fill="none" points="99.3627,42.9559 101.0983,60.3119" stroke="#ff4600" stroke-width="2" /><polyline fill="none" points="109.3424,43.3898 109.7763,61.1797" stroke="#fe1200" stroke-width="2" /><polyline fill="none" points="118.8881,56.4068 119.322,71.5932" stroke="#bf0000" stroke-width="2" /><polyline fill="none" points="21.261,50.3322 16.922,49.0305 14.7525,43.8237 14.7525,39.9186 19.9593,36.8814 24.2983,37.3153 25.1661,49.8983" stroke="#7f0000" stroke-width="2" /></svg>