<?xml version="1.0" encoding="utf-8" ?>
<svg baseProfile="tiny" height="128" version="1.2" viewBox="0,0,128,128" width="128" xmlns="http://www.w3.org/2000/svg" xmlns:ev="http://www.w3.org/2001/xml-events" xmlns:xlink="http://www.w3.org/1999/xlink"><defs /><polyline fill="none" points="70.2915,8.678 68.9898,41.6542 36.4475,42.522 29.5051,44.6915 26.4678,46.4271 23.8644,50.7661 23.8644,54.6712 25.6,57.7085 67.6881,59.0102 118.4542,59.0102 119.322,57.7085 118.8881,52.0678 114.5492,47.2949 111.5119,45.1254 72.461,44.6915 68.5559,42.9559" stroke="#00007f" stroke-width="2" /><polyline fill="none" points="115.8508,60.7458 116.2847,85.478" stroke="#0010ff" stroke-width="2" /><polyline fill="none" points="100.2305,60.7458 100.6644,82.0068" stroke="#00a4ff" stroke-width="2" /><polyline fill="none" points="84.1763,60.3119 79.4034,85.9119" stroke="#3fffb7" stroke-width="2" /><polyline fill="none" points="59.4441,53.3695 56.8407,59.878 56.4068,84.1763 55.1051,82.8746" stroke="#b7ff3f" stroke-width="2" /><polyline fill="none" points="36.4475,56.4068 30.3729,80.2712" stroke="#ffb900" stroke-width="2" /><polyline fill="none" points="29.5051,55.9729 21.261,65.0847 12.5831,67.2542 8.678,66.3864" stroke="#ff3000" stroke-width="2" /><polyline fill="none" points="70.7254,22.1288 54.2373,22.1288 45.1254,20.8271 38.6169,16.0542" stroke="#7f0000" stroke-width="2" /></svg>