<?xml version="1.0" encoding="utf-8" ?>
<svg baseProfile="tiny" height="128" version="1.2" viewBox="0,0,128,128" width="128" xmlns="http://www.w3.org/2000/svg" xmlns:ev="http://www.w3.org/2001/xml-events" xmlns:xlink="http://www.w3.org/1999/xlink"><defs /><polyline fill="none" points="62.9153,8.678 63.7831,33.4102 67.2542,53.8034 69.8576,61.6136 75.0644,68.5559 86.3458,72.8949 102.4,74.1966 109.3424,72.8949 113.2475,70.7254 119.322,64.6508 116.7186,62.0475" stroke="#00007f" stroke-width="2" /><polyline fill="none" points="62.9153,13.4508 69.4237,44.6915 68.5559,55.9729 65.5186,68.122 56.8407,78.9695 45.9932,84.1763 33.8441,84.1763 26.4678,82.0068 19.0915,78.9695 12.1492,74.1966 8.678,67.2542 9.5458,62.0475" stroke="#00d4ff" stroke-width="2" /><polyline fill="none" points="72.0271,65.0847 74.1966,76.8 79.8373,88.0814 87.2136,91.9864 91.9864,88.9492" stroke="#ffe500" stroke-width="2" /><polyline fill="none" points="68.5559,73.3288 68.5559,100.6644 67.2542,104.5695 59.4441,108.9085 51.6339,108.0407 47.2949,105.4373" stroke="#7f0000" stroke-width="2" /></svg>