<?xml version="1.0" encoding="utf-8" ?>
<svg baseProfile="tiny" height="128" version="1.2" viewBox="0,0,128,128" width="128" xmlns="http://www.w3.org/2000/svg" xmlns:ev="http://www.w3.org/2001/xml-events" xmlns:xlink="http://www.w3.org/1999/xlink"><defs /><polyline fill="none" points="52.5017,8.678 54.6712,22.9966 55.1051,44.6915 54.2373,50.3322 49.4644,61.1797 43.3898,70.7254 33.8441,77.6678 21.6949,77.6678 15.6203,74.1966 13.0169,70.7254 8.678,59.878" stroke="#00007f" stroke-width="2" /><polyline fill="none" points="53.3695,12.1492 55.1051,46.861 60.7458,62.4814 64.2169,66.3864 73.7627,70.2915 87.2136,70.7254 91.9864,68.9898 98.9288,63.7831 101.9661,57.7085 101.9661,52.9356 95.8915,45.9932" stroke="#0080ff" stroke-width="2" /><polyline fill="none" points="53.3695,48.5966 56.4068,54.2373 59.0102,66.3864 59.4441,85.9119 58.1424,92.8542 54.2373,98.061 49.4644,100.2305 44.2576,99.7966 39.0508,92.8542" stroke="#7cff79" stroke-width="2" /><polyline fill="none" points="55.539,50.3322 58.5763,83.7424 64.2169,100.2305 68.9898,105.0034 78.1017,105.0034 84.1763,100.2305 85.0441,96.7593 83.7424,95.8915" stroke="#ff9400" stroke-width="2" /><polyline fill="none" points="61.1797,92.8542 63.3492,117.5864 58.1424,119.322 55.539,117.1525" stroke="#7f0000" stroke-width="2" /></svg>