<?xml version="1.0" encoding="utf-8" ?>
<svg baseProfile="tiny" height="128" version="1.2" viewBox="0,0,128,128" width="128" xmlns="http://www.w3.org/2000/svg" xmlns:ev="http://www.w3.org/2001/xml-events" xmlns:xlink="http://www.w3.org/1999/xlink"><defs /><polyline fill="none" points="38.6169,8.678 38.6169,20.8271" stroke="#00007f" stroke-width="2" /><polyline fill="none" points="46.4271,8.678 46.4271,20.3932" stroke="#0000c8" stroke-width="2" /><polyline fill="none" points="37.3153,20.3932 16.4881,29.939 10.4136,35.5797 9.9797,38.1831" stroke="#0000ff" stroke-width="2" /><polyline fill="none" points="49.4644,21.261 75.9322,36.0136 79.8373,39.4847" stroke="#0040ff" stroke-width="2" /><polyline fill="none" points="13.4508,37.3153 59.4441,38.6169 81.5729,36.8814" stroke="#0080ff" stroke-width="2" /><polyline fill="none" points="18.6576,38.6169 12.5831,39.9186 8.678,44.2576 9.9797,53.8034 16.0542,58.1424 25.1661,57.2746 34.278,47.7288 34.278,45.9932 29.939,42.522 21.6949,39.0508" stroke="#00c0ff" stroke-width="2" /><polyline fill="none" points="75.0644,38.1831 68.9898,38.6169 64.6508,41.2203 60.7458,45.9932 59.0102,56.8407 62.4814,61.1797 68.5559,62.4814 77.2339,61.1797 83.7424,56.8407 87.2136,52.5017 86.7797,44.6915 84.1763,40.7864 80.2712,38.1831 67.2542,35.5797" stroke="#15ffe1" stroke-width="2" /><polyline fill="none" points="47.2949,39.9186 42.522,42.522 36.8814,51.6339 36.8814,55.9729 40.3525,62.0475 46.4271,65.5186 53.3695,65.5186 59.878,62.4814 64.6508,57.2746 64.6508,49.0305 57.2746,42.9559 52.0678,41.2203" stroke="#49ffad" stroke-width="2" /><polyline fill="none" points="19.9593,56.8407 19.5254,59.878 22.1288,66.8203 31.2407,74.1966" stroke="#7cff79" stroke-width="2" /><polyline fill="none" points="83.3085,60.3119 77.6678,73.3288 74.1966,78.1017 67.6881,82.4407" stroke="#b0ff46" stroke-width="2" /><polyline fill="none" points="36.8814,74.1966 31.6746,73.3288 28.2034,75.0644 21.261,82.0068 20.8271,87.6475 27.7695,94.1559 38.6169,95.0237 49.0305,89.8169 49.8983,84.6102 48.1627,80.2712 45.1254,77.2339" stroke="#e4ff12" stroke-width="2" /><polyline fill="none" points="68.5559,77.2339 66.8203,77.6678 63.7831,81.139 62.0475,87.6475 64.6508,95.0237 68.5559,95.8915 75.0644,92.8542 76.8,87.2136 66.8203,74.1966" stroke="#ffcf00" stroke-width="2" /><polyline fill="none" points="72.461,94.5898 63.7831,103.7017 55.1051,106.739" stroke="#ff9400" stroke-width="2" /><polyline fill="none" points="42.9559,90.6847 49.0305,98.4949 58.1424,102.4 62.0475,102.4" stroke="#ff5900" stroke-width="2" /><polyline fill="none" points="59.878,101.9661 48.1627,105.8712 46.4271,108.0407 50.3322,115.4169 59.878,119.322 72.8949,111.9458 73.7627,107.6068 58.5763,103.2678 52.9356,104.1356" stroke="#ff1d00" stroke-width="2" /><polyline fill="none" points="53.8034,64.6508 52.0678,68.122 52.0678,80.2712 55.9729,85.0441 62.0475,88.0814 64.6508,87.2136" stroke="#c30000" stroke-width="2" /><polyline fill="none" points="52.9356,64.6508 56.4068,78.5356 55.539,81.5729 52.0678,83.3085" stroke="#7f0000" stroke-width="2" /></svg>