<?xml version="1.0" encoding="utf-8" ?>
<svg baseProfile="tiny" height="128" version="1.2" viewBox="0,0,128,128" width="128" xmlns="http://www.w3.org/2000/svg" xmlns:ev="http://www.w3.org/2001/xml-events" xmlns:xlink="http://www.w3.org/1999/xlink"><defs /><polyline fill="none" points="8.7075,48.7619 9.1429,68.3537 11.7551,83.5918 14.3673,85.3333 16.9796,84.898 29.6054,78.3673 57.4694,51.8095 65.3061,33.5238 69.6599,8.7075 68.3537,90.9932 71.4014,103.619 72.7075,106.2313 76.1905,105.3605 80.1088,96.2177 86.2041,90.1224 91.4286,87.5102 93.6054,82.2857" stroke="#00007f" stroke-width="2" /><polyline fill="none" points="68.7891,23.9456 68.7891,51.3741 62.6939,80.1088 58.3401,89.6871 40.0544,100.5714 30.0408,108.8435 20.0272,111.8912 13.932,111.0204" stroke="#004cff" stroke-width="2" /><polyline fill="none" points="66.1769,59.2109 64.8707,61.8231 60.9524,110.1497 62.2585,113.6327 67.9184,119.2925 88.8163,118.8571 104.4898,106.6667 107.102,103.1837" stroke="#29ffcd" stroke-width="2" /><polyline fill="none" points="106.2313,104.4898 107.102,106.6667 107.102,97.5238 107.5374,107.5374" stroke="#cdff29" stroke-width="2" /><polyline fill="none" points="98.3946,108.4082 97.5238,111.4558" stroke="#ff6700" stroke-width="2" /><polyline fill="none" points="83.1565,119.2925 83.1565,119.2925" stroke="#7f0000" stroke-width="2" /></svg>