<?xml version="1.0" encoding="utf-8" ?>
<svg baseProfile="tiny" height="128" version="1.2" viewBox="0,0,128,128" width="128" xmlns="http://www.w3.org/2000/svg" xmlns:ev="http://www.w3.org/2001/xml-events" xmlns:xlink="http://www.w3.org/1999/xlink"><defs /><polyline fill="none" points="76.3661,12.5831 76.8,50.3322 74.6305,59.4441 71.1593,65.0847 68.122,66.3864 56.8407,65.9525 49.0305,62.0475 39.0508,49.4644 40.3525,42.0881" stroke="#00007f" stroke-width="2" /><polyline fill="none" points="88.0814,8.678 86.3458,28.2034 82.4407,44.6915 82.4407,62.9153 85.478,65.5186 96.3254,64.6508 119.322,51.6339" stroke="#0000e8" stroke-width="2" /><polyline fill="none" points="38.1831,40.7864 31.2407,50.7661 21.6949,83.7424" stroke="#0038ff" stroke-width="2" /><polyline fill="none" points="14.7525,94.1559 11.7153,91.1186 8.678,83.3085 9.5458,76.3661 18.2237,72.0271 32.9763,72.461 34.278,74.1966 34.278,82.8746 29.939,90.6847 20.8271,95.4576 15.6203,95.8915 12.1492,89.8169 11.7153,82.0068 13.0169,76.8 19.9593,72.8949" stroke="#0094ff" stroke-width="2" /><polyline fill="none" points="45.9932,60.3119 47.7288,86.3458" stroke="#0cf4ea" stroke-width="2" /><polyline fill="none" points="39.9186,103.2678 33.4102,101.9661 32.1085,98.9288 32.1085,93.722 42.522,80.7051 53.3695,78.5356 55.539,79.8373 55.9729,84.1763 55.539,86.3458 48.1627,90.6847 42.0881,83.7424 44.2576,81.5729" stroke="#56ffa0" stroke-width="2" /><polyline fill="none" points="68.5559,62.0475 67.6881,76.3661 65.5186,82.0068" stroke="#a0ff56" stroke-width="2" /><polyline fill="none" points="60.3119,97.1932 56.8407,95.0237 56.4068,88.9492 62.4814,78.5356 72.0271,72.8949 74.6305,76.3661 73.7627,88.5153 68.5559,94.1559 62.9153,91.5525 59.878,76.8 65.0847,76.8" stroke="#eaff0c" stroke-width="2" /><polyline fill="none" points="80.7051,60.3119 80.7051,78.9695 79.4034,88.5153" stroke="#ffaa00" stroke-width="2" /><polyline fill="none" points="77.6678,102.4 75.4983,91.5525 78.9695,84.6102 87.6475,81.139 88.9492,88.0814 82.4407,96.3254 72.8949,91.5525 77.2339,82.8746 82.0068,82.8746" stroke="#ff5500" stroke-width="2" /><polyline fill="none" points="101.9661,63.7831 102.8339,79.8373 101.0983,84.6102" stroke="#e80000" stroke-width="2" /><polyline fill="none" points="105.4373,85.478 104.5695,95.4576 99.7966,96.7593 95.8915,94.1559 94.1559,85.478" stroke="#7f0000" stroke-width="2" /></svg>