<?xml version="1.0" encoding="utf-8" ?>
<svg baseProfile="tiny" height="128" version="1.2" viewBox="0,0,128,128" width="128" xmlns="http://www.w3.org/2000/svg" xmlns:ev="http://www.w3.org/2001/xml-events" xmlns:xlink="http://www.w3.org/1999/xlink"><defs /><polyline fill="none" points="55.7279,8.7075 60.0816,44.4082 112.7619,44.4082 117.551,45.7143 117.9864,50.9388 111.4558,59.6463 103.1837,65.3061 93.6054,70.0952 81.8503,73.1429 76.6259,73.5782 57.4694,71.8367 34.3946,65.3061 31.3469,63.5646 29.1701,52.2449 34.8299,42.2313 52.6803,38.7483 64.4354,37.8776 68.7891,39.1837" stroke="#00007f" stroke-width="2" /><polyline fill="none" points="57.9048,77.932 56.5986,78.8027 50.5034,93.1701" stroke="#0028ff" stroke-width="2" /><polyline fill="none" points="76.1905,77.0612 74.0136,84.4626 72.7075,98.8299" stroke="#00d4ff" stroke-width="2" /><polyline fill="none" points="93.6054,68.7891 95.3469,86.2041" stroke="#7cff79" stroke-width="2" /><polyline fill="none" points="8.7075,105.3605 8.7075,105.3605" stroke="#ffe500" stroke-width="2" /><polyline fill="none" points="8.7075,105.3605 28.2993,90.1224" stroke="#ff4600" stroke-width="2" /><polyline fill="none" points="102.7483,73.1429 113.6327,88.8163 119.2925,93.1701 9.1429,105.3605" stroke="#7f0000" stroke-width="2" /></svg>