<?xml version="1.0" encoding="utf-8" ?>
<svg baseProfile="tiny" height="128" version="1.2" viewBox="0,0,128,128" width="128" xmlns="http://www.w3.org/2000/svg" xmlns:ev="http://www.w3.org/2001/xml-events" xmlns:xlink="http://www.w3.org/1999/xlink"><defs /><polyline fill="none" points="55.1051,8.678 57.7085,14.3186 56.8407,64.6508 65.9525,67.6881 78.1017,66.8203 91.1186,62.9153 98.4949,62.9153 104.5695,65.0847 115.8508,75.0644 119.322,90.2508 119.322,95.4576 114.5492,102.4 107.6068,105.8712 101.9661,106.739 39.4847,106.739 33.8441,104.5695 29.5051,102.8339 26.0339,98.4949 24.2983,89.3831 25.1661,83.7424 34.278,78.5356 47.7288,72.8949 52.0678,72.8949 54.2373,70.2915" stroke="#00007f" stroke-width="2" /><polyline fill="none" points="61.1797,79.4034 72.8949,78.5356 78.5356,81.5729 80.2712,86.7797 75.9322,91.9864 70.2915,93.722 56.8407,95.8915 55.9729,90.2508 64.2169,85.0441" stroke="#0010ff" stroke-width="2" /><polyline fill="none" points="80.2712,82.0068 85.478,80.2712 97.6271,72.0271" stroke="#00a4ff" stroke-width="2" /><polyline fill="none" points="83.7424,95.8915 95.8915,103.7017 103.7017,106.739" stroke="#3fffb7" stroke-width="2" /><polyline fill="none" points="64.2169,100.2305 59.4441,110.2102 54.2373,117.5864" stroke="#b7ff3f" stroke-width="2" /><polyline fill="none" points="64.2169,91.1186 23.4305,90.2508 8.678,87.6475" stroke="#ffb900" stroke-width="2" /><polyline fill="none" points="51.2,71.1593 47.7288,61.6136 42.9559,55.9729" stroke="#ff3000" stroke-width="2" /><polyline fill="none" points="48.5966,70.2915 53.8034,81.139 56.8407,82.8746" stroke="#7f0000" stroke-width="2" /></svg>