<?xml version="1.0" encoding="utf-8" ?>
<svg baseProfile="tiny" height="128" version="1.2" viewBox="0,0,128,128" width="128" xmlns="http://www.w3.org/2000/svg" xmlns:ev="http://www.w3.org/2001/xml-events" xmlns:xlink="http://www.w3.org/1999/xlink"><defs /><polyline fill="none" points="56.4068,19.0915 53.8034,49.4644 42.0881,48.1627 34.278,49.4644 27.3356,52.0678 20.3932,57.7085 16.0542,81.5729 8.678,109.7763 13.0169,108.0407 17.3559,101.9661 29.0712,77.6678 36.4475,78.5356 37.7492,84.6102 33.4102,117.5864 34.278,119.322 37.3153,118.0203 43.8237,113.6814 46.861,108.4746 46.861,90.6847 47.7288,87.6475 54.6712,79.8373 61.6136,76.8 62.4814,80.2712 62.0475,99.7966 65.9525,116.7186 67.6881,117.1525 69.4237,115.4169 72.0271,105.0034 71.1593,89.3831 74.6305,84.6102 78.5356,82.0068 81.139,82.8746 83.3085,86.3458 85.0441,106.3051 86.3458,109.3424 88.0814,110.2102 90.6847,101.9661 93.2881,86.3458 93.722,78.5356 91.9864,66.3864 89.8169,62.9153 83.3085,59.0102 71.1593,58.1424 63.7831,59.4441 60.7458,56.8407 71.1593,8.678" stroke="#00007f" stroke-width="2" /><polyline fill="none" points="25.6,71.5932 17.3559,87.2136 10.4136,105.8712 23.4305,89.8169" stroke="#7f0000" stroke-width="2" /></svg>