<?xml version="1.0" encoding="utf-8" ?>
<svg baseProfile="tiny" height="128" version="1.2" viewBox="0,0,128,128" width="128" xmlns="http://www.w3.org/2000/svg" xmlns:ev="http://www.w3.org/2001/xml-events" xmlns:xlink="http://www.w3.org/1999/xlink"><defs /><polyline fill="none" points="55.539,8.678 56.4068,10.8475 55.539,44.6915 51.2,62.0475 49.0305,66.8203 43.8237,68.5559 28.2034,67.6881 8.678,62.9153" stroke="#00007f" stroke-width="2" /><polyline fill="none" points="56.8407,9.1119 57.7085,14.3186 51.6339,33.8441 48.1627,52.5017 50.7661,65.5186 55.9729,71.1593 63.3492,75.0644 72.0271,77.2339 82.0068,78.1017 91.5525,76.8 105.8712,68.9898 114.5492,61.1797 119.322,54.2373" stroke="#00d4ff" stroke-width="2" /><polyline fill="none" points="55.539,9.5458 57.7085,20.3932 57.2746,38.6169 55.9729,46.861 49.4644,67.2542 40.7864,77.2339 32.9763,79.8373 15.6203,82.4407" stroke="#ffe500" stroke-width="2" /><polyline fill="none" points="58.5763,13.0169 54.6712,30.3729" stroke="#7f0000" stroke-width="2" /></svg>