<?xml version="1.0" encoding="utf-8" ?>
<svg baseProfile="tiny" height="128" version="1.2" viewBox="0,0,128,128" width="128" xmlns="http://www.w3.org/2000/svg" xmlns:ev="http://www.w3.org/2001/xml-events" xmlns:xlink="http://www.w3.org/1999/xlink"><defs /><polyline fill="none" points="64.6508,8.678 64.6508,30.3729 61.1797,62.9153 58.1424,75.9322 56.8407,75.9322 56.8407,69.4237 61.6136,42.0881 64.6508,13.8847 65.9525,16.4881 66.3864,22.1288 65.0847,39.0508 61.6136,58.1424 55.539,79.4034 53.3695,77.6678 51.2,81.5729 45.9932,83.7424 33.4102,82.8746 22.9966,79.8373 14.3186,73.3288 10.8475,68.9898 9.5458,64.2169 8.678,56.4068 10.8475,55.539 15.6203,60.7458 20.8271,72.461 26.4678,78.9695 30.3729,81.5729 41.2203,84.1763 48.5966,84.1763 53.8034,81.139 55.539,75.9322 62.0475,86.3458 66.8203,90.6847 77.2339,93.722 86.3458,93.722 98.061,89.8169 105.4373,84.6102 114.5492,73.7627 119.322,64.2169 98.4949,79.8373 82.0068,85.9119 69.4237,87.2136 55.539,86.3458 48.1627,82.4407 46.4271,76.8 47.7288,73.7627" stroke="#00007f" stroke-width="2" /><polyline fill="none" points="12.5831,54.2373 15.1864,42.0881 16.0542,40.7864 16.0542,43.3898 13.0169,53.8034 12.5831,50.3322 14.3186,45.5593" stroke="#7f0000" stroke-width="2" /></svg>