<?xml version="1.0" encoding="utf-8" ?>
<svg baseProfile="tiny" height="128" version="1.2" viewBox="0,0,128,128" width="128" xmlns="http://www.w3.org/2000/svg" xmlns:ev="http://www.w3.org/2001/xml-events" xmlns:xlink="http://www.w3.org/1999/xlink"><defs /><polyline fill="none" points="73.7627,8.678 65.9525,38.6169 60.7458,48.1627 48.5966,64.6508 44.2576,66.3864 30.3729,66.3864 16.4881,63.7831 12.5831,59.4441 11.7153,56.4068 11.7153,44.2576" stroke="#00007f" stroke-width="2" /><polyline fill="none" points="72.0271,33.8441 73.7627,50.7661 77.6678,62.0475 81.139,66.3864 87.6475,71.1593 101.5322,71.5932 106.3051,68.122 108.4746,64.2169 111.9458,49.8983 119.322,30.3729" stroke="#00d4ff" stroke-width="2" /><polyline fill="none" points="67.2542,38.6169 64.6508,47.7288 58.1424,59.878 47.2949,77.2339 41.2203,83.3085 33.4102,88.0814 18.2237,88.5153 8.678,82.4407 8.678,81.139" stroke="#ffe500" stroke-width="2" /><polyline fill="none" points="68.9898,32.9763 65.5186,62.9153 65.5186,71.1593 67.2542,74.6305 85.9119,93.2881 95.8915,98.061 112.8136,98.9288 117.1525,96.7593" stroke="#7f0000" stroke-width="2" /></svg>