<?xml version="1.0" encoding="utf-8" ?>
<svg baseProfile="tiny" height="128" version="1.2" viewBox="0,0,128,128" width="128" xmlns="http://www.w3.org/2000/svg" xmlns:ev="http://www.w3.org/2001/xml-events" xmlns:xlink="http://www.w3.org/1999/xlink"><defs /><polyline fill="none" points="69.4237,8.678 71.1593,87.6475" stroke="#00007f" stroke-width="2" /><polyline fill="none" points="71.1593,87.2136 61.1797,98.061 52.9356,102.4 39.9186,104.1356 29.0712,100.2305 22.1288,95.0237 17.3559,88.5153 12.1492,76.8 11.2814,63.7831 13.8847,56.8407" stroke="#0028ff" stroke-width="2" /><polyline fill="none" points="15.1864,49.8983 10.4136,51.6339 8.678,56.8407 10.4136,61.6136 12.1492,62.0475 14.3186,60.3119 15.1864,57.2746 13.0169,52.9356" stroke="#00d4ff" stroke-width="2" /><polyline fill="none" points="75.0644,78.1017 62.0475,89.8169 57.7085,91.1186 52.0678,89.8169 46.4271,85.0441 39.4847,75.4983 30.8068,54.6712" stroke="#7cff79" stroke-width="2" /><polyline fill="none" points="29.0712,38.1831 26.9017,42.0881 26.4678,46.861 30.3729,53.3695 33.8441,54.2373 36.0136,52.9356 36.4475,45.9932 33.8441,41.2203 29.5051,39.9186" stroke="#ffe500" stroke-width="2" /><polyline fill="none" points="75.4983,81.5729 79.8373,86.3458 86.3458,86.7797 95.4576,81.5729 103.7017,72.8949 108.0407,65.5186 112.3797,51.6339 112.8136,41.2203 111.5119,35.1458" stroke="#ff4600" stroke-width="2" /><polyline fill="none" points="115.4169,22.9966 111.078,29.0712 110.6441,35.1458 114.9831,37.3153 119.322,33.4102" stroke="#7f0000" stroke-width="2" /></svg>