<?xml version="1.0" encoding="utf-8" ?>
<svg baseProfile="tiny" height="128" version="1.2" viewBox="0,0,128,128" width="128" xmlns="http://www.w3.org/2000/svg" xmlns:ev="http://www.w3.org/2001/xml-events" xmlns:xlink="http://www.w3.org/1999/xlink"><defs /><polyline fill="none" points="70.5306,8.7075 70.0952,16.9796 71.8367,24.8163 85.7687,50.068 94.0408,56.5986 107.9728,61.8231" stroke="#00007f" stroke-width="2" /><polyline fill="none" points="49.6327,14.3673 40.0544,59.2109 37.0068,63.5646 33.9592,65.7415 25.2517,64.8707" stroke="#0000f1" stroke-width="2" /><polyline fill="none" points="23.9456,63.5646 14.8027,65.7415 11.3197,67.9184 9.5782,71.4014 10.0136,78.3673 25.2517,78.8027 73.1429,88.381 92.2993,88.8163 100.1361,87.0748 107.9728,83.1565 119.2925,80.5442 119.2925,61.3878 114.9388,60.517 104.0544,61.8231 99.7007,60.9524" stroke="#004cff" stroke-width="2" /><polyline fill="none" points="104.9252,59.6463 102.7483,45.7143" stroke="#00b0ff" stroke-width="2" /><polyline fill="none" points="109.7143,56.5986 111.8912,43.5374" stroke="#29ffcd" stroke-width="2" /><polyline fill="none" points="119.2925,57.034 119.2925,47.0204" stroke="#7cff79" stroke-width="2" /><polyline fill="none" points="26.1224,63.1293 28.2993,56.5986 27.8639,49.6327 26.5578,49.1973 20.898,52.6803 23.0748,64.0" stroke="#cdff29" stroke-width="2" /><polyline fill="none" points="18.7211,63.5646 14.8027,49.6327 12.6259,48.7619 9.5782,53.1156 8.7075,58.3401 10.449,63.5646 13.4966,65.3061" stroke="#ffc400" stroke-width="2" /><polyline fill="none" points="96.2177,86.2041 96.2177,94.4762 93.6054,97.0884 73.1429,98.8299 48.3265,98.8299 45.7143,78.8027" stroke="#ff6700" stroke-width="2" /><polyline fill="none" points="87.5102,97.0884 81.415,106.6667 79.6735,107.9728 64.8707,104.0544 62.6939,100.5714 63.5646,95.7823" stroke="#f10700" stroke-width="2" /><polyline fill="none" points="77.0612,108.4082 79.2381,115.3741 74.449,115.3741 72.2721,112.7619 72.7075,107.102" stroke="#7f0000" stroke-width="2" /></svg>