<?xml version="1.0" encoding="utf-8" ?>
<svg baseProfile="tiny" height="128" version="1.2" viewBox="0,0,128,128" width="128" xmlns="http://www.w3.org/2000/svg" xmlns:ev="http://www.w3.org/2001/xml-events" xmlns:xlink="http://www.w3.org/1999/xlink"><defs /><polyline fill="none" points="75.4983,8.678 69.4237,26.0339 66.8203,42.522 66.3864,101.0983 65.5186,109.3424 63.3492,112.8136 55.9729,117.1525 44.6915,119.322 37.3153,118.0203 29.5051,114.5492 16.0542,102.4 11.7153,94.5898 8.678,85.0441" stroke="#00007f" stroke-width="2" /><polyline fill="none" points="73.3288,117.1525 82.0068,119.322 96.3254,116.2847 112.3797,107.1729 115.8508,102.4 116.7186,96.3254 114.1153,88.9492 108.4746,81.5729" stroke="#0028ff" stroke-width="2" /><polyline fill="none" points="35.5797,48.1627 36.8814,71.1593 39.4847,81.5729 42.522,86.7797 49.0305,91.9864 57.2746,91.5525" stroke="#00d4ff" stroke-width="2" /><polyline fill="none" points="72.0271,85.0441 95.8915,63.3492 101.0983,57.2746 102.8339,52.0678" stroke="#7cff79" stroke-width="2" /><polyline fill="none" points="22.5627,39.0508 16.4881,26.0339" stroke="#ffe500" stroke-width="2" /><polyline fill="none" points="36.0136,28.2034 44.6915,12.1492" stroke="#ff4600" stroke-width="2" /><polyline fill="none" points="104.5695,30.3729 109.7763,16.4881" stroke="#7f0000" stroke-width="2" /></svg>