<?xml version="1.0" encoding="utf-8" ?>
<svg baseProfile="tiny" height="128" version="1.2" viewBox="0,0,128,128" width="128" xmlns="http://www.w3.org/2000/svg" xmlns:ev="http://www.w3.org/2001/xml-events" xmlns:xlink="http://www.w3.org/1999/xlink"><defs /><polyline fill="none" points="66.3864,8.678 68.5559,32.5424 66.8203,77.2339 12.5831,75.0644 14.7525,59.4441 16.0542,57.7085" stroke="#00007f" stroke-width="2" /><polyline fill="none" points="64.6508,78.9695 117.1525,82.0068 118.8881,67.2542 119.322,52.0678" stroke="#004cff" stroke-width="2" /><polyline fill="none" points="35.1458,75.4983 36.8814,73.7627 38.6169,62.0475" stroke="#29ffcd" stroke-width="2" /><polyline fill="none" points="95.0237,78.1017 96.7593,62.4814 91.9864,60.3119 91.5525,55.1051 96.3254,49.4644 100.2305,48.5966 101.9661,49.8983 102.8339,57.7085 101.5322,59.4441 97.6271,60.3119" stroke="#cdff29" stroke-width="2" /><polyline fill="none" points="36.8814,60.3119 32.9763,58.1424 32.1085,55.539 32.9763,52.0678 38.6169,49.4644 42.522,49.8983 43.8237,54.2373 42.0881,60.3119 37.7492,61.6136 34.7119,59.878" stroke="#ff6700" stroke-width="2" /><polyline fill="none" points="17.7898,56.4068 9.9797,55.1051 8.678,49.4644" stroke="#7f0000" stroke-width="2" /></svg>