<?xml version="1.0" encoding="utf-8" ?>
<svg baseProfile="tiny" height="128" version="1.2" viewBox="0,0,128,128" width="128" xmlns="http://www.w3.org/2000/svg" xmlns:ev="http://www.w3.org/2001/xml-events" xmlns:xlink="http://www.w3.org/1999/xlink"><defs /><polyline fill="none" points="57.6655,8.7372 62.9078,35.8225 63.7816,53.7338 61.5973,73.8294 55.9181,92.1775 48.0546,102.6621 43.686,105.2833 35.3857,107.0307 24.901,106.157 10.4846,100.4778 8.7372,97.8567" stroke="#00007f" stroke-width="2" /><polyline fill="none" points="59.8498,8.7372 68.1502,69.4608 72.9556,85.1877 76.8874,90.8669 81.6928,95.6724 90.43,100.9147 99.1672,102.6621 107.4676,101.7884 114.8942,96.1092 118.3891,89.1195 119.2628,79.5085 117.0785,76.0137" stroke="#00d4ff" stroke-width="2" /><polyline fill="none" points="62.0341,24.4642 64.2184,36.2594 64.2184,48.4915 59.413,60.7235 54.6075,67.2765 47.6177,69.8976 27.0853,69.8976 24.0273,68.587 22.2799,65.9659" stroke="#ffe500" stroke-width="2" /><polyline fill="none" points="62.0341,47.1809 67.2765,54.6075 74.7031,61.5973 85.6246,65.9659 97.4198,65.9659 103.5358,61.1604 105.7201,54.1706 105.7201,47.6177 100.041,48.0546 96.5461,45.4334 95.6724,39.3174 98.2935,37.57" stroke="#7f0000" stroke-width="2" /></svg>