<?xml version="1.0" encoding="utf-8" ?>
<svg baseProfile="tiny" height="128" version="1.2" viewBox="0,0,128,128" width="128" xmlns="http://www.w3.org/2000/svg" xmlns:ev="http://www.w3.org/2001/xml-events" xmlns:xlink="http://www.w3.org/1999/xlink"><defs /><polyline fill="none" points="68.9898,14.3186 65.9525,18.6576 49.8983,31.2407 29.0712,44.6915 12.5831,52.5017 11.7153,64.6508 14.7525,66.3864 17.3559,65.9525 18.6576,64.2169 16.922,58.1424 12.5831,49.8983 9.9797,49.4644 8.678,51.2 9.1119,52.9356 13.4508,59.878" stroke="#00007f" stroke-width="2" /><polyline fill="none" points="64.2169,13.8847 92.4203,36.8814 117.1525,53.8034 119.322,57.2746 114.9831,66.3864 113.6814,67.2542 105.4373,63.3492 103.7017,55.1051 105.4373,50.3322" stroke="#0080ff" stroke-width="2" /><polyline fill="none" points="66.8203,8.678 71.1593,47.7288 71.5932,62.0475 69.8576,62.9153 66.8203,61.1797 65.0847,56.4068 66.8203,53.3695 69.8576,55.539" stroke="#7cff79" stroke-width="2" /><polyline fill="none" points="66.8203,18.2237 80.2712,38.1831 91.9864,60.3119 88.5153,48.1627 86.7797,47.2949 84.1763,48.5966 84.6102,54.6712 90.2508,56.8407 91.5525,55.539" stroke="#ff9400" stroke-width="2" /><polyline fill="none" points="64.6508,25.6 36.8814,73.3288 29.5051,88.5153 31.2407,74.1966 27.7695,73.3288 24.2983,76.3661 24.2983,78.9695 25.6,80.2712 32.1085,78.5356" stroke="#7f0000" stroke-width="2" /></svg>