<?xml version="1.0" encoding="utf-8" ?>
<svg baseProfile="tiny" height="128" version="1.2" viewBox="0,0,128,128" width="128" xmlns="http://www.w3.org/2000/svg" xmlns:ev="http://www.w3.org/2001/xml-events" xmlns:xlink="http://www.w3.org/1999/xlink"><defs /><polyline fill="none" points="9.9797,72.461 12.5831,83.3085 16.4881,89.3831 19.9593,91.9864 27.3356,81.139 28.6373,76.8 30.8068,87.6475 35.1458,94.5898 39.0508,91.9864 43.8237,85.478 45.9932,78.1017 48.1627,87.6475 52.0678,91.9864 54.2373,91.5525 61.1797,83.7424 64.2169,75.9322 65.0847,84.1763 68.5559,90.6847 78.9695,84.1763 85.0441,77.2339 86.3458,87.2136 88.0814,90.2508 91.1186,91.1186 95.4576,88.0814 101.0983,79.4034 105.4373,86.7797 109.7763,88.9492 118.0203,80.2712 119.322,74.1966" stroke="#00007f" stroke-width="2" /><polyline fill="none" points="65.0847,74.6305 57.7085,52.0678 53.8034,24.2983 54.2373,8.678" stroke="#00d4ff" stroke-width="2" /><polyline fill="none" points="57.2746,49.0305 55.9729,50.7661 55.1051,55.9729 56.8407,59.878 61.6136,60.7458 62.4814,59.4441 62.0475,55.539 58.5763,50.3322" stroke="#ffe500" stroke-width="2" /><polyline fill="none" points="9.9797,72.0271 8.678,82.4407 9.5458,86.7797 17.7898,95.0237 23.8644,93.722 29.0712,95.8915 34.278,96.7593 38.1831,95.0237 40.7864,96.7593 44.6915,92.8542 51.2,98.061 55.539,98.9288 60.7458,91.9864 65.0847,97.1932 69.4237,98.9288 76.3661,98.061 80.2712,93.722 81.5729,95.0237" stroke="#7f0000" stroke-width="2" /></svg>