<?xml version="1.0" encoding="utf-8" ?>
<svg baseProfile="tiny" height="128" version="1.2" viewBox="0,0,128,128" width="128" xmlns="http://www.w3.org/2000/svg" xmlns:ev="http://www.w3.org/2001/xml-events" xmlns:xlink="http://www.w3.org/1999/xlink"><defs /><polyline fill="none" points="51.6339,34.278 52.5017,56.8407 48.1627,84.1763 42.9559,97.1932 36.4475,105.0034 30.3729,105.8712 15.6203,98.061 8.678,74.6305 8.678,67.6881" stroke="#00007f" stroke-width="2" /><polyline fill="none" points="51.2,56.8407 51.2,81.5729 53.8034,95.8915 58.5763,101.9661 71.1593,106.739 86.7797,107.6068 94.1559,104.1356 98.9288,90.6847 101.9661,72.0271" stroke="#00d4ff" stroke-width="2" /><polyline fill="none" points="47.7288,71.5932 52.0678,81.139 61.1797,93.722 69.4237,97.6271 74.6305,96.7593 92.4203,87.6475 93.722,85.9119 94.1559,80.2712 91.5525,72.8949" stroke="#ffe500" stroke-width="2" /><polyline fill="none" points="45.9932,75.4983 37.7492,83.3085 15.6203,119.322 13.8847,114.9831 13.8847,87.6475 15.1864,73.3288 27.7695,23.8644 33.8441,8.678 25.1661,37.7492 28.6373,37.7492 36.0136,34.278 44.2576,28.2034" stroke="#7f0000" stroke-width="2" /></svg>