<?xml version="1.0" encoding="utf-8" ?>
<svg baseProfile="tiny" height="128" version="1.2" viewBox="0,0,128,128" width="128" xmlns="http://www.w3.org/2000/svg" xmlns:ev="http://www.w3.org/2001/xml-events" xmlns:xlink="http://www.w3.org/1999/xlink"><defs /><polyline fill="none" points="38.6169,77.6678 29.5051,77.6678 25.6,75.4983 19.0915,65.9525 16.4881,52.9356 13.0169,51.2 8.678,58.5763 8.678,66.8203 9.9797,71.1593 13.8847,76.3661 18.2237,79.8373 28.6373,83.3085 53.8034,83.7424 91.9864,81.5729 101.5322,78.5356 109.7763,72.8949 116.7186,63.7831 119.322,52.5017 119.322,46.4271 117.5864,45.9932 111.9458,48.5966 107.1729,57.7085 95.8915,68.9898 80.7051,71.1593 72.461,70.7254 72.461,69.4237 95.8915,59.878 106.739,43.8237 107.6068,35.1458 105.0034,29.5051 101.5322,28.6373 96.7593,33.4102 93.2881,49.4644 88.0814,56.4068 82.8746,58.5763 67.6881,58.1424 66.8203,56.8407 68.5559,53.8034 78.5356,52.5017 81.5729,50.3322 83.3085,30.8068 81.5729,27.7695 77.6678,26.9017 70.7254,42.0881 65.9525,42.522 64.2169,34.278 63.7831,12.1492" stroke="#00007f" stroke-width="2" /><polyline fill="none" points="54.6712,13.4508 54.6712,31.6746 53.3695,36.8814 47.7288,39.0508 40.3525,35.1458 36.8814,35.1458 31.6746,42.522 32.5424,49.0305 35.5797,52.0678 46.861,52.9356 39.9186,55.539 29.0712,53.8034 28.2034,55.1051 26.9017,59.0102 37.3153,62.9153 38.1831,66.3864 36.0136,76.3661" stroke="#0080ff" stroke-width="2" /><polyline fill="none" points="36.4475,8.678 104.5695,9.5458" stroke="#7cff79" stroke-width="2" /><polyline fill="none" points="78.5356,26.4678 78.5356,19.9593 81.5729,20.3932 79.8373,26.0339" stroke="#ff9400" stroke-width="2" /><polyline fill="none" points="99.7966,25.1661 100.2305,13.8847 101.5322,10.4136 105.0034,16.922 106.3051,25.1661" stroke="#7f0000" stroke-width="2" /></svg>