<?xml version="1.0" encoding="utf-8" ?>
<svg baseProfile="tiny" height="128" version="1.2" viewBox="0,0,128,128" width="128" xmlns="http://www.w3.org/2000/svg" xmlns:ev="http://www.w3.org/2001/xml-events" xmlns:xlink="http://www.w3.org/1999/xlink"><defs /><polyline fill="none" points="53.8034,8.678 50.7661,52.5017 52.0678,50.7661 56.8407,50.7661 69.4237,53.3695 78.1017,56.8407 88.0814,64.2169 91.9864,70.2915 93.722,77.2339 93.2881,90.6847 90.6847,98.9288" stroke="#00007f" stroke-width="2" /><polyline fill="none" points="53.8034,54.2373 45.1254,52.9356 29.5051,57.2746 19.0915,64.2169 11.7153,72.8949 9.1119,81.5729 8.678,89.3831 12.5831,103.7017 17.3559,109.7763" stroke="#0000fe" stroke-width="2" /><polyline fill="none" points="49.8983,53.3695 37.3153,69.4237 34.278,75.4983 32.1085,83.7424 32.9763,98.9288 38.6169,110.2102 44.6915,115.4169" stroke="#0060ff" stroke-width="2" /><polyline fill="none" points="48.5966,54.6712 54.2373,56.4068 61.6136,61.1797 67.6881,68.122 72.8949,77.2339 76.3661,88.0814 76.8,98.4949 75.9322,101.5322 71.1593,105.0034" stroke="#00d4ff" stroke-width="2" /><polyline fill="none" points="46.4271,55.1051 53.3695,75.4983 56.4068,104.5695" stroke="#4cffaa" stroke-width="2" /><polyline fill="none" points="42.0881,119.322 41.6542,110.6441 44.6915,110.2102 45.5593,111.5119 45.9932,116.2847 44.2576,115.8508" stroke="#aaff4c" stroke-width="2" /><polyline fill="none" points="52.5017,106.739 59.4441,97.1932 60.3119,103.2678 59.0102,108.4746" stroke="#ffe500" stroke-width="2" /><polyline fill="none" points="71.5932,110.6441 68.9898,105.8712 70.2915,103.7017 70.7254,105.8712 69.8576,105.0034" stroke="#ff7a00" stroke-width="2" /><polyline fill="none" points="89.8169,97.1932 91.9864,97.6271 89.8169,98.061" stroke="#fe1200" stroke-width="2" /><polyline fill="none" points="12.5831,116.7186 14.3186,111.078 16.0542,110.6441 16.4881,113.2475 15.1864,114.1153 14.3186,112.8136" stroke="#7f0000" stroke-width="2" /></svg>