<?xml version="1.0" encoding="utf-8" ?>
<svg baseProfile="tiny" height="128" version="1.2" viewBox="0,0,128,128" width="128" xmlns="http://www.w3.org/2000/svg" xmlns:ev="http://www.w3.org/2001/xml-events" xmlns:xlink="http://www.w3.org/1999/xlink"><defs /><polyline fill="none" points="60.9524,11.3197 64.8707,49.6327 64.8707,67.0476 63.5646,78.3673" stroke="#00007f" stroke-width="2" /><polyline fill="none" points="63.5646,8.7075 71.8367,83.5918" stroke="#0080ff" stroke-width="2" /><polyline fill="none" points="64.4354,77.932 65.3061,92.2993 63.5646,97.5238 60.9524,101.0068 50.9388,101.0068 37.0068,93.1701 28.7347,83.1565 22.2041,70.5306 16.9796,52.2449 9.5782,58.7755 8.7075,67.483 17.8503,89.6871 30.9116,107.102 44.4082,113.1973 69.2245,114.5034 74.8844,113.1973 97.0884,100.5714 102.3129,95.3469 112.3265,81.415 117.551,68.3537 119.2925,61.3878 119.2925,48.3265 114.5034,50.068 107.9728,64.4354 88.8163,94.0408 82.2857,96.6531 70.5306,78.8027" stroke="#7cff79" stroke-width="2" /><polyline fill="none" points="60.517,100.5714 55.2925,96.2177 51.3741,89.6871 41.3605,69.2245 33.9592,50.068 32.2177,55.2925" stroke="#ff9400" stroke-width="2" /><polyline fill="none" points="85.3333,89.2517 88.8163,85.7687 94.9116,74.8844 97.9592,65.7415 98.3946,54.8571" stroke="#7f0000" stroke-width="2" /></svg>