<?xml version="1.0" encoding="utf-8" ?>
<svg baseProfile="tiny" height="128" version="1.2" viewBox="0,0,128,128" width="128" xmlns="http://www.w3.org/2000/svg" xmlns:ev="http://www.w3.org/2001/xml-events" xmlns:xlink="http://www.w3.org/1999/xlink"><defs /><polyline fill="none" points="73.7627,8.678 76.3661,22.1288 76.3661,49.8983 74.1966,64.6508 65.0847,96.7593 56.8407,109.3424 48.5966,115.8508 41.6542,117.5864 32.9763,117.5864 28.2034,114.5492 22.9966,108.4746 8.678,90.2508" stroke="#00007f" stroke-width="2" /><polyline fill="none" points="71.1593,93.722 68.9898,96.7593 68.9898,110.6441 72.461,115.4169 84.6102,118.8881 99.3627,118.8881 105.4373,117.1525 112.3797,111.9458 114.9831,108.4746 117.5864,101.0983 117.5864,87.6475" stroke="#00d4ff" stroke-width="2" /><polyline fill="none" points="85.478,61.6136 87.6475,67.6881 91.1186,69.8576 95.8915,71.1593 103.7017,70.7254 114.9831,60.7458 118.0203,55.1051 119.322,47.7288" stroke="#ffe500" stroke-width="2" /><polyline fill="none" points="65.9525,54.6712 59.4441,58.5763 50.7661,59.878 37.7492,58.5763 27.3356,51.2 13.4508,36.0136 11.7153,28.2034" stroke="#7f0000" stroke-width="2" /></svg>