<?xml version="1.0" encoding="utf-8" ?>
<svg baseProfile="tiny" height="128" version="1.2" viewBox="0,0,128,128" width="128" xmlns="http://www.w3.org/2000/svg" xmlns:ev="http://www.w3.org/2001/xml-events" xmlns:xlink="http://www.w3.org/1999/xlink"><defs /><polyline fill="none" points="59.4441,8.678 53.3695,36.4475 53.3695,47.7288" stroke="#00007f" stroke-width="2" /><polyline fill="none" points="14.7525,51.2 73.3288,45.1254 111.5119,43.3898 112.3797,46.4271 105.0034,53.8034 84.6102,60.3119 31.2407,64.2169 17.3559,64.2169 14.7525,62.4814 13.4508,56.8407 17.3559,51.2" stroke="#0028ff" stroke-width="2" /><polyline fill="none" points="22.5627,53.3695 17.7898,58.5763 10.8475,72.0271 9.1119,79.4034 8.678,93.2881 11.7153,101.0983 14.7525,102.8339 17.3559,101.9661 27.7695,75.9322 31.2407,65.9525 32.1085,54.2373 31.2407,52.0678 26.4678,56.8407" stroke="#00d4ff" stroke-width="2" /><polyline fill="none" points="41.6542,62.0475 39.4847,67.6881 39.9186,91.1186 42.522,97.6271 48.5966,103.7017 55.539,103.7017 58.5763,97.1932 60.3119,86.3458 60.3119,71.1593 55.9729,57.7085 50.7661,56.4068 48.1627,60.7458" stroke="#7cff79" stroke-width="2" /><polyline fill="none" points="76.3661,64.2169 72.8949,68.9898 66.8203,87.6475 66.8203,102.8339 69.8576,107.1729 73.3288,109.3424 77.2339,109.7763 81.5729,109.3424 85.478,103.7017 89.8169,95.4576 91.5525,86.3458 91.5525,77.2339 89.3831,71.1593 85.0441,65.0847 80.7051,64.2169" stroke="#ffe500" stroke-width="2" /><polyline fill="none" points="105.8712,48.1627 102.8339,49.4644 95.8915,64.6508 94.1559,75.9322 95.4576,82.8746 98.4949,86.7797 104.5695,89.3831 114.9831,90.2508" stroke="#ff4600" stroke-width="2" /><polyline fill="none" points="119.322,62.4814 112.8136,55.1051 103.7017,55.1051" stroke="#7f0000" stroke-width="2" /></svg>