<?xml version="1.0" encoding="utf-8" ?>
<svg baseProfile="tiny" height="128" version="1.2" viewBox="0,0,128,128" width="128" xmlns="http://www.w3.org/2000/svg" xmlns:ev="http://www.w3.org/2001/xml-events" xmlns:xlink="http://www.w3.org/1999/xlink"><defs /><polyline fill="none" points="57.7085,8.678 58.1424,19.5254 54.2373,39.9186 44.6915,53.3695 36.0136,59.0102 29.0712,60.7458 19.5254,59.0102 11.7153,50.7661" stroke="#00007f" stroke-width="2" /><polyline fill="none" points="58.5763,36.8814 59.4441,49.0305 57.2746,58.5763 52.9356,65.0847 42.0881,75.9322 26.0339,81.139 13.0169,79.8373 8.678,77.6678" stroke="#004cff" stroke-width="2" /><polyline fill="none" points="60.3119,35.5797 58.5763,36.8814 59.0102,39.4847 68.9898,60.3119 73.3288,65.9525 77.6678,68.9898 87.6475,72.0271 97.1932,70.7254 99.7966,68.5559" stroke="#29ffcd" stroke-width="2" /><polyline fill="none" points="59.878,36.0136 67.6881,40.3525 77.2339,49.0305 91.1186,52.0678 104.1356,49.4644 113.2475,41.2203" stroke="#cdff29" stroke-width="2" /><polyline fill="none" points="114.1153,31.6746 112.8136,34.278 116.2847,39.9186 114.5492,41.6542 117.5864,29.939 119.322,33.8441 118.8881,38.1831 115.8508,39.9186 110.6441,39.4847 108.0407,36.8814 109.7763,32.5424 108.0407,26.4678" stroke="#ff6700" stroke-width="2" /><polyline fill="none" points="100.2305,64.2169 98.9288,64.6508 104.5695,69.8576 97.6271,72.461 98.4949,66.3864 101.0983,59.0102 100.2305,54.2373 100.6644,61.6136 105.0034,75.4983 103.7017,76.3661 94.5898,71.5932" stroke="#7f0000" stroke-width="2" /></svg>