<?xml version="1.0" encoding="utf-8" ?>
<svg baseProfile="tiny" height="128" version="1.2" viewBox="0,0,128,128" width="128" xmlns="http://www.w3.org/2000/svg" xmlns:ev="http://www.w3.org/2001/xml-events" xmlns:xlink="http://www.w3.org/1999/xlink"><defs /><polyline fill="none" points="71.1593,8.678 66.3864,37.7492 62.0475,49.0305 54.2373,54.6712 38.1831,54.2373 33.4102,55.9729 25.6,60.7458 18.6576,70.2915 15.1864,80.2712 12.1492,97.1932 13.0169,118.8881" stroke="#00007f" stroke-width="2" /><polyline fill="none" points="66.8203,36.8814 65.0847,45.5593 66.8203,103.7017" stroke="#00d4ff" stroke-width="2" /><polyline fill="none" points="68.5559,42.522 82.4407,43.3898 93.722,46.861 101.9661,54.2373 107.6068,62.4814 112.8136,72.8949 114.9831,82.8746 113.2475,101.5322 108.4746,108.4746" stroke="#ffe500" stroke-width="2" /><polyline fill="none" points="17.3559,73.3288 16.922,78.5356 19.0915,72.461 14.7525,95.4576 19.0915,91.9864 24.7322,82.8746 25.1661,88.9492 22.9966,98.4949 24.2983,96.3254 24.2983,99.3627 22.5627,107.6068 31.2407,97.6271 32.9763,101.0983 31.2407,114.1153 36.4475,104.1356 30.8068,119.322 32.5424,110.2102 30.8068,109.7763 26.4678,114.1153 25.1661,111.5119 25.6,104.1356 24.2983,101.9661 19.0915,103.7017 8.678,115.4169" stroke="#7f0000" stroke-width="2" /></svg>