<?xml version="1.0" encoding="utf-8" ?>
<svg baseProfile="tiny" height="128" version="1.2" viewBox="0,0,128,128" width="128" xmlns="http://www.w3.org/2000/svg" xmlns:ev="http://www.w3.org/2001/xml-events" xmlns:xlink="http://www.w3.org/1999/xlink"><defs /><polyline fill="none" points="70.0952,8.7075 71.4014,20.898 71.4014,51.3741 69.6599,60.0816 67.483,63.1293 60.0816,66.1769 49.6327,66.1769 39.1837,63.5646 28.7347,50.068 26.9932,43.9728 26.9932,37.8776 28.7347,39.619" stroke="#00007f" stroke-width="2" /><polyline fill="none" points="41.3605,64.0 29.6054,66.1769 15.6735,61.3878 10.0136,53.9864 8.7075,49.1973 10.0136,46.585" stroke="#00d4ff" stroke-width="2" /><polyline fill="none" points="72.2721,52.2449 75.7551,58.3401 81.8503,63.5646 94.4762,67.483 105.3605,68.3537 111.4558,67.0476 116.6803,61.8231 119.2925,53.1156 119.2925,43.102" stroke="#ffe500" stroke-width="2" /><polyline fill="none" points="90.1224,65.3061 96.2177,65.3061 102.3129,62.6939 104.9252,55.2925 105.7959,45.7143" stroke="#7f0000" stroke-width="2" /></svg>