<?xml version="1.0" encoding="utf-8" ?>
<svg baseProfile="tiny" height="128" version="1.2" viewBox="0,0,128,128" width="128" xmlns="http://www.w3.org/2000/svg" xmlns:ev="http://www.w3.org/2001/xml-events" xmlns:xlink="http://www.w3.org/1999/xlink"><defs /><polyline fill="none" points="58.5763,8.678 59.0102,39.0508 54.2373,48.1627 46.861,54.2373 36.0136,55.9729 30.3729,54.2373 20.8271,38.1831 18.6576,26.4678" stroke="#00007f" stroke-width="2" /><polyline fill="none" points="55.539,48.1627 54.2373,62.0475 48.5966,74.1966 42.0881,82.0068 33.8441,85.9119 25.6,86.3458 17.3559,82.8746 11.2814,72.8949 8.678,64.6508 8.678,57.2746" stroke="#004cff" stroke-width="2" /><polyline fill="none" points="55.9729,45.1254 53.8034,74.6305 54.2373,83.3085 55.9729,86.3458 62.0475,93.722 68.9898,96.3254 76.3661,95.0237 80.2712,91.9864 82.4407,87.2136" stroke="#29ffcd" stroke-width="2" /><polyline fill="none" points="56.4068,49.4644 55.1051,58.1424 60.7458,67.6881 75.9322,79.4034 91.1186,83.3085 100.6644,81.139 105.4373,76.8 114.1153,66.8203 119.322,52.9356" stroke="#cdff29" stroke-width="2" /><polyline fill="none" points="52.5017,43.8237 53.3695,52.0678 62.0475,62.0475 69.4237,65.0847 82.0068,64.2169 89.8169,57.7085 96.7593,49.0305 103.7017,31.2407" stroke="#ff6700" stroke-width="2" /><polyline fill="none" points="52.9356,38.1831 54.2373,44.6915 59.4441,49.8983 70.7254,51.6339 74.6305,49.0305 80.2712,42.0881 82.0068,37.3153 83.7424,22.1288" stroke="#7f0000" stroke-width="2" /></svg>