<?xml version="1.0" encoding="utf-8" ?>
<svg baseProfile="tiny" height="128" version="1.2" viewBox="0,0,128,128" width="128" xmlns="http://www.w3.org/2000/svg" xmlns:ev="http://www.w3.org/2001/xml-events" xmlns:xlink="http://www.w3.org/1999/xlink"><defs /><polyline fill="none" points="52.6803,9.5782 55.7279,21.7687 55.7279,31.3469 54.8571,35.2653 50.9388,38.3129 43.5374,40.4898 35.7007,40.4898 26.5578,36.1361 17.415,29.1701" stroke="#00007f" stroke-width="2" /><polyline fill="none" points="65.7415,8.7075 77.0612,18.7211 94.9116,28.7347 104.0544,31.7823 118.8571,33.5238" stroke="#0000e8" stroke-width="2" /><polyline fill="none" points="60.517,10.0136 61.3878,19.1565 66.6122,43.5374 72.2721,60.0816" stroke="#0038ff" stroke-width="2" /><polyline fill="none" points="18.7211,36.5714 31.7823,36.5714 40.9252,43.102 50.068,56.5986 57.034,69.6599" stroke="#0094ff" stroke-width="2" /><polyline fill="none" points="87.5102,63.1293 87.5102,59.6463 90.1224,58.7755 101.4422,56.5986 119.2925,50.5034" stroke="#0cf4ea" stroke-width="2" /><polyline fill="none" points="77.0612,24.381 77.4966,31.7823 84.0272,49.6327 90.5578,62.6939 104.0544,83.5918 112.7619,90.9932" stroke="#56ffa0" stroke-width="2" /><polyline fill="none" points="56.5986,15.2381 54.8571,40.9252 43.5374,79.6735" stroke="#a0ff56" stroke-width="2" /><polyline fill="none" points="61.3878,50.068 61.3878,64.0 66.6122,87.0748" stroke="#eaff0c" stroke-width="2" /><polyline fill="none" points="84.898,89.6871 84.898,89.6871" stroke="#ffaa00" stroke-width="2" /><polyline fill="none" points="57.9048,90.1224 56.1633,89.6871 56.1633,84.4626 61.3878,77.4966 65.3061,75.7551 66.6122,80.1088 63.5646,84.0272 54.8571,87.0748 45.7143,87.9456 43.5374,85.7687" stroke="#ff5500" stroke-width="2" /><polyline fill="none" points="27.4286,67.483 29.1701,67.483 30.4762,70.0952 29.1701,75.3197 20.0272,80.9796 11.3197,80.9796 8.7075,75.7551 9.1429,67.483 20.0272,59.6463" stroke="#e80000" stroke-width="2" /><polyline fill="none" points="12.6259,49.6327 12.6259,49.6327" stroke="#7f0000" stroke-width="2" /></svg>