<?xml version="1.0" encoding="utf-8" ?>
<svg baseProfile="tiny" height="128" version="1.2" viewBox="0,0,128,128" width="128" xmlns="http://www.w3.org/2000/svg" xmlns:ev="http://www.w3.org/2001/xml-events" xmlns:xlink="http://www.w3.org/1999/xlink"><defs /><polyline fill="none" points="42.6667,12.1905 46.1497,9.1429 56.5986,9.1429 59.6463,11.3197 60.0816,13.0612 57.9048,15.2381 50.9388,18.2857 45.7143,18.7211 40.4898,12.1905 41.3605,8.7075" stroke="#00007f" stroke-width="2" /><polyline fill="none" points="50.5034,18.7211 50.5034,40.0544" stroke="#0000e8" stroke-width="2" /><polyline fill="none" points="52.2449,38.7483 62.6939,35.7007 70.0952,37.0068 73.5782,40.9252 81.8503,54.8571 83.1565,65.7415" stroke="#0038ff" stroke-width="2" /><polyline fill="none" points="47.4558,36.5714 38.3129,35.7007 30.4762,37.4422 20.4626,42.2313 16.1088,46.1497 13.4966,58.3401 14.8027,73.1429" stroke="#0094ff" stroke-width="2" /><polyline fill="none" points="11.7551,68.3537 8.7075,70.0952 9.1429,77.932 12.1905,82.2857 14.8027,82.2857 19.1565,71.4014 13.932,67.9184" stroke="#0cf4ea" stroke-width="2" /><polyline fill="none" points="41.3605,39.1837 41.3605,43.9728 35.7007,64.0 35.7007,81.415 39.1837,91.4286 42.6667,92.7347" stroke="#56ffa0" stroke-width="2" /><polyline fill="none" points="36.5714,84.0272 37.8776,83.1565 45.7143,83.5918 48.3265,86.6395 47.8912,90.1224 40.4898,93.1701 32.2177,94.0408 30.9116,88.8163 32.6531,82.2857 42.6667,77.0612" stroke="#a0ff56" stroke-width="2" /><polyline fill="none" points="67.0476,31.7823 69.2245,44.4082 70.0952,77.4966 72.2721,91.8639" stroke="#eaff0c" stroke-width="2" /><polyline fill="none" points="79.2381,101.4422 76.6259,101.0068 74.449,101.8776 72.7075,110.1497 78.8027,114.5034 84.4626,113.6327 87.9456,107.102 86.2041,104.4898 78.8027,101.8776" stroke="#ffaa00" stroke-width="2" /><polyline fill="none" points="53.9864,35.2653 58.3401,52.6803 60.0816,68.7891 60.517,95.7823 58.3401,106.6667" stroke="#ff5500" stroke-width="2" /><polyline fill="none" points="59.2109,106.6667 54.8571,108.4082 52.6803,111.4558 51.3741,117.551 53.1156,119.2925 60.0816,117.551 63.5646,112.3265 56.1633,106.2313" stroke="#e80000" stroke-width="2" /><polyline fill="none" points="85.7687,63.5646 84.0272,64.0" stroke="#7f0000" stroke-width="2" /></svg>