<?xml version="1.0" encoding="utf-8" ?>
<svg baseProfile="tiny" height="128" version="1.2" viewBox="0,0,128,128" width="128" xmlns="http://www.w3.org/2000/svg" xmlns:ev="http://www.w3.org/2001/xml-events" xmlns:xlink="http://www.w3.org/1999/xlink"><defs /><polyline fill="none" points="62.2585,8.7075 62.2585,33.5238 64.8707,51.3741 67.483,84.4626 8.7075,85.3333" stroke="#00007f" stroke-width="2" /><polyline fill="none" points="71.8367,80.9796 70.0952,82.2857 71.8367,83.1565 80.9796,84.898 117.9864,84.4626" stroke="#7cff79" stroke-width="2" /><polyline fill="none" points="11.3197,82.7211 17.415,102.3129 20.0272,102.7483 31.3469,95.7823 38.7483,104.4898 42.6667,104.0544 48.3265,98.8299 50.5034,98.3946 55.7279,102.7483 64.4354,105.3605 71.8367,105.7959 74.0136,101.8776 75.7551,101.4422 87.5102,107.5374 90.9932,107.5374 92.2993,101.4422 96.2177,98.3946 99.7007,98.3946 105.3605,107.102 111.4558,107.102 115.3741,104.0544 118.4218,98.8299 119.2925,84.898" stroke="#7f0000" stroke-width="2" /></svg>