<?xml version="1.0" encoding="utf-8" ?>
<svg baseProfile="tiny" height="128" version="1.2" viewBox="0,0,128,128" width="128" xmlns="http://www.w3.org/2000/svg" xmlns:ev="http://www.w3.org/2001/xml-events" xmlns:xlink="http://www.w3.org/1999/xlink"><defs /><polyline fill="none" points="63.1293,8.7075 62.2585,41.7959 63.5646,54.8571" stroke="#00007f" stroke-width="2" /><polyline fill="none" points="8.7075,61.3878 25.2517,61.8231 82.7211,58.3401 113.1973,57.9048 111.4558,60.517 111.4558,67.483 119.2925,108.4082" stroke="#004cff" stroke-width="2" /><polyline fill="none" points="15.2381,65.3061 15.6735,71.8367 10.0136,101.0068 10.0136,115.8095" stroke="#29ffcd" stroke-width="2" /><polyline fill="none" points="58.3401,60.9524 58.7755,85.7687 62.2585,102.7483 61.3878,109.7143 62.2585,111.4558 67.483,111.4558" stroke="#cdff29" stroke-width="2" /><polyline fill="none" points="91.4286,56.1633 91.4286,64.4354 95.3469,77.4966 97.5238,97.0884 99.7007,100.5714" stroke="#ff6700" stroke-width="2" /><polyline fill="none" points="39.1837,60.0816 37.4422,93.1701 38.7483,112.7619 39.619,118.4218 40.9252,118.8571" stroke="#7f0000" stroke-width="2" /></svg>