<?xml version="1.0" encoding="utf-8" ?>
<svg baseProfile="tiny" height="128" version="1.2" viewBox="0,0,128,128" width="128" xmlns="http://www.w3.org/2000/svg" xmlns:ev="http://www.w3.org/2001/xml-events" xmlns:xlink="http://www.w3.org/1999/xlink"><defs /><polyline fill="none" points="50.7661,8.678 49.4644,19.0915 49.4644,36.8814 51.2,58.5763" stroke="#00007f" stroke-width="2" /><polyline fill="none" points="29.5051,62.0475 41.6542,58.5763 67.2542,58.1424 67.6881,62.9153 65.0847,74.6305 63.7831,75.4983 60.3119,73.7627 52.0678,72.0271 28.2034,72.461 32.1085,57.7085" stroke="#0010ff" stroke-width="2" /><polyline fill="none" points="46.861,72.8949 45.9932,83.7424" stroke="#00a4ff" stroke-width="2" /><polyline fill="none" points="45.5593,85.478 13.4508,85.0441 12.5831,86.7797 14.7525,95.8915 17.3559,100.2305 22.1288,103.2678 39.9186,104.5695 76.8,102.8339 79.4034,100.6644 80.7051,89.3831 80.2712,84.1763 60.7458,84.1763 50.7661,82.8746 45.5593,83.7424" stroke="#3fffb7" stroke-width="2" /><polyline fill="none" points="8.678,106.739 13.0169,118.4542" stroke="#b7ff3f" stroke-width="2" /><polyline fill="none" points="26.0339,107.1729 29.5051,111.5119" stroke="#ffb900" stroke-width="2" /><polyline fill="none" points="41.6542,107.1729 47.7288,119.322" stroke="#ff3000" stroke-width="2" /><polyline fill="none" points="57.7085,109.7763 61.1797,116.2847" stroke="#7f0000" stroke-width="2" /></svg>