<?xml version="1.0" encoding="utf-8" ?>
<svg baseProfile="tiny" height="128" version="1.2" viewBox="0,0,128,128" width="128" xmlns="http://www.w3.org/2000/svg" xmlns:ev="http://www.w3.org/2001/xml-events" xmlns:xlink="http://www.w3.org/1999/xlink"><defs /><polyline fill="none" points="59.3814,9.677 63.3402,43.5464 8.7973,75.2165" stroke="#00007f" stroke-width="2" /><polyline fill="none" points="65.0997,41.3471 85.3333,58.5017 119.2027,70.8179" stroke="#0000b1" stroke-width="2" /><polyline fill="none" points="13.6357,76.5361 36.5086,75.2165 79.6151,69.0584 119.2027,68.6186" stroke="#0000e3" stroke-width="2" /><polyline fill="none" points="22.8729,80.055 22.433,82.6942" stroke="#0004ff" stroke-width="2" /><polyline fill="none" points="27.7113,74.7766 29.9107,79.1753" stroke="#0030ff" stroke-width="2" /><polyline fill="none" points="30.7904,79.1753 32.5498,80.4948" stroke="#005cff" stroke-width="2" /><polyline fill="none" points="35.6289,74.7766 38.7079,77.4158" stroke="#0088ff" stroke-width="2" /><polyline fill="none" points="42.2268,76.0962 54.9828,79.6151" stroke="#00b4ff" stroke-width="2" /><polyline fill="none" points="57.1821,77.8557 60.2612,80.4948 62.4605,79.6151" stroke="#00e4f7" stroke-width="2" /><polyline fill="none" points="64.2199,77.4158 69.4983,77.8557" stroke="#22ffd4" stroke-width="2" /><polyline fill="none" points="69.9381,73.457 77.8557,78.2955" stroke="#46ffb0" stroke-width="2" /><polyline fill="none" points="83.134,73.0172 87.5326,74.7766" stroke="#69ff8d" stroke-width="2" /><polyline fill="none" points="94.1306,71.6976 102.0481,77.8557" stroke="#8dff69" stroke-width="2" /><polyline fill="none" points="103.8076,75.6564 106.0069,75.6564" stroke="#b0ff46" stroke-width="2" /><polyline fill="none" points="109.5258,72.5773 113.0447,76.5361" stroke="#d4ff22" stroke-width="2" /><polyline fill="none" points="113.9244,73.457 114.3643,74.3368" stroke="#f7f400" stroke-width="2" /><polyline fill="none" points="56.3024,48.3849 46.6254,63.3402" stroke="#ffc800" stroke-width="2" /><polyline fill="none" points="61.5808,50.5842 70.378,61.1409 75.2165,64.6598 82.2543,64.6598" stroke="#ff9f00" stroke-width="2" /><polyline fill="none" points="66.8591,42.2268 65.9794,8.7973" stroke="#ff7600" stroke-width="2" /><polyline fill="none" points="17.1546,66.4192 19.7938,64.2199 20.6735,56.7423 22.433,53.2234 25.0722,54.9828 27.2715,62.4605" stroke="#ff4d00" stroke-width="2" /><polyline fill="none" points="98.9691,63.3402 100.7285,54.9828 104.2474,51.9038 110.4055,58.5017 112.6048,63.3402 112.6048,68.1787" stroke="#ff2500" stroke-width="2" /><polyline fill="none" points="77.4158,52.3436 79.6151,46.1856 84.0137,42.6667 87.5326,44.866 89.2921,56.3024" stroke="#e30000" stroke-width="2" /><polyline fill="none" points="42.2268,53.6632 48.8247,41.3471 51.9038,41.7869 54.1031,45.3058 54.543,50.1443" stroke="#b10000" stroke-width="2" /><polyline fill="none" points="32.5498,66.4192 32.5498,66.4192" stroke="#7f0000" stroke-width="2" /></svg>