<?xml version="1.0" encoding="utf-8" ?>
<svg baseProfile="tiny" height="128" version="1.2" viewBox="0,0,128,128" width="128" xmlns="http://www.w3.org/2000/svg" xmlns:ev="http://www.w3.org/2001/xml-events" xmlns:xlink="http://www.w3.org/1999/xlink"><defs /><polyline fill="none" points="61.6136,8.678 60.7458,15.1864 58.1424,17.3559 35.1458,20.3932 27.7695,26.0339 19.9593,40.3525 18.6576,51.6339 20.8271,53.8034" stroke="#00007f" stroke-width="2" /><polyline fill="none" points="65.0847,11.2814 70.7254,10.4136 75.4983,11.7153 97.1932,24.2983 103.7017,39.0508 105.4373,52.0678" stroke="#0000fe" stroke-width="2" /><polyline fill="none" points="63.3492,13.4508 69.4237,19.0915 70.7254,23.4305 68.5559,44.6915" stroke="#0060ff" stroke-width="2" /><polyline fill="none" points="59.878,17.7898 55.539,18.6576 49.8983,23.4305 45.5593,29.5051 44.6915,36.8814" stroke="#00d4ff" stroke-width="2" /><polyline fill="none" points="79.8373,15.1864 82.0068,17.7898 85.478,23.8644 84.6102,39.9186" stroke="#4cffaa" stroke-width="2" /><polyline fill="none" points="21.261,54.2373 14.3186,54.6712 10.8475,58.5763 9.1119,63.7831 8.678,78.1017 10.4136,79.4034 13.0169,78.9695 18.6576,71.1593 23.4305,72.8949 29.5051,70.7254 31.2407,68.5559 31.2407,62.4814 23.4305,52.9356" stroke="#aaff4c" stroke-width="2" /><polyline fill="none" points="46.861,36.0136 41.2203,37.7492 36.8814,42.9559 35.1458,47.7288 35.5797,59.0102 37.7492,60.7458 41.2203,59.4441 45.5593,55.1051 50.7661,55.539 53.3695,53.8034 54.6712,40.7864 50.7661,37.3153 47.2949,36.8814" stroke="#ffe500" stroke-width="2" /><polyline fill="none" points="68.5559,44.6915 63.3492,45.9932 60.3119,49.4644 58.5763,54.6712 59.0102,63.7831 61.6136,65.0847 68.9898,61.1797 72.8949,62.9153 75.4983,60.3119 75.0644,46.861 69.4237,42.522" stroke="#ff7a00" stroke-width="2" /><polyline fill="none" points="85.9119,41.6542 80.7051,42.9559 78.9695,45.1254 79.4034,52.5017 82.4407,55.9729 85.0441,56.4068 88.5153,53.3695 92.4203,52.5017 91.9864,48.5966 88.0814,44.6915 80.7051,42.0881" stroke="#fe1200" stroke-width="2" /><polyline fill="none" points="103.7017,53.8034 101.9661,52.9356 97.6271,55.1051 94.1559,59.4441 91.5525,65.0847 91.9864,71.5932 98.061,72.0271 106.739,70.2915 116.2847,72.0271 118.4542,71.1593 119.322,67.2542 115.4169,61.1797 103.7017,51.2" stroke="#7f0000" stroke-width="2" /></svg>