<?xml version="1.0" encoding="utf-8" ?>
<svg baseProfile="tiny" height="128" version="1.2" viewBox="0,0,128,128" width="128" xmlns="http://www.w3.org/2000/svg" xmlns:ev="http://www.w3.org/2001/xml-events" xmlns:xlink="http://www.w3.org/1999/xlink"><defs /><polyline fill="none" points="74.6305,8.678 73.7627,29.0712 69.4237,46.861 51.6339,79.4034 41.2203,89.8169 37.3153,92.8542 26.9017,94.5898 18.2237,89.3831 12.5831,77.2339 12.1492,68.5559 14.3186,59.4441" stroke="#00007f" stroke-width="2" /><polyline fill="none" points="75.9322,19.9593 75.9322,33.8441 72.461,44.2576 63.3492,59.4441 56.4068,75.4983 52.9356,88.5153 53.8034,98.4949 57.2746,104.1356 63.3492,108.0407 70.2915,109.7763 81.139,107.1729 88.9492,103.2678 96.3254,97.1932 106.739,84.6102" stroke="#00d4ff" stroke-width="2" /><polyline fill="none" points="56.8407,65.9525 56.8407,81.5729 52.9356,95.4576 42.9559,111.9458 34.278,119.322 27.3356,118.4542 24.7322,115.8508 21.261,105.4373 20.3932,90.2508" stroke="#ffe500" stroke-width="2" /><polyline fill="none" points="8.678,58.5763 17.3559,39.0508 23.4305,31.6746 29.5051,27.7695 33.8441,27.3356 37.3153,28.6373 39.4847,31.6746 40.3525,36.8814 34.278,53.3695 26.9017,60.3119 19.0915,62.9153 13.0169,62.4814 9.9797,59.878" stroke="#7f0000" stroke-width="2" /></svg>