<?xml version="1.0" encoding="utf-8" ?>
<svg baseProfile="tiny" height="128" version="1.2" viewBox="0,0,128,128" width="128" xmlns="http://www.w3.org/2000/svg" xmlns:ev="http://www.w3.org/2001/xml-events" xmlns:xlink="http://www.w3.org/1999/xlink"><defs /><polyline fill="none" points="56.4068,8.678 56.4068,46.4271 54.6712,56.8407 49.8983,65.5186 42.0881,72.0271 35.5797,73.3288 27.7695,73.3288 13.8847,62.9153 12.5831,59.878 13.0169,55.9729" stroke="#00007f" stroke-width="2" /><polyline fill="none" points="53.3695,44.6915 56.4068,64.6508 61.6136,77.2339 65.0847,83.3085 75.0644,88.5153 85.478,88.9492 94.1559,84.6102 101.5322,75.4983 105.0034,68.9898 108.0407,59.878 108.0407,52.9356" stroke="#00d4ff" stroke-width="2" /><polyline fill="none" points="51.6339,59.0102 52.9356,69.4237 51.6339,92.8542 45.1254,109.3424 39.9186,114.5492 31.2407,119.322 20.3932,118.8881 8.678,114.5492" stroke="#ffe500" stroke-width="2" /><polyline fill="none" points="53.3695,68.5559 53.3695,91.1186" stroke="#7f0000" stroke-width="2" /></svg>