<?xml version="1.0" encoding="utf-8" ?>
<svg baseProfile="tiny" height="128" version="1.2" viewBox="0,0,128,128" width="128" xmlns="http://www.w3.org/2000/svg" xmlns:ev="http://www.w3.org/2001/xml-events" xmlns:xlink="http://www.w3.org/1999/xlink"><defs /><polyline fill="none" points="9.1119,75.9322 41.6542,76.8 103.2678,82.4407" stroke="#00007f" stroke-width="2" /><polyline fill="none" points="56.8407,78.5356 63.3492,58.1424 64.2169,26.4678 61.1797,8.678" stroke="#0000e8" stroke-width="2" /><polyline fill="none" points="11.2814,76.8 9.5458,78.5356 8.678,84.6102 10.4136,109.7763" stroke="#0038ff" stroke-width="2" /><polyline fill="none" points="24.2983,75.9322 29.0712,105.0034" stroke="#0094ff" stroke-width="2" /><polyline fill="none" points="44.6915,81.5729 46.4271,107.6068" stroke="#0cf4ea" stroke-width="2" /><polyline fill="none" points="60.3119,83.7424 62.9153,107.6068" stroke="#56ffa0" stroke-width="2" /><polyline fill="none" points="75.4983,88.0814 77.2339,84.1763 78.1017,86.7797 78.1017,111.9458" stroke="#a0ff56" stroke-width="2" /><polyline fill="none" points="93.722,86.7797 93.2881,114.5492" stroke="#eaff0c" stroke-width="2" /><polyline fill="none" points="104.1356,86.7797 108.9085,115.8508" stroke="#ffaa00" stroke-width="2" /><polyline fill="none" points="81.139,113.2475 84.6102,112.8136" stroke="#ff5500" stroke-width="2" /><polyline fill="none" points="84.6102,112.8136 84.6102,114.5492 84.6102,112.8136 87.6475,112.8136 119.322,115.8508" stroke="#e80000" stroke-width="2" /><polyline fill="none" points="72.8949,111.078 56.4068,104.5695 32.9763,99.7966" stroke="#7f0000" stroke-width="2" /></svg>