<?xml version="1.0" encoding="utf-8" ?>
<svg baseProfile="tiny" height="128" version="1.2" viewBox="0,0,128,128" width="128" xmlns="http://www.w3.org/2000/svg" xmlns:ev="http://www.w3.org/2001/xml-events" xmlns:xlink="http://www.w3.org/1999/xlink"><defs /><polyline fill="none" points="62.0475,8.678 56.4068,44.6915 53.8034,49.8983 47.7288,55.539 36.0136,60.3119 23.8644,59.4441 15.1864,54.6712 12.1492,51.2 11.2814,47.2949" stroke="#00007f" stroke-width="2" /><polyline fill="none" points="54.6712,51.6339 55.539,59.4441 58.5763,65.0847 66.3864,69.4237 76.3661,70.7254 88.0814,68.5559 100.2305,60.7458 104.5695,54.2373 105.0034,45.1254" stroke="#004cff" stroke-width="2" /><polyline fill="none" points="54.6712,49.0305 52.5017,60.7458 49.0305,72.0271 43.8237,82.4407 38.6169,88.5153 30.8068,93.2881 21.6949,95.8915 13.0169,94.5898 9.9797,92.8542 8.678,90.2508" stroke="#29ffcd" stroke-width="2" /><polyline fill="none" points="58.1424,50.3322 54.6712,60.3119 51.6339,75.9322 52.5017,84.6102 55.539,92.4203 62.9153,98.4949 74.6305,103.2678 79.8373,104.1356 91.1186,101.9661 96.7593,98.9288 98.4949,96.7593" stroke="#cdff29" stroke-width="2" /><polyline fill="none" points="52.0678,69.4237 46.4271,84.6102 39.0508,119.322" stroke="#ff6700" stroke-width="2" /><polyline fill="none" points="105.4373,47.2949 101.0983,45.5593 99.3627,42.522 100.2305,40.3525 105.0034,36.8814 111.9458,36.4475 114.5492,38.1831 116.2847,42.522 114.9831,49.4644" stroke="#7f0000" stroke-width="2" /></svg>