<?xml version="1.0" encoding="utf-8" ?>
<svg baseProfile="tiny" height="128" version="1.2" viewBox="0,0,128,128" width="128" xmlns="http://www.w3.org/2000/svg" xmlns:ev="http://www.w3.org/2001/xml-events" xmlns:xlink="http://www.w3.org/1999/xlink"><defs /><polyline fill="none" points="46.585,8.7075 48.3265,45.7143 46.585,59.6463 40.9252,74.449 38.7483,77.0612 34.3946,78.8027 25.2517,77.4966 21.3333,74.8844 17.8503,64.0 14.3673,42.6667 13.4966,42.2313 10.0136,44.8435 8.7075,48.7619 16.9796,50.5034" stroke="#00007f" stroke-width="2" /><polyline fill="none" points="72.7075,13.0612 71.8367,52.6803 74.8844,84.898 77.932,91.4286 80.5442,94.9116 83.1565,95.7823 87.9456,93.6054 90.9932,89.2517 94.0408,80.1088 94.9116,70.0952 94.0408,60.517 90.9932,50.5034 91.4286,52.6803 95.7823,56.5986 104.0544,60.517 95.7823,61.3878" stroke="#00d4ff" stroke-width="2" /><polyline fill="none" points="114.5034,51.3741 117.551,61.3878 119.2925,77.4966 118.8571,90.5578 117.1156,96.2177 103.619,101.4422 96.6531,101.4422 90.1224,98.3946 87.0748,94.4762 85.3333,90.1224 85.7687,85.7687" stroke="#ffe500" stroke-width="2" /><polyline fill="none" points="55.7279,13.932 57.9048,25.2517 56.1633,65.7415 48.3265,93.1701 46.585,95.3469 41.7959,96.6531 34.3946,93.1701 18.7211,82.2857 16.9796,79.6735 18.2857,78.8027 16.5442,74.0136" stroke="#7f0000" stroke-width="2" /></svg>