<?xml version="1.0" encoding="utf-8" ?>
<svg baseProfile="tiny" height="128" version="1.2" viewBox="0,0,128,128" width="128" xmlns="http://www.w3.org/2000/svg" xmlns:ev="http://www.w3.org/2001/xml-events" xmlns:xlink="http://www.w3.org/1999/xlink"><defs /><polyline fill="none" points="18.2857,60.9524 23.5102,39.619 32.2177,24.8163 35.2653,21.7687 36.5714,23.5102 26.1224,50.9388 21.3333,69.6599 26.9932,53.9864 37.8776,34.8299 37.4422,42.2313 33.9592,53.551 30.9116,71.8367 30.0408,84.4626 31.7823,85.7687 33.9592,83.1565 47.4558,47.8912 56.1633,36.1361 38.7483,76.1905 34.3946,94.4762 33.9592,101.8776 35.7007,103.1837 37.8776,100.5714 46.585,74.449 49.6327,70.5306 50.068,114.068 51.8095,119.2925 54.4218,116.6803 62.6939,88.8163 73.1429,67.483 77.932,61.3878 78.3673,63.1293 71.4014,80.1088 67.0476,98.3946 67.483,111.0204 71.8367,111.4558 77.932,107.9728 76.6259,106.2313 72.7075,105.7959" stroke="#00007f" stroke-width="2" /><polyline fill="none" points="27.8639,61.8231 32.2177,60.9524 40.4898,64.4354 54.8571,74.0136 60.517,80.9796 61.3878,85.3333 59.6463,87.9456 33.5238,88.8163 30.0408,90.1224 29.6054,91.8639 29.1701,95.3469 30.9116,97.9592 42.6667,108.4082 50.5034,118.8571 53.1156,119.2925 63.5646,113.6327 69.6599,107.102 70.966,103.619 70.966,89.6871 60.9524,73.5782 50.5034,64.8707 43.102,60.9524 37.8776,59.2109 29.6054,58.7755 22.2041,64.8707 15.2381,80.5442 14.3673,110.1497 16.5442,114.068 23.9456,117.1156 47.8912,117.9864 52.2449,116.6803 65.7415,109.7143 74.0136,103.1837 80.1088,95.7823 81.415,91.8639 80.1088,79.2381 70.5306,59.6463 62.6939,48.3265 53.9864,39.1837 49.1973,36.5714 41.7959,34.8299 36.5714,34.8299 33.5238,36.5714 26.1224,43.5374 18.2857,55.2925 17.415,70.966 23.0748,86.6395 26.1224,91.8639 32.2177,96.6531 47.0204,96.6531 66.6122,87.9456 70.5306,84.898 74.8844,75.7551 75.7551,56.1633 71.8367,46.585 67.9184,41.7959 60.9524,37.4422 54.4218,36.1361 45.7143,36.1361 36.5714,40.0544 25.2517,47.4558 21.7687,52.2449 20.4626,58.3401 28.2993,63.5646 43.5374,66.6122 70.0952,66.1769 79.2381,62.6939 82.2857,57.9048 82.2857,53.1156 70.5306,41.7959 47.8912,26.5578 35.2653,20.898 26.5578,18.7211 19.5918,20.0272 16.9796,23.9456 18.2857,29.6054 29.1701,34.8299 45.2789,35.7007 51.8095,33.0884 61.8231,26.9932 64.8707,22.6395 63.5646,20.0272 47.4558,13.0612 38.7483,12.1905 18.7211,36.5714 16.9796,49.1973 16.5442,76.6259 8.7075,98.8299" stroke="#004cff" stroke-width="2" /><polyline fill="none" points="92.7347,30.4762 71.8367,31.3469 70.966,29.1701 74.0136,26.9932 89.2517,26.5578 90.9932,30.9116 87.0748,31.7823" stroke="#29ffcd" stroke-width="2" /><polyline fill="none" points="75.7551,23.5102 67.9184,24.381 67.9184,22.6395 77.0612,19.5918 86.2041,21.7687 86.2041,24.8163 82.7211,26.5578" stroke="#cdff29" stroke-width="2" /><polyline fill="none" points="74.8844,17.8503 70.5306,16.9796 77.4966,11.3197 77.4966,8.7075 81.415,17.8503 75.7551,20.898" stroke="#ff6700" stroke-width="2" /><polyline fill="none" points="70.5306,24.8163 74.449,28.2993" stroke="#7f0000" stroke-width="2" /></svg>