<?xml version="1.0" encoding="utf-8" ?>
<svg baseProfile="tiny" height="128" version="1.2" viewBox="0,0,128,128" width="128" xmlns="http://www.w3.org/2000/svg" xmlns:ev="http://www.w3.org/2001/xml-events" xmlns:xlink="http://www.w3.org/1999/xlink"><defs /><polyline fill="none" points="10.4136,19.9593 82.8746,15.6203 109.7763,9.9797" stroke="#00007f" stroke-width="2" /><polyline fill="none" points="13.0169,20.8271 11.2814,20.8271 9.5458,23.4305 8.678,29.0712 9.5458,36.8814 13.8847,41.2203 21.6949,44.2576 27.3356,45.9932 37.3153,46.4271 50.3322,42.9559 55.9729,36.4475 56.4068,22.5627 60.3119,38.1831 62.9153,41.6542 68.122,45.1254 79.8373,45.9932 89.3831,39.9186 95.8915,30.3729 96.3254,15.6203 96.7593,24.2983 98.4949,29.5051 103.7017,33.8441 108.4746,35.1458 114.1153,32.1085 116.7186,26.0339 116.7186,16.922 111.5119,8.678" stroke="#0080ff" stroke-width="2" /><polyline fill="none" points="30.3729,23.4305 27.7695,36.4475 28.2034,48.1627 32.5424,55.9729 39.9186,61.6136 48.5966,63.3492 54.2373,62.0475 64.2169,58.1424 72.0271,51.2 73.7627,47.2949 74.1966,36.4475 70.7254,20.3932 69.8576,30.3729 75.0644,52.5017 82.0068,56.8407 93.722,56.8407 101.5322,52.9356 105.8712,49.0305 109.3424,42.522 111.5119,32.5424 109.7763,21.261 106.739,14.3186 103.7017,12.1492" stroke="#7cff79" stroke-width="2" /><polyline fill="none" points="48.5966,63.3492 45.1254,70.2915 47.7288,79.8373 55.539,88.0814 64.2169,91.9864 76.3661,90.6847 84.6102,84.6102 88.5153,74.1966 89.8169,57.7085 88.5153,55.539 88.9492,66.8203 92.4203,75.9322 98.4949,80.2712 102.8339,82.0068 110.2102,82.0068 113.2475,78.1017 116.7186,69.4237 119.322,52.5017 119.322,39.0508 116.2847,27.3356 106.739,13.4508" stroke="#ff9400" stroke-width="2" /><polyline fill="none" points="24.2983,23.8644 21.6949,26.4678 18.2237,34.278 15.1864,48.5966 14.7525,61.1797 17.3559,72.461 21.261,78.5356 24.7322,80.7051 34.278,82.4407 38.6169,80.7051" stroke="#7f0000" stroke-width="2" /></svg>