<?xml version="1.0" encoding="utf-8" ?>
<svg baseProfile="tiny" height="128" version="1.2" viewBox="0,0,128,128" width="128" xmlns="http://www.w3.org/2000/svg" xmlns:ev="http://www.w3.org/2001/xml-events" xmlns:xlink="http://www.w3.org/1999/xlink"><defs /><polyline fill="none" points="61.3878,8.7075 60.9524,31.3469" stroke="#00007f" stroke-width="2" /><polyline fill="none" points="10.0136,33.0884 8.7075,55.2925 12.6259,60.0816 16.1088,59.2109 20.4626,50.9388 21.7687,41.7959 19.5918,37.8776 11.3197,32.2177" stroke="#004cff" stroke-width="2" /><polyline fill="none" points="32.2177,30.0408 34.3946,50.9388 37.8776,56.5986 40.4898,55.7279 41.7959,52.6803 42.2313,42.6667 39.619,34.3946 37.8776,32.2177" stroke="#29ffcd" stroke-width="2" /><polyline fill="none" points="53.551,28.7347 56.5986,50.068 59.6463,57.9048 64.4354,60.9524 68.3537,53.1156 68.7891,43.102 64.8707,33.5238 57.9048,27.8639" stroke="#cdff29" stroke-width="2" /><polyline fill="none" points="74.449,31.3469 83.5918,53.1156 88.381,59.6463 91.8639,60.9524 94.9116,55.2925 95.3469,47.0204 91.8639,33.9592 89.6871,29.1701 84.898,25.2517" stroke="#ff6700" stroke-width="2" /><polyline fill="none" points="102.7483,31.3469 108.8435,45.7143 113.1973,51.8095 117.1156,54.4218 119.2925,53.1156 119.2925,46.1497 113.1973,35.2653 110.1497,32.2177 107.102,31.3469" stroke="#7f0000" stroke-width="2" /></svg>