<?xml version="1.0" encoding="utf-8" ?>
<svg baseProfile="tiny" height="128" version="1.2" viewBox="0,0,128,128" width="128" xmlns="http://www.w3.org/2000/svg" xmlns:ev="http://www.w3.org/2001/xml-events" xmlns:xlink="http://www.w3.org/1999/xlink"><defs /><polyline fill="none" points="44.2907,69.9792 44.2907,119.1419" stroke="#00007f" stroke-width="2" /><polyline fill="none" points="55.8062,75.737 55.8062,89.91 58.9066,113.3841" stroke="#0080ff" stroke-width="2" /><polyline fill="none" points="54.9204,73.5225 76.6228,71.7509 81.4948,68.2076 88.1384,56.692 92.5675,46.0623 94.782,35.8754 94.782,27.4602 90.3529,24.8028 87.6955,25.6886 82.8235,45.6194 79.2803,54.9204 72.1938,62.8927 64.6644,63.7785 62.0069,59.3495 62.0069,55.3633 63.3356,25.2457 61.1211,22.5882 54.9204,20.8166 48.7197,35.8754 47.8339,58.9066 42.519,64.2215 36.7612,65.9931 28.7889,62.8927 23.0311,57.1349 20.3737,45.6194 20.3737,29.6747 17.7163,27.0173 12.4014,26.1315 10.1869,27.4602 8.8581,31.4464 8.8581,43.8478 16.8304,72.6367 22.5882,79.7232 31.4464,83.2664 41.1903,82.8235 43.8478,77.0657" stroke="#7cff79" stroke-width="2" /><polyline fill="none" points="89.4671,23.474 91.2388,15.0588 96.1107,11.9585 90.7958,25.2457" stroke="#ff9400" stroke-width="2" /><polyline fill="none" points="55.3633,19.9308 58.9066,11.0727 62.4498,8.8581 64.2215,8.8581 62.0069,26.1315" stroke="#7f0000" stroke-width="2" /></svg>