<?xml version="1.0" encoding="utf-8" ?>
<svg baseProfile="tiny" height="128" version="1.2" viewBox="0,0,128,128" width="128" xmlns="http://www.w3.org/2000/svg" xmlns:ev="http://www.w3.org/2001/xml-events" xmlns:xlink="http://www.w3.org/1999/xlink"><defs /><polyline fill="none" points="70.5753,8.7671 71.4521,12.7123 69.2603,21.9178 69.2603,29.3699" stroke="#00007f" stroke-width="2" /><polyline fill="none" points="78.9041,32.0 37.2603,30.6849 22.7945,31.5616 16.6575,34.6301 10.9589,42.0822 10.5205,46.4658 12.7123,49.5342 19.2877,52.6027 46.9041,56.9863 72.7671,56.9863 90.3014,55.2329 105.6438,50.411 117.0411,42.9589 119.2329,37.6986 116.6027,36.3836 66.6301,31.1233" stroke="#0000de" stroke-width="2" /><polyline fill="none" points="68.8219,61.3699 66.6301,59.1781 59.1781,59.1781 44.7123,63.1233 40.3288,66.6301 39.8904,71.8904 45.589,77.1507 51.726,78.4658 61.3699,78.4658 73.2055,73.6438 76.274,71.4521 76.7123,67.9452 71.4521,64.8767 56.5479,63.1233" stroke="#0028ff" stroke-width="2" /><polyline fill="none" points="20.1644,48.6575 11.3973,73.2055 15.3425,57.863 21.9178,44.274 8.7671,69.2603 20.1644,48.6575 26.7397,38.5753 26.3014,40.7671 9.6438,72.7671 35.0685,38.5753 17.9726,71.0137 42.5205,38.137 33.3151,54.7945 26.7397,71.4521 28.4932,71.4521 33.3151,65.7534 47.7808,45.1507 35.5068,62.6849 48.6575,46.0274 40.3288,65.3151 53.4795,47.3425 44.7123,62.6849 59.1781,49.5342 57.4247,60.9315 60.0548,60.9315 74.5205,50.411 67.9452,62.6849 69.2603,63.5616 82.411,53.9178 83.726,53.9178 81.5342,61.8082 82.8493,62.6849 99.9452,51.726 96.0,62.2466 96.0,65.7534 101.6986,65.3151 110.0274,61.3699 111.3425,63.1233 109.589,71.0137" stroke="#0080ff" stroke-width="2" /><polyline fill="none" points="112.6575,40.7671 115.726,73.2055" stroke="#00d4ff" stroke-width="2" /><polyline fill="none" points="108.7123,47.7808 108.274,60.0548" stroke="#36ffc0" stroke-width="2" /><polyline fill="none" points="95.5616,54.7945 95.5616,61.3699" stroke="#7cff79" stroke-width="2" /><polyline fill="none" points="94.6849,54.7945 91.6164,67.5068" stroke="#c0ff36" stroke-width="2" /><polyline fill="none" points="84.1644,55.6712 84.1644,63.1233" stroke="#ffe500" stroke-width="2" /><polyline fill="none" points="76.274,48.6575 72.7671,51.2877" stroke="#ff9400" stroke-width="2" /><polyline fill="none" points="51.726,43.8356 45.1507,52.6027" stroke="#ff4600" stroke-width="2" /><polyline fill="none" points="49.0959,74.9589 44.274,85.9178" stroke="#de0000" stroke-width="2" /><polyline fill="none" points="53.9178,76.274 53.9178,76.274" stroke="#7f0000" stroke-width="2" /></svg>