<?xml version="1.0" encoding="utf-8" ?>
<svg baseProfile="tiny" height="128" version="1.2" viewBox="0,0,128,128" width="128" xmlns="http://www.w3.org/2000/svg" xmlns:ev="http://www.w3.org/2001/xml-events" xmlns:xlink="http://www.w3.org/1999/xlink"><defs /><polyline fill="none" points="19.5254,9.1119 22.1288,22.9966 26.0339,33.4102 31.2407,42.0881 34.278,44.2576 43.3898,42.522 55.539,31.2407 59.4441,23.4305 60.3119,12.5831" stroke="#00007f" stroke-width="2" /><polyline fill="none" points="66.3864,12.5831 67.6881,33.4102 70.2915,43.3898 77.6678,54.6712 85.9119,56.8407 97.1932,52.5017 104.5695,41.2203 108.9085,25.1661 107.1729,15.1864 105.0034,11.7153" stroke="#7cff79" stroke-width="2" /><polyline fill="none" points="17.7898,9.1119 9.5458,8.678 8.678,10.4136 8.678,20.8271 12.5831,34.278 15.1864,51.6339 18.2237,56.4068 32.1085,58.5763 44.6915,56.8407 49.0305,55.539 53.3695,52.0678 52.5017,61.6136 52.9356,93.2881 56.4068,98.4949 61.1797,96.7593 65.0847,93.722 68.122,70.2915 95.4576,69.4237 98.9288,67.6881 105.0034,60.7458 109.7763,43.8237 119.322,22.5627 118.4542,13.4508 105.4373,9.9797" stroke="#7f0000" stroke-width="2" /></svg>