<?xml version="1.0" encoding="utf-8" ?>
<svg baseProfile="tiny" height="128" version="1.2" viewBox="0,0,128,128" width="128" xmlns="http://www.w3.org/2000/svg" xmlns:ev="http://www.w3.org/2001/xml-events" xmlns:xlink="http://www.w3.org/1999/xlink"><defs /><polyline fill="none" points="47.8912,8.7075 51.3741,29.1701 60.9524,52.2449 69.2245,76.6259 70.5306,90.9932 65.3061,102.7483 59.6463,107.5374 54.8571,108.4082 51.8095,102.7483 42.6667,96.2177 37.4422,89.2517 24.8163,55.7279 23.0748,64.4354 25.2517,70.5306 33.0884,84.898 45.2789,101.4422 53.9864,105.7959 60.0816,107.102 60.9524,105.3605 41.7959,72.7075 49.6327,91.4286 53.9864,98.3946 60.517,102.7483 66.1769,103.1837 74.8844,99.2653 79.2381,91.8639 81.415,82.2857 81.415,62.2585 92.2993,71.8367 96.2177,78.8027 96.2177,84.4626 76.1905,105.3605 69.2245,103.1837 76.1905,108.4082 80.5442,107.9728 86.6395,105.7959 98.3946,99.2653 101.8776,95.7823 108.4082,83.1565 109.7143,66.1769 116.6803,72.7075 119.2925,77.932 119.2925,87.9456 111.4558,98.8299 105.7959,102.3129 80.9796,108.4082" stroke="#00007f" stroke-width="2" /><polyline fill="none" points="23.0748,57.4694 20.898,55.7279 8.7075,59.2109 30.9116,53.1156 37.8776,49.6327" stroke="#7f0000" stroke-width="2" /></svg>