<?xml version="1.0" encoding="utf-8" ?>
<svg baseProfile="tiny" height="128" version="1.2" viewBox="0,0,128,128" width="128" xmlns="http://www.w3.org/2000/svg" xmlns:ev="http://www.w3.org/2001/xml-events" xmlns:xlink="http://www.w3.org/1999/xlink"><defs /><polyline fill="none" points="52.0678,10.4136 50.3322,78.5356 47.2949,95.4576 40.3525,110.6441 33.4102,118.4542 31.2407,119.322 25.6,118.4542 22.1288,115.8508 15.1864,105.8712 13.4508,98.9288 9.9797,85.478 8.678,72.0271" stroke="#00007f" stroke-width="2" /><polyline fill="none" points="50.7661,11.7153 49.8983,59.4441 50.7661,78.1017 52.9356,88.9492 60.7458,101.9661 65.9525,105.8712 73.7627,107.1729 78.5356,106.739 87.2136,102.4 97.6271,90.6847 106.3051,70.2915" stroke="#7cff79" stroke-width="2" /><polyline fill="none" points="54.2373,8.678 52.0678,21.261 52.5017,40.7864 56.4068,65.5186 61.6136,76.3661 63.7831,77.6678 67.2542,77.6678 75.0644,71.1593 81.5729,57.7085 86.3458,40.3525" stroke="#7f0000" stroke-width="2" /></svg>