<?xml version="1.0" encoding="utf-8" ?>
<svg baseProfile="tiny" height="128" version="1.2" viewBox="0,0,128,128" width="128" xmlns="http://www.w3.org/2000/svg" xmlns:ev="http://www.w3.org/2001/xml-events" xmlns:xlink="http://www.w3.org/1999/xlink"><defs /><polyline fill="none" points="9.9797,9.1119 11.7153,36.0136" stroke="#00007f" stroke-width="2" /><polyline fill="none" points="8.678,8.678 9.5458,9.9797" stroke="#0000e8" stroke-width="2" /><polyline fill="none" points="29.0712,16.922 28.6373,31.2407 21.6949,29.5051 19.0915,32.5424 26.0339,33.4102 30.3729,30.3729" stroke="#0038ff" stroke-width="2" /><polyline fill="none" points="42.0881,16.0542 42.0881,40.7864 43.3898,42.9559" stroke="#0094ff" stroke-width="2" /><polyline fill="none" points="44.2576,35.1458 43.8237,30.8068 48.1627,20.3932" stroke="#0cf4ea" stroke-width="2" /><polyline fill="none" points="37.7492,30.3729 45.1254,34.7119 48.5966,40.3525" stroke="#56ffa0" stroke-width="2" /><polyline fill="none" points="61.6136,16.4881 62.9153,28.2034 66.3864,35.5797 71.1593,23.4305 75.9322,33.8441 79.8373,36.8814 86.3458,23.8644" stroke="#a0ff56" stroke-width="2" /><polyline fill="none" points="96.3254,22.1288 92.8542,25.6 92.4203,27.7695 93.722,28.6373 105.0034,21.261 102.8339,23.8644 102.4,33.8441" stroke="#eaff0c" stroke-width="2" /><polyline fill="none" points="108.0407,34.7119 109.7763,24.2983" stroke="#ffaa00" stroke-width="2" /><polyline fill="none" points="106.739,32.9763 109.3424,34.278 109.3424,39.0508" stroke="#ff5500" stroke-width="2" /><polyline fill="none" points="114.1153,26.0339 112.8136,36.0136" stroke="#e80000" stroke-width="2" /><polyline fill="none" points="111.078,25.1661 111.5119,23.8644 114.1153,23.8644 119.322,26.0339" stroke="#7f0000" stroke-width="2" /></svg>