<?xml version="1.0" encoding="utf-8" ?>
<svg baseProfile="tiny" height="128" version="1.2" viewBox="0,0,128,128" width="128" xmlns="http://www.w3.org/2000/svg" xmlns:ev="http://www.w3.org/2001/xml-events" xmlns:xlink="http://www.w3.org/1999/xlink"><defs /><polyline fill="none" points="8.678,8.678 32.5424,8.678 73.3288,13.8847 119.322,14.7525" stroke="#00007f" stroke-width="2" /><polyline fill="none" points="62.0475,12.5831 62.9153,23.8644" stroke="#0000bf" stroke-width="2" /><polyline fill="none" points="64.6508,13.4508 64.2169,26.4678" stroke="#0000fe" stroke-width="2" /><polyline fill="none" points="67.6881,22.9966 58.1424,23.4305 50.7661,27.3356 45.9932,35.5797 44.2576,47.2949 88.9492,45.9932 82.8746,28.6373 79.4034,24.2983 71.1593,22.1288 63.3492,22.1288" stroke="#0028ff" stroke-width="2" /><polyline fill="none" points="63.7831,46.4271 64.2169,48.1627" stroke="#0060ff" stroke-width="2" /><polyline fill="none" points="65.9525,46.4271 66.3864,48.1627" stroke="#009cff" stroke-width="2" /><polyline fill="none" points="65.9525,48.1627 62.9153,48.1627 63.3492,50.3322 68.9898,50.3322 68.5559,47.2949 64.6508,46.861" stroke="#00d4ff" stroke-width="2" /><polyline fill="none" points="50.3322,42.9559 51.2,36.8814 55.539,29.939" stroke="#1fffd7" stroke-width="2" /><polyline fill="none" points="62.4814,41.2203 62.9153,30.3729" stroke="#4cffaa" stroke-width="2" /><polyline fill="none" points="75.9322,40.3525 75.4983,35.5797 72.461,30.3729" stroke="#7cff79" stroke-width="2" /><polyline fill="none" points="60.3119,50.3322 54.2373,54.2373 50.3322,59.0102" stroke="#aaff4c" stroke-width="2" /><polyline fill="none" points="65.0847,53.8034 65.0847,68.5559" stroke="#d7ff1f" stroke-width="2" /><polyline fill="none" points="74.1966,53.3695 78.5356,65.5186" stroke="#ffe500" stroke-width="2" /><polyline fill="none" points="82.0068,51.2 93.2881,64.2169" stroke="#ffb100" stroke-width="2" /><polyline fill="none" points="70.2915,72.461 71.1593,77.2339 75.0644,78.1017 76.8,76.3661 76.8,74.1966 75.0644,72.8949 70.2915,73.7627" stroke="#ff7a00" stroke-width="2" /><polyline fill="none" points="72.461,78.5356 72.0271,82.0068 67.6881,88.9492" stroke="#ff4600" stroke-width="2" /><polyline fill="none" points="70.7254,81.5729 65.0847,78.5356 61.1797,73.7627" stroke="#fe1200" stroke-width="2" /><polyline fill="none" points="69.8576,82.4407 81.139,82.4407" stroke="#bf0000" stroke-width="2" /><polyline fill="none" points="66.8203,88.0814 62.4814,98.4949 62.0475,102.8339 62.9153,101.0983" stroke="#7f0000" stroke-width="2" /></svg>