<?xml version="1.0" encoding="utf-8" ?>
<svg baseProfile="tiny" height="128" version="1.2" viewBox="0,0,128,128" width="128" xmlns="http://www.w3.org/2000/svg" xmlns:ev="http://www.w3.org/2001/xml-events" xmlns:xlink="http://www.w3.org/1999/xlink"><defs /><polyline fill="none" points="88.0814,20.8271 83.7424,22.1288 51.2,21.6949 40.7864,22.9966 11.7153,37.3153 11.7153,43.8237 15.6203,45.1254 61.6136,47.2949 74.1966,44.6915 98.4949,35.1458 98.061,30.3729 90.6847,22.1288 87.6475,20.8271 81.5729,20.8271 74.6305,22.1288" stroke="#00007f" stroke-width="2" /><polyline fill="none" points="56.8407,8.678 56.8407,26.0339 57.7085,26.9017" stroke="#0000e8" stroke-width="2" /><polyline fill="none" points="8.678,47.7288 9.5458,70.2915" stroke="#0038ff" stroke-width="2" /><polyline fill="none" points="25.1661,46.4271 25.1661,55.1051 26.9017,65.9525" stroke="#0094ff" stroke-width="2" /><polyline fill="none" points="47.7288,44.2576 48.5966,57.7085 51.6339,69.8576" stroke="#0cf4ea" stroke-width="2" /><polyline fill="none" points="70.2915,44.2576 77.2339,65.9525" stroke="#56ffa0" stroke-width="2" /><polyline fill="none" points="91.5525,38.6169 91.5525,46.4271 96.7593,62.4814" stroke="#a0ff56" stroke-width="2" /><polyline fill="none" points="101.0983,35.5797 108.4746,48.5966 111.078,50.3322" stroke="#eaff0c" stroke-width="2" /><polyline fill="none" points="75.0644,67.2542 74.6305,76.8 76.8,78.5356 79.8373,78.5356 81.139,75.9322 81.139,67.2542 76.8,66.8203" stroke="#ffaa00" stroke-width="2" /><polyline fill="none" points="98.9288,59.878 96.3254,62.9153 96.3254,67.6881 96.7593,70.2915 98.9288,70.2915 102.8339,63.7831 102.8339,59.0102" stroke="#ff5500" stroke-width="2" /><polyline fill="none" points="119.322,51.6339 115.8508,51.2 113.6814,52.9356 113.6814,61.6136 116.7186,62.0475 118.0203,59.878 118.0203,50.3322 116.7186,48.5966" stroke="#e80000" stroke-width="2" /><polyline fill="none" points="48.5966,68.5559 48.1627,76.8 52.5017,78.5356 60.3119,76.8 62.4814,75.4983 62.9153,73.3288 62.9153,71.1593 61.1797,69.4237 52.9356,68.5559" stroke="#7f0000" stroke-width="2" /></svg>