<?xml version="1.0" encoding="utf-8" ?>
<svg baseProfile="tiny" height="128" version="1.2" viewBox="0,0,128,128" width="128" xmlns="http://www.w3.org/2000/svg" xmlns:ev="http://www.w3.org/2001/xml-events" xmlns:xlink="http://www.w3.org/1999/xlink"><defs /><polyline fill="none" points="36.0136,38.6169 11.2814,95.8915 8.678,104.1356 8.678,119.322 54.6712,106.3051 83.7424,102.4 82.8746,87.2136 92.4203,49.8983 91.9864,36.8814 89.8169,26.4678 80.7051,26.0339 49.8983,16.4881 10.8475,8.678 10.8475,17.7898 13.4508,28.2034 29.0712,37.7492 33.8441,38.6169" stroke="#00007f" stroke-width="2" /><polyline fill="none" points="37.7492,37.7492 37.7492,42.522 47.7288,47.7288 61.1797,52.0678 88.9492,58.1424" stroke="#0000d1" stroke-width="2" /><polyline fill="none" points="22.1288,19.9593 27.3356,21.6949 28.2034,19.5254 26.9017,24.7322 34.278,26.0339 35.5797,23.8644 34.7119,26.4678" stroke="#0010ff" stroke-width="2" /><polyline fill="none" points="46.861,20.3932 41.6542,42.522 39.9186,56.4068" stroke="#0058ff" stroke-width="2" /><polyline fill="none" points="58.1424,27.7695 56.4068,32.1085 59.0102,29.939 63.7831,30.3729 62.0475,32.5424" stroke="#00a4ff" stroke-width="2" /><polyline fill="none" points="68.5559,26.0339 65.0847,36.8814 63.7831,48.5966" stroke="#05ecf1" stroke-width="2" /><polyline fill="none" points="72.8949,36.8814 70.7254,47.7288 76.3661,39.0508 75.9322,41.2203 79.4034,43.8237" stroke="#3fffb7" stroke-width="2" /><polyline fill="none" points="39.9186,51.2 38.6169,77.6678 30.3729,108.4746" stroke="#7cff79" stroke-width="2" /><polyline fill="none" points="26.9017,62.0475 47.2949,63.3492 58.5763,66.3864 74.6305,73.7627 86.7797,75.9322" stroke="#b7ff3f" stroke-width="2" /><polyline fill="none" points="18.6576,77.2339 33.8441,78.1017 66.8203,88.0814 74.6305,88.9492" stroke="#f1fc05" stroke-width="2" /><polyline fill="none" points="74.6305,88.9492 74.6305,88.9492" stroke="#ffb900" stroke-width="2" /><polyline fill="none" points="75.9322,88.9492 80.2712,88.9492" stroke="#ff7300" stroke-width="2" /><polyline fill="none" points="70.2915,59.4441 68.9898,77.2339 62.0475,106.3051" stroke="#ff3000" stroke-width="2" /><polyline fill="none" points="58.5763,54.2373 52.0678,86.7797 45.5593,108.4746" stroke="#d10000" stroke-width="2" /><polyline fill="none" points="17.3559,80.2712 23.8644,81.5729 31.2407,86.3458 41.2203,89.8169 71.5932,92.8542 81.139,95.8915" stroke="#7f0000" stroke-width="2" /></svg>