<?xml version="1.0" encoding="utf-8" ?>
<svg baseProfile="tiny" height="128" version="1.2" viewBox="0,0,128,128" width="128" xmlns="http://www.w3.org/2000/svg" xmlns:ev="http://www.w3.org/2001/xml-events" xmlns:xlink="http://www.w3.org/1999/xlink"><defs /><polyline fill="none" points="63.7831,9.5458 63.3492,24.7322 60.7458,40.7864 53.8034,64.6508" stroke="#00007f" stroke-width="2" /><polyline fill="none" points="85.0441,8.678 78.1017,36.0136 77.2339,55.1051" stroke="#0028ff" stroke-width="2" /><polyline fill="none" points="52.5017,62.0475 38.6169,66.8203 27.7695,68.122 27.3356,39.9186 26.4678,36.4475 23.4305,34.278 19.0915,34.278 15.6203,36.0136 9.9797,42.0881 8.678,45.9932 8.678,55.1051 12.5831,61.6136 21.261,65.9525" stroke="#00d4ff" stroke-width="2" /><polyline fill="none" points="71.1593,56.4068 68.122,59.0102 85.478,61.1797 100.2305,60.7458 108.9085,57.7085 114.5492,53.3695 118.4542,47.7288 119.322,39.0508 115.4169,36.4475 107.1729,36.4475 102.8339,38.1831 98.4949,45.1254 97.1932,57.2746" stroke="#7cff79" stroke-width="2" /><polyline fill="none" points="51.6339,63.7831 49.0305,68.122 49.0305,76.3661 45.5593,86.7797 42.0881,92.4203 35.5797,98.4949 26.9017,101.5322 24.2983,93.2881 24.2983,81.5729 26.4678,83.7424 27.7695,87.2136 30.3729,99.3627" stroke="#ffe500" stroke-width="2" /><polyline fill="none" points="58.1424,59.878 62.9153,81.139 63.7831,108.4746 62.0475,111.5119 55.539,114.5492 52.5017,110.6441 50.3322,103.7017 53.3695,101.5322 58.5763,102.8339" stroke="#ff4600" stroke-width="2" /><polyline fill="none" points="70.2915,53.8034 69.8576,71.5932 71.5932,83.7424 78.1017,98.4949 85.478,106.3051" stroke="#7f0000" stroke-width="2" /></svg>