<?xml version="1.0" encoding="utf-8" ?>
<svg baseProfile="tiny" height="128" version="1.2" viewBox="0,0,128,128" width="128" xmlns="http://www.w3.org/2000/svg" xmlns:ev="http://www.w3.org/2001/xml-events" xmlns:xlink="http://www.w3.org/1999/xlink"><defs /><polyline fill="none" points="77.2339,8.678 78.5356,47.7288" stroke="#00007f" stroke-width="2" /><polyline fill="none" points="77.6678,47.2949 76.8,36.0136 75.0644,32.9763 66.3864,29.0712 55.539,28.2034 47.2949,31.2407 40.3525,36.0136 37.7492,40.7864 37.7492,52.0678 42.0881,57.2746 53.3695,62.9153 77.2339,65.9525 100.6644,63.7831 115.8508,57.2746 119.322,50.7661 118.8881,45.9932 107.1729,33.4102 100.2305,29.5051 90.2508,25.6 78.1017,25.6 67.6881,32.1085" stroke="#0000d5" stroke-width="2" /><polyline fill="none" points="56.4068,38.1831 54.2373,60.7458" stroke="#001cff" stroke-width="2" /><polyline fill="none" points="71.5932,43.3898 74.6305,65.0847 76.8,67.2542 81.5729,65.9525" stroke="#006cff" stroke-width="2" /><polyline fill="none" points="103.7017,60.7458 108.4746,69.8576" stroke="#00b8ff" stroke-width="2" /><polyline fill="none" points="116.2847,66.3864 118.8881,84.6102" stroke="#1cffda" stroke-width="2" /><polyline fill="none" points="101.5322,79.8373 93.2881,85.0441 88.0814,85.478" stroke="#5cff9a" stroke-width="2" /><polyline fill="none" points="77.2339,82.4407 70.2915,87.6475 65.5186,88.0814" stroke="#9aff5c" stroke-width="2" /><polyline fill="none" points="58.5763,74.6305 53.8034,79.8373 52.0678,79.8373" stroke="#daff1c" stroke-width="2" /><polyline fill="none" points="54.2373,65.0847 48.1627,75.9322 45.5593,74.6305" stroke="#ffcb00" stroke-width="2" /><polyline fill="none" points="42.9559,59.878 40.3525,61.6136 34.278,71.5932 32.5424,72.461 31.2407,70.7254" stroke="#ff8500" stroke-width="2" /><polyline fill="none" points="35.1458,45.1254 26.4678,50.3322 22.5627,49.8983 17.7898,45.5593" stroke="#ff3b00" stroke-width="2" /><polyline fill="none" points="8.678,31.6746 9.1119,32.5424" stroke="#d50000" stroke-width="2" /><polyline fill="none" points="44.6915,39.4847 43.3898,41.6542 43.3898,48.1627 45.9932,51.2 50.7661,52.5017 51.6339,49.4644 49.8983,44.2576 48.5966,39.9186 46.4271,38.6169" stroke="#7f0000" stroke-width="2" /></svg>