<?xml version="1.0" encoding="utf-8" ?>
<svg baseProfile="tiny" height="128" version="1.2" viewBox="0,0,128,128" width="128" xmlns="http://www.w3.org/2000/svg" xmlns:ev="http://www.w3.org/2001/xml-events" xmlns:xlink="http://www.w3.org/1999/xlink"><defs /><polyline fill="none" points="65.0847,8.678 66.8203,26.9017 66.8203,50.7661 63.7831,70.2915 59.0102,80.7051 51.2,84.1763 45.1254,84.1763 37.7492,81.139 29.939,75.4983 22.9966,63.7831 16.922,41.2203" stroke="#00007f" stroke-width="2" /><polyline fill="none" points="72.8949,8.678 71.5932,9.1119 70.2915,14.3186 69.8576,63.7831 71.5932,72.8949 77.2339,83.7424 82.8746,88.0814 88.9492,89.8169 94.5898,89.3831 99.7966,86.7797 111.9458,73.7627 115.8508,66.8203 119.322,57.2746" stroke="#7cff79" stroke-width="2" /><polyline fill="none" points="66.8203,76.3661 61.6136,86.3458 52.9356,96.3254 39.9186,102.8339 28.6373,103.7017 19.9593,99.3627 11.2814,90.6847 9.1119,84.1763 8.678,63.7831" stroke="#7f0000" stroke-width="2" /></svg>