<?xml version="1.0" encoding="utf-8" ?>
<svg baseProfile="tiny" height="128" version="1.2" viewBox="0,0,128,128" width="128" xmlns="http://www.w3.org/2000/svg" xmlns:ev="http://www.w3.org/2001/xml-events" xmlns:xlink="http://www.w3.org/1999/xlink"><defs /><polyline fill="none" points="82.0068,8.678 77.6678,20.3932 71.1593,53.8034 68.5559,55.1051 24.7322,55.1051 10.8475,52.0678 8.678,52.9356 8.678,55.539 12.1492,59.878 14.7525,61.1797 22.9966,55.9729 18.2237,55.9729 10.4136,58.1424 15.6203,59.0102 19.9593,56.4068 15.1864,57.7085 12.5831,50.7661 11.7153,55.9729" stroke="#00007f" stroke-width="2" /><polyline fill="none" points="70.2915,54.2373 69.8576,66.8203 65.5186,65.9525 62.9153,69.4237 64.6508,73.7627 66.3864,74.1966 69.4237,72.8949 69.8576,70.7254 68.122,70.2915 68.122,68.5559 67.6881,69.4237" stroke="#00d4ff" stroke-width="2" /><polyline fill="none" points="69.4237,54.6712 90.2508,56.8407 114.5492,62.4814 118.8881,60.7458 119.322,63.3492 115.8508,65.0847 114.9831,61.1797 115.4169,62.9153 113.6814,63.7831 113.6814,61.6136 117.5864,59.4441 118.8881,61.6136 116.7186,63.7831 114.5492,62.9153 113.6814,59.878" stroke="#ffe500" stroke-width="2" /><polyline fill="none" points="98.061,59.4441 92.8542,67.6881 91.1186,65.9525 87.2136,65.9525 86.7797,68.122 91.1186,68.9898" stroke="#7f0000" stroke-width="2" /></svg>