<?xml version="1.0" encoding="utf-8" ?>
<svg baseProfile="tiny" height="128" version="1.2" viewBox="0,0,128,128" width="128" xmlns="http://www.w3.org/2000/svg" xmlns:ev="http://www.w3.org/2001/xml-events" xmlns:xlink="http://www.w3.org/1999/xlink"><defs /><polyline fill="none" points="59.0102,8.678 63.7831,26.0339 64.6508,40.3525 59.878,61.6136 52.9356,73.3288 42.9559,79.4034 32.9763,79.8373 26.9017,76.3661 20.8271,70.2915 14.3186,61.1797 13.4508,57.7085" stroke="#00007f" stroke-width="2" /><polyline fill="none" points="55.9729,9.9797 62.9153,29.939 70.7254,60.7458 78.1017,71.1593 85.0441,75.4983 97.1932,77.6678 108.9085,76.8 119.322,72.8949" stroke="#004cff" stroke-width="2" /><polyline fill="none" points="59.0102,16.922 62.0475,36.0136 62.4814,59.4441 69.4237,74.1966 74.6305,77.6678 81.139,77.2339 89.8169,70.7254 98.4949,59.878" stroke="#29ffcd" stroke-width="2" /><polyline fill="none" points="57.2746,43.8237 57.2746,57.2746 53.3695,62.4814 47.7288,63.3492 38.6169,62.4814 29.939,55.539 28.6373,52.0678 29.939,51.2 29.939,52.5017 28.6373,53.3695 28.2034,51.2 31.2407,49.4644 29.0712,54.2373" stroke="#cdff29" stroke-width="2" /><polyline fill="none" points="11.2814,59.4441 9.9797,57.7085 11.2814,56.4068 8.678,61.1797" stroke="#ff6700" stroke-width="2" /><polyline fill="none" points="96.7593,63.3492 98.061,58.1424" stroke="#7f0000" stroke-width="2" /></svg>