<?xml version="1.0" encoding="utf-8" ?>
<svg baseProfile="tiny" height="128" version="1.2" viewBox="0,0,128,128" width="128" xmlns="http://www.w3.org/2000/svg" xmlns:ev="http://www.w3.org/2001/xml-events" xmlns:xlink="http://www.w3.org/1999/xlink"><defs /><polyline fill="none" points="45.9932,98.061 37.7492,108.0407 32.1085,118.4542 55.1051,119.322 59.878,116.2847 61.1797,105.0034 55.539,96.7593 52.9356,96.3254" stroke="#00007f" stroke-width="2" /><polyline fill="none" points="46.4271,99.7966 45.1254,88.9492 42.0881,82.8746 32.5424,78.5356 22.5627,76.3661 18.6576,73.7627 16.0542,60.7458 16.922,59.0102" stroke="#0000de" stroke-width="2" /><polyline fill="none" points="42.0881,80.7051 46.4271,79.4034 49.4644,74.1966 49.4644,60.3119 43.3898,78.5356 42.9559,84.1763 49.0305,85.9119 62.0475,85.478 78.5356,82.0068 85.9119,78.1017 86.3458,53.8034 81.5729,54.2373" stroke="#0028ff" stroke-width="2" /><polyline fill="none" points="56.4068,94.5898 49.8983,85.478" stroke="#0080ff" stroke-width="2" /><polyline fill="none" points="16.0542,60.3119 9.9797,59.0102 8.678,56.8407 10.8475,55.539 27.3356,55.539 26.0339,57.7085 14.7525,61.6136" stroke="#00d4ff" stroke-width="2" /><polyline fill="none" points="42.0881,59.0102 44.6915,56.8407 59.878,57.2746 56.4068,59.4441 44.2576,60.7458" stroke="#36ffc0" stroke-width="2" /><polyline fill="none" points="74.1966,55.1051 73.3288,52.5017 75.9322,49.0305 85.478,47.7288 88.5153,49.8983 88.9492,54.6712 85.9119,56.4068 79.8373,56.4068" stroke="#7cff79" stroke-width="2" /><polyline fill="none" points="18.6576,59.4441 16.922,56.4068 16.922,29.5051 17.7898,26.4678 19.9593,25.1661 22.5627,25.1661 25.1661,28.6373 25.6,52.0678 27.7695,55.1051" stroke="#c0ff36" stroke-width="2" /><polyline fill="none" points="51.2,55.1051 49.8983,51.2 50.7661,33.4102 55.539,26.9017 58.1424,28.6373 60.3119,38.1831 59.4441,65.0847" stroke="#ffe500" stroke-width="2" /><polyline fill="none" points="78.5356,51.6339 78.9695,25.6 79.8373,23.8644 84.1763,22.1288 87.2136,27.3356 88.0814,31.6746 88.9492,53.8034" stroke="#ff9400" stroke-width="2" /><polyline fill="none" points="22.9966,35.1458 20.8271,29.5051 24.2983,18.2237" stroke="#ff4600" stroke-width="2" /><polyline fill="none" points="55.1051,30.8068 58.1424,18.6576" stroke="#de0000" stroke-width="2" /><polyline fill="none" points="82.0068,24.2983 83.7424,12.5831 86.7797,8.678" stroke="#7f0000" stroke-width="2" /></svg>