<?xml version="1.0" encoding="utf-8" ?>
<svg baseProfile="tiny" height="128" version="1.2" viewBox="0,0,128,128" width="128" xmlns="http://www.w3.org/2000/svg" xmlns:ev="http://www.w3.org/2001/xml-events" xmlns:xlink="http://www.w3.org/1999/xlink"><defs /><polyline fill="none" points="20.3932,8.678 22.1288,23.8644 36.0136,67.2542" stroke="#00007f" stroke-width="2" /><polyline fill="none" points="8.678,76.3661 30.3729,64.2169 55.1051,56.8407 65.0847,56.8407 69.4237,59.878 75.0644,68.122" stroke="#0028ff" stroke-width="2" /><polyline fill="none" points="11.7153,78.9695 11.7153,78.9695" stroke="#00d4ff" stroke-width="2" /><polyline fill="none" points="10.4136,73.7627 16.0542,89.8169 36.8814,85.478 59.878,84.6102 69.8576,82.8746 71.1593,81.139 72.461,75.4983 70.2915,66.3864" stroke="#7cff79" stroke-width="2" /><polyline fill="none" points="17.3559,87.6475 24.7322,103.2678 27.3356,103.2678 45.9932,95.4576 62.0475,93.722 65.5186,89.3831 65.5186,82.0068" stroke="#ffe500" stroke-width="2" /><polyline fill="none" points="23.4305,99.3627 32.9763,107.1729 36.8814,114.9831 40.3525,115.4169 49.8983,110.2102 54.2373,105.4373 55.9729,92.4203" stroke="#ff4600" stroke-width="2" /><polyline fill="none" points="40.3525,113.6814 43.3898,119.322 55.9729,116.7186 55.9729,113.6814 52.9356,107.6068" stroke="#7f0000" stroke-width="2" /></svg>