<?xml version="1.0" encoding="utf-8" ?>
<svg baseProfile="tiny" height="128" version="1.2" viewBox="0,0,128,128" width="128" xmlns="http://www.w3.org/2000/svg" xmlns:ev="http://www.w3.org/2001/xml-events" xmlns:xlink="http://www.w3.org/1999/xlink"><defs /><polyline fill="none" points="68.122,11.2814 62.0475,8.678 58.5763,12.5831 60.7458,14.7525 68.122,14.7525 70.7254,11.7153 68.122,9.5458" stroke="#00007f" stroke-width="2" /><polyline fill="none" points="62.9153,13.0169 58.1424,35.1458 57.2746,48.5966 55.1051,61.1797 54.2373,59.878 51.6339,59.878 47.2949,65.5186 49.8983,73.7627 49.0305,93.2881 53.8034,94.5898 59.4441,90.2508 57.7085,75.9322 60.7458,67.2542 60.3119,60.7458" stroke="#004cff" stroke-width="2" /><polyline fill="none" points="46.861,65.5186 41.6542,65.5186 36.8814,72.461 32.5424,75.0644 29.0712,75.9322 25.1661,74.6305 22.5627,70.2915 22.1288,62.4814 24.2983,52.9356 29.5051,49.8983 30.3729,42.522 29.5051,36.4475 26.9017,39.9186 25.1661,52.0678" stroke="#29ffcd" stroke-width="2" /><polyline fill="none" points="46.861,78.5356 44.6915,82.4407 37.7492,85.478 24.7322,84.1763 14.7525,81.139 12.5831,77.6678 9.5458,59.4441 10.8475,49.4644 13.8847,45.5593 14.7525,40.7864 8.678,51.2" stroke="#cdff29" stroke-width="2" /><polyline fill="none" points="61.1797,66.8203 66.8203,69.8576 73.3288,71.1593 80.2712,65.9525 89.3831,51.6339 91.1186,39.9186 91.9864,39.4847 93.2881,41.6542 93.722,45.1254 87.6475,53.3695" stroke="#ff6700" stroke-width="2" /><polyline fill="none" points="59.878,80.7051 64.6508,85.478 88.0814,90.2508 102.8339,83.3085 106.739,79.4034 110.2102,72.461 119.322,66.8203 118.8881,65.0847 115.4169,64.6508 105.0034,68.5559 102.8339,71.5932" stroke="#7f0000" stroke-width="2" /></svg>