<?xml version="1.0" encoding="utf-8" ?>
<svg baseProfile="tiny" height="128" version="1.2" viewBox="0,0,128,128" width="128" xmlns="http://www.w3.org/2000/svg" xmlns:ev="http://www.w3.org/2001/xml-events" xmlns:xlink="http://www.w3.org/1999/xlink"><defs /><polyline fill="none" points="59.6463,8.7075 63.1293,23.0748 61.8231,38.3129 62.6939,52.6803 36.5714,50.9388 29.6054,48.3265 8.7075,51.3741 10.0136,55.2925 9.5782,70.0952 13.4966,71.8367 31.3469,71.8367 67.0476,64.4354 96.6531,67.9184 113.6327,67.0476 118.8571,66.1769 119.2925,64.4354 115.3741,60.517 111.4558,51.3741 107.5374,47.8912 98.8299,44.8435 85.7687,43.102 72.2721,46.585 63.1293,51.8095" stroke="#00007f" stroke-width="2" /><polyline fill="none" points="17.415,75.3197 19.1565,86.2041" stroke="#004cff" stroke-width="2" /><polyline fill="none" points="33.5238,70.966 34.3946,77.932 35.7007,79.6735" stroke="#29ffcd" stroke-width="2" /><polyline fill="none" points="50.9388,67.9184 50.068,73.5782 51.3741,77.0612" stroke="#cdff29" stroke-width="2" /><polyline fill="none" points="70.0952,64.8707 70.5306,75.3197" stroke="#ff6700" stroke-width="2" /><polyline fill="none" points="87.5102,69.2245 88.8163,76.6259" stroke="#7f0000" stroke-width="2" /></svg>