<?xml version="1.0" encoding="utf-8" ?>
<svg baseProfile="tiny" height="128" version="1.2" viewBox="0,0,128,128" width="128" xmlns="http://www.w3.org/2000/svg" xmlns:ev="http://www.w3.org/2001/xml-events" xmlns:xlink="http://www.w3.org/1999/xlink"><defs /><polyline fill="none" points="14.3186,71.1593 14.3186,58.5763 17.7898,46.861 22.1288,41.6542 27.3356,41.2203 36.0136,45.5593 37.3153,47.2949 37.7492,72.0271 38.6169,75.4983" stroke="#00007f" stroke-width="2" /><polyline fill="none" points="37.7492,49.8983 45.9932,41.6542 49.0305,41.6542 50.3322,42.9559 54.2373,55.9729 53.8034,72.461 55.1051,71.5932" stroke="#0000de" stroke-width="2" /><polyline fill="none" points="51.2,45.1254 54.6712,42.0881 59.0102,41.2203 62.9153,42.522 67.6881,47.2949 71.5932,55.539 70.2915,72.0271" stroke="#0028ff" stroke-width="2" /><polyline fill="none" points="33.8441,42.0881 44.2576,38.1831 45.9932,36.0136 45.1254,28.6373 46.861,8.678" stroke="#0080ff" stroke-width="2" /><polyline fill="none" points="12.1492,71.5932 12.5831,78.5356 17.3559,78.9695 19.0915,77.2339 19.5254,73.3288 17.3559,70.2915" stroke="#00d4ff" stroke-width="2" /><polyline fill="none" points="38.1831,77.2339 37.3153,80.7051 38.1831,83.3085 41.6542,82.0068 42.522,79.8373 39.4847,78.1017" stroke="#36ffc0" stroke-width="2" /><polyline fill="none" points="52.9356,72.0271 53.3695,77.6678 55.1051,78.5356 55.539,74.6305" stroke="#7cff79" stroke-width="2" /><polyline fill="none" points="68.5559,75.4983 69.8576,76.3661 71.1593,75.0644 68.122,69.8576 61.6136,71.1593" stroke="#c0ff36" stroke-width="2" /><polyline fill="none" points="20.3932,87.6475 16.0542,90.2508 8.678,100.6644" stroke="#ffe500" stroke-width="2" /><polyline fill="none" points="21.261,89.3831 26.4678,106.739 32.9763,115.8508" stroke="#ff9400" stroke-width="2" /><polyline fill="none" points="45.1254,98.061 42.522,116.2847" stroke="#ff4600" stroke-width="2" /><polyline fill="none" points="56.8407,93.2881 60.7458,118.4542" stroke="#de0000" stroke-width="2" /><polyline fill="none" points="72.0271,95.4576 78.5356,114.1153 82.0068,119.322" stroke="#7f0000" stroke-width="2" /></svg>