<?xml version="1.0" encoding="utf-8" ?>
<svg baseProfile="tiny" height="128" version="1.2" viewBox="0,0,128,128" width="128" xmlns="http://www.w3.org/2000/svg" xmlns:ev="http://www.w3.org/2001/xml-events" xmlns:xlink="http://www.w3.org/1999/xlink"><defs /><polyline fill="none" points="35.1458,78.9695 38.1831,84.6102 43.3898,102.8339 50.7661,119.322" stroke="#00007f" stroke-width="2" /><polyline fill="none" points="35.1458,82.4407 34.7119,88.5153" stroke="#0028ff" stroke-width="2" /><polyline fill="none" points="51.2,109.7763 45.9932,114.5492 36.0136,118.0203 22.9966,118.4542 16.4881,116.2847 12.5831,111.9458 10.4136,106.739 9.9797,94.5898 10.8475,91.5525 30.3729,89.3831 32.1085,91.9864 32.9763,98.4949" stroke="#00d4ff" stroke-width="2" /><polyline fill="none" points="37.7492,80.7051 36.0136,72.461 33.4102,71.1593 26.0339,77.2339 18.6576,78.1017 16.4881,76.3661 15.1864,49.4644 33.8441,45.1254 41.2203,45.1254 41.6542,64.6508 42.522,68.5559 46.4271,72.8949 34.7119,72.8949" stroke="#7cff79" stroke-width="2" /><polyline fill="none" points="13.0169,42.522 12.5831,31.6746 18.2237,12.1492 20.8271,8.678 23.8644,25.6 29.939,13.4508 31.2407,29.939 36.0136,28.6373 42.9559,11.2814 44.2576,13.8847 45.5593,41.2203" stroke="#ffe500" stroke-width="2" /><polyline fill="none" points="8.678,35.1458 12.1492,39.4847 15.1864,49.0305" stroke="#ff4600" stroke-width="2" /><polyline fill="none" points="42.0881,38.6169 39.9186,40.7864 39.9186,47.2949" stroke="#7f0000" stroke-width="2" /></svg>