<?xml version="1.0" encoding="utf-8" ?>
<svg baseProfile="tiny" height="128" version="1.2" viewBox="0,0,128,128" width="128" xmlns="http://www.w3.org/2000/svg" xmlns:ev="http://www.w3.org/2001/xml-events" xmlns:xlink="http://www.w3.org/1999/xlink"><defs /><polyline fill="none" points="46.4271,8.678 42.522,34.278 42.522,54.6712" stroke="#00007f" stroke-width="2" /><polyline fill="none" points="41.6542,53.8034 36.4475,62.9153 15.6203,81.139 10.4136,90.2508 8.678,96.3254 9.1119,100.2305 49.0305,109.7763 74.1966,113.2475 90.6847,113.6814 94.1559,111.078 97.1932,105.8712 100.2305,86.3458 99.7966,80.2712 97.6271,77.2339 73.3288,72.0271 62.4814,65.9525 49.8983,55.9729 46.861,46.861 45.1254,34.278 46.4271,9.5458" stroke="#0000fe" stroke-width="2" /><polyline fill="none" points="24.2983,72.461 32.1085,77.6678 47.2949,82.4407 104.5695,81.5729" stroke="#0060ff" stroke-width="2" /><polyline fill="none" points="14.3186,88.0814 13.8847,93.2881 17.3559,95.0237 44.6915,102.8339 72.8949,106.739 90.6847,107.1729 103.2678,103.7017 104.5695,102.4" stroke="#00d4ff" stroke-width="2" /><polyline fill="none" points="60.3119,108.4746 58.1424,119.322" stroke="#4cffaa" stroke-width="2" /><polyline fill="none" points="29.939,103.7017 27.7695,108.0407" stroke="#aaff4c" stroke-width="2" /><polyline fill="none" points="16.922,101.9661 15.1864,103.2678" stroke="#ffe500" stroke-width="2" /><polyline fill="none" points="66.3864,110.2102 66.3864,114.9831" stroke="#ff7a00" stroke-width="2" /><polyline fill="none" points="39.4847,107.1729 39.0508,114.9831" stroke="#fe1200" stroke-width="2" /><polyline fill="none" points="52.9356,109.3424 52.0678,112.8136" stroke="#7f0000" stroke-width="2" /></svg>