<?xml version="1.0" encoding="utf-8" ?>
<svg baseProfile="tiny" height="128" version="1.2" viewBox="0,0,128,128" width="128" xmlns="http://www.w3.org/2000/svg" xmlns:ev="http://www.w3.org/2001/xml-events" xmlns:xlink="http://www.w3.org/1999/xlink"><defs /><polyline fill="none" points="10.8475,16.0542 11.7153,29.5051 13.8847,39.0508 22.1288,54.2373 31.6746,61.1797 37.3153,63.7831 48.5966,65.0847 71.5932,57.7085 78.5356,52.5017 83.7424,40.7864 88.5153,13.0169" stroke="#00007f" stroke-width="2" /><polyline fill="none" points="40.3525,19.0915 39.0508,55.1051" stroke="#0000ff" stroke-width="2" /><polyline fill="none" points="64.6508,19.0915 64.6508,47.7288 63.3492,59.4441" stroke="#0080ff" stroke-width="2" /><polyline fill="none" points="51.2,65.0847 48.1627,116.2847" stroke="#15ffe1" stroke-width="2" /><polyline fill="none" points="34.7119,114.9831 85.0441,119.322" stroke="#7cff79" stroke-width="2" /><polyline fill="none" points="11.2814,16.0542 9.5458,15.1864 8.678,11.7153 12.1492,9.9797 12.1492,16.0542" stroke="#e4ff12" stroke-width="2" /><polyline fill="none" points="41.2203,17.7898 39.4847,16.4881 39.0508,14.7525 42.522,12.1492 43.3898,14.3186 41.2203,19.0915" stroke="#ff9400" stroke-width="2" /><polyline fill="none" points="65.0847,19.0915 63.7831,13.4508 66.3864,10.8475 65.9525,16.922" stroke="#ff1d00" stroke-width="2" /><polyline fill="none" points="88.0814,13.4508 87.6475,9.9797 89.3831,8.678 90.6847,10.8475 89.8169,13.8847" stroke="#7f0000" stroke-width="2" /></svg>