<?xml version="1.0" encoding="utf-8" ?>
<svg baseProfile="tiny" height="128" version="1.2" viewBox="0,0,128,128" width="128" xmlns="http://www.w3.org/2000/svg" xmlns:ev="http://www.w3.org/2001/xml-events" xmlns:xlink="http://www.w3.org/1999/xlink"><defs /><polyline fill="none" points="45.9932,8.678 45.1254,40.3525 46.861,55.1051 45.1254,53.8034 41.6542,53.8034 32.9763,56.4068 23.8644,61.6136 19.5254,66.8203 16.922,74.1966 10.8475,112.3797" stroke="#00007f" stroke-width="2" /><polyline fill="none" points="44.6915,54.2373 47.7288,52.9356 55.9729,53.3695 65.5186,56.4068 73.7627,61.6136 78.5356,66.8203 80.7051,72.8949 82.0068,84.6102 81.5729,112.8136" stroke="#0000fe" stroke-width="2" /><polyline fill="none" points="45.9932,53.8034 39.0508,61.1797 33.4102,72.8949 31.6746,80.7051 31.2407,95.8915" stroke="#0060ff" stroke-width="2" /><polyline fill="none" points="45.9932,53.3695 54.2373,55.1051 58.1424,57.7085 62.4814,62.9153 66.3864,77.2339 65.5186,91.5525" stroke="#00d4ff" stroke-width="2" /><polyline fill="none" points="44.2576,52.9356 46.861,97.6271" stroke="#4cffaa" stroke-width="2" /><polyline fill="none" points="12.1492,110.6441 10.4136,111.9458 12.5831,113.6814 14.7525,114.1153 16.0542,112.8136 11.7153,110.6441 11.7153,112.3797 15.1864,112.3797 13.0169,111.078 10.4136,112.3797 9.1119,117.5864 10.8475,118.0203 12.5831,111.9458 9.9797,111.5119 9.1119,112.8136 8.678,115.4169 10.8475,118.8881 12.1492,119.322 13.8847,118.4542 13.0169,111.9458 11.7153,112.8136" stroke="#aaff4c" stroke-width="2" /><polyline fill="none" points="30.8068,95.0237 29.5051,95.4576 30.8068,98.061 33.8441,98.9288 34.7119,97.1932 32.9763,93.722 31.6746,97.1932 33.4102,94.1559 32.1085,94.1559 32.1085,98.9288 36.4475,97.1932 37.7492,93.2881 35.5797,90.2508 34.278,91.5525" stroke="#ffe500" stroke-width="2" /><polyline fill="none" points="51.6339,90.6847 49.0305,94.1559 48.1627,98.9288 49.8983,94.5898 47.2949,94.1559 46.861,100.2305 49.4644,97.1932 47.7288,95.8915 45.5593,98.9288 46.4271,100.2305" stroke="#ff7a00" stroke-width="2" /><polyline fill="none" points="65.9525,91.5525 62.0475,95.8915 64.2169,96.7593 65.0847,95.4576 63.7831,93.2881 61.1797,93.722 56.8407,99.3627 59.878,101.9661 62.0475,100.6644 64.2169,95.8915 61.6136,96.7593" stroke="#fe1200" stroke-width="2" /><polyline fill="none" points="81.5729,113.6814 79.4034,114.1153 77.6678,118.0203 81.139,116.2847" stroke="#7f0000" stroke-width="2" /></svg>