<?xml version="1.0" encoding="utf-8" ?>
<svg baseProfile="tiny" height="128" version="1.2" viewBox="0,0,128,128" width="128" xmlns="http://www.w3.org/2000/svg" xmlns:ev="http://www.w3.org/2001/xml-events" xmlns:xlink="http://www.w3.org/1999/xlink"><defs /><polyline fill="none" points="38.6169,8.678 36.4475,48.5966 25.1661,49.8983 22.5627,52.0678 10.8475,84.6102 9.1119,92.4203" stroke="#00007f" stroke-width="2" /><polyline fill="none" points="39.9186,52.9356 69.8576,52.9356 73.7627,58.1424 75.9322,68.122 76.3661,78.5356 73.7627,83.3085" stroke="#0000f1" stroke-width="2" /><polyline fill="none" points="14.3186,90.6847 16.4881,105.8712" stroke="#004cff" stroke-width="2" /><polyline fill="none" points="26.9017,81.139 26.9017,78.1017 28.6373,83.3085 32.1085,101.0983" stroke="#00b0ff" stroke-width="2" /><polyline fill="none" points="47.7288,76.3661 53.3695,101.0983" stroke="#29ffcd" stroke-width="2" /><polyline fill="none" points="61.1797,86.7797 61.1797,77.6678 63.7831,93.2881" stroke="#7cff79" stroke-width="2" /><polyline fill="none" points="73.7627,83.7424 77.2339,101.0983 77.2339,108.9085 72.0271,109.7763 69.8576,108.0407 61.6136,88.9492 60.7458,89.3831" stroke="#cdff29" stroke-width="2" /><polyline fill="none" points="52.9356,88.0814 52.0678,96.3254 55.539,113.2475 52.5017,101.9661 52.0678,95.8915 63.3492,100.6644 68.9898,101.9661 69.4237,94.1559" stroke="#ffc400" stroke-width="2" /><polyline fill="none" points="25.1661,89.8169 28.2034,97.6271 35.1458,108.9085 40.7864,113.6814 46.861,96.7593 49.8983,93.2881 51.6339,95.8915" stroke="#ff6700" stroke-width="2" /><polyline fill="none" points="10.8475,98.4949 11.7153,103.7017 15.1864,111.5119 19.5254,118.8881 22.5627,119.322 26.4678,116.7186 29.0712,112.8136 32.5424,102.4 36.0136,96.3254 39.0508,96.3254 41.6542,98.9288" stroke="#f10700" stroke-width="2" /><polyline fill="none" points="8.678,82.4407 20.8271,101.5322 26.0339,105.4373" stroke="#7f0000" stroke-width="2" /></svg>