<?xml version="1.0" encoding="utf-8" ?>
<svg baseProfile="tiny" height="128" version="1.2" viewBox="0,0,128,128" width="128" xmlns="http://www.w3.org/2000/svg" xmlns:ev="http://www.w3.org/2001/xml-events" xmlns:xlink="http://www.w3.org/1999/xlink"><defs /><polyline fill="none" points="47.4558,8.7075 47.4558,45.2789 46.1497,45.2789" stroke="#00007f" stroke-width="2" /><polyline fill="none" points="46.1497,45.2789 33.5238,61.8231 23.0748,71.8367 18.2857,74.0136 10.449,74.8844 8.7075,68.3537" stroke="#004cff" stroke-width="2" /><polyline fill="none" points="47.4558,43.5374 51.8095,49.6327 58.3401,54.8571 67.9184,58.3401 98.8299,59.6463 111.0204,50.9388" stroke="#29ffcd" stroke-width="2" /><polyline fill="none" points="47.4558,48.7619 47.4558,62.2585 46.1497,68.3537 43.5374,74.8844 40.0544,77.0612" stroke="#cdff29" stroke-width="2" /><polyline fill="none" points="49.1973,52.6803 49.1973,55.7279 57.4694,64.0 70.5306,67.9184" stroke="#ff6700" stroke-width="2" /><polyline fill="none" points="111.8912,49.6327 111.8912,42.2313 113.6327,38.7483 117.9864,37.8776 119.2925,40.9252 115.8095,45.2789 107.9728,51.8095" stroke="#7f0000" stroke-width="2" /></svg>