<?xml version="1.0" encoding="utf-8" ?>
<svg baseProfile="tiny" height="128" version="1.2" viewBox="0,0,128,128" width="128" xmlns="http://www.w3.org/2000/svg" xmlns:ev="http://www.w3.org/2001/xml-events" xmlns:xlink="http://www.w3.org/1999/xlink"><defs /><polyline fill="none" points="8.678,8.678 42.9559,10.4136 75.0644,15.1864 119.322,16.4881" stroke="#00007f" stroke-width="2" /><polyline fill="none" points="55.9729,12.1492 57.7085,13.8847 59.4441,13.0169" stroke="#0000b6" stroke-width="2" /><polyline fill="none" points="57.7085,13.8847 57.2746,18.2237 54.6712,19.5254 52.5017,18.2237" stroke="#0000ec" stroke-width="2" /><polyline fill="none" points="57.7085,17.7898 62.9153,18.6576 65.9525,16.4881" stroke="#0010ff" stroke-width="2" /><polyline fill="none" points="57.7085,18.2237 58.1424,18.6576" stroke="#0040ff" stroke-width="2" /><polyline fill="none" points="59.0102,18.6576 59.0102,18.6576" stroke="#0070ff" stroke-width="2" /><polyline fill="none" points="61.1797,19.0915 60.7458,18.6576" stroke="#00a4ff" stroke-width="2" /><polyline fill="none" points="60.7458,18.6576 61.1797,19.5254" stroke="#00d4ff" stroke-width="2" /><polyline fill="none" points="61.1797,19.5254 61.6136,19.5254" stroke="#18ffdd" stroke-width="2" /><polyline fill="none" points="62.0475,19.0915 62.0475,19.0915" stroke="#3fffb7" stroke-width="2" /><polyline fill="none" points="62.9153,19.0915 63.3492,19.0915" stroke="#66ff90" stroke-width="2" /><polyline fill="none" points="63.7831,18.6576 64.2169,18.6576" stroke="#90ff66" stroke-width="2" /><polyline fill="none" points="64.6508,18.6576 65.0847,18.2237" stroke="#b7ff3f" stroke-width="2" /><polyline fill="none" points="65.0847,18.2237 65.0847,17.7898" stroke="#ddff18" stroke-width="2" /><polyline fill="none" points="55.539,18.6576 53.3695,19.9593" stroke="#ffe500" stroke-width="2" /><polyline fill="none" points="54.2373,19.5254 52.9356,19.5254" stroke="#ffb900" stroke-width="2" /><polyline fill="none" points="53.3695,19.0915 53.3695,19.0915" stroke="#ff8900" stroke-width="2" /><polyline fill="none" points="52.9356,18.6576 53.3695,18.6576" stroke="#ff5c00" stroke-width="2" /><polyline fill="none" points="52.5017,18.6576 52.5017,18.6576" stroke="#ff3000" stroke-width="2" /><polyline fill="none" points="52.9356,19.0915 54.6712,19.5254" stroke="#ec0300" stroke-width="2" /><polyline fill="none" points="55.1051,19.5254 56.4068,19.5254" stroke="#b60000" stroke-width="2" /><polyline fill="none" points="56.4068,19.5254 56.4068,19.5254" stroke="#7f0000" stroke-width="2" /></svg>