<?xml version="1.0" encoding="utf-8" ?>
<svg baseProfile="tiny" height="128" version="1.2" viewBox="0,0,128,128" width="128" xmlns="http://www.w3.org/2000/svg" xmlns:ev="http://www.w3.org/2001/xml-events" xmlns:xlink="http://www.w3.org/1999/xlink"><defs /><polyline fill="none" points="56.3549,63.7816 42.3754,65.0922 37.1331,86.4983 53.2969,62.471 56.7918,37.1331 47.6177,51.5495 47.6177,53.7338 53.7338,51.9863 54.6075,49.802 53.7338,18.785 52.4232,17.9113 31.8908,27.959 30.5802,31.0171 38.8805,65.529 41.9386,66.4027 97.4198,44.9966 101.3515,41.0648 115.7679,11.3584 96.1092,45.8703 95.6724,49.3652 115.3311,67.7133 116.6416,65.0922 119.2628,32.3276 97.4198,52.4232 89.5563,65.0922 103.099,60.2867 104.8464,55.9181 97.8567,12.6689 95.6724,12.6689 82.1297,56.7918 83.4403,59.413 96.5461,40.1911 97.8567,35.8225 96.1092,9.6109 94.7986,11.3584 87.8089,51.1126 97.4198,20.5324 94.7986,14.4164 68.587,56.3549 72.5188,13.5427 71.2082,11.7952 38.0068,33.2014 36.2594,37.1331 44.1229,38.0068 53.7338,8.7372 35.3857,56.7918 50.6758,33.6382 52.4232,23.5904 40.628,67.2765 57.6655,29.2696 51.9863,43.686 49.3652,72.5188 59.8498,44.1229 51.5495,79.0717 62.0341,55.9181 65.9659,40.1911 57.6655,65.9659 62.9078,33.2014 56.3549,44.5597 52.8601,56.3549 62.9078,24.901 51.5495,63.3447 61.1604,34.0751 50.2389,69.0239 58.1024,44.5597 52.8601,62.0341 56.3549,43.686 52.8601,65.9659 57.2287,42.3754 48.0546,67.2765 52.8601,45.4334 48.4915,48.4915 38.4437,71.6451 38.4437,31.0171 24.901,62.0341 23.5904,56.7918 24.0273,31.0171 24.901,64.6553 30.5802,41.9386 27.959,30.5802 11.3584,55.4812 32.7645,48.0546 31.4539,19.2218 11.3584,35.3857 8.7372,38.8805 10.4846,57.2287 12.6689,55.9181 27.5222,30.1433 11.7952,48.4915 25.7747,45.4334 26.6485,42.8123 25.7747,24.901 8.7372,50.2389 29.2696,34.9488 29.2696,32.3276 18.785,23.5904 17.9113,24.901 20.0956,47.6177 31.0171,26.2116 21.4061,37.57 40.1911,48.9283 42.8123,47.1809 43.686,27.5222 46.744,36.2594 48.0546,34.5119 45.8703,31.0171 38.4437,46.744 48.4915,23.1536 34.5119,23.5904 25.3379,28.8328 36.6962,26.6485 38.8805,21.4061 34.0751,39.3174 50.2389,25.7747 46.3072,23.1536 19.6587,28.3959 28.8328,26.6485 28.8328,24.4642" stroke="#00007f" stroke-width="2" /></svg>