<?xml version="1.0" encoding="utf-8" ?>
<svg baseProfile="tiny" height="128" version="1.2" viewBox="0,0,128,128" width="128" xmlns="http://www.w3.org/2000/svg" xmlns:ev="http://www.w3.org/2001/xml-events" xmlns:xlink="http://www.w3.org/1999/xlink"><defs /><polyline fill="none" points="21.261,78.1017 20.8271,67.6881 22.1288,62.4814 24.7322,55.9729 28.6373,52.9356 36.4475,52.9356 44.6915,58.1424 47.7288,63.3492 48.1627,72.461 43.3898,79.4034 40.3525,82.0068 37.3153,82.4407 24.7322,81.139 17.3559,75.0644 9.1119,64.6508 8.678,55.1051 11.2814,51.2 24.2983,46.861" stroke="#00007f" stroke-width="2" /><polyline fill="none" points="62.4814,95.8915 62.4814,95.8915" stroke="#0080ff" stroke-width="2" /><polyline fill="none" points="84.6102,65.9525 84.6102,61.6136 91.5525,52.5017 101.5322,42.9559 108.9085,41.2203 112.8136,42.522 116.7186,46.861 119.322,52.9356 119.322,59.4441 114.5492,68.122 98.4949,82.4407 93.722,82.8746 87.6475,82.4407 76.8,69.4237 75.4983,56.8407 82.8746,45.5593 95.0237,39.0508 102.4,39.0508" stroke="#7cff79" stroke-width="2" /><polyline fill="none" points="35.1458,77.6678 43.3898,113.2475 47.2949,116.7186 50.7661,117.5864 60.3119,117.5864 75.0644,113.6814 88.9492,104.1356 95.8915,94.5898 103.7017,73.3288 105.8712,72.0271" stroke="#ff9400" stroke-width="2" /><polyline fill="none" points="61.6136,119.322 64.2169,46.861 55.1051,18.6576 54.2373,8.678" stroke="#7f0000" stroke-width="2" /></svg>