<?xml version="1.0" encoding="utf-8" ?>
<svg baseProfile="tiny" height="128" version="1.2" viewBox="0,0,128,128" width="128" xmlns="http://www.w3.org/2000/svg" xmlns:ev="http://www.w3.org/2001/xml-events" xmlns:xlink="http://www.w3.org/1999/xlink"><defs /><polyline fill="none" points="60.7458,8.678 62.4814,13.4508 61.1797,42.9559 54.6712,65.5186 44.6915,80.2712 33.8441,87.2136 23.4305,87.2136 14.7525,78.9695 11.7153,73.3288 10.8475,66.8203" stroke="#00007f" stroke-width="2" /><polyline fill="none" points="63.7831,16.4881 64.6508,28.2034 62.4814,51.6339 62.0475,68.9898 63.7831,78.5356 67.6881,86.7797 73.7627,91.1186 82.0068,93.2881 87.2136,92.8542 96.7593,90.2508 107.6068,82.0068 110.6441,75.9322 111.9458,68.5559" stroke="#00d4ff" stroke-width="2" /><polyline fill="none" points="117.5864,62.4814 114.1153,61.6136 113.2475,67.6881 114.9831,70.2915 118.0203,70.7254 118.8881,62.0475 118.0203,60.3119 114.9831,59.4441 113.2475,60.3119 111.5119,65.5186 111.5119,67.6881 113.6814,69.4237 117.5864,68.9898 119.322,64.2169 115.4169,62.4814 111.078,63.3492 111.078,71.5932 114.1153,72.8949" stroke="#ffe500" stroke-width="2" /><polyline fill="none" points="18.2237,59.0102 15.6203,61.1797 15.6203,71.1593 17.3559,70.7254 19.0915,61.1797 17.3559,59.0102 12.5831,61.1797 8.678,67.6881 8.678,69.4237 11.7153,70.2915 16.0542,68.5559 18.6576,62.9153 18.2237,58.1424 16.0542,59.0102 15.6203,62.0475 16.4881,70.7254" stroke="#7f0000" stroke-width="2" /></svg>