<?xml version="1.0" encoding="utf-8" ?>
<svg baseProfile="tiny" height="128" version="1.2" viewBox="0,0,128,128" width="128" xmlns="http://www.w3.org/2000/svg" xmlns:ev="http://www.w3.org/2001/xml-events" xmlns:xlink="http://www.w3.org/1999/xlink"><defs /><polyline fill="none" points="53.3695,8.678 54.2373,31.2407 52.0678,41.2203 51.2,59.0102" stroke="#00007f" stroke-width="2" /><polyline fill="none" points="59.0102,9.9797 56.4068,19.0915 55.539,46.4271 53.3695,59.878 55.1051,58.1424 60.7458,60.7458 68.5559,65.5186 81.5729,76.3661 83.7424,80.2712 85.478,94.5898 80.2712,111.5119 85.478,115.8508 84.1763,115.8508 78.9695,111.5119 75.9322,107.1729 74.1966,101.9661 74.1966,90.2508 72.8949,89.8169 70.7254,93.722 70.7254,110.6441 57.2746,112.8136 55.1051,103.2678 55.1051,96.3254 54.2373,93.722 52.9356,93.722 47.7288,102.8339 42.522,116.2847 39.4847,119.322 34.278,115.4169 29.5051,104.1356 27.3356,98.061 28.6373,87.6475 11.2814,101.9661 8.678,93.2881 8.678,86.7797 10.4136,82.0068 13.8847,78.1017 38.1831,73.7627 42.522,69.4237 46.4271,59.878 55.9729,57.2746" stroke="#7f0000" stroke-width="2" /></svg>