<?xml version="1.0" encoding="utf-8" ?>
<svg baseProfile="tiny" height="128" version="1.2" viewBox="0,0,128,128" width="128" xmlns="http://www.w3.org/2000/svg" xmlns:ev="http://www.w3.org/2001/xml-events" xmlns:xlink="http://www.w3.org/1999/xlink"><defs /><polyline fill="none" points="51.2,8.678 53.3695,37.7492" stroke="#00007f" stroke-width="2" /><polyline fill="none" points="67.6881,9.9797 65.9525,35.5797" stroke="#0028ff" stroke-width="2" /><polyline fill="none" points="50.7661,36.0136 81.139,36.8814 95.0237,34.7119" stroke="#00d4ff" stroke-width="2" /><polyline fill="none" points="52.0678,35.1458 42.522,34.7119 26.9017,31.2407 9.5458,30.3729 8.678,31.6746 11.2814,55.1051 66.3864,52.9356 114.9831,56.8407 119.322,30.8068 88.5153,35.1458" stroke="#7cff79" stroke-width="2" /><polyline fill="none" points="16.922,57.7085 16.4881,55.539 17.7898,57.2746 19.9593,72.8949 22.9966,73.7627 74.6305,70.2915 99.3627,71.5932 102.8339,65.9525 104.1356,58.1424" stroke="#ffe500" stroke-width="2" /><polyline fill="none" points="31.2407,75.0644 32.1085,88.9492 33.4102,90.2508 75.0644,87.2136 88.5153,88.5153 91.5525,76.8 91.5525,71.1593" stroke="#ff4600" stroke-width="2" /><polyline fill="none" points="42.9559,88.5153 44.6915,102.4 45.9932,103.2678 55.539,101.0983 65.5186,101.0983 79.8373,103.2678 80.2712,89.3831" stroke="#7f0000" stroke-width="2" /></svg>