<?xml version="1.0" encoding="utf-8" ?>
<svg baseProfile="tiny" height="128" version="1.2" viewBox="0,0,128,128" width="128" xmlns="http://www.w3.org/2000/svg" xmlns:ev="http://www.w3.org/2001/xml-events" xmlns:xlink="http://www.w3.org/1999/xlink"><defs /><polyline fill="none" points="69.6599,8.7075 67.483,15.6735 62.2585,41.3605 61.8231,56.5986" stroke="#00007f" stroke-width="2" /><polyline fill="none" points="92.2993,74.449 110.1497,77.4966" stroke="#0080ff" stroke-width="2" /><polyline fill="none" points="61.3878,55.2925 64.8707,80.1088 69.2245,80.9796 102.7483,80.1088" stroke="#7cff79" stroke-width="2" /><polyline fill="none" points="111.4558,81.8503 105.7959,76.1905 104.9252,69.6599 107.102,64.8707 114.5034,57.4694 116.2449,52.2449 119.2925,58.7755 118.4218,65.3061 112.7619,78.8027 106.2313,83.5918" stroke="#ff9400" stroke-width="2" /><polyline fill="none" points="67.483,80.9796 41.7959,83.1565 8.7075,82.7211 8.7075,75.7551 15.2381,64.8707 16.1088,58.3401 19.5918,62.6939 22.6395,70.0952 23.0748,80.1088 11.7551,83.5918" stroke="#7f0000" stroke-width="2" /></svg>