<?xml version="1.0" encoding="utf-8" ?>
<svg baseProfile="tiny" height="128" version="1.2" viewBox="0,0,128,128" width="128" xmlns="http://www.w3.org/2000/svg" xmlns:ev="http://www.w3.org/2001/xml-events" xmlns:xlink="http://www.w3.org/1999/xlink"><defs /><polyline fill="none" points="52.9356,9.1119 55.1051,29.939 39.9186,29.0712 29.0712,32.5424 19.5254,38.1831 11.2814,58.1424 8.678,72.8949 12.1492,78.1017 18.2237,78.9695 22.5627,68.122 24.7322,56.8407 25.1661,77.6678 28.2034,78.9695 29.5051,77.2339 32.5424,65.0847 33.8441,45.9932 34.7119,48.1627 35.1458,75.0644 37.3153,76.3661 41.6542,56.4068 51.6339,60.3119 56.4068,55.539 60.3119,38.1831 61.1797,27.7695 53.8034,26.0339" stroke="#00007f" stroke-width="2" /><polyline fill="none" points="53.8034,8.678 57.7085,35.5797 59.878,37.3153 64.2169,38.1831 80.2712,37.3153 90.2508,34.278 90.6847,55.539 85.478,65.9525 83.7424,66.3864 82.0068,65.5186 81.5729,63.3492 83.3085,58.1424 78.9695,59.0102 78.1017,53.3695 76.8,55.1051 75.4983,53.3695 71.1593,55.1051 69.4237,53.8034 65.0847,46.861 62.9153,38.1831 56.8407,28.6373 57.2746,26.9017" stroke="#7cff79" stroke-width="2" /><polyline fill="none" points="54.6712,20.3932 59.878,24.7322 82.0068,27.3356 112.3797,29.0712 119.322,31.2407" stroke="#7f0000" stroke-width="2" /></svg>