<?xml version="1.0" encoding="utf-8" ?>
<svg baseProfile="tiny" height="128" version="1.2" viewBox="0,0,128,128" width="128" xmlns="http://www.w3.org/2000/svg" xmlns:ev="http://www.w3.org/2001/xml-events" xmlns:xlink="http://www.w3.org/1999/xlink"><defs /><polyline fill="none" points="8.678,13.8847 47.7288,9.1119 85.9119,9.5458 119.322,13.4508" stroke="#00007f" stroke-width="2" /><polyline fill="none" points="60.3119,12.5831 58.1424,13.4508 56.8407,16.4881 56.4068,44.2576" stroke="#0000f1" stroke-width="2" /><polyline fill="none" points="55.9729,8.678 55.9729,20.8271" stroke="#004cff" stroke-width="2" /><polyline fill="none" points="54.6712,32.1085 49.0305,27.7695 41.6542,28.6373 32.9763,42.9559" stroke="#00b0ff" stroke-width="2" /><polyline fill="none" points="53.8034,32.5424 55.539,30.3729 65.9525,25.6 74.1966,24.7322 78.5356,26.4678 86.3458,35.1458" stroke="#29ffcd" stroke-width="2" /><polyline fill="none" points="88.5153,34.7119 78.9695,37.3153 77.2339,41.2203 82.4407,42.9559 88.0814,42.9559 91.1186,41.2203 89.8169,38.6169 84.6102,37.3153" stroke="#7cff79" stroke-width="2" /><polyline fill="none" points="33.4102,41.6542 28.2034,42.522 27.7695,48.1627 37.7492,47.7288 38.6169,46.4271 36.4475,42.9559" stroke="#cdff29" stroke-width="2" /><polyline fill="none" points="55.9729,41.2203 51.2,43.3898 49.4644,46.861 50.3322,49.0305 54.2373,51.6339 60.7458,50.3322 62.0475,47.7288 62.0475,43.3898 55.9729,42.522" stroke="#ffc400" stroke-width="2" /><polyline fill="none" points="52.5017,48.5966 45.9932,54.6712 42.0881,66.8203" stroke="#ff6700" stroke-width="2" /><polyline fill="none" points="62.0475,48.1627 75.4983,53.8034 75.9322,71.1593" stroke="#f10700" stroke-width="2" /><polyline fill="none" points="78.5356,66.8203 68.5559,68.9898 68.9898,74.6305 71.1593,78.1017 81.5729,76.3661 84.1763,73.3288 83.7424,70.2915 80.7051,68.122 75.9322,68.122" stroke="#7f0000" stroke-width="2" /></svg>