<?xml version="1.0" encoding="utf-8" ?>
<svg baseProfile="tiny" height="128" version="1.2" viewBox="0,0,128,128" width="128" xmlns="http://www.w3.org/2000/svg" xmlns:ev="http://www.w3.org/2001/xml-events" xmlns:xlink="http://www.w3.org/1999/xlink"><defs /><polyline fill="none" points="46.861,8.678 43.3898,52.5017 42.0881,64.2169 40.7864,64.6508" stroke="#00007f" stroke-width="2" /><polyline fill="none" points="45.1254,65.5186 53.8034,64.6508 60.7458,67.2542 66.8203,75.0644 71.1593,85.9119 74.6305,90.6847" stroke="#0000de" stroke-width="2" /><polyline fill="none" points="42.9559,61.6136 27.3356,77.2339 20.3932,86.3458 17.3559,88.0814" stroke="#0028ff" stroke-width="2" /><polyline fill="none" points="39.4847,63.7831 28.2034,69.8576 19.0915,78.1017 10.8475,93.2881 10.4136,101.0983" stroke="#0080ff" stroke-width="2" /><polyline fill="none" points="32.5424,71.1593 29.5051,87.2136" stroke="#00d4ff" stroke-width="2" /><polyline fill="none" points="9.5458,108.9085 8.678,119.322 11.2814,105.8712" stroke="#36ffc0" stroke-width="2" /><polyline fill="none" points="26.4678,101.9661 24.7322,104.1356 26.4678,115.4169 28.2034,114.9831 30.8068,103.2678 26.4678,101.5322" stroke="#7cff79" stroke-width="2" /><polyline fill="none" points="43.8237,100.2305 43.8237,108.4746 47.2949,105.4373 49.4644,100.6644 44.2576,100.2305" stroke="#c0ff36" stroke-width="2" /><polyline fill="none" points="58.5763,97.1932 60.7458,105.4373 63.3492,106.739 66.8203,103.7017 67.2542,101.5322 60.3119,99.7966 60.3119,98.4949" stroke="#ffe500" stroke-width="2" /><polyline fill="none" points="76.3661,96.7593 73.3288,98.061 72.461,99.7966 77.2339,101.0983 78.5356,95.4576 76.3661,92.4203 70.2915,90.6847" stroke="#ff9400" stroke-width="2" /><polyline fill="none" points="26.4678,104.5695 25.6,97.6271 28.2034,85.9119 35.1458,70.2915 39.9186,65.9525" stroke="#ff4600" stroke-width="2" /><polyline fill="none" points="49.8983,105.4373 48.1627,102.4 46.861,93.722 46.861,72.461 49.0305,63.3492 51.6339,60.7458 55.9729,59.4441" stroke="#de0000" stroke-width="2" /><polyline fill="none" points="73.3288,98.9288 55.9729,62.0475 49.8983,52.5017" stroke="#7f0000" stroke-width="2" /></svg>