<?xml version="1.0" encoding="utf-8" ?>
<svg baseProfile="tiny" height="128" version="1.2" viewBox="0,0,128,128" width="128" xmlns="http://www.w3.org/2000/svg" xmlns:ev="http://www.w3.org/2001/xml-events" xmlns:xlink="http://www.w3.org/1999/xlink"><defs /><polyline fill="none" points="44.2576,13.8847 42.9559,8.678 44.2576,11.2814 43.3898,25.6 38.1831,35.1458 27.3356,39.4847 19.5254,36.4475 15.6203,32.9763" stroke="#00007f" stroke-width="2" /><polyline fill="none" points="50.7661,28.2034 46.4271,45.9932 40.7864,54.2373 26.0339,64.2169 8.678,63.7831" stroke="#0000ba" stroke-width="2" /><polyline fill="none" points="59.0102,15.6203 55.1051,27.3356 55.9729,39.4847 65.5186,44.2576" stroke="#0000f5" stroke-width="2" /><polyline fill="none" points="54.2373,39.4847 54.2373,42.522 60.3119,58.5763 70.2915,67.2542 78.9695,69.4237" stroke="#0020ff" stroke-width="2" /><polyline fill="none" points="48.1627,51.2 39.9186,72.8949 34.7119,80.7051 22.1288,87.2136" stroke="#0054ff" stroke-width="2" /><polyline fill="none" points="57.7085,65.5186 60.7458,78.1017 68.122,89.8169 70.7254,91.5525 77.6678,92.8542" stroke="#008cff" stroke-width="2" /><polyline fill="none" points="51.2,67.6881 51.2,89.8169 49.0305,101.5322" stroke="#00c0ff" stroke-width="2" /><polyline fill="none" points="42.9559,108.4746 42.9559,108.4746" stroke="#0ff8e7" stroke-width="2" /><polyline fill="none" points="50.3322,102.8339 42.522,110.6441" stroke="#39ffbd" stroke-width="2" /><polyline fill="none" points="50.7661,114.9831 49.8983,119.322" stroke="#66ff90" stroke-width="2" /><polyline fill="none" points="57.7085,105.0034 59.0102,105.8712" stroke="#90ff66" stroke-width="2" /><polyline fill="none" points="59.878,103.7017 63.3492,105.8712" stroke="#bdff39" stroke-width="2" /><polyline fill="none" points="43.3898,98.9288 39.4847,100.6644" stroke="#e7ff0f" stroke-width="2" /><polyline fill="none" points="71.1593,68.5559 85.478,67.6881 90.2508,64.6508" stroke="#ffd300" stroke-width="2" /><polyline fill="none" points="66.8203,40.7864 73.3288,42.522 78.5356,38.6169" stroke="#ffa300" stroke-width="2" /><polyline fill="none" points="87.2136,27.3356 81.139,29.0712 76.8,23.8644 80.2712,12.1492" stroke="#ff6f00" stroke-width="2" /><polyline fill="none" points="88.5153,35.1458 94.5898,26.4678 94.1559,19.9593" stroke="#ff3f00" stroke-width="2" /><polyline fill="none" points="86.3458,62.0475 85.0441,59.0102 88.5153,43.3898 90.2508,40.7864" stroke="#f50b00" stroke-width="2" /><polyline fill="none" points="94.5898,63.3492 101.0983,50.7661 101.9661,43.3898" stroke="#ba0000" stroke-width="2" /><polyline fill="none" points="76.8,81.5729 74.6305,71.5932 75.9322,68.9898 87.6475,60.3119" stroke="#7f0000" stroke-width="2" /></svg>