<?xml version="1.0" encoding="utf-8" ?>
<svg baseProfile="tiny" height="128" version="1.2" viewBox="0,0,128,128" width="128" xmlns="http://www.w3.org/2000/svg" xmlns:ev="http://www.w3.org/2001/xml-events" xmlns:xlink="http://www.w3.org/1999/xlink"><defs /><polyline fill="none" points="55.539,8.678 60.7458,52.0678 62.4814,55.539" stroke="#00007f" stroke-width="2" /><polyline fill="none" points="60.7458,56.8407 59.4441,54.6712 46.4271,54.6712 36.4475,52.9356 16.0542,45.5593 8.678,46.4271" stroke="#0000e8" stroke-width="2" /><polyline fill="none" points="62.0475,55.1051 35.5797,70.2915 27.7695,73.7627 26.9017,75.0644" stroke="#0038ff" stroke-width="2" /><polyline fill="none" points="60.3119,54.6712 63.7831,52.9356 94.5898,47.2949 107.6068,42.9559" stroke="#0094ff" stroke-width="2" /><polyline fill="none" points="56.4068,54.2373 71.1593,59.0102 93.722,63.3492 105.8712,68.122 111.5119,68.5559" stroke="#0cf4ea" stroke-width="2" /><polyline fill="none" points="64.6508,57.2746 63.3492,63.3492 58.5763,68.9898 40.7864,85.478" stroke="#56ffa0" stroke-width="2" /><polyline fill="none" points="62.4814,60.3119 65.0847,68.122 76.8,81.5729 80.7051,82.8746 91.9864,83.3085" stroke="#a0ff56" stroke-width="2" /><polyline fill="none" points="91.1186,80.2712 88.5153,83.7424 88.9492,88.5153 95.0237,88.5153 97.6271,87.2136 100.6644,81.5729 98.4949,81.5729 95.8915,88.9492 98.9288,85.478 98.9288,83.3085 97.6271,82.8746" stroke="#eaff0c" stroke-width="2" /><polyline fill="none" points="119.322,68.5559 116.2847,65.9525 114.1153,66.3864 111.078,69.4237 113.2475,71.1593 115.8508,69.8576 117.5864,66.3864 112.8136,64.6508 110.6441,65.0847 110.2102,67.2542" stroke="#ffaa00" stroke-width="2" /><polyline fill="none" points="111.5119,39.9186 109.3424,36.0136 105.8712,34.7119 101.9661,35.1458 100.2305,38.6169 101.5322,42.0881 108.4746,41.6542 114.1153,36.4475 114.5492,34.278 111.078,33.4102 108.4746,34.7119 106.3051,39.0508" stroke="#ff5500" stroke-width="2" /><polyline fill="none" points="98.061,81.5729 95.0237,84.1763 90.2508,85.0441 88.5153,87.6475 88.9492,89.3831 91.9864,90.6847 97.6271,90.2508 99.7966,88.0814 100.6644,82.4407 95.0237,80.2712 91.5525,83.3085 91.1186,85.478 93.722,86.7797 95.8915,82.0068 93.722,84.1763 94.1559,88.5153 97.1932,87.6475 98.061,85.478 95.0237,82.8746 93.2881,83.3085" stroke="#e80000" stroke-width="2" /><polyline fill="none" points="42.522,82.4407 39.4847,81.139 35.1458,87.6475 34.7119,89.8169 36.8814,91.5525 40.3525,89.3831 41.6542,84.1763 39.0508,83.3085 38.6169,85.478 41.6542,87.6475 43.8237,87.2136 39.9186,85.478 36.8814,87.6475" stroke="#7f0000" stroke-width="2" /></svg>