<?xml version="1.0" encoding="utf-8" ?>
<svg baseProfile="tiny" height="128" version="1.2" viewBox="0,0,128,128" width="128" xmlns="http://www.w3.org/2000/svg" xmlns:ev="http://www.w3.org/2001/xml-events" xmlns:xlink="http://www.w3.org/1999/xlink"><defs /><polyline fill="none" points="36.4475,34.7119 36.4475,40.7864 40.7864,45.9932 46.4271,49.8983 52.5017,47.2949 65.0847,34.278 75.4983,16.0542 77.2339,8.678" stroke="#00007f" stroke-width="2" /><polyline fill="none" points="77.2339,8.678 70.7254,45.1254 67.6881,51.2 59.0102,57.7085 48.5966,62.9153 39.9186,63.3492 24.7322,52.9356 15.6203,41.6542" stroke="#0010ff" stroke-width="2" /><polyline fill="none" points="8.678,46.861 9.9797,54.2373 14.3186,60.3119 30.3729,74.1966 45.9932,84.1763 55.9729,75.9322 65.0847,64.2169 67.6881,55.9729 68.122,41.6542 69.8576,37.3153" stroke="#00a4ff" stroke-width="2" /><polyline fill="none" points="75.4983,15.6203 75.4983,36.0136 77.2339,46.4271 82.4407,56.8407 90.6847,65.9525 95.4576,66.3864 102.4,61.1797 112.3797,47.7288 117.1525,37.3153" stroke="#3fffb7" stroke-width="2" /><polyline fill="none" points="73.3288,41.6542 73.3288,65.9525 81.5729,79.8373 88.9492,85.478 93.2881,85.9119 107.1729,78.5356 112.3797,74.6305 118.8881,66.3864" stroke="#b7ff3f" stroke-width="2" /><polyline fill="none" points="67.2542,49.0305 67.6881,75.0644 73.7627,88.5153 79.8373,95.4576 87.2136,98.9288 98.9288,98.9288 105.8712,96.7593 117.1525,88.9492" stroke="#ffb900" stroke-width="2" /><polyline fill="none" points="119.322,62.4814 119.322,65.9525" stroke="#ff3000" stroke-width="2" /><polyline fill="none" points="118.8881,53.8034 118.8881,53.8034" stroke="#7f0000" stroke-width="2" /></svg>