<?xml version="1.0" encoding="utf-8" ?>
<svg baseProfile="tiny" height="128" version="1.2" viewBox="0,0,128,128" width="128" xmlns="http://www.w3.org/2000/svg" xmlns:ev="http://www.w3.org/2001/xml-events" xmlns:xlink="http://www.w3.org/1999/xlink"><defs /><polyline fill="none" points="47.2949,8.678 48.1627,60.7458 49.8983,65.5186 58.1424,73.7627 67.6881,75.9322 74.6305,75.0644 78.1017,68.9898 75.9322,62.9153 66.8203,59.0102 62.4814,59.4441 55.1051,62.0475 48.5966,68.5559" stroke="#00007f" stroke-width="2" /><polyline fill="none" points="46.4271,12.1492 43.3898,18.2237 38.6169,35.1458 37.7492,67.2542 35.5797,75.9322 30.3729,82.8746 19.9593,84.6102 14.3186,81.139 11.2814,71.1593 15.1864,62.9153 18.6576,62.0475 27.7695,70.2915 31.2407,78.1017" stroke="#0028ff" stroke-width="2" /><polyline fill="none" points="48.1627,26.9017 46.4271,28.2034 40.7864,40.7864 38.6169,53.3695 39.9186,72.0271 49.0305,87.2136 56.4068,105.0034 56.4068,110.6441 52.0678,118.0203 44.6915,119.322 27.7695,111.078 26.0339,108.0407 28.2034,105.0034 37.7492,98.061 42.9559,91.9864 43.3898,82.8746 40.7864,68.9898 40.3525,55.9729 44.6915,28.2034 43.3898,30.8068" stroke="#00d4ff" stroke-width="2" /><polyline fill="none" points="45.9932,37.7492 47.2949,42.522 53.8034,49.8983 63.7831,55.9729 74.1966,59.0102 79.4034,57.7085 82.0068,53.8034 79.4034,45.5593 69.8576,40.7864 66.3864,41.2203 58.1424,46.861 50.3322,36.0136 45.9932,26.9017" stroke="#7cff79" stroke-width="2" /><polyline fill="none" points="36.4475,13.0169 35.5797,28.6373 29.939,41.6542 25.6,48.1627 20.8271,52.0678 16.0542,53.8034 12.1492,49.0305 8.678,41.6542 13.0169,40.3525 19.9593,41.6542 29.0712,32.5424 34.7119,19.5254" stroke="#ffe500" stroke-width="2" /><polyline fill="none" points="39.9186,55.1051 41.6542,68.9898 53.3695,98.4949 61.1797,107.6068 68.122,110.6441 71.5932,110.2102 72.461,105.4373 68.122,94.5898 59.0102,79.8373 49.4644,67.2542 37.7492,55.539 32.9763,53.8034" stroke="#ff4600" stroke-width="2" /><polyline fill="none" points="38.6169,58.1424 27.7695,89.8169 23.8644,98.061 18.2237,103.2678 16.0542,103.7017 14.3186,102.4 9.9797,93.722 9.9797,88.9492 14.7525,79.8373 33.4102,60.7458" stroke="#7f0000" stroke-width="2" /></svg>