<?xml version="1.0" encoding="utf-8" ?>
<svg baseProfile="tiny" height="128" version="1.2" viewBox="0,0,128,128" width="128" xmlns="http://www.w3.org/2000/svg" xmlns:ev="http://www.w3.org/2001/xml-events" xmlns:xlink="http://www.w3.org/1999/xlink"><defs /><polyline fill="none" points="49.4644,8.678 51.2,42.9559" stroke="#00007f" stroke-width="2" /><polyline fill="none" points="49.4644,42.9559 34.7119,42.522 22.1288,47.2949 16.4881,52.0678 13.0169,57.7085 9.1119,66.8203 8.678,71.5932 13.4508,72.8949 22.5627,73.7627 55.9729,73.7627 81.139,71.1593 98.9288,65.9525 103.7017,61.1797 104.1356,54.2373 96.7593,47.2949 86.7797,44.2576 78.5356,43.3898 51.2,44.2576" stroke="#0000ff" stroke-width="2" /><polyline fill="none" points="11.7153,76.8 12.1492,96.7593" stroke="#0080ff" stroke-width="2" /><polyline fill="none" points="29.0712,80.7051 30.3729,82.4407 31.2407,94.1559" stroke="#15ffe1" stroke-width="2" /><polyline fill="none" points="44.6915,77.6678 50.7661,91.1186" stroke="#7cff79" stroke-width="2" /><polyline fill="none" points="69.4237,78.5356 75.0644,92.8542" stroke="#e4ff12" stroke-width="2" /><polyline fill="none" points="83.7424,73.7627 91.5525,83.7424" stroke="#ff9400" stroke-width="2" /><polyline fill="none" points="100.6644,68.5559 111.5119,81.139" stroke="#ff1d00" stroke-width="2" /><polyline fill="none" points="113.6814,60.7458 119.322,64.2169" stroke="#7f0000" stroke-width="2" /></svg>