<?xml version="1.0" encoding="utf-8" ?>
<svg baseProfile="tiny" height="128" version="1.2" viewBox="0,0,128,128" width="128" xmlns="http://www.w3.org/2000/svg" xmlns:ev="http://www.w3.org/2001/xml-events" xmlns:xlink="http://www.w3.org/1999/xlink"><defs /><polyline fill="none" points="79.8373,8.678 71.1593,96.7593 68.122,108.4746 64.2169,114.9831 54.6712,117.1525 37.3153,117.1525 22.1288,114.9831 16.922,112.8136 12.5831,108.0407 9.1119,95.4576 8.678,78.9695 12.1492,69.4237" stroke="#00007f" stroke-width="2" /><polyline fill="none" points="32.9763,115.4169 28.6373,103.2678 27.3356,93.722 30.3729,86.7797 33.8441,85.478" stroke="#0080ff" stroke-width="2" /><polyline fill="none" points="62.0475,115.8508 98.9288,115.4169 110.6441,113.6814 116.2847,109.7763 118.8881,105.4373 119.322,93.722 116.7186,95.0237" stroke="#7cff79" stroke-width="2" /><polyline fill="none" points="91.1186,114.5492 96.3254,112.3797 99.7966,101.9661 99.7966,95.0237" stroke="#ff9400" stroke-width="2" /><polyline fill="none" points="29.5051,85.478 24.2983,78.9695 20.8271,71.1593 27.7695,70.7254 33.8441,72.461 36.0136,87.6475 30.3729,87.6475" stroke="#7f0000" stroke-width="2" /></svg>