<?xml version="1.0" encoding="utf-8" ?>
<svg baseProfile="tiny" height="128" version="1.2" viewBox="0,0,128,128" width="128" xmlns="http://www.w3.org/2000/svg" xmlns:ev="http://www.w3.org/2001/xml-events" xmlns:xlink="http://www.w3.org/1999/xlink"><defs /><polyline fill="none" points="78.5356,8.678 79.8373,35.1458" stroke="#00007f" stroke-width="2" /><polyline fill="none" points="78.1017,32.5424 68.122,32.1085 64.2169,34.7119 57.2746,60.3119 57.2746,71.1593" stroke="#0000d1" stroke-width="2" /><polyline fill="none" points="82.4407,30.8068 93.2881,27.7695 98.061,31.6746 101.9661,47.2949 102.4,58.1424 100.2305,71.5932" stroke="#0010ff" stroke-width="2" /><polyline fill="none" points="99.7966,68.122 61.6136,68.9898" stroke="#0058ff" stroke-width="2" /><polyline fill="none" points="79.8373,32.5424 80.2712,45.9932" stroke="#00a4ff" stroke-width="2" /><polyline fill="none" points="80.7051,45.1254 76.8,48.1627 75.9322,53.3695" stroke="#05ecf1" stroke-width="2" /><polyline fill="none" points="78.1017,56.8407 84.1763,55.539" stroke="#3fffb7" stroke-width="2" /><polyline fill="none" points="86.7797,54.2373 87.6475,52.0678 84.6102,45.1254 82.0068,43.3898 77.6678,44.2576" stroke="#7cff79" stroke-width="2" /><polyline fill="none" points="56.4068,65.5186 56.4068,64.6508 51.6339,68.122 38.1831,71.5932" stroke="#b7ff3f" stroke-width="2" /><polyline fill="none" points="74.1966,66.3864 73.7627,72.461" stroke="#f1fc05" stroke-width="2" /><polyline fill="none" points="93.722,67.2542 93.722,72.461" stroke="#ffb900" stroke-width="2" /><polyline fill="none" points="101.9661,67.2542 117.5864,69.4237 119.322,72.461" stroke="#ff7300" stroke-width="2" /><polyline fill="none" points="12.1492,14.3186 8.678,21.6949 9.5458,29.939" stroke="#ff3000" stroke-width="2" /><polyline fill="none" points="13.0169,28.2034 22.1288,29.939" stroke="#d10000" stroke-width="2" /><polyline fill="none" points="24.2983,14.7525 28.6373,24.2983 32.5424,22.9966 36.0136,24.7322" stroke="#7f0000" stroke-width="2" /></svg>