<?xml version="1.0" encoding="utf-8" ?>
<svg baseProfile="tiny" height="128" version="1.2" viewBox="0,0,128,128" width="128" xmlns="http://www.w3.org/2000/svg" xmlns:ev="http://www.w3.org/2001/xml-events" xmlns:xlink="http://www.w3.org/1999/xlink"><defs /><polyline fill="none" points="50.7661,8.678 50.3322,31.6746 52.0678,44.6915" stroke="#00007f" stroke-width="2" /><polyline fill="none" points="54.2373,42.522 49.0305,39.4847 44.6915,39.0508 36.4475,39.4847 30.8068,42.0881 16.922,56.4068 10.4136,71.1593 10.8475,85.0441 15.6203,93.722 31.6746,109.7763 40.3525,113.2475 61.1797,113.6814 77.2339,106.739 85.0441,100.6644 91.1186,92.8542 96.3254,83.7424 98.9288,74.6305 98.9288,62.0475 91.1186,49.8983 83.3085,42.522 78.5356,39.9186 72.8949,38.6169 46.861,37.7492 41.2203,39.9186" stroke="#0000fe" stroke-width="2" /><polyline fill="none" points="30.3729,59.878 26.9017,63.3492 26.9017,73.3288 32.1085,105.8712" stroke="#0060ff" stroke-width="2" /><polyline fill="none" points="47.7288,37.7492 50.3322,54.6712 56.4068,82.0068 63.3492,108.9085 65.9525,111.9458" stroke="#00d4ff" stroke-width="2" /><polyline fill="none" points="69.4237,36.8814 90.6847,116.7186" stroke="#4cffaa" stroke-width="2" /><polyline fill="none" points="84.6102,48.1627 75.4983,50.7661 64.6508,57.7085 51.2,69.8576 8.678,116.2847" stroke="#aaff4c" stroke-width="2" /><polyline fill="none" points="72.8949,77.2339 65.5186,78.5356 59.878,82.4407 42.0881,100.6644 29.0712,117.5864" stroke="#ffe500" stroke-width="2" /><polyline fill="none" points="78.5356,91.1186 71.1593,91.5525 65.9525,94.1559 35.1458,119.322" stroke="#ff7a00" stroke-width="2" /><polyline fill="none" points="85.9119,66.8203 78.5356,65.5186 71.1593,65.9525 62.0475,69.8576 24.2983,92.8542 15.1864,96.7593" stroke="#fe1200" stroke-width="2" /><polyline fill="none" points="81.139,48.5966 64.6508,53.8034 33.4102,68.9898 16.922,75.0644 21.261,68.122 34.278,54.6712 49.4644,42.522 25.6,62.0475 46.4271,48.5966 55.9729,43.8237 20.3932,72.8949 50.3322,54.2373 72.8949,42.522" stroke="#7f0000" stroke-width="2" /></svg>