<?xml version="1.0" encoding="utf-8" ?>
<svg baseProfile="tiny" height="128" version="1.2" viewBox="0,0,128,128" width="128" xmlns="http://www.w3.org/2000/svg" xmlns:ev="http://www.w3.org/2001/xml-events" xmlns:xlink="http://www.w3.org/1999/xlink"><defs /><polyline fill="none" points="59.2109,10.449 69.2245,10.449 77.4966,8.7075 77.932,10.0136 76.1905,50.5034 87.9456,43.5374 97.5238,43.5374 104.0544,47.0204 111.0204,60.517 112.3265,68.3537 112.3265,81.8503 101.8776,119.2925 89.2517,119.2925 88.8163,117.9864 89.6871,92.2993 87.9456,72.2721 85.7687,68.3537 76.6259,69.2245 71.8367,77.932 68.7891,93.6054 68.7891,112.3265 50.068,115.8095 53.1156,64.4354 52.2449,62.6939 47.4558,61.8231 41.7959,63.1293 35.7007,71.8367 33.5238,82.2857 33.0884,95.3469 31.3469,107.102 10.449,114.9388 8.7075,101.8776 9.5782,75.3197 12.1905,56.5986 16.9796,39.619 27.4286,35.7007 44.4082,35.7007 48.3265,33.5238 54.4218,26.5578 56.5986,11.7551 57.4694,10.8844 59.2109,11.3197" stroke="#00007f" stroke-width="2" /></svg>