<?xml version="1.0" encoding="utf-8" ?>
<svg baseProfile="tiny" height="128" version="1.2" viewBox="0,0,128,128" width="128" xmlns="http://www.w3.org/2000/svg" xmlns:ev="http://www.w3.org/2001/xml-events" xmlns:xlink="http://www.w3.org/1999/xlink"><defs /><polyline fill="none" points="76.3661,8.678 73.7627,13.4508 70.7254,55.9729 68.5559,60.3119 57.2746,71.5932 30.8068,80.2712 22.1288,81.139 17.3559,79.8373 14.3186,76.8 10.8475,68.9898 8.678,53.3695 9.9797,42.522" stroke="#00007f" stroke-width="2" /><polyline fill="none" points="71.1593,55.1051 69.4237,74.6305 73.3288,84.6102 81.5729,92.4203 94.5898,95.4576 102.8339,91.1186 111.5119,80.2712 118.4542,60.3119 119.322,48.5966" stroke="#7cff79" stroke-width="2" /><polyline fill="none" points="65.5186,57.7085 58.5763,65.5186 50.7661,68.9898 42.0881,71.5932 34.7119,70.2915 29.939,65.5186 25.1661,56.4068 24.2983,52.0678 25.6,41.2203" stroke="#7f0000" stroke-width="2" /></svg>