<?xml version="1.0" encoding="utf-8" ?>
<svg baseProfile="tiny" height="128" version="1.2" viewBox="0,0,128,128" width="128" xmlns="http://www.w3.org/2000/svg" xmlns:ev="http://www.w3.org/2001/xml-events" xmlns:xlink="http://www.w3.org/1999/xlink"><defs /><polyline fill="none" points="57.2746,8.678 59.0102,10.8475 59.878,17.3559 59.878,60.3119 58.5763,65.0847 55.539,68.122 39.0508,67.6881 25.1661,64.2169 16.922,47.7288 9.1119,36.0136 8.678,54.2373 9.9797,60.7458 22.1288,72.461 32.1085,77.2339 38.6169,78.1017 76.8,78.1017 108.0407,66.3864 117.5864,57.7085 119.322,49.4644 118.4542,43.8237 116.2847,43.8237 98.061,53.3695 91.5525,58.1424 88.5153,63.3492 83.3085,64.6508 74.1966,70.2915 70.2915,66.3864 65.0847,55.9729 64.6508,36.8814 66.3864,12.1492 62.0475,9.5458" stroke="#00007f" stroke-width="2" /></svg>