<?xml version="1.0" encoding="utf-8" ?>
<svg baseProfile="tiny" height="128" version="1.2" viewBox="0,0,128,128" width="128" xmlns="http://www.w3.org/2000/svg" xmlns:ev="http://www.w3.org/2001/xml-events" xmlns:xlink="http://www.w3.org/1999/xlink"><defs /><polyline fill="none" points="29.939,80.2712 29.0712,51.6339 31.6746,11.2814 111.9458,9.9797 111.9458,46.861 119.322,73.7627 88.0814,75.4983 65.9525,80.7051 33.4102,80.7051 32.9763,76.8" stroke="#00007f" stroke-width="2" /><polyline fill="none" points="32.1085,27.7695 63.7831,28.6373 111.9458,26.9017" stroke="#0000bf" stroke-width="2" /><polyline fill="none" points="48.1627,29.0712 47.7288,52.0678 49.8983,77.6678" stroke="#0000fe" stroke-width="2" /><polyline fill="none" points="78.9695,24.2983 76.8,32.5424 74.6305,52.9356 74.6305,78.5356" stroke="#0028ff" stroke-width="2" /><polyline fill="none" points="31.2407,44.6915 69.4237,44.6915 89.8169,46.861 115.8508,45.1254" stroke="#0060ff" stroke-width="2" /><polyline fill="none" points="28.2034,62.9153 90.6847,63.3492 117.5864,61.6136" stroke="#009cff" stroke-width="2" /><polyline fill="none" points="47.7288,13.4508 43.3898,20.8271 41.2203,20.8271 39.4847,16.922" stroke="#00d4ff" stroke-width="2" /><polyline fill="none" points="52.9356,18.2237 57.7085,17.7898 56.8407,13.8847 55.1051,16.0542 55.1051,21.6949 57.2746,23.4305 60.7458,23.4305" stroke="#1fffd7" stroke-width="2" /><polyline fill="none" points="70.2915,26.4678 70.7254,16.4881 71.5932,22.1288 82.8746,16.4881 83.3085,22.9966" stroke="#4cffaa" stroke-width="2" /><polyline fill="none" points="91.5525,19.5254 95.8915,18.2237 94.5898,22.1288" stroke="#7cff79" stroke-width="2" /><polyline fill="none" points="37.3153,34.278 39.0508,32.1085 39.9186,33.4102 40.3525,39.0508" stroke="#aaff4c" stroke-width="2" /><polyline fill="none" points="59.0102,35.5797 61.1797,32.1085 65.0847,30.3729 66.3864,34.7119 63.3492,41.6542 72.8949,41.2203" stroke="#d7ff1f" stroke-width="2" /><polyline fill="none" points="89.8169,35.1458 94.1559,32.9763 95.8915,35.1458 94.5898,39.0508 95.4576,42.9559 88.5153,46.4271" stroke="#ffe500" stroke-width="2" /><polyline fill="none" points="41.6542,49.8983 37.7492,50.7661 36.0136,52.9356 42.522,53.3695" stroke="#ffb100" stroke-width="2" /><polyline fill="none" points="40.3525,49.8983 42.0881,60.3119" stroke="#ff7a00" stroke-width="2" /><polyline fill="none" points="68.9898,51.6339 58.1424,52.5017 57.2746,54.6712 59.4441,59.0102 58.5763,61.1797 52.9356,62.0475" stroke="#ff4600" stroke-width="2" /><polyline fill="none" points="96.3254,49.8983 94.1559,58.5763 95.8915,60.3119 96.3254,55.9729 92.8542,54.6712" stroke="#fe1200" stroke-width="2" /><polyline fill="none" points="36.8814,65.5186 40.7864,65.0847 41.2203,67.2542 37.3153,75.0644" stroke="#bf0000" stroke-width="2" /><polyline fill="none" points="33.8441,8.678 26.4678,20.3932 20.8271,32.9763 13.4508,52.0678 8.678,68.5559 10.8475,74.6305 13.4508,76.3661 39.9186,78.9695" stroke="#7f0000" stroke-width="2" /></svg>