<?xml version="1.0" encoding="utf-8" ?>
<svg baseProfile="tiny" height="128" version="1.2" viewBox="0,0,128,128" width="128" xmlns="http://www.w3.org/2000/svg" xmlns:ev="http://www.w3.org/2001/xml-events" xmlns:xlink="http://www.w3.org/1999/xlink"><defs /><polyline fill="none" points="37.7492,76.8 37.7492,87.6475" stroke="#00007f" stroke-width="2" /><polyline fill="none" points="36.4475,75.4983 31.2407,76.8 19.0915,85.9119" stroke="#0000bf" stroke-width="2" /><polyline fill="none" points="25.6,68.9898 8.678,82.4407" stroke="#0000fe" stroke-width="2" /><polyline fill="none" points="30.3729,68.9898 41.6542,72.461 54.6712,80.7051" stroke="#0028ff" stroke-width="2" /><polyline fill="none" points="49.4644,70.2915 52.0678,78.1017 56.8407,85.478" stroke="#0060ff" stroke-width="2" /><polyline fill="none" points="59.0102,68.5559 65.0847,80.7051" stroke="#009cff" stroke-width="2" /><polyline fill="none" points="9.1119,69.4237 40.3525,65.5186 65.5186,67.6881 54.2373,52.0678 51.2,48.5966 47.2949,47.7288 37.7492,50.3322 20.3932,57.2746 12.5831,62.9153 9.1119,68.5559" stroke="#00d4ff" stroke-width="2" /><polyline fill="none" points="19.0915,43.3898 19.0915,58.1424" stroke="#1fffd7" stroke-width="2" /><polyline fill="none" points="29.5051,42.9559 22.9966,60.3119" stroke="#4cffaa" stroke-width="2" /><polyline fill="none" points="40.3525,43.3898 33.8441,61.6136" stroke="#7cff79" stroke-width="2" /><polyline fill="none" points="52.9356,47.7288 55.9729,57.7085" stroke="#aaff4c" stroke-width="2" /><polyline fill="none" points="60.3119,45.5593 60.7458,55.1051" stroke="#d7ff1f" stroke-width="2" /><polyline fill="none" points="38.6169,52.0678 41.2203,25.6 46.861,8.678" stroke="#ffe500" stroke-width="2" /><polyline fill="none" points="49.4644,49.4644 42.0881,19.0915 42.522,12.1492" stroke="#ffb100" stroke-width="2" /><polyline fill="none" points="73.7627,79.8373 68.122,83.3085 66.8203,87.2136 67.2542,91.1186 72.0271,92.8542 74.6305,90.6847 76.3661,85.0441 75.0644,81.139" stroke="#ff7a00" stroke-width="2" /><polyline fill="none" points="68.5559,91.9864 60.7458,101.9661 55.539,112.3797 66.3864,119.322" stroke="#ff4600" stroke-width="2" /><polyline fill="none" points="58.5763,107.6068 36.8814,112.3797" stroke="#fe1200" stroke-width="2" /><polyline fill="none" points="62.4814,96.7593 54.2373,75.9322" stroke="#bf0000" stroke-width="2" /><polyline fill="none" points="66.8203,94.5898 64.2169,88.9492 62.0475,76.8 61.1797,59.878" stroke="#7f0000" stroke-width="2" /></svg>