<?xml version="1.0" encoding="utf-8" ?>
<svg baseProfile="tiny" height="128" version="1.2" viewBox="0,0,128,128" width="128" xmlns="http://www.w3.org/2000/svg" xmlns:ev="http://www.w3.org/2001/xml-events" xmlns:xlink="http://www.w3.org/1999/xlink"><defs /><polyline fill="none" points="36.4475,14.7525 37.3153,47.7288 40.3525,65.5186" stroke="#00007f" stroke-width="2" /><polyline fill="none" points="37.3153,9.1119 35.5797,9.5458 35.5797,10.8475 37.3153,13.4508 42.9559,16.4881 44.2576,14.7525 42.522,11.2814 37.3153,11.2814" stroke="#0000d5" stroke-width="2" /><polyline fill="none" points="40.3525,63.7831 23.8644,64.2169 18.6576,66.8203 12.1492,83.3085 11.7153,90.6847 13.8847,92.8542" stroke="#001cff" stroke-width="2" /><polyline fill="none" points="41.2203,62.4814 52.9356,66.3864 61.6136,77.6678 62.9153,85.478 56.4068,96.3254" stroke="#006cff" stroke-width="2" /><polyline fill="none" points="43.3898,63.7831 49.4644,81.139 49.8983,88.0814" stroke="#00b8ff" stroke-width="2" /><polyline fill="none" points="39.9186,62.4814 36.4475,75.0644 35.1458,91.5525" stroke="#1cffda" stroke-width="2" /><polyline fill="none" points="28.6373,65.0847 25.1661,68.5559 19.5254,84.6102 19.5254,93.722 20.3932,95.8915 22.1288,96.3254" stroke="#5cff9a" stroke-width="2" /><polyline fill="none" points="53.8034,95.8915 8.678,96.3254" stroke="#9aff5c" stroke-width="2" /><polyline fill="none" points="41.2203,95.0237 42.9559,100.6644 37.7492,104.1356 33.8441,103.7017 32.1085,95.4576" stroke="#daff1c" stroke-width="2" /><polyline fill="none" points="37.3153,14.7525 29.939,16.4881 28.6373,16.0542 28.6373,13.0169 30.3729,11.2814 39.4847,8.678" stroke="#ffcb00" stroke-width="2" /><polyline fill="none" points="42.0881,108.9085 45.5593,111.5119" stroke="#ff8500" stroke-width="2" /><polyline fill="none" points="31.6746,113.6814 31.6746,115.4169 34.7119,117.5864" stroke="#ff3b00" stroke-width="2" /><polyline fill="none" points="52.5017,115.8508 52.0678,117.5864" stroke="#d50000" stroke-width="2" /><polyline fill="none" points="38.6169,114.1153 42.9559,119.322" stroke="#7f0000" stroke-width="2" /></svg>