<?xml version="1.0" encoding="utf-8" ?>
<svg baseProfile="tiny" height="128" version="1.2" viewBox="0,0,128,128" width="128" xmlns="http://www.w3.org/2000/svg" xmlns:ev="http://www.w3.org/2001/xml-events" xmlns:xlink="http://www.w3.org/1999/xlink"><defs /><polyline fill="none" points="59.0102,8.678 60.3119,64.2169 49.0305,64.2169 38.1831,58.1424 9.9797,29.5051" stroke="#00007f" stroke-width="2" /><polyline fill="none" points="66.3864,65.0847 66.3864,62.4814 73.3288,58.1424 82.8746,42.9559 89.3831,19.0915" stroke="#004cff" stroke-width="2" /><polyline fill="none" points="87.6475,21.6949 94.5898,41.6542 95.0237,54.6712 80.7051,75.9322 75.0644,79.8373 63.3492,83.3085 44.6915,83.7424 36.4475,82.4407 19.0915,72.461 13.0169,65.0847 9.5458,58.1424 8.678,32.1085" stroke="#29ffcd" stroke-width="2" /><polyline fill="none" points="17.3559,69.8576 19.5254,83.3085 20.3932,106.3051" stroke="#cdff29" stroke-width="2" /><polyline fill="none" points="50.7661,79.8373 53.8034,92.8542 55.9729,119.322" stroke="#ff6700" stroke-width="2" /><polyline fill="none" points="85.9119,61.1797 85.0441,69.4237" stroke="#7f0000" stroke-width="2" /></svg>