<?xml version="1.0" encoding="utf-8" ?>
<svg baseProfile="tiny" height="128" version="1.2" viewBox="0,0,128,128" width="128" xmlns="http://www.w3.org/2000/svg" xmlns:ev="http://www.w3.org/2001/xml-events" xmlns:xlink="http://www.w3.org/1999/xlink"><defs /><polyline fill="none" points="58.1424,8.678 58.1424,45.5593 55.9729,64.2169 53.8034,65.9525 36.4475,64.2169 23.4305,66.8203 16.922,77.6678 17.3559,81.139 18.6576,81.5729 35.1458,81.5729 58.1424,85.478 71.1593,85.478 72.461,82.4407 71.5932,72.0271 52.9356,61.6136" stroke="#00007f" stroke-width="2" /><polyline fill="none" points="55.9729,100.6644 60.3119,119.322" stroke="#004cff" stroke-width="2" /><polyline fill="none" points="31.2407,102.4 30.3729,114.5492 28.6373,112.8136" stroke="#29ffcd" stroke-width="2" /><polyline fill="none" points="23.4305,100.6644 20.8271,104.1356 8.678,113.2475" stroke="#cdff29" stroke-width="2" /><polyline fill="none" points="81.139,108.4746 79.8373,110.6441 81.5729,118.4542 81.139,113.2475" stroke="#ff6700" stroke-width="2" /><polyline fill="none" points="50.7661,62.4814 59.0102,65.0847 61.6136,61.1797 59.4441,55.1051 52.5017,52.5017 51.6339,50.7661 59.0102,45.9932 59.878,44.2576 54.2373,40.7864 54.2373,34.7119 62.0475,30.8068 63.7831,28.2034 55.539,23.4305 55.1051,18.6576 61.6136,13.0169 56.8407,10.4136" stroke="#7f0000" stroke-width="2" /></svg>