<?xml version="1.0" encoding="utf-8" ?>
<svg baseProfile="tiny" height="128" version="1.2" viewBox="0,0,128,128" width="128" xmlns="http://www.w3.org/2000/svg" xmlns:ev="http://www.w3.org/2001/xml-events" xmlns:xlink="http://www.w3.org/1999/xlink"><defs /><polyline fill="none" points="74.1966,14.3186 67.2542,8.678 65.0847,8.678 62.0475,14.7525 60.7458,25.1661 59.878,80.7051 56.4068,99.7966 51.6339,110.6441 46.4271,114.1153 44.2576,111.9458 36.8814,89.8169 36.0136,67.2542 37.7492,49.8983" stroke="#00007f" stroke-width="2" /><polyline fill="none" points="52.9356,108.9085 49.8983,108.9085 50.3322,111.5119 52.5017,111.9458 59.0102,111.9458 62.9153,110.2102 70.2915,96.7593 72.461,89.8169 75.4983,65.9525 75.9322,50.3322 73.7627,47.7288" stroke="#0080ff" stroke-width="2" /><polyline fill="none" points="36.8814,111.078 32.5424,111.078 22.1288,102.8339 13.4508,90.6847 8.678,67.6881 8.678,59.878 12.5831,52.0678 16.922,50.3322" stroke="#7cff79" stroke-width="2" /><polyline fill="none" points="74.6305,119.322 70.2915,115.8508 74.1966,115.4169 83.3085,108.0407 88.5153,102.4 98.061,87.2136 102.4,70.2915 103.7017,55.9729 103.7017,52.9356 100.6644,50.7661 98.061,50.7661 97.6271,53.8034 98.9288,55.1051" stroke="#ff9400" stroke-width="2" /><polyline fill="none" points="60.3119,116.7186 76.8,99.3627 81.139,93.2881 84.1763,85.9119 86.3458,78.5356 88.0814,62.9153 88.0814,55.9729 84.6102,54.2373" stroke="#7f0000" stroke-width="2" /></svg>