<?xml version="1.0" encoding="utf-8" ?>
<svg baseProfile="tiny" height="128" version="1.2" viewBox="0,0,128,128" width="128" xmlns="http://www.w3.org/2000/svg" xmlns:ev="http://www.w3.org/2001/xml-events" xmlns:xlink="http://www.w3.org/1999/xlink"><defs /><polyline fill="none" points="67.9184,8.7075 66.6122,12.6259 69.2245,48.7619 69.6599,86.2041 66.6122,109.7143 64.4354,117.551 63.5646,116.6803" stroke="#00007f" stroke-width="2" /><polyline fill="none" points="77.4966,68.3537 74.8844,66.6122 69.6599,66.6122 48.7619,70.0952 39.619,73.5782 31.3469,79.2381 20.4626,93.6054 16.9796,106.2313 34.3946,113.6327 54.8571,115.3741 95.7823,105.7959 109.7143,100.5714 116.2449,93.6054 115.3741,83.5918 110.1497,77.932 92.2993,67.483 66.1769,57.9048 58.3401,57.9048 57.034,63.5646" stroke="#0000fe" stroke-width="2" /><polyline fill="none" points="109.7143,87.0748 114.068,83.5918 117.1156,77.4966 119.2925,60.9524 118.8571,50.9388" stroke="#0060ff" stroke-width="2" /><polyline fill="none" points="93.6054,106.2313 90.9932,99.7007 90.5578,85.3333" stroke="#00d4ff" stroke-width="2" /><polyline fill="none" points="68.7891,117.1156 64.4354,111.4558 63.5646,94.9116" stroke="#4cffaa" stroke-width="2" /><polyline fill="none" points="35.7007,116.6803 33.9592,113.6327 33.9592,94.9116" stroke="#aaff4c" stroke-width="2" /><polyline fill="none" points="10.449,105.3605 8.7075,98.3946 8.7075,78.8027" stroke="#ffe500" stroke-width="2" /><polyline fill="none" points="29.6054,79.6735 26.5578,79.2381 25.6871,75.7551 25.6871,61.8231 27.4286,53.9864" stroke="#ff7a00" stroke-width="2" /><polyline fill="none" points="74.0136,62.6939 72.2721,61.3878 71.8367,53.1156 74.8844,40.4898" stroke="#fe1200" stroke-width="2" /><polyline fill="none" points="98.3946,73.5782 96.6531,65.3061 99.7007,49.1973 106.2313,37.4422" stroke="#7f0000" stroke-width="2" /></svg>