<?xml version="1.0" encoding="utf-8" ?>
<svg baseProfile="tiny" height="128" version="1.2" viewBox="0,0,128,128" width="128" xmlns="http://www.w3.org/2000/svg" xmlns:ev="http://www.w3.org/2001/xml-events" xmlns:xlink="http://www.w3.org/1999/xlink"><defs /><polyline fill="none" points="38.1831,8.678 36.4475,9.1119 39.9186,15.6203 22.5627,17.7898 15.1864,21.261 9.1119,26.4678 9.1119,32.5424 11.7153,36.8814 15.6203,39.9186 24.2983,42.9559 46.861,45.9932 63.7831,45.9932 68.122,44.2576 78.9695,35.1458 83.3085,26.9017 83.7424,20.3932 79.8373,16.922 68.9898,14.7525 40.3525,15.6203" stroke="#00007f" stroke-width="2" /><polyline fill="none" points="16.4881,35.5797 15.6203,45.5593 11.7153,58.5763" stroke="#0000d5" stroke-width="2" /><polyline fill="none" points="26.0339,38.6169 28.2034,59.0102" stroke="#001cff" stroke-width="2" /><polyline fill="none" points="40.7864,39.0508 45.9932,63.3492" stroke="#006cff" stroke-width="2" /><polyline fill="none" points="56.8407,41.2203 58.1424,49.8983 66.3864,69.8576" stroke="#00b8ff" stroke-width="2" /><polyline fill="none" points="68.5559,33.4102 85.9119,58.5763" stroke="#1cffda" stroke-width="2" /><polyline fill="none" points="77.2339,26.0339 114.9831,30.8068" stroke="#5cff9a" stroke-width="2" /><polyline fill="none" points="24.2983,55.539 15.6203,60.3119" stroke="#9aff5c" stroke-width="2" /><polyline fill="none" points="13.4508,59.0102 10.8475,59.0102 8.678,62.0475 15.6203,62.9153 15.6203,60.7458 13.4508,59.0102" stroke="#daff1c" stroke-width="2" /><polyline fill="none" points="26.9017,58.1424 26.4678,60.3119 28.2034,62.0475 36.4475,62.9153 36.4475,61.1797 34.278,59.4441 26.9017,58.1424" stroke="#ffcb00" stroke-width="2" /><polyline fill="none" points="46.4271,62.0475 46.861,64.6508 45.1254,68.122 49.0305,67.2542 48.5966,62.9153 45.5593,62.9153" stroke="#ff8500" stroke-width="2" /><polyline fill="none" points="65.5186,67.6881 66.3864,72.0271 70.7254,72.461 70.7254,68.122 67.2542,67.2542" stroke="#ff3b00" stroke-width="2" /><polyline fill="none" points="86.3458,58.1424 86.3458,60.7458 88.0814,62.4814 91.9864,63.3492 92.8542,61.1797 90.6847,57.2746 86.3458,55.9729" stroke="#d50000" stroke-width="2" /><polyline fill="none" points="117.5864,30.8068 114.1153,32.1085 114.5492,35.5797 117.5864,35.5797 119.322,33.4102 118.8881,30.3729 114.9831,29.0712" stroke="#7f0000" stroke-width="2" /></svg>