<?xml version="1.0" encoding="utf-8" ?>
<svg baseProfile="tiny" height="128" version="1.2" viewBox="0,0,128,128" width="128" xmlns="http://www.w3.org/2000/svg" xmlns:ev="http://www.w3.org/2001/xml-events" xmlns:xlink="http://www.w3.org/1999/xlink"><defs /><polyline fill="none" points="62.0475,8.678 60.7458,12.1492 61.6136,61.6136 60.3119,67.2542 62.0475,79.8373 65.5186,83.3085 75.4983,85.9119 82.0068,80.7051 88.5153,60.7458 89.3831,49.4644" stroke="#00007f" stroke-width="2" /><polyline fill="none" points="61.6136,79.4034 64.2169,82.4407 66.8203,95.0237 70.2915,101.0983 85.9119,107.6068 92.8542,105.4373 98.4949,100.6644 106.739,81.139" stroke="#004cff" stroke-width="2" /><polyline fill="none" points="62.9153,78.1017 50.3322,91.9864 46.4271,93.2881 40.3525,91.1186 35.5797,86.3458 32.9763,80.7051 32.1085,71.5932 35.5797,55.9729 40.7864,48.1627" stroke="#29ffcd" stroke-width="2" /><polyline fill="none" points="66.3864,89.8169 66.8203,98.4949 61.1797,108.9085 55.539,115.8508 52.0678,118.0203 36.0136,119.322 29.0712,118.4542 23.8644,114.5492 18.6576,106.739 16.0542,91.9864" stroke="#cdff29" stroke-width="2" /><polyline fill="none" points="44.2576,35.5797 38.1831,50.7661 38.1831,54.6712 40.7864,59.878 45.1254,52.0678 44.2576,40.3525 42.0881,41.2203" stroke="#ff6700" stroke-width="2" /><polyline fill="none" points="8.678,83.7424 11.2814,92.8542 13.8847,95.0237 16.922,93.722 21.6949,76.3661 21.6949,66.8203" stroke="#7f0000" stroke-width="2" /></svg>