<?xml version="1.0" encoding="utf-8" ?>
<svg baseProfile="tiny" height="128" version="1.2" viewBox="0,0,128,128" width="128" xmlns="http://www.w3.org/2000/svg" xmlns:ev="http://www.w3.org/2001/xml-events" xmlns:xlink="http://www.w3.org/1999/xlink"><defs /><polyline fill="none" points="58.1424,11.2814 39.4847,60.7458" stroke="#00007f" stroke-width="2" /><polyline fill="none" points="61.1797,14.3186 52.9356,47.2949 52.5017,62.0475" stroke="#0000c8" stroke-width="2" /><polyline fill="none" points="68.5559,8.678 61.1797,58.5763 61.1797,66.3864 62.9153,72.0271" stroke="#0000ff" stroke-width="2" /><polyline fill="none" points="76.3661,17.3559 72.0271,54.2373 72.0271,61.6136 73.7627,65.0847" stroke="#0040ff" stroke-width="2" /><polyline fill="none" points="84.6102,14.3186 85.478,43.8237 87.6475,55.1051 91.1186,60.3119" stroke="#0080ff" stroke-width="2" /><polyline fill="none" points="49.4644,53.3695 36.4475,66.3864 29.0712,68.9898 25.1661,64.6508 17.3559,41.6542" stroke="#00c0ff" stroke-width="2" /><polyline fill="none" points="56.4068,51.2 49.4644,65.0847 42.522,73.7627 35.5797,79.4034 32.5424,78.9695 11.7153,63.3492" stroke="#15ffe1" stroke-width="2" /><polyline fill="none" points="57.7085,52.9356 36.0136,75.9322 32.9763,81.139 39.0508,82.4407 49.4644,81.5729 57.2746,78.5356 65.0847,72.0271" stroke="#49ffad" stroke-width="2" /><polyline fill="none" points="65.0847,45.1254 62.0475,66.3864 62.9153,85.9119 60.3119,82.4407 53.3695,77.6678 42.0881,72.8949" stroke="#7cff79" stroke-width="2" /><polyline fill="none" points="72.0271,58.1424 70.2915,76.3661 72.8949,83.7424 91.9864,76.8" stroke="#b0ff46" stroke-width="2" /><polyline fill="none" points="72.461,44.6915 76.3661,52.9356 82.4407,71.5932 87.2136,79.8373 98.4949,70.2915 108.9085,64.6508" stroke="#e4ff12" stroke-width="2" /><polyline fill="none" points="77.6678,43.8237 90.6847,64.2169 96.7593,68.9898 101.0983,62.9153 119.322,44.6915" stroke="#ffcf00" stroke-width="2" /><polyline fill="none" points="75.0644,41.2203 87.2136,54.6712 91.1186,57.7085 98.4949,59.878 103.2678,39.9186 107.6068,28.6373" stroke="#ff9400" stroke-width="2" /><polyline fill="none" points="67.6881,42.522 58.5763,60.3119 45.5593,46.861" stroke="#ff5900" stroke-width="2" /><polyline fill="none" points="40.3525,38.1831 32.1085,61.1797 29.0712,46.861" stroke="#ff1d00" stroke-width="2" /><polyline fill="none" points="12.5831,40.7864 8.678,28.2034 16.922,33.8441 20.3932,27.3356 21.261,34.7119 23.4305,34.278" stroke="#c30000" stroke-width="2" /><polyline fill="none" points="99.7966,29.0712 102.4,26.4678 103.7017,19.5254 111.5119,28.6373 113.6814,29.0712 117.1525,25.6" stroke="#7f0000" stroke-width="2" /></svg>