<?xml version="1.0" encoding="utf-8" ?>
<svg baseProfile="tiny" height="128" version="1.2" viewBox="0,0,128,128" width="128" xmlns="http://www.w3.org/2000/svg" xmlns:ev="http://www.w3.org/2001/xml-events" xmlns:xlink="http://www.w3.org/1999/xlink"><defs /><polyline fill="none" points="12.1492,23.4305 8.678,50.3322 12.1492,58.1424 22.1288,66.8203 28.2034,69.4237 46.4271,72.8949 64.6508,72.461 72.0271,68.122 75.9322,58.5763 76.3661,48.1627 68.9898,27.3356" stroke="#00007f" stroke-width="2" /><polyline fill="none" points="28.6373,29.0712 28.2034,41.2203 25.1661,62.0475" stroke="#0010ff" stroke-width="2" /><polyline fill="none" points="25.1661,63.7831 25.1661,64.6508" stroke="#00a4ff" stroke-width="2" /><polyline fill="none" points="53.3695,30.8068 53.3695,56.4068 55.1051,66.8203" stroke="#3fffb7" stroke-width="2" /><polyline fill="none" points="41.2203,70.7254 40.3525,111.5119" stroke="#b7ff3f" stroke-width="2" /><polyline fill="none" points="42.9559,113.6814 35.5797,107.6068 28.6373,107.6068 26.9017,109.3424 26.9017,112.8136 29.5051,116.2847 32.9763,118.0203 44.2576,119.322 46.861,118.4542 49.0305,114.9831 40.7864,105.0034 35.1458,104.5695 32.9763,105.4373" stroke="#ffb900" stroke-width="2" /><polyline fill="none" points="32.5424,28.2034 25.1661,23.4305 30.3729,17.3559 29.5051,13.4508" stroke="#ff3000" stroke-width="2" /><polyline fill="none" points="9.9797,22.5627 9.5458,20.3932 15.6203,12.5831 16.922,8.678" stroke="#7f0000" stroke-width="2" /></svg>