<?xml version="1.0" encoding="utf-8" ?>
<svg baseProfile="tiny" height="128" version="1.2" viewBox="0,0,128,128" width="128" xmlns="http://www.w3.org/2000/svg" xmlns:ev="http://www.w3.org/2001/xml-events" xmlns:xlink="http://www.w3.org/1999/xlink"><defs /><polyline fill="none" points="63.1293,8.7075 62.6939,23.9456 59.6463,45.2789 55.7279,58.3401 50.5034,67.0476 41.3605,75.7551 30.9116,82.7211 28.2993,82.7211 19.1565,78.3673 9.1429,77.4966 8.7075,76.1905" stroke="#00007f" stroke-width="2" /><polyline fill="none" points="60.517,36.1361 60.9524,55.7279 67.0476,74.449 70.966,80.1088 87.9456,89.2517 103.619,89.2517 108.4082,88.8163 115.3741,85.3333 118.8571,81.8503 119.2925,77.932" stroke="#7cff79" stroke-width="2" /><polyline fill="none" points="37.8776,77.0612 37.8776,88.381 40.4898,103.1837 40.9252,91.8639 45.2789,75.7551 46.585,87.9456 49.6327,96.2177 50.9388,74.0136 52.2449,68.7891" stroke="#7f0000" stroke-width="2" /></svg>