<?xml version="1.0" encoding="utf-8" ?>
<svg baseProfile="tiny" height="128" version="1.2" viewBox="0,0,128,128" width="128" xmlns="http://www.w3.org/2000/svg" xmlns:ev="http://www.w3.org/2001/xml-events" xmlns:xlink="http://www.w3.org/1999/xlink"><defs /><polyline fill="none" points="58.1424,8.678 58.1424,37.3153 60.7458,66.8203" stroke="#00007f" stroke-width="2" /><polyline fill="none" points="62.0475,66.3864 88.0814,105.0034" stroke="#0000ff" stroke-width="2" /><polyline fill="none" points="60.3119,65.5186 62.0475,111.9458" stroke="#0080ff" stroke-width="2" /><polyline fill="none" points="60.7458,66.3864 48.1627,92.8542 42.0881,114.1153" stroke="#15ffe1" stroke-width="2" /><polyline fill="none" points="61.1797,63.3492 39.0508,78.9695 13.4508,101.0983" stroke="#7cff79" stroke-width="2" /><polyline fill="none" points="13.4508,101.5322 9.9797,99.3627 10.4136,100.6644 9.1119,100.6644 9.1119,102.4 9.9797,104.1356 12.5831,101.0983 10.8475,100.2305 9.1119,100.6644 8.678,104.1356 9.9797,105.0034 10.4136,103.2678" stroke="#e4ff12" stroke-width="2" /><polyline fill="none" points="42.522,113.2475 40.7864,113.6814 40.7864,116.7186 45.9932,114.1153 47.2949,111.9458 46.861,106.739 39.9186,105.4373 39.0508,110.6441" stroke="#ff9400" stroke-width="2" /><polyline fill="none" points="61.6136,109.3424 57.7085,119.322 65.0847,108.0407 65.0847,100.2305 63.3492,99.3627 61.1797,111.5119" stroke="#ff1d00" stroke-width="2" /><polyline fill="none" points="89.3831,102.4 88.0814,105.0034 90.6847,101.9661 90.6847,92.8542" stroke="#7f0000" stroke-width="2" /></svg>