<?xml version="1.0" encoding="utf-8" ?>
<svg baseProfile="tiny" height="128" version="1.2" viewBox="0,0,128,128" width="128" xmlns="http://www.w3.org/2000/svg" xmlns:ev="http://www.w3.org/2001/xml-events" xmlns:xlink="http://www.w3.org/1999/xlink"><defs /><polyline fill="none" points="39.0508,48.5966 43.3898,61.6136 52.0678,77.6678 59.4441,86.3458 67.2542,89.8169 73.3288,89.8169 78.1017,87.6475 89.8169,77.6678 94.5898,69.8576 95.0237,53.3695" stroke="#00007f" stroke-width="2" /><polyline fill="none" points="69.4237,56.4068 72.461,60.3119 73.3288,74.1966 68.5559,87.2136 61.6136,91.9864 47.7288,95.0237 34.7119,94.1559 22.1288,88.0814 12.5831,79.4034 12.1492,76.8" stroke="#0000fe" stroke-width="2" /><polyline fill="none" points="21.261,62.4814 36.4475,73.7627 47.2949,85.0441 65.0847,100.2305 74.6305,105.4373 79.8373,106.3051 94.5898,105.4373 108.9085,101.0983 111.5119,98.4949 113.6814,91.9864 114.9831,77.6678" stroke="#0060ff" stroke-width="2" /><polyline fill="none" points="114.9831,72.8949 111.9458,76.3661 111.9458,81.139 118.8881,81.139 119.322,75.4983 117.1525,71.5932 111.078,68.5559" stroke="#00d4ff" stroke-width="2" /><polyline fill="none" points="96.7593,52.0678 97.1932,55.539 99.7966,55.1051 99.3627,48.1627" stroke="#4cffaa" stroke-width="2" /><polyline fill="none" points="69.4237,51.6339 68.122,60.7458 69.4237,62.0475 72.461,62.0475 73.3288,60.3119 74.6305,50.7661 65.0847,50.3322" stroke="#aaff4c" stroke-width="2" /><polyline fill="none" points="43.8237,39.4847 41.6542,50.7661 43.8237,49.8983 45.5593,45.1254" stroke="#ffe500" stroke-width="2" /><polyline fill="none" points="18.6576,55.9729 20.8271,58.5763 24.7322,68.5559 27.3356,68.9898 28.6373,63.3492 28.6373,58.1424 27.3356,57.2746 18.2237,59.878" stroke="#ff7a00" stroke-width="2" /><polyline fill="none" points="8.678,73.3288 13.0169,81.5729 15.6203,83.7424 17.7898,83.7424 19.9593,75.9322 19.9593,71.5932 18.6576,69.8576 15.6203,71.1593" stroke="#fe1200" stroke-width="2" /><polyline fill="none" points="62.4814,95.0237 62.0475,60.7458 67.6881,23.4305 67.2542,8.678" stroke="#7f0000" stroke-width="2" /></svg>