<?xml version="1.0" encoding="utf-8" ?>
<svg baseProfile="tiny" height="128" version="1.2" viewBox="0,0,128,128" width="128" xmlns="http://www.w3.org/2000/svg" xmlns:ev="http://www.w3.org/2001/xml-events" xmlns:xlink="http://www.w3.org/1999/xlink"><defs /><polyline fill="none" points="67.6881,8.678 66.3864,19.9593 66.3864,42.9559 64.6508,49.4644 48.5966,42.9559 40.7864,41.6542 36.0136,42.9559 27.7695,47.7288 17.7898,58.5763 10.8475,68.9898 9.1119,74.1966 8.678,85.9119" stroke="#00007f" stroke-width="2" /><polyline fill="none" points="71.5932,47.7288 79.8373,45.1254 86.3458,45.1254 99.7966,51.2 109.3424,62.4814 114.5492,73.3288 115.8508,79.4034 115.4169,87.2136" stroke="#0010ff" stroke-width="2" /><polyline fill="none" points="66.8203,49.8983 63.3492,51.6339 53.3695,78.1017 51.6339,89.3831 52.9356,90.2508" stroke="#00a4ff" stroke-width="2" /><polyline fill="none" points="76.3661,52.0678 80.7051,63.7831 81.5729,70.2915 79.4034,96.7593" stroke="#3fffb7" stroke-width="2" /><polyline fill="none" points="11.7153,87.6475 8.678,88.9492 13.0169,91.9864 16.922,89.3831 13.4508,87.6475 11.7153,88.5153" stroke="#b7ff3f" stroke-width="2" /><polyline fill="none" points="53.3695,92.8542 51.6339,95.8915 58.5763,93.2881 56.4068,92.8542" stroke="#ffb900" stroke-width="2" /><polyline fill="none" points="88.5153,93.2881 78.1017,105.0034 81.139,105.4373 85.478,103.2678 89.3831,99.3627 88.5153,96.3254 82.0068,98.9288" stroke="#ff3000" stroke-width="2" /><polyline fill="none" points="119.322,90.2508 115.4169,89.8169 112.8136,93.722 116.2847,95.4576 119.322,95.4576 118.8881,91.5525 114.1153,88.9492" stroke="#7f0000" stroke-width="2" /></svg>