<?xml version="1.0" encoding="utf-8" ?>
<svg baseProfile="tiny" height="128" version="1.2" viewBox="0,0,128,128" width="128" xmlns="http://www.w3.org/2000/svg" xmlns:ev="http://www.w3.org/2001/xml-events" xmlns:xlink="http://www.w3.org/1999/xlink"><defs /><polyline fill="none" points="65.0847,10.8475 63.7831,49.8983" stroke="#00007f" stroke-width="2" /><polyline fill="none" points="69.4237,47.2949 44.6915,55.1051 8.678,71.1593" stroke="#0000f1" stroke-width="2" /><polyline fill="none" points="12.5831,72.0271 54.6712,71.1593 93.2881,74.6305 118.0203,74.6305 119.322,73.3288 117.5864,71.1593 100.2305,59.878 84.6102,52.0678 68.122,47.2949" stroke="#004cff" stroke-width="2" /><polyline fill="none" points="54.2373,71.1593 54.6712,80.2712 58.1424,82.0068 62.0475,82.0068 63.7831,80.2712 65.5186,78.5356 65.9525,72.8949" stroke="#00b0ff" stroke-width="2" /><polyline fill="none" points="60.7458,75.0644 60.7458,75.0644" stroke="#29ffcd" stroke-width="2" /><polyline fill="none" points="59.4441,75.4983 59.4441,74.1966 57.7085,75.4983 59.0102,77.6678 59.0102,76.3661 55.1051,75.9322 55.1051,78.9695 58.1424,78.9695 59.0102,76.8 58.5763,75.0644 56.4068,74.1966 55.9729,75.9322 57.2746,76.8 60.7458,76.8 62.0475,75.4983 62.4814,72.0271 60.7458,71.5932 60.7458,74.6305 63.7831,74.6305 59.878,73.7627 59.0102,78.1017 60.7458,78.5356 62.0475,76.3661 62.0475,74.1966 61.1797,73.7627 59.878,75.9322 62.0475,77.2339 64.2169,77.2339 64.2169,74.6305 62.4814,74.6305 62.4814,78.1017 63.3492,78.9695 65.9525,76.8 65.9525,74.6305 61.6136,74.6305 60.7458,76.3661 65.0847,78.1017 66.3864,75.4983 64.6508,73.7627 62.0475,72.8949 60.3119,72.8949 60.3119,76.3661 62.0475,78.5356 65.5186,78.5356 66.8203,74.1966 62.4814,72.8949 59.0102,74.6305 59.4441,79.8373 63.3492,79.4034 63.7831,76.3661 61.1797,74.6305 62.0475,84.1763" stroke="#7cff79" stroke-width="2" /><polyline fill="none" points="41.6542,87.2136 34.7119,99.3627" stroke="#cdff29" stroke-width="2" /><polyline fill="none" points="49.0305,96.7593 49.0305,106.3051" stroke="#ffc400" stroke-width="2" /><polyline fill="none" points="64.2169,100.2305 72.8949,112.8136" stroke="#ff6700" stroke-width="2" /><polyline fill="none" points="75.4983,93.2881 78.5356,92.8542 88.9492,100.2305" stroke="#f10700" stroke-width="2" /><polyline fill="none" points="67.6881,44.2576 66.8203,42.522 65.0847,8.678 66.3864,36.8814 65.9525,40.7864 64.6508,36.0136 64.6508,16.4881" stroke="#7f0000" stroke-width="2" /></svg>