<?xml version="1.0" encoding="utf-8" ?>
<svg baseProfile="tiny" height="128" version="1.2" viewBox="0,0,128,128" width="128" xmlns="http://www.w3.org/2000/svg" xmlns:ev="http://www.w3.org/2001/xml-events" xmlns:xlink="http://www.w3.org/1999/xlink"><defs /><polyline fill="none" points="55.539,13.4508 55.539,25.6 42.0881,28.2034 37.3153,30.8068 31.6746,36.4475 29.5051,42.522 34.7119,43.8237 80.2712,40.3525 82.0068,39.9186 83.7424,36.4475 81.139,30.3729 73.3288,25.6 64.2169,24.2983 54.2373,25.6" stroke="#00007f" stroke-width="2" /><polyline fill="none" points="29.939,50.3322 25.1661,55.539 21.6949,68.122" stroke="#0000d1" stroke-width="2" /><polyline fill="none" points="37.3153,52.0678 36.0136,73.7627" stroke="#0010ff" stroke-width="2" /><polyline fill="none" points="49.8983,50.7661 58.5763,65.0847" stroke="#0058ff" stroke-width="2" /><polyline fill="none" points="65.9525,49.8983 72.0271,58.1424" stroke="#00a4ff" stroke-width="2" /><polyline fill="none" points="82.8746,46.861 83.7424,50.7661 86.3458,53.8034 89.8169,53.8034 91.9864,52.0678" stroke="#05ecf1" stroke-width="2" /><polyline fill="none" points="90.6847,46.861 93.722,51.6339" stroke="#3fffb7" stroke-width="2" /><polyline fill="none" points="87.2136,37.7492 98.061,32.1085" stroke="#7cff79" stroke-width="2" /><polyline fill="none" points="91.5525,24.7322 87.6475,23.8644 86.7797,20.8271 90.6847,9.1119" stroke="#b7ff3f" stroke-width="2" /><polyline fill="none" points="71.1593,24.2983 71.1593,9.5458" stroke="#f1fc05" stroke-width="2" /><polyline fill="none" points="39.4847,22.1288 31.6746,15.1864" stroke="#ffb900" stroke-width="2" /><polyline fill="none" points="26.4678,32.1085 21.261,32.5424" stroke="#ff7300" stroke-width="2" /><polyline fill="none" points="51.6339,40.7864 51.2,35.1458 53.3695,32.1085 57.7085,30.3729 62.9153,33.4102 63.7831,39.0508 60.3119,42.0881 57.7085,42.522 53.3695,35.5797" stroke="#ff3000" stroke-width="2" /><polyline fill="none" points="55.539,22.1288 54.2373,8.678 56.4068,23.8644 54.6712,9.1119 54.2373,25.1661 53.3695,10.8475 52.5017,29.5051 55.539,18.2237 55.539,11.7153 58.1424,21.6949 59.0102,10.8475 59.878,20.3932" stroke="#d10000" stroke-width="2" /><polyline fill="none" points="8.678,50.3322 39.4847,49.0305 119.322,53.3695" stroke="#7f0000" stroke-width="2" /></svg>