<?xml version="1.0" encoding="utf-8" ?>
<svg baseProfile="tiny" height="128" version="1.2" viewBox="0,0,128,128" width="128" xmlns="http://www.w3.org/2000/svg" xmlns:ev="http://www.w3.org/2001/xml-events" xmlns:xlink="http://www.w3.org/1999/xlink"><defs /><polyline fill="none" points="69.2245,37.4422 63.5646,39.1837 46.1497,39.1837 42.2313,36.1361 41.3605,32.2177 43.5374,29.6054 48.3265,26.9932 64.4354,23.0748 80.9796,23.5102 84.4626,24.8163 85.3333,28.7347 83.1565,31.7823 58.3401,41.7959" stroke="#00007f" stroke-width="2" /><polyline fill="none" points="44.4082,85.7687 33.5238,86.6395 23.5102,84.0272 11.7551,78.8027 8.7075,73.5782 10.8844,70.966 21.7687,67.0476 46.1497,64.0 59.2109,64.0 60.517,68.3537 58.3401,71.8367 47.4558,78.8027 30.0408,86.6395" stroke="#0000b6" stroke-width="2" /><polyline fill="none" points="102.3129,78.8027 84.4626,78.8027 78.8027,77.4966 67.9184,69.2245 67.9184,63.5646 80.1088,57.034 88.381,55.2925 104.9252,55.2925 116.6803,59.6463 119.2925,61.3878 119.2925,64.8707 77.4966,83.5918" stroke="#0000ec" stroke-width="2" /><polyline fill="none" points="13.4966,57.034 12.6259,67.9184 14.3673,75.3197" stroke="#0010ff" stroke-width="2" /><polyline fill="none" points="22.6395,59.2109 22.2041,76.6259" stroke="#0040ff" stroke-width="2" /><polyline fill="none" points="30.4762,62.6939 31.3469,75.3197" stroke="#0070ff" stroke-width="2" /><polyline fill="none" points="37.4422,65.7415 37.4422,75.7551" stroke="#00a4ff" stroke-width="2" /><polyline fill="none" points="45.7143,68.3537 47.4558,74.0136" stroke="#00d4ff" stroke-width="2" /><polyline fill="none" points="52.2449,67.0476 52.6803,74.0136" stroke="#18ffdd" stroke-width="2" /><polyline fill="none" points="74.449,61.8231 74.0136,78.3673" stroke="#3fffb7" stroke-width="2" /><polyline fill="none" points="80.1088,60.9524 80.5442,72.7075" stroke="#66ff90" stroke-width="2" /><polyline fill="none" points="86.6395,59.6463 87.0748,65.7415 89.2517,70.0952" stroke="#90ff66" stroke-width="2" /><polyline fill="none" points="97.9592,62.6939 101.0068,68.3537" stroke="#b7ff3f" stroke-width="2" /><polyline fill="none" points="107.5374,60.9524 108.4082,69.2245 109.7143,71.8367" stroke="#ddff18" stroke-width="2" /><polyline fill="none" points="44.8435,24.381 44.4082,29.1701 47.4558,36.5714" stroke="#ffe500" stroke-width="2" /><polyline fill="none" points="57.4694,22.2041 56.1633,23.9456 56.5986,31.7823" stroke="#ffb900" stroke-width="2" /><polyline fill="none" points="66.6122,23.0748 66.1769,28.7347" stroke="#ff8900" stroke-width="2" /><polyline fill="none" points="81.415,18.2857 80.9796,24.8163" stroke="#ff5c00" stroke-width="2" /><polyline fill="none" points="85.3333,23.0748 84.898,34.8299" stroke="#ff3000" stroke-width="2" /><polyline fill="none" points="65.7415,8.7075 64.8707,11.7551 64.4354,55.2925" stroke="#ec0300" stroke-width="2" /><polyline fill="none" points="37.4422,47.0204 36.5714,58.7755 38.3129,69.6599" stroke="#b60000" stroke-width="2" /><polyline fill="none" points="90.1224,48.3265 90.9932,65.7415" stroke="#7f0000" stroke-width="2" /></svg>