<?xml version="1.0" encoding="utf-8" ?>
<svg baseProfile="tiny" height="128" version="1.2" viewBox="0,0,128,128" width="128" xmlns="http://www.w3.org/2000/svg" xmlns:ev="http://www.w3.org/2001/xml-events" xmlns:xlink="http://www.w3.org/1999/xlink"><defs /><polyline fill="none" points="42.9559,47.7288 42.9559,70.2915 36.4475,101.9661 35.5797,119.322" stroke="#00007f" stroke-width="2" /><polyline fill="none" points="41.6542,47.2949 22.9966,51.2 19.5254,50.7661 8.678,45.5593 11.7153,39.9186 16.0542,39.0508 26.9017,43.3898 40.3525,41.6542 44.6915,44.2576 45.1254,46.861 55.539,45.5593 72.8949,45.5593 73.3288,49.8983 70.7254,50.7661 40.3525,51.6339" stroke="#0000ff" stroke-width="2" /><polyline fill="none" points="40.3525,51.6339 42.522,50.3322" stroke="#0080ff" stroke-width="2" /><polyline fill="none" points="42.9559,49.8983 42.9559,49.8983" stroke="#15ffe1" stroke-width="2" /><polyline fill="none" points="14.7525,39.4847 14.7525,32.1085 17.3559,19.0915 18.6576,17.7898 21.6949,22.5627 22.5627,40.7864" stroke="#7cff79" stroke-width="2" /><polyline fill="none" points="16.4881,16.922 14.7525,12.5831 17.7898,14.7525 19.0915,11.2814 20.3932,16.4881 21.6949,14.7525 22.1288,17.3559 24.2983,17.3559 23.4305,20.3932" stroke="#e4ff12" stroke-width="2" /><polyline fill="none" points="68.5559,44.6915 66.8203,27.7695 69.4237,18.6576 70.7254,18.6576 74.1966,22.9966 74.6305,25.6 75.0644,39.9186 73.3288,43.3898" stroke="#ff9400" stroke-width="2" /><polyline fill="none" points="73.3288,43.3898 73.3288,43.3898" stroke="#ff1d00" stroke-width="2" /><polyline fill="none" points="68.5559,15.6203 68.5559,9.5458 69.4237,8.678 71.5932,10.4136 72.461,16.4881 72.461,12.1492 72.0271,18.2237 74.6305,15.1864 73.7627,18.6576 75.0644,15.1864 75.0644,17.7898 78.1017,16.0542 72.8949,22.1288 71.1593,21.261 71.1593,15.6203 68.9898,19.9593 70.2915,16.0542 68.9898,18.6576 68.9898,14.7525 67.6881,15.1864 67.2542,17.7898 68.122,18.2237" stroke="#7f0000" stroke-width="2" /></svg>