<?xml version="1.0" encoding="utf-8" ?>
<svg baseProfile="tiny" height="128" version="1.2" viewBox="0,0,128,128" width="128" xmlns="http://www.w3.org/2000/svg" xmlns:ev="http://www.w3.org/2001/xml-events" xmlns:xlink="http://www.w3.org/1999/xlink"><defs /><polyline fill="none" points="65.9525,8.678 66.3864,53.8034 65.0847,68.122 61.6136,82.8746 54.2373,96.3254 47.7288,103.2678 35.5797,111.078 22.1288,114.9831 15.6203,112.8136 13.0169,109.7763 9.5458,104.1356 8.678,98.4949" stroke="#00007f" stroke-width="2" /><polyline fill="none" points="61.6136,83.3085 63.3492,101.9661 65.9525,112.3797 70.2915,117.1525 78.1017,119.322 88.5153,119.322 98.4949,114.9831 103.2678,107.1729 110.2102,83.7424" stroke="#004cff" stroke-width="2" /><polyline fill="none" points="77.2339,116.7186 78.1017,111.078 78.1017,78.9695" stroke="#29ffcd" stroke-width="2" /><polyline fill="none" points="91.1186,118.0203 90.6847,105.8712 86.7797,86.7797 87.2136,72.8949 89.8169,71.1593" stroke="#cdff29" stroke-width="2" /><polyline fill="none" points="25.6,114.9831 25.6,73.7627" stroke="#ff6700" stroke-width="2" /><polyline fill="none" points="45.5593,105.4373 45.1254,75.9322 47.7288,65.5186" stroke="#7f0000" stroke-width="2" /></svg>