<?xml version="1.0" encoding="utf-8" ?>
<svg baseProfile="tiny" height="128" version="1.2" viewBox="0,0,128,128" width="128" xmlns="http://www.w3.org/2000/svg" xmlns:ev="http://www.w3.org/2001/xml-events" xmlns:xlink="http://www.w3.org/1999/xlink"><defs /><polyline fill="none" points="60.3119,119.322 60.3119,119.322" stroke="#00007f" stroke-width="2" /><polyline fill="none" points="56.4068,11.7153 56.4068,37.3153 55.1051,45.5593 48.5966,61.6136 40.7864,70.2915 35.5797,73.7627 26.0339,75.9322 19.0915,76.8 13.0169,74.6305 11.2814,72.461 8.678,62.9153 9.5458,54.2373 11.7153,48.5966" stroke="#0080ff" stroke-width="2" /><polyline fill="none" points="61.1797,8.678 54.2373,37.3153 53.8034,58.5763 56.8407,78.1017 61.1797,85.9119 65.0847,89.8169 71.5932,91.9864 77.6678,91.9864 82.8746,90.2508 93.2881,85.0441 104.5695,75.4983 112.3797,64.6508 114.5492,57.7085 115.4169,51.2 114.1153,42.9559" stroke="#7cff79" stroke-width="2" /><polyline fill="none" points="59.4441,12.5831 56.8407,30.3729 56.4068,52.0678 59.878,65.5186 62.9153,70.2915 66.3864,73.3288 73.3288,74.1966 80.2712,70.2915 84.6102,64.6508 87.2136,58.5763 88.0814,51.2 87.2136,47.2949" stroke="#ff9400" stroke-width="2" /><polyline fill="none" points="56.4068,13.4508 53.8034,19.9593 51.6339,40.3525 48.5966,49.8983 45.9932,52.9356 34.278,55.9729 27.7695,55.1051 24.2983,51.2 23.4305,46.4271" stroke="#7f0000" stroke-width="2" /></svg>