<?xml version="1.0" encoding="utf-8" ?>
<svg baseProfile="tiny" height="128" version="1.2" viewBox="0,0,128,128" width="128" xmlns="http://www.w3.org/2000/svg" xmlns:ev="http://www.w3.org/2001/xml-events" xmlns:xlink="http://www.w3.org/1999/xlink"><defs /><polyline fill="none" points="54.6712,8.678 56.4068,33.8441 60.3119,54.6712" stroke="#00007f" stroke-width="2" /><polyline fill="none" points="60.3119,52.9356 29.939,55.9729 21.6949,61.6136 20.8271,63.3492 21.6949,63.3492 28.6373,62.9153 29.939,67.6881 38.6169,68.5559 34.7119,77.2339 44.6915,77.6678 55.9729,83.7424 58.1424,79.8373 65.9525,84.6102 71.5932,85.9119 75.0644,85.9119 75.9322,84.6102 72.461,76.8 82.4407,78.5356 99.7966,77.2339 100.2305,73.7627 96.3254,66.8203 99.7966,63.3492 99.3627,62.0475 92.4203,57.7085 72.461,55.1051 68.9898,56.8407 58.1424,56.4068 56.4068,57.2746 56.8407,65.9525 54.6712,69.8576 45.1254,60.7458 44.6915,57.7085 47.2949,55.9729 45.1254,58.5763 45.5593,61.6136 52.0678,63.3492 57.7085,69.8576 66.8203,74.1966 75.0644,75.4983 74.1966,71.5932 74.6305,67.2542 72.8949,63.7831" stroke="#0080ff" stroke-width="2" /><polyline fill="none" points="23.8644,76.3661 8.678,93.2881 12.5831,94.5898" stroke="#7cff79" stroke-width="2" /><polyline fill="none" points="53.3695,89.8169 53.3695,99.3627 55.539,109.3424 62.0475,116.7186 67.6881,118.4542" stroke="#ff9400" stroke-width="2" /><polyline fill="none" points="92.4203,103.2678 96.3254,109.3424 102.8339,115.4169 111.5119,119.322 114.1153,119.322 115.4169,118.0203" stroke="#7f0000" stroke-width="2" /></svg>