<?xml version="1.0" encoding="utf-8" ?>
<svg baseProfile="tiny" height="128" version="1.2" viewBox="0,0,128,128" width="128" xmlns="http://www.w3.org/2000/svg" xmlns:ev="http://www.w3.org/2001/xml-events" xmlns:xlink="http://www.w3.org/1999/xlink"><defs /><polyline fill="none" points="64.2169,8.678 63.3492,48.1627 47.7288,46.861 34.7119,52.9356 25.6,62.0475 21.6949,70.2915" stroke="#00007f" stroke-width="2" /><polyline fill="none" points="59.4441,47.2949 85.478,52.9356 95.0237,56.4068 101.0983,60.7458 104.1356,69.4237" stroke="#0000d1" stroke-width="2" /><polyline fill="none" points="62.4814,45.9932 62.0475,53.3695 64.6508,66.3864" stroke="#0010ff" stroke-width="2" /><polyline fill="none" points="22.9966,67.6881 19.9593,69.8576 19.5254,77.2339 23.4305,78.5356 26.4678,77.2339 28.2034,71.5932 26.0339,66.3864 19.5254,69.4237 20.3932,69.8576" stroke="#0058ff" stroke-width="2" /><polyline fill="none" points="62.0475,61.1797 52.9356,68.5559 52.0678,72.0271 63.7831,77.2339 67.6881,75.9322 68.9898,71.1593 64.6508,60.7458 62.9153,60.3119" stroke="#00a4ff" stroke-width="2" /><polyline fill="none" points="106.3051,65.9525 99.7966,64.2169 97.1932,67.2542 95.0237,72.461 95.0237,75.9322 96.7593,78.5356 102.4,79.4034 105.0034,78.1017 107.1729,70.7254 106.739,61.6136" stroke="#05ecf1" stroke-width="2" /><polyline fill="none" points="111.078,62.0475 118.0203,56.4068" stroke="#3fffb7" stroke-width="2" /><polyline fill="none" points="112.8136,67.6881 119.322,71.1593" stroke="#7cff79" stroke-width="2" /><polyline fill="none" points="115.4169,78.5356 118.8881,80.2712 118.8881,84.6102" stroke="#b7ff3f" stroke-width="2" /><polyline fill="none" points="53.3695,60.7458 49.4644,57.7085" stroke="#f1fc05" stroke-width="2" /><polyline fill="none" points="47.7288,68.5559 47.2949,68.5559" stroke="#ffb900" stroke-width="2" /><polyline fill="none" points="70.2915,64.2169 89.3831,53.3695" stroke="#ff7300" stroke-width="2" /><polyline fill="none" points="75.9322,67.6881 82.8746,69.4237 88.5153,72.461" stroke="#ff3000" stroke-width="2" /><polyline fill="none" points="21.6949,62.0475 19.0915,59.4441 14.3186,58.5763" stroke="#d10000" stroke-width="2" /><polyline fill="none" points="8.678,65.0847 8.678,65.0847" stroke="#7f0000" stroke-width="2" /></svg>