<?xml version="1.0" encoding="utf-8" ?>
<svg baseProfile="tiny" height="128" version="1.2" viewBox="0,0,128,128" width="128" xmlns="http://www.w3.org/2000/svg" xmlns:ev="http://www.w3.org/2001/xml-events" xmlns:xlink="http://www.w3.org/1999/xlink"><defs /><polyline fill="none" points="29.0712,117.5864 39.0508,119.322 62.4814,118.4542 62.9153,115.8508 57.7085,109.7763" stroke="#00007f" stroke-width="2" /><polyline fill="none" points="28.2034,115.8508 37.3153,111.9458 41.2203,107.6068 42.0881,99.7966 41.6542,85.0441 37.3153,81.139 16.0542,80.2712 12.1492,76.8 8.678,62.0475 10.4136,48.1627 13.4508,35.5797 14.7525,35.1458 19.0915,36.4475 16.4881,52.5017 21.6949,63.7831 32.1085,71.1593 41.2203,72.461 43.8237,71.1593 47.7288,62.0475 49.8983,47.2949 48.5966,31.6746 55.539,30.3729 55.539,45.1254 52.9356,60.7458 52.9356,70.2915 53.8034,73.7627 58.5763,76.8 63.7831,76.3661 70.2915,73.3288 74.1966,60.7458 74.1966,45.1254 82.4407,43.8237 81.139,69.4237 76.8,81.5729 72.461,85.478 66.3864,87.6475 60.3119,87.6475 54.2373,84.1763 53.3695,108.4746 56.4068,109.7763 60.3119,106.739" stroke="#00d4ff" stroke-width="2" /><polyline fill="none" points="77.2339,42.9559 78.5356,23.4305 82.0068,26.0339 81.139,42.9559 80.2712,41.6542" stroke="#ffe500" stroke-width="2" /><polyline fill="none" points="79.4034,22.5627 77.6678,18.2237 81.5729,12.1492 80.7051,8.678 82.8746,18.2237 80.7051,20.3932" stroke="#7f0000" stroke-width="2" /></svg>