<?xml version="1.0" encoding="utf-8" ?>
<svg baseProfile="tiny" height="128" version="1.2" viewBox="0,0,128,128" width="128" xmlns="http://www.w3.org/2000/svg" xmlns:ev="http://www.w3.org/2001/xml-events" xmlns:xlink="http://www.w3.org/1999/xlink"><defs /><polyline fill="none" points="55.9729,8.678 59.4441,33.4102 50.3322,32.1085 39.4847,36.0136 27.3356,43.8237 15.6203,56.8407 12.5831,73.3288 14.7525,99.7966" stroke="#00007f" stroke-width="2" /><polyline fill="none" points="56.8407,31.6746 60.3119,46.4271 64.6508,85.0441 65.5186,102.8339 63.7831,100.2305" stroke="#0010ff" stroke-width="2" /><polyline fill="none" points="59.4441,35.5797 59.878,30.8068 70.7254,29.939 86.7797,36.0136 98.061,44.2576 104.5695,55.539 108.9085,68.9898 111.5119,98.061 111.5119,102.4 109.7763,103.2678" stroke="#00a4ff" stroke-width="2" /><polyline fill="none" points="16.922,98.9288 12.1492,98.9288 9.1119,103.2678 9.1119,107.6068 15.6203,111.078 22.5627,109.3424 23.4305,105.0034 19.9593,100.6644 10.8475,101.5322 9.1119,103.7017 8.678,108.0407 13.4508,111.078 20.3932,108.9085 22.1288,106.739 21.6949,104.1356 17.7898,100.6644 15.1864,100.2305 9.5458,105.0034 10.4136,109.3424 17.3559,111.078 21.6949,108.9085" stroke="#3fffb7" stroke-width="2" /><polyline fill="none" points="61.6136,101.5322 63.7831,101.5322 64.2169,99.7966 59.878,101.5322 60.3119,105.8712 64.6508,108.0407 73.7627,107.6068 74.6305,105.4373 73.3288,104.1356 69.8576,101.5322 67.6881,101.9661 63.3492,104.5695 63.3492,106.739 65.5186,107.6068 66.3864,106.3051" stroke="#b7ff3f" stroke-width="2" /><polyline fill="none" points="102.4,104.5695 103.7017,104.5695" stroke="#ffb900" stroke-width="2" /><polyline fill="none" points="102.4,104.5695 112.3797,102.8339 108.0407,103.7017 105.8712,105.8712 106.3051,110.2102 108.4746,112.8136 118.8881,109.3424 119.322,107.1729 117.5864,105.0034 115.4169,103.7017 111.5119,104.5695" stroke="#ff3000" stroke-width="2" /><polyline fill="none" points="58.1424,33.4102 60.3119,33.4102 71.5932,43.8237 78.1017,55.539 81.139,69.4237" stroke="#7f0000" stroke-width="2" /></svg>