<?xml version="1.0" encoding="utf-8" ?>
<svg baseProfile="tiny" height="128" version="1.2" viewBox="0,0,128,128" width="128" xmlns="http://www.w3.org/2000/svg" xmlns:ev="http://www.w3.org/2001/xml-events" xmlns:xlink="http://www.w3.org/1999/xlink"><defs /><polyline fill="none" points="60.9524,9.5782 60.0816,16.9796 51.8095,29.6054 43.102,37.4422 25.2517,48.3265 19.1565,50.068 15.6735,48.3265 10.0136,39.619 8.7075,33.0884" stroke="#00007f" stroke-width="2" /><polyline fill="none" points="62.2585,8.7075 63.5646,25.6871 71.8367,36.5714 80.1088,42.6667 87.5102,45.7143 98.8299,46.585 119.2925,40.0544" stroke="#0080ff" stroke-width="2" /><polyline fill="none" points="59.2109,9.5782 60.517,21.3333 59.6463,41.7959 51.3741,49.1973 36.5714,57.034" stroke="#7cff79" stroke-width="2" /><polyline fill="none" points="64.0,14.8027 62.6939,16.5442 61.8231,35.7007 66.1769,50.9388 70.5306,57.4694 74.8844,60.9524 87.5102,62.2585" stroke="#ff9400" stroke-width="2" /><polyline fill="none" points="53.551,43.9728 49.1973,50.9388 41.3605,57.9048 31.7823,63.5646 23.5102,65.7415 36.5714,59.6463 56.1633,43.9728" stroke="#7f0000" stroke-width="2" /></svg>