<?xml version="1.0" encoding="utf-8" ?>
<svg baseProfile="tiny" height="128" version="1.2" viewBox="0,0,128,128" width="128" xmlns="http://www.w3.org/2000/svg" xmlns:ev="http://www.w3.org/2001/xml-events" xmlns:xlink="http://www.w3.org/1999/xlink"><defs /><polyline fill="none" points="65.0847,10.8475 58.1424,24.7322 58.5763,30.3729 63.3492,32.9763 71.1593,32.9763 76.3661,30.8068 78.5356,27.3356 78.5356,22.9966 75.9322,18.6576 65.5186,8.678" stroke="#00007f" stroke-width="2" /><polyline fill="none" points="65.5186,34.278 62.4814,50.3322" stroke="#0000fe" stroke-width="2" /><polyline fill="none" points="68.5559,33.4102 70.2915,39.4847 70.7254,49.8983" stroke="#0060ff" stroke-width="2" /><polyline fill="none" points="68.5559,52.0678 66.3864,50.3322 59.0102,50.3322 58.1424,53.8034 59.4441,57.2746 62.4814,59.4441 70.7254,59.4441 75.4983,55.539 75.9322,52.0678 74.1966,51.2 64.6508,51.2" stroke="#00d4ff" stroke-width="2" /><polyline fill="none" points="64.6508,64.6508 64.6508,67.6881" stroke="#4cffaa" stroke-width="2" /><polyline fill="none" points="69.8576,60.3119 70.7254,67.2542 72.8949,69.8576 81.5729,72.8949 93.722,73.7627 97.1932,72.8949 103.7017,66.8203 108.0407,59.0102" stroke="#aaff4c" stroke-width="2" /><polyline fill="none" points="66.3864,68.9898 59.4441,75.4983 54.6712,77.2339 40.3525,77.2339 22.5627,72.0271 17.3559,68.122 15.1864,62.0475 13.8847,68.122 14.7525,75.9322 17.7898,80.2712 22.9966,84.1763 36.4475,86.7797 59.0102,87.2136 71.5932,80.7051 74.1966,83.3085 77.6678,83.7424 107.6068,82.8746 114.1153,81.139 118.0203,77.2339 119.322,74.1966 119.322,64.6508 118.0203,61.1797 112.8136,58.1424 104.1356,58.1424" stroke="#ffe500" stroke-width="2" /><polyline fill="none" points="12.1492,62.9153 9.1119,55.9729 8.678,47.7288 10.4136,44.6915 16.4881,42.0881 19.0915,44.2576 19.5254,49.0305 14.3186,63.3492" stroke="#ff7a00" stroke-width="2" /><polyline fill="none" points="107.1729,54.6712 101.0983,46.4271 100.6644,42.0881 104.1356,37.7492 107.6068,37.3153 112.3797,45.5593 112.3797,54.6712 110.2102,56.8407" stroke="#fe1200" stroke-width="2" /><polyline fill="none" points="72.8949,68.122 76.8,67.6881" stroke="#7f0000" stroke-width="2" /></svg>