<?xml version="1.0" encoding="utf-8" ?>
<svg baseProfile="tiny" height="128" version="1.2" viewBox="0,0,128,128" width="128" xmlns="http://www.w3.org/2000/svg" xmlns:ev="http://www.w3.org/2001/xml-events" xmlns:xlink="http://www.w3.org/1999/xlink"><defs /><polyline fill="none" points="63.3492,8.678 60.7458,40.3525 62.0475,89.8169 59.878,95.4576" stroke="#00007f" stroke-width="2" /><polyline fill="none" points="55.539,97.1932 42.9559,95.0237 28.6373,87.6475 19.5254,79.4034 8.678,63.3492 46.861,64.6508 83.7424,59.4441 100.6644,59.4441 119.322,62.0475 108.4746,78.5356 98.9288,89.3831 88.5153,95.4576 75.4983,98.4949 62.4814,100.2305 54.2373,97.1932" stroke="#7cff79" stroke-width="2" /><polyline fill="none" points="13.8847,64.6508 13.4508,76.3661 19.5254,65.5186 20.3932,64.2169 22.1288,64.6508 22.1288,82.4407 23.4305,71.1593 26.4678,70.2915 29.939,95.4576 37.7492,69.8576 41.2203,63.7831 43.3898,92.8542 45.9932,62.9153 49.0305,89.3831 51.6339,99.7966 54.2373,96.3254 62.9153,72.0271 64.6508,69.4237 65.9525,69.4237 69.8576,97.1932" stroke="#7f0000" stroke-width="2" /></svg>