<?xml version="1.0" encoding="utf-8" ?>
<svg baseProfile="tiny" height="128" version="1.2" viewBox="0,0,128,128" width="128" xmlns="http://www.w3.org/2000/svg" xmlns:ev="http://www.w3.org/2001/xml-events" xmlns:xlink="http://www.w3.org/1999/xlink"><defs /><polyline fill="none" points="72.0271,8.678 68.5559,33.8441 66.3864,34.278 40.3525,29.0712 37.7492,36.4475 37.3153,48.5966 23.8644,49.0305 19.0915,48.1627 17.7898,70.2915" stroke="#00007f" stroke-width="2" /><polyline fill="none" points="67.6881,34.278 80.2712,34.278 88.0814,36.0136 85.9119,50.7661 97.1932,51.2 119.322,54.2373 113.6814,71.5932 111.078,67.2542 105.8712,64.6508 95.0237,64.6508 91.9864,65.9525 91.1186,67.6881 91.9864,76.8 95.8915,82.0068 106.3051,82.8746 114.5492,78.5356 117.1525,72.461 105.0034,66.8203" stroke="#00d4ff" stroke-width="2" /><polyline fill="none" points="16.4881,69.4237 9.9797,70.7254 8.678,76.3661 12.5831,80.7051 16.0542,82.4407 19.5254,82.4407 20.3932,73.7627 15.6203,69.8576" stroke="#ffe500" stroke-width="2" /><polyline fill="none" points="36.8814,48.1627 36.0136,55.539 44.6915,59.0102 46.861,57.2746 49.4644,49.4644 42.9559,47.7288" stroke="#7f0000" stroke-width="2" /></svg>