<?xml version="1.0" encoding="utf-8" ?>
<svg baseProfile="tiny" height="128" version="1.2" viewBox="0,0,128,128" width="128" xmlns="http://www.w3.org/2000/svg" xmlns:ev="http://www.w3.org/2001/xml-events" xmlns:xlink="http://www.w3.org/1999/xlink"><defs /><polyline fill="none" points="8.678,75.4983 36.4475,24.7322 41.6542,56.8407 52.0678,74.6305 53.8034,80.7051 58.5763,59.4441 70.7254,33.8441" stroke="#00007f" stroke-width="2" /><polyline fill="none" points="96.3254,78.1017 86.3458,78.5356 78.9695,74.1966 74.6305,63.7831 74.1966,53.8034 77.6678,44.2576 81.139,40.3525 87.6475,36.4475 98.9288,34.7119 108.9085,36.4475 114.5492,41.2203 118.4542,50.3322 119.322,61.1797 114.1153,71.1593 105.8712,78.9695 93.722,82.4407 88.9492,82.4407 87.2136,78.9695" stroke="#00d4ff" stroke-width="2" /><polyline fill="none" points="58.5763,31.6746 59.0102,13.4508 64.6508,8.678 65.9525,9.5458 66.8203,13.0169 66.8203,30.8068" stroke="#ffe500" stroke-width="2" /><polyline fill="none" points="60.7458,14.7525 63.3492,15.1864 63.7831,13.4508 62.9153,14.3186" stroke="#7f0000" stroke-width="2" /></svg>