<?xml version="1.0" encoding="utf-8" ?>
<svg baseProfile="tiny" height="128" version="1.2" viewBox="0,0,128,128" width="128" xmlns="http://www.w3.org/2000/svg" xmlns:ev="http://www.w3.org/2001/xml-events" xmlns:xlink="http://www.w3.org/1999/xlink"><defs /><polyline fill="none" points="8.678,36.8814 26.9017,36.8814 42.9559,31.6746 56.8407,22.5627 67.6881,8.678 80.2712,31.2407 88.5153,37.7492 101.0983,42.0881 110.2102,43.3898" stroke="#00007f" stroke-width="2" /><polyline fill="none" points="109.3424,43.3898 109.3424,56.4068 113.6814,63.7831 116.2847,72.0271 119.322,62.0475 119.322,54.2373 117.1525,46.4271 113.6814,42.9559" stroke="#0028ff" stroke-width="2" /><polyline fill="none" points="41.2203,32.5424 39.4847,45.9932 42.0881,47.2949 45.1254,43.8237 46.861,33.4102" stroke="#00d4ff" stroke-width="2" /><polyline fill="none" points="58.5763,20.8271 60.3119,28.6373 63.3492,29.5051 71.5932,28.6373 75.0644,22.5627" stroke="#7cff79" stroke-width="2" /><polyline fill="none" points="16.4881,43.3898 16.0542,64.2169 17.3559,67.2542 19.9593,68.5559 24.7322,65.9525 34.278,55.9729 38.1831,48.5966 38.6169,40.7864" stroke="#ffe500" stroke-width="2" /><polyline fill="none" points="86.7797,34.7119 86.7797,48.1627 91.1186,62.0475 95.0237,60.7458 100.2305,56.4068" stroke="#ff4600" stroke-width="2" /><polyline fill="none" points="68.9898,24.7322 68.5559,30.3729 62.9153,45.9932 63.7831,58.1424 66.3864,59.4441 71.1593,59.4441 73.3288,57.7085 77.2339,53.3695 81.139,44.2576" stroke="#7f0000" stroke-width="2" /></svg>