<?xml version="1.0" encoding="utf-8" ?>
<svg baseProfile="tiny" height="128" version="1.2" viewBox="0,0,128,128" width="128" xmlns="http://www.w3.org/2000/svg" xmlns:ev="http://www.w3.org/2001/xml-events" xmlns:xlink="http://www.w3.org/1999/xlink"><defs /><polyline fill="none" points="49.8983,8.678 50.7661,40.7864 45.5593,38.1831 35.1458,38.1831 26.0339,40.3525 17.3559,45.1254 11.7153,50.3322 9.9797,54.2373 9.5458,61.6136 11.2814,63.7831 16.922,67.2542 26.9017,69.8576 52.5017,71.1593 74.1966,70.2915 84.1763,68.5559 89.8169,65.9525 94.1559,62.9153 98.061,56.8407 97.1932,54.2373 91.1186,50.7661 76.8,45.1254 42.522,39.0508" stroke="#00007f" stroke-width="2" /><polyline fill="none" points="8.678,60.3119 8.678,74.1966 9.5458,75.9322" stroke="#0000d1" stroke-width="2" /><polyline fill="none" points="27.7695,69.4237 29.5051,76.8" stroke="#0010ff" stroke-width="2" /><polyline fill="none" points="50.3322,71.5932 54.2373,85.478" stroke="#0058ff" stroke-width="2" /><polyline fill="none" points="77.2339,71.1593 79.8373,84.1763" stroke="#00a4ff" stroke-width="2" /><polyline fill="none" points="91.5525,65.5186 95.4576,78.1017" stroke="#05ecf1" stroke-width="2" /><polyline fill="none" points="100.6644,57.2746 107.6068,64.6508" stroke="#3fffb7" stroke-width="2" /><polyline fill="none" points="36.4475,70.7254 34.278,75.0644 26.0339,81.139 21.6949,85.9119 19.9593,92.4203 21.261,97.6271 35.1458,104.5695 41.2203,105.8712 56.4068,108.0407 75.9322,108.0407 90.2508,105.8712 95.0237,103.2678 100.6644,98.4949 103.7017,91.5525 101.9661,85.9119 94.1559,79.8373 83.7424,75.0644 74.6305,67.2542" stroke="#7cff79" stroke-width="2" /><polyline fill="none" points="25.1661,101.9661 24.2983,106.3051" stroke="#b7ff3f" stroke-width="2" /><polyline fill="none" points="40.3525,102.4 40.3525,114.1153 41.6542,119.322" stroke="#f1fc05" stroke-width="2" /><polyline fill="none" points="55.9729,106.739 59.4441,116.7186" stroke="#ffb900" stroke-width="2" /><polyline fill="none" points="70.7254,110.6441 74.6305,118.0203" stroke="#ff7300" stroke-width="2" /><polyline fill="none" points="88.0814,108.4746 96.7593,115.4169" stroke="#ff3000" stroke-width="2" /><polyline fill="none" points="98.9288,102.8339 103.7017,112.8136" stroke="#d10000" stroke-width="2" /><polyline fill="none" points="47.2949,108.4746 41.2203,108.9085 33.4102,115.8508" stroke="#7f0000" stroke-width="2" /></svg>