<?xml version="1.0" encoding="utf-8" ?>
<svg baseProfile="tiny" height="128" version="1.2" viewBox="0,0,128,128" width="128" xmlns="http://www.w3.org/2000/svg" xmlns:ev="http://www.w3.org/2001/xml-events" xmlns:xlink="http://www.w3.org/1999/xlink"><defs /><polyline fill="none" points="59.878,8.678 46.4271,37.3153 35.5797,65.9525 34.7119,72.0271" stroke="#00007f" stroke-width="2" /><polyline fill="none" points="81.139,9.5458 84.6102,42.0881 84.6102,74.6305" stroke="#0000f1" stroke-width="2" /><polyline fill="none" points="12.1492,53.8034 12.1492,53.8034" stroke="#004cff" stroke-width="2" /><polyline fill="none" points="8.678,64.6508 20.8271,72.0271 33.8441,77.6678 51.2,82.4407 70.7254,84.6102 80.2712,84.6102 101.5322,80.7051 114.1153,75.0644 119.322,68.5559" stroke="#00b0ff" stroke-width="2" /><polyline fill="none" points="13.4508,64.2169 16.922,47.7288" stroke="#29ffcd" stroke-width="2" /><polyline fill="none" points="26.4678,70.7254 29.5051,65.9525 30.3729,57.2746 33.4102,50.7661" stroke="#7cff79" stroke-width="2" /><polyline fill="none" points="37.3153,80.2712 48.5966,60.3119" stroke="#cdff29" stroke-width="2" /><polyline fill="none" points="56.8407,78.9695 64.6508,61.1797" stroke="#ffc400" stroke-width="2" /><polyline fill="none" points="79.4034,82.4407 83.3085,75.9322 86.3458,64.2169" stroke="#ff6700" stroke-width="2" /><polyline fill="none" points="101.0983,61.6136 102.8339,73.3288" stroke="#f10700" stroke-width="2" /><polyline fill="none" points="113.6814,56.8407 114.9831,65.5186" stroke="#7f0000" stroke-width="2" /></svg>