<?xml version="1.0" encoding="utf-8" ?>
<svg baseProfile="tiny" height="128" version="1.2" viewBox="0,0,128,128" width="128" xmlns="http://www.w3.org/2000/svg" xmlns:ev="http://www.w3.org/2001/xml-events" xmlns:xlink="http://www.w3.org/1999/xlink"><defs /><polyline fill="none" points="62.2585,8.7075 66.1769,23.0748 68.3537,46.585 70.966,60.9524 66.6122,72.2721 69.6599,66.6122 70.5306,67.9184 71.4014,89.6871 65.3061,104.9252 56.5986,112.7619 47.8912,114.5034 37.8776,114.068 23.9456,105.7959 13.4966,92.7347 9.1429,81.8503 8.7075,70.5306 10.449,66.6122 13.4966,64.8707" stroke="#00007f" stroke-width="2" /><polyline fill="none" points="67.9184,60.9524 72.2721,64.8707 76.1905,72.2721 80.5442,88.8163 84.898,99.2653 90.1224,103.1837 97.0884,104.4898 106.6667,101.8776 112.7619,97.9592 116.6803,92.2993 119.2925,80.9796 118.4218,72.7075 114.5034,65.3061 107.9728,58.7755 104.0544,57.4694" stroke="#00d4ff" stroke-width="2" /><polyline fill="none" points="65.7415,57.034 67.483,60.0816 67.483,64.4354 63.1293,77.932 56.1633,85.3333 50.068,87.5102 45.7143,87.0748 40.4898,84.898 34.8299,77.4966 31.7823,67.483 33.9592,60.9524" stroke="#ffe500" stroke-width="2" /><polyline fill="none" points="69.6599,58.7755 73.5782,66.6122 76.1905,68.7891 81.415,70.5306 88.8163,70.0952 92.7347,65.7415 94.0408,60.0816 92.2993,51.8095 89.2517,47.8912" stroke="#7f0000" stroke-width="2" /></svg>