<?xml version="1.0" encoding="utf-8" ?>
<svg baseProfile="tiny" height="128" version="1.2" viewBox="0,0,128,128" width="128" xmlns="http://www.w3.org/2000/svg" xmlns:ev="http://www.w3.org/2001/xml-events" xmlns:xlink="http://www.w3.org/1999/xlink"><defs /><polyline fill="none" points="57.034,19.5918 57.9048,20.898 59.2109,19.5918 59.2109,15.2381 53.9864,10.0136" stroke="#00007f" stroke-width="2" /><polyline fill="none" points="65.7415,18.7211 66.6122,10.449 64.8707,8.7075 61.3878,8.7075 60.9524,10.0136" stroke="#0010ff" stroke-width="2" /><polyline fill="none" points="69.2245,12.6259 70.5306,12.6259 70.5306,8.7075" stroke="#00a4ff" stroke-width="2" /><polyline fill="none" points="82.7211,10.449 81.415,10.449 84.0272,10.8844 84.4626,9.5782 80.5442,9.1429" stroke="#3fffb7" stroke-width="2" /><polyline fill="none" points="65.3061,18.2857 64.4354,30.0408 53.1156,35.7007 33.9592,41.7959 19.5918,40.9252 20.0272,49.1973 26.9932,69.2245 35.7007,77.0612 45.7143,79.2381 50.5034,70.966 50.5034,59.6463 48.3265,57.034 42.2313,56.1633" stroke="#b7ff3f" stroke-width="2" /><polyline fill="none" points="81.415,16.1088 81.415,18.7211 83.1565,20.898 96.2177,22.6395 98.8299,26.1224 101.8776,40.4898 101.8776,57.9048 99.2653,70.966 94.9116,80.5442 82.7211,81.415 71.8367,78.3673 65.3061,72.2721 64.8707,62.2585 67.0476,56.1633 71.4014,50.9388 79.6735,46.585" stroke="#ffb900" stroke-width="2" /><polyline fill="none" points="50.068,46.585 40.0544,69.2245 23.5102,101.4422 12.6259,101.8776 8.7075,100.5714 10.8844,102.7483 27.4286,103.619 26.5578,83.1565" stroke="#ff3000" stroke-width="2" /><polyline fill="none" points="79.2381,79.6735 77.932,80.9796 80.9796,84.898 90.1224,89.2517 92.7347,91.8639 69.6599,119.2925 62.6939,118.8571 54.4218,113.1973 51.8095,109.7143 48.3265,99.2653 49.6327,91.4286" stroke="#7f0000" stroke-width="2" /></svg>