<?xml version="1.0" encoding="utf-8" ?>
<svg baseProfile="tiny" height="128" version="1.2" viewBox="0,0,128,128" width="128" xmlns="http://www.w3.org/2000/svg" xmlns:ev="http://www.w3.org/2001/xml-events" xmlns:xlink="http://www.w3.org/1999/xlink"><defs /><polyline fill="none" points="55.1051,8.678 56.4068,56.8407" stroke="#00007f" stroke-width="2" /><polyline fill="none" points="114.5492,56.8407 69.4237,56.8407 23.4305,59.4441 9.9797,55.9729 8.678,60.7458 9.1119,71.1593 12.5831,73.3288 29.0712,73.3288 68.9898,70.7254 75.0644,69.4237 101.9661,68.5559 109.3424,67.2542 119.322,64.6508 115.8508,55.1051" stroke="#0000cc" stroke-width="2" /><polyline fill="none" points="104.5695,49.4644 103.2678,53.8034" stroke="#0008ff" stroke-width="2" /><polyline fill="none" points="85.478,49.0305 84.1763,56.4068" stroke="#004cff" stroke-width="2" /><polyline fill="none" points="40.7864,53.3695 40.7864,57.2746" stroke="#0090ff" stroke-width="2" /><polyline fill="none" points="17.7898,52.5017 17.7898,60.3119" stroke="#00d4ff" stroke-width="2" /><polyline fill="none" points="12.5831,57.2746 21.6949,65.5186 32.9763,67.2542 43.3898,66.3864 49.0305,64.2169 53.8034,60.3119 61.1797,59.0102 68.5559,63.3492 72.8949,67.6881 76.3661,68.122 86.7797,68.122 95.8915,59.878 98.4949,59.4441 106.739,59.878 111.5119,62.0475 111.9458,64.2169" stroke="#29ffcd" stroke-width="2" /><polyline fill="none" points="110.2102,65.9525 110.2102,73.3288" stroke="#5fff96" stroke-width="2" /><polyline fill="none" points="99.3627,71.5932 94.1559,72.8949 91.9864,76.3661" stroke="#96ff5f" stroke-width="2" /><polyline fill="none" points="79.8373,71.5932 77.6678,78.1017" stroke="#cdff29" stroke-width="2" /><polyline fill="none" points="60.3119,71.1593 55.1051,78.9695" stroke="#ffe500" stroke-width="2" /><polyline fill="none" points="40.3525,73.7627 32.5424,80.7051" stroke="#ffa600" stroke-width="2" /><polyline fill="none" points="18.6576,72.0271 18.6576,75.0644" stroke="#ff6700" stroke-width="2" /><polyline fill="none" points="44.6915,75.0644 45.5593,82.8746 50.3322,86.7797 55.9729,86.7797 68.122,78.9695 70.2915,65.9525" stroke="#ff2800" stroke-width="2" /><polyline fill="none" points="82.4407,66.8203 85.0441,79.4034 88.0814,81.139 93.722,81.5729 102.8339,78.9695 104.5695,73.7627 104.5695,63.7831" stroke="#cc0000" stroke-width="2" /><polyline fill="none" points="31.6746,72.8949 26.9017,78.1017 21.6949,80.7051 19.0915,78.9695" stroke="#7f0000" stroke-width="2" /></svg>