<?xml version="1.0" encoding="utf-8" ?>
<svg baseProfile="tiny" height="128" version="1.2" viewBox="0,0,128,128" width="128" xmlns="http://www.w3.org/2000/svg" xmlns:ev="http://www.w3.org/2001/xml-events" xmlns:xlink="http://www.w3.org/1999/xlink"><defs /><polyline fill="none" points="54.6712,8.678 56.4068,30.3729" stroke="#00007f" stroke-width="2" /><polyline fill="none" points="56.4068,30.3729 50.3322,29.0712 37.3153,29.939 22.9966,36.4475 13.4508,43.3898 8.678,49.4644 10.4136,54.2373 14.3186,57.7085 19.0915,58.5763 26.4678,58.1424 29.939,55.9729 30.8068,52.9356 29.939,50.3322 26.4678,47.7288 19.9593,45.9932 9.1119,48.1627" stroke="#0028ff" stroke-width="2" /><polyline fill="none" points="57.7085,30.3729 71.1593,25.6 81.5729,25.6 86.7797,26.0339 97.6271,31.6746 109.3424,42.0881 100.6644,40.7864 98.061,41.2203 95.8915,43.8237 96.7593,49.0305 100.2305,52.9356 104.1356,54.6712 108.4746,55.9729 117.1525,55.1051 119.322,49.8983 118.4542,44.2576 106.739,41.2203" stroke="#00d4ff" stroke-width="2" /><polyline fill="none" points="57.2746,30.8068 57.2746,41.6542" stroke="#7cff79" stroke-width="2" /><polyline fill="none" points="57.2746,41.6542 52.0678,44.2576 52.0678,49.0305 56.4068,53.8034 60.7458,54.6712 67.2542,51.6339 67.6881,48.1627 61.1797,42.522 55.9729,42.0881" stroke="#ffe500" stroke-width="2" /><polyline fill="none" points="57.2746,26.0339 54.2373,26.9017 47.7288,33.8441 44.6915,39.0508 42.9559,47.2949 42.522,55.9729 48.1627,66.8203" stroke="#ff4600" stroke-width="2" /><polyline fill="none" points="54.6712,65.0847 49.8983,64.6508 43.3898,67.2542 41.6542,70.2915 40.7864,76.8 46.4271,79.8373 52.0678,80.2712 57.2746,76.3661 59.4441,70.2915 59.4441,62.9153 56.4068,61.1797 51.2,61.6136" stroke="#7f0000" stroke-width="2" /></svg>