<?xml version="1.0" encoding="utf-8" ?>
<svg baseProfile="tiny" height="128" version="1.2" viewBox="0,0,128,128" width="128" xmlns="http://www.w3.org/2000/svg" xmlns:ev="http://www.w3.org/2001/xml-events" xmlns:xlink="http://www.w3.org/1999/xlink"><defs /><polyline fill="none" points="45.1254,8.678 42.522,55.1051 42.522,91.1186 43.8237,98.4949" stroke="#00007f" stroke-width="2" /><polyline fill="none" points="43.8237,98.9288 31.2407,90.6847 27.3356,82.0068 15.6203,81.5729 10.4136,85.0441 8.678,91.5525 8.678,99.7966 13.0169,106.3051 21.6949,113.2475 33.8441,118.0203 54.6712,119.322 65.9525,116.2847 71.1593,113.6814 79.4034,105.0034 82.8746,97.1932 84.6102,90.2508 84.1763,84.1763 80.7051,81.139 66.3864,81.139 60.3119,85.0441 55.9729,92.4203 50.7661,96.7593 37.3153,98.4949" stroke="#00d4ff" stroke-width="2" /><polyline fill="none" points="16.922,80.7051 16.922,66.3864 15.1864,81.5729 16.0542,71.5932 13.4508,80.7051 15.6203,82.0068 16.4881,79.8373 17.3559,72.0271 15.1864,75.0644 16.922,75.0644 17.7898,68.9898 15.1864,73.3288 14.3186,81.139 20.3932,82.8746" stroke="#ffe500" stroke-width="2" /><polyline fill="none" points="82.8746,80.2712 79.4034,72.8949 77.6678,72.8949 76.8,75.0644 78.1017,71.5932 78.9695,77.6678 80.2712,76.3661 81.139,64.6508 78.5356,75.0644 77.6678,61.1797 75.0644,61.6136 72.0271,66.8203 69.8576,73.7627 73.3288,71.5932 75.0644,64.6508 74.6305,77.6678 75.4983,79.4034 77.2339,76.8 76.8,72.8949" stroke="#7f0000" stroke-width="2" /></svg>