<?xml version="1.0" encoding="utf-8" ?>
<svg baseProfile="tiny" height="128" version="1.2" viewBox="0,0,128,128" width="128" xmlns="http://www.w3.org/2000/svg" xmlns:ev="http://www.w3.org/2001/xml-events" xmlns:xlink="http://www.w3.org/1999/xlink"><defs /><polyline fill="none" points="36.4475,118.8881 41.2203,118.8881 43.8237,116.2847 51.2,112.8136 65.5186,112.3797 70.2915,114.1153 75.0644,118.4542 82.4407,119.322" stroke="#00007f" stroke-width="2" /><polyline fill="none" points="58.1424,111.9458 56.8407,89.8169 59.878,73.3288 55.9729,55.539 56.8407,36.4475" stroke="#0028ff" stroke-width="2" /><polyline fill="none" points="59.0102,70.7254 71.1593,72.8949 84.1763,72.8949 97.1932,63.3492 98.9288,51.6339" stroke="#00d4ff" stroke-width="2" /><polyline fill="none" points="59.0102,69.8576 46.861,71.1593 36.0136,70.7254 14.7525,58.5763 15.6203,51.2 16.922,49.8983" stroke="#7cff79" stroke-width="2" /><polyline fill="none" points="16.4881,49.8983 11.2814,47.7288 8.678,40.3525 16.922,31.6746 19.5254,41.2203 22.9966,45.9932 22.5627,48.5966 19.5254,49.8983" stroke="#ffe500" stroke-width="2" /><polyline fill="none" points="53.3695,34.7119 48.5966,34.278 46.861,31.6746 48.5966,16.922 52.9356,9.5458 60.3119,8.678 63.3492,12.5831 59.4441,22.1288 62.0475,32.1085 59.878,34.7119 52.0678,36.8814" stroke="#ff4600" stroke-width="2" /><polyline fill="none" points="98.061,47.7288 95.0237,46.861 92.8542,44.6915 91.5525,39.0508 91.9864,33.8441 96.7593,27.3356 96.7593,25.1661 97.6271,36.8814 100.2305,38.1831 101.9661,42.9559 100.6644,46.4271" stroke="#7f0000" stroke-width="2" /></svg>