<?xml version="1.0" encoding="utf-8" ?>
<svg baseProfile="tiny" height="128" version="1.2" viewBox="0,0,128,128" width="128" xmlns="http://www.w3.org/2000/svg" xmlns:ev="http://www.w3.org/2001/xml-events" xmlns:xlink="http://www.w3.org/1999/xlink"><defs /><polyline fill="none" points="48.5966,8.678 48.5966,19.0915 42.522,56.8407 37.3153,70.7254 35.5797,72.0271 32.1085,71.5932 14.7525,65.5186 24.2983,69.4237 31.2407,70.2915 42.9559,70.2915 55.1051,68.122 76.8,69.4237 82.8746,72.461 85.0441,76.8 85.0441,80.7051 77.6678,88.9492 66.8203,93.722 52.0678,93.722 38.1831,91.5525" stroke="#00007f" stroke-width="2" /><polyline fill="none" points="27.7695,86.7797 21.261,85.0441 14.7525,76.3661 13.4508,66.8203 14.7525,65.9525" stroke="#0000d5" stroke-width="2" /><polyline fill="none" points="8.678,80.7051 11.2814,112.3797" stroke="#001cff" stroke-width="2" /><polyline fill="none" points="20.8271,77.2339 20.8271,99.3627" stroke="#006cff" stroke-width="2" /><polyline fill="none" points="25.6,77.6678 26.9017,108.0407" stroke="#00b8ff" stroke-width="2" /><polyline fill="none" points="30.8068,83.3085 31.6746,110.6441" stroke="#1cffda" stroke-width="2" /><polyline fill="none" points="38.1831,93.722 39.9186,114.9831" stroke="#5cff9a" stroke-width="2" /><polyline fill="none" points="43.3898,91.1186 43.8237,110.6441 45.1254,118.8881 46.4271,119.322" stroke="#9aff5c" stroke-width="2" /><polyline fill="none" points="52.0678,94.5898 56.4068,113.2475" stroke="#daff1c" stroke-width="2" /><polyline fill="none" points="62.4814,97.1932 68.122,114.5492 70.2915,117.5864 70.7254,116.2847" stroke="#ffcb00" stroke-width="2" /><polyline fill="none" points="74.6305,92.8542 81.139,109.7763" stroke="#ff8500" stroke-width="2" /><polyline fill="none" points="85.0441,87.2136 89.3831,98.4949" stroke="#ff3b00" stroke-width="2" /><polyline fill="none" points="88.9492,85.9119 91.1186,92.4203" stroke="#d50000" stroke-width="2" /><polyline fill="none" points="90.6847,75.0644 95.8915,87.2136" stroke="#7f0000" stroke-width="2" /></svg>