<?xml version="1.0" encoding="utf-8" ?>
<svg baseProfile="tiny" height="128" version="1.2" viewBox="0,0,128,128" width="128" xmlns="http://www.w3.org/2000/svg" xmlns:ev="http://www.w3.org/2001/xml-events" xmlns:xlink="http://www.w3.org/1999/xlink"><defs /><polyline fill="none" points="57.9048,8.7075 59.2109,20.4626 59.2109,57.4694" stroke="#00007f" stroke-width="2" /><polyline fill="none" points="59.2109,57.034 56.1633,57.9048 40.4898,48.3265 30.0408,48.7619 18.2857,57.4694 15.6735,70.0952" stroke="#0000de" stroke-width="2" /><polyline fill="none" points="63.5646,56.5986 59.6463,56.5986 60.9524,55.2925 70.966,50.9388 81.415,48.7619 94.9116,48.7619 100.1361,50.068 104.0544,53.1156 107.102,57.034 108.8435,64.0" stroke="#0028ff" stroke-width="2" /><polyline fill="none" points="57.4694,59.6463 58.3401,58.3401 63.5646,57.034 72.2721,58.7755 77.932,67.0476 79.6735,77.932" stroke="#0080ff" stroke-width="2" /><polyline fill="none" points="59.6463,59.2109 53.551,56.1633 46.1497,59.2109 40.0544,65.7415 35.7007,79.6735" stroke="#00d4ff" stroke-width="2" /><polyline fill="none" points="58.3401,55.7279 67.0476,45.2789 75.7551,40.0544 80.1088,39.1837 83.5918,40.9252 85.7687,47.0204" stroke="#36ffc0" stroke-width="2" /><polyline fill="none" points="56.1633,57.034 52.6803,45.2789 43.5374,38.7483 37.0068,37.4422 31.3469,37.4422 24.381,40.9252 19.1565,45.2789" stroke="#7cff79" stroke-width="2" /><polyline fill="none" points="14.3673,69.6599 12.1905,74.449 13.0612,75.7551 15.2381,74.8844 16.1088,71.4014 12.1905,71.8367" stroke="#c0ff36" stroke-width="2" /><polyline fill="none" points="22.2041,43.5374 19.5918,43.9728 13.4966,48.7619 8.7075,53.9864 10.0136,55.2925 14.8027,53.551 21.7687,48.3265 22.6395,45.2789 19.1565,43.9728" stroke="#ffe500" stroke-width="2" /><polyline fill="none" points="36.5714,79.6735 32.6531,84.4626 31.7823,88.8163 37.8776,88.381 36.5714,77.932" stroke="#ff9400" stroke-width="2" /><polyline fill="none" points="80.1088,78.3673 74.449,82.7211 71.8367,87.5102 85.3333,88.8163 84.898,85.3333 80.1088,80.5442" stroke="#ff4600" stroke-width="2" /><polyline fill="none" points="113.6327,64.4354 102.7483,77.0612 104.4898,78.3673 116.2449,78.8027 119.2925,76.1905 118.4218,70.5306 110.585,64.0" stroke="#de0000" stroke-width="2" /><polyline fill="none" points="86.2041,44.8435 82.7211,47.8912 77.932,57.034 91.8639,57.034 85.3333,43.102" stroke="#7f0000" stroke-width="2" /></svg>