<?xml version="1.0" encoding="utf-8" ?>
<svg baseProfile="tiny" height="128" version="1.2" viewBox="0,0,128,128" width="128" xmlns="http://www.w3.org/2000/svg" xmlns:ev="http://www.w3.org/2001/xml-events" xmlns:xlink="http://www.w3.org/1999/xlink"><defs /><polyline fill="none" points="66.8203,14.3186 66.8203,61.6136 65.5186,19.0915" stroke="#00007f" stroke-width="2" /><polyline fill="none" points="39.9186,9.1119 90.6847,8.678" stroke="#0080ff" stroke-width="2" /><polyline fill="none" points="68.122,59.0102 65.5186,69.8576 62.4814,72.8949 48.1627,77.2339 35.1458,77.2339 26.9017,73.3288 19.0915,65.5186 17.3559,61.6136 16.4881,53.3695" stroke="#7cff79" stroke-width="2" /><polyline fill="none" points="69.8576,63.7831 71.1593,68.5559 79.4034,74.6305 84.1763,75.9322 97.1932,75.9322 101.5322,74.1966 108.9085,68.5559 113.2475,61.1797 116.2847,54.6712 119.322,41.6542" stroke="#ff9400" stroke-width="2" /><polyline fill="none" points="8.678,49.4644 23.8644,55.1051 16.0542,47.2949 14.3186,50.7661 15.1864,53.8034 13.0169,52.0678" stroke="#7f0000" stroke-width="2" /></svg>