<?xml version="1.0" encoding="utf-8" ?>
<svg baseProfile="tiny" height="128" version="1.2" viewBox="0,0,128,128" width="128" xmlns="http://www.w3.org/2000/svg" xmlns:ev="http://www.w3.org/2001/xml-events" xmlns:xlink="http://www.w3.org/1999/xlink"><defs /><polyline fill="none" points="58.5763,8.678 62.9153,24.7322 62.9153,36.8814 61.1797,45.9932 53.3695,50.3322 43.3898,47.7288 32.5424,42.0881 23.4305,31.6746 22.5627,44.6915 25.6,49.8983 29.939,52.9356 42.522,55.9729 52.0678,56.4068 60.7458,52.0678 63.3492,48.1627 63.7831,42.9559" stroke="#00007f" stroke-width="2" /><polyline fill="none" points="65.0847,40.3525 64.6508,49.0305 62.0475,52.0678 59.878,52.9356 22.1288,55.539 8.678,49.0305 12.5831,58.5763 18.6576,64.2169 29.0712,68.5559 39.9186,69.8576 49.0305,68.122 56.8407,64.2169 62.9153,57.2746 66.3864,46.4271" stroke="#004cff" stroke-width="2" /><polyline fill="none" points="64.6508,46.861 66.8203,71.1593 71.1593,84.6102 73.7627,88.5153 78.1017,88.9492 78.9695,77.2339 71.1593,40.3525 69.4237,37.3153 64.2169,37.3153" stroke="#29ffcd" stroke-width="2" /><polyline fill="none" points="66.8203,37.3153 72.461,42.522 77.2339,52.9356 82.8746,59.4441 89.8169,63.7831 99.3627,64.2169 110.6441,59.4441 112.3797,55.539 111.5119,49.8983 101.5322,43.3898 78.1017,42.0881 72.0271,39.4847 69.4237,36.8814" stroke="#cdff29" stroke-width="2" /><polyline fill="none" points="68.5559,35.5797 78.5356,39.0508 100.6644,38.6169 111.078,36.0136 119.322,29.939 65.0847,32.1085" stroke="#ff6700" stroke-width="2" /><polyline fill="none" points="61.6136,39.4847 46.4271,39.0508 42.522,37.7492 38.6169,31.6746 32.5424,14.3186 41.6542,19.9593 55.1051,32.1085 68.9898,41.2203" stroke="#7f0000" stroke-width="2" /></svg>