<?xml version="1.0" encoding="utf-8" ?>
<svg baseProfile="tiny" height="128" version="1.2" viewBox="0,0,128,128" width="128" xmlns="http://www.w3.org/2000/svg" xmlns:ev="http://www.w3.org/2001/xml-events" xmlns:xlink="http://www.w3.org/1999/xlink"><defs /><polyline fill="none" points="85.478,8.678 83.3085,90.6847 81.5729,92.4203" stroke="#00007f" stroke-width="2" /><polyline fill="none" points="47.7288,44.6915 48.5966,65.5186 58.1424,79.8373 69.4237,86.7797 92.4203,87.6475 98.4949,84.6102 111.078,70.2915 115.4169,61.6136 118.0203,52.0678 119.322,37.7492 109.7763,44.2576" stroke="#7cff79" stroke-width="2" /><polyline fill="none" points="85.0441,83.7424 82.8746,95.8915 79.4034,103.7017 75.9322,107.1729 62.4814,112.3797 48.1627,113.2475 38.1831,110.2102 34.7119,105.4373 29.5051,103.7017 19.0915,97.6271 14.7525,91.5525 10.8475,89.3831 9.1119,86.7797 8.678,79.4034 13.4508,72.8949" stroke="#7f0000" stroke-width="2" /></svg>