<?xml version="1.0" encoding="utf-8" ?>
<svg baseProfile="tiny" height="128" version="1.2" viewBox="0,0,128,128" width="128" xmlns="http://www.w3.org/2000/svg" xmlns:ev="http://www.w3.org/2001/xml-events" xmlns:xlink="http://www.w3.org/1999/xlink"><defs /><polyline fill="none" points="63.7831,8.678 67.2542,47.2949 55.9729,63.7831 50.3322,65.0847 37.3153,65.5186 29.5051,62.9153 23.8644,56.4068 18.6576,39.4847" stroke="#00007f" stroke-width="2" /><polyline fill="none" points="68.9898,49.0305 84.6102,65.9525 92.4203,68.122 98.4949,67.2542 103.7017,64.2169 113.6814,54.2373 118.0203,46.861 119.322,39.9186" stroke="#7cff79" stroke-width="2" /><polyline fill="none" points="17.7898,35.5797 14.3186,36.0136 9.5458,41.6542 8.678,59.878 12.5831,59.0102 18.6576,51.6339 18.2237,64.6508 21.6949,67.2542 32.9763,66.3864 41.6542,61.6136 36.8814,77.2339 37.3153,79.4034 39.9186,80.2712 45.5593,79.8373 55.1051,73.7627 59.0102,70.2915 64.6508,61.6136 59.878,72.461 60.3119,75.0644 62.4814,77.2339" stroke="#7f0000" stroke-width="2" /></svg>