<?xml version="1.0" encoding="utf-8" ?>
<svg baseProfile="tiny" height="128" version="1.2" viewBox="0,0,128,128" width="128" xmlns="http://www.w3.org/2000/svg" xmlns:ev="http://www.w3.org/2001/xml-events" xmlns:xlink="http://www.w3.org/1999/xlink"><defs /><polyline fill="none" points="59.4441,64.2169 58.1424,63.3492 49.0305,64.6508 29.0712,73.3288 18.6576,73.7627 13.8847,71.1593 11.7153,66.3864 11.7153,56.4068 13.8847,53.8034" stroke="#00007f" stroke-width="2" /><polyline fill="none" points="65.0847,23.8644 67.2542,41.2203 65.0847,45.9932 59.878,50.7661 50.3322,55.1051 43.8237,55.1051 38.1831,50.7661 36.4475,46.861 37.3153,43.3898" stroke="#0000ff" stroke-width="2" /><polyline fill="none" points="66.3864,24.7322 65.5186,30.8068 66.8203,39.0508 70.2915,51.2 75.0644,59.0102 80.7051,62.4814 85.9119,62.0475 93.2881,59.0102 96.7593,55.1051" stroke="#0080ff" stroke-width="2" /><polyline fill="none" points="67.6881,52.5017 65.9525,62.0475 68.122,72.0271 72.8949,75.4983 78.9695,74.1966" stroke="#15ffe1" stroke-width="2" /><polyline fill="none" points="73.7627,26.0339 74.6305,35.1458 80.2712,44.6915 88.5153,50.3322 98.4949,52.9356 109.7763,52.0678 116.7186,47.2949 118.4542,43.3898 119.322,36.0136 117.1525,29.5051" stroke="#7cff79" stroke-width="2" /><polyline fill="none" points="85.0441,56.8407 89.8169,66.3864 94.1559,69.8576 98.9288,71.5932 106.3051,70.7254 117.1525,63.3492" stroke="#e4ff12" stroke-width="2" /><polyline fill="none" points="69.8576,25.1661 67.6881,20.3932 69.4237,8.678" stroke="#ff9400" stroke-width="2" /><polyline fill="none" points="14.3186,53.3695 11.7153,52.0678 8.678,45.1254 19.5254,42.9559 17.7898,54.2373 14.3186,53.8034" stroke="#ff1d00" stroke-width="2" /><polyline fill="none" points="33.8441,47.2949 32.5424,36.8814 41.2203,34.7119 42.0881,38.6169" stroke="#7f0000" stroke-width="2" /></svg>