<?xml version="1.0" encoding="utf-8" ?>
<svg baseProfile="tiny" height="128" version="1.2" viewBox="0,0,128,128" width="128" xmlns="http://www.w3.org/2000/svg" xmlns:ev="http://www.w3.org/2001/xml-events" xmlns:xlink="http://www.w3.org/1999/xlink"><defs /><polyline fill="none" points="33.9592,8.7075 39.619,46.1497" stroke="#00007f" stroke-width="2" /><polyline fill="none" points="44.8435,47.8912 35.7007,43.5374 17.8503,50.9388 11.3197,60.517 8.7075,72.2721 10.449,82.2857 11.7551,84.0272 13.932,84.0272 34.3946,80.9796 42.2313,83.5918 64.0,85.3333 66.1769,84.898 67.0476,76.1905 65.3061,68.3537 60.517,59.2109 49.6327,50.068 44.4082,47.8912 37.0068,48.3265" stroke="#0000ff" stroke-width="2" /><polyline fill="none" points="32.2177,80.1088 32.6531,85.3333 36.1361,87.5102 39.619,87.5102 43.102,82.2857" stroke="#0080ff" stroke-width="2" /><polyline fill="none" points="26.9932,88.8163 26.1224,93.6054 19.1565,103.619" stroke="#15ffe1" stroke-width="2" /><polyline fill="none" points="33.5238,91.8639 32.6531,119.2925" stroke="#7cff79" stroke-width="2" /><polyline fill="none" points="38.3129,90.9932 51.8095,104.4898" stroke="#e4ff12" stroke-width="2" /><polyline fill="none" points="45.2789,89.6871 50.5034,89.2517 62.6939,92.7347" stroke="#ff9400" stroke-width="2" /><polyline fill="none" points="22.2041,51.3741 21.3333,67.0476 24.8163,77.4966" stroke="#ff1d00" stroke-width="2" /><polyline fill="none" points="40.9252,52.6803 47.0204,58.7755 53.1156,77.932" stroke="#7f0000" stroke-width="2" /></svg>