<?xml version="1.0" encoding="utf-8" ?>
<svg baseProfile="tiny" height="128" version="1.2" viewBox="0,0,128,128" width="128" xmlns="http://www.w3.org/2000/svg" xmlns:ev="http://www.w3.org/2001/xml-events" xmlns:xlink="http://www.w3.org/1999/xlink"><defs /><polyline fill="none" points="8.678,16.4881 38.1831,16.4881" stroke="#00007f" stroke-width="2" /><polyline fill="none" points="23.8644,15.6203 32.5424,55.9729 30.3729,64.2169 17.7898,58.1424 32.9763,61.1797 42.522,61.1797 43.8237,58.5763" stroke="#0010ff" stroke-width="2" /><polyline fill="none" points="79.8373,8.678 78.1017,37.7492 72.461,69.4237 73.7627,58.5763 71.5932,44.6915 62.0475,45.9932 55.539,48.5966 51.2,52.9356 49.8983,56.8407 50.3322,61.6136 52.5017,64.2169 58.1424,65.0847 64.6508,64.2169 72.461,59.4441 75.4983,50.3322" stroke="#00a4ff" stroke-width="2" /><polyline fill="none" points="91.5525,46.4271 87.6475,45.5593 81.139,46.861 75.4983,49.0305 71.1593,52.5017 69.4237,56.4068 70.2915,59.878 80.2712,60.7458 84.6102,59.4441 85.9119,56.8407 84.6102,48.5966 81.5729,46.861 83.7424,47.7288" stroke="#3fffb7" stroke-width="2" /><polyline fill="none" points="95.8915,51.2 96.3254,61.6136 100.6644,46.4271 104.1356,45.5593 105.0034,50.3322 104.1356,58.5763" stroke="#b7ff3f" stroke-width="2" /><polyline fill="none" points="115.8508,25.6 112.3797,27.3356 110.2102,26.4678 112.8136,26.0339 114.5492,27.7695 112.8136,37.3153" stroke="#ffb900" stroke-width="2" /><polyline fill="none" points="118.8881,28.6373 112.3797,59.4441 111.078,54.6712" stroke="#ff3000" stroke-width="2" /><polyline fill="none" points="108.4746,45.5593 119.322,45.5593" stroke="#7f0000" stroke-width="2" /></svg>