<?xml version="1.0" encoding="utf-8" ?>
<svg baseProfile="tiny" height="128" version="1.2" viewBox="0,0,128,128" width="128" xmlns="http://www.w3.org/2000/svg" xmlns:ev="http://www.w3.org/2001/xml-events" xmlns:xlink="http://www.w3.org/1999/xlink"><defs /><polyline fill="none" points="65.5186,8.678 65.0847,34.7119" stroke="#00007f" stroke-width="2" /><polyline fill="none" points="59.878,40.7864 49.8983,48.1627 30.8068,57.7085 16.922,71.5932" stroke="#0000fe" stroke-width="2" /><polyline fill="none" points="75.4983,38.6169 75.9322,44.2576 89.3831,52.5017 97.6271,62.9153 100.6644,71.1593 101.0983,80.7051" stroke="#0060ff" stroke-width="2" /><polyline fill="none" points="13.4508,72.8949 13.4508,98.061 10.8475,104.5695" stroke="#00d4ff" stroke-width="2" /><polyline fill="none" points="24.2983,80.7051 25.6,95.8915 16.4881,110.2102" stroke="#4cffaa" stroke-width="2" /><polyline fill="none" points="8.678,105.8712 20.3932,87.6475" stroke="#aaff4c" stroke-width="2" /><polyline fill="none" points="32.9763,82.0068 33.8441,91.9864 31.6746,98.4949 32.5424,107.6068" stroke="#ffe500" stroke-width="2" /><polyline fill="none" points="52.9356,85.9119 49.4644,95.4576 48.5966,108.9085 46.4271,113.2475" stroke="#ff7a00" stroke-width="2" /><polyline fill="none" points="67.2542,83.7424 74.1966,108.4746 74.6305,119.322" stroke="#fe1200" stroke-width="2" /><polyline fill="none" points="90.2508,84.6102 96.7593,92.4203" stroke="#7f0000" stroke-width="2" /></svg>