<?xml version="1.0" encoding="utf-8" ?>
<svg baseProfile="tiny" height="128" version="1.2" viewBox="0,0,128,128" width="128" xmlns="http://www.w3.org/2000/svg" xmlns:ev="http://www.w3.org/2001/xml-events" xmlns:xlink="http://www.w3.org/1999/xlink"><defs /><polyline fill="none" points="58.1424,8.678 59.4441,9.5458 59.878,14.7525 60.3119,43.8237 28.2034,45.5593 14.3186,42.9559 9.5458,42.522 8.678,43.3898 10.4136,53.3695 10.4136,79.8373 11.7153,87.2136 15.1864,89.8169 23.4305,91.1186 72.8949,92.4203 99.7966,91.5525" stroke="#00007f" stroke-width="2" /><polyline fill="none" points="110.6441,81.139 118.4542,65.5186 119.322,58.5763 118.8881,51.6339 112.3797,36.0136 101.0983,32.9763 65.5186,39.0508 52.9356,39.4847" stroke="#0000fe" stroke-width="2" /><polyline fill="none" points="115.4169,59.878 114.9831,72.0271 109.3424,86.7797 99.3627,94.1559 91.1186,96.7593" stroke="#0060ff" stroke-width="2" /><polyline fill="none" points="89.8169,70.2915 78.1017,68.5559 45.5593,67.6881 39.0508,72.0271 35.1458,85.478 37.7492,87.6475 42.522,88.0814 55.9729,88.0814 93.722,85.478 110.6441,82.8746 107.6068,78.5356 98.9288,72.8949 89.3831,69.4237 83.7424,68.9898 78.5356,68.9898 67.2542,72.8949" stroke="#00d4ff" stroke-width="2" /><polyline fill="none" points="55.9729,98.4949 56.4068,101.9661" stroke="#4cffaa" stroke-width="2" /><polyline fill="none" points="67.2542,97.6271 65.9525,101.0983 66.8203,104.1356" stroke="#aaff4c" stroke-width="2" /><polyline fill="none" points="77.2339,99.7966 78.5356,104.5695" stroke="#ffe500" stroke-width="2" /><polyline fill="none" points="89.3831,98.4949 95.4576,105.4373" stroke="#ff7a00" stroke-width="2" /><polyline fill="none" points="102.8339,98.4949 110.6441,107.6068" stroke="#fe1200" stroke-width="2" /><polyline fill="none" points="37.3153,96.7593 32.5424,99.7966 27.3356,108.4746" stroke="#7f0000" stroke-width="2" /></svg>