<?xml version="1.0" encoding="utf-8" ?>
<svg baseProfile="tiny" height="128" version="1.2" viewBox="0,0,128,128" width="128" xmlns="http://www.w3.org/2000/svg" xmlns:ev="http://www.w3.org/2001/xml-events" xmlns:xlink="http://www.w3.org/1999/xlink"><defs /><polyline fill="none" points="69.8576,8.678 67.6881,41.6542 56.4068,40.3525 46.861,42.0881 44.2576,44.2576 52.9356,54.2373 69.8576,53.3695 93.722,48.5966 93.722,40.7864 90.2508,38.6169 67.2542,41.2203" stroke="#00007f" stroke-width="2" /><polyline fill="none" points="42.9559,42.0881 38.6169,48.1627 32.1085,52.5017 22.1288,56.4068 16.922,55.539 8.678,49.0305" stroke="#0080ff" stroke-width="2" /><polyline fill="none" points="53.8034,53.8034 43.8237,55.1051 23.8644,50.3322 18.2237,45.1254 15.1864,34.7119" stroke="#7cff79" stroke-width="2" /><polyline fill="none" points="75.4983,52.5017 68.9898,62.0475 65.0847,64.6508 59.878,64.6508 53.3695,61.1797" stroke="#ff9400" stroke-width="2" /><polyline fill="none" points="75.9322,52.0678 83.3085,57.7085 97.6271,62.4814 117.1525,59.0102 119.322,57.2746" stroke="#7f0000" stroke-width="2" /></svg>