<?xml version="1.0" encoding="utf-8" ?>
<svg baseProfile="tiny" height="128" version="1.2" viewBox="0,0,128,128" width="128" xmlns="http://www.w3.org/2000/svg" xmlns:ev="http://www.w3.org/2001/xml-events" xmlns:xlink="http://www.w3.org/1999/xlink"><defs /><polyline fill="none" points="37.57,13.5427 28.3959,23.1536 27.0853,45.4334 16.6007,58.5392 8.7372,64.2184 10.0478,66.8396 16.6007,67.2765 23.1536,63.3447 28.3959,58.1024 32.7645,50.2389 34.9488,42.3754 37.57,40.1911 43.2491,40.1911 46.744,43.2491 51.5495,43.686 52.8601,47.1809 54.6075,47.6177 58.5392,46.3072 62.0341,41.5017 65.9659,25.3379 64.6553,18.3481 56.7918,11.3584 52.8601,9.6109 42.8123,8.7372 42.8123,10.9215" stroke="#00007f" stroke-width="2" /><polyline fill="none" points="65.529,16.1638 83.4403,18.785 105.2833,17.4744 114.4573,21.4061 117.5154,28.3959 117.5154,44.9966 116.2048,50.2389" stroke="#7cff79" stroke-width="2" /><polyline fill="none" points="58.5392,45.8703 55.9181,73.8294 56.3549,75.5768 60.2867,76.4505 67.7133,76.0137 75.1399,72.9556 77.7611,69.8976 78.6348,59.413 90.43,56.3549 96.5461,56.3549 97.4198,73.8294 105.7201,74.2662 113.1468,71.6451 118.8259,68.1502 119.2628,65.529 117.5154,50.2389" stroke="#7f0000" stroke-width="2" /></svg>