<?xml version="1.0" encoding="utf-8" ?>
<svg baseProfile="tiny" height="128" version="1.2" viewBox="0,0,128,128" width="128" xmlns="http://www.w3.org/2000/svg" xmlns:ev="http://www.w3.org/2001/xml-events" xmlns:xlink="http://www.w3.org/1999/xlink"><defs /><polyline fill="none" points="55.9729,46.861 58.1424,63.3492 62.4814,68.5559 67.2542,69.8576 69.4237,68.5559 72.8949,53.8034 76.3661,47.7288 78.5356,51.6339 78.9695,63.7831 84.6102,69.4237 91.9864,69.8576 97.6271,68.122 101.9661,61.6136 103.2678,48.5966 105.0034,45.5593 107.6068,45.5593 108.4746,46.861 107.6068,59.0102 108.4746,60.7458 112.8136,61.1797 117.5864,56.4068 118.8881,53.3695 119.322,42.522 115.4169,37.3153 109.3424,34.7119 79.8373,32.9763 69.4237,36.0136 61.6136,36.0136 56.8407,29.939 58.1424,16.0542 54.6712,12.5831 47.7288,9.1119 40.3525,8.678 35.5797,13.4508 34.278,20.8271 39.0508,27.3356 32.9763,30.8068 23.4305,30.3729 20.3932,31.6746 10.4136,41.6542 8.678,49.4644 12.5831,53.8034 17.3559,54.2373 30.8068,37.7492 35.5797,34.278 45.5593,38.6169 50.7661,45.5593 58.1424,47.2949" stroke="#00007f" stroke-width="2" /><polyline fill="none" points="11.7153,51.6339 14.3186,49.4644" stroke="#7cff79" stroke-width="2" /><polyline fill="none" points="12.5831,52.5017 19.9593,48.1627" stroke="#7f0000" stroke-width="2" /></svg>