<?xml version="1.0" encoding="utf-8" ?>
<svg baseProfile="tiny" height="128" version="1.2" viewBox="0,0,128,128" width="128" xmlns="http://www.w3.org/2000/svg" xmlns:ev="http://www.w3.org/2001/xml-events" xmlns:xlink="http://www.w3.org/1999/xlink"><defs /><polyline fill="none" points="37.8776,13.0612 33.9592,18.7211 30.4762,33.5238 25.2517,45.2789 18.2857,52.2449 8.7075,54.4218 11.3197,59.2109 18.7211,60.517 25.2517,58.7755 38.7483,49.6327 42.6667,42.2313 47.0204,24.8163 49.1973,20.4626 50.9388,20.0272" stroke="#00007f" stroke-width="2" /><polyline fill="none" points="50.068,17.415 52.6803,17.415 49.6327,26.9932 50.068,37.0068 55.7279,53.551 63.1293,60.0816 77.4966,64.4354 84.898,64.4354 99.2653,60.9524 106.6667,57.034 111.8912,52.6803 116.2449,46.1497 118.8571,37.8776 119.2925,31.3469 116.2449,23.5102 108.8435,16.9796 102.7483,13.932 94.4762,11.7551 77.932,9.1429 70.5306,11.7551 64.0,15.2381 57.034,21.7687 55.7279,25.2517" stroke="#0010ff" stroke-width="2" /><polyline fill="none" points="55.7279,58.3401 55.7279,81.8503" stroke="#00a4ff" stroke-width="2" /><polyline fill="none" points="70.0952,63.1293 74.0136,75.3197" stroke="#3fffb7" stroke-width="2" /><polyline fill="none" points="93.6054,61.8231 98.3946,74.8844" stroke="#b7ff3f" stroke-width="2" /><polyline fill="none" points="107.102,60.517 113.6327,74.449" stroke="#ffb900" stroke-width="2" /><polyline fill="none" points="37.4422,18.7211 43.9728,11.3197 51.8095,8.7075 60.517,12.1905 65.7415,16.1088" stroke="#ff3000" stroke-width="2" /><polyline fill="none" points="45.2789,39.619 46.585,53.9864 43.102,65.7415 38.7483,71.8367 43.9728,67.483 50.9388,40.4898" stroke="#7f0000" stroke-width="2" /></svg>