<?xml version="1.0" encoding="utf-8" ?>
<svg baseProfile="tiny" height="128" version="1.2" viewBox="0,0,128,128" width="128" xmlns="http://www.w3.org/2000/svg" xmlns:ev="http://www.w3.org/2001/xml-events" xmlns:xlink="http://www.w3.org/1999/xlink"><defs /><polyline fill="none" points="46.585,50.068 48.3265,69.2245 50.068,71.8367 56.1633,71.8367 57.9048,70.5306 58.3401,56.5986 57.034,52.2449 57.9048,51.3741 64.4354,51.3741 67.0476,53.1156 67.483,66.6122 72.7075,70.5306 75.3197,69.6599 75.7551,66.1769 75.7551,54.4218 73.5782,50.5034 74.8844,49.6327 83.1565,49.1973 84.898,50.5034 86.2041,71.4014 87.5102,74.0136 97.5238,72.2721 100.1361,70.0952 103.1837,60.0816 99.7007,49.6327 102.3129,48.3265 106.6667,50.5034 109.2789,53.9864 107.5374,66.6122 111.0204,67.483 117.9864,65.3061 119.2925,62.6939 119.2925,57.4694 117.1156,50.068 118.4218,38.7483 117.1156,30.4762 105.7959,16.9796 94.0408,10.0136 76.6259,8.7075 57.4694,13.4966 50.068,18.7211 43.5374,20.4626 40.9252,26.5578 33.9592,26.5578 30.0408,35.2653 18.2857,31.3469 8.7075,30.0408 9.1429,35.2653 13.4966,37.4422 26.5578,37.4422 30.9116,40.4898 32.2177,43.5374" stroke="#00007f" stroke-width="2" /></svg>