<?xml version="1.0" encoding="utf-8" ?>
<svg baseProfile="tiny" height="128" version="1.2" viewBox="0,0,128,128" width="128" xmlns="http://www.w3.org/2000/svg" xmlns:ev="http://www.w3.org/2001/xml-events" xmlns:xlink="http://www.w3.org/1999/xlink"><defs /><polyline fill="none" points="71.5932,30.8068 71.1593,19.5254 79.8373,11.7153 88.9492,8.678 97.1932,11.7153 109.3424,20.8271 114.5492,32.5424 111.9458,42.522 105.8712,50.3322 89.3831,53.3695 84.6102,52.9356 78.1017,49.8983 75.4983,47.7288 71.1593,37.7492 70.7254,32.9763 72.8949,29.939" stroke="#00007f" stroke-width="2" /><polyline fill="none" points="26.0339,49.8983 18.6576,46.861 12.1492,41.6542 8.678,29.939 10.4136,24.7322 14.3186,19.5254 19.0915,16.4881 29.5051,13.8847 38.1831,15.6203 49.8983,21.261 54.6712,29.5051 56.4068,39.0508 55.539,47.7288 52.0678,52.0678 47.7288,55.539 41.2203,57.7085 30.8068,55.1051 21.6949,49.8983" stroke="#0028ff" stroke-width="2" /><polyline fill="none" points="51.6339,52.5017 49.0305,51.2 46.4271,48.1627 45.5593,42.0881 49.0305,34.7119 55.539,31.2407 66.3864,29.5051 78.5356,31.2407 84.1763,34.7119 87.2136,39.0508 88.5153,51.6339 86.3458,58.1424 80.2712,62.0475 68.122,62.9153 62.9153,61.6136 58.5763,59.4441 53.3695,53.8034 51.2,45.9932 51.6339,41.2203" stroke="#00d4ff" stroke-width="2" /><polyline fill="none" points="74.6305,49.8983 103.7017,64.6508 119.322,75.0644" stroke="#7cff79" stroke-width="2" /><polyline fill="none" points="72.461,55.9729 76.8,61.6136 88.9492,66.3864 96.7593,71.5932 109.7763,77.2339 118.8881,71.5932" stroke="#ffe500" stroke-width="2" /><polyline fill="none" points="82.0068,34.278 94.5898,29.5051 100.6644,30.3729 105.8712,33.4102 108.9085,38.6169 110.2102,43.8237 107.6068,47.2949 88.5153,51.2" stroke="#ff4600" stroke-width="2" /><polyline fill="none" points="50.7661,37.7492 47.7288,30.3729 42.0881,29.5051 39.9186,31.2407 36.8814,44.2576 38.6169,49.4644 41.6542,52.5017 52.0678,53.3695" stroke="#7f0000" stroke-width="2" /></svg>