<?xml version="1.0" encoding="utf-8" ?>
<svg baseProfile="tiny" height="128" version="1.2" viewBox="0,0,128,128" width="128" xmlns="http://www.w3.org/2000/svg" xmlns:ev="http://www.w3.org/2001/xml-events" xmlns:xlink="http://www.w3.org/1999/xlink"><defs /><polyline fill="none" points="52.5017,12.5831 43.8237,12.1492 36.0136,16.0542 30.3729,20.8271 26.0339,30.3729 24.2983,40.3525 20.8271,48.5966 16.0542,51.6339 9.5458,49.4644 8.678,50.3322 12.5831,56.4068 23.8644,54.2373 32.1085,36.8814" stroke="#00007f" stroke-width="2" /><polyline fill="none" points="42.9559,13.4508 48.5966,8.678 55.1051,8.678 59.4441,9.9797 67.6881,18.2237 73.3288,30.3729 72.0271,48.1627 69.8576,51.2 66.8203,53.3695 60.3119,53.3695 55.539,51.6339 45.9932,38.6169" stroke="#0028ff" stroke-width="2" /><polyline fill="none" points="39.0508,21.261 39.0508,22.1288" stroke="#00d4ff" stroke-width="2" /><polyline fill="none" points="72.461,20.3932 117.1525,20.3932 118.8881,22.5627 119.322,27.7695 118.0203,44.6915 115.8508,51.2 113.2475,53.3695" stroke="#7cff79" stroke-width="2" /><polyline fill="none" points="30.3729,44.6915 32.1085,53.8034 36.8814,55.539" stroke="#ffe500" stroke-width="2" /><polyline fill="none" points="111.5119,54.6712 114.5492,69.8576 97.6271,71.1593 101.5322,63.3492 101.5322,59.878" stroke="#ff4600" stroke-width="2" /><polyline fill="none" points="101.9661,60.3119 95.4576,61.6136 84.1763,62.0475 85.0441,69.4237 84.1763,72.0271 81.5729,72.461 77.2339,72.0271 75.4983,63.3492 61.6136,70.7254 53.3695,67.6881 50.7661,62.9153" stroke="#7f0000" stroke-width="2" /></svg>