<?xml version="1.0" encoding="utf-8" ?>
<svg baseProfile="tiny" height="128" version="1.2" viewBox="0,0,128,128" width="128" xmlns="http://www.w3.org/2000/svg" xmlns:ev="http://www.w3.org/2001/xml-events" xmlns:xlink="http://www.w3.org/1999/xlink"><defs /><polyline fill="none" points="8.678,31.6746 9.9797,27.7695 19.9593,15.6203 29.0712,9.9797 35.1458,8.678 40.3525,9.1119 45.5593,13.0169 48.1627,26.9017" stroke="#00007f" stroke-width="2" /><polyline fill="none" points="52.0678,28.6373 71.1593,19.5254 88.0814,29.5051 93.2881,39.9186 94.5898,53.8034 88.0814,82.8746 88.0814,89.3831 91.5525,93.722 94.1559,94.1559 96.7593,91.9864 98.4949,69.8576" stroke="#004cff" stroke-width="2" /><polyline fill="none" points="97.6271,75.4983 111.5119,75.0644 115.4169,74.1966 117.1525,72.0271 117.1525,68.5559 114.1153,66.3864 103.2678,62.9153 100.2305,63.3492 98.9288,72.0271" stroke="#29ffcd" stroke-width="2" /><polyline fill="none" points="118.8881,71.5932 118.4542,103.7017 112.8136,108.0407 105.4373,109.3424 98.9288,116.7186 96.3254,118.4542 88.5153,117.1525 78.9695,119.322 76.3661,117.1525 73.7627,111.9458 70.2915,100.2305 69.4237,88.9492 64.2169,77.2339 51.6339,64.6508" stroke="#cdff29" stroke-width="2" /><polyline fill="none" points="54.6712,70.7254 51.6339,85.478 46.4271,90.6847 36.0136,99.3627 19.0915,104.5695" stroke="#ff6700" stroke-width="2" /><polyline fill="none" points="26.9017,28.2034 22.5627,40.7864 22.5627,46.4271 25.1661,49.0305 28.2034,49.0305 32.1085,44.2576 32.1085,29.939" stroke="#7f0000" stroke-width="2" /></svg>