<?xml version="1.0" encoding="utf-8" ?>
<svg baseProfile="tiny" height="128" version="1.2" viewBox="0,0,128,128" width="128" xmlns="http://www.w3.org/2000/svg" xmlns:ev="http://www.w3.org/2001/xml-events" xmlns:xlink="http://www.w3.org/1999/xlink"><defs /><polyline fill="none" points="62.9153,13.4508 56.8407,13.0169 52.9356,14.7525 47.7288,29.0712 40.7864,38.6169 52.0678,40.7864 54.2373,40.3525 56.8407,36.8814 59.0102,27.7695 60.7458,26.9017 61.6136,30.3729 59.4441,34.278 59.0102,37.7492 72.0271,45.9932 74.1966,40.7864 75.4983,29.939 78.5356,29.939 82.8746,34.278 85.478,33.4102 87.6475,21.261 84.1763,16.0542 72.8949,8.678 66.3864,8.678 62.0475,10.8475" stroke="#00007f" stroke-width="2" /><polyline fill="none" points="67.2542,37.3153 57.7085,51.6339 57.2746,72.461 58.1424,73.3288 67.6881,68.5559 69.8576,63.7831 71.5932,56.8407 71.5932,36.8814" stroke="#00d4ff" stroke-width="2" /><polyline fill="none" points="72.461,42.522 74.1966,59.4441 77.2339,66.8203 86.7797,76.8 93.2881,78.9695 113.2475,65.0847 117.5864,57.2746 119.322,51.6339 98.061,51.2 87.2136,47.2949 77.6678,41.2203" stroke="#ffe500" stroke-width="2" /><polyline fill="none" points="58.5763,38.6169 57.2746,39.4847 48.5966,52.9356 41.2203,71.5932 11.7153,71.5932 8.678,68.5559" stroke="#7f0000" stroke-width="2" /></svg>