<?xml version="1.0" encoding="utf-8" ?>
<svg baseProfile="tiny" height="128" version="1.2" viewBox="0,0,128,128" width="128" xmlns="http://www.w3.org/2000/svg" xmlns:ev="http://www.w3.org/2001/xml-events" xmlns:xlink="http://www.w3.org/1999/xlink"><defs /><polyline fill="none" points="57.7085,68.5559 59.0102,82.4407 77.2339,83.3085 78.5356,79.8373 78.9695,59.878 80.7051,48.5966 95.0237,48.1627 95.4576,58.1424 92.8542,78.5356 104.5695,81.5729 108.9085,70.7254 110.2102,44.6915 112.3797,45.5593 114.9831,52.9356 116.7186,51.2 117.5864,53.8034 119.322,49.0305 111.9458,25.6 104.5695,20.3932 88.9492,15.6203 68.9898,15.6203 49.4644,19.9593 49.0305,17.7898 51.2,13.0169" stroke="#00007f" stroke-width="2" /><polyline fill="none" points="49.0305,20.3932 52.0678,35.1458 52.0678,42.0881 49.4644,44.6915 35.1458,45.5593 30.3729,39.0508 29.0712,31.6746 31.6746,21.6949 38.1831,9.9797 46.4271,8.678 49.4644,10.8475 49.4644,13.4508" stroke="#7cff79" stroke-width="2" /><polyline fill="none" points="34.278,16.922 26.9017,16.4881 22.1288,17.7898 19.9593,20.8271 17.7898,28.6373 17.7898,34.7119 22.9966,45.9932 22.9966,51.6339 19.5254,59.878 8.678,69.4237 10.8475,72.0271 14.3186,72.461 19.0915,69.8576 21.261,65.9525 26.9017,40.3525 29.5051,43.3898 33.4102,55.539" stroke="#7f0000" stroke-width="2" /></svg>