<?xml version="1.0" encoding="utf-8" ?>
<svg baseProfile="tiny" height="128" version="1.2" viewBox="0,0,128,128" width="128" xmlns="http://www.w3.org/2000/svg" xmlns:ev="http://www.w3.org/2001/xml-events" xmlns:xlink="http://www.w3.org/1999/xlink"><defs /><polyline fill="none" points="63.7831,16.4881 62.9153,13.8847 64.6508,12.1492 69.8576,8.678 78.1017,8.678 83.7424,10.8475 87.2136,15.6203 86.7797,29.939 91.5525,32.9763 96.3254,33.4102 101.5322,30.3729 106.739,25.6 109.3424,19.9593 113.6814,23.4305 119.322,25.6 107.1729,36.8814 101.5322,39.9186 86.7797,42.0881 79.4034,37.7492 75.0644,37.3153 68.122,40.3525 64.6508,48.1627 65.5186,66.3864 64.6508,67.2542 58.5763,68.122 57.2746,60.7458 57.2746,46.861" stroke="#00007f" stroke-width="2" /><polyline fill="none" points="55.1051,46.4271 25.1661,47.7288 23.8644,59.878 25.1661,65.5186 21.6949,67.6881 17.3559,67.6881 13.8847,50.7661 13.8847,41.2203" stroke="#7cff79" stroke-width="2" /><polyline fill="none" points="62.4814,15.1864 19.0915,21.261 9.9797,25.1661 8.678,27.7695" stroke="#7f0000" stroke-width="2" /></svg>