<?xml version="1.0" encoding="utf-8" ?>
<svg baseProfile="tiny" height="128" version="1.2" viewBox="0,0,128,128" width="128" xmlns="http://www.w3.org/2000/svg" xmlns:ev="http://www.w3.org/2001/xml-events" xmlns:xlink="http://www.w3.org/1999/xlink"><defs /><polyline fill="none" points="37.7492,16.0542 34.7119,15.6203 29.5051,18.6576 20.8271,31.2407 8.678,53.3695 8.678,62.0475 11.2814,64.6508 16.4881,64.6508 22.1288,60.7458 37.3153,40.7864 40.3525,27.7695 36.8814,48.1627 36.8814,58.1424 38.6169,63.7831 41.6542,66.8203 48.5966,67.2542 57.2746,62.9153 64.6508,56.8407 70.7254,45.1254 72.461,36.4475 71.5932,24.2983 75.4983,36.8814 81.5729,42.522 86.3458,43.8237 87.2136,29.5051 84.6102,21.261 80.2712,16.922 73.7627,13.0169 62.9153,9.5458 55.1051,8.678 42.0881,9.9797 34.278,14.7525 28.6373,21.261" stroke="#00007f" stroke-width="2" /><polyline fill="none" points="44.6915,63.3492 37.7492,79.8373 36.8814,87.6475 37.3153,95.0237 38.6169,96.3254 43.3898,96.7593 49.8983,91.1186 52.9356,84.1763 55.1051,73.3288 55.9729,62.0475" stroke="#0000f1" stroke-width="2" /><polyline fill="none" points="38.1831,60.3119 32.1085,62.0475 24.2983,72.0271 19.5254,84.1763 19.5254,94.5898 22.5627,101.0983 26.4678,104.1356 41.6542,107.1729 49.0305,107.1729" stroke="#004cff" stroke-width="2" /><polyline fill="none" points="63.7831,52.5017 71.5932,62.0475 71.1593,72.0271 64.6508,84.1763 51.2,98.9288 43.3898,104.5695" stroke="#00b0ff" stroke-width="2" /><polyline fill="none" points="20.8271,100.6644 18.2237,118.0203 20.8271,119.322 30.3729,118.8881 33.4102,111.078 34.278,95.0237" stroke="#29ffcd" stroke-width="2" /><polyline fill="none" points="52.5017,100.2305 51.2,99.3627 50.3322,101.0983 47.7288,113.6814 50.3322,114.9831 62.4814,114.9831 66.3864,113.2475 68.9898,108.9085 69.4237,99.3627 65.5186,89.3831 57.7085,91.5525 51.6339,91.9864" stroke="#7cff79" stroke-width="2" /><polyline fill="none" points="49.0305,39.4847 45.1254,38.1831 42.9559,34.278 43.3898,29.939 47.7288,28.2034" stroke="#cdff29" stroke-width="2" /><polyline fill="none" points="55.9729,34.7119 53.8034,35.1458 53.8034,36.8814 57.7085,39.4847 64.6508,38.6169 70.2915,34.7119" stroke="#ffc400" stroke-width="2" /><polyline fill="none" points="52.0678,65.0847 52.0678,65.0847" stroke="#ff6700" stroke-width="2" /><polyline fill="none" points="49.8983,66.8203 44.2576,83.7424" stroke="#f10700" stroke-width="2" /><polyline fill="none" points="47.2949,80.7051 43.8237,82.4407 41.6542,85.478 45.5593,86.3458 48.5966,85.0441 42.9559,86.7797 39.0508,91.9864 47.2949,92.8542 55.539,89.3831" stroke="#7f0000" stroke-width="2" /></svg>