<?xml version="1.0" encoding="utf-8" ?>
<svg baseProfile="tiny" height="128" version="1.2" viewBox="0,0,128,128" width="128" xmlns="http://www.w3.org/2000/svg" xmlns:ev="http://www.w3.org/2001/xml-events" xmlns:xlink="http://www.w3.org/1999/xlink"><defs /><polyline fill="none" points="60.3119,10.4136 53.8034,8.678 36.0136,12.1492 23.8644,17.7898 15.1864,26.0339 9.9797,35.5797 8.678,44.6915 10.8475,62.4814 14.3186,70.2915" stroke="#00007f" stroke-width="2" /><polyline fill="none" points="85.0441,13.8847 85.9119,9.5458 94.1559,9.9797 109.3424,16.922 117.5864,25.1661 119.322,33.4102 118.0203,45.9932 113.6814,56.8407 105.8712,67.2542" stroke="#0010ff" stroke-width="2" /><polyline fill="none" points="84.1763,15.6203 77.2339,11.2814 64.2169,9.9797 57.2746,11.7153 46.861,18.6576 41.6542,26.0339 36.8814,38.6169 36.8814,49.8983 39.0508,57.2746 46.861,65.5186 53.8034,67.2542 66.3864,64.6508 79.4034,55.9729 90.2508,39.9186 93.722,26.4678 93.722,19.5254 90.2508,12.5831 85.9119,9.9797 82.0068,11.7153" stroke="#00a4ff" stroke-width="2" /><polyline fill="none" points="49.0305,39.0508 44.2576,48.1627 40.7864,59.878 36.8814,80.7051 36.8814,90.6847 39.9186,97.6271 44.2576,101.5322 49.8983,103.2678 55.9729,103.2678 62.9153,99.7966 65.9525,95.4576 68.9898,81.139 68.5559,68.5559 61.6136,36.0136" stroke="#3fffb7" stroke-width="2" /><polyline fill="none" points="11.2814,70.2915 19.9593,72.461 27.3356,71.5932 36.4475,68.5559 45.9932,62.0475 49.4644,61.1797" stroke="#b7ff3f" stroke-width="2" /><polyline fill="none" points="106.3051,72.461 90.2508,73.3288 81.139,71.5932 74.1966,68.122 68.122,59.0102" stroke="#ffb900" stroke-width="2" /><polyline fill="none" points="55.539,22.1288 50.7661,24.7322 51.2,29.5051 55.1051,30.3729 60.3119,27.7695 62.0475,23.4305 61.6136,19.0915 53.8034,23.4305 53.3695,24.7322" stroke="#ff3000" stroke-width="2" /><polyline fill="none" points="76.8,23.4305 73.3288,23.8644 67.6881,30.8068 68.5559,34.278 72.8949,35.5797 83.7424,32.9763 86.7797,28.6373 85.9119,25.6 80.7051,21.6949 74.6305,21.261 71.5932,22.9966" stroke="#7f0000" stroke-width="2" /></svg>