<?xml version="1.0" encoding="utf-8" ?>
<svg baseProfile="tiny" height="128" version="1.2" viewBox="0,0,128,128" width="128" xmlns="http://www.w3.org/2000/svg" xmlns:ev="http://www.w3.org/2001/xml-events" xmlns:xlink="http://www.w3.org/1999/xlink"><defs /><polyline fill="none" points="87.6475,34.278 90.2508,42.0881 101.0983,50.7661 106.3051,51.6339 109.7763,50.3322 119.322,39.9186 114.9831,60.7458 98.9288,58.5763 87.6475,54.2373 82.4407,47.7288 77.2339,33.4102 75.0644,36.8814 73.7627,41.6542 72.8949,68.122 52.5017,65.5186 54.2373,62.9153 55.539,56.4068 54.6712,51.6339 44.2576,58.1424 43.3898,69.8576 35.1458,69.4237 25.1661,72.0271 24.7322,54.6712 14.3186,65.0847 8.678,67.6881 13.8847,18.6576 18.2237,16.0542 38.6169,11.2814 76.3661,8.678 82.4407,11.2814 88.9492,17.7898 90.2508,25.6 88.9492,32.9763" stroke="#00007f" stroke-width="2" /><polyline fill="none" points="72.0271,16.4881 72.0271,16.4881" stroke="#00d4ff" stroke-width="2" /><polyline fill="none" points="78.5356,21.261 78.5356,21.261" stroke="#ffe500" stroke-width="2" /><polyline fill="none" points="79.8373,22.1288 79.8373,22.1288" stroke="#7f0000" stroke-width="2" /></svg>