<?xml version="1.0" encoding="utf-8" ?>
<svg baseProfile="tiny" height="128" version="1.2" viewBox="0,0,128,128" width="128" xmlns="http://www.w3.org/2000/svg" xmlns:ev="http://www.w3.org/2001/xml-events" xmlns:xlink="http://www.w3.org/1999/xlink"><defs /><polyline fill="none" points="33.8441,32.1085 30.3729,41.2203 21.6949,49.0305 14.3186,51.6339 8.678,49.4644" stroke="#00007f" stroke-width="2" /><polyline fill="none" points="8.678,49.4644 10.4136,59.4441 26.4678,56.8407 31.2407,52.0678 36.4475,43.3898 39.0508,36.8814 39.0508,32.9763" stroke="#004cff" stroke-width="2" /><polyline fill="none" points="36.8814,32.9763 32.1085,26.4678 36.0136,17.7898 44.6915,12.1492 56.8407,8.678 65.5186,11.2814 83.7424,26.0339 90.6847,29.0712 117.5864,27.7695 117.1525,34.278" stroke="#29ffcd" stroke-width="2" /><polyline fill="none" points="117.5864,30.3729 119.322,36.0136 116.2847,57.7085 118.0203,62.9153 117.5864,65.0847" stroke="#cdff29" stroke-width="2" /><polyline fill="none" points="106.739,72.461 95.0237,68.9898" stroke="#ff6700" stroke-width="2" /><polyline fill="none" points="118.4542,62.4814 118.0203,67.2542 114.5492,71.5932 98.9288,71.1593 95.0237,69.4237 94.5898,54.2373 82.8746,52.5017 72.461,54.6712 65.5186,53.8034 65.5186,67.2542 49.0305,65.9525 47.7288,60.3119 49.8983,39.4847 45.5593,35.1458 43.8237,34.7119" stroke="#7f0000" stroke-width="2" /></svg>