<?xml version="1.0" encoding="utf-8" ?>
<svg baseProfile="tiny" height="128" version="1.2" viewBox="0,0,128,128" width="128" xmlns="http://www.w3.org/2000/svg" xmlns:ev="http://www.w3.org/2001/xml-events" xmlns:xlink="http://www.w3.org/1999/xlink"><defs /><polyline fill="none" points="44.9966,14.8532 32.7645,15.727 26.2116,19.2218 21.843,23.5904 15.727,30.1433 12.2321,37.57 9.1741,45.4334 8.7372,54.1706 12.6689,67.7133 22.7167,77.3242 33.6382,81.6928 46.3072,80.3823" stroke="#00007f" stroke-width="2" /><polyline fill="none" points="81.6928,23.5904 92.1775,11.7952 102.6621,8.7372 108.3413,10.0478 113.1468,13.9795 116.6416,18.3481 119.2628,25.3379 119.2628,42.8123 110.9625,64.2184 101.7884,75.1399 90.43,81.6928" stroke="#00d4ff" stroke-width="2" /><polyline fill="none" points="38.8805,20.9693 40.1911,46.744 45.8703,67.7133 49.802,75.5768 55.9181,82.1297 61.5973,86.0614 66.4027,86.4983 71.6451,84.7509 77.3242,80.3823 85.1877,66.8396 88.6826,57.2287 88.6826,41.5017 86.0614,34.0751 78.198,22.2799 72.5188,17.9113" stroke="#ffe500" stroke-width="2" /><polyline fill="none" points="60.2867,52.4232 59.413,61.5973 54.6075,79.0717 47.6177,95.2355" stroke="#7f0000" stroke-width="2" /></svg>