<?xml version="1.0" encoding="utf-8" ?>
<svg baseProfile="tiny" height="128" version="1.2" viewBox="0,0,128,128" width="128" xmlns="http://www.w3.org/2000/svg" xmlns:ev="http://www.w3.org/2001/xml-events" xmlns:xlink="http://www.w3.org/1999/xlink"><defs /><polyline fill="none" points="64.8707,36.5714 51.8095,56.5986 42.6667,65.3061 39.1837,67.0476 33.5238,67.9184 25.2517,66.6122 16.1088,61.8231 8.7075,55.7279 11.7551,79.2381 13.4966,85.7687 15.2381,87.5102 20.898,89.2517 29.1701,88.8163 38.3129,84.898 62.6939,55.7279 71.8367,40.9252" stroke="#00007f" stroke-width="2" /><polyline fill="none" points="48.7619,19.1565 40.4898,20.4626 34.3946,23.5102 29.6054,26.9932 25.6871,32.6531 23.9456,40.4898 24.8163,46.585 27.8639,52.2449 32.2177,55.2925 34.8299,55.7279" stroke="#0010ff" stroke-width="2" /><polyline fill="none" points="109.7143,19.5918 113.6327,23.0748 117.9864,29.6054 119.2925,44.4082 114.5034,53.9864 106.6667,59.2109" stroke="#00a4ff" stroke-width="2" /><polyline fill="none" points="47.0204,25.2517 56.5986,17.8503 72.7075,10.8844 82.7211,8.7075 95.3469,10.449 101.0068,13.932 105.7959,20.898" stroke="#3fffb7" stroke-width="2" /><polyline fill="none" points="33.9592,57.034 39.1837,63.5646" stroke="#b7ff3f" stroke-width="2" /><polyline fill="none" points="57.034,68.7891 67.483,74.0136 76.6259,74.449 85.3333,70.966 95.7823,62.2585 101.0068,59.6463" stroke="#ffb900" stroke-width="2" /><polyline fill="none" points="66.1769,27.4286 66.1769,27.4286" stroke="#ff3000" stroke-width="2" /><polyline fill="none" points="97.0884,32.2177 97.0884,32.2177" stroke="#7f0000" stroke-width="2" /></svg>