<?xml version="1.0" encoding="utf-8" ?>
<svg baseProfile="tiny" height="128" version="1.2" viewBox="0,0,128,128" width="128" xmlns="http://www.w3.org/2000/svg" xmlns:ev="http://www.w3.org/2001/xml-events" xmlns:xlink="http://www.w3.org/1999/xlink"><defs /><polyline fill="none" points="47.2949,31.6746 45.1254,34.278 44.6915,45.9932 42.522,52.5017 36.0136,59.878 26.0339,66.3864 26.0339,69.4237 28.2034,72.461 32.9763,75.0644 34.7119,64.6508 30.3729,62.0475" stroke="#00007f" stroke-width="2" /><polyline fill="none" points="34.278,68.5559 35.5797,71.1593 37.3153,71.1593 50.3322,61.6136 59.4441,51.2 64.6508,38.1831" stroke="#0080ff" stroke-width="2" /><polyline fill="none" points="44.2576,45.9932 40.7864,45.1254 37.7492,40.3525 34.278,26.9017 34.7119,22.9966 38.6169,18.2237 43.8237,14.7525 55.9729,11.7153 64.6508,11.7153 77.6678,13.8847 84.1763,16.922 88.5153,24.7322 90.2508,37.7492 88.5153,42.0881 83.7424,45.5593 74.6305,49.0305 57.2746,48.5966" stroke="#7cff79" stroke-width="2" /><polyline fill="none" points="87.6475,19.9593 91.9864,16.4881 99.3627,15.1864 105.0034,14.7525 113.6814,17.7898 116.2847,19.5254 118.0203,22.5627 119.322,34.7119 113.2475,50.7661 112.3797,71.1593 110.6441,75.0644 106.739,77.6678 100.6644,77.2339 91.5525,71.1593 86.3458,51.2" stroke="#ff9400" stroke-width="2" /><polyline fill="none" points="42.522,12.1492 41.2203,9.1119 39.4847,8.678 23.4305,8.678 16.0542,11.7153 9.9797,22.5627 9.9797,52.9356 8.678,62.4814 12.5831,65.5186 24.7322,63.3492" stroke="#7f0000" stroke-width="2" /></svg>