<?xml version="1.0" encoding="utf-8" ?>
<svg baseProfile="tiny" height="128" version="1.2" viewBox="0,0,128,128" width="128" xmlns="http://www.w3.org/2000/svg" xmlns:ev="http://www.w3.org/2001/xml-events" xmlns:xlink="http://www.w3.org/1999/xlink"><defs /><polyline fill="none" points="91.5525,13.4508 86.7797,12.5831 83.3085,14.7525 75.0644,23.4305 73.7627,30.8068 79.4034,36.4475 83.7424,36.4475 91.1186,33.8441 95.8915,29.939 98.061,19.9593 94.5898,14.3186" stroke="#00007f" stroke-width="2" /><polyline fill="none" points="98.4949,23.8644 104.5695,25.6 109.3424,32.9763 112.3797,45.1254 112.3797,59.878 116.7186,59.878 118.8881,55.9729 119.322,39.9186 117.5864,32.9763 110.2102,26.4678 96.7593,20.8271" stroke="#004cff" stroke-width="2" /><polyline fill="none" points="92.4203,32.5424 98.061,35.1458 101.9661,41.6542 101.5322,34.278 98.9288,29.939 96.3254,28.2034" stroke="#29ffcd" stroke-width="2" /><polyline fill="none" points="80.7051,16.4881 75.0644,13.0169 59.0102,9.1119 43.8237,8.678 36.0136,9.9797 21.261,16.0542 9.5458,28.2034 8.678,31.6746 9.5458,37.3153 13.8847,39.9186 38.6169,40.3525 59.4441,39.4847 65.5186,38.1831 62.9153,38.6169 64.6508,37.3153 79.8373,31.2407" stroke="#cdff29" stroke-width="2" /><polyline fill="none" points="62.9153,39.0508 63.7831,50.7661 67.6881,67.2542 69.8576,68.5559 77.2339,64.6508 78.9695,61.1797 78.9695,55.9729 70.7254,32.1085" stroke="#ff6700" stroke-width="2" /><polyline fill="none" points="30.3729,39.0508 29.5051,49.0305 29.939,56.8407 33.4102,65.0847 36.4475,65.5186 37.7492,64.6508" stroke="#7f0000" stroke-width="2" /></svg>