<?xml version="1.0" encoding="utf-8" ?>
<svg baseProfile="tiny" height="128" version="1.2" viewBox="0,0,128,128" width="128" xmlns="http://www.w3.org/2000/svg" xmlns:ev="http://www.w3.org/2001/xml-events" xmlns:xlink="http://www.w3.org/1999/xlink"><defs /><polyline fill="none" points="78.5356,15.1864 50.7661,13.4508 28.6373,14.3186 19.5254,20.3932 10.4136,29.5051 8.678,34.278 8.678,41.2203 10.8475,39.9186 9.9797,38.1831" stroke="#00007f" stroke-width="2" /><polyline fill="none" points="9.9797,38.1831 17.3559,32.9763 19.9593,28.6373 22.9966,27.7695 29.0712,37.7492 32.9763,52.9356 45.1254,54.2373 42.522,31.2407 52.9356,32.9763 71.5932,31.2407 74.1966,47.7288 80.2712,48.5966 85.478,45.9932 83.7424,29.5051" stroke="#0028ff" stroke-width="2" /><polyline fill="none" points="77.6678,13.8847 82.8746,8.678 84.1763,9.1119" stroke="#00d4ff" stroke-width="2" /><polyline fill="none" points="82.0068,15.1864 89.3831,27.3356 89.8169,29.939 88.0814,31.2407 80.7051,30.3729 75.0644,22.1288 75.9322,18.6576" stroke="#7cff79" stroke-width="2" /><polyline fill="none" points="82.4407,14.7525 102.8339,11.2814 108.9085,16.4881 113.6814,22.9966 118.0203,31.2407 119.322,36.8814 117.1525,56.8407 116.2847,58.5763 112.3797,59.878 108.9085,58.1424 108.9085,40.7864 104.5695,32.5424 98.4949,30.3729 84.1763,32.1085" stroke="#ffe500" stroke-width="2" /><polyline fill="none" points="96.7593,18.6576 93.2881,19.0915 94.5898,21.261 96.7593,19.9593 98.061,18.2237 96.7593,16.4881" stroke="#ff4600" stroke-width="2" /><polyline fill="none" points="114.5492,45.5593 111.078,47.2949" stroke="#7f0000" stroke-width="2" /></svg>