<?xml version="1.0" encoding="utf-8" ?>
<svg baseProfile="tiny" height="128" version="1.2" viewBox="0,0,128,128" width="128" xmlns="http://www.w3.org/2000/svg" xmlns:ev="http://www.w3.org/2001/xml-events" xmlns:xlink="http://www.w3.org/1999/xlink"><defs /><polyline fill="none" points="50.7661,17.7898 44.2576,17.3559 36.8814,22.5627 32.9763,29.0712 31.2407,37.7492 31.6746,42.522 35.5797,46.4271 38.6169,46.4271 47.7288,42.522 52.5017,30.3729 52.5017,19.5254 50.7661,17.7898" stroke="#00007f" stroke-width="2" /><polyline fill="none" points="32.1085,35.5797 25.1661,26.4678 22.9966,19.9593 22.9966,14.7525 26.4678,9.1119 30.8068,8.678 36.0136,11.2814 44.6915,20.8271 45.5593,25.1661" stroke="#0028ff" stroke-width="2" /><polyline fill="none" points="52.0678,26.9017 54.6712,23.4305 57.7085,15.6203 60.3119,13.8847 67.6881,13.8847 71.5932,15.1864 74.1966,16.4881 75.9322,21.6949 74.6305,26.9017 72.0271,31.2407 52.9356,36.8814" stroke="#00d4ff" stroke-width="2" /><polyline fill="none" points="38.1831,45.1254 50.3322,47.7288 64.2169,47.7288 78.1017,45.1254 115.4169,47.2949 119.322,55.9729 118.4542,63.3492 115.8508,70.2915 106.3051,75.0644 96.7593,76.8 84.1763,76.8 55.539,73.7627 49.0305,65.5186 44.2576,49.8983 38.6169,44.6915" stroke="#7cff79" stroke-width="2" /><polyline fill="none" points="55.1051,65.0847 56.4068,67.2542 50.3322,80.2712 51.2,81.139 62.0475,79.4034 68.122,75.9322 69.4237,72.0271 64.6508,65.9525" stroke="#ffe500" stroke-width="2" /><polyline fill="none" points="76.8,74.1966 78.1017,87.2136 79.8373,86.7797 85.0441,81.139 87.2136,76.3661 87.6475,70.7254" stroke="#ff4600" stroke-width="2" /><polyline fill="none" points="30.8068,37.3153 13.0169,47.2949 8.678,61.1797 13.8847,59.4441 15.6203,57.2746 19.0915,46.861 23.8644,45.5593 35.1458,45.5593" stroke="#7f0000" stroke-width="2" /></svg>