<?xml version="1.0" encoding="utf-8" ?>
<svg baseProfile="tiny" height="128" version="1.2" viewBox="0,0,128,128" width="128" xmlns="http://www.w3.org/2000/svg" xmlns:ev="http://www.w3.org/2001/xml-events" xmlns:xlink="http://www.w3.org/1999/xlink"><defs /><polyline fill="none" points="84.1763,28.6373 68.5559,28.6373 63.3492,32.9763 61.6136,37.3153 62.9153,43.3898 68.122,49.4644 73.3288,52.0678 79.8373,52.5017 83.7424,51.2 85.9119,48.1627 85.478,28.2034" stroke="#00007f" stroke-width="2" /><polyline fill="none" points="84.1763,38.6169 103.7017,38.1831 118.0203,40.3525 119.322,43.8237 109.7763,45.9932 82.4407,43.3898" stroke="#0000fe" stroke-width="2" /><polyline fill="none" points="80.2712,37.3153 80.2712,37.3153" stroke="#0060ff" stroke-width="2" /><polyline fill="none" points="80.2712,36.8814 80.2712,37.3153" stroke="#00d4ff" stroke-width="2" /><polyline fill="none" points="78.1017,41.6542 81.139,43.3898" stroke="#4cffaa" stroke-width="2" /><polyline fill="none" points="75.4983,28.2034 73.7627,19.9593 70.7254,13.0169 65.0847,8.678 62.0475,10.8475 60.3119,13.8847 60.7458,17.7898 72.8949,30.8068" stroke="#aaff4c" stroke-width="2" /><polyline fill="none" points="81.139,27.7695 91.5525,21.6949 91.1186,27.3356 85.9119,31.6746" stroke="#ffe500" stroke-width="2" /><polyline fill="none" points="60.7458,39.9186 36.0136,34.7119 19.5254,36.0136 13.4508,38.6169 9.5458,44.2576 8.678,49.8983 11.2814,52.9356 28.6373,59.878 44.2576,62.0475 54.2373,59.0102 69.8576,45.9932" stroke="#ff7a00" stroke-width="2" /><polyline fill="none" points="26.4678,58.5763 19.5254,61.1797 15.1864,67.2542 14.3186,75.9322 16.4881,79.4034 28.2034,78.5356 33.8441,75.9322 39.9186,68.122 40.3525,60.7458" stroke="#fe1200" stroke-width="2" /><polyline fill="none" points="49.4644,58.5763 45.5593,80.7051 45.9932,91.9864 47.7288,97.6271 52.5017,99.7966 57.2746,98.4949 61.1797,94.5898 66.3864,84.6102 67.6881,73.3288 66.3864,62.4814 61.6136,54.2373 53.8034,47.7288" stroke="#7f0000" stroke-width="2" /></svg>