<?xml version="1.0" encoding="utf-8" ?>
<svg baseProfile="tiny" height="128" version="1.2" viewBox="0,0,128,128" width="128" xmlns="http://www.w3.org/2000/svg" xmlns:ev="http://www.w3.org/2001/xml-events" xmlns:xlink="http://www.w3.org/1999/xlink"><defs /><polyline fill="none" points="74.0136,69.2245 75.3197,71.8367 76.1905,91.8639 67.9184,93.1701 68.3537,85.3333 63.1293,70.0952 64.0,67.0476 52.2449,68.3537 43.102,67.0476 40.0544,69.2245 45.2789,83.1565 47.0204,92.7347 34.8299,93.1701 32.2177,90.1224 29.6054,82.2857 30.9116,64.4354 23.9456,61.3878 18.2857,63.1293 12.1905,67.9184 10.8844,66.6122 8.7075,60.517 9.1429,52.6803 21.3333,25.2517 31.7823,11.3197 37.8776,8.7075 48.3265,16.9796 50.9388,17.415 62.2585,18.7211 75.7551,15.2381 81.415,17.415 85.3333,21.7687 87.0748,22.2041 92.2993,22.6395 98.8299,20.898 119.2925,24.8163" stroke="#00007f" stroke-width="2" /></svg>