<?xml version="1.0" encoding="utf-8" ?>
<svg baseProfile="tiny" height="128" version="1.2" viewBox="0,0,128,128" width="128" xmlns="http://www.w3.org/2000/svg" xmlns:ev="http://www.w3.org/2001/xml-events" xmlns:xlink="http://www.w3.org/1999/xlink"><defs /><polyline fill="none" points="9.9797,76.3661 8.678,46.4271 11.7153,34.278 15.6203,32.5424 29.939,34.278 46.4271,34.278 58.1424,32.5424 71.5932,28.2034 79.4034,28.6373 83.7424,31.6746 87.2136,36.4475 93.2881,53.3695 93.722,69.4237 89.3831,75.0644 78.5356,76.3661 69.8576,72.8949 66.3864,63.3492 65.9525,47.7288 63.7831,45.1254 60.7458,45.1254 57.7085,52.0678 58.5763,77.2339 48.5966,75.9322 43.8237,69.4237 41.2203,62.4814 41.6542,48.5966 39.4847,47.2949 35.5797,48.1627 31.6746,50.3322 27.7695,57.2746 27.7695,66.8203 31.2407,74.6305 30.8068,77.2339 26.0339,78.1017 19.0915,72.461 16.922,66.8203 19.0915,50.7661 17.7898,49.8983 16.0542,51.2 12.5831,59.4441 11.2814,64.2169 11.2814,75.4983 9.5458,76.3661" stroke="#00007f" stroke-width="2" /><polyline fill="none" points="82.4407,30.3729 81.5729,16.4881 87.2136,11.2814 96.3254,8.678 108.4746,8.678 114.1153,13.0169 118.4542,22.9966 119.322,28.6373 118.8881,41.6542 114.1153,45.1254 94.5898,45.5593" stroke="#7f0000" stroke-width="2" /></svg>