<?xml version="1.0" encoding="utf-8" ?>
<svg baseProfile="tiny" height="128" version="1.2" viewBox="0,0,128,128" width="128" xmlns="http://www.w3.org/2000/svg" xmlns:ev="http://www.w3.org/2001/xml-events" xmlns:xlink="http://www.w3.org/1999/xlink"><defs /><polyline fill="none" points="12.6259,59.2109 10.0136,54.8571 11.7551,50.5034 16.5442,51.3741 17.8503,56.1633 10.8844,61.3878 8.7075,61.8231 8.7075,60.517" stroke="#00007f" stroke-width="2" /><polyline fill="none" points="11.3197,55.7279 10.449,58.7755 13.4966,64.8707 27.4286,76.1905 41.3605,81.415 57.034,82.2857 62.6939,79.2381 65.7415,69.6599 67.0476,53.1156 64.8707,42.6667" stroke="#004cff" stroke-width="2" /><polyline fill="none" points="16.5442,55.2925 26.9932,65.3061 32.2177,67.0476 37.0068,66.6122 46.585,61.8231 53.1156,48.7619 53.551,38.3129 73.1429,41.3605" stroke="#29ffcd" stroke-width="2" /><polyline fill="none" points="91.4286,53.9864 87.5102,55.7279 79.6735,55.7279 58.7755,47.4558 50.9388,38.3129 50.068,28.7347 54.8571,21.3333 59.6463,18.2857 67.0476,15.6735 85.7687,16.1088 92.2993,19.5918 97.5238,25.6871 98.8299,39.1837 94.9116,53.9864 89.6871,58.3401" stroke="#cdff29" stroke-width="2" /><polyline fill="none" points="93.6054,18.7211 93.1701,16.5442 94.9116,13.4966 100.5714,8.7075 111.8912,9.1429 117.1156,14.8027 119.2925,24.381 118.4218,36.1361 113.1973,44.4082 104.0544,46.585 94.0408,37.0068" stroke="#ff6700" stroke-width="2" /><polyline fill="none" points="55.2925,16.9796 51.3741,14.8027 44.4082,13.4966 38.7483,14.8027 30.9116,22.2041 27.4286,33.9592 28.7347,40.0544 33.5238,47.8912 44.8435,50.9388 53.551,36.1361" stroke="#7f0000" stroke-width="2" /></svg>