<?xml version="1.0" encoding="utf-8" ?>
<svg baseProfile="tiny" height="128" version="1.2" viewBox="0,0,128,128" width="128" xmlns="http://www.w3.org/2000/svg" xmlns:ev="http://www.w3.org/2001/xml-events" xmlns:xlink="http://www.w3.org/1999/xlink"><defs /><polyline fill="none" points="95.4576,42.0881 99.3627,38.1831 101.9661,31.2407 101.9661,21.6949 99.3627,16.922 96.3254,13.8847 90.6847,11.7153 81.139,11.2814 73.3288,13.4508 66.3864,18.6576 61.1797,25.6 58.5763,31.6746 58.5763,37.7492 64.2169,45.5593 73.3288,49.4644 78.9695,49.8983" stroke="#00007f" stroke-width="2" /><polyline fill="none" points="90.6847,39.0508 94.1559,39.9186 100.2305,44.6915 108.9085,57.7085 108.9085,60.7458 99.7966,68.122 94.1559,59.4441 80.2712,47.2949 76.3661,45.1254" stroke="#0010ff" stroke-width="2" /><polyline fill="none" points="71.1593,23.8644 71.1593,32.5424" stroke="#00a4ff" stroke-width="2" /><polyline fill="none" points="91.9864,21.6949 90.6847,29.939" stroke="#3fffb7" stroke-width="2" /><polyline fill="none" points="69.8576,16.922 62.4814,9.9797 54.6712,8.678 45.5593,13.8847 39.4847,22.1288 38.1831,32.1085 35.1458,38.6169 56.4068,41.6542 62.0475,39.4847" stroke="#b7ff3f" stroke-width="2" /><polyline fill="none" points="95.4576,15.1864 107.1729,13.8847 113.2475,21.261 119.322,39.0508 101.5322,39.4847 93.2881,36.8814" stroke="#ffb900" stroke-width="2" /><polyline fill="none" points="63.3492,43.8237 29.5051,42.9559 19.9593,45.9932 16.922,47.2949 11.2814,53.8034 8.678,70.2915 14.7525,55.9729" stroke="#ff3000" stroke-width="2" /><polyline fill="none" points="17.3559,51.6339 17.7898,75.4983 19.5254,80.2712 33.4102,79.4034 36.4475,62.0475 39.9186,53.3695 62.4814,55.1051 62.4814,76.3661 76.3661,75.9322 76.3661,52.5017" stroke="#7f0000" stroke-width="2" /></svg>