<?xml version="1.0" encoding="utf-8" ?>
<svg baseProfile="tiny" height="128" version="1.2" viewBox="0,0,128,128" width="128" xmlns="http://www.w3.org/2000/svg" xmlns:ev="http://www.w3.org/2001/xml-events" xmlns:xlink="http://www.w3.org/1999/xlink"><defs /><polyline fill="none" points="60.7458,20.3932 52.9356,18.6576 43.8237,22.9966 40.7864,31.6746 40.7864,45.5593 36.0136,52.5017 27.3356,53.3695 22.9966,51.2 18.2237,45.9932 13.8847,45.1254 11.7153,45.9932 9.1119,51.2 8.678,55.539 10.4136,56.8407 13.4508,53.8034 15.6203,53.8034 23.8644,63.3492 29.5051,67.2542 33.4102,67.2542 45.1254,60.7458 51.6339,45.9932" stroke="#00007f" stroke-width="2" /><polyline fill="none" points="47.7288,55.1051 54.6712,54.6712 62.4814,50.7661" stroke="#0028ff" stroke-width="2" /><polyline fill="none" points="57.7085,23.8644 62.0475,14.7525 69.8576,9.1119 75.9322,8.678 80.7051,13.0169 85.9119,23.4305 85.9119,35.5797 82.8746,37.7492 70.2915,38.6169" stroke="#00d4ff" stroke-width="2" /><polyline fill="none" points="47.2949,19.5254 41.2203,14.7525 36.4475,14.3186 30.3729,19.5254 27.7695,25.6 26.9017,32.5424 28.2034,37.7492 32.5424,41.6542 40.3525,44.2576" stroke="#7cff79" stroke-width="2" /><polyline fill="none" points="91.5525,38.1831 94.1559,40.3525 106.3051,42.0881 114.5492,46.861 118.0203,51.2 119.322,61.6136" stroke="#ffe500" stroke-width="2" /><polyline fill="none" points="63.7831,53.8034 62.0475,82.8746" stroke="#ff4600" stroke-width="2" /><polyline fill="none" points="65.9525,88.5153 75.0644,88.5153 79.8373,84.6102" stroke="#7f0000" stroke-width="2" /></svg>