<?xml version="1.0" encoding="utf-8" ?>
<svg baseProfile="tiny" height="128" version="1.2" viewBox="0,0,128,128" width="128" xmlns="http://www.w3.org/2000/svg" xmlns:ev="http://www.w3.org/2001/xml-events" xmlns:xlink="http://www.w3.org/1999/xlink"><defs /><polyline fill="none" points="59.6463,13.4966 59.2109,47.8912 62.6939,53.9864 65.7415,55.7279 71.8367,55.7279 77.932,50.9388 80.9796,43.102 81.415,34.3946 79.2381,27.4286 75.7551,21.7687 67.0476,14.8027 60.9524,13.0612 55.2925,15.6735" stroke="#00007f" stroke-width="2" /><polyline fill="none" points="80.5442,30.9116 94.0408,43.9728 105.3605,49.6327" stroke="#0000f1" stroke-width="2" /><polyline fill="none" points="81.415,40.9252 97.9592,49.6327 119.2925,66.6122" stroke="#004cff" stroke-width="2" /><polyline fill="none" points="56.1633,15.2381 46.585,10.8844 38.3129,10.449 31.7823,12.1905 15.6735,28.2993 11.7551,34.3946 8.7075,43.9728 8.7075,49.6327 16.9796,57.4694 21.7687,60.0816 27.8639,62.2585 40.0544,63.5646 45.7143,60.0816 48.7619,54.8571 54.8571,39.1837 61.3878,16.5442 62.2585,8.7075" stroke="#00b0ff" stroke-width="2" /><polyline fill="none" points="63.5646,24.381 64.0,18.2857 62.2585,18.2857 60.517,21.7687 64.0,23.0748 64.0,21.3333" stroke="#29ffcd" stroke-width="2" /><polyline fill="none" points="80.5442,37.8776 67.9184,42.2313 65.7415,38.7483 65.7415,30.4762 64.0,33.9592 63.5646,43.9728 64.4354,42.2313 74.0136,41.3605" stroke="#7cff79" stroke-width="2" /><polyline fill="none" points="72.2721,42.2313 82.7211,41.3605" stroke="#cdff29" stroke-width="2" /><polyline fill="none" points="67.9184,45.7143 75.7551,45.7143" stroke="#ffc400" stroke-width="2" /><polyline fill="none" points="66.6122,43.9728 66.6122,45.7143" stroke="#ff6700" stroke-width="2" /><polyline fill="none" points="74.8844,44.8435 74.8844,47.8912" stroke="#f10700" stroke-width="2" /><polyline fill="none" points="11.3197,55.2925 11.3197,74.0136" stroke="#7f0000" stroke-width="2" /></svg>