<?xml version="1.0" encoding="utf-8" ?>
<svg baseProfile="tiny" height="128" version="1.2" viewBox="0,0,128,128" width="128" xmlns="http://www.w3.org/2000/svg" xmlns:ev="http://www.w3.org/2001/xml-events" xmlns:xlink="http://www.w3.org/1999/xlink"><defs /><polyline fill="none" points="41.2203,10.4136 31.6746,9.9797 28.2034,11.7153 26.0339,14.7525 25.6,20.3932 27.3356,24.7322 33.4102,29.5051 42.0881,29.0712 49.8983,23.8644 51.6339,19.9593 51.2,16.922 45.9932,11.7153" stroke="#00007f" stroke-width="2" /><polyline fill="none" points="27.3356,23.8644 21.6949,30.8068 17.3559,52.0678 13.0169,55.539 8.678,55.9729" stroke="#0000b6" stroke-width="2" /><polyline fill="none" points="38.6169,14.7525 42.9559,13.0169 50.7661,13.4508 57.2746,16.4881 61.6136,21.261 60.7458,24.7322 57.2746,28.2034 44.6915,32.1085" stroke="#0000ec" stroke-width="2" /><polyline fill="none" points="32.5424,16.922 34.278,17.7898" stroke="#0010ff" stroke-width="2" /><polyline fill="none" points="53.8034,32.1085 64.2169,29.939 75.4983,30.3729 84.6102,32.9763 90.6847,37.3153 92.4203,41.2203 92.4203,45.1254 87.6475,51.6339 78.1017,55.1051 66.3864,54.2373 51.2,48.5966 44.2576,42.0881 42.9559,37.7492 44.6915,33.8441 52.5017,29.939" stroke="#0040ff" stroke-width="2" /><polyline fill="none" points="90.2508,50.3322 89.8169,63.7831" stroke="#0070ff" stroke-width="2" /><polyline fill="none" points="78.1017,53.3695 78.9695,55.9729" stroke="#00a4ff" stroke-width="2" /><polyline fill="none" points="65.5186,53.3695 65.5186,56.4068" stroke="#00d4ff" stroke-width="2" /><polyline fill="none" points="53.3695,47.2949 52.5017,55.1051" stroke="#18ffdd" stroke-width="2" /><polyline fill="none" points="45.5593,46.4271 44.6915,55.1051" stroke="#3fffb7" stroke-width="2" /><polyline fill="none" points="93.2881,42.9559 101.0983,36.0136 109.7763,34.278 114.9831,37.7492 118.4542,47.2949" stroke="#66ff90" stroke-width="2" /><polyline fill="none" points="117.5864,46.861 119.322,48.5966" stroke="#90ff66" stroke-width="2" /><polyline fill="none" points="118.4542,48.5966 118.4542,48.5966" stroke="#b7ff3f" stroke-width="2" /><polyline fill="none" points="113.6814,47.7288 113.2475,48.1627" stroke="#ddff18" stroke-width="2" /><polyline fill="none" points="114.5492,46.861 115.4169,47.7288" stroke="#ffe500" stroke-width="2" /><polyline fill="none" points="115.8508,44.6915 118.0203,46.4271" stroke="#ffb900" stroke-width="2" /><polyline fill="none" points="45.9932,13.4508 53.3695,9.9797 55.9729,12.1492 57.7085,16.0542 55.539,22.9966 47.7288,28.2034" stroke="#ff8900" stroke-width="2" /><polyline fill="none" points="29.0712,22.1288 25.1661,26.0339 22.9966,30.8068 20.8271,50.7661 17.3559,55.539 13.0169,57.7085" stroke="#ff5c00" stroke-width="2" /><polyline fill="none" points="19.9593,48.1627 25.6,37.3153 28.6373,27.3356 26.4678,27.3356 24.2983,29.939 17.7898,48.5966 12.1492,59.0102" stroke="#ff3000" stroke-width="2" /><polyline fill="none" points="33.4102,26.0339 29.5051,26.9017 26.4678,30.3729 22.9966,45.5593 17.3559,55.539" stroke="#ec0300" stroke-width="2" /><polyline fill="none" points="31.6746,29.0712 27.7695,28.6373 24.7322,31.2407 22.1288,45.1254 16.922,55.1051" stroke="#b60000" stroke-width="2" /><polyline fill="none" points="42.9559,11.7153 46.4271,9.5458 51.2,9.1119 55.9729,10.8475 57.7085,13.8847 58.5763,17.3559 56.8407,22.1288 51.6339,27.3356 46.4271,28.6373 48.1627,29.0712 52.5017,27.7695 56.4068,23.8644 58.5763,17.7898 58.1424,13.4508 55.539,9.9797 51.6339,8.678 46.861,10.8475 43.8237,14.7525" stroke="#7f0000" stroke-width="2" /></svg>