<?xml version="1.0" encoding="utf-8" ?>
<svg baseProfile="tiny" height="128" version="1.2" viewBox="0,0,128,128" width="128" xmlns="http://www.w3.org/2000/svg" xmlns:ev="http://www.w3.org/2001/xml-events" xmlns:xlink="http://www.w3.org/1999/xlink"><defs /><polyline fill="none" points="44.4082,51.8095 46.585,55.2925 53.9864,62.2585 64.4354,65.7415 72.7075,65.3061 79.6735,63.5646 84.0272,60.0816 87.5102,55.2925 86.6395,72.7075 80.9796,71.4014 78.8027,74.449 79.6735,80.9796 82.7211,83.5918 94.4762,80.9796 96.2177,79.6735 94.9116,54.8571" stroke="#00007f" stroke-width="2" /><polyline fill="none" points="103.1837,50.9388 105.3605,81.8503 103.1837,78.8027 99.7007,77.0612 94.0408,80.1088" stroke="#0000d5" stroke-width="2" /><polyline fill="none" points="42.2313,50.9388 45.2789,75.3197 35.7007,79.6735 26.5578,79.6735 22.6395,77.932 23.0748,72.2721 26.9932,69.2245 32.2177,70.5306 33.0884,69.6599 30.9116,50.068" stroke="#001cff" stroke-width="2" /><polyline fill="none" points="40.0544,77.4966 38.3129,63.5646 35.2653,52.2449" stroke="#006cff" stroke-width="2" /><polyline fill="none" points="31.7823,49.1973 24.8163,44.8435 20.0272,36.1361 12.6259,34.3946 9.1429,30.0408 8.7075,24.8163 11.3197,20.4626 16.1088,17.415 20.4626,17.8503 26.5578,23.9456" stroke="#00b8ff" stroke-width="2" /><polyline fill="none" points="21.7687,18.7211 23.0748,37.0068 29.6054,40.4898 32.6531,40.0544 35.7007,37.4422 37.0068,33.0884 37.0068,23.5102 34.8299,18.7211 27.8639,15.2381 20.4626,19.1565" stroke="#1cffda" stroke-width="2" /><polyline fill="none" points="36.5714,19.1565 38.3129,19.5918 41.7959,23.9456 49.6327,25.6871 54.4218,33.0884 60.517,36.1361 67.483,33.5238 89.2517,30.0408 102.7483,30.9116 109.2789,34.3946 114.5034,39.619 115.8095,47.4558 110.585,53.9864 102.7483,57.034" stroke="#5cff9a" stroke-width="2" /><polyline fill="none" points="114.068,45.2789 117.1156,47.8912 119.2925,53.1156 118.4218,53.551 113.1973,49.6327" stroke="#9aff5c" stroke-width="2" /><polyline fill="none" points="53.9864,8.7075 53.551,15.2381" stroke="#daff1c" stroke-width="2" /><polyline fill="none" points="53.1156,9.1429 66.6122,11.3197" stroke="#ffcb00" stroke-width="2" /><polyline fill="none" points="52.2449,15.2381 54.4218,15.2381" stroke="#ff8500" stroke-width="2" /><polyline fill="none" points="52.6803,17.8503 60.0816,16.9796" stroke="#ff3b00" stroke-width="2" /><polyline fill="none" points="72.2721,12.1905 72.2721,17.415" stroke="#d50000" stroke-width="2" /><polyline fill="none" points="87.0748,25.6871 83.1565,28.2993 74.0136,21.7687" stroke="#7f0000" stroke-width="2" /></svg>