<?xml version="1.0" encoding="utf-8" ?>
<svg baseProfile="tiny" height="128" version="1.2" viewBox="0,0,128,128" width="128" xmlns="http://www.w3.org/2000/svg" xmlns:ev="http://www.w3.org/2001/xml-events" xmlns:xlink="http://www.w3.org/1999/xlink"><defs /><polyline fill="none" points="45.5593,26.4678 49.8983,18.2237 61.1797,10.4136 71.5932,8.678 77.6678,12.5831 80.7051,20.8271 80.7051,27.3356 71.1593,44.6915 68.9898,50.7661 68.9898,57.7085" stroke="#00007f" stroke-width="2" /><polyline fill="none" points="29.0712,27.7695 24.2983,24.2983 19.5254,24.7322 13.4508,30.8068 8.678,39.4847 9.5458,44.2576 18.6576,48.1627 22.1288,52.0678 22.9966,62.0475" stroke="#0000ff" stroke-width="2" /><polyline fill="none" points="24.2983,60.3119 26.4678,65.9525 31.2407,65.5186" stroke="#0080ff" stroke-width="2" /><polyline fill="none" points="29.5051,29.0712 29.0712,52.5017 30.8068,60.7458 34.7119,65.0847 41.2203,66.3864 49.4644,63.7831 55.1051,57.2746 57.7085,49.8983 56.8407,40.7864 52.9356,30.3729 49.8983,26.9017 45.9932,25.6 38.6169,25.6 29.0712,31.2407" stroke="#15ffe1" stroke-width="2" /><polyline fill="none" points="70.7254,54.2373 68.122,57.7085 53.3695,64.2169 51.2,67.6881" stroke="#7cff79" stroke-width="2" /><polyline fill="none" points="37.3153,39.0508 37.7492,37.7492" stroke="#e4ff12" stroke-width="2" /><polyline fill="none" points="45.1254,34.7119 44.6915,37.3153" stroke="#ff9400" stroke-width="2" /><polyline fill="none" points="41.6542,52.5017 40.7864,63.3492 42.522,69.8576 45.5593,73.7627 53.3695,75.0644 63.7831,71.1593 82.0068,57.7085 87.2136,56.4068 104.1356,57.7085 113.2475,53.8034 118.4542,48.5966" stroke="#ff1d00" stroke-width="2" /><polyline fill="none" points="49.0305,51.6339 49.0305,63.3492 52.5017,67.2542 56.8407,68.5559 61.1797,67.6881 65.0847,65.0847 75.9322,54.2373 82.8746,50.3322 90.6847,49.8983 108.0407,52.5017 114.1153,49.8983 117.5864,45.5593 119.322,50.3322" stroke="#7f0000" stroke-width="2" /></svg>