<?xml version="1.0" encoding="utf-8" ?>
<svg baseProfile="tiny" height="128" version="1.2" viewBox="0,0,128,128" width="128" xmlns="http://www.w3.org/2000/svg" xmlns:ev="http://www.w3.org/2001/xml-events" xmlns:xlink="http://www.w3.org/1999/xlink"><defs /><polyline fill="none" points="21.6949,35.1458 22.5627,45.9932 28.6373,61.6136 29.0712,72.8949 26.0339,81.139 37.7492,85.478 47.2949,85.478 46.861,74.6305 48.5966,59.4441 45.5593,52.5017 44.6915,44.2576 54.2373,38.6169 66.8203,40.7864 72.0271,44.6915 75.9322,55.539 73.3288,74.1966 78.5356,81.5729 83.7424,82.8746 89.3831,81.139 93.2881,77.2339 89.3831,68.122 88.9492,59.0102 86.7797,50.3322 81.5729,37.3153 79.8373,35.5797 73.7627,34.278" stroke="#00007f" stroke-width="2" /><polyline fill="none" points="18.2237,30.3729 23.4305,36.8814 16.922,48.1627 16.4881,52.0678 12.5831,55.539 11.2814,55.539 8.678,52.9356 8.678,50.3322 17.3559,34.7119 18.6576,30.3729" stroke="#00d4ff" stroke-width="2" /><polyline fill="none" points="18.6576,30.3729 21.261,26.4678 29.5051,19.9593 34.278,19.5254 40.7864,23.8644 49.0305,26.4678 70.7254,26.0339 85.0441,33.4102 87.2136,37.7492" stroke="#ffe500" stroke-width="2" /><polyline fill="none" points="77.6678,30.3729 76.3661,25.6 76.8,19.5254 79.4034,13.0169 82.0068,10.8475 88.5153,9.1119 95.4576,8.678 113.6814,13.4508 117.5864,15.6203 119.322,19.5254 117.1525,27.7695 112.3797,33.4102 101.0983,38.1831" stroke="#7f0000" stroke-width="2" /></svg>