<?xml version="1.0" encoding="utf-8" ?>
<svg baseProfile="tiny" height="128" version="1.2" viewBox="0,0,128,128" width="128" xmlns="http://www.w3.org/2000/svg" xmlns:ev="http://www.w3.org/2001/xml-events" xmlns:xlink="http://www.w3.org/1999/xlink"><defs /><polyline fill="none" points="24.2983,30.8068 29.939,19.0915 38.6169,12.5831 55.1051,8.678 63.7831,8.678 72.461,11.7153 82.8746,20.8271 89.8169,49.0305 93.2881,54.2373 106.3051,67.2542" stroke="#00007f" stroke-width="2" /><polyline fill="none" points="27.3356,32.1085 26.4678,41.6542 24.2983,50.3322 9.1119,74.1966 8.678,83.3085 9.9797,85.478 17.3559,86.3458 24.7322,79.8373 47.7288,44.2576" stroke="#00d4ff" stroke-width="2" /><polyline fill="none" points="50.3322,45.1254 49.4644,58.5763 51.6339,66.8203 55.9729,75.4983 67.6881,91.9864 77.2339,97.6271 83.3085,99.3627 97.1932,98.4949 101.0983,95.0237" stroke="#ffe500" stroke-width="2" /><polyline fill="none" points="102.8339,72.0271 103.2678,56.8407 108.9085,40.3525 113.2475,37.3153 116.7186,42.0881 119.322,50.3322 117.5864,65.0847 115.8508,70.2915 111.078,75.9322 108.4746,83.7424 108.4746,104.1356" stroke="#7f0000" stroke-width="2" /></svg>