<?xml version="1.0" encoding="utf-8" ?>
<svg baseProfile="tiny" height="128" version="1.2" viewBox="0,0,128,128" width="128" xmlns="http://www.w3.org/2000/svg" xmlns:ev="http://www.w3.org/2001/xml-events" xmlns:xlink="http://www.w3.org/1999/xlink"><defs /><polyline fill="none" points="8.7075,44.8435 9.5782,38.7483 13.0612,36.1361 21.7687,34.3946 27.4286,37.0068" stroke="#00007f" stroke-width="2" /><polyline fill="none" points="26.1224,35.7007 31.3469,22.2041 41.7959,10.8844 50.9388,8.7075 71.4014,9.1429 73.1429,10.8844 75.7551,16.5442 75.7551,30.4762 70.5306,40.9252 66.1769,44.8435 59.2109,47.4558" stroke="#7cff79" stroke-width="2" /><polyline fill="none" points="67.9184,42.2313 86.2041,41.3605 97.5238,43.5374 102.3129,47.4558 105.7959,54.4218 110.1497,72.2721 109.7143,75.7551 104.4898,82.2857 104.4898,97.0884 107.5374,119.2925 97.0884,119.2925 96.6531,81.415 94.9116,80.1088 79.6735,79.2381 78.8027,80.5442 78.8027,108.4082 77.932,114.5034 75.3197,115.8095 70.5306,115.8095 67.9184,72.2721 41.3605,67.9184 40.4898,68.7891 37.4422,102.7483 28.2993,102.7483 26.5578,83.5918" stroke="#7f0000" stroke-width="2" /></svg>