<?xml version="1.0" encoding="utf-8" ?>
<svg baseProfile="tiny" height="128" version="1.2" viewBox="0,0,128,128" width="128" xmlns="http://www.w3.org/2000/svg" xmlns:ev="http://www.w3.org/2001/xml-events" xmlns:xlink="http://www.w3.org/1999/xlink"><defs /><polyline fill="none" points="33.4102,17.3559 33.4102,14.3186 29.0712,10.4136 19.9593,8.678 13.8847,12.1492 9.9797,18.2237 8.678,25.6 9.9797,34.278 14.7525,42.0881 21.6949,46.4271" stroke="#00007f" stroke-width="2" /><polyline fill="none" points="54.6712,13.0169 58.1424,9.5458 64.2169,9.5458 70.7254,15.1864 72.8949,23.4305 72.461,28.2034 66.3864,38.6169 62.0475,42.0881 57.2746,42.9559" stroke="#0010ff" stroke-width="2" /><polyline fill="none" points="32.1085,17.3559 36.8814,14.3186 44.6915,12.5831 51.6339,13.0169 54.6712,15.6203" stroke="#00a4ff" stroke-width="2" /><polyline fill="none" points="22.5627,44.6915 36.4475,44.2576 39.4847,45.9932 40.3525,50.7661 37.7492,62.0475 37.7492,72.8949 39.0508,75.9322 41.2203,75.9322 48.5966,71.1593 44.6915,65.5186 47.7288,41.2203 62.0475,42.9559" stroke="#3fffb7" stroke-width="2" /><polyline fill="none" points="37.3153,22.1288 35.1458,23.4305 33.8441,27.7695 33.8441,32.1085 35.5797,32.9763 36.8814,28.6373 36.4475,23.4305 34.278,22.5627 33.4102,26.0339 34.7119,29.0712 37.7492,29.939 38.1831,26.0339 34.7119,25.1661 32.9763,27.7695 34.278,30.3729 36.8814,30.3729 38.1831,25.6 36.8814,26.9017 37.3153,30.3729" stroke="#b7ff3f" stroke-width="2" /><polyline fill="none" points="51.6339,24.7322 49.4644,26.4678 49.4644,29.5051 52.0678,30.3729 52.9356,23.4305 52.0678,22.5627 49.8983,23.8644 49.4644,28.2034 50.7661,28.2034 50.7661,26.0339" stroke="#ffb900" stroke-width="2" /><polyline fill="none" points="69.8576,32.9763 85.0441,31.6746 103.2678,32.5424" stroke="#ff3000" stroke-width="2" /><polyline fill="none" points="56.8407,42.9559 67.2542,43.8237 71.5932,47.2949 67.6881,64.6508 67.6881,76.8 80.2712,77.2339 79.8373,57.2746 90.2508,56.4068 91.9864,55.9729 92.4203,58.5763 88.9492,75.4983 100.2305,74.6305 101.9661,60.3119 101.0983,53.8034 102.8339,53.3695 114.9831,54.2373 109.7763,63.3492 107.1729,76.3661 111.078,77.2339 119.322,73.3288" stroke="#7f0000" stroke-width="2" /></svg>