<?xml version="1.0" encoding="utf-8" ?>
<svg baseProfile="tiny" height="128" version="1.2" viewBox="0,0,128,128" width="128" xmlns="http://www.w3.org/2000/svg" xmlns:ev="http://www.w3.org/2001/xml-events" xmlns:xlink="http://www.w3.org/1999/xlink"><defs /><polyline fill="none" points="11.7153,26.0339 8.678,35.1458 9.5458,43.3898 12.5831,46.861 16.922,47.7288 35.1458,47.7288 34.7119,61.1797 36.0136,63.7831 45.1254,60.7458 43.3898,47.7288 56.4068,45.9932 56.8407,61.1797 67.6881,60.3119 66.8203,44.6915 72.0271,44.2576 81.5729,39.9186 97.6271,38.1831 97.6271,32.5424 94.5898,20.8271 95.0237,13.4508 77.2339,9.5458 48.1627,8.678 37.7492,10.4136 25.6,13.8847 17.3559,21.261 13.0169,23.4305" stroke="#00007f" stroke-width="2" /><polyline fill="none" points="93.2881,15.6203 93.2881,17.7898 95.4576,18.6576 96.3254,17.3559 95.4576,15.1864 93.2881,15.6203 95.0237,17.3559" stroke="#7cff79" stroke-width="2" /><polyline fill="none" points="95.0237,17.3559 95.0237,25.6 96.7593,23.8644 113.6814,23.8644 117.5864,26.4678 119.322,32.1085 116.2847,54.6712 114.1153,62.0475 106.3051,48.1627 105.8712,42.9559 109.7763,35.1458 103.2678,32.1085 95.4576,30.8068" stroke="#7f0000" stroke-width="2" /></svg>