<?xml version="1.0" encoding="utf-8" ?>
<svg baseProfile="tiny" height="128" version="1.2" viewBox="0,0,128,128" width="128" xmlns="http://www.w3.org/2000/svg" xmlns:ev="http://www.w3.org/2001/xml-events" xmlns:xlink="http://www.w3.org/1999/xlink"><defs /><polyline fill="none" points="25.6,30.8068 24.7322,29.0712 19.9593,26.9017 13.0169,26.4678 8.678,32.9763 9.1119,39.9186 12.5831,42.522 13.4508,44.6915 13.4508,54.6712 10.4136,65.9525 10.4136,71.5932 14.7525,76.8 20.8271,77.2339 26.9017,73.3288 29.939,67.6881" stroke="#00007f" stroke-width="2" /><polyline fill="none" points="55.539,29.0712 47.2949,27.3356 43.3898,27.7695 35.5797,31.2407 32.1085,36.8814 29.5051,49.4644 30.8068,59.4441 33.8441,65.5186 42.0881,68.122 47.2949,68.122 57.2746,65.0847 60.3119,63.3492 64.6508,59.0102 65.0847,48.5966 62.4814,38.1831 59.0102,33.8441 51.6339,29.0712" stroke="#004cff" stroke-width="2" /><polyline fill="none" points="56.8407,32.1085 63.3492,21.261 75.4983,8.678 82.0068,21.261 82.4407,27.7695 77.6678,36.0136 76.3661,45.1254 82.8746,62.4814 84.1763,68.9898 79.8373,72.0271 74.6305,73.3288 65.9525,66.3864 63.3492,61.1797" stroke="#29ffcd" stroke-width="2" /><polyline fill="none" points="51.2,56.4068 51.2,60.7458 52.5017,65.9525 58.5763,75.4983 63.3492,78.5356 72.0271,81.139 90.2508,81.5729 88.5153,86.7797 86.7797,88.5153 65.0847,89.3831 57.2746,87.6475 51.2,82.4407 42.522,68.9898 41.6542,60.7458" stroke="#cdff29" stroke-width="2" /><polyline fill="none" points="37.7492,65.0847 32.1085,80.2712 31.6746,93.2881 32.9763,114.1153 33.8441,117.5864 35.5797,119.322 45.1254,118.0203 68.9898,118.0203 71.1593,86.7797" stroke="#ff6700" stroke-width="2" /><polyline fill="none" points="70.2915,109.3424 80.2712,109.7763 84.1763,113.2475 84.1763,117.1525 80.2712,118.8881 75.9322,118.0203 71.5932,113.6814" stroke="#7f0000" stroke-width="2" /></svg>