<?xml version="1.0" encoding="utf-8" ?>
<svg baseProfile="tiny" height="128" version="1.2" viewBox="0,0,128,128" width="128" xmlns="http://www.w3.org/2000/svg" xmlns:ev="http://www.w3.org/2001/xml-events" xmlns:xlink="http://www.w3.org/1999/xlink"><defs /><polyline fill="none" points="35.5797,13.0169 45.9932,8.678 53.3695,8.678 56.4068,9.9797 58.1424,17.7898 55.1051,25.6 54.2373,32.1085 58.1424,37.3153 64.6508,39.0508 90.2508,39.0508 101.9661,41.6542 108.0407,44.6915 115.4169,54.2373 119.322,67.6881 118.0203,73.3288 113.6814,77.2339 101.5322,80.7051 85.9119,81.5729 70.2915,78.9695 43.3898,69.8576 41.6542,66.8203 41.6542,63.3492 45.5593,49.0305 44.2576,29.939 39.4847,18.2237 35.5797,17.3559 29.0712,21.6949 29.5051,18.2237 33.4102,13.4508 40.3525,10.4136" stroke="#00007f" stroke-width="2" /><polyline fill="none" points="46.4271,72.461 44.6915,88.5153 45.1254,95.0237 47.2949,98.061 49.8983,98.9288 53.8034,96.3254 56.4068,89.8169 56.4068,78.5356" stroke="#004cff" stroke-width="2" /><polyline fill="none" points="70.2915,80.7051 67.2542,88.0814 66.8203,96.3254 68.9898,102.4 72.461,100.6644 74.6305,91.1186 73.3288,80.7051" stroke="#29ffcd" stroke-width="2" /><polyline fill="none" points="95.8915,81.5729 95.0237,98.061 100.6644,101.9661 103.2678,101.9661 105.4373,92.4203 100.2305,78.1017" stroke="#cdff29" stroke-width="2" /><polyline fill="none" points="107.6068,79.4034 106.739,97.1932 115.4169,101.0983 117.1525,95.4576 114.9831,79.4034" stroke="#ff6700" stroke-width="2" /><polyline fill="none" points="34.278,12.5831 26.0339,24.7322 22.9966,38.6169 18.2237,46.861 11.7153,48.5966 8.678,46.4271 9.1119,50.7661 12.1492,53.8034 18.2237,53.3695 26.9017,47.7288 32.5424,25.1661 35.5797,20.3932 41.2203,17.3559" stroke="#7f0000" stroke-width="2" /></svg>