<?xml version="1.0" encoding="utf-8" ?>
<svg baseProfile="tiny" height="128" version="1.2" viewBox="0,0,128,128" width="128" xmlns="http://www.w3.org/2000/svg" xmlns:ev="http://www.w3.org/2001/xml-events" xmlns:xlink="http://www.w3.org/1999/xlink"><defs /><polyline fill="none" points="58.1424,15.6203 53.3695,15.6203 45.9932,21.6949 36.4475,35.1458 33.4102,47.2949 34.278,57.2746 39.0508,62.4814 44.6915,64.2169 49.0305,64.2169 52.9356,62.0475 56.8407,58.1424 62.0475,47.2949 64.6508,36.0136 64.6508,29.939 60.7458,23.4305" stroke="#00007f" stroke-width="2" /><polyline fill="none" points="63.3492,21.261 64.6508,17.3559 66.8203,14.7525 77.6678,9.9797 87.6475,8.678 91.5525,9.9797 95.4576,13.4508 97.1932,23.4305 93.2881,33.4102 87.2136,39.9186 75.0644,46.861 56.8407,51.6339" stroke="#004cff" stroke-width="2" /><polyline fill="none" points="39.0508,23.4305 31.2407,19.0915 26.4678,19.0915 22.1288,21.261 12.5831,32.9763 8.678,43.8237 10.4136,51.6339 18.2237,59.4441 26.9017,61.6136 36.8814,61.6136" stroke="#29ffcd" stroke-width="2" /><polyline fill="none" points="48.5966,47.2949 45.5593,67.2542 47.2949,90.2508 54.2373,113.6814 58.5763,118.8881 60.7458,119.322 62.9153,116.7186 64.6508,101.0983 59.878,74.6305 55.9729,65.0847 52.9356,49.4644" stroke="#cdff29" stroke-width="2" /><polyline fill="none" points="50.3322,29.5051 47.7288,31.6746 46.4271,39.9186 46.861,41.2203 48.5966,39.9186 49.4644,37.3153 48.1627,36.8814" stroke="#ff6700" stroke-width="2" /><polyline fill="none" points="59.0102,33.4102 56.8407,35.1458 56.8407,37.3153 58.5763,38.6169 60.7458,36.8814 60.3119,33.4102 57.7085,32.9763 57.7085,34.7119" stroke="#7f0000" stroke-width="2" /></svg>