<?xml version="1.0" encoding="utf-8" ?>
<svg baseProfile="tiny" height="128" version="1.2" viewBox="0,0,128,128" width="128" xmlns="http://www.w3.org/2000/svg" xmlns:ev="http://www.w3.org/2001/xml-events" xmlns:xlink="http://www.w3.org/1999/xlink"><defs /><polyline fill="none" points="72.8949,8.678 51.2,10.4136 33.4102,9.1119 26.4678,11.2814 22.5627,15.1864 16.4881,26.4678 8.678,30.8068 20.8271,20.8271 21.6949,43.8237 35.1458,45.1254 35.5797,35.5797 38.1831,37.3153 51.2,36.0136 52.5017,44.2576 62.9153,42.0881 68.9898,42.9559 71.5932,36.0136 65.9525,33.8441 77.2339,33.4102 78.1017,33.8441 78.5356,44.2576 89.8169,42.9559 93.2881,32.1085 83.3085,30.3729 88.9492,14.3186 90.2508,12.1492 93.2881,10.8475 98.061,13.0169 101.0983,17.3559 103.2678,23.4305 103.7017,34.7119 108.4746,42.522 112.8136,43.8237 117.1525,41.6542 119.322,36.0136 118.4542,30.3729 117.1525,30.3729 115.8508,39.0508 111.5119,38.6169" stroke="#00007f" stroke-width="2" /></svg>