<?xml version="1.0" encoding="utf-8" ?>
<svg baseProfile="tiny" height="128" version="1.2" viewBox="0,0,128,128" width="128" xmlns="http://www.w3.org/2000/svg" xmlns:ev="http://www.w3.org/2001/xml-events" xmlns:xlink="http://www.w3.org/1999/xlink"><defs /><polyline fill="none" points="29.0712,34.7119 20.3932,38.6169 8.678,52.0678 11.2814,52.9356 14.7525,49.0305 24.7322,41.6542 29.939,39.9186 31.6746,42.0881 32.5424,55.9729 34.7119,63.3492 36.8814,67.2542 39.9186,68.5559 43.8237,67.6881 47.2949,45.5593 48.5966,44.6915 71.5932,45.1254 75.0644,64.2169 91.1186,65.9525 93.2881,65.9525 94.1559,62.4814 94.5898,47.7288 106.739,45.1254 118.4542,49.0305 119.322,48.5966 118.8881,45.5593 109.3424,42.0881 101.0983,27.7695 83.3085,19.9593 53.8034,15.6203 49.4644,17.3559 39.4847,23.8644 36.8814,23.8644 32.5424,10.8475 29.939,8.678 21.261,9.5458 18.2237,12.1492 19.5254,19.0915 28.6373,26.9017 26.0339,31.6746" stroke="#00007f" stroke-width="2" /></svg>