<?xml version="1.0" encoding="utf-8" ?>
<svg baseProfile="tiny" height="128" version="1.2" viewBox="0,0,128,128" width="128" xmlns="http://www.w3.org/2000/svg" xmlns:ev="http://www.w3.org/2001/xml-events" xmlns:xlink="http://www.w3.org/1999/xlink"><defs /><polyline fill="none" points="58.5392,22.2799 51.1126,20.5324 44.1229,22.7167 37.1331,27.5222 32.3276,34.0751 31.8908,37.1331 33.2014,44.1229 46.744,60.2867 46.3072,65.0922 35.3857,71.2082 27.5222,72.9556 19.2218,73.8294 8.7372,72.5188" stroke="#00007f" stroke-width="2" /><polyline fill="none" points="97.8567,13.1058 95.2355,10.4846 90.8669,8.7372 76.4505,8.7372 63.7816,15.2901 59.8498,20.0956 57.2287,26.6485 56.7918,34.5119 58.5392,54.6075 64.6553,74.2662 71.6451,85.1877 76.4505,88.6826 78.6348,88.6826 81.256,86.4983 87.8089,76.4505 91.3038,63.3447 92.1775,13.5427" stroke="#004cff" stroke-width="2" /><polyline fill="none" points="80.3823,85.1877 83.8771,88.6826 87.372,89.9932 100.4778,88.2457" stroke="#29ffcd" stroke-width="2" /><polyline fill="none" points="80.8191,85.1877 77.7611,107.0307 77.7611,119.2628" stroke="#cdff29" stroke-width="2" /><polyline fill="none" points="92.1775,89.1195 89.9932,117.9522" stroke="#ff6700" stroke-width="2" /><polyline fill="none" points="10.4846,73.3925 9.6109,81.6928 13.1058,85.1877 38.8805,85.1877 48.9283,81.6928 55.0444,72.5188 56.7918,64.6553 55.0444,58.1024 47.1809,44.5597 46.3072,40.628 48.0546,35.3857 53.7338,33.6382" stroke="#7f0000" stroke-width="2" /></svg>