<?xml version="1.0" encoding="utf-8" ?>
<svg baseProfile="tiny" height="128" version="1.2" viewBox="0,0,128,128" width="128" xmlns="http://www.w3.org/2000/svg" xmlns:ev="http://www.w3.org/2001/xml-events" xmlns:xlink="http://www.w3.org/1999/xlink"><defs /><polyline fill="none" points="52.6803,28.7347 44.8435,21.7687 41.7959,20.4626 37.8776,21.7687 33.5238,25.6871 30.9116,31.7823 30.9116,41.3605 33.0884,44.4082 36.5714,46.585 42.2313,47.0204 47.8912,44.4082 51.8095,40.4898 53.551,35.7007 53.551,28.7347 51.3741,24.8163" stroke="#00007f" stroke-width="2" /><polyline fill="none" points="53.9864,31.3469 53.9864,31.3469" stroke="#0000cc" stroke-width="2" /><polyline fill="none" points="53.9864,31.3469 57.9048,25.6871 67.0476,20.898 80.1088,19.1565 91.8639,20.898 103.1837,25.2517 112.7619,33.0884 114.5034,39.1837 111.8912,46.1497 107.5374,50.9388 101.0068,53.9864 78.3673,55.7279 67.483,54.4218 59.6463,51.8095 51.8095,46.585 47.8912,41.7959" stroke="#0008ff" stroke-width="2" /><polyline fill="none" points="58.7755,53.1156 58.3401,73.5782" stroke="#004cff" stroke-width="2" /><polyline fill="none" points="69.6599,53.551 67.483,78.3673" stroke="#0090ff" stroke-width="2" /><polyline fill="none" points="56.5986,72.2721 57.4694,75.7551 61.8231,78.8027 65.7415,78.3673 69.6599,75.3197" stroke="#00d4ff" stroke-width="2" /><polyline fill="none" points="80.5442,54.8571 78.8027,55.7279" stroke="#29ffcd" stroke-width="2" /><polyline fill="none" points="73.5782,53.551 74.0136,74.449 69.6599,74.0136 68.3537,70.0952" stroke="#5fff96" stroke-width="2" /><polyline fill="none" points="90.1224,54.4218 90.9932,62.6939 89.2517,75.3197" stroke="#96ff5f" stroke-width="2" /><polyline fill="none" points="98.3946,54.4218 96.2177,76.6259" stroke="#cdff29" stroke-width="2" /><polyline fill="none" points="87.9456,73.5782 91.8639,77.932 98.3946,75.7551" stroke="#ffe500" stroke-width="2" /><polyline fill="none" points="115.3741,37.8776 117.9864,37.4422 119.2925,38.7483 117.9864,43.5374 114.5034,44.4082 117.1156,44.8435" stroke="#ffa600" stroke-width="2" /><polyline fill="none" points="40.4898,29.1701 38.3129,26.5578 38.7483,21.3333 42.2313,15.2381 47.4558,10.449 52.6803,8.7075 56.5986,9.1429 62.6939,14.8027 64.4354,20.0272 64.0,26.1224 61.8231,30.9116 58.3401,35.7007 53.9864,37.4422 50.068,37.4422 44.4082,35.7007 42.6667,33.5238" stroke="#ff6700" stroke-width="2" /><polyline fill="none" points="33.5238,24.8163 29.1701,18.2857 29.6054,14.8027 31.7823,11.3197 34.8299,9.5782 38.3129,10.0136 40.4898,12.1905 41.7959,17.415" stroke="#ff2800" stroke-width="2" /><polyline fill="none" points="30.9116,35.7007 27.8639,37.0068 26.1224,40.0544 26.5578,54.8571 23.5102,64.4354 20.898,67.483 17.415,68.3537 11.3197,66.6122 8.7075,64.0 18.7211,73.5782 22.2041,74.0136 26.1224,70.966 29.1701,64.0 29.6054,48.7619 32.6531,38.3129" stroke="#cc0000" stroke-width="2" /><polyline fill="none" points="33.9592,31.7823 35.7007,28.2993 37.8776,29.1701 37.4422,32.2177 35.7007,33.5238 33.9592,31.7823 33.5238,28.7347" stroke="#7f0000" stroke-width="2" /></svg>