<?xml version="1.0" encoding="utf-8" ?>
<svg baseProfile="tiny" height="128" version="1.2" viewBox="0,0,128,128" width="128" xmlns="http://www.w3.org/2000/svg" xmlns:ev="http://www.w3.org/2001/xml-events" xmlns:xlink="http://www.w3.org/1999/xlink"><defs /><polyline fill="none" points="47.7288,45.9932 46.4271,53.8034 48.1627,55.539 53.3695,56.8407 59.0102,55.9729 64.6508,45.5593 68.9898,46.861 70.2915,55.539 72.8949,57.2746 81.5729,57.7085 83.7424,54.6712 85.0441,49.0305 87.2136,48.1627 90.6847,49.0305 92.4203,56.8407 99.7966,57.2746 102.8339,52.9356 102.4,44.6915 106.3051,42.9559 109.7763,42.9559 115.8508,49.8983 118.0203,50.7661 119.322,49.8983 119.322,46.4271 114.9831,41.2203 107.1729,35.1458 97.6271,29.939 88.9492,19.9593 65.5186,15.1864 55.1051,21.261 50.7661,25.6 46.4271,39.0508 46.861,46.861" stroke="#00007f" stroke-width="2" /><polyline fill="none" points="49.8983,10.4136 37.7492,9.1119 32.1085,10.4136 27.3356,16.0542 25.6,22.5627 26.4678,27.3356 28.6373,29.0712 43.3898,31.6746 49.0305,30.8068 53.8034,24.7322 54.6712,13.4508 52.5017,10.4136 48.1627,8.678 41.6542,15.1864" stroke="#7cff79" stroke-width="2" /><polyline fill="none" points="26.0339,22.1288 20.8271,22.5627 15.6203,29.0712 12.1492,46.4271 8.678,52.9356 16.0542,52.9356 21.261,29.939 28.2034,23.4305" stroke="#7f0000" stroke-width="2" /></svg>