<?xml version="1.0" encoding="utf-8" ?>
<svg baseProfile="tiny" height="128" version="1.2" viewBox="0,0,128,128" width="128" xmlns="http://www.w3.org/2000/svg" xmlns:ev="http://www.w3.org/2001/xml-events" xmlns:xlink="http://www.w3.org/1999/xlink"><defs /><polyline fill="none" points="26.1224,24.8163 21.7687,25.2517 18.2857,27.4286 11.7551,39.1837 8.7075,78.8027 10.8844,80.1088 18.7211,79.6735 18.7211,48.7619 21.7687,44.4082 26.9932,41.7959" stroke="#00007f" stroke-width="2" /><polyline fill="none" points="26.5578,23.9456 26.1224,18.2857 28.2993,15.2381 38.7483,14.3673 46.1497,14.8027 49.6327,10.8844 55.2925,10.449 60.0816,14.3673 64.4354,28.7347 64.8707,37.8776 63.1293,44.4082 60.9524,49.6327 57.4694,52.6803 53.9864,51.8095 49.6327,48.7619 43.9728,37.0068 38.7483,39.619 28.7347,40.9252" stroke="#004cff" stroke-width="2" /><polyline fill="none" points="37.0068,24.8163 36.5714,24.8163" stroke="#29ffcd" stroke-width="2" /><polyline fill="none" points="35.7007,13.4966 29.6054,9.1429 23.9456,8.7075 20.898,11.7551 18.7211,22.6395" stroke="#cdff29" stroke-width="2" /><polyline fill="none" points="63.1293,23.5102 94.0408,22.2041 101.4422,23.9456 107.102,28.7347 116.6803,53.1156 119.2925,64.8707 118.8571,99.2653 103.1837,98.3946 99.7007,77.932 96.6531,70.0952" stroke="#ff6700" stroke-width="2" /><polyline fill="none" points="96.6531,70.966 82.2857,70.966 62.6939,73.1429 50.9388,72.7075 50.068,101.0068 47.8912,101.4422 36.5714,99.7007 36.1361,75.7551" stroke="#7f0000" stroke-width="2" /></svg>