<?xml version="1.0" encoding="utf-8" ?>
<svg baseProfile="tiny" height="128" version="1.2" viewBox="0,0,128,128" width="128" xmlns="http://www.w3.org/2000/svg" xmlns:ev="http://www.w3.org/2001/xml-events" xmlns:xlink="http://www.w3.org/1999/xlink"><defs /><polyline fill="none" points="55.9181,17.0375 53.2969,19.2218 49.3652,24.901 47.6177,34.0751 48.9283,42.3754 55.0444,46.3072 60.2867,45.8703 69.4608,39.7543 72.9556,34.5119 73.8294,29.2696 72.5188,23.5904 66.8396,18.785 58.9761,17.0375 52.4232,17.9113 63.7816,8.7372 68.587,16.1638 72.0819,19.2218" stroke="#00007f" stroke-width="2" /><polyline fill="none" points="49.802,34.9488 40.1911,48.0546 31.0171,52.4232 24.4642,48.0546 16.1638,35.8225 12.6689,34.0751 9.6109,34.9488 8.7372,38.4437 15.2901,49.802 25.7747,57.2287 33.2014,58.1024 45.4334,53.7338 55.4812,41.0648" stroke="#0028ff" stroke-width="2" /><polyline fill="none" points="72.9556,33.6382 87.372,27.959 96.5461,27.5222 102.6621,28.8328 109.6519,31.8908 114.0205,36.6962 114.8942,41.9386 113.5836,45.8703 105.7201,51.9863 92.6143,52.8601 81.256,48.4915 70.7713,38.4437" stroke="#00d4ff" stroke-width="2" /><polyline fill="none" points="80.8191,46.3072 79.9454,58.5392 76.4505,61.5973 75.5768,65.529 77.3242,67.2765 81.6928,67.7133 86.0614,65.529 88.6826,60.7235 89.5563,53.2969 91.7406,58.9761 92.6143,66.4027 87.372,66.8396" stroke="#7cff79" stroke-width="2" /><polyline fill="none" points="104.4096,52.4232 107.9044,58.9761 108.3413,66.4027 105.7201,68.1502 101.3515,68.1502 100.9147,58.1024" stroke="#ffe500" stroke-width="2" /><polyline fill="none" points="110.5256,51.9863 112.7099,56.7918 113.1468,62.0341 110.9625,67.2765" stroke="#ff4600" stroke-width="2" /><polyline fill="none" points="116.6416,39.3174 119.2628,41.0648 119.2628,42.8123 117.0785,44.9966 114.0205,44.9966" stroke="#7f0000" stroke-width="2" /></svg>