<?xml version="1.0" encoding="utf-8" ?>
<svg baseProfile="tiny" height="128" version="1.2" viewBox="0,0,128,128" width="128" xmlns="http://www.w3.org/2000/svg" xmlns:ev="http://www.w3.org/2001/xml-events" xmlns:xlink="http://www.w3.org/1999/xlink"><defs /><polyline fill="none" points="81.5729,24.7322 90.2508,26.9017 96.7593,22.1288 105.4373,19.5254 111.9458,19.0915 115.4169,20.8271 118.4542,27.3356 119.322,37.7492 117.5864,44.6915 112.8136,52.5017 108.4746,56.4068 102.8339,56.8407 91.9864,51.2 88.5153,51.6339 85.478,57.7085 75.9322,59.4441 64.2169,75.9322 54.6712,81.5729 50.3322,82.4407 50.7661,77.2339 61.6136,66.8203 65.9525,60.7458 62.9153,57.2746 61.6136,49.4644 54.2373,42.0881 53.8034,36.4475 55.539,30.3729 61.6136,22.1288 69.4237,19.0915 74.6305,19.0915 82.0068,24.2983" stroke="#00007f" stroke-width="2" /><polyline fill="none" points="78.5356,20.3932 72.461,12.5831 63.3492,8.678 56.8407,9.1119 53.8034,10.8475 47.2949,19.0915 42.9559,31.6746 43.8237,42.9559 47.7288,48.1627 51.6339,49.0305 59.4441,49.0305 65.0847,46.4271" stroke="#0080ff" stroke-width="2" /><polyline fill="none" points="82.4407,45.5593 82.0068,43.3898" stroke="#7cff79" stroke-width="2" /><polyline fill="none" points="69.4237,43.8237 69.4237,45.1254" stroke="#ff9400" stroke-width="2" /><polyline fill="none" points="45.1254,78.9695 29.939,73.7627 16.4881,62.4814 13.4508,68.9898 9.9797,71.1593 8.678,73.7627 13.0169,76.3661 13.8847,81.5729 15.1864,82.8746 29.0712,86.7797" stroke="#7f0000" stroke-width="2" /></svg>