<?xml version="1.0" encoding="utf-8" ?>
<svg baseProfile="tiny" height="128" version="1.2" viewBox="0,0,128,128" width="128" xmlns="http://www.w3.org/2000/svg" xmlns:ev="http://www.w3.org/2001/xml-events" xmlns:xlink="http://www.w3.org/1999/xlink"><defs /><polyline fill="none" points="79.8373,11.7153 72.0271,10.8475 65.5186,12.1492 55.9729,17.3559 52.0678,21.6949 46.4271,33.8441 45.5593,60.7458 41.2203,68.122 34.278,71.5932 26.4678,68.9898 23.4305,65.9525 20.8271,56.4068 19.0915,55.539 9.5458,58.1424 8.678,59.4441 16.922,75.0644 25.1661,81.5729 32.9763,85.478 39.9186,87.2136 48.5966,87.2136 67.6881,82.0068 78.5356,77.6678" stroke="#00007f" stroke-width="2" /><polyline fill="none" points="74.1966,12.5831 86.7797,18.6576 90.6847,13.0169 101.9661,8.678 108.9085,9.5458 116.2847,14.3186 119.322,21.261 119.322,29.0712 118.0203,39.9186 113.2475,55.539 112.3797,61.6136 117.1525,76.3661 117.5864,82.8746" stroke="#00d4ff" stroke-width="2" /><polyline fill="none" points="118.0203,88.9492 116.7186,93.722 111.9458,100.6644 105.0034,102.4 96.7593,100.6644 78.9695,91.5525 70.7254,82.4407 69.8576,73.7627 71.5932,60.3119" stroke="#ffe500" stroke-width="2" /><polyline fill="none" points="59.0102,39.4847 58.5763,46.4271 62.0475,46.4271 64.2169,44.6915 64.6508,42.0881 62.4814,41.6542 58.5763,45.5593 60.7458,43.8237 61.1797,42.522 58.5763,44.6915 60.3119,43.8237 60.3119,42.0881" stroke="#7f0000" stroke-width="2" /></svg>