<?xml version="1.0" encoding="utf-8" ?>
<svg baseProfile="tiny" height="128" version="1.2" viewBox="0,0,128,128" width="128" xmlns="http://www.w3.org/2000/svg" xmlns:ev="http://www.w3.org/2001/xml-events" xmlns:xlink="http://www.w3.org/1999/xlink"><defs /><polyline fill="none" points="26.4678,28.6373 29.0712,22.9966 36.0136,15.1864 41.6542,11.7153 50.3322,8.678 58.5763,10.8475 65.5186,19.0915 70.7254,22.1288 76.3661,21.261 88.0814,16.0542 90.6847,18.2237 97.1932,30.3729 108.4746,45.1254 118.8881,49.8983 119.322,51.6339 117.1525,53.3695 111.078,55.9729 105.0034,54.6712 97.1932,48.1627 88.9492,36.0136 82.4407,33.8441 78.5356,37.7492 77.2339,54.2373 68.122,55.9729 65.9525,55.539 64.6508,49.0305 61.1797,47.2949 59.0102,47.7288 53.3695,53.8034 47.7288,54.2373 46.861,49.0305 45.5593,48.1627 34.278,55.1051 31.2407,55.539 24.7322,51.2 24.7322,49.4644 26.9017,46.861 21.6949,39.9186 25.6,57.7085 20.8271,39.4847 8.678,39.9186" stroke="#00007f" stroke-width="2" /></svg>