<?xml version="1.0" encoding="utf-8" ?>
<svg baseProfile="tiny" height="128" version="1.2" viewBox="0,0,128,128" width="128" xmlns="http://www.w3.org/2000/svg" xmlns:ev="http://www.w3.org/2001/xml-events" xmlns:xlink="http://www.w3.org/1999/xlink"><defs /><polyline fill="none" points="30.3729,27.3356 19.5254,27.3356 14.7525,22.5627 11.7153,14.3186 9.5458,16.4881 8.678,22.9966 12.1492,30.3729 19.0915,34.278 26.4678,34.278" stroke="#00007f" stroke-width="2" /><polyline fill="none" points="33.8441,24.2983 35.5797,17.7898 39.9186,12.1492 45.1254,8.678 56.8407,8.678 64.2169,13.4508" stroke="#0000c3" stroke-width="2" /><polyline fill="none" points="49.8983,10.4136 49.0305,20.8271 49.8983,24.2983 52.9356,25.6 57.2746,24.2983 62.0475,19.5254 64.2169,13.8847" stroke="#0000ff" stroke-width="2" /><polyline fill="none" points="42.522,16.4881 42.522,16.4881" stroke="#0034ff" stroke-width="2" /><polyline fill="none" points="42.9559,13.4508 42.522,18.2237" stroke="#0070ff" stroke-width="2" /><polyline fill="none" points="64.2169,15.6203 67.2542,21.6949 67.2542,40.7864 72.461,48.5966 77.6678,50.7661 95.0237,49.4644 108.4746,52.5017 113.2475,55.1051 116.2847,62.4814 119.322,92.4203" stroke="#00acff" stroke-width="2" /><polyline fill="none" points="110.6441,54.6712 110.2102,75.9322 108.0407,81.139 101.5322,87.6475 99.7966,93.2881 100.2305,98.9288 97.1932,103.2678 89.8169,102.8339 86.3458,98.9288 84.6102,89.8169 85.0441,78.9695 78.9695,97.6271 70.7254,102.4 69.4237,98.9288 68.5559,80.2712 65.5186,75.9322 60.3119,73.7627 48.5966,75.4983 43.8237,78.5356 40.7864,93.722 36.8814,95.8915 31.2407,90.6847 29.939,76.3661 31.2407,72.8949 29.0712,75.4983 22.9966,95.8915 20.8271,98.061 14.7525,97.1932 10.8475,85.9119 13.0169,72.8949 15.1864,67.2542 32.9763,43.8237 36.4475,29.939" stroke="#02e8f4" stroke-width="2" /><polyline fill="none" points="13.0169,89.8169 13.0169,89.8169" stroke="#32ffc3" stroke-width="2" /><polyline fill="none" points="18.6576,92.4203 18.6576,92.4203" stroke="#63ff93" stroke-width="2" /><polyline fill="none" points="14.7525,90.2508 14.7525,90.2508" stroke="#93ff63" stroke-width="2" /><polyline fill="none" points="38.6169,91.1186 38.6169,91.1186" stroke="#c3ff32" stroke-width="2" /><polyline fill="none" points="38.1831,86.3458 38.1831,87.2136" stroke="#f4f802" stroke-width="2" /><polyline fill="none" points="13.0169,88.0814 17.3559,99.3627" stroke="#ffc000" stroke-width="2" /><polyline fill="none" points="36.4475,86.3458 31.6746,101.5322" stroke="#ff8900" stroke-width="2" /><polyline fill="none" points="76.3661,91.1186 74.6305,105.4373" stroke="#ff5100" stroke-width="2" /><polyline fill="none" points="95.8915,95.8915 94.1559,112.3797" stroke="#ff1a00" stroke-width="2" /><polyline fill="none" points="91.5525,95.8915 89.8169,108.4746" stroke="#c30000" stroke-width="2" /><polyline fill="none" points="75.4983,93.722 75.4983,93.722" stroke="#7f0000" stroke-width="2" /></svg>