<?xml version="1.0" encoding="utf-8" ?>
<svg baseProfile="tiny" height="128" version="1.2" viewBox="0,0,128,128" width="128" xmlns="http://www.w3.org/2000/svg" xmlns:ev="http://www.w3.org/2001/xml-events" xmlns:xlink="http://www.w3.org/1999/xlink"><defs /><polyline fill="none" points="59.6463,12.1905 46.1497,12.6259 40.0544,16.5442 34.3946,22.6395 30.0408,32.6531 23.9456,63.1293 13.0612,64.0 8.7075,60.0816 8.7075,67.483 13.4966,67.0476 13.932,68.3537" stroke="#00007f" stroke-width="2" /><polyline fill="none" points="13.932,68.3537 31.7823,68.7891 35.7007,67.0476 40.0544,35.7007 43.5374,24.8163" stroke="#004cff" stroke-width="2" /><polyline fill="none" points="43.5374,24.8163 49.6327,25.2517 55.2925,27.4286 59.6463,32.2177 60.9524,38.7483 61.3878,62.2585 95.3469,61.3878 97.9592,59.2109 98.8299,55.7279" stroke="#29ffcd" stroke-width="2" /><polyline fill="none" points="97.9592,55.2925 106.6667,55.7279 109.7143,61.3878 118.4218,64.0" stroke="#cdff29" stroke-width="2" /><polyline fill="none" points="118.4218,64.0 119.2925,31.3469 114.5034,17.415 111.4558,17.415 103.1837,13.4966 83.5918,9.1429 63.1293,8.7075 59.6463,10.449" stroke="#ff6700" stroke-width="2" /><polyline fill="none" points="67.9184,16.1088 70.5306,14.3673 69.6599,18.7211 68.3537,18.7211 68.3537,15.2381 70.0952,14.8027 69.2245,16.9796" stroke="#7f0000" stroke-width="2" /></svg>