<?xml version="1.0" encoding="utf-8" ?>
<svg baseProfile="tiny" height="128" version="1.2" viewBox="0,0,128,128" width="128" xmlns="http://www.w3.org/2000/svg" xmlns:ev="http://www.w3.org/2001/xml-events" xmlns:xlink="http://www.w3.org/1999/xlink"><defs /><polyline fill="none" points="68.3537,26.9932 68.3537,25.6871 77.0612,21.7687 86.6395,20.898 89.6871,22.2041 98.3946,30.0408 106.2313,29.6054 108.8435,26.1224 109.7143,20.0272 106.2313,15.6735 97.5238,13.0612 97.5238,10.0136 99.7007,8.7075 105.7959,10.0136 112.7619,14.3673 118.4218,20.4626 119.2925,24.8163 114.068,33.5238 107.5374,37.4422 93.1701,39.1837 80.9796,45.2789 73.5782,46.585 66.6122,45.7143" stroke="#00007f" stroke-width="2" /><polyline fill="none" points="70.5306,32.2177 70.0952,40.4898 70.966,41.7959 74.0136,42.2313 80.1088,35.7007 80.9796,28.2993" stroke="#004cff" stroke-width="2" /><polyline fill="none" points="90.5578,28.2993 90.1224,30.0408 91.8639,29.1701 90.9932,28.7347" stroke="#29ffcd" stroke-width="2" /><polyline fill="none" points="91.4286,29.1701 90.1224,29.6054" stroke="#cdff29" stroke-width="2" /><polyline fill="none" points="67.9184,46.1497 48.7619,55.7279 52.6803,60.0816 52.2449,65.3061 43.9728,66.6122 41.7959,59.6463 40.9252,66.6122 38.3129,68.7891 32.2177,68.3537 30.4762,60.9524 19.1565,59.6463 14.8027,64.4354 13.0612,57.034" stroke="#ff6700" stroke-width="2" /><polyline fill="none" points="13.0612,56.1633 8.7075,56.1633 9.5782,48.3265 15.2381,38.3129 23.0748,31.3469 34.3946,26.5578 55.2925,24.8163 63.5646,23.0748" stroke="#7f0000" stroke-width="2" /></svg>