<?xml version="1.0" encoding="utf-8" ?>
<svg baseProfile="tiny" height="128" version="1.2" viewBox="0,0,128,128" width="128" xmlns="http://www.w3.org/2000/svg" xmlns:ev="http://www.w3.org/2001/xml-events" xmlns:xlink="http://www.w3.org/1999/xlink"><defs /><polyline fill="none" points="40.9252,43.5374 32.2177,54.4218 26.1224,66.1769 24.381,85.3333 25.6871,102.7483 29.6054,111.4558 33.5238,114.068 35.2653,111.4558 30.9116,97.5238 31.7823,78.3673 35.2653,67.0476 43.5374,53.551" stroke="#00007f" stroke-width="2" /><polyline fill="none" points="50.068,21.3333 53.551,15.6735 60.0816,10.449 70.5306,8.7075 73.1429,12.6259 71.4014,19.1565 67.9184,23.5102 59.6463,27.4286 69.2245,24.381 77.4966,26.9932 79.6735,30.4762 77.4966,36.5714 68.7891,43.102 73.5782,43.102 76.6259,45.2789 77.0612,49.1973 75.7551,51.8095 65.7415,56.1633 53.1156,55.2925" stroke="#0000d5" stroke-width="2" /><polyline fill="none" points="27.4286,16.5442 15.2381,13.932 9.5782,16.5442 8.7075,19.1565 8.7075,24.8163 10.0136,27.4286 17.415,30.4762 13.932,32.2177 11.3197,37.4422 11.7551,57.034 15.2381,58.7755 20.4626,58.7755" stroke="#001cff" stroke-width="2" /><polyline fill="none" points="47.8912,34.8299 47.8912,32.6531" stroke="#006cff" stroke-width="2" /><polyline fill="none" points="31.7823,33.0884 31.3469,32.6531" stroke="#00b8ff" stroke-width="2" /><polyline fill="none" points="28.2993,17.8503 33.9592,17.415 41.3605,20.4626" stroke="#1cffda" stroke-width="2" /><polyline fill="none" points="53.551,54.8571 43.5374,56.5986" stroke="#5cff9a" stroke-width="2" /><polyline fill="none" points="18.2857,58.7755 18.2857,58.7755" stroke="#9aff5c" stroke-width="2" /><polyline fill="none" points="70.5306,23.5102 95.7823,24.381 107.9728,30.0408 117.551,40.4898 119.2925,49.1973 118.8571,59.2109 113.6327,64.4354 107.9728,66.6122 80.1088,69.2245 70.0952,66.6122 54.8571,58.7755" stroke="#daff1c" stroke-width="2" /><polyline fill="none" points="54.4218,57.9048 53.1156,74.449 55.2925,97.0884 57.034,97.5238 60.517,93.6054 62.2585,86.6395 61.3878,73.5782 58.7755,65.3061" stroke="#ffcb00" stroke-width="2" /><polyline fill="none" points="70.966,69.2245 69.2245,77.4966 68.7891,90.9932 69.6599,96.6531 71.8367,100.5714 74.0136,101.0068 78.8027,96.2177 81.8503,88.8163 81.415,77.0612 77.4966,67.0476" stroke="#ff8500" stroke-width="2" /><polyline fill="none" points="104.9252,68.3537 107.9728,97.9592 111.0204,96.2177 115.3741,86.6395 116.2449,78.3673 111.0204,64.4354 107.5374,59.6463" stroke="#ff3b00" stroke-width="2" /><polyline fill="none" points="116.6803,61.8231 116.2449,61.8231" stroke="#d50000" stroke-width="2" /><polyline fill="none" points="94.4762,66.6122 94.4762,88.381 96.2177,94.0408 100.1361,97.5238 101.8776,97.0884 104.0544,86.2041 101.4422,68.3537" stroke="#7f0000" stroke-width="2" /></svg>