<?xml version="1.0" encoding="utf-8" ?>
<svg baseProfile="tiny" height="128" version="1.2" viewBox="0,0,128,128" width="128" xmlns="http://www.w3.org/2000/svg" xmlns:ev="http://www.w3.org/2001/xml-events" xmlns:xlink="http://www.w3.org/1999/xlink"><defs /><polyline fill="none" points="33.0884,18.2857 28.2993,33.5238 19.5918,50.9388 16.5442,53.1156 13.932,53.1156 8.7075,46.1497 8.7075,54.8571 15.2381,60.9524 16.9796,60.9524 26.1224,54.8571 31.3469,47.4558 40.4898,27.4286 41.7959,14.3673 44.4082,13.0612 47.8912,13.0612 50.5034,15.2381 55.7279,25.2517 51.8095,40.4898 50.068,58.7755 50.9388,63.5646 56.5986,58.7755 53.9864,54.4218 53.1156,49.1973 57.034,33.9592 60.0816,27.4286 76.1905,34.3946 96.2177,40.0544 97.5238,43.102 96.6531,56.5986 100.1361,57.034 104.0544,53.551 104.0544,42.6667 105.7959,36.1361 111.8912,36.5714 114.9388,40.4898 115.3741,56.5986 117.9864,55.7279 119.2925,52.6803 116.6803,43.9728 117.9864,37.0068 115.3741,33.9592 110.585,32.2177 105.3605,33.0884 97.0884,26.5578 83.5918,21.7687 56.1633,16.1088 47.4558,9.1429 42.6667,8.7075 35.2653,11.3197 34.8299,18.7211 30.9116,23.0748 32.2177,23.0748" stroke="#00007f" stroke-width="2" /><polyline fill="none" points="47.4558,10.449 47.4558,10.8844" stroke="#7f0000" stroke-width="2" /></svg>