<?xml version="1.0" encoding="utf-8" ?>
<svg baseProfile="tiny" height="128" version="1.2" viewBox="0,0,128,128" width="128" xmlns="http://www.w3.org/2000/svg" xmlns:ev="http://www.w3.org/2001/xml-events" xmlns:xlink="http://www.w3.org/1999/xlink"><defs /><polyline fill="none" points="28.7347,41.7959 27.4286,50.9388 30.0408,54.8571 32.6531,54.8571 38.3129,50.9388" stroke="#00007f" stroke-width="2" /><polyline fill="none" points="57.4694,42.6667 59.2109,51.3741 56.5986,55.7279 52.2449,57.034 47.4558,53.1156" stroke="#0000de" stroke-width="2" /><polyline fill="none" points="37.8776,52.6803 35.7007,64.0 32.6531,68.7891 28.2993,71.8367 22.2041,71.4014 12.1905,63.5646 10.0136,66.1769 8.7075,77.932 10.449,86.2041 14.8027,89.6871 24.8163,90.1224 39.619,83.5918 45.7143,77.4966 46.585,71.8367 42.6667,60.0816 47.8912,50.9388" stroke="#0028ff" stroke-width="2" /><polyline fill="none" points="14.8027,74.8844 14.3673,80.5442 13.4966,78.8027" stroke="#0080ff" stroke-width="2" /><polyline fill="none" points="30.0408,36.1361 33.0884,33.9592 36.5714,34.3946 35.7007,39.1837 29.6054,40.0544 28.7347,37.0068" stroke="#00d4ff" stroke-width="2" /><polyline fill="none" points="48.7619,34.8299 47.4558,37.4422 45.2789,38.7483 44.4082,37.8776" stroke="#36ffc0" stroke-width="2" /><polyline fill="none" points="24.8163,23.5102 34.3946,16.1088 47.0204,11.3197 58.7755,9.1429 75.3197,8.7075 82.2857,10.449 91.8639,16.1088 95.7823,23.0748 97.9592,34.8299 98.3946,85.3333" stroke="#7cff79" stroke-width="2" /><polyline fill="none" points="57.9048,43.9728 54.8571,28.7347 51.3741,26.9932 44.8435,29.6054" stroke="#c0ff36" stroke-width="2" /><polyline fill="none" points="26.5578,42.6667 25.2517,37.8776 27.4286,33.9592 32.6531,31.3469 37.4422,32.2177" stroke="#ffe500" stroke-width="2" /><polyline fill="none" points="50.9388,64.0 50.068,77.932 51.8095,87.0748 54.4218,91.4286 63.1293,99.7007 67.9184,101.8776 74.0136,102.7483 83.1565,100.5714" stroke="#ff9400" stroke-width="2" /><polyline fill="none" points="55.2925,96.2177 54.8571,103.619 50.5034,119.2925 79.2381,117.1156 73.5782,99.2653" stroke="#ff4600" stroke-width="2" /><polyline fill="none" points="88.381,99.2653 90.1224,98.8299 85.7687,105.3605 84.898,113.6327 85.7687,116.6803 89.6871,116.2449 97.5238,109.2789 97.5238,84.0272" stroke="#de0000" stroke-width="2" /><polyline fill="none" points="48.3265,80.9796 28.2993,89.2517 32.2177,97.5238 32.6531,105.7959 35.7007,107.102 38.3129,105.7959" stroke="#7f0000" stroke-width="2" /></svg>