<?xml version="1.0" encoding="utf-8" ?>
<svg baseProfile="tiny" height="128" version="1.2" viewBox="0,0,128,128" width="128" xmlns="http://www.w3.org/2000/svg" xmlns:ev="http://www.w3.org/2001/xml-events" xmlns:xlink="http://www.w3.org/1999/xlink"><defs /><polyline fill="none" points="77.4966,20.0272 76.1905,17.8503 69.6599,16.5442 63.1293,16.5442 53.551,20.0272 40.0544,30.0408 35.7007,40.0544 36.1361,47.0204 37.8776,50.9388 42.6667,57.9048 46.585,60.9524 60.517,66.6122 70.0952,65.7415 75.7551,60.0816 78.8027,53.1156 78.8027,36.5714 77.4966,22.2041" stroke="#00007f" stroke-width="2" /><polyline fill="none" points="60.517,20.4626 71.8367,13.0612 81.8503,8.7075 92.7347,9.5782 97.0884,15.2381 99.7007,21.7687 99.7007,32.2177 94.0408,43.9728 84.0272,57.034" stroke="#0000d5" stroke-width="2" /><polyline fill="none" points="61.8231,13.932 49.6327,8.7075 28.2993,8.7075 20.4626,12.6259 9.5782,25.6871 8.7075,37.4422 13.4966,43.5374 27.8639,49.6327 41.7959,51.3741" stroke="#001cff" stroke-width="2" /><polyline fill="none" points="59.2109,31.7823 55.2925,38.7483 53.1156,50.068 52.6803,83.1565 53.551,86.6395 54.4218,87.0748 58.7755,87.0748 60.9524,85.7687 65.7415,78.3673 67.0476,72.7075 67.483,58.3401 61.3878,33.0884" stroke="#006cff" stroke-width="2" /><polyline fill="none" points="44.8435,21.3333 44.8435,24.8163 47.8912,26.1224 50.068,23.0748 51.3741,24.8163 50.5034,26.5578 51.8095,27.4286 55.7279,25.6871 56.5986,21.3333 54.4218,21.7687 51.8095,25.6871 50.068,30.9116 54.4218,29.6054 57.4694,25.6871 57.4694,23.0748 55.2925,22.2041 53.551,23.0748 53.551,24.8163" stroke="#00b8ff" stroke-width="2" /><polyline fill="none" points="78.8027,28.7347 74.8844,26.5578 70.5306,26.1224 67.0476,29.1701 65.7415,33.9592 69.2245,31.7823 72.2721,24.8163 72.7075,19.5918 71.4014,19.5918 70.5306,25.2517" stroke="#1cffda" stroke-width="2" /><polyline fill="none" points="24.8163,100.1361 36.5714,100.5714 37.8776,99.2653 37.0068,94.0408 31.7823,89.2517 28.2993,87.9456 23.9456,88.8163 19.5918,94.9116 18.7211,101.4422 23.0748,104.9252 34.3946,106.2313" stroke="#5cff9a" stroke-width="2" /><polyline fill="none" points="47.8912,94.9116 47.4558,105.3605 49.6327,108.8435" stroke="#9aff5c" stroke-width="2" /><polyline fill="none" points="59.2109,100.5714 65.7415,100.1361 67.483,97.9592 56.5986,96.6531 54.4218,101.8776 54.4218,105.7959 56.5986,107.102 67.483,108.8435" stroke="#daff1c" stroke-width="2" /><polyline fill="none" points="74.8844,96.6531 74.8844,107.9728 74.8844,96.2177 76.1905,93.1701 77.932,90.9932 83.1565,90.9932 85.7687,94.9116 86.2041,99.2653 84.898,101.8776 82.2857,102.7483 77.0612,101.8776" stroke="#ffcb00" stroke-width="2" /><polyline fill="none" points="91.8639,98.8299 90.9932,111.8912 93.1701,107.102 96.2177,105.3605 97.9592,105.7959 99.2653,111.8912" stroke="#ff8500" stroke-width="2" /><polyline fill="none" points="110.585,105.3605 104.0544,104.9252 101.0068,107.9728 100.1361,112.3265 107.9728,111.0204 110.1497,106.6667 108.8435,106.6667 107.5374,109.2789 107.5374,113.1973 108.4082,115.8095 110.585,117.1156" stroke="#ff3b00" stroke-width="2" /><polyline fill="none" points="110.585,105.7959 108.8435,109.7143 110.585,111.8912" stroke="#d50000" stroke-width="2" /><polyline fill="none" points="111.8912,119.2925 111.8912,119.2925" stroke="#7f0000" stroke-width="2" /></svg>