<?xml version="1.0" encoding="utf-8" ?>
<svg baseProfile="tiny" height="128" version="1.2" viewBox="0,0,128,128" width="128" xmlns="http://www.w3.org/2000/svg" xmlns:ev="http://www.w3.org/2001/xml-events" xmlns:xlink="http://www.w3.org/1999/xlink"><defs /><polyline fill="none" points="47.2949,20.8271 49.8983,36.8814 50.7661,54.2373 49.4644,82.8746 50.3322,95.4576 48.1627,91.1186" stroke="#00007f" stroke-width="2" /><polyline fill="none" points="49.4644,28.2034 49.4644,25.1661 52.5017,19.9593 61.1797,16.0542 69.4237,19.0915 73.7627,26.4678 74.1966,33.4102 70.7254,40.3525 65.5186,45.5593 55.539,49.8983" stroke="#0028ff" stroke-width="2" /><polyline fill="none" points="49.0305,19.5254 35.1458,28.6373 25.1661,39.9186 19.9593,55.9729 18.2237,76.8 21.261,103.7017 22.9966,105.4373 30.8068,105.4373 33.4102,98.061 34.278,87.6475 36.0136,79.4034 52.5017,58.1424" stroke="#00d4ff" stroke-width="2" /><polyline fill="none" points="39.0508,39.0508 39.9186,44.2576" stroke="#7cff79" stroke-width="2" /><polyline fill="none" points="21.261,81.5729 8.678,96.3254 10.8475,100.2305 17.3559,97.1932" stroke="#ffe500" stroke-width="2" /><polyline fill="none" points="47.2949,21.6949 54.2373,15.6203 66.3864,11.2814 76.3661,8.678 90.6847,9.5458 106.739,16.922 117.1525,30.3729 119.322,37.7492 115.8508,60.7458 115.8508,83.3085 113.2475,87.2136 103.7017,91.5525 91.9864,93.722 80.2712,94.5898 52.0678,93.2881" stroke="#ff4600" stroke-width="2" /><polyline fill="none" points="54.2373,91.9864 52.9356,108.0407 67.6881,113.2475 69.4237,113.2475 70.2915,110.6441 72.0271,93.2881" stroke="#7f0000" stroke-width="2" /></svg>