<?xml version="1.0" encoding="utf-8" ?>
<svg baseProfile="tiny" height="128" version="1.2" viewBox="0,0,128,128" width="128" xmlns="http://www.w3.org/2000/svg" xmlns:ev="http://www.w3.org/2001/xml-events" xmlns:xlink="http://www.w3.org/1999/xlink"><defs /><polyline fill="none" points="45.5593,64.6508 43.3898,51.6339 47.7288,41.6542 51.2,39.0508 61.1797,38.6169 64.2169,40.3525" stroke="#00007f" stroke-width="2" /><polyline fill="none" points="52.0678,55.9729 55.539,61.6136 55.9729,69.4237 48.5966,105.8712 64.6508,108.0407 63.3492,103.7017 62.9153,79.4034 67.2542,61.6136 58.1424,51.6339" stroke="#0000ff" stroke-width="2" /><polyline fill="none" points="63.3492,39.9186 70.2915,40.3525 80.7051,48.5966 82.8746,52.0678 82.4407,57.7085 78.9695,62.4814 68.122,68.5559 64.2169,68.5559" stroke="#0080ff" stroke-width="2" /><polyline fill="none" points="43.3898,63.3492 58.5763,68.5559" stroke="#15ffe1" stroke-width="2" /><polyline fill="none" points="49.0305,56.4068 32.9763,55.9729 19.5254,50.3322 13.8847,44.2576 9.1119,32.1085 8.678,20.8271 10.8475,16.0542 16.4881,10.4136 23.8644,8.678 29.939,9.5458 41.2203,15.6203 42.9559,19.0915 43.3898,32.1085" stroke="#7cff79" stroke-width="2" /><polyline fill="none" points="72.461,45.1254 72.461,39.4847 76.3661,29.5051 80.2712,24.2983 85.9119,20.8271 105.8712,18.6576 114.5492,22.9966 119.322,34.7119 115.8508,48.1627 111.9458,52.0678 105.8712,54.6712 95.8915,57.2746 85.478,57.7085" stroke="#e4ff12" stroke-width="2" /><polyline fill="none" points="42.0881,28.2034 43.8237,27.7695 47.2949,29.939 54.2373,39.9186" stroke="#ff9400" stroke-width="2" /><polyline fill="none" points="55.539,96.3254 69.8576,96.7593" stroke="#ff1d00" stroke-width="2" /><polyline fill="none" points="55.1051,83.3085 61.6136,81.5729" stroke="#7f0000" stroke-width="2" /></svg>