<?xml version="1.0" encoding="utf-8" ?>
<svg baseProfile="tiny" height="128" version="1.2" viewBox="0,0,128,128" width="128" xmlns="http://www.w3.org/2000/svg" xmlns:ev="http://www.w3.org/2001/xml-events" xmlns:xlink="http://www.w3.org/1999/xlink"><defs /><polyline fill="none" points="56.4068,42.0881 56.4068,51.6339 51.6339,68.5559 58.5763,72.8949 62.0475,72.8949 62.4814,37.3153 58.5763,39.0508" stroke="#00007f" stroke-width="2" /><polyline fill="none" points="72.0271,38.1831 61.1797,74.1966 66.3864,76.8 74.6305,75.0644 77.2339,72.8949 75.9322,66.3864 75.9322,46.861 78.5356,34.7119" stroke="#0080ff" stroke-width="2" /><polyline fill="none" points="90.2508,52.0678 89.8169,75.0644 100.6644,79.4034 101.5322,78.5356 105.8712,36.8814 98.9288,44.2576 92.4203,48.1627 90.6847,51.6339" stroke="#7cff79" stroke-width="2" /><polyline fill="none" points="112.8136,30.3729 102.8339,82.4407 111.5119,77.2339 113.6814,50.3322 119.322,35.1458 115.4169,31.2407 96.7593,36.0136 83.3085,46.4271 80.2712,46.861 70.7254,43.3898 61.1797,33.8441 55.539,33.8441 51.2,36.0136 47.7288,33.4102 45.9932,25.1661 40.3525,28.6373 38.6169,28.2034" stroke="#ff9400" stroke-width="2" /><polyline fill="none" points="45.5593,24.2983 43.3898,32.1085 41.2203,34.278 38.6169,33.4102 32.9763,21.6949 29.5051,22.5627 19.5254,29.0712 17.3559,39.0508 17.3559,47.7288 16.0542,58.1424 13.4508,65.0847 9.1119,70.7254 8.678,64.2169 13.4508,35.1458 16.0542,26.9017 20.3932,20.8271 29.0712,17.3559 32.9763,18.2237 33.4102,11.7153 36.0136,8.678 38.1831,8.678 39.9186,16.4881 53.8034,18.2237 60.7458,21.261 89.3831,20.3932 99.7966,22.5627 112.8136,28.2034 116.2847,31.6746 117.5864,36.4475" stroke="#7f0000" stroke-width="2" /></svg>