<?xml version="1.0" encoding="utf-8" ?>
<svg baseProfile="tiny" height="128" version="1.2" viewBox="0,0,128,128" width="128" xmlns="http://www.w3.org/2000/svg" xmlns:ev="http://www.w3.org/2001/xml-events" xmlns:xlink="http://www.w3.org/1999/xlink"><defs /><polyline fill="none" points="28.3959,48.0546 32.7645,86.9352 30.5802,90.43 19.6587,95.2355 16.1638,95.2355 11.3584,89.5563 9.1741,76.4505 8.7372,47.6177 11.3584,34.0751 13.5427,30.5802 31.8908,21.843 44.9966,20.9693 55.9181,17.4744 66.4027,17.0375 79.5085,19.2218 86.4983,22.7167 92.1775,25.7747 96.5461,31.8908 100.9147,52.8601 100.9147,79.0717 93.9249,89.9932 89.5563,92.1775 83.4403,89.5563 77.7611,83.0034 79.5085,53.7338 79.0717,48.4915 76.4505,44.9966 72.0819,45.8703 69.0239,50.2389 67.2765,84.314 65.529,87.8089 63.3447,88.2457 60.2867,87.372 56.3549,81.6928 55.0444,55.0444 51.9863,44.9966 49.802,44.1229 46.3072,49.3652 44.9966,57.2287 45.4334,86.4983 39.3174,72.0819 36.2594,58.5392 33.2014,53.7338 29.2696,50.2389" stroke="#00007f" stroke-width="2" /><polyline fill="none" points="93.4881,29.2696 96.1092,15.727 102.2253,9.1741 104.8464,8.7372 109.6519,11.3584 113.1468,15.2901 115.3311,20.9693 117.0785,40.1911 115.7679,50.2389 110.5256,59.8498 104.8464,63.3447 98.7304,62.9078 93.9249,58.9761 89.1195,50.6758 86.9352,43.2491 85.6246,32.7645 90.43,20.9693 98.7304,12.6689" stroke="#00d4ff" stroke-width="2" /><polyline fill="none" points="103.9727,44.1229 115.7679,74.7031 115.7679,78.198 119.2628,83.4403 118.3891,87.8089 114.4573,86.0614 110.9625,67.7133 102.2253,47.1809 99.6041,35.3857" stroke="#ffe500" stroke-width="2" /><polyline fill="none" points="107.9044,18.3481 110.0887,21.4061 109.215,24.901 109.215,22.7167" stroke="#7f0000" stroke-width="2" /></svg>