<?xml version="1.0" encoding="utf-8" ?>
<svg baseProfile="tiny" height="128" version="1.2" viewBox="0,0,128,128" width="128" xmlns="http://www.w3.org/2000/svg" xmlns:ev="http://www.w3.org/2001/xml-events" xmlns:xlink="http://www.w3.org/1999/xlink"><defs /><polyline fill="none" points="8.678,52.5017 8.678,34.7119 12.1492,29.5051 16.4881,28.2034 30.8068,28.2034 49.8983,30.3729 60.7458,24.7322 65.9525,13.8847 68.9898,11.7153 78.1017,10.8475 82.8746,16.0542 85.478,31.6746 83.3085,36.0136 79.4034,38.1831 72.8949,39.9186 65.5186,39.4847 58.5763,32.1085 56.4068,26.9017" stroke="#00007f" stroke-width="2" /><polyline fill="none" points="111.9458,12.1492 114.9831,13.8847 117.5864,19.5254 117.1525,26.4678 114.5492,29.5051 111.078,32.1085 106.3051,33.4102 101.0983,32.9763 97.1932,29.939 94.5898,22.5627 94.5898,14.3186 96.3254,10.4136 99.7966,8.678 106.3051,8.678 111.078,10.8475" stroke="#0080ff" stroke-width="2" /><polyline fill="none" points="92.4203,16.0542 92.4203,32.5424 94.5898,39.4847 101.0983,45.9932 117.5864,53.3695 119.322,56.8407 119.322,61.6136 116.7186,65.5186 114.1153,66.8203 105.8712,65.5186 91.9864,53.8034 85.478,41.6542 84.1763,24.7322" stroke="#7cff79" stroke-width="2" /><polyline fill="none" points="79.8373,33.4102 79.4034,47.2949 85.9119,62.9153 87.2136,59.878 83.3085,37.3153" stroke="#ff9400" stroke-width="2" /><polyline fill="none" points="100.2305,33.8441 105.8712,41.6542 111.9458,45.9932 105.8712,45.1254 98.061,39.4847" stroke="#7f0000" stroke-width="2" /></svg>