<?xml version="1.0" encoding="utf-8" ?>
<svg baseProfile="tiny" height="128" version="1.2" viewBox="0,0,128,128" width="128" xmlns="http://www.w3.org/2000/svg" xmlns:ev="http://www.w3.org/2001/xml-events" xmlns:xlink="http://www.w3.org/1999/xlink"><defs /><polyline fill="none" points="40.4898,32.2177 42.2313,18.7211 45.7143,12.6259 52.6803,9.5782 59.2109,8.7075 74.8844,9.1429 79.6735,12.1905 84.898,22.2041 98.8299,38.7483 119.2925,54.4218 119.2925,58.3401 116.6803,64.4354 115.3741,65.3061 110.1497,57.4694 100.5714,54.8571 93.6054,50.5034 82.7211,38.7483 75.7551,37.8776 74.0136,39.1837 71.8367,45.2789 73.1429,81.8503 72.7075,88.8163 70.966,91.8639 61.8231,75.7551 62.2585,88.8163 60.517,95.7823 57.9048,98.3946 51.8095,96.6531 48.7619,90.9932 49.6327,70.5306 45.2789,67.483 20.4626,70.0952 16.9796,84.4626 11.7551,89.6871 9.1429,85.7687 8.7075,78.3673" stroke="#00007f" stroke-width="2" /></svg>