<?xml version="1.0" encoding="utf-8" ?>
<svg baseProfile="tiny" height="128" version="1.2" viewBox="0,0,128,128" width="128" xmlns="http://www.w3.org/2000/svg" xmlns:ev="http://www.w3.org/2001/xml-events" xmlns:xlink="http://www.w3.org/1999/xlink"><defs /><polyline fill="none" points="58.5763,9.9797 47.2949,9.5458 36.8814,12.5831 25.6,18.6576 20.3932,23.4305 14.7525,31.2407 12.1492,45.9932" stroke="#00007f" stroke-width="2" /><polyline fill="none" points="55.1051,8.678 73.3288,11.7153 87.6475,19.0915 95.8915,26.9017 102.8339,42.0881 106.739,55.539 107.1729,65.9525 101.5322,74.1966 90.6847,79.8373 78.5356,82.4407 37.3153,82.4407 27.3356,80.2712 18.6576,74.1966 9.9797,49.0305 8.678,41.2203" stroke="#004cff" stroke-width="2" /><polyline fill="none" points="19.0915,73.3288 17.3559,95.8915 17.3559,108.0407 18.6576,111.078 29.5051,112.3797 32.1085,111.078 33.8441,104.1356 33.8441,91.5525 31.6746,82.4407" stroke="#29ffcd" stroke-width="2" /><polyline fill="none" points="44.6915,83.3085 50.7661,116.7186 52.5017,119.322 57.2746,119.322 63.7831,114.9831 66.8203,108.9085 67.2542,99.3627 65.5186,83.3085" stroke="#cdff29" stroke-width="2" /><polyline fill="none" points="80.2712,84.1763 79.4034,102.8339 81.5729,107.6068 82.8746,107.6068 87.6475,91.9864 85.9119,82.4407" stroke="#ff6700" stroke-width="2" /><polyline fill="none" points="93.722,79.4034 94.5898,94.1559 97.6271,106.739 101.0983,108.4746 104.5695,105.8712 109.7763,98.9288 111.5119,88.5153 110.6441,85.9119 106.739,81.5729 98.4949,75.4983" stroke="#7f0000" stroke-width="2" /></svg>