<?xml version="1.0" encoding="utf-8" ?>
<svg baseProfile="tiny" height="128" version="1.2" viewBox="0,0,128,128" width="128" xmlns="http://www.w3.org/2000/svg" xmlns:ev="http://www.w3.org/2001/xml-events" xmlns:xlink="http://www.w3.org/1999/xlink"><defs /><polyline fill="none" points="37.8776,38.7483 33.5238,37.4422 27.8639,41.7959 24.381,49.6327 23.0748,60.0816 20.4626,68.3537 16.1088,75.7551 8.7075,80.9796 10.449,87.0748 15.6735,84.4626 27.4286,62.6939 32.2177,55.7279 39.1837,50.068 43.9728,50.5034" stroke="#00007f" stroke-width="2" /><polyline fill="none" points="39.619,37.0068 38.7483,33.9592 39.619,30.0408 45.7143,25.6871 48.7619,24.8163 56.5986,25.6871 61.8231,34.3946 61.8231,40.4898 52.6803,49.1973 47.0204,52.2449 43.9728,51.8095 42.6667,48.7619" stroke="#004cff" stroke-width="2" /><polyline fill="none" points="39.619,26.5578 40.0544,16.1088 43.9728,8.7075 56.1633,15.6735 71.4014,33.5238" stroke="#29ffcd" stroke-width="2" /><polyline fill="none" points="40.0544,26.5578 41.7959,22.2041 46.1497,20.0272 55.2925,19.5918 60.517,21.7687 68.3537,30.0408 76.6259,49.6327 76.6259,52.6803 73.5782,54.4218 66.1769,54.8571 55.7279,37.8776 45.7143,26.9932 43.102,21.7687" stroke="#cdff29" stroke-width="2" /><polyline fill="none" points="55.7279,42.6667 61.3878,43.9728" stroke="#ff6700" stroke-width="2" /><polyline fill="none" points="78.8027,42.6667 109.7143,40.9252 114.068,45.7143 115.8095,57.9048 114.9388,70.5306 119.2925,103.1837 111.4558,105.3605 104.4898,104.0544 90.5578,81.8503 97.0884,103.619 85.3333,104.9252 81.8503,101.8776 76.6259,83.1565 77.932,103.1837 63.1293,107.102 61.8231,104.0544 60.0816,91.4286 57.9048,87.0748 55.2925,86.6395 54.4218,97.9592 51.3741,105.3605 45.7143,108.8435 42.6667,108.4082" stroke="#7f0000" stroke-width="2" /></svg>