<?xml version="1.0" encoding="utf-8" ?>
<svg baseProfile="tiny" height="128" version="1.2" viewBox="0,0,128,128" width="128" xmlns="http://www.w3.org/2000/svg" xmlns:ev="http://www.w3.org/2001/xml-events" xmlns:xlink="http://www.w3.org/1999/xlink"><defs /><polyline fill="none" points="8.678,13.4508 13.8847,11.7153 31.2407,10.8475 42.522,15.6203 58.5763,16.922 70.7254,9.1119 79.4034,8.678 90.2508,13.4508 95.4576,23.8644 95.0237,30.3729 97.1932,34.278 118.0203,57.2746 119.322,65.0847 115.4169,70.7254 110.2102,68.5559 111.5119,65.9525 111.9458,59.4441 103.7017,52.9356 89.3831,35.5797 84.1763,38.1831 82.4407,40.7864 74.6305,41.6542 74.1966,50.7661 77.2339,67.6881 75.0644,68.9898 68.5559,68.9898 64.6508,66.3864 63.7831,46.4271 60.7458,41.2203 59.4441,41.2203 58.5763,49.0305 60.7458,60.7458 59.4441,63.7831 55.9729,63.3492 53.8034,59.0102 52.9356,43.3898 51.2,41.2203 49.0305,40.3525" stroke="#00007f" stroke-width="2" /></svg>