<?xml version="1.0" encoding="utf-8" ?>
<svg baseProfile="tiny" height="128" version="1.2" viewBox="0,0,128,128" width="128" xmlns="http://www.w3.org/2000/svg" xmlns:ev="http://www.w3.org/2001/xml-events" xmlns:xlink="http://www.w3.org/1999/xlink"><defs /><polyline fill="none" points="73.1429,29.6054 67.9184,35.7007 65.3061,44.4082 64.8707,58.3401 67.483,66.1769 74.0136,71.8367 81.8503,74.449 90.9932,74.449 97.5238,71.8367 102.7483,67.0476 105.7959,60.517 108.8435,43.102 107.9728,33.5238 100.5714,23.9456 97.0884,20.898 90.5578,17.8503 82.2857,17.8503 75.7551,19.5918 62.2585,27.8639 62.6939,35.2653" stroke="#00007f" stroke-width="2" /><polyline fill="none" points="80.9796,30.9116 87.0748,18.2857 92.7347,11.3197 97.0884,8.7075 104.4898,8.7075 114.9388,13.932 117.9864,19.1565 119.2925,25.2517 118.8571,42.6667 117.1156,46.1497 114.068,49.1973 108.8435,50.9388 103.619,51.3741" stroke="#004cff" stroke-width="2" /><polyline fill="none" points="74.449,29.6054 66.6122,20.4626 60.0816,20.0272 52.6803,23.9456 44.4082,31.3469 41.7959,35.7007 41.3605,43.5374 45.7143,49.6327 51.3741,51.8095 62.6939,50.9388" stroke="#29ffcd" stroke-width="2" /><polyline fill="none" points="73.1429,57.034 71.8367,60.517 73.1429,66.6122 71.4014,67.483 68.3537,75.7551 62.6939,80.5442 56.1633,83.1565 51.3741,83.1565 47.4558,80.9796 24.381,65.3061 20.898,64.4354 16.9796,66.6122 11.7551,74.8844 9.5782,74.8844 8.7075,80.5442 11.3197,83.1565 15.6735,81.8503 14.8027,75.3197 11.7551,71.8367" stroke="#cdff29" stroke-width="2" /><polyline fill="none" points="13.0612,84.0272 13.932,82.2857 22.6395,80.5442 26.5578,81.8503 30.0408,87.9456 36.1361,91.4286 66.1769,92.7347 74.449,89.6871 77.4966,85.3333 79.6735,79.6735 79.2381,64.4354" stroke="#ff6700" stroke-width="2" /><polyline fill="none" points="94.0408,67.0476 97.0884,72.7075 99.2653,81.8503 98.8299,90.5578 94.4762,97.5238 90.5578,99.7007 90.5578,89.6871 86.6395,73.5782" stroke="#7f0000" stroke-width="2" /></svg>