<?xml version="1.0" encoding="utf-8" ?>
<svg baseProfile="tiny" height="128" version="1.2" viewBox="0,0,128,128" width="128" xmlns="http://www.w3.org/2000/svg" xmlns:ev="http://www.w3.org/2001/xml-events" xmlns:xlink="http://www.w3.org/1999/xlink"><defs /><polyline fill="none" points="59.4441,47.2949 68.9898,38.1831 80.7051,30.8068 87.2136,28.2034 94.5898,27.7695 103.7017,31.6746 106.739,39.0508 104.5695,42.522 85.478,50.3322 61.1797,49.4644 58.5763,48.5966 60.7458,47.7288" stroke="#00007f" stroke-width="2" /><polyline fill="none" points="60.7458,47.7288 60.7458,47.7288" stroke="#0000f1" stroke-width="2" /><polyline fill="none" points="59.4441,43.8237 29.939,37.7492 8.678,44.2576 12.5831,46.4271 22.5627,56.4068 29.0712,58.5763 48.1627,56.4068 49.4644,49.8983 48.1627,46.4271 50.3322,45.1254 58.5763,45.9932" stroke="#004cff" stroke-width="2" /><polyline fill="none" points="18.6576,59.878 20.3932,78.9695 24.7322,69.4237 25.1661,63.7831" stroke="#00b0ff" stroke-width="2" /><polyline fill="none" points="27.3356,59.878 25.6,79.8373 30.3729,78.1017 33.8441,73.3288 36.4475,62.4814 34.7119,60.7458" stroke="#29ffcd" stroke-width="2" /><polyline fill="none" points="41.6542,57.2746 39.4847,67.2542 44.2576,76.3661 49.0305,65.0847 46.861,56.4068" stroke="#7cff79" stroke-width="2" /><polyline fill="none" points="15.1864,53.3695 13.8847,55.9729 12.5831,65.0847 14.7525,64.6508 17.7898,59.0102 18.2237,51.6339" stroke="#cdff29" stroke-width="2" /><polyline fill="none" points="102.8339,30.8068 99.7966,20.8271 100.6644,13.4508 98.9288,8.678 96.7593,8.678" stroke="#ffc400" stroke-width="2" /><polyline fill="none" points="96.7593,8.678 93.2881,15.6203 95.8915,20.3932 99.7966,22.5627 98.4949,20.3932" stroke="#ff6700" stroke-width="2" /><polyline fill="none" points="95.4576,19.0915 95.4576,26.9017" stroke="#f10700" stroke-width="2" /><polyline fill="none" points="68.9898,65.5186 96.7593,62.0475 81.139,65.0847 68.122,68.5559 63.3492,70.7254 65.9525,70.2915 106.3051,59.0102 84.1763,61.1797 62.0475,65.9525 79.4034,56.4068 100.6644,49.4644 95.0237,49.4644 63.7831,59.0102 99.7966,51.2 118.8881,51.6339 65.9525,63.7831 77.2339,59.4441 101.0983,52.5017 119.322,53.3695 111.9458,57.2746 85.478,65.0847 75.0644,69.8576 68.9898,74.6305 118.4542,63.3492" stroke="#7f0000" stroke-width="2" /></svg>