<?xml version="1.0" encoding="utf-8" ?>
<svg baseProfile="tiny" height="128" version="1.2" viewBox="0,0,128,128" width="128" xmlns="http://www.w3.org/2000/svg" xmlns:ev="http://www.w3.org/2001/xml-events" xmlns:xlink="http://www.w3.org/1999/xlink"><defs /><polyline fill="none" points="47.7288,16.922 41.2203,18.2237 36.4475,30.3729 17.7898,29.0712 10.8475,31.2407 9.1119,34.7119 20.3932,37.3153 27.3356,41.6542 33.4102,41.2203 38.1831,39.0508 43.3898,42.522 52.9356,43.8237 55.539,42.0881 56.4068,39.4847" stroke="#00007f" stroke-width="2" /><polyline fill="none" points="46.861,16.0542 60.3119,24.7322 72.8949,22.9966 81.5729,23.8644 88.9492,28.2034 93.722,35.1458 94.1559,39.4847 88.9492,48.5966 78.1017,53.3695 60.3119,51.2 53.3695,41.2203" stroke="#0000d5" stroke-width="2" /><polyline fill="none" points="80.2712,49.0305 79.8373,61.1797" stroke="#001cff" stroke-width="2" /><polyline fill="none" points="85.9119,48.5966 87.2136,59.4441 85.0441,64.6508" stroke="#006cff" stroke-width="2" /><polyline fill="none" points="59.878,50.3322 59.0102,61.1797 61.1797,62.9153" stroke="#00b8ff" stroke-width="2" /><polyline fill="none" points="54.6712,48.5966 52.9356,61.6136 54.6712,63.3492 60.3119,62.9153" stroke="#1cffda" stroke-width="2" /><polyline fill="none" points="72.8949,54.2373 72.8949,58.1424 76.8,58.1424 77.2339,54.6712" stroke="#5cff9a" stroke-width="2" /><polyline fill="none" points="65.5186,52.9356 65.9525,56.4068 61.6136,56.4068 61.6136,54.2373" stroke="#9aff5c" stroke-width="2" /><polyline fill="none" points="44.2576,22.9966 42.9559,26.9017 45.5593,27.3356 45.5593,24.7322 44.2576,23.8644 43.3898,24.7322" stroke="#daff1c" stroke-width="2" /><polyline fill="none" points="18.2237,30.8068 18.6576,33.8441 17.3559,34.7119 9.9797,34.7119 8.678,32.5424 19.9593,31.6746 19.5254,34.7119 14.7525,35.5797" stroke="#ffcb00" stroke-width="2" /><polyline fill="none" points="87.2136,25.1661 95.0237,25.1661 98.9288,27.7695 101.5322,33.8441 101.5322,46.4271 103.7017,49.8983 108.4746,51.6339 117.1525,51.6339 119.322,50.3322 119.322,48.5966 117.1525,45.9932" stroke="#ff8500" stroke-width="2" /><polyline fill="none" points="94.1559,40.7864 94.5898,46.4271 100.2305,51.6339 114.1153,53.3695 114.1153,50.3322 111.9458,48.1627" stroke="#ff3b00" stroke-width="2" /><polyline fill="none" points="49.8983,19.5254 49.4644,12.5831 50.7661,10.4136 57.7085,8.678 62.9153,10.4136 65.0847,14.3186 64.6508,17.7898 58.1424,22.1288 53.3695,22.9966" stroke="#d50000" stroke-width="2" /><polyline fill="none" points="43.8237,19.0915 42.0881,14.3186 37.3153,13.4508 36.0136,20.8271 37.7492,22.1288" stroke="#7f0000" stroke-width="2" /></svg>