<?xml version="1.0" encoding="utf-8" ?>
<svg baseProfile="tiny" height="128" version="1.2" viewBox="0,0,128,128" width="128" xmlns="http://www.w3.org/2000/svg" xmlns:ev="http://www.w3.org/2001/xml-events" xmlns:xlink="http://www.w3.org/1999/xlink"><defs /><polyline fill="none" points="51.6339,27.7695 62.0475,16.0542 69.4237,11.7153 83.3085,8.678 90.6847,11.2814 91.1186,21.261 86.3458,36.8814 66.3864,67.6881" stroke="#00007f" stroke-width="2" /><polyline fill="none" points="29.939,25.6 28.2034,19.0915 24.7322,14.7525 17.3559,11.7153 11.7153,17.3559 8.678,29.939 9.1119,40.7864 12.5831,52.5017 15.6203,56.8407 19.0915,67.6881 25.1661,72.0271" stroke="#0000de" stroke-width="2" /><polyline fill="none" points="40.7864,28.2034 34.278,29.939 31.2407,34.278 32.1085,39.0508 36.8814,43.3898 39.9186,44.2576 43.8237,42.522 51.2,36.0136 48.1627,33.4102 42.9559,32.5424 40.7864,33.4102" stroke="#0028ff" stroke-width="2" /><polyline fill="none" points="50.7661,28.6373 45.5593,28.6373 38.1831,32.1085 26.9017,40.7864 23.4305,48.5966 24.7322,55.539 30.3729,65.9525 42.0881,73.7627 47.7288,72.8949 51.2,68.9898 54.6712,60.7458 56.4068,42.522 54.6712,38.1831 51.6339,35.1458 45.9932,34.278 41.2203,35.1458" stroke="#0080ff" stroke-width="2" /><polyline fill="none" points="35.1458,54.2373 30.3729,60.7458 26.0339,75.9322 26.9017,89.3831 30.8068,98.061 36.8814,105.8712 42.522,110.6441 52.9356,114.9831 57.2746,111.9458 56.8407,110.6441 39.9186,88.9492 34.278,78.1017 35.1458,72.0271 39.0508,61.1797 45.9932,55.1051" stroke="#00d4ff" stroke-width="2" /><polyline fill="none" points="84.1763,41.6542 103.7017,33.4102 107.6068,33.8441 111.5119,38.1831 117.5864,64.2169 118.8881,79.4034 116.7186,89.3831 112.8136,96.3254 108.0407,101.0983 102.4,104.1356 96.7593,93.2881 96.3254,88.0814 98.061,84.1763 96.3254,82.4407 91.1186,85.0441 88.5153,100.6644 87.2136,102.4 84.6102,102.4 82.4407,97.6271 79.8373,77.2339 77.6678,71.5932 70.2915,79.8373 69.4237,82.8746 68.9898,99.7966 65.0847,101.0983 61.1797,98.9288 56.4068,89.3831 54.2373,99.7966 52.5017,99.7966 48.5966,93.2881 45.9932,85.9119 45.1254,81.5729 47.7288,72.8949" stroke="#36ffc0" stroke-width="2" /><polyline fill="none" points="109.7763,46.861 119.322,40.3525" stroke="#7cff79" stroke-width="2" /><polyline fill="none" points="56.4068,65.5186 60.3119,67.6881 65.9525,67.6881" stroke="#c0ff36" stroke-width="2" /><polyline fill="none" points="35.1458,29.0712 31.6746,20.3932" stroke="#ffe500" stroke-width="2" /><polyline fill="none" points="35.5797,28.2034 26.4678,19.5254" stroke="#ff9400" stroke-width="2" /><polyline fill="none" points="47.2949,47.7288 47.2949,47.7288" stroke="#ff4600" stroke-width="2" /><polyline fill="none" points="30.3729,47.2949 30.3729,47.2949" stroke="#de0000" stroke-width="2" /><polyline fill="none" points="47.7288,45.5593 47.7288,45.5593" stroke="#7f0000" stroke-width="2" /></svg>