<?xml version="1.0" encoding="utf-8" ?>
<svg baseProfile="tiny" height="128" version="1.2" viewBox="0,0,128,128" width="128" xmlns="http://www.w3.org/2000/svg" xmlns:ev="http://www.w3.org/2001/xml-events" xmlns:xlink="http://www.w3.org/1999/xlink"><defs /><polyline fill="none" points="8.678,17.7898 17.7898,10.4136 23.4305,8.678 33.4102,9.9797 49.0305,19.0915 62.0475,19.5254 76.3661,15.1864 86.3458,9.1119 99.7966,8.678 107.1729,12.5831 114.9831,23.4305 117.5864,32.1085 119.322,53.3695 113.6814,64.6508 105.0034,70.7254 103.2678,71.5932 100.2305,65.9525 99.3627,39.4847 98.9288,44.2576 93.722,45.5593 92.8542,46.861 92.8542,59.4441 88.5153,68.5559 79.4034,67.6881 80.7051,47.7288 79.8373,40.7864 78.1017,40.7864 67.2542,42.0881 63.3492,44.2576 61.1797,58.1424 56.4068,66.8203 48.1627,67.6881 47.7288,59.4441 50.3322,45.9932 48.1627,43.8237 42.0881,44.2576 40.7864,56.4068 37.3153,64.2169 28.2034,65.9525" stroke="#00007f" stroke-width="2" /></svg>