<?xml version="1.0" encoding="utf-8" ?>
<svg baseProfile="tiny" height="128" version="1.2" viewBox="0,0,128,128" width="128" xmlns="http://www.w3.org/2000/svg" xmlns:ev="http://www.w3.org/2001/xml-events" xmlns:xlink="http://www.w3.org/1999/xlink"><defs /><polyline fill="none" points="49.0305,19.5254 45.1254,47.2949 45.1254,62.0475 47.2949,71.5932 52.0678,81.139 59.4441,76.8 70.2915,62.0475 74.1966,53.3695 75.0644,45.1254 72.0271,31.2407 64.6508,16.4881 56.4068,16.4881 49.4644,18.6576 49.0305,16.922 67.6881,9.1119 78.9695,8.678 88.0814,10.4136 94.5898,17.3559 95.4576,29.5051 90.6847,36.8814 78.1017,42.522 72.8949,43.8237 80.2712,33.4102" stroke="#00007f" stroke-width="2" /><polyline fill="none" points="85.478,20.8271 93.2881,22.1288 100.2305,25.1661 104.1356,29.0712 111.5119,42.522 119.322,62.4814 112.3797,64.6508 108.0407,50.3322 100.6644,36.0136 97.1932,32.5424 88.9492,29.5051 88.5153,27.7695" stroke="#0080ff" stroke-width="2" /><polyline fill="none" points="84.6102,13.8847 83.3085,15.1864 85.478,14.7525 83.7424,15.1864 84.1763,14.3186 82.8746,14.3186" stroke="#7cff79" stroke-width="2" /><polyline fill="none" points="8.678,91.1186 9.1119,104.1356 10.4136,106.739 13.0169,106.739 17.7898,100.6644 18.2237,88.0814 16.0542,104.5695 17.3559,106.739 19.9593,107.6068 22.9966,105.8712 25.1661,102.8339 26.9017,91.9864 45.1254,95.0237 55.1051,94.5898 62.9153,91.9864 65.5186,88.5153 64.6508,84.1763 55.9729,79.8373 29.0712,78.5356 21.6949,79.8373 13.0169,86.3458 9.5458,90.2508 9.1119,91.5525 10.8475,91.5525" stroke="#ff9400" stroke-width="2" /><polyline fill="none" points="52.5017,87.2136 59.0102,86.7797" stroke="#7f0000" stroke-width="2" /></svg>