<?xml version="1.0" encoding="utf-8" ?>
<svg baseProfile="tiny" height="128" version="1.2" viewBox="0,0,128,128" width="128" xmlns="http://www.w3.org/2000/svg" xmlns:ev="http://www.w3.org/2001/xml-events" xmlns:xlink="http://www.w3.org/1999/xlink"><defs /><polyline fill="none" points="43.9728,16.9796 8.7075,20.0272 10.0136,26.5578 18.7211,32.2177 26.5578,34.3946 40.0544,34.3946" stroke="#00007f" stroke-width="2" /><polyline fill="none" points="67.9184,18.2857 79.6735,15.6735 94.4762,16.9796 107.102,21.7687 116.6803,28.7347 119.2925,32.6531 119.2925,38.3129 114.9388,42.6667 111.4558,43.9728 95.3469,42.2313 83.5918,36.1361" stroke="#004cff" stroke-width="2" /><polyline fill="none" points="67.9184,17.415 47.0204,9.1429 40.0544,8.7075 39.1837,14.3673 43.9728,23.0748 43.5374,26.9932 40.4898,33.0884 68.3537,49.1973 72.2721,44.4082 72.2721,33.9592 68.3537,22.6395 67.483,17.415 66.1769,18.7211" stroke="#29ffcd" stroke-width="2" /><polyline fill="none" points="53.1156,34.8299 32.6531,49.1973 26.9932,48.3265 25.6871,50.068 26.5578,54.8571 32.6531,55.7279 56.5986,39.619" stroke="#cdff29" stroke-width="2" /><polyline fill="none" points="53.1156,23.0748 52.6803,23.5102" stroke="#ff6700" stroke-width="2" /><polyline fill="none" points="58.7755,23.9456 58.3401,25.2517 59.6463,24.381 58.7755,23.0748" stroke="#7f0000" stroke-width="2" /></svg>