<?xml version="1.0" encoding="utf-8" ?>
<svg baseProfile="tiny" height="128" version="1.2" viewBox="0,0,128,128" width="128" xmlns="http://www.w3.org/2000/svg" xmlns:ev="http://www.w3.org/2001/xml-events" xmlns:xlink="http://www.w3.org/1999/xlink"><defs /><polyline fill="none" points="62.9153,15.1864 86.3458,10.4136 95.4576,13.4508 103.2678,19.0915 108.9085,30.8068 112.8136,49.0305 118.4542,66.8203 119.322,83.7424 116.7186,87.6475 110.2102,86.7797 103.2678,79.4034 96.7593,67.2542 93.722,51.2 92.4203,49.0305 87.6475,45.9932 76.8,45.5593 75.4983,47.7288 77.2339,79.4034 75.9322,82.0068 67.2542,85.478 62.4814,85.0441 59.878,83.7424 58.5763,76.8 58.5763,60.7458 56.8407,56.4068 43.8237,59.4441 42.0881,62.0475 40.3525,72.0271 40.3525,84.1763 38.6169,84.6102 22.5627,78.5356 22.9966,57.7085 20.8271,56.8407 8.678,58.1424 9.9797,47.2949 15.6203,34.278 22.9966,25.1661 31.6746,18.6576 42.522,13.4508 53.8034,9.9797 76.3661,8.678" stroke="#00007f" stroke-width="2" /></svg>