<?xml version="1.0" encoding="utf-8" ?>
<svg baseProfile="tiny" height="128" version="1.2" viewBox="0,0,128,128" width="128" xmlns="http://www.w3.org/2000/svg" xmlns:ev="http://www.w3.org/2001/xml-events" xmlns:xlink="http://www.w3.org/1999/xlink"><defs /><polyline fill="none" points="61.8231,10.0136 45.7143,12.1905 39.1837,17.8503 37.8776,21.7687 38.3129,27.4286 46.585,37.8776 56.1633,37.0068 66.1769,29.1701 72.7075,21.3333 70.5306,14.8027 64.4354,10.449 59.6463,8.7075" stroke="#00007f" stroke-width="2" /><polyline fill="none" points="80.1088,23.0748 75.3197,21.7687 74.8844,20.0272 77.932,18.2857 92.7347,16.9796 101.8776,20.0272 112.3265,27.4286 115.3741,30.9116 119.2925,42.6667 118.4218,53.551 115.8095,59.2109 106.6667,60.9524 93.6054,59.2109 60.0816,46.1497 52.6803,41.7959" stroke="#0010ff" stroke-width="2" /><polyline fill="none" points="41.3605,28.7347 39.619,30.0408 34.8299,48.3265 29.6054,55.7279 24.8163,59.6463 19.1565,61.8231 8.7075,60.9524 15.2381,66.6122 23.0748,67.9184 29.1701,66.6122 38.7483,60.9524 44.8435,52.2449 50.9388,37.0068 50.9388,33.5238 52.2449,32.2177" stroke="#00a4ff" stroke-width="2" /><polyline fill="none" points="42.2313,32.2177 39.619,33.0884" stroke="#3fffb7" stroke-width="2" /><polyline fill="none" points="13.0612,58.7755 13.0612,64.8707 16.5442,67.0476 20.4626,66.1769 21.3333,63.1293 14.8027,59.2109" stroke="#b7ff3f" stroke-width="2" /><polyline fill="none" points="19.1565,57.034 31.3469,50.068 46.585,34.8299 49.1973,28.2993" stroke="#ffb900" stroke-width="2" /><polyline fill="none" points="22.6395,69.2245 23.5102,67.9184 30.0408,66.1769 34.8299,62.6939 50.068,45.2789 52.2449,38.3129" stroke="#ff3000" stroke-width="2" /><polyline fill="none" points="67.483,47.8912 60.517,85.7687 75.7551,81.415 76.6259,64.4354 80.1088,49.6327 80.5442,68.3537 74.8844,92.2993 76.1905,93.1701 83.5918,91.4286 90.1224,87.5102 90.5578,57.034 92.7347,57.034 94.4762,60.0816 96.2177,73.5782 96.2177,77.4966 94.9116,78.3673" stroke="#7f0000" stroke-width="2" /></svg>