<?xml version="1.0" encoding="utf-8" ?>
<svg baseProfile="tiny" height="128" version="1.2" viewBox="0,0,128,128" width="128" xmlns="http://www.w3.org/2000/svg" xmlns:ev="http://www.w3.org/2001/xml-events" xmlns:xlink="http://www.w3.org/1999/xlink"><defs /><polyline fill="none" points="80.8191,36.2594 80.3823,26.6485 78.6348,24.4642 65.0922,20.5324 55.9181,21.843 48.4915,29.7065 45.4334,34.5119 43.686,43.2491 44.5597,51.9863 48.0546,55.4812 54.6075,56.7918 67.7133,53.2969 73.3925,50.2389 80.8191,41.9386 83.8771,34.5119 82.1297,25.7747 79.9454,24.0273 76.0137,23.5904" stroke="#00007f" stroke-width="2" /><polyline fill="none" points="78.6348,24.901 83.0034,20.0956 91.3038,16.1638 104.4096,14.4164 113.1468,17.4744 116.6416,22.2799 119.2628,33.6382 118.8259,64.6553 110.5256,91.3038 106.5939,95.2355 104.4096,95.6724 96.5461,81.256 89.9932,57.6655 81.6928,44.9966 76.0137,40.1911" stroke="#004cff" stroke-width="2" /><polyline fill="none" points="55.0444,19.6587 52.4232,15.2901 46.744,11.3584 27.959,8.7372 19.2218,14.4164 15.2901,20.5324 13.1058,29.7065 12.2321,56.7918 8.7372,72.0819 9.1741,76.8874 17.0375,78.198 21.4061,77.3242 37.1331,60.7235 45.8703,48.4915" stroke="#29ffcd" stroke-width="2" /><polyline fill="none" points="43.686,51.1126 33.2014,72.5188 31.0171,83.0034 48.0546,53.2969" stroke="#cdff29" stroke-width="2" /><polyline fill="none" points="65.9659,52.8601 67.2765,66.8396 65.9659,78.198 65.529,74.2662 65.9659,52.4232" stroke="#ff6700" stroke-width="2" /><polyline fill="none" points="53.2969,56.3549 38.8805,94.7986 34.0751,111.3993 38.8805,108.3413 44.5597,101.7884 55.4812,83.4403" stroke="#7f0000" stroke-width="2" /></svg>