<?xml version="1.0" encoding="utf-8" ?>
<svg baseProfile="tiny" height="128" version="1.2" viewBox="0,0,128,128" width="128" xmlns="http://www.w3.org/2000/svg" xmlns:ev="http://www.w3.org/2001/xml-events" xmlns:xlink="http://www.w3.org/1999/xlink"><defs /><polyline fill="none" points="28.6373,38.6169 24.7322,37.7492 18.2237,40.7864 8.678,54.2373" stroke="#00007f" stroke-width="2" /><polyline fill="none" points="33.8441,35.1458 27.7695,37.7492 23.8644,44.6915 24.2983,52.0678 30.3729,59.878 37.7492,62.9153 49.0305,63.7831 57.2746,62.9153 67.2542,59.4441 73.7627,53.3695 75.4983,45.1254 72.461,36.8814 63.7831,29.939 56.4068,27.3356 46.4271,27.7695 37.3153,31.6746 28.2034,38.1831" stroke="#0000ff" stroke-width="2" /><polyline fill="none" points="80.7051,15.6203 78.1017,13.0169 73.7627,13.0169 69.4237,16.0542 67.6881,20.8271 68.9898,26.9017 77.6678,40.3525" stroke="#0080ff" stroke-width="2" /><polyline fill="none" points="80.7051,15.6203 86.7797,12.1492 93.2881,13.0169 98.9288,17.3559 101.0983,24.2983 99.7966,33.4102 97.6271,37.7492 91.1186,40.7864 83.7424,40.3525 79.4034,36.8814 77.2339,32.5424 77.6678,22.9966 80.7051,14.7525" stroke="#15ffe1" stroke-width="2" /><polyline fill="none" points="76.8,39.4847 80.7051,39.9186" stroke="#7cff79" stroke-width="2" /><polyline fill="none" points="98.4949,15.1864 104.1356,9.9797 111.9458,8.678 117.5864,11.7153 119.322,17.3559 110.6441,31.2407 110.2102,39.9186 108.4746,42.9559 105.4373,45.1254 102.4,45.1254 98.061,42.522 95.8915,38.6169" stroke="#e4ff12" stroke-width="2" /><polyline fill="none" points="75.9322,38.1831 78.5356,44.2576 84.1763,39.9186" stroke="#ff9400" stroke-width="2" /><polyline fill="none" points="88.0814,28.6373 92.4203,26.0339 96.7593,26.9017 97.6271,39.0508 100.2305,42.0881 103.7017,44.2576 110.2102,44.2576 117.5864,38.6169" stroke="#ff1d00" stroke-width="2" /><polyline fill="none" points="89.8169,32.5424 91.9864,33.8441 92.4203,43.3898" stroke="#7f0000" stroke-width="2" /></svg>