<?xml version="1.0" encoding="utf-8" ?>
<svg baseProfile="tiny" height="128" version="1.2" viewBox="0,0,128,128" width="128" xmlns="http://www.w3.org/2000/svg" xmlns:ev="http://www.w3.org/2001/xml-events" xmlns:xlink="http://www.w3.org/1999/xlink"><defs /><polyline fill="none" points="35.5797,85.9119 35.5797,75.9322 37.3153,71.5932 41.6542,69.4237 48.5966,71.1593 48.1627,57.2746 45.5593,42.0881 45.9932,39.0508 55.539,34.278 60.7458,28.6373 62.0475,23.8644 60.3119,18.2237 55.9729,14.7525 44.6915,10.4136 37.7492,8.678 32.9763,9.9797 21.261,20.3932 18.2237,27.3356 18.6576,33.8441 29.939,39.9186 18.6576,54.2373 16.0542,55.539 9.9797,54.6712 8.678,55.539 9.5458,58.1424 16.4881,59.0102 20.3932,57.7085 22.5627,53.3695 29.0712,53.8034 31.2407,39.4847 38.1831,30.8068 43.3898,32.1085 48.1627,38.6169 50.3322,39.4847 51.2,38.6169" stroke="#00007f" stroke-width="2" /><polyline fill="none" points="34.278,39.4847 35.1458,35.5797 38.6169,34.278 39.4847,35.5797 36.0136,41.2203 29.939,45.1254 21.261,45.5593 17.3559,43.8237" stroke="#0000f1" stroke-width="2" /><polyline fill="none" points="25.1661,28.2034 24.2983,32.9763 20.3932,36.4475 14.3186,33.8441" stroke="#004cff" stroke-width="2" /><polyline fill="none" points="16.0542,52.0678 15.6203,52.9356" stroke="#00b0ff" stroke-width="2" /><polyline fill="none" points="13.8847,53.8034 19.0915,57.7085" stroke="#29ffcd" stroke-width="2" /><polyline fill="none" points="19.9593,52.0678 21.261,53.3695" stroke="#7cff79" stroke-width="2" /><polyline fill="none" points="21.261,49.0305 23.8644,49.8983" stroke="#cdff29" stroke-width="2" /><polyline fill="none" points="25.6,45.9932 27.7695,45.9932" stroke="#ffc400" stroke-width="2" /><polyline fill="none" points="28.2034,42.0881 31.2407,41.6542" stroke="#ff6700" stroke-width="2" /><polyline fill="none" points="40.7864,81.5729 62.0475,77.6678 63.7831,71.5932 63.3492,58.5763 66.3864,55.539 75.0644,52.0678 86.7797,50.3322 91.1186,52.0678 93.2881,56.4068 92.8542,68.9898 94.5898,72.461 98.061,74.6305 101.0983,75.0644 104.5695,73.3288 110.2102,63.7831 111.078,53.3695 108.4746,39.9186 105.0034,33.8441 98.9288,28.2034 94.1559,25.1661 82.4407,21.6949 61.6136,26.0339" stroke="#f10700" stroke-width="2" /><polyline fill="none" points="111.9458,47.2949 119.322,44.6915" stroke="#7f0000" stroke-width="2" /></svg>