<?xml version="1.0" encoding="utf-8" ?>
<svg baseProfile="tiny" height="128" version="1.2" viewBox="0,0,128,128" width="128" xmlns="http://www.w3.org/2000/svg" xmlns:ev="http://www.w3.org/2001/xml-events" xmlns:xlink="http://www.w3.org/1999/xlink"><defs /><polyline fill="none" points="46.861,37.7492 48.5966,30.3729 51.2,26.9017 56.4068,24.7322 64.6508,25.1661 76.8,28.2034 90.2508,35.1458 91.1186,36.4475 89.3831,42.522 83.3085,49.8983 71.1593,53.3695 52.9356,53.3695 31.6746,49.4644 27.7695,41.2203 28.2034,35.5797 36.4475,30.8068 50.7661,28.2034" stroke="#00007f" stroke-width="2" /><polyline fill="none" points="81.5729,34.7119 88.5153,23.4305 99.3627,20.8271 106.3051,21.6949 112.3797,23.8644 118.8881,34.7119 119.322,43.3898 117.5864,51.2 114.9831,55.539 111.5119,58.1424 105.8712,58.5763 95.4576,55.539 87.6475,50.7661 86.3458,48.1627 85.478,48.5966" stroke="#0000de" stroke-width="2" /><polyline fill="none" points="46.861,31.2407 44.6915,19.5254 41.6542,13.0169 39.4847,12.1492 28.2034,8.678 11.7153,19.0915 9.1119,24.2983 8.678,29.939 12.1492,46.4271 16.0542,49.8983 26.4678,53.3695 33.8441,48.1627 33.8441,46.861" stroke="#0028ff" stroke-width="2" /><polyline fill="none" points="36.0136,29.0712 37.3153,23.8644 36.4475,17.7898 25.6,19.0915 21.261,23.8644 16.922,32.1085 16.4881,41.6542 29.5051,40.7864" stroke="#0080ff" stroke-width="2" /><polyline fill="none" points="89.8169,36.4475 94.1559,29.0712 97.6271,28.6373 101.5322,31.2407 103.2678,39.4847 101.5322,46.4271 92.4203,47.2949 90.6847,45.9932" stroke="#00d4ff" stroke-width="2" /><polyline fill="none" points="70.7254,28.6373 69.4237,37.3153" stroke="#36ffc0" stroke-width="2" /><polyline fill="none" points="59.0102,26.9017 58.5763,33.4102 56.4068,37.3153" stroke="#7cff79" stroke-width="2" /><polyline fill="none" points="57.7085,44.2576 59.4441,51.2 62.0475,52.0678 70.2915,43.3898" stroke="#c0ff36" stroke-width="2" /><polyline fill="none" points="48.5966,53.3695 41.6542,55.9729 40.3525,61.1797 42.0881,63.7831 54.6712,71.5932 67.6881,75.0644 86.3458,72.8949 87.2136,67.6881 84.6102,60.3119 79.4034,52.5017 65.5186,55.1051" stroke="#ffe500" stroke-width="2" /><polyline fill="none" points="51.2,55.539 52.0678,65.5186 58.5763,63.3492 62.4814,59.0102 61.1797,51.2" stroke="#ff9400" stroke-width="2" /><polyline fill="none" points="73.7627,53.3695 70.7254,57.7085 69.8576,62.9153 75.4983,60.7458 78.5356,57.2746 78.9695,52.9356 75.9322,47.7288" stroke="#ff4600" stroke-width="2" /><polyline fill="none" points="81.139,66.8203 83.7424,72.8949 80.2712,75.0644 74.1966,74.6305 73.3288,68.122" stroke="#de0000" stroke-width="2" /><polyline fill="none" points="59.4441,71.1593 57.7085,75.9322 61.1797,74.1966 65.0847,66.3864" stroke="#7f0000" stroke-width="2" /></svg>