<?xml version="1.0" encoding="utf-8" ?>
<svg baseProfile="tiny" height="128" version="1.2" viewBox="0,0,128,128" width="128" xmlns="http://www.w3.org/2000/svg" xmlns:ev="http://www.w3.org/2001/xml-events" xmlns:xlink="http://www.w3.org/1999/xlink"><defs /><polyline fill="none" points="52.0678,19.9593 49.8983,13.8847 47.7288,11.7153 42.9559,10.4136 38.6169,11.7153 35.1458,16.4881 31.2407,34.278 26.4678,41.6542 18.6576,45.9932 15.6203,45.9932 8.678,42.9559 14.3186,50.3322 23.8644,52.5017 32.5424,49.4644 42.0881,40.3525 52.5017,38.6169 55.1051,36.8814" stroke="#00007f" stroke-width="2" /><polyline fill="none" points="58.1424,9.1119 55.1051,9.9797 50.7661,17.7898 49.4644,24.2983 49.8983,32.5424 51.2,37.3153 55.1051,41.2203 59.878,42.0881 65.9525,41.2203 71.5932,32.9763 71.5932,22.9966 67.2542,15.6203 56.4068,10.4136" stroke="#7cff79" stroke-width="2" /><polyline fill="none" points="67.6881,17.7898 75.9322,12.1492 82.4407,9.9797 97.1932,8.678 106.3051,10.4136 112.3797,13.0169 115.8508,17.3559 118.4542,24.7322 119.322,35.5797 114.1153,53.8034 107.6068,53.3695 103.2678,39.0508 77.2339,37.7492 73.7627,55.1051 67.6881,54.2373 66.3864,40.7864" stroke="#7f0000" stroke-width="2" /></svg>