<?xml version="1.0" encoding="utf-8" ?>
<svg baseProfile="tiny" height="128" version="1.2" viewBox="0,0,128,128" width="128" xmlns="http://www.w3.org/2000/svg" xmlns:ev="http://www.w3.org/2001/xml-events" xmlns:xlink="http://www.w3.org/1999/xlink"><defs /><polyline fill="none" points="36.0136,57.7085 33.8441,57.7085" stroke="#00007f" stroke-width="2" /><polyline fill="none" points="31.6746,59.878 25.1661,62.0475 14.7525,68.9898 10.8475,75.4983 9.1119,85.0441 14.3186,89.3831 25.6,89.3831 36.0136,86.3458 39.0508,79.8373" stroke="#0028ff" stroke-width="2" /><polyline fill="none" points="35.1458,52.9356 16.0542,52.9356 13.0169,52.0678 8.678,42.9559 8.678,34.7119 10.4136,28.2034 17.7898,16.0542 24.2983,11.7153 32.1085,10.4136 37.3153,14.7525 38.1831,29.939 40.3525,36.8814" stroke="#00d4ff" stroke-width="2" /><polyline fill="none" points="38.1831,34.7119 41.2203,30.3729 53.3695,19.5254 69.8576,14.7525 78.9695,15.1864 85.9119,19.5254 88.9492,33.8441" stroke="#7cff79" stroke-width="2" /><polyline fill="none" points="88.5153,31.6746 98.9288,16.922 108.0407,9.9797 111.9458,8.678 114.1153,9.5458 116.2847,13.0169 116.2847,26.9017 114.1153,36.8814" stroke="#ffe500" stroke-width="2" /><polyline fill="none" points="110.2102,35.5797 112.8136,36.8814 119.322,60.3119 119.322,67.2542 116.7186,72.461 111.078,72.8949 104.5695,69.4237 101.9661,66.3864 96.7593,63.7831 92.8542,58.1424" stroke="#ff4600" stroke-width="2" /><polyline fill="none" points="88.9492,33.8441 88.9492,74.1966 88.0814,80.7051 83.7424,87.2136 77.2339,92.8542 62.4814,97.1932 55.9729,96.7593 51.2,92.8542 45.5593,83.7424 42.522,74.6305 42.522,48.5966 40.3525,34.7119" stroke="#7f0000" stroke-width="2" /></svg>