<?xml version="1.0" encoding="utf-8" ?>
<svg baseProfile="tiny" height="128" version="1.2" viewBox="0,0,128,128" width="128" xmlns="http://www.w3.org/2000/svg" xmlns:ev="http://www.w3.org/2001/xml-events" xmlns:xlink="http://www.w3.org/1999/xlink"><defs /><polyline fill="none" points="30.4762,8.7075 20.4626,30.4762 14.8027,37.8776 8.7075,40.9252 8.7075,49.1973 16.1088,48.7619 20.898,46.1497 28.7347,37.4422 35.7007,25.2517 39.619,33.5238 51.3741,36.5714 55.2925,41.3605 55.2925,52.6803 48.3265,57.9048 47.8912,60.0816 53.9864,61.3878 59.2109,60.0816 60.517,47.0204 64.4354,46.1497 66.1769,56.5986 63.5646,58.7755 63.1293,61.3878 67.483,63.5646 70.0952,63.5646 74.449,60.9524 74.8844,51.8095 73.1429,40.4898 76.1905,39.619 92.2993,40.4898 93.6054,52.6803 87.9456,59.2109 88.8163,62.2585 93.6054,63.5646 100.1361,62.6939 100.1361,54.8571 97.9592,44.4082 102.7483,42.6667 106.6667,43.102 109.7143,46.1497 111.0204,57.034 107.5374,60.517 110.585,62.2585 114.5034,61.3878 117.1156,52.6803 116.6803,42.2313 107.9728,22.2041 117.9864,20.4626 119.2925,17.415" stroke="#00007f" stroke-width="2" /></svg>