<?xml version="1.0" encoding="utf-8" ?>
<svg baseProfile="tiny" height="128" version="1.2" viewBox="0,0,128,128" width="128" xmlns="http://www.w3.org/2000/svg" xmlns:ev="http://www.w3.org/2001/xml-events" xmlns:xlink="http://www.w3.org/1999/xlink"><defs /><polyline fill="none" points="114.9831,34.7119 52.0678,33.8441 56.8407,10.8475 64.2169,9.9797 81.5729,13.0169 112.8136,13.0169 119.322,21.6949 114.1153,39.0508" stroke="#00007f" stroke-width="2" /><polyline fill="none" points="106.3051,33.4102 98.061,76.8" stroke="#0010ff" stroke-width="2" /><polyline fill="none" points="76.8,31.6746 72.461,46.4271 67.2542,72.8949" stroke="#00a4ff" stroke-width="2" /><polyline fill="none" points="55.539,15.6203 52.0678,9.5458 45.1254,8.678 39.4847,15.1864 39.0508,17.3559 40.3525,19.0915 49.8983,21.261 57.2746,20.3932 58.5763,18.6576 57.7085,14.7525" stroke="#3fffb7" stroke-width="2" /><polyline fill="none" points="47.7288,13.8847 46.861,13.0169" stroke="#b7ff3f" stroke-width="2" /><polyline fill="none" points="38.6169,16.4881 35.5797,19.5254 28.2034,33.4102 14.7525,36.4475" stroke="#ffb900" stroke-width="2" /><polyline fill="none" points="38.1831,14.7525 19.9593,17.7898 15.1864,24.2983 9.1119,36.4475" stroke="#ff3000" stroke-width="2" /><polyline fill="none" points="18.6576,36.0136 8.678,36.0136" stroke="#7f0000" stroke-width="2" /></svg>