<?xml version="1.0" encoding="utf-8" ?>
<svg baseProfile="tiny" height="128" version="1.2" viewBox="0,0,128,128" width="128" xmlns="http://www.w3.org/2000/svg" xmlns:ev="http://www.w3.org/2001/xml-events" xmlns:xlink="http://www.w3.org/1999/xlink"><defs /><polyline fill="none" points="59.878,54.6712 57.7085,69.8576 59.0102,75.4983 64.6508,74.1966 68.122,65.0847 68.5559,55.9729 73.3288,53.3695 95.8915,48.5966 99.7966,60.3119 100.2305,68.5559 101.9661,69.4237 107.6068,67.2542 109.7763,62.9153 110.6441,54.2373 106.739,45.5593 108.4746,42.522 113.2475,41.2203 119.322,55.1051" stroke="#00007f" stroke-width="2" /><polyline fill="none" points="112.8136,39.4847 108.4746,24.7322 102.4,14.3186 97.6271,9.5458 82.4407,8.678 75.4983,11.2814 66.8203,19.0915 59.0102,32.1085 51.6339,26.9017 33.8441,22.1288 29.0712,26.0339 27.7695,32.1085 27.7695,42.0881 31.6746,51.2 41.6542,55.539 59.4441,55.539 61.6136,54.6712" stroke="#00d4ff" stroke-width="2" /><polyline fill="none" points="36.8814,51.6339 32.1085,59.0102 27.7695,62.0475 8.678,67.6881" stroke="#ffe500" stroke-width="2" /><polyline fill="none" points="41.2203,55.1051 41.2203,59.0102 35.1458,66.8203 23.8644,72.0271" stroke="#7f0000" stroke-width="2" /></svg>