<?xml version="1.0" encoding="utf-8" ?>
<svg baseProfile="tiny" height="128" version="1.2" viewBox="0,0,128,128" width="128" xmlns="http://www.w3.org/2000/svg" xmlns:ev="http://www.w3.org/2001/xml-events" xmlns:xlink="http://www.w3.org/1999/xlink"><defs /><polyline fill="none" points="42.6667,60.0816 41.7959,83.5918 43.102,91.8639 55.2925,88.8163 56.5986,72.2721 57.9048,64.0 59.2109,63.5646 74.449,64.0 78.3673,65.7415 83.5918,93.6054 95.7823,90.9932 104.9252,87.0748 105.3605,80.9796 98.8299,58.3401 99.2653,54.8571 106.6667,53.551 118.8571,57.4694 119.2925,52.2449 106.2313,47.0204 92.7347,48.7619 93.6054,39.619 90.9932,26.1224 88.381,20.4626 81.8503,18.7211 71.8367,23.0748 63.5646,25.2517" stroke="#00007f" stroke-width="2" /><polyline fill="none" points="60.517,25.2517 50.5034,26.5578 47.0204,32.2177" stroke="#0010ff" stroke-width="2" /><polyline fill="none" points="46.585,32.2177 37.8776,23.0748" stroke="#00a4ff" stroke-width="2" /><polyline fill="none" points="37.8776,23.0748 16.9796,8.7075" stroke="#3fffb7" stroke-width="2" /><polyline fill="none" points="16.5442,8.7075 12.1905,9.5782 9.1429,14.3673 8.7075,19.1565 13.0612,26.9932" stroke="#b7ff3f" stroke-width="2" /><polyline fill="none" points="13.4966,27.8639 13.932,32.6531 17.8503,40.4898 36.1361,50.9388" stroke="#ffb900" stroke-width="2" /><polyline fill="none" points="36.1361,50.9388 39.619,53.551 44.4082,60.9524" stroke="#ff3000" stroke-width="2" /><polyline fill="none" points="22.2041,12.6259 25.6871,10.449 29.1701,10.8844 30.9116,13.4966 31.3469,18.7211" stroke="#7f0000" stroke-width="2" /></svg>