<?xml version="1.0" encoding="utf-8" ?>
<svg baseProfile="tiny" height="128" version="1.2" viewBox="0,0,128,128" width="128" xmlns="http://www.w3.org/2000/svg" xmlns:ev="http://www.w3.org/2001/xml-events" xmlns:xlink="http://www.w3.org/1999/xlink"><defs /><polyline fill="none" points="28.7347,58.3401 28.7347,70.0952 34.8299,77.4966 47.4558,67.483 48.7619,58.7755 65.3061,55.7279 66.1769,65.7415 68.3537,71.4014 70.5306,73.5782 72.7075,73.5782 80.5442,63.5646 81.415,50.5034 84.0272,43.102 90.1224,38.7483 105.7959,36.5714 113.6327,62.2585 117.9864,68.7891 118.8571,67.483 117.551,57.4694 119.2925,48.7619 119.2925,40.4898 114.5034,33.5238 108.8435,31.7823 114.068,23.5102 114.068,18.7211 111.0204,12.6259 107.102,8.7075 102.7483,8.7075 77.0612,16.1088 71.8367,29.1701 43.9728,41.3605 33.9592,43.5374 9.5782,40.9252 8.7075,43.102 10.0136,44.4082 22.6395,42.2313 32.6531,44.4082 33.0884,46.585" stroke="#00007f" stroke-width="2" /></svg>