<?xml version="1.0" encoding="utf-8" ?>
<svg baseProfile="tiny" height="128" version="1.2" viewBox="0,0,128,128" width="128" xmlns="http://www.w3.org/2000/svg" xmlns:ev="http://www.w3.org/2001/xml-events" xmlns:xlink="http://www.w3.org/1999/xlink"><defs /><polyline fill="none" points="50.7661,15.1864 56.4068,10.4136 62.4814,8.678 68.5559,8.678 75.4983,14.7525 77.6678,19.0915 75.9322,27.3356 74.1966,30.8068 67.6881,36.8814" stroke="#00007f" stroke-width="2" /><polyline fill="none" points="51.2,13.8847 45.9932,18.6576 43.8237,23.4305" stroke="#00d4ff" stroke-width="2" /><polyline fill="none" points="43.8237,23.4305 30.8068,27.3356 24.7322,33.4102 17.7898,36.4475 9.9797,42.0881 8.678,46.861 9.9797,48.5966 22.9966,36.8814 38.1831,32.5424 42.0881,29.5051 34.7119,42.522 35.5797,47.2949 42.0881,55.1051 48.1627,58.1424 51.2,58.1424 59.878,51.2 61.6136,56.4068 60.7458,69.8576 61.6136,73.3288 64.6508,76.3661 67.2542,73.7627 73.7627,57.2746 75.0644,58.1424 88.5153,57.7085 85.9119,75.4983 93.722,74.6305 98.9288,75.4983 101.5322,70.2915 102.8339,58.5763 114.9831,55.539 119.322,51.6339 114.5492,50.7661 107.6068,53.3695 95.0237,49.0305 82.0068,44.2576 65.5186,34.278 64.2169,32.1085" stroke="#ffe500" stroke-width="2" /><polyline fill="none" points="53.3695,18.2237 53.3695,18.2237" stroke="#7f0000" stroke-width="2" /></svg>