<?xml version="1.0" encoding="utf-8" ?>
<svg baseProfile="tiny" height="128" version="1.2" viewBox="0,0,128,128" width="128" xmlns="http://www.w3.org/2000/svg" xmlns:ev="http://www.w3.org/2001/xml-events" xmlns:xlink="http://www.w3.org/1999/xlink"><defs /><polyline fill="none" points="81.139,21.261 78.5356,15.6203 72.0271,11.2814 65.9525,9.1119 55.539,8.678 48.1627,9.5458 27.3356,16.922 13.8847,26.0339 9.9797,34.278 8.678,52.5017 9.9797,56.8407 17.3559,66.3864 19.0915,82.4407 30.8068,82.4407 32.5424,72.8949 31.6746,65.9525 40.7864,65.9525 41.6542,68.122 40.3525,79.8373 41.2203,80.7051 49.0305,80.7051 53.3695,68.9898 54.6712,68.5559 59.0102,69.4237 57.2746,77.6678 65.0847,78.5356 69.4237,69.8576 72.8949,58.1424 72.461,59.0102 76.3661,61.6136 75.4983,74.6305 85.478,74.6305 87.6475,44.6915 93.2881,40.7864 104.1356,39.0508 109.7763,40.3525 113.2475,43.8237 115.8508,53.8034 115.8508,65.0847 119.322,70.7254" stroke="#00007f" stroke-width="2" /></svg>