<?xml version="1.0" encoding="utf-8" ?>
<svg baseProfile="tiny" height="128" version="1.2" viewBox="0,0,128,128" width="128" xmlns="http://www.w3.org/2000/svg" xmlns:ev="http://www.w3.org/2001/xml-events" xmlns:xlink="http://www.w3.org/1999/xlink"><defs /><polyline fill="none" points="75.4983,14.7525 59.878,32.5424 59.0102,42.0881 61.1797,45.5593 75.0644,44.2576 81.5729,40.3525 83.7424,30.8068 83.7424,16.4881 82.0068,14.7525" stroke="#00007f" stroke-width="2" /><polyline fill="none" points="84.6102,16.0542 88.0814,16.0542 92.8542,19.5254 98.061,26.0339 99.3627,45.5593 94.1559,55.539 91.9864,56.8407 92.8542,54.6712" stroke="#0028ff" stroke-width="2" /><polyline fill="none" points="96.3254,36.0136 101.9661,36.4475 104.1356,38.1831 106.3051,44.2576 106.3051,57.7085 107.6068,61.1797 111.5119,66.8203 119.322,70.2915" stroke="#00d4ff" stroke-width="2" /><polyline fill="none" points="115.8508,74.1966 111.078,75.0644 108.9085,73.7627 102.8339,60.7458 101.9661,46.861 91.5525,45.5593" stroke="#7cff79" stroke-width="2" /><polyline fill="none" points="118.4542,70.2915 115.8508,74.6305 112.3797,74.6305" stroke="#ffe500" stroke-width="2" /><polyline fill="none" points="92.8542,56.4068 87.2136,57.2746 84.6102,55.539 79.4034,49.8983 78.9695,45.1254" stroke="#ff4600" stroke-width="2" /><polyline fill="none" points="79.4034,50.7661 75.4983,55.9729 68.122,59.0102 32.5424,59.4441 25.1661,56.8407 18.2237,51.6339 10.4136,38.6169 8.678,30.8068 11.2814,23.4305 14.3186,19.9593 27.7695,11.7153 37.3153,9.1119 52.5017,8.678 58.5763,11.2814 61.6136,13.8847 65.9525,25.6" stroke="#7f0000" stroke-width="2" /></svg>