<?xml version="1.0" encoding="utf-8" ?>
<svg baseProfile="tiny" height="128" version="1.2" viewBox="0,0,128,128" width="128" xmlns="http://www.w3.org/2000/svg" xmlns:ev="http://www.w3.org/2001/xml-events" xmlns:xlink="http://www.w3.org/1999/xlink"><defs /><polyline fill="none" points="53.3695,19.5254 39.9186,9.5458 29.0712,9.1119 23.8644,9.9797 18.2237,13.4508 11.7153,23.4305 8.678,36.4475 9.9797,43.3898 11.2814,48.1627 17.3559,52.5017 27.7695,54.6712 34.278,57.7085 48.5966,77.6678 53.3695,80.7051 59.0102,82.0068 65.5186,79.8373 66.3864,73.7627 64.6508,65.0847" stroke="#00007f" stroke-width="2" /><polyline fill="none" points="101.5322,13.0169 95.8915,13.0169 79.4034,8.678 70.2915,8.678 62.0475,12.1492 52.9356,22.1288 50.7661,28.2034 51.2,35.1458 55.539,53.3695 61.1797,60.7458 69.8576,66.8203 75.9322,68.5559 83.7424,74.6305 91.5525,83.7424 98.9288,98.4949 98.061,105.0034 94.1559,109.7763 83.3085,110.2102 78.1017,105.8712 75.4983,99.7966 75.4983,95.8915 78.9695,93.2881 85.478,97.6271 83.3085,91.9864 79.4034,86.7797 76.8,84.6102 68.9898,85.0441 62.4814,88.9492 61.6136,92.4203 65.0847,103.2678 69.8576,109.3424 79.8373,112.3797 108.0407,109.7763 114.5492,105.0034 119.322,97.6271" stroke="#7f0000" stroke-width="2" /></svg>