<?xml version="1.0" encoding="utf-8" ?>
<svg baseProfile="tiny" height="128" version="1.2" viewBox="0,0,128,128" width="128" xmlns="http://www.w3.org/2000/svg" xmlns:ev="http://www.w3.org/2001/xml-events" xmlns:xlink="http://www.w3.org/1999/xlink"><defs /><polyline fill="none" points="77.6678,23.4305 74.6305,22.5627 56.8407,22.5627 42.0881,32.5424 32.9763,49.0305 31.2407,64.2169 33.4102,70.7254 37.3153,74.1966 44.2576,76.3661 60.7458,77.6678 68.122,75.0644 72.461,70.2915 76.8,63.7831 79.8373,55.1051 79.8373,41.6542 71.1593,21.6949 70.2915,15.6203" stroke="#00007f" stroke-width="2" /><polyline fill="none" points="76.3661,31.2407 89.8169,21.261 100.6644,16.4881 110.2102,16.0542 116.7186,19.0915 118.8881,21.6949 119.322,28.6373 118.4542,30.8068 102.4,41.2203 101.5322,42.9559 101.5322,44.6915 112.8136,58.5763 115.8508,66.8203 104.5695,72.461 84.1763,74.1966 71.5932,65.5186" stroke="#004cff" stroke-width="2" /><polyline fill="none" points="44.2576,50.3322 49.4644,48.1627 56.4068,48.5966 59.878,53.3695 61.6136,60.3119 61.6136,78.1017 55.539,95.4576 52.5017,108.9085" stroke="#29ffcd" stroke-width="2" /><polyline fill="none" points="39.9186,50.3322 51.2,51.6339 53.3695,55.539 53.3695,64.2169 49.4644,82.4407 48.5966,98.061 49.8983,106.739 51.6339,111.078 58.5763,112.8136" stroke="#cdff29" stroke-width="2" /><polyline fill="none" points="40.7864,26.9017 40.7864,23.4305 36.8814,15.6203 29.939,9.1119 21.261,8.678 14.7525,12.5831 9.9797,19.9593 8.678,35.5797 9.9797,40.3525 19.5254,45.5593 11.7153,49.8983 9.1119,56.8407 9.1119,64.2169 11.2814,67.6881 15.1864,69.4237 32.9763,71.5932" stroke="#ff6700" stroke-width="2" /><polyline fill="none" points="36.8814,20.3932 36.8814,22.9966 39.0508,26.0339 48.1627,34.278" stroke="#7f0000" stroke-width="2" /></svg>