<?xml version="1.0" encoding="utf-8" ?>
<svg baseProfile="tiny" height="128" version="1.2" viewBox="0,0,128,128" width="128" xmlns="http://www.w3.org/2000/svg" xmlns:ev="http://www.w3.org/2001/xml-events" xmlns:xlink="http://www.w3.org/1999/xlink"><defs /><polyline fill="none" points="43.8237,23.4305 42.9559,19.5254 45.1254,13.0169 48.5966,9.5458 52.0678,8.678 55.9729,9.1119 65.9525,17.3559 73.3288,19.9593 80.2712,19.9593 95.4576,15.6203 102.4,15.1864 109.7763,21.6949 115.4169,32.9763 117.1525,46.861 114.9831,53.3695" stroke="#00007f" stroke-width="2" /><polyline fill="none" points="111.5119,25.1661 115.8508,20.3932 113.6814,9.5458 117.1525,13.0169 115.4169,25.1661 112.3797,28.2034" stroke="#0028ff" stroke-width="2" /><polyline fill="none" points="47.7288,24.7322 45.9932,24.2983 45.9932,29.5051 50.3322,36.4475 56.8407,37.7492 62.4814,35.5797 67.6881,30.3729 70.2915,22.1288 70.2915,18.2237 64.6508,13.4508" stroke="#00d4ff" stroke-width="2" /><polyline fill="none" points="57.2746,35.1458 54.6712,36.4475 50.3322,44.6915 50.3322,47.7288 53.8034,50.3322 85.478,49.4644 91.5525,51.6339 97.1932,52.0678 101.0983,56.8407 109.3424,58.1424 115.4169,54.6712 119.322,47.7288" stroke="#7cff79" stroke-width="2" /><polyline fill="none" points="74.6305,52.0678 74.6305,56.4068 72.461,56.8407 62.9153,65.9525 53.8034,68.122 42.9559,67.2542 45.9932,72.0271 54.2373,77.2339 62.9153,78.1017 69.4237,74.1966 77.6678,62.9153 78.5356,53.8034" stroke="#ffe500" stroke-width="2" /><polyline fill="none" points="87.6475,48.5966 98.061,69.4237 107.6068,77.2339 109.3424,76.8 114.1153,70.7254 115.8508,64.6508 114.5492,59.878 108.9085,54.2373" stroke="#ff4600" stroke-width="2" /><polyline fill="none" points="49.8983,23.4305 48.5966,25.6 44.6915,27.7695 39.0508,25.6 32.1085,14.3186 28.2034,11.7153 22.9966,11.7153 16.922,14.7525 10.8475,24.7322 8.678,33.8441 9.9797,46.4271 14.7525,57.2746 17.3559,53.8034 28.2034,48.1627 33.8441,38.6169 34.278,29.939 31.6746,25.1661 27.7695,22.1288" stroke="#7f0000" stroke-width="2" /></svg>