<?xml version="1.0" encoding="utf-8" ?>
<svg baseProfile="tiny" height="128" version="1.2" viewBox="0,0,128,128" width="128" xmlns="http://www.w3.org/2000/svg" xmlns:ev="http://www.w3.org/2001/xml-events" xmlns:xlink="http://www.w3.org/1999/xlink"><defs /><polyline fill="none" points="86.0614,40.1911 92.1775,52.4232 101.7884,58.5392 114.4573,59.413 119.2628,56.3549 119.2628,51.5495 109.215,51.1126 100.9147,48.4915 96.5461,35.3857 92.1775,31.8908 86.9352,31.8908 85.1877,39.3174" stroke="#00007f" stroke-width="2" /><polyline fill="none" points="81.6928,39.3174 86.0614,57.6655 85.1877,59.413 82.5666,60.2867 80.8191,58.5392 80.8191,51.5495 82.5666,43.686 80.8191,40.1911" stroke="#0080ff" stroke-width="2" /><polyline fill="none" points="81.256,40.1911 89.1195,33.6382 87.8089,16.6007 66.8396,8.7372 61.5973,8.7372 55.4812,10.9215 44.5597,15.727 35.8225,23.1536 14.4164,29.7065 11.3584,32.7645 10.0478,36.6962 8.7372,34.5119" stroke="#7cff79" stroke-width="2" /><polyline fill="none" points="9.1741,34.9488 11.7952,49.802 10.4846,58.9761 13.9795,65.529 18.785,69.0239 20.9693,66.4027 19.2218,58.5392 20.0956,52.8601 21.843,51.1126 27.959,49.3652 41.9386,48.9283 48.0546,65.0922 56.7918,66.8396 57.6655,61.5973 54.1706,51.9863 55.0444,47.1809 71.6451,42.8123 84.7509,37.57" stroke="#ff9400" stroke-width="2" /><polyline fill="none" points="89.5563,27.5222 91.3038,30.5802 99.1672,35.3857" stroke="#7f0000" stroke-width="2" /></svg>