<?xml version="1.0" encoding="utf-8" ?>
<svg baseProfile="tiny" height="128" version="1.2" viewBox="0,0,128,128" width="128" xmlns="http://www.w3.org/2000/svg" xmlns:ev="http://www.w3.org/2001/xml-events" xmlns:xlink="http://www.w3.org/1999/xlink"><defs /><polyline fill="none" points="48.5966,50.7661 43.3898,48.5966 33.4102,49.0305 25.1661,52.0678 13.4508,60.3119 9.1119,65.9525 8.678,89.8169 17.3559,96.7593 35.1458,101.9661 52.0678,101.9661 60.3119,97.1932 65.5186,85.9119 66.3864,66.3864 65.5186,61.6136 62.0475,53.3695 57.2746,47.7288 51.2,44.6915 46.4271,44.2576" stroke="#00007f" stroke-width="2" /><polyline fill="none" points="59.4441,49.0305 60.7458,42.0881 64.6508,39.4847 77.6678,39.0508 85.0441,46.4271 87.2136,52.9356 87.2136,59.4441 85.9119,62.0475 78.5356,68.5559 72.8949,68.9898 69.4237,67.6881" stroke="#0000e8" stroke-width="2" /><polyline fill="none" points="84.1763,49.8983 88.0814,46.4271 95.8915,45.5593 99.3627,42.9559 102.4,34.278 101.9661,27.3356 97.1932,23.4305 86.7797,17.7898 69.8576,14.3186 70.7254,12.5831 75.4983,10.4136 89.3831,9.1119 103.2678,17.7898 105.4373,24.2983 106.3051,39.9186 102.8339,49.8983 92.8542,54.2373 76.8,54.6712" stroke="#0038ff" stroke-width="2" /><polyline fill="none" points="30.8068,102.8339 29.0712,118.0203 27.3356,119.322 16.4881,117.5864 15.6203,111.078 17.3559,92.8542 15.1864,88.9492" stroke="#0094ff" stroke-width="2" /><polyline fill="none" points="48.5966,98.4949 52.0678,116.7186 71.1593,112.3797 73.3288,110.2102 72.8949,107.6068 62.0475,93.722" stroke="#0cf4ea" stroke-width="2" /><polyline fill="none" points="72.461,47.2949 72.0271,48.1627" stroke="#56ffa0" stroke-width="2" /><polyline fill="none" points="54.6712,8.678 50.7661,9.9797 39.0508,10.4136 35.1458,12.5831" stroke="#a0ff56" stroke-width="2" /><polyline fill="none" points="51.2,19.5254 49.0305,18.2237 40.3525,22.5627" stroke="#eaff0c" stroke-width="2" /><polyline fill="none" points="56.8407,31.2407 56.8407,31.2407" stroke="#ffaa00" stroke-width="2" /><polyline fill="none" points="60.3119,24.2983 58.5763,25.6 52.5017,36.8814" stroke="#ff5500" stroke-width="2" /><polyline fill="none" points="49.0305,57.2746 45.9932,56.4068 42.522,58.1424 36.8814,62.9153 34.7119,67.2542 33.8441,82.0068 36.8814,93.722" stroke="#e80000" stroke-width="2" /><polyline fill="none" points="37.7492,71.1593 39.0508,66.3864 34.7119,61.6136" stroke="#7f0000" stroke-width="2" /></svg>