<?xml version="1.0" encoding="utf-8" ?>
<svg baseProfile="tiny" height="128" version="1.2" viewBox="0,0,128,128" width="128" xmlns="http://www.w3.org/2000/svg" xmlns:ev="http://www.w3.org/2001/xml-events" xmlns:xlink="http://www.w3.org/1999/xlink"><defs /><polyline fill="none" points="57.7085,33.4102 49.8983,33.8441 41.2203,38.6169 29.939,65.9525 21.261,74.1966 10.8475,79.4034 13.4508,85.478" stroke="#00007f" stroke-width="2" /><polyline fill="none" points="8.678,78.9695 9.9797,84.1763 12.5831,86.7797 15.6203,87.6475 16.4881,86.3458 13.8847,83.3085" stroke="#0010ff" stroke-width="2" /><polyline fill="none" points="14.7525,84.6102 22.5627,84.6102 27.7695,82.0068 40.7864,71.1593 51.6339,59.0102" stroke="#00a4ff" stroke-width="2" /><polyline fill="none" points="62.0475,30.3729 65.0847,24.7322 78.1017,15.6203 96.3254,10.4136 111.9458,8.678 113.2475,11.2814 111.078,22.5627 118.0203,27.7695 119.322,30.3729 117.5864,43.3898 108.4746,55.1051 94.1559,59.0102 67.2542,60.7458" stroke="#3fffb7" stroke-width="2" /><polyline fill="none" points="51.2,59.4441 52.9356,67.6881 56.4068,73.7627 60.3119,77.6678 64.2169,79.4034 92.4203,80.7051 95.4576,79.8373 98.9288,75.9322" stroke="#b7ff3f" stroke-width="2" /><polyline fill="none" points="69.8576,78.5356 69.8576,78.5356" stroke="#ffb900" stroke-width="2" /><polyline fill="none" points="54.2373,66.3864 66.3864,59.878 66.8203,62.9153 64.6508,70.7254 59.4441,77.2339" stroke="#ff3000" stroke-width="2" /><polyline fill="none" points="88.5153,78.1017 95.8915,76.8 96.3254,95.0237 102.8339,116.2847 112.8136,117.1525" stroke="#7f0000" stroke-width="2" /></svg>