<?xml version="1.0" encoding="utf-8" ?>
<svg baseProfile="tiny" height="128" version="1.2" viewBox="0,0,128,128" width="128" xmlns="http://www.w3.org/2000/svg" xmlns:ev="http://www.w3.org/2001/xml-events" xmlns:xlink="http://www.w3.org/1999/xlink"><defs /><polyline fill="none" points="110.6441,71.1593 118.0203,43.8237 119.322,28.6373 112.3797,19.0915 100.6644,12.1492 77.6678,8.678 54.2373,9.1119 44.6915,38.1831 43.8237,63.3492 39.0508,65.5186 32.9763,65.5186 29.5051,64.2169 21.261,56.4068 16.0542,48.1627 14.7525,42.0881 15.6203,33.8441 19.0915,29.0712 23.8644,27.3356 23.4305,25.1661 18.2237,24.2983 15.1864,25.6 11.7153,28.2034 9.1119,32.9763 8.678,47.2949 12.1492,55.1051 19.5254,64.2169 32.1085,73.7627 52.0678,72.0271 60.7458,67.2542 62.4814,63.7831 62.4814,51.2 65.0847,44.6915 67.2542,42.9559 69.4237,55.539 69.4237,71.5932 75.9322,70.2915 78.1017,68.5559 78.1017,43.8237 80.2712,42.522 82.4407,50.3322 83.7424,70.2915 88.0814,68.9898 92.4203,64.2169 92.8542,52.0678 95.8915,41.6542 98.4949,43.3898 98.9288,45.1254 98.061,69.8576 104.1356,69.4237 106.739,60.7458 108.9085,45.9932 112.8136,49.4644 113.6814,57.2746" stroke="#00007f" stroke-width="2" /></svg>