<?xml version="1.0" encoding="utf-8" ?>
<svg baseProfile="tiny" height="128" version="1.2" viewBox="0,0,128,128" width="128" xmlns="http://www.w3.org/2000/svg" xmlns:ev="http://www.w3.org/2001/xml-events" xmlns:xlink="http://www.w3.org/1999/xlink"><defs /><polyline fill="none" points="26.5578,37.8776 25.6871,53.551 21.7687,63.1293 16.9796,66.1769 8.7075,67.483 9.1429,75.7551 21.7687,74.449 27.8639,70.0952 34.8299,61.8231 37.8776,49.6327 40.0544,48.3265" stroke="#00007f" stroke-width="2" /><polyline fill="none" points="26.5578,37.4422 33.9592,33.9592 43.102,33.0884 52.6803,12.1905 57.4694,8.7075 60.0816,10.8844 62.2585,17.8503 62.6939,25.2517 60.517,32.2177" stroke="#7cff79" stroke-width="2" /><polyline fill="none" points="39.619,49.1973 45.2789,47.8912 56.1633,49.1973 57.4694,52.2449 57.9048,59.6463 54.8571,79.2381 53.9864,80.5442 48.7619,81.8503 48.3265,86.6395 56.5986,87.5102 62.6939,85.3333 63.5646,56.1633 64.0,55.2925 67.483,54.8571 65.7415,62.6939 65.3061,88.381 70.5306,90.5578 75.7551,89.6871 75.7551,52.2449 87.0748,51.8095 94.0408,53.1156 96.6531,87.0748 102.3129,88.8163 104.0544,54.4218 105.7959,48.3265 107.9728,48.3265 112.7619,55.2925 112.3265,77.932 117.1156,81.8503 119.2925,77.0612 116.2449,71.4014 117.551,43.5374 113.1973,42.6667" stroke="#7f0000" stroke-width="2" /></svg>