<?xml version="1.0" encoding="utf-8" ?>
<svg baseProfile="tiny" height="128" version="1.2" viewBox="0,0,128,128" width="128" xmlns="http://www.w3.org/2000/svg" xmlns:ev="http://www.w3.org/2001/xml-events" xmlns:xlink="http://www.w3.org/1999/xlink"><defs /><polyline fill="none" points="108.0407,11.2814 110.6441,9.9797 113.2475,10.8475 118.8881,20.3932 119.322,26.0339 116.7186,31.2407 112.3797,35.1458 95.4576,36.8814 90.6847,49.8983 93.722,69.8576 92.8542,72.461 89.8169,74.6305 86.7797,74.6305 82.4407,72.0271 81.5729,48.1627 79.4034,45.5593 74.6305,45.1254 72.461,46.861 71.1593,63.3492 64.6508,66.8203 58.5763,65.9525 59.878,47.7288 59.878,41.2203 58.5763,39.4847 34.278,41.6542 25.6,41.2203 21.261,54.2373 16.4881,55.9729 10.8475,53.3695 9.1119,51.2 8.678,47.2949 10.8475,39.4847 16.922,31.6746 25.6,27.3356 51.6339,26.4678 64.2169,14.7525 76.8,9.9797 106.3051,10.4136" stroke="#00007f" stroke-width="2" /><polyline fill="none" points="106.3051,12.5831 91.1186,8.678 83.7424,9.5458 75.4983,29.939 74.1966,39.4847 75.4983,50.3322 78.1017,50.7661 85.9119,46.861 93.722,26.0339" stroke="#7f0000" stroke-width="2" /></svg>