<?xml version="1.0" encoding="utf-8" ?>
<svg baseProfile="tiny" height="128" version="1.2" viewBox="0,0,128,128" width="128" xmlns="http://www.w3.org/2000/svg" xmlns:ev="http://www.w3.org/2001/xml-events" xmlns:xlink="http://www.w3.org/1999/xlink"><defs /><polyline fill="none" points="83.3085,41.2203 90.6847,41.6542 94.5898,39.9186 103.2678,32.5424 107.1729,22.5627 109.7763,11.7153 111.9458,9.1119 113.2475,8.678 114.1153,14.7525 117.1525,12.1492 119.322,15.1864 119.322,26.4678 116.2847,33.8441 111.078,39.4847 101.5322,45.1254 90.6847,48.5966 79.4034,47.7288" stroke="#00007f" stroke-width="2" /><polyline fill="none" points="83.3085,40.7864 72.0271,23.4305 64.6508,18.6576 53.3695,21.6949 48.5966,29.939" stroke="#0080ff" stroke-width="2" /><polyline fill="none" points="77.2339,47.2949 72.0271,50.3322 69.4237,55.1051 68.5559,59.878 71.1593,73.3288" stroke="#7cff79" stroke-width="2" /><polyline fill="none" points="46.4271,29.939 45.9932,41.2203 44.6915,45.1254 22.1288,45.5593 14.7525,48.5966 8.678,61.1797 8.678,67.6881 19.0915,78.9695 31.6746,82.8746 52.9356,82.8746 73.3288,74.6305" stroke="#ff9400" stroke-width="2" /><polyline fill="none" points="19.9593,78.5356 17.7898,79.4034 12.5831,88.0814 12.1492,95.8915 22.5627,99.3627 26.0339,99.3627 26.9017,85.0441" stroke="#7f0000" stroke-width="2" /></svg>