<?xml version="1.0" encoding="utf-8" ?>
<svg baseProfile="tiny" height="128" version="1.2" viewBox="0,0,128,128" width="128" xmlns="http://www.w3.org/2000/svg" xmlns:ev="http://www.w3.org/2001/xml-events" xmlns:xlink="http://www.w3.org/1999/xlink"><defs /><polyline fill="none" points="83.7424,17.3559 85.0441,32.5424 92.8542,45.5593 98.9288,50.3322 104.1356,50.7661 109.7763,48.5966 113.6814,44.2576 116.7186,36.0136 119.322,42.0881 118.0203,49.4644 115.4169,52.0678 110.2102,54.6712 99.3627,55.1051 94.5898,52.9356 88.9492,48.5966 81.139,32.1085 75.9322,26.0339 73.7627,26.0339 69.8576,29.5051 68.5559,32.9763 67.6881,53.3695 63.3492,62.9153 58.1424,66.3864 54.6712,66.3864 52.5017,64.6508 55.9729,50.3322 55.539,39.9186 52.9356,36.8814 46.4271,34.278 27.7695,33.8441 22.9966,41.6542 22.5627,49.0305 20.3932,54.2373 16.922,59.4441 12.5831,60.3119 9.9797,57.7085 9.5458,52.9356 16.0542,38.1831 16.4881,32.5424 13.4508,30.8068 9.5458,32.9763 8.678,29.939 9.1119,28.6373 14.7525,27.3356 22.5627,14.3186 31.2407,9.9797 36.8814,8.678 72.8949,9.1119 81.5729,12.1492 82.8746,19.5254" stroke="#00007f" stroke-width="2" /><polyline fill="none" points="90.6847,32.5424 92.4203,31.6746" stroke="#7f0000" stroke-width="2" /></svg>