<?xml version="1.0" encoding="utf-8" ?>
<svg baseProfile="tiny" height="128" version="1.2" viewBox="0,0,128,128" width="128" xmlns="http://www.w3.org/2000/svg" xmlns:ev="http://www.w3.org/2001/xml-events" xmlns:xlink="http://www.w3.org/1999/xlink"><defs /><polyline fill="none" points="58.5763,29.0712 51.2,30.8068 46.4271,33.8441 41.6542,37.7492 40.3525,41.2203 42.9559,44.2576 48.1627,45.9932 54.6712,45.1254 56.8407,41.6542 52.5017,48.1627 51.2,55.9729 55.539,62.4814 61.1797,65.5186 67.2542,64.2169 72.0271,61.6136 74.6305,56.8407 75.4983,50.7661 77.2339,55.539 80.2712,56.4068 88.9492,52.9356 93.2881,46.4271 93.2881,41.2203 88.5153,34.278 80.2712,30.3729 74.1966,30.8068" stroke="#00007f" stroke-width="2" /><polyline fill="none" points="83.7424,38.6169 79.4034,39.0508 75.0644,42.0881 75.9322,45.5593 79.8373,46.861 82.8746,45.9932 86.7797,41.6542 85.478,39.0508 81.139,38.6169" stroke="#0000ac" stroke-width="2" /><polyline fill="none" points="80.7051,42.9559 81.139,42.9559" stroke="#0000de" stroke-width="2" /><polyline fill="none" points="52.9356,35.1458 48.1627,38.1831 48.1627,39.4847 50.3322,39.9186 53.3695,39.4847 54.2373,35.1458" stroke="#0000ff" stroke-width="2" /><polyline fill="none" points="51.6339,37.3153 51.6339,37.3153" stroke="#0028ff" stroke-width="2" /><polyline fill="none" points="62.9153,54.2373 61.1797,61.6136" stroke="#0054ff" stroke-width="2" /><polyline fill="none" points="50.7661,49.0305 68.9898,56.4068 73.3288,56.8407" stroke="#0080ff" stroke-width="2" /><polyline fill="none" points="85.9119,12.5831 65.9525,10.8475 50.7661,13.4508 22.5627,25.6 10.4136,33.4102 9.1119,36.4475 8.678,43.3898 17.3559,66.8203 26.4678,78.5356 39.0508,85.9119 46.861,87.6475 58.1424,88.0814 69.4237,86.7797 81.5729,82.8746 104.1356,70.7254 117.1525,56.4068 119.322,50.3322 118.8881,42.9559 115.8508,35.5797 108.0407,23.8644 101.9661,18.6576 90.6847,11.7153 82.0068,8.678 77.6678,9.1119" stroke="#00a8ff" stroke-width="2" /><polyline fill="none" points="36.0136,59.0102 48.1627,62.4814 75.4983,64.6508 76.3661,68.5559 75.4983,76.3661 72.461,79.8373 54.6712,79.4034 39.0508,72.8949 36.0136,67.2542 36.0136,55.539" stroke="#00d4ff" stroke-width="2" /><polyline fill="none" points="39.0508,59.878 39.0508,67.2542 53.3695,63.3492 54.6712,68.9898 72.8949,69.8576 75.4983,75.4983" stroke="#15ffe1" stroke-width="2" /><polyline fill="none" points="42.522,75.0644 46.4271,71.5932 51.6339,70.7254 55.539,79.4034 62.9153,75.4983 70.2915,80.7051" stroke="#36ffc0" stroke-width="2" /><polyline fill="none" points="95.0237,64.2169 104.1356,73.7627" stroke="#59ff9d" stroke-width="2" /><polyline fill="none" points="81.139,60.7458 82.8746,70.7254" stroke="#7cff79" stroke-width="2" /><polyline fill="none" points="81.5729,81.5729 84.1763,80.2712" stroke="#9dff59" stroke-width="2" /><polyline fill="none" points="102.4,54.6712 96.3254,57.7085 98.061,58.1424" stroke="#c0ff36" stroke-width="2" /><polyline fill="none" points="105.4373,56.4068 101.9661,46.861 102.8339,36.8814" stroke="#e4ff12" stroke-width="2" /><polyline fill="none" points="102.4,26.0339 98.4949,21.6949" stroke="#ffe500" stroke-width="2" /><polyline fill="none" points="75.9322,16.4881 65.0847,17.3559" stroke="#ffbd00" stroke-width="2" /><polyline fill="none" points="39.4847,20.8271 37.3153,24.2983 39.4847,26.0339" stroke="#ff9400" stroke-width="2" /><polyline fill="none" points="42.522,34.278 15.6203,44.6915 9.5458,50.7661" stroke="#ff6f00" stroke-width="2" /><polyline fill="none" points="9.5458,59.0102 13.0169,64.6508 16.922,65.0847 19.5254,63.7831" stroke="#ff4600" stroke-width="2" /><polyline fill="none" points="27.3356,43.3898 24.2983,41.2203 20.8271,51.2" stroke="#ff1d00" stroke-width="2" /><polyline fill="none" points="26.4678,71.1593 30.3729,74.1966" stroke="#de0000" stroke-width="2" /><polyline fill="none" points="36.4475,78.5356 39.4847,83.3085 43.3898,84.1763" stroke="#ac0000" stroke-width="2" /><polyline fill="none" points="55.539,84.1763 55.1051,85.9119 53.3695,87.2136 40.3525,85.478" stroke="#7f0000" stroke-width="2" /></svg>