<?xml version="1.0" encoding="utf-8" ?>
<svg baseProfile="tiny" height="128" version="1.2" viewBox="0,0,128,128" width="128" xmlns="http://www.w3.org/2000/svg" xmlns:ev="http://www.w3.org/2001/xml-events" xmlns:xlink="http://www.w3.org/1999/xlink"><defs /><polyline fill="none" points="70.2915,16.0542 66.3864,13.4508 59.878,15.6203 55.1051,20.8271 52.0678,28.2034 52.0678,30.8068 55.1051,33.4102 68.9898,35.1458" stroke="#00007f" stroke-width="2" /><polyline fill="none" points="75.0644,9.9797 61.6136,9.5458 35.5797,20.3932 25.1661,22.9966 8.678,24.2983" stroke="#0080ff" stroke-width="2" /><polyline fill="none" points="71.5932,8.678 81.5729,13.4508 83.7424,15.6203 87.2136,28.2034 89.8169,32.5424 98.9288,37.3153 115.8508,42.9559 119.322,46.861 119.322,49.4644 117.5864,50.7661 112.3797,51.2 99.3627,47.7288 91.9864,47.7288 82.4407,51.2 79.4034,53.3695 75.0644,58.5763 73.7627,63.3492 73.7627,72.461 76.3661,85.9119 75.0644,89.8169 72.8949,91.5525 64.6508,93.2881 62.0475,91.9864 57.7085,70.7254 54.2373,65.9525 23.8644,66.8203 21.261,70.2915 17.7898,86.3458 15.1864,88.0814 9.1119,88.5153" stroke="#7cff79" stroke-width="2" /><polyline fill="none" points="8.678,88.5153 55.1051,84.6102" stroke="#ff9400" stroke-width="2" /><polyline fill="none" points="75.0644,28.2034 75.0644,26.9017 76.3661,26.4678 77.2339,28.6373" stroke="#7f0000" stroke-width="2" /></svg>