<?xml version="1.0" encoding="utf-8" ?>
<svg baseProfile="tiny" height="128" version="1.2" viewBox="0,0,128,128" width="128" xmlns="http://www.w3.org/2000/svg" xmlns:ev="http://www.w3.org/2001/xml-events" xmlns:xlink="http://www.w3.org/1999/xlink"><defs /><polyline fill="none" points="57.2746,23.4305 52.0678,22.1288 42.0881,22.9966 32.9763,27.7695 29.5051,35.5797 33.4102,48.1627 39.9186,52.9356 47.7288,55.539 56.4068,55.539 68.5559,50.7661 75.0644,45.1254 77.2339,40.7864 76.3661,32.1085 69.8576,24.7322 63.7831,22.5627 51.6339,22.1288 36.8814,26.4678" stroke="#00007f" stroke-width="2" /><polyline fill="none" points="35.5797,50.3322 27.7695,70.7254" stroke="#0000e8" stroke-width="2" /><polyline fill="none" points="55.1051,53.3695 49.4644,68.9898" stroke="#0038ff" stroke-width="2" /><polyline fill="none" points="65.9525,54.6712 65.9525,70.2915" stroke="#0094ff" stroke-width="2" /><polyline fill="none" points="75.0644,47.2949 76.8,53.8034 84.1763,68.5559" stroke="#0cf4ea" stroke-width="2" /><polyline fill="none" points="28.6373,33.4102 27.3356,29.5051 23.4305,27.7695 14.3186,29.5051 9.5458,36.0136 8.678,46.861" stroke="#56ffa0" stroke-width="2" /><polyline fill="none" points="74.6305,31.2407 79.8373,29.0712 85.478,22.9966" stroke="#a0ff56" stroke-width="2" /><polyline fill="none" points="93.2881,13.0169 90.2508,12.5831 85.478,16.0542 84.1763,22.1288 85.9119,37.3153 90.6847,42.0881 94.5898,42.9559 97.6271,42.522 104.5695,38.6169 108.0407,32.1085 105.0034,18.6576 101.5322,13.8847 95.4576,10.8475" stroke="#eaff0c" stroke-width="2" /><polyline fill="none" points="94.5898,8.678 88.5153,15.1864 85.0441,23.4305 77.2339,30.8068 75.4983,27.3356 75.4983,22.5627 80.7051,16.0542 91.5525,12.5831" stroke="#ffaa00" stroke-width="2" /><polyline fill="none" points="105.4373,35.1458 107.1729,45.5593 109.7763,50.3322 112.8136,53.8034 117.5864,55.539 110.6441,25.6" stroke="#ff5500" stroke-width="2" /><polyline fill="none" points="101.9661,37.7492 105.4373,59.878 110.6441,66.8203 119.322,71.5932" stroke="#e80000" stroke-width="2" /><polyline fill="none" points="104.1356,20.3932 104.1356,25.1661 104.5695,20.8271 102.8339,20.3932 103.2678,21.6949" stroke="#7f0000" stroke-width="2" /></svg>