<?xml version="1.0" encoding="utf-8" ?>
<svg baseProfile="tiny" height="128" version="1.2" viewBox="0,0,128,128" width="128" xmlns="http://www.w3.org/2000/svg" xmlns:ev="http://www.w3.org/2001/xml-events" xmlns:xlink="http://www.w3.org/1999/xlink"><defs /><polyline fill="none" points="9.5458,39.9186 12.1492,40.3525 15.6203,44.2576 20.8271,46.4271 23.4305,45.9932 29.939,26.4678 32.1085,23.8644 35.1458,23.8644" stroke="#00007f" stroke-width="2" /><polyline fill="none" points="8.678,39.9186 10.4136,47.7288 19.5254,51.2 24.2983,51.6339 28.6373,45.9932 33.4102,29.939 35.5797,29.0712" stroke="#0000e8" stroke-width="2" /><polyline fill="none" points="35.1458,22.9966 39.4847,13.4508 44.6915,8.678 49.0305,8.678 55.539,11.7153" stroke="#0038ff" stroke-width="2" /><polyline fill="none" points="36.4475,28.2034 39.0508,33.8441 43.8237,36.0136 57.2746,37.3153 57.7085,36.0136" stroke="#0094ff" stroke-width="2" /><polyline fill="none" points="53.8034,9.9797 52.5017,16.0542 52.5017,28.2034 54.2373,31.6746 59.878,29.5051 60.3119,27.7695 58.1424,18.2237 59.0102,11.7153 54.6712,10.4136" stroke="#0cf4ea" stroke-width="2" /><polyline fill="none" points="46.861,16.4881 45.5593,16.922 45.1254,15.6203 46.4271,14.3186 47.7288,16.0542 46.4271,17.3559 45.5593,14.7525 45.5593,16.0542 43.8237,16.0542" stroke="#56ffa0" stroke-width="2" /><polyline fill="none" points="9.1119,40.7864 17.3559,39.9186" stroke="#a0ff56" stroke-width="2" /><polyline fill="none" points="55.1051,35.5797 59.4441,43.3898 75.4983,52.9356 81.5729,54.6712 106.3051,54.2373 114.9831,51.6339 119.322,36.8814 117.1525,22.5627 115.4169,18.2237 111.5119,15.1864 88.5153,9.1119 58.1424,9.5458" stroke="#eaff0c" stroke-width="2" /><polyline fill="none" points="75.4983,51.6339 72.8949,65.5186" stroke="#ffaa00" stroke-width="2" /><polyline fill="none" points="92.4203,50.7661 91.9864,64.2169" stroke="#ff5500" stroke-width="2" /><polyline fill="none" points="105.8712,52.5017 106.3051,63.7831" stroke="#e80000" stroke-width="2" /><polyline fill="none" points="112.3797,49.4644 116.7186,74.1966 119.322,78.1017" stroke="#7f0000" stroke-width="2" /></svg>