<?xml version="1.0" encoding="utf-8" ?>
<svg baseProfile="tiny" height="128" version="1.2" viewBox="0,0,128,128" width="128" xmlns="http://www.w3.org/2000/svg" xmlns:ev="http://www.w3.org/2001/xml-events" xmlns:xlink="http://www.w3.org/1999/xlink"><defs /><polyline fill="none" points="25.6,15.1864 32.1085,9.1119 40.7864,8.678 47.7288,11.2814 58.1424,17.7898 49.8983,18.2237" stroke="#00007f" stroke-width="2" /><polyline fill="none" points="25.1661,13.8847 29.939,12.5831 35.5797,16.0542 32.1085,22.1288 29.939,22.9966" stroke="#004cff" stroke-width="2" /><polyline fill="none" points="27.3356,16.0542 34.7119,14.3186 30.3729,18.2237" stroke="#29ffcd" stroke-width="2" /><polyline fill="none" points="26.0339,11.7153 26.4678,16.0542 21.6949,21.261 11.2814,25.1661 8.678,28.2034 11.7153,30.8068 23.4305,29.939 25.6,32.1085 26.9017,62.0475 28.2034,65.0847 32.1085,65.5186 33.8441,64.2169 36.8814,45.9932 38.6169,43.3898 41.2203,42.522 46.861,45.1254 48.5966,62.9153 52.5017,64.2169 58.5763,63.3492 62.0475,60.7458 63.3492,39.9186 65.9525,38.1831 74.1966,40.7864 75.9322,47.2949 74.1966,58.1424 78.1017,59.4441 82.8746,58.5763 86.3458,54.6712 86.3458,50.3322 80.7051,37.7492 89.3831,38.1831 92.8542,41.6542 90.6847,55.9729 91.5525,58.1424 95.0237,58.5763 98.9288,55.539 99.7966,52.9356 98.061,42.9559 98.4949,41.2203 102.8339,37.3153 112.3797,32.5424 118.0203,26.0339 119.322,17.3559 113.2475,11.2814 113.6814,16.0542 109.3424,22.9966 105.4373,24.7322 95.0237,25.1661 87.6475,22.5627 62.4814,18.6576 43.3898,18.2237" stroke="#cdff29" stroke-width="2" /><polyline fill="none" points="9.1119,26.0339 13.4508,27.7695 26.0339,25.1661" stroke="#ff6700" stroke-width="2" /><polyline fill="none" points="65.9525,29.5051 72.8949,26.9017 109.3424,40.3525" stroke="#7f0000" stroke-width="2" /></svg>