<?xml version="1.0" encoding="utf-8" ?>
<svg baseProfile="tiny" height="128" version="1.2" viewBox="0,0,128,128" width="128" xmlns="http://www.w3.org/2000/svg" xmlns:ev="http://www.w3.org/2001/xml-events" xmlns:xlink="http://www.w3.org/1999/xlink"><defs /><polyline fill="none" points="45.7143,14.3673 45.2789,10.8844 40.4898,9.1429 30.0408,8.7075 21.7687,11.3197 13.4966,18.2857 8.7075,30.4762 8.7075,53.1156 10.0136,57.4694 13.0612,61.3878 20.4626,62.6939 25.2517,60.9524 36.1361,52.6803 39.619,43.9728" stroke="#00007f" stroke-width="2" /><polyline fill="none" points="50.068,12.6259 42.6667,18.7211 39.619,22.6395 37.0068,30.0408 36.5714,45.2789 40.0544,59.6463 46.585,64.4354 68.7891,66.6122 78.3673,63.1293 81.8503,59.6463 85.7687,49.6327 86.2041,39.619 84.4626,33.5238 79.6735,26.9932 70.0952,18.7211 51.3741,15.6735 47.4558,15.6735 46.1497,17.415" stroke="#0080ff" stroke-width="2" /><polyline fill="none" points="80.1088,24.8163 83.1565,17.415 85.7687,15.2381 92.7347,13.4966 105.7959,13.0612 111.8912,17.8503 118.4218,31.3469 119.2925,41.7959 115.3741,50.9388 105.3605,59.2109 103.1837,59.6463 96.2177,56.5986 87.9456,45.7143" stroke="#7cff79" stroke-width="2" /><polyline fill="none" points="57.4694,47.4558 56.5986,46.585 52.6803,48.3265 47.8912,52.6803 47.0204,68.7891 43.9728,73.1429 39.619,75.3197 27.8639,76.1905 37.8776,73.5782" stroke="#ff9400" stroke-width="2" /><polyline fill="none" points="57.4694,46.1497 58.7755,52.2449 58.7755,61.3878 57.034,66.1769 53.551,70.5306 44.8435,76.1905 40.0544,77.932 37.4422,77.932 27.4286,72.7075" stroke="#7f0000" stroke-width="2" /></svg>