<?xml version="1.0" encoding="utf-8" ?>
<svg baseProfile="tiny" height="128" version="1.2" viewBox="0,0,128,128" width="128" xmlns="http://www.w3.org/2000/svg" xmlns:ev="http://www.w3.org/2001/xml-events" xmlns:xlink="http://www.w3.org/1999/xlink"><defs /><polyline fill="none" points="42.9559,27.7695 40.7864,19.0915 30.8068,12.5831 20.8271,12.5831 11.7153,17.7898 8.678,24.7322 8.678,42.9559 11.2814,53.3695 16.0542,62.9153 22.9966,69.4237 29.939,69.4237 41.2203,67.6881 44.6915,61.1797 45.5593,61.6136 48.5966,67.6881 54.6712,69.4237 57.2746,87.2136 61.1797,95.4576 65.9525,101.5322 78.9695,109.7763 90.2508,113.6814 104.5695,115.8508 104.5695,109.7763 90.6847,101.0983 83.7424,93.2881 78.5356,82.8746 77.6678,75.0644 78.1017,72.461 86.7797,69.4237 90.6847,65.5186 97.6271,68.122 104.5695,68.122 111.078,61.1797 116.7186,51.2 119.322,39.4847 119.322,22.9966 115.4169,14.7525 108.0407,9.5458 98.4949,8.678 90.2508,12.5831 87.2136,18.2237 84.6102,29.939 75.9322,25.6 58.5763,23.8644 47.2949,26.4678 40.7864,33.4102" stroke="#00007f" stroke-width="2" /><polyline fill="none" points="52.0678,37.7492 52.9356,51.2 54.6712,36.4475" stroke="#7cff79" stroke-width="2" /><polyline fill="none" points="77.6678,37.7492 76.3661,47.7288 76.3661,38.1831" stroke="#7f0000" stroke-width="2" /></svg>