<?xml version="1.0" encoding="utf-8" ?>
<svg baseProfile="tiny" height="128" version="1.2" viewBox="0,0,128,128" width="128" xmlns="http://www.w3.org/2000/svg" xmlns:ev="http://www.w3.org/2001/xml-events" xmlns:xlink="http://www.w3.org/1999/xlink"><defs /><polyline fill="none" points="32.9763,9.9797 18.2237,9.1119 13.4508,10.4136 9.1119,15.6203 8.678,19.9593 11.7153,26.9017 19.0915,34.278 26.9017,38.6169 21.6949,43.8237 17.7898,51.2 16.0542,66.8203 18.6576,72.461 22.9966,76.3661 30.3729,78.5356 32.1085,75.0644 32.9763,61.1797 36.4475,52.9356" stroke="#00007f" stroke-width="2" /><polyline fill="none" points="36.4475,52.9356 36.4475,52.9356" stroke="#0000e8" stroke-width="2" /><polyline fill="none" points="53.8034,33.8441 64.2169,32.5424 66.8203,36.0136 72.8949,39.0508 74.1966,43.3898 82.0068,44.2576 82.8746,49.0305 80.2712,50.7661 73.3288,50.3322 62.4814,35.5797 52.9356,36.0136" stroke="#0038ff" stroke-width="2" /><polyline fill="none" points="52.9356,36.0136 52.9356,36.0136" stroke="#0094ff" stroke-width="2" /><polyline fill="none" points="42.9559,26.0339 46.861,24.2983 51.2,24.7322 51.6339,28.2034 50.3322,29.0712 45.9932,29.0712 45.5593,27.7695" stroke="#0cf4ea" stroke-width="2" /><polyline fill="none" points="46.861,27.3356 46.861,27.3356" stroke="#56ffa0" stroke-width="2" /><polyline fill="none" points="58.5763,26.0339 58.5763,24.7322 61.1797,24.7322 62.9153,27.3356 60.7458,29.0712 59.0102,27.7695" stroke="#a0ff56" stroke-width="2" /><polyline fill="none" points="58.1424,26.0339 58.1424,26.0339" stroke="#eaff0c" stroke-width="2" /><polyline fill="none" points="62.0475,9.5458 73.3288,8.678 88.0814,16.0542 91.9864,22.1288 91.1186,23.4305 83.3085,26.0339 100.2305,34.7119 106.739,41.6542 109.3424,49.4644 107.6068,61.1797 102.4,65.5186 83.7424,74.6305 75.9322,75.9322 69.4237,75.4983" stroke="#ffaa00" stroke-width="2" /><polyline fill="none" points="69.4237,75.0644 69.4237,75.0644" stroke="#ff5500" stroke-width="2" /><polyline fill="none" points="70.2915,70.7254 72.461,66.3864 77.2339,62.4814 79.4034,58.5763" stroke="#e80000" stroke-width="2" /><polyline fill="none" points="33.8441,64.2169 45.9932,73.3288 71.1593,83.3085 95.0237,88.0814 115.4169,88.9492 119.322,88.0814" stroke="#7f0000" stroke-width="2" /></svg>