<?xml version="1.0" encoding="utf-8" ?>
<svg baseProfile="tiny" height="128" version="1.2" viewBox="0,0,128,128" width="128" xmlns="http://www.w3.org/2000/svg" xmlns:ev="http://www.w3.org/2001/xml-events" xmlns:xlink="http://www.w3.org/1999/xlink"><defs /><polyline fill="none" points="41.6542,16.922 33.4102,15.1864 27.3356,19.0915 11.7153,38.1831 8.678,45.1254 15.1864,49.0305 19.9593,50.7661 35.5797,50.7661 40.3525,42.0881" stroke="#00007f" stroke-width="2" /><polyline fill="none" points="57.7085,17.7898 63.7831,17.7898 91.1186,29.5051 96.3254,32.9763 98.061,36.8814 98.061,38.1831 91.9864,39.9186 80.7051,41.6542 69.4237,41.6542 59.878,39.4847 65.9525,46.4271 69.8576,52.5017 70.7254,61.1797 68.122,64.2169 63.3492,65.9525 50.7661,66.3864 41.2203,59.878 39.4847,56.4068 39.0508,23.8644 46.4271,20.3932 55.1051,8.678 59.4441,16.0542 61.1797,24.7322 63.7831,29.5051 58.5763,36.4475" stroke="#0028ff" stroke-width="2" /><polyline fill="none" points="49.0305,24.2983 41.2203,29.5051 38.6169,33.4102 47.7288,33.8441 51.2,28.6373" stroke="#00d4ff" stroke-width="2" /><polyline fill="none" points="52.9356,26.0339 51.2,28.6373 50.3322,35.5797 53.8034,36.0136 55.9729,34.7119 60.7458,22.9966 60.7458,20.3932 59.0102,20.3932" stroke="#7cff79" stroke-width="2" /><polyline fill="none" points="52.9356,67.6881 36.8814,84.1763 32.5424,99.7966 32.9763,101.9661 36.8814,103.7017 51.2,103.7017 58.1424,95.8915 61.6136,87.2136 62.9153,77.2339 62.9153,69.4237 61.6136,65.5186" stroke="#ffe500" stroke-width="2" /><polyline fill="none" points="49.4644,43.8237 52.5017,51.6339 59.878,59.0102 97.1932,75.4983 108.0407,82.0068 111.5119,88.9492 111.9458,92.8542 110.6441,93.722" stroke="#ff4600" stroke-width="2" /><polyline fill="none" points="53.8034,44.6915 59.4441,52.5017 69.8576,59.4441 81.139,62.9153 99.7966,65.5186 115.4169,71.5932 119.322,84.1763 118.8881,91.1186 103.7017,90.2508" stroke="#7f0000" stroke-width="2" /></svg>