<?xml version="1.0" encoding="utf-8" ?>
<svg baseProfile="tiny" height="128" version="1.2" viewBox="0,0,128,128" width="128" xmlns="http://www.w3.org/2000/svg" xmlns:ev="http://www.w3.org/2001/xml-events" xmlns:xlink="http://www.w3.org/1999/xlink"><defs /><polyline fill="none" points="87.5102,32.6531 78.3673,24.8163 70.0952,20.4626 63.5646,20.0272 55.7279,22.6395 44.8435,31.3469 37.8776,43.5374 37.8776,53.1156 42.2313,59.2109 53.1156,66.1769 61.3878,68.7891 69.6599,68.3537 77.4966,64.4354 84.0272,58.3401 87.9456,46.1497 87.5102,35.2653 84.4626,29.1701 81.8503,26.9932" stroke="#00007f" stroke-width="2" /><polyline fill="none" points="86.6395,29.6054 88.381,18.2857 93.1701,14.3673 99.2653,12.1905 110.1497,11.7551 115.8095,13.932 119.2925,18.2857 119.2925,23.5102 117.551,28.2993 102.3129,44.8435 97.0884,64.8707 94.0408,70.5306 87.5102,73.1429 82.7211,72.7075 78.8027,67.9184 77.0612,61.8231" stroke="#00d4ff" stroke-width="2" /><polyline fill="none" points="49.1973,26.1224 47.0204,22.2041 37.4422,13.0612 31.3469,9.5782 25.6871,8.7075 19.5918,10.8844 12.1905,16.5442 9.1429,22.2041 8.7075,27.8639 9.1429,32.2177 20.0272,55.7279 20.4626,63.5646 17.8503,73.1429 17.8503,75.7551 20.898,78.8027 32.2177,80.1088 40.4898,75.7551 47.4558,68.3537 50.5034,59.2109" stroke="#ffe500" stroke-width="2" /><polyline fill="none" points="60.517,55.2925 59.2109,64.0 52.6803,80.9796 45.7143,91.8639 39.619,94.9116 42.2313,96.2177 55.2925,97.0884 68.3537,74.449 73.1429,63.5646 74.8844,52.6803 71.8367,48.7619" stroke="#7f0000" stroke-width="2" /></svg>