<?xml version="1.0" encoding="utf-8" ?>
<svg baseProfile="tiny" height="128" version="1.2" viewBox="0,0,128,128" width="128" xmlns="http://www.w3.org/2000/svg" xmlns:ev="http://www.w3.org/2001/xml-events" xmlns:xlink="http://www.w3.org/1999/xlink"><defs /><polyline fill="none" points="117.1525,19.0915 119.322,25.6 119.322,32.5424 117.1525,36.8814 114.1153,39.0508 103.2678,39.0508 93.722,36.0136 89.3831,32.1085 77.6678,11.7153 74.6305,9.5458 69.4237,8.678 35.1458,8.678 28.6373,9.9797 16.922,19.0915 11.7153,32.1085 8.678,49.0305 8.678,63.3492 12.1492,71.5932 16.922,72.8949 19.5254,70.7254 25.1661,50.7661 26.0339,70.7254 28.2034,73.3288 32.1085,74.6305 38.6169,74.6305 44.2576,71.1593 50.3322,48.1627 52.5017,64.2169 55.539,68.9898 62.9153,74.1966 71.5932,70.7254 74.6305,64.2169 76.8,50.7661 80.2712,62.4814 82.8746,66.8203 84.6102,66.3864 89.8169,56.8407" stroke="#00007f" stroke-width="2" /></svg>