<?xml version="1.0" encoding="utf-8" ?>
<svg baseProfile="tiny" height="128" version="1.2" viewBox="0,0,128,128" width="128" xmlns="http://www.w3.org/2000/svg" xmlns:ev="http://www.w3.org/2001/xml-events" xmlns:xlink="http://www.w3.org/1999/xlink"><defs /><polyline fill="none" points="72.8949,8.678 88.9492,8.678 93.2881,9.9797 108.9085,18.6576 115.8508,24.7322 118.8881,33.8441 119.322,45.5593 114.9831,60.3119 115.4169,74.1966" stroke="#00007f" stroke-width="2" /><polyline fill="none" points="115.4169,72.461 114.1153,79.8373 100.6644,75.4983 98.9288,54.6712 98.061,49.0305 96.7593,48.1627 87.6475,54.2373 67.2542,54.6712 65.0847,72.461 60.7458,79.4034 58.1424,81.139 53.3695,81.139 49.0305,76.8 49.0305,63.3492 47.2949,50.7661 39.0508,49.4644 26.9017,54.6712 16.0542,76.8 13.8847,78.1017 8.678,72.0271 10.8475,62.9153 15.1864,55.1051" stroke="#7f0000" stroke-width="2" /></svg>