<?xml version="1.0" encoding="utf-8" ?>
<svg baseProfile="tiny" height="128" version="1.2" viewBox="0,0,128,128" width="128" xmlns="http://www.w3.org/2000/svg" xmlns:ev="http://www.w3.org/2001/xml-events" xmlns:xlink="http://www.w3.org/1999/xlink"><defs /><polyline fill="none" points="19.0915,38.1831 19.5254,52.5017 20.8271,56.4068 26.4678,53.3695 29.5051,36.4475 36.8814,36.4475 39.9186,41.2203 41.2203,57.7085 45.1254,55.9729 47.2949,48.1627 45.5593,36.4475 51.6339,40.3525 58.1424,56.4068 61.1797,53.8034 63.7831,46.4271 62.0475,37.3153 69.8576,51.2 75.4983,52.9356 79.8373,52.0678 81.5729,46.861 81.5729,38.6169 80.2712,34.7119 75.0644,32.5424" stroke="#00007f" stroke-width="2" /><polyline fill="none" points="20.3932,36.8814 19.5254,28.6373 8.678,31.2407 10.8475,26.4678 20.8271,21.261 22.1288,14.7525 31.6746,10.8475 48.1627,8.678 60.7458,9.1119 66.3864,12.5831 69.4237,17.7898 70.2915,26.4678 75.4983,33.4102" stroke="#7cff79" stroke-width="2" /><polyline fill="none" points="68.122,13.8847 89.3831,16.4881 101.9661,23.4305 111.078,23.8644 117.5864,21.6949 119.322,23.8644 118.0203,26.0339 114.5492,28.6373 108.9085,29.0712 95.8915,27.3356 78.9695,21.6949" stroke="#7f0000" stroke-width="2" /></svg>