<?xml version="1.0" encoding="utf-8" ?>
<svg baseProfile="tiny" height="128" version="1.2" viewBox="0,0,128,128" width="128" xmlns="http://www.w3.org/2000/svg" xmlns:ev="http://www.w3.org/2001/xml-events" xmlns:xlink="http://www.w3.org/1999/xlink"><defs /><polyline fill="none" points="35.8225,17.9113 34.0751,19.6587 31.0171,37.57 24.0273,41.9386 20.0956,41.5017 15.727,37.57 11.7952,27.5222 13.9795,17.0375 19.6587,12.2321 12.2321,9.6109 14.8532,8.7372 12.2321,9.1741 8.7372,21.843 8.7372,41.5017 13.1058,52.4232 16.6007,54.1706 24.0273,54.6075 29.7065,52.4232 35.8225,46.3072 37.1331,45.8703 38.0068,48.0546 39.7543,55.9181 39.3174,66.4027 28.3959,85.6246 41.9386,85.1877 56.3549,68.587 58.5392,58.9761 58.1024,94.3618 67.7133,93.4881 71.6451,87.8089 72.9556,61.5973 76.0137,58.5392 80.3823,57.6655 92.6143,58.9761 97.8567,58.1024 100.9147,61.5973 103.5358,69.4608 105.2833,85.1877 108.7782,86.0614 117.5154,83.4403 119.2628,81.6928 117.9522,70.3345 112.7099,55.9181" stroke="#00007f" stroke-width="2" /></svg>