<?xml version="1.0" encoding="utf-8" ?>
<svg baseProfile="tiny" height="128" version="1.2" viewBox="0,0,128,128" width="128" xmlns="http://www.w3.org/2000/svg" xmlns:ev="http://www.w3.org/2001/xml-events" xmlns:xlink="http://www.w3.org/1999/xlink"><defs /><polyline fill="none" points="63.7831,84.6102 60.3119,103.7017 61.6136,111.5119" stroke="#00007f" stroke-width="2" /><polyline fill="none" points="72.0271,85.0441 73.7627,105.0034 76.3661,111.5119" stroke="#0000e8" stroke-width="2" /><polyline fill="none" points="88.5153,77.6678 93.2881,95.4576 96.3254,103.7017 98.061,104.5695" stroke="#0038ff" stroke-width="2" /><polyline fill="none" points="107.6068,80.7051 107.6068,101.5322 105.8712,103.7017 98.061,103.7017" stroke="#0094ff" stroke-width="2" /><polyline fill="none" points="74.6305,110.6441 64.2169,111.9458" stroke="#0cf4ea" stroke-width="2" /><polyline fill="none" points="82.8746,81.139 87.6475,94.5898 92.4203,97.1932" stroke="#56ffa0" stroke-width="2" /><polyline fill="none" points="56.8407,85.478 53.8034,95.4576 56.4068,101.9661" stroke="#a0ff56" stroke-width="2" /><polyline fill="none" points="52.5017,78.9695 49.8983,72.461 48.5966,59.878 47.2949,43.8237 48.1627,36.0136 50.7661,31.6746 53.8034,30.3729 66.8203,28.6373 88.0814,30.8068 96.3254,33.4102 99.3627,36.8814 106.3051,51.6339 111.5119,67.6881 110.6441,72.0271 108.4746,75.9322 105.0034,77.6678 99.7966,78.5356" stroke="#eaff0c" stroke-width="2" /><polyline fill="none" points="108.0407,53.3695 119.322,76.8" stroke="#ffaa00" stroke-width="2" /><polyline fill="none" points="51.2,29.939 45.9932,21.6949 38.1831,14.3186 32.5424,10.4136 27.3356,8.678 19.0915,12.1492 12.1492,18.6576 9.5458,24.2983 8.678,33.4102 13.4508,45.1254 21.6949,52.5017 31.2407,53.8034 49.4644,53.8034 55.1051,52.5017 54.2373,50.3322" stroke="#ff5500" stroke-width="2" /><polyline fill="none" points="31.2407,29.0712 18.6576,43.8237 16.4881,55.539 19.5254,63.7831 26.0339,68.9898 30.8068,67.6881 33.4102,62.0475" stroke="#e80000" stroke-width="2" /><polyline fill="none" points="37.3153,26.9017 42.0881,36.8814 45.1254,48.5966 45.1254,61.6136 43.8237,63.7831 41.2203,65.0847 28.2034,65.0847" stroke="#7f0000" stroke-width="2" /></svg>