<?xml version="1.0" encoding="utf-8" ?>
<svg baseProfile="tiny" height="128" version="1.2" viewBox="0,0,128,128" width="128" xmlns="http://www.w3.org/2000/svg" xmlns:ev="http://www.w3.org/2001/xml-events" xmlns:xlink="http://www.w3.org/1999/xlink"><defs /><polyline fill="none" points="87.6475,17.3559 79.8373,12.5831 74.1966,13.4508 70.7254,22.1288 72.0271,32.5424 49.8983,24.7322 35.5797,23.8644 31.2407,24.2983 22.9966,29.0712 16.4881,30.8068 14.3186,33.8441 8.678,36.4475 12.1492,38.1831 18.6576,38.6169 28.2034,34.7119 30.8068,35.1458 35.1458,52.0678 38.1831,53.8034 39.4847,53.3695 37.3153,50.7661 38.1831,42.9559 39.9186,41.2203 49.8983,40.3525 50.7661,43.3898 49.0305,50.3322 49.8983,50.7661 52.0678,49.0305 53.3695,40.7864 56.8407,40.3525 60.7458,42.522 59.4441,48.1627 60.3119,50.3322 68.9898,52.0678 70.7254,49.8983 64.6508,47.2949 66.3864,47.2949 66.8203,43.3898 68.5559,42.9559 72.8949,46.861 72.461,43.3898 74.1966,37.7492 82.8746,40.3525 94.1559,34.278 103.7017,44.2576 119.322,50.7661 119.322,49.0305 114.9831,43.8237 106.739,39.4847 94.1559,29.5051 93.722,28.6373 97.6271,25.1661 101.0983,20.3932 101.9661,12.1492 101.0983,9.5458 100.2305,8.678 95.8915,10.4136 91.9864,17.3559 86.7797,20.8271 89.8169,13.8847" stroke="#00007f" stroke-width="2" /></svg>