<?xml version="1.0" encoding="utf-8" ?>
<svg baseProfile="tiny" height="128" version="1.2" viewBox="0,0,128,128" width="128" xmlns="http://www.w3.org/2000/svg" xmlns:ev="http://www.w3.org/2001/xml-events" xmlns:xlink="http://www.w3.org/1999/xlink"><defs /><polyline fill="none" points="60.3119,34.278 62.9153,37.7492 62.9153,46.4271 54.2373,52.9356 49.0305,59.878" stroke="#00007f" stroke-width="2" /><polyline fill="none" points="63.3492,33.4102 68.9898,35.5797 69.4237,40.7864 66.8203,47.2949 55.539,60.3119 55.1051,63.3492" stroke="#0010ff" stroke-width="2" /><polyline fill="none" points="71.1593,54.6712 58.5763,58.1424" stroke="#00a4ff" stroke-width="2" /><polyline fill="none" points="50.7661,55.1051 44.6915,55.1051 40.7864,52.9356 37.3153,45.9932 36.8814,38.6169 42.9559,26.0339 48.5966,20.8271 55.539,17.7898 70.2915,16.922 80.7051,20.8271 85.0441,24.7322 87.2136,33.8441 85.478,41.6542 80.7051,47.2949 71.5932,50.7661" stroke="#3fffb7" stroke-width="2" /><polyline fill="none" points="49.8983,32.9763 49.0305,31.6746 50.7661,31.2407 51.2,34.278 49.8983,33.4102 50.7661,31.2407" stroke="#b7ff3f" stroke-width="2" /><polyline fill="none" points="72.461,28.6373 72.8949,26.9017 73.7627,29.5051 72.0271,31.6746 69.4237,28.6373" stroke="#ffb900" stroke-width="2" /><polyline fill="none" points="42.9559,25.6 36.8814,19.5254 31.6746,16.4881 26.0339,16.4881 21.6949,19.5254 18.6576,26.0339 19.0915,46.4271 10.4136,57.2746 8.678,65.9525 10.4136,70.2915 13.8847,73.3288 20.3932,75.4983 27.3356,75.0644 36.0136,71.1593 43.3898,61.6136" stroke="#ff3000" stroke-width="2" /><polyline fill="none" points="78.5356,19.5254 87.6475,9.9797 95.4576,8.678 99.3627,12.5831 99.7966,24.7322 114.5492,29.939 117.5864,33.4102 119.322,38.1831 118.8881,43.3898 116.2847,47.7288 112.8136,51.2 107.1729,53.3695 97.6271,53.8034 92.4203,52.5017 86.3458,48.5966 82.4407,43.3898" stroke="#7f0000" stroke-width="2" /></svg>