<?xml version="1.0" encoding="utf-8" ?>
<svg baseProfile="tiny" height="128" version="1.2" viewBox="0,0,128,128" width="128" xmlns="http://www.w3.org/2000/svg" xmlns:ev="http://www.w3.org/2001/xml-events" xmlns:xlink="http://www.w3.org/1999/xlink"><defs /><polyline fill="none" points="45.5593,84.6102 43.8237,77.6678 36.8814,111.5119 43.3898,113.2475 59.878,111.9458 63.7831,111.078 65.0847,98.061 65.0847,86.7797 61.1797,82.4407" stroke="#00007f" stroke-width="2" /><polyline fill="none" points="67.2542,83.7424 93.2881,82.4407" stroke="#004cff" stroke-width="2" /><polyline fill="none" points="95.4576,83.7424 93.722,108.9085 94.5898,114.1153 105.4373,111.5119 116.7186,111.5119 119.322,109.3424 110.6441,53.8034 107.6068,45.1254 104.1356,40.3525 95.0237,37.7492 72.461,36.4475 63.7831,37.3153 54.6712,40.3525 54.2373,37.7492 59.0102,26.0339 59.4441,19.5254 54.6712,10.8475 47.2949,8.678 28.2034,9.9797 17.3559,20.8271 13.4508,32.9763 13.8847,42.522 17.3559,47.2949 25.6,48.5966 44.2576,49.0305 44.6915,53.3695 42.0881,83.7424" stroke="#29ffcd" stroke-width="2" /><polyline fill="none" points="17.3559,41.2203 14.7525,44.2576 11.2814,56.4068 9.1119,66.3864 8.678,79.8373 19.9593,76.3661 27.7695,82.8746 24.7322,40.7864" stroke="#cdff29" stroke-width="2" /><polyline fill="none" points="38.1831,22.5627 38.1831,21.6949" stroke="#ff6700" stroke-width="2" /><polyline fill="none" points="52.9356,13.4508 51.6339,16.0542" stroke="#7f0000" stroke-width="2" /></svg>