<?xml version="1.0" encoding="utf-8" ?>
<svg baseProfile="tiny" height="128" version="1.2" viewBox="0,0,128,128" width="128" xmlns="http://www.w3.org/2000/svg" xmlns:ev="http://www.w3.org/2001/xml-events" xmlns:xlink="http://www.w3.org/1999/xlink"><defs /><polyline fill="none" points="16.922,14.3186 17.7898,20.8271 21.261,29.0712 25.1661,32.9763 29.939,34.7119 36.4475,35.1458 40.7864,32.9763 45.1254,28.6373 52.9356,15.6203 60.3119,9.9797 64.2169,9.1119 69.4237,8.678 74.6305,14.3186 78.1017,18.6576 81.139,27.3356" stroke="#00007f" stroke-width="2" /><polyline fill="none" points="8.678,20.8271 14.7525,36.8814 20.3932,42.0881 28.6373,45.1254 36.4475,45.1254 46.861,40.3525 52.9356,28.2034 55.539,26.0339 56.4068,45.1254 63.3492,49.0305 79.8373,46.4271 82.0068,40.3525 82.4407,29.939 80.7051,23.8644 79.4034,23.4305" stroke="#00d4ff" stroke-width="2" /><polyline fill="none" points="78.9695,16.0542 81.139,14.3186 85.9119,13.0169 98.061,11.7153 106.739,17.3559 111.5119,23.8644 116.7186,34.278 119.322,45.5593 118.8881,55.9729 112.8136,69.4237 106.739,75.0644 98.061,75.4983 72.0271,67.6881 65.5186,63.7831 61.1797,59.0102 58.5763,52.5017 59.0102,44.6915" stroke="#ffe500" stroke-width="2" /><polyline fill="none" points="66.3864,17.3559 66.8203,28.6373 73.3288,30.3729 74.1966,27.3356 68.122,15.6203" stroke="#7f0000" stroke-width="2" /></svg>