<?xml version="1.0" encoding="utf-8" ?>
<svg baseProfile="tiny" height="128" version="1.2" viewBox="0,0,128,128" width="128" xmlns="http://www.w3.org/2000/svg" xmlns:ev="http://www.w3.org/2001/xml-events" xmlns:xlink="http://www.w3.org/1999/xlink"><defs /><polyline fill="none" points="28.6373,28.6373 29.939,40.7864 26.4678,47.2949 19.5254,50.3322 10.4136,50.7661 8.678,46.861 10.8475,42.9559 22.1288,42.0881 23.4305,40.7864 23.4305,22.5627 28.6373,18.2237 36.0136,17.3559 40.7864,10.8475 42.522,10.8475 43.8237,12.1492 45.5593,16.922 46.4271,29.5051 50.7661,31.2407 55.1051,29.0712 56.8407,20.8271 56.8407,12.5831 51.6339,8.678 45.9932,8.678 43.8237,18.2237" stroke="#00007f" stroke-width="2" /><polyline fill="none" points="58.5763,20.3932 79.4034,16.922 93.2881,22.5627 106.739,24.2983 109.3424,22.1288 111.5119,13.0169 114.5492,10.4136 118.8881,9.9797 119.322,14.3186 114.1153,16.4881 112.8136,26.0339 106.739,30.3729 105.8712,32.9763 108.0407,65.5186 106.3051,70.2915 101.0983,76.8 90.2508,78.1017 84.1763,77.6678 81.5729,75.4983 81.139,71.1593 92.8542,67.2542 93.2881,57.7085 90.6847,49.0305 86.7797,43.3898 80.7051,41.2203 77.2339,41.2203 75.4983,43.8237 76.3661,66.8203 73.7627,69.8576 67.6881,72.461 59.0102,71.5932 59.0102,68.5559 65.0847,60.3119 65.9525,53.8034 65.5186,50.7661 62.9153,48.1627 55.539,46.4271 52.9356,55.539 52.9356,68.9898 52.0678,71.5932 41.2203,72.8949 38.6169,71.5932 38.6169,61.1797 43.8237,59.878 45.1254,55.539 42.522,51.2 37.7492,49.0305 33.4102,49.0305 31.6746,53.8034 32.1085,66.8203 21.261,69.4237 20.3932,67.6881 20.8271,62.4814 25.1661,55.539 28.6373,36.0136" stroke="#7f0000" stroke-width="2" /></svg>