<?xml version="1.0" encoding="utf-8" ?>
<svg baseProfile="tiny" height="128" version="1.2" viewBox="0,0,128,128" width="128" xmlns="http://www.w3.org/2000/svg" xmlns:ev="http://www.w3.org/2001/xml-events" xmlns:xlink="http://www.w3.org/1999/xlink"><defs /><polyline fill="none" points="32.9763,90.6847 32.9763,90.6847" stroke="#00007f" stroke-width="2" /><polyline fill="none" points="30.3729,60.3119 28.2034,67.6881 28.2034,76.8 30.8068,83.7424 32.9763,84.6102 39.9186,80.2712 43.3898,74.1966 43.8237,70.7254 40.3525,59.878 45.5593,55.539 49.0305,55.1051 50.3322,56.8407 59.4441,74.6305 64.2169,73.7627 68.5559,58.1424 65.5186,53.3695 65.0847,49.8983" stroke="#0000e8" stroke-width="2" /><polyline fill="none" points="28.2034,62.4814 28.6373,60.3119 30.8068,58.5763" stroke="#0038ff" stroke-width="2" /><polyline fill="none" points="32.5424,57.7085 28.2034,57.7085 18.2237,60.7458 13.0169,64.6508 9.1119,73.7627 8.678,69.8576 17.7898,56.4068 27.7695,45.9932 35.1458,41.2203 39.0508,40.7864" stroke="#0094ff" stroke-width="2" /><polyline fill="none" points="37.7492,38.1831 41.6542,32.1085 51.6339,26.9017 56.8407,27.3356 66.8203,30.3729" stroke="#0cf4ea" stroke-width="2" /><polyline fill="none" points="66.8203,29.0712 65.9525,26.0339 70.2915,19.9593 75.4983,17.7898 83.3085,17.7898 87.6475,29.5051 87.6475,36.8814" stroke="#56ffa0" stroke-width="2" /><polyline fill="none" points="82.4407,16.4881 79.4034,11.2814 74.6305,9.1119 57.2746,8.678 55.539,9.1119 53.8034,11.2814" stroke="#a0ff56" stroke-width="2" /><polyline fill="none" points="62.0475,17.3559 64.6508,24.7322" stroke="#eaff0c" stroke-width="2" /><polyline fill="none" points="55.1051,11.7153 59.0102,20.8271 61.1797,22.9966 64.2169,23.4305" stroke="#ffaa00" stroke-width="2" /><polyline fill="none" points="87.6475,26.0339 103.2678,24.2983 114.9831,29.5051 119.322,39.9186 119.322,53.3695 117.1525,62.4814 114.9831,56.4068 108.0407,47.2949 105.4373,40.7864 91.5525,35.1458 86.7797,34.7119" stroke="#ff5500" stroke-width="2" /><polyline fill="none" points="85.0441,35.5797 84.6102,37.7492 87.6475,47.2949 81.139,51.2 65.9525,55.539" stroke="#e80000" stroke-width="2" /><polyline fill="none" points="81.5729,26.9017 77.2339,27.7695 74.6305,30.8068 85.9119,34.278" stroke="#7f0000" stroke-width="2" /></svg>