<?xml version="1.0" encoding="utf-8" ?>
<svg baseProfile="tiny" height="128" version="1.2" viewBox="0,0,128,128" width="128" xmlns="http://www.w3.org/2000/svg" xmlns:ev="http://www.w3.org/2001/xml-events" xmlns:xlink="http://www.w3.org/1999/xlink"><defs /><polyline fill="none" points="58.9761,39.3174 54.1706,53.7338 48.0546,64.2184 40.628,72.5188 24.901,77.3242 14.8532,75.1399 8.7372,69.0239 24.4642,62.471 36.6962,54.1706 42.8123,43.686 45.4334,29.2696 51.1126,15.2901 56.7918,10.4846 61.5973,8.7372 69.4608,8.7372 82.1297,12.2321 92.1775,16.6007 100.4778,22.7167 102.6621,27.5222 103.5358,40.1911 101.7884,49.3652 97.8567,58.1024 91.7406,62.0341 78.198,61.1604 69.4608,57.6655 58.1024,48.4915 53.2969,46.744" stroke="#00007f" stroke-width="2" /><polyline fill="none" points="93.4881,62.471 105.2833,68.587 112.273,74.2662 114.4573,78.198 116.2048,90.43 112.273,113.1468" stroke="#00d4ff" stroke-width="2" /><polyline fill="none" points="112.273,111.3993 88.6826,119.2628 79.0717,118.8259 72.9556,112.273 72.9556,104.4096 75.5768,98.7304 80.8191,96.9829 90.43,97.4198" stroke="#ffe500" stroke-width="2" /><polyline fill="none" points="76.4505,65.529 71.6451,79.9454" stroke="#7f0000" stroke-width="2" /></svg>