<?xml version="1.0" encoding="utf-8" ?>
<svg baseProfile="tiny" height="128" version="1.2" viewBox="0,0,128,128" width="128" xmlns="http://www.w3.org/2000/svg" xmlns:ev="http://www.w3.org/2001/xml-events" xmlns:xlink="http://www.w3.org/1999/xlink"><defs /><polyline fill="none" points="82.4407,28.6373 82.4407,26.4678 79.8373,23.4305 72.8949,19.0915 62.9153,17.7898 55.1051,20.8271 48.5966,25.1661 46.4271,29.5051 45.5593,38.1831 48.5966,46.4271 52.9356,50.7661 59.4441,52.5017 68.9898,51.6339 79.8373,47.2949 89.3831,37.3153 93.722,27.3356 92.8542,25.1661 90.6847,24.2983 81.139,26.4678" stroke="#00007f" stroke-width="2" /><polyline fill="none" points="49.0305,43.8237 19.9593,47.2949 13.8847,49.4644 9.5458,52.9356 8.678,55.539 9.9797,59.0102 14.3186,62.4814 21.261,63.7831 34.278,62.9153 64.2169,57.7085 68.122,56.4068 67.2542,55.9729" stroke="#0000e8" stroke-width="2" /><polyline fill="none" points="23.4305,64.2169 24.7322,74.1966 34.278,71.5932 36.0136,74.6305 29.939,79.4034 19.9593,80.7051 18.2237,78.9695 17.7898,72.8949 20.8271,62.9153" stroke="#0038ff" stroke-width="2" /><polyline fill="none" points="62.0475,59.0102 59.4441,69.4237 69.8576,71.1593 72.461,76.3661 70.2915,79.8373 64.6508,81.139 54.2373,82.4407 52.5017,81.139 55.539,64.6508 55.1051,60.3119" stroke="#0094ff" stroke-width="2" /><polyline fill="none" points="82.0068,38.1831 82.8746,43.3898 85.478,45.1254 104.5695,40.3525 109.7763,41.6542 112.3797,46.861 111.078,56.4068 117.5864,65.0847 117.5864,68.122 111.9458,70.7254 108.0407,68.5559 106.3051,65.9525 104.5695,53.8034 102.4,52.0678 89.8169,50.7661 84.6102,52.5017 73.7627,52.9356 70.7254,46.4271" stroke="#0cf4ea" stroke-width="2" /><polyline fill="none" points="52.5017,24.7322 45.1254,22.9966 43.3898,18.6576 46.861,16.0542 50.7661,14.7525 54.6712,15.6203 58.5763,18.2237" stroke="#56ffa0" stroke-width="2" /><polyline fill="none" points="79.8373,20.8271 86.3458,14.3186 93.722,9.9797 99.3627,8.678 105.0034,10.4136 106.739,12.5831 106.3051,17.7898 98.4949,26.9017 90.6847,30.8068" stroke="#a0ff56" stroke-width="2" /><polyline fill="none" points="111.078,68.5559 109.3424,68.122 110.6441,64.6508 113.6814,64.6508 114.9831,67.6881 116.2847,64.6508 119.322,64.6508" stroke="#eaff0c" stroke-width="2" /><polyline fill="none" points="55.539,40.3525 59.878,43.3898 65.9525,45.1254 76.8,42.522" stroke="#ffaa00" stroke-width="2" /><polyline fill="none" points="65.5186,28.6373 65.9525,30.8068 71.1593,30.8068 72.8949,27.7695 71.1593,26.9017" stroke="#ff5500" stroke-width="2" /><polyline fill="none" points="78.5356,29.939 77.2339,33.4102 78.9695,35.1458 82.0068,32.9763 82.0068,30.8068" stroke="#e80000" stroke-width="2" /><polyline fill="none" points="70.2915,26.9017 66.8203,29.0712 68.5559,29.939 71.5932,29.0712 72.461,26.4678" stroke="#7f0000" stroke-width="2" /></svg>