<?xml version="1.0" encoding="utf-8" ?>
<svg baseProfile="tiny" height="128" version="1.2" viewBox="0,0,128,128" width="128" xmlns="http://www.w3.org/2000/svg" xmlns:ev="http://www.w3.org/2001/xml-events" xmlns:xlink="http://www.w3.org/1999/xlink"><defs /><polyline fill="none" points="64.6508,21.261 55.1051,22.5627 41.6542,30.3729 30.8068,41.2203 26.9017,49.4644 27.7695,57.2746 31.6746,59.878 37.3153,60.7458 45.1254,60.3119 52.9356,56.8407 58.5763,51.2 62.9153,45.1254 68.122,32.1085 68.9898,26.4678 68.122,17.7898" stroke="#00007f" stroke-width="2" /><polyline fill="none" points="43.3898,47.2949 32.9763,47.2949 28.2034,49.0305 26.0339,51.6339 25.1661,58.5763 25.6,61.6136 29.939,68.9898 29.939,75.0644 19.5254,82.4407 9.9797,85.9119 12.1492,84.1763 25.1661,87.2136 31.2407,85.9119 36.8814,78.1017 39.9186,67.2542 39.4847,62.0475 35.5797,58.1424 35.5797,50.7661 46.861,44.6915" stroke="#0028ff" stroke-width="2" /><polyline fill="none" points="61.6136,14.7525 50.3322,9.5458 39.4847,8.678 26.4678,15.6203 16.4881,26.0339 11.2814,34.278 9.5458,41.2203 8.678,62.0475 19.0915,60.7458 28.2034,54.2373 34.278,45.5593" stroke="#00d4ff" stroke-width="2" /><polyline fill="none" points="60.7458,17.3559 70.7254,23.4305 76.8,32.1085 78.5356,42.9559 78.1017,49.0305 72.461,59.4441 62.9153,65.0847 55.539,65.0847 53.3695,62.4814 53.3695,54.6712 56.4068,51.6339" stroke="#7cff79" stroke-width="2" /><polyline fill="none" points="72.8949,57.7085 89.3831,58.5763 94.1559,60.3119 107.1729,71.1593 110.2102,78.9695 110.6441,86.3458 108.0407,90.2508 98.061,96.3254 77.6678,98.061 65.0847,94.1559 55.539,87.6475 48.1627,80.2712 45.1254,72.461 45.1254,68.122 46.4271,65.9525 49.8983,65.5186" stroke="#ffe500" stroke-width="2" /><polyline fill="none" points="48.1627,91.1186 45.1254,116.2847 52.5017,119.322 53.8034,117.5864 55.1051,105.8712 60.3119,87.2136" stroke="#ff4600" stroke-width="2" /><polyline fill="none" points="45.5593,110.6441 45.5593,110.6441" stroke="#7f0000" stroke-width="2" /></svg>