<?xml version="1.0" encoding="utf-8" ?>
<svg baseProfile="tiny" height="128" version="1.2" viewBox="0,0,128,128" width="128" xmlns="http://www.w3.org/2000/svg" xmlns:ev="http://www.w3.org/2001/xml-events" xmlns:xlink="http://www.w3.org/1999/xlink"><defs /><polyline fill="none" points="30.3729,19.9593 24.7322,31.2407 19.0915,34.7119 14.3186,34.278 14.3186,37.7492 16.0542,42.522 19.0915,44.6915 23.8644,42.0881 30.3729,34.278 35.1458,34.7119 36.8814,45.9932 38.6169,49.4644 39.0508,63.3492 48.5966,49.8983 51.2,48.5966 52.9356,52.9356 54.6712,64.2169 68.5559,67.2542 71.1593,64.6508 74.1966,54.2373 77.6678,50.7661 80.2712,53.3695 81.5729,68.5559 83.7424,57.7085 88.0814,53.8034 91.5525,53.8034 93.722,55.1051 95.4576,68.122 102.4,63.7831 104.5695,60.7458 106.739,47.2949 112.3797,55.539 116.2847,59.4441 119.322,60.7458 113.6814,49.0305 112.3797,40.3525 106.3051,20.8271 98.9288,13.0169 76.3661,8.678 74.1966,9.9797 68.9898,18.6576 63.7831,21.261 57.7085,22.1288 45.5593,15.1864 40.3525,9.9797 36.0136,9.9797 31.6746,13.4508 30.3729,23.4305" stroke="#00007f" stroke-width="2" /><polyline fill="none" points="13.4508,38.6169 8.678,41.2203" stroke="#7cff79" stroke-width="2" /><polyline fill="none" points="12.5831,48.1627 13.0169,59.4441" stroke="#7f0000" stroke-width="2" /></svg>