<?xml version="1.0" encoding="utf-8" ?>
<svg baseProfile="tiny" height="128" version="1.2" viewBox="0,0,128,128" width="128" xmlns="http://www.w3.org/2000/svg" xmlns:ev="http://www.w3.org/2001/xml-events" xmlns:xlink="http://www.w3.org/1999/xlink"><defs /><polyline fill="none" points="44.8435,40.0544 41.7959,44.8435 39.619,57.034 44.8435,67.9184 47.8912,68.7891" stroke="#00007f" stroke-width="2" /><polyline fill="none" points="47.0204,69.6599 44.4082,71.8367 38.7483,67.9184 34.3946,54.8571 35.2653,46.1497 38.3129,41.3605 43.102,38.7483" stroke="#0000ff" stroke-width="2" /><polyline fill="none" points="42.6667,37.8776 47.0204,40.4898" stroke="#0080ff" stroke-width="2" /><polyline fill="none" points="41.7959,39.1837 42.6667,39.1837" stroke="#15ffe1" stroke-width="2" /><polyline fill="none" points="47.4558,39.619 51.8095,43.9728 57.4694,43.5374 63.5646,36.1361 63.5646,30.0408 71.4014,27.8639 77.0612,23.0748 78.8027,18.2857 76.6259,12.6259 69.2245,8.7075 60.0816,9.5782 53.1156,14.3673 51.8095,17.415 46.1497,17.415 38.7483,20.4626 31.7823,30.0408 30.9116,35.2653 33.5238,37.0068" stroke="#7cff79" stroke-width="2" /><polyline fill="none" points="32.6531,30.0408 25.6871,30.9116 17.415,35.2653 9.5782,44.4082 8.7075,51.3741 13.932,53.9864 22.2041,52.6803 29.6054,47.8912 36.5714,40.9252" stroke="#e4ff12" stroke-width="2" /><polyline fill="none" points="31.3469,36.1361 39.619,38.7483 40.9252,42.2313" stroke="#ff9400" stroke-width="2" /><polyline fill="none" points="33.9592,36.5714 38.7483,43.102" stroke="#ff1d00" stroke-width="2" /><polyline fill="none" points="65.3061,37.4422 68.7891,38.3129 76.6259,37.0068 95.7823,36.1361 104.0544,37.4422 114.068,41.3605 119.2925,44.8435 119.2925,54.4218 118.4218,58.3401 114.068,62.2585" stroke="#7f0000" stroke-width="2" /></svg>