<?xml version="1.0" encoding="utf-8" ?>
<svg baseProfile="tiny" height="128" version="1.2" viewBox="0,0,128,128" width="128" xmlns="http://www.w3.org/2000/svg" xmlns:ev="http://www.w3.org/2001/xml-events" xmlns:xlink="http://www.w3.org/1999/xlink"><defs /><polyline fill="none" points="53.551,21.7687 53.551,16.1088 67.0476,8.7075 75.3197,10.0136 79.6735,15.2381 81.8503,22.2041 80.1088,30.0408 67.9184,42.6667" stroke="#00007f" stroke-width="2" /><polyline fill="none" points="53.1156,21.7687 38.3129,24.8163 29.6054,33.0884 26.5578,37.4422 25.6871,41.3605" stroke="#0010ff" stroke-width="2" /><polyline fill="none" points="28.7347,40.9252 25.6871,43.102 24.381,48.3265 27.8639,79.6735 20.4626,87.5102 8.7075,87.0748 9.5782,88.381 19.1565,100.1361 26.5578,98.8299 32.6531,95.7823 42.2313,84.898 44.8435,70.5306 44.4082,63.5646" stroke="#00a4ff" stroke-width="2" /><polyline fill="none" points="20.4626,84.0272 28.7347,92.2993" stroke="#3fffb7" stroke-width="2" /><polyline fill="none" points="29.1701,77.932 33.5238,81.415 35.7007,81.415" stroke="#b7ff3f" stroke-width="2" /><polyline fill="none" points="30.0408,61.3878 30.4762,63.5646 32.6531,65.7415" stroke="#ffb900" stroke-width="2" /><polyline fill="none" points="68.7891,44.4082 69.2245,45.7143 74.449,49.1973 86.2041,45.7143 101.4422,44.4082 111.4558,46.585 115.8095,49.1973" stroke="#ff3000" stroke-width="2" /><polyline fill="none" points="44.8435,67.9184 49.1973,77.4966 59.6463,82.7211 61.3878,84.898 60.517,106.6667 57.034,116.6803 58.7755,118.4218 71.8367,119.2925 77.932,117.1156 81.8503,113.1973 83.1565,106.2313 82.7211,83.5918 102.7483,82.2857 104.9252,89.6871 99.7007,117.1156 108.8435,114.9388 116.6803,115.8095" stroke="#7f0000" stroke-width="2" /></svg>