<?xml version="1.0" encoding="utf-8" ?>
<svg baseProfile="tiny" height="128" version="1.2" viewBox="0,0,128,128" width="128" xmlns="http://www.w3.org/2000/svg" xmlns:ev="http://www.w3.org/2001/xml-events" xmlns:xlink="http://www.w3.org/1999/xlink"><defs /><polyline fill="none" points="43.8237,19.0915 39.0508,14.7525 28.2034,13.8847 23.8644,15.1864 18.6576,20.8271 16.922,26.0339 15.6203,38.1831 15.6203,55.1051 17.3559,62.0475 20.3932,65.9525 26.0339,68.5559 36.0136,68.5559 40.3525,66.3864 43.3898,61.1797" stroke="#00007f" stroke-width="2" /><polyline fill="none" points="70.2915,16.4881 71.5932,11.2814 74.6305,8.678 80.7051,9.1119 85.478,11.7153 91.5525,18.2237 96.7593,31.6746" stroke="#0028ff" stroke-width="2" /><polyline fill="none" points="95.0237,64.6508 84.6102,72.8949 78.5356,75.0644 68.122,75.9322 65.9525,72.461" stroke="#00d4ff" stroke-width="2" /><polyline fill="none" points="61.6136,70.7254 78.9695,72.461 83.3085,69.8576 86.7797,65.5186 89.3831,54.6712 91.5525,38.1831 91.1186,23.4305" stroke="#7cff79" stroke-width="2" /><polyline fill="none" points="52.0678,15.1864 45.5593,21.6949 39.4847,34.7119 34.278,59.4441 34.7119,68.9898 38.6169,74.6305 44.2576,77.6678 49.4644,77.2339 57.7085,72.0271 66.8203,59.0102 68.5559,22.9966 66.8203,16.922 63.7831,13.0169 52.5017,9.1119 45.1254,10.4136 37.7492,16.4881" stroke="#ffe500" stroke-width="2" /><polyline fill="none" points="50.7661,51.2 45.1254,61.6136 38.6169,69.8576 38.6169,86.3458 36.8814,93.722 8.678,114.5492" stroke="#ff4600" stroke-width="2" /><polyline fill="none" points="9.1119,108.4746 13.4508,113.6814 22.9966,119.322 28.2034,117.5864 37.7492,110.2102 41.6542,97.6271 42.522,70.2915 45.9932,60.3119 53.8034,46.861 47.7288,46.861" stroke="#7f0000" stroke-width="2" /></svg>