<?xml version="1.0" encoding="utf-8" ?>
<svg baseProfile="tiny" height="128" version="1.2" viewBox="0,0,128,128" width="128" xmlns="http://www.w3.org/2000/svg" xmlns:ev="http://www.w3.org/2001/xml-events" xmlns:xlink="http://www.w3.org/1999/xlink"><defs /><polyline fill="none" points="53.8034,32.9763 33.4102,47.2949 11.7153,65.9525 12.1492,67.6881 22.1288,70.7254 47.7288,45.9932 57.7085,30.3729" stroke="#00007f" stroke-width="2" /><polyline fill="none" points="58.1424,29.939 53.8034,45.5593 53.8034,58.1424 55.9729,63.7831 59.878,67.2542 70.2915,66.8203 76.3661,64.2169 79.8373,61.1797 82.8746,55.539 85.478,46.4271 85.478,32.5424 77.2339,9.1119 72.0271,8.678 56.8407,14.7525 52.9356,20.8271 50.3322,29.5051 50.7661,37.7492 58.1424,38.6169 59.878,35.5797" stroke="#0000e8" stroke-width="2" /><polyline fill="none" points="78.1017,20.8271 81.5729,20.8271 89.8169,17.7898 112.3797,17.7898 119.322,20.8271 117.5864,32.5424 111.9458,45.5593 101.0983,59.4441 94.1559,71.1593 90.6847,66.3864 87.2136,56.4068 85.9119,42.522 83.3085,32.9763" stroke="#0038ff" stroke-width="2" /><polyline fill="none" points="69.4237,20.8271 68.5559,27.7695 74.1966,27.3356 74.1966,24.7322 71.5932,22.9966" stroke="#0094ff" stroke-width="2" /><polyline fill="none" points="64.2169,45.9932 58.1424,54.6712 56.4068,62.9153 72.0271,64.2169 80.2712,57.7085 80.2712,53.8034 77.2339,50.3322 74.6305,49.0305 67.6881,49.0305 61.6136,53.3695" stroke="#0cf4ea" stroke-width="2" /><polyline fill="none" points="62.9153,54.6712 65.9525,56.8407 73.7627,56.8407 81.5729,53.3695" stroke="#56ffa0" stroke-width="2" /><polyline fill="none" points="56.4068,61.1797 57.7085,64.2169 68.9898,64.6508 74.6305,63.3492 84.1763,58.1424" stroke="#a0ff56" stroke-width="2" /><polyline fill="none" points="31.2407,47.7288 33.4102,56.4068" stroke="#eaff0c" stroke-width="2" /><polyline fill="none" points="24.2983,60.3119 24.2983,67.6881" stroke="#ffaa00" stroke-width="2" /><polyline fill="none" points="16.0542,65.9525 15.6203,65.9525" stroke="#ff5500" stroke-width="2" /><polyline fill="none" points="13.4508,67.2542 13.4508,71.1593" stroke="#e80000" stroke-width="2" /><polyline fill="none" points="17.7898,72.0271 18.2237,73.3288 14.3186,75.0644 11.2814,75.0644 8.678,73.3288" stroke="#7f0000" stroke-width="2" /></svg>