<?xml version="1.0" encoding="utf-8" ?>
<svg baseProfile="tiny" height="128" version="1.2" viewBox="0,0,128,128" width="128" xmlns="http://www.w3.org/2000/svg" xmlns:ev="http://www.w3.org/2001/xml-events" xmlns:xlink="http://www.w3.org/1999/xlink"><defs /><polyline fill="none" points="55.1051,20.8271 53.3695,17.3559 43.8237,12.5831 29.0712,13.0169 18.6576,17.3559 9.1119,29.939 8.678,41.6542 10.4136,49.0305 13.8847,54.6712 20.3932,60.7458 33.4102,65.9525 50.7661,66.3864 55.539,65.0847 55.539,71.5932 52.5017,73.3288 34.278,74.1966 31.6746,75.9322 30.3729,88.5153 32.5424,91.1186 32.9763,94.5898 27.7695,101.0983 16.4881,107.6068 15.6203,112.8136 17.3559,117.1525 29.0712,117.5864 29.5051,111.078 31.6746,107.1729 40.7864,99.7966 41.6542,94.1559 37.7492,83.3085 39.9186,79.8373 54.2373,79.8373 58.5763,78.5356 61.6136,74.6305 62.4814,69.4237 65.0847,66.8203 87.6475,67.2542 101.5322,63.7831 111.078,55.539 118.4542,42.9559 119.322,36.0136 116.2847,28.6373 106.3051,16.0542 97.1932,8.678 76.3661,8.678 67.2542,20.8271 59.878,23.4305 56.8407,22.1288" stroke="#00007f" stroke-width="2" /><polyline fill="none" points="44.2576,46.861 24.7322,53.8034 18.2237,60.3119 11.2814,70.2915 9.1119,79.8373 10.4136,87.2136 15.6203,91.9864 16.0542,73.7627 23.4305,61.6136 31.6746,56.8407 46.4271,52.9356" stroke="#7cff79" stroke-width="2" /><polyline fill="none" points="62.0475,52.9356 78.5356,65.0847 89.3831,82.0068 90.2508,96.3254 83.3085,103.7017 73.3288,105.8712 58.5763,105.4373 72.461,95.0237 74.1966,90.6847 73.3288,75.9322 63.7831,59.4441" stroke="#7f0000" stroke-width="2" /></svg>