<?xml version="1.0" encoding="utf-8" ?>
<svg baseProfile="tiny" height="128" version="1.2" viewBox="0,0,128,128" width="128" xmlns="http://www.w3.org/2000/svg" xmlns:ev="http://www.w3.org/2001/xml-events" xmlns:xlink="http://www.w3.org/1999/xlink"><defs /><polyline fill="none" points="24.8163,62.2585 24.8163,62.2585" stroke="#00007f" stroke-width="2" /><polyline fill="none" points="75.7551,25.2517 74.0136,22.6395 70.0952,20.898 54.4218,19.1565 46.1497,20.898 37.8776,26.1224 31.7823,36.5714 30.0408,44.8435 30.9116,56.1633 37.4422,66.6122 46.1497,70.0952 57.9048,70.0952 78.3673,61.3878 82.7211,57.034 86.2041,45.7143 85.3333,32.6531 78.3673,23.0748 69.6599,20.898" stroke="#0000ff" stroke-width="2" /><polyline fill="none" points="43.9728,22.2041 37.4422,15.6735 30.4762,12.1905 20.4626,13.0612 14.3673,18.2857 11.7551,25.2517 9.1429,40.4898 8.7075,62.2585 13.932,67.0476 19.5918,67.0476 21.7687,65.7415 27.8639,57.034 29.1701,46.1497" stroke="#0080ff" stroke-width="2" /><polyline fill="none" points="79.2381,23.9456 79.2381,12.1905 81.415,8.7075 87.9456,9.1429 92.7347,13.932 94.9116,17.8503 101.0068,41.7959 100.1361,60.0816 97.0884,63.5646 92.2993,61.8231 89.2517,55.2925 87.9456,43.9728" stroke="#15ffe1" stroke-width="2" /><polyline fill="none" points="50.5034,52.2449 51.3741,67.483 49.1973,87.9456 43.102,119.2925 51.8095,116.6803 54.4218,113.6327 56.1633,108.4082 56.5986,78.3673 60.0816,69.6599 60.0816,62.6939 57.4694,52.2449" stroke="#7cff79" stroke-width="2" /><polyline fill="none" points="54.4218,107.5374 44.8435,107.102" stroke="#e4ff12" stroke-width="2" /><polyline fill="none" points="54.4218,95.3469 47.0204,95.3469" stroke="#ff9400" stroke-width="2" /><polyline fill="none" points="52.6803,82.2857 46.585,82.2857" stroke="#ff1d00" stroke-width="2" /><polyline fill="none" points="54.4218,64.8707 54.4218,64.8707" stroke="#7f0000" stroke-width="2" /></svg>