<?xml version="1.0" encoding="utf-8" ?>
<svg baseProfile="tiny" height="128" version="1.2" viewBox="0,0,128,128" width="128" xmlns="http://www.w3.org/2000/svg" xmlns:ev="http://www.w3.org/2001/xml-events" xmlns:xlink="http://www.w3.org/1999/xlink"><defs /><polyline fill="none" points="22.9966,31.2407 24.2983,57.2746 31.6746,56.4068 30.3729,43.8237 31.6746,37.7492 33.4102,35.1458 36.4475,41.6542 37.3153,56.8407 50.3322,55.1051 48.1627,42.522 48.5966,36.0136 49.8983,35.1458 57.7085,35.1458 58.5763,46.861 61.6136,53.8034 70.7254,53.8034 76.8,52.0678 72.461,38.6169 72.0271,34.278 73.3288,33.8441 82.0068,33.8441 83.7424,48.1627 87.2136,55.1051 88.9492,55.1051 97.6271,50.7661 92.4203,30.8068 102.8339,33.8441 107.6068,33.8441 112.8136,31.6746 117.5864,22.9966 119.322,15.1864 116.2847,23.4305 113.2475,26.9017 98.4949,29.939 92.4203,26.0339 85.478,12.5831 52.0678,14.7525 39.4847,13.4508 31.6746,16.0542 29.5051,17.7898 24.2983,15.1864 18.6576,8.678 8.678,9.1119" stroke="#00007f" stroke-width="2" /></svg>