<?xml version="1.0" encoding="utf-8" ?>
<svg baseProfile="tiny" height="128" version="1.2" viewBox="0,0,128,128" width="128" xmlns="http://www.w3.org/2000/svg" xmlns:ev="http://www.w3.org/2001/xml-events" xmlns:xlink="http://www.w3.org/1999/xlink"><defs /><polyline fill="none" points="91.5525,47.7288 85.0441,39.4847 76.8,33.4102 67.6881,29.5051 57.2746,28.2034 44.2576,28.2034 40.3525,29.5051 34.278,35.1458 29.5051,45.1254 29.5051,60.7458 33.4102,70.7254 39.4847,81.139 44.6915,85.478 56.8407,90.2508 63.7831,92.4203 75.4983,92.4203 81.139,90.6847 93.2881,82.8746 98.061,73.3288 98.4949,59.4441 95.4576,49.4644 91.5525,44.6915" stroke="#00007f" stroke-width="2" /><polyline fill="none" points="36.8814,78.9695 36.8814,109.7763 47.7288,109.3424 51.6339,106.739 52.5017,88.9492" stroke="#00d4ff" stroke-width="2" /><polyline fill="none" points="83.3085,89.3831 81.5729,101.5322 81.5729,116.7186 92.8542,119.322 103.2678,118.4542 104.5695,114.1153 104.1356,103.2678 96.7593,76.3661" stroke="#ffe500" stroke-width="2" /><polyline fill="none" points="40.3525,26.9017 32.9763,14.7525 28.6373,9.9797 24.7322,8.678 19.0915,11.7153 11.7153,19.9593 8.678,27.7695 8.678,40.7864 11.2814,43.8237 15.1864,45.9932" stroke="#7f0000" stroke-width="2" /></svg>