<?xml version="1.0" encoding="utf-8" ?>
<svg baseProfile="tiny" height="128" version="1.2" viewBox="0,0,128,128" width="128" xmlns="http://www.w3.org/2000/svg" xmlns:ev="http://www.w3.org/2001/xml-events" xmlns:xlink="http://www.w3.org/1999/xlink"><defs /><polyline fill="none" points="44.2576,14.7525 21.261,14.7525 18.2237,16.0542 11.7153,23.4305 8.678,39.0508 17.3559,40.7864 30.3729,45.5593 32.5424,48.1627 35.5797,56.8407 42.0881,62.9153 46.861,63.7831 50.7661,60.3119" stroke="#00007f" stroke-width="2" /><polyline fill="none" points="86.7797,10.8475 103.7017,10.8475 107.1729,13.8847 109.3424,19.9593 108.0407,26.4678 101.0983,36.4475 100.6644,49.8983 98.4949,54.6712 95.0237,56.4068 89.3831,56.4068" stroke="#0080ff" stroke-width="2" /><polyline fill="none" points="52.5017,12.1492 49.0305,32.5424 49.4644,39.4847 57.2746,52.9356 62.4814,55.9729" stroke="#7cff79" stroke-width="2" /><polyline fill="none" points="78.9695,8.678 83.7424,9.5458 88.9492,17.7898 89.3831,32.9763 85.478,52.9356 80.7051,59.0102 74.6305,62.4814 70.7254,62.9153 61.6136,61.1797 52.5017,53.3695 48.5966,46.861 45.5593,33.4102 45.5593,22.9966 49.0305,16.0542 59.0102,9.5458 73.3288,8.678 80.2712,11.7153 87.2136,17.3559" stroke="#ff9400" stroke-width="2" /><polyline fill="none" points="70.2915,47.7288 80.7051,47.7288 82.8746,48.5966 85.9119,56.8407 85.478,70.2915 86.7797,73.7627 90.2508,78.1017 101.9661,84.6102 113.2475,88.0814 119.322,97.6271" stroke="#7f0000" stroke-width="2" /></svg>