<?xml version="1.0" encoding="utf-8" ?>
<svg baseProfile="tiny" height="128" version="1.2" viewBox="0,0,128,128" width="128" xmlns="http://www.w3.org/2000/svg" xmlns:ev="http://www.w3.org/2001/xml-events" xmlns:xlink="http://www.w3.org/1999/xlink"><defs /><polyline fill="none" points="88.0814,13.4508 92.4203,9.5458 95.0237,9.5458 95.4576,10.4136 95.0237,16.0542 88.5153,22.5627" stroke="#00007f" stroke-width="2" /><polyline fill="none" points="87.2136,13.4508 82.4407,11.7153 77.6678,12.5831" stroke="#0000d5" stroke-width="2" /><polyline fill="none" points="80.2712,12.5831 76.8,9.5458 71.5932,8.678 70.7254,12.5831 72.461,16.4881" stroke="#001cff" stroke-width="2" /><polyline fill="none" points="78.9695,22.9966 76.3661,25.6 70.2915,26.0339 65.5186,21.6949 64.6508,18.2237 63.7831,21.6949 66.8203,22.1288" stroke="#006cff" stroke-width="2" /><polyline fill="none" points="64.6508,23.4305 66.8203,28.2034 8.678,28.6373 16.0542,32.1085 25.6,30.3729" stroke="#00b8ff" stroke-width="2" /><polyline fill="none" points="75.0644,30.3729 78.1017,30.3729 82.0068,26.9017" stroke="#1cffda" stroke-width="2" /><polyline fill="none" points="72.461,15.1864 76.3661,22.1288 80.7051,22.9966 83.3085,22.1288" stroke="#5cff9a" stroke-width="2" /><polyline fill="none" points="86.7797,22.9966 86.7797,22.9966" stroke="#9aff5c" stroke-width="2" /><polyline fill="none" points="91.9864,22.9966 98.061,16.0542 105.0034,13.8847 112.3797,19.0915 118.8881,28.2034" stroke="#daff1c" stroke-width="2" /><polyline fill="none" points="119.322,29.939 119.322,32.9763" stroke="#ffcb00" stroke-width="2" /><polyline fill="none" points="117.5864,35.1458 111.078,46.861" stroke="#ff8500" stroke-width="2" /><polyline fill="none" points="111.078,37.3153 108.9085,45.5593 116.2847,42.0881" stroke="#ff3b00" stroke-width="2" /><polyline fill="none" points="86.3458,28.2034 90.6847,39.0508 88.0814,48.1627" stroke="#d50000" stroke-width="2" /><polyline fill="none" points="92.4203,34.7119 93.722,44.6915 88.9492,48.1627" stroke="#7f0000" stroke-width="2" /></svg>