<?xml version="1.0" encoding="utf-8" ?>
<svg baseProfile="tiny" height="128" version="1.2" viewBox="0,0,128,128" width="128" xmlns="http://www.w3.org/2000/svg" xmlns:ev="http://www.w3.org/2001/xml-events" xmlns:xlink="http://www.w3.org/1999/xlink"><defs /><polyline fill="none" points="39.0508,48.1627 39.0508,52.5017 36.0136,58.1424 32.1085,63.3492 27.3356,64.2169 21.261,62.0475 10.8475,48.1627 8.678,26.0339 13.0169,18.6576 27.3356,13.8847 36.0136,14.7525 37.7492,24.2983 37.7492,19.9593 39.0508,18.6576 45.1254,15.1864 52.9356,13.0169 63.3492,13.0169 78.1017,19.9593 79.8373,20.8271 82.8746,29.5051 82.8746,34.7119 80.2712,39.9186" stroke="#00007f" stroke-width="2" /><polyline fill="none" points="78.9695,21.6949 85.0441,11.2814 88.9492,8.678 96.7593,9.1119 118.4542,22.5627 119.322,30.3729 114.9831,40.7864 106.3051,49.4644 96.7593,52.9356 79.8373,54.6712 75.9322,53.8034" stroke="#00d4ff" stroke-width="2" /><polyline fill="none" points="37.3153,54.6712 39.9186,58.1424 49.8983,65.0847 72.461,65.5186 78.9695,63.7831 80.7051,59.878 80.7051,53.8034" stroke="#ffe500" stroke-width="2" /><polyline fill="none" points="49.8983,39.9186 62.0475,57.7085 63.3492,62.0475 63.3492,68.9898 57.7085,84.6102 60.7458,86.7797 68.122,86.7797 73.3288,85.9119 72.0271,83.3085 72.0271,59.878 69.4237,45.1254 63.3492,39.0508" stroke="#7f0000" stroke-width="2" /></svg>