<?xml version="1.0" encoding="utf-8" ?>
<svg baseProfile="tiny" height="128" version="1.2" viewBox="0,0,128,128" width="128" xmlns="http://www.w3.org/2000/svg" xmlns:ev="http://www.w3.org/2001/xml-events" xmlns:xlink="http://www.w3.org/1999/xlink"><defs /><polyline fill="none" points="34.278,28.6373 26.0339,29.0712 18.6576,31.6746 14.3186,36.0136 8.678,45.5593" stroke="#00007f" stroke-width="2" /><polyline fill="none" points="8.678,45.9932 13.0169,45.9932 17.7898,40.3525 23.8644,36.4475 34.7119,33.8441 37.7492,34.278" stroke="#7cff79" stroke-width="2" /><polyline fill="none" points="31.6746,28.6373 49.4644,10.4136 53.3695,8.678 66.3864,9.1119 75.4983,13.4508 85.0441,19.9593 89.3831,29.0712 100.2305,30.3729 109.3424,33.8441 118.4542,49.8983 119.322,76.8 116.2847,78.5356 102.4,75.9322 101.5322,57.2746 91.1186,58.5763 91.5525,70.2915 84.6102,70.7254 78.1017,69.4237 75.0644,66.8203 74.1966,62.0475 75.4983,59.878 75.4983,53.8034 57.7085,55.539 55.539,60.7458 55.539,70.7254 44.2576,66.3864 42.0881,59.0102 42.9559,49.8983 42.0881,49.4644 35.1458,52.5017" stroke="#7f0000" stroke-width="2" /></svg>