<?xml version="1.0" encoding="utf-8" ?>
<svg baseProfile="tiny" height="128" version="1.2" viewBox="0,0,128,128" width="128" xmlns="http://www.w3.org/2000/svg" xmlns:ev="http://www.w3.org/2001/xml-events" xmlns:xlink="http://www.w3.org/1999/xlink"><defs /><polyline fill="none" points="76.3661,10.4136 76.3661,32.5424 78.5356,34.278 85.0441,35.5797 87.2136,35.1458 89.3831,32.5424 91.1186,26.9017 91.5525,18.2237 88.9492,9.5458" stroke="#00007f" stroke-width="2" /><polyline fill="none" points="91.5525,27.3356 103.2678,35.1458 108.9085,45.9932 116.7186,53.8034 119.322,64.6508 119.322,72.0271 114.9831,72.461 112.8136,70.7254 106.3051,55.539 95.8915,42.0881 91.5525,39.4847" stroke="#0080ff" stroke-width="2" /><polyline fill="none" points="91.1186,8.678 101.0983,8.678 104.5695,12.1492 104.1356,19.5254 96.3254,30.3729" stroke="#7cff79" stroke-width="2" /><polyline fill="none" points="93.722,41.2203 83.7424,49.4644 74.6305,53.3695 58.1424,55.1051 52.5017,51.6339" stroke="#ff9400" stroke-width="2" /><polyline fill="none" points="52.5017,51.6339 58.1424,80.2712 58.1424,98.061 55.9729,103.2678 51.6339,105.4373 46.861,105.8712 39.9186,99.7966 39.4847,71.1593 36.4475,58.5763 33.4102,55.9729 21.6949,55.9729 20.8271,57.2746 21.261,69.4237 27.3356,86.7797 28.2034,95.4576 21.261,99.3627 15.6203,99.3627 10.4136,94.1559 8.678,85.0441 9.1119,49.0305" stroke="#7f0000" stroke-width="2" /></svg>