<?xml version="1.0" encoding="utf-8" ?>
<svg baseProfile="tiny" height="128" version="1.2" viewBox="0,0,128,128" width="128" xmlns="http://www.w3.org/2000/svg" xmlns:ev="http://www.w3.org/2001/xml-events" xmlns:xlink="http://www.w3.org/1999/xlink"><defs /><polyline fill="none" points="42.522,21.261 39.4847,21.6949 37.3153,18.6576 36.8814,11.7153 38.6169,9.9797 44.6915,9.9797 52.0678,19.0915 55.539,17.7898 64.6508,17.3559 72.0271,21.6949 73.7627,11.7153 78.1017,8.678 82.8746,8.678 89.3831,17.7898 90.2508,26.0339 87.6475,28.2034 82.0068,28.6373 89.8169,38.1831 93.722,45.1254 98.9288,48.5966 106.3051,48.5966 110.6441,47.2949 114.1153,42.0881 114.5492,32.1085 116.7186,31.6746 119.322,32.9763 119.322,39.4847 116.7186,50.3322 103.2678,55.9729 91.5525,55.9729 81.139,47.2949 78.1017,41.6542 77.6678,59.0102 63.7831,61.6136 62.9153,51.2 61.6136,50.7661 52.9356,51.2 50.3322,62.0475 32.5424,61.1797 30.8068,57.2746 30.3729,41.6542 39.0508,31.2407 40.7864,23.8644" stroke="#00007f" stroke-width="2" /><polyline fill="none" points="30.3729,41.2203 14.3186,41.2203 8.678,45.5593 12.1492,45.1254 12.1492,51.2 13.0169,43.8237" stroke="#7f0000" stroke-width="2" /></svg>