<?xml version="1.0" encoding="utf-8" ?>
<svg baseProfile="tiny" height="128" version="1.2" viewBox="0,0,128,128" width="128" xmlns="http://www.w3.org/2000/svg" xmlns:ev="http://www.w3.org/2001/xml-events" xmlns:xlink="http://www.w3.org/1999/xlink"><defs /><polyline fill="none" points="75.4983,69.4237 71.1593,98.061 68.9898,101.5322 60.3119,105.4373 57.7085,104.1356 54.6712,94.5898 53.3695,69.8576 35.5797,65.0847 30.8068,65.5186 27.7695,72.0271 24.7322,100.2305 22.1288,107.6068 19.9593,108.4746 14.3186,107.6068 11.7153,105.4373 8.678,77.2339 11.2814,59.0102 17.3559,41.6542 20.3932,27.3356 24.2983,20.3932 33.4102,13.4508 43.8237,10.4136 57.2746,8.678 79.8373,9.1119 99.7966,17.7898 113.2475,29.0712 118.4542,44.6915 119.322,63.3492 116.7186,79.4034 114.1153,82.4407 111.078,83.3085 103.2678,69.8576 93.2881,61.6136 86.7797,51.6339 81.5729,51.6339 76.8,59.4441 76.3661,85.478" stroke="#00007f" stroke-width="2" /></svg>