<?xml version="1.0" encoding="utf-8" ?>
<svg baseProfile="tiny" height="128" version="1.2" viewBox="0,0,128,128" width="128" xmlns="http://www.w3.org/2000/svg" xmlns:ev="http://www.w3.org/2001/xml-events" xmlns:xlink="http://www.w3.org/1999/xlink"><defs /><polyline fill="none" points="44.2576,70.2915 32.1085,67.2542" stroke="#00007f" stroke-width="2" /><polyline fill="none" points="32.1085,67.6881 29.0712,59.878 28.6373,54.2373 34.278,43.8237 33.8441,32.1085 31.6746,30.8068 20.3932,30.3729 17.3559,32.5424 11.7153,42.522 9.1119,36.8814 8.678,29.939 12.1492,23.4305 19.9593,19.9593 38.1831,19.5254 46.4271,11.2814 49.0305,9.9797 69.4237,8.678 88.5153,9.9797 102.8339,16.4881 110.6441,27.7695 117.5864,45.1254 119.322,65.5186 113.6814,61.6136 109.3424,55.9729 106.739,30.3729 101.9661,29.0712 93.2881,40.7864 88.5153,58.1424 83.7424,64.6508 78.9695,64.6508 76.3661,61.1797 74.1966,55.539 73.7627,45.9932 67.2542,44.6915 52.5017,52.5017 45.5593,62.4814 44.2576,71.1593" stroke="#7cff79" stroke-width="2" /><polyline fill="none" points="98.4949,33.4102 98.4949,33.4102" stroke="#7f0000" stroke-width="2" /></svg>