<?xml version="1.0" encoding="utf-8" ?>
<svg baseProfile="tiny" height="128" version="1.2" viewBox="0,0,128,128" width="128" xmlns="http://www.w3.org/2000/svg" xmlns:ev="http://www.w3.org/2001/xml-events" xmlns:xlink="http://www.w3.org/1999/xlink"><defs /><polyline fill="none" points="58.5763,22.1288 31.6746,26.0339 16.4881,35.5797 15.1864,39.0508 16.0542,44.2576 18.2237,49.0305 23.8644,54.2373 33.8441,59.0102 51.6339,57.2746 55.1051,53.3695 55.539,42.522 59.4441,36.8814 58.5763,32.1085 59.878,29.0712 55.9729,25.1661" stroke="#00007f" stroke-width="2" /><polyline fill="none" points="55.539,18.6576 58.1424,14.3186 61.6136,11.7153 69.8576,8.678 80.2712,9.1119 86.7797,14.3186 88.0814,19.9593 85.478,25.1661 81.139,29.939 74.6305,33.8441 61.6136,36.8814 59.878,34.278 59.0102,24.7322" stroke="#0000ff" stroke-width="2" /><polyline fill="none" points="88.9492,20.3932 85.9119,29.5051 87.2136,40.3525 93.722,52.0678 97.1932,54.2373 102.8339,54.2373 111.9458,51.2 112.8136,49.8983 111.9458,47.2949" stroke="#0080ff" stroke-width="2" /><polyline fill="none" points="86.3458,20.3932 92.8542,28.6373 95.0237,29.5051 101.5322,29.939 95.8915,43.3898 98.4949,49.8983 101.0983,51.2 109.3424,52.0678 114.5492,55.539 119.322,54.6712" stroke="#15ffe1" stroke-width="2" /><polyline fill="none" points="45.5593,53.3695 42.0881,74.6305 43.8237,86.3458 44.6915,88.5153 45.1254,85.478" stroke="#7cff79" stroke-width="2" /><polyline fill="none" points="37.3153,58.5763 33.4102,64.2169 13.8847,82.0068" stroke="#e4ff12" stroke-width="2" /><polyline fill="none" points="26.4678,51.2 14.7525,67.2542 8.678,72.8949" stroke="#ff9400" stroke-width="2" /><polyline fill="none" points="48.5966,60.3119 53.8034,69.8576 59.0102,74.1966" stroke="#ff1d00" stroke-width="2" /><polyline fill="none" points="75.4983,13.0169 68.122,11.2814 60.7458,13.0169" stroke="#7f0000" stroke-width="2" /></svg>