<?xml version="1.0" encoding="utf-8" ?>
<svg baseProfile="tiny" height="128" version="1.2" viewBox="0,0,128,128" width="128" xmlns="http://www.w3.org/2000/svg" xmlns:ev="http://www.w3.org/2001/xml-events" xmlns:xlink="http://www.w3.org/1999/xlink"><defs /><polyline fill="none" points="90.1224,12.6259 103.1837,12.1905 109.7143,15.2381 116.2449,23.9456 119.2925,30.9116 118.8571,37.0068 107.9728,51.3741 102.3129,54.8571 83.1565,55.7279 77.932,53.9864 74.449,50.9388" stroke="#00007f" stroke-width="2" /><polyline fill="none" points="47.4558,12.6259 41.3605,8.7075 30.4762,8.7075 10.8844,24.8163 8.7075,33.0884 8.7075,37.8776 12.1905,45.2789 22.2041,53.551 34.8299,55.7279 47.0204,51.3741" stroke="#0028ff" stroke-width="2" /><polyline fill="none" points="72.7075,28.2993 69.6599,31.3469 70.5306,33.9592 75.3197,32.6531 74.8844,28.2993" stroke="#00d4ff" stroke-width="2" /><polyline fill="none" points="59.2109,27.4286 54.8571,29.1701 53.9864,31.7823 55.7279,33.5238 58.3401,31.3469 58.7755,25.6871" stroke="#7cff79" stroke-width="2" /><polyline fill="none" points="73.1429,50.068 69.6599,51.3741 69.2245,56.1633 76.1905,76.1905 76.1905,86.6395 70.966,92.2993 53.9864,101.8776 49.6327,102.3129" stroke="#ffe500" stroke-width="2" /><polyline fill="none" points="46.1497,50.9388 46.585,64.8707 54.8571,69.6599 57.9048,73.1429 55.7279,80.5442 46.585,91.4286 45.7143,94.4762 48.3265,98.8299" stroke="#ff4600" stroke-width="2" /><polyline fill="none" points="87.5102,14.3673 69.6599,20.4626 48.7619,16.1088" stroke="#7f0000" stroke-width="2" /></svg>