<?xml version="1.0" encoding="utf-8" ?>
<svg baseProfile="tiny" height="128" version="1.2" viewBox="0,0,128,128" width="128" xmlns="http://www.w3.org/2000/svg" xmlns:ev="http://www.w3.org/2001/xml-events" xmlns:xlink="http://www.w3.org/1999/xlink"><defs /><polyline fill="none" points="60.3119,36.8814 59.878,35.1458 55.539,34.7119 45.1254,41.6542 37.3153,41.6542 34.7119,39.0508 32.5424,29.939 30.8068,28.2034 25.1661,34.278 24.7322,36.8814 32.1085,45.1254 39.4847,47.7288 51.2,47.7288 62.0475,42.9559 63.3492,46.4271 62.9153,68.122 66.8203,67.2542 68.5559,55.9729 75.0644,56.8407 75.0644,65.9525 79.8373,65.5186 82.0068,56.8407 89.3831,57.2746 91.1186,64.6508 95.8915,63.3492 96.3254,55.1051 105.8712,55.1051 106.3051,62.9153 114.1153,61.6136 115.4169,49.8983 91.5525,50.3322 85.9119,47.2949 72.8949,36.4475 68.122,34.7119 59.0102,33.8441" stroke="#00007f" stroke-width="2" /><polyline fill="none" points="62.0475,42.522 66.3864,42.522 68.122,40.3525" stroke="#0010ff" stroke-width="2" /><polyline fill="none" points="65.5186,37.7492 65.5186,39.0508" stroke="#00a4ff" stroke-width="2" /><polyline fill="none" points="81.139,43.3898 82.8746,44.6915 101.5322,43.8237 110.2102,45.1254 117.5864,49.4644 119.322,55.9729" stroke="#3fffb7" stroke-width="2" /><polyline fill="none" points="93.722,48.5966 90.6847,47.7288 93.2881,47.2949 101.0983,47.2949 111.078,52.0678 104.1356,48.1627 95.4576,46.861 88.9492,47.7288 87.2136,51.2 91.9864,52.9356 104.1356,52.0678 108.0407,49.4644 108.0407,48.1627 105.0034,45.9932 91.5525,45.5593 85.9119,47.7288 85.0441,49.8983 90.2508,52.5017 109.3424,54.2373 111.9458,52.9356 112.3797,50.3322 108.4746,47.7288 103.7017,46.4271 93.722,47.2949 85.0441,51.6339 90.2508,53.3695 106.739,52.9356 109.3424,50.7661 106.739,47.7288 95.4576,46.4271 81.139,48.5966 78.5356,50.3322 78.5356,52.9356 89.3831,53.8034 96.3254,52.5017" stroke="#b7ff3f" stroke-width="2" /><polyline fill="none" points="95.4576,8.678 94.5898,12.1492 84.1763,25.1661" stroke="#ffb900" stroke-width="2" /><polyline fill="none" points="78.1017,16.922 80.2712,25.1661 84.6102,31.6746 92.4203,31.2407 98.4949,28.2034 96.3254,27.3356" stroke="#ff3000" stroke-width="2" /><polyline fill="none" points="24.2983,32.1085 21.261,28.6373 16.922,29.0712 11.2814,23.4305 10.8475,16.4881 8.678,13.8847 9.9797,14.7525 12.5831,8.678 16.4881,14.7525 18.2237,14.7525 21.261,10.4136 26.4678,16.922 29.0712,16.0542 29.5051,17.7898 26.4678,23.4305 22.1288,17.3559 19.0915,25.1661 11.2814,16.4881 12.5831,22.5627 14.7525,24.2983 16.4881,16.922 19.0915,16.0542 26.0339,29.939 25.6,21.261 25.6,26.0339 20.8271,13.4508 19.0915,12.5831 16.4881,13.8847 13.0169,9.1119 13.4508,13.8847 15.6203,16.922" stroke="#7f0000" stroke-width="2" /></svg>