<?xml version="1.0" encoding="utf-8" ?>
<svg baseProfile="tiny" height="128" version="1.2" viewBox="0,0,128,128" width="128" xmlns="http://www.w3.org/2000/svg" xmlns:ev="http://www.w3.org/2001/xml-events" xmlns:xlink="http://www.w3.org/1999/xlink"><defs /><polyline fill="none" points="43.102,45.2789 40.4898,37.4422 40.4898,31.7823 40.9252,28.7347 44.8435,25.6871 48.7619,26.5578 52.2449,30.4762 55.7279,43.5374 57.9048,31.7823 61.8231,26.5578 66.6122,25.2517 70.5306,27.4286 74.0136,36.5714 72.7075,42.2313 70.0952,47.4558 65.7415,49.6327 61.3878,49.1973 57.4694,42.6667" stroke="#00007f" stroke-width="2" /><polyline fill="none" points="44.8435,44.8435 50.5034,46.1497 54.8571,43.5374" stroke="#0010ff" stroke-width="2" /><polyline fill="none" points="49.1973,35.7007 49.1973,35.7007" stroke="#00a4ff" stroke-width="2" /><polyline fill="none" points="65.7415,35.7007 65.7415,35.7007" stroke="#3fffb7" stroke-width="2" /><polyline fill="none" points="54.4218,49.6327 51.3741,48.7619 56.1633,54.4218 56.5986,61.3878 50.9388,77.0612 51.8095,84.0272 67.0476,104.0544 66.6122,111.8912 60.517,115.3741 63.5646,117.551 69.6599,119.2925 82.2857,117.1156 84.4626,114.9388 82.7211,111.8912 78.3673,109.2789 78.3673,100.1361 76.6259,93.1701 67.9184,83.1565 64.4354,76.1905 63.1293,50.5034" stroke="#b7ff3f" stroke-width="2" /><polyline fill="none" points="33.0884,15.2381 26.5578,8.7075 20.898,9.1429 16.5442,10.8844 12.6259,14.8027 9.1429,23.9456 8.7075,37.8776 16.9796,65.7415 18.7211,79.6735 17.415,94.0408 11.7551,109.7143 18.2857,107.102 28.7347,95.7823 32.6531,86.6395 35.7007,70.0952 37.8776,67.0476" stroke="#ffb900" stroke-width="2" /><polyline fill="none" points="78.3673,21.7687 84.4626,14.3673 90.5578,10.8844 97.0884,10.0136 102.3129,11.3197 105.3605,14.3673 107.9728,26.1224 104.4898,66.6122 105.7959,105.7959 97.9592,102.7483 89.2517,94.9116 86.6395,88.8163 84.0272,74.8844 79.6735,66.1769" stroke="#ff3000" stroke-width="2" /><polyline fill="none" points="37.8776,69.2245 37.0068,80.1088 38.7483,87.9456 49.6327,92.7347 62.2585,94.0408" stroke="#7f0000" stroke-width="2" /></svg>