<?xml version="1.0" encoding="utf-8" ?>
<svg baseProfile="tiny" height="128" version="1.2" viewBox="0,0,128,128" width="128" xmlns="http://www.w3.org/2000/svg" xmlns:ev="http://www.w3.org/2001/xml-events" xmlns:xlink="http://www.w3.org/1999/xlink"><defs /><polyline fill="none" points="23.8644,10.4136 16.4881,20.3932 11.2814,38.6169 11.7153,48.5966 17.7898,59.4441 23.8644,61.1797 31.2407,52.5017 37.3153,25.6" stroke="#00007f" stroke-width="2" /><polyline fill="none" points="23.8644,10.8475 62.4814,8.678 71.5932,10.4136 75.9322,13.0169 79.8373,19.9593 84.6102,54.2373 82.8746,58.5763 77.6678,58.5763 72.461,52.5017 60.7458,25.1661" stroke="#7cff79" stroke-width="2" /><polyline fill="none" points="34.7119,46.861 43.8237,54.6712 46.861,61.6136 47.2949,80.2712 46.4271,82.8746 39.0508,89.8169 30.3729,90.6847 23.8644,84.6102 20.3932,75.9322 13.0169,74.6305 11.2814,75.4983 9.1119,79.8373 8.678,94.5898 12.5831,108.9085 10.8475,119.322 12.5831,108.4746 16.922,106.3051 17.7898,104.5695 17.7898,93.2881 21.261,89.8169 29.5051,89.3831 34.7119,99.7966 38.1831,102.8339" stroke="#7f0000" stroke-width="2" /></svg>