<?xml version="1.0" encoding="utf-8" ?>
<svg baseProfile="tiny" height="128" version="1.2" viewBox="0,0,128,128" width="128" xmlns="http://www.w3.org/2000/svg" xmlns:ev="http://www.w3.org/2001/xml-events" xmlns:xlink="http://www.w3.org/1999/xlink"><defs /><polyline fill="none" points="59.0102,22.1288 53.3695,22.9966 49.8983,26.4678 47.7288,34.278 49.8983,39.4847 53.3695,43.3898 58.5763,45.5593 65.9525,45.1254 71.5932,42.0881 74.1966,36.0136 72.0271,25.6 69.8576,22.5627 65.9525,20.8271 59.878,21.261" stroke="#00007f" stroke-width="2" /><polyline fill="none" points="68.9898,22.5627 70.2915,16.4881 78.1017,10.4136 83.7424,8.678 93.722,9.5458 100.2305,13.8847 110.6441,36.8814 113.2475,38.6169 119.322,38.6169 117.5864,45.9932 114.9831,49.8983 109.3424,53.8034 104.1356,54.6712 95.4576,52.5017 88.5153,49.4644 82.0068,41.2203 75.4983,36.4475" stroke="#00d4ff" stroke-width="2" /><polyline fill="none" points="52.5017,22.9966 50.7661,18.6576 47.2949,14.7525 36.0136,13.0169 27.7695,18.2237 18.6576,30.3729 8.678,32.1085 10.8475,39.9186 20.3932,47.2949 36.8814,43.8237 49.8983,35.5797" stroke="#ffe500" stroke-width="2" /><polyline fill="none" points="58.5763,35.5797 46.861,48.5966 45.9932,54.6712 46.861,60.7458" stroke="#7f0000" stroke-width="2" /></svg>