<?xml version="1.0" encoding="utf-8" ?>
<svg baseProfile="tiny" height="128" version="1.2" viewBox="0,0,128,128" width="128" xmlns="http://www.w3.org/2000/svg" xmlns:ev="http://www.w3.org/2001/xml-events" xmlns:xlink="http://www.w3.org/1999/xlink"><defs /><polyline fill="none" points="62.6939,26.5578 53.9864,26.5578 51.8095,28.2993 50.068,32.2177 50.9388,36.5714 53.9864,39.1837 60.0816,40.4898 64.0,39.1837 67.483,34.8299 67.483,30.9116 62.6939,23.0748" stroke="#00007f" stroke-width="2" /><polyline fill="none" points="65.3061,26.5578 77.4966,23.0748 98.3946,23.5102 114.9388,30.4762 118.8571,34.8299 118.8571,39.1837 114.9388,46.585 110.585,50.5034 97.5238,51.8095 73.1429,46.585 66.1769,43.102 63.1293,37.8776" stroke="#0010ff" stroke-width="2" /><polyline fill="none" points="67.9184,43.5374 67.483,49.6327 60.9524,69.6599 69.2245,72.2721 70.0952,71.8367 77.4966,46.585" stroke="#00a4ff" stroke-width="2" /><polyline fill="none" points="81.415,47.8912 77.932,65.3061 84.898,65.3061 84.898,56.5986 87.0748,51.8095" stroke="#3fffb7" stroke-width="2" /><polyline fill="none" points="100.1361,51.8095 100.5714,60.517 98.8299,76.1905 105.7959,73.5782 107.5374,52.2449" stroke="#b7ff3f" stroke-width="2" /><polyline fill="none" points="109.7143,50.068 113.6327,59.2109 115.8095,70.0952 116.6803,70.966 117.1156,70.5306 119.2925,54.4218 115.8095,50.068 111.0204,47.4558" stroke="#ffb900" stroke-width="2" /><polyline fill="none" points="50.9388,35.7007 39.619,50.068 32.2177,56.5986 26.1224,59.6463 16.9796,61.3878 13.4966,60.9524 8.7075,55.2925 10.0136,50.5034 12.1905,49.1973 20.898,51.8095 46.1497,35.7007 52.2449,34.3946" stroke="#ff3000" stroke-width="2" /><polyline fill="none" points="53.1156,25.6871 54.8571,17.8503 58.3401,11.7551 63.5646,8.7075 71.8367,8.7075 75.7551,11.7551 74.8844,16.1088 60.0816,22.6395 57.4694,26.9932" stroke="#7f0000" stroke-width="2" /></svg>