<?xml version="1.0" encoding="utf-8" ?>
<svg baseProfile="tiny" height="128" version="1.2" viewBox="0,0,128,128" width="128" xmlns="http://www.w3.org/2000/svg" xmlns:ev="http://www.w3.org/2001/xml-events" xmlns:xlink="http://www.w3.org/1999/xlink"><defs /><polyline fill="none" points="56.8407,13.0169 54.6712,13.0169 51.6339,16.0542 54.2373,22.5627 51.2,29.0712 51.2,32.9763 55.1051,35.5797" stroke="#00007f" stroke-width="2" /><polyline fill="none" points="57.7085,13.0169 65.0847,9.5458 73.7627,8.678 79.8373,10.8475 84.6102,16.922 85.9119,20.3932 85.9119,29.5051 80.2712,36.4475 74.6305,39.9186 68.122,41.2203 62.9153,40.3525 57.2746,32.5424 56.4068,20.3932 60.3119,13.4508 63.7831,10.8475" stroke="#0000cc" stroke-width="2" /><polyline fill="none" points="72.8949,29.5051 77.2339,34.7119 81.139,37.7492 86.7797,38.6169 94.1559,37.7492 98.4949,36.4475 106.3051,30.8068 111.078,26.0339 115.8508,17.3559 118.4542,16.922 119.322,22.9966 117.1525,27.3356 110.2102,35.1458 102.8339,39.4847 81.5729,39.9186 74.1966,36.4475 71.1593,29.939" stroke="#0008ff" stroke-width="2" /><polyline fill="none" points="115.8508,18.2237 115.8508,19.9593" stroke="#004cff" stroke-width="2" /><polyline fill="none" points="118.4542,18.2237 118.0203,19.5254" stroke="#0090ff" stroke-width="2" /><polyline fill="none" points="68.122,31.6746 71.5932,40.3525 74.6305,43.8237 78.1017,45.1254 85.9119,45.1254 94.1559,40.7864 85.9119,46.4271 76.8,47.2949 71.1593,43.8237 67.6881,34.278" stroke="#00d4ff" stroke-width="2" /><polyline fill="none" points="78.1017,26.4678 84.1763,30.8068 88.0814,31.6746 97.6271,28.2034 104.5695,19.5254 102.8339,23.8644 99.3627,28.2034 90.6847,32.5424 83.3085,31.6746 77.6678,25.6" stroke="#29ffcd" stroke-width="2" /><polyline fill="none" points="65.9525,13.8847 63.7831,15.6203 63.7831,19.5254 70.7254,22.9966 73.3288,20.8271 72.461,15.6203 68.5559,13.8847" stroke="#5fff96" stroke-width="2" /><polyline fill="none" points="83.3085,12.1492 77.2339,14.3186 76.3661,17.3559 78.1017,20.8271 82.4407,21.261 85.478,16.4881 84.1763,13.0169 79.8373,12.1492" stroke="#96ff5f" stroke-width="2" /><polyline fill="none" points="80.7051,11.2814 88.9492,11.7153 90.6847,20.8271 98.061,30.8068 93.2881,37.7492 89.3831,39.4847 83.3085,36.4475 83.3085,34.7119" stroke="#cdff29" stroke-width="2" /><polyline fill="none" points="59.0102,22.9966 28.6373,16.4881 19.9593,17.7898 8.678,36.0136 9.1119,42.9559 22.1288,59.4441 38.6169,66.3864 42.522,66.8203 49.4644,66.3864 66.3864,53.8034 71.5932,42.0881" stroke="#ffe500" stroke-width="2" /><polyline fill="none" points="61.6136,45.9932 61.1797,57.2746" stroke="#ffa600" stroke-width="2" /><polyline fill="none" points="50.7661,53.8034 52.5017,63.3492" stroke="#ff6700" stroke-width="2" /><polyline fill="none" points="34.278,55.1051 33.4102,63.7831" stroke="#ff2800" stroke-width="2" /><polyline fill="none" points="22.5627,49.0305 19.5254,59.4441" stroke="#cc0000" stroke-width="2" /><polyline fill="none" points="17.3559,20.8271 9.1119,15.6203 9.1119,20.8271 14.3186,27.7695" stroke="#7f0000" stroke-width="2" /></svg>