<?xml version="1.0" encoding="utf-8" ?>
<svg baseProfile="tiny" height="128" version="1.2" viewBox="0,0,128,128" width="128" xmlns="http://www.w3.org/2000/svg" xmlns:ev="http://www.w3.org/2001/xml-events" xmlns:xlink="http://www.w3.org/1999/xlink"><defs /><polyline fill="none" points="59.878,20.3932 62.0475,16.4881 68.9898,13.8847 72.8949,19.0915 76.3661,28.2034 80.2712,33.4102 91.9864,38.6169 104.5695,39.4847 109.3424,34.7119 111.5119,28.2034 113.2475,31.2407 109.3424,38.6169 100.2305,44.2576 83.3085,42.522 77.2339,38.1831 79.4034,41.2203 79.8373,47.7288 78.9695,53.8034 77.6678,55.1051 64.6508,55.1051 63.3492,45.1254 59.0102,52.9356 50.7661,52.5017 48.5966,43.3898 41.2203,44.2576 40.3525,52.0678 35.5797,52.5017 36.4475,41.2203 32.9763,52.5017 28.6373,60.7458 22.1288,55.9729 16.922,54.2373 17.7898,42.522 20.8271,39.0508 26.0339,36.4475 25.6,34.278 19.5254,32.5424 8.678,42.0881 12.5831,30.8068 35.1458,19.0915 59.0102,18.2237" stroke="#00007f" stroke-width="2" /><polyline fill="none" points="62.4814,28.2034 64.2169,22.5627 67.6881,24.7322 70.2915,29.939 59.4441,29.5051 60.7458,28.6373" stroke="#0028ff" stroke-width="2" /><polyline fill="none" points="70.7254,24.2983 72.461,23.8644" stroke="#00d4ff" stroke-width="2" /><polyline fill="none" points="119.322,26.0339 114.9831,20.3932 116.7186,10.8475" stroke="#7cff79" stroke-width="2" /><polyline fill="none" points="118.8881,21.261 116.2847,8.678" stroke="#ffe500" stroke-width="2" /><polyline fill="none" points="115.4169,21.261 108.4746,9.1119" stroke="#ff4600" stroke-width="2" /><polyline fill="none" points="109.3424,19.5254 108.0407,11.7153" stroke="#7f0000" stroke-width="2" /></svg>