<?xml version="1.0" encoding="utf-8" ?>
<svg baseProfile="tiny" height="128" version="1.2" viewBox="0,0,128,128" width="128" xmlns="http://www.w3.org/2000/svg" xmlns:ev="http://www.w3.org/2001/xml-events" xmlns:xlink="http://www.w3.org/1999/xlink"><defs /><polyline fill="none" points="44.4082,32.2177 43.5374,43.102 40.9252,52.6803 33.5238,65.3061 30.4762,68.7891 26.5578,69.6599 27.8639,70.966 36.5714,72.2721 44.8435,71.8367 57.034,34.8299" stroke="#00007f" stroke-width="2" /><polyline fill="none" points="33.9592,15.6735 36.5714,13.4966 43.9728,10.8844 61.8231,8.7075 66.6122,11.3197 70.966,16.5442 78.3673,39.619 79.2381,45.2789 71.8367,49.6327 57.4694,51.3741" stroke="#0000d5" stroke-width="2" /><polyline fill="none" points="36.1361,18.7211 34.3946,19.5918 33.0884,23.5102 31.7823,33.0884 38.3129,43.102 47.4558,49.6327 46.585,46.585" stroke="#001cff" stroke-width="2" /><polyline fill="none" points="39.1837,27.8639 42.2313,27.8639 40.4898,23.5102" stroke="#006cff" stroke-width="2" /><polyline fill="none" points="67.0476,28.7347 65.3061,26.9932" stroke="#00b8ff" stroke-width="2" /><polyline fill="none" points="32.2177,18.7211 13.0612,18.2857 10.449,22.2041 10.449,30.0408 14.8027,37.0068 21.7687,43.9728 28.2993,43.5374 34.3946,37.8776" stroke="#1cffda" stroke-width="2" /><polyline fill="none" points="83.5918,14.3673 92.2993,12.1905 97.5238,12.6259 100.1361,16.9796 100.5714,26.1224 93.6054,37.4422 86.2041,40.4898 79.2381,40.4898" stroke="#5cff9a" stroke-width="2" /><polyline fill="none" points="75.7551,20.0272 92.2993,18.2857" stroke="#9aff5c" stroke-width="2" /><polyline fill="none" points="56.1633,52.6803 73.1429,64.4354 82.7211,65.7415 112.3265,47.8912 116.6803,42.6667 119.2925,34.8299 119.2925,26.1224 106.2313,19.1565 89.2517,14.8027 66.1769,14.3673" stroke="#daff1c" stroke-width="2" /><polyline fill="none" points="67.9184,39.619 66.6122,45.2789 60.517,55.7279 46.585,68.7891 63.1293,63.1293 70.0952,57.9048 76.6259,45.7143 76.1905,42.2313 72.2721,40.4898" stroke="#ffcb00" stroke-width="2" /><polyline fill="none" points="37.4422,43.5374 23.5102,51.3741 8.7075,54.8571 35.7007,54.4218 42.2313,51.8095 48.3265,47.0204 53.9864,44.4082" stroke="#ff8500" stroke-width="2" /><polyline fill="none" points="93.6054,50.068 96.2177,74.8844 97.5238,79.6735 99.7007,81.415 107.5374,79.2381 110.1497,76.6259 111.0204,73.5782 111.0204,62.6939 107.5374,57.034 101.8776,51.3741" stroke="#ff3b00" stroke-width="2" /><polyline fill="none" points="85.3333,54.8571 83.5918,71.8367 90.5578,72.2721 95.7823,70.0952 98.3946,67.483 98.3946,63.1293" stroke="#d50000" stroke-width="2" /><polyline fill="none" points="61.3878,61.8231 61.3878,67.0476 64.8707,73.5782 67.483,75.3197" stroke="#7f0000" stroke-width="2" /></svg>