<?xml version="1.0" encoding="utf-8" ?>
<svg baseProfile="tiny" height="128" version="1.2" viewBox="0,0,128,128" width="128" xmlns="http://www.w3.org/2000/svg" xmlns:ev="http://www.w3.org/2001/xml-events" xmlns:xlink="http://www.w3.org/1999/xlink"><defs /><polyline fill="none" points="22.9966,65.0847 20.3932,85.478 19.0915,111.9458" stroke="#00007f" stroke-width="2" /><polyline fill="none" points="21.6949,119.322 31.2407,117.5864 32.9763,103.2678 30.8068,103.7017 29.939,93.2881 31.6746,70.2915" stroke="#004cff" stroke-width="2" /><polyline fill="none" points="48.5966,72.0271 47.2949,108.0407 48.5966,111.9458 57.7085,113.2475 74.6305,113.2475 75.0644,108.9085 72.0271,104.1356 56.4068,103.7017 61.6136,72.8949" stroke="#29ffcd" stroke-width="2" /><polyline fill="none" points="62.4814,75.4983 30.8068,74.1966 17.7898,66.3864 8.678,43.3898 9.1119,16.922 10.8475,11.2814 43.8237,9.1119 74.1966,8.678 76.3661,17.3559 76.3661,54.2373 73.3288,62.9153 62.9153,71.5932 50.7661,72.461" stroke="#cdff29" stroke-width="2" /><polyline fill="none" points="79.4034,10.4136 85.478,10.4136 98.061,21.6949 101.9661,32.5424 102.8339,47.2949 91.1186,59.0102 85.478,59.0102 72.461,51.2" stroke="#ff6700" stroke-width="2" /><polyline fill="none" points="92.4203,59.0102 79.8373,83.7424 78.1017,93.722 77.2339,111.5119 84.1763,113.6814 100.2305,113.2475" stroke="#7f0000" stroke-width="2" /></svg>