<?xml version="1.0" encoding="utf-8" ?>
<svg baseProfile="tiny" height="128" version="1.2" viewBox="0,0,128,128" width="128" xmlns="http://www.w3.org/2000/svg" xmlns:ev="http://www.w3.org/2001/xml-events" xmlns:xlink="http://www.w3.org/1999/xlink"><defs /><polyline fill="none" points="33.4102,32.9763 27.3356,37.3153 22.9966,37.7492 21.6949,36.4475 22.9966,34.278 29.939,31.2407 34.7119,26.4678 43.3898,26.9017" stroke="#00007f" stroke-width="2" /><polyline fill="none" points="35.1458,33.4102 39.0508,33.4102 42.9559,27.7695" stroke="#0000f1" stroke-width="2" /><polyline fill="none" points="46.4271,22.5627 42.0881,26.4678 42.522,32.9763 45.9932,36.0136 52.5017,34.7119 57.2746,30.8068 57.7085,23.4305 52.9356,19.5254 45.9932,21.6949 44.6915,22.9966" stroke="#004cff" stroke-width="2" /><polyline fill="none" points="49.8983,22.9966 49.8983,11.2814 54.2373,8.678 58.5763,8.678 65.9525,16.0542 66.8203,19.5254 65.5186,23.4305 57.7085,28.2034" stroke="#00b0ff" stroke-width="2" /><polyline fill="none" points="49.8983,33.4102 46.861,35.5797 52.5017,32.9763 72.0271,34.7119 80.2712,31.6746 99.3627,32.5424 107.1729,34.278 112.3797,37.7492 113.2475,41.6542 111.9458,45.5593 96.7593,54.2373 82.0068,52.9356 70.2915,54.6712 62.0475,54.6712 46.861,44.6915 44.2576,38.6169 44.6915,32.1085" stroke="#29ffcd" stroke-width="2" /><polyline fill="none" points="48.1627,44.2576 46.861,52.5017 50.7661,68.122 57.7085,69.8576 60.3119,67.6881 61.1797,61.6136 58.1424,52.9356 59.878,52.0678" stroke="#7cff79" stroke-width="2" /><polyline fill="none" points="72.0271,61.1797 69.4237,59.878" stroke="#cdff29" stroke-width="2" /><polyline fill="none" points="68.9898,58.1424 65.5186,53.8034 67.6881,70.2915 72.461,71.5932 77.2339,69.4237 80.7051,64.2169 78.1017,51.6339" stroke="#ffc400" stroke-width="2" /><polyline fill="none" points="99.3627,51.6339 98.4949,55.9729 103.7017,68.5559 105.4373,69.4237 109.7763,66.3864 110.2102,62.0475 107.1729,55.1051 103.2678,50.7661" stroke="#ff6700" stroke-width="2" /><polyline fill="none" points="108.9085,45.5593 110.2102,52.9356 116.7186,64.6508 119.322,57.7085 118.0203,52.0678 108.9085,42.522" stroke="#f10700" stroke-width="2" /><polyline fill="none" points="38.6169,26.9017 32.5424,29.5051 28.6373,33.8441 22.5627,36.4475 14.7525,43.8237 8.678,45.1254 9.5458,49.8983 12.1492,53.3695 15.6203,55.1051 19.9593,54.2373" stroke="#7f0000" stroke-width="2" /></svg>