<?xml version="1.0" encoding="utf-8" ?>
<svg baseProfile="tiny" height="128" version="1.2" viewBox="0,0,128,128" width="128" xmlns="http://www.w3.org/2000/svg" xmlns:ev="http://www.w3.org/2001/xml-events" xmlns:xlink="http://www.w3.org/1999/xlink"><defs /><polyline fill="none" points="82.8746,15.1864 79.8373,9.1119 71.5932,8.678 68.122,11.7153 66.3864,16.922 66.8203,21.261 69.8576,26.9017 69.8576,29.939 66.8203,35.1458 67.6881,39.9186 78.1017,42.9559 81.5729,35.5797" stroke="#00007f" stroke-width="2" /><polyline fill="none" points="83.7424,16.0542 85.478,14.3186 90.6847,14.7525 95.0237,17.7898 97.1932,21.6949 96.3254,27.7695 113.2475,42.522 119.322,52.5017 115.4169,55.9729 113.2475,51.2 104.1356,41.2203 94.5898,35.5797 91.9864,35.1458 90.2508,39.0508 86.7797,40.7864 84.1763,41.2203 81.139,38.6169" stroke="#00d4ff" stroke-width="2" /><polyline fill="none" points="65.5186,16.4881 47.7288,12.1492 23.8644,13.0169 14.7525,21.261 10.8475,27.3356 8.678,35.5797 8.678,42.522 11.7153,61.6136 23.8644,64.2169 26.9017,63.3492 27.3356,43.8237" stroke="#ffe500" stroke-width="2" /><polyline fill="none" points="28.2034,60.7458 28.2034,62.9153 34.7119,62.0475 36.4475,60.3119" stroke="#7f0000" stroke-width="2" /></svg>