<?xml version="1.0" encoding="utf-8" ?>
<svg baseProfile="tiny" height="128" version="1.2" viewBox="0,0,128,128" width="128" xmlns="http://www.w3.org/2000/svg" xmlns:ev="http://www.w3.org/2001/xml-events" xmlns:xlink="http://www.w3.org/1999/xlink"><defs /><polyline fill="none" points="9.1429,47.8912 8.7075,43.5374 11.3197,36.5714 22.2041,24.381 36.5714,15.2381 49.6327,10.449 55.7279,10.449 60.9524,12.6259 73.5782,32.6531 82.7211,37.8776 97.9592,37.0068 106.2313,33.9592 110.585,30.0408" stroke="#00007f" stroke-width="2" /><polyline fill="none" points="10.8844,53.1156 21.3333,33.9592 30.0408,23.9456 35.7007,19.1565 46.585,13.932 55.2925,14.3673 63.1293,18.2857 74.0136,28.2993 83.5918,40.0544 91.4286,45.2789 101.4422,45.2789 107.102,43.5374 112.3265,38.3129" stroke="#0080ff" stroke-width="2" /><polyline fill="none" points="20.898,55.2925 22.6395,50.9388" stroke="#7cff79" stroke-width="2" /><polyline fill="none" points="26.1224,43.102 30.4762,36.5714 43.5374,24.381 53.1156,18.7211 61.3878,16.5442 68.3537,16.5442 73.1429,18.7211 88.381,37.0068 98.3946,42.6667 102.7483,42.6667 107.9728,40.4898 113.6327,36.1361 119.2925,28.2993" stroke="#ff9400" stroke-width="2" /><polyline fill="none" points="22.6395,45.7143 23.0748,31.7823 28.2993,20.898 34.8299,13.932 44.4082,9.1429 52.2449,8.7075 58.3401,11.7551 70.5306,27.8639 78.8027,33.5238 90.5578,34.3946 101.4422,33.0884 110.1497,29.1701" stroke="#7f0000" stroke-width="2" /></svg>