<?xml version="1.0" encoding="utf-8" ?>
<svg baseProfile="tiny" height="128" version="1.2" viewBox="0,0,128,128" width="128" xmlns="http://www.w3.org/2000/svg" xmlns:ev="http://www.w3.org/2001/xml-events" xmlns:xlink="http://www.w3.org/1999/xlink"><defs /><polyline fill="none" points="36.4475,42.9559 37.7492,36.0136 41.2203,29.0712 47.7288,23.8644 54.6712,23.4305 63.3492,29.0712 68.5559,42.0881 80.7051,43.8237 98.061,35.5797 108.0407,12.5831 110.6441,9.9797 114.5492,8.678 118.4542,10.8475 119.322,12.5831 118.4542,16.4881 111.5119,24.2983 105.8712,37.7492 101.5322,43.8237 89.3831,54.2373 78.9695,59.878 75.0644,63.7831 72.8949,68.122 72.461,80.2712 70.2915,85.478 67.6881,86.7797 65.9525,84.6102 63.7831,72.0271 61.1797,68.5559 55.539,71.5932 53.3695,80.7051 50.3322,82.8746 47.2949,81.5729 44.6915,78.1017 45.1254,71.5932 39.4847,68.122 37.3153,68.122 36.0136,70.2915 37.3153,81.139 36.0136,82.4407 29.939,81.5729 27.3356,72.8949 25.6,71.1593 21.261,71.5932 18.6576,77.6678 14.3186,79.8373 10.8475,78.5356 8.678,73.3288 8.678,65.5186 11.2814,59.878 32.9763,34.7119 39.4847,24.2983 46.861,20.3932 59.4441,18.2237" stroke="#00007f" stroke-width="2" /><polyline fill="none" points="62.0475,27.7695 57.7085,31.6746 58.1424,34.7119 59.878,35.5797 61.6136,33.8441 61.6136,29.0712 59.4441,28.6373 58.1424,30.8068 58.1424,33.8441 60.7458,34.7119 62.9153,30.8068 62.9153,26.4678 60.7458,24.7322 58.5763,27.3356 58.1424,32.5424 58.5763,33.4102 59.4441,32.9763 60.3119,26.9017 58.5763,31.6746 60.7458,32.9763" stroke="#7f0000" stroke-width="2" /></svg>