<?xml version="1.0" encoding="utf-8" ?>
<svg baseProfile="tiny" height="128" version="1.2" viewBox="0,0,128,128" width="128" xmlns="http://www.w3.org/2000/svg" xmlns:ev="http://www.w3.org/2001/xml-events" xmlns:xlink="http://www.w3.org/1999/xlink"><defs /><polyline fill="none" points="48.5966,29.939 44.6915,29.0712 42.9559,32.9763 41.6542,50.3322 44.2576,52.9356 55.539,55.539 59.4441,54.2373 59.4441,49.4644 52.5017,45.1254 51.6339,43.3898 53.8034,30.8068 55.539,29.5051 68.122,33.8441 69.4237,39.0508 67.2542,44.6915 67.2542,52.5017 70.2915,55.1051 77.2339,56.4068 79.8373,53.8034 80.7051,50.7661 74.6305,42.522 74.1966,36.0136 77.6678,29.939 86.7797,33.4102 89.3831,36.0136 89.8169,40.3525 86.7797,51.2 86.7797,56.4068 94.5898,55.9729 97.1932,54.2373 97.1932,33.4102 99.7966,32.5424 104.1356,34.7119 105.4373,36.4475 105.4373,52.0678 109.7763,55.539 112.3797,55.539 114.9831,39.9186 118.4542,31.2407 119.322,23.4305 118.4542,10.4136 114.1153,8.678 111.078,8.678 107.6068,15.1864 105.4373,15.6203 96.7593,10.4136 91.9864,12.1492 90.6847,16.4881 92.4203,19.0915 104.5695,27.3356 101.0983,29.0712 93.722,28.6373 81.5729,25.1661 70.7254,20.3932 59.0102,12.5831 40.3525,16.4881 34.278,21.6949 29.939,33.4102 25.1661,39.4847 17.3559,44.2576 8.678,46.4271 25.6,51.2 33.8441,51.6339 38.1831,46.4271 38.1831,39.4847" stroke="#00007f" stroke-width="2" /></svg>