<?xml version="1.0" encoding="utf-8" ?>
<svg baseProfile="tiny" height="128" version="1.2" viewBox="0,0,128,128" width="128" xmlns="http://www.w3.org/2000/svg" xmlns:ev="http://www.w3.org/2001/xml-events" xmlns:xlink="http://www.w3.org/1999/xlink"><defs /><polyline fill="none" points="64.2169,16.922 47.2949,11.7153 36.4475,10.8475 14.3186,19.9593 10.4136,22.9966 9.1119,27.3356 9.9797,49.4644 8.678,60.7458 9.9797,61.6136 15.6203,63.3492 17.3559,62.4814 19.0915,48.1627 20.8271,45.1254 27.3356,42.522 36.4475,42.0881 45.5593,44.6915 54.6712,45.1254 57.7085,52.5017 58.1424,67.2542 62.0475,65.0847 66.3864,65.0847 68.5559,60.7458 66.8203,41.6542 80.7051,38.1831 88.9492,30.8068 86.3458,29.5051" stroke="#00007f" stroke-width="2" /><polyline fill="none" points="63.3492,16.922 73.3288,15.1864 85.9119,8.678 88.9492,9.1119 93.722,11.7153 96.7593,18.2237 96.7593,29.0712 94.1559,33.4102 87.2136,37.3153 81.139,37.7492" stroke="#7cff79" stroke-width="2" /><polyline fill="none" points="92.8542,21.6949 98.061,23.8644 110.6441,49.0305 118.4542,52.5017 119.322,59.4441 116.7186,61.1797 111.5119,60.7458 100.6644,52.9356 94.1559,41.2203 92.8542,32.9763" stroke="#7f0000" stroke-width="2" /></svg>