<?xml version="1.0" encoding="utf-8" ?>
<svg baseProfile="tiny" height="128" version="1.2" viewBox="0,0,128,128" width="128" xmlns="http://www.w3.org/2000/svg" xmlns:ev="http://www.w3.org/2001/xml-events" xmlns:xlink="http://www.w3.org/1999/xlink"><defs /><polyline fill="none" points="95.0237,75.4983 92.8542,55.1051 85.9119,36.8814 73.3288,28.2034 62.4814,24.7322 49.0305,26.9017 43.3898,29.939 39.4847,34.278 29.5051,62.0475 29.5051,75.0644 33.8441,78.1017 46.4271,74.6305 47.2949,62.4814 49.8983,52.9356 54.2373,45.1254 59.0102,43.3898 63.3492,44.2576 68.5559,50.7661 78.9695,55.9729 80.2712,60.7458 79.8373,72.0271 84.6102,73.7627 93.2881,72.8949" stroke="#00007f" stroke-width="2" /><polyline fill="none" points="80.2712,31.2407 88.5153,20.8271 107.6068,15.6203 113.6814,18.6576 118.4542,25.1661 119.322,36.4475 114.5492,49.4644 99.3627,55.9729 98.9288,63.7831 92.4203,61.1797 78.9695,59.4441 78.1017,58.5763" stroke="#7cff79" stroke-width="2" /><polyline fill="none" points="42.9559,28.2034 34.278,16.0542 26.9017,10.8475 19.9593,8.678 15.1864,8.678 13.4508,10.4136 11.7153,26.4678 9.1119,31.6746 8.678,44.2576 12.5831,52.0678 17.3559,56.4068 31.2407,58.5763 30.3729,56.4068" stroke="#7f0000" stroke-width="2" /></svg>