<?xml version="1.0" encoding="utf-8" ?>
<svg baseProfile="tiny" height="128" version="1.2" viewBox="0,0,128,128" width="128" xmlns="http://www.w3.org/2000/svg" xmlns:ev="http://www.w3.org/2001/xml-events" xmlns:xlink="http://www.w3.org/1999/xlink"><defs /><polyline fill="none" points="34.278,73.3288 33.4102,86.3458 27.7695,108.9085 28.2034,115.8508 51.2,114.1153 50.3322,93.722 48.1627,78.9695" stroke="#00007f" stroke-width="2" /><polyline fill="none" points="57.7085,79.4034 58.1424,105.4373 59.4441,108.4746 62.9153,109.7763 74.6305,109.3424 75.0644,96.7593 73.3288,81.139" stroke="#0080ff" stroke-width="2" /><polyline fill="none" points="103.7017,82.8746 102.4,98.061 103.2678,106.3051 106.739,111.5119 115.8508,113.2475 118.0203,101.5322 114.5492,83.3085 113.2475,81.5729 108.9085,81.5729" stroke="#7cff79" stroke-width="2" /><polyline fill="none" points="93.722,86.3458 91.9864,109.7763 101.0983,111.5119 101.0983,100.2305 98.4949,85.0441" stroke="#ff9400" stroke-width="2" /><polyline fill="none" points="117.5864,80.2712 82.8746,83.7424 57.7085,77.6678 42.0881,75.9322 34.278,72.8949 22.1288,61.1797 12.5831,71.1593 9.9797,72.461 9.1119,71.5932 8.678,66.8203 9.9797,64.2169 18.6576,57.2746 19.9593,43.8237 29.939,29.5051 42.522,19.5254 50.7661,15.1864 68.122,9.5458 83.3085,8.678 92.4203,10.8475 97.1932,13.8847 105.8712,26.0339 111.9458,29.939 117.1525,29.0712 119.322,19.5254 115.8508,19.9593 109.3424,26.9017 103.2678,34.7119 99.3627,42.9559 98.061,49.8983 98.9288,54.6712 101.9661,57.2746 108.9085,57.2746" stroke="#7f0000" stroke-width="2" /></svg>