<?xml version="1.0" encoding="utf-8" ?>
<svg baseProfile="tiny" height="128" version="1.2" viewBox="0,0,128,128" width="128" xmlns="http://www.w3.org/2000/svg" xmlns:ev="http://www.w3.org/2001/xml-events" xmlns:xlink="http://www.w3.org/1999/xlink"><defs /><polyline fill="none" points="64.2169,26.9017 60.7458,23.8644 53.8034,22.9966 43.8237,26.0339 39.0508,31.2407 37.3153,41.6542 43.3898,56.8407 44.6915,73.3288 40.3525,84.1763 37.7492,87.2136 36.0136,86.7797 36.4475,88.9492 41.6542,92.8542 42.0881,88.5153 46.861,84.1763 50.7661,77.6678 52.5017,65.9525 51.2,50.7661" stroke="#00007f" stroke-width="2" /><polyline fill="none" points="40.3525,19.0915 35.5797,13.0169 26.9017,8.678 18.2237,8.678 11.2814,14.3186 8.678,23.4305 9.1119,33.8441 13.0169,42.0881 21.6949,49.0305" stroke="#0080ff" stroke-width="2" /><polyline fill="none" points="58.1424,19.9593 57.7085,16.922 58.5763,14.7525 66.8203,9.9797 76.8,9.9797 84.6102,15.1864 89.3831,24.7322 90.6847,37.3153 88.5153,44.2576 83.3085,51.2" stroke="#7cff79" stroke-width="2" /><polyline fill="none" points="90.6847,41.2203 100.2305,39.9186 108.4746,43.8237 113.6814,48.5966 119.322,59.4441" stroke="#ff9400" stroke-width="2" /><polyline fill="none" points="61.1797,67.2542 60.7458,74.1966 58.1424,87.6475 62.0475,88.9492 70.2915,88.9492" stroke="#7f0000" stroke-width="2" /></svg>