<?xml version="1.0" encoding="utf-8" ?>
<svg baseProfile="tiny" height="128" version="1.2" viewBox="0,0,128,128" width="128" xmlns="http://www.w3.org/2000/svg" xmlns:ev="http://www.w3.org/2001/xml-events" xmlns:xlink="http://www.w3.org/1999/xlink"><defs /><polyline fill="none" points="59.4441,13.4508 62.0475,10.4136 66.8203,9.1119 75.0644,9.1119 79.8373,11.2814 84.6102,15.6203 92.4203,32.1085 102.8339,36.0136 113.2475,35.5797 111.9458,42.0881 112.3797,46.4271 117.1525,43.3898 118.8881,39.9186 118.0203,35.5797 114.5492,32.9763" stroke="#00007f" stroke-width="2" /><polyline fill="none" points="114.9831,38.1831 116.7186,39.0508" stroke="#0000e8" stroke-width="2" /><polyline fill="none" points="113.6814,42.522 116.2847,42.9559" stroke="#0038ff" stroke-width="2" /><polyline fill="none" points="60.3119,12.5831 63.7831,13.4508 68.9898,17.7898 73.7627,27.7695 79.4034,32.9763 119.322,44.2576" stroke="#0094ff" stroke-width="2" /><polyline fill="none" points="63.7831,9.5458 53.3695,9.9797 48.1627,13.0169 44.6915,17.7898 44.6915,25.6 46.861,29.0712 52.9356,33.4102 63.3492,33.8441 68.122,31.2407 71.5932,26.0339 72.0271,17.7898 70.2915,13.0169 65.5186,8.678 61.6136,8.678" stroke="#0cf4ea" stroke-width="2" /><polyline fill="none" points="62.0475,9.5458 55.9729,9.1119 48.5966,11.2814 41.2203,14.7525 36.4475,18.6576 34.7119,22.5627 34.7119,29.5051 37.3153,35.5797 39.4847,36.4475 41.6542,34.7119 46.4271,27.7695" stroke="#56ffa0" stroke-width="2" /><polyline fill="none" points="67.6881,9.9797 69.8576,16.4881 69.8576,34.7119 72.461,39.4847 76.3661,40.3525 80.2712,33.8441 80.2712,22.9966 75.0644,15.6203" stroke="#a0ff56" stroke-width="2" /><polyline fill="none" points="66.3864,17.7898 64.6508,19.5254 64.2169,22.1288 66.3864,24.2983 68.122,23.4305 67.6881,16.922 67.2542,22.5627 68.5559,21.6949 68.5559,19.0915 65.9525,18.2237 64.2169,23.4305 65.9525,23.4305 67.2542,21.6949 67.6881,18.6576 66.3864,18.2237 65.5186,19.9593 66.3864,20.3932 65.0847,19.0915 64.2169,22.1288" stroke="#eaff0c" stroke-width="2" /><polyline fill="none" points="63.3492,19.5254 67.6881,21.261 68.5559,19.9593 66.8203,19.5254" stroke="#ffaa00" stroke-width="2" /><polyline fill="none" points="61.1797,33.4102 25.1661,36.0136 16.922,38.1831 12.5831,40.3525 9.5458,45.1254 8.678,49.4644 9.5458,52.5017 14.3186,55.539 30.3729,58.1424 38.6169,58.1424 57.2746,52.9356 65.9525,45.9932 70.2915,37.7492 68.9898,33.8441 65.5186,30.3729 58.5763,29.0712" stroke="#ff5500" stroke-width="2" /><polyline fill="none" points="29.939,55.539 30.3729,71.1593 32.5424,75.4983 36.8814,75.0644 38.6169,72.0271 39.0508,65.5186 36.4475,59.0102" stroke="#e80000" stroke-width="2" /><polyline fill="none" points="52.5017,54.2373 48.5966,73.7627 52.0678,76.3661 55.539,75.9322 57.2746,70.2915 57.2746,62.4814 54.2373,52.0678" stroke="#7f0000" stroke-width="2" /></svg>