<?xml version="1.0" encoding="utf-8" ?>
<svg baseProfile="tiny" height="128" version="1.2" viewBox="0,0,128,128" width="128" xmlns="http://www.w3.org/2000/svg" xmlns:ev="http://www.w3.org/2001/xml-events" xmlns:xlink="http://www.w3.org/1999/xlink"><defs /><polyline fill="none" points="48.3265,85.7687 32.2177,74.8844 28.2993,67.483 28.2993,58.7755 30.9116,47.8912 34.3946,40.9252 39.1837,37.8776 56.5986,30.9116 72.2721,30.9116 91.8639,34.8299 100.5714,40.0544 103.619,45.7143 103.619,53.1156 99.7007,67.0476 88.381,82.7211 79.6735,86.6395 68.7891,87.9456 67.0476,94.4762 67.483,113.6327 63.1293,114.9388 53.9864,114.068 52.6803,112.3265 50.9388,102.3129 53.1156,89.6871 50.5034,84.898" stroke="#00007f" stroke-width="2" /><polyline fill="none" points="18.2857,94.0408 8.7075,53.9864 10.449,34.3946 15.2381,22.2041 18.7211,16.9796 25.6871,11.3197 33.5238,8.7075 39.1837,8.7075 43.9728,10.8844 47.0204,17.415 47.8912,23.5102 46.585,31.7823" stroke="#0000fe" stroke-width="2" /><polyline fill="none" points="16.9796,90.1224 24.8163,85.7687 31.3469,79.6735" stroke="#0060ff" stroke-width="2" /><polyline fill="none" points="89.6871,30.0408 99.2653,17.8503 107.5374,12.1905 114.9388,14.3673 117.1156,17.415 118.8571,23.9456 119.2925,67.0476 114.068,86.2041 112.3265,90.1224 107.5374,94.0408 101.0068,92.2993 97.5238,83.1565 97.9592,70.5306" stroke="#00d4ff" stroke-width="2" /><polyline fill="none" points="48.7619,57.4694 50.9388,52.6803 53.9864,50.9388 56.5986,52.6803 56.5986,56.5986 54.8571,57.034 56.5986,54.8571 57.9048,56.5986 56.5986,58.3401 53.551,57.4694 53.1156,54.8571 54.8571,53.551 56.5986,54.4218 54.4218,57.9048 52.6803,56.5986 51.8095,53.551 53.1156,51.3741 54.8571,51.8095 55.7279,55.2925 55.2925,57.9048 53.1156,59.2109 51.3741,57.034 51.3741,53.1156 56.1633,50.9388 57.9048,53.1156 57.034,55.7279 54.4218,57.034" stroke="#4cffaa" stroke-width="2" /><polyline fill="none" points="77.0612,57.4694 77.0612,53.1156 80.1088,49.6327 84.0272,50.5034 84.0272,52.6803 79.2381,55.7279 79.2381,52.2449 81.415,51.3741 84.0272,53.551 83.1565,55.2925 79.2381,57.9048 80.1088,52.6803 85.7687,49.6327 84.4626,53.9864 81.8503,55.2925 80.9796,53.9864 83.1565,53.9864" stroke="#aaff4c" stroke-width="2" /><polyline fill="none" points="57.9048,113.6327 57.9048,113.1973" stroke="#ffe500" stroke-width="2" /><polyline fill="none" points="57.9048,111.4558 57.034,112.3265" stroke="#ff7a00" stroke-width="2" /><polyline fill="none" points="63.1293,113.6327 65.3061,112.3265 65.3061,113.6327" stroke="#fe1200" stroke-width="2" /><polyline fill="none" points="100.5714,93.6054 100.5714,90.5578" stroke="#7f0000" stroke-width="2" /></svg>