<?xml version="1.0" encoding="utf-8" ?>
<svg baseProfile="tiny" height="128" version="1.2" viewBox="0,0,128,128" width="128" xmlns="http://www.w3.org/2000/svg" xmlns:ev="http://www.w3.org/2001/xml-events" xmlns:xlink="http://www.w3.org/1999/xlink"><defs /><polyline fill="none" points="32.9763,15.6203 32.9763,13.0169 36.4475,9.9797 47.2949,8.678 50.3322,9.9797 53.3695,15.6203 52.5017,26.4678 61.1797,21.6949 72.461,18.2237 82.4407,16.0542 96.3254,16.0542 108.4746,19.9593 117.5864,26.9017 119.322,35.1458 118.0203,65.9525 116.2847,68.9898 113.2475,69.8576 107.1729,69.4237 103.7017,49.0305 102.8339,47.2949 99.7966,46.4271 89.3831,48.5966 88.5153,65.0847 87.2136,66.8203 84.1763,68.122 75.9322,67.2542 74.1966,64.2169 74.6305,49.8983 73.3288,45.5593 68.9898,44.2576 56.8407,44.2576 48.1627,37.7492 44.6915,32.5424" stroke="#00007f" stroke-width="2" /><polyline fill="none" points="33.8441,15.1864 34.7119,23.4305 29.0712,24.2983 25.1661,27.7695 13.8847,41.2203 8.678,50.7661 21.261,48.1627 26.4678,37.3153 36.4475,29.939 48.1627,32.9763 48.5966,36.0136" stroke="#7f0000" stroke-width="2" /></svg>