<?xml version="1.0" encoding="utf-8" ?>
<svg baseProfile="tiny" height="128" version="1.2" viewBox="0,0,128,128" width="128" xmlns="http://www.w3.org/2000/svg" xmlns:ev="http://www.w3.org/2001/xml-events" xmlns:xlink="http://www.w3.org/1999/xlink"><defs /><polyline fill="none" points="33.0884,36.1361 23.0748,32.6531 20.4626,19.5918 16.1088,8.7075 12.6259,8.7075 8.7075,11.3197 14.8027,36.5714 22.2041,39.619 30.4762,40.4898" stroke="#00007f" stroke-width="2" /><polyline fill="none" points="33.5238,36.1361 32.6531,25.2517 34.3946,18.7211 38.7483,16.5442 44.8435,15.6735 49.6327,16.9796 52.6803,19.5918 57.4694,39.1837 68.3537,41.7959 79.2381,41.7959 84.0272,40.4898" stroke="#7cff79" stroke-width="2" /><polyline fill="none" points="30.0408,39.619 31.7823,46.1497 36.1361,50.9388 38.7483,56.5986 40.9252,67.483 55.7279,60.517 52.2449,51.3741 51.8095,44.4082 59.6463,49.1973 67.9184,51.3741 93.6054,55.2925 94.0408,58.3401 90.9932,72.7075 96.6531,71.4014 119.2925,70.5306 113.1973,58.7755 111.4558,41.7959 108.4082,35.2653 106.6667,34.8299 97.5238,39.619 88.381,42.6667" stroke="#7f0000" stroke-width="2" /></svg>