<?xml version="1.0" encoding="utf-8" ?>
<svg baseProfile="tiny" height="128" version="1.2" viewBox="0,0,128,128" width="128" xmlns="http://www.w3.org/2000/svg" xmlns:ev="http://www.w3.org/2001/xml-events" xmlns:xlink="http://www.w3.org/1999/xlink"><defs /><polyline fill="none" points="30.3729,17.3559 22.9966,19.0915 12.5831,24.2983 8.678,28.2034 9.1119,42.0881 13.4508,55.539 21.261,69.4237 25.1661,74.1966 26.9017,74.1966 29.939,68.122 29.939,64.2169 25.1661,54.2373 26.0339,49.0305 29.5051,46.4271 34.7119,46.4271 36.4475,51.2 36.4475,68.122 40.3525,70.2915 41.6542,64.6508 41.6542,47.7288 47.2949,44.6915 68.122,47.2949 68.5559,69.8576 72.461,72.461 75.4983,68.5559 75.4983,53.8034 72.0271,46.4271 73.7627,44.2576 77.6678,48.5966 81.139,63.3492 84.1763,68.9898 85.9119,64.6508 85.9119,55.539 82.4407,46.861 82.0068,34.7119 87.2136,29.0712 96.7593,27.3356 106.3051,33.4102 109.3424,39.0508 115.4169,59.878 114.9831,75.9322 118.0203,75.9322 119.322,72.8949 119.322,58.1424 111.5119,27.7695 105.4373,21.261 98.061,17.3559 91.9864,9.5458 85.0441,8.678 81.5729,9.9797 64.2169,10.4136 41.6542,17.3559 30.3729,19.5254 28.6373,18.2237" stroke="#00007f" stroke-width="2" /><polyline fill="none" points="88.5153,15.1864 89.8169,17.7898 91.5525,16.0542 91.5525,13.0169 89.3831,12.5831" stroke="#7f0000" stroke-width="2" /></svg>