<?xml version="1.0" encoding="utf-8" ?>
<svg baseProfile="tiny" height="128" version="1.2" viewBox="0,0,128,128" width="128" xmlns="http://www.w3.org/2000/svg" xmlns:ev="http://www.w3.org/2001/xml-events" xmlns:xlink="http://www.w3.org/1999/xlink"><defs /><polyline fill="none" points="65.5186,12.5831 72.8949,14.3186 77.2339,16.4881 88.0814,26.9017 91.5525,34.278 94.1559,46.861 93.722,59.0102 90.2508,64.2169 78.9695,69.4237 68.122,69.4237 60.7458,66.3864 55.1051,61.1797 51.6339,54.2373 52.0678,41.2203 55.1051,35.1458" stroke="#00007f" stroke-width="2" /><polyline fill="none" points="68.9898,11.2814 50.7661,8.678 42.0881,10.4136 36.8814,13.0169 32.1085,10.4136 24.2983,12.1492 18.6576,15.6203 11.2814,27.7695 8.678,36.4475 9.5458,44.2576" stroke="#00d4ff" stroke-width="2" /><polyline fill="none" points="32.5424,34.278 29.0712,37.3153 25.6,49.0305 27.7695,67.6881 26.4678,91.1186 21.6949,103.7017 16.4881,110.6441 11.2814,113.6814 10.8475,114.9831 16.4881,119.322 18.2237,118.4542 35.5797,95.0237 37.3153,89.8169 38.6169,75.4983 38.1831,55.539 39.4847,49.8983 42.0881,46.861" stroke="#ffe500" stroke-width="2" /><polyline fill="none" points="39.4847,61.1797 45.1254,60.7458 44.6915,67.2542 45.9932,68.122 51.6339,65.5186" stroke="#7f0000" stroke-width="2" /></svg>