<?xml version="1.0" encoding="utf-8" ?>
<svg baseProfile="tiny" height="128" version="1.2" viewBox="0,0,128,128" width="128" xmlns="http://www.w3.org/2000/svg" xmlns:ev="http://www.w3.org/2001/xml-events" xmlns:xlink="http://www.w3.org/1999/xlink"><defs /><polyline fill="none" points="8.678,17.7898 12.5831,14.3186 30.8068,8.678 43.8237,8.678 49.0305,12.5831 59.878,29.939 64.2169,33.8441 75.4983,36.0136 94.5898,36.4475 103.2678,42.9559 113.6814,58.5763 119.322,78.5356 119.322,98.061 114.9831,108.9085 110.6441,109.7763 98.4949,109.3424 92.8542,84.1763 79.4034,84.6102 78.5356,90.2508 82.0068,107.1729 82.0068,111.5119 80.2712,112.3797 62.0475,111.078 59.878,103.2678 59.4441,86.7797 56.8407,85.9119 46.4271,85.9119 45.9932,107.1729 44.2576,110.2102 40.3525,111.078 26.9017,110.2102 25.6,108.4746 24.7322,104.1356 25.1661,86.3458" stroke="#00007f" stroke-width="2" /></svg>