<?xml version="1.0" encoding="utf-8" ?>
<svg baseProfile="tiny" height="128" version="1.2" viewBox="0,0,128,128" width="128" xmlns="http://www.w3.org/2000/svg" xmlns:ev="http://www.w3.org/2001/xml-events" xmlns:xlink="http://www.w3.org/1999/xlink"><defs /><polyline fill="none" points="76.3661,28.2034 78.5356,22.9966 83.7424,17.3559 97.6271,10.8475 108.4746,13.8847 114.9831,19.9593 118.4542,28.2034 119.322,41.6542 117.1525,51.2 110.2102,61.1797 104.5695,64.2169 95.0237,62.0475 85.478,50.3322" stroke="#00007f" stroke-width="2" /><polyline fill="none" points="80.2712,28.2034 77.6678,28.6373 67.2542,23.4305 59.0102,26.4678 54.2373,30.8068 50.3322,36.4475" stroke="#00d4ff" stroke-width="2" /><polyline fill="none" points="55.539,37.3153 49.0305,32.1085 35.5797,9.9797 30.3729,8.678 21.261,10.8475 12.5831,20.3932 8.678,43.3898 9.1119,54.6712 11.7153,60.7458 16.0542,65.0847 22.9966,68.5559 31.2407,68.9898 39.0508,67.2542 46.4271,60.3119 49.8983,68.5559 65.9525,70.2915 76.8,67.2542 81.139,63.7831 83.7424,59.4441" stroke="#ffe500" stroke-width="2" /><polyline fill="none" points="64.6508,48.1627 59.878,57.2746 57.2746,59.878 55.1051,59.878 50.7661,57.2746 41.6542,39.9186 41.2203,43.3898 45.9932,57.7085 52.5017,66.3864 56.8407,68.122 65.9525,66.8203 77.6678,57.7085 82.4407,43.3898" stroke="#7f0000" stroke-width="2" /></svg>