<?xml version="1.0" encoding="utf-8" ?>
<svg baseProfile="tiny" height="128" version="1.2" viewBox="0,0,128,128" width="128" xmlns="http://www.w3.org/2000/svg" xmlns:ev="http://www.w3.org/2001/xml-events" xmlns:xlink="http://www.w3.org/1999/xlink"><defs /><polyline fill="none" points="26.0339,13.0169 22.1288,23.8644 21.6949,33.4102 22.9966,36.8814 26.4678,39.9186 45.1254,38.1831 54.6712,29.5051 56.8407,25.1661 57.7085,19.5254 47.7288,10.8475 41.2203,8.678 29.0712,9.1119" stroke="#00007f" stroke-width="2" /><polyline fill="none" points="84.6102,14.7525 79.8373,13.8847 75.4983,16.4881 70.7254,20.8271 68.9898,25.6 69.4237,29.0712 78.9695,42.522 101.9661,46.861 108.4746,46.861 112.8136,45.5593 114.9831,43.8237 118.4542,37.3153 119.322,26.4678 117.5864,23.4305 106.739,15.1864 97.6271,12.1492 83.3085,10.4136" stroke="#0080ff" stroke-width="2" /><polyline fill="none" points="52.5017,31.2407 41.2203,36.8814 30.3729,46.4271 33.8441,64.2169 39.4847,71.1593 53.8034,78.1017 65.5186,77.6678 77.6678,73.7627 87.6475,66.8203 89.8169,58.5763 88.9492,44.6915" stroke="#7cff79" stroke-width="2" /><polyline fill="none" points="50.3322,60.3119 40.7864,65.9525 27.3356,67.2542 13.4508,61.6136 8.678,57.7085 13.0169,65.9525 25.1661,75.0644 31.6746,76.8 41.6542,75.4983 52.5017,70.2915 55.539,66.8203" stroke="#ff9400" stroke-width="2" /><polyline fill="none" points="44.2576,40.7864 43.8237,50.7661 47.7288,52.5017 51.2,49.8983 51.6339,46.4271 49.4644,44.6915" stroke="#7f0000" stroke-width="2" /></svg>