<?xml version="1.0" encoding="utf-8" ?>
<svg baseProfile="tiny" height="128" version="1.2" viewBox="0,0,128,128" width="128" xmlns="http://www.w3.org/2000/svg" xmlns:ev="http://www.w3.org/2001/xml-events" xmlns:xlink="http://www.w3.org/1999/xlink"><defs /><polyline fill="none" points="64.2169,12.5831 56.8407,12.5831 48.1627,19.0915 31.2407,38.6169 25.6,42.9559 17.3559,47.2949 8.678,47.2949 13.8847,53.3695 17.7898,53.8034 37.3153,41.6542 45.5593,34.278 47.7288,33.4102 49.4644,34.7119" stroke="#00007f" stroke-width="2" /><polyline fill="none" points="52.5017,34.278 55.9729,32.5424 47.2949,40.3525 59.4441,35.1458" stroke="#0000fe" stroke-width="2" /><polyline fill="none" points="60.7458,14.7525 59.878,14.3186 58.1424,17.3559 57.7085,22.5627 59.4441,27.7695 62.4814,30.8068 66.8203,32.9763 71.1593,32.9763 75.0644,31.2407 77.6678,28.6373" stroke="#0060ff" stroke-width="2" /><polyline fill="none" points="65.5186,12.5831 67.2542,11.2814 71.1593,11.2814 77.2339,15.6203" stroke="#00d4ff" stroke-width="2" /><polyline fill="none" points="68.9898,11.2814 103.7017,8.678 113.2475,11.7153 117.5864,15.6203 119.322,19.9593 116.2847,40.3525" stroke="#4cffaa" stroke-width="2" /><polyline fill="none" points="117.5864,39.4847 113.6814,62.4814" stroke="#aaff4c" stroke-width="2" /><polyline fill="none" points="106.3051,45.5593 104.5695,47.2949 103.7017,65.9525 113.2475,65.5186" stroke="#ffe500" stroke-width="2" /><polyline fill="none" points="79.4034,45.9932 88.5153,49.0305 97.6271,48.1627" stroke="#ff7a00" stroke-width="2" /><polyline fill="none" points="71.1593,44.2576 73.3288,64.6508" stroke="#fe1200" stroke-width="2" /><polyline fill="none" points="58.1424,38.6169 60.7458,41.6542 66.3864,44.2576 66.3864,64.6508 72.8949,65.0847" stroke="#7f0000" stroke-width="2" /></svg>