<?xml version="1.0" encoding="utf-8" ?>
<svg baseProfile="tiny" height="128" version="1.2" viewBox="0,0,128,128" width="128" xmlns="http://www.w3.org/2000/svg" xmlns:ev="http://www.w3.org/2001/xml-events" xmlns:xlink="http://www.w3.org/1999/xlink"><defs /><polyline fill="none" points="43.3898,22.5627 36.8814,20.8271 31.2407,20.8271 25.1661,25.6 12.1492,45.1254 8.678,53.8034 8.678,59.878 9.5458,67.2542 12.5831,72.461 16.4881,75.0644 33.8441,79.4034 45.1254,75.4983" stroke="#00007f" stroke-width="2" /><polyline fill="none" points="43.3898,22.5627 50.3322,18.2237 63.3492,18.6576 70.7254,22.1288 79.4034,28.6373" stroke="#0080ff" stroke-width="2" /><polyline fill="none" points="82.4407,28.2034 83.7424,19.5254 90.6847,9.1119 95.4576,8.678 101.9661,10.4136 110.2102,19.0915 117.5864,35.5797 119.322,48.1627 108.4746,63.7831 98.9288,74.6305 83.3085,78.9695" stroke="#7cff79" stroke-width="2" /><polyline fill="none" points="48.5966,45.1254 56.4068,44.2576 62.0475,50.3322 62.9153,62.0475 61.1797,66.3864 61.1797,84.6102 71.5932,85.478 73.3288,84.1763" stroke="#ff9400" stroke-width="2" /><polyline fill="none" points="65.5186,46.861 70.7254,47.7288 75.9322,53.3695 76.3661,76.3661 77.6678,81.139 82.8746,82.4407 80.7051,88.9492 78.9695,89.8169 74.1966,88.0814 68.122,83.3085" stroke="#7f0000" stroke-width="2" /></svg>