<?xml version="1.0" encoding="utf-8" ?>
<svg baseProfile="tiny" height="128" version="1.2" viewBox="0,0,128,128" width="128" xmlns="http://www.w3.org/2000/svg" xmlns:ev="http://www.w3.org/2001/xml-events" xmlns:xlink="http://www.w3.org/1999/xlink"><defs /><polyline fill="none" points="108.4082,23.5102 108.8435,22.2041 98.3946,20.0272 82.2857,20.0272 57.4694,37.4422 55.7279,36.1361 55.7279,33.9592 57.9048,28.7347 58.3401,22.2041 50.5034,15.2381 41.3605,10.449 31.7823,8.7075 26.1224,8.7075 23.5102,10.0136 18.7211,17.8503 13.4966,23.0748 10.449,30.4762 8.7075,42.2313 8.7075,61.3878 11.7551,64.4354 17.8503,66.6122 24.381,71.4014 35.7007,75.7551 48.7619,76.6259 53.9864,74.8844 59.6463,68.3537 65.3061,56.1633 65.3061,48.7619 60.9524,42.2313 59.6463,34.3946 55.2925,32.6531 55.2925,30.4762" stroke="#00007f" stroke-width="2" /><polyline fill="none" points="47.4558,26.5578 46.585,39.619" stroke="#0028ff" stroke-width="2" /><polyline fill="none" points="19.1565,34.3946 20.0272,41.3605" stroke="#00d4ff" stroke-width="2" /><polyline fill="none" points="52.2449,20.4626 56.1633,20.4626 61.3878,22.6395 69.2245,30.4762 79.6735,34.8299 82.2857,38.7483 83.5918,46.1497 82.7211,55.2925 75.3197,59.2109 70.966,64.0 66.6122,65.3061 55.2925,50.5034 53.1156,42.6667 52.6803,32.6531" stroke="#7cff79" stroke-width="2" /><polyline fill="none" points="106.2313,21.3333 113.1973,23.5102 117.9864,30.4762 118.8571,34.3946 119.2925,43.5374 114.9388,54.8571 113.1973,74.0136 111.4558,76.6259 103.1837,81.415 89.2517,85.3333 74.0136,85.7687 66.1769,82.2857 54.8571,68.7891" stroke="#ffe500" stroke-width="2" /><polyline fill="none" points="69.2245,72.7075 68.3537,78.3673 68.7891,94.0408" stroke="#ff4600" stroke-width="2" /><polyline fill="none" points="104.4898,63.5646 106.2313,79.2381" stroke="#7f0000" stroke-width="2" /></svg>