<?xml version="1.0" encoding="utf-8" ?>
<svg baseProfile="tiny" height="128" version="1.2" viewBox="0,0,128,128" width="128" xmlns="http://www.w3.org/2000/svg" xmlns:ev="http://www.w3.org/2001/xml-events" xmlns:xlink="http://www.w3.org/1999/xlink"><defs /><polyline fill="none" points="61.1797,52.9356 61.1797,52.9356" stroke="#00007f" stroke-width="2" /><polyline fill="none" points="25.1661,30.3729 8.678,43.8237 10.8475,44.6915 15.6203,52.5017 23.4305,42.0881 31.2407,36.0136 41.6542,35.5797 41.2203,56.4068 49.0305,56.4068 54.6712,36.8814 65.0847,37.3153 60.3119,55.1051 62.0475,58.1424 72.0271,56.4068 75.9322,37.7492 78.9695,39.0508 85.9119,38.1831 83.7424,52.5017 84.1763,59.4441 93.722,59.0102 95.8915,57.2746 96.3254,55.539 97.6271,19.0915 95.8915,15.6203 89.3831,10.8475 75.0644,8.678 58.5763,10.8475 48.1627,15.1864 34.7119,26.4678 25.1661,31.6746" stroke="#00d4ff" stroke-width="2" /><polyline fill="none" points="44.2576,26.4678 45.5593,27.7695 44.2576,28.2034 42.522,26.4678 45.5593,23.8644 46.861,25.6 44.2576,27.7695 48.1627,26.9017 45.9932,28.2034 45.5593,26.0339 48.1627,26.4678 44.6915,26.9017 46.861,28.6373 45.1254,30.3729 44.2576,27.3356" stroke="#ffe500" stroke-width="2" /><polyline fill="none" points="92.8542,23.4305 119.322,47.2949" stroke="#7f0000" stroke-width="2" /></svg>