<?xml version="1.0" encoding="utf-8" ?>
<svg baseProfile="tiny" height="128" version="1.2" viewBox="0,0,128,128" width="128" xmlns="http://www.w3.org/2000/svg" xmlns:ev="http://www.w3.org/2001/xml-events" xmlns:xlink="http://www.w3.org/1999/xlink"><defs /><polyline fill="none" points="42.9589,20.1644 38.5753,16.2192 29.8082,20.6027 24.9863,26.3014 17.0959,43.3973 8.7671,49.0959 12.274,49.0959 9.2055,49.5342 11.3973,49.5342" stroke="#00007f" stroke-width="2" /><polyline fill="none" points="12.7123,50.411 23.6712,42.5205 32.0,25.863 42.5205,23.2329" stroke="#0000d5" stroke-width="2" /><polyline fill="none" points="45.1507,20.1644 49.9726,11.8356 56.5479,8.7671 60.4932,9.2055 64.4384,14.9041 66.1918,21.9178 66.1918,28.4932 64.0,31.1233" stroke="#001cff" stroke-width="2" /><polyline fill="none" points="42.5205,25.863 42.5205,31.5616" stroke="#006cff" stroke-width="2" /><polyline fill="none" points="42.9589,34.1918 43.3973,37.2603 46.0274,37.6986 46.4658,41.2055" stroke="#00b8ff" stroke-width="2" /><polyline fill="none" points="66.1918,33.3151 80.2192,33.3151 85.4795,34.6301 85.0411,35.9452" stroke="#1cffda" stroke-width="2" /><polyline fill="none" points="47.7808,45.1507 48.2192,50.411 49.9726,53.0411 57.863,53.0411 56.1096,60.9315 56.9863,62.2466 64.4384,61.8082 65.7534,53.4795 67.0685,52.6027 84.1644,50.411 88.5479,51.726 87.6712,61.3699 100.8219,62.6849 99.9452,50.8493" stroke="#5cff9a" stroke-width="2" /><polyline fill="none" points="87.6712,35.5068 99.5068,37.2603 103.4521,44.7123 103.0137,49.9726" stroke="#9aff5c" stroke-width="2" /><polyline fill="none" points="99.0685,35.0685 110.4658,28.9315" stroke="#daff1c" stroke-width="2" /><polyline fill="none" points="110.4658,28.9315 118.7945,23.6712" stroke="#ffcb00" stroke-width="2" /><polyline fill="none" points="104.3288,37.2603 104.3288,37.2603" stroke="#ff8500" stroke-width="2" /><polyline fill="none" points="100.8219,37.2603 115.726,30.2466 119.2329,23.2329" stroke="#ff3b00" stroke-width="2" /><polyline fill="none" points="43.8356,30.6849 37.6986,31.1233 29.3699,27.6164 35.9452,32.0 43.3973,33.7534" stroke="#d50000" stroke-width="2" /><polyline fill="none" points="54.7945,15.3425 54.7945,15.3425" stroke="#7f0000" stroke-width="2" /></svg>