<?xml version="1.0" encoding="utf-8" ?>
<svg baseProfile="tiny" height="128" version="1.2" viewBox="0,0,128,128" width="128" xmlns="http://www.w3.org/2000/svg" xmlns:ev="http://www.w3.org/2001/xml-events" xmlns:xlink="http://www.w3.org/1999/xlink"><defs /><polyline fill="none" points="9.1119,45.1254 9.1119,55.9729 13.4508,81.139 14.7525,80.2712 17.7898,82.4407 21.261,81.5729 19.5254,52.0678 24.2983,48.5966 28.6373,48.5966 29.5051,53.3695 30.8068,78.9695 44.2576,81.139 44.6915,70.7254 42.0881,60.7458 41.2203,49.8983 42.9559,48.5966 50.3322,48.1627 52.9356,65.9525 52.9356,80.7051 64.6508,81.139 65.0847,74.6305 60.7458,54.2373 60.7458,46.4271 70.2915,45.9932 74.1966,57.2746 76.8,78.9695 85.9119,79.4034 87.2136,78.1017 84.6102,65.0847 80.7051,55.1051 80.2712,41.2203" stroke="#00007f" stroke-width="2" /><polyline fill="none" points="8.678,44.6915 19.0915,26.9017 26.4678,17.3559 35.5797,10.8475 40.7864,9.1119 54.2373,8.678 73.3288,12.5831 89.3831,18.2237 93.722,23.4305" stroke="#0080ff" stroke-width="2" /><polyline fill="none" points="80.7051,40.7864 85.478,36.0136 89.8169,27.3356 94.1559,23.4305" stroke="#7cff79" stroke-width="2" /><polyline fill="none" points="92.8542,26.4678 96.7593,34.7119 116.2847,49.4644 119.322,53.3695 110.2102,44.2576 108.0407,39.0508 103.7017,32.5424 93.2881,27.7695 91.5525,24.2983" stroke="#ff9400" stroke-width="2" /><polyline fill="none" points="75.9322,24.2983 74.1966,27.3356 75.0644,28.2034 76.3661,26.0339 73.3288,25.6" stroke="#7f0000" stroke-width="2" /></svg>