<?xml version="1.0" encoding="utf-8" ?>
<svg baseProfile="tiny" height="128" version="1.2" viewBox="0,0,128,128" width="128" xmlns="http://www.w3.org/2000/svg" xmlns:ev="http://www.w3.org/2001/xml-events" xmlns:xlink="http://www.w3.org/1999/xlink"><defs /><polyline fill="none" points="8.678,64.2169 11.7153,60.3119 14.7525,58.5763 24.7322,57.2746 29.5051,55.539 38.6169,44.6915 44.2576,41.6542" stroke="#00007f" stroke-width="2" /><polyline fill="none" points="12.1492,68.122 17.7898,64.6508 31.2407,62.0475 41.6542,51.2 46.4271,49.0305 52.5017,48.1627" stroke="#0080ff" stroke-width="2" /><polyline fill="none" points="47.2949,42.522 48.5966,39.4847 54.6712,34.7119 65.5186,32.9763" stroke="#7cff79" stroke-width="2" /><polyline fill="none" points="52.9356,48.5966 62.4814,46.861 65.9525,49.0305 68.5559,54.2373 62.9153,67.6881 60.3119,78.1017 60.3119,88.5153 65.0847,91.1186 70.2915,90.6847 76.3661,85.0441 78.9695,76.3661 80.7051,55.1051 82.0068,52.0678" stroke="#ff9400" stroke-width="2" /><polyline fill="none" points="65.9525,32.5424 72.461,32.5424 73.3288,17.3559 77.6678,11.2814 83.7424,8.678 89.3831,9.9797 90.6847,24.2983 87.6475,35.5797 95.0237,32.9763 100.2305,32.5424 107.6068,35.1458 116.2847,44.2576 118.4542,50.3322 119.322,59.878 117.1525,62.9153 113.2475,65.0847 105.0034,65.0847 97.6271,61.6136 84.1763,51.6339" stroke="#7f0000" stroke-width="2" /></svg>