<?xml version="1.0" encoding="utf-8" ?>
<svg baseProfile="tiny" height="128" version="1.2" viewBox="0,0,128,128" width="128" xmlns="http://www.w3.org/2000/svg" xmlns:ev="http://www.w3.org/2001/xml-events" xmlns:xlink="http://www.w3.org/1999/xlink"><defs /><polyline fill="none" points="29.0712,56.4068 32.5424,59.878 42.0881,63.3492 61.1797,61.6136 65.5186,75.4983 69.4237,74.1966 75.0644,69.4237 74.1966,65.9525 68.9898,56.4068" stroke="#00007f" stroke-width="2" /><polyline fill="none" points="28.2034,57.2746 22.9966,73.7627 13.8847,72.8949 13.0169,69.8576 16.4881,53.8034" stroke="#0080ff" stroke-width="2" /><polyline fill="none" points="16.4881,53.3695 8.678,55.539" stroke="#7cff79" stroke-width="2" /><polyline fill="none" points="70.2915,55.9729 70.2915,48.5966 65.9525,40.7864 75.0644,31.6746 70.2915,28.6373 64.6508,31.2407 62.0475,35.5797 51.2,36.4475 41.6542,39.4847 32.1085,45.1254 21.261,46.861 15.6203,53.3695" stroke="#ff9400" stroke-width="2" /><polyline fill="none" points="72.0271,29.5051 75.0644,22.1288 80.7051,15.1864 87.6475,9.9797 95.4576,9.1119 105.8712,14.3186 113.6814,13.8847 117.5864,11.2814 117.5864,8.678 118.8881,11.7153 119.322,19.0915 116.2847,21.261 112.8136,22.1288 102.4,20.8271 95.8915,21.6949 88.0814,25.6 81.5729,31.6746 76.8,33.8441 72.8949,33.4102" stroke="#7f0000" stroke-width="2" /></svg>