<?xml version="1.0" encoding="utf-8" ?>
<svg baseProfile="tiny" height="128" version="1.2" viewBox="0,0,128,128" width="128" xmlns="http://www.w3.org/2000/svg" xmlns:ev="http://www.w3.org/2001/xml-events" xmlns:xlink="http://www.w3.org/1999/xlink"><defs /><polyline fill="none" points="85.0441,49.4644 87.6475,46.861 95.0237,44.6915 111.078,43.3898 113.6814,45.5593 116.7186,52.0678 119.322,61.1797 119.322,87.2136 116.2847,96.3254 103.2678,100.6644 98.4949,99.3627 98.061,88.0814 95.8915,78.5356" stroke="#00007f" stroke-width="2" /><polyline fill="none" points="104.1356,83.3085 100.6644,86.3458 87.6475,91.1186 85.478,87.6475 85.478,74.1966" stroke="#004cff" stroke-width="2" /><polyline fill="none" points="85.9119,73.7627 75.4983,76.8 73.3288,79.4034 71.5932,101.0983 53.8034,105.8712 51.2,105.8712 49.8983,104.1356" stroke="#29ffcd" stroke-width="2" /><polyline fill="none" points="57.7085,78.9695 55.539,104.5695 37.3153,104.5695 36.0136,101.0983 36.0136,81.5729" stroke="#cdff29" stroke-width="2" /><polyline fill="none" points="45.1254,34.278 46.4271,26.4678 52.0678,16.4881 57.7085,10.8475 67.2542,8.678 73.7627,9.9797 76.8,13.0169 80.2712,29.939 79.4034,41.2203 71.1593,56.4068 58.1424,66.3864" stroke="#ff6700" stroke-width="2" /><polyline fill="none" points="48.5966,32.1085 35.5797,29.0712 25.6,29.5051 19.9593,33.8441 15.6203,39.9186 14.7525,49.4644 17.7898,63.7831 17.7898,78.5356 16.922,81.5729 8.678,91.9864" stroke="#7f0000" stroke-width="2" /></svg>