<?xml version="1.0" encoding="utf-8" ?>
<svg baseProfile="tiny" height="128" version="1.2" viewBox="0,0,128,128" width="128" xmlns="http://www.w3.org/2000/svg" xmlns:ev="http://www.w3.org/2001/xml-events" xmlns:xlink="http://www.w3.org/1999/xlink"><defs /><polyline fill="none" points="36.4475,15.6203 36.8814,12.1492 39.9186,8.678 53.3695,8.678 60.3119,13.4508 61.1797,19.9593 56.8407,26.4678 51.6339,29.5051 44.6915,30.3729" stroke="#00007f" stroke-width="2" /><polyline fill="none" points="37.3153,9.5458 29.0712,10.4136 21.261,22.1288 20.8271,32.5424 24.2983,44.2576 23.8644,50.7661 22.1288,55.9729 18.2237,58.5763 10.8475,58.5763 9.5458,57.2746 13.8847,60.3119 25.1661,59.878 26.4678,58.5763" stroke="#0000fe" stroke-width="2" /><polyline fill="none" points="39.4847,39.4847 23.8644,41.2203 8.678,39.9186 26.9017,44.2576 33.4102,44.2576 38.6169,41.6542" stroke="#0060ff" stroke-width="2" /><polyline fill="none" points="29.5051,43.3898 28.6373,54.6712 27.3356,57.2746" stroke="#00d4ff" stroke-width="2" /><polyline fill="none" points="31.2407,22.1288 31.2407,24.7322 32.9763,24.7322 33.4102,22.5627 31.6746,21.6949" stroke="#4cffaa" stroke-width="2" /><polyline fill="none" points="59.878,24.2983 92.4203,22.9966 111.5119,31.6746" stroke="#aaff4c" stroke-width="2" /><polyline fill="none" points="111.5119,31.6746 113.6814,49.4644 115.8508,52.9356 119.322,54.2373 111.9458,54.2373 106.739,47.2949" stroke="#ffe500" stroke-width="2" /><polyline fill="none" points="30.3729,46.861 34.278,47.7288 36.8814,50.7661 37.7492,73.7627 44.2576,73.3288 53.8034,75.0644 55.1051,53.3695 53.3695,47.7288" stroke="#ff7a00" stroke-width="2" /><polyline fill="none" points="55.9729,62.4814 83.7424,62.0475" stroke="#fe1200" stroke-width="2" /><polyline fill="none" points="81.139,45.9932 81.139,45.9932" stroke="#7f0000" stroke-width="2" /></svg>