<?xml version="1.0" encoding="utf-8" ?>
<svg baseProfile="tiny" height="128" version="1.2" viewBox="0,0,128,128" width="128" xmlns="http://www.w3.org/2000/svg" xmlns:ev="http://www.w3.org/2001/xml-events" xmlns:xlink="http://www.w3.org/1999/xlink"><defs /><polyline fill="none" points="55.539,41.2203 54.6712,55.9729 58.1424,59.4441 62.9153,59.4441 64.6508,57.7085 65.0847,48.1627 66.8203,43.3898 69.4237,42.0881 77.2339,42.0881 89.3831,43.8237 90.2508,45.1254 86.7797,52.0678 86.7797,62.0475 93.2881,62.9153 99.3627,53.8034 98.9288,45.1254 102.8339,44.2576 109.3424,46.861 111.078,60.7458 115.4169,65.0847 118.4542,65.5186 119.322,60.7458 118.0203,49.8983 114.5492,43.8237 99.7966,36.0136 98.4949,30.3729 84.6102,26.0339 73.7627,25.1661" stroke="#00007f" stroke-width="2" /><polyline fill="none" points="73.7627,23.4305 50.7661,21.261 52.5017,16.4881 50.3322,13.0169 44.6915,11.2814 34.278,11.2814 26.9017,16.0542 25.6,18.6576 25.1661,21.6949 29.5051,27.7695 37.3153,34.7119 42.9559,34.7119 47.7288,31.2407 51.6339,22.1288" stroke="#7cff79" stroke-width="2" /><polyline fill="none" points="38.1831,15.1864 46.861,9.9797 58.1424,8.678 65.9525,12.5831 67.6881,16.4881 67.2542,24.2983 49.8983,53.8034 43.8237,61.1797 36.4475,64.2169 29.939,64.6508 25.6,63.7831 14.3186,57.2746 9.5458,47.7288 8.678,40.7864 9.9797,37.7492 16.922,31.2407" stroke="#7f0000" stroke-width="2" /></svg>