<?xml version="1.0" encoding="utf-8" ?>
<svg baseProfile="tiny" height="128" version="1.2" viewBox="0,0,128,128" width="128" xmlns="http://www.w3.org/2000/svg" xmlns:ev="http://www.w3.org/2001/xml-events" xmlns:xlink="http://www.w3.org/1999/xlink"><defs /><polyline fill="none" points="62.2585,25.2517 70.966,13.0612 80.5442,8.7075 94.4762,9.5782 116.2449,23.9456 119.2925,30.0408 119.2925,35.7007 114.068,47.4558 109.7143,50.5034 100.1361,52.6803 88.8163,51.8095" stroke="#00007f" stroke-width="2" /><polyline fill="none" points="61.3878,24.8163 53.9864,25.2517 49.1973,29.1701 38.3129,24.381 22.6395,23.9456 16.1088,28.7347 10.0136,39.619 8.7075,53.9864 13.0612,61.3878 19.5918,67.0476 31.7823,67.0476 47.4558,57.9048" stroke="#0080ff" stroke-width="2" /><polyline fill="none" points="55.2925,50.068 55.2925,59.2109 63.1293,70.0952 64.8707,75.3197 64.0,83.1565 60.517,87.9456 57.034,89.2517 58.3401,92.7347 60.0816,90.1224 64.0,90.1224 67.483,87.5102 72.2721,78.8027 74.0136,65.3061 71.8367,49.1973" stroke="#7cff79" stroke-width="2" /><polyline fill="none" points="72.7075,53.1156 79.2381,54.8571 96.2177,50.9388" stroke="#ff9400" stroke-width="2" /><polyline fill="none" points="55.2925,58.3401 55.2925,58.3401" stroke="#7f0000" stroke-width="2" /></svg>