<?xml version="1.0" encoding="utf-8" ?>
<svg baseProfile="tiny" height="128" version="1.2" viewBox="0,0,128,128" width="128" xmlns="http://www.w3.org/2000/svg" xmlns:ev="http://www.w3.org/2001/xml-events" xmlns:xlink="http://www.w3.org/1999/xlink"><defs /><polyline fill="none" points="68.5559,31.2407 77.6678,18.6576 91.5525,10.8475 99.3627,8.678 108.0407,8.678 114.5492,15.1864 117.5864,21.261 119.322,33.4102 117.5864,40.3525 112.8136,47.2949 105.0034,50.7661 91.1186,53.8034 87.6475,53.3695 78.5356,49.8983" stroke="#00007f" stroke-width="2" /><polyline fill="none" points="56.4068,29.939 46.861,17.7898 40.3525,13.4508 31.6746,10.8475 19.5254,9.9797 14.3186,12.1492 8.678,22.5627 8.678,34.7119 12.1492,45.1254 18.6576,55.1051 28.2034,57.2746 40.7864,57.7085 49.8983,54.2373 51.2,38.6169 61.6136,33.8441 67.2542,33.4102 72.8949,40.3525 76.8,55.539 71.5932,61.6136 65.5186,63.7831 58.5763,64.2169 52.0678,60.7458 49.8983,56.8407 49.0305,54.2373 50.3322,53.8034 59.0102,61.1797" stroke="#00d4ff" stroke-width="2" /><polyline fill="none" points="58.5763,59.878 61.6136,65.0847 61.6136,81.139 64.6508,87.6475 66.8203,86.3458 69.4237,82.4407 70.2915,63.3492 73.7627,56.4068" stroke="#ffe500" stroke-width="2" /><polyline fill="none" points="55.1051,38.6169 55.539,46.4271 58.1424,45.9932 59.4441,42.522 58.1424,39.4847 55.1051,39.9186" stroke="#7f0000" stroke-width="2" /></svg>