<?xml version="1.0" encoding="utf-8" ?>
<svg baseProfile="tiny" height="128" version="1.2" viewBox="0,0,128,128" width="128" xmlns="http://www.w3.org/2000/svg" xmlns:ev="http://www.w3.org/2001/xml-events" xmlns:xlink="http://www.w3.org/1999/xlink"><defs /><polyline fill="none" points="105.4373,16.0542 91.1186,11.7153 79.8373,11.2814 48.1627,16.4881 40.7864,16.4881 35.5797,13.8847 32.1085,8.678 26.4678,8.678 21.6949,13.0169 16.0542,24.2983 8.678,50.3322 14.7525,49.4644 20.8271,45.5593 30.3729,28.2034 33.4102,24.7322 37.3153,23.8644 42.9559,25.6 45.1254,29.0712 43.3898,51.6339 44.2576,55.1051 46.4271,56.4068 51.6339,57.7085 54.6712,56.4068 53.3695,47.2949 53.8034,39.4847 56.4068,34.278 61.6136,32.5424 63.7831,32.9763 65.0847,36.0136 66.3864,49.4644 68.5559,52.9356 70.7254,52.5017 72.8949,50.7661 79.4034,35.5797 82.0068,33.4102 86.7797,39.4847 88.5153,52.0678 89.8169,55.1051 92.8542,55.1051 96.7593,51.6339 99.3627,38.6169 102.8339,35.1458 105.0034,37.7492 108.9085,52.0678 111.078,53.8034 114.5492,53.8034 118.4542,50.3322 119.322,45.9932 113.2475,26.9017 113.2475,22.5627" stroke="#00007f" stroke-width="2" /></svg>