<?xml version="1.0" encoding="utf-8" ?>
<svg baseProfile="tiny" height="128" version="1.2" viewBox="0,0,128,128" width="128" xmlns="http://www.w3.org/2000/svg" xmlns:ev="http://www.w3.org/2001/xml-events" xmlns:xlink="http://www.w3.org/1999/xlink"><defs /><polyline fill="none" points="59.0102,14.7525 52.5017,19.9593 48.5966,27.3356 47.7288,38.1831 50.3322,45.1254 55.539,49.8983 66.3864,51.2 75.9322,47.2949 79.4034,43.8237 80.7051,38.1831 80.7051,26.9017 78.5356,17.7898 74.1966,15.6203 65.5186,15.1864 59.0102,16.922 55.9729,19.5254" stroke="#00007f" stroke-width="2" /><polyline fill="none" points="60.3119,43.8237 61.1797,52.0678 57.7085,64.6508 51.6339,68.122" stroke="#004cff" stroke-width="2" /><polyline fill="none" points="64.2169,45.5593 64.6508,50.3322 63.3492,58.1424 59.4441,68.122 51.2,68.9898 49.0305,66.8203" stroke="#29ffcd" stroke-width="2" /><polyline fill="none" points="54.6712,16.922 46.861,11.2814 30.8068,8.678 17.7898,14.3186 12.5831,18.6576 9.5458,22.9966 8.678,31.2407 10.8475,38.6169 12.5831,41.6542 18.2237,45.5593 24.7322,47.7288 42.9559,48.5966 46.4271,51.6339 54.2373,48.1627 57.2746,43.8237" stroke="#cdff29" stroke-width="2" /><polyline fill="none" points="78.1017,16.4881 95.8915,12.1492 108.0407,13.8847 115.8508,22.9966 119.322,36.4475 117.1525,39.0508 109.7763,42.522 91.9864,41.2203 80.7051,47.7288 75.9322,45.5593 74.6305,43.3898" stroke="#ff6700" stroke-width="2" /><polyline fill="none" points="62.0475,22.1288 63.7831,23.4305 61.6136,26.4678 57.2746,28.6373 56.8407,23.8644 61.1797,19.0915 62.9153,21.6949" stroke="#7f0000" stroke-width="2" /></svg>