<?xml version="1.0" encoding="utf-8" ?>
<svg baseProfile="tiny" height="128" version="1.2" viewBox="0,0,128,128" width="128" xmlns="http://www.w3.org/2000/svg" xmlns:ev="http://www.w3.org/2001/xml-events" xmlns:xlink="http://www.w3.org/1999/xlink"><defs /><polyline fill="none" points="86.3458,11.7153 80.2712,11.7153 74.6305,13.4508 65.0847,21.6949 62.4814,27.3356 62.4814,32.5424 63.7831,35.1458 67.6881,37.7492 75.0644,36.4475 85.478,26.0339 88.9492,19.0915 89.8169,13.8847 88.0814,11.2814 84.1763,10.8475" stroke="#00007f" stroke-width="2" /><polyline fill="none" points="52.5017,22.9966 62.9153,13.8847 68.5559,10.8475 76.8,8.678 85.9119,9.9797 88.5153,11.7153 89.8169,15.1864 87.6475,31.6746 88.5153,38.1831 91.9864,43.8237 99.7966,48.5966 107.1729,47.7288 113.2475,40.7864 114.1153,31.6746 111.078,25.6 118.8881,29.0712 119.322,35.5797 114.1153,47.7288 108.4746,53.8034 102.8339,56.4068 98.061,56.4068 91.1186,50.7661 84.6102,40.3525 69.8576,52.0678 68.5559,54.2373 68.122,64.2169" stroke="#0000ff" stroke-width="2" /><polyline fill="none" points="62.0475,49.8983 61.6136,61.6136 63.7831,65.5186" stroke="#0080ff" stroke-width="2" /><polyline fill="none" points="62.9153,52.0678 34.7119,51.2" stroke="#15ffe1" stroke-width="2" /><polyline fill="none" points="37.3153,48.5966 36.0136,65.9525" stroke="#7cff79" stroke-width="2" /><polyline fill="none" points="30.3729,46.4271 28.2034,57.2746 28.6373,67.6881" stroke="#e4ff12" stroke-width="2" /><polyline fill="none" points="55.1051,21.6949 42.0881,23.8644 28.2034,30.8068 25.6,35.1458 25.1661,41.2203 29.0712,51.6339" stroke="#ff9400" stroke-width="2" /><polyline fill="none" points="26.0339,38.1831 23.4305,38.1831 22.1288,40.3525 18.2237,55.539 14.7525,62.4814 12.1492,63.7831 10.8475,62.9153 9.5458,55.9729 10.8475,54.6712" stroke="#ff1d00" stroke-width="2" /><polyline fill="none" points="13.4508,57.7085 9.9797,60.7458 8.678,59.4441 9.9797,55.539 14.3186,54.2373 16.0542,57.7085 15.6203,63.7831 14.7525,59.878 19.5254,53.3695" stroke="#7f0000" stroke-width="2" /></svg>