<?xml version="1.0" encoding="utf-8" ?>
<svg baseProfile="tiny" height="128" version="1.2" viewBox="0,0,128,128" width="128" xmlns="http://www.w3.org/2000/svg" xmlns:ev="http://www.w3.org/2001/xml-events" xmlns:xlink="http://www.w3.org/1999/xlink"><defs /><polyline fill="none" points="31.6746,15.6203 21.6949,15.1864 16.922,17.3559 9.9797,28.2034 8.678,45.9932 12.5831,63.3492 16.4881,69.8576 27.7695,74.1966 30.8068,74.1966 35.1458,70.2915 34.7119,66.8203 23.8644,65.9525 20.3932,63.3492 17.7898,59.0102 16.0542,40.3525 24.2983,33.8441" stroke="#00007f" stroke-width="2" /><polyline fill="none" points="15.6203,39.9186 16.922,42.522 25.1661,43.3898 30.8068,42.9559 35.5797,40.3525" stroke="#0080ff" stroke-width="2" /><polyline fill="none" points="29.5051,22.9966 29.5051,18.2237 33.4102,12.1492 36.4475,10.4136 44.6915,8.678 43.3898,17.3559 47.7288,30.3729 47.2949,38.1831 43.8237,41.2203 38.1831,41.2203 35.1458,39.0508 35.5797,35.1458" stroke="#7cff79" stroke-width="2" /><polyline fill="none" points="45.5593,16.4881 45.5593,17.7898 49.8983,19.5254 59.0102,19.5254 77.6678,12.1492 93.722,12.5831 103.7017,15.6203 112.3797,24.7322 117.5864,38.6169 117.5864,55.9729 119.322,60.3119 110.6441,59.0102" stroke="#ff9400" stroke-width="2" /><polyline fill="none" points="47.2949,38.1831 46.4271,62.0475 49.8983,65.5186 66.3864,67.2542 68.9898,65.0847 69.8576,44.2576 71.5932,41.2203 72.461,42.0881 72.461,51.2 70.2915,63.3492 72.461,64.6508 82.4407,63.3492 84.1763,59.0102 86.3458,39.4847 87.2136,38.6169 91.5525,39.0508 92.8542,40.7864 92.8542,60.3119" stroke="#7f0000" stroke-width="2" /></svg>