<?xml version="1.0" encoding="utf-8" ?>
<svg baseProfile="tiny" height="128" version="1.2" viewBox="0,0,128,128" width="128" xmlns="http://www.w3.org/2000/svg" xmlns:ev="http://www.w3.org/2001/xml-events" xmlns:xlink="http://www.w3.org/1999/xlink"><defs /><polyline fill="none" points="51.2,30.3729 51.2,51.6339 59.0102,50.3322 59.0102,28.2034 59.878,49.8983 74.1966,49.4644 73.3288,31.6746 73.3288,49.4644" stroke="#00007f" stroke-width="2" /><polyline fill="none" points="49.8983,29.939 35.1458,32.5424 37.3153,54.6712 34.278,52.9356 28.2034,52.5017 26.9017,50.7661 23.8644,37.3153 23.8644,28.6373 14.3186,25.6 9.1119,21.6949 8.678,15.6203 13.0169,11.7153 20.8271,9.5458 32.9763,10.8475 68.5559,8.678 79.8373,10.4136 74.6305,23.8644 74.1966,31.2407 73.7627,32.5424 72.8949,31.6746" stroke="#0000ff" stroke-width="2" /><polyline fill="none" points="74.6305,22.1288 90.6847,28.2034 98.9288,33.4102" stroke="#0080ff" stroke-width="2" /><polyline fill="none" points="96.7593,31.2407 101.0983,44.6915" stroke="#15ffe1" stroke-width="2" /><polyline fill="none" points="97.1932,32.1085 101.9661,39.0508 112.8136,44.6915" stroke="#7cff79" stroke-width="2" /><polyline fill="none" points="99.3627,33.4102 114.5492,38.1831" stroke="#e4ff12" stroke-width="2" /><polyline fill="none" points="98.4949,34.7119 107.6068,38.6169 119.322,39.9186" stroke="#ff9400" stroke-width="2" /><polyline fill="none" points="96.3254,34.7119 117.1525,43.8237" stroke="#ff1d00" stroke-width="2" /><polyline fill="none" points="101.0983,35.1458 105.0034,42.0881 111.078,44.6915" stroke="#7f0000" stroke-width="2" /></svg>