<?xml version="1.0" encoding="utf-8" ?>
<svg baseProfile="tiny" height="128" version="1.2" viewBox="0,0,128,128" width="128" xmlns="http://www.w3.org/2000/svg" xmlns:ev="http://www.w3.org/2001/xml-events" xmlns:xlink="http://www.w3.org/1999/xlink"><defs /><polyline fill="none" points="41.6542,22.9966 34.7119,25.6 29.0712,30.8068 25.6,38.1831 27.7695,46.861 37.3153,56.8407" stroke="#00007f" stroke-width="2" /><polyline fill="none" points="46.4271,49.8983 51.2,60.7458 54.2373,92.8542" stroke="#0000f1" stroke-width="2" /><polyline fill="none" points="56.4068,93.722 60.3119,81.5729 63.3492,75.4983 67.6881,71.1593 68.9898,64.6508 68.122,51.6339 70.2915,45.1254" stroke="#004cff" stroke-width="2" /><polyline fill="none" points="40.7864,23.4305 51.6339,13.4508 56.8407,11.2814 62.9153,10.8475 72.461,14.3186 82.4407,20.3932 88.9492,26.0339 90.6847,33.8441 90.2508,40.3525 84.1763,55.539 75.9322,62.0475 66.8203,62.9153" stroke="#00b0ff" stroke-width="2" /><polyline fill="none" points="35.1458,52.5017 44.2576,65.0847 52.9356,72.461" stroke="#29ffcd" stroke-width="2" /><polyline fill="none" points="92.4203,19.9593 102.8339,11.2814 111.5119,8.678 118.0203,13.4508 119.322,18.2237 105.8712,44.6915 102.8339,71.1593 95.4576,69.8576 88.0814,63.3492 85.0441,58.1424" stroke="#7cff79" stroke-width="2" /><polyline fill="none" points="39.4847,23.4305 28.6373,16.4881 21.261,14.3186 16.4881,14.7525 13.4508,16.4881 10.4136,21.261 8.678,30.8068 10.4136,40.7864 16.0542,55.1051 20.8271,75.0644 23.4305,78.5356 27.7695,78.9695 35.1458,73.3288 39.9186,63.3492" stroke="#cdff29" stroke-width="2" /><polyline fill="none" points="42.9559,26.4678 42.522,32.1085 44.2576,35.5797 48.5966,36.0136 50.7661,33.4102 49.0305,28.6373 43.8237,28.2034" stroke="#ffc400" stroke-width="2" /><polyline fill="none" points="65.9525,26.4678 66.3864,32.1085 71.1593,35.5797 75.9322,32.5424 75.9322,27.3356 72.0271,25.1661 67.2542,27.3356" stroke="#ff6700" stroke-width="2" /><polyline fill="none" points="68.5559,34.278 70.7254,34.278" stroke="#f10700" stroke-width="2" /><polyline fill="none" points="46.861,34.278 46.861,34.278" stroke="#7f0000" stroke-width="2" /></svg>