<?xml version="1.0" encoding="utf-8" ?>
<svg baseProfile="tiny" height="128" version="1.2" viewBox="0,0,128,128" width="128" xmlns="http://www.w3.org/2000/svg" xmlns:ev="http://www.w3.org/2001/xml-events" xmlns:xlink="http://www.w3.org/1999/xlink"><defs /><polyline fill="none" points="61.6136,40.7864 52.5017,42.0881 45.9932,40.3525 43.3898,38.1831 32.1085,19.0915 29.939,19.0915 19.9593,29.5051 19.0915,40.7864 23.4305,48.1627 23.8644,56.8407 19.0915,62.4814 9.1119,63.3492 8.678,68.5559 12.1492,75.0644 20.8271,82.0068 26.0339,82.8746 45.5593,76.8 51.6339,71.1593" stroke="#00007f" stroke-width="2" /><polyline fill="none" points="61.1797,40.3525 62.0475,38.1831 64.6508,37.7492 90.2508,39.0508 87.6475,29.5051 87.2136,17.7898 88.5153,14.7525 91.5525,11.2814 96.7593,9.1119 104.1356,8.678 106.739,10.4136 111.9458,18.6576 113.6814,25.6 113.6814,33.4102 109.7763,47.2949 109.7763,53.3695 117.5864,61.6136 119.322,65.0847 119.322,72.461 115.4169,77.6678 112.8136,79.4034 105.8712,79.4034 90.6847,73.3288" stroke="#00d4ff" stroke-width="2" /><polyline fill="none" points="67.2542,53.3695 68.5559,56.4068 67.2542,64.2169 64.2169,66.3864 52.5017,68.9898 50.7661,71.5932 51.6339,82.0068 49.4644,84.1763 42.522,85.478 36.8814,82.8746 36.8814,91.5525 55.9729,90.2508 58.1424,88.5153 56.8407,80.7051 57.7085,74.6305 59.878,72.461 65.9525,71.5932 73.3288,68.122 75.9322,64.2169 76.3661,58.1424" stroke="#ffe500" stroke-width="2" /><polyline fill="none" points="76.3661,65.9525 84.1763,72.461 89.8169,74.6305 96.3254,74.6305" stroke="#7f0000" stroke-width="2" /></svg>