<?xml version="1.0" encoding="utf-8" ?>
<svg baseProfile="tiny" height="128" version="1.2" viewBox="0,0,128,128" width="128" xmlns="http://www.w3.org/2000/svg" xmlns:ev="http://www.w3.org/2001/xml-events" xmlns:xlink="http://www.w3.org/1999/xlink"><defs /><polyline fill="none" points="16.0542,96.7593 13.0169,93.722 10.8475,89.3831 8.678,78.9695 9.5458,60.3119 15.6203,39.4847 23.8644,27.3356 32.5424,18.2237 42.522,12.1492 56.4068,8.678 68.122,9.5458 76.8,13.0169 88.0814,22.1288 91.9864,26.4678 96.7593,39.4847 98.9288,59.4441 96.3254,85.9119 100.6644,89.3831 111.9458,91.1186 114.1153,94.1559 115.8508,102.4 119.322,107.1729 114.9831,113.2475 111.5119,111.5119 105.4373,103.7017 89.8169,88.0814 88.5153,78.9695 85.0441,77.2339 78.9695,79.4034 69.4237,86.3458 68.9898,89.3831 71.5932,100.2305 70.2915,102.8339 65.9525,101.9661 55.1051,92.4203 53.3695,87.6475 50.7661,86.3458 40.7864,85.478 38.6169,86.3458 37.3153,96.3254 35.1458,98.9288 25.6,98.9288 19.0915,96.7593" stroke="#00007f" stroke-width="2" /><polyline fill="none" points="72.0271,28.6373 65.5186,36.4475 59.0102,50.3322 58.5763,62.4814 61.6136,66.8203 65.9525,68.5559 72.8949,67.2542 78.9695,61.1797 80.7051,56.4068 81.5729,44.2576 80.7051,37.7492 78.1017,32.1085" stroke="#7f0000" stroke-width="2" /></svg>