<?xml version="1.0" encoding="utf-8" ?>
<svg baseProfile="tiny" height="128" version="1.2" viewBox="0,0,128,128" width="128" xmlns="http://www.w3.org/2000/svg" xmlns:ev="http://www.w3.org/2001/xml-events" xmlns:xlink="http://www.w3.org/1999/xlink"><defs /><polyline fill="none" points="47.7288,39.0508 51.2,36.4475 56.4068,34.7119 71.1593,34.7119 92.8542,39.4847 107.1729,39.4847 114.5492,42.0881 119.322,49.0305 118.4542,60.7458 119.322,77.6678 117.5864,82.0068 115.8508,84.1763 110.2102,86.3458 104.5695,85.0441 101.5322,80.7051 98.061,65.5186 93.722,62.4814 88.0814,68.122 85.478,79.4034 76.8,82.8746 74.6305,79.8373 73.7627,65.5186 70.2915,62.4814 65.9525,62.0475 64.2169,68.5559 64.2169,81.5729 57.2746,82.4407 52.9356,62.9153 49.4644,60.7458 45.5593,60.3119 40.3525,69.8576 40.3525,78.5356 36.8814,78.9695 34.278,75.9322 32.9763,69.8576 32.1085,49.4644" stroke="#00007f" stroke-width="2" /><polyline fill="none" points="49.4644,36.8814 32.1085,17.7898 26.4678,9.5458 20.8271,8.678 11.7153,24.7322 8.678,36.0136 9.1119,41.2203 12.5831,45.9932 20.3932,49.4644 30.8068,45.9932" stroke="#7f0000" stroke-width="2" /></svg>