<?xml version="1.0" encoding="utf-8" ?>
<svg baseProfile="tiny" height="128" version="1.2" viewBox="0,0,128,128" width="128" xmlns="http://www.w3.org/2000/svg" xmlns:ev="http://www.w3.org/2001/xml-events" xmlns:xlink="http://www.w3.org/1999/xlink"><defs /><polyline fill="none" points="45.1254,13.4508 32.9763,16.0542 22.5627,22.5627" stroke="#00007f" stroke-width="2" /><polyline fill="none" points="15.1864,43.3898 14.7525,44.2576" stroke="#0000d5" stroke-width="2" /><polyline fill="none" points="14.7525,44.2576 14.7525,43.3898" stroke="#001cff" stroke-width="2" /><polyline fill="none" points="27.7695,18.6576 26.0339,19.0915" stroke="#006cff" stroke-width="2" /><polyline fill="none" points="23.8644,21.261 19.5254,29.939 15.6203,43.8237 12.5831,48.1627 8.678,49.0305 11.2814,50.7661 17.3559,51.6339 20.8271,49.8983 26.4678,32.9763 30.8068,26.9017 36.4475,24.7322 39.4847,24.7322 41.2203,27.3356 42.0881,42.0881 45.1254,45.5593 49.8983,47.2949 68.122,50.7661 85.0441,51.2 105.4373,45.5593 117.1525,39.0508 119.322,33.4102 118.4542,26.9017 108.9085,16.922 98.9288,13.4508 65.5186,8.678 57.2746,9.1119 44.2576,13.0169" stroke="#00b8ff" stroke-width="2" /><polyline fill="none" points="50.3322,47.7288 50.3322,47.7288" stroke="#1cffda" stroke-width="2" /><polyline fill="none" points="50.3322,47.7288 45.9932,58.5763 58.5763,59.0102 60.7458,50.7661" stroke="#5cff9a" stroke-width="2" /><polyline fill="none" points="72.8949,50.7661 72.8949,50.7661" stroke="#9aff5c" stroke-width="2" /><polyline fill="none" points="73.3288,51.6339 75.4983,62.0475 78.1017,62.4814 94.1559,59.878 94.5898,58.1424 91.1186,49.8983" stroke="#daff1c" stroke-width="2" /><polyline fill="none" points="98.061,47.7288 98.061,47.7288" stroke="#ffcb00" stroke-width="2" /><polyline fill="none" points="98.061,47.7288 108.0407,55.539 115.8508,50.3322 112.3797,45.9932 108.0407,44.2576" stroke="#ff8500" stroke-width="2" /><polyline fill="none" points="17.7898,33.4102 21.6949,33.4102 23.8644,35.5797" stroke="#ff3b00" stroke-width="2" /><polyline fill="none" points="23.8644,35.5797 23.8644,36.0136" stroke="#d50000" stroke-width="2" /><polyline fill="none" points="17.7898,37.3153 24.2983,39.0508" stroke="#7f0000" stroke-width="2" /></svg>