<?xml version="1.0" encoding="utf-8" ?>
<svg baseProfile="tiny" height="128" version="1.2" viewBox="0,0,128,128" width="128" xmlns="http://www.w3.org/2000/svg" xmlns:ev="http://www.w3.org/2001/xml-events" xmlns:xlink="http://www.w3.org/1999/xlink"><defs /><polyline fill="none" points="51.2877,35.0685 49.5342,28.0548 50.8493,21.0411 58.7397,17.0959 69.2603,15.7808 75.8356,17.9726 80.2192,21.9178 84.6027,31.5616 84.1644,39.0137" stroke="#00007f" stroke-width="2" /><polyline fill="none" points="71.0137,13.1507 76.274,9.6438 81.5342,8.7671 90.3014,14.9041 92.9315,17.9726 92.9315,22.3562 90.7397,26.3014 87.2329,26.7397" stroke="#0000e8" stroke-width="2" /><polyline fill="none" points="49.5342,34.1918 44.7123,39.8904 40.7671,49.0959 37.6986,51.2877 19.2877,52.1644 13.1507,49.9726 8.7671,46.4658 8.7671,54.3562 11.8356,60.0548 19.2877,62.6849 29.8082,64.0 40.7671,62.6849 44.7123,57.4247 48.2192,46.9041 52.6027,42.0822 55.6712,46.4658 62.2466,49.9726 76.7123,49.9726 84.6027,42.9589 88.5479,37.2603 87.2329,35.0685" stroke="#0038ff" stroke-width="2" /><polyline fill="none" points="65.7534,24.9863 61.3699,29.3699 67.5068,28.4932 64.0,26.3014 60.9315,26.7397 64.4384,26.3014" stroke="#0094ff" stroke-width="2" /><polyline fill="none" points="56.1096,46.0274 63.1233,42.9589 66.6301,39.0137" stroke="#0cf4ea" stroke-width="2" /><polyline fill="none" points="89.863,32.0 111.7808,30.6849 118.3562,32.4384" stroke="#56ffa0" stroke-width="2" /><polyline fill="none" points="87.2329,44.7123 111.7808,45.1507 114.8493,42.5205" stroke="#a0ff56" stroke-width="2" /><polyline fill="none" points="91.6164,46.4658 92.4932,55.2329 85.4795,55.6712" stroke="#eaff0c" stroke-width="2" /><polyline fill="none" points="100.3836,46.0274 101.6986,54.3562 94.6849,54.7945" stroke="#ffaa00" stroke-width="2" /><polyline fill="none" points="107.8356,43.8356 110.9041,53.9178 105.6438,55.6712" stroke="#ff5500" stroke-width="2" /><polyline fill="none" points="114.411,42.5205 117.0411,49.9726 113.5342,53.9178" stroke="#e80000" stroke-width="2" /><polyline fill="none" points="118.7945,32.0 119.2329,40.3288" stroke="#7f0000" stroke-width="2" /></svg>