<?xml version="1.0" encoding="utf-8" ?>
<svg baseProfile="tiny" height="128" version="1.2" viewBox="0,0,128,128" width="128" xmlns="http://www.w3.org/2000/svg" xmlns:ev="http://www.w3.org/2001/xml-events" xmlns:xlink="http://www.w3.org/1999/xlink"><defs /><polyline fill="none" points="73.3288,9.1119 66.8203,16.4881 63.7831,23.4305 63.3492,35.1458 66.3864,39.4847" stroke="#00007f" stroke-width="2" /><polyline fill="none" points="73.3288,8.678 85.0441,11.2814 91.1186,32.9763 95.0237,39.4847 105.4373,48.5966 119.322,49.8983 117.5864,54.2373 105.0034,53.8034 89.8169,46.4271 78.1017,43.8237" stroke="#0080ff" stroke-width="2" /><polyline fill="none" points="66.3864,39.0508 67.2542,43.3898 70.2915,45.1254 83.7424,44.6915" stroke="#7cff79" stroke-width="2" /><polyline fill="none" points="80.7051,22.9966 80.2712,29.5051 80.2712,21.261" stroke="#ff9400" stroke-width="2" /><polyline fill="none" points="62.0475,29.5051 31.2407,25.6 15.6203,26.9017 11.7153,36.0136 8.678,54.2373 9.9797,64.2169 15.1864,74.6305 20.3932,75.9322 26.4678,74.6305 27.7695,70.7254 28.6373,56.4068 28.6373,77.2339 34.7119,79.8373 39.9186,79.4034 42.0881,77.6678 42.9559,73.7627 42.522,53.3695 52.5017,53.8034 63.3492,52.0678 63.7831,87.6475 75.0644,87.6475 75.0644,59.878 77.2339,89.8169 101.5322,91.1186 101.5322,86.7797" stroke="#7f0000" stroke-width="2" /></svg>