<?xml version="1.0" encoding="utf-8" ?>
<svg baseProfile="tiny" height="128" version="1.2" viewBox="0,0,128,128" width="128" xmlns="http://www.w3.org/2000/svg" xmlns:ev="http://www.w3.org/2001/xml-events" xmlns:xlink="http://www.w3.org/1999/xlink"><defs /><polyline fill="none" points="59.4441,60.7458 58.5763,59.4441 55.9729,70.7254 53.8034,94.1559 48.1627,99.7966 39.0508,100.2305 38.1831,105.8712 36.0136,108.0407 39.9186,110.2102 48.1627,110.6441 59.0102,107.1729 65.9525,101.5322 69.4237,91.5525 69.8576,63.7831" stroke="#00007f" stroke-width="2" /><polyline fill="none" points="59.4441,73.7627 65.9525,74.6305" stroke="#0028ff" stroke-width="2" /><polyline fill="none" points="57.2746,90.2508 65.9525,93.722" stroke="#00d4ff" stroke-width="2" /><polyline fill="none" points="49.0305,106.3051 52.0678,107.6068" stroke="#7cff79" stroke-width="2" /><polyline fill="none" points="72.0271,62.9153 72.8949,71.5932 78.5356,86.3458 83.7424,88.5153 90.2508,88.5153 95.8915,85.0441 106.3051,70.7254 110.2102,62.4814 111.9458,50.3322 109.3424,47.2949 117.1525,35.1458 119.322,28.6373 119.322,22.1288 115.8508,16.0542 107.1729,9.5458 94.5898,9.1119 89.8169,10.4136 83.3085,14.3186 79.4034,19.5254 76.3661,27.3356 69.8576,22.5627 59.878,21.261 48.1627,21.261 39.0508,25.6 38.1831,18.6576 33.4102,11.7153 28.2034,8.678 22.5627,8.678 14.7525,13.4508 11.7153,17.3559 8.678,28.2034 9.5458,38.1831 13.4508,45.1254 27.3356,47.2949 19.5254,62.4814 19.5254,66.8203 22.1288,72.461 31.2407,82.4407 39.0508,84.1763 44.6915,81.139 51.6339,75.0644 57.7085,65.0847" stroke="#ffe500" stroke-width="2" /><polyline fill="none" points="52.0678,32.1085 49.4644,30.8068 50.7661,28.6373 53.8034,28.6373 55.1051,29.939 53.8034,35.5797 48.5966,36.0136 48.5966,32.1085 52.0678,29.939 51.2,32.5424 48.5966,33.4102 50.7661,31.2407 51.6339,32.9763 48.1627,35.1458" stroke="#ff4600" stroke-width="2" /><polyline fill="none" points="71.1593,33.4102 67.6881,36.0136 67.2542,33.8441" stroke="#7f0000" stroke-width="2" /></svg>