<?xml version="1.0" encoding="utf-8" ?>
<svg baseProfile="tiny" height="128" version="1.2" viewBox="0,0,128,128" width="128" xmlns="http://www.w3.org/2000/svg" xmlns:ev="http://www.w3.org/2001/xml-events" xmlns:xlink="http://www.w3.org/1999/xlink"><defs /><polyline fill="none" points="49.1973,37.0068 45.2789,33.9592 38.3129,21.7687 30.0408,12.1905 17.8503,11.7551 11.3197,16.9796 10.8844,26.1224 13.0612,35.7007 13.4966,43.9728 10.0136,48.7619 8.7075,63.1293 10.8844,70.966 14.3673,76.6259 18.7211,79.6735 30.0408,81.8503 33.0884,80.5442 38.3129,74.8844 45.2789,36.5714 48.7619,29.6054 54.4218,24.8163 60.517,24.8163 70.966,28.2993 84.898,39.1837 90.5578,47.8912 90.9932,54.8571 88.8163,59.2109 78.3673,66.1769 69.6599,67.0476 46.1497,64.8707 37.0068,60.0816 35.7007,57.4694" stroke="#00007f" stroke-width="2" /><polyline fill="none" points="86.6395,42.6667 85.7687,33.5238 89.6871,15.2381 90.9932,12.1905 94.4762,9.5782 101.8776,8.7075 116.2449,23.0748 118.8571,27.4286 119.2925,34.3946 114.5034,40.9252 113.6327,44.8435 114.5034,52.2449 118.8571,61.8231" stroke="#7f0000" stroke-width="2" /></svg>