<?xml version="1.0" encoding="utf-8" ?>
<svg baseProfile="tiny" height="128" version="1.2" viewBox="0,0,128,128" width="128" xmlns="http://www.w3.org/2000/svg" xmlns:ev="http://www.w3.org/2001/xml-events" xmlns:xlink="http://www.w3.org/1999/xlink"><defs /><polyline fill="none" points="28.7347,24.381 22.6395,20.0272 14.3673,19.1565 9.5782,23.5102 8.7075,29.6054 17.415,42.2313 15.6735,54.4218 18.7211,60.9524 23.9456,62.2585 28.2993,60.0816 33.5238,52.2449" stroke="#00007f" stroke-width="2" /><polyline fill="none" points="31.7823,23.9456 31.7823,22.2041 35.2653,18.7211 47.8912,14.3673 59.6463,14.3673 63.5646,17.415 64.0,19.5918" stroke="#0000ff" stroke-width="2" /><polyline fill="none" points="31.3469,43.102 34.3946,54.8571 38.3129,58.3401 41.7959,59.2109" stroke="#0080ff" stroke-width="2" /><polyline fill="none" points="47.0204,50.9388 45.7143,67.483 39.619,88.8163 40.4898,91.4286 43.9728,93.6054 48.3265,92.7347 54.4218,89.2517 57.4694,84.898 55.2925,52.2449" stroke="#15ffe1" stroke-width="2" /><polyline fill="none" points="57.034,59.2109 66.6122,57.4694 71.8367,52.6803 75.7551,44.4082 74.8844,41.3605" stroke="#7cff79" stroke-width="2" /><polyline fill="none" points="65.3061,15.2381 67.0476,12.1905 76.6259,8.7075 81.8503,8.7075 84.898,11.7551 84.898,18.7211 81.415,29.6054 87.5102,40.0544 87.9456,44.8435 83.1565,53.551 77.0612,57.034 75.3197,56.5986" stroke="#e4ff12" stroke-width="2" /><polyline fill="none" points="40.0544,34.8299 41.7959,39.619" stroke="#ff9400" stroke-width="2" /><polyline fill="none" points="59.6463,35.7007 59.6463,37.8776" stroke="#ff1d00" stroke-width="2" /><polyline fill="none" points="37.4422,58.3401 35.2653,70.5306 35.2653,98.8299 38.3129,115.3741 42.2313,119.2925" stroke="#7f0000" stroke-width="2" /></svg>