<?xml version="1.0" encoding="utf-8" ?>
<svg baseProfile="tiny" height="128" version="1.2" viewBox="0,0,128,128" width="128" xmlns="http://www.w3.org/2000/svg" xmlns:ev="http://www.w3.org/2001/xml-events" xmlns:xlink="http://www.w3.org/1999/xlink"><defs /><polyline fill="none" points="94.4762,10.8844 105.7959,8.7075 110.585,10.8844 113.6327,14.8027 114.9388,21.3333 119.2925,29.6054 119.2925,33.5238 117.1156,34.3946 113.6327,33.5238 110.585,29.6054 107.102,22.6395 101.8776,19.1565 93.1701,17.415 88.8163,20.0272" stroke="#00007f" stroke-width="2" /><polyline fill="none" points="90.9932,18.7211 86.2041,26.5578 86.2041,49.6327 88.381,58.3401 79.6735,59.6463 78.8027,27.4286 77.0612,23.9456 71.4014,21.3333 63.5646,21.7687 57.034,27.4286 52.6803,40.9252 52.2449,57.034 37.4422,57.9048 36.5714,36.1361 31.3469,20.4626 24.381,16.9796 14.3673,30.0408 8.7075,34.8299 15.2381,20.898 24.381,13.932" stroke="#7f0000" stroke-width="2" /></svg>