<?xml version="1.0" encoding="utf-8" ?>
<svg baseProfile="tiny" height="128" version="1.2" viewBox="0,0,128,128" width="128" xmlns="http://www.w3.org/2000/svg" xmlns:ev="http://www.w3.org/2001/xml-events" xmlns:xlink="http://www.w3.org/1999/xlink"><defs /><polyline fill="none" points="62.9153,23.8644 40.7864,23.4305 26.0339,25.6 18.2237,29.5051 12.5831,40.3525 8.678,83.3085 25.6,85.0441 31.2407,83.3085 33.4102,79.4034 34.278,63.7831 46.861,68.122 59.0102,65.9525 56.8407,85.9119 75.4983,86.7797 75.0644,50.7661" stroke="#00007f" stroke-width="2" /><polyline fill="none" points="95.0237,13.0169 91.5525,9.9797 79.8373,8.678 70.2915,13.4508 68.5559,16.0542 68.122,19.5254 75.9322,26.4678 67.6881,34.278 65.9525,38.6169 66.3864,43.8237 71.5932,49.8983 82.4407,53.8034 92.4203,55.1051" stroke="#0080ff" stroke-width="2" /><polyline fill="none" points="60.3119,25.1661 72.461,24.2983" stroke="#7cff79" stroke-width="2" /><polyline fill="none" points="91.5525,11.7153 110.2102,21.261 112.3797,25.1661 113.2475,33.8441 103.7017,42.522 101.9661,45.1254 101.9661,48.5966 116.2847,62.0475 119.322,83.3085 118.0203,86.3458 113.6814,88.5153 111.078,88.9492 111.9458,86.3458 108.4746,87.2136 107.6068,85.478 113.2475,79.8373 112.8136,74.1966 108.9085,65.5186 106.3051,61.6136 99.7966,56.4068 91.5525,53.8034" stroke="#ff9400" stroke-width="2" /><polyline fill="none" points="99.7966,25.6 98.4949,26.0339 100.2305,26.9017 103.7017,26.0339 105.4373,24.2983 102.4,26.0339 103.2678,27.3356 103.7017,24.2983 102.4,24.2983 101.0983,26.9017 105.0034,27.7695 105.0034,24.2983 102.4,25.6 101.9661,27.3356" stroke="#7f0000" stroke-width="2" /></svg>