<?xml version="1.0" encoding="utf-8" ?>
<svg baseProfile="tiny" height="128" version="1.2" viewBox="0,0,128,128" width="128" xmlns="http://www.w3.org/2000/svg" xmlns:ev="http://www.w3.org/2001/xml-events" xmlns:xlink="http://www.w3.org/1999/xlink"><defs /><polyline fill="none" points="52.5017,15.6203 47.7288,15.6203 41.2203,19.0915 37.7492,26.0339 37.3153,32.9763 39.4847,39.0508 42.522,41.6542 49.8983,44.2576 55.1051,43.8237 59.0102,41.2203 63.3492,33.8441 63.7831,23.4305 59.0102,18.2237 53.8034,16.922 47.2949,17.7898" stroke="#00007f" stroke-width="2" /><polyline fill="none" points="42.0881,30.8068 35.1458,31.2407 26.4678,34.7119 15.6203,43.3898 8.678,51.6339 13.0169,53.8034 18.2237,46.4271 28.6373,39.9186 35.1458,37.3153 42.522,36.4475" stroke="#0000f1" stroke-width="2" /><polyline fill="none" points="53.3695,22.1288 51.2,19.0915 50.3322,13.4508 55.1051,9.5458 60.7458,8.678 68.5559,13.4508 72.8949,22.5627 73.7627,30.8068 72.0271,35.5797 56.8407,36.8814" stroke="#004cff" stroke-width="2" /><polyline fill="none" points="59.878,37.3153 59.878,37.3153" stroke="#00b0ff" stroke-width="2" /><polyline fill="none" points="73.3288,26.4678 78.5356,24.7322 91.9864,24.2983 100.2305,25.6 105.4373,28.6373 108.0407,32.9763 108.4746,37.3153 104.1356,55.1051 101.5322,55.539 67.2542,47.2949 56.4068,42.522 59.0102,38.6169" stroke="#29ffcd" stroke-width="2" /><polyline fill="none" points="61.6136,43.3898 58.5763,59.0102 59.4441,64.6508 65.9525,66.8203 68.9898,65.9525 68.9898,49.0305" stroke="#7cff79" stroke-width="2" /><polyline fill="none" points="70.2915,58.1424 78.1017,58.1424 78.9695,48.5966" stroke="#cdff29" stroke-width="2" /><polyline fill="none" points="85.9119,49.4644 85.0441,68.5559 91.5525,69.4237 93.722,68.122 94.5898,62.4814 93.722,51.2" stroke="#ffc400" stroke-width="2" /><polyline fill="none" points="96.3254,62.0475 102.4,61.6136 101.5322,53.8034" stroke="#ff6700" stroke-width="2" /><polyline fill="none" points="106.739,31.6746 111.5119,26.4678 119.322,24.7322" stroke="#f10700" stroke-width="2" /><polyline fill="none" points="108.0407,30.8068 118.8881,26.0339" stroke="#7f0000" stroke-width="2" /></svg>