<?xml version="1.0" encoding="utf-8" ?>
<svg baseProfile="tiny" height="128" version="1.2" viewBox="0,0,128,128" width="128" xmlns="http://www.w3.org/2000/svg" xmlns:ev="http://www.w3.org/2001/xml-events" xmlns:xlink="http://www.w3.org/1999/xlink"><defs /><polyline fill="none" points="52.9356,39.0508 44.2576,39.0508 39.9186,43.8237 37.3153,53.8034 36.0136,67.2542 33.8441,72.0271 31.2407,74.6305 25.6,76.3661 17.7898,76.3661 16.0542,74.6305 9.5458,80.7051 8.678,83.3085 12.1492,86.7797 18.2237,88.9492 27.3356,89.8169 32.9763,88.0814 38.1831,84.6102 42.9559,76.8 45.9932,51.6339 47.7288,48.5966 54.6712,47.2949 58.1424,49.0305" stroke="#00007f" stroke-width="2" /><polyline fill="none" points="54.2373,39.0508 54.2373,39.0508" stroke="#00d4ff" stroke-width="2" /><polyline fill="none" points="59.878,48.1627 52.5017,54.2373 47.2949,66.8203 46.861,75.4983 49.8983,86.7797 49.8983,73.3288 51.6339,68.122 73.3288,50.7661" stroke="#ffe500" stroke-width="2" /><polyline fill="none" points="53.8034,37.3153 60.3119,36.8814 61.6136,29.939 66.8203,24.2983 75.9322,24.7322 76.8,17.7898 84.6102,13.0169 94.5898,9.5458 105.4373,8.678 117.1525,17.3559 119.322,24.7322 118.4542,41.6542 114.1153,50.3322 104.1356,53.8034 98.061,51.2 89.3831,42.9559 88.5153,45.9932 90.6847,56.4068 90.2508,68.122 85.0441,75.4983 81.5729,75.4983 67.2542,64.2169" stroke="#7f0000" stroke-width="2" /></svg>