<?xml version="1.0" encoding="utf-8" ?>
<svg baseProfile="tiny" height="128" version="1.2" viewBox="0,0,128,128" width="128" xmlns="http://www.w3.org/2000/svg" xmlns:ev="http://www.w3.org/2001/xml-events" xmlns:xlink="http://www.w3.org/1999/xlink"><defs /><polyline fill="none" points="57.2746,31.6746 53.3695,28.2034 46.861,26.4678 41.6542,26.4678 39.0508,27.7695 34.278,32.5424 25.1661,52.0678 28.2034,58.1424 39.4847,69.4237 45.1254,72.8949 53.8034,76.3661 71.5932,78.1017 80.2712,75.0644 84.6102,69.4237 86.7797,53.3695 84.6102,46.861 76.3661,38.1831 62.9153,32.1085 51.6339,29.939" stroke="#00007f" stroke-width="2" /><polyline fill="none" points="50.7661,60.7458 47.2949,58.1424 40.3525,58.1424 36.4475,69.8576 36.0136,88.0814 34.278,92.8542 30.8068,97.6271 23.4305,100.6644 11.7153,100.6644 11.2814,98.9288" stroke="#0080ff" stroke-width="2" /><polyline fill="none" points="49.0305,61.6136 47.2949,63.7831 48.1627,78.9695 42.0881,95.4576 36.0136,104.1356 23.8644,112.3797 20.8271,112.8136 16.4881,111.5119 11.2814,108.9085 10.4136,107.1729 10.4136,95.0237" stroke="#7cff79" stroke-width="2" /><polyline fill="none" points="77.6678,42.522 78.5356,35.1458 82.8746,29.939 88.0814,26.9017 91.9864,26.0339 104.1356,26.4678 110.6441,29.939 111.9458,42.522 108.0407,53.3695 118.8881,75.0644 119.322,78.9695 116.7186,80.7051 111.9458,81.5729 100.2305,80.7051 90.2508,73.7627 87.2136,65.5186 84.1763,60.7458" stroke="#ff9400" stroke-width="2" /><polyline fill="none" points="45.9932,23.8644 42.9559,17.7898 37.7492,12.1492 28.6373,8.678 25.6,9.1119 18.6576,18.6576 19.9593,32.5424 17.3559,40.7864 8.678,51.2" stroke="#7f0000" stroke-width="2" /></svg>