<?xml version="1.0" encoding="utf-8" ?>
<svg baseProfile="tiny" height="128" version="1.2" viewBox="0,0,128,128" width="128" xmlns="http://www.w3.org/2000/svg" xmlns:ev="http://www.w3.org/2001/xml-events" xmlns:xlink="http://www.w3.org/1999/xlink"><defs /><polyline fill="none" points="59.2109,13.4966 73.1429,9.5782 80.9796,8.7075 94.4762,8.7075 103.1837,11.3197 105.7959,17.8503 105.7959,50.068 100.1361,52.6803 93.6054,51.3741 91.8639,48.7619 89.2517,33.9592 75.3197,32.6531 71.4014,33.5238 73.1429,45.7143 72.2721,49.6327 68.3537,50.5034 59.2109,49.6327 57.034,32.2177" stroke="#00007f" stroke-width="2" /><polyline fill="none" points="44.8435,18.7211 40.9252,18.2857 36.1361,20.0272 32.2177,25.6871 30.4762,34.8299 27.8639,37.8776 19.5918,38.7483 8.7075,35.7007 8.7075,47.0204 18.7211,47.4558 31.3469,45.7143 37.0068,42.2313 43.5374,30.9116 48.3265,29.1701" stroke="#00d4ff" stroke-width="2" /><polyline fill="none" points="40.0544,20.898 43.5374,13.0612 50.068,9.5782 56.5986,10.0136 61.8231,15.6735 61.8231,26.5578 55.2925,35.2653 49.1973,35.2653 42.6667,26.1224" stroke="#ffe500" stroke-width="2" /><polyline fill="none" points="102.7483,16.9796 111.0204,17.415 119.2925,22.6395" stroke="#7f0000" stroke-width="2" /></svg>