<?xml version="1.0" encoding="utf-8" ?>
<svg baseProfile="tiny" height="128" version="1.2" viewBox="0,0,128,128" width="128" xmlns="http://www.w3.org/2000/svg" xmlns:ev="http://www.w3.org/2001/xml-events" xmlns:xlink="http://www.w3.org/1999/xlink"><defs /><polyline fill="none" points="78.3673,16.5442 69.6599,15.6735 64.0,18.7211 57.9048,25.6871 56.5986,29.6054 57.034,34.3946 61.8231,39.1837 78.3673,47.4558 87.9456,48.7619 92.7347,47.4558 95.7823,40.4898 94.4762,31.7823 79.2381,18.2857" stroke="#00007f" stroke-width="2" /><polyline fill="none" points="81.8503,20.898 104.0544,20.4626 107.5374,21.3333 112.7619,25.6871 117.9864,33.0884 119.2925,41.7959 110.585,64.8707 90.5578,62.2585 95.7823,44.8435 95.3469,38.3129" stroke="#0000fe" stroke-width="2" /><polyline fill="none" points="64.0,18.7211 52.6803,13.4966 33.0884,8.7075 23.0748,9.5782 16.9796,14.3673 10.449,27.4286 8.7075,35.2653 8.7075,40.9252 12.1905,43.9728 36.1361,56.1633 44.4082,57.034 50.5034,52.2449 54.8571,45.2789 53.551,31.3469 55.2925,29.6054" stroke="#0060ff" stroke-width="2" /><polyline fill="none" points="65.7415,27.8639 65.7415,27.8639" stroke="#00d4ff" stroke-width="2" /><polyline fill="none" points="74.449,28.2993 74.449,28.2993" stroke="#4cffaa" stroke-width="2" /><polyline fill="none" points="80.5442,29.6054 80.9796,30.0408" stroke="#aaff4c" stroke-width="2" /><polyline fill="none" points="70.5306,36.1361 68.7891,64.8707 72.7075,66.6122 82.2857,67.483 84.898,57.4694 84.0272,46.585 81.415,40.4898 70.966,37.0068" stroke="#ffe500" stroke-width="2" /><polyline fill="none" points="69.6599,55.7279 73.5782,53.1156 81.8503,56.1633 84.898,58.7755 83.5918,63.5646" stroke="#ff7a00" stroke-width="2" /><polyline fill="none" points="67.0476,62.2585 74.8844,60.0816" stroke="#fe1200" stroke-width="2" /><polyline fill="none" points="75.3197,59.6463 75.7551,59.6463" stroke="#7f0000" stroke-width="2" /></svg>