<?xml version="1.0" encoding="utf-8" ?>
<svg baseProfile="tiny" height="128" version="1.2" viewBox="0,0,128,128" width="128" xmlns="http://www.w3.org/2000/svg" xmlns:ev="http://www.w3.org/2001/xml-events" xmlns:xlink="http://www.w3.org/1999/xlink"><defs /><polyline fill="none" points="54.2373,19.9593 45.1254,19.9593 29.0712,22.1288 16.0542,29.939 13.0169,33.4102 11.7153,37.3153 15.6203,46.861 18.6576,48.5966 34.7119,49.4644 40.3525,46.861 43.8237,36.8814 46.861,17.3559" stroke="#00007f" stroke-width="2" /><polyline fill="none" points="43.8237,19.0915 47.7288,16.4881 54.2373,16.922 58.1424,27.7695 58.1424,34.7119 56.4068,42.522 46.861,49.4644" stroke="#0010ff" stroke-width="2" /><polyline fill="none" points="27.3356,18.6576 17.3559,16.922 9.5458,21.261 8.678,24.7322 9.9797,33.8441 16.4881,46.4271" stroke="#00a4ff" stroke-width="2" /><polyline fill="none" points="39.9186,49.8983 46.4271,54.6712 52.9356,55.539 58.5763,54.2373 70.2915,50.7661 75.9322,46.861 78.5356,42.0881" stroke="#3fffb7" stroke-width="2" /><polyline fill="none" points="52.0678,53.8034 55.539,43.3898 67.6881,22.1288 80.2712,11.7153 89.3831,8.678 92.8542,9.1119 110.6441,18.6576 117.1525,32.1085 117.5864,45.9932 107.1729,59.0102 100.2305,63.3492 89.3831,66.3864 69.8576,66.8203 50.3322,62.0475 44.6915,58.5763 44.6915,55.539" stroke="#b7ff3f" stroke-width="2" /><polyline fill="none" points="53.3695,54.6712 53.8034,75.9322 59.0102,82.0068 65.0847,81.5729 67.6881,79.8373 72.8949,68.122" stroke="#ffb900" stroke-width="2" /><polyline fill="none" points="105.0034,61.1797 108.4746,71.1593 114.1153,75.9322 116.2847,75.9322 118.4542,72.461 119.322,68.5559 118.8881,55.1051 116.2847,50.7661" stroke="#ff3000" stroke-width="2" /><polyline fill="none" points="93.2881,67.6881 98.061,68.5559 107.1729,75.0644 117.1525,76.3661" stroke="#7f0000" stroke-width="2" /></svg>