<?xml version="1.0" encoding="utf-8" ?>
<svg baseProfile="tiny" height="128" version="1.2" viewBox="0,0,128,128" width="128" xmlns="http://www.w3.org/2000/svg" xmlns:ev="http://www.w3.org/2001/xml-events" xmlns:xlink="http://www.w3.org/1999/xlink"><defs /><polyline fill="none" points="19.9593,36.8814 18.6576,36.8814 16.0542,42.522 11.7153,55.539 8.678,67.6881 10.4136,68.5559 29.939,70.7254 29.939,51.6339 32.1085,45.5593 36.4475,43.8237 49.0305,42.0881 56.4068,44.2576 52.5017,58.5763 52.0678,68.5559 53.3695,70.7254 73.3288,71.1593 72.8949,58.1424 75.0644,47.7288 82.0068,47.2949 87.6475,49.8983" stroke="#00007f" stroke-width="2" /><polyline fill="none" points="21.261,39.0508 12.5831,22.9966 12.1492,19.5254 13.4508,16.0542 17.3559,12.1492 23.4305,9.5458 43.8237,8.678 56.8407,10.4136 70.2915,14.3186 84.6102,22.9966 91.9864,30.8068 93.722,40.7864 89.3831,48.5966 85.478,50.3322 79.4034,50.3322 70.2915,45.5593" stroke="#00d4ff" stroke-width="2" /><polyline fill="none" points="84.1763,45.5593 84.6102,45.5593" stroke="#ffe500" stroke-width="2" /><polyline fill="none" points="86.7797,44.2576 96.3254,41.6542 104.1356,44.6915 113.6814,57.7085 119.322,75.0644 114.1153,70.7254 103.7017,68.5559 95.4576,62.0475 91.1186,57.2746 84.1763,45.1254" stroke="#7f0000" stroke-width="2" /></svg>