<?xml version="1.0" encoding="utf-8" ?>
<svg baseProfile="tiny" height="128" version="1.2" viewBox="0,0,128,128" width="128" xmlns="http://www.w3.org/2000/svg" xmlns:ev="http://www.w3.org/2001/xml-events" xmlns:xlink="http://www.w3.org/1999/xlink"><defs /><polyline fill="none" points="42.0881,11.7153 84.6102,12.1492 99.3627,16.0542 107.1729,22.1288 115.4169,31.2407 118.8881,52.9356 119.322,82.4407 116.7186,84.6102 99.7966,82.8746 89.3831,59.4441 80.7051,58.1424 68.9898,58.1424 61.6136,62.0475 61.1797,83.7424 49.8983,86.3458 37.7492,86.3458 33.8441,83.3085 32.5424,68.9898 32.5424,59.0102 33.8441,57.2746" stroke="#00007f" stroke-width="2" /><polyline fill="none" points="30.8068,13.0169 31.6746,9.1119 40.7864,8.678 47.2949,13.0169 51.2,19.5254 50.7661,24.2983 48.1627,29.5051 38.1831,34.278 31.6746,34.7119" stroke="#0080ff" stroke-width="2" /><polyline fill="none" points="28.2034,10.8475 17.3559,15.1864 11.2814,22.1288 9.1119,29.939 8.678,52.0678 11.2814,65.0847 18.2237,64.2169 18.6576,53.8034 22.1288,49.4644 27.3356,49.4644 30.3729,51.2 31.2407,62.0475" stroke="#7cff79" stroke-width="2" /><polyline fill="none" points="29.5051,33.4102 29.5051,33.4102" stroke="#ff9400" stroke-width="2" /><polyline fill="none" points="22.5627,33.8441 22.9966,36.4475" stroke="#7f0000" stroke-width="2" /></svg>