<?xml version="1.0" encoding="utf-8" ?>
<svg baseProfile="tiny" height="128" version="1.2" viewBox="0,0,128,128" width="128" xmlns="http://www.w3.org/2000/svg" xmlns:ev="http://www.w3.org/2001/xml-events" xmlns:xlink="http://www.w3.org/1999/xlink"><defs /><polyline fill="none" points="67.6881,28.2034 53.8034,26.0339 43.8237,27.7695 34.7119,34.7119 31.6746,41.6542 31.2407,49.8983 32.9763,59.4441 39.0508,72.8949 47.7288,85.9119 49.8983,91.5525 49.8983,98.9288 47.7288,104.1356 43.3898,108.4746 34.278,110.6441 22.1288,109.3424 9.5458,103.2678 8.678,104.5695 9.5458,114.9831 21.6949,119.322 44.2576,118.0203 53.3695,115.4169 60.3119,110.6441 62.9153,102.4 61.6136,91.9864 59.4441,86.3458 51.2,75.0644 47.7288,62.4814" stroke="#00007f" stroke-width="2" /><polyline fill="none" points="47.7288,68.9898 50.3322,64.2169 54.6712,62.9153 69.8576,68.9898 82.0068,65.9525 84.1763,63.7831" stroke="#0080ff" stroke-width="2" /><polyline fill="none" points="62.4814,24.2983 68.9898,29.0712 73.3288,21.261 85.0441,12.1492 93.722,8.678 98.4949,10.8475 102.4,18.2237 106.739,41.2203 115.4169,54.2373 114.9831,64.6508 111.078,66.3864 104.5695,64.6508 99.7966,59.4441 91.5525,42.0881 83.7424,38.6169 79.4034,40.7864" stroke="#7cff79" stroke-width="2" /><polyline fill="none" points="79.8373,66.3864 82.4407,67.2542 86.3458,65.9525 91.1186,63.7831 95.0237,59.0102 96.3254,59.878" stroke="#ff9400" stroke-width="2" /><polyline fill="none" points="103.7017,25.1661 106.3051,25.6" stroke="#7f0000" stroke-width="2" /></svg>