<?xml version="1.0" encoding="utf-8" ?>
<svg baseProfile="tiny" height="128" version="1.2" viewBox="0,0,128,128" width="128" xmlns="http://www.w3.org/2000/svg" xmlns:ev="http://www.w3.org/2001/xml-events" xmlns:xlink="http://www.w3.org/1999/xlink"><defs /><polyline fill="none" points="65.9525,8.678 49.0305,9.1119 40.7864,23.8644 36.0136,35.1458 34.278,37.7492 31.2407,39.0508 22.9966,38.6169 19.9593,36.8814 16.922,28.2034 16.922,16.4881 14.7525,15.1864 9.5458,15.1864 8.678,38.1831 11.7153,46.4271 19.0915,53.3695 48.1627,64.2169 49.0305,68.5559 49.0305,92.4203 51.2,95.8915 68.5559,97.6271 70.2915,62.9153" stroke="#00007f" stroke-width="2" /><polyline fill="none" points="38.6169,61.1797 35.5797,63.7831 28.2034,77.2339 25.1661,87.2136 41.2203,91.9864 45.5593,83.3085 55.1051,73.7627" stroke="#7cff79" stroke-width="2" /><polyline fill="none" points="64.2169,10.8475 106.3051,9.9797 113.6814,13.4508 118.4542,19.0915 119.322,77.2339 117.1525,83.3085 108.4746,86.7797 97.6271,87.2136 98.4949,61.1797 96.3254,58.1424 94.1559,57.7085 91.5525,64.2169 89.3831,82.4407 81.5729,83.3085 81.139,79.4034 84.6102,59.878" stroke="#7f0000" stroke-width="2" /></svg>