<?xml version="1.0" encoding="utf-8" ?>
<svg baseProfile="tiny" height="128" version="1.2" viewBox="0,0,128,128" width="128" xmlns="http://www.w3.org/2000/svg" xmlns:ev="http://www.w3.org/2001/xml-events" xmlns:xlink="http://www.w3.org/1999/xlink"><defs /><polyline fill="none" points="39.0508,28.6373 33.8441,23.4305 27.7695,19.9593 20.8271,17.7898 13.8847,17.7898 11.2814,19.5254 8.678,26.4678 9.5458,36.0136 14.3186,46.861 22.5627,57.7085 48.1627,76.8 55.1051,80.7051" stroke="#00007f" stroke-width="2" /><polyline fill="none" points="41.6542,27.7695 42.9559,46.4271 54.2373,68.122 63.7831,78.5356 66.3864,79.4034 75.9322,78.5356 88.5153,69.4237 95.4576,53.3695 94.5898,42.9559 88.0814,31.6746 76.8,22.1288 63.7831,18.2237 54.2373,16.922 43.3898,16.922 39.0508,18.6576 37.3153,22.5627 36.4475,30.3729" stroke="#004cff" stroke-width="2" /><polyline fill="none" points="80.7051,17.3559 82.8746,13.8847 88.0814,9.9797 91.9864,8.678 101.0983,9.1119 112.8136,17.7898 118.4542,29.939 119.322,42.522 116.7186,45.9932 104.1356,54.2373 91.5525,58.1424" stroke="#29ffcd" stroke-width="2" /><polyline fill="none" points="68.9898,52.0678 69.4237,59.0102 75.0644,78.5356 85.478,100.6644 100.2305,112.8136 104.5695,114.9831 110.6441,114.1153" stroke="#cdff29" stroke-width="2" /><polyline fill="none" points="76.8,51.6339 78.9695,63.7831 97.6271,92.8542 106.739,105.0034 114.1153,108.9085 114.5492,111.9458 110.2102,115.8508 107.1729,116.7186 106.3051,114.9831" stroke="#ff6700" stroke-width="2" /><polyline fill="none" points="108.9085,114.9831 108.0407,110.6441 111.078,108.9085" stroke="#7f0000" stroke-width="2" /></svg>