<?xml version="1.0" encoding="utf-8" ?>
<svg baseProfile="tiny" height="128" version="1.2" viewBox="0,0,128,128" width="128" xmlns="http://www.w3.org/2000/svg" xmlns:ev="http://www.w3.org/2001/xml-events" xmlns:xlink="http://www.w3.org/1999/xlink"><defs /><polyline fill="none" points="68.9898,26.0339 68.5559,19.9593 64.6508,15.1864 58.1424,11.7153 49.0305,9.1119 19.0915,8.678 13.4508,11.7153 9.5458,18.2237 8.678,26.9017 15.1864,43.3898 23.4305,54.2373 28.6373,57.2746 32.1085,57.7085 41.6542,52.0678 48.1627,43.8237" stroke="#00007f" stroke-width="2" /><polyline fill="none" points="66.3864,22.9966 79.4034,21.261 95.4576,31.2407 98.4949,34.278 102.8339,58.1424 105.4373,65.9525 107.6068,68.9898 119.322,72.461 114.1153,78.5356 101.0983,73.7627 97.6271,67.6881 93.722,55.9729 86.3458,43.8237 81.5729,43.3898" stroke="#7cff79" stroke-width="2" /><polyline fill="none" points="82.8746,43.3898 82.0068,49.0305 82.4407,73.3288 76.3661,81.139 72.0271,94.1559 71.1593,94.1559" stroke="#7f0000" stroke-width="2" /></svg>