<?xml version="1.0" standalone="no"?>
<!DOCTYPE svg PUBLIC "-//W3C//DTD SVG 20010904//EN"
 "http://www.w3.org/TR/2001/REC-SVG-20010904/DTD/svg10.dtd">
<svg version="1.0" xmlns="http://www.w3.org/2000/svg"
 width="64.000000pt" height="64.000000pt" viewBox="0 0 64.000000 64.000000"
 preserveAspectRatio="xMidYMid meet">
<metadata>
Created by potrace 1.16, written by Peter Selinger 2001-2019
</metadata>
<g fill-opacity="0.5"><g transform="translate(0.000000,64.000000) scale(0.100000,-0.100000)"
fill="#00007f" stroke="none">
<path d="M166 443 c4 -31 0 -64 -10 -93 -22 -65 -9 -75 68 -49 41 14 95 22
174 25 64 2 118 6 121 9 2 3 -4 12 -15 20 -22 17 -113 12 -233 -11 -41 -8 -76
-12 -78 -10 -2 2 1 32 7 67 10 57 10 64 -6 76 -29 21 -33 16 -28 -34z"/>
</g>
<g transform="translate(0.000000,64.000000) scale(0.100000,-0.100000)"
fill="#0080ff" stroke="none">
<path d="M166 443 c4 -31 0 -64 -10 -93 -22 -65 -9 -75 68 -49 41 14 95 22
174 25 64 2 118 6 121 9 2 3 -4 12 -15 20 -22 17 -113 12 -233 -11 -41 -8 -76
-12 -78 -10 -2 2 1 32 7 67 10 57 10 64 -6 76 -29 21 -33 16 -28 -34z"/>
</g>
<g transform="translate(0.000000,64.000000) scale(0.100000,-0.100000)"
fill="#7cff79" stroke="none">
<path d="M166 443 c4 -31 0 -64 -10 -93 -22 -65 -9 -75 68 -49 41 14 95 22
174 25 64 2 118 6 121 9 2 3 -4 12 -15 20 -22 17 -113 12 -233 -11 -41 -8 -76
-12 -78 -10 -2 2 1 32 7 67 10 57 10 64 -6 76 -29 21 -33 16 -28 -34z"/>
</g>
<g transform="translate(0.000000,64.000000) scale(0.100000,-0.100000)"
fill="#ff9400" stroke="none">
<path d="M166 443 c4 -31 0 -64 -10 -93 -22 -65 -9 -75 68 -49 41 14 95 22
174 25 64 2 118 6 121 9 2 3 -4 12 -15 20 -22 17 -113 12 -233 -11 -41 -8 -76
-12 -78 -10 -2 2 1 32 7 67 10 57 10 64 -6 76 -29 21 -33 16 -28 -34z"/>
</g>
<g transform="translate(0.000000,64.000000) scale(0.100000,-0.100000)"
fill="#7f0000" stroke="none">
<path d="M166 443 c4 -31 0 -64 -10 -93 -22 -65 -9 -75 68 -49 41 14 95 22
174 25 64 2 118 6 121 9 2 3 -4 12 -15 20 -22 17 -113 12 -233 -11 -41 -8 -76
-12 -78 -10 -2 2 1 32 7 67 10 57 10 64 -6 76 -29 21 -33 16 -28 -34z"/>
</g>
</g></svg>
