<?xml version="1.0" standalone="no"?>
<!DOCTYPE svg PUBLIC "-//W3C//DTD SVG 20010904//EN"
 "http://www.w3.org/TR/2001/REC-SVG-20010904/DTD/svg10.dtd">
<svg version="1.0" xmlns="http://www.w3.org/2000/svg"
 width="64.000000pt" height="64.000000pt" viewBox="0 0 64.000000 64.000000"
 preserveAspectRatio="xMidYMid meet">
<metadata>
Created by potrace 1.16, written by Peter Selinger 2001-2019
</metadata>
<g fill-opacity="0.5"><g transform="translate(0.000000,64.000000) scale(0.100000,-0.100000)"
fill="#00007f" stroke="none">
<path d="M359 557 c-9 -12 -46 -37 -82 -55 -53 -27 -69 -32 -85 -23 -31 16
-32 15 -26 -36 4 -31 0 -64 -10 -93 -22 -64 -8 -75 64 -50 30 11 65 19 78 20
21 0 22 -4 22 -77 0 -98 -6 -108 -56 -99 l-39 7 50 -45 c28 -25 53 -45 56 -46
19 -1 31 68 28 162 l-4 103 78 1 c86 2 100 7 71 29 -14 11 -36 13 -86 8 l-67
-6 5 35 c5 30 3 35 -21 46 -34 16 -38 12 -25 -22 19 -51 14 -63 -32 -70 -24
-4 -54 -10 -67 -13 -23 -6 -23 -4 -17 33 14 83 18 94 32 94 8 0 52 15 97 33
45 19 91 37 102 41 19 7 19 8 -4 27 -30 24 -42 24 -62 -4z"/>
<path d="M430 250 c0 -17 93 -130 108 -130 20 0 14 47 -10 73 -30 32 -98 72
-98 57z"/>
<path d="M146 200 c-31 -34 -48 -80 -30 -80 28 0 61 42 78 98 11 33 -7 27 -48
-18z"/>
</g>
</g></svg>
