<?xml version="1.0" encoding="utf-8" ?>
<svg baseProfile="tiny" height="128" version="1.2" viewBox="0,0,128,128" width="128" xmlns="http://www.w3.org/2000/svg" xmlns:ev="http://www.w3.org/2001/xml-events" xmlns:xlink="http://www.w3.org/1999/xlink"><defs /><polyline fill="none" points="28.2034,9.1119 21.6949,17.3559 19.5254,22.9966 16.922,32.9763 18.2237,34.7119 19.5254,32.1085" stroke="#00007f" stroke-width="2" /><polyline fill="none" points="27.7695,8.678 31.6746,16.0542 34.278,28.2034" stroke="#0000ac" stroke-width="2" /><polyline fill="none" points="33.4102,27.3356 49.8983,29.5051" stroke="#0000de" stroke-width="2" /><polyline fill="none" points="49.4644,29.5051 49.4644,29.5051" stroke="#0000ff" stroke-width="2" /><polyline fill="none" points="49.4644,29.5051 51.6339,26.4678 65.5186,17.3559 71.5932,14.7525 71.5932,16.922" stroke="#0028ff" stroke-width="2" /><polyline fill="none" points="71.5932,16.922 71.5932,16.922" stroke="#0054ff" stroke-width="2" /><polyline fill="none" points="71.5932,16.922 70.7254,24.2983 62.4814,44.6915" stroke="#0080ff" stroke-width="2" /><polyline fill="none" points="16.4881,35.5797 14.7525,48.1627 19.0915,61.6136 24.7322,67.6881 35.5797,68.9898" stroke="#00a8ff" stroke-width="2" /><polyline fill="none" points="65.0847,48.5966 65.0847,48.5966" stroke="#00d4ff" stroke-width="2" /><polyline fill="none" points="63.3492,45.1254 65.5186,64.2169" stroke="#15ffe1" stroke-width="2" /><polyline fill="none" points="25.1661,67.6881 22.9966,81.139 24.2983,99.7966 28.6373,113.2475 35.1458,116.7186 38.1831,116.2847" stroke="#36ffc0" stroke-width="2" /><polyline fill="none" points="64.2169,61.6136 78.1017,82.8746 82.0068,101.0983 80.7051,110.6441 78.5356,114.5492 75.4983,116.2847" stroke="#59ff9d" stroke-width="2" /><polyline fill="none" points="83.3085,107.6068 99.3627,94.5898 102.4,95.0237 103.2678,96.7593 102.8339,104.1356 99.7966,109.3424 92.4203,113.6814 80.7051,114.9831" stroke="#7cff79" stroke-width="2" /><polyline fill="none" points="27.7695,40.3525 32.9763,37.7492" stroke="#9dff59" stroke-width="2" /><polyline fill="none" points="40.3525,37.7492 45.9932,40.3525" stroke="#c0ff36" stroke-width="2" /><polyline fill="none" points="30.8068,47.2949 34.278,49.8983 36.0136,49.0305 37.7492,45.5593 40.3525,48.5966 42.9559,49.0305 46.4271,46.861 45.1254,45.5593" stroke="#e4ff12" stroke-width="2" /><polyline fill="none" points="8.678,44.2576 20.3932,44.2576 22.5627,44.6915 22.1288,45.9932" stroke="#ffe500" stroke-width="2" /><polyline fill="none" points="12.1492,51.2 28.2034,49.0305" stroke="#ffbd00" stroke-width="2" /><polyline fill="none" points="53.3695,42.9559 65.9525,43.3898 67.6881,45.1254" stroke="#ff9400" stroke-width="2" /><polyline fill="none" points="52.9356,47.7288 70.2915,51.2 76.8,53.8034" stroke="#ff6f00" stroke-width="2" /><polyline fill="none" points="28.6373,76.3661 30.3729,86.7797 38.6169,89.3831 39.4847,94.5898" stroke="#ff4600" stroke-width="2" /><polyline fill="none" points="39.0508,95.4576 39.4847,101.5322 43.3898,110.6441 47.7288,116.7186" stroke="#ff1d00" stroke-width="2" /><polyline fill="none" points="64.2169,91.1186 59.0102,110.2102 56.4068,115.4169" stroke="#de0000" stroke-width="2" /><polyline fill="none" points="49.0305,96.7593 50.3322,119.322" stroke="#ac0000" stroke-width="2" /><polyline fill="none" points="51.6339,118.0203 51.6339,118.0203" stroke="#7f0000" stroke-width="2" /></svg>