<?xml version="1.0" encoding="utf-8" ?>
<svg baseProfile="tiny" height="128" version="1.2" viewBox="0,0,128,128" width="128" xmlns="http://www.w3.org/2000/svg" xmlns:ev="http://www.w3.org/2001/xml-events" xmlns:xlink="http://www.w3.org/1999/xlink"><defs /><polyline fill="none" points="51.2,30.8068 39.4847,45.9932 35.1458,62.0475 39.0508,87.6475 41.2203,94.5898 67.2542,115.4169 73.7627,118.0203 82.4407,119.322 92.4203,118.8881 101.9661,116.2847 110.2102,107.1729 114.9831,95.8915 115.4169,88.5153 112.3797,75.9322 105.8712,62.4814 91.5525,44.6915 82.4407,23.4305 78.9695,20.8271 72.8949,19.0915 68.9898,19.0915 62.9153,22.1288" stroke="#00007f" stroke-width="2" /><polyline fill="none" points="58.5763,32.1085 51.2,26.4678 34.7119,8.678 31.6746,14.7525 29.5051,26.0339 29.5051,55.9729 31.6746,62.4814" stroke="#0000ff" stroke-width="2" /><polyline fill="none" points="87.6475,22.9966 79.8373,33.4102 72.461,48.1627 82.0068,32.9763 98.4949,20.8271 111.5119,14.3186 116.2847,20.3932 117.5864,33.8441 114.5492,49.8983 106.739,62.9153 101.0983,67.2542 98.9288,67.2542" stroke="#0080ff" stroke-width="2" /><polyline fill="none" points="58.5763,78.1017 65.9525,81.5729 78.9695,84.1763" stroke="#15ffe1" stroke-width="2" /><polyline fill="none" points="51.2,69.8576 21.6949,62.4814 8.678,53.8034" stroke="#7cff79" stroke-width="2" /><polyline fill="none" points="47.7288,82.8746 47.7288,82.8746" stroke="#e4ff12" stroke-width="2" /><polyline fill="none" points="14.7525,103.2678 14.7525,103.2678" stroke="#ff9400" stroke-width="2" /><polyline fill="none" points="49.4644,86.3458 36.8814,96.3254 32.1085,101.5322" stroke="#ff1d00" stroke-width="2" /><polyline fill="none" points="13.4508,79.8373 24.2983,78.1017 31.6746,78.5356" stroke="#7f0000" stroke-width="2" /></svg>