<?xml version="1.0" encoding="utf-8" ?>
<svg baseProfile="tiny" height="128" version="1.2" viewBox="0,0,128,128" width="128" xmlns="http://www.w3.org/2000/svg" xmlns:ev="http://www.w3.org/2001/xml-events" xmlns:xlink="http://www.w3.org/1999/xlink"><defs /><polyline fill="none" points="26.0339,38.1831 24.2983,35.1458 25.1661,9.1119 27.7695,8.678 32.5424,15.1864 46.861,40.3525 46.861,35.1458 51.6339,30.3729 63.3492,25.1661 76.3661,24.7322 81.139,26.9017 84.6102,30.3729 89.3831,41.6542 89.3831,26.4678 90.6847,20.3932 97.1932,9.1119 99.7966,9.9797 105.4373,22.5627 108.9085,43.3898 108.9085,57.2746 104.5695,68.5559 95.4576,80.2712 82.8746,93.2881 70.7254,101.5322 62.0475,105.4373 54.2373,106.739 36.8814,106.739 29.0712,103.2678 21.261,93.722 17.3559,82.4407 15.6203,71.1593 15.6203,54.6712 17.7898,47.7288 25.6,35.1458 36.8814,22.9966" stroke="#00007f" stroke-width="2" /><polyline fill="none" points="64.6508,68.9898 54.2373,67.6881 8.678,74.6305" stroke="#0080ff" stroke-width="2" /><polyline fill="none" points="62.9153,67.2542 55.539,68.5559 37.3153,76.3661 18.2237,86.3458 13.8847,89.8169" stroke="#7cff79" stroke-width="2" /><polyline fill="none" points="68.122,64.6508 65.5186,65.5186 65.9525,70.2915 70.7254,77.2339 81.139,86.3458" stroke="#ff9400" stroke-width="2" /><polyline fill="none" points="68.122,65.0847 82.0068,65.9525 106.739,62.4814 119.322,62.4814" stroke="#7f0000" stroke-width="2" /></svg>