<?xml version="1.0" encoding="utf-8" ?>
<svg baseProfile="tiny" height="128" version="1.2" viewBox="0,0,128,128" width="128" xmlns="http://www.w3.org/2000/svg" xmlns:ev="http://www.w3.org/2001/xml-events" xmlns:xlink="http://www.w3.org/1999/xlink"><defs /><polyline fill="none" points="97.6271,106.739 87.2136,111.9458 79.4034,113.6814 64.6508,114.5492 61.1797,116.2847 46.861,116.2847 24.7322,104.1356 16.4881,96.7593 12.5831,90.2508 9.1119,80.7051 8.678,61.6136 15.6203,42.0881 20.8271,34.278 31.6746,22.9966 40.3525,16.922 58.5763,8.678 68.5559,8.678 75.0644,10.8475 87.6475,19.9593 104.1356,37.3153 112.8136,50.7661 116.2847,58.5763 119.322,72.8949 118.8881,82.0068 112.8136,92.8542 108.0407,98.9288 102.4,104.1356 96.3254,106.739" stroke="#00007f" stroke-width="2" /><polyline fill="none" points="23.8644,32.1085 35.5797,36.0136 47.2949,46.861 55.1051,56.8407 61.1797,68.5559 67.2542,88.9492 69.8576,102.8339 70.2915,116.2847" stroke="#004cff" stroke-width="2" /><polyline fill="none" points="83.3085,18.2237 80.7051,29.939 80.7051,62.4814 86.7797,80.2712 95.8915,92.8542 96.3254,99.3627" stroke="#29ffcd" stroke-width="2" /><polyline fill="none" points="54.6712,105.4373 68.5559,106.3051" stroke="#cdff29" stroke-width="2" /><polyline fill="none" points="50.3322,87.6475 70.2915,84.1763" stroke="#ff6700" stroke-width="2" /><polyline fill="none" points="34.278,52.0678 39.9186,45.5593" stroke="#7f0000" stroke-width="2" /></svg>