<?xml version="1.0" encoding="utf-8" ?>
<svg baseProfile="tiny" height="128" version="1.2" viewBox="0,0,128,128" width="128" xmlns="http://www.w3.org/2000/svg" xmlns:ev="http://www.w3.org/2001/xml-events" xmlns:xlink="http://www.w3.org/1999/xlink"><defs /><polyline fill="none" points="45.5593,9.1119 35.5797,13.4508 23.8644,25.1661 14.7525,40.3525 9.9797,55.9729 8.678,73.7627 9.1119,89.8169 12.5831,96.7593 21.6949,109.3424 36.8814,117.1525 54.6712,118.8881 72.0271,118.0203 87.2136,110.2102 106.739,93.722 113.2475,82.4407 114.5492,73.7627 113.2475,54.2373 107.6068,30.3729 103.2678,19.9593 96.7593,14.7525 76.3661,9.9797 56.8407,8.678 45.5593,10.8475" stroke="#00007f" stroke-width="2" /><polyline fill="none" points="20.3932,41.2203 32.5424,46.861 39.0508,53.3695 45.1254,62.9153 49.0305,87.6475 48.5966,119.322" stroke="#7cff79" stroke-width="2" /><polyline fill="none" points="71.5932,15.6203 70.7254,21.6949 71.1593,41.6542 77.2339,59.4441 85.478,74.6305 91.5525,82.4407 102.8339,91.9864 111.5119,96.3254" stroke="#7f0000" stroke-width="2" /></svg>