<?xml version="1.0" encoding="utf-8" ?>
<svg baseProfile="tiny" height="128" version="1.2" viewBox="0,0,128,128" width="128" xmlns="http://www.w3.org/2000/svg" xmlns:ev="http://www.w3.org/2001/xml-events" xmlns:xlink="http://www.w3.org/1999/xlink"><defs /><polyline fill="none" points="55.539,13.4508 35.5797,21.261 24.7322,30.8068 17.3559,41.2203 10.8475,54.6712 8.678,72.0271 8.678,88.5153 15.1864,102.8339 24.2983,111.5119 37.7492,117.1525 54.2373,117.1525 68.9898,107.1729 86.7797,88.0814 98.4949,72.0271 107.1729,57.2746 110.6441,44.6915 110.6441,31.2407 108.0407,20.3932 98.061,10.8475 88.9492,8.678 72.461,12.1492" stroke="#00007f" stroke-width="2" /><polyline fill="none" points="34.278,13.4508 46.861,32.5424 52.5017,43.8237 56.8407,60.3119 59.0102,77.2339 59.0102,88.0814 56.8407,97.1932 46.861,111.078 37.7492,119.322" stroke="#0028ff" stroke-width="2" /><polyline fill="none" points="81.5729,14.3186 77.6678,26.4678 76.8,50.7661 81.139,61.1797 97.1932,79.4034 103.7017,84.6102 108.0407,85.478" stroke="#00d4ff" stroke-width="2" /><polyline fill="none" points="36.8814,49.8983 59.4441,35.1458 65.9525,32.9763" stroke="#7cff79" stroke-width="2" /><polyline fill="none" points="45.5593,83.3085 54.2373,78.1017 70.2915,73.7627" stroke="#ffe500" stroke-width="2" /><polyline fill="none" points="64.2169,32.9763 79.8373,32.1085 90.2508,33.4102" stroke="#ff4600" stroke-width="2" /><polyline fill="none" points="80.2712,73.7627 95.8915,67.6881" stroke="#7f0000" stroke-width="2" /></svg>