<?xml version="1.0" encoding="utf-8" ?>
<svg baseProfile="tiny" height="128" version="1.2" viewBox="0,0,128,128" width="128" xmlns="http://www.w3.org/2000/svg" xmlns:ev="http://www.w3.org/2001/xml-events" xmlns:xlink="http://www.w3.org/1999/xlink"><defs /><polyline fill="none" points="53.1156,9.1429 44.4082,8.7075 37.4422,11.7551 25.2517,20.898 20.4626,26.9932 14.3673,36.1361 11.3197,43.9728 8.7075,60.0816 9.1429,66.6122 17.415,76.6259 27.4286,84.4626 45.2789,92.7347 75.3197,97.9592 95.7823,97.5238 107.9728,90.1224 117.1156,77.932 119.2925,72.7075 119.2925,51.3741 111.8912,32.6531 106.6667,26.5578 91.8639,15.6735 82.7211,11.3197 71.4014,9.1429 50.068,9.1429 45.7143,10.449" stroke="#00007f" stroke-width="2" /><polyline fill="none" points="85.3333,16.1088 84.0272,21.7687" stroke="#0000c3" stroke-width="2" /><polyline fill="none" points="84.0272,29.6054 81.415,38.3129" stroke="#0000ff" stroke-width="2" /><polyline fill="none" points="82.2857,48.3265 82.2857,54.4218" stroke="#0034ff" stroke-width="2" /><polyline fill="none" points="84.4626,64.4354 86.2041,68.3537" stroke="#0070ff" stroke-width="2" /><polyline fill="none" points="88.8163,75.7551 92.7347,82.2857" stroke="#00acff" stroke-width="2" /><polyline fill="none" points="97.0884,87.0748 100.1361,90.5578" stroke="#02e8f4" stroke-width="2" /><polyline fill="none" points="102.3129,94.0408 103.1837,94.9116" stroke="#32ffc3" stroke-width="2" /><polyline fill="none" points="53.1156,10.449 50.5034,16.5442" stroke="#63ff93" stroke-width="2" /><polyline fill="none" points="50.068,23.0748 48.7619,26.5578" stroke="#93ff63" stroke-width="2" /><polyline fill="none" points="44.4082,33.5238 42.6667,37.8776" stroke="#c3ff32" stroke-width="2" /><polyline fill="none" points="40.0544,41.3605 37.8776,46.1497" stroke="#f4f802" stroke-width="2" /><polyline fill="none" points="35.7007,51.3741 33.5238,56.5986" stroke="#ffc000" stroke-width="2" /><polyline fill="none" points="31.3469,60.517 27.8639,64.4354" stroke="#ff8900" stroke-width="2" /><polyline fill="none" points="23.5102,66.6122 22.2041,66.6122" stroke="#ff5100" stroke-width="2" /><polyline fill="none" points="20.0272,67.9184 13.4966,70.5306" stroke="#ff1a00" stroke-width="2" /><polyline fill="none" points="84.0272,21.7687 81.415,30.9116 80.1088,43.9728 80.9796,56.1633 93.1701,78.3673 97.9592,90.5578 101.8776,94.9116" stroke="#c30000" stroke-width="2" /><polyline fill="none" points="52.6803,16.1088 48.7619,25.2517 43.102,32.6531" stroke="#7f0000" stroke-width="2" /></svg>