<?xml version="1.0" encoding="utf-8" ?>
<svg baseProfile="tiny" height="128" version="1.2" viewBox="0,0,128,128" width="128" xmlns="http://www.w3.org/2000/svg" xmlns:ev="http://www.w3.org/2001/xml-events" xmlns:xlink="http://www.w3.org/1999/xlink"><defs /><polyline fill="none" points="115.4169,21.261 85.0441,13.0169 44.6915,11.2814 35.5797,11.7153 28.2034,19.0915 14.7525,40.3525 10.4136,52.0678 8.678,94.1559 9.9797,102.8339 14.7525,110.2102 22.5627,116.2847 28.6373,118.8881 33.8441,119.322 41.6542,118.8881 78.5356,104.1356 98.9288,88.5153 106.739,66.8203 116.7186,21.261" stroke="#00007f" stroke-width="2" /><polyline fill="none" points="92.4203,17.3559 80.7051,43.3898 77.6678,62.0475 75.9322,80.7051 81.139,103.7017" stroke="#0080ff" stroke-width="2" /><polyline fill="none" points="41.2203,115.8508 47.2949,93.2881 50.7661,67.6881 50.7661,45.9932 47.2949,31.2407 46.4271,16.0542 44.6915,8.678" stroke="#7cff79" stroke-width="2" /><polyline fill="none" points="49.4644,18.6576 46.4271,19.0915" stroke="#ff9400" stroke-width="2" /><polyline fill="none" points="48.1627,26.9017 48.1627,26.9017" stroke="#7f0000" stroke-width="2" /></svg>