<?xml version="1.0" encoding="utf-8" ?>
<svg baseProfile="tiny" height="128" version="1.2" viewBox="0,0,128,128" width="128" xmlns="http://www.w3.org/2000/svg" xmlns:ev="http://www.w3.org/2001/xml-events" xmlns:xlink="http://www.w3.org/1999/xlink"><defs /><polyline fill="none" points="76.3661,29.0712 68.5559,22.1288 62.4814,19.0915 49.0305,16.922 40.7864,17.7898 26.0339,24.2983 14.7525,36.8814 9.1119,53.8034 8.678,72.0271 13.0169,87.6475 21.261,100.6644 26.9017,106.739 32.5424,111.5119 44.6915,117.1525 55.539,119.322 68.5559,118.0203 79.4034,111.9458 88.5153,101.5322 101.0983,79.8373 102.8339,59.4441 97.1932,45.1254 85.0441,30.3729 64.2169,19.0915" stroke="#00007f" stroke-width="2" /><polyline fill="none" points="22.9966,25.6 35.1458,41.6542 48.1627,64.6508 52.9356,79.4034 57.2746,114.1153" stroke="#0080ff" stroke-width="2" /><polyline fill="none" points="64.2169,8.678 62.0475,16.4881 62.0475,42.9559 63.3492,52.9356 68.122,68.5559 80.7051,89.8169 91.5525,100.6644 97.1932,103.7017" stroke="#7cff79" stroke-width="2" /><polyline fill="none" points="20.8271,46.861 48.5966,31.6746" stroke="#ff9400" stroke-width="2" /><polyline fill="none" points="34.7119,69.8576 51.6339,62.9153" stroke="#7f0000" stroke-width="2" /></svg>