<?xml version="1.0" encoding="utf-8" ?>
<svg baseProfile="tiny" height="128" version="1.2" viewBox="0,0,128,128" width="128" xmlns="http://www.w3.org/2000/svg" xmlns:ev="http://www.w3.org/2001/xml-events" xmlns:xlink="http://www.w3.org/1999/xlink"><defs /><polyline fill="none" points="111.5119,25.1661 109.7763,19.5254 106.739,16.4881 98.4949,13.4508 76.8,9.5458 38.6169,9.1119 28.6373,12.5831 22.5627,18.2237 13.4508,38.1831 9.9797,49.4644 8.678,69.4237 10.4136,78.1017 16.922,88.5153 24.7322,94.5898 49.4644,107.6068 64.6508,112.3797 82.8746,112.8136 95.4576,108.9085 108.0407,98.061 116.2847,83.7424 119.322,65.9525 116.7186,42.522 111.078,31.6746 95.8915,22.1288" stroke="#00007f" stroke-width="2" /><polyline fill="none" points="33.4102,8.678 52.0678,25.1661 59.4441,34.7119 64.2169,49.4644 65.9525,66.3864 65.5186,78.9695 60.3119,89.8169 45.9932,98.4949 39.9186,101.5322 36.8814,101.0983" stroke="#7cff79" stroke-width="2" /><polyline fill="none" points="102.8339,26.4678 94.5898,32.5424 84.1763,44.2576 75.4983,62.0475 70.2915,78.1017 68.122,90.6847 69.4237,101.9661 79.8373,116.2847 82.0068,117.1525 82.8746,115.8508" stroke="#7f0000" stroke-width="2" /></svg>