<?xml version="1.0" encoding="utf-8" ?>
<svg baseProfile="tiny" height="128" version="1.2" viewBox="0,0,128,128" width="128" xmlns="http://www.w3.org/2000/svg" xmlns:ev="http://www.w3.org/2001/xml-events" xmlns:xlink="http://www.w3.org/1999/xlink"><defs /><polyline fill="none" points="79.4034,14.7525 76.3661,13.0169 66.3864,11.2814 52.0678,11.2814 43.8237,14.3186 29.939,26.0339 18.6576,39.9186 11.2814,54.6712 8.678,63.7831 8.678,81.5729 11.2814,91.1186 20.3932,105.0034 27.3356,110.6441 36.4475,114.5492 51.2,118.8881 70.2915,119.322 78.9695,114.9831 87.2136,108.0407 97.1932,95.8915 100.6644,88.5153 101.5322,58.1424 95.0237,41.2203 80.2712,22.9966" stroke="#00007f" stroke-width="2" /><polyline fill="none" points="18.2237,42.522 31.6746,56.4068 35.5797,67.2542 41.2203,89.3831 40.7864,112.8136" stroke="#0080ff" stroke-width="2" /><polyline fill="none" points="63.7831,8.678 62.0475,28.2034 62.4814,44.6915 70.2915,60.7458 85.0441,74.6305 97.6271,81.139 108.9085,84.1763" stroke="#7cff79" stroke-width="2" /><polyline fill="none" points="46.861,41.2203 58.5763,38.6169 72.8949,37.7492" stroke="#ff9400" stroke-width="2" /><polyline fill="none" points="61.6136,55.9729 66.8203,55.539" stroke="#7f0000" stroke-width="2" /></svg>