<?xml version="1.0" encoding="utf-8" ?>
<svg baseProfile="tiny" height="128" version="1.2" viewBox="0,0,128,128" width="128" xmlns="http://www.w3.org/2000/svg" xmlns:ev="http://www.w3.org/2001/xml-events" xmlns:xlink="http://www.w3.org/1999/xlink"><defs /><polyline fill="none" points="87.5102,94.4762 73.5782,99.7007 62.2585,101.8776 49.1973,101.8776 37.8776,99.7007 26.9932,94.4762 18.7211,87.9456 13.932,81.415 9.5782,71.4014 8.7075,60.0816 10.0136,52.2449 13.932,42.6667 21.3333,33.0884 30.0408,24.381 41.3605,17.415 53.9864,12.1905 65.7415,9.1429 77.4966,8.7075 88.8163,10.449 97.9592,13.932 107.102,19.1565 113.1973,26.1224 117.551,33.9592 119.2925,43.102 119.2925,53.1156 117.551,62.6939 111.8912,77.4966 107.102,85.3333 98.8299,93.1701 92.7347,96.6531 81.415,100.1361 58.7755,99.2653" stroke="#00007f" stroke-width="2" /><polyline fill="none" points="37.4422,23.0748 43.9728,30.9116 49.6327,43.5374 53.1156,62.2585 53.1156,72.7075 50.9388,86.6395 45.7143,95.7823 41.3605,100.1361" stroke="#7cff79" stroke-width="2" /><polyline fill="none" points="93.6054,15.2381 87.0748,21.3333 78.8027,33.5238 72.7075,45.7143 69.2245,57.4694 68.3537,67.483 69.2245,78.8027 71.8367,93.6054 75.7551,103.619" stroke="#7f0000" stroke-width="2" /></svg>