<?xml version="1.0" encoding="utf-8" ?>
<svg baseProfile="tiny" height="128" version="1.2" viewBox="0,0,128,128" width="128" xmlns="http://www.w3.org/2000/svg" xmlns:ev="http://www.w3.org/2001/xml-events" xmlns:xlink="http://www.w3.org/1999/xlink"><defs /><polyline fill="none" points="65.9525,16.4881 52.5017,16.4881 45.5593,18.6576 34.278,24.2983 26.4678,31.2407 13.0169,52.9356 8.678,64.6508 9.9797,81.139 19.0915,93.2881 23.4305,96.7593 36.0136,104.5695 43.3898,106.3051 67.6881,118.8881 83.7424,119.322 90.2508,117.1525 97.6271,111.5119 103.2678,104.5695 111.9458,86.7797 114.9831,72.0271 113.6814,58.5763 104.5695,36.0136 97.1932,26.0339 89.3831,19.5254 70.2915,10.4136 60.3119,8.678" stroke="#00007f" stroke-width="2" /><polyline fill="none" points="68.122,9.9797 63.7831,11.7153 62.0475,14.7525 59.878,25.1661 60.3119,39.4847 65.9525,52.9356 71.1593,59.0102 87.6475,72.0271 96.3254,73.7627 111.5119,74.6305" stroke="#7cff79" stroke-width="2" /><polyline fill="none" points="8.678,60.3119 13.0169,58.5763 38.6169,57.7085 48.1627,60.3119 64.6508,76.8 74.6305,83.3085 88.5153,105.8712 89.3831,117.5864" stroke="#7f0000" stroke-width="2" /></svg>