<?xml version="1.0" encoding="utf-8" ?>
<svg baseProfile="tiny" height="128" version="1.2" viewBox="0,0,128,128" width="128" xmlns="http://www.w3.org/2000/svg" xmlns:ev="http://www.w3.org/2001/xml-events" xmlns:xlink="http://www.w3.org/1999/xlink"><defs /><polyline fill="none" points="77.6678,29.5051 63.7831,36.0136 55.1051,43.3898 54.6712,52.9356 62.0475,64.2169 69.4237,68.9898 88.0814,72.8949 101.5322,71.5932 111.078,66.3864 116.2847,56.4068 117.1525,48.5966 114.1153,40.3525 110.2102,35.1458 101.9661,31.6746 92.8542,30.8068 87.2136,30.8068 72.461,34.278" stroke="#00007f" stroke-width="2" /><polyline fill="none" points="59.0102,37.3153 65.0847,50.3322 65.0847,65.5186 66.3864,61.6136" stroke="#0080ff" stroke-width="2" /><polyline fill="none" points="99.3627,33.4102 100.6644,33.8441 102.4,44.6915 106.739,55.1051 113.2475,59.878 118.4542,59.878 119.322,58.1424" stroke="#7cff79" stroke-width="2" /><polyline fill="none" points="59.0102,28.6373 46.861,15.1864 37.7492,10.8475 29.0712,8.678 26.0339,8.678 25.6,10.8475 39.0508,22.9966" stroke="#ff9400" stroke-width="2" /><polyline fill="none" points="44.6915,32.1085 11.7153,23.4305 8.678,21.6949 8.678,19.9593 11.2814,22.5627" stroke="#7f0000" stroke-width="2" /></svg>