<?xml version="1.0" encoding="utf-8" ?>
<svg baseProfile="tiny" height="128" version="1.2" viewBox="0,0,128,128" width="128" xmlns="http://www.w3.org/2000/svg" xmlns:ev="http://www.w3.org/2001/xml-events" xmlns:xlink="http://www.w3.org/1999/xlink"><defs /><polyline fill="none" points="91.4286,108.8435 91.8639,111.4558 88.8163,115.3741 80.1088,118.8571 62.2585,119.2925 43.5374,115.3741 29.1701,109.2789 20.0272,102.7483 13.0612,94.9116 10.0136,86.6395 8.7075,70.5306 10.8844,58.7755 17.415,41.3605 23.9456,30.0408 30.4762,21.7687 42.6667,13.0612 53.551,9.1429 67.0476,8.7075 85.7687,14.3673 101.8776,25.2517 111.0204,37.8776 114.068,46.585 115.3741,56.1633 115.3741,63.1293 111.8912,73.5782 98.8299,96.2177 90.9932,102.7483 84.898,105.3605 70.5306,106.6667" stroke="#00007f" stroke-width="2" /><polyline fill="none" points="33.0884,23.9456 46.1497,51.8095 48.7619,65.3061 48.7619,84.898 45.7143,98.3946 41.7959,104.4898 33.5238,108.8435" stroke="#0080ff" stroke-width="2" /><polyline fill="none" points="88.381,107.102 85.7687,106.2313 79.6735,99.7007 74.8844,91.4286 71.4014,80.5442 70.966,67.0476 74.8844,49.6327 81.415,30.4762 91.8639,20.0272 97.9592,18.7211 100.5714,21.3333" stroke="#7cff79" stroke-width="2" /><polyline fill="none" points="76.6259,31.3469 89.2517,40.4898 91.8639,43.9728 91.8639,47.0204" stroke="#ff9400" stroke-width="2" /><polyline fill="none" points="62.2585,59.2109 62.2585,60.9524 80.5442,71.4014" stroke="#7f0000" stroke-width="2" /></svg>