<?xml version="1.0" encoding="utf-8" ?>
<svg baseProfile="tiny" height="128" version="1.2" viewBox="0,0,128,128" width="128" xmlns="http://www.w3.org/2000/svg" xmlns:ev="http://www.w3.org/2001/xml-events" xmlns:xlink="http://www.w3.org/1999/xlink"><defs /><polyline fill="none" points="83.7424,8.678 39.4847,24.2983 27.7695,31.6746 19.9593,38.1831 13.8847,45.5593 10.8475,51.2 9.1119,59.0102 8.678,78.5356 14.3186,92.8542 21.6949,102.8339 32.9763,110.2102 46.4271,115.8508 59.0102,116.7186 77.6678,113.6814 91.5525,109.7763 100.2305,103.7017 106.3051,94.1559 107.6068,81.5729 99.3627,48.1627 97.1932,25.1661 93.722,19.0915 82.4407,10.4136 80.2712,10.8475 74.6305,17.7898 67.6881,32.5424 62.4814,63.7831 61.6136,85.478 67.6881,100.6644 75.9322,111.9458 85.0441,119.322 86.7797,113.6814" stroke="#00007f" stroke-width="2" /><polyline fill="none" points="46.4271,22.9966 51.2,32.9763 52.9356,41.6542 52.9356,52.9356 50.7661,69.8576 42.0881,97.1932 35.5797,104.5695 35.1458,108.4746 32.9763,101.0983" stroke="#7f0000" stroke-width="2" /></svg>