<?xml version="1.0" encoding="utf-8" ?>
<svg baseProfile="tiny" height="128" version="1.2" viewBox="0,0,128,128" width="128" xmlns="http://www.w3.org/2000/svg" xmlns:ev="http://www.w3.org/2001/xml-events" xmlns:xlink="http://www.w3.org/1999/xlink"><defs /><polyline fill="none" points="79.4034,22.5627 71.1593,13.0169 59.4441,8.678 44.2576,9.5458 36.8814,13.8847 21.6949,30.3729 15.1864,40.7864 10.8475,52.0678 8.678,63.3492 8.678,75.0644 9.9797,87.2136 16.4881,97.6271 26.0339,106.739 38.6169,113.2475 54.2373,116.2847 68.122,116.2847 82.4407,113.6814 95.0237,107.1729 104.5695,98.9288 114.9831,83.3085 119.322,68.5559 119.322,55.539 115.4169,45.1254 110.6441,38.1831 98.4949,28.2034 91.9864,24.7322 86.7797,23.8644 84.1763,31.2407 81.139,39.0508 77.2339,63.3492 76.8,84.1763 77.6678,92.8542 82.4407,98.9288 87.2136,101.9661" stroke="#00007f" stroke-width="2" /><polyline fill="none" points="29.5051,27.7695 35.5797,36.0136 40.7864,46.4271 43.8237,58.5763 44.2576,74.1966 42.9559,79.8373 30.3729,99.7966 28.6373,107.6068" stroke="#7f0000" stroke-width="2" /></svg>