<?xml version="1.0" encoding="utf-8" ?>
<svg baseProfile="tiny" height="128" version="1.2" viewBox="0,0,128,128" width="128" xmlns="http://www.w3.org/2000/svg" xmlns:ev="http://www.w3.org/2001/xml-events" xmlns:xlink="http://www.w3.org/1999/xlink"><defs /><polyline fill="none" points="26.0339,98.061 19.9593,94.5898 16.4881,89.8169 9.1119,72.8949 8.678,22.1288 12.1492,17.7898 21.6949,12.1492 39.9186,8.678 75.9322,9.1119 89.8169,14.3186 97.1932,19.0915 107.6068,29.939 113.6814,52.0678 115.4169,85.478 108.0407,102.4 100.6644,109.3424 92.4203,113.6814 76.3661,117.5864 45.9932,119.322 33.4102,116.7186 22.9966,112.8136 12.5831,100.6644 9.9797,91.5525 8.678,73.3288" stroke="#00007f" stroke-width="2" /><polyline fill="none" points="22.9966,17.7898 23.4305,16.4881 25.1661,16.4881 34.278,34.7119 45.1254,75.9322 45.1254,90.6847 43.8237,93.722 28.2034,111.9458" stroke="#0080ff" stroke-width="2" /><polyline fill="none" points="93.722,21.261 91.9864,22.1288 72.0271,58.5763 65.9525,76.8 65.9525,100.2305 68.9898,107.6068 72.8949,110.6441" stroke="#7cff79" stroke-width="2" /><polyline fill="none" points="26.0339,51.6339 35.5797,45.5593 45.1254,42.9559" stroke="#ff9400" stroke-width="2" /><polyline fill="none" points="36.4475,62.4814 62.9153,62.9153 71.5932,65.0847" stroke="#7f0000" stroke-width="2" /></svg>