<?xml version="1.0" encoding="utf-8" ?>
<svg baseProfile="tiny" height="128" version="1.2" viewBox="0,0,128,128" width="128" xmlns="http://www.w3.org/2000/svg" xmlns:ev="http://www.w3.org/2001/xml-events" xmlns:xlink="http://www.w3.org/1999/xlink"><defs /><polyline fill="none" points="72.461,12.5831 59.878,8.678 52.5017,8.678 42.9559,12.5831 31.2407,22.1288 18.2237,41.2203 12.1492,54.2373 9.1119,68.122 8.678,77.2339 12.1492,88.9492 15.1864,94.5898 21.6949,103.2678 28.6373,108.4746 38.1831,113.2475 51.6339,116.7186 65.5186,117.1525 76.3661,115.4169 93.2881,106.739 100.6644,99.7966 106.3051,91.9864 110.2102,83.3085 111.9458,75.0644 112.8136,59.878 111.5119,54.6712 106.739,43.8237 101.0983,37.3153 78.1017,24.2983 61.1797,19.5254 51.2,19.5254 45.1254,21.6949" stroke="#00007f" stroke-width="2" /><polyline fill="none" points="26.9017,22.1288 31.6746,26.0339 42.9559,45.1254 55.539,77.6678 59.0102,95.4576 59.0102,108.0407 53.3695,119.322" stroke="#0010ff" stroke-width="2" /><polyline fill="none" points="82.0068,22.1288 78.1017,26.9017 75.0644,35.1458 72.8949,44.6915 72.461,58.5763 75.4983,69.8576 96.7593,115.8508" stroke="#00a4ff" stroke-width="2" /><polyline fill="none" points="77.6678,89.8169 80.7051,89.8169 89.8169,85.478 98.061,76.8" stroke="#3fffb7" stroke-width="2" /><polyline fill="none" points="67.6881,64.6508 82.0068,54.2373" stroke="#b7ff3f" stroke-width="2" /><polyline fill="none" points="59.878,42.9559 68.122,42.9559 85.9119,37.3153" stroke="#ffb900" stroke-width="2" /><polyline fill="none" points="29.939,49.0305 59.878,39.0508" stroke="#ff3000" stroke-width="2" /><polyline fill="none" points="49.4644,75.0644 52.9356,74.6305 59.878,71.5932" stroke="#7f0000" stroke-width="2" /></svg>