<?xml version="1.0" encoding="utf-8" ?>
<svg baseProfile="tiny" height="128" version="1.2" viewBox="0,0,128,128" width="128" xmlns="http://www.w3.org/2000/svg" xmlns:ev="http://www.w3.org/2001/xml-events" xmlns:xlink="http://www.w3.org/1999/xlink"><defs /><polyline fill="none" points="59.0102,30.3729 48.1627,29.5051 35.5797,36.8814 13.0169,59.878 9.9797,66.8203 8.678,89.3831 16.0542,101.5322 22.5627,107.1729 34.7119,112.3797 41.6542,112.8136 52.9356,112.8136 66.8203,107.1729 78.5356,97.1932 87.6475,76.8 87.2136,55.539 80.7051,41.2203 66.3864,24.7322 51.2,13.0169 41.6542,8.678 38.6169,9.5458 36.0136,12.1492" stroke="#00007f" stroke-width="2" /><polyline fill="none" points="68.122,24.7322 60.7458,44.2576 59.0102,68.122 59.878,86.7797 66.3864,99.3627 72.8949,107.6068 87.2136,119.322 90.2508,119.322 91.1186,116.2847" stroke="#7cff79" stroke-width="2" /><polyline fill="none" points="28.2034,33.4102 35.5797,67.6881 36.4475,89.3831 34.278,96.7593 21.261,112.8136" stroke="#7f0000" stroke-width="2" /></svg>