<?xml version="1.0" encoding="utf-8" ?>
<svg baseProfile="tiny" height="128" version="1.2" viewBox="0,0,128,128" width="128" xmlns="http://www.w3.org/2000/svg" xmlns:ev="http://www.w3.org/2001/xml-events" xmlns:xlink="http://www.w3.org/1999/xlink"><defs /><polyline fill="none" points="94.1559,12.1492 57.7085,28.6373 21.6949,56.4068 9.9797,71.5932 8.678,77.6678 9.1119,91.1186 20.8271,102.8339 42.522,113.6814 68.122,114.1153 72.0271,112.8136 75.9322,108.4746 81.5729,95.8915 84.6102,82.8746 85.0441,68.5559 88.9492,54.6712 92.4203,48.1627 98.9288,23.8644 98.9288,16.922 94.5898,8.678" stroke="#00007f" stroke-width="2" /><polyline fill="none" points="21.261,62.0475 30.8068,64.2169 59.0102,64.2169 77.2339,67.2542 88.0814,70.7254" stroke="#7cff79" stroke-width="2" /><polyline fill="none" points="91.9864,20.3932 86.7797,29.5051 68.9898,48.5966 65.9525,54.6712 56.4068,77.6678 54.2373,96.3254 50.3322,108.4746 49.4644,119.322" stroke="#7f0000" stroke-width="2" /></svg>