<?xml version="1.0" encoding="utf-8" ?>
<svg baseProfile="tiny" height="128" version="1.2" viewBox="0,0,128,128" width="128" xmlns="http://www.w3.org/2000/svg" xmlns:ev="http://www.w3.org/2001/xml-events" xmlns:xlink="http://www.w3.org/1999/xlink"><defs /><polyline fill="none" points="64.4354,10.0136 43.9728,8.7075 34.8299,12.1905 29.1701,17.8503 14.8027,39.1837 9.5782,53.551 8.7075,61.3878 9.5782,86.2041 16.1088,100.1361 24.381,111.4558 33.9592,117.1156 46.1497,119.2925 59.2109,119.2925 75.7551,101.8776 86.6395,77.932 88.381,68.7891 88.381,58.3401 85.3333,48.3265 66.1769,27.8639 59.2109,13.4966" stroke="#00007f" stroke-width="2" /><polyline fill="none" points="18.2857,37.8776 24.8163,43.9728 28.7347,57.4694 30.0408,74.8844 29.1701,111.4558" stroke="#7cff79" stroke-width="2" /><polyline fill="none" points="66.1769,33.9592 67.0476,78.3673 70.0952,88.381 74.449,97.9592" stroke="#7f0000" stroke-width="2" /></svg>