<?xml version="1.0" encoding="utf-8" ?>
<svg baseProfile="tiny" height="128" version="1.2" viewBox="0,0,128,128" width="128" xmlns="http://www.w3.org/2000/svg" xmlns:ev="http://www.w3.org/2001/xml-events" xmlns:xlink="http://www.w3.org/1999/xlink"><defs /><polyline fill="none" points="100.6644,14.7525 81.139,9.1119 44.2576,8.678 26.4678,15.6203 19.0915,19.9593 14.3186,28.2034 8.678,50.7661 10.8475,63.3492 14.7525,71.1593 21.261,75.9322 38.1831,83.7424 50.7661,87.2136 72.461,89.3831 94.5898,89.3831 106.3051,88.5153 111.5119,86.3458 115.4169,81.5729 119.322,56.4068 117.5864,34.7119 113.2475,27.7695 106.3051,26.0339 103.2678,18.2237 99.3627,13.0169" stroke="#00007f" stroke-width="2" /><polyline fill="none" points="29.0712,14.3186 39.9186,22.1288 42.0881,25.6 44.2576,31.2407 46.4271,46.861 42.0881,64.2169 38.1831,72.461 35.1458,75.4983" stroke="#0010ff" stroke-width="2" /><polyline fill="none" points="36.4475,23.4305 42.522,22.9966" stroke="#00a4ff" stroke-width="2" /><polyline fill="none" points="39.9186,32.1085 43.3898,29.5051 46.861,29.0712 46.861,30.3729" stroke="#3fffb7" stroke-width="2" /><polyline fill="none" points="41.2203,37.7492 52.0678,37.7492" stroke="#b7ff3f" stroke-width="2" /><polyline fill="none" points="41.2203,46.4271 48.1627,46.861" stroke="#ffb900" stroke-width="2" /><polyline fill="none" points="41.6542,57.7085 49.4644,59.0102 55.9729,62.0475" stroke="#ff3000" stroke-width="2" /><polyline fill="none" points="26.9017,62.9153 45.9932,66.8203" stroke="#7f0000" stroke-width="2" /></svg>