<?xml version="1.0" encoding="utf-8" ?>
<svg baseProfile="tiny" height="128" version="1.2" viewBox="0,0,128,128" width="128" xmlns="http://www.w3.org/2000/svg" xmlns:ev="http://www.w3.org/2001/xml-events" xmlns:xlink="http://www.w3.org/1999/xlink"><defs /><polyline fill="none" points="79.6735,8.7075 68.7891,9.1429 57.4694,12.1905 43.102,18.2857 27.4286,26.9932 15.2381,38.3129 11.3197,43.5374 8.7075,51.3741 8.7075,58.3401 13.4966,67.0476 21.7687,74.449 33.9592,79.2381 54.4218,84.0272 75.7551,84.0272 84.0272,82.7211 91.8639,80.9796 111.0204,72.7075 114.068,70.0952 117.551,64.0 119.2925,56.1633 118.4218,48.3265 112.3265,33.9592 107.9728,28.7347 99.7007,23.5102 78.8027,19.1565 69.2245,14.8027" stroke="#00007f" stroke-width="2" /><polyline fill="none" points="50.5034,13.4966 47.4558,43.5374 39.619,60.9524 31.3469,67.0476 20.0272,67.0476 18.7211,65.7415" stroke="#7cff79" stroke-width="2" /><polyline fill="none" points="88.381,21.3333 88.381,44.4082 94.9116,58.7755 98.8299,63.5646 103.1837,65.7415 117.551,60.0816" stroke="#7f0000" stroke-width="2" /></svg>