<?xml version="1.0" encoding="utf-8" ?>
<svg baseProfile="tiny" height="128" version="1.2" viewBox="0,0,128,128" width="128" xmlns="http://www.w3.org/2000/svg" xmlns:ev="http://www.w3.org/2001/xml-events" xmlns:xlink="http://www.w3.org/1999/xlink"><defs /><polyline fill="none" points="66.8203,15.1864 61.6136,13.4508 46.861,13.4508 39.4847,15.1864 32.5424,19.5254 20.3932,36.0136 12.5831,51.6339 9.1119,62.4814 8.678,72.8949 10.8475,79.8373 18.2237,91.5525 33.4102,106.3051 44.2576,113.2475 58.1424,117.5864 75.4983,117.5864 84.1763,116.7186 91.9864,113.2475 103.2678,104.5695 113.6814,90.6847 115.8508,79.8373 115.8508,62.9153 112.8136,45.1254 108.0407,37.7492 85.478,24.2983 71.1593,18.6576 59.0102,17.3559" stroke="#00007f" stroke-width="2" /><polyline fill="none" points="24.7322,29.939 41.6542,46.4271 47.7288,56.4068 53.8034,72.8949 55.9729,82.8746 55.9729,101.5322 53.3695,117.5864 51.6339,119.322" stroke="#7cff79" stroke-width="2" /><polyline fill="none" points="80.7051,8.678 85.478,33.4102 93.2881,57.2746 95.4576,70.2915 95.0237,97.1932 88.0814,113.6814" stroke="#7f0000" stroke-width="2" /></svg>