<?xml version="1.0" encoding="utf-8" ?>
<svg baseProfile="tiny" height="128" version="1.2" viewBox="0,0,128,128" width="128" xmlns="http://www.w3.org/2000/svg" xmlns:ev="http://www.w3.org/2001/xml-events" xmlns:xlink="http://www.w3.org/1999/xlink"><defs /><polyline fill="none" points="86.7797,17.7898 76.3661,10.4136 68.122,8.678 57.2746,9.1119 43.3898,16.0542 30.3729,27.3356 19.0915,41.2203 11.2814,56.8407 8.678,73.7627 8.678,87.6475 14.7525,101.0983 24.7322,111.9458 36.4475,117.1525 50.3322,119.322 64.6508,117.1525 78.9695,108.4746 89.8169,98.061 98.061,85.9119 102.4,74.1966 103.7017,62.0475 103.7017,50.3322 100.6644,38.6169 95.8915,27.3356 86.7797,15.1864 82.4407,12.5831 76.3661,12.1492" stroke="#00007f" stroke-width="2" /><polyline fill="none" points="71.5932,10.8475 65.5186,38.1831 47.2949,75.4983 35.5797,88.5153 13.0169,101.0983" stroke="#7cff79" stroke-width="2" /><polyline fill="none" points="83.3085,12.5831 81.5729,12.5831 76.3661,16.4881 68.9898,27.7695 67.2542,32.5424 66.8203,44.6915 67.6881,51.2 75.0644,72.0271 86.3458,91.1186 90.2508,96.3254 93.722,98.061" stroke="#7f0000" stroke-width="2" /></svg>