<?xml version="1.0" encoding="utf-8" ?>
<svg baseProfile="tiny" height="128" version="1.2" viewBox="0,0,128,128" width="128" xmlns="http://www.w3.org/2000/svg" xmlns:ev="http://www.w3.org/2001/xml-events" xmlns:xlink="http://www.w3.org/1999/xlink"><defs /><polyline fill="none" points="55.539,20.3932 39.9186,19.5254 31.6746,21.261 22.5627,27.7695 13.4508,42.0881 9.5458,54.2373 8.678,72.0271 10.8475,83.3085 15.6203,93.722 22.9966,103.2678 31.6746,110.2102 47.2949,115.4169 59.4441,115.8508 78.9695,109.7763 91.1186,102.4 101.5322,92.8542 109.7763,81.5729 115.8508,68.5559 118.8881,55.9729 119.322,44.2576 116.2847,33.8441 110.6441,25.6 98.061,17.3559 83.3085,11.2814 68.9898,8.678 55.1051,8.678 47.7288,10.4136 39.9186,13.8847 42.0881,37.3153 44.6915,49.4644 52.9356,66.3864 65.9525,82.8746 82.0068,93.2881 93.2881,95.0237" stroke="#00007f" stroke-width="2" /><polyline fill="none" points="17.7898,32.5424 24.2983,38.1831 28.6373,46.4271 37.3153,68.5559 42.0881,91.1186 42.522,112.8136" stroke="#7cff79" stroke-width="2" /><polyline fill="none" points="21.6949,54.6712 26.0339,47.2949 33.4102,40.3525" stroke="#7f0000" stroke-width="2" /></svg>