<?xml version="1.0" encoding="utf-8" ?>
<svg baseProfile="tiny" height="128" version="1.2" viewBox="0,0,128,128" width="128" xmlns="http://www.w3.org/2000/svg" xmlns:ev="http://www.w3.org/2001/xml-events" xmlns:xlink="http://www.w3.org/1999/xlink"><defs /><polyline fill="none" points="75.7551,17.8503 68.3537,14.8027 57.9048,13.0612 51.3741,13.0612 42.2313,16.1088 29.6054,22.2041 22.6395,29.1701 14.8027,44.4082 10.449,58.7755 8.7075,78.8027 10.0136,91.8639 22.6395,102.3129 37.4422,111.4558 51.3741,109.7143 80.1088,101.4422 99.2653,92.2993 112.3265,82.7211 116.2449,77.4966 119.2925,64.8707 119.2925,41.3605 110.585,29.1701 104.9252,22.2041 87.5102,9.5782 74.449,8.7075 64.4354,14.3673" stroke="#00007f" stroke-width="2" /><polyline fill="none" points="32.6531,20.898 42.6667,25.2517 53.1156,32.2177 65.7415,58.3401 67.483,74.449 66.1769,89.2517 65.3061,93.1701 56.1633,107.9728" stroke="#7cff79" stroke-width="2" /><polyline fill="none" points="83.1565,11.3197 80.1088,14.8027 75.7551,30.9116 76.6259,52.6803 78.3673,57.9048 79.6735,72.7075 83.5918,88.381 90.1224,95.3469 94.9116,95.3469" stroke="#7f0000" stroke-width="2" /></svg>