<?xml version="1.0" encoding="utf-8" ?>
<svg baseProfile="tiny" height="128" version="1.2" viewBox="0,0,128,128" width="128" xmlns="http://www.w3.org/2000/svg" xmlns:ev="http://www.w3.org/2001/xml-events" xmlns:xlink="http://www.w3.org/1999/xlink"><defs /><polyline fill="none" points="64.2169,14.3186 55.539,9.1119 42.9559,8.678 32.9763,13.4508 22.9966,22.1288 14.7525,36.0136 11.7153,43.8237 8.678,59.4441 9.5458,74.6305 19.5254,93.722 24.7322,98.9288 37.3153,107.6068 52.9356,112.3797 69.4237,112.8136 78.1017,111.078 86.3458,107.1729 94.5898,101.9661 101.5322,95.0237 111.9458,79.8373 118.8881,61.6136 119.322,48.1627 114.5492,36.0136 102.8339,21.261 86.3458,12.1492 70.7254,9.5458" stroke="#00007f" stroke-width="2" /><polyline fill="none" points="26.4678,24.2983 39.4847,32.1085 48.1627,39.9186 57.2746,49.8983 65.0847,62.0475 73.3288,82.0068 75.4983,94.5898 76.3661,111.078" stroke="#0010ff" stroke-width="2" /><polyline fill="none" points="70.7254,17.3559 78.5356,26.0339 87.6475,39.4847 95.4576,56.4068 103.7017,82.0068" stroke="#00a4ff" stroke-width="2" /><polyline fill="none" points="24.7322,43.8237 34.7119,35.5797 46.4271,28.6373" stroke="#3fffb7" stroke-width="2" /><polyline fill="none" points="43.8237,51.2 60.3119,41.6542" stroke="#b7ff3f" stroke-width="2" /><polyline fill="none" points="59.0102,56.8407 74.6305,52.0678" stroke="#ffb900" stroke-width="2" /><polyline fill="none" points="66.8203,81.5729 81.139,78.1017" stroke="#ff3000" stroke-width="2" /><polyline fill="none" points="72.0271,95.0237 89.3831,92.4203" stroke="#7f0000" stroke-width="2" /></svg>