<?xml version="1.0" encoding="utf-8" ?>
<svg baseProfile="tiny" height="128" version="1.2" viewBox="0,0,128,128" width="128" xmlns="http://www.w3.org/2000/svg" xmlns:ev="http://www.w3.org/2001/xml-events" xmlns:xlink="http://www.w3.org/1999/xlink"><defs /><polyline fill="none" points="16.0542,17.3559 14.3186,17.3559 10.8475,22.5627 9.1119,29.5051 8.678,36.0136 9.5458,42.9559 18.2237,61.6136 28.6373,73.7627 40.7864,83.3085 54.6712,89.3831 62.0475,91.1186 69.8576,91.1186 89.8169,85.0441 99.3627,79.4034 111.9458,68.5559 117.1525,61.6136 119.322,50.3322 115.8508,36.0136 111.9458,29.939 100.2305,21.261 85.9119,15.1864 57.7085,9.1119 44.6915,8.678 31.6746,11.2814 21.261,17.3559 19.0915,20.3932 19.5254,21.6949" stroke="#00007f" stroke-width="2" /><polyline fill="none" points="29.939,13.4508 36.4475,17.7898 45.1254,29.5051 53.3695,51.2 55.9729,71.5932 55.1051,79.4034 49.8983,88.9492" stroke="#7cff79" stroke-width="2" /><polyline fill="none" points="107.1729,17.7898 84.6102,39.4847 78.5356,52.0678 75.4983,63.7831 75.0644,75.4983 77.2339,84.1763 82.4407,93.2881" stroke="#7f0000" stroke-width="2" /></svg>