<?xml version="1.0" encoding="utf-8" ?>
<svg baseProfile="tiny" height="128" version="1.2" viewBox="0,0,128,128" width="128" xmlns="http://www.w3.org/2000/svg" xmlns:ev="http://www.w3.org/2001/xml-events" xmlns:xlink="http://www.w3.org/1999/xlink"><defs /><polyline fill="none" points="103.2678,22.1288 101.5322,19.5254 90.2508,12.1492 76.3661,8.678 52.9356,9.9797 43.3898,13.4508 31.6746,20.3932 22.5627,30.3729 16.0542,41.6542 9.5458,55.9729 8.678,62.4814 9.5458,83.3085 16.0542,93.2881 24.2983,100.2305 36.8814,105.8712 47.7288,108.4746 85.9119,109.7763 98.061,105.4373 108.4746,96.3254 114.1153,88.5153 117.5864,79.4034 119.322,54.6712 114.9831,40.7864 108.4746,26.4678 103.7017,19.5254 94.5898,16.4881" stroke="#00007f" stroke-width="2" /><polyline fill="none" points="25.1661,21.6949 37.3153,22.5627 41.6542,24.7322 47.7288,35.1458 49.8983,42.522 50.3322,59.4441 49.0305,73.3288 41.6542,100.6644 34.7119,110.2102" stroke="#00d4ff" stroke-width="2" /><polyline fill="none" points="103.2678,21.261 94.1559,23.8644 88.0814,29.5051 83.3085,48.1627 80.7051,69.4237 81.5729,88.9492 91.1186,109.3424" stroke="#ffe500" stroke-width="2" /><polyline fill="none" points="42.0881,49.4644 44.2576,47.7288" stroke="#7f0000" stroke-width="2" /></svg>