<?xml version="1.0" encoding="utf-8" ?>
<svg baseProfile="tiny" height="128" version="1.2" viewBox="0,0,128,128" width="128" xmlns="http://www.w3.org/2000/svg" xmlns:ev="http://www.w3.org/2001/xml-events" xmlns:xlink="http://www.w3.org/1999/xlink"><defs /><polyline fill="none" points="77.6678,10.4136 58.1424,8.678 42.0881,13.4508 29.0712,20.8271 19.0915,29.0712 14.3186,34.7119 9.5458,45.1254 8.678,68.122 10.8475,73.7627 23.8644,87.6475 32.9763,95.0237 43.3898,100.6644 61.6136,103.7017 82.8746,103.7017 88.9492,102.4 100.6644,97.1932 110.6441,86.7797 116.2847,74.6305 118.4542,64.6508 119.322,36.8814 117.5864,31.2407 110.2102,24.2983 104.5695,21.6949 95.0237,17.7898 84.1763,16.0542" stroke="#00007f" stroke-width="2" /><polyline fill="none" points="38.6169,16.922 50.3322,38.1831 52.5017,45.1254 54.2373,57.2746 54.2373,88.5153 51.6339,95.8915" stroke="#00d4ff" stroke-width="2" /><polyline fill="none" points="80.2712,11.2814 82.0068,19.9593 82.0068,80.2712 86.7797,89.3831 97.1932,97.1932" stroke="#ffe500" stroke-width="2" /><polyline fill="none" points="13.4508,64.6508 73.3288,61.6136 86.7797,59.878 107.1729,59.878" stroke="#7f0000" stroke-width="2" /></svg>