<?xml version="1.0" encoding="utf-8" ?>
<svg baseProfile="tiny" height="128" version="1.2" viewBox="0,0,128,128" width="128" xmlns="http://www.w3.org/2000/svg" xmlns:ev="http://www.w3.org/2001/xml-events" xmlns:xlink="http://www.w3.org/1999/xlink"><defs /><polyline fill="none" points="75.4983,17.7898 71.5932,14.3186 62.4814,12.1492 53.8034,12.1492 42.0881,16.4881 31.2407,25.6 21.261,36.4475 14.3186,49.8983 9.9797,65.0847 8.678,79.8373 9.9797,92.8542 16.0542,103.7017 25.6,112.3797 37.7492,118.4542 50.7661,119.322 61.6136,118.0203 71.1593,110.6441 86.3458,87.2136 91.5525,74.1966 94.5898,59.4441 95.0237,43.3898 94.1559,29.5051 89.3831,21.6949 82.8746,16.922 75.0644,14.7525 62.9153,14.3186" stroke="#00007f" stroke-width="2" /><polyline fill="none" points="29.5051,24.2983 29.5051,32.9763 33.8441,55.539 33.4102,81.5729 28.2034,99.7966 19.9593,110.6441" stroke="#004cff" stroke-width="2" /><polyline fill="none" points="74.1966,8.678 72.461,8.678 71.1593,10.8475 68.122,17.7898 58.1424,51.6339 55.539,64.6508 54.2373,88.9492 57.2746,96.7593 62.0475,102.8339 67.2542,105.4373 72.8949,106.3051 77.2339,105.0034" stroke="#29ffcd" stroke-width="2" /><polyline fill="none" points="55.539,26.4678 61.6136,26.4678 74.6305,29.939" stroke="#cdff29" stroke-width="2" /><polyline fill="none" points="53.8034,55.539 65.0847,55.1051" stroke="#ff6700" stroke-width="2" /><polyline fill="none" points="51.2,87.6475 68.122,84.6102" stroke="#7f0000" stroke-width="2" /></svg>