<?xml version="1.0" encoding="utf-8" ?>
<svg baseProfile="tiny" height="128" version="1.2" viewBox="0,0,128,128" width="128" xmlns="http://www.w3.org/2000/svg" xmlns:ev="http://www.w3.org/2001/xml-events" xmlns:xlink="http://www.w3.org/1999/xlink"><defs /><polyline fill="none" points="87.2136,15.1864 68.9898,9.1119 60.7458,8.678 35.5797,15.1864 23.8644,22.9966 19.0915,29.0712 12.1492,43.3898 8.678,60.7458 8.678,70.7254 13.0169,89.3831 16.4881,98.4949 23.8644,109.7763 49.4644,118.0203 58.1424,119.322 76.3661,116.2847 92.8542,108.9085 101.0983,96.7593 111.5119,75.4983 112.8136,65.5186 112.8136,51.6339 108.4746,33.4102 101.0983,26.4678 92.8542,22.5627 76.8,22.5627" stroke="#00007f" stroke-width="2" /><polyline fill="none" points="59.878,28.6373 62.0475,37.3153 66.3864,45.1254 77.2339,53.3695 98.4949,57.2746 104.5695,55.539" stroke="#00d4ff" stroke-width="2" /><polyline fill="none" points="52.5017,55.9729 43.8237,64.6508 39.0508,86.3458 39.0508,97.1932" stroke="#ffe500" stroke-width="2" /><polyline fill="none" points="87.2136,80.2712 85.9119,95.0237 88.9492,106.739" stroke="#7f0000" stroke-width="2" /></svg>