<?xml version="1.0" encoding="utf-8" ?>
<svg baseProfile="tiny" height="128" version="1.2" viewBox="0,0,128,128" width="128" xmlns="http://www.w3.org/2000/svg" xmlns:ev="http://www.w3.org/2001/xml-events" xmlns:xlink="http://www.w3.org/1999/xlink"><defs /><polyline fill="none" points="45.7143,9.5782 40.0544,8.7075 31.7823,11.3197 21.3333,19.1565 15.2381,28.7347 8.7075,50.9388 10.0136,63.5646 16.9796,83.1565 27.4286,95.7823 35.7007,102.3129 49.1973,108.8435 60.0816,111.0204 75.3197,110.585 90.5578,107.102 105.7959,98.3946 112.3265,90.9932 117.1156,83.5918 119.2925,73.1429 119.2925,64.8707 115.3741,50.068 107.102,38.3129 97.9592,29.1701 83.5918,19.5918 50.068,11.7551" stroke="#00007f" stroke-width="2" /><polyline fill="none" points="84.4626,27.8639 79.2381,44.8435 80.1088,64.0 86.6395,96.2177 90.5578,102.7483 95.7823,107.102" stroke="#7cff79" stroke-width="2" /><polyline fill="none" points="33.5238,19.1565 33.5238,17.8503 34.8299,19.1565 43.102,29.6054 46.585,38.3129 50.068,80.5442 47.4558,98.3946" stroke="#7f0000" stroke-width="2" /></svg>