<?xml version="1.0" encoding="utf-8" ?>
<svg baseProfile="tiny" height="128" version="1.2" viewBox="0,0,128,128" width="128" xmlns="http://www.w3.org/2000/svg" xmlns:ev="http://www.w3.org/2001/xml-events" xmlns:xlink="http://www.w3.org/1999/xlink"><defs /><polyline fill="none" points="23.5102,27.4286 14.3673,39.1837 9.5782,54.4218 8.7075,73.5782 10.0136,83.1565 12.6259,90.9932 20.4626,102.7483 32.6531,109.7143 40.4898,111.4558 55.2925,110.585 69.6599,102.3129 81.8503,90.1224 86.6395,81.8503 93.6054,63.1293 96.2177,46.585 94.9116,32.6531 91.8639,26.5578 83.5918,17.8503 71.8367,13.4966 65.3061,13.0612 58.3401,13.0612 51.3741,14.8027 22.6395,27.4286" stroke="#00007f" stroke-width="2" /><polyline fill="none" points="19.1565,27.4286 29.1701,32.6531 37.4422,39.619 43.5374,49.1973 46.1497,55.2925 49.6327,70.0952 50.9388,84.0272 50.9388,96.2177 48.3265,113.6327" stroke="#0000ff" stroke-width="2" /><polyline fill="none" points="75.7551,9.1429 73.5782,8.7075 71.4014,13.932 68.7891,26.9932 67.9184,43.9728 68.7891,59.6463 74.8844,79.2381 80.5442,88.381 85.3333,93.1701" stroke="#0080ff" stroke-width="2" /><polyline fill="none" points="29.6054,40.4898 33.5238,37.8776 40.0544,36.1361" stroke="#15ffe1" stroke-width="2" /><polyline fill="none" points="40.4898,61.8231 49.1973,57.034" stroke="#7cff79" stroke-width="2" /><polyline fill="none" points="51.8095,85.7687 60.517,81.8503" stroke="#e4ff12" stroke-width="2" /><polyline fill="none" points="47.4558,119.2925 54.8571,111.4558 61.3878,101.4422" stroke="#ff9400" stroke-width="2" /><polyline fill="none" points="58.3401,30.4762 63.1293,25.6871 74.8844,20.0272" stroke="#ff1d00" stroke-width="2" /><polyline fill="none" points="61.3878,50.068 71.8367,42.2313" stroke="#7f0000" stroke-width="2" /></svg>