<?xml version="1.0" encoding="utf-8" ?>
<svg baseProfile="tiny" height="128" version="1.2" viewBox="0,0,128,128" width="128" xmlns="http://www.w3.org/2000/svg" xmlns:ev="http://www.w3.org/2001/xml-events" xmlns:xlink="http://www.w3.org/1999/xlink"><defs /><polyline fill="none" points="51.2,11.2814 44.6915,8.678 30.3729,10.4136 22.9966,15.1864 17.3559,21.6949 15.1864,26.0339 8.678,60.3119 8.678,72.0271 10.4136,85.0441 13.8847,95.0237 18.2237,102.4 23.8644,108.0407 30.3729,111.078 66.8203,118.4542 89.8169,119.322 99.7966,115.4169 105.8712,109.3424 110.6441,101.0983 112.3797,92.8542 111.9458,76.3661 107.1729,53.3695 101.0983,39.4847 78.5356,16.4881 63.3492,11.7153 43.8237,9.5458 41.6542,13.0169 39.4847,52.9356 33.4102,81.139 31.2407,86.7797 21.6949,97.6271" stroke="#00007f" stroke-width="2" /><polyline fill="none" points="76.3661,19.5254 74.6305,49.8983 75.4983,66.3864 78.1017,78.1017 86.3458,95.4576" stroke="#7f0000" stroke-width="2" /></svg>