<?xml version="1.0" encoding="utf-8" ?>
<svg baseProfile="tiny" height="128" version="1.2" viewBox="0,0,128,128" width="128" xmlns="http://www.w3.org/2000/svg" xmlns:ev="http://www.w3.org/2001/xml-events" xmlns:xlink="http://www.w3.org/1999/xlink"><defs /><polyline fill="none" points="26.4678,102.4 21.261,100.6644 19.5254,98.4949 10.4136,76.3661 8.678,65.9525 8.678,41.2203 13.0169,26.0339 18.2237,19.5254 32.1085,12.5831 44.2576,8.678 57.7085,10.4136 66.8203,16.4881 76.3661,30.3729 79.8373,37.3153 83.3085,65.9525 82.4407,92.4203 72.0271,104.5695 60.3119,113.6814 39.4847,119.322 32.9763,117.1525 28.6373,105.0034 20.8271,95.0237" stroke="#00007f" stroke-width="2" /><polyline fill="none" points="10.4136,27.7695 15.1864,27.7695 19.0915,30.8068 35.5797,61.1797 39.9186,83.7424 39.9186,101.9661 35.1458,112.8136" stroke="#7cff79" stroke-width="2" /><polyline fill="none" points="60.7458,10.8475 62.0475,14.3186 62.0475,31.6746 58.5763,49.8983 59.0102,74.6305 62.0475,90.2508 68.5559,100.2305 73.3288,101.9661" stroke="#7f0000" stroke-width="2" /></svg>