<?xml version="1.0" encoding="utf-8" ?>
<svg baseProfile="tiny" height="128" version="1.2" viewBox="0,0,128,128" width="128" xmlns="http://www.w3.org/2000/svg" xmlns:ev="http://www.w3.org/2001/xml-events" xmlns:xlink="http://www.w3.org/1999/xlink"><defs /><polyline fill="none" points="16.9796,97.5238 10.449,99.2653 8.7075,101.4422 13.4966,113.1973 20.898,119.2925 25.2517,118.8571 28.7347,117.1156 31.3469,111.4558 26.5578,104.4898 55.2925,88.381 78.3673,72.7075 92.2993,58.7755 95.7823,48.3265 90.9932,43.102 80.9796,41.7959 64.8707,47.8912 43.102,67.0476 27.8639,83.5918 18.2857,96.6531" stroke="#00007f" stroke-width="2" /><polyline fill="none" points="35.7007,31.7823 37.8776,33.9592 43.9728,36.1361 48.3265,35.7007 55.2925,33.5238 60.9524,27.4286 63.1293,18.2857 57.4694,12.1905 47.4558,8.7075 41.3605,8.7075 34.8299,15.2381 33.0884,24.8163 33.9592,29.1701" stroke="#7f0000" stroke-width="2" /></svg>