<?xml version="1.0" encoding="utf-8" ?>
<svg baseProfile="tiny" height="128" version="1.2" viewBox="0,0,128,128" width="128" xmlns="http://www.w3.org/2000/svg" xmlns:ev="http://www.w3.org/2001/xml-events" xmlns:xlink="http://www.w3.org/1999/xlink"><defs /><polyline fill="none" points="84.4626,12.1905 82.7211,10.449 78.8027,9.5782 62.6939,8.7075 50.068,10.8844 40.9252,14.3673 22.6395,25.2517 15.6735,31.7823 9.5782,40.9252 8.7075,50.068 23.5102,70.966 34.8299,78.3673 41.7959,80.5442 66.1769,80.9796 82.2857,77.0612 94.9116,71.4014 107.102,62.2585 115.3741,51.3741 119.2925,42.2313 119.2925,30.4762 114.5034,23.5102 104.0544,17.8503 95.7823,16.5442 75.7551,16.5442" stroke="#00007f" stroke-width="2" /><polyline fill="none" points="56.1633,13.0612 48.7619,16.1088 43.5374,20.898 33.5238,34.3946 31.3469,40.4898 31.3469,45.7143 33.5238,51.3741 41.7959,67.483 46.1497,70.966 50.5034,70.0952" stroke="#0028ff" stroke-width="2" /><polyline fill="none" points="74.449,13.4966 83.1565,20.898 87.0748,29.6054 89.6871,42.2313 89.6871,64.4354" stroke="#00d4ff" stroke-width="2" /><polyline fill="none" points="76.1905,28.2993 92.2993,23.0748" stroke="#7cff79" stroke-width="2" /><polyline fill="none" points="74.8844,52.2449 86.2041,45.7143 93.6054,43.9728" stroke="#ffe500" stroke-width="2" /><polyline fill="none" points="84.898,54.8571 104.0544,48.3265" stroke="#ff4600" stroke-width="2" /><polyline fill="none" points="55.7279,23.9456 40.9252,22.6395" stroke="#7f0000" stroke-width="2" /></svg>