<?xml version="1.0" encoding="utf-8" ?>
<svg baseProfile="tiny" height="128" version="1.2" viewBox="0,0,128,128" width="128" xmlns="http://www.w3.org/2000/svg" xmlns:ev="http://www.w3.org/2001/xml-events" xmlns:xlink="http://www.w3.org/1999/xlink"><defs /><polyline fill="none" points="119.322,9.1119 88.9492,8.678 75.4983,10.4136 59.4441,15.6203 34.278,28.6373 21.6949,38.6169 13.4508,49.4644 9.5458,58.5763 8.678,69.8576 10.8475,75.0644 15.1864,78.9695 23.4305,81.139 42.9559,82.0068 68.5559,76.8 84.1763,70.7254 98.061,63.3492 107.1729,55.539 111.5119,49.4644 114.5492,39.0508 115.4169,22.9966 114.1153,19.0915" stroke="#00007f" stroke-width="2" /><polyline fill="none" points="35.5797,26.9017 38.6169,36.8814 38.6169,43.8237 34.278,59.878 29.0712,68.9898 20.8271,75.9322 17.7898,77.6678 18.6576,75.9322" stroke="#7cff79" stroke-width="2" /><polyline fill="none" points="105.4373,8.678 78.5356,52.0678 74.6305,64.6508 74.6305,73.3288" stroke="#7f0000" stroke-width="2" /></svg>