<?xml version="1.0" encoding="utf-8" ?>
<svg baseProfile="tiny" height="128" version="1.2" viewBox="0,0,128,128" width="128" xmlns="http://www.w3.org/2000/svg" xmlns:ev="http://www.w3.org/2001/xml-events" xmlns:xlink="http://www.w3.org/1999/xlink"><defs /><polyline fill="none" points="52.0678,113.2475 43.8237,113.2475 26.9017,107.6068 13.0169,92.8542 9.5458,79.8373 9.5458,69.4237 13.0169,55.539 17.3559,45.9932 21.6949,39.4847 42.9559,16.922 47.2949,13.8847 60.3119,9.5458 69.4237,8.678 78.9695,10.8475 83.3085,13.8847 93.722,25.1661 97.6271,33.4102 98.9288,41.6542 98.4949,72.8949 91.5525,80.7051 82.0068,86.7797 80.2712,90.6847 65.0847,98.9288 56.4068,108.9085 49.4644,110.6441" stroke="#00007f" stroke-width="2" /><polyline fill="none" points="8.678,45.9932 12.1492,45.9932 19.5254,51.2 28.2034,62.4814 36.8814,79.4034 57.7085,111.5119 60.3119,119.322" stroke="#0080ff" stroke-width="2" /><polyline fill="none" points="57.7085,12.1492 64.6508,29.939 78.1017,45.5593 82.8746,52.5017 90.2508,58.5763 94.1559,59.4441 99.7966,61.1797 109.3424,61.1797" stroke="#7cff79" stroke-width="2" /><polyline fill="none" points="62.4814,22.5627 44.6915,43.3898" stroke="#ff9400" stroke-width="2" /><polyline fill="none" points="34.7119,57.2746 35.1458,53.8034 39.4847,43.8237 46.4271,38.6169 53.3695,36.8814" stroke="#7f0000" stroke-width="2" /></svg>