<?xml version="1.0" encoding="utf-8" ?>
<svg baseProfile="tiny" height="128" version="1.2" viewBox="0,0,128,128" width="128" xmlns="http://www.w3.org/2000/svg" xmlns:ev="http://www.w3.org/2001/xml-events" xmlns:xlink="http://www.w3.org/1999/xlink"><defs /><polyline fill="none" points="93.722,17.3559 91.9864,13.8847 83.3085,9.1119 79.4034,8.678 65.0847,8.678 47.7288,13.4508 30.3729,22.9966 19.9593,31.2407 9.1119,45.9932 8.678,49.0305 9.1119,66.3864 12.5831,78.1017 22.1288,95.4576 35.5797,111.9458 47.7288,117.5864 59.0102,119.322 78.1017,119.322 89.3831,117.1525 99.7966,109.7763 105.4373,101.9661 111.9458,85.0441 115.8508,68.122 115.8508,53.3695 112.8136,44.2576 109.3424,37.3153 99.3627,26.9017 93.722,14.7525" stroke="#00007f" stroke-width="2" /><polyline fill="none" points="89.3831,47.7288 76.3661,59.0102 67.6881,72.8949 60.7458,105.8712" stroke="#7cff79" stroke-width="2" /><polyline fill="none" points="73.3288,16.0542 40.7864,30.8068 26.9017,43.3898 23.4305,49.4644 20.8271,59.878 16.4881,83.7424" stroke="#7f0000" stroke-width="2" /></svg>