<?xml version="1.0" encoding="utf-8" ?>
<svg baseProfile="tiny" height="128" version="1.2" viewBox="0,0,128,128" width="128" xmlns="http://www.w3.org/2000/svg" xmlns:ev="http://www.w3.org/2001/xml-events" xmlns:xlink="http://www.w3.org/1999/xlink"><defs /><polyline fill="none" points="9.5458,37.3153 8.678,72.8949 12.5831,92.4203 23.4305,108.9085 30.8068,114.1153 42.9559,118.0203 56.8407,119.322 81.5729,118.4542 101.5322,105.4373 111.5119,91.9864 115.4169,84.1763 118.4542,63.7831 118.4542,49.4644 113.2475,36.8814 101.9661,24.7322 63.7831,13.8847 40.7864,13.8847 30.3729,16.922 20.8271,25.6 10.8475,47.7288" stroke="#00007f" stroke-width="2" /><polyline fill="none" points="60.3119,8.678 52.5017,16.922 49.4644,24.2983 39.4847,72.461 39.4847,93.2881 40.7864,101.5322 45.5593,111.078 53.8034,118.4542" stroke="#00d4ff" stroke-width="2" /><polyline fill="none" points="54.6712,18.6576 58.5763,21.261 69.4237,39.0508 80.7051,78.9695 81.5729,107.6068 80.2712,119.322" stroke="#ffe500" stroke-width="2" /><polyline fill="none" points="59.4441,14.7525 72.0271,18.2237 89.3831,29.5051 96.7593,36.8814 107.6068,52.5017 111.5119,69.4237 111.5119,111.078" stroke="#7f0000" stroke-width="2" /></svg>