<?xml version="1.0" encoding="utf-8" ?>
<svg baseProfile="tiny" height="128" version="1.2" viewBox="0,0,128,128" width="128" xmlns="http://www.w3.org/2000/svg" xmlns:ev="http://www.w3.org/2001/xml-events" xmlns:xlink="http://www.w3.org/1999/xlink"><defs /><polyline fill="none" points="96.6531,9.1429 89.2517,8.7075 76.1905,12.6259 30.9116,32.2177 18.2857,39.1837 13.4966,43.9728 8.7075,66.6122 9.1429,78.3673 10.8844,83.1565 18.2857,90.9932 28.2993,97.9592 43.102,100.1361 68.3537,94.4762 77.0612,89.6871 90.1224,80.5442 103.619,66.1769 111.4558,55.2925 119.2925,29.6054 118.4218,14.3673 117.1156,12.1905 113.6327,10.8844 94.9116,11.3197 89.6871,10.0136" stroke="#00007f" stroke-width="2" /><polyline fill="none" points="33.0884,32.6531 38.7483,38.3129 40.4898,41.7959 40.4898,44.4082 28.7347,73.5782 21.7687,84.4626" stroke="#00d4ff" stroke-width="2" /><polyline fill="none" points="90.9932,10.0136 85.3333,16.9796 80.5442,26.5578 70.966,54.4218 71.8367,65.7415 77.932,76.6259" stroke="#ffe500" stroke-width="2" /><polyline fill="none" points="23.9456,47.0204 40.4898,44.4082" stroke="#7f0000" stroke-width="2" /></svg>