<?xml version="1.0" encoding="utf-8" ?>
<svg baseProfile="tiny" height="128" version="1.2" viewBox="0,0,128,128" width="128" xmlns="http://www.w3.org/2000/svg" xmlns:ev="http://www.w3.org/2001/xml-events" xmlns:xlink="http://www.w3.org/1999/xlink"><defs /><polyline fill="none" points="91.1186,31.6746 87.2136,27.7695 68.9898,16.0542 54.6712,11.7153 31.2407,13.0169 20.3932,20.3932 14.3186,25.6 9.5458,39.0508 8.678,48.1627 9.9797,70.7254 12.1492,80.7051 17.7898,94.5898 19.9593,98.061 25.1661,101.9661 32.9763,104.5695 44.6915,107.6068 67.6881,111.078 93.722,111.078 106.3051,105.4373 114.1153,98.4949 116.2847,93.722 119.322,77.2339 119.322,59.0102 116.7186,46.861 114.5492,42.522 91.1186,14.3186 82.8746,14.3186 81.5729,15.6203" stroke="#00007f" stroke-width="2" /><polyline fill="none" points="93.2881,24.7322 82.0068,33.8441 72.8949,51.2 69.4237,61.6136 68.122,73.3288 68.122,103.7017 68.9898,108.4746 73.3288,114.9831" stroke="#7cff79" stroke-width="2" /><polyline fill="none" points="24.7322,8.678 28.6373,13.8847 32.9763,32.1085 32.9763,68.9898 29.0712,88.5153" stroke="#7f0000" stroke-width="2" /></svg>