<?xml version="1.0" encoding="utf-8" ?>
<svg baseProfile="tiny" height="128" version="1.2" viewBox="0,0,128,128" width="128" xmlns="http://www.w3.org/2000/svg" xmlns:ev="http://www.w3.org/2001/xml-events" xmlns:xlink="http://www.w3.org/1999/xlink"><defs /><polyline fill="none" points="77.6678,10.8475 56.8407,10.8475 38.6169,16.0542 34.7119,18.2237 10.4136,47.7288 8.678,65.9525 13.4508,69.4237 30.8068,77.6678 36.8814,82.0068 52.5017,88.9492 58.5763,91.1186 77.6678,93.2881 100.6644,93.2881 105.4373,91.5525 114.9831,82.8746 119.322,72.8949 119.322,47.2949 106.739,35.5797 95.8915,19.0915 85.0441,11.7153 69.4237,8.678 65.9525,8.678 65.0847,9.9797" stroke="#00007f" stroke-width="2" /><polyline fill="none" points="52.5017,16.0542 52.5017,19.9593 54.6712,23.8644 54.6712,39.9186 51.2,56.8407 44.2576,68.122 37.7492,76.3661" stroke="#7cff79" stroke-width="2" /><polyline fill="none" points="102.8339,85.9119 91.1186,79.4034 88.9492,75.4983 83.7424,63.7831 81.5729,48.1627 91.1186,29.0712 97.6271,23.4305" stroke="#7f0000" stroke-width="2" /></svg>