<?xml version="1.0" encoding="utf-8" ?>
<svg baseProfile="tiny" height="128" version="1.2" viewBox="0,0,128,128" width="128" xmlns="http://www.w3.org/2000/svg" xmlns:ev="http://www.w3.org/2001/xml-events" xmlns:xlink="http://www.w3.org/1999/xlink"><defs /><polyline fill="none" points="65.5186,9.5458 62.9153,8.678 54.6712,10.8475 38.1831,20.8271 21.261,36.8814 10.4136,53.8034 8.678,63.7831 9.1119,68.9898 14.3186,85.478 16.922,90.6847 25.1661,101.0983 34.278,109.3424 41.2203,113.6814 49.8983,117.1525 59.4441,118.4542 79.4034,115.8508 91.5525,110.6441 103.2678,99.7966 108.0407,91.9864 112.3797,80.2712 119.322,52.0678 119.322,42.9559 116.2847,35.1458 111.5119,26.4678 106.3051,21.6949 89.8169,13.8847 65.0847,13.0169" stroke="#00007f" stroke-width="2" /><polyline fill="none" points="42.522,18.2237 47.2949,20.8271 52.9356,33.8441 55.1051,52.5017 51.6339,71.5932 39.0508,94.5898 31.6746,104.5695" stroke="#00d4ff" stroke-width="2" /><polyline fill="none" points="90.6847,29.939 90.6847,20.8271 88.9492,22.9966 79.4034,52.5017 76.8,62.9153 75.4983,81.139 76.8,91.5525 80.2712,101.0983 91.1186,115.4169" stroke="#ffe500" stroke-width="2" /><polyline fill="none" points="45.1254,26.9017 45.1254,26.9017" stroke="#7f0000" stroke-width="2" /></svg>