<?xml version="1.0" encoding="utf-8" ?>
<svg baseProfile="tiny" height="128" version="1.2" viewBox="0,0,128,128" width="128" xmlns="http://www.w3.org/2000/svg" xmlns:ev="http://www.w3.org/2001/xml-events" xmlns:xlink="http://www.w3.org/1999/xlink"><defs /><polyline fill="none" points="87.6475,12.5831 82.8746,9.9797 73.3288,8.678 59.878,9.5458 46.4271,13.4508 32.1085,21.6949 25.6,27.3356 19.5254,33.4102 12.1492,44.2576 9.1119,54.2373 8.678,65.0847 11.2814,76.3661 14.3186,83.3085 20.8271,93.722 29.5051,102.4 45.5593,110.2102 59.0102,111.9458 78.1017,107.6068 98.4949,98.4949 104.1356,94.5898 111.078,87.6475 118.0203,72.8949 119.322,59.4441 115.4169,35.5797 108.4746,18.2237" stroke="#00007f" stroke-width="2" /><polyline fill="none" points="50.7661,26.0339 53.3695,44.6915 51.6339,61.1797 47.7288,68.9898 42.522,74.6305 26.9017,84.1763" stroke="#00d4ff" stroke-width="2" /><polyline fill="none" points="103.7017,32.1085 97.1932,36.4475 88.5153,47.7288 73.7627,72.0271 70.7254,87.6475 73.7627,102.8339 76.3661,74.6305 82.4407,55.539 90.2508,43.3898 98.4949,34.7119 105.8712,29.0712 116.7186,23.8644" stroke="#ffe500" stroke-width="2" /><polyline fill="none" points="48.1627,13.8847 51.2,28.6373 51.2,37.7492 49.8983,54.6712 47.2949,67.2542 41.2203,76.8 34.278,84.1763 25.6,90.2508 18.6576,93.2881" stroke="#7f0000" stroke-width="2" /></svg>