<?xml version="1.0" encoding="utf-8" ?>
<svg baseProfile="tiny" height="128" version="1.2" viewBox="0,0,128,128" width="128" xmlns="http://www.w3.org/2000/svg" xmlns:ev="http://www.w3.org/2001/xml-events" xmlns:xlink="http://www.w3.org/1999/xlink"><defs /><polyline fill="none" points="85.0441,24.7322 83.3085,19.5254 74.6305,14.7525 62.0475,14.3186 44.6915,18.2237 35.5797,22.9966 20.3932,35.1458 14.3186,42.9559 10.4136,50.3322 8.678,64.2169 10.8475,69.4237 15.1864,73.7627 28.6373,82.8746 45.5593,88.9492 55.1051,90.2508 73.7627,88.5153 91.5525,81.139 104.1356,72.8949 113.2475,62.4814 116.2847,55.1051 118.4542,47.7288 119.322,35.1458 114.9831,26.0339 106.739,16.922 100.6644,13.0169 88.0814,9.1119 73.7627,8.678 66.3864,10.4136 55.9729,17.3559 51.2,22.5627" stroke="#00007f" stroke-width="2" /><polyline fill="none" points="34.278,18.2237 45.5593,26.0339 48.1627,29.939 49.8983,35.5797 49.4644,48.1627 48.1627,54.6712 41.2203,68.9898 35.1458,75.9322 26.4678,82.0068" stroke="#7cff79" stroke-width="2" /><polyline fill="none" points="93.2881,12.5831 85.0441,30.8068 79.8373,53.3695 80.2712,64.2169 86.7797,77.2339" stroke="#7f0000" stroke-width="2" /></svg>