<?xml version="1.0" encoding="utf-8" ?>
<svg baseProfile="tiny" height="128" version="1.2" viewBox="0,0,128,128" width="128" xmlns="http://www.w3.org/2000/svg" xmlns:ev="http://www.w3.org/2001/xml-events" xmlns:xlink="http://www.w3.org/1999/xlink"><defs /><polyline fill="none" points="56.8407,8.678 53.3695,8.678 45.9932,12.1492 29.0712,23.4305 21.6949,31.2407 12.5831,44.2576 9.1119,55.539 8.678,72.0271 9.5458,78.1017 14.3186,86.7797 22.1288,96.3254 34.278,103.7017 55.1051,106.739 82.0068,106.739 90.6847,105.0034 104.5695,98.061 111.5119,91.9864 116.7186,85.478 119.322,75.4983 119.322,66.8203 117.5864,55.9729 111.5119,42.522 101.5322,32.1085 92.8542,25.1661 57.7085,10.4136" stroke="#00007f" stroke-width="2" /><polyline fill="none" points="34.7119,101.0983 48.1627,54.6712 47.7288,42.522 42.0881,31.2407 35.1458,23.4305" stroke="#7cff79" stroke-width="2" /><polyline fill="none" points="92.8542,98.9288 81.5729,87.2136 75.4983,69.8576 75.4983,59.4441 79.4034,32.1085 85.9119,24.7322" stroke="#7f0000" stroke-width="2" /></svg>