<?xml version="1.0" encoding="utf-8" ?>
<svg baseProfile="tiny" height="128" version="1.2" viewBox="0,0,128,128" width="128" xmlns="http://www.w3.org/2000/svg" xmlns:ev="http://www.w3.org/2001/xml-events" xmlns:xlink="http://www.w3.org/1999/xlink"><defs /><polyline fill="none" points="117.1525,32.1085 111.5119,24.2983 102.4,17.7898 93.2881,12.5831 81.139,9.1119 71.1593,8.678 62.4814,9.9797 42.9559,18.2237 25.6,33.8441 17.7898,45.9932 11.2814,61.1797 8.678,72.0271 8.678,79.8373 10.4136,86.3458 15.6203,94.5898 22.1288,101.9661 29.0712,106.3051 37.3153,109.7763 45.5593,110.6441 51.6339,109.7763 64.6508,104.1356 81.5729,93.2881 98.9288,79.4034 107.6068,69.4237 115.8508,56.4068 119.322,39.4847 118.0203,32.5424 114.1153,28.6373" stroke="#00007f" stroke-width="2" /><polyline fill="none" points="88.0814,13.4508 82.8746,21.6949 78.5356,45.5593 82.4407,70.7254 90.2508,88.0814" stroke="#0000fe" stroke-width="2" /><polyline fill="none" points="78.5356,19.0915 85.9119,23.8644" stroke="#0060ff" stroke-width="2" /><polyline fill="none" points="86.3458,21.261 77.6678,31.6746" stroke="#00d4ff" stroke-width="2" /><polyline fill="none" points="75.0644,35.1458 85.478,41.6542" stroke="#4cffaa" stroke-width="2" /><polyline fill="none" points="85.9119,36.8814 77.2339,50.7661" stroke="#aaff4c" stroke-width="2" /><polyline fill="none" points="72.8949,60.7458 88.5153,66.8203" stroke="#ffe500" stroke-width="2" /><polyline fill="none" points="86.7797,63.3492 77.6678,77.2339" stroke="#ff7a00" stroke-width="2" /><polyline fill="none" points="78.9695,82.4407 91.9864,80.7051" stroke="#fe1200" stroke-width="2" /><polyline fill="none" points="33.4102,30.3729 42.522,45.5593 46.4271,58.5763 46.4271,84.1763 45.1254,95.0237 42.522,101.0983" stroke="#7f0000" stroke-width="2" /></svg>