<?xml version="1.0" encoding="utf-8" ?>
<svg baseProfile="tiny" height="128" version="1.2" viewBox="0,0,128,128" width="128" xmlns="http://www.w3.org/2000/svg" xmlns:ev="http://www.w3.org/2001/xml-events" xmlns:xlink="http://www.w3.org/1999/xlink"><defs /><polyline fill="none" points="76.8,9.5458 55.9729,9.1119 45.9932,13.0169 34.7119,20.3932 30.3729,24.2983 16.0542,45.5593 11.7153,54.2373 8.678,66.8203 8.678,89.8169 13.0169,99.3627 33.4102,109.7763 50.7661,111.5119 68.9898,111.078 92.4203,101.9661 102.4,93.722 115.4169,78.9695 114.9831,76.3661 118.4542,71.5932 119.322,66.3864 118.8881,52.0678 114.5492,42.522 105.8712,30.8068 91.5525,19.9593 76.8,12.5831" stroke="#00007f" stroke-width="2" /><polyline fill="none" points="75.9322,8.678 68.9898,31.6746 67.2542,66.3864 74.6305,78.1017 85.478,85.0441 98.4949,89.3831" stroke="#0080ff" stroke-width="2" /><polyline fill="none" points="35.5797,19.5254 45.1254,44.6915 46.4271,64.2169 43.8237,83.3085 37.7492,96.7593 35.5797,98.061 35.5797,100.6644 31.2407,103.7017 22.5627,106.739" stroke="#7cff79" stroke-width="2" /><polyline fill="none" points="40.3525,59.0102 49.0305,59.0102" stroke="#ff9400" stroke-width="2" /><polyline fill="none" points="37.7492,71.1593 39.9186,71.1593 40.7864,73.7627" stroke="#7f0000" stroke-width="2" /></svg>