<?xml version="1.0" encoding="utf-8" ?>
<svg baseProfile="tiny" height="128" version="1.2" viewBox="0,0,128,128" width="128" xmlns="http://www.w3.org/2000/svg" xmlns:ev="http://www.w3.org/2001/xml-events" xmlns:xlink="http://www.w3.org/1999/xlink"><defs /><polyline fill="none" points="36.8814,26.0339 32.1085,28.6373 22.9966,30.3729 10.4136,48.1627 8.678,70.7254 9.9797,82.8746 13.4508,90.2508 30.8068,98.061 55.539,105.4373 74.6305,103.7017 92.8542,96.3254 102.4,88.9492 113.6814,68.5559 118.4542,55.539 119.322,44.2576 108.9085,30.3729 103.2678,26.0339 93.2881,22.1288 68.5559,14.7525 30.8068,8.678 27.3356,11.7153 22.1288,33.4102" stroke="#00007f" stroke-width="2" /><polyline fill="none" points="32.5424,16.4881 43.3898,35.5797 45.5593,43.8237 46.4271,90.2508 45.9932,95.0237 42.522,101.9661" stroke="#7cff79" stroke-width="2" /><polyline fill="none" points="93.2881,97.1932 66.8203,59.878 59.878,43.8237 61.1797,38.1831 64.6508,31.2407 75.0644,18.6576 75.4983,16.0542" stroke="#7f0000" stroke-width="2" /></svg>