<?xml version="1.0" encoding="utf-8" ?>
<svg baseProfile="tiny" height="128" version="1.2" viewBox="0,0,128,128" width="128" xmlns="http://www.w3.org/2000/svg" xmlns:ev="http://www.w3.org/2001/xml-events" xmlns:xlink="http://www.w3.org/1999/xlink"><defs /><polyline fill="none" points="74.6305,22.1288 65.9525,19.9593 49.4644,19.9593 44.2576,22.1288 39.4847,24.2983 26.9017,34.7119 17.3559,45.1254 13.8847,51.6339 9.9797,65.5186 8.678,82.0068 9.9797,97.1932 13.4508,106.739 19.0915,111.5119 29.939,114.5492 43.8237,116.2847 65.0847,114.9831 76.3661,109.3424 81.5729,105.0034 88.9492,91.9864 91.5525,83.7424 93.722,59.0102 89.3831,32.5424 84.6102,20.3932 80.2712,13.8847 75.4983,9.9797 69.4237,8.678 60.7458,9.1119 45.1254,14.7525 37.7492,20.3932 28.2034,30.8068 36.0136,37.7492 43.8237,50.7661 48.1627,64.6508 51.2,80.2712 51.2,93.2881 49.4644,102.4 42.522,113.2475 36.0136,119.322" stroke="#00007f" stroke-width="2" /><polyline fill="none" points="78.9695,17.7898 66.8203,28.2034 61.6136,38.6169 61.6136,42.9559 70.7254,85.9119 75.9322,98.061 81.5729,104.1356 85.9119,106.3051" stroke="#7f0000" stroke-width="2" /></svg>