<?xml version="1.0" encoding="utf-8" ?>
<svg baseProfile="tiny" height="128" version="1.2" viewBox="0,0,128,128" width="128" xmlns="http://www.w3.org/2000/svg" xmlns:ev="http://www.w3.org/2001/xml-events" xmlns:xlink="http://www.w3.org/1999/xlink"><defs /><polyline fill="none" points="84.1763,26.0339 80.7051,17.3559 73.3288,11.2814 66.8203,10.8475 57.7085,13.0169 37.7492,28.6373 27.7695,41.6542 18.6576,55.9729 11.7153,70.7254 8.678,83.7424 8.678,96.7593 11.7153,107.1729 18.2237,114.5492 27.7695,118.8881 39.4847,119.322 52.9356,117.1525 65.5186,111.9458 77.6678,103.7017 89.3831,94.1559 98.4949,83.3085 106.3051,71.1593 111.078,60.3119 112.8136,49.0305 111.5119,29.5051 107.6068,21.261 101.9661,15.6203 94.5898,11.7153 87.2136,9.9797 71.1593,9.9797 64.2169,11.2814 57.2746,15.6203" stroke="#00007f" stroke-width="2" /><polyline fill="none" points="30.8068,41.2203 36.8814,40.3525 41.2203,42.522 45.1254,46.861 48.1627,52.9356 51.2,66.8203 50.3322,80.7051 37.7492,117.5864" stroke="#0000fe" stroke-width="2" /><polyline fill="none" points="93.2881,8.678 90.2508,12.1492 87.2136,24.7322 84.1763,50.7661 84.1763,67.6881 85.9119,74.1966 91.5525,80.7051 98.9288,83.7424 105.0034,83.7424 107.6068,81.139" stroke="#0060ff" stroke-width="2" /><polyline fill="none" points="77.2339,30.8068 82.8746,25.6 97.6271,16.922" stroke="#00d4ff" stroke-width="2" /><polyline fill="none" points="76.3661,47.2949 95.4576,34.278" stroke="#4cffaa" stroke-width="2" /><polyline fill="none" points="80.7051,59.878 82.8746,61.1797 88.5153,58.1424 101.5322,47.7288" stroke="#aaff4c" stroke-width="2" /><polyline fill="none" points="84.1763,80.7051 104.5695,61.1797" stroke="#ffe500" stroke-width="2" /><polyline fill="none" points="36.0136,55.1051 43.3898,46.4271 55.9729,40.3525" stroke="#ff7a00" stroke-width="2" /><polyline fill="none" points="42.522,75.9322 54.6712,68.5559 65.0847,64.2169" stroke="#fe1200" stroke-width="2" /><polyline fill="none" points="40.7864,105.4373 48.1627,104.1356" stroke="#7f0000" stroke-width="2" /></svg>