<?xml version="1.0" encoding="utf-8" ?>
<svg baseProfile="tiny" height="128" version="1.2" viewBox="0,0,128,128" width="128" xmlns="http://www.w3.org/2000/svg" xmlns:ev="http://www.w3.org/2001/xml-events" xmlns:xlink="http://www.w3.org/1999/xlink"><defs /><polyline fill="none" points="44.6915,8.678 40.3525,12.1492 32.5424,22.1288 9.9797,56.4068 8.678,81.5729 12.1492,92.8542 19.9593,101.5322 28.6373,107.1729 39.9186,110.2102 61.1797,113.2475 82.8746,113.2475 94.1559,107.6068 103.2678,97.6271 114.5492,68.5559 116.2847,52.9356 115.8508,30.3729 110.6441,23.8644 90.2508,18.2237 63.3492,16.922 38.1831,17.3559 34.7119,18.6576" stroke="#00007f" stroke-width="2" /><polyline fill="none" points="19.5254,39.4847 32.5424,41.2203 39.9186,46.861 53.3695,62.0475 61.6136,80.2712 61.1797,111.5119 62.4814,114.9831" stroke="#7cff79" stroke-width="2" /><polyline fill="none" points="119.322,33.8441 95.0237,35.5797 88.0814,46.4271 85.0441,59.878 82.8746,64.2169 83.3085,90.2508 89.8169,94.5898 109.3424,101.5322" stroke="#7f0000" stroke-width="2" /></svg>