<?xml version="1.0" encoding="utf-8" ?>
<svg baseProfile="tiny" height="128" version="1.2" viewBox="0,0,128,128" width="128" xmlns="http://www.w3.org/2000/svg" xmlns:ev="http://www.w3.org/2001/xml-events" xmlns:xlink="http://www.w3.org/1999/xlink"><defs /><polyline fill="none" points="47.7288,8.678 39.9186,9.1119 30.8068,12.5831 24.2983,18.6576 16.0542,32.5424 10.8475,49.8983 8.678,65.5186 9.1119,85.0441 14.3186,98.061 25.6,110.2102 35.1458,115.4169 52.5017,119.322 66.8203,118.8881 84.1763,108.9085 94.5898,98.9288 99.7966,89.8169 102.8339,78.5356 103.7017,66.8203 101.0983,54.2373 96.3254,44.2576 88.5153,32.5424 79.8373,24.7322 73.3288,20.8271 47.2949,14.7525" stroke="#00007f" stroke-width="2" /><polyline fill="none" points="25.1661,23.8644 31.6746,39.9186 34.7119,62.9153 32.5424,71.5932 27.3356,81.5729 17.7898,91.5525" stroke="#7cff79" stroke-width="2" /><polyline fill="none" points="84.1763,21.261 77.6678,28.2034 68.9898,44.6915 65.9525,60.7458 65.9525,72.8949 68.9898,83.3085 74.6305,92.8542 81.5729,100.2305 88.9492,104.5695" stroke="#7f0000" stroke-width="2" /></svg>