<?xml version="1.0" encoding="utf-8" ?>
<svg baseProfile="tiny" height="128" version="1.2" viewBox="0,0,128,128" width="128" xmlns="http://www.w3.org/2000/svg" xmlns:ev="http://www.w3.org/2001/xml-events" xmlns:xlink="http://www.w3.org/1999/xlink"><defs /><polyline fill="none" points="75.9322,118.8881 66.8203,119.322 52.5017,116.2847 41.6542,111.9458 29.939,104.1356 18.6576,91.5525 13.8847,83.7424 10.4136,75.9322 8.678,62.0475 9.9797,53.8034 13.0169,47.2949 24.2983,33.8441 38.6169,22.1288 59.4441,10.4136 70.2915,8.678 79.4034,9.9797 86.3458,16.4881 89.3831,22.1288 91.5525,31.2407 92.4203,68.122 88.9492,92.8542 85.0441,104.5695 77.6678,113.2475 72.8949,114.9831 65.9525,114.5492 59.0102,112.3797 54.6712,108.4746" stroke="#00007f" stroke-width="2" /><polyline fill="none" points="91.9864,12.1492 73.3288,33.8441 57.2746,59.4441" stroke="#0028ff" stroke-width="2" /><polyline fill="none" points="95.8915,42.0881 89.8169,45.5593 81.5729,58.1424 75.9322,77.6678" stroke="#00d4ff" stroke-width="2" /><polyline fill="none" points="88.5153,79.8373 81.139,93.2881 77.2339,103.7017" stroke="#7cff79" stroke-width="2" /><polyline fill="none" points="13.0169,81.5729 15.1864,77.2339 20.3932,73.3288 39.9186,62.4814" stroke="#ffe500" stroke-width="2" /><polyline fill="none" points="32.1085,96.7593 50.3322,91.5525 56.4068,92.4203" stroke="#ff4600" stroke-width="2" /><polyline fill="none" points="47.2949,115.4169 65.5186,109.3424" stroke="#7f0000" stroke-width="2" /></svg>