<?xml version="1.0" encoding="utf-8" ?>
<svg baseProfile="tiny" height="128" version="1.2" viewBox="0,0,128,128" width="128" xmlns="http://www.w3.org/2000/svg" xmlns:ev="http://www.w3.org/2001/xml-events" xmlns:xlink="http://www.w3.org/1999/xlink"><defs /><polyline fill="none" points="77.2339,13.8847 70.2915,10.4136 57.7085,8.678 42.9559,11.2814 34.7119,14.7525 22.1288,24.2983 16.922,31.2407 9.9797,47.2949 8.678,55.539 9.5458,63.3492 13.4508,73.7627 20.3932,81.5729 32.9763,89.3831 49.4644,93.722 67.6881,91.9864 76.3661,88.9492 98.9288,74.6305 111.078,63.3492 117.5864,53.3695 119.322,39.9186 115.4169,27.7695 107.6068,20.3932 102.8339,17.7898 90.6847,18.2237 76.8,22.1288" stroke="#00007f" stroke-width="2" /><polyline fill="none" points="38.6169,79.4034 45.1254,53.8034 53.3695,41.2203 74.6305,27.3356 91.9864,21.6949" stroke="#7cff79" stroke-width="2" /><polyline fill="none" points="22.9966,36.8814 23.4305,32.1085 29.939,29.939 36.0136,29.939 52.0678,34.278 72.461,42.522 85.0441,52.9356 96.7593,77.2339" stroke="#7f0000" stroke-width="2" /></svg>