<?xml version="1.0" encoding="utf-8" ?>
<svg baseProfile="tiny" height="128" version="1.2" viewBox="0,0,128,128" width="128" xmlns="http://www.w3.org/2000/svg" xmlns:ev="http://www.w3.org/2001/xml-events" xmlns:xlink="http://www.w3.org/1999/xlink"><defs /><polyline fill="none" points="95.0237,12.5831 80.7051,8.678 68.5559,8.678 59.0102,10.4136 42.0881,19.0915 20.8271,37.3153 14.7525,45.9932 9.9797,55.9729 8.678,69.4237 9.9797,86.7797 12.1492,94.5898 16.4881,100.6644 21.6949,105.8712 34.7119,112.8136 49.4644,118.0203 71.5932,119.322 88.0814,114.5492 100.2305,106.739 110.6441,93.2881 114.9831,83.3085" stroke="#00007f" stroke-width="2" /><polyline fill="none" points="116.2847,77.6678 118.4542,70.2915" stroke="#0000e8" stroke-width="2" /><polyline fill="none" points="118.4542,65.9525 118.4542,55.1051 115.8508,39.0508 109.3424,26.0339 100.2305,16.922 96.3254,14.7525 82.0068,17.7898 73.3288,17.3559" stroke="#0038ff" stroke-width="2" /><polyline fill="none" points="79.8373,9.5458 74.1966,9.9797 62.9153,13.8847 49.4644,21.261 36.0136,33.4102 32.9763,38.6169 30.3729,47.2949 29.0712,68.122 32.9763,85.478 41.2203,99.3627 52.9356,108.9085 59.0102,111.5119" stroke="#0094ff" stroke-width="2" /><polyline fill="none" points="91.9864,19.5254 86.3458,22.1288 75.4983,34.278 71.1593,47.7288 70.7254,68.5559 73.7627,81.139 78.9695,91.5525 86.3458,97.6271 97.6271,100.2305" stroke="#0cf4ea" stroke-width="2" /><polyline fill="none" points="68.122,107.6068 95.4576,95.8915" stroke="#56ffa0" stroke-width="2" /><polyline fill="none" points="63.7831,87.2136 70.2915,82.0068 82.0068,77.2339" stroke="#a0ff56" stroke-width="2" /><polyline fill="none" points="56.8407,71.5932 75.0644,60.3119" stroke="#eaff0c" stroke-width="2" /><polyline fill="none" points="44.2576,40.3525 74.6305,40.7864" stroke="#ffaa00" stroke-width="2" /><polyline fill="none" points="67.2542,28.2034 101.5322,28.2034" stroke="#ff5500" stroke-width="2" /><polyline fill="none" points="27.3356,79.8373 48.5966,70.2915" stroke="#e80000" stroke-width="2" /><polyline fill="none" points="20.8271,63.3492 32.5424,57.7085" stroke="#7f0000" stroke-width="2" /></svg>