<?xml version="1.0" encoding="utf-8" ?>
<svg baseProfile="tiny" height="128" version="1.2" viewBox="0,0,128,128" width="128" xmlns="http://www.w3.org/2000/svg" xmlns:ev="http://www.w3.org/2001/xml-events" xmlns:xlink="http://www.w3.org/1999/xlink"><defs /><polyline fill="none" points="78.1017,20.3932 73.3288,19.0915 67.6881,15.1864 62.0475,14.7525 49.4644,16.4881 44.2576,18.2237 36.0136,22.9966 26.4678,31.2407 21.6949,37.3153 14.3186,52.9356 8.678,70.2915 16.922,97.6271 26.9017,107.1729 36.8814,113.2475 55.1051,118.8881 69.4237,119.322 76.3661,118.0203 104.5695,91.9864 110.6441,83.3085 114.9831,70.2915 116.2847,63.7831 113.2475,52.9356 104.1356,33.4102 100.6644,28.6373 91.9864,21.261 81.5729,14.7525 62.9153,8.678 56.8407,8.678" stroke="#00007f" stroke-width="2" /><polyline fill="none" points="25.6,24.2983 47.2949,42.0881 64.6508,62.0475 83.3085,78.1017 99.3627,95.8915" stroke="#7cff79" stroke-width="2" /><polyline fill="none" points="22.9966,39.9186 28.2034,45.9932 40.7864,57.2746 82.8746,87.2136 105.8712,110.2102" stroke="#7f0000" stroke-width="2" /></svg>