<?xml version="1.0" encoding="utf-8" ?>
<svg baseProfile="tiny" height="128" version="1.2" viewBox="0,0,128,128" width="128" xmlns="http://www.w3.org/2000/svg" xmlns:ev="http://www.w3.org/2001/xml-events" xmlns:xlink="http://www.w3.org/1999/xlink"><defs /><polyline fill="none" points="79.8373,9.5458 60.3119,8.678 54.2373,10.4136 40.3525,18.6576 19.9593,35.1458 12.5831,45.9932 8.678,58.5763 9.5458,70.7254 12.5831,76.8 17.7898,81.5729 23.8644,85.9119 37.3153,90.6847 73.7627,91.1186 86.3458,88.0814 96.7593,83.7424 105.8712,77.6678 113.2475,69.8576 118.4542,59.4441 119.322,45.1254 118.0203,39.9186 115.4169,36.0136 108.0407,29.0712 87.6475,16.0542 85.9119,13.8847" stroke="#00007f" stroke-width="2" /><polyline fill="none" points="37.3153,25.1661 29.939,31.2407 26.9017,36.4475 26.9017,46.4271 39.0508,58.5763 42.0881,64.2169 42.9559,72.8949 40.3525,76.8" stroke="#00d4ff" stroke-width="2" /><polyline fill="none" points="96.7593,16.922 79.8373,25.1661 70.7254,37.3153 71.1593,49.8983 75.4983,54.2373 88.9492,57.2746 91.9864,61.1797 91.1186,71.1593 84.1763,75.9322 79.8373,76.8" stroke="#ffe500" stroke-width="2" /><polyline fill="none" points="13.0169,63.3492 15.6203,58.5763 28.2034,49.4644 49.0305,41.2203 83.3085,42.0881 101.0983,52.5017 106.3051,52.5017" stroke="#7f0000" stroke-width="2" /></svg>