<?xml version="1.0" encoding="utf-8" ?>
<svg baseProfile="tiny" height="128" version="1.2" viewBox="0,0,128,128" width="128" xmlns="http://www.w3.org/2000/svg" xmlns:ev="http://www.w3.org/2001/xml-events" xmlns:xlink="http://www.w3.org/1999/xlink"><defs /><polyline fill="none" points="48.1627,9.5458 32.9763,12.5831 16.922,20.8271 10.4136,29.0712 9.1119,33.8441 8.678,38.6169 10.4136,46.861 16.4881,56.8407 37.7492,68.5559 68.5559,74.1966 100.2305,74.1966 104.1356,72.8949 115.4169,60.7458 118.8881,52.0678 119.322,46.861 117.1525,42.0881 93.722,22.9966 46.4271,8.678" stroke="#00007f" stroke-width="2" /><polyline fill="none" points="44.6915,10.4136 41.2203,14.3186 29.0712,40.3525 21.261,47.7288 15.1864,51.2 13.8847,52.0678 14.7525,50.7661" stroke="#7cff79" stroke-width="2" /><polyline fill="none" points="97.1932,22.1288 93.2881,25.6 79.4034,28.2034 77.6678,29.939 72.0271,35.1458 68.5559,45.1254 69.4237,49.0305 77.2339,59.878 85.0441,67.2542 91.5525,71.1593" stroke="#7f0000" stroke-width="2" /></svg>