<?xml version="1.0" encoding="utf-8" ?>
<svg baseProfile="tiny" height="128" version="1.2" viewBox="0,0,128,128" width="128" xmlns="http://www.w3.org/2000/svg" xmlns:ev="http://www.w3.org/2001/xml-events" xmlns:xlink="http://www.w3.org/1999/xlink"><defs /><polyline fill="none" points="75.1399,14.8532 67.7133,10.9215 52.8601,8.7372 40.628,10.4846 27.5222,16.1638 16.1638,26.2116 11.3584,34.5119 8.7372,45.4334 12.2321,71.2082 15.727,81.256 24.4642,95.6724 33.2014,103.9727 43.686,110.0887 55.0444,113.5836 62.9078,114.4573 73.8294,112.273 80.8191,106.5939 93.0512,91.7406 98.7304,78.198 101.3515,67.7133 101.7884,53.2969 98.7304,42.3754 93.0512,32.3276 77.3242,10.9215" stroke="#00007f" stroke-width="2" /><polyline fill="none" points="75.1399,18.785 72.0819,22.7167 66.8396,41.5017 63.3447,65.0922 65.529,87.8089 75.1399,119.2628" stroke="#0028ff" stroke-width="2" /><polyline fill="none" points="25.3379,12.6689 24.4642,22.2799 29.7065,46.3072 28.8328,72.0819 27.0853,80.8191 23.5904,89.9932 15.2901,97.8567" stroke="#00d4ff" stroke-width="2" /><polyline fill="none" points="16.1638,72.0819 27.959,74.7031 34.9488,72.9556 37.1331,68.587" stroke="#7cff79" stroke-width="2" /><polyline fill="none" points="20.0956,54.6075 22.2799,56.7918 28.3959,54.6075 34.5119,50.2389" stroke="#ffe500" stroke-width="2" /><polyline fill="none" points="21.843,31.0171 42.8123,20.5324" stroke="#ff4600" stroke-width="2" /><polyline fill="none" points="51.5495,85.1877 51.5495,85.1877" stroke="#7f0000" stroke-width="2" /></svg>