<?xml version="1.0" encoding="utf-8" ?>
<svg baseProfile="tiny" height="128" version="1.2" viewBox="0,0,128,128" width="128" xmlns="http://www.w3.org/2000/svg" xmlns:ev="http://www.w3.org/2001/xml-events" xmlns:xlink="http://www.w3.org/1999/xlink"><defs /><polyline fill="none" points="86.7797,28.2034 80.7051,15.6203 72.8949,10.4136 64.2169,8.678 59.0102,9.5458 52.9356,13.0169 28.6373,33.4102 14.7525,54.2373 8.678,75.0644 10.4136,87.6475 13.8847,95.4576 24.7322,106.739 39.4847,115.4169 51.2,119.322 70.7254,118.4542 82.0068,116.2847 94.5898,110.2102 100.2305,105.8712 108.0407,95.0237 114.1153,72.0271 114.1153,54.2373 109.3424,37.3153 103.7017,28.6373 98.4949,25.1661 66.8203,9.5458" stroke="#00007f" stroke-width="2" /><polyline fill="none" points="42.0881,29.5051 42.0881,38.1831 45.1254,46.861 47.2949,60.3119 48.1627,79.4034 43.3898,93.2881 39.4847,100.6644" stroke="#0028ff" stroke-width="2" /><polyline fill="none" points="100.6644,31.6746 95.4576,33.4102 88.5153,45.1254 73.7627,76.8 72.0271,85.478 72.0271,89.3831 74.1966,94.5898 78.1017,98.9288 82.4407,102.4 96.7593,109.3424" stroke="#00d4ff" stroke-width="2" /><polyline fill="none" points="30.3729,52.9356 38.1831,51.2" stroke="#7cff79" stroke-width="2" /><polyline fill="none" points="41.2203,79.8373 49.0305,78.1017" stroke="#ffe500" stroke-width="2" /><polyline fill="none" points="35.1458,98.4949 45.1254,99.3627" stroke="#ff4600" stroke-width="2" /><polyline fill="none" points="76.8,38.1831 83.7424,40.3525 98.4949,40.3525" stroke="#7f0000" stroke-width="2" /></svg>