<?xml version="1.0" encoding="utf-8" ?>
<svg baseProfile="tiny" height="128" version="1.2" viewBox="0,0,128,128" width="128" xmlns="http://www.w3.org/2000/svg" xmlns:ev="http://www.w3.org/2001/xml-events" xmlns:xlink="http://www.w3.org/1999/xlink"><defs /><polyline fill="none" points="73.3288,18.2237 66.3864,16.0542 48.5966,16.0542 42.9559,16.4881 36.0136,20.3932 24.7322,29.939 19.0915,38.6169 13.8847,47.2949 8.678,66.3864 8.678,84.1763 11.7153,93.722 27.7695,108.9085 47.2949,118.4542 57.7085,119.322 67.6881,119.322 75.9322,117.5864 84.6102,111.078 99.3627,90.2508 104.1356,79.4034 106.739,71.1593 106.739,56.8407 99.7966,41.2203 73.7627,8.678" stroke="#00007f" stroke-width="2" /><polyline fill="none" points="28.6373,32.5424 34.7119,64.2169 34.7119,90.6847 31.6746,110.2102" stroke="#7cff79" stroke-width="2" /><polyline fill="none" points="93.722,28.2034 87.2136,26.4678 82.4407,27.7695 77.2339,35.5797 72.461,49.8983 71.1593,58.1424 71.1593,73.7627 77.2339,89.8169 82.0068,98.061 85.9119,101.5322 91.5525,103.7017" stroke="#7f0000" stroke-width="2" /></svg>