<?xml version="1.0" encoding="utf-8" ?>
<svg baseProfile="tiny" height="128" version="1.2" viewBox="0,0,128,128" width="128" xmlns="http://www.w3.org/2000/svg" xmlns:ev="http://www.w3.org/2001/xml-events" xmlns:xlink="http://www.w3.org/1999/xlink"><defs /><polyline fill="none" points="13.4508,29.939 20.8271,21.261 26.9017,18.6576 38.1831,16.4881 64.2169,15.6203 76.3661,19.9593 87.2136,26.0339 97.6271,36.0136 105.8712,49.0305 110.6441,60.3119 112.3797,86.3458 107.6068,97.6271 99.3627,106.3051 87.6475,114.1153 73.3288,118.8881 57.7085,119.322 40.3525,116.2847 27.3356,107.6068 18.2237,96.3254 12.5831,85.478 9.1119,73.3288 8.678,63.3492 8.678,53.3695 10.4136,43.8237 19.9593,27.3356 26.9017,26.4678" stroke="#00007f" stroke-width="2" /><polyline fill="none" points="87.6475,9.9797 84.6102,15.1864 68.5559,61.6136 66.8203,71.5932 66.8203,88.9492 69.4237,96.3254 77.2339,104.5695 84.6102,108.9085 95.8915,110.6441" stroke="#7cff79" stroke-width="2" /><polyline fill="none" points="16.922,8.678 24.7322,16.922 35.5797,32.9763 40.3525,48.5966 41.2203,77.6678 34.7119,106.3051" stroke="#7f0000" stroke-width="2" /></svg>