<?xml version="1.0" encoding="utf-8" ?>
<svg baseProfile="tiny" height="128" version="1.2" viewBox="0,0,128,128" width="128" xmlns="http://www.w3.org/2000/svg" xmlns:ev="http://www.w3.org/2001/xml-events" xmlns:xlink="http://www.w3.org/1999/xlink"><defs /><polyline fill="none" points="108.9085,20.8271 97.6271,19.9593 72.8949,13.8847 54.6712,13.4508 44.6915,16.0542 25.1661,26.9017 13.0169,40.7864 9.5458,49.0305 8.678,63.7831 12.5831,71.1593 17.7898,76.8 26.9017,82.4407 37.3153,86.3458 58.5763,90.6847 86.7797,91.5525 97.6271,84.6102 113.2475,65.9525 117.1525,59.0102 119.322,48.1627 118.8881,38.1831 116.7186,32.9763 109.3424,23.8644 103.7017,19.9593 97.1932,16.4881 77.6678,11.7153 76.3661,8.678" stroke="#00007f" stroke-width="2" /><polyline fill="none" points="29.5051,26.4678 36.8814,26.9017 49.8983,34.278 57.2746,42.0881 62.0475,52.9356 62.4814,64.2169 59.0102,71.5932 49.4644,79.4034 40.3525,84.6102" stroke="#7cff79" stroke-width="2" /><polyline fill="none" points="110.6441,26.4678 103.2678,26.9017 97.6271,29.5051 85.9119,39.0508 73.3288,61.1797 69.4237,72.461 68.122,89.8169 71.1593,95.0237 74.1966,97.1932 83.7424,98.9288 88.5153,98.9288 91.5525,96.7593" stroke="#7f0000" stroke-width="2" /></svg>