<?xml version="1.0" encoding="utf-8" ?>
<svg baseProfile="tiny" height="128" version="1.2" viewBox="0,0,128,128" width="128" xmlns="http://www.w3.org/2000/svg" xmlns:ev="http://www.w3.org/2001/xml-events" xmlns:xlink="http://www.w3.org/1999/xlink"><defs /><polyline fill="none" points="86.7797,15.6203 80.7051,12.5831 66.8203,8.678 45.9932,9.1119 32.1085,13.0169 22.1288,20.3932 15.1864,28.2034 11.2814,36.4475 8.678,45.9932 8.678,56.4068 10.4136,64.6508 15.6203,72.8949 25.1661,82.4407 39.4847,90.2508 60.7458,95.0237 72.8949,95.0237 82.4407,93.2881 101.0983,84.1763 106.3051,79.8373 114.9831,68.9898 117.5864,60.7458 119.322,48.1627 116.2847,32.1085 114.9831,29.0712 106.739,19.5254 98.4949,13.8847 88.5153,10.8475 76.3661,11.2814" stroke="#00007f" stroke-width="2" /><polyline fill="none" points="36.4475,18.6576 40.7864,21.261 50.7661,33.8441 53.3695,38.6169 54.6712,48.1627 53.8034,56.8407 50.7661,69.4237 43.3898,86.7797 39.4847,91.9864" stroke="#004cff" stroke-width="2" /><polyline fill="none" points="76.8,12.1492 81.5729,28.6373 84.1763,49.4644 86.7797,55.1051 90.2508,59.0102 98.4949,63.7831 107.1729,65.9525 112.3797,65.5186" stroke="#29ffcd" stroke-width="2" /><polyline fill="none" points="49.0305,29.939 54.6712,28.6373" stroke="#cdff29" stroke-width="2" /><polyline fill="none" points="51.6339,45.1254 62.9153,43.3898" stroke="#ff6700" stroke-width="2" /><polyline fill="none" points="50.7661,61.6136 57.7085,65.5186" stroke="#7f0000" stroke-width="2" /></svg>