<?xml version="1.0" encoding="utf-8" ?>
<svg baseProfile="tiny" height="128" version="1.2" viewBox="0,0,128,128" width="128" xmlns="http://www.w3.org/2000/svg" xmlns:ev="http://www.w3.org/2001/xml-events" xmlns:xlink="http://www.w3.org/1999/xlink"><defs /><polyline fill="none" points="68.122,12.1492 60.3119,8.678 45.1254,10.8475 29.939,18.2237 19.5254,26.4678 12.5831,38.1831 8.678,51.6339 9.5458,66.8203 13.8847,79.8373 19.5254,87.2136 31.2407,94.1559 43.3898,96.7593 61.6136,98.4949 72.461,98.4949 85.478,96.3254 96.3254,91.5525 105.0034,85.478 111.9458,75.4983 118.4542,52.5017 119.322,38.1831 115.4169,27.7695 109.7763,21.261 96.7593,15.1864 81.139,14.7525 62.0475,18.6576" stroke="#00007f" stroke-width="2" /><polyline fill="none" points="31.2407,17.7898 29.939,22.1288 36.8814,48.5966 38.1831,65.0847 36.0136,75.9322 29.0712,95.8915" stroke="#0000fe" stroke-width="2" /><polyline fill="none" points="85.9119,12.1492 80.7051,17.3559 76.3661,26.4678 72.8949,40.7864 72.461,50.7661 74.6305,62.0475 78.1017,71.1593 83.7424,81.139 89.3831,85.9119" stroke="#0060ff" stroke-width="2" /><polyline fill="none" points="19.0915,31.2407 36.8814,23.8644 41.6542,23.4305" stroke="#00d4ff" stroke-width="2" /><polyline fill="none" points="24.2983,40.3525 43.3898,38.6169 44.6915,38.6169 43.8237,40.3525" stroke="#4cffaa" stroke-width="2" /><polyline fill="none" points="29.939,46.4271 42.9559,48.5966 44.2576,51.2" stroke="#aaff4c" stroke-width="2" /><polyline fill="none" points="31.6746,53.8034 48.1627,59.4441 49.0305,61.6136" stroke="#ffe500" stroke-width="2" /><polyline fill="none" points="36.4475,64.2169 51.2,73.7627 49.0305,75.0644" stroke="#ff7a00" stroke-width="2" /><polyline fill="none" points="36.4475,72.8949 36.4475,72.8949" stroke="#fe1200" stroke-width="2" /><polyline fill="none" points="37.3153,81.139 46.861,85.9119 52.0678,85.9119" stroke="#7f0000" stroke-width="2" /></svg>