<?xml version="1.0" encoding="utf-8" ?>
<svg baseProfile="tiny" height="128" version="1.2" viewBox="0,0,128,128" width="128" xmlns="http://www.w3.org/2000/svg" xmlns:ev="http://www.w3.org/2001/xml-events" xmlns:xlink="http://www.w3.org/1999/xlink"><defs /><polyline fill="none" points="61.1797,8.678 46.4271,8.678 39.4847,10.8475 23.4305,22.9966 20.3932,26.9017 15.6203,37.7492 8.678,61.1797 8.678,75.9322 15.1864,85.478 20.3932,89.3831 32.1085,92.4203 49.8983,94.1559 106.3051,93.2881 113.6814,87.6475 117.5864,80.2712 119.322,72.0271 119.322,57.2746 115.4169,42.9559 105.8712,29.0712 101.9661,26.0339 88.0814,19.5254 66.3864,15.1864 50.3322,8.678" stroke="#00007f" stroke-width="2" /><polyline fill="none" points="10.8475,79.4034 22.5627,74.6305 31.6746,68.9898 42.522,57.2746 47.2949,49.0305 51.2,14.3186" stroke="#7cff79" stroke-width="2" /><polyline fill="none" points="67.6881,92.8542 62.9153,85.0441 62.0475,76.8 62.9153,69.4237 65.5186,63.3492 67.6881,60.3119 78.9695,52.9356 95.8915,45.5593" stroke="#7f0000" stroke-width="2" /></svg>