<?xml version="1.0" encoding="utf-8" ?>
<svg baseProfile="tiny" height="128" version="1.2" viewBox="0,0,128,128" width="128" xmlns="http://www.w3.org/2000/svg" xmlns:ev="http://www.w3.org/2001/xml-events" xmlns:xlink="http://www.w3.org/1999/xlink"><defs /><polyline fill="none" points="91.9864,24.7322 85.9119,21.261 51.2,9.9797 34.278,8.678 32.1085,9.5458 24.7322,15.6203 15.1864,28.2034 9.9797,39.4847 8.678,48.1627 9.5458,61.1797 11.7153,69.4237 14.3186,73.7627 24.7322,83.7424 33.4102,89.3831 61.6136,96.3254 74.6305,93.722 80.2712,91.1186 88.5153,84.1763 111.078,61.1797 116.2847,54.6712 118.8881,48.5966 119.322,42.9559 116.7186,35.5797 112.3797,28.6373 101.5322,20.8271 61.6136,15.1864 51.2,17.7898 45.9932,16.0542 41.2203,11.7153 48.5966,33.8441 50.7661,49.8983 47.7288,85.0441 45.1254,93.722" stroke="#00007f" stroke-width="2" /><polyline fill="none" points="79.8373,88.5153 79.4034,59.878 81.5729,42.9559 99.7966,22.5627" stroke="#7f0000" stroke-width="2" /></svg>