<?xml version="1.0" encoding="utf-8" ?>
<svg baseProfile="tiny" height="128" version="1.2" viewBox="0,0,128,128" width="128" xmlns="http://www.w3.org/2000/svg" xmlns:ev="http://www.w3.org/2001/xml-events" xmlns:xlink="http://www.w3.org/1999/xlink"><defs /><polyline fill="none" points="59.878,10.4136 49.8983,10.8475 40.3525,13.0169 30.3729,17.7898 21.261,24.7322 14.3186,36.4475 10.4136,49.8983 10.4136,65.5186 18.2237,75.0644 31.6746,81.5729 52.0678,84.6102 90.6847,84.6102 99.7966,80.7051 108.9085,75.0644 116.7186,66.8203 119.322,59.0102 119.322,49.8983 117.1525,41.2203 108.9085,29.939 95.0237,22.9966 76.3661,17.3559 38.1831,9.9797 8.678,8.678" stroke="#00007f" stroke-width="2" /><polyline fill="none" points="70.2915,12.1492 48.1627,44.6915 43.3898,53.8034 36.8814,73.7627 36.4475,78.9695 39.4847,81.139 45.1254,80.2712" stroke="#7cff79" stroke-width="2" /><polyline fill="none" points="83.3085,19.9593 59.878,52.0678 52.0678,64.6508 49.0305,72.8949 49.8983,78.5356" stroke="#7f0000" stroke-width="2" /></svg>