<?xml version="1.0" encoding="utf-8" ?>
<svg baseProfile="tiny" height="128" version="1.2" viewBox="0,0,128,128" width="128" xmlns="http://www.w3.org/2000/svg" xmlns:ev="http://www.w3.org/2001/xml-events" xmlns:xlink="http://www.w3.org/1999/xlink"><defs /><polyline fill="none" points="41.2203,116.2847 36.0136,114.1153 28.2034,106.739 15.6203,88.5153 9.9797,72.8949 8.678,51.6339 12.5831,39.9186 17.3559,31.6746 27.7695,20.8271 39.4847,13.0169 52.9356,9.1119 68.5559,8.678 79.4034,11.7153 88.5153,17.7898 99.3627,32.1085 104.1356,46.4271 105.0034,72.0271 102.4,80.2712 95.8915,92.4203 87.2136,103.7017 72.461,114.9831 64.2169,118.0203 56.8407,119.322 46.4271,118.8881 41.2203,116.2847 37.3153,112.3797 36.0136,106.739" stroke="#00007f" stroke-width="2" /><polyline fill="none" points="43.3898,15.6203 45.5593,16.0542 48.1627,19.9593 51.6339,30.3729 52.5017,50.3322 49.8983,64.6508 43.3898,78.1017 34.7119,91.1186 28.2034,97.6271 23.4305,100.2305" stroke="#7cff79" stroke-width="2" /><polyline fill="none" points="98.9288,23.8644 93.2881,29.939 88.5153,38.6169 84.1763,57.7085 82.0068,90.6847 84.1763,95.4576 88.0814,97.6271" stroke="#7f0000" stroke-width="2" /></svg>