<?xml version="1.0" encoding="utf-8" ?>
<svg baseProfile="tiny" height="128" version="1.2" viewBox="0,0,128,128" width="128" xmlns="http://www.w3.org/2000/svg" xmlns:ev="http://www.w3.org/2001/xml-events" xmlns:xlink="http://www.w3.org/1999/xlink"><defs /><polyline fill="none" points="82.8746,9.1119 57.2746,8.678 35.1458,16.922 14.3186,26.9017 8.678,42.522 8.678,75.0644 13.0169,96.3254 19.5254,106.739 30.3729,113.6814 43.3898,118.0203 51.6339,119.322 73.3288,119.322 80.7051,116.7186 93.2881,107.6068 110.2102,91.5525 113.6814,81.139 113.6814,52.5017 112.3797,37.3153 104.1356,23.4305 97.6271,16.922 85.9119,12.5831" stroke="#00007f" stroke-width="2" /><polyline fill="none" points="84.6102,9.1119 84.1763,41.6542 81.5729,45.1254 74.1966,49.0305 70.2915,50.3322 32.5424,50.3322 21.6949,46.861 21.261,43.8237 16.922,36.4475 16.922,29.939" stroke="#0010ff" stroke-width="2" /><polyline fill="none" points="108.4746,93.2881 85.9119,73.7627 75.9322,69.4237 63.7831,69.4237 55.539,90.6847 52.9356,101.9661 53.3695,110.2102" stroke="#00a4ff" stroke-width="2" /><polyline fill="none" points="48.1627,47.7288 47.7288,59.878 45.5593,58.5763" stroke="#3fffb7" stroke-width="2" /><polyline fill="none" points="44.6915,52.9356 43.8237,52.9356" stroke="#b7ff3f" stroke-width="2" /><polyline fill="none" points="42.522,40.7864 41.2203,44.6915 41.2203,54.6712" stroke="#ffb900" stroke-width="2" /><polyline fill="none" points="35.5797,43.3898 31.6746,51.6339" stroke="#ff3000" stroke-width="2" /><polyline fill="none" points="27.3356,42.522 20.8271,53.3695" stroke="#7f0000" stroke-width="2" /></svg>