<?xml version="1.0" encoding="utf-8" ?>
<svg baseProfile="tiny" height="128" version="1.2" viewBox="0,0,128,128" width="128" xmlns="http://www.w3.org/2000/svg" xmlns:ev="http://www.w3.org/2001/xml-events" xmlns:xlink="http://www.w3.org/1999/xlink"><defs /><polyline fill="none" points="35.5797,24.7322 29.0712,29.0712 24.2983,34.7119 12.1492,55.539 8.678,67.6881 8.678,79.8373 14.3186,98.9288 23.4305,113.2475 32.9763,118.8881 38.6169,119.322 45.1254,117.5864 53.3695,111.9458 60.7458,103.2678 71.1593,83.3085 75.4983,69.8576 78.9695,49.4644 78.9695,36.4475 76.8,28.2034 71.5932,16.4881 66.3864,10.8475 60.7458,8.678 55.1051,8.678 48.5966,10.8475 40.7864,16.922 31.2407,26.9017" stroke="#00007f" stroke-width="2" /><polyline fill="none" points="33.4102,24.2983 40.7864,39.4847 43.3898,53.8034 42.9559,66.3864 40.7864,78.1017 34.278,94.1559 24.7322,103.2678" stroke="#7cff79" stroke-width="2" /><polyline fill="none" points="85.0441,28.2034 70.7254,40.7864 63.3492,51.6339 58.1424,64.2169 55.539,75.0644 56.8407,85.478 61.1797,92.8542 66.8203,94.5898" stroke="#7f0000" stroke-width="2" /></svg>