<?xml version="1.0" encoding="utf-8" ?>
<svg baseProfile="tiny" height="128" version="1.2" viewBox="0,0,128,128" width="128" xmlns="http://www.w3.org/2000/svg" xmlns:ev="http://www.w3.org/2001/xml-events" xmlns:xlink="http://www.w3.org/1999/xlink"><defs /><polyline fill="none" points="69.8576,14.7525 63.3492,9.5458 57.2746,8.678 38.6169,11.7153 27.3356,18.2237 18.6576,25.6 9.1119,41.2203 8.678,57.2746 19.5254,82.0068 33.4102,101.5322 42.9559,111.078 53.3695,116.2847 75.0644,118.8881 89.3831,118.0203 94.5898,116.7186 102.4,110.6441 107.6068,98.4949 111.9458,71.5932 109.3424,53.3695 105.0034,43.8237 101.0983,39.4847 82.4407,22.9966 76.8,16.4881" stroke="#00007f" stroke-width="2" /><polyline fill="none" points="86.3458,17.7898 85.478,22.9966 87.2136,72.461 93.2881,111.9458 91.5525,117.5864 90.2508,116.7186" stroke="#7cff79" stroke-width="2" /><polyline fill="none" points="101.5322,32.9763 99.3627,39.4847 98.4949,54.2373 103.7017,107.1729 101.9661,119.322" stroke="#7f0000" stroke-width="2" /></svg>