<?xml version="1.0" encoding="utf-8" ?>
<svg baseProfile="tiny" height="128" version="1.2" viewBox="0,0,128,128" width="128" xmlns="http://www.w3.org/2000/svg" xmlns:ev="http://www.w3.org/2001/xml-events" xmlns:xlink="http://www.w3.org/1999/xlink"><defs /><polyline fill="none" points="77.932,13.4966 73.1429,10.8844 60.517,8.7075 46.585,8.7075 33.0884,13.0612 25.6871,17.8503 18.2857,26.5578 10.0136,51.3741 8.7075,60.9524 8.7075,81.415 11.7551,94.4762 15.6735,102.3129 19.5918,107.5374 29.6054,113.1973 50.9388,119.2925 69.6599,119.2925 78.8027,116.6803 86.6395,112.3265 97.0884,103.619 104.9252,94.0408 110.1497,83.1565 112.3265,73.1429 112.3265,65.3061 110.585,58.7755 101.4422,40.9252 93.1701,27.8639 82.7211,17.8503 71.8367,13.4966 64.4354,12.6259" stroke="#00007f" stroke-width="2" /><polyline fill="none" points="39.1837,14.8027 39.619,29.6054 35.2653,54.4218 29.6054,64.8707 18.7211,74.449 13.932,82.2857 12.1905,82.7211" stroke="#7cff79" stroke-width="2" /><polyline fill="none" points="97.0884,42.6667 90.5578,50.068 80.1088,56.1633 74.0136,61.3878 66.1769,74.449 64.4354,85.3333 64.8707,97.9592 72.2721,115.3741" stroke="#7f0000" stroke-width="2" /></svg>