<?xml version="1.0" encoding="utf-8" ?>
<svg baseProfile="tiny" height="128" version="1.2" viewBox="0,0,128,128" width="128" xmlns="http://www.w3.org/2000/svg" xmlns:ev="http://www.w3.org/2001/xml-events" xmlns:xlink="http://www.w3.org/1999/xlink"><defs /><polyline fill="none" points="69.8576,13.0169 59.878,9.1119 49.0305,10.4136 29.5051,23.4305 18.2237,38.6169 14.3186,46.4271 8.678,65.9525 10.4136,86.3458 14.3186,96.3254 28.2034,111.5119 46.861,118.8881 55.539,119.322 63.7831,117.5864 72.8949,111.078 85.0441,89.8169 91.9864,68.122 94.1559,48.1627 94.1559,39.0508 91.1186,25.6 83.7424,15.1864 75.4983,9.9797 70.7254,9.1119 59.878,8.678 53.3695,13.4508" stroke="#00007f" stroke-width="2" /><polyline fill="none" points="24.2983,41.6542 29.0712,45.5593 38.1831,56.8407 43.3898,75.4983 44.2576,90.2508 42.9559,101.0983 39.9186,108.0407 38.1831,108.0407" stroke="#0080ff" stroke-width="2" /><polyline fill="none" points="30.8068,65.9525 45.5593,54.6712" stroke="#7cff79" stroke-width="2" /><polyline fill="none" points="36.4475,69.8576 46.4271,69.8576" stroke="#ff9400" stroke-width="2" /><polyline fill="none" points="42.9559,93.2881 42.9559,93.2881" stroke="#7f0000" stroke-width="2" /></svg>