<?xml version="1.0" encoding="utf-8" ?>
<svg baseProfile="tiny" height="128" version="1.2" viewBox="0,0,128,128" width="128" xmlns="http://www.w3.org/2000/svg" xmlns:ev="http://www.w3.org/2001/xml-events" xmlns:xlink="http://www.w3.org/1999/xlink"><defs /><polyline fill="none" points="25.1661,19.9593 28.2034,17.3559 46.861,9.1119 60.3119,8.678 69.8576,12.1492 92.8542,24.2983 102.8339,33.8441 110.2102,47.2949 118.4542,67.6881 118.8881,81.5729 111.078,101.5322 103.2678,107.6068 92.4203,113.6814 79.4034,117.5864 46.861,119.322 34.7119,113.6814 25.6,104.1356 19.9593,94.1559 11.2814,70.7254 8.678,50.3322 9.1119,35.5797 15.1864,23.8644 27.3356,15.6203 33.4102,14.3186 42.9559,15.6203 48.5966,21.261 52.5017,35.1458 52.5017,45.9932 45.9932,59.4441 41.6542,64.6508 28.2034,76.8 17.7898,84.1763" stroke="#00007f" stroke-width="2" /><polyline fill="none" points="70.7254,16.0542 74.6305,40.3525 79.8373,51.2 85.478,59.878 103.7017,78.1017 117.5864,88.5153" stroke="#004cff" stroke-width="2" /><polyline fill="none" points="76.3661,39.9186 68.122,46.861" stroke="#29ffcd" stroke-width="2" /><polyline fill="none" points="89.3831,54.6712 89.3831,54.6712" stroke="#cdff29" stroke-width="2" /><polyline fill="none" points="102.8339,70.7254 102.8339,70.7254" stroke="#ff6700" stroke-width="2" /><polyline fill="none" points="33.4102,45.1254 54.2373,56.8407" stroke="#7f0000" stroke-width="2" /></svg>