<?xml version="1.0" encoding="utf-8" ?>
<svg baseProfile="tiny" height="128" version="1.2" viewBox="0,0,128,128" width="128" xmlns="http://www.w3.org/2000/svg" xmlns:ev="http://www.w3.org/2001/xml-events" xmlns:xlink="http://www.w3.org/1999/xlink"><defs /><polyline fill="none" points="107.6068,37.3153 105.4373,24.7322 101.0983,16.922 89.3831,11.2814 68.122,8.678 46.4271,8.678 37.3153,12.1492 24.7322,24.7322 17.3559,34.278 11.2814,46.4271 9.5458,59.4441 8.678,73.7627 10.8475,83.3085 20.3932,94.1559 31.6746,98.9288 57.2746,100.6644 78.9695,98.9288 87.6475,96.3254 103.7017,88.9492 114.1153,79.8373 118.4542,71.1593 119.322,54.6712 115.4169,43.8237 109.7763,34.278" stroke="#00007f" stroke-width="2" /><polyline fill="none" points="36.0136,15.6203 42.9559,25.6 46.861,35.1458 52.5017,52.0678 53.8034,65.5186 48.1627,79.8373 42.0881,88.5153 35.1458,96.3254 32.9763,97.1932" stroke="#7cff79" stroke-width="2" /><polyline fill="none" points="101.9661,16.922 101.9661,20.3932 92.8542,40.7864 91.9864,70.7254 93.722,74.6305 98.4949,80.7051 104.1356,84.6102" stroke="#7f0000" stroke-width="2" /></svg>