<?xml version="1.0" encoding="utf-8" ?>
<svg baseProfile="tiny" height="128" version="1.2" viewBox="0,0,128,128" width="128" xmlns="http://www.w3.org/2000/svg" xmlns:ev="http://www.w3.org/2001/xml-events" xmlns:xlink="http://www.w3.org/1999/xlink"><defs /><polyline fill="none" points="98.4949,8.678 92.4203,8.678 62.9153,14.3186 42.0881,36.0136 26.0339,61.1797 12.5831,89.8169 9.5458,97.6271 8.678,104.1356 11.7153,109.7763 19.0915,115.4169 23.8644,117.5864 43.8237,119.322 78.1017,113.6814 80.2712,108.9085 100.2305,99.3627 110.6441,87.2136 112.3797,80.2712 112.8136,74.1966 115.4169,67.6881 115.4169,57.7085 105.8712,37.3153 88.9492,15.1864 84.1763,12.5831 74.6305,11.7153 70.7254,9.5458" stroke="#00007f" stroke-width="2" /><polyline fill="none" points="34.278,41.2203 39.0508,44.6915 45.1254,62.9153 49.8983,93.722 46.861,115.4169" stroke="#7cff79" stroke-width="2" /><polyline fill="none" points="95.4576,28.6373 69.8576,70.7254 66.8203,80.2712 66.8203,94.1559 71.5932,98.4949" stroke="#7f0000" stroke-width="2" /></svg>