<?xml version="1.0" encoding="utf-8" ?>
<svg baseProfile="tiny" height="128" version="1.2" viewBox="0,0,128,128" width="128" xmlns="http://www.w3.org/2000/svg" xmlns:ev="http://www.w3.org/2001/xml-events" xmlns:xlink="http://www.w3.org/1999/xlink"><defs /><polyline fill="none" points="114.068,52.2449 113.6327,40.4898 110.585,29.6054 106.6667,22.6395 100.1361,14.8027 85.3333,8.7075 56.1633,8.7075 46.585,12.6259 37.4422,17.8503 23.0748,32.6531 16.9796,43.102 13.0612,54.4218 10.0136,67.0476 8.7075,89.6871 10.8844,99.7007 15.6735,107.9728 21.3333,112.7619 29.6054,116.6803 50.5034,117.9864 64.4354,116.2449 78.3673,111.4558 91.8639,104.0544 103.1837,95.7823 115.3741,75.3197 117.9864,64.8707 118.4218,49.1973 114.9388,43.102 109.2789,38.3129 95.3469,27.8639" stroke="#00007f" stroke-width="2" /><polyline fill="none" points="90.9932,14.3673 50.5034,79.6735 33.5238,110.585 26.9932,119.2925" stroke="#004cff" stroke-width="2" /><polyline fill="none" points="32.2177,22.6395 64.0,71.4014 88.8163,102.3129 97.9592,111.0204" stroke="#29ffcd" stroke-width="2" /><polyline fill="none" points="76.1905,15.2381 74.0136,15.6735 72.7075,20.0272 70.0952,48.3265 61.8231,87.0748 57.034,101.4422 56.1633,114.9388" stroke="#cdff29" stroke-width="2" /><polyline fill="none" points="117.551,55.2925 108.8435,53.9864 20.4626,67.9184 18.2857,69.6599" stroke="#ff6700" stroke-width="2" /><polyline fill="none" points="54.8571,83.1565 47.4558,77.932 47.4558,63.5646 53.9864,52.6803 61.3878,45.7143 76.1905,43.9728 81.8503,47.8912 80.5442,53.551 70.0952,56.1633 64.8707,55.7279" stroke="#7f0000" stroke-width="2" /></svg>