<?xml version="1.0" encoding="utf-8" ?>
<svg baseProfile="tiny" height="128" version="1.2" viewBox="0,0,128,128" width="128" xmlns="http://www.w3.org/2000/svg" xmlns:ev="http://www.w3.org/2001/xml-events" xmlns:xlink="http://www.w3.org/1999/xlink"><defs /><polyline fill="none" points="55.9729,12.5831 46.861,9.5458 42.9559,9.9797 23.4305,27.7695 16.0542,40.7864 10.4136,56.8407 8.678,65.9525 9.5458,73.7627 70.7254,101.0983 82.8746,99.3627 100.6644,93.722 110.2102,85.478 117.1525,74.6305 119.322,62.9153 118.4542,57.2746 110.6441,52.0678 97.6271,36.0136 60.3119,22.1288 43.8237,19.5254 39.9186,20.3932 42.9559,19.5254" stroke="#00007f" stroke-width="2" /><polyline fill="none" points="44.2576,8.678 38.1831,35.5797 37.3153,61.1797 38.6169,78.1017 38.1831,79.4034 35.1458,71.1593" stroke="#00d4ff" stroke-width="2" /><polyline fill="none" points="26.0339,49.0305 30.8068,53.8034 36.8814,63.3492 50.7661,77.2339 63.3492,97.1932 62.4814,87.6475" stroke="#ffe500" stroke-width="2" /><polyline fill="none" points="50.3322,43.3898 43.3898,51.2 38.6169,59.878 32.1085,67.2542 24.2983,78.9695" stroke="#7f0000" stroke-width="2" /></svg>