<?xml version="1.0" encoding="utf-8" ?>
<svg baseProfile="tiny" height="128" version="1.2" viewBox="0,0,128,128" width="128" xmlns="http://www.w3.org/2000/svg" xmlns:ev="http://www.w3.org/2001/xml-events" xmlns:xlink="http://www.w3.org/1999/xlink"><defs /><polyline fill="none" points="79.2381,19.1565 62.2585,12.6259 35.7007,11.7551 27.8639,13.932 20.4626,18.2857 14.3673,23.0748 11.3197,27.4286 9.1429,33.5238 8.7075,48.7619 15.2381,65.3061 25.6871,77.932 39.1837,86.6395 50.068,90.1224 61.3878,91.8639 86.2041,91.4286 103.1837,85.7687 113.1973,77.0612 118.4218,66.6122 119.2925,59.6463 118.4218,49.6327 115.8095,40.4898 111.4558,32.6531 104.9252,27.4286 88.381,20.0272 54.4218,13.0612" stroke="#00007f" stroke-width="2" /><polyline fill="none" points="28.7347,8.7075 43.9728,32.6531 47.4558,41.7959 49.1973,63.5646 46.585,72.2721 45.2789,74.449 45.7143,70.5306" stroke="#7cff79" stroke-width="2" /><polyline fill="none" points="87.9456,23.9456 83.1565,26.5578 75.7551,37.8776 71.8367,56.1633 72.2721,67.0476 74.449,78.3673 77.4966,84.898 81.8503,88.381" stroke="#7f0000" stroke-width="2" /></svg>