<?xml version="1.0" encoding="utf-8" ?>
<svg baseProfile="tiny" height="128" version="1.2" viewBox="0,0,128,128" width="128" xmlns="http://www.w3.org/2000/svg" xmlns:ev="http://www.w3.org/2001/xml-events" xmlns:xlink="http://www.w3.org/1999/xlink"><defs /><polyline fill="none" points="21.6949,14.3186 45.9932,8.678 68.5559,8.678 75.4983,10.4136 91.1186,21.6949 97.6271,28.2034 101.5322,35.5797 107.1729,49.8983 109.7763,64.6508 109.7763,84.6102 106.3051,92.8542 93.722,106.3051 77.2339,114.5492 68.5559,115.4169 46.861,115.4169 33.8441,110.6441 23.4305,103.2678 13.4508,89.3831 10.4136,80.7051 8.678,72.461 8.678,43.3898 29.5051,27.3356 34.278,22.5627 39.4847,13.4508" stroke="#00007f" stroke-width="2" /><polyline fill="none" points="86.3458,28.2034 84.6102,34.278 75.9322,44.6915 70.7254,53.8034 65.0847,73.3288 65.0847,104.1356 71.5932,119.322" stroke="#7cff79" stroke-width="2" /><polyline fill="none" points="15.1864,13.4508 21.6949,19.0915 33.8441,38.6169 42.522,55.539 45.9932,70.2915 45.1254,86.3458 39.4847,99.3627 36.0136,105.4373 28.2034,109.7763" stroke="#7f0000" stroke-width="2" /></svg>