<?xml version="1.0" encoding="utf-8" ?>
<svg baseProfile="tiny" height="128" version="1.2" viewBox="0,0,128,128" width="128" xmlns="http://www.w3.org/2000/svg" xmlns:ev="http://www.w3.org/2001/xml-events" xmlns:xlink="http://www.w3.org/1999/xlink"><defs /><polyline fill="none" points="80.2712,26.0339 54.2373,25.1661 45.1254,29.0712 35.5797,37.3153 24.2983,52.5017 11.7153,74.1966 8.678,88.0814 8.678,95.4576 14.7525,103.2678 27.7695,112.3797 34.278,114.5492 50.7661,118.0203 72.0271,118.0203 87.6475,111.9458 92.8542,108.4746 103.2678,99.3627 108.4746,92.4203 115.8508,75.0644 119.322,55.9729 118.0203,33.4102 114.1153,20.8271 108.9085,13.8847 98.9288,8.678 77.6678,9.5458 71.5932,12.1492 69.4237,15.1864" stroke="#00007f" stroke-width="2" /><polyline fill="none" points="49.8983,22.9966 49.8983,56.4068 48.5966,66.8203 44.2576,83.7424 39.0508,92.8542 19.5254,108.0407" stroke="#7cff79" stroke-width="2" /><polyline fill="none" points="101.0983,20.8271 88.0814,32.5424 79.8373,45.5593 75.0644,57.2746 72.8949,75.0644 72.8949,94.1559 77.6678,101.5322" stroke="#7f0000" stroke-width="2" /></svg>