<?xml version="1.0" encoding="utf-8" ?>
<svg baseProfile="tiny" height="128" version="1.2" viewBox="0,0,128,128" width="128" xmlns="http://www.w3.org/2000/svg" xmlns:ev="http://www.w3.org/2001/xml-events" xmlns:xlink="http://www.w3.org/1999/xlink"><defs /><polyline fill="none" points="83.3085,26.0339 76.3661,18.2237 67.6881,14.3186 61.6136,13.0169 47.2949,14.3186 37.7492,16.922 28.6373,21.261 18.6576,30.8068 12.5831,41.6542 9.9797,49.0305 9.9797,61.6136 12.1492,70.2915 16.4881,78.9695 29.939,95.4576 41.6542,103.7017 49.8983,106.3051 61.1797,108.0407 69.8576,106.739 78.1017,102.4 86.7797,95.8915 98.061,83.3085 103.7017,73.7627 109.3424,59.0102 111.9458,45.5593 111.078,37.3153 106.739,23.8644 101.9661,17.7898 92.8542,11.7153 79.8373,8.678 63.7831,8.678 55.539,10.4136 45.5593,16.4881" stroke="#00007f" stroke-width="2" /><polyline fill="none" points="31.6746,16.922 38.1831,24.7322 44.6915,36.8814 57.7085,57.2746 73.7627,72.8949 84.1763,77.6678 101.5322,78.5356" stroke="#00d4ff" stroke-width="2" /><polyline fill="none" points="70.2915,12.1492 75.4983,22.5627 97.1932,47.7288 106.739,53.8034 119.322,56.8407" stroke="#ffe500" stroke-width="2" /><polyline fill="none" points="98.4949,24.7322 83.7424,45.9932 69.4237,62.0475 49.0305,80.7051 32.9763,91.5525 22.9966,95.0237 8.678,102.4" stroke="#7f0000" stroke-width="2" /></svg>