<?xml version="1.0" encoding="utf-8" ?>
<svg baseProfile="tiny" height="128" version="1.2" viewBox="0,0,128,128" width="128" xmlns="http://www.w3.org/2000/svg" xmlns:ev="http://www.w3.org/2001/xml-events" xmlns:xlink="http://www.w3.org/1999/xlink"><defs /><polyline fill="none" points="56.8407,12.5831 49.4644,13.0169 36.8814,17.3559 25.1661,24.7322 16.0542,33.8441 13.4508,38.1831 9.1119,50.7661 8.678,62.9153 11.2814,75.4983 21.261,94.1559 46.4271,114.5492 59.0102,118.0203 70.2915,116.7186 83.3085,112.8136 89.3831,108.4746 97.6271,99.7966 106.3051,81.5729 108.4746,74.1966 111.078,62.0475 111.5119,50.3322 110.2102,42.522 105.8712,31.2407 97.1932,20.8271 89.3831,15.6203 67.6881,8.678 56.4068,9.1119 51.2,10.8475 42.522,16.0542 38.1831,20.8271" stroke="#00007f" stroke-width="2" /><polyline fill="none" points="56.4068,14.7525 68.5559,24.2983 73.7627,32.5424 87.6475,57.2746 89.8169,63.3492 91.1186,71.5932 90.2508,98.9288 87.2136,113.2475 84.1763,118.4542 82.4407,119.322" stroke="#7f0000" stroke-width="2" /></svg>