<?xml version="1.0" encoding="utf-8" ?>
<svg baseProfile="tiny" height="128" version="1.2" viewBox="0,0,128,128" width="128" xmlns="http://www.w3.org/2000/svg" xmlns:ev="http://www.w3.org/2001/xml-events" xmlns:xlink="http://www.w3.org/1999/xlink"><defs /><polyline fill="none" points="60.3119,10.4136 55.1051,9.9797 50.7661,10.8475 42.0881,15.6203 30.8068,26.0339 12.5831,51.2 8.678,70.7254 10.4136,88.5153 15.6203,99.3627 22.9966,108.0407 28.6373,112.8136 39.4847,118.0203 45.9932,118.8881 57.7085,118.0203 69.4237,111.5119 74.1966,107.1729 79.8373,101.5322 88.5153,89.8169 99.7966,63.7831 102.4,47.7288 101.0983,35.1458 91.9864,21.6949 82.0068,15.1864 64.2169,8.678" stroke="#00007f" stroke-width="2" /><polyline fill="none" points="38.6169,24.7322 45.5593,35.1458 50.3322,49.8983 52.5017,60.3119 52.5017,80.2712 47.7288,94.5898 30.8068,119.322" stroke="#7cff79" stroke-width="2" /><polyline fill="none" points="83.7424,27.7695 76.8,43.3898 74.6305,66.3864 75.9322,90.6847 77.6678,96.3254 83.3085,101.5322" stroke="#7f0000" stroke-width="2" /></svg>