<?xml version="1.0" encoding="utf-8" ?>
<svg baseProfile="tiny" height="128" version="1.2" viewBox="0,0,128,128" width="128" xmlns="http://www.w3.org/2000/svg" xmlns:ev="http://www.w3.org/2001/xml-events" xmlns:xlink="http://www.w3.org/1999/xlink"><defs /><polyline fill="none" points="90.6847,22.9966 81.139,18.2237 50.7661,17.3559 36.4475,19.9593 26.0339,28.6373 16.4881,39.9186 13.4508,45.9932 8.678,65.0847 8.678,77.2339 12.5831,90.6847 21.6949,101.9661 35.1458,113.6814 52.0678,119.322 80.7051,119.322 97.1932,112.8136 108.0407,100.2305 114.5492,81.5729 114.5492,53.3695 109.7763,42.0881 105.0034,37.3153 97.6271,25.1661 86.7797,14.3186 78.1017,8.678" stroke="#00007f" stroke-width="2" /><polyline fill="none" points="37.3153,24.7322 41.2203,30.8068 46.861,46.4271 48.5966,57.2746 53.3695,95.4576 53.3695,105.0034 50.7661,114.5492 48.5966,115.4169" stroke="#7cff79" stroke-width="2" /><polyline fill="none" points="89.8169,22.1288 89.8169,28.2034 82.0068,52.5017 82.0068,92.4203 82.8746,97.1932 86.7797,103.2678" stroke="#7f0000" stroke-width="2" /></svg>