<?xml version="1.0" encoding="utf-8" ?>
<svg baseProfile="tiny" height="128" version="1.2" viewBox="0,0,128,128" width="128" xmlns="http://www.w3.org/2000/svg" xmlns:ev="http://www.w3.org/2001/xml-events" xmlns:xlink="http://www.w3.org/1999/xlink"><defs /><polyline fill="none" points="98.4949,16.4881 95.8915,13.4508 91.5525,11.7153 79.8373,8.678 59.0102,9.1119 52.0678,12.1492 35.5797,22.9966 28.2034,30.3729 21.261,38.6169 12.1492,55.1051 9.5458,63.3492 8.678,77.6678 9.5458,83.7424 14.3186,89.8169 28.2034,100.2305 36.4475,103.7017 55.539,106.3051 75.4983,105.8712 94.1559,99.3627 108.0407,89.8169 112.3797,84.1763 117.5864,72.8949 119.322,58.5763 116.2847,48.1627 98.4949,19.9593 92.4203,16.0542" stroke="#00007f" stroke-width="2" /><polyline fill="none" points="75.0644,12.1492 66.8203,30.3729 66.8203,51.2 69.4237,60.3119 72.461,68.122 80.2712,79.8373 88.9492,85.9119 103.2678,91.1186" stroke="#7cff79" stroke-width="2" /><polyline fill="none" points="36.0136,20.8271 41.2203,26.4678 49.8983,45.9932 54.6712,64.6508 55.9729,85.478 52.9356,92.4203 43.3898,101.5322 34.7119,105.0034" stroke="#7f0000" stroke-width="2" /></svg>