<?xml version="1.0" encoding="utf-8" ?>
<svg baseProfile="tiny" height="128" version="1.2" viewBox="0,0,128,128" width="128" xmlns="http://www.w3.org/2000/svg" xmlns:ev="http://www.w3.org/2001/xml-events" xmlns:xlink="http://www.w3.org/1999/xlink"><defs /><polyline fill="none" points="84.0272,18.7211 80.5442,16.1088 73.5782,14.8027 60.0816,14.8027 55.2925,17.415 24.8163,54.4218 14.8027,70.966 8.7075,86.6395 8.7075,96.6531 16.1088,108.4082 29.1701,117.551 35.7007,119.2925 44.4082,118.8571 55.7279,109.7143 76.1905,82.2857 84.0272,67.0476 88.8163,52.6803 94.0408,33.9592 95.7823,18.7211 95.7823,13.0612 93.6054,9.5782 90.9932,8.7075 81.8503,8.7075 76.6259,13.4966" stroke="#00007f" stroke-width="2" /><polyline fill="none" points="52.2449,32.2177 56.5986,25.2517 56.1633,30.4762" stroke="#0028ff" stroke-width="2" /><polyline fill="none" points="53.1156,33.9592 56.1633,34.3946 54.8571,38.7483" stroke="#00d4ff" stroke-width="2" /><polyline fill="none" points="50.9388,44.4082 52.2449,43.102 52.2449,47.4558" stroke="#7cff79" stroke-width="2" /><polyline fill="none" points="49.6327,50.5034 51.3741,48.3265 50.5034,50.5034" stroke="#ffe500" stroke-width="2" /><polyline fill="none" points="81.415,20.4626 82.2857,28.2993 80.1088,51.3741 80.1088,109.7143" stroke="#ff4600" stroke-width="2" /><polyline fill="none" points="64.8707,13.0612 62.2585,16.9796 58.3401,29.1701 54.4218,52.6803 42.6667,91.4286 40.4898,114.5034" stroke="#7f0000" stroke-width="2" /></svg>