<?xml version="1.0" encoding="utf-8" ?>
<svg baseProfile="tiny" height="128" version="1.2" viewBox="0,0,128,128" width="128" xmlns="http://www.w3.org/2000/svg" xmlns:ev="http://www.w3.org/2001/xml-events" xmlns:xlink="http://www.w3.org/1999/xlink"><defs /><polyline fill="none" points="43.3898,8.678 24.7322,26.4678 12.1492,49.0305 8.678,65.5186 8.678,86.3458 10.4136,95.8915 16.0542,110.6441 26.4678,116.7186 33.4102,118.4542 65.9525,119.322 75.0644,115.8508 82.0068,105.4373 85.9119,96.7593 91.9864,70.7254 91.9864,62.0475 86.3458,52.9356 73.3288,43.3898 64.2169,33.8441 60.3119,31.2407 50.7661,19.0915" stroke="#00007f" stroke-width="2" /><polyline fill="none" points="40.7864,15.1864 53.8034,18.2237" stroke="#7cff79" stroke-width="2" /><polyline fill="none" points="53.8034,21.6949 45.9932,21.6949 43.3898,26.0339 36.0136,46.861 36.0136,65.0847 44.2576,78.1017 54.6712,89.3831 71.5932,96.7593 81.5729,96.7593" stroke="#7f0000" stroke-width="2" /></svg>