<?xml version="1.0" encoding="utf-8" ?>
<svg baseProfile="tiny" height="128" version="1.2" viewBox="0,0,128,128" width="128" xmlns="http://www.w3.org/2000/svg" xmlns:ev="http://www.w3.org/2001/xml-events" xmlns:xlink="http://www.w3.org/1999/xlink"><defs /><polyline fill="none" points="111.9458,49.0305 114.1153,45.9932 113.2475,40.3525 106.739,26.0339 99.3627,18.6576 86.3458,11.2814 75.0644,8.678 58.5763,8.678 48.5966,11.2814 35.5797,18.2237 20.8271,29.939 13.4508,40.3525 8.678,53.3695 9.5458,69.4237 15.6203,89.3831 17.3559,93.2881 26.4678,102.4 35.1458,106.739 45.1254,109.7763 78.5356,111.9458 86.3458,110.6441 94.5898,107.1729 107.6068,98.9288 117.1525,86.7797 119.322,73.7627 112.8136,52.5017 106.739,42.9559 106.739,45.1254" stroke="#00007f" stroke-width="2" /><polyline fill="none" points="33.4102,22.1288 35.1458,24.2983 38.6169,36.0136 41.6542,60.3119 41.6542,95.8915 40.3525,106.3051 36.4475,114.9831" stroke="#7cff79" stroke-width="2" /><polyline fill="none" points="96.3254,21.6949 87.6475,55.1051 86.3458,80.2712 87.6475,87.2136 95.8915,108.0407 96.7593,107.1729" stroke="#7f0000" stroke-width="2" /></svg>