<?xml version="1.0" encoding="utf-8" ?>
<svg baseProfile="tiny" height="128" version="1.2" viewBox="0,0,128,128" width="128" xmlns="http://www.w3.org/2000/svg" xmlns:ev="http://www.w3.org/2001/xml-events" xmlns:xlink="http://www.w3.org/1999/xlink"><defs /><polyline fill="none" points="27.3356,18.6576 18.2237,41.2203 8.678,77.6678 9.1119,82.8746 10.8475,82.8746 13.0169,80.2712 15.6203,82.0068 17.7898,77.6678 18.6576,68.9898 26.9017,54.2373 33.4102,19.9593 30.3729,18.6576 26.0339,22.1288" stroke="#00007f" stroke-width="2" /><polyline fill="none" points="60.7458,16.4881 49.4644,44.2576 48.1627,51.2 49.4644,54.6712 54.2373,59.0102 66.8203,61.6136 72.0271,58.5763 73.3288,49.8983 72.8949,31.6746 69.4237,22.1288 63.7831,16.0542 52.0678,8.678" stroke="#7cff79" stroke-width="2" /><polyline fill="none" points="103.7017,29.5051 98.061,35.5797 103.2678,54.6712 105.0034,55.1051 106.739,54.6712 119.322,42.522 115.8508,30.3729 112.3797,27.7695 97.6271,32.9763 96.3254,42.0881 105.8712,45.9932 117.1525,42.0881 118.0203,35.5797 111.9458,29.5051" stroke="#7f0000" stroke-width="2" /></svg>