<?xml version="1.0" encoding="utf-8" ?>
<svg baseProfile="tiny" height="128" version="1.2" viewBox="0,0,128,128" width="128" xmlns="http://www.w3.org/2000/svg" xmlns:ev="http://www.w3.org/2001/xml-events" xmlns:xlink="http://www.w3.org/1999/xlink"><defs /><polyline fill="none" points="86.7797,8.678 77.2339,9.1119 68.9898,12.1492 55.9729,20.8271 48.1627,29.939 46.861,38.6169 49.4644,51.2 53.8034,59.4441 63.3492,65.9525 69.8576,68.5559 79.4034,69.8576 102.8339,66.3864 110.2102,61.1797 115.4169,52.5017 119.322,39.9186 118.8881,33.8441 116.7186,28.2034 104.5695,16.0542 90.2508,10.4136" stroke="#00007f" stroke-width="2" /><polyline fill="none" points="54.2373,22.9966 63.7831,23.4305 72.0271,26.0339 75.4983,29.0712 79.8373,36.8814 81.139,47.2949 78.5356,56.8407 75.9322,59.878 66.3864,64.6508" stroke="#00d4ff" stroke-width="2" /><polyline fill="none" points="109.3424,17.3559 105.8712,17.3559 94.5898,27.3356 88.9492,39.9186 88.9492,47.2949 91.1186,54.2373 95.4576,62.4814 99.3627,65.9525" stroke="#ffe500" stroke-width="2" /><polyline fill="none" points="8.678,91.9864 8.678,91.9864" stroke="#7f0000" stroke-width="2" /></svg>