<?xml version="1.0" encoding="utf-8" ?>
<svg baseProfile="tiny" height="128" version="1.2" viewBox="0,0,128,128" width="128" xmlns="http://www.w3.org/2000/svg" xmlns:ev="http://www.w3.org/2001/xml-events" xmlns:xlink="http://www.w3.org/1999/xlink"><defs /><polyline fill="none" points="66.3864,12.5831 61.1797,9.5458 42.522,9.5458 31.6746,11.7153 20.3932,22.5627 12.1492,36.4475 8.678,47.2949 8.678,64.2169 15.1864,82.0068 25.1661,95.8915 31.6746,102.4 39.9186,107.1729 49.8983,112.8136 58.1424,114.9831 80.7051,115.4169 89.3831,113.2475 103.2678,104.5695 112.8136,93.2881 118.4542,79.4034 119.322,54.2373 117.1525,46.861 103.7017,25.6 91.5525,16.922 80.7051,10.8475 76.8,9.5458 66.3864,8.678" stroke="#00007f" stroke-width="2" /><polyline fill="none" points="37.7492,15.1864 43.3898,22.5627 48.1627,31.6746 51.2,42.0881 53.8034,65.9525 53.8034,91.9864 45.9932,111.078" stroke="#7cff79" stroke-width="2" /><polyline fill="none" points="85.9119,17.7898 79.8373,28.6373 76.3661,44.2576 76.3661,77.2339 77.2339,85.478 81.5729,99.7966 91.5525,110.2102 93.2881,114.9831" stroke="#7f0000" stroke-width="2" /></svg>