<?xml version="1.0" encoding="utf-8" ?>
<svg baseProfile="tiny" height="128" version="1.2" viewBox="0,0,128,128" width="128" xmlns="http://www.w3.org/2000/svg" xmlns:ev="http://www.w3.org/2001/xml-events" xmlns:xlink="http://www.w3.org/1999/xlink"><defs /><polyline fill="none" points="21.261,99.7966 19.5254,79.4034 17.7898,9.1119" stroke="#00007f" stroke-width="2" /><polyline fill="none" points="16.4881,13.8847 39.0508,11.7153" stroke="#0000ac" stroke-width="2" /><polyline fill="none" points="22.5627,15.6203 28.6373,28.6373 29.0712,43.3898" stroke="#0000de" stroke-width="2" /><polyline fill="none" points="37.7492,40.7864 35.1458,32.5424 35.1458,17.3559 37.7492,10.8475 40.3525,9.1119" stroke="#0000ff" stroke-width="2" /><polyline fill="none" points="110.6441,10.8475 80.2712,11.7153 76.3661,15.6203 73.7627,22.9966 72.8949,29.5051 72.8949,49.0305 74.1966,55.9729 78.5356,62.4814 82.8746,64.2169 95.0237,64.2169 103.2678,63.3492 108.0407,60.7458 112.3797,55.9729 116.7186,46.861 119.322,37.7492 119.322,27.3356 112.3797,16.4881 105.4373,14.3186" stroke="#0028ff" stroke-width="2" /><polyline fill="none" points="82.4407,13.4508 81.5729,24.7322 73.7627,36.0136" stroke="#0054ff" stroke-width="2" /><polyline fill="none" points="100.6644,12.1492 83.7424,41.6542 80.7051,44.6915 71.1593,49.4644" stroke="#0080ff" stroke-width="2" /><polyline fill="none" points="112.8136,16.922 86.7797,55.1051 81.5729,59.4441 77.2339,60.7458" stroke="#00a8ff" stroke-width="2" /><polyline fill="none" points="115.4169,23.4305 100.2305,49.0305 93.722,65.9525" stroke="#00d4ff" stroke-width="2" /><polyline fill="none" points="118.8881,28.6373 107.6068,52.9356 106.739,59.878 108.0407,63.3492 105.4373,65.5186 102.4,65.5186" stroke="#15ffe1" stroke-width="2" /><polyline fill="none" points="30.8068,21.261 32.5424,23.8644" stroke="#36ffc0" stroke-width="2" /><polyline fill="none" points="31.2407,23.4305 30.8068,23.4305" stroke="#59ff9d" stroke-width="2" /><polyline fill="none" points="30.8068,21.261 35.1458,21.261" stroke="#7cff79" stroke-width="2" /><polyline fill="none" points="28.6373,21.261 28.6373,21.261" stroke="#9dff59" stroke-width="2" /><polyline fill="none" points="25.1661,21.261 24.7322,21.261" stroke="#c0ff36" stroke-width="2" /><polyline fill="none" points="31.2407,16.4881 31.2407,16.4881" stroke="#e4ff12" stroke-width="2" /><polyline fill="none" points="31.2407,16.4881 30.3729,17.7898" stroke="#ffe500" stroke-width="2" /><polyline fill="none" points="26.9017,16.4881 27.3356,17.3559" stroke="#ffbd00" stroke-width="2" /><polyline fill="none" points="31.2407,19.5254 31.6746,19.9593" stroke="#ff9400" stroke-width="2" /><polyline fill="none" points="31.6746,22.5627 31.2407,32.5424" stroke="#ff6f00" stroke-width="2" /><polyline fill="none" points="28.6373,32.5424 30.3729,33.4102" stroke="#ff4600" stroke-width="2" /><polyline fill="none" points="32.9763,35.1458 34.278,38.1831" stroke="#ff1d00" stroke-width="2" /><polyline fill="none" points="33.8441,38.6169 33.4102,41.2203" stroke="#de0000" stroke-width="2" /><polyline fill="none" points="30.3729,42.9559 30.8068,44.2576" stroke="#ac0000" stroke-width="2" /><polyline fill="none" points="15.6203,8.678 16.4881,9.5458 15.1864,11.2814 8.678,16.4881 12.1492,51.6339 12.1492,98.061" stroke="#7f0000" stroke-width="2" /></svg>