<?xml version="1.0" encoding="utf-8" ?>
<svg baseProfile="tiny" height="128" version="1.2" viewBox="0,0,128,128" width="128" xmlns="http://www.w3.org/2000/svg" xmlns:ev="http://www.w3.org/2001/xml-events" xmlns:xlink="http://www.w3.org/1999/xlink"><defs /><polyline fill="none" points="82.4407,15.6203 80.7051,13.0169 68.5559,8.678 46.861,8.678 41.6542,10.8475 28.2034,22.9966 20.3932,33.8441 12.5831,49.4644 9.1119,60.7458 8.678,82.8746 13.8847,93.722 19.0915,98.9288 23.8644,101.5322 36.0136,104.5695 55.9729,105.8712 62.4814,104.5695 78.9695,93.2881 84.6102,82.4407 86.3458,74.1966 88.9492,52.0678 88.9492,30.3729 82.0068,19.9593 71.5932,17.3559" stroke="#00007f" stroke-width="2" /><polyline fill="none" points="76.3661,8.678 63.3492,9.1119 49.8983,17.7898 41.6542,26.0339 29.939,45.9932 23.8644,59.878 19.0915,81.5729 17.7898,106.739 21.6949,119.322" stroke="#0010ff" stroke-width="2" /><polyline fill="none" points="26.9017,18.2237 36.0136,37.3153 47.2949,66.3864 48.1627,92.8542 45.1254,106.3051" stroke="#00a4ff" stroke-width="2" /><polyline fill="none" points="21.261,34.278 26.4678,31.6746 39.4847,28.2034" stroke="#3fffb7" stroke-width="2" /><polyline fill="none" points="34.278,41.6542 45.5593,41.2203 47.7288,43.8237" stroke="#b7ff3f" stroke-width="2" /><polyline fill="none" points="34.7119,65.0847 47.7288,58.1424" stroke="#ffb900" stroke-width="2" /><polyline fill="none" points="32.1085,80.7051 41.6542,78.5356 53.8034,79.8373" stroke="#ff3000" stroke-width="2" /><polyline fill="none" points="44.2576,96.3254 44.2576,96.3254" stroke="#7f0000" stroke-width="2" /></svg>