<?xml version="1.0" encoding="utf-8" ?>
<svg baseProfile="tiny" height="128" version="1.2" viewBox="0,0,128,128" width="128" xmlns="http://www.w3.org/2000/svg" xmlns:ev="http://www.w3.org/2001/xml-events" xmlns:xlink="http://www.w3.org/1999/xlink"><defs /><polyline fill="none" points="17.0375,94.7986 14.4164,92.1775 10.0478,78.6348 8.7372,65.9659 13.9795,39.3174 20.5324,25.7747 29.2696,17.9113 44.1229,11.7952 61.1604,8.7372 77.7611,9.6109 91.7406,12.6689 102.6621,17.0375 110.9625,22.7167 116.6416,30.1433 119.2628,46.744 119.2628,67.7133 113.1468,84.314 101.7884,104.8464 92.6143,114.4573 88.2457,116.6416 79.9454,118.8259 70.3345,117.9522 55.9181,114.8942 40.1911,109.6519 28.8328,103.5358 19.6587,95.2355" stroke="#00007f" stroke-width="2" /><polyline fill="none" points="55.0444,10.4846 58.1024,38.0068 59.8498,81.256 58.5392,89.5563 55.9181,95.2355 52.8601,99.1672 47.6177,102.2253" stroke="#0028ff" stroke-width="2" /><polyline fill="none" points="84.7509,12.2321 82.1297,20.0956 79.5085,44.9966 79.5085,83.0034 80.8191,91.7406 84.7509,100.4778 90.43,107.9044 95.6724,109.215" stroke="#00d4ff" stroke-width="2" /><polyline fill="none" points="54.6075,97.8567 45.8703,106.5939 41.5017,107.9044" stroke="#7cff79" stroke-width="2" /><polyline fill="none" points="49.802,35.3857 80.3823,31.8908" stroke="#ffe500" stroke-width="2" /><polyline fill="none" points="47.6177,49.3652 71.6451,45.4334" stroke="#ff4600" stroke-width="2" /><polyline fill="none" points="44.5597,73.3925 53.7338,74.7031 69.8976,71.6451" stroke="#7f0000" stroke-width="2" /></svg>