<?xml version="1.0" encoding="utf-8" ?>
<svg baseProfile="tiny" height="128" version="1.2" viewBox="0,0,128,128" width="128" xmlns="http://www.w3.org/2000/svg" xmlns:ev="http://www.w3.org/2001/xml-events" xmlns:xlink="http://www.w3.org/1999/xlink"><defs /><polyline fill="none" points="91.9864,21.261 87.2136,14.3186 81.139,9.9797 62.4814,8.678 54.6712,9.5458 46.4271,13.4508 38.1831,18.6576 29.939,26.0339 17.7898,40.7864 10.4136,58.5763 8.678,80.7051 10.4136,87.2136 18.2237,96.7593 36.4475,107.1729 63.7831,117.5864 75.9322,116.7186 85.9119,109.3424 93.722,98.4949 100.2305,85.0441 105.0034,65.0847 107.1729,43.8237 105.4373,35.1458 98.9288,26.9017 82.8746,14.7525" stroke="#00007f" stroke-width="2" /><polyline fill="none" points="40.3525,12.1492 43.8237,14.7525 47.2949,19.9593 52.0678,31.6746 54.2373,46.4271 53.3695,61.1797 48.5966,74.6305 43.3898,82.8746 28.2034,97.1932 23.4305,98.4949 21.6949,97.1932" stroke="#004cff" stroke-width="2" /><polyline fill="none" points="39.9186,31.6746 40.3525,33.8441 56.4068,34.7119 63.7831,36.0136 65.0847,37.7492" stroke="#29ffcd" stroke-width="2" /><polyline fill="none" points="40.3525,60.3119 42.0881,63.3492 61.1797,64.2169" stroke="#cdff29" stroke-width="2" /><polyline fill="none" points="29.5051,78.5356 29.939,80.7051 33.8441,84.1763 44.2576,87.6475 51.6339,88.0814" stroke="#ff6700" stroke-width="2" /><polyline fill="none" points="78.5356,22.1288 75.4983,22.9966 73.3288,27.7695 69.4237,47.7288 68.5559,58.5763 69.4237,72.461 72.8949,90.6847 76.8,101.5322 81.5729,111.5119 85.9119,116.7186 89.8169,119.322" stroke="#7f0000" stroke-width="2" /></svg>