<?xml version="1.0" encoding="utf-8" ?>
<svg baseProfile="tiny" height="128" version="1.2" viewBox="0,0,128,128" width="128" xmlns="http://www.w3.org/2000/svg" xmlns:ev="http://www.w3.org/2001/xml-events" xmlns:xlink="http://www.w3.org/1999/xlink"><defs /><polyline fill="none" points="118.8881,31.6746 117.5864,25.1661 109.7763,16.922 99.7966,11.7153 88.5153,8.678 51.2,9.1119 32.1085,16.0542 24.7322,20.3932 17.7898,26.9017 9.9797,45.9932 9.1119,52.0678 8.678,80.7051 10.8475,88.5153 18.6576,101.0983 31.6746,109.7763 55.1051,113.2475 83.3085,112.3797 93.2881,107.6068 106.3051,95.8915 114.1153,85.478 118.0203,73.3288 119.322,47.2949 109.7763,23.4305" stroke="#00007f" stroke-width="2" /><polyline fill="none" points="45.5593,11.7153 48.1627,23.4305 53.8034,36.4475 59.4441,54.6712 62.9153,92.4203 62.9153,114.1153 61.6136,118.8881" stroke="#7cff79" stroke-width="2" /><polyline fill="none" points="108.0407,13.0169 98.9288,13.8847 92.8542,18.2237 82.0068,42.522 81.139,63.3492 83.3085,80.7051 88.9492,96.3254 93.2881,104.1356" stroke="#7f0000" stroke-width="2" /></svg>