<?xml version="1.0" encoding="utf-8" ?>
<svg baseProfile="tiny" height="128" version="1.2" viewBox="0,0,128,128" width="128" xmlns="http://www.w3.org/2000/svg" xmlns:ev="http://www.w3.org/2001/xml-events" xmlns:xlink="http://www.w3.org/1999/xlink"><defs /><polyline fill="none" points="30.4762,12.1905 23.5102,14.3673 20.898,24.8163 8.7075,43.102 8.7075,55.7279 22.2041,70.0952 48.7619,86.6395 86.2041,88.8163 111.0204,88.381 117.9864,82.2857 118.8571,77.0612 119.2925,54.4218 117.1156,37.8776 109.7143,28.2993 88.381,14.3673 80.5442,10.8844 12.6259,8.7075" stroke="#00007f" stroke-width="2" /><polyline fill="none" points="30.4762,10.449 38.3129,20.898 45.2789,25.2517 51.8095,34.8299 52.6803,67.483 50.068,74.0136 46.585,74.8844" stroke="#7cff79" stroke-width="2" /><polyline fill="none" points="86.6395,12.1905 85.3333,19.1565 80.9796,28.2993 80.5442,69.6599 81.8503,72.7075 88.381,77.0612 96.2177,79.2381 99.7007,83.1565" stroke="#7f0000" stroke-width="2" /></svg>