<?xml version="1.0" encoding="utf-8" ?>
<svg baseProfile="tiny" height="128" version="1.2" viewBox="0,0,128,128" width="128" xmlns="http://www.w3.org/2000/svg" xmlns:ev="http://www.w3.org/2001/xml-events" xmlns:xlink="http://www.w3.org/1999/xlink"><defs /><polyline fill="none" points="101.0068,8.7075 37.4422,9.5782 30.4762,13.0612 16.1088,47.8912 12.6259,52.2449 8.7075,64.8707 9.1429,71.8367 24.8163,80.5442 28.2993,80.9796 47.4558,89.2517 64.4354,93.1701 77.0612,93.1701 81.415,91.8639 98.8299,82.2857 109.2789,70.966 116.6803,54.8571 119.2925,34.3946 119.2925,23.0748 117.9864,19.1565 105.3605,12.1905 90.1224,8.7075" stroke="#00007f" stroke-width="2" /><polyline fill="none" points="99.2653,11.7551 76.6259,26.9932 71.8367,33.0884 62.6939,41.3605 58.3401,52.2449 48.3265,55.2925 37.0068,61.8231 33.5238,68.3537 27.4286,74.0136 8.7075,82.7211" stroke="#00d4ff" stroke-width="2" /><polyline fill="none" points="27.8639,53.9864 36.1361,67.9184 47.8912,80.1088" stroke="#ffe500" stroke-width="2" /><polyline fill="none" points="43.9728,47.0204 47.8912,46.585 53.1156,53.551 62.2585,60.0816" stroke="#7f0000" stroke-width="2" /></svg>