<?xml version="1.0" encoding="utf-8" ?>
<svg baseProfile="tiny" height="128" version="1.2" viewBox="0,0,128,128" width="128" xmlns="http://www.w3.org/2000/svg" xmlns:ev="http://www.w3.org/2001/xml-events" xmlns:xlink="http://www.w3.org/1999/xlink"><defs /><polyline fill="none" points="46.4271,14.3186 42.0881,14.3186 38.6169,16.922 28.6373,28.2034 16.922,45.9932 9.9797,67.6881 8.678,78.1017 9.9797,86.3458 16.922,101.5322 30.8068,112.3797 46.861,118.4542 61.1797,116.7186 68.5559,114.1153 82.0068,104.5695 91.5525,94.5898 103.2678,75.9322 111.5119,51.6339 111.078,32.5424 108.9085,24.7322 105.0034,17.3559 99.3627,13.4508 91.9864,9.9797 83.7424,8.678 63.7831,9.9797 47.2949,13.8847 35.5797,19.0915" stroke="#00007f" stroke-width="2" /><polyline fill="none" points="30.3729,37.7492 47.2949,59.0102 51.2,73.7627 45.9932,105.8712 37.7492,119.322" stroke="#7cff79" stroke-width="2" /><polyline fill="none" points="104.5695,22.1288 98.061,30.8068 84.1763,56.8407 76.8,85.478 75.9322,97.1932 77.2339,101.5322 81.139,105.8712 86.3458,108.4746 92.8542,108.9085" stroke="#7f0000" stroke-width="2" /></svg>