<?xml version="1.0" encoding="utf-8" ?>
<svg baseProfile="tiny" height="128" version="1.2" viewBox="0,0,128,128" width="128" xmlns="http://www.w3.org/2000/svg" xmlns:ev="http://www.w3.org/2001/xml-events" xmlns:xlink="http://www.w3.org/1999/xlink"><defs /><polyline fill="none" points="67.6881,8.678 58.1424,10.4136 40.3525,17.7898 30.8068,23.4305 21.6949,32.5424 14.3186,45.5593 10.4136,55.1051 8.678,75.0644 14.3186,102.4 23.4305,111.9458 32.5424,117.5864 41.6542,119.322 50.7661,119.322 69.8576,115.4169 87.6475,106.3051 97.1932,97.1932 102.8339,88.0814 102.4,78.5356 86.3458,49.4644 82.4407,38.1831 78.9695,16.0542" stroke="#00007f" stroke-width="2" /><polyline fill="none" points="71.1593,12.1492 75.0644,21.6949 75.0644,30.8068 80.7051,58.5763 89.8169,80.7051" stroke="#00d4ff" stroke-width="2" /><polyline fill="none" points="58.5763,16.0542 52.9356,25.1661 51.2,34.7119 51.2,45.5593 54.6712,63.7831 60.3119,73.3288 78.5356,87.6475 80.7051,88.0814" stroke="#ffe500" stroke-width="2" /><polyline fill="none" points="25.1661,41.6542 23.4305,51.2 39.9186,78.5356 47.2949,96.7593 43.8237,108.4746" stroke="#7f0000" stroke-width="2" /></svg>