<?xml version="1.0" encoding="utf-8" ?>
<svg baseProfile="tiny" height="128" version="1.2" viewBox="0,0,128,128" width="128" xmlns="http://www.w3.org/2000/svg" xmlns:ev="http://www.w3.org/2001/xml-events" xmlns:xlink="http://www.w3.org/1999/xlink"><defs /><polyline fill="none" points="62.9153,15.6203 58.5763,10.8475 53.8034,9.1119 45.1254,9.1119 36.0136,13.0169 27.3356,21.261 21.6949,28.6373 16.4881,38.1831 12.5831,49.0305 9.1119,72.461 9.9797,88.9492 13.0169,98.061 19.5254,108.9085 32.5424,117.5864 42.9559,119.322 50.7661,118.8881 59.4441,116.7186 70.7254,111.078 82.0068,99.7966 86.7797,86.3458 86.7797,70.7254 84.6102,58.1424 72.8949,30.3729 67.6881,21.261 60.3119,13.4508 57.7085,12.1492 45.9932,10.4136" stroke="#00007f" stroke-width="2" /><polyline fill="none" points="37.7492,8.678 25.1661,75.9322 20.8271,90.6847 14.3186,105.0034 9.5458,111.078 8.678,107.1729 9.9797,104.5695 13.8847,102.8339" stroke="#00d4ff" stroke-width="2" /><polyline fill="none" points="49.0305,13.4508 38.6169,109.7763" stroke="#ffe500" stroke-width="2" /><polyline fill="none" points="65.9525,17.3559 59.878,41.6542 56.4068,68.9898 56.8407,97.1932 62.0475,113.6814" stroke="#7f0000" stroke-width="2" /></svg>