<?xml version="1.0" encoding="utf-8" ?>
<svg baseProfile="tiny" height="128" version="1.2" viewBox="0,0,128,128" width="128" xmlns="http://www.w3.org/2000/svg" xmlns:ev="http://www.w3.org/2001/xml-events" xmlns:xlink="http://www.w3.org/1999/xlink"><defs /><polyline fill="none" points="76.3661,14.7525 63.3492,9.5458 49.8983,8.678 41.6542,12.1492 36.8814,16.0542 22.5627,31.6746 13.8847,47.2949 9.1119,61.6136 8.678,71.5932 10.8475,81.139 14.7525,89.3831 20.3932,96.3254 36.4475,109.3424 45.5593,114.1153 55.1051,118.0203 69.8576,119.322 74.6305,118.8881 91.1186,110.6441 100.6644,101.5322 110.2102,87.6475 113.6814,71.1593 114.1153,58.5763 111.078,52.0678 102.8339,45.1254 75.9322,11.2814" stroke="#00007f" stroke-width="2" /><polyline fill="none" points="78.1017,14.7525 78.5356,32.5424 82.0068,49.4644 91.9864,77.6678 98.9288,87.2136 101.0983,88.5153" stroke="#7cff79" stroke-width="2" /><polyline fill="none" points="40.3525,13.0169 47.2949,54.2373 47.2949,68.122 43.3898,82.8746 36.4475,93.2881 30.8068,97.6271 36.0136,92.8542" stroke="#7f0000" stroke-width="2" /></svg>