<?xml version="1.0" encoding="utf-8" ?>
<svg baseProfile="tiny" height="128" version="1.2" viewBox="0,0,128,128" width="128" xmlns="http://www.w3.org/2000/svg" xmlns:ev="http://www.w3.org/2001/xml-events" xmlns:xlink="http://www.w3.org/1999/xlink"><defs /><polyline fill="none" points="60.7458,108.4746 34.7119,108.0407 22.9966,101.5322 10.4136,86.7797 8.678,80.7051 9.1119,61.6136 12.1492,55.9729 31.2407,42.522 44.2576,28.6373 60.7458,23.4305 70.7254,21.6949 76.8,21.6949 86.7797,25.6 97.1932,30.8068 103.7017,36.0136 115.8508,53.3695 118.8881,59.878 119.322,72.8949 117.5864,77.6678 105.8712,89.8169 86.7797,103.2678 73.3288,108.4746 51.6339,108.9085" stroke="#00007f" stroke-width="2" /><polyline fill="none" points="91.9864,97.6271 88.9492,95.8915 84.1763,87.2136 79.8373,73.3288 77.6678,55.539 77.6678,39.4847 79.8373,30.3729 87.6475,13.4508 90.6847,8.678 91.1186,10.8475" stroke="#7cff79" stroke-width="2" /><polyline fill="none" points="72.0271,19.0915 72.0271,43.3898 74.6305,66.3864 78.1017,76.8 83.3085,83.3085 88.0814,94.5898 90.2508,104.5695" stroke="#7f0000" stroke-width="2" /></svg>