<?xml version="1.0" encoding="utf-8" ?>
<svg baseProfile="tiny" height="128" version="1.2" viewBox="0,0,128,128" width="128" xmlns="http://www.w3.org/2000/svg" xmlns:ev="http://www.w3.org/2001/xml-events" xmlns:xlink="http://www.w3.org/1999/xlink"><defs /><polyline fill="none" points="89.8169,15.1864 87.2136,12.5831 76.3661,10.4136 53.3695,10.4136 38.6169,14.7525 30.3729,19.0915 21.261,26.0339 13.4508,34.278 10.4136,39.4847 8.678,51.6339 9.5458,56.4068 13.4508,64.2169 22.5627,75.0644 29.939,81.139 37.3153,84.6102 52.0678,88.5153 60.7458,88.9492 91.9864,82.4407 105.8712,75.9322 114.1153,69.4237 118.0203,61.6136 119.322,53.3695 118.4542,43.3898 115.8508,35.5797 111.078,28.6373 98.061,15.1864 93.722,13.0169 84.6102,10.4136" stroke="#00007f" stroke-width="2" /><polyline fill="none" points="83.7424,18.2237 85.478,16.4881 82.8746,21.261 75.0644,56.4068 75.9322,66.3864 82.8746,82.0068 90.2508,90.2508 98.4949,94.1559 99.3627,95.8915" stroke="#7cff79" stroke-width="2" /><polyline fill="none" points="39.9186,8.678 49.4644,34.278 51.2,49.4644 50.7661,58.1424 46.4271,69.4237 39.9186,94.1559" stroke="#7f0000" stroke-width="2" /></svg>