<?xml version="1.0" encoding="utf-8" ?>
<svg baseProfile="tiny" height="128" version="1.2" viewBox="0,0,128,128" width="128" xmlns="http://www.w3.org/2000/svg" xmlns:ev="http://www.w3.org/2001/xml-events" xmlns:xlink="http://www.w3.org/1999/xlink"><defs /><polyline fill="none" points="78.1017,14.3186 73.3288,9.5458 62.9153,8.678 51.2,12.1492 37.7492,18.6576 21.261,34.278 11.2814,56.8407 9.1119,74.1966 8.678,89.8169 9.9797,95.8915 12.5831,100.6644 21.6949,108.4746 31.6746,114.5492 51.6339,118.0203 67.2542,118.0203 74.6305,115.4169 94.5898,104.1356 109.3424,88.0814 116.7186,74.6305 118.4542,65.9525 117.5864,45.1254 110.6441,28.6373 104.5695,19.9593 96.3254,14.3186 84.6102,11.2814 63.3492,10.8475 60.3119,13.0169" stroke="#00007f" stroke-width="2" /><polyline fill="none" points="26.0339,27.7695 29.0712,29.0712 42.0881,47.7288 44.2576,52.0678 46.4271,65.0847 47.2949,97.6271 44.6915,107.6068 37.7492,119.322" stroke="#0080ff" stroke-width="2" /><polyline fill="none" points="90.2508,17.3559 86.3458,24.7322 82.4407,39.9186 79.8373,56.8407 79.8373,70.2915 85.0441,82.4407 88.0814,85.478 108.9085,96.3254" stroke="#7cff79" stroke-width="2" /><polyline fill="none" points="35.5797,45.5593 45.1254,39.9186 53.3695,38.1831" stroke="#ff9400" stroke-width="2" /><polyline fill="none" points="35.1458,68.5559 59.0102,65.0847" stroke="#7f0000" stroke-width="2" /></svg>