<?xml version="1.0" encoding="utf-8" ?>
<svg baseProfile="tiny" height="128" version="1.2" viewBox="0,0,128,128" width="128" xmlns="http://www.w3.org/2000/svg" xmlns:ev="http://www.w3.org/2001/xml-events" xmlns:xlink="http://www.w3.org/1999/xlink"><defs /><polyline fill="none" points="59.6463,11.3197 57.034,10.449 44.4082,10.449 38.7483,11.3197 27.4286,18.2857 22.2041,23.9456 17.8503,30.4762 10.8844,48.3265 9.1429,58.7755 8.7075,78.3673 10.8844,87.5102 15.6735,95.7823 22.6395,102.3129 30.4762,107.9728 39.619,110.585 61.3878,110.585 86.2041,101.4422 98.3946,92.7347 108.4082,82.7211 114.9388,71.8367 118.4218,60.0816 119.2925,40.4898 114.068,33.0884 104.4898,25.6871 77.4966,13.932 59.6463,9.5782 47.8912,8.7075 42.6667,11.3197 38.7483,16.1088" stroke="#00007f" stroke-width="2" /><polyline fill="none" points="21.7687,26.5578 33.9592,30.4762 43.5374,41.3605 47.4558,72.2721 47.4558,85.7687 40.9252,101.4422 33.0884,109.2789 22.6395,108.4082" stroke="#7cff79" stroke-width="2" /><polyline fill="none" points="80.1088,13.4966 76.1905,15.6735 70.966,22.6395 68.7891,30.9116 67.9184,67.9184 69.6599,74.8844 75.3197,83.5918 84.898,90.5578 90.5578,91.8639 99.2653,91.8639 104.0544,90.1224 114.9388,80.5442" stroke="#7f0000" stroke-width="2" /></svg>