<?xml version="1.0" encoding="utf-8" ?>
<svg baseProfile="tiny" height="128" version="1.2" viewBox="0,0,128,128" width="128" xmlns="http://www.w3.org/2000/svg" xmlns:ev="http://www.w3.org/2001/xml-events" xmlns:xlink="http://www.w3.org/1999/xlink"><defs /><polyline fill="none" points="88.5153,16.0542 80.2712,12.1492 68.122,9.5458 60.7458,8.678 46.4271,9.5458 34.278,14.7525 22.9966,25.6 15.6203,36.8814 10.8475,49.0305 8.678,61.1797 9.1119,66.8203 9.5458,72.8949 14.3186,82.4407 26.9017,94.1559 32.9763,96.7593 45.9932,98.4949 58.1424,98.061 70.2915,94.5898 88.0814,86.7797 103.7017,76.8 116.7186,59.878 119.322,50.7661 118.8881,42.0881 113.2475,31.2407 98.4949,19.5254 71.5932,8.678" stroke="#00007f" stroke-width="2" /><polyline fill="none" points="27.3356,18.6576 35.5797,23.8644 45.9932,36.0136 51.2,46.861 53.8034,59.0102 53.8034,70.7254 50.7661,81.139 43.8237,92.4203 36.0136,98.4949" stroke="#0028ff" stroke-width="2" /><polyline fill="none" points="83.3085,16.922 78.9695,21.261 75.9322,29.939 73.7627,40.3525 74.1966,54.2373 76.8,63.3492 80.7051,70.7254 87.6475,76.8 95.4576,78.9695" stroke="#00d4ff" stroke-width="2" /><polyline fill="none" points="56.4068,9.5458 57.7085,18.6576" stroke="#7cff79" stroke-width="2" /><polyline fill="none" points="59.0102,29.5051 62.9153,40.3525" stroke="#ffe500" stroke-width="2" /><polyline fill="none" points="64.6508,51.6339 66.3864,63.7831" stroke="#ff4600" stroke-width="2" /><polyline fill="none" points="68.9898,78.5356 71.1593,85.9119" stroke="#7f0000" stroke-width="2" /></svg>