<?xml version="1.0" encoding="utf-8" ?>
<svg baseProfile="tiny" height="128" version="1.2" viewBox="0,0,128,128" width="128" xmlns="http://www.w3.org/2000/svg" xmlns:ev="http://www.w3.org/2001/xml-events" xmlns:xlink="http://www.w3.org/1999/xlink"><defs /><polyline fill="none" points="63.7831,112.8136 60.7458,113.2475 47.2949,103.2678 29.0712,84.1763 19.9593,70.2915 14.7525,60.7458 8.678,42.0881 8.678,32.9763 13.4508,22.1288 19.9593,15.1864 32.1085,9.1119 38.1831,8.678 53.3695,13.8847 66.3864,20.3932 85.0441,36.0136 91.9864,43.3898 91.9864,58.5763 83.3085,84.6102 63.7831,116.7186 61.6136,119.322 59.878,119.322" stroke="#00007f" stroke-width="2" /><polyline fill="none" points="23.8644,16.0542 26.4678,33.8441 26.9017,54.2373 26.0339,59.878 21.261,70.2915 13.8847,69.4237" stroke="#7cff79" stroke-width="2" /><polyline fill="none" points="72.461,27.7695 75.4983,52.9356 78.5356,60.7458 88.0814,73.3288" stroke="#7f0000" stroke-width="2" /></svg>