<?xml version="1.0" encoding="utf-8" ?>
<svg baseProfile="tiny" height="128" version="1.2" viewBox="0,0,128,128" width="128" xmlns="http://www.w3.org/2000/svg" xmlns:ev="http://www.w3.org/2001/xml-events" xmlns:xlink="http://www.w3.org/1999/xlink"><defs /><polyline fill="none" points="93.2881,8.678 85.478,9.1119 70.7254,13.4508 52.5017,20.8271 34.278,31.2407 26.4678,37.3153 14.3186,53.3695 10.4136,63.3492 9.1119,72.0271 8.678,80.7051 13.8847,92.8542 26.0339,101.0983 34.278,103.2678 52.0678,103.7017 70.7254,98.4949 79.4034,94.1559 95.0237,82.4407 101.0983,76.3661 108.4746,62.9153 111.9458,42.9559 111.078,26.4678 104.1356,16.922 92.4203,11.7153 80.2712,13.8847 79.4034,17.3559 80.7051,20.3932 78.9695,27.7695 68.5559,37.7492 45.9932,44.6915 11.7153,49.4644 11.2814,52.0678" stroke="#00007f" stroke-width="2" /><polyline fill="none" points="66.3864,43.3898 65.5186,95.0237 64.2169,100.2305 60.7458,105.0034 51.6339,111.9458 52.0678,109.3424" stroke="#7cff79" stroke-width="2" /><polyline fill="none" points="73.7627,33.4102 74.6305,36.8814 81.5729,45.9932 94.1559,56.4068 101.5322,56.8407 119.322,47.2949" stroke="#7f0000" stroke-width="2" /></svg>