<?xml version="1.0" encoding="utf-8" ?>
<svg baseProfile="tiny" height="128" version="1.2" viewBox="0,0,128,128" width="128" xmlns="http://www.w3.org/2000/svg" xmlns:ev="http://www.w3.org/2001/xml-events" xmlns:xlink="http://www.w3.org/1999/xlink"><defs /><polyline fill="none" points="85.9119,11.7153 78.9695,11.7153 63.3492,14.7525 43.3898,22.5627 27.3356,35.5797 14.3186,52.0678 9.1119,67.2542 8.678,71.5932 10.4136,78.9695 12.5831,85.478 20.8271,98.061 34.278,111.5119 51.2,118.8881 62.0475,119.322 75.0644,117.5864 91.9864,110.6441 98.061,105.8712 105.0034,97.1932 113.2475,83.3085 116.2847,74.1966 117.1525,64.2169 116.7186,52.5017 113.6814,40.3525 108.0407,30.3729 97.1932,18.2237 80.7051,8.678" stroke="#00007f" stroke-width="2" /><polyline fill="none" points="69.4237,26.0339 69.8576,30.3729 73.7627,37.7492 86.7797,55.1051 99.7966,67.6881 110.6441,71.5932" stroke="#7cff79" stroke-width="2" /><polyline fill="none" points="25.1661,45.1254 33.8441,53.3695 45.1254,67.2542 55.1051,87.2136 62.0475,110.6441" stroke="#7f0000" stroke-width="2" /></svg>