<?xml version="1.0" encoding="utf-8" ?>
<svg baseProfile="tiny" height="128" version="1.2" viewBox="0,0,128,128" width="128" xmlns="http://www.w3.org/2000/svg" xmlns:ev="http://www.w3.org/2001/xml-events" xmlns:xlink="http://www.w3.org/1999/xlink"><defs /><polyline fill="none" points="22.5627,33.4102 18.2237,36.8814 13.0169,45.1254 8.678,65.9525 8.678,76.8 10.8475,85.9119 17.7898,97.1932 24.7322,103.2678 37.3153,109.7763 46.4271,112.8136 55.539,113.6814 69.4237,113.6814 81.5729,110.2102 88.5153,105.4373 95.8915,98.061 108.4746,76.3661 113.6814,50.3322 113.6814,44.2576 109.7763,33.8441 104.1356,24.2983 96.7593,16.0542 86.7797,10.8475 75.9322,8.678 62.9153,9.1119 51.2,12.1492 35.1458,19.0915 29.939,23.4305 20.8271,32.5424 15.1864,42.0881" stroke="#00007f" stroke-width="2" /><polyline fill="none" points="22.5627,29.0712 28.6373,32.5424 36.0136,40.7864 52.5017,34.7119 55.539,31.6746 57.7085,13.0169 59.4441,9.9797" stroke="#0000f1" stroke-width="2" /><polyline fill="none" points="94.5898,15.6203 93.722,19.9593 84.6102,36.0136 83.7424,40.7864 92.4203,54.6712 101.9661,62.4814 105.8712,70.2915" stroke="#004cff" stroke-width="2" /><polyline fill="none" points="38.1831,119.322 39.9186,111.9458 48.1627,94.5898 78.9695,93.2881 80.2712,94.5898 81.139,108.4746" stroke="#00b0ff" stroke-width="2" /><polyline fill="none" points="12.1492,59.0102 16.0542,59.4441 29.939,68.122 22.1288,80.7051 14.3186,101.0983" stroke="#29ffcd" stroke-width="2" /><polyline fill="none" points="45.9932,53.8034 52.5017,72.0271 67.2542,72.0271 80.7051,69.4237 78.9695,55.9729 76.8,48.5966 75.0644,47.2949 62.4814,46.861 54.6712,48.1627 46.4271,51.6339 42.522,55.9729" stroke="#7cff79" stroke-width="2" /><polyline fill="none" points="57.2746,52.5017 57.7085,58.1424 60.7458,64.6508 66.8203,65.9525 68.9898,63.3492 70.7254,57.7085 71.1593,48.1627 68.122,43.3898 62.9153,43.8237 52.5017,53.3695 49.0305,58.1424 46.861,66.3864 49.4644,70.7254 58.5763,70.2915 63.3492,67.6881 65.5186,59.4441 62.9153,55.1051 60.3119,54.2373 55.539,60.3119 55.539,64.6508 55.9729,69.8576 59.878,75.0644 67.2542,75.9322 73.3288,71.5932 76.3661,64.2169 75.9322,56.8407 72.461,52.9356 69.4237,51.6339 62.0475,52.9356 56.8407,60.7458 56.8407,63.7831 59.878,68.122 66.3864,68.9898 71.5932,66.8203 73.3288,63.3492 73.3288,58.5763 69.8576,54.6712 67.2542,53.3695 62.0475,53.3695 58.5763,55.9729 57.7085,58.5763 58.1424,65.0847 60.7458,68.5559 64.2169,70.7254 72.8949,71.5932 75.4983,70.2915 77.6678,64.6508 77.6678,53.8034 72.8949,48.5966 66.3864,47.2949 55.539,51.2 52.0678,55.539 51.6339,59.878 55.9729,62.0475 66.3864,62.4814 72.8949,59.0102 73.3288,55.1051 68.9898,52.5017 57.7085,51.6339 52.9356,52.5017 50.3322,55.1051 50.7661,59.878 52.9356,61.6136 62.0475,65.0847 67.2542,64.6508 69.4237,62.9153 69.4237,58.5763 66.3864,52.9356 62.9153,49.4644 59.4441,49.0305 57.2746,49.4644 54.2373,54.2373 54.2373,58.1424 58.1424,62.4814 63.7831,65.0847 68.122,65.0847 68.9898,58.5763 60.7458,49.4644 54.6712,47.7288 48.5966,48.5966 45.9932,53.8034 46.861,60.7458 52.5017,66.8203" stroke="#cdff29" stroke-width="2" /><polyline fill="none" points="96.3254,23.4305 108.0407,61.6136 107.1729,49.8983 101.9661,29.5051 116.2847,61.6136 110.2102,39.4847 105.4373,30.3729 111.078,56.4068 104.1356,29.939 104.1356,38.1831 107.6068,59.0102 103.7017,41.6542 99.3627,31.6746 98.9288,40.3525 101.5322,54.2373 93.722,31.6746 93.2881,35.1458 96.7593,54.2373 94.1559,43.8237 87.6475,32.5424 89.8169,43.3898 91.9864,49.0305" stroke="#ffc400" stroke-width="2" /><polyline fill="none" points="53.3695,16.922 49.8983,19.0915 43.3898,29.0712 42.522,32.9763 45.5593,33.8441 49.8983,30.8068 46.4271,30.3729 45.1254,31.2407 57.2746,18.6576 44.2576,29.939 52.5017,16.0542 47.7288,16.922 32.1085,29.5051 50.7661,11.7153 29.5051,25.1661" stroke="#ff6700" stroke-width="2" /><polyline fill="none" points="75.4983,100.6644 61.6136,108.0407 79.8373,98.061 44.2576,101.9661 43.8237,98.9288 55.1051,93.2881 62.4814,91.5525 69.4237,92.4203 56.4068,101.9661 61.1797,103.2678 63.3492,105.8712" stroke="#f10700" stroke-width="2" /><polyline fill="none" points="16.922,68.5559 16.4881,78.1017 23.8644,71.5932 24.7322,66.8203 22.1288,65.5186 17.3559,69.8576 9.5458,87.2136 12.1492,85.0441 16.0542,68.5559 16.0542,83.3085 17.3559,88.5153 16.922,71.5932 12.1492,61.6136" stroke="#7f0000" stroke-width="2" /></svg>