<?xml version="1.0" encoding="utf-8" ?>
<svg baseProfile="tiny" height="128" version="1.2" viewBox="0,0,128,128" width="128" xmlns="http://www.w3.org/2000/svg" xmlns:ev="http://www.w3.org/2001/xml-events" xmlns:xlink="http://www.w3.org/1999/xlink"><defs /><polyline fill="none" points="62.2585,12.6259 53.9864,13.4966 38.3129,21.3333 22.6395,35.2653 15.2381,43.102 10.8844,51.8095 8.7075,59.6463 9.5782,75.3197 13.932,82.2857 19.5918,87.5102 28.7347,92.2993 50.068,97.0884 73.5782,96.6531 84.4626,92.7347 102.7483,81.8503 109.2789,74.8844 117.551,59.6463 119.2925,52.6803 118.8571,38.7483 115.8095,32.2177 106.2313,21.7687 91.8639,13.0612 82.2857,10.449 72.2721,8.7075 50.9388,8.7075" stroke="#00007f" stroke-width="2" /><polyline fill="none" points="54.8571,16.9796 55.2925,46.585 53.1156,53.9864 42.2313,75.3197 33.0884,87.0748 30.0408,88.8163" stroke="#7cff79" stroke-width="2" /><polyline fill="none" points="96.2177,17.415 94.0408,17.415 90.5578,25.2517 87.5102,42.2313 87.5102,55.7279 89.2517,69.6599 94.4762,81.415 98.3946,84.4626" stroke="#7f0000" stroke-width="2" /></svg>