<?xml version="1.0" encoding="utf-8" ?>
<svg baseProfile="tiny" height="128" version="1.2" viewBox="0,0,128,128" width="128" xmlns="http://www.w3.org/2000/svg" xmlns:ev="http://www.w3.org/2001/xml-events" xmlns:xlink="http://www.w3.org/1999/xlink"><defs /><polyline fill="none" points="41.2203,19.9593 39.4847,26.4678 40.7864,28.2034 41.6542,27.7695 43.3898,20.8271 42.9559,18.6576 41.6542,19.0915" stroke="#00007f" stroke-width="2" /><polyline fill="none" points="41.6542,27.3356 91.5525,28.2034" stroke="#0000ff" stroke-width="2" /><polyline fill="none" points="43.3898,19.9593 54.2373,21.261 78.5356,20.8271 92.4203,23.4305 94.1559,22.1288 94.5898,27.7695 91.5525,27.7695" stroke="#0080ff" stroke-width="2" /><polyline fill="none" points="16.0542,9.9797 11.7153,11.2814 8.678,16.0542 9.5458,20.3932 13.4508,22.5627 18.2237,22.9966 20.8271,20.3932 19.9593,14.3186 14.7525,9.5458" stroke="#15ffe1" stroke-width="2" /><polyline fill="none" points="92.8542,27.3356 92.4203,26.0339" stroke="#7cff79" stroke-width="2" /><polyline fill="none" points="110.2102,27.7695 98.061,30.3729 97.6271,35.1458 100.6644,36.8814 105.4373,37.3153 114.5492,33.8441" stroke="#e4ff12" stroke-width="2" /><polyline fill="none" points="113.2475,27.7695 109.3424,23.4305 104.5695,23.8644 102.4,25.6 98.061,23.4305 97.6271,20.3932 100.2305,16.922 110.6441,14.7525 118.0203,21.6949 119.322,24.2983" stroke="#ff9400" stroke-width="2" /><polyline fill="none" points="112.8136,15.6203 109.7763,11.2814 104.1356,10.8475 98.9288,16.922" stroke="#ff1d00" stroke-width="2" /><polyline fill="none" points="115.4169,16.4881 114.5492,11.2814 108.0407,8.678" stroke="#7f0000" stroke-width="2" /></svg>