<?xml version="1.0" encoding="utf-8" ?>
<svg baseProfile="tiny" height="128" version="1.2" viewBox="0,0,128,128" width="128" xmlns="http://www.w3.org/2000/svg" xmlns:ev="http://www.w3.org/2001/xml-events" xmlns:xlink="http://www.w3.org/1999/xlink"><defs /><polyline fill="none" points="56.8407,9.9797 48.5966,10.4136 32.5424,17.7898 19.9593,26.4678 13.0169,33.8441 8.678,47.2949 8.678,69.8576 12.5831,79.4034 21.261,88.5153 32.9763,93.2881 85.0441,94.1559 98.9288,91.9864 107.6068,87.2136 113.6814,79.8373 118.8881,69.8576 119.322,55.9729 116.7186,48.5966 107.6068,39.0508 101.5322,34.7119 88.0814,26.9017 54.6712,12.1492" stroke="#00007f" stroke-width="2" /><polyline fill="none" points="46.4271,8.678 46.4271,48.5966 42.522,63.3492 32.9763,78.5356 34.7119,81.139" stroke="#00d4ff" stroke-width="2" /><polyline fill="none" points="88.5153,29.939 87.2136,34.7119 87.2136,81.5729 88.9492,87.6475 93.2881,94.1559" stroke="#ffe500" stroke-width="2" /><polyline fill="none" points="19.9593,48.5966 37.3153,50.7661 84.1763,63.3492 118.0203,64.2169" stroke="#7f0000" stroke-width="2" /></svg>