<?xml version="1.0" encoding="utf-8" ?>
<svg baseProfile="tiny" height="128" version="1.2" viewBox="0,0,128,128" width="128" xmlns="http://www.w3.org/2000/svg" xmlns:ev="http://www.w3.org/2001/xml-events" xmlns:xlink="http://www.w3.org/1999/xlink"><defs /><polyline fill="none" points="65.9525,13.4508 60.7458,12.5831 49.0305,14.3186 35.5797,23.4305 28.2034,31.6746 15.1864,51.2 10.8475,62.0475 8.678,72.8949 8.678,85.0441 9.1119,95.8915 13.0169,104.1356 20.8271,112.3797 29.0712,116.2847 38.1831,118.8881 49.4644,119.322 61.1797,117.5864 72.461,111.9458 83.7424,103.2678 98.9288,83.7424 103.2678,72.461 105.0034,59.878 105.4373,37.3153 101.5322,26.9017 95.8915,20.3932 87.6475,14.3186 78.5356,11.7153 45.5593,8.678" stroke="#00007f" stroke-width="2" /><polyline fill="none" points="24.2983,29.939 33.4102,46.4271 38.6169,61.6136 40.7864,78.1017 40.7864,100.6644 37.3153,113.6814" stroke="#0000ff" stroke-width="2" /><polyline fill="none" points="80.2712,9.9797 69.8576,43.8237 68.122,53.8034 67.6881,74.6305 70.2915,84.6102 78.1017,98.9288 85.478,106.739 90.2508,108.0407" stroke="#0080ff" stroke-width="2" /><polyline fill="none" points="17.7898,39.4847 20.8271,36.8814 37.7492,29.939" stroke="#15ffe1" stroke-width="2" /><polyline fill="none" points="36.0136,58.5763 36.0136,58.5763" stroke="#7cff79" stroke-width="2" /><polyline fill="none" points="37.7492,78.5356 37.7492,78.5356" stroke="#e4ff12" stroke-width="2" /><polyline fill="none" points="33.8441,101.5322 44.2576,101.5322" stroke="#ff9400" stroke-width="2" /><polyline fill="none" points="20.8271,59.0102 22.9966,55.1051 32.5424,49.4644 39.0508,47.2949" stroke="#ff1d00" stroke-width="2" /><polyline fill="none" points="37.7492,76.3661 37.7492,76.3661" stroke="#7f0000" stroke-width="2" /></svg>