<?xml version="1.0" encoding="utf-8" ?>
<svg baseProfile="tiny" height="128" version="1.2" viewBox="0,0,128,128" width="128" xmlns="http://www.w3.org/2000/svg" xmlns:ev="http://www.w3.org/2001/xml-events" xmlns:xlink="http://www.w3.org/1999/xlink"><defs /><polyline fill="none" points="53.8034,9.9797 34.278,14.3186 14.3186,24.7322 9.5458,30.8068 8.678,41.2203 10.4136,46.861 21.261,61.1797 36.8814,71.5932 55.1051,80.2712 64.2169,82.0068 78.1017,82.0068 95.8915,76.3661 101.0983,73.3288 109.3424,64.6508 113.6814,57.2746 118.4542,44.2576 119.322,34.278 106.3051,18.2237 98.9288,13.0169 92.4203,9.9797 84.1763,8.678 49.0305,8.678" stroke="#00007f" stroke-width="2" /><polyline fill="none" points="36.0136,14.7525 42.522,14.3186 54.6712,29.5051 57.2746,35.1458 59.878,47.2949 60.3119,73.7627 56.8407,80.2712" stroke="#00d4ff" stroke-width="2" /><polyline fill="none" points="88.9492,10.4136 86.7797,15.1864 83.3085,37.7492 83.3085,45.5593 89.3831,61.1797 101.0983,72.0271" stroke="#ffe500" stroke-width="2" /><polyline fill="none" points="26.9017,42.0881 62.0475,42.0881 81.5729,43.8237" stroke="#7f0000" stroke-width="2" /></svg>