<?xml version="1.0" encoding="utf-8" ?>
<svg baseProfile="tiny" height="128" version="1.2" viewBox="0,0,128,128" width="128" xmlns="http://www.w3.org/2000/svg" xmlns:ev="http://www.w3.org/2001/xml-events" xmlns:xlink="http://www.w3.org/1999/xlink"><defs /><polyline fill="none" points="94.9116,43.102 93.6054,26.9932 91.4286,21.7687 84.0272,13.932 71.4014,8.7075 47.4558,8.7075 29.6054,20.4626 17.8503,33.0884 10.449,48.7619 8.7075,57.034 8.7075,73.5782 10.8844,83.5918 19.5918,99.7007 33.5238,114.068 43.9728,117.551 58.3401,119.2925 76.6259,118.8571 84.0272,115.3741 96.2177,102.3129 100.5714,94.9116 104.4898,85.7687 106.6667,74.449 106.6667,50.5034 104.0544,28.7347 100.1361,17.8503 88.8163,12.1905" stroke="#00007f" stroke-width="2" /><polyline fill="none" points="26.1224,29.6054 30.4762,34.8299 32.6531,40.4898 37.8776,57.034 39.619,67.483 40.9252,94.9116 37.0068,113.6327" stroke="#0000ff" stroke-width="2" /><polyline fill="none" points="76.6259,12.1905 73.1429,17.415 71.8367,26.9932 70.966,72.2721 73.5782,84.4626 78.3673,95.3469 81.8503,98.8299 87.0748,99.7007" stroke="#0080ff" stroke-width="2" /><polyline fill="none" points="26.1224,50.9388 43.102,49.6327" stroke="#15ffe1" stroke-width="2" /><polyline fill="none" points="35.2653,69.2245 47.4558,68.7891" stroke="#7cff79" stroke-width="2" /><polyline fill="none" points="36.5714,88.381 43.102,90.9932 47.0204,90.9932" stroke="#e4ff12" stroke-width="2" /><polyline fill="none" points="67.0476,39.619 73.5782,39.1837" stroke="#ff9400" stroke-width="2" /><polyline fill="none" points="68.7891,66.6122 80.9796,64.8707" stroke="#ff1d00" stroke-width="2" /><polyline fill="none" points="71.8367,90.5578 71.8367,90.5578" stroke="#7f0000" stroke-width="2" /></svg>