<?xml version="1.0" encoding="utf-8" ?>
<svg baseProfile="tiny" height="128" version="1.2" viewBox="0,0,128,128" width="128" xmlns="http://www.w3.org/2000/svg" xmlns:ev="http://www.w3.org/2001/xml-events" xmlns:xlink="http://www.w3.org/1999/xlink"><defs /><polyline fill="none" points="8.678,64.2169 9.1119,55.9729 23.8644,30.8068 39.9186,20.3932 58.1424,13.0169 78.9695,8.678 88.9492,12.5831 99.3627,20.8271 116.2847,41.6542 119.322,54.6712 111.078,77.2339 106.3051,96.3254 98.4949,108.0407 88.5153,116.7186 77.2339,119.322 61.1797,118.0203 48.1627,112.3797 28.6373,93.722 22.9966,78.1017" stroke="#00007f" stroke-width="2" /><polyline fill="none" points="32.9763,49.8983 39.0508,59.4441 48.5966,66.3864 56.8407,76.8 74.1966,114.1153" stroke="#00d4ff" stroke-width="2" /><polyline fill="none" points="48.5966,38.1831 60.7458,49.8983 71.1593,55.1051 79.4034,61.6136 86.7797,75.0644 95.0237,103.7017 97.6271,118.8881" stroke="#ffe500" stroke-width="2" /><polyline fill="none" points="91.1186,17.7898 98.9288,32.1085 103.2678,49.0305 116.7186,73.3288" stroke="#7f0000" stroke-width="2" /></svg>