<?xml version="1.0" encoding="utf-8" ?>
<svg baseProfile="tiny" height="128" version="1.2" viewBox="0,0,128,128" width="128" xmlns="http://www.w3.org/2000/svg" xmlns:ev="http://www.w3.org/2001/xml-events" xmlns:xlink="http://www.w3.org/1999/xlink"><defs /><polyline fill="none" points="77.2339,15.1864 64.6508,8.678 55.9729,8.678 42.0881,13.8847 34.7119,18.6576 22.1288,34.7119 11.7153,60.3119 8.678,79.4034 9.5458,87.2136 12.1492,96.3254 21.261,107.6068 29.0712,112.3797 37.3153,116.7186 49.8983,119.322 72.0271,114.9831 83.7424,108.0407 91.1186,98.9288 96.3254,87.6475 97.6271,75.9322 96.7593,67.2542 93.2881,58.1424 85.0441,42.0881 75.4983,28.2034 64.6508,16.4881" stroke="#00007f" stroke-width="2" /><polyline fill="none" points="25.1661,115.4169 32.1085,99.3627 35.1458,88.5153 36.0136,75.9322 36.0136,68.122 28.6373,26.0339" stroke="#7cff79" stroke-width="2" /><polyline fill="none" points="86.7797,24.2983 82.8746,32.1085 71.5932,66.8203 70.2915,84.1763 75.4983,103.2678 78.9695,111.5119 81.5729,115.4169" stroke="#7f0000" stroke-width="2" /></svg>