<?xml version="1.0" encoding="utf-8" ?>
<svg baseProfile="tiny" height="128" version="1.2" viewBox="0,0,128,128" width="128" xmlns="http://www.w3.org/2000/svg" xmlns:ev="http://www.w3.org/2001/xml-events" xmlns:xlink="http://www.w3.org/1999/xlink"><defs /><polyline fill="none" points="20.898,9.5782 15.6735,79.2381" stroke="#00007f" stroke-width="2" /><polyline fill="none" points="21.7687,8.7075 27.8639,8.7075 31.3469,11.3197 33.9592,17.415 35.2653,26.9932 34.8299,34.3946 30.4762,55.7279 28.7347,79.2381 26.9932,80.5442" stroke="#0028ff" stroke-width="2" /><polyline fill="none" points="13.932,79.6735 9.1429,80.5442 8.7075,81.8503 9.5782,87.0748 13.0612,89.2517 28.2993,87.5102 31.3469,85.3333 31.3469,83.1565 26.9932,80.9796" stroke="#00d4ff" stroke-width="2" /><polyline fill="none" points="97.0884,90.5578 87.0748,82.2857 75.7551,67.9184 70.966,53.9864 72.2721,41.7959" stroke="#7cff79" stroke-width="2" /><polyline fill="none" points="87.0748,27.8639 96.2177,26.5578 102.7483,28.7347 114.5034,37.8776 119.2925,47.8912 119.2925,62.2585 112.7619,81.415 107.5374,87.9456 98.8299,89.2517" stroke="#ffe500" stroke-width="2" /><polyline fill="none" points="80.1088,36.5714 85.7687,47.8912 88.8163,61.3878 87.9456,71.8367 84.4626,77.0612" stroke="#ff4600" stroke-width="2" /><polyline fill="none" points="102.7483,30.9116 102.7483,30.9116" stroke="#7f0000" stroke-width="2" /></svg>