<?xml version="1.0" encoding="utf-8" ?>
<svg baseProfile="tiny" height="128" version="1.2" viewBox="0,0,128,128" width="128" xmlns="http://www.w3.org/2000/svg" xmlns:ev="http://www.w3.org/2001/xml-events" xmlns:xlink="http://www.w3.org/1999/xlink"><defs /><polyline fill="none" points="63.3492,10.8475 53.8034,8.678 46.4271,9.1119 31.6746,17.3559 19.0915,32.1085 9.9797,50.3322 8.678,58.1424 10.4136,68.5559 17.3559,78.9695 26.4678,82.8746 43.8237,85.0441 70.2915,82.4407 83.3085,78.5356 97.1932,71.1593 104.1356,64.6508" stroke="#00007f" stroke-width="2" /><polyline fill="none" points="112.3797,54.2373 113.2475,48.5966 111.9458,40.3525 101.9661,24.7322 92.8542,19.5254 81.139,15.1864 53.8034,8.678" stroke="#004cff" stroke-width="2" /><polyline fill="none" points="73.7627,21.6949 70.7254,42.9559 71.1593,56.8407 72.461,60.3119 78.1017,67.2542 85.0441,72.0271 85.478,69.8576" stroke="#29ffcd" stroke-width="2" /><polyline fill="none" points="81.5729,69.4237 75.4983,61.6136 72.8949,49.4644 73.3288,19.0915 77.6678,11.2814" stroke="#cdff29" stroke-width="2" /><polyline fill="none" points="119.322,55.9729 96.3254,73.3288" stroke="#ff6700" stroke-width="2" /><polyline fill="none" points="42.9559,13.0169 45.5593,22.1288 45.5593,39.0508 41.2203,53.3695 35.1458,64.6508" stroke="#7f0000" stroke-width="2" /></svg>