<?xml version="1.0" encoding="utf-8" ?>
<svg baseProfile="tiny" height="128" version="1.2" viewBox="0,0,128,128" width="128" xmlns="http://www.w3.org/2000/svg" xmlns:ev="http://www.w3.org/2001/xml-events" xmlns:xlink="http://www.w3.org/1999/xlink"><defs /><polyline fill="none" points="43.3898,8.678 27.7695,8.678 12.1492,14.7525 8.678,30.3729 8.678,75.0644 11.7153,90.6847 27.3356,103.2678 68.5559,103.7017 90.6847,100.2305 103.7017,84.1763 106.739,68.5559 103.2678,43.3898 87.6475,27.7695 72.0271,18.2237 55.9729,15.1864" stroke="#00007f" stroke-width="2" /><polyline fill="none" points="52.9356,27.7695 55.9729,49.4644 55.9729,65.5186 43.3898,65.5186" stroke="#00d4ff" stroke-width="2" /><polyline fill="none" points="15.1864,37.3153 53.3695,37.3153 72.0271,40.3525 94.1559,49.8983 115.8508,49.8983 119.322,52.9356" stroke="#ffe500" stroke-width="2" /><polyline fill="none" points="49.8983,40.3525 46.4271,57.7085 46.4271,90.6847 49.8983,97.1932" stroke="#7f0000" stroke-width="2" /></svg>