<?xml version="1.0" encoding="utf-8" ?>
<svg baseProfile="tiny" height="128" version="1.2" viewBox="0,0,128,128" width="128" xmlns="http://www.w3.org/2000/svg" xmlns:ev="http://www.w3.org/2001/xml-events" xmlns:xlink="http://www.w3.org/1999/xlink"><defs /><polyline fill="none" points="104.4898,34.8299 100.5714,29.6054 91.4286,28.7347 81.415,33.9592 74.8844,41.7959 71.8367,52.2449 72.2721,55.7279 77.4966,65.3061 84.4626,70.0952 94.9116,72.2721 104.4898,71.4014 114.068,64.0 119.2925,54.4218 118.4218,44.4082 111.8912,34.3946 107.5374,31.7823 97.9592,31.7823" stroke="#00007f" stroke-width="2" /><polyline fill="none" points="85.7687,31.7823 86.6395,33.5238" stroke="#0000b6" stroke-width="2" /><polyline fill="none" points="87.0748,36.1361 87.5102,36.1361" stroke="#0000ec" stroke-width="2" /><polyline fill="none" points="88.381,42.6667 88.381,43.102" stroke="#0010ff" stroke-width="2" /><polyline fill="none" points="87.5102,38.7483 88.381,40.9252" stroke="#0040ff" stroke-width="2" /><polyline fill="none" points="88.381,47.8912 88.381,47.8912" stroke="#0070ff" stroke-width="2" /><polyline fill="none" points="88.381,55.7279 88.381,55.7279" stroke="#00a4ff" stroke-width="2" /><polyline fill="none" points="86.6395,61.8231 86.6395,61.8231" stroke="#00d4ff" stroke-width="2" /><polyline fill="none" points="83.5918,66.6122 83.5918,66.6122" stroke="#18ffdd" stroke-width="2" /><polyline fill="none" points="106.6667,32.2177 105.7959,36.1361" stroke="#3fffb7" stroke-width="2" /><polyline fill="none" points="103.619,42.6667 103.619,42.6667" stroke="#66ff90" stroke-width="2" /><polyline fill="none" points="104.0544,49.6327 104.0544,50.068" stroke="#90ff66" stroke-width="2" /><polyline fill="none" points="104.9252,56.5986 105.7959,58.7755" stroke="#b7ff3f" stroke-width="2" /><polyline fill="none" points="106.6667,64.0 106.6667,64.4354" stroke="#ddff18" stroke-width="2" /><polyline fill="none" points="107.5374,66.6122 107.9728,66.6122" stroke="#ffe500" stroke-width="2" /><polyline fill="none" points="18.2857,68.3537 11.3197,77.0612 8.7075,84.0272 11.3197,88.381 16.1088,85.3333 27.4286,64.0 56.1633,30.9116 62.6939,20.0272 63.1293,12.6259 59.2109,8.7075 47.4558,8.7075 41.3605,14.8027 34.8299,29.6054 28.7347,53.9864 22.6395,67.9184 15.6735,75.3197" stroke="#ffb900" stroke-width="2" /><polyline fill="none" points="15.6735,74.0136 15.6735,74.0136" stroke="#ff8900" stroke-width="2" /><polyline fill="none" points="15.6735,74.0136 49.1973,50.068 47.8912,49.1973 39.1837,53.551 37.8776,56.1633 27.8639,62.6939 27.4286,61.3878 24.8163,62.6939" stroke="#ff5c00" stroke-width="2" /><polyline fill="none" points="24.8163,62.6939 22.6395,63.1293 23.5102,61.3878 22.2041,61.3878 18.2857,67.9184 22.6395,61.3878 20.898,67.0476 21.7687,68.7891 24.8163,62.6939" stroke="#ff3000" stroke-width="2" /><polyline fill="none" points="24.381,62.2585 24.381,62.2585" stroke="#ec0300" stroke-width="2" /><polyline fill="none" points="24.381,62.2585 24.381,62.2585" stroke="#b60000" stroke-width="2" /><polyline fill="none" points="24.381,62.2585 24.381,62.2585" stroke="#7f0000" stroke-width="2" /></svg>