<?xml version="1.0" encoding="utf-8" ?>
<svg baseProfile="tiny" height="128" version="1.2" viewBox="0,0,128,128" width="128" xmlns="http://www.w3.org/2000/svg" xmlns:ev="http://www.w3.org/2001/xml-events" xmlns:xlink="http://www.w3.org/1999/xlink"><defs /><polyline fill="none" points="75.4983,11.2814 62.4814,8.678 45.1254,8.678 37.3153,12.1492 20.3932,28.2034 11.7153,38.1831 8.678,52.0678 9.5458,57.2746 13.4508,70.2915 23.8644,90.6847 31.2407,99.7966 41.6542,106.3051 49.0305,107.1729 75.0644,106.3051 91.5525,97.1932 107.6068,85.478 114.9831,77.2339 118.8881,67.6881 119.322,53.3695 113.6814,37.3153 90.2508,19.0915 75.9322,13.4508" stroke="#00007f" stroke-width="2" /><polyline fill="none" points="58.1424,9.1119 49.4644,39.4847 42.9559,52.5017 26.0339,74.6305 20.8271,77.6678" stroke="#7cff79" stroke-width="2" /><polyline fill="none" points="95.4576,25.6 88.5153,41.2203 84.1763,65.9525 85.0441,82.8746 87.2136,91.9864 90.2508,95.0237" stroke="#7f0000" stroke-width="2" /></svg>