<?xml version="1.0" encoding="utf-8" ?>
<svg baseProfile="tiny" height="128" version="1.2" viewBox="0,0,128,128" width="128" xmlns="http://www.w3.org/2000/svg" xmlns:ev="http://www.w3.org/2001/xml-events" xmlns:xlink="http://www.w3.org/1999/xlink"><defs /><polyline fill="none" points="77.2339,13.0169 67.6881,8.678 51.6339,9.5458 40.7864,13.4508 22.9966,24.7322 15.6203,32.5424 11.2814,41.6542 8.678,50.3322 8.678,59.0102 11.2814,67.6881 16.0542,75.4983 22.1288,81.5729 42.522,90.2508 64.6508,94.1559 73.7627,94.5898 93.722,88.9492 117.1525,75.0644 119.322,68.5559 118.4542,61.6136 104.5695,37.7492 88.5153,25.6 57.7085,11.7153" stroke="#00007f" stroke-width="2" /><polyline fill="none" points="65.0847,19.9593 61.6136,31.2407 56.4068,37.7492 43.3898,45.9932 29.0712,58.5763 20.3932,71.5932 17.3559,81.139" stroke="#0080ff" stroke-width="2" /><polyline fill="none" points="73.3288,22.9966 73.3288,36.8814 68.5559,44.6915 59.4441,53.3695 44.2576,64.6508 22.9966,91.5525" stroke="#7cff79" stroke-width="2" /><polyline fill="none" points="16.922,27.3356 21.6949,29.939 39.0508,45.1254 50.7661,49.4644 56.8407,53.3695 67.2542,67.6881 80.7051,79.4034 83.3085,85.478" stroke="#ff9400" stroke-width="2" /><polyline fill="none" points="34.278,20.8271 29.939,21.261 33.8441,24.7322 44.6915,31.2407 65.0847,39.0508 71.5932,45.1254 73.7627,49.0305 75.9322,62.4814 78.5356,67.6881 105.4373,78.1017 107.1729,79.4034" stroke="#7f0000" stroke-width="2" /></svg>