<?xml version="1.0" encoding="utf-8" ?>
<svg baseProfile="tiny" height="128" version="1.2" viewBox="0,0,128,128" width="128" xmlns="http://www.w3.org/2000/svg" xmlns:ev="http://www.w3.org/2001/xml-events" xmlns:xlink="http://www.w3.org/1999/xlink"><defs /><polyline fill="none" points="55.1051,29.939 44.2576,19.5254 33.4102,24.7322 19.9593,38.1831 12.1492,53.3695 8.678,63.7831 9.5458,94.5898 16.4881,108.4746 33.4102,119.322 48.1627,119.322 62.0475,113.2475 70.2915,106.739 79.8373,98.061 87.2136,88.0814 90.6847,82.0068 94.1559,70.2915 98.061,65.5186 98.9288,51.6339 98.061,35.5797 94.1559,26.4678 81.139,12.1492 73.3288,8.678 59.878,9.5458 45.1254,17.3559 40.7864,23.8644" stroke="#00007f" stroke-width="2" /><polyline fill="none" points="19.5254,29.939 34.7119,41.6542 40.7864,55.1051 44.2576,70.2915 44.2576,87.2136 41.6542,94.5898 35.5797,103.2678" stroke="#0028ff" stroke-width="2" /><polyline fill="none" points="82.0068,16.922 72.8949,31.2407 71.1593,47.7288 72.8949,52.0678 72.8949,62.9153 76.8,82.0068 83.3085,94.1559 87.2136,94.1559" stroke="#00d4ff" stroke-width="2" /><polyline fill="none" points="23.8644,44.2576 37.3153,39.0508" stroke="#7cff79" stroke-width="2" /><polyline fill="none" points="30.8068,62.0475 49.0305,52.5017" stroke="#ffe500" stroke-width="2" /><polyline fill="none" points="33.8441,80.2712 49.8983,72.8949" stroke="#ff4600" stroke-width="2" /><polyline fill="none" points="67.6881,35.5797 80.2712,38.1831" stroke="#7f0000" stroke-width="2" /></svg>