<?xml version="1.0" encoding="utf-8" ?>
<svg baseProfile="tiny" height="128" version="1.2" viewBox="0,0,128,128" width="128" xmlns="http://www.w3.org/2000/svg" xmlns:ev="http://www.w3.org/2001/xml-events" xmlns:xlink="http://www.w3.org/1999/xlink"><defs /><polyline fill="none" points="99.7966,20.8271 94.5898,14.7525 85.0441,10.4136 67.6881,8.678 53.8034,9.9797 36.8814,17.7898 24.7322,28.6373 17.7898,39.0508 12.5831,50.7661 9.1119,66.8203 8.678,80.7051 11.7153,89.8169 21.261,102.8339 30.3729,109.3424 53.3695,117.5864 81.139,119.322 93.2881,116.7186 106.3051,105.8712 114.5492,89.8169 117.1525,77.2339 117.5864,64.6508 112.3797,44.6915 103.2678,28.2034 95.0237,21.6949 85.478,17.3559" stroke="#00007f" stroke-width="2" /><polyline fill="none" points="37.3153,17.7898 42.9559,24.2983 47.7288,33.4102 50.3322,42.0881 54.2373,65.5186 53.8034,78.5356 49.4644,97.6271 46.4271,106.3051 38.6169,117.5864" stroke="#7cff79" stroke-width="2" /><polyline fill="none" points="94.1559,13.4508 85.0441,26.4678 78.1017,40.7864 75.9322,49.8983 74.1966,66.8203 74.6305,82.0068 77.2339,93.722 83.3085,110.2102 89.3831,116.7186" stroke="#7f0000" stroke-width="2" /></svg>