<?xml version="1.0" encoding="utf-8" ?>
<svg baseProfile="tiny" height="128" version="1.2" viewBox="0,0,128,128" width="128" xmlns="http://www.w3.org/2000/svg" xmlns:ev="http://www.w3.org/2001/xml-events" xmlns:xlink="http://www.w3.org/1999/xlink"><defs /><polyline fill="none" points="96.2177,34.8299 95.3469,32.6531 90.5578,30.4762 83.5918,33.0884 74.449,39.619 72.7075,43.102 72.7075,50.9388 76.6259,57.9048 84.0272,63.1293 90.9932,63.1293 97.0884,58.7755 99.2653,53.551 99.7007,42.6667 97.5238,37.8776 94.0408,35.2653" stroke="#00007f" stroke-width="2" /><polyline fill="none" points="46.585,37.0068 50.068,25.2517 49.6327,14.8027 42.2313,9.5782 34.8299,8.7075 32.6531,17.415 32.6531,24.8163 40.4898,41.3605 39.1837,55.7279 29.6054,55.7279 19.1565,44.4082 10.8844,43.9728 8.7075,48.3265 9.1429,58.3401 10.8844,62.2585 16.5442,68.3537 26.9932,69.6599 34.8299,66.1769 37.4422,67.9184 37.8776,85.7687 33.5238,100.5714 31.3469,116.6803 37.8776,119.2925 42.6667,111.4558" stroke="#7f0000" stroke-width="2" /></svg>