<?xml version="1.0" encoding="utf-8" ?>
<svg baseProfile="tiny" height="128" version="1.2" viewBox="0,0,128,128" width="128" xmlns="http://www.w3.org/2000/svg" xmlns:ev="http://www.w3.org/2001/xml-events" xmlns:xlink="http://www.w3.org/1999/xlink"><defs /><polyline fill="none" points="35.5797,21.6949 26.9017,23.8644 17.3559,33.8441 10.8475,49.0305 8.678,73.3288 15.1864,90.6847 20.8271,98.9288 34.7119,111.5119 49.8983,118.0203 64.6508,119.322 79.4034,111.9458 86.7797,105.0034 97.1932,89.8169 103.2678,75.0644 104.5695,68.5559 104.5695,46.861 100.2305,34.278 96.7593,28.6373 88.9492,19.9593 79.4034,13.8847 68.122,11.7153 49.0305,11.2814 38.1831,14.7525 35.1458,17.7898" stroke="#00007f" stroke-width="2" /><polyline fill="none" points="11.2814,44.2576 14.3186,40.7864 19.5254,39.0508 30.3729,38.6169 37.7492,40.7864 42.522,44.6915 49.4644,54.2373 58.1424,71.5932 65.0847,81.5729 75.4983,87.2136 82.4407,86.3458 86.3458,78.9695 87.2136,72.0271 87.2136,54.2373 82.4407,34.278 79.4034,26.9017 70.2915,17.3559 64.2169,13.0169 52.9356,8.678" stroke="#004cff" stroke-width="2" /><polyline fill="none" points="20.8271,31.2407 18.2237,39.0508 17.7898,45.5593" stroke="#29ffcd" stroke-width="2" /><polyline fill="none" points="35.5797,35.5797 25.6,55.9729" stroke="#cdff29" stroke-width="2" /><polyline fill="none" points="44.6915,44.2576 41.6542,63.3492 44.2576,64.2169 53.8034,61.1797 52.9356,80.2712" stroke="#ff6700" stroke-width="2" /><polyline fill="none" points="66.3864,74.6305 67.2542,82.0068 70.7254,85.478" stroke="#7f0000" stroke-width="2" /></svg>