<?xml version="1.0" encoding="utf-8" ?>
<svg baseProfile="tiny" height="128" version="1.2" viewBox="0,0,128,128" width="128" xmlns="http://www.w3.org/2000/svg" xmlns:ev="http://www.w3.org/2001/xml-events" xmlns:xlink="http://www.w3.org/1999/xlink"><defs /><polyline fill="none" points="35.1458,8.678 22.1288,20.3932 15.1864,29.5051 8.678,44.6915 9.5458,61.1797 17.3559,79.8373 19.5254,88.5153 25.6,98.9288 30.3729,102.8339 38.6169,108.0407 59.0102,116.2847 76.8,119.322 81.139,118.0203 87.2136,113.2475 96.3254,93.2881 101.5322,72.8949 99.7966,61.1797 96.3254,51.2 82.8746,34.7119 66.8203,23.8644 57.7085,21.6949 45.1254,16.4881 29.5051,13.8847" stroke="#00007f" stroke-width="2" /><polyline fill="none" points="29.5051,13.8847 51.6339,54.2373 53.8034,66.8203 53.8034,81.139 53.3695,92.8542 50.3322,101.5322 49.4644,110.6441" stroke="#7cff79" stroke-width="2" /><polyline fill="none" points="82.0068,109.7763 69.8576,80.2712 63.3492,68.5559 60.3119,55.539 60.3119,49.4644 70.2915,34.7119" stroke="#7f0000" stroke-width="2" /></svg>