<?xml version="1.0" encoding="utf-8" ?>
<svg baseProfile="tiny" height="128" version="1.2" viewBox="0,0,128,128" width="128" xmlns="http://www.w3.org/2000/svg" xmlns:ev="http://www.w3.org/2001/xml-events" xmlns:xlink="http://www.w3.org/1999/xlink"><defs /><polyline fill="none" points="33.5238,77.4966 33.5238,77.4966" stroke="#00007f" stroke-width="2" /><polyline fill="none" points="23.5102,13.0612 16.9796,28.2993 13.0612,43.5374 8.7075,72.7075 10.0136,94.4762 16.9796,110.1497 22.6395,115.3741 30.9116,119.2925 40.9252,119.2925 46.1497,117.551 64.8707,107.102 73.1429,99.2653 81.415,87.0748 90.1224,68.3537 94.0408,50.9388 91.4286,38.7483 87.0748,30.0408 82.7211,25.2517 72.7075,17.415 65.7415,13.932 56.1633,10.449 46.1497,8.7075 38.3129,9.1429 30.9116,11.3197 22.6395,15.6735 18.7211,20.0272 17.415,23.9456" stroke="#004cff" stroke-width="2" /><polyline fill="none" points="67.483,17.415 62.6939,41.3605 48.7619,87.5102 42.2313,103.619 37.0068,111.8912" stroke="#29ffcd" stroke-width="2" /><polyline fill="none" points="17.8503,39.1837 70.0952,85.3333" stroke="#cdff29" stroke-width="2" /><polyline fill="none" points="46.585,19.5918 51.3741,46.1497 65.7415,101.8776" stroke="#ff6700" stroke-width="2" /><polyline fill="none" points="11.3197,88.8163 48.3265,65.7415 88.8163,45.7143" stroke="#7f0000" stroke-width="2" /></svg>