<?xml version="1.0" encoding="utf-8" ?>
<svg baseProfile="tiny" height="128" version="1.2" viewBox="0,0,128,128" width="128" xmlns="http://www.w3.org/2000/svg" xmlns:ev="http://www.w3.org/2001/xml-events" xmlns:xlink="http://www.w3.org/1999/xlink"><defs /><polyline fill="none" points="105.8712,39.4847 91.5525,22.5627 78.5356,13.4508 70.7254,10.4136 55.9729,8.678 47.2949,10.4136 40.3525,14.3186 31.2407,19.9593 24.2983,27.7695 17.7898,36.4475 13.8847,45.9932 10.4136,56.4068 8.678,67.2542 8.678,80.2712 11.2814,89.3831 14.7525,97.1932 24.7322,108.9085 41.2203,117.5864 61.6136,119.322 71.1593,118.4542 78.5356,115.8508 92.8542,106.739 102.4,98.061 105.8712,91.1186 108.9085,76.3661 109.3424,58.5763 108.0407,44.2576 102.4,30.3729" stroke="#00007f" stroke-width="2" /><polyline fill="none" points="20.3932,103.7017 38.6169,76.8 49.4644,56.8407 50.7661,38.1831 45.9932,11.2814" stroke="#7cff79" stroke-width="2" /><polyline fill="none" points="85.478,15.1864 80.7051,31.2407 78.9695,47.2949 78.5356,84.6102 82.8746,97.1932 91.9864,109.7763 95.0237,109.3424" stroke="#7f0000" stroke-width="2" /></svg>