<?xml version="1.0" encoding="utf-8" ?>
<svg baseProfile="tiny" height="128" version="1.2" viewBox="0,0,128,128" width="128" xmlns="http://www.w3.org/2000/svg" xmlns:ev="http://www.w3.org/2001/xml-events" xmlns:xlink="http://www.w3.org/1999/xlink"><defs /><polyline fill="none" points="38.6169,22.5627 33.8441,26.4678 19.5254,45.1254 10.4136,60.7458 8.678,64.6508 9.5458,82.8746 18.6576,98.9288 28.6373,109.3424 60.7458,118.4542 73.7627,119.322 80.2712,117.5864 96.3254,101.9661 103.7017,85.0441 105.4373,73.7627 104.5695,59.878 99.3627,49.0305 92.8542,39.4847 84.6102,28.2034 67.2542,11.2814 61.1797,8.678 55.9729,9.5458 21.261,28.6373 18.6576,31.6746" stroke="#00007f" stroke-width="2" /><polyline fill="none" points="80.7051,34.278 66.8203,52.9356 53.3695,68.122 33.4102,99.3627" stroke="#0080ff" stroke-width="2" /><polyline fill="none" points="61.6136,43.3898 70.7254,49.8983" stroke="#7cff79" stroke-width="2" /><polyline fill="none" points="49.8983,56.4068 51.6339,61.6136 62.4814,68.122" stroke="#ff9400" stroke-width="2" /><polyline fill="none" points="36.0136,78.9695 39.9186,82.0068" stroke="#7f0000" stroke-width="2" /></svg>