<?xml version="1.0" encoding="utf-8" ?>
<svg baseProfile="tiny" height="128" version="1.2" viewBox="0,0,128,128" width="128" xmlns="http://www.w3.org/2000/svg" xmlns:ev="http://www.w3.org/2001/xml-events" xmlns:xlink="http://www.w3.org/1999/xlink"><defs /><polyline fill="none" points="42.9559,23.4305 19.9593,38.6169 13.0169,46.861 8.678,65.9525 9.5458,87.6475 20.8271,104.5695 35.5797,114.9831 53.3695,119.322 78.1017,119.322 92.8542,110.6441 98.061,104.5695 102.8339,91.1186 103.7017,55.9729 101.9661,45.5593 93.722,34.7119 74.1966,15.6203 61.1797,10.4136 46.861,8.678 36.4475,12.1492 31.6746,17.3559 29.0712,28.2034" stroke="#00007f" stroke-width="2" /><polyline fill="none" points="85.0441,30.8068 74.6305,30.8068 72.8949,35.1458 68.5559,37.3153 65.0847,41.2203 56.8407,63.3492 57.7085,86.3458 68.5559,113.2475" stroke="#7cff79" stroke-width="2" /><polyline fill="none" points="28.2034,28.2034 32.5424,36.8814 35.1458,46.4271" stroke="#7f0000" stroke-width="2" /></svg>