<?xml version="1.0" encoding="utf-8" ?>
<svg baseProfile="tiny" height="128" version="1.2" viewBox="0,0,128,128" width="128" xmlns="http://www.w3.org/2000/svg" xmlns:ev="http://www.w3.org/2001/xml-events" xmlns:xlink="http://www.w3.org/1999/xlink"><defs /><polyline fill="none" points="47.4558,9.5782 34.8299,16.1088 22.2041,27.8639 12.1905,44.8435 8.7075,56.5986 8.7075,67.483 12.6259,80.5442 18.2857,90.1224 30.9116,100.1361 39.1837,103.1837 49.6327,104.4898 72.2721,103.619 85.7687,99.2653 104.4898,88.381 114.068,77.4966 117.9864,64.0 119.2925,48.7619 116.6803,37.0068 109.2789,23.5102 97.0884,14.8027 78.8027,10.0136 55.2925,8.7075 60.0816,18.7211 63.1293,29.6054 73.5782,90.5578" stroke="#00007f" stroke-width="2" /><polyline fill="none" points="30.4762,32.2177 32.6531,36.1361" stroke="#0028ff" stroke-width="2" /><polyline fill="none" points="35.2653,48.7619 39.619,68.3537 39.619,74.449 37.8776,83.5918 31.3469,95.7823" stroke="#00d4ff" stroke-width="2" /><polyline fill="none" points="96.2177,10.449 96.2177,11.7551" stroke="#7cff79" stroke-width="2" /><polyline fill="none" points="94.9116,22.6395 92.7347,24.8163 91.4286,31.7823" stroke="#ffe500" stroke-width="2" /><polyline fill="none" points="85.3333,53.1156 85.7687,59.2109 90.1224,71.8367 95.3469,80.1088 104.0544,87.0748" stroke="#ff4600" stroke-width="2" /><polyline fill="none" points="82.7211,57.4694 82.2857,50.068 89.6871,28.2993" stroke="#7f0000" stroke-width="2" /></svg>