<?xml version="1.0" encoding="utf-8" ?>
<svg baseProfile="tiny" height="128" version="1.2" viewBox="0,0,128,128" width="128" xmlns="http://www.w3.org/2000/svg" xmlns:ev="http://www.w3.org/2001/xml-events" xmlns:xlink="http://www.w3.org/1999/xlink"><defs /><polyline fill="none" points="86.2041,15.6735 80.1088,11.7551 69.2245,8.7075 53.551,10.0136 35.2653,15.2381 25.6871,20.898 14.8027,32.6531 8.7075,47.8912 9.1429,55.7279 11.7551,63.5646 22.2041,77.0612 30.0408,82.7211 38.7483,86.2041 47.0204,87.9456 62.6939,87.0748 79.2381,84.0272 89.2517,80.9796 98.3946,77.0612 105.7959,71.4014 111.8912,66.1769 117.551,57.9048 119.2925,50.5034 119.2925,40.0544 118.4218,35.7007 112.3265,25.6871 104.4898,18.7211 96.6531,14.8027 88.381,12.6259 72.2721,12.1905" stroke="#00007f" stroke-width="2" /><polyline fill="none" points="41.7959,16.1088 46.1497,32.2177 47.0204,53.551 45.7143,60.9524 40.0544,71.8367 28.2993,87.0748" stroke="#7cff79" stroke-width="2" /><polyline fill="none" points="64.4354,13.932 67.0476,40.4898 69.2245,47.8912 76.6259,61.8231 84.898,72.7075 94.0408,77.932 100.5714,79.2381" stroke="#7f0000" stroke-width="2" /></svg>