<?xml version="1.0" encoding="utf-8" ?>
<svg baseProfile="tiny" height="128" version="1.2" viewBox="0,0,128,128" width="128" xmlns="http://www.w3.org/2000/svg" xmlns:ev="http://www.w3.org/2001/xml-events" xmlns:xlink="http://www.w3.org/1999/xlink"><defs /><polyline fill="none" points="41.6542,8.678 29.5051,9.1119 19.0915,14.3186 12.5831,20.8271 9.5458,30.8068 8.678,62.0475 11.2814,71.1593 19.9593,82.0068 34.7119,93.2881 58.5763,103.2678 77.2339,103.7017 91.1186,99.7966 106.3051,91.5525 114.5492,84.6102 117.5864,77.6678 119.322,65.0847 118.8881,45.9932 109.3424,23.8644 101.5322,13.8847 95.8915,11.2814 71.1593,12.1492 52.5017,9.5458 42.522,9.5458" stroke="#00007f" stroke-width="2" /><polyline fill="none" points="47.7288,10.8475 47.2949,32.9763 42.9559,53.8034 33.8441,68.5559 21.6949,79.8373 23.8644,79.4034" stroke="#004cff" stroke-width="2" /><polyline fill="none" points="85.9119,11.7153 81.5729,19.0915 76.3661,34.7119 75.4983,54.2373 84.6102,78.1017 98.061,97.6271 94.1559,95.8915" stroke="#29ffcd" stroke-width="2" /><polyline fill="none" points="82.4407,87.6475 96.7593,82.4407 91.5525,81.139" stroke="#cdff29" stroke-width="2" /><polyline fill="none" points="73.7627,73.7627 85.0441,72.8949 84.1763,71.1593" stroke="#ff6700" stroke-width="2" /><polyline fill="none" points="66.8203,49.4644 83.3085,51.6339" stroke="#7f0000" stroke-width="2" /></svg>