<?xml version="1.0" encoding="utf-8" ?>
<svg baseProfile="tiny" height="128" version="1.2" viewBox="0,0,128,128" width="128" xmlns="http://www.w3.org/2000/svg" xmlns:ev="http://www.w3.org/2001/xml-events" xmlns:xlink="http://www.w3.org/1999/xlink"><defs /><polyline fill="none" points="39.9186,13.4508 32.5424,15.6203 26.9017,19.5254 20.3932,26.9017 14.7525,36.8814 10.4136,47.7288 8.678,58.1424 8.678,68.5559 10.8475,78.1017 15.1864,86.7797 22.1288,92.4203 38.1831,100.2305 57.7085,101.5322 68.5559,99.7966 88.9492,90.2508 98.4949,84.1763 112.3797,68.122 117.1525,60.3119 119.322,52.5017 118.4542,41.6542 114.9831,35.5797 105.0034,25.6 84.1763,12.1492 75.4983,9.9797 61.1797,8.678 54.2373,8.678 39.4847,13.0169" stroke="#00007f" stroke-width="2" /><polyline fill="none" points="14.3186,74.1966 31.6746,72.0271 47.7288,66.3864 68.122,55.539 82.4407,42.9559 101.5322,14.7525" stroke="#0000cc" stroke-width="2" /><polyline fill="none" points="18.2237,67.2542 22.1288,79.4034 24.7322,82.4407" stroke="#0008ff" stroke-width="2" /><polyline fill="none" points="32.5424,67.6881 37.3153,80.7051" stroke="#004cff" stroke-width="2" /><polyline fill="none" points="45.1254,61.1797 53.8034,72.461" stroke="#0090ff" stroke-width="2" /><polyline fill="none" points="54.6712,58.1424 61.1797,69.8576 64.6508,72.0271" stroke="#00d4ff" stroke-width="2" /><polyline fill="none" points="66.3864,52.0678 69.4237,60.3119 72.8949,62.4814" stroke="#29ffcd" stroke-width="2" /><polyline fill="none" points="69.4237,47.7288 76.8,56.8407" stroke="#5fff96" stroke-width="2" /><polyline fill="none" points="78.5356,41.2203 85.9119,49.8983" stroke="#96ff5f" stroke-width="2" /><polyline fill="none" points="83.7424,31.6746 91.9864,38.1831" stroke="#cdff29" stroke-width="2" /><polyline fill="none" points="88.9492,25.1661 98.061,31.2407" stroke="#ffe500" stroke-width="2" /><polyline fill="none" points="91.9864,16.922 101.0983,25.1661" stroke="#ffa600" stroke-width="2" /><polyline fill="none" points="23.4305,26.4678 35.1458,26.0339 49.4644,29.5051 65.0847,39.4847 75.4983,48.5966 84.6102,60.7458 94.1559,78.9695 95.8915,85.478" stroke="#ff6700" stroke-width="2" /><polyline fill="none" points="99.7966,74.6305 89.3831,82.0068" stroke="#ff2800" stroke-width="2" /><polyline fill="none" points="95.8915,67.2542 84.1763,76.3661" stroke="#cc0000" stroke-width="2" /><polyline fill="none" points="91.9864,61.6136 85.0441,67.2542" stroke="#7f0000" stroke-width="2" /></svg>