<?xml version="1.0" encoding="utf-8" ?>
<svg baseProfile="tiny" height="128" version="1.2" viewBox="0,0,128,128" width="128" xmlns="http://www.w3.org/2000/svg" xmlns:ev="http://www.w3.org/2001/xml-events" xmlns:xlink="http://www.w3.org/1999/xlink"><defs /><polyline fill="none" points="65.7415,17.8503 51.3741,18.7211 44.8435,21.3333 37.8776,26.5578 20.4626,42.6667 14.3673,52.2449 10.0136,61.8231 8.7075,71.4014 9.5782,80.5442 15.6735,88.381 24.8163,95.7823 36.5714,100.5714 49.1973,104.0544 74.8844,105.7959 86.6395,101.8776 97.5238,95.7823 106.2313,88.381 115.8095,76.1905 119.2925,66.6122 119.2925,53.551 116.2449,47.0204 103.1837,29.1701 93.6054,19.5918 84.0272,13.4966 72.2721,9.5782 56.5986,8.7075 49.6327,8.7075 42.2313,12.6259" stroke="#00007f" stroke-width="2" /><polyline fill="none" points="49.1973,18.7211 54.4218,20.4626 56.1633,27.4286 58.7755,46.585 58.7755,67.9184 55.2925,83.5918 48.3265,100.5714 47.8912,105.3605" stroke="#0028ff" stroke-width="2" /><polyline fill="none" points="43.102,41.7959 72.2721,37.8776" stroke="#00d4ff" stroke-width="2" /><polyline fill="none" points="43.102,67.9184 64.4354,67.0476" stroke="#7cff79" stroke-width="2" /><polyline fill="none" points="33.0884,90.5578 68.7891,92.2993" stroke="#ffe500" stroke-width="2" /><polyline fill="none" points="90.1224,26.5578 89.6871,32.2177 81.8503,52.2449 79.6735,66.6122 80.1088,81.8503 86.6395,95.3469" stroke="#ff4600" stroke-width="2" /><polyline fill="none" points="77.0612,53.551 77.0612,53.551" stroke="#7f0000" stroke-width="2" /></svg>