<?xml version="1.0" encoding="utf-8" ?>
<svg baseProfile="tiny" height="128" version="1.2" viewBox="0,0,128,128" width="128" xmlns="http://www.w3.org/2000/svg" xmlns:ev="http://www.w3.org/2001/xml-events" xmlns:xlink="http://www.w3.org/1999/xlink"><defs /><polyline fill="none" points="67.0476,14.8027 65.7415,10.449 61.8231,8.7075 50.068,9.1429 38.7483,12.6259 28.2993,20.0272 20.898,29.1701 13.4966,43.5374 9.5782,58.3401 8.7075,72.7075 9.5782,83.5918 11.7551,88.8163 19.1565,99.7007 30.4762,109.2789 48.3265,117.551 65.7415,119.2925 73.1429,118.4218 84.4626,114.5034 94.9116,108.8435 104.0544,100.5714 115.8095,83.1565 118.8571,67.483 118.8571,58.3401 113.1973,41.7959 109.7143,36.1361 91.8639,20.4626 78.8027,15.2381 68.3537,13.0612 54.4218,13.4966 49.6327,15.2381" stroke="#00007f" stroke-width="2" /><polyline fill="none" points="30.9116,29.1701 35.2653,33.9592 41.3605,49.6327 42.2313,76.1905 36.1361,104.0544 42.6667,104.4898" stroke="#7cff79" stroke-width="2" /><polyline fill="none" points="93.6054,26.5578 90.1224,30.9116 88.381,35.2653 86.6395,46.585 86.6395,65.3061 90.5578,88.8163 100.5714,107.9728" stroke="#7f0000" stroke-width="2" /></svg>