<?xml version="1.0" encoding="utf-8" ?>
<svg baseProfile="tiny" height="128" version="1.2" viewBox="0,0,128,128" width="128" xmlns="http://www.w3.org/2000/svg" xmlns:ev="http://www.w3.org/2001/xml-events" xmlns:xlink="http://www.w3.org/1999/xlink"><defs /><polyline fill="none" points="87.6475,15.1864 82.0068,13.0169 71.5932,10.8475 51.6339,12.1492 45.1254,14.7525 32.9763,23.8644 22.5627,34.7119 17.7898,41.6542 9.5458,59.878 8.678,66.3864 9.5458,83.7424 16.922,97.6271 23.4305,106.3051 32.1085,113.6814 41.6542,117.5864 52.9356,117.1525 59.0102,115.4169 65.9525,110.6441 83.3085,92.4203 91.1186,78.9695 100.2305,58.5763 102.8339,47.7288 103.2678,33.8441 99.7966,21.6949 94.1559,10.8475 95.4576,8.678" stroke="#00007f" stroke-width="2" /><polyline fill="none" points="53.3695,12.5831 51.6339,14.7525 52.0678,55.539 45.1254,100.6644 42.0881,108.9085 36.4475,113.6814 19.5254,119.322 19.0915,117.1525" stroke="#0000fe" stroke-width="2" /><polyline fill="none" points="78.9695,12.5831 72.0271,62.0475 71.5932,84.6102 72.461,89.3831 77.2339,95.4576 79.8373,97.6271 89.3831,98.4949" stroke="#0060ff" stroke-width="2" /><polyline fill="none" points="44.2576,29.5051 54.2373,30.8068" stroke="#00d4ff" stroke-width="2" /><polyline fill="none" points="44.2576,56.8407 49.8983,57.7085" stroke="#4cffaa" stroke-width="2" /><polyline fill="none" points="49.0305,83.3085 59.0102,86.3458" stroke="#aaff4c" stroke-width="2" /><polyline fill="none" points="38.6169,103.2678 47.7288,108.9085" stroke="#ffe500" stroke-width="2" /><polyline fill="none" points="68.122,38.1831 85.0441,39.0508 92.4203,36.8814" stroke="#ff7a00" stroke-width="2" /><polyline fill="none" points="65.5186,68.5559 73.7627,67.6881" stroke="#fe1200" stroke-width="2" /><polyline fill="none" points="74.6305,94.1559 86.3458,89.3831" stroke="#7f0000" stroke-width="2" /></svg>