<?xml version="1.0" encoding="utf-8" ?>
<svg baseProfile="tiny" height="128" version="1.2" viewBox="0,0,128,128" width="128" xmlns="http://www.w3.org/2000/svg" xmlns:ev="http://www.w3.org/2001/xml-events" xmlns:xlink="http://www.w3.org/1999/xlink"><defs /><polyline fill="none" points="59.4441,8.678 48.1627,25.1661 38.1831,42.9559 25.6,68.122 9.9797,105.4373 8.678,112.8136 9.9797,119.322 19.5254,118.4542 25.1661,115.4169 33.4102,108.0407 55.1051,78.9695 64.6508,59.878 75.9322,32.1085 76.8,20.8271 69.4237,13.8847 59.4441,12.1492 52.5017,16.0542" stroke="#00007f" stroke-width="2" /><polyline fill="none" points="16.4881,96.7593 26.0339,101.0983 33.4102,108.0407" stroke="#00d4ff" stroke-width="2" /><polyline fill="none" points="20.8271,78.5356 36.8814,92.4203 44.6915,97.1932" stroke="#ffe500" stroke-width="2" /><polyline fill="none" points="101.9661,15.6203 98.4949,16.4881 93.722,21.261 88.5153,29.5051 86.3458,36.8814 86.7797,41.2203 91.1186,42.9559 101.5322,42.522 106.739,41.2203 112.8136,35.5797 114.9831,31.2407 115.4169,21.6949 114.1153,17.7898 106.739,12.5831 98.9288,12.1492 95.0237,17.3559" stroke="#7f0000" stroke-width="2" /></svg>