<?xml version="1.0" encoding="utf-8" ?>
<svg baseProfile="tiny" height="128" version="1.2" viewBox="0,0,128,128" width="128" xmlns="http://www.w3.org/2000/svg" xmlns:ev="http://www.w3.org/2001/xml-events" xmlns:xlink="http://www.w3.org/1999/xlink"><defs /><polyline fill="none" points="101.9661,22.5627 83.7424,11.2814 70.7254,8.678 49.4644,9.5458 34.7119,17.7898 13.8847,45.5593 9.9797,53.8034 8.678,70.2915 14.7525,85.478 29.939,107.1729 34.278,110.2102 47.7288,112.8136 65.0847,112.8136 76.3661,110.2102 84.6102,106.3051 93.2881,99.3627 104.1356,88.0814 112.8136,76.3661 119.322,60.7458 119.322,58.1424 112.8136,47.2949 105.4373,29.0712" stroke="#00007f" stroke-width="2" /><polyline fill="none" points="31.2407,23.8644 31.2407,35.1458 35.1458,63.7831 35.1458,103.7017 32.9763,110.2102" stroke="#7cff79" stroke-width="2" /><polyline fill="none" points="98.9288,16.0542 84.1763,47.2949 81.139,60.3119 81.139,69.8576 98.9288,99.3627 104.5695,104.5695" stroke="#7f0000" stroke-width="2" /></svg>