<?xml version="1.0" encoding="utf-8" ?>
<svg baseProfile="tiny" height="128" version="1.2" viewBox="0,0,128,128" width="128" xmlns="http://www.w3.org/2000/svg" xmlns:ev="http://www.w3.org/2001/xml-events" xmlns:xlink="http://www.w3.org/1999/xlink"><defs /><polyline fill="none" points="8.678,19.9593 18.6576,14.7525 31.2407,10.8475 65.9525,12.1492 81.139,16.4881 96.3254,24.7322 106.3051,33.4102 111.9458,41.2203 116.7186,53.3695 119.322,74.1966 119.322,77.6678 114.5492,83.7424 102.8339,90.6847 89.3831,95.0237 69.4237,98.061 61.6136,97.6271 42.522,91.9864 35.1458,88.0814 22.5627,78.1017 17.7898,70.7254 14.3186,60.3119 13.4508,45.1254 15.6203,35.5797 22.1288,21.6949" stroke="#00007f" stroke-width="2" /><polyline fill="none" points="22.1288,8.678 25.1661,11.2814 38.1831,31.6746 43.3898,51.6339 42.9559,64.6508 37.7492,78.9695 35.1458,83.7424 32.5424,84.6102" stroke="#0080ff" stroke-width="2" /><polyline fill="none" points="85.478,19.9593 82.4407,48.5966 83.3085,59.878 88.0814,78.9695 91.9864,88.5153 98.9288,100.2305 100.6644,100.6644" stroke="#7cff79" stroke-width="2" /><polyline fill="none" points="35.5797,27.3356 41.6542,25.6" stroke="#ff9400" stroke-width="2" /><polyline fill="none" points="41.6542,40.3525 47.7288,41.2203" stroke="#7f0000" stroke-width="2" /></svg>