<?xml version="1.0" encoding="utf-8" ?>
<svg baseProfile="tiny" height="128" version="1.2" viewBox="0,0,128,128" width="128" xmlns="http://www.w3.org/2000/svg" xmlns:ev="http://www.w3.org/2001/xml-events" xmlns:xlink="http://www.w3.org/1999/xlink"><defs /><polyline fill="none" points="8.678,39.9186 12.1492,35.5797 32.1085,21.6949 53.3695,12.1492 65.0847,8.678 78.5356,9.9797 88.5153,14.3186 102.4,25.1661 108.0407,32.5424" stroke="#00007f" stroke-width="2" /><polyline fill="none" points="119.322,48.1627 118.8881,66.8203 115.8508,72.0271 107.1729,81.5729 94.1559,90.2508 83.3085,93.722 70.7254,94.5898 61.6136,93.722 36.4475,85.478 24.2983,74.6305 13.0169,52.9356 9.9797,33.8441" stroke="#0080ff" stroke-width="2" /><polyline fill="none" points="106.3051,34.7119 112.8136,43.8237 118.0203,47.7288 119.322,51.2" stroke="#7cff79" stroke-width="2" /><polyline fill="none" points="89.3831,21.261 82.8746,21.261 81.139,22.9966 82.4407,30.8068 85.9119,36.8814 78.9695,46.861 70.2915,54.6712 67.6881,59.0102 79.4034,61.6136 92.4203,66.8203 99.3627,71.5932 99.7966,75.9322 93.2881,84.6102 70.7254,101.5322 70.7254,102.8339" stroke="#ff9400" stroke-width="2" /><polyline fill="none" points="53.8034,21.6949 39.9186,23.4305 30.3729,27.3356 49.0305,36.8814 52.9356,42.9559 55.1051,50.3322 52.9356,57.7085 49.0305,59.878 44.2576,70.7254 36.0136,81.139 35.5797,85.478 43.8237,94.5898" stroke="#7f0000" stroke-width="2" /></svg>