<?xml version="1.0" encoding="utf-8" ?>
<svg baseProfile="tiny" height="128" version="1.2" viewBox="0,0,128,128" width="128" xmlns="http://www.w3.org/2000/svg" xmlns:ev="http://www.w3.org/2001/xml-events" xmlns:xlink="http://www.w3.org/1999/xlink"><defs /><polyline fill="none" points="71.5932,10.4136 59.0102,8.678 47.2949,10.4136 40.3525,12.5831 29.939,19.0915 19.9593,29.939 12.5831,45.5593 9.9797,54.6712 8.678,69.8576 9.5458,78.5356 14.7525,92.8542 19.0915,99.7966 28.6373,110.2102 34.278,114.5492 44.6915,118.8881 51.6339,119.322 66.3864,118.0203 81.5729,114.5492 98.4949,103.2678 106.739,96.3254 111.9458,89.3831 116.2847,82.0068 118.8881,68.9898 115.4169,48.1627 107.6068,29.5051 94.5898,19.9593 71.1593,11.2814 63.3492,10.4136" stroke="#00007f" stroke-width="2" /><polyline fill="none" points="87.6475,19.0915 81.5729,37.7492 80.2712,51.6339 81.5729,69.8576 88.0814,85.478 96.3254,96.7593 102.8339,102.8339" stroke="#0010ff" stroke-width="2" /><polyline fill="none" points="23.8644,14.3186 40.7864,29.0712 43.8237,33.8441 49.8983,47.7288 52.5017,63.3492 52.9356,82.4407 50.3322,95.0237 42.522,109.7763 38.1831,114.5492 35.1458,115.8508" stroke="#00a4ff" stroke-width="2" /><polyline fill="none" points="23.8644,50.3322 54.2373,37.3153" stroke="#3fffb7" stroke-width="2" /><polyline fill="none" points="40.3525,72.8949 55.539,67.6881 66.8203,65.9525" stroke="#b7ff3f" stroke-width="2" /><polyline fill="none" points="39.4847,86.7797 68.122,89.3831" stroke="#ffb900" stroke-width="2" /><polyline fill="none" points="73.7627,37.7492 95.4576,36.8814" stroke="#ff3000" stroke-width="2" /><polyline fill="none" points="78.5356,74.1966 100.6644,65.5186" stroke="#7f0000" stroke-width="2" /></svg>