<?xml version="1.0" encoding="utf-8" ?>
<svg baseProfile="tiny" height="128" version="1.2" viewBox="0,0,128,128" width="128" xmlns="http://www.w3.org/2000/svg" xmlns:ev="http://www.w3.org/2001/xml-events" xmlns:xlink="http://www.w3.org/1999/xlink"><defs /><polyline fill="none" points="39.4847,8.678 25.6,20.3932 16.922,31.6746 12.5831,40.3525 9.9797,49.4644 8.678,59.878 9.1119,79.4034 13.8847,104.5695 16.922,111.5119 25.6,116.7186 36.0136,118.8881 53.3695,119.322 65.0847,116.7186 76.8,111.078 88.5153,87.6475 89.3831,49.4644 88.0814,33.8441 80.2712,15.6203 73.7627,13.4508 61.6136,13.0169 55.1051,9.5458 45.9932,9.1119 41.6542,10.8475" stroke="#00007f" stroke-width="2" /><polyline fill="none" points="17.7898,29.5051 18.6576,31.6746 24.2983,36.8814 26.4678,42.522 29.939,53.8034 30.3729,65.9525 28.6373,76.3661 25.1661,86.3458 18.2237,92.4203 13.8847,93.722" stroke="#7cff79" stroke-width="2" /><polyline fill="none" points="88.5153,93.2881 86.7797,93.722" stroke="#7f0000" stroke-width="2" /></svg>