<?xml version="1.0" encoding="utf-8" ?>
<svg baseProfile="tiny" height="128" version="1.2" viewBox="0,0,128,128" width="128" xmlns="http://www.w3.org/2000/svg" xmlns:ev="http://www.w3.org/2001/xml-events" xmlns:xlink="http://www.w3.org/1999/xlink"><defs /><polyline fill="none" points="60.7458,12.1492 54.6712,12.1492 31.6746,17.7898 26.9017,20.3932 16.922,26.9017 10.4136,35.1458 8.678,41.2203 8.678,60.7458 12.1492,68.9898 24.7322,90.2508 33.4102,98.9288 46.861,107.6068 75.0644,107.1729 85.478,102.4 102.8339,90.6847 111.9458,80.7051 117.5864,70.7254 119.322,49.4644 115.8508,38.1831 111.5119,29.939 98.061,19.0915 65.5186,14.7525 45.1254,8.678" stroke="#00007f" stroke-width="2" /><polyline fill="none" points="31.6746,9.5458 36.8814,13.0169 46.861,29.939 46.861,36.0136 49.4644,42.0881 50.3322,61.6136 49.4644,76.8 35.1458,97.1932" stroke="#7cff79" stroke-width="2" /><polyline fill="none" points="85.478,18.2237 82.8746,27.3356 77.6678,37.7492 76.8,47.2949 76.8,92.8542 81.139,98.061" stroke="#7f0000" stroke-width="2" /></svg>