<?xml version="1.0" encoding="utf-8" ?>
<svg baseProfile="tiny" height="128" version="1.2" viewBox="0,0,128,128" width="128" xmlns="http://www.w3.org/2000/svg" xmlns:ev="http://www.w3.org/2001/xml-events" xmlns:xlink="http://www.w3.org/1999/xlink"><defs /><polyline fill="none" points="47.2949,10.4136 73.7627,9.9797 91.5525,18.2237 100.6644,24.7322 110.6441,62.4814 110.6441,82.8746 106.3051,95.4576 102.8339,100.2305 95.4576,102.8339 75.0644,105.4373 45.5593,106.3051 38.6169,104.5695 25.1661,96.7593 13.4508,81.139 8.678,64.2169 8.678,50.7661 12.1492,40.3525 34.278,12.5831 41.6542,8.678 46.861,11.2814" stroke="#00007f" stroke-width="2" /><polyline fill="none" points="59.4441,13.4508 61.1797,51.2 67.6881,86.7797 67.6881,98.4949" stroke="#0080ff" stroke-width="2" /><polyline fill="none" points="60.3119,37.7492 64.2169,32.1085 73.3288,26.9017 75.9322,28.2034 76.8,36.4475 78.9695,41.6542 86.7797,47.2949 89.8169,47.7288 89.8169,45.5593 100.6644,51.6339 119.322,53.8034" stroke="#7cff79" stroke-width="2" /><polyline fill="none" points="68.9898,50.7661 69.8576,56.8407 78.1017,68.122 79.4034,79.8373 82.0068,81.5729 95.8915,81.5729 101.5322,86.3458 110.6441,89.3831 107.6068,89.3831" stroke="#ff9400" stroke-width="2" /><polyline fill="none" points="58.5763,63.3492 57.2746,65.5186 37.3153,69.8576 26.4678,76.3661 23.4305,80.2712 22.5627,85.0441 24.7322,86.7797 32.5424,86.7797 30.3729,88.9492 25.6,90.2508 19.9593,88.0814" stroke="#7f0000" stroke-width="2" /></svg>