<?xml version="1.0" encoding="utf-8" ?>
<svg baseProfile="tiny" height="128" version="1.2" viewBox="0,0,128,128" width="128" xmlns="http://www.w3.org/2000/svg" xmlns:ev="http://www.w3.org/2001/xml-events" xmlns:xlink="http://www.w3.org/1999/xlink"><defs /><polyline fill="none" points="68.122,15.1864 67.2542,9.9797 64.2169,8.678 60.7458,8.678 55.539,11.2814 36.0136,26.9017 23.4305,41.6542 13.8847,58.5763 10.4136,67.6881 8.678,85.0441 9.1119,90.6847 11.7153,95.4576 24.7322,102.8339 57.7085,109.7763 66.8203,110.6441 82.4407,110.2102 89.3831,108.0407 101.5322,97.6271 111.078,80.7051 114.5492,71.5932 116.2847,55.1051 114.5492,40.3525 111.9458,34.278 107.1729,29.0712 88.0814,15.6203 81.139,13.8847 67.2542,13.8847" stroke="#00007f" stroke-width="2" /><polyline fill="none" points="85.478,17.3559 79.8373,20.8271 76.8,32.5424 75.4983,81.139 77.2339,90.6847 80.7051,99.7966 84.6102,107.6068 94.5898,119.322" stroke="#7cff79" stroke-width="2" /><polyline fill="none" points="37.3153,18.2237 48.5966,29.5051 53.8034,38.1831 56.8407,50.7661 58.1424,68.9898 56.8407,86.7797 54.2373,95.4576 50.3322,103.7017 39.9186,118.4542" stroke="#7f0000" stroke-width="2" /></svg>