<?xml version="1.0" encoding="utf-8" ?>
<svg baseProfile="tiny" height="128" version="1.2" viewBox="0,0,128,128" width="128" xmlns="http://www.w3.org/2000/svg" xmlns:ev="http://www.w3.org/2001/xml-events" xmlns:xlink="http://www.w3.org/1999/xlink"><defs /><polyline fill="none" points="33.8441,24.2983 27.7695,26.9017 19.0915,34.278 12.5831,43.8237 9.5458,51.6339 8.678,60.3119 9.5458,69.4237 10.8475,75.0644 16.0542,87.2136 29.5051,103.7017 40.7864,111.5119 51.2,115.8508 61.6136,118.4542 68.9898,118.4542 88.5153,113.2475 101.5322,105.4373 107.1729,99.7966 113.6814,90.2508 118.4542,75.9322 119.322,65.0847 118.0203,50.7661 114.5492,40.7864 107.6068,29.939 97.6271,21.261 88.5153,16.4881 77.6678,13.0169 64.6508,11.7153 49.8983,13.0169 41.6542,15.1864 28.2034,22.9966 21.6949,29.5051" stroke="#00007f" stroke-width="2" /><polyline fill="none" points="16.922,43.8237 19.0915,45.5593" stroke="#0000f1" stroke-width="2" /><polyline fill="none" points="25.6,43.3898 29.0712,45.1254 28.6373,47.2949" stroke="#004cff" stroke-width="2" /><polyline fill="none" points="30.3729,48.5966 32.1085,49.4644 34.278,55.539 39.9186,61.1797" stroke="#00b0ff" stroke-width="2" /><polyline fill="none" points="44.2576,70.2915 45.9932,72.8949" stroke="#29ffcd" stroke-width="2" /><polyline fill="none" points="49.0305,85.0441 49.0305,107.6068" stroke="#7cff79" stroke-width="2" /><polyline fill="none" points="69.8576,8.678 68.9898,13.0169" stroke="#cdff29" stroke-width="2" /><polyline fill="none" points="63.7831,26.9017 65.9525,50.3322" stroke="#ffc400" stroke-width="2" /><polyline fill="none" points="76.8,62.0475 89.3831,70.7254 108.4746,77.6678 116.7186,78.9695" stroke="#ff6700" stroke-width="2" /><polyline fill="none" points="66.8203,15.6203 65.0847,25.1661 66.8203,40.3525 76.3661,58.5763 92.4203,73.7627 111.078,82.4407" stroke="#f10700" stroke-width="2" /><polyline fill="none" points="11.2814,41.6542 21.261,43.8237 30.3729,48.5966 36.4475,53.8034 44.6915,64.2169 47.2949,71.5932 49.8983,85.9119 49.4644,113.6814" stroke="#7f0000" stroke-width="2" /></svg>