<?xml version="1.0" encoding="utf-8" ?>
<svg baseProfile="tiny" height="128" version="1.2" viewBox="0,0,128,128" width="128" xmlns="http://www.w3.org/2000/svg" xmlns:ev="http://www.w3.org/2001/xml-events" xmlns:xlink="http://www.w3.org/1999/xlink"><defs /><polyline fill="none" points="110.6441,9.9797 105.0034,8.678 74.1966,8.678 47.2949,16.4881 36.0136,22.9966 25.1661,31.6746 20.8271,37.3153 12.1492,53.3695 8.678,75.4983 8.678,96.3254 15.1864,109.3424 25.1661,113.6814 33.8441,113.6814 47.2949,112.8136 60.7458,107.6068 88.5153,94.1559 102.8339,79.8373 119.322,30.3729 119.322,23.8644 114.1153,18.6576 107.6068,16.4881 108.4746,15.1864" stroke="#00007f" stroke-width="2" /><polyline fill="none" points="35.1458,27.3356 41.6542,48.1627 43.8237,61.1797 43.8237,79.8373 39.4847,95.4576 35.1458,102.8339 30.8068,114.5492 30.3729,109.3424" stroke="#0080ff" stroke-width="2" /><polyline fill="none" points="89.8169,14.3186 88.5153,20.3932 78.9695,43.8237 74.1966,68.122 74.1966,94.1559 75.4983,99.3627 80.7051,103.7017 82.0068,102.8339" stroke="#7cff79" stroke-width="2" /><polyline fill="none" points="28.2034,30.3729 34.7119,29.5051 43.8237,30.3729" stroke="#ff9400" stroke-width="2" /><polyline fill="none" points="39.4847,41.6542 39.4847,41.6542" stroke="#7f0000" stroke-width="2" /></svg>