<?xml version="1.0" encoding="utf-8" ?>
<svg baseProfile="tiny" height="128" version="1.2" viewBox="0,0,128,128" width="128" xmlns="http://www.w3.org/2000/svg" xmlns:ev="http://www.w3.org/2001/xml-events" xmlns:xlink="http://www.w3.org/1999/xlink"><defs /><polyline fill="none" points="86.3458,21.261 79.4034,16.0542 74.6305,14.7525 67.2542,13.4508 54.6712,14.3186 37.3153,21.6949 23.4305,32.9763 12.5831,51.6339 8.678,65.9525 9.5458,76.3661 13.0169,85.0441 21.261,96.3254 33.4102,105.4373 39.9186,108.9085 54.6712,112.8136 66.8203,113.2475 80.7051,110.6441 91.9864,104.5695 102.8339,95.4576 111.9458,83.3085 116.2847,73.3288 119.322,59.878 119.322,53.8034 114.9831,41.6542 108.4746,32.9763 92.4203,19.0915 80.7051,10.8475 75.0644,8.678" stroke="#00007f" stroke-width="2" /><polyline fill="none" points="33.4102,22.9966 48.1627,33.4102 53.3695,43.3898 55.9729,52.9356 55.1051,60.7458 50.7661,72.0271 39.9186,85.0441 38.1831,91.5525 42.9559,109.7763 45.9932,112.8136" stroke="#7cff79" stroke-width="2" /><polyline fill="none" points="85.9119,16.922 81.5729,19.5254 78.5356,23.4305 76.8,28.2034 75.4983,36.8814 78.5356,49.4644 96.7593,69.8576 99.7966,76.8 99.3627,89.8169 94.1559,102.4" stroke="#7f0000" stroke-width="2" /></svg>