<?xml version="1.0" encoding="utf-8" ?>
<svg baseProfile="tiny" height="128" version="1.2" viewBox="0,0,128,128" width="128" xmlns="http://www.w3.org/2000/svg" xmlns:ev="http://www.w3.org/2001/xml-events" xmlns:xlink="http://www.w3.org/1999/xlink"><defs /><polyline fill="none" points="59.878,8.678 47.2949,25.1661 14.7525,73.3288 14.3186,75.4983 21.261,82.0068 26.0339,86.3458 35.5797,90.2508 77.6678,95.4576 111.078,77.6678 114.1153,74.1966 118.0203,64.2169 119.322,58.5763 118.4542,46.861 110.6441,29.939 102.4,18.6576 75.0644,10.4136 60.7458,9.1119 49.4644,13.8847 34.7119,18.2237 23.4305,23.4305 16.4881,27.7695 10.8475,36.8814 8.678,45.1254 9.9797,51.6339 22.1288,63.7831 35.1458,72.461" stroke="#00007f" stroke-width="2" /><polyline fill="none" points="93.722,15.6203 93.2881,19.9593 84.1763,40.3525 82.0068,49.0305" stroke="#004cff" stroke-width="2" /><polyline fill="none" points="55.539,12.1492 53.3695,20.3932" stroke="#29ffcd" stroke-width="2" /><polyline fill="none" points="51.6339,25.6 50.3322,29.939" stroke="#cdff29" stroke-width="2" /><polyline fill="none" points="49.0305,36.0136 48.1627,39.0508" stroke="#ff6700" stroke-width="2" /><polyline fill="none" points="42.0881,50.3322 42.0881,55.1051" stroke="#7f0000" stroke-width="2" /></svg>