<?xml version="1.0" encoding="utf-8" ?>
<svg baseProfile="tiny" height="128" version="1.2" viewBox="0,0,128,128" width="128" xmlns="http://www.w3.org/2000/svg" xmlns:ev="http://www.w3.org/2001/xml-events" xmlns:xlink="http://www.w3.org/1999/xlink"><defs /><polyline fill="none" points="79.4034,9.5458 61.6136,8.678 54.2373,12.1492 40.7864,20.3932 21.261,37.7492 11.7153,50.7661 9.5458,56.8407 8.678,91.9864 12.1492,99.7966 17.7898,104.5695 35.5797,115.8508 43.8237,119.322 83.3085,119.322 92.4203,117.1525 101.0983,112.8136 109.3424,105.8712 114.1153,98.061 114.5492,36.0136 110.6441,28.2034 96.7593,14.3186 88.9492,9.9797 69.8576,9.9797" stroke="#00007f" stroke-width="2" /><polyline fill="none" points="68.9898,12.1492 61.1797,13.4508 45.9932,22.9966 40.7864,27.7695 36.4475,35.1458 32.9763,45.5593 32.9763,91.5525 39.4847,104.1356 43.8237,108.9085 54.2373,115.8508 59.0102,116.7186" stroke="#00d4ff" stroke-width="2" /><polyline fill="none" points="70.7254,12.1492 75.9322,12.1492 87.6475,23.8644 100.6644,41.6542 105.8712,54.6712 105.0034,95.4576 92.4203,112.8136 89.3831,113.6814" stroke="#ffe500" stroke-width="2" /><polyline fill="none" points="23.8644,39.0508 29.0712,39.9186" stroke="#7f0000" stroke-width="2" /></svg>