<?xml version="1.0" encoding="utf-8" ?>
<svg baseProfile="tiny" height="128" version="1.2" viewBox="0,0,128,128" width="128" xmlns="http://www.w3.org/2000/svg" xmlns:ev="http://www.w3.org/2001/xml-events" xmlns:xlink="http://www.w3.org/1999/xlink"><defs /><polyline fill="none" points="38.6169,25.1661 31.2407,25.6 25.6,29.0712 15.6203,50.7661 8.678,70.2915 8.678,82.0068 12.1492,93.722 19.0915,103.2678 27.7695,111.078 36.8814,116.2847 44.6915,118.4542 63.3492,119.322 75.0644,118.4542 85.478,114.9831 96.3254,109.3424 103.7017,101.5322 108.9085,92.8542 111.9458,85.478 115.8508,65.9525 117.1525,30.8068 115.4169,22.1288 110.6441,17.7898 107.1729,16.0542 85.9119,10.8475 68.5559,8.678 52.5017,8.678 44.6915,10.8475 36.0136,20.3932" stroke="#00007f" stroke-width="2" /><polyline fill="none" points="37.7492,31.6746 42.522,52.0678" stroke="#0028ff" stroke-width="2" /><polyline fill="none" points="35.1458,82.8746 25.6,101.0983" stroke="#00d4ff" stroke-width="2" /><polyline fill="none" points="49.4644,64.2169 45.1254,67.2542 42.0881,76.3661" stroke="#7cff79" stroke-width="2" /><polyline fill="none" points="93.722,18.2237 90.2508,25.1661 90.2508,39.0508 91.5525,43.3898" stroke="#ffe500" stroke-width="2" /><polyline fill="none" points="90.6847,56.8407 91.5525,70.2915 95.0237,78.1017" stroke="#ff4600" stroke-width="2" /><polyline fill="none" points="84.6102,91.9864 97.6271,107.1729" stroke="#7f0000" stroke-width="2" /></svg>