<?xml version="1.0" encoding="utf-8" ?>
<svg baseProfile="tiny" height="128" version="1.2" viewBox="0,0,128,128" width="128" xmlns="http://www.w3.org/2000/svg" xmlns:ev="http://www.w3.org/2001/xml-events" xmlns:xlink="http://www.w3.org/1999/xlink"><defs /><polyline fill="none" points="27.3356,9.5458 19.9593,8.678 15.6203,9.9797 11.7153,14.3186 8.678,32.5424 9.5458,46.4271 12.5831,53.8034 25.1661,69.4237 34.7119,76.3661 44.2576,80.7051 56.4068,83.7424 68.9898,83.7424 81.139,82.0068 91.9864,77.2339 108.4746,63.3492 114.1153,55.9729 119.322,42.522 119.322,36.4475 118.4542,31.6746 112.8136,23.8644 97.6271,17.3559 91.1186,16.0542 42.522,16.0542 38.6169,13.4508" stroke="#00007f" stroke-width="2" /><polyline fill="none" points="59.878,13.8847 61.6136,18.2237 62.0475,32.1085 54.6712,43.8237 28.6373,67.6881 28.6373,70.2915" stroke="#00d4ff" stroke-width="2" /><polyline fill="none" points="62.9153,11.2814 66.3864,16.922 67.6881,38.1831 69.4237,49.4644 72.461,57.2746 75.4983,60.3119 100.2305,71.1593 105.0034,70.7254 114.1153,62.9153" stroke="#ffe500" stroke-width="2" /><polyline fill="none" points="52.9356,37.7492 55.9729,41.2203 76.8,56.4068 80.2712,60.7458 80.7051,82.8746" stroke="#7f0000" stroke-width="2" /></svg>