<?xml version="1.0" encoding="utf-8" ?>
<svg baseProfile="tiny" height="128" version="1.2" viewBox="0,0,128,128" width="128" xmlns="http://www.w3.org/2000/svg" xmlns:ev="http://www.w3.org/2001/xml-events" xmlns:xlink="http://www.w3.org/1999/xlink"><defs /><polyline fill="none" points="53.551,19.1565 11.7551,16.1088 9.1429,20.898 8.7075,26.1224 9.5782,55.2925 11.7551,65.3061 16.5442,70.0952 43.5374,71.4014 56.1633,65.7415 61.3878,57.034 63.5646,43.9728 63.5646,30.4762 60.517,13.932 58.3401,10.449 52.2449,8.7075" stroke="#00007f" stroke-width="2" /><polyline fill="none" points="21.3333,16.1088 29.1701,20.0272 31.7823,28.2993 30.4762,60.0816 27.4286,67.0476 25.2517,70.5306 24.8163,69.2245" stroke="#00d4ff" stroke-width="2" /><polyline fill="none" points="44.4082,17.415 38.7483,28.2993 37.0068,35.7007 37.0068,66.6122 37.8776,69.6599 39.619,69.2245" stroke="#ffe500" stroke-width="2" /><polyline fill="none" points="118.8571,50.068 105.7959,50.5034 101.0068,52.6803 99.7007,55.7279 99.2653,63.5646 100.1361,64.8707 104.4898,65.7415 111.4558,64.8707 117.551,60.0816 119.2925,52.2449 113.1973,49.6327 98.8299,49.6327 99.2653,52.2449 104.9252,57.034 106.6667,65.7415" stroke="#7f0000" stroke-width="2" /></svg>