<?xml version="1.0" encoding="utf-8" ?>
<svg baseProfile="tiny" height="128" version="1.2" viewBox="0,0,128,128" width="128" xmlns="http://www.w3.org/2000/svg" xmlns:ev="http://www.w3.org/2001/xml-events" xmlns:xlink="http://www.w3.org/1999/xlink"><defs /><polyline fill="none" points="63.5646,27.8639 62.2585,24.8163 55.2925,20.0272 50.9388,18.7211 40.4898,18.7211 25.6871,24.8163 13.4966,37.0068 8.7075,46.1497 8.7075,65.3061 16.1088,76.6259 26.1224,85.3333 35.7007,89.2517 53.1156,91.8639 73.1429,91.8639 84.898,89.2517 103.1837,79.2381 109.7143,73.1429 115.3741,60.9524 119.2925,42.6667 119.2925,29.1701 117.1156,21.7687 111.8912,14.3673 94.4762,8.7075 81.8503,8.7075 69.6599,11.7551" stroke="#00007f" stroke-width="2" /><polyline fill="none" points="37.4422,77.4966 37.4422,74.449 43.5374,58.7755 52.2449,45.2789 60.517,36.5714 81.8503,19.1565 95.7823,19.1565" stroke="#0000fe" stroke-width="2" /><polyline fill="none" points="47.4558,38.3129 47.4558,38.3129" stroke="#0060ff" stroke-width="2" /><polyline fill="none" points="41.7959,21.7687 41.3605,20.898" stroke="#00d4ff" stroke-width="2" /><polyline fill="none" points="41.7959,21.7687 45.2789,30.4762 55.2925,44.8435 56.1633,47.8912" stroke="#4cffaa" stroke-width="2" /><polyline fill="none" points="59.2109,20.4626 72.7075,37.4422" stroke="#aaff4c" stroke-width="2" /><polyline fill="none" points="60.9524,40.4898 60.517,40.4898" stroke="#ffe500" stroke-width="2" /><polyline fill="none" points="60.9524,40.4898 60.9524,40.4898" stroke="#ff7a00" stroke-width="2" /><polyline fill="none" points="53.1156,40.4898 52.2449,43.9728 54.8571,47.0204 73.5782,61.3878 80.1088,68.3537 87.0748,77.4966 88.8163,83.1565" stroke="#fe1200" stroke-width="2" /><polyline fill="none" points="69.2245,34.8299 91.8639,62.6939 103.619,83.1565" stroke="#7f0000" stroke-width="2" /></svg>