<?xml version="1.0" encoding="utf-8" ?>
<svg baseProfile="tiny" height="128" version="1.2" viewBox="0,0,128,128" width="128" xmlns="http://www.w3.org/2000/svg" xmlns:ev="http://www.w3.org/2001/xml-events" xmlns:xlink="http://www.w3.org/1999/xlink"><defs /><polyline fill="none" points="78.5356,10.8475 77.6678,8.678 60.3119,8.678 41.2203,12.1492 23.4305,18.6576 17.7898,23.4305 12.1492,32.5424 8.678,45.9932 9.1119,56.8407 16.922,84.6102 23.8644,98.061 29.5051,105.4373 35.1458,110.2102 44.6915,114.5492 75.4983,115.4169 87.6475,113.2475 95.0237,109.7763 103.2678,104.5695 108.0407,96.7593 115.4169,76.3661 118.4542,60.7458 119.322,36.0136 116.7186,29.0712 104.1356,21.6949 84.6102,12.1492 71.1593,11.7153" stroke="#00007f" stroke-width="2" /><polyline fill="none" points="91.1186,14.3186 83.3085,24.2983 82.0068,30.8068 82.0068,46.4271 85.9119,83.3085 88.9492,88.0814 94.5898,91.5525 108.9085,94.1559 112.3797,93.2881" stroke="#7cff79" stroke-width="2" /><polyline fill="none" points="15.6203,29.0712 15.6203,29.0712" stroke="#7f0000" stroke-width="2" /></svg>