<?xml version="1.0" encoding="utf-8" ?>
<svg baseProfile="tiny" height="128" version="1.2" viewBox="0,0,128,128" width="128" xmlns="http://www.w3.org/2000/svg" xmlns:ev="http://www.w3.org/2001/xml-events" xmlns:xlink="http://www.w3.org/1999/xlink"><defs /><polyline fill="none" points="81.139,14.7525 55.539,9.1119 44.2576,9.9797 32.1085,14.3186 19.0915,25.1661 11.2814,40.3525 8.678,51.6339 8.678,59.4441 11.7153,74.6305 25.1661,95.4576 34.7119,104.1356 46.4271,111.078 62.0475,116.7186 74.6305,118.4542 82.8746,118.0203 96.7593,113.2475 108.0407,103.2678 112.8136,96.3254 118.0203,82.8746 119.322,71.1593 118.8881,59.4441 114.5492,45.1254 108.0407,32.1085 96.3254,19.0915 83.3085,10.4136 75.0644,8.678" stroke="#00007f" stroke-width="2" /><polyline fill="none" points="81.5729,11.2814 74.6305,35.1458 73.3288,46.861 74.1966,59.4441 82.8746,91.1186 90.6847,105.8712 96.3254,110.2102" stroke="#0010ff" stroke-width="2" /><polyline fill="none" points="35.5797,16.0542 43.3898,30.3729 45.5593,38.6169 46.4271,48.1627 41.2203,80.2712 36.8814,95.0237 32.9763,103.7017" stroke="#00a4ff" stroke-width="2" /><polyline fill="none" points="32.9763,29.939 50.3322,27.3356" stroke="#3fffb7" stroke-width="2" /><polyline fill="none" points="33.8441,53.8034 51.2,55.539" stroke="#b7ff3f" stroke-width="2" /><polyline fill="none" points="35.5797,72.461 49.4644,80.2712" stroke="#ffb900" stroke-width="2" /><polyline fill="none" points="35.1458,87.6475 43.8237,94.1559" stroke="#ff3000" stroke-width="2" /><polyline fill="none" points="72.0271,34.7119 85.9119,38.1831" stroke="#7f0000" stroke-width="2" /></svg>