<?xml version="1.0" encoding="utf-8" ?>
<svg baseProfile="tiny" height="128" version="1.2" viewBox="0,0,128,128" width="128" xmlns="http://www.w3.org/2000/svg" xmlns:ev="http://www.w3.org/2001/xml-events" xmlns:xlink="http://www.w3.org/1999/xlink"><defs /><polyline fill="none" points="84.0272,13.4966 71.4014,15.6735 36.5714,27.4286 26.1224,33.9592 16.9796,43.9728 10.8844,56.1633 8.7075,64.4354 9.5782,79.6735 16.9796,93.6054 26.9932,104.0544 44.8435,113.6327 64.8707,117.551 80.9796,114.068 90.5578,105.3605 103.1837,72.2721 106.2313,57.9048 107.102,46.1497 104.9252,38.3129 101.0068,31.7823 85.3333,14.8027" stroke="#00007f" stroke-width="2" /><polyline fill="none" points="38.3129,33.5238 36.1361,41.3605 34.8299,76.1905 39.1837,91.4286 44.8435,103.619 50.5034,119.2925 51.3741,118.8571" stroke="#7cff79" stroke-width="2" /><polyline fill="none" points="88.381,8.7075 83.1565,30.9116 79.6735,75.3197 80.5442,104.9252 83.1565,112.3265 86.2041,115.8095" stroke="#7f0000" stroke-width="2" /></svg>