<?xml version="1.0" encoding="utf-8" ?>
<svg baseProfile="tiny" height="128" version="1.2" viewBox="0,0,128,128" width="128" xmlns="http://www.w3.org/2000/svg" xmlns:ev="http://www.w3.org/2001/xml-events" xmlns:xlink="http://www.w3.org/1999/xlink"><defs /><polyline fill="none" points="9.1119,69.4237 8.678,58.1424 9.9797,50.3322 13.0169,42.522 18.6576,33.8441 25.1661,26.9017 33.8441,19.9593 42.0881,15.6203 58.1424,10.8475 68.5559,10.4136 75.9322,13.8847 82.4407,19.0915 98.9288,40.7864 106.3051,57.2746 107.1729,74.1966 104.5695,83.3085 100.2305,91.9864 90.6847,102.4 84.6102,106.3051 75.9322,109.3424 63.3492,111.9458 51.6339,111.9458 38.1831,105.4373 25.6,93.722 18.2237,82.4407 11.7153,68.122 9.9797,60.7458 10.4136,56.4068" stroke="#00007f" stroke-width="2" /><polyline fill="none" points="15.1864,30.3729 32.1085,39.9186 39.0508,49.4644 42.0881,57.2746 44.6915,70.7254 44.6915,85.9119 42.0881,97.1932 37.7492,107.1729" stroke="#7cff79" stroke-width="2" /><polyline fill="none" points="70.7254,8.678 66.8203,29.939 65.9525,45.9932 67.2542,53.3695 71.5932,65.0847 81.139,78.5356 88.9492,85.0441 104.1356,91.5525 119.322,91.9864" stroke="#7f0000" stroke-width="2" /></svg>