<?xml version="1.0" encoding="utf-8" ?>
<svg baseProfile="tiny" height="128" version="1.2" viewBox="0,0,128,128" width="128" xmlns="http://www.w3.org/2000/svg" xmlns:ev="http://www.w3.org/2001/xml-events" xmlns:xlink="http://www.w3.org/1999/xlink"><defs /><polyline fill="none" points="8.7075,39.619 16.9796,28.2993 26.1224,20.4626 31.7823,16.9796 49.6327,10.449 57.9048,8.7075 73.5782,10.0136 82.2857,14.3673 89.6871,21.7687 93.6054,26.9932 98.3946,38.3129 101.4422,59.6463 98.8299,80.9796 95.3469,93.6054 89.6871,104.9252 84.0272,112.3265 78.8027,116.2449 70.966,118.8571 64.0,119.2925 55.2925,116.2449 49.1973,112.3265 28.7347,86.6395 13.4966,57.4694 8.7075,39.619 9.5782,27.8639 11.7551,22.6395 13.4966,22.2041" stroke="#00007f" stroke-width="2" /><polyline fill="none" points="23.9456,12.1905 26.1224,18.7211 38.7483,39.619 41.3605,46.585 42.2313,62.2585 41.3605,80.1088 36.1361,106.2313" stroke="#0000ff" stroke-width="2" /><polyline fill="none" points="74.0136,10.0136 64.0,43.9728 64.0,58.7755 70.0952,75.3197 86.2041,99.7007" stroke="#0080ff" stroke-width="2" /><polyline fill="none" points="60.9524,17.415 80.1088,16.9796 77.0612,18.2857" stroke="#15ffe1" stroke-width="2" /><polyline fill="none" points="63.1293,38.3129 72.7075,36.5714" stroke="#7cff79" stroke-width="2" /><polyline fill="none" points="57.034,50.5034 63.1293,52.6803 70.0952,52.2449" stroke="#e4ff12" stroke-width="2" /><polyline fill="none" points="60.517,66.6122 73.5782,67.0476" stroke="#ff9400" stroke-width="2" /><polyline fill="none" points="68.3537,78.8027 75.7551,81.415" stroke="#ff1d00" stroke-width="2" /><polyline fill="none" points="78.3673,84.898 82.2857,85.3333" stroke="#7f0000" stroke-width="2" /></svg>