<?xml version="1.0" encoding="utf-8" ?>
<svg baseProfile="tiny" height="128" version="1.2" viewBox="0,0,128,128" width="128" xmlns="http://www.w3.org/2000/svg" xmlns:ev="http://www.w3.org/2001/xml-events" xmlns:xlink="http://www.w3.org/1999/xlink"><defs /><polyline fill="none" points="53.8034,12.5831 48.5966,10.8475 37.7492,13.8847 26.0339,19.5254 19.9593,24.7322 13.0169,35.5797 10.8475,41.6542 8.678,61.1797 11.7153,77.2339 18.6576,92.4203 23.8644,98.061 29.939,104.1356 38.1831,109.3424 45.9932,113.2475 59.878,117.1525 72.8949,117.1525 85.0441,114.1153 99.7966,105.4373 106.3051,99.3627 113.2475,88.0814 119.322,56.8407 119.322,45.9932 110.2102,29.939 98.4949,19.0915 90.2508,13.8847 80.2712,10.8475 62.0475,8.678 43.8237,11.7153" stroke="#00007f" stroke-width="2" /><polyline fill="none" points="50.7661,14.7525 45.9932,13.8847 40.7864,16.4881 29.939,25.6 26.9017,30.8068 22.9966,55.539 22.5627,72.8949 25.6,87.2136 30.8068,96.3254" stroke="#7cff79" stroke-width="2" /><polyline fill="none" points="80.2712,15.6203 70.2915,15.6203 57.7085,23.8644 49.8983,31.6746 40.7864,51.2 39.9186,60.3119 40.7864,80.7051 43.8237,91.9864 52.0678,112.3797" stroke="#7f0000" stroke-width="2" /></svg>