<?xml version="1.0" encoding="utf-8" ?>
<svg baseProfile="tiny" height="128" version="1.2" viewBox="0,0,128,128" width="128" xmlns="http://www.w3.org/2000/svg" xmlns:ev="http://www.w3.org/2001/xml-events" xmlns:xlink="http://www.w3.org/1999/xlink"><defs /><polyline fill="none" points="90.6847,10.4136 54.6712,8.678 42.0881,8.678 36.4475,10.4136 25.6,20.8271 21.261,27.3356 13.0169,42.522 8.678,59.4441 9.9797,69.4237 14.7525,78.9695 30.8068,90.6847 45.1254,95.8915 62.9153,99.7966 89.8169,101.5322 101.9661,98.061 113.2475,88.5153 117.1525,83.7424 119.322,75.9322 118.8881,48.1627 111.5119,39.9186 107.6068,30.3729 101.9661,21.261 96.3254,16.922 85.478,12.1492 81.139,12.5831" stroke="#00007f" stroke-width="2" /><polyline fill="none" points="41.2203,10.4136 45.9932,41.2203 49.4644,50.3322 49.4644,60.7458 45.5593,68.5559 38.1831,77.2339 25.1661,80.7051" stroke="#7cff79" stroke-width="2" /><polyline fill="none" points="75.9322,12.5831 72.0271,24.7322 71.1593,41.2203 73.7627,53.3695 75.9322,56.8407 88.9492,66.8203 95.0237,66.8203 100.2305,69.4237" stroke="#7f0000" stroke-width="2" /></svg>