<?xml version="1.0" encoding="utf-8" ?>
<svg baseProfile="tiny" height="128" version="1.2" viewBox="0,0,128,128" width="128" xmlns="http://www.w3.org/2000/svg" xmlns:ev="http://www.w3.org/2001/xml-events" xmlns:xlink="http://www.w3.org/1999/xlink"><defs /><polyline fill="none" points="64.0,15.6735 60.0816,12.1905 55.2925,10.8844 49.1973,10.8844 42.6667,12.6259 31.3469,18.7211 23.9456,25.2517 14.8027,37.0068 9.1429,50.9388 8.7075,75.7551 12.1905,84.898 18.2857,93.1701 25.6871,99.7007 39.1837,106.6667 49.6327,108.4082 70.0952,107.5374 80.5442,104.0544 93.6054,96.6531 104.4898,86.6395 111.4558,75.3197 117.1156,62.2585 119.2925,48.7619 118.8571,36.5714 111.8912,22.6395 103.1837,14.3673 90.1224,9.1429 69.6599,8.7075 59.2109,10.449" stroke="#00007f" stroke-width="2" /><polyline fill="none" points="35.7007,12.6259 40.9252,13.4966 47.8912,17.8503 55.2925,26.9932 59.6463,37.0068 60.0816,50.068 54.4218,57.9048 40.0544,66.6122 29.6054,76.6259 25.2517,87.9456 24.8163,94.9116 27.8639,96.6531" stroke="#7cff79" stroke-width="2" /><polyline fill="none" points="104.4898,15.6735 107.9728,23.0748 107.5374,33.5238 104.9252,37.8776 83.5918,58.7755 80.1088,64.0 77.4966,73.1429 77.4966,80.1088 78.8027,84.898 83.1565,90.9932 89.6871,95.3469" stroke="#7f0000" stroke-width="2" /></svg>