<?xml version="1.0" encoding="utf-8" ?>
<svg baseProfile="tiny" height="128" version="1.2" viewBox="0,0,128,128" width="128" xmlns="http://www.w3.org/2000/svg" xmlns:ev="http://www.w3.org/2001/xml-events" xmlns:xlink="http://www.w3.org/1999/xlink"><defs /><polyline fill="none" points="67.6881,36.0136 67.6881,36.0136" stroke="#00007f" stroke-width="2" /><polyline fill="none" points="72.8949,11.2814 58.1424,11.2814 36.4475,32.9763 25.6,68.122 16.0542,88.5153 8.678,96.7593 8.678,103.2678 19.5254,108.0407 42.0881,115.4169 55.539,116.7186 82.8746,116.7186 105.4373,99.3627 114.5492,85.478 117.5864,78.1017 119.322,63.3492 119.322,50.3322 109.3424,40.7864 97.1932,25.6 90.6847,21.6949 83.3085,13.8847 67.2542,8.678" stroke="#7cff79" stroke-width="2" /><polyline fill="none" points="38.6169,26.9017 46.4271,37.7492 57.2746,46.861 59.4441,50.3322 62.4814,63.7831 62.4814,82.0068 61.1797,85.478 42.0881,102.4 34.278,112.8136 29.5051,116.7186" stroke="#7f0000" stroke-width="2" /></svg>