<?xml version="1.0" encoding="utf-8" ?>
<svg baseProfile="tiny" height="128" version="1.2" viewBox="0,0,128,128" width="128" xmlns="http://www.w3.org/2000/svg" xmlns:ev="http://www.w3.org/2001/xml-events" xmlns:xlink="http://www.w3.org/1999/xlink"><defs /><polyline fill="none" points="41.6542,9.5458 11.2814,13.0169 9.1119,15.6203 8.678,19.9593 11.2814,33.4102 22.5627,51.2 26.4678,59.4441 29.5051,66.8203 30.8068,76.3661 41.2203,99.7966 50.3322,100.2305 52.0678,98.4949 52.0678,31.6746 50.3322,23.8644 42.0881,8.678" stroke="#00007f" stroke-width="2" /><polyline fill="none" points="9.9797,26.4678 19.5254,32.9763 26.9017,35.1458 43.3898,34.7119 45.5593,33.4102 49.4644,26.4678" stroke="#00d4ff" stroke-width="2" /><polyline fill="none" points="100.6644,49.0305 91.5525,52.5017 80.7051,59.4441 78.1017,63.3492 76.8,70.7254 82.0068,81.5729 101.9661,92.8542 107.6068,92.4203 116.7186,87.2136 118.8881,82.4407 119.322,68.9898 113.6814,48.1627 108.9085,40.3525 105.4373,37.7492 101.0983,35.5797 99.3627,37.7492" stroke="#ffe500" stroke-width="2" /><polyline fill="none" points="91.1186,56.4068 95.8915,63.7831 101.5322,76.3661" stroke="#7f0000" stroke-width="2" /></svg>