<?xml version="1.0" encoding="utf-8" ?>
<svg baseProfile="tiny" height="128" version="1.2" viewBox="0,0,128,128" width="128" xmlns="http://www.w3.org/2000/svg" xmlns:ev="http://www.w3.org/2001/xml-events" xmlns:xlink="http://www.w3.org/1999/xlink"><defs /><polyline fill="none" points="85.478,15.6203 72.0271,11.2814 59.0102,9.1119 46.861,8.678 40.3525,9.9797 29.5051,14.7525 20.3932,23.4305 12.1492,39.4847 9.1119,51.2 8.678,64.2169 9.9797,69.8576 15.1864,82.0068 23.4305,93.2881 33.8441,103.7017 45.1254,111.9458 58.1424,116.2847 65.0847,117.1525 78.5356,116.7186 85.9119,114.5492 97.6271,107.6068 107.6068,98.061 114.5492,85.9119 117.1525,78.5356 119.322,58.5763 118.4542,51.2 109.3424,31.6746 101.0983,21.6949 91.9864,15.1864 82.8746,12.5831" stroke="#00007f" stroke-width="2" /><polyline fill="none" points="44.2576,8.678 57.2746,35.5797 58.5763,57.2746 53.3695,74.6305 47.7288,87.2136 33.8441,108.4746" stroke="#7cff79" stroke-width="2" /><polyline fill="none" points="88.0814,19.0915 86.3458,20.8271 81.5729,36.8814 78.5356,61.6136 78.9695,77.6678 82.0068,88.0814 86.3458,96.7593 92.4203,105.0034 97.6271,109.3424 101.9661,111.078" stroke="#7f0000" stroke-width="2" /></svg>