<?xml version="1.0" encoding="utf-8" ?>
<svg baseProfile="tiny" height="128" version="1.2" viewBox="0,0,128,128" width="128" xmlns="http://www.w3.org/2000/svg" xmlns:ev="http://www.w3.org/2001/xml-events" xmlns:xlink="http://www.w3.org/1999/xlink"><defs /><polyline fill="none" points="99.7966,33.4102 86.7797,24.2983 49.0305,8.678 38.1831,8.678 24.7322,19.0915 16.4881,30.8068 11.2814,42.0881 8.678,54.2373 8.678,71.1593 16.4881,91.1186 21.261,96.7593 32.5424,103.7017 51.6339,107.1729 85.0441,108.9085 92.4203,107.6068 100.6644,101.0983 109.7763,90.2508 112.3797,85.0441 119.322,64.6508 119.322,55.1051 111.5119,47.2949 102.4,42.9559 96.3254,37.7492" stroke="#00007f" stroke-width="2" /><polyline fill="none" points="26.0339,26.9017 37.7492,52.5017 38.6169,64.2169 33.4102,81.5729 21.6949,94.5898" stroke="#7cff79" stroke-width="2" /><polyline fill="none" points="85.9119,33.4102 80.7051,53.3695 80.7051,64.2169 85.9119,78.9695 96.3254,91.9864" stroke="#7f0000" stroke-width="2" /></svg>