<?xml version="1.0" encoding="utf-8" ?>
<svg baseProfile="tiny" height="128" version="1.2" viewBox="0,0,128,128" width="128" xmlns="http://www.w3.org/2000/svg" xmlns:ev="http://www.w3.org/2001/xml-events" xmlns:xlink="http://www.w3.org/1999/xlink"><defs /><polyline fill="none" points="52.0678,40.3525 53.3695,37.3153 55.539,36.0136 66.3864,35.1458 68.5559,40.7864 68.9898,48.1627 66.3864,52.5017 63.3492,54.6712 55.539,55.1051 52.5017,52.0678 49.8983,45.1254 51.2,39.4847" stroke="#00007f" stroke-width="2" /><polyline fill="none" points="50.7661,41.2203 69.8576,41.6542" stroke="#0080ff" stroke-width="2" /><polyline fill="none" points="49.8983,44.6915 60.3119,45.5593 65.9525,44.2576" stroke="#7cff79" stroke-width="2" /><polyline fill="none" points="64.6508,35.5797 61.6136,38.1831 63.7831,43.3898 62.9153,46.861 52.0678,50.3322 52.5017,53.8034 55.1051,55.9729" stroke="#ff9400" stroke-width="2" /><polyline fill="none" points="32.9763,31.6746 33.4102,26.0339 36.0136,20.8271 48.1627,11.7153 67.6881,8.678 89.8169,9.1119 99.3627,11.2814 111.078,17.3559 114.9831,27.7695 110.2102,34.7119 100.2305,39.9186 83.3085,41.6542 62.9153,42.0881 34.278,37.3153 29.0712,35.1458 39.9186,31.2407 104.1356,19.9593 117.1525,19.9593 67.6881,39.4847 52.5017,43.8237 39.9186,49.0305 32.5424,54.2373 40.3525,55.1051 50.3322,54.6712 61.6136,49.8983 72.461,43.8237 77.6678,50.7661 91.9864,57.7085 119.322,61.1797 115.4169,57.2746 98.061,51.2 72.461,45.5593 44.2576,40.7864 8.678,39.4847 29.939,43.3898 97.6271,44.2576 81.5729,49.4644 68.9898,55.539 67.6881,59.4441 74.1966,66.3864" stroke="#7f0000" stroke-width="2" /></svg>