<?xml version="1.0" encoding="utf-8" ?>
<svg baseProfile="tiny" height="128" version="1.2" viewBox="0,0,128,128" width="128" xmlns="http://www.w3.org/2000/svg" xmlns:ev="http://www.w3.org/2001/xml-events" xmlns:xlink="http://www.w3.org/1999/xlink"><defs /><polyline fill="none" points="65.9525,13.4508 33.4102,8.678 17.7898,29.0712 15.1864,42.522 15.6203,52.9356 25.1661,69.4237 59.878,101.5322 67.6881,106.739 77.2339,109.3424 96.7593,110.2102 103.2678,107.6068 106.739,104.5695 109.3424,100.2305 111.078,90.6847 111.078,82.4407 100.6644,49.8983 96.7593,42.0881 91.5525,36.4475 73.7627,28.2034 62.9153,20.8271 60.7458,19.5254 59.878,15.6203 56.4068,13.8847" stroke="#00007f" stroke-width="2" /><polyline fill="none" points="61.6136,23.8644 63.7831,24.2983 71.5932,35.1458 76.3661,45.1254 80.7051,61.6136 82.4407,76.3661 82.4407,103.2678 80.7051,119.322" stroke="#7cff79" stroke-width="2" /><polyline fill="none" points="97.6271,74.1966 28.6373,52.9356 8.678,50.7661" stroke="#7f0000" stroke-width="2" /></svg>