<?xml version="1.0" encoding="utf-8" ?>
<svg baseProfile="tiny" height="128" version="1.2" viewBox="0,0,128,128" width="128" xmlns="http://www.w3.org/2000/svg" xmlns:ev="http://www.w3.org/2001/xml-events" xmlns:xlink="http://www.w3.org/1999/xlink"><defs /><polyline fill="none" points="49.8983,12.1492 37.3153,12.1492 29.0712,14.3186 18.6576,21.261 12.5831,27.3356 8.678,39.0508 8.678,50.3322 17.3559,72.0271 29.0712,89.8169 37.7492,96.7593 57.7085,103.2678 69.8576,105.0034 94.5898,104.5695 102.4,101.0983 108.9085,95.0237 112.8136,88.0814 117.1525,77.2339 118.8881,70.2915 119.322,49.0305 115.8508,39.4847 103.7017,25.1661 92.8542,18.6576 81.5729,14.7525 75.0644,13.8847 45.5593,13.0169" stroke="#00007f" stroke-width="2" /><polyline fill="none" points="41.6542,8.678 53.3695,18.6576 57.2746,25.6 59.0102,32.9763 59.0102,52.0678 56.4068,63.3492 50.7661,74.6305 37.3153,91.1186" stroke="#7cff79" stroke-width="2" /><polyline fill="none" points="85.478,16.0542 84.6102,49.8983 88.5153,61.6136 95.8915,74.6305 99.7966,78.1017 116.2847,86.7797" stroke="#7f0000" stroke-width="2" /></svg>