<?xml version="1.0" encoding="utf-8" ?>
<svg baseProfile="tiny" height="128" version="1.2" viewBox="0,0,128,128" width="128" xmlns="http://www.w3.org/2000/svg" xmlns:ev="http://www.w3.org/2001/xml-events" xmlns:xlink="http://www.w3.org/1999/xlink"><defs /><polyline fill="none" points="94.5898,26.4678 92.8542,19.5254 90.2508,16.0542 81.139,10.8475 74.6305,8.678 59.878,9.5458 48.1627,13.4508 35.5797,19.9593 23.4305,29.5051 13.8847,39.9186 9.5458,53.3695 8.678,60.3119 11.2814,74.1966 19.5254,86.7797 30.8068,96.3254 43.8237,104.1356 59.0102,108.4746 74.6305,109.7763 82.0068,109.3424 89.3831,106.739 101.0983,99.3627 110.2102,89.3831 117.1525,71.1593 119.322,55.9729 118.0203,37.3153" stroke="#00007f" stroke-width="2" /><polyline fill="none" points="100.6644,18.6576 96.7593,18.6576 92.8542,22.1288 84.6102,38.6169 83.3085,44.6915 83.3085,68.122 88.5153,81.139 95.8915,89.3831 101.5322,91.9864 106.739,91.1186" stroke="#0010ff" stroke-width="2" /><polyline fill="none" points="35.1458,13.4508 39.4847,15.6203 43.3898,29.939 43.3898,60.7458 40.7864,72.8949 34.7119,87.2136 29.939,94.1559 26.0339,96.7593 22.5627,94.1559" stroke="#00a4ff" stroke-width="2" /><polyline fill="none" points="30.8068,36.8814 58.1424,37.3153" stroke="#3fffb7" stroke-width="2" /><polyline fill="none" points="33.8441,49.4644 36.8814,52.5017 51.2,55.9729" stroke="#b7ff3f" stroke-width="2" /><polyline fill="none" points="32.1085,61.1797 31.2407,64.6508 39.4847,76.3661 39.4847,82.0068" stroke="#ffb900" stroke-width="2" /><polyline fill="none" points="69.4237,56.8407 80.7051,55.539 94.5898,56.8407" stroke="#ff3000" stroke-width="2" /><polyline fill="none" points="69.8576,74.1966 73.3288,75.9322 83.7424,77.2339 92.8542,75.9322" stroke="#7f0000" stroke-width="2" /></svg>