<?xml version="1.0" encoding="utf-8" ?>
<svg baseProfile="tiny" height="128" version="1.2" viewBox="0,0,128,128" width="128" xmlns="http://www.w3.org/2000/svg" xmlns:ev="http://www.w3.org/2001/xml-events" xmlns:xlink="http://www.w3.org/1999/xlink"><defs /><polyline fill="none" points="46.861,118.8881 60.7458,119.322 74.1966,116.2847 88.9492,108.4746 97.1932,100.6644 104.5695,88.5153 109.3424,74.1966 111.9458,56.4068 111.078,47.2949 107.6068,36.0136 101.0983,24.7322 91.9864,16.0542 80.7051,10.8475 71.1593,8.678 55.539,9.5458 42.522,13.4508 32.9763,18.2237 18.2237,30.8068 10.4136,44.6915 8.678,59.878 13.4508,78.1017 26.0339,97.1932 40.3525,108.4746 50.3322,111.5119 56.8407,111.5119 65.0847,108.9085 73.3288,103.7017" stroke="#00007f" stroke-width="2" /><polyline fill="none" points="22.9966,21.6949 25.1661,20.8271 29.5051,22.1288 41.6542,33.4102 52.0678,49.4644 58.5763,69.8576 59.4441,83.3085 57.2746,94.1559 48.5966,107.1729 39.9186,112.8136" stroke="#00d4ff" stroke-width="2" /><polyline fill="none" points="72.8949,9.9797 78.1017,54.2373 83.3085,72.461 91.5525,83.7424 98.9288,87.2136 111.078,89.3831" stroke="#ffe500" stroke-width="2" /><polyline fill="none" points="38.6169,107.6068 52.0678,112.3797 61.1797,112.3797 79.4034,108.0407 100.6644,98.061" stroke="#7f0000" stroke-width="2" /></svg>