<?xml version="1.0" encoding="utf-8" ?>
<svg baseProfile="tiny" height="128" version="1.2" viewBox="0,0,128,128" width="128" xmlns="http://www.w3.org/2000/svg" xmlns:ev="http://www.w3.org/2001/xml-events" xmlns:xlink="http://www.w3.org/1999/xlink"><defs /><polyline fill="none" points="90.2508,14.7525 82.4407,10.4136 66.3864,8.678 52.9356,13.0169 25.1661,32.9763 13.4508,43.8237 8.678,54.6712 9.1119,70.2915 13.8847,81.5729 20.8271,86.7797 31.2407,91.1186 52.5017,94.1559 86.3458,92.8542 98.9288,89.8169 104.5695,85.478 113.2475,71.5932 117.1525,61.6136 119.322,52.9356 118.4542,33.4102 115.8508,24.2983 111.5119,20.3932 99.7966,15.1864 88.9492,13.0169" stroke="#00007f" stroke-width="2" /><polyline fill="none" points="101.5322,16.4881 99.3627,16.922 88.5153,26.0339 72.461,45.1254 62.4814,68.9898 60.7458,76.3661 60.7458,84.1763" stroke="#00d4ff" stroke-width="2" /><polyline fill="none" points="52.5017,13.0169 41.6542,32.9763 31.6746,56.4068 27.7695,70.2915 27.7695,77.2339 29.939,82.8746" stroke="#ffe500" stroke-width="2" /><polyline fill="none" points="61.6136,82.8746 61.1797,90.2508" stroke="#7f0000" stroke-width="2" /></svg>