<?xml version="1.0" encoding="utf-8" ?>
<svg baseProfile="tiny" height="128" version="1.2" viewBox="0,0,128,128" width="128" xmlns="http://www.w3.org/2000/svg" xmlns:ev="http://www.w3.org/2001/xml-events" xmlns:xlink="http://www.w3.org/1999/xlink"><defs /><polyline fill="none" points="33.8441,21.6949 16.0542,32.1085 13.0169,35.1458 9.5458,43.3898 8.678,85.0441 9.5458,91.5525 14.7525,102.4 23.8644,112.8136 35.1458,117.1525 43.3898,118.8881 52.0678,119.322 56.4068,118.0203 66.8203,110.2102 75.0644,100.2305 91.9864,73.3288 98.9288,55.9729 101.5322,43.8237 101.5322,36.0136 96.7593,26.0339 90.2508,20.8271 77.2339,15.1864 48.5966,9.5458 29.5051,8.678 21.261,12.1492 18.6576,14.7525 17.7898,18.6576 23.8644,27.3356" stroke="#00007f" stroke-width="2" /><polyline fill="none" points="46.861,16.0542 36.4475,53.8034 32.1085,74.6305 30.8068,91.1186 31.2407,109.7763" stroke="#00d4ff" stroke-width="2" /><polyline fill="none" points="65.9525,22.9966 65.5186,32.5424 58.5763,74.6305 55.1051,114.9831" stroke="#ffe500" stroke-width="2" /><polyline fill="none" points="93.2881,25.6 89.3831,34.7119 75.9322,101.9661 74.6305,102.4" stroke="#7f0000" stroke-width="2" /></svg>