<?xml version="1.0" encoding="utf-8" ?>
<svg baseProfile="tiny" height="128" version="1.2" viewBox="0,0,128,128" width="128" xmlns="http://www.w3.org/2000/svg" xmlns:ev="http://www.w3.org/2001/xml-events" xmlns:xlink="http://www.w3.org/1999/xlink"><defs /><polyline fill="none" points="45.5593,32.1085 60.7458,50.3322 83.7424,85.9119 87.6475,90.2508 92.4203,91.9864 118.0203,98.9288 119.322,95.4576 119.322,86.7797 115.8508,81.5729 104.5695,77.2339 101.0983,74.1966 93.2881,55.9729 84.6102,24.2983 80.2712,16.4881 68.9898,8.678 53.8034,9.5458 48.5966,11.7153 44.2576,16.922 42.0881,21.261 42.0881,31.2407" stroke="#00007f" stroke-width="2" /><polyline fill="none" points="9.1119,27.7695 8.678,41.6542 11.7153,47.2949 15.1864,49.4644 21.6949,49.0305 30.3729,44.2576 34.7119,38.1831 34.278,28.2034 27.7695,22.5627 24.7322,22.1288 18.6576,24.7322" stroke="#00d4ff" stroke-width="2" /><polyline fill="none" points="17.3559,25.6 15.1864,33.4102 15.1864,42.522 17.3559,49.0305 18.2237,47.2949" stroke="#ffe500" stroke-width="2" /><polyline fill="none" points="24.7322,25.6 29.5051,42.0881" stroke="#7f0000" stroke-width="2" /></svg>