<?xml version="1.0" encoding="utf-8" ?>
<svg baseProfile="tiny" height="128" version="1.2" viewBox="0,0,128,128" width="128" xmlns="http://www.w3.org/2000/svg" xmlns:ev="http://www.w3.org/2001/xml-events" xmlns:xlink="http://www.w3.org/1999/xlink"><defs /><polyline fill="none" points="39.1837,10.449 46.1497,16.5442 49.1973,23.0748 51.3741,48.3265 49.6327,52.6803 40.0544,61.3878 31.7823,63.5646" stroke="#00007f" stroke-width="2" /><polyline fill="none" points="104.4898,30.9116 98.3946,31.7823 86.6395,43.102 72.2721,51.3741 66.1769,57.034 65.7415,66.6122 69.6599,72.7075 73.5782,75.7551" stroke="#0000ff" stroke-width="2" /><polyline fill="none" points="30.0408,13.0612 30.4762,10.8844 34.8299,8.7075 53.551,10.0136 97.9592,20.898 111.8912,27.8639 117.9864,38.7483 119.2925,46.1497 117.9864,71.4014 115.3741,78.8027 108.8435,87.0748 90.5578,98.8299 74.449,99.2653 44.8435,90.9932 29.1701,78.3673 16.1088,61.8231 9.1429,45.2789 8.7075,31.3469 10.8844,25.2517 14.8027,20.4626 33.0884,12.1905" stroke="#0080ff" stroke-width="2" /><polyline fill="none" points="34.8299,60.9524 33.0884,62.6939 26.9932,64.0" stroke="#15ffe1" stroke-width="2" /><polyline fill="none" points="72.7075,74.449 72.2721,76.1905 77.932,81.415 94.9116,91.8639" stroke="#7cff79" stroke-width="2" /><polyline fill="none" points="42.2313,21.3333 53.1156,18.2857" stroke="#e4ff12" stroke-width="2" /><polyline fill="none" points="42.2313,33.9592 57.9048,34.3946" stroke="#ff9400" stroke-width="2" /><polyline fill="none" points="41.3605,50.5034 56.5986,66.1769" stroke="#ff1d00" stroke-width="2" /><polyline fill="none" points="31.3469,59.6463 36.5714,67.9184 37.8776,73.5782" stroke="#7f0000" stroke-width="2" /></svg>