<?xml version="1.0" encoding="utf-8" ?>
<svg baseProfile="tiny" height="128" version="1.2" viewBox="0,0,128,128" width="128" xmlns="http://www.w3.org/2000/svg" xmlns:ev="http://www.w3.org/2001/xml-events" xmlns:xlink="http://www.w3.org/1999/xlink"><defs /><polyline fill="none" points="36.5714,13.0612 29.6054,12.6259 18.7211,19.5918 10.449,33.0884 8.7075,44.4082 10.0136,54.4218 17.8503,71.4014 24.8163,80.5442 34.3946,87.5102 45.2789,92.7347 56.5986,95.7823 68.7891,97.5238 81.8503,96.2177 95.3469,93.1701 104.9252,88.381 112.7619,80.9796 117.1156,71.8367 119.2925,60.9524 118.8571,39.1837 116.2449,29.1701 111.0204,21.3333 104.0544,14.8027 96.2177,10.449 86.6395,8.7075 65.7415,9.1429 40.4898,16.5442 29.6054,22.2041 26.5578,25.2517" stroke="#00007f" stroke-width="2" /><polyline fill="none" points="41.7959,22.2041 50.5034,27.4286 59.2109,37.4422 64.0,47.8912 64.4354,56.5986 63.5646,64.8707 58.3401,77.4966 44.8435,100.1361 40.4898,103.619 39.1837,102.3129" stroke="#7cff79" stroke-width="2" /><polyline fill="none" points="90.5578,9.5782 96.2177,42.2313 95.3469,49.1973 97.9592,64.4354 98.3946,87.9456 100.1361,97.5238 104.0544,100.5714 115.8095,95.3469" stroke="#7f0000" stroke-width="2" /></svg>