<?xml version="1.0" encoding="utf-8" ?>
<svg baseProfile="tiny" height="128" version="1.2" viewBox="0,0,128,128" width="128" xmlns="http://www.w3.org/2000/svg" xmlns:ev="http://www.w3.org/2001/xml-events" xmlns:xlink="http://www.w3.org/1999/xlink"><defs /><polyline fill="none" points="72.8949,10.4136 65.9525,8.678 47.2949,8.678 37.3153,10.8475 28.2034,16.4881 19.9593,23.8644 13.8847,32.5424 10.4136,42.0881 8.678,52.0678 9.1119,64.2169 13.4508,77.2339 20.8271,89.8169 29.0712,98.9288 38.6169,106.3051 49.4644,110.6441 60.7458,112.8136 83.3085,113.2475 93.2881,108.4746 101.5322,101.0983 108.4746,92.4203 114.1153,82.4407 117.5864,71.1593 119.322,48.1627 116.2847,37.7492 111.9458,29.0712 106.3051,22.1288 98.9288,16.922 89.8169,13.0169" stroke="#00007f" stroke-width="2" /><polyline fill="none" points="29.0712,13.8847 35.1458,13.4508 41.6542,16.0542 47.7288,20.3932 52.0678,26.0339 53.8034,36.4475 52.9356,63.7831 59.878,72.0271 69.8576,75.9322 79.8373,75.4983 84.6102,70.2915 87.2136,60.3119 90.2508,32.1085 94.1559,23.4305 100.6644,19.5254 109.3424,17.7898" stroke="#7f0000" stroke-width="2" /></svg>