<?xml version="1.0" encoding="utf-8" ?>
<svg baseProfile="tiny" height="128" version="1.2" viewBox="0,0,128,128" width="128" xmlns="http://www.w3.org/2000/svg" xmlns:ev="http://www.w3.org/2001/xml-events" xmlns:xlink="http://www.w3.org/1999/xlink"><defs /><polyline fill="none" points="88.5153,20.3932 82.8746,13.4508 76.8,10.4136 68.5559,8.678 46.4271,9.5458 36.0136,14.3186 27.3356,20.3932 19.0915,27.3356 13.8847,34.278 10.4136,43.3898 8.678,52.0678 10.4136,70.7254 18.2237,87.2136 29.939,99.7966 36.8814,104.1356 53.3695,110.2102 74.1966,110.6441 82.4407,109.7763 101.5322,98.9288 108.9085,91.1186 114.9831,81.5729 118.8881,70.7254 119.322,59.0102 118.8881,47.7288 114.9831,36.0136 108.4746,26.4678 98.4949,18.2237 86.3458,13.4508 72.8949,13.4508" stroke="#00007f" stroke-width="2" /><polyline fill="none" points="85.478,29.0712 75.0644,37.3153 72.0271,43.8237 70.7254,49.4644 72.0271,75.9322 74.6305,82.4407 81.5729,91.1186 98.061,101.5322 101.5322,105.8712" stroke="#7cff79" stroke-width="2" /><polyline fill="none" points="24.7322,36.0136 36.8814,48.1627 42.522,62.4814 45.5593,78.9695 45.5593,90.6847 44.2576,94.5898 40.3525,97.1932" stroke="#7f0000" stroke-width="2" /></svg>