<?xml version="1.0" encoding="utf-8" ?>
<svg baseProfile="tiny" height="128" version="1.2" viewBox="0,0,128,128" width="128" xmlns="http://www.w3.org/2000/svg" xmlns:ev="http://www.w3.org/2001/xml-events" xmlns:xlink="http://www.w3.org/1999/xlink"><defs /><polyline fill="none" points="77.6678,22.9966 57.2746,19.0915 45.9932,19.0915 30.8068,25.1661 24.2983,29.939 16.4881,39.9186 10.8475,54.2373 8.678,63.7831 8.678,79.8373 11.2814,90.2508 15.6203,98.9288 26.9017,111.5119 36.8814,117.1525 45.9932,119.322 72.0271,118.4542 84.1763,115.4169 98.061,107.6068 103.7017,102.8339 112.3797,89.8169 114.1153,82.0068 114.1153,45.5593 112.3797,38.1831 108.0407,27.3356 100.2305,17.7898 86.7797,10.8475 60.3119,8.678 52.0678,9.5458 37.3153,13.8847 21.6949,25.1661 17.3559,31.6746" stroke="#00007f" stroke-width="2" /><polyline fill="none" points="40.3525,26.0339 44.6915,43.8237 44.6915,58.1424 43.3898,64.6508 36.8814,84.1763 30.8068,97.1932 19.0915,112.3797" stroke="#7cff79" stroke-width="2" /><polyline fill="none" points="108.9085,29.0712 104.5695,29.939 92.8542,42.9559 85.478,58.5763 82.4407,76.3661 82.8746,92.8542 86.7797,99.3627 89.3831,101.5322 117.1525,109.3424" stroke="#7f0000" stroke-width="2" /></svg>