<?xml version="1.0" encoding="utf-8" ?>
<svg baseProfile="tiny" height="128" version="1.2" viewBox="0,0,128,128" width="128" xmlns="http://www.w3.org/2000/svg" xmlns:ev="http://www.w3.org/2001/xml-events" xmlns:xlink="http://www.w3.org/1999/xlink"><defs /><polyline fill="none" points="55.1051,11.2814 41.6542,9.1119 37.3153,9.9797 29.939,17.3559 26.0339,23.8644 31.2407,32.5424 36.8814,37.3153 43.3898,40.7864 48.1627,42.522 54.6712,42.0881 66.3864,39.4847 72.0271,34.278 73.3288,29.939 71.5932,24.7322 61.1797,11.2814 55.539,8.678" stroke="#00007f" stroke-width="2" /><polyline fill="none" points="27.7695,25.6 21.261,36.8814 16.0542,52.5017" stroke="#0000e8" stroke-width="2" /><polyline fill="none" points="21.261,55.9729 66.3864,64.2169 69.4237,62.0475 74.6305,50.7661 75.4983,39.4847 73.3288,31.6746" stroke="#0038ff" stroke-width="2" /><polyline fill="none" points="74.1966,39.0508 65.0847,41.2203 48.5966,48.1627 32.1085,59.0102" stroke="#0094ff" stroke-width="2" /><polyline fill="none" points="20.8271,39.4847 75.4983,67.2542 82.4407,68.9898" stroke="#0cf4ea" stroke-width="2" /><polyline fill="none" points="69.8576,47.7288 32.9763,50.3322 8.678,47.2949" stroke="#56ffa0" stroke-width="2" /><polyline fill="none" points="33.8441,33.4102 32.5424,44.6915 34.7119,62.9153" stroke="#a0ff56" stroke-width="2" /><polyline fill="none" points="58.1424,82.4407 52.5017,79.8373 41.6542,80.7051 35.1458,83.3085 28.2034,88.5153 23.4305,98.061 26.0339,104.1356 34.7119,113.2475 43.8237,117.1525 55.539,119.322 65.5186,117.5864 71.5932,112.3797 74.6305,101.0983 74.6305,96.3254 72.461,88.0814 69.4237,83.3085 61.6136,76.8 57.7085,75.0644" stroke="#eaff0c" stroke-width="2" /><polyline fill="none" points="55.9729,82.8746 49.4644,101.9661 48.1627,113.2475" stroke="#ffaa00" stroke-width="2" /><polyline fill="none" points="26.4678,96.7593 39.0508,97.1932 75.0644,103.2678" stroke="#ff5500" stroke-width="2" /><polyline fill="none" points="63.7831,89.3831 35.1458,108.9085" stroke="#e80000" stroke-width="2" /><polyline fill="none" points="39.9186,82.8746 49.8983,96.7593 65.9525,111.5119" stroke="#7f0000" stroke-width="2" /></svg>