<?xml version="1.0" encoding="utf-8" ?>
<svg baseProfile="tiny" height="128" version="1.2" viewBox="0,0,128,128" width="128" xmlns="http://www.w3.org/2000/svg" xmlns:ev="http://www.w3.org/2001/xml-events" xmlns:xlink="http://www.w3.org/1999/xlink"><defs /><polyline fill="none" points="46.4271,8.678 39.4847,10.4136 28.6373,19.9593 16.0542,40.7864 9.9797,54.2373 8.678,75.0644 14.3186,90.6847 23.8644,103.7017 31.6746,110.6441 36.4475,113.6814 53.3695,118.0203 86.3458,117.5864 98.4949,109.7763 106.3051,101.9661 113.6814,91.5525 118.4542,83.7424 119.322,78.1017 119.322,71.1593 115.4169,58.1424 105.0034,38.6169 100.6644,32.5424 89.3831,24.2983 68.122,13.8847 62.4814,12.1492 46.861,11.7153 40.3525,14.3186" stroke="#00007f" stroke-width="2" /><polyline fill="none" points="29.0712,31.2407 33.8441,39.9186 42.522,45.5593 51.2,48.5966 68.122,49.0305 75.0644,46.4271 82.0068,41.6542 87.2136,35.5797 88.9492,29.939" stroke="#00d4ff" stroke-width="2" /><polyline fill="none" points="32.5424,106.3051 47.2949,101.5322 65.0847,100.2305 83.7424,105.4373 94.1559,111.9458" stroke="#ffe500" stroke-width="2" /><polyline fill="none" points="68.122,113.6814 67.6881,105.4373 62.4814,85.478 60.7458,66.8203 60.7458,25.6 63.3492,16.922" stroke="#7f0000" stroke-width="2" /></svg>