<?xml version="1.0" encoding="utf-8" ?>
<svg baseProfile="tiny" height="128" version="1.2" viewBox="0,0,128,128" width="128" xmlns="http://www.w3.org/2000/svg" xmlns:ev="http://www.w3.org/2001/xml-events" xmlns:xlink="http://www.w3.org/1999/xlink"><defs /><polyline fill="none" points="32.5424,18.6576 20.3932,19.5254 18.6576,21.6949 15.1864,34.278 11.2814,50.3322 8.678,84.1763 9.1119,95.0237 12.1492,101.5322 17.7898,108.4746 24.7322,111.078 64.2169,112.8136 70.7254,111.5119 75.4983,108.0407 96.3254,73.7627 100.6644,57.7085 99.7966,47.7288 91.5525,27.7695 85.478,17.3559 83.3085,15.1864 75.0644,13.0169 54.2373,8.678 33.4102,10.4136 20.3932,33.4102" stroke="#00007f" stroke-width="2" /><polyline fill="none" points="24.2983,14.3186 24.7322,86.7797 22.1288,105.4373" stroke="#0000f1" stroke-width="2" /><polyline fill="none" points="22.1288,105.4373 22.1288,105.4373" stroke="#004cff" stroke-width="2" /><polyline fill="none" points="14.7525,96.7593 26.4678,96.7593" stroke="#00b0ff" stroke-width="2" /><polyline fill="none" points="20.8271,80.2712 35.5797,80.2712" stroke="#29ffcd" stroke-width="2" /><polyline fill="none" points="20.3932,64.2169 23.8644,64.2169" stroke="#7cff79" stroke-width="2" /><polyline fill="none" points="16.0542,52.0678 20.3932,52.0678" stroke="#cdff29" stroke-width="2" /><polyline fill="none" points="17.3559,33.8441 21.6949,33.8441" stroke="#ffc400" stroke-width="2" /><polyline fill="none" points="85.0441,16.4881 78.9695,23.4305 74.6305,34.278 66.8203,60.3119 61.6136,85.9119 61.1797,99.3627 68.9898,119.322" stroke="#ff6700" stroke-width="2" /><polyline fill="none" points="59.0102,106.3051 66.8203,106.3051" stroke="#f10700" stroke-width="2" /><polyline fill="none" points="56.8407,78.9695 77.2339,78.9695" stroke="#7f0000" stroke-width="2" /></svg>