<?xml version="1.0" encoding="utf-8" ?>
<svg baseProfile="tiny" height="128" version="1.2" viewBox="0,0,128,128" width="128" xmlns="http://www.w3.org/2000/svg" xmlns:ev="http://www.w3.org/2001/xml-events" xmlns:xlink="http://www.w3.org/1999/xlink"><defs /><polyline fill="none" points="52.9356,9.1119 43.8237,9.9797 33.8441,13.0169 22.9966,22.1288 10.4136,43.3898 8.678,54.6712 10.4136,68.5559 13.0169,77.2339 17.3559,84.1763 28.6373,92.4203 38.1831,95.8915 71.1593,99.7966 93.722,98.4949 100.2305,95.8915 105.4373,91.9864 112.3797,81.5729 118.0203,67.6881 119.322,58.1424 118.8881,44.6915 113.6814,35.5797 99.3627,26.9017 88.9492,22.5627 70.2915,19.0915 47.2949,8.678" stroke="#00007f" stroke-width="2" /><polyline fill="none" points="40.3525,9.9797 36.8814,17.3559 33.8441,36.8814 32.1085,73.3288 29.5051,91.5525" stroke="#7cff79" stroke-width="2" /><polyline fill="none" points="101.9661,28.6373 92.4203,42.9559 85.478,59.878 84.1763,71.1593 85.0441,96.3254 83.7424,106.739" stroke="#7f0000" stroke-width="2" /></svg>