<?xml version="1.0" encoding="utf-8" ?>
<svg baseProfile="tiny" height="128" version="1.2" viewBox="0,0,128,128" width="128" xmlns="http://www.w3.org/2000/svg" xmlns:ev="http://www.w3.org/2001/xml-events" xmlns:xlink="http://www.w3.org/1999/xlink"><defs /><polyline fill="none" points="75.0644,16.922 70.2915,13.4508 62.4814,11.7153 41.2203,11.7153 31.6746,13.0169 21.261,18.6576 14.3186,26.4678 9.9797,37.3153 8.678,53.3695 11.2814,63.3492 18.6576,74.6305 29.5051,88.5153 44.2576,99.3627 62.0475,109.3424 80.2712,115.8508 97.6271,119.322 106.739,118.8881 113.6814,113.2475 115.8508,108.0407 118.0203,90.6847 118.0203,76.8 115.8508,69.4237 101.0983,32.1085 87.2136,13.0169 82.8746,8.678 80.7051,9.1119" stroke="#00007f" stroke-width="2" /><polyline fill="none" points="27.7695,16.0542 31.6746,22.1288 38.6169,50.7661 38.1831,57.2746 30.8068,70.2915" stroke="#0080ff" stroke-width="2" /><polyline fill="none" points="94.5898,32.9763 88.9492,40.7864 84.6102,52.0678 82.8746,63.7831 83.7424,84.6102 88.0814,94.5898 94.1559,103.2678 111.5119,109.3424" stroke="#7cff79" stroke-width="2" /><polyline fill="none" points="21.6949,29.939 55.1051,39.4847" stroke="#ff9400" stroke-width="2" /><polyline fill="none" points="25.6,46.861 46.861,52.0678" stroke="#7f0000" stroke-width="2" /></svg>