<?xml version="1.0" encoding="utf-8" ?>
<svg baseProfile="tiny" height="128" version="1.2" viewBox="0,0,128,128" width="128" xmlns="http://www.w3.org/2000/svg" xmlns:ev="http://www.w3.org/2001/xml-events" xmlns:xlink="http://www.w3.org/1999/xlink"><defs /><polyline fill="none" points="45.9932,17.3559 31.2407,20.8271 24.7322,29.5051 10.4136,53.8034 8.678,63.7831 8.678,94.1559 19.5254,105.0034 31.6746,113.6814 41.2203,118.4542 58.5763,119.322 77.2339,100.6644 82.4407,79.8373 84.1763,77.2339 83.7424,29.0712 82.4407,22.5627 67.2542,8.678 60.7458,8.678 55.9729,10.4136 48.5966,16.0542 41.2203,17.7898 39.0508,20.8271" stroke="#00007f" stroke-width="2" /><polyline fill="none" points="23.4305,38.6169 26.9017,44.6915 29.939,62.9153 33.8441,73.7627 35.5797,108.4746 47.7288,95.0237 54.2373,78.9695 62.4814,65.0847 76.8,26.4678 76.3661,23.4305 70.7254,24.2983 65.9525,41.2203 65.9525,52.5017 62.4814,66.8203 62.4814,98.061" stroke="#7f0000" stroke-width="2" /></svg>