<?xml version="1.0" encoding="utf-8" ?>
<svg baseProfile="tiny" height="128" version="1.2" viewBox="0,0,128,128" width="128" xmlns="http://www.w3.org/2000/svg" xmlns:ev="http://www.w3.org/2001/xml-events" xmlns:xlink="http://www.w3.org/1999/xlink"><defs /><polyline fill="none" points="53.9864,20.0272 50.9388,18.7211 39.1837,18.7211 26.9932,28.2993 18.2857,41.7959 10.8844,67.9184 12.1905,94.4762 16.1088,101.0068 21.7687,108.4082 28.7347,112.7619 46.1497,119.2925 78.3673,118.8571 85.7687,116.2449 98.3946,107.102 104.0544,99.2653 114.9388,77.4966 117.551,65.3061 117.551,51.8095 115.8095,42.6667 103.619,24.381 100.1361,20.898 84.0272,11.7551 75.7551,9.1429 65.3061,8.7075 60.0816,9.5782 42.2313,17.8503" stroke="#00007f" stroke-width="2" /><polyline fill="none" points="33.5238,23.5102 57.4694,65.7415" stroke="#0080ff" stroke-width="2" /><polyline fill="none" points="8.7075,90.9932 40.4898,91.8639 50.5034,90.1224" stroke="#7cff79" stroke-width="2" /><polyline fill="none" points="97.5238,114.9388 93.1701,110.1497 83.5918,93.6054 72.7075,78.8027" stroke="#ff9400" stroke-width="2" /><polyline fill="none" points="114.9388,43.5374 96.6531,50.9388 70.0952,59.6463" stroke="#7f0000" stroke-width="2" /></svg>