<?xml version="1.0" encoding="utf-8" ?>
<svg baseProfile="tiny" height="128" version="1.2" viewBox="0,0,128,128" width="128" xmlns="http://www.w3.org/2000/svg" xmlns:ev="http://www.w3.org/2001/xml-events" xmlns:xlink="http://www.w3.org/1999/xlink"><defs /><polyline fill="none" points="83.7424,10.8475 75.9322,8.678 54.2373,8.678 36.4475,13.4508 26.4678,19.9593 17.3559,30.3729 13.4508,37.7492 9.9797,48.5966 9.9797,63.3492 16.4881,73.7627 29.5051,83.3085 38.1831,86.3458 52.5017,88.0814 71.5932,88.9492 78.1017,88.0814 95.4576,82.4407 108.9085,71.1593 114.5492,62.9153 119.322,44.6915 118.4542,34.278 117.1525,30.8068 111.5119,25.1661 94.5898,16.0542 81.139,12.5831 75.9322,13.4508" stroke="#00007f" stroke-width="2" /><polyline fill="none" points="58.1424,11.2814 58.5763,18.6576 56.4068,36.0136 51.2,49.4644 45.9932,55.9729 35.5797,63.3492 28.2034,65.9525 13.8847,68.122" stroke="#0080ff" stroke-width="2" /><polyline fill="none" points="38.1831,82.8746 75.9322,39.4847 82.8746,33.8441 90.2508,30.3729 111.078,29.0712" stroke="#7cff79" stroke-width="2" /><polyline fill="none" points="110.6441,53.8034 100.2305,53.3695 80.2712,55.9729 76.8,62.4814 77.2339,66.3864 83.3085,71.1593 94.1559,72.0271" stroke="#ff9400" stroke-width="2" /><polyline fill="none" points="20.8271,28.2034 37.3153,34.278 36.4475,37.7492 24.2983,41.2203 8.678,40.3525" stroke="#7f0000" stroke-width="2" /></svg>