<?xml version="1.0" encoding="utf-8" ?>
<svg baseProfile="tiny" height="128" version="1.2" viewBox="0,0,128,128" width="128" xmlns="http://www.w3.org/2000/svg" xmlns:ev="http://www.w3.org/2001/xml-events" xmlns:xlink="http://www.w3.org/1999/xlink"><defs /><polyline fill="none" points="88.0814,21.6949 87.6475,34.278 81.139,82.8746 116.2847,82.0068 118.4542,75.4983 117.1525,42.522 119.322,14.7525 114.5492,12.1492 100.2305,12.1492 85.9119,14.3186" stroke="#00007f" stroke-width="2" /><polyline fill="none" points="87.6475,9.1119 76.8,8.678 71.5932,9.9797 63.7831,13.8847 59.878,18.2237 57.7085,24.2983 59.0102,30.8068 63.7831,35.1458 71.1593,35.5797 80.2712,30.3729 85.478,22.1288 85.9119,16.4881 81.139,9.5458" stroke="#0000de" stroke-width="2" /><polyline fill="none" points="69.4237,18.2237 65.9525,23.8644 66.8203,26.4678 71.1593,24.7322 72.8949,21.261 73.3288,19.5254 72.0271,19.0915" stroke="#0028ff" stroke-width="2" /><polyline fill="none" points="62.0475,40.7864 61.6136,54.2373 63.3492,54.2373 74.1966,37.3153 75.4983,51.6339 85.478,32.1085 88.9492,26.4678 85.478,34.278" stroke="#0080ff" stroke-width="2" /><polyline fill="none" points="16.922,36.8814 13.0169,45.1254 12.5831,54.6712 14.3186,55.539 19.0915,51.2 22.5627,43.3898 22.9966,37.7492 19.5254,37.3153" stroke="#00d4ff" stroke-width="2" /><polyline fill="none" points="17.3559,56.8407 16.0542,84.6102" stroke="#36ffc0" stroke-width="2" /><polyline fill="none" points="8.678,69.8576 24.2983,65.0847 38.6169,59.0102" stroke="#7cff79" stroke-width="2" /><polyline fill="none" points="16.4881,82.8746 9.5458,91.9864" stroke="#c0ff36" stroke-width="2" /><polyline fill="none" points="17.3559,81.139 27.7695,92.4203 32.9763,96.3254" stroke="#ffe500" stroke-width="2" /><polyline fill="none" points="41.6542,44.6915 39.9186,45.1254 37.3153,49.4644 37.3153,57.7085 39.4847,59.4441 43.8237,59.0102 47.2949,55.9729 48.1627,52.9356 48.1627,49.8983 41.2203,46.861" stroke="#ff9400" stroke-width="2" /><polyline fill="none" points="47.7288,41.2203 54.6712,32.9763" stroke="#ff4600" stroke-width="2" /><polyline fill="none" points="53.3695,45.9932 60.7458,36.4475" stroke="#de0000" stroke-width="2" /><polyline fill="none" points="54.2373,52.9356 62.0475,42.522" stroke="#7f0000" stroke-width="2" /></svg>