<?xml version="1.0" encoding="utf-8" ?>
<svg baseProfile="tiny" height="128" version="1.2" viewBox="0,0,128,128" width="128" xmlns="http://www.w3.org/2000/svg" xmlns:ev="http://www.w3.org/2001/xml-events" xmlns:xlink="http://www.w3.org/1999/xlink"><defs /><polyline fill="none" points="38.1831,15.6203 28.6373,22.1288 18.2237,32.9763 13.8847,40.3525 8.678,61.6136 8.678,83.7424 12.5831,94.5898 16.922,100.2305 25.6,107.6068 39.0508,114.9831 61.1797,119.322 72.0271,119.322 78.9695,116.2847 88.0814,110.2102 92.4203,103.7017 100.6644,88.0814 103.2678,76.8 105.0034,64.2169 104.1356,42.9559 95.0237,27.3356 89.3831,21.6949 77.6678,14.7525 52.0678,8.678 39.4847,8.678 36.4475,9.5458 29.0712,15.1864" stroke="#00007f" stroke-width="2" /><polyline fill="none" points="23.8644,26.0339 37.3153,39.9186 44.6915,58.1424 45.9932,108.4746" stroke="#00d4ff" stroke-width="2" /><polyline fill="none" points="82.4407,107.6068 78.1017,19.9593 79.4034,22.1288 78.1017,25.1661" stroke="#ffe500" stroke-width="2" /><polyline fill="none" points="78.1017,25.1661 78.1017,25.1661" stroke="#7f0000" stroke-width="2" /></svg>