<?xml version="1.0" encoding="utf-8" ?>
<svg baseProfile="tiny" height="128" version="1.2" viewBox="0,0,128,128" width="128" xmlns="http://www.w3.org/2000/svg" xmlns:ev="http://www.w3.org/2001/xml-events" xmlns:xlink="http://www.w3.org/1999/xlink"><defs /><polyline fill="none" points="37.0068,90.9932 26.5578,86.2041 13.932,72.7075 9.1429,63.5646 8.7075,46.585 10.8844,39.1837 15.2381,32.6531 25.2517,22.2041 45.2789,11.7551 59.2109,8.7075 80.1088,9.1429 86.6395,10.8844 98.8299,17.8503 108.8435,25.6871 114.9388,33.5238 118.4218,41.3605 119.2925,54.8571 117.1156,61.3878 108.8435,74.8844 100.1361,84.0272 82.2857,88.381 30.9116,90.9932" stroke="#00007f" stroke-width="2" /><polyline fill="none" points="36.1361,15.6735 45.2789,31.3469 56.5986,73.1429 57.4694,85.3333 53.1156,97.5238" stroke="#0010ff" stroke-width="2" /><polyline fill="none" points="101.4422,9.5782 99.2653,10.0136 95.3469,18.7211 89.2517,27.4286 82.7211,46.585 79.2381,71.8367 79.2381,82.7211 85.7687,96.6531" stroke="#00a4ff" stroke-width="2" /><polyline fill="none" points="35.2653,34.8299 51.3741,32.2177" stroke="#3fffb7" stroke-width="2" /><polyline fill="none" points="44.8435,53.9864 54.4218,50.5034" stroke="#b7ff3f" stroke-width="2" /><polyline fill="none" points="62.2585,59.2109 62.2585,59.2109" stroke="#ffb900" stroke-width="2" /><polyline fill="none" points="47.4558,79.2381 52.2449,78.8027 55.7279,77.0612" stroke="#ff3000" stroke-width="2" /><polyline fill="none" points="52.6803,88.8163 54.4218,87.0748 61.8231,86.2041" stroke="#7f0000" stroke-width="2" /></svg>