<?xml version="1.0" encoding="utf-8" ?>
<svg baseProfile="tiny" height="128" version="1.2" viewBox="0,0,128,128" width="128" xmlns="http://www.w3.org/2000/svg" xmlns:ev="http://www.w3.org/2001/xml-events" xmlns:xlink="http://www.w3.org/1999/xlink"><defs /><polyline fill="none" points="28.2034,11.2814 16.0542,24.7322 10.4136,39.4847 8.678,49.0305 9.9797,65.5186 13.4508,72.8949 19.5254,79.4034 36.8814,87.2136 57.7085,88.9492 69.8576,88.0814 81.139,84.6102 100.6644,74.1966 114.1153,61.1797 117.5864,53.8034 119.322,40.3525 115.8508,33.8441 110.2102,27.7695 91.9864,16.0542 80.2712,11.2814 67.6881,9.1119 55.539,8.678 43.3898,9.5458 25.6,14.3186" stroke="#00007f" stroke-width="2" /><polyline fill="none" points="45.1254,11.2814 49.8983,30.3729 49.4644,60.3119 44.2576,68.9898 35.5797,77.2339 26.0339,82.8746 19.5254,83.7424" stroke="#7cff79" stroke-width="2" /><polyline fill="none" points="75.0644,13.8847 70.7254,32.9763 70.7254,40.7864 72.8949,47.2949 79.8373,57.7085 87.6475,65.0847 94.5898,68.5559 102.4,69.4237" stroke="#7f0000" stroke-width="2" /></svg>