<?xml version="1.0" encoding="utf-8" ?>
<svg baseProfile="tiny" height="128" version="1.2" viewBox="0,0,128,128" width="128" xmlns="http://www.w3.org/2000/svg" xmlns:ev="http://www.w3.org/2001/xml-events" xmlns:xlink="http://www.w3.org/1999/xlink"><defs /><polyline fill="none" points="60.7458,18.2237 58.5763,15.6203 52.9356,16.0542 50.3322,19.5254 49.8983,24.2983 54.2373,28.6373 59.878,27.7695 62.0475,20.8271 61.6136,17.3559 59.878,14.3186" stroke="#00007f" stroke-width="2" /><polyline fill="none" points="52.5017,25.6 55.1051,21.6949 55.1051,14.3186" stroke="#00d4ff" stroke-width="2" /><polyline fill="none" points="58.1424,16.0542 56.4068,24.2983 59.0102,27.7695" stroke="#ffe500" stroke-width="2" /><polyline fill="none" points="50.3322,20.3932 58.1424,19.9593 48.5966,19.5254 47.7288,19.5254 49.4644,18.6576 72.0271,15.6203 39.4847,14.3186 37.3153,15.6203 47.7288,17.3559 73.3288,17.7898 42.9559,16.0542 34.278,17.7898 37.7492,20.8271 43.3898,22.9966 69.8576,26.9017 65.9525,28.2034 40.7864,29.939 49.0305,30.3729 75.0644,25.6 85.478,22.5627 85.0441,21.6949 82.4407,20.8271 74.6305,22.1288 74.6305,24.7322 62.0475,22.9966 29.939,23.8644 30.8068,25.6 38.1831,26.4678 69.8576,22.1288 89.8169,15.1864 92.4203,12.5831 91.1186,12.1492 79.8373,12.5831 75.9322,14.3186 73.3288,17.3559 74.1966,22.5627 81.5729,29.5051 67.2542,29.0712 64.6508,29.5051 65.0847,30.3729 87.6475,33.4102 113.2475,33.4102 119.322,32.1085 118.8881,26.0339 107.6068,21.6949 86.3458,16.922 57.7085,12.5831 32.1085,11.7153 19.9593,12.1492 12.5831,13.8847 10.4136,16.0542 12.5831,20.3932 20.3932,24.7322 42.9559,25.1661 55.1051,21.6949 58.1424,19.5254 59.0102,16.0542 53.3695,13.0169 42.522,10.8475 17.7898,11.7153 8.678,15.1864 9.1119,21.6949 12.5831,26.9017 25.1661,34.7119 42.9559,39.4847 62.4814,40.7864 78.5356,39.4847 80.2712,38.6169 78.9695,38.1831 64.6508,38.6169 72.461,39.0508 81.139,36.4475 87.6475,32.5424 87.6475,31.2407 84.6102,30.3729 72.8949,30.8068 51.6339,37.7492 50.7661,39.4847 52.5017,41.2203 68.122,41.2203 86.3458,35.5797 91.9864,31.2407 91.5525,26.9017 85.478,23.4305 80.7051,22.5627 68.5559,22.5627 54.6712,26.9017 52.5017,29.939 52.9356,31.6746 54.2373,32.1085 53.8034,30.8068 51.2,30.8068 51.6339,32.9763 59.0102,33.4102 73.7627,28.6373 76.8,24.7322 76.8,20.8271 73.7627,18.2237 68.5559,16.922 54.6712,18.6576 39.0508,26.0339 32.9763,32.9763 32.5424,39.4847 34.7119,44.2576 41.2203,48.5966 57.2746,50.7661 70.7254,50.7661 82.8746,47.7288 93.722,42.522 97.1932,39.9186 100.6644,32.9763 100.6644,26.9017 99.3627,23.4305 94.1559,17.3559 82.8746,11.7153 70.2915,9.5458 55.9729,10.8475 42.522,14.7525 37.3153,18.2237 32.9763,21.261 29.5051,28.6373 29.5051,32.9763 32.9763,40.3525 41.6542,45.9932 49.0305,48.1627 63.3492,49.8983 86.7797,47.7288 93.722,45.5593 103.2678,39.9186 105.8712,36.8814 107.6068,30.8068 106.739,27.3356 100.2305,19.0915 86.7797,12.5831 69.4237,9.1119 58.5763,8.678 37.7492,9.5458 19.0915,13.8847 12.1492,17.7898 10.4136,19.9593 11.2814,28.2034 13.8847,33.4102 21.6949,40.3525 33.8441,45.1254 58.5763,47.7288 72.8949,45.9932 78.5356,44.2576 85.478,40.3525 87.2136,34.278 84.1763,29.0712 80.2712,26.9017 59.0102,20.3932 41.2203,18.6576 22.5627,19.0915 11.7153,21.261 11.2814,25.1661 13.4508,31.6746 19.0915,36.4475 30.3729,39.9186 47.7288,41.2203 59.878,39.0508 69.4237,35.5797 75.9322,29.5051 76.3661,27.3356 74.1966,24.2983 68.9898,22.1288 52.5017,22.1288 32.9763,25.1661 24.7322,29.5051 22.5627,31.2407 22.5627,34.278 25.6,36.0136 33.8441,36.4475 48.1627,32.9763 61.6136,27.3356 66.3864,22.9966 66.3864,19.0915 63.7831,18.2237 55.1051,18.2237 36.8814,20.8271 26.0339,24.7322 21.261,30.3729 21.261,32.9763 23.4305,34.7119 35.1458,35.5797 54.2373,32.9763 71.5932,26.4678 78.5356,21.6949 80.2712,16.0542 75.4983,13.8847 65.5186,13.4508 54.2373,15.1864 43.8237,18.2237 36.8814,23.4305 36.8814,27.7695 42.9559,31.2407 52.9356,32.1085 69.4237,31.2407 94.1559,21.6949 99.3627,17.3559 99.3627,13.8847 82.4407,13.4508 57.7085,17.3559 38.1831,22.9966 32.1085,28.2034 31.6746,30.8068 33.8441,33.8441 40.7864,36.0136 52.9356,36.8814 74.1966,34.278 81.5729,32.1085 93.722,25.6 95.0237,22.9966 92.4203,20.8271 82.0068,19.0915 59.0102,19.0915 51.6339,19.9593 40.3525,24.2983 36.0136,27.3356 35.5797,29.939 43.3898,32.1085 68.5559,31.6746 78.9695,30.3729 84.1763,26.9017 69.4237,26.9017 63.7831,29.0712 64.6508,29.939 76.8,26.0339 78.1017,25.1661 76.3661,24.2983 55.1051,24.2983 44.2576,26.0339 37.7492,29.939 37.7492,33.8441 42.522,36.0136 52.9356,36.0136 69.4237,34.278 79.8373,31.2407 88.5153,26.0339 88.5153,22.1288 82.4407,20.3932 67.6881,20.8271 42.9559,26.0339 32.5424,31.2407 31.2407,35.1458 33.4102,36.8814 46.4271,37.3153 63.7831,33.4102" stroke="#7f0000" stroke-width="2" /></svg>