<?xml version="1.0" encoding="utf-8" ?>
<svg baseProfile="tiny" height="128" version="1.2" viewBox="0,0,128,128" width="128" xmlns="http://www.w3.org/2000/svg" xmlns:ev="http://www.w3.org/2001/xml-events" xmlns:xlink="http://www.w3.org/1999/xlink"><defs /><polyline fill="none" points="46.4271,27.3356 38.1831,27.3356 26.9017,32.1085 22.9966,36.0136 15.6203,39.4847 10.4136,46.861 9.5458,51.6339 8.678,78.9695 10.8475,89.8169 16.0542,103.2678 19.0915,108.0407 23.4305,110.2102 37.3153,113.2475 59.0102,113.2475 65.9525,111.9458 85.9119,103.7017 107.1729,91.5525 117.1525,75.0644 119.322,65.9525 119.322,47.2949 118.0203,42.522 98.061,23.8644 80.2712,14.7525 63.7831,10.4136 46.861,8.678 39.4847,26.9017" stroke="#00007f" stroke-width="2" /><polyline fill="none" points="32.9763,26.9017 29.939,34.278 29.939,52.9356 33.4102,60.7458 36.4475,64.2169 55.9729,68.122 71.1593,75.9322 75.0644,79.4034 83.3085,100.6644" stroke="#7f0000" stroke-width="2" /></svg>