<?xml version="1.0" encoding="utf-8" ?>
<svg baseProfile="tiny" height="128" version="1.2" viewBox="0,0,128,128" width="128" xmlns="http://www.w3.org/2000/svg" xmlns:ev="http://www.w3.org/2001/xml-events" xmlns:xlink="http://www.w3.org/1999/xlink"><defs /><polyline fill="none" points="27.3356,108.4746 18.6576,107.1729 12.1492,97.1932 9.1119,85.478 8.678,67.6881 13.0169,52.9356 18.2237,44.6915 30.8068,28.6373 37.3153,22.9966 53.8034,13.8847 62.0475,10.8475 70.2915,9.1119 83.3085,8.678 91.5525,11.7153 105.4373,22.1288 115.8508,36.8814 118.4542,45.5593 119.322,73.7627 117.1525,82.8746 108.4746,96.3254 97.1932,104.5695 90.6847,107.1729 67.6881,111.078 53.3695,110.6441 46.861,108.9085 39.0508,105.0034 23.8644,93.2881 20.8271,88.5153 22.9966,85.478" stroke="#00007f" stroke-width="2" /><polyline fill="none" points="42.522,25.1661 46.861,25.6 52.0678,39.0508 52.0678,83.7424 53.8034,106.739 50.7661,117.5864" stroke="#7cff79" stroke-width="2" /><polyline fill="none" points="80.2712,16.922 76.3661,23.8644 72.461,45.9932 72.461,52.5017 75.4983,59.878 75.9322,66.3864 76.3661,98.4949 74.6305,108.9085" stroke="#7f0000" stroke-width="2" /></svg>