<?xml version="1.0" encoding="utf-8" ?>
<svg baseProfile="tiny" height="128" version="1.2" viewBox="0,0,128,128" width="128" xmlns="http://www.w3.org/2000/svg" xmlns:ev="http://www.w3.org/2001/xml-events" xmlns:xlink="http://www.w3.org/1999/xlink"><defs /><polyline fill="none" points="68.9898,19.5254 52.0678,10.8475 40.3525,9.9797 35.1458,11.7153 29.5051,15.6203 13.4508,35.1458 10.4136,42.0881 8.678,50.3322 8.678,65.5186 12.5831,80.7051 19.9593,94.1559 31.6746,105.4373 39.4847,110.6441 48.5966,115.4169 64.2169,119.322 72.461,119.322 77.2339,117.1525 83.7424,112.3797 92.4203,99.7966 98.4949,75.0644 98.4949,60.7458 93.2881,49.0305 86.7797,41.6542 72.0271,19.9593 65.5186,15.1864" stroke="#00007f" stroke-width="2" /><polyline fill="none" points="26.0339,23.4305 24.2983,26.4678 24.2983,85.478 21.261,91.9864" stroke="#00d4ff" stroke-width="2" /><polyline fill="none" points="81.5729,45.1254 79.4034,54.6712 79.8373,72.461 82.0068,82.4407 91.1186,97.6271" stroke="#ffe500" stroke-width="2" /><polyline fill="none" points="52.9356,8.678 54.6712,52.9356 62.4814,90.6847 62.9153,110.2102" stroke="#7f0000" stroke-width="2" /></svg>