<?xml version="1.0" encoding="utf-8" ?>
<svg baseProfile="tiny" height="128" version="1.2" viewBox="0,0,128,128" width="128" xmlns="http://www.w3.org/2000/svg" xmlns:ev="http://www.w3.org/2001/xml-events" xmlns:xlink="http://www.w3.org/1999/xlink"><defs /><polyline fill="none" points="105.8712,39.4847 97.6271,23.8644 90.2508,15.6203 82.8746,10.8475 72.8949,8.678 65.9525,9.9797 47.2949,20.3932 28.2034,37.3153 20.3932,48.1627 11.2814,66.3864 8.678,77.6678 8.678,90.6847 12.5831,101.0983 19.9593,108.4746 31.2407,115.4169 46.4271,119.322 54.6712,119.322 78.9695,112.3797 90.2508,106.739 98.061,100.2305 105.0034,91.9864 110.6441,75.0644 111.078,63.7831 109.3424,56.4068 105.8712,48.5966 102.8339,44.6915 90.6847,37.7492" stroke="#00007f" stroke-width="2" /><polyline fill="none" points="101.0983,24.2983 83.7424,26.9017 75.0644,31.2407 67.2542,42.0881 64.6508,52.9356 65.5186,70.7254 69.4237,81.5729 74.1966,89.3831 87.6475,98.4949 93.2881,100.2305 98.9288,99.3627" stroke="#7cff79" stroke-width="2" /><polyline fill="none" points="34.7119,35.1458 42.522,38.1831 46.861,45.5593 49.4644,55.9729 51.2,81.5729 47.2949,89.3831 39.9186,98.4949 24.7322,107.6068 13.8847,106.739 12.5831,108.0407" stroke="#7f0000" stroke-width="2" /></svg>