<?xml version="1.0" encoding="utf-8" ?>
<svg baseProfile="tiny" height="128" version="1.2" viewBox="0,0,128,128" width="128" xmlns="http://www.w3.org/2000/svg" xmlns:ev="http://www.w3.org/2001/xml-events" xmlns:xlink="http://www.w3.org/1999/xlink"><defs /><polyline fill="none" points="104.5695,28.2034 95.8915,17.3559 85.478,12.1492 70.2915,8.678 54.2373,9.1119 48.1627,10.8475 24.7322,24.7322 18.6576,32.9763 13.0169,46.4271 8.678,68.122 8.678,88.9492 15.6203,99.7966 22.1288,106.739 42.522,116.2847 60.7458,119.322 84.1763,119.322 97.1932,115.4169 104.1356,109.3424 114.5492,63.7831 114.1153,52.9356 106.739,33.4102 101.0983,24.7322 89.3831,15.1864 80.7051,10.8475" stroke="#00007f" stroke-width="2" /><polyline fill="none" points="27.3356,25.6 31.6746,26.0339 36.0136,29.939" stroke="#0000ff" stroke-width="2" /><polyline fill="none" points="39.4847,38.6169 45.5593,47.7288 45.5593,53.8034" stroke="#0080ff" stroke-width="2" /><polyline fill="none" points="45.5593,62.9153 45.5593,74.1966 42.522,80.2712" stroke="#15ffe1" stroke-width="2" /><polyline fill="none" points="40.3525,93.2881 34.278,98.4949 30.8068,104.1356" stroke="#7cff79" stroke-width="2" /><polyline fill="none" points="91.5525,20.8271 91.1186,22.9966 85.0441,27.7695 84.6102,32.5424" stroke="#e4ff12" stroke-width="2" /><polyline fill="none" points="85.0441,42.9559 85.0441,59.4441" stroke="#ff9400" stroke-width="2" /><polyline fill="none" points="80.7051,75.0644 87.6475,85.478" stroke="#ff1d00" stroke-width="2" /><polyline fill="none" points="86.7797,97.1932 100.6644,116.2847" stroke="#7f0000" stroke-width="2" /></svg>