<?xml version="1.0" encoding="utf-8" ?>
<svg baseProfile="tiny" height="128" version="1.2" viewBox="0,0,128,128" width="128" xmlns="http://www.w3.org/2000/svg" xmlns:ev="http://www.w3.org/2001/xml-events" xmlns:xlink="http://www.w3.org/1999/xlink"><defs /><polyline fill="none" points="74.449,103.1837 34.3946,87.5102 26.1224,81.8503 20.4626,73.1429 13.0612,54.4218 8.7075,38.7483 8.7075,26.9932 21.3333,15.2381 40.4898,8.7075 59.2109,9.1429 71.4014,12.6259 101.4422,25.2517 114.5034,34.3946 119.2925,50.5034 119.2925,59.6463 116.2449,70.0952 108.4082,85.7687 97.5238,90.9932 76.6259,91.4286 68.3537,88.8163 53.551,88.381 34.3946,84.898" stroke="#00007f" stroke-width="2" /><polyline fill="none" points="84.4626,24.8163 74.8844,28.7347 68.3537,35.7007 66.1769,40.9252 64.4354,52.6803 64.4354,67.0476 67.0476,75.7551 73.5782,87.0748 83.1565,93.6054" stroke="#7cff79" stroke-width="2" /><polyline fill="none" points="30.4762,15.6735 39.619,33.5238 42.2313,50.9388 41.7959,63.1293 31.3469,84.4626" stroke="#7f0000" stroke-width="2" /></svg>