<?xml version="1.0" encoding="utf-8" ?>
<svg baseProfile="tiny" height="128" version="1.2" viewBox="0,0,128,128" width="128" xmlns="http://www.w3.org/2000/svg" xmlns:ev="http://www.w3.org/2001/xml-events" xmlns:xlink="http://www.w3.org/1999/xlink"><defs /><polyline fill="none" points="98.9288,49.8983 89.3831,34.278 75.0644,21.261 52.9356,14.7525 43.8237,16.922 31.6746,23.8644 17.7898,36.8814 14.7525,42.522 12.5831,48.5966 8.678,72.8949 13.8847,91.1186 22.9966,106.739 27.3356,111.078 33.8441,113.2475 60.3119,113.2475 65.5186,112.8136 79.4034,107.1729 86.3458,101.5322 90.2508,96.3254 97.6271,79.8373 98.9288,55.539 98.4949,49.0305 95.4576,42.522" stroke="#00007f" stroke-width="2" /><polyline fill="none" points="79.8373,31.2407 82.8746,65.5186 81.139,86.3458 77.6678,110.2102" stroke="#00d4ff" stroke-width="2" /><polyline fill="none" points="55.9729,16.0542 56.4068,75.9322 52.9356,100.6644 46.861,119.322" stroke="#ffe500" stroke-width="2" /><polyline fill="none" points="30.3729,8.678 32.5424,22.9966 33.4102,44.2576 29.0712,91.5525 22.1288,108.0407" stroke="#7f0000" stroke-width="2" /></svg>