<?xml version="1.0" encoding="utf-8" ?>
<svg baseProfile="tiny" height="128" version="1.2" viewBox="0,0,128,128" width="128" xmlns="http://www.w3.org/2000/svg" xmlns:ev="http://www.w3.org/2001/xml-events" xmlns:xlink="http://www.w3.org/1999/xlink"><defs /><polyline fill="none" points="32.9763,102.8339 27.7695,99.3627 13.4508,94.1559 9.9797,88.5153 8.678,82.0068 8.678,63.3492 13.0169,43.8237 19.9593,27.7695 29.939,14.3186 35.1458,10.8475 46.4271,9.1119 81.5729,9.5458 93.722,12.5831 105.4373,18.2237 108.9085,22.1288 111.5119,30.3729 111.5119,64.2169 104.5695,83.3085 93.722,95.8915 69.4237,117.5864 62.9153,119.322 55.1051,118.0203 46.4271,109.3424 32.1085,91.5525 29.0712,85.478" stroke="#00007f" stroke-width="2" /><polyline fill="none" points="49.8983,8.678 55.539,23.4305 55.9729,30.3729 48.5966,66.8203 43.8237,83.7424 30.8068,95.0237" stroke="#7cff79" stroke-width="2" /><polyline fill="none" points="80.7051,9.1119 77.6678,16.4881 76.8,25.1661 76.8,66.3864 91.9864,97.1932 95.4576,98.061 98.9288,96.3254" stroke="#7f0000" stroke-width="2" /></svg>