<?xml version="1.0" encoding="utf-8" ?>
<svg baseProfile="tiny" height="128" version="1.2" viewBox="0,0,128,128" width="128" xmlns="http://www.w3.org/2000/svg" xmlns:ev="http://www.w3.org/2001/xml-events" xmlns:xlink="http://www.w3.org/1999/xlink"><defs /><polyline fill="none" points="119.322,30.3729 109.7763,29.0712 101.9661,32.9763 102.8339,36.8814 112.8136,38.1831 116.7186,35.5797 116.2847,32.1085 107.6068,30.3729" stroke="#00007f" stroke-width="2" /><polyline fill="none" points="103.2678,34.7119 101.9661,33.8441 86.7797,32.1085 55.539,31.6746 41.2203,35.1458 37.3153,37.7492 35.5797,40.7864 35.5797,43.8237 39.4847,45.9932 58.5763,47.2949 88.9492,42.9559 102.8339,39.4847" stroke="#004cff" stroke-width="2" /><polyline fill="none" points="114.9831,35.5797 114.9831,35.5797" stroke="#29ffcd" stroke-width="2" /><polyline fill="none" points="29.0712,9.1119 24.7322,9.9797 19.0915,13.4508 15.6203,19.0915 16.0542,22.1288 18.2237,24.7322 27.7695,26.9017 32.5424,23.4305 33.8441,17.7898 33.4102,14.3186 27.7695,9.5458 23.4305,8.678 15.6203,9.1119 11.2814,13.8847 10.4136,19.5254 11.2814,22.5627 16.922,26.9017 22.5627,27.7695 25.6,26.4678 29.5051,20.3932 29.5051,14.3186 22.1288,11.2814 13.4508,12.1492 10.4136,14.3186 9.5458,19.5254 12.1492,22.5627 16.0542,24.7322 25.6,25.1661 29.5051,23.4305 30.8068,21.261 30.8068,17.7898 26.9017,15.1864 15.1864,13.8847 11.2814,14.7525 9.1119,17.3559 9.1119,19.5254 17.7898,24.7322 28.6373,25.1661 30.8068,21.6949 27.7695,17.7898 22.1288,15.1864 16.0542,14.7525 11.2814,14.7525 8.678,16.4881 8.678,19.0915 11.7153,22.5627 21.261,25.1661 25.1661,25.1661 26.4678,23.8644 26.9017,21.261 24.2983,17.7898 16.0542,15.6203 13.8847,18.2237 14.3186,22.9966 18.6576,27.3356" stroke="#cdff29" stroke-width="2" /><polyline fill="none" points="16.0542,21.261 16.0542,22.1288 13.8847,22.5627 10.4136,19.9593 10.8475,15.6203 14.3186,13.4508 24.7322,13.8847 29.5051,17.3559 28.6373,23.4305 23.8644,26.4678 23.4305,21.6949 24.7322,17.3559 23.8644,20.8271 20.8271,22.9966 18.2237,20.8271 18.2237,17.3559 19.5254,16.4881 19.9593,20.8271 16.4881,21.6949 14.3186,19.0915 14.7525,16.4881 18.6576,16.922 19.9593,19.0915 19.0915,23.4305 16.922,23.8644 14.3186,20.3932 14.3186,14.7525" stroke="#ff6700" stroke-width="2" /><polyline fill="none" points="23.4305,20.8271 19.9593,12.1492 23.4305,17.3559 23.8644,22.9966 19.5254,24.7322 17.7898,22.9966 17.3559,19.0915 21.6949,19.0915 22.1288,22.9966 20.8271,24.2983 15.6203,23.8644 13.0169,20.3932 13.4508,16.4881 22.9966,15.1864 25.1661,16.922 25.6,19.9593 24.2983,21.6949 19.0915,22.9966 15.6203,22.5627 13.0169,19.9593 19.0915,15.6203 34.278,15.1864 38.1831,16.0542 38.6169,17.7898 35.5797,18.6576 20.3932,19.0915 19.0915,18.6576 25.6,17.3559 15.1864,18.2237 13.8847,16.4881 15.6203,16.0542 26.0339,17.7898 26.0339,18.6576 20.3932,18.6576 14.3186,16.4881 13.8847,15.1864 17.3559,13.4508 24.2983,13.8847 26.0339,14.7525 26.4678,17.7898" stroke="#7f0000" stroke-width="2" /></svg>