<?xml version="1.0" encoding="utf-8" ?>
<svg baseProfile="tiny" height="128" version="1.2" viewBox="0,0,128,128" width="128" xmlns="http://www.w3.org/2000/svg" xmlns:ev="http://www.w3.org/2001/xml-events" xmlns:xlink="http://www.w3.org/1999/xlink"><defs /><polyline fill="none" points="31.6746,11.7153 93.2881,12.5831 105.4373,16.4881 114.1153,22.1288 118.4542,27.7695 119.322,42.522 111.9458,65.9525 94.5898,104.1356 85.9119,111.9458 80.2712,113.2475 40.3525,113.6814 29.939,110.6441 21.261,105.8712 14.7525,98.4949 11.2814,93.2881 9.1119,85.9119 8.678,58.5763 15.6203,32.1085 16.0542,18.2237 17.3559,17.3559" stroke="#00007f" stroke-width="2" /><polyline fill="none" points="30.3729,8.678 31.2407,12.5831 41.6542,25.6 44.6915,33.4102 48.5966,73.7627 47.7288,84.6102 35.5797,108.0407" stroke="#7cff79" stroke-width="2" /><polyline fill="none" points="91.5525,28.6373 84.6102,36.0136 80.7051,44.2576 80.7051,55.539 76.3661,72.8949 77.2339,85.478 80.7051,96.3254 83.3085,98.061" stroke="#7f0000" stroke-width="2" /></svg>