<?xml version="1.0" encoding="utf-8" ?>
<svg baseProfile="tiny" height="128" version="1.2" viewBox="0,0,128,128" width="128" xmlns="http://www.w3.org/2000/svg" xmlns:ev="http://www.w3.org/2001/xml-events" xmlns:xlink="http://www.w3.org/1999/xlink"><defs /><polyline fill="none" points="72.8949,22.5627 43.3898,18.6576 27.7695,19.5254 21.261,25.1661 13.4508,40.7864 8.678,64.6508 8.678,93.722 13.0169,99.7966 23.8644,109.7763 30.3729,113.6814 47.7288,118.4542 80.7051,119.322 85.478,117.5864 92.4203,111.5119 98.4949,99.3627 99.3627,80.2712 88.5153,58.1424 79.8373,43.3898 70.7254,31.6746 64.6508,21.261" stroke="#00007f" stroke-width="2" /><polyline fill="none" points="54.2373,8.678 52.5017,13.0169 52.5017,42.0881 55.9729,53.3695 72.461,68.9898 90.6847,82.4407 96.3254,89.3831" stroke="#00d4ff" stroke-width="2" /><polyline fill="none" points="19.5254,25.1661 36.8814,42.522 42.522,51.6339 51.6339,73.7627 51.6339,82.8746 42.522,105.4373" stroke="#ffe500" stroke-width="2" /><polyline fill="none" points="45.1254,98.061 43.3898,101.9661 43.3898,110.2102" stroke="#7f0000" stroke-width="2" /></svg>