<?xml version="1.0" encoding="utf-8" ?>
<svg baseProfile="tiny" height="128" version="1.2" viewBox="0,0,128,128" width="128" xmlns="http://www.w3.org/2000/svg" xmlns:ev="http://www.w3.org/2001/xml-events" xmlns:xlink="http://www.w3.org/1999/xlink"><defs /><polyline fill="none" points="31.3469,18.2857 29.1701,15.2381 25.2517,14.3673 17.415,15.2381 13.932,17.415 10.0136,22.2041 8.7075,26.5578 8.7075,32.2177 10.8844,37.4422 16.5442,40.9252 26.5578,43.9728 32.2177,41.7959 36.5714,33.9592 37.4422,26.1224 35.2653,19.1565 31.7823,18.7211" stroke="#00007f" stroke-width="2" /><polyline fill="none" points="35.2653,20.4626 18.2857,32.6531 20.898,19.5918 19.5918,13.0612" stroke="#0000e8" stroke-width="2" /><polyline fill="none" points="18.7211,32.2177 14.8027,41.7959" stroke="#0038ff" stroke-width="2" /><polyline fill="none" points="52.6803,8.7075 53.551,22.6395 57.034,16.1088 59.2109,14.8027 59.6463,15.6735 59.2109,18.2857 55.2925,21.3333" stroke="#0094ff" stroke-width="2" /><polyline fill="none" points="67.0476,15.2381 60.9524,19.1565 59.6463,20.4626 60.9524,20.4626" stroke="#0cf4ea" stroke-width="2" /><polyline fill="none" points="65.3061,18.2857 65.7415,19.5918 68.7891,19.5918" stroke="#56ffa0" stroke-width="2" /><polyline fill="none" points="74.0136,15.6735 73.1429,17.8503 75.7551,20.0272 71.4014,20.4626" stroke="#a0ff56" stroke-width="2" /><polyline fill="none" points="77.932,18.7211 87.9456,19.1565 88.381,16.9796 83.1565,18.2857 82.2857,19.5918 85.3333,19.5918" stroke="#eaff0c" stroke-width="2" /><polyline fill="none" points="94.9116,13.0612 93.1701,14.8027 92.7347,25.2517 97.5238,21.3333 94.9116,23.9456" stroke="#ffaa00" stroke-width="2" /><polyline fill="none" points="110.1497,20.0272 101.4422,19.5918 98.3946,24.381 106.2313,20.898 104.9252,26.9932 111.4558,23.9456" stroke="#ff5500" stroke-width="2" /><polyline fill="none" points="114.068,15.6735 111.8912,34.3946" stroke="#e80000" stroke-width="2" /><polyline fill="none" points="119.2925,15.2381 118.4218,30.9116" stroke="#7f0000" stroke-width="2" /></svg>