<?xml version="1.0" encoding="utf-8" ?>
<svg baseProfile="tiny" height="128" version="1.2" viewBox="0,0,128,128" width="128" xmlns="http://www.w3.org/2000/svg" xmlns:ev="http://www.w3.org/2001/xml-events" xmlns:xlink="http://www.w3.org/1999/xlink"><defs /><polyline fill="none" points="14.3186,46.4271 13.0169,39.9186 14.3186,36.4475 22.5627,24.2983 26.9017,20.3932 43.8237,12.1492 64.2169,8.678 78.1017,8.678 84.6102,10.8475 96.3254,17.3559 111.5119,32.1085 118.0203,44.6915 119.322,52.0678 118.0203,67.6881 110.6441,83.7424 101.5322,97.6271 89.8169,108.9085 82.8746,112.8136 70.2915,116.2847 56.8407,116.7186 43.8237,112.3797 32.9763,105.0034 27.3356,99.3627 18.6576,86.7797 12.1492,73.3288 9.1119,58.5763 8.678,39.0508 9.9797,35.1458" stroke="#00007f" stroke-width="2" /><polyline fill="none" points="25.1661,25.6 32.9763,27.7695 39.9186,33.4102 49.8983,46.4271 56.4068,61.6136 57.2746,72.8949 55.9729,79.8373 49.4644,93.722 42.0881,102.4" stroke="#7cff79" stroke-width="2" /><polyline fill="none" points="87.2136,12.1492 82.0068,15.1864 75.4983,29.5051 73.3288,42.522 73.3288,55.539 75.0644,62.0475 78.1017,68.5559 88.5153,79.8373 94.5898,84.6102 108.4746,90.6847" stroke="#7f0000" stroke-width="2" /></svg>