<?xml version="1.0" encoding="utf-8" ?>
<svg baseProfile="tiny" height="128" version="1.2" viewBox="0,0,128,128" width="128" xmlns="http://www.w3.org/2000/svg" xmlns:ev="http://www.w3.org/2001/xml-events" xmlns:xlink="http://www.w3.org/1999/xlink"><defs /><polyline fill="none" points="68.5559,16.4881 52.9356,17.3559 29.0712,28.2034 20.8271,35.1458 11.7153,49.8983 8.678,62.0475 8.678,85.0441 12.5831,95.0237 23.4305,110.2102 30.8068,114.9831 41.2203,118.4542 63.7831,119.322 69.8576,118.0203 76.3661,116.2847 88.5153,108.9085 96.3254,100.2305 101.0983,92.4203 104.1356,81.139 104.1356,65.5186 101.0983,54.2373 87.6475,35.1458 61.1797,8.678" stroke="#00007f" stroke-width="2" /><polyline fill="none" points="32.5424,27.3356 43.3898,47.7288 44.2576,72.461 36.8814,91.1186 28.2034,102.8339 16.0542,114.5492" stroke="#7cff79" stroke-width="2" /><polyline fill="none" points="88.9492,31.6746 84.6102,41.2203 83.3085,61.6136 85.0441,68.9898 93.2881,89.8169 105.0034,101.5322 98.061,95.4576" stroke="#7f0000" stroke-width="2" /></svg>