<?xml version="1.0" encoding="utf-8" ?>
<svg baseProfile="tiny" height="128" version="1.2" viewBox="0,0,128,128" width="128" xmlns="http://www.w3.org/2000/svg" xmlns:ev="http://www.w3.org/2001/xml-events" xmlns:xlink="http://www.w3.org/1999/xlink"><defs /><polyline fill="none" points="88.5153,8.678 57.2746,11.2814 40.3525,14.3186 33.8441,16.922 23.4305,24.7322 19.9593,29.0712 10.4136,46.861 8.678,62.0475 8.678,81.139 10.4136,90.2508 15.1864,100.6644 24.2983,108.9085 38.1831,117.1525 44.6915,119.322 55.1051,119.322 66.3864,115.4169 89.8169,99.7966 98.9288,90.6847 104.5695,80.2712 108.0407,49.4644 106.3051,29.0712 98.061,19.9593 85.0441,9.5458" stroke="#00007f" stroke-width="2" /><polyline fill="none" points="39.4847,15.1864 45.1254,21.6949 55.1051,39.4847 59.878,59.878 55.9729,80.2712 52.5017,90.2508 48.5966,95.0237 46.861,100.6644 38.6169,111.078" stroke="#7cff79" stroke-width="2" /><polyline fill="none" points="92.4203,19.9593 88.5153,29.0712 82.0068,60.3119 82.8746,100.6644" stroke="#7f0000" stroke-width="2" /></svg>