<?xml version="1.0" encoding="utf-8" ?>
<svg baseProfile="tiny" height="128" version="1.2" viewBox="0,0,128,128" width="128" xmlns="http://www.w3.org/2000/svg" xmlns:ev="http://www.w3.org/2001/xml-events" xmlns:xlink="http://www.w3.org/1999/xlink"><defs /><polyline fill="none" points="45.9932,20.3932 40.3525,22.9966 24.7322,36.8814 16.4881,47.7288 8.678,63.3492 8.678,77.6678 12.1492,85.478 17.7898,92.8542 34.278,105.0034 52.9356,113.2475 68.9898,114.1153 85.0441,108.4746 92.8542,104.1356 98.9288,98.9288 110.2102,84.1763 116.7186,69.8576 119.322,58.1424 119.322,43.8237 117.5864,39.4847 109.3424,29.939 100.6644,24.7322 75.9322,13.8847 61.6136,11.2814 37.7492,11.2814 33.4102,12.5831 29.939,17.3559" stroke="#00007f" stroke-width="2" /><polyline fill="none" points="38.6169,8.678 43.8237,19.9593 45.1254,32.5424 45.1254,84.6102 44.2576,93.722 38.6169,106.739" stroke="#7cff79" stroke-width="2" /><polyline fill="none" points="91.1186,19.0915 87.6475,24.7322 84.6102,40.3525 83.7424,93.2881 85.478,101.5322" stroke="#7f0000" stroke-width="2" /></svg>