<?xml version="1.0" encoding="utf-8" ?>
<svg baseProfile="tiny" height="128" version="1.2" viewBox="0,0,128,128" width="128" xmlns="http://www.w3.org/2000/svg" xmlns:ev="http://www.w3.org/2001/xml-events" xmlns:xlink="http://www.w3.org/1999/xlink"><defs /><polyline fill="none" points="57.7085,8.678 48.5966,10.8475 36.8814,18.6576 24.2983,31.6746 15.6203,45.1254 12.1492,53.8034 9.1119,71.5932 8.678,86.3458 9.9797,92.8542 16.4881,105.0034 21.261,109.3424 32.1085,113.2475 40.3525,113.6814 71.5932,113.2475 86.3458,110.6441 103.7017,103.2678 111.5119,95.0237 114.9831,89.3831 117.5864,78.9695 117.5864,63.7831 113.6814,49.0305 107.6068,38.1831 99.3627,30.3729 83.3085,20.8271 67.6881,13.8847 59.0102,12.1492" stroke="#00007f" stroke-width="2" /><polyline fill="none" points="47.7288,12.1492 49.0305,57.7085 47.2949,68.9898 41.6542,87.6475 28.2034,113.2475 23.4305,119.322" stroke="#7cff79" stroke-width="2" /><polyline fill="none" points="68.9898,12.5831 68.9898,48.5966 72.0271,57.7085 82.4407,71.5932 91.5525,77.6678 108.9085,87.2136" stroke="#7f0000" stroke-width="2" /></svg>