<?xml version="1.0" encoding="utf-8" ?>
<svg baseProfile="tiny" height="128" version="1.2" viewBox="0,0,128,128" width="128" xmlns="http://www.w3.org/2000/svg" xmlns:ev="http://www.w3.org/2001/xml-events" xmlns:xlink="http://www.w3.org/1999/xlink"><defs /><polyline fill="none" points="94.1559,28.2034 88.9492,20.3932 76.8,11.2814 68.5559,9.1119 53.3695,8.678 46.861,9.5458 30.3729,18.2237 12.5831,40.3525 8.678,51.6339 9.9797,57.7085 24.2983,80.2712 33.8441,91.9864 48.1627,105.4373 54.6712,109.3424 70.2915,112.8136 82.8746,114.1153 94.1559,109.7763 107.6068,100.2305 114.1153,91.5525 119.322,79.4034 118.4542,66.3864 114.1153,52.0678 109.7763,41.6542 96.7593,23.4305" stroke="#00007f" stroke-width="2" /><polyline fill="none" points="30.3729,11.2814 31.2407,16.0542 42.0881,33.4102 53.8034,42.522 64.2169,46.861 75.4983,47.2949 79.8373,45.5593 85.0441,41.2203 91.9864,32.1085 94.1559,25.6 94.1559,28.2034" stroke="#00d4ff" stroke-width="2" /><polyline fill="none" points="49.0305,41.2203 51.2,48.5966 48.5966,57.7085 40.7864,72.8949 29.0712,83.7424 31.6746,86.3458" stroke="#ffe500" stroke-width="2" /><polyline fill="none" points="72.461,46.4271 73.3288,51.6339 75.9322,55.9729 105.8712,91.9864" stroke="#7f0000" stroke-width="2" /></svg>