<?xml version="1.0" encoding="utf-8" ?>
<svg baseProfile="tiny" height="128" version="1.2" viewBox="0,0,128,128" width="128" xmlns="http://www.w3.org/2000/svg" xmlns:ev="http://www.w3.org/2001/xml-events" xmlns:xlink="http://www.w3.org/1999/xlink"><defs /><polyline fill="none" points="30.8068,16.922 50.7661,10.4136 64.6508,8.678 75.0644,9.5458 87.6475,13.8847 101.5322,22.9966 110.2102,33.4102 116.2847,45.5593 119.322,59.4441 118.0203,72.8949 113.2475,84.6102 104.1356,95.8915 90.6847,105.0034 73.3288,109.3424 58.5763,109.7763 42.522,106.739 32.1085,102.4 22.9966,96.3254 16.4881,88.0814 11.7153,76.3661 8.678,59.4441 9.9797,47.7288 16.0542,31.6746 21.261,22.9966 30.3729,13.8847 32.9763,14.3186 37.3153,22.1288 39.9186,31.6746 42.0881,52.0678 39.9186,79.4034 33.8441,99.7966" stroke="#00007f" stroke-width="2" /><polyline fill="none" points="96.3254,16.0542 91.9864,20.8271 85.478,32.1085 82.0068,41.6542 79.4034,54.6712 79.4034,61.6136 82.0068,74.1966 90.2508,91.9864" stroke="#7f0000" stroke-width="2" /></svg>