<?xml version="1.0" encoding="utf-8" ?>
<svg baseProfile="tiny" height="128" version="1.2" viewBox="0,0,128,128" width="128" xmlns="http://www.w3.org/2000/svg" xmlns:ev="http://www.w3.org/2001/xml-events" xmlns:xlink="http://www.w3.org/1999/xlink"><defs /><polyline fill="none" points="27.7695,9.5458 21.6949,13.4508 16.0542,19.9593 9.5458,33.8441 8.678,42.0881 13.4508,64.2169 26.0339,68.122 59.0102,71.5932 73.3288,71.5932 97.1932,62.0475 108.4746,43.3898 116.2847,35.1458 119.322,24.7322 68.9898,13.0169 22.1288,8.678 22.9966,10.8475" stroke="#00007f" stroke-width="2" /><polyline fill="none" points="22.9966,10.8475 30.3729,17.7898 38.1831,52.9356 37.7492,63.7831 33.4102,68.122" stroke="#004cff" stroke-width="2" /><polyline fill="none" points="92.4203,16.922 80.2712,32.5424 70.2915,55.1051 70.2915,60.7458 78.5356,65.9525" stroke="#29ffcd" stroke-width="2" /><polyline fill="none" points="32.1085,26.0339 38.6169,24.2983" stroke="#cdff29" stroke-width="2" /><polyline fill="none" points="29.5051,33.8441 32.1085,33.4102 38.1831,37.3153" stroke="#ff6700" stroke-width="2" /><polyline fill="none" points="30.3729,53.8034 35.5797,55.539 40.3525,63.3492" stroke="#7f0000" stroke-width="2" /></svg>