<?xml version="1.0" encoding="utf-8" ?>
<svg baseProfile="tiny" height="128" version="1.2" viewBox="0,0,128,128" width="128" xmlns="http://www.w3.org/2000/svg" xmlns:ev="http://www.w3.org/2001/xml-events" xmlns:xlink="http://www.w3.org/1999/xlink"><defs /><polyline fill="none" points="69.0239,20.5324 62.0341,13.1058 54.6075,10.0478 42.8123,9.6109 36.6962,11.3584 30.1433,14.8532 18.785,24.4642 10.4846,37.57 8.7372,44.1229 8.7372,56.3549 11.7952,62.471 16.1638,67.7133 28.8328,77.3242 45.4334,84.314 65.529,85.1877 75.5768,83.8771 94.3618,78.198 102.6621,73.8294 114.0205,65.0922 117.0785,59.8498 119.2628,54.1706 119.2628,44.1229 116.6416,38.4437 108.3413,27.5222 96.5461,18.3481 84.314,12.6689 69.8976,9.1741 55.0444,8.7372 43.686,11.3584 38.8805,14.4164" stroke="#00007f" stroke-width="2" /><polyline fill="none" points="42.3754,15.2901 43.2491,18.785" stroke="#0000d5" stroke-width="2" /><polyline fill="none" points="48.4915,31.8908 49.3652,35.3857" stroke="#001cff" stroke-width="2" /><polyline fill="none" points="47.1809,42.3754 46.744,48.0546" stroke="#006cff" stroke-width="2" /><polyline fill="none" points="48.4915,59.8498 48.4915,59.8498" stroke="#00b8ff" stroke-width="2" /><polyline fill="none" points="52.4232,69.4608 53.2969,73.8294" stroke="#1cffda" stroke-width="2" /><polyline fill="none" points="76.4505,12.6689 76.8874,20.9693" stroke="#5cff9a" stroke-width="2" /><polyline fill="none" points="80.3823,39.3174 81.256,44.5597" stroke="#9aff5c" stroke-width="2" /><polyline fill="none" points="80.8191,56.7918 81.256,60.2867" stroke="#daff1c" stroke-width="2" /><polyline fill="none" points="83.8771,70.3345 85.6246,77.3242" stroke="#ffcb00" stroke-width="2" /><polyline fill="none" points="45.8703,30.5802 51.1126,58.5392" stroke="#ff8500" stroke-width="2" /><polyline fill="none" points="51.9863,75.5768 53.7338,79.5085" stroke="#ff3b00" stroke-width="2" /><polyline fill="none" points="44.1229,13.5427 54.1706,70.3345 57.6655,83.4403" stroke="#d50000" stroke-width="2" /><polyline fill="none" points="75.1399,9.1741 76.0137,54.1706 82.5666,82.5666" stroke="#7f0000" stroke-width="2" /></svg>