<?xml version="1.0" encoding="utf-8" ?>
<svg baseProfile="tiny" height="128" version="1.2" viewBox="0,0,128,128" width="128" xmlns="http://www.w3.org/2000/svg" xmlns:ev="http://www.w3.org/2001/xml-events" xmlns:xlink="http://www.w3.org/1999/xlink"><defs /><polyline fill="none" points="82.4407,11.2814 70.2915,8.678 61.6136,8.678 40.7864,19.0915 24.2983,32.9763 14.7525,46.861 9.9797,58.5763 8.678,83.7424 15.1864,98.9288 20.3932,103.7017 29.5051,111.5119 45.1254,118.0203 67.6881,119.322 82.0068,112.3797 90.6847,104.5695 97.6271,90.6847 100.6644,78.9695 100.2305,52.9356 95.0237,31.2407 84.1763,9.5458" stroke="#00007f" stroke-width="2" /><polyline fill="none" points="37.3153,22.1288 41.2203,26.9017 49.4644,46.4271 53.3695,59.878 54.2373,78.1017 51.2,88.9492 45.9932,99.3627 42.0881,105.4373 33.8441,113.6814" stroke="#0028ff" stroke-width="2" /><polyline fill="none" points="84.1763,22.5627 83.3085,30.8068 76.3661,66.3864 74.6305,96.3254 80.2712,108.9085 83.3085,111.5119 86.7797,111.078" stroke="#00d4ff" stroke-width="2" /><polyline fill="none" points="76.8,34.7119 82.4407,37.3153 88.5153,37.3153" stroke="#7cff79" stroke-width="2" /><polyline fill="none" points="69.4237,64.6508 78.1017,65.0847" stroke="#ffe500" stroke-width="2" /><polyline fill="none" points="74.1966,85.9119 84.1763,86.7797" stroke="#ff4600" stroke-width="2" /><polyline fill="none" points="79.4034,105.4373 89.3831,105.8712" stroke="#7f0000" stroke-width="2" /></svg>