<?xml version="1.0" encoding="utf-8" ?>
<svg baseProfile="tiny" height="128" version="1.2" viewBox="0,0,128,128" width="128" xmlns="http://www.w3.org/2000/svg" xmlns:ev="http://www.w3.org/2001/xml-events" xmlns:xlink="http://www.w3.org/1999/xlink"><defs /><polyline fill="none" points="38.8805,9.6109 32.7645,8.7372 27.5222,10.4846 22.2799,14.4164 15.2901,25.7747 8.7372,45.8703 8.7372,70.7713 20.9693,81.6928 31.4539,86.0614 55.0444,90.43 80.3823,90.43 90.8669,87.8089 96.9829,83.8771 102.6621,77.3242 107.9044,68.1502 114.4573,51.5495 114.4573,34.9488 107.4676,26.2116 96.9829,19.2218 82.1297,15.2901 62.471,13.5427 34.0751,13.5427" stroke="#00007f" stroke-width="2" /><polyline fill="none" points="17.9113,16.6007 25.7747,16.1638 34.9488,20.5324 44.5597,32.3276 51.9863,49.802 54.6075,62.9078 54.6075,74.7031 53.2969,79.0717 45.8703,87.372 35.3857,90.43" stroke="#7cff79" stroke-width="2" /><polyline fill="none" points="119.2628,32.3276 114.4573,31.0171 95.2355,31.8908 77.3242,41.0648 71.2082,47.1809 63.3447,62.0341 62.0341,75.5768 63.3447,79.9454 67.2765,83.0034 75.1399,87.8089 81.6928,88.6826" stroke="#7f0000" stroke-width="2" /></svg>