<?xml version="1.0" encoding="utf-8" ?>
<svg baseProfile="tiny" height="128" version="1.2" viewBox="0,0,128,128" width="128" xmlns="http://www.w3.org/2000/svg" xmlns:ev="http://www.w3.org/2001/xml-events" xmlns:xlink="http://www.w3.org/1999/xlink"><defs /><polyline fill="none" points="75.0644,11.2814 72.8949,12.1492 45.1254,12.1492 32.1085,15.6203 21.261,22.1288 12.5831,33.8441 9.1119,49.0305 8.678,63.7831 10.4136,78.9695 13.0169,86.3458 19.5254,97.6271 34.278,111.5119 40.3525,114.9831 53.3695,118.4542 72.0271,119.322 78.9695,118.4542 90.2508,113.6814 103.2678,105.0034 109.3424,97.6271 113.6814,87.2136 114.9831,78.1017 114.1153,53.8034 112.3797,44.6915 103.7017,22.1288 96.3254,13.8847 91.1186,9.9797 85.478,8.678 75.4983,9.5458 73.3288,23.4305 61.1797,65.5186 51.2,58.1424 26.4678,32.5424 15.6203,24.7322" stroke="#00007f" stroke-width="2" /><polyline fill="none" points="64.2169,63.7831 60.7458,68.5559 34.278,88.5153 23.4305,98.9288" stroke="#00d4ff" stroke-width="2" /><polyline fill="none" points="65.5186,63.3492 62.0475,68.122 85.478,102.8339 88.0814,110.2102 88.0814,106.739" stroke="#ffe500" stroke-width="2" /><polyline fill="none" points="64.6508,65.5186 94.5898,61.1797 116.2847,59.878" stroke="#7f0000" stroke-width="2" /></svg>