<?xml version="1.0" encoding="utf-8" ?>
<svg baseProfile="tiny" height="128" version="1.2" viewBox="0,0,128,128" width="128" xmlns="http://www.w3.org/2000/svg" xmlns:ev="http://www.w3.org/2001/xml-events" xmlns:xlink="http://www.w3.org/1999/xlink"><defs /><polyline fill="none" points="16.5442,13.0612 24.8163,9.1429 32.6531,8.7075 65.3061,10.0136 94.9116,20.0272 112.7619,30.9116 115.3741,35.2653 119.2925,47.8912 119.2925,64.8707 109.7143,75.7551 97.5238,81.8503 85.3333,84.0272 53.1156,85.3333 49.1973,84.0272 33.9592,71.4014 24.381,61.3878 18.2857,52.6803 9.1429,34.8299 8.7075,29.1701 26.1224,13.932" stroke="#00007f" stroke-width="2" /><polyline fill="none" points="28.7347,10.0136 32.2177,10.0136 38.7483,14.8027 43.9728,21.7687 50.9388,49.1973 50.9388,72.7075 53.551,80.5442" stroke="#0028ff" stroke-width="2" /><polyline fill="none" points="88.8163,16.9796 84.898,38.3129 83.5918,62.6939 87.9456,75.7551 93.1701,83.5918 94.9116,84.0272" stroke="#00d4ff" stroke-width="2" /><polyline fill="none" points="46.1497,32.2177 63.1293,27.8639" stroke="#7cff79" stroke-width="2" /><polyline fill="none" points="60.0816,30.9116 49.1973,36.5714" stroke="#ffe500" stroke-width="2" /><polyline fill="none" points="55.2925,43.102 53.1156,47.0204 36.5714,53.551" stroke="#ff4600" stroke-width="2" /><polyline fill="none" points="58.7755,52.6803 37.0068,57.034 33.9592,58.7755" stroke="#7f0000" stroke-width="2" /></svg>