<?xml version="1.0" encoding="utf-8" ?>
<svg baseProfile="tiny" height="128" version="1.2" viewBox="0,0,128,128" width="128" xmlns="http://www.w3.org/2000/svg" xmlns:ev="http://www.w3.org/2001/xml-events" xmlns:xlink="http://www.w3.org/1999/xlink"><defs /><polyline fill="none" points="49.4644,113.6814 30.3729,113.2475 22.5627,108.0407 16.0542,101.0983 10.4136,88.0814 8.678,78.5356 10.8475,58.5763 19.5254,38.1831 33.8441,21.6949 51.2,11.7153 64.6508,8.678 74.6305,9.1119 82.0068,12.5831 87.6475,17.7898 96.7593,29.5051 101.0983,38.6169 105.0034,55.9729 102.4,75.0644 90.2508,92.8542 68.122,114.9831 64.6508,116.7186 56.4068,117.1525 36.4475,112.3797" stroke="#00007f" stroke-width="2" /><polyline fill="none" points="37.7492,18.2237 32.1085,29.0712 29.5051,49.4644 28.6373,67.2542 29.939,100.2305 33.8441,119.322" stroke="#0010ff" stroke-width="2" /><polyline fill="none" points="81.5729,16.0542 75.9322,29.5051 73.7627,40.3525 72.8949,54.6712 76.8,98.061 80.7051,115.8508" stroke="#00a4ff" stroke-width="2" /><polyline fill="none" points="75.4983,23.8644 70.2915,42.522 64.6508,103.2678" stroke="#3fffb7" stroke-width="2" /><polyline fill="none" points="51.6339,25.6 51.6339,60.7458 53.8034,79.4034 58.1424,99.7966" stroke="#b7ff3f" stroke-width="2" /><polyline fill="none" points="56.8407,17.3559 51.2,26.4678 46.861,37.7492 44.2576,52.9356 44.6915,74.6305 49.0305,99.3627 52.5017,111.078" stroke="#ffb900" stroke-width="2" /><polyline fill="none" points="44.6915,25.6 37.3153,46.4271 36.4475,66.8203 40.3525,91.1186 46.4271,110.6441" stroke="#ff3000" stroke-width="2" /><polyline fill="none" points="13.0169,61.1797 73.3288,36.4475 93.2881,30.8068 106.739,29.5051" stroke="#7f0000" stroke-width="2" /></svg>