<?xml version="1.0" encoding="utf-8" ?>
<svg baseProfile="tiny" height="128" version="1.2" viewBox="0,0,128,128" width="128" xmlns="http://www.w3.org/2000/svg" xmlns:ev="http://www.w3.org/2001/xml-events" xmlns:xlink="http://www.w3.org/1999/xlink"><defs /><polyline fill="none" points="28.2034,16.0542 22.5627,19.9593 18.2237,26.0339 13.8847,33.8441 10.4136,44.2576 8.678,63.7831 11.7153,71.5932 17.3559,77.6678 24.7322,81.5729 33.8441,84.6102 45.5593,85.9119 70.7254,85.478 84.1763,82.8746 96.3254,77.6678 106.739,72.0271 114.1153,65.0847 118.4542,58.1424 119.322,43.8237 118.0203,36.0136 114.5492,28.6373 109.3424,22.1288 102.4,16.4881 93.2881,12.1492 74.6305,8.678 56.8407,8.678 48.5966,10.8475 41.6542,14.3186" stroke="#00007f" stroke-width="2" /><polyline fill="none" points="44.2576,13.8847 47.2949,17.7898 49.0305,26.4678 48.5966,41.6542 38.1831,59.878 31.6746,66.3864 22.9966,72.8949" stroke="#0028ff" stroke-width="2" /><polyline fill="none" points="75.4983,14.7525 72.461,36.0136 72.461,51.6339 81.5729,69.4237 89.8169,79.4034" stroke="#00d4ff" stroke-width="2" /><polyline fill="none" points="35.5797,29.5051 38.1831,27.3356 54.6712,23.4305" stroke="#7cff79" stroke-width="2" /><polyline fill="none" points="26.4678,44.6915 49.4644,38.6169" stroke="#ffe500" stroke-width="2" /><polyline fill="none" points="28.2034,55.1051 36.8814,55.539 51.2,60.3119" stroke="#ff4600" stroke-width="2" /><polyline fill="none" points="70.2915,24.7322 72.461,22.9966" stroke="#7f0000" stroke-width="2" /></svg>