<?xml version="1.0" encoding="utf-8" ?>
<svg baseProfile="tiny" height="128" version="1.2" viewBox="0,0,128,128" width="128" xmlns="http://www.w3.org/2000/svg" xmlns:ev="http://www.w3.org/2001/xml-events" xmlns:xlink="http://www.w3.org/1999/xlink"><defs /><polyline fill="none" points="25.1661,21.6949 21.6949,21.6949 18.2237,24.2983 8.678,50.3322 8.678,74.6305 10.8475,82.4407 19.5254,94.5898 35.1458,103.7017 42.9559,106.3051 48.1627,106.3051 67.2542,98.9288 79.8373,98.061 90.6847,83.7424 96.7593,72.8949 103.7017,44.2576 103.7017,36.0136 101.5322,25.6 93.2881,18.2237 81.5729,11.2814 72.8949,8.678 48.1627,8.678 35.1458,14.3186 31.2407,14.7525 16.922,21.6949 13.4508,25.1661 12.1492,24.2983" stroke="#00007f" stroke-width="2" /><polyline fill="none" points="20.3932,19.5254 27.7695,24.2983 32.5424,31.2407 36.0136,42.9559 37.3153,55.1051 37.3153,87.2136 36.0136,93.2881 21.6949,114.5492 18.2237,115.8508 14.7525,119.322" stroke="#7cff79" stroke-width="2" /><polyline fill="none" points="75.4983,10.8475 72.8949,14.7525 66.8203,40.7864 66.8203,68.122 71.5932,78.9695 77.6678,84.6102 84.6102,101.5322" stroke="#7f0000" stroke-width="2" /></svg>