<?xml version="1.0" encoding="utf-8" ?>
<svg baseProfile="tiny" height="128" version="1.2" viewBox="0,0,128,128" width="128" xmlns="http://www.w3.org/2000/svg" xmlns:ev="http://www.w3.org/2001/xml-events" xmlns:xlink="http://www.w3.org/1999/xlink"><defs /><polyline fill="none" points="79.4034,13.0169 76.8,11.2814 72.0271,11.2814 50.7661,16.922 41.2203,22.1288 32.1085,29.5051 19.0915,43.8237 10.4136,58.5763 8.678,65.9525 9.9797,80.7051 19.5254,92.4203 26.9017,97.1932 45.5593,103.2678 73.7627,102.8339 88.9492,97.6271 97.6271,93.2881 104.5695,87.2136 114.9831,72.8949 118.8881,61.6136 119.322,55.1051 108.0407,35.5797 102.4,29.0712 86.3458,17.3559 78.5356,9.1119" stroke="#00007f" stroke-width="2" /><polyline fill="none" points="76.8,8.678 74.6305,10.8475 74.1966,16.0542 54.2373,78.5356 50.7661,113.2475 49.8983,114.9831 48.5966,114.1153" stroke="#7cff79" stroke-width="2" /><polyline fill="none" points="90.2508,35.1458 90.2508,35.1458" stroke="#7f0000" stroke-width="2" /></svg>