<?xml version="1.0" encoding="utf-8" ?>
<svg baseProfile="tiny" height="128" version="1.2" viewBox="0,0,128,128" width="128" xmlns="http://www.w3.org/2000/svg" xmlns:ev="http://www.w3.org/2001/xml-events" xmlns:xlink="http://www.w3.org/1999/xlink"><defs /><polyline fill="none" points="35.5797,29.5051 33.4102,29.0712 21.261,36.4475 11.7153,45.5593 9.5458,50.7661 8.678,68.122 11.2814,79.8373 16.4881,91.5525 22.9966,101.5322 31.6746,108.4746 43.3898,114.5492 54.2373,117.1525 80.2712,118.4542 99.7966,112.3797 107.6068,106.739 112.8136,101.5322 116.7186,95.4576 119.322,82.4407 118.4542,75.4983 110.2102,61.6136 95.8915,45.1254 75.4983,27.7695 55.1051,14.7525 40.7864,8.678 33.4102,8.678 30.3729,9.9797 27.3356,14.7525 25.6,20.8271" stroke="#00007f" stroke-width="2" /><polyline fill="none" points="48.5966,16.922 48.5966,22.9966 51.6339,39.0508 51.6339,55.539 48.5966,94.1559 43.8237,109.3424 41.2203,113.2475 36.0136,116.7186 36.4475,115.4169" stroke="#7cff79" stroke-width="2" /><polyline fill="none" points="77.2339,33.4102 67.2542,56.8407 65.5186,64.2169 65.5186,76.8 72.461,94.5898 79.4034,104.1356 84.1763,108.4746" stroke="#7f0000" stroke-width="2" /></svg>