<?xml version="1.0" encoding="utf-8" ?>
<svg baseProfile="tiny" height="128" version="1.2" viewBox="0,0,128,128" width="128" xmlns="http://www.w3.org/2000/svg" xmlns:ev="http://www.w3.org/2001/xml-events" xmlns:xlink="http://www.w3.org/1999/xlink"><defs /><polyline fill="none" points="82.8746,16.4881 75.0644,10.4136 68.5559,8.678 55.539,8.678 51.2,9.9797 32.1085,20.3932 22.9966,28.6373 15.1864,39.0508 9.1119,56.4068 8.678,73.7627 13.0169,92.8542 17.7898,100.6644 24.2983,106.3051 33.8441,111.5119 50.7661,117.1525 69.8576,119.322 81.139,118.4542 95.4576,108.9085 113.2475,84.1763 118.8881,67.6881 119.322,50.7661 117.1525,42.9559 106.739,27.7695 98.9288,19.9593 85.478,12.1492 75.4983,11.2814" stroke="#00007f" stroke-width="2" /><polyline fill="none" points="73.3288,10.8475 78.9695,21.6949 85.0441,49.0305 88.5153,93.722 88.0814,113.6814" stroke="#7f0000" stroke-width="2" /></svg>