<?xml version="1.0" encoding="utf-8" ?>
<svg baseProfile="tiny" height="128" version="1.2" viewBox="0,0,128,128" width="128" xmlns="http://www.w3.org/2000/svg" xmlns:ev="http://www.w3.org/2001/xml-events" xmlns:xlink="http://www.w3.org/1999/xlink"><defs /><polyline fill="none" points="72.9556,13.5427 40.1911,22.2799 13.5427,38.0068 8.7372,47.6177 8.7372,53.2969 11.3584,60.7235 20.5324,70.7713 36.2594,84.7509 45.4334,89.5563 56.3549,92.6143 76.0137,93.4881 84.7509,91.3038 107.4676,79.5085 114.8942,72.0819 119.2628,65.0922 118.8259,55.9181 114.0205,36.2594 107.4676,20.9693 102.2253,15.2901 96.1092,11.7952 85.1877,12.6689 76.8874,8.7372" stroke="#00007f" stroke-width="2" /><polyline fill="none" points="39.7543,26.6485 42.8123,28.3959 48.0546,36.2594 49.802,50.2389 48.9283,69.8976 46.744,76.4505 42.8123,82.1297" stroke="#7f0000" stroke-width="2" /></svg>