<?xml version="1.0" encoding="utf-8" ?>
<svg baseProfile="tiny" height="128" version="1.2" viewBox="0,0,128,128" width="128" xmlns="http://www.w3.org/2000/svg" xmlns:ev="http://www.w3.org/2001/xml-events" xmlns:xlink="http://www.w3.org/1999/xlink"><defs /><polyline fill="none" points="57.2746,9.5458 34.278,19.5254 26.0339,25.6 18.6576,34.278 10.8475,50.7661 9.1119,60.7458 8.678,74.1966 12.5831,85.0441 17.3559,91.1186 23.8644,96.7593 33.4102,102.8339 43.8237,106.3051 56.4068,107.6068 68.9898,107.6068 79.8373,105.8712 89.8169,101.9661 98.9288,95.8915 106.3051,88.9492 112.8136,79.8373 116.7186,70.7254 119.322,61.6136 118.8881,45.1254 117.1525,36.8814 112.8136,28.2034 105.8712,21.261 90.6847,13.0169 78.1017,9.5458 66.8203,8.678 60.7458,8.678 51.6339,11.2814" stroke="#00007f" stroke-width="2" /><polyline fill="none" points="51.6339,14.3186 55.1051,23.8644 55.9729,32.1085 55.539,40.7864 52.5017,50.7661 41.2203,64.2169 30.8068,71.5932 22.1288,75.4983" stroke="#7cff79" stroke-width="2" /><polyline fill="none" points="94.5898,23.4305 86.3458,39.4847 82.0068,56.4068 80.2712,68.9898 80.2712,88.9492 82.4407,98.9288" stroke="#7f0000" stroke-width="2" /></svg>