<?xml version="1.0" encoding="utf-8" ?>
<svg baseProfile="tiny" height="128" version="1.2" viewBox="0,0,128,128" width="128" xmlns="http://www.w3.org/2000/svg" xmlns:ev="http://www.w3.org/2001/xml-events" xmlns:xlink="http://www.w3.org/1999/xlink"><defs /><polyline fill="none" points="54.6712,12.1492 48.5966,8.678 45.1254,9.5458 31.6746,19.0915 23.4305,27.3356 15.6203,42.9559 8.678,70.7254 9.9797,85.478 18.2237,102.8339 30.8068,114.5492 39.4847,118.4542 46.4271,119.322 55.9729,119.322 59.878,117.5864 81.5729,104.1356 86.7797,98.9288 94.5898,88.0814 97.1932,77.2339 96.7593,65.9525 95.0237,57.7085 91.9864,49.0305 84.6102,38.1831 68.9898,20.3932 61.6136,16.4881 47.7288,11.7153" stroke="#00007f" stroke-width="2" /><polyline fill="none" points="44.2576,9.9797 36.8814,22.9966 30.3729,43.3898 28.2034,60.3119 27.7695,90.6847 28.6373,97.6271 32.9763,106.739 40.3525,113.6814 44.2576,115.8508 44.6915,114.9831" stroke="#7cff79" stroke-width="2" /><polyline fill="none" points="19.0915,59.4441 21.6949,60.7458 59.0102,63.3492 67.2542,62.0475" stroke="#7f0000" stroke-width="2" /></svg>