<?xml version="1.0" encoding="utf-8" ?>
<svg baseProfile="tiny" height="128" version="1.2" viewBox="0,0,128,128" width="128" xmlns="http://www.w3.org/2000/svg" xmlns:ev="http://www.w3.org/2001/xml-events" xmlns:xlink="http://www.w3.org/1999/xlink"><defs /><polyline fill="none" points="108.9085,74.6305 110.2102,71.5932 106.739,55.1051 97.1932,33.4102 93.722,27.7695 84.6102,19.0915 71.1593,12.5831 54.6712,8.678 36.4475,9.5458 29.5051,11.2814 23.4305,14.7525 15.1864,24.2983 9.9797,38.1831 8.678,45.5593 11.7153,64.6508 19.5254,86.3458 26.4678,91.1186 44.2576,91.1186 116.2847,72.0271 118.8881,67.6881 119.322,63.7831 117.5864,56.8407 114.1153,52.0678" stroke="#00007f" stroke-width="2" /><polyline fill="none" points="78.5356,22.9966 76.8,25.6 68.5559,31.2407" stroke="#0010ff" stroke-width="2" /><polyline fill="none" points="66.3864,54.6712 68.9898,72.8949 66.3864,83.7424" stroke="#00a4ff" stroke-width="2" /><polyline fill="none" points="31.6746,14.3186 39.4847,48.5966" stroke="#3fffb7" stroke-width="2" /><polyline fill="none" points="40.3525,58.5763 35.1458,70.2915" stroke="#b7ff3f" stroke-width="2" /><polyline fill="none" points="24.7322,86.7797 21.261,93.2881" stroke="#ffb900" stroke-width="2" /><polyline fill="none" points="26.0339,88.9492 42.0881,61.6136 44.2576,51.2 43.3898,35.5797 41.2203,27.7695 37.3153,17.7898 32.5424,14.3186" stroke="#ff3000" stroke-width="2" /><polyline fill="none" points="75.9322,24.2983 72.461,23.4305 68.122,31.6746 65.0847,55.1051 62.9153,62.0475 64.6508,81.139 66.3864,83.7424" stroke="#7f0000" stroke-width="2" /></svg>