<?xml version="1.0" encoding="utf-8" ?>
<svg baseProfile="tiny" height="128" version="1.2" viewBox="0,0,128,128" width="128" xmlns="http://www.w3.org/2000/svg" xmlns:ev="http://www.w3.org/2001/xml-events" xmlns:xlink="http://www.w3.org/1999/xlink"><defs /><polyline fill="none" points="64.6553,17.4744 48.4915,9.1741 41.9386,8.7372 32.7645,12.2321 23.1536,21.4061 13.9795,36.2594 8.7372,53.2969 11.3584,69.4608 15.2901,84.314 29.2696,90.43 55.0444,95.2355 106.5939,84.314 113.1468,80.3823 119.2628,72.5188 119.2628,68.587 88.6826,38.0068" stroke="#00007f" stroke-width="2" /><polyline fill="none" points="67.2765,19.6587 85.1877,34.9488" stroke="#0000ff" stroke-width="2" /><polyline fill="none" points="29.2696,12.2321 31.8908,19.2218 32.3276,26.6485 32.3276,31.0171 30.1433,35.3857 26.2116,38.0068 13.5427,34.5119" stroke="#0080ff" stroke-width="2" /><polyline fill="none" points="78.198,83.8771 76.4505,81.256 74.7031,68.1502 81.256,45.4334 89.9932,25.7747 98.7304,11.3584 100.041,12.2321" stroke="#15ffe1" stroke-width="2" /><polyline fill="none" points="61.1604,63.3447 79.5085,67.2765" stroke="#7cff79" stroke-width="2" /><polyline fill="none" points="22.7167,37.1331 22.7167,37.1331" stroke="#e4ff12" stroke-width="2" /><polyline fill="none" points="21.843,35.8225 26.6485,46.744" stroke="#ff9400" stroke-width="2" /><polyline fill="none" points="30.1433,25.7747 33.6382,26.6485" stroke="#ff1d00" stroke-width="2" /><polyline fill="none" points="73.8294,45.8703 91.3038,50.6758" stroke="#7f0000" stroke-width="2" /></svg>