<?xml version="1.0" encoding="utf-8" ?>
<svg baseProfile="tiny" height="128" version="1.2" viewBox="0,0,128,128" width="128" xmlns="http://www.w3.org/2000/svg" xmlns:ev="http://www.w3.org/2001/xml-events" xmlns:xlink="http://www.w3.org/1999/xlink"><defs /><polyline fill="none" points="11.7551,59.6463 10.0136,57.034 10.0136,47.0204 14.8027,29.6054 20.898,19.5918 30.0408,13.4966 43.9728,8.7075 67.483,8.7075 81.415,19.1565 86.6395,27.4286 94.0408,51.8095 101.0068,83.5918 99.2653,95.3469 95.3469,103.619 90.1224,109.7143 84.4626,113.6327 69.6599,118.8571 48.7619,117.551 20.0272,106.2313 11.3197,97.0884 8.7075,84.4626 9.1429,53.551 11.7551,35.2653" stroke="#00007f" stroke-width="2" /><polyline fill="none" points="23.0748,16.1088 40.4898,104.4898 40.4898,112.3265 38.7483,119.2925" stroke="#004cff" stroke-width="2" /><polyline fill="none" points="61.8231,15.2381 63.1293,20.898 63.1293,75.3197 66.6122,90.5578 68.7891,95.3469 77.4966,103.619 88.381,107.5374 100.1361,108.8435" stroke="#29ffcd" stroke-width="2" /><polyline fill="none" points="9.5782,63.1293 14.8027,59.6463 33.5238,53.9864 53.9864,51.3741" stroke="#cdff29" stroke-width="2" /><polyline fill="none" points="22.2041,92.7347 41.7959,94.0408" stroke="#ff6700" stroke-width="2" /><polyline fill="none" points="29.1701,111.8912 41.7959,117.9864 60.517,118.4218" stroke="#7f0000" stroke-width="2" /></svg>