<?xml version="1.0" encoding="utf-8" ?>
<svg baseProfile="tiny" height="128" version="1.2" viewBox="0,0,128,128" width="128" xmlns="http://www.w3.org/2000/svg" xmlns:ev="http://www.w3.org/2001/xml-events" xmlns:xlink="http://www.w3.org/1999/xlink"><defs /><polyline fill="none" points="42.6667,12.1905 29.1701,16.1088 18.2857,23.9456 12.1905,30.9116 8.7075,41.7959 9.5782,58.3401 13.4966,68.7891 24.381,84.4626 35.2653,91.4286 45.7143,95.3469 58.7755,96.6531 72.2721,95.3469 78.8027,92.2993 94.0408,83.1565 100.5714,77.0612 115.8095,56.5986 119.2925,47.0204 119.2925,38.3129 116.6803,31.3469 104.9252,22.6395 93.6054,16.5442 83.5918,12.1905 70.5306,10.0136 48.3265,8.7075 42.6667,10.449" stroke="#00007f" stroke-width="2" /><polyline fill="none" points="29.6054,16.5442 39.1837,37.8776 40.4898,47.0204 39.619,63.1293 33.0884,81.8503" stroke="#7cff79" stroke-width="2" /><polyline fill="none" points="87.0748,13.4966 80.5442,27.4286 78.8027,37.0068 79.2381,44.4082 86.2041,69.6599 91.4286,80.5442 94.0408,82.7211" stroke="#7f0000" stroke-width="2" /></svg>