<?xml version="1.0" encoding="utf-8" ?>
<svg baseProfile="tiny" height="128" version="1.2" viewBox="0,0,128,128" width="128" xmlns="http://www.w3.org/2000/svg" xmlns:ev="http://www.w3.org/2001/xml-events" xmlns:xlink="http://www.w3.org/1999/xlink"><defs /><polyline fill="none" points="107.6068,28.6373 106.3051,23.4305 100.2305,17.3559 90.2508,11.7153 77.6678,8.678 65.9525,9.5458 51.2,13.4508 34.278,20.8271 25.1661,27.3356 18.2237,35.5797 12.1492,47.7288 8.678,66.8203 11.7153,84.6102 17.7898,95.0237 22.9966,100.2305 28.2034,104.5695 46.861,113.6814 61.1797,117.1525 71.1593,117.5864 81.139,115.8508 94.5898,111.078 105.4373,104.5695 111.5119,98.061 114.9831,91.1186 118.8881,72.0271 119.322,61.6136 116.7186,49.0305 111.5119,35.1458 105.4373,26.4678 98.061,18.6576 88.0814,12.1492" stroke="#00007f" stroke-width="2" /><polyline fill="none" points="99.7966,15.1864 93.722,18.2237 87.2136,28.2034 78.9695,49.0305 75.0644,63.3492 72.8949,82.0068 72.8949,91.9864 76.8,116.7186" stroke="#7cff79" stroke-width="2" /><polyline fill="none" points="30.3729,22.5627 38.1831,26.4678 44.2576,32.9763 50.7661,45.9932 54.2373,58.1424 55.1051,76.3661 52.0678,91.5525 47.7288,103.2678 42.0881,110.6441" stroke="#7f0000" stroke-width="2" /></svg>