<?xml version="1.0" encoding="utf-8" ?>
<svg baseProfile="tiny" height="128" version="1.2" viewBox="0,0,128,128" width="128" xmlns="http://www.w3.org/2000/svg" xmlns:ev="http://www.w3.org/2001/xml-events" xmlns:xlink="http://www.w3.org/1999/xlink"><defs /><polyline fill="none" points="46.861,10.4136 37.7492,10.4136 31.6746,12.5831 23.4305,21.261 15.6203,33.8441 12.5831,40.7864 9.1119,56.4068 8.678,79.8373 9.9797,87.6475 15.6203,99.7966 24.7322,109.7763 35.5797,115.4169 45.9932,118.0203 61.6136,119.322 77.6678,118.4542 86.7797,113.6814 93.722,105.0034 98.9288,92.8542 101.9661,78.9695 102.4,59.4441 99.3627,47.7288 87.6475,32.5424 72.461,21.261 65.0847,17.7898 49.4644,18.6576" stroke="#00007f" stroke-width="2" /><polyline fill="none" points="39.9186,8.678 46.4271,21.261 51.6339,36.0136 55.1051,53.8034 55.539,73.3288 50.7661,83.3085 44.2576,90.2508 35.1458,95.8915 22.9966,100.6644" stroke="#0028ff" stroke-width="2" /><polyline fill="none" points="60.7458,26.4678 64.2169,19.9593 69.4237,19.5254 66.3864,43.3898 66.3864,67.6881 68.122,79.8373 74.6305,98.061 87.2136,111.9458" stroke="#00d4ff" stroke-width="2" /><polyline fill="none" points="32.9763,34.278 55.1051,33.4102" stroke="#7cff79" stroke-width="2" /><polyline fill="none" points="39.4847,59.878 56.8407,69.8576" stroke="#ffe500" stroke-width="2" /><polyline fill="none" points="35.1458,93.722 42.0881,100.6644" stroke="#ff4600" stroke-width="2" /><polyline fill="none" points="25.1661,102.4 32.9763,103.7017" stroke="#7f0000" stroke-width="2" /></svg>