<?xml version="1.0" encoding="utf-8" ?>
<svg baseProfile="tiny" height="128" version="1.2" viewBox="0,0,128,128" width="128" xmlns="http://www.w3.org/2000/svg" xmlns:ev="http://www.w3.org/2001/xml-events" xmlns:xlink="http://www.w3.org/1999/xlink"><defs /><polyline fill="none" points="85.9119,13.4508 81.5729,11.7153 62.9153,12.5831 42.9559,19.0915 36.0136,23.4305 22.5627,34.7119 10.8475,52.9356 8.678,64.2169 8.678,76.8 13.4508,87.6475 20.8271,98.4949 29.939,106.739 38.1831,111.078 43.8237,112.3797 58.5763,112.3797 90.6847,99.3627 97.6271,95.4576 108.9085,83.3085 112.3797,76.8 119.322,55.9729 119.322,36.4475 117.5864,28.6373 112.8136,18.6576 107.6068,13.8847 101.9661,12.1492" stroke="#00007f" stroke-width="2" /><polyline fill="none" points="107.1729,9.9797 85.9119,10.4136" stroke="#00d4ff" stroke-width="2" /><polyline fill="none" points="100.6644,8.678 95.8915,13.8847 91.9864,23.4305 83.3085,49.8983 83.7424,81.5729 87.6475,91.1186 92.4203,98.061 95.8915,101.0983 100.2305,101.9661" stroke="#ffe500" stroke-width="2" /><polyline fill="none" points="44.6915,17.3559 47.7288,18.2237 50.7661,42.0881 50.7661,52.9356 48.1627,65.0847 39.4847,82.0068 32.9763,91.1186 22.5627,95.4576" stroke="#7f0000" stroke-width="2" /></svg>