<?xml version="1.0" encoding="utf-8" ?>
<svg baseProfile="tiny" height="128" version="1.2" viewBox="0,0,128,128" width="128" xmlns="http://www.w3.org/2000/svg" xmlns:ev="http://www.w3.org/2001/xml-events" xmlns:xlink="http://www.w3.org/1999/xlink"><defs /><polyline fill="none" points="67.2542,15.1864 66.3864,12.5831 62.9153,10.4136 56.4068,9.5458 47.7288,9.9797 30.8068,22.5627 25.1661,29.5051 18.6576,49.4644 18.6576,61.6136 24.2983,82.4407 29.0712,91.5525 35.5797,97.6271 50.3322,104.5695 75.9322,107.1729 97.1932,100.2305 100.2305,97.1932 107.6068,81.139 109.7763,42.9559 103.7017,22.5627 98.4949,17.7898 77.6678,8.678 60.3119,9.9797" stroke="#00007f" stroke-width="2" /><polyline fill="none" points="24.2983,26.4678 39.0508,38.1831 45.5593,40.3525 59.878,41.2203 80.2712,41.2203 89.3831,39.4847 119.322,26.4678" stroke="#0028ff" stroke-width="2" /><polyline fill="none" points="100.2305,92.4203 88.0814,85.0441 67.6881,75.9322 44.6915,75.0644 35.1458,77.6678 24.2983,85.0441 11.2814,89.8169 8.678,93.2881" stroke="#00d4ff" stroke-width="2" /><polyline fill="none" points="36.8814,27.7695 47.7288,27.7695" stroke="#7cff79" stroke-width="2" /><polyline fill="none" points="51.6339,27.3356 55.539,26.9017" stroke="#ffe500" stroke-width="2" /><polyline fill="none" points="67.6881,26.4678 70.7254,26.4678" stroke="#ff4600" stroke-width="2" /><polyline fill="none" points="75.9322,26.4678 81.5729,27.3356" stroke="#7f0000" stroke-width="2" /></svg>