<?xml version="1.0" encoding="utf-8" ?>
<svg baseProfile="tiny" height="128" version="1.2" viewBox="0,0,128,128" width="128" xmlns="http://www.w3.org/2000/svg" xmlns:ev="http://www.w3.org/2001/xml-events" xmlns:xlink="http://www.w3.org/1999/xlink"><defs /><polyline fill="none" points="12.1492,39.4847 12.5831,35.1458 20.3932,25.1661 25.1661,20.3932 34.278,15.1864 51.2,9.5458 75.4983,8.678 88.0814,12.5831 97.6271,18.2237 102.8339,23.4305 107.6068,31.2407 110.6441,39.4847 113.6814,57.2746 113.6814,76.8 111.9458,86.3458 107.6068,96.3254 98.061,108.9085 90.6847,114.5492 81.5729,118.0203 57.7085,119.322 49.0305,117.5864 36.4475,111.078 26.0339,102.4 17.7898,91.5525 11.7153,79.8373 8.678,55.1051 8.678,42.522 10.8475,27.7695" stroke="#00007f" stroke-width="2" /><polyline fill="none" points="27.7695,24.2983 30.3729,21.261 35.1458,21.261 40.3525,24.7322 46.861,40.3525 49.4644,62.0475 49.4644,83.7424 48.1627,88.0814 40.3525,100.2305 32.5424,103.7017 28.6373,103.7017" stroke="#004cff" stroke-width="2" /><polyline fill="none" points="94.1559,13.8847 87.2136,20.3932 79.8373,32.9763 74.1966,52.0678 72.0271,66.3864 73.3288,94.5898 82.8746,108.4746 90.6847,111.9458 94.5898,112.3797 94.1559,111.078" stroke="#29ffcd" stroke-width="2" /><polyline fill="none" points="48.1627,23.4305 43.8237,25.1661 36.8814,34.278" stroke="#cdff29" stroke-width="2" /><polyline fill="none" points="49.8983,50.7661 40.3525,56.8407" stroke="#ff6700" stroke-width="2" /><polyline fill="none" points="54.2373,70.2915 54.2373,70.2915" stroke="#7f0000" stroke-width="2" /></svg>