<?xml version="1.0" encoding="utf-8" ?>
<svg baseProfile="tiny" height="128" version="1.2" viewBox="0,0,128,128" width="128" xmlns="http://www.w3.org/2000/svg" xmlns:ev="http://www.w3.org/2001/xml-events" xmlns:xlink="http://www.w3.org/1999/xlink"><defs /><polyline fill="none" points="70.7254,18.6576 51.6339,25.1661 35.1458,32.5424 21.6949,41.6542 13.8847,50.3322 11.2814,55.539 8.678,68.122 8.678,83.3085 9.9797,88.0814 14.3186,95.8915 22.1288,103.7017 32.5424,108.9085 53.3695,114.9831 72.0271,117.1525 87.6475,117.1525 98.4949,111.078 111.9458,99.7966 116.2847,91.9864 119.322,78.5356 119.322,65.9525 114.5492,52.9356 101.9661,32.9763 95.0237,25.1661 87.2136,18.6576 65.5186,8.678 56.4068,8.678 52.9356,12.1492" stroke="#00007f" stroke-width="2" /><polyline fill="none" points="39.9186,33.8441 37.7492,37.3153 37.7492,47.2949 40.7864,57.2746 40.7864,85.9119 38.6169,93.2881 36.8814,107.1729 39.0508,107.1729" stroke="#00d4ff" stroke-width="2" /><polyline fill="none" points="90.6847,33.8441 86.3458,49.8983 85.0441,61.1797 79.4034,79.8373 77.6678,91.9864 78.1017,111.9458 75.0644,111.5119 74.6305,107.6068" stroke="#ffe500" stroke-width="2" /><polyline fill="none" points="34.7119,38.6169 38.6169,38.6169 43.3898,43.3898 38.6169,52.9356 44.2576,59.0102 44.2576,62.4814 42.0881,65.5186 43.3898,75.0644 40.3525,81.139 27.3356,92.4203 27.3356,96.3254 46.4271,101.5322" stroke="#7f0000" stroke-width="2" /></svg>