<?xml version="1.0" encoding="utf-8" ?>
<svg baseProfile="tiny" height="128" version="1.2" viewBox="0,0,128,128" width="128" xmlns="http://www.w3.org/2000/svg" xmlns:ev="http://www.w3.org/2001/xml-events" xmlns:xlink="http://www.w3.org/1999/xlink"><defs /><polyline fill="none" points="85.478,19.9593 53.3695,28.6373 37.3153,36.4475 22.9966,49.0305 10.4136,69.4237 8.678,78.5356 8.678,90.2508 10.8475,95.0237 16.0542,100.6644 23.8644,105.0034 32.5424,107.1729 65.5186,108.0407 93.722,101.9661 102.8339,95.4576 106.739,90.6847 114.1153,77.2339 118.0203,64.6508 119.322,36.8814 115.4169,28.6373 107.1729,19.9593 84.1763,10.4136 75.0644,9.1119 64.6508,9.5458 55.1051,15.1864 48.1627,24.7322" stroke="#00007f" stroke-width="2" /><polyline fill="none" points="48.1627,30.8068 48.1627,54.2373 41.6542,101.0983 44.2576,94.5898" stroke="#004cff" stroke-width="2" /><polyline fill="none" points="77.2339,8.678 71.1593,52.0678 71.1593,106.3051 69.8576,106.739" stroke="#29ffcd" stroke-width="2" /><polyline fill="none" points="54.2373,44.6915 63.3492,44.2576" stroke="#cdff29" stroke-width="2" /><polyline fill="none" points="36.8814,55.9729 52.9356,58.1424 62.0475,62.0475" stroke="#ff6700" stroke-width="2" /><polyline fill="none" points="41.6542,73.3288 56.4068,78.1017" stroke="#7f0000" stroke-width="2" /></svg>