<?xml version="1.0" encoding="utf-8" ?>
<svg baseProfile="tiny" height="128" version="1.2" viewBox="0,0,128,128" width="128" xmlns="http://www.w3.org/2000/svg" xmlns:ev="http://www.w3.org/2001/xml-events" xmlns:xlink="http://www.w3.org/1999/xlink"><defs /><polyline fill="none" points="70.7254,44.2576 72.0271,27.7695 73.7627,22.5627 77.6678,17.7898 85.9119,15.1864 97.6271,14.7525 101.5322,16.4881 102.8339,19.5254 101.9661,26.0339 95.8915,34.278 86.3458,44.6915 71.1593,53.8034 66.3864,60.7458 62.4814,70.7254 59.4441,72.8949 56.8407,72.8949 49.8983,66.3864 49.8983,64.2169 52.5017,61.6136 56.8407,61.6136 62.4814,56.8407 70.2915,43.3898" stroke="#00007f" stroke-width="2" /><polyline fill="none" points="115.8508,19.5254 112.3797,20.3932 109.7763,18.2237 109.3424,12.5831 117.1525,9.5458 119.322,14.3186 116.2847,19.5254 111.5119,19.5254 109.7763,16.0542" stroke="#0000f1" stroke-width="2" /><polyline fill="none" points="109.3424,13.8847 116.2847,14.7525" stroke="#004cff" stroke-width="2" /><polyline fill="none" points="108.4746,13.4508 118.4542,13.4508" stroke="#00b0ff" stroke-width="2" /><polyline fill="none" points="115.4169,14.3186 116.2847,14.3186" stroke="#29ffcd" stroke-width="2" /><polyline fill="none" points="65.5186,51.2 69.4237,54.2373" stroke="#7cff79" stroke-width="2" /><polyline fill="none" points="68.122,49.8983 70.7254,52.0678" stroke="#cdff29" stroke-width="2" /><polyline fill="none" points="10.4136,10.8475 8.678,24.2983" stroke="#ffc400" stroke-width="2" /><polyline fill="none" points="12.5831,13.4508 17.7898,9.1119 21.261,8.678 19.0915,13.8847 16.922,14.7525 22.5627,16.4881 21.6949,21.261 18.6576,22.9966 11.7153,20.8271" stroke="#ff6700" stroke-width="2" /><polyline fill="none" points="21.6949,41.2203 25.1661,26.0339 29.0712,26.0339 32.5424,32.5424 31.6746,35.1458 27.7695,37.3153" stroke="#f10700" stroke-width="2" /><polyline fill="none" points="22.1288,35.1458 33.8441,32.5424" stroke="#7f0000" stroke-width="2" /></svg>