<?xml version="1.0" encoding="utf-8" ?>
<svg baseProfile="tiny" height="128" version="1.2" viewBox="0,0,128,128" width="128" xmlns="http://www.w3.org/2000/svg" xmlns:ev="http://www.w3.org/2001/xml-events" xmlns:xlink="http://www.w3.org/1999/xlink"><defs /><polyline fill="none" points="61.1797,12.1492 58.5763,9.9797 52.0678,10.4136 42.0881,16.0542 29.0712,29.0712 22.5627,38.1831 9.9797,68.122 8.678,85.478 12.5831,92.8542 20.3932,102.8339 33.4102,111.5119 49.0305,117.1525 71.5932,119.322 86.7797,115.4169 97.6271,110.2102 106.739,101.9661 110.6441,95.8915 113.2475,88.9492 113.6814,75.9322 112.3797,68.122 107.1729,55.1051 97.6271,39.9186 77.6678,18.6576 69.8576,14.7525 60.7458,13.8847" stroke="#00007f" stroke-width="2" /><polyline fill="none" points="55.1051,8.678 59.4441,12.5831 62.4814,18.2237 62.9153,29.5051 59.878,36.8814 51.2,49.8983 32.9763,63.7831 22.9966,73.7627 16.4881,85.478 14.7525,97.6271" stroke="#0000de" stroke-width="2" /><polyline fill="none" points="90.2508,27.7695 86.3458,31.6746 83.7424,37.7492 82.8746,53.3695 85.9119,62.4814 98.9288,81.5729 104.1356,93.2881 106.739,99.3627 106.739,106.3051" stroke="#0028ff" stroke-width="2" /><polyline fill="none" points="14.7525,75.0644 14.7525,74.1966" stroke="#0080ff" stroke-width="2" /><polyline fill="none" points="17.3559,62.4814 18.2237,60.3119" stroke="#00d4ff" stroke-width="2" /><polyline fill="none" points="19.0915,59.0102 19.9593,55.539" stroke="#36ffc0" stroke-width="2" /><polyline fill="none" points="23.4305,49.0305 26.4678,45.5593" stroke="#7cff79" stroke-width="2" /><polyline fill="none" points="33.8441,40.7864 36.0136,39.0508" stroke="#c0ff36" stroke-width="2" /><polyline fill="none" points="37.3153,38.6169 39.9186,37.3153" stroke="#ffe500" stroke-width="2" /><polyline fill="none" points="55.539,30.3729 57.2746,30.3729" stroke="#ff9400" stroke-width="2" /><polyline fill="none" points="57.7085,30.3729 59.878,30.3729" stroke="#ff4600" stroke-width="2" /><polyline fill="none" points="66.3864,32.1085 67.2542,32.1085" stroke="#de0000" stroke-width="2" /><polyline fill="none" points="83.7424,37.7492 83.7424,37.7492" stroke="#7f0000" stroke-width="2" /></svg>