<?xml version="1.0" encoding="utf-8" ?>
<svg baseProfile="tiny" height="128" version="1.2" viewBox="0,0,128,128" width="128" xmlns="http://www.w3.org/2000/svg" xmlns:ev="http://www.w3.org/2001/xml-events" xmlns:xlink="http://www.w3.org/1999/xlink"><defs /><polyline fill="none" points="75.4983,12.1492 68.122,10.4136 60.7458,10.4136 49.8983,12.5831 34.278,21.6949 21.6949,33.8441 11.7153,50.7661 9.9797,57.2746 8.678,74.6305 9.1119,80.7051 10.8475,86.3458 20.3932,101.0983 34.278,112.3797 45.9932,117.1525 57.2746,119.322 77.6678,118.8881 94.1559,112.8136 102.8339,105.8712 110.2102,94.5898 114.9831,80.2712 115.8508,69.8576 115.4169,55.539 112.3797,47.2949 105.8712,34.7119 93.722,19.5254 83.7424,11.7153 76.8,8.678" stroke="#00007f" stroke-width="2" /><polyline fill="none" points="38.1831,18.2237 45.1254,31.2407 52.9356,58.1424 53.8034,68.122 52.9356,82.8746 43.8237,112.8136" stroke="#7cff79" stroke-width="2" /><polyline fill="none" points="87.2136,16.922 83.7424,20.3932 80.7051,27.3356 78.9695,88.0814 82.8746,101.9661 87.2136,109.3424 87.6475,117.1525" stroke="#7f0000" stroke-width="2" /></svg>