<?xml version="1.0" encoding="utf-8" ?>
<svg baseProfile="tiny" height="128" version="1.2" viewBox="0,0,128,128" width="128" xmlns="http://www.w3.org/2000/svg" xmlns:ev="http://www.w3.org/2001/xml-events" xmlns:xlink="http://www.w3.org/1999/xlink"><defs /><polyline fill="none" points="59.6463,8.7075 52.2449,11.3197 34.8299,24.381 19.5918,44.4082 14.8027,52.2449 10.0136,64.4354 8.7075,77.932 10.0136,85.3333 12.1905,91.8639 20.898,103.1837 26.1224,107.5374 39.619,111.8912 58.3401,111.0204 82.7211,101.4422 94.4762,94.4762 104.0544,86.6395 111.8912,78.3673 116.2449,70.966 119.2925,62.2585 118.4218,49.1973 112.3265,39.619 101.8776,32.2177 64.0,14.8027 57.9048,9.5782" stroke="#00007f" stroke-width="2" /><polyline fill="none" points="33.0884,30.9116 43.5374,45.2789 53.1156,66.1769 58.3401,95.3469 55.2925,102.3129" stroke="#0080ff" stroke-width="2" /><polyline fill="none" points="53.551,20.898 77.0612,33.5238 95.7823,48.7619 105.7959,61.3878 108.4082,67.483 108.4082,86.6395" stroke="#7cff79" stroke-width="2" /><polyline fill="none" points="26.1224,57.034 40.4898,53.551 48.3265,47.4558" stroke="#ff9400" stroke-width="2" /><polyline fill="none" points="41.3605,82.2857 62.2585,70.5306" stroke="#7f0000" stroke-width="2" /></svg>