<?xml version="1.0" encoding="utf-8" ?>
<svg baseProfile="tiny" height="128" version="1.2" viewBox="0,0,128,128" width="128" xmlns="http://www.w3.org/2000/svg" xmlns:ev="http://www.w3.org/2001/xml-events" xmlns:xlink="http://www.w3.org/1999/xlink"><defs /><polyline fill="none" points="69.8576,8.678 53.3695,9.9797 45.9932,12.5831 34.7119,18.6576 25.6,26.9017 16.922,40.3525 9.9797,59.878 8.678,78.5356 10.4136,86.3458 16.922,102.4 20.8271,107.1729 32.1085,114.1153 45.9932,118.4542 61.6136,119.322 71.1593,117.1525 81.5729,110.6441 88.0814,105.0034 98.4949,90.2508 106.3051,66.3864 107.6068,47.2949 105.4373,37.3153 93.722,19.5254 82.0068,12.5831 73.7627,9.9797 65.5186,9.1119 63.3492,11.7153 64.2169,13.0169" stroke="#00007f" stroke-width="2" /><polyline fill="none" points="16.922,35.1458 21.261,36.8814 30.3729,43.8237 39.4847,59.0102 46.4271,74.1966 47.7288,99.7966 45.5593,104.5695 40.7864,109.3424" stroke="#0080ff" stroke-width="2" /><polyline fill="none" points="29.0712,59.0102 40.3525,49.8983 42.0881,51.6339" stroke="#7cff79" stroke-width="2" /><polyline fill="none" points="39.4847,85.9119 49.4644,82.4407 54.6712,82.8746 57.7085,85.0441" stroke="#ff9400" stroke-width="2" /><polyline fill="none" points="39.4847,102.4 53.8034,107.6068" stroke="#7f0000" stroke-width="2" /></svg>