<?xml version="1.0" encoding="utf-8" ?>
<svg baseProfile="tiny" height="128" version="1.2" viewBox="0,0,128,128" width="128" xmlns="http://www.w3.org/2000/svg" xmlns:ev="http://www.w3.org/2001/xml-events" xmlns:xlink="http://www.w3.org/1999/xlink"><defs /><polyline fill="none" points="91.1186,26.9017 88.5153,24.2983 81.139,21.6949 68.9898,19.0915 59.4441,18.6576 49.8983,20.8271 39.4847,25.1661 29.5051,32.9763 17.7898,50.7661 11.7153,64.2169 8.678,78.1017 9.5458,95.8915 13.8847,104.5695 21.261,111.078 29.939,115.4169 41.2203,117.1525 52.5017,116.2847 63.7831,113.2475 85.0441,103.2678 96.3254,92.4203 101.9661,84.1763 105.0034,73.7627 105.0034,61.6136 102.4,49.4644 97.1932,37.7492 89.3831,26.0339 79.8373,16.922 68.9898,10.8475 61.1797,8.678" stroke="#00007f" stroke-width="2" /><polyline fill="none" points="14.7525,36.0136 42.0881,49.4644 48.5966,57.2746 52.5017,66.3864 53.3695,77.6678 49.8983,92.4203 45.1254,107.1729 37.3153,119.322" stroke="#7cff79" stroke-width="2" /><polyline fill="none" points="100.2305,28.2034 86.7797,25.1661 80.2712,29.939 73.7627,46.4271 72.0271,62.9153 76.3661,77.6678 85.478,88.0814 91.5525,89.3831 106.739,88.5153" stroke="#7f0000" stroke-width="2" /></svg>