<?xml version="1.0" encoding="utf-8" ?>
<svg baseProfile="tiny" height="128" version="1.2" viewBox="0,0,128,128" width="128" xmlns="http://www.w3.org/2000/svg" xmlns:ev="http://www.w3.org/2001/xml-events" xmlns:xlink="http://www.w3.org/1999/xlink"><defs /><polyline fill="none" points="84.0272,16.9796 80.9796,13.0612 75.3197,10.0136 61.3878,8.7075 52.6803,10.449 39.1837,15.2381 27.8639,21.7687 15.6735,33.5238 9.1429,48.7619 8.7075,67.0476 13.4966,77.4966 18.7211,84.0272 30.4762,91.8639 41.3605,94.4762 70.5306,95.3469 98.3946,88.381 106.6667,81.415 115.3741,61.3878 118.4218,50.5034 119.2925,39.1837 108.8435,26.1224 103.1837,21.7687 90.5578,16.5442 76.1905,13.4966" stroke="#00007f" stroke-width="2" /><polyline fill="none" points="32.6531,18.2857 28.2993,72.7075 28.2993,84.4626 29.6054,92.2993" stroke="#00d4ff" stroke-width="2" /><polyline fill="none" points="97.5238,17.8503 98.3946,29.6054 92.7347,87.9456" stroke="#ffe500" stroke-width="2" /><polyline fill="none" points="21.3333,26.5578 21.3333,33.0884 16.5442,47.4558 18.2857,77.932 20.898,87.9456" stroke="#7f0000" stroke-width="2" /></svg>