<?xml version="1.0" encoding="utf-8" ?>
<svg baseProfile="tiny" height="128" version="1.2" viewBox="0,0,128,128" width="128" xmlns="http://www.w3.org/2000/svg" xmlns:ev="http://www.w3.org/2001/xml-events" xmlns:xlink="http://www.w3.org/1999/xlink"><defs /><polyline fill="none" points="52.9356,12.1492 40.7864,16.0542 23.4305,26.4678 16.0542,33.4102 10.8475,41.6542 8.678,48.5966 9.9797,55.9729 15.1864,66.3864 22.9966,77.2339 28.2034,82.0068 36.8814,86.7797 49.8983,91.1186 68.9898,94.5898 90.6847,92.8542 101.0983,89.3831 110.2102,82.8746 116.2847,72.461 119.322,56.8407 116.7186,40.3525 111.5119,28.2034 101.5322,19.0915 93.722,15.6203 67.6881,8.678 55.539,9.9797" stroke="#00007f" stroke-width="2" /><polyline fill="none" points="35.1458,19.9593 37.3153,20.3932 38.6169,23.8644 42.0881,42.9559 42.522,56.4068 40.7864,68.9898 33.4102,81.139" stroke="#7cff79" stroke-width="2" /><polyline fill="none" points="97.1932,18.6576 71.1593,44.2576 66.3864,50.7661 61.6136,67.6881 62.0475,84.6102 65.5186,91.1186" stroke="#7f0000" stroke-width="2" /></svg>