<?xml version="1.0" encoding="utf-8" ?>
<svg baseProfile="tiny" height="128" version="1.2" viewBox="0,0,128,128" width="128" xmlns="http://www.w3.org/2000/svg" xmlns:ev="http://www.w3.org/2001/xml-events" xmlns:xlink="http://www.w3.org/1999/xlink"><defs /><polyline fill="none" points="38.1831,14.3186 30.8068,16.4881 24.7322,20.8271 19.5254,26.0339 11.7153,39.0508 8.678,60.3119 9.9797,71.1593 13.4508,85.0441 18.2237,95.8915 25.6,104.5695 34.278,111.9458 43.3898,116.7186 58.5763,119.322 83.3085,108.0407 89.3831,102.8339 94.5898,96.3254 101.0983,82.8746 105.0034,68.5559 105.0034,62.4814 102.8339,54.2373 95.8915,39.9186 84.6102,27.3356 71.5932,17.3559 59.878,10.8475 49.0305,8.678 37.3153,9.5458 31.2407,12.1492 29.939,15.6203 31.2407,22.1288 35.5797,28.2034 41.6542,32.9763 57.2746,37.7492 73.7627,48.5966 78.5356,55.9729 78.9695,59.4441 78.5356,68.9898 75.4983,79.4034 78.1017,89.8169 81.5729,93.722 95.4576,98.061" stroke="#00007f" stroke-width="2" /></svg>