<?xml version="1.0" encoding="utf-8" ?>
<svg baseProfile="tiny" height="128" version="1.2" viewBox="0,0,128,128" width="128" xmlns="http://www.w3.org/2000/svg" xmlns:ev="http://www.w3.org/2001/xml-events" xmlns:xlink="http://www.w3.org/1999/xlink"><defs /><polyline fill="none" points="88.9492,13.0169 84.1763,9.9797 76.8,9.5458 47.2949,20.8271 27.7695,32.9763 20.3932,43.8237 16.0542,55.539 16.0542,75.0644 20.8271,87.6475 27.3356,98.4949 31.6746,103.2678 46.4271,112.3797 57.7085,114.9831 75.4983,113.6814 85.9119,108.9085 94.1559,101.9661 100.2305,93.2881 103.7017,84.1763 106.739,68.122 106.739,42.9559 102.4,19.5254 97.1932,10.8475 90.6847,8.678" stroke="#00007f" stroke-width="2" /><polyline fill="none" points="89.8169,13.4508 82.8746,16.0542 77.6678,26.9017 71.1593,52.0678 69.8576,76.8 74.6305,90.6847 92.8542,119.322" stroke="#7cff79" stroke-width="2" /><polyline fill="none" points="57.2746,23.4305 56.4068,33.8441 54.2373,39.9186 37.3153,72.461 25.6,86.3458 8.678,95.8915" stroke="#7f0000" stroke-width="2" /></svg>