<?xml version="1.0" encoding="utf-8" ?>
<svg baseProfile="tiny" height="128" version="1.2" viewBox="0,0,128,128" width="128" xmlns="http://www.w3.org/2000/svg" xmlns:ev="http://www.w3.org/2001/xml-events" xmlns:xlink="http://www.w3.org/1999/xlink"><defs /><polyline fill="none" points="61.3878,9.1429 35.7007,10.449 21.7687,16.1088 16.5442,20.4626 8.7075,33.5238 9.1429,58.3401 23.0748,75.3197 29.6054,80.9796 54.4218,92.7347 63.1293,94.4762 79.2381,94.0408 84.4626,91.8639 91.4286,86.2041 101.8776,75.3197 115.8095,51.8095 118.8571,43.102 119.2925,28.2993 116.6803,23.9456 111.4558,19.1565 87.5102,9.5782 72.7075,8.7075 62.2585,12.1905" stroke="#00007f" stroke-width="2" /><polyline fill="none" points="29.1701,13.932 27.4286,30.9116 25.2517,39.1837 24.8163,47.4558 22.6395,57.4694 22.6395,65.7415 20.0272,74.8844" stroke="#7cff79" stroke-width="2" /><polyline fill="none" points="55.7279,9.1429 45.7143,64.8707 41.3605,82.7211" stroke="#7f0000" stroke-width="2" /></svg>