<?xml version="1.0" encoding="utf-8" ?>
<svg baseProfile="tiny" height="128" version="1.2" viewBox="0,0,128,128" width="128" xmlns="http://www.w3.org/2000/svg" xmlns:ev="http://www.w3.org/2001/xml-events" xmlns:xlink="http://www.w3.org/1999/xlink"><defs /><polyline fill="none" points="50.7661,8.678 46.861,9.9797 36.0136,18.2237 24.7322,30.8068 16.0542,45.5593 9.5458,69.4237 8.678,88.0814 10.4136,93.2881 16.4881,101.9661 29.939,112.8136 47.7288,118.4542 53.8034,119.322 78.9695,116.7186 91.9864,111.078 100.6644,101.0983 108.4746,88.9492 112.3797,79.4034 114.9831,68.9898 114.5492,56.4068 112.3797,49.4644 105.4373,38.6169 98.4949,30.3729 79.8373,19.0915 62.9153,12.1492 42.0881,10.8475" stroke="#00007f" stroke-width="2" /><polyline fill="none" points="41.2203,16.0542 45.5593,39.0508 47.7288,77.6678 44.6915,91.9864 38.1831,105.0034 35.5797,109.3424 26.9017,113.6814" stroke="#0080ff" stroke-width="2" /><polyline fill="none" points="88.5153,18.2237 83.3085,26.4678 78.5356,40.7864 77.2339,58.5763 78.1017,74.1966 79.4034,81.5729 82.8746,90.2508 90.6847,103.2678 98.061,108.4746" stroke="#7cff79" stroke-width="2" /><polyline fill="none" points="67.2542,42.522 81.5729,39.9186" stroke="#ff9400" stroke-width="2" /><polyline fill="none" points="70.7254,78.5356 74.6305,78.1017" stroke="#7f0000" stroke-width="2" /></svg>