<?xml version="1.0" encoding="utf-8" ?>
<svg baseProfile="tiny" height="128" version="1.2" viewBox="0,0,128,128" width="128" xmlns="http://www.w3.org/2000/svg" xmlns:ev="http://www.w3.org/2001/xml-events" xmlns:xlink="http://www.w3.org/1999/xlink"><defs /><polyline fill="none" points="41.6542,9.5458 32.9763,9.5458 26.9017,12.1492 19.0915,17.7898 15.1864,22.9966 10.4136,39.4847 8.678,55.9729 9.5458,75.9322 12.1492,82.8746 16.922,88.5153 33.4102,100.6644 52.9356,106.3051 69.8576,107.6068 96.7593,107.6068 109.7763,103.7017 118.4542,86.3458 119.322,71.5932 118.0203,66.3864 116.7186,62.4814 108.4746,51.6339 91.1186,38.1831 82.4407,22.9966 77.2339,16.922 71.5932,13.0169 64.2169,10.4136 49.4644,8.678 42.9559,9.5458" stroke="#00007f" stroke-width="2" /><polyline fill="none" points="42.9559,9.5458 48.5966,41.2203 48.5966,59.4441 42.9559,89.3831 42.522,96.7593 39.4847,103.2678" stroke="#7f0000" stroke-width="2" /></svg>