<?xml version="1.0" encoding="utf-8" ?>
<svg baseProfile="tiny" height="128" version="1.2" viewBox="0,0,128,128" width="128" xmlns="http://www.w3.org/2000/svg" xmlns:ev="http://www.w3.org/2001/xml-events" xmlns:xlink="http://www.w3.org/1999/xlink"><defs /><polyline fill="none" points="100.2305,21.6949 85.478,13.0169 50.7661,10.4136 39.9186,12.1492 35.1458,14.7525 22.1288,24.2983 13.4508,37.3153 10.4136,47.2949 8.678,57.7085 9.1119,68.5559 13.0169,76.3661 19.0915,83.7424 31.2407,91.9864 51.2,97.6271 65.5186,97.6271 80.2712,93.2881 98.061,82.4407 109.7763,71.1593 115.8508,62.9153 118.8881,55.9729 119.322,47.2949 114.5492,38.1831 94.1559,15.1864 89.8169,13.0169 85.0441,13.0169" stroke="#00007f" stroke-width="2" /><polyline fill="none" points="93.2881,11.2814 87.6475,13.0169 50.3322,52.9356 36.4475,73.7627 29.939,86.7797" stroke="#0080ff" stroke-width="2" /><polyline fill="none" points="20.8271,23.8644 25.6,32.1085 38.6169,42.9559 81.5729,90.6847" stroke="#7cff79" stroke-width="2" /><polyline fill="none" points="55.9729,8.678 49.8983,59.878 52.5017,107.6068 54.2373,112.8136" stroke="#ff9400" stroke-width="2" /><polyline fill="none" points="9.9797,59.878 30.8068,56.4068 96.3254,51.6339 115.4169,49.0305" stroke="#7f0000" stroke-width="2" /></svg>