<?xml version="1.0" encoding="utf-8" ?>
<svg baseProfile="tiny" height="128" version="1.2" viewBox="0,0,128,128" width="128" xmlns="http://www.w3.org/2000/svg" xmlns:ev="http://www.w3.org/2001/xml-events" xmlns:xlink="http://www.w3.org/1999/xlink"><defs /><polyline fill="none" points="62.0475,9.1119 48.5966,15.1864 32.1085,28.6373 22.1288,43.8237 19.0915,51.2 16.922,60.3119 17.7898,67.6881 19.5254,75.0644 26.0339,90.2508 39.4847,109.7763 49.4644,116.2847 59.4441,119.322 68.5559,118.0203 76.8,112.3797 90.2508,94.1559 96.3254,81.5729 97.1932,71.1593 94.5898,55.539 85.478,27.3356 78.5356,16.4881 68.5559,11.7153 62.4814,11.2814 58.1424,13.0169 53.8034,17.3559" stroke="#00007f" stroke-width="2" /><polyline fill="none" points="58.5763,72.8949 58.5763,72.8949" stroke="#0028ff" stroke-width="2" /><polyline fill="none" points="56.8407,73.3288 60.7458,45.9932 65.9525,27.7695 72.0271,16.922 79.4034,8.678 67.6881,24.7322 59.4441,40.7864 54.2373,55.9729 52.0678,70.7254 57.7085,74.1966 92.4203,78.5356 101.9661,81.5729 58.1424,71.5932 55.539,119.322 53.8034,115.4169 49.4644,75.4983 49.4644,73.3288 52.0678,71.1593 35.1458,70.7254 8.678,73.7627 32.1085,75.0644 56.4068,78.9695 56.4068,75.0644 51.2,60.7458 33.8441,21.6949 52.0678,68.5559" stroke="#00d4ff" stroke-width="2" /><polyline fill="none" points="55.9729,70.7254 71.5932,62.0475 90.6847,41.6542 96.3254,37.3153" stroke="#7cff79" stroke-width="2" /><polyline fill="none" points="57.2746,69.4237 52.9356,65.9525 37.3153,42.9559" stroke="#ffe500" stroke-width="2" /><polyline fill="none" points="53.3695,69.4237 32.1085,95.0237" stroke="#ff4600" stroke-width="2" /><polyline fill="none" points="59.0102,69.8576 67.2542,83.3085 74.1966,89.8169" stroke="#7f0000" stroke-width="2" /></svg>