<?xml version="1.0" encoding="utf-8" ?>
<svg baseProfile="tiny" height="128" version="1.2" viewBox="0,0,128,128" width="128" xmlns="http://www.w3.org/2000/svg" xmlns:ev="http://www.w3.org/2001/xml-events" xmlns:xlink="http://www.w3.org/1999/xlink"><defs /><polyline fill="none" points="63.5646,11.7551 53.551,13.0612 43.102,17.415 30.0408,28.7347 15.6735,47.4558 9.5782,64.4354 8.7075,84.898 20.0272,105.3605 41.7959,114.9388 69.2245,119.2925 90.1224,119.2925 107.102,106.6667 111.0204,100.1361 115.8095,86.2041 114.9388,72.7075 101.8776,45.7143 94.0408,37.4422 73.1429,20.898 62.2585,15.6735 52.6803,8.7075" stroke="#00007f" stroke-width="2" /><polyline fill="none" points="52.6803,13.932 55.7279,23.9456 61.3878,59.6463 61.3878,78.8027 52.2449,102.3129 42.6667,114.5034" stroke="#00d4ff" stroke-width="2" /><polyline fill="none" points="86.6395,37.8776 72.2721,71.4014 68.7891,84.0272 69.2245,94.4762 77.0612,108.8435" stroke="#ffe500" stroke-width="2" /><polyline fill="none" points="44.8435,78.8027 44.8435,79.2381" stroke="#7f0000" stroke-width="2" /></svg>