<?xml version="1.0" encoding="utf-8" ?>
<svg baseProfile="tiny" height="128" version="1.2" viewBox="0,0,128,128" width="128" xmlns="http://www.w3.org/2000/svg" xmlns:ev="http://www.w3.org/2001/xml-events" xmlns:xlink="http://www.w3.org/1999/xlink"><defs /><polyline fill="none" points="71.1593,16.922 70.7254,13.4508 65.5186,9.9797 54.6712,8.678 37.3153,13.0169 26.0339,21.261 21.261,26.4678 14.3186,38.6169 8.678,60.7458 8.678,74.6305 13.4508,88.0814 19.0915,95.8915 25.1661,101.9661 40.7864,113.2475 47.7288,116.7186 63.3492,119.322 71.1593,118.4542 78.5356,115.8508 95.4576,101.5322 104.1356,90.6847 114.5492,74.1966 117.1525,67.2542 118.4542,53.8034 118.0203,46.861 112.3797,31.6746 102.4,20.3932 88.5153,13.0169 81.5729,12.1492 76.3661,13.4508" stroke="#00007f" stroke-width="2" /><polyline fill="none" points="114.5492,35.1458 110.6441,33.8441 96.3254,49.0305 90.2508,64.6508 85.0441,82.4407 85.0441,91.1186 88.0814,99.7966 90.6847,102.8339" stroke="#0028ff" stroke-width="2" /><polyline fill="none" points="46.4271,13.0169 49.8983,24.7322 49.0305,45.5593 43.3898,60.7458 29.5051,80.2712 24.7322,89.3831" stroke="#00d4ff" stroke-width="2" /><polyline fill="none" points="33.8441,37.7492 37.3153,37.7492 45.5593,41.2203 57.2746,42.9559" stroke="#7cff79" stroke-width="2" /><polyline fill="none" points="30.8068,69.8576 42.0881,73.3288" stroke="#ffe500" stroke-width="2" /><polyline fill="none" points="21.6949,89.3831 26.0339,92.4203 35.1458,95.0237" stroke="#ff4600" stroke-width="2" /><polyline fill="none" points="84.6102,42.0881 84.6102,42.0881" stroke="#7f0000" stroke-width="2" /></svg>