<?xml version="1.0" encoding="utf-8" ?>
<svg baseProfile="tiny" height="128" version="1.2" viewBox="0,0,128,128" width="128" xmlns="http://www.w3.org/2000/svg" xmlns:ev="http://www.w3.org/2001/xml-events" xmlns:xlink="http://www.w3.org/1999/xlink"><defs /><polyline fill="none" points="34.7119,15.6203 23.8644,20.8271 17.3559,28.2034 9.5458,48.1627 8.678,65.5186 9.5458,74.1966 13.4508,88.9492 16.922,94.5898 23.4305,100.2305 35.5797,106.3051 65.0847,111.9458 76.8,112.3797 89.8169,108.0407 99.3627,100.2305 107.1729,91.1186 113.2475,81.5729 116.2847,73.3288 119.322,52.0678 119.322,40.7864 117.5864,34.278 115.4169,29.0712 111.078,23.8644 102.8339,16.4881 98.4949,14.7525 59.0102,8.678 46.861,9.5458 32.1085,18.6576" stroke="#00007f" stroke-width="2" /><polyline fill="none" points="32.1085,17.7898 41.6542,29.5051 47.7288,42.0881 49.4644,58.5763 46.4271,69.8576 28.6373,106.3051" stroke="#7f0000" stroke-width="2" /></svg>