<?xml version="1.0" encoding="utf-8" ?>
<svg baseProfile="tiny" height="128" version="1.2" viewBox="0,0,128,128" width="128" xmlns="http://www.w3.org/2000/svg" xmlns:ev="http://www.w3.org/2001/xml-events" xmlns:xlink="http://www.w3.org/1999/xlink"><defs /><polyline fill="none" points="40.0544,9.1429 36.5714,11.3197 12.1905,72.2721 8.7075,91.8639 9.1429,98.8299 13.0612,107.102 22.6395,112.3265 30.4762,114.5034 50.9388,114.9388 70.966,111.4558 86.6395,103.619 93.6054,97.5238 100.1361,89.6871 105.3605,80.1088 108.8435,70.5306 110.585,60.0816 109.2789,50.9388 106.6667,43.102 94.0408,22.6395 85.3333,11.3197 74.449,8.7075 40.4898,13.932 38.7483,13.0612" stroke="#00007f" stroke-width="2" /><polyline fill="none" points="29.6054,24.381 33.9592,25.6871 48.7619,25.2517 54.8571,27.8639 60.0816,32.6531 67.0476,44.4082 68.3537,50.068 67.0476,56.5986 54.4218,81.415 50.5034,92.2993 50.9388,97.0884 53.1156,103.619 64.4354,115.3741 70.0952,119.2925 76.1905,118.4218" stroke="#7f0000" stroke-width="2" /></svg>