<?xml version="1.0" encoding="utf-8" ?>
<svg baseProfile="tiny" height="128" version="1.2" viewBox="0,0,128,128" width="128" xmlns="http://www.w3.org/2000/svg" xmlns:ev="http://www.w3.org/2001/xml-events" xmlns:xlink="http://www.w3.org/1999/xlink"><defs /><polyline fill="none" points="52.9356,11.2814 30.8068,22.9966 16.0542,37.7492 10.8475,49.4644 8.678,57.7085 8.678,65.9525 17.3559,81.139 35.1458,98.4949 41.2203,102.8339 46.861,104.5695 61.1797,107.1729 78.1017,106.739 93.2881,100.2305 96.7593,97.6271 110.2102,83.7424 114.5492,76.8 119.322,64.2169 118.8881,50.7661 110.2102,28.2034 107.6068,26.0339 70.7254,9.9797 56.8407,8.678 46.4271,11.2814" stroke="#00007f" stroke-width="2" /><polyline fill="none" points="34.278,22.1288 39.9186,28.2034 44.2576,37.3153 46.861,51.2 46.4271,72.0271 36.8814,95.4576 45.1254,79.4034" stroke="#7cff79" stroke-width="2" /><polyline fill="none" points="33.8441,32.9763 47.7288,31.6746" stroke="#7f0000" stroke-width="2" /></svg>