<?xml version="1.0" encoding="utf-8" ?>
<svg baseProfile="tiny" height="128" version="1.2" viewBox="0,0,128,128" width="128" xmlns="http://www.w3.org/2000/svg" xmlns:ev="http://www.w3.org/2001/xml-events" xmlns:xlink="http://www.w3.org/1999/xlink"><defs /><polyline fill="none" points="77.6678,9.5458 50.3322,8.678 43.3898,9.5458 37.3153,13.8847 23.4305,29.5051 16.4881,41.6542 9.5458,59.4441 8.678,83.7424 11.2814,88.9492 35.5797,108.9085 43.3898,112.3797 53.8034,114.1153 73.3288,114.1153 89.8169,110.6441 94.1559,108.0407 101.9661,96.7593 111.5119,75.0644 113.2475,62.4814 113.2475,45.1254 108.0407,29.5051 99.3627,19.0915 91.5525,17.3559 75.9322,17.3559" stroke="#00007f" stroke-width="2" /><polyline fill="none" points="75.0644,29.5051 75.0644,29.5051" stroke="#0010ff" stroke-width="2" /><polyline fill="none" points="51.2,34.7119 51.2,34.7119" stroke="#00a4ff" stroke-width="2" /><polyline fill="none" points="40.7864,55.539 40.7864,55.539" stroke="#3fffb7" stroke-width="2" /><polyline fill="none" points="31.2407,71.5932 31.2407,71.5932" stroke="#b7ff3f" stroke-width="2" /><polyline fill="none" points="39.9186,26.0339 48.5966,29.5051 52.5017,32.5424 58.5763,41.2203 63.3492,52.9356 64.6508,68.5559 64.6508,78.1017 61.1797,88.9492 52.9356,101.0983 41.6542,112.3797" stroke="#ffb900" stroke-width="2" /><polyline fill="none" points="119.322,14.7525 107.1729,28.6373 100.6644,39.4847 94.1559,61.1797 93.2881,92.4203 95.0237,97.6271 98.4949,101.9661" stroke="#ff3000" stroke-width="2" /><polyline fill="none" points="12.1492,68.9898 16.4881,65.0847 29.939,56.4068 43.3898,51.2 59.4441,49.4644 81.5729,49.4644 106.3051,59.4441 110.6441,64.6508 113.2475,71.5932" stroke="#7f0000" stroke-width="2" /></svg>