<?xml version="1.0" encoding="utf-8" ?>
<svg baseProfile="tiny" height="128" version="1.2" viewBox="0,0,128,128" width="128" xmlns="http://www.w3.org/2000/svg" xmlns:ev="http://www.w3.org/2001/xml-events" xmlns:xlink="http://www.w3.org/1999/xlink"><defs /><polyline fill="none" points="89.3831,14.3186 86.3458,10.8475 73.3288,8.678 54.6712,9.5458 46.861,11.7153 33.4102,18.6576 22.5627,29.0712 14.3186,47.2949 11.7153,68.5559 11.7153,88.0814 13.8847,95.4576 17.7898,101.9661 26.0339,110.2102 32.5424,112.8136 45.9932,115.8508 62.9153,116.2847 71.5932,115.4169 85.9119,110.2102 98.061,101.0983 105.0034,88.9492 107.1729,82.0068 109.7763,68.9898 110.6441,44.2576 103.7017,21.261 97.6271,15.1864 88.5153,13.0169" stroke="#00007f" stroke-width="2" /><polyline fill="none" points="72.0271,12.5831 72.461,21.261 69.8576,37.7492 65.9525,52.0678 60.3119,61.6136 44.6915,77.6678 13.0169,95.8915 8.678,97.6271 14.3186,92.8542" stroke="#7cff79" stroke-width="2" /><polyline fill="none" points="117.1525,37.7492 104.5695,44.2576 87.2136,57.7085 63.3492,81.5729 52.0678,99.3627 47.2949,119.322" stroke="#7f0000" stroke-width="2" /></svg>