<?xml version="1.0" encoding="utf-8" ?>
<svg baseProfile="tiny" height="128" version="1.2" viewBox="0,0,128,128" width="128" xmlns="http://www.w3.org/2000/svg" xmlns:ev="http://www.w3.org/2001/xml-events" xmlns:xlink="http://www.w3.org/1999/xlink"><defs /><polyline fill="none" points="96.3254,8.678 47.2949,15.1864 33.8441,19.9593 24.2983,26.9017 8.678,45.9932 21.6949,94.1559 23.8644,98.4949 38.1831,116.7186 41.2203,119.322 51.6339,117.5864 81.139,107.6068 108.4746,92.4203 114.1153,85.9119 119.322,71.5932 119.322,49.4644 105.8712,19.9593 97.1932,11.2814" stroke="#00007f" stroke-width="2" /><polyline fill="none" points="102.4,17.3559 91.1186,32.1085 88.0814,39.0508 60.7458,67.6881 47.2949,77.6678 32.9763,95.4576" stroke="#00d4ff" stroke-width="2" /><polyline fill="none" points="32.9763,59.0102 43.3898,68.122 61.6136,79.8373 69.8576,87.6475" stroke="#ffe500" stroke-width="2" /><polyline fill="none" points="45.9932,50.3322 94.5898,78.9695" stroke="#7f0000" stroke-width="2" /></svg>