<?xml version="1.0" encoding="utf-8" ?>
<svg baseProfile="tiny" height="128" version="1.2" viewBox="0,0,128,128" width="128" xmlns="http://www.w3.org/2000/svg" xmlns:ev="http://www.w3.org/2001/xml-events" xmlns:xlink="http://www.w3.org/1999/xlink"><defs /><polyline fill="none" points="57.2746,12.1492 53.8034,11.2814 43.3898,13.4508 39.4847,16.4881 31.6746,19.0915 21.261,29.939 13.4508,45.1254 9.5458,57.2746 8.678,92.8542 26.9017,109.7763 39.9186,118.0203 44.2576,119.322 84.1763,119.322 91.5525,114.9831 106.739,100.2305 111.078,91.5525 113.2475,83.7424 113.2475,59.4441 108.9085,46.861 97.1932,24.7322 93.722,22.1288 91.1186,18.2237 80.7051,11.2814 73.7627,8.678 62.0475,8.678 48.1627,14.3186" stroke="#00007f" stroke-width="2" /><polyline fill="none" points="36.4475,20.3932 36.4475,23.8644 41.2203,35.1458 41.2203,38.6169 33.8441,51.2 29.939,54.2373 28.2034,61.6136 25.1661,65.9525 25.1661,80.7051 26.4678,84.6102 34.278,90.2508 45.9932,95.0237 57.7085,97.1932 73.7627,93.722 78.9695,87.2136 78.9695,71.5932 73.3288,49.8983 77.2339,43.3898 84.1763,36.0136 91.1186,31.6746 98.061,29.939" stroke="#0010ff" stroke-width="2" /><polyline fill="none" points="81.139,28.2034 92.8542,35.1458" stroke="#00a4ff" stroke-width="2" /><polyline fill="none" points="68.9898,41.6542 82.0068,42.522" stroke="#3fffb7" stroke-width="2" /><polyline fill="none" points="68.9898,62.0475 84.6102,64.6508" stroke="#b7ff3f" stroke-width="2" /><polyline fill="none" points="64.6508,84.6102 64.2169,88.0814 71.5932,98.4949" stroke="#ffb900" stroke-width="2" /><polyline fill="none" points="49.4644,82.8746 39.9186,93.722" stroke="#ff3000" stroke-width="2" /><polyline fill="none" points="28.6373,62.0475 19.9593,62.0475" stroke="#7f0000" stroke-width="2" /></svg>