<?xml version="1.0" encoding="utf-8" ?>
<svg baseProfile="tiny" height="128" version="1.2" viewBox="0,0,128,128" width="128" xmlns="http://www.w3.org/2000/svg" xmlns:ev="http://www.w3.org/2001/xml-events" xmlns:xlink="http://www.w3.org/1999/xlink"><defs /><polyline fill="none" points="74.1966,19.5254 60.7458,16.0542 47.2949,16.0542 36.4475,18.2237 28.6373,21.6949 20.8271,26.9017 15.6203,32.1085 11.2814,39.9186 8.678,47.7288 8.678,58.5763 10.4136,66.8203 17.3559,83.3085 33.4102,105.0034 44.2576,112.3797 56.8407,117.1525 68.9898,119.322 83.3085,119.322 97.1932,114.9831 105.4373,109.7763 112.3797,101.5322 117.5864,90.6847 118.8881,75.9322 115.4169,55.9729 111.9458,44.6915 103.2678,31.2407 97.1932,22.9966 85.478,15.6203 72.461,10.8475 59.878,8.678" stroke="#00007f" stroke-width="2" /><polyline fill="none" points="9.1119,68.122 19.9593,62.9153 33.8441,60.7458 44.2576,60.7458 60.7458,67.2542 71.1593,75.9322 76.8,84.1763 87.2136,102.4 88.5153,108.4746" stroke="#7cff79" stroke-width="2" /><polyline fill="none" points="59.0102,13.4508 69.8576,34.7119 77.2339,43.3898 93.2881,54.2373 108.9085,60.3119 117.5864,62.0475" stroke="#7f0000" stroke-width="2" /></svg>