<?xml version="1.0" encoding="utf-8" ?>
<svg baseProfile="tiny" height="128" version="1.2" viewBox="0,0,128,128" width="128" xmlns="http://www.w3.org/2000/svg" xmlns:ev="http://www.w3.org/2001/xml-events" xmlns:xlink="http://www.w3.org/1999/xlink"><defs /><polyline fill="none" points="97.1932,23.8644 87.6475,16.4881 75.9322,10.4136 62.9153,8.678 55.9729,9.1119 48.5966,11.7153 39.4847,16.4881 31.2407,23.8644 17.3559,39.9186 12.5831,48.1627 8.678,66.8203 8.678,75.0644 11.2814,82.4407 15.6203,88.9492 26.0339,98.061 48.1627,104.5695 64.6508,106.3051 72.0271,105.8712 85.478,99.7966 91.1186,95.4576 98.9288,85.478 104.1356,72.8949 105.4373,65.9525 105.8712,46.4271 102.8339,32.9763 100.6644,26.9017 93.722,18.6576 80.7051,14.7525" stroke="#00007f" stroke-width="2" /><polyline fill="none" points="33.8441,17.7898 37.7492,17.7898 42.9559,20.8271 48.1627,27.7695 49.8983,35.1458 50.3322,52.9356 47.2949,72.0271 38.1831,101.9661 30.8068,115.8508 27.7695,118.4542 26.0339,119.322 25.1661,118.4542" stroke="#0080ff" stroke-width="2" /><polyline fill="none" points="81.5729,10.4136 72.8949,24.7322 68.5559,37.7492 66.8203,54.2373 67.2542,72.461 71.5932,84.6102 75.9322,88.9492 85.478,92.8542 95.0237,91.9864" stroke="#7cff79" stroke-width="2" /><polyline fill="none" points="38.6169,29.5051 48.5966,20.8271" stroke="#ff9400" stroke-width="2" /><polyline fill="none" points="41.2203,37.3153 45.1254,36.4475 55.9729,30.3729" stroke="#7f0000" stroke-width="2" /></svg>