<?xml version="1.0" encoding="utf-8" ?>
<svg baseProfile="tiny" height="128" version="1.2" viewBox="0,0,128,128" width="128" xmlns="http://www.w3.org/2000/svg" xmlns:ev="http://www.w3.org/2001/xml-events" xmlns:xlink="http://www.w3.org/1999/xlink"><defs /><polyline fill="none" points="58.1424,11.7153 50.7661,8.678 41.6542,13.4508 28.6373,22.5627 18.2237,33.8441 8.678,56.4068 10.8475,67.2542 18.2237,77.2339 32.9763,84.6102 52.5017,89.3831 72.461,88.9492 88.9492,82.0068 102.4,73.3288 109.7763,65.0847 114.1153,57.7085 111.078,45.1254 103.2678,28.2034 98.061,21.261 92.8542,16.4881 86.7797,14.3186 57.7085,13.8847 47.7288,15.6203 45.5593,18.6576" stroke="#00007f" stroke-width="2" /><polyline fill="none" points="23.4305,25.6 36.4475,31.2407 41.2203,35.1458 44.2576,40.3525 44.6915,45.5593 34.278,70.7254 31.6746,79.8373 32.9763,84.6102 36.8814,86.7797" stroke="#0000ff" stroke-width="2" /><polyline fill="none" points="107.6068,16.0542 100.2305,20.8271 86.3458,36.0136 76.3661,53.8034 77.6678,70.2915 80.2712,78.1017 83.3085,80.7051" stroke="#0080ff" stroke-width="2" /><polyline fill="none" points="64.2169,42.9559 103.2678,35.5797" stroke="#15ffe1" stroke-width="2" /><polyline fill="none" points="69.8576,53.8034 77.2339,50.7661 94.1559,49.8983" stroke="#7cff79" stroke-width="2" /><polyline fill="none" points="68.5559,64.6508 101.5322,56.4068" stroke="#e4ff12" stroke-width="2" /><polyline fill="none" points="71.1593,72.8949 99.3627,66.3864 119.322,59.878" stroke="#ff9400" stroke-width="2" /><polyline fill="none" points="35.1458,44.6915 38.1831,42.522 45.9932,41.2203" stroke="#ff1d00" stroke-width="2" /><polyline fill="none" points="22.5627,56.4068 46.861,50.7661" stroke="#7f0000" stroke-width="2" /></svg>