<?xml version="1.0" encoding="utf-8" ?>
<svg baseProfile="tiny" height="128" version="1.2" viewBox="0,0,128,128" width="128" xmlns="http://www.w3.org/2000/svg" xmlns:ev="http://www.w3.org/2001/xml-events" xmlns:xlink="http://www.w3.org/1999/xlink"><defs /><polyline fill="none" points="94.9116,23.0748 61.8231,9.5782 54.8571,8.7075 46.1497,9.5782 27.8639,22.2041 19.1565,33.5238 13.4966,46.585 10.449,59.2109 8.7075,78.3673 9.1429,84.898 11.3197,90.5578 26.5578,101.4422 43.5374,104.0544 58.3401,104.0544 67.9184,102.3129 80.9796,97.5238 105.7959,79.2381 117.9864,59.2109 119.2925,36.1361 116.6803,30.0408 109.7143,25.2517 88.8163,19.5918" stroke="#00007f" stroke-width="2" /><polyline fill="none" points="60.0816,10.8844 54.4218,16.5442 51.3741,24.8163 43.5374,52.2449 43.102,61.8231 50.068,85.3333 60.9524,98.3946" stroke="#0080ff" stroke-width="2" /><polyline fill="none" points="41.3605,30.0408 52.2449,30.9116 58.7755,33.5238" stroke="#7cff79" stroke-width="2" /><polyline fill="none" points="35.7007,47.4558 54.4218,50.5034" stroke="#ff9400" stroke-width="2" /><polyline fill="none" points="42.2313,67.9184 42.2313,67.9184" stroke="#7f0000" stroke-width="2" /></svg>