<?xml version="1.0" encoding="utf-8" ?>
<svg baseProfile="tiny" height="128" version="1.2" viewBox="0,0,128,128" width="128" xmlns="http://www.w3.org/2000/svg" xmlns:ev="http://www.w3.org/2001/xml-events" xmlns:xlink="http://www.w3.org/1999/xlink"><defs /><polyline fill="none" points="87.6475,35.1458 83.7424,29.0712 72.8949,19.5254 55.539,11.7153 46.4271,9.5458 32.1085,8.678 25.6,9.9797 20.8271,14.7525 13.4508,27.7695 10.8475,35.1458 8.678,49.4644 9.1119,70.2915 13.4508,82.8746 22.1288,95.8915 26.4678,101.9661 37.3153,110.2102 55.9729,117.5864 80.7051,119.322 91.9864,115.8508 102.4,109.3424 106.739,104.5695 113.6814,94.1559 116.7186,81.5729 117.1525,68.5559 116.7186,58.1424 114.5492,52.9356 105.0034,40.3525 98.061,33.8441 88.5153,29.5051 73.7627,26.0339" stroke="#00007f" stroke-width="2" /><polyline fill="none" points="72.461,17.7898 72.461,86.3458 74.6305,92.8542 80.7051,100.6644 84.6102,102.4 92.4203,102.8339" stroke="#004cff" stroke-width="2" /><polyline fill="none" points="51.6339,18.6576 45.9932,23.4305 43.8237,32.9763 43.8237,49.0305 47.2949,71.1593 47.7288,81.5729 45.5593,84.6102 40.3525,87.6475 16.0542,96.7593" stroke="#29ffcd" stroke-width="2" /><polyline fill="none" points="52.5017,33.8441 51.6339,36.0136 39.4847,34.278" stroke="#cdff29" stroke-width="2" /><polyline fill="none" points="46.861,52.0678 41.2203,51.6339 37.7492,49.4644" stroke="#ff6700" stroke-width="2" /><polyline fill="none" points="48.5966,67.2542 45.9932,71.5932 42.9559,71.5932 32.1085,65.9525" stroke="#7f0000" stroke-width="2" /></svg>