<?xml version="1.0" encoding="utf-8" ?>
<svg baseProfile="tiny" height="128" version="1.2" viewBox="0,0,128,128" width="128" xmlns="http://www.w3.org/2000/svg" xmlns:ev="http://www.w3.org/2001/xml-events" xmlns:xlink="http://www.w3.org/1999/xlink"><defs /><polyline fill="none" points="40.7864,25.6 29.939,29.0712 20.3932,38.6169 12.5831,53.3695 9.9797,70.2915 11.2814,84.6102 17.7898,96.3254 23.8644,101.5322 36.0136,107.1729 56.8407,108.9085 78.9695,105.4373 87.6475,98.061 91.9864,89.8169 95.8915,75.9322 96.7593,64.2169 95.8915,58.5763 91.5525,49.4644 85.478,42.0881 78.1017,37.7492 59.4441,32.1085 52.9356,29.0712" stroke="#00007f" stroke-width="2" /><polyline fill="none" points="62.4814,8.678 60.7458,13.8847" stroke="#0080ff" stroke-width="2" /><polyline fill="none" points="42.9559,29.0712 45.1254,31.2407 44.6915,36.8814 39.0508,46.4271 35.1458,61.1797 27.7695,65.5186 16.0542,77.6678 11.7153,78.1017 9.1119,76.3661 8.678,74.6305" stroke="#7cff79" stroke-width="2" /><polyline fill="none" points="68.122,32.9763 68.122,55.1051 70.7254,69.4237 76.3661,75.9322 94.5898,80.7051" stroke="#ff9400" stroke-width="2" /><polyline fill="none" points="35.1458,72.461 38.1831,95.4576 36.8814,109.7763 35.5797,113.6814 32.5424,116.7186 25.6,119.322" stroke="#7f0000" stroke-width="2" /></svg>