<?xml version="1.0" encoding="utf-8" ?>
<svg baseProfile="tiny" height="128" version="1.2" viewBox="0,0,128,128" width="128" xmlns="http://www.w3.org/2000/svg" xmlns:ev="http://www.w3.org/2001/xml-events" xmlns:xlink="http://www.w3.org/1999/xlink"><defs /><polyline fill="none" points="101.9661,15.6203 98.4949,12.5831 86.7797,9.9797 49.0305,8.678 36.8814,13.4508 31.6746,16.4881 23.4305,23.4305 17.3559,30.8068 12.1492,43.8237 9.1119,55.1051 8.678,68.122 12.5831,79.8373 19.5254,91.1186 27.7695,99.3627 37.3153,105.4373 49.4644,110.2102 61.1797,111.9458 78.5356,111.078 89.8169,107.1729 98.4949,101.9661 106.3051,96.3254 111.9458,88.5153 114.5492,80.7051 119.322,58.5763 119.322,43.3898 114.1153,26.9017 108.9085,16.4881 105.8712,14.3186 101.0983,13.4508" stroke="#00007f" stroke-width="2" /><polyline fill="none" points="45.5593,17.3559 40.7864,50.3322 40.3525,69.4237 37.7492,87.2136 37.7492,103.7017" stroke="#7cff79" stroke-width="2" /><polyline fill="none" points="47.2949,22.5627 48.1627,15.1864" stroke="#7f0000" stroke-width="2" /></svg>