<?xml version="1.0" encoding="utf-8" ?>
<svg baseProfile="tiny" height="128" version="1.2" viewBox="0,0,128,128" width="128" xmlns="http://www.w3.org/2000/svg" xmlns:ev="http://www.w3.org/2001/xml-events" xmlns:xlink="http://www.w3.org/1999/xlink"><defs /><polyline fill="none" points="52.5017,8.678 39.0508,8.678 28.6373,13.0169 19.9593,21.6949 11.7153,38.6169 8.678,52.9356 8.678,78.5356 20.3932,106.739 25.1661,111.5119 29.5051,113.6814 43.3898,118.0203 52.5017,119.322 82.0068,119.322 85.478,118.8881 100.2305,111.5119 108.0407,105.0034 110.6441,99.7966 112.8136,92.4203 113.2475,72.8949 105.0034,44.2576 99.7966,33.4102 94.5898,26.0339 84.6102,17.7898 60.3119,9.1119 51.2,8.678 49.8983,11.2814 52.5017,25.1661 53.3695,41.6542 47.7288,57.2746 39.0508,72.8949 33.4102,79.4034 26.4678,84.1763 12.1492,85.9119 18.6576,85.478" stroke="#00007f" stroke-width="2" /><polyline fill="none" points="106.739,44.6915 90.6847,50.3322 84.1763,57.2746 75.0644,72.461 71.1593,86.3458 71.1593,93.722 75.9322,108.4746 78.1017,110.2102" stroke="#00d4ff" stroke-width="2" /><polyline fill="none" points="70.2915,97.1932 77.2339,95.0237" stroke="#ffe500" stroke-width="2" /><polyline fill="none" points="64.2169,80.2712 78.9695,80.7051" stroke="#7f0000" stroke-width="2" /></svg>