<?xml version="1.0" encoding="utf-8" ?>
<svg baseProfile="tiny" height="128" version="1.2" viewBox="0,0,128,128" width="128" xmlns="http://www.w3.org/2000/svg" xmlns:ev="http://www.w3.org/2001/xml-events" xmlns:xlink="http://www.w3.org/1999/xlink"><defs /><polyline fill="none" points="76.1905,13.0612 73.1429,10.8844 34.3946,10.449 20.0272,14.8027 15.2381,19.1565 11.3197,26.9932 8.7075,37.0068 8.7075,91.8639 9.1429,97.9592 11.3197,100.5714 30.0408,107.5374 46.1497,107.9728 66.6122,105.7959 90.1224,100.5714 101.0068,92.7347 107.102,85.3333 114.068,62.2585 113.1973,48.7619 110.1497,40.9252 101.8776,30.9116 91.4286,20.898 70.5306,8.7075" stroke="#00007f" stroke-width="2" /><polyline fill="none" points="28.7347,10.8844 30.9116,42.2313 30.4762,64.0 23.5102,75.7551 14.3673,83.5918 12.6259,83.1565 14.8027,84.4626" stroke="#7cff79" stroke-width="2" /><polyline fill="none" points="55.2925,106.6667 53.9864,102.7483 55.2925,85.7687 60.0816,74.8844 68.7891,64.4354 91.4286,46.1497 100.1361,44.8435 119.2925,47.0204" stroke="#7f0000" stroke-width="2" /></svg>