<?xml version="1.0" encoding="utf-8" ?>
<svg baseProfile="tiny" height="128" version="1.2" viewBox="0,0,128,128" width="128" xmlns="http://www.w3.org/2000/svg" xmlns:ev="http://www.w3.org/2001/xml-events" xmlns:xlink="http://www.w3.org/1999/xlink"><defs /><polyline fill="none" points="68.5559,12.5831 59.4441,10.4136 50.7661,12.1492 38.6169,17.3559 26.9017,27.7695 19.5254,37.7492 13.0169,50.7661 9.9797,60.7458 8.678,71.1593 9.9797,85.9119 13.8847,95.0237 26.0339,108.9085 34.278,113.2475 50.7661,114.9831 66.8203,111.078 76.3661,105.0034 82.0068,99.7966 91.9864,84.1763 99.3627,63.3492 100.2305,45.5593 98.9288,38.1831 97.1932,32.1085 91.1186,20.3932 84.6102,13.0169 78.9695,9.9797 72.461,8.678 62.9153,9.5458 56.8407,12.1492 48.1627,19.0915" stroke="#00007f" stroke-width="2" /><polyline fill="none" points="79.4034,11.2814 78.1017,18.6576 71.1593,29.0712 65.0847,46.4271 62.4814,63.3492 62.4814,78.1017 64.6508,92.8542 68.5559,102.8339 73.3288,108.0407 80.2712,108.9085 81.5729,108.0407" stroke="#0028ff" stroke-width="2" /><polyline fill="none" points="26.0339,26.0339 32.1085,42.522 34.278,61.1797 32.1085,85.0441 27.7695,105.0034 19.9593,119.322" stroke="#00d4ff" stroke-width="2" /><polyline fill="none" points="62.0475,29.0712 74.1966,29.5051" stroke="#7cff79" stroke-width="2" /><polyline fill="none" points="57.7085,47.7288 67.6881,47.7288 67.6881,49.0305" stroke="#ffe500" stroke-width="2" /><polyline fill="none" points="52.5017,72.0271 60.7458,70.7254 68.5559,65.9525" stroke="#ff4600" stroke-width="2" /><polyline fill="none" points="56.8407,90.6847 75.4983,81.5729" stroke="#7f0000" stroke-width="2" /></svg>