<?xml version="1.0" encoding="utf-8" ?>
<svg baseProfile="tiny" height="128" version="1.2" viewBox="0,0,128,128" width="128" xmlns="http://www.w3.org/2000/svg" xmlns:ev="http://www.w3.org/2001/xml-events" xmlns:xlink="http://www.w3.org/1999/xlink"><defs /><polyline fill="none" points="48.5966,19.0915 48.5966,14.3186 39.4847,16.4881 33.4102,19.0915 28.6373,22.9966 11.7153,42.9559 8.678,54.2373 13.4508,69.4237 17.3559,75.4983 34.7119,85.9119 46.4271,89.8169 65.0847,92.4203 85.9119,91.5525 99.3627,88.0814 108.9085,82.0068 113.2475,77.6678 119.322,61.1797 118.4542,40.3525 113.2475,28.6373 107.6068,22.1288 101.0983,17.3559 85.9119,9.5458 78.9695,8.678 67.6881,9.5458 46.861,22.1288 40.3525,28.6373 41.2203,29.5051" stroke="#00007f" stroke-width="2" /><polyline fill="none" points="31.6746,22.1288 36.4475,23.8644 48.5966,40.7864 51.6339,49.0305 54.2373,63.7831 54.6712,71.5932 52.5017,78.1017 45.5593,85.9119 35.5797,92.4203 37.3153,88.9492" stroke="#7cff79" stroke-width="2" /><polyline fill="none" points="93.722,17.3559 88.9492,16.4881 84.1763,21.261 79.4034,27.7695 74.6305,40.7864 72.461,58.1424 72.461,78.9695 73.7627,84.1763 81.5729,97.6271 85.0441,102.4 95.4576,108.0407" stroke="#7f0000" stroke-width="2" /></svg>