<?xml version="1.0" encoding="utf-8" ?>
<svg baseProfile="tiny" height="128" version="1.2" viewBox="0,0,128,128" width="128" xmlns="http://www.w3.org/2000/svg" xmlns:ev="http://www.w3.org/2001/xml-events" xmlns:xlink="http://www.w3.org/1999/xlink"><defs /><polyline fill="none" points="63.7831,9.5458 53.3695,8.678 43.3898,11.2814 31.6746,18.2237 16.0542,35.1458 13.8847,39.0508 9.9797,52.9356 8.678,66.8203 9.9797,78.5356 14.3186,88.9492 24.2983,100.2305 38.1831,109.3424 49.0305,114.1153 57.7085,116.2847 73.7627,115.8508 86.3458,113.6814 103.7017,107.1729 112.8136,99.3627 117.5864,90.6847 119.322,80.2712 118.8881,58.5763 113.6814,43.3898 102.8339,31.2407 89.8169,19.9593 67.6881,10.8475 63.3492,11.2814 63.3492,17.7898 48.1627,46.4271 39.4847,54.2373 12.1492,65.0847" stroke="#00007f" stroke-width="2" /><polyline fill="none" points="111.9458,45.9932 105.4373,45.5593 97.1932,49.0305 74.6305,71.1593 63.3492,87.2136 59.878,95.4576 58.1424,104.5695 59.4441,114.9831" stroke="#0028ff" stroke-width="2" /><polyline fill="none" points="55.1051,98.9288 59.0102,99.3627 65.9525,102.8339" stroke="#00d4ff" stroke-width="2" /><polyline fill="none" points="61.6136,85.478 69.4237,89.3831" stroke="#7cff79" stroke-width="2" /><polyline fill="none" points="73.7627,71.1593 80.7051,79.8373" stroke="#ffe500" stroke-width="2" /><polyline fill="none" points="94.1559,54.6712 99.7966,60.3119" stroke="#ff4600" stroke-width="2" /><polyline fill="none" points="109.7763,44.6915 112.8136,51.2" stroke="#7f0000" stroke-width="2" /></svg>