<?xml version="1.0" encoding="utf-8" ?>
<svg baseProfile="tiny" height="128" version="1.2" viewBox="0,0,128,128" width="128" xmlns="http://www.w3.org/2000/svg" xmlns:ev="http://www.w3.org/2001/xml-events" xmlns:xlink="http://www.w3.org/1999/xlink"><defs /><polyline fill="none" points="30.3729,16.4881 26.4678,19.5254 12.1492,48.5966 9.5458,60.3119 8.678,84.1763 11.7153,95.8915 17.7898,103.7017 27.3356,111.5119 46.4271,118.8881 67.6881,119.322 77.6678,116.7186 88.0814,112.8136 105.8712,100.2305 111.078,92.8542 114.1153,84.1763 114.9831,63.3492 110.2102,47.2949 101.5322,32.1085 93.2881,22.9966 80.2712,13.4508 69.8576,9.5458 51.6339,8.678 32.1085,16.922" stroke="#00007f" stroke-width="2" /><polyline fill="none" points="32.5424,16.4881 34.278,18.6576 36.4475,35.1458 36.0136,61.6136 33.4102,69.8576 25.1661,85.0441 14.7525,97.6271" stroke="#7cff79" stroke-width="2" /><polyline fill="none" points="78.5356,14.3186 71.5932,42.522 71.1593,59.878 72.8949,67.6881 82.0068,87.2136 95.0237,101.0983 98.4949,103.2678" stroke="#7f0000" stroke-width="2" /></svg>