<?xml version="1.0" encoding="utf-8" ?>
<svg baseProfile="tiny" height="128" version="1.2" viewBox="0,0,128,128" width="128" xmlns="http://www.w3.org/2000/svg" xmlns:ev="http://www.w3.org/2001/xml-events" xmlns:xlink="http://www.w3.org/1999/xlink"><defs /><polyline fill="none" points="32.6531,56.1633 31.3469,62.6939 35.2653,63.1293 42.6667,59.2109 45.7143,55.2925 38.3129,54.4218 29.1701,34.3946 21.3333,22.6395 10.449,16.9796 8.7075,18.2857 8.7075,22.6395 14.3673,34.3946 33.0884,54.8571" stroke="#00007f" stroke-width="2" /><polyline fill="none" points="29.6054,50.5034 34.3946,45.2789" stroke="#0000f1" stroke-width="2" /><polyline fill="none" points="32.2177,53.1156 37.8776,48.7619" stroke="#004cff" stroke-width="2" /><polyline fill="none" points="33.9592,54.4218 36.5714,53.1156" stroke="#00b0ff" stroke-width="2" /><polyline fill="none" points="97.0884,9.5782 86.6395,13.0612 81.415,16.1088 74.8844,25.6871 73.5782,33.5238 79.6735,41.7959 87.9456,47.0204 95.3469,48.7619 103.619,47.0204 108.4082,43.102 115.8095,32.2177 116.2449,24.8163 111.8912,17.8503 103.1837,12.1905 94.4762,10.8844 90.9932,12.1905" stroke="#29ffcd" stroke-width="2" /><polyline fill="none" points="79.6735,19.5918 84.0272,23.5102 84.898,30.4762 81.8503,38.3129 78.3673,41.3605" stroke="#7cff79" stroke-width="2" /><polyline fill="none" points="112.3265,17.8503 105.7959,21.7687 103.619,29.1701 107.9728,33.9592 111.8912,35.7007 117.551,35.7007 119.2925,33.5238" stroke="#cdff29" stroke-width="2" /><polyline fill="none" points="91.4286,11.7551 97.9592,46.585" stroke="#ffc400" stroke-width="2" /><polyline fill="none" points="86.6395,26.5578 103.1837,24.8163" stroke="#ff6700" stroke-width="2" /><polyline fill="none" points="101.4422,8.7075 101.8776,12.1905 98.8299,16.9796 93.1701,39.1837 89.6871,49.1973 88.381,48.7619" stroke="#f10700" stroke-width="2" /><polyline fill="none" points="77.932,19.1565 93.1701,26.5578 114.9388,42.2313" stroke="#7f0000" stroke-width="2" /></svg>