<?xml version="1.0" encoding="utf-8" ?>
<svg baseProfile="tiny" height="128" version="1.2" viewBox="0,0,128,128" width="128" xmlns="http://www.w3.org/2000/svg" xmlns:ev="http://www.w3.org/2001/xml-events" xmlns:xlink="http://www.w3.org/1999/xlink"><defs /><polyline fill="none" points="76.1905,117.551 72.2721,119.2925 57.9048,119.2925 38.7483,115.3741 30.4762,111.4558 22.2041,105.3605 15.6735,98.3946 11.3197,89.2517 9.1429,77.0612 8.7075,58.7755 12.1905,44.8435 21.7687,27.8639 30.9116,19.1565 42.2313,11.7551 52.6803,8.7075 70.5306,8.7075 80.9796,11.7551 90.1224,17.415 99.7007,28.7347 109.2789,46.585 115.3741,77.4966 114.5034,90.5578 107.9728,101.0068 101.4422,106.6667 92.7347,111.4558 83.5918,114.068 70.0952,113.1973" stroke="#00007f" stroke-width="2" /><polyline fill="none" points="101.0068,30.9116 100.5714,33.5238 91.8639,41.7959 87.5102,49.6327 85.7687,59.2109 85.7687,71.4014 87.9456,84.898 93.6054,104.0544 97.5238,112.7619 102.3129,117.1156" stroke="#7cff79" stroke-width="2" /><polyline fill="none" points="16.9796,29.1701 27.4286,39.619 31.3469,45.2789 33.0884,52.6803 33.9592,83.1565 31.3469,97.0884 27.4286,105.3605" stroke="#7f0000" stroke-width="2" /></svg>