<?xml version="1.0" encoding="utf-8" ?>
<svg baseProfile="tiny" height="128" version="1.2" viewBox="0,0,128,128" width="128" xmlns="http://www.w3.org/2000/svg" xmlns:ev="http://www.w3.org/2001/xml-events" xmlns:xlink="http://www.w3.org/1999/xlink"><defs /><polyline fill="none" points="59.0102,9.1119 54.6712,8.678 42.9559,10.8475 34.278,15.1864 22.9966,24.2983 13.0169,37.7492 8.678,53.8034 8.678,76.3661 9.9797,82.8746 14.3186,97.1932 22.9966,110.6441 29.939,115.8508 36.4475,118.4542 57.7085,119.322 68.122,116.2847 75.0644,111.5119 82.4407,100.6644 88.5153,82.0068 88.9492,61.1797 85.0441,45.5593 77.6678,32.5424 54.2373,15.1864 46.4271,12.1492" stroke="#00007f" stroke-width="2" /><polyline fill="none" points="18.6576,40.7864 19.5254,42.522 21.261,41.2203 24.2983,33.4102 24.7322,34.7119" stroke="#0000fe" stroke-width="2" /><polyline fill="none" points="19.0915,46.861 22.1288,49.8983 26.4678,42.0881" stroke="#0060ff" stroke-width="2" /><polyline fill="none" points="21.6949,61.6136 23.4305,68.5559 25.1661,66.8203 27.3356,61.6136" stroke="#00d4ff" stroke-width="2" /><polyline fill="none" points="22.9966,75.0644 27.3356,81.139 29.939,76.3661" stroke="#4cffaa" stroke-width="2" /><polyline fill="none" points="22.9966,58.1424 24.7322,62.9153 26.9017,55.1051" stroke="#aaff4c" stroke-width="2" /><polyline fill="none" points="25.6,86.3458 26.9017,92.4203 28.6373,92.4203 31.6746,87.6475" stroke="#ffe500" stroke-width="2" /><polyline fill="none" points="25.1661,101.9661 26.0339,107.6068 32.5424,102.8339" stroke="#ff7a00" stroke-width="2" /><polyline fill="none" points="17.7898,31.6746 20.8271,38.6169 27.7695,72.0271 27.7695,108.9085" stroke="#fe1200" stroke-width="2" /><polyline fill="none" points="65.5186,26.0339 72.461,47.2949 73.3288,108.9085 72.0271,113.2475" stroke="#7f0000" stroke-width="2" /></svg>