<?xml version="1.0" encoding="utf-8" ?>
<svg baseProfile="tiny" height="128" version="1.2" viewBox="0,0,128,128" width="128" xmlns="http://www.w3.org/2000/svg" xmlns:ev="http://www.w3.org/2001/xml-events" xmlns:xlink="http://www.w3.org/1999/xlink"><defs /><polyline fill="none" points="100.2305,16.0542 91.5525,11.7153 78.1017,8.678 58.5763,9.5458 39.4847,14.7525 21.261,26.9017 11.7153,41.6542 8.678,55.539 8.678,70.7254 10.8475,77.2339 22.5627,90.2508 41.6542,97.6271 75.4983,98.9288 82.4407,98.061 90.6847,93.722 100.6644,84.1763 119.322,51.6339 119.322,43.3898 110.6441,15.1864 102.8339,10.8475 94.1559,13.0169" stroke="#00007f" stroke-width="2" /><polyline fill="none" points="94.1559,11.7153 80.7051,20.8271 74.6305,28.6373 72.461,32.9763 66.3864,62.0475 66.3864,95.4576" stroke="#0080ff" stroke-width="2" /><polyline fill="none" points="47.7288,11.7153 51.6339,20.3932 53.3695,45.5593 49.0305,59.0102 39.0508,78.5356 26.0339,89.3831" stroke="#7cff79" stroke-width="2" /><polyline fill="none" points="79.8373,29.0712 67.2542,29.939" stroke="#ff9400" stroke-width="2" /><polyline fill="none" points="75.4983,44.6915 75.4983,44.6915" stroke="#7f0000" stroke-width="2" /></svg>