<?xml version="1.0" encoding="utf-8" ?>
<svg baseProfile="tiny" height="128" version="1.2" viewBox="0,0,128,128" width="128" xmlns="http://www.w3.org/2000/svg" xmlns:ev="http://www.w3.org/2001/xml-events" xmlns:xlink="http://www.w3.org/1999/xlink"><defs /><polyline fill="none" points="33.4102,12.5831 22.1288,16.922 15.6203,26.4678 9.9797,39.9186 8.678,49.4644 8.678,74.1966 15.6203,89.3831 32.1085,105.8712 45.5593,113.6814 60.3119,119.322 73.3288,119.322 81.139,116.7186 88.9492,111.5119 93.2881,104.1356 97.6271,89.3831 97.6271,79.8373 94.5898,70.2915 88.0814,51.2 71.5932,29.0712 53.8034,12.5831 46.861,8.678 41.6542,9.9797" stroke="#00007f" stroke-width="2" /><polyline fill="none" points="42.9559,12.5831 42.9559,35.5797 45.5593,44.2576 45.5593,59.0102 46.861,65.9525 29.0712,81.139 23.8644,88.0814" stroke="#7cff79" stroke-width="2" /><polyline fill="none" points="52.5017,67.2542 66.8203,68.5559 77.2339,71.5932 94.5898,79.8373 94.5898,82.4407" stroke="#7f0000" stroke-width="2" /></svg>