<?xml version="1.0" encoding="utf-8" ?>
<svg baseProfile="tiny" height="128" version="1.2" viewBox="0,0,128,128" width="128" xmlns="http://www.w3.org/2000/svg" xmlns:ev="http://www.w3.org/2001/xml-events" xmlns:xlink="http://www.w3.org/1999/xlink"><defs /><polyline fill="none" points="46.861,11.7153 27.3356,19.9593 19.0915,29.0712 13.8847,43.3898 8.678,66.8203 9.9797,79.4034 17.3559,100.6644 25.6,106.739 45.1254,111.5119 75.9322,110.6441 93.2881,105.0034 102.4,97.1932 113.2475,79.8373 118.0203,69.4237 118.4542,62.4814 119.322,44.2576 115.4169,36.0136 108.4746,25.6 100.2305,17.7898 79.4034,9.5458 72.8949,8.678 61.1797,9.1119 54.6712,10.8475 49.0305,13.4508 36.8814,22.9966" stroke="#00007f" stroke-width="2" /><polyline fill="none" points="48.5966,16.0542 48.5966,48.1627 44.6915,82.8746 41.6542,91.9864 29.0712,110.6441" stroke="#7cff79" stroke-width="2" /><polyline fill="none" points="84.1763,17.7898 82.8746,49.0305 86.7797,73.3288 92.8542,87.6475 104.5695,104.1356" stroke="#7f0000" stroke-width="2" /></svg>