<?xml version="1.0" encoding="utf-8" ?>
<svg baseProfile="tiny" height="128" version="1.2" viewBox="0,0,128,128" width="128" xmlns="http://www.w3.org/2000/svg" xmlns:ev="http://www.w3.org/2001/xml-events" xmlns:xlink="http://www.w3.org/1999/xlink"><defs /><polyline fill="none" points="36.2594,13.5427 45.4334,10.4846 58.9761,8.7372 85.6246,8.7372 99.1672,12.6689 109.6519,19.6587 115.3311,27.0853 119.2628,36.2594 119.2628,62.0341 114.0205,75.5768 105.2833,88.6826 95.6724,100.041 83.0034,108.7782 70.3345,113.1468 46.3072,114.8942 35.3857,109.215 26.6485,100.9147 17.9113,89.9932 12.6689,78.6348 8.7372,65.0922 8.7372,38.8805 11.7952,29.2696 17.9113,21.843 26.2116,17.0375 35.8225,14.8532 55.4812,14.8532" stroke="#00007f" stroke-width="2" /><polyline fill="none" points="39.3174,35.8225 46.3072,67.2765 48.4915,110.0887" stroke="#0080ff" stroke-width="2" /><polyline fill="none" points="64.2184,14.8532 64.2184,33.2014 76.4505,106.157" stroke="#7cff79" stroke-width="2" /><polyline fill="none" points="73.8294,17.0375 75.5768,38.4437 80.3823,55.0444 92.6143,89.5563 97.8567,96.1092" stroke="#ff9400" stroke-width="2" /><polyline fill="none" points="16.6007,64.2184 21.843,62.471 30.5802,68.587 45.8703,73.3925 71.6451,73.3925 84.7509,68.587 96.5461,62.471 103.9727,56.3549 110.0887,48.0546 114.0205,32.3276 114.0205,24.901 110.9625,23.1536" stroke="#7f0000" stroke-width="2" /></svg>