<?xml version="1.0" encoding="utf-8" ?>
<svg baseProfile="tiny" height="128" version="1.2" viewBox="0,0,128,128" width="128" xmlns="http://www.w3.org/2000/svg" xmlns:ev="http://www.w3.org/2001/xml-events" xmlns:xlink="http://www.w3.org/1999/xlink"><defs /><polyline fill="none" points="43.3898,33.8441 34.7119,33.4102 25.6,35.5797 17.3559,39.0508 9.5458,46.861 8.678,54.2373 10.4136,62.4814 13.4508,69.8576 19.5254,73.7627 33.4102,75.4983 41.2203,74.1966 55.9729,66.8203 62.9153,59.878 64.6508,55.9729 65.5186,45.9932 62.0475,40.3525 44.2576,33.4102 36.8814,32.1085" stroke="#00007f" stroke-width="2" /><polyline fill="none" points="75.4983,79.4034 75.0644,80.7051 78.5356,82.4407 80.2712,82.4407 80.2712,79.4034 74.6305,77.6678" stroke="#0080ff" stroke-width="2" /><polyline fill="none" points="77.2339,78.1017 76.8,70.7254 84.1763,40.3525 89.3831,28.6373 105.8712,11.7153 114.9831,8.678 117.5864,10.8475 119.322,16.922 116.7186,28.6373 93.2881,62.0475 83.3085,74.1966 81.139,79.4034" stroke="#7cff79" stroke-width="2" /><polyline fill="none" points="52.0678,38.6169 43.8237,53.8034 43.8237,61.6136 45.5593,65.9525" stroke="#ff9400" stroke-width="2" /><polyline fill="none" points="24.2983,36.4475 27.3356,44.2576 27.7695,56.8407 25.1661,63.7831 19.9593,69.4237" stroke="#7f0000" stroke-width="2" /></svg>