<?xml version="1.0" encoding="utf-8" ?>
<svg baseProfile="tiny" height="128" version="1.2" viewBox="0,0,128,128" width="128" xmlns="http://www.w3.org/2000/svg" xmlns:ev="http://www.w3.org/2001/xml-events" xmlns:xlink="http://www.w3.org/1999/xlink"><defs /><polyline fill="none" points="49.6327,19.5918 37.8776,18.7211 30.0408,21.3333 17.8503,29.6054 13.4966,34.8299 9.5782,44.4082 8.7075,55.2925 10.0136,63.1293 14.8027,73.5782 20.0272,79.6735 29.6054,87.5102 37.0068,91.8639 45.2789,94.0408 63.1293,95.3469 80.5442,91.4286 92.2993,87.0748 107.102,75.7551 114.068,66.6122 119.2925,53.551 118.8571,40.0544 113.6327,26.5578 105.7959,18.7211 89.6871,10.8844 81.415,9.1429 70.5306,8.7075" stroke="#00007f" stroke-width="2" /><polyline fill="none" points="30.4762,20.0272 41.7959,30.9116 46.585,47.8912 47.0204,58.3401 44.4082,68.7891 36.5714,80.9796" stroke="#0028ff" stroke-width="2" /><polyline fill="none" points="89.6871,16.5442 84.0272,38.3129 83.1565,60.0816 86.2041,66.6122 90.9932,72.7075 98.8299,78.8027 107.5374,82.2857" stroke="#00d4ff" stroke-width="2" /><polyline fill="none" points="28.2993,29.6054 50.9388,26.5578" stroke="#7cff79" stroke-width="2" /><polyline fill="none" points="32.6531,46.1497 47.0204,44.8435" stroke="#ffe500" stroke-width="2" /><polyline fill="none" points="29.6054,56.5986 46.1497,57.034 47.4558,57.034 47.0204,57.9048" stroke="#ff4600" stroke-width="2" /><polyline fill="none" points="29.6054,73.1429 35.7007,75.3197 56.5986,71.4014" stroke="#7f0000" stroke-width="2" /></svg>