<?xml version="1.0" encoding="utf-8" ?>
<svg baseProfile="tiny" height="128" version="1.2" viewBox="0,0,128,128" width="128" xmlns="http://www.w3.org/2000/svg" xmlns:ev="http://www.w3.org/2001/xml-events" xmlns:xlink="http://www.w3.org/1999/xlink"><defs /><polyline fill="none" points="108.4746,9.1119 87.6475,8.678 70.7254,10.4136 41.6542,17.3559 31.2407,22.1288 20.8271,31.2407 11.7153,45.1254 9.1119,54.2373 8.678,68.5559 14.7525,75.4983 25.6,81.139 47.7288,88.5153 70.7254,92.4203 85.0441,92.4203 95.8915,88.5153 104.5695,81.5729 111.9458,72.8949 118.8881,59.878 119.322,50.3322 116.7186,45.1254 95.8915,16.0542 90.6847,12.5831 84.6102,11.2814" stroke="#00007f" stroke-width="2" /><polyline fill="none" points="35.5797,22.9966 35.5797,22.9966" stroke="#0010ff" stroke-width="2" /><polyline fill="none" points="35.5797,22.5627 43.3898,51.2 43.3898,76.3661 42.0881,81.139" stroke="#00a4ff" stroke-width="2" /><polyline fill="none" points="88.9492,12.1492 87.6475,32.1085 84.1763,55.1051 84.6102,82.0068" stroke="#3fffb7" stroke-width="2" /><polyline fill="none" points="34.7119,29.939 39.4847,29.0712" stroke="#b7ff3f" stroke-width="2" /><polyline fill="none" points="38.6169,41.6542 48.5966,39.9186" stroke="#ffb900" stroke-width="2" /><polyline fill="none" points="40.3525,60.3119 45.5593,62.0475" stroke="#ff3000" stroke-width="2" /><polyline fill="none" points="39.4847,71.5932 39.4847,71.5932" stroke="#7f0000" stroke-width="2" /></svg>