<?xml version="1.0" encoding="utf-8" ?>
<svg baseProfile="tiny" height="128" version="1.2" viewBox="0,0,128,128" width="128" xmlns="http://www.w3.org/2000/svg" xmlns:ev="http://www.w3.org/2001/xml-events" xmlns:xlink="http://www.w3.org/1999/xlink"><defs /><polyline fill="none" points="37.3153,8.678 29.0712,16.922 15.1864,35.1458 11.2814,44.6915 9.5458,55.539 8.678,85.0441 13.4508,100.2305 25.1661,111.078 41.2203,116.7186 55.539,118.4542 65.9525,118.4542 76.8,116.7186 101.9661,98.061 113.6814,85.0441 119.322,71.5932 119.322,58.5763 116.2847,45.5593 109.7763,36.0136 101.9661,29.0712 91.5525,25.1661 76.8,23.4305 61.1797,23.4305 54.2373,22.5627 51.2,20.8271" stroke="#00007f" stroke-width="2" /><polyline fill="none" points="32.5424,26.0339 29.939,31.6746 29.939,36.4475 39.9186,47.7288 42.9559,53.8034 44.6915,64.2169 43.8237,84.1763 35.5797,98.9288 35.5797,103.7017" stroke="#7cff79" stroke-width="2" /><polyline fill="none" points="77.6678,22.5627 75.0644,27.3356 75.0644,63.7831 78.5356,76.8 86.3458,93.722 97.1932,103.7017 106.3051,104.5695" stroke="#7f0000" stroke-width="2" /></svg>