<?xml version="1.0" encoding="utf-8" ?>
<svg baseProfile="tiny" height="128" version="1.2" viewBox="0,0,128,128" width="128" xmlns="http://www.w3.org/2000/svg" xmlns:ev="http://www.w3.org/2001/xml-events" xmlns:xlink="http://www.w3.org/1999/xlink"><defs /><polyline fill="none" points="94.5898,17.3559 92.4203,15.1864 71.5932,9.1119 40.7864,9.1119 28.6373,13.8847 19.9593,21.261 14.3186,30.3729 10.4136,42.0881 8.678,55.1051 9.5458,72.0271 17.7898,85.9119 30.3729,94.1559 44.2576,99.7966 56.8407,101.5322 72.8949,101.9661 86.3458,97.6271 105.0034,85.0441 112.8136,77.6678 118.8881,63.7831 119.322,49.0305 114.5492,40.3525 103.7017,29.5051 88.5153,18.6576" stroke="#00007f" stroke-width="2" /><polyline fill="none" points="28.2034,16.0542 32.9763,18.6576 41.6542,28.2034 50.3322,42.9559 54.2373,57.7085 55.1051,91.9864" stroke="#004cff" stroke-width="2" /><polyline fill="none" points="39.4847,10.8475 45.9932,13.4508 57.7085,30.3729 64.2169,42.9559 68.5559,66.8203 69.8576,94.1559 71.5932,100.6644" stroke="#29ffcd" stroke-width="2" /><polyline fill="none" points="54.6712,91.5525 58.5763,101.9661" stroke="#cdff29" stroke-width="2" /><polyline fill="none" points="65.9525,8.678 83.3085,30.3729 92.8542,47.2949 96.7593,60.3119 100.6644,89.8169" stroke="#ff6700" stroke-width="2" /><polyline fill="none" points="78.1017,12.5831 82.4407,13.4508 95.4576,28.2034 107.1729,54.2373" stroke="#7f0000" stroke-width="2" /></svg>