<?xml version="1.0" encoding="utf-8" ?>
<svg baseProfile="tiny" height="128" version="1.2" viewBox="0,0,128,128" width="128" xmlns="http://www.w3.org/2000/svg" xmlns:ev="http://www.w3.org/2001/xml-events" xmlns:xlink="http://www.w3.org/1999/xlink"><defs /><polyline fill="none" points="29.5051,19.9593 21.6949,22.5627 14.7525,29.0712 9.5458,39.0508 8.678,49.0305 11.2814,59.878 17.7898,68.5559 34.278,77.2339 59.4441,80.2712 79.8373,78.5356 89.3831,74.1966 96.3254,66.8203 98.061,59.4441 98.061,51.6339 94.1559,39.0508 88.5153,30.3729 79.4034,22.5627 68.122,16.922 54.6712,12.5831 42.0881,9.1119 24.7322,8.678 15.1864,11.7153 9.1119,15.6203" stroke="#00007f" stroke-width="2" /><polyline fill="none" points="46.861,17.7898 54.6712,32.5424 56.8407,42.522 55.9729,47.2949 49.0305,56.8407 32.1085,73.3288 28.2034,79.4034" stroke="#004cff" stroke-width="2" /><polyline fill="none" points="81.139,26.9017 80.2712,51.2 74.6305,68.5559 69.4237,74.6305 54.6712,78.5356" stroke="#29ffcd" stroke-width="2" /><polyline fill="none" points="30.8068,32.5424 32.5424,37.3153 39.9186,43.3898 64.2169,52.0678 100.6644,54.2373 115.8508,52.0678 119.322,46.861" stroke="#cdff29" stroke-width="2" /><polyline fill="none" points="35.1458,57.7085 72.8949,65.0847 82.4407,65.5186" stroke="#ff6700" stroke-width="2" /><polyline fill="none" points="62.9153,40.3525 64.2169,50.3322 62.9153,58.1424" stroke="#7f0000" stroke-width="2" /></svg>