<?xml version="1.0" encoding="utf-8" ?>
<svg baseProfile="tiny" height="128" version="1.2" viewBox="0,0,128,128" width="128" xmlns="http://www.w3.org/2000/svg" xmlns:ev="http://www.w3.org/2001/xml-events" xmlns:xlink="http://www.w3.org/1999/xlink"><defs /><polyline fill="none" points="49.4644,19.9593 44.2576,20.8271 36.8814,25.1661 29.939,32.1085 19.0915,46.861 11.7153,63.3492 8.678,78.5356 9.5458,85.0441 15.6203,97.6271 29.939,109.7763 48.1627,118.0203 55.539,119.322 64.2169,118.4542 72.8949,115.8508 86.7797,107.1729 100.2305,95.8915 105.8712,89.3831 109.7763,82.4407 111.9458,75.4983 112.8136,68.122 111.078,50.3322 106.3051,38.6169 95.0237,21.6949 88.5153,15.6203 80.7051,10.8475 69.4237,8.678 57.2746,9.9797 39.9186,22.5627" stroke="#00007f" stroke-width="2" /><polyline fill="none" points="27.3356,40.3525 31.2407,44.6915 36.0136,54.2373 39.9186,72.0271 37.7492,82.0068 25.1661,109.3424 22.5627,118.0203" stroke="#7cff79" stroke-width="2" /><polyline fill="none" points="105.4373,19.0915 100.6644,23.4305 93.2881,36.4475 82.8746,64.6508 81.5729,82.4407 83.7424,92.4203 89.3831,100.2305 95.0237,104.1356" stroke="#7f0000" stroke-width="2" /></svg>