<?xml version="1.0" encoding="utf-8" ?>
<svg baseProfile="tiny" height="128" version="1.2" viewBox="0,0,128,128" width="128" xmlns="http://www.w3.org/2000/svg" xmlns:ev="http://www.w3.org/2001/xml-events" xmlns:xlink="http://www.w3.org/1999/xlink"><defs /><polyline fill="none" points="90.6847,27.7695 90.2508,25.6 85.478,20.3932 68.5559,11.7153 57.2746,8.678 39.0508,8.678 24.7322,15.1864 19.5254,19.5254 14.3186,27.3356 10.4136,37.7492 8.678,71.5932 10.4136,75.9322 16.0542,83.3085 28.2034,91.1186 33.8441,93.2881 51.2,95.4576 80.2712,95.0237 94.1559,89.8169 99.3627,86.3458 114.5492,65.0847 119.322,44.6915 119.322,35.1458 114.5492,25.1661 106.739,19.5254 91.1186,14.7525 66.8203,11.2814 56.4068,13.0169" stroke="#00007f" stroke-width="2" /><polyline fill="none" points="62.0475,15.1864 55.1051,14.3186 43.3898,20.8271 24.2983,44.6915 19.9593,64.6508 19.9593,74.1966 22.5627,81.139" stroke="#0028ff" stroke-width="2" /><polyline fill="none" points="78.1017,21.261 89.3831,36.8814 93.2881,54.2373 92.8542,84.6102 89.3831,92.4203 85.9119,96.3254" stroke="#00d4ff" stroke-width="2" /><polyline fill="none" points="90.2508,78.5356 81.5729,84.6102" stroke="#7cff79" stroke-width="2" /><polyline fill="none" points="89.8169,61.1797 88.9492,63.3492 82.4407,66.3864" stroke="#ffe500" stroke-width="2" /><polyline fill="none" points="86.3458,50.7661 78.5356,56.8407" stroke="#ff4600" stroke-width="2" /><polyline fill="none" points="86.7797,32.9763 73.7627,40.3525" stroke="#7f0000" stroke-width="2" /></svg>