<?xml version="1.0" encoding="utf-8" ?>
<svg baseProfile="tiny" height="128" version="1.2" viewBox="0,0,128,128" width="128" xmlns="http://www.w3.org/2000/svg" xmlns:ev="http://www.w3.org/2001/xml-events" xmlns:xlink="http://www.w3.org/1999/xlink"><defs /><polyline fill="none" points="107.6068,19.0915 73.3288,8.678 53.3695,9.1119 42.522,12.1492 29.5051,20.8271 19.9593,30.8068 15.1864,38.1831 10.4136,52.5017 8.678,63.7831 11.7153,80.7051 15.6203,88.5153 32.1085,107.1729 53.8034,116.2847 75.0644,119.322 103.7017,105.0034 117.1525,60.7458 112.3797,28.6373 106.3051,18.6576 98.061,15.6203" stroke="#00007f" stroke-width="2" /><polyline fill="none" points="94.5898,16.0542 78.1017,25.6 66.3864,36.0136 55.9729,55.9729 55.1051,67.2542 55.539,72.8949 59.0102,82.0068 62.9153,89.8169 70.2915,98.9288 85.478,109.3424 97.1932,114.1153" stroke="#7cff79" stroke-width="2" /><polyline fill="none" points="21.6949,12.1492 27.3356,18.6576 35.1458,33.4102 37.3153,39.0508 39.9186,55.9729 39.4847,77.6678 37.3153,89.3831 29.0712,105.0034 23.4305,109.7763" stroke="#7f0000" stroke-width="2" /></svg>