<?xml version="1.0" encoding="utf-8" ?>
<svg baseProfile="tiny" height="128" version="1.2" viewBox="0,0,128,128" width="128" xmlns="http://www.w3.org/2000/svg" xmlns:ev="http://www.w3.org/2001/xml-events" xmlns:xlink="http://www.w3.org/1999/xlink"><defs /><polyline fill="none" points="99.2653,29.1701 90.9932,17.415 76.6259,11.3197 62.2585,8.7075 53.9864,10.0136 37.4422,17.8503 22.6395,30.0408 11.7551,50.9388 8.7075,70.966 10.8844,79.2381 21.7687,98.8299 32.6531,110.1497 51.3741,119.2925 74.0136,118.8571 89.6871,111.4558 103.1837,99.7007 107.5374,86.2041 112.7619,77.4966 115.3741,67.483 115.3741,55.7279 111.8912,44.8435 105.3605,33.9592 86.6395,20.0272" stroke="#00007f" stroke-width="2" /><polyline fill="none" points="27.8639,23.9456 34.3946,31.7823 38.7483,41.3605 42.6667,61.3878 43.102,88.381 37.4422,107.5374" stroke="#00d4ff" stroke-width="2" /><polyline fill="none" points="102.7483,23.0748 94.9116,36.5714 88.381,61.8231 88.381,69.6599 91.4286,84.4626 95.7823,95.3469 101.0068,105.7959" stroke="#ffe500" stroke-width="2" /><polyline fill="none" points="75.3197,11.3197 75.3197,11.3197" stroke="#7f0000" stroke-width="2" /></svg>