<?xml version="1.0" encoding="utf-8" ?>
<svg baseProfile="tiny" height="128" version="1.2" viewBox="0,0,128,128" width="128" xmlns="http://www.w3.org/2000/svg" xmlns:ev="http://www.w3.org/2001/xml-events" xmlns:xlink="http://www.w3.org/1999/xlink"><defs /><polyline fill="none" points="39.9186,8.678 32.5424,10.8475 20.8271,18.6576 16.0542,23.4305 11.7153,32.9763 8.678,57.2746 8.678,80.2712 10.8475,89.8169 20.8271,101.5322 39.9186,111.9458 65.9525,117.5864 96.7593,118.8881 100.2305,117.5864 106.739,111.5119 113.2475,102.4 115.8508,95.8915 119.322,70.7254 119.322,56.8407 116.7186,44.6915 105.4373,33.4102 85.478,20.3932 72.0271,16.0542 58.1424,14.7525 42.9559,10.8475 32.9763,10.4136" stroke="#00007f" stroke-width="2" /><polyline fill="none" points="24.7322,13.0169 34.278,26.4678 41.6542,46.4271 44.2576,65.5186 44.2576,79.8373 42.0881,88.9492 38.6169,94.5898 24.7322,112.8136 19.5254,117.1525" stroke="#7cff79" stroke-width="2" /><polyline fill="none" points="87.2136,19.5254 81.139,27.7695 72.0271,50.7661 70.7254,72.461 74.6305,80.7051 89.8169,99.3627 98.061,104.1356 100.6644,106.739 107.1729,108.0407" stroke="#7f0000" stroke-width="2" /></svg>