<?xml version="1.0" encoding="utf-8" ?>
<svg baseProfile="tiny" height="128" version="1.2" viewBox="0,0,128,128" width="128" xmlns="http://www.w3.org/2000/svg" xmlns:ev="http://www.w3.org/2001/xml-events" xmlns:xlink="http://www.w3.org/1999/xlink"><defs /><polyline fill="none" points="83.3085,9.1119 68.5559,9.9797 59.878,13.0169 49.4644,16.922 31.6746,27.7695 22.1288,36.0136 14.7525,45.5593 9.9797,55.539 8.678,63.7831 9.1119,72.8949 15.1864,81.5729 23.4305,88.0814 48.1627,101.0983 56.8407,103.2678 74.1966,103.2678 84.6102,97.6271 97.6271,87.2136 107.6068,76.3661 113.2475,66.8203 117.5864,55.539 118.4542,35.5797 117.1525,26.4678 111.9458,18.2237 105.8712,12.5831 95.0237,9.1119 71.5932,8.678 61.6136,11.2814 58.1424,13.8847" stroke="#00007f" stroke-width="2" /><polyline fill="none" points="62.4814,9.5458 60.3119,20.3932 55.1051,29.5051 50.3322,35.1458 36.4475,39.0508 33.8441,41.6542 32.1085,44.6915 31.6746,53.3695 19.5254,66.3864 14.7525,73.7627 12.1492,80.2712" stroke="#00d4ff" stroke-width="2" /><polyline fill="none" points="55.9729,95.8915 54.6712,93.2881 54.6712,86.3458 55.9729,82.0068 75.0644,44.2576 82.8746,17.7898 87.6475,12.5831" stroke="#ffe500" stroke-width="2" /><polyline fill="none" points="88.5153,95.8915 95.0237,63.3492 119.322,15.1864" stroke="#7f0000" stroke-width="2" /></svg>