<?xml version="1.0" encoding="utf-8" ?>
<svg baseProfile="tiny" height="128" version="1.2" viewBox="0,0,128,128" width="128" xmlns="http://www.w3.org/2000/svg" xmlns:ev="http://www.w3.org/2001/xml-events" xmlns:xlink="http://www.w3.org/1999/xlink"><defs /><polyline fill="none" points="58.5763,22.1288 48.5966,26.9017 24.7322,44.6915 28.6373,46.861 28.6373,48.5966 11.2814,72.461 8.678,86.7797 9.1119,96.7593 13.8847,105.8712 20.3932,112.3797 29.939,115.4169 52.0678,117.5864 66.8203,117.5864 77.6678,114.9831 87.6475,110.6441 92.4203,106.3051 104.5695,91.5525 112.3797,78.5356 118.0203,60.3119 119.322,50.3322 118.4542,36.0136 114.1153,26.0339 108.0407,16.0542 100.6644,9.5458 85.9119,8.678 62.4814,16.922 55.539,22.1288" stroke="#00007f" stroke-width="2" /><polyline fill="none" points="53.8034,24.7322 49.4644,45.5593 36.0136,85.0441 24.7322,105.8712 13.0169,118.4542" stroke="#7f0000" stroke-width="2" /></svg>