<?xml version="1.0" encoding="utf-8" ?>
<svg baseProfile="tiny" height="128" version="1.2" viewBox="0,0,128,128" width="128" xmlns="http://www.w3.org/2000/svg" xmlns:ev="http://www.w3.org/2001/xml-events" xmlns:xlink="http://www.w3.org/1999/xlink"><defs /><polyline fill="none" points="94.5898,11.2814 70.7254,8.678 55.1051,9.1119 50.3322,10.8475 24.2983,26.9017 12.5831,38.6169 8.678,49.0305 14.3186,63.7831 21.6949,73.7627 42.522,85.478 58.5763,90.6847 91.1186,90.2508 107.6068,85.9119 114.1153,74.6305 118.0203,63.3492 119.322,54.6712 118.4542,42.9559 103.7017,18.6576 101.0983,15.1864 98.061,13.8847" stroke="#00007f" stroke-width="2" /><polyline fill="none" points="53.3695,8.678 51.2,32.5424 43.8237,60.3119 39.9186,68.9898 32.9763,74.6305" stroke="#7cff79" stroke-width="2" /><polyline fill="none" points="95.4576,11.2814 80.2712,51.2 80.7051,63.7831 84.1763,73.7627 91.1186,77.2339" stroke="#7f0000" stroke-width="2" /></svg>