<?xml version="1.0" encoding="utf-8" ?>
<svg baseProfile="tiny" height="128" version="1.2" viewBox="0,0,128,128" width="128" xmlns="http://www.w3.org/2000/svg" xmlns:ev="http://www.w3.org/2001/xml-events" xmlns:xlink="http://www.w3.org/1999/xlink"><defs /><polyline fill="none" points="94.0408,15.6735 87.5102,12.1905 80.1088,10.0136 67.9184,10.8844 60.0816,12.1905 33.9592,26.1224 20.4626,38.3129 11.7551,52.2449 8.7075,66.1769 11.3197,81.8503 13.932,89.2517 19.1565,95.7823 23.0748,98.8299 29.1701,101.8776 41.3605,104.0544 54.4218,103.619 74.0136,99.2653 84.898,94.9116 98.3946,85.3333 111.8912,69.6599 118.8571,53.551 119.2925,38.3129 115.8095,30.0408 111.0204,23.0748 107.5374,20.0272 95.7823,13.4966" stroke="#00007f" stroke-width="2" /><polyline fill="none" points="33.5238,31.7823 39.1837,34.3946 46.1497,42.6667 49.1973,55.2925 42.2313,78.3673 36.5714,90.9932 30.9116,97.9592" stroke="#7cff79" stroke-width="2" /><polyline fill="none" points="105.3605,80.5442 103.1837,80.1088 101.4422,77.932 95.3469,65.3061 92.7347,51.3741 92.2993,41.3605 94.0408,31.7823 100.1361,17.415 107.102,8.7075" stroke="#7f0000" stroke-width="2" /></svg>