<?xml version="1.0" encoding="utf-8" ?>
<svg baseProfile="tiny" height="128" version="1.2" viewBox="0,0,128,128" width="128" xmlns="http://www.w3.org/2000/svg" xmlns:ev="http://www.w3.org/2001/xml-events" xmlns:xlink="http://www.w3.org/1999/xlink"><defs /><polyline fill="none" points="72.8949,22.9966 66.8203,16.0542 55.1051,10.8475 43.3898,8.678 32.1085,8.678 23.4305,12.1492 14.7525,23.8644 10.8475,34.278 8.678,55.1051 9.5458,72.0271 15.6203,90.2508 22.5627,104.1356 27.3356,109.3424 33.4102,112.3797 46.4271,114.1153 62.4814,112.8136 83.7424,105.8712 93.2881,98.9288 99.3627,91.5525 104.5695,82.4407 118.0203,48.1627 119.322,39.4847 118.0203,30.8068 111.9458,19.9593 104.5695,13.4508 78.5356,12.1492 70.2915,13.8847" stroke="#00007f" stroke-width="2" /><polyline fill="none" points="29.5051,10.8475 34.278,79.4034 34.278,105.0034 36.0136,108.0407" stroke="#7cff79" stroke-width="2" /><polyline fill="none" points="72.8949,15.6203 69.8576,38.1831 69.8576,65.9525 71.1593,92.8542 74.1966,112.8136" stroke="#7f0000" stroke-width="2" /></svg>