<?xml version="1.0" encoding="utf-8" ?>
<svg baseProfile="tiny" height="128" version="1.2" viewBox="0,0,128,128" width="128" xmlns="http://www.w3.org/2000/svg" xmlns:ev="http://www.w3.org/2001/xml-events" xmlns:xlink="http://www.w3.org/1999/xlink"><defs /><polyline fill="none" points="36.4475,33.4102 28.6373,31.6746 23.4305,35.1458 10.8475,51.2 8.678,61.1797 8.678,78.1017 9.5458,84.1763 16.922,91.9864 38.1831,99.3627 87.6475,105.8712 101.9661,105.8712 107.6068,103.2678 118.8881,76.3661 119.322,47.2949 114.5492,35.1458 109.3424,30.8068 95.0237,22.5627 65.0847,11.2814 49.4644,8.678 40.7864,8.678 29.0712,34.278 33.4102,32.9763 39.0508,33.4102 44.6915,47.7288 46.861,60.3119 46.861,81.139 45.5593,86.7797" stroke="#00007f" stroke-width="2" /><polyline fill="none" points="104.1356,19.9593 100.2305,24.7322 92.4203,41.6542 85.478,64.6508 83.7424,78.1017 83.7424,100.2305" stroke="#7cff79" stroke-width="2" /><polyline fill="none" points="68.5559,58.5763 90.6847,58.1424" stroke="#7f0000" stroke-width="2" /></svg>