<?xml version="1.0" encoding="utf-8" ?>
<svg baseProfile="tiny" height="128" version="1.2" viewBox="0,0,128,128" width="128" xmlns="http://www.w3.org/2000/svg" xmlns:ev="http://www.w3.org/2001/xml-events" xmlns:xlink="http://www.w3.org/1999/xlink"><defs /><polyline fill="none" points="67.6881,11.2814 47.7288,11.2814 44.2576,13.0169 35.5797,19.0915 21.6949,32.9763 9.5458,57.7085 8.678,87.6475 9.9797,91.1186 15.6203,98.061 22.9966,103.7017 32.9763,108.0407 60.3119,111.078 87.2136,110.6441 98.9288,105.8712 112.8136,92.4203 118.8881,76.3661 119.322,49.8983 118.0203,44.6915 112.8136,33.8441 108.0407,27.7695 101.0983,21.6949 88.0814,13.8847 70.7254,8.678 59.0102,8.678 50.7661,13.8847" stroke="#00007f" stroke-width="2" /><polyline fill="none" points="34.278,14.7525 41.2203,28.6373 42.522,36.4475 41.6542,41.6542" stroke="#0028ff" stroke-width="2" /><polyline fill="none" points="39.0508,51.2 39.4847,62.9153 35.1458,70.2915" stroke="#00d4ff" stroke-width="2" /><polyline fill="none" points="28.6373,79.4034 27.7695,83.3085 23.4305,89.8169 20.8271,91.5525 15.6203,92.8542" stroke="#7cff79" stroke-width="2" /><polyline fill="none" points="85.478,16.922 77.2339,29.0712 74.6305,37.7492" stroke="#ffe500" stroke-width="2" /><polyline fill="none" points="74.6305,45.9932 75.0644,86.3458" stroke="#ff4600" stroke-width="2" /><polyline fill="none" points="75.0644,89.8169 80.2712,100.2305 87.6475,105.4373 90.2508,105.8712" stroke="#7f0000" stroke-width="2" /></svg>