<?xml version="1.0" encoding="utf-8" ?>
<svg baseProfile="tiny" height="128" version="1.2" viewBox="0,0,128,128" width="128" xmlns="http://www.w3.org/2000/svg" xmlns:ev="http://www.w3.org/2001/xml-events" xmlns:xlink="http://www.w3.org/1999/xlink"><defs /><polyline fill="none" points="37.3153,26.4678 13.4508,48.1627 9.1119,55.539 8.678,58.1424 13.4508,64.6508 22.1288,93.722 23.4305,96.3254 26.0339,96.7593 38.6169,96.7593 59.4441,95.0237 71.1593,91.5525 78.9695,84.6102 80.7051,81.5729 80.7051,78.1017 72.0271,44.6915 68.5559,22.1288 64.6508,9.9797 54.6712,9.9797 45.5593,12.1492 33.8441,17.3559 19.0915,29.5051 20.3932,36.4475" stroke="#00007f" stroke-width="2" /><polyline fill="none" points="59.4441,8.678 59.0102,15.6203 63.3492,54.6712 64.2169,98.061" stroke="#7cff79" stroke-width="2" /><polyline fill="none" points="49.4644,9.9797 50.3322,55.539 48.5966,119.322" stroke="#7f0000" stroke-width="2" /></svg>