<?xml version="1.0" encoding="utf-8" ?>
<svg baseProfile="tiny" height="128" version="1.2" viewBox="0,0,128,128" width="128" xmlns="http://www.w3.org/2000/svg" xmlns:ev="http://www.w3.org/2001/xml-events" xmlns:xlink="http://www.w3.org/1999/xlink"><defs /><polyline fill="none" points="114.5492,30.8068 109.3424,25.6 91.9864,16.4881 63.3492,8.678 42.0881,9.5458 27.3356,16.922 19.0915,24.7322 14.7525,31.2407 9.5458,48.5966 8.678,59.4441 8.678,72.461 9.9797,79.8373 16.0542,91.1186 23.4305,101.0983 29.0712,105.0034 42.9559,111.078 66.3864,117.1525 91.1186,117.1525 108.9085,113.2475 112.8136,106.3051 115.8508,94.1559 117.1525,60.7458 108.0407,30.3729 100.6644,18.6576 98.061,17.7898" stroke="#00007f" stroke-width="2" /><polyline fill="none" points="27.3356,20.3932 33.8441,31.2407" stroke="#0000d5" stroke-width="2" /><polyline fill="none" points="33.4102,39.0508 34.278,50.7661" stroke="#001cff" stroke-width="2" /><polyline fill="none" points="32.9763,65.5186 32.9763,65.9525" stroke="#006cff" stroke-width="2" /><polyline fill="none" points="27.3356,82.8746 27.3356,86.3458 25.6,87.6475" stroke="#00b8ff" stroke-width="2" /><polyline fill="none" points="93.2881,22.9966 85.9119,30.3729" stroke="#1cffda" stroke-width="2" /><polyline fill="none" points="85.9119,36.8814 85.478,36.8814" stroke="#5cff9a" stroke-width="2" /><polyline fill="none" points="82.4407,39.0508 80.7051,47.2949" stroke="#9aff5c" stroke-width="2" /><polyline fill="none" points="79.8373,53.8034 78.9695,67.2542 80.2712,68.5559" stroke="#daff1c" stroke-width="2" /><polyline fill="none" points="77.2339,77.2339 77.6678,87.6475" stroke="#ffcb00" stroke-width="2" /><polyline fill="none" points="76.8,102.8339 78.9695,113.2475" stroke="#ff8500" stroke-width="2" /><polyline fill="none" points="32.5424,68.5559 34.7119,56.8407 34.278,32.5424 32.1085,23.8644 26.9017,16.922" stroke="#ff3b00" stroke-width="2" /><polyline fill="none" points="32.5424,65.5186 29.939,72.0271 27.3356,86.7797 22.1288,95.8915" stroke="#d50000" stroke-width="2" /><polyline fill="none" points="98.061,18.2237 91.9864,20.3932 86.3458,27.7695 81.5729,40.3525 77.2339,56.8407 75.9322,81.139 78.5356,110.2102 80.2712,119.322" stroke="#7f0000" stroke-width="2" /></svg>