<?xml version="1.0" encoding="utf-8" ?>
<svg baseProfile="tiny" height="128" version="1.2" viewBox="0,0,128,128" width="128" xmlns="http://www.w3.org/2000/svg" xmlns:ev="http://www.w3.org/2001/xml-events" xmlns:xlink="http://www.w3.org/1999/xlink"><defs /><polyline fill="none" points="29.939,9.9797 21.6949,19.0915 14.7525,29.5051 9.9797,42.0881 8.678,60.3119 9.5458,78.9695 17.7898,95.4576 29.939,109.7763 49.8983,119.322 62.0475,119.322 76.8,114.1153 90.2508,104.1356 101.9661,91.5525 108.0407,78.9695 110.2102,60.3119 108.0407,43.8237 97.6271,28.2034 84.1763,16.922 73.3288,10.8475 63.3492,8.678 54.6712,8.678 48.5966,11.7153" stroke="#00007f" stroke-width="2" /><polyline fill="none" points="13.8847,25.1661 21.6949,26.0339 31.2407,32.5424 36.8814,38.1831 44.6915,52.9356 47.7288,64.6508 47.7288,86.3458 38.1831,112.3797" stroke="#0080ff" stroke-width="2" /><polyline fill="none" points="97.6271,19.9593 91.5525,37.7492 86.3458,60.7458 84.1763,88.0814 84.6102,94.5898 90.2508,102.8339 96.7593,109.7763 105.0034,114.1153" stroke="#7cff79" stroke-width="2" /><polyline fill="none" points="56.8407,26.9017 62.9153,55.9729 66.8203,91.1186 66.8203,105.0034" stroke="#ff9400" stroke-width="2" /><polyline fill="none" points="32.1085,76.3661 36.0136,75.0644 52.5017,75.0644" stroke="#7f0000" stroke-width="2" /></svg>