<?xml version="1.0" encoding="utf-8" ?>
<svg baseProfile="tiny" height="128" version="1.2" viewBox="0,0,128,128" width="128" xmlns="http://www.w3.org/2000/svg" xmlns:ev="http://www.w3.org/2001/xml-events" xmlns:xlink="http://www.w3.org/1999/xlink"><defs /><polyline fill="none" points="56.5986,103.619 34.8299,94.4762 15.2381,76.1905 10.8844,67.9184 8.7075,60.517 9.5782,48.3265 15.2381,39.1837 25.2517,29.6054 34.3946,22.6395 49.1973,14.3673 57.9048,10.449 66.1769,8.7075 79.2381,8.7075 88.381,10.449 94.0408,13.932 105.3605,26.1224 114.068,44.8435 117.551,72.2721 115.8095,82.2857 111.4558,94.0408 102.7483,104.4898 91.4286,113.6327 78.8027,119.2925 58.7755,110.585 37.0068,96.2177" stroke="#00007f" stroke-width="2" /><polyline fill="none" points="36.1361,18.7211 52.2449,51.8095 53.551,62.6939 40.9252,97.9592 36.5714,106.6667 35.2653,107.5374 34.8299,106.6667" stroke="#7cff79" stroke-width="2" /><polyline fill="none" points="109.7143,91.8639 72.7075,49.6327 59.2109,27.4286 58.7755,21.3333 61.8231,17.415 71.8367,12.6259 86.6395,10.0136" stroke="#7f0000" stroke-width="2" /></svg>