<?xml version="1.0" encoding="utf-8" ?>
<svg baseProfile="tiny" height="128" version="1.2" viewBox="0,0,128,128" width="128" xmlns="http://www.w3.org/2000/svg" xmlns:ev="http://www.w3.org/2001/xml-events" xmlns:xlink="http://www.w3.org/1999/xlink"><defs /><polyline fill="none" points="108.9085,20.8271 98.4949,15.6203 73.3288,10.8475 19.5254,9.5458 16.0542,10.4136 14.3186,13.4508 9.1119,32.5424 8.678,46.4271 10.8475,52.0678 22.9966,61.1797 41.6542,68.5559 46.861,69.8576 79.8373,72.0271 93.722,72.0271 105.4373,68.9898 113.6814,62.4814 118.4542,55.9729 119.322,46.4271 111.9458,31.2407 111.078,22.5627 104.1356,20.8271" stroke="#00007f" stroke-width="2" /><polyline fill="none" points="48.5966,10.4136 42.522,24.2983 40.7864,32.9763 38.6169,73.7627 41.2203,70.7254" stroke="#0080ff" stroke-width="2" /><polyline fill="none" points="84.1763,8.678 83.3085,86.3458" stroke="#7cff79" stroke-width="2" /><polyline fill="none" points="53.3695,9.5458 45.5593,13.8847 40.3525,24.2983 40.3525,30.3729 41.6542,33.8441 45.1254,37.3153 49.8983,38.1831 51.2,40.3525 50.7661,43.8237 36.8814,56.8407 39.4847,70.2915 49.0305,70.2915" stroke="#ff9400" stroke-width="2" /><polyline fill="none" points="88.9492,12.5831 81.5729,19.9593 79.4034,24.7322 76.8,31.6746 77.6678,39.0508" stroke="#7f0000" stroke-width="2" /></svg>