<?xml version="1.0" encoding="utf-8" ?>
<svg baseProfile="tiny" height="128" version="1.2" viewBox="0,0,128,128" width="128" xmlns="http://www.w3.org/2000/svg" xmlns:ev="http://www.w3.org/2001/xml-events" xmlns:xlink="http://www.w3.org/1999/xlink"><defs /><polyline fill="none" points="86.3458,9.9797 56.4068,14.7525 37.7492,20.3932 23.4305,33.4102 16.0542,43.3898 10.8475,55.1051 8.678,66.8203 9.1119,77.6678 12.5831,88.0814 19.0915,96.3254 26.4678,101.5322 47.7288,108.9085 59.4441,111.078 65.5186,110.6441 77.2339,104.5695 107.6068,76.3661 115.4169,65.0847 119.322,55.1051 119.322,44.2576 118.0203,37.7492 111.5119,24.2983 101.5322,15.6203 90.2508,9.1119 86.3458,8.678" stroke="#00007f" stroke-width="2" /><polyline fill="none" points="46.4271,21.6949 48.1627,32.1085 45.5593,40.3525" stroke="#0000d1" stroke-width="2" /><polyline fill="none" points="45.9932,55.539 44.6915,64.2169" stroke="#0010ff" stroke-width="2" /><polyline fill="none" points="47.7288,73.7627 38.6169,84.1763" stroke="#0058ff" stroke-width="2" /><polyline fill="none" points="38.1831,87.6475 27.3356,90.6847" stroke="#00a4ff" stroke-width="2" /><polyline fill="none" points="32.1085,93.722 17.3559,97.1932" stroke="#05ecf1" stroke-width="2" /><polyline fill="none" points="80.2712,16.4881 79.4034,18.2237 80.2712,24.7322" stroke="#3fffb7" stroke-width="2" /><polyline fill="none" points="78.1017,31.2407 77.2339,33.4102 78.1017,42.0881" stroke="#7cff79" stroke-width="2" /><polyline fill="none" points="78.5356,48.5966 84.1763,56.8407" stroke="#b7ff3f" stroke-width="2" /><polyline fill="none" points="87.2136,63.7831 95.8915,72.8949" stroke="#f1fc05" stroke-width="2" /><polyline fill="none" points="97.1932,78.5356 104.5695,81.5729" stroke="#ffb900" stroke-width="2" /><polyline fill="none" points="66.3864,99.7966 65.5186,97.6271 66.3864,88.0814" stroke="#ff7300" stroke-width="2" /><polyline fill="none" points="65.9525,74.1966 67.6881,57.2746" stroke="#ff3000" stroke-width="2" /><polyline fill="none" points="66.8203,46.861 65.5186,26.9017" stroke="#d10000" stroke-width="2" /><polyline fill="none" points="64.2169,23.8644 63.7831,17.7898" stroke="#7f0000" stroke-width="2" /></svg>