<?xml version="1.0" encoding="utf-8" ?>
<svg baseProfile="tiny" height="128" version="1.2" viewBox="0,0,128,128" width="128" xmlns="http://www.w3.org/2000/svg" xmlns:ev="http://www.w3.org/2001/xml-events" xmlns:xlink="http://www.w3.org/1999/xlink"><defs /><polyline fill="none" points="75.0644,19.0915 68.5559,15.1864 52.9356,14.3186 44.6915,16.4881 35.5797,22.1288 22.5627,35.1458 11.2814,59.0102 9.1119,67.2542 8.678,82.4407 10.4136,89.8169 14.3186,95.8915 19.5254,101.9661 26.4678,106.739 47.7288,117.1525 59.878,119.322 78.1017,119.322 87.6475,114.9831 91.5525,111.5119 104.5695,95.8915 110.2102,83.3085 114.9831,70.7254 115.4169,54.6712 114.1153,49.0305 108.0407,39.4847 91.5525,23.8644 75.0644,15.1864 57.2746,8.678 45.5593,8.678" stroke="#00007f" stroke-width="2" /><polyline fill="none" points="23.4305,39.0508 28.2034,49.0305 33.8441,56.4068 38.1831,59.4441 45.1254,61.6136 65.9525,62.9153" stroke="#00d4ff" stroke-width="2" /><polyline fill="none" points="105.0034,45.9932 101.0983,51.2 92.8542,58.1424 84.1763,62.4814 65.9525,67.6881" stroke="#ffe500" stroke-width="2" /><polyline fill="none" points="65.9525,65.9525 70.7254,72.8949 74.1966,82.4407 75.4983,91.1186 74.1966,103.2678 68.5559,112.8136" stroke="#7f0000" stroke-width="2" /></svg>