<?xml version="1.0" encoding="utf-8" ?>
<svg baseProfile="tiny" height="128" version="1.2" viewBox="0,0,128,128" width="128" xmlns="http://www.w3.org/2000/svg" xmlns:ev="http://www.w3.org/2001/xml-events" xmlns:xlink="http://www.w3.org/1999/xlink"><defs /><polyline fill="none" points="13.0169,36.4475 13.0169,29.939 15.1864,23.4305 29.0712,8.678 60.3119,9.5458 88.5153,18.6576 92.8542,22.5627 100.2305,33.4102 104.1356,42.522 108.4746,58.5763 110.6441,80.2712 109.7763,93.2881 104.1356,102.4 95.0237,111.5119 79.4034,118.0203 56.8407,119.322 47.7288,114.9831 24.7322,98.9288 13.8847,84.1763 9.5458,71.1593 8.678,47.2949 10.8475,37.7492" stroke="#00007f" stroke-width="2" /><polyline fill="none" points="18.6576,26.9017 23.4305,26.4678 35.5797,38.1831 44.2576,56.8407 45.1254,76.8 39.4847,88.9492 30.3729,101.0983" stroke="#0028ff" stroke-width="2" /><polyline fill="none" points="97.6271,31.2407 84.1763,59.878 82.8746,68.9898 82.8746,92.4203 85.0441,100.2305" stroke="#00d4ff" stroke-width="2" /><polyline fill="none" points="30.3729,41.2203 29.939,36.8814 34.7119,28.2034" stroke="#7cff79" stroke-width="2" /><polyline fill="none" points="34.7119,50.3322 39.0508,50.3322 45.1254,47.2949" stroke="#ffe500" stroke-width="2" /><polyline fill="none" points="39.0508,59.0102 48.5966,62.4814" stroke="#ff4600" stroke-width="2" /><polyline fill="none" points="39.0508,72.8949 42.0881,79.8373" stroke="#7f0000" stroke-width="2" /></svg>