<?xml version="1.0" encoding="utf-8" ?>
<svg baseProfile="tiny" height="128" version="1.2" viewBox="0,0,128,128" width="128" xmlns="http://www.w3.org/2000/svg" xmlns:ev="http://www.w3.org/2001/xml-events" xmlns:xlink="http://www.w3.org/1999/xlink"><defs /><polyline fill="none" points="30.8068,10.8475 22.1288,18.2237 11.7153,42.0881 9.5458,49.8983 8.678,60.3119 11.7153,72.0271 15.1864,78.9695 20.8271,85.478 33.8441,95.0237 53.3695,101.0983 69.8576,100.6644 80.7051,97.6271 93.722,91.9864 101.0983,86.3458 108.0407,79.4034 114.5492,68.9898 118.0203,57.7085 119.322,49.8983 117.5864,39.4847 111.5119,27.7695 98.4949,18.2237 81.5729,13.0169 55.539,9.1119 40.7864,8.678 34.278,9.9797" stroke="#00007f" stroke-width="2" /><polyline fill="none" points="25.1661,95.0237 29.5051,93.722 49.0305,80.7051 55.9729,72.461 61.6136,59.4441 62.4814,48.1627 59.4441,34.278 52.0678,20.3932 47.7288,15.6203" stroke="#0000d5" stroke-width="2" /><polyline fill="none" points="49.4644,22.1288 49.4644,22.1288" stroke="#001cff" stroke-width="2" /><polyline fill="none" points="46.861,24.7322 55.1051,22.9966" stroke="#006cff" stroke-width="2" /><polyline fill="none" points="52.5017,37.7492 63.7831,36.8814 69.8576,38.1831" stroke="#00b8ff" stroke-width="2" /><polyline fill="none" points="52.9356,56.8407 68.122,65.0847" stroke="#1cffda" stroke-width="2" /><polyline fill="none" points="45.5593,73.3288 51.2,84.6102" stroke="#5cff9a" stroke-width="2" /><polyline fill="none" points="29.0712,83.7424 29.939,87.2136 36.4475,94.1559" stroke="#9aff5c" stroke-width="2" /><polyline fill="none" points="89.8169,14.7525 83.7424,22.1288 81.139,30.8068 79.8373,51.2 81.5729,62.9153 87.6475,78.5356 93.2881,86.3458 101.9661,92.8542 108.9085,95.4576" stroke="#daff1c" stroke-width="2" /><polyline fill="none" points="73.7627,23.8644 85.478,26.9017" stroke="#ffcb00" stroke-width="2" /><polyline fill="none" points="74.1966,43.3898 82.8746,41.2203" stroke="#ff8500" stroke-width="2" /><polyline fill="none" points="77.2339,65.0847 94.5898,61.1797" stroke="#ff3b00" stroke-width="2" /><polyline fill="none" points="82.8746,88.0814 95.4576,78.5356" stroke="#d50000" stroke-width="2" /><polyline fill="none" points="87.2136,98.061 95.4576,91.1186" stroke="#7f0000" stroke-width="2" /></svg>