<?xml version="1.0" encoding="utf-8" ?>
<svg baseProfile="tiny" height="128" version="1.2" viewBox="0,0,128,128" width="128" xmlns="http://www.w3.org/2000/svg" xmlns:ev="http://www.w3.org/2001/xml-events" xmlns:xlink="http://www.w3.org/1999/xlink"><defs /><polyline fill="none" points="59.0102,32.5424 44.6915,28.2034 36.8814,28.2034 24.7322,32.9763 21.261,36.0136 16.922,40.3525 10.8475,51.6339 8.678,64.6508 10.8475,78.1017 15.6203,90.2508 24.7322,101.0983 36.4475,108.9085 54.2373,114.5492 73.3288,114.5492 94.5898,108.0407 105.8712,101.5322 113.6814,94.1559 117.1525,86.3458 119.322,69.4237 115.8508,58.1424 106.739,42.522 89.8169,23.8644 73.7627,12.1492 62.4814,8.678 55.539,9.5458 52.0678,11.2814" stroke="#00007f" stroke-width="2" /><polyline fill="none" points="38.1831,36.0136 40.7864,39.9186 48.5966,60.3119 47.2949,71.1593 47.2949,90.6847 43.8237,101.9661" stroke="#004cff" stroke-width="2" /><polyline fill="none" points="111.5119,31.2407 98.4949,56.8407 93.2881,78.5356 93.722,85.9119 103.2678,97.6271" stroke="#29ffcd" stroke-width="2" /><polyline fill="none" points="89.3831,56.8407 101.0983,55.539" stroke="#cdff29" stroke-width="2" /><polyline fill="none" points="91.9864,67.6881 94.5898,70.7254 101.9661,72.461" stroke="#ff6700" stroke-width="2" /><polyline fill="none" points="98.9288,93.2881 105.4373,87.6475" stroke="#7f0000" stroke-width="2" /></svg>