<?xml version="1.0" encoding="utf-8" ?>
<svg baseProfile="tiny" height="128" version="1.2" viewBox="0,0,128,128" width="128" xmlns="http://www.w3.org/2000/svg" xmlns:ev="http://www.w3.org/2001/xml-events" xmlns:xlink="http://www.w3.org/1999/xlink"><defs /><polyline fill="none" points="68.9898,8.678 40.3525,13.4508 26.9017,20.8271 18.6576,29.939 13.8847,38.1831 9.9797,59.0102 8.678,75.0644 10.8475,101.9661 31.2407,116.2847 54.2373,119.322 73.3288,118.0203 91.1186,111.078 102.8339,102.4 111.9458,89.8169 114.5492,79.8373 114.5492,66.8203 110.2102,56.8407 102.8339,42.0881 79.8373,19.9593 69.4237,18.6576 64.2169,12.5831" stroke="#00007f" stroke-width="2" /><polyline fill="none" points="37.7492,15.6203 39.9186,35.1458 46.4271,49.8983 45.9932,71.1593 41.6542,74.6305 37.7492,88.0814 33.8441,93.722 28.6373,96.7593 20.3932,98.9288 13.4508,103.7017" stroke="#7cff79" stroke-width="2" /><polyline fill="none" points="89.8169,16.4881 82.4407,25.6 73.3288,52.0678 75.0644,67.2542 77.2339,73.7627 86.7797,87.2136 92.8542,100.2305 104.5695,104.5695 111.078,104.5695" stroke="#7f0000" stroke-width="2" /></svg>