<?xml version="1.0" encoding="utf-8" ?>
<svg baseProfile="tiny" height="128" version="1.2" viewBox="0,0,128,128" width="128" xmlns="http://www.w3.org/2000/svg" xmlns:ev="http://www.w3.org/2001/xml-events" xmlns:xlink="http://www.w3.org/1999/xlink"><defs /><polyline fill="none" points="77.6678,28.2034 72.8949,10.8475 69.8576,8.678 39.4847,9.9797 34.278,16.4881 25.1661,23.4305 24.2983,29.5051 19.9593,34.7119 10.4136,61.1797 8.678,75.9322 9.9797,83.7424 19.5254,104.5695 35.1458,117.5864 45.1254,119.322 56.8407,118.0203 76.3661,110.2102 79.8373,110.2102 83.7424,108.0407 93.722,100.2305 95.0237,97.1932 95.0237,82.8746 96.7593,78.1017 97.1932,69.8576 97.1932,47.2949 95.0237,29.0712 90.6847,26.4678 77.6678,26.0339" stroke="#00007f" stroke-width="2" /><polyline fill="none" points="37.3153,31.6746 38.6169,36.0136 38.6169,75.0644 40.3525,98.061 41.2203,100.6644 41.2203,98.9288" stroke="#0080ff" stroke-width="2" /><polyline fill="none" points="64.2169,31.2407 64.2169,42.522 65.9525,53.8034 72.0271,88.9492 74.1966,92.4203" stroke="#7cff79" stroke-width="2" /><polyline fill="none" points="59.4441,45.5593 66.3864,47.2949 68.122,50.3322 71.1593,49.0305" stroke="#ff9400" stroke-width="2" /><polyline fill="none" points="62.0475,64.6508 62.0475,64.6508" stroke="#7f0000" stroke-width="2" /></svg>