<?xml version="1.0" encoding="utf-8" ?>
<svg baseProfile="tiny" height="128" version="1.2" viewBox="0,0,128,128" width="128" xmlns="http://www.w3.org/2000/svg" xmlns:ev="http://www.w3.org/2001/xml-events" xmlns:xlink="http://www.w3.org/1999/xlink"><defs /><polyline fill="none" points="76.3661,31.2407 72.0271,26.9017 61.1797,22.9966 26.0339,30.3729 18.6576,38.1831 10.4136,54.6712 8.678,71.1593 10.8475,79.4034 17.3559,88.5153 26.0339,96.7593 48.1627,107.6068 62.4814,110.2102 89.8169,110.2102 100.6644,104.5695 109.7763,96.7593 116.2847,85.478 119.322,72.0271 118.4542,39.4847 112.3797,26.9017 104.1356,17.7898 86.7797,10.4136 79.8373,8.678 74.6305,8.678 69.8576,10.8475" stroke="#00007f" stroke-width="2" /><polyline fill="none" points="32.1085,93.722 35.1458,77.6678 46.861,49.8983 55.1051,39.0508 63.7831,31.6746 73.7627,24.7322 81.5729,21.6949" stroke="#0028ff" stroke-width="2" /><polyline fill="none" points="61.1797,102.8339 78.5356,50.3322 82.4407,43.3898 88.9492,37.3153" stroke="#00d4ff" stroke-width="2" /><polyline fill="none" points="12.5831,52.5017 31.2407,59.878 38.1831,60.3119" stroke="#7cff79" stroke-width="2" /><polyline fill="none" points="35.5797,35.5797 40.3525,38.1831 57.7085,38.1831" stroke="#ffe500" stroke-width="2" /><polyline fill="none" points="78.5356,62.9153 109.3424,74.1966 118.4542,79.4034" stroke="#ff4600" stroke-width="2" /><polyline fill="none" points="82.4407,88.0814 97.6271,90.2508 110.2102,95.4576" stroke="#7f0000" stroke-width="2" /></svg>