<?xml version="1.0" encoding="utf-8" ?>
<svg baseProfile="tiny" height="128" version="1.2" viewBox="0,0,128,128" width="128" xmlns="http://www.w3.org/2000/svg" xmlns:ev="http://www.w3.org/2001/xml-events" xmlns:xlink="http://www.w3.org/1999/xlink"><defs /><polyline fill="none" points="55.1051,8.678 45.9932,8.678 35.1458,13.4508 24.7322,20.8271 17.3559,30.3729 12.5831,40.7864 9.9797,50.7661 8.678,59.4441 8.678,79.8373 13.0169,92.4203 18.2237,100.2305 24.2983,105.4373 52.0678,117.1525 75.0644,118.8881 89.8169,114.5492 95.8915,111.9458 107.1729,102.8339 114.5492,88.5153 118.0203,78.1017 119.322,55.9729 117.5864,48.1627 110.2102,35.1458 100.6644,26.0339 88.9492,18.2237 70.2915,10.4136 43.3898,9.1119" stroke="#00007f" stroke-width="2" /><polyline fill="none" points="19.0915,100.2305 29.939,94.5898 35.1458,89.8169 40.7864,79.8373 44.2576,67.6881 49.0305,37.7492 49.0305,21.6949 43.8237,8.678" stroke="#7cff79" stroke-width="2" /><polyline fill="none" points="102.8339,25.6 89.8169,33.8441 85.0441,41.2203 78.9695,45.5593 73.7627,59.878 72.8949,101.9661 73.3288,107.1729 78.5356,116.7186" stroke="#7f0000" stroke-width="2" /></svg>