<?xml version="1.0" encoding="utf-8" ?>
<svg baseProfile="tiny" height="128" version="1.2" viewBox="0,0,128,128" width="128" xmlns="http://www.w3.org/2000/svg" xmlns:ev="http://www.w3.org/2001/xml-events" xmlns:xlink="http://www.w3.org/1999/xlink"><defs /><polyline fill="none" points="39.1837,10.0136 32.2177,11.7551 26.5578,18.2857 13.932,44.8435 10.0136,57.034 8.7075,74.449 10.449,83.1565 15.2381,95.3469 20.0272,101.0068 34.3946,112.3265 43.9728,116.6803 54.8571,119.2925 62.6939,119.2925 81.415,107.9728 89.6871,99.7007 96.6531,87.0748 98.3946,71.8367 97.9592,64.8707 88.381,46.585 77.4966,35.7007 58.3401,24.381 39.1837,16.1088" stroke="#00007f" stroke-width="2" /><polyline fill="none" points="35.2653,8.7075 43.5374,24.381 43.5374,34.8299 39.1837,49.6327 33.9592,59.6463 28.7347,65.3061 9.1429,77.4966" stroke="#7cff79" stroke-width="2" /><polyline fill="none" points="71.4014,29.6054 67.9184,33.0884 65.7415,39.1837 65.7415,56.1633 67.9184,64.4354 81.8503,92.7347 86.2041,97.0884 91.8639,100.1361" stroke="#7f0000" stroke-width="2" /></svg>