<?xml version="1.0" encoding="utf-8" ?>
<svg baseProfile="tiny" height="128" version="1.2" viewBox="0,0,128,128" width="128" xmlns="http://www.w3.org/2000/svg" xmlns:ev="http://www.w3.org/2001/xml-events" xmlns:xlink="http://www.w3.org/1999/xlink"><defs /><polyline fill="none" points="92.8542,13.8847 75.9322,9.5458 65.5186,8.678 51.2,8.678 42.0881,10.8475 26.9017,19.5254 21.6949,24.7322 16.4881,31.6746 12.1492,42.9559 8.678,62.9153 8.678,78.5356 10.8475,87.6475 15.1864,96.3254 22.9966,105.4373 38.6169,115.4169 47.2949,118.4542 64.6508,119.322 74.1966,115.8508 87.6475,105.8712 92.8542,99.3627 102.8339,78.1017 103.2678,52.5017 95.0237,23.4305 86.7797,14.7525" stroke="#00007f" stroke-width="2" /><polyline fill="none" points="89.3831,17.7898 82.8746,19.0915 78.1017,25.1661 74.6305,32.5424 69.4237,50.3322 69.4237,95.0237 73.7627,106.3051 79.4034,110.6441" stroke="#7cff79" stroke-width="2" /><polyline fill="none" points="33.8441,17.3559 36.0136,20.8271 37.7492,27.7695 38.6169,49.0305 37.7492,54.6712 30.8068,72.8949 26.0339,79.8373 16.4881,87.6475" stroke="#7f0000" stroke-width="2" /></svg>