<?xml version="1.0" encoding="utf-8" ?>
<svg baseProfile="tiny" height="128" version="1.2" viewBox="0,0,128,128" width="128" xmlns="http://www.w3.org/2000/svg" xmlns:ev="http://www.w3.org/2001/xml-events" xmlns:xlink="http://www.w3.org/1999/xlink"><defs /><polyline fill="none" points="66.8203,12.1492 57.7085,12.5831 35.1458,18.2237 26.9017,22.5627 16.922,31.2407 12.1492,39.4847 8.678,53.8034 9.1119,63.3492 13.4508,72.0271 21.6949,78.5356 32.1085,81.5729 49.4644,82.8746 65.5186,80.2712 84.6102,72.461 99.7966,61.1797 113.2475,44.6915 119.322,29.939" stroke="#00007f" stroke-width="2" /><polyline fill="none" points="65.5186,10.8475 97.1932,11.2814 106.739,12.5831 113.2475,15.1864 116.2847,18.6576 116.2847,32.1085 112.8136,38.6169" stroke="#7cff79" stroke-width="2" /><polyline fill="none" points="71.1593,8.678 62.4814,11.7153 46.861,24.7322 40.7864,31.2407 33.4102,42.9559 29.5051,59.0102 29.939,63.3492 34.7119,66.3864 47.2949,67.6881 61.6136,67.6881 68.9898,64.6508 74.1966,60.3119 88.5153,31.2407 91.5525,19.9593 92.8542,9.1119" stroke="#7f0000" stroke-width="2" /></svg>