<?xml version="1.0" encoding="utf-8" ?>
<svg baseProfile="tiny" height="128" version="1.2" viewBox="0,0,128,128" width="128" xmlns="http://www.w3.org/2000/svg" xmlns:ev="http://www.w3.org/2001/xml-events" xmlns:xlink="http://www.w3.org/1999/xlink"><defs /><polyline fill="none" points="40.4898,11.7551 30.9116,12.6259 25.2517,17.415 20.0272,24.8163 12.1905,43.9728 9.5782,55.2925 8.7075,65.3061 9.5782,84.4626 16.1088,100.5714 21.3333,107.5374 35.2653,116.2449 43.9728,118.8571 60.0816,119.2925 67.9184,117.1156 81.8503,107.5374 88.381,100.5714 94.0408,91.8639 100.1361,72.2721 100.5714,55.2925 99.2653,46.585 93.1701,32.2177 88.8163,26.1224 72.7075,13.0612 61.3878,9.1429 47.8912,8.7075 42.2313,13.932" stroke="#00007f" stroke-width="2" /><polyline fill="none" points="15.2381,35.2653 18.7211,33.0884 26.1224,33.5238 38.3129,44.4082 45.2789,56.1633 52.2449,80.1088 53.1156,93.1701 50.9388,104.0544 45.2789,115.8095" stroke="#00d4ff" stroke-width="2" /><polyline fill="none" points="76.6259,20.898 74.0136,25.6871 72.7075,33.5238 72.7075,55.7279 74.0136,67.0476 78.8027,84.0272 84.898,91.4286 91.4286,93.6054" stroke="#ffe500" stroke-width="2" /><polyline fill="none" points="51.8095,8.7075 49.6327,17.8503 49.6327,29.6054 60.517,63.5646 63.5646,93.1701 67.483,102.7483 68.3537,110.585" stroke="#7f0000" stroke-width="2" /></svg>