<?xml version="1.0" encoding="utf-8" ?>
<svg baseProfile="tiny" height="128" version="1.2" viewBox="0,0,128,128" width="128" xmlns="http://www.w3.org/2000/svg" xmlns:ev="http://www.w3.org/2001/xml-events" xmlns:xlink="http://www.w3.org/1999/xlink"><defs /><polyline fill="none" points="85.0441,15.6203 75.9322,11.2814 66.3864,8.678 58.1424,9.1119 48.5966,13.0169 27.3356,26.4678 22.1288,32.5424 13.0169,48.1627 9.5458,61.6136 8.678,75.4983 11.7153,91.9864 16.4881,96.7593 42.9559,111.9458 63.3492,119.322 75.9322,118.0203 100.6644,107.1729 109.7763,98.061 115.4169,70.2915 111.078,53.3695 100.6644,26.9017 91.9864,18.6576 80.2712,13.4508" stroke="#00007f" stroke-width="2" /><polyline fill="none" points="36.8814,16.0542 42.522,39.9186 42.522,51.6339 37.3153,84.6102 34.7119,89.8169 26.0339,99.7966" stroke="#7cff79" stroke-width="2" /><polyline fill="none" points="85.9119,16.4881 73.7627,62.9153 68.9898,88.5153 70.7254,94.1559 77.2339,101.5322 86.7797,107.1729" stroke="#7f0000" stroke-width="2" /></svg>