<?xml version="1.0" encoding="utf-8" ?>
<svg baseProfile="tiny" height="128" version="1.2" viewBox="0,0,128,128" width="128" xmlns="http://www.w3.org/2000/svg" xmlns:ev="http://www.w3.org/2001/xml-events" xmlns:xlink="http://www.w3.org/1999/xlink"><defs /><polyline fill="none" points="74.0136,20.0272 66.1769,17.415 54.4218,17.8503 42.2313,22.6395 36.1361,27.4286 19.1565,44.8435 11.3197,59.6463 8.7075,67.483 9.1429,83.5918 12.6259,90.5578 18.7211,97.9592 25.6871,104.4898 35.2653,109.2789 45.7143,113.6327 56.1633,115.8095 76.1905,116.6803 85.3333,114.5034 101.0068,104.4898 112.3265,90.1224 117.9864,73.5782 119.2925,64.8707 118.8571,48.7619 116.2449,41.7959 112.7619,35.2653 102.3129,24.8163 88.8163,19.1565 81.415,17.8503 64.4354,17.415 59.6463,18.7211" stroke="#00007f" stroke-width="2" /><polyline fill="none" points="39.1837,26.1224 47.4558,52.6803 49.6327,64.8707 49.6327,77.4966 43.5374,92.7347 30.9116,107.5374 44.8435,87.5102 48.3265,77.932 50.5034,66.1769 49.6327,47.0204 44.8435,26.5578 38.7483,16.1088 36.1361,14.8027 31.7823,14.8027 31.7823,26.9932 43.9728,57.4694 46.1497,72.7075 44.8435,77.932 37.8776,90.5578 29.6054,100.5714 23.5102,104.9252 42.6667,86.2041 48.7619,77.4966 52.2449,66.6122 52.6803,53.1156 51.8095,45.7143 44.4082,24.8163 36.1361,8.7075 36.1361,16.5442 43.9728,49.6327 44.8435,75.3197 37.4422,90.5578 31.3469,96.6531 26.1224,99.2653" stroke="#7f0000" stroke-width="2" /></svg>