<?xml version="1.0" encoding="utf-8" ?>
<svg baseProfile="tiny" height="128" version="1.2" viewBox="0,0,128,128" width="128" xmlns="http://www.w3.org/2000/svg" xmlns:ev="http://www.w3.org/2001/xml-events" xmlns:xlink="http://www.w3.org/1999/xlink"><defs /><polyline fill="none" points="95.4576,20.8271 69.4237,12.1492 49.0305,8.678 27.3356,31.6746 15.6203,49.8983 11.7153,63.7831 10.8475,78.9695 13.0169,86.7797 16.922,94.1559 22.5627,101.5322 30.8068,108.0407 39.9186,111.9458 49.4644,114.1153 65.5186,111.9458 72.8949,108.9085 83.3085,103.2678 90.6847,95.8915 93.2881,91.1186 101.5322,62.9153 102.4,39.4847 98.061,26.0339 98.9288,23.4305 101.5322,21.261" stroke="#00007f" stroke-width="2" /><polyline fill="none" points="71.1593,13.4508 53.3695,111.9458 52.0678,116.7186 49.4644,119.322" stroke="#00d4ff" stroke-width="2" /><polyline fill="none" points="8.678,47.2949 29.5051,53.3695 40.3525,54.6712 75.0644,57.7085 78.5356,55.539" stroke="#ffe500" stroke-width="2" /><polyline fill="none" points="47.2949,56.4068 62.9153,57.7085 100.6644,66.3864 114.5492,68.122" stroke="#7f0000" stroke-width="2" /></svg>