<?xml version="1.0" encoding="utf-8" ?>
<svg baseProfile="tiny" height="128" version="1.2" viewBox="0,0,128,128" width="128" xmlns="http://www.w3.org/2000/svg" xmlns:ev="http://www.w3.org/2001/xml-events" xmlns:xlink="http://www.w3.org/1999/xlink"><defs /><polyline fill="none" points="114.5492,34.278 94.5898,22.1288 85.9119,18.6576 70.2915,16.0542 40.7864,16.922 33.4102,18.6576 25.6,22.9966 17.3559,31.6746 10.8475,47.2949 8.678,62.9153 8.678,86.7797 13.8847,94.5898 39.4847,111.078 54.2373,119.322 68.9898,118.4542 85.478,111.9458 94.1559,107.1729 101.0983,99.7966 105.0034,87.6475 108.4746,69.4237 112.3797,36.4475" stroke="#00007f" stroke-width="2" /><polyline fill="none" points="49.8983,8.678 48.5966,12.5831 49.8983,45.5593 48.5966,51.6339 43.8237,65.5186 33.8441,88.0814 20.8271,98.4949" stroke="#00d4ff" stroke-width="2" /><polyline fill="none" points="98.4949,24.2983 89.8169,28.2034 83.3085,36.4475 80.7051,42.0881 78.5356,56.4068 78.5356,72.461 82.8746,89.3831 88.5153,99.3627 91.5525,101.0983" stroke="#ffe500" stroke-width="2" /><polyline fill="none" points="97.6271,95.0237 96.3254,99.7966 101.5322,105.8712" stroke="#7f0000" stroke-width="2" /></svg>