<?xml version="1.0" encoding="utf-8" ?>
<svg baseProfile="tiny" height="128" version="1.2" viewBox="0,0,128,128" width="128" xmlns="http://www.w3.org/2000/svg" xmlns:ev="http://www.w3.org/2001/xml-events" xmlns:xlink="http://www.w3.org/1999/xlink"><defs /><polyline fill="none" points="86.3458,13.4508 64.2169,8.678 40.7864,8.678 30.8068,11.2814 19.0915,19.0915 14.7525,23.4305 10.4136,32.1085 9.1119,42.9559 8.678,56.4068 9.9797,63.3492 20.8271,77.2339 41.2203,95.0237 48.5966,98.9288 78.9695,108.0407 91.1186,105.4373 97.6271,101.5322 114.1153,87.2136 119.322,72.8949 119.322,65.0847 118.0203,57.7085 108.9085,41.2203 88.5153,20.8271 78.5356,13.0169" stroke="#00007f" stroke-width="2" /><polyline fill="none" points="45.1254,11.2814 49.8983,42.9559 49.4644,68.122 42.9559,82.4407 35.5797,88.5153" stroke="#7cff79" stroke-width="2" /><polyline fill="none" points="94.1559,27.7695 88.5153,39.0508 84.6102,51.6339 84.6102,76.8 86.3458,88.0814 91.5525,101.5322" stroke="#7f0000" stroke-width="2" /></svg>