<?xml version="1.0" encoding="utf-8" ?>
<svg baseProfile="tiny" height="128" version="1.2" viewBox="0,0,128,128" width="128" xmlns="http://www.w3.org/2000/svg" xmlns:ev="http://www.w3.org/2001/xml-events" xmlns:xlink="http://www.w3.org/1999/xlink"><defs /><polyline fill="none" points="26.9017,13.8847 30.8068,10.4136 41.2203,8.678 68.122,10.4136 77.2339,13.0169 87.6475,18.6576 94.5898,26.9017 100.6644,41.6542 105.0034,69.4237 103.7017,89.3831 95.4576,105.8712 87.2136,112.8136 80.7051,115.4169 61.6136,116.7186 52.9356,114.9831 38.6169,106.739 30.3729,100.2305 23.8644,92.4203 13.8847,70.2915 10.4136,59.4441 8.678,38.6169 10.8475,26.0339 13.8847,18.6576 20.8271,12.5831 28.2034,9.9797 28.6373,11.2814" stroke="#00007f" stroke-width="2" /><polyline fill="none" points="17.3559,16.922 21.261,23.8644 32.1085,34.7119 39.9186,39.9186 47.2949,42.0881 60.7458,39.9186 71.5932,36.4475 78.5356,32.1085 84.6102,23.8644" stroke="#7cff79" stroke-width="2" /><polyline fill="none" points="21.6949,91.1186 31.2407,78.9695 39.0508,73.3288 51.2,72.8949 53.8034,75.9322 64.2169,79.4034 68.5559,82.8746 79.8373,96.7593 82.8746,103.7017 84.6102,119.322" stroke="#7f0000" stroke-width="2" /></svg>