<?xml version="1.0" encoding="utf-8" ?>
<svg baseProfile="tiny" height="128" version="1.2" viewBox="0,0,128,128" width="128" xmlns="http://www.w3.org/2000/svg" xmlns:ev="http://www.w3.org/2001/xml-events" xmlns:xlink="http://www.w3.org/1999/xlink"><defs /><polyline fill="none" points="64.6508,8.678 26.0339,28.2034 14.3186,45.1254 10.4136,53.8034 8.678,58.5763 10.4136,65.0847 19.9593,72.0271 26.9017,74.6305 42.9559,78.5356 62.4814,80.7051 85.9119,77.6678 95.4576,72.8949 103.2678,66.3864 108.4746,59.4441 116.2847,53.3695 118.8881,49.0305 119.322,44.2576 110.2102,31.6746 86.3458,15.1864 59.0102,13.4508" stroke="#00007f" stroke-width="2" /><polyline fill="none" points="44.6915,14.7525 53.8034,34.278 58.5763,50.7661 57.7085,57.2746 52.0678,72.0271 47.2949,79.4034 43.3898,80.2712" stroke="#00d4ff" stroke-width="2" /><polyline fill="none" points="95.4576,20.3932 84.1763,45.5593 81.5729,57.7085 82.8746,74.1966 83.7424,76.3661 86.3458,76.3661" stroke="#ffe500" stroke-width="2" /><polyline fill="none" points="88.9492,20.8271 98.9288,28.2034" stroke="#7f0000" stroke-width="2" /></svg>