<?xml version="1.0" encoding="utf-8" ?>
<svg baseProfile="tiny" height="128" version="1.2" viewBox="0,0,128,128" width="128" xmlns="http://www.w3.org/2000/svg" xmlns:ev="http://www.w3.org/2001/xml-events" xmlns:xlink="http://www.w3.org/1999/xlink"><defs /><polyline fill="none" points="57.7085,19.9593 55.9729,18.2237 52.0678,18.2237 42.522,21.6949 23.8644,32.5424 16.4881,40.7864 13.0169,49.4644 9.1119,67.6881 8.678,82.8746 10.4136,91.1186 16.4881,104.1356 23.4305,111.9458 32.9763,114.9831 49.8983,115.4169 66.8203,109.3424 77.2339,103.2678 93.722,88.9492 98.9288,81.139 101.9661,72.461 102.4,58.1424 97.6271,44.2576 89.3831,32.9763 75.9322,20.8271 63.7831,13.0169 53.3695,8.678" stroke="#00007f" stroke-width="2" /><polyline fill="none" points="33.4102,26.9017 42.9559,33.8441 44.2576,36.4475 42.9559,46.4271 46.861,51.2 47.2949,56.4068 42.9559,65.9525 45.9932,68.122 46.861,72.0271 39.9186,84.1763 41.6542,91.1186 32.9763,102.8339 30.3729,110.6441 24.2983,116.7186 18.6576,119.322" stroke="#7cff79" stroke-width="2" /><polyline fill="none" points="85.9119,30.3729 85.0441,29.0712 81.139,28.2034 72.8949,32.9763 68.122,43.8237 68.122,49.4644 72.8949,55.9729 73.3288,58.1424 64.6508,71.1593 63.3492,79.4034 69.8576,87.6475 61.1797,97.6271 58.5763,102.8339 65.9525,109.7763 72.0271,111.078" stroke="#7f0000" stroke-width="2" /></svg>