<?xml version="1.0" encoding="utf-8" ?>
<svg baseProfile="tiny" height="128" version="1.2" viewBox="0,0,128,128" width="128" xmlns="http://www.w3.org/2000/svg" xmlns:ev="http://www.w3.org/2001/xml-events" xmlns:xlink="http://www.w3.org/1999/xlink"><defs /><polyline fill="none" points="83.3085,22.9966 74.6305,17.3559 65.5186,14.3186 43.3898,12.5831 27.3356,18.6576 16.922,26.9017 12.1492,34.7119 9.9797,44.2576 8.678,75.0644 9.1119,82.4407 13.0169,95.0237 18.6576,104.5695 24.7322,111.078 35.1458,117.1525 43.8237,119.322 58.1424,118.8881 72.461,114.9831 86.7797,107.6068 92.8542,102.4 100.2305,92.8542 104.5695,82.8746 107.1729,72.461 107.1729,54.2373 106.3051,44.2576 98.061,27.3356 87.6475,13.8847 80.7051,8.678 73.7627,9.1119" stroke="#00007f" stroke-width="2" /><polyline fill="none" points="38.1831,15.1864 32.9763,16.922 27.7695,26.4678 22.5627,45.1254 20.8271,59.0102 21.261,64.2169 24.2983,62.9153 29.0712,52.0678 25.6,78.9695 26.0339,80.7051 28.2034,81.5729 34.278,80.2712 27.7695,98.061 32.5424,98.061 32.5424,116.2847 36.0136,111.9458" stroke="#7cff79" stroke-width="2" /><polyline fill="none" points="77.6678,19.9593 81.5729,21.261 87.6475,26.9017 94.5898,39.4847 91.9864,47.7288 83.3085,56.4068 78.9695,64.2169 82.4407,66.8203 82.8746,68.9898 78.1017,80.7051 78.9695,83.3085 84.6102,85.9119 85.9119,87.6475 84.1763,95.8915 86.3458,98.9288 88.9492,111.078" stroke="#7f0000" stroke-width="2" /></svg>