<?xml version="1.0" encoding="utf-8" ?>
<svg baseProfile="tiny" height="128" version="1.2" viewBox="0,0,128,128" width="128" xmlns="http://www.w3.org/2000/svg" xmlns:ev="http://www.w3.org/2001/xml-events" xmlns:xlink="http://www.w3.org/1999/xlink"><defs /><polyline fill="none" points="61.1797,10.8475 62.9153,9.5458 54.6712,9.1119 41.6542,9.1119 35.5797,10.8475 29.0712,14.3186 19.9593,22.9966 13.0169,36.4475 10.8475,45.9932 8.678,73.7627 10.4136,82.8746 15.6203,95.4576 24.7322,105.4373 36.8814,114.1153 44.2576,117.1525 50.3322,118.8881 61.1797,118.4542 68.122,116.2847 80.7051,108.4746 86.3458,103.2678 89.8169,97.6271 93.2881,90.6847 95.8915,76.3661 96.3254,55.539 94.1559,44.6915 90.6847,36.4475 82.8746,26.9017 77.2339,22.5627 61.1797,14.7525 53.3695,12.5831 41.2203,12.5831" stroke="#00007f" stroke-width="2" /><polyline fill="none" points="66.8203,20.8271 65.0847,32.9763 65.9525,66.3864 72.8949,101.9661 76.8,114.5492 78.5356,116.2847" stroke="#7cff79" stroke-width="2" /><polyline fill="none" points="22.5627,8.678 38.6169,27.3356 45.1254,44.2576 48.5966,65.0847 49.0305,85.0441 47.2949,101.0983 44.6915,110.6441 39.0508,119.322" stroke="#7f0000" stroke-width="2" /></svg>