<?xml version="1.0" encoding="utf-8" ?>
<svg baseProfile="tiny" height="128" version="1.2" viewBox="0,0,128,128" width="128" xmlns="http://www.w3.org/2000/svg" xmlns:ev="http://www.w3.org/2001/xml-events" xmlns:xlink="http://www.w3.org/1999/xlink"><defs /><polyline fill="none" points="107.1729,8.678 91.1186,9.1119 87.6475,10.4136 82.8746,14.3186 80.7051,17.7898 77.2339,27.7695 76.8,39.4847 78.1017,44.2576 85.478,54.2373 94.5898,59.878 101.5322,61.1797 112.8136,59.0102 118.0203,51.6339 119.322,44.2576 118.8881,36.4475 111.5119,22.9966 103.2678,11.2814" stroke="#00007f" stroke-width="2" /><polyline fill="none" points="82.0068,28.2034 90.6847,29.5051" stroke="#0028ff" stroke-width="2" /><polyline fill="none" points="82.8746,35.5797 89.8169,36.0136" stroke="#00d4ff" stroke-width="2" /><polyline fill="none" points="85.9119,22.9966 86.3458,31.2407 89.8169,42.0881" stroke="#7cff79" stroke-width="2" /><polyline fill="none" points="32.9763,76.3661 31.6746,68.5559 23.4305,51.2 22.9966,44.2576" stroke="#ffe500" stroke-width="2" /><polyline fill="none" points="32.5424,76.3661 36.8814,71.1593 26.4678,45.5593 23.4305,45.5593" stroke="#ff4600" stroke-width="2" /><polyline fill="none" points="29.939,51.6339 34.7119,45.1254 36.4475,34.7119 29.5051,21.261 21.261,10.8475 10.4136,11.7153 8.678,16.4881 9.9797,30.3729 19.0915,52.0678 21.6949,55.539 29.5051,59.4441" stroke="#7f0000" stroke-width="2" /></svg>