<?xml version="1.0" encoding="utf-8" ?>
<svg baseProfile="tiny" height="128" version="1.2" viewBox="0,0,128,128" width="128" xmlns="http://www.w3.org/2000/svg" xmlns:ev="http://www.w3.org/2001/xml-events" xmlns:xlink="http://www.w3.org/1999/xlink"><defs /><polyline fill="none" points="83.7424,8.678 55.1051,8.678 41.6542,14.3186 31.2407,22.1288 16.922,39.0508 13.8847,45.1254 11.2814,52.0678 8.678,71.1593 8.678,81.139 16.0542,88.9492 25.6,95.0237 34.278,98.9288 44.6915,100.6644 59.4441,101.9661 63.7831,103.7017 76.8,104.1356 86.7797,104.1356 95.0237,101.9661 102.8339,96.7593 114.1153,85.478 119.322,72.8949 119.322,52.9356 115.8508,40.3525 106.739,25.6 88.9492,8.678" stroke="#00007f" stroke-width="2" /><polyline fill="none" points="52.0678,11.2814 52.5017,22.9966 55.1051,34.7119 55.1051,51.6339 53.8034,56.4068 46.4271,68.5559 37.7492,78.9695 22.5627,92.8542 17.7898,96.3254 16.922,94.5898" stroke="#004cff" stroke-width="2" /><polyline fill="none" points="42.9559,17.3559 44.2576,27.7695 44.2576,55.539 38.1831,74.1966 31.2407,82.0068 27.3356,85.0441 26.0339,85.0441" stroke="#29ffcd" stroke-width="2" /><polyline fill="none" points="45.9932,35.5797 50.3322,35.5797 53.3695,37.3153" stroke="#cdff29" stroke-width="2" /><polyline fill="none" points="49.4644,44.2576 54.2373,48.1627" stroke="#ff6700" stroke-width="2" /><polyline fill="none" points="45.5593,55.539 52.0678,55.539" stroke="#7f0000" stroke-width="2" /></svg>