<?xml version="1.0" encoding="utf-8" ?>
<svg baseProfile="tiny" height="128" version="1.2" viewBox="0,0,128,128" width="128" xmlns="http://www.w3.org/2000/svg" xmlns:ev="http://www.w3.org/2001/xml-events" xmlns:xlink="http://www.w3.org/1999/xlink"><defs /><polyline fill="none" points="26.9017,23.4305 15.6203,30.8068 8.678,39.0508 8.678,44.2576 13.4508,53.8034 25.1661,60.3119 30.3729,60.7458 36.0136,58.5763 42.0881,48.5966 42.9559,38.1831 41.2203,34.278 36.0136,30.8068 31.6746,30.3729" stroke="#00007f" stroke-width="2" /><polyline fill="none" points="97.1932,94.1559 78.9695,59.4441 73.3288,26.9017 73.3288,15.1864 76.8,10.8475 80.7051,8.678 91.5525,8.678 97.6271,15.6203 111.5119,43.3898 114.9831,70.2915 114.9831,83.3085 112.8136,91.5525 109.3424,95.0237 95.0237,100.6644 92.8542,108.4746 95.0237,118.0203 98.4949,119.322 105.0034,118.0203 108.9085,110.6441 109.7763,103.2678 108.0407,100.6644" stroke="#7f0000" stroke-width="2" /></svg>