<?xml version="1.0" encoding="utf-8" ?>
<svg baseProfile="tiny" height="128" version="1.2" viewBox="0,0,128,128" width="128" xmlns="http://www.w3.org/2000/svg" xmlns:ev="http://www.w3.org/2001/xml-events" xmlns:xlink="http://www.w3.org/1999/xlink"><defs /><polyline fill="none" points="74.1966,15.1864 65.9525,10.4136 49.0305,9.1119 39.9186,10.4136 29.939,15.6203 19.9593,25.1661 11.2814,43.3898 9.1119,52.9356 8.678,62.9153 10.8475,77.6678 19.0915,96.7593 31.2407,105.0034 61.1797,114.9831 71.5932,113.6814 88.5153,107.1729 103.2678,97.1932 112.8136,84.1763 116.2847,76.8 118.4542,69.8576 119.322,56.8407 117.5864,46.4271 112.8136,37.7492 105.4373,28.2034 88.5153,13.8847 78.9695,9.1119 74.6305,8.678 58.1424,12.1492 56.4068,13.8847" stroke="#00007f" stroke-width="2" /><polyline fill="none" points="73.3288,11.2814 59.4441,18.2237 49.4644,26.0339 42.522,36.0136 36.8814,47.7288 32.1085,62.0475 30.3729,81.5729 29.939,97.6271 30.8068,106.739 32.1085,108.0407" stroke="#0080ff" stroke-width="2" /><polyline fill="none" points="91.1186,16.922 82.8746,28.2034 77.2339,42.522 67.6881,76.8 59.0102,118.0203" stroke="#7cff79" stroke-width="2" /><polyline fill="none" points="11.2814,47.7288 23.4305,59.0102 47.7288,75.0644 64.2169,83.7424 77.2339,88.5153 98.4949,91.5525" stroke="#ff9400" stroke-width="2" /><polyline fill="none" points="50.7661,16.922 54.6712,20.8271 63.3492,26.0339 71.1593,34.278 76.8,44.6915 101.0983,72.8949 106.739,82.8746" stroke="#7f0000" stroke-width="2" /></svg>