<?xml version="1.0" encoding="utf-8" ?>
<svg baseProfile="tiny" height="128" version="1.2" viewBox="0,0,128,128" width="128" xmlns="http://www.w3.org/2000/svg" xmlns:ev="http://www.w3.org/2001/xml-events" xmlns:xlink="http://www.w3.org/1999/xlink"><defs /><polyline fill="none" points="86.3458,11.2814 81.139,9.1119 60.7458,8.678 48.1627,13.4508 34.7119,25.1661 17.7898,42.9559 10.4136,55.9729 9.5458,78.1017 14.3186,87.6475 24.2983,98.4949 29.5051,101.9661 38.6169,104.1356 56.8407,104.1356 65.5186,101.9661 72.461,98.4949 85.0441,85.9119 92.4203,75.4983 102.8339,53.3695 103.7017,36.8814 101.0983,29.939 96.7593,23.8644 91.9864,20.8271 84.1763,21.6949" stroke="#00007f" stroke-width="2" /><polyline fill="none" points="43.3898,19.0915 47.7288,34.7119 57.2746,45.5593 66.8203,52.5017 82.4407,56.8407 104.1356,56.8407 105.8712,55.1051 104.1356,54.2373 100.2305,55.9729" stroke="#7cff79" stroke-width="2" /><polyline fill="none" points="8.678,69.8576 22.5627,66.8203 44.2576,66.8203 48.1627,66.8203 59.4441,71.5932 82.0068,87.2136 94.5898,99.3627 98.4949,107.1729 100.2305,119.322" stroke="#7f0000" stroke-width="2" /></svg>