<?xml version="1.0" encoding="utf-8" ?>
<svg baseProfile="tiny" height="128" version="1.2" viewBox="0,0,128,128" width="128" xmlns="http://www.w3.org/2000/svg" xmlns:ev="http://www.w3.org/2001/xml-events" xmlns:xlink="http://www.w3.org/1999/xlink"><defs /><polyline fill="none" points="33.4102,19.5254 44.2576,17.7898 53.8034,20.3932 71.1593,28.2034 80.7051,34.7119 100.6644,54.2373 117.5864,81.5729 119.322,93.722 117.1525,98.4949 114.1153,100.6644 105.4373,102.8339 86.7797,104.1356 65.0847,100.6644 56.8407,98.061 38.1831,88.0814 24.7322,74.6305 19.0915,65.5186 13.4508,52.0678 10.8475,44.6915 10.4136,37.3153 14.7525,26.4678 20.3932,17.3559 29.939,11.2814 37.7492,9.1119 45.9932,8.678 59.4441,13.8847 69.8576,23.4305 70.2915,28.6373" stroke="#00007f" stroke-width="2" /><polyline fill="none" points="29.939,16.0542 29.939,27.7695 32.1085,31.6746 36.8814,48.1627 43.3898,61.1797 50.3322,72.0271 64.6508,85.9119 79.8373,98.4949 100.2305,110.2102 108.9085,112.8136 115.8508,113.2475" stroke="#7cff79" stroke-width="2" /><polyline fill="none" points="76.8,86.3458 66.3864,89.3831 58.5763,90.2508 57.7085,87.6475 59.878,85.478 60.3119,80.2712 52.0678,75.4983 36.4475,71.1593 40.3525,68.5559 52.9356,65.5186 49.4644,61.1797 34.7119,58.1424 33.4102,54.2373 42.522,47.7288 8.678,37.7492 12.1492,36.4475 23.8644,36.0136 47.7288,40.3525 44.2576,37.3153 20.3932,26.9017 18.6576,24.2983 27.3356,22.9966" stroke="#7f0000" stroke-width="2" /></svg>