<?xml version="1.0" encoding="utf-8" ?>
<svg baseProfile="tiny" height="128" version="1.2" viewBox="0,0,128,128" width="128" xmlns="http://www.w3.org/2000/svg" xmlns:ev="http://www.w3.org/2001/xml-events" xmlns:xlink="http://www.w3.org/1999/xlink"><defs /><polyline fill="none" points="62.0475,14.7525 41.6542,13.8847 35.1458,16.4881 25.1661,25.6 18.2237,35.5797 11.2814,49.4644 8.678,66.8203 8.678,83.3085 9.9797,86.7797 17.7898,98.4949 39.9186,109.3424 71.5932,118.8881 87.2136,119.322 91.5525,118.0203 95.4576,115.4169 97.1932,110.2102 102.4,86.7797 103.2678,58.1424 97.1932,46.4271 73.7627,22.5627 47.7288,8.678" stroke="#00007f" stroke-width="2" /><polyline fill="none" points="46.861,14.7525 46.861,17.7898 41.6542,27.7695 40.3525,34.278 38.1831,73.3288 36.8814,76.8 32.5424,84.1763 25.6,88.9492 17.7898,91.1186" stroke="#7cff79" stroke-width="2" /><polyline fill="none" points="68.9898,21.261 62.4814,38.6169 62.0475,56.8407 59.4441,68.9898 59.4441,95.8915 66.8203,105.0034" stroke="#7f0000" stroke-width="2" /></svg>