<?xml version="1.0" encoding="utf-8" ?>
<svg baseProfile="tiny" height="128" version="1.2" viewBox="0,0,128,128" width="128" xmlns="http://www.w3.org/2000/svg" xmlns:ev="http://www.w3.org/2001/xml-events" xmlns:xlink="http://www.w3.org/1999/xlink"><defs /><polyline fill="none" points="74.1966,18.6576 69.8576,14.3186 63.7831,11.2814 45.1254,11.7153 37.7492,16.4881 24.2983,31.2407 13.8847,49.4644 11.2814,59.4441 11.2814,70.7254 16.4881,82.0068 21.261,87.6475 38.1831,99.7966 55.1051,106.739 64.6508,108.9085 82.4407,108.9085 97.6271,105.8712 107.6068,101.0983 112.3797,95.8915 116.7186,82.4407 119.322,60.7458 118.8881,46.861 113.2475,24.7322 108.9085,20.8271 102.4,18.2237 75.0644,10.4136 65.0847,9.1119" stroke="#00007f" stroke-width="2" /><polyline fill="none" points="52.0678,8.678 55.1051,26.4678 59.0102,37.7492 65.0847,47.2949 70.2915,50.3322 75.4983,49.8983 80.2712,44.6915 90.6847,10.8475" stroke="#00d4ff" stroke-width="2" /><polyline fill="none" points="52.5017,89.3831 54.2373,77.6678 60.3119,68.9898 67.2542,65.9525 75.4983,68.9898 82.8746,74.6305 86.3458,79.8373 88.9492,111.5119" stroke="#ffe500" stroke-width="2" /><polyline fill="none" points="27.7695,34.7119 36.4475,39.4847 39.4847,44.2576 39.4847,50.7661 35.5797,55.1051 26.0339,59.4441 18.2237,61.1797 8.678,61.6136" stroke="#7f0000" stroke-width="2" /></svg>