<?xml version="1.0" encoding="utf-8" ?>
<svg baseProfile="tiny" height="128" version="1.2" viewBox="0,0,128,128" width="128" xmlns="http://www.w3.org/2000/svg" xmlns:ev="http://www.w3.org/2001/xml-events" xmlns:xlink="http://www.w3.org/1999/xlink"><defs /><polyline fill="none" points="74.8844,16.9796 63.5646,14.8027 45.2789,13.932 28.2993,18.7211 20.4626,23.5102 11.3197,33.5238 8.7075,39.1837 9.5782,53.1156 15.2381,66.1769 22.2041,74.8844 31.3469,83.1565 38.7483,87.0748 55.2925,91.8639 64.0,92.7347 80.1088,90.9932 95.3469,86.6395 106.6667,78.8027 114.068,70.0952 118.8571,59.2109 119.2925,50.068 116.2449,39.619 112.3265,34.3946 104.4898,27.4286 87.9456,18.2857 72.2721,13.0612" stroke="#00007f" stroke-width="2" /><polyline fill="none" points="37.0068,15.2381 40.4898,17.415 44.8435,26.1224 52.6803,44.8435 55.2925,68.7891 53.1156,94.0408" stroke="#7cff79" stroke-width="2" /><polyline fill="none" points="68.3537,8.7075 66.1769,16.5442 66.1769,28.7347 70.5306,47.8912 75.7551,63.5646 80.9796,70.5306 90.1224,77.932 100.1361,78.3673 102.3129,79.2381" stroke="#7f0000" stroke-width="2" /></svg>