<?xml version="1.0" encoding="utf-8" ?>
<svg baseProfile="tiny" height="128" version="1.2" viewBox="0,0,128,128" width="128" xmlns="http://www.w3.org/2000/svg" xmlns:ev="http://www.w3.org/2001/xml-events" xmlns:xlink="http://www.w3.org/1999/xlink"><defs /><polyline fill="none" points="96.7593,19.5254 52.9356,10.4136 39.4847,10.4136 34.278,12.1492 26.4678,19.5254 17.3559,34.278 10.4136,51.6339 8.678,61.6136 8.678,70.7254 12.5831,75.9322 18.6576,78.9695 45.9932,84.1763 94.5898,85.478 101.0983,83.3085 110.2102,78.1017 115.8508,70.7254 119.322,61.1797 118.4542,49.0305 113.2475,38.1831 103.7017,24.7322 85.0441,23.8644" stroke="#00007f" stroke-width="2" /><polyline fill="none" points="28.6373,8.678 45.9932,32.5424 50.3322,48.5966 50.3322,58.5763 48.5966,68.9898 38.6169,81.5729" stroke="#004cff" stroke-width="2" /><polyline fill="none" points="97.1932,24.2983 93.722,25.6 86.7797,32.9763 81.139,45.5593 81.5729,72.0271 86.3458,81.5729 93.722,82.4407" stroke="#29ffcd" stroke-width="2" /><polyline fill="none" points="92.8542,77.6678 84.1763,81.139" stroke="#cdff29" stroke-width="2" /><polyline fill="none" points="85.478,69.4237 78.5356,68.5559" stroke="#ff6700" stroke-width="2" /><polyline fill="none" points="86.7797,59.0102 80.7051,46.4271" stroke="#7f0000" stroke-width="2" /></svg>