<?xml version="1.0" encoding="utf-8" ?>
<svg baseProfile="tiny" height="128" version="1.2" viewBox="0,0,128,128" width="128" xmlns="http://www.w3.org/2000/svg" xmlns:ev="http://www.w3.org/2001/xml-events" xmlns:xlink="http://www.w3.org/1999/xlink"><defs /><polyline fill="none" points="106.739,23.8644 102.8339,21.6949 91.1186,20.8271 82.8746,26.0339 77.2339,35.1458 75.9322,41.2203 76.3661,49.0305 78.9695,55.539 85.478,61.1797 94.1559,64.2169 105.0034,63.7831 115.8508,58.5763 118.8881,52.5017 119.322,43.8237 116.2847,37.3153 109.7763,29.5051" stroke="#00007f" stroke-width="2" /><polyline fill="none" points="77.6678,40.7864 78.1017,40.7864" stroke="#0000e8" stroke-width="2" /><polyline fill="none" points="78.9695,38.6169 82.4407,38.1831" stroke="#0038ff" stroke-width="2" /><polyline fill="none" points="82.4407,32.1085 86.7797,32.1085" stroke="#0094ff" stroke-width="2" /><polyline fill="none" points="89.3831,26.4678 93.722,26.4678" stroke="#0cf4ea" stroke-width="2" /><polyline fill="none" points="85.0441,54.6712 89.8169,57.7085" stroke="#56ffa0" stroke-width="2" /><polyline fill="none" points="90.2508,51.6339 90.6847,51.6339" stroke="#a0ff56" stroke-width="2" /><polyline fill="none" points="96.3254,43.3898 98.9288,47.2949" stroke="#eaff0c" stroke-width="2" /><polyline fill="none" points="103.7017,39.0508 104.5695,42.522" stroke="#ffaa00" stroke-width="2" /><polyline fill="none" points="111.078,38.6169 111.078,39.9186" stroke="#ff5500" stroke-width="2" /><polyline fill="none" points="23.4305,9.5458 30.8068,9.5458 34.278,13.4508 34.278,15.6203 29.939,19.5254 29.5051,22.9966 31.6746,35.5797 39.0508,48.5966 37.3153,62.0475" stroke="#e80000" stroke-width="2" /><polyline fill="none" points="37.3153,62.0475 36.4475,78.1017 31.2407,85.9119 27.3356,88.0814 22.5627,86.7797 16.922,80.2712 9.1119,65.9525 8.678,51.2 12.5831,33.8441 16.4881,24.2983 17.3559,15.6203 19.5254,9.1119 23.8644,8.678" stroke="#7f0000" stroke-width="2" /></svg>