<?xml version="1.0" encoding="utf-8" ?>
<svg baseProfile="tiny" height="128" version="1.2" viewBox="0,0,128,128" width="128" xmlns="http://www.w3.org/2000/svg" xmlns:ev="http://www.w3.org/2001/xml-events" xmlns:xlink="http://www.w3.org/1999/xlink"><defs /><polyline fill="none" points="54.6712,16.922 40.3525,19.9593 31.2407,23.8644 19.5254,34.7119 14.7525,40.7864 10.4136,55.539 8.678,81.139 9.5458,89.3831 16.0542,102.8339 27.7695,113.2475 40.3525,118.4542 62.9153,119.322 67.2542,116.7186 94.5898,94.5898 112.3797,75.0644 115.4169,69.4237 117.1525,62.9153 117.5864,45.1254 113.2475,33.4102 106.3051,23.4305 99.3627,15.6203 90.6847,10.4136 84.6102,8.678 75.0644,8.678 61.1797,10.8475 50.7661,16.4881 47.7288,19.5254" stroke="#00007f" stroke-width="2" /><polyline fill="none" points="74.6305,10.4136 72.461,17.3559 72.461,61.1797 77.2339,69.4237 92.4203,80.2712 100.2305,83.3085" stroke="#7cff79" stroke-width="2" /><polyline fill="none" points="13.8847,43.3898 24.7322,45.5593 33.8441,50.7661 41.2203,59.878 44.6915,70.2915 47.2949,87.2136 47.7288,114.1153" stroke="#7f0000" stroke-width="2" /></svg>