<?xml version="1.0" encoding="utf-8" ?>
<svg baseProfile="tiny" height="128" version="1.2" viewBox="0,0,128,128" width="128" xmlns="http://www.w3.org/2000/svg" xmlns:ev="http://www.w3.org/2001/xml-events" xmlns:xlink="http://www.w3.org/1999/xlink"><defs /><polyline fill="none" points="35.5797,8.678 24.7322,8.678 19.5254,10.4136 13.4508,17.3559 9.9797,25.1661 8.678,77.2339 13.8847,93.2881 22.1288,107.6068 29.5051,113.6814 39.4847,118.0203 61.1797,119.322 72.0271,117.5864 83.3085,113.2475 89.8169,108.4746 95.0237,102.8339 101.9661,88.9492 103.7017,78.5356 103.7017,63.7831 97.1932,45.5593 90.6847,37.3153 75.9322,24.7322 62.4814,19.0915 45.1254,16.4881 32.9763,16.922" stroke="#00007f" stroke-width="2" /><polyline fill="none" points="32.5424,17.3559 39.9186,29.0712 44.2576,39.4847 45.5593,59.878 39.9186,75.9322 35.5797,81.139 20.3932,92.8542" stroke="#7cff79" stroke-width="2" /><polyline fill="none" points="76.3661,31.2407 68.5559,78.9695 68.5559,100.2305 74.1966,110.6441 82.0068,114.1153" stroke="#7f0000" stroke-width="2" /></svg>