<?xml version="1.0" encoding="utf-8" ?>
<svg baseProfile="tiny" height="128" version="1.2" viewBox="0,0,128,128" width="128" xmlns="http://www.w3.org/2000/svg" xmlns:ev="http://www.w3.org/2001/xml-events" xmlns:xlink="http://www.w3.org/1999/xlink"><defs /><polyline fill="none" points="62.9153,10.4136 53.3695,10.4136 46.4271,12.1492 36.8814,16.922 23.8644,25.6 16.922,33.8441 12.1492,43.8237 9.9797,50.3322 8.678,63.7831 13.4508,76.3661 36.4475,101.9661 52.9356,113.2475 70.7254,119.322 77.6678,118.8881 88.0814,113.2475 93.2881,108.9085 98.9288,100.6644 104.1356,82.8746 105.0034,54.2373 101.0983,32.1085 96.3254,22.5627 86.7797,17.7898 67.6881,14.3186 60.7458,10.4136" stroke="#00007f" stroke-width="2" /><polyline fill="none" points="29.0712,22.5627 36.0136,41.6542 37.3153,53.8034 30.8068,73.3288 17.7898,94.5898" stroke="#00d4ff" stroke-width="2" /><polyline fill="none" points="87.2136,18.6576 77.2339,27.7695 72.8949,34.278 69.4237,54.6712 68.5559,74.6305 70.7254,85.0441 74.1966,92.4203 92.4203,101.5322" stroke="#ffe500" stroke-width="2" /><polyline fill="none" points="59.878,8.678 54.2373,34.7119 51.6339,60.3119 50.3322,84.6102 51.6339,107.1729" stroke="#7f0000" stroke-width="2" /></svg>