<?xml version="1.0" encoding="utf-8" ?>
<svg baseProfile="tiny" height="128" version="1.2" viewBox="0,0,128,128" width="128" xmlns="http://www.w3.org/2000/svg" xmlns:ev="http://www.w3.org/2001/xml-events" xmlns:xlink="http://www.w3.org/1999/xlink"><defs /><polyline fill="none" points="95.8915,27.3356 76.8,25.1661 49.4644,25.1661 32.9763,32.1085 24.7322,39.4847 13.0169,55.9729 8.678,73.3288 8.678,85.478 12.1492,96.3254 24.2983,107.6068 37.7492,114.9831 44.6915,117.5864 75.9322,119.322 87.6475,116.2847 97.1932,110.2102 109.7763,91.9864 112.8136,79.4034 112.8136,65.5186 105.0034,34.7119 97.6271,17.3559 95.8915,13.8847 89.8169,8.678 77.6678,24.7322" stroke="#00007f" stroke-width="2" /><polyline fill="none" points="42.0881,29.0712 47.2949,36.4475 48.5966,43.3898 48.1627,55.9729 42.9559,74.1966 35.5797,94.1559 30.8068,101.5322 20.3932,109.7763 16.0542,111.5119" stroke="#7cff79" stroke-width="2" /><polyline fill="none" points="90.6847,30.3729 88.5153,30.3729 82.8746,36.0136 78.9695,43.8237 76.3661,63.3492 75.9322,78.9695 82.4407,88.9492 94.5898,96.7593 100.2305,98.4949" stroke="#7f0000" stroke-width="2" /></svg>