<?xml version="1.0" encoding="utf-8" ?>
<svg baseProfile="tiny" height="128" version="1.2" viewBox="0,0,128,128" width="128" xmlns="http://www.w3.org/2000/svg" xmlns:ev="http://www.w3.org/2001/xml-events" xmlns:xlink="http://www.w3.org/1999/xlink"><defs /><polyline fill="none" points="110.585,16.9796 106.6667,13.4966 94.9116,11.7551 84.898,11.7551 68.7891,15.6735 58.3401,19.1565 48.3265,24.381 31.3469,38.3129 16.9796,54.8571 11.3197,64.8707 8.7075,72.7075 8.7075,85.3333 14.8027,96.2177 20.898,101.0068 48.3265,104.4898 81.8503,104.9252 95.7823,100.1361 104.9252,92.7347 110.1497,86.6395 115.8095,75.7551 118.8571,46.1497 119.2925,33.5238 117.551,27.8639 107.9728,16.1088" stroke="#00007f" stroke-width="2" /><polyline fill="none" points="100.1361,9.5782 98.3946,8.7075 84.0272,36.1361 81.415,44.4082 79.6735,56.1633 80.5442,70.0952 85.3333,87.5102 87.9456,92.7347 96.6531,98.8299" stroke="#0010ff" stroke-width="2" /><polyline fill="none" points="81.415,15.2381 81.415,15.2381" stroke="#00a4ff" stroke-width="2" /><polyline fill="none" points="80.5442,12.6259 79.6735,23.0748 73.5782,38.3129 59.6463,58.7755 50.068,68.7891 37.8776,77.4966 31.3469,80.5442 9.1429,80.5442" stroke="#3fffb7" stroke-width="2" /><polyline fill="none" points="15.6735,71.8367 15.6735,74.449 24.381,86.6395 25.6871,87.0748" stroke="#b7ff3f" stroke-width="2" /><polyline fill="none" points="30.0408,66.6122 34.3946,85.3333" stroke="#ffb900" stroke-width="2" /><polyline fill="none" points="42.2313,60.517 44.8435,69.2245" stroke="#ff3000" stroke-width="2" /><polyline fill="none" points="50.9388,60.9524 54.4218,67.9184 57.034,70.5306" stroke="#7f0000" stroke-width="2" /></svg>