<?xml version="1.0" encoding="utf-8" ?>
<svg baseProfile="tiny" height="128" version="1.2" viewBox="0,0,128,128" width="128" xmlns="http://www.w3.org/2000/svg" xmlns:ev="http://www.w3.org/2001/xml-events" xmlns:xlink="http://www.w3.org/1999/xlink"><defs /><polyline fill="none" points="73.3288,19.0915 66.8203,19.0915 46.861,13.8847 40.3525,13.8847 26.0339,17.7898 16.922,30.8068 8.678,50.7661 8.678,65.0847 9.9797,71.5932 18.2237,86.3458 40.3525,103.7017 60.3119,114.1153 74.6305,119.322 81.139,119.322 94.1559,112.8136 101.0983,107.1729 111.5119,94.5898 114.1153,87.6475 115.4169,80.7051 115.4169,54.6712 107.6068,35.1458 103.7017,28.6373 83.7424,12.5831 70.7254,8.678 57.7085,9.9797 55.9729,12.5831" stroke="#00007f" stroke-width="2" /><polyline fill="none" points="28.6373,19.0915 46.861,45.5593 52.0678,66.8203 53.3695,105.0034" stroke="#7cff79" stroke-width="2" /><polyline fill="none" points="75.9322,11.2814 73.3288,30.8068 73.3288,63.7831 75.9322,77.2339 81.139,90.2508 86.3458,96.7593 92.8542,100.6644" stroke="#7f0000" stroke-width="2" /></svg>