<?xml version="1.0" encoding="utf-8" ?>
<svg baseProfile="tiny" height="128" version="1.2" viewBox="0,0,128,128" width="128" xmlns="http://www.w3.org/2000/svg" xmlns:ev="http://www.w3.org/2001/xml-events" xmlns:xlink="http://www.w3.org/1999/xlink"><defs /><polyline fill="none" points="20.3932,8.678 15.1864,15.1864 11.7153,26.9017 8.678,85.0441 16.4881,101.9661 27.7695,112.8136 35.5797,117.5864 47.2949,119.322 67.6881,119.322 81.5729,109.7763 101.9661,86.7797 108.9085,75.4983 111.078,68.122 111.078,60.7458 105.8712,47.7288 95.8915,36.4475 83.3085,25.6 64.6508,14.7525 22.1288,13.0169" stroke="#00007f" stroke-width="2" /><polyline fill="none" points="69.8576,23.4305 47.2949,52.9356 47.2949,95.8915 49.8983,100.2305 58.1424,105.8712 73.7627,114.9831 78.1017,115.4169" stroke="#00d4ff" stroke-width="2" /><polyline fill="none" points="48.5966,43.3898 52.5017,43.3898 60.3119,48.5966" stroke="#ffe500" stroke-width="2" /><polyline fill="none" points="41.6542,55.1051 40.7864,58.5763 45.9932,63.3492" stroke="#7f0000" stroke-width="2" /></svg>