<?xml version="1.0" encoding="utf-8" ?>
<svg baseProfile="tiny" height="128" version="1.2" viewBox="0,0,128,128" width="128" xmlns="http://www.w3.org/2000/svg" xmlns:ev="http://www.w3.org/2001/xml-events" xmlns:xlink="http://www.w3.org/1999/xlink"><defs /><polyline fill="none" points="104.1356,14.7525 100.6644,11.2814 86.3458,11.7153 55.9729,20.3932 46.4271,25.1661 29.5051,36.4475 22.5627,43.3898 12.5831,58.5763 9.1119,73.3288 8.678,87.6475 10.8475,95.0237 13.8847,100.6644 22.5627,110.6441 30.8068,115.8508 43.3898,119.322 54.6712,119.322 77.6678,111.5119 90.2508,105.0034 101.5322,96.3254 106.3051,89.3831 110.2102,79.8373 114.9831,52.5017 114.9831,38.6169 110.2102,25.1661 104.5695,18.2237 102.4,17.7898" stroke="#00007f" stroke-width="2" /><polyline fill="none" points="95.4576,8.678 89.3831,15.6203 58.5763,33.4102 43.3898,45.9932 36.4475,54.2373 34.278,59.0102 30.3729,75.4983 29.0712,87.6475 30.3729,92.8542 38.1831,95.0237 45.9932,95.4576 52.0678,93.722 63.7831,86.3458 68.122,82.8746 93.722,52.0678 104.1356,36.4475 109.3424,32.1085 114.1153,29.939" stroke="#7f0000" stroke-width="2" /></svg>