<?xml version="1.0" encoding="utf-8" ?>
<svg baseProfile="tiny" height="128" version="1.2" viewBox="0,0,128,128" width="128" xmlns="http://www.w3.org/2000/svg" xmlns:ev="http://www.w3.org/2001/xml-events" xmlns:xlink="http://www.w3.org/1999/xlink"><defs /><polyline fill="none" points="42.522,11.2814 25.6,11.7153 19.9593,14.3186 16.0542,19.0915 11.7153,27.3356 10.4136,34.278 10.4136,49.4644 12.5831,58.5763 24.2983,82.8746 32.9763,95.4576 46.861,110.6441 61.1797,118.0203 73.7627,119.322 85.478,118.4542 98.9288,112.3797 103.2678,107.6068 104.5695,102.4 101.5322,71.5932 97.1932,58.5763 91.5525,47.7288 82.0068,34.7119 61.6136,14.7525 57.7085,12.1492 46.4271,8.678 37.3153,8.678 25.6,11.7153 19.5254,15.6203" stroke="#00007f" stroke-width="2" /><polyline fill="none" points="8.678,28.2034 11.2814,36.8814 18.6576,45.5593 33.8441,51.6339 52.5017,52.5017 59.0102,49.4644 74.1966,39.0508 77.6678,36.0136 81.5729,27.3356" stroke="#7cff79" stroke-width="2" /><polyline fill="none" points="36.0136,97.6271 39.0508,88.5153 47.7288,77.2339 55.1051,71.5932 66.3864,70.7254 76.3661,70.7254 101.0983,79.4034 116.2847,89.8169 117.5864,91.9864 114.5492,92.4203" stroke="#7f0000" stroke-width="2" /></svg>