<?xml version="1.0" encoding="utf-8" ?>
<svg baseProfile="tiny" height="128" version="1.2" viewBox="0,0,128,128" width="128" xmlns="http://www.w3.org/2000/svg" xmlns:ev="http://www.w3.org/2001/xml-events" xmlns:xlink="http://www.w3.org/1999/xlink"><defs /><polyline fill="none" points="33.4102,17.3559 29.0712,19.0915 13.4508,39.9186 10.4136,49.8983 8.678,62.9153 9.1119,79.4034 13.0169,90.6847 29.5051,112.8136 46.861,117.5864 82.8746,119.322 90.2508,112.8136 98.9288,107.1729 100.6644,104.1356 104.5695,88.5153 107.1729,67.6881 107.6068,47.7288 104.5695,27.3356 91.5525,12.5831 86.7797,9.9797 64.6508,8.678 36.0136,14.7525 31.2407,19.5254 37.3153,53.3695 38.6169,82.0068 34.7119,93.2881 25.6,106.739" stroke="#00007f" stroke-width="2" /><polyline fill="none" points="91.5525,12.1492 88.0814,21.261 83.7424,26.9017 78.5356,64.2169 78.5356,84.1763 86.3458,102.4" stroke="#7f0000" stroke-width="2" /></svg>