<?xml version="1.0" encoding="utf-8" ?>
<svg baseProfile="tiny" height="128" version="1.2" viewBox="0,0,128,128" width="128" xmlns="http://www.w3.org/2000/svg" xmlns:ev="http://www.w3.org/2001/xml-events" xmlns:xlink="http://www.w3.org/1999/xlink"><defs /><polyline fill="none" points="39.4847,21.261 33.8441,22.1288 29.5051,26.4678 16.922,41.2203 9.9797,53.8034 8.678,60.3119 8.678,78.1017 9.9797,85.9119 15.6203,95.0237 20.8271,100.2305 34.278,108.9085 52.5017,112.8136 76.8,112.8136 91.1186,106.739 102.4,98.061 112.8136,83.7424 119.322,64.6508 119.322,45.5593 111.9458,30.8068 100.6644,19.5254 86.7797,12.1492 66.3864,8.678 55.1051,8.678 49.8983,10.8475" stroke="#00007f" stroke-width="2" /><polyline fill="none" points="38.1831,11.7153 48.5966,44.6915 48.5966,66.3864 39.4847,83.3085 22.5627,102.4" stroke="#7cff79" stroke-width="2" /><polyline fill="none" points="93.722,22.1288 86.7797,44.6915 84.6102,68.5559 84.6102,88.5153 87.6475,101.5322 90.6847,105.4373" stroke="#7f0000" stroke-width="2" /></svg>