<?xml version="1.0" encoding="utf-8" ?>
<svg baseProfile="tiny" height="128" version="1.2" viewBox="0,0,128,128" width="128" xmlns="http://www.w3.org/2000/svg" xmlns:ev="http://www.w3.org/2001/xml-events" xmlns:xlink="http://www.w3.org/1999/xlink"><defs /><polyline fill="none" points="65.5186,11.7153 54.2373,8.678 45.9932,9.1119 36.0136,13.0169 27.7695,19.9593 14.7525,42.0881 10.4136,68.5559 10.4136,82.8746 15.6203,93.722 26.4678,107.1729 39.0508,114.1153 52.5017,118.0203 59.4441,119.322 70.7254,118.8881 82.0068,111.5119 90.2508,100.2305 101.0983,73.3288 102.4,66.3864 102.4,49.0305 92.4203,35.1458 78.1017,22.9966 71.5932,19.0915 52.0678,12.1492 46.4271,12.1492 39.4847,18.6576 31.2407,27.7695 16.922,50.3322 9.1119,73.7627 8.678,84.6102 13.0169,98.061" stroke="#00007f" stroke-width="2" /><polyline fill="none" points="77.6678,34.7119 72.8949,38.6169 63.3492,50.7661 53.8034,66.8203 46.861,82.8746 44.2576,95.8915 44.2576,109.3424 44.6915,111.5119 48.1627,113.6814 50.3322,113.6814 51.6339,111.5119 56.8407,91.5525 66.8203,65.9525 78.1017,48.5966 88.0814,38.6169" stroke="#7cff79" stroke-width="2" /><polyline fill="none" points="34.278,34.7119 36.8814,36.4475 52.9356,54.2373 81.5729,75.9322 82.4407,78.1017 80.7051,78.1017" stroke="#7f0000" stroke-width="2" /></svg>