<?xml version="1.0" encoding="utf-8" ?>
<svg baseProfile="tiny" height="128" version="1.2" viewBox="0,0,128,128" width="128" xmlns="http://www.w3.org/2000/svg" xmlns:ev="http://www.w3.org/2001/xml-events" xmlns:xlink="http://www.w3.org/1999/xlink"><defs /><polyline fill="none" points="62.9153,101.9661 52.0678,103.2678 46.861,101.9661 26.9017,90.6847 17.7898,80.2712 9.9797,67.6881 8.678,60.3119 9.1119,44.2576 19.0915,26.0339 26.9017,19.9593 41.2203,12.1492 57.2746,8.678 72.8949,9.1119 84.6102,12.1492 102.4,22.5627 107.6068,27.3356 118.0203,46.861 119.322,55.9729 119.322,74.6305 114.5492,87.6475 108.9085,95.4576 102.8339,99.7966 95.0237,103.2678 63.7831,105.0034" stroke="#00007f" stroke-width="2" /><polyline fill="none" points="100.2305,19.5254 89.8169,31.6746 83.7424,41.6542 75.9322,62.0475 75.4983,82.8746 85.478,101.9661" stroke="#00d4ff" stroke-width="2" /><polyline fill="none" points="25.6,19.9593 38.1831,46.861 39.9186,54.2373 40.7864,75.0644 36.8814,87.6475" stroke="#ffe500" stroke-width="2" /><polyline fill="none" points="56.8407,49.8983 63.7831,53.3695 68.122,52.9356 68.9898,51.2" stroke="#7f0000" stroke-width="2" /></svg>