<?xml version="1.0" encoding="utf-8" ?>
<svg baseProfile="tiny" height="128" version="1.2" viewBox="0,0,128,128" width="128" xmlns="http://www.w3.org/2000/svg" xmlns:ev="http://www.w3.org/2001/xml-events" xmlns:xlink="http://www.w3.org/1999/xlink"><defs /><polyline fill="none" points="76.6259,8.7075 30.4762,17.8503 24.381,23.5102 16.9796,32.2177 12.1905,43.102 8.7075,64.4354 9.5782,77.4966 18.7211,108.4082 20.898,112.3265 26.9932,116.6803 38.3129,119.2925 97.0884,119.2925 108.8435,111.0204 114.5034,104.4898 116.6803,99.7007 118.4218,84.0272 115.8095,65.3061 112.3265,55.2925 107.102,48.7619 104.0544,35.7007 93.1701,16.9796 85.7687,12.1905 73.1429,9.5782" stroke="#00007f" stroke-width="2" /><polyline fill="none" points="64.8707,9.1429 67.0476,24.381 67.0476,37.4422 62.6939,55.2925 55.7279,76.1905 50.9388,87.0748 44.8435,96.6531 33.9592,104.4898 21.7687,109.7143" stroke="#7f0000" stroke-width="2" /></svg>