<?xml version="1.0" encoding="utf-8" ?>
<svg baseProfile="tiny" height="128" version="1.2" viewBox="0,0,128,128" width="128" xmlns="http://www.w3.org/2000/svg" xmlns:ev="http://www.w3.org/2001/xml-events" xmlns:xlink="http://www.w3.org/1999/xlink"><defs /><polyline fill="none" points="82.8746,14.3186 64.6508,13.0169 45.1254,16.0542 34.278,20.8271 24.2983,28.2034 19.9593,31.6746 11.2814,44.2576 8.678,62.9153 10.8475,69.4237 19.0915,80.7051 28.2034,88.5153 45.5593,97.6271 59.0102,101.0983 75.9322,103.2678 87.2136,103.2678 98.9288,98.9288 109.3424,92.8542 113.6814,85.9119 118.4542,73.3288 119.322,60.3119 116.2847,53.3695 95.8915,26.0339 85.0441,12.1492 80.7051,8.678" stroke="#00007f" stroke-width="2" /><polyline fill="none" points="93.722,24.7322 91.9864,45.9932 91.9864,95.8915 90.2508,105.8712" stroke="#7cff79" stroke-width="2" /><polyline fill="none" points="40.7864,19.0915 40.3525,58.1424 41.6542,79.8373 44.2576,95.4576" stroke="#7f0000" stroke-width="2" /></svg>