<?xml version="1.0" encoding="utf-8" ?>
<svg baseProfile="tiny" height="128" version="1.2" viewBox="0,0,128,128" width="128" xmlns="http://www.w3.org/2000/svg" xmlns:ev="http://www.w3.org/2001/xml-events" xmlns:xlink="http://www.w3.org/1999/xlink"><defs /><polyline fill="none" points="110.585,53.551 107.102,60.517 99.2653,63.5646 86.2041,64.0 65.3061,59.6463 60.0816,57.034 52.6803,51.3741 48.3265,40.4898 47.4558,26.9932 51.3741,19.1565 64.4354,12.6259 75.7551,10.449 101.0068,8.7075 110.585,9.5782 116.2449,12.1905 119.2925,20.4626 118.8571,27.4286 116.6803,36.1361 103.1837,66.6122 100.5714,69.6599 97.5238,70.0952" stroke="#00007f" stroke-width="2" /><polyline fill="none" points="16.9796,80.9796 16.5442,87.5102 10.449,89.2517 8.7075,91.4286 9.5782,95.3469 14.8027,97.5238 19.1565,97.0884 20.4626,96.2177 23.5102,87.9456 25.2517,40.9252 24.8163,24.8163 23.9456,23.0748 20.0272,22.2041 15.6735,23.5102 13.0612,28.2993 9.5782,44.8435 9.5782,63.1293 14.3673,81.415 15.2381,84.0272 18.2857,85.3333" stroke="#0010ff" stroke-width="2" /><polyline fill="none" points="13.4966,50.068 22.2041,47.8912 29.6054,47.8912" stroke="#00a4ff" stroke-width="2" /><polyline fill="none" points="30.4762,34.8299 15.6735,41.3605" stroke="#3fffb7" stroke-width="2" /><polyline fill="none" points="58.3401,13.0612 64.4354,32.6531 72.2721,44.4082 76.6259,47.8912 83.5918,59.6463 84.4626,62.6939" stroke="#b7ff3f" stroke-width="2" /><polyline fill="none" points="114.9388,10.8844 112.3265,17.415 95.7823,45.2789 85.3333,69.6599" stroke="#ffb900" stroke-width="2" /><polyline fill="none" points="58.7755,25.2517 67.483,25.2517" stroke="#ff3000" stroke-width="2" /><polyline fill="none" points="73.5782,32.2177 73.5782,32.2177" stroke="#7f0000" stroke-width="2" /></svg>