<?xml version="1.0" encoding="utf-8" ?>
<svg baseProfile="tiny" height="128" version="1.2" viewBox="0,0,128,128" width="128" xmlns="http://www.w3.org/2000/svg" xmlns:ev="http://www.w3.org/2001/xml-events" xmlns:xlink="http://www.w3.org/1999/xlink"><defs /><polyline fill="none" points="80.7051,25.1661 75.4983,17.3559 68.122,13.4508 57.2746,11.2814 46.4271,11.2814 39.9186,13.0169 28.2034,19.5254 22.9966,23.8644 14.3186,36.8814 9.1119,60.7458 8.678,89.8169 11.2814,98.4949 15.1864,105.8712 20.8271,111.9458 27.7695,116.2847 36.4475,118.4542 45.1254,119.322 53.8034,118.8881 61.6136,116.2847 73.3288,108.9085 79.8373,98.9288 88.5153,72.0271 90.2508,59.0102 90.6847,42.0881 88.5153,33.8441 85.0441,28.6373 77.2339,23.4305 72.0271,21.261" stroke="#00007f" stroke-width="2" /><polyline fill="none" points="28.2034,17.7898 29.0712,21.6949 37.3153,29.939 38.6169,34.7119 37.3153,39.0508 29.939,47.7288 29.0712,52.0678 29.0712,53.8034 36.4475,59.878 37.3153,64.2169 29.0712,80.2712 30.3729,83.3085 36.0136,86.3458 37.3153,89.3831 36.0136,93.722 28.6373,103.7017 28.2034,108.0407 31.2407,112.8136" stroke="#7cff79" stroke-width="2" /><polyline fill="none" points="68.122,8.678 62.9153,9.9797 60.3119,12.1492 55.1051,22.1288 55.539,27.7695 64.6508,33.4102 68.9898,37.7492 67.2542,45.5593 57.2746,59.878 55.9729,67.6881 56.8407,71.5932 65.0847,82.4407 66.8203,102.8339 74.1966,115.4169" stroke="#7f0000" stroke-width="2" /></svg>