<?xml version="1.0" encoding="utf-8" ?>
<svg baseProfile="tiny" height="128" version="1.2" viewBox="0,0,128,128" width="128" xmlns="http://www.w3.org/2000/svg" xmlns:ev="http://www.w3.org/2001/xml-events" xmlns:xlink="http://www.w3.org/1999/xlink"><defs /><polyline fill="none" points="76.3661,14.7525 61.6136,10.8475 46.861,10.8475 38.6169,14.3186 30.3729,20.8271 16.922,41.6542 12.1492,55.1051 8.678,80.7051 9.5458,92.4203 14.3186,102.4 20.3932,110.2102 27.7695,115.8508 36.0136,118.4542 45.5593,119.322 55.1051,118.4542 63.7831,114.1153 71.1593,108.0407 79.8373,94.1559 81.5729,85.0441 82.4407,49.8983 79.8373,27.7695" stroke="#00007f" stroke-width="2" /><polyline fill="none" points="60.7458,10.4136 52.0678,55.1051 51.6339,73.7627 60.3119,94.1559 66.8203,101.9661 71.1593,105.0034 75.9322,106.3051 83.3085,105.0034" stroke="#7cff79" stroke-width="2" /><polyline fill="none" points="38.1831,8.678 44.2576,39.0508 45.9932,82.8746 43.8237,91.5525 40.3525,97.1932 35.5797,100.2305 23.8644,104.5695 18.6576,108.4746" stroke="#7f0000" stroke-width="2" /></svg>