<?xml version="1.0" encoding="utf-8" ?>
<svg baseProfile="tiny" height="128" version="1.2" viewBox="0,0,128,128" width="128" xmlns="http://www.w3.org/2000/svg" xmlns:ev="http://www.w3.org/2001/xml-events" xmlns:xlink="http://www.w3.org/1999/xlink"><defs /><polyline fill="none" points="71.4014,12.6259 63.5646,9.1429 44.8435,8.7075 26.5578,18.2857 17.415,26.1224 10.8844,41.3605 8.7075,60.9524 10.8844,80.9796 15.6735,90.9932 23.0748,97.5238 39.1837,104.0544 58.3401,106.6667 77.932,106.2313 101.0068,101.8776 110.585,96.6531 114.9388,92.2993 119.2925,77.0612 119.2925,54.8571 111.4558,40.0544 106.2313,36.5714 94.4762,31.7823 83.5918,22.6395 70.5306,19.5918" stroke="#00007f" stroke-width="2" /><polyline fill="none" points="41.7959,16.5442 46.585,34.3946 55.7279,55.7279 60.517,76.1905 60.0816,89.2517 44.4082,108.4082" stroke="#7cff79" stroke-width="2" /><polyline fill="none" points="80.5442,24.8163 76.1905,58.3401 76.1905,76.1905 81.415,92.2993 84.898,94.9116 92.7347,97.9592" stroke="#7f0000" stroke-width="2" /></svg>