<?xml version="1.0" encoding="utf-8" ?>
<svg baseProfile="tiny" height="128" version="1.2" viewBox="0,0,128,128" width="128" xmlns="http://www.w3.org/2000/svg" xmlns:ev="http://www.w3.org/2001/xml-events" xmlns:xlink="http://www.w3.org/1999/xlink"><defs /><polyline fill="none" points="9.9797,106.3051 8.678,39.9186 11.2814,28.2034 14.3186,22.5627 26.4678,15.6203 51.6339,8.678 63.3492,8.678 85.478,15.6203 105.4373,29.939 114.5492,43.8237 119.322,61.1797 112.3797,86.7797 108.9085,92.4203 97.1932,102.8339 82.4407,111.078 63.7831,110.2102 32.9763,100.6644 13.4508,101.9661 12.1492,88.9492" stroke="#00007f" stroke-width="2" /><polyline fill="none" points="32.1085,29.5051 37.7492,30.8068 49.4644,36.8814 52.9356,42.0881 25.1661,57.7085 36.4475,52.9356 30.8068,51.6339 25.1661,52.9356 21.6949,47.2949 32.1085,30.8068 41.2203,42.522 48.1627,45.9932 100.6644,47.2949 105.4373,41.2203 70.2915,28.6373 64.6508,29.5051 58.5763,33.4102 55.1051,39.0508 44.6915,68.122 53.3695,66.8203 78.5356,51.6339 105.0034,39.0508 98.061,35.5797 66.8203,35.5797 51.6339,39.0508 28.2034,47.2949 22.9966,50.3322 21.6949,56.4068 83.3085,78.5356 94.5898,79.8373 77.2339,64.6508 61.1797,56.4068 56.4068,50.3322 57.7085,43.8237" stroke="#7f0000" stroke-width="2" /></svg>