<?xml version="1.0" encoding="utf-8" ?>
<svg baseProfile="tiny" height="128" version="1.2" viewBox="0,0,128,128" width="128" xmlns="http://www.w3.org/2000/svg" xmlns:ev="http://www.w3.org/2001/xml-events" xmlns:xlink="http://www.w3.org/1999/xlink"><defs /><polyline fill="none" points="83.3085,8.678 68.9898,8.678 51.2,11.2814 39.9186,14.3186 29.5051,18.6576 24.2983,26.9017 17.3559,43.3898 17.3559,69.4237 21.261,79.4034 39.9186,103.7017 46.4271,110.6441 52.9356,113.2475 81.5729,113.2475 91.5525,110.2102 95.8915,105.4373 102.8339,101.0983 114.1153,89.3831 119.322,73.7627 119.322,32.9763 111.9458,21.261 103.7017,16.0542 98.061,14.3186 80.2712,13.4508" stroke="#00007f" stroke-width="2" /><polyline fill="none" points="47.2949,13.8847 49.4644,42.9559 36.8814,72.8949 27.3356,85.478 20.3932,89.8169 9.9797,95.0237 8.678,96.7593 10.4136,97.1932 20.8271,91.1186 39.4847,85.9119" stroke="#7cff79" stroke-width="2" /><polyline fill="none" points="82.4407,12.5831 78.1017,28.6373 78.1017,52.9356 79.8373,59.4441 83.7424,67.2542 90.2508,75.0644 97.1932,80.7051 106.739,85.9119" stroke="#7f0000" stroke-width="2" /></svg>