<?xml version="1.0" encoding="utf-8" ?>
<svg baseProfile="tiny" height="128" version="1.2" viewBox="0,0,128,128" width="128" xmlns="http://www.w3.org/2000/svg" xmlns:ev="http://www.w3.org/2001/xml-events" xmlns:xlink="http://www.w3.org/1999/xlink"><defs /><polyline fill="none" points="43.8237,71.1593 26.9017,70.7254 20.3932,67.2542 11.2814,56.4068 9.1119,49.4644 8.678,41.6542 14.3186,29.5051 23.8644,21.6949 36.0136,19.9593 46.861,21.6949 57.2746,26.0339 62.4814,30.8068 68.122,39.9186 67.6881,47.2949 65.5186,53.3695 57.7085,62.9153 49.0305,66.8203 39.0508,68.9898 34.278,68.9898" stroke="#00007f" stroke-width="2" /><polyline fill="none" points="10.8475,40.7864 15.1864,46.4271 27.3356,51.2 44.6915,53.3695 56.4068,51.6339 69.8576,43.3898" stroke="#0000d5" stroke-width="2" /><polyline fill="none" points="13.4508,57.2746 19.9593,42.9559" stroke="#001cff" stroke-width="2" /><polyline fill="none" points="26.9017,56.8407 32.9763,42.0881" stroke="#006cff" stroke-width="2" /><polyline fill="none" points="37.7492,56.8407 42.0881,47.2949" stroke="#00b8ff" stroke-width="2" /><polyline fill="none" points="49.0305,58.5763 52.0678,40.7864" stroke="#1cffda" stroke-width="2" /><polyline fill="none" points="59.4441,52.9356 60.7458,32.9763" stroke="#5cff9a" stroke-width="2" /><polyline fill="none" points="68.9898,22.5627 78.9695,32.1085 81.5729,26.9017 89.3831,26.4678 89.8169,28.2034 86.7797,32.1085 81.5729,33.8441" stroke="#9aff5c" stroke-width="2" /><polyline fill="none" points="91.9864,24.7322 91.1186,27.3356 95.0237,28.6373 99.7966,26.9017 100.6644,22.9966 105.8712,24.7322" stroke="#daff1c" stroke-width="2" /><polyline fill="none" points="106.3051,14.7525 103.7017,19.9593 114.1153,19.5254 109.3424,23.4305" stroke="#ffcb00" stroke-width="2" /><polyline fill="none" points="113.2475,14.3186 117.1525,8.678 112.8136,11.2814 111.9458,15.1864 114.1153,16.4881 119.322,16.0542" stroke="#ff8500" stroke-width="2" /><polyline fill="none" points="76.8,51.2 82.0068,60.7458 83.3085,55.539 87.6475,54.6712 90.2508,55.9729 90.6847,58.5763 85.0441,62.4814" stroke="#ff3b00" stroke-width="2" /><polyline fill="none" points="97.1932,45.9932 93.2881,50.7661 94.5898,55.1051 97.6271,55.539 98.9288,50.7661 102.4,53.3695 104.1356,51.2 104.5695,42.522 101.0983,36.0136 105.4373,45.1254 108.9085,46.861 110.2102,40.7864 107.1729,33.4102 109.7763,43.3898 114.1153,44.6915 115.4169,42.9559" stroke="#d50000" stroke-width="2" /><polyline fill="none" points="71.5932,64.2169 74.1966,62.9153" stroke="#7f0000" stroke-width="2" /></svg>