<?xml version="1.0" encoding="utf-8" ?>
<svg baseProfile="tiny" height="128" version="1.2" viewBox="0,0,128,128" width="128" xmlns="http://www.w3.org/2000/svg" xmlns:ev="http://www.w3.org/2001/xml-events" xmlns:xlink="http://www.w3.org/1999/xlink"><defs /><polyline fill="none" points="57.2746,8.678 39.0508,14.7525 27.3356,20.8271 18.2237,27.7695 9.1119,45.5593 8.678,66.3864 10.8475,72.461 17.7898,84.6102 25.1661,91.9864 42.522,100.6644 62.4814,107.1729 86.3458,112.3797 99.7966,113.2475 105.0034,109.7763 112.3797,96.7593 119.322,71.1593 119.322,52.5017 115.8508,43.3898 105.0034,28.6373 87.2136,14.3186 83.3085,12.5831 53.3695,12.5831" stroke="#00007f" stroke-width="2" /><polyline fill="none" points="36.8814,12.5831 42.522,19.5254 46.4271,26.4678 52.9356,44.6915 58.1424,73.7627 58.1424,92.4203 56.4068,97.1932" stroke="#7cff79" stroke-width="2" /><polyline fill="none" points="85.9119,15.1864 84.1763,21.261 81.139,41.6542 81.139,67.2542 82.8746,75.4983 86.3458,82.8746 100.6644,107.6068" stroke="#7f0000" stroke-width="2" /></svg>