<?xml version="1.0" encoding="utf-8" ?>
<svg baseProfile="tiny" height="128" version="1.2" viewBox="0,0,128,128" width="128" xmlns="http://www.w3.org/2000/svg" xmlns:ev="http://www.w3.org/2001/xml-events" xmlns:xlink="http://www.w3.org/1999/xlink"><defs /><polyline fill="none" points="60.3119,9.1119 55.539,8.678 44.2576,13.0169 30.3729,22.5627 20.8271,32.5424 13.8847,43.8237 9.9797,54.6712 8.678,63.7831 9.1119,78.1017 14.3186,89.8169 19.9593,97.6271 34.7119,110.6441 49.8983,116.2847 77.2339,118.0203 82.4407,117.5864 96.7593,111.5119 103.2678,106.3051 109.3424,97.6271 115.8508,79.8373 118.0203,66.8203 119.322,56.4068 118.8881,39.4847 114.9831,31.6746 107.1729,21.261 98.4949,15.1864 84.6102,10.4136 77.6678,9.1119 51.2,9.5458" stroke="#00007f" stroke-width="2" /><polyline fill="none" points="83.3085,16.0542 80.7051,30.3729 82.4407,55.1051 88.0814,82.8746 92.4203,91.5525 98.061,97.1932 96.7593,98.4949" stroke="#0010ff" stroke-width="2" /><polyline fill="none" points="31.2407,25.6 34.278,27.7695 42.0881,40.7864 47.2949,60.7458 49.0305,86.3458 46.4271,101.0983 42.9559,108.0407" stroke="#00a4ff" stroke-width="2" /><polyline fill="none" points="41.2203,105.4373 49.4644,105.4373 50.7661,104.1356" stroke="#3fffb7" stroke-width="2" /><polyline fill="none" points="37.3153,87.6475 47.2949,88.0814 50.7661,83.7424" stroke="#b7ff3f" stroke-width="2" /><polyline fill="none" points="36.4475,66.8203 44.6915,65.9525 47.7288,63.7831 49.8983,58.5763" stroke="#ffb900" stroke-width="2" /><polyline fill="none" points="31.6746,47.7288 34.278,45.9932 35.1458,42.522" stroke="#ff3000" stroke-width="2" /><polyline fill="none" points="31.2407,36.4475 36.4475,36.4475" stroke="#7f0000" stroke-width="2" /></svg>