<?xml version="1.0" encoding="utf-8" ?>
<svg baseProfile="tiny" height="128" version="1.2" viewBox="0,0,128,128" width="128" xmlns="http://www.w3.org/2000/svg" xmlns:ev="http://www.w3.org/2001/xml-events" xmlns:xlink="http://www.w3.org/1999/xlink"><defs /><polyline fill="none" points="13.0169,46.861 14.3186,49.8983 13.8847,91.1186 19.5254,103.2678 29.0712,109.7763 52.9356,110.2102 75.9322,106.739 83.7424,101.9661 91.1186,94.1559 108.4746,66.8203 111.078,55.1051 111.5119,42.9559 108.0407,29.5051 97.6271,16.0542 92.8542,13.0169 86.3458,10.4136 74.1966,8.678 55.1051,9.1119 27.7695,16.922 17.3559,22.1288 9.1119,35.1458 8.678,57.7085" stroke="#00007f" stroke-width="2" /><polyline fill="none" points="32.5424,18.6576 58.1424,42.522 61.1797,40.7864 81.5729,16.4881 87.6475,13.4508 85.9119,16.922 70.2915,36.4475 45.9932,55.9729 44.2576,59.0102 39.0508,75.9322 32.9763,84.1763 32.5424,87.2136 32.5424,93.722 36.4475,108.4746 36.4475,119.322 39.9186,107.6068 69.8576,80.2712 89.8169,59.0102 89.3831,62.9153 80.2712,80.2712" stroke="#7f0000" stroke-width="2" /></svg>