<?xml version="1.0" encoding="utf-8" ?>
<svg baseProfile="tiny" height="128" version="1.2" viewBox="0,0,128,128" width="128" xmlns="http://www.w3.org/2000/svg" xmlns:ev="http://www.w3.org/2001/xml-events" xmlns:xlink="http://www.w3.org/1999/xlink"><defs /><polyline fill="none" points="21.261,33.8441 25.6,22.9966 32.5424,14.3186 42.0881,9.5458 49.8983,8.678 58.5763,8.678 73.3288,13.0169 88.5153,23.8644 95.4576,31.6746 100.6644,42.9559 108.4746,68.5559 108.9085,86.7797 104.1356,99.3627 97.6271,107.6068 86.7797,115.4169 78.1017,118.8881 61.1797,119.322 47.2949,114.9831 28.2034,100.2305 19.0915,90.2508 10.4136,76.3661 8.678,68.5559 8.678,51.6339 15.1864,41.2203 43.3898,19.0915" stroke="#00007f" stroke-width="2" /><polyline fill="none" points="37.7492,22.9966 45.9932,26.0339 49.4644,32.1085 46.4271,44.6915 40.7864,54.6712 40.7864,61.1797 45.1254,67.2542 48.1627,69.8576 58.1424,72.8949 71.5932,72.8949 83.3085,66.3864 86.3458,63.3492 89.3831,56.4068 88.9492,44.6915 81.139,25.6 81.139,19.5254 82.4407,19.0915" stroke="#7cff79" stroke-width="2" /><polyline fill="none" points="39.0508,104.5695 42.0881,103.2678 42.9559,99.7966 42.9559,87.2136 44.2576,84.1763 47.2949,82.8746 71.1593,82.8746 78.1017,86.7797 80.7051,89.3831 81.139,92.4203 80.2712,97.1932 69.8576,112.3797 69.8576,115.4169 74.1966,118.8881" stroke="#7f0000" stroke-width="2" /></svg>