<?xml version="1.0" encoding="utf-8" ?>
<svg baseProfile="tiny" height="128" version="1.2" viewBox="0,0,128,128" width="128" xmlns="http://www.w3.org/2000/svg" xmlns:ev="http://www.w3.org/2001/xml-events" xmlns:xlink="http://www.w3.org/1999/xlink"><defs /><polyline fill="none" points="67.6881,14.3186 59.4441,10.4136 45.1254,11.2814 29.939,16.922 18.2237,26.0339 11.7153,36.0136 8.678,49.4644 12.1492,64.2169 19.9593,74.6305 31.6746,83.3085 48.5966,89.8169 60.3119,91.5525 79.4034,90.2508 92.8542,87.2136 107.6068,80.2712 114.9831,72.8949 119.322,61.1797 118.8881,52.0678 116.2847,43.3898 111.9458,34.278 104.5695,25.6 86.3458,13.4508 75.0644,9.5458 68.122,8.678" stroke="#00007f" stroke-width="2" /><polyline fill="none" points="65.9525,11.7153 57.2746,16.0542 45.5593,25.6 39.4847,33.8441 35.1458,43.8237 32.9763,55.539 34.278,67.6881 37.3153,80.7051 42.522,88.5153" stroke="#7cff79" stroke-width="2" /><polyline fill="none" points="102.8339,18.2237 98.9288,18.2237 93.2881,21.261 84.6102,28.6373 77.2339,37.7492 69.4237,52.5017 67.2542,61.1797 66.3864,72.461 68.122,81.5729 72.461,89.8169" stroke="#7f0000" stroke-width="2" /></svg>