<?xml version="1.0" encoding="utf-8" ?>
<svg baseProfile="tiny" height="128" version="1.2" viewBox="0,0,128,128" width="128" xmlns="http://www.w3.org/2000/svg" xmlns:ev="http://www.w3.org/2001/xml-events" xmlns:xlink="http://www.w3.org/1999/xlink"><defs /><polyline fill="none" points="107.9728,33.5238 97.9592,20.0272 89.2517,13.0612 79.2381,9.1429 72.2721,8.7075 56.1633,13.0612 47.0204,17.8503 30.4762,30.0408 17.415,43.5374 12.6259,50.9388 9.5782,57.4694 8.7075,64.0 10.449,73.5782 28.7347,99.2653 39.1837,111.4558 45.7143,115.8095 54.4218,119.2925 73.5782,118.8571 91.8639,111.0204 99.7007,104.4898 111.8912,88.8163 118.4218,70.966 118.8571,62.2585 117.1156,46.585 114.5034,40.0544 108.4082,30.9116 97.5238,23.5102" stroke="#00007f" stroke-width="2" /><polyline fill="none" points="50.5034,15.2381 57.9048,45.2789 57.4694,56.5986 50.068,72.7075 42.6667,82.2857 32.6531,91.4286" stroke="#7cff79" stroke-width="2" /><polyline fill="none" points="89.6871,18.2857 87.0748,31.3469 83.5918,80.1088 87.5102,98.3946 89.6871,102.3129 94.0408,106.2313" stroke="#7f0000" stroke-width="2" /></svg>