<?xml version="1.0" encoding="utf-8" ?>
<svg baseProfile="tiny" height="128" version="1.2" viewBox="0,0,128,128" width="128" xmlns="http://www.w3.org/2000/svg" xmlns:ev="http://www.w3.org/2001/xml-events" xmlns:xlink="http://www.w3.org/1999/xlink"><defs /><polyline fill="none" points="21.261,103.7017 13.0169,83.7424 8.678,64.6508 11.7153,36.8814 13.4508,30.3729 17.7898,23.8644 32.5424,16.0542 44.2576,11.7153 61.6136,8.678 78.1017,8.678 91.9864,12.5831 105.0034,23.8644 113.2475,41.2203 117.1525,53.8034 118.4542,65.9525 117.1525,79.4034 113.2475,91.1186 109.7763,95.8915 91.9864,111.9458 83.3085,116.2847 78.1017,117.5864 55.1051,119.322 34.278,112.8136 27.3356,108.9085 19.9593,101.9661 13.8847,93.2881" stroke="#00007f" stroke-width="2" /><polyline fill="none" points="14.3186,87.6475 21.6949,74.1966 31.2407,50.3322 31.2407,36.4475 29.0712,19.0915" stroke="#7cff79" stroke-width="2" /><polyline fill="none" points="68.5559,108.9085 70.2915,89.3831 78.1017,55.539 85.9119,44.6915 89.3831,42.522 100.2305,40.3525" stroke="#7f0000" stroke-width="2" /></svg>