<?xml version="1.0" encoding="utf-8" ?>
<svg baseProfile="tiny" height="128" version="1.2" viewBox="0,0,128,128" width="128" xmlns="http://www.w3.org/2000/svg" xmlns:ev="http://www.w3.org/2001/xml-events" xmlns:xlink="http://www.w3.org/1999/xlink"><defs /><polyline fill="none" points="35.1458,51.6339 32.1085,51.2 16.922,58.5763 10.8475,63.7831 9.9797,66.3864 8.678,77.2339 9.9797,82.4407 17.7898,91.1186 27.3356,95.8915 46.861,94.5898 58.1424,82.4407 60.7458,74.6305 59.878,65.9525 53.3695,56.8407 45.5593,55.1051" stroke="#00007f" stroke-width="2" /><polyline fill="none" points="48.1627,60.3119 39.4847,73.3288 30.8068,82.4407 24.2983,92.8542 22.5627,106.3051" stroke="#00d4ff" stroke-width="2" /><polyline fill="none" points="32.5424,53.8034 25.6,62.0475 14.7525,80.7051 11.7153,90.6847" stroke="#ffe500" stroke-width="2" /><polyline fill="none" points="107.1729,35.1458 106.3051,22.9966 108.4746,17.3559 113.6814,8.678 119.322,8.678" stroke="#7f0000" stroke-width="2" /></svg>