<?xml version="1.0" encoding="utf-8" ?>
<svg baseProfile="tiny" height="128" version="1.2" viewBox="0,0,128,128" width="128" xmlns="http://www.w3.org/2000/svg" xmlns:ev="http://www.w3.org/2001/xml-events" xmlns:xlink="http://www.w3.org/1999/xlink"><defs /><polyline fill="none" points="66.8203,21.261 47.2949,10.8475 38.6169,8.678 29.5051,8.678 21.6949,13.4508 11.7153,26.0339 8.678,42.9559 9.5458,77.6678 13.8847,90.2508 20.3932,99.7966 26.4678,105.0034 36.0136,110.6441 54.6712,115.4169 81.139,115.8508 91.1186,112.3797 101.0983,105.8712 107.6068,97.1932 110.2102,88.9492 109.7763,70.7254 103.7017,54.6712 98.4949,32.5424 95.0237,26.4678 82.0068,16.4881 66.8203,11.2814 49.8983,11.2814 45.9932,12.1492" stroke="#00007f" stroke-width="2" /><polyline fill="none" points="37.3153,9.1119 49.4644,40.7864 51.2,47.2949 51.2,56.8407 47.7288,71.1593 42.9559,82.4407 33.4102,99.7966 30.3729,103.7017 32.5424,96.7593" stroke="#00d4ff" stroke-width="2" /><polyline fill="none" points="81.139,16.4881 70.7254,33.8441 67.2542,42.9559 63.7831,58.5763 63.7831,73.3288 68.5559,87.6475 76.8,102.4 91.1186,119.322" stroke="#ffe500" stroke-width="2" /><polyline fill="none" points="74.1966,108.9085 90.2508,101.9661 91.9864,99.7966" stroke="#7f0000" stroke-width="2" /></svg>