<?xml version="1.0" encoding="utf-8" ?>
<svg baseProfile="tiny" height="128" version="1.2" viewBox="0,0,128,128" width="128" xmlns="http://www.w3.org/2000/svg" xmlns:ev="http://www.w3.org/2001/xml-events" xmlns:xlink="http://www.w3.org/1999/xlink"><defs /><polyline fill="none" points="75.0644,8.678 84.6102,12.5831 89.8169,20.8271 99.7966,44.6915 102.4,54.6712 102.4,77.6678 89.3831,98.9288 75.9322,112.3797 64.2169,116.2847 50.3322,116.2847 41.6542,114.5492 26.4678,104.1356 20.3932,96.7593 11.7153,82.0068 9.5458,75.0644 8.678,52.5017 19.9593,26.0339 32.1085,13.4508 42.0881,9.5458 72.8949,10.4136 72.8949,22.5627 70.7254,39.4847 62.0475,77.6678 55.9729,115.4169 54.2373,119.322 52.9356,106.3051" stroke="#00007f" stroke-width="2" /><polyline fill="none" points="44.2576,22.5627 46.4271,19.0915 46.4271,36.8814 18.6576,118.4542" stroke="#7f0000" stroke-width="2" /></svg>