<?xml version="1.0" encoding="utf-8" ?>
<svg baseProfile="tiny" height="128" version="1.2" viewBox="0,0,128,128" width="128" xmlns="http://www.w3.org/2000/svg" xmlns:ev="http://www.w3.org/2001/xml-events" xmlns:xlink="http://www.w3.org/1999/xlink"><defs /><polyline fill="none" points="46.861,16.0542 34.278,16.4881 24.7322,21.261 20.8271,25.1661 12.1492,40.3525 8.678,50.3322 8.678,69.4237 14.3186,88.5153 20.8271,96.3254 30.3729,102.8339 33.4102,107.1729 37.3153,107.1729 41.2203,110.6441 45.9932,110.6441 55.9729,113.6814 77.6678,113.6814 87.2136,110.6441 96.7593,104.1356 101.0983,99.3627 112.8136,80.2712 116.2847,72.461 119.322,56.4068 119.322,42.0881 116.2847,38.1831 112.8136,29.0712 106.739,21.261 87.2136,12.5831 74.6305,8.678 42.9559,8.678 29.939,12.5831 25.6,15.6203 17.3559,28.6373 17.3559,30.8068" stroke="#00007f" stroke-width="2" /><polyline fill="none" points="33.4102,13.4508 42.9559,18.2237 56.4068,27.7695 62.0475,32.5424 65.9525,41.2203 71.5932,62.4814 72.461,78.5356 72.461,99.3627 68.5559,110.6441" stroke="#7cff79" stroke-width="2" /><polyline fill="none" points="59.0102,8.678 62.9153,9.5458 71.5932,15.1864 84.1763,36.0136 90.6847,52.9356 93.722,66.8203 93.722,95.4576" stroke="#7f0000" stroke-width="2" /></svg>