<?xml version="1.0" encoding="utf-8" ?>
<svg baseProfile="tiny" height="128" version="1.2" viewBox="0,0,128,128" width="128" xmlns="http://www.w3.org/2000/svg" xmlns:ev="http://www.w3.org/2001/xml-events" xmlns:xlink="http://www.w3.org/1999/xlink"><defs /><polyline fill="none" points="73.3288,13.4508 65.0847,9.5458 53.3695,8.678 42.0881,11.2814 30.3729,17.7898 19.0915,26.9017 12.5831,36.4475 9.1119,47.2949 8.678,57.7085 11.2814,63.3492 19.0915,74.6305 36.8814,88.0814 57.7085,96.3254 79.4034,97.1932 91.9864,92.8542 108.9085,80.2712 118.0203,65.9525 119.322,51.6339 115.8508,39.9186 103.7017,26.0339 85.9119,16.0542 70.2915,13.8847" stroke="#00007f" stroke-width="2" /><polyline fill="none" points="29.5051,19.0915 32.9763,19.5254 39.4847,26.9017 43.3898,36.4475 47.2949,50.7661 47.2949,63.3492 43.3898,74.1966 39.9186,79.8373" stroke="#0028ff" stroke-width="2" /><polyline fill="none" points="97.6271,24.2983 88.5153,38.1831 84.6102,56.4068 85.478,70.2915 87.6475,76.3661 92.8542,83.7424" stroke="#00d4ff" stroke-width="2" /><polyline fill="none" points="36.0136,36.8814 55.539,30.3729" stroke="#7cff79" stroke-width="2" /><polyline fill="none" points="36.0136,45.9932 51.6339,43.3898" stroke="#ffe500" stroke-width="2" /><polyline fill="none" points="39.9186,61.1797 53.8034,61.6136" stroke="#ff4600" stroke-width="2" /><polyline fill="none" points="84.1763,34.7119 94.1559,34.278" stroke="#7f0000" stroke-width="2" /></svg>