<?xml version="1.0" encoding="utf-8" ?>
<svg baseProfile="tiny" height="128" version="1.2" viewBox="0,0,128,128" width="128" xmlns="http://www.w3.org/2000/svg" xmlns:ev="http://www.w3.org/2001/xml-events" xmlns:xlink="http://www.w3.org/1999/xlink"><defs /><polyline fill="none" points="103.7017,93.722 90.2508,114.1153 83.7424,117.5864 75.9322,119.322 62.4814,118.8881 37.3153,112.3797 20.8271,104.5695 14.3186,98.4949 9.9797,85.478 8.678,74.6305 8.678,62.9153 12.5831,42.9559 20.8271,26.4678 27.7695,17.7898 33.8441,13.0169 48.5966,9.5458 66.8203,9.5458 79.4034,11.7153 95.4576,17.3559 105.8712,25.6 113.2475,39.9186 116.2847,58.1424 117.1525,72.8949 114.5492,80.2712 110.6441,85.9119 104.1356,91.5525 102.4,90.6847" stroke="#00007f" stroke-width="2" /><polyline fill="none" points="34.278,10.8475 38.1831,31.6746 37.7492,40.7864 31.2407,67.6881 20.8271,90.6847" stroke="#0080ff" stroke-width="2" /><polyline fill="none" points="20.8271,90.6847 17.7898,91.1186" stroke="#7cff79" stroke-width="2" /><polyline fill="none" points="46.4271,9.5458 50.7661,39.9186 50.3322,68.5559 48.1627,75.4983 42.9559,83.3085 29.939,95.0237" stroke="#ff9400" stroke-width="2" /><polyline fill="none" points="56.4068,8.678 57.7085,36.4475 55.1051,60.7458" stroke="#7f0000" stroke-width="2" /></svg>