<?xml version="1.0" encoding="utf-8" ?>
<svg baseProfile="tiny" height="128" version="1.2" viewBox="0,0,128,128" width="128" xmlns="http://www.w3.org/2000/svg" xmlns:ev="http://www.w3.org/2001/xml-events" xmlns:xlink="http://www.w3.org/1999/xlink"><defs /><polyline fill="none" points="39.9186,9.5458 70.2915,8.678 85.9119,15.6203 91.9864,19.5254 97.6271,29.0712 101.5322,55.539 103.7017,75.4983 103.7017,97.6271 101.5322,103.7017 82.8746,115.4169 78.1017,117.1525 64.6508,119.322 23.8644,119.322 18.6576,115.4169 9.5458,98.4949 8.678,70.2915 15.6203,28.2034 18.6576,23.4305 31.2407,16.4881" stroke="#00007f" stroke-width="2" /><polyline fill="none" points="85.0441,14.7525 80.2712,14.7525 75.0644,18.6576 73.3288,29.0712 66.3864,45.9932 64.6508,57.7085 64.6508,78.1017 68.5559,88.9492 76.3661,99.7966 87.2136,102.8339" stroke="#7cff79" stroke-width="2" /><polyline fill="none" points="19.5254,22.5627 33.8441,36.0136 36.8814,41.6542 36.8814,58.1424 34.278,100.6644 32.1085,108.4746 29.939,113.6814 24.2983,115.4169 18.6576,115.4169" stroke="#7f0000" stroke-width="2" /></svg>