<?xml version="1.0" encoding="utf-8" ?>
<svg baseProfile="tiny" height="128" version="1.2" viewBox="0,0,128,128" width="128" xmlns="http://www.w3.org/2000/svg" xmlns:ev="http://www.w3.org/2001/xml-events" xmlns:xlink="http://www.w3.org/1999/xlink"><defs /><polyline fill="none" points="22.5627,97.6271 8.678,68.122 8.678,42.522 9.9797,38.6169 21.261,26.9017 46.861,12.1492 58.1424,8.678 74.1966,9.5458 94.5898,19.9593 98.4949,22.5627 101.0983,26.9017 105.4373,35.1458 111.078,57.7085 111.078,69.8576 109.3424,75.0644 102.8339,85.9119 96.3254,92.4203 70.7254,113.6814 63.7831,118.0203 49.8983,119.322 40.7864,116.7186 32.9763,101.9661" stroke="#00007f" stroke-width="2" /><polyline fill="none" points="26.0339,31.6746 40.7864,52.5017 48.1627,76.8 48.1627,100.2305 43.3898,113.2475" stroke="#00d4ff" stroke-width="2" /><polyline fill="none" points="89.3831,15.6203 81.139,20.3932 77.6678,28.2034 76.3661,39.4847 76.3661,66.8203 79.8373,91.5525" stroke="#ffe500" stroke-width="2" /><polyline fill="none" points="79.8373,91.5525 80.2712,98.9288 81.5729,100.6644" stroke="#7f0000" stroke-width="2" /></svg>