<?xml version="1.0" encoding="utf-8" ?>
<svg baseProfile="tiny" height="128" version="1.2" viewBox="0,0,128,128" width="128" xmlns="http://www.w3.org/2000/svg" xmlns:ev="http://www.w3.org/2001/xml-events" xmlns:xlink="http://www.w3.org/1999/xlink"><defs /><polyline fill="none" points="48.5966,8.678 20.3932,21.261 15.1864,27.3356 10.4136,39.4847 8.678,63.7831 11.7153,80.2712 16.4881,95.0237 23.8644,106.3051 32.9763,113.2475 42.522,116.7186 60.3119,118.0203 74.6305,116.2847 85.478,111.078 101.0983,95.0237 112.3797,80.2712 117.1525,70.2915 119.322,49.0305 115.8508,38.6169 110.2102,32.1085 98.061,22.9966 83.3085,15.1864 73.7627,11.7153 56.8407,11.2814 47.7288,13.4508 42.9559,17.3559" stroke="#00007f" stroke-width="2" /><polyline fill="none" points="11.7153,33.8441 16.922,31.2407 33.4102,31.2407 57.7085,26.9017 87.6475,26.0339 98.9288,20.3932 106.739,19.9593" stroke="#00d4ff" stroke-width="2" /><polyline fill="none" points="17.7898,24.7322 26.4678,25.1661 50.7661,19.9593 82.4407,17.7898" stroke="#ffe500" stroke-width="2" /><polyline fill="none" points="22.1288,62.9153 28.6373,59.0102 46.4271,57.7085 67.6881,50.7661 98.9288,51.6339" stroke="#7f0000" stroke-width="2" /></svg>