<?xml version="1.0" encoding="utf-8" ?>
<svg baseProfile="tiny" height="128" version="1.2" viewBox="0,0,128,128" width="128" xmlns="http://www.w3.org/2000/svg" xmlns:ev="http://www.w3.org/2001/xml-events" xmlns:xlink="http://www.w3.org/1999/xlink"><defs /><polyline fill="none" points="105.4373,30.8068 97.6271,21.6949 88.0814,16.4881 72.461,11.2814 47.2949,8.678 36.8814,12.1492 26.4678,19.5254 18.2237,30.3729 11.7153,43.8237 8.678,58.1424 8.678,68.9898 12.5831,81.139 22.1288,95.0237 31.2407,102.4 44.2576,109.7763 53.3695,111.9458 67.6881,112.8136 74.6305,111.9458 81.139,110.2102 96.7593,101.5322 104.1356,94.5898 110.6441,83.7424 117.5864,69.4237 119.322,59.4441 119.322,49.8983 113.6814,38.1831 108.9085,30.8068 101.9661,25.1661" stroke="#00007f" stroke-width="2" /><polyline fill="none" points="96.7593,22.9966 90.2508,26.9017 84.1763,35.1458 79.4034,46.861 77.6678,58.5763 78.1017,76.8 80.2712,84.1763 88.0814,97.6271 93.2881,101.9661" stroke="#004cff" stroke-width="2" /><polyline fill="none" points="25.1661,19.5254 38.6169,47.2949 42.522,60.3119 42.9559,77.2339 41.6542,82.4407 38.6169,89.3831 31.6746,98.9288" stroke="#29ffcd" stroke-width="2" /><polyline fill="none" points="27.7695,32.5424 35.5797,29.5051" stroke="#cdff29" stroke-width="2" /><polyline fill="none" points="32.5424,48.1627 43.3898,47.2949" stroke="#ff6700" stroke-width="2" /><polyline fill="none" points="39.9186,68.9898 45.9932,70.2915" stroke="#7f0000" stroke-width="2" /></svg>