<?xml version="1.0" encoding="utf-8" ?>
<svg baseProfile="tiny" height="128" version="1.2" viewBox="0,0,128,128" width="128" xmlns="http://www.w3.org/2000/svg" xmlns:ev="http://www.w3.org/2001/xml-events" xmlns:xlink="http://www.w3.org/1999/xlink"><defs /><polyline fill="none" points="48.5966,16.0542 28.2034,25.1661 18.6576,35.1458 13.4508,44.6915 9.9797,55.1051 8.678,68.9898 10.4136,74.6305 17.7898,86.3458 29.0712,98.4949 46.861,113.2475 54.2373,116.7186 65.0847,119.322 71.1593,119.322 77.6678,117.1525 90.2508,108.9085 96.3254,102.4 101.5322,93.2881 103.7017,87.6475 105.0034,53.8034 99.3627,38.6169 86.7797,21.261 77.2339,13.4508 68.5559,9.5458 57.2746,8.678 32.1085,22.1288" stroke="#00007f" stroke-width="2" /><polyline fill="none" points="15.6203,84.6102 27.7695,79.8373 36.4475,72.0271 39.0508,65.9525 41.2203,55.9729 40.3525,43.8237 36.0136,34.7119 28.2034,26.4678 19.5254,24.7322" stroke="#00d4ff" stroke-width="2" /><polyline fill="none" points="88.0814,100.6644 77.6678,91.9864 70.7254,82.0068 65.0847,61.1797 64.6508,49.4644 66.3864,44.2576 70.7254,39.9186 89.3831,30.8068 90.6847,28.6373" stroke="#ffe500" stroke-width="2" /><polyline fill="none" points="47.2949,108.4746 49.8983,103.2678 50.3322,97.1932 50.3322,58.5763 48.5966,39.4847 49.4644,29.0712 51.6339,23.4305" stroke="#7f0000" stroke-width="2" /></svg>