<?xml version="1.0" encoding="utf-8" ?>
<svg baseProfile="tiny" height="128" version="1.2" viewBox="0,0,128,128" width="128" xmlns="http://www.w3.org/2000/svg" xmlns:ev="http://www.w3.org/2001/xml-events" xmlns:xlink="http://www.w3.org/1999/xlink"><defs /><polyline fill="none" points="103.7017,55.539 100.6644,46.861 87.2136,30.3729 72.461,19.0915 57.7085,11.2814 49.4644,9.1119 32.9763,8.678 20.8271,16.0542 14.7525,22.9966 11.2814,31.6746 9.1119,40.7864 8.678,64.2169 11.7153,85.478 15.6203,94.5898 23.4305,105.8712 29.5051,109.3424 36.0136,111.078 52.0678,111.5119 61.6136,108.4746 87.2136,97.1932 101.5322,86.7797 111.9458,73.7627 118.8881,56.4068 119.322,45.1254 111.078,41.2203" stroke="#00007f" stroke-width="2" /><polyline fill="none" points="65.0847,11.2814 56.8407,10.4136 50.7661,14.7525 44.6915,26.0339 40.7864,36.0136 36.4475,58.1424 33.8441,106.3051" stroke="#7cff79" stroke-width="2" /><polyline fill="none" points="87.2136,25.1661 81.5729,25.1661 71.1593,32.5424 65.0847,48.1627 61.1797,87.2136 61.1797,108.9085 62.9153,114.1153" stroke="#7f0000" stroke-width="2" /></svg>