<?xml version="1.0" encoding="utf-8" ?>
<svg baseProfile="tiny" height="128" version="1.2" viewBox="0,0,128,128" width="128" xmlns="http://www.w3.org/2000/svg" xmlns:ev="http://www.w3.org/2001/xml-events" xmlns:xlink="http://www.w3.org/1999/xlink"><defs /><polyline fill="none" points="89.2517,32.2177 85.7687,24.8163 81.415,20.0272 69.6599,16.5442 54.8571,18.7211 32.6531,29.1701 19.5918,41.7959 11.7551,57.034 9.1429,70.5306 12.1905,80.9796 16.5442,88.8163 26.1224,97.9592 37.4422,103.619 50.068,107.102 61.8231,105.7959 74.8844,99.7007 84.898,91.8639 93.6054,82.7211 103.619,68.3537 107.102,56.1633 107.5374,42.2313 105.7959,31.3469 100.5714,23.0748 94.4762,19.1565 80.9796,15.2381" stroke="#00007f" stroke-width="2" /><polyline fill="none" points="48.3265,27.8639 44.4082,28.7347 42.2313,32.6531 47.8912,44.4082 53.551,49.1973 61.8231,51.3741 72.2721,57.4694 75.3197,60.9524 75.7551,67.9184 72.7075,74.449 66.1769,80.9796 54.4218,89.6871 28.2993,96.2177 26.1224,98.3946" stroke="#7cff79" stroke-width="2" /><polyline fill="none" points="45.7143,33.0884 50.068,25.2517 58.7755,18.2857 63.1293,16.5442 79.2381,13.932 94.9116,21.3333 101.8776,31.3469 106.2313,41.3605 107.9728,50.5034 107.5374,63.1293 104.4898,76.1905 96.6531,94.4762 85.3333,106.6667 76.6259,111.4558 66.6122,113.6327 55.7279,112.7619 47.0204,108.4082 37.8776,100.1361 24.8163,85.3333 19.5918,77.4966 17.415,68.7891 17.415,60.9524 20.0272,51.3741 31.7823,34.8299 47.8912,20.898 57.4694,16.1088 67.0476,14.8027 97.5238,17.8503 103.619,19.5918 110.585,25.6871 118.4218,47.8912 119.2925,55.7279 118.8571,66.6122 110.585,86.6395 94.9116,102.7483 80.5442,110.1497 67.0476,113.6327 54.8571,112.7619 34.3946,108.4082 26.9932,105.7959 17.8503,99.2653 11.7551,89.6871 8.7075,79.6735 8.7075,64.4354 12.1905,51.3741 20.4626,38.3129 27.4286,30.9116 40.0544,20.4626 53.1156,13.4966 69.2245,8.7075 80.1088,8.7075" stroke="#7f0000" stroke-width="2" /></svg>