<?xml version="1.0" encoding="utf-8" ?>
<svg baseProfile="tiny" height="128" version="1.2" viewBox="0,0,128,128" width="128" xmlns="http://www.w3.org/2000/svg" xmlns:ev="http://www.w3.org/2001/xml-events" xmlns:xlink="http://www.w3.org/1999/xlink"><defs /><polyline fill="none" points="39.9186,21.261 34.7119,20.3932 29.0712,25.1661 21.261,35.1458 12.5831,49.0305 8.678,59.0102 8.678,68.5559 10.8475,76.8 17.3559,86.3458 22.9966,99.7966 37.7492,112.3797 47.2949,118.4542 60.7458,119.322 85.9119,108.9085 104.5695,88.5153 107.6068,83.3085 108.4746,77.6678 106.739,62.0475 88.0814,36.0136 78.5356,25.1661 62.9153,14.3186 48.1627,9.5458 39.9186,8.678" stroke="#00007f" stroke-width="2" /><polyline fill="none" points="38.6169,8.678 38.6169,21.261 45.5593,47.7288 45.5593,62.0475 40.7864,76.8 32.9763,88.0814" stroke="#00d4ff" stroke-width="2" /><polyline fill="none" points="76.8,28.2034 77.6678,33.4102 76.8,65.0847 77.6678,77.2339 82.4407,95.0237 88.0814,104.5695" stroke="#ffe500" stroke-width="2" /><polyline fill="none" points="38.6169,37.7492 45.5593,36.0136" stroke="#7f0000" stroke-width="2" /></svg>