<?xml version="1.0" encoding="utf-8" ?>
<svg baseProfile="tiny" height="128" version="1.2" viewBox="0,0,128,128" width="128" xmlns="http://www.w3.org/2000/svg" xmlns:ev="http://www.w3.org/2001/xml-events" xmlns:xlink="http://www.w3.org/1999/xlink"><defs /><polyline fill="none" points="119.322,32.5424 103.7017,17.7898 95.8915,12.5831 86.3458,9.5458 67.2542,8.678 57.7085,9.5458 39.0508,17.3559 29.939,23.8644 22.5627,30.3729 16.922,39.0508 12.5831,49.0305 8.678,72.0271 8.678,82.4407 10.4136,92.4203 14.3186,101.5322 20.3932,108.4746 29.0712,113.6814 52.0678,117.1525 64.6508,116.7186 84.1763,112.3797 97.6271,106.3051 101.9661,101.9661 106.3051,96.3254 112.3797,82.4407 117.1525,65.9525 118.8881,49.4644 119.322,28.6373 118.0203,23.4305 114.5492,19.9593 100.6644,12.5831 82.0068,11.2814 72.461,13.8847" stroke="#00007f" stroke-width="2" /><polyline fill="none" points="35.1458,19.9593 35.5797,22.9966 45.5593,32.1085" stroke="#0000ff" stroke-width="2" /><polyline fill="none" points="49.8983,19.0915 43.3898,29.939 38.1831,36.0136" stroke="#0080ff" stroke-width="2" /><polyline fill="none" points="40.3525,33.4102 41.6542,42.9559 49.4644,57.7085" stroke="#15ffe1" stroke-width="2" /><polyline fill="none" points="48.1627,34.278 40.3525,51.6339 39.0508,60.3119" stroke="#7cff79" stroke-width="2" /><polyline fill="none" points="37.3153,57.2746 40.3525,67.2542 49.8983,78.5356" stroke="#e4ff12" stroke-width="2" /><polyline fill="none" points="46.861,57.2746 45.1254,65.0847 36.8814,83.7424 36.0136,90.6847" stroke="#ff9400" stroke-width="2" /><polyline fill="none" points="33.8441,87.2136 42.0881,102.8339 49.8983,109.3424" stroke="#ff1d00" stroke-width="2" /><polyline fill="none" points="50.3322,78.1017 49.0305,84.6102 40.3525,104.5695 38.1831,118.8881" stroke="#7f0000" stroke-width="2" /></svg>