<?xml version="1.0" encoding="utf-8" ?>
<svg baseProfile="tiny" height="128" version="1.2" viewBox="0,0,128,128" width="128" xmlns="http://www.w3.org/2000/svg" xmlns:ev="http://www.w3.org/2001/xml-events" xmlns:xlink="http://www.w3.org/1999/xlink"><defs /><polyline fill="none" points="77.4966,49.6327 70.966,50.9388 70.0952,55.7279 73.5782,57.9048 76.6259,57.034 79.2381,52.6803 77.932,50.068" stroke="#00007f" stroke-width="2" /><polyline fill="none" points="74.0136,53.9864 77.4966,49.6327" stroke="#0010ff" stroke-width="2" /><polyline fill="none" points="74.0136,53.551 71.4014,50.068" stroke="#00a4ff" stroke-width="2" /><polyline fill="none" points="74.449,53.551 71.4014,56.5986" stroke="#3fffb7" stroke-width="2" /><polyline fill="none" points="74.0136,53.1156 76.6259,56.5986" stroke="#b7ff3f" stroke-width="2" /><polyline fill="none" points="70.0952,53.9864 79.2381,53.1156" stroke="#ffb900" stroke-width="2" /><polyline fill="none" points="95.7823,41.3605 84.4626,47.4558 80.1088,53.1156 78.8027,58.7755 78.8027,70.0952 80.1088,73.1429 83.5918,77.4966 92.2993,79.6735 94.9116,78.3673 98.8299,73.5782 103.1837,61.3878 106.6667,44.8435 106.6667,33.5238 105.3605,28.2993 103.1837,26.5578 94.4762,25.6871 82.7211,27.4286 65.3061,34.8299 49.6327,45.2789 39.1837,55.2925 28.7347,68.3537 23.5102,77.932 21.3333,91.4286 23.0748,92.2993 37.8776,92.2993" stroke="#ff3000" stroke-width="2" /><polyline fill="none" points="78.3673,43.102 87.9456,27.4286 95.3469,20.4626 81.415,20.4626 65.3061,23.9456 39.619,36.1361 10.8844,55.2925 8.7075,91.8639 18.2857,89.2517 34.3946,80.1088 25.6871,88.381 16.1088,92.2993 8.7075,92.2993 16.1088,90.5578 30.0408,82.7211 44.8435,71.8367 77.0612,44.8435 114.068,8.7075 92.2993,20.4626 69.6599,37.0068 51.8095,52.6803 30.0408,75.7551 20.4626,87.9456 10.8844,92.2993 30.0408,82.2857 48.7619,67.0476 102.3129,8.7075 119.2925,8.7075 112.7619,10.449 97.5238,18.2857 68.3537,39.619 55.2925,51.3741 36.1361,71.8367 29.6054,83.1565 38.7483,80.1088 49.6327,71.8367" stroke="#7f0000" stroke-width="2" /></svg>