<?xml version="1.0" encoding="utf-8" ?>
<svg baseProfile="tiny" height="128" version="1.2" viewBox="0,0,128,128" width="128" xmlns="http://www.w3.org/2000/svg" xmlns:ev="http://www.w3.org/2001/xml-events" xmlns:xlink="http://www.w3.org/1999/xlink"><defs /><polyline fill="none" points="67.6881,8.678 49.4644,9.5458 39.4847,13.4508 32.1085,18.6576 18.6576,35.5797 12.5831,47.2949 10.4136,55.9729 8.678,80.7051 9.9797,87.6475 32.9763,101.9661 71.5932,114.9831 80.7051,116.2847 99.3627,110.2102 100.6644,103.2678 116.7186,68.122 119.322,46.861 118.4542,36.8814 111.078,28.6373 101.0983,21.261 85.0441,16.922 80.7051,17.3559 68.122,12.5831 60.7458,12.5831" stroke="#00007f" stroke-width="2" /><polyline fill="none" points="28.2034,21.261 55.539,42.9559 70.2915,45.5593 81.5729,43.8237 86.3458,39.0508 86.3458,34.7119 94.1559,29.0712 94.5898,25.1661 89.8169,18.6576" stroke="#7cff79" stroke-width="2" /><polyline fill="none" points="32.5424,100.2305 46.861,86.7797 75.4983,75.0644 87.2136,80.2712 100.2305,84.6102 102.4,85.9119 105.0034,91.9864" stroke="#7f0000" stroke-width="2" /></svg>