<?xml version="1.0" encoding="utf-8" ?>
<svg baseProfile="tiny" height="128" version="1.2" viewBox="0,0,128,128" width="128" xmlns="http://www.w3.org/2000/svg" xmlns:ev="http://www.w3.org/2001/xml-events" xmlns:xlink="http://www.w3.org/1999/xlink"><defs /><polyline fill="none" points="39.0508,10.8475 36.4475,8.678 22.1288,8.678 19.5254,10.4136 13.0169,20.8271 9.9797,29.5051 8.678,39.4847 9.5458,52.0678 13.0169,57.7085 20.8271,63.3492 62.4814,73.7627 84.6102,75.4983 106.3051,74.1966 112.8136,70.7254 117.1525,65.5186 119.322,58.1424 118.0203,50.3322 111.9458,42.522 100.6644,33.8441 65.5186,17.7898 47.7288,11.7153 19.9593,8.678" stroke="#00007f" stroke-width="2" /><polyline fill="none" points="32.5424,10.8475 38.1831,19.9593 46.4271,38.6169 47.2949,49.4644 45.5593,54.6712 41.6542,61.1797 35.5797,66.3864 35.5797,65.0847 42.0881,57.7085" stroke="#7cff79" stroke-width="2" /><polyline fill="none" points="88.5153,27.3356 88.5153,29.0712 73.7627,50.3322 70.7254,59.4441 75.0644,59.878 79.8373,67.6881 84.6102,72.0271 95.4576,75.4983 79.8373,72.8949 75.4983,68.5559 74.6305,63.3492" stroke="#7f0000" stroke-width="2" /></svg>