<?xml version="1.0" encoding="utf-8" ?>
<svg baseProfile="tiny" height="128" version="1.2" viewBox="0,0,128,128" width="128" xmlns="http://www.w3.org/2000/svg" xmlns:ev="http://www.w3.org/2001/xml-events" xmlns:xlink="http://www.w3.org/1999/xlink"><defs /><polyline fill="none" points="114.5492,45.5593 111.078,39.9186 103.2678,34.7119 82.8746,24.2983 66.3864,18.2237 43.3898,13.8847 33.4102,13.8847 15.6203,18.6576 10.4136,22.9966 8.678,31.2407 8.678,41.6542 12.5831,57.7085 19.9593,77.2339 40.3525,101.9661 50.3322,112.3797 54.6712,115.4169 65.9525,119.322 86.3458,118.0203 97.1932,114.1153 99.7966,111.5119 104.1356,104.1356 105.0034,97.1932 98.061,72.8949 100.6644,66.8203 108.4746,59.4441 114.1153,51.2 118.0203,39.4847" stroke="#00007f" stroke-width="2" /><polyline fill="none" points="80.2712,24.2983 82.4407,31.2407 85.478,51.2 90.2508,63.7831 92.8542,80.7051 90.6847,97.6271 76.8,110.2102 72.8949,116.2847" stroke="#00d4ff" stroke-width="2" /><polyline fill="none" points="38.6169,8.678 37.7492,28.2034 42.0881,45.9932 50.3322,71.5932 51.6339,85.0441 49.8983,93.2881 41.2203,108.4746" stroke="#ffe500" stroke-width="2" /><polyline fill="none" points="49.4644,28.2034 49.4644,28.2034" stroke="#7f0000" stroke-width="2" /></svg>