<?xml version="1.0" encoding="utf-8" ?>
<svg baseProfile="tiny" height="128" version="1.2" viewBox="0,0,128,128" width="128" xmlns="http://www.w3.org/2000/svg" xmlns:ev="http://www.w3.org/2001/xml-events" xmlns:xlink="http://www.w3.org/1999/xlink"><defs /><polyline fill="none" points="67.2542,8.678 55.539,9.5458 37.7492,13.4508 28.2034,19.0915 15.1864,35.1458 9.5458,47.2949 8.678,55.1051 9.5458,63.7831 20.3932,86.7797 38.6169,101.9661 51.2,108.0407 71.5932,106.739 92.8542,98.4949 104.1356,91.5525 112.3797,84.6102 119.322,74.6305 118.4542,65.9525 114.5492,55.539 95.4576,29.5051 87.6475,20.8271 80.2712,14.7525 74.6305,11.2814 66.3864,8.678" stroke="#00007f" stroke-width="2" /><polyline fill="none" points="32.9763,15.1864 41.2203,26.9017 50.7661,45.5593 54.2373,59.878 53.8034,83.3085 52.0678,93.722 42.522,102.4" stroke="#7f0000" stroke-width="2" /></svg>