<?xml version="1.0" encoding="utf-8" ?>
<svg baseProfile="tiny" height="128" version="1.2" viewBox="0,0,128,128" width="128" xmlns="http://www.w3.org/2000/svg" xmlns:ev="http://www.w3.org/2001/xml-events" xmlns:xlink="http://www.w3.org/1999/xlink"><defs /><polyline fill="none" points="50.7661,18.2237 49.0305,14.3186 45.1254,10.4136 37.7492,8.678 32.5424,12.1492 21.261,24.7322 12.5831,44.2576 8.678,65.9525 8.678,85.0441 11.7153,94.5898 21.6949,104.1356 29.0712,107.6068 39.9186,108.9085 67.2542,108.9085 79.8373,106.3051 94.1559,99.3627 97.6271,94.5898 98.4949,85.9119 96.7593,80.2712 91.5525,71.5932 85.0441,48.5966 81.139,39.0508 75.0644,31.2407 62.0475,24.7322 49.8983,15.6203 42.522,15.6203 38.1831,18.2237" stroke="#00007f" stroke-width="2" /><polyline fill="none" points="36.4475,11.7153 42.9559,27.7695 46.861,44.6915 46.861,64.6508 44.2576,76.3661 39.0508,88.9492 26.9017,96.3254 19.9593,105.0034" stroke="#7cff79" stroke-width="2" /><polyline fill="none" points="69.8576,28.6373 70.7254,49.4644 76.3661,79.4034 84.1763,97.6271 88.9492,103.2678 104.1356,109.7763 114.5492,110.6441 119.322,108.0407" stroke="#7f0000" stroke-width="2" /></svg>