<?xml version="1.0" encoding="utf-8" ?>
<svg baseProfile="tiny" height="128" version="1.2" viewBox="0,0,128,128" width="128" xmlns="http://www.w3.org/2000/svg" xmlns:ev="http://www.w3.org/2001/xml-events" xmlns:xlink="http://www.w3.org/1999/xlink"><defs /><polyline fill="none" points="79.4034,26.0339 61.1797,26.4678 45.5593,32.1085 17.3559,53.3695 12.1492,58.5763 8.678,66.3864 8.678,83.3085 20.3932,102.4 31.6746,112.8136 40.7864,117.5864 47.2949,119.322 60.7458,118.8881 79.8373,105.8712 89.3831,91.5525 95.8915,65.9525 95.4576,40.3525 86.7797,17.3559 82.4407,10.8475 77.2339,9.1119 61.1797,8.678 48.5966,13.0169 33.8441,22.5627 32.5424,26.0339 32.5424,34.7119 33.8441,41.2203" stroke="#00007f" stroke-width="2" /><polyline fill="none" points="43.3898,32.5424 43.8237,47.7288 45.1254,52.5017 44.6915,98.4949 40.3525,109.3424 33.4102,112.3797 30.3729,112.3797 29.939,101.0983" stroke="#7cff79" stroke-width="2" /><polyline fill="none" points="65.0847,25.1661 63.7831,45.1254 64.6508,87.6475 71.1593,102.4 76.3661,109.3424 81.5729,111.9458 86.7797,111.078" stroke="#7f0000" stroke-width="2" /></svg>