<?xml version="1.0" encoding="utf-8" ?>
<svg baseProfile="tiny" height="128" version="1.2" viewBox="0,0,128,128" width="128" xmlns="http://www.w3.org/2000/svg" xmlns:ev="http://www.w3.org/2001/xml-events" xmlns:xlink="http://www.w3.org/1999/xlink"><defs /><polyline fill="none" points="40.4898,14.3673 29.6054,17.8503 22.6395,23.5102 13.4966,40.0544 10.0136,51.3741 8.7075,64.0 9.1429,87.5102 13.0612,98.3946 18.2857,106.6667 27.4286,113.6327 37.4422,117.551 49.1973,119.2925 61.3878,119.2925 73.5782,117.551 85.3333,111.8912 95.7823,103.1837 104.9252,90.5578 110.585,76.1905 113.6327,59.2109 113.6327,46.585 111.0204,33.5238 105.3605,24.381 97.0884,16.9796 87.5102,12.1905 77.0612,9.1429 58.3401,8.7075 48.7619,14.3673 40.4898,22.2041" stroke="#00007f" stroke-width="2" /><polyline fill="none" points="40.0544,27.8639 44.4082,30.9116 47.0204,34.8299 51.3741,47.4558 51.8095,70.0952 48.7619,82.7211 47.8912,90.5578" stroke="#7cff79" stroke-width="2" /><polyline fill="none" points="83.1565,28.2993 75.7551,43.5374 72.7075,54.8571 72.2721,65.3061 73.1429,77.932 77.4966,87.0748 83.5918,94.4762" stroke="#7f0000" stroke-width="2" /></svg>