<?xml version="1.0" encoding="utf-8" ?>
<svg baseProfile="tiny" height="128" version="1.2" viewBox="0,0,128,128" width="128" xmlns="http://www.w3.org/2000/svg" xmlns:ev="http://www.w3.org/2001/xml-events" xmlns:xlink="http://www.w3.org/1999/xlink"><defs /><polyline fill="none" points="32.1085,10.8475 27.7695,11.7153 24.7322,14.3186 16.0542,30.8068 9.9797,52.9356 8.678,74.6305 10.8475,78.9695 20.3932,88.9492 33.8441,98.061 43.8237,101.5322 50.7661,101.9661 65.0847,101.9661 72.8949,99.7966 83.7424,90.6847 91.1186,78.5356 93.722,68.5559 95.0237,55.9729 95.0237,43.8237 92.8542,35.1458 84.6102,21.6949 73.7627,15.6203 53.8034,9.5458 37.7492,8.678" stroke="#00007f" stroke-width="2" /><polyline fill="none" points="35.5797,8.678 37.7492,52.0678 43.3898,88.5153 45.9932,119.322" stroke="#7cff79" stroke-width="2" /><polyline fill="none" points="22.5627,16.4881 30.3729,14.7525 36.8814,15.6203" stroke="#7f0000" stroke-width="2" /></svg>