<?xml version="1.0" encoding="utf-8" ?>
<svg baseProfile="tiny" height="128" version="1.2" viewBox="0,0,128,128" width="128" xmlns="http://www.w3.org/2000/svg" xmlns:ev="http://www.w3.org/2001/xml-events" xmlns:xlink="http://www.w3.org/1999/xlink"><defs /><polyline fill="none" points="36.8814,8.678 29.5051,11.2814 22.5627,18.2237 13.0169,31.6746 8.678,42.522 8.678,68.9898 12.1492,79.4034 13.0169,88.0814 19.0915,101.9661 25.1661,109.3424 35.1458,114.9831 53.3695,119.322 98.4949,118.4542 107.1729,114.5492 114.9831,85.0441 117.5864,63.7831 116.7186,52.0678 107.1729,29.0712 98.061,16.0542 88.5153,10.8475 70.2915,9.1119 59.878,9.1119 49.0305,12.5831 35.5797,13.8847" stroke="#00007f" stroke-width="2" /><polyline fill="none" points="27.7695,16.4881 27.7695,60.7458 35.5797,108.4746" stroke="#7cff79" stroke-width="2" /><polyline fill="none" points="83.3085,14.3186 79.4034,35.5797 77.6678,56.8407 77.6678,105.0034 79.4034,110.6441 79.4034,118.0203" stroke="#7f0000" stroke-width="2" /></svg>