<?xml version="1.0" encoding="utf-8" ?>
<svg baseProfile="tiny" height="128" version="1.2" viewBox="0,0,128,128" width="128" xmlns="http://www.w3.org/2000/svg" xmlns:ev="http://www.w3.org/2001/xml-events" xmlns:xlink="http://www.w3.org/1999/xlink"><defs /><polyline fill="none" points="24.2983,119.322 13.0169,108.9085 8.678,94.5898 9.5458,76.8 11.7153,65.9525 22.1288,30.3729 27.7695,19.0915 38.1831,11.7153 52.5017,8.678 59.878,10.8475 65.0847,14.7525 75.0644,24.7322 87.2136,40.3525 92.4203,51.6339 85.478,81.139 75.0644,100.6644 68.122,108.9085 61.6136,111.5119 42.9559,114.1153 30.8068,119.322 17.3559,113.6814" stroke="#00007f" stroke-width="2" /><polyline fill="none" points="22.9966,30.8068 32.1085,41.2203 47.7288,65.9525 48.1627,82.8746 39.0508,115.4169" stroke="#7cff79" stroke-width="2" /><polyline fill="none" points="77.2339,29.939 63.7831,45.5593 54.6712,71.1593 58.5763,82.4407 60.7458,94.5898 68.122,108.0407" stroke="#7f0000" stroke-width="2" /></svg>