<?xml version="1.0" encoding="utf-8" ?>
<svg baseProfile="tiny" height="128" version="1.2" viewBox="0,0,128,128" width="128" xmlns="http://www.w3.org/2000/svg" xmlns:ev="http://www.w3.org/2001/xml-events" xmlns:xlink="http://www.w3.org/1999/xlink"><defs /><polyline fill="none" points="90.2508,18.6576 84.1763,13.4508 71.1593,8.678 49.8983,9.9797 39.4847,12.1492 31.6746,16.0542 21.6949,22.1288 13.0169,29.5051 8.678,46.4271 10.4136,68.5559 14.3186,78.9695 22.5627,93.2881 29.939,101.0983 38.6169,107.6068 42.9559,109.3424 55.9729,110.2102 80.2712,107.6068 98.9288,102.4 108.9085,94.1559 114.9831,82.0068 118.0203,67.6881 119.322,43.3898 114.9831,34.278 110.2102,28.2034 95.0237,20.8271" stroke="#00007f" stroke-width="2" /><polyline fill="none" points="37.3153,13.0169 39.0508,19.9593 44.2576,26.0339 54.6712,32.9763 62.0475,35.1458 69.8576,34.278 76.3661,31.2407 92.8542,19.5254" stroke="#0080ff" stroke-width="2" /><polyline fill="none" points="101.9661,27.7695 104.5695,26.4678 104.1356,30.3729 99.7966,36.8814 96.3254,46.4271 88.0814,77.2339 88.9492,88.0814 94.1559,96.7593" stroke="#7cff79" stroke-width="2" /><polyline fill="none" points="48.5966,105.4373 50.7661,99.7966 56.8407,94.1559 66.3864,92.4203 69.4237,94.1559 76.8,108.4746" stroke="#ff9400" stroke-width="2" /><polyline fill="none" points="21.6949,90.2508 23.8644,87.2136 27.3356,74.1966 35.1458,58.1424 36.8814,51.2 36.8814,42.522 30.3729,23.4305" stroke="#7f0000" stroke-width="2" /></svg>