<?xml version="1.0" encoding="utf-8" ?>
<svg baseProfile="tiny" height="128" version="1.2" viewBox="0,0,128,128" width="128" xmlns="http://www.w3.org/2000/svg" xmlns:ev="http://www.w3.org/2001/xml-events" xmlns:xlink="http://www.w3.org/1999/xlink"><defs /><polyline fill="none" points="95.8915,9.9797 91.9864,8.678 80.2712,8.678 71.1593,10.4136 51.2,16.922 35.1458,25.6 22.9966,36.4475 13.4508,49.4644 10.8475,56.4068 8.678,70.2915 9.1119,75.4983 11.7153,81.139 20.8271,89.8169 36.4475,94.1559 58.5763,94.1559 69.4237,92.4203 90.6847,85.0441 98.4949,80.2712 109.7763,69.8576 117.5864,58.1424 118.8881,51.6339 119.322,38.6169 118.0203,31.6746 112.8136,21.6949 106.3051,14.3186 101.0983,9.9797 92.8542,8.678" stroke="#00007f" stroke-width="2" /><polyline fill="none" points="34.7119,27.3356 40.3525,43.3898 42.522,55.9729 43.3898,72.461 38.1831,88.0814 40.3525,85.9119" stroke="#0028ff" stroke-width="2" /><polyline fill="none" points="98.4949,8.678 79.4034,46.861 75.9322,60.7458 75.0644,80.7051 76.8,85.478 82.0068,91.9864 85.0441,94.1559 89.3831,94.5898" stroke="#00d4ff" stroke-width="2" /><polyline fill="none" points="77.2339,21.261 104.1356,19.0915" stroke="#7cff79" stroke-width="2" /><polyline fill="none" points="59.878,39.4847 72.8949,39.0508 110.6441,34.278" stroke="#ffe500" stroke-width="2" /><polyline fill="none" points="65.9525,58.5763 95.8915,54.2373" stroke="#ff4600" stroke-width="2" /><polyline fill="none" points="66.8203,77.2339 91.1186,69.8576" stroke="#7f0000" stroke-width="2" /></svg>