<?xml version="1.0" encoding="utf-8" ?>
<svg baseProfile="tiny" height="128" version="1.2" viewBox="0,0,128,128" width="128" xmlns="http://www.w3.org/2000/svg" xmlns:ev="http://www.w3.org/2001/xml-events" xmlns:xlink="http://www.w3.org/1999/xlink"><defs /><polyline fill="none" points="100.6644,26.9017 98.4949,22.5627 92.8542,17.7898 83.7424,13.8847 70.2915,12.1492 53.3695,13.8847 44.2576,17.7898 35.1458,24.2983 26.0339,32.5424 17.7898,42.522 11.7153,54.2373 8.678,65.0847 8.678,75.4983 11.7153,84.1763 16.4881,93.2881 23.8644,100.6644 42.9559,111.5119 54.2373,113.6814 66.3864,113.6814 78.5356,111.9458 89.3831,108.0407 98.4949,101.5322 105.8712,92.8542 114.5492,73.3288 115.8508,62.9153 114.5492,41.2203 110.6441,32.1085 105.0034,23.8644 98.4949,17.7898 82.8746,9.9797 75.9322,8.678 60.7458,9.9797 55.1051,13.8847" stroke="#00007f" stroke-width="2" /><polyline fill="none" points="68.9898,9.9797 66.3864,10.4136 58.1424,16.0542 49.8983,25.1661 43.8237,33.4102 34.7119,50.3322 26.0339,71.1593 24.7322,79.8373 24.7322,100.2305" stroke="#0028ff" stroke-width="2" /><polyline fill="none" points="98.061,22.5627 100.2305,31.2407 100.2305,46.4271 98.061,59.4441 88.0814,88.5153 76.8,113.2475 73.7627,117.1525 70.7254,119.322" stroke="#00d4ff" stroke-width="2" /><polyline fill="none" points="91.1186,32.1085 88.9492,31.6746 91.5525,33.4102 105.8712,36.4475 110.6441,39.4847" stroke="#7cff79" stroke-width="2" /><polyline fill="none" points="91.1186,64.2169 104.5695,62.0475" stroke="#ffe500" stroke-width="2" /><polyline fill="none" points="77.2339,92.8542 84.1763,90.2508 91.1186,90.2508 97.6271,91.9864" stroke="#ff4600" stroke-width="2" /><polyline fill="none" points="65.9525,111.5119 71.1593,107.1729 80.2712,107.1729 85.0441,109.3424" stroke="#7f0000" stroke-width="2" /></svg>