<?xml version="1.0" encoding="utf-8" ?>
<svg baseProfile="tiny" height="128" version="1.2" viewBox="0,0,128,128" width="128" xmlns="http://www.w3.org/2000/svg" xmlns:ev="http://www.w3.org/2001/xml-events" xmlns:xlink="http://www.w3.org/1999/xlink"><defs /><polyline fill="none" points="97.5238,16.5442 94.4762,12.1905 89.6871,10.0136 65.3061,8.7075 57.9048,10.8844 33.0884,22.2041 20.898,33.0884 12.6259,46.1497 9.1429,57.9048 8.7075,78.3673 14.8027,92.2993 23.9456,102.7483 46.1497,114.5034 60.9524,117.1156 80.5442,117.1156 98.3946,108.4082 109.7143,96.6531 117.551,80.1088 119.2925,66.6122 119.2925,47.8912 117.9864,40.9252 114.068,31.3469 104.9252,19.5918 97.0884,13.0612" stroke="#00007f" stroke-width="2" /><polyline fill="none" points="43.9728,16.9796 45.7143,32.6531 40.9252,50.068 40.0544,71.8367 43.102,78.3673 50.9388,84.898 65.7415,85.7687 74.449,80.1088 81.415,70.966 87.0748,58.7755 94.0408,35.7007 99.2653,31.3469 106.6667,30.0408" stroke="#0080ff" stroke-width="2" /><polyline fill="none" points="75.3197,76.6259 82.2857,75.7551" stroke="#7cff79" stroke-width="2" /><polyline fill="none" points="84.898,63.5646 88.381,62.6939" stroke="#ff9400" stroke-width="2" /><polyline fill="none" points="90.5578,40.0544 92.7347,40.4898" stroke="#7f0000" stroke-width="2" /></svg>