<?xml version="1.0" encoding="utf-8" ?>
<svg baseProfile="tiny" height="128" version="1.2" viewBox="0,0,128,128" width="128" xmlns="http://www.w3.org/2000/svg" xmlns:ev="http://www.w3.org/2001/xml-events" xmlns:xlink="http://www.w3.org/1999/xlink"><defs /><polyline fill="none" points="94.5898,17.7898 91.5525,15.1864 78.5356,11.2814 59.878,8.678 49.8983,11.7153 42.522,15.6203 29.939,24.7322 20.8271,33.4102 14.7525,42.0881 10.4136,50.7661 8.678,59.4441 9.1119,66.8203 13.8847,78.5356 20.8271,86.7797 28.6373,93.2881 36.0136,97.1932 50.7661,101.9661 65.9525,102.4 73.3288,101.0983 82.4407,97.1932 90.2508,91.1186 110.6441,73.3288 117.5864,65.5186 119.322,59.0102 119.322,49.0305 116.2847,41.6542 103.2678,29.5051 79.4034,11.7153" stroke="#00007f" stroke-width="2" /><polyline fill="none" points="73.3288,11.7153 47.7288,28.2034 37.7492,41.6542 34.278,52.0678 28.6373,79.4034" stroke="#0080ff" stroke-width="2" /><polyline fill="none" points="90.2508,26.0339 85.9119,45.5593 76.8,65.0847 65.0847,81.5729 43.8237,104.1356" stroke="#7cff79" stroke-width="2" /><polyline fill="none" points="51.2,19.5254 58.1424,35.1458" stroke="#ff9400" stroke-width="2" /><polyline fill="none" points="48.1627,42.9559 48.1627,42.9559" stroke="#7f0000" stroke-width="2" /></svg>