<?xml version="1.0" encoding="utf-8" ?>
<svg baseProfile="tiny" height="128" version="1.2" viewBox="0,0,128,128" width="128" xmlns="http://www.w3.org/2000/svg" xmlns:ev="http://www.w3.org/2001/xml-events" xmlns:xlink="http://www.w3.org/1999/xlink"><defs /><polyline fill="none" points="37.7492,39.9186 35.1458,40.7864 31.6746,45.9932 31.6746,52.9356 36.0136,54.6712 45.1254,53.8034 47.2949,44.6915 44.6915,42.0881 35.1458,39.4847" stroke="#00007f" stroke-width="2" /><polyline fill="none" points="37.3153,38.6169 38.6169,52.9356" stroke="#0000f1" stroke-width="2" /><polyline fill="none" points="31.6746,45.9932 47.2949,45.5593" stroke="#004cff" stroke-width="2" /><polyline fill="none" points="8.678,9.9797 8.678,45.5593 10.8475,47.7288 17.3559,47.7288 17.7898,39.0508 12.5831,28.6373 12.1492,10.4136 10.4136,8.678 9.1119,9.5458" stroke="#00b0ff" stroke-width="2" /><polyline fill="none" points="25.6,32.9763 32.9763,30.8068" stroke="#29ffcd" stroke-width="2" /><polyline fill="none" points="27.3356,40.3525 33.8441,39.4847" stroke="#7cff79" stroke-width="2" /><polyline fill="none" points="25.1661,47.7288 27.7695,50.3322" stroke="#cdff29" stroke-width="2" /><polyline fill="none" points="23.8644,55.1051 28.6373,57.2746" stroke="#ffc400" stroke-width="2" /><polyline fill="none" points="68.122,55.1051 65.0847,23.8644 62.9153,17.7898 64.2169,16.922 75.9322,14.3186 119.322,13.0169 119.322,33.4102" stroke="#ff6700" stroke-width="2" /><polyline fill="none" points="119.322,33.4102 119.322,45.9932" stroke="#f10700" stroke-width="2" /><polyline fill="none" points="82.4407,22.9966 83.3085,49.8983" stroke="#7f0000" stroke-width="2" /></svg>