<?xml version="1.0" encoding="utf-8" ?>
<svg baseProfile="tiny" height="128" version="1.2" viewBox="0,0,128,128" width="128" xmlns="http://www.w3.org/2000/svg" xmlns:ev="http://www.w3.org/2001/xml-events" xmlns:xlink="http://www.w3.org/1999/xlink"><defs /><polyline fill="none" points="70.0952,9.5782 53.551,8.7075 37.4422,13.932 27.8639,20.898 16.5442,38.7483 11.3197,60.0816 10.449,74.449 11.7551,82.2857 16.1088,94.4762 20.0272,100.1361 34.3946,113.1973 46.1497,117.9864 52.6803,118.4218 64.4354,116.6803 76.6259,111.0204 87.9456,101.0068 92.7347,94.4762 103.1837,74.449 104.9252,61.3878 103.1837,47.4558 93.6054,30.4762 84.898,18.2857 81.415,15.2381 76.6259,13.0612" stroke="#00007f" stroke-width="2" /><polyline fill="none" points="54.8571,13.0612 52.2449,24.381 44.8435,42.2313 30.9116,92.2993 23.9456,107.5374 16.9796,115.8095 11.7551,119.2925 8.7075,116.6803" stroke="#7cff79" stroke-width="2" /><polyline fill="none" points="81.415,14.3673 78.3673,16.5442 76.1905,23.9456 72.7075,42.2313 70.5306,57.9048 70.966,76.1905 75.7551,100.1361 82.7211,111.4558 86.2041,115.3741 90.5578,116.6803" stroke="#7f0000" stroke-width="2" /></svg>