<?xml version="1.0" encoding="utf-8" ?>
<svg baseProfile="tiny" height="128" version="1.2" viewBox="0,0,128,128" width="128" xmlns="http://www.w3.org/2000/svg" xmlns:ev="http://www.w3.org/2001/xml-events" xmlns:xlink="http://www.w3.org/1999/xlink"><defs /><polyline fill="none" points="74.1966,15.1864 70.7254,11.7153 66.3864,10.4136 57.7085,10.4136 52.5017,12.1492 26.0339,31.6746 13.8847,49.0305 10.4136,59.0102 8.678,69.4237 8.678,74.1966 11.2814,82.4407 18.6576,91.1186 31.6746,96.3254 47.7288,96.3254 93.722,77.6678 108.9085,68.5559 116.2847,59.0102 119.322,47.2949 119.322,36.8814 115.8508,29.5051 107.6068,20.3932 96.7593,14.3186 82.0068,11.2814 60.7458,10.8475 59.4441,13.4508" stroke="#00007f" stroke-width="2" /><polyline fill="none" points="58.1424,14.7525 54.2373,14.7525 45.1254,23.8644 37.3153,41.6542 35.1458,53.8034 35.1458,68.5559 37.7492,75.4983 41.6542,80.7051 45.1254,82.8746 49.4644,83.7424" stroke="#00d4ff" stroke-width="2" /><polyline fill="none" points="85.9119,8.678 105.4373,25.1661 112.3797,36.0136 114.5492,43.3898 114.1153,55.539 101.5322,75.4983" stroke="#ffe500" stroke-width="2" /><polyline fill="none" points="39.0508,24.2983 48.1627,25.6 52.9356,29.939 52.9356,33.4102" stroke="#7f0000" stroke-width="2" /></svg>