<?xml version="1.0" encoding="utf-8" ?>
<svg baseProfile="tiny" height="128" version="1.2" viewBox="0,0,128,128" width="128" xmlns="http://www.w3.org/2000/svg" xmlns:ev="http://www.w3.org/2001/xml-events" xmlns:xlink="http://www.w3.org/1999/xlink"><defs /><polyline fill="none" points="51.6339,10.4136 33.8441,16.4881 27.3356,22.5627 18.6576,36.0136 9.9797,60.7458 8.678,91.9864 16.4881,101.9661 28.2034,108.9085 50.3322,108.4746 65.5186,102.4 68.5559,98.4949 77.6678,92.4203 81.5729,80.7051 88.0814,68.5559 87.6475,34.278 71.1593,20.3932 52.9356,15.6203" stroke="#00007f" stroke-width="2" /><polyline fill="none" points="12.1492,89.8169 23.4305,88.5153 26.4678,85.478 31.6746,72.0271 40.3525,60.7458 45.5593,48.5966 45.9932,34.278 44.2576,24.7322 40.3525,20.8271 35.1458,8.678" stroke="#7cff79" stroke-width="2" /><polyline fill="none" points="89.8169,29.0712 69.8576,32.1085 64.6508,34.278 51.6339,46.861 48.1627,54.2373 47.7288,88.0814 51.2,97.1932 57.7085,105.8712 58.1424,118.4542 62.0475,119.322" stroke="#7f0000" stroke-width="2" /></svg>