<?xml version="1.0" encoding="utf-8" ?>
<svg baseProfile="tiny" height="128" version="1.2" viewBox="0,0,128,128" width="128" xmlns="http://www.w3.org/2000/svg" xmlns:ev="http://www.w3.org/2001/xml-events" xmlns:xlink="http://www.w3.org/1999/xlink"><defs /><polyline fill="none" points="59.4441,47.2949 59.0102,49.0305 59.878,51.2 64.6508,52.9356 66.3864,47.2949 75.9322,36.4475 86.7797,30.8068 94.5898,21.6949 96.3254,15.1864 96.3254,11.2814 90.2508,8.678 81.5729,8.678 74.6305,14.7525 65.0847,27.7695 60.7458,45.1254 58.5763,47.7288" stroke="#00007f" stroke-width="2" /><polyline fill="none" points="105.4373,30.8068 105.4373,24.7322 110.6441,16.0542 113.2475,14.3186 116.2847,14.3186 118.4542,15.6203 119.322,17.7898 119.322,22.9966 115.8508,29.5051 108.0407,29.939 104.5695,25.6" stroke="#0000fe" stroke-width="2" /><polyline fill="none" points="10.4136,14.3186 10.8475,27.7695" stroke="#0060ff" stroke-width="2" /><polyline fill="none" points="10.4136,13.0169 17.3559,15.1864 17.7898,18.6576 16.4881,20.8271 9.5458,21.261 8.678,19.5254 11.7153,19.0915" stroke="#00d4ff" stroke-width="2" /><polyline fill="none" points="21.6949,14.3186 22.5627,26.9017 28.2034,26.9017" stroke="#4cffaa" stroke-width="2" /><polyline fill="none" points="29.939,17.3559 31.6746,12.5831 36.0136,11.2814 39.4847,15.6203 39.4847,20.3932 35.1458,24.7322 29.939,24.2983 29.939,16.4881 33.4102,13.8847 37.3153,13.8847 41.6542,22.5627 43.8237,22.5627" stroke="#aaff4c" stroke-width="2" /><polyline fill="none" points="44.2576,11.2814 48.5966,16.922 52.0678,17.3559" stroke="#ffe500" stroke-width="2" /><polyline fill="none" points="53.8034,14.7525 49.8983,22.9966" stroke="#ff7a00" stroke-width="2" /><polyline fill="none" points="56.4068,18.6576 63.7831,18.6576 61.6136,14.7525" stroke="#fe1200" stroke-width="2" /><polyline fill="none" points="64.2169,18.2237 62.0475,19.0915 60.3119,22.5627 61.1797,14.3186 61.1797,22.1288 62.0475,16.0542 62.4814,19.9593 61.1797,22.1288 62.0475,17.7898 59.4441,20.8271 63.3492,18.6576 59.0102,22.9966 63.3492,19.5254 60.3119,22.9966 63.7831,19.5254" stroke="#7f0000" stroke-width="2" /></svg>