<?xml version="1.0" encoding="utf-8" ?>
<svg baseProfile="tiny" height="128" version="1.2" viewBox="0,0,128,128" width="128" xmlns="http://www.w3.org/2000/svg" xmlns:ev="http://www.w3.org/2001/xml-events" xmlns:xlink="http://www.w3.org/1999/xlink"><defs /><polyline fill="none" points="94.5898,17.7898 79.4034,11.7153 65.9525,9.1119 58.5763,8.678 52.5017,10.8475 45.1254,16.4881 27.7695,40.3525 16.4881,59.4441 10.4136,75.0644 8.678,81.5729 9.1119,90.2508 13.4508,98.9288 17.7898,103.2678 27.3356,109.3424 45.9932,117.1525 65.0847,119.322 70.7254,118.4542 88.9492,110.6441 103.7017,99.7966 108.4746,93.722 111.9458,75.4983 111.9458,59.4441 108.4746,49.0305 104.5695,42.0881 93.2881,31.6746 73.7627,19.5254" stroke="#00007f" stroke-width="2" /><polyline fill="none" points="40.7864,21.6949 45.5593,33.4102 46.4271,46.4271 36.8814,84.6102 35.5797,95.8915" stroke="#7cff79" stroke-width="2" /><polyline fill="none" points="88.9492,29.0712 83.7424,34.7119 81.139,43.3898 81.139,59.878 85.478,91.5525 87.2136,92.8542 91.9864,93.2881" stroke="#7f0000" stroke-width="2" /></svg>