<?xml version="1.0" encoding="utf-8" ?>
<svg baseProfile="tiny" height="128" version="1.2" viewBox="0,0,128,128" width="128" xmlns="http://www.w3.org/2000/svg" xmlns:ev="http://www.w3.org/2001/xml-events" xmlns:xlink="http://www.w3.org/1999/xlink"><defs /><polyline fill="none" points="77.6678,17.7898 74.1966,11.7153 67.6881,9.1119 53.8034,8.678 45.1254,10.4136 31.2407,18.2237 24.7322,23.4305 14.7525,36.4475 11.2814,44.2576 9.5458,52.5017 8.678,69.4237 9.9797,78.5356 13.4508,87.2136 18.2237,95.4576 30.8068,108.0407 47.7288,115.4169 57.7085,116.7186 77.6678,115.8508 95.8915,106.739 104.1356,99.7966 115.8508,84.1763 119.322,68.122 118.0203,54.6712 114.1153,47.2949 105.4373,34.278 95.0237,23.8644 78.5356,13.8847 68.9898,11.2814 56.8407,11.2814" stroke="#00007f" stroke-width="2" /><polyline fill="none" points="36.8814,12.5831 45.5593,29.0712 46.861,36.8814 46.861,59.878 44.2576,71.5932 39.4847,85.0441 26.4678,104.1356 24.2983,111.9458" stroke="#0080ff" stroke-width="2" /><polyline fill="none" points="100.2305,22.5627 98.061,22.9966 93.722,27.3356 89.3831,39.0508 88.5153,45.9932 88.9492,75.9322 94.5898,93.2881 101.9661,102.8339 108.0407,107.1729" stroke="#7cff79" stroke-width="2" /><polyline fill="none" points="81.139,31.6746 87.2136,31.2407 99.3627,36.0136" stroke="#ff9400" stroke-width="2" /><polyline fill="none" points="77.2339,65.9525 95.0237,65.9525" stroke="#7f0000" stroke-width="2" /></svg>