<?xml version="1.0" encoding="utf-8" ?>
<svg baseProfile="tiny" height="128" version="1.2" viewBox="0,0,128,128" width="128" xmlns="http://www.w3.org/2000/svg" xmlns:ev="http://www.w3.org/2001/xml-events" xmlns:xlink="http://www.w3.org/1999/xlink"><defs /><polyline fill="none" points="85.9119,13.0169 76.8,9.1119 60.7458,8.678 38.6169,14.3186 24.2983,20.8271 14.3186,31.2407 11.2814,38.1831 8.678,53.3695 9.5458,72.8949 11.7153,82.0068 20.8271,98.9288 36.4475,111.9458 45.5593,115.8508 54.6712,118.8881 70.7254,119.322 78.9695,116.7186 92.8542,108.0407 101.5322,95.8915 103.7017,90.2508 106.739,75.9322 107.6068,51.6339 101.5322,33.4102 95.0237,22.1288 83.3085,12.1492 77.2339,9.5458 64.2169,8.678 57.7085,16.0542 52.9356,29.0712 51.2,37.7492 50.7661,64.2169 52.9356,72.0271 62.0475,85.0441 73.3288,94.1559 95.0237,103.7017" stroke="#00007f" stroke-width="2" /><polyline fill="none" points="36.8814,14.3186 46.4271,23.8644 48.5966,52.9356 52.0678,63.3492 52.5017,75.4983 50.3322,85.478 47.2949,91.1186 40.3525,95.4576 35.1458,102.8339 31.2407,104.5695" stroke="#7f0000" stroke-width="2" /></svg>