<?xml version="1.0" encoding="utf-8" ?>
<svg baseProfile="tiny" height="128" version="1.2" viewBox="0,0,128,128" width="128" xmlns="http://www.w3.org/2000/svg" xmlns:ev="http://www.w3.org/2001/xml-events" xmlns:xlink="http://www.w3.org/1999/xlink"><defs /><polyline fill="none" points="70.7254,37.3153 59.0102,35.1458 39.9186,34.278 29.5051,36.4475 22.9966,39.9186 14.7525,46.4271 11.7153,52.5017 8.678,73.3288 8.678,84.6102 12.5831,94.1559 19.9593,103.7017 32.1085,113.6814 40.3525,118.4542 43.8237,119.322 69.8576,118.8881 77.2339,114.9831 92.8542,103.7017 101.0983,95.0237 108.4746,83.7424 114.9831,66.8203 117.1525,55.1051 117.1525,28.2034 113.6814,15.6203 110.6441,11.7153 105.0034,8.678 100.6644,8.678 69.8576,26.9017 59.0102,36.0136 55.9729,40.7864" stroke="#00007f" stroke-width="2" /><polyline fill="none" points="46.861,30.3729 47.7288,67.6881 46.4271,113.6814 47.2949,119.322 49.4644,119.322 50.3322,117.1525" stroke="#00d4ff" stroke-width="2" /><polyline fill="none" points="83.3085,40.7864 83.3085,73.7627 84.1763,79.4034 88.9492,90.2508 96.3254,101.5322" stroke="#ffe500" stroke-width="2" /><polyline fill="none" points="29.0712,45.5593 28.6373,66.8203 31.2407,82.4407 38.6169,103.2678 41.2203,105.0034 46.4271,103.7017" stroke="#7f0000" stroke-width="2" /></svg>