<?xml version="1.0" encoding="utf-8" ?>
<svg baseProfile="tiny" height="128" version="1.2" viewBox="0,0,128,128" width="128" xmlns="http://www.w3.org/2000/svg" xmlns:ev="http://www.w3.org/2001/xml-events" xmlns:xlink="http://www.w3.org/1999/xlink"><defs /><polyline fill="none" points="88.5153,18.6576 55.9729,8.678 46.861,9.5458 38.6169,14.7525 15.6203,42.522 10.8475,55.539 8.678,67.6881 9.5458,85.478 18.2237,94.1559 32.5424,98.4949 99.7966,98.4949 105.8712,95.8915 109.3424,92.8542 114.5492,85.0441 119.322,67.6881 118.4542,50.3322 113.2475,38.1831 110.2102,33.8441 102.4,26.9017 90.6847,20.8271" stroke="#00007f" stroke-width="2" /><polyline fill="none" points="80.7051,21.6949 91.5525,53.3695 92.4203,96.3254" stroke="#7cff79" stroke-width="2" /><polyline fill="none" points="33.8441,17.7898 41.6542,21.6949 42.522,27.3356 41.6542,42.9559 34.7119,72.461 33.8441,97.1932" stroke="#7f0000" stroke-width="2" /></svg>