<?xml version="1.0" encoding="utf-8" ?>
<svg baseProfile="tiny" height="128" version="1.2" viewBox="0,0,128,128" width="128" xmlns="http://www.w3.org/2000/svg" xmlns:ev="http://www.w3.org/2001/xml-events" xmlns:xlink="http://www.w3.org/1999/xlink"><defs /><polyline fill="none" points="52.9356,9.1119 41.2203,13.4508 28.2034,22.9966 16.4881,39.0508 8.678,59.878 8.678,81.139 12.1492,92.8542 18.2237,104.1356 24.7322,111.5119 31.6746,116.2847 39.4847,118.8881 47.7288,119.322 55.9729,117.5864 64.2169,112.8136 96.7593,78.5356 107.6068,62.0475 110.2102,55.1051 110.6441,44.6915 108.0407,38.1831 99.3627,27.3356 88.0814,17.7898 76.8,10.8475 70.2915,8.678 62.4814,8.678 55.539,10.8475" stroke="#00007f" stroke-width="2" /><polyline fill="none" points="37.3153,16.922 28.6373,29.0712 19.0915,53.8034 16.922,62.9153 16.922,79.8373 22.1288,95.4576 31.2407,109.3424 36.4475,113.6814 42.0881,115.8508 46.4271,115.8508 51.2,110.2102" stroke="#0080ff" stroke-width="2" /><polyline fill="none" points="68.5559,11.7153 66.8203,12.1492 59.878,27.3356 56.4068,40.3525 54.2373,58.5763 54.6712,72.0271 63.3492,93.722 72.461,104.5695 76.3661,105.4373 78.1017,104.5695" stroke="#7cff79" stroke-width="2" /><polyline fill="none" points="9.5458,56.8407 16.922,48.5966 26.4678,40.7864 41.2203,33.4102 49.0305,31.6746 68.9898,32.1085 89.8169,35.5797 100.2305,42.522 104.1356,50.3322" stroke="#ff9400" stroke-width="2" /><polyline fill="none" points="13.8847,91.1186 19.5254,89.8169 23.4305,87.2136" stroke="#7f0000" stroke-width="2" /></svg>