<?xml version="1.0" encoding="utf-8" ?>
<svg baseProfile="tiny" height="128" version="1.2" viewBox="0,0,128,128" width="128" xmlns="http://www.w3.org/2000/svg" xmlns:ev="http://www.w3.org/2001/xml-events" xmlns:xlink="http://www.w3.org/1999/xlink"><defs /><polyline fill="none" points="76.6259,13.4966 66.6122,16.9796 33.5238,32.6531 25.2517,37.4422 14.8027,48.3265 10.449,54.4218 8.7075,60.517 9.5782,74.0136 12.1905,82.7211 16.9796,87.0748 43.5374,96.2177 70.0952,96.2177 76.6259,94.9116 87.5102,89.2517 103.1837,77.0612 106.2313,70.0952 108.8435,48.3265 107.102,35.2653 90.9932,26.1224 76.6259,10.0136 73.1429,8.7075" stroke="#00007f" stroke-width="2" /><polyline fill="none" points="12.6259,53.1156 22.6395,94.4762 24.8163,97.9592" stroke="#00d4ff" stroke-width="2" /><polyline fill="none" points="31.3469,38.3129 40.4898,80.1088 46.1497,93.1701" stroke="#ffe500" stroke-width="2" /><polyline fill="none" points="57.4694,31.3469 64.4354,73.5782 70.966,100.5714 77.0612,119.2925" stroke="#7f0000" stroke-width="2" /></svg>