<?xml version="1.0" encoding="utf-8" ?>
<svg baseProfile="tiny" height="128" version="1.2" viewBox="0,0,128,128" width="128" xmlns="http://www.w3.org/2000/svg" xmlns:ev="http://www.w3.org/2001/xml-events" xmlns:xlink="http://www.w3.org/1999/xlink"><defs /><polyline fill="none" points="58.5763,11.7153 54.6712,8.678 46.861,8.678 41.2203,10.4136 29.5051,17.3559 20.8271,24.7322 15.1864,37.7492 9.5458,57.7085 8.678,65.0847 8.678,83.7424 12.1492,94.5898 16.4881,101.0983 26.9017,111.9458 33.4102,116.7186 42.522,119.322 51.2,119.322 56.8407,116.2847 67.2542,107.6068 80.2712,91.1186 82.8746,82.8746 82.4407,69.4237 78.9695,53.8034 73.3288,41.2203 71.1593,32.9763 64.2169,19.5254 55.1051,16.4881 45.5593,16.4881 39.9186,19.9593" stroke="#00007f" stroke-width="2" /><polyline fill="none" points="41.2203,17.7898 42.9559,25.6 41.6542,47.7288 41.6542,106.739 43.8237,117.5864" stroke="#7f0000" stroke-width="2" /></svg>