<?xml version="1.0" encoding="utf-8" ?>
<svg baseProfile="tiny" height="128" version="1.2" viewBox="0,0,128,128" width="128" xmlns="http://www.w3.org/2000/svg" xmlns:ev="http://www.w3.org/2001/xml-events" xmlns:xlink="http://www.w3.org/1999/xlink"><defs /><polyline fill="none" points="39.0508,22.1288 32.9763,22.1288 23.4305,29.5051 14.7525,42.522 10.4136,52.9356 8.678,64.6508 9.9797,83.7424 11.7153,91.5525 15.6203,99.7966 26.0339,112.3797 37.3153,118.0203 45.9932,119.322 62.0475,117.5864 83.3085,108.9085 88.9492,103.7017 97.6271,91.5525 101.9661,78.9695 104.1356,68.122 104.1356,50.7661 102.8339,43.3898 98.9288,34.278 90.6847,22.1288 72.8949,11.7153 59.0102,11.2814 44.6915,13.4508 29.939,22.1288" stroke="#00007f" stroke-width="2" /><polyline fill="none" points="17.7898,36.8814 21.6949,39.9186 40.3525,49.0305 53.8034,66.3864 59.878,78.1017 63.7831,92.4203 65.0847,105.4373 64.2169,114.9831" stroke="#0000fe" stroke-width="2" /><polyline fill="none" points="25.1661,59.4441 29.939,57.7085 38.1831,50.7661 41.2203,47.7288 41.6542,43.3898" stroke="#0060ff" stroke-width="2" /><polyline fill="none" points="53.8034,59.4441 59.878,62.9153 61.1797,60.3119 59.878,58.1424" stroke="#00d4ff" stroke-width="2" /><polyline fill="none" points="52.5017,76.3661 60.3119,73.3288 65.9525,68.5559" stroke="#4cffaa" stroke-width="2" /><polyline fill="none" points="81.5729,8.678 77.2339,14.7525 72.8949,27.7695 73.3288,42.0881 78.5356,62.0475 82.0068,71.5932 93.722,91.1186 104.1356,98.4949 111.078,100.2305 113.6814,99.7966" stroke="#aaff4c" stroke-width="2" /><polyline fill="none" points="59.4441,33.8441 72.461,31.2407" stroke="#ffe500" stroke-width="2" /><polyline fill="none" points="74.1966,48.5966 85.0441,45.9932" stroke="#ff7a00" stroke-width="2" /><polyline fill="none" points="78.9695,67.2542 83.7424,68.5559" stroke="#fe1200" stroke-width="2" /><polyline fill="none" points="83.7424,92.8542 85.9119,90.6847" stroke="#7f0000" stroke-width="2" /></svg>