<?xml version="1.0" encoding="utf-8" ?>
<svg baseProfile="tiny" height="128" version="1.2" viewBox="0,0,128,128" width="128" xmlns="http://www.w3.org/2000/svg" xmlns:ev="http://www.w3.org/2001/xml-events" xmlns:xlink="http://www.w3.org/1999/xlink"><defs /><polyline fill="none" points="70.2915,16.922 44.6915,15.1864 33.8441,15.6203 19.5254,19.0915 11.7153,28.2034 8.678,38.6169 9.9797,50.7661 12.1492,57.2746 18.2237,65.5186 32.1085,78.5356 55.9729,92.8542 69.4237,97.1932 84.1763,97.6271 95.4576,92.4203 107.1729,84.6102 114.1153,74.1966 116.2847,65.5186 119.322,43.8237 118.8881,35.5797 114.5492,29.0712 105.8712,21.6949 91.1186,13.4508 83.3085,9.9797 70.7254,8.678 66.8203,9.5458 63.7831,13.4508" stroke="#00007f" stroke-width="2" /><polyline fill="none" points="47.7288,20.8271 46.861,39.9186 42.522,55.539 38.6169,65.0847 30.8068,73.7627" stroke="#7cff79" stroke-width="2" /><polyline fill="none" points="68.5559,18.6576 75.4983,50.7661 81.139,66.8203 91.1186,80.2712 98.9288,88.0814" stroke="#7f0000" stroke-width="2" /></svg>