<?xml version="1.0" encoding="utf-8" ?>
<svg baseProfile="tiny" height="128" version="1.2" viewBox="0,0,128,128" width="128" xmlns="http://www.w3.org/2000/svg" xmlns:ev="http://www.w3.org/2001/xml-events" xmlns:xlink="http://www.w3.org/1999/xlink"><defs /><polyline fill="none" points="17.7898,84.1763 16.4881,98.4949 17.3559,103.7017 19.5254,105.4373 49.0305,114.5492 66.3864,118.0203 79.4034,119.322 92.8542,116.7186 99.3627,108.0407 106.3051,88.5153 108.0407,65.9525 105.0034,49.8983 94.5898,31.2407 85.9119,19.0915 81.5729,14.3186 74.6305,10.4136 60.7458,8.678 50.7661,9.9797 30.8068,17.3559 21.6949,23.4305 14.7525,30.8068 9.9797,39.0508 8.678,44.2576 9.9797,62.0475 19.5254,88.0814" stroke="#00007f" stroke-width="2" /><polyline fill="none" points="18.2237,104.1356 32.9763,100.2305 47.7288,92.8542 71.5932,75.0644 75.9322,69.4237 84.1763,43.8237 80.2712,16.0542" stroke="#0080ff" stroke-width="2" /><polyline fill="none" points="75.0644,25.1661 84.6102,31.6746 86.7797,35.1458" stroke="#7cff79" stroke-width="2" /><polyline fill="none" points="81.5729,39.9186 85.478,49.8983" stroke="#ff9400" stroke-width="2" /><polyline fill="none" points="72.8949,64.6508 72.8949,72.0271" stroke="#7f0000" stroke-width="2" /></svg>