<?xml version="1.0" encoding="utf-8" ?>
<svg baseProfile="tiny" height="128" version="1.2" viewBox="0,0,128,128" width="128" xmlns="http://www.w3.org/2000/svg" xmlns:ev="http://www.w3.org/2001/xml-events" xmlns:xlink="http://www.w3.org/1999/xlink"><defs /><polyline fill="none" points="67.6881,14.3186 65.9525,10.8475 60.7458,8.678 44.2576,10.8475 30.3729,18.2237 22.9966,30.3729 21.6949,39.9186 22.1288,50.3322 26.9017,63.7831 33.8441,73.3288 48.1627,82.0068 72.461,85.478 94.5898,82.0068 102.4,78.9695 108.9085,75.0644 114.5492,69.4237 118.4542,60.7458 119.322,49.8983 117.5864,42.9559 113.2475,35.5797 106.739,29.5051 92.4203,20.8271 78.5356,15.1864 64.6508,13.0169" stroke="#00007f" stroke-width="2" /><polyline fill="none" points="64.2169,9.1119 57.2746,38.1831 54.6712,42.522 45.5593,52.9356 35.1458,59.4441 23.8644,63.7831 12.1492,64.6508 9.1119,63.7831 8.678,62.0475" stroke="#00d4ff" stroke-width="2" /><polyline fill="none" points="95.4576,22.9966 91.9864,24.7322 87.2136,29.939 77.6678,45.1254 72.0271,62.9153 70.2915,77.2339 71.5932,87.6475 74.1966,91.9864 78.1017,95.8915 84.6102,98.4949 90.6847,99.3627 95.0237,98.061 98.4949,93.2881" stroke="#ffe500" stroke-width="2" /><polyline fill="none" points="73.7627,12.1492 71.5932,27.3356 65.9525,42.9559 56.4068,66.3864 47.7288,82.4407" stroke="#7f0000" stroke-width="2" /></svg>