<?xml version="1.0" encoding="utf-8" ?>
<svg baseProfile="tiny" height="128" version="1.2" viewBox="0,0,128,128" width="128" xmlns="http://www.w3.org/2000/svg" xmlns:ev="http://www.w3.org/2001/xml-events" xmlns:xlink="http://www.w3.org/1999/xlink"><defs /><polyline fill="none" points="112.8136,28.2034 107.1729,23.8644 92.4203,16.0542 74.6305,9.9797 56.8407,8.678 46.861,13.4508 37.3153,19.9593 28.6373,29.5051 19.9593,40.3525 13.8847,51.6339 9.9797,62.0475 8.678,72.8949 9.1119,81.5729 13.4508,89.3831 28.2034,98.9288 50.7661,103.7017 62.4814,103.7017 74.1966,101.0983 96.3254,91.1186 110.6441,77.6678 118.4542,62.4814 119.322,54.6712 118.8881,45.5593 112.8136,30.8068 106.3051,20.8271 100.6644,17.3559" stroke="#00007f" stroke-width="2" /><polyline fill="none" points="39.0508,15.6203 48.1627,28.2034 50.3322,35.1458 57.2746,76.8 56.8407,88.5153 54.6712,95.4576 52.0678,95.4576" stroke="#00d4ff" stroke-width="2" /><polyline fill="none" points="103.7017,19.9593 95.0237,21.6949 90.6847,23.8644 85.0441,28.6373 79.8373,37.7492 78.1017,49.8983 78.1017,67.2542 80.7051,75.4983 88.0814,85.9119" stroke="#ffe500" stroke-width="2" /><polyline fill="none" points="13.0169,47.2949 51.6339,41.2203 70.7254,40.7864 80.7051,41.6542 87.6475,43.8237 98.4949,48.5966 98.061,49.4644" stroke="#7f0000" stroke-width="2" /></svg>