<?xml version="1.0" encoding="utf-8" ?>
<svg baseProfile="tiny" height="128" version="1.2" viewBox="0,0,128,128" width="128" xmlns="http://www.w3.org/2000/svg" xmlns:ev="http://www.w3.org/2001/xml-events" xmlns:xlink="http://www.w3.org/1999/xlink"><defs /><polyline fill="none" points="68.122,12.1492 48.1627,12.1492 37.3153,17.7898 24.7322,21.261 13.0169,29.939 8.678,45.5593 8.678,62.9153 13.4508,73.7627 24.7322,82.0068 37.7492,82.4407 48.5966,91.1186 59.4441,94.5898 81.139,94.5898 91.1186,91.1186 95.8915,78.5356 101.0983,69.8576 105.4373,44.6915 101.5322,35.1458 90.6847,21.261 77.2339,9.9797 72.0271,8.678 55.9729,8.678" stroke="#00007f" stroke-width="2" /><polyline fill="none" points="36.4475,18.2237 37.7492,26.9017 45.5593,37.7492 54.6712,42.0881 62.0475,52.0678 68.9898,68.122 75.4983,91.9864 75.4983,108.4746 73.3288,115.4169 68.5559,119.322" stroke="#7cff79" stroke-width="2" /><polyline fill="none" points="64.2169,13.0169 71.5932,32.9763 79.8373,41.6542 83.3085,46.861 90.6847,50.7661" stroke="#7f0000" stroke-width="2" /></svg>