<?xml version="1.0" encoding="utf-8" ?>
<svg baseProfile="tiny" height="128" version="1.2" viewBox="0,0,128,128" width="128" xmlns="http://www.w3.org/2000/svg" xmlns:ev="http://www.w3.org/2001/xml-events" xmlns:xlink="http://www.w3.org/1999/xlink"><defs /><polyline fill="none" points="96.3254,17.7898 90.2508,13.8847 78.1017,9.5458 67.2542,8.678 42.0881,18.6576 29.5051,28.2034 16.922,43.8237 10.4136,56.4068 8.678,75.0644 9.5458,86.7797 11.7153,93.2881 19.0915,103.2678 39.9186,111.078 62.9153,109.3424 76.3661,106.3051 92.8542,97.1932 110.2102,83.3085 114.1153,78.1017 118.4542,66.8203 119.322,50.7661 115.4169,40.7864 107.1729,29.939 95.0237,22.5627" stroke="#00007f" stroke-width="2" /><polyline fill="none" points="34.7119,19.9593 36.8814,25.1661 37.7492,67.6881 36.0136,82.8746 30.8068,100.2305" stroke="#7cff79" stroke-width="2" /><polyline fill="none" points="98.061,19.9593 93.2881,20.8271 82.8746,32.1085 77.2339,41.6542 77.2339,46.861 74.1966,58.1424 74.1966,68.122 77.2339,74.1966 88.9492,88.9492" stroke="#7f0000" stroke-width="2" /></svg>