<?xml version="1.0" encoding="utf-8" ?>
<svg baseProfile="tiny" height="128" version="1.2" viewBox="0,0,128,128" width="128" xmlns="http://www.w3.org/2000/svg" xmlns:ev="http://www.w3.org/2001/xml-events" xmlns:xlink="http://www.w3.org/1999/xlink"><defs /><polyline fill="none" points="46.4271,10.4136 29.939,10.4136 24.7322,12.1492 19.9593,16.0542 15.6203,22.1288 9.5458,38.6169 8.678,59.4441 9.9797,65.0847 15.6203,72.0271 24.2983,78.5356 32.1085,81.5729 40.3525,80.7051 48.5966,77.2339 54.2373,72.461 68.5559,49.0305 69.8576,42.522 69.4237,29.939 62.4814,18.2237 52.9356,11.2814" stroke="#00007f" stroke-width="2" /><polyline fill="none" points="15.6203,56.8407 22.1288,55.539 36.0136,55.539 39.9186,56.4068 43.8237,64.2169 50.7661,71.1593" stroke="#0000c8" stroke-width="2" /><polyline fill="none" points="22.1288,28.6373 29.5051,30.3729 39.0508,38.1831 48.1627,41.2203 55.1051,40.7864 61.6136,34.278 70.2915,30.8068" stroke="#0000ff" stroke-width="2" /><polyline fill="none" points="74.1966,12.1492 94.5898,37.3153 103.7017,51.2" stroke="#0040ff" stroke-width="2" /><polyline fill="none" points="95.8915,8.678 104.1356,23.8644 119.322,57.2746" stroke="#0080ff" stroke-width="2" /><polyline fill="none" points="19.9593,25.1661 34.278,34.7119 43.8237,36.8814 61.1797,36.8814 74.6305,32.9763" stroke="#00c0ff" stroke-width="2" /><polyline fill="none" points="16.0542,65.0847 15.6203,61.6136 22.9966,57.7085 40.7864,57.7085 52.9356,71.5932 55.1051,71.1593" stroke="#15ffe1" stroke-width="2" /><polyline fill="none" points="19.9593,42.9559 19.9593,42.9559" stroke="#49ffad" stroke-width="2" /><polyline fill="none" points="32.5424,46.4271 32.5424,46.4271" stroke="#7cff79" stroke-width="2" /><polyline fill="none" points="39.4847,45.9932 39.4847,45.9932" stroke="#b0ff46" stroke-width="2" /><polyline fill="none" points="50.3322,46.861 50.3322,46.861" stroke="#e4ff12" stroke-width="2" /><polyline fill="none" points="55.9729,48.1627 55.9729,48.1627" stroke="#ffcf00" stroke-width="2" /><polyline fill="none" points="60.3119,49.4644 60.3119,49.4644" stroke="#ff9400" stroke-width="2" /><polyline fill="none" points="65.0847,50.7661 65.0847,50.7661" stroke="#ff5900" stroke-width="2" /><polyline fill="none" points="59.0102,53.8034 59.0102,53.3695" stroke="#ff1d00" stroke-width="2" /><polyline fill="none" points="50.3322,49.4644 48.5966,49.4644" stroke="#c30000" stroke-width="2" /><polyline fill="none" points="33.8441,50.3322 33.8441,50.3322" stroke="#7f0000" stroke-width="2" /></svg>