<?xml version="1.0" encoding="utf-8" ?>
<svg baseProfile="tiny" height="128" version="1.2" viewBox="0,0,128,128" width="128" xmlns="http://www.w3.org/2000/svg" xmlns:ev="http://www.w3.org/2001/xml-events" xmlns:xlink="http://www.w3.org/1999/xlink"><defs /><polyline fill="none" points="72.461,19.9593 65.9525,17.7898 52.9356,17.7898 36.0136,20.3932 27.7695,23.4305 20.3932,29.5051 11.2814,53.3695 8.678,66.8203 9.1119,76.8 11.7153,79.8373 16.922,82.0068 46.861,85.478 67.6881,85.478 87.6475,82.8746 97.6271,76.3661 107.6068,65.5186 113.6814,55.1051 119.322,41.2203 118.8881,32.5424 117.1525,26.4678 113.2475,20.3932 101.5322,12.1492 88.0814,9.1119 75.0644,8.678 58.5763,13.8847" stroke="#00007f" stroke-width="2" /><polyline fill="none" points="49.0305,18.6576 51.6339,22.5627 53.8034,32.9763 54.2373,49.8983 50.7661,56.8407 40.3525,67.6881" stroke="#00d4ff" stroke-width="2" /><polyline fill="none" points="77.6678,16.922 78.1017,27.3356 89.8169,62.4814 95.8915,75.9322 101.5322,77.6678" stroke="#ffe500" stroke-width="2" /><polyline fill="none" points="46.861,57.7085 45.1254,66.8203 39.9186,75.0644 27.7695,84.1763 26.4678,83.7424" stroke="#7f0000" stroke-width="2" /></svg>