<?xml version="1.0" encoding="utf-8" ?>
<svg baseProfile="tiny" height="128" version="1.2" viewBox="0,0,128,128" width="128" xmlns="http://www.w3.org/2000/svg" xmlns:ev="http://www.w3.org/2001/xml-events" xmlns:xlink="http://www.w3.org/1999/xlink"><defs /><polyline fill="none" points="68.122,14.7525 66.8203,13.8847 60.3119,13.8847 49.8983,17.3559 24.7322,32.9763 16.922,42.0881 12.1492,52.0678 9.9797,58.5763 8.678,76.8 9.5458,81.139 14.7525,87.6475 39.4847,105.0034 52.5017,110.6441 68.9898,111.078 78.9695,106.739 82.4407,103.7017 100.2305,82.8746 115.8508,56.8407 118.4542,49.8983 119.322,36.0136 116.2847,21.6949 114.5492,19.0915 109.7763,16.4881 66.3864,15.1864" stroke="#00007f" stroke-width="2" /><polyline fill="none" points="98.9288,13.0169 84.1763,20.8271 72.0271,31.6746 63.3492,43.8237 56.4068,59.4441 52.9356,73.3288 53.3695,88.9492 56.4068,92.8542 70.7254,95.4576" stroke="#0010ff" stroke-width="2" /><polyline fill="none" points="51.2,8.678 54.2373,17.3559 55.539,34.278 55.539,49.0305 54.2373,55.539 51.6339,61.1797 45.1254,67.2542 19.0915,79.8373" stroke="#00a4ff" stroke-width="2" /><polyline fill="none" points="72.8949,44.6915 87.2136,39.0508 78.5356,42.0881 55.539,46.861 46.4271,49.8983" stroke="#3fffb7" stroke-width="2" /><polyline fill="none" points="70.2915,48.5966 75.4983,48.1627" stroke="#b7ff3f" stroke-width="2" /><polyline fill="none" points="29.5051,49.0305 45.1254,55.9729 48.5966,59.0102 49.4644,62.0475" stroke="#ffb900" stroke-width="2" /><polyline fill="none" points="48.1627,68.122 38.6169,70.7254 38.1831,73.7627 39.4847,75.4983 52.0678,76.3661 97.1932,85.0441" stroke="#ff3000" stroke-width="2" /><polyline fill="none" points="95.8915,84.6102 77.6678,78.5356" stroke="#7f0000" stroke-width="2" /></svg>