<?xml version="1.0" encoding="utf-8" ?>
<svg baseProfile="tiny" height="128" version="1.2" viewBox="0,0,128,128" width="128" xmlns="http://www.w3.org/2000/svg" xmlns:ev="http://www.w3.org/2001/xml-events" xmlns:xlink="http://www.w3.org/1999/xlink"><defs /><polyline fill="none" points="37.8776,13.4966 28.2993,12.6259 16.5442,17.8503 9.1429,25.2517 8.7075,32.2177 15.6735,36.5714 25.2517,39.1837 40.4898,40.0544 50.068,37.0068 56.1633,31.3469 56.5986,21.7687 49.6327,17.415 36.1361,14.3673" stroke="#00007f" stroke-width="2" /><polyline fill="none" points="20.0272,15.6735 34.8299,31.7823 45.2789,38.7483" stroke="#0000e8" stroke-width="2" /><polyline fill="none" points="34.8299,16.1088 53.1156,31.3469" stroke="#0038ff" stroke-width="2" /><polyline fill="none" points="45.2789,19.1565 10.8844,33.0884" stroke="#0094ff" stroke-width="2" /><polyline fill="none" points="16.5442,21.7687 16.9796,24.381 24.381,34.8299" stroke="#0cf4ea" stroke-width="2" /><polyline fill="none" points="23.5102,31.7823 27.4286,36.1361" stroke="#56ffa0" stroke-width="2" /><polyline fill="none" points="29.1701,16.9796 33.9592,23.5102 49.6327,36.1361" stroke="#a0ff56" stroke-width="2" /><polyline fill="none" points="33.0884,18.7211 30.9116,17.415 26.9932,9.5782" stroke="#eaff0c" stroke-width="2" /><polyline fill="none" points="63.1293,70.0952 64.8707,74.8844 70.0952,77.0612 71.4014,77.0612 74.8844,70.5306" stroke="#ffaa00" stroke-width="2" /><polyline fill="none" points="63.5646,71.4014 69.2245,64.8707" stroke="#ff5500" stroke-width="2" /><polyline fill="none" points="64.8707,68.3537 78.8027,54.8571 87.5102,42.2313 95.7823,26.5578 99.7007,8.7075" stroke="#e80000" stroke-width="2" /><polyline fill="none" points="73.5782,73.1429 87.9456,64.4354 107.102,45.2789 117.1156,25.6871 119.2925,10.8844" stroke="#7f0000" stroke-width="2" /></svg>