<?xml version="1.0" encoding="utf-8" ?>
<svg baseProfile="tiny" height="128" version="1.2" viewBox="0,0,128,128" width="128" xmlns="http://www.w3.org/2000/svg" xmlns:ev="http://www.w3.org/2001/xml-events" xmlns:xlink="http://www.w3.org/1999/xlink"><defs /><polyline fill="none" points="57.2746,13.0169 38.1831,12.5831 29.0712,15.1864 21.6949,19.9593 15.6203,27.7695 9.9797,42.522 8.678,56.4068 10.8475,68.122 19.9593,84.1763 26.4678,91.1186 36.8814,98.9288 46.4271,102.8339 58.5763,105.4373 93.2881,108.9085 103.2678,108.9085 107.6068,106.739 111.5119,103.2678 115.8508,96.3254 119.322,75.9322 119.322,65.5186 118.4542,56.8407 112.8136,41.6542 109.7763,37.3153 105.0034,34.278 78.1017,20.8271 56.8407,13.8847 32.5424,8.678 28.6373,9.5458 28.2034,11.2814" stroke="#00007f" stroke-width="2" /><polyline fill="none" points="37.3153,17.3559 39.0508,18.2237 42.522,24.7322 47.2949,42.522 46.4271,60.7458 39.9186,94.5898" stroke="#7cff79" stroke-width="2" /><polyline fill="none" points="93.722,27.3356 90.6847,80.2712 93.722,90.2508 97.6271,96.7593" stroke="#7f0000" stroke-width="2" /></svg>