<?xml version="1.0" encoding="utf-8" ?>
<svg baseProfile="tiny" height="128" version="1.2" viewBox="0,0,128,128" width="128" xmlns="http://www.w3.org/2000/svg" xmlns:ev="http://www.w3.org/2001/xml-events" xmlns:xlink="http://www.w3.org/1999/xlink"><defs /><polyline fill="none" points="101.5322,12.1492 95.4576,9.1119 80.7051,9.1119 42.9559,15.1864 22.5627,21.261 18.2237,23.8644 12.1492,31.6746 8.678,40.7864 9.5458,50.3322 16.4881,60.3119 25.6,67.2542 64.2169,78.5356 77.6678,80.2712 101.9661,79.4034 110.2102,74.6305 112.8136,71.1593 118.4542,55.539 119.322,47.2949 118.8881,35.1458 115.8508,19.9593 110.2102,10.8475 106.739,8.678 104.1356,8.678" stroke="#00007f" stroke-width="2" /><polyline fill="none" points="30.8068,17.7898 39.0508,25.6 43.3898,36.4475 42.0881,45.5593 36.0136,59.4441 31.6746,64.6508" stroke="#7cff79" stroke-width="2" /><polyline fill="none" points="101.9661,9.5458 84.6102,30.8068 82.0068,39.4847 82.0068,48.1627 84.1763,55.539 89.3831,63.7831 102.4,75.0644 108.0407,77.6678" stroke="#7f0000" stroke-width="2" /></svg>