<?xml version="1.0" encoding="utf-8" ?>
<svg baseProfile="tiny" height="128" version="1.2" viewBox="0,0,128,128" width="128" xmlns="http://www.w3.org/2000/svg" xmlns:ev="http://www.w3.org/2001/xml-events" xmlns:xlink="http://www.w3.org/1999/xlink"><defs /><polyline fill="none" points="67.2542,12.1492 54.6712,13.4508 43.3898,16.922 27.3356,28.6373 19.0915,38.1831 10.4136,58.1424 8.678,68.122 10.8475,78.9695 14.7525,88.9492 21.261,98.061 34.7119,107.6068 49.4644,114.1153 60.3119,115.8508 69.8576,115.4169 83.3085,111.5119 93.2881,105.8712 101.9661,97.1932 111.9458,82.0068 115.4169,68.122 115.8508,58.5763 113.6814,49.0305 106.739,36.4475 98.4949,26.9017 82.4407,15.1864 66.8203,8.678 65.0847,9.9797" stroke="#00007f" stroke-width="2" /><polyline fill="none" points="82.4407,18.6576 76.8,29.0712 74.6305,37.7492 74.1966,48.1627 75.9322,59.0102 82.0068,76.8 89.8169,91.1186 97.1932,100.6644 100.6644,103.7017 104.5695,104.5695" stroke="#0010ff" stroke-width="2" /><polyline fill="none" points="23.4305,27.3356 43.8237,39.0508 50.3322,47.7288 53.8034,55.539 55.539,70.2915 45.9932,119.322" stroke="#00a4ff" stroke-width="2" /><polyline fill="none" points="39.4847,101.5322 50.7661,103.2678 61.6136,103.2678 65.0847,101.5322" stroke="#3fffb7" stroke-width="2" /><polyline fill="none" points="38.1831,85.478 62.9153,82.4407" stroke="#b7ff3f" stroke-width="2" /><polyline fill="none" points="39.9186,69.8576 58.5763,59.0102" stroke="#ffb900" stroke-width="2" /><polyline fill="none" points="32.5424,48.5966 41.6542,40.3525 42.0881,37.3153" stroke="#ff3000" stroke-width="2" /><polyline fill="none" points="16.0542,44.6915 41.2203,35.1458" stroke="#7f0000" stroke-width="2" /></svg>