<?xml version="1.0" encoding="utf-8" ?>
<svg baseProfile="tiny" height="128" version="1.2" viewBox="0,0,128,128" width="128" xmlns="http://www.w3.org/2000/svg" xmlns:ev="http://www.w3.org/2001/xml-events" xmlns:xlink="http://www.w3.org/1999/xlink"><defs /><polyline fill="none" points="83.7424,21.6949 78.5356,14.3186 68.9898,9.5458 57.7085,8.678 44.6915,12.1492 32.9763,19.9593 20.8271,33.8441 16.0542,42.522 10.4136,62.0475 8.678,73.3288 9.9797,93.722 13.4508,101.9661 23.8644,113.2475 38.1831,118.8881 47.2949,119.322 56.4068,118.8881 65.9525,116.7186 75.4983,112.3797 92.4203,99.7966 105.8712,82.4407 111.9458,72.461 115.8508,53.3695 114.5492,37.7492 110.2102,31.2407 101.5322,22.9966 91.1186,17.7898 84.6102,16.4881" stroke="#00007f" stroke-width="2" /><polyline fill="none" points="26.0339,34.278 30.3729,34.7119 38.1831,39.0508 46.861,51.2 49.8983,68.122 49.0305,115.8508 50.3322,113.6814" stroke="#7cff79" stroke-width="2" /><polyline fill="none" points="88.9492,16.922 79.4034,28.6373 74.1966,49.8983 74.1966,64.6508 78.1017,82.8746 86.3458,105.0034" stroke="#7f0000" stroke-width="2" /></svg>