<?xml version="1.0" encoding="utf-8" ?>
<svg baseProfile="tiny" height="128" version="1.2" viewBox="0,0,128,128" width="128" xmlns="http://www.w3.org/2000/svg" xmlns:ev="http://www.w3.org/2001/xml-events" xmlns:xlink="http://www.w3.org/1999/xlink"><defs /><polyline fill="none" points="75.9322,15.6203 58.1424,12.1492 45.5593,13.0169 34.7119,17.3559 20.8271,31.6746 12.1492,51.2 8.678,68.5559 9.1119,89.3831 13.0169,100.6644 18.2237,107.1729 27.3356,113.6814 46.861,119.322 57.2746,119.322 65.0847,115.8508 70.7254,111.5119 82.4407,95.0237 93.2881,65.5186 93.2881,51.6339 82.4407,35.1458 80.7051,27.7695 72.0271,12.1492 71.5932,8.678" stroke="#00007f" stroke-width="2" /><polyline fill="none" points="30.8068,16.922 36.0136,25.1661 45.1254,51.6339 48.5966,73.3288 47.7288,81.5729 42.0881,91.1186 32.1085,96.3254 16.0542,98.9288 10.4136,98.9288 13.4508,96.7593" stroke="#7cff79" stroke-width="2" /><polyline fill="none" points="69.4237,17.7898 62.4814,20.3932 58.5763,22.9966 52.0678,35.5797 49.0305,56.4068 50.3322,74.1966 59.0102,91.9864 66.8203,100.6644 72.8949,105.4373 85.9119,113.2475 94.1559,115.8508 99.7966,115.8508 101.5322,111.5119" stroke="#7f0000" stroke-width="2" /></svg>