<?xml version="1.0" encoding="utf-8" ?>
<svg baseProfile="tiny" height="128" version="1.2" viewBox="0,0,128,128" width="128" xmlns="http://www.w3.org/2000/svg" xmlns:ev="http://www.w3.org/2001/xml-events" xmlns:xlink="http://www.w3.org/1999/xlink"><defs /><polyline fill="none" points="72.461,116.2847 26.0339,103.2678 19.5254,99.7966 12.5831,91.5525 8.678,78.9695 8.678,71.5932 36.0136,32.1085 49.4644,21.6949 71.5932,9.5458 83.7424,8.678 91.9864,9.9797 101.9661,15.6203 107.1729,21.261 116.2847,36.0136 119.322,44.2576 119.322,67.6881 116.2847,76.3661 110.2102,85.0441 91.9864,98.9288 85.9119,103.2678 81.5729,104.1356" stroke="#00007f" stroke-width="2" /><polyline fill="none" points="106.3051,23.8644 89.8169,33.8441 82.8746,50.3322 82.8746,62.4814 84.6102,76.3661 88.9492,88.0814 95.0237,97.1932" stroke="#00d4ff" stroke-width="2" /><polyline fill="none" points="35.1458,36.0136 39.0508,52.5017 48.1627,71.5932 51.2,84.6102 50.3322,95.8915 45.1254,108.0407" stroke="#ffe500" stroke-width="2" /><polyline fill="none" points="12.5831,86.7797 26.0339,75.4983" stroke="#7f0000" stroke-width="2" /></svg>