<?xml version="1.0" encoding="utf-8" ?>
<svg baseProfile="tiny" height="128" version="1.2" viewBox="0,0,128,128" width="128" xmlns="http://www.w3.org/2000/svg" xmlns:ev="http://www.w3.org/2001/xml-events" xmlns:xlink="http://www.w3.org/1999/xlink"><defs /><polyline fill="none" points="80.7051,11.2814 67.2542,8.678 56.8407,9.1119 49.0305,13.8847 30.3729,31.6746 21.261,43.8237 13.4508,56.4068 9.9797,66.3864 8.678,73.3288 9.9797,79.8373 16.0542,86.3458 25.6,91.5525 36.8814,95.4576 50.3322,96.7593 61.1797,96.7593 73.7627,95.0237 95.8915,85.478 105.0034,78.5356 110.6441,71.1593 117.5864,57.2746 119.322,42.0881 116.2847,31.2407 110.6441,21.6949 105.0034,16.4881 98.9288,13.8847 86.7797,11.7153 72.8949,11.2814" stroke="#00007f" stroke-width="2" /><polyline fill="none" points="48.5966,13.4508 56.8407,29.5051 60.3119,41.6542 62.9153,59.4441 62.9153,72.8949 55.539,84.6102 39.0508,96.7593" stroke="#7cff79" stroke-width="2" /><polyline fill="none" points="82.8746,22.1288 85.9119,16.4881 89.8169,13.8847 90.2508,16.922 76.8,46.861 74.6305,64.2169 75.4983,78.5356 80.7051,87.2136 86.7797,91.9864 92.4203,94.1559 102.8339,94.1559" stroke="#7f0000" stroke-width="2" /></svg>