<?xml version="1.0" encoding="utf-8" ?>
<svg baseProfile="tiny" height="128" version="1.2" viewBox="0,0,128,128" width="128" xmlns="http://www.w3.org/2000/svg" xmlns:ev="http://www.w3.org/2001/xml-events" xmlns:xlink="http://www.w3.org/1999/xlink"><defs /><polyline fill="none" points="23.4305,19.5254 44.6915,9.9797 51.2,8.678 72.461,8.678 79.4034,9.9797 103.2678,29.939 108.4746,36.8814 116.7186,56.4068 119.322,71.1593 119.322,84.6102 116.7186,92.4203 107.6068,101.9661 98.061,107.1729 84.6102,107.1729 64.6508,104.5695 38.1831,91.5525 20.8271,80.7051 13.8847,74.1966 9.9797,67.2542 8.678,59.0102 8.678,43.3898 10.4136,35.1458 15.6203,28.6373 27.3356,20.8271 45.9932,19.5254" stroke="#00007f" stroke-width="2" /><polyline fill="none" points="38.1831,32.5424 38.1831,65.9525 42.0881,83.3085" stroke="#00d4ff" stroke-width="2" /><polyline fill="none" points="67.2542,18.2237 64.6508,26.4678 64.6508,50.3322 68.5559,75.4983 74.1966,83.3085" stroke="#ffe500" stroke-width="2" /><polyline fill="none" points="91.1186,26.0339 89.8169,35.5797 89.8169,56.8407 96.7593,82.0068" stroke="#7f0000" stroke-width="2" /></svg>