<?xml version="1.0" encoding="utf-8" ?>
<svg baseProfile="tiny" height="128" version="1.2" viewBox="0,0,128,128" width="128" xmlns="http://www.w3.org/2000/svg" xmlns:ev="http://www.w3.org/2001/xml-events" xmlns:xlink="http://www.w3.org/1999/xlink"><defs /><polyline fill="none" points="59.0102,15.1864 44.6915,11.7153 37.3153,11.7153 34.278,13.4508 21.6949,25.6 15.6203,35.1458 13.0169,42.9559 8.678,62.9153 8.678,78.1017 14.3186,96.7593 23.8644,114.5492 27.3356,117.5864 30.3729,119.322 38.6169,118.8881 72.461,107.1729 83.3085,98.061 88.5153,91.5525 91.5525,79.4034 90.6847,64.6508 86.7797,53.3695 72.0271,26.9017 60.3119,14.3186 50.3322,8.678" stroke="#00007f" stroke-width="2" /><polyline fill="none" points="24.7322,14.3186 29.0712,30.3729 40.3525,60.7458 44.2576,81.139 39.4847,100.2305 31.6746,114.1153" stroke="#7f0000" stroke-width="2" /></svg>