<?xml version="1.0" encoding="utf-8" ?>
<svg baseProfile="tiny" height="128" version="1.2" viewBox="0,0,128,128" width="128" xmlns="http://www.w3.org/2000/svg" xmlns:ev="http://www.w3.org/2001/xml-events" xmlns:xlink="http://www.w3.org/1999/xlink"><defs /><polyline fill="none" points="87.9456,22.6395 80.9796,29.6054 75.7551,42.2313 74.8844,50.9388 77.0612,60.0816 83.1565,64.4354 92.7347,66.1769 111.0204,65.3061 115.8095,62.6939 118.8571,54.4218 119.2925,47.0204 114.068,32.2177 108.8435,26.9932 101.4422,23.0748 83.5918,16.1088 83.1565,24.381 61.8231,29.1701" stroke="#00007f" stroke-width="2" /><polyline fill="none" points="14.8027,59.6463 11.3197,55.7279 8.7075,58.3401 9.1429,64.0 11.3197,66.1769 16.9796,67.0476 19.1565,64.8707 22.2041,57.4694 25.2517,38.3129 36.1361,9.1429 46.585,8.7075 43.9728,20.898 43.9728,30.4762 37.4422,41.3605 33.9592,51.3741 34.3946,62.2585 31.7823,66.6122 27.4286,68.7891 18.7211,63.1293 21.3333,63.5646" stroke="#7f0000" stroke-width="2" /></svg>