<?xml version="1.0" encoding="utf-8" ?>
<svg baseProfile="tiny" height="128" version="1.2" viewBox="0,0,128,128" width="128" xmlns="http://www.w3.org/2000/svg" xmlns:ev="http://www.w3.org/2001/xml-events" xmlns:xlink="http://www.w3.org/1999/xlink"><defs /><polyline fill="none" points="61.6136,8.678 31.2407,8.678 26.4678,12.1492 19.9593,23.4305 10.8475,44.6915 8.678,52.0678 8.678,65.0847 9.9797,69.4237 20.3932,84.1763 36.8814,98.061 49.8983,104.1356 58.1424,106.3051 72.0271,108.4746 88.0814,108.4746 110.2102,100.6644 116.7186,97.1932 119.322,93.2881 119.322,76.8 118.0203,69.8576 114.9831,60.7458 107.6068,48.5966 87.6475,23.8644 64.2169,9.9797" stroke="#00007f" stroke-width="2" /><polyline fill="none" points="42.522,9.9797 42.522,29.0712 46.4271,41.6542 52.5017,52.5017 65.5186,68.9898 70.2915,72.0271 83.7424,85.0441 93.2881,90.2508 101.5322,93.2881 112.3797,93.722" stroke="#7f0000" stroke-width="2" /></svg>