<?xml version="1.0" encoding="utf-8" ?>
<svg baseProfile="tiny" height="128" version="1.2" viewBox="0,0,128,128" width="128" xmlns="http://www.w3.org/2000/svg" xmlns:ev="http://www.w3.org/2001/xml-events" xmlns:xlink="http://www.w3.org/1999/xlink"><defs /><polyline fill="none" points="92.8542,11.2814 84.6102,9.1119 61.6136,9.5458 37.3153,20.8271 17.7898,34.278 13.8847,38.6169 9.5458,47.7288 8.678,53.8034 10.4136,62.0475 14.3186,68.5559 25.1661,80.2712 44.6915,94.1559 64.2169,99.3627 85.9119,99.3627 105.4373,85.478 116.7186,69.4237 118.8881,64.6508 119.322,51.2 113.2475,33.4102 101.9661,17.3559 85.478,8.678" stroke="#00007f" stroke-width="2" /><polyline fill="none" points="56.4068,13.0169 66.8203,19.5254 73.3288,29.0712 76.3661,39.9186 76.3661,51.2 73.7627,58.5763 66.8203,67.6881 55.9729,73.3288 38.6169,77.6678 26.4678,77.6678" stroke="#7cff79" stroke-width="2" /><polyline fill="none" points="112.3797,37.3153 100.6644,36.4475 98.061,37.3153 89.3831,43.3898 83.3085,55.539 82.4407,65.5186 85.478,75.0644 88.0814,79.4034 99.3627,86.3458" stroke="#7f0000" stroke-width="2" /></svg>