<?xml version="1.0" encoding="utf-8" ?>
<svg baseProfile="tiny" height="128" version="1.2" viewBox="0,0,128,128" width="128" xmlns="http://www.w3.org/2000/svg" xmlns:ev="http://www.w3.org/2001/xml-events" xmlns:xlink="http://www.w3.org/1999/xlink"><defs /><polyline fill="none" points="37.3153,21.6949 46.4271,12.5831 58.5763,8.678 73.7627,8.678 95.0237,15.6203 105.8712,23.8644 113.2475,35.1458 118.4542,49.8983 119.322,61.6136 118.0203,72.8949 113.2475,86.3458 107.6068,95.8915 98.4949,101.5322 85.9119,105.4373 65.0847,106.739 47.2949,104.5695 34.278,100.2305 25.1661,95.0237 15.6203,85.0441 9.9797,73.7627 8.678,62.4814 9.1119,48.5966 12.1492,39.9186 20.8271,25.1661 32.9763,14.3186 41.6542,14.3186 48.5966,21.6949 54.2373,40.3525 55.539,56.4068 55.539,81.139 53.3695,90.6847 49.8983,97.6271 43.8237,104.5695 38.6169,107.6068 36.0136,107.1729" stroke="#00007f" stroke-width="2" /><polyline fill="none" points="100.2305,18.2237 95.0237,21.261 86.7797,31.2407 76.3661,52.5017 73.3288,65.0847 72.461,73.7627 74.6305,91.1186 78.5356,97.6271 85.9119,102.8339" stroke="#004cff" stroke-width="2" /><polyline fill="none" points="77.6678,20.8271 88.9492,25.6" stroke="#29ffcd" stroke-width="2" /><polyline fill="none" points="77.2339,61.1797 82.0068,64.6508" stroke="#cdff29" stroke-width="2" /><polyline fill="none" points="75.0644,91.1186 88.5153,91.9864" stroke="#ff6700" stroke-width="2" /><polyline fill="none" points="44.2576,29.5051 50.3322,27.3356" stroke="#7f0000" stroke-width="2" /></svg>