<?xml version="1.0" encoding="utf-8" ?>
<svg baseProfile="tiny" height="128" version="1.2" viewBox="0,0,128,128" width="128" xmlns="http://www.w3.org/2000/svg" xmlns:ev="http://www.w3.org/2001/xml-events" xmlns:xlink="http://www.w3.org/1999/xlink"><defs /><polyline fill="none" points="34.278,114.9831 36.0136,112.3797 39.4847,112.3797 40.7864,118.0203 37.7492,119.322 35.5797,115.4169 35.5797,108.9085" stroke="#00007f" stroke-width="2" /><polyline fill="none" points="38.6169,110.6441 38.1831,103.2678 39.4847,98.4949 59.4441,32.9763 67.2542,19.5254 71.1593,16.4881 75.4983,14.3186 82.4407,13.4508 85.478,14.3186 88.0814,16.922 92.4203,24.2983 96.3254,36.8814 96.7593,44.2576 94.5898,52.9356 79.4034,73.7627 42.0881,114.5492" stroke="#0080ff" stroke-width="2" /><polyline fill="none" points="57.2746,51.2 58.1424,59.4441 64.6508,75.0644 68.122,77.2339 81.139,78.1017" stroke="#7cff79" stroke-width="2" /><polyline fill="none" points="27.7695,9.9797 16.922,9.1119 13.4508,10.8475 11.2814,15.1864 8.678,29.5051 8.678,41.2203 12.5831,49.0305 17.7898,55.1051 26.9017,58.1424 33.4102,57.2746 41.6542,48.1627 46.4271,26.9017 46.4271,18.2237 44.2576,13.4508 37.3153,9.1119 29.0712,8.678 25.1661,9.9797" stroke="#ff9400" stroke-width="2" /><polyline fill="none" points="10.4136,33.8441 13.0169,36.0136 30.3729,36.0136 40.3525,26.0339" stroke="#7f0000" stroke-width="2" /></svg>