<?xml version="1.0" encoding="utf-8" ?>
<svg baseProfile="tiny" height="128" version="1.2" viewBox="0,0,128,128" width="128" xmlns="http://www.w3.org/2000/svg" xmlns:ev="http://www.w3.org/2001/xml-events" xmlns:xlink="http://www.w3.org/1999/xlink"><defs /><polyline fill="none" points="68.122,14.3186 65.9525,12.5831 54.2373,11.2814 42.9559,11.7153 36.0136,14.3186 26.9017,19.5254 19.9593,26.4678 11.2814,41.6542 8.678,61.6136 8.678,78.1017 9.9797,82.8746 16.922,95.4576 23.4305,102.4 31.2407,109.3424 40.3525,115.4169 52.9356,119.322 62.4814,119.322 72.0271,117.5864 80.2712,113.6814 89.3831,106.3051 100.6644,91.9864 105.8712,82.0068 108.0407,70.2915 106.739,45.5593 102.8339,32.1085 96.7593,21.6949 87.2136,14.3186 78.1017,10.8475 55.9729,8.678" stroke="#00007f" stroke-width="2" /><polyline fill="none" points="35.5797,12.1492 22.5627,36.8814 21.6949,52.9356 27.3356,65.0847 32.5424,71.5932 43.3898,80.7051 56.4068,85.478 65.0847,85.9119 71.5932,84.6102 76.8,82.0068 83.7424,74.6305 85.9119,67.2542 84.1763,30.8068 89.8169,22.9966 94.5898,21.6949" stroke="#0000fe" stroke-width="2" /><polyline fill="none" points="18.6576,29.0712 30.8068,28.6373" stroke="#0060ff" stroke-width="2" /><polyline fill="none" points="20.3932,56.4068 26.9017,52.9356" stroke="#00d4ff" stroke-width="2" /><polyline fill="none" points="37.3153,81.139 38.6169,77.6678 43.8237,70.7254" stroke="#4cffaa" stroke-width="2" /><polyline fill="none" points="70.7254,92.4203 69.8576,84.6102 72.461,75.9322" stroke="#aaff4c" stroke-width="2" /><polyline fill="none" points="83.3085,66.8203 92.4203,71.5932" stroke="#ffe500" stroke-width="2" /><polyline fill="none" points="75.9322,57.2746 92.4203,61.1797" stroke="#ff7a00" stroke-width="2" /><polyline fill="none" points="79.8373,43.3898 91.1186,47.2949" stroke="#fe1200" stroke-width="2" /><polyline fill="none" points="87.2136,17.3559 87.2136,17.3559" stroke="#7f0000" stroke-width="2" /></svg>