<?xml version="1.0" encoding="utf-8" ?>
<svg baseProfile="tiny" height="128" version="1.2" viewBox="0,0,128,128" width="128" xmlns="http://www.w3.org/2000/svg" xmlns:ev="http://www.w3.org/2001/xml-events" xmlns:xlink="http://www.w3.org/1999/xlink"><defs /><polyline fill="none" points="99.3627,17.3559 74.1966,18.2237 59.878,20.8271 24.2983,32.9763 11.2814,43.8237 8.678,54.6712 8.678,68.5559 11.2814,82.8746 13.8847,90.2508 20.8271,101.0983 28.2034,109.7763 34.7119,114.1153 45.9932,116.7186 84.1763,110.6441 100.2305,102.8339 108.9085,95.8915 113.2475,91.5525 119.322,81.5729 117.5864,72.0271 97.6271,40.3525 95.0237,26.9017 78.5356,8.678" stroke="#00007f" stroke-width="2" /><polyline fill="none" points="88.9492,21.6949 88.9492,61.1797 82.0068,97.1932 82.0068,105.4373" stroke="#00d4ff" stroke-width="2" /><polyline fill="none" points="49.4644,23.4305 47.7288,32.9763 44.2576,41.6542 33.8441,95.8915 33.8441,108.0407" stroke="#ffe500" stroke-width="2" /><polyline fill="none" points="11.2814,47.7288 26.4678,50.3322 45.9932,51.2 92.4203,58.1424" stroke="#7f0000" stroke-width="2" /></svg>