<?xml version="1.0" encoding="utf-8" ?>
<svg baseProfile="tiny" height="128" version="1.2" viewBox="0,0,128,128" width="128" xmlns="http://www.w3.org/2000/svg" xmlns:ev="http://www.w3.org/2001/xml-events" xmlns:xlink="http://www.w3.org/1999/xlink"><defs /><polyline fill="none" points="75.0644,30.3729 64.6508,27.3356 43.3898,26.4678 33.4102,28.6373 22.9966,34.7119 14.7525,44.2576 9.5458,57.7085 8.678,82.0068 12.5831,89.3831 18.6576,94.1559 36.0136,102.4 72.461,115.4169 84.6102,118.4542 96.3254,119.322 105.0034,117.5864 111.5119,110.6441 115.4169,99.7966 116.2847,84.6102 113.2475,67.6881 105.0034,49.4644 94.5898,34.278 83.7424,21.6949 71.5932,13.0169 60.3119,8.678 54.6712,8.678" stroke="#00007f" stroke-width="2" /><polyline fill="none" points="93.722,39.9186 88.9492,41.2203 81.5729,46.861 58.5763,67.2542 42.9559,88.9492" stroke="#0010ff" stroke-width="2" /><polyline fill="none" points="57.7085,71.5932 39.4847,104.5695" stroke="#00a4ff" stroke-width="2" /><polyline fill="none" points="87.6475,60.7458 81.139,52.5017 68.5559,42.0881" stroke="#3fffb7" stroke-width="2" /><polyline fill="none" points="86.7797,62.0475 80.2712,56.4068 67.2542,49.0305" stroke="#b7ff3f" stroke-width="2" /><polyline fill="none" points="74.6305,68.5559 55.9729,53.8034" stroke="#ffb900" stroke-width="2" /><polyline fill="none" points="65.9525,69.8576 49.4644,58.5763" stroke="#ff3000" stroke-width="2" /><polyline fill="none" points="59.878,83.7424 38.6169,71.5932" stroke="#7f0000" stroke-width="2" /></svg>