<?xml version="1.0" encoding="utf-8" ?>
<svg baseProfile="tiny" height="128" version="1.2" viewBox="0,0,128,128" width="128" xmlns="http://www.w3.org/2000/svg" xmlns:ev="http://www.w3.org/2001/xml-events" xmlns:xlink="http://www.w3.org/1999/xlink"><defs /><polyline fill="none" points="60.7458,10.4136 45.1254,13.0169 37.3153,16.922 26.9017,24.2983 20.3932,31.2407 13.4508,42.522 10.4136,49.8983 8.678,67.2542 10.8475,72.461 21.6949,81.5729 53.8034,93.2881 62.0475,94.5898 80.7051,95.4576 106.739,85.478 114.9831,76.3661 118.0203,69.4237 119.322,60.3119 118.8881,48.1627 107.6068,25.6 96.7593,14.3186 86.3458,8.678 68.5559,9.5458 60.3119,11.7153 55.9729,14.3186" stroke="#00007f" stroke-width="2" /><polyline fill="none" points="39.4847,20.3932 42.0881,21.6949 47.2949,32.5424 42.522,42.0881 45.1254,50.3322 42.0881,55.9729 41.2203,61.6136 42.9559,73.3288 40.7864,78.5356" stroke="#7cff79" stroke-width="2" /><polyline fill="none" points="88.5153,17.3559 87.6475,28.6373 82.0068,41.2203 79.8373,49.4644 80.7051,54.6712 87.6475,66.8203 84.6102,82.4407" stroke="#7f0000" stroke-width="2" /></svg>