<?xml version="1.0" encoding="utf-8" ?>
<svg baseProfile="tiny" height="128" version="1.2" viewBox="0,0,128,128" width="128" xmlns="http://www.w3.org/2000/svg" xmlns:ev="http://www.w3.org/2001/xml-events" xmlns:xlink="http://www.w3.org/1999/xlink"><defs /><polyline fill="none" points="107.6068,31.2407 105.4373,25.6 98.4949,17.7898 87.6475,12.1492 66.3864,8.678 52.0678,9.9797 33.4102,18.2237 24.7322,25.1661 17.3559,32.9763 11.7153,42.0881 8.678,51.6339 8.678,61.6136 11.7153,71.1593 16.922,80.2712 25.1661,88.0814 33.8441,94.1559 44.6915,98.9288 60.7458,102.4 79.4034,101.9661 90.2508,98.9288 100.2305,94.5898 112.3797,85.0441 117.1525,77.2339 119.322,68.9898 118.0203,51.6339 114.5492,42.0881 107.6068,30.3729" stroke="#00007f" stroke-width="2" /><polyline fill="none" points="98.9288,19.0915 93.2881,21.261 80.7051,31.6746 71.1593,44.2576 66.8203,54.6712 66.3864,66.3864 67.6881,73.3288 74.1966,85.9119 82.4407,93.722" stroke="#7cff79" stroke-width="2" /><polyline fill="none" points="33.4102,21.261 36.4475,26.9017 41.6542,46.4271 44.2576,72.0271 39.9186,82.8746 27.3356,97.1932" stroke="#7f0000" stroke-width="2" /></svg>