<?xml version="1.0" encoding="utf-8" ?>
<svg baseProfile="tiny" height="128" version="1.2" viewBox="0,0,128,128" width="128" xmlns="http://www.w3.org/2000/svg" xmlns:ev="http://www.w3.org/2001/xml-events" xmlns:xlink="http://www.w3.org/1999/xlink"><defs /><polyline fill="none" points="68.122,10.4136 64.2169,8.678 49.4644,13.0169 37.3153,22.1288 24.7322,38.1831 15.6203,56.4068 9.5458,73.7627 8.678,82.8746 12.5831,98.061 16.4881,105.0034 27.7695,114.9831 42.9559,119.322 52.0678,119.322 71.1593,114.1153 88.9492,100.2305 96.3254,91.1186 102.8339,81.139 110.6441,62.0475 112.3797,52.9356 111.5119,37.7492 109.3424,32.9763 105.8712,28.6373 101.5322,26.0339 84.6102,19.9593 72.461,19.0915" stroke="#00007f" stroke-width="2" /><polyline fill="none" points="29.5051,29.0712 36.8814,32.9763 41.2203,37.7492 45.5593,48.1627 46.861,55.9729 46.861,70.2915 43.8237,84.1763 39.4847,96.3254 32.5424,105.4373" stroke="#0080ff" stroke-width="2" /><polyline fill="none" points="87.2136,25.6 79.4034,30.3729 69.4237,49.8983 65.5186,62.4814 63.3492,85.0441 64.2169,90.6847 68.9898,101.9661 77.6678,107.6068 86.3458,108.0407" stroke="#7cff79" stroke-width="2" /><polyline fill="none" points="32.1085,40.3525 55.539,40.7864" stroke="#ff9400" stroke-width="2" /><polyline fill="none" points="35.5797,61.1797 38.6169,62.4814 54.6712,63.3492" stroke="#7f0000" stroke-width="2" /></svg>