<?xml version="1.0" encoding="utf-8" ?>
<svg baseProfile="tiny" height="128" version="1.2" viewBox="0,0,128,128" width="128" xmlns="http://www.w3.org/2000/svg" xmlns:ev="http://www.w3.org/2001/xml-events" xmlns:xlink="http://www.w3.org/1999/xlink"><defs /><polyline fill="none" points="24.7322,9.9797 34.278,8.678 51.6339,12.5831 66.8203,20.8271 80.7051,34.7119 86.3458,42.9559 88.9492,53.3695 88.0814,75.0644 84.6102,85.0441 72.0271,99.7966 62.9153,105.0034 52.0678,107.6068 32.5424,106.3051 25.6,103.7017 19.0915,98.9288 11.2814,88.5153 9.5458,83.3085 8.678,70.7254 18.6576,18.6576 23.8644,10.8475" stroke="#00007f" stroke-width="2" /><polyline fill="none" points="22.5627,11.7153 24.7322,14.3186 32.1085,33.8441 36.0136,53.3695 37.3153,70.2915 33.4102,101.5322 27.3356,113.6814 19.9593,119.322" stroke="#004cff" stroke-width="2" /><polyline fill="none" points="53.8034,11.7153 51.2,23.8644 50.3322,42.0881 52.0678,60.3119 55.9729,73.3288 61.6136,84.1763 64.2169,86.7797 76.8,94.1559" stroke="#29ffcd" stroke-width="2" /><polyline fill="none" points="39.0508,33.4102 24.7322,39.9186" stroke="#cdff29" stroke-width="2" /><polyline fill="none" points="44.2576,65.5186 27.7695,72.8949" stroke="#ff6700" stroke-width="2" /><polyline fill="none" points="39.9186,87.6475 37.7492,90.2508 26.4678,92.8542" stroke="#7f0000" stroke-width="2" /></svg>