<?xml version="1.0" encoding="utf-8" ?>
<svg baseProfile="tiny" height="128" version="1.2" viewBox="0,0,128,128" width="128" xmlns="http://www.w3.org/2000/svg" xmlns:ev="http://www.w3.org/2001/xml-events" xmlns:xlink="http://www.w3.org/1999/xlink"><defs /><polyline fill="none" points="75.0644,15.1864 61.6136,9.5458 53.3695,8.678 45.1254,10.4136 36.4475,13.4508 28.6373,18.6576 21.261,25.6 15.6203,33.8441 11.2814,45.9932 8.678,58.5763 9.1119,71.5932 12.1492,83.3085 18.2237,93.722 26.9017,102.8339 38.1831,110.6441 51.6339,116.7186 65.5186,119.322 79.4034,118.8881 92.4203,114.9831 101.9661,108.4746 109.3424,98.061 112.3797,85.478 112.8136,72.0271 110.2102,59.0102 105.4373,46.4271 88.5153,23.8644 79.4034,16.0542 69.8576,10.4136" stroke="#00007f" stroke-width="2" /><polyline fill="none" points="34.278,15.1864 41.2203,26.4678 46.4271,38.6169 47.7288,52.9356 38.1831,93.2881 32.9763,101.5322 26.4678,104.1356" stroke="#7cff79" stroke-width="2" /><polyline fill="none" points="87.6475,26.9017 82.4407,29.0712 78.5356,32.5424 72.8949,42.522 71.5932,53.8034 72.8949,62.9153 76.3661,84.1763 80.2712,92.8542 91.9864,102.4 98.9288,104.1356" stroke="#7f0000" stroke-width="2" /></svg>