<?xml version="1.0" encoding="utf-8" ?>
<svg baseProfile="tiny" height="128" version="1.2" viewBox="0,0,128,128" width="128" xmlns="http://www.w3.org/2000/svg" xmlns:ev="http://www.w3.org/2001/xml-events" xmlns:xlink="http://www.w3.org/1999/xlink"><defs /><polyline fill="none" points="35.5797,13.0169 24.7322,17.7898 19.0915,26.4678 13.0169,40.3525 9.9797,57.7085 8.678,73.7627 9.5458,88.0814 13.0169,99.7966 19.9593,108.4746 31.6746,112.8136 49.0305,114.9831 64.6508,114.9831 78.9695,110.2102 89.8169,103.2678 96.7593,94.5898 100.6644,84.1763 102.4,72.461 101.0983,48.5966 98.061,38.1831 92.4203,29.5051 85.0441,21.261 74.1966,14.3186 61.1797,9.9797 47.7288,8.678 35.5797,9.5458 26.4678,14.7525 15.6203,24.2983" stroke="#00007f" stroke-width="2" /><polyline fill="none" points="15.6203,26.9017 24.7322,36.4475 30.8068,46.861 35.1458,58.5763 36.8814,70.7254 36.8814,91.1186 32.9763,119.322" stroke="#0010ff" stroke-width="2" /><polyline fill="none" points="72.461,19.5254 68.5559,24.7322 65.0847,33.4102 64.2169,58.5763 68.5559,73.7627 77.2339,88.0814 85.478,97.6271 91.5525,101.0983 94.1559,101.0983" stroke="#00a4ff" stroke-width="2" /><polyline fill="none" points="83.7424,34.278 69.4237,40.7864 61.6136,47.7288" stroke="#3fffb7" stroke-width="2" /><polyline fill="none" points="87.6475,66.3864 74.6305,75.9322 71.1593,79.4034 70.2915,83.3085" stroke="#b7ff3f" stroke-width="2" /><polyline fill="none" points="81.5729,85.9119 74.1966,90.2508 72.461,95.0237" stroke="#ffb900" stroke-width="2" /><polyline fill="none" points="36.8814,49.0305 44.2576,44.6915" stroke="#ff3000" stroke-width="2" /><polyline fill="none" points="31.6746,65.0847 46.4271,65.0847" stroke="#7f0000" stroke-width="2" /></svg>