<?xml version="1.0" encoding="utf-8" ?>
<svg baseProfile="tiny" height="128" version="1.2" viewBox="0,0,128,128" width="128" xmlns="http://www.w3.org/2000/svg" xmlns:ev="http://www.w3.org/2001/xml-events" xmlns:xlink="http://www.w3.org/1999/xlink"><defs /><polyline fill="none" points="104.4898,17.415 78.8027,10.449 48.7619,8.7075 40.4898,11.3197 20.898,29.1701 13.4966,43.9728 9.1429,57.034 8.7075,66.6122 10.8844,78.8027 18.2857,91.8639 26.5578,100.1361 47.4558,108.4082 72.2721,111.4558 94.0408,111.4558 98.8299,110.585 104.0544,107.5374 111.0204,99.7007 118.8571,82.2857 119.2925,47.0204 111.4558,26.9932 107.102,19.5918 101.8776,16.9796" stroke="#00007f" stroke-width="2" /><polyline fill="none" points="101.8776,16.9796 96.6531,27.8639 94.0408,36.5714 92.2993,62.2585 94.4762,86.6395 104.0544,105.7959" stroke="#7cff79" stroke-width="2" /><polyline fill="none" points="41.3605,11.7551 40.4898,55.2925 41.3605,72.7075 36.1361,106.6667" stroke="#7f0000" stroke-width="2" /></svg>