<?xml version="1.0" encoding="utf-8" ?>
<svg baseProfile="tiny" height="128" version="1.2" viewBox="0,0,128,128" width="128" xmlns="http://www.w3.org/2000/svg" xmlns:ev="http://www.w3.org/2001/xml-events" xmlns:xlink="http://www.w3.org/1999/xlink"><defs /><polyline fill="none" points="61.1797,10.4136 47.2949,9.9797 35.1458,14.3186 25.1661,22.5627 17.3559,32.5424 10.8475,47.7288 9.1119,58.1424 8.678,75.9322 11.7153,87.2136 21.6949,104.1356 30.8068,111.078 39.9186,115.4169 59.878,119.322 88.0814,119.322 95.4576,116.2847 99.7966,111.9458 113.2475,93.722 113.6814,91.1186 113.6814,71.5932 110.2102,39.9186 95.0237,19.5254 81.5729,12.5831 60.3119,11.2814" stroke="#00007f" stroke-width="2" /><polyline fill="none" points="43.8237,8.678 47.2949,14.3186 52.5017,42.9559 52.9356,65.9525 50.3322,79.8373 44.6915,92.8542 29.5051,117.1525" stroke="#7f0000" stroke-width="2" /></svg>