<?xml version="1.0" encoding="utf-8" ?>
<svg baseProfile="tiny" height="128" version="1.2" viewBox="0,0,128,128" width="128" xmlns="http://www.w3.org/2000/svg" xmlns:ev="http://www.w3.org/2001/xml-events" xmlns:xlink="http://www.w3.org/1999/xlink"><defs /><polyline fill="none" points="84.6102,13.0169 77.6678,9.9797 68.9898,8.678 52.5017,9.5458 41.6542,12.1492 26.9017,19.0915 18.6576,25.6 14.7525,29.5051 9.9797,39.9186 8.678,52.5017 10.4136,59.4441 16.4881,72.8949 25.6,85.478 31.6746,91.5525 39.4847,95.4576 49.8983,99.3627 67.2542,101.5322 75.4983,101.5322 92.4203,98.4949 104.1356,93.2881 112.3797,86.3458 117.1525,79.8373 119.322,68.9898 118.0203,58.5763 113.6814,46.4271 107.6068,36.0136 100.6644,27.7695 92.8542,20.8271 81.5729,15.1864 70.2915,12.5831" stroke="#00007f" stroke-width="2" /><polyline fill="none" points="97.6271,33.4102 93.722,36.4475 88.5153,48.1627 87.2136,64.6508 88.5153,72.8949 91.1186,78.9695 95.0237,83.7424 100.2305,86.7797" stroke="#0010ff" stroke-width="2" /><polyline fill="none" points="83.7424,36.4475 96.7593,39.0508 98.9288,40.7864" stroke="#00a4ff" stroke-width="2" /><polyline fill="none" points="82.8746,66.8203 96.7593,68.122" stroke="#3fffb7" stroke-width="2" /><polyline fill="none" points="88.0814,89.3831 94.5898,88.5153 102.4,83.7424" stroke="#b7ff3f" stroke-width="2" /><polyline fill="none" points="19.9593,16.922 23.8644,18.2237 33.8441,27.3356 42.522,42.0881 45.1254,49.8983 45.1254,58.5763 40.3525,72.0271 35.1458,78.9695 27.3356,84.6102" stroke="#ffb900" stroke-width="2" /><polyline fill="none" points="26.4678,34.278 48.5966,36.4475 56.4068,36.0136" stroke="#ff3000" stroke-width="2" /><polyline fill="none" points="31.2407,70.2915 31.2407,70.2915" stroke="#7f0000" stroke-width="2" /></svg>