<?xml version="1.0" encoding="utf-8" ?>
<svg baseProfile="tiny" height="128" version="1.2" viewBox="0,0,128,128" width="128" xmlns="http://www.w3.org/2000/svg" xmlns:ev="http://www.w3.org/2001/xml-events" xmlns:xlink="http://www.w3.org/1999/xlink"><defs /><polyline fill="none" points="71.1593,21.261 71.1593,21.261" stroke="#00007f" stroke-width="2" /><polyline fill="none" points="86.7797,18.2237 53.3695,19.5254 32.1085,28.2034 20.3932,40.7864 12.1492,53.8034 9.9797,62.0475 8.678,69.8576 9.5458,92.4203 12.5831,98.061 20.3932,108.4746 32.5424,116.2847 40.7864,118.4542 66.3864,119.322 72.8949,117.1525 85.0441,109.3424 89.3831,104.5695 93.2881,98.061 104.1356,62.0475 106.3051,47.2949 105.4373,32.1085 98.4949,21.261 90.6847,17.3559 73.7627,16.4881 64.6508,18.2237 53.8034,24.7322" stroke="#00d4ff" stroke-width="2" /><polyline fill="none" points="21.261,42.0881 29.0712,42.9559 39.9186,48.5966 45.9932,55.539 52.9356,68.9898 55.9729,82.8746 55.9729,101.0983 52.9356,108.4746 52.5017,114.9831" stroke="#ffe500" stroke-width="2" /><polyline fill="none" points="68.5559,8.678 65.5186,33.4102 65.5186,54.2373 71.1593,69.8576 77.6678,81.139 85.9119,86.7797" stroke="#7f0000" stroke-width="2" /></svg>