<?xml version="1.0" encoding="utf-8" ?>
<svg baseProfile="tiny" height="128" version="1.2" viewBox="0,0,128,128" width="128" xmlns="http://www.w3.org/2000/svg" xmlns:ev="http://www.w3.org/2001/xml-events" xmlns:xlink="http://www.w3.org/1999/xlink"><defs /><polyline fill="none" points="91.8639,11.3197 80.1088,9.1429 66.6122,8.7075 52.6803,11.7551 42.2313,17.415 28.2993,28.2993 14.3673,46.1497 9.1429,62.2585 8.7075,83.5918 13.4966,93.1701 21.7687,101.8776 36.5714,110.585 55.2925,114.9388 66.1769,114.9388 76.6259,112.7619 87.0748,106.2313 101.4422,93.1701 111.8912,77.0612 116.2449,66.6122 118.4218,56.5986 119.2925,39.1837 118.4218,34.3946 114.068,26.5578 102.7483,12.1905 97.0884,9.5782 87.5102,9.5782" stroke="#00007f" stroke-width="2" /><polyline fill="none" points="38.3129,16.9796 46.1497,25.2517 49.1973,31.3469 52.2449,39.619 53.9864,54.4218 53.9864,66.6122 51.8095,77.4966 38.3129,107.9728" stroke="#7cff79" stroke-width="2" /><polyline fill="none" points="84.4626,10.449 79.2381,31.3469 79.2381,58.3401 86.6395,80.9796 96.6531,94.0408 104.4898,99.2653" stroke="#7f0000" stroke-width="2" /></svg>