<?xml version="1.0" encoding="utf-8" ?>
<svg baseProfile="tiny" height="128" version="1.2" viewBox="0,0,128,128" width="128" xmlns="http://www.w3.org/2000/svg" xmlns:ev="http://www.w3.org/2001/xml-events" xmlns:xlink="http://www.w3.org/1999/xlink"><defs /><polyline fill="none" points="56.4068,16.0542 51.2,13.8847 45.9932,13.8847 36.8814,17.7898 26.0339,25.6 16.0542,37.3153 10.4136,50.3322 8.678,65.9525 8.678,74.6305 14.3186,89.8169 26.0339,103.2678 41.6542,113.6814 51.2,117.1525 61.6136,118.8881 81.139,119.322 90.6847,116.2847 98.4949,111.5119 105.0034,105.4373 114.5492,91.1186 118.0203,74.6305 117.5864,56.4068 111.9458,38.6169 107.6068,30.3729 96.7593,19.0915 74.6305,10.8475 62.0475,10.4136" stroke="#00007f" stroke-width="2" /><polyline fill="none" points="28.2034,16.4881 33.8441,16.4881 38.6169,19.0915 50.7661,31.2407 57.2746,48.5966 60.3119,68.122 60.3119,80.2712 55.9729,94.5898 49.8983,103.7017 42.9559,110.2102 37.3153,114.9831 35.5797,113.6814" stroke="#7cff79" stroke-width="2" /><polyline fill="none" points="99.3627,8.678 93.722,9.9797 88.9492,14.3186 81.139,29.5051 78.1017,48.1627 79.4034,68.9898 82.0068,79.4034 86.3458,88.9492 95.0237,100.6644 105.4373,107.1729 112.3797,107.1729 116.2847,105.4373" stroke="#7f0000" stroke-width="2" /></svg>