<?xml version="1.0" encoding="utf-8" ?>
<svg baseProfile="tiny" height="128" version="1.2" viewBox="0,0,128,128" width="128" xmlns="http://www.w3.org/2000/svg" xmlns:ev="http://www.w3.org/2001/xml-events" xmlns:xlink="http://www.w3.org/1999/xlink"><defs /><polyline fill="none" points="47.7288,15.1864 36.8814,16.0542 27.7695,19.5254 19.5254,27.7695 11.2814,42.0881 8.678,54.6712 9.9797,66.8203 18.6576,85.478 25.1661,94.1559 34.7119,100.2305 39.4847,102.4 53.3695,102.4 67.2542,99.7966 90.6847,88.0814 101.0983,80.2712 106.3051,68.5559 105.8712,57.2746 91.1186,34.7119 83.3085,26.4678 75.0644,20.8271 58.1424,16.0542 40.7864,16.0542 33.8441,20.3932" stroke="#00007f" stroke-width="2" /><polyline fill="none" points="28.6373,21.6949 28.6373,62.0475 23.4305,87.6475" stroke="#004cff" stroke-width="2" /><polyline fill="none" points="60.7458,8.678 62.0475,12.5831 61.1797,64.2169 55.539,84.6102 47.7288,102.8339" stroke="#29ffcd" stroke-width="2" /><polyline fill="none" points="86.7797,29.5051 90.6847,45.9932 91.1186,65.5186 86.3458,88.0814 81.5729,95.8915" stroke="#cdff29" stroke-width="2" /><polyline fill="none" points="46.4271,9.1119 50.3322,20.3932 53.8034,46.861 53.8034,86.7797 52.5017,102.8339 50.3322,112.8136 48.5966,116.2847 43.3898,119.322" stroke="#ff6700" stroke-width="2" /><polyline fill="none" points="74.6305,27.7695 74.6305,27.7695" stroke="#7f0000" stroke-width="2" /></svg>