<?xml version="1.0" encoding="utf-8" ?>
<svg baseProfile="tiny" height="128" version="1.2" viewBox="0,0,128,128" width="128" xmlns="http://www.w3.org/2000/svg" xmlns:ev="http://www.w3.org/2001/xml-events" xmlns:xlink="http://www.w3.org/1999/xlink"><defs /><polyline fill="none" points="38.1831,40.3525 28.2034,46.4271 14.7525,63.7831 8.678,82.0068 8.678,95.8915 26.4678,107.6068 38.6169,109.3424 75.9322,109.3424 87.6475,99.3627 99.3627,69.8576 99.3627,44.2576 93.722,34.278 83.7424,28.2034 68.122,24.2983 55.9729,22.5627 44.2576,22.5627" stroke="#00007f" stroke-width="2" /><polyline fill="none" points="20.3932,28.6373 28.6373,46.4271 38.1831,58.1424 42.0881,75.4983 42.0881,107.1729 34.278,119.322" stroke="#7cff79" stroke-width="2" /><polyline fill="none" points="101.5322,8.678 85.9119,16.4881 83.7424,62.0475 81.5729,75.9322 81.5729,101.5322 87.6475,115.4169 95.4576,119.322" stroke="#7f0000" stroke-width="2" /></svg>