<?xml version="1.0" encoding="utf-8" ?>
<svg baseProfile="tiny" height="128" version="1.2" viewBox="0,0,128,128" width="128" xmlns="http://www.w3.org/2000/svg" xmlns:ev="http://www.w3.org/2001/xml-events" xmlns:xlink="http://www.w3.org/1999/xlink"><defs /><polyline fill="none" points="51.8095,13.932 42.6667,13.0612 31.7823,19.1565 16.5442,37.0068 8.7075,57.9048 9.1429,76.1905 12.6259,84.0272 18.2857,90.9932 26.5578,96.2177 37.0068,100.1361 49.6327,102.3129 65.3061,101.4422 80.1088,94.9116 94.4762,84.4626 106.2313,70.5306 111.0204,63.1293 114.9388,55.2925 119.2925,40.4898 118.8571,29.1701 114.068,20.898 109.7143,17.8503 97.9592,13.932 67.483,9.1429 61.8231,9.1429 53.9864,12.1905" stroke="#00007f" stroke-width="2" /><polyline fill="none" points="50.9388,15.6735 52.6803,15.2381 54.4218,16.5442 55.7279,23.0748 55.7279,44.4082 52.6803,58.3401 42.6667,83.5918 27.8639,103.619" stroke="#7cff79" stroke-width="2" /><polyline fill="none" points="91.8639,8.7075 85.7687,13.4966 78.8027,26.5578 78.8027,61.8231 80.9796,72.2721 86.2041,83.5918 90.9932,88.8163 99.7007,93.1701" stroke="#7f0000" stroke-width="2" /></svg>