<?xml version="1.0" encoding="utf-8" ?>
<svg baseProfile="tiny" height="128" version="1.2" viewBox="0,0,128,128" width="128" xmlns="http://www.w3.org/2000/svg" xmlns:ev="http://www.w3.org/2001/xml-events" xmlns:xlink="http://www.w3.org/1999/xlink"><defs /><polyline fill="none" points="54.0346,10.1869 59.3495,8.8581 79.2803,8.8581 82.3806,10.1869 94.3391,19.9308 103.1972,31.0035 104.526,57.1349 109.3979,68.6505 108.0692,78.8374 96.5536,107.1834 79.7232,115.1557 65.1073,119.1419 34.9896,118.2561 19.4879,114.2699 16.3875,110.2837 10.1869,94.782 8.8581,85.9239 11.0727,50.9343 19.9308,31.8893 31.8893,23.474 36.3183,22.5882 51.8201,15.0588" stroke="#00007f" stroke-width="2" /><polyline fill="none" points="54.9204,11.0727 54.9204,19.9308 50.4913,40.7474 53.1488,105.4118" stroke="#00d4ff" stroke-width="2" /><polyline fill="none" points="63.7785,12.4014 61.564,23.917 61.564,44.7336 64.2215,88.5813 65.1073,93.8962 73.9654,113.3841 73.9654,119.1419" stroke="#ffe500" stroke-width="2" /><polyline fill="none" points="101.4256,58.0208 96.9965,54.0346 89.4671,50.0484 67.3218,46.5052 58.9066,46.5052 54.0346,48.2768 76.6228,35.4325" stroke="#7f0000" stroke-width="2" /></svg>