<?xml version="1.0" encoding="utf-8" ?>
<svg baseProfile="tiny" height="128" version="1.2" viewBox="0,0,128,128" width="128" xmlns="http://www.w3.org/2000/svg" xmlns:ev="http://www.w3.org/2001/xml-events" xmlns:xlink="http://www.w3.org/1999/xlink"><defs /><polyline fill="none" points="68.122,10.8475 62.0475,8.678 49.4644,9.1119 39.9186,13.4508 31.2407,20.8271 18.2237,37.7492 11.2814,49.8983 8.678,59.0102 8.678,67.6881 10.8475,72.461 17.3559,81.5729 30.8068,92.4203 42.0881,98.9288 53.3695,102.8339 66.8203,105.4373 82.4407,105.8712 91.5525,103.2678 101.0983,98.4949 107.6068,91.5525 115.4169,77.2339 118.4542,65.0847 119.322,49.8983 114.5492,32.5424 108.0407,21.261 104.1356,16.4881 100.2305,14.7525 80.2712,11.2814 68.5559,11.2814 85.0441,14.3186 82.4407,22.5627 82.0068,52.5017 85.9119,82.0068 88.0814,87.2136 91.5525,90.2508 105.4373,95.0237" stroke="#00007f" stroke-width="2" /></svg>