<?xml version="1.0" encoding="utf-8" ?>
<svg baseProfile="tiny" height="128" version="1.2" viewBox="0,0,128,128" width="128" xmlns="http://www.w3.org/2000/svg" xmlns:ev="http://www.w3.org/2001/xml-events" xmlns:xlink="http://www.w3.org/1999/xlink"><defs /><polyline fill="none" points="12.1492,86.3458 9.5458,84.6102 8.678,80.7051 9.5458,67.2542 16.922,52.5017 22.5627,45.5593 36.0136,30.8068 50.3322,19.0915 57.7085,14.7525 72.8949,9.5458 94.1559,8.678 101.5322,11.7153 111.5119,21.261 114.9831,27.3356 119.322,39.9186 118.8881,56.4068 113.6814,68.122 97.6271,91.9864 88.9492,101.5322 73.3288,112.3797 55.539,115.8508 45.5593,115.8508 35.1458,112.8136 22.1288,104.1356 19.5254,100.6644 16.4881,90.6847 16.4881,76.3661" stroke="#00007f" stroke-width="2" /><polyline fill="none" points="42.9559,24.7322 45.1254,33.4102 45.1254,42.9559 38.1831,78.5356 34.7119,88.5153 27.7695,99.7966" stroke="#004cff" stroke-width="2" /><polyline fill="none" points="105.0034,15.6203 94.5898,23.8644 85.478,36.4475 72.461,65.9525 71.1593,72.8949 70.7254,91.1186 72.0271,99.3627 76.3661,104.1356" stroke="#29ffcd" stroke-width="2" /><polyline fill="none" points="70.7254,39.0508 98.061,46.4271" stroke="#cdff29" stroke-width="2" /><polyline fill="none" points="62.9153,71.1593 67.6881,68.9898 85.0441,74.1966 95.8915,75.0644" stroke="#ff6700" stroke-width="2" /><polyline fill="none" points="28.6373,42.9559 28.2034,39.4847 37.3153,45.9932 42.0881,47.2949 60.7458,47.7288" stroke="#7f0000" stroke-width="2" /></svg>