<?xml version="1.0" encoding="utf-8" ?>
<svg baseProfile="tiny" height="128" version="1.2" viewBox="0,0,128,128" width="128" xmlns="http://www.w3.org/2000/svg" xmlns:ev="http://www.w3.org/2001/xml-events" xmlns:xlink="http://www.w3.org/1999/xlink"><defs /><polyline fill="none" points="103.2678,8.678 60.7458,9.1119 48.1627,13.0169 29.5051,28.6373 20.3932,39.4847 13.0169,55.1051 9.1119,76.3661 8.678,93.2881 10.8475,100.6644 14.3186,106.739 22.1288,113.6814 30.3729,118.4542 33.8441,119.322 46.4271,119.322 62.0475,116.2847 78.5356,111.9458 98.9288,102.8339 109.3424,92.8542 115.8508,75.9322 116.2847,57.2746 99.3627,26.0339 90.6847,17.7898 78.9695,13.8847" stroke="#00007f" stroke-width="2" /><polyline fill="none" points="29.939,26.0339 36.0136,46.4271 37.3153,66.8203 27.3356,97.6271 24.2983,111.5119 21.261,116.7186" stroke="#7cff79" stroke-width="2" /><polyline fill="none" points="84.6102,15.6203 82.4407,91.9864 85.478,101.0983" stroke="#7f0000" stroke-width="2" /></svg>