<?xml version="1.0" encoding="utf-8" ?>
<svg baseProfile="tiny" height="128" version="1.2" viewBox="0,0,128,128" width="128" xmlns="http://www.w3.org/2000/svg" xmlns:ev="http://www.w3.org/2001/xml-events" xmlns:xlink="http://www.w3.org/1999/xlink"><defs /><polyline fill="none" points="60.0816,15.6735 48.3265,15.2381 30.9116,20.0272 25.2517,23.0748 13.4966,36.1361 10.449,46.1497 8.7075,59.2109 8.7075,65.7415 12.6259,75.7551 32.2177,90.9932 50.9388,97.9592 67.483,99.7007 102.7483,98.3946 111.8912,96.2177 113.6327,94.4762 119.2925,77.932 119.2925,67.483 112.3265,36.5714 98.8299,22.2041 79.6735,9.5782 68.7891,8.7075 54.4218,16.1088" stroke="#00007f" stroke-width="2" /><polyline fill="none" points="42.2313,16.1088 45.7143,31.3469 43.5374,45.2789 33.0884,72.2721 23.9456,81.8503" stroke="#7cff79" stroke-width="2" /><polyline fill="none" points="86.2041,12.1905 81.415,37.0068 80.9796,57.9048 83.1565,66.1769 87.5102,76.1905 98.8299,87.5102 109.2789,91.8639" stroke="#7f0000" stroke-width="2" /></svg>