<?xml version="1.0" encoding="utf-8" ?>
<svg baseProfile="tiny" height="128" version="1.2" viewBox="0,0,128,128" width="128" xmlns="http://www.w3.org/2000/svg" xmlns:ev="http://www.w3.org/2001/xml-events" xmlns:xlink="http://www.w3.org/1999/xlink"><defs /><polyline fill="none" points="77.2339,16.4881 63.3492,13.0169 42.9559,12.1492 33.4102,14.7525 24.7322,21.6949 20.3932,27.7695 13.0169,45.5593 9.5458,59.4441 8.678,67.2542 9.5458,74.6305 12.5831,83.7424 15.1864,87.6475 19.9593,91.5525 32.9763,96.7593 45.1254,98.4949 67.6881,98.4949 80.2712,95.0237 97.1932,80.2712 117.1525,49.4644 119.322,35.1458 118.0203,24.7322 113.6814,18.2237 103.2678,11.7153 88.0814,8.678 71.5932,10.8475" stroke="#00007f" stroke-width="2" /><polyline fill="none" points="98.061,9.1119 91.5525,10.4136 87.2136,15.1864 70.2915,39.0508 65.0847,50.7661 64.2169,78.5356 67.6881,85.478 75.4983,91.1186" stroke="#7cff79" stroke-width="2" /><polyline fill="none" points="21.6949,33.8441 27.7695,36.8814 32.9763,42.0881 37.3153,52.0678 39.4847,68.9898 39.4847,88.9492 36.4475,96.3254" stroke="#7f0000" stroke-width="2" /></svg>