<?xml version="1.0" encoding="utf-8" ?>
<svg baseProfile="tiny" height="128" version="1.2" viewBox="0,0,128,128" width="128" xmlns="http://www.w3.org/2000/svg" xmlns:ev="http://www.w3.org/2001/xml-events" xmlns:xlink="http://www.w3.org/1999/xlink"><defs /><polyline fill="none" points="85.9119,12.1492 73.3288,8.678 54.2373,8.678 46.4271,10.4136 28.6373,17.7898 19.9593,25.6 12.1492,38.6169 10.4136,43.8237 8.678,52.0678 8.678,73.7627 12.1492,87.6475 18.6576,97.6271 27.3356,106.3051 38.6169,113.2475 52.9356,118.4542 78.5356,119.322 98.061,111.5119 101.5322,108.4746 114.5492,91.1186 118.4542,78.1017 118.4542,61.6136 111.9458,39.4847 101.0983,17.7898 97.6271,13.8847 93.2881,10.4136 82.8746,9.5458" stroke="#00007f" stroke-width="2" /><polyline fill="none" points="24.2983,100.2305 23.8644,108.0407 27.7695,86.3458 32.9763,73.7627 36.0136,69.4237 40.3525,65.9525 56.8407,61.1797 73.3288,62.0475 86.3458,68.122 93.2881,75.0644 98.4949,83.3085 102.8339,95.8915" stroke="#00d4ff" stroke-width="2" /><polyline fill="none" points="23.8644,19.5254 35.1458,36.0136 48.1627,42.9559 60.3119,43.3898 81.139,36.0136 86.7797,27.7695 91.9864,12.1492" stroke="#ffe500" stroke-width="2" /><polyline fill="none" points="34.278,11.2814 35.1458,19.5254 42.0881,27.7695 50.3322,31.2407 62.4814,32.1085 75.0644,27.7695" stroke="#7f0000" stroke-width="2" /></svg>