<?xml version="1.0" encoding="utf-8" ?>
<svg baseProfile="tiny" height="128" version="1.2" viewBox="0,0,128,128" width="128" xmlns="http://www.w3.org/2000/svg" xmlns:ev="http://www.w3.org/2001/xml-events" xmlns:xlink="http://www.w3.org/1999/xlink"><defs /><polyline fill="none" points="33.4102,16.922 39.9186,14.7525 67.6881,12.5831 92.4203,13.0169 99.3627,16.4881 109.3424,26.4678 113.2475,32.5424 116.2847,40.3525 119.322,57.7085 119.322,74.6305 117.1525,83.3085 112.8136,90.6847 101.9661,101.9661 95.4576,105.8712 86.7797,108.0407 66.3864,108.9085 53.3695,108.0407 41.2203,105.0034 31.2407,100.6644 19.0915,90.6847 9.5458,74.6305 8.678,57.2746 12.5831,50.7661 38.6169,29.0712" stroke="#00007f" stroke-width="2" /><polyline fill="none" points="88.0814,8.678 72.8949,23.8644 65.5186,33.4102 61.1797,45.5593 58.5763,57.2746 58.5763,78.1017 60.7458,82.4407 66.3864,89.3831 83.3085,105.8712" stroke="#004cff" stroke-width="2" /><polyline fill="none" points="29.0712,13.0169 34.278,19.5254 39.9186,38.6169 42.522,60.3119 42.522,77.2339 38.6169,86.3458 28.2034,97.6271" stroke="#29ffcd" stroke-width="2" /><polyline fill="none" points="69.8576,29.5051 55.9729,19.0915" stroke="#cdff29" stroke-width="2" /><polyline fill="none" points="76.8,69.4237 72.0271,70.7254 52.0678,70.7254" stroke="#ff6700" stroke-width="2" /><polyline fill="none" points="80.2712,99.7966 65.0847,100.6644 60.3119,103.7017" stroke="#7f0000" stroke-width="2" /></svg>