<?xml version="1.0" encoding="utf-8" ?>
<svg baseProfile="tiny" height="128" version="1.2" viewBox="0,0,128,128" width="128" xmlns="http://www.w3.org/2000/svg" xmlns:ev="http://www.w3.org/2001/xml-events" xmlns:xlink="http://www.w3.org/1999/xlink"><defs /><polyline fill="none" points="92.8542,10.8475 80.7051,8.678 60.3119,8.678 49.4644,10.4136 36.4475,14.3186 22.9966,22.1288 18.2237,27.3356 14.3186,32.9763 9.5458,46.4271 8.678,60.3119 11.7153,72.461 19.5254,89.3831 28.2034,101.5322 38.1831,108.9085 48.5966,113.2475 63.3492,116.7186 74.1966,116.2847 88.0814,109.3424 101.5322,96.3254 114.5492,76.3661 117.5864,67.2542 119.322,56.4068 116.7186,40.7864 112.8136,29.5051 106.3051,19.5254 97.1932,13.4508 87.6475,10.8475 73.7627,10.8475 65.5186,13.8847" stroke="#00007f" stroke-width="2" /><polyline fill="none" points="53.8034,13.8847 52.0678,14.7525 51.2,18.6576 49.8983,48.5966 43.8237,78.5356 36.0136,88.9492 29.939,91.9864 25.1661,91.5525 25.1661,90.6847" stroke="#0028ff" stroke-width="2" /><polyline fill="none" points="95.8915,16.4881 90.2508,29.0712 87.2136,48.1627 86.3458,65.5186 86.7797,84.6102 91.1186,95.4576 101.5322,105.4373" stroke="#00d4ff" stroke-width="2" /><polyline fill="none" points="80.2712,28.2034 94.1559,29.0712" stroke="#7cff79" stroke-width="2" /><polyline fill="none" points="78.1017,47.2949 89.3831,46.861" stroke="#ffe500" stroke-width="2" /><polyline fill="none" points="82.8746,61.6136 90.2508,58.5763" stroke="#ff4600" stroke-width="2" /><polyline fill="none" points="82.4407,71.5932 93.2881,68.9898" stroke="#7f0000" stroke-width="2" /></svg>