<?xml version="1.0" encoding="utf-8" ?>
<svg baseProfile="tiny" height="128" version="1.2" viewBox="0,0,128,128" width="128" xmlns="http://www.w3.org/2000/svg" xmlns:ev="http://www.w3.org/2001/xml-events" xmlns:xlink="http://www.w3.org/1999/xlink"><defs /><polyline fill="none" points="34.8299,92.2993 29.1701,97.9592" stroke="#00007f" stroke-width="2" /><polyline fill="none" points="74.449,16.9796 64.4354,13.4966 54.8571,13.0612 39.1837,19.5918 26.5578,27.8639 18.2857,36.5714 12.6259,47.8912 9.5782,58.3401 8.7075,70.5306 10.8844,77.932 16.1088,85.3333 25.2517,92.7347 36.5714,98.3946 48.3265,101.4422 60.517,102.7483 74.0136,102.7483 85.3333,99.7007 99.2653,92.7347 107.9728,83.5918 116.6803,69.2245 119.2925,56.1633 118.4218,39.619 114.068,26.5578 104.0544,13.4966 95.3469,8.7075" stroke="#0000e8" stroke-width="2" /><polyline fill="none" points="97.5238,9.5782 70.5306,9.5782 62.6939,10.449" stroke="#0038ff" stroke-width="2" /><polyline fill="none" points="54.4218,13.0612 41.3605,41.3605 37.4422,53.551 36.5714,63.5646 40.0544,68.3537 47.4558,74.0136 64.4354,78.8027 68.7891,77.4966 78.8027,70.966 84.898,62.2585 87.9456,51.8095 92.2993,16.5442" stroke="#0094ff" stroke-width="2" /><polyline fill="none" points="77.932,61.3878 84.0272,67.0476 90.9932,67.483" stroke="#0cf4ea" stroke-width="2" /><polyline fill="none" points="81.8503,46.585 89.6871,46.585 90.9932,45.2789" stroke="#56ffa0" stroke-width="2" /><polyline fill="none" points="82.7211,28.2993 96.6531,25.6871" stroke="#a0ff56" stroke-width="2" /><polyline fill="none" points="93.1701,20.0272 103.619,19.1565 114.068,20.898" stroke="#eaff0c" stroke-width="2" /><polyline fill="none" points="73.5782,58.3401 65.7415,74.0136" stroke="#ffaa00" stroke-width="2" /><polyline fill="none" points="53.551,79.6735 48.3265,78.8027" stroke="#ff5500" stroke-width="2" /><polyline fill="none" points="43.5374,68.7891 41.7959,66.6122" stroke="#e80000" stroke-width="2" /><polyline fill="none" points="35.2653,58.3401 33.5238,54.8571 33.5238,50.9388" stroke="#7f0000" stroke-width="2" /></svg>