<?xml version="1.0" encoding="utf-8" ?>
<svg baseProfile="tiny" height="128" version="1.2" viewBox="0,0,128,128" width="128" xmlns="http://www.w3.org/2000/svg" xmlns:ev="http://www.w3.org/2001/xml-events" xmlns:xlink="http://www.w3.org/1999/xlink"><defs /><polyline fill="none" points="72.461,8.678 58.5763,10.4136 46.4271,14.3186 39.9186,18.6576 24.2983,34.7119 9.9797,60.7458 8.678,72.8949 10.8475,80.7051 23.4305,95.4576 42.0881,107.1729 52.5017,110.2102 63.3492,110.6441 76.3661,108.9085 94.1559,102.8339 108.0407,91.9864 114.1153,85.478 118.0203,78.5356 119.322,60.7458 113.2475,38.6169 103.2678,17.3559 100.2305,14.7525 95.8915,13.4508 76.3661,13.0169 69.8576,18.2237" stroke="#00007f" stroke-width="2" /><polyline fill="none" points="40.7864,17.7898 47.7288,26.4678 51.2,34.278 52.5017,61.6136 51.2,68.5559 46.861,86.7797 41.2203,95.8915 35.5797,99.7966 30.3729,100.6644 26.0339,96.7593" stroke="#0000ff" stroke-width="2" /><polyline fill="none" points="90.2508,17.7898 80.7051,31.6746 75.4983,42.0881 72.461,58.5763 72.461,74.6305 73.7627,81.5729 82.0068,94.1559 90.2508,100.6644 100.6644,103.7017" stroke="#0080ff" stroke-width="2" /><polyline fill="none" points="45.1254,21.6949 60.3119,23.8644" stroke="#15ffe1" stroke-width="2" /><polyline fill="none" points="42.9559,54.2373 52.0678,55.539 56.4068,57.2746" stroke="#7cff79" stroke-width="2" /><polyline fill="none" points="36.4475,82.0068 50.3322,90.6847" stroke="#e4ff12" stroke-width="2" /><polyline fill="none" points="81.139,31.2407 91.9864,30.3729" stroke="#ff9400" stroke-width="2" /><polyline fill="none" points="68.122,81.5729 84.6102,88.0814 89.3831,88.0814" stroke="#ff1d00" stroke-width="2" /><polyline fill="none" points="84.1763,106.739 87.6475,104.1356 93.2881,102.8339 107.6068,104.1356" stroke="#7f0000" stroke-width="2" /></svg>