<?xml version="1.0" encoding="utf-8" ?>
<svg baseProfile="tiny" height="128" version="1.2" viewBox="0,0,128,128" width="128" xmlns="http://www.w3.org/2000/svg" xmlns:ev="http://www.w3.org/2001/xml-events" xmlns:xlink="http://www.w3.org/1999/xlink"><defs /><polyline fill="none" points="16.922,16.4881 22.9966,19.0915 101.9661,75.9322 108.0407,78.9695 118.4542,79.4034 119.322,85.478 117.5864,89.8169 102.4,103.7017 97.6271,103.2678 95.8915,97.1932 99.3627,90.2508 98.9288,87.6475 50.7661,59.0102 26.4678,46.861 14.3186,38.6169 9.9797,28.6373 8.678,18.6576 10.4136,15.1864 12.5831,14.3186 16.922,14.7525 20.3932,18.6576" stroke="#00007f" stroke-width="2" /><polyline fill="none" points="85.9119,64.2169 76.3661,79.4034 75.0644,82.4407 78.5356,79.8373" stroke="#0000fe" stroke-width="2" /><polyline fill="none" points="95.8915,72.461 92.4203,80.7051 98.4949,75.4983" stroke="#0060ff" stroke-width="2" /><polyline fill="none" points="100.2305,73.3288 98.4949,84.1763 102.4,78.5356" stroke="#00d4ff" stroke-width="2" /><polyline fill="none" points="105.8712,75.4983 98.4949,85.9119" stroke="#4cffaa" stroke-width="2" /><polyline fill="none" points="89.3831,74.1966 86.7797,77.6678 83.7424,76.8" stroke="#aaff4c" stroke-width="2" /><polyline fill="none" points="56.4068,9.1119 50.3322,8.678 47.2949,11.2814 42.522,18.2237 42.522,25.1661 45.9932,29.0712 55.1051,30.3729 58.5763,29.5051 63.3492,24.7322 65.0847,20.3932 64.2169,16.4881 61.1797,11.7153 56.8407,9.9797" stroke="#ffe500" stroke-width="2" /><polyline fill="none" points="45.1254,15.1864 45.1254,18.6576 48.5966,22.1288 54.6712,22.9966 60.7458,19.5254 61.6136,12.5831" stroke="#ff7a00" stroke-width="2" /><polyline fill="none" points="49.0305,22.9966 45.1254,26.0339 44.6915,29.939 45.9932,29.939" stroke="#fe1200" stroke-width="2" /><polyline fill="none" points="59.0102,21.261 65.9525,24.2983 67.2542,27.7695" stroke="#7f0000" stroke-width="2" /></svg>