<?xml version="1.0" encoding="utf-8" ?>
<svg baseProfile="tiny" height="128" version="1.2" viewBox="0,0,128,128" width="128" xmlns="http://www.w3.org/2000/svg" xmlns:ev="http://www.w3.org/2001/xml-events" xmlns:xlink="http://www.w3.org/1999/xlink"><defs /><polyline fill="none" points="40.3525,17.3559 26.9017,21.6949 14.7525,34.7119 10.4136,42.522 8.678,50.7661 8.678,69.4237 14.7525,86.3458 25.6,101.0983 35.5797,109.3424 42.522,111.5119 50.7661,116.7186 60.7458,119.322 75.9322,119.322 84.1763,116.7186 96.7593,108.0407 104.1356,100.2305 108.9085,91.1186 111.5119,82.8746 114.9831,60.7458 114.5492,40.7864 111.078,34.7119 104.1356,26.4678 82.4407,14.7525 61.1797,9.5458 41.2203,8.678 35.5797,9.5458 29.939,16.922" stroke="#00007f" stroke-width="2" /><polyline fill="none" points="31.2407,16.0542 35.5797,16.922 39.9186,21.261 44.2576,28.6373 54.2373,65.0847 53.3695,83.3085 47.7288,93.722 39.0508,102.8339" stroke="#7cff79" stroke-width="2" /><polyline fill="none" points="91.1186,22.1288 87.2136,26.9017 81.5729,40.3525 77.6678,51.2 75.4983,60.7458 75.9322,78.5356 80.2712,85.0441 89.8169,105.4373" stroke="#7f0000" stroke-width="2" /></svg>