<?xml version="1.0" encoding="utf-8" ?>
<svg baseProfile="tiny" height="128" version="1.2" viewBox="0,0,128,128" width="128" xmlns="http://www.w3.org/2000/svg" xmlns:ev="http://www.w3.org/2001/xml-events" xmlns:xlink="http://www.w3.org/1999/xlink"><defs /><polyline fill="none" points="77.0612,10.8844 65.3061,8.7075 51.8095,8.7075 39.1837,11.7551 29.1701,17.415 18.2857,28.2993 13.4966,36.5714 9.5782,45.2789 8.7075,60.517 10.8844,69.6599 15.6735,78.8027 21.7687,86.6395 30.4762,93.1701 40.9252,97.9592 51.8095,100.1361 65.3061,101.0068 81.8503,99.2653 94.9116,95.7823 101.8776,91.8639 111.4558,84.898 119.2925,70.966 118.8571,55.2925 111.4558,40.9252 99.7007,29.1701 91.4286,23.0748 80.1088,16.9796 63.5646,13.4966" stroke="#00007f" stroke-width="2" /><polyline fill="none" points="30.0408,14.3673 40.4898,30.4762 43.5374,47.0204 38.3129,70.0952 34.3946,80.5442 29.1701,88.381" stroke="#0028ff" stroke-width="2" /><polyline fill="none" points="83.5918,19.1565 80.5442,39.619 80.5442,50.068 82.7211,61.8231 89.6871,75.7551 94.9116,81.415 100.1361,84.0272" stroke="#00d4ff" stroke-width="2" /><polyline fill="none" points="96.6531,72.7075 88.381,80.9796 85.3333,81.415" stroke="#7cff79" stroke-width="2" /><polyline fill="none" points="85.3333,69.6599 92.2993,72.2721 94.9116,71.4014" stroke="#ffe500" stroke-width="2" /><polyline fill="none" points="86.6395,57.9048 80.1088,65.7415 75.3197,65.7415" stroke="#ff4600" stroke-width="2" /><polyline fill="none" points="74.0136,50.068 86.6395,58.3401" stroke="#7f0000" stroke-width="2" /></svg>