<?xml version="1.0" encoding="utf-8" ?>
<svg baseProfile="tiny" height="128" version="1.2" viewBox="0,0,128,128" width="128" xmlns="http://www.w3.org/2000/svg" xmlns:ev="http://www.w3.org/2001/xml-events" xmlns:xlink="http://www.w3.org/1999/xlink"><defs /><polyline fill="none" points="39.0508,11.2814 53.8034,15.6203 59.4441,19.0915 62.4814,22.9966 73.3288,44.2576 96.3254,100.2305 95.4576,108.9085 92.4203,115.4169 73.7627,118.8881 59.878,119.322 46.4271,116.2847 40.3525,112.3797 24.2983,94.5898 16.0542,82.0068 10.4136,70.7254 9.1119,59.0102 8.678,37.7492 13.8847,21.261 16.4881,17.7898 23.4305,13.0169 34.7119,8.678 37.3153,9.5458" stroke="#00007f" stroke-width="2" /><polyline fill="none" points="28.6373,14.3186 30.3729,22.5627" stroke="#0000ff" stroke-width="2" /><polyline fill="none" points="32.1085,26.9017 51.2,75.4983 55.9729,92.8542" stroke="#0080ff" stroke-width="2" /><polyline fill="none" points="60.3119,75.0644 40.3525,78.5356" stroke="#15ffe1" stroke-width="2" /><polyline fill="none" points="52.0678,52.9356 49.0305,54.2373 40.3525,54.2373" stroke="#7cff79" stroke-width="2" /><polyline fill="none" points="37.3153,55.1051 36.8814,55.539" stroke="#e4ff12" stroke-width="2" /><polyline fill="none" points="41.6542,54.6712 45.5593,55.9729" stroke="#ff9400" stroke-width="2" /><polyline fill="none" points="47.2949,35.1458 30.8068,41.6542" stroke="#ff1d00" stroke-width="2" /><polyline fill="none" points="42.522,55.539 34.7119,54.2373" stroke="#7f0000" stroke-width="2" /></svg>