<?xml version="1.0" encoding="utf-8" ?>
<svg baseProfile="tiny" height="128" version="1.2" viewBox="0,0,128,128" width="128" xmlns="http://www.w3.org/2000/svg" xmlns:ev="http://www.w3.org/2001/xml-events" xmlns:xlink="http://www.w3.org/1999/xlink"><defs /><polyline fill="none" points="58.3401,13.932 47.4558,13.0612 36.5714,19.5918 30.4762,24.381 20.0272,37.0068 12.6259,51.3741 9.5782,67.9184 10.0136,84.898 15.2381,99.7007 19.1565,106.2313 23.5102,111.4558 35.7007,117.9864 42.6667,119.2925 63.5646,119.2925 70.0952,117.9864 81.415,113.1973 90.9932,104.9252 94.4762,100.1361 99.7007,83.1565 100.1361,71.4014 97.0884,59.2109 90.9932,46.1497 83.5918,36.1361 74.8844,28.7347 63.1293,21.3333" stroke="#00007f" stroke-width="2" /><polyline fill="none" points="46.1497,8.7075 46.1497,28.7347 43.102,47.8912 32.2177,82.2857 22.6395,97.5238 16.1088,102.3129 8.7075,103.1837" stroke="#7cff79" stroke-width="2" /><polyline fill="none" points="51.8095,13.4966 50.5034,14.8027 47.0204,34.8299 47.0204,53.551 52.2449,68.3537 57.034,77.0612 67.483,90.1224 77.4966,94.9116 87.0748,94.9116 99.7007,87.9456" stroke="#7f0000" stroke-width="2" /></svg>