<?xml version="1.0" encoding="utf-8" ?>
<svg baseProfile="tiny" height="128" version="1.2" viewBox="0,0,128,128" width="128" xmlns="http://www.w3.org/2000/svg" xmlns:ev="http://www.w3.org/2001/xml-events" xmlns:xlink="http://www.w3.org/1999/xlink"><defs /><polyline fill="none" points="31.4539,11.7952 31.0171,8.7372 26.2116,8.7372 15.2901,17.4744 9.6109,30.1433 10.9215,37.57 16.1638,40.628 22.2799,41.0648 29.7065,37.57 35.3857,32.7645 37.57,26.6485 36.2594,17.0375 34.0751,13.1058 28.8328,8.7372" stroke="#00007f" stroke-width="2" /><polyline fill="none" points="116.6416,40.628 116.6416,38.8805" stroke="#0000c3" stroke-width="2" /><polyline fill="none" points="16.1638,42.8123 18.785,38.0068 24.0273,20.5324 28.3959,11.7952 27.0853,10.9215 24.4642,13.1058" stroke="#0000ff" stroke-width="2" /><polyline fill="none" points="18.3481,16.1638 25.7747,28.3959 34.0751,35.3857 32.3276,37.1331 27.5222,36.2594" stroke="#0034ff" stroke-width="2" /><polyline fill="none" points="8.7372,29.2696 10.4846,27.5222 17.4744,26.2116 36.2594,24.0273 30.5802,22.2799" stroke="#0070ff" stroke-width="2" /><polyline fill="none" points="27.959,12.2321 27.0853,11.3584 14.4164,41.0648" stroke="#00acff" stroke-width="2" /><polyline fill="none" points="16.1638,20.0956 29.7065,36.2594" stroke="#02e8f4" stroke-width="2" /><polyline fill="none" points="16.1638,20.5324 18.785,24.901 27.959,33.6382 24.901,29.7065" stroke="#32ffc3" stroke-width="2" /><polyline fill="none" points="20.0956,14.8532 22.7167,20.0956 32.3276,28.8328 25.3379,17.9113 36.2594,28.8328 37.1331,29.2696 35.8225,25.3379" stroke="#63ff93" stroke-width="2" /><polyline fill="none" points="24.4642,11.3584 32.3276,19.6587" stroke="#93ff63" stroke-width="2" /><polyline fill="none" points="26.6485,12.6689 26.2116,13.9795" stroke="#c3ff32" stroke-width="2" /><polyline fill="none" points="17.4744,17.0375 24.4642,29.2696" stroke="#f4f802" stroke-width="2" /><polyline fill="none" points="12.2321,26.6485 20.9693,34.9488 17.4744,34.5119" stroke="#ffc000" stroke-width="2" /><polyline fill="none" points="10.0478,28.3959 19.2218,37.1331" stroke="#ff8900" stroke-width="2" /><polyline fill="none" points="16.1638,35.8225 15.2901,34.9488" stroke="#ff5100" stroke-width="2" /><polyline fill="none" points="10.4846,29.2696 16.1638,37.1331" stroke="#ff1a00" stroke-width="2" /><polyline fill="none" points="117.9522,38.4437 117.5154,38.8805" stroke="#c30000" stroke-width="2" /><polyline fill="none" points="117.0785,38.0068 119.2628,39.7543 117.0785,40.1911 117.9522,38.4437" stroke="#7f0000" stroke-width="2" /></svg>