<?xml version="1.0" encoding="utf-8" ?>
<svg baseProfile="tiny" height="128" version="1.2" viewBox="0,0,128,128" width="128" xmlns="http://www.w3.org/2000/svg" xmlns:ev="http://www.w3.org/2001/xml-events" xmlns:xlink="http://www.w3.org/1999/xlink"><defs /><polyline fill="none" points="14.7525,38.6169 23.4305,29.0712 53.8034,14.3186 72.8949,8.678 88.5153,8.678 94.5898,10.4136 99.3627,14.3186 109.3424,23.8644 113.2475,29.5051 118.8881,42.0881 119.322,58.1424 117.5864,66.8203 105.4373,85.478 92.8542,97.1932 85.9119,100.2305 77.6678,101.0983 55.9729,101.5322 36.8814,98.061 28.2034,94.5898 15.1864,86.3458 9.1119,73.7627 8.678,59.4441" stroke="#00007f" stroke-width="2" /><polyline fill="none" points="24.2983,26.4678 42.0881,35.1458 46.861,39.9186 56.4068,52.0678 59.0102,58.5763 59.878,65.9525 60.3119,85.478 59.0102,92.8542 55.1051,94.5898" stroke="#0000f1" stroke-width="2" /><polyline fill="none" points="76.3661,9.9797 74.1966,13.0169 69.8576,36.0136 69.8576,57.7085 72.461,65.0847 80.7051,76.3661 89.3831,84.6102 101.5322,91.1186" stroke="#004cff" stroke-width="2" /><polyline fill="none" points="33.4102,32.1085 36.4475,29.939 42.9559,29.939" stroke="#00b0ff" stroke-width="2" /><polyline fill="none" points="47.7288,49.8983 61.6136,49.0305" stroke="#29ffcd" stroke-width="2" /><polyline fill="none" points="52.9356,67.6881 52.9356,67.6881" stroke="#7cff79" stroke-width="2" /><polyline fill="none" points="51.6339,85.478 61.6136,85.9119" stroke="#cdff29" stroke-width="2" /><polyline fill="none" points="62.4814,22.1288 79.4034,24.2983" stroke="#ffc400" stroke-width="2" /><polyline fill="none" points="64.6508,46.861 64.6508,46.861" stroke="#ff6700" stroke-width="2" /><polyline fill="none" points="73.3288,70.2915 80.7051,70.7254" stroke="#f10700" stroke-width="2" /><polyline fill="none" points="82.4407,87.2136 88.0814,83.3085" stroke="#7f0000" stroke-width="2" /></svg>