<?xml version="1.0" encoding="utf-8" ?>
<svg baseProfile="tiny" height="128" version="1.2" viewBox="0,0,128,128" width="128" xmlns="http://www.w3.org/2000/svg" xmlns:ev="http://www.w3.org/2001/xml-events" xmlns:xlink="http://www.w3.org/1999/xlink"><defs /><polyline fill="none" points="69.8576,20.8271 66.3864,19.0915 59.878,19.0915 51.6339,19.5254 41.6542,22.5627 22.5627,36.8814 15.1864,46.4271 11.2814,55.1051 8.678,65.0847 8.678,86.3458 13.4508,96.3254 19.9593,103.2678 28.6373,108.9085 37.7492,112.8136 59.0102,113.2475 69.8576,111.9458 82.0068,107.6068 101.5322,97.1932 108.4746,91.1186 114.5492,83.7424 117.5864,75.0644 119.322,53.8034 113.2475,42.0881 108.4746,36.4475 97.1932,26.9017 78.5356,18.6576 71.5932,16.4881 56.8407,16.0542" stroke="#00007f" stroke-width="2" /><polyline fill="none" points="49.0305,8.678 49.8983,54.6712" stroke="#0010ff" stroke-width="2" /><polyline fill="none" points="54.2373,66.8203 54.2373,66.8203" stroke="#00a4ff" stroke-width="2" /><polyline fill="none" points="50.3322,49.0305 49.0305,64.2169 49.8983,114.5492" stroke="#3fffb7" stroke-width="2" /><polyline fill="none" points="64.2169,15.1864 64.2169,52.0678 69.8576,105.4373" stroke="#b7ff3f" stroke-width="2" /><polyline fill="none" points="11.7153,58.1424 45.1254,58.1424" stroke="#ffb900" stroke-width="2" /><polyline fill="none" points="10.4136,85.478 14.3186,82.8746 26.0339,82.8746 52.0678,79.4034" stroke="#ff3000" stroke-width="2" /><polyline fill="none" points="63.7831,54.6712 96.3254,49.8983" stroke="#7f0000" stroke-width="2" /></svg>