<?xml version="1.0" encoding="utf-8" ?>
<svg baseProfile="tiny" height="128" version="1.2" viewBox="0,0,128,128" width="128" xmlns="http://www.w3.org/2000/svg" xmlns:ev="http://www.w3.org/2001/xml-events" xmlns:xlink="http://www.w3.org/1999/xlink"><defs /><polyline fill="none" points="114.9831,20.3932 98.061,13.0169 79.4034,8.678 61.6136,8.678 46.4271,15.1864 25.6,35.1458 12.1492,58.1424 9.1119,76.3661 8.678,87.2136 16.0542,96.7593 30.8068,105.4373 39.4847,106.739 62.4814,107.6068 82.0068,101.5322 94.1559,96.3254 108.9085,85.9119 116.2847,74.6305 119.322,55.539 119.322,34.7119 116.7186,25.6 110.6441,16.922" stroke="#00007f" stroke-width="2" /><polyline fill="none" points="48.5966,13.8847 57.2746,36.0136 58.1424,52.5017 56.8407,60.7458 51.2,78.9695 43.8237,95.4576 40.3525,100.6644 32.1085,108.4746" stroke="#7cff79" stroke-width="2" /><polyline fill="none" points="103.2678,15.6203 95.8915,26.0339 87.2136,50.7661 86.3458,84.1763 88.9492,92.4203 91.9864,96.7593" stroke="#7f0000" stroke-width="2" /></svg>