<?xml version="1.0" encoding="utf-8" ?>
<svg baseProfile="tiny" height="128" version="1.2" viewBox="0,0,128,128" width="128" xmlns="http://www.w3.org/2000/svg" xmlns:ev="http://www.w3.org/2001/xml-events" xmlns:xlink="http://www.w3.org/1999/xlink"><defs /><polyline fill="none" points="37.4422,22.2041 29.6054,23.0748 22.6395,30.0408 16.1088,39.1837 11.3197,50.068 8.7075,62.2585 8.7075,83.5918 13.0612,93.6054 20.0272,101.8776 30.9116,108.8435 42.6667,113.1973 55.2925,113.6327 69.2245,112.3265 82.2857,107.5374 104.4898,94.9116 116.2449,78.3673 119.2925,67.483 118.4218,47.4558 106.2313,31.7823 90.1224,18.7211 81.415,13.4966 65.3061,9.1429 33.9592,8.7075 33.5238,10.8844 36.1361,11.7551 40.9252,16.5442 48.3265,31.3469 50.5034,57.4694 49.1973,66.1769 45.7143,75.3197 36.5714,92.7347 27.8639,103.1837" stroke="#00007f" stroke-width="2" /><polyline fill="none" points="82.2857,14.8027 80.1088,35.2653 79.2381,69.6599 86.6395,90.9932 94.4762,100.1361 100.5714,101.4422" stroke="#7f0000" stroke-width="2" /></svg>