<?xml version="1.0" encoding="utf-8" ?>
<svg baseProfile="tiny" height="128" version="1.2" viewBox="0,0,128,128" width="128" xmlns="http://www.w3.org/2000/svg" xmlns:ev="http://www.w3.org/2001/xml-events" xmlns:xlink="http://www.w3.org/1999/xlink"><defs /><polyline fill="none" points="72.0271,10.4136 66.8203,8.678 59.878,9.5458 26.9017,29.0712 19.0915,36.8814 10.4136,49.4644 8.678,61.1797 8.678,68.122 12.1492,78.9695 19.0915,91.9864 34.278,110.6441 45.5593,116.7186 66.8203,119.322 74.1966,116.7186 81.5729,107.6068 93.722,85.478 98.9288,66.8203 98.9288,30.3729 91.9864,17.3559 86.3458,13.8847 73.7627,8.678 59.4441,8.678 55.1051,9.5458 55.1051,11.2814" stroke="#00007f" stroke-width="2" /><polyline fill="none" points="21.6949,20.8271 49.8983,60.7458 53.3695,67.6881 55.1051,78.1017 55.1051,90.2508 48.1627,111.5119" stroke="#7cff79" stroke-width="2" /><polyline fill="none" points="91.1186,12.1492 85.0441,22.9966 72.0271,58.1424 67.6881,79.8373 68.5559,102.8339 85.0441,118.4542" stroke="#7f0000" stroke-width="2" /></svg>