<?xml version="1.0" encoding="utf-8" ?>
<svg baseProfile="tiny" height="128" version="1.2" viewBox="0,0,128,128" width="128" xmlns="http://www.w3.org/2000/svg" xmlns:ev="http://www.w3.org/2001/xml-events" xmlns:xlink="http://www.w3.org/1999/xlink"><defs /><polyline fill="none" points="70.5306,11.7551 62.6939,9.5782 53.1156,9.1429 36.5714,15.6735 20.0272,32.2177 10.0136,54.4218 8.7075,64.8707 8.7075,77.4966 12.1905,89.2517 18.7211,100.1361 26.9932,108.4082 37.0068,114.068 47.4558,116.6803 60.517,117.551 71.8367,114.068 83.1565,107.5374 93.6054,98.8299 107.102,77.932 111.0204,67.483 112.3265,55.2925 111.0204,42.6667 107.9728,30.9116 101.8776,21.3333 94.9116,14.8027 86.2041,10.8844 76.1905,8.7075 60.9524,8.7075 53.1156,12.6259" stroke="#00007f" stroke-width="2" /><polyline fill="none" points="77.4966,11.7551 77.4966,19.5918 66.6122,75.3197 67.9184,96.6531 71.4014,109.2789" stroke="#00d4ff" stroke-width="2" /><polyline fill="none" points="31.7823,24.8163 30.9116,33.0884 34.3946,56.5986 35.2653,90.9932 28.2993,119.2925" stroke="#ffe500" stroke-width="2" /><polyline fill="none" points="22.2041,42.2313 40.9252,42.6667 40.4898,47.0204 32.2177,57.034 26.1224,67.0476 30.0408,68.7891 35.7007,68.7891" stroke="#7f0000" stroke-width="2" /></svg>