<?xml version="1.0" encoding="utf-8" ?>
<svg baseProfile="tiny" height="128" version="1.2" viewBox="0,0,128,128" width="128" xmlns="http://www.w3.org/2000/svg" xmlns:ev="http://www.w3.org/2001/xml-events" xmlns:xlink="http://www.w3.org/1999/xlink"><defs /><polyline fill="none" points="110.0887,25.3379 89.5563,11.3584 85.1877,10.0478 74.7031,8.7372 62.0341,9.6109 49.3652,14.4164 31.8908,25.3379 21.4061,37.1331 13.9795,50.2389 8.7372,71.6451 9.1741,92.6143 14.4164,103.5358 17.9113,108.3413 29.2696,114.8942 36.6962,116.2048 53.2969,116.2048 68.587,112.7099 81.6928,106.5939 99.6041,93.4881 108.3413,85.1877 115.3311,75.5768 119.2628,63.3447 118.8259,49.3652 112.7099,27.5222 109.6519,25.3379" stroke="#00007f" stroke-width="2" /><polyline fill="none" points="103.099,18.3481 95.6724,42.3754 93.0512,56.7918 91.7406,83.4403 95.6724,97.8567" stroke="#0028ff" stroke-width="2" /><polyline fill="none" points="87.372,37.1331 109.215,37.1331" stroke="#00d4ff" stroke-width="2" /><polyline fill="none" points="86.0614,59.8498 103.099,58.9761" stroke="#7cff79" stroke-width="2" /><polyline fill="none" points="80.3823,86.0614 101.3515,84.314" stroke="#ffe500" stroke-width="2" /><polyline fill="none" points="83.0034,95.2355 93.9249,94.7986 105.7201,90.8669" stroke="#ff4600" stroke-width="2" /><polyline fill="none" points="35.8225,21.4061 41.0648,33.2014 41.5017,44.5597 37.1331,70.7713 27.959,98.2935 26.6485,109.6519" stroke="#7f0000" stroke-width="2" /></svg>