<?xml version="1.0" encoding="utf-8" ?>
<svg baseProfile="tiny" height="128" version="1.2" viewBox="0,0,128,128" width="128" xmlns="http://www.w3.org/2000/svg" xmlns:ev="http://www.w3.org/2001/xml-events" xmlns:xlink="http://www.w3.org/1999/xlink"><defs /><polyline fill="none" points="74.1966,13.0169 66.3864,9.1119 55.9729,8.678 40.7864,15.1864 33.8441,18.6576 26.0339,25.6 15.1864,38.1831 12.5831,43.8237 8.678,65.5186 10.4136,77.2339 13.8847,83.3085 21.261,92.8542 27.3356,96.3254 42.9559,99.3627 51.2,99.3627 81.5729,95.8915 101.0983,88.5153 108.0407,83.3085 113.2475,76.8 117.5864,68.122 119.322,55.539 118.8881,40.7864 116.7186,30.8068 114.1153,24.2983 109.3424,18.2237 102.8339,14.7525 87.2136,9.9797 64.2169,11.7153 57.7085,14.3186" stroke="#00007f" stroke-width="2" /><polyline fill="none" points="23.4305,28.6373 33.8441,29.5051 44.6915,37.7492 55.1051,52.0678 59.0102,59.4441 61.6136,67.6881 61.6136,76.3661 58.1424,86.7797 53.3695,94.1559 49.8983,95.8915 47.7288,95.0237" stroke="#7cff79" stroke-width="2" /><polyline fill="none" points="102.4,14.3186 95.4576,13.8847 89.3831,17.3559 82.8746,22.5627 74.6305,35.5797 72.8949,54.6712 75.0644,66.3864 77.2339,75.0644 82.4407,82.0068" stroke="#7f0000" stroke-width="2" /></svg>