<?xml version="1.0" encoding="utf-8" ?>
<svg baseProfile="tiny" height="128" version="1.2" viewBox="0,0,128,128" width="128" xmlns="http://www.w3.org/2000/svg" xmlns:ev="http://www.w3.org/2001/xml-events" xmlns:xlink="http://www.w3.org/1999/xlink"><defs /><polyline fill="none" points="72.461,8.678 50.7661,10.4136 27.7695,17.7898 13.4508,26.0339 10.8475,29.5051 8.678,37.7492 8.678,50.3322 9.9797,60.7458 14.7525,68.5559 23.4305,72.8949 38.1831,75.9322 90.6847,81.5729 107.6068,72.8949 114.9831,66.8203 117.1525,62.9153 119.322,52.0678 119.322,44.6915 116.2847,38.6169 106.739,29.5051 77.2339,12.5831" stroke="#00007f" stroke-width="2" /><polyline fill="none" points="20.8271,21.261 33.8441,30.8068 72.461,43.3898 88.5153,54.6712 111.078,66.3864 111.9458,63.7831 109.7763,59.0102" stroke="#0000ff" stroke-width="2" /><polyline fill="none" points="36.8814,24.7322 32.1085,29.939" stroke="#0080ff" stroke-width="2" /><polyline fill="none" points="33.8441,29.5051 29.0712,32.9763" stroke="#15ffe1" stroke-width="2" /><polyline fill="none" points="47.7288,30.8068 41.6542,36.0136" stroke="#7cff79" stroke-width="2" /><polyline fill="none" points="58.1424,38.6169 56.4068,41.6542 65.5186,36.0136" stroke="#e4ff12" stroke-width="2" /><polyline fill="none" points="75.4983,43.3898 69.8576,49.0305" stroke="#ff9400" stroke-width="2" /><polyline fill="none" points="85.478,48.5966 78.1017,51.2" stroke="#ff1d00" stroke-width="2" /><polyline fill="none" points="95.4576,52.0678 88.9492,53.8034" stroke="#7f0000" stroke-width="2" /></svg>