<?xml version="1.0" encoding="utf-8" ?>
<svg baseProfile="tiny" height="128" version="1.2" viewBox="0,0,128,128" width="128" xmlns="http://www.w3.org/2000/svg" xmlns:ev="http://www.w3.org/2001/xml-events" xmlns:xlink="http://www.w3.org/1999/xlink"><defs /><polyline fill="none" points="39.9186,114.9831 33.4102,114.5492 18.6576,103.7017 13.8847,96.7593 10.8475,88.0814 8.678,62.4814 9.1119,47.2949 14.7525,32.5424 28.2034,19.0915 46.861,11.2814 57.7085,9.5458 72.8949,9.5458 87.6475,12.5831 97.6271,16.0542 104.5695,20.8271 108.0407,24.2983 114.5492,35.5797 117.5864,49.0305 118.0203,59.0102 117.1525,75.0644 114.9831,82.0068 108.0407,93.722 100.6644,100.6644 91.9864,106.3051 82.0068,110.6441 64.6508,114.1153 47.7288,114.5492 38.1831,113.2475 31.6746,110.2102 26.4678,104.1356" stroke="#00007f" stroke-width="2" /><polyline fill="none" points="88.5153,9.9797 81.5729,19.0915 77.6678,29.939 78.5356,58.5763 85.478,84.1763 102.8339,119.322" stroke="#00d4ff" stroke-width="2" /><polyline fill="none" points="53.8034,9.5458 53.8034,13.0169" stroke="#ffe500" stroke-width="2" /><polyline fill="none" points="63.3492,8.678 53.3695,12.5831 48.5966,21.6949 46.4271,30.3729" stroke="#7f0000" stroke-width="2" /></svg>