<?xml version="1.0" encoding="utf-8" ?>
<svg baseProfile="tiny" height="128" version="1.2" viewBox="0,0,128,128" width="128" xmlns="http://www.w3.org/2000/svg" xmlns:ev="http://www.w3.org/2001/xml-events" xmlns:xlink="http://www.w3.org/1999/xlink"><defs /><polyline fill="none" points="26.9017,22.9966 22.5627,32.5424 13.8847,61.6136 12.1492,73.7627 12.5831,91.1186 16.4881,101.0983 23.8644,109.7763 31.6746,115.4169 47.2949,118.4542 56.8407,117.5864 75.9322,110.2102 97.6271,95.0237 108.0407,83.7424 113.2475,76.3661 118.0203,63.7831 118.8881,55.1051 115.8508,42.522 113.2475,37.3153 104.1356,26.4678 95.8915,20.3932 82.0068,12.5831 69.8576,9.1119 56.8407,8.678 36.4475,10.8475 15.6203,16.922 8.678,21.6949" stroke="#00007f" stroke-width="2" /><polyline fill="none" points="21.261,14.7525 29.5051,19.9593 42.9559,33.4102 52.0678,49.4644 56.4068,64.2169 57.2746,84.1763 55.9729,93.722 46.861,108.4746 36.0136,119.322" stroke="#004cff" stroke-width="2" /><polyline fill="none" points="92.8542,16.4881 84.1763,25.6 74.1966,42.9559 70.2915,54.2373 69.4237,67.2542 72.0271,83.3085 78.5356,93.722 81.5729,97.1932 96.3254,105.8712" stroke="#29ffcd" stroke-width="2" /><polyline fill="none" points="29.939,55.539 34.278,52.0678 56.4068,44.6915" stroke="#cdff29" stroke-width="2" /><polyline fill="none" points="36.4475,69.8576 58.1424,65.9525" stroke="#ff6700" stroke-width="2" /><polyline fill="none" points="42.522,90.6847 55.1051,92.4203 65.5186,91.5525" stroke="#7f0000" stroke-width="2" /></svg>