<?xml version="1.0" encoding="utf-8" ?>
<svg baseProfile="tiny" height="128" version="1.2" viewBox="0,0,128,128" width="128" xmlns="http://www.w3.org/2000/svg" xmlns:ev="http://www.w3.org/2001/xml-events" xmlns:xlink="http://www.w3.org/1999/xlink"><defs /><polyline fill="none" points="58.1424,17.3559 37.3153,16.4881 24.2983,25.1661 17.3559,32.1085 11.2814,45.1254 8.678,58.1424 12.1492,79.4034 14.7525,87.2136 18.2237,91.9864 31.6746,100.2305 49.4644,105.4373 65.5186,101.0983 70.7254,97.6271 75.0644,89.8169 82.4407,68.9898 84.6102,61.1797 84.1763,52.9356 79.4034,37.7492 75.0644,29.5051 57.2746,16.4881" stroke="#00007f" stroke-width="2" /><polyline fill="none" points="61.6136,18.2237 74.6305,13.0169 77.6678,13.0169 93.2881,18.2237 108.9085,26.9017 114.1153,34.7119 118.4542,47.7288 119.322,65.9525 114.1153,78.1017 108.9085,85.9119 101.0983,93.2881 90.6847,98.4949 55.539,104.5695" stroke="#7cff79" stroke-width="2" /><polyline fill="none" points="75.9322,11.2814 65.5186,8.678 49.8983,8.678 39.4847,14.7525 33.8441,21.6949" stroke="#7f0000" stroke-width="2" /></svg>