<?xml version="1.0" encoding="utf-8" ?>
<svg baseProfile="tiny" height="128" version="1.2" viewBox="0,0,128,128" width="128" xmlns="http://www.w3.org/2000/svg" xmlns:ev="http://www.w3.org/2001/xml-events" xmlns:xlink="http://www.w3.org/1999/xlink"><defs /><polyline fill="none" points="55.1051,12.5831 42.0881,13.0169 32.1085,17.3559 26.4678,21.261 11.2814,39.0508 8.678,49.0305 9.1119,61.1797 18.6576,82.4407 23.8644,88.9492 30.8068,95.0237 42.9559,96.7593 61.1797,96.3254 92.8542,85.0441 103.2678,77.2339 114.9831,64.6508 119.322,55.539 119.322,50.3322 114.9831,36.8814 106.739,22.5627 101.9661,17.3559 91.5525,12.1492 75.0644,8.678 42.9559,8.678 38.6169,11.2814" stroke="#00007f" stroke-width="2" /><polyline fill="none" points="24.7322,26.0339 29.5051,35.5797 36.4475,44.2576 43.8237,47.7288 55.539,48.1627 58.5763,49.0305 64.6508,55.1051 69.4237,68.5559 69.4237,77.6678 67.2542,91.9864" stroke="#7f0000" stroke-width="2" /></svg>