<?xml version="1.0" encoding="utf-8" ?>
<svg baseProfile="tiny" height="128" version="1.2" viewBox="0,0,128,128" width="128" xmlns="http://www.w3.org/2000/svg" xmlns:ev="http://www.w3.org/2001/xml-events" xmlns:xlink="http://www.w3.org/1999/xlink"><defs /><polyline fill="none" points="42.522,17.7898 29.939,27.7695 23.8644,34.7119 15.6203,49.8983 8.678,77.2339 9.1119,89.3831 16.4881,99.3627 28.6373,108.0407 40.7864,112.8136 49.4644,114.5492 65.5186,112.8136 74.1966,108.9085 83.3085,103.2678 99.7966,86.7797 107.1729,78.1017 111.5119,70.7254 118.0203,49.8983 119.322,39.4847 117.1525,32.1085 107.6068,19.5254 99.7966,13.8847 92.8542,11.2814 82.8746,8.678 65.5186,8.678 43.8237,17.7898" stroke="#00007f" stroke-width="2" /><polyline fill="none" points="68.9898,9.5458 70.7254,42.9559 73.7627,59.878 80.2712,72.461 85.478,78.9695 88.9492,80.2712" stroke="#00d4ff" stroke-width="2" /><polyline fill="none" points="16.4881,28.2034 35.1458,54.6712 45.1254,80.2712 51.2,101.9661 49.8983,118.8881 38.6169,64.6508 20.3932,39.0508" stroke="#ffe500" stroke-width="2" /><polyline fill="none" points="73.7627,16.4881 73.3288,32.9763 75.9322,67.6881 94.1559,93.722 95.8915,93.722" stroke="#7f0000" stroke-width="2" /></svg>