<?xml version="1.0" encoding="utf-8" ?>
<svg baseProfile="tiny" height="128" version="1.2" viewBox="0,0,128,128" width="128" xmlns="http://www.w3.org/2000/svg" xmlns:ev="http://www.w3.org/2001/xml-events" xmlns:xlink="http://www.w3.org/1999/xlink"><defs /><polyline fill="none" points="59.4441,8.678 40.3525,9.5458 29.5051,14.3186 17.7898,23.8644 10.8475,36.0136 8.678,52.5017 9.1119,75.0644 16.0542,88.0814 26.4678,100.2305 31.2407,105.0034 41.2203,109.7763 54.2373,112.8136 86.3458,113.2475 104.1356,99.7966 112.3797,91.9864 118.0203,81.139 119.322,76.3661 119.322,56.4068 117.5864,45.1254 103.2678,27.3356 90.2508,17.3559 80.2712,12.1492 67.2542,9.5458 50.7661,9.5458 37.7492,13.8847 37.3153,16.4881 43.3898,23.4305 50.3322,40.7864 50.7661,86.7797 43.8237,103.7017 43.8237,110.6441" stroke="#00007f" stroke-width="2" /><polyline fill="none" points="85.9119,113.2475 80.7051,96.7593 75.9322,71.5932 74.6305,45.1254 76.3661,33.8441 79.8373,23.8644 81.139,21.261 86.7797,17.7898" stroke="#7f0000" stroke-width="2" /></svg>