<?xml version="1.0" encoding="utf-8" ?>
<svg baseProfile="tiny" height="128" version="1.2" viewBox="0,0,128,128" width="128" xmlns="http://www.w3.org/2000/svg" xmlns:ev="http://www.w3.org/2001/xml-events" xmlns:xlink="http://www.w3.org/1999/xlink"><defs /><polyline fill="none" points="10.8475,43.8237 16.4881,32.9763 22.1288,27.3356 36.8814,17.3559 57.7085,10.4136 71.5932,8.678 83.3085,8.678 92.4203,10.8475 101.5322,16.0542 108.9085,22.9966 116.2847,34.7119 118.4542,42.9559 119.322,55.539 117.1525,67.2542 112.3797,74.6305 106.739,80.7051 83.7424,94.5898 67.2542,98.4949 54.2373,98.4949 46.861,95.4576 17.3559,75.9322 14.3186,71.5932 11.2814,62.0475 8.678,51.2 8.678,43.3898 13.0169,36.4475 35.1458,24.7322" stroke="#00007f" stroke-width="2" /><polyline fill="none" points="38.1831,45.5593 45.1254,30.3729 51.6339,23.4305 62.0475,16.0542 85.0441,11.7153 68.9898,11.7153 58.1424,15.6203 52.0678,20.3932 36.8814,39.0508 34.278,50.3322 35.5797,61.6136 39.0508,68.122 39.4847,74.6305 44.6915,82.4407 50.3322,87.2136" stroke="#004cff" stroke-width="2" /><polyline fill="none" points="88.0814,12.1492 75.0644,19.9593 67.2542,27.3356 62.0475,35.5797 60.7458,44.2576 59.878,81.5729 60.3119,88.0814 63.3492,92.8542 65.9525,93.2881" stroke="#29ffcd" stroke-width="2" /><polyline fill="none" points="44.6915,26.4678 52.5017,29.5051 71.1593,30.8068" stroke="#cdff29" stroke-width="2" /><polyline fill="none" points="36.8814,51.2 51.2,52.9356 65.5186,51.2" stroke="#ff6700" stroke-width="2" /><polyline fill="none" points="39.4847,83.3085 42.0881,85.9119 44.6915,86.3458 57.7085,83.7424" stroke="#7f0000" stroke-width="2" /></svg>