<?xml version="1.0" encoding="utf-8" ?>
<svg baseProfile="tiny" height="128" version="1.2" viewBox="0,0,128,128" width="128" xmlns="http://www.w3.org/2000/svg" xmlns:ev="http://www.w3.org/2001/xml-events" xmlns:xlink="http://www.w3.org/1999/xlink"><defs /><polyline fill="none" points="86.7797,16.0542 82.0068,15.6203 70.7254,18.2237 50.7661,27.7695 36.0136,36.8814 16.4881,55.539 11.7153,63.3492 8.678,74.6305 9.1119,88.5153 10.4136,95.8915 15.1864,108.4746 22.5627,117.5864 26.9017,118.8881 39.4847,119.322 68.9898,105.4373 82.8746,95.4576 93.2881,84.1763 97.6271,76.8 101.9661,65.0847 104.1356,50.3322 104.1356,39.9186 101.5322,30.8068 97.1932,22.9966 91.1186,16.922 73.3288,8.678" stroke="#00007f" stroke-width="2" /><polyline fill="none" points="41.2203,39.4847 31.2407,55.9729 19.9593,86.3458 17.7898,98.9288 18.6576,116.2847" stroke="#0000ff" stroke-width="2" /><polyline fill="none" points="43.8237,33.8441 35.5797,51.2" stroke="#0080ff" stroke-width="2" /><polyline fill="none" points="30.3729,45.5593 32.1085,48.1627 41.6542,51.2" stroke="#15ffe1" stroke-width="2" /><polyline fill="none" points="25.6,58.1424 32.9763,67.6881" stroke="#7cff79" stroke-width="2" /><polyline fill="none" points="17.7898,72.461 18.6576,75.4983 26.9017,85.9119" stroke="#e4ff12" stroke-width="2" /><polyline fill="none" points="14.7525,89.3831 18.6576,94.5898 21.6949,102.4" stroke="#ff9400" stroke-width="2" /><polyline fill="none" points="90.2508,22.1288 88.5153,25.6 87.6475,49.4644 83.3085,74.6305 82.8746,91.1186 78.9695,104.5695" stroke="#ff1d00" stroke-width="2" /><polyline fill="none" points="95.0237,17.3559 95.0237,17.3559" stroke="#7f0000" stroke-width="2" /></svg>