<?xml version="1.0" encoding="utf-8" ?>
<svg baseProfile="tiny" height="128" version="1.2" viewBox="0,0,128,128" width="128" xmlns="http://www.w3.org/2000/svg" xmlns:ev="http://www.w3.org/2001/xml-events" xmlns:xlink="http://www.w3.org/1999/xlink"><defs /><polyline fill="none" points="91.1186,17.3559 82.0068,10.4136 62.9153,8.678 50.3322,12.5831 34.7119,19.9593 17.3559,32.1085 10.4136,41.6542 8.678,49.0305 9.1119,56.4068 11.7153,62.4814 17.3559,71.1593 26.9017,78.1017 33.4102,80.7051 51.6339,84.6102 77.2339,84.1763 98.9288,78.9695 105.4373,75.0644 114.5492,66.3864 118.4542,60.3119 119.322,51.6339 108.4746,32.5424 100.6644,24.7322 82.8746,11.7153 77.2339,9.9797" stroke="#00007f" stroke-width="2" /><polyline fill="none" points="29.939,77.2339 34.278,72.8949" stroke="#0000c8" stroke-width="2" /><polyline fill="none" points="38.1831,68.5559 42.522,62.0475" stroke="#0000ff" stroke-width="2" /><polyline fill="none" points="46.4271,55.539 47.7288,50.3322 47.2949,44.6915" stroke="#0040ff" stroke-width="2" /><polyline fill="none" points="46.861,38.6169 42.0881,33.4102 35.5797,31.2407" stroke="#0080ff" stroke-width="2" /><polyline fill="none" points="23.4305,28.6373 15.1864,28.6373" stroke="#00c0ff" stroke-width="2" /><polyline fill="none" points="62.0475,80.2712 67.2542,73.7627" stroke="#15ffe1" stroke-width="2" /><polyline fill="none" points="68.9898,67.2542 72.8949,61.1797 73.3288,57.7085" stroke="#49ffad" stroke-width="2" /><polyline fill="none" points="74.6305,53.8034 73.7627,43.8237 69.8576,38.6169" stroke="#7cff79" stroke-width="2" /><polyline fill="none" points="65.9525,32.1085 55.539,26.4678" stroke="#b0ff46" stroke-width="2" /><polyline fill="none" points="46.861,23.8644 40.7864,22.1288" stroke="#e4ff12" stroke-width="2" /><polyline fill="none" points="82.8746,78.5356 90.6847,66.8203 92.8542,57.2746" stroke="#ffcf00" stroke-width="2" /><polyline fill="none" points="94.5898,47.7288 76.8,20.3932" stroke="#ff9400" stroke-width="2" /><polyline fill="none" points="70.7254,13.8847 55.1051,12.5831" stroke="#ff5900" stroke-width="2" /><polyline fill="none" points="22.1288,24.7322 39.4847,37.7492 43.8237,45.9932 45.1254,54.2373 36.4475,68.5559" stroke="#ff1d00" stroke-width="2" /><polyline fill="none" points="57.2746,79.8373 61.1797,81.5729 72.461,68.9898 75.0644,63.7831 76.3661,56.4068 75.4983,47.7288 68.9898,29.5051 62.9153,22.1288 58.1424,19.0915 45.1254,16.922" stroke="#c30000" stroke-width="2" /><polyline fill="none" points="66.8203,14.7525 83.7424,36.8814 90.6847,50.3322 93.722,63.3492 94.1559,70.7254 90.6847,80.7051" stroke="#7f0000" stroke-width="2" /></svg>