<?xml version="1.0" encoding="utf-8" ?>
<svg baseProfile="tiny" height="128" version="1.2" viewBox="0,0,128,128" width="128" xmlns="http://www.w3.org/2000/svg" xmlns:ev="http://www.w3.org/2001/xml-events" xmlns:xlink="http://www.w3.org/1999/xlink"><defs /><polyline fill="none" points="98.061,11.2814 89.3831,8.678 63.7831,9.1119 43.8237,19.0915 33.4102,27.3356 27.3356,36.4475 17.7898,52.9356 9.5458,70.2915 8.678,75.4983 8.678,82.4407 10.8475,85.9119 28.6373,101.0983 40.7864,114.9831 47.7288,117.5864 70.7254,117.1525 79.4034,113.2475 88.0814,107.1729 91.9864,103.2678 103.2678,82.0068 112.3797,46.861 112.3797,37.7492 109.3424,29.939 104.1356,22.1288 92.8542,15.6203" stroke="#00007f" stroke-width="2" /><polyline fill="none" points="37.3153,25.6 37.3153,37.3153 41.2203,58.1424 41.6542,102.8339 39.4847,119.322" stroke="#0080ff" stroke-width="2" /><polyline fill="none" points="32.1085,52.9356 44.2576,48.1627" stroke="#7cff79" stroke-width="2" /><polyline fill="none" points="34.278,68.5559 41.2203,65.9525 57.2746,65.9525" stroke="#ff9400" stroke-width="2" /><polyline fill="none" points="41.2203,87.2136 50.3322,85.0441" stroke="#7f0000" stroke-width="2" /></svg>