<?xml version="1.0" encoding="utf-8" ?>
<svg baseProfile="tiny" height="128" version="1.2" viewBox="0,0,128,128" width="128" xmlns="http://www.w3.org/2000/svg" xmlns:ev="http://www.w3.org/2001/xml-events" xmlns:xlink="http://www.w3.org/1999/xlink"><defs /><polyline fill="none" points="116.2847,49.0305 111.5119,47.2949 103.2678,47.7288 98.4949,49.0305 90.6847,54.2373 86.7797,62.0475 86.3458,67.2542 90.2508,75.4983 93.722,78.5356 100.2305,80.2712 108.9085,77.2339 113.2475,72.8949 118.0203,63.3492 119.322,54.2373 117.1525,49.0305 113.2475,44.6915 109.7763,43.3898 104.5695,44.6915" stroke="#00007f" stroke-width="2" /><polyline fill="none" points="8.678,95.8915 24.2983,80.2712 32.5424,73.3288 55.1051,62.4814 57.7085,56.8407 58.5763,50.3322 52.9356,36.8814 51.2,26.9017 53.3695,19.9593 59.878,13.0169 65.9525,9.9797 71.5932,8.678 82.4407,10.8475 85.478,16.4881 85.9119,21.261 81.139,41.6542 78.1017,50.3322 71.5932,62.4814 61.6136,72.0271 48.5966,81.139 19.9593,89.3831 11.7153,89.8169 10.4136,88.0814 11.7153,79.8373 16.4881,72.461" stroke="#7f0000" stroke-width="2" /></svg>