<?xml version="1.0" encoding="utf-8" ?>
<svg baseProfile="tiny" height="128" version="1.2" viewBox="0,0,128,128" width="128" xmlns="http://www.w3.org/2000/svg" xmlns:ev="http://www.w3.org/2001/xml-events" xmlns:xlink="http://www.w3.org/1999/xlink"><defs /><polyline fill="none" points="64.2169,11.7153 55.9729,14.7525 26.4678,32.1085 13.0169,42.522 9.5458,50.7661 8.678,65.9525 9.9797,75.0644 16.922,91.1186 26.4678,104.5695 30.8068,107.6068 45.1254,111.9458 59.4441,111.9458 76.3661,107.6068 104.1356,90.2508 109.7763,84.1763 118.4542,60.7458 119.322,47.2949 118.0203,42.522 113.2475,34.278 105.0034,25.6 92.8542,15.1864 84.6102,10.8475 59.4441,8.678 58.1424,9.9797" stroke="#00007f" stroke-width="2" /><polyline fill="none" points="41.6542,22.1288 47.7288,29.5051 51.2,37.3153 52.9356,45.1254 52.0678,60.7458 46.4271,75.9322 39.4847,87.6475 34.278,95.0237 28.6373,99.3627" stroke="#7cff79" stroke-width="2" /><polyline fill="none" points="91.9864,16.922 83.3085,28.6373 80.2712,36.8814 78.9695,64.6508" stroke="#7f0000" stroke-width="2" /></svg>