<?xml version="1.0" encoding="utf-8" ?>
<svg baseProfile="tiny" height="128" version="1.2" viewBox="0,0,128,128" width="128" xmlns="http://www.w3.org/2000/svg" xmlns:ev="http://www.w3.org/2001/xml-events" xmlns:xlink="http://www.w3.org/1999/xlink"><defs /><polyline fill="none" points="18.6576,59.0102 16.922,57.7085 10.8475,65.9525 8.678,72.0271 9.1119,76.8 13.0169,82.8746 19.0915,84.1763 24.7322,83.3085 29.0712,81.139 34.278,75.9322 36.4475,68.122 35.5797,62.9153 32.1085,59.0102 28.2034,56.8407 20.8271,58.1424 14.7525,60.7458" stroke="#00007f" stroke-width="2" /><polyline fill="none" points="12.1492,61.6136 17.7898,63.3492 20.8271,68.9898 19.0915,78.1017 13.8847,84.6102" stroke="#00d4ff" stroke-width="2" /><polyline fill="none" points="34.7119,58.1424 31.2407,58.5763 26.0339,69.8576 27.3356,75.4983 29.939,78.5356" stroke="#ffe500" stroke-width="2" /><polyline fill="none" points="85.0441,63.7831 77.6678,67.2542 74.6305,72.0271 74.6305,82.8746 78.9695,89.8169 93.2881,82.0068 98.061,77.2339 101.0983,70.2915 101.0983,67.6881 99.7966,68.122 99.3627,70.2915 100.6644,74.6305 104.5695,78.5356 114.9831,77.2339 118.0203,74.6305 119.322,71.5932 118.8881,68.5559 114.9831,62.0475 98.9288,51.6339 99.7966,41.2203 98.4949,28.6373 96.7593,19.0915 92.8542,11.7153 88.0814,8.678 81.5729,11.2814 77.2339,14.7525 73.3288,24.2983 72.461,37.7492 75.0644,50.3322 79.8373,58.5763" stroke="#7f0000" stroke-width="2" /></svg>