<?xml version="1.0" encoding="utf-8" ?>
<svg baseProfile="tiny" height="128" version="1.2" viewBox="0,0,128,128" width="128" xmlns="http://www.w3.org/2000/svg" xmlns:ev="http://www.w3.org/2001/xml-events" xmlns:xlink="http://www.w3.org/1999/xlink"><defs /><polyline fill="none" points="104.1356,31.6746 101.5322,20.8271 96.7593,14.7525 88.9492,9.9797 77.2339,9.1119 63.3492,10.8475 48.5966,17.7898 35.1458,27.3356 23.8644,39.9186 16.0542,51.2 11.2814,61.6136 8.678,72.8949 8.678,83.7424 10.4136,95.0237 15.6203,104.5695 23.8644,112.3797 33.4102,117.5864 43.3898,119.322 55.539,118.8881 65.9525,113.6814 75.9322,105.8712 85.9119,96.3254 108.9085,68.9898 112.8136,61.6136 114.1153,50.3322 111.9458,45.9932 93.722,28.2034" stroke="#00007f" stroke-width="2" /><polyline fill="none" points="86.7797,13.0169 83.3085,11.2814 69.8576,23.4305 65.5186,29.5051 62.0475,45.1254 62.0475,83.3085 65.9525,94.1559 70.7254,100.6644 78.5356,105.0034" stroke="#0000fe" stroke-width="2" /><polyline fill="none" points="61.6136,8.678 57.7085,11.7153 56.8407,15.6203 52.9356,19.5254 55.539,29.5051 54.6712,46.4271 49.4644,61.1797 39.4847,78.5356 30.3729,110.2102" stroke="#0060ff" stroke-width="2" /><polyline fill="none" points="29.0712,59.4441 42.0881,57.7085 58.1424,57.7085" stroke="#00d4ff" stroke-width="2" /><polyline fill="none" points="30.8068,65.5186 51.2,64.2169" stroke="#4cffaa" stroke-width="2" /><polyline fill="none" points="11.2814,88.9492 26.4678,82.8746 49.4644,68.9898" stroke="#aaff4c" stroke-width="2" /><polyline fill="none" points="20.8271,98.9288 46.861,98.061 54.6712,96.3254" stroke="#ffe500" stroke-width="2" /><polyline fill="none" points="57.2746,52.0678 82.8746,48.1627 85.9119,46.4271 86.7797,43.8237 84.6102,40.7864" stroke="#ff7a00" stroke-width="2" /><polyline fill="none" points="51.2,55.539 76.8,49.8983" stroke="#fe1200" stroke-width="2" /><polyline fill="none" points="50.7661,76.8 55.9729,76.3661 79.8373,68.122 72.0271,74.6305 62.9153,79.8373 81.139,74.1966 92.8542,74.1966" stroke="#7f0000" stroke-width="2" /></svg>