<?xml version="1.0" encoding="utf-8" ?>
<svg baseProfile="tiny" height="128" version="1.2" viewBox="0,0,128,128" width="128" xmlns="http://www.w3.org/2000/svg" xmlns:ev="http://www.w3.org/2001/xml-events" xmlns:xlink="http://www.w3.org/1999/xlink"><defs /><polyline fill="none" points="30.9116,19.5918 20.0272,29.1701 11.7551,41.3605 10.0136,48.3265 8.7075,73.5782 13.4966,88.8163 17.8503,94.4762 38.7483,106.2313 52.6803,109.7143 71.8367,111.8912 89.2517,111.8912 100.1361,109.2789 105.3605,105.3605 115.3741,94.0408 118.4218,84.898 119.2925,48.3265 116.6803,36.1361 109.2789,22.6395 100.5714,16.1088 90.5578,10.8844 62.6939,8.7075 47.4558,10.8844 32.6531,19.5918" stroke="#00007f" stroke-width="2" /><polyline fill="none" points="33.9592,19.5918 37.0068,22.6395 43.5374,37.0068 45.7143,49.6327 47.4558,89.2517 41.3605,103.1837" stroke="#00d4ff" stroke-width="2" /><polyline fill="none" points="98.3946,14.3673 98.3946,14.3673" stroke="#ffe500" stroke-width="2" /><polyline fill="none" points="98.3946,14.3673 92.2993,22.6395 88.8163,37.4422" stroke="#7f0000" stroke-width="2" /></svg>