<?xml version="1.0" encoding="utf-8" ?>
<svg baseProfile="tiny" height="128" version="1.2" viewBox="0,0,128,128" width="128" xmlns="http://www.w3.org/2000/svg" xmlns:ev="http://www.w3.org/2001/xml-events" xmlns:xlink="http://www.w3.org/1999/xlink"><defs /><polyline fill="none" points="42.9559,18.6576 37.7492,20.3932 27.3356,28.6373 10.4136,47.2949 8.678,52.9356 8.678,71.1593 14.7525,85.9119 21.6949,92.8542 46.4271,106.3051 55.539,108.0407 72.461,108.0407 89.3831,104.5695 103.2678,97.6271 111.9458,87.2136 119.322,64.6508 119.322,52.0678 117.5864,45.1254 111.9458,32.9763 106.3051,24.7322 97.1932,18.2237 83.7424,11.2814 71.1593,8.678 64.6508,9.1119 59.4441,13.0169" stroke="#00007f" stroke-width="2" /><polyline fill="none" points="32.9763,23.8644 35.1458,26.0339 38.6169,38.6169 42.9559,44.2576 49.8983,49.8983 57.2746,52.0678 83.7424,51.6339 92.8542,47.2949 95.4576,42.9559" stroke="#0028ff" stroke-width="2" /><polyline fill="none" points="19.0915,85.9119 25.6,80.2712 40.7864,80.2712 61.1797,89.8169 65.0847,90.2508" stroke="#00d4ff" stroke-width="2" /><polyline fill="none" points="33.8441,51.6339 40.3525,38.6169" stroke="#7cff79" stroke-width="2" /><polyline fill="none" points="50.3322,52.0678 55.1051,44.6915 57.2746,44.2576" stroke="#ffe500" stroke-width="2" /><polyline fill="none" points="83.7424,63.3492 85.9119,52.0678 89.3831,45.1254" stroke="#ff4600" stroke-width="2" /><polyline fill="none" points="92.8542,46.861 97.6271,38.6169" stroke="#7f0000" stroke-width="2" /></svg>