<?xml version="1.0" encoding="utf-8" ?>
<svg baseProfile="tiny" height="128" version="1.2" viewBox="0,0,128,128" width="128" xmlns="http://www.w3.org/2000/svg" xmlns:ev="http://www.w3.org/2001/xml-events" xmlns:xlink="http://www.w3.org/1999/xlink"><defs /><polyline fill="none" points="64.6508,9.5458 56.8407,9.5458 42.9559,12.5831 25.1661,19.9593 17.7898,26.0339 10.4136,36.8814 8.678,44.6915 8.678,60.3119 16.4881,71.1593 33.8441,81.139 46.861,85.478 62.9153,88.5153 78.1017,89.8169 93.722,89.3831 104.5695,83.7424 109.3424,79.4034 117.5864,66.8203 119.322,51.6339 118.8881,29.5051 114.1153,19.0915 99.3627,9.1119 57.2746,8.678" stroke="#00007f" stroke-width="2" /><polyline fill="none" points="55.9729,11.7153 57.7085,26.0339 55.9729,39.4847 47.2949,70.2915 40.3525,83.3085" stroke="#7cff79" stroke-width="2" /><polyline fill="none" points="87.2136,10.8475 82.8746,27.7695 82.0068,56.8407 86.3458,67.6881 99.3627,84.6102" stroke="#7f0000" stroke-width="2" /></svg>