<?xml version="1.0" encoding="utf-8" ?>
<svg baseProfile="tiny" height="128" version="1.2" viewBox="0,0,128,128" width="128" xmlns="http://www.w3.org/2000/svg" xmlns:ev="http://www.w3.org/2001/xml-events" xmlns:xlink="http://www.w3.org/1999/xlink"><defs /><polyline fill="none" points="66.8203,8.678 58.5763,13.8847 50.3322,15.6203 22.1288,32.9763 9.9797,47.7288 8.678,56.4068 8.678,72.0271 9.9797,80.2712 13.8847,88.0814 20.8271,95.0237 27.3356,98.9288 35.5797,101.9661 62.4814,105.8712 97.1932,105.8712 104.5695,98.9288 113.6814,84.6102 119.322,69.4237 119.322,48.1627 115.4169,40.7864 109.7763,34.278 73.7627,15.6203 66.3864,15.6203 59.878,18.2237 54.6712,22.1288" stroke="#00007f" stroke-width="2" /><polyline fill="none" points="47.7288,22.1288 49.0305,29.0712 49.0305,62.9153 39.9186,75.9322 20.8271,93.722 16.922,98.9288" stroke="#7cff79" stroke-width="2" /><polyline fill="none" points="36.8814,23.4305 38.1831,36.8814 42.522,52.0678 49.0305,58.5763 55.9729,62.4814 64.2169,65.5186 77.6678,65.5186 85.9119,63.7831 99.3627,57.2746 119.322,53.3695" stroke="#7f0000" stroke-width="2" /></svg>