<?xml version="1.0" encoding="utf-8" ?>
<svg baseProfile="tiny" height="128" version="1.2" viewBox="0,0,128,128" width="128" xmlns="http://www.w3.org/2000/svg" xmlns:ev="http://www.w3.org/2001/xml-events" xmlns:xlink="http://www.w3.org/1999/xlink"><defs /><polyline fill="none" points="59.4441,15.1864 52.0678,11.2814 42.9559,11.2814 22.9966,22.1288 16.922,29.5051 12.1492,38.6169 8.678,57.2746 9.1119,72.461 10.8475,79.4034 17.3559,91.9864 33.8441,109.7763 53.8034,118.4542 68.9898,119.322 73.3288,118.0203 82.8746,112.8136 90.6847,105.8712 96.7593,96.3254 101.0983,85.9119 102.8339,62.9153 101.5322,54.6712 95.4576,41.2203 85.0441,28.6373 77.6678,22.1288 66.8203,16.0542 47.7288,12.1492" stroke="#00007f" stroke-width="2" /><polyline fill="none" points="25.6,17.3559 29.5051,21.6949 34.278,30.3729 39.9186,50.3322 41.6542,93.722 36.0136,112.3797" stroke="#7cff79" stroke-width="2" /><polyline fill="none" points="69.4237,8.678 67.6881,12.5831 66.3864,41.6542 66.8203,61.6136 73.3288,85.9119 80.7051,99.7966 88.0814,107.6068" stroke="#7f0000" stroke-width="2" /></svg>