<?xml version="1.0" encoding="utf-8" ?>
<svg baseProfile="tiny" height="128" version="1.2" viewBox="0,0,128,128" width="128" xmlns="http://www.w3.org/2000/svg" xmlns:ev="http://www.w3.org/2001/xml-events" xmlns:xlink="http://www.w3.org/1999/xlink"><defs /><polyline fill="none" points="97.9592,13.0612 80.1088,12.1905 63.5646,16.9796 32.6531,30.9116 21.3333,39.1837 16.9796,44.8435 10.0136,57.9048 8.7075,73.1429 10.0136,80.1088 13.4966,88.381 17.8503,94.0408 32.2177,104.9252 47.8912,109.7143 71.8367,109.7143 92.2993,102.7483 100.5714,97.9592 107.102,90.5578 111.8912,80.5442 117.9864,62.6939 119.2925,41.3605 116.6803,32.6531 111.0204,23.9456 100.5714,14.8027 88.381,8.7075" stroke="#00007f" stroke-width="2" /><polyline fill="none" points="36.1361,28.2993 40.0544,28.7347 44.8435,33.0884 50.9388,42.2313 54.8571,52.2449 55.2925,64.4354 52.6803,71.8367 43.102,88.381 38.3129,93.6054 29.1701,98.8299" stroke="#7cff79" stroke-width="2" /><polyline fill="none" points="110.1497,18.7211 100.5714,30.0408 90.9932,48.7619 86.6395,62.2585 82.7211,81.415 82.7211,89.2517 86.2041,99.2653 91.4286,105.3605 97.9592,107.9728" stroke="#7f0000" stroke-width="2" /></svg>