<?xml version="1.0" encoding="utf-8" ?>
<svg baseProfile="tiny" height="128" version="1.2" viewBox="0,0,128,128" width="128" xmlns="http://www.w3.org/2000/svg" xmlns:ev="http://www.w3.org/2001/xml-events" xmlns:xlink="http://www.w3.org/1999/xlink"><defs /><polyline fill="none" points="91.8639,22.2041 81.8503,13.932 68.7891,9.5782 59.6463,8.7075 44.4082,10.0136 33.9592,14.8027 24.8163,21.7687 14.3673,36.1361 11.7551,41.3605 9.1429,53.551 8.7075,71.8367 14.8027,89.6871 22.2041,99.2653 31.7823,106.6667 43.102,111.0204 55.7279,113.1973 68.3537,113.1973 80.5442,110.585 96.6531,102.3129 105.7959,94.9116 113.1973,85.3333 117.9864,74.449 119.2925,63.1293 118.8571,52.2449 114.5034,41.7959 108.4082,32.6531 89.2517,17.8503" stroke="#00007f" stroke-width="2" /><polyline fill="none" points="75.7551,13.932 81.415,18.7211 82.7211,17.8503" stroke="#0028ff" stroke-width="2" /><polyline fill="none" points="88.8163,19.1565 82.7211,19.5918 74.449,30.0408 68.3537,45.2789 66.1769,63.1293 66.1769,75.3197 69.2245,86.2041 74.449,96.2177 84.0272,109.2789" stroke="#00d4ff" stroke-width="2" /><polyline fill="none" points="41.3605,13.0612 43.5374,16.5442 44.8435,24.381 44.8435,45.7143 41.7959,63.1293 37.0068,75.7551 33.0884,81.8503 23.0748,90.9932 20.4626,91.8639 20.0272,90.5578" stroke="#7cff79" stroke-width="2" /><polyline fill="none" points="30.4762,26.1224 48.7619,26.1224 85.7687,33.9592 88.8163,35.2653 89.2517,37.0068 88.381,37.4422" stroke="#ffe500" stroke-width="2" /><polyline fill="none" points="26.1224,38.7483 58.3401,47.8912 91.8639,53.9864 91.4286,55.2925" stroke="#ff4600" stroke-width="2" /><polyline fill="none" points="21.3333,56.5986 41.3605,63.1293 85.3333,74.0136 89.2517,76.6259 89.2517,79.2381" stroke="#7f0000" stroke-width="2" /></svg>