<?xml version="1.0" encoding="utf-8" ?>
<svg baseProfile="tiny" height="128" version="1.2" viewBox="0,0,128,128" width="128" xmlns="http://www.w3.org/2000/svg" xmlns:ev="http://www.w3.org/2001/xml-events" xmlns:xlink="http://www.w3.org/1999/xlink"><defs /><polyline fill="none" points="43.5374,17.415 32.6531,13.0612 24.8163,14.8027 17.8503,23.9456 10.8844,38.3129 8.7075,51.8095 8.7075,83.1565 20.4626,105.7959 26.1224,111.8912 40.9252,119.2925 60.517,119.2925 83.1565,107.5374 90.9932,98.3946 93.6054,92.2993 95.7823,73.5782 93.6054,60.517 90.1224,50.5034 72.7075,28.7347 65.7415,15.2381 57.4694,10.449 39.1837,8.7075 26.5578,12.1905 26.9932,18.2857 32.6531,33.5238 38.3129,73.5782 38.3129,97.9592 31.7823,117.551 60.9524,117.551 66.6122,116.6803 68.3537,113.1973 68.3537,103.1837 61.8231,73.1429 56.5986,21.7687" stroke="#00007f" stroke-width="2" /></svg>