<?xml version="1.0" encoding="utf-8" ?>
<svg baseProfile="tiny" height="128" version="1.2" viewBox="0,0,128,128" width="128" xmlns="http://www.w3.org/2000/svg" xmlns:ev="http://www.w3.org/2001/xml-events" xmlns:xlink="http://www.w3.org/1999/xlink"><defs /><polyline fill="none" points="59.878,8.678 39.9186,19.0915 27.7695,29.0712 19.5254,38.1831 12.1492,51.2 8.678,64.6508 8.678,83.3085 11.2814,89.8169 17.3559,99.3627 25.6,106.3051 33.4102,110.6441 67.2542,111.078 82.4407,107.6068 97.6271,101.5322 107.6068,91.5525 115.8508,77.6678 119.322,62.4814 119.322,42.0881 118.0203,34.7119 107.6068,25.6 94.1559,18.2237 82.4407,14.7525 74.1966,14.7525 71.5932,13.4508" stroke="#00007f" stroke-width="2" /><polyline fill="none" points="65.9525,15.6203 64.6508,28.6373 68.122,42.0881 61.1797,56.4068 58.5763,69.4237 57.2746,90.6847 51.6339,97.6271 44.2576,100.2305 24.2983,101.5322 21.6949,100.2305" stroke="#7cff79" stroke-width="2" /><polyline fill="none" points="81.139,15.6203 78.9695,23.4305 79.8373,49.8983 90.6847,87.2136 93.2881,102.4 101.5322,108.4746 118.0203,109.7763" stroke="#7f0000" stroke-width="2" /></svg>