<?xml version="1.0" encoding="utf-8" ?>
<svg baseProfile="tiny" height="128" version="1.2" viewBox="0,0,128,128" width="128" xmlns="http://www.w3.org/2000/svg" xmlns:ev="http://www.w3.org/2001/xml-events" xmlns:xlink="http://www.w3.org/1999/xlink"><defs /><polyline fill="none" points="36.4475,17.7898 32.1085,19.0915 28.6373,22.5627 17.3559,40.7864 9.9797,62.0475 8.678,82.0068 12.1492,93.2881 19.5254,103.7017 31.2407,112.3797 44.2576,118.8881 48.5966,119.322 55.9729,119.322 82.8746,108.4746 98.061,98.4949 106.3051,90.6847 112.8136,76.3661 114.1153,49.0305 110.6441,32.5424 103.7017,19.0915 97.1932,12.5831 85.478,8.678 31.2407,8.678" stroke="#00007f" stroke-width="2" /><polyline fill="none" points="26.0339,24.2983 35.5797,46.861 39.9186,68.9898 38.1831,85.478 32.1085,92.4203" stroke="#7cff79" stroke-width="2" /><polyline fill="none" points="71.5932,26.9017 64.2169,42.522 64.2169,61.6136 65.0847,68.122 68.5559,78.9695 79.8373,97.6271 89.3831,105.0034 92.8542,105.8712" stroke="#7f0000" stroke-width="2" /></svg>