<?xml version="1.0" encoding="utf-8" ?>
<svg baseProfile="tiny" height="128" version="1.2" viewBox="0,0,128,128" width="128" xmlns="http://www.w3.org/2000/svg" xmlns:ev="http://www.w3.org/2001/xml-events" xmlns:xlink="http://www.w3.org/1999/xlink"><defs /><polyline fill="none" points="68.5559,33.8441 48.5966,27.7695 34.278,26.9017 22.1288,31.2407 17.3559,37.3153 13.8847,45.5593 11.2814,57.2746 8.678,92.4203 16.0542,106.3051 22.9966,112.3797 30.8068,116.2847 37.3153,116.7186 69.4237,116.7186 78.9695,114.9831 88.9492,110.6441 94.1559,104.5695 100.2305,91.9864 103.7017,69.4237 103.2678,48.5966 99.3627,39.0508 91.1186,25.6 75.9322,13.0169 64.2169,8.678 59.4441,8.678 42.9559,15.1864" stroke="#00007f" stroke-width="2" /><polyline fill="none" points="20.8271,36.4475 28.6373,45.9932 31.2407,52.0678 37.3153,81.139 37.3153,91.5525 32.5424,100.2305 18.6576,119.322" stroke="#7cff79" stroke-width="2" /><polyline fill="none" points="91.9864,32.1085 78.9695,51.2 67.6881,79.8373 67.6881,100.2305 71.5932,111.078 77.6678,116.7186" stroke="#7f0000" stroke-width="2" /></svg>