<?xml version="1.0" encoding="utf-8" ?>
<svg baseProfile="tiny" height="128" version="1.2" viewBox="0,0,128,128" width="128" xmlns="http://www.w3.org/2000/svg" xmlns:ev="http://www.w3.org/2001/xml-events" xmlns:xlink="http://www.w3.org/1999/xlink"><defs /><polyline fill="none" points="45.5593,20.8271 22.5627,36.0136 12.1492,45.1254 9.5458,51.6339 8.678,59.878 8.678,79.4034 12.1492,91.5525 17.7898,103.2678 21.261,106.3051 26.4678,110.6441 35.5797,114.1153 54.2373,119.322 82.4407,119.322 90.6847,118.0203 98.061,113.6814 104.5695,105.8712 111.5119,90.6847 115.8508,67.6881 115.8508,42.9559 112.3797,34.7119 104.5695,23.8644 95.8915,17.3559 85.478,11.7153 74.1966,8.678 58.1424,8.678 53.3695,9.9797 40.7864,22.1288" stroke="#00007f" stroke-width="2" /><polyline fill="none" points="34.278,32.1085 35.5797,41.2203" stroke="#0000c3" stroke-width="2" /><polyline fill="none" points="34.7119,29.0712 37.7492,44.2576" stroke="#0000ff" stroke-width="2" /><polyline fill="none" points="36.8814,50.3322 34.278,62.0475" stroke="#0034ff" stroke-width="2" /><polyline fill="none" points="36.4475,62.4814 36.4475,74.6305" stroke="#0070ff" stroke-width="2" /><polyline fill="none" points="36.4475,74.6305 36.4475,78.9695 32.9763,85.9119 29.0712,87.2136" stroke="#00acff" stroke-width="2" /><polyline fill="none" points="25.6,90.2508 22.5627,97.6271 19.5254,101.5322" stroke="#02e8f4" stroke-width="2" /><polyline fill="none" points="94.5898,19.5254 86.7797,28.6373 81.5729,39.0508" stroke="#32ffc3" stroke-width="2" /><polyline fill="none" points="81.5729,46.4271 82.4407,58.1424" stroke="#63ff93" stroke-width="2" /><polyline fill="none" points="84.6102,64.2169 85.9119,71.5932" stroke="#93ff63" stroke-width="2" /><polyline fill="none" points="85.9119,78.9695 95.0237,100.2305" stroke="#c3ff32" stroke-width="2" /><polyline fill="none" points="95.0237,100.2305 95.0237,110.6441" stroke="#f4f802" stroke-width="2" /><polyline fill="none" points="91.1186,99.3627 90.2508,107.1729" stroke="#ffc000" stroke-width="2" /><polyline fill="none" points="82.4407,94.5898 83.3085,98.9288 85.478,101.5322" stroke="#ff8900" stroke-width="2" /><polyline fill="none" points="85.478,85.9119 85.478,88.9492" stroke="#ff5100" stroke-width="2" /><polyline fill="none" points="84.6102,71.5932 84.6102,74.6305" stroke="#ff1a00" stroke-width="2" /><polyline fill="none" points="81.5729,55.539 81.5729,60.3119 83.7424,63.3492" stroke="#c30000" stroke-width="2" /><polyline fill="none" points="86.7797,41.2203 86.7797,42.0881" stroke="#7f0000" stroke-width="2" /></svg>