<?xml version="1.0" encoding="utf-8" ?>
<svg baseProfile="tiny" height="128" version="1.2" viewBox="0,0,128,128" width="128" xmlns="http://www.w3.org/2000/svg" xmlns:ev="http://www.w3.org/2001/xml-events" xmlns:xlink="http://www.w3.org/1999/xlink"><defs /><polyline fill="none" points="64.2169,100.2305 45.9932,88.5153 12.1492,58.1424 8.678,50.3322 8.678,30.8068 10.4136,22.1288 22.1288,10.4136 29.0712,8.678 38.6169,8.678 61.6136,10.8475 72.8949,13.4508 93.722,23.8644 99.7966,28.2034 112.8136,46.4271 118.0203,58.5763 119.322,72.8949 115.8508,90.6847 109.3424,99.3627 102.8339,104.1356 89.8169,108.0407 81.5729,108.0407 62.4814,97.6271" stroke="#00007f" stroke-width="2" /><polyline fill="none" points="43.3898,78.1017 44.2576,70.7254 47.7288,62.0475 47.7288,54.2373 44.6915,47.2949 42.522,36.0136 28.6373,12.1492" stroke="#0080ff" stroke-width="2" /><polyline fill="none" points="97.1932,110.6441 72.8949,85.0441 70.2915,80.7051 68.9898,74.1966 64.2169,66.3864 64.2169,47.7288 66.3864,35.1458 76.3661,26.4678 78.9695,20.8271 88.5153,16.0542 91.1186,13.0169" stroke="#7cff79" stroke-width="2" /><polyline fill="none" points="26.4678,17.7898 21.261,13.0169" stroke="#ff9400" stroke-width="2" /><polyline fill="none" points="34.278,23.8644 25.1661,21.261" stroke="#7f0000" stroke-width="2" /></svg>