<?xml version="1.0" encoding="utf-8" ?>
<svg baseProfile="tiny" height="128" version="1.2" viewBox="0,0,128,128" width="128" xmlns="http://www.w3.org/2000/svg" xmlns:ev="http://www.w3.org/2001/xml-events" xmlns:xlink="http://www.w3.org/1999/xlink"><defs /><polyline fill="none" points="55.539,11.2814 48.5966,8.678 40.7864,9.1119 19.0915,24.7322 11.7153,35.1458 8.678,43.8237 8.678,55.1051 18.6576,63.3492 33.4102,70.2915 45.1254,71.1593 58.1424,66.3864 68.9898,57.2746 80.2712,37.3153 82.4407,23.8644 79.8373,20.8271 74.6305,16.922 58.1424,12.1492" stroke="#00007f" stroke-width="2" /><polyline fill="none" points="31.6746,115.8508 32.9763,112.8136 70.2915,78.5356 100.6644,46.4271 106.739,49.0305 109.7763,54.2373 111.5119,63.7831 111.5119,73.3288 108.0407,78.9695 89.3831,95.4576 53.8034,119.322 65.0847,115.4169" stroke="#7f0000" stroke-width="2" /></svg>