<?xml version="1.0" encoding="utf-8" ?>
<svg baseProfile="tiny" height="128" version="1.2" viewBox="0,0,128,128" width="128" xmlns="http://www.w3.org/2000/svg" xmlns:ev="http://www.w3.org/2001/xml-events" xmlns:xlink="http://www.w3.org/1999/xlink"><defs /><polyline fill="none" points="119.322,18.2237 116.2847,15.6203 100.2305,12.1492 80.2712,9.9797 59.878,9.9797 53.8034,11.2814 43.8237,15.6203 30.3729,25.1661 19.0915,36.8814 8.678,54.6712 8.678,71.1593 9.9797,74.6305 12.1492,78.9695 24.2983,91.5525 37.3153,101.5322 47.2949,106.3051 65.0847,110.2102 80.7051,110.2102 83.7424,109.7763 98.4949,95.8915 108.0407,90.2508 114.1153,78.5356 117.1525,65.0847 118.8881,18.6576 114.9831,14.7525" stroke="#00007f" stroke-width="2" /><polyline fill="none" points="39.0508,19.9593 42.522,21.6949 51.6339,34.278 59.878,59.4441 61.1797,70.7254 61.1797,111.5119 64.6508,114.5492" stroke="#7cff79" stroke-width="2" /><polyline fill="none" points="99.7966,8.678 96.7593,12.5831 89.8169,30.3729 87.6475,41.6542 87.6475,55.1051 92.4203,73.3288 105.0034,94.5898 106.739,95.4576" stroke="#7f0000" stroke-width="2" /></svg>