<?xml version="1.0" encoding="utf-8" ?>
<svg baseProfile="tiny" height="128" version="1.2" viewBox="0,0,128,128" width="128" xmlns="http://www.w3.org/2000/svg" xmlns:ev="http://www.w3.org/2001/xml-events" xmlns:xlink="http://www.w3.org/1999/xlink"><defs /><polyline fill="none" points="20.898,30.0408 13.4966,33.9592 12.1905,35.7007 8.7075,51.8095 8.7075,61.8231 13.4966,73.5782 17.8503,79.2381 32.6531,95.3469 47.8912,104.4898 65.3061,108.8435 81.8503,109.2789 97.0884,104.0544 104.9252,97.5238 114.068,87.0748 118.8571,75.3197 119.2925,63.1293 114.5034,48.3265 106.2313,33.5238 93.6054,22.2041 67.9184,10.449 52.6803,8.7075 40.4898,9.5782 26.5578,14.8027 17.8503,20.0272 13.932,25.2517" stroke="#00007f" stroke-width="2" /><polyline fill="none" points="63.1293,11.3197 52.6803,24.8163 50.9388,29.6054 47.8912,43.9728 47.4558,58.3401 43.9728,74.0136 44.4082,84.898 46.585,94.4762 56.1633,107.102" stroke="#7cff79" stroke-width="2" /><polyline fill="none" points="18.2857,21.7687 24.381,30.4762 26.5578,40.4898 35.2653,61.3878 42.2313,67.483 48.7619,69.2245 54.4218,69.2245 59.6463,66.1769 70.5306,50.9388 83.5918,40.4898 96.6531,37.0068 105.3605,37.0068" stroke="#7f0000" stroke-width="2" /></svg>