<?xml version="1.0" encoding="utf-8" ?>
<svg baseProfile="tiny" height="128" version="1.2" viewBox="0,0,128,128" width="128" xmlns="http://www.w3.org/2000/svg" xmlns:ev="http://www.w3.org/2001/xml-events" xmlns:xlink="http://www.w3.org/1999/xlink"><defs /><polyline fill="none" points="77.4966,113.1973 77.4966,113.1973" stroke="#00007f" stroke-width="2" /><polyline fill="none" points="65.7415,101.4422 55.2925,100.5714 51.8095,99.2653 22.6395,80.9796 12.6259,67.9184 10.0136,60.517 8.7075,50.068 21.3333,28.2993 26.9932,21.7687 37.0068,14.8027 49.1973,10.449 62.2585,8.7075 85.3333,9.1429 99.2653,11.3197 110.1497,25.6871 118.4218,43.102 119.2925,55.7279 115.8095,70.5306 106.2313,88.381 97.9592,95.3469 89.2517,99.2653 85.7687,99.2653 69.2245,94.4762" stroke="#7cff79" stroke-width="2" /><polyline fill="none" points="37.8776,25.6871 40.9252,27.8639 44.8435,34.8299 50.9388,60.0816 49.1973,83.5918 45.2789,106.2313" stroke="#7f0000" stroke-width="2" /></svg>