<?xml version="1.0" encoding="utf-8" ?>
<svg baseProfile="tiny" height="128" version="1.2" viewBox="0,0,128,128" width="128" xmlns="http://www.w3.org/2000/svg" xmlns:ev="http://www.w3.org/2001/xml-events" xmlns:xlink="http://www.w3.org/1999/xlink"><defs /><polyline fill="none" points="73.3288,117.5864 59.0102,119.322 45.9932,119.322 32.1085,114.1153 25.6,108.9085 15.1864,93.722 9.5458,75.4983 8.678,65.5186 9.1119,45.5593 12.1492,36.4475 22.1288,22.5627 28.6373,16.922 43.3898,11.2814 69.8576,8.678 78.5356,9.1119 92.8542,15.6203 100.2305,21.261 109.7763,33.4102 115.4169,48.5966 116.7186,55.9729 116.7186,80.2712 111.5119,94.1559 108.4746,98.9288 103.2678,102.8339 92.4203,107.1729 78.9695,110.2102 66.3864,114.9831 49.8983,117.1525" stroke="#00007f" stroke-width="2" /><polyline fill="none" points="18.6576,33.8441 29.5051,34.7119 39.0508,39.0508 52.0678,52.0678 56.4068,62.0475 57.2746,83.3085 55.9729,90.2508 48.1627,98.9288 39.9186,103.7017 31.6746,105.8712" stroke="#7cff79" stroke-width="2" /><polyline fill="none" points="84.1763,9.1119 80.2712,13.8847 77.6678,26.4678 77.2339,61.1797 82.8746,80.7051 88.9492,91.5525 97.1932,100.2305 103.2678,101.0983" stroke="#7f0000" stroke-width="2" /></svg>