<?xml version="1.0" encoding="utf-8" ?>
<svg baseProfile="tiny" height="128" version="1.2" viewBox="0,0,128,128" width="128" xmlns="http://www.w3.org/2000/svg" xmlns:ev="http://www.w3.org/2001/xml-events" xmlns:xlink="http://www.w3.org/1999/xlink"><defs /><polyline fill="none" points="80.7051,22.1288 73.3288,13.8847 63.7831,9.5458 45.1254,8.678 36.0136,10.8475 29.0712,16.922 21.6949,25.6 16.922,36.0136 8.678,65.0847 9.1119,81.5729 20.3932,98.9288 36.8814,113.6814 45.1254,117.1525 52.9356,119.322 60.7458,119.322 71.1593,116.2847 85.0441,101.9661 92.4203,85.9119 93.722,76.8 93.722,55.9729 89.8169,45.9932 77.6678,28.6373 71.1593,22.5627 59.0102,16.0542" stroke="#00007f" stroke-width="2" /><polyline fill="none" points="15.1864,23.4305 20.8271,33.4102 24.2983,43.3898 28.2034,66.3864 29.5051,82.8746 29.0712,91.5525 24.7322,99.3627 18.6576,105.4373" stroke="#004cff" stroke-width="2" /><polyline fill="none" points="74.1966,28.6373 68.5559,45.1254 66.3864,58.5763 66.3864,76.8 69.8576,85.9119 79.8373,100.2305 83.7424,108.0407" stroke="#29ffcd" stroke-width="2" /><polyline fill="none" points="77.2339,40.3525 59.878,45.9932" stroke="#cdff29" stroke-width="2" /><polyline fill="none" points="72.461,66.8203 67.2542,67.6881 61.6136,72.0271 59.4441,75.4983" stroke="#ff6700" stroke-width="2" /><polyline fill="none" points="78.1017,87.6475 64.6508,90.2508" stroke="#7f0000" stroke-width="2" /></svg>