<?xml version="1.0" encoding="utf-8" ?>
<svg baseProfile="tiny" height="128" version="1.2" viewBox="0,0,128,128" width="128" xmlns="http://www.w3.org/2000/svg" xmlns:ev="http://www.w3.org/2001/xml-events" xmlns:xlink="http://www.w3.org/1999/xlink"><defs /><polyline fill="none" points="75.0644,8.678 41.2203,8.678 30.3729,11.2814 22.5627,17.7898 16.4881,26.0339 12.1492,34.278 9.1119,44.2576 8.678,61.6136 11.2814,68.9898 15.6203,75.0644 29.0712,86.3458 52.9356,94.1559 77.2339,97.1932 85.0441,94.1559 94.1559,87.6475 101.9661,81.139 114.5492,66.3864 118.8881,56.8407 119.322,44.2576 112.8136,36.4475 97.1932,24.7322 75.4983,13.0169 64.6508,11.7153" stroke="#00007f" stroke-width="2" /><polyline fill="none" points="41.6542,9.5458 42.0881,18.6576 49.0305,44.6915 49.4644,51.6339 39.9186,65.9525 22.5627,79.4034" stroke="#00d4ff" stroke-width="2" /><polyline fill="none" points="98.4949,27.3356 92.8542,37.3153 90.2508,47.7288 90.2508,58.5763 91.9864,65.0847 98.4949,77.6678" stroke="#ffe500" stroke-width="2" /><polyline fill="none" points="91.1186,35.5797 95.8915,36.8814" stroke="#7f0000" stroke-width="2" /></svg>