<?xml version="1.0" encoding="utf-8" ?>
<svg baseProfile="tiny" height="128" version="1.2" viewBox="0,0,128,128" width="128" xmlns="http://www.w3.org/2000/svg" xmlns:ev="http://www.w3.org/2001/xml-events" xmlns:xlink="http://www.w3.org/1999/xlink"><defs /><polyline fill="none" points="61.6136,8.678 40.7864,12.1492 32.5424,18.6576 26.4678,27.3356 13.8847,58.5763 8.678,82.8746 10.4136,104.1356 14.7525,112.8136 19.0915,114.9831 33.8441,119.322 54.2373,118.4542 82.0068,110.6441 95.4576,105.0034 105.4373,98.061 110.6441,89.3831 114.9831,74.1966 115.8508,54.2373 107.6068,30.8068 93.722,16.4881 88.9492,13.0169 84.6102,12.1492 75.0644,12.1492 29.0712,20.3932" stroke="#00007f" stroke-width="2" /><polyline fill="none" points="42.522,13.8847 42.522,13.8847" stroke="#0000d5" stroke-width="2" /><polyline fill="none" points="42.522,13.8847 39.4847,17.3559" stroke="#001cff" stroke-width="2" /><polyline fill="none" points="33.4102,26.4678 33.4102,30.8068" stroke="#006cff" stroke-width="2" /><polyline fill="none" points="45.1254,33.4102 39.9186,42.0881 35.1458,46.861 39.4847,50.3322 47.7288,51.2 48.5966,55.539 45.1254,61.6136" stroke="#00b8ff" stroke-width="2" /><polyline fill="none" points="43.3898,64.2169 43.3898,64.6508" stroke="#1cffda" stroke-width="2" /><polyline fill="none" points="56.4068,65.5186 55.539,74.1966" stroke="#5cff9a" stroke-width="2" /><polyline fill="none" points="52.9356,79.4034 69.8576,79.4034 69.8576,86.3458 68.122,88.5153" stroke="#9aff5c" stroke-width="2" /><polyline fill="none" points="82.8746,89.3831 86.7797,89.8169 87.6475,94.5898 79.4034,108.4746 78.5356,113.2475" stroke="#daff1c" stroke-width="2" /><polyline fill="none" points="82.0068,114.1153 85.9119,114.9831 83.7424,115.8508" stroke="#ffcb00" stroke-width="2" /><polyline fill="none" points="8.678,82.8746 13.0169,82.0068 17.3559,84.6102" stroke="#ff8500" stroke-width="2" /><polyline fill="none" points="23.8644,87.6475 28.2034,88.5153 32.5424,85.0441 34.278,81.139 47.2949,76.8 56.4068,70.7254 64.6508,63.3492" stroke="#ff3b00" stroke-width="2" /><polyline fill="none" points="64.6508,64.6508 73.3288,63.3492 86.7797,51.2 88.5153,52.9356" stroke="#d50000" stroke-width="2" /><polyline fill="none" points="90.2508,55.539 94.5898,55.539 108.9085,45.9932" stroke="#7f0000" stroke-width="2" /></svg>