<?xml version="1.0" encoding="utf-8" ?>
<svg baseProfile="tiny" height="128" version="1.2" viewBox="0,0,128,128" width="128" xmlns="http://www.w3.org/2000/svg" xmlns:ev="http://www.w3.org/2001/xml-events" xmlns:xlink="http://www.w3.org/1999/xlink"><defs /><polyline fill="none" points="73.5782,36.5714 72.2721,19.1565 69.2245,13.932 65.7415,11.3197 53.551,10.449 46.1497,14.8027 31.7823,26.5578 22.2041,41.7959 19.5918,52.2449 19.1565,71.8367 22.2041,81.8503 27.4286,90.9932 34.8299,98.3946 43.9728,103.1837 53.551,104.9252 74.8844,105.7959 85.7687,101.8776 94.0408,95.7823 106.2313,80.1088 111.8912,67.9184 119.2925,43.9728 118.8571,25.2517 107.9728,15.2381 100.1361,11.7551 87.0748,8.7075 73.5782,10.449 64.8707,15.2381" stroke="#00007f" stroke-width="2" /><polyline fill="none" points="36.5714,27.4286 40.0544,33.9592 41.7959,43.102 41.7959,59.6463 38.7483,67.0476 29.1701,79.6735 30.0408,80.1088" stroke="#0080ff" stroke-width="2" /><polyline fill="none" points="110.585,17.415 107.5374,17.8503 101.4422,26.9932 94.9116,45.2789 93.6054,67.9184 97.9592,81.8503" stroke="#7cff79" stroke-width="2" /><polyline fill="none" points="34.3946,72.7075 27.4286,75.3197 19.1565,87.9456" stroke="#ff9400" stroke-width="2" /><polyline fill="none" points="8.7075,56.1633 43.9728,51.8095" stroke="#7f0000" stroke-width="2" /></svg>