<?xml version="1.0" encoding="utf-8" ?>
<svg baseProfile="tiny" height="128" version="1.2" viewBox="0,0,128,128" width="128" xmlns="http://www.w3.org/2000/svg" xmlns:ev="http://www.w3.org/2001/xml-events" xmlns:xlink="http://www.w3.org/1999/xlink"><defs /><polyline fill="none" points="119.322,35.5797 111.078,22.5627 96.7593,13.8847 81.139,9.1119 73.3288,8.678 64.6508,9.9797 48.5966,18.6576 29.0712,38.1831 14.7525,62.9153 8.678,80.2712 11.2814,90.6847 16.0542,94.5898 22.9966,96.7593 33.8441,96.7593 48.1627,93.722 63.7831,87.6475 76.3661,81.139 101.0983,60.3119 111.078,45.1254 118.4542,25.6 119.322,26.0339" stroke="#00007f" stroke-width="2" /><polyline fill="none" points="69.8576,10.8475 62.0475,36.4475 55.539,48.5966 46.4271,64.6508 29.0712,84.1763" stroke="#0028ff" stroke-width="2" /><polyline fill="none" points="105.8712,20.3932 90.2508,34.278 77.2339,49.4644 64.6508,80.7051 65.5186,90.6847" stroke="#00d4ff" stroke-width="2" /><polyline fill="none" points="87.6475,32.9763 94.1559,49.0305" stroke="#7cff79" stroke-width="2" /><polyline fill="none" points="72.461,51.2 75.4983,56.4068" stroke="#ffe500" stroke-width="2" /><polyline fill="none" points="63.3492,64.6508 73.3288,76.8" stroke="#ff4600" stroke-width="2" /><polyline fill="none" points="31.2407,75.9322 37.7492,80.2712" stroke="#7f0000" stroke-width="2" /></svg>