<?xml version="1.0" encoding="utf-8" ?>
<svg baseProfile="tiny" height="128" version="1.2" viewBox="0,0,128,128" width="128" xmlns="http://www.w3.org/2000/svg" xmlns:ev="http://www.w3.org/2001/xml-events" xmlns:xlink="http://www.w3.org/1999/xlink"><defs /><polyline fill="none" points="79.2381,20.4626 69.6599,14.3673 63.5646,12.1905 49.6327,10.0136 41.3605,10.8844 30.9116,16.1088 22.6395,23.9456 15.2381,34.8299 10.0136,47.8912 8.7075,73.1429 13.4966,84.0272 19.1565,91.8639 40.0544,107.5374 64.4354,118.8571 84.4626,119.2925 92.7347,110.1497 97.9592,98.3946 104.9252,72.2721 104.9252,49.1973 94.9116,31.7823 81.415,20.0272 71.4014,15.2381 68.7891,15.2381" stroke="#00007f" stroke-width="2" /><polyline fill="none" points="44.4082,8.7075 41.3605,10.449 40.0544,13.932 36.1361,28.2993 43.9728,41.7959 49.1973,53.9864 50.9388,64.0 50.9388,81.415 48.7619,90.5578 37.4422,114.068" stroke="#0000ff" stroke-width="2" /><polyline fill="none" points="77.932,17.415 75.3197,20.4626 71.8367,32.2177 67.483,69.2245 67.0476,87.0748 68.7891,94.9116 72.2721,100.1361 77.4966,104.9252 87.9456,108.4082" stroke="#0080ff" stroke-width="2" /><polyline fill="none" points="61.3878,44.4082 69.6599,45.2789 78.8027,49.1973" stroke="#15ffe1" stroke-width="2" /><polyline fill="none" points="60.0816,76.1905 67.483,76.1905 77.932,73.1429" stroke="#7cff79" stroke-width="2" /><polyline fill="none" points="71.8367,104.9252 86.6395,93.6054" stroke="#e4ff12" stroke-width="2" /><polyline fill="none" points="33.5238,32.2177 52.2449,32.6531" stroke="#ff9400" stroke-width="2" /><polyline fill="none" points="37.8776,66.6122 53.1156,67.0476" stroke="#ff1d00" stroke-width="2" /><polyline fill="none" points="22.6395,88.381 22.6395,88.381" stroke="#7f0000" stroke-width="2" /></svg>