<?xml version="1.0" encoding="utf-8" ?>
<svg baseProfile="tiny" height="128" version="1.2" viewBox="0,0,128,128" width="128" xmlns="http://www.w3.org/2000/svg" xmlns:ev="http://www.w3.org/2001/xml-events" xmlns:xlink="http://www.w3.org/1999/xlink"><defs /><polyline fill="none" points="95.0237,20.8271 93.2881,17.3559 83.7424,10.4136 72.461,8.678 57.7085,9.1119 45.9932,12.5831 35.1458,17.7898 25.1661,24.7322 17.7898,32.9763 12.1492,41.6542 9.5458,50.7661 8.678,75.9322 9.5458,80.7051 13.4508,89.3831 19.9593,97.1932 26.4678,102.8339 35.5797,106.739 40.3525,107.6068 51.2,108.0407 57.2746,106.3051 73.7627,98.4949 83.3085,91.5525 95.4576,77.6678 101.0983,66.8203 104.1356,55.539 104.5695,33.8441 101.5322,25.6 95.8915,18.2237 92.4203,15.6203 86.7797,14.3186" stroke="#00007f" stroke-width="2" /><polyline fill="none" points="40.3525,20.8271 40.3525,20.8271" stroke="#00d4ff" stroke-width="2" /><polyline fill="none" points="32.9763,16.0542 36.4475,18.6576 41.6542,29.939 45.9932,45.1254 47.2949,63.7831 28.6373,106.739 17.7898,119.322" stroke="#ffe500" stroke-width="2" /><polyline fill="none" points="93.2881,13.8847 87.6475,13.0169 82.0068,15.6203 76.3661,21.261 70.2915,29.0712 65.9525,37.7492 62.9153,52.5017 62.9153,70.7254 65.9525,76.3661 79.8373,88.5153 88.9492,92.4203" stroke="#7f0000" stroke-width="2" /></svg>