<?xml version="1.0" encoding="utf-8" ?>
<svg baseProfile="tiny" height="128" version="1.2" viewBox="0,0,128,128" width="128" xmlns="http://www.w3.org/2000/svg" xmlns:ev="http://www.w3.org/2001/xml-events" xmlns:xlink="http://www.w3.org/1999/xlink"><defs /><polyline fill="none" points="105.8712,15.1864 99.3627,11.2814 91.1186,9.5458 63.7831,8.678 51.6339,10.4136 18.2237,24.7322 11.2814,29.939 9.1119,32.9763 8.678,50.3322 19.5254,67.6881 38.1831,88.9492 49.8983,96.3254 81.5729,102.4 95.4576,101.9661 103.7017,97.1932 113.2475,86.7797 117.1525,72.461 119.322,62.4814 119.322,35.5797 117.1525,27.7695 109.7763,13.8847 107.1729,10.8475 101.9661,9.1119" stroke="#00007f" stroke-width="2" /><polyline fill="none" points="55.1051,11.7153 47.7288,21.6949 45.9932,28.6373 45.9932,35.1458 44.2576,39.4847 43.3898,46.861 43.8237,66.8203 45.5593,71.1593 53.3695,81.5729 56.4068,83.7424 59.878,84.1763 75.0644,95.0237" stroke="#7cff79" stroke-width="2" /><polyline fill="none" points="83.3085,12.5831 72.461,37.3153 72.8949,51.6339 80.7051,68.122 89.8169,78.9695 96.7593,85.9119 105.0034,91.5525 112.3797,94.1559 112.3797,92.8542" stroke="#7f0000" stroke-width="2" /></svg>