<?xml version="1.0" encoding="utf-8" ?>
<svg baseProfile="tiny" height="128" version="1.2" viewBox="0,0,128,128" width="128" xmlns="http://www.w3.org/2000/svg" xmlns:ev="http://www.w3.org/2001/xml-events" xmlns:xlink="http://www.w3.org/1999/xlink"><defs /><polyline fill="none" points="81.415,14.8027 45.2789,13.0612 34.3946,16.5442 21.7687,24.8163 12.6259,35.2653 9.5782,41.7959 8.7075,58.7755 17.415,72.7075 30.4762,79.2381 54.8571,87.5102 80.5442,94.4762 93.6054,94.9116 102.3129,89.2517 111.4558,80.5442 119.2925,65.7415 118.8571,53.1156 114.9388,40.0544 104.4898,25.6871 97.0884,20.4626 71.8367,8.7075 60.0816,8.7075" stroke="#00007f" stroke-width="2" /><polyline fill="none" points="51.8095,12.1905 51.3741,35.7007 47.8912,50.5034 36.5714,73.5782 26.9932,76.1905" stroke="#00d4ff" stroke-width="2" /><polyline fill="none" points="94.4762,19.1565 87.0748,27.4286 81.8503,37.0068 78.3673,45.2789 73.5782,67.9184 74.0136,83.5918 77.0612,89.2517 84.4626,96.2177" stroke="#ffe500" stroke-width="2" /><polyline fill="none" points="89.6871,25.6871 89.6871,26.5578" stroke="#7f0000" stroke-width="2" /></svg>