<?xml version="1.0" encoding="utf-8" ?>
<svg baseProfile="tiny" height="128" version="1.2" viewBox="0,0,128,128" width="128" xmlns="http://www.w3.org/2000/svg" xmlns:ev="http://www.w3.org/2001/xml-events" xmlns:xlink="http://www.w3.org/1999/xlink"><defs /><polyline fill="none" points="67.0476,23.5102 64.4354,21.3333 53.551,20.4626 43.9728,23.0748 33.0884,27.8639 23.9456,35.7007 16.1088,44.8435 11.3197,54.4218 8.7075,66.6122 8.7075,80.1088 13.932,92.2993 25.6871,100.5714 41.7959,103.619 58.3401,101.8776 74.0136,94.4762 88.381,82.7211 100.5714,67.0476 105.3605,53.551 106.2313,41.3605 100.5714,31.3469 92.2993,22.2041 84.0272,14.3673 72.7075,8.7075" stroke="#00007f" stroke-width="2" /><polyline fill="none" points="17.8503,31.3469 30.9116,35.2653 38.7483,40.9252 45.2789,47.0204 49.1973,53.9864 50.068,70.5306 46.585,82.2857 40.4898,93.6054 32.6531,104.9252 18.7211,118.4218 13.0612,119.2925" stroke="#004cff" stroke-width="2" /><polyline fill="none" points="79.2381,15.2381 74.0136,16.1088 67.483,28.7347 63.5646,45.2789 62.6939,63.1293 67.483,75.3197 72.2721,79.2381 79.2381,81.415 88.381,81.415" stroke="#29ffcd" stroke-width="2" /><polyline fill="none" points="30.4762,50.5034 39.1837,44.8435" stroke="#cdff29" stroke-width="2" /><polyline fill="none" points="38.3129,70.966 53.9864,68.7891" stroke="#ff6700" stroke-width="2" /><polyline fill="none" points="37.0068,87.9456 48.3265,96.6531" stroke="#7f0000" stroke-width="2" /></svg>