<?xml version="1.0" encoding="utf-8" ?>
<svg baseProfile="tiny" height="128" version="1.2" viewBox="0,0,128,128" width="128" xmlns="http://www.w3.org/2000/svg" xmlns:ev="http://www.w3.org/2001/xml-events" xmlns:xlink="http://www.w3.org/1999/xlink"><defs /><polyline fill="none" points="65.5186,12.1492 58.1424,11.2814 53.8034,12.1492 39.4847,19.0915 30.8068,26.0339 17.7898,41.6542 11.2814,54.6712 8.678,63.3492 9.5458,85.0441 14.7525,96.7593 22.5627,107.6068 29.5051,112.8136 41.2203,118.0203 50.3322,119.322 65.0847,118.4542 75.0644,115.8508 88.9492,110.2102 105.0034,96.3254 111.9458,84.1763 115.4169,71.5932 114.1153,58.1424 111.5119,51.6339 104.1356,39.9186 93.2881,29.0712 77.2339,17.7898 51.6339,8.678" stroke="#00007f" stroke-width="2" /><polyline fill="none" points="22.1288,32.5424 22.1288,43.3898 24.2983,51.6339 27.7695,58.5763 29.5051,59.878 32.5424,59.4441 41.2203,55.539 73.3288,34.7119 76.3661,29.939 77.2339,20.8271" stroke="#00d4ff" stroke-width="2" /><polyline fill="none" points="102.4,34.278 82.0068,52.0678 61.1797,74.1966 62.9153,75.4983 84.6102,76.8 89.3831,78.5356 91.1186,81.5729 96.7593,84.1763 113.6814,87.2136" stroke="#ffe500" stroke-width="2" /><polyline fill="none" points="8.678,80.7051 36.0136,71.1593 41.2203,80.2712 52.9356,111.5119" stroke="#7f0000" stroke-width="2" /></svg>