<?xml version="1.0" encoding="utf-8" ?>
<svg baseProfile="tiny" height="128" version="1.2" viewBox="0,0,128,128" width="128" xmlns="http://www.w3.org/2000/svg" xmlns:ev="http://www.w3.org/2001/xml-events" xmlns:xlink="http://www.w3.org/1999/xlink"><defs /><polyline fill="none" points="20.3932,24.2983 38.1831,14.3186 52.0678,11.2814 72.461,9.1119 98.061,10.8475 111.9458,17.7898 116.2847,28.2034 119.322,46.861 111.078,80.2712 105.4373,85.9119 92.8542,90.6847 58.5763,91.5525 45.1254,90.6847 35.5797,88.0814 24.7322,81.139 16.922,72.461 12.1492,64.6508 9.5458,56.8407 8.678,46.861 11.2814,34.278 15.1864,27.3356 31.2407,16.922" stroke="#00007f" stroke-width="2" /><polyline fill="none" points="40.3525,15.1864 43.3898,20.8271 49.0305,38.6169 45.5593,54.6712 43.8237,71.1593 40.7864,77.2339 32.9763,83.7424 24.2983,83.7424 19.0915,82.0068" stroke="#7cff79" stroke-width="2" /><polyline fill="none" points="91.1186,8.678 80.2712,25.6 75.9322,40.3525 73.3288,56.8407 74.6305,71.5932 80.2712,79.4034 83.3085,86.3458 95.0237,94.5898 98.9288,95.0237 107.6068,91.9864" stroke="#7f0000" stroke-width="2" /></svg>