<?xml version="1.0" encoding="utf-8" ?>
<svg baseProfile="tiny" height="128" version="1.2" viewBox="0,0,128,128" width="128" xmlns="http://www.w3.org/2000/svg" xmlns:ev="http://www.w3.org/2001/xml-events" xmlns:xlink="http://www.w3.org/1999/xlink"><defs /><polyline fill="none" points="93.2881,8.678 70.2915,18.6576 38.6169,39.9186 13.0169,65.9525 9.9797,72.0271 8.678,78.9695 15.1864,84.6102 25.6,87.2136 42.522,88.5153 49.8983,91.9864 59.0102,93.722 76.8,95.4576 94.5898,92.8542 98.4949,90.6847 101.9661,87.2136 105.4373,77.2339 114.9831,43.8237 119.322,32.1085 117.1525,25.6 111.078,21.6949 104.1356,19.5254 98.4949,14.7525" stroke="#00007f" stroke-width="2" /><polyline fill="none" points="49.0305,26.9017 50.7661,39.4847 48.5966,54.2373 45.5593,64.6508 40.3525,74.6305 37.3153,87.6475" stroke="#7cff79" stroke-width="2" /><polyline fill="none" points="78.1017,15.1864 79.8373,51.6339 87.6475,72.0271 88.5153,85.9119" stroke="#7f0000" stroke-width="2" /></svg>