<?xml version="1.0" encoding="utf-8" ?>
<svg baseProfile="tiny" height="128" version="1.2" viewBox="0,0,128,128" width="128" xmlns="http://www.w3.org/2000/svg" xmlns:ev="http://www.w3.org/2001/xml-events" xmlns:xlink="http://www.w3.org/1999/xlink"><defs /><polyline fill="none" points="101.9661,30.3729 68.122,16.922 45.9932,9.9797 32.9763,8.678 29.5051,9.9797 26.4678,14.3186 19.0915,30.3729 10.8475,61.6136 9.9797,95.8915 14.3186,107.1729 19.0915,115.4169 37.7492,119.322 64.2169,118.4542 85.478,113.2475 101.0983,105.4373 106.3051,97.1932 108.0407,90.2508 108.0407,52.0678 106.3051,39.4847 96.3254,24.7322" stroke="#00007f" stroke-width="2" /><polyline fill="none" points="39.9186,10.4136 25.6,35.1458 18.6576,56.4068 16.4881,74.6305 16.4881,98.9288 18.6576,106.3051 20.8271,104.5695" stroke="#0000fe" stroke-width="2" /><polyline fill="none" points="10.4136,95.0237 14.3186,91.9864 29.0712,90.2508" stroke="#0060ff" stroke-width="2" /><polyline fill="none" points="11.7153,81.139 45.9932,74.6305" stroke="#00d4ff" stroke-width="2" /><polyline fill="none" points="8.678,60.7458 11.7153,60.7458" stroke="#4cffaa" stroke-width="2" /><polyline fill="none" points="12.5831,62.9153 24.7322,64.2169" stroke="#aaff4c" stroke-width="2" /><polyline fill="none" points="22.9966,53.3695 31.2407,54.2373" stroke="#ffe500" stroke-width="2" /><polyline fill="none" points="22.9966,52.5017 17.7898,49.8983" stroke="#ff7a00" stroke-width="2" /><polyline fill="none" points="27.3356,39.0508 28.2034,39.4847" stroke="#fe1200" stroke-width="2" /><polyline fill="none" points="20.3932,26.4678 20.3932,26.4678" stroke="#7f0000" stroke-width="2" /></svg>