<?xml version="1.0" encoding="utf-8" ?>
<svg baseProfile="tiny" height="128" version="1.2" viewBox="0,0,128,128" width="128" xmlns="http://www.w3.org/2000/svg" xmlns:ev="http://www.w3.org/2001/xml-events" xmlns:xlink="http://www.w3.org/1999/xlink"><defs /><polyline fill="none" points="18.7211,76.1905 17.8503,79.2381 23.0748,87.9456 28.7347,90.1224 31.3469,86.2041 29.6054,76.1905 23.5102,73.1429 23.0748,71.8367 22.2041,62.2585 23.5102,53.1156 23.0748,30.0408 23.9456,22.2041 22.2041,20.4626" stroke="#00007f" stroke-width="2" /><polyline fill="none" points="19.1565,84.4626 12.6259,64.8707 8.7075,25.2517 8.7075,13.4966 9.5782,10.0136 12.1905,8.7075 20.898,9.1429 23.0748,11.3197 23.0748,20.4626" stroke="#0000d5" stroke-width="2" /><polyline fill="none" points="57.034,70.0952 52.2449,73.1429 48.3265,72.7075 43.102,69.6599 39.619,64.4354 37.8776,53.1156 41.3605,47.4558 45.7143,44.4082 48.3265,44.4082 55.2925,50.5034 59.2109,57.9048 59.6463,64.4354 53.9864,70.5306" stroke="#001cff" stroke-width="2" /><polyline fill="none" points="40.4898,68.3537 44.8435,57.034 44.8435,43.5374" stroke="#006cff" stroke-width="2" /><polyline fill="none" points="57.034,66.1769 55.2925,70.0952 50.068,62.2585 47.8912,53.1156 47.8912,49.6327 49.1973,47.8912" stroke="#00b8ff" stroke-width="2" /><polyline fill="none" points="43.102,52.6803 46.1497,52.6803" stroke="#1cffda" stroke-width="2" /><polyline fill="none" points="43.102,59.6463 45.7143,58.7755" stroke="#5cff9a" stroke-width="2" /><polyline fill="none" points="48.3265,63.5646 53.1156,60.0816" stroke="#9aff5c" stroke-width="2" /><polyline fill="none" points="47.8912,57.9048 50.5034,55.7279" stroke="#daff1c" stroke-width="2" /><polyline fill="none" points="46.585,50.5034 52.2449,48.7619" stroke="#ffcb00" stroke-width="2" /><polyline fill="none" points="43.5374,44.8435 47.8912,45.7143" stroke="#ff8500" stroke-width="2" /><polyline fill="none" points="38.3129,111.0204 37.4422,110.585 37.8776,104.4898" stroke="#ff3b00" stroke-width="2" /><polyline fill="none" points="43.9728,112.3265 27.4286,114.9388 25.6871,114.068 23.5102,111.0204 24.8163,107.5374 34.3946,106.2313 37.0068,109.2789 33.0884,111.0204 28.7347,110.585 27.8639,108.4082 39.619,106.2313 46.585,107.102 46.585,108.8435 42.6667,111.0204 31.3469,114.9388 24.381,115.3741 22.6395,113.1973 23.5102,109.7143 30.9116,105.7959 49.1973,101.4422 56.5986,101.8776 53.9864,105.3605 33.0884,117.9864" stroke="#d50000" stroke-width="2" /><polyline fill="none" points="29.6054,119.2925 30.9116,116.2449 36.5714,110.1497 46.585,102.3129" stroke="#7f0000" stroke-width="2" /></svg>