<?xml version="1.0" encoding="utf-8" ?>
<svg baseProfile="tiny" height="128" version="1.2" viewBox="0,0,128,128" width="128" xmlns="http://www.w3.org/2000/svg" xmlns:ev="http://www.w3.org/2001/xml-events" xmlns:xlink="http://www.w3.org/1999/xlink"><defs /><polyline fill="none" points="70.7254,8.678 31.6746,29.5051 16.0542,40.3525 11.7153,46.4271 8.678,53.8034 9.1119,71.5932 15.1864,87.6475 21.6949,100.2305 32.9763,112.8136 40.3525,117.5864 48.5966,119.322 57.7085,119.322 90.2508,112.8136 101.9661,108.9085 111.078,103.7017 115.8508,98.4949 118.4542,90.6847 118.0203,76.3661 111.078,62.0475 86.7797,33.8441 71.5932,21.6949 54.2373,13.4508" stroke="#00007f" stroke-width="2" /><polyline fill="none" points="47.2949,20.8271 56.8407,42.9559 61.1797,65.0847 60.7458,86.3458 59.4441,95.0237 55.1051,109.7763 53.8034,108.0407 55.1051,105.8712" stroke="#7cff79" stroke-width="2" /><polyline fill="none" points="94.5898,40.3525 89.8169,65.0847 89.3831,77.2339 99.7966,114.1153 100.6644,115.8508 101.9661,113.6814 101.9661,109.7763" stroke="#7f0000" stroke-width="2" /></svg>