<?xml version="1.0" encoding="utf-8" ?>
<svg baseProfile="tiny" height="128" version="1.2" viewBox="0,0,128,128" width="128" xmlns="http://www.w3.org/2000/svg" xmlns:ev="http://www.w3.org/2001/xml-events" xmlns:xlink="http://www.w3.org/1999/xlink"><defs /><polyline fill="none" points="110.2102,26.9017 104.5695,19.5254 95.8915,12.5831 80.7051,8.678 53.8034,8.678 46.4271,10.8475 32.9763,17.7898 22.5627,25.6 14.7525,35.5797 10.4136,49.8983 8.678,61.6136 8.678,80.7051 17.7898,95.8915 23.4305,101.0983 33.8441,105.4373 59.878,107.6068 72.461,105.0034 85.0441,100.2305 105.8712,88.9492 113.2475,78.1017 119.322,42.9559 119.322,35.5797 118.0203,31.6746 114.1153,27.7695 103.7017,20.8271" stroke="#00007f" stroke-width="2" /><polyline fill="none" points="39.4847,13.4508 42.0881,13.4508 51.6339,23.8644 54.2373,32.5424 54.2373,39.0508 50.7661,52.5017 38.6169,82.0068 35.1458,88.5153 28.2034,94.1559 28.6373,95.0237" stroke="#00d4ff" stroke-width="2" /><polyline fill="none" points="89.8169,18.2237 86.7797,19.0915 83.3085,22.5627 77.6678,36.0136 73.3288,60.3119 73.3288,75.9322 76.3661,86.3458 83.7424,96.7593 88.5153,101.9661 93.2881,104.5695" stroke="#ffe500" stroke-width="2" /><polyline fill="none" points="83.7424,27.3356 91.5525,14.3186 94.1559,13.0169" stroke="#7f0000" stroke-width="2" /></svg>