<?xml version="1.0" encoding="utf-8" ?>
<svg baseProfile="tiny" height="128" version="1.2" viewBox="0,0,128,128" width="128" xmlns="http://www.w3.org/2000/svg" xmlns:ev="http://www.w3.org/2001/xml-events" xmlns:xlink="http://www.w3.org/1999/xlink"><defs /><polyline fill="none" points="36.0136,8.678 39.4847,8.678 57.7085,18.2237 77.2339,29.0712 91.5525,39.0508 96.3254,49.8983 96.3254,74.6305 91.1186,92.4203 84.6102,102.8339 76.8,110.6441 69.4237,114.9831 55.9729,118.8881 45.9932,119.322 35.5797,114.5492 26.0339,107.1729 15.6203,89.8169 9.9797,70.7254 8.678,61.6136 9.5458,30.8068 16.4881,18.6576 22.5627,13.4508 28.6373,11.2814 39.4847,11.7153 53.3695,22.1288" stroke="#00007f" stroke-width="2" /><polyline fill="none" points="72.0271,28.6373 71.5932,35.5797 78.1017,52.5017 80.7051,72.0271 87.2136,88.9492 94.1559,96.7593" stroke="#7cff79" stroke-width="2" /><polyline fill="none" points="13.8847,25.6 16.922,25.6 21.6949,32.9763 24.7322,41.2203 26.4678,55.1051 27.7695,89.8169 22.5627,106.739" stroke="#7f0000" stroke-width="2" /></svg>