<?xml version="1.0" encoding="utf-8" ?>
<svg baseProfile="tiny" height="128" version="1.2" viewBox="0,0,128,128" width="128" xmlns="http://www.w3.org/2000/svg" xmlns:ev="http://www.w3.org/2001/xml-events" xmlns:xlink="http://www.w3.org/1999/xlink"><defs /><polyline fill="none" points="109.3424,22.1288 73.7627,20.8271 54.2373,22.1288 27.3356,25.1661 20.3932,28.6373 12.5831,35.5797 9.9797,39.4847 8.678,51.2 15.6203,69.4237 26.4678,81.139 43.3898,91.1186 56.4068,94.5898 91.5525,94.1559 107.6068,88.9492 115.8508,78.1017 118.8881,68.5559 119.322,40.3525 113.2475,9.9797 110.6441,8.678 99.3627,13.8847" stroke="#00007f" stroke-width="2" /><polyline fill="none" points="38.1831,23.8644 46.4271,31.6746" stroke="#0000de" stroke-width="2" /><polyline fill="none" points="38.1831,37.3153 39.9186,40.3525 46.861,43.8237" stroke="#0028ff" stroke-width="2" /><polyline fill="none" points="35.1458,51.6339 39.4847,56.4068" stroke="#0080ff" stroke-width="2" /><polyline fill="none" points="25.1661,64.6508 25.1661,68.122 28.6373,74.1966 28.2034,76.3661" stroke="#00d4ff" stroke-width="2" /><polyline fill="none" points="77.6678,22.9966 88.5153,26.9017" stroke="#36ffc0" stroke-width="2" /><polyline fill="none" points="82.4407,37.3153 88.5153,41.6542" stroke="#7cff79" stroke-width="2" /><polyline fill="none" points="84.1763,56.4068 88.5153,58.5763" stroke="#c0ff36" stroke-width="2" /><polyline fill="none" points="82.8746,75.9322 89.3831,77.6678" stroke="#ffe500" stroke-width="2" /><polyline fill="none" points="89.3831,89.3831 95.8915,89.3831" stroke="#ff9400" stroke-width="2" /><polyline fill="none" points="88.0814,92.8542 88.0814,75.4983 85.0441,59.878 84.6102,14.7525" stroke="#ff4600" stroke-width="2" /><polyline fill="none" points="47.7288,19.9593 47.2949,32.9763 41.2203,50.3322 27.3356,68.5559" stroke="#de0000" stroke-width="2" /><polyline fill="none" points="26.4678,68.5559 22.1288,73.3288" stroke="#7f0000" stroke-width="2" /></svg>