<?xml version="1.0" encoding="utf-8" ?>
<svg baseProfile="tiny" height="128" version="1.2" viewBox="0,0,128,128" width="128" xmlns="http://www.w3.org/2000/svg" xmlns:ev="http://www.w3.org/2001/xml-events" xmlns:xlink="http://www.w3.org/1999/xlink"><defs /><polyline fill="none" points="56.5986,119.2925 47.8912,117.551 35.7007,109.7143 23.5102,100.1361 16.9796,91.8639 10.449,78.3673 8.7075,67.9184 10.0136,44.8435 14.8027,32.2177 21.3333,22.2041 29.6054,16.5442 48.3265,9.5782 56.1633,8.7075 74.449,9.1429 87.5102,22.6395 110.1497,59.6463 112.7619,67.0476 110.585,87.5102 106.2313,96.2177 99.7007,104.4898 84.4626,112.3265 71.8367,116.2449 48.3265,115.3741 42.6667,114.068" stroke="#00007f" stroke-width="2" /><polyline fill="none" points="17.8503,19.1565 21.7687,19.1565 24.381,20.4626 32.2177,26.9932 36.1361,32.2177 44.8435,50.9388 48.3265,69.2245 48.3265,77.932 44.8435,88.8163 39.619,97.5238 30.4762,101.0068" stroke="#7cff79" stroke-width="2" /><polyline fill="none" points="73.1429,8.7075 58.3401,34.3946 57.034,60.517 62.6939,80.9796 70.5306,98.3946 81.8503,106.6667 89.2517,109.7143 87.5102,107.5374" stroke="#7f0000" stroke-width="2" /></svg>