<?xml version="1.0" encoding="utf-8" ?>
<svg baseProfile="tiny" height="128" version="1.2" viewBox="0,0,128,128" width="128" xmlns="http://www.w3.org/2000/svg" xmlns:ev="http://www.w3.org/2001/xml-events" xmlns:xlink="http://www.w3.org/1999/xlink"><defs /><polyline fill="none" points="93.722,11.2814 80.2712,9.1119 65.0847,8.678 50.3322,10.8475 37.7492,14.7525 26.4678,22.1288 19.0915,29.939 12.1492,43.3898 9.1119,56.8407 8.678,72.0271 12.1492,86.7797 17.3559,97.6271 26.0339,107.1729 33.4102,111.9458 42.9559,115.8508 59.878,119.322 73.7627,119.322 89.8169,114.9831 97.1932,110.2102 101.9661,105.0034 108.4746,95.0237 111.5119,88.0814 114.5492,75.4983 114.5492,50.7661 112.3797,39.4847 109.7763,32.9763 98.4949,18.6576 96.3254,13.0169 92.4203,12.5831 86.3458,23.8644 82.4407,71.5932 82.8746,88.0814 87.6475,110.2102 61.1797,115.4169 40.3525,113.6814 39.0508,109.3424 50.3322,91.5525 52.0678,85.9119 57.7085,75.0644 62.0475,51.6339 61.6136,40.7864 59.0102,32.5424 45.9932,14.7525" stroke="#00007f" stroke-width="2" /></svg>