<?xml version="1.0" encoding="utf-8" ?>
<svg baseProfile="tiny" height="128" version="1.2" viewBox="0,0,128,128" width="128" xmlns="http://www.w3.org/2000/svg" xmlns:ev="http://www.w3.org/2001/xml-events" xmlns:xlink="http://www.w3.org/1999/xlink"><defs /><polyline fill="none" points="68.5559,14.3186 65.9525,11.2814 58.5763,9.5458 45.5593,9.1119 38.1831,11.2814 30.8068,16.922 24.7322,24.2983 13.0169,45.5593 9.5458,56.8407 8.678,68.122 8.678,79.4034 10.8475,90.6847 15.1864,99.7966 22.1288,108.4746 38.1831,117.5864 57.2746,119.322 67.6881,118.4542 76.3661,113.6814 84.1763,108.0407 91.1186,100.2305 96.7593,91.5525 99.7966,82.0068 100.6644,62.4814 98.4949,53.3695 93.722,45.5593 75.4983,23.4305 63.3492,13.8847 53.3695,8.678" stroke="#00007f" stroke-width="2" /><polyline fill="none" points="22.9966,25.6 29.5051,27.7695 33.8441,32.9763 39.9186,47.7288 41.6542,81.139 34.7119,112.3797" stroke="#0000ff" stroke-width="2" /><polyline fill="none" points="73.7627,21.6949 66.8203,46.861 66.8203,81.139 71.5932,93.2881 81.139,108.0407" stroke="#0080ff" stroke-width="2" /><polyline fill="none" points="25.6,29.0712 34.278,26.4678" stroke="#15ffe1" stroke-width="2" /><polyline fill="none" points="34.278,39.0508 39.0508,38.6169" stroke="#7cff79" stroke-width="2" /><polyline fill="none" points="36.8814,45.5593 42.522,49.4644" stroke="#e4ff12" stroke-width="2" /><polyline fill="none" points="39.9186,64.6508 43.3898,67.6881" stroke="#ff9400" stroke-width="2" /><polyline fill="none" points="33.8441,89.8169 42.522,96.7593" stroke="#ff1d00" stroke-width="2" /><polyline fill="none" points="32.9763,108.4746 35.5797,113.2475" stroke="#7f0000" stroke-width="2" /></svg>