<?xml version="1.0" encoding="utf-8" ?>
<svg baseProfile="tiny" height="128" version="1.2" viewBox="0,0,128,128" width="128" xmlns="http://www.w3.org/2000/svg" xmlns:ev="http://www.w3.org/2001/xml-events" xmlns:xlink="http://www.w3.org/1999/xlink"><defs /><polyline fill="none" points="64.2169,17.7898 58.1424,16.922 54.6712,18.6576 49.0305,22.1288 39.0508,32.9763 34.278,45.5593 33.8441,60.7458 35.5797,65.5186 43.8237,73.7627 53.3695,76.8 65.0847,76.3661 87.2136,62.9153 98.061,52.9356 105.8712,41.2203 107.6068,35.1458 108.0407,24.2983 107.1729,19.9593 101.0983,13.0169 89.3831,8.678 72.8949,9.1119 56.8407,18.2237 56.4068,20.3932" stroke="#00007f" stroke-width="2" /><polyline fill="none" points="65.5186,19.5254 65.0847,36.4475 67.6881,66.8203" stroke="#0080ff" stroke-width="2" /><polyline fill="none" points="76.3661,10.8475 78.9695,13.0169 78.9695,40.7864 82.0068,52.9356 88.0814,67.2542 98.061,78.5356" stroke="#7cff79" stroke-width="2" /><polyline fill="none" points="8.678,52.9356 12.1492,52.5017 38.1831,39.9186 61.6136,31.6746 94.5898,25.1661 115.4169,23.4305" stroke="#ff9400" stroke-width="2" /><polyline fill="none" points="36.8814,54.2373 48.5966,52.5017 73.3288,45.5593 119.322,39.9186" stroke="#7f0000" stroke-width="2" /></svg>