<?xml version="1.0" encoding="utf-8" ?>
<svg baseProfile="tiny" height="128" version="1.2" viewBox="0,0,128,128" width="128" xmlns="http://www.w3.org/2000/svg" xmlns:ev="http://www.w3.org/2001/xml-events" xmlns:xlink="http://www.w3.org/1999/xlink"><defs /><polyline fill="none" points="71.1593,9.1119 59.4441,8.678 51.2,10.4136 35.5797,15.6203 21.6949,24.7322 15.1864,32.9763 11.7153,41.2203 8.678,54.2373 8.678,62.0475 16.4881,73.7627 26.0339,80.7051 39.4847,86.7797 59.878,92.8542 70.7254,94.1559 86.3458,93.722 99.7966,88.9492 108.9085,81.139 113.6814,72.461 118.0203,60.3119 119.322,51.6339 118.8881,39.9186 116.2847,32.5424 112.8136,26.4678 106.3051,22.1288 86.7797,14.3186 66.3864,9.5458" stroke="#00007f" stroke-width="2" /><polyline fill="none" points="93.722,16.922 91.5525,17.7898" stroke="#0000cc" stroke-width="2" /><polyline fill="none" points="85.9119,23.4305 83.3085,28.6373" stroke="#0008ff" stroke-width="2" /><polyline fill="none" points="81.139,33.4102 79.8373,38.1831" stroke="#004cff" stroke-width="2" /><polyline fill="none" points="79.4034,40.3525 78.5356,45.9932" stroke="#0090ff" stroke-width="2" /><polyline fill="none" points="78.5356,50.7661 78.5356,61.6136" stroke="#00d4ff" stroke-width="2" /><polyline fill="none" points="80.2712,66.8203 82.0068,74.1966 84.6102,76.8" stroke="#29ffcd" stroke-width="2" /><polyline fill="none" points="86.7797,78.9695 89.3831,83.7424 91.9864,85.478" stroke="#5fff96" stroke-width="2" /><polyline fill="none" points="93.722,87.2136 96.7593,90.6847" stroke="#96ff5f" stroke-width="2" /><polyline fill="none" points="35.5797,14.3186 42.522,17.7898" stroke="#cdff29" stroke-width="2" /><polyline fill="none" points="48.1627,26.0339 51.2,37.3153" stroke="#ffe500" stroke-width="2" /><polyline fill="none" points="52.0678,40.7864 52.5017,47.7288" stroke="#ffa600" stroke-width="2" /><polyline fill="none" points="51.2,51.2 49.8983,58.1424" stroke="#ff6700" stroke-width="2" /><polyline fill="none" points="49.0305,61.1797 47.7288,69.4237" stroke="#ff2800" stroke-width="2" /><polyline fill="none" points="45.1254,72.8949 42.9559,76.3661 39.9186,78.1017" stroke="#cc0000" stroke-width="2" /><polyline fill="none" points="36.4475,79.4034 35.5797,82.4407 32.9763,83.7424" stroke="#7f0000" stroke-width="2" /></svg>