<?xml version="1.0" encoding="utf-8" ?>
<svg baseProfile="tiny" height="128" version="1.2" viewBox="0,0,128,128" width="128" xmlns="http://www.w3.org/2000/svg" xmlns:ev="http://www.w3.org/2001/xml-events" xmlns:xlink="http://www.w3.org/1999/xlink"><defs /><polyline fill="none" points="85.9119,25.6 82.4407,22.5627 75.0644,18.2237 54.6712,9.5458 39.0508,9.9797 32.9763,15.1864 22.9966,34.278 15.6203,55.539 11.2814,71.5932 11.2814,93.2881 21.6949,105.0034 39.4847,117.1525 48.1627,119.322 58.5763,119.322 62.4814,118.4542 67.2542,114.5492 69.4237,109.7763 72.8949,85.9119 76.3661,73.7627 86.3458,52.9356 90.6847,41.2203 92.8542,29.5051 92.8542,21.261 89.3831,16.4881 82.8746,11.2814 78.9695,10.8475" stroke="#00007f" stroke-width="2" /><polyline fill="none" points="32.1085,22.1288 32.1085,64.2169 36.0136,73.3288 36.8814,86.3458 12.5831,96.7593 9.1119,98.9288 8.678,101.5322" stroke="#7cff79" stroke-width="2" /><polyline fill="none" points="83.3085,8.678 75.9322,16.4881 60.7458,29.0712 57.7085,33.8441 57.2746,70.2915 51.2,89.8169 51.6339,106.3051 54.2373,112.3797" stroke="#7f0000" stroke-width="2" /></svg>