<?xml version="1.0" encoding="utf-8" ?>
<svg baseProfile="tiny" height="128" version="1.2" viewBox="0,0,128,128" width="128" xmlns="http://www.w3.org/2000/svg" xmlns:ev="http://www.w3.org/2001/xml-events" xmlns:xlink="http://www.w3.org/1999/xlink"><defs /><polyline fill="none" points="67.9184,34.3946 65.7415,20.4626 55.2925,16.9796 39.1837,18.7211 24.8163,27.8639 13.4966,43.102 10.0136,52.2449 8.7075,60.9524 8.7075,74.8844 13.0612,84.0272 25.2517,101.0068 34.3946,109.7143 43.102,116.2449 51.8095,119.2925 68.3537,118.8571 77.932,116.2449 94.9116,108.8435 102.7483,101.8776 107.9728,92.2993 110.1497,80.5442 110.1497,67.9184 106.6667,53.9864 100.1361,41.7959 92.2993,31.7823 84.0272,23.9456 66.6122,15.2381 54.4218,13.932" stroke="#00007f" stroke-width="2" /><polyline fill="none" points="23.5102,26.9932 27.8639,40.9252 29.1701,50.5034 29.1701,71.8367 23.9456,90.9932 20.898,96.6531 16.1088,101.0068" stroke="#004cff" stroke-width="2" /><polyline fill="none" points="89.6871,19.1565 77.932,71.4014 77.0612,94.0408 79.6735,103.619 82.7211,108.4082 87.0748,111.4558 91.8639,113.1973 104.9252,113.6327 111.0204,108.8435" stroke="#29ffcd" stroke-width="2" /><polyline fill="none" points="58.3401,8.7075 53.9864,30.9116 50.9388,55.7279 50.9388,99.7007 53.551,108.4082" stroke="#cdff29" stroke-width="2" /><polyline fill="none" points="26.9932,49.6327 36.5714,48.3265" stroke="#ff6700" stroke-width="2" /><polyline fill="none" points="25.2517,66.6122 29.6054,66.1769" stroke="#7f0000" stroke-width="2" /></svg>