<?xml version="1.0" encoding="utf-8" ?>
<svg baseProfile="tiny" height="128" version="1.2" viewBox="0,0,128,128" width="128" xmlns="http://www.w3.org/2000/svg" xmlns:ev="http://www.w3.org/2001/xml-events" xmlns:xlink="http://www.w3.org/1999/xlink"><defs /><polyline fill="none" points="52.5017,9.5458 44.6915,8.678 36.8814,14.3186 26.9017,24.2983 16.0542,40.3525 9.5458,60.3119 8.678,91.1186 9.5458,96.7593 13.4508,104.1356 19.5254,110.6441 41.2203,118.4542 62.0475,119.322 79.8373,115.8508 88.0814,111.9458 99.3627,103.2678 105.4373,96.7593 108.9085,89.3831 110.2102,71.5932 103.7017,46.4271 91.5525,26.4678 79.8373,16.0542 69.8576,11.7153 49.0305,10.4136 45.5593,11.7153" stroke="#00007f" stroke-width="2" /><polyline fill="none" points="75.4983,16.0542 73.3288,29.5051 68.122,40.3525 48.5966,65.0847 29.5051,97.1932 18.2237,108.9085 17.3559,109.3424 17.3559,108.0407" stroke="#0028ff" stroke-width="2" /><polyline fill="none" points="30.8068,70.2915 33.8441,71.5932 47.7288,86.3458 54.2373,89.8169 56.8407,90.2508" stroke="#00d4ff" stroke-width="2" /><polyline fill="none" points="36.4475,56.8407 60.3119,63.7831 81.5729,65.0847" stroke="#7cff79" stroke-width="2" /><polyline fill="none" points="59.4441,39.4847 94.1559,46.4271" stroke="#ffe500" stroke-width="2" /><polyline fill="none" points="65.5186,21.6949 80.7051,26.4678 98.4949,30.3729" stroke="#ff4600" stroke-width="2" /><polyline fill="none" points="32.5424,20.8271 31.2407,20.8271 30.3729,26.4678 30.3729,51.2 36.8814,70.7254 45.1254,85.9119 60.7458,100.6644 68.122,105.8712" stroke="#7f0000" stroke-width="2" /></svg>