<?xml version="1.0" encoding="utf-8" ?>
<svg baseProfile="tiny" height="128" version="1.2" viewBox="0,0,128,128" width="128" xmlns="http://www.w3.org/2000/svg" xmlns:ev="http://www.w3.org/2001/xml-events" xmlns:xlink="http://www.w3.org/1999/xlink"><defs /><polyline fill="none" points="49.1973,13.4966 40.0544,16.1088 26.5578,25.6871 18.7211,37.4422 11.7551,53.551 8.7075,79.6735 10.8844,96.2177 15.2381,105.7959 23.9456,114.5034 33.5238,118.4218 43.9728,119.2925 57.4694,117.1156 71.4014,111.4558 79.6735,104.9252 84.0272,98.8299 90.5578,85.7687 92.2993,77.932 94.4762,62.6939 93.6054,51.8095 90.5578,42.2313 83.5918,28.7347 76.6259,21.7687 67.0476,14.8027 52.2449,9.1429 42.2313,8.7075" stroke="#00007f" stroke-width="2" /><polyline fill="none" points="32.6531,20.0272 27.8639,42.2313 27.4286,52.6803 27.8639,105.7959 29.6054,116.6803" stroke="#7cff79" stroke-width="2" /><polyline fill="none" points="71.8367,18.2857 63.5646,71.8367 63.5646,98.8299 68.3537,112.3265" stroke="#7f0000" stroke-width="2" /></svg>