<?xml version="1.0" encoding="utf-8" ?>
<svg baseProfile="tiny" height="128" version="1.2" viewBox="0,0,128,128" width="128" xmlns="http://www.w3.org/2000/svg" xmlns:ev="http://www.w3.org/2001/xml-events" xmlns:xlink="http://www.w3.org/1999/xlink"><defs /><polyline fill="none" points="43.8237,14.3186 30.3729,15.6203 19.5254,22.1288 15.1864,26.9017 9.9797,39.4847 8.678,55.9729 13.0169,78.9695 17.3559,90.6847 22.1288,98.4949 36.0136,111.5119 49.8983,118.0203 66.3864,119.322 75.9322,118.0203 83.3085,115.4169 93.722,108.0407 101.0983,98.4949 106.739,88.0814 110.2102,66.8203 109.7763,52.0678 106.3051,42.522 98.061,30.8068 82.0068,19.0915 65.5186,13.4508 57.2746,11.7153 32.9763,12.5831" stroke="#00007f" stroke-width="2" /><polyline fill="none" points="11.2814,16.4881 16.0542,19.9593 24.7322,29.0712 34.7119,49.8983 37.7492,60.7458 42.0881,82.8746 39.0508,102.8339 36.4475,109.7763" stroke="#00d4ff" stroke-width="2" /><polyline fill="none" points="81.139,8.678 75.9322,15.1864 73.3288,23.4305 71.1593,38.6169 72.0271,49.8983 76.3661,62.4814 86.3458,79.4034 98.9288,91.1186" stroke="#ffe500" stroke-width="2" /><polyline fill="none" points="12.5831,56.4068 15.6203,51.2 22.9966,42.9559 36.8814,31.6746" stroke="#7f0000" stroke-width="2" /></svg>