<?xml version="1.0" encoding="utf-8" ?>
<svg baseProfile="tiny" height="128" version="1.2" viewBox="0,0,128,128" width="128" xmlns="http://www.w3.org/2000/svg" xmlns:ev="http://www.w3.org/2001/xml-events" xmlns:xlink="http://www.w3.org/1999/xlink"><defs /><polyline fill="none" points="54.2373,119.322 38.6169,115.4169 22.1288,105.4373 12.1492,90.2508 9.1119,76.8 8.678,61.6136 10.8475,45.9932 15.6203,33.4102 22.1288,23.8644 32.1085,16.0542 43.8237,10.8475 56.4068,8.678 69.8576,9.5458 81.139,13.4508 91.5525,19.5254 99.7966,26.9017 104.5695,35.1458 106.3051,43.3898 104.5695,62.9153 93.722,92.8542 88.0814,101.5322 76.8,111.9458 69.4237,114.5492 65.9525,112.3797" stroke="#00007f" stroke-width="2" /><polyline fill="none" points="45.5593,12.1492 40.7864,43.3898 34.278,67.2542 29.939,78.1017 21.261,93.2881 15.1864,98.4949 12.1492,99.3627" stroke="#7cff79" stroke-width="2" /><polyline fill="none" points="91.9864,9.5458 87.2136,21.6949 80.7051,45.9932 76.8,69.8576 76.8,80.2712 78.1017,89.8169 83.3085,102.4 88.9492,107.6068 94.1559,107.6068" stroke="#7f0000" stroke-width="2" /></svg>