<?xml version="1.0" encoding="utf-8" ?>
<svg baseProfile="tiny" height="128" version="1.2" viewBox="0,0,128,128" width="128" xmlns="http://www.w3.org/2000/svg" xmlns:ev="http://www.w3.org/2001/xml-events" xmlns:xlink="http://www.w3.org/1999/xlink"><defs /><polyline fill="none" points="22.1288,36.8814 13.0169,43.3898 8.678,49.0305 8.678,62.0475 27.7695,99.3627 35.1458,110.6441 43.3898,117.1525 51.6339,119.322 66.3864,118.8881 73.3288,116.7186 84.1763,109.3424 90.2508,97.6271 95.4576,76.8 94.1559,48.1627 88.0814,36.8814 77.6678,26.9017 55.539,14.3186 41.2203,9.1119 23.8644,8.678 16.4881,13.0169 13.4508,18.2237 13.0169,25.1661 17.7898,37.3153 18.2237,34.278" stroke="#00007f" stroke-width="2" /><polyline fill="none" points="18.2237,32.5424 22.5627,34.7119 47.2949,64.2169 49.8983,72.8949 50.3322,85.478 45.5593,94.5898 41.2203,96.7593 40.7864,89.8169 45.9932,79.8373" stroke="#7cff79" stroke-width="2" /><polyline fill="none" points="69.4237,33.8441 63.3492,47.2949 62.4814,57.2746 65.5186,65.9525 66.3864,73.7627 72.0271,79.8373 86.3458,88.9492 90.2508,89.3831 88.5153,84.1763 79.4034,78.5356" stroke="#7f0000" stroke-width="2" /></svg>