<?xml version="1.0" encoding="utf-8" ?>
<svg baseProfile="tiny" height="128" version="1.2" viewBox="0,0,128,128" width="128" xmlns="http://www.w3.org/2000/svg" xmlns:ev="http://www.w3.org/2001/xml-events" xmlns:xlink="http://www.w3.org/1999/xlink"><defs /><polyline fill="none" points="95.3469,17.8503 81.8503,11.3197 72.7075,8.7075 57.4694,8.7075 47.0204,11.3197 36.5714,16.5442 29.1701,22.6395 20.4626,32.2177 15.6735,42.2313 9.1429,63.1293 8.7075,74.8844 11.3197,83.5918 19.1565,97.5238 30.4762,110.1497 41.3605,116.2449 51.3741,119.2925 70.0952,118.8571 75.7551,116.2449 85.3333,107.9728 90.9932,99.2653 107.5374,66.1769 108.4082,56.1633 104.9252,46.1497 90.5578,21.7687 85.7687,16.9796 83.5918,16.5442" stroke="#00007f" stroke-width="2" /><polyline fill="none" points="26.5578,25.6871 31.3469,27.8639 39.619,36.1361 42.2313,46.585 43.9728,60.0816 43.9728,70.5306 41.3605,82.2857 30.9116,110.585" stroke="#7cff79" stroke-width="2" /><polyline fill="none" points="75.7551,9.5782 72.7075,19.5918 70.966,33.0884 70.5306,61.3878 77.0612,80.5442 85.3333,97.9592 87.5102,99.2653" stroke="#7f0000" stroke-width="2" /></svg>