<?xml version="1.0" encoding="utf-8" ?>
<svg baseProfile="tiny" height="128" version="1.2" viewBox="0,0,128,128" width="128" xmlns="http://www.w3.org/2000/svg" xmlns:ev="http://www.w3.org/2001/xml-events" xmlns:xlink="http://www.w3.org/1999/xlink"><defs /><polyline fill="none" points="77.6678,11.7153 54.2373,12.1492 14.3186,25.1661 12.1492,27.7695 8.678,53.8034 8.678,58.5763 15.6203,90.2508 24.2983,100.6644 48.1627,115.4169 62.9153,119.322 68.5559,119.322 75.9322,115.8508 82.8746,106.3051 88.5153,103.7017 95.4576,97.1932 103.7017,69.4237 103.7017,48.1627 98.4949,23.8644 92.4203,12.5831 89.8169,10.8475 85.0441,8.678 76.8,8.678 56.8407,16.4881" stroke="#00007f" stroke-width="2" /><polyline fill="none" points="29.5051,22.9966 32.1085,24.2983 36.0136,32.1085 37.7492,44.2576 37.7492,58.5763 31.6746,71.5932 30.3729,89.3831 32.9763,94.5898 37.7492,97.6271 62.4814,101.5322 65.5186,99.7966 73.7627,90.2508 76.8,82.0068 78.5356,54.6712 66.8203,37.3153 56.8407,26.0339 51.2,13.4508" stroke="#7f0000" stroke-width="2" /></svg>