<?xml version="1.0" encoding="utf-8" ?>
<svg baseProfile="tiny" height="128" version="1.2" viewBox="0,0,128,128" width="128" xmlns="http://www.w3.org/2000/svg" xmlns:ev="http://www.w3.org/2001/xml-events" xmlns:xlink="http://www.w3.org/1999/xlink"><defs /><polyline fill="none" points="69.4237,11.7153 66.8203,9.1119 48.1627,10.4136 36.0136,15.6203 29.0712,20.8271 15.6203,34.278 11.7153,42.0881 8.678,57.2746 9.1119,66.3864 13.0169,75.0644 28.2034,90.2508 38.6169,96.7593 49.4644,100.2305 63.3492,101.9661 76.8,101.5322 89.3831,97.6271 101.9661,91.1186 111.078,82.0068 116.2847,72.0271 118.8881,60.7458 119.322,49.8983 116.2847,39.9186 107.6068,28.2034 100.2305,22.5627 82.8746,14.7525 65.5186,11.7153" stroke="#00007f" stroke-width="2" /><polyline fill="none" points="32.9763,8.678 43.3898,16.0542 50.7661,24.2983 60.3119,38.1831 65.9525,52.9356 65.5186,64.2169 58.1424,78.1017 45.5593,92.8542 38.6169,97.1932 33.8441,98.061" stroke="#7cff79" stroke-width="2" /><polyline fill="none" points="95.0237,18.6576 91.1186,20.8271 84.6102,29.5051 78.9695,41.6542 75.9322,55.539 76.8,77.2339 80.7051,84.6102 88.5153,90.2508 98.9288,91.5525 105.0034,90.6847 110.6441,88.0814" stroke="#7f0000" stroke-width="2" /></svg>