<?xml version="1.0" encoding="utf-8" ?>
<svg baseProfile="tiny" height="128" version="1.2" viewBox="0,0,128,128" width="128" xmlns="http://www.w3.org/2000/svg" xmlns:ev="http://www.w3.org/2001/xml-events" xmlns:xlink="http://www.w3.org/1999/xlink"><defs /><polyline fill="none" points="91.9864,16.0542 87.2136,13.0169 77.2339,11.2814 53.3695,12.1492 45.1254,15.6203 34.278,22.9966 26.0339,31.6746 19.0915,42.522 13.4508,54.2373 9.9797,66.3864 8.678,88.5153 14.3186,101.0983 22.9966,110.2102 35.5797,116.2847 48.5966,119.322 71.5932,118.0203 81.5729,113.2475 88.9492,107.6068 94.5898,101.9661 97.1932,95.8915 98.4949,78.5356 95.8915,59.0102 83.3085,27.7695 76.8,16.922 69.4237,8.678" stroke="#00007f" stroke-width="2" /><polyline fill="none" points="34.7119,21.261 38.6169,33.8441 39.0508,59.878 37.3153,69.4237 34.278,75.0644 20.8271,97.6271" stroke="#0010ff" stroke-width="2" /><polyline fill="none" points="70.2915,13.4508 70.7254,61.1797 73.3288,73.3288 76.3661,78.9695 82.4407,86.7797 92.8542,92.4203" stroke="#00a4ff" stroke-width="2" /><polyline fill="none" points="37.7492,31.6746 37.7492,31.6746" stroke="#3fffb7" stroke-width="2" /><polyline fill="none" points="35.1458,54.6712 45.1254,56.8407" stroke="#b7ff3f" stroke-width="2" /><polyline fill="none" points="30.3729,35.5797 46.861,35.5797" stroke="#ffb900" stroke-width="2" /><polyline fill="none" points="24.2983,67.6881 30.8068,69.4237 36.8814,72.461" stroke="#ff3000" stroke-width="2" /><polyline fill="none" points="25.1661,80.7051 35.5797,87.2136" stroke="#7f0000" stroke-width="2" /></svg>