<?xml version="1.0" encoding="utf-8" ?>
<svg baseProfile="tiny" height="128" version="1.2" viewBox="0,0,128,128" width="128" xmlns="http://www.w3.org/2000/svg" xmlns:ev="http://www.w3.org/2001/xml-events" xmlns:xlink="http://www.w3.org/1999/xlink"><defs /><polyline fill="none" points="71.1593,10.8475 65.9525,9.1119 49.4644,8.678 35.5797,15.6203 22.1288,26.0339 16.922,33.8441 15.1864,38.6169 9.1119,57.2746 8.678,66.3864 12.5831,74.1966 18.2237,81.5729 37.3153,93.722 65.0847,102.4 93.2881,101.9661 98.4949,99.3627 105.0034,88.0814 117.1525,59.4441 119.322,50.3322 118.8881,39.4847 115.4169,32.1085 109.3424,25.6 101.0983,21.6949 79.4034,16.922 68.122,12.1492" stroke="#00007f" stroke-width="2" /><polyline fill="none" points="65.5186,10.8475 70.2915,29.0712 77.6678,45.5593 85.9119,67.6881 89.3831,73.3288 92.8542,75.9322 109.3424,83.7424" stroke="#00d4ff" stroke-width="2" /><polyline fill="none" points="49.8983,14.3186 49.8983,27.7695 52.9356,49.8983 52.9356,58.1424 50.7661,65.5186 44.6915,72.0271 35.5797,77.6678 24.7322,81.5729 12.1492,83.3085" stroke="#ffe500" stroke-width="2" /><polyline fill="none" points="14.3186,27.3356 14.3186,28.6373 21.261,36.8814 32.1085,46.861 44.2576,53.3695 59.0102,57.7085 72.0271,59.878 87.2136,59.4441 111.5119,52.0678 114.1153,49.0305" stroke="#7f0000" stroke-width="2" /></svg>