<?xml version="1.0" encoding="utf-8" ?>
<svg baseProfile="tiny" height="128" version="1.2" viewBox="0,0,128,128" width="128" xmlns="http://www.w3.org/2000/svg" xmlns:ev="http://www.w3.org/2001/xml-events" xmlns:xlink="http://www.w3.org/1999/xlink"><defs /><polyline fill="none" points="96.6531,19.1565 87.5102,13.0612 75.7551,9.1429 59.2109,8.7075 50.068,10.8844 32.6531,17.8503 18.7211,27.4286 12.1905,37.0068 8.7075,49.6327 9.1429,59.6463 13.932,70.966 19.5918,78.3673 30.9116,85.3333 45.7143,88.8163 61.3878,90.5578 77.0612,90.1224 91.4286,87.5102 100.1361,83.1565 108.4082,76.1905 116.2449,63.5646 118.8571,53.9864 119.2925,33.9592 116.2449,26.1224 108.8435,15.6735" stroke="#00007f" stroke-width="2" /><polyline fill="none" points="32.6531,15.6735 35.7007,21.7687 37.4422,28.2993 37.4422,48.7619 34.8299,57.9048 29.6054,67.483 20.4626,75.3197" stroke="#00d4ff" stroke-width="2" /><polyline fill="none" points="118.8571,22.2041 105.7959,20.4626 96.6531,23.0748 90.1224,28.7347 83.5918,41.7959 80.9796,57.034 83.1565,70.0952 88.381,77.932 96.2177,83.1565" stroke="#ffe500" stroke-width="2" /><polyline fill="none" points="57.4694,10.8844 55.2925,21.3333 55.7279,47.0204 60.517,70.0952 66.1769,78.8027" stroke="#7f0000" stroke-width="2" /></svg>