<?xml version="1.0" encoding="utf-8" ?>
<svg baseProfile="tiny" height="128" version="1.2" viewBox="0,0,128,128" width="128" xmlns="http://www.w3.org/2000/svg" xmlns:ev="http://www.w3.org/2001/xml-events" xmlns:xlink="http://www.w3.org/1999/xlink"><defs /><polyline fill="none" points="12.5831,62.0475 12.5831,55.9729 16.922,46.861 24.7322,35.5797 35.1458,25.1661 53.3695,13.0169 62.0475,9.5458 68.5559,8.678 80.7051,9.5458 85.9119,13.4508 94.5898,23.8644 107.6068,45.5593 111.5119,59.4441 111.5119,71.5932 110.2102,79.8373 101.0983,96.3254 87.6475,108.4746 76.8,114.5492 65.0847,118.4542 44.6915,119.322 38.1831,118.0203 27.7695,112.8136 22.9966,108.4746 16.4881,101.0983 11.2814,91.5525 9.1119,78.5356 8.678,58.5763 12.1492,50.3322 17.3559,45.1254" stroke="#00007f" stroke-width="2" /><polyline fill="none" points="62.9153,12.1492 59.878,14.3186 42.522,48.1627 35.1458,72.461 35.1458,99.3627 39.9186,114.5492 42.0881,117.5864" stroke="#7cff79" stroke-width="2" /><polyline fill="none" points="79.8373,10.4136 78.1017,16.922 66.8203,44.2576 63.3492,57.2746 62.0475,99.3627 65.5186,111.078" stroke="#7f0000" stroke-width="2" /></svg>