<?xml version="1.0" encoding="utf-8" ?>
<svg baseProfile="tiny" height="128" version="1.2" viewBox="0,0,128,128" width="128" xmlns="http://www.w3.org/2000/svg" xmlns:ev="http://www.w3.org/2001/xml-events" xmlns:xlink="http://www.w3.org/1999/xlink"><defs /><polyline fill="none" points="62.9153,8.678 50.3322,10.8475 39.4847,17.7898 28.2034,27.7695 15.6203,42.522 10.8475,52.5017 8.678,63.7831 8.678,89.3831 10.8475,95.0237 18.6576,105.8712 29.939,114.5492 43.8237,118.4542 68.122,119.322 75.4983,115.8508 90.2508,105.8712 97.6271,99.7966 106.739,86.7797 116.2847,63.7831 116.2847,49.4644 114.5492,42.0881 103.2678,25.1661 92.4203,15.6203 74.6305,10.8475 62.9153,10.8475" stroke="#00007f" stroke-width="2" /><polyline fill="none" points="29.0712,31.2407 33.4102,39.4847 35.5797,47.7288 39.0508,74.1966 39.0508,91.9864 35.5797,101.5322" stroke="#7cff79" stroke-width="2" /><polyline fill="none" points="86.3458,15.1864 83.3085,18.2237 78.5356,39.4847 77.2339,52.9356 77.2339,77.6678 83.3085,91.1186 94.1559,98.9288" stroke="#7f0000" stroke-width="2" /></svg>