<?xml version="1.0" encoding="utf-8" ?>
<svg baseProfile="tiny" height="128" version="1.2" viewBox="0,0,128,128" width="128" xmlns="http://www.w3.org/2000/svg" xmlns:ev="http://www.w3.org/2001/xml-events" xmlns:xlink="http://www.w3.org/1999/xlink"><defs /><polyline fill="none" points="104.5695,14.3186 52.0678,8.678 41.2203,12.5831 28.2034,21.261 20.3932,28.6373 11.2814,45.5593 8.678,55.9729 9.5458,60.3119 13.8847,67.6881 19.5254,73.7627 39.4847,85.478 52.9356,91.1186 72.8949,95.0237 85.0441,94.1559 111.5119,87.6475 115.4169,81.139 118.0203,74.6305 118.8881,67.6881 119.322,29.0712 111.078,16.4881 105.0034,13.0169 96.7593,12.1492" stroke="#00007f" stroke-width="2" /><polyline fill="none" points="49.8983,9.9797 47.7288,13.8847 32.1085,24.2983 31.2407,26.0339 28.6373,37.7492 30.3729,43.8237 29.5051,60.7458 30.3729,75.9322" stroke="#0000ff" stroke-width="2" /><polyline fill="none" points="88.5153,91.1186 98.4949,68.5559 104.5695,29.939 104.5695,20.8271 102.8339,15.1864 98.4949,11.2814" stroke="#0080ff" stroke-width="2" /><polyline fill="none" points="100.6644,24.7322 108.0407,25.1661" stroke="#15ffe1" stroke-width="2" /><polyline fill="none" points="96.3254,33.8441 109.7763,34.278" stroke="#7cff79" stroke-width="2" /><polyline fill="none" points="97.6271,41.2203 106.3051,40.7864" stroke="#e4ff12" stroke-width="2" /><polyline fill="none" points="94.5898,51.6339 100.2305,52.9356 103.7017,52.0678" stroke="#ff9400" stroke-width="2" /><polyline fill="none" points="90.6847,66.3864 107.1729,68.122" stroke="#ff1d00" stroke-width="2" /><polyline fill="none" points="87.6475,81.139 106.739,85.0441" stroke="#7f0000" stroke-width="2" /></svg>