<?xml version="1.0" encoding="utf-8" ?>
<svg baseProfile="tiny" height="128" version="1.2" viewBox="0,0,128,128" width="128" xmlns="http://www.w3.org/2000/svg" xmlns:ev="http://www.w3.org/2001/xml-events" xmlns:xlink="http://www.w3.org/1999/xlink"><defs /><polyline fill="none" points="42.522,10.4136 31.2407,15.1864 19.5254,29.939 12.1492,45.9932 9.5458,56.4068 8.678,86.3458 11.7153,95.8915 22.1288,105.8712 29.939,109.3424 54.6712,109.7763 95.0237,87.2136 106.739,74.1966 112.3797,64.2169 117.1525,40.7864 116.7186,30.3729 114.5492,26.0339 108.4746,20.3932 86.3458,11.2814 79.8373,10.4136 62.0475,8.678 53.3695,9.5458 48.5966,13.8847 44.2576,21.6949 40.7864,32.9763" stroke="#00007f" stroke-width="2" /><polyline fill="none" points="119.322,26.9017 102.4,32.9763 93.2881,39.4847 96.7593,43.3898 96.7593,75.4983 95.0237,83.3085 84.1763,104.1356 85.478,107.6068" stroke="#7cff79" stroke-width="2" /><polyline fill="none" points="34.7119,22.1288 40.7864,39.4847 42.522,55.1051 36.8814,79.4034 32.9763,90.2508" stroke="#7f0000" stroke-width="2" /></svg>