<?xml version="1.0" encoding="utf-8" ?>
<svg baseProfile="tiny" height="128" version="1.2" viewBox="0,0,128,128" width="128" xmlns="http://www.w3.org/2000/svg" xmlns:ev="http://www.w3.org/2001/xml-events" xmlns:xlink="http://www.w3.org/1999/xlink"><defs /><polyline fill="none" points="45.9932,13.0169 34.7119,10.8475 26.4678,11.2814 18.6576,17.7898 12.5831,26.4678 9.1119,40.3525 8.678,54.2373 11.7153,62.0475 18.6576,70.7254 43.8237,88.9492 55.9729,95.8915 65.5186,99.7966 75.4983,101.5322 87.2136,100.2305 102.4,94.1559 112.3797,86.3458 117.5864,78.9695 119.322,72.0271 118.4542,62.9153 107.6068,47.7288 84.6102,29.0712 57.7085,16.0542 45.5593,13.4508" stroke="#00007f" stroke-width="2" /><polyline fill="none" points="34.278,8.678 39.9186,13.4508 50.7661,27.7695 62.4814,54.2373 64.2169,66.3864 64.2169,83.7424 59.0102,91.9864" stroke="#7cff79" stroke-width="2" /><polyline fill="none" points="94.5898,101.5322 87.2136,95.0237 81.5729,82.8746 78.1017,60.3119 80.2712,44.6915 87.2136,34.7119" stroke="#7f0000" stroke-width="2" /></svg>