<?xml version="1.0" encoding="utf-8" ?>
<svg baseProfile="tiny" height="128" version="1.2" viewBox="0,0,128,128" width="128" xmlns="http://www.w3.org/2000/svg" xmlns:ev="http://www.w3.org/2001/xml-events" xmlns:xlink="http://www.w3.org/1999/xlink"><defs /><polyline fill="none" points="86.3458,30.8068 84.1763,25.6 79.8373,20.3932 65.5186,11.2814 48.1627,8.678 32.9763,14.3186 22.9966,23.4305 13.8847,39.4847 8.678,66.3864 9.1119,79.4034 11.2814,88.0814 17.3559,101.0983 30.3729,116.2847 40.3525,119.322 50.7661,119.322 58.5763,116.2847 65.9525,111.5119 73.3288,104.5695 82.4407,92.8542 88.0814,82.8746 92.8542,69.4237 94.1559,59.878 94.1559,46.4271 85.478,23.4305" stroke="#00007f" stroke-width="2" /><polyline fill="none" points="33.4102,13.4508 32.5424,15.1864 36.4475,24.2983 38.1831,34.278 39.4847,53.3695 31.2407,77.6678 26.0339,87.2136 19.0915,95.0237" stroke="#0028ff" stroke-width="2" /><polyline fill="none" points="26.4678,86.3458 24.2983,87.2136 13.4508,102.8339" stroke="#00d4ff" stroke-width="2" /><polyline fill="none" points="84.1763,18.6576 82.4407,22.5627 74.1966,29.0712 67.2542,37.7492 62.0475,50.3322 60.7458,61.6136 62.0475,70.7254 71.5932,88.5153 79.4034,96.3254 82.8746,98.4949 87.6475,98.4949" stroke="#7cff79" stroke-width="2" /><polyline fill="none" points="57.7085,55.1051 72.8949,55.9729" stroke="#ffe500" stroke-width="2" /><polyline fill="none" points="27.3356,54.6712 44.6915,54.6712" stroke="#ff4600" stroke-width="2" /><polyline fill="none" points="55.539,33.8441 81.5729,36.8814" stroke="#7f0000" stroke-width="2" /></svg>