<?xml version="1.0" encoding="utf-8" ?>
<svg baseProfile="tiny" height="128" version="1.2" viewBox="0,0,128,128" width="128" xmlns="http://www.w3.org/2000/svg" xmlns:ev="http://www.w3.org/2001/xml-events" xmlns:xlink="http://www.w3.org/1999/xlink"><defs /><polyline fill="none" points="39.9186,14.7525 60.3119,8.678 99.7966,8.678 107.1729,14.7525 111.078,20.8271 118.0203,36.4475 119.322,44.6915 119.322,75.9322 118.0203,84.1763 113.2475,91.5525 84.1763,100.2305 37.7492,101.0983 19.5254,90.2508 13.4508,84.1763 8.678,75.0644 8.678,49.8983 12.1492,35.1458 18.2237,29.0712 25.6,26.9017 39.9186,18.2237 67.6881,9.9797" stroke="#00007f" stroke-width="2" /><polyline fill="none" points="29.0712,16.922 29.0712,43.3898 35.1458,49.4644 44.6915,54.2373 67.2542,58.1424 77.2339,58.1424 88.0814,55.539 94.1559,50.7661 111.078,43.3898" stroke="#00d4ff" stroke-width="2" /><polyline fill="none" points="18.2237,89.3831 36.4475,84.6102 58.1424,74.6305 64.2169,73.7627 82.0068,73.7627 94.1559,79.8373 108.4746,96.3254" stroke="#ffe500" stroke-width="2" /><polyline fill="none" points="108.4746,95.4576 108.4746,95.4576" stroke="#7f0000" stroke-width="2" /></svg>