<?xml version="1.0" encoding="utf-8" ?>
<svg baseProfile="tiny" height="128" version="1.2" viewBox="0,0,128,128" width="128" xmlns="http://www.w3.org/2000/svg" xmlns:ev="http://www.w3.org/2001/xml-events" xmlns:xlink="http://www.w3.org/1999/xlink"><defs /><polyline fill="none" points="95.0237,65.9525 92.8542,65.5186 92.8542,64.2169 95.4576,59.878 99.3627,56.4068 105.8712,53.3695 114.5492,55.539 119.322,62.0475 118.4542,66.3864 114.1153,70.2915 102.4,73.7627 98.9288,73.7627 95.8915,71.1593 95.0237,63.7831" stroke="#00007f" stroke-width="2" /><polyline fill="none" points="104.1356,54.2373 104.1356,62.4814 105.8712,64.6508" stroke="#0028ff" stroke-width="2" /><polyline fill="none" points="105.8712,62.9153 108.9085,69.8576 113.2475,70.7254" stroke="#00d4ff" stroke-width="2" /><polyline fill="none" points="20.3932,65.5186 30.8068,36.0136 39.4847,22.5627 49.0305,13.8847 57.7085,9.5458 65.5186,8.678 68.5559,12.5831 66.8203,25.6 61.1797,39.0508 43.3898,60.7458 36.8814,67.2542 27.3356,72.8949 25.6,88.0814 22.1288,93.2881 17.7898,95.8915 12.1492,95.8915 9.5458,95.0237 8.678,92.4203 8.678,86.7797 12.5831,78.1017 17.3559,69.4237 22.1288,63.7831" stroke="#7cff79" stroke-width="2" /><polyline fill="none" points="21.261,63.7831 24.7322,69.8576 29.939,71.1593" stroke="#ffe500" stroke-width="2" /><polyline fill="none" points="45.1254,16.0542 55.1051,26.0339 68.5559,36.0136" stroke="#ff4600" stroke-width="2" /><polyline fill="none" points="34.278,24.2983 49.0305,52.0678" stroke="#7f0000" stroke-width="2" /></svg>