<?xml version="1.0" encoding="utf-8" ?>
<svg baseProfile="tiny" height="128" version="1.2" viewBox="0,0,128,128" width="128" xmlns="http://www.w3.org/2000/svg" xmlns:ev="http://www.w3.org/2001/xml-events" xmlns:xlink="http://www.w3.org/1999/xlink"><defs /><polyline fill="none" points="65.0922,9.6109 51.5495,10.0478 31.8908,14.4164 20.0956,23.1536 12.2321,34.5119 9.6109,41.5017 8.7372,59.8498 10.0478,69.8976 13.9795,80.8191 20.5324,90.8669 25.3379,94.7986 34.5119,101.3515 45.4334,105.2833 53.7338,106.5939 63.3447,106.157 76.8874,103.099 87.372,97.8567 93.9249,92.6143 110.5256,73.8294 117.0785,59.413 119.2628,49.802 119.2628,40.628 116.2048,29.7065 112.7099,24.4642 106.5939,19.2218 87.8089,12.2321 61.1604,8.7372" stroke="#00007f" stroke-width="2" /><polyline fill="none" points="38.8805,12.6689 43.2491,20.5324 50.2389,75.1399 44.1229,89.9932 37.57,100.041 31.0171,106.157 27.959,107.4676" stroke="#7cff79" stroke-width="2" /><polyline fill="none" points="72.0819,10.4846 66.4027,29.2696 66.4027,49.3652 76.4505,76.0137 87.372,96.1092" stroke="#7f0000" stroke-width="2" /></svg>