<?xml version="1.0" encoding="utf-8" ?>
<svg baseProfile="tiny" height="128" version="1.2" viewBox="0,0,128,128" width="128" xmlns="http://www.w3.org/2000/svg" xmlns:ev="http://www.w3.org/2001/xml-events" xmlns:xlink="http://www.w3.org/1999/xlink"><defs /><polyline fill="none" points="40.3525,37.3153 24.7322,39.0508 19.0915,41.6542 12.5831,47.7288 10.8475,51.6339 8.678,64.6508 8.678,75.4983 11.7153,83.3085 26.4678,101.9661 40.3525,114.1153 49.8983,117.5864 63.3492,119.322 73.3288,119.322 80.2712,116.2847 84.6102,113.6814 91.9864,103.2678 96.7593,92.4203 101.9661,71.5932 104.1356,43.3898 98.4949,29.5051 92.4203,22.9966 85.478,18.2237 78.5356,15.6203 62.0475,15.1864 55.539,17.7898 51.6339,20.8271 32.5424,41.6542" stroke="#00007f" stroke-width="2" /><polyline fill="none" points="14.3186,46.4271 26.4678,29.939 46.4271,10.8475 52.5017,8.678 60.3119,8.678 68.5559,14.3186" stroke="#00d4ff" stroke-width="2" /><polyline fill="none" points="35.5797,18.6576 35.5797,66.3864 32.5424,84.1763 30.3729,90.6847 27.7695,94.1559 20.8271,97.1932 18.6576,95.4576" stroke="#ffe500" stroke-width="2" /><polyline fill="none" points="75.4983,14.7525 74.6305,39.9186 78.9695,51.2 93.2881,72.8949" stroke="#7f0000" stroke-width="2" /></svg>