<?xml version="1.0" encoding="utf-8" ?>
<svg baseProfile="tiny" height="128" version="1.2" viewBox="0,0,128,128" width="128" xmlns="http://www.w3.org/2000/svg" xmlns:ev="http://www.w3.org/2001/xml-events" xmlns:xlink="http://www.w3.org/1999/xlink"><defs /><polyline fill="none" points="75.4983,8.678 42.0881,21.6949 31.2407,27.3356 22.9966,33.8441 13.0169,50.7661 8.678,68.5559 9.9797,83.3085 13.0169,92.4203 20.3932,105.4373 25.1661,110.2102 32.9763,113.6814 43.8237,114.5492 58.1424,111.078 70.2915,103.7017 82.0068,92.8542 91.5525,79.4034 96.7593,67.6881 98.061,58.5763 94.5898,46.4271 86.7797,30.3729 78.5356,20.3932 68.122,14.3186" stroke="#00007f" stroke-width="2" /><polyline fill="none" points="43.3898,29.939 37.7492,38.1831 32.1085,55.1051 31.6746,119.322" stroke="#00d4ff" stroke-width="2" /><polyline fill="none" points="42.0881,39.4847 48.5966,21.6949" stroke="#ffe500" stroke-width="2" /><polyline fill="none" points="65.5186,12.5831 62.9153,19.5254 55.539,59.4441 48.5966,99.3627 47.7288,111.078" stroke="#7f0000" stroke-width="2" /></svg>