<?xml version="1.0" encoding="utf-8" ?>
<svg baseProfile="tiny" height="128" version="1.2" viewBox="0,0,128,128" width="128" xmlns="http://www.w3.org/2000/svg" xmlns:ev="http://www.w3.org/2001/xml-events" xmlns:xlink="http://www.w3.org/1999/xlink"><defs /><polyline fill="none" points="68.587,17.9113 51.9863,12.2321 30.1433,11.3584 21.843,13.9795 16.1638,17.9113 11.3584,23.1536 8.7372,29.2696 8.7372,42.3754 11.7952,49.3652 17.9113,56.7918 31.4539,67.7133 44.9966,71.6451 57.6655,70.7713 68.587,64.2184 72.9556,59.413 78.6348,47.1809 78.6348,33.2014 72.5188,21.4061 65.9659,15.727 49.802,8.7372" stroke="#00007f" stroke-width="2" /><polyline fill="none" points="16.6007,17.0375 24.4642,23.1536 28.8328,28.3959 36.6962,39.3174 41.9386,50.6758 42.3754,59.413 37.57,66.4027 33.6382,68.587" stroke="#0080ff" stroke-width="2" /><polyline fill="none" points="62.0341,17.0375 64.6553,13.1058 61.5973,13.9795 58.5392,16.6007 55.4812,21.843 52.8601,35.3857 54.6075,48.4915 63.3447,72.5188" stroke="#7cff79" stroke-width="2" /><polyline fill="none" points="93.9249,76.4505 96.1092,64.2184 98.2935,64.2184 103.099,76.8874 100.9147,74.2662 91.3038,73.3925" stroke="#ff9400" stroke-width="2" /><polyline fill="none" points="114.4573,64.6553 112.7099,65.529 111.3993,69.4608 112.273,79.0717 114.0205,81.6928 117.9522,80.8191 119.2628,74.7031 113.5836,80.8191 109.215,80.8191" stroke="#7f0000" stroke-width="2" /></svg>