<?xml version="1.0" encoding="utf-8" ?>
<svg baseProfile="tiny" height="128" version="1.2" viewBox="0,0,128,128" width="128" xmlns="http://www.w3.org/2000/svg" xmlns:ev="http://www.w3.org/2001/xml-events" xmlns:xlink="http://www.w3.org/1999/xlink"><defs /><polyline fill="none" points="111.9458,24.2983 101.9661,16.922 89.3831,10.8475 73.7627,8.678 62.0475,8.678 54.6712,10.8475 38.6169,18.2237 32.5424,22.5627 27.7695,27.3356 24.2983,32.5424 11.2814,61.6136 9.5458,68.9898 8.678,83.7424 9.1119,91.1186 12.5831,97.6271 18.2237,103.7017 32.5424,109.3424 49.8983,112.3797 61.6136,112.8136 68.122,111.9458 84.1763,106.739 105.8712,96.7593 112.8136,89.3831 116.7186,81.139 119.322,64.6508 119.322,48.1627 114.5492,32.9763 106.739,17.3559 105.0034,16.922" stroke="#00007f" stroke-width="2" /><polyline fill="none" points="44.2576,14.3186 45.5593,24.2983 45.9932,48.1627 43.3898,60.3119 32.1085,91.9864 19.9593,118.4542" stroke="#7cff79" stroke-width="2" /><polyline fill="none" points="102.8339,18.6576 91.9864,46.4271 86.7797,65.0847 85.0441,77.6678 85.0441,96.3254 87.6475,105.0034" stroke="#7f0000" stroke-width="2" /></svg>