<?xml version="1.0" encoding="utf-8" ?>
<svg baseProfile="tiny" height="128" version="1.2" viewBox="0,0,128,128" width="128" xmlns="http://www.w3.org/2000/svg" xmlns:ev="http://www.w3.org/2001/xml-events" xmlns:xlink="http://www.w3.org/1999/xlink"><defs /><polyline fill="none" points="104.5695,29.5051 101.5322,22.1288 79.8373,12.5831 60.3119,8.678 46.861,8.678 35.5797,13.4508 31.6746,16.0542 19.5254,33.8441 10.8475,56.8407 8.678,66.8203 9.5458,87.6475 22.9966,106.739 29.0712,112.8136 43.3898,118.0203 50.7661,118.0203 54.2373,119.322 78.9695,119.322 85.9119,115.8508 95.4576,107.1729 100.2305,100.2305 110.6441,75.0644 113.6814,56.8407 113.6814,42.0881 111.078,31.2407 107.1729,24.2983" stroke="#00007f" stroke-width="2" /><polyline fill="none" points="41.2203,13.4508 47.2949,38.6169 47.2949,77.2339 43.8237,88.0814 31.2407,105.0034" stroke="#7cff79" stroke-width="2" /><polyline fill="none" points="88.0814,18.2237 78.1017,78.5356 78.1017,95.4576 82.0068,109.7763" stroke="#7f0000" stroke-width="2" /></svg>