<?xml version="1.0" encoding="utf-8" ?>
<svg baseProfile="tiny" height="128" version="1.2" viewBox="0,0,128,128" width="128" xmlns="http://www.w3.org/2000/svg" xmlns:ev="http://www.w3.org/2001/xml-events" xmlns:xlink="http://www.w3.org/1999/xlink"><defs /><polyline fill="none" points="35.5797,82.4407 32.9763,80.2712 30.3729,75.0644 26.9017,63.3492 26.4678,52.0678 29.0712,34.278 40.3525,22.9966 46.4271,18.2237 63.3492,11.2814 87.2136,8.678 101.0983,8.678 105.8712,12.5831 111.078,24.2983 112.3797,29.939 111.5119,56.8407 107.1729,72.0271 101.9661,78.5356 88.9492,84.1763 79.8373,86.7797 61.1797,88.5153 45.9932,88.5153 35.5797,85.478 33.4102,82.8746 33.4102,74.1966" stroke="#00007f" stroke-width="2" /><polyline fill="none" points="63.7831,11.2814 57.2746,41.6542 47.2949,73.3288 39.4847,83.7424 26.9017,93.2881" stroke="#00d4ff" stroke-width="2" /><polyline fill="none" points="73.7627,11.7153 78.1017,18.6576 82.8746,42.522 91.5525,65.0847 95.0237,68.9898 104.5695,75.9322 119.322,81.5729" stroke="#ffe500" stroke-width="2" /><polyline fill="none" points="79.8373,70.7254 36.4475,97.6271 23.8644,102.8339 10.8475,105.0034 8.678,102.8339 9.1119,95.0237 16.4881,83.3085 31.6746,72.461 49.0305,67.2542 85.0441,65.5186 99.3627,67.2542 110.2102,72.0271 114.1153,75.9322 114.5492,79.4034" stroke="#7f0000" stroke-width="2" /></svg>