<?xml version="1.0" encoding="utf-8" ?>
<svg baseProfile="tiny" height="128" version="1.2" viewBox="0,0,128,128" width="128" xmlns="http://www.w3.org/2000/svg" xmlns:ev="http://www.w3.org/2001/xml-events" xmlns:xlink="http://www.w3.org/1999/xlink"><defs /><polyline fill="none" points="58.5763,109.3424 49.8983,111.078 37.7492,110.6441 29.0712,107.6068 20.8271,101.9661 13.8847,92.8542 10.4136,84.1763 8.678,72.8949 9.5458,61.6136 13.8847,45.5593 16.4881,40.3525 22.5627,30.8068 29.939,23.4305 49.0305,13.0169 60.3119,9.9797 71.5932,8.678 91.1186,13.4508 99.3627,18.6576 106.739,25.6 114.9831,37.3153 118.0203,45.1254 119.322,60.3119 118.4542,71.1593 115.8508,82.0068 109.7763,96.3254 102.4,106.3051 91.1186,113.2475 83.7424,114.1153 72.0271,111.078" stroke="#00007f" stroke-width="2" /><polyline fill="none" points="35.5797,19.9593 37.3153,20.3932" stroke="#00d4ff" stroke-width="2" /><polyline fill="none" points="37.3153,19.0915 47.2949,25.6 50.3322,32.1085 48.5966,48.1627 57.2746,83.7424 58.5763,96.3254 57.2746,104.1356 49.8983,114.9831" stroke="#ffe500" stroke-width="2" /><polyline fill="none" points="88.0814,26.0339 88.0814,22.9966 91.5525,16.0542 91.1186,14.7525 86.3458,16.4881 79.8373,22.1288 72.8949,35.5797 68.9898,51.2 66.8203,70.7254 68.9898,117.5864" stroke="#7f0000" stroke-width="2" /></svg>