<?xml version="1.0" encoding="utf-8" ?>
<svg baseProfile="tiny" height="128" version="1.2" viewBox="0,0,128,128" width="128" xmlns="http://www.w3.org/2000/svg" xmlns:ev="http://www.w3.org/2001/xml-events" xmlns:xlink="http://www.w3.org/1999/xlink"><defs /><polyline fill="none" points="80.2712,23.4305 71.5932,17.3559 60.7458,12.5831 42.0881,8.678 31.2407,9.5458 27.3356,14.3186 19.9593,28.6373 10.4136,55.539 8.678,66.3864 9.5458,83.7424 12.1492,91.1186 15.6203,96.7593 27.3356,107.6068 42.522,115.4169 54.2373,119.322 57.2746,119.322 65.0847,115.4169 78.5356,105.0034 85.0441,95.8915 88.5153,84.1763 89.8169,72.8949 88.5153,65.9525 80.2712,49.0305 72.0271,22.5627" stroke="#00007f" stroke-width="2" /><polyline fill="none" points="67.6881,21.261 62.4814,36.8814 62.9153,57.7085 67.2542,70.7254 80.2712,93.722" stroke="#7cff79" stroke-width="2" /><polyline fill="none" points="18.6576,34.278 23.4305,44.6915 25.1661,59.0102 20.8271,88.0814 13.8847,105.8712" stroke="#7f0000" stroke-width="2" /></svg>