<?xml version="1.0" encoding="utf-8" ?>
<svg baseProfile="tiny" height="128" version="1.2" viewBox="0,0,128,128" width="128" xmlns="http://www.w3.org/2000/svg" xmlns:ev="http://www.w3.org/2001/xml-events" xmlns:xlink="http://www.w3.org/1999/xlink"><defs /><polyline fill="none" points="105.0034,37.3153 106.3051,31.6746 106.3051,19.9593 101.5322,13.0169 95.4576,9.9797 87.2136,8.678 64.6508,8.678 52.5017,9.9797 41.6542,13.4508 32.5424,19.0915 24.2983,25.6 18.6576,33.8441 11.2814,54.2373 9.1119,65.5186 8.678,86.3458 11.7153,96.7593 15.1864,105.0034 21.6949,112.3797 29.0712,116.7186 38.1831,119.322 58.5763,119.322 86.7797,108.4746 102.8339,98.4949 110.6441,86.7797 111.9458,69.4237 110.6441,58.1424 102.4,25.1661 98.9288,14.7525 95.4576,13.4508" stroke="#00007f" stroke-width="2" /><polyline fill="none" points="26.4678,94.1559 28.2034,91.5525 30.3729,78.9695 34.278,70.7254 49.0305,52.9356 67.2542,39.4847 79.4034,33.8441 93.722,29.939" stroke="#0028ff" stroke-width="2" /><polyline fill="none" points="29.0712,52.5017 30.8068,56.4068 45.9932,71.5932 53.3695,76.3661" stroke="#00d4ff" stroke-width="2" /><polyline fill="none" points="55.9729,32.1085 54.6712,35.1458 55.539,39.4847 61.6136,48.5966 65.9525,51.6339" stroke="#7cff79" stroke-width="2" /><polyline fill="none" points="71.1593,27.3356 82.8746,39.4847" stroke="#ffe500" stroke-width="2" /><polyline fill="none" points="19.0915,75.4983 30.3729,87.2136 39.0508,92.4203" stroke="#ff4600" stroke-width="2" /><polyline fill="none" points="42.0881,42.9559 47.2949,45.1254 56.8407,53.8034" stroke="#7f0000" stroke-width="2" /></svg>