<?xml version="1.0" encoding="utf-8" ?>
<svg baseProfile="tiny" height="128" version="1.2" viewBox="0,0,128,128" width="128" xmlns="http://www.w3.org/2000/svg" xmlns:ev="http://www.w3.org/2001/xml-events" xmlns:xlink="http://www.w3.org/1999/xlink"><defs /><polyline fill="none" points="85.478,72.0271 85.478,72.0271" stroke="#00007f" stroke-width="2" /><polyline fill="none" points="95.8915,29.939 88.0814,19.9593 75.0644,10.8475 46.4271,8.678 37.7492,12.1492 27.3356,19.5254 15.1864,36.0136 9.9797,51.6339 8.678,72.8949 12.1492,82.8746 21.261,100.2305 27.7695,108.0407 33.8441,113.6814 42.0881,118.0203 51.2,119.322 72.8949,119.322 89.3831,110.2102 95.8915,103.7017 103.7017,91.5525 107.1729,77.6678 108.0407,52.0678 105.8712,46.861 99.3627,39.4847 82.8746,31.2407" stroke="#00d4ff" stroke-width="2" /><polyline fill="none" points="32.5424,14.3186 49.0305,42.522 54.6712,55.1051 56.4068,65.0847 56.4068,77.6678 41.2203,98.061 29.939,108.0407" stroke="#ffe500" stroke-width="2" /><polyline fill="none" points="94.5898,21.261 85.9119,27.3356 76.8,39.4847 68.5559,57.2746 67.2542,70.7254 68.122,88.5153 90.2508,118.0203" stroke="#7f0000" stroke-width="2" /></svg>