<?xml version="1.0" encoding="utf-8" ?>
<svg baseProfile="tiny" height="128" version="1.2" viewBox="0,0,128,128" width="128" xmlns="http://www.w3.org/2000/svg" xmlns:ev="http://www.w3.org/2001/xml-events" xmlns:xlink="http://www.w3.org/1999/xlink"><defs /><polyline fill="none" points="92.4203,16.0542 70.2915,9.1119 46.4271,9.1119 37.3153,13.8847 29.5051,19.9593 20.3932,29.939 10.8475,50.7661 8.678,61.6136 8.678,82.0068 10.8475,91.9864 15.1864,99.3627 21.6949,106.739 30.3729,112.3797 41.2203,115.8508 55.539,118.0203 68.9898,118.0203 82.4407,114.5492 95.0237,107.6068 104.5695,97.6271 111.9458,86.7797 115.8508,77.2339 117.5864,67.6881 117.5864,48.5966 114.5492,39.0508 107.1729,23.4305 100.2305,13.4508 95.4576,10.4136 83.3085,9.1119 74.6305,12.1492" stroke="#00007f" stroke-width="2" /><polyline fill="none" points="16.4881,62.9153 38.1831,56.4068 65.9525,55.539 90.6847,59.4441 101.5322,62.9153 111.9458,68.5559 114.5492,72.0271" stroke="#0010ff" stroke-width="2" /><polyline fill="none" points="51.6339,53.3695 50.3322,37.3153 45.1254,21.261 37.3153,9.1119 35.5797,12.1492" stroke="#00a4ff" stroke-width="2" /><polyline fill="none" points="73.3288,55.9729 77.6678,46.861 86.7797,16.4881 92.4203,8.678 94.5898,8.678" stroke="#3fffb7" stroke-width="2" /><polyline fill="none" points="97.1932,53.3695 95.0237,49.8983 97.1932,42.9559 102.4,36.8814 111.9458,30.8068" stroke="#b7ff3f" stroke-width="2" /><polyline fill="none" points="45.1254,59.4441 46.4271,89.8169 34.7119,119.322" stroke="#ffb900" stroke-width="2" /><polyline fill="none" points="74.6305,55.539 73.3288,59.4441 70.2915,99.7966 72.461,112.3797 78.1017,117.5864" stroke="#ff3000" stroke-width="2" /><polyline fill="none" points="85.0441,51.6339 84.6102,62.4814 86.7797,78.1017 93.2881,97.1932" stroke="#7f0000" stroke-width="2" /></svg>