<?xml version="1.0" encoding="utf-8" ?>
<svg baseProfile="tiny" height="128" version="1.2" viewBox="0,0,128,128" width="128" xmlns="http://www.w3.org/2000/svg" xmlns:ev="http://www.w3.org/2001/xml-events" xmlns:xlink="http://www.w3.org/1999/xlink"><defs /><polyline fill="none" points="65.0847,16.4881 53.3695,19.5254 32.9763,29.0712 19.0915,40.3525 11.7153,52.5017 8.678,63.3492 9.9797,80.2712 17.3559,94.1559 24.7322,100.2305 43.3898,103.7017 51.6339,103.7017 60.3119,101.0983 73.7627,92.4203 78.5356,82.0068 82.8746,53.8034 82.4407,26.9017 77.6678,17.7898 72.8949,13.0169 59.878,9.5458 48.1627,8.678" stroke="#00007f" stroke-width="2" /><polyline fill="none" points="23.8644,30.8068 32.5424,54.2373 34.278,62.9153 34.278,75.0644 28.2034,88.5153 18.6576,101.9661" stroke="#7cff79" stroke-width="2" /><polyline fill="none" points="72.0271,25.6 57.2746,50.7661 47.7288,80.2712 44.6915,99.3627 44.6915,110.2102 47.7288,116.2847 52.9356,119.322" stroke="#7f0000" stroke-width="2" /></svg>