<?xml version="1.0" encoding="utf-8" ?>
<svg baseProfile="tiny" height="128" version="1.2" viewBox="0,0,128,128" width="128" xmlns="http://www.w3.org/2000/svg" xmlns:ev="http://www.w3.org/2001/xml-events" xmlns:xlink="http://www.w3.org/1999/xlink"><defs /><polyline fill="none" points="18.6576,36.4475 11.7153,48.5966 8.678,63.3492 11.2814,80.2712 22.1288,91.5525 28.6373,97.1932 40.3525,102.4 53.3695,106.3051 66.3864,106.739 89.8169,101.0983 97.1932,98.061 107.6068,88.5153 118.0203,67.6881 119.322,54.2373 111.5119,36.8814 104.5695,25.1661 80.7051,9.9797 71.1593,8.678 62.0475,9.5458 42.9559,17.7898 29.0712,32.9763" stroke="#00007f" stroke-width="2" /><polyline fill="none" points="25.6,26.9017 38.6169,36.0136 46.4271,48.1627 47.7288,62.0475 41.2203,80.7051 38.6169,92.8542" stroke="#7cff79" stroke-width="2" /><polyline fill="none" points="86.7797,19.9593 82.0068,34.278 81.5729,58.1424 83.3085,65.9525 94.1559,83.3085" stroke="#7f0000" stroke-width="2" /></svg>