<?xml version="1.0" encoding="utf-8" ?>
<svg baseProfile="tiny" height="128" version="1.2" viewBox="0,0,128,128" width="128" xmlns="http://www.w3.org/2000/svg" xmlns:ev="http://www.w3.org/2001/xml-events" xmlns:xlink="http://www.w3.org/1999/xlink"><defs /><polyline fill="none" points="62.0475,16.922 54.6712,19.0915 39.9186,26.4678 22.5627,41.2203 13.8847,55.539 9.1119,72.0271 8.678,80.2712 9.5458,87.6475 13.0169,98.4949 21.6949,108.4746 26.9017,112.3797 38.6169,117.5864 45.9932,118.8881 52.5017,119.322 67.2542,117.1525 81.5729,110.2102 87.2136,104.5695 92.4203,96.3254 95.8915,87.2136 97.1932,76.8 96.7593,65.5186 91.5525,30.3729 86.3458,14.7525 82.8746,10.8475 78.9695,8.678 68.9898,10.4136 57.7085,14.3186 49.0305,19.0915 47.2949,21.6949" stroke="#00007f" stroke-width="2" /><polyline fill="none" points="42.9559,28.2034 42.0881,29.939 44.6915,40.3525 45.5593,51.6339 39.0508,91.9864 22.9966,111.078" stroke="#7cff79" stroke-width="2" /><polyline fill="none" points="85.0441,18.2237 79.4034,24.7322 71.1593,42.522 65.5186,61.1797 62.4814,76.3661 62.4814,85.9119 67.6881,99.3627 77.6678,114.5492" stroke="#7f0000" stroke-width="2" /></svg>