<?xml version="1.0" encoding="utf-8" ?>
<svg baseProfile="tiny" height="128" version="1.2" viewBox="0,0,128,128" width="128" xmlns="http://www.w3.org/2000/svg" xmlns:ev="http://www.w3.org/2001/xml-events" xmlns:xlink="http://www.w3.org/1999/xlink"><defs /><polyline fill="none" points="41.2203,16.922 38.6169,15.6203 25.6,23.4305 16.0542,32.5424 13.4508,36.8814 9.1119,52.9356 8.678,74.1966 16.4881,91.1186 24.7322,101.5322 30.3729,105.8712 47.7288,116.2847 57.2746,119.322 64.6508,119.322 76.8,113.6814 83.7424,108.4746 88.9492,98.9288 92.8542,85.478 95.4576,71.5932 95.4576,60.7458 86.3458,42.0881 80.7051,35.5797 61.1797,22.5627 35.1458,10.8475 22.1288,8.678" stroke="#00007f" stroke-width="2" /><polyline fill="none" points="31.2407,25.6 31.2407,81.5729 25.1661,103.2678 18.6576,111.5119 16.0542,112.8136" stroke="#7cff79" stroke-width="2" /><polyline fill="none" points="81.139,31.6746 77.6678,34.7119 68.9898,55.1051 62.0475,83.7424 62.4814,102.4 68.5559,116.2847" stroke="#7f0000" stroke-width="2" /></svg>