<?xml version="1.0" encoding="utf-8" ?>
<svg baseProfile="tiny" height="128" version="1.2" viewBox="0,0,128,128" width="128" xmlns="http://www.w3.org/2000/svg" xmlns:ev="http://www.w3.org/2001/xml-events" xmlns:xlink="http://www.w3.org/1999/xlink"><defs /><polyline fill="none" points="80.7051,35.1458 72.8949,17.7898 62.0475,10.4136 49.0305,8.678 35.1458,13.8847 29.939,18.2237 24.7322,23.4305 16.0542,36.4475 10.4136,48.1627 8.678,60.7458 11.2814,75.0644 17.3559,89.3831 22.9966,95.8915 40.3525,109.7763 56.8407,116.7186 65.5186,118.4542 80.7051,119.322 91.1186,116.7186 105.4373,105.4373 110.6441,93.722 113.2475,81.139 113.2475,68.5559 110.6441,52.0678 105.4373,39.4847 98.061,29.5051 91.9864,24.2983 79.8373,19.0915 65.9525,16.4881" stroke="#00007f" stroke-width="2" /><polyline fill="none" points="49.8983,12.1492 54.2373,42.9559 54.2373,56.8407 50.7661,75.9322 43.8237,91.9864 39.4847,97.1932 34.278,100.6644 32.5424,95.4576" stroke="#0010ff" stroke-width="2" /><polyline fill="none" points="75.4983,19.9593 72.0271,34.7119 72.0271,47.2949 72.8949,61.1797 78.1017,81.5729 88.0814,97.6271 97.1932,105.8712 101.9661,106.3051" stroke="#00a4ff" stroke-width="2" /><polyline fill="none" points="29.939,40.3525 65.9525,35.1458" stroke="#3fffb7" stroke-width="2" /><polyline fill="none" points="43.8237,61.1797 57.7085,58.5763" stroke="#b7ff3f" stroke-width="2" /><polyline fill="none" points="43.8237,61.1797 37.7492,74.6305 42.0881,75.4983 53.3695,73.7627" stroke="#ffb900" stroke-width="2" /><polyline fill="none" points="35.1458,87.6475 39.4847,90.2508 48.1627,91.1186" stroke="#ff3000" stroke-width="2" /><polyline fill="none" points="65.0847,39.4847 65.0847,39.4847" stroke="#7f0000" stroke-width="2" /></svg>