<?xml version="1.0" encoding="utf-8" ?>
<svg baseProfile="tiny" height="128" version="1.2" viewBox="0,0,128,128" width="128" xmlns="http://www.w3.org/2000/svg" xmlns:ev="http://www.w3.org/2001/xml-events" xmlns:xlink="http://www.w3.org/1999/xlink"><defs /><polyline fill="none" points="93.2881,18.6576 84.6102,11.2814 73.3288,8.678 58.1424,9.9797 42.522,14.7525 34.278,18.6576 26.0339,26.4678 19.9593,34.278 12.5831,52.0678 8.678,66.3864 9.1119,72.8949 12.1492,78.9695 23.4305,91.9864 45.5593,109.7763 62.0475,115.4169 84.6102,115.4169 95.0237,113.6814 108.4746,107.6068 112.8136,102.8339 117.5864,93.2881 119.322,84.1763 119.322,67.2542 117.5864,56.8407 111.5119,43.3898 102.4,29.5051 97.6271,18.6576" stroke="#00007f" stroke-width="2" /><polyline fill="none" points="88.9492,15.1864 78.1017,50.7661 68.122,68.122 49.4644,85.0441 26.0339,98.9288" stroke="#0000ff" stroke-width="2" /><polyline fill="none" points="78.1017,30.8068 86.3458,30.3729" stroke="#0080ff" stroke-width="2" /><polyline fill="none" points="81.5729,23.8644 88.0814,37.7492" stroke="#15ffe1" stroke-width="2" /><polyline fill="none" points="82.0068,33.8441 92.4203,27.3356" stroke="#7cff79" stroke-width="2" /><polyline fill="none" points="70.2915,48.5966 76.8,54.2373" stroke="#e4ff12" stroke-width="2" /><polyline fill="none" points="72.8949,46.861 81.139,64.2169" stroke="#ff9400" stroke-width="2" /><polyline fill="none" points="68.9898,57.7085 76.8,53.8034" stroke="#ff1d00" stroke-width="2" /><polyline fill="none" points="59.0102,63.3492 59.4441,75.4983" stroke="#7f0000" stroke-width="2" /></svg>