<?xml version="1.0" encoding="utf-8" ?>
<svg baseProfile="tiny" height="128" version="1.2" viewBox="0,0,128,128" width="128" xmlns="http://www.w3.org/2000/svg" xmlns:ev="http://www.w3.org/2001/xml-events" xmlns:xlink="http://www.w3.org/1999/xlink"><defs /><polyline fill="none" points="95.3469,29.6054 88.381,24.8163 78.3673,24.8163 54.4218,40.0544 51.3741,49.6327 51.8095,55.7279 57.034,67.9184 62.2585,74.8844 74.0136,81.415 90.5578,80.9796 102.3129,74.8844 111.0204,67.0476 117.551,58.3401 119.2925,52.6803 118.8571,42.6667 113.6327,34.3946 109.7143,30.0408 103.1837,25.6871 95.3469,23.0748 91.8639,26.5578" stroke="#00007f" stroke-width="2" /><polyline fill="none" points="66.6122,31.7823 74.0136,38.7483 78.3673,48.3265 80.1088,63.1293 77.4966,71.4014 77.0612,76.6259 77.932,77.932 81.8503,74.449" stroke="#00d4ff" stroke-width="2" /><polyline fill="none" points="101.0068,24.381 91.8639,53.551 92.2993,62.2585 97.9592,75.7551" stroke="#ffe500" stroke-width="2" /><polyline fill="none" points="50.9388,13.0612 47.0204,18.2857 34.8299,43.9728 25.6871,67.0476 16.5442,95.7823 13.932,100.1361 8.7075,97.9592 10.0136,87.0748 23.9456,46.1497 18.7211,34.3946 18.2857,26.5578 20.4626,20.0272 25.2517,12.6259 32.6531,9.1429 41.7959,8.7075 45.2789,10.0136" stroke="#7f0000" stroke-width="2" /></svg>