<?xml version="1.0" encoding="utf-8" ?>
<svg baseProfile="tiny" height="128" version="1.2" viewBox="0,0,128,128" width="128" xmlns="http://www.w3.org/2000/svg" xmlns:ev="http://www.w3.org/2001/xml-events" xmlns:xlink="http://www.w3.org/1999/xlink"><defs /><polyline fill="none" points="83.7424,27.7695 69.8576,18.2237 63.7831,16.0542 49.0305,17.7898 37.7492,21.6949 26.0339,28.6373 21.6949,33.4102 17.7898,38.6169 11.2814,56.4068 9.1119,68.9898 8.678,84.6102 20.3932,107.1729 23.8644,111.5119 36.0136,116.7186 50.3322,119.322 70.2915,114.1153 78.5356,110.2102 91.9864,99.7966 96.7593,89.8169 97.1932,72.8949 94.1559,53.8034 80.7051,31.2407 73.3288,27.7695" stroke="#00007f" stroke-width="2" /><polyline fill="none" points="64.6508,8.678 50.3322,22.1288 40.3525,39.0508 36.4475,52.9356 36.0136,82.8746 38.1831,95.4576 47.2949,111.078 51.6339,117.1525 55.1051,118.8881" stroke="#00d4ff" stroke-width="2" /><polyline fill="none" points="45.9932,32.9763 53.8034,35.5797" stroke="#ffe500" stroke-width="2" /><polyline fill="none" points="40.7864,55.9729 50.3322,56.4068" stroke="#7f0000" stroke-width="2" /></svg>