<?xml version="1.0" encoding="utf-8" ?>
<svg baseProfile="tiny" height="128" version="1.2" viewBox="0,0,128,128" width="128" xmlns="http://www.w3.org/2000/svg" xmlns:ev="http://www.w3.org/2001/xml-events" xmlns:xlink="http://www.w3.org/1999/xlink"><defs /><polyline fill="none" points="47.7288,12.1492 34.7119,18.2237 23.8644,26.9017 14.3186,37.7492 9.1119,50.3322 8.678,84.6102 13.0169,100.6644 19.5254,110.6441 32.5424,116.7186 42.522,118.8881 62.9153,119.322 70.7254,116.7186 77.2339,112.8136 81.5729,107.6068 86.3458,92.8542 85.478,55.9729 83.3085,38.1831 78.1017,22.9966 71.5932,15.6203 66.3864,13.0169 57.2746,11.2814 45.9932,11.7153" stroke="#00007f" stroke-width="2" /><polyline fill="none" points="17.7898,42.522 22.1288,37.7492 31.2407,31.6746 41.6542,29.5051 54.6712,29.5051 60.7458,35.1458 63.7831,41.6542 63.7831,55.539 60.3119,62.9153 46.4271,76.3661 36.4475,82.8746 16.4881,92.8542 9.5458,98.9288 18.2237,98.9288 59.878,87.2136 64.2169,87.6475 65.9525,101.5322 68.9898,104.5695 83.3085,105.4373 90.6847,101.0983 93.722,97.6271" stroke="#0080ff" stroke-width="2" /><polyline fill="none" points="9.5458,62.0475 22.9966,55.1051 85.478,8.678" stroke="#7cff79" stroke-width="2" /><polyline fill="none" points="9.5458,94.1559 15.1864,91.9864 33.8441,81.5729 61.1797,62.0475 100.6644,30.3729" stroke="#ff9400" stroke-width="2" /><polyline fill="none" points="39.4847,111.078 67.6881,92.4203" stroke="#7f0000" stroke-width="2" /></svg>