<?xml version="1.0" encoding="utf-8" ?>
<svg baseProfile="tiny" height="128" version="1.2" viewBox="0,0,128,128" width="128" xmlns="http://www.w3.org/2000/svg" xmlns:ev="http://www.w3.org/2001/xml-events" xmlns:xlink="http://www.w3.org/1999/xlink"><defs /><polyline fill="none" points="37.8776,8.7075 19.1565,20.0272 9.5782,33.5238 8.7075,60.9524 24.381,82.7211 33.0884,88.8163 60.9524,96.6531 75.7551,95.3469 90.1224,91.4286 108.8435,82.7211 112.3265,80.5442 117.551,70.5306 119.2925,60.0816 115.8095,54.8571 116.2449,41.7959 114.5034,32.6531 110.1497,22.6395 104.0544,17.415 88.381,12.1905 68.3537,9.5782 41.3605,12.6259" stroke="#00007f" stroke-width="2" /><polyline fill="none" points="52.6803,13.4966 55.7279,23.5102 61.8231,36.5714 67.9184,61.3878 67.9184,66.1769 63.5646,74.8844 58.3401,80.5442 51.3741,93.1701" stroke="#7cff79" stroke-width="2" /><polyline fill="none" points="87.5102,11.3197 80.5442,33.0884 77.932,69.2245 78.8027,74.8844 84.4626,93.1701 96.6531,104.0544" stroke="#7f0000" stroke-width="2" /></svg>