<?xml version="1.0" encoding="utf-8" ?>
<svg baseProfile="tiny" height="128" version="1.2" viewBox="0,0,128,128" width="128" xmlns="http://www.w3.org/2000/svg" xmlns:ev="http://www.w3.org/2001/xml-events" xmlns:xlink="http://www.w3.org/1999/xlink"><defs /><polyline fill="none" points="83.3085,9.5458 66.3864,10.8475 47.7288,16.0542 33.4102,21.6949 16.922,32.5424 8.678,43.8237 8.678,51.2 11.2814,60.7458 20.3932,77.6678 32.1085,93.722 39.4847,98.4949 52.5017,101.9661 76.3661,93.722 104.5695,86.7797 116.7186,78.5356 119.322,73.3288 119.322,66.3864 107.1729,58.1424 107.6068,35.5797 102.8339,18.6576 99.3627,15.1864 95.8915,13.8847 78.9695,13.8847 75.4983,8.678" stroke="#00007f" stroke-width="2" /><polyline fill="none" points="75.4983,8.678 69.8576,31.6746 69.4237,59.0102 75.4983,69.4237 92.8542,77.2339 98.9288,84.1763" stroke="#7cff79" stroke-width="2" /><polyline fill="none" points="20.8271,26.4678 41.6542,41.2203 53.8034,56.8407 58.1424,65.5186 58.1424,71.5932 49.0305,88.9492 45.9932,100.2305" stroke="#7f0000" stroke-width="2" /></svg>