<?xml version="1.0" encoding="utf-8" ?>
<svg baseProfile="tiny" height="128" version="1.2" viewBox="0,0,128,128" width="128" xmlns="http://www.w3.org/2000/svg" xmlns:ev="http://www.w3.org/2001/xml-events" xmlns:xlink="http://www.w3.org/1999/xlink"><defs /><polyline fill="none" points="96.3254,23.4305 70.2915,11.2814 56.8407,8.678 42.0881,8.678 24.2983,20.3932 18.6576,26.9017 11.2814,42.522 8.678,55.539 8.678,68.122 16.0542,86.3458 29.5051,100.2305 39.9186,106.3051 51.6339,108.4746 79.8373,108.4746 85.0441,107.6068 99.3627,100.6644 105.0034,95.4576 110.2102,88.0814 116.7186,72.461 119.322,57.2746 119.322,46.4271 117.5864,39.9186 91.1186,20.3932" stroke="#00007f" stroke-width="2" /><polyline fill="none" points="88.9492,16.922 84.6102,21.261 78.9695,32.5424 72.0271,53.8034 71.5932,95.8915 73.7627,105.4373" stroke="#004cff" stroke-width="2" /><polyline fill="none" points="19.5254,24.2983 29.0712,41.6542 39.4847,68.5559 42.522,84.6102 42.522,101.9661" stroke="#29ffcd" stroke-width="2" /><polyline fill="none" points="26.9017,48.1627 36.4475,42.522 42.522,42.522" stroke="#cdff29" stroke-width="2" /><polyline fill="none" points="36.0136,65.5186 51.6339,65.5186" stroke="#ff6700" stroke-width="2" /><polyline fill="none" points="34.278,87.2136 38.1831,88.5153 49.8983,88.9492" stroke="#7f0000" stroke-width="2" /></svg>