<?xml version="1.0" encoding="utf-8" ?>
<svg baseProfile="tiny" height="128" version="1.2" viewBox="0,0,128,128" width="128" xmlns="http://www.w3.org/2000/svg" xmlns:ev="http://www.w3.org/2001/xml-events" xmlns:xlink="http://www.w3.org/1999/xlink"><defs /><polyline fill="none" points="29.0712,8.678 25.6,34.278 13.8847,98.061 13.0169,108.0407 13.8847,89.8169 16.4881,76.3661" stroke="#00007f" stroke-width="2" /><polyline fill="none" points="43.8237,8.678 53.8034,12.5831 65.5186,19.9593 67.2542,23.4305 67.2542,33.4102 44.6915,75.0644 36.4475,83.3085 26.4678,85.478 20.8271,89.8169 18.6576,96.7593 8.678,111.5119 16.0542,117.1525 21.261,119.322 24.7322,119.322 29.939,112.3797 38.1831,98.9288 40.7864,87.2136 40.7864,74.1966" stroke="#7cff79" stroke-width="2" /><polyline fill="none" points="87.6475,83.3085 81.5729,92.4203 76.3661,103.2678 76.3661,109.3424 81.139,116.7186 85.478,118.0203 95.4576,118.0203 103.7017,115.8508 112.3797,102.4 113.6814,80.2712 112.3797,75.4983 102.4,63.7831 95.8915,59.4441 94.5898,62.9153" stroke="#7f0000" stroke-width="2" /></svg>