<?xml version="1.0" encoding="utf-8" ?>
<svg baseProfile="tiny" height="128" version="1.2" viewBox="0,0,128,128" width="128" xmlns="http://www.w3.org/2000/svg" xmlns:ev="http://www.w3.org/2001/xml-events" xmlns:xlink="http://www.w3.org/1999/xlink"><defs /><polyline fill="none" points="51.6339,9.1119 51.6339,8.678" stroke="#00007f" stroke-width="2" /><polyline fill="none" points="53.3695,14.3186 48.1627,11.7153 36.8814,18.2237 15.6203,45.5593 10.8475,56.8407 8.678,67.6881 12.1492,92.8542 21.6949,110.2102 28.2034,114.1153 38.1831,117.1525 45.9932,117.1525 54.2373,114.1153 82.4407,99.3627 99.3627,85.9119 108.4746,68.5559 106.3051,52.5017 102.8339,41.2203 94.5898,31.6746 78.5356,22.1288 60.7458,21.6949 40.7864,23.4305" stroke="#0028ff" stroke-width="2" /><polyline fill="none" points="34.7119,32.9763 45.5593,42.9559 88.9492,68.122 103.7017,80.2712" stroke="#00d4ff" stroke-width="2" /><polyline fill="none" points="29.0712,56.4068 70.2915,98.9288 75.4983,103.2678 78.9695,103.7017" stroke="#7cff79" stroke-width="2" /><polyline fill="none" points="22.1288,95.4576 49.4644,114.9831 60.3119,119.322 64.6508,119.322" stroke="#ffe500" stroke-width="2" /><polyline fill="none" points="54.6712,22.1288 50.3322,36.8814 37.3153,68.122 24.2983,92.4203 22.1288,100.2305" stroke="#ff4600" stroke-width="2" /><polyline fill="none" points="89.8169,39.4847 86.3458,47.2949 69.8576,73.7627 47.7288,105.8712 43.3898,113.6814 43.8237,114.5492" stroke="#7f0000" stroke-width="2" /></svg>