<?xml version="1.0" encoding="utf-8" ?>
<svg baseProfile="tiny" height="128" version="1.2" viewBox="0,0,128,128" width="128" xmlns="http://www.w3.org/2000/svg" xmlns:ev="http://www.w3.org/2001/xml-events" xmlns:xlink="http://www.w3.org/1999/xlink"><defs /><polyline fill="none" points="63.7831,10.4136 52.0678,8.678 42.9559,11.7153 37.3153,16.922 25.6,31.6746 13.0169,58.5763 8.678,75.9322 8.678,82.8746 11.7153,95.8915 14.7525,102.4 24.7322,112.3797 32.5424,116.2847 49.0305,119.322 57.7085,118.8881 76.8,113.2475 92.4203,103.7017 98.4949,97.1932 107.1729,83.7424 111.078,68.122 110.6441,56.4068 105.8712,45.9932 94.5898,36.4475 71.5932,25.1661 58.5763,21.261 50.3322,24.7322" stroke="#00007f" stroke-width="2" /><polyline fill="none" points="52.0678,21.261 43.8237,27.7695 43.8237,31.6746 55.9729,59.4441 59.4441,76.3661 59.878,88.0814 55.539,99.3627 50.3322,106.3051 42.9559,111.078 30.3729,113.2475" stroke="#7cff79" stroke-width="2" /><polyline fill="none" points="77.6678,21.6949 85.9119,31.6746 86.7797,38.6169 72.8949,59.878 67.2542,70.2915 66.8203,78.1017 68.122,82.4407 73.3288,91.1186 79.4034,96.3254 86.7797,100.6644 103.2678,104.5695 117.1525,105.4373" stroke="#7f0000" stroke-width="2" /></svg>