<?xml version="1.0" encoding="utf-8" ?>
<svg baseProfile="tiny" height="128" version="1.2" viewBox="0,0,128,128" width="128" xmlns="http://www.w3.org/2000/svg" xmlns:ev="http://www.w3.org/2001/xml-events" xmlns:xlink="http://www.w3.org/1999/xlink"><defs /><polyline fill="none" points="44.2576,101.9661 42.9559,101.9661" stroke="#00007f" stroke-width="2" /><polyline fill="none" points="42.9559,101.9661 36.8814,100.6644 24.7322,94.5898 16.0542,82.4407 9.9797,68.9898 8.678,62.9153 8.678,48.1627 9.9797,42.0881 14.7525,29.5051 26.0339,18.6576 38.1831,13.4508 57.7085,8.678 76.3661,8.678 83.7424,11.2814 100.6644,26.9017 104.5695,33.4102 108.0407,45.5593 108.0407,64.2169 103.2678,82.4407 98.4949,95.0237 89.3831,107.1729 65.5186,118.0203 59.0102,119.322 40.3525,118.0203 32.1085,105.8712 26.0339,101.0983 24.7322,97.1932" stroke="#0080ff" stroke-width="2" /><polyline fill="none" points="33.4102,20.8271 35.5797,41.6542 41.6542,67.6881 41.6542,98.4949" stroke="#7cff79" stroke-width="2" /><polyline fill="none" points="78.9695,22.1288 76.3661,28.2034 76.3661,35.5797 72.461,56.4068 72.461,119.322" stroke="#ff9400" stroke-width="2" /><polyline fill="none" points="64.2169,45.5593 70.2915,41.6542 85.9119,40.7864" stroke="#7f0000" stroke-width="2" /></svg>