<?xml version="1.0" encoding="utf-8" ?>
<svg baseProfile="tiny" height="128" version="1.2" viewBox="0,0,128,128" width="128" xmlns="http://www.w3.org/2000/svg" xmlns:ev="http://www.w3.org/2001/xml-events" xmlns:xlink="http://www.w3.org/1999/xlink"><defs /><polyline fill="none" points="98.9288,9.9797 83.3085,9.9797 57.7085,13.4508 48.1627,16.4881 26.9017,42.0881 26.4678,92.8542 41.6542,106.739 45.9932,107.6068 55.1051,108.0407 81.5729,103.7017 96.3254,95.4576 107.1729,80.2712 114.1153,63.7831 119.322,45.5593 119.322,38.1831 114.1153,25.1661 108.9085,20.8271 86.7797,13.4508" stroke="#00007f" stroke-width="2" /><polyline fill="none" points="81.5729,8.678 92.8542,29.5051 113.2475,53.3695 113.2475,51.2" stroke="#00d4ff" stroke-width="2" /><polyline fill="none" points="44.6915,13.0169 43.3898,22.5627 27.3356,49.4644 8.678,67.6881" stroke="#ffe500" stroke-width="2" /><polyline fill="none" points="19.9593,91.5525 27.3356,85.478 37.7492,80.2712 44.2576,86.3458 61.1797,109.7763 67.2542,107.1729" stroke="#7f0000" stroke-width="2" /></svg>