<?xml version="1.0" encoding="utf-8" ?>
<svg baseProfile="tiny" height="128" version="1.2" viewBox="0,0,128,128" width="128" xmlns="http://www.w3.org/2000/svg" xmlns:ev="http://www.w3.org/2001/xml-events" xmlns:xlink="http://www.w3.org/1999/xlink"><defs /><polyline fill="none" points="49.0305,13.8847 55.1051,9.9797 67.2542,8.678 88.9492,9.9797 105.8712,20.8271 111.078,26.9017 115.8508,34.278 118.0203,39.9186 119.322,52.5017 118.0203,58.1424 112.8136,63.3492 106.3051,68.5559 87.2136,78.9695 58.5763,87.6475 44.6915,88.5153 36.8814,84.6102 19.9593,67.6881 11.2814,49.4644 8.678,33.8441 14.7525,28.6373 62.0475,20.3932" stroke="#00007f" stroke-width="2" /><polyline fill="none" points="90.2508,14.3186 81.5729,26.0339 80.2712,49.8983 82.0068,55.539 102.4,93.722" stroke="#00d4ff" stroke-width="2" /><polyline fill="none" points="35.1458,18.2237 37.7492,21.6949 42.0881,33.8441 44.2576,45.5593 43.8237,57.7085 40.7864,62.9153 26.9017,67.2542" stroke="#ffe500" stroke-width="2" /><polyline fill="none" points="11.2814,39.0508 19.0915,27.3356 25.1661,22.1288 39.9186,16.922 54.2373,15.1864" stroke="#7f0000" stroke-width="2" /></svg>