<?xml version="1.0" encoding="utf-8" ?>
<svg baseProfile="tiny" height="128" version="1.2" viewBox="0,0,128,128" width="128" xmlns="http://www.w3.org/2000/svg" xmlns:ev="http://www.w3.org/2001/xml-events" xmlns:xlink="http://www.w3.org/1999/xlink"><defs /><polyline fill="none" points="72.8949,87.6475 72.8949,81.5729 70.2915,73.7627 62.9153,66.3864 61.1797,62.4814 61.1797,23.4305 63.7831,13.0169 67.6881,8.678 72.8949,9.5458 78.5356,17.7898 81.5729,28.2034 82.0068,36.4475 73.3288,55.9729 72.0271,85.478" stroke="#00007f" stroke-width="2" /><polyline fill="none" points="34.7119,40.7864 29.939,39.0508 19.0915,39.0508 15.6203,41.2203 9.1119,60.3119 8.678,72.0271 10.4136,74.1966 19.9593,75.4983 26.0339,74.1966 32.5424,69.8576 39.4847,62.0475 42.522,55.9729 41.2203,46.4271 37.3153,42.0881 29.939,38.6169" stroke="#0028ff" stroke-width="2" /><polyline fill="none" points="20.3932,67.2542 19.0915,48.1627" stroke="#00d4ff" stroke-width="2" /><polyline fill="none" points="29.0712,65.0847 29.0712,42.9559" stroke="#7cff79" stroke-width="2" /><polyline fill="none" points="13.0169,58.1424 23.8644,51.2 35.1458,47.2949" stroke="#ffe500" stroke-width="2" /><polyline fill="none" points="15.6203,64.6508 36.0136,56.4068 48.1627,48.5966" stroke="#ff4600" stroke-width="2" /><polyline fill="none" points="101.9661,90.2508 104.1356,71.1593 104.5695,52.0678 98.4949,33.4102 98.061,22.5627 101.0983,15.1864 105.8712,12.5831 110.6441,12.5831 116.7186,20.3932 118.8881,32.9763 119.322,43.3898 116.7186,51.6339 108.4746,67.2542 100.2305,90.2508" stroke="#7f0000" stroke-width="2" /></svg>