<?xml version="1.0" encoding="utf-8" ?>
<svg baseProfile="tiny" height="128" version="1.2" viewBox="0,0,128,128" width="128" xmlns="http://www.w3.org/2000/svg" xmlns:ev="http://www.w3.org/2001/xml-events" xmlns:xlink="http://www.w3.org/1999/xlink"><defs /><polyline fill="none" points="65.5186,13.0169 55.1051,8.678 43.8237,9.1119 32.5424,15.6203 26.9017,21.261 22.9966,29.5051 16.922,36.8814 9.5458,49.8983 8.678,55.539 19.5254,77.6678 25.6,84.6102 40.3525,85.0441 47.2949,88.0814 63.3492,88.5153 83.7424,88.0814 105.4373,85.0441 116.7186,76.3661 118.8881,72.461 117.1525,49.8983 115.4169,41.6542 111.078,33.8441" stroke="#00007f" stroke-width="2" /><polyline fill="none" points="64.2169,11.2814 81.139,15.1864 90.2508,22.9966 105.8712,29.0712 115.4169,35.5797 119.322,43.3898" stroke="#0010ff" stroke-width="2" /><polyline fill="none" points="95.0237,30.8068 89.8169,47.7288" stroke="#00a4ff" stroke-width="2" /><polyline fill="none" points="89.3831,53.3695 90.6847,65.9525" stroke="#3fffb7" stroke-width="2" /><polyline fill="none" points="95.4576,78.9695 98.4949,82.0068" stroke="#b7ff3f" stroke-width="2" /><polyline fill="none" points="64.2169,18.6576 62.0475,28.6373 58.5763,33.4102" stroke="#ffb900" stroke-width="2" /><polyline fill="none" points="55.1051,43.3898 29.939,66.3864" stroke="#ff3000" stroke-width="2" /><polyline fill="none" points="30.8068,69.8576 27.7695,73.7627 16.922,79.8373" stroke="#7f0000" stroke-width="2" /></svg>