<?xml version="1.0" encoding="utf-8" ?>
<svg baseProfile="tiny" height="128" version="1.2" viewBox="0,0,128,128" width="128" xmlns="http://www.w3.org/2000/svg" xmlns:ev="http://www.w3.org/2001/xml-events" xmlns:xlink="http://www.w3.org/1999/xlink"><defs /><polyline fill="none" points="107.1729,13.0169 75.0644,8.678 56.8407,9.5458 32.9763,18.6576 18.6576,26.0339 9.9797,35.1458 8.678,39.9186 8.678,50.3322 9.9797,56.8407 17.3559,71.1593 31.6746,87.6475 37.3153,91.9864 51.6339,95.4576 67.2542,95.4576 75.4983,94.1559 99.3627,83.3085 111.9458,72.461 115.8508,66.3864 118.4542,59.0102 119.322,41.6542 112.8136,27.3356 108.0407,21.6949" stroke="#00007f" stroke-width="2" /><polyline fill="none" points="80.7051,9.5458 61.6136,22.5627 39.9186,48.5966 34.7119,63.3492 34.7119,82.0068" stroke="#0000ff" stroke-width="2" /><polyline fill="none" points="104.1356,16.4881 93.722,22.1288 88.5153,26.4678 72.461,42.522 64.6508,53.3695 59.0102,62.0475 54.6712,73.7627 52.5017,85.0441 52.5017,91.9864" stroke="#0080ff" stroke-width="2" /><polyline fill="none" points="23.8644,63.3492 35.1458,67.6881" stroke="#15ffe1" stroke-width="2" /><polyline fill="none" points="33.8441,39.0508 38.6169,41.6542 51.6339,43.8237" stroke="#7cff79" stroke-width="2" /><polyline fill="none" points="65.5186,16.0542 72.461,19.9593" stroke="#e4ff12" stroke-width="2" /><polyline fill="none" points="48.1627,79.8373 60.3119,81.139" stroke="#ff9400" stroke-width="2" /><polyline fill="none" points="71.1593,36.8814 71.1593,36.8814" stroke="#ff1d00" stroke-width="2" /><polyline fill="none" points="56.8407,50.3322 69.4237,52.5017 84.1763,52.5017" stroke="#7f0000" stroke-width="2" /></svg>