<?xml version="1.0" encoding="utf-8" ?>
<svg baseProfile="tiny" height="128" version="1.2" viewBox="0,0,128,128" width="128" xmlns="http://www.w3.org/2000/svg" xmlns:ev="http://www.w3.org/2001/xml-events" xmlns:xlink="http://www.w3.org/1999/xlink"><defs /><polyline fill="none" points="94.1559,24.2983 73.7627,18.2237 48.5966,18.2237 32.9763,25.6 11.2814,59.878 8.678,68.9898 8.678,75.0644 14.7525,88.0814 26.9017,102.4 33.8441,105.8712 49.8983,109.7763 79.8373,109.7763 103.7017,86.7797 105.0034,79.8373 108.4746,72.461 111.9458,50.7661 111.9458,22.9966 102.4,9.9797 90.2508,8.678" stroke="#00007f" stroke-width="2" /><polyline fill="none" points="65.0847,24.2983 65.0847,30.3729 60.3119,46.861 53.3695,60.3119 39.9186,74.6305 19.0915,93.2881 12.1492,97.6271" stroke="#7cff79" stroke-width="2" /><polyline fill="none" points="66.3864,26.9017 63.7831,41.2203 58.1424,62.9153 58.1424,78.1017 61.6136,84.6102 69.8576,84.6102 77.2339,86.7797 90.6847,86.7797 106.3051,83.3085 118.0203,78.5356 119.322,75.9322" stroke="#7f0000" stroke-width="2" /></svg>