<?xml version="1.0" encoding="utf-8" ?>
<svg baseProfile="tiny" height="128" version="1.2" viewBox="0,0,128,128" width="128" xmlns="http://www.w3.org/2000/svg" xmlns:ev="http://www.w3.org/2001/xml-events" xmlns:xlink="http://www.w3.org/1999/xlink"><defs /><polyline fill="none" points="70.7254,10.8475 63.3492,9.1119 57.2746,10.4136 50.3322,12.5831 37.7492,22.1288 24.7322,36.0136 15.1864,49.4644 10.4136,60.7458 8.678,68.9898 9.1119,77.2339 10.8475,91.1186 13.0169,98.061 24.2983,112.8136 38.6169,119.322 53.3695,117.1525 68.5559,108.9085 78.1017,96.7593 83.7424,81.5729 85.9119,71.5932 85.478,63.7831 78.1017,27.3356 73.3288,18.2237 62.9153,8.678" stroke="#00007f" stroke-width="2" /><polyline fill="none" points="34.278,34.278 45.9932,57.2746 50.7661,71.5932 51.2,78.9695 48.1627,106.739 41.6542,116.7186" stroke="#7cff79" stroke-width="2" /><polyline fill="none" points="79.4034,20.8271 68.9898,33.4102 63.7831,43.8237 57.7085,57.7085 56.4068,67.2542 58.5763,96.7593 73.7627,118.0203" stroke="#7f0000" stroke-width="2" /></svg>