<?xml version="1.0" encoding="utf-8" ?>
<svg baseProfile="tiny" height="128" version="1.2" viewBox="0,0,128,128" width="128" xmlns="http://www.w3.org/2000/svg" xmlns:ev="http://www.w3.org/2001/xml-events" xmlns:xlink="http://www.w3.org/1999/xlink"><defs /><polyline fill="none" points="46.861,15.6203 62.0475,16.4881 79.8373,25.6 99.7966,41.2203 109.7763,56.8407 113.2475,75.0644 112.3797,89.3831 110.6441,93.722 104.5695,101.0983 91.5525,110.2102 75.0644,116.7186 58.1424,119.322 48.5966,119.322 36.8814,113.2475 29.0712,106.739 21.6949,99.3627 12.1492,84.1763 8.678,69.8576 9.5458,58.5763 12.1492,47.7288 23.8644,19.5254 27.7695,13.8847 34.278,8.678 40.7864,8.678 50.3322,13.8847" stroke="#00007f" stroke-width="2" /><polyline fill="none" points="84.1763,26.0339 67.6881,59.4441 47.7288,92.4203 36.8814,105.8712 28.2034,112.3797" stroke="#7cff79" stroke-width="2" /><polyline fill="none" points="22.1288,23.4305 36.8814,38.1831 68.5559,65.0847 92.4203,91.9864 108.4746,105.0034" stroke="#7f0000" stroke-width="2" /></svg>