<?xml version="1.0" encoding="utf-8" ?>
<svg baseProfile="tiny" height="128" version="1.2" viewBox="0,0,128,128" width="128" xmlns="http://www.w3.org/2000/svg" xmlns:ev="http://www.w3.org/2001/xml-events" xmlns:xlink="http://www.w3.org/1999/xlink"><defs /><polyline fill="none" points="32.9763,8.678 18.6576,29.5051 13.8847,42.0881 8.678,79.4034 9.1119,85.9119 18.2237,101.0983 32.9763,112.3797 38.1831,114.5492 67.2542,119.322 70.7254,117.5864 73.3288,111.9458 75.4983,90.2508 77.2339,60.3119 73.7627,34.7119 66.3864,25.1661 53.8034,15.6203 39.0508,9.9797 27.3356,8.678 25.6,9.5458" stroke="#00007f" stroke-width="2" /><polyline fill="none" points="21.6949,29.939 24.7322,41.6542 25.6,75.9322 23.4305,81.139 17.7898,87.6475" stroke="#7cff79" stroke-width="2" /><polyline fill="none" points="72.8949,32.5424 67.6881,46.4271 65.0847,64.2169 65.0847,73.7627 72.0271,83.7424" stroke="#7f0000" stroke-width="2" /></svg>