<?xml version="1.0" encoding="utf-8" ?>
<svg baseProfile="tiny" height="128" version="1.2" viewBox="0,0,128,128" width="128" xmlns="http://www.w3.org/2000/svg" xmlns:ev="http://www.w3.org/2001/xml-events" xmlns:xlink="http://www.w3.org/1999/xlink"><defs /><polyline fill="none" points="24.7322,27.7695 33.8441,20.3932 39.9186,17.3559 63.7831,14.3186 88.9492,13.8847 96.7593,16.4881 114.5492,29.939 118.0203,38.1831 119.322,50.7661" stroke="#00007f" stroke-width="2" /><polyline fill="none" points="72.8949,96.3254 64.6508,91.9864 57.7085,89.8169" stroke="#0000de" stroke-width="2" /><polyline fill="none" points="40.3525,87.6475 32.5424,87.6475 28.2034,85.0441 13.4508,76.3661 9.5458,69.8576" stroke="#0028ff" stroke-width="2" /><polyline fill="none" points="8.678,55.539 8.678,52.9356 18.6576,42.522" stroke="#0080ff" stroke-width="2" /><polyline fill="none" points="24.2983,38.6169 27.7695,37.3153 31.6746,29.939 36.8814,24.7322 39.4847,23.4305 39.4847,28.6373 27.7695,39.9186 17.3559,55.1051 13.8847,62.0475 13.0169,71.1593 22.1288,85.9119 39.9186,98.9288" stroke="#00d4ff" stroke-width="2" /><polyline fill="none" points="97.6271,72.461 101.0983,68.9898" stroke="#36ffc0" stroke-width="2" /><polyline fill="none" points="108.4746,56.4068 114.1153,50.3322 114.9831,46.861 116.2847,28.2034 112.8136,26.0339 108.0407,18.2237" stroke="#7cff79" stroke-width="2" /><polyline fill="none" points="98.061,13.4508 91.9864,13.4508 91.1186,11.7153" stroke="#c0ff36" stroke-width="2" /><polyline fill="none" points="16.922,75.4983 39.9186,85.9119 86.3458,94.5898 93.722,94.1559 105.0034,90.6847 109.7763,87.2136 117.1525,75.9322 119.322,60.7458 119.322,32.1085 113.6814,22.1288 108.0407,16.4881 102.8339,13.4508 83.7424,8.678 68.9898,8.678 65.5186,10.8475 49.0305,15.6203 31.6746,26.4678 25.1661,32.9763 18.2237,48.1627 16.0542,62.0475 16.0542,64.6508 21.6949,72.8949 45.9932,85.0441 86.3458,91.9864 92.4203,91.5525 104.1356,86.7797 112.3797,76.8 114.5492,72.461 116.7186,41.2203" stroke="#ffe500" stroke-width="2" /><polyline fill="none" points="50.7661,15.6203 58.1424,23.4305 61.6136,32.5424" stroke="#ff9400" stroke-width="2" /><polyline fill="none" points="62.0475,47.7288 62.0475,50.3322 59.4441,52.5017 58.1424,56.8407 44.6915,77.2339" stroke="#ff4600" stroke-width="2" /><polyline fill="none" points="64.2169,26.9017 64.2169,33.8441 55.1051,58.1424" stroke="#de0000" stroke-width="2" /><polyline fill="none" points="92.8542,13.8847 82.8746,29.5051 74.6305,52.0678 72.8949,64.2169 73.3288,74.1966 78.9695,78.5356 87.6475,88.5153" stroke="#7f0000" stroke-width="2" /></svg>