<?xml version="1.0" encoding="utf-8" ?>
<svg baseProfile="tiny" height="128" version="1.2" viewBox="0,0,128,128" width="128" xmlns="http://www.w3.org/2000/svg" xmlns:ev="http://www.w3.org/2001/xml-events" xmlns:xlink="http://www.w3.org/1999/xlink"><defs /><polyline fill="none" points="83.7424,18.6576 70.7254,10.8475 54.2373,8.678 41.6542,12.5831 27.7695,24.2983 15.1864,42.522 10.4136,56.8407 8.678,78.5356 10.8475,91.5525 17.7898,102.4 26.9017,111.078 32.1085,114.1153 45.5593,118.0203 74.1966,119.322 85.9119,115.4169 96.3254,108.4746 104.1356,99.3627 112.8136,80.7051 115.8508,60.7458 116.7186,40.3525 113.2475,33.8441 108.4746,28.6373 94.5898,20.8271 82.0068,15.6203" stroke="#00007f" stroke-width="2" /><polyline fill="none" points="37.7492,17.7898 47.7288,35.5797 49.8983,43.3898 49.8983,65.9525 44.2576,91.5525 34.7119,114.1153" stroke="#7cff79" stroke-width="2" /><polyline fill="none" points="105.4373,25.6 93.722,32.1085 86.3458,40.3525 79.8373,54.2373 72.8949,77.2339 72.461,94.1559 82.0068,114.5492" stroke="#7f0000" stroke-width="2" /></svg>