<?xml version="1.0" encoding="utf-8" ?>
<svg baseProfile="tiny" height="128" version="1.2" viewBox="0,0,128,128" width="128" xmlns="http://www.w3.org/2000/svg" xmlns:ev="http://www.w3.org/2001/xml-events" xmlns:xlink="http://www.w3.org/1999/xlink"><defs /><polyline fill="none" points="26.4678,13.0169 19.9593,16.922 14.3186,25.1661 8.678,42.0881 8.678,59.878 10.8475,72.0271 17.7898,91.1186 32.1085,107.6068 40.3525,113.2475 49.8983,117.1525 59.4441,119.322 75.0644,118.8881 83.3085,115.4169 90.6847,109.7763 102.4,95.0237 111.078,74.6305 112.3797,64.6508 107.1729,53.3695 93.2881,36.8814 76.8,24.2983 62.4814,15.6203 49.0305,10.4136 39.9186,8.678 31.2407,10.4136 24.7322,14.7525" stroke="#00007f" stroke-width="2" /><polyline fill="none" points="45.9932,15.1864 47.2949,48.1627 43.8237,68.9898 37.3153,90.2508" stroke="#004cff" stroke-width="2" /><polyline fill="none" points="54.2373,13.0169 56.4068,28.6373 54.2373,52.5017 50.7661,60.3119 46.861,72.461 39.9186,85.9119 36.0136,90.2508" stroke="#29ffcd" stroke-width="2" /><polyline fill="none" points="54.2373,10.8475 52.0678,15.1864 48.1627,67.6881 39.9186,97.1932" stroke="#cdff29" stroke-width="2" /><polyline fill="none" points="59.0102,10.4136 56.8407,21.261 53.8034,64.2169 48.1627,85.9119" stroke="#ff6700" stroke-width="2" /><polyline fill="none" points="67.6881,20.3932 67.2542,39.4847 65.5186,43.3898 60.3119,74.6305 56.8407,90.6847 52.0678,99.3627" stroke="#7f0000" stroke-width="2" /></svg>