<?xml version="1.0" encoding="utf-8" ?>
<svg baseProfile="tiny" height="128" version="1.2" viewBox="0,0,128,128" width="128" xmlns="http://www.w3.org/2000/svg" xmlns:ev="http://www.w3.org/2001/xml-events" xmlns:xlink="http://www.w3.org/1999/xlink"><defs /><polyline fill="none" points="46.861,8.678 42.522,8.678 27.3356,18.2237 18.2237,27.7695 11.2814,45.5593 8.678,63.3492 10.4136,72.0271 15.1864,83.3085 29.939,105.0034 42.522,115.8508 53.8034,119.322 59.4441,119.322 74.1966,113.2475 87.6475,100.6644 95.0237,85.478 97.1932,68.5559 97.1932,60.7458 91.5525,40.3525 88.5153,36.0136 76.3661,23.4305 61.1797,12.1492 53.8034,8.678" stroke="#00007f" stroke-width="2" /><polyline fill="none" points="17.7898,39.4847 23.8644,40.3525 41.2203,45.5593 51.6339,53.3695 66.8203,75.9322 74.1966,105.0034" stroke="#0080ff" stroke-width="2" /><polyline fill="none" points="18.2237,31.2407 37.7492,27.3356 47.7288,27.7695 50.7661,29.0712 64.6508,39.9186 74.1966,50.3322 82.4407,63.3492 87.6475,85.0441 88.9492,101.5322" stroke="#7cff79" stroke-width="2" /><polyline fill="none" points="27.7695,71.5932 27.7695,71.5932" stroke="#ff9400" stroke-width="2" /><polyline fill="none" points="41.2203,90.2508 41.2203,90.2508" stroke="#7f0000" stroke-width="2" /></svg>