<?xml version="1.0" encoding="utf-8" ?>
<svg baseProfile="tiny" height="128" version="1.2" viewBox="0,0,128,128" width="128" xmlns="http://www.w3.org/2000/svg" xmlns:ev="http://www.w3.org/2001/xml-events" xmlns:xlink="http://www.w3.org/1999/xlink"><defs /><polyline fill="none" points="79.4034,10.8475 71.1593,8.678 59.878,9.1119 33.8441,20.8271 28.2034,24.7322 19.0915,33.8441 10.4136,49.4644 8.678,60.7458 9.5458,87.6475 11.7153,93.2881 20.8271,104.1356 32.1085,111.078 39.9186,112.8136 51.2,112.8136 65.5186,107.6068 97.6271,93.2881 109.7763,86.3458 115.8508,79.8373 117.5864,76.3661 119.322,71.1593 118.4542,54.2373 108.9085,36.0136 93.2881,16.0542 85.478,10.8475 75.9322,10.4136" stroke="#00007f" stroke-width="2" /><polyline fill="none" points="80.7051,8.678 67.6881,15.6203 62.4814,17.3559" stroke="#0000ff" stroke-width="2" /><polyline fill="none" points="72.0271,25.6 68.122,35.5797 63.7831,41.2203" stroke="#0080ff" stroke-width="2" /><polyline fill="none" points="59.4441,49.8983 55.539,64.2169 52.9356,67.6881" stroke="#15ffe1" stroke-width="2" /><polyline fill="none" points="37.3153,90.6847 37.3153,95.4576 32.1085,107.1729" stroke="#7cff79" stroke-width="2" /><polyline fill="none" points="30.8068,29.939 41.2203,39.0508 47.7288,42.0881" stroke="#e4ff12" stroke-width="2" /><polyline fill="none" points="63.7831,52.9356 67.6881,57.7085 79.4034,65.5186" stroke="#ff9400" stroke-width="2" /><polyline fill="none" points="81.139,66.8203 84.6102,66.8203 109.3424,85.0441" stroke="#ff1d00" stroke-width="2" /><polyline fill="none" points="111.5119,86.7797 111.5119,89.3831" stroke="#7f0000" stroke-width="2" /></svg>