<?xml version="1.0" encoding="utf-8" ?>
<svg baseProfile="tiny" height="128" version="1.2" viewBox="0,0,128,128" width="128" xmlns="http://www.w3.org/2000/svg" xmlns:ev="http://www.w3.org/2001/xml-events" xmlns:xlink="http://www.w3.org/1999/xlink"><defs /><polyline fill="none" points="12.1492,54.2373 29.5051,36.8814 44.2576,25.1661 57.2746,20.3932 72.8949,20.3932 84.6102,24.2983 94.5898,30.8068 107.6068,46.4271 108.4746,52.9356 107.1729,59.0102 101.9661,69.8576 93.722,78.9695 83.7424,88.9492 72.8949,97.1932 67.2542,100.2305 57.2746,100.2305 41.6542,87.2136 20.8271,57.2746 8.678,42.522 8.678,39.9186" stroke="#00007f" stroke-width="2" /><polyline fill="none" points="43.3898,12.1492 45.1254,22.5627 49.8983,26.0339 53.8034,33.8441 65.5186,49.8983 73.7627,64.6508 74.6305,70.7254 78.1017,65.5186 78.9695,58.1424" stroke="#00d4ff" stroke-width="2" /><polyline fill="none" points="73.7627,10.4136 78.1017,8.678 80.7051,14.7525 84.6102,58.1424 88.0814,77.2339 95.8915,95.4576 100.2305,101.0983" stroke="#ffe500" stroke-width="2" /><polyline fill="none" points="36.0136,76.3661 38.6169,72.0271 43.3898,68.122 73.3288,49.0305 100.2305,26.9017 119.322,15.1864" stroke="#7f0000" stroke-width="2" /></svg>