<?xml version="1.0" encoding="utf-8" ?>
<svg baseProfile="tiny" height="128" version="1.2" viewBox="0,0,128,128" width="128" xmlns="http://www.w3.org/2000/svg" xmlns:ev="http://www.w3.org/2001/xml-events" xmlns:xlink="http://www.w3.org/1999/xlink"><defs /><polyline fill="none" points="81.139,16.922 58.1424,8.678 39.9186,8.678 32.9763,11.2814 23.4305,22.5627 12.1492,45.5593 8.678,59.878 8.678,88.0814 9.9797,93.722 12.1492,101.0983 22.5627,112.3797 30.3729,115.8508 45.5593,119.322 60.7458,119.322 72.0271,107.6068 72.0271,101.9661 78.9695,87.2136 87.2136,62.9153 87.2136,37.7492 83.7424,26.9017" stroke="#00007f" stroke-width="2" /><polyline fill="none" points="28.2034,10.8475 36.0136,22.1288 38.6169,28.2034 40.7864,58.1424 37.7492,70.7254 29.5051,85.0441 24.7322,101.9661 24.7322,98.4949" stroke="#0080ff" stroke-width="2" /><polyline fill="none" points="90.6847,26.9017 78.9695,37.7492 76.8,49.0305 70.7254,55.1051 58.1424,73.3288 52.5017,91.5525 52.5017,111.9458 51.2,112.3797" stroke="#7cff79" stroke-width="2" /><polyline fill="none" points="23.8644,36.4475 29.5051,39.9186 42.0881,39.9186" stroke="#ff9400" stroke-width="2" /><polyline fill="none" points="26.9017,72.0271 26.9017,72.0271" stroke="#7f0000" stroke-width="2" /></svg>