<?xml version="1.0" encoding="utf-8" ?>
<svg baseProfile="tiny" height="128" version="1.2" viewBox="0,0,128,128" width="128" xmlns="http://www.w3.org/2000/svg" xmlns:ev="http://www.w3.org/2001/xml-events" xmlns:xlink="http://www.w3.org/1999/xlink"><defs /><polyline fill="none" points="27.3356,108.9085 23.4305,108.4746 20.8271,104.5695 10.4136,83.3085 8.678,72.8949 8.678,47.7288 12.1492,37.3153 16.922,29.939 31.6746,20.3932 50.7661,11.7153 67.6881,9.1119 72.8949,11.7153 94.1559,28.6373 102.4,36.0136 113.6814,50.7661 118.8881,65.9525 119.322,79.4034 118.0203,85.9119 110.6441,97.6271 104.1356,102.4 95.0237,105.8712 84.6102,108.0407 62.0475,114.9831 56.4068,115.8508 40.3525,114.9831 32.9763,110.2102" stroke="#00007f" stroke-width="2" /><polyline fill="none" points="78.5356,19.0915 81.5729,76.3661 84.6102,98.061" stroke="#7cff79" stroke-width="2" /><polyline fill="none" points="40.7864,8.678 39.4847,17.7898 45.1254,52.9356 45.5593,108.0407 46.861,111.9458" stroke="#7f0000" stroke-width="2" /></svg>