<?xml version="1.0" encoding="utf-8" ?>
<svg baseProfile="tiny" height="128" version="1.2" viewBox="0,0,128,128" width="128" xmlns="http://www.w3.org/2000/svg" xmlns:ev="http://www.w3.org/2001/xml-events" xmlns:xlink="http://www.w3.org/1999/xlink"><defs /><polyline fill="none" points="85.0441,8.678 66.8203,9.1119 53.8034,13.0169 32.5424,22.9966 22.1288,32.1085 15.6203,39.9186 10.8475,45.9932 8.678,52.9356 9.5458,84.6102 12.1492,93.2881 19.5254,103.7017 33.8441,114.5492 40.7864,117.5864 76.3661,119.322 93.722,113.6814 103.7017,105.8712 115.4169,85.9119 118.4542,72.8949 118.4542,39.4847 115.8508,20.3932 101.9661,13.8847 78.1017,8.678 54.2373,8.678 45.9932,10.8475" stroke="#00007f" stroke-width="2" /><polyline fill="none" points="48.5966,16.4881 55.1051,22.1288 57.7085,31.2407 57.7085,41.6542 54.2373,52.0678 46.4271,62.9153 33.8441,74.6305 9.9797,85.9119" stroke="#0028ff" stroke-width="2" /><polyline fill="none" points="19.9593,75.0644 22.1288,87.6475" stroke="#00d4ff" stroke-width="2" /><polyline fill="none" points="26.9017,72.0271 31.6746,74.6305 35.5797,78.9695" stroke="#7cff79" stroke-width="2" /><polyline fill="none" points="39.4847,62.9153 62.9153,67.6881" stroke="#ffe500" stroke-width="2" /><polyline fill="none" points="47.2949,44.6915 62.9153,44.6915" stroke="#ff4600" stroke-width="2" /><polyline fill="none" points="112.3797,24.7322 104.5695,24.7322 94.5898,30.8068 79.8373,57.2746 78.9695,72.0271 84.6102,91.1186" stroke="#7f0000" stroke-width="2" /></svg>