<?xml version="1.0" encoding="utf-8" ?>
<svg baseProfile="tiny" height="128" version="1.2" viewBox="0,0,128,128" width="128" xmlns="http://www.w3.org/2000/svg" xmlns:ev="http://www.w3.org/2001/xml-events" xmlns:xlink="http://www.w3.org/1999/xlink"><defs /><polyline fill="none" points="77.0612,26.9932 74.8844,23.0748 71.4014,21.3333 63.5646,19.5918 55.2925,19.1565 50.068,21.7687 44.4082,28.2993 33.0884,48.7619 23.5102,77.4966 23.0748,90.9932 24.381,93.6054 32.6531,99.2653 43.102,103.1837 56.1633,105.7959 67.9184,106.2313 73.5782,104.9252 77.932,101.8776 85.3333,91.4286 91.4286,70.5306 90.9932,54.8571 88.381,43.9728 82.2857,26.5578 77.932,19.1565 68.7891,11.7551 59.2109,8.7075 61.8231,11.3197" stroke="#00007f" stroke-width="2" /><polyline fill="none" points="63.1293,26.9932 52.2449,64.4354 37.4422,94.9116 26.9932,109.2789 14.3673,119.2925 10.0136,118.4218 8.7075,112.7619 10.449,110.1497" stroke="#7cff79" stroke-width="2" /><polyline fill="none" points="61.3878,31.3469 59.6463,43.5374 60.517,66.1769 70.5306,89.6871 74.8844,92.7347 79.6735,93.1701" stroke="#7f0000" stroke-width="2" /></svg>