<?xml version="1.0" encoding="utf-8" ?>
<svg baseProfile="tiny" height="128" version="1.2" viewBox="0,0,128,128" width="128" xmlns="http://www.w3.org/2000/svg" xmlns:ev="http://www.w3.org/2001/xml-events" xmlns:xlink="http://www.w3.org/1999/xlink"><defs /><polyline fill="none" points="64.2169,13.4508 64.2169,10.4136 62.4814,9.9797 46.4271,8.678 23.4305,30.8068 16.922,39.0508 11.7153,49.0305 8.678,63.3492 9.1119,87.6475 21.261,105.0034 28.6373,109.7763 50.3322,118.8881 63.3492,119.322 68.5559,117.5864 73.3288,113.6814 79.8373,99.7966 85.9119,80.7051 90.2508,56.8407 89.8169,27.3356 86.7797,17.7898 61.6136,12.1492" stroke="#00007f" stroke-width="2" /><polyline fill="none" points="53.3695,10.8475 49.4644,17.7898 45.1254,32.9763 41.6542,59.0102 37.3153,74.1966 22.9966,104.5695 13.4508,118.8881" stroke="#7cff79" stroke-width="2" /><polyline fill="none" points="72.8949,27.3356 67.2542,47.2949 62.9153,72.461 62.0475,91.5525 64.2169,113.2475 62.9153,117.5864" stroke="#7f0000" stroke-width="2" /></svg>