<?xml version="1.0" encoding="utf-8" ?>
<svg baseProfile="tiny" height="128" version="1.2" viewBox="0,0,128,128" width="128" xmlns="http://www.w3.org/2000/svg" xmlns:ev="http://www.w3.org/2001/xml-events" xmlns:xlink="http://www.w3.org/1999/xlink"><defs /><polyline fill="none" points="48.1627,16.0542 39.0508,14.3186 33.4102,15.1864 28.6373,17.3559 22.9966,21.6949 14.3186,33.4102 9.9797,49.4644 8.678,68.122 11.7153,86.3458 17.3559,102.4 22.1288,108.9085 32.9763,116.7186 45.9932,117.5864 53.8034,114.9831 68.5559,105.8712 82.4407,92.4203 87.6475,83.7424 92.8542,63.7831 91.9864,44.6915 89.3831,36.0136 85.478,28.6373 79.4034,22.1288 66.8203,13.4508 52.9356,8.678" stroke="#00007f" stroke-width="2" /><polyline fill="none" points="31.2407,25.1661 34.7119,32.5424 37.3153,49.4644 27.7695,75.0644 25.1661,88.9492 25.1661,110.2102 28.6373,119.322" stroke="#7cff79" stroke-width="2" /><polyline fill="none" points="59.878,17.7898 59.0102,38.6169 60.3119,43.8237 72.461,57.7085 76.3661,65.5186 77.2339,73.7627 73.7627,100.6644" stroke="#7f0000" stroke-width="2" /></svg>