<?xml version="1.0" encoding="utf-8" ?>
<svg baseProfile="tiny" height="128" version="1.2" viewBox="0,0,128,128" width="128" xmlns="http://www.w3.org/2000/svg" xmlns:ev="http://www.w3.org/2001/xml-events" xmlns:xlink="http://www.w3.org/1999/xlink"><defs /><polyline fill="none" points="56.8407,16.4881 32.5424,16.4881 29.0712,18.2237 19.0915,28.6373 11.2814,42.0881 8.678,58.5763 8.678,71.1593 16.0542,84.6102 19.0915,87.2136 51.2,101.5322 68.5559,104.1356 82.0068,104.1356 96.3254,102.4 113.2475,95.4576 117.5864,93.2881 119.322,89.8169 119.322,86.3458 111.5119,76.8 111.078,72.8949 103.2678,62.4814 95.8915,55.9729 91.5525,49.0305 91.1186,44.2576 67.2542,13.8847 46.4271,8.678" stroke="#00007f" stroke-width="2" /><polyline fill="none" points="36.4475,21.261 39.0508,49.8983 39.0508,76.8 37.3153,91.9864 33.4102,96.3254" stroke="#7cff79" stroke-width="2" /><polyline fill="none" points="75.4983,28.2034 72.0271,43.8237 66.8203,52.0678 65.9525,73.3288 70.2915,84.6102 77.2339,93.2881" stroke="#7f0000" stroke-width="2" /></svg>