<?xml version="1.0" encoding="utf-8" ?>
<svg baseProfile="tiny" height="128" version="1.2" viewBox="0,0,128,128" width="128" xmlns="http://www.w3.org/2000/svg" xmlns:ev="http://www.w3.org/2001/xml-events" xmlns:xlink="http://www.w3.org/1999/xlink"><defs /><polyline fill="none" points="68.122,13.0169 60.7458,9.9797 42.0881,8.678 29.5051,12.1492 10.8475,33.8441 8.678,48.1627 10.4136,63.3492 26.0339,93.2881 38.1831,105.8712 44.6915,109.3424 71.5932,114.5492 83.7424,111.9458 97.1932,101.5322 105.4373,88.9492 107.1729,83.3085 108.0407,59.0102 102.8339,46.4271 94.1559,32.5424 82.0068,19.0915 71.5932,12.1492 66.3864,9.9797 57.7085,9.5458" stroke="#00007f" stroke-width="2" /><polyline fill="none" points="42.9559,9.9797 44.6915,65.9525 49.8983,95.4576" stroke="#004cff" stroke-width="2" /><polyline fill="none" points="67.2542,13.8847 62.9153,42.0881 61.6136,103.7017 62.9153,111.078" stroke="#29ffcd" stroke-width="2" /><polyline fill="none" points="85.478,18.2237 82.8746,34.7119 82.0068,61.1797 82.8746,110.6441" stroke="#cdff29" stroke-width="2" /><polyline fill="none" points="28.2034,19.9593 29.5051,69.4237 32.5424,88.5153 34.278,94.1559" stroke="#ff6700" stroke-width="2" /><polyline fill="none" points="9.9797,31.2407 36.8814,31.2407 85.0441,35.1458 119.322,40.7864" stroke="#7f0000" stroke-width="2" /></svg>