<?xml version="1.0" encoding="utf-8" ?>
<svg baseProfile="tiny" height="128" version="1.2" viewBox="0,0,128,128" width="128" xmlns="http://www.w3.org/2000/svg" xmlns:ev="http://www.w3.org/2001/xml-events" xmlns:xlink="http://www.w3.org/1999/xlink"><defs /><polyline fill="none" points="72.8949,11.2814 59.4441,8.678 48.1627,9.1119 34.7119,13.4508 23.4305,19.5254 14.7525,28.6373 10.8475,35.1458 8.678,46.4271 8.678,57.2746 11.2814,68.122 15.1864,78.5356 21.261,88.5153 39.4847,106.739 50.3322,113.6814 61.6136,117.5864 73.3288,119.322 85.9119,116.7186 98.061,111.5119 112.3797,99.7966 116.2847,91.9864 117.5864,83.7424 114.9831,62.0475 105.8712,44.2576 100.2305,37.3153 78.1017,19.0915 68.5559,15.1864 59.878,13.4508 45.1254,13.8847" stroke="#00007f" stroke-width="2" /><polyline fill="none" points="36.0136,15.1864 39.4847,18.2237 44.6915,32.9763 45.9932,59.878 43.8237,73.3288 40.3525,83.7424 32.5424,94.1559 26.9017,93.2881" stroke="#0000ff" stroke-width="2" /><polyline fill="none" points="88.0814,23.8644 83.3085,35.5797 80.2712,48.1627 78.9695,62.9153 79.8373,77.2339 90.2508,97.1932 98.9288,106.3051 101.9661,108.0407 104.5695,107.6068" stroke="#0080ff" stroke-width="2" /><polyline fill="none" points="95.4576,40.7864 72.0271,41.6542" stroke="#15ffe1" stroke-width="2" /><polyline fill="none" points="88.0814,59.0102 67.2542,61.1797" stroke="#7cff79" stroke-width="2" /><polyline fill="none" points="94.1559,82.0068 68.9898,88.5153" stroke="#e4ff12" stroke-width="2" /><polyline fill="none" points="55.1051,35.1458 28.2034,33.4102" stroke="#ff9400" stroke-width="2" /><polyline fill="none" points="52.0678,54.6712 34.7119,50.7661 23.4305,50.7661" stroke="#ff1d00" stroke-width="2" /><polyline fill="none" points="49.8983,83.3085 34.7119,78.5356" stroke="#7f0000" stroke-width="2" /></svg>