<?xml version="1.0" encoding="utf-8" ?>
<svg baseProfile="tiny" height="128" version="1.2" viewBox="0,0,128,128" width="128" xmlns="http://www.w3.org/2000/svg" xmlns:ev="http://www.w3.org/2001/xml-events" xmlns:xlink="http://www.w3.org/1999/xlink"><defs /><polyline fill="none" points="94.4762,21.7687 89.6871,17.415 80.1088,11.7551 64.4354,8.7075 50.068,9.5782 37.0068,13.0612 25.6871,21.3333 13.932,33.5238 8.7075,50.5034 8.7075,57.034 10.8844,70.0952 16.9796,84.898 24.381,94.0408 35.7007,104.0544 48.3265,111.8912 58.3401,115.3741 70.0952,117.1156 84.898,114.068 100.1361,102.7483 104.9252,97.0884 111.0204,86.2041 115.3741,67.9184 115.3741,54.4218 110.1497,37.0068 104.9252,27.4286 99.2653,22.2041 94.4762,20.0272" stroke="#00007f" stroke-width="2" /><polyline fill="none" points="66.6122,13.932 67.0476,26.9932 64.0,45.7143 59.6463,58.3401 55.7279,66.6122 40.0544,87.9456 30.0408,94.4762 32.2177,90.9932" stroke="#00d4ff" stroke-width="2" /><polyline fill="none" points="119.2925,49.1973 108.8435,50.5034 98.3946,54.8571 78.8027,67.0476 66.6122,77.932 61.3878,84.898 58.3401,93.6054 58.7755,116.2449" stroke="#ffe500" stroke-width="2" /><polyline fill="none" points="97.5238,24.8163 58.3401,86.2041 46.1497,111.8912" stroke="#7f0000" stroke-width="2" /></svg>