<?xml version="1.0" encoding="utf-8" ?>
<svg baseProfile="tiny" height="128" version="1.2" viewBox="0,0,128,128" width="128" xmlns="http://www.w3.org/2000/svg" xmlns:ev="http://www.w3.org/2001/xml-events" xmlns:xlink="http://www.w3.org/1999/xlink"><defs /><polyline fill="none" points="84.1763,19.5254 84.1763,14.7525 81.5729,13.4508 59.4441,13.0169 51.2,15.1864 34.7119,25.1661 26.4678,32.5424 18.2237,42.9559 11.2814,56.8407 8.678,69.4237 8.678,81.139 10.8475,92.4203 15.6203,101.5322 22.5627,109.7763 31.2407,116.2847 39.9186,118.8881 48.1627,119.322 58.1424,117.5864 74.6305,108.9085 88.5153,97.1932 93.2881,88.9492 96.7593,79.4034 98.4949,67.6881 97.6271,23.8644 94.1559,12.5831 90.6847,8.678 84.1763,8.678 79.8373,16.4881" stroke="#00007f" stroke-width="2" /><polyline fill="none" points="17.7898,36.0136 34.278,34.7119 42.9559,36.4475 52.9356,42.9559 55.9729,47.2949 59.878,56.8407 59.4441,81.5729 55.9729,92.8542 46.4271,107.6068 40.3525,112.3797 32.1085,114.5492" stroke="#0028ff" stroke-width="2" /><polyline fill="none" points="107.1729,17.3559 97.1932,21.261 86.7797,31.2407 80.7051,43.3898 77.6678,57.2746 78.9695,71.5932 85.478,81.5729 95.0237,85.478 104.1356,85.478" stroke="#00d4ff" stroke-width="2" /><polyline fill="none" points="30.3729,59.4441 46.4271,24.7322 51.2,17.7898" stroke="#7cff79" stroke-width="2" /><polyline fill="none" points="39.4847,70.7254 48.1627,56.4068 55.9729,38.1831" stroke="#ffe500" stroke-width="2" /><polyline fill="none" points="47.2949,83.3085 71.5932,61.6136" stroke="#ff4600" stroke-width="2" /><polyline fill="none" points="46.4271,96.3254 52.0678,103.2678 56.8407,118.0203" stroke="#7f0000" stroke-width="2" /></svg>