<?xml version="1.0" encoding="utf-8" ?>
<svg baseProfile="tiny" height="128" version="1.2" viewBox="0,0,128,128" width="128" xmlns="http://www.w3.org/2000/svg" xmlns:ev="http://www.w3.org/2001/xml-events" xmlns:xlink="http://www.w3.org/1999/xlink"><defs /><polyline fill="none" points="16.4881,32.9763 10.4136,45.5593 9.9797,60.7458 11.2814,70.2915 21.261,91.5525 28.6373,99.7966 37.7492,107.1729 47.7288,111.9458 58.5763,114.9831 70.2915,114.9831 82.4407,111.078 94.5898,101.5322 105.0034,85.478 113.2475,67.6881 118.4542,52.9356 119.322,40.7864 117.5864,30.8068 110.6441,22.5627 100.6644,16.922 73.7627,8.678 58.1424,8.678 41.2203,11.2814 26.9017,18.2237 15.1864,27.7695 9.1119,37.3153 8.678,45.1254" stroke="#00007f" stroke-width="2" /><polyline fill="none" points="31.6746,19.5254 41.2203,25.6 47.7288,32.9763 49.8983,38.6169 50.3322,52.5017 44.6915,68.122 31.2407,92.8542 28.2034,100.6644" stroke="#0080ff" stroke-width="2" /><polyline fill="none" points="85.9119,18.6576 79.4034,28.6373 73.3288,51.2 72.461,65.5186 73.3288,78.9695 75.4983,84.6102 79.4034,88.9492 101.0983,105.4373" stroke="#7cff79" stroke-width="2" /><polyline fill="none" points="35.5797,28.6373 51.6339,22.5627" stroke="#ff9400" stroke-width="2" /><polyline fill="none" points="33.4102,51.6339 41.6542,46.4271" stroke="#7f0000" stroke-width="2" /></svg>