<?xml version="1.0" encoding="utf-8" ?>
<svg baseProfile="tiny" height="128" version="1.2" viewBox="0,0,128,128" width="128" xmlns="http://www.w3.org/2000/svg" xmlns:ev="http://www.w3.org/2001/xml-events" xmlns:xlink="http://www.w3.org/1999/xlink"><defs /><polyline fill="none" points="55.1051,9.9797 36.4475,16.0542 27.7695,22.5627 18.2237,32.5424 12.5831,40.3525 9.9797,46.4271 8.678,63.7831 8.678,83.7424 10.8475,92.8542 19.5254,106.739 24.2983,111.078 35.5797,118.0203 41.2203,119.322 54.2373,119.322 65.5186,114.9831 105.8712,88.5153 108.4746,83.7424 110.6441,70.7254 109.7763,52.9356 107.6068,46.4271 103.2678,39.9186 78.1017,12.5831 70.2915,8.678 63.3492,8.678" stroke="#00007f" stroke-width="2" /><polyline fill="none" points="62.4814,15.1864 59.4441,19.0915 59.4441,34.7119 45.5593,84.6102 44.2576,106.739 37.3153,118.4542" stroke="#0080ff" stroke-width="2" /><polyline fill="none" points="39.4847,35.1458 78.9695,35.1458" stroke="#7cff79" stroke-width="2" /><polyline fill="none" points="37.3153,63.3492 42.522,65.5186 74.1966,65.5186" stroke="#ff9400" stroke-width="2" /><polyline fill="none" points="29.939,89.8169 38.6169,88.9492 54.2373,95.4576 58.1424,95.8915" stroke="#7f0000" stroke-width="2" /></svg>