<?xml version="1.0" encoding="utf-8" ?>
<svg baseProfile="tiny" height="128" version="1.2" viewBox="0,0,128,128" width="128" xmlns="http://www.w3.org/2000/svg" xmlns:ev="http://www.w3.org/2001/xml-events" xmlns:xlink="http://www.w3.org/1999/xlink"><defs /><polyline fill="none" points="100.6644,20.8271 93.2881,15.6203 82.8746,11.7153 75.4983,9.5458 62.0475,9.1119 53.3695,9.9797 45.9932,13.0169 30.3729,24.7322 18.6576,40.3525 15.1864,46.861 9.9797,61.1797 8.678,68.5559 10.4136,81.5729 14.3186,87.6475 25.1661,96.3254 46.4271,105.0034 62.0475,107.6068 77.2339,107.6068 85.478,106.3051 98.061,100.6644 108.4746,91.1186 118.0203,71.5932 119.322,58.1424 118.0203,46.4271 111.5119,32.9763 103.2678,22.1288 94.1559,14.7525 82.0068,10.8475" stroke="#00007f" stroke-width="2" /><polyline fill="none" points="47.7288,8.678 47.7288,26.9017 52.5017,70.7254 52.5017,96.7593 51.2,100.6644" stroke="#0000fe" stroke-width="2" /><polyline fill="none" points="37.7492,26.9017 51.6339,22.9966" stroke="#0060ff" stroke-width="2" /><polyline fill="none" points="43.8237,35.5797 52.9356,33.8441" stroke="#00d4ff" stroke-width="2" /><polyline fill="none" points="47.7288,48.1627 59.4441,47.7288" stroke="#4cffaa" stroke-width="2" /><polyline fill="none" points="39.4847,62.9153 57.7085,63.3492" stroke="#aaff4c" stroke-width="2" /><polyline fill="none" points="37.3153,89.8169 59.0102,89.3831" stroke="#ffe500" stroke-width="2" /><polyline fill="none" points="45.1254,98.061 65.5186,98.061" stroke="#ff7a00" stroke-width="2" /><polyline fill="none" points="84.6102,13.8847 81.139,32.9763 80.2712,43.8237 80.2712,68.9898 83.7424,89.8169 84.6102,108.9085" stroke="#fe1200" stroke-width="2" /><polyline fill="none" points="73.7627,33.8441 73.7627,33.8441" stroke="#7f0000" stroke-width="2" /></svg>