<?xml version="1.0" encoding="utf-8" ?>
<svg baseProfile="tiny" height="128" version="1.2" viewBox="0,0,128,128" width="128" xmlns="http://www.w3.org/2000/svg" xmlns:ev="http://www.w3.org/2001/xml-events" xmlns:xlink="http://www.w3.org/1999/xlink"><defs /><polyline fill="none" points="62.0475,14.3186 50.7661,14.3186 44.6915,16.922 38.6169,16.922 32.1085,19.0915 23.4305,25.6 14.7525,39.4847 12.5831,43.8237 8.678,61.1797 8.678,77.6678 16.4881,89.8169 24.2983,97.1932 33.4102,102.8339 80.2712,102.8339 86.7797,101.0983 108.0407,85.0441 116.7186,75.0644 118.8881,67.6881 119.322,54.6712 112.8136,39.9186 104.1356,26.0339 97.1932,22.5627 89.8169,14.3186 83.7424,10.4136 78.1017,8.678 69.8576,8.678 62.9153,12.1492" stroke="#00007f" stroke-width="2" /><polyline fill="none" points="51.2,13.4508 54.6712,22.1288 55.539,34.7119 48.1627,57.7085 40.7864,71.1593 34.7119,78.1017 23.4305,84.1763 14.7525,84.6102" stroke="#7cff79" stroke-width="2" /><polyline fill="none" points="82.8746,9.9797 82.8746,9.9797" stroke="#7f0000" stroke-width="2" /></svg>