<?xml version="1.0" encoding="utf-8" ?>
<svg baseProfile="tiny" height="128" version="1.2" viewBox="0,0,128,128" width="128" xmlns="http://www.w3.org/2000/svg" xmlns:ev="http://www.w3.org/2001/xml-events" xmlns:xlink="http://www.w3.org/1999/xlink"><defs /><polyline fill="none" points="76.8,9.9797 75.0644,8.678 70.2915,8.678 59.878,10.8475 44.2576,17.7898 29.0712,28.2034 22.1288,34.7119 12.1492,49.8983 9.5458,57.2746 8.678,70.7254 11.2814,75.9322 15.6203,79.8373 27.7695,84.6102 35.1458,85.9119 59.0102,86.3458 66.8203,85.478 82.0068,80.2712 97.1932,72.0271 109.3424,61.1797 117.1525,49.4644 119.322,37.3153 117.1525,30.8068 113.2475,26.4678 106.739,22.1288 91.5525,16.0542 66.3864,14.3186" stroke="#00007f" stroke-width="2" /><polyline fill="none" points="32.1085,24.7322 40.3525,34.7119 41.6542,39.4847 41.6542,49.4644 32.1085,69.4237 18.2237,88.5153" stroke="#0000ff" stroke-width="2" /><polyline fill="none" points="81.5729,14.7525 81.5729,40.7864 84.6102,51.2 92.8542,64.2169 107.6068,73.7627" stroke="#0080ff" stroke-width="2" /><polyline fill="none" points="33.4102,30.3729 38.1831,30.3729" stroke="#15ffe1" stroke-width="2" /><polyline fill="none" points="30.3729,47.2949 32.9763,48.1627 37.3153,47.7288" stroke="#7cff79" stroke-width="2" /><polyline fill="none" points="39.9186,51.6339 40.3525,53.8034 42.522,55.1051" stroke="#e4ff12" stroke-width="2" /><polyline fill="none" points="33.4102,62.0475 35.1458,64.6508 41.6542,67.6881" stroke="#ff9400" stroke-width="2" /><polyline fill="none" points="31.6746,72.0271 30.3729,74.1966 30.8068,76.3661 35.1458,81.139" stroke="#ff1d00" stroke-width="2" /><polyline fill="none" points="30.3729,81.5729 30.3729,83.3085 32.5424,86.7797 38.6169,88.5153" stroke="#7f0000" stroke-width="2" /></svg>