<?xml version="1.0" encoding="utf-8" ?>
<svg baseProfile="tiny" height="128" version="1.2" viewBox="0,0,128,128" width="128" xmlns="http://www.w3.org/2000/svg" xmlns:ev="http://www.w3.org/2001/xml-events" xmlns:xlink="http://www.w3.org/1999/xlink"><defs /><polyline fill="none" points="71.5932,16.922 68.122,16.4881 55.9729,20.3932 41.2203,27.7695 22.9966,45.9932 12.5831,67.2542 9.5458,77.6678 8.678,89.8169 10.8475,100.2305 18.6576,112.3797 23.8644,116.2847 34.278,119.322 57.7085,118.4542 68.9898,116.7186 83.7424,109.7763 90.6847,104.1356 100.6644,85.9119 104.1356,73.3288 104.1356,62.4814 101.9661,48.5966 91.9864,21.261 79.4034,11.7153 68.5559,8.678" stroke="#00007f" stroke-width="2" /><polyline fill="none" points="14.3186,70.7254 18.2237,64.2169 35.1458,50.7661 41.6542,49.4644 45.9932,50.7661 50.3322,59.878 50.3322,96.7593 52.5017,105.0034 55.539,107.6068 60.7458,108.4746" stroke="#7cff79" stroke-width="2" /><polyline fill="none" points="68.9898,36.0136 73.3288,32.5424 79.4034,30.8068 85.0441,32.5424 88.5153,35.5797 93.722,46.861 94.5898,74.1966 95.4576,77.2339" stroke="#7f0000" stroke-width="2" /></svg>