<?xml version="1.0" encoding="utf-8" ?>
<svg baseProfile="tiny" height="128" version="1.2" viewBox="0,0,128,128" width="128" xmlns="http://www.w3.org/2000/svg" xmlns:ev="http://www.w3.org/2001/xml-events" xmlns:xlink="http://www.w3.org/1999/xlink"><defs /><polyline fill="none" points="57.2746,15.1864 47.2949,16.922 42.9559,20.3932 19.0915,47.2949 10.4136,61.1797 8.678,66.8203 8.678,75.9322 17.3559,82.8746 46.4271,95.8915 54.2373,97.6271 67.2542,97.6271 72.8949,96.7593 78.1017,93.2881 91.1186,76.8 95.0237,65.5186 97.1932,37.3153 95.8915,29.5051 91.9864,19.9593 86.3458,14.7525 79.8373,10.8475 73.7627,9.1119 64.2169,8.678 50.7661,13.8847 40.7864,27.7695" stroke="#00007f" stroke-width="2" /><polyline fill="none" points="33.4102,38.1831 33.4102,38.1831" stroke="#0000c8" stroke-width="2" /><polyline fill="none" points="27.3356,62.0475 27.3356,62.0475" stroke="#0000ff" stroke-width="2" /><polyline fill="none" points="26.0339,78.1017 26.0339,78.1017" stroke="#0040ff" stroke-width="2" /><polyline fill="none" points="41.6542,38.1831 41.6542,38.1831" stroke="#0080ff" stroke-width="2" /><polyline fill="none" points="34.7119,58.5763 34.7119,58.5763" stroke="#00c0ff" stroke-width="2" /><polyline fill="none" points="32.1085,70.2915 32.1085,70.2915" stroke="#15ffe1" stroke-width="2" /><polyline fill="none" points="35.5797,72.0271 35.5797,72.0271" stroke="#49ffad" stroke-width="2" /><polyline fill="none" points="38.6169,44.6915 38.6169,44.6915" stroke="#7cff79" stroke-width="2" /><polyline fill="none" points="40.3525,35.1458 37.3153,53.8034" stroke="#b0ff46" stroke-width="2" /><polyline fill="none" points="34.278,63.3492 32.1085,67.6881 32.9763,74.6305" stroke="#e4ff12" stroke-width="2" /><polyline fill="none" points="37.7492,86.3458 40.3525,97.1932 41.6542,99.3627 43.3898,99.7966 43.8237,98.4949" stroke="#ffcf00" stroke-width="2" /><polyline fill="none" points="72.461,23.4305 78.9695,40.7864" stroke="#ff9400" stroke-width="2" /><polyline fill="none" points="67.6881,61.6136 69.8576,75.4983" stroke="#ff5900" stroke-width="2" /><polyline fill="none" points="78.5356,55.1051 77.6678,78.5356 75.4983,89.8169" stroke="#ff1d00" stroke-width="2" /><polyline fill="none" points="79.4034,39.0508 77.6678,43.8237 78.1017,55.9729" stroke="#c30000" stroke-width="2" /><polyline fill="none" points="49.8983,15.6203 43.8237,17.7898 39.4847,26.9017 35.5797,55.539 34.7119,74.6305 34.7119,80.7051 38.1831,94.5898 41.6542,104.5695 49.8983,119.322" stroke="#7f0000" stroke-width="2" /></svg>