<?xml version="1.0" encoding="utf-8" ?>
<svg baseProfile="tiny" height="128" version="1.2" viewBox="0,0,128,128" width="128" xmlns="http://www.w3.org/2000/svg" xmlns:ev="http://www.w3.org/2001/xml-events" xmlns:xlink="http://www.w3.org/1999/xlink"><defs /><polyline fill="none" points="81.139,13.0169 71.5932,10.8475 61.1797,11.7153 48.5966,14.7525 35.1458,20.8271 22.1288,33.4102 19.5254,41.6542 20.8271,52.0678 29.0712,64.2169 38.1831,72.461 53.3695,80.2712 81.139,83.3085 89.8169,82.8746 97.1932,79.8373 110.2102,66.8203 113.2475,54.6712 114.1153,43.3898 112.3797,33.8441 107.1729,24.2983 99.3627,15.1864 84.6102,9.1119 68.5559,8.678 52.9356,15.1864 37.7492,27.3356 22.9966,45.9932 8.678,68.9898" stroke="#00007f" stroke-width="2" /><polyline fill="none" points="46.861,13.8847 49.0305,14.3186 53.3695,18.2237 60.3119,28.6373 63.3492,37.3153 63.3492,42.9559 58.5763,64.2169 46.4271,93.722" stroke="#7cff79" stroke-width="2" /><polyline fill="none" points="104.5695,11.2814 85.478,42.522 82.0068,51.2 80.2712,60.3119 81.139,69.4237 85.9119,77.2339 95.0237,84.6102 119.322,97.1932" stroke="#7f0000" stroke-width="2" /></svg>