<?xml version="1.0" encoding="utf-8" ?>
<svg baseProfile="tiny" height="128" version="1.2" viewBox="0,0,128,128" width="128" xmlns="http://www.w3.org/2000/svg" xmlns:ev="http://www.w3.org/2001/xml-events" xmlns:xlink="http://www.w3.org/1999/xlink"><defs /><polyline fill="none" points="72.461,17.7898 67.2542,18.2237 50.7661,26.0339 35.5797,36.0136 27.3356,43.8237 14.7525,61.1797 9.1119,78.5356 8.678,87.2136 9.5458,94.5898 13.0169,101.5322 26.4678,113.2475 36.0136,117.1525 46.861,118.8881 57.7085,118.8881 69.4237,117.1525 81.139,113.2475 91.9864,106.739 100.6644,98.4949 108.9085,89.3831 114.5492,78.5356 118.8881,58.1424 119.322,47.2949 117.5864,36.8814 113.6814,28.2034 107.1729,20.8271 98.061,15.1864 87.6475,12.5831 75.4983,12.5831 64.6508,14.7525 54.6712,19.5254 42.9559,29.939" stroke="#00007f" stroke-width="2" /><polyline fill="none" points="34.278,44.6915 47.2949,53.3695 52.9356,63.7831 54.6712,71.1593 55.1051,84.6102 51.6339,103.7017" stroke="#0000ff" stroke-width="2" /><polyline fill="none" points="100.2305,8.678 91.5525,50.3322 91.5525,68.9898 93.722,73.3288 100.2305,78.1017 107.6068,79.8373 111.078,78.9695" stroke="#0080ff" stroke-width="2" /><polyline fill="none" points="32.9763,65.0847 42.9559,56.4068 58.5763,47.2949" stroke="#15ffe1" stroke-width="2" /><polyline fill="none" points="44.6915,77.2339 64.2169,61.1797" stroke="#7cff79" stroke-width="2" /><polyline fill="none" points="41.6542,92.4203 72.8949,80.7051" stroke="#e4ff12" stroke-width="2" /><polyline fill="none" points="74.6305,46.861 103.7017,27.3356" stroke="#ff9400" stroke-width="2" /><polyline fill="none" points="86.7797,57.7085 106.3051,44.2576" stroke="#ff1d00" stroke-width="2" /><polyline fill="none" points="79.8373,70.7254 91.5525,66.3864 107.1729,58.1424" stroke="#7f0000" stroke-width="2" /></svg>