<?xml version="1.0" encoding="utf-8" ?>
<svg baseProfile="tiny" height="128" version="1.2" viewBox="0,0,128,128" width="128" xmlns="http://www.w3.org/2000/svg" xmlns:ev="http://www.w3.org/2001/xml-events" xmlns:xlink="http://www.w3.org/1999/xlink"><defs /><polyline fill="none" points="52.6803,17.8503 40.0544,18.7211 33.5238,20.898 23.9456,26.5578 16.1088,34.3946 12.6259,40.4898 9.5782,49.1973 8.7075,67.9184 11.3197,79.2381 17.8503,96.6531 23.5102,104.4898 34.3946,113.1973 42.6667,117.551 51.3741,119.2925 68.3537,119.2925 76.6259,117.551 98.8299,109.2789 106.2313,101.8776 111.4558,93.6054 115.3741,77.0612 114.9388,64.0 112.7619,50.9388 101.4422,30.0408 87.9456,16.1088 79.6735,10.8844 69.2245,8.7075 60.9524,9.5782 52.6803,12.6259 37.4422,21.3333" stroke="#00007f" stroke-width="2" /><polyline fill="none" points="21.3333,26.9932 25.6871,27.8639 33.5238,32.6531 44.8435,43.9728 50.5034,53.1156 53.9864,65.3061 53.9864,71.8367 49.6327,81.415 36.1361,94.4762 29.6054,97.9592" stroke="#7cff79" stroke-width="2" /><polyline fill="none" points="51.3741,69.6599 64.8707,70.966 76.1905,77.0612 81.8503,83.1565 88.8163,94.0408 94.4762,110.585" stroke="#7f0000" stroke-width="2" /></svg>