<?xml version="1.0" encoding="utf-8" ?>
<svg baseProfile="tiny" height="128" version="1.2" viewBox="0,0,128,128" width="128" xmlns="http://www.w3.org/2000/svg" xmlns:ev="http://www.w3.org/2001/xml-events" xmlns:xlink="http://www.w3.org/1999/xlink"><defs /><polyline fill="none" points="82.0068,25.6 69.4237,18.6576 59.878,16.0542 38.6169,16.0542 26.4678,22.9966 19.5254,30.3729 14.7525,37.7492 9.5458,49.0305 8.678,70.2915 11.2814,80.2712 15.6203,88.9492 21.261,98.061 29.939,107.6068 41.6542,114.5492 49.4644,117.5864 62.4814,119.322 80.7051,119.322 95.8915,108.9085 107.6068,96.7593 111.5119,89.8169 115.4169,78.5356 118.8881,50.3322 118.8881,30.8068 111.078,18.6576 99.7966,9.5458 85.478,8.678 64.6508,15.1864 53.8034,20.8271" stroke="#00007f" stroke-width="2" /><polyline fill="none" points="42.522,12.1492 42.9559,14.3186 45.1254,16.0542 49.4644,40.3525 49.4644,85.0441 47.7288,100.6644 45.1254,109.7763 50.7661,105.4373" stroke="#004cff" stroke-width="2" /><polyline fill="none" points="91.5525,12.1492 86.7797,41.2203 86.7797,83.3085 91.1186,98.9288 94.1559,104.1356" stroke="#29ffcd" stroke-width="2" /><polyline fill="none" points="29.5051,39.4847 57.7085,39.0508 62.9153,37.3153" stroke="#cdff29" stroke-width="2" /><polyline fill="none" points="42.0881,48.5966 46.861,50.3322 59.0102,51.2" stroke="#ff6700" stroke-width="2" /><polyline fill="none" points="42.522,69.4237 61.6136,70.2915" stroke="#7f0000" stroke-width="2" /></svg>