<?xml version="1.0" encoding="utf-8" ?>
<svg baseProfile="tiny" height="128" version="1.2" viewBox="0,0,128,128" width="128" xmlns="http://www.w3.org/2000/svg" xmlns:ev="http://www.w3.org/2001/xml-events" xmlns:xlink="http://www.w3.org/1999/xlink"><defs /><polyline fill="none" points="51.6339,8.678 38.1831,19.5254 19.5254,42.0881 13.4508,53.8034 9.1119,65.0847 8.678,76.3661 9.5458,78.5356 16.0542,84.6102 25.6,90.2508 44.2576,98.9288 57.2746,102.8339 69.4237,101.9661 83.7424,94.5898 107.1729,78.9695 116.7186,64.6508 119.322,52.5017 119.322,42.0881 116.2847,29.5051 110.2102,16.0542 105.0034,14.3186 81.5729,11.7153 67.6881,11.7153 53.3695,13.0169 32.5424,19.0915" stroke="#00007f" stroke-width="2" /><polyline fill="none" points="28.2034,26.9017 31.6746,41.6542 33.8441,66.8203 24.7322,82.0068 12.5831,92.4203" stroke="#00d4ff" stroke-width="2" /><polyline fill="none" points="115.8508,32.5424 83.7424,70.7254 77.6678,88.0814 81.139,92.8542" stroke="#ffe500" stroke-width="2" /><polyline fill="none" points="29.0712,57.2746 91.9864,55.539 103.2678,57.7085" stroke="#7f0000" stroke-width="2" /></svg>