<?xml version="1.0" encoding="utf-8" ?>
<svg baseProfile="tiny" height="128" version="1.2" viewBox="0,0,128,128" width="128" xmlns="http://www.w3.org/2000/svg" xmlns:ev="http://www.w3.org/2001/xml-events" xmlns:xlink="http://www.w3.org/1999/xlink"><defs /><polyline fill="none" points="70.7254,8.678 50.7661,13.8847 33.8441,22.1288 22.5627,31.2407 16.922,39.4847 10.4136,53.8034 8.678,63.3492 10.4136,79.8373 14.3186,86.3458 22.5627,93.2881 31.6746,97.1932 41.6542,98.061 57.2746,95.8915 73.7627,90.6847 94.1559,78.1017 101.5322,70.7254 109.7763,59.0102 110.2102,56.8407 107.1729,45.1254 95.8915,22.5627 89.8169,15.1864 83.3085,10.8475 77.2339,9.5458 69.8576,9.9797 66.3864,12.5831" stroke="#00007f" stroke-width="2" /><polyline fill="none" points="41.6542,24.2983 42.522,26.9017 38.6169,44.6915 29.5051,60.7458" stroke="#004cff" stroke-width="2" /><polyline fill="none" points="41.2203,37.3153 38.6169,58.5763 26.0339,98.061" stroke="#29ffcd" stroke-width="2" /><polyline fill="none" points="34.7119,73.7627 19.5254,95.8915" stroke="#cdff29" stroke-width="2" /><polyline fill="none" points="75.9322,9.5458 72.0271,25.6 72.8949,36.0136 76.8,45.9932 79.4034,49.0305 84.6102,51.6339" stroke="#ff6700" stroke-width="2" /><polyline fill="none" points="78.1017,42.9559 85.9119,59.878 98.061,74.6305 109.7763,78.9695 119.322,78.9695" stroke="#7f0000" stroke-width="2" /></svg>