<?xml version="1.0" encoding="utf-8" ?>
<svg baseProfile="tiny" height="128" version="1.2" viewBox="0,0,128,128" width="128" xmlns="http://www.w3.org/2000/svg" xmlns:ev="http://www.w3.org/2001/xml-events" xmlns:xlink="http://www.w3.org/1999/xlink"><defs /><polyline fill="none" points="86.7797,10.8475 78.1017,8.678 57.2746,8.678 45.5593,11.7153 38.1831,16.0542 35.1458,19.0915 26.9017,32.1085 13.0169,66.8203 8.678,86.3458 8.678,96.7593 11.2814,103.7017 18.2237,109.3424 29.939,114.9831 54.6712,119.322 83.3085,115.8508 95.0237,112.8136 100.2305,109.3424 109.7763,80.2712 111.078,71.1593 109.3424,44.6915 104.1356,32.5424 90.2508,19.5254 79.4034,12.5831 75.4983,10.4136 67.6881,9.9797" stroke="#00007f" stroke-width="2" /><polyline fill="none" points="19.5254,109.3424 39.4847,95.0237 50.3322,85.478 60.7458,69.4237 64.2169,59.0102 65.9525,35.5797 58.5763,15.6203" stroke="#7cff79" stroke-width="2" /><polyline fill="none" points="95.8915,110.6441 93.2881,100.2305 93.722,75.4983 101.5322,45.5593 105.0034,40.7864" stroke="#7f0000" stroke-width="2" /></svg>