<?xml version="1.0" encoding="utf-8" ?>
<svg baseProfile="tiny" height="128" version="1.2" viewBox="0,0,128,128" width="128" xmlns="http://www.w3.org/2000/svg" xmlns:ev="http://www.w3.org/2001/xml-events" xmlns:xlink="http://www.w3.org/1999/xlink"><defs /><polyline fill="none" points="82.8746,89.8169 80.2712,91.5525 73.7627,91.5525 70.7254,90.2508 32.9763,65.9525 16.922,57.7085 11.2814,52.5017 8.678,47.2949 9.1119,35.5797 11.2814,32.1085 31.6746,16.4881 37.7492,13.8847 56.4068,8.678 82.8746,9.1119 91.5525,13.0169 104.1356,24.2983 111.9458,39.4847 119.322,57.2746 119.322,69.4237 118.8881,72.461 111.5119,81.5729 94.1559,99.7966 88.9492,98.4949 81.139,91.9864 80.7051,82.8746" stroke="#00007f" stroke-width="2" /><polyline fill="none" points="104.5695,19.9593 101.9661,21.6949 96.7593,29.0712 91.5525,38.6169 88.0814,49.0305 86.3458,60.3119 86.3458,91.5525 90.2508,96.3254 92.4203,94.1559 91.5525,88.5153 80.2712,77.6678" stroke="#7cff79" stroke-width="2" /><polyline fill="none" points="33.4102,16.4881 47.7288,19.5254 53.8034,22.9966 56.4068,25.6 59.0102,31.6746 60.3119,60.3119 55.539,67.6881 47.7288,72.0271" stroke="#7f0000" stroke-width="2" /></svg>