<?xml version="1.0" encoding="utf-8" ?>
<svg baseProfile="tiny" height="128" version="1.2" viewBox="0,0,128,128" width="128" xmlns="http://www.w3.org/2000/svg" xmlns:ev="http://www.w3.org/2001/xml-events" xmlns:xlink="http://www.w3.org/1999/xlink"><defs /><polyline fill="none" points="15.1864,44.2576 11.7153,49.8983 9.1119,60.7458 8.678,70.7254 9.9797,75.4983 14.3186,84.6102 19.0915,89.3831 27.7695,94.5898 39.4847,98.4949 49.8983,99.7966 69.8576,99.7966 93.2881,91.5525 102.4,85.0441 108.4746,79.4034 118.4542,61.1797 119.322,51.6339 116.2847,39.9186 103.2678,23.4305 84.1763,12.1492 67.2542,8.678 58.5763,9.1119 47.2949,13.8847 41.6542,20.3932 39.0508,25.6 26.0339,40.3525 18.2237,47.7288 11.2814,52.5017 9.5458,55.9729" stroke="#00007f" stroke-width="2" /><polyline fill="none" points="39.9186,30.3729 54.6712,32.1085 69.8576,37.3153 83.3085,48.1627 86.3458,57.7085 86.7797,68.122 82.4407,81.139 81.5729,82.8746 79.4034,82.4407" stroke="#00d4ff" stroke-width="2" /><polyline fill="none" points="39.9186,42.9559 52.5017,61.1797 55.539,69.8576 56.8407,78.1017 54.6712,85.0441 52.5017,88.9492 47.7288,91.9864 47.7288,90.2508" stroke="#ffe500" stroke-width="2" /><polyline fill="none" points="59.0102,24.2983 63.7831,22.9966 78.5356,23.8644 85.9119,26.9017 95.8915,35.1458 103.7017,46.4271 105.8712,55.539 107.1729,66.3864 104.5695,75.0644" stroke="#7f0000" stroke-width="2" /></svg>