<?xml version="1.0" encoding="utf-8" ?>
<svg baseProfile="tiny" height="128" version="1.2" viewBox="0,0,128,128" width="128" xmlns="http://www.w3.org/2000/svg" xmlns:ev="http://www.w3.org/2001/xml-events" xmlns:xlink="http://www.w3.org/1999/xlink"><defs /><polyline fill="none" points="96.3254,16.0542 93.2881,12.5831 88.9492,10.8475 70.7254,8.678 43.3898,8.678 34.7119,9.9797 22.1288,14.3186 16.0542,19.5254 11.7153,30.8068 8.678,42.9559 8.678,65.5186 10.4136,74.6305 19.9593,89.3831 27.3356,95.8915 34.7119,98.9288 53.3695,98.9288 66.8203,97.6271 88.9492,92.4203 107.6068,80.7051 117.5864,64.6508 119.322,57.7085 119.322,42.0881 117.5864,39.0508 110.6441,33.8441 101.0983,23.8644 91.1186,17.7898" stroke="#00007f" stroke-width="2" /><polyline fill="none" points="90.6847,11.7153 85.0441,17.7898 82.8746,22.9966 82.4407,53.8034 89.3831,68.9898 100.2305,75.4983" stroke="#7cff79" stroke-width="2" /><polyline fill="none" points="25.1661,17.3559 35.1458,19.9593 42.0881,26.4678 51.2,45.9932 52.5017,57.7085 52.0678,70.2915 38.6169,91.5525 29.0712,98.061" stroke="#7f0000" stroke-width="2" /></svg>