<?xml version="1.0" encoding="utf-8" ?>
<svg baseProfile="tiny" height="128" version="1.2" viewBox="0,0,128,128" width="128" xmlns="http://www.w3.org/2000/svg" xmlns:ev="http://www.w3.org/2001/xml-events" xmlns:xlink="http://www.w3.org/1999/xlink"><defs /><polyline fill="none" points="63.7831,16.0542 61.1797,12.1492 53.3695,11.2814 38.1831,16.922 26.0339,24.2983 18.2237,31.2407 13.0169,38.1831 9.5458,45.9932 8.678,58.1424 9.5458,63.3492 13.4508,74.1966 16.922,79.8373 23.8644,88.0814 32.1085,95.0237 46.4271,100.6644 62.4814,101.0983 70.7254,97.6271 78.9695,91.5525 92.4203,74.1966 98.9288,59.0102 101.5322,45.9932 101.0983,37.3153 98.9288,29.939 93.722,18.2237 87.2136,11.2814 81.139,9.5458 53.8034,8.678 49.4644,9.9797 49.8983,13.4508" stroke="#00007f" stroke-width="2" /><polyline fill="none" points="49.4644,10.4136 55.539,35.5797 62.9153,115.8508 63.7831,119.322 64.2169,115.4169" stroke="#7f0000" stroke-width="2" /></svg>