<?xml version="1.0" encoding="utf-8" ?>
<svg baseProfile="tiny" height="128" version="1.2" viewBox="0,0,128,128" width="128" xmlns="http://www.w3.org/2000/svg" xmlns:ev="http://www.w3.org/2001/xml-events" xmlns:xlink="http://www.w3.org/1999/xlink"><defs /><polyline fill="none" points="68.5559,8.678 42.0881,8.678 23.8644,13.8847 19.9593,19.0915 10.8475,42.0881 8.678,51.6339 8.678,72.461 13.0169,86.7797 23.8644,98.061 42.9559,107.1729 59.4441,112.3797 65.5186,116.2847 75.0644,119.322 80.7051,119.322 85.9119,116.2847 92.8542,108.0407 99.7966,85.0441 103.2678,65.5186 101.0983,60.3119 91.5525,49.0305 83.7424,34.278 78.9695,29.939 72.8949,13.0169 69.4237,8.678" stroke="#00007f" stroke-width="2" /><polyline fill="none" points="30.8068,105.0034 35.1458,93.722 41.2203,82.8746 44.2576,68.122 46.4271,26.0339 39.0508,15.6203 26.9017,10.8475" stroke="#7cff79" stroke-width="2" /><polyline fill="none" points="67.6881,113.2475 67.6881,101.9661 64.6508,85.0441 64.6508,68.9898 69.4237,52.5017 79.4034,46.4271 106.3051,38.1831" stroke="#7f0000" stroke-width="2" /></svg>