<?xml version="1.0" encoding="utf-8" ?>
<svg baseProfile="tiny" height="128" version="1.2" viewBox="0,0,128,128" width="128" xmlns="http://www.w3.org/2000/svg" xmlns:ev="http://www.w3.org/2001/xml-events" xmlns:xlink="http://www.w3.org/1999/xlink"><defs /><polyline fill="none" points="67.6881,15.6203 59.878,11.7153 49.4644,11.2814 42.9559,12.5831 25.6,21.6949 19.0915,32.1085 12.5831,45.5593 9.9797,52.5017 8.678,64.2169 11.2814,84.1763 13.8847,90.6847 22.1288,102.8339 39.9186,116.2847 46.4271,118.4542 61.1797,119.322 78.1017,112.8136 85.9119,107.1729 98.9288,91.5525 103.7017,83.3085 108.4746,68.122 108.0407,51.6339 105.4373,43.3898 95.8915,27.3356 84.6102,16.922 78.5356,13.4508 67.6881,9.5458 58.1424,8.678 49.0305,12.1492 41.6542,18.6576" stroke="#00007f" stroke-width="2" /><polyline fill="none" points="38.6169,30.3729 43.8237,24.7322 40.7864,32.5424 45.1254,32.5424 45.9932,38.6169 51.6339,39.0508 51.6339,45.9932 53.8034,46.861 54.2373,55.539 58.1424,59.878 61.6136,72.8949 66.3864,75.4983 68.5559,81.139 75.0644,90.2508 75.9322,95.0237 83.3085,102.4" stroke="#7cff79" stroke-width="2" /><polyline fill="none" points="31.2407,22.5627 31.6746,20.3932 34.7119,17.7898 39.9186,18.6576 42.0881,20.3932 42.522,30.3729 44.6915,34.7119 55.539,38.6169 57.7085,40.7864 60.7458,54.6712 69.4237,64.2169 69.4237,80.7051 74.6305,86.3458 80.2712,98.4949" stroke="#7f0000" stroke-width="2" /></svg>