<?xml version="1.0" encoding="utf-8" ?>
<svg baseProfile="tiny" height="128" version="1.2" viewBox="0,0,128,128" width="128" xmlns="http://www.w3.org/2000/svg" xmlns:ev="http://www.w3.org/2001/xml-events" xmlns:xlink="http://www.w3.org/1999/xlink"><defs /><polyline fill="none" points="15.6203,8.678 80.7051,13.8847 118.8881,13.4508" stroke="#00007f" stroke-width="2" /><polyline fill="none" points="16.4881,9.5458 16.0542,49.4644 18.6576,78.1017" stroke="#0000f1" stroke-width="2" /><polyline fill="none" points="118.8881,8.678 119.322,24.2983 115.8508,42.0881 113.2475,69.8576" stroke="#004cff" stroke-width="2" /><polyline fill="none" points="26.4678,78.5356 32.5424,78.9695 62.0475,75.0644 71.5932,75.9322 91.9864,80.2712" stroke="#00b0ff" stroke-width="2" /><polyline fill="none" points="8.678,47.2949 46.861,47.7288 66.8203,44.2576 88.9492,43.3898 116.2847,49.0305" stroke="#29ffcd" stroke-width="2" /><polyline fill="none" points="22.1288,62.0475 29.5051,60.7458 95.8915,59.4441 115.4169,63.7831" stroke="#7cff79" stroke-width="2" /><polyline fill="none" points="31.2407,17.7898 32.5424,33.4102 32.1085,63.3492 33.8441,78.1017" stroke="#cdff29" stroke-width="2" /><polyline fill="none" points="67.2542,8.678 62.0475,31.6746 55.9729,73.3288" stroke="#ffc400" stroke-width="2" /><polyline fill="none" points="97.6271,14.3186 94.5898,29.939 92.4203,59.878" stroke="#ff6700" stroke-width="2" /><polyline fill="none" points="12.5831,32.5424 20.8271,29.939 33.8441,30.8068 95.4576,39.0508 107.6068,43.8237" stroke="#f10700" stroke-width="2" /><polyline fill="none" points="34.7119,55.539 58.5763,50.7661 82.4407,52.5017" stroke="#7f0000" stroke-width="2" /></svg>