<?xml version="1.0" encoding="utf-8" ?>
<svg baseProfile="tiny" height="128" version="1.2" viewBox="0,0,128,128" width="128" xmlns="http://www.w3.org/2000/svg" xmlns:ev="http://www.w3.org/2001/xml-events" xmlns:xlink="http://www.w3.org/1999/xlink"><defs /><polyline fill="none" points="32.5424,9.9797 22.9966,15.6203 18.2237,21.261 12.1492,33.8441 9.1119,48.1627 8.678,57.2746 10.8475,65.0847 16.4881,77.2339 25.6,90.2508 36.8814,101.0983 46.4271,108.0407 56.4068,112.8136 66.8203,114.5492 80.2712,114.1153 94.5898,107.1729 99.7966,102.4 105.4373,93.2881 111.5119,75.4983 111.078,58.1424 102.4,36.8814 94.1559,26.4678 78.1017,15.6203 64.6508,9.9797 56.4068,9.1119 40.3525,9.9797 32.9763,13.4508 27.3356,19.9593" stroke="#00007f" stroke-width="2" /><polyline fill="none" points="51.2,8.678 32.5424,35.5797 29.939,45.5593 30.8068,66.3864 34.7119,88.0814 37.3153,96.3254" stroke="#0010ff" stroke-width="2" /><polyline fill="none" points="91.5525,18.6576 81.5729,42.9559 72.461,76.3661 71.5932,101.0983 75.0644,114.1153 77.2339,118.4542 79.4034,119.322" stroke="#00a4ff" stroke-width="2" /><polyline fill="none" points="32.1085,20.8271 42.522,31.6746" stroke="#3fffb7" stroke-width="2" /><polyline fill="none" points="24.2983,51.6339 36.8814,56.4068" stroke="#b7ff3f" stroke-width="2" /><polyline fill="none" points="26.4678,81.5729 42.0881,83.3085" stroke="#ffb900" stroke-width="2" /><polyline fill="none" points="73.3288,35.1458 92.4203,39.0508" stroke="#ff3000" stroke-width="2" /><polyline fill="none" points="72.0271,65.0847 80.2712,68.5559" stroke="#7f0000" stroke-width="2" /></svg>