<?xml version="1.0" encoding="utf-8" ?>
<svg baseProfile="tiny" height="128" version="1.2" viewBox="0,0,128,128" width="128" xmlns="http://www.w3.org/2000/svg" xmlns:ev="http://www.w3.org/2001/xml-events" xmlns:xlink="http://www.w3.org/1999/xlink"><defs /><polyline fill="none" points="21.6949,17.7898 16.4881,23.8644 9.5458,45.1254 8.678,55.1051 9.5458,71.1593 18.6576,91.9864 25.1661,99.3627 35.5797,106.739 46.861,111.9458 69.8576,113.2475 84.6102,111.078 96.3254,106.739 106.739,99.7966 112.8136,89.3831 118.8881,71.5932 119.322,51.2 114.5492,39.0508 107.1729,26.9017 94.5898,16.4881 76.8,10.4136 58.1424,8.678 31.2407,13.8847 22.9966,19.0915 20.3932,22.9966" stroke="#00007f" stroke-width="2" /><polyline fill="none" points="22.1288,22.9966 31.6746,25.6 38.1831,31.6746 46.4271,44.2576 54.6712,61.6136 61.6136,91.5525 61.6136,108.0407 59.0102,113.6814" stroke="#7cff79" stroke-width="2" /><polyline fill="none" points="87.2136,14.3186 77.6678,25.6 75.0644,33.8441 73.7627,54.6712 81.139,95.8915" stroke="#7f0000" stroke-width="2" /></svg>