<?xml version="1.0" encoding="utf-8" ?>
<svg baseProfile="tiny" height="128" version="1.2" viewBox="0,0,128,128" width="128" xmlns="http://www.w3.org/2000/svg" xmlns:ev="http://www.w3.org/2001/xml-events" xmlns:xlink="http://www.w3.org/1999/xlink"><defs /><polyline fill="none" points="73.3288,43.8237 68.122,39.4847 51.2,32.5424 36.4475,29.5051 28.2034,29.939 17.7898,35.1458 11.7153,43.3898 9.5458,50.7661 10.8475,58.5763 19.0915,66.3864 31.6746,70.7254 44.2576,69.8576 60.7458,63.7831 66.8203,60.7458 69.4237,57.2746 72.8949,48.5966 72.8949,38.1831 70.2915,34.278 66.8203,32.9763" stroke="#00007f" stroke-width="2" /><polyline fill="none" points="44.6915,29.939 38.6169,42.0881 28.6373,49.8983 17.7898,55.1051 8.678,54.6712" stroke="#0000f1" stroke-width="2" /><polyline fill="none" points="68.5559,39.0508 56.8407,42.9559 49.0305,49.0305 42.522,60.7458 41.2203,70.2915" stroke="#004cff" stroke-width="2" /><polyline fill="none" points="42.9559,47.7288 54.2373,53.8034" stroke="#00b0ff" stroke-width="2" /><polyline fill="none" points="52.9356,39.9186 62.4814,42.9559" stroke="#29ffcd" stroke-width="2" /><polyline fill="none" points="62.4814,37.3153 68.5559,44.6915" stroke="#7cff79" stroke-width="2" /><polyline fill="none" points="38.1831,58.1424 48.5966,59.878" stroke="#cdff29" stroke-width="2" /><polyline fill="none" points="18.2237,47.7288 21.6949,55.1051 26.4678,57.7085" stroke="#ffc400" stroke-width="2" /><polyline fill="none" points="32.5424,41.6542 37.3153,47.7288 39.4847,48.1627" stroke="#ff6700" stroke-width="2" /><polyline fill="none" points="39.4847,35.1458 47.2949,37.3153" stroke="#f10700" stroke-width="2" /><polyline fill="none" points="25.6,21.6949 36.0136,16.4881 51.2,12.1492 63.3492,10.4136 61.6136,13.0169 55.1051,17.7898 56.4068,18.2237 91.1186,8.678 78.1017,16.0542 104.5695,13.0169 91.1186,20.8271 90.6847,22.5627 119.322,24.7322 117.5864,26.9017 99.3627,37.3153 101.9661,39.0508 116.7186,40.3525 88.0814,52.0678 96.7593,51.6339 81.5729,56.4068 69.8576,63.3492" stroke="#7f0000" stroke-width="2" /></svg>