<?xml version="1.0" encoding="utf-8" ?>
<svg baseProfile="tiny" height="128" version="1.2" viewBox="0,0,128,128" width="128" xmlns="http://www.w3.org/2000/svg" xmlns:ev="http://www.w3.org/2001/xml-events" xmlns:xlink="http://www.w3.org/1999/xlink"><defs /><polyline fill="none" points="46.861,38.1831 45.9932,37.3153" stroke="#00007f" stroke-width="2" /><polyline fill="none" points="24.2983,22.9966 24.7322,20.3932 27.7695,17.7898 36.8814,15.1864 51.6339,14.7525 65.0847,17.3559 86.3458,24.2983 97.1932,29.939 107.1729,38.1831 114.5492,47.7288 117.5864,54.2373 119.322,63.3492 118.8881,68.122 114.5492,75.9322 102.4,86.7797 84.6102,98.4949 74.1966,103.7017 64.2169,105.8712 56.8407,105.4373 49.8983,103.7017 42.9559,99.3627 22.1288,77.2339 15.1864,67.2542 9.9797,56.8407 8.678,44.2576 12.5831,35.5797 19.5254,26.9017 31.2407,13.8847 37.7492,9.1119 39.9186,8.678 45.5593,14.7525" stroke="#0000ff" stroke-width="2" /><polyline fill="none" points="38.6169,16.4881 39.9186,15.6203 42.522,18.6576 46.861,32.5424 48.1627,51.2 46.861,57.7085 42.9559,66.3864 29.939,80.7051 23.8644,89.8169 15.6203,93.722 15.1864,91.5525 16.4881,88.5153" stroke="#0080ff" stroke-width="2" /><polyline fill="none" points="96.7593,34.278 94.5898,32.9763 92.4203,37.3153 86.7797,68.122 88.0814,81.5729 89.8169,84.6102 94.1559,86.7797" stroke="#15ffe1" stroke-width="2" /><polyline fill="none" points="85.478,36.4475 99.7966,39.0508" stroke="#7cff79" stroke-width="2" /><polyline fill="none" points="78.5356,53.8034 91.9864,58.1424 94.5898,59.878" stroke="#e4ff12" stroke-width="2" /><polyline fill="none" points="80.2712,71.5932 97.1932,74.1966" stroke="#ff9400" stroke-width="2" /><polyline fill="none" points="84.1763,82.8746 93.2881,82.8746 104.1356,78.9695" stroke="#ff1d00" stroke-width="2" /><polyline fill="none" points="47.2949,25.1661 59.4441,29.939 62.9153,34.278" stroke="#7f0000" stroke-width="2" /></svg>