<?xml version="1.0" encoding="utf-8" ?>
<svg baseProfile="tiny" height="128" version="1.2" viewBox="0,0,128,128" width="128" xmlns="http://www.w3.org/2000/svg" xmlns:ev="http://www.w3.org/2001/xml-events" xmlns:xlink="http://www.w3.org/1999/xlink"><defs /><polyline fill="none" points="72.8949,116.2847 68.5559,118.8881 64.6508,119.322 39.9186,118.0203 26.9017,110.6441 17.3559,101.9661 11.7153,94.1559 9.5458,84.6102 8.678,56.8407 9.9797,47.7288 14.3186,38.1831 23.8644,26.0339 41.2203,14.7525 52.5017,10.8475 71.1593,9.5458 78.9695,11.2814 96.3254,21.6949 106.739,31.6746 112.8136,42.0881 114.9831,51.2 116.2847,75.0644 114.1153,84.6102 109.7763,92.4203 97.1932,102.8339 78.9695,116.7186 72.0271,118.8881" stroke="#00007f" stroke-width="2" /><polyline fill="none" points="8.678,49.4644 36.4475,56.4068 52.9356,67.2542 59.878,77.6678 60.7458,81.5729 62.4814,102.4" stroke="#004cff" stroke-width="2" /><polyline fill="none" points="82.8746,8.678 81.139,9.5458 79.4034,13.0169 75.0644,29.939 74.6305,49.0305 76.8,64.2169 82.8746,75.0644 87.2136,78.1017 91.9864,79.4034 105.8712,79.8373" stroke="#29ffcd" stroke-width="2" /><polyline fill="none" points="61.6136,42.522 63.7831,40.7864 75.0644,39.4847" stroke="#cdff29" stroke-width="2" /><polyline fill="none" points="72.8949,60.7458 84.6102,59.878" stroke="#ff6700" stroke-width="2" /><polyline fill="none" points="84.6102,79.4034 95.0237,76.8 105.0034,70.7254" stroke="#7f0000" stroke-width="2" /></svg>