<?xml version="1.0" encoding="utf-8" ?>
<svg baseProfile="tiny" height="128" version="1.2" viewBox="0,0,128,128" width="128" xmlns="http://www.w3.org/2000/svg" xmlns:ev="http://www.w3.org/2001/xml-events" xmlns:xlink="http://www.w3.org/1999/xlink"><defs /><polyline fill="none" points="65.0847,12.5831 62.9153,10.8475 55.539,10.8475 42.9559,16.0542 28.2034,28.2034 17.7898,41.6542 11.2814,54.6712 8.678,68.122 9.9797,80.2712 13.4508,88.0814 17.7898,94.5898 26.0339,101.0983 32.5424,104.1356 44.6915,107.1729 58.5763,108.0407 78.5356,105.4373 91.5525,101.0983 103.2678,94.1559 111.5119,86.3458 115.8508,77.6678 119.322,62.4814 117.5864,47.7288 113.6814,39.4847 108.9085,32.9763 94.1559,22.5627 74.1966,9.5458 68.122,8.678" stroke="#00007f" stroke-width="2" /><polyline fill="none" points="50.7661,105.0034 56.8407,89.3831 71.1593,67.6881 93.2881,45.5593 102.4,39.9186 112.8136,36.0136" stroke="#0000ff" stroke-width="2" /><polyline fill="none" points="21.6949,91.1186 29.939,63.3492 41.6542,41.2203 53.3695,27.3356 63.3492,19.9593 69.4237,17.7898" stroke="#0080ff" stroke-width="2" /><polyline fill="none" points="16.0542,69.8576 29.5051,71.1593" stroke="#15ffe1" stroke-width="2" /><polyline fill="none" points="36.8814,39.9186 46.4271,43.8237 55.539,42.522" stroke="#7cff79" stroke-width="2" /><polyline fill="none" points="45.5593,29.5051 55.1051,32.1085 61.1797,31.2407" stroke="#e4ff12" stroke-width="2" /><polyline fill="none" points="23.4305,55.9729 39.4847,62.9153" stroke="#ff9400" stroke-width="2" /><polyline fill="none" points="49.8983,87.6475 59.0102,92.4203 68.122,92.4203" stroke="#ff1d00" stroke-width="2" /><polyline fill="none" points="66.3864,61.6136 75.9322,66.3864 82.0068,65.9525" stroke="#7f0000" stroke-width="2" /></svg>