<?xml version="1.0" encoding="utf-8" ?>
<svg baseProfile="tiny" height="128" version="1.2" viewBox="0,0,128,128" width="128" xmlns="http://www.w3.org/2000/svg" xmlns:ev="http://www.w3.org/2001/xml-events" xmlns:xlink="http://www.w3.org/1999/xlink"><defs /><polyline fill="none" points="62.0475,8.678 45.9932,8.678 29.939,16.0542 18.2237,24.7322 10.4136,36.8814 8.678,43.8237 9.1119,61.6136 18.2237,76.3661 27.3356,85.478 33.4102,90.2508 53.3695,97.6271 64.2169,95.4576 84.1763,87.2136 101.5322,78.9695 106.739,75.0644 115.8508,66.3864 119.322,54.6712 119.322,42.0881 115.8508,33.8441 111.078,29.0712 94.1559,19.0915 77.2339,15.1864 64.2169,15.1864" stroke="#00007f" stroke-width="2" /><polyline fill="none" points="44.2576,19.0915 47.7288,26.0339 49.8983,36.0136 47.7288,50.7661 39.0508,60.7458 26.4678,71.1593" stroke="#00d4ff" stroke-width="2" /><polyline fill="none" points="92.4203,30.3729 86.3458,37.7492 82.4407,51.6339 82.4407,66.3864 85.478,74.6305" stroke="#ffe500" stroke-width="2" /><polyline fill="none" points="81.139,61.6136 82.0068,61.6136" stroke="#7f0000" stroke-width="2" /></svg>