<?xml version="1.0" encoding="utf-8" ?>
<svg baseProfile="tiny" height="128" version="1.2" viewBox="0,0,128,128" width="128" xmlns="http://www.w3.org/2000/svg" xmlns:ev="http://www.w3.org/2001/xml-events" xmlns:xlink="http://www.w3.org/1999/xlink"><defs /><polyline fill="none" points="68.9898,11.2814 44.2576,10.4136 33.4102,16.0542 25.1661,22.1288 20.8271,28.2034 14.7525,39.4847 9.1119,53.3695 8.678,88.5153 11.2814,94.1559 16.922,101.9661 22.1288,105.8712 42.522,113.6814 55.9729,117.1525 69.8576,119.322 78.5356,118.8881 82.8746,116.2847 98.9288,98.061 105.0034,84.6102 109.7763,68.122 111.078,49.4644 110.2102,45.5593 107.1729,40.7864 95.4576,31.2407 60.3119,8.678" stroke="#00007f" stroke-width="2" /><polyline fill="none" points="85.9119,22.1288 76.8,55.1051 76.3661,79.4034 79.8373,90.6847 86.3458,100.2305 95.4576,109.3424 96.7593,107.1729" stroke="#7cff79" stroke-width="2" /><polyline fill="none" points="26.0339,22.1288 38.6169,34.278 43.3898,52.5017 43.3898,75.9322 40.3525,88.9492 35.5797,95.4576" stroke="#7f0000" stroke-width="2" /></svg>