<?xml version="1.0" encoding="utf-8" ?>
<svg baseProfile="tiny" height="128" version="1.2" viewBox="0,0,128,128" width="128" xmlns="http://www.w3.org/2000/svg" xmlns:ev="http://www.w3.org/2001/xml-events" xmlns:xlink="http://www.w3.org/1999/xlink"><defs /><polyline fill="none" points="68.5559,8.678 58.1424,8.678 42.0881,12.5831 32.5424,18.2237 25.1661,27.3356 22.9966,33.8441 16.0542,43.3898 11.7153,56.4068 8.678,78.9695 8.678,90.6847 11.7153,101.0983 15.6203,107.1729 21.261,111.5119 31.6746,115.4169 41.6542,118.4542 52.5017,119.322 72.461,119.322 82.0068,116.7186 99.3627,102.8339 110.6441,87.2136 113.6814,72.461 113.6814,47.7288 112.3797,42.9559 97.1932,28.6373 75.9322,15.1864 70.7254,12.5831 64.2169,11.7153" stroke="#00007f" stroke-width="2" /><polyline fill="none" points="35.5797,19.9593 39.9186,50.3322 40.3525,75.0644 37.3153,102.4 35.5797,105.8712" stroke="#7cff79" stroke-width="2" /><polyline fill="none" points="95.4576,30.8068 90.6847,34.278 82.0068,44.6915 75.4983,62.9153 73.3288,77.6678 73.3288,101.9661 77.2339,111.5119" stroke="#7f0000" stroke-width="2" /></svg>