<?xml version="1.0" encoding="utf-8" ?>
<svg baseProfile="tiny" height="128" version="1.2" viewBox="0,0,128,128" width="128" xmlns="http://www.w3.org/2000/svg" xmlns:ev="http://www.w3.org/2001/xml-events" xmlns:xlink="http://www.w3.org/1999/xlink"><defs /><polyline fill="none" points="15.6203,34.278 29.0712,26.9017 43.3898,22.9966 59.4441,22.9966 75.0644,26.4678 88.5153,32.9763 98.9288,41.6542 104.5695,52.5017 105.4373,70.2915 97.1932,102.4 83.7424,116.2847 74.6305,118.0203 62.4814,116.7186 52.9356,112.3797 31.2407,96.3254 19.0915,79.8373 11.2814,63.3492 8.678,45.5593 13.8847,18.2237 26.0339,10.8475 34.278,8.678 42.9559,8.678" stroke="#00007f" stroke-width="2" /><polyline fill="none" points="74.1966,18.2237 68.122,56.4068 68.122,70.2915 74.1966,90.6847 80.2712,96.7593 87.2136,100.6644 95.8915,102.8339 104.5695,102.8339 108.0407,100.6644" stroke="#7cff79" stroke-width="2" /><polyline fill="none" points="42.9559,24.7322 45.1254,49.0305 43.8237,62.0475 39.4847,77.2339 33.4102,91.1186 16.922,119.322" stroke="#7f0000" stroke-width="2" /></svg>