<?xml version="1.0" encoding="utf-8" ?>
<svg baseProfile="tiny" height="128" version="1.2" viewBox="0,0,128,128" width="128" xmlns="http://www.w3.org/2000/svg" xmlns:ev="http://www.w3.org/2001/xml-events" xmlns:xlink="http://www.w3.org/1999/xlink"><defs /><polyline fill="none" points="71.1593,110.2102 64.6508,110.6441 52.5017,106.739 32.9763,98.4949 22.9966,91.9864 17.3559,86.3458 13.4508,78.9695 8.678,59.878 9.1119,41.6542 20.8271,21.6949 30.8068,12.1492 37.3153,8.678 59.0102,8.678 72.0271,12.1492 88.9492,19.9593 98.9288,27.3356 104.1356,34.278 109.7763,43.8237 118.8881,85.478 118.8881,93.722 112.3797,101.0983 100.2305,106.739 75.4983,110.6441" stroke="#00007f" stroke-width="2" /><polyline fill="none" points="11.7153,52.5017 24.2983,56.4068 39.9186,69.8576 55.1051,88.9492 59.4441,103.2678" stroke="#7cff79" stroke-width="2" /><polyline fill="none" points="75.0644,14.3186 75.0644,31.2407 83.3085,53.3695 94.1559,66.8203 102.8339,72.0271 115.4169,76.8 117.5864,76.8 119.322,75.0644" stroke="#7f0000" stroke-width="2" /></svg>