<?xml version="1.0" encoding="utf-8" ?>
<svg baseProfile="tiny" height="128" version="1.2" viewBox="0,0,128,128" width="128" xmlns="http://www.w3.org/2000/svg" xmlns:ev="http://www.w3.org/2001/xml-events" xmlns:xlink="http://www.w3.org/1999/xlink"><defs /><polyline fill="none" points="71.5932,8.678 39.4847,12.5831 29.0712,19.0915 19.9593,30.8068 8.678,52.5017 9.5458,63.3492 12.5831,74.6305 25.1661,105.0034 37.3153,112.3797 52.0678,118.4542 64.2169,119.322 74.6305,116.2847 79.8373,112.3797 88.0814,101.0983 90.6847,79.4034 90.6847,61.6136 75.9322,25.1661 66.3864,14.7525 55.539,9.5458" stroke="#00007f" stroke-width="2" /><polyline fill="none" points="18.6576,36.0136 22.9966,41.2203 32.9763,47.2949 42.9559,50.3322 63.7831,50.3322 79.8373,46.4271" stroke="#00d4ff" stroke-width="2" /><polyline fill="none" points="20.8271,84.6102 45.9932,80.7051 63.3492,80.7051 76.8,84.6102 81.5729,88.9492 87.6475,97.1932" stroke="#ffe500" stroke-width="2" /><polyline fill="none" points="38.1831,33.8441 39.9186,45.1254 38.1831,55.539 45.1254,48.1627" stroke="#7f0000" stroke-width="2" /></svg>