<?xml version="1.0" encoding="utf-8" ?>
<svg baseProfile="tiny" height="128" version="1.2" viewBox="0,0,128,128" width="128" xmlns="http://www.w3.org/2000/svg" xmlns:ev="http://www.w3.org/2001/xml-events" xmlns:xlink="http://www.w3.org/1999/xlink"><defs /><polyline fill="none" points="101.8776,30.4762 99.7007,25.6871 92.7347,19.5918 80.5442,13.932 65.3061,9.1429 43.9728,8.7075 29.6054,15.6735 18.2857,27.4286 13.4966,35.7007 10.449,44.8435 8.7075,53.9864 9.1429,73.5782 18.7211,89.6871 26.1224,96.6531 35.2653,102.7483 44.8435,107.5374 55.2925,110.1497 77.4966,110.585 88.381,107.9728 98.8299,103.1837 107.102,96.6531 113.6327,89.2517 117.551,81.415 119.2925,64.4354 117.551,56.1633 109.2789,40.9252 90.5578,16.9796" stroke="#00007f" stroke-width="2" /><polyline fill="none" points="31.7823,10.449 31.7823,13.0612 42.6667,35.2653 47.0204,51.8095 48.7619,67.0476 47.4558,82.7211 40.9252,96.2177 33.5238,104.9252" stroke="#0028ff" stroke-width="2" /><polyline fill="none" points="76.6259,13.4966 73.5782,15.6735 69.2245,33.0884 67.483,51.3741 67.9184,70.5306 77.932,98.3946 87.9456,108.8435 96.2177,112.3265 99.7007,112.3265" stroke="#00d4ff" stroke-width="2" /><polyline fill="none" points="69.6599,94.0408 73.1429,101.0068 76.6259,103.619 82.7211,104.9252 85.7687,102.3129 88.8163,97.5238 95.3469,80.5442" stroke="#7cff79" stroke-width="2" /><polyline fill="none" points="64.8707,56.1633 64.4354,59.2109 67.0476,65.7415 70.5306,69.2245 73.5782,69.6599 76.6259,68.7891 79.6735,65.3061 86.2041,56.1633 87.5102,51.8095" stroke="#ffe500" stroke-width="2" /><polyline fill="none" points="60.517,27.8639 64.8707,33.9592 72.7075,36.5714 76.6259,36.1361 80.1088,33.0884 83.1565,28.2993 83.5918,24.381" stroke="#ff4600" stroke-width="2" /><polyline fill="none" points="22.6395,51.3741 31.3469,67.9184 44.4082,80.9796 53.1156,82.2857 57.9048,79.2381 60.517,74.449" stroke="#7f0000" stroke-width="2" /></svg>