<?xml version="1.0" encoding="utf-8" ?>
<svg baseProfile="tiny" height="128" version="1.2" viewBox="0,0,128,128" width="128" xmlns="http://www.w3.org/2000/svg" xmlns:ev="http://www.w3.org/2001/xml-events" xmlns:xlink="http://www.w3.org/1999/xlink"><defs /><polyline fill="none" points="40.7864,9.9797 30.8068,14.7525 26.0339,19.9593 19.9593,29.939 15.1864,42.0881 9.1119,66.3864 8.678,84.1763 11.2814,92.8542 16.922,100.2305 25.1661,107.6068 35.5797,113.2475 61.6136,119.322 74.6305,119.322 85.9119,116.2847 96.3254,108.9085 103.7017,97.6271 110.2102,82.4407 117.1525,50.7661 117.1525,39.4847 114.5492,29.939 106.739,22.1288 95.0237,16.0542 82.4407,12.1492 69.4237,9.5458 44.2576,8.678" stroke="#00007f" stroke-width="2" /><polyline fill="none" points="37.7492,12.5831 50.7661,25.1661 63.7831,41.6542 67.6881,50.7661 68.5559,65.0847 65.0847,76.3661 51.6339,98.9288 44.2576,107.6068 32.1085,118.4542" stroke="#0028ff" stroke-width="2" /><polyline fill="none" points="114.1153,20.8271 106.3051,22.1288 103.2678,24.2983 92.4203,40.3525 86.7797,53.8034 85.478,70.7254 85.9119,88.5153 91.9864,108.9085 93.722,112.3797 99.3627,114.1153" stroke="#00d4ff" stroke-width="2" /><polyline fill="none" points="40.7864,32.5424 48.5966,30.3729 63.7831,22.1288" stroke="#7cff79" stroke-width="2" /><polyline fill="none" points="45.1254,61.6136 80.2712,58.1424" stroke="#ffe500" stroke-width="2" /><polyline fill="none" points="50.3322,88.9492 67.2542,100.2305" stroke="#ff4600" stroke-width="2" /><polyline fill="none" points="41.2203,109.3424 43.3898,111.9458" stroke="#7f0000" stroke-width="2" /></svg>