<?xml version="1.0" encoding="utf-8" ?>
<svg baseProfile="tiny" height="128" version="1.2" viewBox="0,0,128,128" width="128" xmlns="http://www.w3.org/2000/svg" xmlns:ev="http://www.w3.org/2001/xml-events" xmlns:xlink="http://www.w3.org/1999/xlink"><defs /><polyline fill="none" points="64.2169,15.1864 57.2746,10.4136 50.7661,8.678 45.5593,9.1119 38.6169,11.7153 31.2407,16.4881 12.1492,39.9186 8.678,65.5186 16.922,88.0814 24.2983,98.9288 32.9763,107.1729 42.9559,113.6814 53.8034,118.4542 63.7831,119.322 73.7627,118.0203 83.3085,114.1153 91.5525,108.4746 98.061,100.6644 103.2678,91.1186 108.9085,70.7254 108.0407,47.2949 105.0034,37.7492 99.3627,28.2034 85.9119,17.3559 78.5356,14.7525 51.6339,9.5458" stroke="#00007f" stroke-width="2" /><polyline fill="none" points="29.0712,18.2237 26.0339,30.3729 24.7322,45.9932 27.7695,51.6339 34.7119,58.5763 36.0136,89.3831 40.3525,95.8915 43.8237,107.1729" stroke="#7cff79" stroke-width="2" /><polyline fill="none" points="68.5559,13.4508 68.122,37.3153 71.1593,42.0881 80.2712,49.0305 82.0068,54.2373 82.8746,110.6441 85.0441,112.8136" stroke="#7f0000" stroke-width="2" /></svg>