<?xml version="1.0" encoding="utf-8" ?>
<svg baseProfile="tiny" height="128" version="1.2" viewBox="0,0,128,128" width="128" xmlns="http://www.w3.org/2000/svg" xmlns:ev="http://www.w3.org/2001/xml-events" xmlns:xlink="http://www.w3.org/1999/xlink"><defs /><polyline fill="none" points="64.2169,9.9797 59.4441,8.678 47.7288,8.678 42.9559,11.2814 20.3932,38.6169 9.9797,61.1797 8.678,90.6847 10.4136,98.061 16.0542,110.2102 22.1288,117.5864 27.7695,119.322 38.6169,118.0203 47.7288,112.3797 66.3864,96.3254 73.7627,83.3085 82.0068,63.7831 86.3458,36.0136 85.9119,24.2983 80.7051,18.2237 68.5559,13.0169 60.7458,11.7153" stroke="#00007f" stroke-width="2" /><polyline fill="none" points="13.0169,93.2881 13.0169,90.6847 28.2034,65.9525 37.7492,54.6712 41.6542,51.6339 48.1627,47.2949 63.3492,42.522 84.6102,42.0881" stroke="#7cff79" stroke-width="2" /><polyline fill="none" points="78.5356,14.7525 65.5186,15.6203 59.0102,27.3356 51.2,52.5017 46.861,81.5729 45.1254,105.0034" stroke="#7f0000" stroke-width="2" /></svg>