<?xml version="1.0" encoding="utf-8" ?>
<svg baseProfile="tiny" height="128" version="1.2" viewBox="0,0,128,128" width="128" xmlns="http://www.w3.org/2000/svg" xmlns:ev="http://www.w3.org/2001/xml-events" xmlns:xlink="http://www.w3.org/1999/xlink"><defs /><polyline fill="none" points="67.0476,19.1565 47.4558,9.1429 41.7959,8.7075 29.1701,26.1224 12.6259,57.9048 9.5782,66.1769 8.7075,73.5782 8.7075,86.6395 11.3197,94.4762 21.3333,107.102 30.0408,114.068 40.0544,116.2449 53.1156,112.7619 63.5646,104.9252 75.7551,88.381 84.0272,69.6599 84.898,58.3401 84.898,45.7143 82.7211,36.1361 77.0612,28.7347 66.1769,20.0272" stroke="#00007f" stroke-width="2" /><polyline fill="none" points="53.1156,12.1905 53.551,72.2721 47.8912,119.2925" stroke="#0080ff" stroke-width="2" /><polyline fill="none" points="11.7551,65.3061 43.102,59.2109 81.415,58.3401" stroke="#7cff79" stroke-width="2" /><polyline fill="none" points="73.5782,29.6054 31.3469,94.4762 20.898,113.6327" stroke="#ff9400" stroke-width="2" /><polyline fill="none" points="33.9592,23.9456 40.4898,38.3129" stroke="#7f0000" stroke-width="2" /></svg>