<?xml version="1.0" encoding="utf-8" ?>
<svg baseProfile="tiny" height="128" version="1.2" viewBox="0,0,128,128" width="128" xmlns="http://www.w3.org/2000/svg" xmlns:ev="http://www.w3.org/2001/xml-events" xmlns:xlink="http://www.w3.org/1999/xlink"><defs /><polyline fill="none" points="57.4694,9.1429 46.585,8.7075 37.4422,11.3197 18.7211,23.5102 13.932,30.4762 9.5782,46.1497 8.7075,57.9048 9.5782,83.1565 12.1905,90.1224 34.8299,105.3605 46.1497,107.9728 57.4694,108.8435 90.1224,97.5238 97.0884,93.1701 102.3129,88.8163 115.8095,67.0476 119.2925,55.7279 119.2925,45.7143 115.3741,37.4422 103.1837,24.381 97.0884,20.0272 85.3333,14.8027 58.7755,10.449" stroke="#00007f" stroke-width="2" /><polyline fill="none" points="30.4762,12.6259 35.7007,25.2517 38.3129,38.7483 39.1837,65.3061 34.3946,87.9456 26.9932,99.7007" stroke="#7cff79" stroke-width="2" /><polyline fill="none" points="90.9932,14.8027 84.0272,21.7687 78.8027,31.3469 75.3197,38.7483 73.5782,49.6327 73.1429,86.2041 74.449,92.7347 78.8027,97.9592" stroke="#7f0000" stroke-width="2" /></svg>