<?xml version="1.0" encoding="utf-8" ?>
<svg baseProfile="tiny" height="128" version="1.2" viewBox="0,0,128,128" width="128" xmlns="http://www.w3.org/2000/svg" xmlns:ev="http://www.w3.org/2001/xml-events" xmlns:xlink="http://www.w3.org/1999/xlink"><defs /><polyline fill="none" points="17.415,100.1361 9.1429,105.7959 8.7075,113.1973 17.415,118.8571 20.0272,118.4218 25.2517,114.5034 25.2517,104.9252 45.2789,90.1224 75.3197,61.3878 106.6667,20.898 108.8435,16.1088 109.2789,10.8844 107.5374,9.1429 101.8776,8.7075 87.0748,11.3197 78.8027,17.8503 56.5986,40.4898 43.102,56.1633 27.8639,77.932 26.5578,85.7687 23.9456,92.7347 20.4626,96.2177 17.8503,104.9252" stroke="#00007f" stroke-width="2" /><polyline fill="none" points="104.4898,89.2517 101.8776,89.2517 98.3946,94.4762 97.9592,103.619 101.0068,108.4082 104.9252,111.0204 110.585,112.3265 114.068,111.0204 117.551,108.4082 118.8571,104.9252 119.2925,97.0884 116.6803,91.4286 111.8912,88.381 100.5714,91.4286" stroke="#00d4ff" stroke-width="2" /><polyline fill="none" points="99.2653,97.5238 114.5034,101.0068" stroke="#ffe500" stroke-width="2" /><polyline fill="none" points="98.8299,101.4422 102.3129,101.0068 112.7619,105.3605 116.6803,105.3605" stroke="#7f0000" stroke-width="2" /></svg>