<?xml version="1.0" encoding="utf-8" ?>
<svg baseProfile="tiny" height="128" version="1.2" viewBox="0,0,128,128" width="128" xmlns="http://www.w3.org/2000/svg" xmlns:ev="http://www.w3.org/2001/xml-events" xmlns:xlink="http://www.w3.org/1999/xlink"><defs /><polyline fill="none" points="52.5017,17.3559 44.2576,17.3559 40.3525,18.6576 26.9017,30.3729 23.4305,36.0136 12.5831,64.2169 9.9797,76.8 9.1119,87.2136 13.4508,98.9288 23.4305,106.3051 57.2746,117.5864 69.4237,119.322 86.7797,118.8881 91.9864,117.1525 98.061,112.8136 105.8712,98.4949 111.078,83.7424 112.3797,74.6305 112.3797,45.1254 107.1729,27.7695 100.6644,21.6949 77.2339,12.1492 62.4814,8.678 58.5763,8.678 53.3695,11.7153" stroke="#00007f" stroke-width="2" /><polyline fill="none" points="8.678,100.6644 21.6949,99.3627 35.1458,95.4576 45.5593,86.3458 49.8983,78.9695 56.4068,55.1051 58.1424,42.9559 57.7085,25.1661 49.8983,11.7153 49.4644,9.9797 51.2,9.9797" stroke="#7cff79" stroke-width="2" /><polyline fill="none" points="95.8915,18.2237 91.5525,20.3932 82.4407,46.861 80.2712,62.4814 80.2712,86.7797 82.8746,97.1932 89.3831,108.9085 95.8915,113.2475 100.6644,114.5492" stroke="#7f0000" stroke-width="2" /></svg>