<?xml version="1.0" encoding="utf-8" ?>
<svg baseProfile="tiny" height="128" version="1.2" viewBox="0,0,128,128" width="128" xmlns="http://www.w3.org/2000/svg" xmlns:ev="http://www.w3.org/2001/xml-events" xmlns:xlink="http://www.w3.org/1999/xlink"><defs /><polyline fill="none" points="79.8373,8.678 63.7831,9.5458 53.3695,14.7525 34.278,28.2034 24.7322,40.3525 10.4136,76.8 8.678,91.1186 9.5458,98.061 13.4508,105.8712 25.1661,112.3797 47.7288,114.1153 68.9898,111.078 78.5356,108.0407 94.1559,91.9864 101.9661,78.5356 112.3797,64.2169 119.322,45.1254 119.322,41.2203 112.3797,26.9017 103.2678,16.922 95.8915,15.6203" stroke="#00007f" stroke-width="2" /><polyline fill="none" points="85.9119,19.0915 87.6475,28.2034 85.9119,36.0136 82.0068,45.9932 74.1966,54.2373 60.3119,62.9153 47.7288,69.4237 38.6169,70.7254 20.8271,69.4237" stroke="#7cff79" stroke-width="2" /><polyline fill="none" points="116.2847,61.6136 105.4373,62.0475 83.3085,75.0644 72.461,96.7593 71.5932,105.8712 75.4983,116.2847" stroke="#7f0000" stroke-width="2" /></svg>