<?xml version="1.0" encoding="utf-8" ?>
<svg baseProfile="tiny" height="128" version="1.2" viewBox="0,0,128,128" width="128" xmlns="http://www.w3.org/2000/svg" xmlns:ev="http://www.w3.org/2001/xml-events" xmlns:xlink="http://www.w3.org/1999/xlink"><defs /><polyline fill="none" points="77.0612,15.6735 71.8367,12.6259 61.8231,12.1905 54.4218,13.0612 39.1837,17.415 16.1088,32.2177 8.7075,44.8435 9.1429,57.4694 21.3333,87.5102 31.3469,97.9592 37.0068,101.0068 50.068,104.4898 70.5306,104.9252 84.4626,100.1361 98.8299,91.8639 110.585,81.415 114.5034,75.3197 118.8571,64.4354 119.2925,53.1156 113.6327,40.9252 109.2789,35.2653 104.4898,30.0408 92.2993,21.3333 78.8027,14.3673 71.4014,12.1905 47.8912,11.3197" stroke="#00007f" stroke-width="2" /><polyline fill="none" points="33.0884,18.2857 37.8776,26.9932 41.3605,42.6667 42.2313,98.3946 42.6667,99.7007 44.4082,97.9592" stroke="#7cff79" stroke-width="2" /><polyline fill="none" points="86.2041,8.7075 73.1429,30.4762 68.3537,44.8435 66.1769,59.6463 65.7415,94.0408 67.9184,103.1837 70.966,109.7143 74.449,113.1973 78.3673,114.5034" stroke="#7f0000" stroke-width="2" /></svg>