<?xml version="1.0" encoding="utf-8" ?>
<svg baseProfile="tiny" height="128" version="1.2" viewBox="0,0,128,128" width="128" xmlns="http://www.w3.org/2000/svg" xmlns:ev="http://www.w3.org/2001/xml-events" xmlns:xlink="http://www.w3.org/1999/xlink"><defs /><polyline fill="none" points="105.3605,41.3605 98.8299,34.8299 83.5918,15.2381 77.932,10.8844 70.5306,8.7075 60.0816,8.7075 44.4082,13.932 35.2653,18.2857 26.1224,25.2517 22.6395,31.3469 13.0612,58.3401 8.7075,85.7687 14.3673,97.9592 35.7007,117.9864 42.6667,119.2925 66.6122,110.585 77.4966,107.9728 95.3469,97.5238 98.8299,93.1701 100.5714,70.5306 95.7823,57.9048 94.9116,37.4422" stroke="#00007f" stroke-width="2" /><polyline fill="none" points="88.381,21.7687 86.6395,26.9932 78.3673,38.7483 76.6259,47.8912 78.3673,73.5782 82.7211,95.7823 86.2041,105.7959" stroke="#7cff79" stroke-width="2" /><polyline fill="none" points="42.2313,13.0612 44.4082,36.5714 42.2313,50.9388 37.0068,61.8231 29.6054,71.8367 13.4966,104.4898" stroke="#7f0000" stroke-width="2" /></svg>