<?xml version="1.0" encoding="utf-8" ?>
<svg baseProfile="tiny" height="128" version="1.2" viewBox="0,0,128,128" width="128" xmlns="http://www.w3.org/2000/svg" xmlns:ev="http://www.w3.org/2001/xml-events" xmlns:xlink="http://www.w3.org/1999/xlink"><defs /><polyline fill="none" points="76.3661,17.7898 73.3288,16.4881 59.878,16.4881 53.3695,17.7898 39.9186,23.8644 32.5424,28.2034 19.5254,39.9186 13.0169,50.7661 8.678,62.0475 8.678,77.2339 14.3186,88.5153 24.2983,101.0983 35.1458,110.2102 47.7288,116.2847 59.4441,119.322 72.0271,118.8881 84.6102,112.3797 91.5525,106.3051 101.9661,90.2508 109.3424,69.8576 111.9458,58.1424 111.9458,46.4271 103.7017,26.4678 94.5898,13.8847 87.2136,9.9797 78.5356,8.678" stroke="#00007f" stroke-width="2" /><polyline fill="none" points="31.6746,26.4678 43.8237,38.6169 48.1627,53.8034 49.4644,67.6881 49.4644,79.4034 47.2949,89.8169 36.8814,111.9458" stroke="#7cff79" stroke-width="2" /><polyline fill="none" points="99.7966,28.6373 97.1932,29.5051 94.1559,33.8441 85.9119,51.6339 79.8373,72.8949 79.8373,91.5525 81.5729,98.061 84.6102,105.0034 92.4203,112.8136" stroke="#7f0000" stroke-width="2" /></svg>