<?xml version="1.0" encoding="utf-8" ?>
<svg baseProfile="tiny" height="128" version="1.2" viewBox="0,0,128,128" width="128" xmlns="http://www.w3.org/2000/svg" xmlns:ev="http://www.w3.org/2001/xml-events" xmlns:xlink="http://www.w3.org/1999/xlink"><defs /><polyline fill="none" points="62.0475,47.7288 53.3695,43.8237 37.3153,43.3898 32.1085,44.6915 21.261,50.7661 16.4881,55.1051 10.4136,65.9525 8.678,85.9119 9.1119,90.6847 11.7153,95.4576 22.1288,104.5695 33.8441,109.3424 48.1627,113.2475 68.122,113.2475 73.7627,111.9458 80.2712,106.739 84.1763,95.4576 84.6102,72.8949 81.5729,62.4814 76.8,54.2373 65.5186,49.0305 46.4271,47.7288 49.8983,54.6712 52.5017,64.6508 51.6339,67.2542 45.1254,71.1593 42.0881,77.2339 51.2,82.8746 57.2746,83.3085 60.7458,81.5729 62.4814,78.1017 63.7831,67.2542 66.8203,65.9525 71.5932,59.4441 71.1593,52.5017" stroke="#00007f" stroke-width="2" /><polyline fill="none" points="19.9593,97.1932 22.9966,98.4949 32.1085,98.4949 35.1458,96.3254 35.1458,90.6847 37.3153,87.2136 43.3898,86.3458 46.861,87.6475 49.8983,93.722 47.7288,96.7593 50.7661,100.2305 51.2,103.7017 49.8983,111.9458" stroke="#0000d5" stroke-width="2" /><polyline fill="none" points="46.861,103.7017 49.4644,100.2305 56.4068,97.1932" stroke="#001cff" stroke-width="2" /><polyline fill="none" points="50.7661,108.9085 50.7661,108.9085" stroke="#006cff" stroke-width="2" /><polyline fill="none" points="54.2373,72.461 55.539,77.2339 61.1797,86.3458" stroke="#00b8ff" stroke-width="2" /><polyline fill="none" points="65.0847,62.4814 65.5186,72.461 71.1593,80.2712" stroke="#1cffda" stroke-width="2" /><polyline fill="none" points="69.8576,60.7458 69.8576,60.7458" stroke="#5cff9a" stroke-width="2" /><polyline fill="none" points="22.1288,86.3458 27.3356,100.6644" stroke="#9aff5c" stroke-width="2" /><polyline fill="none" points="36.4475,91.5525 36.4475,91.5525" stroke="#daff1c" stroke-width="2" /><polyline fill="none" points="46.4271,66.8203 49.0305,71.5932 55.9729,75.4983 61.1797,76.8" stroke="#ffcb00" stroke-width="2" /><polyline fill="none" points="49.8983,58.1424 56.4068,58.5763" stroke="#ff8500" stroke-width="2" /><polyline fill="none" points="48.1627,57.7085 63.7831,52.5017" stroke="#ff3b00" stroke-width="2" /><polyline fill="none" points="49.8983,82.4407 48.1627,88.0814 48.1627,94.1559" stroke="#d50000" stroke-width="2" /><polyline fill="none" points="100.2305,8.678 95.8915,12.1492 95.8915,16.4881 98.4949,19.9593 105.4373,24.2983 118.4542,24.7322 119.322,17.7898 117.5864,14.3186 110.6441,9.1119 99.3627,8.678 94.5898,10.4136" stroke="#7f0000" stroke-width="2" /></svg>