<?xml version="1.0" encoding="utf-8" ?>
<svg baseProfile="tiny" height="128" version="1.2" viewBox="0,0,128,128" width="128" xmlns="http://www.w3.org/2000/svg" xmlns:ev="http://www.w3.org/2001/xml-events" xmlns:xlink="http://www.w3.org/1999/xlink"><defs /><polyline fill="none" points="58.1424,8.678 51.6339,8.678 42.0881,13.4508 19.5254,27.3356 13.0169,35.1458 9.9797,45.9932 8.678,57.7085 9.1119,81.139 12.5831,92.8542 22.5627,112.8136 27.7695,116.7186 34.278,117.1525 56.8407,109.3424 75.0644,100.6644 85.9119,91.5525 88.5153,87.2136 96.7593,66.8203 101.9661,34.278 101.9661,21.261 99.7966,16.4881 94.5898,13.4508 75.9322,13.4508 62.9153,15.1864 55.539,17.7898" stroke="#00007f" stroke-width="2" /><polyline fill="none" points="27.7695,19.9593 34.278,60.7458 34.278,73.3288 36.8814,92.4203 35.5797,106.739 33.8441,111.9458" stroke="#004cff" stroke-width="2" /><polyline fill="none" points="72.8949,18.2237 68.122,22.9966 63.7831,34.7119 62.4814,42.522 62.4814,98.061 64.6508,108.0407 70.7254,119.322" stroke="#29ffcd" stroke-width="2" /><polyline fill="none" points="65.9525,116.7186 67.2542,106.3051 71.5932,96.3254 72.0271,88.9492" stroke="#cdff29" stroke-width="2" /><polyline fill="none" points="65.5186,83.3085 59.4441,83.3085 54.6712,80.7051" stroke="#ff6700" stroke-width="2" /><polyline fill="none" points="66.3864,60.7458 68.122,51.2" stroke="#7f0000" stroke-width="2" /></svg>