<?xml version="1.0" encoding="utf-8" ?>
<svg baseProfile="tiny" height="128" version="1.2" viewBox="0,0,128,128" width="128" xmlns="http://www.w3.org/2000/svg" xmlns:ev="http://www.w3.org/2001/xml-events" xmlns:xlink="http://www.w3.org/1999/xlink"><defs /><polyline fill="none" points="91.9864,21.261 69.8576,20.3932 53.3695,26.0339 29.5051,39.9186 18.6576,49.0305 13.4508,58.5763 8.678,73.3288 8.678,87.2136 13.0169,97.1932 15.1864,101.0983 23.4305,107.6068 47.7288,117.5864 57.7085,119.322 88.0814,118.4542 96.3254,110.2102 103.7017,95.4576 107.6068,77.2339 107.6068,31.2407 106.3051,22.5627 101.0983,12.1492 95.8915,9.5458 91.9864,8.678 86.7797,11.2814 82.8746,13.8847 81.139,17.7898" stroke="#00007f" stroke-width="2" /><polyline fill="none" points="27.7695,94.5898 33.4102,70.7254 40.7864,52.0678 42.522,42.522 49.0305,28.6373 55.1051,26.9017 95.0237,26.9017 92.8542,28.6373" stroke="#00d4ff" stroke-width="2" /><polyline fill="none" points="27.7695,89.3831 27.7695,109.7763 32.5424,116.7186" stroke="#ffe500" stroke-width="2" /><polyline fill="none" points="53.3695,114.9831 53.3695,105.8712 59.0102,80.2712 66.3864,64.6508 74.6305,51.6339 78.1017,47.2949 87.2136,44.2576 104.5695,43.3898" stroke="#7f0000" stroke-width="2" /></svg>