<?xml version="1.0" encoding="utf-8" ?>
<svg baseProfile="tiny" height="128" version="1.2" viewBox="0,0,128,128" width="128" xmlns="http://www.w3.org/2000/svg" xmlns:ev="http://www.w3.org/2001/xml-events" xmlns:xlink="http://www.w3.org/1999/xlink"><defs /><polyline fill="none" points="81.139,9.5458 79.4034,8.678 62.0475,9.5458 55.9729,11.2814 43.8237,16.922 32.1085,26.4678 25.6,33.4102 19.5254,41.6542 10.8475,58.5763 8.678,75.0644 9.1119,83.7424 11.7153,91.5525 21.6949,105.0034 36.0136,114.9831 44.2576,117.5864 59.0102,119.322 67.6881,117.1525 74.6305,113.2475 86.7797,100.6644 96.7593,83.3085 103.7017,62.0475 105.0034,38.6169 104.1356,31.6746 99.3627,21.261 88.9492,11.2814" stroke="#00007f" stroke-width="2" /><polyline fill="none" points="36.8814,23.8644 37.7492,29.939 45.1254,49.0305 45.9932,100.2305 42.0881,113.6814" stroke="#004cff" stroke-width="2" /><polyline fill="none" points="96.7593,14.7525 78.1017,41.2203 73.3288,50.7661 69.4237,62.4814 66.8203,84.6102 66.8203,101.9661 71.1593,112.3797 75.0644,115.4169" stroke="#29ffcd" stroke-width="2" /><polyline fill="none" points="75.0644,26.4678 91.9864,33.4102" stroke="#cdff29" stroke-width="2" /><polyline fill="none" points="70.2915,49.0305 79.4034,50.7661 81.5729,52.5017" stroke="#ff6700" stroke-width="2" /><polyline fill="none" points="62.0475,73.7627 72.461,73.7627 79.8373,75.4983" stroke="#7f0000" stroke-width="2" /></svg>