<?xml version="1.0" encoding="utf-8" ?>
<svg baseProfile="tiny" height="128" version="1.2" viewBox="0,0,128,128" width="128" xmlns="http://www.w3.org/2000/svg" xmlns:ev="http://www.w3.org/2001/xml-events" xmlns:xlink="http://www.w3.org/1999/xlink"><defs /><polyline fill="none" points="64.2169,19.9593 50.7661,34.7119 10.8475,65.5186 8.678,70.2915 8.678,81.139 10.8475,90.6847 13.8847,95.8915 21.261,103.7017 29.939,109.7763 43.8237,115.4169 56.4068,118.0203 72.0271,119.322 82.4407,116.7186 102.4,104.5695 111.078,93.2881 112.8136,88.9492 114.1153,80.2712 114.1153,45.5593 111.9458,35.1458 106.739,22.9966 100.6644,12.5831 96.7593,9.9797 91.1186,8.678 77.6678,8.678 59.878,13.4508 47.2949,19.0915 39.0508,27.3356 39.0508,30.8068" stroke="#00007f" stroke-width="2" /><polyline fill="none" points="36.8814,46.4271 40.7864,48.1627 42.9559,51.6339 48.1627,65.5186 51.6339,83.7424 51.6339,105.4373 50.3322,109.3424 46.861,111.078 30.8068,113.6814 42.0881,97.1932" stroke="#0010ff" stroke-width="2" /><polyline fill="none" points="115.4169,27.3356 112.8136,38.6169 101.0983,67.6881 97.1932,81.5729 97.1932,86.3458 100.6644,98.4949 105.4373,105.4373" stroke="#00a4ff" stroke-width="2" /><polyline fill="none" points="98.061,59.0102 108.4746,59.0102 108.0407,62.4814" stroke="#3fffb7" stroke-width="2" /><polyline fill="none" points="97.1932,77.6678 101.0983,78.5356 105.4373,81.139" stroke="#b7ff3f" stroke-width="2" /><polyline fill="none" points="95.8915,91.1186 97.1932,91.9864" stroke="#ffb900" stroke-width="2" /><polyline fill="none" points="55.539,75.9322 65.0847,73.7627" stroke="#ff3000" stroke-width="2" /><polyline fill="none" points="43.3898,87.2136 50.7661,92.4203" stroke="#7f0000" stroke-width="2" /></svg>