<?xml version="1.0" encoding="utf-8" ?>
<svg baseProfile="tiny" height="128" version="1.2" viewBox="0,0,128,128" width="128" xmlns="http://www.w3.org/2000/svg" xmlns:ev="http://www.w3.org/2001/xml-events" xmlns:xlink="http://www.w3.org/1999/xlink"><defs /><polyline fill="none" points="89.3831,22.5627 77.6678,13.0169 63.3492,9.9797 44.2576,11.2814 34.278,16.0542 25.6,23.4305 17.7898,33.4102 11.7153,44.6915 8.678,58.1424 8.678,72.0271 10.8475,85.0441 16.922,96.7593 26.4678,105.4373 38.1831,111.078 51.2,113.2475 66.3864,112.8136 81.5729,107.6068 94.1559,99.7966 105.8712,88.5153 114.5492,76.8 119.322,65.0847 119.322,53.3695 116.7186,42.0881 107.6068,28.6373 95.0237,16.4881 82.4407,8.678" stroke="#00007f" stroke-width="2" /><polyline fill="none" points="28.6373,26.0339 35.1458,37.3153 43.8237,60.3119 55.539,107.6068" stroke="#0010ff" stroke-width="2" /><polyline fill="none" points="61.6136,17.7898 63.7831,22.5627 79.4034,42.9559 86.7797,57.2746 92.4203,79.4034 92.4203,97.6271" stroke="#00a4ff" stroke-width="2" /><polyline fill="none" points="28.6373,50.3322 44.6915,44.6915" stroke="#3fffb7" stroke-width="2" /><polyline fill="none" points="36.4475,70.7254 52.0678,62.4814" stroke="#b7ff3f" stroke-width="2" /><polyline fill="none" points="46.861,92.4203 61.6136,89.3831" stroke="#ffb900" stroke-width="2" /><polyline fill="none" points="65.0847,38.6169 72.8949,33.8441" stroke="#ff3000" stroke-width="2" /><polyline fill="none" points="69.4237,56.8407 71.5932,57.2746 75.9322,54.6712 98.4949,38.6169" stroke="#7f0000" stroke-width="2" /></svg>