<?xml version="1.0" encoding="utf-8" ?>
<svg baseProfile="tiny" height="128" version="1.2" viewBox="0,0,128,128" width="128" xmlns="http://www.w3.org/2000/svg" xmlns:ev="http://www.w3.org/2001/xml-events" xmlns:xlink="http://www.w3.org/1999/xlink"><defs /><polyline fill="none" points="96.3254,8.678 87.2136,8.678 80.2712,11.2814 70.7254,16.922 39.9186,43.3898 14.7525,75.9322 9.9797,85.478 8.678,91.9864 10.4136,100.2305 16.922,106.3051 23.4305,111.078 43.3898,117.5864 57.7085,119.322 74.1966,118.8881 87.2136,113.6814 93.722,108.0407 97.1932,101.9661 99.7966,75.4983 110.6441,37.7492 110.6441,22.9966 105.4373,17.3559 90.6847,16.922" stroke="#00007f" stroke-width="2" /><polyline fill="none" points="64.2169,26.4678 56.4068,46.861 39.9186,69.8576 36.0136,78.9695 22.5627,95.4576 18.6576,107.6068" stroke="#7cff79" stroke-width="2" /><polyline fill="none" points="107.1729,41.6542 104.1356,43.3898 84.1763,75.9322 78.1017,81.139 72.0271,89.8169 66.3864,115.4169" stroke="#7f0000" stroke-width="2" /></svg>