<?xml version="1.0" encoding="utf-8" ?>
<svg baseProfile="tiny" height="128" version="1.2" viewBox="0,0,128,128" width="128" xmlns="http://www.w3.org/2000/svg" xmlns:ev="http://www.w3.org/2001/xml-events" xmlns:xlink="http://www.w3.org/1999/xlink"><defs /><polyline fill="none" points="61.8231,8.7075 42.2313,8.7075 34.3946,10.8844 21.3333,19.5918 11.7551,30.0408 9.1429,41.3605 8.7075,55.7279 10.0136,60.0816 16.9796,67.483 36.1361,77.4966 56.5986,78.8027 75.3197,77.932 91.4286,72.2721 104.0544,64.4354 111.4558,58.3401 117.9864,48.7619 119.2925,43.102 118.4218,35.2653 113.1973,26.5578 101.8776,17.415 84.0272,12.6259 60.517,11.3197" stroke="#00007f" stroke-width="2" /><polyline fill="none" points="100.5714,22.6395 87.0748,36.1361 83.5918,43.5374 80.5442,56.1633 80.5442,63.5646 82.7211,68.3537" stroke="#7cff79" stroke-width="2" /><polyline fill="none" points="32.2177,18.7211 34.8299,26.5578 40.4898,61.3878 40.0544,67.483 35.7007,76.1905" stroke="#7f0000" stroke-width="2" /></svg>