<?xml version="1.0" encoding="utf-8" ?>
<svg baseProfile="tiny" height="128" version="1.2" viewBox="0,0,128,128" width="128" xmlns="http://www.w3.org/2000/svg" xmlns:ev="http://www.w3.org/2001/xml-events" xmlns:xlink="http://www.w3.org/1999/xlink"><defs /><polyline fill="none" points="60.2867,14.8532 55.9181,15.727 31.4539,27.959 26.2116,32.3276 14.4164,49.802 8.7372,64.2184 8.7372,82.1297 10.9215,89.9932 17.0375,98.7304 25.3379,103.9727 35.3857,107.4676 51.9863,109.6519 71.2082,107.4676 79.0717,104.8464 98.7304,93.4881 119.2628,57.6655 119.2628,43.686 100.9147,21.4061 92.6143,14.4164 84.314,9.6109 71.6451,8.7372 65.9659,14.8532 57.2287,18.3481" stroke="#00007f" stroke-width="2" /><polyline fill="none" points="30.1433,27.5222 40.1911,54.6075 44.1229,86.0614 41.0648,100.041 33.2014,109.6519" stroke="#7cff79" stroke-width="2" /><polyline fill="none" points="99.1672,23.1536 92.6143,35.8225" stroke="#7f0000" stroke-width="2" /></svg>