<?xml version="1.0" encoding="utf-8" ?>
<svg baseProfile="tiny" height="128" version="1.2" viewBox="0,0,128,128" width="128" xmlns="http://www.w3.org/2000/svg" xmlns:ev="http://www.w3.org/2001/xml-events" xmlns:xlink="http://www.w3.org/1999/xlink"><defs /><polyline fill="none" points="28.2034,20.3932 20.8271,19.9593 16.0542,22.9966 10.8475,28.2034 9.1119,35.1458 8.678,42.522 11.2814,49.8983 21.261,55.1051 31.2407,55.1051 36.8814,52.9356 41.2203,48.5966 43.3898,42.522 44.2576,32.1085 42.0881,26.0339 37.7492,22.5627 29.0712,20.3932" stroke="#00007f" stroke-width="2" /><polyline fill="none" points="26.9017,19.9593 20.3932,39.4847 17.7898,42.0881 11.2814,44.2576" stroke="#00d4ff" stroke-width="2" /><polyline fill="none" points="42.0881,28.2034 38.1831,32.1085 33.4102,41.2203 31.6746,53.8034" stroke="#ffe500" stroke-width="2" /><polyline fill="none" points="41.6542,8.678 73.7627,26.4678 82.8746,33.4102 99.7966,46.861 119.322,65.9525" stroke="#7f0000" stroke-width="2" /></svg>