<?xml version="1.0" encoding="utf-8" ?>
<svg baseProfile="tiny" height="128" version="1.2" viewBox="0,0,128,128" width="128" xmlns="http://www.w3.org/2000/svg" xmlns:ev="http://www.w3.org/2001/xml-events" xmlns:xlink="http://www.w3.org/1999/xlink"><defs /><polyline fill="none" points="22.5627,19.5254 13.8847,30.8068 9.1119,44.6915 8.678,50.7661 9.1119,56.4068 13.0169,68.9898 26.9017,86.7797 45.1254,98.061 59.4441,101.0983 75.4983,98.9288 84.1763,95.8915 98.9288,87.6475 111.078,75.0644 115.4169,68.5559 117.5864,61.6136 119.322,49.0305 117.1525,39.0508 113.6814,35.1458 108.0407,30.3729 88.5153,19.0915 58.1424,9.9797 45.1254,8.678 35.1458,9.9797 29.939,12.5831" stroke="#00007f" stroke-width="2" /><polyline fill="none" points="100.6644,20.8271 92.8542,19.5254 74.1966,34.278 63.3492,44.6915 59.4441,50.3322 57.2746,58.5763 57.2746,70.2915 61.1797,83.3085 73.3288,95.8915 77.2339,98.9288 81.5729,99.7966" stroke="#7cff79" stroke-width="2" /><polyline fill="none" points="25.6,18.2237 36.4475,26.9017 40.7864,36.4475 42.522,46.861 40.7864,64.6508 37.7492,74.6305 29.0712,92.4203" stroke="#7f0000" stroke-width="2" /></svg>