<?xml version="1.0" encoding="utf-8" ?>
<svg baseProfile="tiny" height="128" version="1.2" viewBox="0,0,128,128" width="128" xmlns="http://www.w3.org/2000/svg" xmlns:ev="http://www.w3.org/2001/xml-events" xmlns:xlink="http://www.w3.org/1999/xlink"><defs /><polyline fill="none" points="30.3729,26.0339 23.8644,29.5051 16.922,35.5797 10.8475,47.2949 8.678,56.8407 8.678,62.0475 11.2814,69.4237 19.5254,84.6102 24.2983,90.2508 36.0136,98.061 56.8407,103.7017 87.2136,104.1356 94.5898,103.2678 109.7763,98.061 115.4169,92.8542 118.4542,86.7797 119.322,66.8203 111.9458,45.5593 101.5322,31.6746 87.2136,22.5627 77.6678,18.2237 57.2746,12.1492 46.4271,12.1492 39.9186,13.8847 22.9966,24.7322 18.6576,29.939 19.9593,32.5424" stroke="#00007f" stroke-width="2" /><polyline fill="none" points="39.4847,8.678 41.6542,24.2983 49.8983,52.5017 49.8983,55.9729" stroke="#0080ff" stroke-width="2" /><polyline fill="none" points="75.4983,22.5627 75.4983,54.6712" stroke="#7cff79" stroke-width="2" /><polyline fill="none" points="33.8441,75.9322 43.3898,83.7424 60.3119,87.6475 99.3627,87.6475 106.739,82.8746 110.2102,75.9322" stroke="#ff9400" stroke-width="2" /><polyline fill="none" points="82.0068,11.7153 82.0068,11.7153" stroke="#7f0000" stroke-width="2" /></svg>