<?xml version="1.0" encoding="utf-8" ?>
<svg baseProfile="tiny" height="128" version="1.2" viewBox="0,0,128,128" width="128" xmlns="http://www.w3.org/2000/svg" xmlns:ev="http://www.w3.org/2001/xml-events" xmlns:xlink="http://www.w3.org/1999/xlink"><defs /><polyline fill="none" points="61.1797,9.1119 56.8407,9.5458 31.6746,21.6949 24.2983,26.4678 14.7525,39.0508 10.8475,45.5593 9.9797,51.6339 8.678,65.5186 13.0169,82.0068 31.6746,104.1356 42.522,111.9458 56.8407,117.5864 68.9898,119.322 85.9119,118.8881 94.1559,112.8136 104.5695,98.061 106.3051,90.6847 107.1729,71.5932 103.7017,60.3119 92.4203,43.3898 76.8,29.0712 60.3119,8.678" stroke="#00007f" stroke-width="2" /><polyline fill="none" points="32.1085,25.6 42.0881,37.7492 57.2746,62.0475 59.4441,68.5559 58.5763,82.8746 51.6339,94.1559 45.1254,99.3627 43.3898,107.6068" stroke="#7cff79" stroke-width="2" /><polyline fill="none" points="79.4034,29.939 75.9322,64.2169 76.8,76.8 80.7051,86.3458 102.4,103.7017" stroke="#7f0000" stroke-width="2" /></svg>