<?xml version="1.0" encoding="utf-8" ?>
<svg baseProfile="tiny" height="128" version="1.2" viewBox="0,0,128,128" width="128" xmlns="http://www.w3.org/2000/svg" xmlns:ev="http://www.w3.org/2001/xml-events" xmlns:xlink="http://www.w3.org/1999/xlink"><defs /><polyline fill="none" points="98.4949,21.6949 92.4203,15.6203 83.7424,9.5458 70.7254,8.678 57.7085,11.7153 28.6373,29.939 18.2237,42.522 11.2814,55.539 8.678,68.9898 11.2814,80.2712 17.7898,90.2508 27.3356,98.9288 39.9186,103.7017 54.2373,106.739 68.122,108.0407 82.8746,106.3051 95.0237,103.7017 105.0034,95.8915 112.8136,85.9119 119.322,60.7458 117.5864,50.3322 111.5119,40.3525 103.7017,30.3729 94.5898,22.9966 77.2339,13.4508 68.9898,13.4508" stroke="#00007f" stroke-width="2" /><polyline fill="none" points="32.1085,24.7322 39.9186,29.939 43.8237,36.0136 47.2949,46.4271 46.861,57.7085 38.6169,85.0441 36.4475,99.7966" stroke="#004cff" stroke-width="2" /><polyline fill="none" points="109.7763,31.6746 101.0983,30.8068 96.7593,32.9763 86.7797,42.522 81.5729,56.8407 79.8373,70.7254 81.139,83.7424 82.4407,88.9492 92.4203,100.2305" stroke="#29ffcd" stroke-width="2" /><polyline fill="none" points="60.7458,39.9186 44.6915,39.0508 40.3525,40.3525" stroke="#cdff29" stroke-width="2" /><polyline fill="none" points="55.539,55.9729 43.3898,57.7085 40.3525,58.5763 38.1831,60.7458 39.0508,61.6136" stroke="#ff6700" stroke-width="2" /><polyline fill="none" points="65.9525,70.7254 41.6542,78.1017" stroke="#7f0000" stroke-width="2" /></svg>