<?xml version="1.0" encoding="utf-8" ?>
<svg baseProfile="tiny" height="128" version="1.2" viewBox="0,0,128,128" width="128" xmlns="http://www.w3.org/2000/svg" xmlns:ev="http://www.w3.org/2001/xml-events" xmlns:xlink="http://www.w3.org/1999/xlink"><defs /><polyline fill="none" points="76.3661,14.3186 64.2169,13.0169 48.1627,17.3559 32.1085,26.9017 16.922,42.0881 11.2814,51.2 8.678,61.1797 9.9797,67.6881 15.1864,78.5356 22.1288,89.8169 32.1085,97.6271 43.3898,103.2678 56.8407,104.5695 66.3864,101.9661 79.8373,94.1559 92.4203,83.3085 103.2678,72.0271 115.4169,55.9729 118.4542,48.5966 119.322,42.9559 115.8508,34.278 111.5119,28.2034 103.7017,20.8271 91.9864,12.1492 78.5356,9.9797" stroke="#00007f" stroke-width="2" /><polyline fill="none" points="46.861,17.7898 47.2949,24.7322 45.9932,39.0508 42.9559,47.7288 33.8441,63.7831 26.9017,72.0271 19.9593,75.0644 16.4881,72.8949 15.6203,69.4237 19.9593,62.9153" stroke="#004cff" stroke-width="2" /><polyline fill="none" points="69.8576,8.678 65.0847,30.3729 65.0847,41.6542 70.7254,63.7831 77.2339,70.7254 91.9864,77.2339 99.7966,77.2339 106.3051,74.1966 109.3424,67.2542" stroke="#29ffcd" stroke-width="2" /><polyline fill="none" points="94.1559,56.4068 80.7051,71.5932" stroke="#cdff29" stroke-width="2" /><polyline fill="none" points="76.3661,43.3898 62.9153,52.5017" stroke="#ff6700" stroke-width="2" /><polyline fill="none" points="77.6678,16.922 69.8576,17.7898" stroke="#7f0000" stroke-width="2" /></svg>