<?xml version="1.0" encoding="utf-8" ?>
<svg baseProfile="tiny" height="128" version="1.2" viewBox="0,0,128,128" width="128" xmlns="http://www.w3.org/2000/svg" xmlns:ev="http://www.w3.org/2001/xml-events" xmlns:xlink="http://www.w3.org/1999/xlink"><defs /><polyline fill="none" points="98.4949,26.0339 94.5898,24.2983 72.8949,22.1288 50.7661,22.1288 38.6169,23.4305 26.4678,32.1085 16.922,42.522 10.8475,55.9729 8.678,67.2542 8.678,82.0068 15.6203,96.3254 30.8068,111.078 44.6915,118.4542 57.2746,119.322 72.8949,117.1525 84.1763,104.1356 93.2881,85.0441 97.6271,67.6881 97.6271,48.1627 94.5898,31.6746 88.9492,24.7322 81.139,21.261 66.8203,21.261" stroke="#00007f" stroke-width="2" /><polyline fill="none" points="20.8271,31.2407 33.4102,39.9186 37.7492,45.5593 39.9186,53.8034 40.7864,65.0847 39.9186,90.2508 36.4475,101.0983 31.6746,111.078 27.7695,116.2847 21.261,118.4542" stroke="#7cff79" stroke-width="2" /><polyline fill="none" points="86.3458,8.678 81.139,16.0542 72.8949,69.4237 73.7627,94.5898 82.0068,101.9661" stroke="#7f0000" stroke-width="2" /></svg>