<?xml version="1.0" encoding="utf-8" ?>
<svg baseProfile="tiny" height="128" version="1.2" viewBox="0,0,128,128" width="128" xmlns="http://www.w3.org/2000/svg" xmlns:ev="http://www.w3.org/2001/xml-events" xmlns:xlink="http://www.w3.org/1999/xlink"><defs /><polyline fill="none" points="45.9932,47.7288 20.8271,52.9356 9.9797,59.878 8.678,63.7831 10.8475,77.6678 13.0169,85.0441 22.5627,101.5322 26.0339,104.5695 36.0136,106.739 78.9695,101.5322 104.5695,75.4983 111.5119,65.0847 117.1525,46.861 119.322,32.1085 117.5864,24.2983 114.5492,18.6576 110.2102,14.7525 98.9288,9.5458 88.9492,8.678 54.6712,14.7525 39.4847,19.9593 30.8068,25.1661 19.9593,37.7492 18.2237,40.3525 19.0915,50.7661 15.1864,60.3119" stroke="#00007f" stroke-width="2" /><polyline fill="none" points="35.5797,22.9966 49.0305,39.9186 53.8034,49.4644 55.539,59.4441 54.2373,78.5356 39.9186,94.5898 23.8644,98.9288 15.6203,98.061" stroke="#00d4ff" stroke-width="2" /><polyline fill="none" points="86.3458,12.5831 72.461,22.9966 67.6881,30.3729 65.0847,42.0881 65.9525,56.4068 68.9898,64.2169 75.0644,71.5932 90.2508,76.8 102.8339,85.478" stroke="#ffe500" stroke-width="2" /><polyline fill="none" points="102.8339,85.478 102.8339,85.478" stroke="#7f0000" stroke-width="2" /></svg>