<?xml version="1.0" encoding="utf-8" ?>
<svg baseProfile="tiny" height="128" version="1.2" viewBox="0,0,128,128" width="128" xmlns="http://www.w3.org/2000/svg" xmlns:ev="http://www.w3.org/2001/xml-events" xmlns:xlink="http://www.w3.org/1999/xlink"><defs /><polyline fill="none" points="105.4373,9.1119 99.3627,12.1492 97.1932,16.922 97.6271,29.5051 99.7966,33.4102 105.0034,35.1458 112.3797,35.1458 119.322,27.3356 119.322,19.5254 117.5864,14.3186 110.6441,9.1119 104.5695,8.678" stroke="#00007f" stroke-width="2" /><polyline fill="none" points="100.2305,17.3559 103.2678,20.8271" stroke="#0000de" stroke-width="2" /><polyline fill="none" points="106.739,23.4305 107.6068,26.0339" stroke="#0028ff" stroke-width="2" /><polyline fill="none" points="111.078,29.5051 111.9458,32.9763" stroke="#0080ff" stroke-width="2" /><polyline fill="none" points="108.9085,27.3356 110.6441,28.2034" stroke="#00d4ff" stroke-width="2" /><polyline fill="none" points="104.5695,20.8271 104.5695,20.8271" stroke="#36ffc0" stroke-width="2" /><polyline fill="none" points="98.4949,15.6203 98.4949,15.6203" stroke="#7cff79" stroke-width="2" /><polyline fill="none" points="116.2847,13.4508 111.5119,14.3186" stroke="#c0ff36" stroke-width="2" /><polyline fill="none" points="109.3424,15.1864 108.4746,16.4881" stroke="#ffe500" stroke-width="2" /><polyline fill="none" points="104.5695,20.3932 104.5695,20.8271" stroke="#ff9400" stroke-width="2" /><polyline fill="none" points="103.2678,24.2983 102.8339,26.9017" stroke="#ff4600" stroke-width="2" /><polyline fill="none" points="102.4,28.6373 102.4,31.2407" stroke="#de0000" stroke-width="2" /><polyline fill="none" points="11.7153,11.7153 9.1119,9.5458 8.678,17.3559 9.9797,14.3186" stroke="#7f0000" stroke-width="2" /></svg>