<?xml version="1.0" encoding="utf-8" ?>
<svg baseProfile="tiny" height="128" version="1.2" viewBox="0,0,128,128" width="128" xmlns="http://www.w3.org/2000/svg" xmlns:ev="http://www.w3.org/2001/xml-events" xmlns:xlink="http://www.w3.org/1999/xlink"><defs /><polyline fill="none" points="75.7551,16.5442 51.3741,17.415 32.6531,22.2041 19.1565,29.6054 12.6259,37.8776 10.449,46.1497 8.7075,69.2245 10.449,93.1701 23.5102,109.7143 34.8299,119.2925 41.3605,118.4218 60.517,107.9728 79.6735,100.5714 84.4626,95.7823 90.5578,85.3333 95.7823,70.0952 95.7823,63.5646 88.381,29.6054 85.7687,24.8163 78.8027,18.2857" stroke="#00007f" stroke-width="2" /><polyline fill="none" points="19.1565,32.2177 20.898,35.7007" stroke="#0000f1" stroke-width="2" /><polyline fill="none" points="24.8163,47.4558 23.9456,50.068" stroke="#004cff" stroke-width="2" /><polyline fill="none" points="26.9932,70.5306 29.1701,87.0748" stroke="#00b0ff" stroke-width="2" /><polyline fill="none" points="28.2993,102.3129 24.8163,107.102" stroke="#29ffcd" stroke-width="2" /><polyline fill="none" points="73.1429,20.4626 72.2721,25.6871" stroke="#7cff79" stroke-width="2" /><polyline fill="none" points="69.6599,36.1361 70.966,47.8912" stroke="#cdff29" stroke-width="2" /><polyline fill="none" points="69.6599,60.517 72.7075,70.5306" stroke="#ffc400" stroke-width="2" /><polyline fill="none" points="74.449,91.8639 77.0612,94.4762" stroke="#ff6700" stroke-width="2" /><polyline fill="none" points="77.0612,94.4762 73.1429,79.6735 80.9796,8.7075" stroke="#f10700" stroke-width="2" /><polyline fill="none" points="14.3673,23.9456 26.5578,40.0544 35.2653,66.1769 35.7007,77.932 33.0884,92.7347 23.5102,116.2449" stroke="#7f0000" stroke-width="2" /></svg>