<?xml version="1.0" encoding="utf-8" ?>
<svg baseProfile="tiny" height="128" version="1.2" viewBox="0,0,128,128" width="128" xmlns="http://www.w3.org/2000/svg" xmlns:ev="http://www.w3.org/2001/xml-events" xmlns:xlink="http://www.w3.org/1999/xlink"><defs /><polyline fill="none" points="99.3627,8.678 74.6305,8.678 57.7085,10.8475 44.6915,13.4508 22.9966,22.5627 14.3186,29.5051 11.2814,35.5797 8.678,43.8237 8.678,59.4441 10.4136,65.0847 21.6949,82.0068 25.1661,85.478 39.9186,93.722 44.2576,94.5898 83.3085,94.5898 104.1356,86.3458 110.2102,81.5729 117.1525,71.5932 119.322,50.7661 114.1153,32.1085 105.8712,16.4881 99.7966,11.2814" stroke="#00007f" stroke-width="2" /><polyline fill="none" points="111.5119,23.8644 95.0237,25.1661 82.8746,30.8068 76.8,36.0136 76.3661,39.9186 69.4237,49.0305 67.2542,59.4441 67.2542,81.139 72.461,89.8169" stroke="#7cff79" stroke-width="2" /><polyline fill="none" points="44.6915,14.3186 44.2576,29.939 39.9186,42.9559 21.6949,62.0475 13.8847,68.5559 11.2814,68.9898" stroke="#7f0000" stroke-width="2" /></svg>