<?xml version="1.0" encoding="utf-8" ?>
<svg baseProfile="tiny" height="128" version="1.2" viewBox="0,0,128,128" width="128" xmlns="http://www.w3.org/2000/svg" xmlns:ev="http://www.w3.org/2001/xml-events" xmlns:xlink="http://www.w3.org/1999/xlink"><defs /><polyline fill="none" points="31.0171,29.2696 22.7167,33.6382 14.4164,41.5017 11.7952,46.3072 8.7372,59.413 8.7372,74.2662 12.6689,84.7509 19.6587,93.0512 39.7543,102.2253 48.4915,104.4096 68.1502,105.7201 87.372,103.5358 96.1092,100.9147 105.7201,96.1092 114.4573,88.2457 117.5154,82.1297 119.2628,71.6451 119.2628,56.7918 115.7679,48.0546 103.5358,25.3379 93.0512,16.6007 78.198,10.9215 55.4812,8.7372 48.9283,12.6689 38.8805,21.4061 21.4061,39.7543" stroke="#00007f" stroke-width="2" /><polyline fill="none" points="23.1536,40.628 44.1229,51.5495 54.1706,58.9761 56.3549,66.8396 58.5392,92.6143 60.7235,98.2935 66.8396,100.9147" stroke="#7cff79" stroke-width="2" /><polyline fill="none" points="81.256,13.1058 79.9454,21.4061 80.3823,43.686 82.1297,46.744 102.2253,65.529 111.3993,71.2082" stroke="#7f0000" stroke-width="2" /></svg>