<?xml version="1.0" encoding="utf-8" ?>
<svg baseProfile="tiny" height="128" version="1.2" viewBox="0,0,128,128" width="128" xmlns="http://www.w3.org/2000/svg" xmlns:ev="http://www.w3.org/2001/xml-events" xmlns:xlink="http://www.w3.org/1999/xlink"><defs /><polyline fill="none" points="107.5374,32.2177 107.102,27.4286 99.7007,16.9796 92.7347,11.7551 84.898,9.1429 62.6939,9.1429 50.068,10.449 39.619,16.5442 28.7347,25.6871 18.7211,38.3129 13.4966,50.068 10.0136,61.8231 8.7075,73.5782 8.7075,87.5102 11.3197,97.5238 16.5442,108.4082 22.6395,113.1973 47.0204,119.2925 74.449,118.8571 89.2517,113.1973 104.0544,103.1837 110.1497,94.0408 114.068,74.449 114.068,36.1361" stroke="#00007f" stroke-width="2" /><polyline fill="none" points="13.4966,102.3129 30.0408,93.6054 40.9252,85.7687 52.2449,76.1905 58.7755,67.483 67.483,52.6803 71.8367,42.2313 75.3197,23.0748 75.3197,8.7075" stroke="#00d4ff" stroke-width="2" /><polyline fill="none" points="107.5374,33.9592 107.102,39.1837 103.1837,53.9864 94.4762,75.3197 70.5306,110.585 60.517,117.9864 57.4694,119.2925" stroke="#ffe500" stroke-width="2" /><polyline fill="none" points="33.9592,18.2857 46.585,19.1565 58.7755,22.2041 90.5578,37.4422 104.0544,47.8912 118.4218,67.9184" stroke="#7f0000" stroke-width="2" /></svg>