<?xml version="1.0" encoding="utf-8" ?>
<svg baseProfile="tiny" height="128" version="1.2" viewBox="0,0,128,128" width="128" xmlns="http://www.w3.org/2000/svg" xmlns:ev="http://www.w3.org/2001/xml-events" xmlns:xlink="http://www.w3.org/1999/xlink"><defs /><polyline fill="none" points="49.4644,10.4136 36.8814,12.5831 34.278,14.7525 23.8644,32.5424 15.6203,49.8983 11.2814,62.0475 9.5458,73.7627 10.8475,86.7797 26.4678,108.9085 34.7119,114.5492 42.522,117.5864 55.1051,119.322 67.6881,118.0203 80.2712,109.3424 88.9492,101.9661 94.1559,90.6847 95.4576,69.8576 93.722,53.3695 88.5153,32.9763 78.1017,19.0915 72.0271,14.7525 50.7661,8.678" stroke="#00007f" stroke-width="2" /><polyline fill="none" points="8.678,76.8 11.2814,75.4983 20.8271,75.9322 31.2407,80.7051 44.2576,94.1559 52.9356,108.0407" stroke="#7cff79" stroke-width="2" /><polyline fill="none" points="38.1831,18.6576 50.3322,31.2407 80.2712,50.3322" stroke="#7f0000" stroke-width="2" /></svg>