<?xml version="1.0" encoding="utf-8" ?>
<svg baseProfile="tiny" height="128" version="1.2" viewBox="0,0,128,128" width="128" xmlns="http://www.w3.org/2000/svg" xmlns:ev="http://www.w3.org/2001/xml-events" xmlns:xlink="http://www.w3.org/1999/xlink"><defs /><polyline fill="none" points="50.068,10.0136 45.7143,11.7551 39.1837,16.5442 28.7347,27.8639 16.9796,46.1497 8.7075,69.2245 9.5782,79.6735 11.7551,84.898 18.7211,95.7823 28.2993,105.3605 38.3129,113.6327 49.1973,118.4218 65.3061,119.2925 81.415,115.3741 101.4422,106.2313 107.102,101.0068 111.8912,92.2993 115.8095,79.2381 116.2449,69.6599 108.4082,43.9728 90.5578,12.1905 84.4626,8.7075 75.7551,9.5782 68.7891,12.6259 51.8095,12.1905 43.5374,14.3673" stroke="#00007f" stroke-width="2" /><polyline fill="none" points="27.4286,33.5238 37.8776,40.0544 44.8435,47.8912 50.5034,58.7755 51.8095,74.449 48.7619,86.6395 40.0544,96.2177 29.6054,101.4422 23.9456,101.4422 20.898,94.0408" stroke="#00d4ff" stroke-width="2" /><polyline fill="none" points="34.3946,23.0748 40.0544,26.9932 47.8912,34.8299 53.1156,43.9728 66.1769,59.6463 68.3537,67.9184 65.3061,78.3673 52.6803,97.0884 44.4082,102.7483 39.619,102.7483" stroke="#ffe500" stroke-width="2" /><polyline fill="none" points="96.6531,26.9932 88.381,40.0544" stroke="#7f0000" stroke-width="2" /></svg>