<?xml version="1.0" encoding="utf-8" ?>
<svg baseProfile="tiny" height="128" version="1.2" viewBox="0,0,128,128" width="128" xmlns="http://www.w3.org/2000/svg" xmlns:ev="http://www.w3.org/2001/xml-events" xmlns:xlink="http://www.w3.org/1999/xlink"><defs /><polyline fill="none" points="86.3458,13.8847 78.1017,9.5458 61.6136,8.678 49.4644,10.4136 29.5051,21.6949 8.678,39.9186 9.1119,53.3695 11.7153,67.2542 20.8271,88.0814 35.1458,101.5322 47.2949,105.8712 66.8203,110.6441 80.2712,105.4373 99.7966,91.1186 107.6068,82.8746 117.5864,64.2169 119.322,56.8407 117.5864,42.0881 114.1153,33.4102 100.2305,17.3559 95.4576,14.3186 76.8,16.4881" stroke="#00007f" stroke-width="2" /><polyline fill="none" points="33.8441,19.5254 29.939,24.7322 27.3356,32.5424 27.3356,48.1627 29.5051,56.8407 32.5424,62.4814 39.0508,69.4237 57.2746,75.9322 80.7051,73.3288 87.2136,63.3492 89.8169,56.4068 97.6271,30.3729 104.5695,23.4305 116.2847,22.5627" stroke="#0000ff" stroke-width="2" /><polyline fill="none" points="42.0881,31.6746 30.8068,42.9559" stroke="#0080ff" stroke-width="2" /><polyline fill="none" points="50.7661,46.4271 37.7492,60.7458 34.7119,67.2542" stroke="#15ffe1" stroke-width="2" /><polyline fill="none" points="62.4814,61.6136 57.7085,63.3492 53.3695,71.5932 54.2373,81.5729" stroke="#7cff79" stroke-width="2" /><polyline fill="none" points="73.3288,65.5186 76.3661,70.7254 81.5729,75.4983" stroke="#e4ff12" stroke-width="2" /><polyline fill="none" points="82.8746,52.9356 91.5525,54.2373 93.2881,55.9729" stroke="#ff9400" stroke-width="2" /><polyline fill="none" points="91.1186,28.2034 101.9661,38.1831" stroke="#ff1d00" stroke-width="2" /><polyline fill="none" points="95.0237,22.5627 99.3627,23.4305" stroke="#7f0000" stroke-width="2" /></svg>