<?xml version="1.0" encoding="utf-8" ?>
<svg baseProfile="tiny" height="128" version="1.2" viewBox="0,0,128,128" width="128" xmlns="http://www.w3.org/2000/svg" xmlns:ev="http://www.w3.org/2001/xml-events" xmlns:xlink="http://www.w3.org/1999/xlink"><defs /><polyline fill="none" points="84.1763,93.2881 75.0644,92.4203 62.4814,86.7797 53.3695,74.1966 49.8983,62.9153 49.4644,47.2949 52.5017,31.2407 55.539,24.2983 66.8203,12.5831 72.461,9.9797 81.139,9.1119 89.8169,12.1492 101.5322,19.5254 109.3424,26.0339 113.2475,32.5424 118.0203,47.7288 119.322,60.7458 115.4169,76.8 105.8712,88.0814 83.7424,93.2881" stroke="#00007f" stroke-width="2" /><polyline fill="none" points="15.1864,58.1424 32.9763,52.5017" stroke="#004cff" stroke-width="2" /><polyline fill="none" points="8.678,81.139 13.0169,77.6678 33.4102,69.4237" stroke="#29ffcd" stroke-width="2" /><polyline fill="none" points="18.2237,99.3627 27.7695,94.5898 47.2949,87.6475" stroke="#cdff29" stroke-width="2" /><polyline fill="none" points="76.3661,8.678 81.139,33.4102 88.0814,58.1424 89.3831,78.1017 93.722,90.6847" stroke="#ff6700" stroke-width="2" /><polyline fill="none" points="55.9729,50.3322 66.3864,48.5966 97.6271,39.0508 108.9085,37.3153" stroke="#7f0000" stroke-width="2" /></svg>