<?xml version="1.0" encoding="utf-8" ?>
<svg baseProfile="tiny" height="128" version="1.2" viewBox="0,0,128,128" width="128" xmlns="http://www.w3.org/2000/svg" xmlns:ev="http://www.w3.org/2001/xml-events" xmlns:xlink="http://www.w3.org/1999/xlink"><defs /><polyline fill="none" points="55.9729,16.922 32.9763,18.2237 24.7322,20.3932 16.4881,26.0339 11.2814,34.7119 8.678,48.5966 8.678,83.7424 10.4136,87.2136 10.4136,91.5525 16.922,105.8712 25.1661,113.6814 35.1458,118.8881 59.0102,119.322 76.3661,116.2847 86.3458,112.8136 96.7593,98.9288 100.2305,89.8169 101.5322,81.139 101.5322,61.1797 90.6847,41.6542 84.6102,33.4102 61.6136,23.4305 50.3322,8.678" stroke="#00007f" stroke-width="2" /><polyline fill="none" points="50.3322,13.8847 52.9356,27.3356 52.9356,42.9559 54.6712,50.3322 54.6712,77.6678 45.9932,93.2881 39.9186,97.6271 34.7119,97.6271 27.7695,100.2305" stroke="#7f0000" stroke-width="2" /></svg>