<?xml version="1.0" encoding="utf-8" ?>
<svg baseProfile="tiny" height="128" version="1.2" viewBox="0,0,128,128" width="128" xmlns="http://www.w3.org/2000/svg" xmlns:ev="http://www.w3.org/2001/xml-events" xmlns:xlink="http://www.w3.org/1999/xlink"><defs /><polyline fill="none" points="37.7492,10.4136 23.4305,13.8847 16.922,19.9593 13.0169,27.3356 8.678,41.2203 8.678,75.0644 10.4136,82.4407 17.3559,95.4576 22.1288,101.5322 27.3356,105.0034 39.9186,108.9085 69.8576,108.9085 86.7797,101.5322 108.0407,88.5153 113.2475,84.1763 118.4542,73.7627 119.322,68.5559 117.5864,48.5966 108.9085,33.4102 97.1932,22.5627 68.5559,9.5458 49.4644,8.678" stroke="#00007f" stroke-width="2" /><polyline fill="none" points="14.7525,17.3559 28.6373,23.4305 45.5593,34.278 49.4644,37.7492 54.6712,48.1627 56.4068,59.0102 55.539,85.0441 51.2,93.722 41.2203,106.3051 45.1254,98.061" stroke="#7cff79" stroke-width="2" /><polyline fill="none" points="96.3254,30.8068 88.0814,39.9186 87.2136,55.539 89.3831,63.7831 96.3254,77.2339 104.1356,85.478" stroke="#7f0000" stroke-width="2" /></svg>