<?xml version="1.0" encoding="utf-8" ?>
<svg baseProfile="tiny" height="128" version="1.2" viewBox="0,0,128,128" width="128" xmlns="http://www.w3.org/2000/svg" xmlns:ev="http://www.w3.org/2001/xml-events" xmlns:xlink="http://www.w3.org/1999/xlink"><defs /><polyline fill="none" points="68.5559,18.6576 63.7831,16.0542 52.5017,13.8847 33.8441,19.0915 23.4305,25.6 16.0542,34.7119 9.9797,47.7288 8.678,66.3864 10.4136,75.9322 13.4508,82.8746 18.6576,90.2508 27.7695,98.4949 34.278,104.1356 44.2576,109.3424 58.5763,112.8136 75.9322,114.1153 87.2136,111.5119 91.5525,108.9085 105.0034,92.8542 114.1153,74.6305 116.7186,65.0847 119.322,43.3898 118.8881,36.8814 114.1153,26.9017 105.4373,17.3559 98.9288,13.8847 76.8,9.1119 47.2949,8.678" stroke="#00007f" stroke-width="2" /><polyline fill="none" points="58.5763,13.4508 64.6508,31.2407 66.3864,39.9186 65.5186,59.4441 59.878,71.5932 55.1051,76.8 44.6915,84.1763 42.522,82.4407" stroke="#0028ff" stroke-width="2" /><polyline fill="none" points="99.3627,10.4136 82.8746,45.5593 80.2712,57.7085 81.5729,64.2169 85.0441,69.8576 95.4576,81.5729" stroke="#00d4ff" stroke-width="2" /><polyline fill="none" points="48.5966,33.4102 62.9153,33.8441" stroke="#7cff79" stroke-width="2" /><polyline fill="none" points="45.1254,57.7085 49.8983,60.7458 63.7831,65.9525" stroke="#ffe500" stroke-width="2" /><polyline fill="none" points="81.139,26.9017 96.3254,33.4102" stroke="#ff4600" stroke-width="2" /><polyline fill="none" points="66.3864,58.1424 70.7254,61.1797 90.6847,65.9525" stroke="#7f0000" stroke-width="2" /></svg>