<?xml version="1.0" encoding="utf-8" ?>
<svg baseProfile="tiny" height="128" version="1.2" viewBox="0,0,128,128" width="128" xmlns="http://www.w3.org/2000/svg" xmlns:ev="http://www.w3.org/2001/xml-events" xmlns:xlink="http://www.w3.org/1999/xlink"><defs /><polyline fill="none" points="56.4068,29.0712 52.0678,26.9017 42.0881,26.9017 32.1085,30.3729 26.0339,35.1458 20.3932,42.522 15.1864,53.3695 11.2814,68.5559 11.7153,89.8169 14.7525,104.1356 20.3932,114.9831 31.6746,119.322 44.6915,118.4542 62.4814,111.078 72.8949,105.0034 77.2339,98.061 75.9322,71.1593 67.6881,45.5593 48.5966,17.7898 42.0881,12.5831 31.6746,8.678" stroke="#00007f" stroke-width="2" /><polyline fill="none" points="20.8271,61.1797 24.7322,62.9153 29.5051,67.6881 29.5051,75.4983 14.7525,98.061 12.1492,98.9288 8.678,95.8915" stroke="#0080ff" stroke-width="2" /><polyline fill="none" points="62.9153,70.2915 61.6136,80.2712 63.7831,84.1763 72.8949,88.0814 82.0068,89.8169" stroke="#7cff79" stroke-width="2" /><polyline fill="none" points="43.3898,36.8814 45.1254,55.1051 45.1254,111.5119 45.9932,114.5492" stroke="#ff9400" stroke-width="2" /><polyline fill="none" points="61.1797,71.5932 64.6508,65.9525 69.8576,65.0847" stroke="#7f0000" stroke-width="2" /></svg>