<?xml version="1.0" encoding="utf-8" ?>
<svg baseProfile="tiny" height="128" version="1.2" viewBox="0,0,128,128" width="128" xmlns="http://www.w3.org/2000/svg" xmlns:ev="http://www.w3.org/2001/xml-events" xmlns:xlink="http://www.w3.org/1999/xlink"><defs /><polyline fill="none" points="30.8068,8.678 20.8271,9.9797 12.1492,23.4305 8.678,40.7864 8.678,62.4814 11.2814,79.8373 22.5627,98.4949 51.6339,119.322 65.0847,119.322 71.5932,118.0203 77.6678,111.9458 82.4407,103.7017 86.3458,89.8169 94.5898,73.7627 94.5898,40.7864 82.4407,20.8271 76.3661,18.6576 70.2915,13.8847 55.539,8.678 38.1831,8.678" stroke="#00007f" stroke-width="2" /><polyline fill="none" points="40.7864,8.678 30.8068,29.5051 13.8847,55.1051 11.2814,62.9153 8.678,64.2169" stroke="#00d4ff" stroke-width="2" /><polyline fill="none" points="45.5593,13.4508 52.9356,20.8271 67.6881,40.3525 75.0644,45.5593 75.0644,48.1627" stroke="#ffe500" stroke-width="2" /><polyline fill="none" points="75.0644,50.3322 75.0644,57.7085 70.2915,70.2915 70.2915,99.7966" stroke="#7f0000" stroke-width="2" /></svg>