<?xml version="1.0" encoding="utf-8" ?>
<svg baseProfile="tiny" height="128" version="1.2" viewBox="0,0,128,128" width="128" xmlns="http://www.w3.org/2000/svg" xmlns:ev="http://www.w3.org/2001/xml-events" xmlns:xlink="http://www.w3.org/1999/xlink"><defs /><polyline fill="none" points="71.5932,13.8847 65.0847,9.9797 58.5763,9.1119 42.522,8.678 27.3356,14.3186 19.0915,23.4305 15.6203,33.8441 12.1492,52.9356 12.1492,73.3288 18.6576,87.2136 25.1661,92.8542 30.8068,95.4576 51.6339,100.2305 70.2915,101.0983 76.8,99.7966 85.9119,96.3254 104.5695,85.0441 110.6441,79.8373 116.2847,70.7254 118.8881,59.4441 119.322,41.6542 114.9831,30.8068 110.2102,26.0339 103.2678,22.1288 73.7627,15.1864 67.6881,12.1492" stroke="#00007f" stroke-width="2" /><polyline fill="none" points="69.4237,12.1492 67.2542,13.4508 65.9525,18.6576 64.6508,50.3322 66.3864,58.1424 75.0644,71.5932 86.3458,82.4407 101.5322,89.3831 99.7966,80.7051" stroke="#7cff79" stroke-width="2" /><polyline fill="none" points="66.3864,11.7153 63.3492,37.7492 64.6508,55.539 60.3119,58.5763 47.7288,62.0475 28.2034,70.7254 12.1492,73.7627 9.5458,75.0644 8.678,77.6678" stroke="#7f0000" stroke-width="2" /></svg>