<?xml version="1.0" encoding="utf-8" ?>
<svg baseProfile="tiny" height="128" version="1.2" viewBox="0,0,128,128" width="128" xmlns="http://www.w3.org/2000/svg" xmlns:ev="http://www.w3.org/2001/xml-events" xmlns:xlink="http://www.w3.org/1999/xlink"><defs /><polyline fill="none" points="22.6395,83.5918 17.415,80.5442 8.7075,79.2381 9.1429,88.8163 14.8027,95.3469 20.0272,97.0884 25.2517,96.2177 33.5238,90.5578 47.8912,73.1429 66.1769,35.2653 67.483,28.7347 66.6122,13.4966 63.1293,10.0136 53.1156,8.7075 44.4082,13.932 39.1837,20.0272 36.5714,26.5578 32.2177,62.6939 22.6395,73.5782 22.2041,81.8503" stroke="#00007f" stroke-width="2" /><polyline fill="none" points="108.4082,18.7211 95.7823,23.5102 89.2517,28.7347 85.7687,35.2653 85.7687,43.9728 87.9456,47.0204 91.8639,49.6327 100.5714,50.9388 114.9388,44.4082 119.2925,36.5714 118.4218,26.1224 110.585,18.7211" stroke="#7cff79" stroke-width="2" /><polyline fill="none" points="112.7619,20.898 109.2789,30.4762 107.9728,38.3129" stroke="#7f0000" stroke-width="2" /></svg>