<?xml version="1.0" encoding="utf-8" ?>
<svg baseProfile="tiny" height="128" version="1.2" viewBox="0,0,128,128" width="128" xmlns="http://www.w3.org/2000/svg" xmlns:ev="http://www.w3.org/2001/xml-events" xmlns:xlink="http://www.w3.org/1999/xlink"><defs /><polyline fill="none" points="72.8949,9.9797 68.5559,9.9797 47.7288,26.0339 25.6,39.0508 21.6949,42.522 18.2237,50.7661 18.2237,77.6678 22.5627,92.8542 23.8644,104.5695 26.0339,108.9085 29.5051,111.9458 44.6915,119.322 79.4034,119.322 91.5525,112.8136 101.9661,95.8915 112.8136,68.9898 117.1525,39.0508 113.6814,34.7119 102.8339,30.3729 88.9492,16.4881 75.0644,9.5458" stroke="#00007f" stroke-width="2" /><polyline fill="none" points="69.4237,8.678 70.2915,31.6746 73.7627,44.2576 76.8,62.9153 87.2136,72.461 88.5153,75.9322 97.6271,81.139" stroke="#7cff79" stroke-width="2" /><polyline fill="none" points="70.2915,18.2237 70.2915,26.4678 65.9525,36.0136 65.5186,40.7864 57.2746,60.3119 52.9356,79.4034 48.5966,82.4407 8.678,83.3085" stroke="#7f0000" stroke-width="2" /></svg>