<?xml version="1.0" encoding="utf-8" ?>
<svg baseProfile="tiny" height="128" version="1.2" viewBox="0,0,128,128" width="128" xmlns="http://www.w3.org/2000/svg" xmlns:ev="http://www.w3.org/2001/xml-events" xmlns:xlink="http://www.w3.org/1999/xlink"><defs /><polyline fill="none" points="41.7959,9.1429 30.9116,8.7075 24.8163,11.7551 19.1565,18.7211 10.8844,33.9592 8.7075,47.4558 9.1429,60.0816 11.7551,67.0476 16.1088,72.7075 27.4286,81.8503 33.9592,84.898 55.2925,90.5578 70.0952,90.9932 78.3673,89.6871 99.7007,80.9796 110.1497,73.1429 116.2449,63.1293 117.9864,57.4694 119.2925,47.0204 118.8571,37.0068 112.7619,28.7347 93.1701,16.9796 74.8844,10.8844 64.4354,9.1429 49.1973,9.1429 35.7007,12.6259" stroke="#00007f" stroke-width="2" /><polyline fill="none" points="34.8299,10.449 40.4898,15.6735 44.4082,23.0748 46.1497,43.102 42.6667,56.5986 32.2177,78.3673" stroke="#0010ff" stroke-width="2" /><polyline fill="none" points="92.2993,22.6395 87.9456,52.2449 88.381,62.6939 90.1224,67.0476 96.6531,74.0136 106.2313,77.4966" stroke="#00a4ff" stroke-width="2" /><polyline fill="none" points="81.8503,36.5714 80.9796,34.3946 85.3333,31.7823 100.1361,28.7347" stroke="#3fffb7" stroke-width="2" /><polyline fill="none" points="86.6395,57.9048 97.5238,52.6803 104.0544,50.9388" stroke="#b7ff3f" stroke-width="2" /><polyline fill="none" points="90.9932,79.2381 90.1224,77.4966 91.4286,75.7551 103.1837,69.2245" stroke="#ffb900" stroke-width="2" /><polyline fill="none" points="37.4422,29.6054 47.4558,27.4286" stroke="#ff3000" stroke-width="2" /><polyline fill="none" points="35.7007,57.4694 45.2789,56.1633" stroke="#7f0000" stroke-width="2" /></svg>