<?xml version="1.0" encoding="utf-8" ?>
<svg baseProfile="tiny" height="128" version="1.2" viewBox="0,0,128,128" width="128" xmlns="http://www.w3.org/2000/svg" xmlns:ev="http://www.w3.org/2001/xml-events" xmlns:xlink="http://www.w3.org/1999/xlink"><defs /><polyline fill="none" points="32.5424,27.7695 25.6,28.6373 15.6203,35.1458 10.8475,45.5593 8.678,56.8407 8.678,76.3661 9.9797,83.7424 15.6203,95.8915 24.2983,106.3051 34.7119,111.9458 51.6339,112.3797 71.5932,106.3051 93.2881,94.5898 100.6644,89.3831 105.8712,82.4407 107.1729,75.0644 107.1729,60.7458 103.7017,49.0305 98.061,36.4475 91.5525,26.9017 84.6102,20.3932 75.4983,14.7525 64.2169,9.9797 53.8034,8.678 40.7864,8.678 26.0339,14.7525 18.2237,20.3932 12.1492,30.3729 10.8475,40.7864 13.4508,46.861" stroke="#00007f" stroke-width="2" /><polyline fill="none" points="14.3186,42.9559 24.2983,52.5017 32.5424,62.4814 40.7864,77.6678 46.4271,94.1559 46.861,119.322" stroke="#7cff79" stroke-width="2" /><polyline fill="none" points="65.9525,18.2237 60.7458,55.9729" stroke="#7f0000" stroke-width="2" /></svg>