<?xml version="1.0" encoding="utf-8" ?>
<svg baseProfile="tiny" height="128" version="1.2" viewBox="0,0,128,128" width="128" xmlns="http://www.w3.org/2000/svg" xmlns:ev="http://www.w3.org/2001/xml-events" xmlns:xlink="http://www.w3.org/1999/xlink"><defs /><polyline fill="none" points="85.9119,8.678 82.0068,10.8475 48.5966,16.0542 36.8814,19.9593 27.7695,25.6 20.3932,33.8441 14.7525,42.9559 9.9797,54.6712 8.678,80.2712 12.1492,92.4203 19.0915,101.9661 28.6373,109.3424 39.0508,113.6814 65.9525,115.4169 80.7051,110.6441 94.1559,101.5322 105.4373,87.2136 112.8136,71.1593 119.322,48.5966 118.0203,32.1085 112.8136,23.4305 105.8712,16.0542 94.1559,10.8475 77.2339,9.5458" stroke="#00007f" stroke-width="2" /><polyline fill="none" points="43.8237,19.9593 45.5593,28.2034 54.6712,49.0305 56.8407,57.2746 56.8407,78.5356 49.8983,94.5898 43.8237,100.6644 32.9763,106.739 24.7322,106.3051 22.5627,104.5695" stroke="#0000ff" stroke-width="2" /><polyline fill="none" points="97.6271,9.9797 95.0237,11.7153 87.6475,29.5051 80.2712,54.2373 78.5356,63.7831 78.5356,77.6678 79.8373,82.8746 84.1763,87.6475 89.3831,91.1186 104.1356,97.1932" stroke="#0080ff" stroke-width="2" /><polyline fill="none" points="75.0644,34.278 87.6475,33.4102 101.5322,34.7119" stroke="#15ffe1" stroke-width="2" /><polyline fill="none" points="74.1966,46.861 96.7593,45.9932" stroke="#7cff79" stroke-width="2" /><polyline fill="none" points="74.1966,74.6305 85.9119,71.5932" stroke="#e4ff12" stroke-width="2" /><polyline fill="none" points="80.2712,97.1932 87.6475,91.1186" stroke="#ff9400" stroke-width="2" /><polyline fill="none" points="41.2203,52.0678 60.3119,44.2576" stroke="#ff1d00" stroke-width="2" /><polyline fill="none" points="46.4271,58.1424 56.4068,58.1424 62.4814,61.1797" stroke="#7f0000" stroke-width="2" /></svg>