<?xml version="1.0" encoding="utf-8" ?>
<svg baseProfile="tiny" height="128" version="1.2" viewBox="0,0,128,128" width="128" xmlns="http://www.w3.org/2000/svg" xmlns:ev="http://www.w3.org/2001/xml-events" xmlns:xlink="http://www.w3.org/1999/xlink"><defs /><polyline fill="none" points="71.8367,23.0748 63.1293,20.0272 57.034,19.5918 52.6803,20.898 27.8639,33.5238 16.5442,45.2789 9.5782,60.517 8.7075,71.8367 13.4966,90.5578 20.4626,102.3129 30.9116,110.585 41.7959,114.5034 62.2585,115.8095 74.449,114.068 86.2041,107.5374 95.7823,99.7007 105.7959,88.8163 115.3741,74.449 119.2925,59.2109 119.2925,50.5034 112.3265,30.4762 106.2313,19.1565 100.5714,13.0612 94.4762,10.0136 79.2381,8.7075" stroke="#00007f" stroke-width="2" /><polyline fill="none" points="33.0884,34.8299 37.4422,33.0884 46.585,39.1837 57.4694,54.4218 61.3878,63.5646 57.9048,73.1429 47.4558,88.8163 28.7347,113.1973 26.1224,112.3265" stroke="#7cff79" stroke-width="2" /><polyline fill="none" points="105.3605,26.5578 91.8639,40.4898 85.3333,50.5034 74.8844,77.0612 77.932,91.8639 86.6395,105.7959" stroke="#7f0000" stroke-width="2" /></svg>