<?xml version="1.0" encoding="utf-8" ?>
<svg baseProfile="tiny" height="128" version="1.2" viewBox="0,0,128,128" width="128" xmlns="http://www.w3.org/2000/svg" xmlns:ev="http://www.w3.org/2001/xml-events" xmlns:xlink="http://www.w3.org/1999/xlink"><defs /><polyline fill="none" points="68.5559,13.8847 62.9153,10.4136 58.1424,10.4136 37.7492,14.7525 26.9017,20.8271 16.0542,29.5051 9.9797,39.0508 8.678,49.8983 12.1492,62.4814 19.0915,72.0271 30.3729,83.7424 41.2203,91.5525 52.9356,96.7593 67.6881,99.7966 76.3661,99.7966 90.2508,96.7593 104.5695,88.9492 110.6441,83.3085 114.9831,78.1017 118.4542,69.4237 119.322,59.4441 115.8508,45.9932 109.3424,34.7119 98.4949,21.6949 88.9492,13.8847 78.5356,10.4136 66.3864,8.678 59.4441,9.1119" stroke="#00007f" stroke-width="2" /><polyline fill="none" points="83.7424,16.4881 81.5729,36.0136 84.6102,60.3119 89.3831,72.0271 103.7017,87.2136" stroke="#0028ff" stroke-width="2" /><polyline fill="none" points="32.5424,17.3559 35.1458,27.7695 35.1458,38.6169 33.4102,55.1051 30.8068,66.8203 28.2034,71.5932" stroke="#00d4ff" stroke-width="2" /><polyline fill="none" points="32.9763,32.9763 37.7492,33.4102" stroke="#7cff79" stroke-width="2" /><polyline fill="none" points="32.1085,46.861 34.278,49.0305" stroke="#ffe500" stroke-width="2" /><polyline fill="none" points="29.5051,59.4441 32.9763,62.0475" stroke="#ff4600" stroke-width="2" /><polyline fill="none" points="92.8542,29.0712 88.5153,31.6746" stroke="#7f0000" stroke-width="2" /></svg>