<?xml version="1.0" encoding="utf-8" ?>
<svg baseProfile="tiny" height="128" version="1.2" viewBox="0,0,128,128" width="128" xmlns="http://www.w3.org/2000/svg" xmlns:ev="http://www.w3.org/2001/xml-events" xmlns:xlink="http://www.w3.org/1999/xlink"><defs /><polyline fill="none" points="27.7695,38.1831 14.7525,53.3695 8.678,72.461 9.1119,81.139 11.7153,87.2136 15.6203,94.5898 24.7322,103.7017 41.6542,112.3797 52.5017,114.1153 69.4237,114.1153 95.0237,105.4373 105.8712,98.061 110.2102,91.1186 110.6441,85.0441 110.6441,59.0102 108.4746,41.2203 101.5322,27.7695 93.722,20.8271 81.139,13.0169 69.8576,12.5831 58.5763,18.6576 43.3898,29.0712 27.7695,41.6542 19.0915,51.2 10.4136,56.4068" stroke="#00007f" stroke-width="2" /><polyline fill="none" points="34.7119,33.4102 45.9932,62.4814 46.861,74.6305 39.0508,95.0237 29.939,114.1153 26.0339,119.322" stroke="#7cff79" stroke-width="2" /><polyline fill="none" points="89.3831,8.678 82.8746,26.0339 82.4407,48.5966 85.0441,55.539 89.3831,62.4814 97.6271,69.4237 99.7966,83.3085 103.7017,95.0237 111.078,97.6271" stroke="#7f0000" stroke-width="2" /></svg>