<?xml version="1.0" encoding="utf-8" ?>
<svg baseProfile="tiny" height="128" version="1.2" viewBox="0,0,128,128" width="128" xmlns="http://www.w3.org/2000/svg" xmlns:ev="http://www.w3.org/2001/xml-events" xmlns:xlink="http://www.w3.org/1999/xlink"><defs /><polyline fill="none" points="56.4068,24.7322 42.9559,22.5627 26.9017,32.5424 13.4508,44.2576 9.5458,50.3322 8.678,61.6136 9.5458,74.6305 17.7898,89.8169 25.1661,99.3627 39.4847,110.6441 53.8034,118.4542 58.1424,119.322 75.0644,119.322 85.0441,115.8508 90.6847,104.5695 92.8542,88.5153 92.8542,70.2915 80.2712,31.2407 75.9322,26.9017 53.3695,8.678 46.4271,8.678 38.1831,22.1288" stroke="#00007f" stroke-width="2" /><polyline fill="none" points="29.5051,28.2034 29.0712,88.9492 21.261,94.1559" stroke="#7cff79" stroke-width="2" /><polyline fill="none" points="68.9898,20.3932 69.4237,45.5593 75.9322,77.2339 82.8746,86.3458 90.6847,88.5153 96.7593,93.2881" stroke="#7f0000" stroke-width="2" /></svg>