<?xml version="1.0" encoding="utf-8" ?>
<svg baseProfile="tiny" height="128" version="1.2" viewBox="0,0,128,128" width="128" xmlns="http://www.w3.org/2000/svg" xmlns:ev="http://www.w3.org/2001/xml-events" xmlns:xlink="http://www.w3.org/1999/xlink"><defs /><polyline fill="none" points="67.9184,10.0136 60.0816,8.7075 46.585,11.7551 37.0068,18.2857 25.2517,31.7823 19.1565,43.102 9.1429,70.0952 8.7075,79.6735 11.3197,87.9456 18.7211,101.0068 23.0748,105.7959 33.0884,113.6327 48.3265,119.2925 66.1769,119.2925 74.8844,116.6803 92.7347,107.102 101.8776,100.1361 107.9728,91.4286 110.585,77.932 110.1497,60.9524 106.2313,45.2789 97.5238,25.6871 91.8639,18.7211 77.0612,12.6259 65.7415,11.3197" stroke="#00007f" stroke-width="2" /><polyline fill="none" points="92.2993,13.0612 86.6395,13.932 74.0136,29.1701 69.6599,41.3605 67.483,54.4218 67.483,64.8707 69.6599,77.932 73.5782,88.8163 86.2041,110.585 90.1224,114.5034" stroke="#7cff79" stroke-width="2" /><polyline fill="none" points="38.7483,17.8503 41.3605,23.0748 46.1497,40.4898 48.3265,68.7891 44.8435,86.6395 40.9252,97.0884 34.3946,105.7959 27.8639,110.585" stroke="#7f0000" stroke-width="2" /></svg>