<?xml version="1.0" encoding="utf-8" ?>
<svg baseProfile="tiny" height="128" version="1.2" viewBox="0,0,128,128" width="128" xmlns="http://www.w3.org/2000/svg" xmlns:ev="http://www.w3.org/2001/xml-events" xmlns:xlink="http://www.w3.org/1999/xlink"><defs /><polyline fill="none" points="30.0408,92.7347 24.8163,78.3673 20.898,61.8231 19.5918,35.7007 23.5102,26.5578 32.2177,18.7211 53.551,8.7075 77.932,8.7075 88.381,12.1905 101.0068,18.2857 111.0204,25.6871 115.3741,30.9116 119.2925,41.3605 119.2925,57.034 116.2449,65.3061 104.9252,80.5442 90.9932,89.2517 72.7075,97.5238 67.0476,98.8299 47.0204,98.8299 37.4422,96.6531 20.4626,82.2857 9.5782,76.1905 8.7075,73.1429 16.1088,67.483" stroke="#00007f" stroke-width="2" /><polyline fill="none" points="80.5442,15.2381 76.6259,36.1361 76.6259,54.4218 83.5918,67.9184 87.5102,72.7075 98.8299,80.1088" stroke="#7cff79" stroke-width="2" /><polyline fill="none" points="23.5102,34.8299 39.619,51.3741 47.8912,65.7415 52.2449,77.4966 53.551,87.9456 47.0204,101.0068 44.8435,102.3129" stroke="#7f0000" stroke-width="2" /></svg>