<?xml version="1.0" encoding="utf-8" ?>
<svg baseProfile="tiny" height="128" version="1.2" viewBox="0,0,128,128" width="128" xmlns="http://www.w3.org/2000/svg" xmlns:ev="http://www.w3.org/2001/xml-events" xmlns:xlink="http://www.w3.org/1999/xlink"><defs /><polyline fill="none" points="101.0983,29.939 85.0441,18.2237 62.0475,12.5831 47.7288,15.1864 20.3932,36.8814 13.0169,52.0678 10.4136,66.3864 10.8475,81.5729 18.2237,98.4949 28.6373,110.2102 41.6542,117.1525 55.539,119.322 70.7254,115.8508 84.6102,108.9085 98.9288,97.1932 108.4746,85.0441 114.9831,71.5932 116.2847,57.7085 113.2475,44.6915 106.739,32.9763 94.5898,22.1288 82.4407,13.0169 72.8949,9.5458" stroke="#00007f" stroke-width="2" /><polyline fill="none" points="105.8712,31.6746 87.6475,33.4102 72.0271,42.0881 66.3864,48.5966 57.7085,67.6881 56.4068,76.8 57.2746,85.9119 61.1797,94.1559" stroke="#0080ff" stroke-width="2" /><polyline fill="none" points="49.0305,8.678 49.4644,24.7322 45.1254,45.5593 31.6746,65.5186 9.1119,88.0814" stroke="#7cff79" stroke-width="2" /><polyline fill="none" points="56.8407,78.9695 66.3864,108.9085 68.5559,111.078" stroke="#ff9400" stroke-width="2" /><polyline fill="none" points="8.678,75.0644 13.0169,72.461 19.0915,71.1593 33.8441,75.4983 50.3322,89.8169 63.3492,107.6068" stroke="#7f0000" stroke-width="2" /></svg>