<?xml version="1.0" encoding="utf-8" ?>
<svg baseProfile="tiny" height="128" version="1.2" viewBox="0,0,128,128" width="128" xmlns="http://www.w3.org/2000/svg" xmlns:ev="http://www.w3.org/2001/xml-events" xmlns:xlink="http://www.w3.org/1999/xlink"><defs /><polyline fill="none" points="87.6475,34.278 83.3085,29.939 70.7254,21.6949 51.6339,12.5831 39.4847,9.1119 32.1085,8.678 27.7695,10.4136 21.261,18.6576 15.1864,29.939 12.5831,37.3153 9.1119,55.1051 8.678,77.2339 11.2814,87.6475 16.4881,96.3254 22.9966,104.5695 30.3729,111.078 34.7119,113.2475 42.522,114.9831 55.9729,114.1153 62.4814,111.078 70.2915,104.1356 77.6678,94.5898 84.1763,81.5729 89.8169,67.6881 92.4203,55.1051 91.9864,41.2203 88.5153,33.8441 82.4407,26.9017" stroke="#00007f" stroke-width="2" /><polyline fill="none" points="44.6915,16.922 50.3322,57.7085 49.8983,98.061" stroke="#0080ff" stroke-width="2" /><polyline fill="none" points="11.2814,67.2542 59.878,46.861 72.8949,39.9186" stroke="#7cff79" stroke-width="2" /><polyline fill="none" points="77.6678,38.1831 84.1763,34.7119 87.2136,34.278" stroke="#ff9400" stroke-width="2" /><polyline fill="none" points="59.0102,91.9864 53.3695,104.5695 50.7661,119.322" stroke="#7f0000" stroke-width="2" /></svg>