<?xml version="1.0" encoding="utf-8" ?>
<svg baseProfile="tiny" height="128" version="1.2" viewBox="0,0,128,128" width="128" xmlns="http://www.w3.org/2000/svg" xmlns:ev="http://www.w3.org/2001/xml-events" xmlns:xlink="http://www.w3.org/1999/xlink"><defs /><polyline fill="none" points="54.4218,28.2993 48.3265,25.6871 33.5238,26.5578 18.2857,40.4898 13.0612,49.1973 9.1429,58.7755 8.7075,84.4626 13.4966,97.5238 20.898,106.6667 30.4762,114.5034 42.2313,118.8571 66.6122,119.2925 78.8027,116.2449 90.1224,111.4558 99.7007,105.3605 107.5374,97.9592 113.6327,90.5578 116.6803,82.2857 118.4218,73.5782 117.1156,57.034 104.9252,39.619 88.8163,24.381 70.0952,11.7551 60.9524,8.7075 45.7143,8.7075" stroke="#00007f" stroke-width="2" /><polyline fill="none" points="25.2517,43.5374 35.7007,49.6327 58.3401,71.8367" stroke="#00d4ff" stroke-width="2" /><polyline fill="none" points="62.2585,70.0952 91.8639,97.5238" stroke="#ffe500" stroke-width="2" /><polyline fill="none" points="40.9252,94.4762 58.3401,70.0952 88.381,34.8299" stroke="#7f0000" stroke-width="2" /></svg>