<?xml version="1.0" encoding="utf-8" ?>
<svg baseProfile="tiny" height="128" version="1.2" viewBox="0,0,128,128" width="128" xmlns="http://www.w3.org/2000/svg" xmlns:ev="http://www.w3.org/2001/xml-events" xmlns:xlink="http://www.w3.org/1999/xlink"><defs /><polyline fill="none" points="8.678,71.1593 11.2814,75.9322 16.922,80.2712 17.7898,75.9322 16.4881,72.0271 10.4136,68.9898" stroke="#00007f" stroke-width="2" /><polyline fill="none" points="15.1864,71.1593 24.7322,58.1424 37.7492,45.5593 46.861,39.4847 58.1424,36.0136 57.7085,42.0881 52.5017,50.7661 32.9763,65.9525 19.0915,74.1966" stroke="#0000de" stroke-width="2" /><polyline fill="none" points="13.4508,66.8203 10.8475,72.461" stroke="#0028ff" stroke-width="2" /><polyline fill="none" points="42.522,32.5424 40.3525,29.5051 39.9186,25.1661" stroke="#0080ff" stroke-width="2" /><polyline fill="none" points="64.6508,33.8441 73.3288,29.939 75.4983,30.8068" stroke="#00d4ff" stroke-width="2" /><polyline fill="none" points="58.1424,49.4644 68.122,55.539" stroke="#36ffc0" stroke-width="2" /><polyline fill="none" points="115.8508,26.9017 106.739,25.1661 95.8915,32.1085 89.8169,41.6542 86.7797,50.7661 86.3458,56.8407 88.9492,60.7458 94.5898,61.6136 101.9661,60.3119 109.7763,55.1051 115.4169,49.0305 118.4542,43.8237 119.322,38.1831 117.5864,31.2407 114.5492,25.6" stroke="#7cff79" stroke-width="2" /><polyline fill="none" points="98.9288,32.5424 96.7593,45.5593 99.7966,61.6136" stroke="#c0ff36" stroke-width="2" /><polyline fill="none" points="107.6068,26.9017 106.739,43.8237 108.4746,49.0305 112.8136,52.0678" stroke="#ffe500" stroke-width="2" /><polyline fill="none" points="26.0339,9.9797 26.0339,22.5627 29.5051,8.678 33.4102,9.5458 36.4475,16.922 35.1458,18.2237 30.8068,16.4881 36.0136,26.9017 29.5051,24.7322 26.9017,21.6949" stroke="#ff9400" stroke-width="2" /><polyline fill="none" points="45.1254,19.0915 40.3525,19.5254 39.4847,21.6949 40.3525,24.7322 46.861,24.7322 49.0305,21.261 47.7288,26.0339 50.3322,28.2034" stroke="#ff4600" stroke-width="2" /><polyline fill="none" points="65.0847,18.6576 61.6136,18.6576 58.5763,21.6949 57.7085,27.3356 59.4441,32.1085 54.6712,31.6746" stroke="#de0000" stroke-width="2" /><polyline fill="none" points="64.2169,29.939 75.4983,26.4678 78.1017,22.5627 75.4983,19.9593 71.1593,26.4678 70.7254,30.8068 72.0271,32.1085 80.7051,32.5424 88.9492,28.2034" stroke="#7f0000" stroke-width="2" /></svg>