<?xml version="1.0" encoding="utf-8" ?>
<svg baseProfile="tiny" height="128" version="1.2" viewBox="0,0,128,128" width="128" xmlns="http://www.w3.org/2000/svg" xmlns:ev="http://www.w3.org/2001/xml-events" xmlns:xlink="http://www.w3.org/1999/xlink"><defs /><polyline fill="none" points="89.3831,19.9593 85.9119,16.0542 76.8,12.1492 56.8407,8.678 46.4271,9.5458 34.278,14.7525 27.3356,19.9593 19.5254,28.2034 10.4136,41.2203 8.678,50.7661 11.7153,61.1797 15.1864,65.9525 28.6373,72.0271 70.7254,77.2339 95.8915,75.4983 105.0034,72.461 113.2475,66.8203 119.322,58.1424 116.7186,36.4475 104.5695,21.6949 98.4949,16.4881 94.5898,15.1864" stroke="#00007f" stroke-width="2" /><polyline fill="none" points="92.4203,15.1864 85.9119,15.6203" stroke="#00d4ff" stroke-width="2" /><polyline fill="none" points="46.861,10.4136 50.3322,19.9593 47.2949,40.7864 36.4475,63.7831 31.6746,69.8576 29.0712,71.1593" stroke="#ffe500" stroke-width="2" /><polyline fill="none" points="87.6475,15.6203 76.8,35.5797 75.4983,45.9932 79.8373,60.3119 91.9864,75.4983" stroke="#7f0000" stroke-width="2" /></svg>