<?xml version="1.0" encoding="utf-8" ?>
<svg baseProfile="tiny" height="128" version="1.2" viewBox="0,0,128,128" width="128" xmlns="http://www.w3.org/2000/svg" xmlns:ev="http://www.w3.org/2001/xml-events" xmlns:xlink="http://www.w3.org/1999/xlink"><defs /><polyline fill="none" points="54.4218,10.449 24.381,33.0884 14.8027,42.6667 11.3197,49.1973 8.7075,61.3878 8.7075,77.0612 17.415,93.6054 21.7687,98.3946 30.0408,103.619 45.7143,107.9728 75.7551,108.4082 92.7347,102.7483 106.2313,88.8163 112.3265,79.6735 117.9864,65.3061 119.2925,49.6327 112.3265,37.8776 95.7823,21.7687 77.4966,12.6259 63.5646,8.7075" stroke="#00007f" stroke-width="2" /><polyline fill="none" points="32.6531,110.1497 38.7483,107.102 48.3265,87.9456 53.1156,62.6939 53.551,41.7959 47.8912,32.6531 46.585,27.8639 44.4082,30.9116" stroke="#7cff79" stroke-width="2" /><polyline fill="none" points="104.9252,31.7823 94.9116,42.6667 79.6735,73.5782 74.8844,86.6395 74.0136,99.7007 81.415,107.9728" stroke="#7f0000" stroke-width="2" /></svg>