<?xml version="1.0" encoding="utf-8" ?>
<svg baseProfile="tiny" height="128" version="1.2" viewBox="0,0,128,128" width="128" xmlns="http://www.w3.org/2000/svg" xmlns:ev="http://www.w3.org/2001/xml-events" xmlns:xlink="http://www.w3.org/1999/xlink"><defs /><polyline fill="none" points="93.2881,18.2237 89.8169,16.4881 74.1966,17.3559 63.7831,19.5254 37.3153,29.0712 25.6,35.1458 16.0542,43.8237 11.2814,52.5017 8.678,64.2169 8.678,75.4983 12.1492,85.478 28.6373,100.2305 45.5593,108.4746 55.9729,111.9458 75.0644,114.9831 84.6102,114.5492 96.3254,111.5119 105.8712,107.1729 111.9458,101.0983 116.2847,92.8542 118.8881,82.8746 119.322,74.6305 116.7186,61.6136 108.0407,44.2576 99.3627,32.9763 97.6271,27.3356 85.9119,17.7898 69.8576,8.678" stroke="#00007f" stroke-width="2" /><polyline fill="none" points="51.6339,31.6746 52.9356,62.0475 49.0305,71.5932 38.6169,89.3831 30.3729,95.8915" stroke="#7cff79" stroke-width="2" /><polyline fill="none" points="99.3627,39.4847 98.4949,43.3898 88.0814,62.4814 84.1763,77.6678 84.1763,86.7797" stroke="#7f0000" stroke-width="2" /></svg>