<?xml version="1.0" encoding="utf-8" ?>
<svg baseProfile="tiny" height="128" version="1.2" viewBox="0,0,128,128" width="128" xmlns="http://www.w3.org/2000/svg" xmlns:ev="http://www.w3.org/2001/xml-events" xmlns:xlink="http://www.w3.org/1999/xlink"><defs /><polyline fill="none" points="56.8407,8.678 48.5966,12.1492 35.5797,26.0339 14.3186,58.1424 8.678,77.6678 9.1119,93.722 12.5831,100.2305 19.0915,107.1729 25.6,111.078 35.5797,113.6814 55.1051,114.1153 67.2542,110.2102 92.4203,98.4949 101.9661,89.8169 108.9085,78.9695 111.5119,69.4237 111.9458,49.8983 109.3424,40.7864 97.6271,23.8644 89.3831,17.3559 80.7051,13.0169 60.7458,13.8847 56.8407,15.1864 52.0678,20.8271" stroke="#00007f" stroke-width="2" /><polyline fill="none" points="83.7424,22.1288 72.8949,26.4678 64.2169,33.8441 53.3695,47.2949 43.3898,63.7831 34.7119,82.4407 31.6746,94.5898 31.2407,108.9085 34.278,119.322" stroke="#0080ff" stroke-width="2" /><polyline fill="none" points="25.6,70.2915 47.7288,82.0068 58.5763,84.1763" stroke="#7cff79" stroke-width="2" /><polyline fill="none" points="45.9932,49.4644 62.9153,63.3492" stroke="#ff9400" stroke-width="2" /><polyline fill="none" points="55.1051,31.2407 65.0847,40.3525" stroke="#7f0000" stroke-width="2" /></svg>