<?xml version="1.0" encoding="utf-8" ?>
<svg baseProfile="tiny" height="128" version="1.2" viewBox="0,0,128,128" width="128" xmlns="http://www.w3.org/2000/svg" xmlns:ev="http://www.w3.org/2001/xml-events" xmlns:xlink="http://www.w3.org/1999/xlink"><defs /><polyline fill="none" points="42.9559,20.8271 34.278,20.8271 26.0339,22.9966 18.2237,27.7695 13.0169,36.4475 8.678,50.3322 8.678,69.8576 10.8475,74.6305 22.1288,86.7797 36.4475,94.5898 60.3119,96.3254 67.6881,98.4949 80.7051,100.2305 95.4576,100.2305 103.2678,98.061 108.0407,93.722 114.5492,85.0441 117.5864,74.6305 119.322,51.6339 110.6441,38.1831 103.2678,30.3729 94.5898,23.8644 73.3288,14.3186 55.1051,10.4136 41.2203,10.4136 35.5797,8.678" stroke="#00007f" stroke-width="2" /><polyline fill="none" points="45.1254,15.1864 45.5593,19.5254 50.7661,30.8068 58.5763,38.6169 59.4441,42.9559 54.6712,51.6339 45.9932,53.3695 42.0881,55.9729 36.8814,63.3492 35.1458,68.122 34.278,103.2678 37.3153,107.1729 41.2203,108.0407" stroke="#7cff79" stroke-width="2" /><polyline fill="none" points="63.7831,99.3627 58.1424,90.6847 58.1424,82.8746 66.8203,70.7254 78.9695,67.2542 82.8746,63.7831 85.9119,55.539 85.9119,28.2034 85.0441,23.8644 81.139,16.4881" stroke="#7f0000" stroke-width="2" /></svg>