<?xml version="1.0" encoding="utf-8" ?>
<svg baseProfile="tiny" height="128" version="1.2" viewBox="0,0,128,128" width="128" xmlns="http://www.w3.org/2000/svg" xmlns:ev="http://www.w3.org/2001/xml-events" xmlns:xlink="http://www.w3.org/1999/xlink"><defs /><polyline fill="none" points="67.2542,12.1492 59.0102,8.678 53.3695,9.5458 49.8983,12.1492 29.939,28.6373 19.0915,48.5966 9.9797,72.0271 8.678,81.5729 13.0169,106.3051 17.3559,111.9458 20.8271,114.1153 29.5051,116.7186 40.3525,115.8508 49.8983,112.8136 68.122,102.8339 87.6475,82.4407 91.9864,74.1966 93.722,65.5186 93.722,40.7864 89.3831,32.1085 74.1966,20.8271 72.0271,16.922" stroke="#00007f" stroke-width="2" /><polyline fill="none" points="35.5797,16.0542 39.9186,16.0542 45.9932,24.7322 48.1627,34.7119 46.861,44.2576 22.5627,104.1356 13.0169,119.322 14.3186,113.2475" stroke="#0010ff" stroke-width="2" /><polyline fill="none" points="74.1966,36.0136 74.1966,32.5424 70.7254,30.8068 67.2542,34.7119 61.1797,45.5593 54.6712,69.8576 52.9356,87.2136 53.3695,96.7593 55.1051,102.8339 59.0102,107.6068 64.2169,111.078 71.5932,109.3424" stroke="#00a4ff" stroke-width="2" /><polyline fill="none" points="50.7661,61.1797 66.3864,59.4441 66.3864,62.9153" stroke="#3fffb7" stroke-width="2" /><polyline fill="none" points="47.2949,79.8373 50.7661,80.7051 61.6136,78.9695 57.7085,81.5729" stroke="#b7ff3f" stroke-width="2" /><polyline fill="none" points="49.4644,87.2136 60.7458,88.0814 68.5559,85.0441 68.9898,82.8746" stroke="#ffb900" stroke-width="2" /><polyline fill="none" points="23.4305,42.522 35.5797,43.3898 52.0678,41.6542 50.3322,47.2949" stroke="#ff3000" stroke-width="2" /><polyline fill="none" points="28.2034,67.6881 28.2034,67.6881" stroke="#7f0000" stroke-width="2" /></svg>