<?xml version="1.0" encoding="utf-8" ?>
<svg baseProfile="tiny" height="128" version="1.2" viewBox="0,0,128,128" width="128" xmlns="http://www.w3.org/2000/svg" xmlns:ev="http://www.w3.org/2001/xml-events" xmlns:xlink="http://www.w3.org/1999/xlink"><defs /><polyline fill="none" points="45.5593,12.5831 20.8271,48.1627 14.7525,59.878 10.4136,72.8949 8.678,84.6102 8.678,93.2881 10.8475,100.2305 16.4881,105.4373 25.1661,108.4746 45.5593,108.0407 56.4068,102.8339 67.2542,94.5898 76.3661,84.1763 88.9492,64.2169 91.1186,54.6712 90.2508,38.1831 82.8746,21.6949 74.1966,12.1492 66.3864,8.678" stroke="#00007f" stroke-width="2" /><polyline fill="none" points="66.8203,14.7525 57.7085,24.7322 49.8983,36.8814 48.5966,44.6915 48.5966,56.4068 50.3322,78.1017 47.7288,86.7797 31.6746,119.322" stroke="#00d4ff" stroke-width="2" /><polyline fill="none" points="73.7627,52.5017 75.0644,71.5932 65.9525,96.3254" stroke="#ffe500" stroke-width="2" /><polyline fill="none" points="30.8068,41.6542 29.0712,49.0305 29.939,73.3288 28.6373,79.8373 23.8644,92.4203 22.5627,104.1356" stroke="#7f0000" stroke-width="2" /></svg>