<?xml version="1.0" encoding="utf-8" ?>
<svg baseProfile="tiny" height="128" version="1.2" viewBox="0,0,128,128" width="128" xmlns="http://www.w3.org/2000/svg" xmlns:ev="http://www.w3.org/2001/xml-events" xmlns:xlink="http://www.w3.org/1999/xlink"><defs /><polyline fill="none" points="40.0544,9.1429 33.0884,8.7075 18.7211,19.5918 10.0136,31.7823 8.7075,36.5714 9.1429,43.5374 20.4626,51.8095 29.1701,54.8571 54.4218,55.2925 60.517,53.1156 64.0,49.6327 65.3061,41.3605 65.3061,32.2177 62.6939,25.2517 56.1633,18.2857 48.3265,12.6259 43.9728,11.3197 36.5714,11.7551" stroke="#00007f" stroke-width="2" /><polyline fill="none" points="38.3129,9.1429 24.381,26.9932 19.5918,37.8776 19.1565,50.5034 24.381,56.5986" stroke="#00d4ff" stroke-width="2" /><polyline fill="none" points="57.034,19.1565 50.5034,29.6054 45.7143,40.9252 44.4082,48.7619 47.0204,55.2925" stroke="#ffe500" stroke-width="2" /><polyline fill="none" points="103.1837,20.4626 98.3946,39.1837 84.898,66.6122 62.2585,98.3946 42.6667,118.4218 43.9728,119.2925 53.1156,118.4218 61.8231,114.5034 65.7415,111.0204" stroke="#7f0000" stroke-width="2" /></svg>