<?xml version="1.0" encoding="utf-8" ?>
<svg baseProfile="tiny" height="128" version="1.2" viewBox="0,0,128,128" width="128" xmlns="http://www.w3.org/2000/svg" xmlns:ev="http://www.w3.org/2001/xml-events" xmlns:xlink="http://www.w3.org/1999/xlink"><defs /><polyline fill="none" points="82.2857,15.2381 81.415,12.6259 78.8027,10.8844 70.966,8.7075 59.2109,8.7075 43.102,12.1905 31.3469,17.8503 23.0748,24.8163 15.2381,34.3946 9.5782,46.585 8.7075,52.6803 9.5782,62.2585 17.415,77.0612 29.6054,86.2041 52.6803,96.6531 71.8367,99.2653 80.5442,98.3946 94.0408,95.3469 101.8776,91.4286 109.7143,84.898 115.8095,77.4966 118.8571,70.5306 119.2925,55.7279 116.2449,46.585 109.7143,34.8299 96.6531,22.2041 82.7211,15.2381 72.7075,12.1905" stroke="#00007f" stroke-width="2" /><polyline fill="none" points="93.6054,23.5102 90.9932,26.1224 93.6054,25.2517 90.5578,30.4762 93.6054,33.0884 89.6871,39.1837 90.9932,39.1837 90.9932,40.9252 82.7211,55.2925 75.3197,74.8844 79.6735,79.2381 80.5442,91.4286 86.6395,91.4286 87.5102,92.7347 88.381,101.4422 94.0408,94.9116" stroke="#7cff79" stroke-width="2" /><polyline fill="none" points="31.7823,22.6395 37.0068,28.2993 44.4082,42.2313 45.7143,53.9864 42.2313,70.5306 38.3129,76.6259 26.1224,89.6871" stroke="#7f0000" stroke-width="2" /></svg>