<?xml version="1.0" encoding="utf-8" ?>
<svg baseProfile="tiny" height="128" version="1.2" viewBox="0,0,128,128" width="128" xmlns="http://www.w3.org/2000/svg" xmlns:ev="http://www.w3.org/2001/xml-events" xmlns:xlink="http://www.w3.org/1999/xlink"><defs /><polyline fill="none" points="112.3797,17.7898 108.4746,13.8847 101.5322,11.2814 79.4034,10.8475 55.539,18.2237 39.9186,26.4678 26.9017,36.4475 16.4881,49.4644 10.4136,65.9525 8.678,83.3085 9.1119,90.6847 12.1492,97.1932 20.8271,105.4373 26.4678,107.1729 41.2203,107.6068 49.0305,106.3051 68.122,99.3627 87.6475,86.7797 102.8339,72.461 114.1153,58.5763 118.8881,47.2949 119.322,37.7492 116.2847,31.2407 112.3797,27.7695" stroke="#00007f" stroke-width="2" /><polyline fill="none" points="44.6915,27.7695 50.7661,45.5593 54.2373,65.0847 54.2373,82.4407 49.4644,103.7017" stroke="#0010ff" stroke-width="2" /><polyline fill="none" points="92.8542,8.678 88.0814,49.4644 87.6475,70.7254 90.2508,77.2339 95.8915,82.4407" stroke="#00a4ff" stroke-width="2" /><polyline fill="none" points="40.7864,36.0136 52.9356,31.6746" stroke="#3fffb7" stroke-width="2" /><polyline fill="none" points="43.8237,45.1254 48.1627,45.1254 55.1051,42.522" stroke="#b7ff3f" stroke-width="2" /><polyline fill="none" points="49.0305,55.539 60.3119,53.8034" stroke="#ffb900" stroke-width="2" /><polyline fill="none" points="46.861,66.8203 62.9153,67.6881" stroke="#ff3000" stroke-width="2" /><polyline fill="none" points="49.4644,79.4034 62.9153,81.5729" stroke="#7f0000" stroke-width="2" /></svg>