<?xml version="1.0" encoding="utf-8" ?>
<svg baseProfile="tiny" height="128" version="1.2" viewBox="0,0,128,128" width="128" xmlns="http://www.w3.org/2000/svg" xmlns:ev="http://www.w3.org/2001/xml-events" xmlns:xlink="http://www.w3.org/1999/xlink"><defs /><polyline fill="none" points="32.9763,11.2814 14.7525,27.7695 9.9797,41.6542 8.678,59.4441 10.4136,67.6881 22.5627,85.9119 32.5424,91.9864 43.8237,95.4576 60.3119,98.061 69.4237,97.6271 91.9864,92.4203 102.4,85.478 111.078,75.9322 118.8881,64.6508 119.322,62.0475 118.8881,47.7288 114.9831,36.8814 110.6441,32.9763 105.8712,24.2983 65.9525,9.9797 55.9729,8.678 41.2203,9.1119 37.3153,9.5458 31.6746,12.5831" stroke="#00007f" stroke-width="2" /><polyline fill="none" points="15.6203,25.1661 29.939,29.5051 39.9186,35.1458 42.522,37.7492 46.4271,55.539 46.861,91.9864" stroke="#7cff79" stroke-width="2" /><polyline fill="none" points="66.8203,10.4136 70.2915,34.278 73.7627,45.5593 77.2339,52.0678 85.0441,60.3119 94.1559,67.2542 99.7966,69.8576" stroke="#7f0000" stroke-width="2" /></svg>