<?xml version="1.0" encoding="utf-8" ?>
<svg baseProfile="tiny" height="128" version="1.2" viewBox="0,0,128,128" width="128" xmlns="http://www.w3.org/2000/svg" xmlns:ev="http://www.w3.org/2001/xml-events" xmlns:xlink="http://www.w3.org/1999/xlink"><defs /><polyline fill="none" points="61.1797,11.7153 52.0678,12.5831 42.0881,16.4881 32.5424,22.9966 22.5627,32.9763 11.7153,52.9356 9.9797,59.878 8.678,75.0644 12.1492,89.8169 19.5254,101.9661 30.3729,111.5119 44.6915,116.7186 58.5763,118.0203 74.6305,114.9831 81.5729,111.078 94.5898,101.0983 100.2305,95.0237 108.9085,82.0068 115.8508,68.9898 119.322,52.0678 119.322,42.9559 114.5492,32.9763 109.7763,26.4678 102.4,19.0915 89.8169,11.2814 75.4983,8.678 60.7458,8.678 54.2373,9.9797 50.3322,11.7153 48.1627,14.7525" stroke="#00007f" stroke-width="2" /><polyline fill="none" points="28.2034,31.6746 36.0136,38.1831 46.861,49.8983 50.7661,59.0102 54.2373,71.5932 54.6712,87.2136 51.6339,96.7593 41.2203,113.2475" stroke="#0028ff" stroke-width="2" /><polyline fill="none" points="105.4373,16.4881 101.0983,16.922 90.2508,39.9186 85.478,57.7085 83.7424,74.1966 86.3458,84.1763 89.8169,88.9492 93.722,91.9864 105.4373,98.061" stroke="#00d4ff" stroke-width="2" /><polyline fill="none" points="33.8441,44.2576 41.2203,44.2576" stroke="#7cff79" stroke-width="2" /><polyline fill="none" points="46.4271,64.2169 50.7661,66.3864" stroke="#ffe500" stroke-width="2" /><polyline fill="none" points="42.9559,82.0068 48.5966,92.4203" stroke="#ff4600" stroke-width="2" /><polyline fill="none" points="38.6169,108.4746 41.6542,113.6814" stroke="#7f0000" stroke-width="2" /></svg>