<?xml version="1.0" encoding="utf-8" ?>
<svg baseProfile="tiny" height="128" version="1.2" viewBox="0,0,128,128" width="128" xmlns="http://www.w3.org/2000/svg" xmlns:ev="http://www.w3.org/2001/xml-events" xmlns:xlink="http://www.w3.org/1999/xlink"><defs /><polyline fill="none" points="74.0136,10.8844 67.9184,8.7075 53.9864,10.0136 34.3946,18.7211 28.7347,23.0748 20.4626,33.0884 15.2381,47.8912 12.6259,67.0476 12.6259,81.8503 15.2381,90.1224 18.7211,96.6531 29.1701,106.2313 46.1497,114.5034 55.7279,117.1156 70.966,119.2925 87.5102,117.551 96.2177,113.1973 108.8435,104.4898 115.3741,93.6054 117.1156,88.381 117.551,60.517 116.2449,48.3265 112.3265,35.2653 99.2653,20.0272 89.2517,12.6259 82.7211,10.0136 69.2245,9.1429" stroke="#00007f" stroke-width="2" /><polyline fill="none" points="87.9456,10.0136 71.8367,22.6395 67.0476,33.5238 56.1633,47.0204 42.6667,38.3129 30.9116,26.9932 26.1224,25.2517" stroke="#00d4ff" stroke-width="2" /><polyline fill="none" points="56.5986,50.068 55.2925,48.3265 66.6122,47.4558 98.8299,47.8912 116.6803,53.1156 119.2925,55.2925" stroke="#ffe500" stroke-width="2" /><polyline fill="none" points="58.3401,53.551 55.2925,53.9864 20.898,82.7211 10.8844,94.4762 8.7075,98.8299" stroke="#7f0000" stroke-width="2" /></svg>