<?xml version="1.0" encoding="utf-8" ?>
<svg baseProfile="tiny" height="128" version="1.2" viewBox="0,0,128,128" width="128" xmlns="http://www.w3.org/2000/svg" xmlns:ev="http://www.w3.org/2001/xml-events" xmlns:xlink="http://www.w3.org/1999/xlink"><defs /><polyline fill="none" points="84.1763,28.2034 78.9695,31.2407 83.7424,32.1085 85.9119,28.6373 84.1763,28.2034" stroke="#00007f" stroke-width="2" /><polyline fill="none" points="85.478,23.4305 85.9119,33.4102 93.2881,32.9763 90.6847,22.9966 89.3831,21.6949 85.478,22.9966" stroke="#0000de" stroke-width="2" /><polyline fill="none" points="85.0441,27.3356 87.2136,29.0712 85.478,31.2407" stroke="#0028ff" stroke-width="2" /><polyline fill="none" points="88.9492,33.4102 90.6847,45.1254 88.9492,60.3119" stroke="#0080ff" stroke-width="2" /><polyline fill="none" points="72.0271,26.9017 68.5559,26.9017 66.8203,30.3729 67.2542,32.9763 70.7254,35.1458 74.6305,35.1458 75.9322,32.5424 73.7627,27.3356 71.5932,26.4678" stroke="#00d4ff" stroke-width="2" /><polyline fill="none" points="74.6305,27.3356 69.4237,31.2407" stroke="#36ffc0" stroke-width="2" /><polyline fill="none" points="74.1966,29.0712 68.5559,34.278" stroke="#7cff79" stroke-width="2" /><polyline fill="none" points="69.4237,31.2407 67.6881,33.8441" stroke="#c0ff36" stroke-width="2" /><polyline fill="none" points="66.3864,31.2407 59.4441,36.4475" stroke="#ffe500" stroke-width="2" /><polyline fill="none" points="67.2542,34.278 63.3492,39.4847" stroke="#ff9400" stroke-width="2" /><polyline fill="none" points="69.4237,36.0136 65.5186,42.522" stroke="#ff4600" stroke-width="2" /><polyline fill="none" points="70.7254,38.1831 67.2542,45.5593" stroke="#de0000" stroke-width="2" /><polyline fill="none" points="48.5966,26.4678 29.939,27.3356 15.6203,31.6746 8.678,36.8814 8.678,40.3525 23.8644,43.8237 49.4644,42.9559 73.7627,39.4847 87.6475,36.0136 88.5153,35.1458 83.7424,35.1458 31.2407,43.8237 71.1593,22.5627 86.7797,12.1492 78.9695,19.5254 69.4237,31.2407 62.0475,47.7288 60.7458,59.878 65.0847,63.3492 75.0644,61.1797 115.8508,42.0881 119.322,35.1458 119.322,31.6746 116.2847,28.6373 97.1932,27.7695 72.461,32.9763 59.0102,39.9186 55.1051,46.4271 59.4441,52.5017 73.3288,57.7085 94.1559,59.0102 119.322,55.539 118.8881,53.3695 78.5356,37.3153 13.8847,8.678 9.5458,8.678 21.6949,11.2814 63.7831,31.6746 92.4203,50.7661 112.3797,69.8576 115.8508,70.7254 98.9288,69.8576 82.4407,60.7458 65.5186,38.1831 68.9898,20.3932 77.6678,10.4136 89.8169,11.2814 93.2881,50.3322 102.4,63.3492 119.322,69.4237 119.322,11.2814 85.9119,8.678 52.0678,8.678 8.678,9.5458 9.9797,45.9932 23.8644,59.4441 54.2373,65.0847 88.9492,63.7831 108.4746,60.7458 63.3492,69.8576 8.678,70.7254 91.5525,53.3695 119.322,41.2203 118.4542,30.3729 76.8,43.8237 41.6542,56.8407 17.7898,68.5559 11.2814,39.9186 8.678,8.678 11.7153,8.678 70.2915,52.5017 119.322,70.7254 91.1186,63.7831 8.678,38.6169 8.678,35.1458 9.1119,36.4475 28.6373,42.522 69.4237,44.2576 119.322,31.2407 119.322,16.4881 118.0203,12.5831" stroke="#7f0000" stroke-width="2" /></svg>