<?xml version="1.0" encoding="utf-8" ?>
<svg baseProfile="tiny" height="128" version="1.2" viewBox="0,0,128,128" width="128" xmlns="http://www.w3.org/2000/svg" xmlns:ev="http://www.w3.org/2001/xml-events" xmlns:xlink="http://www.w3.org/1999/xlink"><defs /><polyline fill="none" points="117.551,28.2993 112.3265,23.5102 101.8776,18.2857 84.898,12.6259 74.449,9.5782 53.9864,8.7075 44.4082,10.449 34.3946,14.3673 26.1224,20.898 18.7211,28.7347 13.0612,38.3129 9.1429,48.3265 8.7075,69.6599 12.1905,79.6735 16.9796,90.1224 23.9456,98.3946 42.6667,110.585 53.1156,114.5034 73.5782,116.2449 83.1565,114.068 90.9932,110.1497 97.5238,104.9252 103.1837,98.3946 107.102,90.9932 111.0204,82.2857 117.551,58.3401 119.2925,32.2177 117.9864,27.4286 113.1973,22.6395 103.619,22.2041 98.3946,24.8163" stroke="#00007f" stroke-width="2" /><polyline fill="none" points="87.5102,11.3197 79.2381,11.7551 57.034,19.5918 44.4082,28.7347 32.6531,41.7959 26.5578,53.9864 22.6395,71.8367 22.6395,80.9796 24.381,88.381 26.5578,92.7347 29.1701,93.6054" stroke="#00d4ff" stroke-width="2" /><polyline fill="none" points="73.1429,10.449 89.6871,28.2993 96.6531,41.3605 98.3946,47.0204 99.2653,53.1156 98.8299,74.0136 94.4762,95.7823 90.1224,111.0204" stroke="#ffe500" stroke-width="2" /><polyline fill="none" points="82.2857,11.7551 77.4966,14.3673 73.1429,21.7687 64.0,45.7143 53.551,66.1769 46.585,86.2041 44.4082,107.9728 47.4558,116.6803" stroke="#7f0000" stroke-width="2" /></svg>