<?xml version="1.0" encoding="utf-8" ?>
<svg baseProfile="tiny" height="128" version="1.2" viewBox="0,0,128,128" width="128" xmlns="http://www.w3.org/2000/svg" xmlns:ev="http://www.w3.org/2001/xml-events" xmlns:xlink="http://www.w3.org/1999/xlink"><defs /><polyline fill="none" points="96.2177,12.6259 80.1088,8.7075 68.7891,8.7075 55.7279,13.4966 35.2653,25.2517 26.5578,33.0884 16.5442,45.7143 9.1429,64.4354 8.7075,80.9796 14.3673,92.2993 21.7687,100.1361 27.4286,104.9252 41.3605,110.585 60.0816,110.585 75.7551,106.2313 91.8639,98.3946 106.2313,88.381 111.8912,83.5918 117.1156,74.8844 118.8571,67.483 119.2925,50.5034 114.5034,32.2177 107.102,17.415 88.8163,11.7551" stroke="#00007f" stroke-width="2" /><polyline fill="none" points="106.6667,24.8163 104.0544,29.6054 87.5102,48.7619 69.6599,77.932 64.8707,93.6054 64.8707,97.9592 67.9184,100.5714" stroke="#7cff79" stroke-width="2" /><polyline fill="none" points="24.8163,101.0068 35.7007,93.6054 42.6667,86.2041 64.0,55.7279 68.7891,45.2789 73.1429,17.8503 70.966,8.7075" stroke="#7f0000" stroke-width="2" /></svg>