<?xml version="1.0" encoding="utf-8" ?>
<svg baseProfile="tiny" height="128" version="1.2" viewBox="0,0,128,128" width="128" xmlns="http://www.w3.org/2000/svg" xmlns:ev="http://www.w3.org/2001/xml-events" xmlns:xlink="http://www.w3.org/1999/xlink"><defs /><polyline fill="none" points="53.3695,55.539 49.4644,52.5017 52.9356,52.0678 54.6712,49.0305 62.0475,44.6915 63.7831,37.3153 68.9898,28.2034 78.9695,22.1288 91.5525,19.0915 92.4203,21.6949 90.6847,25.6 78.1017,34.7119 63.7831,49.8983 52.9356,55.539" stroke="#00007f" stroke-width="2" /><polyline fill="none" points="42.0881,14.7525 48.5966,16.0542 50.7661,21.261 48.5966,24.2983 41.6542,25.6 38.1831,22.1288 37.7492,16.0542 41.6542,14.3186 45.5593,15.6203" stroke="#00d4ff" stroke-width="2" /><polyline fill="none" points="57.2746,47.7288 55.1051,43.3898 54.2373,47.2949 59.0102,52.5017 59.0102,45.5593 56.8407,44.2576" stroke="#ffe500" stroke-width="2" /><polyline fill="none" points="96.3254,8.678 104.5695,12.1492 111.5119,18.6576 117.5864,27.3356 119.322,35.1458 118.0203,45.5593 112.8136,55.9729 108.0407,62.0475 96.7593,69.8576 85.0441,73.3288 41.6542,72.8949 29.939,70.2915 14.3186,62.9153 8.678,47.7288 9.5458,39.0508 13.8847,28.2034 91.9864,10.8475 98.061,13.8847" stroke="#7f0000" stroke-width="2" /></svg>