<?xml version="1.0" encoding="utf-8" ?>
<svg baseProfile="tiny" height="128" version="1.2" viewBox="0,0,128,128" width="128" xmlns="http://www.w3.org/2000/svg" xmlns:ev="http://www.w3.org/2001/xml-events" xmlns:xlink="http://www.w3.org/1999/xlink"><defs /><polyline fill="none" points="102.8339,18.6576 77.6678,10.8475 61.6136,8.678 45.5593,8.678 35.1458,13.8847 17.7898,28.6373 12.5831,39.0508 8.678,55.1051 8.678,75.4983 19.0915,95.4576 28.2034,106.3051 35.1458,111.9458 65.0847,119.322 78.1017,119.322 94.5898,110.6441 99.7966,105.0034 103.7017,95.4576 108.0407,77.2339 108.0407,52.0678 105.4373,36.8814 100.6644,29.939 95.4576,15.6203" stroke="#00007f" stroke-width="2" /><polyline fill="none" points="40.3525,11.2814 51.2,41.6542 53.3695,51.2 53.8034,61.1797 47.7288,75.0644 42.522,83.7424 32.1085,98.9288 26.4678,103.2678 28.2034,98.4949" stroke="#7cff79" stroke-width="2" /><polyline fill="none" points="85.478,15.6203 84.1763,15.6203 79.4034,22.1288 72.461,36.4475 68.5559,45.5593 66.8203,60.3119 66.8203,77.2339 70.2915,88.0814 75.4983,100.6644 83.7424,113.2475" stroke="#7f0000" stroke-width="2" /></svg>