<?xml version="1.0" encoding="utf-8" ?>
<svg baseProfile="tiny" height="128" version="1.2" viewBox="0,0,128,128" width="128" xmlns="http://www.w3.org/2000/svg" xmlns:ev="http://www.w3.org/2001/xml-events" xmlns:xlink="http://www.w3.org/1999/xlink"><defs /><polyline fill="none" points="69.4237,8.678 49.4644,8.678 31.2407,18.2237 18.2237,29.939 13.4508,35.5797 10.4136,40.7864 8.678,53.8034 9.1119,60.3119 12.5831,67.6881 23.8644,78.9695 39.4847,85.478 47.2949,86.7797 66.3864,87.2136 84.1763,82.0068 99.3627,75.0644 110.6441,65.5186 114.5492,60.3119 118.0203,48.1627 117.5864,34.278 108.9085,22.1288 96.3254,14.3186 82.0068,10.4136 55.1051,11.7153" stroke="#00007f" stroke-width="2" /><polyline fill="none" points="30.3729,21.261 32.9763,23.8644 37.3153,38.6169 36.8814,50.7661 30.8068,64.2169 20.8271,77.2339" stroke="#7cff79" stroke-width="2" /><polyline fill="none" points="90.6847,10.8475 79.4034,20.3932 70.2915,31.2407 65.9525,39.9186 66.3864,49.0305 72.461,57.7085 83.3085,64.6508 91.1186,68.122 119.322,74.1966" stroke="#7f0000" stroke-width="2" /></svg>