<?xml version="1.0" encoding="utf-8" ?>
<svg baseProfile="tiny" height="128" version="1.2" viewBox="0,0,128,128" width="128" xmlns="http://www.w3.org/2000/svg" xmlns:ev="http://www.w3.org/2001/xml-events" xmlns:xlink="http://www.w3.org/1999/xlink"><defs /><polyline fill="none" points="49.0305,10.8475 41.2203,11.7153 23.8644,19.9593 18.6576,26.0339 12.1492,39.4847 8.678,55.539 8.678,73.7627 12.1492,91.9864 17.3559,103.7017 26.4678,110.6441 39.4847,114.5492 65.5186,116.7186 77.2339,114.9831 88.9492,110.2102 105.4373,97.1932 111.9458,89.8169 118.4542,78.5356 118.8881,48.1627 117.1525,39.9186 114.1153,32.5424 110.6441,28.6373 96.3254,20.8271 69.4237,9.5458 60.7458,8.678 47.7288,12.5831" stroke="#00007f" stroke-width="2" /><polyline fill="none" points="51.6339,10.8475 47.2949,13.8847 42.9559,20.8271 33.4102,50.7661 32.5424,62.4814 34.7119,78.1017 35.1458,93.2881 38.1831,108.4746" stroke="#7cff79" stroke-width="2" /><polyline fill="none" points="57.2746,10.4136 52.5017,21.6949 50.3322,31.6746 49.8983,65.5186 56.4068,98.061 62.9153,117.5864 64.6508,119.322" stroke="#7f0000" stroke-width="2" /></svg>