<?xml version="1.0" encoding="utf-8" ?>
<svg baseProfile="tiny" height="128" version="1.2" viewBox="0,0,128,128" width="128" xmlns="http://www.w3.org/2000/svg" xmlns:ev="http://www.w3.org/2001/xml-events" xmlns:xlink="http://www.w3.org/1999/xlink"><defs /><polyline fill="none" points="73.7627,18.2237 69.8576,14.7525 61.1797,10.8475 52.9356,9.1119 42.522,8.678 31.2407,12.5831 26.4678,15.6203 21.6949,19.9593 13.8847,31.6746 9.1119,44.2576 8.678,70.7254 16.0542,94.5898 24.7322,108.4746 38.1831,117.1525 46.861,118.8881 56.4068,119.322 65.9525,115.8508 75.9322,108.4746 82.4407,101.9661 90.6847,91.1186 93.2881,81.139 94.1559,65.0847 84.6102,36.0136 73.7627,18.6576 68.122,13.0169" stroke="#00007f" stroke-width="2" /><polyline fill="none" points="20.3932,16.0542 31.6746,22.5627 37.3153,31.2407 42.522,41.6542 47.7288,60.7458 49.0305,72.461 48.5966,86.3458 42.522,96.7593 33.8441,107.1729" stroke="#00d4ff" stroke-width="2" /><polyline fill="none" points="77.2339,10.4136 68.5559,22.1288 65.9525,29.5051 60.7458,65.5186 60.3119,80.7051 64.2169,93.2881 68.9898,102.4 76.3661,108.0407 84.1763,111.5119" stroke="#ffe500" stroke-width="2" /><polyline fill="none" points="34.278,102.4 22.1288,111.5119" stroke="#7f0000" stroke-width="2" /></svg>