<?xml version="1.0" encoding="utf-8" ?>
<svg baseProfile="tiny" height="128" version="1.2" viewBox="0,0,128,128" width="128" xmlns="http://www.w3.org/2000/svg" xmlns:ev="http://www.w3.org/2001/xml-events" xmlns:xlink="http://www.w3.org/1999/xlink"><defs /><polyline fill="none" points="8.678,21.6949 9.5458,32.1085 11.7153,38.6169 22.9966,55.1051 33.8441,66.3864 39.0508,70.7254 49.4644,75.9322 78.5356,87.6475 102.4,89.8169 108.4746,87.6475 112.8136,83.7424 117.1525,78.5356 118.4542,72.461 119.322,51.2 112.3797,36.0136 108.0407,29.939 103.2678,24.2983 91.9864,16.922 63.7831,9.5458 36.0136,8.678 21.6949,14.7525 14.3186,21.261 11.7153,26.4678 10.8475,53.3695 12.5831,59.0102 16.4881,67.6881 22.9966,70.7254" stroke="#00007f" stroke-width="2" /><polyline fill="none" points="47.2949,33.8441 55.1051,45.9932 60.3119,50.3322 71.5932,65.5186 93.722,84.6102" stroke="#7cff79" stroke-width="2" /><polyline fill="none" points="99.7966,24.7322 91.1186,41.2203 83.7424,52.5017 61.1797,74.1966 57.2746,80.7051" stroke="#7f0000" stroke-width="2" /></svg>