<?xml version="1.0" encoding="utf-8" ?>
<svg baseProfile="tiny" height="128" version="1.2" viewBox="0,0,128,128" width="128" xmlns="http://www.w3.org/2000/svg" xmlns:ev="http://www.w3.org/2001/xml-events" xmlns:xlink="http://www.w3.org/1999/xlink"><defs /><polyline fill="none" points="74.6305,9.9797 68.9898,8.678 59.4441,8.678 49.8983,12.5831 35.1458,22.5627 26.0339,32.1085 13.0169,50.3322 10.4136,56.8407 8.678,65.5186 9.1119,81.139 13.4508,92.4203 22.9966,105.4373 31.6746,111.078 44.2576,116.2847 56.8407,118.8881 76.8,119.322 84.6102,116.7186 91.1186,112.3797 97.6271,102.4 102.4,91.9864 104.1356,85.478 104.5695,74.1966 99.3627,52.5017 88.9492,32.9763 78.5356,19.5254 70.2915,14.3186" stroke="#00007f" stroke-width="2" /><polyline fill="none" points="21.261,102.4 32.9763,92.8542 38.6169,85.0441 45.9932,63.7831 46.4271,46.861 36.8814,19.9593" stroke="#0080ff" stroke-width="2" /><polyline fill="none" points="76.8,15.6203 68.122,37.3153 67.6881,61.6136 72.461,79.4034 78.5356,91.5525 85.9119,102.8339 92.8542,108.0407" stroke="#7cff79" stroke-width="2" /><polyline fill="none" points="25.6,91.9864 29.5051,95.4576 34.7119,97.1932" stroke="#ff9400" stroke-width="2" /><polyline fill="none" points="24.7322,75.9322 39.0508,78.9695" stroke="#7f0000" stroke-width="2" /></svg>