<?xml version="1.0" encoding="utf-8" ?>
<svg baseProfile="tiny" height="128" version="1.2" viewBox="0,0,128,128" width="128" xmlns="http://www.w3.org/2000/svg" xmlns:ev="http://www.w3.org/2001/xml-events" xmlns:xlink="http://www.w3.org/1999/xlink"><defs /><polyline fill="none" points="112.3797,14.7525 90.6847,9.1119 76.8,8.678 59.4441,13.0169 46.861,18.6576 38.1831,23.8644 27.7695,33.8441 18.2237,45.5593 10.8475,62.0475 8.678,75.0644 10.4136,85.478 18.2237,99.7966 23.4305,105.4373 37.3153,115.4169 59.4441,118.4542 80.2712,117.1525 100.2305,110.2102 111.078,101.5322 115.4169,95.4576 119.322,81.5729 119.322,68.5559 117.5864,55.9729 111.9458,33.8441 107.1729,26.0339 102.8339,24.2983" stroke="#00007f" stroke-width="2" /><polyline fill="none" points="57.7085,13.4508 60.3119,26.0339 60.7458,39.4847 55.9729,81.5729 45.9932,95.8915 34.7119,104.5695 33.4102,108.4746" stroke="#7cff79" stroke-width="2" /><polyline fill="none" points="99.7966,16.0542 92.4203,22.5627 84.6102,38.1831 78.9695,51.2 77.2339,66.8203 77.2339,74.6305 79.4034,83.3085 88.0814,99.3627 91.9864,102.8339 98.9288,104.5695" stroke="#7f0000" stroke-width="2" /></svg>