<?xml version="1.0" encoding="utf-8" ?>
<svg baseProfile="tiny" height="128" version="1.2" viewBox="0,0,128,128" width="128" xmlns="http://www.w3.org/2000/svg" xmlns:ev="http://www.w3.org/2001/xml-events" xmlns:xlink="http://www.w3.org/1999/xlink"><defs /><polyline fill="none" points="86.3458,15.6203 66.3864,10.8475 34.7119,10.8475 24.7322,14.7525 14.7525,28.2034 10.4136,36.8814 8.678,46.4271 8.678,65.5186 10.4136,70.7254 15.6203,82.4407 20.3932,88.0814 26.4678,92.4203 41.2203,99.3627 59.878,104.1356 93.2881,103.7017 99.3627,102.4 106.3051,98.4949 115.4169,87.6475 119.322,80.2712 119.322,59.878 117.1525,51.6339 102.8339,26.9017 92.4203,11.7153 76.3661,8.678 73.3288,10.4136" stroke="#00007f" stroke-width="2" /><polyline fill="none" points="37.3153,13.4508 37.7492,29.0712 39.4847,33.4102 39.4847,67.6881 37.3153,71.5932 36.8814,75.4983 30.3729,83.3085" stroke="#7cff79" stroke-width="2" /><polyline fill="none" points="94.1559,25.6 84.1763,38.6169 77.2339,56.4068 76.3661,78.1017 78.5356,89.3831" stroke="#7f0000" stroke-width="2" /></svg>