<?xml version="1.0" encoding="utf-8" ?>
<svg baseProfile="tiny" height="128" version="1.2" viewBox="0,0,128,128" width="128" xmlns="http://www.w3.org/2000/svg" xmlns:ev="http://www.w3.org/2001/xml-events" xmlns:xlink="http://www.w3.org/1999/xlink"><defs /><polyline fill="none" points="98.9288,30.8068 89.8169,29.0712 77.2339,21.261 54.2373,13.8847 40.7864,13.8847 36.0136,14.7525 31.2407,17.3559 13.8847,42.522 10.4136,56.8407 8.678,81.139 13.8847,98.4949 25.6,111.5119 31.6746,114.9831 47.7288,118.4542 62.0475,119.322 69.4237,118.4542 90.6847,107.6068 99.3627,100.6644 108.4746,89.8169 113.2475,80.7051 115.8508,69.8576 117.5864,57.7085 117.5864,45.1254 115.8508,40.7864 103.2678,25.6 95.0237,18.2237 84.1763,13.0169 65.9525,8.678 46.861,8.678 37.7492,12.5831 23.8644,28.6373 22.1288,34.7119" stroke="#00007f" stroke-width="2" /><polyline fill="none" points="32.9763,16.4881 46.861,34.7119 49.8983,52.5017 49.8983,69.4237 38.1831,99.3627 38.1831,106.739" stroke="#0080ff" stroke-width="2" /><polyline fill="none" points="103.2678,8.678 92.8542,17.3559 82.0068,36.0136 79.4034,46.861 78.9695,72.8949 88.0814,98.9288 95.0237,104.1356 107.6068,105.0034" stroke="#7cff79" stroke-width="2" /><polyline fill="none" points="30.8068,43.3898 36.4475,45.1254 51.6339,45.1254 66.8203,42.522" stroke="#ff9400" stroke-width="2" /><polyline fill="none" points="35.5797,82.0068 53.3695,83.7424" stroke="#7f0000" stroke-width="2" /></svg>