<?xml version="1.0" encoding="utf-8" ?>
<svg baseProfile="tiny" height="128" version="1.2" viewBox="0,0,128,128" width="128" xmlns="http://www.w3.org/2000/svg" xmlns:ev="http://www.w3.org/2001/xml-events" xmlns:xlink="http://www.w3.org/1999/xlink"><defs /><polyline fill="none" points="61.3878,8.7075 35.7007,10.8844 24.381,17.415 18.2857,23.9456 12.6259,33.0884 8.7075,44.4082 8.7075,73.5782 12.1905,87.0748 16.5442,94.4762 25.2517,103.1837 35.7007,107.5374 52.2449,110.585 63.1293,111.8912 75.7551,111.4558 88.381,105.7959 99.7007,98.8299 110.1497,86.6395 117.9864,69.6599 119.2925,64.0 118.8571,49.1973 114.9388,40.0544 104.9252,23.0748 101.8776,18.7211 95.7823,14.8027 64.4354,10.449 53.1156,10.449" stroke="#00007f" stroke-width="2" /><polyline fill="none" points="52.6803,8.7075 61.3878,39.1837 61.8231,50.5034 53.551,70.966 41.3605,92.2993 39.1837,93.6054 36.1361,100.1361 30.9116,106.6667 28.2993,107.5374 29.1701,103.619" stroke="#7cff79" stroke-width="2" /><polyline fill="none" points="81.8503,13.932 81.8503,75.3197 85.7687,86.2041 92.2993,94.4762" stroke="#7f0000" stroke-width="2" /></svg>