<?xml version="1.0" encoding="utf-8" ?>
<svg baseProfile="tiny" height="128" version="1.2" viewBox="0,0,128,128" width="128" xmlns="http://www.w3.org/2000/svg" xmlns:ev="http://www.w3.org/2001/xml-events" xmlns:xlink="http://www.w3.org/1999/xlink"><defs /><polyline fill="none" points="17.415,117.9864 17.415,115.3741 20.898,110.1497 34.3946,94.4762 52.2449,71.4014 108.8435,22.2041" stroke="#00007f" stroke-width="2" /><polyline fill="none" points="15.2381,116.6803 11.3197,104.9252 8.7075,90.1224 10.0136,64.8707 12.1905,53.9864 15.2381,48.7619 22.6395,42.2313 39.619,35.7007 74.8844,26.9932 88.8163,20.4626 97.0884,18.2857 105.3605,18.2857 107.5374,18.7211 113.1973,31.7823 114.068,45.2789 100.1361,85.7687 93.1701,97.9592 67.9184,110.1497 43.102,116.2449 36.5714,119.2925 23.0748,118.8571 18.7211,117.1156 19.1565,114.5034" stroke="#0000fe" stroke-width="2" /><polyline fill="none" points="20.4626,96.6531 33.5238,104.4898 33.9592,101.8776" stroke="#0060ff" stroke-width="2" /><polyline fill="none" points="32.2177,82.7211 36.5714,84.898 51.3741,87.9456" stroke="#00d4ff" stroke-width="2" /><polyline fill="none" points="50.068,68.3537 61.8231,73.1429 64.0,72.7075" stroke="#4cffaa" stroke-width="2" /><polyline fill="none" points="70.5306,52.2449 76.6259,56.1633 87.0748,60.9524" stroke="#aaff4c" stroke-width="2" /><polyline fill="none" points="82.2857,33.9592 94.4762,37.0068" stroke="#ffe500" stroke-width="2" /><polyline fill="none" points="97.5238,26.1224 109.2789,33.5238" stroke="#ff7a00" stroke-width="2" /><polyline fill="none" points="90.5578,35.7007 97.0884,40.9252" stroke="#fe1200" stroke-width="2" /><polyline fill="none" points="107.9728,16.9796 76.6259,9.1429 66.1769,8.7075 53.551,12.1905 31.3469,23.0748 25.6871,27.8639 23.0748,33.5238 15.6735,56.1633 14.3673,62.6939 15.2381,87.9456" stroke="#7f0000" stroke-width="2" /></svg>