<?xml version="1.0" encoding="utf-8" ?>
<svg baseProfile="tiny" height="128" version="1.2" viewBox="0,0,128,128" width="128" xmlns="http://www.w3.org/2000/svg" xmlns:ev="http://www.w3.org/2001/xml-events" xmlns:xlink="http://www.w3.org/1999/xlink"><defs /><polyline fill="none" points="58.3401,12.6259 49.6327,13.932 39.619,20.4626 31.3469,28.2993 21.3333,41.3605 12.6259,60.517 10.0136,70.5306 8.7075,78.8027 10.8844,88.8163 14.8027,96.2177 23.9456,104.0544 38.7483,109.7143 50.068,110.585 68.7891,107.5374 82.2857,103.1837 99.7007,93.1701 109.2789,84.4626 112.7619,79.2381 118.8571,64.0 119.2925,56.1633 114.9388,42.2313 107.102,29.1701 92.7347,15.6735 81.8503,10.0136 67.9184,8.7075 57.4694,10.0136" stroke="#00007f" stroke-width="2" /><polyline fill="none" points="29.1701,32.2177 40.9252,32.2177" stroke="#0000fe" stroke-width="2" /><polyline fill="none" points="21.7687,42.6667 38.3129,48.7619" stroke="#0060ff" stroke-width="2" /><polyline fill="none" points="19.1565,53.1156 34.3946,61.8231" stroke="#00d4ff" stroke-width="2" /><polyline fill="none" points="13.4966,66.1769 20.0272,74.449 23.5102,82.2857 23.0748,84.4626" stroke="#4cffaa" stroke-width="2" /><polyline fill="none" points="13.0612,85.7687 22.2041,97.9592" stroke="#aaff4c" stroke-width="2" /><polyline fill="none" points="94.4762,20.4626 83.1565,44.8435" stroke="#ffe500" stroke-width="2" /><polyline fill="none" points="106.2313,35.2653 99.2653,53.551" stroke="#ff7a00" stroke-width="2" /><polyline fill="none" points="112.7619,57.034 109.7143,61.3878 107.5374,69.6599" stroke="#fe1200" stroke-width="2" /><polyline fill="none" points="78.3673,21.7687 95.7823,33.9592 103.619,43.102 113.1973,64.4354" stroke="#7f0000" stroke-width="2" /></svg>