<?xml version="1.0" encoding="utf-8" ?>
<svg baseProfile="tiny" height="128" version="1.2" viewBox="0,0,128,128" width="128" xmlns="http://www.w3.org/2000/svg" xmlns:ev="http://www.w3.org/2001/xml-events" xmlns:xlink="http://www.w3.org/1999/xlink"><defs /><polyline fill="none" points="97.1932,9.9797 89.3831,9.5458 78.5356,12.5831 75.0644,15.6203 73.3288,20.8271 72.8949,28.6373 74.6305,33.4102 83.7424,42.9559 90.2508,46.861 105.0034,48.1627 111.078,45.9932 116.7186,39.9186 119.322,31.2407 118.0203,26.4678 105.0034,12.1492 94.1559,8.678" stroke="#00007f" stroke-width="2" /><polyline fill="none" points="91.1186,9.5458 88.5153,18.6576 85.0441,25.1661 81.5729,29.5051 75.9322,33.8441" stroke="#00d4ff" stroke-width="2" /><polyline fill="none" points="101.9661,11.7153 99.7966,29.939 102.8339,39.4847 107.1729,45.5593" stroke="#ffe500" stroke-width="2" /><polyline fill="none" points="21.6949,25.1661 14.3186,26.4678 10.4136,28.2034 8.678,32.5424 11.7153,34.7119 17.3559,36.0136 31.2407,35.1458 36.0136,32.9763 34.278,30.3729" stroke="#7f0000" stroke-width="2" /></svg>