<?xml version="1.0" encoding="utf-8" ?>
<svg baseProfile="tiny" height="128" version="1.2" viewBox="0,0,128,128" width="128" xmlns="http://www.w3.org/2000/svg" xmlns:ev="http://www.w3.org/2001/xml-events" xmlns:xlink="http://www.w3.org/1999/xlink"><defs /><polyline fill="none" points="49.0305,13.4508 39.4847,13.8847 32.9763,19.0915 21.6949,33.8441 14.7525,46.861 9.1119,69.4237 8.678,92.4203 12.1492,102.8339 19.9593,110.6441 34.7119,117.5864 48.5966,119.322 63.3492,118.4542 78.1017,111.078 90.2508,102.4 100.6644,91.5525 107.1729,79.4034 109.3424,62.9153 108.4746,47.2949 104.1356,32.9763 100.6644,27.3356 94.1559,21.261 89.8169,19.9593 59.878,13.4508 48.5966,8.678 46.4271,9.1119" stroke="#00007f" stroke-width="2" /><polyline fill="none" points="36.0136,113.2475 48.1627,96.3254 55.539,81.139 58.5763,57.2746 57.7085,41.2203 49.4644,26.0339 39.9186,16.4881" stroke="#7cff79" stroke-width="2" /><polyline fill="none" points="82.4407,111.5119 75.4983,106.739 71.1593,98.061 68.9898,78.5356 69.8576,59.878 73.3288,45.1254 76.8,38.1831 83.3085,31.6746 96.3254,23.8644" stroke="#7f0000" stroke-width="2" /></svg>