<?xml version="1.0" encoding="utf-8" ?>
<svg baseProfile="tiny" height="128" version="1.2" viewBox="0,0,128,128" width="128" xmlns="http://www.w3.org/2000/svg" xmlns:ev="http://www.w3.org/2001/xml-events" xmlns:xlink="http://www.w3.org/1999/xlink"><defs /><polyline fill="none" points="57.7085,11.2814 47.2949,15.1864 36.8814,21.6949 13.0169,49.8983 8.678,60.3119 8.678,64.6508 12.1492,76.8 16.0542,84.6102 30.8068,102.4 42.9559,108.4746 55.539,111.9458 82.0068,114.1153 99.7966,109.7763 109.7763,103.7017 119.322,77.6678 119.322,72.461 112.8136,51.6339 96.3254,37.3153 77.6678,25.1661 74.1966,21.261 70.7254,13.0169 55.9729,8.678" stroke="#00007f" stroke-width="2" /><polyline fill="none" points="74.1966,24.2983 73.3288,37.7492 74.1966,45.1254 75.4983,52.0678 81.5729,64.6508 84.6102,68.5559 98.4949,75.9322 103.7017,76.3661" stroke="#004cff" stroke-width="2" /><polyline fill="none" points="76.8,36.8814 72.0271,36.4475" stroke="#29ffcd" stroke-width="2" /><polyline fill="none" points="69.4237,47.2949 75.4983,47.7288 74.6305,46.4271" stroke="#cdff29" stroke-width="2" /><polyline fill="none" points="73.7627,61.1797 82.0068,57.7085 86.3458,57.7085 85.9119,55.539 82.8746,53.3695" stroke="#ff6700" stroke-width="2" /><polyline fill="none" points="93.2881,64.2169 89.3831,68.9898" stroke="#7f0000" stroke-width="2" /></svg>