<?xml version="1.0" encoding="utf-8" ?>
<svg baseProfile="tiny" height="128" version="1.2" viewBox="0,0,128,128" width="128" xmlns="http://www.w3.org/2000/svg" xmlns:ev="http://www.w3.org/2001/xml-events" xmlns:xlink="http://www.w3.org/1999/xlink"><defs /><polyline fill="none" points="83.7424,12.1492 71.1593,8.678 62.0475,8.678 52.5017,12.1492 41.6542,19.5254 31.6746,28.6373 16.0542,48.1627 10.8475,59.0102 8.678,69.8576 8.678,80.2712 10.8475,88.9492 16.0542,96.3254 23.8644,103.2678 32.5424,108.0407 42.9559,111.078 53.3695,112.3797 74.1966,111.5119 92.8542,105.0034 100.6644,99.3627 107.1729,93.2881 116.2847,78.1017 119.322,64.6508 118.0203,48.5966 111.9458,34.278 107.1729,28.2034 91.9864,17.3559 80.2712,15.1864" stroke="#00007f" stroke-width="2" /><polyline fill="none" points="58.1424,18.2237 59.4441,47.7288 58.1424,68.5559 52.9356,81.139 44.2576,93.2881 33.4102,104.1356" stroke="#0000ff" stroke-width="2" /><polyline fill="none" points="98.9288,31.2407 95.0237,35.1458 89.3831,49.8983 80.2712,76.8 78.1017,87.2136 78.5356,93.722 88.0814,103.7017 94.1559,105.8712" stroke="#0080ff" stroke-width="2" /><polyline fill="none" points="50.3322,40.3525 61.1797,39.4847" stroke="#15ffe1" stroke-width="2" /><polyline fill="none" points="50.7661,55.9729 68.5559,53.3695" stroke="#7cff79" stroke-width="2" /><polyline fill="none" points="59.0102,62.4814 61.6136,63.3492" stroke="#e4ff12" stroke-width="2" /><polyline fill="none" points="45.1254,86.7797 58.5763,85.0441" stroke="#ff9400" stroke-width="2" /><polyline fill="none" points="86.3458,43.3898 103.2678,43.3898" stroke="#ff1d00" stroke-width="2" /><polyline fill="none" points="74.1966,57.7085 88.0814,59.4441" stroke="#7f0000" stroke-width="2" /></svg>