<?xml version="1.0" encoding="utf-8" ?>
<svg baseProfile="tiny" height="128" version="1.2" viewBox="0,0,128,128" width="128" xmlns="http://www.w3.org/2000/svg" xmlns:ev="http://www.w3.org/2001/xml-events" xmlns:xlink="http://www.w3.org/1999/xlink"><defs /><polyline fill="none" points="52.5017,8.678 31.6746,9.1119 25.6,12.1492 19.0915,19.5254 12.1492,37.7492 8.678,57.7085 8.678,75.0644 14.7525,88.9492 23.8644,99.7966 39.9186,108.0407 56.8407,110.2102 71.1593,110.2102 89.3831,103.7017 99.3627,97.6271 109.3424,89.3831 115.4169,79.8373 118.8881,68.9898 119.322,55.9729 118.8881,52.0678 113.2475,42.522 104.5695,33.4102 87.6475,21.6949 74.1966,16.4881 58.1424,13.4508" stroke="#00007f" stroke-width="2" /><polyline fill="none" points="58.1424,13.4508 58.1424,38.1831 65.5186,52.5017 74.6305,61.6136 85.478,67.6881 97.1932,70.7254" stroke="#0010ff" stroke-width="2" /><polyline fill="none" points="43.8237,18.6576 43.3898,42.0881 39.4847,55.539 35.5797,59.878 26.0339,67.2542 11.2814,73.3288" stroke="#00a4ff" stroke-width="2" /><polyline fill="none" points="32.5424,42.9559 38.6169,43.3898" stroke="#3fffb7" stroke-width="2" /><polyline fill="none" points="24.2983,62.9153 32.1085,66.3864" stroke="#b7ff3f" stroke-width="2" /><polyline fill="none" points="55.539,48.1627 61.1797,46.4271" stroke="#ffb900" stroke-width="2" /><polyline fill="none" points="61.6136,74.6305 78.5356,64.2169" stroke="#ff3000" stroke-width="2" /><polyline fill="none" points="85.9119,72.0271 86.7797,62.0475" stroke="#7f0000" stroke-width="2" /></svg>