<?xml version="1.0" encoding="utf-8" ?>
<svg baseProfile="tiny" height="128" version="1.2" viewBox="0,0,128,128" width="128" xmlns="http://www.w3.org/2000/svg" xmlns:ev="http://www.w3.org/2001/xml-events" xmlns:xlink="http://www.w3.org/1999/xlink"><defs /><polyline fill="none" points="68.9898,11.7153 56.8407,10.4136 49.0305,12.1492 39.9186,16.4881 31.2407,22.5627 23.4305,30.3729 16.922,39.0508 12.5831,48.1627 8.678,65.9525 9.5458,83.3085 16.922,95.8915 29.0712,103.2678 37.3153,105.8712 54.6712,106.739 63.7831,104.5695 71.5932,100.6644 78.9695,95.0237 85.478,87.6475 94.5898,68.9898 97.1932,59.4441 98.061,39.9186 96.3254,31.6746 92.8542,24.7322 88.5153,19.5254 77.2339,12.1492 69.8576,9.9797 62.0475,9.9797" stroke="#00007f" stroke-width="2" /><polyline fill="none" points="55.9729,11.7153 52.0678,29.939 47.7288,41.2203 42.9559,50.3322 35.5797,56.8407 27.3356,60.7458 17.7898,62.4814 13.8847,62.4814 12.1492,61.1797" stroke="#00d4ff" stroke-width="2" /><polyline fill="none" points="57.2746,8.678 52.0678,16.922 51.6339,29.5051 57.7085,42.9559 67.6881,57.7085 75.4983,62.9153 87.6475,66.3864 96.3254,64.6508 106.3051,58.1424" stroke="#ffe500" stroke-width="2" /><polyline fill="none" points="51.6339,45.5593 45.5593,90.2508 39.0508,119.322" stroke="#7f0000" stroke-width="2" /></svg>