<?xml version="1.0" encoding="utf-8" ?>
<svg baseProfile="tiny" height="128" version="1.2" viewBox="0,0,128,128" width="128" xmlns="http://www.w3.org/2000/svg" xmlns:ev="http://www.w3.org/2001/xml-events" xmlns:xlink="http://www.w3.org/1999/xlink"><defs /><polyline fill="none" points="86.3458,10.8475 76.3661,8.678 60.7458,8.678 42.522,11.7153 27.3356,19.5254 13.0169,37.3153 9.9797,45.5593 8.678,54.2373 8.678,61.6136 10.8475,70.7254 18.2237,81.139 22.9966,84.6102 36.0136,94.1559 45.1254,98.061 73.7627,98.9288 81.139,97.1932 88.9492,93.722 100.2305,85.0441 106.3051,77.6678 117.5864,58.5763 119.322,49.0305 118.8881,39.9186 114.9831,30.3729 110.2102,24.2983 100.6644,16.922 84.1763,10.4136" stroke="#00007f" stroke-width="2" /><polyline fill="none" points="49.8983,10.8475 50.3322,37.7492 43.8237,52.0678 36.8814,60.3119 30.8068,65.0847 14.3186,72.461" stroke="#7cff79" stroke-width="2" /><polyline fill="none" points="92.8542,14.3186 88.0814,18.6576 80.2712,30.3729 67.6881,61.1797 66.3864,80.2712 68.122,91.9864 71.1593,99.3627" stroke="#7f0000" stroke-width="2" /></svg>