<?xml version="1.0" encoding="utf-8" ?>
<svg baseProfile="tiny" height="128" version="1.2" viewBox="0,0,128,128" width="128" xmlns="http://www.w3.org/2000/svg" xmlns:ev="http://www.w3.org/2001/xml-events" xmlns:xlink="http://www.w3.org/1999/xlink"><defs /><polyline fill="none" points="65.7415,15.6735 62.6939,13.932 51.8095,15.6735 44.4082,19.1565 30.4762,28.2993 21.7687,35.7007 15.6735,44.8435 11.3197,52.6803 9.1429,60.0816 8.7075,68.3537 10.0136,74.449 13.932,81.8503 20.4626,89.2517 32.6531,97.0884 49.6327,103.1837 64.0,105.3605 76.1905,105.3605 95.3469,99.7007 103.619,94.9116 114.068,84.4626 119.2925,70.966 119.2925,61.3878 115.3741,50.9388 104.9252,36.5714 82.7211,19.5918 73.5782,14.3673 68.3537,13.4966 60.0816,13.932" stroke="#00007f" stroke-width="2" /><polyline fill="none" points="48.7619,8.7075 57.4694,12.6259 62.2585,16.9796 68.3537,26.5578 69.2245,30.9116 67.9184,44.8435 62.6939,57.034 50.5034,77.0612 47.4558,84.898 47.4558,91.4286 49.6327,97.5238 62.2585,106.6667" stroke="#7f0000" stroke-width="2" /></svg>