<?xml version="1.0" encoding="utf-8" ?>
<svg baseProfile="tiny" height="128" version="1.2" viewBox="0,0,128,128" width="128" xmlns="http://www.w3.org/2000/svg" xmlns:ev="http://www.w3.org/2001/xml-events" xmlns:xlink="http://www.w3.org/1999/xlink"><defs /><polyline fill="none" points="49.4644,85.478 46.4271,91.9864 44.6915,102.4 47.2949,111.5119 52.9356,116.7186 59.878,119.322 69.4237,118.8881 76.3661,113.2475 80.7051,105.8712 82.8746,92.8542 80.7051,88.0814 75.9322,84.6102 66.3864,82.8746 52.9356,85.478 49.8983,88.5153 45.9932,97.1932" stroke="#00007f" stroke-width="2" /><polyline fill="none" points="51.6339,87.6475 56.8407,91.9864 59.4441,97.1932 58.5763,107.6068 57.7085,111.5119 55.539,112.8136" stroke="#00d4ff" stroke-width="2" /><polyline fill="none" points="73.7627,82.4407 68.5559,86.3458 67.2542,89.8169 68.5559,101.5322 73.7627,108.0407 82.8746,109.7763" stroke="#ffe500" stroke-width="2" /><polyline fill="none" points="8.678,118.8881 9.5458,101.5322 14.7525,75.0644 26.9017,32.5424 33.4102,16.0542 39.4847,9.9797 45.5593,8.678 52.5017,12.1492 55.1051,15.6203 54.6712,20.8271 34.278,61.1797 28.2034,75.4983 23.4305,95.0237 22.1288,118.8881" stroke="#7f0000" stroke-width="2" /></svg>