<?xml version="1.0" encoding="utf-8" ?>
<svg baseProfile="tiny" height="128" version="1.2" viewBox="0,0,128,128" width="128" xmlns="http://www.w3.org/2000/svg" xmlns:ev="http://www.w3.org/2001/xml-events" xmlns:xlink="http://www.w3.org/1999/xlink"><defs /><polyline fill="none" points="49.8983,13.0169 35.1458,12.5831 25.6,17.3559 18.2237,24.2983 11.2814,42.522 8.678,63.7831 8.678,79.8373 16.922,97.1932 26.0339,109.3424 33.4102,114.9831 42.0881,118.8881 50.3322,119.322 63.3492,116.7186 79.4034,109.3424 87.2136,97.1932 89.3831,87.6475 89.8169,73.7627 76.8,27.7695 70.2915,16.4881 64.6508,10.8475 59.4441,9.1119 43.8237,8.678 41.2203,10.8475" stroke="#00007f" stroke-width="2" /><polyline fill="none" points="40.3525,13.4508 38.1831,25.1661 13.4508,76.3661 12.1492,86.7797" stroke="#7cff79" stroke-width="2" /><polyline fill="none" points="51.6339,14.3186 49.8983,16.4881 51.2,24.2983 53.8034,29.0712 65.0847,41.2203 68.122,51.6339 75.0644,61.1797 75.4983,67.6881 80.2712,71.1593 94.5898,75.9322" stroke="#7f0000" stroke-width="2" /></svg>