<?xml version="1.0" encoding="utf-8" ?>
<svg baseProfile="tiny" height="128" version="1.2" viewBox="0,0,128,128" width="128" xmlns="http://www.w3.org/2000/svg" xmlns:ev="http://www.w3.org/2001/xml-events" xmlns:xlink="http://www.w3.org/1999/xlink"><defs /><polyline fill="none" points="69.8576,23.8644 67.6881,26.4678 69.8576,23.8644" stroke="#00007f" stroke-width="2" /><polyline fill="none" points="32.1085,75.9322 33.4102,72.8949 20.3932,60.3119" stroke="#0000a3" stroke-width="2" /><polyline fill="none" points="20.3932,60.3119 8.678,51.6339 85.9119,41.6542" stroke="#0000cc" stroke-width="2" /><polyline fill="none" points="44.2576,65.9525 48.1627,64.6508" stroke="#0000f1" stroke-width="2" /><polyline fill="none" points="48.1627,64.6508 53.8034,57.2746" stroke="#0008ff" stroke-width="2" /><polyline fill="none" points="48.5966,43.3898 53.8034,69.8576 52.0678,84.1763 48.5966,92.8542 45.9932,70.2915 30.3729,8.678 35.1458,18.2237 37.3153,28.2034 45.9932,113.2475 46.4271,72.8949 47.7288,62.4814 46.861,51.6339 42.522,24.2983 38.6169,13.0169 38.1831,19.5254 44.2576,98.4949 44.6915,116.7186 43.3898,119.322 40.7864,110.6441 41.6542,75.9322 37.3153,26.0339 34.278,14.3186 32.5424,15.1864 32.5424,18.2237 36.8814,51.2 39.9186,108.0407 42.0881,83.7424 40.3525,69.4237 34.278,42.522 24.7322,14.7525 30.3729,45.9932 32.5424,70.7254" stroke="#0028ff" stroke-width="2" /><polyline fill="none" points="22.9966,49.8983 15.1864,41.2203 9.9797,38.6169" stroke="#004cff" stroke-width="2" /><polyline fill="none" points="64.2169,46.4271 98.061,34.278" stroke="#006cff" stroke-width="2" /><polyline fill="none" points="57.7085,36.0136 71.5932,108.9085 70.7254,117.5864" stroke="#0090ff" stroke-width="2" /><polyline fill="none" points="70.2915,118.0203 64.6508,59.4441" stroke="#00b0ff" stroke-width="2" /><polyline fill="none" points="47.7288,33.4102 13.4508,12.5831" stroke="#00d4ff" stroke-width="2" /><polyline fill="none" points="68.122,84.6102 62.9153,64.2169 47.2949,28.6373 37.7492,16.0542 30.3729,10.4136" stroke="#0cf4ea" stroke-width="2" /><polyline fill="none" points="66.8203,72.8949 45.5593,75.0644 10.4136,52.9356" stroke="#29ffcd" stroke-width="2" /><polyline fill="none" points="60.7458,91.5525 46.4271,51.6339 27.3356,26.0339 12.1492,16.922" stroke="#42ffb3" stroke-width="2" /><polyline fill="none" points="72.461,72.0271 36.0136,66.3864" stroke="#5fff96" stroke-width="2" /><polyline fill="none" points="63.7831,51.6339 24.2983,55.9729" stroke="#7cff79" stroke-width="2" /><polyline fill="none" points="60.7458,40.3525 44.6915,39.4847 25.1661,41.2203" stroke="#96ff5f" stroke-width="2" /><polyline fill="none" points="55.539,22.9966 32.9763,25.6" stroke="#b3ff42" stroke-width="2" /><polyline fill="none" points="50.7661,32.9763 26.4678,36.8814" stroke="#cdff29" stroke-width="2" /><polyline fill="none" points="45.5593,32.5424 26.4678,36.4475" stroke="#eaff0c" stroke-width="2" /><polyline fill="none" points="55.1051,53.3695 26.0339,58.1424" stroke="#ffe500" stroke-width="2" /><polyline fill="none" points="64.2169,60.3119 44.2576,63.3492" stroke="#ffc400" stroke-width="2" /><polyline fill="none" points="65.9525,69.4237 47.7288,69.8576" stroke="#ffa600" stroke-width="2" /><polyline fill="none" points="73.3288,73.7627 42.0881,80.7051" stroke="#ff8500" stroke-width="2" /><polyline fill="none" points="70.7254,83.3085 41.6542,85.0441" stroke="#ff6700" stroke-width="2" /><polyline fill="none" points="65.0847,85.0441 44.6915,87.2136" stroke="#ff4600" stroke-width="2" /><polyline fill="none" points="66.3864,85.0441 41.2203,89.3831" stroke="#ff2800" stroke-width="2" /><polyline fill="none" points="71.5932,90.2508 44.2576,97.1932 31.6746,101.9661" stroke="#f10700" stroke-width="2" /><polyline fill="none" points="82.4407,93.2881 26.0339,107.1729" stroke="#cc0000" stroke-width="2" /><polyline fill="none" points="88.9492,76.3661 91.1186,70.2915 91.5525,63.3492 89.3831,56.8407 80.2712,49.8983 73.7627,49.8983 69.8576,52.0678 65.0847,60.7458 65.5186,66.3864 69.4237,72.8949 76.8,74.6305 79.8373,72.8949" stroke="#a30000" stroke-width="2" /><polyline fill="none" points="88.5153,62.0475 79.8373,64.2169" stroke="#7f0000" stroke-width="2" /></svg>