<?xml version="1.0" encoding="utf-8" ?>
<svg baseProfile="tiny" height="128" version="1.2" viewBox="0,0,128,128" width="128" xmlns="http://www.w3.org/2000/svg" xmlns:ev="http://www.w3.org/2001/xml-events" xmlns:xlink="http://www.w3.org/1999/xlink"><defs /><polyline fill="none" points="45.1254,11.2814 37.7492,16.4881 18.2237,22.9966 10.8475,29.5051 9.5458,32.1085 8.678,53.3695 12.1492,63.7831 28.2034,81.5729 33.4102,89.3831 44.2576,97.1932 59.0102,100.2305 78.5356,100.6644 91.5525,98.061 105.0034,93.2881 111.078,88.5153 115.4169,81.5729 119.322,63.7831 119.322,50.3322 117.1525,39.0508 109.3424,28.6373 97.6271,19.5254 80.2712,11.2814 52.0678,8.678 36.0136,16.922" stroke="#00007f" stroke-width="2" /><polyline fill="none" points="41.6542,13.4508 48.5966,52.5017 48.5966,74.6305 44.6915,84.1763 41.2203,85.9119" stroke="#7cff79" stroke-width="2" /><polyline fill="none" points="104.5695,20.8271 96.3254,29.5051 84.6102,55.1051 82.0068,65.9525 82.0068,90.2508 87.2136,101.0983 88.9492,102.4" stroke="#7f0000" stroke-width="2" /></svg>