<?xml version="1.0" encoding="utf-8" ?>
<svg baseProfile="tiny" height="128" version="1.2" viewBox="0,0,128,128" width="128" xmlns="http://www.w3.org/2000/svg" xmlns:ev="http://www.w3.org/2001/xml-events" xmlns:xlink="http://www.w3.org/1999/xlink"><defs /><polyline fill="none" points="105.8712,16.0542 114.1153,18.6576 108.0407,15.6203 92.8542,10.4136 67.6881,8.678 45.9932,14.7525 26.4678,29.5051 19.9593,39.0508 12.5831,53.8034 8.678,67.2542 9.9797,82.4407 13.0169,94.1559 21.6949,106.3051 34.278,116.2847 43.8237,119.322 56.4068,118.8881 65.9525,116.2847 86.7797,107.6068 92.8542,103.2678 103.7017,88.9492 107.6068,81.5729 111.078,68.5559 114.9831,43.3898 114.9831,20.3932 114.5492,17.3559 111.5119,14.3186 105.8712,12.5831" stroke="#00007f" stroke-width="2" /><polyline fill="none" points="35.1458,20.8271 43.8237,40.7864 58.1424,58.1424 65.9525,78.5356 64.6508,91.1186 59.4441,103.7017 51.2,117.5864" stroke="#00d4ff" stroke-width="2" /><polyline fill="none" points="102.8339,14.3186 90.2508,32.9763 85.478,46.4271 84.1763,53.3695 85.9119,69.8576 96.3254,91.5525" stroke="#ffe500" stroke-width="2" /><polyline fill="none" points="88.9492,22.1288 88.9492,22.1288" stroke="#7f0000" stroke-width="2" /></svg>