<?xml version="1.0" encoding="utf-8" ?>
<svg baseProfile="tiny" height="128" version="1.2" viewBox="0,0,128,128" width="128" xmlns="http://www.w3.org/2000/svg" xmlns:ev="http://www.w3.org/2001/xml-events" xmlns:xlink="http://www.w3.org/1999/xlink"><defs /><polyline fill="none" points="39.0508,21.6949 26.9017,29.0712 18.6576,37.7492 12.5831,47.7288 9.5458,54.6712 8.678,62.9153 10.4136,68.5559 14.3186,73.7627 21.261,79.8373 33.8441,86.7797 42.522,89.8169 50.7661,90.6847 62.4814,89.3831 76.8,85.478 95.4576,75.9322 111.5119,62.0475 118.4542,49.4644 119.322,42.522 117.5864,35.5797 114.1153,29.939 108.0407,23.4305 99.3627,17.3559 88.9492,12.1492 78.9695,9.1119 70.2915,8.678 62.4814,10.4136 45.9932,21.261 34.7119,24.7322" stroke="#00007f" stroke-width="2" /><polyline fill="none" points="37.7492,22.5627 43.8237,31.2407 44.2576,43.3898 38.6169,67.6881 35.1458,75.9322" stroke="#7cff79" stroke-width="2" /><polyline fill="none" points="82.4407,9.1119 78.9695,24.2983 82.4407,42.0881" stroke="#7f0000" stroke-width="2" /></svg>