<?xml version="1.0" encoding="utf-8" ?>
<svg baseProfile="tiny" height="128" version="1.2" viewBox="0,0,128,128" width="128" xmlns="http://www.w3.org/2000/svg" xmlns:ev="http://www.w3.org/2001/xml-events" xmlns:xlink="http://www.w3.org/1999/xlink"><defs /><polyline fill="none" points="81.5729,13.4508 67.2542,9.5458 48.5966,8.678 29.939,18.6576 19.9593,25.6 14.7525,31.2407 9.5458,41.6542 8.678,55.9729 10.8475,64.6508 14.7525,70.7254 36.4475,95.0237 45.5593,101.0983 54.6712,104.5695 78.9695,104.1356 106.739,89.3831 113.6814,80.7051 118.8881,68.9898 119.322,57.7085 116.2847,44.6915 111.5119,33.8441 102.4,19.5254 98.061,16.0542 83.7424,17.3559" stroke="#00007f" stroke-width="2" /><polyline fill="none" points="48.1627,9.9797 51.2,14.7525 54.2373,26.0339 54.6712,50.7661 53.3695,59.0102 46.4271,77.2339 36.0136,91.5525" stroke="#7cff79" stroke-width="2" /><polyline fill="none" points="78.1017,96.7593 78.1017,51.2 79.4034,40.3525 83.7424,26.9017 91.1186,19.0915" stroke="#7f0000" stroke-width="2" /></svg>