<?xml version="1.0" encoding="utf-8" ?>
<svg baseProfile="tiny" height="128" version="1.2" viewBox="0,0,128,128" width="128" xmlns="http://www.w3.org/2000/svg" xmlns:ev="http://www.w3.org/2001/xml-events" xmlns:xlink="http://www.w3.org/1999/xlink"><defs /><polyline fill="none" points="41.2203,16.4881 39.0508,15.6203 33.8441,17.3559 23.4305,23.8644 18.2237,29.0712 9.9797,40.7864 8.678,68.122 10.4136,79.8373 20.3932,100.6644 31.2407,111.9458 45.1254,115.4169 63.3492,114.9831 79.4034,110.2102 89.3831,105.4373 101.5322,94.5898 106.3051,83.7424 108.4746,69.8576 108.4746,55.1051 105.8712,44.2576 101.9661,38.1831 88.9492,25.1661 56.8407,11.7153 48.1627,10.4136 41.6542,11.2814 36.8814,13.4508 29.939,19.5254" stroke="#00007f" stroke-width="2" /><polyline fill="none" points="45.1254,11.2814 45.1254,14.3186 37.3153,37.7492 31.6746,60.3119 29.5051,90.6847 29.939,110.6441" stroke="#7cff79" stroke-width="2" /><polyline fill="none" points="53.3695,8.678 53.3695,42.9559 55.9729,76.8 55.9729,101.5322 53.3695,119.322" stroke="#7f0000" stroke-width="2" /></svg>