<?xml version="1.0" encoding="utf-8" ?>
<svg baseProfile="tiny" height="128" version="1.2" viewBox="0,0,128,128" width="128" xmlns="http://www.w3.org/2000/svg" xmlns:ev="http://www.w3.org/2001/xml-events" xmlns:xlink="http://www.w3.org/1999/xlink"><defs /><polyline fill="none" points="88.9492,19.5254 85.9119,15.6203 80.2712,12.1492 71.5932,9.5458 59.878,9.1119 52.5017,10.4136 45.1254,13.4508 32.5424,21.6949 21.6949,32.1085 12.1492,45.5593 9.5458,52.9356 8.678,60.7458 9.5458,68.122 17.3559,83.7424 30.3729,98.9288 38.1831,104.5695 52.5017,110.6441 65.9525,112.3797 72.0271,111.5119 89.8169,102.8339 104.1356,87.2136 112.3797,69.8576 113.6814,62.9153 113.2475,50.7661 108.4746,39.0508 94.1559,26.9017 80.2712,18.2237 72.461,15.1864" stroke="#00007f" stroke-width="2" /><polyline fill="none" points="62.0475,8.678 68.9898,27.7695 80.7051,52.0678 93.722,85.478 92.8542,91.5525 91.1186,95.8915" stroke="#7cff79" stroke-width="2" /><polyline fill="none" points="34.278,18.6576 55.539,69.8576 62.4814,100.6644 65.0847,119.322" stroke="#7f0000" stroke-width="2" /></svg>