<?xml version="1.0" encoding="utf-8" ?>
<svg baseProfile="tiny" height="128" version="1.2" viewBox="0,0,128,128" width="128" xmlns="http://www.w3.org/2000/svg" xmlns:ev="http://www.w3.org/2001/xml-events" xmlns:xlink="http://www.w3.org/1999/xlink"><defs /><polyline fill="none" points="46.861,105.4373 39.9186,105.8712 30.3729,103.7017 23.4305,97.6271 18.6576,91.1186 11.2814,77.6678 8.678,64.6508 8.678,52.0678 11.2814,39.4847 15.6203,31.6746 30.3729,17.7898 37.3153,13.4508 50.7661,9.5458 66.3864,8.678 76.8,10.4136 98.4949,19.9593 105.0034,25.1661 112.3797,33.8441 115.8508,45.9932 116.7186,56.4068 110.6441,88.5153 105.4373,98.4949 95.4576,109.7763 87.6475,114.1153 70.7254,117.5864 50.3322,114.9831 40.7864,108.4746 29.939,95.4576" stroke="#00007f" stroke-width="2" /><polyline fill="none" points="19.5254,19.0915 27.7695,24.2983 34.7119,36.4475 41.6542,51.2 45.1254,64.6508 47.7288,78.9695 47.7288,88.5153 44.6915,101.5322 38.6169,111.9458" stroke="#00d4ff" stroke-width="2" /><polyline fill="none" points="98.9288,16.922 93.722,21.6949 88.9492,29.0712 80.2712,51.6339 78.1017,65.5186 80.7051,98.4949 86.3458,111.078 93.2881,119.322" stroke="#ffe500" stroke-width="2" /><polyline fill="none" points="74.6305,108.9085 74.6305,108.9085" stroke="#7f0000" stroke-width="2" /></svg>