<?xml version="1.0" encoding="utf-8" ?>
<svg baseProfile="tiny" height="128" version="1.2" viewBox="0,0,128,128" width="128" xmlns="http://www.w3.org/2000/svg" xmlns:ev="http://www.w3.org/2001/xml-events" xmlns:xlink="http://www.w3.org/1999/xlink"><defs /><polyline fill="none" points="94.5898,16.4881 88.9492,10.4136 82.0068,8.678 67.2542,8.678 43.8237,14.7525 29.939,22.1288 17.3559,32.9763 9.9797,45.9932 8.678,52.9356 9.9797,68.122 13.0169,76.8 22.5627,91.9864 32.9763,101.5322 42.522,105.0034 52.9356,105.4373 84.6102,100.6644 95.4576,96.3254 107.1729,85.478 114.1153,71.1593 119.322,55.9729 118.0203,47.2949 109.3424,30.3729 104.1356,25.1661 91.9864,18.2237 91.5525,16.922" stroke="#00007f" stroke-width="2" /><polyline fill="none" points="26.4678,21.6949 28.6373,36.4475 35.5797,47.2949 36.4475,51.2 36.0136,56.4068 32.1085,68.5559 32.1085,83.3085 28.2034,96.3254" stroke="#0000fe" stroke-width="2" /><polyline fill="none" points="97.1932,19.9593 88.0814,22.5627 81.5729,27.3356 76.8,33.8441 74.1966,41.6542 73.7627,64.6508 83.7424,81.5729 90.6847,97.6271" stroke="#0060ff" stroke-width="2" /><polyline fill="none" points="66.3864,31.2407 88.9492,33.4102" stroke="#00d4ff" stroke-width="2" /><polyline fill="none" points="68.122,54.6712 91.1186,58.5763" stroke="#4cffaa" stroke-width="2" /><polyline fill="none" points="72.8949,76.8 80.2712,79.8373 97.6271,81.139" stroke="#aaff4c" stroke-width="2" /><polyline fill="none" points="79.8373,89.8169 96.7593,89.3831" stroke="#ffe500" stroke-width="2" /><polyline fill="none" points="27.3356,83.7424 33.8441,82.8746" stroke="#ff7a00" stroke-width="2" /><polyline fill="none" points="19.9593,57.7085 33.4102,55.9729 44.6915,48.1627" stroke="#fe1200" stroke-width="2" /><polyline fill="none" points="23.8644,41.2203 41.2203,33.8441" stroke="#7f0000" stroke-width="2" /></svg>