<?xml version="1.0" encoding="utf-8" ?>
<svg baseProfile="tiny" height="128" version="1.2" viewBox="0,0,128,128" width="128" xmlns="http://www.w3.org/2000/svg" xmlns:ev="http://www.w3.org/2001/xml-events" xmlns:xlink="http://www.w3.org/1999/xlink"><defs /><polyline fill="none" points="70.2915,15.1864 62.4814,9.9797 54.6712,9.9797 50.7661,11.2814 31.2407,26.0339 22.5627,36.4475 16.0542,45.9932 10.8475,59.878 8.678,74.6305 8.678,87.2136 11.2814,98.061 17.3559,105.8712 25.6,110.6441 40.3525,113.6814 81.139,114.1153 92.8542,108.4746 97.6271,101.5322 103.7017,88.9492 105.8712,72.461 105.8712,55.9729 102.4,44.2576 98.061,36.0136 91.1186,28.2034 84.1763,20.8271 71.1593,12.1492" stroke="#00007f" stroke-width="2" /><polyline fill="none" points="51.2,8.678 49.4644,25.6 49.4644,63.3492 48.1627,71.5932 44.6915,84.6102 40.7864,91.9864 33.8441,102.4 27.3356,108.4746" stroke="#7cff79" stroke-width="2" /><polyline fill="none" points="86.3458,24.2983 86.3458,28.2034 76.3661,51.6339 74.6305,59.878 74.6305,101.5322 77.6678,115.4169 79.8373,119.322 82.8746,119.322" stroke="#7f0000" stroke-width="2" /></svg>