<?xml version="1.0" encoding="utf-8" ?>
<svg baseProfile="tiny" height="128" version="1.2" viewBox="0,0,128,128" width="128" xmlns="http://www.w3.org/2000/svg" xmlns:ev="http://www.w3.org/2001/xml-events" xmlns:xlink="http://www.w3.org/1999/xlink"><defs /><polyline fill="none" points="57.7085,10.8475 38.6169,16.922 19.0915,30.3729 14.7525,31.2407 9.5458,45.5593 8.678,55.539 9.5458,59.4441 12.1492,63.3492 20.3932,82.8746 36.8814,95.0237 58.1424,100.2305 69.4237,100.2305 73.3288,98.9288 108.4746,76.3661 119.322,60.3119 118.0203,52.9356 100.6644,33.8441 84.6102,10.8475 81.5729,8.678 77.6678,9.1119 66.3864,13.8847 60.7458,14.7525" stroke="#00007f" stroke-width="2" /><polyline fill="none" points="39.0508,16.0542 47.2949,53.8034 45.9932,63.7831 22.1288,98.9288 14.3186,101.5322" stroke="#7cff79" stroke-width="2" /><polyline fill="none" points="85.478,14.3186 82.8746,22.1288 81.139,48.5966 79.8373,52.9356 79.8373,67.6881 85.478,79.4034" stroke="#7f0000" stroke-width="2" /></svg>