<?xml version="1.0" encoding="utf-8" ?>
<svg baseProfile="tiny" height="128" version="1.2" viewBox="0,0,128,128" width="128" xmlns="http://www.w3.org/2000/svg" xmlns:ev="http://www.w3.org/2001/xml-events" xmlns:xlink="http://www.w3.org/1999/xlink"><defs /><polyline fill="none" points="97.9592,13.4966 84.4626,10.0136 72.2721,8.7075 57.9048,10.8844 43.9728,16.5442 31.3469,24.381 21.3333,34.3946 14.3673,44.8435 8.7075,60.517 8.7075,74.8844 13.4966,87.5102 20.4626,94.0408 33.0884,101.0068 49.1973,105.7959 70.5306,107.102 82.2857,104.4898 92.2993,97.9592 104.9252,87.0748 111.4558,78.8027 117.551,64.4354 119.2925,52.2449 116.2449,40.4898 105.3605,16.1088 102.3129,14.3673 94.4762,16.1088" stroke="#00007f" stroke-width="2" /><polyline fill="none" points="37.0068,26.1224 41.7959,36.1361 42.6667,42.2313 40.4898,50.068 32.6531,66.1769 32.2177,71.8367 37.4422,77.4966 43.9728,81.415 45.2789,86.6395 40.4898,101.4422 35.7007,107.102 33.9592,107.5374" stroke="#7cff79" stroke-width="2" /><polyline fill="none" points="96.2177,13.0612 91.8639,13.0612 86.2041,16.5442 79.6735,21.3333 75.7551,28.7347 76.6259,34.8299 85.7687,42.6667 89.6871,49.1973 87.5102,57.034 79.2381,70.966 74.8844,82.2857 75.3197,86.2041 83.5918,91.8639 84.898,100.1361" stroke="#7f0000" stroke-width="2" /></svg>