<?xml version="1.0" encoding="utf-8" ?>
<svg baseProfile="tiny" height="128" version="1.2" viewBox="0,0,128,128" width="128" xmlns="http://www.w3.org/2000/svg" xmlns:ev="http://www.w3.org/2001/xml-events" xmlns:xlink="http://www.w3.org/1999/xlink"><defs /><polyline fill="none" points="51.6339,54.2373 46.861,60.7458 43.3898,73.3288 44.6915,81.5729 50.7661,86.7797 55.1051,86.7797 57.7085,54.2373 49.0305,52.9356" stroke="#00007f" stroke-width="2" /><polyline fill="none" points="54.2373,58.1424 66.8203,51.6339 79.8373,50.3322" stroke="#0028ff" stroke-width="2" /><polyline fill="none" points="55.1051,49.4644 54.2373,40.7864" stroke="#00d4ff" stroke-width="2" /><polyline fill="none" points="55.1051,42.9559 51.6339,35.1458 51.6339,24.7322 48.5966,8.678 57.2746,14.3186 63.3492,16.4881 77.2339,17.3559 75.0644,29.939" stroke="#7cff79" stroke-width="2" /><polyline fill="none" points="71.5932,30.3729 93.2881,32.9763 92.8542,34.7119 89.8169,37.3153 83.3085,61.1797 81.139,88.9492 78.9695,95.8915 77.6678,97.1932 67.2542,98.9288 47.2949,98.9288 38.6169,94.1559 35.5797,91.1186 32.9763,82.0068 32.9763,63.7831 34.278,58.1424 37.7492,55.1051 55.1051,53.3695 70.2915,49.8983 87.6475,52.0678" stroke="#ffe500" stroke-width="2" /><polyline fill="none" points="55.539,49.0305 56.4068,62.4814" stroke="#ff4600" stroke-width="2" /><polyline fill="none" points="47.2949,13.8847 36.8814,13.0169 34.278,14.7525 30.3729,24.2983 29.5051,39.0508 26.0339,40.3525 20.3932,38.1831 16.922,38.6169 13.0169,43.3898 9.5458,52.0678 8.678,57.7085 9.5458,60.7458 25.1661,82.4407 24.2983,95.8915 60.3119,106.739 56.8407,111.5119 55.539,118.8881 58.1424,119.322 77.6678,114.5492 79.8373,112.3797 83.3085,103.7017 80.7051,88.0814" stroke="#7f0000" stroke-width="2" /></svg>