<?xml version="1.0" encoding="utf-8" ?>
<svg baseProfile="tiny" height="128" version="1.2" viewBox="0,0,128,128" width="128" xmlns="http://www.w3.org/2000/svg" xmlns:ev="http://www.w3.org/2001/xml-events" xmlns:xlink="http://www.w3.org/1999/xlink"><defs /><polyline fill="none" points="51.6339,13.4508 42.0881,13.4508 39.0508,14.3186 26.9017,21.6949 21.261,27.3356 16.4881,34.278 8.678,64.6508 9.9797,78.5356 17.7898,94.5898 33.4102,113.6814 38.6169,117.1525 45.1254,118.8881 82.8746,119.322 92.4203,116.7186 97.6271,114.1153 105.8712,107.6068 111.078,97.6271 115.8508,78.5356 117.1525,62.0475 113.6814,51.2 102.8339,37.3153 93.2881,21.261 86.7797,17.7898 66.3864,15.1864 49.4644,9.1119 45.5593,8.678 42.0881,11.2814" stroke="#00007f" stroke-width="2" /><polyline fill="none" points="42.0881,11.2814 50.3322,26.4678 50.3322,50.7661 41.6542,76.8 35.1458,85.0441 22.1288,96.7593 24.2983,97.1932" stroke="#7cff79" stroke-width="2" /><polyline fill="none" points="105.0034,38.6169 88.5153,66.3864 83.7424,84.1763 83.7424,104.1356 85.0441,109.3424 89.3831,114.5492 96.3254,115.8508" stroke="#7f0000" stroke-width="2" /></svg>