<?xml version="1.0" encoding="utf-8" ?>
<svg baseProfile="tiny" height="128" version="1.2" viewBox="0,0,128,128" width="128" xmlns="http://www.w3.org/2000/svg" xmlns:ev="http://www.w3.org/2001/xml-events" xmlns:xlink="http://www.w3.org/1999/xlink"><defs /><polyline fill="none" points="79.2381,8.7075 70.0952,8.7075 54.4218,11.7551 27.4286,20.0272 14.3673,28.2993 9.1429,36.1361 8.7075,43.102 10.8844,55.7279 16.5442,70.966 20.0272,75.7551 30.0408,84.4626 44.4082,92.2993 60.9524,97.5238 72.7075,98.8299 84.4626,96.2177 94.0408,91.8639 109.7143,78.8027 118.8571,66.1769 119.2925,57.034 113.6327,43.102 101.8776,31.7823 83.1565,20.898 72.7075,11.7551 65.3061,13.4966" stroke="#00007f" stroke-width="2" /><polyline fill="none" points="25.2517,17.415 40.4898,30.0408 43.5374,38.7483 42.2313,51.8095 38.3129,67.0476 26.9932,83.1565 49.1973,69.6599" stroke="#7cff79" stroke-width="2" /><polyline fill="none" points="83.5918,26.5578 72.2721,43.5374 68.3537,52.2449 68.3537,57.034 76.1905,71.4014 86.6395,74.8844 89.6871,80.1088" stroke="#7f0000" stroke-width="2" /></svg>