<?xml version="1.0" encoding="utf-8" ?>
<svg baseProfile="tiny" height="128" version="1.2" viewBox="0,0,128,128" width="128" xmlns="http://www.w3.org/2000/svg" xmlns:ev="http://www.w3.org/2001/xml-events" xmlns:xlink="http://www.w3.org/1999/xlink"><defs /><polyline fill="none" points="66.8203,14.3186 38.6169,15.1864 27.7695,20.8271 22.5627,26.4678 16.0542,37.3153 9.5458,55.1051 8.678,78.5356 17.3559,103.7017 21.261,111.078 25.6,114.5492 32.9763,118.4542 38.6169,119.322 50.3322,117.5864 61.6136,113.2475 75.4983,101.5322 83.3085,92.4203 88.5153,82.0068 90.6847,70.2915 88.9492,56.8407 83.7424,44.2576 72.8949,32.1085 48.5966,13.8847" stroke="#00007f" stroke-width="2" /><polyline fill="none" points="19.9593,36.0136 28.2034,46.861 32.1085,59.4441 33.4102,70.7254 32.1085,105.4373" stroke="#7cff79" stroke-width="2" /><polyline fill="none" points="79.8373,8.678 73.7627,12.1492 70.7254,19.5254 60.3119,65.9525 61.6136,76.3661 67.6881,84.6102 71.1593,86.7797 85.0441,85.478" stroke="#7f0000" stroke-width="2" /></svg>