<?xml version="1.0" encoding="utf-8" ?>
<svg baseProfile="tiny" height="128" version="1.2" viewBox="0,0,128,128" width="128" xmlns="http://www.w3.org/2000/svg" xmlns:ev="http://www.w3.org/2001/xml-events" xmlns:xlink="http://www.w3.org/1999/xlink"><defs /><polyline fill="none" points="72.461,24.2983 69.4237,17.3559 65.9525,13.8847 62.0475,12.5831 53.3695,13.4508 43.3898,16.922 35.5797,21.6949 20.8271,36.0136 15.1864,45.1254 11.2814,55.1051 8.678,68.9898 10.8475,82.4407 19.9593,96.3254 32.9763,104.1356 42.522,106.739 58.1424,108.0407 68.9898,106.3051 79.4034,102.8339 97.6271,92.4203 107.1729,82.4407 115.4169,69.8576 118.4542,60.7458 119.322,49.0305 117.5864,40.7864 112.8136,30.3729 106.739,22.1288 98.4949,14.7525 87.6475,9.5458 79.4034,8.678" stroke="#00007f" stroke-width="2" /><polyline fill="none" points="41.2203,19.5254 50.7661,26.4678 56.8407,33.8441 59.878,47.7288 57.7085,62.0475 54.2373,72.0271 43.8237,95.0237 37.7492,104.1356" stroke="#0000ff" stroke-width="2" /><polyline fill="none" points="90.2508,9.9797 86.3458,14.3186 81.5729,24.7322 78.1017,37.7492 76.8,51.6339 78.5356,68.5559 80.7051,75.4983 83.7424,83.7424 88.9492,91.1186" stroke="#0080ff" stroke-width="2" /><polyline fill="none" points="72.8949,22.9966 71.5932,22.1288 72.0271,23.8644" stroke="#15ffe1" stroke-width="2" /><polyline fill="none" points="69.8576,54.2373 70.7254,53.8034" stroke="#7cff79" stroke-width="2" /><polyline fill="none" points="69.8576,70.2915 70.7254,72.8949" stroke="#e4ff12" stroke-width="2" /><polyline fill="none" points="66.3864,91.5525 66.3864,91.5525" stroke="#ff9400" stroke-width="2" /><polyline fill="none" points="63.3492,98.061 63.7831,97.6271" stroke="#ff1d00" stroke-width="2" /><polyline fill="none" points="68.122,37.7492 67.2542,35.1458" stroke="#7f0000" stroke-width="2" /></svg>