<?xml version="1.0" encoding="utf-8" ?>
<svg baseProfile="tiny" height="128" version="1.2" viewBox="0,0,128,128" width="128" xmlns="http://www.w3.org/2000/svg" xmlns:ev="http://www.w3.org/2001/xml-events" xmlns:xlink="http://www.w3.org/1999/xlink"><defs /><polyline fill="none" points="68.122,26.0339 50.3322,11.7153 42.522,9.1119 29.5051,8.678 22.1288,11.7153 14.3186,27.7695 11.7153,38.6169 8.678,62.0475 8.678,87.6475 10.4136,99.7966 15.6203,107.1729 20.8271,111.078 32.5424,117.1525 45.9932,119.322 63.3492,112.8136 79.8373,101.9661 83.7424,93.2881 83.3085,83.7424 74.1966,42.522 73.7627,26.0339 72.461,23.4305 67.2542,22.9966" stroke="#00007f" stroke-width="2" /><polyline fill="none" points="24.2983,12.5831 28.6373,41.6542 29.939,73.3288 29.939,89.3831 25.1661,109.3424" stroke="#7cff79" stroke-width="2" /><polyline fill="none" points="51.6339,13.4508 51.6339,13.4508" stroke="#7f0000" stroke-width="2" /></svg>