<?xml version="1.0" encoding="utf-8" ?>
<svg baseProfile="tiny" height="128" version="1.2" viewBox="0,0,128,128" width="128" xmlns="http://www.w3.org/2000/svg" xmlns:ev="http://www.w3.org/2001/xml-events" xmlns:xlink="http://www.w3.org/1999/xlink"><defs /><polyline fill="none" points="29.0712,17.7898 25.6,18.2237 19.5254,22.9966 15.1864,31.6746 10.4136,47.7288 8.678,70.7254 9.1119,78.5356 11.7153,91.5525 14.7525,96.3254 28.2034,105.4373 40.7864,111.5119 49.4644,112.3797 68.122,111.9458 91.5525,105.8712 107.6068,97.1932 116.7186,88.0814 119.322,76.8 119.322,58.5763 118.0203,51.6339 114.9831,42.0881 106.3051,32.9763 102.4,26.4678 88.9492,19.0915 75.4983,16.0542 72.461,13.4508 65.9525,11.7153 50.7661,8.678 26.4678,14.7525" stroke="#00007f" stroke-width="2" /><polyline fill="none" points="20.8271,25.1661 42.522,45.5593 51.6339,47.7288 71.1593,60.3119 92.8542,69.8576 104.1356,78.9695 107.1729,79.8373 112.3797,85.478" stroke="#7cff79" stroke-width="2" /><polyline fill="none" points="12.5831,79.8373 22.5627,85.0441 38.1831,98.9288 47.2949,105.0034 57.7085,115.4169" stroke="#7f0000" stroke-width="2" /></svg>