<?xml version="1.0" encoding="utf-8" ?>
<svg baseProfile="tiny" height="128" version="1.2" viewBox="0,0,128,128" width="128" xmlns="http://www.w3.org/2000/svg" xmlns:ev="http://www.w3.org/2001/xml-events" xmlns:xlink="http://www.w3.org/1999/xlink"><defs /><polyline fill="none" points="26.0339,36.4475 39.4847,21.6949 56.4068,12.5831 69.8576,9.1119 83.3085,8.678 89.3831,9.9797 97.1932,14.3186 103.2678,19.9593 109.7763,31.6746 114.1153,44.2576 115.8508,61.1797 114.9831,77.6678 109.3424,90.2508 105.0034,95.8915 98.4949,101.0983 82.0068,108.9085 61.6136,111.9458 41.2203,111.5119 31.6746,108.0407 22.9966,101.9661 16.0542,92.4203 10.8475,79.4034 8.678,64.6508 8.678,50.3322 11.2814,39.4847 16.922,32.1085 36.8814,22.1288" stroke="#00007f" stroke-width="2" /><polyline fill="none" points="41.2203,8.678 44.2576,9.9797 46.4271,13.4508 51.6339,23.4305 55.539,47.2949 54.6712,61.6136 47.2949,77.2339 37.3153,88.9492 26.0339,96.3254" stroke="#7cff79" stroke-width="2" /><polyline fill="none" points="76.3661,18.6576 86.7797,69.4237 91.9864,88.0814 94.5898,91.9864 103.2678,98.9288 112.3797,101.9661 119.322,102.4" stroke="#7f0000" stroke-width="2" /></svg>