<?xml version="1.0" encoding="utf-8" ?>
<svg baseProfile="tiny" height="128" version="1.2" viewBox="0,0,128,128" width="128" xmlns="http://www.w3.org/2000/svg" xmlns:ev="http://www.w3.org/2001/xml-events" xmlns:xlink="http://www.w3.org/1999/xlink"><defs /><polyline fill="none" points="22.1288,16.0542 36.0136,9.9797 54.6712,8.678 66.8203,12.1492 78.5356,20.8271 83.7424,26.4678 87.2136,32.9763 92.4203,49.4644 92.4203,70.2915 89.8169,81.139 86.7797,91.5525 82.0068,100.2305 68.9898,114.9831 62.9153,118.0203 47.2949,119.322 33.4102,114.1153 27.3356,109.3424 21.261,103.2678 14.3186,87.2136 8.678,59.0102 8.678,45.1254 9.9797,39.4847 19.5254,25.1661" stroke="#00007f" stroke-width="2" /><polyline fill="none" points="22.1288,12.5831 27.7695,17.7898 32.5424,27.3356 35.5797,48.5966 34.7119,55.9729 23.8644,85.478 19.9593,91.5525 18.2237,91.5525" stroke="#0028ff" stroke-width="2" /><polyline fill="none" points="82.8746,18.6576 74.6305,25.1661 70.7254,29.939 67.6881,34.7119 63.7831,47.7288 61.1797,73.7627 61.1797,92.8542 65.0847,108.4746" stroke="#00d4ff" stroke-width="2" /><polyline fill="none" points="62.0475,26.4678 66.8203,29.5051 72.0271,35.1458" stroke="#7cff79" stroke-width="2" /><polyline fill="none" points="58.1424,57.7085 74.1966,68.122" stroke="#ffe500" stroke-width="2" /><polyline fill="none" points="55.539,92.8542 65.5186,93.722" stroke="#ff4600" stroke-width="2" /><polyline fill="none" points="24.7322,31.2407 27.3356,29.939 36.4475,29.5051" stroke="#7f0000" stroke-width="2" /></svg>