<?xml version="1.0" encoding="utf-8" ?>
<svg baseProfile="tiny" height="128" version="1.2" viewBox="0,0,128,128" width="128" xmlns="http://www.w3.org/2000/svg" xmlns:ev="http://www.w3.org/2001/xml-events" xmlns:xlink="http://www.w3.org/1999/xlink"><defs /><polyline fill="none" points="105.0034,19.5254 65.5186,18.6576 59.0102,19.5254 49.8983,22.1288 34.7119,32.5424 19.9593,47.2949 12.1492,62.0475 8.678,78.1017 8.678,86.3458 11.2814,92.4203 17.3559,101.5322 31.2407,111.5119 47.7288,116.7186 79.4034,116.7186 93.2881,111.5119 109.3424,102.4 114.9831,94.1559 119.322,76.3661 119.322,49.8983 116.7186,36.0136 112.3797,22.1288 110.2102,16.922 105.0034,12.1492 98.9288,8.678" stroke="#00007f" stroke-width="2" /><polyline fill="none" points="47.7288,24.7322 49.0305,36.8814 48.1627,62.9153 39.0508,102.4 32.5424,119.322" stroke="#7cff79" stroke-width="2" /><polyline fill="none" points="84.6102,17.7898 76.3661,52.9356 75.4983,70.7254 77.2339,77.6678 82.8746,88.9492 90.6847,97.1932 96.3254,98.9288" stroke="#7f0000" stroke-width="2" /></svg>