<?xml version="1.0" encoding="utf-8" ?>
<svg baseProfile="tiny" height="128" version="1.2" viewBox="0,0,128,128" width="128" xmlns="http://www.w3.org/2000/svg" xmlns:ev="http://www.w3.org/2001/xml-events" xmlns:xlink="http://www.w3.org/1999/xlink"><defs /><polyline fill="none" points="76.3661,119.322 62.4814,117.5864 44.6915,112.3797 12.1492,83.7424 8.678,75.9322 8.678,33.8441 11.2814,24.7322 18.6576,24.7322 24.2983,19.5254 39.0508,9.9797 45.5593,8.678 56.4068,9.1119 72.8949,13.8847 81.5729,18.2237 92.4203,28.6373 95.8915,34.7119 100.6644,50.7661 101.0983,62.4814 98.4949,68.9898 89.8169,84.1763 82.0068,94.1559 79.4034,111.078 75.9322,116.7186 70.7254,118.0203" stroke="#00007f" stroke-width="2" /><polyline fill="none" points="79.8373,95.8915 76.3661,87.2136 69.4237,39.9186 66.8203,32.1085 67.6881,21.261 70.7254,13.4508" stroke="#0028ff" stroke-width="2" /><polyline fill="none" points="77.2339,36.8814 62.9153,39.9186 53.8034,43.8237" stroke="#00d4ff" stroke-width="2" /><polyline fill="none" points="79.4034,54.2373 74.6305,62.0475 64.6508,72.0271" stroke="#7cff79" stroke-width="2" /><polyline fill="none" points="32.1085,107.6068 36.8814,99.7966 38.6169,93.722 39.0508,84.1763 36.8814,55.1051 27.7695,21.261 26.0339,18.6576 19.5254,18.6576" stroke="#ffe500" stroke-width="2" /><polyline fill="none" points="39.9186,38.1831 22.9966,48.1627" stroke="#ff4600" stroke-width="2" /><polyline fill="none" points="44.2576,62.0475 38.6169,69.8576 27.3356,77.6678" stroke="#7f0000" stroke-width="2" /></svg>