<?xml version="1.0" encoding="utf-8" ?>
<svg baseProfile="tiny" height="128" version="1.2" viewBox="0,0,128,128" width="128" xmlns="http://www.w3.org/2000/svg" xmlns:ev="http://www.w3.org/2001/xml-events" xmlns:xlink="http://www.w3.org/1999/xlink"><defs /><polyline fill="none" points="41.6542,23.4305 59.0102,22.5627 64.6508,24.2983 76.3661,30.3729 85.478,37.7492 91.5525,49.0305 92.8542,59.0102 92.8542,70.7254 90.6847,83.3085 85.9119,95.8915 78.5356,109.7763 74.6305,114.1153 69.4237,117.1525 59.878,119.322 50.3322,119.322 39.4847,117.1525 24.7322,102.8339 16.0542,86.3458 13.0169,75.4983 8.678,49.8983 8.678,36.8814 11.7153,19.5254 15.6203,14.3186 19.9593,10.8475 32.1085,8.678" stroke="#00007f" stroke-width="2" /><polyline fill="none" points="13.4508,16.4881 24.7322,21.6949 35.1458,32.1085 39.9186,39.4847 42.9559,50.7661 42.9559,64.6508 37.7492,77.2339 23.4305,100.2305 17.7898,115.4169 17.7898,118.4542 20.8271,118.4542" stroke="#004cff" stroke-width="2" /><polyline fill="none" points="88.5153,29.939 77.6678,33.4102 68.9898,40.7864 64.6508,48.1627 60.7458,69.8576 60.7458,78.5356 62.9153,83.3085 72.461,96.3254 84.1763,108.9085" stroke="#29ffcd" stroke-width="2" /><polyline fill="none" points="77.6678,46.4271 60.7458,43.8237" stroke="#cdff29" stroke-width="2" /><polyline fill="none" points="68.122,74.6305 55.9729,74.1966" stroke="#ff6700" stroke-width="2" /><polyline fill="none" points="76.3661,96.7593 65.5186,97.6271 58.1424,96.3254" stroke="#7f0000" stroke-width="2" /></svg>