<?xml version="1.0" encoding="utf-8" ?>
<svg baseProfile="tiny" height="128" version="1.2" viewBox="0,0,128,128" width="128" xmlns="http://www.w3.org/2000/svg" xmlns:ev="http://www.w3.org/2001/xml-events" xmlns:xlink="http://www.w3.org/1999/xlink"><defs /><polyline fill="none" points="60.7458,13.0169 43.8237,22.1288 20.8271,31.6746 12.5831,38.1831 8.678,46.861 10.8475,65.5186 22.5627,88.9492 46.861,109.7763 62.9153,115.8508 76.3661,116.7186 88.0814,115.8508 94.1559,113.6814 111.078,98.4949 116.7186,82.0068 119.322,66.3864 107.1729,51.6339 76.8,9.5458 64.6508,8.678 59.4441,9.9797 54.6712,13.8847" stroke="#00007f" stroke-width="2" /><polyline fill="none" points="42.522,20.8271 47.7288,61.1797 42.9559,79.8373 36.0136,94.1559" stroke="#7cff79" stroke-width="2" /><polyline fill="none" points="96.7593,38.6169 93.722,55.1051 88.9492,71.5932 88.0814,83.3085 91.1186,103.7017 95.0237,111.5119" stroke="#7f0000" stroke-width="2" /></svg>