<?xml version="1.0" encoding="utf-8" ?>
<svg baseProfile="tiny" height="128" version="1.2" viewBox="0,0,128,128" width="128" xmlns="http://www.w3.org/2000/svg" xmlns:ev="http://www.w3.org/2001/xml-events" xmlns:xlink="http://www.w3.org/1999/xlink"><defs /><polyline fill="none" points="60.7458,12.1492 59.878,8.678 52.5017,9.9797 42.0881,16.922 31.2407,26.4678 15.6203,46.861 9.5458,64.2169 8.678,82.0068 15.6203,97.6271 21.6949,104.5695 28.6373,108.9085 36.8814,111.5119 55.1051,112.3797 65.5186,111.078 75.9322,107.1729 94.1559,96.7593 102.8339,89.3831 110.2102,81.139 115.4169,72.8949 118.0203,65.5186 119.322,48.5966 116.2847,39.9186 111.078,32.9763 105.0034,26.9017 91.9864,19.5254 85.0441,17.3559 73.3288,16.0542" stroke="#00007f" stroke-width="2" /><polyline fill="none" points="22.9966,39.4847 30.3729,40.3525 34.7119,42.522 37.7492,46.861 43.8237,63.3492 47.2949,98.9288 45.5593,114.1153" stroke="#0080ff" stroke-width="2" /><polyline fill="none" points="79.8373,17.7898 78.5356,20.3932 76.8,42.0881 76.8,56.4068 79.4034,64.6508 84.6102,72.0271 92.4203,78.1017 111.078,83.3085" stroke="#7cff79" stroke-width="2" /><polyline fill="none" points="51.2,29.5051 51.2,29.5051" stroke="#ff9400" stroke-width="2" /><polyline fill="none" points="59.0102,52.5017 60.7458,55.1051" stroke="#7f0000" stroke-width="2" /></svg>