<?xml version="1.0" encoding="utf-8" ?>
<svg baseProfile="tiny" height="128" version="1.2" viewBox="0,0,128,128" width="128" xmlns="http://www.w3.org/2000/svg" xmlns:ev="http://www.w3.org/2001/xml-events" xmlns:xlink="http://www.w3.org/1999/xlink"><defs /><polyline fill="none" points="106.739,32.9763 101.5322,22.5627 97.1932,18.6576 81.5729,11.7153 66.8203,8.678 59.0102,8.678 50.7661,9.5458 40.3525,13.4508 28.2034,20.8271 16.4881,31.6746 12.5831,37.3153 9.5458,44.2576 8.678,53.8034 13.0169,69.4237 20.8271,81.139 33.8441,96.7593 41.2203,102.4 48.1627,105.8712 53.3695,107.6068 63.3492,107.6068 74.6305,104.5695 88.0814,97.1932 98.9288,86.7797 107.1729,74.6305 114.9831,57.7085 119.322,39.9186 117.1525,26.9017 112.8136,20.8271 105.0034,14.7525 95.0237,11.2814" stroke="#00007f" stroke-width="2" /><polyline fill="none" points="38.6169,16.4881 42.0881,14.7525 45.9932,15.6203 54.6712,20.3932 57.7085,25.6 58.1424,37.3153 54.2373,48.5966 47.7288,60.7458 42.9559,65.5186 31.2407,72.8949 26.9017,78.1017" stroke="#7cff79" stroke-width="2" /><polyline fill="none" points="103.2678,26.9017 100.2305,23.4305 88.5153,30.3729 83.3085,36.0136 77.6678,50.3322 77.2339,63.3492 80.2712,84.6102 87.2136,95.8915" stroke="#7f0000" stroke-width="2" /></svg>