<?xml version="1.0" encoding="utf-8" ?>
<svg baseProfile="tiny" height="128" version="1.2" viewBox="0,0,128,128" width="128" xmlns="http://www.w3.org/2000/svg" xmlns:ev="http://www.w3.org/2001/xml-events" xmlns:xlink="http://www.w3.org/1999/xlink"><defs /><polyline fill="none" points="25.1661,22.9966 13.0169,41.6542 9.1119,53.8034 8.678,60.7458 18.2237,95.0237 25.1661,109.3424 31.6746,114.9831 39.4847,118.0203 50.7661,119.322 69.8576,119.322 87.2136,115.4169 91.9864,112.3797 98.9288,106.3051 107.1729,95.4576 110.6441,83.7424 112.3797,64.6508 108.9085,52.5017 101.0983,39.4847 96.7593,34.278 85.9119,24.7322 75.9322,18.2237 61.6136,13.0169 33.8441,8.678 20.8271,12.1492 16.0542,14.7525 14.7525,17.7898" stroke="#00007f" stroke-width="2" /><polyline fill="none" points="19.0915,37.3153 23.8644,43.8237 46.4271,67.2542 52.5017,78.9695 55.1051,91.5525 55.1051,99.7966 53.3695,108.0407 48.5966,115.4169" stroke="#7cff79" stroke-width="2" /><polyline fill="none" points="59.4441,12.5831 64.6508,22.5627 79.4034,44.6915 86.7797,61.1797 88.9492,75.9322 89.3831,101.0983 86.3458,111.5119" stroke="#7f0000" stroke-width="2" /></svg>