<?xml version="1.0" encoding="utf-8" ?>
<svg baseProfile="tiny" height="128" version="1.2" viewBox="0,0,128,128" width="128" xmlns="http://www.w3.org/2000/svg" xmlns:ev="http://www.w3.org/2001/xml-events" xmlns:xlink="http://www.w3.org/1999/xlink"><defs /><polyline fill="none" points="63.3492,9.5458 48.5966,8.678 30.8068,10.4136 18.6576,18.6576 14.3186,24.7322 8.678,41.2203 8.678,56.8407 15.1864,68.9898 24.2983,75.0644 36.4475,79.8373 57.2746,82.4407 108.0407,82.4407 114.5492,78.1017 119.322,62.0475 118.4542,42.0881 116.7186,37.3153 109.7763,29.0712 100.2305,24.7322 90.2508,22.9966 77.2339,22.9966" stroke="#00007f" stroke-width="2" /><polyline fill="none" points="54.6712,26.4678 54.6712,79.8373" stroke="#0080ff" stroke-width="2" /><polyline fill="none" points="92.8542,28.2034 91.1186,32.5424 91.1186,92.8542" stroke="#7cff79" stroke-width="2" /><polyline fill="none" points="51.6339,33.4102 45.5593,33.8441 35.5797,42.0881" stroke="#ff9400" stroke-width="2" /><polyline fill="none" points="53.3695,61.1797 47.7288,61.1797 41.2203,65.9525 37.7492,71.1593" stroke="#7f0000" stroke-width="2" /></svg>