<?xml version="1.0" encoding="utf-8" ?>
<svg baseProfile="tiny" height="128" version="1.2" viewBox="0,0,128,128" width="128" xmlns="http://www.w3.org/2000/svg" xmlns:ev="http://www.w3.org/2001/xml-events" xmlns:xlink="http://www.w3.org/1999/xlink"><defs /><polyline fill="none" points="46.861,13.0169 59.4441,11.2814 72.8949,11.7153 88.0814,18.2237 94.1559,23.4305 99.7966,33.4102 104.1356,49.0305 106.739,64.6508 105.0034,82.8746 95.8915,95.0237 87.6475,100.6644 47.2949,119.322 39.0508,119.322 29.0712,114.5492 20.3932,105.4373 16.4881,98.4949 11.7153,82.8746 9.5458,68.9898 8.678,45.9932 13.0169,29.939 22.1288,16.922 34.278,10.8475 44.2576,8.678 63.3492,12.5831" stroke="#00007f" stroke-width="2" /><polyline fill="none" points="94.1559,19.9593 85.9119,27.3356 81.5729,40.3525 81.5729,83.3085 83.3085,95.4576 89.8169,100.6644 96.3254,101.0983" stroke="#7cff79" stroke-width="2" /><polyline fill="none" points="34.278,24.2983 37.3153,23.4305 42.0881,25.6 50.3322,33.8441 54.2373,40.3525 53.8034,53.3695 48.5966,70.7254 38.6169,95.8915 29.939,105.0034 16.4881,114.9831 20.8271,106.3051 38.1831,83.3085 42.0881,75.0644 45.5593,56.8407 45.9932,36.4475" stroke="#7f0000" stroke-width="2" /></svg>