<?xml version="1.0" encoding="utf-8" ?>
<svg baseProfile="tiny" height="128" version="1.2" viewBox="0,0,128,128" width="128" xmlns="http://www.w3.org/2000/svg" xmlns:ev="http://www.w3.org/2001/xml-events" xmlns:xlink="http://www.w3.org/1999/xlink"><defs /><polyline fill="none" points="62.9153,8.678 53.8034,11.2814 38.1831,20.3932 20.8271,36.4475 13.8847,47.2949 10.4136,55.539 8.678,74.1966 10.4136,87.6475 15.6203,97.6271 22.5627,104.5695 30.3729,110.2102 42.9559,114.5492 53.8034,114.5492 65.5186,111.5119 97.1932,94.1559 113.2475,77.6678 117.1525,70.7254 118.4542,64.6508 119.322,48.1627 116.7186,36.4475 109.3424,29.5051 85.9119,20.3932 77.2339,15.1864 65.5186,13.0169 61.1797,10.4136" stroke="#00007f" stroke-width="2" /><polyline fill="none" points="39.4847,18.2237 41.6542,36.4475 41.6542,56.8407 34.7119,75.4983 22.9966,94.1559" stroke="#7cff79" stroke-width="2" /><polyline fill="none" points="86.3458,98.4949 86.7797,53.8034 88.9492,44.2576 96.3254,28.6373" stroke="#7f0000" stroke-width="2" /></svg>