<?xml version="1.0" encoding="utf-8" ?>
<svg baseProfile="tiny" height="128" version="1.2" viewBox="0,0,128,128" width="128" xmlns="http://www.w3.org/2000/svg" xmlns:ev="http://www.w3.org/2001/xml-events" xmlns:xlink="http://www.w3.org/1999/xlink"><defs /><polyline fill="none" points="39.1837,10.0136 28.7347,20.0272 23.0748,30.0408 14.8027,46.585 10.0136,62.2585 8.7075,70.0952 10.0136,87.9456 15.2381,97.5238 21.7687,104.0544 42.6667,115.3741 55.7279,118.8571 69.6599,119.2925 81.8503,116.6803 91.4286,113.6327 100.1361,106.2313 105.3605,98.8299 115.3741,79.6735 114.5034,69.6599 104.9252,28.2993 97.9592,15.2381 92.2993,10.8844 85.3333,9.1429 62.6939,8.7075 38.3129,12.1905" stroke="#00007f" stroke-width="2" /><polyline fill="none" points="23.0748,30.0408 28.7347,32.6531 40.9252,41.7959 44.8435,50.9388 49.1973,69.2245 47.8912,80.9796 45.2789,87.5102 37.0068,98.8299 27.8639,105.3605" stroke="#7f0000" stroke-width="2" /></svg>