<?xml version="1.0" encoding="utf-8" ?>
<svg baseProfile="tiny" height="128" version="1.2" viewBox="0,0,128,128" width="128" xmlns="http://www.w3.org/2000/svg" xmlns:ev="http://www.w3.org/2001/xml-events" xmlns:xlink="http://www.w3.org/1999/xlink"><defs /><polyline fill="none" points="70.5753,17.0959 70.5753,14.4658 64.8767,12.7123 51.726,12.274 46.0274,13.589 34.6301,20.1644 28.4932,25.4247 14.0274,43.8356 9.2055,57.4247 8.7671,79.7808 13.589,94.2466 22.7945,104.3288 36.3836,110.4658 51.726,112.2192 60.9315,112.2192 79.3425,105.6438 96.4384,95.1233 107.8356,83.726 115.2877,71.0137 119.2329,58.7397 119.2329,41.6438 113.5342,30.6849 104.7671,23.2329 89.4247,14.0274 80.6575,10.0822 72.7671,8.7671" stroke="#00007f" stroke-width="2" /><polyline fill="none" points="40.7671,16.6575 48.2192,17.9726 53.0411,21.9178 57.4247,28.9315 60.4932,39.4521 60.9315,57.863 59.1781,67.5068 55.2329,75.8356 45.589,87.6712 33.7534,99.0685" stroke="#0010ff" stroke-width="2" /><polyline fill="none" points="102.137,20.1644 85.0411,44.274 77.589,66.6301 77.1507,88.9863 81.0959,97.3151 89.4247,103.8904" stroke="#00a4ff" stroke-width="2" /><polyline fill="none" points="87.2329,30.2466 102.5753,33.3151" stroke="#3fffb7" stroke-width="2" /><polyline fill="none" points="82.411,45.1507 94.2466,45.1507" stroke="#b7ff3f" stroke-width="2" /><polyline fill="none" points="77.1507,61.8082 84.1644,62.2466 93.8082,59.6164" stroke="#ffb900" stroke-width="2" /><polyline fill="none" points="78.4658,74.9589 89.863,72.7671" stroke="#ff3000" stroke-width="2" /><polyline fill="none" points="74.9589,93.3699 83.2877,92.9315" stroke="#7f0000" stroke-width="2" /></svg>