<?xml version="1.0" encoding="utf-8" ?>
<svg baseProfile="tiny" height="128" version="1.2" viewBox="0,0,128,128" width="128" xmlns="http://www.w3.org/2000/svg" xmlns:ev="http://www.w3.org/2001/xml-events" xmlns:xlink="http://www.w3.org/1999/xlink"><defs /><polyline fill="none" points="47.7288,8.678 41.2203,11.7153 22.9966,41.2203" stroke="#00007f" stroke-width="2" /><polyline fill="none" points="40.3525,9.5458 36.4475,17.3559 22.9966,30.3729 17.3559,38.1831 8.678,65.0847 9.5458,93.722 15.1864,100.2305 22.1288,104.1356 29.0712,105.0034 35.1458,108.9085 59.878,118.4542 85.9119,119.322 97.6271,114.5492 112.3797,103.2678 117.1525,91.9864 117.5864,56.8407 114.5492,50.3322 108.9085,45.1254 82.8746,33.4102 72.461,26.9017 64.2169,21.261 51.6339,8.678 45.9932,8.678 41.2203,10.4136" stroke="#00d4ff" stroke-width="2" /><polyline fill="none" points="78.1017,30.8068 79.4034,38.1831 75.4983,62.0475 75.4983,82.4407 78.1017,87.6475 85.0441,90.6847 105.8712,93.722" stroke="#ffe500" stroke-width="2" /><polyline fill="none" points="76.3661,81.139 77.6678,74.1966 85.9119,61.1797 87.6475,70.7254 82.0068,82.8746 72.461,94.5898" stroke="#7f0000" stroke-width="2" /></svg>