<?xml version="1.0" encoding="utf-8" ?>
<svg baseProfile="tiny" height="128" version="1.2" viewBox="0,0,128,128" width="128" xmlns="http://www.w3.org/2000/svg" xmlns:ev="http://www.w3.org/2001/xml-events" xmlns:xlink="http://www.w3.org/1999/xlink"><defs /><polyline fill="none" points="74.6305,8.678 53.3695,11.7153 41.6542,16.0542 29.939,23.8644 24.2983,30.8068 18.6576,44.6915 18.2237,65.5186 20.3932,72.8949 32.1085,85.478 41.2203,91.5525 56.8407,97.6271 81.139,98.4949 99.3627,88.9492 106.739,82.8746 115.8508,68.9898 117.1525,49.8983 114.1153,36.8814 102.4,22.9966 91.5525,14.3186 87.2136,13.0169 75.4983,12.1492" stroke="#00007f" stroke-width="2" /><polyline fill="none" points="74.1966,10.8475 63.3492,26.4678 61.1797,33.8441 55.539,59.4441 52.5017,86.3458" stroke="#004cff" stroke-width="2" /><polyline fill="none" points="82.8746,14.3186 62.4814,48.1627 55.9729,68.5559 53.3695,81.139 53.3695,88.5153" stroke="#29ffcd" stroke-width="2" /><polyline fill="none" points="8.678,51.2 13.8847,49.0305 114.9831,47.2949" stroke="#cdff29" stroke-width="2" /><polyline fill="none" points="9.9797,48.1627 80.7051,55.539 119.322,54.6712" stroke="#ff6700" stroke-width="2" /><polyline fill="none" points="104.1356,18.6576 88.5153,44.6915 75.4983,73.3288 65.5186,90.6847" stroke="#7f0000" stroke-width="2" /></svg>