<?xml version="1.0" encoding="utf-8" ?>
<svg baseProfile="tiny" height="128" version="1.2" viewBox="0,0,128,128" width="128" xmlns="http://www.w3.org/2000/svg" xmlns:ev="http://www.w3.org/2001/xml-events" xmlns:xlink="http://www.w3.org/1999/xlink"><defs /><polyline fill="none" points="62.4814,13.4508 36.0136,13.4508 24.7322,17.3559 17.3559,24.7322 13.0169,32.1085 8.678,45.9932 8.678,66.8203 12.1492,78.5356 16.922,87.6475 29.0712,102.4 37.7492,111.078 45.1254,113.6814 91.5525,113.2475 98.4949,107.6068 102.4,101.9661 105.0034,79.4034 105.0034,64.2169 101.5322,53.8034 97.1932,45.9932 85.0441,34.278 71.1593,15.1864 64.2169,11.2814 48.5966,9.5458" stroke="#00007f" stroke-width="2" /><polyline fill="none" points="48.5966,8.678 45.1254,19.0915 33.8441,40.3525 9.5458,63.3492" stroke="#0080ff" stroke-width="2" /><polyline fill="none" points="100.2305,59.878 92.4203,78.5356 72.461,106.3051 68.122,119.322" stroke="#7cff79" stroke-width="2" /><polyline fill="none" points="84.1763,39.9186 51.2,66.3864 22.1288,81.5729" stroke="#ff9400" stroke-width="2" /><polyline fill="none" points="43.8237,18.2237 47.7288,23.8644 60.7458,49.0305 75.4983,58.1424 88.9492,71.5932" stroke="#7f0000" stroke-width="2" /></svg>