<?xml version="1.0" encoding="utf-8" ?>
<svg baseProfile="tiny" height="128" version="1.2" viewBox="0,0,128,128" width="128" xmlns="http://www.w3.org/2000/svg" xmlns:ev="http://www.w3.org/2001/xml-events" xmlns:xlink="http://www.w3.org/1999/xlink"><defs /><polyline fill="none" points="65.9525,108.0407 57.7085,108.4746 46.861,105.8712 31.2407,98.061 22.1288,91.5525 12.1492,79.4034 9.5458,72.0271 8.678,62.9153 11.2814,51.2 16.922,39.9186 26.0339,28.2034 36.4475,19.9593 48.1627,13.4508 59.4441,9.5458 70.7254,8.678 80.2712,10.8475 88.9492,15.1864 96.3254,22.1288 100.6644,32.1085 105.0034,57.2746 104.1356,70.2915 101.5322,83.7424 97.1932,94.1559 91.5525,103.7017 85.478,110.6441 78.1017,115.8508 64.2169,119.322 56.4068,118.8881 48.1627,117.5864 36.4475,109.3424" stroke="#00007f" stroke-width="2" /><polyline fill="none" points="85.478,9.9797 69.8576,54.6712 64.6508,75.4983 63.7831,101.0983 68.5559,114.1153" stroke="#0080ff" stroke-width="2" /><polyline fill="none" points="67.2542,22.5627 78.5356,25.1661 85.9119,28.2034" stroke="#7cff79" stroke-width="2" /><polyline fill="none" points="59.878,57.7085 69.4237,56.8407 79.8373,58.5763" stroke="#ff9400" stroke-width="2" /><polyline fill="none" points="51.2,80.7051 68.9898,80.2712 80.7051,82.0068" stroke="#7f0000" stroke-width="2" /></svg>