<?xml version="1.0" encoding="utf-8" ?>
<svg baseProfile="tiny" height="128" version="1.2" viewBox="0,0,128,128" width="128" xmlns="http://www.w3.org/2000/svg" xmlns:ev="http://www.w3.org/2001/xml-events" xmlns:xlink="http://www.w3.org/1999/xlink"><defs /><polyline fill="none" points="56.8407,11.7153 41.2203,9.1119 32.9763,9.5458 19.0915,18.6576 10.8475,32.9763 8.678,42.0881 8.678,53.3695 9.9797,59.4441 16.4881,70.2915 23.8644,78.1017 40.3525,88.9492 63.7831,98.061 76.3661,99.7966 88.9492,99.3627 103.7017,95.4576 111.9458,90.6847 116.2847,85.0441 118.8881,77.2339 119.322,65.0847 118.0203,54.6712 108.9085,32.9763 104.5695,25.1661 97.6271,18.2237 91.5525,16.0542 52.0678,16.0542 48.5966,14.3186 46.861,9.5458" stroke="#00007f" stroke-width="2" /><polyline fill="none" points="44.2576,8.678 39.4847,22.9966 34.7119,48.5966 34.7119,67.6881 40.3525,85.9119" stroke="#7cff79" stroke-width="2" /><polyline fill="none" points="40.3525,85.9119 40.7864,86.7797" stroke="#7f0000" stroke-width="2" /></svg>