<?xml version="1.0" encoding="utf-8" ?>
<svg baseProfile="tiny" height="128" version="1.2" viewBox="0,0,128,128" width="128" xmlns="http://www.w3.org/2000/svg" xmlns:ev="http://www.w3.org/2001/xml-events" xmlns:xlink="http://www.w3.org/1999/xlink"><defs /><polyline fill="none" points="72.7075,16.5442 69.6599,12.6259 63.1293,9.5782 52.6803,8.7075 39.1837,14.3673 30.9116,19.5918 17.8503,33.5238 10.0136,49.1973 8.7075,65.7415 10.449,74.449 14.8027,81.8503 20.4626,88.381 35.7007,97.5238 44.8435,100.5714 72.2721,100.5714 90.9932,93.1701 99.7007,87.5102 113.1973,72.7075 117.1156,64.8707 119.2925,57.4694 119.2925,42.2313 112.7619,28.2993 107.9728,21.7687 101.4422,17.415 95.7823,13.932 88.8163,12.6259 83.1565,12.1905 74.8844,14.3673" stroke="#00007f" stroke-width="2" /><polyline fill="none" points="32.6531,21.7687 35.7007,21.7687 42.6667,26.9932 46.585,32.6531 48.3265,39.1837 47.4558,54.8571 39.1837,77.4966 34.8299,84.4626" stroke="#004cff" stroke-width="2" /><polyline fill="none" points="75.7551,13.0612 77.4966,14.8027 77.4966,21.7687 68.7891,50.068 67.9184,64.0 68.3537,70.966 70.5306,77.4966 74.0136,83.5918 78.3673,87.9456" stroke="#29ffcd" stroke-width="2" /><polyline fill="none" points="72.2721,27.8639 75.7551,35.2653 77.4966,34.8299 80.9796,27.4286" stroke="#cdff29" stroke-width="2" /><polyline fill="none" points="70.5306,36.1361 71.8367,41.7959 73.5782,42.6667 81.415,36.5714" stroke="#ff6700" stroke-width="2" /><polyline fill="none" points="66.1769,44.4082 66.1769,47.0204 70.0952,55.2925 73.5782,55.2925 80.5442,50.5034" stroke="#7f0000" stroke-width="2" /></svg>