<?xml version="1.0" encoding="utf-8" ?>
<svg baseProfile="tiny" height="128" version="1.2" viewBox="0,0,128,128" width="128" xmlns="http://www.w3.org/2000/svg" xmlns:ev="http://www.w3.org/2001/xml-events" xmlns:xlink="http://www.w3.org/1999/xlink"><defs /><polyline fill="none" points="59.4441,11.7153 47.2949,13.4508 27.7695,19.0915 14.7525,48.1627 8.678,68.5559 9.5458,81.5729 13.8847,94.1559 16.922,98.9288 33.8441,112.3797 50.3322,119.322 78.5356,119.322 91.1186,114.9831 102.4,108.9085 114.1153,93.722 115.4169,75.9322 115.4169,50.3322 107.6068,34.278 95.8915,23.8644 83.7424,16.922 71.5932,12.5831 56.4068,10.8475" stroke="#00007f" stroke-width="2" /><polyline fill="none" points="53.3695,8.678 48.5966,16.4881 47.2949,32.1085 44.2576,42.0881 43.3898,50.3322 43.3898,78.9695 46.4271,90.6847" stroke="#7cff79" stroke-width="2" /><polyline fill="none" points="85.0441,13.8847 78.5356,31.6746 78.5356,51.2 82.0068,69.8576" stroke="#7f0000" stroke-width="2" /></svg>