<?xml version="1.0" encoding="utf-8" ?>
<svg baseProfile="tiny" height="128" version="1.2" viewBox="0,0,128,128" width="128" xmlns="http://www.w3.org/2000/svg" xmlns:ev="http://www.w3.org/2001/xml-events" xmlns:xlink="http://www.w3.org/1999/xlink"><defs /><polyline fill="none" points="103.5358,22.7167 103.099,19.6587 100.041,14.8532 95.6724,11.7952 86.9352,8.7372 65.9659,8.7372 45.8703,13.1058 34.5119,17.4744 27.0853,22.2799 15.727,31.8908 8.7372,45.4334 8.7372,58.1024 13.1058,69.0239 17.4744,75.1399 22.2799,79.9454 36.2594,88.2457 47.1809,92.6143 53.2969,93.4881 74.2662,93.0512 91.3038,88.6826 106.157,82.5666 111.3993,78.198 115.7679,70.7713 118.3891,60.7235 119.2628,51.1126 117.5154,42.8123 113.1468,34.5119 104.8464,22.7167 99.1672,18.3481" stroke="#00007f" stroke-width="2" /><polyline fill="none" points="52.4232,16.1638 43.686,28.3959 40.1911,48.0546 39.7543,62.0341 45.4334,95.2355" stroke="#00d4ff" stroke-width="2" /><polyline fill="none" points="86.4983,10.9215 82.1297,49.802 80.8191,93.4881" stroke="#ffe500" stroke-width="2" /><polyline fill="none" points="69.8976,35.3857 81.256,28.8328 86.4983,27.959 89.1195,28.8328" stroke="#7f0000" stroke-width="2" /></svg>