<?xml version="1.0" encoding="utf-8" ?>
<svg baseProfile="tiny" height="128" version="1.2" viewBox="0,0,128,128" width="128" xmlns="http://www.w3.org/2000/svg" xmlns:ev="http://www.w3.org/2001/xml-events" xmlns:xlink="http://www.w3.org/1999/xlink"><defs /><polyline fill="none" points="80.2712,17.7898 75.4983,11.7153 65.5186,11.2814 51.2,14.7525 41.2203,19.9593 30.8068,26.4678 22.1288,35.5797 15.6203,45.1254 10.8475,56.4068 8.678,68.122 8.678,84.1763 11.2814,93.722 16.4881,103.7017 22.9966,112.3797 27.3356,115.4169 36.0136,118.4542 45.9932,119.322 56.8407,116.7186 77.6678,105.4373 89.3831,93.722 102.8339,74.1966 106.3051,61.1797 106.739,45.5593 102.4,32.1085 93.2881,17.3559" stroke="#00007f" stroke-width="2" /><polyline fill="none" points="29.0712,116.2847 27.3356,111.078 27.3356,106.739 34.7119,79.4034 42.522,65.9525 51.2,59.0102 57.2746,57.7085 66.3864,58.1424 81.139,68.5559 85.0441,75.0644 85.0441,96.3254 85.9119,98.4949 86.3458,95.4576" stroke="#00d4ff" stroke-width="2" /><polyline fill="none" points="11.7153,57.7085 45.5593,59.4441 63.7831,58.1424 81.139,53.3695 90.6847,47.7288 101.9661,36.0136 110.6441,22.5627 113.2475,8.678" stroke="#ffe500" stroke-width="2" /><polyline fill="none" points="22.5627,59.878 18.6576,54.2373 17.7898,41.2203 20.3932,34.7119 24.7322,29.0712 34.278,19.9593 37.3153,13.4508" stroke="#7f0000" stroke-width="2" /></svg>