<?xml version="1.0" encoding="utf-8" ?>
<svg baseProfile="tiny" height="128" version="1.2" viewBox="0,0,128,128" width="128" xmlns="http://www.w3.org/2000/svg" xmlns:ev="http://www.w3.org/2001/xml-events" xmlns:xlink="http://www.w3.org/1999/xlink"><defs /><polyline fill="none" points="91.5525,24.7322 87.6475,17.3559 84.6102,14.7525 79.4034,11.2814 71.1593,8.678 39.4847,9.5458 26.9017,14.7525 19.9593,19.9593 11.2814,35.1458 8.678,51.2 8.678,71.1593 9.5458,75.4983 15.6203,85.478 24.7322,96.3254 36.8814,104.5695 46.4271,107.1729 69.8576,108.0407 75.0644,106.3051 97.1932,94.1559 107.1729,86.3458 112.8136,79.4034 115.8508,71.5932 119.322,51.6339 119.322,40.7864 116.7186,33.4102 112.3797,26.0339 102.4,16.0542 91.1186,11.2814 78.1017,9.9797" stroke="#00007f" stroke-width="2" /><polyline fill="none" points="73.3288,13.4508 62.0475,18.6576" stroke="#0000f1" stroke-width="2" /><polyline fill="none" points="51.2,26.0339 42.9559,33.8441" stroke="#004cff" stroke-width="2" /><polyline fill="none" points="40.3525,35.5797 40.3525,35.5797" stroke="#00b0ff" stroke-width="2" /><polyline fill="none" points="40.3525,35.5797 23.4305,66.8203" stroke="#29ffcd" stroke-width="2" /><polyline fill="none" points="52.5017,91.1186 53.3695,85.0441 58.5763,76.8" stroke="#7cff79" stroke-width="2" /><polyline fill="none" points="70.7254,67.2542 70.7254,67.2542" stroke="#cdff29" stroke-width="2" /><polyline fill="none" points="84.1763,54.6712 97.1932,47.2949 103.2678,41.2203 105.0034,41.2203" stroke="#ffc400" stroke-width="2" /><polyline fill="none" points="108.4746,38.1831 108.4746,38.1831" stroke="#ff6700" stroke-width="2" /><polyline fill="none" points="71.5932,67.2542 91.5525,60.7458" stroke="#f10700" stroke-width="2" /><polyline fill="none" points="55.1051,84.1763 45.1254,105.0034" stroke="#7f0000" stroke-width="2" /></svg>