<?xml version="1.0" encoding="utf-8" ?>
<svg baseProfile="tiny" height="128" version="1.2" viewBox="0,0,128,128" width="128" xmlns="http://www.w3.org/2000/svg" xmlns:ev="http://www.w3.org/2001/xml-events" xmlns:xlink="http://www.w3.org/1999/xlink"><defs /><polyline fill="none" points="81.5729,23.8644 77.2339,18.6576 71.1593,15.1864 51.6339,8.678 40.3525,9.1119 26.9017,13.8847 18.2237,22.9966 13.0169,33.4102 9.9797,43.8237 8.678,54.6712 9.5458,70.2915 20.8271,93.722 35.1458,107.1729 43.3898,108.0407 69.8576,102.4 77.6678,97.6271 85.478,88.9492 88.5153,74.6305 89.8169,54.2373 83.3085,27.7695 79.4034,22.9966" stroke="#00007f" stroke-width="2" /><polyline fill="none" points="26.9017,16.922 40.3525,36.4475 42.522,42.9559 43.8237,53.8034 43.8237,71.5932 41.6542,90.2508 39.0508,101.5322 32.1085,119.322" stroke="#7cff79" stroke-width="2" /><polyline fill="none" points="78.9695,19.9593 78.9695,19.9593" stroke="#7f0000" stroke-width="2" /></svg>