<?xml version="1.0" encoding="utf-8" ?>
<svg baseProfile="tiny" height="128" version="1.2" viewBox="0,0,128,128" width="128" xmlns="http://www.w3.org/2000/svg" xmlns:ev="http://www.w3.org/2001/xml-events" xmlns:xlink="http://www.w3.org/1999/xlink"><defs /><polyline fill="none" points="95.4576,27.7695 95.0237,25.6 80.7051,14.7525 72.461,10.4136 65.0847,8.678 52.5017,9.5458 42.0881,13.0169 33.4102,18.6576 21.261,30.8068 12.5831,44.6915 8.678,62.0475 9.9797,76.3661 12.1492,84.6102 26.9017,101.9661 39.0508,108.4746 61.6136,113.6814 77.2339,114.1153 90.6847,111.9458 100.2305,108.0407 109.3424,101.0983 114.1153,94.5898 118.4542,82.4407 119.322,74.6305 117.5864,62.9153 111.5119,45.5593 102.4,32.5424 98.4949,30.3729 96.7593,30.8068" stroke="#00007f" stroke-width="2" /><polyline fill="none" points="100.2305,34.7119 96.3254,37.3153 86.7797,49.0305 77.6678,64.6508 72.8949,75.9322 70.2915,84.1763 68.5559,102.4 68.9898,110.6441 71.5932,114.9831" stroke="#0028ff" stroke-width="2" /><polyline fill="none" points="61.6136,13.4508 62.4814,16.922 61.1797,20.3932 49.8983,45.1254 43.3898,54.2373 34.7119,66.3864 28.2034,72.8949 19.5254,78.9695 13.0169,81.139" stroke="#00d4ff" stroke-width="2" /><polyline fill="none" points="55.539,20.8271 62.9153,23.8644" stroke="#7cff79" stroke-width="2" /><polyline fill="none" points="52.9356,29.5051 57.7085,31.2407" stroke="#ffe500" stroke-width="2" /><polyline fill="none" points="50.7661,36.4475 53.3695,39.9186" stroke="#ff4600" stroke-width="2" /><polyline fill="none" points="45.1254,46.4271 49.0305,52.0678" stroke="#7f0000" stroke-width="2" /></svg>