<?xml version="1.0" encoding="utf-8" ?>
<svg baseProfile="tiny" height="128" version="1.2" viewBox="0,0,128,128" width="128" xmlns="http://www.w3.org/2000/svg" xmlns:ev="http://www.w3.org/2001/xml-events" xmlns:xlink="http://www.w3.org/1999/xlink"><defs /><polyline fill="none" points="49.0305,14.3186 44.2576,13.8847 38.6169,16.4881 26.9017,26.4678 13.8847,44.6915 8.678,68.9898 8.678,85.478 11.2814,102.4 13.4508,108.0407 24.7322,117.5864 39.4847,119.322 58.5763,117.1525 70.7254,111.078 74.1966,106.739 85.9119,85.478 88.5153,62.9153 88.5153,45.1254 85.9119,36.8814 78.5356,27.3356 77.2339,22.9966 60.3119,11.2814 52.9356,8.678" stroke="#00007f" stroke-width="2" /><polyline fill="none" points="36.8814,22.1288 53.3695,22.5627 56.4068,23.8644 58.5763,27.3356 59.878,37.3153 53.3695,43.3898 49.0305,53.8034 47.7288,74.6305 53.8034,92.4203 69.8576,106.739 71.1593,110.2102" stroke="#7cff79" stroke-width="2" /><polyline fill="none" points="12.5831,82.8746 13.8847,79.8373 17.3559,77.2339 29.0712,72.461 57.2746,72.0271 64.6508,69.4237 72.0271,58.5763" stroke="#7f0000" stroke-width="2" /></svg>