<?xml version="1.0" encoding="utf-8" ?>
<svg baseProfile="tiny" height="128" version="1.2" viewBox="0,0,128,128" width="128" xmlns="http://www.w3.org/2000/svg" xmlns:ev="http://www.w3.org/2001/xml-events" xmlns:xlink="http://www.w3.org/1999/xlink"><defs /><polyline fill="none" points="52.9356,8.678 38.6169,9.5458 30.8068,14.3186 24.7322,20.8271 18.6576,32.5424 13.0169,60.7458" stroke="#00007f" stroke-width="2" /><polyline fill="none" points="29.939,102.8339 42.0881,108.9085 60.7458,112.3797 68.122,111.9458 86.7797,105.4373 101.5322,95.4576 108.9085,82.4407 111.078,70.2915 106.739,54.6712 100.2305,42.522 91.1186,32.5424 71.5932,17.7898 54.6712,10.8475 44.2576,9.1119 33.4102,10.4136 22.5627,16.0542 13.0169,28.2034 9.9797,37.7492 8.678,52.9356 9.5458,62.9153 13.0169,75.9322 17.7898,87.2136 24.7322,96.3254 34.278,101.5322 43.3898,103.2678 55.539,100.6644 82.4407,85.9119 96.7593,74.1966 103.2678,66.3864 106.3051,57.7085 107.1729,51.2 105.0034,39.4847 101.9661,34.7119 95.4576,27.3356 84.6102,18.2237 58.5763,9.9797 43.8237,11.2814 30.8068,16.4881 19.9593,27.3356 16.922,36.8814 16.0542,52.5017 18.2237,64.6508 24.7322,76.8 32.9763,86.7797 50.3322,96.7593 72.8949,98.061 88.5153,93.722 101.9661,85.9119 111.078,78.1017 117.5864,68.5559 119.322,56.4068 115.8508,47.7288" stroke="#0000de" stroke-width="2" /><polyline fill="none" points="24.2983,12.5831 25.6,15.6203 36.0136,25.6 42.522,33.8441 46.4271,43.3898 47.7288,53.3695 46.4271,61.6136 37.7492,77.2339 26.4678,88.5153" stroke="#0028ff" stroke-width="2" /><polyline fill="none" points="90.6847,15.1864 87.2136,16.4881 79.8373,23.4305 70.7254,36.8814 68.9898,45.9932 69.4237,64.6508 77.6678,85.478 82.8746,93.722" stroke="#0080ff" stroke-width="2" /><polyline fill="none" points="40.3525,20.3932 34.278,22.1288 32.5424,24.7322" stroke="#00d4ff" stroke-width="2" /><polyline fill="none" points="46.4271,22.1288 40.7864,29.5051" stroke="#36ffc0" stroke-width="2" /><polyline fill="none" points="46.4271,40.3525 42.9559,46.4271" stroke="#7cff79" stroke-width="2" /><polyline fill="none" points="46.4271,51.6339 45.1254,52.5017" stroke="#c0ff36" stroke-width="2" /><polyline fill="none" points="39.9186,52.5017 51.6339,61.1797" stroke="#ffe500" stroke-width="2" /><polyline fill="none" points="37.3153,68.122 41.6542,72.8949" stroke="#ff9400" stroke-width="2" /><polyline fill="none" points="31.2407,72.461 32.9763,75.0644" stroke="#ff4600" stroke-width="2" /><polyline fill="none" points="30.8068,79.8373 35.1458,83.3085" stroke="#de0000" stroke-width="2" /><polyline fill="none" points="72.461,17.3559 71.5932,21.261 73.7627,26.0339" stroke="#7f0000" stroke-width="2" /></svg>