<?xml version="1.0" encoding="utf-8" ?>
<svg baseProfile="tiny" height="128" version="1.2" viewBox="0,0,128,128" width="128" xmlns="http://www.w3.org/2000/svg" xmlns:ev="http://www.w3.org/2001/xml-events" xmlns:xlink="http://www.w3.org/1999/xlink"><defs /><polyline fill="none" points="76.8,8.678 38.6169,8.678 31.6746,13.0169 22.1288,22.5627 15.6203,32.1085 12.5831,39.0508 9.9797,48.5966 9.9797,78.5356 25.1661,109.7763 32.1085,113.6814 41.2203,113.6814 64.6508,113.6814 94.5898,108.4746 101.9661,105.4373 108.4746,101.5322 112.3797,93.2881 119.322,72.8949 119.322,41.6542 102.8339,32.1085 97.6271,25.1661 94.5898,18.2237 88.0814,13.0169 68.9898,8.678" stroke="#00007f" stroke-width="2" /><polyline fill="none" points="33.4102,20.8271 33.4102,57.7085 30.3729,72.8949 29.0712,93.2881" stroke="#0080ff" stroke-width="2" /><polyline fill="none" points="55.1051,18.2237 55.1051,32.9763 56.4068,40.3525 56.4068,104.1356" stroke="#7cff79" stroke-width="2" /><polyline fill="none" points="89.3831,29.0712 89.3831,52.5017 82.4407,89.3831" stroke="#ff9400" stroke-width="2" /><polyline fill="none" points="8.678,51.2 14.3186,59.4441 23.8644,64.6508 38.6169,68.5559 53.8034,70.2915 97.1932,70.2915 104.5695,67.2542 107.1729,64.6508" stroke="#7f0000" stroke-width="2" /></svg>