<?xml version="1.0" encoding="utf-8" ?>
<svg baseProfile="tiny" height="128" version="1.2" viewBox="0,0,128,128" width="128" xmlns="http://www.w3.org/2000/svg" xmlns:ev="http://www.w3.org/2001/xml-events" xmlns:xlink="http://www.w3.org/1999/xlink"><defs /><polyline fill="none" points="101.0068,21.3333 90.5578,16.5442 75.3197,12.6259 61.8231,12.1905 47.4558,15.2381 38.7483,19.5918 30.0408,25.6871 21.7687,34.8299 15.2381,44.4082 10.449,54.4218 8.7075,64.0 8.7075,72.7075 11.7551,81.415 16.9796,88.381 23.5102,94.0408 33.5238,99.7007 43.9728,103.619 67.483,108.4082 87.0748,108.4082 93.6054,106.2313 99.2653,102.3129 105.3605,95.7823 111.4558,85.3333 116.6803,73.5782 119.2925,60.9524 119.2925,40.0544 117.551,31.3469 111.4558,18.2857 102.7483,8.7075" stroke="#00007f" stroke-width="2" /><polyline fill="none" points="36.5714,17.415 51.3741,24.381 56.5986,29.6054 64.4354,44.4082 65.7415,53.1156 65.3061,69.2245 57.9048,85.7687 49.1973,96.2177 37.8776,101.8776" stroke="#0028ff" stroke-width="2" /><polyline fill="none" points="116.2449,21.3333 105.7959,23.9456 93.6054,33.0884 86.6395,43.102 82.2857,53.551 78.8027,69.2245 79.6735,81.415 86.2041,96.2177 93.6054,102.7483 110.585,109.7143" stroke="#00d4ff" stroke-width="2" /><polyline fill="none" points="89.2517,29.1701 106.6667,43.9728" stroke="#7cff79" stroke-width="2" /><polyline fill="none" points="76.6259,48.3265 91.8639,59.2109" stroke="#ffe500" stroke-width="2" /><polyline fill="none" points="75.3197,77.4966 91.4286,76.6259" stroke="#ff4600" stroke-width="2" /><polyline fill="none" points="83.5918,97.0884 96.6531,89.2517" stroke="#7f0000" stroke-width="2" /></svg>