<?xml version="1.0" encoding="utf-8" ?>
<svg baseProfile="tiny" height="128" version="1.2" viewBox="0,0,128,128" width="128" xmlns="http://www.w3.org/2000/svg" xmlns:ev="http://www.w3.org/2001/xml-events" xmlns:xlink="http://www.w3.org/1999/xlink"><defs /><polyline fill="none" points="74.1966,8.678 45.5593,8.678 34.7119,13.8847 19.0915,23.8644 11.7153,31.6746 9.5458,36.0136 8.678,68.122 9.9797,74.1966 13.8847,81.5729 19.9593,87.2136 38.1831,95.0237 57.7085,98.4949 95.8915,98.4949 101.5322,96.3254 107.1729,90.6847 115.4169,76.8 119.322,62.4814 119.322,45.5593 116.2847,39.9186 90.6847,11.2814 82.8746,8.678 66.8203,9.5458" stroke="#00007f" stroke-width="2" /><polyline fill="none" points="21.6949,21.261 26.9017,21.6949 37.3153,29.939 46.4271,51.6339 47.7288,82.4407 44.2576,92.4203" stroke="#7cff79" stroke-width="2" /><polyline fill="none" points="93.722,16.922 96.7593,40.7864 96.7593,55.1051" stroke="#7f0000" stroke-width="2" /></svg>