<?xml version="1.0" encoding="utf-8" ?>
<svg baseProfile="tiny" height="128" version="1.2" viewBox="0,0,128,128" width="128" xmlns="http://www.w3.org/2000/svg" xmlns:ev="http://www.w3.org/2001/xml-events" xmlns:xlink="http://www.w3.org/1999/xlink"><defs /><polyline fill="none" points="63.3492,10.4136 47.2949,10.4136 34.7119,15.6203 26.0339,21.261 16.922,32.5424 11.2814,51.6339 8.678,76.3661 9.5458,98.9288 15.1864,107.6068 19.9593,111.9458 29.0712,115.4169 47.2949,119.322 71.5932,119.322 82.8746,113.2475 88.5153,107.6068 95.8915,95.4576 100.6644,82.8746 103.7017,71.1593 103.7017,54.2373 99.3627,45.9932 83.7424,29.939 45.1254,8.678" stroke="#00007f" stroke-width="2" /><polyline fill="none" points="75.4983,24.7322 72.0271,25.6 66.3864,29.0712 61.1797,34.278 56.4068,43.8237 52.9356,59.4441 52.9356,85.0441 54.6712,91.5525 60.3119,101.5322 70.2915,113.2475" stroke="#7cff79" stroke-width="2" /><polyline fill="none" points="22.5627,32.1085 32.5424,41.2203 45.1254,60.7458 45.9932,66.8203 45.5593,83.3085 29.939,112.8136" stroke="#7f0000" stroke-width="2" /></svg>