<?xml version="1.0" encoding="utf-8" ?>
<svg baseProfile="tiny" height="128" version="1.2" viewBox="0,0,128,128" width="128" xmlns="http://www.w3.org/2000/svg" xmlns:ev="http://www.w3.org/2001/xml-events" xmlns:xlink="http://www.w3.org/1999/xlink"><defs /><polyline fill="none" points="72.461,8.678 64.6508,8.678 48.1627,15.1864 30.3729,26.9017 18.6576,37.3153 12.1492,47.2949 9.1119,56.4068 8.678,65.9525 11.2814,83.3085 18.6576,95.0237 27.3356,101.5322 56.8407,110.2102 70.7254,108.9085 81.5729,105.4373 106.3051,82.4407 115.8508,64.6508 119.322,50.7661 116.7186,32.5424 111.9458,25.6 103.7017,16.4881 85.9119,12.1492 62.0475,11.7153" stroke="#00007f" stroke-width="2" /><polyline fill="none" points="97.1932,27.7695 87.2136,29.5051 81.5729,34.7119 75.4983,46.861 71.5932,60.3119 70.7254,84.6102 72.461,90.6847 78.9695,100.2305 85.9119,106.3051 91.9864,107.1729" stroke="#0000ff" stroke-width="2" /><polyline fill="none" points="27.7695,29.5051 32.5424,30.8068 41.2203,39.4847 43.8237,45.5593 46.861,63.3492 46.861,73.3288 45.1254,81.139 35.1458,103.7017 32.9763,106.739 27.7695,109.3424" stroke="#0080ff" stroke-width="2" /><polyline fill="none" points="30.3729,51.6339 45.5593,39.0508" stroke="#15ffe1" stroke-width="2" /><polyline fill="none" points="28.6373,70.7254 46.4271,68.9898" stroke="#7cff79" stroke-width="2" /><polyline fill="none" points="29.5051,88.9492 42.522,88.9492" stroke="#e4ff12" stroke-width="2" /><polyline fill="none" points="26.0339,98.9288 29.939,98.9288" stroke="#ff9400" stroke-width="2" /><polyline fill="none" points="70.7254,29.939 88.5153,43.8237" stroke="#ff1d00" stroke-width="2" /><polyline fill="none" points="59.0102,48.5966 67.6881,52.5017" stroke="#7f0000" stroke-width="2" /></svg>