<?xml version="1.0" encoding="utf-8" ?>
<svg baseProfile="tiny" height="128" version="1.2" viewBox="0,0,128,128" width="128" xmlns="http://www.w3.org/2000/svg" xmlns:ev="http://www.w3.org/2001/xml-events" xmlns:xlink="http://www.w3.org/1999/xlink"><defs /><polyline fill="none" points="40.7864,9.5458 26.9017,19.9593 13.8847,36.4475 8.678,49.4644 9.5458,65.9525 13.8847,82.8746 22.5627,101.0983 38.1831,108.0407 49.4644,109.7763 59.4441,110.6441 85.9119,109.7763 106.3051,101.5322 117.5864,92.8542 119.322,86.3458 119.322,66.3864 114.1153,46.861 108.0407,32.9763 99.3627,26.0339 92.4203,21.6949 66.8203,13.0169 51.2,9.5458 31.2407,8.678" stroke="#00007f" stroke-width="2" /><polyline fill="none" points="27.7695,22.5627 36.4475,36.4475 41.6542,49.4644 42.522,58.5763 41.6542,84.6102 39.9186,92.4203 32.1085,108.9085" stroke="#7cff79" stroke-width="2" /><polyline fill="none" points="85.478,20.8271 77.6678,42.522 73.3288,60.3119 73.3288,69.8576 77.6678,83.7424 80.2712,88.9492 84.6102,93.2881" stroke="#7f0000" stroke-width="2" /></svg>