<?xml version="1.0" encoding="utf-8" ?>
<svg baseProfile="tiny" height="128" version="1.2" viewBox="0,0,128,128" width="128" xmlns="http://www.w3.org/2000/svg" xmlns:ev="http://www.w3.org/2001/xml-events" xmlns:xlink="http://www.w3.org/1999/xlink"><defs /><polyline fill="none" points="76.8,12.1492 52.9356,11.7153 35.1458,16.4881 26.4678,21.261 22.5627,25.1661 16.4881,36.8814 14.7525,45.5593 14.7525,52.9356 17.7898,57.7085 21.6949,61.6136 31.2407,66.8203 40.7864,68.9898 59.4441,69.8576 77.6678,65.9525 97.6271,56.8407 112.8136,46.4271 118.8881,37.7492 119.322,29.939 118.4542,27.7695 85.9119,13.8847 70.2915,13.0169" stroke="#00007f" stroke-width="2" /><polyline fill="none" points="59.4441,15.1864 64.6508,18.6576 67.2542,23.8644 67.2542,29.5051 64.6508,35.1458 60.7458,37.7492 38.1831,42.0881 34.7119,46.861 34.7119,49.0305 39.9186,58.5763 43.3898,69.4237" stroke="#004cff" stroke-width="2" /><polyline fill="none" points="60.3119,69.4237 50.7661,61.6136 48.5966,56.8407 48.1627,52.0678 51.2,49.8983 72.0271,44.6915 76.3661,41.6542 76.8,35.5797 75.0644,28.2034 66.3864,14.3186" stroke="#29ffcd" stroke-width="2" /><polyline fill="none" points="84.1763,17.7898 89.3831,20.3932" stroke="#cdff29" stroke-width="2" /><polyline fill="none" points="55.1051,17.3559 51.2,22.5627 44.2576,28.2034 42.522,32.1085" stroke="#ff6700" stroke-width="2" /><polyline fill="none" points="72.0271,8.678 77.6678,8.678 81.139,10.4136 91.5525,18.2237 95.8915,25.1661 96.3254,42.9559 94.5898,49.4644 91.5525,54.6712 89.3831,55.9729 59.4441,62.4814 24.7322,64.2169 16.922,60.7458 11.2814,54.2373 8.678,46.861 9.5458,36.8814 14.3186,32.1085 19.5254,29.5051 27.3356,27.7695 40.3525,27.7695 52.9356,33.8441 56.8407,39.4847 57.2746,42.522" stroke="#7f0000" stroke-width="2" /></svg>