<?xml version="1.0" encoding="utf-8" ?>
<svg baseProfile="tiny" height="128" version="1.2" viewBox="0,0,128,128" width="128" xmlns="http://www.w3.org/2000/svg" xmlns:ev="http://www.w3.org/2001/xml-events" xmlns:xlink="http://www.w3.org/1999/xlink"><defs /><polyline fill="none" points="80.2712,18.6576 67.2542,18.6576 20.8271,29.0712 10.8475,41.2203 8.678,53.8034 9.5458,66.3864 13.8847,81.139 19.5254,89.8169 31.6746,94.1559 54.2373,98.4949 64.6508,98.4949 94.1559,91.1186 110.2102,68.9898 111.078,65.0847 119.322,51.6339 116.2847,30.8068 114.5492,25.1661 108.4746,14.7525 100.6644,8.678 85.9119,8.678 78.9695,15.6203" stroke="#00007f" stroke-width="2" /><polyline fill="none" points="30.8068,55.9729 36.0136,56.8407" stroke="#0000d1" stroke-width="2" /><polyline fill="none" points="45.1254,51.2 41.6542,54.2373 45.5593,55.9729 46.861,55.1051" stroke="#0010ff" stroke-width="2" /><polyline fill="none" points="53.8034,49.0305 56.8407,46.861" stroke="#0058ff" stroke-width="2" /><polyline fill="none" points="64.2169,45.9932 64.2169,47.2949" stroke="#00a4ff" stroke-width="2" /><polyline fill="none" points="78.9695,45.9932 79.8373,45.9932" stroke="#05ecf1" stroke-width="2" /><polyline fill="none" points="90.2508,42.9559 88.9492,45.1254" stroke="#3fffb7" stroke-width="2" /><polyline fill="none" points="100.2305,42.0881 98.9288,42.9559" stroke="#7cff79" stroke-width="2" /><polyline fill="none" points="49.8983,82.0068 41.6542,82.4407 44.6915,78.1017 49.0305,77.2339" stroke="#b7ff3f" stroke-width="2" /><polyline fill="none" points="63.7831,78.1017 61.1797,77.2339" stroke="#f1fc05" stroke-width="2" /><polyline fill="none" points="72.8949,75.9322 74.1966,75.0644" stroke="#ffb900" stroke-width="2" /><polyline fill="none" points="83.3085,74.1966 80.2712,73.3288" stroke="#ff7300" stroke-width="2" /><polyline fill="none" points="91.1186,70.2915 90.2508,74.1966 86.7797,75.0644 89.3831,69.8576 95.0237,68.122 99.3627,68.9898" stroke="#ff3000" stroke-width="2" /><polyline fill="none" points="100.2305,66.3864 100.2305,70.2915 97.1932,69.4237" stroke="#d10000" stroke-width="2" /><polyline fill="none" points="103.2678,64.2169 101.0983,65.0847" stroke="#7f0000" stroke-width="2" /></svg>