<?xml version="1.0" encoding="utf-8" ?>
<svg baseProfile="tiny" height="128" version="1.2" viewBox="0,0,128,128" width="128" xmlns="http://www.w3.org/2000/svg" xmlns:ev="http://www.w3.org/2001/xml-events" xmlns:xlink="http://www.w3.org/1999/xlink"><defs /><polyline fill="none" points="64.6508,12.1492 39.4847,18.2237 30.8068,26.0339 21.6949,39.0508 13.4508,56.4068 9.1119,71.1593 8.678,84.1763 10.4136,90.2508 14.3186,95.4576 36.8814,107.6068 50.7661,111.9458 63.3492,114.5492 83.7424,110.6441 103.2678,102.8339 112.3797,95.8915 118.4542,89.3831 119.322,81.139 113.6814,57.2746 99.3627,25.1661 85.0441,13.0169 75.9322,8.678 56.4068,14.7525" stroke="#00007f" stroke-width="2" /><polyline fill="none" points="81.139,12.5831 74.6305,38.6169 72.8949,68.5559 82.8746,92.8542 94.5898,105.4373" stroke="#7cff79" stroke-width="2" /><polyline fill="none" points="52.9356,13.4508 52.9356,13.4508" stroke="#7f0000" stroke-width="2" /></svg>