<?xml version="1.0" encoding="utf-8" ?>
<svg baseProfile="tiny" height="128" version="1.2" viewBox="0,0,128,128" width="128" xmlns="http://www.w3.org/2000/svg" xmlns:ev="http://www.w3.org/2001/xml-events" xmlns:xlink="http://www.w3.org/1999/xlink"><defs /><polyline fill="none" points="23.4305,26.4678 30.3729,21.261 44.2576,15.1864 67.2542,12.5831 78.5356,14.3186 89.3831,18.2237 97.1932,23.4305 103.2678,29.939 107.6068,38.1831 110.2102,46.861 110.6441,57.7085 108.0407,69.4237 100.2305,87.6475 86.7797,101.5322 76.8,108.4746 59.4441,116.7186 46.861,119.322 40.7864,118.4542 27.3356,110.6441 20.8271,104.5695 11.2814,87.6475 8.678,75.9322 8.678,63.3492 9.5458,52.5017 14.7525,36.0136 19.0915,30.3729 46.861,8.678" stroke="#00007f" stroke-width="2" /><polyline fill="none" points="81.139,18.6576 79.8373,39.0508 80.7051,76.3661 82.4407,88.5153 85.478,95.8915" stroke="#0028ff" stroke-width="2" /><polyline fill="none" points="32.9763,24.2983 34.278,45.1254 32.5424,61.1797 25.1661,87.6475 18.6576,100.2305" stroke="#00d4ff" stroke-width="2" /><polyline fill="none" points="25.6,29.5051 29.939,29.0712" stroke="#7cff79" stroke-width="2" /><polyline fill="none" points="24.7322,51.6339 29.0712,52.5017" stroke="#ffe500" stroke-width="2" /><polyline fill="none" points="16.0542,85.0441 27.7695,83.3085" stroke="#ff4600" stroke-width="2" /><polyline fill="none" points="21.6949,102.4 41.6542,96.7593" stroke="#7f0000" stroke-width="2" /></svg>