<?xml version="1.0" encoding="utf-8" ?>
<svg baseProfile="tiny" height="128" version="1.2" viewBox="0,0,128,128" width="128" xmlns="http://www.w3.org/2000/svg" xmlns:ev="http://www.w3.org/2001/xml-events" xmlns:xlink="http://www.w3.org/1999/xlink"><defs /><polyline fill="none" points="22.5627,8.678 15.6203,13.0169 12.1492,17.7898 12.1492,27.3356 15.6203,31.2407 22.5627,32.1085 28.6373,29.5051 32.5424,25.6 36.8814,17.3559 37.3153,13.0169 34.278,11.2814 26.0339,10.8475" stroke="#00007f" stroke-width="2" /><polyline fill="none" points="27.3356,12.1492 24.7322,15.1864 24.2983,29.5051" stroke="#0028ff" stroke-width="2" /><polyline fill="none" points="15.1864,25.1661 25.1661,21.261 37.7492,21.261" stroke="#00d4ff" stroke-width="2" /><polyline fill="none" points="116.2847,77.2339 88.5153,32.5424 76.8,17.7898 68.9898,10.8475 63.3492,8.678 61.1797,10.8475 59.0102,17.3559 59.4441,24.7322 62.4814,30.8068 89.3831,61.1797 106.739,84.6102 111.078,87.2136 116.7186,85.9119 119.322,81.139 118.0203,76.3661 113.6814,72.0271 109.3424,71.1593 103.2678,72.8949 99.3627,78.1017" stroke="#7cff79" stroke-width="2" /><polyline fill="none" points="13.8847,61.6136 10.8475,96.3254 8.678,102.4 13.0169,88.5153 18.6576,82.4407 25.6,79.4034 29.5051,78.9695 34.278,80.7051 36.8814,84.1763 37.3153,90.2508 35.5797,97.6271 31.2407,100.6644 17.7898,101.0983 12.1492,98.4949 11.2814,96.7593 12.1492,95.8915" stroke="#ffe500" stroke-width="2" /><polyline fill="none" points="65.9525,83.7424 47.7288,85.0441 40.7864,88.0814 39.0508,92.4203 40.3525,97.1932 46.4271,102.8339 51.2,104.5695 55.1051,103.2678 63.7831,92.8542 67.2542,79.8373 65.9525,103.7017" stroke="#ff4600" stroke-width="2" /><polyline fill="none" points="83.3085,76.8 80.7051,78.9695 79.8373,83.3085" stroke="#7f0000" stroke-width="2" /></svg>