<?xml version="1.0" encoding="utf-8" ?>
<svg baseProfile="tiny" height="128" version="1.2" viewBox="0,0,128,128" width="128" xmlns="http://www.w3.org/2000/svg" xmlns:ev="http://www.w3.org/2001/xml-events" xmlns:xlink="http://www.w3.org/1999/xlink"><defs /><polyline fill="none" points="96.5461,12.2321 89.1195,8.7372 59.8498,8.7372 41.5017,10.9215 24.901,17.4744 12.6689,32.3276 8.7372,44.5597 10.0478,70.3345 12.2321,77.3242 21.4061,87.8089 32.3276,95.2355 55.9181,103.099 59.8498,103.099 83.8771,95.6724 87.8089,95.6724 99.6041,91.3038 105.2833,84.314 110.5256,72.0819 117.0785,51.9863 119.2628,39.7543 119.2628,23.5904 111.8362,19.2218 93.4881,17.0375" stroke="#00007f" stroke-width="2" /><polyline fill="none" points="77.3242,8.7372 67.7133,18.785 63.3447,35.3857 63.3447,50.6758 64.6553,58.5392 67.7133,65.9659 69.8976,79.5085 74.2662,91.3038 77.3242,94.7986 74.2662,88.2457" stroke="#7cff79" stroke-width="2" /><polyline fill="none" points="25.7747,13.9795 29.2696,17.4744 35.8225,32.3276 43.2491,61.5973 42.8123,70.7713 38.8805,81.6928 33.6382,93.4881 33.2014,89.9932" stroke="#7f0000" stroke-width="2" /></svg>