<?xml version="1.0" encoding="utf-8" ?>
<svg baseProfile="tiny" height="128" version="1.2" viewBox="0,0,128,128" width="128" xmlns="http://www.w3.org/2000/svg" xmlns:ev="http://www.w3.org/2001/xml-events" xmlns:xlink="http://www.w3.org/1999/xlink"><defs /><polyline fill="none" points="98.9288,36.4475 72.461,36.8814 65.5186,39.0508 62.4814,41.2203 60.3119,44.6915 60.7458,49.0305 67.6881,56.8407 76.3661,62.4814 87.2136,63.3492 93.722,59.4441 96.7593,55.9729 98.4949,50.7661 97.6271,41.2203 91.5525,34.7119 89.3831,33.8441" stroke="#00007f" stroke-width="2" /><polyline fill="none" points="69.8576,38.1831 70.7254,42.0881 79.8373,52.5017 85.9119,63.7831" stroke="#0028ff" stroke-width="2" /><polyline fill="none" points="97.1932,41.2203 65.9525,46.4271 63.3492,48.1627" stroke="#00d4ff" stroke-width="2" /><polyline fill="none" points="55.9729,40.7864 63.7831,40.3525 79.4034,42.9559 86.7797,48.1627 95.0237,56.4068" stroke="#7cff79" stroke-width="2" /><polyline fill="none" points="85.0441,33.4102 76.3661,47.2949 67.6881,57.2746" stroke="#ffe500" stroke-width="2" /><polyline fill="none" points="65.5186,8.678 51.2,9.1119 14.3186,21.6949 9.5458,28.2034 8.678,44.2576 19.9593,65.9525 57.2746,93.2881 78.9695,101.9661 93.722,101.5322 106.739,91.5525 115.4169,81.5729 117.1525,74.1966 116.7186,63.3492 111.9458,55.1051 108.9085,52.5017 78.5356,40.3525 61.6136,36.4475 46.4271,35.1458" stroke="#ff4600" stroke-width="2" /><polyline fill="none" points="79.8373,37.7492 69.4237,38.1831 54.2373,42.0881 50.3322,45.5593 48.5966,49.0305 53.3695,52.9356 63.3492,56.8407 74.1966,59.0102 95.4576,59.4441 99.7966,57.2746 103.2678,52.0678 105.0034,42.0881 103.2678,29.0712 97.1932,21.6949 86.7797,13.8847 75.9322,9.9797 59.0102,9.9797 50.3322,12.5831 42.522,18.6576 37.7492,32.1085 37.7492,44.6915 49.0305,62.4814 65.5186,72.461 74.6305,76.3661 94.1559,80.7051 104.1356,80.7051 112.3797,75.0644 119.322,59.4441 118.0203,45.1254 109.7763,33.4102 95.4576,23.4305 83.7424,19.0915 69.4237,17.3559 53.3695,17.3559" stroke="#7f0000" stroke-width="2" /></svg>