<?xml version="1.0" encoding="utf-8" ?>
<svg baseProfile="tiny" height="128" version="1.2" viewBox="0,0,128,128" width="128" xmlns="http://www.w3.org/2000/svg" xmlns:ev="http://www.w3.org/2001/xml-events" xmlns:xlink="http://www.w3.org/1999/xlink"><defs /><polyline fill="none" points="72.7075,20.898 64.0,11.3197 58.7755,8.7075 51.3741,9.1429 44.4082,11.3197 35.7007,18.2857 23.9456,37.0068 14.8027,59.2109 9.1429,85.7687 8.7075,95.7823 12.1905,103.619 18.7211,111.8912 29.1701,117.9864 35.2653,119.2925 57.9048,118.8571 69.6599,114.5034 79.6735,106.2313 84.4626,94.9116 85.3333,81.415 85.3333,52.2449 83.5918,34.3946 81.415,24.8163 77.0612,20.898 71.4014,20.898 70.0952,19.1565 60.0816,30.4762 33.5238,73.5782 10.0136,104.0544" stroke="#00007f" stroke-width="2" /><polyline fill="none" points="16.9796,40.4898 21.3333,42.6667 55.2925,80.9796 67.0476,87.5102 71.8367,93.6054 83.5918,102.3129" stroke="#7f0000" stroke-width="2" /></svg>