<?xml version="1.0" encoding="utf-8" ?>
<svg baseProfile="tiny" height="128" version="1.2" viewBox="0,0,128,128" width="128" xmlns="http://www.w3.org/2000/svg" xmlns:ev="http://www.w3.org/2001/xml-events" xmlns:xlink="http://www.w3.org/1999/xlink"><defs /><polyline fill="none" points="13.4508,24.2983 9.9797,25.1661 8.678,27.3356 9.5458,39.0508 16.4881,47.2949 22.9966,51.2 40.3525,51.2 52.5017,48.1627 58.5763,42.9559 62.0475,36.0136 60.7458,23.8644 55.9729,14.7525 52.0678,10.8475 46.861,9.1119 33.8441,8.678 19.0915,13.4508 12.1492,22.5627 12.1492,29.0712" stroke="#00007f" stroke-width="2" /><polyline fill="none" points="18.2237,12.1492 22.5627,17.3559 27.7695,27.3356 30.3729,37.7492 29.0712,39.4847 29.939,46.861" stroke="#0028ff" stroke-width="2" /><polyline fill="none" points="49.0305,9.9797 45.1254,13.8847 42.0881,26.0339 42.0881,39.9186 45.1254,47.7288" stroke="#00d4ff" stroke-width="2" /><polyline fill="none" points="29.5051,46.4271 29.0712,51.2" stroke="#7cff79" stroke-width="2" /><polyline fill="none" points="40.7864,68.5559 32.5424,76.8 29.0712,87.2136 29.5051,95.8915 35.1458,107.6068 45.5593,117.1525 51.2,118.0203 59.878,118.0203 73.7627,110.6441 83.7424,98.4949 91.1186,81.5729 89.8169,72.8949 85.9119,66.8203 81.5729,62.9153 71.5932,59.878 46.861,59.4441 40.3525,63.3492 38.6169,70.2915" stroke="#ffe500" stroke-width="2" /><polyline fill="none" points="37.7492,66.8203 52.9356,85.0441 57.7085,94.1559 59.878,105.4373 59.0102,119.322" stroke="#ff4600" stroke-width="2" /><polyline fill="none" points="82.8746,65.0847 74.6305,81.5729 78.1017,107.1729 79.8373,111.5119" stroke="#7f0000" stroke-width="2" /></svg>