<?xml version="1.0" encoding="utf-8" ?>
<svg baseProfile="tiny" height="128" version="1.2" viewBox="0,0,128,128" width="128" xmlns="http://www.w3.org/2000/svg" xmlns:ev="http://www.w3.org/2001/xml-events" xmlns:xlink="http://www.w3.org/1999/xlink"><defs /><polyline fill="none" points="95.0237,16.4881 84.1763,10.4136 73.7627,8.678 61.6136,9.1119 46.861,15.6203 32.1085,26.4678 19.9593,40.7864 12.1492,55.9729 8.678,70.7254 9.1119,84.1763 13.8847,95.4576 22.1288,105.0034 35.5797,114.1153 47.2949,118.0203 65.0847,118.8881 82.4407,114.9831 92.4203,110.2102 99.3627,103.7017 108.4746,91.1186 113.6814,80.7051 118.0203,64.2169 118.0203,45.1254 115.8508,36.4475 106.739,21.6949 99.3627,15.1864 97.1932,14.3186 95.4576,15.6203 84.6102,28.6373 80.2712,39.0508 75.9322,56.8407 74.6305,71.5932 74.1966,95.4576 77.6678,109.7763 83.3085,119.322" stroke="#00007f" stroke-width="2" /><polyline fill="none" points="44.6915,13.0169 47.2949,38.1831 47.2949,69.4237 42.9559,95.8915 36.0136,110.6441" stroke="#0010ff" stroke-width="2" /><polyline fill="none" points="76.8,16.4881 81.139,20.8271 90.6847,24.2983" stroke="#00a4ff" stroke-width="2" /><polyline fill="none" points="73.3288,40.7864 84.1763,41.6542" stroke="#3fffb7" stroke-width="2" /><polyline fill="none" points="71.1593,55.1051 81.5729,58.1424" stroke="#b7ff3f" stroke-width="2" /><polyline fill="none" points="66.8203,73.7627 81.139,74.1966" stroke="#ffb900" stroke-width="2" /><polyline fill="none" points="69.4237,90.6847 83.3085,85.478" stroke="#ff3000" stroke-width="2" /><polyline fill="none" points="69.8576,104.5695 84.1763,97.1932" stroke="#7f0000" stroke-width="2" /></svg>