<?xml version="1.0" encoding="utf-8" ?>
<svg baseProfile="tiny" height="128" version="1.2" viewBox="0,0,128,128" width="128" xmlns="http://www.w3.org/2000/svg" xmlns:ev="http://www.w3.org/2001/xml-events" xmlns:xlink="http://www.w3.org/1999/xlink"><defs /><polyline fill="none" points="90.6847,16.0542 84.1763,10.4136 73.3288,8.678 63.7831,10.8475 52.5017,15.6203 31.2407,33.4102 16.0542,56.4068 11.2814,69.4237 9.1119,82.0068 8.678,93.2881 10.4136,102.4 15.1864,109.3424 20.3932,112.8136 38.1831,118.4542 49.8983,119.322 61.6136,118.4542 73.3288,114.9831 83.3085,109.7763 92.4203,103.2678 99.7966,95.0237 105.4373,85.478 109.3424,74.6305 110.6441,63.3492 111.078,52.0678 108.0407,40.3525 103.2678,29.939 96.7593,21.261 89.8169,15.1864 82.0068,10.4136 74.1966,8.678 66.3864,8.678 60.7458,10.4136 57.2746,13.0169 55.539,17.3559" stroke="#00007f" stroke-width="2" /><polyline fill="none" points="49.0305,18.2237 45.9932,18.6576 43.3898,20.8271 33.4102,39.4847 29.5051,52.9356 27.3356,68.5559 28.6373,84.6102 30.8068,91.9864 39.4847,111.078 45.5593,117.5864" stroke="#0010ff" stroke-width="2" /><polyline fill="none" points="86.3458,9.1119 71.1593,56.4068 67.6881,70.7254 66.8203,83.3085 67.2542,89.3831 69.8576,95.4576 84.6102,117.5864" stroke="#00a4ff" stroke-width="2" /><polyline fill="none" points="65.0847,26.9017 86.3458,23.8644" stroke="#3fffb7" stroke-width="2" /><polyline fill="none" points="59.878,57.7085 67.6881,56.4068 81.5729,50.3322" stroke="#b7ff3f" stroke-width="2" /><polyline fill="none" points="60.7458,69.4237 80.2712,62.4814" stroke="#ffb900" stroke-width="2" /><polyline fill="none" points="55.539,91.5525 70.2915,86.7797" stroke="#ff3000" stroke-width="2" /><polyline fill="none" points="68.122,106.3051 83.3085,98.061" stroke="#7f0000" stroke-width="2" /></svg>