<?xml version="1.0" encoding="utf-8" ?>
<svg baseProfile="tiny" height="128" version="1.2" viewBox="0,0,128,128" width="128" xmlns="http://www.w3.org/2000/svg" xmlns:ev="http://www.w3.org/2001/xml-events" xmlns:xlink="http://www.w3.org/1999/xlink"><defs /><polyline fill="none" points="52.5017,8.678 38.1831,9.9797 28.6373,13.8847 23.4305,17.3559 14.7525,29.5051 11.2814,36.4475 8.678,49.4644 8.678,72.0271 22.1288,103.7017 31.6746,114.5492 38.1831,118.4542 55.9729,119.322 69.4237,111.078 80.7051,101.5322 95.8915,81.139 98.9288,65.9525 98.4949,46.4271 91.9864,33.4102 76.8,15.6203 70.2915,11.2814 62.4814,9.9797 50.3322,9.9797 48.5966,13.4508" stroke="#00007f" stroke-width="2" /><polyline fill="none" points="23.4305,20.3932 23.4305,23.8644 37.7492,46.861 55.9729,84.6102 58.1424,96.3254 58.1424,113.2475" stroke="#00d4ff" stroke-width="2" /><polyline fill="none" points="77.6678,9.5458 73.3288,13.0169 64.6508,25.1661 51.2,51.6339 45.9932,68.9898 38.1831,102.4" stroke="#ffe500" stroke-width="2" /><polyline fill="none" points="25.6,103.7017 30.8068,97.6271 41.2203,80.2712 64.2169,38.1831 75.0644,25.6" stroke="#7f0000" stroke-width="2" /></svg>