<?xml version="1.0" encoding="utf-8" ?>
<svg baseProfile="tiny" height="128" version="1.2" viewBox="0,0,128,128" width="128" xmlns="http://www.w3.org/2000/svg" xmlns:ev="http://www.w3.org/2001/xml-events" xmlns:xlink="http://www.w3.org/1999/xlink"><defs /><polyline fill="none" points="91.9864,9.9797 87.2136,8.678 60.3119,9.9797 54.2373,13.0169 46.861,13.0169 33.8441,21.6949 25.1661,32.1085 16.922,49.0305 16.4881,55.1051 14.3186,59.4441 14.3186,82.0068 26.9017,99.7966 36.8814,106.3051 48.5966,111.5119 97.6271,111.9458 106.739,108.9085 114.9831,102.8339 115.8508,86.7797 118.0203,82.0068 119.322,65.9525 119.322,49.4644 118.0203,39.9186 113.6814,34.7119 111.9458,30.3729 97.6271,13.0169 92.4203,13.0169" stroke="#00007f" stroke-width="2" /><polyline fill="none" points="81.139,9.9797 77.6678,18.6576 75.9322,31.6746 71.5932,42.9559 71.5932,50.3322 66.3864,68.5559 62.9153,105.8712 60.3119,111.5119 49.0305,109.3424" stroke="#00d4ff" stroke-width="2" /><polyline fill="none" points="8.678,65.0847 22.5627,70.7254 39.4847,73.7627 56.8407,74.6305 61.1797,76.8 90.6847,76.8 101.0983,79.4034" stroke="#ffe500" stroke-width="2" /><polyline fill="none" points="44.2576,33.4102 49.4644,37.3153 68.5559,65.0847 74.6305,71.1593 81.5729,83.3085 83.7424,89.8169 100.2305,112.3797 103.2678,108.4746 105.0034,92.4203" stroke="#7f0000" stroke-width="2" /></svg>