<?xml version="1.0" encoding="utf-8" ?>
<svg baseProfile="tiny" height="128" version="1.2" viewBox="0,0,128,128" width="128" xmlns="http://www.w3.org/2000/svg" xmlns:ev="http://www.w3.org/2001/xml-events" xmlns:xlink="http://www.w3.org/1999/xlink"><defs /><polyline fill="none" points="69.8576,18.2237 65.5186,14.3186 57.2746,10.8475 45.1254,8.678 31.2407,9.5458 21.6949,24.2983 13.4508,48.1627 8.678,73.7627 8.678,92.4203 9.9797,99.3627 15.6203,110.2102 23.8644,116.7186 29.5051,118.8881 42.9559,119.322 59.0102,115.8508 71.5932,109.3424 79.8373,99.7966 85.9119,77.6678 86.7797,49.0305 84.1763,40.3525 77.2339,29.0712 72.0271,24.7322 57.7085,19.5254" stroke="#00007f" stroke-width="2" /><polyline fill="none" points="59.0102,23.8644 49.4644,39.4847" stroke="#0000de" stroke-width="2" /><polyline fill="none" points="45.5593,55.539 46.4271,68.9898" stroke="#0028ff" stroke-width="2" /><polyline fill="none" points="51.6339,92.8542 54.6712,104.1356" stroke="#0080ff" stroke-width="2" /><polyline fill="none" points="30.3729,14.3186 36.4475,37.7492" stroke="#00d4ff" stroke-width="2" /><polyline fill="none" points="32.9763,57.2746 30.8068,75.0644" stroke="#36ffc0" stroke-width="2" /><polyline fill="none" points="26.9017,101.9661 18.6576,106.3051" stroke="#7cff79" stroke-width="2" /><polyline fill="none" points="47.2949,74.6305 47.7288,85.0441" stroke="#c0ff36" stroke-width="2" /><polyline fill="none" points="26.4678,78.9695 26.0339,88.5153 22.9966,95.0237" stroke="#ffe500" stroke-width="2" /><polyline fill="none" points="36.8814,42.0881 36.4475,55.1051" stroke="#ff9400" stroke-width="2" /><polyline fill="none" points="50.3322,42.522 48.5966,45.5593 48.1627,55.9729" stroke="#ff4600" stroke-width="2" /><polyline fill="none" points="57.2746,110.2102 59.878,114.5492" stroke="#de0000" stroke-width="2" /><polyline fill="none" points="58.1424,19.0915 62.0475,17.3559" stroke="#7f0000" stroke-width="2" /></svg>