<?xml version="1.0" encoding="utf-8" ?>
<svg baseProfile="tiny" height="128" version="1.2" viewBox="0,0,128,128" width="128" xmlns="http://www.w3.org/2000/svg" xmlns:ev="http://www.w3.org/2001/xml-events" xmlns:xlink="http://www.w3.org/1999/xlink"><defs /><polyline fill="none" points="27.8639,24.8163 34.8299,19.1565 47.8912,13.0612 62.6939,9.1429 77.0612,8.7075 83.1565,9.1429 90.1224,12.6259 104.4898,25.6871 112.3265,43.9728 114.068,64.0 107.9728,77.4966 102.3129,85.7687 95.7823,92.7347 82.7211,102.7483 66.6122,107.102 45.2789,106.2313 36.5714,104.0544 24.381,97.9592 14.8027,88.381 8.7075,70.5306 8.7075,45.2789 16.5442,33.5238 21.3333,28.7347" stroke="#00007f" stroke-width="2" /><polyline fill="none" points="18.2857,85.7687 33.5238,75.7551 42.6667,65.3061 52.2449,48.3265 54.4218,39.619 54.4218,13.932" stroke="#0028ff" stroke-width="2" /><polyline fill="none" points="45.2789,34.8299 59.6463,40.4898 70.5306,43.102" stroke="#00d4ff" stroke-width="2" /><polyline fill="none" points="37.4422,56.5986 41.3605,57.9048 55.7279,68.3537 61.3878,70.966" stroke="#7cff79" stroke-width="2" /><polyline fill="none" points="69.2245,106.2313 68.7891,78.3673 69.6599,72.7075 73.5782,62.6939 79.2381,53.1156 89.6871,40.0544 100.1361,30.0408 108.8435,25.2517 119.2925,23.0748" stroke="#ffe500" stroke-width="2" /><polyline fill="none" points="81.8503,38.7483 85.3333,39.619 93.6054,49.1973 99.7007,53.9864" stroke="#ff4600" stroke-width="2" /><polyline fill="none" points="73.1429,58.7755 81.8503,62.6939 86.6395,70.0952" stroke="#7f0000" stroke-width="2" /></svg>