<?xml version="1.0" encoding="utf-8" ?>
<svg baseProfile="tiny" height="128" version="1.2" viewBox="0,0,128,128" width="128" xmlns="http://www.w3.org/2000/svg" xmlns:ev="http://www.w3.org/2001/xml-events" xmlns:xlink="http://www.w3.org/1999/xlink"><defs /><polyline fill="none" points="48.5966,8.678 32.1085,16.922 14.3186,30.3729 12.5831,33.8441 8.678,50.7661 8.678,68.5559 11.7153,85.0441 14.3186,91.5525 22.5627,97.6271 35.1458,101.9661 49.4644,104.5695 71.1593,104.5695 107.1729,91.5525 114.1153,86.3458 118.0203,79.4034 119.322,70.2915 118.4542,63.3492 103.2678,36.0136 97.1932,29.939 89.8169,25.1661 82.4407,22.5627 59.4441,22.1288 56.4068,21.261 49.4644,16.0542 46.861,15.6203" stroke="#00007f" stroke-width="2" /><polyline fill="none" points="49.8983,15.6203 59.4441,39.9186 62.9153,62.0475 60.3119,83.3085 56.8407,95.8915 53.8034,101.9661" stroke="#7cff79" stroke-width="2" /><polyline fill="none" points="79.8373,23.8644 78.1017,47.7288 82.8746,64.6508 90.2508,81.139" stroke="#7f0000" stroke-width="2" /></svg>