<?xml version="1.0" encoding="utf-8" ?>
<svg baseProfile="tiny" height="128" version="1.2" viewBox="0,0,128,128" width="128" xmlns="http://www.w3.org/2000/svg" xmlns:ev="http://www.w3.org/2001/xml-events" xmlns:xlink="http://www.w3.org/1999/xlink"><defs /><polyline fill="none" points="93.722,16.0542 86.7797,11.7153 77.2339,9.1119 64.2169,9.5458 56.8407,11.7153 48.5966,15.1864 32.5424,26.9017 24.7322,34.7119 15.1864,50.7661 11.2814,65.9525 12.5831,74.1966 19.0915,88.5153 24.7322,95.8915 40.3525,110.6441 54.2373,118.4542 59.0102,119.322 70.2915,115.8508 98.9288,99.3627 109.3424,88.5153 115.8508,75.9322 116.7186,62.9153 114.1153,51.2 100.6644,19.0915 94.5898,13.4508" stroke="#00007f" stroke-width="2" /><polyline fill="none" points="73.7627,8.678 73.7627,19.0915 72.0271,26.9017 68.9898,32.9763 60.7458,42.522 49.8983,51.2 33.8441,59.4441 24.2983,62.0475 17.3559,61.1797" stroke="#0080ff" stroke-width="2" /><polyline fill="none" points="110.2102,36.0136 106.3051,37.3153 94.1559,47.7288 78.9695,68.5559 73.3288,81.139 69.8576,92.8542 67.2542,107.1729 67.2542,113.2475" stroke="#7cff79" stroke-width="2" /><polyline fill="none" points="74.1966,111.078 73.3288,106.739 77.2339,88.9492 87.2136,63.7831 96.3254,56.4068 108.9085,51.6339" stroke="#ff9400" stroke-width="2" /><polyline fill="none" points="8.678,49.0305 20.8271,51.6339 41.2203,42.0881 53.8034,32.1085 62.0475,22.9966 66.3864,15.1864 66.8203,10.8475" stroke="#7f0000" stroke-width="2" /></svg>