<?xml version="1.0" encoding="utf-8" ?>
<svg baseProfile="tiny" height="128" version="1.2" viewBox="0,0,128,128" width="128" xmlns="http://www.w3.org/2000/svg" xmlns:ev="http://www.w3.org/2001/xml-events" xmlns:xlink="http://www.w3.org/1999/xlink"><defs /><polyline fill="none" points="59.878,9.9797 42.9559,9.5458 31.6746,13.8847 16.922,25.6 9.9797,36.8814 8.678,52.0678 9.9797,60.7458 13.4508,68.5559 20.8271,80.2712 32.5424,89.3831 52.5017,97.6271 65.5186,100.2305 77.2339,100.6644 88.9492,97.1932 95.8915,91.1186 115.8508,63.7831 118.8881,52.9356 119.322,42.9559 115.8508,30.8068 111.078,23.8644 102.4,17.3559 81.5729,8.678 72.8949,8.678 59.878,11.7153" stroke="#00007f" stroke-width="2" /><polyline fill="none" points="50.7661,9.5458 55.1051,19.5254 55.9729,26.0339 54.2373,41.6542 51.2,49.0305 46.4271,57.2746 40.7864,62.9153 16.922,78.5356" stroke="#0080ff" stroke-width="2" /><polyline fill="none" points="22.5627,81.139 34.7119,75.0644 47.2949,62.4814 52.5017,54.6712 56.8407,39.0508 54.6712,15.1864" stroke="#7cff79" stroke-width="2" /><polyline fill="none" points="93.2881,10.8475 84.6102,19.5254 76.3661,33.8441 68.122,56.8407 65.0847,74.1966 65.5186,85.478 71.1593,97.1932 72.461,98.9288 74.6305,97.6271" stroke="#ff9400" stroke-width="2" /><polyline fill="none" points="74.1966,97.6271 74.1966,97.6271" stroke="#7f0000" stroke-width="2" /></svg>