<?xml version="1.0" encoding="utf-8" ?>
<svg baseProfile="tiny" height="128" version="1.2" viewBox="0,0,128,128" width="128" xmlns="http://www.w3.org/2000/svg" xmlns:ev="http://www.w3.org/2001/xml-events" xmlns:xlink="http://www.w3.org/1999/xlink"><defs /><polyline fill="none" points="105.8712,15.1864 74.1966,11.2814 56.4068,11.2814 47.7288,13.8847 34.278,23.8644 27.3356,31.2407 21.261,41.6542 11.7153,59.878 9.9797,68.122 8.678,77.6678 9.5458,90.6847 17.7898,101.9661 31.6746,108.4746 49.8983,114.1153 66.8203,116.7186 88.9492,115.8508 100.6644,109.3424 109.3424,101.9661 114.5492,91.5525 116.7186,79.4034 118.8881,61.6136 119.322,29.939 117.5864,22.5627 112.8136,13.8847 103.7017,8.678 98.4949,8.678" stroke="#00007f" stroke-width="2" /><polyline fill="none" points="15.6203,63.3492 52.5017,58.1424 80.2712,59.0102 95.8915,68.122 104.5695,78.1017 106.739,82.8746 108.9085,100.2305" stroke="#0080ff" stroke-width="2" /><polyline fill="none" points="68.122,14.3186 63.3492,21.261 56.8407,49.0305 46.4271,80.2712 34.278,101.5322 25.6,111.078" stroke="#7cff79" stroke-width="2" /><polyline fill="none" points="99.7966,18.2237 91.5525,43.3898 80.7051,64.6508 75.0644,78.5356 69.8576,87.6475 54.2373,106.3051 50.7661,112.8136" stroke="#ff9400" stroke-width="2" /><polyline fill="none" points="112.3797,33.4102 111.9458,44.6915 103.7017,70.2915 94.1559,88.0814 84.6102,101.9661 77.2339,110.2102" stroke="#7f0000" stroke-width="2" /></svg>