<?xml version="1.0" encoding="utf-8" ?>
<svg baseProfile="tiny" height="128" version="1.2" viewBox="0,0,128,128" width="128" xmlns="http://www.w3.org/2000/svg" xmlns:ev="http://www.w3.org/2001/xml-events" xmlns:xlink="http://www.w3.org/1999/xlink"><defs /><polyline fill="none" points="78.1017,17.7898 69.4237,13.4508 53.3695,12.1492 45.1254,13.4508 37.3153,18.2237 28.2034,27.3356 20.8271,37.7492 14.3186,49.8983 9.9797,61.6136 8.678,82.8746 9.9797,92.8542 14.7525,100.2305 23.4305,107.1729 33.8441,110.6441 45.9932,111.5119 58.5763,110.6441 70.7254,105.4373 91.5525,88.9492 98.9288,80.7051 104.1356,71.5932 108.4746,55.1051 108.4746,42.522 105.8712,37.7492 101.0983,33.4102 70.2915,24.2983 66.3864,19.9593" stroke="#00007f" stroke-width="2" /><polyline fill="none" points="15.1864,52.5017 20.3932,51.6339 25.1661,52.9356 38.1831,60.3119 55.9729,80.7051 74.1966,109.7763" stroke="#0000de" stroke-width="2" /><polyline fill="none" points="53.3695,8.678 54.6712,27.7695 57.7085,44.2576 62.4814,55.1051 68.122,62.0475 77.6678,68.122 96.3254,74.6305 108.9085,74.6305 119.322,70.7254" stroke="#0028ff" stroke-width="2" /><polyline fill="none" points="95.0237,68.122 89.3831,89.3831" stroke="#0080ff" stroke-width="2" /><polyline fill="none" points="90.6847,59.878 87.2136,72.0271 83.3085,76.3661" stroke="#00d4ff" stroke-width="2" /><polyline fill="none" points="75.4983,60.3119 72.461,68.122 69.4237,70.7254" stroke="#36ffc0" stroke-width="2" /><polyline fill="none" points="56.4068,55.1051 50.3322,53.8034 47.7288,51.2 46.861,47.7288" stroke="#7cff79" stroke-width="2" /><polyline fill="none" points="55.1051,37.3153 61.6136,37.7492 73.3288,35.1458 80.7051,31.6746" stroke="#c0ff36" stroke-width="2" /><polyline fill="none" points="45.9932,39.4847 67.6881,32.9763" stroke="#ffe500" stroke-width="2" /><polyline fill="none" points="54.6712,63.7831 82.0068,52.5017" stroke="#ff9400" stroke-width="2" /><polyline fill="none" points="74.1966,75.0644 88.5153,61.6136" stroke="#ff4600" stroke-width="2" /><polyline fill="none" points="47.2949,49.8983 66.3864,42.522" stroke="#de0000" stroke-width="2" /><polyline fill="none" points="45.1254,24.7322 54.2373,27.7695 68.5559,27.7695" stroke="#7f0000" stroke-width="2" /></svg>