<?xml version="1.0" encoding="utf-8" ?>
<svg baseProfile="tiny" height="128" version="1.2" viewBox="0,0,128,128" width="128" xmlns="http://www.w3.org/2000/svg" xmlns:ev="http://www.w3.org/2001/xml-events" xmlns:xlink="http://www.w3.org/1999/xlink"><defs /><polyline fill="none" points="46.6254,14.9553 40.9072,16.7148 29.4708,25.512 22.433,32.9897 15.8351,43.1065 10.9966,56.3024 8.7973,71.2577 8.7973,86.2131 11.8763,98.5292 18.0344,107.3265 27.2715,113.9244 36.5086,117.8832 49.2646,118.323 56.3024,118.323 70.378,114.8041 82.2543,108.646 92.811,101.6082 104.6873,87.0928 114.3643,65.0997 115.244,50.5842 109.9656,36.0687 103.3677,26.8316 97.2096,21.5533 80.055,11.8763 65.9794,8.7973 56.7423,9.2371 51.0241,11.4364" stroke="#00007f" stroke-width="2" /><polyline fill="none" points="39.1478,21.1134 47.0653,27.7113 52.7835,37.3883 58.9416,58.9416 60.2612,73.8969 60.2612,96.3299 58.5017,108.646 54.543,119.2027" stroke="#00d4ff" stroke-width="2" /><polyline fill="none" points="56.3024,10.1168 68.1787,26.3918 74.7766,44.4261 79.6151,78.7354 80.4948,101.1684" stroke="#ffe500" stroke-width="2" /><polyline fill="none" points="73.8969,10.5567 84.0137,25.0722 91.9313,45.3058 98.5292,76.9759 99.4089,98.5292" stroke="#7f0000" stroke-width="2" /></svg>