<?xml version="1.0" encoding="utf-8" ?>
<svg baseProfile="tiny" height="128" version="1.2" viewBox="0,0,128,128" width="128" xmlns="http://www.w3.org/2000/svg" xmlns:ev="http://www.w3.org/2001/xml-events" xmlns:xlink="http://www.w3.org/1999/xlink"><defs /><polyline fill="none" points="45.1254,8.678 36.4475,10.4136 26.4678,19.0915 19.0915,29.5051 11.2814,46.4271 8.678,60.7458 8.678,76.8 17.7898,95.0237 26.4678,101.9661 41.6542,111.078 53.3695,114.9831 76.8,118.4542 90.6847,118.4542 94.5898,112.8136 95.8915,103.2678 95.0237,60.7458" stroke="#00007f" stroke-width="2" /><polyline fill="none" points="95.0237,55.1051 84.1763,44.2576 74.6305,37.3153 50.3322,24.2983 41.6542,21.6949 25.1661,21.6949 22.5627,23.4305" stroke="#00d4ff" stroke-width="2" /><polyline fill="none" points="23.4305,24.2983 25.1661,30.8068 25.6,47.7288 25.6,82.0068 24.2983,91.5525 20.8271,96.3254 16.922,100.6644 12.5831,101.5322" stroke="#ffe500" stroke-width="2" /><polyline fill="none" points="74.6305,45.9932 71.1593,73.3288 72.0271,100.6644 74.6305,106.3051 79.8373,112.8136 88.5153,119.322 91.5525,119.322" stroke="#7f0000" stroke-width="2" /></svg>