<?xml version="1.0" encoding="utf-8" ?>
<svg baseProfile="tiny" height="128" version="1.2" viewBox="0,0,128,128" width="128" xmlns="http://www.w3.org/2000/svg" xmlns:ev="http://www.w3.org/2001/xml-events" xmlns:xlink="http://www.w3.org/1999/xlink"><defs /><polyline fill="none" points="16.0542,66.8203 8.678,76.3661 18.2237,79.8373 27.7695,87.6475 35.5797,88.9492 45.9932,82.0068 48.1627,72.0271 44.2576,62.9153 25.6,62.9153 23.8644,72.461 31.2407,82.0068 40.3525,82.0068 49.8983,72.461 51.6339,63.3492 42.522,55.539 32.9763,55.539 25.6,65.0847 31.2407,74.1966 40.3525,78.1017 44.2576,72.461" stroke="#00007f" stroke-width="2" /><polyline fill="none" points="38.6169,57.2746 29.0712,57.2746 20.3932,59.4441 18.2237,49.8983 27.3356,48.1627 32.9763,57.2746 42.522,62.9153 51.6339,62.9153 42.522,65.0847 59.4441,62.9153" stroke="#00d4ff" stroke-width="2" /><polyline fill="none" points="65.0847,44.2576 55.539,44.2576 36.8814,48.1627 29.5051,57.2746 29.5051,78.1017 38.6169,79.8373 57.2746,79.8373 66.8203,76.3661 66.8203,55.539 57.7085,52.0678 48.1627,52.0678 42.522,61.6136 42.522,70.7254 52.0678,76.3661 61.1797,70.7254 65.0847,60.7458 66.8203,52.0678 57.7085,53.8034 66.8203,51.6339" stroke="#ffe500" stroke-width="2" /><polyline fill="none" points="53.8034,12.5831 35.1458,12.5831 25.6,17.7898 16.0542,29.0712 12.5831,39.0508 12.5831,59.4441 14.3186,68.5559 35.1458,82.0068 44.6915,83.7424 57.7085,83.7424 83.3085,89.3831 92.8542,89.3831 102.4,95.0237 115.4169,98.4949 119.322,79.8373 115.4169,68.9898 108.0407,59.4441 98.4949,53.3695 80.2712,36.8814 66.8203,31.2407 57.2746,31.2407 47.7288,25.6 38.6169,25.6 38.6169,34.7119 57.7085,45.9932 66.8203,46.4271 78.1017,55.539 87.2136,61.1797 95.0237,70.7254 100.6644,82.0068 109.7763,91.1186 83.7424,83.7424 72.0271,72.0271 62.9153,65.0847 53.8034,61.1797 35.1458,44.2576 14.3186,32.9763 10.8475,16.0542 22.1288,8.678 33.4102,8.678 46.4271,18.2237 53.8034,29.5051 65.0847,35.1458 74.1966,36.8814 88.9492,57.2746 91.1186,68.5559 87.6475,78.1017 78.1017,87.6475 68.9898,87.6475 59.0102,91.1186 49.8983,89.3831 32.9763,70.7254" stroke="#7f0000" stroke-width="2" /></svg>