<?xml version="1.0" encoding="utf-8" ?>
<svg baseProfile="tiny" height="128" version="1.2" viewBox="0,0,128,128" width="128" xmlns="http://www.w3.org/2000/svg" xmlns:ev="http://www.w3.org/2001/xml-events" xmlns:xlink="http://www.w3.org/1999/xlink"><defs /><polyline fill="none" points="53.3695,9.9797 41.6542,10.8475 33.4102,13.4508 15.1864,21.6949 10.4136,25.1661 8.678,59.0102 13.4508,71.5932 20.3932,79.8373 26.9017,85.0441 42.0881,91.1186 61.6136,93.722 70.2915,92.4203 90.2508,80.2712 108.0407,64.2169 118.0203,49.4644 119.322,41.2203 118.0203,34.7119 112.3797,27.7695 95.4576,18.6576 78.1017,10.8475 62.9153,8.678 45.5593,11.7153 34.278,11.2814" stroke="#00007f" stroke-width="2" /><polyline fill="none" points="72.0271,9.9797 74.6305,33.4102 78.9695,49.0305 84.6102,62.9153 94.5898,73.7627" stroke="#7cff79" stroke-width="2" /><polyline fill="none" points="30.3729,15.6203 33.8441,35.1458 33.4102,48.5966 29.0712,69.4237 32.1085,97.1932 31.6746,107.1729" stroke="#7f0000" stroke-width="2" /></svg>