<?xml version="1.0" encoding="utf-8" ?>
<svg baseProfile="tiny" height="128" version="1.2" viewBox="0,0,128,128" width="128" xmlns="http://www.w3.org/2000/svg" xmlns:ev="http://www.w3.org/2001/xml-events" xmlns:xlink="http://www.w3.org/1999/xlink"><defs /><polyline fill="none" points="56.8407,16.4881 52.0678,16.4881 43.8237,19.9593 30.8068,29.939 16.0542,48.1627 12.5831,55.1051 8.678,71.5932 8.678,79.4034 12.1492,88.0814 21.6949,96.7593 36.8814,105.8712 41.2203,107.6068 74.6305,112.3797 84.1763,110.2102 96.7593,102.8339 104.1356,95.4576 106.739,90.2508 109.7763,83.3085 115.4169,52.5017 115.4169,39.9186 111.078,22.5627 108.0407,19.0915 87.2136,9.9797 51.6339,8.678" stroke="#00007f" stroke-width="2" /><polyline fill="none" points="42.0881,19.0915 40.7864,58.1424 36.0136,74.1966 28.2034,87.2136 18.2237,97.6271 15.1864,98.9288" stroke="#7cff79" stroke-width="2" /><polyline fill="none" points="99.7966,18.2237 90.2508,29.5051 82.0068,42.9559 75.9322,57.7085 73.3288,96.3254 76.8,115.4169 78.9695,119.322" stroke="#7f0000" stroke-width="2" /></svg>