<?xml version="1.0" encoding="utf-8" ?>
<svg baseProfile="tiny" height="128" version="1.2" viewBox="0,0,128,128" width="128" xmlns="http://www.w3.org/2000/svg" xmlns:ev="http://www.w3.org/2001/xml-events" xmlns:xlink="http://www.w3.org/1999/xlink"><defs /><polyline fill="none" points="10.8475,60.3119 10.8475,55.539 16.0542,43.3898 24.2983,32.1085 33.8441,23.4305 49.0305,14.7525 63.3492,10.4136 75.4983,8.678 90.2508,8.678 99.3627,13.0169 105.8712,18.6576 111.078,25.6 114.5492,33.8441 116.2847,53.8034 113.6814,65.5186 107.6068,78.5356 101.5322,87.6475 95.4576,93.722 86.7797,100.6644 77.6678,105.0034 70.2915,106.3051 55.1051,106.3051 42.0881,102.8339 29.939,97.1932 25.6,94.1559 17.7898,84.1763 12.5831,74.1966 9.1119,60.3119 8.678,47.2949 12.1492,42.9559" stroke="#00007f" stroke-width="2" /><polyline fill="none" points="70.2915,13.0169 92.4203,31.6746 111.078,52.9356" stroke="#004cff" stroke-width="2" /><polyline fill="none" points="48.5966,21.261 47.2949,21.6949 47.2949,23.8644 72.461,54.2373 87.6475,76.3661 94.5898,83.3085" stroke="#29ffcd" stroke-width="2" /><polyline fill="none" points="24.7322,41.6542 29.5051,50.7661 36.8814,59.0102 80.2712,105.0034" stroke="#cdff29" stroke-width="2" /><polyline fill="none" points="11.2814,82.4407 66.8203,33.8441 94.1559,14.3186 103.2678,9.9797" stroke="#ff6700" stroke-width="2" /><polyline fill="none" points="29.939,103.2678 80.2712,58.1424 104.5695,37.3153 119.322,27.7695" stroke="#7f0000" stroke-width="2" /></svg>