<?xml version="1.0" encoding="utf-8" ?>
<svg baseProfile="tiny" height="128" version="1.2" viewBox="0,0,128,128" width="128" xmlns="http://www.w3.org/2000/svg" xmlns:ev="http://www.w3.org/2001/xml-events" xmlns:xlink="http://www.w3.org/1999/xlink"><defs /><polyline fill="none" points="56.1633,18.2857 53.551,16.5442 40.4898,18.2857 26.5578,24.381 14.8027,39.1837 9.1429,52.2449 8.7075,57.9048 11.7551,74.0136 16.1088,82.7211 27.4286,95.3469 39.619,100.5714 67.0476,96.2177 88.381,87.9456 97.0884,81.8503 105.3605,74.449 115.3741,58.3401 118.4218,50.9388 119.2925,39.1837 114.068,31.7823 106.2313,23.9456 88.8163,11.3197 76.1905,8.7075 66.1769,11.3197" stroke="#00007f" stroke-width="2" /><polyline fill="none" points="57.4694,13.4966 61.8231,30.9116 62.2585,41.7959 60.517,60.517 57.4694,76.6259 48.3265,108.4082 46.585,103.1837" stroke="#0080ff" stroke-width="2" /><polyline fill="none" points="88.381,13.932 94.0408,46.1497 93.1701,64.0 89.6871,80.1088 81.8503,90.1224 84.4626,81.8503" stroke="#7cff79" stroke-width="2" /><polyline fill="none" points="16.5442,53.551 45.2789,56.5986 72.7075,56.5986 91.4286,50.9388 99.7007,46.585 106.6667,40.4898" stroke="#ff9400" stroke-width="2" /><polyline fill="none" points="14.8027,80.5442 37.8776,82.7211 52.2449,82.2857 78.3673,77.932 102.7483,67.9184 108.4082,63.1293 110.1497,59.6463" stroke="#7f0000" stroke-width="2" /></svg>