<?xml version="1.0" encoding="utf-8" ?>
<svg baseProfile="tiny" height="128" version="1.2" viewBox="0,0,128,128" width="128" xmlns="http://www.w3.org/2000/svg" xmlns:ev="http://www.w3.org/2001/xml-events" xmlns:xlink="http://www.w3.org/1999/xlink"><defs /><polyline fill="none" points="95.0237,12.5831 91.5525,9.5458 85.9119,8.678 60.7458,8.678 51.2,11.2814 34.278,18.6576 17.7898,28.6373 12.1492,34.278 9.1119,42.522 8.678,50.7661 11.2814,59.4441 16.4881,68.5559 22.5627,73.7627 29.0712,76.8 47.2949,80.7051 79.4034,81.5729 93.722,77.2339 108.0407,68.122 114.1153,60.3119 119.322,45.9932 118.4542,37.3153 112.8136,21.6949 105.4373,15.1864 91.5525,13.0169" stroke="#00007f" stroke-width="2" /><polyline fill="none" points="89.3831,9.5458 89.8169,62.0475 84.6102,80.7051" stroke="#7cff79" stroke-width="2" /><polyline fill="none" points="55.9729,9.9797 47.7288,29.0712 43.3898,46.861 43.3898,79.4034" stroke="#7f0000" stroke-width="2" /></svg>