<?xml version="1.0" encoding="utf-8" ?>
<svg baseProfile="tiny" height="128" version="1.2" viewBox="0,0,128,128" width="128" xmlns="http://www.w3.org/2000/svg" xmlns:ev="http://www.w3.org/2001/xml-events" xmlns:xlink="http://www.w3.org/1999/xlink"><defs /><polyline fill="none" points="59.4441,19.0915 57.2746,13.4508 50.3322,9.5458 27.7695,9.5458 19.0915,13.8847 14.3186,19.0915 9.9797,28.2034 8.678,36.4475 8.678,45.9932 12.5831,62.4814 18.2237,72.0271 30.8068,84.1763 47.7288,94.1559 55.9729,96.7593 68.9898,99.3627 82.0068,98.4949 89.3831,96.3254 101.0983,89.8169 115.8508,74.6305 119.322,67.2542 119.322,61.1797 104.5695,30.8068 99.3627,23.8644 83.3085,11.7153 76.8,8.678 62.4814,9.1119 45.1254,14.7525" stroke="#00007f" stroke-width="2" /><polyline fill="none" points="37.7492,15.6203 41.6542,17.7898 45.1254,21.261 54.6712,35.5797 70.2915,73.7627 73.3288,90.6847 70.7254,97.6271 68.122,100.6644" stroke="#004cff" stroke-width="2" /><polyline fill="none" points="61.1797,13.0169 74.1966,20.8271 86.3458,31.6746 108.4746,72.0271 112.3797,82.0068 111.5119,87.6475" stroke="#29ffcd" stroke-width="2" /><polyline fill="none" points="49.0305,29.5051 49.8983,28.2034" stroke="#cdff29" stroke-width="2" /><polyline fill="none" points="49.8983,27.7695 49.8983,27.7695" stroke="#ff6700" stroke-width="2" /><polyline fill="none" points="50.3322,28.2034 53.3695,28.2034" stroke="#7f0000" stroke-width="2" /></svg>