<?xml version="1.0" encoding="utf-8" ?>
<svg baseProfile="tiny" height="128" version="1.2" viewBox="0,0,128,128" width="128" xmlns="http://www.w3.org/2000/svg" xmlns:ev="http://www.w3.org/2001/xml-events" xmlns:xlink="http://www.w3.org/1999/xlink"><defs /><polyline fill="none" points="88.9492,26.9017 89.3831,19.0915 87.6475,15.1864 79.4034,9.5458 73.3288,8.678 57.2746,9.9797 42.522,16.0542 35.5797,20.8271 23.4305,32.5424 11.2814,55.9729 8.678,73.7627 10.4136,81.5729 13.4508,87.6475 22.5627,99.3627 31.6746,107.1729 47.2949,114.9831 59.4441,118.4542 72.0271,118.4542 78.9695,114.9831 94.5898,102.8339 106.3051,82.8746 111.078,58.5763 110.6441,47.2949 103.2678,30.8068 95.0237,19.9593 85.478,13.8847 82.4407,14.7525" stroke="#00007f" stroke-width="2" /><polyline fill="none" points="51.2,16.922 48.1627,23.4305 43.8237,41.2203 35.1458,68.122 22.5627,85.0441 15.1864,90.6847" stroke="#00d4ff" stroke-width="2" /><polyline fill="none" points="88.5153,20.3932 79.8373,52.9356 77.6678,75.9322 77.6678,94.5898 78.9695,103.7017 85.478,119.322" stroke="#ffe500" stroke-width="2" /><polyline fill="none" points="75.9322,108.0407 81.139,105.8712 85.9119,101.0983" stroke="#7f0000" stroke-width="2" /></svg>