<?xml version="1.0" encoding="utf-8" ?>
<svg baseProfile="tiny" height="128" version="1.2" viewBox="0,0,128,128" width="128" xmlns="http://www.w3.org/2000/svg" xmlns:ev="http://www.w3.org/2001/xml-events" xmlns:xlink="http://www.w3.org/1999/xlink"><defs /><polyline fill="none" points="59.6463,16.1088 52.2449,13.0612 47.0204,13.4966 35.7007,18.7211 28.7347,24.381 22.2041,30.4762 14.3673,43.102 9.5782,57.4694 8.7075,65.7415 8.7075,81.415 10.449,88.381 18.2857,100.1361 29.1701,108.4082 36.5714,111.4558 43.5374,113.1973 57.9048,114.068 64.4354,112.3265 75.7551,103.619 84.898,90.5578 90.9932,72.7075 92.7347,36.1361 88.8163,28.7347 81.415,19.1565 67.9184,9.1429 51.8095,8.7075 48.7619,11.7551 45.2789,18.7211" stroke="#00007f" stroke-width="2" /><polyline fill="none" points="32.2177,24.381 39.619,54.4218 39.619,80.9796 34.3946,95.7823 28.2993,106.2313 25.2517,108.8435 20.0272,109.7143" stroke="#0080ff" stroke-width="2" /><polyline fill="none" points="43.102,24.381 45.2789,27.8639 46.585,38.3129 47.0204,70.966 44.8435,79.2381 34.3946,98.3946 24.8163,108.8435" stroke="#7cff79" stroke-width="2" /><polyline fill="none" points="81.8503,21.3333 77.0612,24.381 64.8707,50.5034 58.3401,70.966 54.8571,89.6871 54.8571,103.619 57.9048,110.585 64.8707,117.9864 71.8367,119.2925" stroke="#ff9400" stroke-width="2" /><polyline fill="none" points="86.2041,30.9116 82.2857,33.0884 80.9796,37.0068 64.8707,87.5102 63.5646,108.8435 65.3061,111.0204" stroke="#7f0000" stroke-width="2" /></svg>