<?xml version="1.0" encoding="utf-8" ?>
<svg baseProfile="tiny" height="128" version="1.2" viewBox="0,0,128,128" width="128" xmlns="http://www.w3.org/2000/svg" xmlns:ev="http://www.w3.org/2001/xml-events" xmlns:xlink="http://www.w3.org/1999/xlink"><defs /><polyline fill="none" points="82.0068,14.3186 36.8814,13.8847 22.5627,16.922 10.8475,22.5627 8.678,28.2034 8.678,72.0271 10.8475,85.0441 15.1864,94.5898 21.261,101.9661 42.0881,114.1153 52.5017,117.5864 72.461,119.322 88.0814,118.4542 102.4,113.6814 111.5119,108.4746 114.5492,98.061 114.1153,70.2915 101.0983,39.9186 86.3458,18.2237 82.4407,15.6203" stroke="#00007f" stroke-width="2" /><polyline fill="none" points="14.3186,23.8644 15.6203,29.939 34.278,65.0847 33.8441,86.3458 32.5424,95.8915 29.939,101.5322" stroke="#00d4ff" stroke-width="2" /><polyline fill="none" points="97.1932,25.6 87.6475,49.0305 86.3458,55.1051 85.478,88.9492 87.2136,97.1932 102.4,112.8136" stroke="#ffe500" stroke-width="2" /><polyline fill="none" points="51.2,8.678 51.6339,103.2678" stroke="#7f0000" stroke-width="2" /></svg>