<?xml version="1.0" encoding="utf-8" ?>
<svg baseProfile="tiny" height="128" version="1.2" viewBox="0,0,128,128" width="128" xmlns="http://www.w3.org/2000/svg" xmlns:ev="http://www.w3.org/2001/xml-events" xmlns:xlink="http://www.w3.org/1999/xlink"><defs /><polyline fill="none" points="31.6746,68.122 26.9017,65.5186 17.3559,54.2373 8.678,37.3153 12.5831,34.278 20.3932,34.278 38.1831,38.6169 40.7864,36.8814 45.9932,18.6576 50.7661,15.1864 73.7627,19.0915 85.0441,10.8475 98.061,8.678 100.2305,9.9797 103.7017,14.7525 115.8508,44.6915 118.8881,68.5559 119.322,84.6102 112.3797,100.6644 104.5695,107.1729 99.7966,109.3424 93.2881,111.5119 75.9322,112.3797 40.3525,96.7593 23.4305,76.8" stroke="#00007f" stroke-width="2" /><polyline fill="none" points="76.8,77.2339 72.461,58.1424 78.1017,49.0305 88.5153,49.4644 95.0237,60.7458 94.1559,72.8949 88.5153,79.8373 79.8373,82.0068 69.4237,81.139 65.5186,78.1017 62.4814,71.1593" stroke="#7f0000" stroke-width="2" /></svg>