<?xml version="1.0" encoding="utf-8" ?>
<svg baseProfile="tiny" height="128" version="1.2" viewBox="0,0,128,128" width="128" xmlns="http://www.w3.org/2000/svg" xmlns:ev="http://www.w3.org/2001/xml-events" xmlns:xlink="http://www.w3.org/1999/xlink"><defs /><polyline fill="none" points="88.5153,16.4881 78.5356,9.9797 72.0271,8.678 53.3695,11.2814 43.3898,14.3186 33.8441,20.3932 25.6,27.3356 19.0915,36.0136 14.3186,59.0102 16.922,71.1593 22.9966,82.8746 30.8068,91.9864 39.9186,98.061 49.0305,101.9661 67.6881,101.0983 76.8,97.1932 86.3458,90.2508 95.4576,81.5729 102.8339,72.0271 108.9085,62.0475 112.8136,52.9356 111.9458,38.1831 107.6068,32.9763 82.4407,12.5831" stroke="#00007f" stroke-width="2" /><polyline fill="none" points="102.8339,31.2407 98.061,34.7119 82.4407,42.0881 57.7085,49.0305 49.0305,50.3322 16.4881,49.8983 13.4508,48.5966" stroke="#0000e8" stroke-width="2" /><polyline fill="none" points="119.322,52.5017 80.7051,73.7627 64.2169,81.139 31.2407,87.2136 8.678,85.478" stroke="#0038ff" stroke-width="2" /><polyline fill="none" points="31.2407,77.6678 31.6746,93.722" stroke="#0094ff" stroke-width="2" /><polyline fill="none" points="50.3322,78.5356 50.7661,84.1763" stroke="#0cf4ea" stroke-width="2" /><polyline fill="none" points="68.122,81.139 69.4237,81.139" stroke="#56ffa0" stroke-width="2" /><polyline fill="none" points="82.4407,79.4034 86.7797,81.139" stroke="#a0ff56" stroke-width="2" /><polyline fill="none" points="85.9119,66.3864 93.2881,78.5356" stroke="#eaff0c" stroke-width="2" /><polyline fill="none" points="95.0237,58.1424 98.4949,61.6136" stroke="#ffaa00" stroke-width="2" /><polyline fill="none" points="106.3051,55.539 110.6441,59.4441" stroke="#ff5500" stroke-width="2" /><polyline fill="none" points="26.4678,44.2576 29.0712,55.1051 32.9763,62.9153" stroke="#e80000" stroke-width="2" /><polyline fill="none" points="62.0475,43.8237 65.0847,55.539" stroke="#7f0000" stroke-width="2" /></svg>