<?xml version="1.0" encoding="utf-8" ?>
<svg baseProfile="tiny" height="128" version="1.2" viewBox="0,0,128,128" width="128" xmlns="http://www.w3.org/2000/svg" xmlns:ev="http://www.w3.org/2001/xml-events" xmlns:xlink="http://www.w3.org/1999/xlink"><defs /><polyline fill="none" points="89.8169,10.4136 74.1966,10.4136 62.9153,12.1492 28.2034,33.4102 19.5254,42.9559 13.8847,53.3695 9.5458,70.2915 8.678,89.8169 9.5458,95.0237 16.4881,104.5695 21.261,110.2102 26.4678,113.2475 42.9559,117.5864 53.3695,119.322 91.9864,119.322 98.061,118.4542 102.8339,116.2847 108.4746,106.739 112.8136,102.4 117.1525,68.122 116.2847,42.9559 114.5492,38.1831 108.4746,29.939 107.6068,20.3932 105.4373,15.6203 95.8915,10.4136 86.7797,8.678" stroke="#00007f" stroke-width="2" /><polyline fill="none" points="33.4102,35.1458 46.861,51.2 49.0305,56.8407 49.0305,81.5729 38.1831,98.4949 32.9763,102.8339 26.4678,105.4373" stroke="#7cff79" stroke-width="2" /><polyline fill="none" points="113.2475,27.3356 108.4746,27.3356 103.2678,29.5051 96.7593,34.7119 92.8542,39.0508 91.1186,46.861 83.3085,61.6136" stroke="#7f0000" stroke-width="2" /></svg>