<?xml version="1.0" encoding="utf-8" ?>
<svg baseProfile="tiny" height="128" version="1.2" viewBox="0,0,128,128" width="128" xmlns="http://www.w3.org/2000/svg" xmlns:ev="http://www.w3.org/2001/xml-events" xmlns:xlink="http://www.w3.org/1999/xlink"><defs /><polyline fill="none" points="62.0475,8.678 52.9356,8.678 31.2407,15.6203 16.0542,22.9966 10.4136,30.8068 8.678,42.522 9.1119,60.3119 13.8847,72.8949 20.3932,80.7051 36.0136,87.6475 58.1424,93.722 81.5729,94.5898 95.8915,92.4203 103.7017,90.2508 111.5119,85.478 117.1525,76.8 118.8881,66.3864 119.322,49.0305 116.2847,41.2203 104.5695,29.0712 94.5898,24.2983 71.5932,18.2237 62.4814,9.9797" stroke="#00007f" stroke-width="2" /><polyline fill="none" points="63.3492,9.1119 68.122,53.3695 68.5559,90.2508" stroke="#00d4ff" stroke-width="2" /><polyline fill="none" points="85.9119,28.2034 81.139,52.0678 80.7051,79.8373 82.4407,89.3831" stroke="#ffe500" stroke-width="2" /><polyline fill="none" points="102.4,39.0508 101.0983,52.0678 101.9661,101.9661 98.9288,95.8915" stroke="#7f0000" stroke-width="2" /></svg>