<?xml version="1.0" encoding="utf-8" ?>
<svg baseProfile="tiny" height="128" version="1.2" viewBox="0,0,128,128" width="128" xmlns="http://www.w3.org/2000/svg" xmlns:ev="http://www.w3.org/2001/xml-events" xmlns:xlink="http://www.w3.org/1999/xlink"><defs /><polyline fill="none" points="101.5322,46.861 94.1559,27.3356 88.9492,19.9593 82.0068,13.4508 73.7627,9.9797 65.0847,8.678 55.1051,8.678 49.8983,10.8475 34.7119,19.5254 23.8644,32.1085 16.0542,44.2576 11.7153,54.2373 9.5458,65.5186 8.678,82.4407 10.4136,93.2881 15.6203,102.4 24.2983,110.2102 36.4475,115.8508 49.0305,119.322 73.7627,118.8881 92.8542,111.9458 98.061,108.4746 101.5322,105.0034 107.6068,93.2881 109.7763,67.6881 106.3051,52.9356 95.4576,30.8068" stroke="#00007f" stroke-width="2" /><polyline fill="none" points="95.8915,35.1458 91.1186,34.7119 87.6475,36.4475 81.5729,40.3525 74.1966,47.7288 66.8203,59.0102 60.7458,75.9322 59.878,92.8542 61.1797,100.2305 66.8203,108.9085 71.5932,113.2475 75.9322,114.5492" stroke="#00d4ff" stroke-width="2" /><polyline fill="none" points="24.2983,40.3525 36.0136,44.2576 41.6542,49.0305 46.861,58.5763 52.9356,76.8 53.8034,92.8542 51.2,102.8339 45.5593,110.2102 35.1458,115.4169" stroke="#ffe500" stroke-width="2" /><polyline fill="none" points="19.0915,82.4407 66.8203,78.5356 102.4,77.6678" stroke="#7f0000" stroke-width="2" /></svg>