<?xml version="1.0" encoding="utf-8" ?>
<svg baseProfile="tiny" height="128" version="1.2" viewBox="0,0,128,128" width="128" xmlns="http://www.w3.org/2000/svg" xmlns:ev="http://www.w3.org/2001/xml-events" xmlns:xlink="http://www.w3.org/1999/xlink"><defs /><polyline fill="none" points="78.8027,8.7075 51.8095,10.0136 27.8639,17.415 20.4626,22.2041 11.7551,34.3946 9.1429,40.4898 8.7075,53.9864 11.3197,62.6939 15.2381,67.483 25.6871,75.3197 40.9252,81.8503 54.4218,85.7687 79.6735,87.0748 89.2517,85.7687 106.2313,81.415 115.3741,75.3197 119.2925,66.6122 119.2925,49.6327 115.3741,32.6531 106.2313,25.2517 81.8503,13.932 67.483,12.6259" stroke="#00007f" stroke-width="2" /><polyline fill="none" points="88.8163,17.8503 79.6735,25.2517 76.1905,30.9116 73.1429,38.3129 70.966,52.2449 70.5306,68.7891 71.8367,74.8844 75.3197,82.2857 80.1088,86.6395" stroke="#7cff79" stroke-width="2" /><polyline fill="none" points="43.5374,10.449 48.3265,24.8163 50.5034,37.4422 50.9388,47.0204 49.6327,56.1633 46.1497,64.8707 42.6667,68.3537 37.0068,72.7075 30.4762,74.449" stroke="#7f0000" stroke-width="2" /></svg>