<?xml version="1.0" encoding="utf-8" ?>
<svg baseProfile="tiny" height="128" version="1.2" viewBox="0,0,128,128" width="128" xmlns="http://www.w3.org/2000/svg" xmlns:ev="http://www.w3.org/2001/xml-events" xmlns:xlink="http://www.w3.org/1999/xlink"><defs /><polyline fill="none" points="97.5238,19.5918 86.2041,13.0612 78.3673,11.3197 53.1156,11.3197 38.7483,18.7211 26.5578,30.4762 18.2857,41.3605 11.7551,56.1633 8.7075,80.5442 13.932,90.1224 22.6395,97.0884 31.7823,101.4422 56.1633,106.6667 69.6599,107.5374 86.6395,107.5374 94.9116,105.3605 104.4898,101.0068 111.8912,95.7823 117.1156,86.2041 118.4218,78.3673 119.2925,42.2313 115.3741,33.0884 111.0204,27.4286 89.6871,8.7075" stroke="#00007f" stroke-width="2" /><polyline fill="none" points="43.9728,37.8776 44.8435,63.1293 48.3265,74.449 48.3265,88.381 44.8435,98.8299 43.9728,96.6531 46.585,80.9796 46.585,59.2109 42.6667,41.7959 37.0068,28.7347 33.5238,14.8027" stroke="#7cff79" stroke-width="2" /><polyline fill="none" points="104.0544,25.6871 97.5238,26.9932 92.7347,31.7823 87.0748,40.0544 83.5918,50.9388 84.898,72.7075 89.2517,84.898 96.2177,96.6531" stroke="#7f0000" stroke-width="2" /></svg>