<?xml version="1.0" encoding="utf-8" ?>
<svg baseProfile="tiny" height="128" version="1.2" viewBox="0,0,128,128" width="128" xmlns="http://www.w3.org/2000/svg" xmlns:ev="http://www.w3.org/2001/xml-events" xmlns:xlink="http://www.w3.org/1999/xlink"><defs /><polyline fill="none" points="99.3627,13.8847 87.2136,12.1492 50.3322,12.1492 38.6169,15.6203 28.6373,23.8644 20.3932,35.5797 15.6203,47.2949 12.1492,60.7458 12.1492,89.3831 20.3932,99.3627 43.8237,114.1153 67.2542,119.322 77.2339,119.322 90.6847,115.8508 101.0983,105.8712 109.3424,91.1186 115.8508,65.5186 117.5864,50.7661 117.5864,27.3356 109.3424,18.6576 88.9492,8.678" stroke="#00007f" stroke-width="2" /><polyline fill="none" points="26.9017,15.1864 29.0712,23.8644 43.8237,43.8237 49.0305,63.7831 42.0881,75.9322 23.8644,87.6475" stroke="#0080ff" stroke-width="2" /><polyline fill="none" points="114.1153,15.1864 104.1356,20.3932 87.6475,45.1254 80.7051,59.4441 78.9695,83.7424 82.4407,94.1559 90.6847,102.4 100.6644,105.8712" stroke="#7cff79" stroke-width="2" /><polyline fill="none" points="65.5186,23.8644 62.4814,37.3153 62.4814,57.2746 55.539,95.4576 50.7661,99.3627" stroke="#ff9400" stroke-width="2" /><polyline fill="none" points="8.678,53.8034 17.3559,60.7458 62.4814,74.1966 82.4407,74.1966 90.6847,67.2542" stroke="#7f0000" stroke-width="2" /></svg>