<?xml version="1.0" encoding="utf-8" ?>
<svg baseProfile="tiny" height="128" version="1.2" viewBox="0,0,128,128" width="128" xmlns="http://www.w3.org/2000/svg" xmlns:ev="http://www.w3.org/2001/xml-events" xmlns:xlink="http://www.w3.org/1999/xlink"><defs /><polyline fill="none" points="48.5966,8.678 34.7119,17.7898 22.5627,29.5051 17.7898,36.0136 9.9797,49.8983 8.678,60.3119 9.5458,88.5153 12.1492,97.6271 20.8271,117.1525 22.5627,119.322 28.6373,118.8881 39.9186,111.5119 52.5017,95.0237 62.0475,78.1017 74.1966,47.7288 79.8373,22.9966 79.8373,14.7525 55.1051,17.7898 43.8237,17.7898 40.3525,16.4881" stroke="#00007f" stroke-width="2" /><polyline fill="none" points="39.4847,16.922 30.8068,30.3729 23.8644,45.5593 26.0339,78.9695 18.2237,103.2678 26.4678,106.739 26.9017,100.2305" stroke="#7cff79" stroke-width="2" /><polyline fill="none" points="64.6508,17.7898 62.0475,49.0305 59.878,55.539 58.5763,64.6508 57.2746,91.9864 55.1051,100.2305 52.5017,105.4373" stroke="#7f0000" stroke-width="2" /></svg>