<?xml version="1.0" encoding="utf-8" ?>
<svg baseProfile="tiny" height="128" version="1.2" viewBox="0,0,128,128" width="128" xmlns="http://www.w3.org/2000/svg" xmlns:ev="http://www.w3.org/2001/xml-events" xmlns:xlink="http://www.w3.org/1999/xlink"><defs /><polyline fill="none" points="36.4475,103.2678 17.7898,80.7051 11.2814,68.5559 8.678,58.1424 11.2814,49.0305 18.2237,37.7492 29.0712,25.1661 44.6915,13.4508 56.8407,8.678 62.4814,8.678 93.722,20.3932 105.0034,26.0339 114.1153,36.4475 117.5864,42.0881 119.322,52.5017 118.8881,64.2169 110.6441,79.4034 101.5322,88.9492 91.1186,98.4949 72.0271,111.5119 64.2169,114.1153 55.9729,110.6441 39.9186,107.6068 36.0136,104.5695" stroke="#00007f" stroke-width="2" /><polyline fill="none" points="29.5051,26.0339 48.1627,38.1831 48.5966,44.2576 51.6339,52.9356 50.3322,69.8576 55.539,74.6305 52.5017,81.139 40.3525,97.1932 35.1458,105.8712" stroke="#7f0000" stroke-width="2" /></svg>