<?xml version="1.0" encoding="utf-8" ?>
<svg baseProfile="tiny" height="128" version="1.2" viewBox="0,0,128,128" width="128" xmlns="http://www.w3.org/2000/svg" xmlns:ev="http://www.w3.org/2001/xml-events" xmlns:xlink="http://www.w3.org/1999/xlink"><defs /><polyline fill="none" points="81.139,16.0542 81.139,11.2814 78.5356,8.678 68.122,8.678 51.6339,13.0169 45.9932,16.4881 32.1085,36.8814 16.922,64.2169 9.5458,86.3458 8.678,109.3424 12.5831,114.5492 20.8271,117.5864 32.9763,119.322 64.2169,118.4542 77.2339,113.2475 89.8169,104.1356 94.1559,98.4949 98.4949,89.3831 103.7017,70.7254 106.3051,52.9356 105.8712,32.9763 101.5322,24.2983 93.2881,14.3186 87.2136,9.1119 76.3661,9.1119 64.2169,12.5831" stroke="#00007f" stroke-width="2" /><polyline fill="none" points="79.4034,9.9797 72.0271,30.3729 66.3864,65.0847 66.3864,102.8339 70.2915,110.6441 74.1966,111.9458" stroke="#7cff79" stroke-width="2" /><polyline fill="none" points="59.0102,10.4136 59.0102,58.1424 37.3153,104.1356 33.4102,110.2102 26.0339,115.4169" stroke="#7f0000" stroke-width="2" /></svg>