<?xml version="1.0" encoding="utf-8" ?>
<svg baseProfile="tiny" height="128" version="1.2" viewBox="0,0,128,128" width="128" xmlns="http://www.w3.org/2000/svg" xmlns:ev="http://www.w3.org/2001/xml-events" xmlns:xlink="http://www.w3.org/1999/xlink"><defs /><polyline fill="none" points="78.1017,109.7763 75.0644,114.5492 70.7254,117.1525 59.878,119.322 45.5593,118.0203 32.5424,112.8136 22.9966,105.0034 13.8847,90.6847 8.678,72.0271 9.1119,59.4441 12.1492,45.9932 16.0542,39.4847 26.4678,28.2034 37.3153,19.9593 49.0305,13.4508 63.3492,9.1119 72.461,8.678 84.1763,12.1492 95.0237,21.6949 103.7017,36.4475 108.9085,53.8034 108.9085,70.2915 105.4373,80.2712 99.7966,87.6475 82.4407,99.3627 69.4237,105.8712" stroke="#00007f" stroke-width="2" /><polyline fill="none" points="84.6102,14.3186 77.6678,23.4305 71.1593,38.6169 68.122,49.8983 66.8203,60.3119 68.122,76.3661 72.461,100.6644 76.8,113.6814 80.2712,116.2847" stroke="#0028ff" stroke-width="2" /><polyline fill="none" points="28.6373,28.6373 31.6746,31.2407 35.5797,39.9186 39.4847,62.0475 35.5797,109.7763" stroke="#00d4ff" stroke-width="2" /><polyline fill="none" points="61.1797,31.6746 71.1593,30.8068 86.3458,34.278" stroke="#7cff79" stroke-width="2" /><polyline fill="none" points="54.2373,74.1966 69.8576,72.8949 76.3661,73.3288" stroke="#ffe500" stroke-width="2" /><polyline fill="none" points="62.4814,99.3627 66.8203,99.7966 75.4983,96.7593 86.7797,89.8169" stroke="#ff4600" stroke-width="2" /><polyline fill="none" points="33.8441,45.9932 56.4068,41.6542" stroke="#7f0000" stroke-width="2" /></svg>