<?xml version="1.0" encoding="utf-8" ?>
<svg baseProfile="tiny" height="128" version="1.2" viewBox="0,0,128,128" width="128" xmlns="http://www.w3.org/2000/svg" xmlns:ev="http://www.w3.org/2001/xml-events" xmlns:xlink="http://www.w3.org/1999/xlink"><defs /><polyline fill="none" points="104.5695,19.9593 98.4949,12.5831 84.6102,8.678 59.4441,9.5458 39.9186,15.1864 24.7322,23.4305 19.0915,28.6373 11.2814,41.2203 9.1119,49.0305 8.678,57.7085 9.5458,66.8203 16.4881,80.7051 29.939,91.5525 39.4847,95.0237 50.3322,97.6271 81.139,97.6271 89.3831,96.3254 101.9661,89.3831 113.2475,75.4983 115.8508,69.8576 119.322,56.4068 118.4542,41.2203 115.8508,30.8068 109.3424,23.4305 102.4,21.6949" stroke="#00007f" stroke-width="2" /><polyline fill="none" points="26.0339,21.261 35.5797,31.2407 39.4847,40.3525 39.9186,47.2949 38.1831,62.9153 28.6373,82.4407" stroke="#004cff" stroke-width="2" /><polyline fill="none" points="94.5898,15.6203 89.3831,22.5627 88.0814,26.4678 86.3458,37.7492 86.3458,50.3322 89.3831,59.878 101.5322,75.9322" stroke="#29ffcd" stroke-width="2" /><polyline fill="none" points="33.8441,32.1085 35.5797,26.0339" stroke="#cdff29" stroke-width="2" /><polyline fill="none" points="36.4475,41.6542 38.6169,40.7864" stroke="#ff6700" stroke-width="2" /><polyline fill="none" points="36.0136,53.3695 37.7492,53.8034" stroke="#7f0000" stroke-width="2" /></svg>