<?xml version="1.0" encoding="utf-8" ?>
<svg baseProfile="tiny" height="128" version="1.2" viewBox="0,0,128,128" width="128" xmlns="http://www.w3.org/2000/svg" xmlns:ev="http://www.w3.org/2001/xml-events" xmlns:xlink="http://www.w3.org/1999/xlink"><defs /><polyline fill="none" points="84.6102,16.922 66.8203,9.5458 54.2373,8.678 45.9932,9.5458 38.6169,12.1492 25.6,20.3932 15.6203,32.9763 12.1492,39.9186 8.678,54.2373 9.9797,76.3661 12.5831,83.3085 20.8271,94.5898 33.4102,104.1356 40.7864,107.6068 48.5966,109.7763 65.9525,110.6441 75.0644,108.9085 83.3085,105.4373 99.3627,95.0237 110.6441,81.5729 114.1153,75.0644 115.8508,51.6339 109.3424,36.4475 96.7593,24.2983 89.3831,19.0915 78.1017,13.8847 71.5932,13.0169" stroke="#00007f" stroke-width="2" /><polyline fill="none" points="43.8237,12.5831 47.7288,13.8847 59.0102,26.9017 67.6881,48.5966 70.2915,66.3864 70.2915,77.2339 65.0847,91.9864 44.2576,119.322" stroke="#0010ff" stroke-width="2" /><polyline fill="none" points="100.6644,20.8271 96.3254,19.9593 87.6475,32.9763 80.2712,53.3695 77.6678,67.2542 78.1017,85.0441 82.0068,95.8915 88.0814,104.1356 99.7966,111.078" stroke="#00a4ff" stroke-width="2" /><polyline fill="none" points="73.7627,35.1458 78.5356,33.8441 95.8915,33.4102" stroke="#3fffb7" stroke-width="2" /><polyline fill="none" points="77.6678,62.4814 84.6102,62.4814 95.8915,59.878" stroke="#b7ff3f" stroke-width="2" /><polyline fill="none" points="75.0644,87.6475 93.2881,82.8746" stroke="#ffb900" stroke-width="2" /><polyline fill="none" points="85.0441,108.4746 98.061,100.2305" stroke="#ff3000" stroke-width="2" /><polyline fill="none" points="43.8237,33.4102 41.6542,32.1085 42.0881,30.3729 65.9525,20.8271" stroke="#7f0000" stroke-width="2" /></svg>