<?xml version="1.0" encoding="utf-8" ?>
<svg baseProfile="tiny" height="128" version="1.2" viewBox="0,0,128,128" width="128" xmlns="http://www.w3.org/2000/svg" xmlns:ev="http://www.w3.org/2001/xml-events" xmlns:xlink="http://www.w3.org/1999/xlink"><defs /><polyline fill="none" points="108.4082,17.8503 94.4762,12.6259 89.6871,12.1905 55.7279,12.1905 42.6667,14.3673 16.5442,34.8299 9.5782,57.034 8.7075,64.8707 50.068,91.8639 78.3673,90.1224 98.3946,69.2245 117.551,57.4694 119.2925,53.1156 118.8571,33.0884 109.7143,20.898 100.5714,16.5442" stroke="#00007f" stroke-width="2" /><polyline fill="none" points="37.4422,25.6871 33.9592,30.9116 33.5238,36.1361 33.9592,37.8776 41.3605,42.6667 43.5374,46.1497 45.7143,54.4218 45.7143,60.517 37.0068,90.9932 34.8299,103.1837 36.5714,103.619" stroke="#00d4ff" stroke-width="2" /><polyline fill="none" points="81.8503,8.7075 81.415,74.8844 82.2857,85.3333" stroke="#ffe500" stroke-width="2" /><polyline fill="none" points="15.6735,53.1156 49.1973,53.9864 99.7007,61.8231 106.6667,61.8231" stroke="#7f0000" stroke-width="2" /></svg>