<?xml version="1.0" encoding="utf-8" ?>
<svg baseProfile="tiny" height="128" version="1.2" viewBox="0,0,128,128" width="128" xmlns="http://www.w3.org/2000/svg" xmlns:ev="http://www.w3.org/2001/xml-events" xmlns:xlink="http://www.w3.org/1999/xlink"><defs /><polyline fill="none" points="54.6712,9.1119 30.8068,17.7898 22.1288,24.7322 14.7525,33.4102 10.4136,43.3898 8.678,51.2 9.9797,69.8576 13.8847,78.5356 19.0915,84.1763 28.6373,92.4203 40.7864,98.4949 54.6712,101.5322 65.9525,101.5322 84.6102,98.061 101.5322,92.8542 107.6068,88.5153 113.2475,81.5729 117.1525,72.0271 119.322,58.1424 115.8508,40.7864 108.0407,22.1288 98.4949,12.5831 87.6475,9.1119 54.6712,8.678 51.2,9.9797" stroke="#00007f" stroke-width="2" /><polyline fill="none" points="29.939,19.9593 40.3525,22.9966 42.0881,25.1661 45.9932,33.8441 47.7288,57.7085 45.9932,73.3288 43.3898,81.139 40.3525,85.478 33.4102,90.2508" stroke="#7cff79" stroke-width="2" /><polyline fill="none" points="101.5322,17.3559 91.5525,23.8644 85.0441,30.3729 82.8746,41.6542 82.8746,53.3695 93.722,82.0068 101.9661,88.5153 111.078,93.2881" stroke="#7f0000" stroke-width="2" /></svg>