<?xml version="1.0" encoding="utf-8" ?>
<svg baseProfile="tiny" height="128" version="1.2" viewBox="0,0,128,128" width="128" xmlns="http://www.w3.org/2000/svg" xmlns:ev="http://www.w3.org/2001/xml-events" xmlns:xlink="http://www.w3.org/1999/xlink"><defs /><polyline fill="none" points="39.4847,12.5831 36.4475,12.5831 28.6373,17.3559 22.1288,25.1661 15.6203,38.6169 9.1119,64.2169 8.678,80.2712 12.5831,90.2508 19.5254,102.4 24.7322,108.4746 35.1458,116.2847 48.5966,119.322 57.2746,118.8881 72.8949,112.8136 77.6678,108.4746 86.3458,96.7593 96.3254,66.8203 98.4949,53.8034 97.6271,41.2203 90.6847,27.7695 83.7424,21.261 69.8576,12.5831 60.7458,9.5458 46.4271,8.678 34.7119,14.3186 32.9763,12.1492 38.6169,28.2034 40.7864,39.9186 41.2203,57.2746 31.6746,80.7051 18.2237,100.2305" stroke="#00007f" stroke-width="2" /><polyline fill="none" points="18.2237,100.2305 18.2237,100.2305" stroke="#0080ff" stroke-width="2" /><polyline fill="none" points="18.2237,100.2305 18.2237,100.2305" stroke="#7cff79" stroke-width="2" /><polyline fill="none" points="95.4576,39.0508 95.4576,39.0508" stroke="#ff9400" stroke-width="2" /><polyline fill="none" points="95.4576,39.0508 95.4576,39.0508" stroke="#7f0000" stroke-width="2" /></svg>