<?xml version="1.0" encoding="utf-8" ?>
<svg baseProfile="tiny" height="128" version="1.2" viewBox="0,0,128,128" width="128" xmlns="http://www.w3.org/2000/svg" xmlns:ev="http://www.w3.org/2001/xml-events" xmlns:xlink="http://www.w3.org/1999/xlink"><defs /><polyline fill="none" points="100.2305,24.7322 88.5153,18.6576 59.4441,11.2814 30.3729,8.678 25.6,9.1119 21.6949,11.7153 16.4881,18.6576 10.4136,37.3153 8.678,49.0305 9.5458,66.8203 15.1864,75.0644 41.6542,85.0441 57.2746,87.6475 75.0644,87.6475 85.478,86.3458 99.3627,82.0068 109.7763,75.4983 114.9831,66.3864 118.4542,58.1424 119.322,47.2949 116.7186,44.2576 90.6847,33.4102" stroke="#00007f" stroke-width="2" /><polyline fill="none" points="49.4644,10.4136 51.2,38.6169 49.4644,51.2 47.2949,58.1424 42.9559,64.2169 29.939,75.9322" stroke="#7cff79" stroke-width="2" /><polyline fill="none" points="88.5153,15.1864 75.9322,15.1864 72.0271,19.9593 71.5932,29.5051 75.9322,41.6542 76.8,56.4068 79.4034,64.6508 85.478,72.0271 91.9864,76.3661 94.1559,76.8 95.8915,74.6305" stroke="#7f0000" stroke-width="2" /></svg>