<?xml version="1.0" encoding="utf-8" ?>
<svg baseProfile="tiny" height="128" version="1.2" viewBox="0,0,128,128" width="128" xmlns="http://www.w3.org/2000/svg" xmlns:ev="http://www.w3.org/2001/xml-events" xmlns:xlink="http://www.w3.org/1999/xlink"><defs /><polyline fill="none" points="83.3085,9.9797 73.3288,10.4136 49.0305,19.9593 25.6,34.7119 16.4881,43.3898 12.1492,52.0678 12.1492,62.4814 16.0542,72.0271 32.1085,93.722 49.0305,110.2102 67.6881,119.322 86.3458,119.322 93.2881,117.1525 101.0983,111.9458 107.6068,104.1356 114.1153,93.2881 117.5864,81.139 118.0203,60.3119 112.3797,43.3898 105.8712,29.939 101.5322,23.8644 95.0237,18.2237 88.0814,13.0169 78.5356,8.678" stroke="#00007f" stroke-width="2" /><polyline fill="none" points="85.478,14.3186 82.8746,19.9593 80.2712,38.6169 80.7051,69.4237 87.2136,76.3661 103.2678,87.2136 115.8508,91.1186 118.4542,91.1186 115.4169,88.0814" stroke="#7cff79" stroke-width="2" /><polyline fill="none" points="8.678,59.0102 18.2237,54.6712 35.1458,54.2373 45.1254,59.0102 50.7661,64.2169 65.5186,85.478 68.5559,94.1559 68.5559,108.9085 62.0475,116.7186" stroke="#7f0000" stroke-width="2" /></svg>