<?xml version="1.0" encoding="utf-8" ?>
<svg baseProfile="tiny" height="128" version="1.2" viewBox="0,0,128,128" width="128" xmlns="http://www.w3.org/2000/svg" xmlns:ev="http://www.w3.org/2001/xml-events" xmlns:xlink="http://www.w3.org/1999/xlink"><defs /><polyline fill="none" points="78.9695,13.0169 75.0644,10.8475 58.5763,8.678 51.2,9.1119 42.9559,12.1492 28.6373,22.1288 16.922,39.4847 12.5831,49.8983 9.5458,61.1797 8.678,81.139 11.2814,89.8169 16.0542,98.061 28.6373,110.6441 43.3898,116.2847 60.7458,119.322 66.8203,118.8881 75.0644,115.8508 80.2712,112.3797 88.9492,102.8339 94.5898,92.8542 97.6271,84.1763 98.9288,73.7627 99.3627,51.6339 97.6271,40.7864 94.5898,31.6746 88.0814,19.0915 81.5729,13.0169 75.0644,10.4136" stroke="#00007f" stroke-width="2" /><polyline fill="none" points="36.8814,13.0169 43.8237,44.6915 44.2576,68.122 37.3153,90.6847 29.939,105.8712" stroke="#0080ff" stroke-width="2" /><polyline fill="none" points="84.6102,15.6203 73.7627,39.0508 68.5559,65.9525 67.2542,75.4983 67.2542,98.061 69.4237,110.6441" stroke="#7cff79" stroke-width="2" /><polyline fill="none" points="36.0136,83.3085 42.0881,84.6102" stroke="#ff9400" stroke-width="2" /><polyline fill="none" points="36.8814,65.9525 49.0305,66.8203" stroke="#7f0000" stroke-width="2" /></svg>