<?xml version="1.0" encoding="utf-8" ?>
<svg baseProfile="tiny" height="128" version="1.2" viewBox="0,0,128,128" width="128" xmlns="http://www.w3.org/2000/svg" xmlns:ev="http://www.w3.org/2001/xml-events" xmlns:xlink="http://www.w3.org/1999/xlink"><defs /><polyline fill="none" points="73.3288,14.3186 68.122,10.4136 62.9153,8.678 55.539,8.678 47.2949,11.7153 38.6169,16.4881 31.6746,23.4305 25.1661,31.6746 20.8271,40.3525 18.2237,54.6712 19.5254,64.6508 22.5627,74.1966 31.6746,85.478 45.1254,90.2508 54.6712,90.6847 69.8576,88.5153 85.9119,84.1763 93.722,80.2712 101.5322,75.0644 108.9085,67.2542 113.2475,60.7458 116.7186,49.8983 116.7186,42.0881 113.6814,31.2407 108.9085,22.9966 101.9661,16.922 91.1186,12.1492 82.8746,9.9797 69.4237,9.5458 59.878,11.2814" stroke="#00007f" stroke-width="2" /><polyline fill="none" points="53.3695,10.8475 52.5017,33.4102 49.8983,42.522 45.9932,49.8983 26.0339,71.5932 13.0169,79.8373 8.678,80.7051" stroke="#004cff" stroke-width="2" /><polyline fill="none" points="87.6475,10.4136 85.478,20.3932 85.478,30.3729 88.0814,44.2576 91.1186,52.0678 101.0983,61.6136 111.9458,67.2542 119.322,68.5559" stroke="#29ffcd" stroke-width="2" /><polyline fill="none" points="56.4068,35.5797 63.7831,39.4847 71.5932,41.2203 88.0814,39.9186" stroke="#cdff29" stroke-width="2" /><polyline fill="none" points="45.5593,51.6339 52.0678,57.7085 63.7831,59.4441 74.1966,57.7085 84.6102,52.9356" stroke="#ff6700" stroke-width="2" /><polyline fill="none" points="34.7119,61.1797 49.4644,74.1966 58.5763,77.6678" stroke="#7f0000" stroke-width="2" /></svg>