<?xml version="1.0" encoding="utf-8" ?>
<svg baseProfile="tiny" height="128" version="1.2" viewBox="0,0,128,128" width="128" xmlns="http://www.w3.org/2000/svg" xmlns:ev="http://www.w3.org/2001/xml-events" xmlns:xlink="http://www.w3.org/1999/xlink"><defs /><polyline fill="none" points="65.9525,15.6203 52.5017,9.5458 42.9559,8.678 36.0136,11.7153 27.7695,19.0915 19.0915,29.939 11.7153,41.6542 8.678,54.6712 9.5458,70.2915 13.0169,79.8373 17.3559,85.9119 27.7695,98.061 36.4475,104.5695 53.8034,113.6814 62.9153,116.7186 78.5356,119.322 94.1559,118.0203 100.6644,114.1153 105.0034,108.0407 108.4746,101.5322 110.6441,87.6475 110.6441,81.139 106.3051,66.8203 98.9288,50.7661 91.5525,41.6542 72.8949,29.0712 53.8034,25.6 40.3525,25.6" stroke="#00007f" stroke-width="2" /><polyline fill="none" points="25.6,29.0712 33.4102,33.8441 38.6169,39.0508 45.5593,48.1627 54.2373,63.3492 59.878,77.2339 64.6508,104.5695" stroke="#7cff79" stroke-width="2" /><polyline fill="none" points="85.0441,29.0712 83.7424,40.3525 90.6847,70.7254 98.061,85.478 111.078,98.9288" stroke="#7f0000" stroke-width="2" /></svg>