<?xml version="1.0" encoding="utf-8" ?>
<svg baseProfile="tiny" height="128" version="1.2" viewBox="0,0,128,128" width="128" xmlns="http://www.w3.org/2000/svg" xmlns:ev="http://www.w3.org/2001/xml-events" xmlns:xlink="http://www.w3.org/1999/xlink"><defs /><polyline fill="none" points="83.7424,19.0915 73.7627,13.0169 60.7458,8.678 45.5593,9.9797 29.939,18.6576 18.2237,31.6746 10.8475,46.4271 8.678,59.0102 8.678,77.2339 11.7153,94.1559 14.3186,99.3627 21.6949,108.4746 31.6746,113.2475 47.2949,116.7186 74.1966,118.4542 82.0068,116.2847 95.4576,108.9085 106.739,98.061 115.4169,83.7424 118.8881,70.2915 119.322,49.8983 118.4542,43.3898 111.5119,32.5424 101.9661,25.6 91.9864,22.1288 81.139,21.261" stroke="#00007f" stroke-width="2" /><polyline fill="none" points="59.4441,22.9966 50.3322,28.6373 45.9932,32.9763 35.1458,46.861 31.2407,55.1051 26.4678,74.1966 26.4678,95.8915 28.2034,109.3424 31.6746,108.0407" stroke="#0028ff" stroke-width="2" /><polyline fill="none" points="91.9864,37.7492 78.1017,52.5017 67.6881,68.5559 63.3492,78.1017 61.6136,87.2136 61.6136,104.1356 63.7831,108.9085 66.3864,108.9085" stroke="#00d4ff" stroke-width="2" /><polyline fill="none" points="31.6746,41.6542 38.6169,43.8237 48.5966,49.0305" stroke="#7cff79" stroke-width="2" /><polyline fill="none" points="29.0712,54.2373 46.861,65.0847" stroke="#ffe500" stroke-width="2" /><polyline fill="none" points="73.3288,52.5017 82.8746,61.1797" stroke="#ff4600" stroke-width="2" /><polyline fill="none" points="64.6508,78.5356 72.8949,83.7424" stroke="#7f0000" stroke-width="2" /></svg>