<?xml version="1.0" encoding="utf-8" ?>
<svg baseProfile="tiny" height="128" version="1.2" viewBox="0,0,128,128" width="128" xmlns="http://www.w3.org/2000/svg" xmlns:ev="http://www.w3.org/2001/xml-events" xmlns:xlink="http://www.w3.org/1999/xlink"><defs /><polyline fill="none" points="83.7424,34.278 82.4407,28.6373" stroke="#00007f" stroke-width="2" /><polyline fill="none" points="76.8,13.0169 73.7627,9.9797 55.9729,8.678 46.861,12.1492 36.4475,18.6576 26.4678,28.2034 18.2237,39.9186 12.5831,52.5017 9.1119,66.8203 8.678,81.5729 12.1492,95.0237 19.5254,106.3051 30.8068,114.5492 43.3898,118.4542 57.7085,119.322 72.8949,116.2847 85.478,109.3424 95.0237,99.3627 101.0983,87.2136 102.4,73.7627 101.5322,59.0102 95.4576,45.5593 88.0814,33.4102 80.2712,23.8644 72.461,17.3559 62.9153,13.8847" stroke="#0000fe" stroke-width="2" /><polyline fill="none" points="31.6746,19.0915 30.3729,21.6949 37.3153,39.4847 44.6915,72.0271 45.9932,102.8339 41.6542,115.4169" stroke="#0060ff" stroke-width="2" /><polyline fill="none" points="79.8373,17.3559 77.2339,21.6949 74.6305,40.3525 73.7627,78.5356 75.9322,88.9492 79.8373,95.0237 84.1763,99.7966 88.5153,101.5322" stroke="#00d4ff" stroke-width="2" /><polyline fill="none" points="25.6,46.4271 27.7695,44.2576 44.6915,37.3153" stroke="#4cffaa" stroke-width="2" /><polyline fill="none" points="29.0712,76.8 33.4102,77.2339 45.5593,72.8949" stroke="#aaff4c" stroke-width="2" /><polyline fill="none" points="35.5797,104.1356 47.2949,102.4 59.0102,96.7593" stroke="#ffe500" stroke-width="2" /><polyline fill="none" points="67.6881,32.5424 85.0441,32.9763" stroke="#ff7a00" stroke-width="2" /><polyline fill="none" points="65.5186,67.6881 82.0068,67.2542" stroke="#fe1200" stroke-width="2" /><polyline fill="none" points="68.122,98.9288 95.4576,92.8542" stroke="#7f0000" stroke-width="2" /></svg>