<?xml version="1.0" encoding="utf-8" ?>
<svg baseProfile="tiny" height="128" version="1.2" viewBox="0,0,128,128" width="128" xmlns="http://www.w3.org/2000/svg" xmlns:ev="http://www.w3.org/2001/xml-events" xmlns:xlink="http://www.w3.org/1999/xlink"><defs /><polyline fill="none" points="43.8237,13.8847 17.3559,45.9932 9.9797,62.0475 8.678,83.7424 12.5831,95.0237 22.1288,108.4746 29.5051,114.5492 37.3153,118.4542 51.6339,119.322 60.3119,117.1525 82.4407,104.1356 92.8542,96.7593 105.0034,84.6102 109.3424,73.7627 112.3797,61.6136 110.6441,49.8983 103.2678,26.0339 98.061,17.3559 95.0237,14.7525 87.2136,11.2814 68.9898,8.678 59.878,9.9797 49.4644,19.5254" stroke="#00007f" stroke-width="2" /><polyline fill="none" points="90.2508,13.4508 79.4034,22.1288 65.9525,39.0508 56.8407,67.2542 49.0305,82.0068 45.1254,85.0441 37.7492,87.6475 19.9593,88.5153 16.4881,88.9492 13.8847,91.1186" stroke="#7cff79" stroke-width="2" /><polyline fill="none" points="107.1729,55.1051 95.0237,59.4441 84.6102,69.8576 82.0068,75.9322 79.4034,92.4203 66.3864,105.8712" stroke="#7f0000" stroke-width="2" /></svg>