<?xml version="1.0" encoding="utf-8" ?>
<svg baseProfile="tiny" height="128" version="1.2" viewBox="0,0,128,128" width="128" xmlns="http://www.w3.org/2000/svg" xmlns:ev="http://www.w3.org/2001/xml-events" xmlns:xlink="http://www.w3.org/1999/xlink"><defs /><polyline fill="none" points="68.5559,15.1864 59.4441,9.5458 52.0678,8.678 40.7864,9.9797 28.6373,16.922 18.6576,27.7695 11.7153,39.9186 8.678,52.5017 8.678,65.0847 11.7153,78.1017 18.6576,88.5153 29.0712,96.3254 41.6542,102.4 55.539,105.4373 69.4237,106.3051 82.8746,104.1356 95.8915,97.1932 105.8712,87.6475 113.6814,77.2339 118.0203,67.6881 119.322,58.5763 117.5864,49.0305 112.3797,40.3525 104.1356,32.1085 84.6102,20.3932 74.1966,17.3559 65.0847,16.4881 46.4271,18.6576" stroke="#00007f" stroke-width="2" /><polyline fill="none" points="27.3356,24.2983 37.3153,39.9186 43.3898,58.1424 44.2576,72.8949 42.9559,80.7051 34.278,98.061" stroke="#7cff79" stroke-width="2" /><polyline fill="none" points="78.9695,31.6746 77.2339,32.1085 75.4983,84.1763 80.7051,93.722 83.7424,95.0237 93.2881,95.4576" stroke="#7f0000" stroke-width="2" /></svg>