<?xml version="1.0" encoding="utf-8" ?>
<svg baseProfile="tiny" height="128" version="1.2" viewBox="0,0,128,128" width="128" xmlns="http://www.w3.org/2000/svg" xmlns:ev="http://www.w3.org/2001/xml-events" xmlns:xlink="http://www.w3.org/1999/xlink"><defs /><polyline fill="none" points="50.5034,8.7075 45.2789,8.7075 36.1361,12.6259 21.3333,23.0748 14.3673,30.4762 8.7075,49.6327 11.3197,64.8707 18.2857,75.3197 31.3469,88.381 42.6667,94.9116 54.4218,98.3946 65.7415,100.1361 91.4286,99.2653 96.2177,97.0884 110.1497,84.898 117.551,72.7075 119.2925,65.7415 119.2925,55.2925 113.1973,40.4898 101.4422,28.2993 74.449,14.3673 66.6122,11.7551 52.6803,11.3197 43.5374,13.4966" stroke="#00007f" stroke-width="2" /><polyline fill="none" points="33.5238,15.6735 47.8912,36.5714 53.1156,57.9048 53.1156,70.0952 52.6803,73.5782 43.102,86.6395 30.0408,94.4762" stroke="#7cff79" stroke-width="2" /><polyline fill="none" points="95.3469,24.381 85.7687,31.7823 78.8027,46.585 74.0136,74.449 74.449,87.9456 77.4966,96.2177 81.415,101.8776 90.1224,107.5374" stroke="#7f0000" stroke-width="2" /></svg>