<?xml version="1.0" encoding="utf-8" ?>
<svg baseProfile="tiny" height="128" version="1.2" viewBox="0,0,128,128" width="128" xmlns="http://www.w3.org/2000/svg" xmlns:ev="http://www.w3.org/2001/xml-events" xmlns:xlink="http://www.w3.org/1999/xlink"><defs /><polyline fill="none" points="72.0271,12.5831 57.2746,17.3559 46.4271,24.2983 28.2034,39.9186 17.3559,51.2 11.2814,62.4814 8.678,76.8 14.7525,92.8542 22.1288,107.6068 24.7322,110.6441 33.8441,115.4169 55.9729,119.322 75.4983,118.0203 83.3085,114.1153 91.9864,107.1729 97.6271,101.0983 102.8339,88.5153 107.1729,54.2373 107.1729,32.5424 103.2678,23.8644 97.1932,16.4881 75.9322,8.678" stroke="#00007f" stroke-width="2" /><polyline fill="none" points="39.9186,32.5424 43.8237,52.0678 43.8237,79.8373 36.8814,98.4949 28.6373,108.0407" stroke="#7cff79" stroke-width="2" /><polyline fill="none" points="29.939,43.8237 36.0136,42.0881 52.5017,42.0881" stroke="#7f0000" stroke-width="2" /></svg>