<?xml version="1.0" encoding="utf-8" ?>
<svg baseProfile="tiny" height="128" version="1.2" viewBox="0,0,128,128" width="128" xmlns="http://www.w3.org/2000/svg" xmlns:ev="http://www.w3.org/2001/xml-events" xmlns:xlink="http://www.w3.org/1999/xlink"><defs /><polyline fill="none" points="95.0237,25.6 91.9864,14.3186 89.3831,11.7153 79.4034,8.678 68.122,10.4136 58.1424,15.1864 45.1254,24.7322 20.8271,51.2 11.7153,69.4237 8.678,82.0068 8.678,87.6475 12.5831,98.061 18.6576,104.5695 23.4305,107.6068 32.5424,109.7763 49.8983,108.0407 64.6508,101.5322 75.9322,93.722 92.4203,78.1017 102.4,65.0847 113.2475,42.522 115.4169,35.1458 114.9831,25.6 112.3797,20.3932 106.3051,15.1864 96.3254,11.7153 73.3288,16.0542 64.6508,22.9966" stroke="#00007f" stroke-width="2" /><polyline fill="none" points="41.2203,24.2983 52.5017,29.0712 57.7085,37.7492 59.4441,47.7288 58.1424,62.0475 54.6712,74.1966 44.2576,91.9864 28.2034,112.8136 21.261,119.322" stroke="#00d4ff" stroke-width="2" /><polyline fill="none" points="114.5492,18.2237 64.6508,78.9695 64.2169,91.5525 66.8203,99.7966" stroke="#ffe500" stroke-width="2" /><polyline fill="none" points="114.5492,19.5254 105.4373,20.3932 91.9864,29.0712 79.4034,41.2203 71.1593,52.9356 62.0475,72.0271 58.5763,83.7424 57.2746,99.3627 58.5763,109.7763 60.7458,113.6814" stroke="#7f0000" stroke-width="2" /></svg>