<?xml version="1.0" encoding="utf-8" ?>
<svg baseProfile="tiny" height="128" version="1.2" viewBox="0,0,128,128" width="128" xmlns="http://www.w3.org/2000/svg" xmlns:ev="http://www.w3.org/2001/xml-events" xmlns:xlink="http://www.w3.org/1999/xlink"><defs /><polyline fill="none" points="74.6305,84.6102 45.5593,85.478 25.1661,80.7051 16.922,75.4983 10.4136,68.9898 8.678,59.878 9.1119,50.3322 14.3186,38.1831 20.8271,27.7695 30.8068,18.6576 42.0881,13.0169 53.8034,9.1119 65.9525,8.678 78.1017,9.9797 90.6847,14.7525 101.9661,22.1288 110.6441,31.6746 117.1525,42.522 119.322,51.6339 118.4542,59.4441 106.3051,70.2915 85.0441,82.0068 65.9525,90.6847 58.5763,90.6847 52.5017,85.478 49.8983,79.4034" stroke="#00007f" stroke-width="2" /><polyline fill="none" points="32.9763,16.4881 39.4847,19.0915 53.8034,31.6746 63.7831,50.3322 62.0475,66.8203 53.8034,78.5356 44.2576,85.0441 39.4847,85.0441 35.5797,82.0068" stroke="#0000de" stroke-width="2" /><polyline fill="none" points="95.8915,12.5831 89.3831,20.8271 82.8746,31.6746 77.6678,44.2576 74.6305,58.1424 73.7627,69.8576 76.8,78.1017 81.5729,82.8746 87.2136,83.7424" stroke="#0028ff" stroke-width="2" /><polyline fill="none" points="77.2339,18.6576 91.5525,23.8644" stroke="#0080ff" stroke-width="2" /><polyline fill="none" points="76.3661,37.7492 87.6475,41.6542" stroke="#00d4ff" stroke-width="2" /><polyline fill="none" points="80.7051,55.539 91.9864,56.4068 98.061,55.1051" stroke="#36ffc0" stroke-width="2" /><polyline fill="none" points="74.1966,72.0271 80.2712,70.7254 91.1186,63.7831" stroke="#7cff79" stroke-width="2" /><polyline fill="none" points="78.9695,73.3288 85.9119,68.9898" stroke="#c0ff36" stroke-width="2" /><polyline fill="none" points="28.2034,32.1085 38.6169,29.0712" stroke="#ffe500" stroke-width="2" /><polyline fill="none" points="37.7492,42.9559 56.4068,31.2407" stroke="#ff9400" stroke-width="2" /><polyline fill="none" points="53.3695,53.8034 66.8203,45.9932" stroke="#ff4600" stroke-width="2" /><polyline fill="none" points="50.7661,66.8203 56.8407,63.7831" stroke="#de0000" stroke-width="2" /><polyline fill="none" points="62.4814,64.6508 71.1593,62.0475 86.7797,55.539" stroke="#7f0000" stroke-width="2" /></svg>