<?xml version="1.0" encoding="utf-8" ?>
<svg baseProfile="tiny" height="128" version="1.2" viewBox="0,0,128,128" width="128" xmlns="http://www.w3.org/2000/svg" xmlns:ev="http://www.w3.org/2001/xml-events" xmlns:xlink="http://www.w3.org/1999/xlink"><defs /><polyline fill="none" points="54.2373,10.4136 51.2,8.678 34.7119,9.9797 22.1288,18.6576 15.6203,25.1661 13.0169,29.939 9.1119,49.4644 8.678,80.7051 12.5831,93.2881 19.0915,104.1356 28.2034,111.9458 41.2203,117.1525 58.1424,119.322 76.3661,118.4542 90.6847,110.2102 96.3254,103.7017 105.4373,88.5153 109.3424,72.0271 109.3424,56.4068 104.5695,45.1254 95.0237,29.5051 90.2508,24.2983 82.8746,19.5254 64.6508,13.0169 55.9729,12.5831" stroke="#00007f" stroke-width="2" /><polyline fill="none" points="37.3153,14.3186 37.3153,21.6949" stroke="#0000fe" stroke-width="2" /><polyline fill="none" points="39.9186,44.2576 39.4847,52.9356" stroke="#0060ff" stroke-width="2" /><polyline fill="none" points="40.7864,71.5932 40.7864,71.5932" stroke="#00d4ff" stroke-width="2" /><polyline fill="none" points="40.7864,91.5525 38.6169,99.7966 35.5797,105.8712" stroke="#4cffaa" stroke-width="2" /><polyline fill="none" points="75.9322,19.0915 71.1593,41.6542" stroke="#aaff4c" stroke-width="2" /><polyline fill="none" points="72.8949,61.6136 75.4983,72.461 78.5356,77.2339" stroke="#ffe500" stroke-width="2" /><polyline fill="none" points="86.7797,98.9288 88.0814,107.1729" stroke="#ff7a00" stroke-width="2" /><polyline fill="none" points="36.0136,9.1119 36.4475,14.7525 39.4847,22.5627" stroke="#fe1200" stroke-width="2" /><polyline fill="none" points="46.861,39.4847 45.1254,53.3695" stroke="#7f0000" stroke-width="2" /></svg>