<?xml version="1.0" encoding="utf-8" ?>
<svg baseProfile="tiny" height="128" version="1.2" viewBox="0,0,128,128" width="128" xmlns="http://www.w3.org/2000/svg" xmlns:ev="http://www.w3.org/2001/xml-events" xmlns:xlink="http://www.w3.org/1999/xlink"><defs /><polyline fill="none" points="17.3559,20.8271 26.0339,22.1288 39.0508,30.8068 45.5593,40.3525 52.5017,59.4441 52.0678,73.3288 40.7864,88.9492 14.7525,107.6068 18.6576,95.4576" stroke="#00007f" stroke-width="2" /><polyline fill="none" points="88.5153,26.9017 82.4407,35.5797 75.9322,50.7661 72.461,65.0847 72.461,75.9322 74.1966,83.3085 78.5356,94.5898 83.7424,100.6644 89.8169,105.0034 97.6271,107.6068 94.1559,103.2678" stroke="#00d4ff" stroke-width="2" /><polyline fill="none" points="81.5729,106.3051 70.2915,112.8136 60.3119,116.2847 41.6542,118.8881 18.2237,97.1932 11.2814,85.9119 8.678,73.3288 8.678,65.5186 12.5831,50.7661 18.2237,39.4847 25.6,28.6373 36.4475,17.3559 45.5593,11.2814 56.8407,8.678 73.3288,8.678 80.2712,10.8475 93.722,21.6949 110.2102,40.3525 114.1153,48.5966 114.5492,63.3492 113.6814,68.5559 109.3424,76.3661 69.4237,119.322 66.8203,116.2847" stroke="#ffe500" stroke-width="2" /><polyline fill="none" points="63.7831,32.9763 77.2339,41.6542" stroke="#7f0000" stroke-width="2" /></svg>