<?xml version="1.0" encoding="utf-8" ?>
<svg baseProfile="tiny" height="128" version="1.2" viewBox="0,0,128,128" width="128" xmlns="http://www.w3.org/2000/svg" xmlns:ev="http://www.w3.org/2001/xml-events" xmlns:xlink="http://www.w3.org/1999/xlink"><defs /><polyline fill="none" points="67.2542,98.061 54.6712,84.1763 21.261,54.6712 13.4508,30.3729 13.4508,26.9017 16.4881,25.1661 29.939,33.4102 35.1458,45.1254 47.7288,63.3492 69.4237,85.0441 77.6678,91.9864 91.5525,110.6441 94.5898,119.322 91.9864,118.4542 78.9695,101.5322 66.8203,94.5898" stroke="#00007f" stroke-width="2" /><polyline fill="none" points="79.8373,13.0169 76.8,12.1492 73.7627,14.7525 71.5932,30.3729 74.1966,32.5424 94.1559,32.5424 95.0237,29.939 95.0237,11.7153 89.8169,8.678 77.2339,8.678 73.7627,10.8475" stroke="#0080ff" stroke-width="2" /><polyline fill="none" points="88.0814,108.9085 89.3831,112.3797 90.2508,109.3424 91.5525,114.9831 96.7593,118.8881" stroke="#7cff79" stroke-width="2" /><polyline fill="none" points="24.7322,27.7695 16.4881,25.1661 13.4508,26.4678 9.1119,31.6746 8.678,40.3525 25.1661,53.8034 42.522,61.6136 57.2746,72.0271 68.9898,90.6847 87.6475,110.2102" stroke="#ff9400" stroke-width="2" /><polyline fill="none" points="20.3932,30.3729 22.9966,37.3153 61.1797,91.1186 54.6712,78.5356 32.5424,54.2373 19.5254,46.4271 17.3559,43.8237 24.7322,58.5763 32.9763,67.6881" stroke="#7f0000" stroke-width="2" /></svg>