<?xml version="1.0" encoding="utf-8" ?>
<svg baseProfile="tiny" height="128" version="1.2" viewBox="0,0,128,128" width="128" xmlns="http://www.w3.org/2000/svg" xmlns:ev="http://www.w3.org/2001/xml-events" xmlns:xlink="http://www.w3.org/1999/xlink"><defs /><polyline fill="none" points="73.3288,95.4576 69.8576,94.5898" stroke="#00007f" stroke-width="2" /><polyline fill="none" points="19.0915,82.4407 10.4136,78.1017 8.678,71.1593 11.7153,56.4068 21.6949,40.3525 38.6169,24.7322 49.0305,17.7898 59.878,12.5831 71.5932,9.1119 90.6847,8.678 105.4373,15.1864 114.5492,23.4305 118.8881,36.0136 119.322,44.2576 116.7186,60.7458 112.8136,68.5559 101.9661,82.8746 91.1186,92.8542 76.8,98.4949 62.4814,100.2305 48.5966,98.9288 31.6746,93.2881 24.2983,85.0441 22.9966,78.1017 23.8644,72.8949" stroke="#00d4ff" stroke-width="2" /><polyline fill="none" points="89.3831,13.0169 79.8373,20.8271 70.7254,32.1085 63.7831,44.2576 61.1797,55.539 62.0475,66.3864 65.0847,75.4983 74.6305,90.2508 79.8373,91.5525" stroke="#ffe500" stroke-width="2" /><polyline fill="none" points="31.6746,26.9017 46.4271,33.8441 52.9356,40.3525 56.4068,47.7288 56.4068,60.3119 49.0305,75.0644 39.4847,86.7797 29.5051,93.722 22.5627,94.5898" stroke="#7f0000" stroke-width="2" /></svg>