<?xml version="1.0" encoding="utf-8" ?>
<svg baseProfile="tiny" height="128" version="1.2" viewBox="0,0,128,128" width="128" xmlns="http://www.w3.org/2000/svg" xmlns:ev="http://www.w3.org/2001/xml-events" xmlns:xlink="http://www.w3.org/1999/xlink"><defs /><polyline fill="none" points="74.6305,14.7525 67.6881,13.0169 59.0102,13.8847 46.4271,21.261 33.4102,36.0136 28.6373,46.4271 28.2034,55.1051 30.3729,59.878 33.8441,63.3492 46.4271,70.2915 52.0678,71.5932 70.7254,71.1593 86.3458,63.3492 92.4203,55.9729 94.1559,51.2 94.1559,33.4102 86.7797,18.6576 80.2712,12.5831 74.1966,9.9797 69.4237,8.678 60.7458,9.1119" stroke="#00007f" stroke-width="2" /><polyline fill="none" points="42.9559,27.7695 39.9186,32.5424" stroke="#0000ac" stroke-width="2" /><polyline fill="none" points="39.9186,36.8814 39.0508,39.9186" stroke="#0000de" stroke-width="2" /><polyline fill="none" points="42.522,49.4644 45.1254,54.6712" stroke="#0000ff" stroke-width="2" /><polyline fill="none" points="47.2949,55.1051 52.0678,62.4814 61.6136,65.9525" stroke="#0028ff" stroke-width="2" /><polyline fill="none" points="76.8,14.3186 79.4034,20.8271" stroke="#0054ff" stroke-width="2" /><polyline fill="none" points="82.4407,26.9017 82.4407,36.4475" stroke="#0080ff" stroke-width="2" /><polyline fill="none" points="81.139,42.522 80.2712,46.4271" stroke="#00a8ff" stroke-width="2" /><polyline fill="none" points="77.6678,58.5763 74.1966,62.4814" stroke="#00d4ff" stroke-width="2" /><polyline fill="none" points="71.5932,64.6508 67.2542,67.2542" stroke="#15ffe1" stroke-width="2" /><polyline fill="none" points="39.0508,30.3729 38.1831,42.0881" stroke="#36ffc0" stroke-width="2" /><polyline fill="none" points="43.3898,50.7661 45.5593,58.1424" stroke="#59ff9d" stroke-width="2" /><polyline fill="none" points="57.7085,68.9898 57.7085,68.9898" stroke="#7cff79" stroke-width="2" /><polyline fill="none" points="25.6,52.9356 25.6,52.9356" stroke="#9dff59" stroke-width="2" /><polyline fill="none" points="47.2949,49.4644 53.3695,49.4644" stroke="#c0ff36" stroke-width="2" /><polyline fill="none" points="66.8203,43.3898 70.7254,44.6915" stroke="#e4ff12" stroke-width="2" /><polyline fill="none" points="84.6102,41.6542 88.9492,42.0881" stroke="#ffe500" stroke-width="2" /><polyline fill="none" points="93.722,39.4847 93.722,39.4847" stroke="#ffbd00" stroke-width="2" /><polyline fill="none" points="67.6881,39.9186 60.7458,40.3525" stroke="#ff9400" stroke-width="2" /><polyline fill="none" points="37.7492,43.3898 32.9763,44.2576" stroke="#ff6f00" stroke-width="2" /><polyline fill="none" points="19.5254,45.5593 23.4305,43.3898" stroke="#ff4600" stroke-width="2" /><polyline fill="none" points="23.8644,115.4169 22.5627,111.9458" stroke="#ff1d00" stroke-width="2" /><polyline fill="none" points="19.9593,119.322 16.4881,106.3051 17.7898,89.8169 22.5627,82.4407 25.1661,81.5729 30.3729,82.0068 35.1458,87.6475" stroke="#de0000" stroke-width="2" /><polyline fill="none" points="8.678,105.4373 45.5593,95.4576" stroke="#ac0000" stroke-width="2" /><polyline fill="none" points="35.5797,95.0237 37.7492,105.0034 43.8237,113.2475 47.7288,110.6441 52.9356,101.5322 55.539,99.3627 59.878,108.4746 64.2169,111.9458 68.5559,111.9458 82.8746,95.0237 79.4034,96.7593 77.6678,100.2305 78.9695,105.0034 83.7424,107.1729 96.3254,108.0407" stroke="#7f0000" stroke-width="2" /></svg>