<?xml version="1.0" encoding="utf-8" ?>
<svg baseProfile="tiny" height="128" version="1.2" viewBox="0,0,128,128" width="128" xmlns="http://www.w3.org/2000/svg" xmlns:ev="http://www.w3.org/2001/xml-events" xmlns:xlink="http://www.w3.org/1999/xlink"><defs /><polyline fill="none" points="87.372,13.1058 71.6451,8.7372 55.4812,9.1741 40.628,13.9795 26.6485,22.7167 20.0956,31.4539 10.9215,51.5495 8.7372,61.5973 9.1741,77.3242 13.5427,86.9352 23.5904,97.8567 37.1331,105.7201 47.6177,109.215 78.198,115.3311 88.6826,115.7679 100.041,113.1468 108.7782,107.4676 117.0785,94.3618 119.2628,82.1297 119.2628,53.2969 117.5154,40.628 114.0205,32.3276 105.7201,22.2799 100.9147,17.9113 86.9352,11.3584" stroke="#00007f" stroke-width="2" /><polyline fill="none" points="40.1911,16.1638 47.6177,25.7747 51.1126,33.2014 53.7338,46.3072 53.2969,54.6075 49.802,69.0239 44.5597,79.0717 34.0751,91.7406 26.2116,98.2935" stroke="#00d4ff" stroke-width="2" /><polyline fill="none" points="100.9147,15.727 93.4881,22.7167 86.4983,33.6382 79.0717,51.9863 73.8294,68.1502 75.1399,93.4881 80.8191,107.9044 86.4983,115.7679" stroke="#ffe500" stroke-width="2" /><polyline fill="none" points="76.8874,12.6689 66.8396,41.5017 54.6075,92.1775" stroke="#7f0000" stroke-width="2" /></svg>