<?xml version="1.0" encoding="utf-8" ?>
<svg baseProfile="tiny" height="128" version="1.2" viewBox="0,0,128,128" width="128" xmlns="http://www.w3.org/2000/svg" xmlns:ev="http://www.w3.org/2001/xml-events" xmlns:xlink="http://www.w3.org/1999/xlink"><defs /><polyline fill="none" points="105.0034,43.8237 105.4373,36.8814 100.6644,29.0712 91.1186,19.0915 79.8373,13.4508 68.5559,12.1492 55.9729,12.5831 39.9186,21.261 25.1661,40.3525 20.8271,50.3322 18.2237,63.7831 18.2237,69.4237 20.3932,74.6305 26.0339,85.0441 34.278,94.1559 51.2,102.8339 62.9153,106.3051 73.3288,107.6068 90.2508,106.3051 100.6644,101.5322 105.8712,97.1932 113.2475,86.3458 118.0203,73.3288 119.322,59.4441 117.1525,43.8237 113.6814,36.4475 104.1356,24.7322 93.722,16.4881 83.7424,12.5831 75.0644,10.8475 60.3119,11.7153" stroke="#00007f" stroke-width="2" /><polyline fill="none" points="65.9525,12.5831 62.9153,8.678 57.7085,30.8068 56.4068,41.2203 55.9729,76.3661 54.6712,79.8373 49.8983,87.6475 45.9932,91.1186 39.4847,91.5525 35.1458,84.6102 33.4102,78.5356" stroke="#0080ff" stroke-width="2" /><polyline fill="none" points="91.9864,12.5831 76.3661,72.0271 74.1966,91.9864 76.3661,97.1932 84.6102,101.5322 93.722,101.0983 95.4576,97.6271" stroke="#7cff79" stroke-width="2" /><polyline fill="none" points="108.0407,48.5966 86.7797,48.5966 49.8983,42.9559 26.0339,42.0881 17.7898,39.4847" stroke="#ff9400" stroke-width="2" /><polyline fill="none" points="114.1153,74.1966 81.139,69.8576 32.1085,66.3864 8.678,66.3864" stroke="#7f0000" stroke-width="2" /></svg>