<?xml version="1.0" encoding="utf-8" ?>
<svg baseProfile="tiny" height="128" version="1.2" viewBox="0,0,128,128" width="128" xmlns="http://www.w3.org/2000/svg" xmlns:ev="http://www.w3.org/2001/xml-events" xmlns:xlink="http://www.w3.org/1999/xlink"><defs /><polyline fill="none" points="109.3424,39.9186 108.9085,34.278 101.0983,25.1661 90.2508,17.7898 78.9695,12.1492 63.7831,8.678 53.3695,8.678 42.0881,13.0169 28.2034,22.9966 16.0542,42.9559 9.5458,63.7831 8.678,80.2712 9.5458,83.7424 14.3186,92.4203 22.5627,101.9661 33.8441,110.2102 42.522,114.9831 57.2746,118.8881 68.5559,119.322 75.0644,118.4542 88.0814,113.2475 95.4576,108.9085 104.5695,99.7966 111.5119,86.7797 114.1153,78.5356 115.4169,67.2542 110.2102,40.3525 105.8712,29.0712" stroke="#00007f" stroke-width="2" /><polyline fill="none" points="36.0136,17.3559 40.3525,52.0678 41.2203,69.8576 37.7492,79.8373 22.9966,101.9661" stroke="#7cff79" stroke-width="2" /><polyline fill="none" points="84.6102,13.0169 76.8,39.0508 75.9322,72.461 83.3085,90.2508 92.4203,104.1356 100.6644,111.9458 113.6814,116.7186" stroke="#7f0000" stroke-width="2" /></svg>