<?xml version="1.0" encoding="utf-8" ?>
<svg baseProfile="tiny" height="128" version="1.2" viewBox="0,0,128,128" width="128" xmlns="http://www.w3.org/2000/svg" xmlns:ev="http://www.w3.org/2001/xml-events" xmlns:xlink="http://www.w3.org/1999/xlink"><defs /><polyline fill="none" points="74.6305,8.678 58.5763,14.7525 39.0508,30.3729 22.9966,53.3695 13.4508,72.461 9.9797,85.478 8.678,98.061 10.4136,106.739 13.8847,113.6814 20.3932,118.4542 28.2034,119.322 41.2203,116.2847 56.4068,103.2678 74.1966,79.8373 78.9695,68.122 80.7051,45.9932 79.4034,34.278 74.6305,13.8847" stroke="#00007f" stroke-width="2" /><polyline fill="none" points="32.5424,39.0508 36.8814,46.4271 38.6169,52.0678 38.1831,60.7458 32.5424,85.9119 22.5627,117.1525" stroke="#7cff79" stroke-width="2" /><polyline fill="none" points="78.1017,24.7322 73.7627,30.8068 61.6136,55.9729 55.9729,68.9898 50.7661,89.3831 51.2,105.4373 52.9356,109.7763" stroke="#7f0000" stroke-width="2" /></svg>