<?xml version="1.0" encoding="utf-8" ?>
<svg baseProfile="tiny" height="128" version="1.2" viewBox="0,0,128,128" width="128" xmlns="http://www.w3.org/2000/svg" xmlns:ev="http://www.w3.org/2001/xml-events" xmlns:xlink="http://www.w3.org/1999/xlink"><defs /><polyline fill="none" points="70.2915,15.6203 68.5559,10.4136 63.3492,8.678 55.1051,9.1119 40.7864,14.7525 29.5051,25.6 19.0915,42.9559 12.1492,59.4441 9.5458,68.5559 8.678,81.5729 9.1119,96.3254 13.4508,114.9831 15.6203,117.5864 22.5627,119.322 35.1458,118.8881 42.0881,116.7186 55.539,108.0407 72.8949,87.6475 85.478,67.6881 88.9492,53.3695 89.3831,36.4475 85.478,26.9017 77.2339,14.3186 74.6305,13.0169 68.9898,13.4508 53.8034,22.1288" stroke="#00007f" stroke-width="2" /><polyline fill="none" points="34.7119,15.6203 35.5797,19.5254 42.0881,28.6373 45.1254,35.5797 46.4271,44.2576 45.9932,57.7085 40.3525,71.1593 26.0339,89.3831 13.0169,103.2678" stroke="#7cff79" stroke-width="2" /><polyline fill="none" points="73.7627,26.0339 67.6881,31.6746 54.2373,60.3119 47.2949,85.0441 47.7288,94.5898 50.3322,99.7966 57.7085,105.8712 61.6136,107.1729 65.0847,106.3051" stroke="#7f0000" stroke-width="2" /></svg>