<?xml version="1.0" encoding="utf-8" ?>
<svg baseProfile="tiny" height="128" version="1.2" viewBox="0,0,128,128" width="128" xmlns="http://www.w3.org/2000/svg" xmlns:ev="http://www.w3.org/2001/xml-events" xmlns:xlink="http://www.w3.org/1999/xlink"><defs /><polyline fill="none" points="40.628,10.4846 37.1331,8.7372 31.8908,10.4846 27.0853,15.727 20.0956,27.959 10.4846,49.802 8.7372,62.9078 10.9215,78.198 12.6689,81.256 19.6587,90.43 31.4539,99.6041 44.9966,106.5939 67.2765,115.7679 82.5666,119.2628 100.4778,119.2628 103.9727,114.8942 107.0307,105.2833 110.9625,98.7304 112.7099,87.372 112.273,74.2662 107.4676,62.9078 89.5563,34.5119 69.0239,12.2321 62.9078,9.1741 50.2389,8.7372 40.1911,10.9215 35.3857,13.1058 29.2696,20.5324" stroke="#00007f" stroke-width="2" /><polyline fill="none" points="60.2867,9.1741 41.9386,28.3959 33.2014,43.686 29.2696,64.2184 29.2696,77.3242 34.9488,96.1092 34.5119,101.7884 33.2014,98.2935" stroke="#00d4ff" stroke-width="2" /><polyline fill="none" points="9.1741,32.3276 12.2321,33.2014 27.0853,49.802 39.3174,50.2389 61.1604,54.6075 70.7713,55.0444 87.372,52.4232 92.6143,49.3652 94.3618,43.686" stroke="#ffe500" stroke-width="2" /><polyline fill="none" points="77.7611,28.8328 77.7611,28.8328" stroke="#7f0000" stroke-width="2" /></svg>