<?xml version="1.0" encoding="utf-8" ?>
<svg baseProfile="tiny" height="128" version="1.2" viewBox="0,0,128,128" width="128" xmlns="http://www.w3.org/2000/svg" xmlns:ev="http://www.w3.org/2001/xml-events" xmlns:xlink="http://www.w3.org/1999/xlink"><defs /><polyline fill="none" points="54.2373,20.3932 48.5966,16.0542 38.6169,17.3559 29.0712,25.1661 15.6203,44.2576 9.5458,60.7458 8.678,87.6475 11.2814,94.1559 14.7525,100.2305 24.7322,108.0407 36.4475,114.1153 55.1051,119.322 64.6508,119.322 70.2915,117.1525 91.1186,101.5322 99.7966,92.8542 104.1356,82.8746 106.739,71.1593 106.3051,58.5763 104.1356,54.2373 75.9322,16.0542 70.7254,11.7153 59.878,8.678 45.5593,8.678 37.3153,12.5831" stroke="#00007f" stroke-width="2" /><polyline fill="none" points="38.6169,20.3932 35.5797,20.8271 33.4102,23.8644 27.3356,37.7492 25.6,50.7661 26.0339,59.878 33.4102,68.5559 49.0305,83.3085 56.8407,86.3458 68.122,87.2136 76.3661,57.2746 79.8373,50.7661 87.6475,45.9932 98.9288,45.5593" stroke="#7f0000" stroke-width="2" /></svg>