<?xml version="1.0" encoding="utf-8" ?>
<svg baseProfile="tiny" height="128" version="1.2" viewBox="0,0,128,128" width="128" xmlns="http://www.w3.org/2000/svg" xmlns:ev="http://www.w3.org/2001/xml-events" xmlns:xlink="http://www.w3.org/1999/xlink"><defs /><polyline fill="none" points="66.3864,82.8746 61.6136,85.0441 45.9932,85.0441 36.8814,83.7424 26.0339,79.8373 10.4136,66.8203 8.678,47.2949 13.0169,37.7492 28.2034,25.1661 28.2034,22.5627 31.6746,19.9593 45.9932,14.3186 66.3864,9.5458 97.6271,8.678 106.3051,10.4136 110.6441,13.4508 114.1153,20.3932 118.4542,40.7864 119.322,70.2915 118.0203,74.1966 114.9831,80.7051 111.078,84.6102 98.9288,89.3831 44.2576,87.2136 39.9186,85.9119" stroke="#00007f" stroke-width="2" /><polyline fill="none" points="94.1559,11.2814 88.9492,17.3559 83.3085,28.6373 75.9322,49.8983 73.7627,61.1797 73.7627,79.8373 77.2339,86.7797" stroke="#004cff" stroke-width="2" /><polyline fill="none" points="71.5932,68.122 75.4983,66.8203" stroke="#29ffcd" stroke-width="2" /><polyline fill="none" points="72.0271,50.3322 78.1017,48.5966" stroke="#cdff29" stroke-width="2" /><polyline fill="none" points="75.0644,33.4102 88.0814,34.278" stroke="#ff6700" stroke-width="2" /><polyline fill="none" points="82.4407,22.9966 86.3458,23.8644" stroke="#7f0000" stroke-width="2" /></svg>