<?xml version="1.0" encoding="utf-8" ?>
<svg baseProfile="tiny" height="128" version="1.2" viewBox="0,0,128,128" width="128" xmlns="http://www.w3.org/2000/svg" xmlns:ev="http://www.w3.org/2001/xml-events" xmlns:xlink="http://www.w3.org/1999/xlink"><defs /><polyline fill="none" points="84.1763,22.1288 56.4068,10.4136 41.6542,8.678 34.7119,9.5458 24.2983,18.2237 14.3186,36.0136 8.678,57.7085 8.678,72.8949 10.8475,81.5729 26.0339,111.078 31.6746,115.4169 39.4847,118.4542 59.0102,119.322 78.5356,117.1525 91.1186,113.2475 97.1932,109.7763 102.4,100.2305 105.8712,83.3085 105.8712,62.0475 104.5695,57.2746 98.4949,43.3898 87.6475,27.7695 78.9695,20.8271 72.0271,20.3932" stroke="#00007f" stroke-width="2" /><polyline fill="none" points="15.1864,35.5797 65.0847,95.0237 73.3288,103.2678 82.4407,116.7186 81.5729,111.9458" stroke="#7cff79" stroke-width="2" /><polyline fill="none" points="50.7661,10.8475 55.9729,20.8271 67.2542,31.6746 75.9322,45.5593 90.2508,62.9153 103.7017,85.0441" stroke="#7f0000" stroke-width="2" /></svg>