<?xml version="1.0" encoding="utf-8" ?>
<svg baseProfile="tiny" height="128" version="1.2" viewBox="0,0,128,128" width="128" xmlns="http://www.w3.org/2000/svg" xmlns:ev="http://www.w3.org/2001/xml-events" xmlns:xlink="http://www.w3.org/1999/xlink"><defs /><polyline fill="none" points="61.1797,16.0542 50.7661,16.922 46.4271,19.0915 41.6542,22.5627 31.2407,27.3356 21.6949,34.7119 18.2237,39.4847 10.4136,60.3119 8.678,73.3288 8.678,87.6475 12.5831,96.7593 21.6949,106.3051 26.4678,109.7763 45.1254,117.5864 64.2169,118.4542 68.5559,114.5492 72.461,108.9085 78.9695,94.1559 82.8746,69.8576 72.461,28.2034 68.5559,18.6576 60.3119,10.8475 60.3119,8.678" stroke="#00007f" stroke-width="2" /><polyline fill="none" points="37.7492,26.4678 32.1085,40.3525 27.3356,65.0847 27.3356,92.8542 32.1085,106.739 36.8814,111.078" stroke="#7cff79" stroke-width="2" /><polyline fill="none" points="59.4441,18.2237 65.0847,27.3356 71.5932,51.2 72.461,78.5356 65.0847,107.1729 60.3119,116.2847 57.2746,119.322" stroke="#7f0000" stroke-width="2" /></svg>