<?xml version="1.0" encoding="utf-8" ?>
<svg baseProfile="tiny" height="128" version="1.2" viewBox="0,0,128,128" width="128" xmlns="http://www.w3.org/2000/svg" xmlns:ev="http://www.w3.org/2001/xml-events" xmlns:xlink="http://www.w3.org/1999/xlink"><defs /><polyline fill="none" points="62.4814,8.678 34.7119,13.0169 25.6,16.4881 14.7525,28.2034 11.7153,36.0136 8.678,56.4068 8.678,65.0847 12.5831,79.8373 16.0542,85.9119 27.3356,96.3254 36.8814,101.9661 61.6136,105.8712 78.5356,103.2678 91.9864,98.4949 102.8339,91.5525 111.5119,81.139 115.8508,71.5932 118.4542,60.7458 119.322,45.9932 118.0203,37.3153 112.8136,26.4678 100.6644,16.4881 91.1186,12.5831 71.5932,9.1119 57.2746,9.9797" stroke="#00007f" stroke-width="2" /><polyline fill="none" points="111.5119,25.1661 101.9661,36.8814 93.722,52.0678 91.1186,59.4441 89.3831,80.2712" stroke="#0010ff" stroke-width="2" /><polyline fill="none" points="39.4847,13.4508 34.7119,45.9932 24.7322,72.8949" stroke="#00a4ff" stroke-width="2" /><polyline fill="none" points="26.4678,40.7864 34.7119,43.8237 39.9186,47.2949" stroke="#3fffb7" stroke-width="2" /><polyline fill="none" points="28.6373,57.2746 34.278,61.1797" stroke="#b7ff3f" stroke-width="2" /><polyline fill="none" points="22.9966,67.2542 33.4102,79.8373" stroke="#ffb900" stroke-width="2" /><polyline fill="none" points="74.1966,52.9356 87.2136,47.7288 93.722,48.1627 100.6644,52.5017 101.5322,54.2373" stroke="#ff3000" stroke-width="2" /><polyline fill="none" points="87.2136,63.3492 87.2136,63.3492" stroke="#7f0000" stroke-width="2" /></svg>