<?xml version="1.0" encoding="utf-8" ?>
<svg baseProfile="tiny" height="128" version="1.2" viewBox="0,0,128,128" width="128" xmlns="http://www.w3.org/2000/svg" xmlns:ev="http://www.w3.org/2001/xml-events" xmlns:xlink="http://www.w3.org/1999/xlink"><defs /><polyline fill="none" points="81.139,16.4881 54.6712,14.7525 37.3153,18.2237 19.5254,24.7322 10.4136,34.278 8.678,40.3525 8.678,51.2 13.8847,77.6678 29.0712,98.061 36.0136,105.8712 41.6542,109.7763 51.2,113.2475 70.2915,113.2475 78.9695,111.5119 97.1932,105.8712 108.4746,96.7593 112.3797,91.1186 117.5864,79.4034 119.322,67.2542 119.322,45.9932 115.8508,32.5424 111.9458,24.2983 106.3051,17.7898 90.2508,8.678 76.8,8.678 74.1966,9.5458 72.461,12.1492" stroke="#00007f" stroke-width="2" /><polyline fill="none" points="81.139,11.2814 75.9322,13.8847 73.3288,21.261 79.4034,41.2203 79.4034,57.2746 86.7797,81.5729 95.4576,92.8542 101.9661,95.4576 112.3797,95.4576" stroke="#7cff79" stroke-width="2" /><polyline fill="none" points="40.3525,19.5254 45.1254,28.2034 48.5966,40.3525 47.7288,64.2169 45.1254,71.5932" stroke="#7f0000" stroke-width="2" /></svg>