<?xml version="1.0" encoding="utf-8" ?>
<svg baseProfile="tiny" height="128" version="1.2" viewBox="0,0,128,128" width="128" xmlns="http://www.w3.org/2000/svg" xmlns:ev="http://www.w3.org/2001/xml-events" xmlns:xlink="http://www.w3.org/1999/xlink"><defs /><polyline fill="none" points="78.1017,10.4136 72.8949,8.678 54.6712,8.678 42.0881,12.1492 32.9763,18.2237 22.5627,27.3356 16.4881,38.1831 11.7153,50.7661 8.678,72.8949 17.7898,102.8339 22.5627,109.7763 26.9017,112.8136 40.7864,119.322 69.4237,115.8508 78.9695,111.5119 104.5695,95.8915 105.8712,61.6136 108.0407,51.2 108.0407,42.9559 104.1356,29.939 98.9288,21.261 87.2136,11.2814 81.5729,9.5458 75.9322,9.5458" stroke="#00007f" stroke-width="2" /><polyline fill="none" points="35.1458,16.4881 42.0881,26.9017 46.4271,39.0508 48.1627,50.3322 48.1627,76.3661 44.6915,95.0237 39.4847,105.8712 37.7492,115.4169" stroke="#7cff79" stroke-width="2" /><polyline fill="none" points="84.6102,11.2814 76.3661,41.2203 75.9322,50.3322" stroke="#7f0000" stroke-width="2" /></svg>