<?xml version="1.0" encoding="utf-8" ?>
<svg baseProfile="tiny" height="128" version="1.2" viewBox="0,0,128,128" width="128" xmlns="http://www.w3.org/2000/svg" xmlns:ev="http://www.w3.org/2001/xml-events" xmlns:xlink="http://www.w3.org/1999/xlink"><defs /><polyline fill="none" points="53.8034,8.678 46.861,10.4136 24.7322,27.7695 17.3559,35.1458 11.7153,44.2576 9.1119,53.3695 8.678,64.6508 10.4136,76.8 16.922,86.7797 25.6,94.1559 37.3153,98.061 49.8983,99.3627 63.3492,98.061 76.8,92.4203 102.4,75.9322 111.9458,67.2542 118.0203,59.0102 119.322,52.5017 119.322,44.2576 111.078,30.3729 103.2678,24.2983 93.2881,19.0915 85.0441,16.4881 62.4814,13.0169 56.8407,10.8475" stroke="#00007f" stroke-width="2" /><polyline fill="none" points="88.5153,10.4136 74.1966,22.1288 65.9525,32.5424 62.0475,39.9186 59.4441,58.5763 60.3119,75.4983 64.6508,88.9492 67.2542,92.4203" stroke="#0000fe" stroke-width="2" /><polyline fill="none" points="34.7119,19.9593 41.6542,24.2983 43.8237,29.939 43.8237,42.9559 32.9763,82.8746" stroke="#0060ff" stroke-width="2" /><polyline fill="none" points="59.4441,32.9763 68.5559,35.5797" stroke="#00d4ff" stroke-width="2" /><polyline fill="none" points="54.6712,55.539 62.0475,56.8407" stroke="#4cffaa" stroke-width="2" /><polyline fill="none" points="56.8407,67.2542 68.9898,67.6881" stroke="#aaff4c" stroke-width="2" /><polyline fill="none" points="72.0271,85.478 75.0644,87.2136 78.9695,85.478" stroke="#ffe500" stroke-width="2" /><polyline fill="none" points="36.8814,28.2034 49.8983,27.7695" stroke="#ff7a00" stroke-width="2" /><polyline fill="none" points="38.6169,45.5593 44.6915,45.1254" stroke="#fe1200" stroke-width="2" /><polyline fill="none" points="28.6373,62.9153 36.4475,63.7831" stroke="#7f0000" stroke-width="2" /></svg>