<?xml version="1.0" encoding="utf-8" ?>
<svg baseProfile="tiny" height="128" version="1.2" viewBox="0,0,128,128" width="128" xmlns="http://www.w3.org/2000/svg" xmlns:ev="http://www.w3.org/2001/xml-events" xmlns:xlink="http://www.w3.org/1999/xlink"><defs /><polyline fill="none" points="69.4237,8.678 44.6915,8.678 26.0339,19.5254 16.0542,30.8068 12.5831,39.0508 9.1119,54.2373 8.678,68.5559 13.0169,88.0814 18.2237,97.6271 26.9017,103.2678 37.7492,106.3051 55.539,108.4746 78.9695,107.1729 91.5525,102.4 103.7017,94.1559 108.0407,88.0814 111.9458,78.5356 116.7186,61.6136 116.7186,41.2203 111.078,32.9763 104.1356,29.5051 74.6305,18.6576 71.5932,16.4881 68.122,9.9797" stroke="#00007f" stroke-width="2" /><polyline fill="none" points="73.3288,105.4373 74.6305,89.8169 71.1593,88.0814 75.0644,85.478" stroke="#00d4ff" stroke-width="2" /><polyline fill="none" points="71.1593,107.1729 79.4034,101.9661 68.5559,99.3627 76.8,95.0237 71.1593,94.1559 75.0644,88.5153 73.7627,80.7051 66.8203,80.7051 67.6881,79.8373 65.5186,79.4034 65.0847,76.8 54.6712,76.3661 54.6712,75.0644 52.9356,74.1966 53.8034,72.0271 29.939,70.7254 30.8068,68.122 22.9966,68.122 21.6949,65.9525 13.8847,63.3492 15.1864,60.7458 13.8847,59.4441" stroke="#ffe500" stroke-width="2" /><polyline fill="none" points="65.9525,9.5458 77.2339,9.5458 81.5729,12.1492 78.5356,17.3559 78.1017,20.3932 74.6305,22.9966 75.4983,24.2983 90.6847,26.4678 91.5525,30.3729 98.061,31.2407 98.061,33.8441 108.0407,35.5797 108.0407,38.1831 114.1153,39.4847 114.1153,40.3525 109.3424,43.8237 114.1153,45.5593 114.1153,50.7661 115.4169,51.6339 113.2475,58.5763 114.1153,61.1797 111.078,64.2169 114.9831,68.5559 119.322,68.5559" stroke="#7f0000" stroke-width="2" /></svg>