<?xml version="1.0" encoding="utf-8" ?>
<svg baseProfile="tiny" height="128" version="1.2" viewBox="0,0,128,128" width="128" xmlns="http://www.w3.org/2000/svg" xmlns:ev="http://www.w3.org/2001/xml-events" xmlns:xlink="http://www.w3.org/1999/xlink"><defs /><polyline fill="none" points="84.6102,11.2814 95.0237,23.4305 99.7966,35.1458 100.2305,49.8983 97.1932,70.7254 93.722,87.6475 86.3458,105.4373 77.2339,115.8508 68.5559,119.322 44.6915,118.4542 33.4102,114.1153 26.9017,109.3424 17.3559,95.4576 9.9797,74.1966 8.678,64.2169 9.1119,51.6339 12.5831,38.6169 16.4881,32.1085 25.6,22.9966 35.1458,16.922 44.6915,12.1492 56.8407,9.1119 74.6305,8.678 80.2712,12.1492" stroke="#00007f" stroke-width="2" /><polyline fill="none" points="50.7661,10.4136 46.861,33.8441 46.861,64.2169 50.3322,89.8169 48.5966,114.5492" stroke="#7cff79" stroke-width="2" /><polyline fill="none" points="80.7051,11.7153 86.7797,49.4644 85.0441,100.2305" stroke="#7f0000" stroke-width="2" /></svg>