<?xml version="1.0" encoding="utf-8" ?>
<svg baseProfile="tiny" height="128" version="1.2" viewBox="0,0,128,128" width="128" xmlns="http://www.w3.org/2000/svg" xmlns:ev="http://www.w3.org/2001/xml-events" xmlns:xlink="http://www.w3.org/1999/xlink"><defs /><polyline fill="none" points="75.9322,10.8475 72.461,9.1119 51.2,8.678 42.0881,10.4136 34.7119,14.3186 28.6373,19.5254 13.4508,39.0508 9.9797,45.9932 8.678,53.3695 9.9797,67.6881 13.4508,75.4983 23.4305,89.3831 36.8814,100.2305 50.7661,108.0407 65.0847,111.5119 78.1017,111.5119 92.4203,108.9085 99.3627,105.0034 109.7763,91.5525 114.5492,88.0814 119.322,69.4237 118.8881,52.9356 115.8508,43.3898 110.2102,32.1085 104.5695,25.1661 98.4949,19.5254 85.0441,16.0542 78.9695,16.0542 67.6881,23.8644 59.0102,36.4475 55.539,49.0305 54.6712,82.8746 60.7458,105.0034 63.7831,107.6068" stroke="#00007f" stroke-width="2" /><polyline fill="none" points="95.4576,30.8068 79.8373,42.9559 68.5559,61.1797 65.0847,74.1966 65.0847,86.7797 68.5559,100.2305 70.7254,102.4" stroke="#00d4ff" stroke-width="2" /><polyline fill="none" points="24.7322,27.7695 36.8814,55.9729 37.7492,60.7458 37.7492,72.461 34.278,85.9119" stroke="#ffe500" stroke-width="2" /><polyline fill="none" points="24.7322,38.6169 29.5051,70.2915 27.7695,87.2136" stroke="#7f0000" stroke-width="2" /></svg>