<?xml version="1.0" encoding="utf-8" ?>
<svg baseProfile="tiny" height="128" version="1.2" viewBox="0,0,128,128" width="128" xmlns="http://www.w3.org/2000/svg" xmlns:ev="http://www.w3.org/2001/xml-events" xmlns:xlink="http://www.w3.org/1999/xlink"><defs /><polyline fill="none" points="37.8776,23.0748 28.2993,26.1224 21.3333,32.2177 12.1905,50.068 10.0136,55.7279 8.7075,67.9184 9.1429,80.9796 11.7551,92.2993 15.2381,101.0068 20.4626,108.4082 34.3946,116.6803 50.9388,119.2925 63.5646,118.8571 73.1429,116.6803 81.415,112.3265 90.5578,104.9252 99.7007,85.7687 101.0068,71.4014 100.1361,62.6939 94.4762,47.0204 83.1565,32.6531 71.8367,22.2041 57.034,12.1905 47.8912,8.7075 40.0544,8.7075 33.9592,11.3197 22.6395,26.9932 22.2041,28.7347" stroke="#00007f" stroke-width="2" /><polyline fill="none" points="31.7823,28.7347 35.7007,35.2653 37.0068,48.3265 35.7007,54.8571 30.9116,63.1293" stroke="#0028ff" stroke-width="2" /><polyline fill="none" points="37.4422,76.1905 22.6395,90.1224" stroke="#00d4ff" stroke-width="2" /><polyline fill="none" points="26.5578,100.5714 10.0136,111.0204" stroke="#7cff79" stroke-width="2" /><polyline fill="none" points="82.2857,21.3333 70.5306,43.5374 66.6122,59.6463 66.6122,63.5646 69.2245,68.7891 73.5782,71.4014 78.8027,71.4014" stroke="#ffe500" stroke-width="2" /><polyline fill="none" points="73.1429,85.7687 80.5442,98.8299" stroke="#ff4600" stroke-width="2" /><polyline fill="none" points="78.8027,91.8639 84.4626,98.8299 90.5578,103.1837" stroke="#7f0000" stroke-width="2" /></svg>