<?xml version="1.0" encoding="utf-8" ?>
<svg baseProfile="tiny" height="128" version="1.2" viewBox="0,0,128,128" width="128" xmlns="http://www.w3.org/2000/svg" xmlns:ev="http://www.w3.org/2001/xml-events" xmlns:xlink="http://www.w3.org/1999/xlink"><defs /><polyline fill="none" points="25.1661,91.5525 21.6949,88.5153 10.4136,68.122 8.678,59.878 8.678,52.0678 10.8475,45.9932 15.6203,39.9186 29.5051,27.3356 46.4271,14.7525 52.9356,11.7153 64.6508,8.678 72.0271,9.5458 81.139,14.3186 89.8169,20.3932 106.739,38.6169 113.6814,50.7661 118.8881,67.6881 119.322,79.8373 116.2847,88.0814 105.4373,102.4 95.0237,112.3797 90.2508,114.9831 80.7051,117.1525 65.9525,117.5864 52.5017,116.7186 44.2576,111.9458 36.0136,100.6644 28.6373,85.0441" stroke="#00007f" stroke-width="2" /><polyline fill="none" points="33.8441,24.7322 42.522,36.8814 42.9559,49.4644 38.6169,86.3458 36.0136,92.4203 33.8441,93.722 32.1085,92.4203" stroke="#7cff79" stroke-width="2" /><polyline fill="none" points="84.1763,17.3559 97.1932,80.2712 102.4,90.6847 108.4746,95.0237" stroke="#7f0000" stroke-width="2" /></svg>