<?xml version="1.0" encoding="utf-8" ?>
<svg baseProfile="tiny" height="128" version="1.2" viewBox="0,0,128,128" width="128" xmlns="http://www.w3.org/2000/svg" xmlns:ev="http://www.w3.org/2001/xml-events" xmlns:xlink="http://www.w3.org/1999/xlink"><defs /><polyline fill="none" points="25.1661,107.1729 30.3729,107.1729 31.2407,105.4373 27.7695,93.2881 27.7695,88.9492 33.4102,67.2542 36.8814,62.4814 37.3153,33.4102 31.6746,24.2983 27.3356,22.1288 21.6949,22.9966 10.8475,52.5017 8.678,61.6136 8.678,69.8576 13.4508,82.0068 22.9966,90.6847 24.2983,108.0407" stroke="#00007f" stroke-width="2" /><polyline fill="none" points="75.0644,13.4508 71.1593,13.8847 63.3492,26.4678 58.5763,37.7492 56.4068,47.2949 56.8407,57.2746 61.6136,64.2169 69.8576,71.5932 76.8,73.3288 91.5525,73.7627 103.2678,69.8576 113.2475,61.6136 118.4542,48.5966 119.322,42.522 118.0203,29.939 107.1729,15.1864 92.4203,9.1119 84.1763,9.5458 73.7627,13.0169" stroke="#0000e8" stroke-width="2" /><polyline fill="none" points="73.3288,14.3186 77.6678,16.922 82.8746,29.5051 83.7424,68.122" stroke="#0038ff" stroke-width="2" /><polyline fill="none" points="101.5322,8.678 100.2305,28.6373 102.4,42.522 108.0407,55.9729 114.1153,61.1797" stroke="#0094ff" stroke-width="2" /><polyline fill="none" points="95.4576,24.2983 105.4373,21.6949" stroke="#0cf4ea" stroke-width="2" /><polyline fill="none" points="98.4949,35.5797 101.0983,34.7119" stroke="#56ffa0" stroke-width="2" /><polyline fill="none" points="102.4,50.7661 108.0407,48.1627" stroke="#a0ff56" stroke-width="2" /><polyline fill="none" points="78.1017,61.1797 82.8746,64.6508 83.7424,68.122 88.0814,69.4237 88.0814,71.5932" stroke="#eaff0c" stroke-width="2" /><polyline fill="none" points="78.9695,59.0102 81.5729,55.9729 86.7797,54.2373" stroke="#ffaa00" stroke-width="2" /><polyline fill="none" points="86.7797,54.2373 86.7797,54.6712" stroke="#ff5500" stroke-width="2" /><polyline fill="none" points="77.6678,48.1627 88.9492,41.6542" stroke="#e80000" stroke-width="2" /><polyline fill="none" points="77.6678,36.0136 78.9695,34.7119" stroke="#7f0000" stroke-width="2" /></svg>