<?xml version="1.0" encoding="utf-8" ?>
<svg baseProfile="tiny" height="128" version="1.2" viewBox="0,0,128,128" width="128" xmlns="http://www.w3.org/2000/svg" xmlns:ev="http://www.w3.org/2001/xml-events" xmlns:xlink="http://www.w3.org/1999/xlink"><defs /><polyline fill="none" points="68.5559,14.7525 62.9153,12.5831 52.0678,11.2814 32.9763,11.7153 23.4305,14.3186 16.922,19.5254 13.0169,24.7322 8.678,39.9186 9.5458,54.2373 18.2237,69.4237 38.6169,86.3458 57.2746,97.1932 68.122,101.0983 81.5729,103.2678 92.4203,103.2678 100.2305,101.5322 106.739,98.4949 113.6814,91.5525 117.5864,82.4407 119.322,72.8949 118.8881,61.6136 113.6814,47.2949 104.5695,30.8068 97.6271,22.1288 87.2136,13.8847 77.2339,9.5458 66.3864,8.678 59.0102,10.4136" stroke="#00007f" stroke-width="2" /><polyline fill="none" points="49.4644,12.1492 50.7661,36.4475 47.7288,50.7661 43.8237,59.878 39.9186,64.2169 35.5797,68.9898 28.2034,72.8949" stroke="#7cff79" stroke-width="2" /><polyline fill="none" points="89.3831,14.3186 82.4407,20.8271 76.8,33.4102 73.7627,45.5593 72.8949,57.7085 73.3288,65.0847 75.9322,75.4983 80.2712,83.3085 88.9492,93.2881" stroke="#7f0000" stroke-width="2" /></svg>