<?xml version="1.0" encoding="utf-8" ?>
<svg baseProfile="tiny" height="128" version="1.2" viewBox="0,0,128,128" width="128" xmlns="http://www.w3.org/2000/svg" xmlns:ev="http://www.w3.org/2001/xml-events" xmlns:xlink="http://www.w3.org/1999/xlink"><defs /><polyline fill="none" points="56.8407,10.8475 49.8983,11.2814 38.6169,17.3559 19.5254,35.1458 10.8475,52.5017 8.678,71.1593 9.5458,82.4407 14.7525,92.4203 22.9966,99.3627 33.4102,104.5695 40.3525,105.4373 54.6712,105.8712 62.4814,104.5695 76.8,98.9288 89.3831,90.2508 105.4373,73.3288 116.2847,56.4068 118.8881,46.4271 119.322,34.278 116.2847,26.4678 105.8712,14.3186 95.4576,9.5458 87.6475,8.678 74.1966,9.5458 58.5763,13.4508 49.0305,17.3559 42.0881,23.4305" stroke="#00007f" stroke-width="2" /><polyline fill="none" points="78.1017,10.4136 72.461,14.3186 68.5559,24.2983 65.0847,43.3898 65.0847,62.0475 68.122,68.122 74.1966,76.3661 82.4407,82.0068 91.1186,84.1763" stroke="#7cff79" stroke-width="2" /><polyline fill="none" points="35.5797,21.261 49.0305,44.6915 52.5017,58.1424 52.5017,72.8949 50.7661,80.2712 45.1254,91.9864 36.4475,101.9661" stroke="#7f0000" stroke-width="2" /></svg>