<?xml version="1.0" encoding="utf-8" ?>
<svg baseProfile="tiny" height="128" version="1.2" viewBox="0,0,128,128" width="128" xmlns="http://www.w3.org/2000/svg" xmlns:ev="http://www.w3.org/2001/xml-events" xmlns:xlink="http://www.w3.org/1999/xlink"><defs /><polyline fill="none" points="70.2915,11.2814 65.9525,8.678 53.8034,8.678 44.2576,11.2814 35.1458,16.4881 29.5051,21.261 22.1288,31.2407 15.1864,42.522 10.4136,56.8407 8.678,65.5186 8.678,78.1017 13.8847,91.9864 19.0915,99.7966 24.7322,105.4373 35.5797,112.8136 43.8237,116.2847 72.0271,116.7186 74.6305,115.8508 81.139,110.2102 87.2136,102.4 93.722,83.3085 98.061,56.8407 97.6271,39.9186 94.5898,31.2407 86.3458,19.5254 75.9322,14.3186 62.9153,9.9797" stroke="#00007f" stroke-width="2" /><polyline fill="none" points="16.4881,100.2305 26.9017,85.478 33.4102,71.1593 36.8814,56.8407 41.2203,16.922" stroke="#7cff79" stroke-width="2" /><polyline fill="none" points="72.8949,119.322 72.8949,77.2339 77.2339,59.878 83.3085,50.7661 98.4949,44.6915" stroke="#7f0000" stroke-width="2" /></svg>