<?xml version="1.0" encoding="utf-8" ?>
<svg baseProfile="tiny" height="128" version="1.2" viewBox="0,0,128,128" width="128" xmlns="http://www.w3.org/2000/svg" xmlns:ev="http://www.w3.org/2001/xml-events" xmlns:xlink="http://www.w3.org/1999/xlink"><defs /><polyline fill="none" points="9.1119,62.9153 9.1119,56.4068 10.8475,52.5017 18.6576,42.522 25.6,39.4847 34.278,38.1831 38.1831,44.2576 40.3525,60.7458 37.3153,67.6881 34.7119,70.2915 27.7695,70.7254 22.9966,69.4237 11.7153,64.6508 8.678,61.6136" stroke="#00007f" stroke-width="2" /><polyline fill="none" points="80.2712,97.1932 85.0441,73.7627 85.0441,28.6373 86.7797,12.5831 91.9864,8.678 98.061,9.1119 110.6441,16.922 116.7186,24.7322 119.322,43.8237 115.8508,56.8407 99.7966,85.478 88.5153,117.5864" stroke="#004cff" stroke-width="2" /><polyline fill="none" points="80.7051,95.0237 79.8373,117.1525 89.3831,117.1525" stroke="#29ffcd" stroke-width="2" /><polyline fill="none" points="79.4034,101.9661 85.9119,99.7966 98.9288,98.9288" stroke="#cdff29" stroke-width="2" /><polyline fill="none" points="15.6203,42.522 29.939,50.3322 37.7492,52.0678" stroke="#ff6700" stroke-width="2" /><polyline fill="none" points="9.5458,56.8407 20.3932,61.1797 37.7492,70.7254" stroke="#7f0000" stroke-width="2" /></svg>