<?xml version="1.0" encoding="utf-8" ?>
<svg baseProfile="tiny" height="128" version="1.2" viewBox="0,0,128,128" width="128" xmlns="http://www.w3.org/2000/svg" xmlns:ev="http://www.w3.org/2001/xml-events" xmlns:xlink="http://www.w3.org/1999/xlink"><defs /><polyline fill="none" points="39.4847,17.7898 46.861,19.0915 67.6881,13.4508 82.8746,13.0169 93.2881,13.0169 102.4,15.6203 108.4746,19.9593 117.1525,35.1458 119.322,51.6339 118.4542,68.9898 109.7763,82.4407 103.7017,87.2136 88.9492,95.4576 73.3288,101.0983 51.6339,102.4 45.5593,100.6644 31.6746,88.0814 13.4508,66.3864 8.678,52.9356 8.678,33.8441 12.1492,26.0339 22.5627,12.1492 30.8068,8.678" stroke="#00007f" stroke-width="2" /><polyline fill="none" points="28.2034,14.7525 38.1831,22.1288 50.3322,40.7864 51.6339,50.7661 51.6339,78.9695 48.1627,88.0814 42.0881,96.3254" stroke="#7cff79" stroke-width="2" /><polyline fill="none" points="105.4373,76.3661 95.4576,74.6305 91.5525,69.8576 85.0441,44.2576 76.8,31.6746 75.4983,17.3559 78.1017,13.0169" stroke="#7f0000" stroke-width="2" /></svg>