<?xml version="1.0" encoding="utf-8" ?>
<svg baseProfile="tiny" height="128" version="1.2" viewBox="0,0,128,128" width="128" xmlns="http://www.w3.org/2000/svg" xmlns:ev="http://www.w3.org/2001/xml-events" xmlns:xlink="http://www.w3.org/1999/xlink"><defs /><polyline fill="none" points="55.1051,8.678 37.3153,16.4881 21.6949,28.6373 11.7153,46.4271 9.5458,56.4068 8.678,72.0271 10.4136,77.6678 15.6203,84.1763 60.3119,101.9661 89.3831,101.9661 105.0034,95.0237 114.5492,83.3085 119.322,66.3864 118.4542,39.4847 116.2847,34.7119 112.3797,30.8068 81.5729,15.1864 63.3492,10.4136 57.2746,10.8475" stroke="#00007f" stroke-width="2" /><polyline fill="none" points="32.9763,22.1288 39.0508,34.278 41.6542,43.3898 41.6542,82.4407 37.7492,85.478" stroke="#7cff79" stroke-width="2" /><polyline fill="none" points="105.8712,28.2034 102.8339,33.4102 93.2881,59.4441 93.2881,75.9322 96.7593,85.0441 104.1356,93.2881 107.6068,95.0237" stroke="#7f0000" stroke-width="2" /></svg>