<?xml version="1.0" encoding="utf-8" ?>
<svg baseProfile="tiny" height="128" version="1.2" viewBox="0,0,128,128" width="128" xmlns="http://www.w3.org/2000/svg" xmlns:ev="http://www.w3.org/2001/xml-events" xmlns:xlink="http://www.w3.org/1999/xlink"><defs /><polyline fill="none" points="57.2746,9.9797 54.6712,8.678 42.9559,9.1119 27.3356,18.6576 14.7525,31.6746 9.1119,45.1254 8.678,72.461 14.3186,91.9864 18.6576,100.6644 23.8644,107.1729 37.3153,115.8508 45.5593,118.0203 65.9525,119.322 76.3661,117.1525 84.6102,111.5119 93.722,102.8339 100.6644,93.2881 105.4373,85.0441 111.9458,66.8203 111.9458,45.9932 95.8915,24.7322 81.139,14.7525 68.9898,11.2814 47.2949,10.4136" stroke="#00007f" stroke-width="2" /><polyline fill="none" points="32.1085,15.1864 42.0881,27.3356 45.5593,36.0136 47.7288,53.8034 47.7288,66.3864 43.8237,81.139 32.5424,101.9661 24.7322,112.8136" stroke="#004cff" stroke-width="2" /><polyline fill="none" points="84.6102,18.6576 74.1966,52.9356 73.3288,75.0644 76.3661,85.9119 80.2712,93.722 87.2136,104.1356 95.4576,111.078" stroke="#29ffcd" stroke-width="2" /><polyline fill="none" points="71.1593,30.3729 88.5153,43.8237" stroke="#cdff29" stroke-width="2" /><polyline fill="none" points="59.4441,66.3864 84.6102,66.8203" stroke="#ff6700" stroke-width="2" /><polyline fill="none" points="72.0271,98.061 82.4407,96.7593 94.5898,91.9864 99.3627,91.9864" stroke="#7f0000" stroke-width="2" /></svg>