<?xml version="1.0" encoding="utf-8" ?>
<svg baseProfile="tiny" height="128" version="1.2" viewBox="0,0,128,128" width="128" xmlns="http://www.w3.org/2000/svg" xmlns:ev="http://www.w3.org/2001/xml-events" xmlns:xlink="http://www.w3.org/1999/xlink"><defs /><polyline fill="none" points="79.4034,99.7966 66.8203,98.9288 60.7458,95.8915 55.1051,88.5153 54.2373,79.8373 56.8407,67.6881 63.3492,55.539 73.3288,44.2576 80.2712,39.9186 93.2881,40.7864 106.3051,48.1627 118.0203,62.0475 119.322,69.4237 118.8881,76.3661 114.1153,88.5153 105.4373,96.7593 94.1559,101.0983 69.4237,101.9661" stroke="#00007f" stroke-width="2" /><polyline fill="none" points="64.2169,51.6339 72.8949,65.9525 78.1017,79.4034 78.1017,91.1186 72.461,106.3051" stroke="#00d4ff" stroke-width="2" /><polyline fill="none" points="98.9288,45.5593 92.4203,55.9729 91.9864,71.1593 94.5898,90.2508 99.7966,98.9288 103.7017,101.9661 104.1356,99.7966" stroke="#ffe500" stroke-width="2" /><polyline fill="none" points="8.678,108.0407 45.9932,55.9729 74.1966,28.2034 78.1017,22.5627 77.6678,12.5831 75.4983,9.9797 69.8576,8.678 61.1797,10.8475 50.7661,19.9593" stroke="#7f0000" stroke-width="2" /></svg>