<?xml version="1.0" encoding="utf-8" ?>
<svg baseProfile="tiny" height="128" version="1.2" viewBox="0,0,128,128" width="128" xmlns="http://www.w3.org/2000/svg" xmlns:ev="http://www.w3.org/2001/xml-events" xmlns:xlink="http://www.w3.org/1999/xlink"><defs /><polyline fill="none" points="53.7338,9.6109 51.5495,8.7372 48.0546,10.4846 34.9488,19.6587 24.901,30.1433 19.2218,38.0068 14.8532,44.5597 8.7372,59.8498 9.1741,73.8294 14.4164,82.1297 22.7167,89.9932 38.8805,99.1672 61.1604,103.9727 88.6826,103.5358 101.7884,97.4198 108.3413,91.7406 115.7679,80.3823 118.8259,69.4608 119.2628,51.5495 111.8362,38.4437 97.4198,24.0273 83.8771,16.6007 69.0239,10.9215 55.9181,9.1741" stroke="#00007f" stroke-width="2" /><polyline fill="none" points="45.8703,18.3481 48.0546,28.8328" stroke="#0010ff" stroke-width="2" /><polyline fill="none" points="44.5597,41.5017 42.8123,58.1024" stroke="#00a4ff" stroke-width="2" /><polyline fill="none" points="38.0068,73.8294 31.4539,87.8089" stroke="#3fffb7" stroke-width="2" /><polyline fill="none" points="96.9829,30.5802 96.1092,32.3276 95.6724,45.4334" stroke="#b7ff3f" stroke-width="2" /><polyline fill="none" points="90.8669,51.1126 90.8669,62.9078 95.6724,74.7031" stroke="#ffb900" stroke-width="2" /><polyline fill="none" points="85.1877,82.5666 89.9932,93.4881 99.1672,99.6041" stroke="#ff3000" stroke-width="2" /><polyline fill="none" points="92.6143,91.7406 86.0614,81.6928 85.6246,74.7031 90.8669,48.4915 92.1775,31.8908 93.9249,29.2696" stroke="#7f0000" stroke-width="2" /></svg>