<?xml version="1.0" encoding="utf-8" ?>
<svg baseProfile="tiny" height="128" version="1.2" viewBox="0,0,128,128" width="128" xmlns="http://www.w3.org/2000/svg" xmlns:ev="http://www.w3.org/2001/xml-events" xmlns:xlink="http://www.w3.org/1999/xlink"><defs /><polyline fill="none" points="54.6712,9.1119 47.2949,8.678 35.1458,13.8847 21.261,24.2983 14.3186,31.6746 9.1119,40.7864 8.678,57.2746 15.1864,67.6881 24.2983,72.0271 37.7492,73.7627 92.8542,73.7627 114.5492,66.3864 118.0203,62.0475 119.322,49.0305 117.5864,43.8237 109.3424,31.6746 99.7966,22.9966 91.5525,20.8271 51.2,20.8271" stroke="#00007f" stroke-width="2" /><polyline fill="none" points="27.7695,20.3932 26.4678,22.5627 25.1661,45.5593 20.8271,55.539 14.7525,62.9153 11.2814,64.2169" stroke="#0080ff" stroke-width="2" /><polyline fill="none" points="52.5017,22.1288 51.6339,30.8068 47.2949,46.861 45.5593,70.7254" stroke="#7cff79" stroke-width="2" /><polyline fill="none" points="73.3288,23.4305 68.5559,46.4271 67.6881,66.3864" stroke="#ff9400" stroke-width="2" /><polyline fill="none" points="95.4576,31.2407 89.3831,45.1254 88.9492,61.1797 90.6847,66.8203 92.8542,68.9898" stroke="#7f0000" stroke-width="2" /></svg>