<?xml version="1.0" encoding="utf-8" ?>
<svg baseProfile="tiny" height="128" version="1.2" viewBox="0,0,128,128" width="128" xmlns="http://www.w3.org/2000/svg" xmlns:ev="http://www.w3.org/2001/xml-events" xmlns:xlink="http://www.w3.org/1999/xlink"><defs /><polyline fill="none" points="27.4286,10.0136 13.4966,39.619 8.7075,56.5986 9.1429,79.6735 11.3197,86.2041 16.5442,93.6054 33.9592,104.9252 55.7279,107.9728 90.5578,105.7959 97.5238,101.8776 110.1497,88.8163 117.9864,72.7075 119.2925,62.2585 115.3741,43.102 111.4558,35.7007 106.6667,30.0408 92.2993,20.0272 73.5782,10.8844 52.2449,8.7075 39.1837,10.0136 33.5238,16.5442 52.2449,40.4898 57.034,59.6463 57.4694,71.8367 54.8571,80.9796 49.6327,88.381 33.5238,99.2653 30.4762,103.1837" stroke="#00007f" stroke-width="2" /><polyline fill="none" points="88.381,15.6735 81.8503,30.9116 77.4966,47.4558 75.7551,64.0 77.0612,77.4966 79.2381,83.5918 83.1565,89.2517 86.6395,90.9932 92.2993,99.7007" stroke="#7f0000" stroke-width="2" /></svg>