<?xml version="1.0" encoding="utf-8" ?>
<svg baseProfile="tiny" height="128" version="1.2" viewBox="0,0,128,128" width="128" xmlns="http://www.w3.org/2000/svg" xmlns:ev="http://www.w3.org/2001/xml-events" xmlns:xlink="http://www.w3.org/1999/xlink"><defs /><polyline fill="none" points="81.5729,111.078 44.2576,110.6441 38.1831,108.0407 31.6746,102.8339 19.9593,88.9492 10.4136,66.3864 8.678,56.8407 8.678,40.7864 10.4136,32.5424 17.7898,22.5627 28.2034,13.4508 40.7864,9.1119 59.878,8.678 65.5186,9.5458 85.478,18.6576 101.9661,34.278 113.6814,49.8983 118.8881,63.7831 119.322,78.1017 117.5864,84.1763 111.9458,95.8915 104.5695,101.9661 74.6305,105.4373 73.3288,101.9661" stroke="#00007f" stroke-width="2" /><polyline fill="none" points="30.3729,8.678 38.6169,26.4678 49.8983,43.8237 55.1051,60.7458 58.5763,77.6678 59.4441,99.7966 60.7458,108.0407" stroke="#0080ff" stroke-width="2" /><polyline fill="none" points="57.7085,10.4136 69.8576,19.9593 75.9322,28.2034 81.139,39.9186 88.9492,67.2542 93.2881,94.1559 91.9864,98.061" stroke="#7cff79" stroke-width="2" /><polyline fill="none" points="18.6576,64.6508 22.5627,60.7458 38.1831,52.0678 58.5763,42.522 85.478,34.7119 98.061,33.8441 99.3627,36.0136" stroke="#ff9400" stroke-width="2" /><polyline fill="none" points="27.7695,98.061 34.278,91.9864 59.878,75.9322 97.1932,62.4814" stroke="#7f0000" stroke-width="2" /></svg>