<?xml version="1.0" encoding="utf-8" ?>
<svg baseProfile="tiny" height="128" version="1.2" viewBox="0,0,128,128" width="128" xmlns="http://www.w3.org/2000/svg" xmlns:ev="http://www.w3.org/2001/xml-events" xmlns:xlink="http://www.w3.org/1999/xlink"><defs /><polyline fill="none" points="72.8949,11.7153 67.2542,9.9797 56.4068,10.4136 45.1254,15.6203 38.6169,19.9593 25.6,32.9763 14.7525,49.4644 9.9797,66.8203 8.678,85.0441 10.8475,94.1559 16.0542,102.8339 22.5627,110.2102 31.6746,114.5492 42.522,117.5864 65.5186,118.0203 75.9322,114.5492 86.3458,108.4746 95.0237,101.0983 112.3797,78.9695 116.7186,70.2915 119.322,55.9729 118.4542,41.2203 111.078,29.0712 102.4,19.9593 96.3254,16.0542 85.478,10.8475 76.3661,8.678 68.5559,8.678" stroke="#00007f" stroke-width="2" /><polyline fill="none" points="48.5966,17.3559 59.4441,29.0712 71.5932,33.8441 85.9119,36.0136 96.3254,36.0136 105.4373,35.5797 118.8881,32.1085" stroke="#0080ff" stroke-width="2" /><polyline fill="none" points="25.6,95.4576 45.9932,85.0441 56.4068,83.3085 90.6847,82.4407 98.9288,83.7424 105.4373,87.6475" stroke="#7cff79" stroke-width="2" /><polyline fill="none" points="59.878,29.939 59.878,51.6339 53.3695,67.6881 32.1085,93.2881 21.261,100.2305" stroke="#ff9400" stroke-width="2" /><polyline fill="none" points="92.4203,39.0508 93.2881,45.1254 91.1186,58.5763 91.9864,70.2915 99.7966,80.7051 109.3424,84.6102" stroke="#7f0000" stroke-width="2" /></svg>