<?xml version="1.0" encoding="utf-8" ?>
<svg baseProfile="tiny" height="128" version="1.2" viewBox="0,0,128,128" width="128" xmlns="http://www.w3.org/2000/svg" xmlns:ev="http://www.w3.org/2001/xml-events" xmlns:xlink="http://www.w3.org/1999/xlink"><defs /><polyline fill="none" points="69.8576,19.0915 59.878,17.7898 17.7898,34.278 10.4136,44.2576 8.678,58.5763 9.1119,74.1966 20.3932,85.9119 35.5797,95.8915 39.4847,97.1932 61.6136,98.061 75.9322,93.722 81.139,90.6847 97.1932,74.6305 108.0407,66.3864 118.0203,52.0678 119.322,46.4271 118.0203,27.7695 113.2475,19.5254 100.2305,14.3186 77.2339,8.678 50.7661,16.4881" stroke="#00007f" stroke-width="2" /><polyline fill="none" points="39.4847,21.6949 46.4271,26.9017 50.3322,37.3153 51.6339,44.6915 51.6339,63.3492 47.2949,89.3831 42.9559,99.3627 31.2407,100.6644" stroke="#7f0000" stroke-width="2" /></svg>