<?xml version="1.0" encoding="utf-8" ?>
<svg baseProfile="tiny" height="128" version="1.2" viewBox="0,0,128,128" width="128" xmlns="http://www.w3.org/2000/svg" xmlns:ev="http://www.w3.org/2001/xml-events" xmlns:xlink="http://www.w3.org/1999/xlink"><defs /><polyline fill="none" points="21.7687,24.381 25.6871,20.0272 43.5374,11.3197 53.1156,9.1429 64.8707,8.7075 81.8503,14.3673 98.8299,24.8163 107.102,32.2177 112.3265,40.0544 118.8571,61.3878 119.2925,72.7075 117.9864,79.2381 116.2449,83.5918 110.1497,89.2517 98.8299,95.3469 90.9932,97.5238 77.0612,99.2653 57.034,99.7007 45.7143,97.5238 35.2653,93.6054 16.1088,81.8503 12.1905,77.0612 9.1429,67.9184 8.7075,51.8095 15.6735,33.9592 21.3333,24.8163 24.8163,20.4626 30.4762,16.9796" stroke="#00007f" stroke-width="2" /><polyline fill="none" points="30.9116,15.6735 37.0068,24.381 42.2313,39.619 43.5374,60.9524 38.3129,77.932 29.6054,84.898 28.7347,84.4626 30.0408,83.1565" stroke="#0080ff" stroke-width="2" /><polyline fill="none" points="99.7007,23.9456 97.9592,24.8163 83.1565,64.4354 80.9796,81.415 84.0272,88.8163 90.1224,94.0408 101.0068,98.8299 101.8776,97.5238 100.5714,93.6054" stroke="#7cff79" stroke-width="2" /><polyline fill="none" points="79.2381,43.5374 86.6395,43.5374 93.6054,47.0204 95.3469,49.6327" stroke="#ff9400" stroke-width="2" /><polyline fill="none" points="74.8844,56.5986 88.8163,63.5646 91.4286,67.0476 89.6871,68.3537" stroke="#7f0000" stroke-width="2" /></svg>