<?xml version="1.0" encoding="utf-8" ?>
<svg baseProfile="tiny" height="128" version="1.2" viewBox="0,0,128,128" width="128" xmlns="http://www.w3.org/2000/svg" xmlns:ev="http://www.w3.org/2001/xml-events" xmlns:xlink="http://www.w3.org/1999/xlink"><defs /><polyline fill="none" points="93.2881,51.6339 91.9864,47.7288 87.6475,43.3898 73.3288,37.3153 57.2746,36.0136 45.5593,40.3525 30.8068,52.5017 19.9593,65.9525 10.8475,84.1763 8.678,99.3627 11.2814,108.4746 15.6203,114.1153 22.5627,118.0203 31.2407,119.322 41.2203,117.5864 53.8034,112.3797 62.4814,107.1729 70.7254,98.9288 86.3458,80.2712 92.4203,69.8576 98.4949,55.539 100.6644,46.4271 101.9661,29.0712 100.6644,21.261 95.8915,12.1492 89.3831,8.678" stroke="#00007f" stroke-width="2" /><polyline fill="none" points="42.0881,39.0508 38.1831,47.2949 26.4678,95.8915 18.6576,111.078" stroke="#7cff79" stroke-width="2" /><polyline fill="none" points="74.1966,37.3153 73.3288,42.522 58.5763,73.7627 48.5966,116.7186" stroke="#7f0000" stroke-width="2" /></svg>