<?xml version="1.0" encoding="utf-8" ?>
<svg baseProfile="tiny" height="128" version="1.2" viewBox="0,0,128,128" width="128" xmlns="http://www.w3.org/2000/svg" xmlns:ev="http://www.w3.org/2001/xml-events" xmlns:xlink="http://www.w3.org/1999/xlink"><defs /><polyline fill="none" points="60.0816,11.7551 57.034,10.0136 43.102,9.5782 30.0408,15.6735 17.8503,26.5578 10.8844,39.619 9.1429,47.4558 8.7075,63.1293 14.3673,77.0612 24.8163,88.8163 31.7823,93.1701 47.0204,100.5714 63.5646,104.9252 87.0748,104.9252 101.4422,99.2653 107.102,95.3469 115.3741,85.3333 119.2925,74.449 118.8571,58.7755 114.9388,47.8912 104.9252,33.5238 87.9456,17.8503 79.2381,12.6259 64.4354,8.7075" stroke="#00007f" stroke-width="2" /><polyline fill="none" points="21.7687,25.6871 22.2041,23.0748 34.8299,19.1565 42.6667,19.1565 48.7619,22.6395 53.1156,30.9116 53.551,40.4898 50.9388,48.3265 43.9728,61.8231 43.5374,70.0952 46.585,75.7551 51.8095,81.8503 59.2109,85.3333 69.2245,86.2041 74.8844,85.7687 83.5918,82.7211 90.9932,73.5782 93.6054,63.1293 92.7347,36.1361 97.9592,29.6054 104.4898,28.7347" stroke="#0000de" stroke-width="2" /><polyline fill="none" points="96.6531,30.4762 104.0544,39.619" stroke="#0028ff" stroke-width="2" /><polyline fill="none" points="91.8639,49.6327 100.1361,54.8571" stroke="#0080ff" stroke-width="2" /><polyline fill="none" points="87.0748,62.2585 94.0408,64.4354" stroke="#00d4ff" stroke-width="2" /><polyline fill="none" points="86.6395,67.0476 90.5578,74.8844" stroke="#36ffc0" stroke-width="2" /><polyline fill="none" points="83.1565,75.7551 80.1088,77.4966 78.8027,85.3333" stroke="#7cff79" stroke-width="2" /><polyline fill="none" points="61.3878,84.0272 61.3878,84.0272" stroke="#c0ff36" stroke-width="2" /><polyline fill="none" points="50.068,77.0612 47.8912,75.3197 43.5374,75.3197" stroke="#ffe500" stroke-width="2" /><polyline fill="none" points="47.8912,58.7755 44.4082,55.7279 41.7959,55.7279" stroke="#ff9400" stroke-width="2" /><polyline fill="none" points="55.2925,41.7959 50.5034,40.0544 46.1497,42.2313" stroke="#ff4600" stroke-width="2" /><polyline fill="none" points="45.7143,26.9932 40.4898,25.6871" stroke="#de0000" stroke-width="2" /><polyline fill="none" points="29.6054,23.5102 26.5578,27.8639" stroke="#7f0000" stroke-width="2" /></svg>