<?xml version="1.0" encoding="utf-8" ?>
<svg baseProfile="tiny" height="128" version="1.2" viewBox="0,0,128,128" width="128" xmlns="http://www.w3.org/2000/svg" xmlns:ev="http://www.w3.org/2001/xml-events" xmlns:xlink="http://www.w3.org/1999/xlink"><defs /><polyline fill="none" points="71.5932,22.5627 64.6508,10.4136 59.878,8.678 49.8983,9.1119 34.278,17.7898 22.1288,32.1085 13.0169,53.8034 8.678,76.8 8.678,97.1932 10.4136,104.1356 17.3559,116.2847 22.1288,118.8881 34.7119,119.322 46.4271,115.4169 55.1051,109.7763 63.7831,102.4 72.0271,88.5153 78.1017,70.7254 79.4034,40.3525 73.7627,25.6 68.5559,17.7898 66.8203,17.3559" stroke="#00007f" stroke-width="2" /><polyline fill="none" points="19.0915,32.1085 28.6373,62.4814 31.6746,81.5729 31.6746,96.7593 26.9017,105.4373 19.0915,114.9831 18.6576,116.2847 20.3932,115.8508 23.4305,113.2475" stroke="#00d4ff" stroke-width="2" /><polyline fill="none" points="70.7254,27.3356 71.5932,30.8068 68.122,41.2203 66.3864,54.6712 66.3864,79.4034 68.9898,88.9492 72.8949,95.8915 72.8949,94.5898" stroke="#ffe500" stroke-width="2" /><polyline fill="none" points="62.4814,40.7864 67.2542,40.3525 70.2915,41.6542" stroke="#7f0000" stroke-width="2" /></svg>