<?xml version="1.0" encoding="utf-8" ?>
<svg baseProfile="tiny" height="128" version="1.2" viewBox="0,0,128,128" width="128" xmlns="http://www.w3.org/2000/svg" xmlns:ev="http://www.w3.org/2001/xml-events" xmlns:xlink="http://www.w3.org/1999/xlink"><defs /><polyline fill="none" points="26.0339,18.2237 22.5627,19.0915 16.4881,23.8644 11.7153,30.8068 8.678,40.7864 8.678,48.5966 9.9797,51.2 18.2237,56.4068 24.7322,57.7085 32.5424,57.2746 42.0881,52.9356 45.9932,49.0305 47.7288,43.3898 47.2949,39.4847 37.3153,23.4305 29.5051,16.922 26.0339,16.4881" stroke="#00007f" stroke-width="2" /><polyline fill="none" points="17.3559,25.6 21.6949,36.0136" stroke="#0028ff" stroke-width="2" /><polyline fill="none" points="16.922,19.9593 13.4508,20.8271 10.8475,24.7322 9.9797,39.4847 12.1492,55.1051 16.922,64.6508 20.3932,62.9153 24.2983,54.6712 26.9017,37.7492 26.9017,33.8441 24.7322,34.278 24.7322,38.1831 32.5424,50.3322 35.1458,50.7661 37.3153,49.4644 37.7492,41.6542 35.1458,32.1085 33.4102,29.5051 29.939,27.7695 24.2983,29.0712 20.3932,32.9763 16.0542,42.0881 15.1864,49.8983 16.4881,52.5017 21.6949,52.0678 26.4678,49.0305 30.3729,43.8237 30.8068,38.6169 29.5051,35.5797 24.7322,32.5424 16.0542,32.9763 13.0169,36.8814 13.4508,43.3898 18.2237,54.2373 26.4678,65.9525 29.939,67.2542 33.8441,65.9525 37.7492,54.6712 37.3153,40.7864 33.8441,32.9763 28.6373,29.939 19.9593,29.5051 17.3559,32.1085 16.922,36.0136 24.2983,45.5593 33.8441,51.6339 39.4847,52.0678 42.522,50.3322 42.9559,39.9186 38.1831,31.6746 35.1458,29.5051 32.9763,29.939" stroke="#00d4ff" stroke-width="2" /><polyline fill="none" points="117.5864,48.1627 117.5864,88.0814 116.7186,77.2339 116.2847,8.678" stroke="#7cff79" stroke-width="2" /><polyline fill="none" points="116.7186,13.4508 111.9458,12.5831 98.061,13.0169 100.6644,37.7492 101.0983,39.9186 103.2678,40.3525 110.2102,35.1458 118.8881,32.1085 119.322,28.6373" stroke="#ffe500" stroke-width="2" /><polyline fill="none" points="106.739,30.3729 103.2678,36.0136 104.5695,40.7864 108.0407,40.3525 108.4746,36.0136 108.9085,39.4847 111.9458,38.1831 112.8136,30.8068 113.2475,32.5424 115.8508,34.278 116.7186,27.7695 114.9831,24.2983 112.3797,22.1288 105.8712,23.4305 105.0034,32.9763" stroke="#ff4600" stroke-width="2" /><polyline fill="none" points="39.4847,29.5051 39.4847,29.5051" stroke="#7f0000" stroke-width="2" /></svg>