<?xml version="1.0" encoding="utf-8" ?>
<svg baseProfile="tiny" height="128" version="1.2" viewBox="0,0,128,128" width="128" xmlns="http://www.w3.org/2000/svg" xmlns:ev="http://www.w3.org/2001/xml-events" xmlns:xlink="http://www.w3.org/1999/xlink"><defs /><polyline fill="none" points="49.8983,15.1864 58.1424,13.0169 71.1593,13.0169 81.139,15.1864 86.7797,18.6576 104.1356,37.7492 113.2475,53.3695 117.1525,68.9898 117.1525,74.6305 112.8136,95.4576 108.4746,101.5322 98.9288,109.3424 87.2136,115.4169 81.5729,117.5864 65.5186,119.322 38.1831,117.1525 24.2983,108.4746 17.3559,100.6644 14.7525,92.8542 9.5458,62.9153 8.678,42.0881 12.5831,29.0712 17.3559,19.5254 31.2407,11.2814 36.8814,9.5458 55.539,8.678 58.5763,12.1492" stroke="#00007f" stroke-width="2" /><polyline fill="none" points="35.5797,9.1119 46.861,20.8271 50.3322,30.8068 52.0678,42.0881 52.5017,74.1966 48.5966,88.0814 36.4475,101.0983 35.1458,105.4373 29.0712,108.4746" stroke="#7cff79" stroke-width="2" /><polyline fill="none" points="78.1017,16.0542 79.4034,21.261 85.478,30.8068 93.2881,49.8983 95.4576,68.122 95.4576,83.3085 94.5898,91.5525 89.8169,101.0983 76.8,116.7186" stroke="#7f0000" stroke-width="2" /></svg>