<?xml version="1.0" encoding="utf-8" ?>
<svg baseProfile="tiny" height="128" version="1.2" viewBox="0,0,128,128" width="128" xmlns="http://www.w3.org/2000/svg" xmlns:ev="http://www.w3.org/2001/xml-events" xmlns:xlink="http://www.w3.org/1999/xlink"><defs /><polyline fill="none" points="89.3831,14.7525 29.0712,15.1864 20.8271,19.0915 14.3186,31.6746 9.5458,53.3695 8.678,72.461 13.4508,77.6678 24.2983,85.478 42.522,97.1932 62.9153,106.3051 88.5153,113.2475 98.9288,112.3797 108.0407,107.6068 116.7186,97.1932 119.322,83.3085 119.322,74.6305 111.5119,59.4441 98.9288,41.2203 88.0814,12.5831 82.8746,9.9797" stroke="#00007f" stroke-width="2" /><polyline fill="none" points="93.722,37.3153 89.3831,38.6169 88.0814,62.9153 85.9119,70.7254 87.6475,100.6644 88.0814,105.0034 91.1186,107.6068" stroke="#00d4ff" stroke-width="2" /><polyline fill="none" points="35.5797,92.8542 38.1831,83.7424 49.8983,60.7458 52.9356,50.3322 54.6712,37.7492 54.6712,25.1661 46.861,11.7153 33.4102,8.678" stroke="#ffe500" stroke-width="2" /><polyline fill="none" points="81.5729,43.3898 88.5153,45.1254 89.8169,49.0305 88.5153,53.8034 82.8746,56.8407" stroke="#7f0000" stroke-width="2" /></svg>