<?xml version="1.0" encoding="utf-8" ?>
<svg baseProfile="tiny" height="128" version="1.2" viewBox="0,0,128,128" width="128" xmlns="http://www.w3.org/2000/svg" xmlns:ev="http://www.w3.org/2001/xml-events" xmlns:xlink="http://www.w3.org/1999/xlink"><defs /><polyline fill="none" points="93.722,22.1288 94.1559,19.9593 84.6102,14.7525 69.4237,9.9797 49.0305,8.678 43.3898,9.5458 28.2034,15.6203 11.7153,37.7492 8.678,48.5966 8.678,64.6508 10.4136,72.0271 38.6169,103.7017 49.4644,110.2102 67.6881,117.1525 88.5153,116.7186 100.6644,109.7763 110.2102,97.6271 114.5492,88.0814 118.8881,61.6136 118.4542,47.7288 113.2475,34.7119 108.0407,27.3356 101.5322,22.9966 94.5898,20.3932" stroke="#00007f" stroke-width="2" /><polyline fill="none" points="54.6712,9.5458 52.0678,12.5831 38.1831,39.0508 29.5051,59.0102 24.7322,78.9695" stroke="#0080ff" stroke-width="2" /><polyline fill="none" points="71.1593,16.922 39.0508,59.878 30.8068,75.0644 24.2983,93.722" stroke="#7cff79" stroke-width="2" /><polyline fill="none" points="100.2305,26.0339 78.5356,55.539 63.7831,84.1763 55.9729,102.4" stroke="#ff9400" stroke-width="2" /><polyline fill="none" points="118.4542,46.861 112.8136,59.878 95.0237,119.322" stroke="#7f0000" stroke-width="2" /></svg>