<?xml version="1.0" encoding="utf-8" ?>
<svg baseProfile="tiny" height="128" version="1.2" viewBox="0,0,128,128" width="128" xmlns="http://www.w3.org/2000/svg" xmlns:ev="http://www.w3.org/2001/xml-events" xmlns:xlink="http://www.w3.org/1999/xlink"><defs /><polyline fill="none" points="77.2339,9.9797 15.1864,26.0339 8.678,38.1831 9.5458,50.7661 17.7898,65.5186 32.1085,102.4 37.7492,109.7763 45.1254,112.8136 56.4068,115.8508 79.4034,119.322 87.6475,118.4542 95.0237,115.8508 107.1729,108.4746 115.8508,98.061 118.4542,81.5729 118.0203,62.0475 112.3797,29.5051 103.7017,13.4508 100.6644,9.9797 93.722,8.678 82.8746,9.9797 81.139,8.678" stroke="#00007f" stroke-width="2" /><polyline fill="none" points="36.4475,21.261 43.8237,29.939 47.2949,37.7492 52.0678,56.8407 52.0678,67.2542 48.5966,85.478 41.2203,101.5322 38.1831,105.0034 35.5797,105.0034" stroke="#7f0000" stroke-width="2" /></svg>