<?xml version="1.0" encoding="utf-8" ?>
<svg baseProfile="tiny" height="128" version="1.2" viewBox="0,0,128,128" width="128" xmlns="http://www.w3.org/2000/svg" xmlns:ev="http://www.w3.org/2001/xml-events" xmlns:xlink="http://www.w3.org/1999/xlink"><defs /><polyline fill="none" points="42.522,11.7153 14.3186,29.5051 9.5458,37.3153 8.678,64.6508 13.4508,86.3458 21.6949,98.4949 29.5051,105.4373 49.8983,116.2847 63.3492,119.322 86.7797,119.322 95.4576,117.5864 100.6644,115.4169 108.4746,106.739 115.4169,94.1559 117.5864,86.3458 118.4542,72.0271 113.2475,53.3695 96.7593,30.3729 80.7051,17.3559 68.9898,12.5831 57.2746,9.5458 48.5966,8.678 39.4847,10.8475 35.5797,13.8847" stroke="#00007f" stroke-width="2" /><polyline fill="none" points="30.3729,25.6 37.3153,33.4102 38.6169,36.8814 43.3898,50.3322 45.9932,68.122 45.1254,88.5153 42.9559,91.9864 42.522,96.3254 37.3153,103.2678" stroke="#7cff79" stroke-width="2" /><polyline fill="none" points="81.5729,19.5254 77.6678,20.3932 70.7254,27.3356 68.9898,31.2407 67.6881,39.0508 67.6881,52.9356 70.7254,68.122 83.7424,88.5153 96.3254,99.7966 103.7017,103.2678" stroke="#7f0000" stroke-width="2" /></svg>