<?xml version="1.0" encoding="utf-8" ?>
<svg baseProfile="tiny" height="128" version="1.2" viewBox="0,0,128,128" width="128" xmlns="http://www.w3.org/2000/svg" xmlns:ev="http://www.w3.org/2001/xml-events" xmlns:xlink="http://www.w3.org/1999/xlink"><defs /><polyline fill="none" points="87.2136,22.5627 68.122,11.7153 59.0102,8.678 36.8814,11.7153 24.7322,18.6576 18.6576,23.8644 10.8475,36.0136 8.678,45.9932 14.7525,56.4068 26.0339,80.2712 28.6373,82.8746 32.1085,90.6847 45.1254,107.1729 51.2,111.5119 62.9153,115.4169 82.4407,116.2847 90.2508,113.2475 98.061,107.1729 107.1729,97.1932 114.1153,85.9119 119.322,69.8576 118.4542,49.8983 101.0983,34.7119 93.2881,25.6 84.1763,18.6576 81.139,20.8271 78.9695,26.4678 78.1017,58.1424 91.1186,78.9695 106.3051,91.1186" stroke="#00007f" stroke-width="2" /><polyline fill="none" points="50.7661,9.5458 56.8407,16.922 56.8407,25.6 52.9356,46.861 45.9932,59.878 32.9763,75.9322 25.6,78.9695 20.8271,78.1017" stroke="#00d4ff" stroke-width="2" /><polyline fill="none" points="43.8237,26.9017 55.1051,35.1458 62.0475,46.861 59.878,46.861" stroke="#ffe500" stroke-width="2" /><polyline fill="none" points="36.8814,49.8983 36.8814,57.2746 42.9559,69.8576" stroke="#7f0000" stroke-width="2" /></svg>