<?xml version="1.0" encoding="utf-8" ?>
<svg baseProfile="tiny" height="128" version="1.2" viewBox="0,0,128,128" width="128" xmlns="http://www.w3.org/2000/svg" xmlns:ev="http://www.w3.org/2001/xml-events" xmlns:xlink="http://www.w3.org/1999/xlink"><defs /><polyline fill="none" points="43.5374,8.7075 30.4762,20.4626 18.2857,35.2653 14.3673,42.2313 10.0136,54.8571 8.7075,61.8231 9.5782,77.4966 16.5442,88.381 38.7483,109.7143 49.6327,114.9388 61.3878,113.6327 74.449,109.7143 80.9796,105.7959 88.381,99.7007 104.4898,79.6735 109.7143,70.966 114.5034,57.034 115.8095,50.5034 112.7619,39.1837 107.9728,30.4762 99.2653,22.2041 94.9116,18.7211 74.449,10.449 64.8707,9.1429 40.0544,8.7075 22.6395,12.1905" stroke="#00007f" stroke-width="2" /><polyline fill="none" points="27.4286,13.4966 43.9728,25.2517 47.8912,30.9116 48.7619,35.7007 50.068,46.585 44.4082,54.8571 32.2177,60.9524 25.2517,76.1905 37.8776,90.9932 45.2789,104.4898 45.7143,110.1497 42.2313,117.9864" stroke="#7cff79" stroke-width="2" /><polyline fill="none" points="84.0272,20.4626 78.3673,20.898 66.1769,26.9932 64.8707,29.1701 64.8707,37.8776 65.3061,45.7143 68.3537,54.4218 84.4626,64.0 86.6395,67.0476 88.8163,74.8844 87.5102,84.0272 70.5306,98.3946 80.5442,115.3741 86.2041,119.2925" stroke="#7f0000" stroke-width="2" /></svg>