<?xml version="1.0" encoding="utf-8" ?>
<svg baseProfile="tiny" height="128" version="1.2" viewBox="0,0,128,128" width="128" xmlns="http://www.w3.org/2000/svg" xmlns:ev="http://www.w3.org/2001/xml-events" xmlns:xlink="http://www.w3.org/1999/xlink"><defs /><polyline fill="none" points="91.9864,35.1458 90.2508,27.7695 86.7797,22.1288 78.1017,14.3186 67.6881,9.5458 51.2,9.1119 37.3153,16.4881 29.5051,22.9966 17.3559,35.5797 13.0169,42.522 9.5458,50.7661 8.678,60.7458 8.678,78.9695 11.2814,86.7797 21.6949,102.8339 36.0136,115.4169 50.7661,118.8881 64.2169,119.322 70.2915,117.5864 75.4983,113.6814 100.2305,83.3085 107.6068,70.7254 111.5119,57.7085 111.5119,42.0881 108.4746,28.6373 104.1356,22.9966 99.7966,21.261 79.4034,19.9593" stroke="#00007f" stroke-width="2" /><polyline fill="none" points="61.6136,17.7898 58.1424,23.8644 54.2373,51.2 48.1627,68.9898 41.2203,81.139 22.1288,106.3051" stroke="#7cff79" stroke-width="2" /><polyline fill="none" points="63.3492,8.678 61.1797,19.9593 60.7458,65.0847 62.0475,70.7254 66.3864,78.9695 78.9695,95.0237 97.1932,104.5695" stroke="#7f0000" stroke-width="2" /></svg>