<?xml version="1.0" encoding="utf-8" ?>
<svg baseProfile="tiny" height="128" version="1.2" viewBox="0,0,128,128" width="128" xmlns="http://www.w3.org/2000/svg" xmlns:ev="http://www.w3.org/2001/xml-events" xmlns:xlink="http://www.w3.org/1999/xlink"><defs /><polyline fill="none" points="63.3492,16.4881 52.5017,16.4881 35.1458,26.9017 24.2983,38.1831 15.1864,52.5017 12.5831,60.3119 12.1492,75.9322 18.2237,92.8542 23.8644,100.6644 30.8068,107.1729 46.861,115.8508 55.539,118.0203 74.1966,118.8881 82.8746,117.5864 90.2508,114.5492 97.6271,109.7763 104.1356,103.7017 112.3797,90.2508 115.8508,76.8 116.2847,52.9356 114.5492,45.5593 107.1729,33.4102 98.061,22.9966 85.9119,15.6203 72.461,11.2814 55.9729,8.678" stroke="#00007f" stroke-width="2" /><polyline fill="none" points="36.4475,15.1864 43.3898,22.1288 47.7288,29.0712 52.0678,38.1831 54.6712,49.4644 55.1051,78.9695 52.5017,89.8169 46.861,100.2305" stroke="#0080ff" stroke-width="2" /><polyline fill="none" points="76.8,11.2814 84.6102,21.6949 87.2136,28.6373 88.9492,37.7492 88.9492,54.6712 83.7424,78.1017 78.1017,91.5525 73.3288,97.1932" stroke="#7cff79" stroke-width="2" /><polyline fill="none" points="13.0169,58.1424 27.3356,53.8034 46.4271,50.7661 79.8373,48.1627 98.4949,48.1627 105.8712,49.8983 115.8508,53.8034 119.322,58.1424" stroke="#ff9400" stroke-width="2" /><polyline fill="none" points="8.678,78.9695 14.3186,75.9322 22.1288,74.1966 92.8542,72.0271 108.0407,75.9322 118.8881,84.1763" stroke="#7f0000" stroke-width="2" /></svg>