<?xml version="1.0" encoding="utf-8" ?>
<svg baseProfile="tiny" height="128" version="1.2" viewBox="0,0,128,128" width="128" xmlns="http://www.w3.org/2000/svg" xmlns:ev="http://www.w3.org/2001/xml-events" xmlns:xlink="http://www.w3.org/1999/xlink"><defs /><polyline fill="none" points="65.0847,15.1864 58.5763,13.8847 49.4644,15.6203 30.3729,28.2034 23.8644,35.1458 13.8847,49.8983 9.1119,63.7831 8.678,74.1966 15.1864,85.9119 26.9017,93.722 35.1458,96.7593 55.1051,98.9288 66.3864,97.6271 88.5153,88.5153 105.8712,73.7627 113.2475,65.0847 117.5864,55.9729 119.322,47.2949 118.8881,39.9186 115.4169,33.4102 101.0983,23.8644 82.8746,19.5254 57.7085,19.9593" stroke="#00007f" stroke-width="2" /><polyline fill="none" points="32.5424,20.8271 38.1831,25.6 45.5593,47.7288 48.1627,63.3492 47.7288,78.9695 38.1831,97.6271" stroke="#004cff" stroke-width="2" /><polyline fill="none" points="78.9695,9.5458 76.8,8.678 75.0644,10.4136 71.5932,23.4305 67.2542,54.2373 66.8203,68.9898 69.8576,78.5356 75.9322,88.5153 83.3085,93.722" stroke="#29ffcd" stroke-width="2" /><polyline fill="none" points="35.5797,49.4644 50.3322,42.9559" stroke="#cdff29" stroke-width="2" /><polyline fill="none" points="39.9186,74.6305 53.3695,69.4237" stroke="#ff6700" stroke-width="2" /><polyline fill="none" points="42.0881,90.2508 51.2,85.9119" stroke="#7f0000" stroke-width="2" /></svg>