<?xml version="1.0" encoding="utf-8" ?>
<svg baseProfile="tiny" height="128" version="1.2" viewBox="0,0,128,128" width="128" xmlns="http://www.w3.org/2000/svg" xmlns:ev="http://www.w3.org/2001/xml-events" xmlns:xlink="http://www.w3.org/1999/xlink"><defs /><polyline fill="none" points="81.5729,16.922 68.122,16.4881 45.5593,22.9966 33.4102,28.6373 21.261,39.4847 14.3186,51.2 9.1119,69.4237 8.678,92.4203 12.1492,99.3627 21.6949,107.6068 32.5424,114.5492 39.4847,116.2847 62.4814,116.7186 70.7254,115.4169 88.5153,109.3424 102.4,100.2305 105.8712,96.3254 112.3797,83.3085 116.2847,63.7831 114.9831,31.2407 112.3797,25.1661 93.722,11.2814 85.0441,8.678 74.6305,8.678" stroke="#00007f" stroke-width="2" /><polyline fill="none" points="32.9763,30.8068 36.8814,33.4102 38.1831,36.8814 44.6915,72.8949 46.4271,105.4373 42.522,119.322" stroke="#7cff79" stroke-width="2" /><polyline fill="none" points="86.3458,16.922 79.4034,23.4305 75.0644,32.1085 72.461,42.9559 71.1593,59.0102 71.5932,94.1559 77.6678,105.4373 85.9119,111.078 86.3458,113.2475" stroke="#7f0000" stroke-width="2" /></svg>