<?xml version="1.0" encoding="utf-8" ?>
<svg baseProfile="tiny" height="128" version="1.2" viewBox="0,0,128,128" width="128" xmlns="http://www.w3.org/2000/svg" xmlns:ev="http://www.w3.org/2001/xml-events" xmlns:xlink="http://www.w3.org/1999/xlink"><defs /><polyline fill="none" points="9.1119,91.5525 8.678,90.2508" stroke="#00007f" stroke-width="2" /><polyline fill="none" points="74.6305,23.8644 46.4271,27.3356 31.2407,33.8441 23.8644,41.2203 19.5254,47.7288 15.1864,63.3492 12.1492,82.8746 13.0169,90.6847 17.7898,99.7966 23.8644,106.739 34.278,110.2102 49.4644,111.9458 74.6305,109.7763 93.2881,103.7017 103.7017,97.6271 111.078,88.9492 119.322,66.3864 118.8881,52.9356 114.5492,39.0508 109.3424,30.8068 105.0034,28.2034 97.1932,26.0339 83.3085,25.6 67.2542,29.939" stroke="#00d4ff" stroke-width="2" /><polyline fill="none" points="39.0508,34.7119 43.8237,40.7864 49.0305,52.5017 50.3322,68.5559 42.0881,91.5525 32.1085,103.7017" stroke="#ffe500" stroke-width="2" /><polyline fill="none" points="105.4373,8.678 92.4203,19.5254 78.1017,36.8814 68.5559,66.3864 68.122,75.9322 68.9898,83.7424 76.3661,98.9288 86.7797,106.739 92.8542,105.0034" stroke="#7f0000" stroke-width="2" /></svg>