<?xml version="1.0" encoding="utf-8" ?>
<svg baseProfile="tiny" height="128" version="1.2" viewBox="0,0,128,128" width="128" xmlns="http://www.w3.org/2000/svg" xmlns:ev="http://www.w3.org/2001/xml-events" xmlns:xlink="http://www.w3.org/1999/xlink"><defs /><polyline fill="none" points="67.6881,10.4136 60.7458,8.678 52.9356,8.678 42.522,11.7153 26.4678,21.261 17.3559,30.8068 11.7153,42.0881 8.678,55.1051 8.678,77.6678 13.0169,91.9864 20.3932,104.5695 31.2407,114.1153 43.3898,118.8881 56.4068,118.0203 64.2169,114.9831 76.8,103.7017 91.1186,85.9119 97.1932,73.3288 101.5322,55.9729 101.5322,44.2576 98.061,35.1458 92.8542,27.3356 83.3085,20.3932 77.2339,16.922 65.9525,14.7525" stroke="#00007f" stroke-width="2" /><polyline fill="none" points="57.2746,9.9797 57.2746,14.3186 55.539,21.261 49.4644,35.1458 42.9559,45.1254 25.6,64.6508 15.6203,72.461 9.5458,75.4983" stroke="#7cff79" stroke-width="2" /><polyline fill="none" points="91.1186,23.4305 83.7424,28.6373 69.4237,43.8237 66.8203,55.9729 67.2542,74.6305 70.2915,85.9119 77.2339,100.6644 91.1186,119.322" stroke="#7f0000" stroke-width="2" /></svg>