<?xml version="1.0" encoding="utf-8" ?>
<svg baseProfile="tiny" height="128" version="1.2" viewBox="0,0,128,128" width="128" xmlns="http://www.w3.org/2000/svg" xmlns:ev="http://www.w3.org/2001/xml-events" xmlns:xlink="http://www.w3.org/1999/xlink"><defs /><polyline fill="none" points="66.6122,13.4966 62.2585,11.3197 47.8912,11.3197 37.0068,15.2381 25.6871,21.3333 16.1088,29.1701 10.8844,38.3129 9.1429,43.9728 8.7075,56.5986 10.449,64.4354 17.8503,79.2381 28.7347,91.8639 35.7007,97.5238 43.5374,101.4422 61.3878,106.6667 80.1088,107.102 89.2517,105.7959 109.2789,96.6531 116.2449,89.2517 119.2925,80.5442 118.8571,64.0 114.9388,52.6803 106.2313,37.4422 98.8299,27.8639 90.1224,20.0272 76.1905,11.3197 67.483,8.7075 57.034,9.1429" stroke="#00007f" stroke-width="2" /><polyline fill="none" points="10.8844,33.5238 12.6259,32.2177 16.5442,32.2177 23.9456,35.2653 30.0408,39.619 37.4422,48.7619 47.8912,71.8367 55.7279,102.7483" stroke="#7cff79" stroke-width="2" /><polyline fill="none" points="70.966,9.1429 69.2245,15.2381 69.2245,33.9592 74.449,53.551 79.6735,62.2585 93.1701,77.932 103.1837,87.0748 109.2789,90.5578" stroke="#7f0000" stroke-width="2" /></svg>