<?xml version="1.0" encoding="utf-8" ?>
<svg baseProfile="tiny" height="128" version="1.2" viewBox="0,0,128,128" width="128" xmlns="http://www.w3.org/2000/svg" xmlns:ev="http://www.w3.org/2001/xml-events" xmlns:xlink="http://www.w3.org/1999/xlink"><defs /><polyline fill="none" points="75.4983,20.8271 54.2373,21.261 40.7864,24.2983 28.6373,29.5051 16.4881,38.6169 9.1119,51.2 8.678,73.7627 12.5831,88.5153 19.0915,103.7017 27.7695,114.9831 47.2949,119.322 62.0475,118.8881 92.8542,100.2305 98.4949,93.2881 104.1356,67.6881 105.0034,50.3322 103.7017,45.9932 100.6644,42.0881 93.2881,36.4475 75.0644,30.8068 68.5559,20.8271 61.1797,19.5254" stroke="#00007f" stroke-width="2" /><polyline fill="none" points="39.0508,23.8644 46.861,42.0881 47.2949,55.539 39.9186,89.8169 27.3356,115.8508 26.4678,116.7186 26.0339,114.9831 26.9017,110.6441" stroke="#7cff79" stroke-width="2" /><polyline fill="none" points="54.2373,118.4542 57.2746,103.7017 59.878,71.1593 67.2542,48.5966 81.139,23.8644 88.0814,15.6203 98.061,8.678" stroke="#7f0000" stroke-width="2" /></svg>