<?xml version="1.0" encoding="utf-8" ?>
<svg baseProfile="tiny" height="128" version="1.2" viewBox="0,0,128,128" width="128" xmlns="http://www.w3.org/2000/svg" xmlns:ev="http://www.w3.org/2001/xml-events" xmlns:xlink="http://www.w3.org/1999/xlink"><defs /><polyline fill="none" points="68.5559,8.678 48.5966,8.678 32.1085,16.922 23.4305,23.8644 14.7525,33.4102 11.2814,41.2203 8.678,51.2 8.678,65.5186 17.7898,89.3831 22.9966,95.8915 32.5424,104.1356 47.2949,111.078 56.8407,113.6814 75.4983,114.9831 86.3458,111.078 97.1932,104.1356 107.6068,93.722 117.1525,79.8373 119.322,71.5932 119.322,60.7458 115.4169,39.4847 111.078,31.6746 106.739,26.4678 93.722,19.0915 80.2712,13.4508 67.6881,11.2814 56.8407,11.2814 45.1254,16.0542" stroke="#00007f" stroke-width="2" /><polyline fill="none" points="39.0508,21.261 71.1593,87.6475 80.7051,104.1356" stroke="#0000d5" stroke-width="2" /><polyline fill="none" points="33.4102,36.8814 33.4102,36.8814" stroke="#001cff" stroke-width="2" /><polyline fill="none" points="43.8237,52.0678 43.8237,52.0678" stroke="#006cff" stroke-width="2" /><polyline fill="none" points="47.2949,71.1593 47.2949,71.1593" stroke="#00b8ff" stroke-width="2" /><polyline fill="none" points="57.2746,81.5729 57.2746,81.5729" stroke="#1cffda" stroke-width="2" /><polyline fill="none" points="30.8068,42.522 30.8068,42.522" stroke="#5cff9a" stroke-width="2" /><polyline fill="none" points="45.1254,72.0271 45.1254,72.0271" stroke="#9aff5c" stroke-width="2" /><polyline fill="none" points="30.8068,37.7492 30.8068,37.7492" stroke="#daff1c" stroke-width="2" /><polyline fill="none" points="47.2949,52.0678 47.2949,56.8407" stroke="#ffcb00" stroke-width="2" /><polyline fill="none" points="75.4983,15.6203 60.7458,27.3356 12.1492,72.461" stroke="#ff8500" stroke-width="2" /><polyline fill="none" points="108.4746,25.1661 91.9864,34.7119 73.3288,47.7288 38.1831,75.9322" stroke="#ff3b00" stroke-width="2" /><polyline fill="none" points="111.9458,36.0136 39.4847,100.2305" stroke="#d50000" stroke-width="2" /><polyline fill="none" points="53.3695,18.2237 68.5559,45.5593 80.7051,65.0847 93.722,81.5729" stroke="#7f0000" stroke-width="2" /></svg>