<?xml version="1.0" encoding="utf-8" ?>
<svg baseProfile="tiny" height="128" version="1.2" viewBox="0,0,128,128" width="128" xmlns="http://www.w3.org/2000/svg" xmlns:ev="http://www.w3.org/2001/xml-events" xmlns:xlink="http://www.w3.org/1999/xlink"><defs /><polyline fill="none" points="77.0612,12.6259 63.1293,12.6259 38.3129,19.1565 30.9116,23.0748 19.5918,32.6531 12.6259,43.102 8.7075,57.9048 9.1429,64.8707 12.6259,76.6259 26.1224,92.7347 36.1361,99.7007 47.4558,102.3129 54.4218,101.8776 74.449,97.5238 83.1565,92.7347 97.5238,80.9796 103.619,74.449 117.551,50.5034 119.2925,43.5374 119.2925,33.9592 113.6327,20.898 107.9728,15.2381 101.0068,11.7551 85.7687,8.7075 69.6599,10.0136" stroke="#00007f" stroke-width="2" /><polyline fill="none" points="31.3469,23.0748 42.2313,32.2177 47.4558,41.3605 48.7619,44.8435 48.7619,55.7279 46.585,64.4354 38.7483,78.3673 29.1701,87.9456 20.898,92.7347" stroke="#7cff79" stroke-width="2" /><polyline fill="none" points="89.2517,10.8844 81.8503,24.8163 75.7551,54.4218 75.7551,59.6463 78.8027,67.483 90.1224,80.1088" stroke="#7f0000" stroke-width="2" /></svg>