<?xml version="1.0" encoding="utf-8" ?>
<svg baseProfile="tiny" height="128" version="1.2" viewBox="0,0,128,128" width="128" xmlns="http://www.w3.org/2000/svg" xmlns:ev="http://www.w3.org/2001/xml-events" xmlns:xlink="http://www.w3.org/1999/xlink"><defs /><polyline fill="none" points="9.1119,27.7695 28.2034,19.0915 52.9356,9.9797 73.7627,8.678 95.0237,9.5458 108.9085,24.2983 117.1525,36.4475 119.322,44.6915 107.6068,76.8 102.8339,81.139 91.5525,85.0441 76.8,84.1763 26.9017,68.5559 15.6203,59.878 11.2814,52.5017 8.678,45.1254 10.8475,28.2034" stroke="#00007f" stroke-width="2" /><polyline fill="none" points="20.3932,20.8271 27.7695,26.4678 31.2407,37.7492 30.3729,57.2746 26.4678,74.1966" stroke="#004cff" stroke-width="2" /><polyline fill="none" points="85.0441,9.1119 85.9119,25.6 89.3831,46.4271 101.9661,73.3288 106.3051,79.4034" stroke="#29ffcd" stroke-width="2" /><polyline fill="none" points="79.8373,19.0915 88.5153,19.0915" stroke="#cdff29" stroke-width="2" /><polyline fill="none" points="82.0068,39.9186 94.1559,38.6169" stroke="#ff6700" stroke-width="2" /><polyline fill="none" points="90.2508,56.4068 99.7966,53.3695" stroke="#7f0000" stroke-width="2" /></svg>