<?xml version="1.0" encoding="utf-8" ?>
<svg baseProfile="tiny" height="128" version="1.2" viewBox="0,0,128,128" width="128" xmlns="http://www.w3.org/2000/svg" xmlns:ev="http://www.w3.org/2001/xml-events" xmlns:xlink="http://www.w3.org/1999/xlink"><defs /><polyline fill="none" points="114.0205,18.785 110.0887,14.8532 94.3618,10.0478 84.7509,8.7372 57.6655,8.7372 49.3652,9.6109 33.2014,13.9795 20.0956,21.843 13.9795,31.0171 8.7372,44.9966 8.7372,66.4027 12.6689,77.7611 15.727,82.5666 28.8328,93.9249 36.2594,98.2935 54.1706,103.9727 89.9932,103.9727 98.7304,100.4778 105.7201,89.5563 108.3413,81.6928 108.7782,77.7611 114.0205,69.8976 119.2628,57.2287 119.2628,25.7747 118.8259,21.843 115.3311,17.0375" stroke="#00007f" stroke-width="2" /><polyline fill="none" points="105.7201,17.9113 97.8567,20.9693 88.6826,36.2594 82.5666,51.1126 80.3823,62.0341 78.6348,80.3823 83.8771,92.6143 90.8669,98.7304" stroke="#7cff79" stroke-width="2" /><polyline fill="none" points="24.0273,20.9693 31.8908,25.7747 36.2594,33.2014 39.3174,44.5597 39.3174,53.2969 37.1331,64.6553 34.0751,72.5188 25.7747,83.0034 23.1536,82.5666" stroke="#7f0000" stroke-width="2" /></svg>