<?xml version="1.0" encoding="utf-8" ?>
<svg baseProfile="tiny" height="128" version="1.2" viewBox="0,0,128,128" width="128" xmlns="http://www.w3.org/2000/svg" xmlns:ev="http://www.w3.org/2001/xml-events" xmlns:xlink="http://www.w3.org/1999/xlink"><defs /><polyline fill="none" points="63.3492,108.4746 48.1627,98.061 25.6,76.3661 13.0169,62.4814 10.4136,53.8034 10.4136,23.8644 20.8271,19.5254 82.0068,8.678 88.5153,8.678 93.722,10.4136 109.3424,19.0915 114.9831,30.8068 118.8881,53.3695 119.322,63.3492 114.9831,75.9322 108.4746,84.6102 105.0034,92.8542 91.9864,100.2305 73.7627,105.4373 60.7458,106.739 59.4441,106.3051 59.0102,103.2678" stroke="#00007f" stroke-width="2" /><polyline fill="none" points="57.7085,17.3559 56.8407,37.3153 35.1458,43.8237 30.3729,47.7288 15.6203,49.8983 14.3186,55.1051 8.678,57.2746" stroke="#00d4ff" stroke-width="2" /><polyline fill="none" points="52.9356,40.7864 72.461,52.0678 72.461,70.7254 30.3729,92.8542 27.7695,97.1932" stroke="#ffe500" stroke-width="2" /><polyline fill="none" points="67.6881,72.8949 71.1593,76.3661 105.0034,95.4576 108.4746,99.7966 108.0407,105.0034 103.7017,106.739 105.4373,107.1729 97.1932,104.5695" stroke="#7f0000" stroke-width="2" /></svg>