<?xml version="1.0" encoding="utf-8" ?>
<svg baseProfile="tiny" height="128" version="1.2" viewBox="0,0,128,128" width="128" xmlns="http://www.w3.org/2000/svg" xmlns:ev="http://www.w3.org/2001/xml-events" xmlns:xlink="http://www.w3.org/1999/xlink"><defs /><polyline fill="none" points="103.7017,24.2983 82.4407,24.2983 52.0678,19.0915 29.939,19.0915 22.9966,24.7322 15.1864,40.3525 8.678,62.4814 8.678,75.4983 12.5831,86.3458 22.9966,103.7017 36.4475,112.8136 64.2169,119.322 83.7424,119.322 91.9864,116.7186 96.7593,110.2102 110.2102,86.3458 111.5119,79.8373 111.5119,52.5017 108.9085,39.4847 103.2678,30.8068 96.7593,24.2983" stroke="#00007f" stroke-width="2" /><polyline fill="none" points="17.7898,8.678 24.2983,21.6949 27.3356,37.7492 31.2407,50.7661 35.1458,57.7085 37.7492,74.1966 44.2576,97.1932 45.5593,110.2102 46.861,111.5119" stroke="#7cff79" stroke-width="2" /><polyline fill="none" points="92.8542,28.6373 87.6475,36.4475 85.0441,55.9729 85.0441,90.2508 87.6475,103.7017 94.1559,116.7186" stroke="#7f0000" stroke-width="2" /></svg>