<?xml version="1.0" encoding="utf-8" ?>
<svg baseProfile="tiny" height="128" version="1.2" viewBox="0,0,128,128" width="128" xmlns="http://www.w3.org/2000/svg" xmlns:ev="http://www.w3.org/2001/xml-events" xmlns:xlink="http://www.w3.org/1999/xlink"><defs /><polyline fill="none" points="81.139,14.3186 69.8576,11.7153 60.7458,11.7153 47.2949,13.8847 27.7695,22.5627 18.2237,30.3729 11.2814,44.2576 8.678,60.3119 9.9797,76.3661 13.8847,88.9492 18.2237,96.3254 32.9763,109.7763 40.7864,114.1153 50.3322,116.2847 63.3492,116.2847 80.2712,111.9458 96.7593,105.4373 107.6068,97.6271 114.9831,88.9492 119.322,70.7254 117.5864,58.1424 91.9864,22.1288 85.9119,16.0542 76.3661,9.1119" stroke="#00007f" stroke-width="2" /><polyline fill="none" points="20.8271,18.6576 31.2407,29.939 38.6169,43.8237 45.1254,72.461 45.1254,82.4407 42.522,95.4576 36.8814,109.7763" stroke="#00d4ff" stroke-width="2" /><polyline fill="none" points="84.6102,8.678 81.139,34.7119 84.1763,84.6102 92.4203,98.4949 99.7966,104.5695" stroke="#ffe500" stroke-width="2" /><polyline fill="none" points="24.7322,35.5797 36.4475,29.0712" stroke="#7f0000" stroke-width="2" /></svg>