<?xml version="1.0" encoding="utf-8" ?>
<svg baseProfile="tiny" height="128" version="1.2" viewBox="0,0,128,128" width="128" xmlns="http://www.w3.org/2000/svg" xmlns:ev="http://www.w3.org/2001/xml-events" xmlns:xlink="http://www.w3.org/1999/xlink"><defs /><polyline fill="none" points="42.9559,8.678 32.9763,9.1119 20.8271,15.1864 12.5831,21.6949 9.9797,29.939 8.678,41.2203 9.1119,63.7831 10.8475,78.9695 13.8847,88.0814 21.261,101.9661 31.2407,111.5119 40.3525,116.7186 51.6339,118.8881 68.5559,118.4542 72.0271,117.1525 79.8373,111.078 88.0814,101.9661 96.7593,86.3458 100.6644,74.1966 102.4,53.8034 102.4,32.9763 101.0983,23.8644 98.061,20.8271 88.9492,16.4881 66.8203,10.8475 38.6169,10.4136 31.2407,14.7525 27.7695,19.9593 25.6,39.4847 26.4678,42.522 31.2407,45.5593 34.278,51.6339 36.0136,59.0102 39.4847,66.8203 43.3898,99.7966 49.8983,115.8508" stroke="#00007f" stroke-width="2" /><polyline fill="none" points="55.9729,28.6373 58.5763,72.461 62.0475,89.8169 72.0271,119.322" stroke="#00d4ff" stroke-width="2" /><polyline fill="none" points="81.139,23.8644 83.3085,45.5593 94.1559,83.3085" stroke="#ffe500" stroke-width="2" /><polyline fill="none" points="57.2746,45.5593 57.2746,24.7322" stroke="#7f0000" stroke-width="2" /></svg>