<?xml version="1.0" encoding="utf-8" ?>
<svg baseProfile="tiny" height="128" version="1.2" viewBox="0,0,128,128" width="128" xmlns="http://www.w3.org/2000/svg" xmlns:ev="http://www.w3.org/2001/xml-events" xmlns:xlink="http://www.w3.org/1999/xlink"><defs /><polyline fill="none" points="59.878,8.678 49.0305,8.678 42.522,10.4136 37.7492,14.3186 17.3559,44.2576 13.4508,52.0678 9.5458,68.5559 8.678,100.2305 14.7525,106.739 26.9017,111.5119 49.0305,117.5864 74.1966,119.322 97.1932,118.4542 104.1356,105.0034 102.8339,88.5153 83.7424,33.8441 78.1017,23.4305 73.3288,17.3559 67.2542,15.6203 49.8983,15.6203" stroke="#00007f" stroke-width="2" /><polyline fill="none" points="23.8644,25.1661 29.939,41.2203 34.7119,71.1593 33.8441,98.061 25.1661,105.0034" stroke="#7cff79" stroke-width="2" /><polyline fill="none" points="71.1593,104.1356 71.1593,73.3288 75.0644,56.8407 77.2339,49.8983 88.5153,37.7492" stroke="#7f0000" stroke-width="2" /></svg>