<?xml version="1.0" encoding="utf-8" ?>
<svg baseProfile="tiny" height="128" version="1.2" viewBox="0,0,128,128" width="128" xmlns="http://www.w3.org/2000/svg" xmlns:ev="http://www.w3.org/2001/xml-events" xmlns:xlink="http://www.w3.org/1999/xlink"><defs /><polyline fill="none" points="36.4475,75.4983 22.9966,75.0644 13.8847,66.3864 9.5458,58.5763 8.678,54.2373 10.4136,41.2203 19.0915,28.2034 28.2034,22.1288 42.522,21.6949 52.5017,32.1085 58.5763,47.2949 58.5763,65.5186 52.0678,71.5932 48.1627,72.461 36.4475,73.3288 34.278,72.0271" stroke="#00007f" stroke-width="2" /><polyline fill="none" points="23.4305,34.7119 27.7695,49.4644 28.2034,62.0475 22.5627,66.3864" stroke="#0080ff" stroke-width="2" /><polyline fill="none" points="50.3322,33.4102 45.1254,43.8237 42.9559,54.2373 42.9559,64.6508 45.9932,71.5932 48.5966,73.7627 52.0678,74.1966" stroke="#7cff79" stroke-width="2" /><polyline fill="none" points="98.4949,65.5186 96.3254,65.5186 92.8542,67.6881 88.9492,75.9322 88.9492,82.8746 93.2881,85.9119 111.9458,85.9119 114.5492,82.8746 114.9831,77.6678 114.5492,74.6305 111.5119,70.2915" stroke="#ff9400" stroke-width="2" /><polyline fill="none" points="97.1932,65.5186 94.5898,62.4814 94.5898,49.0305 106.739,19.9593 112.8136,10.4136 114.9831,8.678 117.1525,10.4136 119.322,46.4271 113.2475,62.4814" stroke="#7f0000" stroke-width="2" /></svg>