<?xml version="1.0" encoding="utf-8" ?>
<svg baseProfile="tiny" height="128" version="1.2" viewBox="0,0,128,128" width="128" xmlns="http://www.w3.org/2000/svg" xmlns:ev="http://www.w3.org/2001/xml-events" xmlns:xlink="http://www.w3.org/1999/xlink"><defs /><polyline fill="none" points="51.2,8.678 39.4847,11.2814 31.2407,15.6203 27.3356,18.6576 16.0542,32.5424 11.7153,42.0881 8.678,59.4441 9.1119,72.0271 11.7153,81.139 16.0542,89.3831 31.2407,105.4373 44.2576,114.9831 54.2373,118.8881 64.6508,119.322 74.6305,116.7186 85.478,111.5119 95.0237,103.7017 104.1356,92.4203 109.7763,79.8373 112.3797,66.3864 112.3797,58.1424 108.9085,44.2576 101.9661,33.4102 91.5525,21.6949 76.3661,10.8475 66.8203,9.1119 58.5763,10.8475 39.9186,20.3932" stroke="#00007f" stroke-width="2" /><polyline fill="none" points="37.7492,15.6203 34.278,42.0881 29.5051,60.3119 21.6949,78.5356 15.1864,90.6847" stroke="#7f0000" stroke-width="2" /></svg>