<?xml version="1.0" encoding="utf-8" ?>
<svg baseProfile="tiny" height="128" version="1.2" viewBox="0,0,128,128" width="128" xmlns="http://www.w3.org/2000/svg" xmlns:ev="http://www.w3.org/2001/xml-events" xmlns:xlink="http://www.w3.org/1999/xlink"><defs /><polyline fill="none" points="32.7645,96.1092 34.0751,94.7986 29.7065,94.7986 27.5222,97.4198 26.6485,100.9147 31.0171,102.2253 34.0751,100.9147 33.6382,100.041" stroke="#00007f" stroke-width="2" /><polyline fill="none" points="34.0751,95.6724 16.6007,51.1126 8.7372,18.3481 9.1741,11.7952 15.2901,8.7372 24.0273,9.1741 27.5222,15.727 29.2696,27.5222 29.7065,48.4915 32.3276,70.7713 33.2014,93.4881" stroke="#0000bf" stroke-width="2" /><polyline fill="none" points="59.413,35.8225 56.3549,34.5119 51.9863,35.3857 44.9966,43.2491 44.5597,47.6177 46.744,50.6758 52.8601,53.2969 58.9761,53.2969 63.3447,49.3652 65.0922,43.686 64.2184,40.628 58.5392,38.4437" stroke="#0000fe" stroke-width="2" /><polyline fill="none" points="79.0717,82.1297 70.7713,81.256 53.7338,82.1297 48.4915,83.8771 47.6177,86.4983 54.1706,88.6826 69.0239,86.0614 80.8191,86.9352" stroke="#0028ff" stroke-width="2" /><polyline fill="none" points="79.9454,79.9454 80.3823,71.2082 83.4403,67.7133 86.4983,65.9659 91.3038,65.529 96.1092,67.2765 99.6041,74.7031 100.4778,86.9352 82.1297,88.2457" stroke="#0060ff" stroke-width="2" /><polyline fill="none" points="81.256,86.9352 78.6348,91.3038 79.5085,98.7304 80.8191,101.3515 84.7509,102.6621 93.9249,100.4778 95.6724,119.2628" stroke="#009cff" stroke-width="2" /><polyline fill="none" points="100.041,85.6246 101.7884,95.6724 100.9147,118.3891" stroke="#00d4ff" stroke-width="2" /><polyline fill="none" points="59.413,37.1331 59.8498,37.57" stroke="#1fffd7" stroke-width="2" /><polyline fill="none" points="53.2969,36.6962 54.6075,40.628" stroke="#4cffaa" stroke-width="2" /><polyline fill="none" points="56.7918,37.1331 58.1024,39.7543" stroke="#7cff79" stroke-width="2" /><polyline fill="none" points="45.8703,50.2389 63.3447,44.1229" stroke="#aaff4c" stroke-width="2" /><polyline fill="none" points="38.4437,94.7986 34.5119,94.7986 31.8908,98.7304 34.9488,100.9147 38.4437,99.6041 39.3174,96.5461 38.0068,95.6724 33.2014,96.9829 31.8908,98.2935 32.7645,99.1672" stroke="#d7ff1f" stroke-width="2" /><polyline fill="none" points="35.3857,92.6143 17.4744,41.9386 15.2901,28.3959" stroke="#ffe500" stroke-width="2" /><polyline fill="none" points="14.8532,26.2116 24.0273,27.5222 27.5222,25.3379" stroke="#ffb100" stroke-width="2" /><polyline fill="none" points="17.0375,36.2594 20.0956,38.0068 25.3379,37.57 32.3276,34.9488" stroke="#ff7a00" stroke-width="2" /><polyline fill="none" points="17.4744,44.9966 22.7167,45.4334 28.3959,41.5017" stroke="#ff4600" stroke-width="2" /><polyline fill="none" points="18.3481,53.7338 22.2799,53.7338 28.8328,51.5495" stroke="#fe1200" stroke-width="2" /><polyline fill="none" points="14.8532,9.6109 18.3481,30.5802 31.4539,75.5768 15.2901,34.9488 13.5427,19.2218 18.3481,32.3276 21.843,51.5495 23.5904,64.2184 20.9693,57.6655 13.5427,32.7645 10.4846,16.6007 10.4846,12.6689 11.7952,14.8532 18.3481,47.1809 26.6485,66.8396 28.8328,63.7816 28.8328,55.4812 23.5904,15.2901 23.5904,10.4846 25.3379,16.1638 30.1433,45.8703 30.1433,61.1604 22.2799,31.4539 20.9693,15.2901 23.5904,20.0956 32.7645,61.5973 20.0956,20.9693 20.9693,29.7065 27.0853,60.7235 31.4539,74.7031 20.0956,46.744 31.0171,67.7133 34.0751,79.0717 31.0171,78.6348 26.6485,72.5188 20.9693,59.413 20.0956,53.7338 28.8328,66.8396" stroke="#bf0000" stroke-width="2" /><polyline fill="none" points="59.413,38.8805 56.3549,34.9488 52.4232,34.5119 47.1809,40.1911 44.9966,44.1229 44.5597,48.0546 45.8703,52.8601 51.9863,55.4812" stroke="#7f0000" stroke-width="2" /></svg>