<?xml version="1.0" encoding="utf-8" ?>
<svg baseProfile="tiny" height="128" version="1.2" viewBox="0,0,128,128" width="128" xmlns="http://www.w3.org/2000/svg" xmlns:ev="http://www.w3.org/2001/xml-events" xmlns:xlink="http://www.w3.org/1999/xlink"><defs /><polyline fill="none" points="56.8407,11.2814 49.8983,11.7153 42.522,14.3186 28.6373,22.5627 18.2237,31.6746 9.9797,47.7288 8.678,56.8407 8.678,72.0271 16.4881,85.9119 24.2983,94.1559 41.6542,105.4373 62.0475,112.3797 72.8949,111.5119 93.2881,102.4 102.4,96.3254 109.7763,88.0814 118.0203,66.3864 119.322,56.8407 119.322,39.0508 114.9831,25.6 108.9085,18.2237 98.4949,14.3186 76.8,8.678 71.5932,8.678 60.7458,11.7153" stroke="#00007f" stroke-width="2" /><polyline fill="none" points="96.3254,17.3559 88.5153,29.0712 82.8746,42.0881 78.9695,58.5763 79.8373,83.3085 88.5153,101.9661 88.9492,104.1356 86.7797,101.9661" stroke="#0080ff" stroke-width="2" /><polyline fill="none" points="27.7695,20.8271 32.1085,35.5797 32.5424,63.7831 29.939,74.6305 26.9017,81.139 20.3932,87.6475" stroke="#7cff79" stroke-width="2" /><polyline fill="none" points="25.1661,39.9186 32.1085,41.6542 34.7119,43.8237" stroke="#ff9400" stroke-width="2" /><polyline fill="none" points="26.0339,56.8407 30.3729,61.6136 32.9763,68.5559" stroke="#7f0000" stroke-width="2" /></svg>