<?xml version="1.0" encoding="utf-8" ?>
<svg baseProfile="tiny" height="128" version="1.2" viewBox="0,0,128,128" width="128" xmlns="http://www.w3.org/2000/svg" xmlns:ev="http://www.w3.org/2001/xml-events" xmlns:xlink="http://www.w3.org/1999/xlink"><defs /><polyline fill="none" points="10.8475,69.4237 14.3186,62.0475 21.261,38.1831 28.6373,25.6 39.4847,17.3559 52.0678,11.7153 62.4814,9.1119 73.3288,8.678 83.7424,12.5831 89.8169,17.7898 100.6644,36.8814 103.7017,58.5763 103.2678,72.0271 100.6644,78.9695 90.6847,97.1932 82.4407,105.8712 71.5932,114.1153 56.4068,118.8881 36.0136,119.322 28.2034,118.0203 21.261,114.9831 13.8847,108.9085 9.9797,101.9661 8.678,97.1932 9.1119,86.7797 15.1864,65.9525 16.0542,55.539" stroke="#00007f" stroke-width="2" /><polyline fill="none" points="13.0169,105.4373 31.2407,75.9322 40.7864,57.7085 42.9559,42.9559 43.3898,26.0339 40.3525,18.6576 36.4475,15.6203" stroke="#0000ff" stroke-width="2" /><polyline fill="none" points="78.9695,105.4373 76.3661,92.8542 76.3661,75.4983 80.7051,40.3525 84.1763,27.3356 87.2136,24.7322 94.5898,22.9966" stroke="#0080ff" stroke-width="2" /><polyline fill="none" points="67.2542,95.8915 76.3661,92.4203 82.0068,85.478" stroke="#15ffe1" stroke-width="2" /><polyline fill="none" points="75.4983,72.0271 79.8373,70.7254" stroke="#7cff79" stroke-width="2" /><polyline fill="none" points="69.4237,65.5186 77.6678,64.6508" stroke="#e4ff12" stroke-width="2" /><polyline fill="none" points="73.7627,52.0678 77.2339,51.2" stroke="#ff9400" stroke-width="2" /><polyline fill="none" points="69.8576,29.939 77.6678,32.1085" stroke="#ff1d00" stroke-width="2" /><polyline fill="none" points="25.1661,85.478 22.9966,82.0068" stroke="#7f0000" stroke-width="2" /></svg>