<?xml version="1.0" encoding="utf-8" ?>
<svg baseProfile="tiny" height="128" version="1.2" viewBox="0,0,128,128" width="128" xmlns="http://www.w3.org/2000/svg" xmlns:ev="http://www.w3.org/2001/xml-events" xmlns:xlink="http://www.w3.org/1999/xlink"><defs /><polyline fill="none" points="88.5153,10.8475 31.2407,10.8475 23.8644,13.4508 14.3186,20.8271 10.8475,30.3729 8.678,45.5593 8.678,63.7831 11.2814,75.9322 15.6203,84.1763 28.2034,97.6271 41.6542,106.3051 51.6339,109.3424 71.1593,110.6441 85.9119,108.0407 97.6271,103.2678 106.739,91.9864 117.1525,71.1593 119.322,60.3119 119.322,51.6339 111.078,29.5051 103.2678,18.2237 96.3254,14.3186 82.8746,13.8847" stroke="#00007f" stroke-width="2" /><polyline fill="none" points="22.5627,81.5729 22.9966,76.8 25.6,73.3288 29.939,70.7254 53.3695,65.5186 60.7458,54.6712 64.2169,37.3153 64.2169,28.6373 60.7458,14.3186 56.4068,8.678" stroke="#00d4ff" stroke-width="2" /><polyline fill="none" points="110.6441,36.4475 105.0034,36.4475 97.6271,43.3898 90.2508,52.9356 88.5153,58.1424 87.6475,78.9695 89.3831,86.7797 86.3458,96.7593 87.2136,101.9661 94.5898,112.8136" stroke="#ffe500" stroke-width="2" /><polyline fill="none" points="25.6,66.3864 37.7492,68.9898 39.4847,65.9525 39.4847,55.539 60.7458,68.5559" stroke="#7f0000" stroke-width="2" /></svg>