<?xml version="1.0" encoding="utf-8" ?>
<svg baseProfile="tiny" height="128" version="1.2" viewBox="0,0,128,128" width="128" xmlns="http://www.w3.org/2000/svg" xmlns:ev="http://www.w3.org/2001/xml-events" xmlns:xlink="http://www.w3.org/1999/xlink"><defs /><polyline fill="none" points="49.1973,8.7075 37.8776,8.7075 27.4286,13.4966 17.8503,24.8163 8.7075,42.6667 8.7075,63.5646 10.449,70.5306 19.1565,85.7687 25.6871,94.4762 31.3469,100.5714 43.102,107.5374 57.034,108.8435 77.0612,105.3605 87.5102,101.4422 101.0068,92.7347 107.5374,86.2041 116.2449,72.2721 119.2925,58.3401 116.6803,42.6667 108.8435,30.0408 96.6531,17.8503 82.2857,12.1905 55.2925,10.8844 44.8435,13.4966" stroke="#00007f" stroke-width="2" /><polyline fill="none" points="29.1701,10.0136 37.0068,17.415 41.3605,23.0748 44.4082,34.8299 45.7143,50.068 43.5374,79.6735 41.7959,88.381 38.7483,92.2993 32.6531,96.2177" stroke="#004cff" stroke-width="2" /><polyline fill="none" points="72.7075,17.415 69.2245,52.6803 74.0136,67.9184 80.1088,77.932 97.5238,96.2177" stroke="#29ffcd" stroke-width="2" /><polyline fill="none" points="58.7755,35.2653 65.3061,35.7007 77.932,34.3946" stroke="#cdff29" stroke-width="2" /><polyline fill="none" points="69.2245,69.6599 74.0136,70.5306 80.9796,66.6122" stroke="#ff6700" stroke-width="2" /><polyline fill="none" points="84.0272,76.1905 83.1565,81.8503 84.898,82.7211 97.9592,75.3197" stroke="#7f0000" stroke-width="2" /></svg>