<?xml version="1.0" encoding="utf-8" ?>
<svg baseProfile="tiny" height="128" version="1.2" viewBox="0,0,128,128" width="128" xmlns="http://www.w3.org/2000/svg" xmlns:ev="http://www.w3.org/2001/xml-events" xmlns:xlink="http://www.w3.org/1999/xlink"><defs /><polyline fill="none" points="46.585,12.1905 41.7959,13.4966 32.2177,22.2041 20.4626,37.4422 11.3197,54.4218 8.7075,67.9184 10.8844,83.1565 16.9796,95.7823 24.8163,104.9252 41.3605,117.1156 47.8912,119.2925 60.517,119.2925 66.1769,114.9388 70.5306,109.2789 82.2857,87.0748 85.7687,72.2721 85.7687,59.6463 77.932,40.9252 68.7891,28.2993 57.034,17.415 40.9252,8.7075" stroke="#00007f" stroke-width="2" /><polyline fill="none" points="41.3605,20.898 33.5238,33.0884 29.6054,45.2789 25.2517,64.4354 25.2517,77.4966 23.5102,89.6871" stroke="#0010ff" stroke-width="2" /><polyline fill="none" points="22.2041,35.7007 31.7823,36.1361" stroke="#00a4ff" stroke-width="2" /><polyline fill="none" points="18.7211,45.7143 30.9116,43.5374" stroke="#3fffb7" stroke-width="2" /><polyline fill="none" points="13.0612,58.7755 17.415,59.2109 23.9456,57.034" stroke="#b7ff3f" stroke-width="2" /><polyline fill="none" points="14.3673,70.0952 20.4626,71.4014" stroke="#ffb900" stroke-width="2" /><polyline fill="none" points="23.0748,80.5442 27.4286,80.9796 30.9116,80.1088 37.4422,75.7551" stroke="#ff3000" stroke-width="2" /><polyline fill="none" points="17.8503,90.5578 24.381,87.0748" stroke="#7f0000" stroke-width="2" /></svg>