<?xml version="1.0" encoding="utf-8" ?>
<svg baseProfile="tiny" height="128" version="1.2" viewBox="0,0,128,128" width="128" xmlns="http://www.w3.org/2000/svg" xmlns:ev="http://www.w3.org/2001/xml-events" xmlns:xlink="http://www.w3.org/1999/xlink"><defs /><polyline fill="none" points="49.1973,34.8299 46.1497,30.9116 41.3605,29.6054 30.9116,30.0408 22.6395,33.9592 15.2381,40.0544 10.0136,47.4558 8.7075,57.4694 12.1905,62.6939 23.9456,69.2245 32.2177,71.4014 50.068,70.5306 58.3401,65.3061 65.7415,56.5986 66.1769,47.4558 59.6463,39.1837 55.2925,35.7007 47.4558,32.2177" stroke="#00007f" stroke-width="2" /><polyline fill="none" points="92.7347,91.4286 85.7687,89.6871 81.415,92.2993 82.2857,96.6531 90.5578,101.0068 109.2789,101.8776 115.8095,98.8299 115.8095,94.9116 114.068,92.2993 107.9728,88.8163 104.4898,88.8163 104.0544,87.0748 115.3741,52.2449 119.2925,23.5102 118.8571,11.7551 113.1973,8.7075 107.5374,8.7075 101.0068,26.9932 94.9116,53.9864 91.4286,88.8163" stroke="#7f0000" stroke-width="2" /></svg>