<?xml version="1.0" encoding="utf-8" ?>
<svg baseProfile="tiny" height="128" version="1.2" viewBox="0,0,128,128" width="128" xmlns="http://www.w3.org/2000/svg" xmlns:ev="http://www.w3.org/2001/xml-events" xmlns:xlink="http://www.w3.org/1999/xlink"><defs /><polyline fill="none" points="61.6136,33.4102 61.6136,23.4305 59.4441,23.4305 23.8644,26.0339 18.6576,27.7695 10.8475,35.1458 8.678,47.7288 8.678,94.5898 12.5831,108.0407 18.2237,115.4169 26.9017,118.8881 44.6915,119.322 50.7661,118.0203 61.6136,113.2475 72.0271,105.4373 89.3831,89.8169 92.4203,84.1763 93.722,50.3322 91.9864,40.3525 88.9492,31.2407 82.4407,21.6949 73.7627,13.8847 68.122,10.8475 53.8034,8.678 50.7661,9.5458" stroke="#00007f" stroke-width="2" /><polyline fill="none" points="44.2576,10.4136 45.5593,18.2237 45.5593,32.5424" stroke="#0080ff" stroke-width="2" /><polyline fill="none" points="31.6746,27.7695 45.5593,34.278 90.2508,62.9153 99.3627,69.8576 99.7966,72.0271" stroke="#7cff79" stroke-width="2" /><polyline fill="none" points="91.9864,37.3153 84.6102,37.3153 82.8746,39.4847 82.4407,54.6712 81.139,64.6508 76.3661,72.8949 72.0271,77.2339 28.2034,104.1356 17.3559,106.739" stroke="#ff9400" stroke-width="2" /><polyline fill="none" points="12.5831,47.2949 62.4814,47.2949 89.8169,52.5017" stroke="#7f0000" stroke-width="2" /></svg>