<?xml version="1.0" encoding="utf-8" ?>
<svg baseProfile="tiny" height="128" version="1.2" viewBox="0,0,128,128" width="128" xmlns="http://www.w3.org/2000/svg" xmlns:ev="http://www.w3.org/2001/xml-events" xmlns:xlink="http://www.w3.org/1999/xlink"><defs /><polyline fill="none" points="114.9831,17.3559 108.9085,13.0169 99.3627,9.9797 85.9119,8.678 62.9153,8.678 44.6915,16.0542 29.5051,27.7695 23.4305,35.5797 19.5254,43.8237 15.1864,59.878 14.7525,68.122 14.7525,82.8746 19.5254,95.0237 22.5627,99.3627 31.6746,102.4 49.0305,102.4 57.2746,101.0983 72.8949,95.0237 81.139,90.2508 97.6271,78.9695 109.7763,67.2542 113.6814,61.1797 117.1525,51.2 119.322,32.1085 115.4169,25.6 108.9085,19.0915" stroke="#00007f" stroke-width="2" /><polyline fill="none" points="34.278,25.6 36.8814,29.939 46.4271,38.1831 52.5017,40.3525 77.6678,40.3525 82.0068,39.4847 91.9864,32.9763 109.7763,13.8847" stroke="#004cff" stroke-width="2" /><polyline fill="none" points="23.4305,90.6847 27.3356,89.8169 50.7661,74.6305 70.7254,68.122 78.9695,68.122 85.478,78.9695 87.2136,85.478" stroke="#29ffcd" stroke-width="2" /><polyline fill="none" points="66.3864,43.8237 63.7831,52.0678 59.878,74.6305" stroke="#cdff29" stroke-width="2" /><polyline fill="none" points="118.4542,32.9763 113.2475,36.0136 107.6068,41.2203 104.1356,48.1627 96.7593,65.5186 98.061,73.3288" stroke="#ff6700" stroke-width="2" /><polyline fill="none" points="23.8644,37.3153 23.8644,46.861 27.7695,63.7831 27.7695,71.5932 23.8644,74.6305 8.678,80.2712" stroke="#7f0000" stroke-width="2" /></svg>