<?xml version="1.0" encoding="utf-8" ?>
<svg baseProfile="tiny" height="128" version="1.2" viewBox="0,0,128,128" width="128" xmlns="http://www.w3.org/2000/svg" xmlns:ev="http://www.w3.org/2001/xml-events" xmlns:xlink="http://www.w3.org/1999/xlink"><defs /><polyline fill="none" points="70.5306,11.3197 53.9864,11.3197 46.585,14.3673 18.2857,36.1361 11.3197,43.5374 8.7075,49.1973 8.7075,69.2245 15.2381,84.898 26.5578,99.2653 36.1361,106.6667 50.5034,114.068 65.7415,119.2925 84.0272,119.2925 102.7483,111.8912 107.102,95.3469 107.102,77.932 99.7007,51.8095 78.8027,20.0272 69.2245,10.449 64.4354,8.7075" stroke="#00007f" stroke-width="2" /><polyline fill="none" points="29.1701,23.5102 31.3469,38.3129 30.9116,65.3061 27.4286,79.6735 20.898,89.6871" stroke="#7cff79" stroke-width="2" /><polyline fill="none" points="93.6054,43.102 78.8027,60.9524 74.449,68.7891 71.8367,77.932 71.4014,104.9252 73.5782,112.3265 77.932,118.4218" stroke="#7f0000" stroke-width="2" /></svg>