<?xml version="1.0" encoding="utf-8" ?>
<svg baseProfile="tiny" height="128" version="1.2" viewBox="0,0,128,128" width="128" xmlns="http://www.w3.org/2000/svg" xmlns:ev="http://www.w3.org/2001/xml-events" xmlns:xlink="http://www.w3.org/1999/xlink"><defs /><polyline fill="none" points="69.4237,11.2814 61.1797,13.8847 29.0712,36.4475 19.9593,44.2576 11.7153,56.8407 8.678,68.9898 9.1119,81.139 11.2814,85.9119 17.3559,93.2881 29.0712,101.9661 46.861,106.739 68.9898,106.739 85.0441,100.6644 91.9864,96.3254 97.1932,92.8542 103.2678,83.7424 105.8712,69.4237 97.1932,41.2203 76.3661,17.3559 64.2169,8.678" stroke="#00007f" stroke-width="2" /><polyline fill="none" points="22.5627,39.9186 24.7322,44.6915 43.3898,67.2542 50.7661,98.4949 50.3322,106.739 45.5593,119.322 45.5593,114.5492" stroke="#7cff79" stroke-width="2" /><polyline fill="none" points="64.6508,9.9797 63.3492,14.3186 63.3492,66.8203 65.0847,74.1966 73.7627,88.5153 76.8,89.8169 100.2305,89.8169" stroke="#7f0000" stroke-width="2" /></svg>