<?xml version="1.0" encoding="utf-8" ?>
<svg baseProfile="tiny" height="128" version="1.2" viewBox="0,0,128,128" width="128" xmlns="http://www.w3.org/2000/svg" xmlns:ev="http://www.w3.org/2001/xml-events" xmlns:xlink="http://www.w3.org/1999/xlink"><defs /><polyline fill="none" points="55.539,13.8847 36.4475,13.0169 23.8644,20.8271 16.4881,29.5051 12.1492,37.3153 8.678,48.1627 9.1119,62.4814 19.5254,89.3831 29.939,100.6644 38.1831,104.1356 52.9356,105.4373 65.0847,108.0407 87.2136,108.0407 99.3627,104.5695 108.4746,94.1559 113.6814,82.0068 117.1525,68.5559 115.8508,42.0881 106.739,26.0339 104.1356,22.5627 95.4576,16.922 75.4983,9.1119 57.2746,8.678 49.8983,9.9797 46.861,13.4508 45.5593,17.3559" stroke="#00007f" stroke-width="2" /><polyline fill="none" points="87.2136,10.8475 85.0441,11.7153 82.4407,16.922 75.9322,37.7492 75.9322,41.6542 73.3288,46.861 69.4237,71.1593 68.9898,83.3085 67.6881,86.3458 67.6881,104.5695 68.9898,111.078 70.2915,114.9831 74.6305,119.322" stroke="#00d4ff" stroke-width="2" /><polyline fill="none" points="35.5797,13.8847 41.6542,28.2034 44.2576,39.0508 45.1254,71.5932 43.3898,79.8373 36.0136,94.1559 31.6746,100.2305 29.5051,100.2305 29.0712,97.6271" stroke="#ffe500" stroke-width="2" /><polyline fill="none" points="37.7492,34.278 46.861,34.278" stroke="#7f0000" stroke-width="2" /></svg>