<?xml version="1.0" encoding="utf-8" ?>
<svg baseProfile="tiny" height="128" version="1.2" viewBox="0,0,128,128" width="128" xmlns="http://www.w3.org/2000/svg" xmlns:ev="http://www.w3.org/2001/xml-events" xmlns:xlink="http://www.w3.org/1999/xlink"><defs /><polyline fill="none" points="35.1458,17.3559 21.261,22.5627 13.4508,27.3356 8.678,39.0508 9.5458,56.4068 24.7322,74.1966 36.8814,80.7051 49.8983,82.8746 65.9525,82.8746 75.0644,80.2712 108.4746,59.878 117.5864,48.1627 119.322,32.5424 119.322,28.6373 110.6441,17.7898 97.6271,12.5831 66.8203,8.678 39.0508,8.678 31.2407,10.4136 26.4678,13.0169 34.7119,21.6949 40.7864,32.1085 45.1254,42.522 45.9932,48.5966 45.5593,54.2373 35.1458,68.5559" stroke="#00007f" stroke-width="2" /><polyline fill="none" points="94.1559,17.3559 87.6475,16.922 75.4983,22.5627 68.9898,27.3356 62.0475,38.6169 60.3119,45.1254 61.1797,68.5559 66.8203,69.8576 73.3288,69.8576" stroke="#7cff79" stroke-width="2" /><polyline fill="none" points="113.6814,81.5729 113.6814,81.5729" stroke="#7f0000" stroke-width="2" /></svg>