<?xml version="1.0" encoding="utf-8" ?>
<svg baseProfile="tiny" height="128" version="1.2" viewBox="0,0,128,128" width="128" xmlns="http://www.w3.org/2000/svg" xmlns:ev="http://www.w3.org/2001/xml-events" xmlns:xlink="http://www.w3.org/1999/xlink"><defs /><polyline fill="none" points="78.3673,9.5782 66.1769,9.5782 48.7619,15.2381 35.7007,23.9456 21.7687,37.0068 13.932,48.7619 9.1429,63.5646 8.7075,71.4014 10.8844,75.7551 16.1088,78.8027 36.5714,83.1565 66.6122,84.898 92.2993,80.1088 114.5034,67.9184 119.2925,60.0816 119.2925,51.3741 115.8095,39.619 110.1497,26.5578 102.7483,17.415 94.9116,11.3197 84.0272,8.7075 76.1905,9.1429" stroke="#00007f" stroke-width="2" /><polyline fill="none" points="60.9524,19.5918 56.5986,20.898 44.4082,30.9116 37.8776,37.8776 30.9116,49.6327 28.7347,57.4694 29.6054,64.0 35.7007,80.5442" stroke="#00d4ff" stroke-width="2" /><polyline fill="none" points="57.034,23.9456 76.6259,11.7551" stroke="#ffe500" stroke-width="2" /><polyline fill="none" points="114.068,21.7687 86.6395,45.2789 77.0612,54.8571 67.0476,68.7891 60.517,82.2857 60.0816,90.5578 66.1769,95.7823 69.6599,94.4762" stroke="#7f0000" stroke-width="2" /></svg>