<?xml version="1.0" encoding="utf-8" ?>
<svg baseProfile="tiny" height="128" version="1.2" viewBox="0,0,128,128" width="128" xmlns="http://www.w3.org/2000/svg" xmlns:ev="http://www.w3.org/2001/xml-events" xmlns:xlink="http://www.w3.org/1999/xlink"><defs /><polyline fill="none" points="35.1458,16.922 43.3898,12.1492 55.9729,12.1492 66.3864,15.6203 79.4034,25.6 87.2136,39.0508 89.3831,49.8983 89.8169,72.0271 87.6475,77.6678 82.0068,86.3458 72.8949,95.8915 53.8034,104.1356 39.4847,108.0407 24.2983,108.0407 17.3559,105.8712 12.1492,100.2305 9.9797,95.0237 8.678,80.7051 8.678,40.7864 11.7153,35.1458 22.5627,28.6373 37.3153,13.0169" stroke="#00007f" stroke-width="2" /><polyline fill="none" points="69.8576,8.678 71.5932,26.4678 72.0271,88.9492" stroke="#004cff" stroke-width="2" /><polyline fill="none" points="56.8407,13.0169 55.539,71.5932 49.8983,108.0407" stroke="#29ffcd" stroke-width="2" /><polyline fill="none" points="38.1831,15.6203 39.0508,84.6102 38.1831,96.7593 34.278,111.078" stroke="#cdff29" stroke-width="2" /><polyline fill="none" points="29.0712,18.2237 29.0712,31.6746 20.3932,75.9322 17.7898,119.322" stroke="#ff6700" stroke-width="2" /><polyline fill="none" points="14.7525,32.1085 13.4508,36.8814 13.0169,102.4" stroke="#7f0000" stroke-width="2" /></svg>