<?xml version="1.0" encoding="utf-8" ?>
<svg baseProfile="tiny" height="128" version="1.2" viewBox="0,0,128,128" width="128" xmlns="http://www.w3.org/2000/svg" xmlns:ev="http://www.w3.org/2001/xml-events" xmlns:xlink="http://www.w3.org/1999/xlink"><defs /><polyline fill="none" points="85.0441,19.0915 74.6305,10.8475 60.7458,8.678 42.0881,9.5458 24.2983,17.3559 17.7898,23.4305 10.4136,36.4475 9.1119,80.2712 22.9966,105.4373 32.1085,114.9831 57.7085,114.9831 85.0441,111.5119 101.0983,98.4949 110.2102,84.1763 114.9831,70.7254 114.9831,58.1424 106.739,44.2576 89.3831,29.5051 75.9322,14.7525" stroke="#00007f" stroke-width="2" /><polyline fill="none" points="8.678,42.0881 30.8068,49.8983 49.4644,49.4644 87.2136,39.0508 90.2508,37.3153 90.2508,33.4102" stroke="#0010ff" stroke-width="2" /><polyline fill="none" points="10.4136,75.0644 39.9186,81.139 74.6305,82.4407 116.2847,75.0644 119.322,73.3288 118.0203,68.5559" stroke="#00a4ff" stroke-width="2" /><polyline fill="none" points="22.9966,72.8949 22.1288,83.3085" stroke="#3fffb7" stroke-width="2" /><polyline fill="none" points="49.8983,75.0644 55.1051,85.9119" stroke="#b7ff3f" stroke-width="2" /><polyline fill="none" points="89.3831,74.6305 90.2508,77.6678 93.2881,80.7051" stroke="#ffb900" stroke-width="2" /><polyline fill="none" points="83.3085,22.1288 80.2712,22.5627 73.3288,28.2034 66.3864,37.3153 60.7458,47.7288 57.7085,59.0102 57.7085,75.0644 76.3661,100.2305 82.8746,101.9661 97.6271,110.6441" stroke="#ff3000" stroke-width="2" /><polyline fill="none" points="17.7898,24.2983 41.2203,45.1254 44.2576,51.2 46.4271,61.6136 46.4271,74.6305 44.2576,83.3085 32.1085,105.4373 29.5051,108.4746 26.4678,106.739" stroke="#7f0000" stroke-width="2" /></svg>