<?xml version="1.0" encoding="utf-8" ?>
<svg baseProfile="tiny" height="128" version="1.2" viewBox="0,0,128,128" width="128" xmlns="http://www.w3.org/2000/svg" xmlns:ev="http://www.w3.org/2001/xml-events" xmlns:xlink="http://www.w3.org/1999/xlink"><defs /><polyline fill="none" points="52.5017,12.5831 43.8237,12.5831 36.0136,18.2237 24.2983,30.8068 14.3186,44.6915 9.1119,58.1424 8.678,72.0271 9.9797,81.139 13.4508,88.0814 25.6,98.9288 42.0881,104.5695 67.6881,105.8712 86.7797,99.7966 102.8339,92.4203 112.8136,84.1763 118.0203,70.2915 117.5864,51.6339 114.1153,42.522 104.1356,30.3729 93.722,23.8644 61.6136,8.678" stroke="#00007f" stroke-width="2" /><polyline fill="none" points="10.4136,69.8576 19.5254,70.2915 23.8644,67.2542 24.7322,61.1797 28.2034,55.1051 37.7492,47.2949 44.2576,38.6169 50.3322,25.6 51.6339,12.1492 53.3695,8.678" stroke="#7cff79" stroke-width="2" /><polyline fill="none" points="96.3254,29.939 95.4576,45.9932 97.1932,68.122 99.7966,77.6678 101.0983,81.5729 105.0034,84.6102 108.4746,85.478 119.322,84.1763" stroke="#7f0000" stroke-width="2" /></svg>