<?xml version="1.0" encoding="utf-8" ?>
<svg baseProfile="tiny" height="128" version="1.2" viewBox="0,0,128,128" width="128" xmlns="http://www.w3.org/2000/svg" xmlns:ev="http://www.w3.org/2001/xml-events" xmlns:xlink="http://www.w3.org/1999/xlink"><defs /><polyline fill="none" points="50.5034,18.7211 38.3129,23.9456 26.5578,33.0884 20.4626,38.7483 14.8027,47.4558 11.3197,56.1633 9.1429,65.7415 8.7075,84.0272 16.1088,97.0884 22.6395,101.4422 30.9116,104.4898 49.6327,104.4898 75.7551,100.1361 91.4286,95.3469 99.2653,90.5578 106.2313,84.4626 110.1497,78.3673 116.2449,67.0476 119.2925,53.9864 118.8571,35.7007 113.6327,26.5578 99.2653,15.2381 74.0136,9.1429 61.3878,8.7075 51.3741,10.8844" stroke="#00007f" stroke-width="2" /><polyline fill="none" points="41.3605,20.898 49.1973,39.1837 55.2925,59.6463 56.5986,72.2721 56.5986,85.3333 54.8571,90.5578 51.3741,96.2177 43.9728,102.7483" stroke="#004cff" stroke-width="2" /><polyline fill="none" points="86.6395,96.2177 83.5918,91.8639 82.7211,84.4626 83.1565,61.8231 88.8163,46.585 94.0408,37.8776 109.7143,20.4626" stroke="#29ffcd" stroke-width="2" /><polyline fill="none" points="33.9592,49.6327 38.3129,45.2789 57.9048,35.7007" stroke="#cdff29" stroke-width="2" /><polyline fill="none" points="37.0068,66.1769 50.068,62.6939 68.7891,51.3741" stroke="#ff6700" stroke-width="2" /><polyline fill="none" points="41.3605,82.7211 46.585,84.898" stroke="#7f0000" stroke-width="2" /></svg>