<?xml version="1.0" encoding="utf-8" ?>
<svg baseProfile="tiny" height="128" version="1.2" viewBox="0,0,128,128" width="128" xmlns="http://www.w3.org/2000/svg" xmlns:ev="http://www.w3.org/2001/xml-events" xmlns:xlink="http://www.w3.org/1999/xlink"><defs /><polyline fill="none" points="45.5593,18.2237 24.2983,32.9763 17.7898,39.4847 12.1492,48.1627 10.4136,51.6339 8.678,63.7831 14.7525,79.4034 22.5627,94.1559 34.7119,109.3424 42.9559,114.9831 54.6712,118.8881 62.0475,119.322 89.8169,115.8508 94.5898,111.9458 104.1356,93.722 108.9085,65.9525 107.1729,55.1051 89.8169,25.6 83.7424,19.0915 67.2542,8.678 58.5763,10.4136 54.6712,15.1864" stroke="#00007f" stroke-width="2" /><polyline fill="none" points="85.0441,29.0712 79.4034,42.0881" stroke="#0028ff" stroke-width="2" /><polyline fill="none" points="77.6678,48.5966 78.1017,54.6712 76.8,59.0102" stroke="#00d4ff" stroke-width="2" /><polyline fill="none" points="79.4034,79.8373 82.0068,82.8746 85.0441,91.5525" stroke="#7cff79" stroke-width="2" /><polyline fill="none" points="91.1186,99.3627 91.1186,99.3627" stroke="#ffe500" stroke-width="2" /><polyline fill="none" points="28.2034,42.0881 37.3153,48.5966 42.522,60.7458 45.1254,82.8746 42.9559,110.6441" stroke="#ff4600" stroke-width="2" /><polyline fill="none" points="82.8746,28.6373 75.9322,46.861 75.9322,57.7085 82.4407,79.8373 84.1763,82.8746 88.0814,84.1763" stroke="#7f0000" stroke-width="2" /></svg>