<?xml version="1.0" encoding="utf-8" ?>
<svg baseProfile="tiny" height="128" version="1.2" viewBox="0,0,128,128" width="128" xmlns="http://www.w3.org/2000/svg" xmlns:ev="http://www.w3.org/2001/xml-events" xmlns:xlink="http://www.w3.org/1999/xlink"><defs /><polyline fill="none" points="40.3525,11.7153 26.4678,28.6373 15.1864,47.7288 10.4136,59.0102 8.678,71.1593 9.9797,79.8373 16.0542,90.6847 33.8441,106.739 45.1254,109.3424 57.2746,109.3424 93.2881,101.0983 97.1932,98.061 111.5119,79.8373 118.0203,67.6881 119.322,58.1424 115.8508,39.0508 109.7763,27.7695 101.5322,16.922 92.4203,11.2814 82.8746,8.678 59.878,9.9797 48.5966,14.3186 42.522,22.1288 45.5593,29.939" stroke="#00007f" stroke-width="2" /><polyline fill="none" points="32.9763,27.3356 47.7288,41.6542 50.7661,46.4271 52.9356,55.539 51.2,65.9525 42.522,84.1763 35.1458,106.3051" stroke="#7cff79" stroke-width="2" /><polyline fill="none" points="101.9661,17.3559 93.722,29.939 83.7424,54.6712" stroke="#7f0000" stroke-width="2" /></svg>