<?xml version="1.0" encoding="utf-8" ?>
<svg baseProfile="tiny" height="128" version="1.2" viewBox="0,0,128,128" width="128" xmlns="http://www.w3.org/2000/svg" xmlns:ev="http://www.w3.org/2001/xml-events" xmlns:xlink="http://www.w3.org/1999/xlink"><defs /><polyline fill="none" points="60.517,8.7075 35.2653,11.7551 26.5578,15.2381 19.5918,20.4626 10.8844,34.8299 9.1429,48.3265 8.7075,64.0 9.1429,71.4014 13.4966,87.9456 17.415,95.7823 28.7347,108.8435 42.6667,117.1156 52.6803,119.2925 63.1293,119.2925 82.2857,112.7619 98.8299,97.9592 104.4898,88.381 107.5374,78.3673 107.9728,57.4694 105.7959,43.102 94.9116,28.2993 83.1565,19.5918 68.7891,12.1905 55.7279,9.1429" stroke="#00007f" stroke-width="2" /><polyline fill="none" points="74.449,18.2857 78.8027,30.4762 82.7211,35.7007" stroke="#0028ff" stroke-width="2" /><polyline fill="none" points="88.8163,47.8912 95.3469,57.9048" stroke="#00d4ff" stroke-width="2" /><polyline fill="none" points="98.8299,68.7891 100.5714,71.4014 111.0204,79.2381" stroke="#7cff79" stroke-width="2" /><polyline fill="none" points="37.4422,20.898 36.1361,34.3946" stroke="#ffe500" stroke-width="2" /><polyline fill="none" points="35.2653,51.8095 26.5578,71.8367" stroke="#ff4600" stroke-width="2" /><polyline fill="none" points="27.4286,86.6395 20.0272,97.5238" stroke="#7f0000" stroke-width="2" /></svg>