<?xml version="1.0" encoding="utf-8" ?>
<svg baseProfile="tiny" height="128" version="1.2" viewBox="0,0,128,128" width="128" xmlns="http://www.w3.org/2000/svg" xmlns:ev="http://www.w3.org/2001/xml-events" xmlns:xlink="http://www.w3.org/1999/xlink"><defs /><polyline fill="none" points="34.278,13.4508 20.8271,13.0169 16.4881,15.1864 9.1119,37.7492 8.678,50.7661 12.1492,65.5186 19.5254,86.7797 27.3356,98.4949 40.7864,108.9085 62.9153,110.6441 73.3288,107.6068 85.9119,101.0983 99.3627,91.9864 108.0407,83.7424 114.9831,72.0271 119.322,46.861 118.4542,39.0508 113.6814,30.8068 108.9085,26.0339 91.1186,14.7525 65.5186,8.678 42.522,8.678 35.1458,11.2814 34.278,13.0169" stroke="#00007f" stroke-width="2" /><polyline fill="none" points="34.278,13.0169 37.3153,33.4102 37.7492,51.6339 41.6542,74.1966 41.2203,91.1186 36.0136,104.5695" stroke="#7f0000" stroke-width="2" /></svg>