<?xml version="1.0" encoding="utf-8" ?>
<svg baseProfile="tiny" height="128" version="1.2" viewBox="0,0,128,128" width="128" xmlns="http://www.w3.org/2000/svg" xmlns:ev="http://www.w3.org/2001/xml-events" xmlns:xlink="http://www.w3.org/1999/xlink"><defs /><polyline fill="none" points="49.0305,19.0915 32.9763,33.8441 26.0339,39.0508 16.4881,49.0305 14.7525,53.8034 21.6949,75.4983 26.9017,79.8373 35.1458,81.139 49.8983,90.2508 64.6508,95.4576 75.9322,96.3254 85.9119,93.2881 106.3051,66.8203 111.9458,36.8814 110.2102,25.6 95.0237,13.4508 82.4407,9.5458 73.3288,8.678 59.0102,11.7153 37.7492,26.0339" stroke="#00007f" stroke-width="2" /><polyline fill="none" points="63.3492,12.5831 68.5559,111.9458" stroke="#0000f1" stroke-width="2" /><polyline fill="none" points="55.1051,20.8271 62.9153,21.261" stroke="#004cff" stroke-width="2" /><polyline fill="none" points="55.9729,42.9559 79.8373,43.8237" stroke="#00b0ff" stroke-width="2" /><polyline fill="none" points="57.7085,71.5932 65.0847,73.3288 75.0644,73.3288" stroke="#29ffcd" stroke-width="2" /><polyline fill="none" points="62.0475,86.3458 85.9119,87.6475" stroke="#7cff79" stroke-width="2" /><polyline fill="none" points="8.678,72.461 77.6678,65.0847 98.4949,64.2169 119.322,65.0847" stroke="#cdff29" stroke-width="2" /><polyline fill="none" points="87.2136,46.4271 88.9492,77.2339" stroke="#ffc400" stroke-width="2" /><polyline fill="none" points="75.9322,67.6881 75.9322,72.8949" stroke="#ff6700" stroke-width="2" /><polyline fill="none" points="42.9559,51.6339 40.3525,67.2542" stroke="#f10700" stroke-width="2" /><polyline fill="none" points="31.6746,55.9729 29.939,78.1017" stroke="#7f0000" stroke-width="2" /></svg>