<?xml version="1.0" encoding="utf-8" ?>
<svg baseProfile="tiny" height="128" version="1.2" viewBox="0,0,128,128" width="128" xmlns="http://www.w3.org/2000/svg" xmlns:ev="http://www.w3.org/2001/xml-events" xmlns:xlink="http://www.w3.org/1999/xlink"><defs /><polyline fill="none" points="98.061,10.8475 110.2102,17.3559 117.5864,29.5051 119.322,37.7492 119.322,48.5966 117.5864,57.7085 112.8136,59.878 109.3424,59.0102 71.1593,42.9559 66.8203,38.6169 64.2169,32.9763 63.3492,25.1661 64.2169,22.9966 69.8576,18.2237 82.8746,13.8847 98.9288,13.0169" stroke="#00007f" stroke-width="2" /><polyline fill="none" points="79.8373,8.678 79.8373,8.678" stroke="#0028ff" stroke-width="2" /><polyline fill="none" points="8.678,19.9593 8.678,19.9593" stroke="#00d4ff" stroke-width="2" /><polyline fill="none" points="72.461,14.3186 77.2339,22.1288 78.9695,27.3356 79.4034,39.9186 69.8576,46.4271" stroke="#7cff79" stroke-width="2" /><polyline fill="none" points="106.3051,16.0542 106.739,28.6373 98.4949,42.9559 98.9288,45.5593 104.1356,49.4644 105.0034,55.539" stroke="#ffe500" stroke-width="2" /><polyline fill="none" points="73.7627,26.0339 78.9695,26.9017" stroke="#ff4600" stroke-width="2" /><polyline fill="none" points="73.3288,32.9763 82.8746,36.0136" stroke="#7f0000" stroke-width="2" /></svg>