<?xml version="1.0" encoding="utf-8" ?>
<svg baseProfile="tiny" height="128" version="1.2" viewBox="0,0,128,128" width="128" xmlns="http://www.w3.org/2000/svg" xmlns:ev="http://www.w3.org/2001/xml-events" xmlns:xlink="http://www.w3.org/1999/xlink"><defs /><polyline fill="none" points="86.7797,20.8271 86.7797,17.3559 77.6678,12.5831 60.3119,8.678 52.9356,8.678 49.0305,9.1119 35.1458,16.0542 21.261,24.7322 15.6203,33.8441 9.1119,54.2373 8.678,88.5153 12.5831,98.061 29.5051,111.078 49.4644,117.5864 60.3119,119.322 88.0814,119.322 95.4576,118.0203 101.9661,113.6814 110.2102,99.7966 111.078,64.2169 105.4373,41.6542 98.4949,29.0712 92.8542,22.5627 85.0441,17.3559" stroke="#00007f" stroke-width="2" /><polyline fill="none" points="23.4305,20.3932 29.0712,29.0712 32.5424,46.861 32.5424,65.0847 25.1661,90.6847 21.261,96.7593 15.6203,102.4" stroke="#7cff79" stroke-width="2" /><polyline fill="none" points="96.7593,26.9017 83.3085,70.2915 82.0068,84.6102 82.4407,97.1932" stroke="#7f0000" stroke-width="2" /></svg>