<?xml version="1.0" encoding="utf-8" ?>
<svg baseProfile="tiny" height="128" version="1.2" viewBox="0,0,128,128" width="128" xmlns="http://www.w3.org/2000/svg" xmlns:ev="http://www.w3.org/2001/xml-events" xmlns:xlink="http://www.w3.org/1999/xlink"><defs /><polyline fill="none" points="50.7661,13.8847 15.6203,35.5797 8.678,51.6339 8.678,63.3492 14.7525,84.1763 23.8644,96.3254 33.8441,102.4 45.5593,107.1729 68.5559,111.5119 89.3831,112.3797 99.7966,109.3424 109.3424,101.5322 112.3797,96.3254 119.322,74.1966 119.322,51.2 110.6441,29.939 89.8169,8.678 74.6305,8.678 63.3492,13.8847 51.6339,15.6203" stroke="#00007f" stroke-width="2" /><polyline fill="none" points="27.7695,32.5424 30.3729,36.4475" stroke="#0000f1" stroke-width="2" /><polyline fill="none" points="33.8441,43.3898 32.5424,43.3898" stroke="#004cff" stroke-width="2" /><polyline fill="none" points="32.5424,49.4644 32.5424,49.4644" stroke="#00b0ff" stroke-width="2" /><polyline fill="none" points="32.5424,50.7661 32.5424,50.3322" stroke="#29ffcd" stroke-width="2" /><polyline fill="none" points="32.5424,50.3322 33.4102,50.3322" stroke="#7cff79" stroke-width="2" /><polyline fill="none" points="27.7695,56.4068 27.7695,58.5763" stroke="#cdff29" stroke-width="2" /><polyline fill="none" points="27.7695,67.2542 26.4678,67.6881" stroke="#ffc400" stroke-width="2" /><polyline fill="none" points="27.7695,87.2136 27.7695,85.478" stroke="#ff6700" stroke-width="2" /><polyline fill="none" points="26.9017,83.3085 26.9017,80.2712" stroke="#f10700" stroke-width="2" /><polyline fill="none" points="97.1932,16.922 93.722,21.6949 83.7424,47.2949 81.5729,55.539 81.5729,69.8576 84.6102,78.5356 92.4203,89.8169 102.8339,100.6644 106.3051,102.4" stroke="#7f0000" stroke-width="2" /></svg>