<?xml version="1.0" encoding="utf-8" ?>
<svg baseProfile="tiny" height="128" version="1.2" viewBox="0,0,128,128" width="128" xmlns="http://www.w3.org/2000/svg" xmlns:ev="http://www.w3.org/2001/xml-events" xmlns:xlink="http://www.w3.org/1999/xlink"><defs /><polyline fill="none" points="38.1831,11.2814 25.1661,18.2237 18.6576,22.9966 16.0542,26.9017 8.678,60.7458 11.7153,82.0068 16.4881,88.0814 25.6,95.4576 33.4102,98.9288 43.3898,101.0983 54.2373,101.9661 64.6508,101.0983 81.139,95.4576 98.4949,86.7797 105.4373,80.2712 117.5864,55.1051 119.322,44.6915 118.4542,41.2203 108.0407,27.7695 91.9864,15.1864 86.7797,12.5831 64.6508,8.678 43.3898,8.678" stroke="#00007f" stroke-width="2" /><polyline fill="none" points="88.0814,18.6576 83.7424,24.2983 78.5356,36.8814 75.4983,48.5966 75.0644,77.6678 79.8373,84.6102 82.0068,91.1186" stroke="#7f0000" stroke-width="2" /></svg>