<?xml version="1.0" encoding="utf-8" ?>
<svg baseProfile="tiny" height="128" version="1.2" viewBox="0,0,128,128" width="128" xmlns="http://www.w3.org/2000/svg" xmlns:ev="http://www.w3.org/2001/xml-events" xmlns:xlink="http://www.w3.org/1999/xlink"><defs /><polyline fill="none" points="77.2339,10.4136 68.122,8.678 51.2,9.9797 37.7492,13.8847 30.3729,18.2237 19.9593,27.7695 13.0169,39.0508 9.5458,48.1627 8.678,64.2169 13.4508,80.2712 20.8271,91.5525 25.6,95.8915 39.9186,101.9661 52.9356,104.1356 65.9525,103.7017 86.7797,98.4949 100.6644,90.6847 111.5119,78.1017 117.5864,65.9525 119.322,55.9729 118.4542,43.3898 113.6814,33.8441 100.2305,21.6949 82.0068,13.0169 78.1017,13.0169" stroke="#00007f" stroke-width="2" /><polyline fill="none" points="32.1085,18.6576 37.3153,32.9763 38.6169,40.7864 39.4847,68.9898 37.7492,80.7051 29.939,95.0237" stroke="#7cff79" stroke-width="2" /><polyline fill="none" points="101.5322,21.6949 95.0237,35.5797 90.2508,61.1797 89.3831,78.1017 94.1559,91.1186" stroke="#7f0000" stroke-width="2" /></svg>