<?xml version="1.0" encoding="utf-8" ?>
<svg baseProfile="tiny" height="128" version="1.2" viewBox="0,0,128,128" width="128" xmlns="http://www.w3.org/2000/svg" xmlns:ev="http://www.w3.org/2001/xml-events" xmlns:xlink="http://www.w3.org/1999/xlink"><defs /><polyline fill="none" points="82.8746,11.7153 65.5186,8.678 55.9729,9.9797 36.0136,21.6949 21.6949,31.6746 14.3186,38.6169 10.4136,45.5593 9.1119,52.0678 8.678,88.0814 11.7153,97.1932 19.5254,107.1729 29.939,113.2475 45.5593,118.8881 53.8034,119.322 74.6305,115.8508 85.478,111.078 93.722,103.2678 98.061,98.061 102.8339,88.5153 106.739,75.0644 107.1729,62.0475 104.5695,53.3695 95.8915,39.4847 90.6847,23.4305 83.3085,16.0542 82.8746,13.4508 80.7051,16.922 74.6305,41.2203 74.1966,62.9153 75.0644,69.8576 87.2136,103.7017" stroke="#00007f" stroke-width="2" /><polyline fill="none" points="39.0508,22.1288 42.522,26.0339 43.3898,29.939 43.8237,49.0305 41.6542,68.5559 36.0136,89.8169 28.2034,102.4" stroke="#7f0000" stroke-width="2" /></svg>