<?xml version="1.0" encoding="utf-8" ?>
<svg baseProfile="tiny" height="128" version="1.2" viewBox="0,0,128,128" width="128" xmlns="http://www.w3.org/2000/svg" xmlns:ev="http://www.w3.org/2001/xml-events" xmlns:xlink="http://www.w3.org/1999/xlink"><defs /><polyline fill="none" points="31.6746,23.4305 24.7322,22.1288 11.2814,49.0305 8.678,62.9153 8.678,80.2712 22.1288,94.5898 30.3729,100.2305 43.8237,107.1729 66.3864,109.7763 92.4203,109.7763 100.2305,107.1729 109.7763,101.9661 115.4169,95.0237 119.322,80.2712 119.322,59.878 118.0203,52.0678 111.078,38.1831 97.6271,27.3356 65.0847,9.9797 38.6169,8.678 32.9763,9.9797" stroke="#00007f" stroke-width="2" /><polyline fill="none" points="38.1831,9.9797 52.0678,31.6746 58.5763,51.6339 61.1797,80.7051 61.1797,93.722 58.5763,97.6271" stroke="#00d4ff" stroke-width="2" /><polyline fill="none" points="85.478,27.7695 86.7797,45.9932 91.1186,55.9729 93.722,70.7254 93.722,91.1186 92.4203,96.3254" stroke="#ffe500" stroke-width="2" /><polyline fill="none" points="8.678,65.5186 96.3254,65.5186" stroke="#7f0000" stroke-width="2" /></svg>