<?xml version="1.0" encoding="utf-8" ?>
<svg baseProfile="tiny" height="128" version="1.2" viewBox="0,0,128,128" width="128" xmlns="http://www.w3.org/2000/svg" xmlns:ev="http://www.w3.org/2001/xml-events" xmlns:xlink="http://www.w3.org/1999/xlink"><defs /><polyline fill="none" points="74.0136,17.415 53.1156,10.0136 46.1497,8.7075 37.8776,9.5782 31.3469,13.4966 23.9456,20.4626 10.449,42.2313 9.1429,46.585 8.7075,53.9864 17.415,68.3537 34.3946,79.2381 44.4082,81.415 57.4694,83.1565 92.7347,82.7211 99.7007,80.9796 111.0204,75.3197 115.8095,70.5306 118.8571,64.4354 119.2925,52.6803 101.0068,35.2653 92.7347,20.4626 85.7687,16.5442 71.4014,12.1905 63.1293,13.0612 60.9524,13.932 62.2585,15.6735" stroke="#00007f" stroke-width="2" /><polyline fill="none" points="83.1565,16.9796 77.0612,28.7347 70.5306,77.4966 67.9184,77.4966" stroke="#0028ff" stroke-width="2" /><polyline fill="none" points="31.3469,13.0612 32.2177,57.4694 30.4762,64.8707 26.9932,70.0952 24.381,71.4014 21.7687,69.2245" stroke="#00d4ff" stroke-width="2" /><polyline fill="none" points="22.6395,26.5578 36.1361,28.2993" stroke="#7cff79" stroke-width="2" /><polyline fill="none" points="20.4626,32.2177 28.7347,36.1361 37.4422,37.4422" stroke="#ffe500" stroke-width="2" /><polyline fill="none" points="22.6395,42.6667 38.7483,48.3265" stroke="#ff4600" stroke-width="2" /><polyline fill="none" points="16.5442,53.1156 26.5578,58.3401 37.0068,61.3878" stroke="#7f0000" stroke-width="2" /></svg>