<?xml version="1.0" encoding="utf-8" ?>
<svg baseProfile="tiny" height="128" version="1.2" viewBox="0,0,128,128" width="128" xmlns="http://www.w3.org/2000/svg" xmlns:ev="http://www.w3.org/2001/xml-events" xmlns:xlink="http://www.w3.org/1999/xlink"><defs /><polyline fill="none" points="69.8576,8.678 60.3119,8.678 51.6339,11.2814 40.7864,17.3559 24.2983,31.2407 19.9593,36.8814 13.0169,50.3322 10.4136,60.7458 8.678,72.461 8.678,101.0983 10.4136,105.4373 14.7525,110.2102 19.0915,113.2475 44.6915,119.322 68.122,118.4542 72.461,115.8508 81.139,106.3051 85.478,97.6271 86.3458,91.9864 87.2136,61.1797 89.8169,42.522 89.8169,16.4881 85.0441,12.1492 68.9898,10.4136" stroke="#00007f" stroke-width="2" /><polyline fill="none" points="42.522,16.4881 42.522,34.7119 38.1831,63.7831 32.1085,76.8 9.5458,101.9661" stroke="#7cff79" stroke-width="2" /><polyline fill="none" points="68.9898,109.7763 68.9898,78.5356 71.5932,37.7492 75.9322,28.6373 89.8169,19.9593" stroke="#7f0000" stroke-width="2" /></svg>