<?xml version="1.0" encoding="utf-8" ?>
<svg baseProfile="tiny" height="128" version="1.2" viewBox="0,0,128,128" width="128" xmlns="http://www.w3.org/2000/svg" xmlns:ev="http://www.w3.org/2001/xml-events" xmlns:xlink="http://www.w3.org/1999/xlink"><defs /><polyline fill="none" points="95.7823,27.4286 94.9116,23.0748 90.9932,17.415 84.4626,11.7551 80.5442,10.449 51.3741,8.7075 41.3605,12.6259 28.7347,20.898 21.7687,27.4286 16.5442,34.8299 9.1429,57.9048 8.7075,67.9184 10.8844,78.8027 17.8503,91.4286 37.0068,109.7143 52.6803,114.9388 66.6122,115.8095 82.7211,119.2925 92.7347,117.9864 100.5714,113.1973 107.5374,104.4898 115.8095,86.2041 119.2925,71.8367 118.8571,60.517 114.9388,51.3741 103.619,34.8299 101.8776,29.1701 94.9116,20.898 89.6871,17.8503" stroke="#00007f" stroke-width="2" /><polyline fill="none" points="88.8163,17.8503 79.6735,12.6259" stroke="#0000f1" stroke-width="2" /><polyline fill="none" points="50.9388,11.7551 54.8571,30.4762 49.6327,46.585 48.3265,61.8231 45.2789,75.3197 41.7959,84.0272 25.6871,101.0068" stroke="#004cff" stroke-width="2" /><polyline fill="none" points="28.7347,88.8163 34.8299,97.9592" stroke="#00b0ff" stroke-width="2" /><polyline fill="none" points="35.7007,77.4966 37.8776,76.1905 43.102,80.1088 47.8912,80.5442" stroke="#29ffcd" stroke-width="2" /><polyline fill="none" points="42.6667,65.3061 52.6803,66.1769" stroke="#7cff79" stroke-width="2" /><polyline fill="none" points="46.585,52.6803 52.2449,50.9388" stroke="#cdff29" stroke-width="2" /><polyline fill="none" points="44.8435,43.102 48.3265,41.3605 55.7279,40.0544" stroke="#ffc400" stroke-width="2" /><polyline fill="none" points="47.8912,32.2177 53.9864,31.7823 59.6463,29.1701" stroke="#ff6700" stroke-width="2" /><polyline fill="none" points="47.8912,26.9932 57.034,21.7687" stroke="#f10700" stroke-width="2" /><polyline fill="none" points="100.1361,34.3946 93.1701,45.2789 86.6395,58.7755 80.5442,73.5782 77.0612,85.7687 77.0612,94.4762 79.2381,100.5714 86.6395,112.7619" stroke="#7f0000" stroke-width="2" /></svg>