<?xml version="1.0" encoding="utf-8" ?>
<svg baseProfile="tiny" height="128" version="1.2" viewBox="0,0,128,128" width="128" xmlns="http://www.w3.org/2000/svg" xmlns:ev="http://www.w3.org/2001/xml-events" xmlns:xlink="http://www.w3.org/1999/xlink"><defs /><polyline fill="none" points="113.6814,14.7525 105.8712,13.8847 54.6712,13.8847 43.8237,18.2237 33.4102,26.4678 25.6,36.8814 13.4508,61.1797 9.1119,74.1966 8.678,91.9864 11.2814,98.9288 13.8847,101.5322 34.278,114.5492 47.7288,119.322 62.9153,119.322 69.8576,118.8881 83.3085,112.8136 88.9492,107.6068 91.9864,101.5322 98.061,85.478 107.6068,46.861 108.9085,38.1831 108.4746,21.6949" stroke="#00007f" stroke-width="2" /><polyline fill="none" points="42.522,16.0542 30.3729,60.3119 27.7695,91.9864 30.3729,103.7017 30.3729,111.5119 31.2407,111.5119" stroke="#7cff79" stroke-width="2" /><polyline fill="none" points="82.4407,8.678 82.4407,27.3356 83.3085,37.7492 85.9119,43.8237 86.7797,64.6508 86.7797,80.2712 81.5729,111.078 82.4407,119.322" stroke="#7f0000" stroke-width="2" /></svg>