<?xml version="1.0" encoding="utf-8" ?>
<svg baseProfile="tiny" height="128" version="1.2" viewBox="0,0,128,128" width="128" xmlns="http://www.w3.org/2000/svg" xmlns:ev="http://www.w3.org/2001/xml-events" xmlns:xlink="http://www.w3.org/1999/xlink"><defs /><polyline fill="none" points="15.1864,26.4678 25.6,17.7898 36.0136,13.8847 49.0305,10.8475 62.4814,9.5458 72.8949,9.5458 77.6678,11.2814 95.8915,22.5627 106.739,33.4102 110.2102,39.4847 114.1153,49.8983 119.322,69.8576 119.322,82.8746 113.2475,93.2881 85.0441,95.0237 63.3492,89.3831 49.0305,83.3085 24.2983,63.7831 13.4508,59.4441 9.1119,50.3322 8.678,40.3525 12.5831,29.5051 19.5254,21.6949" stroke="#00007f" stroke-width="2" /><polyline fill="none" points="37.3153,15.1864 41.6542,23.8644 46.861,45.5593 47.2949,66.3864 45.1254,76.8" stroke="#7cff79" stroke-width="2" /><polyline fill="none" points="71.1593,8.678 79.4034,22.1288 84.1763,33.4102 85.478,53.3695 82.8746,63.7831 82.4407,77.6678 78.5356,87.2136" stroke="#7f0000" stroke-width="2" /></svg>