<?xml version="1.0" encoding="utf-8" ?>
<svg baseProfile="tiny" height="128" version="1.2" viewBox="0,0,128,128" width="128" xmlns="http://www.w3.org/2000/svg" xmlns:ev="http://www.w3.org/2001/xml-events" xmlns:xlink="http://www.w3.org/1999/xlink"><defs /><polyline fill="none" points="75.0644,21.261 69.8576,25.6 68.5559,30.8068 69.8576,32.1085 73.7627,33.8441 81.5729,34.278 93.2881,31.2407 92.4203,26.0339 85.9119,19.0915 77.6678,16.0542 75.0644,20.3932" stroke="#00007f" stroke-width="2" /><polyline fill="none" points="69.8576,30.8068 93.722,51.2 115.4169,65.5186" stroke="#004cff" stroke-width="2" /><polyline fill="none" points="93.722,29.0712 97.6271,36.0136 115.8508,58.1424 116.7186,61.6136 115.4169,65.9525 115.8508,71.5932 117.5864,72.461 119.322,70.7254 119.322,65.0847 116.7186,62.0475" stroke="#29ffcd" stroke-width="2" /><polyline fill="none" points="17.3559,16.0542 11.7153,18.2237 9.1119,24.7322 8.678,36.0136 13.0169,42.522 20.8271,47.2949 29.0712,47.2949 33.4102,40.7864 33.8441,33.4102 29.939,20.3932 24.2983,12.1492 18.6576,8.678 16.0542,8.678" stroke="#cdff29" stroke-width="2" /><polyline fill="none" points="45.5593,37.3153 59.878,34.278 76.8,35.1458" stroke="#ff6700" stroke-width="2" /><polyline fill="none" points="49.4644,24.7322 46.4271,21.6949 69.8576,25.6" stroke="#7f0000" stroke-width="2" /></svg>