<?xml version="1.0" encoding="utf-8" ?>
<svg baseProfile="tiny" height="128" version="1.2" viewBox="0,0,128,128" width="128" xmlns="http://www.w3.org/2000/svg" xmlns:ev="http://www.w3.org/2001/xml-events" xmlns:xlink="http://www.w3.org/1999/xlink"><defs /><polyline fill="none" points="71.5932,8.678 49.4644,14.3186 29.0712,24.7322 15.6203,40.3525 12.5831,46.4271 8.678,59.878 14.3186,82.0068 21.6949,98.4949 25.6,103.7017 34.278,111.5119 40.3525,115.4169 45.9932,118.0203 56.8407,119.322 72.0271,115.8508 85.0441,110.6441 99.3627,101.0983 107.6068,88.5153 112.8136,78.5356 115.4169,66.3864 115.8508,56.8407 113.6814,43.8237 108.9085,30.3729 98.061,18.2237 91.5525,13.4508 78.9695,9.1119 67.6881,8.678 56.4068,10.4136" stroke="#00007f" stroke-width="2" /><polyline fill="none" points="46.861,19.0915 50.7661,40.7864 50.7661,104.1356 48.5966,108.9085 38.1831,116.7186" stroke="#0028ff" stroke-width="2" /><polyline fill="none" points="39.0508,42.0881 63.7831,45.1254" stroke="#00d4ff" stroke-width="2" /><polyline fill="none" points="32.1085,68.5559 53.3695,69.4237" stroke="#7cff79" stroke-width="2" /><polyline fill="none" points="36.8814,75.9322 47.7288,77.2339 59.0102,80.7051" stroke="#ffe500" stroke-width="2" /><polyline fill="none" points="32.1085,93.722 61.1797,94.5898" stroke="#ff4600" stroke-width="2" /><polyline fill="none" points="82.8746,11.7153 92.4203,22.9966 98.9288,40.7864 98.4949,78.5356" stroke="#7f0000" stroke-width="2" /></svg>