<?xml version="1.0" encoding="utf-8" ?>
<svg baseProfile="tiny" height="128" version="1.2" viewBox="0,0,128,128" width="128" xmlns="http://www.w3.org/2000/svg" xmlns:ev="http://www.w3.org/2001/xml-events" xmlns:xlink="http://www.w3.org/1999/xlink"><defs /><polyline fill="none" points="24.5479,20.1644 20.1644,23.2329 15.7808,28.9315 10.9589,39.8904 8.7671,53.4795 8.7671,74.0822 12.7123,85.4795 22.3562,99.9452 32.8767,110.0274 42.9589,113.0959 68.8219,113.5342 78.0274,109.589 96.0,93.3699 104.7671,81.0959 111.3425,61.3699 113.0959,54.3562 113.0959,35.0685 107.8356,28.0548 98.6301,21.0411 75.8356,13.589 49.0959,8.7671 34.1918,8.7671 21.4795,15.7808 20.1644,19.2877 22.3562,27.1781 32.8767,49.0959 46.0274,88.9863 46.0274,110.4658 44.7123,119.2329" stroke="#00007f" stroke-width="2" /><polyline fill="none" points="77.1507,23.2329 74.9589,31.5616 74.9589,55.6712 79.3425,72.7671 86.3562,85.0411 101.6986,99.0685" stroke="#7cff79" stroke-width="2" /><polyline fill="none" points="77.1507,32.4384 77.1507,32.4384" stroke="#7f0000" stroke-width="2" /></svg>