<?xml version="1.0" encoding="utf-8" ?>
<svg baseProfile="tiny" height="128" version="1.2" viewBox="0,0,128,128" width="128" xmlns="http://www.w3.org/2000/svg" xmlns:ev="http://www.w3.org/2001/xml-events" xmlns:xlink="http://www.w3.org/1999/xlink"><defs /><polyline fill="none" points="75.3197,15.6735 55.7279,8.7075 37.4422,8.7075 30.0408,10.449 24.381,18.7211 17.8503,34.3946 10.8844,51.8095 8.7075,63.5646 8.7075,77.4966 10.449,85.3333 17.415,98.8299 23.9456,105.7959 33.5238,111.0204 48.3265,115.8095 56.1633,117.9864 67.9184,119.2925 77.932,118.8571 89.2517,115.3741 104.0544,106.6667 110.1497,99.7007 114.5034,91.8639 118.4218,74.0136 119.2925,34.8299 114.5034,26.1224 105.3605,18.7211 85.3333,10.449 52.6803,10.0136 47.4558,13.4966" stroke="#00007f" stroke-width="2" /><polyline fill="none" points="40.9252,15.6735 40.9252,61.3878 42.2313,67.483 50.068,83.5918 60.9524,96.2177" stroke="#7cff79" stroke-width="2" /><polyline fill="none" points="84.4626,13.4966 84.898,49.6327 90.1224,75.3197 98.3946,93.6054 104.4898,100.5714" stroke="#7f0000" stroke-width="2" /></svg>