<?xml version="1.0" encoding="utf-8" ?>
<svg baseProfile="tiny" height="128" version="1.2" viewBox="0,0,128,128" width="128" xmlns="http://www.w3.org/2000/svg" xmlns:ev="http://www.w3.org/2001/xml-events" xmlns:xlink="http://www.w3.org/1999/xlink"><defs /><polyline fill="none" points="82.2857,37.8776 79.2381,33.0884 62.6939,21.3333 43.9728,16.1088 35.7007,18.7211 25.6871,30.4762 11.7551,53.1156 9.1429,61.3878 8.7075,75.3197 9.5782,80.1088 13.0612,83.5918 22.6395,89.2517 43.102,95.7823 85.3333,102.3129 104.0544,101.8776 110.1497,98.3946 116.6803,88.8163 119.2925,77.0612 118.8571,56.1633 116.6803,44.8435 111.0204,33.9592 99.7007,23.9456 78.8027,13.0612 61.8231,8.7075 48.7619,11.7551" stroke="#00007f" stroke-width="2" /><polyline fill="none" points="47.0204,23.0748 50.068,24.381 52.2449,27.4286 57.4694,38.7483 59.2109,48.7619 62.2585,91.4286" stroke="#7cff79" stroke-width="2" /><polyline fill="none" points="94.0408,14.8027 94.0408,31.7823 96.6531,40.0544 103.1837,60.517 113.6327,77.0612" stroke="#7f0000" stroke-width="2" /></svg>