<?xml version="1.0" encoding="utf-8" ?>
<svg baseProfile="tiny" height="128" version="1.2" viewBox="0,0,128,128" width="128" xmlns="http://www.w3.org/2000/svg" xmlns:ev="http://www.w3.org/2001/xml-events" xmlns:xlink="http://www.w3.org/1999/xlink"><defs /><polyline fill="none" points="108.0407,57.7085 108.4746,52.5017 104.1356,46.861 95.4576,42.9559 89.3831,42.0881 75.0644,43.3898 60.3119,49.8983 54.2373,55.1051 45.5593,68.122 43.8237,75.9322 44.2576,90.2508 52.0678,101.9661 65.0847,110.6441 80.7051,115.4169 95.0237,115.8508 106.3051,109.7763 111.078,104.5695 116.7186,92.8542 117.5864,79.8373 116.2847,72.8949 114.1153,66.3864 107.6068,55.1051 103.2678,50.3322 93.722,45.5593 77.6678,43.3898" stroke="#00007f" stroke-width="2" /><polyline fill="none" points="64.2169,48.1627 69.4237,52.0678 72.0271,58.5763 72.461,66.8203 70.7254,71.5932 66.8203,78.9695 61.1797,85.0441 51.2,93.2881 44.2576,95.4576" stroke="#0080ff" stroke-width="2" /><polyline fill="none" points="104.1356,53.3695 91.1186,73.3288 86.7797,90.2508 87.2136,106.739 94.1559,118.8881" stroke="#7cff79" stroke-width="2" /><polyline fill="none" points="44.2576,68.122 119.322,89.3831" stroke="#ff9400" stroke-width="2" /><polyline fill="none" points="51.2,27.7695 52.0678,26.4678 52.0678,18.2237 49.0305,13.0169 41.6542,9.1119 37.3153,8.678 36.0136,9.9797 30.3729,17.3559 19.9593,36.8814 13.0169,54.2373 8.678,70.2915" stroke="#7f0000" stroke-width="2" /></svg>