<?xml version="1.0" encoding="utf-8" ?>
<svg baseProfile="tiny" height="128" version="1.2" viewBox="0,0,128,128" width="128" xmlns="http://www.w3.org/2000/svg" xmlns:ev="http://www.w3.org/2001/xml-events" xmlns:xlink="http://www.w3.org/1999/xlink"><defs /><polyline fill="none" points="97.5238,18.7211 83.1565,11.7551 73.5782,9.5782 59.6463,8.7075 49.1973,10.449 43.9728,11.3197 30.4762,18.2857 22.6395,24.381 15.2381,33.9592 8.7075,50.068 18.2857,90.5578 29.1701,102.3129 43.102,111.8912 62.2585,119.2925 74.8844,118.4218 84.4626,114.9388 98.3946,107.5374 104.9252,101.0068 111.8912,92.7347 116.6803,81.415 118.4218,68.3537 117.9864,60.517 114.9388,47.4558 109.2789,34.8299 102.7483,23.9456 94.4762,14.8027 85.3333,9.1429 77.4966,8.7075" stroke="#00007f" stroke-width="2" /><polyline fill="none" points="30.0408,25.6871 35.2653,29.6054 39.619,35.7007 45.7143,49.6327 48.3265,62.2585 48.3265,76.6259 47.4558,83.1565 40.0544,103.619" stroke="#7cff79" stroke-width="2" /><polyline fill="none" points="89.6871,20.898 82.7211,33.0884 77.932,58.3401 79.6735,87.9456 87.0748,101.8776 92.7347,109.2789" stroke="#7f0000" stroke-width="2" /></svg>