<?xml version="1.0" encoding="utf-8" ?>
<svg baseProfile="tiny" height="128" version="1.2" viewBox="0,0,128,128" width="128" xmlns="http://www.w3.org/2000/svg" xmlns:ev="http://www.w3.org/2001/xml-events" xmlns:xlink="http://www.w3.org/1999/xlink"><defs /><polyline fill="none" points="44.6915,19.0915 35.1458,20.3932 27.7695,27.3356 17.3559,40.7864 13.4508,50.7661 9.9797,66.3864 8.678,91.9864 9.9797,100.2305 15.6203,111.078 21.261,115.4169 33.4102,119.322 52.9356,119.322 62.4814,114.5492 68.9898,107.6068 76.3661,91.5525 79.8373,73.7627 79.8373,54.6712 78.5356,49.8983 76.3661,42.522 67.6881,28.2034 58.1424,18.6576 50.3322,13.8847 38.1831,8.678 32.5424,8.678 29.939,10.4136" stroke="#00007f" stroke-width="2" /><polyline fill="none" points="35.1458,19.5254 35.1458,29.939 39.4847,51.2 40.3525,60.3119 45.1254,76.3661 49.0305,75.0644 57.2746,61.6136 62.4814,39.9186 70.7254,24.7322 71.5932,21.6949 70.7254,22.5627" stroke="#7cff79" stroke-width="2" /><polyline fill="none" points="27.7695,111.9458 41.6542,93.722 49.8983,79.8373 54.6712,65.5186 56.8407,108.9085 60.7458,119.322" stroke="#7f0000" stroke-width="2" /></svg>