<?xml version="1.0" encoding="utf-8" ?>
<svg baseProfile="tiny" height="128" version="1.2" viewBox="0,0,128,128" width="128" xmlns="http://www.w3.org/2000/svg" xmlns:ev="http://www.w3.org/2001/xml-events" xmlns:xlink="http://www.w3.org/1999/xlink"><defs /><polyline fill="none" points="64.6508,15.1864 49.8983,14.3186 41.2203,16.922 32.1085,23.4305 23.4305,32.1085 16.0542,42.522 10.8475,55.539 8.678,68.5559 8.678,79.8373 12.1492,89.8169 17.3559,98.4949 24.7322,104.5695 33.4102,109.7763 53.3695,114.5492 74.1966,114.9831 84.6102,111.9458 102.4,101.9661 110.2102,94.5898 115.8508,86.7797 119.322,70.7254 118.0203,53.3695 109.7763,36.4475 103.7017,28.6373 88.9492,16.922 73.3288,10.4136 59.878,8.678 44.2576,9.1119 39.4847,11.2814 37.3153,14.7525 47.7288,25.6 52.9356,34.278 55.9729,46.4271 56.4068,65.9525 50.3322,87.6475 43.3898,101.5322 36.0136,109.3424 29.5051,112.8136" stroke="#00007f" stroke-width="2" /><polyline fill="none" points="84.1763,12.5831 81.5729,13.8847 76.3661,22.9966 66.8203,46.861 63.7831,64.6508 63.3492,82.0068 64.6508,88.9492 68.5559,96.3254 78.5356,107.6068 90.2508,113.2475 103.2678,112.8136" stroke="#0000b6" stroke-width="2" /><polyline fill="none" points="87.6475,20.3932 84.1763,22.1288 78.5356,28.2034 73.7627,40.3525 70.7254,55.1051 70.2915,76.3661 73.3288,89.3831 81.5729,102.4 94.1559,108.0407" stroke="#0000f1" stroke-width="2" /><polyline fill="none" points="26.4678,24.7322 32.9763,33.4102 40.3525,49.8983 42.9559,59.4441 43.8237,73.3288 42.0881,85.0441 37.7492,97.6271 32.5424,105.8712 27.3356,109.7763 24.7322,110.2102" stroke="#0018ff" stroke-width="2" /><polyline fill="none" points="31.6746,28.2034 43.8237,38.6169" stroke="#004cff" stroke-width="2" /><polyline fill="none" points="47.7288,28.2034 41.2203,42.0881 38.1831,58.1424" stroke="#0080ff" stroke-width="2" /><polyline fill="none" points="43.8237,61.6136 52.5017,65.5186" stroke="#00b0ff" stroke-width="2" /><polyline fill="none" points="52.5017,53.3695 48.1627,55.9729 40.3525,78.5356" stroke="#00e4f7" stroke-width="2" /><polyline fill="none" points="40.3525,79.8373 51.2,84.1763" stroke="#29ffcd" stroke-width="2" /><polyline fill="none" points="46.4271,85.9119 43.8237,87.6475 38.1831,99.7966 35.1458,102.8339" stroke="#53ffa3" stroke-width="2" /><polyline fill="none" points="38.1831,91.9864 36.4475,94.5898 40.3525,104.5695" stroke="#7cff79" stroke-width="2" /><polyline fill="none" points="35.1458,108.0407 32.5424,114.1153" stroke="#a3ff53" stroke-width="2" /><polyline fill="none" points="80.7051,18.6576 85.478,24.2983" stroke="#cdff29" stroke-width="2" /><polyline fill="none" points="83.3085,19.0915 79.4034,22.5627 71.5932,34.278" stroke="#f7f400" stroke-width="2" /><polyline fill="none" points="69.4237,34.7119 80.2712,37.7492" stroke="#ffc400" stroke-width="2" /><polyline fill="none" points="70.2915,42.0881 67.2542,46.4271 65.5186,55.539" stroke="#ff9400" stroke-width="2" /><polyline fill="none" points="64.6508,61.6136 64.2169,67.2542 67.6881,73.7627" stroke="#ff6700" stroke-width="2" /><polyline fill="none" points="69.8576,78.5356 70.7254,87.6475" stroke="#ff3700" stroke-width="2" /><polyline fill="none" points="62.0475,82.4407 69.8576,89.3831 73.7627,90.6847" stroke="#f10700" stroke-width="2" /><polyline fill="none" points="72.8949,84.6102 77.2339,99.7966 74.6305,106.3051" stroke="#b60000" stroke-width="2" /><polyline fill="none" points="81.139,105.8712 82.4407,108.9085" stroke="#7f0000" stroke-width="2" /></svg>