<?xml version="1.0" encoding="utf-8" ?>
<svg baseProfile="tiny" height="128" version="1.2" viewBox="0,0,128,128" width="128" xmlns="http://www.w3.org/2000/svg" xmlns:ev="http://www.w3.org/2001/xml-events" xmlns:xlink="http://www.w3.org/1999/xlink"><defs /><polyline fill="none" points="39.4847,8.678 29.5051,9.5458 20.8271,13.4508 13.0169,25.6 10.8475,32.9763 8.678,48.1627 8.678,72.8949 10.8475,84.1763 14.7525,95.4576 20.3932,103.7017 26.4678,110.2102 48.1627,116.7186 66.8203,119.322 80.2712,118.8881 99.3627,105.4373 99.3627,76.3661 96.3254,56.8407 91.5525,42.0881 78.9695,22.1288 72.8949,15.6203 62.4814,11.2814 42.522,8.678" stroke="#00007f" stroke-width="2" /><polyline fill="none" points="37.7492,8.678 45.1254,44.2576 45.1254,96.7593 39.9186,111.078" stroke="#0080ff" stroke-width="2" /><polyline fill="none" points="77.6678,22.9966 75.0644,27.7695 72.0271,40.3525 70.7254,52.5017 70.7254,85.478 73.3288,101.9661 75.9322,111.9458 78.9695,115.4169" stroke="#7cff79" stroke-width="2" /><polyline fill="none" points="65.9525,101.0983 82.0068,99.7966 85.9119,97.1932" stroke="#ff9400" stroke-width="2" /><polyline fill="none" points="53.8034,65.9525 57.7085,65.9525" stroke="#7f0000" stroke-width="2" /></svg>