<?xml version="1.0" encoding="utf-8" ?>
<svg baseProfile="tiny" height="128" version="1.2" viewBox="0,0,128,128" width="128" xmlns="http://www.w3.org/2000/svg" xmlns:ev="http://www.w3.org/2001/xml-events" xmlns:xlink="http://www.w3.org/1999/xlink"><defs /><polyline fill="none" points="82.4407,13.8847 72.461,12.5831 62.0475,14.7525 47.2949,19.9593 36.8814,26.0339 17.7898,41.2203 9.5458,59.0102 8.678,78.1017 10.8475,82.0068 16.922,88.0814 27.7695,94.1559 34.7119,96.3254 56.8407,97.1932 64.2169,96.3254 80.7051,87.6475 91.5525,79.8373 112.8136,57.2746 116.2847,51.6339 119.322,41.6542 118.8881,35.1458 116.7186,32.1085 108.9085,23.8644 102.8339,20.8271 93.722,17.3559 86.3458,16.4881 69.8576,16.4881 69.4237,17.3559" stroke="#00007f" stroke-width="2" /><polyline fill="none" points="36.8814,21.261 47.2949,30.3729 51.2,40.3525 52.9356,48.5966" stroke="#0080ff" stroke-width="2" /><polyline fill="none" points="49.4644,39.4847 49.4644,39.4847" stroke="#7cff79" stroke-width="2" /><polyline fill="none" points="51.6339,36.0136 55.1051,52.0678 55.1051,74.6305 51.6339,93.722 39.9186,111.078" stroke="#ff9400" stroke-width="2" /><polyline fill="none" points="87.2136,8.678 75.0644,22.1288 72.0271,28.2034 71.1593,32.1085 71.5932,51.6339 75.9322,62.0475 85.0441,73.3288 91.1186,77.6678 99.3627,79.8373" stroke="#7f0000" stroke-width="2" /></svg>