<?xml version="1.0" encoding="utf-8" ?>
<svg baseProfile="tiny" height="128" version="1.2" viewBox="0,0,128,128" width="128" xmlns="http://www.w3.org/2000/svg" xmlns:ev="http://www.w3.org/2001/xml-events" xmlns:xlink="http://www.w3.org/1999/xlink"><defs /><polyline fill="none" points="50.068,29.1701 44.4082,26.5578 29.1701,25.2517 19.1565,27.8639 13.0612,33.9592 8.7075,46.585 8.7075,64.0 13.932,76.1905 20.898,86.6395 32.6531,94.4762 41.3605,97.9592 54.4218,100.5714 84.4626,101.4422 107.102,96.2177 115.3741,90.5578 118.4218,86.6395 119.2925,67.9184 114.5034,40.0544 109.7143,30.9116 101.0068,23.9456 89.2517,18.7211 73.5782,13.932 60.0816,11.7551 45.7143,11.7551 37.0068,20.0272 22.6395,43.102" stroke="#00007f" stroke-width="2" /><polyline fill="none" points="20.898,28.7347 36.5714,37.4422 41.7959,43.5374 44.8435,49.1973 47.4558,64.8707 47.8912,82.7211 44.8435,91.4286 42.2313,94.9116 41.7959,92.7347" stroke="#00d4ff" stroke-width="2" /><polyline fill="none" points="94.0408,20.0272 86.6395,30.4762 84.0272,41.3605 84.0272,60.0816 87.5102,71.4014 94.4762,89.6871 102.7483,100.5714 115.8095,107.9728 117.1156,107.102 117.9864,97.9592" stroke="#ffe500" stroke-width="2" /><polyline fill="none" points="57.034,8.7075 67.0476,30.9116 70.966,43.5374 71.8367,80.1088 70.0952,86.6395" stroke="#7f0000" stroke-width="2" /></svg>