<?xml version="1.0" encoding="utf-8" ?>
<svg baseProfile="tiny" height="128" version="1.2" viewBox="0,0,128,128" width="128" xmlns="http://www.w3.org/2000/svg" xmlns:ev="http://www.w3.org/2001/xml-events" xmlns:xlink="http://www.w3.org/1999/xlink"><defs /><polyline fill="none" points="35.1458,11.2814 64.2169,15.6203 82.0068,22.1288 94.5898,32.9763 102.8339,47.2949 104.1356,55.1051 104.1356,71.5932 96.3254,87.2136 85.0441,99.7966 78.9695,105.4373 65.5186,112.3797 57.7085,114.1153 42.9559,114.1153 35.5797,111.5119 28.6373,106.3051 15.1864,90.2508 9.1119,76.8 8.678,63.7831 10.4136,56.4068 18.2237,38.1831 30.8068,20.8271 34.278,16.4881 43.8237,9.9797 49.8983,8.678 54.2373,12.1492" stroke="#00007f" stroke-width="2" /><polyline fill="none" points="74.1966,14.7525 67.2542,21.261 61.6136,34.7119 58.1424,52.5017 57.7085,69.4237 64.6508,91.1186 69.8576,98.4949 74.1966,103.2678 74.6305,102.4" stroke="#0000ff" stroke-width="2" /><polyline fill="none" points="32.9763,24.2983 45.1254,47.7288 47.7288,60.3119 48.1627,83.3085 43.3898,98.061 35.5797,108.4746 23.4305,119.322" stroke="#0080ff" stroke-width="2" /><polyline fill="none" points="47.2949,37.3153 28.2034,41.6542 26.0339,43.3898 25.1661,45.9932" stroke="#15ffe1" stroke-width="2" /><polyline fill="none" points="56.8407,72.0271 36.0136,75.9322" stroke="#7cff79" stroke-width="2" /><polyline fill="none" points="47.2949,101.0983 37.3153,100.6644 28.2034,96.7593" stroke="#e4ff12" stroke-width="2" /><polyline fill="none" points="84.1763,40.7864 78.5356,36.8814 64.2169,33.4102 56.8407,32.9763" stroke="#ff9400" stroke-width="2" /><polyline fill="none" points="70.7254,63.7831 62.4814,66.3864 55.1051,72.8949" stroke="#ff1d00" stroke-width="2" /><polyline fill="none" points="77.2339,83.7424 65.0847,92.4203 53.3695,98.4949" stroke="#7f0000" stroke-width="2" /></svg>