<?xml version="1.0" encoding="utf-8" ?>
<svg baseProfile="tiny" height="128" version="1.2" viewBox="0,0,128,128" width="128" xmlns="http://www.w3.org/2000/svg" xmlns:ev="http://www.w3.org/2001/xml-events" xmlns:xlink="http://www.w3.org/1999/xlink"><defs /><polyline fill="none" points="89.9932,20.5324 81.256,15.727 68.1502,13.1058 55.0444,14.8532 41.0648,22.2799 26.6485,37.57 14.8532,55.4812 8.7372,72.5188 9.1741,89.5563 15.727,102.6621 20.9693,107.0307 26.6485,111.3993 42.8123,115.7679 69.0239,116.6416 85.1877,113.5836 98.7304,105.7201 104.8464,100.041 116.6416,79.9454 119.2628,65.9659 119.2628,51.9863 113.1468,32.3276 104.4096,19.2218 99.1672,13.9795 88.6826,8.7372" stroke="#00007f" stroke-width="2" /><polyline fill="none" points="91.3038,16.1638 79.0717,38.8805 73.3925,52.4232 71.6451,59.413 70.3345,74.7031 72.0819,82.1297 77.7611,94.3618 86.4983,103.9727 98.2935,110.5256" stroke="#0080ff" stroke-width="2" /><polyline fill="none" points="69.4608,31.8908 86.0614,37.57" stroke="#7cff79" stroke-width="2" /><polyline fill="none" points="67.2765,55.9181 82.1297,59.413" stroke="#ff9400" stroke-width="2" /><polyline fill="none" points="73.3925,101.7884 88.6826,93.0512" stroke="#7f0000" stroke-width="2" /></svg>