<?xml version="1.0" encoding="utf-8" ?>
<svg baseProfile="tiny" height="128" version="1.2" viewBox="0,0,128,128" width="128" xmlns="http://www.w3.org/2000/svg" xmlns:ev="http://www.w3.org/2001/xml-events" xmlns:xlink="http://www.w3.org/1999/xlink"><defs /><polyline fill="none" points="32.5424,20.3932 44.2576,15.6203 85.478,15.6203 94.5898,22.1288 97.6271,26.4678 108.4746,44.6915 111.5119,56.8407 111.5119,84.1763 107.1729,94.1559 92.4203,103.2678 75.0644,106.3051 45.1254,106.3051 38.6169,105.4373 26.4678,100.2305 18.6576,91.5525 10.8475,70.7254 8.678,55.539 8.678,29.5051 16.4881,18.6576 30.3729,8.678" stroke="#00007f" stroke-width="2" /><polyline fill="none" points="31.6746,23.4305 18.6576,40.7864" stroke="#0000d5" stroke-width="2" /><polyline fill="none" points="38.6169,41.6542 32.9763,47.2949 24.7322,50.7661" stroke="#001cff" stroke-width="2" /><polyline fill="none" points="47.7288,48.5966 44.6915,58.5763 33.8441,71.5932" stroke="#006cff" stroke-width="2" /><polyline fill="none" points="51.6339,53.3695 43.3898,69.8576 33.8441,79.4034" stroke="#00b8ff" stroke-width="2" /><polyline fill="none" points="55.539,79.4034 49.8983,90.2508 43.8237,92.4203" stroke="#1cffda" stroke-width="2" /><polyline fill="none" points="87.6475,27.7695 78.5356,28.6373 69.4237,25.6" stroke="#5cff9a" stroke-width="2" /><polyline fill="none" points="84.6102,33.4102 78.5356,36.4475 71.5932,35.5797" stroke="#9aff5c" stroke-width="2" /><polyline fill="none" points="87.2136,48.5966 83.3085,57.7085 78.5356,59.4441 68.122,58.1424 67.2542,53.8034" stroke="#daff1c" stroke-width="2" /><polyline fill="none" points="86.3458,67.2542 79.8373,71.5932 71.5932,72.461" stroke="#ffcb00" stroke-width="2" /><polyline fill="none" points="74.1966,89.3831 74.1966,89.3831" stroke="#ff8500" stroke-width="2" /><polyline fill="none" points="78.5356,88.5153 78.5356,88.5153" stroke="#ff3b00" stroke-width="2" /><polyline fill="none" points="76.3661,21.6949 77.2339,85.478 81.5729,96.3254 88.5153,97.1932" stroke="#d50000" stroke-width="2" /><polyline fill="none" points="11.7153,26.4678 27.7695,40.3525 37.7492,50.7661 44.6915,65.0847 47.7288,79.4034 47.7288,94.5898 45.5593,105.4373 38.6169,114.5492 31.6746,119.322" stroke="#7f0000" stroke-width="2" /></svg>