<?xml version="1.0" encoding="utf-8" ?>
<svg baseProfile="tiny" height="128" version="1.2" viewBox="0,0,128,128" width="128" xmlns="http://www.w3.org/2000/svg" xmlns:ev="http://www.w3.org/2001/xml-events" xmlns:xlink="http://www.w3.org/1999/xlink"><defs /><polyline fill="none" points="82.8746,19.0915 81.5729,15.1864 74.6305,10.8475 68.5559,8.678 59.878,9.1119 33.4102,17.7898 19.9593,25.6 12.5831,32.9763 9.1119,40.3525 8.678,47.7288 10.8475,62.4814 16.4881,67.6881 24.7322,73.3288 40.7864,79.8373 61.1797,85.0441 88.5153,85.478 103.2678,82.4407 111.078,78.5356 117.1525,72.0271 119.322,62.4814 118.0203,52.0678 110.2102,33.8441 105.0034,28.6373 96.3254,23.4305 75.9322,16.4881" stroke="#00007f" stroke-width="2" /><polyline fill="none" points="25.6,23.4305 26.0339,26.4678 32.5424,32.1085 39.4847,34.7119 45.5593,35.5797 52.9356,32.5424 62.0475,32.5424 68.5559,35.5797 77.6678,37.3153 89.3831,42.522 100.6644,44.6915 111.9458,43.8237 104.5695,43.3898" stroke="#0000d5" stroke-width="2" /><polyline fill="none" points="8.678,64.2169 23.8644,62.4814 42.0881,63.3492 62.9153,74.1966 71.5932,75.4983 87.2136,82.4407" stroke="#001cff" stroke-width="2" /><polyline fill="none" points="23.4305,61.6136 24.7322,68.122" stroke="#006cff" stroke-width="2" /><polyline fill="none" points="41.2203,55.9729 41.2203,69.8576" stroke="#00b8ff" stroke-width="2" /><polyline fill="none" points="57.2746,68.122 57.7085,76.3661" stroke="#1cffda" stroke-width="2" /><polyline fill="none" points="67.2542,75.9322 68.122,77.2339" stroke="#5cff9a" stroke-width="2" /><polyline fill="none" points="31.6746,28.2034 30.3729,33.4102" stroke="#9aff5c" stroke-width="2" /><polyline fill="none" points="43.8237,32.1085 44.6915,36.0136" stroke="#daff1c" stroke-width="2" /><polyline fill="none" points="62.4814,31.6746 65.5186,41.6542" stroke="#ffcb00" stroke-width="2" /><polyline fill="none" points="77.2339,41.6542 77.6678,43.3898" stroke="#ff8500" stroke-width="2" /><polyline fill="none" points="95.4576,37.7492 95.8915,45.1254" stroke="#ff3b00" stroke-width="2" /><polyline fill="none" points="105.4373,39.9186 105.4373,45.5593" stroke="#d50000" stroke-width="2" /><polyline fill="none" points="77.6678,32.5424 78.9695,39.9186" stroke="#7f0000" stroke-width="2" /></svg>