<?xml version="1.0" encoding="utf-8" ?>
<svg baseProfile="tiny" height="128" version="1.2" viewBox="0,0,128,128" width="128" xmlns="http://www.w3.org/2000/svg" xmlns:ev="http://www.w3.org/2001/xml-events" xmlns:xlink="http://www.w3.org/1999/xlink"><defs /><polyline fill="none" points="53.3695,8.678 45.5593,8.678 38.1831,10.4136 21.6949,21.261 13.8847,32.5424 10.8475,41.2203 8.678,58.5763 10.8475,70.7254 16.4881,80.2712 31.6746,96.3254 41.6542,103.2678 49.0305,105.8712 68.9898,108.9085 84.6102,103.2678 95.0237,95.4576 105.0034,83.7424 109.7763,72.461 111.078,61.1797 110.6441,52.5017 106.739,40.3525 100.2305,29.0712 91.9864,20.8271 84.6102,16.922 64.6508,11.7153 56.4068,11.7153" stroke="#00007f" stroke-width="2" /><polyline fill="none" points="44.2576,15.1864 39.0508,15.6203 36.8814,33.8441 35.1458,95.4576" stroke="#00d4ff" stroke-width="2" /><polyline fill="none" points="81.5729,26.4678 75.9322,27.3356 75.4983,31.6746 79.4034,82.8746 79.4034,119.322" stroke="#ffe500" stroke-width="2" /><polyline fill="none" points="26.0339,45.5593 29.939,43.8237 47.2949,42.9559" stroke="#7f0000" stroke-width="2" /></svg>