<?xml version="1.0" encoding="utf-8" ?>
<svg baseProfile="tiny" height="128" version="1.2" viewBox="0,0,128,128" width="128" xmlns="http://www.w3.org/2000/svg" xmlns:ev="http://www.w3.org/2001/xml-events" xmlns:xlink="http://www.w3.org/1999/xlink"><defs /><polyline fill="none" points="56.4068,16.922 28.6373,16.922 22.9966,17.7898 16.922,22.9966 9.9797,34.7119 8.678,71.5932 12.5831,85.0441 40.3525,117.1525 45.5593,119.322 51.2,118.4542 59.4441,112.3797 63.3492,107.1729 74.6305,86.7797 78.5356,74.6305 79.8373,41.2203 70.7254,19.9593 62.4814,8.678" stroke="#00007f" stroke-width="2" /><polyline fill="none" points="42.0881,19.9593 39.0508,26.0339 34.278,54.2373 33.8441,61.6136 29.0712,82.4407 20.8271,91.9864" stroke="#7cff79" stroke-width="2" /><polyline fill="none" points="63.3492,22.9966 58.5763,33.8441 58.5763,39.0508 54.2373,50.3322 50.3322,69.4237 49.4644,96.7593 50.3322,101.9661 53.3695,106.3051" stroke="#7f0000" stroke-width="2" /></svg>