<?xml version="1.0" encoding="utf-8" ?>
<svg baseProfile="tiny" height="128" version="1.2" viewBox="0,0,128,128" width="128" xmlns="http://www.w3.org/2000/svg" xmlns:ev="http://www.w3.org/2001/xml-events" xmlns:xlink="http://www.w3.org/1999/xlink"><defs /><polyline fill="none" points="73.3288,14.7525 68.5559,13.0169 53.3695,12.1492 40.7864,12.5831 22.5627,21.6949 18.2237,25.1661 14.7525,30.8068 8.678,56.8407 9.1119,72.8949 13.0169,82.8746 30.3729,97.6271 49.0305,106.739 68.5559,111.078 78.1017,110.6441 102.4,104.1356 111.9458,91.1186 118.0203,76.8 119.322,70.7254 118.8881,52.5017 116.2847,36.0136 118.4542,33.8441 117.1525,29.939 107.1729,17.7898 95.0237,9.1119 63.3492,9.5458 55.539,13.0169" stroke="#00007f" stroke-width="2" /><polyline fill="none" points="47.2949,8.678 62.0475,17.7898 70.2915,28.6373 74.6305,38.6169 75.4983,49.8983 75.9322,70.7254 74.6305,86.7797 70.7254,94.5898 55.9729,104.5695" stroke="#0010ff" stroke-width="2" /><polyline fill="none" points="67.2542,29.5051 66.3864,36.4475" stroke="#00a4ff" stroke-width="2" /><polyline fill="none" points="68.9898,29.0712 73.3288,31.2407 77.6678,35.5797" stroke="#3fffb7" stroke-width="2" /><polyline fill="none" points="76.3661,43.3898 71.1593,52.5017" stroke="#b7ff3f" stroke-width="2" /><polyline fill="none" points="72.0271,49.4644 78.5356,53.3695 82.0068,58.5763" stroke="#ffb900" stroke-width="2" /><polyline fill="none" points="78.5356,70.7254 73.7627,71.5932 60.7458,79.4034" stroke="#ff3000" stroke-width="2" /><polyline fill="none" points="74.1966,72.0271 78.1017,74.1966 83.3085,81.139" stroke="#7f0000" stroke-width="2" /></svg>