<?xml version="1.0" encoding="utf-8" ?>
<svg baseProfile="tiny" height="128" version="1.2" viewBox="0,0,128,128" width="128" xmlns="http://www.w3.org/2000/svg" xmlns:ev="http://www.w3.org/2001/xml-events" xmlns:xlink="http://www.w3.org/1999/xlink"><defs /><polyline fill="none" points="26.0339,105.8712 26.0339,91.9864 29.0712,72.0271 29.5051,60.3119 31.6746,45.5593 35.5797,34.7119 43.8237,20.3932 51.2,15.6203 61.6136,14.7525 63.3492,24.7322 61.1797,23.8644 51.6339,14.7525 46.4271,13.4508 42.9559,16.0542 39.9186,23.8644 49.0305,19.0915 64.2169,19.0915 72.461,22.1288 82.4407,28.2034 92.8542,40.7864 95.8915,50.7661 97.1932,67.2542 97.1932,85.478 94.1559,95.0237 89.3831,103.2678 76.8,113.6814 64.6508,118.0203 48.1627,119.322 39.0508,116.2847 31.2407,111.078 23.4305,101.0983 15.6203,88.0814 8.678,60.7458 8.678,43.8237 13.4508,29.5051 27.3356,12.5831 34.278,8.678 44.2576,9.1119 53.8034,12.5831 59.878,17.3559 63.3492,22.5627" stroke="#00007f" stroke-width="2" /><polyline fill="none" points="30.3729,14.7525 36.0136,24.2983 39.4847,36.4475 41.6542,50.3322 42.0881,70.7254 26.4678,108.4746" stroke="#00d4ff" stroke-width="2" /><polyline fill="none" points="76.8,23.8644 72.461,61.1797 72.0271,94.1559 73.3288,99.7966 78.1017,106.3051 82.4407,109.3424 88.0814,109.7763" stroke="#ffe500" stroke-width="2" /><polyline fill="none" points="39.4847,20.8271 42.9559,30.8068" stroke="#7f0000" stroke-width="2" /></svg>