<?xml version="1.0" encoding="utf-8" ?>
<svg baseProfile="tiny" height="128" version="1.2" viewBox="0,0,128,128" width="128" xmlns="http://www.w3.org/2000/svg" xmlns:ev="http://www.w3.org/2001/xml-events" xmlns:xlink="http://www.w3.org/1999/xlink"><defs /><polyline fill="none" points="57.9048,8.7075 38.7483,8.7075 30.4762,11.3197 23.5102,15.2381 12.6259,30.4762 9.1429,43.5374 8.7075,57.4694 11.7551,72.2721 21.7687,87.9456 38.3129,106.6667 54.8571,118.8571 58.3401,119.2925 86.2041,118.8571 93.6054,116.2449 100.5714,106.6667 102.7483,101.4422 105.3605,93.1701 105.3605,83.1565 100.1361,32.6531 94.4762,19.1565 93.1701,17.415 79.6735,15.2381 66.1769,9.1429 54.8571,8.7075" stroke="#00007f" stroke-width="2" /><polyline fill="none" points="42.2313,13.0612 37.4422,14.3673 33.0884,19.5918 30.4762,28.7347 29.1701,41.3605 29.1701,84.898 32.2177,95.3469 35.2653,100.1361 36.5714,100.1361" stroke="#0080ff" stroke-width="2" /><polyline fill="none" points="84.4626,21.7687 89.6871,30.9116 91.4286,38.7483 90.5578,79.2381 87.5102,105.7959 84.898,112.7619" stroke="#7cff79" stroke-width="2" /><polyline fill="none" points="83.5918,35.2653 96.2177,35.2653" stroke="#ff9400" stroke-width="2" /><polyline fill="none" points="84.898,47.0204 93.6054,47.4558" stroke="#7f0000" stroke-width="2" /></svg>