<?xml version="1.0" encoding="utf-8" ?>
<svg baseProfile="tiny" height="128" version="1.2" viewBox="0,0,128,128" width="128" xmlns="http://www.w3.org/2000/svg" xmlns:ev="http://www.w3.org/2001/xml-events" xmlns:xlink="http://www.w3.org/1999/xlink"><defs /><polyline fill="none" points="84.0272,8.7075 74.8844,9.5782 59.2109,14.8027 43.102,23.5102 25.6871,34.3946 13.4966,45.2789 10.0136,50.068 8.7075,54.4218 8.7075,64.8707 10.0136,67.9184 19.1565,74.449 27.8639,77.4966 40.4898,79.6735 90.5578,80.9796 98.3946,78.8027 104.0544,76.1905 113.6327,67.9184 117.9864,60.0816 119.2925,44.8435 117.551,38.7483 110.1497,30.0408 93.1701,19.1565 82.7211,15.2381 75.3197,14.8027" stroke="#00007f" stroke-width="2" /><polyline fill="none" points="27.8639,33.5238 30.9116,45.2789 30.9116,51.3741 16.5442,73.5782" stroke="#0080ff" stroke-width="2" /><polyline fill="none" points="116.2449,33.9592 106.6667,42.6667 95.3469,59.2109 90.9932,68.3537 89.6871,78.8027 91.8639,83.1565 95.7823,83.1565 97.9592,78.8027" stroke="#7cff79" stroke-width="2" /><polyline fill="none" points="101.4422,65.3061 108.4082,59.2109" stroke="#ff9400" stroke-width="2" /><polyline fill="none" points="112.3265,53.551 112.3265,53.551" stroke="#7f0000" stroke-width="2" /></svg>