<?xml version="1.0" encoding="utf-8" ?>
<svg baseProfile="tiny" height="128" version="1.2" viewBox="0,0,128,128" width="128" xmlns="http://www.w3.org/2000/svg" xmlns:ev="http://www.w3.org/2001/xml-events" xmlns:xlink="http://www.w3.org/1999/xlink"><defs /><polyline fill="none" points="77.6678,9.9797 73.7627,8.678 60.3119,8.678 39.9186,19.0915 30.3729,28.2034 16.4881,47.7288 11.2814,58.5763 9.1119,69.4237 8.678,90.2508 12.1492,100.2305 17.7898,108.4746 25.1661,114.5492 34.278,118.0203 44.6915,119.322 54.6712,118.8881 65.9525,114.5492 75.4983,108.0407 85.478,98.9288 94.1559,89.3831 100.6644,77.2339 103.7017,65.9525 103.7017,42.9559 99.7966,33.4102 93.722,24.2983 85.9119,16.922 77.2339,13.0169 55.1051,13.0169 42.0881,17.7898" stroke="#00007f" stroke-width="2" /><polyline fill="none" points="25.1661,25.6 25.6,27.3356 39.4847,39.0508 45.1254,46.4271 53.3695,64.2169 54.6712,73.7627 53.3695,91.9864 49.4644,102.4 38.6169,118.8881" stroke="#7cff79" stroke-width="2" /><polyline fill="none" points="67.2542,19.9593 67.2542,49.0305 70.2915,61.1797 75.0644,72.461 82.8746,81.5729 92.4203,88.0814 110.2102,93.722" stroke="#7f0000" stroke-width="2" /></svg>