<?xml version="1.0" encoding="utf-8" ?>
<svg baseProfile="tiny" height="128" version="1.2" viewBox="0,0,128,128" width="128" xmlns="http://www.w3.org/2000/svg" xmlns:ev="http://www.w3.org/2001/xml-events" xmlns:xlink="http://www.w3.org/1999/xlink"><defs /><polyline fill="none" points="69.4237,9.5458 35.1458,8.678 26.4678,14.3186 13.0169,29.5051 8.678,44.2576 8.678,66.3864 12.5831,78.5356 19.9593,92.4203 26.4678,100.2305 36.4475,107.1729 51.6339,110.6441 65.0847,112.3797 76.3661,112.3797 89.3831,109.3424 98.4949,103.2678 105.8712,95.8915 117.1525,80.2712 119.322,68.9898 118.4542,48.1627 113.2475,38.6169 93.722,22.5627 65.5186,14.3186 63.3492,11.7153" stroke="#00007f" stroke-width="2" /><polyline fill="none" points="47.7288,10.4136 45.5593,14.3186 46.4271,56.4068 41.6542,61.6136 30.8068,80.7051 27.3356,95.0237 26.9017,101.5322" stroke="#7cff79" stroke-width="2" /><polyline fill="none" points="59.4441,11.7153 60.3119,16.4881 72.461,39.0508 76.3661,52.5017 78.9695,57.7085 95.4576,73.3288" stroke="#7f0000" stroke-width="2" /></svg>