<?xml version="1.0" encoding="utf-8" ?>
<svg baseProfile="tiny" height="128" version="1.2" viewBox="0,0,128,128" width="128" xmlns="http://www.w3.org/2000/svg" xmlns:ev="http://www.w3.org/2001/xml-events" xmlns:xlink="http://www.w3.org/1999/xlink"><defs /><polyline fill="none" points="9.5782,111.8912 12.1905,106.6667 24.8163,97.0884 30.0408,88.381 36.1361,68.3537 43.9728,60.0816 49.1973,57.9048 58.3401,59.2109 61.3878,64.4354 61.8231,79.6735 57.9048,88.381 49.6327,95.7823 37.8776,102.3129 14.8027,108.4082 10.449,112.7619 8.7075,118.8571" stroke="#00007f" stroke-width="2" /><polyline fill="none" points="114.9388,26.9932 115.8095,18.2857 114.068,13.4966 109.7143,11.7551 95.3469,12.6259 85.3333,20.898 77.932,33.9592 75.7551,44.8435 79.2381,53.1156 87.9456,59.2109 97.0884,58.7755 107.5374,52.2449 114.5034,44.4082 116.6803,34.3946 117.551,20.4626 114.5034,13.4966" stroke="#0028ff" stroke-width="2" /><polyline fill="none" points="84.898,21.3333 89.2517,27.8639 92.2993,35.7007 92.7347,47.4558 88.381,60.517 84.0272,64.0" stroke="#00d4ff" stroke-width="2" /><polyline fill="none" points="114.068,8.7075 111.0204,9.5782 102.7483,19.5918 101.0068,22.6395 99.7007,36.1361 100.5714,43.102 103.619,45.7143 110.1497,48.7619" stroke="#7cff79" stroke-width="2" /><polyline fill="none" points="109.2789,9.1429 103.1837,21.3333 102.3129,35.2653 105.3605,41.7959 113.1973,47.4558" stroke="#ffe500" stroke-width="2" /><polyline fill="none" points="90.5578,23.0748 93.6054,31.7823 94.9116,41.3605 92.7347,50.5034 90.9932,51.8095" stroke="#ff4600" stroke-width="2" /><polyline fill="none" points="77.0612,46.1497 96.6531,41.7959 102.7483,38.7483 109.2789,31.7823 118.8571,15.2381 119.2925,11.7551" stroke="#7f0000" stroke-width="2" /></svg>