<?xml version="1.0" encoding="utf-8" ?>
<svg baseProfile="tiny" height="128" version="1.2" viewBox="0,0,128,128" width="128" xmlns="http://www.w3.org/2000/svg" xmlns:ev="http://www.w3.org/2001/xml-events" xmlns:xlink="http://www.w3.org/1999/xlink"><defs /><polyline fill="none" points="16.1088,16.1088 42.2313,16.1088 54.4218,14.8027 73.1429,16.1088 88.8163,27.8639 96.6531,38.7483 101.4422,51.3741 101.4422,67.483 99.2653,81.8503 90.9932,94.9116 81.415,105.7959 70.966,114.068 60.9524,118.8571 39.619,119.2925 27.8639,112.7619 20.4626,104.0544 15.2381,95.3469 12.1905,84.4626 10.449,57.9048 13.4966,41.7959 20.898,23.5102 30.9116,14.8027" stroke="#00007f" stroke-width="2" /><polyline fill="none" points="39.1837,9.5782 41.3605,17.8503 45.2789,47.0204 51.8095,74.449 53.1156,94.9116 51.3741,102.7483 42.2313,110.585 33.0884,115.3741 25.2517,117.551 17.8503,117.551 11.3197,112.7619 8.7075,101.8776" stroke="#0010ff" stroke-width="2" /><polyline fill="none" points="77.932,8.7075 76.6259,20.0272 68.3537,40.9252 64.0,57.4694 63.5646,75.3197 65.7415,83.5918 69.6599,88.8163 78.8027,94.0408 102.7483,94.4762" stroke="#00a4ff" stroke-width="2" /><polyline fill="none" points="73.1429,38.7483 63.1293,41.3605 52.2449,42.2313" stroke="#3fffb7" stroke-width="2" /><polyline fill="none" points="80.9796,63.1293 78.8027,66.6122 65.3061,73.5782 48.3265,76.6259" stroke="#b7ff3f" stroke-width="2" /><polyline fill="none" points="86.2041,77.0612 87.0748,92.2993 85.3333,97.5238 81.8503,101.4422" stroke="#ffb900" stroke-width="2" /><polyline fill="none" points="50.068,15.6735 49.1973,20.0272 40.9252,27.4286 10.449,46.585" stroke="#ff3000" stroke-width="2" /><polyline fill="none" points="63.5646,55.7279 63.5646,55.7279" stroke="#7f0000" stroke-width="2" /></svg>