<?xml version="1.0" encoding="utf-8" ?>
<svg baseProfile="tiny" height="128" version="1.2" viewBox="0,0,128,128" width="128" xmlns="http://www.w3.org/2000/svg" xmlns:ev="http://www.w3.org/2001/xml-events" xmlns:xlink="http://www.w3.org/1999/xlink"><defs /><polyline fill="none" points="65.529,11.7952 42.8123,12.6689 27.5222,15.2901 19.2218,17.9113 14.8532,23.5904 10.4846,35.3857 8.7372,43.2491 8.7372,52.8601 16.6007,71.2082 20.0956,75.5768 24.4642,78.6348 42.3754,82.5666 54.1706,83.0034 64.2184,79.5085 73.3925,74.2662 80.3823,66.8396 86.0614,56.3549 88.2457,45.4334 88.6826,31.4539 86.4983,27.0853 76.0137,20.9693 58.1024,16.6007" stroke="#00007f" stroke-width="2" /><polyline fill="none" points="37.1331,18.3481 36.2594,13.5427 38.0068,12.2321 46.744,9.6109 54.6075,8.7372 80.8191,25.3379 83.8771,37.57 79.9454,42.8123 59.413,57.2287 18.785,74.7031" stroke="#7cff79" stroke-width="2" /><polyline fill="none" points="11.3584,42.3754 24.0273,45.8703 119.2628,48.4915" stroke="#7f0000" stroke-width="2" /></svg>