<?xml version="1.0" encoding="utf-8" ?>
<svg baseProfile="tiny" height="128" version="1.2" viewBox="0,0,128,128" width="128" xmlns="http://www.w3.org/2000/svg" xmlns:ev="http://www.w3.org/2001/xml-events" xmlns:xlink="http://www.w3.org/1999/xlink"><defs /><polyline fill="none" points="119.322,80.7051 119.322,80.7051" stroke="#00007f" stroke-width="2" /><polyline fill="none" points="49.8983,8.678 41.2203,13.4508 29.5051,22.1288 11.7153,44.6915 9.1119,52.5017 8.678,65.9525 17.7898,83.3085 29.939,95.8915 42.9559,100.2305 63.7831,100.2305 75.4983,93.722 99.7966,65.5186 103.2678,53.8034 103.7017,36.0136 103.2678,32.9763 98.4949,27.3356 88.0814,19.0915 75.4983,13.8847 67.6881,12.5831 52.5017,13.4508" stroke="#00d4ff" stroke-width="2" /><polyline fill="none" points="79.8373,15.1864 78.9695,19.5254 59.0102,36.4475 55.539,56.4068 55.539,65.9525 65.5186,78.5356 72.461,85.0441" stroke="#ffe500" stroke-width="2" /><polyline fill="none" points="32.5424,22.1288 38.1831,42.0881 38.6169,65.5186 31.6746,80.7051 22.5627,90.2508" stroke="#7f0000" stroke-width="2" /></svg>