<?xml version="1.0" encoding="utf-8" ?>
<svg baseProfile="tiny" height="128" version="1.2" viewBox="0,0,128,128" width="128" xmlns="http://www.w3.org/2000/svg" xmlns:ev="http://www.w3.org/2001/xml-events" xmlns:xlink="http://www.w3.org/1999/xlink"><defs /><polyline fill="none" points="42.0881,26.0339 21.6949,35.5797 16.0542,40.7864 11.7153,48.1627 9.1119,61.1797 8.678,77.2339 11.7153,87.6475 17.3559,97.1932 28.6373,105.4373 38.6169,111.078 55.1051,117.5864 63.3492,119.322 76.3661,119.322 81.139,118.0203 92.8542,111.5119 102.4,103.7017 107.6068,92.8542 109.7763,85.478 110.2102,63.7831 107.6068,52.5017 100.2305,39.0508 82.8746,18.2237 74.1966,12.1492 68.9898,12.5831 51.2,19.0915 42.9559,25.1661" stroke="#00007f" stroke-width="2" /><polyline fill="none" points="37.3153,24.7322 42.0881,27.3356 44.6915,30.3729 54.6712,55.539 60.3119,86.3458 60.7458,110.6441" stroke="#7cff79" stroke-width="2" /><polyline fill="none" points="70.7254,8.678 70.2915,22.1288 72.0271,32.5424 81.5729,62.4814 88.9492,66.8203 99.3627,65.5186 109.3424,68.9898" stroke="#7f0000" stroke-width="2" /></svg>