<?xml version="1.0" encoding="utf-8" ?>
<svg baseProfile="tiny" height="128" version="1.2" viewBox="0,0,128,128" width="128" xmlns="http://www.w3.org/2000/svg" xmlns:ev="http://www.w3.org/2001/xml-events" xmlns:xlink="http://www.w3.org/1999/xlink"><defs /><polyline fill="none" points="71.1593,8.678 51.2,12.1492 36.4475,17.7898 28.6373,22.5627 18.6576,33.4102 11.7153,46.861 9.5458,53.3695 8.678,63.7831 12.1492,75.0644 24.2983,85.478 37.7492,93.722 48.1627,98.061 64.6508,101.0983 83.3085,99.3627 100.6644,89.3831 113.6814,79.4034 117.5864,72.8949 119.322,65.5186 114.1153,41.2203 105.0034,29.939 98.061,24.2983 87.2136,12.5831 73.3288,9.1119 70.7254,9.5458 68.5559,17.3559 59.0102,36.0136 48.5966,48.5966 36.8814,57.7085 24.7322,64.2169 13.4508,74.6305" stroke="#00007f" stroke-width="2" /><polyline fill="none" points="102.8339,29.939 83.7424,46.861 74.6305,58.1424 73.3288,72.0271 76.8,93.2881" stroke="#7cff79" stroke-width="2" /><polyline fill="none" points="93.2881,27.3356 93.2881,27.3356" stroke="#7f0000" stroke-width="2" /></svg>