<?xml version="1.0" encoding="utf-8" ?>
<svg baseProfile="tiny" height="128" version="1.2" viewBox="0,0,128,128" width="128" xmlns="http://www.w3.org/2000/svg" xmlns:ev="http://www.w3.org/2001/xml-events" xmlns:xlink="http://www.w3.org/1999/xlink"><defs /><polyline fill="none" points="105.8712,36.8814 97.1932,22.9966 86.3458,15.1864 76.8,11.2814 59.0102,8.678 44.6915,12.1492 34.278,16.922 26.0339,24.2983 16.4881,35.5797 10.4136,47.7288 8.678,55.1051 9.5458,66.8203 14.7525,80.2712 25.1661,90.2508 32.5424,93.722 44.2576,96.7593 53.3695,96.7593 77.2339,93.2881 97.6271,85.0441 112.3797,73.7627 119.322,58.5763 119.322,52.9356 114.9831,42.9559 109.3424,37.3153 88.0814,28.6373" stroke="#00007f" stroke-width="2" /><polyline fill="none" points="94.1559,22.1288 87.6475,22.9966 81.139,25.6 75.9322,32.5424 73.7627,41.2203 73.3288,55.1051 75.9322,75.9322 81.5729,87.6475 85.0441,92.4203" stroke="#7cff79" stroke-width="2" /><polyline fill="none" points="32.5424,29.0712 50.7661,33.8441 61.6136,45.1254 65.5186,52.5017 67.6881,60.3119 68.122,71.5932 60.7458,95.8915" stroke="#7f0000" stroke-width="2" /></svg>