<?xml version="1.0" encoding="utf-8" ?>
<svg baseProfile="tiny" height="128" version="1.2" viewBox="0,0,128,128" width="128" xmlns="http://www.w3.org/2000/svg" xmlns:ev="http://www.w3.org/2001/xml-events" xmlns:xlink="http://www.w3.org/1999/xlink"><defs /><polyline fill="none" points="93.6054,19.5918 82.7211,15.2381 65.7415,15.2381 52.6803,17.415 48.7619,19.1565 45.7143,20.4626 27.4286,39.1837 19.1565,45.2789 10.0136,58.3401 8.7075,66.6122 13.4966,71.4014 40.4898,85.7687 60.517,92.7347 72.7075,93.1701 79.6735,91.4286 90.5578,85.7687 98.3946,78.8027 107.102,68.3537 112.7619,57.9048 118.4218,32.2177 119.2925,18.2857 117.551,11.3197 111.8912,9.1429 96.6531,8.7075 70.0952,12.6259" stroke="#00007f" stroke-width="2" /><polyline fill="none" points="38.3129,22.2041 52.2449,29.1701 56.1633,33.9592 61.3878,47.4558 63.1293,65.7415 59.2109,74.8844 50.5034,83.1565 27.8639,93.1701 27.4286,90.9932 28.7347,87.5102" stroke="#7cff79" stroke-width="2" /><polyline fill="none" points="100.5714,27.4286 90.9932,28.7347 83.1565,33.0884 68.7891,49.6327 64.8707,51.3741 57.034,66.1769 52.6803,79.2381 53.551,83.1565 62.6939,90.9932 81.415,101.0068 93.6054,103.619 97.5238,98.3946" stroke="#7f0000" stroke-width="2" /></svg>