<?xml version="1.0" encoding="utf-8" ?>
<svg baseProfile="tiny" height="128" version="1.2" viewBox="0,0,128,128" width="128" xmlns="http://www.w3.org/2000/svg" xmlns:ev="http://www.w3.org/2001/xml-events" xmlns:xlink="http://www.w3.org/1999/xlink"><defs /><polyline fill="none" points="60.7458,10.8475 54.6712,12.5831 30.8068,28.6373 14.7525,42.0881 9.5458,54.2373 9.1119,59.4441 8.678,77.6678 11.7153,86.7797 21.261,103.7017 34.7119,116.7186 39.0508,118.4542 45.1254,119.322 78.5356,118.8881 86.7797,116.7186 97.6271,110.2102 106.3051,102.8339 116.2847,82.0068 118.4542,69.8576 118.4542,60.3119 114.5492,45.5593 98.061,18.2237 87.6475,10.8475 82.8746,9.1119 64.2169,8.678 53.3695,12.1492 50.3322,18.6576" stroke="#00007f" stroke-width="2" /><polyline fill="none" points="32.1085,32.9763 30.3729,64.6508 27.3356,81.139 26.9017,101.9661 24.2983,111.5119" stroke="#0080ff" stroke-width="2" /><polyline fill="none" points="40.3525,29.939 35.1458,59.878 36.0136,110.6441" stroke="#7cff79" stroke-width="2" /><polyline fill="none" points="99.7966,23.4305 92.8542,79.8373 93.2881,97.1932" stroke="#ff9400" stroke-width="2" /><polyline fill="none" points="104.5695,29.939 103.2678,36.0136" stroke="#7f0000" stroke-width="2" /></svg>