<?xml version="1.0" encoding="utf-8" ?>
<svg baseProfile="tiny" height="128" version="1.2" viewBox="0,0,128,128" width="128" xmlns="http://www.w3.org/2000/svg" xmlns:ev="http://www.w3.org/2001/xml-events" xmlns:xlink="http://www.w3.org/1999/xlink"><defs /><polyline fill="none" points="73.7627,19.5254 65.9525,17.3559 59.0102,22.1288 52.9356,32.5424 51.2,42.522 57.2746,49.0305 70.2915,55.1051 81.139,58.1424 90.6847,59.0102 98.9288,56.4068 105.4373,50.7661 108.9085,39.9186 106.739,30.8068 94.1559,20.8271 79.8373,15.1864 72.8949,15.6203 65.5186,20.8271" stroke="#00007f" stroke-width="2" /><polyline fill="none" points="57.2746,27.3356 64.2169,30.3729 74.6305,29.5051 89.8169,23.4305 92.4203,20.3932 91.5525,17.3559" stroke="#0000e8" stroke-width="2" /><polyline fill="none" points="49.8983,43.3898 61.6136,45.5593 73.3288,45.9932 85.9119,42.522 96.3254,33.4102 98.061,26.9017 96.3254,22.1288" stroke="#0038ff" stroke-width="2" /><polyline fill="none" points="77.2339,56.4068 85.9119,55.539 96.7593,50.3322 103.7017,43.8237 106.739,36.4475" stroke="#0094ff" stroke-width="2" /><polyline fill="none" points="68.9898,16.0542 75.9322,38.1831 84.6102,48.1627 96.3254,51.6339 101.0983,51.6339 114.9831,48.1627" stroke="#0cf4ea" stroke-width="2" /><polyline fill="none" points="78.1017,16.0542 81.139,26.4678 85.9119,32.1085 90.6847,35.5797 101.5322,38.6169 119.322,35.5797" stroke="#56ffa0" stroke-width="2" /><polyline fill="none" points="59.4441,25.1661 59.0102,26.4678" stroke="#a0ff56" stroke-width="2" /><polyline fill="none" points="60.7458,29.5051 76.3661,46.4271 78.5356,56.8407" stroke="#eaff0c" stroke-width="2" /><polyline fill="none" points="8.678,10.8475 8.678,45.1254 9.9797,54.2373 15.1864,50.3322 20.3932,48.5966 29.939,47.7288 34.278,49.0305 28.6373,10.4136 25.1661,8.678 9.5458,12.5831" stroke="#ffaa00" stroke-width="2" /><polyline fill="none" points="13.4508,23.4305 19.5254,35.5797 27.3356,38.1831 35.5797,36.8814 42.0881,33.8441 43.3898,27.7695 40.3525,18.2237 32.1085,17.7898 11.7153,23.4305" stroke="#ff5500" stroke-width="2" /><polyline fill="none" points="16.4881,53.3695 16.0542,56.4068 22.9966,72.8949" stroke="#e80000" stroke-width="2" /><polyline fill="none" points="31.6746,78.9695 37.3153,62.0475 43.8237,73.3288 25.1661,73.7627 68.9898,78.5356" stroke="#7f0000" stroke-width="2" /></svg>