<?xml version="1.0" encoding="utf-8" ?>
<svg baseProfile="tiny" height="128" version="1.2" viewBox="0,0,128,128" width="128" xmlns="http://www.w3.org/2000/svg" xmlns:ev="http://www.w3.org/2001/xml-events" xmlns:xlink="http://www.w3.org/1999/xlink"><defs /><polyline fill="none" points="105.8712,8.678 102.4,12.1492 87.6475,16.922 24.7322,34.7119 11.7153,42.0881 8.678,48.5966 8.678,74.6305 13.8847,88.5153 19.9593,93.2881 49.8983,94.5898 62.4814,91.9864 72.8949,88.0814 83.7424,83.3085 98.9288,73.3288 112.3797,59.0102 116.2847,49.0305 119.322,34.7119 118.0203,28.2034 107.1729,22.1288 94.1559,21.261 87.2136,18.2237 76.3661,17.3559 66.3864,15.1864" stroke="#00007f" stroke-width="2" /><polyline fill="none" points="98.4949,24.2983 83.7424,36.0136 75.0644,54.6712 66.3864,69.4237 49.8983,82.0068 43.3898,89.8169" stroke="#00d4ff" stroke-width="2" /><polyline fill="none" points="34.7119,26.9017 39.0508,35.1458" stroke="#ffe500" stroke-width="2" /><polyline fill="none" points="40.7864,41.6542 42.0881,44.2576" stroke="#7f0000" stroke-width="2" /></svg>