<?xml version="1.0" encoding="utf-8" ?>
<svg baseProfile="tiny" height="128" version="1.2" viewBox="0,0,128,128" width="128" xmlns="http://www.w3.org/2000/svg" xmlns:ev="http://www.w3.org/2001/xml-events" xmlns:xlink="http://www.w3.org/1999/xlink"><defs /><polyline fill="none" points="85.9119,119.322 75.0644,116.2847 41.2203,98.061 23.8644,91.5525 18.2237,87.2136 10.8475,75.4983 8.678,68.9898 8.678,63.7831 14.3186,47.2949 17.3559,42.0881 34.278,20.8271 45.1254,10.8475 50.3322,8.678 55.539,8.678 78.5356,15.1864 96.7593,27.7695 111.5119,45.1254 116.2847,55.9729 118.4542,67.6881 117.1525,85.9119 110.6441,97.6271 92.4203,108.4746 88.0814,109.7763" stroke="#00007f" stroke-width="2" /><polyline fill="none" points="13.8847,29.0712 19.5254,32.5424 31.2407,49.4644 40.7864,59.0102 43.8237,64.2169 47.2949,85.9119 58.1424,79.4034" stroke="#7cff79" stroke-width="2" /><polyline fill="none" points="88.0814,31.2407 82.4407,33.8441 77.2339,44.2576 77.2339,61.6136 80.7051,80.7051 85.9119,85.0441 96.7593,87.2136 107.6068,85.9119 110.6441,83.7424" stroke="#7f0000" stroke-width="2" /></svg>