<?xml version="1.0" encoding="utf-8" ?>
<svg baseProfile="tiny" height="128" version="1.2" viewBox="0,0,128,128" width="128" xmlns="http://www.w3.org/2000/svg" xmlns:ev="http://www.w3.org/2001/xml-events" xmlns:xlink="http://www.w3.org/1999/xlink"><defs /><polyline fill="none" points="50.9388,16.9796 53.9864,11.7551 107.5374,23.0748 117.551,39.1837 119.2925,48.3265 119.2925,66.6122 111.8912,82.7211 99.2653,97.5238 90.9932,103.1837 81.8503,107.102 72.7075,109.2789 55.7279,109.7143 38.7483,105.7959 30.9116,101.0068 17.8503,85.7687 13.932,77.0612 9.1429,60.9524 8.7075,44.8435 12.6259,30.9116 21.3333,20.4626 34.3946,11.3197 44.4082,8.7075 54.4218,9.1429 58.7755,11.3197" stroke="#00007f" stroke-width="2" /><polyline fill="none" points="60.9524,13.932 62.2585,23.9456 67.483,37.0068 78.3673,45.7143 99.2653,55.7279 105.7959,60.517 109.7143,65.3061 111.0204,73.5782" stroke="#7cff79" stroke-width="2" /><polyline fill="none" points="11.3197,45.7143 13.0612,43.9728 29.1701,45.7143 39.1837,50.068 55.2925,61.8231 67.483,76.1905 69.6599,81.8503 71.8367,95.7823 77.4966,106.2313" stroke="#7f0000" stroke-width="2" /></svg>