<?xml version="1.0" encoding="utf-8" ?>
<svg baseProfile="tiny" height="128" version="1.2" viewBox="0,0,128,128" width="128" xmlns="http://www.w3.org/2000/svg" xmlns:ev="http://www.w3.org/2001/xml-events" xmlns:xlink="http://www.w3.org/1999/xlink"><defs /><polyline fill="none" points="51.6339,18.6576 42.9559,18.6576 27.7695,26.9017 23.8644,29.939 16.4881,41.6542 8.678,65.5186 8.678,91.5525 12.5831,96.3254 23.8644,104.5695 34.7119,110.6441 56.4068,118.4542 73.7627,119.322 81.139,116.7186 88.9492,109.7763 97.1932,86.7797 99.7966,55.9729 99.7966,49.0305 96.7593,41.6542 90.2508,29.939 80.7051,19.0915 73.3288,13.8847 62.4814,9.9797 51.6339,8.678 49.4644,12.5831 49.4644,19.5254 51.6339,21.6949" stroke="#00007f" stroke-width="2" /><polyline fill="none" points="84.1763,18.6576 80.7051,19.0915 77.6678,26.4678 75.4983,37.3153 74.1966,81.139 77.2339,88.5153 85.9119,99.7966" stroke="#7cff79" stroke-width="2" /><polyline fill="none" points="42.0881,19.5254 42.0881,27.3356 39.9186,34.7119 36.4475,42.0881 32.5424,56.8407 27.7695,68.5559 23.4305,75.4983 16.0542,82.0068 10.8475,89.3831" stroke="#7f0000" stroke-width="2" /></svg>