<?xml version="1.0" encoding="utf-8" ?>
<svg baseProfile="tiny" height="128" version="1.2" viewBox="0,0,128,128" width="128" xmlns="http://www.w3.org/2000/svg" xmlns:ev="http://www.w3.org/2001/xml-events" xmlns:xlink="http://www.w3.org/1999/xlink"><defs /><polyline fill="none" points="52.0678,11.2814 60.7458,9.1119 76.8,8.678 89.3831,13.0169 102.8339,20.8271 113.2475,32.9763 116.7186,40.7864 119.322,53.3695 117.5864,67.6881 113.2475,78.5356 105.0034,89.3831 99.3627,95.0237 86.3458,102.4 70.2915,106.739 51.6339,109.3424 37.7492,109.7763 27.7695,106.739 20.8271,101.9661 12.1492,93.722 8.678,84.6102 9.1119,72.461 18.2237,50.3322 26.0339,39.9186 45.1254,22.9966 53.3695,20.8271 64.6508,22.1288" stroke="#00007f" stroke-width="2" /><polyline fill="none" points="99.3627,16.4881 92.8542,20.8271 90.2508,25.1661 75.9322,38.6169 66.8203,53.3695 65.9525,84.6102 71.5932,100.6644 73.3288,101.9661" stroke="#7cff79" stroke-width="2" /><polyline fill="none" points="26.0339,41.2203 34.7119,50.3322 39.0508,57.2746 43.3898,77.2339 43.3898,88.5153 34.7119,102.8339" stroke="#7f0000" stroke-width="2" /></svg>