<?xml version="1.0" encoding="utf-8" ?>
<svg baseProfile="tiny" height="128" version="1.2" viewBox="0,0,128,128" width="128" xmlns="http://www.w3.org/2000/svg" xmlns:ev="http://www.w3.org/2001/xml-events" xmlns:xlink="http://www.w3.org/1999/xlink"><defs /><polyline fill="none" points="111.078,17.7898 105.8712,12.1492 101.5322,10.8475 85.9119,11.7153 59.878,17.7898 42.0881,24.2983 31.2407,31.2407 25.6,37.3153 20.3932,45.9932 15.1864,57.2746 9.5458,78.9695 9.5458,93.2881 13.4508,100.6644 19.0915,107.1729 29.939,111.5119 53.8034,111.5119 68.5559,107.1729 77.2339,103.2678 82.8746,98.4949 94.5898,72.0271 118.0203,28.2034 119.322,21.261 116.2847,15.6203" stroke="#00007f" stroke-width="2" /><polyline fill="none" points="95.0237,9.5458 92.4203,8.678 91.1186,12.1492 87.2136,16.4881 81.5729,42.9559 81.139,58.1424 83.7424,66.8203 104.1356,68.5559" stroke="#00d4ff" stroke-width="2" /><polyline fill="none" points="53.3695,17.7898 53.3695,34.278 51.6339,45.5593 45.5593,54.6712 39.0508,56.4068 9.5458,57.2746" stroke="#ffe500" stroke-width="2" /><polyline fill="none" points="8.678,82.8746 12.1492,82.0068 27.3356,82.4407 34.7119,86.3458 36.0136,90.6847 36.0136,99.3627 32.9763,103.2678 24.7322,107.1729" stroke="#7f0000" stroke-width="2" /></svg>