<?xml version="1.0" encoding="utf-8" ?>
<svg baseProfile="tiny" height="128" version="1.2" viewBox="0,0,128,128" width="128" xmlns="http://www.w3.org/2000/svg" xmlns:ev="http://www.w3.org/2001/xml-events" xmlns:xlink="http://www.w3.org/1999/xlink"><defs /><polyline fill="none" points="49.8983,25.1661 27.7695,22.5627 21.6949,28.6373 15.6203,37.7492 8.678,59.4441 8.678,80.2712 17.3559,98.9288 23.8644,108.0407 33.4102,114.1153 52.0678,118.0203 61.1797,118.4542 71.1593,115.4169 81.139,110.2102 88.9492,103.7017 94.1559,96.3254 99.7966,83.7424 101.0983,75.4983 101.0983,56.4068 98.4949,48.1627 86.7797,28.2034 77.2339,16.922 72.0271,13.0169 60.7458,8.678" stroke="#00007f" stroke-width="2" /><polyline fill="none" points="49.4644,13.8847 49.4644,70.2915 47.7288,81.139 42.9559,96.7593 38.6169,103.7017" stroke="#7cff79" stroke-width="2" /><polyline fill="none" points="75.9322,19.5254 73.7627,37.3153 69.4237,49.8983 65.0847,85.0441 65.0847,102.8339 69.8576,119.322" stroke="#7f0000" stroke-width="2" /></svg>