<?xml version="1.0" encoding="utf-8" ?>
<svg baseProfile="tiny" height="128" version="1.2" viewBox="0,0,128,128" width="128" xmlns="http://www.w3.org/2000/svg" xmlns:ev="http://www.w3.org/2001/xml-events" xmlns:xlink="http://www.w3.org/1999/xlink"><defs /><polyline fill="none" points="98.9288,51.2 100.2305,48.1627 99.3627,41.6542 93.2881,30.3729 76.8,18.2237 57.2746,9.5458 51.2,8.678 37.7492,19.9593 15.1864,45.9932 8.678,62.0475 8.678,84.1763 13.8847,98.4949 16.922,103.2678 30.8068,116.7186 34.278,118.0203 76.3661,119.322 103.7017,111.078 111.078,101.5322 111.078,64.2169 104.5695,45.5593 94.1559,35.1458" stroke="#00007f" stroke-width="2" /><polyline fill="none" points="29.939,26.0339 39.9186,37.3153 55.9729,64.6508 69.8576,92.8542 72.461,105.8712 60.7458,118.0203" stroke="#0080ff" stroke-width="2" /><polyline fill="none" points="37.3153,23.4305 55.1051,37.3153 67.6881,53.8034 81.5729,91.5525 80.7051,115.4169" stroke="#7cff79" stroke-width="2" /><polyline fill="none" points="89.8169,27.3356 85.9119,28.6373 75.9322,36.0136 71.5932,42.0881 63.3492,49.4644" stroke="#ff9400" stroke-width="2" /><polyline fill="none" points="53.8034,58.1424 45.9932,65.9525 42.0881,71.5932" stroke="#7f0000" stroke-width="2" /></svg>