<?xml version="1.0" encoding="utf-8" ?>
<svg baseProfile="tiny" height="128" version="1.2" viewBox="0,0,128,128" width="128" xmlns="http://www.w3.org/2000/svg" xmlns:ev="http://www.w3.org/2001/xml-events" xmlns:xlink="http://www.w3.org/1999/xlink"><defs /><polyline fill="none" points="27.8639,34.8299 20.0272,34.3946 15.6735,36.5714 11.3197,40.9252 8.7075,45.7143 8.7075,51.3741 10.0136,55.7279 12.1905,57.4694 16.9796,59.6463 27.4286,59.2109 33.0884,56.5986 36.1361,51.8095 36.1361,44.4082 32.6531,37.8776 26.9932,32.6531 22.6395,31.3469" stroke="#00007f" stroke-width="2" /><polyline fill="none" points="31.7823,37.4422 30.9116,37.4422" stroke="#0000c3" stroke-width="2" /><polyline fill="none" points="26.5578,39.1837 25.2517,41.3605" stroke="#0000ff" stroke-width="2" /><polyline fill="none" points="24.381,42.6667 23.9456,44.8435" stroke="#0034ff" stroke-width="2" /><polyline fill="none" points="23.5102,46.585 23.5102,48.7619" stroke="#0070ff" stroke-width="2" /><polyline fill="none" points="23.5102,52.2449 23.9456,53.9864" stroke="#00acff" stroke-width="2" /><polyline fill="none" points="26.1224,58.7755 26.5578,59.2109" stroke="#02e8f4" stroke-width="2" /><polyline fill="none" points="14.8027,37.4422 14.8027,37.4422" stroke="#32ffc3" stroke-width="2" /><polyline fill="none" points="15.6735,40.9252 16.1088,43.102" stroke="#63ff93" stroke-width="2" /><polyline fill="none" points="16.1088,45.7143 15.2381,47.4558" stroke="#93ff63" stroke-width="2" /><polyline fill="none" points="14.8027,49.1973 13.932,50.9388" stroke="#c3ff32" stroke-width="2" /><polyline fill="none" points="12.1905,53.9864 9.5782,55.2925" stroke="#f4f802" stroke-width="2" /><polyline fill="none" points="15.2381,37.0068 15.2381,37.8776" stroke="#ffc000" stroke-width="2" /><polyline fill="none" points="28.7347,38.3129 28.7347,37.8776" stroke="#ff8900" stroke-width="2" /><polyline fill="none" points="119.2925,63.1293 113.1973,63.1293 111.0204,66.6122 111.8912,68.7891 116.6803,70.0952 119.2925,68.7891 117.9864,61.8231" stroke="#ff5100" stroke-width="2" /><polyline fill="none" points="114.5034,62.2585 114.068,60.0816 106.2313,52.2449 85.7687,35.2653 49.1973,9.5782" stroke="#ff1a00" stroke-width="2" /><polyline fill="none" points="47.4558,8.7075 43.9728,9.1429 41.7959,12.6259 42.2313,16.5442 44.8435,19.5918 83.5918,37.4422 87.9456,42.6667 88.8163,46.585 87.5102,48.7619 99.2653,52.2449 109.2789,62.2585" stroke="#c30000" stroke-width="2" /><polyline fill="none" points="76.6259,33.9592 81.8503,42.2313 94.0408,54.4218 102.7483,60.517 117.1156,67.9184" stroke="#7f0000" stroke-width="2" /></svg>