<?xml version="1.0" encoding="utf-8" ?>
<svg baseProfile="tiny" height="128" version="1.2" viewBox="0,0,128,128" width="128" xmlns="http://www.w3.org/2000/svg" xmlns:ev="http://www.w3.org/2001/xml-events" xmlns:xlink="http://www.w3.org/1999/xlink"><defs /><polyline fill="none" points="98.061,24.2983 95.8915,18.6576 87.6475,13.8847 73.3288,10.8475 62.0475,10.8475 55.1051,11.7153 43.3898,16.922 29.939,27.3356 15.1864,44.2576 9.5458,55.539 8.678,61.1797 9.9797,79.8373 17.3559,97.6271 25.1661,106.739 32.9763,113.2475 36.8814,115.4169 49.4644,119.322 62.4814,118.8881 67.6881,117.5864 75.0644,113.2475 85.478,103.7017 94.5898,89.8169 98.9288,78.5356 101.9661,51.6339 101.0983,26.0339 93.722,12.1492 89.3831,8.678" stroke="#00007f" stroke-width="2" /><polyline fill="none" points="41.2203,26.4678 45.1254,56.4068 44.6915,77.6678 37.7492,99.7966 29.5051,110.6441 27.3356,115.8508" stroke="#004cff" stroke-width="2" /><polyline fill="none" points="76.8,16.4881 72.461,24.2983 63.3492,52.0678 60.3119,64.2169 58.5763,83.7424 58.5763,95.4576 60.3119,99.7966 72.0271,114.5492" stroke="#29ffcd" stroke-width="2" /><polyline fill="none" points="38.6169,46.4271 43.8237,45.1254" stroke="#cdff29" stroke-width="2" /><polyline fill="none" points="37.3153,63.3492 42.9559,62.9153" stroke="#ff6700" stroke-width="2" /><polyline fill="none" points="46.4271,75.9322 55.1051,77.6678" stroke="#7f0000" stroke-width="2" /></svg>