<?xml version="1.0" encoding="utf-8" ?>
<svg baseProfile="tiny" height="128" version="1.2" viewBox="0,0,128,128" width="128" xmlns="http://www.w3.org/2000/svg" xmlns:ev="http://www.w3.org/2001/xml-events" xmlns:xlink="http://www.w3.org/1999/xlink"><defs /><polyline fill="none" points="79.4034,23.8644 42.9559,23.4305 35.1458,27.7695 19.9593,42.522 10.8475,57.7085 8.678,64.6508 8.678,69.4237 13.4508,74.6305 26.4678,79.4034 33.8441,80.7051 65.0847,79.8373 90.6847,72.8949 105.0034,65.9525 114.5492,56.4068 118.8881,45.9932 119.322,35.1458 117.1525,30.3729 111.9458,24.7322 105.4373,19.9593 75.9322,9.1119 65.0847,8.678 57.7085,11.2814" stroke="#00007f" stroke-width="2" /><polyline fill="none" points="51.6339,20.3932 49.0305,26.0339 47.7288,33.8441 47.7288,52.5017 44.6915,73.3288" stroke="#7cff79" stroke-width="2" /><polyline fill="none" points="97.1932,23.8644 96.3254,75.4983" stroke="#7f0000" stroke-width="2" /></svg>