<?xml version="1.0" encoding="utf-8" ?>
<svg baseProfile="tiny" height="128" version="1.2" viewBox="0,0,128,128" width="128" xmlns="http://www.w3.org/2000/svg" xmlns:ev="http://www.w3.org/2001/xml-events" xmlns:xlink="http://www.w3.org/1999/xlink"><defs /><polyline fill="none" points="86.6395,32.6531 67.483,23.9456 59.6463,23.0748 50.5034,23.9456 39.619,26.9932 31.3469,31.3469 23.0748,38.7483 10.8844,62.2585 8.7075,72.7075 9.1429,89.6871 12.1905,99.2653 16.9796,106.6667 23.5102,112.3265 35.2653,116.6803 49.1973,115.8095 66.6122,109.2789 83.1565,98.8299 107.5374,75.7551 115.3741,62.6939 119.2925,51.3741 118.8571,40.4898 116.6803,31.3469 107.5374,17.415 94.9116,8.7075" stroke="#00007f" stroke-width="2" /><polyline fill="none" points="14.8027,47.8912 25.2517,61.8231 38.3129,69.6599 46.1497,70.966 55.2925,70.966 65.7415,67.9184 75.7551,63.5646 85.7687,57.034 93.6054,49.6327 101.4422,38.7483 109.7143,20.898" stroke="#7cff79" stroke-width="2" /><polyline fill="none" points="19.5918,113.6327 26.5578,101.4422 39.1837,94.0408 56.5986,90.9932 66.1769,91.8639 76.1905,95.3469" stroke="#7f0000" stroke-width="2" /></svg>