<?xml version="1.0" encoding="utf-8" ?>
<svg baseProfile="tiny" height="128" version="1.2" viewBox="0,0,128,128" width="128" xmlns="http://www.w3.org/2000/svg" xmlns:ev="http://www.w3.org/2001/xml-events" xmlns:xlink="http://www.w3.org/1999/xlink"><defs /><polyline fill="none" points="57.7085,9.9797 47.7288,8.678 34.278,12.5831 22.1288,22.5627 13.8847,34.278 10.8475,42.522 9.1119,50.3322 8.678,70.7254 9.1119,75.4983 12.1492,82.4407 17.3559,89.8169 23.8644,93.2881 34.7119,95.4576 70.7254,95.4576 90.2508,97.1932 100.6644,84.1763 119.322,67.6881 119.322,59.878 117.1525,53.8034 89.8169,18.6576 82.8746,16.4881 74.6305,20.3932 65.5186,20.8271 60.3119,19.5254 55.539,16.0542" stroke="#00007f" stroke-width="2" /><polyline fill="none" points="94.5898,26.0339 85.478,44.6915 82.4407,57.7085 82.0068,74.6305 84.6102,85.478" stroke="#004cff" stroke-width="2" /><polyline fill="none" points="35.1458,89.3831 58.1424,52.5017 59.4441,44.2576 55.1051,38.6169 42.0881,29.939 33.4102,19.5254 26.0339,15.6203" stroke="#29ffcd" stroke-width="2" /><polyline fill="none" points="38.1831,21.6949 33.8441,28.2034" stroke="#cdff29" stroke-width="2" /><polyline fill="none" points="41.6542,26.9017 39.4847,32.9763" stroke="#ff6700" stroke-width="2" /><polyline fill="none" points="52.5017,39.4847 52.5017,38.1831" stroke="#7f0000" stroke-width="2" /></svg>