<?xml version="1.0" encoding="utf-8" ?>
<svg baseProfile="tiny" height="128" version="1.2" viewBox="0,0,128,128" width="128" xmlns="http://www.w3.org/2000/svg" xmlns:ev="http://www.w3.org/2001/xml-events" xmlns:xlink="http://www.w3.org/1999/xlink"><defs /><polyline fill="none" points="82.2857,9.5782 69.6599,11.7551 57.9048,15.2381 38.3129,24.8163 16.1088,43.5374 10.449,52.6803 8.7075,59.2109 9.1429,69.6599 11.3197,75.7551 13.4966,78.8027 22.2041,84.898 49.1973,92.7347 70.0952,94.0408 84.0272,92.2993 94.0408,89.2517 107.102,80.9796 115.3741,69.2245 118.4218,57.9048 119.2925,47.8912 117.1156,34.3946 112.3265,23.5102 101.8776,12.1905 88.381,8.7075 68.3537,10.449" stroke="#00007f" stroke-width="2" /><polyline fill="none" points="46.585,20.0272 56.1633,22.6395" stroke="#0000b6" stroke-width="2" /><polyline fill="none" points="41.3605,34.8299 60.517,31.3469" stroke="#0000f1" stroke-width="2" /><polyline fill="none" points="48.3265,48.3265 57.4694,49.6327" stroke="#0018ff" stroke-width="2" /><polyline fill="none" points="46.1497,57.9048 52.6803,58.7755 57.4694,61.8231" stroke="#004cff" stroke-width="2" /><polyline fill="none" points="46.1497,76.1905 46.1497,76.1905" stroke="#0080ff" stroke-width="2" /><polyline fill="none" points="41.3605,85.3333 44.8435,86.6395" stroke="#00b0ff" stroke-width="2" /><polyline fill="none" points="43.9728,67.0476 52.2449,72.2721" stroke="#00e4f7" stroke-width="2" /><polyline fill="none" points="43.102,64.8707 43.102,64.8707" stroke="#29ffcd" stroke-width="2" /><polyline fill="none" points="77.932,87.0748 87.0748,86.2041" stroke="#53ffa3" stroke-width="2" /><polyline fill="none" points="81.415,67.9184 97.5238,62.6939" stroke="#7cff79" stroke-width="2" /><polyline fill="none" points="87.0748,47.8912 98.8299,44.8435" stroke="#a3ff53" stroke-width="2" /><polyline fill="none" points="93.6054,29.1701 103.619,25.2517" stroke="#cdff29" stroke-width="2" /><polyline fill="none" points="100.5714,13.932 106.6667,14.8027" stroke="#f7f400" stroke-width="2" /><polyline fill="none" points="87.5102,35.2653 94.9116,33.9592" stroke="#ffc400" stroke-width="2" /><polyline fill="none" points="88.381,52.2449 88.381,52.2449" stroke="#ff9400" stroke-width="2" /><polyline fill="none" points="88.8163,54.4218 97.0884,54.4218" stroke="#ff6700" stroke-width="2" /><polyline fill="none" points="84.898,76.1905 84.898,76.1905" stroke="#ff3700" stroke-width="2" /><polyline fill="none" points="80.5442,77.0612 88.381,74.8844 95.7823,74.449" stroke="#f10700" stroke-width="2" /><polyline fill="none" points="99.7007,20.0272 95.7823,30.9116 84.0272,52.6803 80.1088,68.3537 79.6735,84.4626" stroke="#b60000" stroke-width="2" /><polyline fill="none" points="46.1497,16.1088 48.3265,29.6054 43.9728,79.2381" stroke="#7f0000" stroke-width="2" /></svg>