<?xml version="1.0" encoding="utf-8" ?>
<svg baseProfile="tiny" height="128" version="1.2" viewBox="0,0,128,128" width="128" xmlns="http://www.w3.org/2000/svg" xmlns:ev="http://www.w3.org/2001/xml-events" xmlns:xlink="http://www.w3.org/1999/xlink"><defs /><polyline fill="none" points="37.3153,19.9593 27.3356,27.7695 16.922,39.4847 10.8475,52.0678 9.1119,62.0475 8.678,73.7627 14.3186,91.5525 19.0915,98.9288 26.9017,105.0034 37.3153,107.6068 59.878,105.8712 82.8746,95.4576 90.2508,91.1186 113.2475,66.3864 116.7186,60.7458 119.322,49.0305 119.322,45.5593 115.8508,39.4847 102.8339,28.6373 96.3254,24.2983 75.4983,14.7525 63.7831,10.4136 53.3695,8.678 39.0508,8.678 32.9763,10.8475 29.939,16.0542" stroke="#00007f" stroke-width="2" /><polyline fill="none" points="31.6746,30.3729 30.3729,38.6169 47.2949,39.4847 51.6339,37.7492 54.6712,34.7119 64.2169,35.5797 72.8949,33.4102 94.5898,23.4305" stroke="#0080ff" stroke-width="2" /><polyline fill="none" points="20.8271,39.4847 19.5254,41.2203 21.6949,42.522 29.0712,44.6915 70.7254,46.861 69.8576,39.0508 72.8949,36.0136 78.1017,33.8441 89.8169,33.4102" stroke="#7cff79" stroke-width="2" /><polyline fill="none" points="97.6271,83.3085 77.2339,78.1017 78.9695,76.3661 76.8,75.4983 62.4814,75.4983 40.3525,79.8373 39.9186,85.478 38.1831,87.6475 24.7322,96.7593 13.0169,100.6644 11.2814,103.2678" stroke="#ff9400" stroke-width="2" /><polyline fill="none" points="83.3085,85.9119 82.4407,84.6102 78.1017,83.7424 63.7831,83.7424 62.9153,82.0068 58.1424,84.6102 49.0305,85.9119 27.7695,97.6271 26.0339,105.4373" stroke="#7f0000" stroke-width="2" /></svg>