<?xml version="1.0" encoding="utf-8" ?>
<svg baseProfile="tiny" height="128" version="1.2" viewBox="0,0,128,128" width="128" xmlns="http://www.w3.org/2000/svg" xmlns:ev="http://www.w3.org/2001/xml-events" xmlns:xlink="http://www.w3.org/1999/xlink"><defs /><polyline fill="none" points="57.7085,8.678 37.3153,19.9593 27.7695,28.2034 23.8644,33.8441 16.922,48.1627 8.678,71.5932 8.678,80.2712 11.2814,89.3831 20.8271,104.1356 30.3729,111.078 45.5593,116.2847 65.9525,119.322 85.0441,117.5864 95.4576,114.1153 102.4,107.6068 106.3051,97.6271 108.9085,80.7051 109.3424,57.7085 108.0407,51.2 101.0983,33.8441 96.3254,27.7695 88.5153,22.9966 73.7627,19.9593 56.4068,13.0169" stroke="#00007f" stroke-width="2" /><polyline fill="none" points="42.0881,19.9593 40.3525,29.939 30.8068,56.8407 29.939,76.3661 27.7695,84.1763 24.7322,89.8169" stroke="#00d4ff" stroke-width="2" /><polyline fill="none" points="60.7458,109.3424 66.3864,100.2305 79.4034,68.122 83.3085,48.1627 84.1763,30.3729 78.5356,18.2237" stroke="#ffe500" stroke-width="2" /><polyline fill="none" points="72.8949,29.5051 72.8949,29.5051" stroke="#7f0000" stroke-width="2" /></svg>