<?xml version="1.0" encoding="utf-8" ?>
<svg baseProfile="tiny" height="128" version="1.2" viewBox="0,0,128,128" width="128" xmlns="http://www.w3.org/2000/svg" xmlns:ev="http://www.w3.org/2001/xml-events" xmlns:xlink="http://www.w3.org/1999/xlink"><defs /><polyline fill="none" points="90.5578,8.7075 58.7755,8.7075 40.4898,13.4966 17.8503,31.3469 13.0612,37.8776 9.1429,52.2449 8.7075,83.5918 14.8027,91.8639 22.2041,97.9592 35.2653,105.3605 51.8095,107.9728 80.1088,108.4082 92.7347,105.3605 104.9252,97.9592 113.1973,88.381 116.6803,81.8503 118.8571,71.4014 119.2925,47.8912 114.5034,34.3946 113.1973,26.1224 110.1497,21.3333 99.7007,17.415 89.6871,15.2381 82.2857,10.449 76.6259,9.5782" stroke="#00007f" stroke-width="2" /><polyline fill="none" points="51.8095,18.7211 55.2925,19.1565" stroke="#00d4ff" stroke-width="2" /><polyline fill="none" points="47.8912,16.9796 50.5034,16.9796 54.8571,22.2041 62.2585,35.2653 64.8707,46.585 65.3061,63.5646 62.2585,78.3673 58.7755,86.2041 45.2789,106.6667 46.585,107.9728" stroke="#ffe500" stroke-width="2" /><polyline fill="none" points="103.1837,19.1565 100.1361,20.0272 94.9116,32.6531 90.9932,57.034 90.9932,68.7891 94.0408,73.5782 100.1361,93.1701 102.3129,95.7823 107.9728,99.2653" stroke="#7f0000" stroke-width="2" /></svg>