<?xml version="1.0" encoding="utf-8" ?>
<svg baseProfile="tiny" height="128" version="1.2" viewBox="0,0,128,128" width="128" xmlns="http://www.w3.org/2000/svg" xmlns:ev="http://www.w3.org/2001/xml-events" xmlns:xlink="http://www.w3.org/1999/xlink"><defs /><polyline fill="none" points="49.8983,14.7525 42.9559,16.0542 34.7119,22.9966 23.4305,37.7492 17.3559,55.9729 13.4508,80.2712 13.4508,97.1932 18.2237,107.1729 26.9017,114.5492 36.4475,118.0203 60.7458,119.322 68.5559,114.1153 91.1186,85.478 96.3254,70.7254 96.3254,63.3492 92.8542,56.4068 72.0271,29.5051 63.3492,13.4508 55.9729,8.678 53.8034,8.678" stroke="#00007f" stroke-width="2" /><polyline fill="none" points="63.3492,24.2983 53.8034,39.4847 52.5017,46.4271 52.5017,69.4237 57.2746,76.8 74.1966,90.2508 82.8746,93.722 91.5525,95.0237" stroke="#00d4ff" stroke-width="2" /><polyline fill="none" points="8.678,70.7254 16.0542,70.7254 30.3729,76.8 36.4475,84.1763 36.4475,118.0203 35.5797,119.322" stroke="#ffe500" stroke-width="2" /><polyline fill="none" points="39.0508,39.0508 60.7458,39.0508" stroke="#7f0000" stroke-width="2" /></svg>