<?xml version="1.0" encoding="utf-8" ?>
<svg baseProfile="tiny" height="128" version="1.2" viewBox="0,0,128,128" width="128" xmlns="http://www.w3.org/2000/svg" xmlns:ev="http://www.w3.org/2001/xml-events" xmlns:xlink="http://www.w3.org/1999/xlink"><defs /><polyline fill="none" points="48.1627,11.2814 36.8814,12.1492 19.9593,19.5254 13.8847,25.1661 9.9797,34.7119 8.678,63.7831 11.2814,74.6305 14.7525,85.0441 19.9593,94.5898 26.0339,100.6644 32.5424,104.5695 49.4644,108.4746 61.6136,108.4746 73.7627,106.3051 84.1763,102.4 97.1932,91.9864 106.739,81.139 117.5864,61.6136 119.322,54.2373 118.8881,41.2203 113.6814,32.1085 107.6068,25.6 91.5525,17.3559 71.1593,10.4136 58.5763,8.678 43.3898,9.5458" stroke="#00007f" stroke-width="2" /><polyline fill="none" points="29.0712,16.0542 37.7492,25.1661 42.9559,35.5797 46.861,50.3322 47.2949,64.6508 45.5593,70.2915 39.4847,82.4407 33.4102,90.2508 22.5627,99.7966" stroke="#7cff79" stroke-width="2" /><polyline fill="none" points="91.1186,20.3932 87.2136,19.9593 82.0068,22.9966 70.7254,33.8441 68.122,42.0881 67.2542,68.122 68.122,78.5356 73.3288,87.2136 82.8746,93.722 91.1186,94.1559" stroke="#7f0000" stroke-width="2" /></svg>