<?xml version="1.0" encoding="utf-8" ?>
<svg baseProfile="tiny" height="128" version="1.2" viewBox="0,0,128,128" width="128" xmlns="http://www.w3.org/2000/svg" xmlns:ev="http://www.w3.org/2001/xml-events" xmlns:xlink="http://www.w3.org/1999/xlink"><defs /><polyline fill="none" points="60.7458,10.4136 46.4271,10.4136 36.4475,13.0169 24.2983,22.1288 18.6576,29.939 9.9797,47.7288 8.678,55.9729 9.5458,65.9525 16.0542,83.7424 26.4678,99.7966 36.8814,110.6441 51.6339,116.7186 68.122,119.322 76.3661,119.322 93.2881,111.9458 99.3627,104.1356 106.3051,88.0814 108.9085,73.3288 107.1729,57.2746 102.8339,44.2576 97.1932,33.8441 83.7424,16.4881 75.4983,11.7153 61.1797,8.678" stroke="#00007f" stroke-width="2" /><polyline fill="none" points="24.2983,30.3729 33.4102,32.9763 40.3525,37.7492 51.2,49.8983 58.5763,63.7831 62.0475,74.1966 62.9153,84.6102 62.9153,101.0983 59.878,114.5492" stroke="#7cff79" stroke-width="2" /><polyline fill="none" points="75.0644,10.8475 70.7254,27.7695 69.8576,43.8237 70.2915,55.9729 73.7627,67.2542 77.2339,73.3288 86.3458,82.4407 98.4949,90.6847 106.3051,93.722" stroke="#7f0000" stroke-width="2" /></svg>