<?xml version="1.0" encoding="utf-8" ?>
<svg baseProfile="tiny" height="128" version="1.2" viewBox="0,0,128,128" width="128" xmlns="http://www.w3.org/2000/svg" xmlns:ev="http://www.w3.org/2001/xml-events" xmlns:xlink="http://www.w3.org/1999/xlink"><defs /><polyline fill="none" points="61.1797,13.4508 55.1051,12.5831 50.3322,13.4508 37.7492,20.8271 22.1288,40.7864 16.0542,52.5017 11.7153,64.2169 9.1119,75.0644 8.678,93.2881 16.0542,107.1729 22.5627,112.8136 30.3729,117.1525 39.4847,118.8881 49.4644,118.8881 59.0102,115.4169 68.122,109.3424 83.3085,92.8542 92.4203,75.4983 94.1559,59.878 93.2881,51.2 85.0441,36.4475 78.9695,30.3729 72.8949,26.4678 65.9525,24.7322 54.6712,25.6 47.2949,31.2407 44.6915,36.4475" stroke="#00007f" stroke-width="2" /><polyline fill="none" points="48.1627,8.678 46.861,63.7831 50.7661,100.6644 51.2,119.322" stroke="#00d4ff" stroke-width="2" /><polyline fill="none" points="57.7085,28.6373 65.0847,36.0136 73.3288,49.8983 75.4983,55.9729 76.8,67.6881 76.8,79.4034 75.4983,85.0441 67.2542,100.2305 59.4441,110.2102" stroke="#ffe500" stroke-width="2" /><polyline fill="none" points="47.7288,14.3186 46.4271,13.0169 43.8237,13.4508 38.6169,20.3932 30.3729,35.5797 26.9017,45.5593 23.4305,66.3864 23.8644,88.9492 26.0339,96.3254 29.0712,101.0983 33.4102,104.5695 43.3898,108.0407 53.8034,108.4746" stroke="#7f0000" stroke-width="2" /></svg>