<?xml version="1.0" encoding="utf-8" ?>
<svg baseProfile="tiny" height="128" version="1.2" viewBox="0,0,128,128" width="128" xmlns="http://www.w3.org/2000/svg" xmlns:ev="http://www.w3.org/2001/xml-events" xmlns:xlink="http://www.w3.org/1999/xlink"><defs /><polyline fill="none" points="102.8339,11.7153 91.5525,9.5458 76.8,9.5458 50.3322,16.4881 39.4847,24.2983 20.8271,44.6915 11.7153,63.7831 8.678,77.6678 8.678,90.6847 11.7153,95.8915 19.9593,102.8339 32.5424,108.4746 42.9559,110.6441 60.7458,111.5119 92.8542,93.722 107.1729,80.7051 114.9831,69.4237 118.0203,62.0475 119.322,45.1254 118.4542,23.8644 116.2847,19.0915 109.3424,13.0169 97.1932,10.8475" stroke="#00007f" stroke-width="2" /><polyline fill="none" points="70.7254,8.678 70.7254,40.7864 77.2339,69.4237 76.3661,108.0407" stroke="#7cff79" stroke-width="2" /><polyline fill="none" points="56.4068,26.4678 61.1797,28.6373 68.5559,28.6373 78.1017,26.4678" stroke="#7f0000" stroke-width="2" /></svg>