<?xml version="1.0" encoding="utf-8" ?>
<svg baseProfile="tiny" height="128" version="1.2" viewBox="0,0,128,128" width="128" xmlns="http://www.w3.org/2000/svg" xmlns:ev="http://www.w3.org/2001/xml-events" xmlns:xlink="http://www.w3.org/1999/xlink"><defs /><polyline fill="none" points="73.3288,12.1492 59.878,9.1119 47.7288,9.5458 40.3525,12.5831 29.0712,22.1288 22.5627,30.3729 14.7525,45.5593 8.678,68.9898 9.1119,82.0068 16.0542,91.1186 32.1085,100.2305 45.1254,102.8339 62.0475,102.8339 70.7254,102.4 88.0814,97.1932 101.5322,89.3831 111.078,81.5729 116.7186,73.3288 118.4542,68.5559 119.322,53.3695 118.4542,48.5966 108.9085,30.8068 103.2678,23.8644 97.1932,19.0915 72.8949,8.678" stroke="#00007f" stroke-width="2" /><polyline fill="none" points="29.0712,23.4305 38.1831,35.5797 44.2576,50.7661 47.7288,75.9322 47.7288,82.8746 45.1254,91.9864" stroke="#004cff" stroke-width="2" /><polyline fill="none" points="104.5695,16.4881 98.9288,16.922 91.5525,20.3932 87.6475,24.7322 81.5729,39.0508 78.1017,59.4441 77.6678,83.3085 82.8746,95.8915" stroke="#29ffcd" stroke-width="2" /><polyline fill="none" points="77.2339,45.9932 100.2305,45.5593 104.1356,47.2949" stroke="#cdff29" stroke-width="2" /><polyline fill="none" points="69.8576,73.3288 74.1966,72.0271 114.1153,71.1593" stroke="#ff6700" stroke-width="2" /><polyline fill="none" points="78.1017,85.0441 96.3254,83.7424 118.8881,78.9695" stroke="#7f0000" stroke-width="2" /></svg>