<?xml version="1.0" encoding="utf-8" ?>
<svg baseProfile="tiny" height="128" version="1.2" viewBox="0,0,128,128" width="128" xmlns="http://www.w3.org/2000/svg" xmlns:ev="http://www.w3.org/2001/xml-events" xmlns:xlink="http://www.w3.org/1999/xlink"><defs /><polyline fill="none" points="107.5374,28.7347 92.7347,16.9796 82.2857,11.3197 72.7075,8.7075 59.6463,8.7075 45.7143,12.6259 31.3469,22.2041 22.6395,31.3469 13.932,46.585 8.7075,61.3878 8.7075,71.4014 12.1905,85.3333 19.5918,97.9592 25.6871,104.4898 37.4422,111.8912 51.3741,117.1156 65.3061,118.4218 83.1565,114.5034 94.9116,108.8435 107.9728,97.9592 115.8095,84.898 119.2925,70.5306 118.4218,56.1633 111.4558,37.8776 103.1837,28.7347" stroke="#00007f" stroke-width="2" /><polyline fill="none" points="20.0272,31.3469 36.5714,44.8435 45.2789,57.9048 48.3265,67.0476 49.6327,76.6259 48.7619,87.0748 46.1497,99.2653 41.3605,111.4558" stroke="#0010ff" stroke-width="2" /><polyline fill="none" points="27.8639,45.2789 41.3605,37.8776" stroke="#00a4ff" stroke-width="2" /><polyline fill="none" points="40.4898,68.3537 52.2449,73.5782" stroke="#3fffb7" stroke-width="2" /><polyline fill="none" points="38.7483,101.8776 43.9728,105.7959 50.068,107.102" stroke="#b7ff3f" stroke-width="2" /><polyline fill="none" points="94.0408,10.8844 87.0748,19.5918 81.8503,31.7823 80.1088,38.7483 80.5442,50.068 84.898,72.2721 92.7347,93.1701 97.0884,101.0068 105.7959,109.2789" stroke="#ffb900" stroke-width="2" /><polyline fill="none" points="70.5306,33.5238 80.5442,28.7347 89.6871,28.2993" stroke="#ff3000" stroke-width="2" /><polyline fill="none" points="80.9796,68.3537 89.2517,63.1293" stroke="#7f0000" stroke-width="2" /></svg>