<?xml version="1.0" encoding="utf-8" ?>
<svg baseProfile="tiny" height="128" version="1.2" viewBox="0,0,128,128" width="128" xmlns="http://www.w3.org/2000/svg" xmlns:ev="http://www.w3.org/2001/xml-events" xmlns:xlink="http://www.w3.org/1999/xlink"><defs /><polyline fill="none" points="78.1017,16.922 70.7254,12.5831 53.3695,10.4136 39.0508,10.4136 32.5424,13.4508 14.3186,39.4847 10.4136,47.2949 9.5458,54.6712 8.678,80.2712 14.3186,101.5322 22.9966,108.4746 39.0508,117.1525 51.2,118.4542 59.0102,117.5864 91.1186,111.078 101.0983,105.8712 107.6068,98.4949 111.078,91.5525 116.7186,72.461 119.322,54.2373 119.322,47.7288 113.6814,37.3153 87.6475,15.1864 80.7051,11.7153 65.9525,8.678" stroke="#00007f" stroke-width="2" /><polyline fill="none" points="85.0441,33.4102 76.3661,47.7288 48.1627,85.478 42.9559,102.4" stroke="#7cff79" stroke-width="2" /><polyline fill="none" points="39.4847,30.3729 47.2949,38.1831 57.7085,43.3898 67.2542,52.0678 81.139,70.7254 104.5695,89.3831 114.9831,102.8339" stroke="#7f0000" stroke-width="2" /></svg>