<?xml version="1.0" encoding="utf-8" ?>
<svg baseProfile="tiny" height="128" version="1.2" viewBox="0,0,128,128" width="128" xmlns="http://www.w3.org/2000/svg" xmlns:ev="http://www.w3.org/2001/xml-events" xmlns:xlink="http://www.w3.org/1999/xlink"><defs /><polyline fill="none" points="53.8034,8.678 42.9559,12.1492 32.5424,18.6576 22.5627,29.0712 15.1864,42.522 8.678,65.0847 8.678,80.2712 9.5458,88.0814 15.6203,101.5322 25.6,111.5119 32.9763,114.5492 48.1627,115.8508 57.2746,115.4169 84.1763,109.7763 99.3627,103.2678 111.5119,93.722 118.0203,82.4407 119.322,63.3492 114.1153,51.2 101.0983,35.1458 78.9695,17.3559 66.8203,13.8847 44.2576,14.7525" stroke="#00007f" stroke-width="2" /><polyline fill="none" points="14.3186,26.0339 33.8441,47.7288 45.9932,68.5559 49.4644,81.5729 50.7661,93.2881 50.7661,106.739 47.7288,111.078" stroke="#0028ff" stroke-width="2" /><polyline fill="none" points="82.8746,19.0915 79.4034,31.2407 79.4034,68.122 85.478,91.5525 89.3831,97.1932 96.7593,103.7017" stroke="#00d4ff" stroke-width="2" /><polyline fill="none" points="22.1288,40.7864 28.6373,37.7492 32.5424,33.8441" stroke="#7cff79" stroke-width="2" /><polyline fill="none" points="24.2983,61.6136 42.9559,47.7288" stroke="#ffe500" stroke-width="2" /><polyline fill="none" points="34.7119,73.7627 54.6712,57.2746" stroke="#ff4600" stroke-width="2" /><polyline fill="none" points="35.5797,84.6102 38.6169,85.9119 50.3322,80.7051" stroke="#7f0000" stroke-width="2" /></svg>