<?xml version="1.0" encoding="utf-8" ?>
<svg baseProfile="tiny" height="128" version="1.2" viewBox="0,0,128,128" width="128" xmlns="http://www.w3.org/2000/svg" xmlns:ev="http://www.w3.org/2001/xml-events" xmlns:xlink="http://www.w3.org/1999/xlink"><defs /><polyline fill="none" points="45.5593,9.5458 31.2407,11.7153 23.8644,14.7525 17.3559,19.9593 13.0169,26.0339 9.1119,38.6169 8.678,45.1254 11.2814,53.8034 16.922,60.7458 39.4847,67.6881 56.4068,70.7254 91.5525,75.0644 107.1729,75.4983 112.3797,75.0644 113.2475,73.7627 119.322,51.6339 119.322,43.8237 116.7186,38.1831 93.2881,24.2983 82.4407,21.261 60.7458,12.1492 43.8237,8.678" stroke="#00007f" stroke-width="2" /><polyline fill="none" points="43.8237,8.678 42.9559,24.2983 39.0508,41.2203 31.6746,52.0678 16.4881,61.6136 18.2237,59.0102 26.4678,55.539" stroke="#7cff79" stroke-width="2" /><polyline fill="none" points="100.6644,26.4678 83.7424,36.0136 75.4983,42.522 74.6305,46.4271 78.5356,52.9356 80.2712,65.9525 85.0441,74.6305 85.478,73.3288" stroke="#7f0000" stroke-width="2" /></svg>