<?xml version="1.0" encoding="utf-8" ?>
<svg baseProfile="tiny" height="128" version="1.2" viewBox="0,0,128,128" width="128" xmlns="http://www.w3.org/2000/svg" xmlns:ev="http://www.w3.org/2001/xml-events" xmlns:xlink="http://www.w3.org/1999/xlink"><defs /><polyline fill="none" points="76.8,16.4881 66.8203,12.1492 59.0102,12.5831 46.4271,18.6576 26.4678,32.5424 15.6203,46.4271 11.7153,54.6712 8.678,68.9898 9.5458,84.6102 12.1492,92.8542 19.0915,105.4373 23.8644,110.6441 33.8441,116.2847 39.9186,118.0203 59.4441,119.322 66.8203,117.5864 73.3288,114.5492 79.4034,108.9085 91.5525,95.8915 100.6644,83.3085 107.1729,67.2542 110.6441,48.5966 109.7763,34.7119 103.7017,15.1864 101.0983,10.8475 96.3254,8.678" stroke="#00007f" stroke-width="2" /><polyline fill="none" points="83.7424,13.0169 79.8373,12.5831 75.4983,21.6949 66.3864,46.4271 64.2169,58.5763 63.7831,84.1763 69.4237,102.4 70.2915,104.1356 72.461,104.1356" stroke="#7cff79" stroke-width="2" /><polyline fill="none" points="26.4678,29.939 36.0136,40.3525 42.9559,59.0102 45.5593,78.1017 45.5593,96.3254 42.522,114.1153" stroke="#7f0000" stroke-width="2" /></svg>