<?xml version="1.0" encoding="utf-8" ?>
<svg baseProfile="tiny" height="128" version="1.2" viewBox="0,0,128,128" width="128" xmlns="http://www.w3.org/2000/svg" xmlns:ev="http://www.w3.org/2001/xml-events" xmlns:xlink="http://www.w3.org/1999/xlink"><defs /><polyline fill="none" points="8.678,24.2983 9.1119,21.261 14.3186,17.7898 27.3356,11.7153 38.6169,9.5458 57.7085,8.678 73.3288,9.9797 91.5525,18.2237 105.8712,26.4678 111.9458,32.5424 115.8508,41.2203 118.8881,55.1051 119.322,72.0271 114.5492,74.6305 105.8712,75.9322 76.8,75.9322 71.5932,75.4983 64.2169,72.461 54.6712,61.6136 39.0508,48.1627 33.4102,41.6542 30.3729,36.0136 23.8644,17.7898 23.4305,12.1492 25.1661,9.9797" stroke="#00007f" stroke-width="2" /><polyline fill="none" points="41.6542,11.2814 44.2576,12.5831 50.3322,27.3356 52.5017,41.2203 51.6339,54.6712 41.6542,87.6475" stroke="#7cff79" stroke-width="2" /><polyline fill="none" points="92.4203,21.261 90.2508,29.0712 90.2508,54.2373 95.4576,65.9525 100.6644,69.4237" stroke="#7f0000" stroke-width="2" /></svg>