<?xml version="1.0" encoding="utf-8" ?>
<svg baseProfile="tiny" height="128" version="1.2" viewBox="0,0,128,128" width="128" xmlns="http://www.w3.org/2000/svg" xmlns:ev="http://www.w3.org/2001/xml-events" xmlns:xlink="http://www.w3.org/1999/xlink"><defs /><polyline fill="none" points="52.0678,10.4136 42.0881,10.4136 23.8644,19.5254 14.7525,27.3356 8.678,37.7492 8.678,46.4271 13.8847,71.5932 29.0712,93.722 37.7492,100.6644 46.861,105.0034 59.0102,106.739 75.0644,105.8712 88.5153,101.5322 102.4,91.9864 114.1153,78.5356 116.7186,72.8949 119.322,56.4068 111.5119,37.7492 108.9085,28.2034 105.0034,23.4305 88.5153,13.8847 67.6881,8.678 50.3322,14.7525" stroke="#00007f" stroke-width="2" /><polyline fill="none" points="94.5898,15.6203 90.2508,19.0915 79.4034,32.5424 77.6678,59.878 82.0068,79.4034 91.1186,83.7424 95.4576,87.6475 98.061,91.9864 98.061,90.2508" stroke="#7cff79" stroke-width="2" /><polyline fill="none" points="34.278,14.7525 34.278,19.0915 46.4271,51.6339 48.5966,62.0475 48.5966,79.8373 42.9559,92.8542 36.0136,100.6644" stroke="#7f0000" stroke-width="2" /></svg>