<?xml version="1.0" encoding="utf-8" ?>
<svg baseProfile="tiny" height="128" version="1.2" viewBox="0,0,128,128" width="128" xmlns="http://www.w3.org/2000/svg" xmlns:ev="http://www.w3.org/2001/xml-events" xmlns:xlink="http://www.w3.org/1999/xlink"><defs /><polyline fill="none" points="82.4407,18.6576 67.2542,16.0542 54.6712,18.2237 42.0881,22.5627 29.939,31.2407 21.6949,41.2203 10.8475,61.6136 8.678,76.3661 9.1119,90.6847 17.7898,108.0407 29.0712,114.9831 42.522,119.322 57.2746,118.8881 72.8949,112.8136 86.3458,102.8339 97.1932,90.2508 104.5695,77.2339 108.0407,65.5186 107.6068,54.6712 103.7017,44.6915 98.061,35.1458 90.6847,26.4678 80.7051,17.7898 71.5932,11.7153 62.0475,8.678" stroke="#00007f" stroke-width="2" /><polyline fill="none" points="45.9932,26.4678 50.7661,37.7492 53.3695,48.1627 54.6712,59.878 53.8034,71.1593 48.5966,92.4203 35.5797,114.5492" stroke="#7cff79" stroke-width="2" /><polyline fill="none" points="103.7017,25.1661 84.1763,51.2 79.4034,60.7458 73.7627,82.4407 75.4983,99.7966 77.2339,106.3051" stroke="#7f0000" stroke-width="2" /></svg>