<?xml version="1.0" encoding="utf-8" ?>
<svg baseProfile="tiny" height="128" version="1.2" viewBox="0,0,128,128" width="128" xmlns="http://www.w3.org/2000/svg" xmlns:ev="http://www.w3.org/2001/xml-events" xmlns:xlink="http://www.w3.org/1999/xlink"><defs /><polyline fill="none" points="42.6667,111.4558 35.2653,110.1497 25.6871,105.3605 16.5442,96.6531 12.1905,89.6871 10.0136,82.7211 10.0136,67.0476 19.1565,52.6803 25.6871,48.3265 32.6531,45.2789 47.4558,44.8435 57.034,52.2449 60.0816,58.3401 60.517,74.0136 57.4694,81.415 47.0204,94.0408 36.5714,102.7483 27.4286,104.0544" stroke="#00007f" stroke-width="2" /><polyline fill="none" points="25.2517,52.6803 25.2517,108.8435" stroke="#004cff" stroke-width="2" /><polyline fill="none" points="47.8912,53.9864 45.2789,84.0272 40.9252,115.8095" stroke="#29ffcd" stroke-width="2" /><polyline fill="none" points="8.7075,78.8027 74.8844,82.2857" stroke="#cdff29" stroke-width="2" /><polyline fill="none" points="17.415,67.9184 17.8503,69.6599 20.4626,69.6599 38.7483,65.3061 66.1769,62.2585" stroke="#ff6700" stroke-width="2" /><polyline fill="none" points="26.1224,81.8503 25.6871,79.2381 29.6054,70.5306 37.8776,54.8571 64.4354,20.0272 50.5034,35.7007 33.9592,62.6939 19.5918,93.6054 10.8844,119.2925 51.3741,41.3605 62.6939,19.1565 70.0952,8.7075 52.2449,36.5714 37.4422,64.0 24.8163,90.9932 15.2381,115.8095 25.2517,96.2177 39.619,73.1429 68.3537,37.8776" stroke="#7f0000" stroke-width="2" /></svg>