<?xml version="1.0" encoding="utf-8" ?>
<svg baseProfile="tiny" height="128" version="1.2" viewBox="0,0,128,128" width="128" xmlns="http://www.w3.org/2000/svg" xmlns:ev="http://www.w3.org/2001/xml-events" xmlns:xlink="http://www.w3.org/1999/xlink"><defs /><polyline fill="none" points="26.9017,8.678 12.1492,41.6542 8.678,57.2746 8.678,64.2169 13.0169,80.7051 19.9593,93.2881 33.4102,110.2102 39.0508,113.6814 45.1254,114.9831 69.8576,114.9831 81.139,111.5119 88.0814,108.0407 109.3424,90.6847 118.0203,80.2712 119.322,74.1966 115.8508,61.6136 108.0407,49.4644 94.5898,32.5424 83.3085,22.1288 72.0271,16.4881 53.8034,15.6203 48.1627,13.0169 26.0339,10.8475 36.8814,39.0508 40.3525,55.9729 40.3525,68.5559 38.1831,79.4034 36.8814,96.7593" stroke="#00007f" stroke-width="2" /><polyline fill="none" points="61.6136,23.4305 58.5763,63.7831 60.7458,75.4983" stroke="#7f0000" stroke-width="2" /></svg>