<?xml version="1.0" encoding="utf-8" ?>
<svg baseProfile="tiny" height="128" version="1.2" viewBox="0,0,128,128" width="128" xmlns="http://www.w3.org/2000/svg" xmlns:ev="http://www.w3.org/2001/xml-events" xmlns:xlink="http://www.w3.org/1999/xlink"><defs /><polyline fill="none" points="80.7051,16.922 75.9322,8.678 67.2542,8.678 56.8407,11.7153 44.6915,17.7898 32.1085,27.7695 20.8271,40.7864 15.6203,49.0305 9.5458,64.2169 8.678,79.8373 15.6203,93.722 20.8271,99.7966 32.9763,111.078 46.4271,118.0203 52.9356,119.322 66.8203,119.322 73.7627,116.7186 87.2136,107.1729 104.5695,85.0441 113.6814,69.4237 117.5864,54.6712 116.7186,43.3898 113.6814,38.1831 102.8339,30.8068 53.3695,15.1864" stroke="#00007f" stroke-width="2" /><polyline fill="none" points="25.1661,30.3729 37.7492,65.0847 40.3525,82.4407 35.1458,95.8915 26.4678,106.3051 22.1288,109.7763 19.9593,106.739" stroke="#7cff79" stroke-width="2" /><polyline fill="none" points="95.8915,25.1661 82.8746,49.0305 80.2712,65.0847 80.2712,76.8 80.7051,82.0068 86.3458,92.8542 90.6847,96.3254 94.5898,97.1932 97.1932,93.2881" stroke="#7f0000" stroke-width="2" /></svg>