<?xml version="1.0" encoding="utf-8" ?>
<svg baseProfile="tiny" height="128" version="1.2" viewBox="0,0,128,128" width="128" xmlns="http://www.w3.org/2000/svg" xmlns:ev="http://www.w3.org/2001/xml-events" xmlns:xlink="http://www.w3.org/1999/xlink"><defs /><polyline fill="none" points="70.7254,10.4136 60.3119,8.678 43.3898,8.678 30.3729,13.0169 26.0339,15.6203 21.261,24.7322 9.1119,67.2542 8.678,92.4203 13.0169,105.0034 18.2237,112.3797 33.4102,118.4542 47.2949,119.322 67.2542,114.1153 78.9695,108.0407 103.2678,88.5153 107.6068,80.2712 107.6068,75.9322 98.9288,46.4271 89.3831,23.4305 86.3458,19.9593 78.1017,15.6203 65.0847,10.8475" stroke="#00007f" stroke-width="2" /><polyline fill="none" points="75.4983,12.1492 68.122,47.2949 67.2542,91.5525 70.2915,98.4949" stroke="#7cff79" stroke-width="2" /><polyline fill="none" points="30.8068,15.1864 34.278,22.9966 35.1458,42.0881 30.8068,67.6881 25.1661,85.0441 22.9966,88.0814" stroke="#7f0000" stroke-width="2" /></svg>