<?xml version="1.0" encoding="utf-8" ?>
<svg baseProfile="tiny" height="128" version="1.2" viewBox="0,0,128,128" width="128" xmlns="http://www.w3.org/2000/svg" xmlns:ev="http://www.w3.org/2001/xml-events" xmlns:xlink="http://www.w3.org/1999/xlink"><defs /><polyline fill="none" points="47.2949,18.6576 19.9593,33.4102 13.8847,39.9186 9.9797,47.2949 8.678,79.4034 12.5831,93.2881 16.0542,99.3627 22.1288,104.5695 43.3898,114.5492 49.8983,115.4169 74.6305,115.4169 94.1559,111.9458 106.739,103.2678 116.7186,90.6847 119.322,84.1763 119.322,76.8 109.3424,49.8983 100.6644,37.3153 89.3831,16.0542 83.3085,12.5831 70.7254,8.678 45.9932,16.0542 39.9186,18.6576 37.3153,21.261" stroke="#00007f" stroke-width="2" /><polyline fill="none" points="37.3153,21.261 42.0881,46.4271 40.7864,58.5763 42.0881,71.1593 38.6169,91.9864" stroke="#7cff79" stroke-width="2" /><polyline fill="none" points="89.3831,31.2407 85.478,39.0508 82.0068,57.2746 82.0068,64.6508 95.8915,101.9661" stroke="#7f0000" stroke-width="2" /></svg>