<?xml version="1.0" encoding="utf-8" ?>
<svg baseProfile="tiny" height="128" version="1.2" viewBox="0,0,128,128" width="128" xmlns="http://www.w3.org/2000/svg" xmlns:ev="http://www.w3.org/2001/xml-events" xmlns:xlink="http://www.w3.org/1999/xlink"><defs /><polyline fill="none" points="58.1424,10.4136 46.4271,9.1119 27.7695,12.1492 19.5254,16.4881 12.5831,22.1288 9.5458,28.2034 8.678,33.4102 11.2814,49.8983 18.2237,71.1593 28.2034,85.9119 42.9559,95.0237 66.3864,100.2305 93.2881,100.2305 104.5695,95.0237 114.1153,86.3458 118.4542,72.8949 119.322,60.3119 117.5864,49.8983 114.5492,41.2203 110.2102,33.8441 98.9288,20.3932 87.2136,14.3186 68.9898,8.678 56.4068,9.1119 44.6915,13.4508 38.1831,17.7898" stroke="#00007f" stroke-width="2" /><polyline fill="none" points="33.4102,9.1119 44.6915,22.5627 51.6339,33.8441 57.7085,45.1254 59.878,53.3695 58.1424,80.7051 52.9356,100.6644" stroke="#0000ff" stroke-width="2" /><polyline fill="none" points="87.6475,12.5831 83.7424,19.9593 80.2712,63.7831 80.7051,78.5356 86.7797,91.5525 89.3831,94.5898 105.8712,103.7017" stroke="#0080ff" stroke-width="2" /><polyline fill="none" points="39.9186,36.8814 42.9559,32.5424 60.3119,25.1661" stroke="#15ffe1" stroke-width="2" /><polyline fill="none" points="45.1254,56.8407 60.3119,50.3322" stroke="#7cff79" stroke-width="2" /><polyline fill="none" points="47.2949,83.3085 59.0102,78.9695" stroke="#e4ff12" stroke-width="2" /><polyline fill="none" points="72.461,26.4678 78.9695,24.7322 94.1559,23.8644" stroke="#ff9400" stroke-width="2" /><polyline fill="none" points="70.7254,51.6339 92.4203,47.2949" stroke="#ff1d00" stroke-width="2" /><polyline fill="none" points="78.1017,82.8746 94.5898,75.9322" stroke="#7f0000" stroke-width="2" /></svg>