<?xml version="1.0" encoding="utf-8" ?>
<svg baseProfile="tiny" height="128" version="1.2" viewBox="0,0,128,128" width="128" xmlns="http://www.w3.org/2000/svg" xmlns:ev="http://www.w3.org/2001/xml-events" xmlns:xlink="http://www.w3.org/1999/xlink"><defs /><polyline fill="none" points="50.7661,117.1525 44.2576,111.5119 27.3356,104.5695 20.8271,99.3627 13.8847,90.6847 8.678,68.122 8.678,57.7085 11.2814,46.861 14.7525,38.1831 27.7695,22.5627 43.3898,11.7153 54.2373,8.678 71.5932,8.678 92.4203,15.1864 103.2678,23.8644 110.6441,33.4102 114.1153,40.7864 115.8508,52.0678 117.1525,74.1966 117.1525,87.6475 114.9831,93.2881 103.2678,107.6068 79.4034,118.0203 65.0847,119.322 50.7661,111.5119 32.1085,105.8712" stroke="#00007f" stroke-width="2" /><polyline fill="none" points="32.9763,25.1661 43.8237,30.8068 65.0847,33.4102 81.139,38.1831 88.0814,39.0508 108.0407,38.1831" stroke="#0010ff" stroke-width="2" /><polyline fill="none" points="41.6542,105.8712 67.6881,105.4373 89.3831,112.8136 97.1932,112.3797" stroke="#00a4ff" stroke-width="2" /><polyline fill="none" points="78.5356,111.5119 85.478,104.5695 84.6102,90.6847 93.2881,79.4034 94.5898,75.9322 94.5898,69.8576 90.2508,58.5763 89.8169,44.2576 84.6102,34.278" stroke="#3fffb7" stroke-width="2" /><polyline fill="none" points="51.2,97.6271 59.4441,90.6847 65.0847,81.5729 58.5763,70.7254 58.5763,67.2542 65.0847,61.6136 67.6881,62.0475 68.5559,59.878 68.5559,46.4271 58.5763,36.0136 59.0102,27.3356 60.7458,24.2983" stroke="#b7ff3f" stroke-width="2" /><polyline fill="none" points="39.9186,104.1356 34.278,81.5729 36.8814,72.461 44.2576,61.6136 44.6915,46.861 39.9186,33.8441 39.0508,24.7322 39.9186,22.1288 42.9559,19.9593" stroke="#ffb900" stroke-width="2" /><polyline fill="none" points="22.1288,90.6847 19.9593,83.7424 19.9593,76.8 26.4678,59.0102 23.8644,45.9932 32.9763,30.3729 33.4102,22.9966 31.2407,16.0542" stroke="#ff3000" stroke-width="2" /><polyline fill="none" points="97.1932,108.9085 97.6271,106.3051 102.4,98.4949 108.4746,82.8746 108.4746,62.9153 103.2678,42.0881 105.0034,35.1458" stroke="#7f0000" stroke-width="2" /></svg>