<?xml version="1.0" encoding="utf-8" ?>
<svg baseProfile="tiny" height="128" version="1.2" viewBox="0,0,128,128" width="128" xmlns="http://www.w3.org/2000/svg" xmlns:ev="http://www.w3.org/2001/xml-events" xmlns:xlink="http://www.w3.org/1999/xlink"><defs /><polyline fill="none" points="9.1119,16.4881 9.5458,13.8847 16.0542,10.8475 30.3729,8.678 39.9186,8.678 47.2949,11.7153 54.6712,20.3932 58.1424,29.939 58.5763,37.3153 54.6712,43.3898 43.3898,47.2949 27.3356,48.1627 19.0915,45.5593 13.8847,41.2203 9.1119,33.8441 8.678,23.4305 10.8475,17.7898 16.0542,11.7153" stroke="#00007f" stroke-width="2" /><polyline fill="none" points="11.7153,13.8847 11.7153,22.9966 16.0542,26.9017 28.2034,26.9017 40.3525,32.1085 46.4271,30.8068 53.3695,19.5254" stroke="#0080ff" stroke-width="2" /><polyline fill="none" points="27.3356,30.8068 27.3356,36.4475 29.5051,40.3525 31.6746,42.9559 38.6169,45.9932" stroke="#7cff79" stroke-width="2" /><polyline fill="none" points="29.5051,32.5424 30.3729,26.4678" stroke="#ff9400" stroke-width="2" /><polyline fill="none" points="55.539,45.5593 63.3492,53.3695 77.6678,64.2169 97.1932,72.461 108.0407,75.0644 119.322,75.0644" stroke="#7f0000" stroke-width="2" /></svg>