<?xml version="1.0" encoding="utf-8" ?>
<svg baseProfile="tiny" height="128" version="1.2" viewBox="0,0,128,128" width="128" xmlns="http://www.w3.org/2000/svg" xmlns:ev="http://www.w3.org/2001/xml-events" xmlns:xlink="http://www.w3.org/1999/xlink"><defs /><polyline fill="none" points="69.8576,11.2814 49.4644,10.4136 31.2407,16.4881 18.2237,26.9017 12.1492,36.0136 8.678,52.9356 8.678,65.0847 10.4136,75.4983 16.4881,94.1559 19.9593,101.0983 25.6,107.1729 34.7119,112.3797 47.7288,117.1525 58.5763,119.322 71.1593,119.322 82.4407,112.8136 91.9864,100.2305 96.7593,85.0441 99.7966,65.0847 99.7966,55.9729 96.7593,42.522 89.8169,29.5051 74.6305,11.7153 66.3864,8.678" stroke="#00007f" stroke-width="2" /><polyline fill="none" points="38.6169,13.0169 39.0508,23.4305 45.9932,35.1458 67.6881,56.4068 99.3627,82.0068" stroke="#0080ff" stroke-width="2" /><polyline fill="none" points="59.4441,13.4508 90.6847,48.5966 103.2678,60.7458" stroke="#7cff79" stroke-width="2" /><polyline fill="none" points="16.4881,34.278 18.2237,39.0508 39.9186,61.1797 65.9525,85.9119 78.9695,95.0237" stroke="#ff9400" stroke-width="2" /><polyline fill="none" points="13.4508,65.0847 17.7898,71.5932 25.1661,78.9695 52.9356,97.1932 72.0271,108.4746 87.6475,115.4169 88.9492,110.6441" stroke="#7f0000" stroke-width="2" /></svg>