<?xml version="1.0" encoding="utf-8" ?>
<svg baseProfile="tiny" height="128" version="1.2" viewBox="0,0,128,128" width="128" xmlns="http://www.w3.org/2000/svg" xmlns:ev="http://www.w3.org/2001/xml-events" xmlns:xlink="http://www.w3.org/1999/xlink"><defs /><polyline fill="none" points="93.722,21.6949 67.6881,12.5831 59.0102,18.2237 41.6542,26.4678 15.6203,44.6915 11.2814,49.0305 9.5458,53.8034 8.678,62.0475 9.5458,71.5932 12.1492,75.4983 25.1661,84.6102 36.0136,90.2508 49.8983,94.1559 59.0102,93.2881 69.4237,90.2508 96.3254,78.5356 105.8712,71.1593 111.078,65.0847 118.0203,51.6339 119.322,41.2203 117.5864,31.6746 111.078,21.6949 98.061,15.6203 92.4203,15.6203 85.0441,18.2237 82.8746,21.6949" stroke="#00007f" stroke-width="2" /><polyline fill="none" points="76.8,11.7153 77.2339,14.7525 81.5729,20.8271 82.4407,29.5051 78.1017,36.8814 67.6881,48.5966 62.9153,52.9356 57.2746,55.539 19.0915,71.5932 15.6203,71.5932" stroke="#0010ff" stroke-width="2" /><polyline fill="none" points="103.7017,8.678 104.5695,10.4136 103.7017,12.1492 97.1932,19.0915 89.3831,32.1085 81.5729,39.0508 78.1017,44.2576 73.7627,59.878 77.6678,70.2915 87.2136,79.8373 95.0237,79.8373 100.6644,78.1017 102.4,76.8 103.7017,72.8949" stroke="#00a4ff" stroke-width="2" /><polyline fill="none" points="67.2542,21.6949 73.7627,21.6949 85.478,25.1661 87.6475,23.8644" stroke="#3fffb7" stroke-width="2" /><polyline fill="none" points="65.5186,41.2203 72.8949,44.6915 78.1017,45.1254 78.9695,44.2576" stroke="#b7ff3f" stroke-width="2" /><polyline fill="none" points="45.9932,52.5017 55.539,59.0102 62.0475,59.0102" stroke="#ffb900" stroke-width="2" /><polyline fill="none" points="22.5627,54.2373 25.1661,60.7458 32.5424,70.2915 34.278,69.8576" stroke="#ff3000" stroke-width="2" /><polyline fill="none" points="14.7525,62.4814 18.2237,68.9898" stroke="#7f0000" stroke-width="2" /></svg>