<?xml version="1.0" encoding="utf-8" ?>
<svg baseProfile="tiny" height="128" version="1.2" viewBox="0,0,128,128" width="128" xmlns="http://www.w3.org/2000/svg" xmlns:ev="http://www.w3.org/2001/xml-events" xmlns:xlink="http://www.w3.org/1999/xlink"><defs /><polyline fill="none" points="65.9525,14.3186 62.0475,11.7153 51.2,8.678 39.4847,9.1119 34.278,11.7153 21.261,21.6949 13.0169,34.278 9.5458,44.6915 8.678,59.4441 14.3186,74.6305 26.0339,85.9119 37.3153,91.5525 49.4644,95.4576 74.6305,96.3254 82.8746,94.1559 90.2508,90.2508 102.4,79.4034 111.9458,67.2542 118.8881,51.6339 119.322,46.861 119.322,37.7492 115.8508,28.6373 110.6441,22.5627 100.2305,15.6203 91.9864,13.0169 67.6881,9.5458 56.4068,9.5458 51.6339,10.8475" stroke="#00007f" stroke-width="2" /><polyline fill="none" points="71.1593,9.5458 77.6678,17.3559 81.139,25.6 84.1763,34.7119 86.7797,48.5966 85.9119,68.5559 82.4407,84.1763 78.1017,92.4203" stroke="#7cff79" stroke-width="2" /><polyline fill="none" points="55.1051,12.1492 52.9356,11.7153 46.4271,18.2237 38.6169,32.9763 35.1458,55.1051 32.5424,89.8169" stroke="#7f0000" stroke-width="2" /></svg>