<?xml version="1.0" encoding="utf-8" ?>
<svg baseProfile="tiny" height="128" version="1.2" viewBox="0,0,128,128" width="128" xmlns="http://www.w3.org/2000/svg" xmlns:ev="http://www.w3.org/2001/xml-events" xmlns:xlink="http://www.w3.org/1999/xlink"><defs /><polyline fill="none" points="38.1831,18.2237 32.5424,14.7525 26.9017,15.1864 21.261,19.0915 13.4508,30.8068 9.9797,44.2576 8.678,57.2746 8.678,75.0644 10.8475,82.8746 17.3559,97.1932 29.939,109.7763 53.3695,119.322 60.3119,119.322 68.122,115.8508 73.3288,104.1356 77.6678,76.8 77.6678,57.2746 75.9322,45.1254 73.3288,32.9763 69.8576,25.6 66.3864,19.0915 59.4441,13.0169 53.3695,8.678 49.8983,8.678 40.3525,14.3186 28.6373,26.4678" stroke="#00007f" stroke-width="2" /><polyline fill="none" points="31.2407,16.922 34.278,38.6169 34.278,75.9322 27.7695,100.6644" stroke="#7cff79" stroke-width="2" /><polyline fill="none" points="59.878,13.8847 54.6712,26.0339 53.8034,52.5017 55.539,65.9525 62.9153,95.0237" stroke="#7f0000" stroke-width="2" /></svg>