<?xml version="1.0" encoding="utf-8" ?>
<svg baseProfile="tiny" height="128" version="1.2" viewBox="0,0,128,128" width="128" xmlns="http://www.w3.org/2000/svg" xmlns:ev="http://www.w3.org/2001/xml-events" xmlns:xlink="http://www.w3.org/1999/xlink"><defs /><polyline fill="none" points="17.3559,83.7424 16.0542,30.8068 18.6576,17.7898 24.2983,10.8475 29.0712,9.1119 35.5797,8.678 41.2203,11.2814 45.5593,18.6576 46.861,25.1661 45.9932,41.6542 36.4475,66.3864 26.0339,83.7424 29.0712,85.478 29.0712,88.9492 25.1661,91.5525 10.4136,90.2508 8.678,85.478 10.4136,82.0068 17.7898,84.6102" stroke="#00007f" stroke-width="2" /><polyline fill="none" points="90.6847,12.5831 84.1763,17.3559 79.8373,22.9966 78.5356,36.0136 80.2712,42.0881 85.478,49.8983 94.5898,57.7085 103.7017,59.0102 110.2102,56.4068 118.4542,41.2203 119.322,30.8068 116.7186,26.4678 107.1729,18.6576 94.1559,12.1492 87.2136,11.7153" stroke="#0000cc" stroke-width="2" /><polyline fill="none" points="85.0441,14.7525 85.0441,16.4881" stroke="#0008ff" stroke-width="2" /><polyline fill="none" points="87.2136,22.1288 86.7797,23.8644" stroke="#004cff" stroke-width="2" /><polyline fill="none" points="86.7797,29.0712 86.3458,32.5424" stroke="#0090ff" stroke-width="2" /><polyline fill="none" points="85.478,36.4475 82.8746,40.3525" stroke="#00d4ff" stroke-width="2" /><polyline fill="none" points="82.0068,42.0881 82.0068,42.522" stroke="#29ffcd" stroke-width="2" /><polyline fill="none" points="105.4373,18.6576 101.5322,23.8644" stroke="#5fff96" stroke-width="2" /><polyline fill="none" points="98.061,32.1085 98.061,36.0136" stroke="#96ff5f" stroke-width="2" /><polyline fill="none" points="98.061,40.3525 98.4949,44.2576" stroke="#cdff29" stroke-width="2" /><polyline fill="none" points="100.2305,48.1627 102.4,50.7661" stroke="#ffe500" stroke-width="2" /><polyline fill="none" points="105.8712,54.6712 106.739,55.539" stroke="#ffa600" stroke-width="2" /><polyline fill="none" points="110.2102,57.2746 109.7763,57.2746" stroke="#ff6700" stroke-width="2" /><polyline fill="none" points="18.2237,26.4678 19.9593,36.4475 25.6,51.2 51.2,99.7966 52.5017,101.0983 52.9356,98.061" stroke="#ff2800" stroke-width="2" /><polyline fill="none" points="66.8203,19.9593 58.5763,31.6746 52.0678,43.8237 33.8441,85.9119 22.1288,103.2678 22.1288,100.6644" stroke="#cc0000" stroke-width="2" /><polyline fill="none" points="19.5254,16.4881 17.7898,19.9593 18.2237,31.2407 19.9593,41.6542 22.1288,45.9932" stroke="#7f0000" stroke-width="2" /></svg>