<?xml version="1.0" encoding="utf-8" ?>
<svg baseProfile="tiny" height="128" version="1.2" viewBox="0,0,128,128" width="128" xmlns="http://www.w3.org/2000/svg" xmlns:ev="http://www.w3.org/2001/xml-events" xmlns:xlink="http://www.w3.org/1999/xlink"><defs /><polyline fill="none" points="36.4475,15.6203 30.3729,21.261 26.0339,28.2034 17.7898,36.8814 11.2814,47.2949 9.9797,52.9356 8.678,59.4441 8.678,89.8169 12.1492,103.2678 14.7525,107.6068 27.3356,114.9831 37.7492,118.4542 63.3492,119.322 75.0644,114.9831 80.7051,111.9458 92.8542,100.6644 96.7593,95.0237 100.2305,88.0814 105.4373,69.4237 105.4373,53.3695 101.5322,39.0508 91.9864,22.1288 81.139,13.4508 73.7627,10.8475 58.1424,8.678 40.3525,8.678 35.5797,14.7525 32.9763,21.6949" stroke="#00007f" stroke-width="2" /><polyline fill="none" points="16.4881,94.5898 15.6203,89.3831 21.261,82.8746 39.4847,78.1017 57.2746,64.6508 62.0475,53.8034 62.0475,38.1831 63.3492,31.6746 73.7627,17.7898 82.4407,9.5458 85.478,9.5458" stroke="#00d4ff" stroke-width="2" /><polyline fill="none" points="75.0644,114.5492 75.0644,114.5492" stroke="#ffe500" stroke-width="2" /><polyline fill="none" points="60.7458,119.322 70.2915,101.9661 70.7254,97.1932 65.9525,89.3831 65.9525,81.139 72.461,68.9898 82.0068,56.4068 85.478,54.2373 97.1932,53.8034 101.0983,51.6339 108.9085,41.6542" stroke="#7f0000" stroke-width="2" /></svg>