<?xml version="1.0" encoding="utf-8" ?>
<svg baseProfile="tiny" height="128" version="1.2" viewBox="0,0,128,128" width="128" xmlns="http://www.w3.org/2000/svg" xmlns:ev="http://www.w3.org/2001/xml-events" xmlns:xlink="http://www.w3.org/1999/xlink"><defs /><polyline fill="none" points="73.3288,8.678 54.6712,19.0915 43.8237,29.939 36.8814,33.4102 32.1085,41.6542 26.4678,47.7288 13.4508,72.461 8.678,89.8169 12.1492,97.1932 18.2237,102.8339 35.5797,112.3797 54.6712,118.0203 84.1763,119.322 89.8169,112.3797 95.8915,108.9085 105.0034,95.8915 107.6068,89.8169 114.5492,59.4441 114.5492,39.4847 111.078,33.4102 80.2712,19.0915 78.1017,15.6203" stroke="#00007f" stroke-width="2" /><polyline fill="none" points="28.6373,35.5797 34.7119,48.5966 35.5797,54.6712 39.4847,60.7458 40.7864,66.3864 43.8237,72.0271 45.1254,79.4034 48.5966,85.478 54.6712,108.9085" stroke="#7cff79" stroke-width="2" /><polyline fill="none" points="45.1254,35.5797 51.2,36.0136 56.8407,40.3525 66.3864,52.5017 89.8169,91.1186" stroke="#7f0000" stroke-width="2" /></svg>