<?xml version="1.0" encoding="utf-8" ?>
<svg baseProfile="tiny" height="128" version="1.2" viewBox="0,0,128,128" width="128" xmlns="http://www.w3.org/2000/svg" xmlns:ev="http://www.w3.org/2001/xml-events" xmlns:xlink="http://www.w3.org/1999/xlink"><defs /><polyline fill="none" points="53.8034,9.9797 39.0508,16.4881 15.6203,33.4102 12.1492,39.4847 8.678,54.2373 9.5458,65.0847 16.0542,82.4407 22.1288,90.6847 28.2034,96.3254 41.6542,104.1356 52.5017,107.6068 66.8203,108.4746 74.6305,107.1729 94.1559,98.4949 98.9288,94.1559 111.078,79.8373 117.1525,66.8203 119.322,57.7085 118.4542,42.522 116.7186,34.7119 111.5119,24.2983 98.061,12.5831 85.9119,8.678 66.8203,8.678 53.3695,12.5831 47.2949,16.0542" stroke="#00007f" stroke-width="2" /><polyline fill="none" points="40.3525,16.4881 45.1254,29.939 46.4271,41.2203 46.4271,66.3864 45.1254,76.8" stroke="#0000ff" stroke-width="2" /><polyline fill="none" points="86.3458,13.8847 81.5729,24.2983 77.6678,37.3153 77.6678,51.6339 82.0068,73.3288 84.1763,79.4034 89.8169,88.0814" stroke="#0080ff" stroke-width="2" /><polyline fill="none" points="39.9186,40.3525 54.6712,37.3153" stroke="#15ffe1" stroke-width="2" /><polyline fill="none" points="37.7492,58.5763 47.2949,56.4068" stroke="#7cff79" stroke-width="2" /><polyline fill="none" points="39.9186,72.0271 39.9186,72.0271" stroke="#e4ff12" stroke-width="2" /><polyline fill="none" points="67.2542,38.1831 87.6475,32.9763" stroke="#ff9400" stroke-width="2" /><polyline fill="none" points="68.122,63.7831 76.3661,62.4814 86.3458,57.2746" stroke="#ff1d00" stroke-width="2" /><polyline fill="none" points="78.9695,77.2339 92.4203,70.7254" stroke="#7f0000" stroke-width="2" /></svg>