<?xml version="1.0" encoding="utf-8" ?>
<svg baseProfile="tiny" height="128" version="1.2" viewBox="0,0,128,128" width="128" xmlns="http://www.w3.org/2000/svg" xmlns:ev="http://www.w3.org/2001/xml-events" xmlns:xlink="http://www.w3.org/1999/xlink"><defs /><polyline fill="none" points="75.7551,15.6735 54.4218,14.8027 43.9728,17.8503 34.3946,23.5102 24.8163,31.3469 11.7551,50.9388 8.7075,67.483 9.1429,73.1429 14.3673,82.7211 23.9456,92.7347 43.5374,101.4422 60.0816,103.619 75.7551,103.619 83.5918,101.8776 95.7823,94.0408 111.8912,79.6735 117.9864,67.483 119.2925,60.0816 118.8571,45.7143 116.2449,38.7483 111.4558,31.3469 101.0068,20.0272 94.4762,15.2381 82.7211,10.0136 67.483,9.1429 58.7755,10.449" stroke="#00007f" stroke-width="2" /><polyline fill="none" points="77.4966,8.7075 75.7551,11.7551 74.8844,18.7211 75.3197,41.3605 77.0612,52.6803 86.6395,76.6259 96.6531,92.7347" stroke="#0010ff" stroke-width="2" /><polyline fill="none" points="42.6667,16.9796 44.4082,34.8299 42.2313,47.4558 30.0408,74.0136 20.898,82.7211" stroke="#00a4ff" stroke-width="2" /><polyline fill="none" points="50.068,30.0408 49.1973,31.3469 44.4082,32.2177 36.5714,31.3469" stroke="#3fffb7" stroke-width="2" /><polyline fill="none" points="47.0204,41.3605 35.2653,40.4898" stroke="#b7ff3f" stroke-width="2" /><polyline fill="none" points="43.5374,53.1156 41.7959,54.8571 30.9116,53.551" stroke="#ffb900" stroke-width="2" /><polyline fill="none" points="41.3605,63.5646 40.0544,64.8707 34.3946,64.8707 22.6395,63.1293" stroke="#ff3000" stroke-width="2" /><polyline fill="none" points="36.1361,76.1905 34.3946,77.932 29.1701,78.3673 21.7687,76.1905" stroke="#7f0000" stroke-width="2" /></svg>