<?xml version="1.0" encoding="utf-8" ?>
<svg baseProfile="tiny" height="128" version="1.2" viewBox="0,0,128,128" width="128" xmlns="http://www.w3.org/2000/svg" xmlns:ev="http://www.w3.org/2001/xml-events" xmlns:xlink="http://www.w3.org/1999/xlink"><defs /><polyline fill="none" points="89.3831,101.9661 42.522,83.3085 34.278,78.5356 23.4305,69.4237 12.5831,50.3322 8.678,32.9763 11.7153,27.7695 23.8644,17.3559 46.861,11.2814 87.6475,8.678 98.061,11.7153 101.9661,15.6203 117.5864,47.2949 119.322,53.3695 118.4542,58.5763 111.9458,74.1966 87.6475,101.9661 85.478,103.2678 82.4407,103.2678" stroke="#00007f" stroke-width="2" /><polyline fill="none" points="29.5051,17.3559 29.939,23.8644 31.6746,29.939 32.1085,52.0678 37.7492,68.9898 48.1627,77.2339 55.1051,77.6678 59.4441,75.4983 61.1797,73.3288 60.3119,55.539 56.4068,41.2203 55.9729,35.1458 60.3119,26.9017 70.2915,20.8271 74.6305,20.3932 78.9695,23.4305 82.4407,28.2034 84.6102,34.278 84.1763,49.4644 79.4034,69.8576 80.2712,72.0271 86.7797,72.0271 94.1559,68.9898 100.6644,61.1797 102.4,52.9356" stroke="#7f0000" stroke-width="2" /></svg>