<?xml version="1.0" encoding="utf-8" ?>
<svg baseProfile="tiny" height="128" version="1.2" viewBox="0,0,128,128" width="128" xmlns="http://www.w3.org/2000/svg" xmlns:ev="http://www.w3.org/2001/xml-events" xmlns:xlink="http://www.w3.org/1999/xlink"><defs /><polyline fill="none" points="12.1492,54.2373 9.1119,48.5966 9.5458,42.9559 11.7153,36.4475 20.8271,24.2983 35.5797,13.4508 44.2576,10.4136 64.2169,8.678 74.6305,10.4136 83.7424,14.3186 92.4203,19.5254 98.4949,26.4678 104.1356,35.5797 108.0407,45.1254 110.6441,56.4068 111.5119,67.2542 108.0407,85.478 104.5695,93.2881 99.3627,99.7966 85.0441,111.078 75.4983,115.8508 65.9525,118.4542 57.7085,119.322 49.4644,118.0203 35.1458,111.9458 24.2983,101.9661 15.1864,88.9492 10.4136,77.2339 8.678,67.6881 9.1119,62.0475 21.261,26.0339 24.2983,26.0339 29.939,28.6373 36.8814,39.0508 42.9559,57.7085 43.8237,67.2542 42.0881,76.3661 39.0508,84.6102 23.8644,108.4746" stroke="#00007f" stroke-width="2" /><polyline fill="none" points="76.3661,10.4136 68.9898,23.8644 61.6136,43.3898 58.5763,61.1797 61.1797,75.4983 64.2169,82.8746 74.1966,97.6271 82.4407,105.4373" stroke="#00d4ff" stroke-width="2" /><polyline fill="none" points="25.1661,42.9559 29.939,41.6542 36.8814,41.6542 35.5797,48.1627 26.9017,65.0847 32.1085,68.5559 50.3322,75.9322 49.8983,78.9695 36.4475,92.4203 36.0136,96.3254 44.2576,99.7966 50.3322,97.1932" stroke="#ffe500" stroke-width="2" /><polyline fill="none" points="52.9356,35.1458 61.6136,34.7119 65.9525,36.8814 64.6508,44.6915 53.3695,63.7831 64.6508,71.5932 66.3864,77.6678 65.5186,88.9492 72.0271,98.061" stroke="#7f0000" stroke-width="2" /></svg>