<?xml version="1.0" encoding="utf-8" ?>
<svg baseProfile="tiny" height="128" version="1.2" viewBox="0,0,128,128" width="128" xmlns="http://www.w3.org/2000/svg" xmlns:ev="http://www.w3.org/2001/xml-events" xmlns:xlink="http://www.w3.org/1999/xlink"><defs /><polyline fill="none" points="69.4237,12.1492 48.5966,8.678 31.6746,12.5831 22.9966,16.922 13.8847,23.4305 8.678,34.278 8.678,44.6915 10.8475,52.5017 25.6,85.478 39.9186,105.4373 47.7288,111.9458 55.9729,116.2847 72.461,119.322 78.1017,118.0203 85.478,113.6814 91.5525,105.4373 99.3627,90.6847 102.4,79.4034 101.5322,59.4441 95.4576,41.6542 75.0644,16.0542 64.6508,10.4136" stroke="#00007f" stroke-width="2" /><polyline fill="none" points="63.7831,9.9797 46.4271,16.922 39.0508,22.9966 23.8644,47.7288 20.3932,65.5186 21.6949,69.8576" stroke="#00d4ff" stroke-width="2" /><polyline fill="none" points="86.7797,34.7119 64.6508,52.0678 53.3695,65.5186 47.7288,77.6678 42.522,93.722 42.0881,96.7593 44.6915,107.1729" stroke="#ffe500" stroke-width="2" /><polyline fill="none" points="38.1831,10.8475 54.6712,18.2237 68.9898,28.2034 86.3458,51.2 95.0237,68.9898" stroke="#7f0000" stroke-width="2" /></svg>