<?xml version="1.0" encoding="utf-8" ?>
<svg baseProfile="tiny" height="128" version="1.2" viewBox="0,0,128,128" width="128" xmlns="http://www.w3.org/2000/svg" xmlns:ev="http://www.w3.org/2001/xml-events" xmlns:xlink="http://www.w3.org/1999/xlink"><defs /><polyline fill="none" points="22.1288,15.1864 14.7525,24.2983 11.7153,29.939 8.678,40.3525 9.1119,51.6339 19.0915,80.7051 26.9017,96.3254 36.0136,111.9458 42.9559,118.8881 50.7661,119.322 70.2915,109.3424 90.2508,95.8915 99.3627,85.0441 104.5695,75.4983 106.3051,66.8203 105.8712,60.7458 99.7966,49.0305 87.6475,32.9763 73.7627,22.5627 55.1051,16.922 40.7864,14.7525 18.2237,8.678" stroke="#00007f" stroke-width="2" /><polyline fill="none" points="20.3932,19.0915 29.5051,39.4847 35.5797,60.7458 35.5797,73.3288 24.2983,88.0814" stroke="#7cff79" stroke-width="2" /><polyline fill="none" points="80.7051,26.0339 72.461,59.0102 72.461,72.8949 82.0068,92.8542 88.5153,101.9661" stroke="#7f0000" stroke-width="2" /></svg>