<?xml version="1.0" encoding="utf-8" ?>
<svg baseProfile="tiny" height="128" version="1.2" viewBox="0,0,128,128" width="128" xmlns="http://www.w3.org/2000/svg" xmlns:ev="http://www.w3.org/2001/xml-events" xmlns:xlink="http://www.w3.org/1999/xlink"><defs /><polyline fill="none" points="80.9796,16.5442 74.449,12.1905 64.8707,10.449 57.4694,10.449 49.6327,13.0612 37.4422,23.5102 23.5102,43.5374 10.449,70.0952 8.7075,84.0272 8.7075,89.2517 11.7551,98.8299 14.8027,103.1837 23.0748,110.1497 39.1837,114.9388 60.517,115.8095 68.3537,114.5034 90.5578,105.7959 103.1837,97.9592 116.2449,83.1565 119.2925,73.5782 119.2925,57.9048 110.1497,39.1837 104.4898,30.9116 94.0408,21.3333 84.4626,15.6735 76.6259,13.932" stroke="#00007f" stroke-width="2" /><polyline fill="none" points="75.3197,10.0136 66.1769,23.9456 59.6463,42.6667 59.2109,57.4694 65.3061,74.449 70.0952,81.8503 79.6735,88.381 107.9728,89.6871 112.7619,87.5102" stroke="#7cff79" stroke-width="2" /><polyline fill="none" points="73.5782,8.7075 65.3061,21.3333 54.8571,52.6803 43.9728,71.8367 33.9592,80.9796 23.0748,86.6395 10.449,87.5102 8.7075,86.2041" stroke="#7f0000" stroke-width="2" /></svg>