<?xml version="1.0" encoding="utf-8" ?>
<svg baseProfile="tiny" height="128" version="1.2" viewBox="0,0,128,128" width="128" xmlns="http://www.w3.org/2000/svg" xmlns:ev="http://www.w3.org/2001/xml-events" xmlns:xlink="http://www.w3.org/1999/xlink"><defs /><polyline fill="none" points="87.5102,105.7959 87.5102,105.7959" stroke="#00007f" stroke-width="2" /><polyline fill="none" points="87.5102,105.7959 74.8844,107.9728 50.9388,107.102 33.5238,101.0068 23.0748,95.7823 17.415,88.8163 9.5782,72.2721 8.7075,59.2109 11.7551,50.9388 16.5442,43.9728 46.585,16.9796 60.9524,8.7075 69.6599,9.1429 89.6871,13.932 105.3605,21.3333 109.7143,25.2517 118.4218,44.4082 119.2925,59.2109 117.9864,72.7075 114.068,80.9796 103.619,92.2993 90.5578,102.3129 85.7687,104.4898" stroke="#0080ff" stroke-width="2" /><polyline fill="none" points="31.3469,33.9592 37.0068,39.1837 44.8435,48.7619 53.9864,68.3537 55.2925,74.8844 53.9864,87.5102 47.4558,98.8299" stroke="#7cff79" stroke-width="2" /><polyline fill="none" points="39.1837,91.8639 62.6939,94.9116" stroke="#ff9400" stroke-width="2" /><polyline fill="none" points="37.8776,78.8027 42.6667,80.5442 63.1293,80.9796" stroke="#7f0000" stroke-width="2" /></svg>