<?xml version="1.0" encoding="utf-8" ?>
<svg baseProfile="tiny" height="128" version="1.2" viewBox="0,0,128,128" width="128" xmlns="http://www.w3.org/2000/svg" xmlns:ev="http://www.w3.org/2001/xml-events" xmlns:xlink="http://www.w3.org/1999/xlink"><defs /><polyline fill="none" points="45.5593,17.3559 35.5797,19.9593 29.5051,24.7322 22.5627,32.1085 16.4881,42.0881 11.2814,54.2373 8.678,68.122 8.678,82.8746 13.4508,96.7593 22.5627,108.0407 31.2407,114.5492 40.7864,118.0203 51.2,118.0203 63.3492,112.8136 76.8,102.8339 92.4203,88.0814 105.4373,70.7254 114.5492,52.5017 118.8881,37.3153 119.322,25.6 117.1525,17.7898 112.8136,12.1492 106.739,10.4136 92.4203,8.678 79.4034,9.1119 67.6881,11.2814" stroke="#00007f" stroke-width="2" /><polyline fill="none" points="46.4271,16.922 49.8983,33.8441 49.8983,38.1831 46.4271,48.5966 41.2203,59.878 33.8441,70.2915 27.7695,77.2339 16.0542,84.1763" stroke="#7cff79" stroke-width="2" /><polyline fill="none" points="89.8169,11.2814 84.6102,19.0915 82.4407,24.7322 80.7051,49.0305 82.4407,57.2746 89.8169,70.7254 95.0237,75.0644 98.4949,75.4983 97.1932,70.2915" stroke="#7f0000" stroke-width="2" /></svg>