<?xml version="1.0" encoding="utf-8" ?>
<svg baseProfile="tiny" height="128" version="1.2" viewBox="0,0,128,128" width="128" xmlns="http://www.w3.org/2000/svg" xmlns:ev="http://www.w3.org/2001/xml-events" xmlns:xlink="http://www.w3.org/1999/xlink"><defs /><polyline fill="none" points="83.7424,10.4136 75.0644,9.9797 71.5932,10.8475 43.3898,21.261 35.5797,25.1661 25.6,32.1085 19.0915,40.3525 13.0169,51.2 10.8475,55.9729 8.678,70.2915 9.1119,96.7593 13.4508,105.8712 19.0915,112.8136 27.3356,116.7186 46.4271,119.322 56.8407,118.4542 73.3288,107.1729 82.0068,98.061 87.6475,89.3831 97.1932,63.7831 97.1932,45.9932 89.3831,24.7322 83.3085,13.8847 77.2339,8.678" stroke="#00007f" stroke-width="2" /><polyline fill="none" points="49.8983,20.8271 49.4644,53.3695 55.9729,117.5864" stroke="#0028ff" stroke-width="2" /><polyline fill="none" points="37.3153,37.7492 52.5017,38.1831 62.9153,40.3525" stroke="#00d4ff" stroke-width="2" /><polyline fill="none" points="40.7864,58.1424 58.1424,62.0475 61.1797,63.3492 62.0475,65.5186" stroke="#7cff79" stroke-width="2" /><polyline fill="none" points="46.4271,83.7424 49.0305,87.2136 58.1424,90.2508 55.9729,91.5525" stroke="#ffe500" stroke-width="2" /><polyline fill="none" points="43.3898,105.8712 47.2949,108.4746 54.2373,109.7763 63.3492,109.7763 67.6881,107.1729" stroke="#ff4600" stroke-width="2" /><polyline fill="none" points="68.9898,17.3559 69.4237,64.6508 72.0271,75.9322 77.2339,82.8746 85.9119,87.6475 91.1186,89.8169 99.3627,90.2508" stroke="#7f0000" stroke-width="2" /></svg>