<?xml version="1.0" encoding="utf-8" ?>
<svg baseProfile="tiny" height="128" version="1.2" viewBox="0,0,128,128" width="128" xmlns="http://www.w3.org/2000/svg" xmlns:ev="http://www.w3.org/2001/xml-events" xmlns:xlink="http://www.w3.org/1999/xlink"><defs /><polyline fill="none" points="50.3322,10.8475 45.9932,9.5458 32.5424,10.4136 21.261,20.3932 12.1492,34.7119 9.9797,42.0881 8.678,59.878 8.678,68.9898 10.4136,77.2339 17.7898,90.2508 31.2407,98.9288 47.7288,103.2678 65.5186,102.8339 74.6305,100.2305 82.8746,96.3254 89.8169,91.1186 101.5322,76.3661 105.0034,68.5559 108.0407,60.7458 108.4746,48.5966 103.2678,36.4475 84.1763,16.922 76.3661,12.5831 60.7458,8.678 45.5593,9.1119 38.1831,10.8475" stroke="#00007f" stroke-width="2" /><polyline fill="none" points="63.3492,12.1492 63.7831,23.8644 50.7661,44.2576 40.3525,53.8034 20.3932,67.6881" stroke="#0000d1" stroke-width="2" /><polyline fill="none" points="27.7695,49.0305 36.0136,63.7831" stroke="#0010ff" stroke-width="2" /><polyline fill="none" points="35.5797,45.9932 46.4271,58.1424" stroke="#0058ff" stroke-width="2" /><polyline fill="none" points="45.9932,34.7119 52.5017,42.9559" stroke="#00a4ff" stroke-width="2" /><polyline fill="none" points="51.6339,25.1661 54.6712,30.8068 60.3119,36.8814" stroke="#05ecf1" stroke-width="2" /><polyline fill="none" points="55.1051,12.1492 60.3119,13.4508 68.9898,23.8644" stroke="#3fffb7" stroke-width="2" /><polyline fill="none" points="18.6576,67.2542 10.8475,70.2915" stroke="#7cff79" stroke-width="2" /><polyline fill="none" points="48.5966,96.7593 52.5017,87.6475 73.7627,64.2169 86.7797,53.3695 100.6644,44.6915 106.739,42.9559 119.322,42.9559" stroke="#b7ff3f" stroke-width="2" /><polyline fill="none" points="51.2,79.8373 54.6712,82.4407 65.9525,96.7593" stroke="#f1fc05" stroke-width="2" /><polyline fill="none" points="62.4814,64.6508 69.8576,76.8" stroke="#ffb900" stroke-width="2" /><polyline fill="none" points="68.5559,55.9729 71.1593,57.7085 82.8746,72.8949" stroke="#ff7300" stroke-width="2" /><polyline fill="none" points="76.8,46.861 84.6102,62.4814" stroke="#ff3000" stroke-width="2" /><polyline fill="none" points="82.8746,37.7492 90.2508,47.2949" stroke="#d10000" stroke-width="2" /><polyline fill="none" points="91.9864,34.7119 96.3254,38.1831 98.9288,43.8237" stroke="#7f0000" stroke-width="2" /></svg>