<?xml version="1.0" encoding="utf-8" ?>
<svg baseProfile="tiny" height="128" version="1.2" viewBox="0,0,128,128" width="128" xmlns="http://www.w3.org/2000/svg" xmlns:ev="http://www.w3.org/2001/xml-events" xmlns:xlink="http://www.w3.org/1999/xlink"><defs /><polyline fill="none" points="15.1864,111.9458 16.922,111.5119 34.7119,95.4576 50.3322,77.2339 62.9153,65.0847 74.1966,45.9932 81.5729,40.7864 89.8169,39.0508 91.1186,42.0881 91.5525,55.539 88.9492,61.6136 86.3458,65.5186 74.6305,75.9322 52.9356,86.3458 24.7322,111.078 9.9797,119.322 8.678,115.8508 9.5458,114.5492 12.5831,112.8136 16.922,112.8136" stroke="#00007f" stroke-width="2" /><polyline fill="none" points="27.3356,8.678 19.5254,12.1492 13.0169,19.9593 12.5831,30.3729 14.7525,33.4102 25.6,38.6169 30.8068,38.6169 35.5797,37.3153 42.0881,30.8068 42.9559,29.0712 42.522,17.7898 35.1458,12.1492 29.5051,11.2814" stroke="#7f0000" stroke-width="2" /></svg>