<?xml version="1.0" encoding="utf-8" ?>
<svg baseProfile="tiny" height="128" version="1.2" viewBox="0,0,128,128" width="128" xmlns="http://www.w3.org/2000/svg" xmlns:ev="http://www.w3.org/2001/xml-events" xmlns:xlink="http://www.w3.org/1999/xlink"><defs /><polyline fill="none" points="32.4444,22.2222 30.6667,23.1111 17.7778,41.7778 8.8889,60.8889 8.8889,77.7778 10.6667,84.8889 14.6667,94.6667 22.2222,100.8889 27.1111,102.2222 55.1111,102.2222 65.3333,100.0 74.6667,96.0 92.8889,85.3333 98.2222,78.2222 103.1111,69.7778 104.8889,56.4444 104.8889,41.7778 100.4444,32.4444 88.4444,21.7778 74.2222,13.7778 61.3333,9.3333 43.5556,8.8889 29.3333,20.8889" stroke="#00007f" stroke-width="2" /><polyline fill="none" points="44.8889,10.6667 48.4444,25.3333 54.6667,66.6667 60.8889,119.1111" stroke="#7cff79" stroke-width="2" /><polyline fill="none" points="18.6667,41.7778 19.5556,48.4444 26.6667,51.5556 35.5556,52.8889 72.4444,52.8889 87.5556,46.6667 103.1111,35.1111 105.3333,32.4444 110.6667,16.0" stroke="#7f0000" stroke-width="2" /></svg>