<?xml version="1.0" encoding="utf-8" ?>
<svg baseProfile="tiny" height="128" version="1.2" viewBox="0,0,128,128" width="128" xmlns="http://www.w3.org/2000/svg" xmlns:ev="http://www.w3.org/2001/xml-events" xmlns:xlink="http://www.w3.org/1999/xlink"><defs /><polyline fill="none" points="35.5797,26.0339 30.3729,25.6 19.9593,30.8068 11.2814,38.6169 8.678,44.6915 9.1119,51.6339 15.6203,57.7085 20.3932,59.0102 33.4102,59.4441 39.4847,58.1424 42.522,55.9729 45.1254,49.4644 45.9932,40.7864 45.1254,37.3153 40.7864,31.2407 32.1085,26.4678" stroke="#00007f" stroke-width="2" /><polyline fill="none" points="30.3729,30.8068 34.7119,33.8441" stroke="#0000f1" stroke-width="2" /><polyline fill="none" points="35.1458,37.7492 36.0136,41.2203" stroke="#004cff" stroke-width="2" /><polyline fill="none" points="35.5797,42.0881 33.4102,45.5593" stroke="#00b0ff" stroke-width="2" /><polyline fill="none" points="33.4102,46.861 30.3729,50.7661" stroke="#29ffcd" stroke-width="2" /><polyline fill="none" points="26.4678,52.5017 26.4678,52.5017" stroke="#7cff79" stroke-width="2" /><polyline fill="none" points="26.0339,30.3729 19.9593,32.1085 17.7898,34.7119" stroke="#cdff29" stroke-width="2" /><polyline fill="none" points="16.0542,42.522 15.1864,46.4271" stroke="#ffc400" stroke-width="2" /><polyline fill="none" points="16.4881,48.1627 19.0915,49.4644" stroke="#ff6700" stroke-width="2" /><polyline fill="none" points="34.7119,71.1593 71.1593,48.1627 79.8373,39.4847 97.1932,16.922 103.2678,10.8475 107.6068,8.678 115.8508,14.7525 118.8881,21.261 119.322,35.5797 113.6814,49.4644 102.4,58.1424 88.0814,63.7831 72.461,64.2169 48.5966,68.5559" stroke="#f10700" stroke-width="2" /><polyline fill="none" points="34.278,68.9898 29.5051,69.4237 29.5051,72.0271 31.2407,72.8949" stroke="#7f0000" stroke-width="2" /></svg>