<?xml version="1.0" encoding="utf-8" ?>
<svg baseProfile="tiny" height="128" version="1.2" viewBox="0,0,128,128" width="128" xmlns="http://www.w3.org/2000/svg" xmlns:ev="http://www.w3.org/2001/xml-events" xmlns:xlink="http://www.w3.org/1999/xlink"><defs /><polyline fill="none" points="109.3424,13.0169 104.1356,9.9797 86.7797,8.678 72.0271,10.8475 51.6339,21.6949 32.1085,35.1458 20.3932,48.5966 12.1492,63.3492 8.678,78.1017 8.678,91.5525 12.1492,104.1356 21.261,114.5492 32.1085,118.8881 44.6915,119.322 92.8542,95.0237 104.5695,85.478 111.9458,75.9322 116.7186,67.2542 118.0203,61.1797 118.0203,54.6712 109.7763,26.0339 105.8712,19.5254" stroke="#00007f" stroke-width="2" /><polyline fill="none" points="106.3051,14.7525 94.1559,17.7898 85.478,26.0339 79.8373,34.278 78.5356,38.6169 79.4034,44.6915 92.4203,68.122 93.2881,72.0271 92.8542,82.0068 89.3831,88.9492 83.7424,94.1559 74.6305,95.4576 72.461,93.722" stroke="#7cff79" stroke-width="2" /><polyline fill="none" points="29.939,40.7864 24.2983,69.8576 25.1661,74.6305 35.1458,88.0814 35.1458,92.8542 34.278,97.1932 26.9017,106.3051 15.6203,115.4169" stroke="#7f0000" stroke-width="2" /></svg>