<?xml version="1.0" encoding="utf-8" ?>
<svg baseProfile="tiny" height="128" version="1.2" viewBox="0,0,128,128" width="128" xmlns="http://www.w3.org/2000/svg" xmlns:ev="http://www.w3.org/2001/xml-events" xmlns:xlink="http://www.w3.org/1999/xlink"><defs /><polyline fill="none" points="68.9898,19.0915 46.4271,19.0915 38.6169,19.9593 32.9763,22.1288 20.3932,32.9763 12.5831,44.6915 9.1119,55.1051 8.678,68.9898 18.2237,85.9119 29.0712,96.3254 34.278,99.3627 39.9186,101.9661 56.8407,104.1356 82.0068,104.1356 90.2508,102.8339 106.739,85.0441 116.7186,67.6881 119.322,58.5763 119.322,49.8983 114.1153,24.7322 109.7763,16.0542 103.2678,10.8475 97.6271,8.678 66.8203,10.4136 62.0475,15.6203" stroke="#00007f" stroke-width="2" /><polyline fill="none" points="49.4644,19.5254 55.9729,27.3356 59.878,36.4475 61.1797,58.1424 57.7085,71.5932 48.5966,88.9492 43.3898,96.3254 46.4271,91.9864" stroke="#00d4ff" stroke-width="2" /><polyline fill="none" points="78.5356,15.6203 99.7966,32.5424 100.2305,41.2203 91.9864,78.1017 90.6847,97.1932" stroke="#ffe500" stroke-width="2" /><polyline fill="none" points="85.9119,30.8068 91.9864,27.7695 96.7593,27.7695" stroke="#7f0000" stroke-width="2" /></svg>