<?xml version="1.0" encoding="utf-8" ?>
<svg baseProfile="tiny" height="128" version="1.2" viewBox="0,0,128,128" width="128" xmlns="http://www.w3.org/2000/svg" xmlns:ev="http://www.w3.org/2001/xml-events" xmlns:xlink="http://www.w3.org/1999/xlink"><defs /><polyline fill="none" points="26.9017,13.0169 21.6949,16.0542 13.8847,31.6746 8.678,49.0305 8.678,67.6881 13.0169,78.5356 19.5254,89.8169 28.6373,97.6271 39.9186,103.7017 50.3322,105.8712 82.4407,107.1729 93.2881,104.5695 102.4,100.2305 108.0407,92.4203 113.6814,73.7627 114.9831,62.0475 114.5492,45.9932 105.8712,30.3729 95.8915,21.261 85.0441,15.1864 68.9898,9.9797 59.878,8.678 17.3559,8.678 29.5051,10.4136 32.9763,13.4508 40.3525,25.6 53.8034,54.2373 57.2746,72.461 57.2746,103.7017" stroke="#00007f" stroke-width="2" /><polyline fill="none" points="87.6475,19.9593 84.6102,22.9966 74.6305,45.9932 68.9898,66.3864 68.9898,79.8373 72.8949,91.9864 76.3661,98.4949 92.4203,116.7186 96.7593,119.322 97.1932,117.5864" stroke="#7f0000" stroke-width="2" /></svg>