<?xml version="1.0" encoding="utf-8" ?>
<svg baseProfile="tiny" height="128" version="1.2" viewBox="0,0,128,128" width="128" xmlns="http://www.w3.org/2000/svg" xmlns:ev="http://www.w3.org/2001/xml-events" xmlns:xlink="http://www.w3.org/1999/xlink"><defs /><polyline fill="none" points="66.8203,16.0542 62.9153,9.5458 41.2203,8.678 36.8814,10.4136 26.9017,20.8271 17.3559,32.9763 10.8475,45.9932 8.678,60.3119 8.678,74.6305 10.8475,81.5729 19.5254,95.4576 26.0339,102.8339 32.9763,108.4746 42.0881,113.2475 51.6339,115.8508 68.5559,118.4542 79.4034,118.4542 88.5153,114.1153 113.2475,89.8169 118.4542,78.9695 119.322,55.539 112.8136,40.7864 108.4746,36.0136 88.0814,19.9593 73.3288,13.8847" stroke="#00007f" stroke-width="2" /><polyline fill="none" points="24.2983,21.6949 39.9186,21.261 47.7288,26.9017 51.6339,33.4102 49.4644,54.6712 52.9356,58.5763 60.3119,63.7831 67.2542,65.5186 73.3288,65.5186 82.4407,59.0102 87.2136,49.0305 87.6475,40.3525 88.9492,36.0136 97.1932,31.6746 105.0034,31.6746" stroke="#7cff79" stroke-width="2" /><polyline fill="none" points="20.3932,90.6847 20.3932,80.2712 23.8644,75.4983 31.2407,71.5932 41.2203,70.7254" stroke="#7f0000" stroke-width="2" /></svg>