<?xml version="1.0" encoding="utf-8" ?>
<svg baseProfile="tiny" height="128" version="1.2" viewBox="0,0,128,128" width="128" xmlns="http://www.w3.org/2000/svg" xmlns:ev="http://www.w3.org/2001/xml-events" xmlns:xlink="http://www.w3.org/1999/xlink"><defs /><polyline fill="none" points="80.9796,30.0408 79.6735,26.9932 76.1905,24.381 63.1293,21.3333 47.4558,22.6395 32.6531,29.6054 17.8503,42.6667 11.7551,54.4218 8.7075,67.483 8.7075,80.1088 14.8027,98.8299 20.4626,106.2313 33.5238,114.9388 47.8912,119.2925 63.1293,119.2925 70.966,117.551 84.898,108.8435 93.6054,99.7007 100.5714,87.0748 105.7959,64.8707 106.2313,55.7279 104.0544,37.8776 97.9592,25.6871 87.9456,14.8027 79.2381,11.3197" stroke="#00007f" stroke-width="2" /><polyline fill="none" points="40.9252,25.2517 51.8095,35.7007 57.034,44.4082 59.2109,57.9048 59.2109,75.3197 56.1633,89.6871 50.9388,98.8299 42.2313,107.9728 29.1701,115.8095" stroke="#0080ff" stroke-width="2" /><polyline fill="none" points="85.3333,8.7075 82.2857,11.7551 76.1905,24.381 71.8367,41.3605 70.5306,64.8707 72.2721,80.5442 77.4966,89.6871 86.2041,94.4762 97.5238,95.3469 102.3129,94.0408 107.5374,87.9456" stroke="#7cff79" stroke-width="2" /><polyline fill="none" points="63.1293,10.449 60.0816,14.3673 60.0816,19.1565 65.7415,46.1497 68.7891,88.8163 68.3537,105.3605 65.7415,105.3605" stroke="#ff9400" stroke-width="2" /><polyline fill="none" points="12.6259,67.0476 16.5442,71.4014 26.5578,77.932 30.4762,80.1088 39.1837,80.9796 58.7755,77.4966 85.3333,66.1769" stroke="#7f0000" stroke-width="2" /></svg>