<?xml version="1.0" encoding="utf-8" ?>
<svg baseProfile="tiny" height="128" version="1.2" viewBox="0,0,128,128" width="128" xmlns="http://www.w3.org/2000/svg" xmlns:ev="http://www.w3.org/2001/xml-events" xmlns:xlink="http://www.w3.org/1999/xlink"><defs /><polyline fill="none" points="78.1017,8.678 59.878,9.5458 50.3322,12.1492 42.9559,15.1864 26.9017,29.5051 19.5254,40.3525 14.3186,50.7661 9.9797,63.3492 8.678,82.4407 14.7525,95.4576 23.8644,105.8712 31.2407,111.9458 43.8237,117.5864 52.5017,119.322 65.5186,119.322 77.6678,116.2847 89.3831,111.078 99.3627,104.1356 108.0407,94.5898 113.2475,85.0441 117.1525,72.8949 118.4542,63.7831 118.4542,45.5593 112.3797,30.3729 104.5695,20.3932 94.1559,13.4508 81.139,11.7153" stroke="#00007f" stroke-width="2" /><polyline fill="none" points="103.2678,24.2983 93.722,29.939 85.9119,39.9186 84.1763,44.6915 83.7424,56.8407 84.1763,62.4814 90.6847,75.0644 100.2305,82.8746 105.8712,83.3085" stroke="#7cff79" stroke-width="2" /><polyline fill="none" points="17.7898,32.9763 42.0881,52.5017 45.5593,57.7085 47.2949,62.9153 47.2949,65.5186 45.1254,68.122 29.0712,80.2712 24.2983,85.478" stroke="#7f0000" stroke-width="2" /></svg>