<?xml version="1.0" encoding="utf-8" ?>
<svg baseProfile="tiny" height="128" version="1.2" viewBox="0,0,128,128" width="128" xmlns="http://www.w3.org/2000/svg" xmlns:ev="http://www.w3.org/2001/xml-events" xmlns:xlink="http://www.w3.org/1999/xlink"><defs /><polyline fill="none" points="11.2814,19.0915 18.6576,13.0169 30.8068,8.678 47.2949,8.678 57.7085,13.0169 63.7831,22.5627 63.3492,37.3153 55.9729,51.6339 52.5017,54.2373 45.5593,56.8407 19.5254,58.1424 11.2814,49.8983 8.678,42.0881 9.1119,27.7695 13.8847,20.8271 24.7322,16.0542" stroke="#00007f" stroke-width="2" /><polyline fill="none" points="18.2237,17.7898 24.7322,26.4678" stroke="#0000de" stroke-width="2" /><polyline fill="none" points="26.9017,23.8644 30.8068,31.2407" stroke="#0028ff" stroke-width="2" /><polyline fill="none" points="31.2407,34.278 30.3729,44.6915" stroke="#0080ff" stroke-width="2" /><polyline fill="none" points="31.6746,38.1831 26.4678,47.7288" stroke="#00d4ff" stroke-width="2" /><polyline fill="none" points="32.1085,47.7288 29.5051,49.8983 29.5051,53.3695" stroke="#36ffc0" stroke-width="2" /><polyline fill="none" points="60.7458,16.0542 56.4068,18.2237 53.8034,23.8644" stroke="#7cff79" stroke-width="2" /><polyline fill="none" points="53.8034,22.5627 49.4644,25.6 48.5966,31.2407" stroke="#c0ff36" stroke-width="2" /><polyline fill="none" points="49.4644,39.4847 48.5966,46.4271 52.0678,49.4644" stroke="#ffe500" stroke-width="2" /><polyline fill="none" points="53.8034,49.8983 55.9729,57.7085" stroke="#ff9400" stroke-width="2" /><polyline fill="none" points="73.7627,56.4068 85.0441,71.1593 104.1356,87.2136" stroke="#ff4600" stroke-width="2" /><polyline fill="none" points="87.2136,42.0881 119.322,68.9898" stroke="#de0000" stroke-width="2" /><polyline fill="none" points="71.5932,77.2339 94.1559,99.3627" stroke="#7f0000" stroke-width="2" /></svg>