<?xml version="1.0" encoding="utf-8" ?>
<svg baseProfile="tiny" height="128" version="1.2" viewBox="0,0,128,128" width="128" xmlns="http://www.w3.org/2000/svg" xmlns:ev="http://www.w3.org/2001/xml-events" xmlns:xlink="http://www.w3.org/1999/xlink"><defs /><polyline fill="none" points="69.4237,8.678 65.9525,8.678 57.7085,12.1492 46.4271,18.6576 26.4678,27.3356 16.4881,33.8441 10.8475,40.7864 8.678,46.4271 9.1119,63.3492 17.7898,88.9492 24.7322,96.7593 36.8814,105.4373 54.6712,113.6814 67.2542,117.5864 78.5356,119.322 88.5153,119.322 94.1559,117.5864 100.2305,111.5119 104.1356,99.3627 104.5695,70.2915 103.2678,63.7831 94.5898,51.6339 85.9119,42.522 66.3864,25.6 53.8034,19.0915" stroke="#00007f" stroke-width="2" /><polyline fill="none" points="40.3525,29.939 61.1797,77.6678 70.2915,108.0407" stroke="#00d4ff" stroke-width="2" /><polyline fill="none" points="38.6169,53.8034 61.6136,43.3898" stroke="#ffe500" stroke-width="2" /><polyline fill="none" points="63.7831,82.0068 74.1966,74.1966" stroke="#7f0000" stroke-width="2" /></svg>