<?xml version="1.0" encoding="utf-8" ?>
<svg baseProfile="tiny" height="128" version="1.2" viewBox="0,0,128,128" width="128" xmlns="http://www.w3.org/2000/svg" xmlns:ev="http://www.w3.org/2001/xml-events" xmlns:xlink="http://www.w3.org/1999/xlink"><defs /><polyline fill="none" points="64.6508,8.678 52.0678,12.1492 34.7119,19.9593 19.9593,32.1085 13.8847,39.0508 9.5458,47.2949 8.678,67.2542 10.4136,74.6305 28.6373,95.0237 54.6712,108.0407 65.0847,111.5119 89.3831,111.5119 102.4,103.7017 113.2475,90.6847 117.5864,75.4983 119.322,51.2 119.322,36.8814 116.7186,31.2407 108.9085,22.5627 98.061,18.2237 89.8169,14.7525 75.0644,13.8847 70.7254,12.1492" stroke="#00007f" stroke-width="2" /><polyline fill="none" points="68.122,10.4136 69.8576,14.7525 68.122,24.2983 47.2949,54.6712 41.6542,66.3864 40.7864,99.3627 42.9559,105.4373 47.7288,108.9085" stroke="#00d4ff" stroke-width="2" /><polyline fill="none" points="100.2305,21.6949 81.139,74.1966 78.5356,89.8169 79.4034,101.5322 84.1763,104.5695 103.2678,105.4373 117.5864,101.0983" stroke="#ffe500" stroke-width="2" /><polyline fill="none" points="47.7288,13.8847 39.9186,19.9593 28.6373,38.6169 23.4305,55.1051 22.5627,72.0271 24.2983,79.4034 29.5051,84.6102 42.522,89.8169 50.3322,89.8169" stroke="#7f0000" stroke-width="2" /></svg>