<?xml version="1.0" encoding="utf-8" ?>
<svg baseProfile="tiny" height="128" version="1.2" viewBox="0,0,128,128" width="128" xmlns="http://www.w3.org/2000/svg" xmlns:ev="http://www.w3.org/2001/xml-events" xmlns:xlink="http://www.w3.org/1999/xlink"><defs /><polyline fill="none" points="82.8746,15.1864 79.8373,10.8475 72.8949,8.678 58.1424,11.2814 37.3153,23.4305 22.9966,35.1458 10.4136,51.6339 8.678,64.6508 9.1119,89.3831 10.4136,96.7593 15.6203,108.0407 23.4305,115.4169 32.9763,119.322 50.3322,118.8881 62.0475,112.3797 78.1017,97.6271 90.6847,79.8373 94.5898,70.2915 96.7593,59.4441 96.3254,47.7288 91.5525,35.5797 80.2712,15.6203" stroke="#00007f" stroke-width="2" /><polyline fill="none" points="90.6847,28.2034 87.6475,30.3729 75.0644,73.7627 72.0271,95.4576 72.461,106.739 73.3288,112.3797 74.6305,112.8136" stroke="#00d4ff" stroke-width="2" /><polyline fill="none" points="56.8407,22.9966 55.1051,26.4678 59.4441,47.2949 58.5763,80.2712 54.2373,91.5525 45.5593,106.739 36.4475,110.6441" stroke="#ffe500" stroke-width="2" /><polyline fill="none" points="67.6881,75.9322 65.9525,78.5356 68.122,73.3288 68.122,68.5559 65.0847,67.6881 64.6508,72.8949" stroke="#7f0000" stroke-width="2" /></svg>