<?xml version="1.0" encoding="utf-8" ?>
<svg baseProfile="tiny" height="128" version="1.2" viewBox="0,0,128,128" width="128" xmlns="http://www.w3.org/2000/svg" xmlns:ev="http://www.w3.org/2001/xml-events" xmlns:xlink="http://www.w3.org/1999/xlink"><defs /><polyline fill="none" points="91.5525,17.3559 90.6847,20.3932 39.4847,52.0678 19.0915,68.122 11.7153,80.7051 8.678,94.5898 8.678,103.7017 12.1492,111.078 15.6203,114.1153 24.2983,117.5864 41.2203,119.322 58.5763,118.8881 65.0847,117.5864 78.5356,112.8136 99.7966,100.6644 111.5119,88.0814 116.2847,77.2339 115.8508,62.9153 95.0237,36.8814 82.8746,16.0542 75.9322,8.678" stroke="#00007f" stroke-width="2" /><polyline fill="none" points="73.3288,29.5051 73.3288,62.4814 76.8,77.2339 85.478,92.4203 96.7593,100.6644" stroke="#004cff" stroke-width="2" /><polyline fill="none" points="37.3153,56.4068 36.8814,61.1797 38.6169,65.0847 42.522,72.8949 52.0678,84.1763 56.8407,98.061 57.7085,110.6441 55.1051,114.9831 52.9356,116.2847 52.0678,114.9831" stroke="#29ffcd" stroke-width="2" /><polyline fill="none" points="34.7119,73.3288 41.2203,72.0271 59.0102,64.2169" stroke="#cdff29" stroke-width="2" /><polyline fill="none" points="38.6169,88.9492 45.9932,88.9492 65.0847,83.3085" stroke="#ff6700" stroke-width="2" /><polyline fill="none" points="40.3525,114.9831 40.3525,114.9831" stroke="#7f0000" stroke-width="2" /></svg>