<?xml version="1.0" encoding="utf-8" ?>
<svg baseProfile="tiny" height="128" version="1.2" viewBox="0,0,128,128" width="128" xmlns="http://www.w3.org/2000/svg" xmlns:ev="http://www.w3.org/2001/xml-events" xmlns:xlink="http://www.w3.org/1999/xlink"><defs /><polyline fill="none" points="87.0748,11.7551 56.5986,11.3197 40.4898,18.2857 23.0748,31.3469 16.5442,39.619 8.7075,56.1633 8.7075,77.0612 13.4966,86.2041 26.1224,95.7823 44.8435,104.0544 60.9524,107.102 87.5102,107.102 96.2177,103.619 107.9728,95.7823 114.5034,87.5102 119.2925,71.4014 119.2925,55.2925 113.1973,41.3605 112.3265,35.2653 107.5374,27.4286 100.1361,20.0272 86.6395,13.4966" stroke="#00007f" stroke-width="2" /><polyline fill="none" points="57.034,14.3673 55.7279,34.8299 46.1497,60.517 35.2653,77.0612 27.4286,84.0272 23.0748,86.2041" stroke="#0028ff" stroke-width="2" /><polyline fill="none" points="29.6054,48.3265 64.0,48.3265" stroke="#00d4ff" stroke-width="2" /><polyline fill="none" points="31.7823,66.1769 56.1633,64.8707" stroke="#7cff79" stroke-width="2" /><polyline fill="none" points="84.0272,8.7075 78.3673,38.3129 77.4966,68.7891 79.6735,77.4966 91.4286,96.6531" stroke="#ffe500" stroke-width="2" /><polyline fill="none" points="72.7075,49.6327 94.0408,49.6327" stroke="#ff4600" stroke-width="2" /><polyline fill="none" points="74.449,73.1429 91.8639,70.5306" stroke="#7f0000" stroke-width="2" /></svg>