<?xml version="1.0" encoding="utf-8" ?>
<svg baseProfile="tiny" height="128" version="1.2" viewBox="0,0,128,128" width="128" xmlns="http://www.w3.org/2000/svg" xmlns:ev="http://www.w3.org/2001/xml-events" xmlns:xlink="http://www.w3.org/1999/xlink"><defs /><polyline fill="none" points="91.5525,16.922 82.8746,12.1492 69.4237,8.678 48.1627,11.2814 26.4678,28.2034 17.7898,37.3153 11.7153,47.7288 8.678,60.7458 8.678,70.7254 10.4136,81.139 15.1864,91.9864 21.261,100.6644 29.939,106.3051 52.5017,114.1153 64.6508,113.6814 75.0644,111.9458 86.3458,107.6068 96.3254,100.6644 110.2102,86.7797 114.9831,78.9695 118.0203,68.122 119.322,38.1831 118.4542,33.4102 111.078,22.5627 99.3627,13.8847 83.7424,11.2814 68.9898,14.3186" stroke="#00007f" stroke-width="2" /><polyline fill="none" points="23.8644,33.8441 32.1085,33.8441 35.1458,35.5797 36.4475,39.0508 33.4102,62.0475 35.1458,69.4237 45.9932,77.6678 50.3322,82.4407 51.6339,89.3831 51.2,114.5492 53.8034,118.0203" stroke="#7cff79" stroke-width="2" /><polyline fill="none" points="79.4034,11.2814 72.0271,37.7492 72.461,43.3898 76.3661,49.0305 88.5153,58.5763 91.1186,68.9898 90.6847,87.6475 93.2881,93.2881 102.4,103.2678" stroke="#7f0000" stroke-width="2" /></svg>