<?xml version="1.0" encoding="utf-8" ?>
<svg baseProfile="tiny" height="128" version="1.2" viewBox="0,0,128,128" width="128" xmlns="http://www.w3.org/2000/svg" xmlns:ev="http://www.w3.org/2001/xml-events" xmlns:xlink="http://www.w3.org/1999/xlink"><defs /><polyline fill="none" points="90.2508,92.4203 78.5356,95.0237 46.861,95.0237 25.1661,91.9864 16.4881,88.9492 12.1492,83.3085 9.5458,78.1017 8.678,43.8237 11.7153,35.5797 19.5254,22.1288 26.0339,16.922 39.4847,11.7153 59.4441,8.678 85.0441,8.678 104.5695,13.4508 112.8136,19.5254 117.5864,27.7695 119.322,36.8814 118.8881,51.2 114.1153,69.4237 108.9085,79.8373 105.0034,84.6102 95.8915,90.6847 91.9864,92.8542 88.0814,91.1186" stroke="#00007f" stroke-width="2" /><polyline fill="none" points="43.3898,15.6203 32.9763,88.5153" stroke="#7cff79" stroke-width="2" /><polyline fill="none" points="85.478,10.4136 75.9322,73.7627 75.0644,88.5153" stroke="#7f0000" stroke-width="2" /></svg>