<?xml version="1.0" encoding="utf-8" ?>
<svg baseProfile="tiny" height="128" version="1.2" viewBox="0,0,128,128" width="128" xmlns="http://www.w3.org/2000/svg" xmlns:ev="http://www.w3.org/2001/xml-events" xmlns:xlink="http://www.w3.org/1999/xlink"><defs /><polyline fill="none" points="15.6203,81.5729 10.4136,82.4407 8.678,84.6102 9.5458,87.2136 14.3186,91.1186 21.6949,92.8542 32.1085,90.2508 31.6746,86.7797 26.4678,82.0068 26.4678,78.5356 28.6373,76.3661 35.5797,59.878 56.8407,35.1458 65.9525,15.1864 64.2169,12.5831 56.8407,8.678 44.2576,9.1119 36.4475,14.3186 31.6746,21.6949 24.2983,47.7288 15.6203,62.4814 13.4508,72.8949 15.1864,81.5729" stroke="#00007f" stroke-width="2" /><polyline fill="none" points="107.6068,38.6169 101.5322,36.0136 85.9119,35.1458 72.0271,42.0881 64.6508,50.7661 59.878,59.878 57.2746,68.122 57.7085,81.5729 63.3492,91.5525 79.4034,94.5898 88.0814,93.2881 103.7017,85.0441 108.4746,81.139 113.6814,75.9322 116.7186,70.2915 119.322,48.1627 114.9831,41.6542 107.1729,37.7492" stroke="#7f0000" stroke-width="2" /></svg>