<?xml version="1.0" encoding="utf-8" ?>
<svg baseProfile="tiny" height="128" version="1.2" viewBox="0,0,128,128" width="128" xmlns="http://www.w3.org/2000/svg" xmlns:ev="http://www.w3.org/2001/xml-events" xmlns:xlink="http://www.w3.org/1999/xlink"><defs /><polyline fill="none" points="67.2542,9.5458 52.9356,8.678 42.522,10.4136 36.0136,14.3186 24.2983,25.6 17.7898,34.7119 10.8475,50.7661 8.678,58.5763 8.678,70.2915 9.9797,76.3661 15.1864,85.9119 21.261,92.4203 29.5051,98.4949 41.2203,101.9661 72.8949,102.8339 88.5153,98.9288 98.9288,93.2881 108.9085,84.6102 114.9831,76.8 117.5864,69.4237 119.322,62.0475 119.322,50.7661 114.1153,36.0136 107.6068,28.6373 85.9119,16.922 64.6508,9.9797" stroke="#00007f" stroke-width="2" /><polyline fill="none" points="90.2508,19.9593 85.0441,29.0712 80.7051,39.9186 75.0644,79.4034 75.0644,98.4949 78.1017,107.6068 81.5729,109.7763" stroke="#7cff79" stroke-width="2" /><polyline fill="none" points="43.3898,10.8475 45.1254,28.2034 45.1254,48.1627 43.3898,60.7458 39.9186,72.8949 33.4102,87.2136 26.9017,94.5898" stroke="#7f0000" stroke-width="2" /></svg>