<?xml version="1.0" encoding="utf-8" ?>
<svg baseProfile="tiny" height="128" version="1.2" viewBox="0,0,128,128" width="128" xmlns="http://www.w3.org/2000/svg" xmlns:ev="http://www.w3.org/2001/xml-events" xmlns:xlink="http://www.w3.org/1999/xlink"><defs /><polyline fill="none" points="26.9017,34.7119 13.4508,52.9356 8.678,68.5559 8.678,91.9864 13.8847,100.2305 33.8441,111.5119 49.8983,114.9831 66.3864,116.2847 93.722,115.4169 98.9288,112.8136 108.0407,103.7017 113.6814,93.722 116.7186,84.1763 119.322,70.7254 119.322,51.2 117.5864,45.1254 111.078,33.8441 101.9661,23.4305 93.722,16.922 78.5356,9.5458 62.4814,8.678 53.3695,10.4136 41.2203,17.3559 34.278,22.5627 32.9763,26.0339" stroke="#00007f" stroke-width="2" /><polyline fill="none" points="77.2339,21.261 76.8,33.4102 72.461,49.4644 67.2542,83.7424 67.2542,99.7966 67.6881,102.8339 69.8576,103.2678" stroke="#004cff" stroke-width="2" /><polyline fill="none" points="37.7492,16.4881 42.0881,19.5254 49.4644,33.4102 49.8983,56.4068 49.4644,62.9153 42.9559,78.5356 32.9763,98.9288" stroke="#29ffcd" stroke-width="2" /><polyline fill="none" points="90.6847,17.7898 90.6847,17.7898" stroke="#cdff29" stroke-width="2" /><polyline fill="none" points="72.461,39.0508 68.5559,49.8983 66.3864,64.6508" stroke="#ff6700" stroke-width="2" /><polyline fill="none" points="69.8576,106.739 81.139,112.8136" stroke="#7f0000" stroke-width="2" /></svg>