<?xml version="1.0" encoding="utf-8" ?>
<svg baseProfile="tiny" height="128" version="1.2" viewBox="0,0,128,128" width="128" xmlns="http://www.w3.org/2000/svg" xmlns:ev="http://www.w3.org/2001/xml-events" xmlns:xlink="http://www.w3.org/1999/xlink"><defs /><polyline fill="none" points="29.5051,15.1864 20.8271,19.9593 12.1492,32.5424 8.678,41.6542 8.678,50.7661 12.5831,60.3119 22.9966,74.6305 42.522,95.0237 49.8983,100.6644 68.122,111.078 75.9322,109.7763 99.3627,95.8915 108.9085,86.7797 117.5864,74.1966 119.322,69.8576 119.322,57.7085 116.2847,48.5966 99.3627,30.3729 82.8746,17.3559 67.2542,9.5458 58.1424,8.678 34.7119,15.6203 28.2034,19.0915" stroke="#00007f" stroke-width="2" /><polyline fill="none" points="16.922,31.2407 36.0136,41.6542 61.1797,64.6508 69.8576,80.2712 72.461,89.3831 72.461,98.9288" stroke="#7cff79" stroke-width="2" /><polyline fill="none" points="61.1797,13.4508 65.0847,21.6949 75.9322,35.5797 92.4203,49.8983 101.5322,54.6712 116.2847,65.9525" stroke="#7f0000" stroke-width="2" /></svg>