<?xml version="1.0" encoding="utf-8" ?>
<svg baseProfile="tiny" height="128" version="1.2" viewBox="0,0,128,128" width="128" xmlns="http://www.w3.org/2000/svg" xmlns:ev="http://www.w3.org/2001/xml-events" xmlns:xlink="http://www.w3.org/1999/xlink"><defs /><polyline fill="none" points="71.8367,61.8231 46.1497,36.5714 21.7687,17.415 16.9796,15.6735 12.1905,15.6735 8.7075,18.2857 9.1429,21.7687 15.2381,30.4762 59.2109,68.7891 67.0476,74.8844 74.449,76.6259 77.932,79.6735 87.9456,91.4286 87.5102,94.4762 85.3333,98.3946 86.6395,100.5714 90.1224,100.1361 94.4762,95.7823 98.3946,86.2041 99.7007,75.3197 86.6395,74.8844 80.5442,71.8367 65.7415,57.9048" stroke="#00007f" stroke-width="2" /><polyline fill="none" points="107.5374,11.3197 95.7823,8.7075 84.898,10.8844 79.6735,17.415 78.3673,25.6871 81.8503,37.0068 87.9456,43.9728 97.5238,47.0204 107.102,45.2789 115.8095,37.8776 119.2925,30.0408 117.9864,18.2857 111.0204,9.5782" stroke="#7f0000" stroke-width="2" /></svg>