<?xml version="1.0" encoding="utf-8" ?>
<svg baseProfile="tiny" height="128" version="1.2" viewBox="0,0,128,128" width="128" xmlns="http://www.w3.org/2000/svg" xmlns:ev="http://www.w3.org/2001/xml-events" xmlns:xlink="http://www.w3.org/1999/xlink"><defs /><polyline fill="none" points="79.4034,26.4678 77.6678,21.6949 67.2542,11.2814 60.3119,8.678 49.0305,9.1119 37.3153,14.7525 24.7322,23.4305 10.8475,47.2949 8.678,61.1797 9.9797,78.9695 13.8847,91.1186 20.3932,101.5322 25.6,106.3051 33.8441,109.7763 41.6542,111.078 56.4068,110.2102 69.4237,106.3051 85.0441,95.8915 89.3831,91.5525 94.1559,82.8746 95.4576,65.0847 91.9864,47.7288 90.2508,42.9559 79.8373,28.2034 77.6678,26.9017" stroke="#00007f" stroke-width="2" /><polyline fill="none" points="23.4305,30.8068 29.939,33.4102 40.3525,40.7864 51.2,68.122 50.7661,99.3627 46.861,111.9458 47.2949,119.322" stroke="#0028ff" stroke-width="2" /><polyline fill="none" points="57.2746,22.1288 59.878,29.939 65.5186,63.3492 69.4237,74.1966 82.0068,90.6847 91.1186,92.8542 94.5898,91.9864" stroke="#00d4ff" stroke-width="2" /><polyline fill="none" points="29.939,38.6169 40.7864,30.8068" stroke="#7cff79" stroke-width="2" /><polyline fill="none" points="44.6915,55.1051 52.5017,53.3695" stroke="#ffe500" stroke-width="2" /><polyline fill="none" points="52.5017,82.8746 57.7085,81.5729" stroke="#ff4600" stroke-width="2" /><polyline fill="none" points="49.4644,105.4373 49.4644,105.4373" stroke="#7f0000" stroke-width="2" /></svg>