<?xml version="1.0" encoding="utf-8" ?>
<svg baseProfile="tiny" height="128" version="1.2" viewBox="0,0,128,128" width="128" xmlns="http://www.w3.org/2000/svg" xmlns:ev="http://www.w3.org/2001/xml-events" xmlns:xlink="http://www.w3.org/1999/xlink"><defs /><polyline fill="none" points="40.7864,112.8136 35.1458,113.6814 24.2983,108.0407 16.0542,96.3254 10.8475,83.3085 8.678,69.8576 8.678,55.9729 11.2814,44.2576 16.4881,34.7119 33.4102,20.8271 54.2373,13.4508 69.4237,13.0169 87.6475,18.2237 99.7966,26.9017 107.1729,36.4475 112.3797,49.0305 112.8136,52.0678" stroke="#00007f" stroke-width="2" /><polyline fill="none" points="114.5492,64.6508 114.5492,75.0644 110.6441,88.5153 107.6068,93.722 94.1559,107.6068 78.9695,116.2847 64.6508,119.322 46.4271,117.5864 35.1458,113.6814 26.0339,107.1729" stroke="#0000fe" stroke-width="2" /><polyline fill="none" points="33.4102,22.1288 39.0508,31.6746 39.0508,35.1458 36.8814,36.0136" stroke="#0060ff" stroke-width="2" /><polyline fill="none" points="36.8814,39.9186 39.0508,43.3898 39.0508,53.8034 35.1458,55.9729" stroke="#00d4ff" stroke-width="2" /><polyline fill="none" points="35.5797,56.4068 35.5797,65.5186 32.1085,72.8949 29.5051,75.0644" stroke="#4cffaa" stroke-width="2" /><polyline fill="none" points="30.3729,75.4983 29.5051,80.7051 26.4678,86.3458 21.261,89.8169 18.2237,89.8169" stroke="#aaff4c" stroke-width="2" /><polyline fill="none" points="27.7695,85.478 25.6,88.0814 23.8644,88.0814" stroke="#ffe500" stroke-width="2" /><polyline fill="none" points="76.8,8.678 73.7627,11.2814 71.1593,19.0915 70.2915,29.5051 71.1593,47.2949 74.6305,63.3492 78.5356,72.0271 92.4203,90.6847 95.8915,90.6847 105.0034,82.4407" stroke="#ff7a00" stroke-width="2" /><polyline fill="none" points="112.8136,44.6915 112.8136,45.1254" stroke="#fe1200" stroke-width="2" /><polyline fill="none" points="112.8136,44.6915 112.8136,60.7458 110.6441,66.3864" stroke="#7f0000" stroke-width="2" /></svg>