<?xml version="1.0" encoding="utf-8" ?>
<svg baseProfile="tiny" height="128" version="1.2" viewBox="0,0,128,128" width="128" xmlns="http://www.w3.org/2000/svg" xmlns:ev="http://www.w3.org/2001/xml-events" xmlns:xlink="http://www.w3.org/1999/xlink"><defs /><polyline fill="none" points="49.0305,9.9797 41.2203,11.7153 32.9763,17.7898 26.4678,24.7322 15.6203,42.522 10.8475,56.8407 8.678,72.0271 11.2814,95.0237 19.5254,108.9085 31.6746,117.1525 42.522,119.322 56.8407,118.0203 68.9898,112.8136 84.1763,101.9661 97.6271,86.7797 102.8339,77.6678 107.1729,64.6508 108.0407,56.4068 105.4373,42.522 101.9661,36.8814 90.6847,24.2983 80.7051,16.0542 67.2542,11.2814 52.0678,9.9797 48.5966,8.678" stroke="#00007f" stroke-width="2" /><polyline fill="none" points="31.6746,27.7695 40.3525,36.8814 45.9932,46.861 48.5966,54.6712 49.0305,70.2915 45.9932,82.8746 39.9186,95.0237 36.0136,101.5322 25.6,111.9458" stroke="#7cff79" stroke-width="2" /><polyline fill="none" points="90.2508,19.5254 80.2712,32.9763 69.8576,57.2746 69.8576,66.8203 71.5932,74.6305 78.9695,94.5898 82.8746,99.3627" stroke="#7f0000" stroke-width="2" /></svg>