<?xml version="1.0" encoding="utf-8" ?>
<svg baseProfile="tiny" height="128" version="1.2" viewBox="0,0,128,128" width="128" xmlns="http://www.w3.org/2000/svg" xmlns:ev="http://www.w3.org/2001/xml-events" xmlns:xlink="http://www.w3.org/1999/xlink"><defs /><polyline fill="none" points="43.3898,43.3898 30.8068,39.0508 20.3932,38.1831 15.1864,41.2203 11.2814,47.2949 8.678,53.8034 9.5458,67.6881 14.3186,76.8 21.261,81.139 25.6,81.139 35.1458,76.8 42.0881,69.4237 46.4271,57.7085 43.8237,52.0678 35.1458,42.522 25.1661,39.0508 21.261,39.0508 18.6576,40.7864" stroke="#00007f" stroke-width="2" /><polyline fill="none" points="9.1119,48.1627 10.8475,50.3322" stroke="#0000ba" stroke-width="2" /><polyline fill="none" points="15.1864,55.1051 16.922,58.1424" stroke="#0000f5" stroke-width="2" /><polyline fill="none" points="18.6576,63.3492 19.9593,65.9525" stroke="#0020ff" stroke-width="2" /><polyline fill="none" points="23.8644,77.2339 24.2983,78.5356" stroke="#0054ff" stroke-width="2" /><polyline fill="none" points="25.1661,40.3525 31.6746,50.3322" stroke="#008cff" stroke-width="2" /><polyline fill="none" points="33.8441,54.6712 34.7119,57.7085" stroke="#00c0ff" stroke-width="2" /><polyline fill="none" points="36.0136,60.7458 36.4475,62.0475" stroke="#0ff8e7" stroke-width="2" /><polyline fill="none" points="36.8814,64.6508 36.8814,65.5186" stroke="#39ffbd" stroke-width="2" /><polyline fill="none" points="37.3153,66.8203 37.7492,68.122" stroke="#66ff90" stroke-width="2" /><polyline fill="none" points="37.7492,69.4237 38.1831,70.2915" stroke="#90ff66" stroke-width="2" /><polyline fill="none" points="38.1831,71.5932 38.6169,73.3288" stroke="#bdff39" stroke-width="2" /><polyline fill="none" points="98.9288,105.0034 96.3254,108.9085 96.7593,114.5492 100.6644,116.7186 108.0407,117.1525 111.5119,116.2847 117.1525,112.3797 119.322,108.0407 118.8881,104.1356 109.3424,94.5898 95.0237,70.7254 90.2508,66.3864 59.878,23.4305 55.1051,18.6576 40.7864,9.1119 32.5424,8.678 27.3356,13.4508 18.6576,26.0339 18.2237,34.278 23.4305,38.1831" stroke="#e7ff0f" stroke-width="2" /><polyline fill="none" points="46.4271,61.6136 74.1966,85.0441 101.5322,104.5695" stroke="#ffd300" stroke-width="2" /><polyline fill="none" points="95.8915,98.4949 97.1932,100.6644 103.2678,98.4949 109.3424,92.4203" stroke="#ffa300" stroke-width="2" /><polyline fill="none" points="54.6712,69.8576 81.5729,55.1051" stroke="#ff6f00" stroke-width="2" /><polyline fill="none" points="75.9322,77.2339 85.0441,71.1593" stroke="#ff3f00" stroke-width="2" /><polyline fill="none" points="82.8746,84.6102 92.4203,81.139" stroke="#f50b00" stroke-width="2" /><polyline fill="none" points="91.5525,90.6847 99.3627,88.5153" stroke="#ba0000" stroke-width="2" /><polyline fill="none" points="99.3627,93.2881 103.7017,91.9864" stroke="#7f0000" stroke-width="2" /></svg>