<?xml version="1.0" encoding="utf-8" ?>
<svg baseProfile="tiny" height="128" version="1.2" viewBox="0,0,128,128" width="128" xmlns="http://www.w3.org/2000/svg" xmlns:ev="http://www.w3.org/2001/xml-events" xmlns:xlink="http://www.w3.org/1999/xlink"><defs /><polyline fill="none" points="73.7627,29.939 73.7627,29.0712" stroke="#00007f" stroke-width="2" /><polyline fill="none" points="85.0441,21.6949 77.6678,14.7525 68.122,9.5458 53.8034,8.678 41.2203,12.5831 29.0712,22.1288 22.5627,34.278 17.7898,48.5966 16.922,72.8949 20.8271,83.7424 32.9763,93.2881 47.2949,99.3627 63.3492,102.8339 74.6305,100.2305 101.0983,90.6847 105.8712,88.0814 116.2847,77.2339 118.4542,70.7254 119.322,58.1424 114.9831,45.9932 108.0407,34.278 94.5898,19.5254 89.3831,18.6576 82.8746,19.9593" stroke="#0000de" stroke-width="2" /><polyline fill="none" points="35.1458,22.1288 38.1831,25.1661" stroke="#0028ff" stroke-width="2" /><polyline fill="none" points="49.4644,41.2203 49.4644,49.0305" stroke="#0080ff" stroke-width="2" /><polyline fill="none" points="47.2949,68.5559 36.8814,82.8746" stroke="#00d4ff" stroke-width="2" /><polyline fill="none" points="32.9763,88.0814 28.2034,95.0237" stroke="#36ffc0" stroke-width="2" /><polyline fill="none" points="79.8373,22.1288 77.6678,25.1661" stroke="#7cff79" stroke-width="2" /><polyline fill="none" points="69.4237,44.2576 69.8576,45.9932" stroke="#c0ff36" stroke-width="2" /><polyline fill="none" points="69.4237,67.6881 69.8576,72.461" stroke="#ffe500" stroke-width="2" /><polyline fill="none" points="69.8576,81.5729 72.461,87.6475" stroke="#ff9400" stroke-width="2" /><polyline fill="none" points="32.1085,52.5017 36.8814,50.3322 70.2915,50.3322 117.1525,41.2203" stroke="#ff4600" stroke-width="2" /><polyline fill="none" points="50.3322,25.1661 52.5017,36.4475 51.2,95.8915" stroke="#de0000" stroke-width="2" /><polyline fill="none" points="101.0983,15.6203 95.8915,11.7153 87.6475,9.5458 71.5932,9.5458 62.9153,11.2814 42.0881,19.9593 29.0712,28.6373 20.3932,37.3153 12.5831,49.0305 8.678,60.3119 9.5458,69.4237 13.8847,77.2339 17.7898,81.5729 23.8644,84.6102 42.9559,87.6475 53.3695,85.9119 75.4983,78.9695 85.9119,68.122 88.9492,58.5763 88.0814,49.0305 85.0441,39.0508 79.8373,30.3729 69.4237,22.5627 61.6136,19.9593 52.9356,20.8271 42.9559,24.2983 33.8441,32.1085 26.0339,46.861 26.0339,55.9729 28.6373,61.6136 32.9763,66.3864 45.1254,73.7627 69.8576,78.5356 81.5729,78.5356 95.0237,74.6305 100.2305,70.2915 103.2678,64.6508 104.1356,58.5763 101.0983,48.1627 91.1186,38.1831 83.7424,34.278 78.5356,33.8441 62.4814,36.8814 57.7085,39.0508 50.3322,45.9932 43.8237,55.539 41.2203,61.6136 39.9186,72.8949 40.7864,78.5356 44.2576,87.2136 51.2,93.2881 56.4068,95.8915 67.2542,98.061 76.8,97.1932 85.478,93.2881 94.1559,85.9119 101.9661,76.8 106.3051,67.6881 108.0407,58.5763 105.4373,46.4271 103.2678,42.522 96.3254,36.8814 86.7797,32.9763 78.9695,32.9763 70.7254,33.8441 56.4068,38.1831 41.6542,46.4271 29.939,55.539 22.5627,65.9525 20.8271,70.7254 20.8271,82.8746 23.8644,86.7797 32.5424,91.9864 44.2576,94.1559 58.1424,92.8542 75.9322,86.7797 88.9492,75.9322 91.9864,72.0271 93.722,66.8203" stroke="#7f0000" stroke-width="2" /></svg>