<?xml version="1.0" encoding="utf-8" ?>
<svg baseProfile="tiny" height="128" version="1.2" viewBox="0,0,128,128" width="128" xmlns="http://www.w3.org/2000/svg" xmlns:ev="http://www.w3.org/2001/xml-events" xmlns:xlink="http://www.w3.org/1999/xlink"><defs /><polyline fill="none" points="76.3661,14.7525 71.5932,14.7525 64.6508,17.7898 57.2746,27.7695 57.2746,32.1085 62.9153,43.8237 69.8576,49.0305 78.5356,51.6339 82.8746,51.6339 87.6475,49.4644 92.4203,42.522 97.6271,27.3356 92.4203,18.2237 88.0814,14.7525 83.3085,12.1492 75.9322,12.1492" stroke="#00007f" stroke-width="2" /><polyline fill="none" points="76.3661,16.0542 76.8,20.8271 82.4407,34.278 84.1763,44.6915" stroke="#0000fe" stroke-width="2" /><polyline fill="none" points="61.1797,33.8441 71.1593,29.5051 84.1763,28.6373 96.7593,25.6" stroke="#0060ff" stroke-width="2" /><polyline fill="none" points="85.9119,20.3932 85.9119,20.3932" stroke="#00d4ff" stroke-width="2" /><polyline fill="none" points="82.4407,19.5254 85.0441,21.261" stroke="#4cffaa" stroke-width="2" /><polyline fill="none" points="67.2542,23.8644 69.8576,24.7322" stroke="#aaff4c" stroke-width="2" /><polyline fill="none" points="74.1966,35.5797 76.3661,38.1831" stroke="#ffe500" stroke-width="2" /><polyline fill="none" points="88.0814,33.8441 93.2881,36.4475" stroke="#ff7a00" stroke-width="2" /><polyline fill="none" points="32.1085,119.322 32.1085,106.739 24.7322,45.5593" stroke="#fe1200" stroke-width="2" /><polyline fill="none" points="22.5627,45.9932 20.3932,46.4271 17.3559,44.2576 11.2814,37.3153 8.678,32.1085 8.678,24.2983 10.8475,19.0915 16.922,11.2814 22.1288,8.678 33.4102,9.5458 37.3153,14.3186 38.6169,18.6576 39.4847,32.5424 34.7119,41.2203 36.0136,54.6712 41.2203,75.9322 49.0305,96.7593 49.8983,105.8712 53.8034,114.9831 52.0678,117.5864 30.3729,117.5864 28.6373,111.9458 31.2407,104.5695" stroke="#7f0000" stroke-width="2" /></svg>