<?xml version="1.0" encoding="utf-8" ?>
<svg baseProfile="tiny" height="128" version="1.2" viewBox="0,0,128,128" width="128" xmlns="http://www.w3.org/2000/svg" xmlns:ev="http://www.w3.org/2001/xml-events" xmlns:xlink="http://www.w3.org/1999/xlink"><defs /><polyline fill="none" points="25.1661,8.678 20.8271,16.0542 9.9797,46.4271 8.678,79.4034 9.9797,84.6102 14.3186,90.2508 30.3729,101.9661 36.8814,105.4373 58.5763,111.5119 85.478,111.9458 100.6644,101.9661 110.6441,87.6475 112.8136,78.1017 118.4542,67.2542 119.322,48.5966" stroke="#00007f" stroke-width="2" /><polyline fill="none" points="42.522,8.678 52.9356,8.678 59.4441,10.8475 83.3085,22.5627 95.4576,32.9763 111.9458,54.2373" stroke="#0080ff" stroke-width="2" /><polyline fill="none" points="91.1186,48.5966 85.478,49.0305 78.1017,56.4068 72.8949,78.1017 73.7627,94.5898 78.1017,99.7966 85.9119,103.2678" stroke="#7cff79" stroke-width="2" /><polyline fill="none" points="77.2339,48.5966 88.0814,44.2576 94.5898,44.2576" stroke="#ff9400" stroke-width="2" /><polyline fill="none" points="12.1492,26.9017 17.3559,26.9017" stroke="#7f0000" stroke-width="2" /></svg>