<?xml version="1.0" encoding="utf-8" ?>
<svg baseProfile="tiny" height="128" version="1.2" viewBox="0,0,128,128" width="128" xmlns="http://www.w3.org/2000/svg" xmlns:ev="http://www.w3.org/2001/xml-events" xmlns:xlink="http://www.w3.org/1999/xlink"><defs /><polyline fill="none" points="82.8746,17.3559 78.9695,13.8847 68.5559,9.9797 57.2746,8.678 52.5017,9.9797 43.3898,17.7898 32.9763,30.3729 12.1492,64.2169 9.1119,73.7627 8.678,80.2712 9.9797,86.3458 12.5831,92.4203 31.2407,111.5119 37.7492,116.7186 43.3898,118.8881 54.6712,119.322 71.1593,116.7186 86.3458,108.9085 99.3627,98.9288 108.0407,90.2508 112.8136,83.7424 118.0203,68.9898 118.8881,52.0678 113.6814,41.6542 94.5898,30.8068 78.1017,18.6576 65.0847,14.3186" stroke="#00007f" stroke-width="2" /><polyline fill="none" points="57.7085,10.4136 57.7085,62.4814 55.1051,82.8746 55.1051,95.8915 55.9729,106.3051 57.2746,101.9661" stroke="#0028ff" stroke-width="2" /><polyline fill="none" points="72.0271,18.2237 74.1966,36.4475 74.1966,75.9322 69.8576,102.8339 72.8949,97.6271" stroke="#00d4ff" stroke-width="2" /><polyline fill="none" points="91.5525,27.3356 89.3831,42.0881 89.3831,92.8542" stroke="#7cff79" stroke-width="2" /><polyline fill="none" points="105.4373,51.6339 101.0983,82.8746 97.1932,93.2881 95.8915,100.2305" stroke="#ffe500" stroke-width="2" /><polyline fill="none" points="39.9186,39.0508 37.7492,52.5017 37.7492,69.4237 34.7119,85.9119" stroke="#ff4600" stroke-width="2" /><polyline fill="none" points="24.7322,62.9153 23.4305,70.7254 23.8644,86.7797" stroke="#7f0000" stroke-width="2" /></svg>