<?xml version="1.0" encoding="utf-8" ?>
<svg baseProfile="tiny" height="128" version="1.2" viewBox="0,0,128,128" width="128" xmlns="http://www.w3.org/2000/svg" xmlns:ev="http://www.w3.org/2001/xml-events" xmlns:xlink="http://www.w3.org/1999/xlink"><defs /><polyline fill="none" points="87.6475,49.8983 86.3458,42.522 80.2712,31.2407 68.9898,19.9593 58.1424,12.1492 51.2,9.1119 34.278,8.678 21.261,16.4881 15.6203,23.8644 9.9797,41.6542 8.678,68.9898 16.4881,90.2508 22.9966,98.9288 41.6542,112.8136 55.1051,116.7186 69.8576,115.4169 79.8373,112.3797 88.5153,106.739 95.8915,93.722 97.6271,78.1017 91.1186,62.0475 75.9322,39.9186" stroke="#00007f" stroke-width="2" /><polyline fill="none" points="15.1864,10.4136 27.3356,35.5797 32.1085,56.4068 32.1085,76.8 29.0712,95.0237 22.1288,115.4169 22.1288,118.8881 23.4305,119.322" stroke="#7cff79" stroke-width="2" /><polyline fill="none" points="62.0475,11.7153 58.5763,12.1492 52.9356,22.1288 48.1627,42.9559 46.861,54.6712 49.8983,75.4983 58.1424,98.9288 66.3864,112.3797 69.8576,114.9831 72.8949,114.1153" stroke="#7f0000" stroke-width="2" /></svg>