<?xml version="1.0" encoding="utf-8" ?>
<svg baseProfile="tiny" height="128" version="1.2" viewBox="0,0,128,128" width="128" xmlns="http://www.w3.org/2000/svg" xmlns:ev="http://www.w3.org/2001/xml-events" xmlns:xlink="http://www.w3.org/1999/xlink"><defs /><polyline fill="none" points="59.0102,32.5424 57.2746,29.5051 40.3525,30.8068 35.1458,33.8441 29.0712,39.9186 21.261,50.3322 15.1864,63.3492 8.678,84.1763 9.1119,103.2678 17.3559,108.9085 47.2949,118.8881 67.6881,119.322 80.2712,113.2475 89.8169,105.8712 96.7593,98.4949 104.1356,74.1966 105.4373,40.7864 101.9661,30.8068 96.7593,22.1288 85.0441,9.9797 73.7627,8.678 72.461,11.7153" stroke="#00007f" stroke-width="2" /><polyline fill="none" points="36.0136,51.2 42.0881,49.4644 45.9932,49.4644 49.0305,51.2 62.9153,64.2169 82.4407,88.9492 88.0814,93.2881 92.8542,93.722" stroke="#7cff79" stroke-width="2" /><polyline fill="none" points="30.8068,55.9729 35.5797,55.9729 76.3661,77.2339 93.722,92.8542 97.1932,94.1559 101.5322,93.722" stroke="#7f0000" stroke-width="2" /></svg>