<?xml version="1.0" encoding="utf-8" ?>
<svg baseProfile="tiny" height="128" version="1.2" viewBox="0,0,128,128" width="128" xmlns="http://www.w3.org/2000/svg" xmlns:ev="http://www.w3.org/2001/xml-events" xmlns:xlink="http://www.w3.org/1999/xlink"><defs /><polyline fill="none" points="75.0644,15.6203 58.1424,14.7525 49.8983,19.5254 37.7492,29.0712 27.7695,39.9186 13.4508,60.7458 9.9797,72.461 8.678,85.478 10.8475,108.0407 14.7525,112.3797 22.9966,118.0203 60.7458,119.322 86.7797,108.0407 99.3627,100.6644 101.5322,95.4576 102.4,79.4034 97.1932,60.7458 82.0068,32.5424 68.5559,17.3559 54.6712,9.9797 44.6915,8.678" stroke="#00007f" stroke-width="2" /><polyline fill="none" points="86.7797,27.7695 83.3085,28.2034 73.7627,42.0881 68.5559,54.2373 65.5186,73.7627 65.5186,91.9864 68.5559,102.4 74.1966,108.4746 82.0068,110.6441 85.9119,113.2475" stroke="#7cff79" stroke-width="2" /><polyline fill="none" points="19.5254,55.539 34.278,60.3119 38.1831,63.3492 44.6915,72.461 45.9932,77.6678 47.2949,94.1559 45.9932,99.3627 44.6915,102.4 39.0508,106.739 34.7119,112.3797 32.9763,112.3797" stroke="#7f0000" stroke-width="2" /></svg>