<?xml version="1.0" encoding="utf-8" ?>
<svg baseProfile="tiny" height="128" version="1.2" viewBox="0,0,128,128" width="128" xmlns="http://www.w3.org/2000/svg" xmlns:ev="http://www.w3.org/2001/xml-events" xmlns:xlink="http://www.w3.org/1999/xlink"><defs /><polyline fill="none" points="60.9524,20.898 46.585,21.7687 33.0884,27.8639 29.1701,30.4762 19.1565,41.7959 13.932,50.9388 9.1429,66.6122 8.7075,83.5918 12.1905,89.6871 23.5102,97.5238 45.7143,104.9252 54.4218,105.3605 89.6871,88.8163 112.3265,74.449 119.2925,66.1769 118.4218,54.4218 117.1156,50.9388 89.2517,25.2517 58.3401,8.7075 50.9388,9.1429 44.8435,12.1905" stroke="#00007f" stroke-width="2" /><polyline fill="none" points="24.381,28.7347 27.4286,29.6054 35.2653,36.5714 41.7959,44.4082 44.8435,50.9388 44.8435,66.1769 37.8776,74.8844 33.5238,87.5102" stroke="#00d4ff" stroke-width="2" /><polyline fill="none" points="86.6395,22.6395 80.9796,32.2177 76.6259,44.4082 74.8844,65.3061 82.2857,79.6735 91.4286,88.8163" stroke="#ffe500" stroke-width="2" /><polyline fill="none" points="26.5578,94.0408 35.7007,84.898 39.1837,79.6735 42.6667,73.1429 43.9728,67.483" stroke="#7f0000" stroke-width="2" /></svg>