<?xml version="1.0" encoding="utf-8" ?>
<svg baseProfile="tiny" height="128" version="1.2" viewBox="0,0,128,128" width="128" xmlns="http://www.w3.org/2000/svg" xmlns:ev="http://www.w3.org/2001/xml-events" xmlns:xlink="http://www.w3.org/1999/xlink"><defs /><polyline fill="none" points="61.6136,15.1864 40.7864,16.4881 14.3186,28.2034 9.9797,32.5424 8.678,35.5797 9.1119,75.0644 13.4508,84.1763 17.3559,88.5153 23.8644,95.0237 39.9186,105.8712 56.4068,110.2102 84.1763,110.2102 98.061,107.1729 104.5695,103.7017 111.9458,96.7593 117.5864,87.6475 119.322,75.9322 119.322,63.3492 118.0203,58.5763 108.4746,42.9559 98.061,32.9763 70.7254,13.4508 61.6136,10.4136 46.861,8.678" stroke="#00007f" stroke-width="2" /><polyline fill="none" points="26.9017,22.1288 31.2407,29.5051 39.0508,38.6169 42.522,46.861" stroke="#00d4ff" stroke-width="2" /><polyline fill="none" points="42.522,49.8983 43.3898,69.4237 45.5593,76.8 45.5593,87.6475 40.7864,97.1932 29.5051,98.061" stroke="#ffe500" stroke-width="2" /><polyline fill="none" points="96.7593,34.278 88.9492,40.3525 82.8746,48.1627 81.139,55.1051 81.139,72.0271 85.0441,87.6475 105.8712,117.5864 108.9085,118.0203 108.9085,116.2847" stroke="#7f0000" stroke-width="2" /></svg>