<?xml version="1.0" encoding="utf-8" ?>
<svg baseProfile="tiny" height="128" version="1.2" viewBox="0,0,128,128" width="128" xmlns="http://www.w3.org/2000/svg" xmlns:ev="http://www.w3.org/2001/xml-events" xmlns:xlink="http://www.w3.org/1999/xlink"><defs /><polyline fill="none" points="119.322,31.6746 97.6271,19.0915 75.4983,10.8475 60.3119,8.678 41.2203,8.678 30.8068,13.4508 24.2983,19.5254 15.6203,31.2407 8.678,50.7661 9.1119,68.122 14.3186,78.1017 24.7322,88.9492 71.1593,99.7966 91.5525,100.6644 98.9288,97.1932 105.8712,85.478 110.6441,67.2542 110.6441,38.1831 111.9458,26.9017 105.4373,23.8644" stroke="#00007f" stroke-width="2" /><polyline fill="none" points="22.5627,22.5627 32.5424,26.4678 36.4475,29.5051 39.0508,36.0136 38.6169,52.5017 35.5797,56.8407 23.8644,67.6881 9.1119,74.6305" stroke="#7cff79" stroke-width="2" /><polyline fill="none" points="111.078,39.9186 91.5525,42.0881 84.1763,44.6915 77.6678,52.5017 76.8,66.3864 86.7797,78.1017 107.1729,91.9864 114.1153,102.4" stroke="#7f0000" stroke-width="2" /></svg>