<?xml version="1.0" encoding="utf-8" ?>
<svg baseProfile="tiny" height="128" version="1.2" viewBox="0,0,128,128" width="128" xmlns="http://www.w3.org/2000/svg" xmlns:ev="http://www.w3.org/2001/xml-events" xmlns:xlink="http://www.w3.org/1999/xlink"><defs /><polyline fill="none" points="63.3492,11.2814 52.5017,11.2814 47.7288,13.0169 36.8814,19.0915 26.9017,27.7695 18.2237,38.1831 9.1119,61.1797 8.678,82.0068 12.5831,94.1559 20.8271,108.0407 26.4678,113.6814 36.8814,119.322 51.6339,119.322 79.8373,114.5492 106.3051,105.0034 111.9458,100.2305 118.0203,86.3458 118.0203,68.9898 114.1153,52.9356 106.3051,39.9186 90.2508,24.7322 82.0068,19.0915 68.122,14.3186 36.0136,8.678" stroke="#00007f" stroke-width="2" /><polyline fill="none" points="22.9966,41.2203 30.8068,35.5797 36.0136,34.7119 51.6339,41.2203 61.6136,49.0305 65.0847,53.8034 65.0847,64.6508 58.5763,82.8746 59.4441,90.2508 65.0847,98.4949 75.4983,105.8712 89.3831,109.7763" stroke="#7cff79" stroke-width="2" /><polyline fill="none" points="72.8949,36.4475 86.7797,52.0678 92.4203,65.0847 92.4203,68.5559" stroke="#7f0000" stroke-width="2" /></svg>