<?xml version="1.0" encoding="utf-8" ?>
<svg baseProfile="tiny" height="128" version="1.2" viewBox="0,0,128,128" width="128" xmlns="http://www.w3.org/2000/svg" xmlns:ev="http://www.w3.org/2001/xml-events" xmlns:xlink="http://www.w3.org/1999/xlink"><defs /><polyline fill="none" points="60.3119,26.4678 37.3153,24.2983 27.3356,30.8068 17.7898,42.0881 10.4136,54.6712 8.678,65.0847 8.678,79.4034 13.0169,90.2508 19.5254,98.061 27.3356,104.5695 43.8237,111.9458 55.539,114.1153 78.1017,114.1153 93.722,111.5119 101.9661,105.4373 106.739,97.1932 110.6441,79.8373 110.6441,60.3119 107.1729,48.1627 101.9661,39.4847 91.1186,27.7695 79.4034,18.6576 59.4441,8.678" stroke="#00007f" stroke-width="2" /><polyline fill="none" points="45.5593,23.8644 45.5593,70.2915 42.0881,100.2305" stroke="#7cff79" stroke-width="2" /><polyline fill="none" points="86.3458,12.5831 56.8407,72.8949 54.6712,83.3085 54.6712,103.7017 59.878,119.322" stroke="#7f0000" stroke-width="2" /></svg>