<?xml version="1.0" encoding="utf-8" ?>
<svg baseProfile="tiny" height="128" version="1.2" viewBox="0,0,128,128" width="128" xmlns="http://www.w3.org/2000/svg" xmlns:ev="http://www.w3.org/2001/xml-events" xmlns:xlink="http://www.w3.org/1999/xlink"><defs /><polyline fill="none" points="70.2915,9.5458 56.4068,9.9797 38.6169,17.3559 28.6373,22.9966 20.8271,29.939 15.1864,38.1831 10.8475,46.4271 8.678,55.9729 8.678,72.0271 9.9797,78.9695 19.0915,93.2881 25.6,98.4949 32.9763,101.9661 52.0678,105.4373 64.2169,105.4373 75.9322,102.8339 87.6475,98.4949 98.061,92.4203 106.739,83.3085 113.2475,72.461 116.7186,61.1797 118.8881,52.0678 119.322,34.7119 117.5864,27.7695 112.8136,20.8271 105.8712,15.1864 98.061,11.2814 79.8373,8.678 64.6508,8.678 57.2746,10.8475" stroke="#00007f" stroke-width="2" /><polyline fill="none" points="43.3898,16.4881 45.5593,40.3525 45.5593,54.6712 41.6542,68.9898 36.8814,78.9695 25.6,92.8542" stroke="#0028ff" stroke-width="2" /><polyline fill="none" points="37.3153,28.6373 42.9559,29.939 58.1424,29.5051" stroke="#00d4ff" stroke-width="2" /><polyline fill="none" points="36.8814,46.4271 53.3695,45.5593 55.9729,46.861" stroke="#7cff79" stroke-width="2" /><polyline fill="none" points="33.4102,59.4441 61.6136,72.8949" stroke="#ffe500" stroke-width="2" /><polyline fill="none" points="29.5051,80.2712 46.4271,89.8169" stroke="#ff4600" stroke-width="2" /><polyline fill="none" points="85.9119,8.678 83.7424,14.7525 81.5729,32.5424 80.2712,73.3288 83.3085,83.7424 88.5153,92.8542 93.722,97.1932 98.9288,97.1932" stroke="#7f0000" stroke-width="2" /></svg>