<?xml version="1.0" encoding="utf-8" ?>
<svg baseProfile="tiny" height="128" version="1.2" viewBox="0,0,128,128" width="128" xmlns="http://www.w3.org/2000/svg" xmlns:ev="http://www.w3.org/2001/xml-events" xmlns:xlink="http://www.w3.org/1999/xlink"><defs /><polyline fill="none" points="54.6712,14.3186 43.3898,16.4881 24.2983,26.4678 16.4881,36.0136 9.5458,52.5017 8.678,74.1966 9.9797,80.7051 15.6203,91.1186 29.5051,104.5695 37.3153,110.6441 42.9559,111.9458 71.1593,112.3797 80.2712,109.7763 88.5153,105.0034 105.4373,90.2508 113.6814,80.2712 118.8881,66.8203 119.322,57.2746 117.5864,51.6339 108.9085,33.4102 99.7966,22.1288 69.4237,8.678 60.3119,8.678 55.9729,10.4136 55.1051,12.5831" stroke="#00007f" stroke-width="2" /><polyline fill="none" points="36.0136,17.3559 36.8814,22.1288 45.5593,33.8441 49.8983,43.8237 51.2,72.0271 48.5966,83.7424 45.1254,89.3831 33.4102,100.6644 30.8068,106.3051" stroke="#7cff79" stroke-width="2" /><polyline fill="none" points="87.6475,16.0542 78.5356,25.6 73.3288,35.1458 69.4237,45.1254 69.4237,53.8034 72.8949,68.5559 78.5356,77.2339 83.3085,89.8169 88.9492,92.8542 99.3627,93.2881" stroke="#7f0000" stroke-width="2" /></svg>