<?xml version="1.0" encoding="utf-8" ?>
<svg baseProfile="tiny" height="128" version="1.2" viewBox="0,0,128,128" width="128" xmlns="http://www.w3.org/2000/svg" xmlns:ev="http://www.w3.org/2001/xml-events" xmlns:xlink="http://www.w3.org/1999/xlink"><defs /><polyline fill="none" points="52.9356,21.261 43.3898,14.3186 36.0136,13.8847 29.0712,17.7898 22.5627,23.8644 16.4881,32.5424 11.2814,42.0881 8.678,52.5017 8.678,77.6678 12.5831,90.2508 19.0915,101.5322 28.2034,110.6441 39.9186,116.2847 53.8034,119.322 68.122,119.322 81.5729,117.1525 92.8542,110.2102 101.9661,101.5322 107.1729,91.9864 110.2102,82.0068 109.7763,58.1424 105.0034,47.2949 98.061,37.3153 88.0814,29.0712 64.6508,15.1864 52.9356,10.4136 36.0136,8.678" stroke="#00007f" stroke-width="2" /><polyline fill="none" points="19.9593,18.2237 38.6169,36.0136 46.4271,51.6339 47.7288,61.1797 48.1627,82.8746 41.6542,105.8712 33.4102,115.8508 25.6,117.5864" stroke="#7cff79" stroke-width="2" /><polyline fill="none" points="78.1017,29.5051 75.4983,30.3729 72.461,34.7119 69.8576,43.3898 65.9525,66.8203 65.0847,88.5153 67.6881,97.6271 72.461,105.0034 78.9695,110.2102 87.6475,114.1153" stroke="#7f0000" stroke-width="2" /></svg>