<?xml version="1.0" encoding="utf-8" ?>
<svg baseProfile="tiny" height="128" version="1.2" viewBox="0,0,128,128" width="128" xmlns="http://www.w3.org/2000/svg" xmlns:ev="http://www.w3.org/2001/xml-events" xmlns:xlink="http://www.w3.org/1999/xlink"><defs /><polyline fill="none" points="93.2881,26.4678 79.8373,17.3559 73.7627,15.1864 64.2169,14.3186" stroke="#00007f" stroke-width="2" /><polyline fill="none" points="60.7458,14.3186 46.861,16.0542 38.6169,19.0915 29.939,24.7322" stroke="#0000ff" stroke-width="2" /><polyline fill="none" points="101.0983,28.2034 80.2712,15.1864 62.0475,9.1119 49.4644,8.678 42.9559,9.9797 30.8068,18.2237 18.2237,32.9763 13.4508,41.6542 9.1119,59.878 8.678,77.6678 10.4136,86.3458 13.0169,93.2881 17.3559,99.7966 22.5627,105.8712 36.8814,112.3797 55.539,113.2475 64.6508,112.8136 82.0068,107.6068 98.061,97.1932 111.078,81.139 114.9831,72.461 118.0203,62.9153 119.322,45.9932 118.4542,37.7492 110.6441,27.3356 99.7966,19.9593 94.5898,19.0915" stroke="#0080ff" stroke-width="2" /><polyline fill="none" points="94.1559,16.0542 85.0441,26.0339 78.5356,37.7492 73.7627,49.8983 71.5932,62.9153 71.5932,78.1017 74.1966,88.9492 78.5356,95.0237 84.6102,99.3627" stroke="#15ffe1" stroke-width="2" /><polyline fill="none" points="66.8203,26.4678 74.1966,27.7695 87.2136,34.278" stroke="#7cff79" stroke-width="2" /><polyline fill="none" points="68.9898,49.8983 85.9119,55.1051" stroke="#e4ff12" stroke-width="2" /><polyline fill="none" points="66.8203,70.2915 85.0441,71.1593" stroke="#ff9400" stroke-width="2" /><polyline fill="none" points="72.0271,99.7966 76.3661,100.2305 90.6847,98.061" stroke="#ff1d00" stroke-width="2" /><polyline fill="none" points="34.278,20.3932 42.0881,28.2034 47.2949,39.4847 54.6712,82.8746 54.2373,92.4203 39.4847,108.9085" stroke="#7f0000" stroke-width="2" /></svg>