<?xml version="1.0" encoding="utf-8" ?>
<svg baseProfile="tiny" height="128" version="1.2" viewBox="0,0,128,128" width="128" xmlns="http://www.w3.org/2000/svg" xmlns:ev="http://www.w3.org/2001/xml-events" xmlns:xlink="http://www.w3.org/1999/xlink"><defs /><polyline fill="none" points="39.619,16.1088 33.9592,10.449 27.4286,8.7075 17.415,9.1429 11.7551,12.6259 8.7075,18.2857 8.7075,26.1224 12.1905,32.2177 18.2857,36.1361 22.6395,37.8776 30.9116,37.4422 39.619,33.0884 41.7959,28.2993 41.3605,20.898 38.3129,15.6735 33.9592,13.932" stroke="#00007f" stroke-width="2" /><polyline fill="none" points="13.932,10.449 17.8503,21.7687 18.7211,28.2993 16.5442,31.7823 12.6259,33.0884" stroke="#00d4ff" stroke-width="2" /><polyline fill="none" points="32.6531,16.9796 29.1701,23.9456 29.1701,31.3469 31.3469,37.4422 34.8299,40.0544" stroke="#ffe500" stroke-width="2" /><polyline fill="none" points="23.5102,69.2245 38.3129,58.7755 50.068,45.2789 63.1293,33.0884 82.2857,20.898 96.6531,16.1088 110.1497,15.2381 114.9388,16.9796 119.2925,21.3333 118.4218,25.6871 112.7619,33.0884 94.9116,46.585 70.0952,59.6463 23.5102,76.6259" stroke="#7f0000" stroke-width="2" /></svg>