<?xml version="1.0" encoding="utf-8" ?>
<svg baseProfile="tiny" height="128" version="1.2" viewBox="0,0,128,128" width="128" xmlns="http://www.w3.org/2000/svg" xmlns:ev="http://www.w3.org/2001/xml-events" xmlns:xlink="http://www.w3.org/1999/xlink"><defs /><polyline fill="none" points="45.7143,13.932 38.3129,16.5442 29.6054,23.0748 23.9456,30.4762 15.2381,48.3265 8.7075,70.0952 8.7075,85.7687 11.7551,93.1701 17.415,100.1361 22.6395,104.0544 35.7007,109.7143 48.7619,112.7619 72.7075,112.7619 78.3673,111.4558 93.1701,105.3605 106.6667,96.2177 113.6327,86.6395 117.551,78.8027 119.2925,68.3537 119.2925,52.6803 116.2449,40.4898 110.1497,31.3469 104.9252,26.5578 92.7347,18.2857 79.2381,13.0612 60.9524,8.7075 55.2925,9.1429 49.1973,12.1905" stroke="#00007f" stroke-width="2" /><polyline fill="none" points="45.2789,12.1905 46.1497,30.0408 42.6667,43.102 22.6395,80.9796 13.932,95.3469 14.3673,93.1701" stroke="#7cff79" stroke-width="2" /><polyline fill="none" points="85.7687,16.1088 86.2041,47.0204 91.8639,72.2721 97.0884,83.1565 105.7959,97.5238 112.7619,101.8776 113.6327,96.2177" stroke="#7f0000" stroke-width="2" /></svg>