<?xml version="1.0" encoding="utf-8" ?>
<svg baseProfile="tiny" height="128" version="1.2" viewBox="0,0,128,128" width="128" xmlns="http://www.w3.org/2000/svg" xmlns:ev="http://www.w3.org/2001/xml-events" xmlns:xlink="http://www.w3.org/1999/xlink"><defs /><polyline fill="none" points="22.9966,25.1661 11.2814,39.4847 8.678,50.7661 9.1119,59.0102 13.4508,75.9322 21.261,92.4203 32.5424,105.4373 43.8237,113.2475 53.3695,116.7186 75.4983,116.7186 84.1763,114.1153 100.6644,105.4373 108.9085,98.4949 113.2475,92.8542 117.1525,81.139 119.322,66.3864 119.322,51.6339 114.9831,38.1831 107.6068,27.7695 98.4949,18.2237 82.0068,9.1119 58.1424,8.678 38.6169,16.4881 29.939,23.8644" stroke="#00007f" stroke-width="2" /><polyline fill="none" points="43.3898,20.3932 48.5966,27.7695 53.8034,39.9186 56.8407,64.6508 56.8407,77.2339 55.1051,82.4407 45.9932,107.1729" stroke="#004cff" stroke-width="2" /><polyline fill="none" points="92.8542,18.6576 87.6475,58.1424 87.2136,85.9119 91.9864,96.3254 97.1932,103.7017 106.739,108.4746" stroke="#29ffcd" stroke-width="2" /><polyline fill="none" points="68.122,11.7153 68.5559,21.6949" stroke="#cdff29" stroke-width="2" /><polyline fill="none" points="69.4237,32.9763 69.8576,41.2203" stroke="#ff6700" stroke-width="2" /><polyline fill="none" points="70.7254,51.2 70.7254,58.5763" stroke="#7f0000" stroke-width="2" /></svg>