<?xml version="1.0" encoding="utf-8" ?>
<svg baseProfile="tiny" height="128" version="1.2" viewBox="0,0,128,128" width="128" xmlns="http://www.w3.org/2000/svg" xmlns:ev="http://www.w3.org/2001/xml-events" xmlns:xlink="http://www.w3.org/1999/xlink"><defs /><polyline fill="none" points="64.2169,8.678 51.2,8.678 31.6746,16.0542 23.8644,22.1288 11.7153,45.1254 8.678,56.8407 8.678,75.0644 17.3559,87.2136 32.9763,101.0983 36.0136,105.4373 50.7661,111.5119 57.7085,112.3797 82.8746,109.7763 113.6814,91.9864 119.322,80.2712 119.322,62.4814 117.5864,55.9729 113.6814,49.8983 78.1017,15.1864 72.8949,13.4508" stroke="#00007f" stroke-width="2" /><polyline fill="none" points="37.7492,9.5458 36.4475,14.7525 37.7492,101.9661 37.3153,107.6068 29.939,112.8136" stroke="#7cff79" stroke-width="2" /><polyline fill="none" points="92.4203,36.4475 88.5153,41.2203 86.7797,50.3322 81.5729,62.4814 79.8373,77.6678 82.4407,83.7424 95.0237,93.2881" stroke="#7f0000" stroke-width="2" /></svg>