<?xml version="1.0" encoding="utf-8" ?>
<svg baseProfile="tiny" height="128" version="1.2" viewBox="0,0,128,128" width="128" xmlns="http://www.w3.org/2000/svg" xmlns:ev="http://www.w3.org/2001/xml-events" xmlns:xlink="http://www.w3.org/1999/xlink"><defs /><polyline fill="none" points="29.1701,31.7823 21.7687,32.6531 17.415,38.3129 11.7551,50.5034 9.1429,58.7755 8.7075,68.3537 13.0612,83.1565 20.898,89.6871 27.8639,90.5578 33.5238,89.2517 44.4082,82.2857 53.9864,66.6122 57.034,50.068 56.1633,40.9252 53.1156,33.5238 47.8912,27.8639 35.7007,21.3333 31.3469,21.7687 30.0408,29.1701" stroke="#00007f" stroke-width="2" /><polyline fill="none" points="35.7007,72.7075 33.0884,70.966" stroke="#0000ff" stroke-width="2" /><polyline fill="none" points="32.6531,56.5986 32.6531,56.1633" stroke="#0080ff" stroke-width="2" /><polyline fill="none" points="36.5714,40.4898 37.8776,40.0544" stroke="#15ffe1" stroke-width="2" /><polyline fill="none" points="22.6395,80.9796 22.6395,80.9796" stroke="#7cff79" stroke-width="2" /><polyline fill="none" points="18.7211,71.4014 18.2857,73.1429" stroke="#e4ff12" stroke-width="2" /><polyline fill="none" points="26.1224,57.034 26.1224,57.034" stroke="#ff9400" stroke-width="2" /><polyline fill="none" points="25.6871,40.9252 25.2517,40.4898" stroke="#ff1d00" stroke-width="2" /><polyline fill="none" points="83.1565,75.3197 80.5442,75.7551 76.6259,82.2857 68.3537,103.619 61.8231,111.0204 61.8231,114.5034 67.483,118.4218 70.966,119.2925 86.2041,117.9864 97.0884,113.1973 112.3265,103.1837 114.068,100.5714 111.4558,96.6531 107.5374,94.4762 97.9592,92.2993 92.2993,85.3333 93.1701,79.6735 107.9728,47.0204 109.2789,36.1361 107.9728,28.7347 102.7483,18.7211 93.1701,9.5782 83.5918,8.7075 74.449,14.8027" stroke="#7f0000" stroke-width="2" /></svg>