<?xml version="1.0" encoding="utf-8" ?>
<svg baseProfile="tiny" height="128" version="1.2" viewBox="0,0,128,128" width="128" xmlns="http://www.w3.org/2000/svg" xmlns:ev="http://www.w3.org/2001/xml-events" xmlns:xlink="http://www.w3.org/1999/xlink"><defs /><polyline fill="none" points="98.9288,46.4271 98.9288,39.0508 96.7593,32.5424 89.8169,21.6949 84.1763,16.4881 69.8576,9.9797 62.0475,8.678 41.6542,9.1119 33.8441,12.5831 20.8271,26.4678 13.8847,40.7864 8.678,59.4441 8.678,73.7627 16.4881,90.6847 26.0339,97.6271 38.1831,101.5322 75.9322,101.5322 90.2508,98.4949 95.4576,94.5898 101.0983,87.2136 111.5119,68.5559 115.4169,57.7085 119.322,37.7492 118.8881,22.5627 115.4169,16.922" stroke="#00007f" stroke-width="2" /><polyline fill="none" points="40.7864,10.4136 50.3322,27.3356 54.2373,39.9186 54.6712,46.4271 54.6712,71.1593 53.3695,78.1017 46.861,90.6847" stroke="#00d4ff" stroke-width="2" /><polyline fill="none" points="115.4169,27.3356 114.1153,25.1661 108.4746,23.8644 92.8542,32.5424 81.5729,42.522 72.461,55.539 69.4237,64.2169 68.9898,78.1017 76.8,92.8542 86.7797,101.5322 87.2136,97.1932" stroke="#ffe500" stroke-width="2" /><polyline fill="none" points="42.9559,33.8441 46.861,29.939 59.4441,27.3356 47.2949,42.0881 47.7288,43.3898 58.5763,49.8983 56.8407,53.8034 46.861,61.6136 44.2576,65.9525 51.2,74.1966" stroke="#7f0000" stroke-width="2" /></svg>