<?xml version="1.0" encoding="utf-8" ?>
<svg baseProfile="tiny" height="128" version="1.2" viewBox="0,0,128,128" width="128" xmlns="http://www.w3.org/2000/svg" xmlns:ev="http://www.w3.org/2001/xml-events" xmlns:xlink="http://www.w3.org/1999/xlink"><defs /><polyline fill="none" points="92.4203,28.2034 76.8,21.261 40.3525,20.3932 31.2407,21.6949 14.3186,29.939 9.9797,39.9186 8.678,48.5966 12.1492,72.0271 31.2407,102.8339 42.522,111.078 50.3322,113.6814 66.3864,116.7186 77.6678,116.7186 96.7593,112.8136 111.078,103.2678 117.5864,88.9492 119.322,64.6508 113.2475,38.1831 108.0407,26.0339 98.4949,14.3186 91.5525,8.678" stroke="#00007f" stroke-width="2" /><polyline fill="none" points="75.0644,9.5458 70.7254,26.0339 70.7254,46.4271 77.6678,75.4983 85.0441,95.0237" stroke="#0028ff" stroke-width="2" /><polyline fill="none" points="36.4475,24.7322 33.8441,36.4475 38.1831,65.9525 41.6542,82.0068 52.5017,115.4169" stroke="#00d4ff" stroke-width="2" /><polyline fill="none" points="88.0814,39.0508 55.9729,49.0305" stroke="#7cff79" stroke-width="2" /><polyline fill="none" points="91.1186,59.878 74.1966,62.4814 59.4441,66.8203" stroke="#ffe500" stroke-width="2" /><polyline fill="none" points="62.4814,92.8542 62.4814,92.8542" stroke="#ff4600" stroke-width="2" /><polyline fill="none" points="51.6339,31.6746 16.0542,51.2" stroke="#7f0000" stroke-width="2" /></svg>