<?xml version="1.0" encoding="utf-8" ?>
<svg baseProfile="tiny" height="128" version="1.2" viewBox="0,0,128,128" width="128" xmlns="http://www.w3.org/2000/svg" xmlns:ev="http://www.w3.org/2001/xml-events" xmlns:xlink="http://www.w3.org/1999/xlink"><defs /><polyline fill="none" points="67.2542,9.9797 49.8983,9.1119 43.3898,10.4136 28.2034,18.2237 19.9593,26.0339 13.4508,38.1831 8.678,53.3695 9.1119,68.5559 12.5831,78.9695 17.3559,87.6475 28.6373,96.3254 43.3898,102.4 58.5763,103.7017 75.4983,103.2678 86.3458,100.2305 99.3627,92.4203 110.2102,80.7051 116.7186,67.6881 118.8881,57.2746 119.322,42.9559 114.9831,29.0712 106.739,19.0915 95.4576,11.7153 82.8746,8.678 66.8203,8.678" stroke="#00007f" stroke-width="2" /><polyline fill="none" points="46.4271,11.2814 47.2949,44.2576 43.8237,59.0102 39.9186,68.9898 32.1085,82.4407 26.4678,89.3831 22.1288,92.8542" stroke="#00d4ff" stroke-width="2" /><polyline fill="none" points="89.3831,10.8475 82.8746,24.2983 78.5356,45.5593 78.1017,70.2915 81.5729,98.9288" stroke="#ffe500" stroke-width="2" /><polyline fill="none" points="22.5627,79.8373 35.5797,88.5153" stroke="#7f0000" stroke-width="2" /></svg>