<?xml version="1.0" encoding="utf-8" ?>
<svg baseProfile="tiny" height="128" version="1.2" viewBox="0,0,128,128" width="128" xmlns="http://www.w3.org/2000/svg" xmlns:ev="http://www.w3.org/2001/xml-events" xmlns:xlink="http://www.w3.org/1999/xlink"><defs /><polyline fill="none" points="57.7085,8.678 36.4475,12.5831 29.939,16.0542 21.261,27.3356 12.5831,53.8034 8.678,82.8746 8.678,98.061 12.5831,106.739 19.9593,112.8136 34.7119,119.322 65.0847,119.322 74.1966,111.9458 89.3831,94.1559 90.2508,75.0644 98.061,51.6339 98.061,45.1254 91.5525,41.2203 85.478,35.1458 80.2712,27.7695 72.8949,22.5627 59.0102,16.0542 53.8034,18.6576" stroke="#00007f" stroke-width="2" /><polyline fill="none" points="64.2169,18.6576 63.7831,47.7288 62.9153,56.4068 57.7085,68.9898 50.3322,85.478 44.2576,93.722 29.939,110.6441 19.9593,119.322" stroke="#7f0000" stroke-width="2" /></svg>