<?xml version="1.0" encoding="utf-8" ?>
<svg baseProfile="tiny" height="128" version="1.2" viewBox="0,0,128,128" width="128" xmlns="http://www.w3.org/2000/svg" xmlns:ev="http://www.w3.org/2001/xml-events" xmlns:xlink="http://www.w3.org/1999/xlink"><defs /><polyline fill="none" points="33.8441,11.7153 22.1288,13.4508 15.1864,22.9966 11.7153,33.8441 13.4508,36.8814 22.9966,36.4475 29.939,29.939 33.4102,24.7322 32.5424,18.2237 28.2034,15.6203 20.3932,17.7898 8.678,38.1831" stroke="#00007f" stroke-width="2" /><polyline fill="none" points="105.0034,90.6847 97.1932,82.8746 71.1593,64.6508 37.7492,32.9763" stroke="#0028ff" stroke-width="2" /><polyline fill="none" points="39.9186,43.3898 39.9186,28.2034 42.9559,22.5627 52.0678,13.4508 69.4237,8.678 75.9322,11.7153 82.0068,17.7898 95.0237,40.7864 101.9661,67.2542 109.3424,83.3085 116.2847,93.722" stroke="#00d4ff" stroke-width="2" /><polyline fill="none" points="119.322,83.7424 104.1356,84.6102 96.3254,91.5525 91.9864,101.0983 93.722,104.1356 101.9661,105.0034 108.9085,100.2305 111.9458,91.1186 108.9085,88.0814" stroke="#7cff79" stroke-width="2" /><polyline fill="none" points="50.3322,53.8034 74.1966,34.7119 82.0068,31.6746 89.8169,31.6746" stroke="#ffe500" stroke-width="2" /><polyline fill="none" points="80.2712,65.0847 91.5525,59.0102 105.0034,47.2949" stroke="#ff4600" stroke-width="2" /><polyline fill="none" points="76.8,75.9322 81.5729,75.0644 88.0814,70.2915 99.3627,70.7254" stroke="#7f0000" stroke-width="2" /></svg>