<?xml version="1.0" encoding="utf-8" ?>
<svg baseProfile="tiny" height="128" version="1.2" viewBox="0,0,128,128" width="128" xmlns="http://www.w3.org/2000/svg" xmlns:ev="http://www.w3.org/2001/xml-events" xmlns:xlink="http://www.w3.org/1999/xlink"><defs /><polyline fill="none" points="20.0956,36.2594 24.901,32.7645 31.0171,31.8908 38.8805,34.9488 44.1229,43.2491 46.744,56.3549 46.744,65.529 44.1229,74.2662 40.1911,79.0717 30.5802,81.256 24.0273,80.3823 17.9113,76.4505 8.7372,62.0341 8.7372,54.6075 12.6689,41.9386 19.6587,37.1331 25.3379,35.3857 25.7747,36.6962" stroke="#00007f" stroke-width="2" /><polyline fill="none" points="80.8191,15.727 76.0137,24.0273 72.9556,34.0751 69.8976,57.2287 74.7031,83.8771 74.2662,109.6519 75.5768,114.4573 81.256,119.2628" stroke="#7cff79" stroke-width="2" /><polyline fill="none" points="76.0137,30.1433 76.4505,23.5904 84.314,10.9215 86.9352,8.7372 102.6621,14.8532 105.7201,20.0956 110.5256,37.1331 112.7099,55.0444" stroke="#7f0000" stroke-width="2" /></svg>