<?xml version="1.0" encoding="utf-8" ?>
<svg baseProfile="tiny" height="128" version="1.2" viewBox="0,0,128,128" width="128" xmlns="http://www.w3.org/2000/svg" xmlns:ev="http://www.w3.org/2001/xml-events" xmlns:xlink="http://www.w3.org/1999/xlink"><defs /><polyline fill="none" points="42.0881,103.7017 44.2576,78.5356 55.539,49.8983 70.7254,26.0339 78.9695,18.6576 86.3458,14.7525 96.3254,15.1864 100.6644,17.3559 102.8339,20.3932 103.7017,26.4678 100.2305,36.8814 95.0237,46.4271 72.8949,76.3661 64.6508,91.1186 54.2373,104.1356 43.3898,102.8339 39.4847,104.5695 36.4475,108.0407 34.7119,113.6814 36.8814,117.5864 38.6169,119.322 44.2576,118.0203 50.7661,111.078 52.0678,105.4373 50.3322,102.4" stroke="#00007f" stroke-width="2" /><polyline fill="none" points="38.1831,105.0034 54.2373,115.4169" stroke="#0028ff" stroke-width="2" /><polyline fill="none" points="36.8814,107.1729 39.0508,112.3797 44.2576,117.5864" stroke="#00d4ff" stroke-width="2" /><polyline fill="none" points="44.2576,108.0407 45.1254,114.9831" stroke="#7cff79" stroke-width="2" /><polyline fill="none" points="32.5424,9.1119 25.6,8.678 16.4881,11.7153 12.5831,15.6203 8.678,26.0339 9.9797,35.1458 13.4508,39.0508 20.3932,44.6915 29.5051,46.861 32.9763,44.6915 36.4475,36.8814 38.6169,22.5627 37.3153,16.922 34.278,13.0169 29.5051,10.8475 19.0915,11.2814 15.1864,13.8847" stroke="#ffe500" stroke-width="2" /><polyline fill="none" points="16.922,29.0712 26.4678,24.7322" stroke="#ff4600" stroke-width="2" /><polyline fill="none" points="25.6,39.0508 35.5797,34.278" stroke="#7f0000" stroke-width="2" /></svg>