<?xml version="1.0" encoding="utf-8" ?>
<svg baseProfile="tiny" height="128" version="1.2" viewBox="0,0,128,128" width="128" xmlns="http://www.w3.org/2000/svg" xmlns:ev="http://www.w3.org/2001/xml-events" xmlns:xlink="http://www.w3.org/1999/xlink"><defs /><polyline fill="none" points="88.5153,20.8271 75.9322,11.2814 65.0847,9.1119 56.8407,10.8475 51.6339,13.0169 45.5593,17.3559 35.1458,27.7695 18.6576,53.3695 12.5831,71.5932 11.7153,93.2881 13.0169,98.4949 18.2237,105.4373 24.7322,108.4746 38.6169,108.9085 42.0881,107.6068 59.878,96.3254 73.3288,76.8 81.5729,52.0678 82.8746,34.278 82.4407,26.0339 75.9322,12.5831 72.461,8.678" stroke="#00007f" stroke-width="2" /><polyline fill="none" points="84.6102,26.4678 78.9695,30.8068 72.8949,38.6169 49.8983,81.139 43.8237,98.061 40.7864,119.322" stroke="#7cff79" stroke-width="2" /><polyline fill="none" points="42.522,14.7525 44.6915,27.3356 42.0881,36.4475 37.3153,46.861 24.7322,65.0847 13.4508,75.0644 8.678,82.0068" stroke="#7f0000" stroke-width="2" /></svg>