<?xml version="1.0" encoding="utf-8" ?>
<svg baseProfile="tiny" height="128" version="1.2" viewBox="0,0,128,128" width="128" xmlns="http://www.w3.org/2000/svg" xmlns:ev="http://www.w3.org/2001/xml-events" xmlns:xlink="http://www.w3.org/1999/xlink"><defs /><polyline fill="none" points="68.5559,8.678 67.2542,10.8475 46.4271,20.8271 31.6746,26.0339 18.2237,33.8441 9.9797,48.5966 8.678,58.5763 16.4881,78.9695 21.6949,88.5153 33.4102,98.061 47.2949,102.8339 57.7085,104.5695 75.9322,103.7017 91.1186,98.9288 110.6441,85.0441 118.8881,71.1593 119.322,57.7085 114.5492,45.1254 105.8712,32.5424 83.7424,17.7898 66.3864,9.1119" stroke="#00007f" stroke-width="2" /><polyline fill="none" points="66.3864,9.1119 60.7458,17.3559 60.3119,29.0712 62.0475,33.8441 68.5559,38.6169 70.7254,43.3898 70.7254,54.2373 65.0847,63.7831 65.0847,68.5559 73.7627,86.3458 72.461,97.6271 73.3288,104.1356" stroke="#7f0000" stroke-width="2" /></svg>