<?xml version="1.0" encoding="utf-8" ?>
<svg baseProfile="tiny" height="128" version="1.2" viewBox="0,0,128,128" width="128" xmlns="http://www.w3.org/2000/svg" xmlns:ev="http://www.w3.org/2001/xml-events" xmlns:xlink="http://www.w3.org/1999/xlink"><defs /><polyline fill="none" points="85.478,12.1492 77.2339,8.678 61.1797,8.678 54.6712,9.9797 46.861,13.4508 32.1085,25.6 24.7322,34.278 13.4508,54.2373 10.4136,63.3492 8.678,71.1593 8.678,86.3458 10.8475,92.8542 19.9593,103.7017 29.0712,111.078 39.4847,114.9831 51.6339,116.7186 67.6881,115.8508 91.5525,104.5695 101.9661,95.4576 108.0407,86.3458 111.5119,77.2339 111.5119,41.2203 108.9085,34.7119 100.2305,22.5627 93.2881,15.6203 89.8169,13.8847 84.1763,13.0169 81.139,15.1864" stroke="#00007f" stroke-width="2" /><polyline fill="none" points="44.6915,18.6576 47.2949,23.4305 46.861,52.9356 40.3525,62.0475 27.7695,73.3288 10.4136,85.478 16.4881,83.3085" stroke="#7cff79" stroke-width="2" /><polyline fill="none" points="98.061,32.1085 78.5356,63.3492 70.7254,79.4034 64.2169,97.6271 63.7831,111.5119 72.8949,119.322" stroke="#7f0000" stroke-width="2" /></svg>