<?xml version="1.0" encoding="utf-8" ?>
<svg baseProfile="tiny" height="128" version="1.2" viewBox="0,0,128,128" width="128" xmlns="http://www.w3.org/2000/svg" xmlns:ev="http://www.w3.org/2001/xml-events" xmlns:xlink="http://www.w3.org/1999/xlink"><defs /><polyline fill="none" points="45.1254,9.1119 35.1458,12.5831 29.0712,16.922 24.2983,22.5627 14.3186,39.9186 10.8475,49.8983 8.678,60.7458 8.678,84.1763 13.0169,95.8915 18.2237,104.5695 25.1661,111.5119 32.9763,116.2847 42.0881,118.8881 52.5017,119.322 77.6678,110.6441 88.9492,103.7017 98.061,95.4576 107.1729,80.2712 111.5119,62.9153 110.6441,45.9932 107.6068,37.3153 103.7017,29.0712 99.3627,22.9966 92.8542,16.4881 86.3458,13.0169 70.2915,9.1119 61.1797,8.678 45.9932,9.5458 37.3153,12.5831" stroke="#00007f" stroke-width="2" /><polyline fill="none" points="41.6542,35.5797 38.1831,38.6169 36.4475,49.8983 36.4475,55.9729 41.2203,63.7831 44.6915,65.9525 49.4644,65.9525 52.9356,65.0847 55.1051,60.7458 55.539,48.1627 52.9356,43.8237 46.4271,38.6169" stroke="#004cff" stroke-width="2" /><polyline fill="none" points="42.0881,84.1763 39.9186,97.1932 40.3525,101.9661 42.522,105.4373 46.4271,108.4746 50.7661,110.2102 55.539,110.2102 60.3119,108.4746 63.3492,104.1356 65.0847,98.9288 63.7831,88.9492 59.0102,84.6102 52.9356,82.8746 44.6915,82.8746 41.2203,85.0441" stroke="#29ffcd" stroke-width="2" /><polyline fill="none" points="87.2136,36.8814 85.0441,36.8814 82.4407,38.6169 77.2339,49.4644 75.4983,57.7085 75.0644,73.3288 78.1017,78.9695 83.7424,82.0068 95.8915,81.5729 100.6644,62.4814 99.7966,53.8034 95.0237,49.0305 87.6475,45.1254 80.2712,45.1254" stroke="#cdff29" stroke-width="2" /><polyline fill="none" points="36.4475,15.6203 31.6746,22.5627 31.6746,17.7898 22.1288,30.3729 15.6203,56.4068 16.0542,74.6305" stroke="#ff6700" stroke-width="2" /><polyline fill="none" points="14.3186,72.8949 17.3559,86.7797 22.1288,95.4576 36.0136,109.7763 45.1254,112.8136 54.2373,112.8136 62.9153,109.7763 83.7424,97.6271 95.0237,86.7797 99.3627,79.8373 99.7966,75.0644" stroke="#7f0000" stroke-width="2" /></svg>