<?xml version="1.0" encoding="utf-8" ?>
<svg baseProfile="tiny" height="128" version="1.2" viewBox="0,0,128,128" width="128" xmlns="http://www.w3.org/2000/svg" xmlns:ev="http://www.w3.org/2001/xml-events" xmlns:xlink="http://www.w3.org/1999/xlink"><defs /><polyline fill="none" points="57.2746,10.4136 32.9763,8.678 17.3559,19.5254 12.1492,26.9017 9.5458,37.3153 8.678,49.0305 10.4136,58.5763 17.7898,74.1966 26.4678,82.0068 37.7492,86.7797 59.0102,93.2881 76.3661,95.0237 105.8712,76.8 113.2475,69.8576 118.0203,60.3119 119.322,49.8983 118.4542,42.0881 115.4169,37.7492 109.7763,32.9763 77.2339,14.3186 49.8983,10.8475" stroke="#00007f" stroke-width="2" /><polyline fill="none" points="51.6339,10.4136 39.0508,21.6949 34.7119,31.2407 29.5051,59.4441 29.5051,71.5932 32.1085,83.3085 33.8441,83.3085" stroke="#7cff79" stroke-width="2" /><polyline fill="none" points="72.8949,18.6576 61.6136,21.261 53.8034,26.9017 41.6542,41.6542 36.8814,50.3322 31.2407,62.0475 28.2034,73.3288 24.2983,103.7017 24.2983,108.9085 26.9017,106.739" stroke="#7f0000" stroke-width="2" /></svg>