<?xml version="1.0" encoding="utf-8" ?>
<svg baseProfile="tiny" height="128" version="1.2" viewBox="0,0,128,128" width="128" xmlns="http://www.w3.org/2000/svg" xmlns:ev="http://www.w3.org/2001/xml-events" xmlns:xlink="http://www.w3.org/1999/xlink"><defs /><polyline fill="none" points="59.4441,19.5254 50.3322,21.261 36.8814,27.7695 28.6373,34.278 16.0542,49.8983 10.8475,61.1797 8.678,70.7254 8.678,90.6847 10.8475,95.8915 17.3559,108.0407 21.6949,112.8136 26.0339,115.4169 40.7864,118.4542 73.7627,119.322 80.2712,118.0203 92.4203,113.2475 95.4576,110.6441 98.9288,105.0034 101.5322,90.2508 100.6644,37.3153 95.8915,25.6 86.7797,13.0169 81.139,9.1119 74.6305,8.678 56.8407,16.0542 49.8983,21.261 39.0508,24.7322 39.0508,26.9017 44.2576,33.4102 48.1627,47.2949 48.1627,70.2915 45.5593,85.9119 40.3525,98.4949 35.5797,105.4373 33.4102,106.739 18.6576,108.9085" stroke="#00007f" stroke-width="2" /><polyline fill="none" points="75.0644,9.1119 68.9898,27.7695" stroke="#7f0000" stroke-width="2" /></svg>