<?xml version="1.0" encoding="utf-8" ?>
<svg baseProfile="tiny" height="128" version="1.2" viewBox="0,0,128,128" width="128" xmlns="http://www.w3.org/2000/svg" xmlns:ev="http://www.w3.org/2001/xml-events" xmlns:xlink="http://www.w3.org/1999/xlink"><defs /><polyline fill="none" points="93.722,20.3932 75.0644,12.5831 37.3153,10.4136 31.2407,12.5831 25.1661,16.922 14.7525,27.3356 8.678,43.3898 8.678,64.2169 13.4508,79.8373 23.8644,98.4949 32.5424,106.739 44.2576,112.3797 51.6339,114.1153 76.8,113.2475 91.1186,106.3051 96.7593,101.5322 101.5322,95.8915 106.739,82.4407 108.4746,64.6508 108.4746,42.522 102.4,23.4305 98.4949,18.6576 95.4576,17.7898" stroke="#00007f" stroke-width="2" /><polyline fill="none" points="21.261,8.678 26.4678,14.7525 37.3153,34.278 44.2576,49.4644 46.4271,58.1424 49.8983,86.7797 49.8983,114.5492 48.1627,119.322" stroke="#7cff79" stroke-width="2" /><polyline fill="none" points="89.8169,17.3559 91.5525,22.1288 91.5525,40.3525 84.6102,73.3288 83.7424,83.7424 83.7424,102.8339 85.478,109.3424 88.9492,115.4169" stroke="#7f0000" stroke-width="2" /></svg>