<?xml version="1.0" encoding="utf-8" ?>
<svg baseProfile="tiny" height="128" version="1.2" viewBox="0,0,128,128" width="128" xmlns="http://www.w3.org/2000/svg" xmlns:ev="http://www.w3.org/2001/xml-events" xmlns:xlink="http://www.w3.org/1999/xlink"><defs /><polyline fill="none" points="80.1088,17.415 70.966,14.8027 61.8231,14.3673 56.5986,15.2381 46.585,20.898 38.3129,29.6054 34.3946,39.1837 34.3946,43.5374 36.5714,47.4558 41.3605,50.9388 52.2449,54.8571 66.1769,54.4218 73.1429,52.6803 86.2041,45.2789 95.7823,35.2653 97.9592,29.6054 98.8299,19.5918 93.1701,11.7551 87.5102,9.5782 81.415,9.1429 74.449,9.5782 67.9184,11.7551" stroke="#00007f" stroke-width="2" /><polyline fill="none" points="46.1497,17.8503 52.6803,17.415 57.9048,20.4626 63.1293,27.4286 65.3061,34.3946 65.3061,41.3605 63.1293,45.7143 51.3741,58.3401" stroke="#0080ff" stroke-width="2" /><polyline fill="none" points="90.9932,9.1429 84.4626,8.7075 78.8027,10.449 75.3197,13.0612 72.7075,17.8503 70.5306,34.3946 74.449,45.7143 77.0612,48.7619" stroke="#7cff79" stroke-width="2" /><polyline fill="none" points="37.0068,47.8912 47.0204,34.3946 59.6463,26.9932 91.8639,13.4966 107.9728,10.0136 119.2925,9.1429 77.932,17.8503" stroke="#ff9400" stroke-width="2" /><polyline fill="none" points="60.0816,23.0748 44.4082,28.7347 8.7075,44.4082 23.0748,36.5714 46.1497,26.1224 74.8844,16.1088" stroke="#7f0000" stroke-width="2" /></svg>