<?xml version="1.0" encoding="utf-8" ?>
<svg baseProfile="tiny" height="128" version="1.2" viewBox="0,0,128,128" width="128" xmlns="http://www.w3.org/2000/svg" xmlns:ev="http://www.w3.org/2001/xml-events" xmlns:xlink="http://www.w3.org/1999/xlink"><defs /><polyline fill="none" points="52.9356,11.2814 41.6542,9.9797 22.1288,9.9797 18.2237,11.7153 9.9797,22.5627 8.678,30.8068 8.678,70.7254 19.5254,95.8915 23.8644,98.4949 28.2034,104.1356 36.4475,111.078 42.0881,112.3797 47.7288,116.7186 57.2746,119.322 85.0441,119.322 90.2508,118.0203 97.1932,109.7763 105.4373,88.5153 109.7763,70.7254 109.7763,39.0508 108.0407,32.1085 100.2305,25.6 85.0441,19.9593 78.9695,15.6203 51.6339,8.678 47.7288,9.9797 47.2949,11.2814" stroke="#00007f" stroke-width="2" /><polyline fill="none" points="59.878,15.6203 55.9729,19.5254 51.6339,28.2034 47.2949,36.4475 45.9932,44.6915 43.3898,49.0305 29.5051,59.878 21.261,63.7831 15.6203,64.2169 8.678,68.122" stroke="#7cff79" stroke-width="2" /><polyline fill="none" points="30.8068,113.6814 39.0508,112.3797 44.6915,108.0407 50.3322,106.739 59.878,99.7966 99.7966,79.4034 105.4373,79.4034" stroke="#7f0000" stroke-width="2" /></svg>