<?xml version="1.0" encoding="utf-8" ?>
<svg baseProfile="tiny" height="128" version="1.2" viewBox="0,0,128,128" width="128" xmlns="http://www.w3.org/2000/svg" xmlns:ev="http://www.w3.org/2001/xml-events" xmlns:xlink="http://www.w3.org/1999/xlink"><defs /><polyline fill="none" points="79.6735,11.7551 65.7415,9.1429 45.7143,8.7075 31.7823,15.6735 24.8163,21.3333 17.8503,29.6054 15.2381,34.8299 9.1429,53.9864 8.7075,86.2041 13.932,103.1837 32.6531,114.068 53.1156,119.2925 82.7211,118.8571 87.9456,117.1156 101.4422,106.2313 107.102,97.9592 110.1497,85.7687 110.1497,60.0816 108.4082,45.7143 105.3605,34.8299 96.6531,16.1088 92.2993,10.449 76.6259,10.0136" stroke="#00007f" stroke-width="2" /><polyline fill="none" points="33.9592,16.5442 29.1701,30.9116 29.1701,39.1837 39.619,48.3265 47.4558,52.2449 55.7279,52.2449 59.6463,50.9388 87.9456,27.4286 93.6054,24.381 98.8299,24.8163" stroke="#0028ff" stroke-width="2" /><polyline fill="none" points="64.0,37.4422 65.7415,37.8776 70.0952,43.9728" stroke="#00d4ff" stroke-width="2" /><polyline fill="none" points="73.5782,33.5238 75.3197,38.3129" stroke="#7cff79" stroke-width="2" /><polyline fill="none" points="81.8503,26.1224 81.8503,26.1224" stroke="#ffe500" stroke-width="2" /><polyline fill="none" points="26.9932,24.8163 34.8299,24.8163" stroke="#ff4600" stroke-width="2" /><polyline fill="none" points="28.7347,35.7007 39.619,33.9592" stroke="#7f0000" stroke-width="2" /></svg>