<?xml version="1.0" encoding="utf-8" ?>
<svg baseProfile="tiny" height="128" version="1.2" viewBox="0,0,128,128" width="128" xmlns="http://www.w3.org/2000/svg" xmlns:ev="http://www.w3.org/2001/xml-events" xmlns:xlink="http://www.w3.org/1999/xlink"><defs /><polyline fill="none" points="69.8576,25.6 67.6881,17.7898 62.0475,12.5831 55.539,9.5458 38.6169,8.678 29.939,12.5831 22.1288,18.6576 15.6203,26.4678 8.678,44.6915 9.1119,69.8576 13.8847,83.7424 20.3932,95.8915 27.7695,104.5695 36.0136,110.2102 44.6915,112.8136 53.3695,112.8136 62.0475,109.3424 71.5932,103.7017 78.5356,96.7593 87.6475,79.4034 90.2508,53.3695 85.9119,36.8814 81.5729,29.0712 77.6678,22.1288 66.3864,13.4508 59.878,11.7153 50.7661,10.8475" stroke="#00007f" stroke-width="2" /><polyline fill="none" points="21.261,18.2237 24.2983,16.922 28.2034,17.3559 32.9763,22.9966 37.3153,32.1085 41.6542,45.9932 46.861,86.7797 47.7288,107.1729 43.8237,114.5492 39.4847,119.322" stroke="#0028ff" stroke-width="2" /><polyline fill="none" points="69.4237,16.0542 65.0847,24.7322 62.0475,37.3153 59.878,61.1797 65.0847,84.6102 68.9898,95.0237 74.1966,101.9661" stroke="#00d4ff" stroke-width="2" /><polyline fill="none" points="68.5559,29.5051 59.4441,37.3153" stroke="#7cff79" stroke-width="2" /><polyline fill="none" points="69.8576,51.2 64.2169,51.2 56.8407,53.8034" stroke="#ffe500" stroke-width="2" /><polyline fill="none" points="68.9898,65.9525 56.4068,74.6305" stroke="#ff4600" stroke-width="2" /><polyline fill="none" points="70.7254,76.8 68.9898,80.2712" stroke="#7f0000" stroke-width="2" /></svg>