<?xml version="1.0" encoding="utf-8" ?>
<svg baseProfile="tiny" height="128" version="1.2" viewBox="0,0,128,128" width="128" xmlns="http://www.w3.org/2000/svg" xmlns:ev="http://www.w3.org/2001/xml-events" xmlns:xlink="http://www.w3.org/1999/xlink"><defs /><polyline fill="none" points="72.8949,8.678 54.2373,14.3186 39.0508,22.9966 30.3729,30.3729 22.5627,39.4847 17.7898,45.9932 10.4136,64.2169 8.678,75.9322 9.1119,91.5525 12.1492,99.7966 16.922,105.8712 23.8644,110.6441 33.4102,114.9831 56.4068,118.8881 75.4983,118.8881 86.7797,117.1525 90.6847,115.8508 94.5898,111.5119 101.0983,99.3627 103.2678,90.2508 107.1729,62.4814 107.1729,30.8068 105.8712,24.7322 95.8915,10.4136 88.9492,8.678 67.2542,9.9797" stroke="#00007f" stroke-width="2" /><polyline fill="none" points="31.2407,28.2034 41.2203,58.1424 43.3898,72.0271 43.3898,109.3424 41.6542,119.322" stroke="#7cff79" stroke-width="2" /><polyline fill="none" points="78.5356,14.3186 70.2915,26.4678 66.8203,34.7119 61.1797,67.6881 62.4814,98.061 67.2542,103.7017" stroke="#7f0000" stroke-width="2" /></svg>