<?xml version="1.0" encoding="utf-8" ?>
<svg baseProfile="tiny" height="128" version="1.2" viewBox="0,0,128,128" width="128" xmlns="http://www.w3.org/2000/svg" xmlns:ev="http://www.w3.org/2001/xml-events" xmlns:xlink="http://www.w3.org/1999/xlink"><defs /><polyline fill="none" points="106.739,26.4678 101.0983,27.7695 85.478,26.4678 44.6915,16.4881 24.7322,14.7525 16.0542,16.922 10.8475,22.9966 8.678,31.2407 8.678,42.522 18.6576,75.0644 42.0881,104.5695 49.8983,112.3797 57.7085,117.1525 66.3864,119.322 77.2339,116.7186 89.3831,105.4373 101.9661,87.6475 110.2102,71.5932 112.3797,63.3492 112.3797,51.6339 98.4949,27.7695 91.9864,19.0915" stroke="#00007f" stroke-width="2" /><polyline fill="none" points="45.1254,8.678 45.1254,75.4983 41.6542,87.6475 33.4102,94.1559" stroke="#7cff79" stroke-width="2" /><polyline fill="none" points="78.5356,23.8644 77.6678,48.5966 85.0441,108.9085 87.6475,117.5864" stroke="#7f0000" stroke-width="2" /></svg>