<?xml version="1.0" encoding="utf-8" ?>
<svg baseProfile="tiny" height="128" version="1.2" viewBox="0,0,128,128" width="128" xmlns="http://www.w3.org/2000/svg" xmlns:ev="http://www.w3.org/2001/xml-events" xmlns:xlink="http://www.w3.org/1999/xlink"><defs /><polyline fill="none" points="10.8475,64.6508 8.678,49.8983 8.678,37.3153 13.4508,28.6373 18.2237,23.4305 25.6,19.0915 35.1458,14.3186 48.1627,9.5458 66.3864,8.678 75.9322,11.7153 84.1763,16.4881 98.4949,28.6373 108.4746,42.9559 111.5119,57.7085 111.9458,72.461 108.4746,83.7424 100.2305,98.061 85.0441,113.6814 80.2712,117.1525 74.6305,118.4542 48.1627,119.322 40.7864,117.1525 32.5424,108.0407 28.6373,101.9661 10.4136,64.2169" stroke="#00007f" stroke-width="2" /><polyline fill="none" points="28.6373,17.7898 35.5797,32.1085 37.3153,42.0881 37.3153,52.9356 32.1085,80.7051 26.9017,101.9661" stroke="#00d4ff" stroke-width="2" /><polyline fill="none" points="95.4576,26.0339 91.9864,64.2169 91.9864,87.6475 96.7593,102.8339" stroke="#ffe500" stroke-width="2" /><polyline fill="none" points="17.3559,26.0339 19.5254,37.3153 19.5254,54.2373 16.4881,73.7627" stroke="#7f0000" stroke-width="2" /></svg>