<?xml version="1.0" encoding="utf-8" ?>
<svg baseProfile="tiny" height="128" version="1.2" viewBox="0,0,128,128" width="128" xmlns="http://www.w3.org/2000/svg" xmlns:ev="http://www.w3.org/2001/xml-events" xmlns:xlink="http://www.w3.org/1999/xlink"><defs /><polyline fill="none" points="51.2,45.5593 31.6746,45.9932 19.5254,55.9729 14.3186,63.7831 9.9797,75.0644 8.678,90.2508 14.7525,101.9661 20.3932,108.9085 27.3356,113.6814 38.6169,118.0203 61.1797,118.8881 68.122,116.7186 79.8373,109.7763 88.5153,100.2305 97.1932,84.6102 98.9288,77.2339 98.4949,65.0847 88.9492,55.1051 78.5356,49.0305 59.4441,40.7864 51.2,38.6169 42.522,46.4271" stroke="#00007f" stroke-width="2" /><polyline fill="none" points="45.5593,42.522 43.3898,53.8034 42.0881,116.2847" stroke="#00d4ff" stroke-width="2" /><polyline fill="none" points="58.5763,40.7864 57.7085,52.9356 52.9356,70.2915 50.7661,119.322" stroke="#ffe500" stroke-width="2" /><polyline fill="none" points="35.1458,44.2576 39.0508,32.5424 51.2,17.3559 61.1797,11.2814 72.0271,8.678 81.5729,9.1119 94.1559,17.3559 98.9288,26.0339 99.3627,40.3525" stroke="#7f0000" stroke-width="2" /></svg>