<?xml version="1.0" encoding="utf-8" ?>
<svg baseProfile="tiny" height="128" version="1.2" viewBox="0,0,128,128" width="128" xmlns="http://www.w3.org/2000/svg" xmlns:ev="http://www.w3.org/2001/xml-events" xmlns:xlink="http://www.w3.org/1999/xlink"><defs /><polyline fill="none" points="43.8237,8.678 29.0712,9.9797 22.9966,13.8847 16.4881,22.5627 8.678,43.8237 8.678,76.3661 23.4305,99.7966 32.5424,108.9085 49.8983,117.5864 65.0847,119.322 79.4034,119.322 92.8542,114.5492 106.3051,102.8339 111.5119,95.0237 114.5492,78.1017 114.5492,58.5763 113.2475,53.8034 109.3424,43.8237 100.2305,36.0136 65.5186,17.3559 47.7288,9.9797 35.1458,8.678" stroke="#00007f" stroke-width="2" /><polyline fill="none" points="78.1017,26.0339 72.0271,27.3356 69.4237,35.1458 69.4237,49.4644 77.6678,68.9898 81.5729,76.3661 93.2881,90.2508 105.4373,95.0237 111.9458,95.4576 112.8136,93.722" stroke="#7cff79" stroke-width="2" /><polyline fill="none" points="15.6203,30.3729 25.6,35.5797 32.5424,55.1051 32.1085,75.9322 26.9017,86.7797" stroke="#7f0000" stroke-width="2" /></svg>