<?xml version="1.0" encoding="utf-8" ?>
<svg baseProfile="tiny" height="128" version="1.2" viewBox="0,0,128,128" width="128" xmlns="http://www.w3.org/2000/svg" xmlns:ev="http://www.w3.org/2001/xml-events" xmlns:xlink="http://www.w3.org/1999/xlink"><defs /><polyline fill="none" points="23.1536,27.959 17.9113,43.686 15.727,88.6826 13.1058,101.3515 8.7372,110.0887 8.7372,116.2048 15.727,118.8259 23.5904,119.2628 30.5802,107.0307 29.2696,101.7884 24.4642,93.9249 21.843,81.6928 21.843,74.7031 28.3959,42.3754 29.7065,18.3481 25.7747,12.6689 17.9113,8.7372 13.5427,8.7372 10.9215,14.4164 10.9215,29.7065 20.5324,44.5597 20.9693,58.1024" stroke="#00007f" stroke-width="2" /><polyline fill="none" points="73.3925,33.6382 69.8976,29.7065 67.2765,29.2696 63.3447,29.2696 59.413,31.4539 54.6075,40.628 54.1706,46.3072 55.9181,48.4915 58.1024,50.2389 63.3447,50.6758 69.0239,46.3072 71.2082,40.1911 71.2082,32.7645 68.1502,27.5222 65.9659,26.6485" stroke="#7f0000" stroke-width="2" /></svg>