<?xml version="1.0" encoding="utf-8" ?>
<svg baseProfile="tiny" height="128" version="1.2" viewBox="0,0,128,128" width="128" xmlns="http://www.w3.org/2000/svg" xmlns:ev="http://www.w3.org/2001/xml-events" xmlns:xlink="http://www.w3.org/1999/xlink"><defs /><polyline fill="none" points="67.6881,17.7898 64.6508,14.3186 54.6712,9.5458 43.3898,8.678 27.7695,16.4881 14.7525,29.0712 9.9797,39.9186 8.678,47.2949 9.1119,59.0102 13.8847,72.461 21.6949,82.0068 32.1085,89.3831 39.9186,92.8542 56.4068,96.3254 69.8576,96.3254 83.3085,92.4203 92.4203,88.5153 97.6271,83.7424 100.2305,74.1966 100.2305,62.9153 93.2881,38.6169 84.1763,28.6373 73.3288,22.9966 68.122,16.4881 63.7831,14.7525" stroke="#00007f" stroke-width="2" /><polyline fill="none" points="31.2407,16.0542 47.2949,17.3559 90.6847,39.0508 101.9661,47.2949 114.5492,59.878 119.322,70.7254" stroke="#00d4ff" stroke-width="2" /><polyline fill="none" points="24.7322,20.8271 58.1424,39.4847 66.8203,46.4271 70.2915,51.2 74.1966,68.122 78.5356,80.2712 89.3831,95.0237 90.6847,98.9288" stroke="#ffe500" stroke-width="2" /><polyline fill="none" points="16.0542,34.278 19.5254,41.6542 30.8068,53.3695 76.8,89.3831" stroke="#7f0000" stroke-width="2" /></svg>