<?xml version="1.0" encoding="utf-8" ?>
<svg baseProfile="tiny" height="128" version="1.2" viewBox="0,0,128,128" width="128" xmlns="http://www.w3.org/2000/svg" xmlns:ev="http://www.w3.org/2001/xml-events" xmlns:xlink="http://www.w3.org/1999/xlink"><defs /><polyline fill="none" points="41.6542,22.5627 32.1085,23.8644 14.3186,35.1458 10.4136,41.2203 8.678,49.4644 8.678,59.4441 10.8475,63.3492 22.9966,73.3288 36.0136,79.8373 45.9932,80.2712 52.9356,76.3661 61.6136,63.7831 65.0847,54.6712 64.6508,34.278 57.7085,22.9966 49.0305,17.7898 36.0136,21.261" stroke="#00007f" stroke-width="2" /><polyline fill="none" points="42.522,19.9593 38.1831,38.1831 37.7492,56.4068 46.861,72.461 52.5017,74.6305" stroke="#0080ff" stroke-width="2" /><polyline fill="none" points="52.5017,74.6305 52.5017,74.6305" stroke="#7cff79" stroke-width="2" /><polyline fill="none" points="22.5627,71.1593 26.9017,63.7831 28.6373,55.539 28.2034,26.9017 24.2983,25.1661" stroke="#ff9400" stroke-width="2" /><polyline fill="none" points="110.2102,31.6746 114.1153,37.3153 118.8881,52.0678 119.322,8.678" stroke="#7f0000" stroke-width="2" /></svg>