<?xml version="1.0" encoding="utf-8" ?>
<svg baseProfile="tiny" height="128" version="1.2" viewBox="0,0,128,128" width="128" xmlns="http://www.w3.org/2000/svg" xmlns:ev="http://www.w3.org/2001/xml-events" xmlns:xlink="http://www.w3.org/1999/xlink"><defs /><polyline fill="none" points="42.9559,19.9593 31.6746,31.6746 16.4881,50.3322 10.4136,63.7831 8.678,75.4983 8.678,108.0407 18.2237,117.5864 27.7695,119.322 46.861,119.322 58.1424,111.5119 69.8576,100.2305 78.9695,85.0441 85.0441,79.4034" stroke="#00007f" stroke-width="2" /><polyline fill="none" points="90.6847,64.2169 96.3254,42.9559 96.3254,27.7695" stroke="#0080ff" stroke-width="2" /><polyline fill="none" points="69.8576,12.5831 88.9492,12.5831 98.4949,22.1288 101.9661,41.2203 101.9661,50.7661" stroke="#7cff79" stroke-width="2" /><polyline fill="none" points="73.3288,8.678 73.3288,18.2237 69.8576,39.0508 69.8576,62.0475 75.4983,85.0441 81.139,96.3254 90.6847,98.4949 81.139,100.2305" stroke="#ff9400" stroke-width="2" /><polyline fill="none" points="10.4136,46.861 31.6746,56.4068 41.2203,62.0475 48.5966,73.3288 52.5017,82.8746 52.5017,100.2305" stroke="#7f0000" stroke-width="2" /></svg>