<?xml version="1.0" encoding="utf-8" ?>
<svg baseProfile="tiny" height="128" version="1.2" viewBox="0,0,128,128" width="128" xmlns="http://www.w3.org/2000/svg" xmlns:ev="http://www.w3.org/2001/xml-events" xmlns:xlink="http://www.w3.org/1999/xlink"><defs /><polyline fill="none" points="47.2949,10.4136 41.2203,11.2814 29.5051,15.1864 25.6,17.7898 16.4881,28.2034 12.1492,34.278 8.678,45.9932 9.9797,57.2746 18.6576,64.2169 42.9559,74.1966 60.7458,75.9322 103.7017,75.4983 114.9831,68.9898 119.322,61.1797 119.322,44.6915 114.5492,35.5797 101.0983,23.4305 86.7797,16.922 82.4407,16.4881 79.4034,13.0169 65.5186,9.1119 55.539,8.678 45.9932,8.678 41.2203,11.7153" stroke="#00007f" stroke-width="2" /><polyline fill="none" points="36.0136,13.8847 39.0508,16.4881 44.6915,31.2407 53.8034,49.0305 55.1051,69.8576 57.7085,65.5186" stroke="#7cff79" stroke-width="2" /><polyline fill="none" points="82.8746,14.3186 79.8373,27.3356 80.7051,50.7661 85.0441,64.2169 94.1559,70.7254" stroke="#7f0000" stroke-width="2" /></svg>