<?xml version="1.0" encoding="utf-8" ?>
<svg baseProfile="tiny" height="128" version="1.2" viewBox="0,0,128,128" width="128" xmlns="http://www.w3.org/2000/svg" xmlns:ev="http://www.w3.org/2001/xml-events" xmlns:xlink="http://www.w3.org/1999/xlink"><defs /><polyline fill="none" points="96.3254,16.922 85.9119,11.2814 75.0644,8.678 64.2169,8.678 48.1627,11.2814 31.2407,18.6576 22.9966,25.6 15.6203,34.278 9.9797,46.4271 8.678,59.0102 13.0169,74.6305 20.3932,85.9119 29.0712,93.2881 42.522,99.7966 57.2746,103.2678 68.5559,103.7017 85.9119,101.5322 98.061,95.8915 108.0407,87.6475 115.8508,76.8 119.322,66.3864 117.5864,51.6339 112.3797,41.2203 106.3051,32.9763 95.0237,22.9966" stroke="#00007f" stroke-width="2" /><polyline fill="none" points="32.5424,19.5254 36.4475,32.5424 37.3153,39.9186 35.5797,52.0678 28.6373,68.5559 19.0915,81.139" stroke="#00d4ff" stroke-width="2" /><polyline fill="none" points="112.3797,38.1831 107.6068,40.3525 99.7966,47.2949 90.6847,62.9153 87.2136,78.5356 88.9492,86.7797 92.4203,93.2881" stroke="#ffe500" stroke-width="2" /><polyline fill="none" points="91.9864,93.2881 94.5898,96.3254 96.3254,96.3254" stroke="#7f0000" stroke-width="2" /></svg>