<?xml version="1.0" encoding="utf-8" ?>
<svg baseProfile="tiny" height="128" version="1.2" viewBox="0,0,128,128" width="128" xmlns="http://www.w3.org/2000/svg" xmlns:ev="http://www.w3.org/2001/xml-events" xmlns:xlink="http://www.w3.org/1999/xlink"><defs /><polyline fill="none" points="94.4762,8.7075 78.3673,9.5782 49.1973,17.415 33.0884,26.1224 26.1224,31.3469 14.3673,45.2789 10.0136,52.6803 8.7075,57.9048 10.449,74.449 20.898,92.2993 32.6531,104.4898 43.102,108.8435 56.5986,111.4558 69.6599,112.3265 91.8639,102.7483 96.2177,97.9592 106.2313,82.2857 112.3265,67.9184 114.5034,40.9252 111.8912,30.9116 104.9252,23.9456 92.2993,15.6735" stroke="#00007f" stroke-width="2" /><polyline fill="none" points="70.966,24.381 25.2517,104.4898 22.2041,107.102" stroke="#00d4ff" stroke-width="2" /><polyline fill="none" points="26.9932,34.8299 32.6531,47.0204 57.034,75.7551 67.0476,95.7823 73.5782,113.1973 77.4966,119.2925" stroke="#ffe500" stroke-width="2" /><polyline fill="none" points="19.5918,72.7075 75.3197,54.8571 92.2993,44.8435 101.4422,36.1361 111.8912,29.1701" stroke="#7f0000" stroke-width="2" /></svg>