<?xml version="1.0" encoding="utf-8" ?>
<svg baseProfile="tiny" height="128" version="1.2" viewBox="0,0,128,128" width="128" xmlns="http://www.w3.org/2000/svg" xmlns:ev="http://www.w3.org/2001/xml-events" xmlns:xlink="http://www.w3.org/1999/xlink"><defs /><polyline fill="none" points="62.9153,12.1492 48.1627,14.7525 34.7119,19.9593 23.4305,27.7695 11.2814,44.2576 8.678,53.3695 8.678,64.6508 13.0169,77.2339 30.3729,87.6475 51.6339,94.1559 68.5559,95.0237 84.6102,89.3831 96.3254,83.3085 118.0203,51.2 119.322,34.278 115.8508,22.5627 108.0407,16.922 78.9695,8.678 59.0102,9.1119 54.2373,13.0169" stroke="#00007f" stroke-width="2" /><polyline fill="none" points="48.5966,13.4508 48.1627,28.6373 36.8814,49.0305 21.261,65.9525 10.8475,70.2915" stroke="#7cff79" stroke-width="2" /><polyline fill="none" points="97.6271,14.3186 89.3831,19.0915 84.1763,26.0339 80.7051,36.0136 79.4034,43.8237 79.4034,61.1797 84.6102,74.6305 86.3458,85.478 89.3831,88.9492" stroke="#7f0000" stroke-width="2" /></svg>