<?xml version="1.0" encoding="utf-8" ?>
<svg baseProfile="tiny" height="128" version="1.2" viewBox="0,0,128,128" width="128" xmlns="http://www.w3.org/2000/svg" xmlns:ev="http://www.w3.org/2001/xml-events" xmlns:xlink="http://www.w3.org/1999/xlink"><defs /><polyline fill="none" points="61.1797,8.678 55.9729,8.678 44.6915,13.4508 29.5051,24.7322 15.6203,41.2203 8.678,64.2169 9.1119,75.9322 11.2814,86.3458 18.6576,96.7593 27.3356,105.4373 50.3322,114.5492 62.4814,115.4169 73.7627,113.6814 85.0441,110.2102 94.5898,105.8712 109.7763,91.5525 117.5864,77.2339 119.322,62.9153 116.7186,55.9729 109.7763,43.8237 99.3627,32.5424 83.3085,23.4305 61.6136,16.922 48.1627,10.4136 50.3322,11.2814 52.0678,29.5051 51.2,43.8237 48.5966,56.4068 21.6949,101.5322 17.7898,105.4373 19.9593,104.1356" stroke="#00007f" stroke-width="2" /><polyline fill="none" points="96.7593,33.8441 87.2136,47.2949 82.4407,59.4441 78.9695,78.5356 82.0068,91.9864 85.9119,102.4 91.5525,108.9085 100.6644,112.8136 101.9661,110.6441" stroke="#7f0000" stroke-width="2" /></svg>