<?xml version="1.0" encoding="utf-8" ?>
<svg baseProfile="tiny" height="128" version="1.2" viewBox="0,0,128,128" width="128" xmlns="http://www.w3.org/2000/svg" xmlns:ev="http://www.w3.org/2001/xml-events" xmlns:xlink="http://www.w3.org/1999/xlink"><defs /><polyline fill="none" points="41.6542,9.1119 17.7898,29.0712 10.8475,39.9186 8.678,68.122 11.2814,79.8373 22.9966,98.061 40.3525,116.7186 49.0305,119.322 75.0644,118.4542 90.2508,116.2847 101.9661,111.9458 106.739,105.0034 110.2102,96.7593 110.6441,75.4983 102.8339,52.5017 86.7797,23.8644 72.0271,17.3559 58.5763,16.0542 36.8814,8.678" stroke="#00007f" stroke-width="2" /><polyline fill="none" points="36.8814,8.678 52.0678,52.0678 50.3322,65.9525 42.0881,98.4949 42.522,104.1356" stroke="#7cff79" stroke-width="2" /><polyline fill="none" points="87.2136,25.1661 81.5729,38.1831 79.4034,59.4441 86.3458,80.7051 93.2881,95.0237 97.1932,99.3627 101.5322,111.078 105.8712,118.8881 111.5119,119.322" stroke="#7f0000" stroke-width="2" /></svg>