<?xml version="1.0" encoding="utf-8" ?>
<svg baseProfile="tiny" height="128" version="1.2" viewBox="0,0,128,128" width="128" xmlns="http://www.w3.org/2000/svg" xmlns:ev="http://www.w3.org/2001/xml-events" xmlns:xlink="http://www.w3.org/1999/xlink"><defs /><polyline fill="none" points="22.5627,92.4203 42.522,100.6644 57.2746,103.7017 75.9322,103.2678 95.4576,92.4203 105.4373,85.0441 111.078,79.4034 117.5864,62.9153 119.322,28.2034 118.4542,23.4305 113.6814,18.2237 104.5695,12.5831 93.2881,8.678 78.5356,8.678 60.7458,12.1492 40.3525,24.2983 16.922,45.1254 11.7153,52.9356 8.678,67.6881 8.678,80.7051 11.2814,87.6475" stroke="#00007f" stroke-width="2" /><polyline fill="none" points="24.2983,89.3831 29.0712,86.7797 34.7119,79.4034 42.0881,57.7085 43.8237,32.1085 38.6169,19.9593" stroke="#7cff79" stroke-width="2" /><polyline fill="none" points="104.5695,82.0068 96.3254,76.8 92.4203,62.4814 90.2508,46.861 90.6847,26.4678 93.2881,21.6949 97.1932,17.7898" stroke="#7f0000" stroke-width="2" /></svg>