<?xml version="1.0" encoding="utf-8" ?>
<svg baseProfile="tiny" height="128" version="1.2" viewBox="0,0,128,128" width="128" xmlns="http://www.w3.org/2000/svg" xmlns:ev="http://www.w3.org/2001/xml-events" xmlns:xlink="http://www.w3.org/1999/xlink"><defs /><polyline fill="none" points="98.7304,16.6007 91.7406,13.5427 76.8874,14.8532 40.628,32.7645 33.6382,36.6962 19.2218,48.4915 12.6689,57.2287 8.7372,67.2765 8.7372,79.9454 14.8532,89.5563 27.0853,96.1092 55.9181,100.041 98.7304,100.041 105.7201,98.2935 111.8362,93.9249 115.3311,89.1195 119.2628,70.3345 118.8259,34.5119 116.2048,26.6485 104.4096,11.3584 95.2355,8.7372 93.4881,11.3584" stroke="#00007f" stroke-width="2" /><polyline fill="none" points="55.4812,24.901 53.7338,35.3857 53.2969,50.6758 48.4915,63.3447 36.6962,79.5085 32.3276,81.6928 22.2799,83.4403 20.5324,86.4983" stroke="#7cff79" stroke-width="2" /><polyline fill="none" points="76.4505,9.6109 76.8874,13.9795 85.6246,38.4437 90.8669,70.3345 96.5461,87.8089 100.041,93.9249 104.4096,98.2935 111.3993,100.9147 116.2048,100.9147" stroke="#7f0000" stroke-width="2" /></svg>