<?xml version="1.0" encoding="utf-8" ?>
<svg baseProfile="tiny" height="128" version="1.2" viewBox="0,0,128,128" width="128" xmlns="http://www.w3.org/2000/svg" xmlns:ev="http://www.w3.org/2001/xml-events" xmlns:xlink="http://www.w3.org/1999/xlink"><defs /><polyline fill="none" points="50.3322,8.678 37.7492,13.8847 29.0712,19.9593 22.9966,25.6 13.8847,39.9186 8.678,53.3695 9.5458,62.4814 14.3186,75.4983 18.2237,81.5729 21.261,83.3085 34.7119,90.6847 47.2949,92.8542 60.7458,92.8542 80.2712,88.9492 88.5153,85.9119 91.1186,83.7424 105.8712,76.3661 116.2847,60.3119 119.322,51.2 117.5864,47.7288 110.6441,41.2203 96.7593,35.5797 73.7627,23.4305 59.4441,19.9593 45.5593,11.7153 53.8034,31.6746 54.6712,41.2203 53.8034,49.4644 49.0305,59.878 39.4847,75.4983 31.6746,82.0068 27.3356,88.9492 22.5627,91.9864 31.2407,81.139 37.3153,77.2339 40.3525,72.0271" stroke="#00007f" stroke-width="2" /><polyline fill="none" points="68.5559,22.5627 61.1797,55.1051 59.878,75.9322 61.6136,85.0441 64.6508,92.4203 72.0271,101.0983 81.139,103.7017 93.722,103.2678" stroke="#7f0000" stroke-width="2" /></svg>