<?xml version="1.0" encoding="utf-8" ?>
<svg baseProfile="tiny" height="128" version="1.2" viewBox="0,0,128,128" width="128" xmlns="http://www.w3.org/2000/svg" xmlns:ev="http://www.w3.org/2001/xml-events" xmlns:xlink="http://www.w3.org/1999/xlink"><defs /><polyline fill="none" points="43.3898,70.2915 36.4475,69.4237 27.7695,65.9525 12.1492,54.6712 9.1119,49.4644 8.678,45.9932 13.8847,37.7492 36.8814,19.9593 58.5763,9.5458 68.122,8.678 78.5356,9.9797 96.3254,19.0915 104.5695,25.6 110.6441,32.9763 118.0203,47.2949 119.322,55.9729 118.4542,63.7831 116.2847,69.4237 111.9458,73.7627 104.5695,77.6678 88.0814,82.8746 66.3864,84.1763 50.3322,78.9695 36.4475,68.9898 34.278,63.7831" stroke="#00007f" stroke-width="2" /><polyline fill="none" points="46.4271,16.0542 49.0305,22.5627 63.3492,42.522 66.8203,50.3322 68.122,62.4814 65.9525,84.1763" stroke="#00d4ff" stroke-width="2" /><polyline fill="none" points="68.9898,9.5458 77.6678,24.7322 94.5898,47.7288 96.7593,53.3695 96.7593,59.0102 89.3831,75.0644 87.2136,84.6102" stroke="#ffe500" stroke-width="2" /><polyline fill="none" points="92.8542,19.9593 99.7966,32.1085 103.7017,45.1254 105.0034,59.878 102.4,73.7627" stroke="#7f0000" stroke-width="2" /></svg>