<?xml version="1.0" encoding="utf-8" ?>
<svg baseProfile="tiny" height="128" version="1.2" viewBox="0,0,128,128" width="128" xmlns="http://www.w3.org/2000/svg" xmlns:ev="http://www.w3.org/2001/xml-events" xmlns:xlink="http://www.w3.org/1999/xlink"><defs /><polyline fill="none" points="50.7661,13.4508 46.861,13.4508 41.6542,15.6203 34.278,21.6949 24.7322,30.8068 15.6203,43.8237 9.5458,62.0475 8.678,94.1559 9.5458,97.6271 14.7525,106.3051 31.6746,115.4169 45.5593,119.322 62.4814,119.322 76.3661,109.3424 88.5153,94.5898 101.5322,64.2169 105.4373,48.5966 106.3051,32.9763 105.4373,29.5051 96.3254,23.8644 58.5763,8.678 54.6712,8.678 44.6915,15.6203" stroke="#00007f" stroke-width="2" /><polyline fill="none" points="47.2949,15.6203 43.3898,17.3559 37.3153,34.7119 37.7492,50.7661 45.9932,53.3695 53.8034,53.3695 61.6136,50.3322 63.3492,46.4271 75.9322,53.3695 83.7424,54.6712 97.6271,47.7288" stroke="#7f0000" stroke-width="2" /></svg>