<?xml version="1.0" encoding="utf-8" ?>
<svg baseProfile="tiny" height="128" version="1.2" viewBox="0,0,128,128" width="128" xmlns="http://www.w3.org/2000/svg" xmlns:ev="http://www.w3.org/2001/xml-events" xmlns:xlink="http://www.w3.org/1999/xlink"><defs /><polyline fill="none" points="74.1966,9.9797 70.2915,8.678 59.878,8.678 56.8407,9.9797 40.3525,19.0915 29.5051,28.2034 22.5627,35.5797 16.4881,46.4271 14.3186,50.7661 12.5831,63.7831 12.5831,88.5153 13.8847,93.2881 16.4881,100.6644 20.8271,107.1729 30.8068,114.1153 46.4271,118.8881 62.4814,119.322 75.4983,115.4169 90.6847,106.3051 98.4949,96.3254 111.5119,71.5932 111.9458,45.5593 109.7763,36.4475 104.1356,29.5051 90.2508,22.1288 74.1966,16.922" stroke="#00007f" stroke-width="2" /><polyline fill="none" points="41.6542,24.7322 34.278,30.8068 31.2407,37.7492 31.2407,44.6915 35.1458,52.5017 42.0881,57.7085 59.0102,62.9153 77.2339,64.2169 94.5898,59.878 104.5695,53.3695" stroke="#0000ff" stroke-width="2" /><polyline fill="none" points="8.678,98.4949 10.8475,95.4576 21.261,89.8169 32.5424,89.3831 43.8237,94.1559 57.7085,105.0034 64.2169,116.7186" stroke="#0080ff" stroke-width="2" /><polyline fill="none" points="57.7085,116.7186 58.5763,98.4949" stroke="#15ffe1" stroke-width="2" /><polyline fill="none" points="45.9932,103.2678 44.2576,87.6475" stroke="#7cff79" stroke-width="2" /><polyline fill="none" points="26.9017,101.0983 18.2237,74.1966" stroke="#e4ff12" stroke-width="2" /><polyline fill="none" points="24.2983,54.6712 36.0136,39.0508" stroke="#ff9400" stroke-width="2" /><polyline fill="none" points="56.4068,61.6136 75.4983,37.7492" stroke="#ff1d00" stroke-width="2" /><polyline fill="none" points="79.4034,60.3119 79.4034,60.3119" stroke="#7f0000" stroke-width="2" /></svg>