<?xml version="1.0" encoding="utf-8" ?>
<svg baseProfile="tiny" height="128" version="1.2" viewBox="0,0,128,128" width="128" xmlns="http://www.w3.org/2000/svg" xmlns:ev="http://www.w3.org/2001/xml-events" xmlns:xlink="http://www.w3.org/1999/xlink"><defs /><polyline fill="none" points="101.8776,24.381 88.8163,16.9796 77.4966,14.3673 64.8707,13.0612 50.9388,13.0612 39.1837,15.6735 28.2993,21.3333 19.5918,28.7347 13.4966,36.5714 9.5782,46.585 8.7075,70.5306 13.0612,82.2857 20.0272,91.4286 30.4762,97.5238 41.3605,100.1361 64.8707,101.4422 86.2041,100.1361 95.7823,97.5238 104.0544,92.7347 115.3741,81.415 117.551,75.3197 119.2925,68.3537 119.2925,52.2449 112.7619,34.3946 105.7959,25.6871 97.0884,18.2857" stroke="#00007f" stroke-width="2" /><polyline fill="none" points="50.9388,8.7075 51.3741,30.4762 47.4558,48.7619 43.5374,59.2109 35.7007,73.5782 20.898,81.415" stroke="#7cff79" stroke-width="2" /><polyline fill="none" points="54.8571,10.8844 59.2109,10.8844 64.0,13.4966 76.6259,23.0748 93.1701,53.551 100.1361,70.5306 112.3265,82.2857 115.3741,83.5918" stroke="#7f0000" stroke-width="2" /></svg>