<?xml version="1.0" encoding="utf-8" ?>
<svg baseProfile="tiny" height="128" version="1.2" viewBox="0,0,128,128" width="128" xmlns="http://www.w3.org/2000/svg" xmlns:ev="http://www.w3.org/2001/xml-events" xmlns:xlink="http://www.w3.org/1999/xlink"><defs /><polyline fill="none" points="84.898,11.3197 80.1088,9.1429 67.483,8.7075 47.4558,13.932 30.0408,23.9456 19.1565,35.2653 14.3673,43.5374 8.7075,58.3401 8.7075,68.3537 10.0136,77.0612 16.5442,86.6395 25.2517,94.4762 39.619,102.7483 57.4694,107.102 67.9184,105.3605 83.1565,100.1361 93.1701,94.0408 106.2313,80.1088 115.3741,66.1769 119.2925,51.3741 118.4218,42.6667 111.0204,31.3469 97.5238,20.898 83.1565,14.8027" stroke="#00007f" stroke-width="2" /><polyline fill="none" points="77.932,12.6259 75.7551,40.9252 70.0952,49.1973 60.0816,55.2925 33.0884,63.5646 16.5442,66.6122" stroke="#0010ff" stroke-width="2" /><polyline fill="none" points="73.5782,50.5034 67.0476,55.7279 64.0,64.4354 65.3061,74.449 69.2245,79.6735 77.0612,86.2041 88.8163,91.4286 96.6531,92.7347 112.3265,90.5578" stroke="#00a4ff" stroke-width="2" /><polyline fill="none" points="20.898,68.3537 24.8163,62.6939" stroke="#3fffb7" stroke-width="2" /><polyline fill="none" points="37.4422,49.1973 38.7483,56.1633" stroke="#b7ff3f" stroke-width="2" /><polyline fill="none" points="16.1088,65.3061 17.415,68.7891 21.7687,71.4014 26.5578,67.483 29.6054,58.3401 35.2653,65.3061 37.4422,63.5646 40.4898,56.5986 41.7959,56.1633 46.1497,59.6463 51.3741,60.9524 55.2925,57.4694 58.3401,47.8912 67.483,45.7143" stroke="#ffb900" stroke-width="2" /><polyline fill="none" points="64.8707,48.3265 82.2857,46.585 77.932,42.2313 67.483,38.3129 67.9184,36.1361 80.1088,28.7347 80.1088,26.9932 77.932,25.6871 72.2721,25.6871" stroke="#ff3000" stroke-width="2" /><polyline fill="none" points="75.7551,66.6122 62.6939,78.8027" stroke="#7f0000" stroke-width="2" /></svg>