<?xml version="1.0" encoding="utf-8" ?>
<svg baseProfile="tiny" height="128" version="1.2" viewBox="0,0,128,128" width="128" xmlns="http://www.w3.org/2000/svg" xmlns:ev="http://www.w3.org/2001/xml-events" xmlns:xlink="http://www.w3.org/1999/xlink"><defs /><polyline fill="none" points="107.1729,34.7119 98.9288,22.1288 89.8169,13.8847 78.1017,8.678 62.0475,8.678 52.0678,11.7153 28.2034,22.5627 15.1864,30.3729 12.1492,35.5797 9.9797,43.8237 8.678,58.5763 16.0542,79.4034 21.6949,86.7797 36.0136,98.4949 45.9932,100.6644 65.0847,99.7966 86.7797,93.2881 101.5322,86.3458 109.7763,79.4034 113.2475,73.7627 117.5864,59.878 119.322,51.2 118.8881,35.5797 111.9458,19.5254 106.3051,15.1864" stroke="#00007f" stroke-width="2" /><polyline fill="none" points="99.3627,19.0915 94.5898,20.8271 90.6847,26.0339 88.5153,29.0712 86.7797,38.1831 87.2136,43.3898 89.3831,46.4271 98.4949,69.4237 98.4949,85.478" stroke="#0010ff" stroke-width="2" /><polyline fill="none" points="26.4678,22.9966 30.8068,25.6 41.6542,39.4847 48.1627,52.9356 48.5966,65.9525 47.2949,72.8949 39.0508,88.5153 35.5797,89.3831" stroke="#00a4ff" stroke-width="2" /><polyline fill="none" points="29.0712,38.6169 34.7119,36.4475 48.5966,36.4475" stroke="#3fffb7" stroke-width="2" /><polyline fill="none" points="38.1831,58.5763 44.6915,61.6136 45.5593,63.3492" stroke="#b7ff3f" stroke-width="2" /><polyline fill="none" points="44.2576,74.1966 50.3322,72.461" stroke="#ffb900" stroke-width="2" /><polyline fill="none" points="89.8169,39.9186 85.0441,41.6542 81.139,45.1254" stroke="#ff3000" stroke-width="2" /><polyline fill="none" points="92.4203,59.4441 92.4203,59.4441" stroke="#7f0000" stroke-width="2" /></svg>