<?xml version="1.0" encoding="utf-8" ?>
<svg baseProfile="tiny" height="128" version="1.2" viewBox="0,0,128,128" width="128" xmlns="http://www.w3.org/2000/svg" xmlns:ev="http://www.w3.org/2001/xml-events" xmlns:xlink="http://www.w3.org/1999/xlink"><defs /><polyline fill="none" points="64.4354,8.7075 56.1633,8.7075 43.102,12.6259 30.9116,19.5918 23.5102,26.5578 17.415,34.3946 11.3197,45.7143 8.7075,58.7755 9.1429,72.2721 12.6259,84.4626 18.2857,95.7823 29.6054,107.5374 43.5374,115.8095 59.6463,119.2925 78.3673,117.1156 94.4762,111.0204 106.6667,101.8776 113.1973,92.2993 117.551,80.1088 116.6803,62.2585 111.8912,48.3265 100.5714,31.3469 89.2517,20.4626 76.1905,13.4966 64.8707,12.1905" stroke="#00007f" stroke-width="2" /><polyline fill="none" points="73.1429,19.1565 67.9184,32.2177 67.483,44.4082 68.7891,57.034 74.8844,74.0136 81.415,83.5918 89.6871,90.5578 100.1361,96.2177 112.7619,99.7007" stroke="#0028ff" stroke-width="2" /><polyline fill="none" points="29.6054,15.6735 37.4422,28.7347 41.7959,41.7959 43.5374,60.9524 41.3605,74.0136 37.4422,83.5918 30.9116,90.1224 20.898,94.0408 9.5782,96.2177" stroke="#00d4ff" stroke-width="2" /><polyline fill="none" points="23.9456,39.619 45.7143,38.3129" stroke="#7cff79" stroke-width="2" /><polyline fill="none" points="29.6054,57.034 39.619,58.7755" stroke="#ffe500" stroke-width="2" /><polyline fill="none" points="33.5238,74.0136 39.619,76.1905" stroke="#ff4600" stroke-width="2" /><polyline fill="none" points="15.2381,90.9932 23.9456,91.4286" stroke="#7f0000" stroke-width="2" /></svg>