<?xml version="1.0" encoding="utf-8" ?>
<svg baseProfile="tiny" height="128" version="1.2" viewBox="0,0,128,128" width="128" xmlns="http://www.w3.org/2000/svg" xmlns:ev="http://www.w3.org/2001/xml-events" xmlns:xlink="http://www.w3.org/1999/xlink"><defs /><polyline fill="none" points="92.8542,8.678 84.6102,12.1492 76.8,22.1288 72.8949,32.1085 72.461,41.6542 73.3288,49.0305 78.1017,56.8407 85.478,63.3492 96.3254,67.6881 105.0034,67.6881 112.3797,62.9153 117.1525,56.4068 119.322,41.6542 118.4542,31.6746 113.2475,19.0915 108.0407,12.1492 100.6644,9.1119 92.4203,9.1119" stroke="#00007f" stroke-width="2" /><polyline fill="none" points="78.5356,20.8271 85.478,29.5051 94.1559,31.6746 103.7017,30.8068 109.7763,27.3356 112.8136,22.5627" stroke="#004cff" stroke-width="2" /><polyline fill="none" points="86.7797,61.1797 90.2508,56.4068 97.6271,52.5017 103.2678,51.6339 107.6068,52.9356" stroke="#29ffcd" stroke-width="2" /><polyline fill="none" points="74.1966,32.5424 79.8373,36.0136 83.3085,39.9186 83.3085,47.7288 81.139,50.7661" stroke="#cdff29" stroke-width="2" /><polyline fill="none" points="114.5492,32.1085 110.6441,38.1831 110.2102,43.8237 112.8136,46.861 116.2847,48.5966" stroke="#ff6700" stroke-width="2" /><polyline fill="none" points="68.5559,95.8915 60.7458,91.5525 31.2407,62.9153 12.1492,37.7492 9.5458,29.0712 8.678,22.5627 11.7153,20.8271 15.1864,21.261 23.8644,27.3356 55.539,62.9153 63.7831,74.6305" stroke="#7f0000" stroke-width="2" /></svg>