<?xml version="1.0" encoding="utf-8" ?>
<svg baseProfile="tiny" height="128" version="1.2" viewBox="0,0,128,128" width="128" xmlns="http://www.w3.org/2000/svg" xmlns:ev="http://www.w3.org/2001/xml-events" xmlns:xlink="http://www.w3.org/1999/xlink"><defs /><polyline fill="none" points="88.0814,16.922 85.478,12.1492 74.1966,8.678 65.5186,8.678 54.6712,10.8475 43.3898,15.1864 33.4102,19.5254 19.0915,30.8068 10.8475,42.9559 9.1119,47.7288 8.678,57.2746 10.8475,68.5559 21.6949,90.2508 30.3729,98.061 42.9559,105.0034 64.2169,110.6441 89.8169,111.5119 101.0983,108.4746 106.3051,105.4373 112.8136,97.1932 116.7186,84.6102 119.322,39.4847 114.5492,29.0712 106.739,20.8271 98.061,16.0542 88.0814,14.3186 80.7051,14.3186 78.9695,15.6203" stroke="#00007f" stroke-width="2" /><polyline fill="none" points="36.4475,20.3932 46.861,29.939" stroke="#0000d5" stroke-width="2" /><polyline fill="none" points="53.8034,39.0508 60.3119,39.9186 66.8203,43.8237" stroke="#001cff" stroke-width="2" /><polyline fill="none" points="77.6678,58.1424 87.6475,64.2169" stroke="#006cff" stroke-width="2" /><polyline fill="none" points="94.1559,73.7627 99.7966,78.5356" stroke="#00b8ff" stroke-width="2" /><polyline fill="none" points="99.7966,91.1186 110.2102,94.1559 115.4169,98.061" stroke="#1cffda" stroke-width="2" /><polyline fill="none" points="42.9559,97.1932 52.5017,88.9492" stroke="#5cff9a" stroke-width="2" /><polyline fill="none" points="56.4068,87.2136 62.0475,84.6102 69.4237,78.9695" stroke="#9aff5c" stroke-width="2" /><polyline fill="none" points="76.8,65.9525 84.6102,59.4441" stroke="#daff1c" stroke-width="2" /><polyline fill="none" points="91.5525,52.9356 102.4,45.5593 102.4,46.861" stroke="#ffcb00" stroke-width="2" /><polyline fill="none" points="112.3797,36.4475 113.6814,33.8441 117.5864,33.4102" stroke="#ff8500" stroke-width="2" /><polyline fill="none" points="16.922,67.2542 34.7119,58.5763" stroke="#ff3b00" stroke-width="2" /><polyline fill="none" points="37.7492,57.7085 47.2949,54.6712" stroke="#d50000" stroke-width="2" /><polyline fill="none" points="59.0102,52.5017 65.0847,51.6339 72.461,46.861" stroke="#7f0000" stroke-width="2" /></svg>