<?xml version="1.0" encoding="utf-8" ?>
<svg baseProfile="tiny" height="128" version="1.2" viewBox="0,0,128,128" width="128" xmlns="http://www.w3.org/2000/svg" xmlns:ev="http://www.w3.org/2001/xml-events" xmlns:xlink="http://www.w3.org/1999/xlink"><defs /><polyline fill="none" points="54.6712,78.1017 54.6712,78.1017" stroke="#00007f" stroke-width="2" /><polyline fill="none" points="98.061,16.0542 77.6678,9.9797 52.0678,8.678 37.3153,13.4508 25.6,21.261 19.0915,32.9763 14.3186,46.4271 13.0169,64.6508 18.2237,76.8 30.3729,88.0814 39.9186,91.9864 52.5017,94.5898 66.8203,94.5898 78.5356,92.8542 87.6475,89.8169 96.3254,84.6102 107.1729,74.6305 111.5119,67.2542 114.5492,56.8407 114.9831,44.6915 113.2475,32.5424 111.9458,27.7695 107.6068,21.6949 99.7966,16.4881 94.1559,15.1864 92.4203,13.0169" stroke="#0000d1" stroke-width="2" /><polyline fill="none" points="8.678,51.2 11.2814,49.4644 31.6746,47.2949 43.3898,47.2949 56.8407,50.7661 75.0644,62.0475 88.9492,72.8949 94.1559,78.9695 96.3254,86.7797" stroke="#0010ff" stroke-width="2" /><polyline fill="none" points="28.2034,47.2949 34.278,33.8441" stroke="#0058ff" stroke-width="2" /><polyline fill="none" points="48.5966,51.2 51.6339,49.4644 58.1424,39.4847" stroke="#00a4ff" stroke-width="2" /><polyline fill="none" points="59.4441,63.3492 61.1797,62.9153 65.0847,59.4441" stroke="#05ecf1" stroke-width="2" /><polyline fill="none" points="75.0644,66.8203 79.8373,65.0847 89.3831,54.2373" stroke="#3fffb7" stroke-width="2" /><polyline fill="none" points="88.0814,79.8373 95.8915,70.2915" stroke="#7cff79" stroke-width="2" /><polyline fill="none" points="43.3898,9.9797 49.4644,17.7898 55.9729,23.4305 73.7627,32.5424 88.5153,36.0136 100.6644,36.8814 108.9085,36.4475 119.322,33.4102" stroke="#b7ff3f" stroke-width="2" /><polyline fill="none" points="62.9153,14.7525 59.0102,24.7322" stroke="#f1fc05" stroke-width="2" /><polyline fill="none" points="74.6305,21.261 75.0644,30.8068" stroke="#ffb900" stroke-width="2" /><polyline fill="none" points="84.6102,26.9017 84.6102,39.4847" stroke="#ff7300" stroke-width="2" /><polyline fill="none" points="103.2678,23.8644 105.0034,29.0712" stroke="#ff3000" stroke-width="2" /><polyline fill="none" points="111.078,32.9763 111.078,32.9763" stroke="#d10000" stroke-width="2" /><polyline fill="none" points="50.7661,12.5831 42.9559,22.9966" stroke="#7f0000" stroke-width="2" /></svg>