<?xml version="1.0" encoding="utf-8" ?>
<svg baseProfile="tiny" height="128" version="1.2" viewBox="0,0,128,128" width="128" xmlns="http://www.w3.org/2000/svg" xmlns:ev="http://www.w3.org/2001/xml-events" xmlns:xlink="http://www.w3.org/1999/xlink"><defs /><polyline fill="none" points="74.1966,15.1864 67.2542,11.2814 61.1797,9.5458 46.4271,9.1119 40.7864,11.2814 32.1085,16.4881 22.9966,25.1661 12.1492,40.3525 8.678,58.5763 9.5458,79.4034 13.4508,92.4203 16.4881,98.4949 25.1661,108.9085 30.8068,112.8136 44.6915,117.5864 68.122,117.5864 83.7424,112.3797 96.7593,105.0034 101.9661,100.2305 109.3424,88.5153 111.9458,76.8 112.3797,64.6508 110.2102,53.3695 105.8712,42.9559 95.4576,28.2034 88.0814,20.8271 80.2712,16.0542 66.8203,10.8475" stroke="#00007f" stroke-width="2" /><polyline fill="none" points="54.6712,8.678 46.861,13.8847 39.0508,22.9966 31.2407,34.7119 25.1661,49.8983 21.261,66.8203 18.2237,91.9864 19.0915,103.2678 24.7322,113.2475" stroke="#00d4ff" stroke-width="2" /><polyline fill="none" points="54.6712,9.1119 67.2542,18.2237 76.3661,28.2034 89.3831,48.1627 93.2881,57.2746 97.1932,82.4407 97.1932,112.3797" stroke="#ffe500" stroke-width="2" /><polyline fill="none" points="59.0102,9.5458 56.4068,18.2237 55.1051,29.939 55.1051,102.8339 61.6136,115.4169 62.0475,119.322" stroke="#7f0000" stroke-width="2" /></svg>