<?xml version="1.0" encoding="utf-8" ?>
<svg baseProfile="tiny" height="128" version="1.2" viewBox="0,0,128,128" width="128" xmlns="http://www.w3.org/2000/svg" xmlns:ev="http://www.w3.org/2001/xml-events" xmlns:xlink="http://www.w3.org/1999/xlink"><defs /><polyline fill="none" points="104.4898,20.0272 80.1088,13.0612 63.5646,13.0612 49.6327,18.2857 30.9116,30.0408 16.9796,40.9252 8.7075,52.6803 9.1429,70.966 13.0612,78.8027 17.8503,84.898 30.9116,95.3469 59.6463,101.0068 81.8503,102.7483 104.4898,98.3946 114.9388,94.0408 117.9864,90.1224 119.2925,74.8844 118.8571,55.7279 117.551,39.1837 112.3265,23.5102 110.1497,19.1565 106.6667,16.9796 84.0272,8.7075" stroke="#00007f" stroke-width="2" /><polyline fill="none" points="36.1361,24.8163 40.4898,27.8639 43.102,32.6531 47.0204,50.9388 50.068,80.1088 49.1973,106.2313" stroke="#0080ff" stroke-width="2" /><polyline fill="none" points="86.6395,16.1088 80.9796,22.6395 77.0612,32.2177 76.6259,76.1905 79.6735,87.5102 84.898,98.8299 87.5102,101.0068" stroke="#7cff79" stroke-width="2" /><polyline fill="none" points="90.5578,15.6735 88.381,26.9932 89.2517,55.7279 91.4286,63.5646 91.4286,73.5782 94.9116,82.2857 96.2177,97.5238" stroke="#ff9400" stroke-width="2" /><polyline fill="none" points="34.3946,28.2993 40.4898,34.8299 41.3605,43.102 39.619,53.9864 32.6531,76.1905 32.6531,88.8163 30.4762,97.0884" stroke="#7f0000" stroke-width="2" /></svg>