<?xml version="1.0" encoding="utf-8" ?>
<svg baseProfile="tiny" height="128" version="1.2" viewBox="0,0,128,128" width="128" xmlns="http://www.w3.org/2000/svg" xmlns:ev="http://www.w3.org/2001/xml-events" xmlns:xlink="http://www.w3.org/1999/xlink"><defs /><polyline fill="none" points="97.1932,13.4508 81.5729,10.8475 55.1051,10.4136 36.8814,15.6203 27.7695,22.1288 20.3932,34.278 16.922,43.3898 12.5831,57.7085 8.678,82.4407 9.1119,95.4576 11.2814,98.9288 20.8271,106.739 34.278,110.6441 55.1051,113.6814 97.6271,113.6814 104.1356,111.9458 113.2475,105.8712 117.1525,96.7593 118.8881,83.3085 119.322,52.9356 118.0203,42.0881 115.4169,33.4102 104.5695,14.7525 95.4576,10.4136 89.3831,10.4136" stroke="#00007f" stroke-width="2" /><polyline fill="none" points="91.1186,8.678 93.722,20.3932 94.5898,34.7119 92.4203,37.3153 79.8373,46.4271 65.5186,50.3322 58.1424,54.6712 47.7288,74.1966 43.8237,94.5898 40.7864,99.3627 36.0136,103.2678" stroke="#7f0000" stroke-width="2" /></svg>