<?xml version="1.0" encoding="utf-8" ?>
<svg baseProfile="tiny" height="128" version="1.2" viewBox="0,0,128,128" width="128" xmlns="http://www.w3.org/2000/svg" xmlns:ev="http://www.w3.org/2001/xml-events" xmlns:xlink="http://www.w3.org/1999/xlink"><defs /><polyline fill="none" points="71.4014,10.8844 57.9048,8.7075 45.7143,10.8844 32.6531,18.2857 23.0748,29.6054 14.3673,43.5374 9.1429,58.7755 8.7075,75.3197 12.1905,90.5578 17.415,97.5238 30.0408,108.4082 44.8435,115.3741 57.4694,117.1156 73.5782,114.5034 88.381,107.9728 98.3946,100.1361 106.6667,88.8163 109.7143,77.4966 107.9728,65.7415 98.3946,44.8435 89.6871,30.4762 80.9796,18.2857 74.8844,13.4966 63.1293,10.0136 53.9864,10.0136 47.4558,11.7551 40.0544,15.6735 39.1837,17.415 42.2313,19.1565 29.1701,16.9796 23.0748,19.1565 34.8299,23.0748 43.102,27.8639 53.9864,37.8776 60.0816,48.7619 62.2585,55.2925 62.6939,62.6939 60.9524,72.7075 52.6803,89.2517 44.4082,97.9592 36.1361,104.4898 27.8639,109.2789 23.0748,109.7143 18.2857,107.102 19.5918,102.3129" stroke="#00007f" stroke-width="2" /><polyline fill="none" points="79.2381,12.6259 76.6259,16.5442 74.0136,30.0408 73.5782,50.9388 84.0272,87.9456 90.5578,96.2177 97.0884,100.5714 104.9252,103.619 119.2925,106.6667" stroke="#7f0000" stroke-width="2" /></svg>