<?xml version="1.0" encoding="utf-8" ?>
<svg baseProfile="tiny" height="128" version="1.2" viewBox="0,0,128,128" width="128" xmlns="http://www.w3.org/2000/svg" xmlns:ev="http://www.w3.org/2001/xml-events" xmlns:xlink="http://www.w3.org/1999/xlink"><defs /><polyline fill="none" points="75.0644,13.0169 67.2542,9.9797 52.9356,8.678 44.2576,10.4136 34.7119,14.3186 25.6,21.261 18.2237,29.0712 12.5831,39.0508 9.1119,49.4644 8.678,60.3119 10.4136,67.6881 18.6576,83.7424 36.0136,98.4949 47.2949,103.7017 61.6136,107.1729 73.3288,107.6068 83.7424,105.8712 93.722,102.4 103.7017,96.7593 110.2102,90.6847 116.2847,82.4407 118.4542,75.9322 119.322,67.2542 117.1525,55.9729 110.2102,41.2203 101.5322,27.3356 93.722,19.0915 84.1763,14.3186 60.7458,11.7153" stroke="#00007f" stroke-width="2" /><polyline fill="none" points="27.3356,21.261 36.4475,41.2203" stroke="#0028ff" stroke-width="2" /><polyline fill="none" points="40.3525,52.9356 36.4475,67.6881" stroke="#00d4ff" stroke-width="2" /><polyline fill="none" points="40.3525,84.6102 34.278,91.5525" stroke="#7cff79" stroke-width="2" /><polyline fill="none" points="93.722,15.1864 85.0441,26.0339 84.1763,32.9763" stroke="#ffe500" stroke-width="2" /><polyline fill="none" points="79.8373,49.8983 79.4034,54.2373 82.0068,62.0475" stroke="#ff4600" stroke-width="2" /><polyline fill="none" points="89.3831,83.7424 100.6644,101.5322" stroke="#7f0000" stroke-width="2" /></svg>