<?xml version="1.0" encoding="utf-8" ?>
<svg baseProfile="tiny" height="128" version="1.2" viewBox="0,0,128,128" width="128" xmlns="http://www.w3.org/2000/svg" xmlns:ev="http://www.w3.org/2001/xml-events" xmlns:xlink="http://www.w3.org/1999/xlink"><defs /><polyline fill="none" points="59.0102,12.5831 54.2373,11.2814 47.7288,11.7153 39.9186,15.1864 32.1085,21.261 25.1661,32.5424 14.7525,55.9729 9.5458,73.3288 8.678,82.8746 10.8475,98.4949 18.6576,110.6441 24.2983,114.9831 38.1831,119.322 46.861,119.322 61.6136,115.4169 68.5559,111.078 74.1966,105.8712 82.4407,92.8542 86.3458,76.8 86.3458,67.6881 83.7424,51.6339 69.4237,22.1288 61.6136,11.7153 57.7085,8.678" stroke="#00007f" stroke-width="2" /><polyline fill="none" points="24.7322,30.3729 31.6746,39.0508 39.0508,52.9356 42.0881,62.4814 43.8237,79.4034 42.522,85.9119 35.1458,102.4 26.9017,114.9831 23.4305,119.322 21.6949,117.5864" stroke="#7cff79" stroke-width="2" /><polyline fill="none" points="73.7627,22.1288 59.4441,23.4305 57.2746,25.1661 56.8407,31.2407 60.3119,68.9898 59.0102,105.0034 60.3119,108.4746 64.6508,111.5119 75.0644,110.2102" stroke="#7f0000" stroke-width="2" /></svg>