<?xml version="1.0" encoding="utf-8" ?>
<svg baseProfile="tiny" height="128" version="1.2" viewBox="0,0,128,128" width="128" xmlns="http://www.w3.org/2000/svg" xmlns:ev="http://www.w3.org/2001/xml-events" xmlns:xlink="http://www.w3.org/1999/xlink"><defs /><polyline fill="none" points="102.4,10.8475 98.061,8.678 92.4203,9.9797 89.8169,15.6203 90.2508,18.2237 93.722,21.6949 98.9288,22.9966 101.9661,20.8271 102.8339,15.1864 99.7966,9.5458" stroke="#00007f" stroke-width="2" /><polyline fill="none" points="119.322,15.1864 110.2102,15.6203" stroke="#0000fe" stroke-width="2" /><polyline fill="none" points="110.6441,12.5831 108.0407,12.5831 105.8712,15.6203 111.9458,17.7898" stroke="#0060ff" stroke-width="2" /><polyline fill="none" points="48.5966,17.7898 72.461,61.6136 77.2339,65.0847 78.9695,59.878 78.5356,53.3695 69.4237,30.8068 65.0847,23.8644 60.7458,19.5254 51.6339,15.6203 48.5966,17.7898 48.1627,21.6949" stroke="#00d4ff" stroke-width="2" /><polyline fill="none" points="76.3661,66.8203 76.3661,66.8203" stroke="#4cffaa" stroke-width="2" /><polyline fill="none" points="75.4983,63.7831 77.6678,70.7254 78.9695,71.1593 82.4407,68.5559 82.8746,65.9525 82.0068,62.9153 79.4034,62.4814" stroke="#aaff4c" stroke-width="2" /><polyline fill="none" points="35.5797,28.2034 26.0339,36.4475 19.0915,47.2949" stroke="#ffe500" stroke-width="2" /><polyline fill="none" points="36.4475,33.8441 30.8068,38.6169 17.7898,57.2746 15.6203,62.9153" stroke="#ff7a00" stroke-width="2" /><polyline fill="none" points="39.4847,44.6915 27.3356,57.7085 8.678,88.9492" stroke="#fe1200" stroke-width="2" /><polyline fill="none" points="49.8983,57.2746 48.5966,63.7831 41.2203,77.2339 39.0508,84.1763" stroke="#7f0000" stroke-width="2" /></svg>