<?xml version="1.0" encoding="utf-8" ?>
<svg baseProfile="tiny" height="128" version="1.2" viewBox="0,0,128,128" width="128" xmlns="http://www.w3.org/2000/svg" xmlns:ev="http://www.w3.org/2001/xml-events" xmlns:xlink="http://www.w3.org/1999/xlink"><defs /><polyline fill="none" points="23.4305,115.8508 17.3559,107.1729 9.1119,61.1797 8.678,32.5424 10.4136,23.8644 18.6576,13.0169 23.4305,9.1119 27.7695,8.678 45.9932,9.5458 50.3322,10.8475 63.7831,20.3932 72.461,30.8068 77.2339,45.5593 77.2339,84.6102 74.6305,92.4203 68.5559,104.1356 61.1797,111.078 51.2,116.7186 40.7864,119.322 31.2407,119.322 27.3356,118.4542 22.1288,114.5492" stroke="#00007f" stroke-width="2" /><polyline fill="none" points="36.8814,16.4881 43.8237,34.7119 47.7288,51.2 49.0305,70.7254 47.7288,95.8915 45.9932,104.1356 40.3525,118.8881" stroke="#0080ff" stroke-width="2" /><polyline fill="none" points="65.0847,25.6 62.0475,29.939 55.539,52.5017 52.5017,72.461 53.3695,92.4203 55.539,98.9288 62.9153,109.7763" stroke="#7cff79" stroke-width="2" /><polyline fill="none" points="22.5627,60.7458 75.9322,60.7458" stroke="#ff9400" stroke-width="2" /><polyline fill="none" points="22.5627,80.7051 37.7492,80.2712 64.2169,82.8746 80.7051,82.0068" stroke="#7f0000" stroke-width="2" /></svg>