<?xml version="1.0" encoding="utf-8" ?>
<svg baseProfile="tiny" height="128" version="1.2" viewBox="0,0,128,128" width="128" xmlns="http://www.w3.org/2000/svg" xmlns:ev="http://www.w3.org/2001/xml-events" xmlns:xlink="http://www.w3.org/1999/xlink"><defs /><polyline fill="none" points="53.8034,108.0407 53.3695,109.7763" stroke="#00007f" stroke-width="2" /><polyline fill="none" points="13.8847,21.261 17.7898,16.922 28.6373,10.4136 62.9153,8.678 77.2339,13.4508 98.9288,26.0339 105.4373,36.4475 116.2847,59.0102 119.322,70.7254 118.0203,77.2339 109.3424,95.8915 103.2678,103.7017 92.8542,110.2102 71.5932,113.6814 55.1051,113.2475 46.861,111.5119 41.2203,108.9085 28.2034,98.9288 22.1288,91.5525 10.4136,64.6508 8.678,54.2373 9.1119,42.9559 11.2814,36.8814 18.6576,27.7695 38.6169,11.7153" stroke="#00d4ff" stroke-width="2" /><polyline fill="none" points="33.8441,12.1492 41.6542,21.261 52.5017,40.3525 55.9729,49.4644 56.8407,60.7458 56.4068,68.5559 47.2949,91.5525 40.7864,100.6644" stroke="#ffe500" stroke-width="2" /><polyline fill="none" points="103.2678,19.0915 99.3627,29.939 93.722,40.3525 89.3831,55.539 89.8169,79.8373 92.8542,89.3831 104.5695,106.739 115.8508,111.078" stroke="#7f0000" stroke-width="2" /></svg>