<?xml version="1.0" encoding="utf-8" ?>
<svg baseProfile="tiny" height="128" version="1.2" viewBox="0,0,128,128" width="128" xmlns="http://www.w3.org/2000/svg" xmlns:ev="http://www.w3.org/2001/xml-events" xmlns:xlink="http://www.w3.org/1999/xlink"><defs /><polyline fill="none" points="8.678,105.8712 12.1492,85.478 19.9593,62.4814 32.1085,40.7864 39.0508,34.278 52.0678,25.6 69.4237,18.6576 94.1559,18.6576 102.4,19.9593 110.6441,26.9017 115.8508,36.8814 117.5864,43.8237 117.5864,72.0271 115.8508,85.9119 112.8136,90.2508 111.078,99.3627 108.9085,102.8339 84.1763,115.8508 74.1966,119.322 41.2203,119.322 37.3153,118.0203 30.3729,117.5864 25.6,114.5492 22.1288,109.3424 18.6576,107.6068 12.1492,91.1186 12.1492,87.6475" stroke="#00007f" stroke-width="2" /><polyline fill="none" points="99.3627,102.4 82.4407,102.4 75.9322,87.6475 74.1966,80.7051 74.1966,30.8068 85.478,14.3186 92.4203,8.678" stroke="#7cff79" stroke-width="2" /><polyline fill="none" points="13.8847,99.3627 26.9017,99.3627 29.939,97.6271 36.8814,91.1186 42.0881,81.139 42.0881,71.1593 45.5593,57.7085 50.3322,47.2949 50.3322,43.8237 53.8034,40.7864 53.8034,37.7492 50.7661,35.5797 50.7661,32.1085 45.5593,30.8068" stroke="#7f0000" stroke-width="2" /></svg>