<?xml version="1.0" encoding="utf-8" ?>
<svg baseProfile="tiny" height="128" version="1.2" viewBox="0,0,128,128" width="128" xmlns="http://www.w3.org/2000/svg" xmlns:ev="http://www.w3.org/2001/xml-events" xmlns:xlink="http://www.w3.org/1999/xlink"><defs /><polyline fill="none" points="83.3085,10.4136 80.2712,8.678 67.2542,8.678 49.0305,13.0169 14.7525,36.0136 12.5831,39.0508 8.678,58.5763 8.678,76.8 16.0542,90.2508 21.261,96.3254 27.3356,101.5322 39.9186,108.0407 47.7288,110.6441 64.2169,112.3797 92.4203,107.1729 97.1932,102.4 103.2678,85.478 105.8712,59.4441 100.6644,40.3525 93.2881,26.0339 75.9322,8.678" stroke="#00007f" stroke-width="2" /><polyline fill="none" points="30.8068,26.0339 40.7864,82.4407 40.7864,111.9458 38.1831,119.322 38.1831,115.4169" stroke="#00d4ff" stroke-width="2" /><polyline fill="none" points="45.5593,20.8271 48.1627,34.7119 52.5017,45.5593 52.5017,54.2373 59.878,99.7966 59.878,117.5864" stroke="#ffe500" stroke-width="2" /><polyline fill="none" points="98.4949,27.7695 94.1559,36.4475 86.3458,65.9525 85.478,77.2339 85.478,96.7593 90.2508,111.9458" stroke="#7f0000" stroke-width="2" /></svg>