<?xml version="1.0" encoding="utf-8" ?>
<svg baseProfile="tiny" height="128" version="1.2" viewBox="0,0,128,128" width="128" xmlns="http://www.w3.org/2000/svg" xmlns:ev="http://www.w3.org/2001/xml-events" xmlns:xlink="http://www.w3.org/1999/xlink"><defs /><polyline fill="none" points="13.0169,72.0271 11.7153,77.6678 13.8847,96.7593 27.7695,112.8136 40.7864,118.4542 69.8576,119.322 76.3661,115.8508 87.2136,106.3051 91.5525,101.0983 97.6271,88.0814 105.4373,66.8203 109.7763,46.4271 108.4746,37.7492 104.1356,31.2407 96.7593,22.5627 80.7051,10.8475 74.1966,8.678 39.9186,8.678 14.3186,33.4102 10.8475,45.1254 8.678,66.8203" stroke="#00007f" stroke-width="2" /><polyline fill="none" points="73.3288,15.1864 51.6339,50.7661 42.9559,75.4983 35.5797,88.0814" stroke="#004cff" stroke-width="2" /><polyline fill="none" points="51.6339,51.6339 67.6881,53.8034" stroke="#29ffcd" stroke-width="2" /><polyline fill="none" points="58.1424,50.7661 30.3729,37.7492" stroke="#cdff29" stroke-width="2" /><polyline fill="none" points="49.4644,60.3119 60.3119,66.8203 68.9898,68.9898" stroke="#ff6700" stroke-width="2" /><polyline fill="none" points="51.6339,64.6508 29.0712,55.9729" stroke="#7f0000" stroke-width="2" /></svg>