<?xml version="1.0" encoding="utf-8" ?>
<svg baseProfile="tiny" height="128" version="1.2" viewBox="0,0,128,128" width="128" xmlns="http://www.w3.org/2000/svg" xmlns:ev="http://www.w3.org/2001/xml-events" xmlns:xlink="http://www.w3.org/1999/xlink"><defs /><polyline fill="none" points="68.122,10.8475 65.5186,9.5458 46.4271,9.9797 32.5424,14.3186 26.9017,17.3559 17.7898,26.4678 14.7525,31.6746 10.4136,45.1254 8.678,70.7254 13.0169,83.7424 28.2034,99.7966 34.278,103.7017 49.0305,109.3424 72.8949,111.078 78.9695,110.2102 84.6102,106.739 98.061,96.3254 112.3797,79.8373 117.1525,71.1593 119.322,62.9153 119.322,55.539 118.0203,52.0678 102.4,29.939 89.3831,19.5254 80.7051,14.7525 58.5763,8.678" stroke="#00007f" stroke-width="2" /><polyline fill="none" points="33.4102,16.922 37.3153,32.1085 38.6169,45.1254 38.6169,61.6136 36.4475,72.8949 31.6746,83.3085 16.922,99.3627" stroke="#7cff79" stroke-width="2" /><polyline fill="none" points="100.6644,35.1458 86.3458,49.4644 78.9695,63.7831 69.4237,95.8915 69.4237,105.8712 71.1593,108.9085" stroke="#7f0000" stroke-width="2" /></svg>