<?xml version="1.0" encoding="utf-8" ?>
<svg baseProfile="tiny" height="128" version="1.2" viewBox="0,0,128,128" width="128" xmlns="http://www.w3.org/2000/svg" xmlns:ev="http://www.w3.org/2001/xml-events" xmlns:xlink="http://www.w3.org/1999/xlink"><defs /><polyline fill="none" points="108.4746,17.3559 94.5898,11.7153 79.4034,9.5458 51.6339,8.678 44.2576,12.5831 36.4475,19.9593 19.0915,42.522 13.4508,55.1051 9.5458,65.0847 8.678,89.3831 22.1288,104.5695 34.7119,112.8136 45.1254,116.2847 65.9525,117.1525 72.8949,114.1153 85.0441,100.6644 91.5525,91.5525 96.7593,82.0068 104.5695,63.7831 106.3051,55.9729 106.3051,42.9559 103.2678,36.0136 95.4576,31.6746" stroke="#00007f" stroke-width="2" /><polyline fill="none" points="45.1254,11.7153 54.2373,15.6203 58.1424,20.3932 59.878,25.6 59.4441,42.9559 42.522,75.9322 32.5424,90.6847 19.9593,104.1356 8.678,119.322" stroke="#7cff79" stroke-width="2" /><polyline fill="none" points="94.5898,12.5831 94.5898,12.5831" stroke="#7f0000" stroke-width="2" /></svg>