<?xml version="1.0" encoding="utf-8" ?>
<svg baseProfile="tiny" height="128" version="1.2" viewBox="0,0,128,128" width="128" xmlns="http://www.w3.org/2000/svg" xmlns:ev="http://www.w3.org/2001/xml-events" xmlns:xlink="http://www.w3.org/1999/xlink"><defs /><polyline fill="none" points="102.7483,28.2993 84.898,17.415 65.7415,10.449 45.7143,10.449 42.2313,11.7551 33.0884,20.0272 21.3333,34.3946 12.1905,50.068 10.0136,57.034 8.7075,80.9796 10.8844,89.6871 16.9796,97.0884 20.898,101.4422 33.9592,109.7143 44.8435,114.9388 68.3537,116.2449 86.2041,108.4082 94.9116,103.1837 106.6667,95.3469 113.1973,87.9456 116.6803,80.5442 119.2925,64.8707 119.2925,46.1497 114.9388,39.1837 105.7959,29.1701 97.9592,23.5102 92.7347,22.2041" stroke="#00007f" stroke-width="2" /><polyline fill="none" points="36.1361,15.6735 37.8776,23.0748 37.4422,38.7483 26.9932,62.6939 25.6871,74.449 18.2857,105.7959" stroke="#0080ff" stroke-width="2" /><polyline fill="none" points="62.6939,8.7075 61.3878,21.7687 53.9864,48.7619 51.3741,68.3537 43.9728,94.4762 41.7959,114.068" stroke="#7cff79" stroke-width="2" /><polyline fill="none" points="84.898,22.2041 84.0272,25.6871 82.2857,67.483 84.898,94.9116" stroke="#ff9400" stroke-width="2" /><polyline fill="none" points="101.4422,18.7211 102.7483,32.2177 115.8095,82.7211 117.551,96.2177" stroke="#7f0000" stroke-width="2" /></svg>