<?xml version="1.0" encoding="utf-8" ?>
<svg baseProfile="tiny" height="128" version="1.2" viewBox="0,0,128,128" width="128" xmlns="http://www.w3.org/2000/svg" xmlns:ev="http://www.w3.org/2001/xml-events" xmlns:xlink="http://www.w3.org/1999/xlink"><defs /><polyline fill="none" points="24.7322,30.3729 28.6373,22.9966 36.0136,16.0542 49.0305,10.8475 72.8949,9.1119 89.3831,13.8847 101.5322,21.261 109.7763,32.5424 112.8136,40.7864 114.5492,50.3322 114.9831,67.2542 110.6441,82.4407 101.0983,97.1932 88.9492,105.0034 75.9322,110.2102 49.8983,111.078 32.5424,106.3051 18.6576,98.9288 12.1492,93.722 9.1119,86.3458 8.678,66.8203 13.8847,47.2949 27.7695,32.5424" stroke="#00007f" stroke-width="2" /><polyline fill="none" points="42.0881,13.4508 48.5966,30.3729 49.8983,38.1831 50.3322,70.2915 45.5593,90.2508 28.6373,119.322" stroke="#0028ff" stroke-width="2" /><polyline fill="none" points="72.8949,8.678 73.3288,16.922 78.5356,38.1831 80.2712,59.0102 83.3085,71.5932 88.9492,92.4203 98.9288,107.6068" stroke="#00d4ff" stroke-width="2" /><polyline fill="none" points="50.7661,24.2983 33.4102,30.8068" stroke="#7cff79" stroke-width="2" /><polyline fill="none" points="62.4814,43.3898 36.8814,49.4644" stroke="#ffe500" stroke-width="2" /><polyline fill="none" points="63.7831,84.1763 41.6542,80.2712" stroke="#ff4600" stroke-width="2" /><polyline fill="none" points="35.1458,100.2305 24.2983,101.0983" stroke="#7f0000" stroke-width="2" /></svg>