<?xml version="1.0" encoding="utf-8" ?>
<svg baseProfile="tiny" height="128" version="1.2" viewBox="0,0,128,128" width="128" xmlns="http://www.w3.org/2000/svg" xmlns:ev="http://www.w3.org/2001/xml-events" xmlns:xlink="http://www.w3.org/1999/xlink"><defs /><polyline fill="none" points="93.722,16.4881 68.5559,8.678 49.8983,9.5458 33.4102,24.7322 19.9593,46.861 11.7153,67.6881 8.678,86.3458 8.678,102.4 10.8475,107.1729 25.6,108.9085 47.7288,108.0407 97.6271,98.4949 109.7763,93.722 115.4169,70.7254 115.4169,34.278 111.9458,24.7322" stroke="#00007f" stroke-width="2" /><polyline fill="none" points="84.1763,16.4881 68.9898,30.3729 43.8237,62.0475 30.8068,85.0441 20.8271,119.322 20.8271,111.078 37.3153,81.5729 65.9525,42.9559 71.5932,36.4475 85.9119,24.7322 72.8949,35.1458 46.861,66.8203 26.0339,101.0983 21.261,114.5492 21.261,118.4542" stroke="#7cff79" stroke-width="2" /><polyline fill="none" points="89.8169,72.461 96.3254,59.4441 113.6814,39.9186 101.0983,46.861 89.8169,60.7458 73.3288,89.3831 65.9525,108.9085 67.6881,101.5322 72.461,92.4203 91.5525,62.9153 96.3254,57.2746 106.739,49.8983 97.1932,63.3492 73.3288,107.1729" stroke="#7f0000" stroke-width="2" /></svg>