<?xml version="1.0" encoding="utf-8" ?>
<svg baseProfile="tiny" height="128" version="1.2" viewBox="0,0,128,128" width="128" xmlns="http://www.w3.org/2000/svg" xmlns:ev="http://www.w3.org/2001/xml-events" xmlns:xlink="http://www.w3.org/1999/xlink"><defs /><polyline fill="none" points="90.6847,16.922 82.8746,10.8475 67.2542,8.678 49.4644,8.678 40.7864,10.8475 32.1085,15.1864 17.7898,30.3729 13.0169,39.4847 8.678,55.9729 8.678,77.2339 10.8475,88.5153 17.7898,106.739 22.9966,112.3797 32.9763,118.4542 40.3525,119.322 58.5763,118.8881 77.6678,112.3797 104.5695,96.7593 110.2102,90.2508 115.8508,76.3661 116.2847,51.6339 105.0034,35.1458 78.1017,14.7525 72.461,30.8068 71.1593,39.0508 71.1593,68.5559 75.9322,84.6102 84.6102,97.1932 90.6847,103.2678 96.3254,105.4373" stroke="#00007f" stroke-width="2" /><polyline fill="none" points="25.6,21.6949 34.7119,32.9763 39.9186,45.5593 40.7864,53.3695 40.7864,85.9119 31.2407,113.2475" stroke="#00d4ff" stroke-width="2" /><polyline fill="none" points="14.7525,37.3153 24.2983,35.1458 34.278,29.5051" stroke="#ffe500" stroke-width="2" /><polyline fill="none" points="25.1661,58.5763 35.1458,58.1424 44.6915,53.3695" stroke="#7f0000" stroke-width="2" /></svg>