<?xml version="1.0" encoding="utf-8" ?>
<svg baseProfile="tiny" height="128" version="1.2" viewBox="0,0,128,128" width="128" xmlns="http://www.w3.org/2000/svg" xmlns:ev="http://www.w3.org/2001/xml-events" xmlns:xlink="http://www.w3.org/1999/xlink"><defs /><polyline fill="none" points="17.7898,106.3051 10.8475,108.0407 8.678,110.2102 9.1119,115.4169 9.9797,115.8508 16.922,117.5864 34.7119,119.322 42.9559,114.1153 41.6542,111.5119 29.939,107.6068 29.5051,106.3051 34.7119,89.3831 36.8814,63.3492 42.0881,30.3729 45.9932,16.0542 45.9932,11.2814 36.4475,9.1119 29.5051,13.0169 26.4678,18.2237 19.5254,60.7458 18.2237,86.3458 19.0915,105.8712 11.7153,108.9085" stroke="#00007f" stroke-width="2" /><polyline fill="none" points="26.4678,21.261 45.9932,21.261" stroke="#0010ff" stroke-width="2" /><polyline fill="none" points="37.7492,8.678 38.1831,15.1864 36.8814,20.8271" stroke="#00a4ff" stroke-width="2" /><polyline fill="none" points="82.4407,55.1051 83.7424,74.1966" stroke="#3fffb7" stroke-width="2" /><polyline fill="none" points="83.3085,53.8034 88.5153,54.2373 90.2508,56.4068 90.2508,62.4814 85.0441,65.0847" stroke="#b7ff3f" stroke-width="2" /><polyline fill="none" points="93.2881,55.1051 93.2881,66.3864 102.4,65.5186" stroke="#ffb900" stroke-width="2" /><polyline fill="none" points="93.2881,59.4441 98.061,56.4068" stroke="#ff3000" stroke-width="2" /><polyline fill="none" points="94.1559,57.2746 94.1559,57.2746" stroke="#7f0000" stroke-width="2" /></svg>