<?xml version="1.0" encoding="utf-8" ?>
<svg baseProfile="tiny" height="128" version="1.2" viewBox="0,0,128,128" width="128" xmlns="http://www.w3.org/2000/svg" xmlns:ev="http://www.w3.org/2001/xml-events" xmlns:xlink="http://www.w3.org/1999/xlink"><defs /><polyline fill="none" points="45.9932,11.2814 38.6169,19.0915 23.8644,26.4678 17.7898,31.2407 11.7153,40.7864 8.678,50.3322 8.678,60.3119 11.7153,65.9525 20.8271,74.1966 28.6373,77.6678 89.8169,77.6678 104.5695,76.3661 109.3424,75.0644 116.2847,70.7254 119.322,60.7458 118.8881,47.2949 115.4169,40.7864 98.4949,28.6373 72.0271,16.4881 39.9186,13.0169 36.0136,11.7153 36.0136,8.678" stroke="#00007f" stroke-width="2" /><polyline fill="none" points="43.8237,14.7525 45.9932,19.9593 55.9729,31.2407 60.7458,46.4271 61.1797,60.3119 59.4441,71.5932 55.9729,82.4407" stroke="#7cff79" stroke-width="2" /><polyline fill="none" points="75.9322,19.9593 84.1763,46.861 84.1763,72.8949 85.478,76.8 84.1763,80.7051" stroke="#7f0000" stroke-width="2" /></svg>