<?xml version="1.0" encoding="utf-8" ?>
<svg baseProfile="tiny" height="128" version="1.2" viewBox="0,0,128,128" width="128" xmlns="http://www.w3.org/2000/svg" xmlns:ev="http://www.w3.org/2001/xml-events" xmlns:xlink="http://www.w3.org/1999/xlink"><defs /><polyline fill="none" points="35.5797,19.9593 27.7695,21.261 21.6949,27.7695 13.8847,39.0508 9.1119,51.6339 8.678,78.9695 9.5458,87.6475 17.7898,103.7017 22.5627,107.6068 28.6373,111.078 44.2576,113.6814 60.3119,114.1153 74.1966,110.6441 83.7424,104.1356 91.9864,95.4576 95.0237,85.9119 95.8915,78.5356 95.0237,60.7458 91.9864,51.6339 82.0068,30.3729 72.8949,17.7898 65.0847,10.8475 58.1424,8.678 47.7288,8.678 33.8441,10.8475 31.6746,12.5831 29.939,16.4881" stroke="#00007f" stroke-width="2" /><polyline fill="none" points="26.4678,53.8034 26.4678,68.122 24.7322,72.8949 22.1288,75.9322" stroke="#004cff" stroke-width="2" /><polyline fill="none" points="34.7119,53.8034 34.7119,71.1593" stroke="#29ffcd" stroke-width="2" /><polyline fill="none" points="74.6305,51.6339 74.6305,62.9153 79.8373,68.9898" stroke="#cdff29" stroke-width="2" /><polyline fill="none" points="81.5729,55.539 81.5729,61.1797 85.478,65.9525" stroke="#ff6700" stroke-width="2" /><polyline fill="none" points="14.7525,66.3864 85.478,66.3864 103.7017,68.122 119.322,63.7831" stroke="#7f0000" stroke-width="2" /></svg>