<?xml version="1.0" encoding="utf-8" ?>
<svg baseProfile="tiny" height="128" version="1.2" viewBox="0,0,128,128" width="128" xmlns="http://www.w3.org/2000/svg" xmlns:ev="http://www.w3.org/2001/xml-events" xmlns:xlink="http://www.w3.org/1999/xlink"><defs /><polyline fill="none" points="108.0407,31.6746 103.7017,25.1661 87.2136,17.3559 57.2746,9.5458 45.9932,8.678 31.2407,17.7898 19.9593,28.6373 13.4508,43.3898 9.1119,60.3119 9.1119,77.6678 10.4136,84.6102 13.4508,91.5525 22.9966,103.7017 39.4847,113.6814 49.8983,114.1153 61.1797,111.078 72.461,106.3051 82.8746,97.1932 114.9831,53.8034 116.7186,42.522 113.2475,39.4847 106.739,37.3153 106.3051,34.278 108.0407,26.4678" stroke="#00007f" stroke-width="2" /><polyline fill="none" points="33.8441,16.0542 36.8814,25.1661 44.6915,33.8441 56.4068,41.6542 68.9898,47.2949 86.7797,51.6339 105.8712,51.6339 119.322,47.2949" stroke="#0028ff" stroke-width="2" /><polyline fill="none" points="8.678,79.8373 25.6,78.5356 51.2,85.9119 65.5186,93.2881 68.9898,95.8915 72.461,102.8339" stroke="#00d4ff" stroke-width="2" /><polyline fill="none" points="46.4271,25.1661 38.6169,25.1661 29.0712,28.2034 29.0712,29.5051" stroke="#7cff79" stroke-width="2" /><polyline fill="none" points="61.1797,34.278 56.8407,34.278 50.7661,36.8814 47.7288,40.7864" stroke="#ffe500" stroke-width="2" /><polyline fill="none" points="78.5356,40.7864 74.6305,42.0881 72.461,51.2 72.461,54.6712 77.2339,58.5763" stroke="#ff4600" stroke-width="2" /><polyline fill="none" points="92.8542,43.8237 92.8542,57.7085" stroke="#7f0000" stroke-width="2" /></svg>