<?xml version="1.0" encoding="utf-8" ?>
<svg baseProfile="tiny" height="128" version="1.2" viewBox="0,0,128,128" width="128" xmlns="http://www.w3.org/2000/svg" xmlns:ev="http://www.w3.org/2001/xml-events" xmlns:xlink="http://www.w3.org/1999/xlink"><defs /><polyline fill="none" points="11.7551,13.0612 8.7075,17.415 10.0136,24.8163 20.898,31.3469 30.0408,31.7823 34.3946,29.6054 35.2653,24.381 34.8299,13.932 31.7823,10.0136 28.2993,8.7075 13.932,8.7075 10.0136,12.6259" stroke="#00007f" stroke-width="2" /><polyline fill="none" points="11.7551,13.4966 11.3197,14.8027" stroke="#00009f" stroke-width="2" /><polyline fill="none" points="13.4966,14.3673 13.932,15.6735" stroke="#0000bf" stroke-width="2" /><polyline fill="none" points="16.1088,14.8027 16.1088,15.6735" stroke="#0000de" stroke-width="2" /><polyline fill="none" points="18.2857,15.2381 18.7211,16.5442" stroke="#0000ff" stroke-width="2" /><polyline fill="none" points="20.898,15.6735 21.7687,16.5442" stroke="#0010ff" stroke-width="2" /><polyline fill="none" points="23.9456,15.6735 25.2517,16.5442" stroke="#002cff" stroke-width="2" /><polyline fill="none" points="26.9932,16.1088 28.2993,16.5442" stroke="#004cff" stroke-width="2" /><polyline fill="none" points="30.0408,14.8027 31.3469,15.2381" stroke="#0068ff" stroke-width="2" /><polyline fill="none" points="32.2177,13.0612 33.5238,14.3673" stroke="#0084ff" stroke-width="2" /><polyline fill="none" points="13.4966,26.1224 16.5442,24.8163" stroke="#00a4ff" stroke-width="2" /><polyline fill="none" points="17.8503,25.6871 17.8503,25.6871" stroke="#00c0ff" stroke-width="2" /><polyline fill="none" points="20.4626,23.9456 21.7687,23.5102" stroke="#00dcfe" stroke-width="2" /><polyline fill="none" points="23.0748,25.2517 25.2517,24.8163" stroke="#12fce4" stroke-width="2" /><polyline fill="none" points="27.8639,24.8163 28.7347,24.8163" stroke="#29ffcd" stroke-width="2" /><polyline fill="none" points="30.9116,26.5578 32.6531,26.5578" stroke="#3fffb7" stroke-width="2" /><polyline fill="none" points="34.3946,27.8639 34.3946,28.7347" stroke="#59ff9d" stroke-width="2" /><polyline fill="none" points="81.415,19.1565 78.3673,18.2857 74.0136,20.4626 67.9184,26.9932 64.0,37.8776 64.8707,48.7619 69.2245,53.9864 76.1905,58.3401 83.1565,60.0816 101.0068,60.0816 110.1497,56.5986 117.1156,50.068 119.2925,42.2313 118.4218,28.7347 108.4082,21.7687 93.6054,17.415 81.415,16.9796 77.0612,20.0272" stroke="#70ff86" stroke-width="2" /><polyline fill="none" points="74.0136,21.7687 70.966,24.8163" stroke="#86ff70" stroke-width="2" /><polyline fill="none" points="75.7551,23.9456 74.0136,28.2993" stroke="#9dff59" stroke-width="2" /><polyline fill="none" points="78.3673,26.9932 77.4966,29.6054" stroke="#b7ff3f" stroke-width="2" /><polyline fill="none" points="81.8503,27.8639 82.7211,30.4762 86.2041,30.9116" stroke="#cdff29" stroke-width="2" /><polyline fill="none" points="88.8163,28.2993 92.2993,32.6531 96.6531,32.2177" stroke="#e4ff12" stroke-width="2" /><polyline fill="none" points="97.0884,27.8639 103.619,30.4762" stroke="#feed00" stroke-width="2" /><polyline fill="none" points="103.1837,27.4286 106.6667,28.2993" stroke="#ffd300" stroke-width="2" /><polyline fill="none" points="106.6667,25.6871 111.8912,26.5578" stroke="#ffb900" stroke-width="2" /><polyline fill="none" points="112.3265,24.8163 113.1973,24.8163" stroke="#ff9b00" stroke-width="2" /><polyline fill="none" points="70.5306,53.9864 72.7075,48.3265" stroke="#ff8100" stroke-width="2" /><polyline fill="none" points="75.3197,50.068 76.6259,46.585" stroke="#ff6700" stroke-width="2" /><polyline fill="none" points="80.5442,49.1973 84.0272,47.0204" stroke="#ff4a00" stroke-width="2" /><polyline fill="none" points="87.0748,49.1973 90.9932,47.0204" stroke="#ff3000" stroke-width="2" /><polyline fill="none" points="92.2993,48.7619 96.6531,47.8912" stroke="#ff1600" stroke-width="2" /><polyline fill="none" points="98.8299,49.1973 101.4422,49.1973" stroke="#de0000" stroke-width="2" /><polyline fill="none" points="104.0544,50.5034 107.5374,50.068" stroke="#bf0000" stroke-width="2" /><polyline fill="none" points="109.7143,51.3741 111.4558,51.3741" stroke="#9f0000" stroke-width="2" /><polyline fill="none" points="111.4558,54.4218 114.9388,54.4218" stroke="#7f0000" stroke-width="2" /></svg>