<?xml version="1.0" encoding="utf-8" ?>
<svg baseProfile="tiny" height="128" version="1.2" viewBox="0,0,128,128" width="128" xmlns="http://www.w3.org/2000/svg" xmlns:ev="http://www.w3.org/2001/xml-events" xmlns:xlink="http://www.w3.org/1999/xlink"><defs /><polyline fill="none" points="84.898,20.4626 82.7211,13.932 79.2381,10.0136 75.3197,8.7075 50.5034,9.1429 41.3605,11.3197 32.6531,15.2381 23.9456,23.0748 16.5442,35.7007 11.7551,47.0204 8.7075,64.0 8.7075,86.2041 12.6259,94.9116 16.9796,98.3946 29.6054,100.5714 93.6054,100.5714 100.5714,94.9116 112.7619,72.2721 118.8571,55.2925 119.2925,40.0544 117.551,34.8299 113.1973,28.7347 106.2313,24.381 91.4286,18.2857 84.4626,16.5442 82.2857,17.8503 74.449,43.5374 70.966,68.3537 72.2721,97.5238 75.3197,102.3129 76.1905,100.1361" stroke="#00007f" stroke-width="2" /><polyline fill="none" points="27.4286,21.7687 29.6054,22.2041 32.2177,30.9116 35.7007,57.9048 36.1361,73.1429 32.6531,82.2857 24.8163,96.6531 21.3333,98.3946 20.4626,95.7823 20.0272,88.8163" stroke="#00d4ff" stroke-width="2" /><polyline fill="none" points="24.8163,45.7143 42.6667,44.4082" stroke="#ffe500" stroke-width="2" /><polyline fill="none" points="22.2041,60.517 22.2041,60.517" stroke="#7f0000" stroke-width="2" /></svg>