<?xml version="1.0" encoding="utf-8" ?>
<svg baseProfile="tiny" height="128" version="1.2" viewBox="0,0,128,128" width="128" xmlns="http://www.w3.org/2000/svg" xmlns:ev="http://www.w3.org/2001/xml-events" xmlns:xlink="http://www.w3.org/1999/xlink"><defs /><polyline fill="none" points="81.139,12.1492 70.7254,8.678 60.7458,9.5458 49.8983,13.0169 33.4102,23.8644 20.8271,38.1831 13.4508,51.6339 11.2814,58.1424 8.678,75.0644 10.4136,85.0441 15.6203,95.4576 23.4305,104.5695 32.9763,109.7763 44.2576,112.8136 60.3119,111.5119 70.7254,107.1729 81.5729,100.2305 90.2508,91.1186 98.061,75.0644 101.0983,62.9153 101.0983,46.861 97.1932,33.8441 91.5525,26.0339 82.0068,18.6576 76.3661,17.3559 72.8949,18.2237" stroke="#00007f" stroke-width="2" /><polyline fill="none" points="58.1424,14.3186 55.539,15.6203 52.5017,20.3932 50.7661,29.5051 51.2,34.278 53.3695,38.6169 68.5559,52.5017 80.2712,69.8576 85.0441,68.5559 93.722,57.2746 97.1932,49.0305 99.3627,37.3153" stroke="#0000ff" stroke-width="2" /><polyline fill="none" points="13.0169,69.8576 26.9017,63.3492 42.0881,62.0475 48.1627,64.2169 54.6712,70.2915 66.3864,90.2508 67.6881,97.6271 66.8203,106.739 64.2169,112.8136 55.539,119.322" stroke="#0080ff" stroke-width="2" /><polyline fill="none" points="13.8847,55.539 19.0915,72.461" stroke="#15ffe1" stroke-width="2" /><polyline fill="none" points="43.3898,59.4441 42.522,72.0271" stroke="#7cff79" stroke-width="2" /><polyline fill="none" points="62.0475,78.9695 59.4441,86.7797" stroke="#e4ff12" stroke-width="2" /><polyline fill="none" points="72.8949,98.9288 67.2542,106.739" stroke="#ff9400" stroke-width="2" /><polyline fill="none" points="60.3119,21.261 49.0305,31.6746" stroke="#ff1d00" stroke-width="2" /><polyline fill="none" points="69.8576,46.861 67.6881,53.8034" stroke="#7f0000" stroke-width="2" /></svg>