<?xml version="1.0" encoding="utf-8" ?>
<svg baseProfile="tiny" height="128" version="1.2" viewBox="0,0,128,128" width="128" xmlns="http://www.w3.org/2000/svg" xmlns:ev="http://www.w3.org/2001/xml-events" xmlns:xlink="http://www.w3.org/1999/xlink"><defs /><polyline fill="none" points="82.8746,13.4508 81.139,11.2814 73.7627,8.678 63.3492,10.8475 44.2576,21.6949 33.8441,30.3729 20.3932,44.6915 9.9797,64.6508 8.678,76.3661 11.2814,88.5153 16.4881,101.0983 19.9593,106.739 27.3356,113.2475 37.3153,118.4542 55.9729,119.322 67.6881,118.0203 79.8373,114.5492 93.2881,107.1729 103.7017,95.4576 105.8712,83.3085 105.4373,74.1966 102.8339,55.1051 97.1932,34.7119 91.1186,26.9017 87.2136,26.9017" stroke="#00007f" stroke-width="2" /><polyline fill="none" points="33.4102,38.6169 42.0881,45.1254" stroke="#004cff" stroke-width="2" /><polyline fill="none" points="43.3898,77.2339 44.6915,80.2712" stroke="#29ffcd" stroke-width="2" /><polyline fill="none" points="36.8814,119.322 38.1831,118.0203" stroke="#cdff29" stroke-width="2" /><polyline fill="none" points="90.6847,26.9017 89.8169,33.8441 76.8,59.4441 73.3288,70.2915 73.3288,82.8746 75.4983,88.5153 78.5356,91.1186" stroke="#ff6700" stroke-width="2" /><polyline fill="none" points="83.3085,115.8508 84.6102,118.4542" stroke="#7f0000" stroke-width="2" /></svg>