<?xml version="1.0" encoding="utf-8" ?>
<svg baseProfile="tiny" height="128" version="1.2" viewBox="0,0,128,128" width="128" xmlns="http://www.w3.org/2000/svg" xmlns:ev="http://www.w3.org/2001/xml-events" xmlns:xlink="http://www.w3.org/1999/xlink"><defs /><polyline fill="none" points="74.1966,9.1119 60.7458,8.678 45.1254,12.5831 35.1458,16.922 19.5254,29.5051 11.7153,39.4847 9.5458,46.861 8.678,55.539 11.2814,67.2542 16.922,74.6305 24.7322,80.7051 37.7492,87.6475 53.8034,91.9864 80.7051,94.5898 92.4203,92.8542 102.8339,89.8169 113.2475,84.6102 118.0203,76.3661 119.322,65.5186 116.2847,49.4644 109.7763,40.3525 97.1932,29.0712 78.9695,21.6949 66.8203,11.7153" stroke="#00007f" stroke-width="2" /><polyline fill="none" points="90.6847,31.2407 86.3458,35.5797 82.4407,43.3898 78.9695,55.1051 78.9695,64.2169 82.8746,78.9695 87.6475,84.1763 93.2881,86.3458" stroke="#0028ff" stroke-width="2" /><polyline fill="none" points="22.5627,21.6949 27.7695,36.0136 29.0712,49.4644 28.2034,69.8576 26.4678,72.0271 24.2983,70.2915" stroke="#00d4ff" stroke-width="2" /><polyline fill="none" points="21.6949,34.7119 29.5051,31.2407 33.4102,32.5424" stroke="#7cff79" stroke-width="2" /><polyline fill="none" points="24.2983,56.4068 31.2407,54.6712 47.2949,55.1051" stroke="#ffe500" stroke-width="2" /><polyline fill="none" points="27.7695,64.6508 48.1627,71.5932 57.7085,73.3288" stroke="#ff4600" stroke-width="2" /><polyline fill="none" points="85.478,37.3153 80.7051,39.0508 78.5356,41.2203" stroke="#7f0000" stroke-width="2" /></svg>