<?xml version="1.0" encoding="utf-8" ?>
<svg baseProfile="tiny" height="128" version="1.2" viewBox="0,0,128,128" width="128" xmlns="http://www.w3.org/2000/svg" xmlns:ev="http://www.w3.org/2001/xml-events" xmlns:xlink="http://www.w3.org/1999/xlink"><defs /><polyline fill="none" points="98.9288,35.1458 98.9288,25.1661 97.6271,21.261 92.4203,13.4508 85.0441,8.678 63.7831,9.5458 52.5017,12.5831 45.5593,16.4881 37.3153,26.0339 22.9966,39.0508 10.8475,56.8407 8.678,66.8203 8.678,83.7424 19.9593,96.3254 31.6746,104.1356 42.9559,107.6068 68.5559,108.0407 92.4203,100.6644 105.8712,94.1559 113.2475,88.5153 118.4542,82.0068 119.322,78.5356 119.322,62.9153 118.0203,58.5763 112.8136,49.0305 104.1356,37.7492 98.061,31.2407 85.9119,22.5627" stroke="#00007f" stroke-width="2" /><polyline fill="none" points="55.9729,11.2814 55.539,82.4407 53.3695,97.6271" stroke="#0080ff" stroke-width="2" /><polyline fill="none" points="90.2508,25.6 76.8,25.6 67.6881,30.3729 51.6339,44.2576 26.0339,59.878 16.0542,68.9898 13.8847,77.6678" stroke="#7cff79" stroke-width="2" /><polyline fill="none" points="22.5627,32.5424 27.3356,34.278 39.0508,43.3898 70.7254,72.0271 84.6102,79.4034 97.1932,81.5729 108.9085,81.5729" stroke="#ff9400" stroke-width="2" /><polyline fill="none" points="92.8542,38.1831 91.1186,42.9559 89.8169,53.3695 89.8169,68.5559" stroke="#7f0000" stroke-width="2" /></svg>