<?xml version="1.0" encoding="utf-8" ?>
<svg baseProfile="tiny" height="128" version="1.2" viewBox="0,0,128,128" width="128" xmlns="http://www.w3.org/2000/svg" xmlns:ev="http://www.w3.org/2001/xml-events" xmlns:xlink="http://www.w3.org/1999/xlink"><defs /><polyline fill="none" points="17.415,43.9728 17.415,35.7007 21.3333,27.8639 27.8639,17.415 35.2653,10.8844 55.7279,8.7075 75.7551,9.1429 91.4286,12.6259 103.619,17.8503 108.8435,21.7687 115.8095,29.1701 118.8571,35.2653 119.2925,43.5374 113.1973,57.9048 106.6667,65.7415 90.1224,79.2381 70.966,89.6871 58.7755,91.4286 42.2313,91.4286 30.4762,89.2517 16.9796,81.415 10.449,72.2721 8.7075,64.4354 9.1429,48.7619 14.3673,41.7959 23.5102,34.3946" stroke="#00007f" stroke-width="2" /><polyline fill="none" points="39.619,10.8844 39.1837,34.8299 33.9592,58.3401 23.5102,82.2857 13.4966,98.8299" stroke="#0028ff" stroke-width="2" /><polyline fill="none" points="88.8163,17.415 84.0272,44.4082 83.1565,61.3878 84.4626,75.7551 87.5102,82.7211" stroke="#00d4ff" stroke-width="2" /><polyline fill="none" points="84.0272,47.4558 85.7687,46.1497" stroke="#7cff79" stroke-width="2" /><polyline fill="none" points="77.4966,40.0544 91.8639,40.0544" stroke="#ffe500" stroke-width="2" /><polyline fill="none" points="82.7211,39.1837 95.7823,45.7143 102.3129,52.6803 102.7483,55.7279" stroke="#ff4600" stroke-width="2" /><polyline fill="none" points="84.898,62.6939 83.1565,67.9184" stroke="#7f0000" stroke-width="2" /></svg>