<?xml version="1.0" encoding="utf-8" ?>
<svg baseProfile="tiny" height="128" version="1.2" viewBox="0,0,128,128" width="128" xmlns="http://www.w3.org/2000/svg" xmlns:ev="http://www.w3.org/2001/xml-events" xmlns:xlink="http://www.w3.org/1999/xlink"><defs /><polyline fill="none" points="119.322,28.6373 117.5864,25.1661 107.6068,18.6576 98.061,14.7525 85.0441,12.1492 65.9525,13.8847 42.9559,21.6949 32.5424,26.9017 22.9966,33.8441 14.7525,45.1254 8.678,65.9525 9.1119,73.7627 12.1492,80.2712 24.2983,91.5525 38.6169,96.7593 56.8407,97.1932 73.7627,91.9864 84.1763,81.5729 93.2881,63.3492 98.4949,48.1627 102.8339,39.4847 105.8712,27.7695 101.0983,20.3932 93.2881,11.7153 88.0814,9.1119 82.0068,8.678" stroke="#00007f" stroke-width="2" /><polyline fill="none" points="25.6,22.5627 32.9763,51.6339 33.4102,59.4441 29.939,70.2915 23.4305,80.2712 20.8271,82.4407 20.8271,78.9695" stroke="#7cff79" stroke-width="2" /><polyline fill="none" points="85.478,17.7898 73.7627,31.2407 70.7254,39.0508 70.2915,49.4644 71.5932,60.7458 75.0644,73.7627 78.5356,81.5729" stroke="#7f0000" stroke-width="2" /></svg>