<?xml version="1.0" encoding="utf-8" ?>
<svg baseProfile="tiny" height="128" version="1.2" viewBox="0,0,128,128" width="128" xmlns="http://www.w3.org/2000/svg" xmlns:ev="http://www.w3.org/2001/xml-events" xmlns:xlink="http://www.w3.org/1999/xlink"><defs /><polyline fill="none" points="97.1932,25.6 93.2881,19.0915 89.8169,16.4881 62.4814,9.1119 47.7288,8.678 32.1085,16.0542 19.0915,26.4678 14.7525,32.5424 9.1119,44.6915 8.678,58.5763 17.3559,70.2915 32.1085,80.2712 41.6542,84.1763 64.2169,88.5153 75.9322,89.8169 96.7593,89.3831 105.0034,86.3458 111.078,82.0068 115.4169,77.2339 119.322,65.0847 118.8881,50.3322 116.7186,43.8237 113.6814,37.3153 108.4746,30.8068 96.7593,20.3932 86.3458,13.4508" stroke="#00007f" stroke-width="2" /><polyline fill="none" points="32.5424,9.5458 41.2203,14.7525 48.1627,22.5627 54.6712,35.1458 56.8407,46.4271 56.4068,57.7085 54.6712,62.4814 47.7288,72.461 38.1831,79.4034" stroke="#7cff79" stroke-width="2" /><polyline fill="none" points="92.8542,18.6576 90.2508,19.0915 69.8576,36.8814 62.4814,47.7288 60.7458,54.2373 59.4441,65.9525 62.9153,77.6678 66.3864,83.7424 75.0644,92.4203 79.8373,95.0237" stroke="#7f0000" stroke-width="2" /></svg>