<?xml version="1.0" encoding="utf-8" ?>
<svg baseProfile="tiny" height="128" version="1.2" viewBox="0,0,128,128" width="128" xmlns="http://www.w3.org/2000/svg" xmlns:ev="http://www.w3.org/2001/xml-events" xmlns:xlink="http://www.w3.org/1999/xlink"><defs /><polyline fill="none" points="67.6881,17.7898 63.7831,15.1864 55.9729,12.5831 41.2203,12.1492 28.2034,18.6576 17.3559,31.6746 9.9797,51.2 8.678,76.8 10.8475,87.2136 15.1864,96.7593 21.261,104.5695 34.7119,113.6814 54.2373,118.8881 67.6881,119.322 77.2339,115.8508 88.5153,106.739 99.7966,90.2508 105.0034,74.6305 105.0034,49.8983 100.2305,35.5797 94.5898,26.0339 82.4407,15.1864 75.4983,12.5831 62.4814,12.1492" stroke="#00007f" stroke-width="2" /><polyline fill="none" points="48.5966,15.6203 53.8034,39.4847 54.2373,66.8203 46.861,101.9661 44.6915,106.739 41.2203,108.4746" stroke="#004cff" stroke-width="2" /><polyline fill="none" points="69.4237,8.678 66.8203,64.2169 69.8576,78.1017 75.0644,88.0814 82.8746,95.8915 93.2881,101.0983 98.4949,101.5322" stroke="#29ffcd" stroke-width="2" /><polyline fill="none" points="34.7119,32.1085 55.9729,34.7119 87.6475,35.1458" stroke="#cdff29" stroke-width="2" /><polyline fill="none" points="37.7492,58.1424 40.7864,59.4441 87.2136,60.3119 96.3254,62.9153" stroke="#ff6700" stroke-width="2" /><polyline fill="none" points="37.7492,87.2136 65.5186,88.5153 86.3458,84.1763" stroke="#7f0000" stroke-width="2" /></svg>