<?xml version="1.0" encoding="utf-8" ?>
<svg baseProfile="tiny" height="128" version="1.2" viewBox="0,0,128,128" width="128" xmlns="http://www.w3.org/2000/svg" xmlns:ev="http://www.w3.org/2001/xml-events" xmlns:xlink="http://www.w3.org/1999/xlink"><defs /><polyline fill="none" points="26.0339,37.3153 42.9559,16.922 52.0678,10.8475 61.1797,8.678 71.5932,9.5458 91.5525,16.922 107.1729,35.1458 113.2475,46.4271 116.2847,58.1424 117.1525,69.8576 115.4169,81.5729 111.5119,91.5525 105.8712,101.5322 84.1763,117.1525 69.8576,119.322 55.9729,118.4542 42.522,115.4169 30.8068,108.0407 20.8271,98.9288 13.4508,89.3831 9.5458,78.9695 8.678,68.122 11.2814,58.1424 15.6203,49.4644 23.8644,42.0881" stroke="#00007f" stroke-width="2" /><polyline fill="none" points="41.2203,26.4678 44.6915,36.8814 57.2746,60.7458 61.6136,74.1966 61.6136,86.3458 57.7085,96.7593 49.4644,104.5695 39.4847,108.4746 30.8068,109.7763 24.7322,106.3051 22.5627,103.2678" stroke="#7cff79" stroke-width="2" /><polyline fill="none" points="94.1559,23.4305 79.4034,50.7661 75.9322,65.0847 77.2339,78.9695 81.5729,88.5153 91.1186,98.061 104.1356,103.7017 106.3051,99.7966" stroke="#7f0000" stroke-width="2" /></svg>