<?xml version="1.0" encoding="utf-8" ?>
<svg baseProfile="tiny" height="128" version="1.2" viewBox="0,0,128,128" width="128" xmlns="http://www.w3.org/2000/svg" xmlns:ev="http://www.w3.org/2001/xml-events" xmlns:xlink="http://www.w3.org/1999/xlink"><defs /><polyline fill="none" points="75.9322,8.678 47.7288,8.678 36.4475,16.0542 20.8271,33.8441 16.0542,41.6542 11.7153,56.4068 8.678,72.8949 8.678,98.4949 19.0915,110.2102 25.1661,114.1153 40.7864,118.4542 50.7661,119.322 78.1017,119.322 89.8169,118.0203 103.7017,108.0407 108.9085,101.5322 118.4542,72.0271 118.4542,56.4068 111.9458,45.9932 101.5322,38.6169 66.3864,28.2034 46.861,16.922 41.6542,11.7153" stroke="#00007f" stroke-width="2" /><polyline fill="none" points="92.4203,40.7864 92.4203,52.9356 95.4576,61.6136 96.7593,81.139 108.0407,105.8712" stroke="#7cff79" stroke-width="2" /><polyline fill="none" points="24.2983,35.5797 24.2983,66.3864 33.4102,102.8339" stroke="#7f0000" stroke-width="2" /></svg>