<?xml version="1.0" encoding="utf-8" ?>
<svg baseProfile="tiny" height="128" version="1.2" viewBox="0,0,128,128" width="128" xmlns="http://www.w3.org/2000/svg" xmlns:ev="http://www.w3.org/2001/xml-events" xmlns:xlink="http://www.w3.org/1999/xlink"><defs /><polyline fill="none" points="93.722,25.1661 92.4203,20.8271 89.8169,18.6576 76.3661,14.7525 56.4068,14.7525 45.1254,17.3559 33.4102,22.5627 24.2983,29.5051 16.0542,39.0508 11.7153,48.1627 8.678,66.3864 9.1119,76.3661 12.5831,85.9119 17.3559,94.5898 32.1085,109.3424 40.7864,114.9831 50.3322,118.0203 68.5559,119.322 77.2339,116.2847 85.9119,110.6441 93.722,102.8339 100.6644,91.5525 105.8712,79.8373 111.078,55.1051 110.2102,33.8441 107.1729,26.0339 100.6644,17.7898 96.7593,16.4881 92.8542,17.3559" stroke="#00007f" stroke-width="2" /><polyline fill="none" points="42.522,14.7525 54.2373,39.0508 57.2746,57.2746 56.8407,79.8373 55.1051,90.6847 49.4644,112.8136 47.2949,115.4169 47.2949,112.8136" stroke="#0028ff" stroke-width="2" /><polyline fill="none" points="85.0441,8.678 81.139,95.4576 82.8746,108.0407 85.9119,115.4169 88.5153,118.0203 86.7797,114.9831" stroke="#00d4ff" stroke-width="2" /><polyline fill="none" points="39.9186,36.4475 58.1424,34.7119" stroke="#7cff79" stroke-width="2" /><polyline fill="none" points="39.0508,64.6508 58.1424,62.4814" stroke="#ffe500" stroke-width="2" /><polyline fill="none" points="42.0881,75.0644 58.5763,79.8373" stroke="#ff4600" stroke-width="2" /><polyline fill="none" points="45.1254,101.0983 60.3119,103.7017" stroke="#7f0000" stroke-width="2" /></svg>