<?xml version="1.0" encoding="utf-8" ?>
<svg baseProfile="tiny" height="128" version="1.2" viewBox="0,0,128,128" width="128" xmlns="http://www.w3.org/2000/svg" xmlns:ev="http://www.w3.org/2001/xml-events" xmlns:xlink="http://www.w3.org/1999/xlink"><defs /><polyline fill="none" points="87.6475,8.678 62.0475,10.4136 45.9932,13.8847 38.6169,16.922 29.939,26.0339 21.261,37.7492 13.4508,56.4068 10.4136,77.6678 11.2814,87.6475 16.4881,95.0237 27.3356,102.8339 44.6915,109.3424 66.3864,112.8136 79.4034,111.5119 93.722,105.0034 100.6644,100.2305 108.0407,91.5525 114.1153,80.2712 118.0203,60.3119 118.0203,44.6915 110.2102,21.6949 95.8915,11.2814 86.7797,10.4136" stroke="#00007f" stroke-width="2" /><polyline fill="none" points="65.0847,12.1492 65.0847,36.4475 63.7831,42.9559 59.4441,52.9356 52.5017,62.4814 47.2949,66.8203 27.3356,74.1966 18.6576,75.9322 8.678,74.6305" stroke="#004cff" stroke-width="2" /><polyline fill="none" points="111.9458,26.0339 105.4373,29.0712 91.1186,42.0881 82.8746,62.9153 78.5356,85.478 78.5356,92.8542 82.8746,119.322" stroke="#29ffcd" stroke-width="2" /><polyline fill="none" points="78.5356,10.8475 77.6678,16.4881" stroke="#cdff29" stroke-width="2" /><polyline fill="none" points="66.3864,53.8034 66.3864,60.3119" stroke="#ff6700" stroke-width="2" /><polyline fill="none" points="64.6508,74.1966 64.6508,76.3661" stroke="#7f0000" stroke-width="2" /></svg>