<?xml version="1.0" encoding="utf-8" ?>
<svg baseProfile="tiny" height="128" version="1.2" viewBox="0,0,128,128" width="128" xmlns="http://www.w3.org/2000/svg" xmlns:ev="http://www.w3.org/2001/xml-events" xmlns:xlink="http://www.w3.org/1999/xlink"><defs /><polyline fill="none" points="31.6746,108.9085 24.7322,105.0034 16.4881,98.9288 15.1864,85.0441 16.0542,62.9153 18.2237,43.8237 22.9966,28.2034 31.2407,14.7525 37.7492,9.5458 41.2203,8.678 59.878,17.7898 67.6881,23.4305 80.7051,50.7661 81.5729,68.9898 76.3661,80.2712 67.2542,91.1186 56.4068,100.2305 35.1458,105.0034 16.922,105.4373 8.678,101.9661" stroke="#00007f" stroke-width="2" /><polyline fill="none" points="27.7695,20.3932 29.939,21.6949 34.278,32.5424 33.4102,54.2373 29.939,72.8949 17.7898,97.1932 12.5831,114.5492 12.1492,119.322 13.4508,115.4169" stroke="#0000f1" stroke-width="2" /><polyline fill="none" points="18.2237,36.8814 23.4305,36.4475 52.5017,40.3525" stroke="#004cff" stroke-width="2" /><polyline fill="none" points="18.6576,53.3695 42.522,60.7458 49.0305,64.2169" stroke="#00b0ff" stroke-width="2" /><polyline fill="none" points="16.922,73.7627 31.6746,80.2712 42.0881,86.3458" stroke="#29ffcd" stroke-width="2" /><polyline fill="none" points="15.1864,87.2136 24.7322,91.9864 24.2983,89.8169" stroke="#7cff79" stroke-width="2" /><polyline fill="none" points="62.9153,20.8271 59.0102,36.0136 56.4068,59.878 57.2746,79.4034 62.0475,90.6847 64.6508,91.1186 60.7458,85.0441" stroke="#cdff29" stroke-width="2" /><polyline fill="none" points="55.1051,40.7864 67.2542,44.2576 65.9525,45.9932" stroke="#ffc400" stroke-width="2" /><polyline fill="none" points="52.5017,56.4068 59.878,60.7458" stroke="#ff6700" stroke-width="2" /><polyline fill="none" points="53.8034,69.8576 68.5559,72.8949" stroke="#f10700" stroke-width="2" /><polyline fill="none" points="59.4441,82.4407 75.9322,79.8373 56.8407,81.139" stroke="#7f0000" stroke-width="2" /></svg>