<?xml version="1.0" encoding="utf-8" ?>
<svg baseProfile="tiny" height="128" version="1.2" viewBox="0,0,128,128" width="128" xmlns="http://www.w3.org/2000/svg" xmlns:ev="http://www.w3.org/2001/xml-events" xmlns:xlink="http://www.w3.org/1999/xlink"><defs /><polyline fill="none" points="72.7075,8.7075 47.0204,9.5782 39.619,12.6259 33.0884,17.415 18.2857,34.8299 13.0612,44.8435 9.1429,69.2245 8.7075,81.8503 10.0136,92.2993 13.4966,100.5714 19.1565,108.4082 26.5578,113.6327 34.8299,117.551 43.5374,119.2925 62.2585,119.2925 72.2721,116.2449 89.6871,105.3605 103.1837,90.1224 111.4558,70.0952 113.1973,49.6327 111.8912,40.9252 107.9728,32.6531 102.7483,25.6871 94.9116,20.4626 74.449,12.1905 52.2449,10.0136" stroke="#00007f" stroke-width="2" /><polyline fill="none" points="21.7687,42.6667 25.2517,41.7959 28.2993,43.9728 33.9592,54.8571 43.102,82.7211 49.6327,111.0204" stroke="#0028ff" stroke-width="2" /><polyline fill="none" points="64.4354,19.5918 61.3878,18.7211 57.4694,41.7959 58.3401,52.6803 60.9524,63.1293 68.7891,80.1088 80.1088,91.4286 93.6054,100.5714" stroke="#00d4ff" stroke-width="2" /><polyline fill="none" points="24.8163,50.5034 34.3946,54.8571 37.8776,55.2925 39.1837,51.8095 41.3605,35.7007" stroke="#7cff79" stroke-width="2" /><polyline fill="none" points="30.0408,72.7075 34.8299,78.3673 39.619,78.8027 42.2313,75.3197 43.5374,69.6599 45.7143,51.3741" stroke="#ffe500" stroke-width="2" /><polyline fill="none" points="34.3946,95.7823 37.0068,98.8299 44.4082,99.2653 47.8912,81.415" stroke="#ff4600" stroke-width="2" /><polyline fill="none" points="50.5034,24.8163 50.5034,24.8163" stroke="#7f0000" stroke-width="2" /></svg>