<?xml version="1.0" encoding="utf-8" ?>
<svg baseProfile="tiny" height="128" version="1.2" viewBox="0,0,128,128" width="128" xmlns="http://www.w3.org/2000/svg" xmlns:ev="http://www.w3.org/2001/xml-events" xmlns:xlink="http://www.w3.org/1999/xlink"><defs /><polyline fill="none" points="55.1051,12.1492 49.4644,10.4136 39.9186,10.4136 30.3729,16.0542 16.922,31.6746 8.678,52.0678 8.678,75.9322 10.4136,83.3085 22.5627,101.9661 31.6746,110.6441 43.3898,118.4542 46.861,119.322 74.6305,118.8881 93.722,109.3424 101.5322,101.0983 106.3051,92.8542 111.5119,78.1017 112.3797,68.122 112.3797,43.3898 109.7763,36.8814 102.8339,28.2034 85.478,16.0542 58.1424,8.678 45.5593,8.678" stroke="#00007f" stroke-width="2" /><polyline fill="none" points="55.9729,10.8475 56.4068,112.3797" stroke="#00d4ff" stroke-width="2" /><polyline fill="none" points="98.9288,23.4305 95.8915,23.4305 81.139,32.1085 77.2339,41.6542 76.8,55.1051 86.3458,71.5932 92.4203,78.5356 98.4949,81.139 104.1356,82.0068 104.1356,80.7051" stroke="#ffe500" stroke-width="2" /><polyline fill="none" points="13.0169,29.0712 22.1288,30.8068 29.939,38.6169 36.0136,49.8983 39.4847,62.4814 38.6169,78.1017 33.4102,87.6475 30.8068,90.2508 24.2983,91.9864 14.3186,91.9864" stroke="#7f0000" stroke-width="2" /></svg>