<?xml version="1.0" encoding="utf-8" ?>
<svg baseProfile="tiny" height="128" version="1.2" viewBox="0,0,128,128" width="128" xmlns="http://www.w3.org/2000/svg" xmlns:ev="http://www.w3.org/2001/xml-events" xmlns:xlink="http://www.w3.org/1999/xlink"><defs /><polyline fill="none" points="28.7347,8.7075 20.4626,9.5782 13.932,12.1905 8.7075,21.3333 8.7075,27.4286 13.932,34.3946 21.3333,39.619 33.9592,43.9728 43.5374,43.9728 47.8912,42.6667 53.9864,34.3946 55.7279,28.2993 53.9864,20.898 44.8435,13.932 28.7347,10.0136 20.898,9.5782" stroke="#00007f" stroke-width="2" /><polyline fill="none" points="18.2857,10.8844 27.4286,20.0272 31.3469,28.7347 28.2993,35.7007 20.4626,39.1837" stroke="#00d4ff" stroke-width="2" /><polyline fill="none" points="41.7959,14.3673 31.7823,21.7687 30.0408,28.2993 31.7823,33.5238 34.3946,37.4422 42.2313,41.3605 49.1973,42.6667" stroke="#ffe500" stroke-width="2" /><polyline fill="none" points="82.2857,28.7347 81.415,33.0884 83.5918,38.7483 94.9116,44.4082 108.8435,44.4082 116.2449,41.7959 118.8571,36.5714 119.2925,30.9116 114.068,24.8163 109.7143,22.6395 103.1837,21.3333 88.381,22.6395" stroke="#7f0000" stroke-width="2" /></svg>