<?xml version="1.0" encoding="utf-8" ?>
<svg baseProfile="tiny" height="128" version="1.2" viewBox="0,0,128,128" width="128" xmlns="http://www.w3.org/2000/svg" xmlns:ev="http://www.w3.org/2001/xml-events" xmlns:xlink="http://www.w3.org/1999/xlink"><defs /><polyline fill="none" points="8.678,45.9932 12.5831,37.3153 31.6746,14.3186 41.2203,9.5458 68.5559,8.678 82.8746,16.4881 96.7593,28.2034 104.5695,42.0881 106.739,55.1051 106.739,70.7254 103.2678,85.478 85.478,107.6068 76.8,113.2475 67.6881,114.5492 53.3695,111.5119 35.5797,96.7593 24.7322,84.6102 16.4881,71.5932 12.5831,59.0102 11.7153,22.1288 15.6203,16.4881 21.261,13.8847 29.5051,13.8847 43.8237,16.922 55.1051,25.6" stroke="#00007f" stroke-width="2" /><polyline fill="none" points="42.522,13.8847 49.8983,20.3932 52.0678,47.2949 51.2,63.7831 48.1627,71.1593 34.278,88.5153 22.1288,96.7593 8.678,102.4" stroke="#7cff79" stroke-width="2" /><polyline fill="none" points="90.6847,27.3356 86.7797,30.3729 80.7051,38.6169 75.9322,51.2 75.9322,74.6305 78.1017,82.8746 82.8746,90.2508 100.6644,111.5119 104.5695,119.322" stroke="#7f0000" stroke-width="2" /></svg>