<?xml version="1.0" encoding="utf-8" ?>
<svg baseProfile="tiny" height="128" version="1.2" viewBox="0,0,128,128" width="128" xmlns="http://www.w3.org/2000/svg" xmlns:ev="http://www.w3.org/2001/xml-events" xmlns:xlink="http://www.w3.org/1999/xlink"><defs /><polyline fill="none" points="98.4949,22.5627 92.4203,29.939 91.5525,33.4102 96.7593,39.9186 107.1729,43.8237 111.5119,42.522 116.7186,38.1831 119.322,32.5424 118.4542,26.9017 114.5492,21.6949 108.4746,18.6576 103.2678,18.6576 96.3254,22.5627" stroke="#00007f" stroke-width="2" /><polyline fill="none" points="9.9797,97.6271 8.678,81.5729 9.9797,45.1254 11.2814,19.9593 13.4508,14.7525 18.2237,10.8475 26.0339,8.678 31.6746,8.678 36.4475,13.4508 39.0508,22.1288 40.3525,34.7119 41.2203,61.6136 40.3525,81.139 38.1831,92.4203 35.1458,100.6644 29.0712,108.4746 22.5627,112.8136 19.9593,112.8136 16.4881,111.078 14.3186,98.061 9.9797,95.0237" stroke="#7f0000" stroke-width="2" /></svg>