<?xml version="1.0" encoding="utf-8" ?>
<svg baseProfile="tiny" height="128" version="1.2" viewBox="0,0,128,128" width="128" xmlns="http://www.w3.org/2000/svg" xmlns:ev="http://www.w3.org/2001/xml-events" xmlns:xlink="http://www.w3.org/1999/xlink"><defs /><polyline fill="none" points="51.6339,13.8847 44.2576,11.2814 36.4475,12.5831 23.8644,19.0915 15.1864,27.3356 9.9797,38.6169 8.678,46.4271 9.9797,59.0102 14.3186,72.8949 20.8271,83.3085 29.0712,91.9864 46.861,101.5322 59.0102,105.0034 71.1593,105.8712 84.6102,103.2678 93.722,99.7966 101.0983,95.4576 109.3424,87.2136 115.4169,75.0644 118.8881,63.3492 119.322,52.9356 115.4169,38.6169 112.3797,33.4102 104.1356,26.0339 88.9492,17.7898 67.2542,9.9797 57.7085,10.8475" stroke="#00007f" stroke-width="2" /><polyline fill="none" points="48.1627,8.678 53.3695,15.1864 56.8407,26.9017 56.4068,36.8814 52.0678,53.3695 45.1254,69.4237 41.2203,75.0644 29.0712,84.6102 20.8271,87.2136" stroke="#0080ff" stroke-width="2" /><polyline fill="none" points="87.2136,13.4508 81.139,23.4305 75.9322,39.0508 74.1966,62.9153 75.9322,74.1966 81.5729,86.3458 87.6475,91.9864 94.1559,95.4576 106.739,97.1932" stroke="#7cff79" stroke-width="2" /><polyline fill="none" points="9.1119,47.2949 78.1017,52.9356 106.739,53.8034 109.3424,54.6712" stroke="#ff9400" stroke-width="2" /><polyline fill="none" points="12.1492,69.4237 84.6102,73.7627 118.8881,78.9695" stroke="#7f0000" stroke-width="2" /></svg>