<?xml version="1.0" encoding="utf-8" ?>
<svg baseProfile="tiny" height="128" version="1.2" viewBox="0,0,128,128" width="128" xmlns="http://www.w3.org/2000/svg" xmlns:ev="http://www.w3.org/2001/xml-events" xmlns:xlink="http://www.w3.org/1999/xlink"><defs /><polyline fill="none" points="49.4644,23.8644 32.9763,34.278 25.6,40.3525 14.7525,55.9729 10.4136,65.5186 8.678,75.4983 9.1119,88.5153 12.1492,95.8915 17.7898,102.4 32.1085,111.9458 43.8237,115.4169 57.2746,116.7186 69.8576,115.8508 78.5356,111.5119 86.3458,105.0034 91.9864,96.3254 92.4203,80.2712 89.8169,55.539 82.4407,36.8814 78.5356,31.2407 60.7458,13.0169 55.9729,10.4136 48.5966,8.678 46.4271,8.678 42.0881,12.5831" stroke="#00007f" stroke-width="2" /><polyline fill="none" points="30.3729,41.2203 37.7492,55.1051 39.4847,72.8949 33.8441,85.9119 25.6,96.3254 19.9593,101.5322" stroke="#004cff" stroke-width="2" /><polyline fill="none" points="79.4034,35.5797 72.8949,39.0508 66.8203,47.7288 60.3119,78.9695 60.3119,93.722 65.5186,104.1356 73.7627,114.5492 81.5729,119.322 85.0441,119.322 88.9492,116.7186" stroke="#29ffcd" stroke-width="2" /><polyline fill="none" points="56.8407,56.4068 80.2712,55.9729" stroke="#cdff29" stroke-width="2" /><polyline fill="none" points="61.6136,72.461 74.6305,71.5932" stroke="#ff6700" stroke-width="2" /><polyline fill="none" points="55.9729,91.1186 55.9729,91.1186" stroke="#7f0000" stroke-width="2" /></svg>