<?xml version="1.0" encoding="utf-8" ?>
<svg baseProfile="tiny" height="128" version="1.2" viewBox="0,0,128,128" width="128" xmlns="http://www.w3.org/2000/svg" xmlns:ev="http://www.w3.org/2001/xml-events" xmlns:xlink="http://www.w3.org/1999/xlink"><defs /><polyline fill="none" points="85.0441,10.8475 81.139,9.5458 49.4644,9.5458 33.4102,13.0169 17.7898,29.0712 8.678,45.5593 8.678,60.7458 12.5831,75.4983 21.261,86.3458 36.0136,97.6271 50.3322,103.7017 59.4441,104.5695 82.4407,95.0237 96.7593,84.6102 107.6068,72.8949 114.9831,64.2169 119.322,50.3322 119.322,39.9186 113.6814,29.939 98.4949,15.6203 85.0441,8.678" stroke="#00007f" stroke-width="2" /><polyline fill="none" points="42.522,11.2814 45.5593,12.1492 47.7288,14.7525 53.8034,28.6373 54.6712,45.1254 53.3695,49.8983 49.8983,60.3119 42.0881,74.6305 31.2407,86.7797 26.0339,88.0814" stroke="#7cff79" stroke-width="2" /><polyline fill="none" points="93.2881,12.5831 82.0068,42.0881 77.6678,63.3492 78.5356,76.3661 87.2136,84.6102 92.4203,85.0441" stroke="#7f0000" stroke-width="2" /></svg>