<?xml version="1.0" encoding="utf-8" ?>
<svg baseProfile="tiny" height="128" version="1.2" viewBox="0,0,128,128" width="128" xmlns="http://www.w3.org/2000/svg" xmlns:ev="http://www.w3.org/2001/xml-events" xmlns:xlink="http://www.w3.org/1999/xlink"><defs /><polyline fill="none" points="76.0137,8.7372 60.2867,9.1741 48.0546,12.2321 38.8805,16.6007 28.3959,26.2116 18.3481,37.1331 12.6689,48.4915 9.1741,59.8498 8.7372,73.3925 11.7952,82.1297 17.9113,92.1775 27.5222,100.9147 37.57,106.157 52.8601,109.215 70.7713,109.6519 80.3823,107.4676 94.7986,100.4778 106.5939,89.5563 116.2048,74.2662 118.8259,64.2184 119.2628,44.9966 114.0205,32.3276 109.6519,26.2116 101.7884,19.6587 90.43,15.2901 69.4608,13.1058" stroke="#00007f" stroke-width="2" /><polyline fill="none" points="41.0648,15.2901 51.1126,20.9693 59.413,31.0171 62.471,40.628 63.3447,56.7918 58.9761,76.8874 52.4232,92.1775 44.9966,100.9147 34.9488,105.7201" stroke="#7cff79" stroke-width="2" /><polyline fill="none" points="103.5358,21.4061 95.6724,23.5904 88.2457,30.1433 82.5666,43.686 79.5085,58.9761 80.8191,70.3345 86.0614,77.7611 100.4778,93.4881" stroke="#7f0000" stroke-width="2" /></svg>