<?xml version="1.0" encoding="utf-8" ?>
<svg baseProfile="tiny" height="128" version="1.2" viewBox="0,0,128,128" width="128" xmlns="http://www.w3.org/2000/svg" xmlns:ev="http://www.w3.org/2001/xml-events" xmlns:xlink="http://www.w3.org/1999/xlink"><defs /><polyline fill="none" points="85.478,19.9593 82.8746,15.1864 77.2339,11.2814 68.5559,8.678 62.4814,9.1119 49.0305,13.0169 36.0136,21.261 29.939,27.3356 23.8644,33.8441 13.4508,50.7661 9.9797,67.2542 10.4136,82.0068 12.1492,89.3831 20.8271,101.0983 35.1458,110.2102 48.1627,113.6814 55.9729,114.1153 75.4983,111.078 83.7424,105.0034 88.9492,98.4949 91.9864,91.9864 97.6271,70.2915 96.3254,56.4068 93.2881,45.5593 90.6847,38.6169 84.6102,29.0712 69.8576,15.1864" stroke="#00007f" stroke-width="2" /><polyline fill="none" points="44.2576,15.6203 42.9559,35.5797 39.9186,48.5966 29.0712,70.7254 8.678,98.4949" stroke="#00d4ff" stroke-width="2" /><polyline fill="none" points="48.1627,13.4508 47.7288,19.0915 53.3695,35.5797 60.7458,49.0305 68.122,57.7085 82.4407,68.5559 87.2136,70.7254 100.6644,75.0644 114.1153,76.3661" stroke="#ffe500" stroke-width="2" /><polyline fill="none" points="22.5627,80.7051 25.1661,78.9695 35.1458,81.5729 43.3898,88.5153 56.4068,106.739 62.9153,119.322" stroke="#7f0000" stroke-width="2" /></svg>