<?xml version="1.0" encoding="utf-8" ?>
<svg baseProfile="tiny" height="128" version="1.2" viewBox="0,0,128,128" width="128" xmlns="http://www.w3.org/2000/svg" xmlns:ev="http://www.w3.org/2001/xml-events" xmlns:xlink="http://www.w3.org/1999/xlink"><defs /><polyline fill="none" points="61.6136,11.7153 45.1254,13.8847 36.8814,17.7898 28.2034,23.4305 14.7525,36.8814 9.9797,45.9932 8.678,71.1593 13.0169,82.4407 19.0915,92.4203 26.4678,98.9288 36.4475,104.5695 48.1627,108.4746 60.7458,110.6441 85.0441,109.7763 95.8915,102.8339 103.7017,94.5898 110.6441,83.7424 118.4542,63.3492 119.322,45.5593 117.1525,38.1831 111.9458,31.6746 105.0034,25.6 96.7593,20.8271 86.3458,17.3559 65.5186,15.1864 48.5966,15.1864 40.7864,17.3559" stroke="#00007f" stroke-width="2" /><polyline fill="none" points="25.1661,25.6 37.3153,25.6 42.9559,28.2034 58.5763,44.6915 68.5559,58.1424 75.0644,71.1593 77.2339,84.1763 77.6678,102.4 76.8,107.1729 73.7627,113.6814" stroke="#00d4ff" stroke-width="2" /><polyline fill="none" points="54.6712,8.678 59.878,13.8847 69.8576,18.6576 75.4983,23.4305 92.4203,43.3898 97.1932,56.4068 98.9288,72.0271 98.9288,95.8915 92.8542,103.7017" stroke="#ffe500" stroke-width="2" /><polyline fill="none" points="14.3186,78.9695 14.3186,78.9695" stroke="#7f0000" stroke-width="2" /></svg>