<?xml version="1.0" encoding="utf-8" ?>
<svg baseProfile="tiny" height="128" version="1.2" viewBox="0,0,128,128" width="128" xmlns="http://www.w3.org/2000/svg" xmlns:ev="http://www.w3.org/2001/xml-events" xmlns:xlink="http://www.w3.org/1999/xlink"><defs /><polyline fill="none" points="81.5729,9.9797 78.1017,8.678 62.4814,9.5458 30.3729,21.261 22.1288,27.3356 16.922,32.9763 11.2814,44.6915 8.678,85.478 9.9797,96.7593 18.6576,107.6068 29.5051,114.5492 39.9186,118.0203 52.5017,119.322 63.7831,119.322 74.6305,113.6814 84.1763,107.1729 97.6271,91.9864 104.1356,76.3661 106.739,49.0305 106.739,31.6746 105.0034,24.2983 101.9661,19.5254 93.722,13.8847 85.9119,10.4136 79.4034,9.9797" stroke="#00007f" stroke-width="2" /><polyline fill="none" points="52.5017,10.4136 53.3695,13.4508 54.2373,48.1627 53.3695,111.078" stroke="#004cff" stroke-width="2" /><polyline fill="none" points="20.3932,30.3729 19.0915,32.9763 20.3932,45.1254 25.6,52.9356 30.8068,58.5763 48.5966,58.5763 58.5763,51.6339" stroke="#29ffcd" stroke-width="2" /><polyline fill="none" points="13.0169,104.5695 13.8847,96.7593 16.4881,92.8542 36.0136,75.9322 50.3322,70.2915 57.2746,70.2915" stroke="#cdff29" stroke-width="2" /><polyline fill="none" points="51.6339,70.7254 54.6712,69.4237 71.1593,69.4237 83.3085,72.8949 93.722,83.3085 101.0983,95.0237 101.5322,98.9288" stroke="#ff6700" stroke-width="2" /><polyline fill="none" points="58.5763,51.6339 62.4814,50.3322 71.5932,42.0881 89.8169,30.3729 96.7593,21.261" stroke="#7f0000" stroke-width="2" /></svg>