<?xml version="1.0" encoding="utf-8" ?>
<svg baseProfile="tiny" height="128" version="1.2" viewBox="0,0,128,128" width="128" xmlns="http://www.w3.org/2000/svg" xmlns:ev="http://www.w3.org/2001/xml-events" xmlns:xlink="http://www.w3.org/1999/xlink"><defs /><polyline fill="none" points="90.6847,13.0169 83.3085,11.2814 44.6915,11.2814 39.9186,12.1492 30.8068,17.3559 19.0915,30.8068 12.1492,45.5593 8.678,62.9153 9.5458,83.3085 12.5831,92.4203 15.6203,98.9288 24.2983,107.6068 33.8441,111.9458 44.2576,113.6814 82.4407,112.8136 92.4203,108.4746 101.5322,100.2305 108.4746,91.5525 115.4169,78.1017 119.322,56.4068 119.322,42.9559 117.1525,36.0136 105.8712,17.3559 97.6271,11.2814" stroke="#00007f" stroke-width="2" /><polyline fill="none" points="36.8814,15.6203 47.7288,31.6746 50.3322,42.9559 50.3322,55.1051 43.3898,76.3661 32.1085,99.7966" stroke="#00d4ff" stroke-width="2" /><polyline fill="none" points="87.2136,8.678 87.2136,14.7525 77.6678,49.4644 77.2339,67.2542 82.0068,89.3831 86.7797,98.061 88.5153,99.3627 88.0814,94.5898" stroke="#ffe500" stroke-width="2" /><polyline fill="none" points="35.5797,30.3729 42.9559,32.5424 49.8983,32.5424" stroke="#7f0000" stroke-width="2" /></svg>