<?xml version="1.0" encoding="utf-8" ?>
<svg baseProfile="tiny" height="128" version="1.2" viewBox="0,0,128,128" width="128" xmlns="http://www.w3.org/2000/svg" xmlns:ev="http://www.w3.org/2001/xml-events" xmlns:xlink="http://www.w3.org/1999/xlink"><defs /><polyline fill="none" points="55.539,18.6576 49.8983,17.3559 38.1831,23.4305 28.6373,31.6746 21.6949,40.7864 11.2814,57.7085 8.678,72.0271 8.678,78.9695 10.8475,91.9864 13.8847,99.7966 17.7898,106.739 26.4678,114.9831 39.0508,118.8881 45.9932,119.322 52.5017,119.322 60.7458,116.7186 70.7254,107.6068 77.6678,97.1932 82.4407,81.5729 84.6102,57.7085 83.7424,52.0678 78.5356,40.3525 71.1593,29.5051 62.0475,23.4305 52.0678,19.9593" stroke="#00007f" stroke-width="2" /><polyline fill="none" points="31.6746,21.6949 31.6746,24.2983 41.2203,42.0881 42.9559,48.1627 43.3898,73.3288 34.7119,100.2305 29.939,108.4746 26.9017,111.078" stroke="#7cff79" stroke-width="2" /><polyline fill="none" points="62.0475,8.678 63.7831,9.5458 63.3492,25.1661 53.8034,73.3288 52.5017,92.4203 57.2746,108.0407 59.4441,111.078 65.9525,114.5492" stroke="#7f0000" stroke-width="2" /></svg>