<?xml version="1.0" encoding="utf-8" ?>
<svg baseProfile="tiny" height="128" version="1.2" viewBox="0,0,128,128" width="128" xmlns="http://www.w3.org/2000/svg" xmlns:ev="http://www.w3.org/2001/xml-events" xmlns:xlink="http://www.w3.org/1999/xlink"><defs /><polyline fill="none" points="53.8034,20.8271 46.4271,18.2237 34.278,18.2237 27.7695,19.0915 22.1288,22.1288 16.0542,27.3356 13.0169,32.9763 8.678,56.8407 8.678,69.8576 16.922,85.9119 31.6746,99.3627 44.6915,105.0034 67.6881,104.1356 92.8542,90.2508 103.2678,81.139 114.9831,67.6881 118.8881,52.5017 119.322,41.2203 117.1525,34.278 110.2102,25.1661 97.6271,16.0542 88.5153,12.5831 66.8203,8.678 50.7661,8.678 35.5797,14.7525 34.278,16.922" stroke="#00007f" stroke-width="2" /><polyline fill="none" points="80.2712,11.7153 78.1017,14.3186 77.2339,26.9017 77.6678,51.2 82.0068,63.7831 91.9864,78.1017 95.8915,87.2136" stroke="#0000ff" stroke-width="2" /><polyline fill="none" points="29.939,17.7898 36.8814,28.6373 41.6542,39.4847 45.5593,61.1797 45.5593,80.7051 36.0136,101.9661" stroke="#0080ff" stroke-width="2" /><polyline fill="none" points="28.6373,35.5797 49.4644,31.6746" stroke="#15ffe1" stroke-width="2" /><polyline fill="none" points="37.7492,65.9525 49.0305,65.9525" stroke="#7cff79" stroke-width="2" /><polyline fill="none" points="33.4102,85.9119 44.6915,87.2136" stroke="#e4ff12" stroke-width="2" /><polyline fill="none" points="69.8576,32.9763 82.8746,26.9017" stroke="#ff9400" stroke-width="2" /><polyline fill="none" points="75.9322,55.9729 91.9864,49.4644" stroke="#ff1d00" stroke-width="2" /><polyline fill="none" points="80.7051,75.0644 80.7051,75.0644" stroke="#7f0000" stroke-width="2" /></svg>