<?xml version="1.0" encoding="utf-8" ?>
<svg baseProfile="tiny" height="128" version="1.2" viewBox="0,0,128,128" width="128" xmlns="http://www.w3.org/2000/svg" xmlns:ev="http://www.w3.org/2001/xml-events" xmlns:xlink="http://www.w3.org/1999/xlink"><defs /><polyline fill="none" points="72.461,18.6576 61.6136,13.4508 41.6542,14.3186 23.8644,24.7322 13.8847,36.4475 8.678,88.5153 12.5831,98.061 21.6949,108.9085 31.2407,113.6814 42.0881,115.8508 52.5017,115.8508 66.8203,111.5119 78.9695,102.8339 86.3458,95.4576 91.9864,86.7797 96.3254,76.8 98.9288,63.7831 98.9288,45.5593 95.8915,34.278 89.8169,24.7322 84.6102,18.2237 75.9322,11.7153 66.8203,8.678 59.4441,8.678 52.0678,9.9797 37.7492,14.7525" stroke="#00007f" stroke-width="2" /><polyline fill="none" points="32.9763,24.7322 46.861,34.278 51.6339,40.7864 55.1051,57.7085 54.6712,74.6305 49.8983,86.7797 40.7864,99.7966 22.9966,115.8508 17.7898,118.8881 14.3186,119.322" stroke="#7f0000" stroke-width="2" /></svg>