<?xml version="1.0" encoding="utf-8" ?>
<svg baseProfile="tiny" height="128" version="1.2" viewBox="0,0,128,128" width="128" xmlns="http://www.w3.org/2000/svg" xmlns:ev="http://www.w3.org/2001/xml-events" xmlns:xlink="http://www.w3.org/1999/xlink"><defs /><polyline fill="none" points="49.0305,111.9458 36.4475,111.078 26.0339,108.0407 15.1864,99.3627 9.9797,88.9492 8.678,83.3085 8.678,67.6881 10.8475,56.4068 15.1864,46.4271 26.0339,31.2407 37.3153,21.261 49.0305,13.8847 61.6136,9.5458 81.5729,8.678 103.2678,24.2983 114.1153,38.6169 118.4542,49.4644 119.322,72.461 118.0203,78.5356 111.9458,93.722 106.3051,101.5322 94.5898,110.6441 89.8169,111.9458 74.6305,114.1153 47.7288,113.2475" stroke="#00007f" stroke-width="2" /><polyline fill="none" points="26.9017,29.0712 36.4475,28.6373 40.7864,32.5424 44.6915,50.3322 43.8237,68.5559 38.1831,85.478 26.9017,106.739" stroke="#7cff79" stroke-width="2" /><polyline fill="none" points="98.9288,25.6 89.3831,29.939 76.3661,45.9932 75.9322,68.9898 81.139,78.9695 88.0814,87.2136 96.7593,93.722 114.9831,101.5322" stroke="#7f0000" stroke-width="2" /></svg>