<?xml version="1.0" encoding="utf-8" ?>
<svg baseProfile="tiny" height="128" version="1.2" viewBox="0,0,128,128" width="128" xmlns="http://www.w3.org/2000/svg" xmlns:ev="http://www.w3.org/2001/xml-events" xmlns:xlink="http://www.w3.org/1999/xlink"><defs /><polyline fill="none" points="109.7763,13.8847 102.4,8.678 71.5932,9.9797 44.6915,22.1288 37.3153,27.7695 23.4305,42.0881 18.2237,49.8983 10.8475,65.9525 8.678,74.1966 8.678,93.722 11.7153,100.2305 29.0712,111.9458 64.6508,112.8136 72.0271,110.6441 86.7797,102.4 101.5322,91.1186 107.6068,85.478 111.9458,79.4034 119.322,62.4814 118.4542,32.1085 112.8136,24.2983 92.8542,9.5458" stroke="#00007f" stroke-width="2" /><polyline fill="none" points="58.1424,24.2983 59.4441,27.7695" stroke="#0000c8" stroke-width="2" /><polyline fill="none" points="60.3119,25.6 60.3119,25.6" stroke="#0000ff" stroke-width="2" /><polyline fill="none" points="68.5559,37.3153 68.5559,37.3153" stroke="#0040ff" stroke-width="2" /><polyline fill="none" points="70.7254,44.6915 75.9322,50.7661" stroke="#0080ff" stroke-width="2" /><polyline fill="none" points="78.1017,50.7661 81.5729,58.1424" stroke="#00c0ff" stroke-width="2" /><polyline fill="none" points="81.5729,62.4814 89.8169,74.1966" stroke="#15ffe1" stroke-width="2" /><polyline fill="none" points="86.7797,70.7254 96.3254,81.5729" stroke="#49ffad" stroke-width="2" /><polyline fill="none" points="92.8542,83.3085 107.6068,92.8542" stroke="#7cff79" stroke-width="2" /><polyline fill="none" points="18.2237,47.7288 18.2237,47.7288" stroke="#b0ff46" stroke-width="2" /><polyline fill="none" points="33.8441,55.9729 33.8441,55.9729" stroke="#e4ff12" stroke-width="2" /><polyline fill="none" points="33.8441,55.9729 33.8441,55.9729" stroke="#ffcf00" stroke-width="2" /><polyline fill="none" points="10.8475,35.1458 36.0136,59.4441" stroke="#ff9400" stroke-width="2" /><polyline fill="none" points="26.4678,55.1051 44.6915,70.7254" stroke="#ff5900" stroke-width="2" /><polyline fill="none" points="42.522,70.7254 47.7288,75.9322 57.2746,92.8542 64.6508,99.3627" stroke="#ff1d00" stroke-width="2" /><polyline fill="none" points="58.1424,92.8542 62.4814,106.739 68.5559,112.8136" stroke="#c30000" stroke-width="2" /><polyline fill="none" points="52.0678,23.4305 63.3492,42.0881 72.0271,62.4814 89.8169,85.478 87.6475,78.5356 75.9322,62.4814 56.4068,39.4847 55.9729,37.3153" stroke="#7f0000" stroke-width="2" /></svg>