<?xml version="1.0" encoding="utf-8" ?>
<svg baseProfile="tiny" height="128" version="1.2" viewBox="0,0,128,128" width="128" xmlns="http://www.w3.org/2000/svg" xmlns:ev="http://www.w3.org/2001/xml-events" xmlns:xlink="http://www.w3.org/1999/xlink"><defs /><polyline fill="none" points="68.3537,15.2381 66.1769,11.3197 61.3878,10.449 41.7959,15.2381 26.1224,25.2517 20.4626,30.4762 17.415,36.1361 10.449,54.4218 8.7075,74.8844 12.1905,84.898 22.2041,97.9592 37.0068,106.6667 49.6327,110.1497 64.4354,110.1497 80.5442,104.4898 98.3946,93.6054 110.585,82.7211 116.6803,74.0136 119.2925,63.5646 118.8571,49.1973 112.7619,31.3469 106.2313,22.2041 94.4762,12.6259 87.0748,9.5782 72.7075,8.7075 63.1293,10.0136" stroke="#00007f" stroke-width="2" /><polyline fill="none" points="37.8776,19.1565 47.8912,35.7007 52.2449,59.2109 53.551,92.7347 48.3265,107.9728" stroke="#004cff" stroke-width="2" /><polyline fill="none" points="90.9932,10.449 77.932,46.1497 75.3197,60.9524 75.3197,70.966 77.4966,79.6735 81.8503,86.6395 90.1224,94.4762" stroke="#29ffcd" stroke-width="2" /><polyline fill="none" points="40.4898,44.8435 46.585,40.4898 56.5986,38.3129" stroke="#cdff29" stroke-width="2" /><polyline fill="none" points="49.1973,62.2585 66.1769,59.2109" stroke="#ff6700" stroke-width="2" /><polyline fill="none" points="40.0544,88.381 63.5646,88.8163" stroke="#7f0000" stroke-width="2" /></svg>