<?xml version="1.0" encoding="utf-8" ?>
<svg baseProfile="tiny" height="128" version="1.2" viewBox="0,0,128,128" width="128" xmlns="http://www.w3.org/2000/svg" xmlns:ev="http://www.w3.org/2001/xml-events" xmlns:xlink="http://www.w3.org/1999/xlink"><defs /><polyline fill="none" points="37.3153,9.1119 32.9763,9.5458 26.4678,14.7525 16.922,26.9017 12.1492,36.8814 9.9797,44.2576 8.678,59.0102 10.8475,78.9695 13.8847,87.6475 19.9593,98.061 33.8441,110.2102 49.8983,117.1525 64.6508,119.322 69.8576,116.7186 75.0644,112.3797 85.0441,98.4949 89.8169,88.0814 94.5898,65.9525 91.9864,40.3525 83.7424,25.1661 70.2915,17.3559 49.8983,9.1119 39.0508,8.678 29.939,9.9797" stroke="#00007f" stroke-width="2" /><polyline fill="none" points="33.8441,9.9797 33.4102,48.5966 29.0712,87.6475 24.7322,100.6644" stroke="#7cff79" stroke-width="2" /><polyline fill="none" points="64.2169,12.1492 64.2169,12.1492" stroke="#7f0000" stroke-width="2" /></svg>