<?xml version="1.0" encoding="utf-8" ?>
<svg baseProfile="tiny" height="128" version="1.2" viewBox="0,0,128,128" width="128" xmlns="http://www.w3.org/2000/svg" xmlns:ev="http://www.w3.org/2001/xml-events" xmlns:xlink="http://www.w3.org/1999/xlink"><defs /><polyline fill="none" points="29.939,103.2678 25.6,99.3627 14.7525,84.6102 10.8475,74.1966 8.678,62.9153 8.678,51.6339 12.1492,39.9186 22.1288,30.3729 33.8441,24.2983 49.0305,22.1288 64.6508,22.1288 94.1559,27.7695 116.2847,39.0508 118.4542,42.522 119.322,50.7661 118.4542,61.6136 111.9458,72.8949 103.7017,81.139 81.139,96.7593 68.9898,97.6271 60.3119,95.4576 29.939,81.139" stroke="#00007f" stroke-width="2" /><polyline fill="none" points="32.1085,108.0407 33.8441,64.2169 33.8441,8.678" stroke="#0080ff" stroke-width="2" /><polyline fill="none" points="83.3085,91.9864 87.6475,44.6915 88.9492,36.0136 91.1186,33.4102" stroke="#7cff79" stroke-width="2" /><polyline fill="none" points="100.2305,80.7051 100.2305,66.3864 110.2102,37.7492" stroke="#ff9400" stroke-width="2" /><polyline fill="none" points="26.4678,60.7458 65.0847,52.9356 84.1763,50.7661 103.7017,54.6712" stroke="#7f0000" stroke-width="2" /></svg>