<?xml version="1.0" encoding="utf-8" ?>
<svg baseProfile="tiny" height="128" version="1.2" viewBox="0,0,128,128" width="128" xmlns="http://www.w3.org/2000/svg" xmlns:ev="http://www.w3.org/2001/xml-events" xmlns:xlink="http://www.w3.org/1999/xlink"><defs /><polyline fill="none" points="88.0814,20.3932 83.7424,15.6203 72.8949,13.0169 65.9525,13.0169 55.9729,15.6203 40.7864,23.8644 26.0339,38.1831 15.6203,56.4068 12.5831,70.7254 13.4508,80.2712 16.4881,89.8169 25.6,101.9661 37.7492,110.2102 47.2949,113.6814 56.8407,114.5492 71.1593,112.3797 80.7051,109.3424 94.5898,103.2678 105.0034,95.0237 113.6814,82.8746 118.0203,72.0271 119.322,59.0102 118.0203,50.7661 111.9458,34.278 105.0034,23.8644 96.7593,15.6203 83.7424,9.9797 75.0644,8.678" stroke="#00007f" stroke-width="2" /><polyline fill="none" points="41.6542,21.6949 47.2949,32.1085 48.5966,48.5966 43.3898,80.2712 35.1458,110.2102" stroke="#0028ff" stroke-width="2" /><polyline fill="none" points="93.2881,13.4508 85.478,31.2407 81.5729,43.8237 78.1017,65.9525 79.4034,83.3085 83.7424,93.2881 88.9492,100.2305" stroke="#00d4ff" stroke-width="2" /><polyline fill="none" points="8.678,63.7831 24.2983,63.3492" stroke="#7cff79" stroke-width="2" /><polyline fill="none" points="41.6542,65.9525 55.1051,64.6508" stroke="#ffe500" stroke-width="2" /><polyline fill="none" points="62.9153,65.0847 76.8,63.3492" stroke="#ff4600" stroke-width="2" /><polyline fill="none" points="90.2508,62.9153 103.2678,61.6136" stroke="#7f0000" stroke-width="2" /></svg>