<?xml version="1.0" encoding="utf-8" ?>
<svg baseProfile="tiny" height="128" version="1.2" viewBox="0,0,128,128" width="128" xmlns="http://www.w3.org/2000/svg" xmlns:ev="http://www.w3.org/2001/xml-events" xmlns:xlink="http://www.w3.org/1999/xlink"><defs /><polyline fill="none" points="84.1763,23.8644 60.7458,10.4136 52.5017,8.678 42.522,8.678 19.0915,32.9763 10.4136,49.4644 8.678,59.0102 8.678,78.1017 13.8847,90.6847 29.5051,111.9458 43.8237,117.5864 53.8034,119.322 85.9119,119.322 94.1559,113.2475 101.0983,104.1356 105.0034,91.1186 105.8712,68.5559 104.1356,58.1424 99.3627,44.6915 88.0814,21.261 85.9119,19.5254" stroke="#00007f" stroke-width="2" /><polyline fill="none" points="17.7898,26.9017 18.6576,36.0136 22.9966,44.6915 41.6542,50.7661 64.2169,50.7661 77.6678,41.2203 80.7051,33.4102 80.7051,22.9966" stroke="#7cff79" stroke-width="2" /><polyline fill="none" points="37.3153,112.8136 42.0881,92.4203 56.4068,84.1763 65.0847,81.5729 78.1017,82.4407 86.7797,87.6475 92.4203,95.4576 96.7593,110.2102" stroke="#7f0000" stroke-width="2" /></svg>