<?xml version="1.0" encoding="utf-8" ?>
<svg baseProfile="tiny" height="128" version="1.2" viewBox="0,0,128,128" width="128" xmlns="http://www.w3.org/2000/svg" xmlns:ev="http://www.w3.org/2001/xml-events" xmlns:xlink="http://www.w3.org/1999/xlink"><defs /><polyline fill="none" points="41.6542,8.678 51.6339,10.4136 68.122,17.3559 84.1763,25.6 89.3831,29.5051 102.4,53.8034 105.8712,63.3492 106.739,72.8949 103.2678,79.8373 89.8169,89.3831 47.2949,118.0203 40.3525,119.322 34.278,117.1525 21.261,108.4746 12.1492,99.3627 8.678,87.2136 9.1119,62.4814 16.922,39.9186 30.3729,11.7153 35.1458,9.9797 51.6339,9.1119 65.5186,12.1492" stroke="#00007f" stroke-width="2" /><polyline fill="none" points="60.7458,16.0542 51.2,19.9593 42.0881,25.1661 39.0508,28.2034 24.7322,58.1424 18.6576,83.3085" stroke="#004cff" stroke-width="2" /><polyline fill="none" points="40.7864,115.8508 59.4441,103.2678 68.5559,94.1559 78.9695,86.7797 90.2508,82.8746 103.7017,81.139" stroke="#29ffcd" stroke-width="2" /><polyline fill="none" points="57.7085,68.9898 58.5763,73.3288 65.0847,82.0068 66.3864,96.7593 72.0271,105.4373" stroke="#cdff29" stroke-width="2" /><polyline fill="none" points="83.3085,68.122 83.7424,86.7797 85.0441,92.4203" stroke="#ff6700" stroke-width="2" /><polyline fill="none" points="90.2508,64.6508 89.3831,81.5729 93.2881,93.722" stroke="#7f0000" stroke-width="2" /></svg>