<?xml version="1.0" encoding="utf-8" ?>
<svg baseProfile="tiny" height="128" version="1.2" viewBox="0,0,128,128" width="128" xmlns="http://www.w3.org/2000/svg" xmlns:ev="http://www.w3.org/2001/xml-events" xmlns:xlink="http://www.w3.org/1999/xlink"><defs /><polyline fill="none" points="32.9763,22.9966 28.2034,22.9966 20.3932,26.9017 12.5831,35.1458 10.8475,39.9186 8.678,54.6712 8.678,69.4237 13.4508,79.8373 19.5254,88.5153 27.3356,98.061 36.8814,105.4373 57.2746,113.6814 77.2339,114.9831 85.0441,112.8136 96.3254,105.4373 100.2305,100.6644 105.4373,89.8169 107.1729,83.3085 107.6068,66.3864 106.3051,58.1424 103.7017,51.2 95.0237,41.2203 89.3831,36.4475 65.5186,23.4305 51.2,12.1492 41.2203,8.678 36.0136,9.5458 28.6373,16.4881 24.2983,22.1288 18.2237,37.3153" stroke="#00007f" stroke-width="2" /><polyline fill="none" points="16.0542,32.1085 32.1085,32.9763 41.6542,41.2203 46.861,48.1627 59.4441,82.8746 62.4814,103.7017 62.0475,112.3797 59.878,116.7186" stroke="#7cff79" stroke-width="2" /><polyline fill="none" points="79.4034,27.3356 75.0644,36.4475 72.8949,46.4271 72.8949,64.6508 75.9322,78.1017 95.0237,113.2475 98.9288,118.8881 101.0983,119.322" stroke="#7f0000" stroke-width="2" /></svg>