<?xml version="1.0" encoding="utf-8" ?>
<svg baseProfile="tiny" height="128" version="1.2" viewBox="0,0,128,128" width="128" xmlns="http://www.w3.org/2000/svg" xmlns:ev="http://www.w3.org/2001/xml-events" xmlns:xlink="http://www.w3.org/1999/xlink"><defs /><polyline fill="none" points="56.8407,8.678 40.3525,9.1119 35.1458,10.4136 18.6576,20.8271 14.7525,26.4678 9.5458,41.2203 8.678,58.1424 9.9797,67.2542 15.6203,82.4407 23.8644,93.2881 32.9763,101.0983 45.9932,106.3051 66.3864,108.9085 79.8373,103.7017 85.9119,98.9288 98.9288,79.8373 101.9661,63.3492 99.3627,50.3322 95.8915,42.9559 91.9864,36.8814 83.3085,27.7695 61.1797,16.0542" stroke="#00007f" stroke-width="2" /><polyline fill="none" points="26.9017,16.0542 37.3153,26.0339 44.6915,37.7492 49.8983,57.7085 50.7661,81.5729 45.5593,101.0983 38.1831,119.322" stroke="#0000fe" stroke-width="2" /><polyline fill="none" points="71.5932,19.9593 64.2169,60.3119 64.2169,83.3085 68.5559,97.1932 75.0644,104.5695 85.9119,110.2102 91.1186,109.7763" stroke="#0060ff" stroke-width="2" /><polyline fill="none" points="32.5424,43.3898 45.5593,31.6746" stroke="#00d4ff" stroke-width="2" /><polyline fill="none" points="39.9186,89.8169 53.8034,90.6847" stroke="#4cffaa" stroke-width="2" /><polyline fill="none" points="42.522,101.5322 51.2,101.5322" stroke="#aaff4c" stroke-width="2" /><polyline fill="none" points="37.7492,67.6881 55.9729,59.878" stroke="#ffe500" stroke-width="2" /><polyline fill="none" points="59.4441,37.7492 72.8949,37.3153" stroke="#ff7a00" stroke-width="2" /><polyline fill="none" points="67.6881,79.8373 76.3661,78.9695" stroke="#fe1200" stroke-width="2" /><polyline fill="none" points="60.3119,107.6068 68.122,101.9661" stroke="#7f0000" stroke-width="2" /></svg>