<?xml version="1.0" encoding="utf-8" ?>
<svg baseProfile="tiny" height="128" version="1.2" viewBox="0,0,128,128" width="128" xmlns="http://www.w3.org/2000/svg" xmlns:ev="http://www.w3.org/2001/xml-events" xmlns:xlink="http://www.w3.org/1999/xlink"><defs /><polyline fill="none" points="100.6644,10.8475 97.6271,8.678 84.6102,9.9797 68.9898,15.1864 44.6915,28.2034 29.939,39.9186 22.9966,47.7288 16.922,55.539 9.9797,72.461 8.678,88.9492 10.8475,95.8915 16.4881,102.4 23.8644,107.1729 34.278,111.078 43.3898,112.3797 63.3492,113.2475 72.0271,111.9458 88.5153,103.7017 101.9661,93.2881 108.4746,85.478 115.8508,70.2915 118.8881,53.3695 119.322,30.3729 118.0203,25.1661 114.9831,19.9593 108.0407,14.7525 98.9288,12.1492 90.2508,12.1492 82.0068,16.0542" stroke="#00007f" stroke-width="2" /><polyline fill="none" points="32.1085,38.6169 35.1458,37.3153 40.3525,37.3153 46.861,39.9186 55.539,53.3695 60.7458,64.6508 64.6508,84.1763 65.0847,114.1153" stroke="#7cff79" stroke-width="2" /><polyline fill="none" points="72.0271,13.8847 68.5559,30.8068 68.5559,53.8034 74.6305,72.8949 80.7051,83.3085 87.2136,90.6847 93.2881,95.0237 102.8339,97.1932 106.739,100.2305" stroke="#7f0000" stroke-width="2" /></svg>