<?xml version="1.0" encoding="utf-8" ?>
<svg baseProfile="tiny" height="128" version="1.2" viewBox="0,0,128,128" width="128" xmlns="http://www.w3.org/2000/svg" xmlns:ev="http://www.w3.org/2001/xml-events" xmlns:xlink="http://www.w3.org/1999/xlink"><defs /><polyline fill="none" points="36.4475,15.1864 42.0881,11.2814 63.7831,12.1492 86.3458,27.7695 95.8915,36.4475 99.3627,41.2203 103.2678,52.9356 105.0034,67.2542 104.1356,85.9119 101.0983,91.5525 85.9119,109.3424 75.9322,114.9831 62.9153,119.322 42.9559,119.322 37.3153,116.7186 23.4305,101.5322 16.922,92.4203 8.678,73.3288 8.678,51.2 13.0169,36.4475 20.3932,20.3932 34.7119,8.678" stroke="#00007f" stroke-width="2" /><polyline fill="none" points="36.4475,11.2814 46.4271,31.2407 46.4271,49.4644 43.8237,58.1424 32.9763,78.1017 29.5051,83.3085 23.8644,87.6475" stroke="#7cff79" stroke-width="2" /><polyline fill="none" points="87.6475,30.3729 77.2339,50.7661 75.9322,55.539 76.3661,79.8373 78.9695,93.2881 81.5729,98.4949 81.5729,102.8339 83.3085,105.0034" stroke="#7f0000" stroke-width="2" /></svg>