<?xml version="1.0" encoding="utf-8" ?>
<svg baseProfile="tiny" height="128" version="1.2" viewBox="0,0,128,128" width="128" xmlns="http://www.w3.org/2000/svg" xmlns:ev="http://www.w3.org/2001/xml-events" xmlns:xlink="http://www.w3.org/1999/xlink"><defs /><polyline fill="none" points="80.5442,8.7075 61.8231,8.7075 35.7007,16.5442 30.9116,20.0272 17.8503,34.3946 10.449,50.068 8.7075,77.932 9.1429,86.6395 12.1905,93.6054 20.4626,103.619 44.8435,117.551 56.1633,119.2925 97.5238,102.7483 113.1973,89.2517 116.2449,83.5918 118.4218,71.8367 117.9864,57.4694 116.2449,50.9388 106.2313,34.8299 90.5578,17.8503 85.7687,10.449 84.898,11.7551" stroke="#00007f" stroke-width="2" /><polyline fill="none" points="48.3265,14.8027 53.1156,16.5442 58.7755,24.381 68.7891,31.7823 88.8163,61.3878 107.5374,82.2857" stroke="#0028ff" stroke-width="2" /><polyline fill="none" points="16.5442,56.1633 20.0272,57.4694 25.6871,64.4354 40.0544,76.1905 51.8095,90.9932 60.9524,100.1361 65.7415,104.0544 65.3061,100.5714" stroke="#00d4ff" stroke-width="2" /><polyline fill="none" points="24.8163,83.5918 29.1701,71.8367 43.9728,53.551" stroke="#7cff79" stroke-width="2" /><polyline fill="none" points="40.4898,83.5918 39.619,97.9592 40.9252,97.9592 49.1973,85.7687" stroke="#ffe500" stroke-width="2" /><polyline fill="none" points="56.5986,42.2313 54.8571,44.4082 60.517,41.7959 87.5102,25.2517 92.7347,23.5102" stroke="#ff4600" stroke-width="2" /><polyline fill="none" points="74.449,84.4626 73.5782,90.1224 75.7551,89.6871 85.3333,74.449 107.5374,51.8095" stroke="#7f0000" stroke-width="2" /></svg>