<?xml version="1.0" encoding="utf-8" ?>
<svg baseProfile="tiny" height="128" version="1.2" viewBox="0,0,128,128" width="128" xmlns="http://www.w3.org/2000/svg" xmlns:ev="http://www.w3.org/2001/xml-events" xmlns:xlink="http://www.w3.org/1999/xlink"><defs /><polyline fill="none" points="89.8169,18.2237 81.5729,11.2814 73.3288,8.678 49.0305,9.5458 43.8237,12.1492 36.4475,17.3559 31.2407,23.8644 26.9017,33.4102 16.0542,47.2949 9.5458,61.6136 8.678,82.4407 9.9797,84.6102 19.5254,98.9288 26.9017,106.739 44.2576,113.6814 53.8034,114.9831 95.8915,114.9831 103.7017,112.3797 114.1153,103.7017 119.322,90.2508 119.322,65.9525 116.7186,52.0678 109.7763,37.3153 101.0983,23.4305 87.6475,9.1119 84.6102,9.5458" stroke="#00007f" stroke-width="2" /><polyline fill="none" points="98.9288,29.939 96.7593,30.3729 87.2136,36.8814 79.8373,47.7288 75.4983,59.878 74.1966,78.9695 75.4983,95.0237 77.6678,105.4373 81.5729,113.2475" stroke="#7cff79" stroke-width="2" /><polyline fill="none" points="34.278,28.6373 35.1458,33.4102 43.8237,51.6339 45.1254,64.2169 45.1254,84.1763 39.4847,100.2305 36.4475,104.5695" stroke="#7f0000" stroke-width="2" /></svg>