<?xml version="1.0" encoding="utf-8" ?>
<svg baseProfile="tiny" height="128" version="1.2" viewBox="0,0,128,128" width="128" xmlns="http://www.w3.org/2000/svg" xmlns:ev="http://www.w3.org/2001/xml-events" xmlns:xlink="http://www.w3.org/1999/xlink"><defs /><polyline fill="none" points="84.1763,12.5831 70.2915,9.9797 49.0305,9.9797 40.3525,12.5831 33.8441,16.0542 19.9593,28.2034 11.2814,39.9186 8.678,49.4644 8.678,57.7085 13.0169,67.6881 23.4305,78.1017 30.8068,82.0068 57.7085,87.6475 84.6102,87.6475 93.722,83.7424 110.6441,68.9898 117.5864,53.3695 119.322,37.7492 113.6814,29.0712 85.0441,8.678" stroke="#00007f" stroke-width="2" /><polyline fill="none" points="45.1254,11.2814 41.6542,15.1864 36.4475,27.7695 35.1458,35.5797 36.0136,52.9356 45.9932,60.3119 52.0678,62.4814 56.4068,64.2169 69.4237,64.2169 79.8373,55.9729 89.8169,38.1831 92.8542,29.939 94.1559,10.4136 95.4576,9.9797" stroke="#0010ff" stroke-width="2" /><polyline fill="none" points="38.1831,14.7525 39.9186,20.3932 44.2576,26.0339 45.1254,22.5627 43.8237,20.8271" stroke="#00a4ff" stroke-width="2" /><polyline fill="none" points="33.4102,30.3729 38.6169,34.7119 38.6169,31.2407" stroke="#3fffb7" stroke-width="2" /><polyline fill="none" points="31.2407,45.1254 37.3153,48.1627 38.1831,39.9186 39.0508,40.7864" stroke="#b7ff3f" stroke-width="2" /><polyline fill="none" points="43.8237,53.8034 46.4271,56.8407 50.3322,58.5763 35.5797,60.7458" stroke="#ffb900" stroke-width="2" /><polyline fill="none" points="53.8034,57.2746 76.8,56.8407 72.8949,59.0102 66.8203,66.3864 68.5559,67.6881 71.1593,67.2542" stroke="#ff3000" stroke-width="2" /><polyline fill="none" points="77.6678,39.9186 90.6847,36.8814 95.4576,33.4102" stroke="#7f0000" stroke-width="2" /></svg>