<?xml version="1.0" encoding="utf-8" ?>
<svg baseProfile="tiny" height="128" version="1.2" viewBox="0,0,128,128" width="128" xmlns="http://www.w3.org/2000/svg" xmlns:ev="http://www.w3.org/2001/xml-events" xmlns:xlink="http://www.w3.org/1999/xlink"><defs /><polyline fill="none" points="87.2136,17.3559 78.5356,11.2814 69.8576,9.1119 57.7085,8.678 44.2576,13.0169 36.8814,16.922 25.6,26.0339 16.4881,37.7492 13.4508,44.6915 9.5458,60.3119 8.678,78.5356 9.1119,87.2136 14.7525,101.9661 19.0915,108.0407 24.7322,112.8136 30.8068,115.8508 45.9932,119.322 64.6508,118.0203 81.139,112.8136 88.9492,108.9085 101.9661,98.9288 108.0407,92.4203 112.3797,85.478 117.1525,71.5932 117.5864,50.7661 115.4169,45.1254 108.4746,34.278 104.1356,29.939 89.8169,19.9593 80.7051,16.4881 72.461,15.6203" stroke="#00007f" stroke-width="2" /><polyline fill="none" points="24.2983,25.1661 35.5797,32.5424 39.9186,39.4847 43.3898,50.3322 45.5593,68.5559 45.5593,81.5729 38.1831,109.7763" stroke="#0010ff" stroke-width="2" /><polyline fill="none" points="88.9492,21.261 85.0441,35.1458 82.4407,52.9356 82.4407,66.8203 85.478,78.5356 91.1186,85.0441 97.6271,87.6475 105.4373,87.2136 110.6441,83.3085" stroke="#00a4ff" stroke-width="2" /><polyline fill="none" points="74.1966,45.1254 86.3458,42.522" stroke="#3fffb7" stroke-width="2" /><polyline fill="none" points="76.3661,67.2542 84.6102,66.3864 94.1559,62.4814" stroke="#b7ff3f" stroke-width="2" /><polyline fill="none" points="83.7424,86.7797 103.7017,80.7051" stroke="#ffb900" stroke-width="2" /><polyline fill="none" points="33.8441,42.522 39.4847,38.6169 48.1627,35.5797" stroke="#ff3000" stroke-width="2" /><polyline fill="none" points="37.3153,65.5186 51.2,62.4814" stroke="#7f0000" stroke-width="2" /></svg>