<?xml version="1.0" encoding="utf-8" ?>
<svg baseProfile="tiny" height="128" version="1.2" viewBox="0,0,128,128" width="128" xmlns="http://www.w3.org/2000/svg" xmlns:ev="http://www.w3.org/2001/xml-events" xmlns:xlink="http://www.w3.org/1999/xlink"><defs /><polyline fill="none" points="35.5797,17.7898 26.4678,19.0915 16.0542,27.3356 11.7153,32.5424 8.678,42.9559 9.5458,101.5322 13.4508,109.7763 18.6576,115.4169 29.0712,119.322 65.5186,119.322 73.3288,117.5864 77.2339,113.2475 76.3661,74.1966 67.2542,48.1627 62.0475,37.7492 59.878,18.2237 55.9729,16.922 41.6542,16.922 30.3729,9.9797 23.4305,8.678" stroke="#00007f" stroke-width="2" /><polyline fill="none" points="13.4508,28.6373 19.0915,33.4102 27.3356,47.2949 33.4102,79.8373 33.4102,111.078 24.7322,118.8881 23.4305,116.2847 24.7322,113.2475" stroke="#7cff79" stroke-width="2" /><polyline fill="none" points="60.3119,40.3525 58.1424,46.4271 57.7085,102.8339 60.3119,115.4169" stroke="#7f0000" stroke-width="2" /></svg>