<?xml version="1.0" encoding="utf-8" ?>
<svg baseProfile="tiny" height="128" version="1.2" viewBox="0,0,128,128" width="128" xmlns="http://www.w3.org/2000/svg" xmlns:ev="http://www.w3.org/2001/xml-events" xmlns:xlink="http://www.w3.org/1999/xlink"><defs /><polyline fill="none" points="93.0512,11.3584 86.0614,9.1741 71.6451,9.1741 62.0341,12.6689 30.1433,35.8225 21.4061,47.1809 13.5427,61.1604 9.6109,72.9556 8.7372,82.1297 13.5427,96.1092 22.2799,106.5939 29.7065,111.8362 38.0068,116.2048 48.4915,119.2628 61.1604,119.2628 67.7133,116.6416 70.7713,113.5836 77.7611,103.099 85.6246,79.5085 89.1195,17.4744 85.1877,8.7372 77.3242,8.7372" stroke="#00007f" stroke-width="2" /><polyline fill="none" points="56.3549,15.2901 49.802,24.901 30.5802,74.2662 11.3584,109.215" stroke="#00d4ff" stroke-width="2" /><polyline fill="none" points="75.5768,9.6109 59.413,50.2389 49.802,70.3345 41.5017,101.3515 40.1911,103.099 38.0068,101.7884" stroke="#ffe500" stroke-width="2" /><polyline fill="none" points="19.2218,38.8805 38.8805,51.5495 45.4334,54.6075 51.1126,55.4812 78.198,54.6075" stroke="#7f0000" stroke-width="2" /></svg>