<?xml version="1.0" encoding="utf-8" ?>
<svg baseProfile="tiny" height="128" version="1.2" viewBox="0,0,128,128" width="128" xmlns="http://www.w3.org/2000/svg" xmlns:ev="http://www.w3.org/2001/xml-events" xmlns:xlink="http://www.w3.org/1999/xlink"><defs /><polyline fill="none" points="113.6814,38.6169 114.1153,35.1458 110.6441,26.4678 102.8339,19.0915 84.1763,10.8475 70.2915,8.678 55.9729,9.1119 47.2949,12.5831 17.3559,32.1085 9.1119,43.3898 8.678,55.9729 10.8475,77.2339 15.6203,87.2136 23.4305,98.061 31.2407,101.0983 45.5593,104.1356 58.5763,104.1356 63.3492,102.8339 89.8169,83.3085 93.722,78.9695 95.4576,72.0271 108.4746,46.4271 119.322,32.9763" stroke="#00007f" stroke-width="2" /><polyline fill="none" points="45.5593,11.7153 39.4847,52.5017 36.4475,62.9153 32.9763,68.9898 27.3356,73.7627 25.6,73.7627" stroke="#00d4ff" stroke-width="2" /><polyline fill="none" points="91.1186,15.6203 68.5559,39.0508 63.7831,45.9932 58.5763,59.0102 56.4068,68.5559 55.1051,88.0814 56.4068,93.722 59.4441,99.3627 63.3492,96.7593" stroke="#ffe500" stroke-width="2" /><polyline fill="none" points="68.122,17.3559 71.1593,16.922 79.4034,25.6 86.3458,38.1831" stroke="#7f0000" stroke-width="2" /></svg>