<?xml version="1.0" encoding="utf-8" ?>
<svg baseProfile="tiny" height="128" version="1.2" viewBox="0,0,128,128" width="128" xmlns="http://www.w3.org/2000/svg" xmlns:ev="http://www.w3.org/2001/xml-events" xmlns:xlink="http://www.w3.org/1999/xlink"><defs /><polyline fill="none" points="96.7593,16.4881 85.478,12.5831 73.3288,10.8475 59.0102,11.2814 44.2576,15.6203 31.6746,22.9966 21.261,32.9763 13.8847,44.6915 9.5458,56.8407 8.678,75.4983 11.2814,87.2136 16.922,98.061 25.1661,106.739 36.0136,113.6814 42.522,115.4169 56.8407,117.1525 71.1593,115.8508 91.5525,107.6068 103.2678,98.061 111.5119,87.6475 118.0203,68.9898 119.322,49.4644 115.4169,36.8814 103.7017,22.5627 92.4203,17.3559" stroke="#00007f" stroke-width="2" /><polyline fill="none" points="29.5051,25.1661 37.3153,35.5797 41.2203,43.8237 46.4271,63.3492 47.2949,85.478 44.6915,98.4949 39.4847,111.5119 39.4847,113.6814 40.3525,113.6814" stroke="#0028ff" stroke-width="2" /><polyline fill="none" points="78.9695,8.678 85.478,18.6576 89.8169,30.3729 91.9864,39.9186 92.4203,55.1051 91.1186,66.3864 87.6475,81.139 80.2712,98.061" stroke="#00d4ff" stroke-width="2" /><polyline fill="none" points="24.7322,32.9763 38.6169,27.7695" stroke="#7cff79" stroke-width="2" /><polyline fill="none" points="34.7119,43.3898 46.4271,38.6169" stroke="#ffe500" stroke-width="2" /><polyline fill="none" points="37.7492,54.6712 48.5966,51.6339" stroke="#ff4600" stroke-width="2" /><polyline fill="none" points="41.6542,64.2169 46.861,64.2169" stroke="#7f0000" stroke-width="2" /></svg>