<?xml version="1.0" encoding="utf-8" ?>
<svg baseProfile="tiny" height="128" version="1.2" viewBox="0,0,128,128" width="128" xmlns="http://www.w3.org/2000/svg" xmlns:ev="http://www.w3.org/2001/xml-events" xmlns:xlink="http://www.w3.org/1999/xlink"><defs /><polyline fill="none" points="82.0068,32.9763 78.5356,31.2407 60.3119,30.3729 36.0136,34.7119 24.7322,39.4847 16.4881,46.4271 11.7153,52.5017 8.678,64.6508 8.678,71.1593 11.7153,87.6475 20.8271,98.061 39.4847,110.2102 51.6339,115.8508 67.6881,119.322 80.7051,119.322 83.3085,117.1525 91.1186,92.8542 90.2508,77.2339 87.2136,61.1797 86.3458,9.9797 83.7424,8.678 82.4407,12.5831" stroke="#00007f" stroke-width="2" /><polyline fill="none" points="35.5797,40.7864 38.1831,51.2 38.1831,68.9898 36.8814,81.139 32.9763,96.3254 29.0712,99.3627" stroke="#7cff79" stroke-width="2" /><polyline fill="none" points="78.1017,36.4475 76.3661,49.4644 70.2915,65.9525 68.9898,83.7424 73.7627,97.1932 82.4407,109.7763" stroke="#7f0000" stroke-width="2" /></svg>