<?xml version="1.0" encoding="utf-8" ?>
<svg baseProfile="tiny" height="128" version="1.2" viewBox="0,0,128,128" width="128" xmlns="http://www.w3.org/2000/svg" xmlns:ev="http://www.w3.org/2001/xml-events" xmlns:xlink="http://www.w3.org/1999/xlink"><defs /><polyline fill="none" points="8.7075,45.7143 21.7687,29.1701 33.5238,19.1565 49.1973,15.6735 64.8707,16.5442 74.8844,21.7687 92.2993,35.2653 101.4422,45.7143 106.6667,55.2925 112.3265,67.9184 109.7143,67.9184 112.3265,94.9116 107.9728,107.102 103.619,111.0204 97.9592,113.6327 67.483,119.2925 55.2925,117.9864 40.4898,111.4558 20.898,98.3946 18.7211,97.0884 15.6735,98.8299 14.8027,94.4762 16.1088,62.2585 19.1565,64.0 22.2041,43.5374 37.0068,8.7075 42.2313,19.5918 48.7619,37.8776 53.9864,73.5782 54.4218,96.2177" stroke="#00007f" stroke-width="2" /><polyline fill="none" points="87.5102,37.8776 85.3333,41.7959 84.4626,49.1973 84.4626,76.6259 87.0748,97.5238 91.8639,108.4082 86.2041,103.619" stroke="#0010ff" stroke-width="2" /><polyline fill="none" points="44.8435,53.9864 55.2925,53.9864" stroke="#00a4ff" stroke-width="2" /><polyline fill="none" points="41.3605,66.6122 42.2313,68.3537 57.4694,77.932" stroke="#3fffb7" stroke-width="2" /><polyline fill="none" points="45.2789,40.9252 60.517,37.0068" stroke="#b7ff3f" stroke-width="2" /><polyline fill="none" points="77.0612,47.8912 86.2041,49.1973 93.6054,52.2449 93.6054,53.551" stroke="#ffb900" stroke-width="2" /><polyline fill="none" points="79.2381,69.2245 90.5578,77.4966" stroke="#ff3000" stroke-width="2" /><polyline fill="none" points="83.1565,99.7007 94.0408,98.8299 99.2653,100.1361" stroke="#7f0000" stroke-width="2" /></svg>