<?xml version="1.0" encoding="utf-8" ?>
<svg baseProfile="tiny" height="128" version="1.2" viewBox="0,0,128,128" width="128" xmlns="http://www.w3.org/2000/svg" xmlns:ev="http://www.w3.org/2001/xml-events" xmlns:xlink="http://www.w3.org/1999/xlink"><defs /><polyline fill="none" points="54.2373,8.678 42.522,12.5831 37.3153,17.3559 25.1661,33.8441 15.1864,52.0678 9.5458,70.2915 8.678,78.9695 10.8475,93.2881 13.8847,101.9661 24.2983,114.9831 37.3153,119.322 45.5593,118.4542 53.3695,116.7186 68.122,106.739 75.9322,98.9288 82.0068,89.8169 89.8169,71.1593 91.9864,54.6712 91.5525,46.861 87.2136,34.278 80.7051,25.1661 70.7254,19.5254 60.7458,19.5254" stroke="#00007f" stroke-width="2" /><polyline fill="none" points="22.9966,35.1458 29.939,40.3525 36.4475,49.0305 41.2203,56.8407 44.2576,67.2542 46.861,84.6102 43.8237,108.9085" stroke="#7cff79" stroke-width="2" /><polyline fill="none" points="63.3492,105.4373 69.4237,46.4271 72.0271,41.2203 80.2712,32.9763 94.1559,22.9966" stroke="#7f0000" stroke-width="2" /></svg>