<?xml version="1.0" encoding="utf-8" ?>
<svg baseProfile="tiny" height="128" version="1.2" viewBox="0,0,128,128" width="128" xmlns="http://www.w3.org/2000/svg" xmlns:ev="http://www.w3.org/2001/xml-events" xmlns:xlink="http://www.w3.org/1999/xlink"><defs /><polyline fill="none" points="88.0814,11.2814 51.6339,9.9797 30.8068,17.7898 26.0339,22.5627 9.5458,53.3695 8.678,85.0441 9.9797,92.4203 14.3186,98.9288 21.261,103.2678 37.7492,107.6068 61.1797,108.9085 98.4949,100.6644 109.7763,95.0237 115.8508,86.7797 119.322,67.2542 118.4542,52.5017 105.4373,24.7322 85.0441,8.678" stroke="#00007f" stroke-width="2" /><polyline fill="none" points="91.9864,19.0915 89.3831,30.8068 85.9119,73.3288 85.0441,88.5153 85.9119,97.6271 87.2136,97.6271" stroke="#7cff79" stroke-width="2" /><polyline fill="none" points="35.1458,21.261 39.9186,40.7864 39.9186,56.8407 37.3153,75.4983 33.8441,86.7797 27.3356,99.7966" stroke="#7f0000" stroke-width="2" /></svg>