<?xml version="1.0" encoding="utf-8" ?>
<svg baseProfile="tiny" height="128" version="1.2" viewBox="0,0,128,128" width="128" xmlns="http://www.w3.org/2000/svg" xmlns:ev="http://www.w3.org/2001/xml-events" xmlns:xlink="http://www.w3.org/1999/xlink"><defs /><polyline fill="none" points="59.878,108.9085 44.6915,104.5695 29.0712,95.0237 18.2237,85.9119 9.5458,70.2915 8.678,55.539 12.1492,43.8237 16.4881,35.5797 30.3729,19.0915 48.1627,9.9797 58.1424,8.678 70.7254,9.5458 88.5153,18.2237 95.0237,24.2983 99.7966,32.1085 102.4,39.0508 102.8339,45.9932 98.4949,63.3492 89.3831,79.4034 80.7051,87.6475 65.9525,97.1932 54.2373,101.5322 45.5593,103.2678 36.4475,100.6644" stroke="#00007f" stroke-width="2" /><polyline fill="none" points="20.3932,30.3729 26.4678,34.278 29.939,39.0508 32.1085,45.9932 32.9763,55.9729 32.5424,69.8576 23.4305,97.1932" stroke="#00d4ff" stroke-width="2" /><polyline fill="none" points="92.8542,30.3729 84.6102,30.8068 76.8,35.1458 67.2542,48.5966 63.3492,59.0102 60.7458,73.7627 61.1797,89.8169 65.0847,105.4373 69.4237,109.3424" stroke="#ffe500" stroke-width="2" /><polyline fill="none" points="57.7085,8.678 56.8407,44.6915 50.7661,79.8373 48.1627,111.9458 45.9932,119.322" stroke="#7f0000" stroke-width="2" /></svg>