<?xml version="1.0" encoding="utf-8" ?>
<svg baseProfile="tiny" height="128" version="1.2" viewBox="0,0,128,128" width="128" xmlns="http://www.w3.org/2000/svg" xmlns:ev="http://www.w3.org/2001/xml-events" xmlns:xlink="http://www.w3.org/1999/xlink"><defs /><polyline fill="none" points="45.1254,18.2237 39.9186,19.0915 29.5051,24.7322 16.922,41.2203 13.8847,47.2949 8.678,69.8576 9.5458,82.4407 13.4508,89.3831 26.9017,100.2305 56.8407,108.4746 94.1559,114.5492 111.078,114.5492 113.6814,113.6814 118.4542,110.2102 119.322,75.9322 111.078,57.2746 96.7593,35.1458 88.0814,26.4678 68.9898,14.3186 47.7288,8.678 36.8814,9.1119 32.1085,17.7898 31.6746,26.0339" stroke="#00007f" stroke-width="2" /><polyline fill="none" points="19.5254,40.3525 23.8644,45.9932 33.4102,50.7661 62.4814,59.4441 91.1186,60.7458 101.9661,54.2373" stroke="#00d4ff" stroke-width="2" /><polyline fill="none" points="23.4305,89.8169 26.9017,88.5153 29.939,85.478 40.7864,71.5932 47.2949,53.8034" stroke="#ffe500" stroke-width="2" /><polyline fill="none" points="47.2949,53.8034 48.1627,66.3864 60.3119,84.6102 72.8949,95.8915 80.7051,100.2305 93.2881,103.7017" stroke="#7f0000" stroke-width="2" /></svg>