<?xml version="1.0" encoding="utf-8" ?>
<svg baseProfile="tiny" height="128" version="1.2" viewBox="0,0,128,128" width="128" xmlns="http://www.w3.org/2000/svg" xmlns:ev="http://www.w3.org/2001/xml-events" xmlns:xlink="http://www.w3.org/1999/xlink"><defs /><polyline fill="none" points="88.5153,16.0542 81.5729,11.7153 72.0271,8.678 63.7831,9.1119 55.9729,12.5831 40.7864,23.4305 24.2983,38.6169 17.7898,46.4271 11.7153,57.2746 8.678,72.0271 8.678,80.7051 14.7525,92.8542 21.261,99.3627 31.6746,105.8712 57.2746,113.6814 67.6881,113.6814 74.6305,110.6441 80.2712,106.3051 95.0237,89.8169 101.5322,71.1593 101.0983,47.7288 98.4949,36.4475 95.0237,28.2034 85.9119,17.3559 76.8,12.5831 70.2915,11.7153" stroke="#00007f" stroke-width="2" /><polyline fill="none" points="55.539,15.1864 54.2373,25.6 52.9356,59.4441 49.4644,78.5356 43.8237,91.9864 38.6169,100.2305 30.8068,110.2102 20.3932,119.322" stroke="#7cff79" stroke-width="2" /><polyline fill="none" points="87.2136,26.0339 73.7627,66.8203 72.461,78.9695 72.8949,88.5153 79.8373,102.8339 82.0068,111.5119" stroke="#7f0000" stroke-width="2" /></svg>