<?xml version="1.0" encoding="utf-8" ?>
<svg baseProfile="tiny" height="128" version="1.2" viewBox="0,0,128,128" width="128" xmlns="http://www.w3.org/2000/svg" xmlns:ev="http://www.w3.org/2001/xml-events" xmlns:xlink="http://www.w3.org/1999/xlink"><defs /><polyline fill="none" points="73.7627,15.1864 69.8576,12.5831 55.1051,12.5831 49.0305,14.3186 39.4847,19.9593 15.6203,41.6542 9.5458,58.1424 8.678,78.9695 14.3186,91.5525 18.2237,97.6271 23.8644,103.7017 33.4102,108.9085 50.7661,115.4169 63.3492,118.4542 80.2712,119.322 85.9119,118.4542 92.4203,114.5492 110.6441,99.3627 113.6814,90.6847 118.4542,66.8203 118.4542,46.861 113.6814,31.6746 105.0034,20.8271 96.3254,15.1864 78.5356,8.678 65.0847,8.678" stroke="#00007f" stroke-width="2" /><polyline fill="none" points="109.7763,36.4475 105.8712,39.9186 92.4203,57.2746 85.9119,74.6305 85.9119,100.6644 88.5153,106.739 96.3254,116.7186" stroke="#00d4ff" stroke-width="2" /><polyline fill="none" points="34.278,55.539 36.4475,80.2712 36.4475,95.4576 26.0339,108.0407" stroke="#ffe500" stroke-width="2" /><polyline fill="none" points="23.8644,60.3119 31.6746,44.6915 31.6746,36.0136 26.9017,30.8068" stroke="#7f0000" stroke-width="2" /></svg>