<?xml version="1.0" encoding="utf-8" ?>
<svg baseProfile="tiny" height="128" version="1.2" viewBox="0,0,128,128" width="128" xmlns="http://www.w3.org/2000/svg" xmlns:ev="http://www.w3.org/2001/xml-events" xmlns:xlink="http://www.w3.org/1999/xlink"><defs /><polyline fill="none" points="45.9932,13.8847 56.8407,9.9797 78.1017,8.678 93.722,14.3186 108.4746,22.5627 114.5492,28.6373 118.8881,47.7288 119.322,60.3119 115.8508,77.6678 110.6441,90.6847 99.7966,105.8712 94.1559,110.6441 75.9322,118.4542 52.5017,118.8881 35.1458,114.1153 19.9593,100.2305 14.7525,91.1186 11.7153,79.8373 8.678,48.5966 14.7525,32.1085 19.5254,24.2983 23.8644,20.8271 28.6373,17.7898 37.7492,15.6203 54.6712,14.7525" stroke="#00007f" stroke-width="2" /><polyline fill="none" points="77.2339,17.7898 82.0068,22.1288 88.0814,34.7119 90.2508,51.2 88.9492,59.878 84.6102,67.6881 79.8373,71.5932 71.1593,73.7627 59.878,73.7627 52.9356,70.7254 51.2,68.5559 47.7288,62.0475 46.4271,46.861 44.2576,40.3525 31.6746,26.9017 32.1085,20.3932 35.5797,15.6203" stroke="#0000bf" stroke-width="2" /><polyline fill="none" points="82.4407,19.5254 82.4407,19.5254" stroke="#0000fe" stroke-width="2" /><polyline fill="none" points="91.5525,46.4271 89.3831,46.4271" stroke="#0028ff" stroke-width="2" /><polyline fill="none" points="87.6475,65.9525 87.6475,65.9525" stroke="#0060ff" stroke-width="2" /><polyline fill="none" points="79.8373,70.2915 78.1017,73.3288" stroke="#009cff" stroke-width="2" /><polyline fill="none" points="68.9898,72.0271 68.122,76.8" stroke="#00d4ff" stroke-width="2" /><polyline fill="none" points="62.9153,72.8949 61.6136,77.6678" stroke="#1fffd7" stroke-width="2" /><polyline fill="none" points="58.1424,68.9898 56.4068,75.0644" stroke="#4cffaa" stroke-width="2" /><polyline fill="none" points="51.2,68.9898 50.7661,71.1593" stroke="#7cff79" stroke-width="2" /><polyline fill="none" points="46.4271,56.4068 46.4271,56.4068" stroke="#aaff4c" stroke-width="2" /><polyline fill="none" points="45.9932,39.9186 45.9932,39.9186" stroke="#d7ff1f" stroke-width="2" /><polyline fill="none" points="36.4475,29.5051 36.4475,29.5051" stroke="#ffe500" stroke-width="2" /><polyline fill="none" points="34.7119,24.2983 31.6746,27.3356" stroke="#ffb100" stroke-width="2" /><polyline fill="none" points="91.5525,31.2407 91.5525,31.2407" stroke="#ff7a00" stroke-width="2" /><polyline fill="none" points="62.9153,78.5356 45.1254,76.8 40.3525,80.2712 34.7119,91.1186 31.6746,105.0034" stroke="#ff4600" stroke-width="2" /><polyline fill="none" points="74.1966,72.0271 78.5356,72.461 83.3085,75.0644 86.3458,80.2712 91.5525,110.2102" stroke="#fe1200" stroke-width="2" /><polyline fill="none" points="89.8169,85.478 87.6475,86.7797" stroke="#bf0000" stroke-width="2" /><polyline fill="none" points="91.5525,95.0237 90.2508,98.061" stroke="#7f0000" stroke-width="2" /></svg>