<?xml version="1.0" encoding="utf-8" ?>
<svg baseProfile="tiny" height="128" version="1.2" viewBox="0,0,128,128" width="128" xmlns="http://www.w3.org/2000/svg" xmlns:ev="http://www.w3.org/2001/xml-events" xmlns:xlink="http://www.w3.org/1999/xlink"><defs /><polyline fill="none" points="84.6102,21.6949 79.4034,14.7525 74.1966,10.4136 65.9525,8.678 40.7864,14.3186 28.6373,19.9593 23.8644,23.4305 16.4881,32.9763 11.7153,45.1254 8.678,65.9525 9.9797,87.2136 15.1864,98.9288 23.8644,108.0407 33.4102,114.1153 49.4644,118.8881 60.7458,119.322 71.5932,115.8508 81.5729,108.0407 90.2508,97.1932 97.1932,86.3458 101.5322,74.6305 102.8339,62.4814 101.9661,49.4644 91.9864,28.2034 87.6475,22.9966 74.1966,14.7525 62.9153,12.5831 68.5559,15.6203 73.3288,23.8644 88.0814,75.4983 94.5898,82.8746 100.6644,84.6102" stroke="#00007f" stroke-width="2" /><polyline fill="none" points="36.0136,15.1864 37.7492,26.4678 45.1254,51.6339 45.5593,72.8949 43.3898,86.7797 34.278,117.5864" stroke="#0010ff" stroke-width="2" /><polyline fill="none" points="27.7695,42.9559 36.4475,38.6169 57.7085,20.3932" stroke="#00a4ff" stroke-width="2" /><polyline fill="none" points="29.939,77.2339 35.1458,73.7627 56.8407,50.3322 67.6881,41.6542" stroke="#3fffb7" stroke-width="2" /><polyline fill="none" points="30.3729,102.8339 45.1254,104.1356 52.0678,102.4 84.6102,86.7797" stroke="#b7ff3f" stroke-width="2" /><polyline fill="none" points="66.8203,48.1627 76.3661,34.278 94.5898,15.6203" stroke="#ffb900" stroke-width="2" /><polyline fill="none" points="77.2339,78.1017 82.4407,65.0847 92.8542,50.7661 106.3051,41.2203" stroke="#ff3000" stroke-width="2" /><polyline fill="none" points="93.2881,92.4203 93.2881,87.6475 99.3627,71.1593 111.078,51.6339" stroke="#7f0000" stroke-width="2" /></svg>