<?xml version="1.0" encoding="utf-8" ?>
<svg baseProfile="tiny" height="128" version="1.2" viewBox="0,0,128,128" width="128" xmlns="http://www.w3.org/2000/svg" xmlns:ev="http://www.w3.org/2001/xml-events" xmlns:xlink="http://www.w3.org/1999/xlink"><defs /><polyline fill="none" points="104.1356,40.7864 92.4203,41.2203 88.0814,43.8237 78.9695,51.6339 68.122,68.122 65.9525,76.8 68.122,82.4407 76.3661,95.8915 88.9492,101.5322 96.7593,101.5322 109.3424,96.7593 114.5492,91.1186 117.5864,82.8746 119.322,70.7254 117.1525,59.4441 111.5119,46.861" stroke="#00007f" stroke-width="2" /><polyline fill="none" points="107.6068,53.8034 106.3051,55.539" stroke="#0000de" stroke-width="2" /><polyline fill="none" points="96.7593,68.9898 96.7593,68.9898" stroke="#0028ff" stroke-width="2" /><polyline fill="none" points="87.2136,83.3085 87.2136,83.3085" stroke="#0080ff" stroke-width="2" /><polyline fill="none" points="81.139,99.7966 81.139,99.7966" stroke="#00d4ff" stroke-width="2" /><polyline fill="none" points="87.2136,75.4983 84.6102,81.5729" stroke="#36ffc0" stroke-width="2" /><polyline fill="none" points="81.139,93.722 81.139,93.722" stroke="#7cff79" stroke-width="2" /><polyline fill="none" points="98.061,63.7831 94.5898,66.3864" stroke="#c0ff36" stroke-width="2" /><polyline fill="none" points="94.1559,72.461 94.1559,72.461" stroke="#ffe500" stroke-width="2" /><polyline fill="none" points="101.0983,55.1051 101.0983,55.1051" stroke="#ff9400" stroke-width="2" /><polyline fill="none" points="13.8847,85.478 41.2203,33.4102 51.2,19.0915 60.7458,9.5458 63.3492,8.678 65.9525,10.4136 67.6881,14.7525 67.6881,23.8644 63.3492,45.1254 42.9559,82.8746 31.6746,97.6271 19.9593,117.1525 15.1864,119.322 12.5831,117.1525 11.7153,101.5322 8.678,99.3627" stroke="#ff4600" stroke-width="2" /><polyline fill="none" points="21.6949,88.5153 26.4678,90.6847 26.4678,92.8542 24.7322,93.2881" stroke="#de0000" stroke-width="2" /><polyline fill="none" points="21.6949,88.9492 37.3153,96.3254 22.9966,90.6847 31.2407,91.1186 29.0712,88.9492 23.4305,87.6475" stroke="#7f0000" stroke-width="2" /></svg>