<?xml version="1.0" encoding="utf-8" ?>
<svg baseProfile="tiny" height="128" version="1.2" viewBox="0,0,128,128" width="128" xmlns="http://www.w3.org/2000/svg" xmlns:ev="http://www.w3.org/2001/xml-events" xmlns:xlink="http://www.w3.org/1999/xlink"><defs /><polyline fill="none" points="69.6599,100.1361 60.517,99.7007 35.2653,89.2517 20.0272,78.3673 14.8027,69.6599 9.1429,53.9864 8.7075,40.4898 16.5442,25.2517 26.1224,14.8027 35.7007,9.5782 41.3605,8.7075 57.4694,8.7075 70.966,11.3197 97.0884,19.5918 105.3605,23.9456 115.3741,34.8299 118.4218,42.6667 119.2925,60.0816 116.2449,69.2245 110.585,78.3673 102.3129,85.7687 81.8503,95.7823 70.966,103.1837 62.6939,105.7959" stroke="#00007f" stroke-width="2" /><polyline fill="none" points="87.9456,92.7347 79.6735,80.5442 73.5782,66.6122 70.5306,48.3265 70.5306,40.0544 73.5782,29.1701 82.2857,16.5442 87.9456,11.3197" stroke="#7cff79" stroke-width="2" /><polyline fill="none" points="23.0748,18.7211 38.3129,44.8435 47.4558,69.6599 48.7619,91.8639 44.8435,99.7007" stroke="#7f0000" stroke-width="2" /></svg>