<?xml version="1.0" encoding="utf-8" ?>
<svg baseProfile="tiny" height="128" version="1.2" viewBox="0,0,128,128" width="128" xmlns="http://www.w3.org/2000/svg" xmlns:ev="http://www.w3.org/2001/xml-events" xmlns:xlink="http://www.w3.org/1999/xlink"><defs /><polyline fill="none" points="46.861,12.1492 52.5017,10.4136 71.5932,9.9797 84.6102,12.1492 103.7017,22.1288 110.2102,29.5051 113.6814,38.6169 114.9831,60.7458 108.0407,73.3288 99.3627,83.7424 87.6475,93.722 75.0644,99.7966 47.7288,101.0983 35.5797,96.7593 25.1661,88.9492 17.3559,78.5356 12.1492,66.8203 8.678,53.8034 8.678,42.9559 11.2814,29.939 15.1864,22.9966 20.8271,16.922 27.7695,12.5831 43.8237,8.678" stroke="#00007f" stroke-width="2" /><polyline fill="none" points="20.8271,20.3932 27.7695,21.261 36.8814,26.9017 40.7864,34.7119 42.9559,43.8237 43.8237,78.1017 42.0881,92.4203 42.0881,119.322" stroke="#7cff79" stroke-width="2" /><polyline fill="none" points="91.5525,17.3559 87.6475,17.3559 79.8373,33.8441 77.6678,48.1627 77.2339,71.5932 81.139,81.5729 85.9119,88.0814 90.2508,92.4203 94.5898,94.1559" stroke="#7f0000" stroke-width="2" /></svg>