<?xml version="1.0" encoding="utf-8" ?>
<svg baseProfile="tiny" height="128" version="1.2" viewBox="0,0,128,128" width="128" xmlns="http://www.w3.org/2000/svg" xmlns:ev="http://www.w3.org/2001/xml-events" xmlns:xlink="http://www.w3.org/1999/xlink"><defs /><polyline fill="none" points="32.5424,17.3559 28.6373,18.6576 16.0542,31.2407 9.1119,55.9729 8.678,65.0847 9.9797,70.7254 12.1492,75.0644 22.9966,82.4407 38.6169,89.8169 62.0475,98.061 72.0271,100.2305 93.722,101.9661 107.6068,96.3254 114.1153,89.8169 118.8881,80.7051 119.322,68.122 118.4542,63.3492 114.9831,56.8407 102.8339,40.7864 82.0068,22.5627 70.7254,15.1864 62.9153,11.7153 45.9932,8.678 36.8814,9.1119 30.3729,11.7153" stroke="#00007f" stroke-width="2" /><polyline fill="none" points="33.8441,24.2983 40.3525,51.6339 40.3525,59.4441 33.4102,74.6305 28.2034,81.5729" stroke="#7cff79" stroke-width="2" /><polyline fill="none" points="82.0068,31.2407 75.9322,53.3695 75.4983,65.5186 80.2712,76.3661 91.5525,86.7797" stroke="#7f0000" stroke-width="2" /></svg>