<?xml version="1.0" encoding="utf-8" ?>
<svg baseProfile="tiny" height="128" version="1.2" viewBox="0,0,128,128" width="128" xmlns="http://www.w3.org/2000/svg" xmlns:ev="http://www.w3.org/2001/xml-events" xmlns:xlink="http://www.w3.org/1999/xlink"><defs /><polyline fill="none" points="37.7492,16.4881 28.2034,22.5627 18.2237,33.8441 13.8847,40.7864 9.9797,51.2 9.1119,59.4441 8.678,68.122 10.4136,78.1017 19.5254,94.1559 25.6,100.2305 39.4847,109.3424 55.9729,113.6814 63.3492,113.2475 70.2915,110.6441 84.1763,100.2305 112.8136,82.4407 119.322,72.0271 117.5864,62.0475 108.4746,49.0305 83.3085,23.4305 75.0644,17.3559 66.8203,12.1492 54.6712,8.678 47.2949,10.8475 45.1254,13.0169" stroke="#00007f" stroke-width="2" /><polyline fill="none" points="29.939,19.9593 41.2203,75.4983 42.9559,93.722 41.6542,104.1356" stroke="#7cff79" stroke-width="2" /><polyline fill="none" points="70.7254,24.7322 67.2542,36.0136 67.6881,58.5763 69.4237,73.3288 72.0271,85.0441 76.3661,94.1559 84.6102,105.0034" stroke="#7f0000" stroke-width="2" /></svg>