<?xml version="1.0" encoding="utf-8" ?>
<svg baseProfile="tiny" height="128" version="1.2" viewBox="0,0,128,128" width="128" xmlns="http://www.w3.org/2000/svg" xmlns:ev="http://www.w3.org/2001/xml-events" xmlns:xlink="http://www.w3.org/1999/xlink"><defs /><polyline fill="none" points="8.678,112.3797 23.4305,106.739 28.2034,101.9661 30.3729,101.9661 31.6746,100.2305 37.7492,90.2508 39.0508,85.9119 41.6542,83.7424 46.4271,71.5932 53.3695,61.6136 56.8407,53.3695 68.5559,37.3153 77.6678,28.6373 91.9864,28.2034 96.7593,32.9763 97.6271,43.3898 95.4576,52.9356 90.6847,64.2169 78.9695,75.0644 60.3119,85.0441 53.8034,92.8542 48.1627,96.3254 34.7119,110.2102 24.2983,118.0203 20.8271,119.322 15.1864,118.8881 10.4136,112.8136" stroke="#00007f" stroke-width="2" /><polyline fill="none" points="26.4678,11.7153 23.8644,12.5831 22.1288,16.4881 21.6949,26.0339 26.0339,33.8441 30.8068,38.1831 35.1458,39.4847 39.4847,38.6169 44.6915,29.5051 44.6915,21.261 40.7864,12.5831 32.1085,8.678 25.6,11.2814" stroke="#7f0000" stroke-width="2" /></svg>