<?xml version="1.0" encoding="utf-8" ?>
<svg baseProfile="tiny" height="128" version="1.2" viewBox="0,0,128,128" width="128" xmlns="http://www.w3.org/2000/svg" xmlns:ev="http://www.w3.org/2001/xml-events" xmlns:xlink="http://www.w3.org/1999/xlink"><defs /><polyline fill="none" points="45.9932,8.678 32.5424,14.7525 18.6576,26.4678 11.7153,39.4847 8.678,52.5017 8.678,67.2542 11.7153,78.9695 22.5627,97.6271 33.8441,108.9085 51.2,117.1525 63.3492,119.322 78.9695,119.322 87.6475,116.7186 96.7593,111.9458 106.739,103.7017 114.5492,91.9864 118.0203,77.2339 117.5864,56.8407 113.6814,46.4271 110.6441,42.522 103.7017,35.5797 94.1559,29.939 69.4237,15.6203 59.0102,11.7153 45.1254,9.5458 42.0881,11.7153 39.9186,16.922 39.9186,26.9017 44.6915,39.9186 52.0678,52.0678 69.8576,72.8949 76.8,89.8169 76.8,100.6644 73.7627,107.6068 66.8203,116.7186" stroke="#00007f" stroke-width="2" /><polyline fill="none" points="66.8203,118.8881 76.8,109.7763 79.4034,105.4373 81.5729,96.7593 81.5729,83.3085 71.5932,66.3864 63.7831,59.0102 57.2746,49.4644 51.6339,33.8441 49.8983,17.3559" stroke="#7f0000" stroke-width="2" /></svg>