<?xml version="1.0" encoding="utf-8" ?>
<svg baseProfile="tiny" height="128" version="1.2" viewBox="0,0,128,128" width="128" xmlns="http://www.w3.org/2000/svg" xmlns:ev="http://www.w3.org/2001/xml-events" xmlns:xlink="http://www.w3.org/1999/xlink"><defs /><polyline fill="none" points="91.1186,13.0169 86.7797,10.8475 62.4814,8.678 47.7288,8.678 37.3153,10.4136 26.9017,14.3186 19.9593,19.0915 16.0542,24.2983 10.4136,36.4475 8.678,46.4271 9.1119,75.4983 13.0169,88.5153 19.0915,102.8339 22.5627,107.6068 29.939,113.2475 37.3153,116.7186 59.4441,117.5864 102.8339,96.7593 106.3051,93.722 117.5864,74.6305 119.322,67.6881 119.322,57.2746 114.5492,39.0508 107.1729,25.1661 93.2881,12.1492" stroke="#00007f" stroke-width="2" /><polyline fill="none" points="88.5153,19.5254 88.5153,28.2034" stroke="#0000ff" stroke-width="2" /><polyline fill="none" points="88.5153,36.4475 88.5153,44.2576 90.2508,49.4644" stroke="#0080ff" stroke-width="2" /><polyline fill="none" points="92.8542,55.539 99.3627,67.2542" stroke="#15ffe1" stroke-width="2" /><polyline fill="none" points="101.9661,72.8949 108.9085,78.1017" stroke="#7cff79" stroke-width="2" /><polyline fill="none" points="24.7322,14.7525 29.939,28.6373" stroke="#e4ff12" stroke-width="2" /><polyline fill="none" points="33.8441,38.6169 36.0136,49.4644 35.1458,57.2746" stroke="#ff9400" stroke-width="2" /><polyline fill="none" points="36.0136,66.8203 33.8441,84.1763" stroke="#ff1d00" stroke-width="2" /><polyline fill="none" points="33.8441,91.5525 26.4678,108.0407" stroke="#7f0000" stroke-width="2" /></svg>