<?xml version="1.0" encoding="utf-8" ?>
<svg baseProfile="tiny" height="128" version="1.2" viewBox="0,0,128,128" width="128" xmlns="http://www.w3.org/2000/svg" xmlns:ev="http://www.w3.org/2001/xml-events" xmlns:xlink="http://www.w3.org/1999/xlink"><defs /><polyline fill="none" points="80.5442,8.7075 64.4354,9.5782 44.4082,14.8027 31.3469,20.898 22.2041,28.2993 13.932,38.7483 8.7075,50.9388 8.7075,67.483 12.6259,76.1905 29.6054,85.3333 42.6667,88.381 67.0476,90.9932 87.5102,90.9932 96.2177,88.381 104.4898,82.7211 111.0204,77.0612 117.1156,67.483 118.8571,61.3878 119.2925,47.4558 107.102,24.381 89.2517,20.0272" stroke="#00007f" stroke-width="2" /><polyline fill="none" points="70.966,9.1429 64.8707,51.3741 59.6463,70.5306 58.7755,81.415 56.1633,77.932" stroke="#00d4ff" stroke-width="2" /><polyline fill="none" points="27.8639,28.7347 32.6531,33.0884 37.0068,40.0544 37.8776,59.2109 36.5714,63.1293 33.5238,66.6122 16.1088,70.966 12.6259,72.7075 17.415,71.8367" stroke="#ffe500" stroke-width="2" /><polyline fill="none" points="110.585,34.8299 100.5714,47.4558 93.1701,64.8707 91.8639,79.2381 95.3469,84.4626" stroke="#7f0000" stroke-width="2" /></svg>