<?xml version="1.0" encoding="utf-8" ?>
<svg baseProfile="tiny" height="128" version="1.2" viewBox="0,0,128,128" width="128" xmlns="http://www.w3.org/2000/svg" xmlns:ev="http://www.w3.org/2001/xml-events" xmlns:xlink="http://www.w3.org/1999/xlink"><defs /><polyline fill="none" points="14.7525,22.9966 10.4136,36.4475 8.678,50.3322 9.5458,71.1593 13.0169,80.7051 17.3559,89.3831 25.1661,98.061 39.4847,106.3051 50.7661,109.7763 63.7831,111.5119 80.7051,110.2102 91.1186,105.4373 101.5322,98.4949 112.3797,87.2136 116.7186,78.5356 119.322,65.0847 118.8881,57.2746 114.9831,49.8983 103.7017,39.0508 51.6339,11.2814 41.2203,8.678 34.7119,10.4136 26.4678,17.7898 22.5627,25.1661" stroke="#00007f" stroke-width="2" /><polyline fill="none" points="22.1288,23.4305 25.6,25.1661 33.4102,32.5424 39.9186,42.0881 45.9932,59.878 47.7288,73.7627 47.2949,88.0814 42.0881,105.4373 36.0136,115.8508" stroke="#7cff79" stroke-width="2" /><polyline fill="none" points="94.5898,34.278 85.478,41.6542 73.3288,55.539 68.9898,64.2169 66.3864,76.3661 67.2542,84.6102 72.8949,95.8915 80.7051,102.4 90.6847,106.3051" stroke="#7f0000" stroke-width="2" /></svg>