<?xml version="1.0" encoding="utf-8" ?>
<svg baseProfile="tiny" height="128" version="1.2" viewBox="0,0,128,128" width="128" xmlns="http://www.w3.org/2000/svg" xmlns:ev="http://www.w3.org/2001/xml-events" xmlns:xlink="http://www.w3.org/1999/xlink"><defs /><polyline fill="none" points="68.5559,26.4678 66.3864,24.7322 47.2949,28.2034 22.1288,45.9932 17.3559,52.5017 10.8475,67.2542 8.678,83.3085 11.2814,92.8542 18.6576,103.2678 36.0136,115.8508 46.861,119.322 56.4068,119.322 74.6305,115.4169 82.4407,111.5119 86.3458,106.739 95.8915,88.9492 99.7966,71.5932 99.7966,44.6915 94.5898,24.2983 84.6102,8.678 80.2712,9.5458 68.122,19.0915 59.4441,29.5051" stroke="#00007f" stroke-width="2" /><polyline fill="none" points="42.522,27.3356 42.522,42.0881 37.3153,59.4441 30.8068,68.122 15.6203,97.1932 15.1864,104.1356 19.5254,105.4373" stroke="#7cff79" stroke-width="2" /><polyline fill="none" points="99.3627,32.1085 82.0068,33.8441 74.6305,36.8814 69.8576,39.9186 61.6136,50.3322 54.2373,66.3864 52.0678,76.8 51.2,100.2305 49.8983,100.6644" stroke="#7f0000" stroke-width="2" /></svg>