<?xml version="1.0" encoding="utf-8" ?>
<svg baseProfile="tiny" height="128" version="1.2" viewBox="0,0,128,128" width="128" xmlns="http://www.w3.org/2000/svg" xmlns:ev="http://www.w3.org/2001/xml-events" xmlns:xlink="http://www.w3.org/1999/xlink"><defs /><polyline fill="none" points="79.4034,13.8847 57.2746,16.0542 31.6746,26.0339 19.9593,36.8814 14.7525,43.8237 8.678,61.1797 10.4136,77.2339 13.0169,84.1763 20.8271,94.5898 32.9763,104.5695 40.3525,108.4746 48.1627,111.5119 57.7085,113.2475 65.9525,113.2475 81.139,109.3424 93.722,101.9661 98.061,97.6271 102.4,92.4203 108.4746,79.8373 110.6441,73.3288 112.3797,54.2373 111.078,39.9186 108.4746,30.8068 104.5695,22.5627 98.061,15.6203 87.2136,9.9797 79.4034,8.678 69.4237,9.5458 59.4441,12.5831" stroke="#00007f" stroke-width="2" /><polyline fill="none" points="34.278,102.4 37.3153,89.3831 42.9559,76.3661 52.9356,62.4814 65.0847,49.4644 86.7797,33.8441 105.4373,25.6 119.322,21.6949" stroke="#0080ff" stroke-width="2" /><polyline fill="none" points="49.0305,80.7051 49.0305,80.7051" stroke="#7cff79" stroke-width="2" /><polyline fill="none" points="37.3153,68.122 55.1051,73.7627" stroke="#ff9400" stroke-width="2" /><polyline fill="none" points="50.3322,56.4068 55.9729,60.7458" stroke="#7f0000" stroke-width="2" /></svg>