<?xml version="1.0" encoding="utf-8" ?>
<svg baseProfile="tiny" height="128" version="1.2" viewBox="0,0,128,128" width="128" xmlns="http://www.w3.org/2000/svg" xmlns:ev="http://www.w3.org/2001/xml-events" xmlns:xlink="http://www.w3.org/1999/xlink"><defs /><polyline fill="none" points="42.9559,95.0237 32.5424,92.8542 23.8644,88.5153 14.7525,79.8373 10.8475,74.1966 8.678,66.3864 9.5458,45.5593 14.3186,34.7119 20.8271,25.6 38.1831,13.4508 49.0305,9.9797 60.7458,8.678 85.478,8.678 97.1932,11.2814 104.5695,15.1864 115.4169,24.2983 118.4542,30.3729 119.322,45.1254 118.4542,53.3695 114.5492,60.7458 104.5695,73.3288 87.6475,86.3458 68.9898,94.1559 45.9932,95.0237 41.6542,91.5525" stroke="#00007f" stroke-width="2" /><polyline fill="none" points="81.5729,8.678 72.461,25.6 68.5559,36.4475 68.122,65.0847 70.2915,74.1966 74.1966,81.139" stroke="#0028ff" stroke-width="2" /><polyline fill="none" points="48.5966,15.1864 52.0678,39.9186 52.0678,57.7085 45.1254,78.5356 34.7119,91.9864" stroke="#00d4ff" stroke-width="2" /><polyline fill="none" points="82.0068,70.2915 75.0644,75.0644" stroke="#7cff79" stroke-width="2" /><polyline fill="none" points="76.8,46.861 62.4814,48.5966" stroke="#ffe500" stroke-width="2" /><polyline fill="none" points="76.3661,26.9017 65.5186,23.4305" stroke="#ff4600" stroke-width="2" /><polyline fill="none" points="83.3085,17.3559 83.3085,17.3559" stroke="#7f0000" stroke-width="2" /></svg>