<?xml version="1.0" encoding="utf-8" ?>
<svg baseProfile="tiny" height="128" version="1.2" viewBox="0,0,128,128" width="128" xmlns="http://www.w3.org/2000/svg" xmlns:ev="http://www.w3.org/2001/xml-events" xmlns:xlink="http://www.w3.org/1999/xlink"><defs /><polyline fill="none" points="32.6531,8.7075 23.0748,16.5442 16.1088,27.4286 13.0612,34.8299 9.5782,53.9864 8.7075,84.4626 14.8027,100.5714 19.5918,107.102 34.8299,116.6803 44.4082,119.2925 63.1293,119.2925 71.8367,114.5034 80.1088,107.9728 94.4762,90.9932 102.3129,69.2245 104.9252,50.5034 104.4898,42.6667 101.4422,35.2653 96.6531,28.7347 90.9932,22.6395 78.3673,13.932 63.5646,9.5782 47.4558,10.0136 33.5238,14.3673 26.5578,19.1565" stroke="#00007f" stroke-width="2" /><polyline fill="none" points="48.3265,10.449 51.8095,23.0748 52.2449,41.3605 47.4558,57.034 40.0544,68.3537 19.5918,86.2041" stroke="#7cff79" stroke-width="2" /><polyline fill="none" points="76.1905,10.449 73.5782,11.3197 69.2245,17.8503 63.1293,32.2177 62.6939,48.3265 67.9184,77.932 70.966,86.6395 75.3197,90.1224 80.1088,92.7347 96.2177,93.6054" stroke="#7f0000" stroke-width="2" /></svg>