<?xml version="1.0" encoding="utf-8" ?>
<svg baseProfile="tiny" height="128" version="1.2" viewBox="0,0,128,128" width="128" xmlns="http://www.w3.org/2000/svg" xmlns:ev="http://www.w3.org/2001/xml-events" xmlns:xlink="http://www.w3.org/1999/xlink"><defs /><polyline fill="none" points="38.7483,18.2857 32.6531,21.3333 25.6871,27.4286 9.1429,53.1156 8.7075,64.4354 10.8844,73.5782 17.415,88.8163 25.6871,101.4422 33.5238,108.8435 43.102,113.6327 54.4218,116.6803 71.8367,117.9864 82.7211,115.8095 95.7823,110.585 107.102,104.4898 113.1973,99.2653 118.8571,87.0748 119.2925,67.0476 111.0204,44.8435 93.6054,23.5102 85.3333,18.2857 78.3673,15.6735 50.5034,8.7075 35.2653,20.898 32.2177,26.9932" stroke="#00007f" stroke-width="2" /><polyline fill="none" points="89.2517,20.898 82.7211,42.2313 82.7211,58.7755 99.7007,99.7007 103.619,104.4898" stroke="#7cff79" stroke-width="2" /><polyline fill="none" points="32.6531,20.4626 39.619,37.8776 47.8912,71.4014 47.8912,86.6395 46.1497,104.0544" stroke="#7f0000" stroke-width="2" /></svg>