<?xml version="1.0" encoding="utf-8" ?>
<svg baseProfile="tiny" height="128" version="1.2" viewBox="0,0,128,128" width="128" xmlns="http://www.w3.org/2000/svg" xmlns:ev="http://www.w3.org/2001/xml-events" xmlns:xlink="http://www.w3.org/1999/xlink"><defs /><polyline fill="none" points="29.6054,96.6531 21.7687,93.1701 8.7075,98.3946 10.0136,109.2789 18.7211,117.1156 32.2177,119.2925 41.7959,115.3741 40.4898,110.585" stroke="#00007f" stroke-width="2" /><polyline fill="none" points="28.2993,96.2177 49.6327,66.1769 76.1905,11.3197 83.5918,8.7075 88.8163,19.5918 86.2041,42.2313 83.1565,50.068 64.0,80.5442 44.4082,102.7483 36.5714,109.2789" stroke="#0080ff" stroke-width="2" /><polyline fill="none" points="27.8639,19.5918 18.2857,25.6871 10.0136,40.9252 10.8844,44.4082 26.5578,48.3265 41.7959,33.5238 37.4422,25.2517 34.8299,23.9456 21.7687,24.381" stroke="#7cff79" stroke-width="2" /><polyline fill="none" points="52.6803,26.5578 89.6871,48.3265 106.6667,64.4354" stroke="#ff9400" stroke-width="2" /><polyline fill="none" points="58.3401,53.1156 82.2857,77.0612 97.5238,85.3333" stroke="#7f0000" stroke-width="2" /></svg>