<?xml version="1.0" encoding="utf-8" ?>
<svg baseProfile="tiny" height="128" version="1.2" viewBox="0,0,128,128" width="128" xmlns="http://www.w3.org/2000/svg" xmlns:ev="http://www.w3.org/2001/xml-events" xmlns:xlink="http://www.w3.org/1999/xlink"><defs /><polyline fill="none" points="88.0814,26.4678 78.9695,17.3559 68.9898,11.2814 62.9153,9.1119 56.4068,8.678 49.8983,9.5458 42.0881,13.8847 21.6949,33.4102 12.1492,50.7661 9.5458,60.3119 8.678,78.1017 9.9797,86.7797 13.4508,94.5898 18.2237,101.9661 23.4305,107.6068 30.3729,111.9458 38.6169,114.9831 59.878,115.8508 70.7254,112.8136 82.4407,108.0407 93.2881,101.9661 109.7763,86.7797 115.4169,78.5356 118.8881,69.8576 119.322,62.9153 119.322,55.539 115.8508,47.2949 111.5119,40.7864 100.2305,29.5051 77.2339,16.922" stroke="#00007f" stroke-width="2" /><polyline fill="none" points="43.8237,15.1864 47.2949,19.5254 49.4644,27.3356 50.3322,45.1254 49.0305,52.0678 39.9186,72.8949 21.261,100.6644 20.3932,104.5695" stroke="#00d4ff" stroke-width="2" /><polyline fill="none" points="68.5559,22.5627 60.3119,58.1424 59.4441,84.6102 66.3864,99.7966 72.0271,105.0034 81.5729,110.2102 95.0237,113.2475 94.1559,111.9458" stroke="#ffe500" stroke-width="2" /><polyline fill="none" points="10.8475,53.3695 46.861,56.8407 68.9898,56.8407 98.4949,52.9356 114.1153,49.4644" stroke="#7f0000" stroke-width="2" /></svg>