<?xml version="1.0" encoding="utf-8" ?>
<svg baseProfile="tiny" height="128" version="1.2" viewBox="0,0,128,128" width="128" xmlns="http://www.w3.org/2000/svg" xmlns:ev="http://www.w3.org/2001/xml-events" xmlns:xlink="http://www.w3.org/1999/xlink"><defs /><polyline fill="none" points="33.9592,27.8639 26.1224,27.8639 19.5918,32.6531 11.7551,48.3265 8.7075,61.3878 9.5782,76.6259 16.5442,88.381 25.6871,97.5238 43.9728,105.7959 68.3537,107.5374 76.1905,105.7959 90.9932,98.8299 102.7483,90.9932 107.102,85.7687 114.5034,73.5782 118.8571,59.2109 119.2925,39.1837 114.5034,28.7347 110.1497,23.9456 101.4422,17.415 90.5578,11.7551 72.7075,8.7075 54.4218,8.7075 37.0068,12.6259 31.3469,15.6735 21.7687,21.3333 13.0612,33.5238 10.8844,40.9252 11.3197,57.9048" stroke="#00007f" stroke-width="2" /><polyline fill="none" points="27.8639,21.7687 33.0884,33.5238 38.3129,67.9184 38.3129,79.6735 31.7823,109.7143" stroke="#7cff79" stroke-width="2" /><polyline fill="none" points="89.6871,8.7075 87.5102,15.2381 84.0272,40.0544 84.4626,66.1769 87.5102,76.6259 98.3946,93.6054" stroke="#7f0000" stroke-width="2" /></svg>