<?xml version="1.0" encoding="utf-8" ?>
<svg baseProfile="tiny" height="128" version="1.2" viewBox="0,0,128,128" width="128" xmlns="http://www.w3.org/2000/svg" xmlns:ev="http://www.w3.org/2001/xml-events" xmlns:xlink="http://www.w3.org/1999/xlink"><defs /><polyline fill="none" points="55.539,11.7153 46.861,8.678 39.9186,9.1119 29.5051,14.7525 21.261,24.7322 14.7525,35.5797 9.9797,49.4644 8.678,58.5763 9.5458,77.6678 12.5831,87.6475 16.922,96.3254 22.5627,103.2678 29.5051,108.9085 44.2576,115.8508 52.9356,118.4542 68.9898,119.322 76.3661,116.2847 88.0814,105.8712 95.8915,91.9864 98.9288,83.7424 99.7966,74.6305 100.2305,57.2746 96.3254,42.9559 89.3831,32.1085 68.122,12.1492 60.7458,9.1119" stroke="#00007f" stroke-width="2" /><polyline fill="none" points="54.2373,9.1119 54.6712,43.3898 48.1627,113.6814" stroke="#00d4ff" stroke-width="2" /><polyline fill="none" points="22.5627,18.6576 34.278,26.0339 43.3898,37.3153 48.1627,50.7661 49.8983,66.8203 49.0305,84.1763 47.7288,89.3831 42.9559,98.4949 34.7119,107.6068 30.8068,109.7763 27.3356,109.7763 22.5627,106.739" stroke="#ffe500" stroke-width="2" /><polyline fill="none" points="86.7797,31.6746 86.3458,29.939 78.5356,33.8441 60.7458,51.2 50.3322,69.4237 47.7288,84.6102 48.5966,89.3831 54.6712,95.8915 73.3288,105.4373 91.5525,112.8136" stroke="#7f0000" stroke-width="2" /></svg>