<?xml version="1.0" encoding="utf-8" ?>
<svg baseProfile="tiny" height="128" version="1.2" viewBox="0,0,128,128" width="128" xmlns="http://www.w3.org/2000/svg" xmlns:ev="http://www.w3.org/2001/xml-events" xmlns:xlink="http://www.w3.org/1999/xlink"><defs /><polyline fill="none" points="102.4,20.3932 101.9661,18.2237 97.6271,14.7525 81.5729,8.678 70.2915,8.678 60.3119,13.4508 38.6169,25.6 13.4508,45.9932 8.678,53.3695 8.678,71.5932 10.8475,81.139 17.3559,89.8169 42.0881,109.3424 56.4068,111.5119 87.2136,111.9458 109.7763,109.3424 118.0203,104.5695 119.322,101.9661 119.322,86.7797 116.7186,70.7254 115.8508,51.2 112.3797,36.8814 108.0407,29.0712 97.6271,21.6949" stroke="#00007f" stroke-width="2" /><polyline fill="none" points="50.7661,16.4881 47.7288,65.0847 38.1831,91.9864 29.939,103.2678 28.2034,99.7966" stroke="#7cff79" stroke-width="2" /><polyline fill="none" points="98.4949,16.922 94.5898,38.6169 94.1559,61.1797 103.2678,97.6271" stroke="#7f0000" stroke-width="2" /></svg>