<?xml version="1.0" encoding="utf-8" ?>
<svg baseProfile="tiny" height="128" version="1.2" viewBox="0,0,128,128" width="128" xmlns="http://www.w3.org/2000/svg" xmlns:ev="http://www.w3.org/2001/xml-events" xmlns:xlink="http://www.w3.org/1999/xlink"><defs /><polyline fill="none" points="14.3673,57.4694 14.8027,75.3197 20.898,88.8163 32.6531,100.1361 52.2449,109.7143 59.2109,111.4558 69.2245,111.8912 79.6735,111.4558 86.2041,107.9728 104.4898,102.3129 111.8912,86.6395 115.3741,71.4014 115.3741,60.9524 110.585,51.8095 102.7483,45.2789 78.8027,17.415 70.966,10.8844 59.6463,8.7075 35.2653,9.5782 22.6395,21.7687 9.5782,39.1837 8.7075,45.7143 16.9796,56.1633" stroke="#00007f" stroke-width="2" /><polyline fill="none" points="25.6871,24.381 23.9456,32.2177 24.381,40.4898 34.3946,61.3878 47.4558,79.6735 56.5986,88.381 77.0612,95.7823 84.898,97.0884" stroke="#0028ff" stroke-width="2" /><polyline fill="none" points="68.3537,10.8844 86.6395,19.5918 100.5714,40.0544 118.4218,75.7551 119.2925,97.0884 114.068,103.619 104.4898,112.3265 94.9116,117.1156 85.3333,117.551 78.3673,115.8095 60.0816,106.2313 54.8571,101.0068 47.0204,98.3946 41.7959,91.4286 37.4422,90.1224" stroke="#00d4ff" stroke-width="2" /><polyline fill="none" points="31.3469,17.415 28.2993,37.4422 28.7347,57.9048 36.1361,91.4286" stroke="#7cff79" stroke-width="2" /><polyline fill="none" points="55.7279,17.8503 59.6463,23.5102 62.2585,30.9116 70.0952,85.3333 67.0476,106.2313" stroke="#ffe500" stroke-width="2" /><polyline fill="none" points="86.6395,29.1701 84.4626,25.2517 84.4626,17.415 85.3333,19.1565 93.1701,50.9388 94.4762,86.6395 94.4762,94.4762 87.5102,100.1361" stroke="#ff4600" stroke-width="2" /><polyline fill="none" points="85.7687,101.8776 85.7687,101.8776" stroke="#7f0000" stroke-width="2" /></svg>