<?xml version="1.0" encoding="utf-8" ?>
<svg baseProfile="tiny" height="128" version="1.2" viewBox="0,0,128,128" width="128" xmlns="http://www.w3.org/2000/svg" xmlns:ev="http://www.w3.org/2001/xml-events" xmlns:xlink="http://www.w3.org/1999/xlink"><defs /><polyline fill="none" points="52.5017,13.4508 42.0881,11.2814 28.6373,12.5831 25.1661,13.8847 17.7898,21.261 13.4508,33.4102 8.678,54.2373 14.7525,65.0847 24.7322,74.6305 36.4475,81.139 61.6136,85.478 80.7051,84.1763 104.5695,73.7627 114.1153,66.3864 119.322,55.9729 119.322,47.2949 118.0203,42.0881 111.9458,32.5424 103.2678,22.9966 92.4203,15.1864 77.6678,9.5458 60.3119,8.678" stroke="#00007f" stroke-width="2" /><polyline fill="none" points="21.6949,20.3932 34.7119,27.7695 39.0508,38.1831 39.4847,52.5017 29.5051,66.3864 18.2237,78.1017" stroke="#7cff79" stroke-width="2" /><polyline fill="none" points="98.9288,21.6949 87.2136,22.5627 72.8949,26.9017 70.2915,32.1085 69.4237,49.8983 73.7627,61.6136 81.139,72.461 100.6644,77.2339" stroke="#7f0000" stroke-width="2" /></svg>