<?xml version="1.0" encoding="utf-8" ?>
<svg baseProfile="tiny" height="128" version="1.2" viewBox="0,0,128,128" width="128" xmlns="http://www.w3.org/2000/svg" xmlns:ev="http://www.w3.org/2001/xml-events" xmlns:xlink="http://www.w3.org/1999/xlink"><defs /><polyline fill="none" points="9.9797,42.0881 9.5458,59.0102 14.7525,65.9525 18.6576,67.6881 24.2983,68.5559 33.8441,65.9525 42.9559,59.878 44.6915,48.5966 43.8237,35.5797 29.939,26.9017 13.0169,34.278 8.678,41.6542" stroke="#00007f" stroke-width="2" /><polyline fill="none" points="22.9966,33.8441 11.2814,32.9763 9.5458,37.7492 16.4881,47.2949 20.8271,50.3322 25.1661,51.2 29.939,39.9186 28.2034,31.2407" stroke="#0028ff" stroke-width="2" /><polyline fill="none" points="29.5051,42.522 36.8814,49.8983 44.6915,54.2373 47.7288,54.2373" stroke="#00d4ff" stroke-width="2" /><polyline fill="none" points="23.4305,49.8983 21.6949,52.5017 10.8475,58.1424" stroke="#7cff79" stroke-width="2" /><polyline fill="none" points="25.1661,53.3695 30.8068,58.1424 40.7864,59.0102" stroke="#ffe500" stroke-width="2" /><polyline fill="none" points="26.0339,52.9356 22.5627,57.7085 16.4881,62.0475" stroke="#ff4600" stroke-width="2" /><polyline fill="none" points="82.4407,26.4678 77.2339,30.8068 74.6305,47.7288 68.9898,66.8203 68.9898,71.5932 70.7254,75.9322 73.3288,77.6678 77.6678,76.3661 109.7763,49.8983 119.322,29.5051 117.5864,11.2814 108.4746,9.1119 102.8339,8.678 93.722,11.7153 87.6475,22.1288 85.478,23.8644 82.8746,22.9966" stroke="#7f0000" stroke-width="2" /></svg>