<?xml version="1.0" encoding="utf-8" ?>
<svg baseProfile="tiny" height="128" version="1.2" viewBox="0,0,128,128" width="128" xmlns="http://www.w3.org/2000/svg" xmlns:ev="http://www.w3.org/2001/xml-events" xmlns:xlink="http://www.w3.org/1999/xlink"><defs /><polyline fill="none" points="55.2925,8.7075 40.4898,9.5782 30.0408,14.8027 20.4626,23.0748 15.2381,30.4762 9.5782,42.6667 8.7075,59.6463 12.6259,71.4014 16.9796,78.8027 30.9116,92.7347 39.619,98.3946 53.551,104.4898 70.5306,105.7959 81.8503,102.7483 92.7347,97.9592 102.3129,90.5578 110.1497,82.2857 115.3741,72.2721 118.4218,62.6939 119.2925,52.6803 116.6803,39.619 112.3265,32.2177 104.9252,25.2517 84.0272,14.3673 57.9048,9.5782 33.9592,13.0612" stroke="#00007f" stroke-width="2" /><polyline fill="none" points="31.3469,8.7075 38.7483,15.6735 43.9728,27.8639 50.9388,51.8095 52.6803,69.2245 51.8095,81.415 45.2789,99.2653" stroke="#7cff79" stroke-width="2" /><polyline fill="none" points="95.3469,16.9796 91.8639,21.7687 87.5102,37.4422 86.2041,52.2449 86.6395,63.5646 89.2517,76.6259 92.2993,87.0748 96.2177,93.1701" stroke="#7f0000" stroke-width="2" /></svg>