<?xml version="1.0" encoding="utf-8" ?>
<svg baseProfile="tiny" height="128" version="1.2" viewBox="0,0,128,128" width="128" xmlns="http://www.w3.org/2000/svg" xmlns:ev="http://www.w3.org/2001/xml-events" xmlns:xlink="http://www.w3.org/1999/xlink"><defs /><polyline fill="none" points="62.0475,9.5458 40.3525,8.678 31.2407,11.2814 22.9966,16.0542 17.7898,29.5051 9.9797,55.1051 8.678,76.8 10.4136,84.6102 16.0542,92.4203 26.9017,100.6644 41.2203,106.739 77.2339,119.322 80.7051,118.0203 90.6847,107.6068 97.6271,96.7593 103.7017,76.3661 104.5695,66.8203 102.4,58.5763 92.8542,41.6542 85.478,32.9763 71.5932,21.261 59.878,14.3186" stroke="#00007f" stroke-width="2" /><polyline fill="none" points="72.461,19.5254 54.2373,43.3898 49.8983,54.2373 48.5966,75.9322 56.4068,88.5153 58.1424,95.0237 62.4814,103.2678 62.4814,100.6644 58.5763,95.4576" stroke="#0000fe" stroke-width="2" /><polyline fill="none" points="26.0339,14.7525 31.2407,32.9763 31.2407,49.4644 22.1288,80.2712" stroke="#0060ff" stroke-width="2" /><polyline fill="none" points="21.6949,74.6305 30.3729,78.5356 32.5424,78.9695 32.9763,76.8" stroke="#00d4ff" stroke-width="2" /><polyline fill="none" points="24.2983,57.7085 34.278,56.8407 34.7119,54.6712" stroke="#4cffaa" stroke-width="2" /><polyline fill="none" points="20.8271,39.0508 26.0339,35.5797 26.9017,31.6746" stroke="#aaff4c" stroke-width="2" /><polyline fill="none" points="26.9017,26.0339 45.9932,26.4678 62.4814,29.0712" stroke="#ffe500" stroke-width="2" /><polyline fill="none" points="69.4237,32.9763 62.4814,36.0136 42.522,39.9186" stroke="#ff7a00" stroke-width="2" /><polyline fill="none" points="58.5763,65.9525 61.1797,71.1593 61.1797,77.6678" stroke="#fe1200" stroke-width="2" /><polyline fill="none" points="61.1797,82.0068 42.522,88.9492" stroke="#7f0000" stroke-width="2" /></svg>