<?xml version="1.0" encoding="utf-8" ?>
<svg baseProfile="tiny" height="128" version="1.2" viewBox="0,0,128,128" width="128" xmlns="http://www.w3.org/2000/svg" xmlns:ev="http://www.w3.org/2001/xml-events" xmlns:xlink="http://www.w3.org/1999/xlink"><defs /><polyline fill="none" points="61.6136,12.5831 46.4271,8.678 29.939,8.678 18.6576,13.8847 11.2814,26.4678 8.678,33.8441 8.678,88.0814 16.4881,100.6644 23.8644,108.0407 36.0136,116.7186 43.8237,119.322 57.7085,115.4169 99.3627,94.1559 106.739,88.0814 110.6441,81.5729 111.9458,71.5932 110.2102,63.7831 99.3627,50.3322 80.7051,36.4475 76.3661,29.939 62.9153,17.7898 46.4271,13.8847" stroke="#00007f" stroke-width="2" /><polyline fill="none" points="25.1661,11.2814 26.4678,17.3559 39.0508,46.4271 38.6169,74.1966 35.1458,88.9492 31.2407,95.4576 17.3559,102.8339 9.9797,104.1356" stroke="#7cff79" stroke-width="2" /><polyline fill="none" points="77.6678,99.3627 76.8,91.9864 72.8949,85.478 71.5932,79.4034 70.2915,57.7085" stroke="#7f0000" stroke-width="2" /></svg>