<?xml version="1.0" encoding="utf-8" ?>
<svg baseProfile="tiny" height="128" version="1.2" viewBox="0,0,128,128" width="128" xmlns="http://www.w3.org/2000/svg" xmlns:ev="http://www.w3.org/2001/xml-events" xmlns:xlink="http://www.w3.org/1999/xlink"><defs /><polyline fill="none" points="97.9592,14.3673 75.3197,9.1429 60.9524,8.7075 51.8095,10.0136 35.7007,16.9796 22.2041,28.2993 11.7551,44.8435 9.1429,54.4218 8.7075,70.0952 11.7551,77.0612 22.6395,90.1224 37.4422,98.8299 45.7143,101.4422 64.0,101.4422 82.7211,94.4762 99.7007,84.0272 107.102,77.4966 115.8095,65.7415 118.4218,60.517 119.2925,45.7143 99.2653,16.9796 90.5578,8.7075" stroke="#00007f" stroke-width="2" /><polyline fill="none" points="47.8912,13.4966 44.8435,13.4966 51.8095,23.5102 53.9864,32.6531 54.4218,44.8435 50.9388,58.7755 45.2789,72.2721 38.3129,83.1565 29.6054,92.7347 19.1565,101.0068" stroke="#7cff79" stroke-width="2" /><polyline fill="none" points="92.2993,16.1088 78.8027,63.5646 76.6259,80.5442 78.3673,85.7687" stroke="#7f0000" stroke-width="2" /></svg>