<?xml version="1.0" encoding="utf-8" ?>
<svg baseProfile="tiny" height="128" version="1.2" viewBox="0,0,128,128" width="128" xmlns="http://www.w3.org/2000/svg" xmlns:ev="http://www.w3.org/2001/xml-events" xmlns:xlink="http://www.w3.org/1999/xlink"><defs /><polyline fill="none" points="30.3729,8.678 26.4678,11.2814 12.1492,36.4475 8.678,80.7051 23.4305,100.6644 62.0475,115.8508 88.9492,119.322 114.5492,109.7763 109.3424,76.3661 91.9864,45.1254 77.6678,29.0712 68.122,22.9966 44.2576,17.3559 42.9559,15.6203" stroke="#00007f" stroke-width="2" /><polyline fill="none" points="36.4475,11.7153 51.2,37.3153 56.4068,48.5966 60.3119,59.4441 63.7831,78.9695 57.7085,102.4 52.5017,116.2847 52.0678,112.8136" stroke="#7cff79" stroke-width="2" /><polyline fill="none" points="65.5186,22.5627 65.9525,32.1085 63.3492,47.2949 63.7831,68.9898 66.8203,81.5729 81.5729,107.1729 84.6102,115.4169" stroke="#7f0000" stroke-width="2" /></svg>