<?xml version="1.0" encoding="utf-8" ?>
<svg baseProfile="tiny" height="128" version="1.2" viewBox="0,0,128,128" width="128" xmlns="http://www.w3.org/2000/svg" xmlns:ev="http://www.w3.org/2001/xml-events" xmlns:xlink="http://www.w3.org/1999/xlink"><defs /><polyline fill="none" points="19.9593,98.4949 16.922,95.8915 13.4508,95.8915 10.4136,96.3254 8.678,99.3627 8.678,101.9661 16.4881,110.6441 25.6,108.9085 26.0339,103.7017" stroke="#00007f" stroke-width="2" /><polyline fill="none" points="19.9593,98.061 36.8814,73.3288 47.2949,49.0305 53.3695,40.7864 65.9525,29.5051 72.461,13.8847 74.6305,10.8475 78.5356,9.1119 88.0814,8.678 91.1186,10.8475 92.4203,13.8847 93.722,29.5051 91.9864,37.3153 78.9695,48.5966 72.8949,59.0102 64.2169,65.0847 56.4068,77.2339 47.2949,82.8746 40.3525,90.2508 34.278,92.8542 31.6746,98.9288 26.0339,101.5322" stroke="#7cff79" stroke-width="2" /><polyline fill="none" points="93.722,34.278 102.4,36.8814 112.8136,35.5797 115.8508,33.8441 119.322,23.4305 119.322,19.9593 114.5492,13.8847 104.1356,11.7153 97.6271,14.3186 95.4576,27.3356 95.8915,29.939 99.3627,30.3729" stroke="#7f0000" stroke-width="2" /></svg>