<?xml version="1.0" encoding="utf-8" ?>
<svg baseProfile="tiny" height="128" version="1.2" viewBox="0,0,128,128" width="128" xmlns="http://www.w3.org/2000/svg" xmlns:ev="http://www.w3.org/2001/xml-events" xmlns:xlink="http://www.w3.org/1999/xlink"><defs /><polyline fill="none" points="47.8912,20.4626 58.3401,31.7823 67.0476,49.1973 70.0952,59.6463 71.4014,70.5306 69.2245,85.7687 67.0476,89.6871 58.3401,99.2653 46.585,105.3605 35.2653,107.9728 24.8163,105.3605 19.5918,101.8776 13.932,95.3469 11.7551,89.2517 8.7075,61.3878 10.449,46.1497 13.932,37.4422 20.898,26.5578 26.1224,21.7687 40.4898,15.6735 50.068,13.932" stroke="#00007f" stroke-width="2" /><polyline fill="none" points="50.5034,25.6871 47.4558,29.6054 38.3129,31.7823 23.9456,29.6054 17.415,26.5578" stroke="#0080ff" stroke-width="2" /><polyline fill="none" points="58.3401,90.9932 55.2925,87.9456 48.7619,85.3333 35.7007,84.0272 23.9456,87.9456 18.2857,95.7823" stroke="#7cff79" stroke-width="2" /><polyline fill="none" points="36.1361,26.5578 37.8776,30.9116 40.4898,47.0204 37.8776,76.1905 39.1837,107.9728 40.9252,29.6054 39.1837,9.1429 37.8776,8.7075" stroke="#ff9400" stroke-width="2" /><polyline fill="none" points="50.068,21.7687 50.5034,50.9388 55.7279,107.9728 55.2925,117.9864 53.9864,119.2925" stroke="#7f0000" stroke-width="2" /></svg>