<?xml version="1.0" encoding="utf-8" ?>
<svg baseProfile="tiny" height="128" version="1.2" viewBox="0,0,128,128" width="128" xmlns="http://www.w3.org/2000/svg" xmlns:ev="http://www.w3.org/2001/xml-events" xmlns:xlink="http://www.w3.org/1999/xlink"><defs /><polyline fill="none" points="74.6305,8.678 16.0542,22.9966 10.4136,25.6 8.678,31.6746 10.4136,50.3322 17.7898,68.9898 28.2034,87.2136 40.3525,98.061 49.4644,103.7017 64.2169,107.1729 78.1017,107.6068 83.7424,107.1729 99.3627,102.4 113.2475,95.0237 118.8881,85.9119 119.322,70.2915 117.1525,55.539 109.7763,35.1458 104.5695,25.6 97.6271,21.261 72.8949,20.8271 57.7085,15.6203 52.9356,15.6203" stroke="#00007f" stroke-width="2" /><polyline fill="none" points="36.0136,19.5254 37.3153,32.9763 33.4102,45.9932 26.9017,60.3119 22.9966,63.7831" stroke="#7cff79" stroke-width="2" /><polyline fill="none" points="109.7763,43.3898 99.3627,42.0881 92.8542,43.8237 85.9119,48.5966 72.461,64.6508 64.2169,77.6678 62.0475,85.0441 62.4814,92.8542 70.7254,101.9661" stroke="#7f0000" stroke-width="2" /></svg>