<?xml version="1.0" encoding="utf-8" ?>
<svg baseProfile="tiny" height="128" version="1.2" viewBox="0,0,128,128" width="128" xmlns="http://www.w3.org/2000/svg" xmlns:ev="http://www.w3.org/2001/xml-events" xmlns:xlink="http://www.w3.org/1999/xlink"><defs /><polyline fill="none" points="48.5966,12.1492 34.278,19.0915 19.5254,29.0712 10.8475,41.6542 8.678,49.0305 8.678,63.7831 9.9797,71.5932 16.0542,89.8169 23.8644,101.0983 32.9763,107.6068 60.3119,112.8136 98.061,116.2847 100.6644,114.5492 109.7763,103.2678 113.2475,96.3254 116.7186,84.6102 118.0203,72.461 118.0203,36.8814 114.9831,25.1661 109.7763,19.0915 99.7966,13.4508 86.3458,8.678 40.7864,9.5458" stroke="#00007f" stroke-width="2" /><polyline fill="none" points="39.4847,14.7525 45.5593,54.2373 45.5593,66.3864 42.0881,78.9695 31.2407,105.0034" stroke="#7cff79" stroke-width="2" /><polyline fill="none" points="109.3424,19.5254 98.061,44.6915 95.4576,54.2373 94.1559,95.8915 92.4203,110.2102 93.2881,119.322" stroke="#7f0000" stroke-width="2" /></svg>