<?xml version="1.0" encoding="utf-8" ?>
<svg baseProfile="tiny" height="128" version="1.2" viewBox="0,0,128,128" width="128" xmlns="http://www.w3.org/2000/svg" xmlns:ev="http://www.w3.org/2001/xml-events" xmlns:xlink="http://www.w3.org/1999/xlink"><defs /><polyline fill="none" points="12.5831,91.9864 9.1119,68.122 8.678,48.5966 10.4136,41.2203 12.5831,39.4847 22.9966,39.0508 29.5051,56.8407 29.0712,76.3661 26.9017,82.4407 23.8644,101.5322 24.2983,117.5864 22.5627,119.322 17.3559,107.1729 15.1864,98.9288 14.3186,88.9492" stroke="#00007f" stroke-width="2" /><polyline fill="none" points="26.4678,114.1153 28.2034,113.6814 26.4678,115.4169 23.4305,115.8508" stroke="#0028ff" stroke-width="2" /><polyline fill="none" points="59.4441,39.4847 52.0678,49.0305 51.2,57.2746 52.0678,60.7458 55.9729,64.6508 62.0475,65.9525 67.2542,62.9153 71.5932,57.7085 73.3288,49.4644 69.8576,44.6915 57.2746,39.9186" stroke="#00d4ff" stroke-width="2" /><polyline fill="none" points="53.3695,8.678 52.5017,11.2814 56.4068,27.7695" stroke="#7cff79" stroke-width="2" /><polyline fill="none" points="43.8237,26.0339 60.3119,34.7119 62.0475,32.1085 62.4814,23.8644 65.0847,21.261" stroke="#ffe500" stroke-width="2" /><polyline fill="none" points="16.922,89.8169 20.8271,89.3831" stroke="#ff4600" stroke-width="2" /><polyline fill="none" points="19.0915,90.2508 26.0339,89.8169 25.1661,91.5525 19.9593,94.5898 23.8644,100.6644 24.7322,116.7186 24.7322,111.5119 19.9593,93.2881 20.3932,115.4169 19.9593,98.9288 19.0915,93.722 18.2237,95.4576 19.0915,112.8136 21.261,111.9458 21.261,106.3051 19.5254,101.5322" stroke="#7f0000" stroke-width="2" /></svg>