<?xml version="1.0" encoding="utf-8" ?>
<svg baseProfile="tiny" height="128" version="1.2" viewBox="0,0,128,128" width="128" xmlns="http://www.w3.org/2000/svg" xmlns:ev="http://www.w3.org/2001/xml-events" xmlns:xlink="http://www.w3.org/1999/xlink"><defs /><polyline fill="none" points="53.1156,11.3197 60.9524,9.1429 77.0612,9.1429 91.8639,11.3197 105.7959,19.5918 117.551,31.7823 119.2925,36.5714 119.2925,67.483 109.2789,80.1088 104.9252,83.1565 97.9592,85.7687 35.7007,87.0748 19.1565,73.5782 12.6259,65.7415 8.7075,57.9048 9.1429,45.2789 12.6259,35.2653 20.0272,24.8163 42.2313,8.7075 61.3878,11.7551" stroke="#00007f" stroke-width="2" /><polyline fill="none" points="85.7687,84.898 84.4626,64.8707 86.2041,57.9048 101.8776,28.7347 104.9252,26.9932 111.8912,26.1224" stroke="#7cff79" stroke-width="2" /><polyline fill="none" points="40.4898,84.0272 49.1973,61.8231 50.5034,51.3741 49.6327,38.7483 45.2789,27.4286 41.3605,21.7687 34.8299,17.8503 25.6871,14.8027" stroke="#7f0000" stroke-width="2" /></svg>