<?xml version="1.0" encoding="utf-8" ?>
<svg baseProfile="tiny" height="128" version="1.2" viewBox="0,0,128,128" width="128" xmlns="http://www.w3.org/2000/svg" xmlns:ev="http://www.w3.org/2001/xml-events" xmlns:xlink="http://www.w3.org/1999/xlink"><defs /><polyline fill="none" points="57.2746,9.1119 48.5966,8.678 39.0508,11.2814 26.4678,19.5254 19.5254,26.9017 10.8475,42.9559 8.678,56.4068 9.1119,64.2169 12.5831,71.5932 19.5254,79.8373 33.4102,88.9492 49.0305,94.1559 75.0644,97.6271 89.8169,96.7593 98.061,94.1559 109.7763,87.2136 115.8508,80.7051 118.8881,71.5932 119.322,59.878 118.0203,53.8034 110.6441,37.3153 96.3254,23.8644 72.0271,11.2814 63.3492,9.1119 56.4068,9.1119" stroke="#00007f" stroke-width="2" /><polyline fill="none" points="56.4068,9.9797 52.9356,29.939 47.2949,77.6678 45.1254,87.6475" stroke="#0080ff" stroke-width="2" /><polyline fill="none" points="76.8,16.922 72.8949,55.9729 66.8203,98.4949" stroke="#7cff79" stroke-width="2" /><polyline fill="none" points="98.061,36.8814 98.9288,65.0847 95.0237,91.1186 92.8542,96.7593" stroke="#ff9400" stroke-width="2" /><polyline fill="none" points="29.939,17.3559 32.1085,36.8814 32.1085,52.5017 31.2407,62.0475 28.6373,68.9898" stroke="#7f0000" stroke-width="2" /></svg>