<?xml version="1.0" encoding="utf-8" ?>
<svg baseProfile="tiny" height="128" version="1.2" viewBox="0,0,128,128" width="128" xmlns="http://www.w3.org/2000/svg" xmlns:ev="http://www.w3.org/2001/xml-events" xmlns:xlink="http://www.w3.org/1999/xlink"><defs /><polyline fill="none" points="29.939,19.9593 21.261,32.1085 16.922,41.2203 11.2814,60.3119 9.5458,77.6678 13.0169,90.6847 15.1864,94.1559 19.5254,98.061 31.2407,101.5322 46.4271,100.2305 67.2542,93.722 85.478,83.7424 101.5322,71.1593 113.2475,57.2746 118.4542,45.5593 119.322,39.4847 118.0203,30.3729 113.2475,21.6949 104.1356,15.1864 90.6847,10.8475 75.9322,8.678 59.0102,9.1119 28.2034,16.4881 15.1864,23.8644 8.678,31.6746" stroke="#00007f" stroke-width="2" /><polyline fill="none" points="30.8068,29.939 36.0136,39.4847 36.8814,47.7288" stroke="#004cff" stroke-width="2" /><polyline fill="none" points="39.0508,65.5186 40.7864,82.0068 36.4475,93.2881" stroke="#29ffcd" stroke-width="2" /><polyline fill="none" points="48.1627,98.9288 39.4847,106.3051" stroke="#cdff29" stroke-width="2" /><polyline fill="none" points="68.122,14.3186 71.5932,36.4475 75.9322,47.2949 83.7424,52.0678 91.9864,52.5017 93.722,51.2" stroke="#ff6700" stroke-width="2" /><polyline fill="none" points="86.7797,63.7831 92.4203,65.0847 109.3424,64.6508" stroke="#7f0000" stroke-width="2" /></svg>