<?xml version="1.0" encoding="utf-8" ?>
<svg baseProfile="tiny" height="128" version="1.2" viewBox="0,0,128,128" width="128" xmlns="http://www.w3.org/2000/svg" xmlns:ev="http://www.w3.org/2001/xml-events" xmlns:xlink="http://www.w3.org/1999/xlink"><defs /><polyline fill="none" points="61.6136,55.1051 54.6712,51.2 47.7288,50.3322 37.3153,54.6712 22.5627,65.9525 11.7153,84.6102 9.1119,96.7593 8.678,105.4373 9.9797,108.9085 12.1492,112.3797 19.0915,117.5864 28.6373,119.322 34.278,119.322 40.3525,116.7186 46.4271,111.5119 56.4068,96.7593 63.7831,79.8373 65.9525,67.6881 64.6508,60.3119" stroke="#00007f" stroke-width="2" /><polyline fill="none" points="27.7695,65.0847 31.2407,73.3288 31.2407,92.8542 21.6949,108.0407 18.6576,110.6441 16.922,110.6441" stroke="#004cff" stroke-width="2" /><polyline fill="none" points="65.9525,61.6136 65.9525,61.6136" stroke="#29ffcd" stroke-width="2" /><polyline fill="none" points="65.9525,61.6136 63.3492,61.6136 58.1424,68.5559 55.1051,87.2136 55.9729,103.2678 57.2746,105.8712 61.6136,105.8712" stroke="#cdff29" stroke-width="2" /><polyline fill="none" points="108.4746,59.4441 108.9085,57.2746 101.0983,55.1051 91.5525,54.6712 81.5729,60.3119 76.8,64.6508 70.2915,78.1017 68.9898,96.7593 72.8949,103.2678 79.4034,105.4373 92.8542,104.1356 98.9288,100.2305 103.2678,92.4203 105.8712,81.139 108.0407,56.4068" stroke="#ff6700" stroke-width="2" /><polyline fill="none" points="50.3322,49.4644 48.5966,46.861 46.861,38.1831 46.861,27.3356 48.1627,20.3932 51.2,14.7525 55.1051,10.8475 59.878,9.1119 70.7254,8.678 77.2339,10.8475 82.4407,14.7525 85.9119,18.6576 89.3831,26.9017 90.2508,37.7492 88.0814,55.9729" stroke="#7f0000" stroke-width="2" /></svg>