<?xml version="1.0" encoding="utf-8" ?>
<svg baseProfile="tiny" height="128" version="1.2" viewBox="0,0,128,128" width="128" xmlns="http://www.w3.org/2000/svg" xmlns:ev="http://www.w3.org/2001/xml-events" xmlns:xlink="http://www.w3.org/1999/xlink"><defs /><polyline fill="none" points="79.4034,13.8847 62.4814,9.1119 37.7492,8.678 30.8068,10.8475 14.7525,32.5424 8.678,61.1797 9.1119,72.8949 12.5831,79.8373 30.3729,93.2881 37.3153,97.1932 44.2576,99.3627 56.4068,101.5322 72.8949,101.9661 85.0441,99.7966 94.5898,95.8915 104.1356,89.3831 111.5119,79.8373 114.1153,75.0644 115.4169,67.6881 118.0203,49.0305 118.0203,34.7119 115.4169,27.3356 108.4746,22.9966 84.6102,14.7525 68.5559,14.3186" stroke="#00007f" stroke-width="2" /><polyline fill="none" points="67.2542,14.3186 67.2542,19.0915 59.0102,55.1051 55.1051,81.139 48.5966,104.5695" stroke="#0080ff" stroke-width="2" /><polyline fill="none" points="9.5458,66.3864 16.922,67.2542 38.1831,74.6305 57.2746,78.1017 81.139,81.5729 114.1153,83.7424" stroke="#7cff79" stroke-width="2" /><polyline fill="none" points="13.4508,45.1254 54.2373,45.9932 108.9085,54.6712" stroke="#ff9400" stroke-width="2" /><polyline fill="none" points="31.2407,24.7322 57.7085,26.0339 119.322,38.6169" stroke="#7f0000" stroke-width="2" /></svg>