<?xml version="1.0" encoding="utf-8" ?>
<svg baseProfile="tiny" height="128" version="1.2" viewBox="0,0,128,128" width="128" xmlns="http://www.w3.org/2000/svg" xmlns:ev="http://www.w3.org/2001/xml-events" xmlns:xlink="http://www.w3.org/1999/xlink"><defs /><polyline fill="none" points="69.8576,9.9797 67.6881,9.1119 54.6712,8.678 44.6915,10.4136 27.3356,19.9593 14.3186,34.7119 9.5458,45.1254 8.678,57.2746 9.1119,84.1763 12.1492,94.5898 18.6576,104.1356 29.939,114.5492 38.1831,118.0203 55.1051,119.322 75.9322,116.7186 94.5898,109.3424 99.3627,106.3051 105.4373,95.0237 108.0407,85.0441 108.4746,68.9898 104.5695,54.2373 95.8915,40.3525 82.4407,26.4678 70.7254,19.0915 66.3864,18.6576" stroke="#00007f" stroke-width="2" /><polyline fill="none" points="22.9966,24.2983 37.3153,30.3729 50.3322,39.4847 54.6712,48.5966 59.878,65.9525 63.3492,83.7424 62.4814,94.5898 50.7661,112.3797 46.861,113.2475 45.1254,110.2102" stroke="#00d4ff" stroke-width="2" /><polyline fill="none" points="95.4576,38.6169 93.2881,38.1831 89.8169,40.7864 82.4407,52.9356 79.8373,63.3492 79.8373,78.9695 84.6102,89.8169 90.2508,95.4576 106.739,102.8339 111.078,102.8339" stroke="#ffe500" stroke-width="2" /><polyline fill="none" points="36.4475,43.8237 51.6339,39.9186 61.6136,39.4847" stroke="#7f0000" stroke-width="2" /></svg>