<?xml version="1.0" encoding="utf-8" ?>
<svg baseProfile="tiny" height="128" version="1.2" viewBox="0,0,128,128" width="128" xmlns="http://www.w3.org/2000/svg" xmlns:ev="http://www.w3.org/2001/xml-events" xmlns:xlink="http://www.w3.org/1999/xlink"><defs /><polyline fill="none" points="68.122,8.678 52.5017,8.678 45.1254,11.7153 32.5424,18.6576 21.261,29.939 14.3186,40.7864 9.9797,53.3695 8.678,81.139 16.4881,98.061 22.5627,104.1356 29.5051,108.4746 49.8983,113.6814 57.7085,114.1153 77.6678,111.9458 92.4203,107.6068 103.7017,98.9288 113.6814,87.2136 118.4542,73.3288 119.322,50.7661 117.1525,49.4644 111.078,34.7119 104.1356,25.6 95.0237,17.3559 80.7051,9.5458 68.122,9.1119 63.3492,10.8475" stroke="#00007f" stroke-width="2" /><polyline fill="none" points="39.0508,15.6203 48.1627,17.7898 55.1051,23.4305 62.9153,38.1831 64.6508,48.5966 64.6508,65.9525 42.0881,109.3424" stroke="#7cff79" stroke-width="2" /><polyline fill="none" points="102.8339,21.261 91.5525,30.8068 82.0068,42.0881 75.4983,66.8203 75.0644,86.7797 83.3085,99.3627 88.5153,103.2678 94.1559,105.4373" stroke="#7f0000" stroke-width="2" /></svg>