<?xml version="1.0" encoding="utf-8" ?>
<svg baseProfile="tiny" height="128" version="1.2" viewBox="0,0,128,128" width="128" xmlns="http://www.w3.org/2000/svg" xmlns:ev="http://www.w3.org/2001/xml-events" xmlns:xlink="http://www.w3.org/1999/xlink"><defs /><polyline fill="none" points="59.2109,13.4966 44.8435,13.4966 36.5714,14.8027 25.6871,19.1565 16.1088,27.8639 11.3197,34.3946 8.7075,47.0204 8.7075,59.2109 14.8027,72.7075 30.4762,86.2041 42.2313,91.4286 55.7279,93.6054 71.8367,94.4762 88.8163,94.0408 94.4762,92.7347 104.9252,83.5918 114.068,72.7075 116.2449,65.3061 116.2449,43.5374 113.1973,35.2653 108.8435,28.2993 93.6054,16.1088 84.898,12.6259 72.7075,9.1429 55.2925,8.7075" stroke="#00007f" stroke-width="2" /><polyline fill="none" points="35.2653,14.3673 35.2653,18.2857 43.102,27.4286 53.9864,43.102 56.1633,52.6803 56.1633,65.7415 54.4218,73.5782 47.8912,85.7687" stroke="#7cff79" stroke-width="2" /><polyline fill="none" points="86.6395,30.0408 83.1565,30.9116 77.0612,40.4898 75.7551,47.4558 75.3197,66.1769 76.1905,97.0884 81.8503,111.0204 86.6395,119.2925" stroke="#7f0000" stroke-width="2" /></svg>