<?xml version="1.0" encoding="utf-8" ?>
<svg baseProfile="tiny" height="128" version="1.2" viewBox="0,0,128,128" width="128" xmlns="http://www.w3.org/2000/svg" xmlns:ev="http://www.w3.org/2001/xml-events" xmlns:xlink="http://www.w3.org/1999/xlink"><defs /><polyline fill="none" points="102.3129,18.7211 74.8844,9.1429 63.1293,8.7075 49.1973,11.3197 30.9116,17.415 20.898,25.6871 13.932,36.1361 9.5782,46.585 8.7075,62.2585 10.0136,69.6599 20.0272,90.5578 24.8163,97.0884 31.7823,102.3129 54.4218,106.6667 93.1701,109.2789 103.1837,107.102 114.068,99.2653 118.4218,85.3333 119.2925,57.9048 117.9864,42.6667 115.8095,37.4422 107.9728,34.8299 104.0544,31.7823 101.0068,27.8639 95.3469,15.2381" stroke="#00007f" stroke-width="2" /><polyline fill="none" points="50.068,9.5782 54.8571,33.9592 56.1633,64.0 48.7619,87.0748 34.3946,101.8776" stroke="#7cff79" stroke-width="2" /><polyline fill="none" points="103.1837,108.4082 96.6531,95.7823" stroke="#7f0000" stroke-width="2" /></svg>