<?xml version="1.0" encoding="utf-8" ?>
<svg baseProfile="tiny" height="128" version="1.2" viewBox="0,0,128,128" width="128" xmlns="http://www.w3.org/2000/svg" xmlns:ev="http://www.w3.org/2001/xml-events" xmlns:xlink="http://www.w3.org/1999/xlink"><defs /><polyline fill="none" points="72.461,8.678 50.3322,20.3932 32.5424,33.8441 20.3932,48.1627 11.7153,64.2169 8.678,77.6678 8.678,97.6271 16.922,111.078 23.4305,114.9831 27.7695,114.9831 35.5797,112.8136 65.9525,91.9864 75.4983,78.1017 77.6678,73.7627 78.9695,65.5186 79.4034,29.0712 77.6678,22.5627 71.1593,16.0542 65.9525,14.7525 44.2576,15.1864" stroke="#00007f" stroke-width="2" /><polyline fill="none" points="61.6136,22.1288 55.539,26.4678 55.1051,31.2407 46.861,45.5593 42.0881,60.3119 42.0881,73.7627 40.7864,78.9695 30.8068,96.3254 25.1661,111.078" stroke="#00d4ff" stroke-width="2" /><polyline fill="none" points="16.922,49.4644 18.2237,59.0102 23.4305,62.0475 56.4068,71.1593 72.461,78.5356" stroke="#ffe500" stroke-width="2" /><polyline fill="none" points="58.5763,22.1288 56.8407,42.9559 49.4644,66.3864 43.3898,96.7593 35.5797,119.322" stroke="#7f0000" stroke-width="2" /></svg>