<?xml version="1.0" encoding="utf-8" ?>
<svg baseProfile="tiny" height="128" version="1.2" viewBox="0,0,128,128" width="128" xmlns="http://www.w3.org/2000/svg" xmlns:ev="http://www.w3.org/2001/xml-events" xmlns:xlink="http://www.w3.org/1999/xlink"><defs /><polyline fill="none" points="47.7288,14.3186 29.0712,15.1864 18.2237,20.8271 13.4508,25.6 9.1119,44.2576 8.678,64.6508 9.9797,68.5559 14.7525,76.3661 25.6,86.3458 47.7288,98.9288 62.0475,102.4 87.6475,102.4 102.4,94.5898 107.6068,90.6847 113.2475,82.4407 117.5864,70.2915 119.322,49.8983 107.1729,31.2407 101.0983,25.1661 84.6102,13.8847 61.1797,8.678 34.7119,9.1119 29.5051,12.5831 27.3356,19.5254" stroke="#00007f" stroke-width="2" /><polyline fill="none" points="28.6373,11.7153 39.9186,26.4678 44.6915,38.1831 49.0305,53.3695 48.1627,76.8 45.1254,86.7797 40.7864,93.2881" stroke="#7cff79" stroke-width="2" /><polyline fill="none" points="99.7966,23.4305 96.7593,24.2983 91.9864,30.8068 87.6475,43.8237 84.6102,48.1627 82.0068,57.7085 82.4407,68.5559 91.1186,92.4203" stroke="#7f0000" stroke-width="2" /></svg>