<?xml version="1.0" encoding="utf-8" ?>
<svg baseProfile="tiny" height="128" version="1.2" viewBox="0,0,128,128" width="128" xmlns="http://www.w3.org/2000/svg" xmlns:ev="http://www.w3.org/2001/xml-events" xmlns:xlink="http://www.w3.org/1999/xlink"><defs /><polyline fill="none" points="98.9288,21.6949 89.3831,16.4881 76.3661,13.0169 65.9525,11.2814 55.539,11.7153 41.2203,16.0542 28.6373,22.1288 15.1864,35.1458 10.8475,44.2576 8.678,55.539 8.678,65.9525 11.2814,77.2339 14.3186,85.0441 24.2983,97.6271 39.0508,108.4746 48.1627,112.3797 58.1424,113.6814 68.122,112.8136 82.4407,108.0407 95.8915,98.9288 103.7017,91.5525 111.5119,80.7051 117.5864,65.5186 119.322,56.8407 118.8881,50.3322 116.7186,43.8237 111.9458,36.8814 99.3627,24.2983 88.0814,15.6203 79.4034,10.8475 71.5932,8.678" stroke="#00007f" stroke-width="2" /><polyline fill="none" points="19.0915,27.3356 16.922,67.6881 13.4508,82.0068" stroke="#0080ff" stroke-width="2" /><polyline fill="none" points="25.1661,21.6949 28.2034,41.6542 22.9966,98.061" stroke="#7cff79" stroke-width="2" /><polyline fill="none" points="95.0237,20.8271 91.1186,47.7288 90.6847,68.122 92.4203,79.4034 98.061,88.9492" stroke="#ff9400" stroke-width="2" /><polyline fill="none" points="106.739,41.2203 103.7017,52.0678 101.9661,68.5559 103.7017,82.4407 107.1729,86.7797" stroke="#7f0000" stroke-width="2" /></svg>