<?xml version="1.0" encoding="utf-8" ?>
<svg baseProfile="tiny" height="128" version="1.2" viewBox="0,0,128,128" width="128" xmlns="http://www.w3.org/2000/svg" xmlns:ev="http://www.w3.org/2001/xml-events" xmlns:xlink="http://www.w3.org/1999/xlink"><defs /><polyline fill="none" points="21.6949,95.8915 16.0542,98.4949 10.4136,105.0034 8.678,108.4746 10.4136,114.5492 13.0169,117.5864 21.6949,119.322 31.2407,115.8508 38.1831,111.9458 42.522,107.6068 43.8237,101.5322 42.0881,96.7593 35.1458,95.0237" stroke="#00007f" stroke-width="2" /><polyline fill="none" points="19.0915,95.0237 17.3559,89.8169 13.0169,52.0678 11.7153,21.6949 13.8847,11.2814 16.4881,9.1119 19.0915,8.678 26.0339,12.1492 31.6746,22.5627 32.9763,28.6373 33.8441,52.0678 32.1085,68.122 36.0136,93.722" stroke="#0080ff" stroke-width="2" /><polyline fill="none" points="86.7797,103.7017 79.8373,100.6644 74.1966,95.4576 69.4237,89.8169 64.6508,78.1017 64.2169,72.461 65.0847,67.6881 69.4237,58.5763 76.3661,53.8034 80.7051,53.8034 90.2508,57.2746 98.4949,63.3492 105.4373,71.5932 108.0407,78.5356 107.6068,82.4407 102.8339,91.9864 93.2881,100.6644 84.1763,104.1356 79.8373,102.4" stroke="#7cff79" stroke-width="2" /><polyline fill="none" points="82.4407,64.6508 80.7051,86.3458" stroke="#ff9400" stroke-width="2" /><polyline fill="none" points="95.8915,78.1017 95.8915,81.139" stroke="#7f0000" stroke-width="2" /></svg>