<?xml version="1.0" encoding="utf-8" ?>
<svg baseProfile="tiny" height="128" version="1.2" viewBox="0,0,128,128" width="128" xmlns="http://www.w3.org/2000/svg" xmlns:ev="http://www.w3.org/2001/xml-events" xmlns:xlink="http://www.w3.org/1999/xlink"><defs /><polyline fill="none" points="28.6373,19.5254 21.261,23.8644 13.4508,33.8441 9.5458,49.8983 8.678,87.2136 11.7153,95.0237 16.0542,101.5322 27.7695,110.2102 38.6169,113.6814 54.6712,116.7186 89.8169,119.322 104.1356,99.7966 106.3051,93.722 107.6068,79.8373 107.6068,40.7864 105.8712,37.3153 82.4407,13.0169 70.7254,8.678 46.4271,8.678 30.8068,12.1492 24.2983,14.7525 19.5254,22.1288 14.7525,39.4847" stroke="#00007f" stroke-width="2" /><polyline fill="none" points="20.8271,29.939 32.1085,44.2576 36.8814,55.9729 38.1831,63.3492 37.3153,108.9085 34.7119,115.8508" stroke="#7cff79" stroke-width="2" /><polyline fill="none" points="102.8339,33.8441 96.7593,40.7864 89.8169,62.9153 88.5153,88.5153 86.3458,96.3254 86.3458,114.5492" stroke="#7f0000" stroke-width="2" /></svg>