<?xml version="1.0" encoding="utf-8" ?>
<svg baseProfile="tiny" height="128" version="1.2" viewBox="0,0,128,128" width="128" xmlns="http://www.w3.org/2000/svg" xmlns:ev="http://www.w3.org/2001/xml-events" xmlns:xlink="http://www.w3.org/1999/xlink"><defs /><polyline fill="none" points="46.4271,16.922 26.9017,42.9559 18.6576,56.8407 16.4881,63.3492 10.4136,88.9492 8.678,105.4373 10.4136,112.3797 12.1492,114.1153 15.1864,114.5492 19.9593,112.8136 26.0339,104.5695 28.2034,79.8373 38.6169,55.539 45.1254,46.861 60.3119,34.278 68.122,24.7322 68.122,16.0542 62.9153,9.1119 58.1424,8.678 47.7288,11.2814 42.522,16.922 43.3898,20.3932" stroke="#00007f" stroke-width="2" /><polyline fill="none" points="94.5898,38.1831 86.3458,41.6542 75.0644,56.4068 69.4237,70.7254 70.2915,78.5356 80.7051,89.3831 90.6847,95.0237 99.3627,95.4576 109.3424,91.5525 117.5864,84.6102 119.322,79.8373 116.2847,64.2169 113.6814,56.8407 105.4373,44.6915 101.0983,42.0881 91.5525,40.3525" stroke="#00d4ff" stroke-width="2" /><polyline fill="none" points="98.4949,36.4475 97.1932,39.0508 97.1932,48.5966 92.8542,80.2712 93.2881,89.3831" stroke="#ffe500" stroke-width="2" /><polyline fill="none" points="68.9898,67.2542 92.8542,67.2542" stroke="#7f0000" stroke-width="2" /></svg>