<?xml version="1.0" encoding="utf-8" ?>
<svg baseProfile="tiny" height="128" version="1.2" viewBox="0,0,128,128" width="128" xmlns="http://www.w3.org/2000/svg" xmlns:ev="http://www.w3.org/2001/xml-events" xmlns:xlink="http://www.w3.org/1999/xlink"><defs /><polyline fill="none" points="11.7153,71.5932 9.9797,68.122 9.9797,53.3695 18.6576,30.8068 34.278,15.1864 52.0678,8.678 66.8203,8.678 81.139,16.4881 89.3831,24.2983 98.061,36.4475 108.4746,64.6508 108.4746,84.6102 105.0034,94.5898 101.9661,98.061 93.722,103.7017 85.0441,106.739 66.8203,110.2102 56.4068,110.2102 46.861,108.4746 42.522,105.0034 38.1831,100.6644 29.939,85.9119 22.1288,79.4034 10.8475,66.8203 8.678,62.4814" stroke="#00007f" stroke-width="2" /><polyline fill="none" points="16.4881,25.6 19.9593,25.6 23.4305,27.7695 33.4102,45.5593 35.5797,71.1593 36.4475,109.3424" stroke="#00d4ff" stroke-width="2" /><polyline fill="none" points="89.3831,29.0712 83.3085,40.7864 78.1017,66.8203 78.1017,100.2305 82.4407,117.1525 85.478,119.322" stroke="#ffe500" stroke-width="2" /><polyline fill="none" points="65.9525,118.4542 65.9525,68.9898 61.1797,42.0881 59.878,12.1492" stroke="#7f0000" stroke-width="2" /></svg>