<?xml version="1.0" encoding="utf-8" ?>
<svg baseProfile="tiny" height="128" version="1.2" viewBox="0,0,128,128" width="128" xmlns="http://www.w3.org/2000/svg" xmlns:ev="http://www.w3.org/2001/xml-events" xmlns:xlink="http://www.w3.org/1999/xlink"><defs /><polyline fill="none" points="61.1797,96.3254 61.1797,107.1729" stroke="#00007f" stroke-width="2" /><polyline fill="none" points="61.1797,22.1288 56.8407,32.9763 52.9356,52.5017 52.9356,79.8373 56.8407,89.8169 62.0475,92.8542 67.6881,92.4203 71.5932,86.7797 74.1966,74.6305 75.4983,9.9797 72.8949,10.4136 67.2542,16.4881 65.5186,19.5254 64.2169,27.3356" stroke="#00d4ff" stroke-width="2" /><polyline fill="none" points="62.4814,111.078 58.5763,112.3797 58.1424,117.1525 63.3492,119.322 69.8576,119.322 72.461,115.8508 72.461,113.6814 69.8576,113.2475 55.1051,113.2475 53.3695,117.1525 62.4814,118.0203 60.7458,117.5864 65.0847,114.5492 64.2169,118.4542 66.3864,117.1525 66.3864,113.2475 64.6508,113.6814 64.2169,110.6441" stroke="#ffe500" stroke-width="2" /><polyline fill="none" points="18.2237,22.5627 16.922,25.1661 18.2237,29.939 20.8271,33.4102 25.6,35.5797 28.2034,32.1085 29.5051,23.8644 29.5051,17.3559 28.2034,13.4508 23.4305,14.3186 19.9593,18.2237 16.4881,28.2034 19.5254,35.5797 21.261,36.8814 25.1661,36.4475 30.8068,30.3729 32.1085,26.4678 32.5424,9.5458 24.7322,8.678 20.8271,9.9797 16.0542,19.9593 16.0542,28.6373 19.0915,32.9763 24.7322,38.6169 31.6746,41.6542 36.8814,29.939 36.8814,15.6203 21.6949,22.5627 19.5254,23.8644 18.2237,28.6373 17.7898,39.4847 23.8644,46.4271 32.5424,48.5966 33.4102,46.4271 33.4102,19.9593 30.8068,16.0542 27.7695,14.7525 20.8271,14.3186 12.5831,19.9593 8.678,27.3356" stroke="#7f0000" stroke-width="2" /></svg>