<?xml version="1.0" encoding="utf-8" ?>
<svg baseProfile="tiny" height="128" version="1.2" viewBox="0,0,128,128" width="128" xmlns="http://www.w3.org/2000/svg" xmlns:ev="http://www.w3.org/2001/xml-events" xmlns:xlink="http://www.w3.org/1999/xlink"><defs /><polyline fill="none" points="85.9119,13.4508 65.9525,16.922 54.2373,21.6949 46.861,22.9966 28.2034,32.5424 13.4508,46.4271 9.5458,53.3695 8.678,68.122 13.8847,81.5729 22.1288,89.3831 38.1831,96.7593 49.0305,99.3627 81.5729,100.6644 100.2305,98.061 111.9458,88.9492 117.1525,74.1966 119.322,40.7864 118.4542,32.9763 114.9831,25.6 104.5695,13.4508 98.061,10.8475 87.2136,8.678 83.3085,10.8475 81.139,10.4136" stroke="#00007f" stroke-width="2" /><polyline fill="none" points="41.6542,25.6 60.7458,25.6 65.5186,26.9017 71.1593,31.6746 78.5356,45.9932 83.3085,60.3119 82.8746,69.4237 78.9695,83.7424 70.7254,94.5898" stroke="#7f0000" stroke-width="2" /></svg>