<?xml version="1.0" encoding="utf-8" ?>
<svg baseProfile="tiny" height="128" version="1.2" viewBox="0,0,128,128" width="128" xmlns="http://www.w3.org/2000/svg" xmlns:ev="http://www.w3.org/2001/xml-events" xmlns:xlink="http://www.w3.org/1999/xlink"><defs /><polyline fill="none" points="77.7611,17.0375 76.8874,13.9795 73.3925,11.3584 65.0922,9.1741 55.4812,8.7372 40.1911,11.3584 25.7747,19.6587 17.9113,27.959 10.0478,41.9386 8.7372,58.5392 9.6109,64.6553 12.6689,72.0819 18.3481,79.5085 30.5802,88.2457 48.4915,95.6724 60.2867,96.9829 72.9556,96.5461 92.6143,90.8669 105.2833,84.7509 114.4573,76.8874 119.2628,65.9659 119.2628,55.4812 116.2048,41.0648 108.3413,26.6485 101.7884,20.9693 93.9249,16.6007 72.9556,11.7952 55.4812,10.4846 62.0341,21.843 64.6553,34.0751 65.0922,42.8123 62.471,51.1126 41.9386,67.7133 19.6587,76.4505" stroke="#00007f" stroke-width="2" /><polyline fill="none" points="84.7509,17.0375 84.7509,21.843 79.5085,36.2594 76.4505,51.1126 76.0137,66.8396 78.6348,76.8874 84.314,83.4403 91.3038,89.1195" stroke="#7f0000" stroke-width="2" /></svg>