<?xml version="1.0" encoding="utf-8" ?>
<svg baseProfile="tiny" height="128" version="1.2" viewBox="0,0,128,128" width="128" xmlns="http://www.w3.org/2000/svg" xmlns:ev="http://www.w3.org/2001/xml-events" xmlns:xlink="http://www.w3.org/1999/xlink"><defs /><polyline fill="none" points="61.6136,8.678 68.122,10.8475 87.2136,26.0339 99.3627,46.4271 101.9661,57.7085 100.6644,76.8 88.9492,98.061 78.5356,110.2102 74.1966,113.2475 67.2542,117.1525 57.2746,119.322 39.9186,116.7186 22.1288,105.8712 16.0542,97.1932 11.2814,87.2136 8.678,75.0644 11.2814,51.6339 26.4678,16.922 28.6373,13.4508 33.4102,10.8475 42.0881,9.9797" stroke="#00007f" stroke-width="2" /><polyline fill="none" points="79.8373,24.7322 61.1797,61.1797 55.9729,77.2339 56.8407,99.3627 65.5186,118.8881" stroke="#0000de" stroke-width="2" /><polyline fill="none" points="25.1661,14.3186 36.0136,34.278 40.7864,46.4271 41.2203,72.461 39.9186,97.1932 25.1661,118.0203 22.9966,118.8881" stroke="#0028ff" stroke-width="2" /><polyline fill="none" points="45.9932,27.3356 25.6,29.0712" stroke="#0080ff" stroke-width="2" /><polyline fill="none" points="46.861,58.1424 35.5797,58.1424" stroke="#00d4ff" stroke-width="2" /><polyline fill="none" points="46.4271,66.3864 36.8814,67.2542" stroke="#36ffc0" stroke-width="2" /><polyline fill="none" points="37.7492,94.5898 23.8644,92.8542" stroke="#7cff79" stroke-width="2" /><polyline fill="none" points="36.8814,104.5695 31.2407,101.5322" stroke="#c0ff36" stroke-width="2" /><polyline fill="none" points="80.2712,40.7864 72.0271,37.7492" stroke="#ffe500" stroke-width="2" /><polyline fill="none" points="73.3288,57.2746 49.0305,55.539" stroke="#ff9400" stroke-width="2" /><polyline fill="none" points="65.5186,74.1966 60.7458,74.1966" stroke="#ff4600" stroke-width="2" /><polyline fill="none" points="62.9153,92.8542 53.8034,94.5898" stroke="#de0000" stroke-width="2" /><polyline fill="none" points="62.4814,102.4 58.5763,105.0034" stroke="#7f0000" stroke-width="2" /></svg>