<?xml version="1.0" encoding="utf-8" ?>
<svg baseProfile="tiny" height="128" version="1.2" viewBox="0,0,128,128" width="128" xmlns="http://www.w3.org/2000/svg" xmlns:ev="http://www.w3.org/2001/xml-events" xmlns:xlink="http://www.w3.org/1999/xlink"><defs /><polyline fill="none" points="78.1017,11.2814 75.0644,9.1119 67.2542,8.678 45.5593,13.4508 34.278,19.5254 24.2983,29.939 9.1119,52.5017 8.678,58.5763 9.9797,62.4814 28.2034,79.4034 52.0678,89.3831 69.4237,94.1559 76.3661,94.1559 92.4203,90.6847 104.5695,83.7424 114.1153,74.1966 118.0203,64.2169 119.322,52.5017 118.0203,38.6169 105.4373,22.9966 91.9864,12.5831 72.461,9.9797" stroke="#00007f" stroke-width="2" /><polyline fill="none" points="21.6949,32.1085 38.1831,45.9932 44.6915,55.539 52.9356,76.8 54.2373,86.7797 54.6712,85.0441" stroke="#0080ff" stroke-width="2" /><polyline fill="none" points="26.0339,25.6 29.0712,25.6 40.7864,36.0136 53.3695,51.2 62.4814,70.2915 65.0847,78.1017 65.5186,86.3458 67.2542,89.8169" stroke="#7cff79" stroke-width="2" /><polyline fill="none" points="59.0102,9.9797 69.4237,22.5627 71.5932,26.9017 89.3831,50.7661 105.0034,83.7424 106.3051,84.1763" stroke="#ff9400" stroke-width="2" /><polyline fill="none" points="72.0271,9.9797 75.4983,12.1492" stroke="#7f0000" stroke-width="2" /></svg>