<?xml version="1.0" encoding="utf-8" ?>
<svg baseProfile="tiny" height="128" version="1.2" viewBox="0,0,128,128" width="128" xmlns="http://www.w3.org/2000/svg" xmlns:ev="http://www.w3.org/2001/xml-events" xmlns:xlink="http://www.w3.org/1999/xlink"><defs /><polyline fill="none" points="45.1254,12.1492 36.4475,13.4508 24.7322,18.2237 18.2237,24.7322 12.5831,34.278 8.678,49.0305 9.5458,64.6508 13.0169,75.9322 21.261,87.2136 34.278,97.1932 45.1254,101.9661 56.4068,103.7017 79.8373,104.1356 90.6847,99.7966 102.4,91.5525 112.8136,81.139 115.8508,74.6305 119.322,63.7831 119.322,51.2 118.0203,45.1254 112.3797,32.9763 100.6644,20.8271 89.8169,14.3186 78.1017,10.4136 52.5017,8.678 45.5593,11.2814" stroke="#00007f" stroke-width="2" /><polyline fill="none" points="44.6915,11.2814 50.7661,37.3153 50.7661,50.3322 46.861,59.878 33.8441,65.0847 18.6576,65.0847 13.4508,66.8203" stroke="#7cff79" stroke-width="2" /><polyline fill="none" points="108.4746,31.2407 94.5898,36.4475 85.0441,43.3898 80.2712,48.5966 76.3661,61.1797 75.4983,68.5559 77.6678,78.1017 93.722,89.8169 95.8915,95.4576" stroke="#7f0000" stroke-width="2" /></svg>