<?xml version="1.0" encoding="utf-8" ?>
<svg baseProfile="tiny" height="128" version="1.2" viewBox="0,0,128,128" width="128" xmlns="http://www.w3.org/2000/svg" xmlns:ev="http://www.w3.org/2001/xml-events" xmlns:xlink="http://www.w3.org/1999/xlink"><defs /><polyline fill="none" points="82.0068,13.4508 80.7051,11.2814 71.5932,8.678 56.4068,9.1119 40.7864,13.8847 24.2983,24.7322 18.6576,30.3729 12.1492,43.8237 9.1119,59.4441 8.678,68.5559 9.9797,72.8949 16.922,81.5729 29.5051,88.9492 84.1763,105.0034 100.2305,103.7017 108.4746,99.7966 115.4169,93.722 119.322,80.7051 118.8881,61.1797 111.078,44.2576 98.061,29.5051 88.5153,22.1288 76.3661,14.7525 65.5186,13.4508" stroke="#00007f" stroke-width="2" /><polyline fill="none" points="49.4644,10.8475 41.2203,14.7525 37.7492,18.6576 36.0136,21.261 36.8814,28.2034 40.7864,32.5424 56.8407,39.9186 62.4814,44.2576 69.4237,55.1051 71.5932,63.3492 71.5932,70.2915 66.8203,78.1017 58.1424,87.6475 51.2,89.8169" stroke="#7cff79" stroke-width="2" /><polyline fill="none" points="96.3254,30.3729 110.2102,53.3695 113.6814,63.3492 114.9831,72.0271 119.322,80.2712" stroke="#7f0000" stroke-width="2" /></svg>