<?xml version="1.0" encoding="utf-8" ?>
<svg baseProfile="tiny" height="128" version="1.2" viewBox="0,0,128,128" width="128" xmlns="http://www.w3.org/2000/svg" xmlns:ev="http://www.w3.org/2001/xml-events" xmlns:xlink="http://www.w3.org/1999/xlink"><defs /><polyline fill="none" points="43.8237,10.4136 37.7492,9.9797 28.2034,17.7898 17.3559,32.1085 13.0169,41.2203 9.9797,51.2 8.678,61.6136 8.678,71.5932 11.2814,80.7051 16.922,88.9492 32.1085,101.5322 52.9356,109.7763 63.3492,111.5119 84.1763,111.078 94.1559,107.1729 101.9661,101.5322 109.3424,93.722 114.5492,85.478 119.322,64.2169 119.322,52.9356 117.1525,42.522 111.9458,33.4102 105.4373,26.4678 89.3831,15.6203 69.4237,9.5458 52.0678,8.678 45.1254,9.9797 35.1458,14.3186 30.8068,20.3932" stroke="#00007f" stroke-width="2" /><polyline fill="none" points="34.7119,11.7153 37.3153,10.4136 42.0881,12.5831 47.7288,19.5254 51.6339,31.2407 52.5017,48.1627 51.2,57.7085 44.6915,74.6305 32.1085,92.4203 25.6,96.7593" stroke="#0010ff" stroke-width="2" /><polyline fill="none" points="89.3831,12.5831 87.6475,12.5831 83.3085,17.3559 75.0644,34.7119 72.0271,48.1627 71.5932,62.9153 72.8949,72.0271 79.4034,85.478 88.5153,98.9288 95.8915,104.1356" stroke="#00a4ff" stroke-width="2" /><polyline fill="none" points="68.9898,21.261 73.7627,21.261 85.9119,27.3356" stroke="#3fffb7" stroke-width="2" /><polyline fill="none" points="66.8203,44.6915 76.3661,45.5593" stroke="#b7ff3f" stroke-width="2" /><polyline fill="none" points="68.5559,65.0847 79.8373,66.8203" stroke="#ffb900" stroke-width="2" /><polyline fill="none" points="78.9695,83.3085 81.139,84.1763 88.5153,79.4034" stroke="#ff3000" stroke-width="2" /><polyline fill="none" points="84.1763,107.6068 93.722,92.4203" stroke="#7f0000" stroke-width="2" /></svg>