<?xml version="1.0" encoding="utf-8" ?>
<svg baseProfile="tiny" height="128" version="1.2" viewBox="0,0,128,128" width="128" xmlns="http://www.w3.org/2000/svg" xmlns:ev="http://www.w3.org/2001/xml-events" xmlns:xlink="http://www.w3.org/1999/xlink"><defs /><polyline fill="none" points="39.9186,15.1864 32.5424,19.0915 24.2983,25.6 15.1864,36.8814 8.678,51.2 8.678,58.5763 13.0169,85.478 16.0542,96.7593 18.2237,100.6644 22.5627,104.1356 50.7661,117.1525 57.2746,118.4542 79.4034,118.0203 94.1559,111.078 102.8339,104.5695 114.1153,78.1017 118.0203,65.5186 119.322,43.3898 112.8136,32.5424 97.6271,19.5254 83.3085,11.7153 68.122,8.678 53.3695,10.8475 35.5797,10.8475" stroke="#00007f" stroke-width="2" /><polyline fill="none" points="19.5254,33.8441 27.7695,33.4102 41.6542,37.7492 56.8407,47.7288 62.4814,54.6712 69.4237,72.8949 75.9322,98.9288 76.8,109.7763" stroke="#0080ff" stroke-width="2" /><polyline fill="none" points="118.0203,65.9525 113.2475,67.2542 101.0983,63.7831 94.1559,59.878 89.8169,55.539 69.8576,28.6373 64.2169,14.3186 65.0847,10.8475 66.3864,9.9797" stroke="#7cff79" stroke-width="2" /><polyline fill="none" points="43.3898,29.5051 36.8814,45.5593" stroke="#ff9400" stroke-width="2" /><polyline fill="none" points="77.2339,75.0644 74.6305,89.3831 68.122,96.3254" stroke="#7f0000" stroke-width="2" /></svg>