<?xml version="1.0" encoding="utf-8" ?>
<svg baseProfile="tiny" height="128" version="1.2" viewBox="0,0,128,128" width="128" xmlns="http://www.w3.org/2000/svg" xmlns:ev="http://www.w3.org/2001/xml-events" xmlns:xlink="http://www.w3.org/1999/xlink"><defs /><polyline fill="none" points="50.9388,8.7075 44.8435,8.7075 36.5714,13.4966 20.898,30.9116 11.3197,51.8095 8.7075,71.8367 9.1429,84.0272 10.8844,89.6871 13.932,96.2177 20.0272,104.4898 33.5238,114.068 50.068,119.2925 74.0136,119.2925 84.4626,116.2449 92.7347,110.585 102.3129,98.3946 105.3605,93.1701 108.8435,81.8503 111.4558,65.7415 111.4558,54.4218 110.1497,49.1973 105.3605,39.619 97.0884,28.7347 83.5918,17.415 70.0952,11.7551 60.0816,10.449" stroke="#00007f" stroke-width="2" /><polyline fill="none" points="30.9116,15.6735 41.3605,26.1224 45.2789,32.2177 50.9388,43.5374 56.1633,63.1293 57.034,101.8776 53.1156,116.2449 51.3741,115.3741" stroke="#7cff79" stroke-width="2" /><polyline fill="none" points="85.7687,16.5442 80.1088,43.5374 79.2381,83.5918 84.4626,103.619 88.8163,112.7619 92.7347,116.6803" stroke="#7f0000" stroke-width="2" /></svg>