<?xml version="1.0" encoding="utf-8" ?>
<svg baseProfile="tiny" height="128" version="1.2" viewBox="0,0,128,128" width="128" xmlns="http://www.w3.org/2000/svg" xmlns:ev="http://www.w3.org/2001/xml-events" xmlns:xlink="http://www.w3.org/1999/xlink"><defs /><polyline fill="none" points="76.3661,10.4136 45.5593,9.9797 40.3525,11.7153 29.5051,20.3932 19.5254,34.278 13.0169,49.0305 8.678,66.3864 9.5458,82.8746 17.3559,94.5898 27.7695,105.4373 41.2203,115.4169 49.0305,117.1525 58.1424,118.8881 69.4237,118.0203 80.2712,112.8136 97.1932,98.061 103.7017,91.5525 110.6441,77.6678 112.8136,66.3864 113.2475,48.5966 105.8712,32.1085 93.2881,17.3559 83.7424,13.8847 77.2339,15.1864" stroke="#00007f" stroke-width="2" /><polyline fill="none" points="56.4068,17.7898 43.3898,51.2 34.7119,78.9695 25.1661,98.9288" stroke="#0080ff" stroke-width="2" /><polyline fill="none" points="98.061,8.678 92.8542,12.5831 63.7831,70.2915 59.878,85.0441 56.8407,105.8712 56.8407,116.7186" stroke="#7cff79" stroke-width="2" /><polyline fill="none" points="97.6271,44.6915 76.3661,98.061 71.1593,119.322" stroke="#ff9400" stroke-width="2" /><polyline fill="none" points="23.4305,67.2542 66.8203,67.2542 113.2475,69.4237" stroke="#7f0000" stroke-width="2" /></svg>