<?xml version="1.0" encoding="utf-8" ?>
<svg baseProfile="tiny" height="128" version="1.2" viewBox="0,0,128,128" width="128" xmlns="http://www.w3.org/2000/svg" xmlns:ev="http://www.w3.org/2001/xml-events" xmlns:xlink="http://www.w3.org/1999/xlink"><defs /><polyline fill="none" points="74.8844,12.6259 70.5306,8.7075 66.1769,8.7075 59.6463,11.7551 33.9592,30.4762 19.5918,47.4558 10.449,69.6599 8.7075,80.5442 8.7075,99.7007 12.1905,105.7959 16.5442,110.1497 30.9116,111.0204 43.102,109.7143 73.1429,98.3946 86.6395,89.6871 107.102,66.1769 113.6327,53.9864 117.551,43.9728 119.2925,35.2653 119.2925,28.2993 117.9864,23.5102 107.9728,17.8503 99.7007,15.2381 81.8503,12.6259 67.0476,12.6259 56.5986,17.8503 54.4218,20.4626 56.1633,26.1224" stroke="#00007f" stroke-width="2" /><polyline fill="none" points="83.5918,21.3333 79.6735,23.9456 75.3197,29.6054 71.4014,38.3129 67.483,56.5986 68.3537,82.7211 74.0136,91.4286 77.4966,92.7347 83.5918,92.7347" stroke="#7cff79" stroke-width="2" /><polyline fill="none" points="57.034,27.4286 54.4218,30.4762 46.1497,49.6327 46.1497,78.3673 43.9728,87.0748 41.7959,89.6871 38.3129,91.4286 23.0748,92.2993" stroke="#7f0000" stroke-width="2" /></svg>