<?xml version="1.0" encoding="utf-8" ?>
<svg baseProfile="tiny" height="128" version="1.2" viewBox="0,0,128,128" width="128" xmlns="http://www.w3.org/2000/svg" xmlns:ev="http://www.w3.org/2001/xml-events" xmlns:xlink="http://www.w3.org/1999/xlink"><defs /><polyline fill="none" points="76.1905,14.3673 71.8367,11.7551 57.4694,10.0136 50.9388,12.6259 37.8776,25.2517 23.0748,42.6667 17.415,52.2449 9.1429,74.8844 8.7075,91.4286 16.9796,103.1837 25.2517,109.7143 35.2653,113.6327 54.8571,116.2449 74.0136,115.3741 90.5578,110.585 101.8776,105.3605 110.1497,97.5238 116.2449,89.2517 118.8571,79.6735 119.2925,70.966 118.8571,63.1293 112.7619,42.6667 107.102,34.3946 96.6531,30.0408 74.8844,8.7075" stroke="#00007f" stroke-width="2" /><polyline fill="none" points="58.7755,11.3197 59.2109,13.932 48.3265,37.0068 42.2313,55.7279 42.2313,70.966 45.2789,78.3673 49.6327,83.1565 60.0816,85.7687 69.6599,84.4626 80.1088,78.8027 87.5102,73.1429 92.2993,67.9184 102.3129,51.8095 104.0544,38.7483 106.2313,34.8299" stroke="#00d4ff" stroke-width="2" /><polyline fill="none" points="47.4558,78.8027 30.9116,64.8707 10.449,59.2109" stroke="#ffe500" stroke-width="2" /><polyline fill="none" points="62.2585,81.8503 77.4966,87.0748 85.3333,90.9932 92.2993,97.9592 100.5714,110.1497" stroke="#7f0000" stroke-width="2" /></svg>