<?xml version="1.0" encoding="utf-8" ?>
<svg baseProfile="tiny" height="128" version="1.2" viewBox="0,0,128,128" width="128" xmlns="http://www.w3.org/2000/svg" xmlns:ev="http://www.w3.org/2001/xml-events" xmlns:xlink="http://www.w3.org/1999/xlink"><defs /><polyline fill="none" points="114.9831,29.0712 110.6441,22.9966 106.3051,19.5254 89.3831,12.1492 71.1593,8.678 55.1051,9.1119 37.7492,14.7525 20.8271,26.0339 16.0542,31.6746 9.5458,43.8237 8.678,51.2" stroke="#00007f" stroke-width="2" /><polyline fill="none" points="52.0678,81.139 86.7797,79.8373 99.3627,75.0644 115.4169,63.3492 119.322,51.6339 116.2847,31.2407 112.3797,26.0339 99.7966,17.7898" stroke="#0000f1" stroke-width="2" /><polyline fill="none" points="88.9492,15.6203 82.0068,23.8644 80.2712,27.7695 78.5356,36.8814 79.4034,54.2373 81.5729,60.7458 87.2136,69.4237 93.722,75.9322 100.2305,78.1017" stroke="#004cff" stroke-width="2" /><polyline fill="none" points="86.3458,29.939 75.4983,35.5797" stroke="#00b0ff" stroke-width="2" /><polyline fill="none" points="83.7424,51.2 78.9695,55.1051 70.2915,59.0102" stroke="#29ffcd" stroke-width="2" /><polyline fill="none" points="91.1186,71.1593 79.8373,76.3661" stroke="#7cff79" stroke-width="2" /><polyline fill="none" points="29.5051,17.7898 39.4847,24.2983 51.2,35.5797 58.1424,50.3322 57.7085,57.7085 54.2373,71.1593 48.5966,78.5356" stroke="#cdff29" stroke-width="2" /><polyline fill="none" points="41.6542,21.6949 36.0136,27.3356" stroke="#ffc400" stroke-width="2" /><polyline fill="none" points="52.5017,35.5797 49.8983,39.0508 43.8237,42.522" stroke="#ff6700" stroke-width="2" /><polyline fill="none" points="55.9729,57.2746 49.8983,60.3119" stroke="#f10700" stroke-width="2" /><polyline fill="none" points="58.1424,71.1593 50.3322,73.3288" stroke="#7f0000" stroke-width="2" /></svg>