<?xml version="1.0" encoding="utf-8" ?>
<svg baseProfile="tiny" height="128" version="1.2" viewBox="0,0,128,128" width="128" xmlns="http://www.w3.org/2000/svg" xmlns:ev="http://www.w3.org/2001/xml-events" xmlns:xlink="http://www.w3.org/1999/xlink"><defs /><polyline fill="none" points="77.6678,16.0542 66.3864,12.5831 55.1051,12.5831 42.9559,16.922 28.6373,26.0339 18.2237,36.0136 12.5831,49.4644 8.678,62.4814 9.1119,82.0068 15.6203,95.0237 24.2983,103.7017 39.4847,114.1153 56.8407,119.322 70.2915,118.4542 77.6678,114.1153 79.8373,111.078 85.478,92.8542 89.3831,73.7627 89.3831,57.7085 85.9119,33.8441 78.5356,11.7153 78.5356,8.678" stroke="#00007f" stroke-width="2" /><polyline fill="none" points="26.9017,19.5254 35.5797,28.6373 52.9356,54.6712 63.3492,82.0068 64.6508,91.1186 67.6881,101.0983 72.8949,106.739 75.4983,113.2475 77.6678,114.5492" stroke="#7cff79" stroke-width="2" /><polyline fill="none" points="23.8644,101.0983 42.9559,82.4407 71.5932,62.4814 83.7424,52.5017 88.0814,51.2 106.739,38.1831" stroke="#7f0000" stroke-width="2" /></svg>