<?xml version="1.0" encoding="utf-8" ?>
<svg baseProfile="tiny" height="128" version="1.2" viewBox="0,0,128,128" width="128" xmlns="http://www.w3.org/2000/svg" xmlns:ev="http://www.w3.org/2001/xml-events" xmlns:xlink="http://www.w3.org/1999/xlink"><defs /><polyline fill="none" points="66.3864,9.1119 56.8407,9.1119 35.5797,13.0169 19.9593,19.5254 15.1864,24.2983 10.4136,33.4102 8.678,41.2203 8.678,49.8983 11.2814,67.2542 14.3186,75.0644 20.8271,86.7797 28.6373,95.4576 36.8814,101.0983 49.0305,107.1729 67.2542,108.0407 92.4203,102.8339 107.1729,93.722 111.5119,86.3458 117.1525,64.2169 119.322,51.6339 118.8881,41.6542 114.1153,30.8068 105.0034,22.5627 93.722,15.6203 83.3085,11.7153 71.5932,9.1119 56.8407,8.678 49.8983,9.9797" stroke="#00007f" stroke-width="2" /><polyline fill="none" points="31.6746,20.8271 35.5797,22.9966" stroke="#0000f1" stroke-width="2" /><polyline fill="none" points="40.3525,36.0136 40.3525,49.8983 37.7492,65.9525 34.278,74.1966" stroke="#004cff" stroke-width="2" /><polyline fill="none" points="31.2407,83.7424 30.3729,87.6475" stroke="#00b0ff" stroke-width="2" /><polyline fill="none" points="91.1186,92.4203 86.7797,88.5153 83.7424,82.8746" stroke="#29ffcd" stroke-width="2" /><polyline fill="none" points="82.8746,66.8203 82.8746,59.0102" stroke="#7cff79" stroke-width="2" /><polyline fill="none" points="84.6102,47.7288 88.0814,40.3525" stroke="#cdff29" stroke-width="2" /><polyline fill="none" points="93.722,25.1661 97.6271,22.1288" stroke="#ffc400" stroke-width="2" /><polyline fill="none" points="104.5695,18.2237 105.4373,18.2237" stroke="#ff6700" stroke-width="2" /><polyline fill="none" points="31.2407,17.3559 37.3153,33.4102 39.4847,48.5966 38.1831,60.7458 35.5797,65.9525 28.2034,74.6305 27.3356,80.7051" stroke="#f10700" stroke-width="2" /><polyline fill="none" points="92.4203,99.3627 88.5153,92.4203 82.8746,76.3661 80.7051,61.1797 84.1763,47.2949 98.4949,20.8271" stroke="#7f0000" stroke-width="2" /></svg>