<?xml version="1.0" encoding="utf-8" ?>
<svg baseProfile="tiny" height="128" version="1.2" viewBox="0,0,128,128" width="128" xmlns="http://www.w3.org/2000/svg" xmlns:ev="http://www.w3.org/2001/xml-events" xmlns:xlink="http://www.w3.org/1999/xlink"><defs /><polyline fill="none" points="75.4983,14.3186 66.3864,9.9797 58.1424,8.678 39.4847,9.5458 30.8068,13.4508 22.9966,18.6576 12.1492,34.278 8.678,54.6712 8.678,65.9525 11.2814,76.8 17.3559,88.5153 24.2983,98.4949 34.278,107.1729 44.2576,113.2475 53.8034,117.1525 63.3492,119.322 83.3085,118.4542 91.9864,115.4169 100.2305,110.2102 106.3051,104.1356 110.6441,96.3254 113.2475,86.7797 113.6814,66.3864 110.6441,54.6712 105.4373,42.9559 98.9288,31.6746 90.6847,22.5627 82.8746,15.6203 75.4983,11.7153 68.9898,9.9797" stroke="#00007f" stroke-width="2" /><polyline fill="none" points="41.2203,10.4136 47.2949,39.4847 48.1627,59.878 46.861,69.4237 43.3898,78.5356 39.4847,87.2136 31.6746,98.9288" stroke="#004cff" stroke-width="2" /><polyline fill="none" points="78.1017,20.3932 76.3661,24.7322 75.4983,36.0136 75.9322,63.3492 82.8746,94.1559 88.5153,103.2678" stroke="#29ffcd" stroke-width="2" /><polyline fill="none" points="61.1797,25.6 61.6136,40.3525" stroke="#cdff29" stroke-width="2" /><polyline fill="none" points="62.9153,58.5763 62.0475,76.3661" stroke="#ff6700" stroke-width="2" /><polyline fill="none" points="60.7458,92.4203 59.878,109.7763" stroke="#7f0000" stroke-width="2" /></svg>