<?xml version="1.0" encoding="utf-8" ?>
<svg baseProfile="tiny" height="128" version="1.2" viewBox="0,0,128,128" width="128" xmlns="http://www.w3.org/2000/svg" xmlns:ev="http://www.w3.org/2001/xml-events" xmlns:xlink="http://www.w3.org/1999/xlink"><defs /><polyline fill="none" points="39.0508,102.8339 30.3729,95.4576 18.6576,79.8373 13.4508,68.9898 8.678,50.3322 8.678,22.9966 12.1492,19.9593 39.9186,12.1492 65.5186,8.678 89.8169,8.678 98.9288,13.4508 102.8339,18.6576 108.0407,26.9017 114.9831,44.6915 118.4542,60.7458 119.322,85.478 118.0203,91.9864 114.5492,97.6271 100.6644,108.4746 88.5153,113.6814 82.4407,114.1153 63.3492,113.6814 36.4475,104.1356 31.6746,101.5322" stroke="#00007f" stroke-width="2" /><polyline fill="none" points="29.5051,19.5254 36.8814,22.5627 50.3322,33.8441 61.6136,69.4237 61.6136,90.6847 49.4644,105.0034 41.6542,107.1729" stroke="#7cff79" stroke-width="2" /><polyline fill="none" points="107.1729,101.5322 101.9661,101.0983 98.4949,99.7966 88.5153,82.8746 82.0068,45.1254 82.8746,18.6576 83.3085,13.4508 86.3458,8.678" stroke="#7f0000" stroke-width="2" /></svg>