<?xml version="1.0" encoding="utf-8" ?>
<svg baseProfile="tiny" height="128" version="1.2" viewBox="0,0,128,128" width="128" xmlns="http://www.w3.org/2000/svg" xmlns:ev="http://www.w3.org/2001/xml-events" xmlns:xlink="http://www.w3.org/1999/xlink"><defs /><polyline fill="none" points="67.6881,19.9593 60.3119,16.0542 54.2373,15.6203 43.8237,18.2237 32.9763,23.4305 24.7322,30.3729 18.2237,38.1831 10.4136,56.8407 8.678,71.5932 12.5831,82.0068 21.261,93.2881 29.5051,100.2305 43.3898,107.6068 54.2373,110.2102 68.9898,109.7763 77.6678,107.6068 96.3254,97.6271 111.078,82.0068 116.2847,69.4237 119.322,55.539 117.5864,36.8814 107.1729,25.1661 77.6678,11.7153 68.122,11.2814 50.3322,14.3186" stroke="#00007f" stroke-width="2" /><polyline fill="none" points="45.5593,16.922 52.0678,22.9966 57.7085,42.0881 59.4441,83.7424 58.1424,92.8542 53.8034,101.9661 39.4847,118.0203" stroke="#004cff" stroke-width="2" /><polyline fill="none" points="84.6102,8.678 78.5356,29.0712 78.1017,45.5593 82.0068,57.7085 89.3831,73.7627 109.7763,103.2678" stroke="#29ffcd" stroke-width="2" /><polyline fill="none" points="67.6881,28.2034 73.3288,31.2407 86.3458,33.8441" stroke="#cdff29" stroke-width="2" /><polyline fill="none" points="75.9322,53.3695 84.6102,52.9356 94.5898,50.3322" stroke="#ff6700" stroke-width="2" /><polyline fill="none" points="78.9695,71.5932 98.4949,65.9525" stroke="#7f0000" stroke-width="2" /></svg>