<?xml version="1.0" encoding="utf-8" ?>
<svg baseProfile="tiny" height="128" version="1.2" viewBox="0,0,128,128" width="128" xmlns="http://www.w3.org/2000/svg" xmlns:ev="http://www.w3.org/2001/xml-events" xmlns:xlink="http://www.w3.org/1999/xlink"><defs /><polyline fill="none" points="68.9898,15.1864 67.2542,11.7153 62.4814,9.1119 37.7492,8.678 25.6,12.1492 16.4881,22.1288 10.4136,35.5797 8.678,54.2373 12.1492,71.1593 18.6576,84.1763 113.6814,94.1559 117.5864,89.8169 119.322,75.4983 117.1525,66.8203 111.078,51.2 99.3627,33.8441 85.478,20.8271 77.6678,16.922 61.6136,12.1492" stroke="#00007f" stroke-width="2" /><polyline fill="none" points="21.261,15.1864 31.6746,20.8271 37.7492,29.5051 40.3525,39.0508 41.6542,65.9525 35.5797,77.6678 30.3729,82.8746" stroke="#00d4ff" stroke-width="2" /><polyline fill="none" points="94.5898,26.4678 86.3458,27.7695 76.8,32.9763 71.5932,39.9186 67.6881,48.1627 66.3864,61.1797 68.9898,77.6678 76.8,90.2508" stroke="#ffe500" stroke-width="2" /><polyline fill="none" points="115.8508,89.8169 102.8339,99.3627 84.1763,105.0034 66.3864,105.0034 51.6339,103.2678 42.9559,101.0983 30.3729,94.1559 25.6,89.3831 14.7525,74.1966" stroke="#7f0000" stroke-width="2" /></svg>