<?xml version="1.0" encoding="utf-8" ?>
<svg baseProfile="tiny" height="128" version="1.2" viewBox="0,0,128,128" width="128" xmlns="http://www.w3.org/2000/svg" xmlns:ev="http://www.w3.org/2001/xml-events" xmlns:xlink="http://www.w3.org/1999/xlink"><defs /><polyline fill="none" points="48.5966,8.678 22.5627,13.4508 16.4881,20.8271 9.1119,55.1051 8.678,63.3492 9.9797,71.1593 18.2237,88.9492 26.0339,100.2305 33.4102,108.4746 51.2,115.8508 74.1966,119.322 87.6475,116.7186 98.4949,102.4 101.5322,94.1559 103.2678,83.3085 100.2305,62.4814 96.7593,51.2 88.9492,40.7864 78.5356,32.9763 63.3492,16.0542 58.1424,11.7153 51.2,8.678" stroke="#00007f" stroke-width="2" /><polyline fill="none" points="25.6,9.1119 35.5797,23.4305 42.522,30.3729 46.4271,41.6542 43.8237,65.9525 44.6915,83.7424 36.4475,106.739 38.6169,103.2678" stroke="#00d4ff" stroke-width="2" /><polyline fill="none" points="62.4814,18.2237 62.0475,23.4305 65.0847,28.2034 70.2915,47.2949 72.8949,73.3288 81.139,95.8915 85.9119,101.5322" stroke="#ffe500" stroke-width="2" /><polyline fill="none" points="37.7492,45.5593 40.7864,47.7288" stroke="#7f0000" stroke-width="2" /></svg>