<?xml version="1.0" encoding="utf-8" ?>
<svg baseProfile="tiny" height="128" version="1.2" viewBox="0,0,128,128" width="128" xmlns="http://www.w3.org/2000/svg" xmlns:ev="http://www.w3.org/2001/xml-events" xmlns:xlink="http://www.w3.org/1999/xlink"><defs /><polyline fill="none" points="42.9559,44.2576 38.6169,42.522 29.939,42.9559 24.7322,46.4271 21.6949,56.4068 21.6949,60.7458 24.7322,65.0847 41.6542,66.3864 67.2542,63.7831 81.5729,57.7085 83.7424,52.5017 74.6305,36.0136 68.122,30.3729 59.878,29.939 27.7695,36.8814 25.6,38.6169 26.0339,44.2576" stroke="#00007f" stroke-width="2" /><polyline fill="none" points="42.9559,28.6373 44.6915,41.2203 52.5017,59.878 32.9763,53.8034 27.3356,52.9356 50.3322,49.0305 85.9119,50.3322 50.7661,59.878 46.4271,61.6136 41.2203,66.3864 33.4102,68.9898 37.3153,61.6136 58.5763,47.2949 70.7254,26.4678 64.6508,29.0712 23.4305,31.6746 14.3186,32.9763 8.678,36.0136 17.3559,38.6169 37.3153,51.6339 37.7492,53.3695 30.3729,59.4441 70.2915,38.6169 53.3695,44.2576 47.7288,41.2203 42.522,40.7864 35.1458,45.9932 38.6169,44.6915 49.4644,50.3322 54.6712,61.6136 50.7661,62.9153 26.4678,62.4814 52.0678,58.1424 62.9153,53.8034 68.5559,49.8983 71.1593,45.9932 70.2915,41.6542 59.878,32.1085 68.9898,43.3898 73.3288,51.6339 72.461,62.9153 67.6881,67.2542 61.6136,68.5559 45.1254,68.122 39.0508,64.2169 27.3356,62.9153 28.6373,60.3119 46.861,59.0102 56.8407,54.6712 45.5593,53.8034 29.0712,55.539 29.0712,52.5017" stroke="#7cff79" stroke-width="2" /><polyline fill="none" points="37.3153,12.5831 52.9356,72.461 58.1424,102.8339 67.6881,49.0305 72.461,30.3729 79.8373,8.678 77.6678,19.0915 75.9322,47.2949 78.1017,60.3119 87.6475,100.2305 78.5356,91.5525 70.2915,86.7797 36.4475,75.0644 24.7322,72.461 93.2881,72.8949 119.322,69.4237 105.8712,72.8949 83.7424,81.139 52.5017,98.9288 39.0508,104.1356 37.3153,99.3627 36.0136,88.5153 36.0136,40.3525 38.6169,37.7492" stroke="#7f0000" stroke-width="2" /></svg>