<?xml version="1.0" encoding="utf-8" ?>
<svg baseProfile="tiny" height="128" version="1.2" viewBox="0,0,128,128" width="128" xmlns="http://www.w3.org/2000/svg" xmlns:ev="http://www.w3.org/2001/xml-events" xmlns:xlink="http://www.w3.org/1999/xlink"><defs /><polyline fill="none" points="64.2169,12.5831 57.7085,8.678 49.0305,9.9797 36.8814,16.4881 24.7322,28.6373 14.3186,45.9932 9.5458,60.7458 8.678,75.4983 10.8475,87.6475 16.4881,97.6271 24.2983,105.0034 31.2407,108.4746 48.1627,111.5119 65.5186,108.4746 79.4034,101.9661 85.9119,96.7593 95.4576,84.6102 101.0983,71.5932 102.8339,61.6136 102.4,51.2 98.061,35.5797 92.4203,26.9017 85.9119,20.3932 75.4983,13.8847 63.3492,10.4136 59.878,10.8475 54.6712,43.3898 54.6712,57.7085 55.9729,66.3864 60.7458,78.1017 66.3864,86.3458 77.2339,96.3254 82.8746,100.2305 88.0814,101.5322" stroke="#00007f" stroke-width="2" /><polyline fill="none" points="20.8271,32.1085 25.6,37.3153 30.3729,45.5593 36.8814,73.7627 37.7492,91.5525 35.5797,107.6068 33.8441,115.4169 30.8068,119.322" stroke="#0010ff" stroke-width="2" /><polyline fill="none" points="22.1288,47.7288 33.8441,35.1458" stroke="#00a4ff" stroke-width="2" /><polyline fill="none" points="24.7322,77.6678 35.1458,66.3864" stroke="#3fffb7" stroke-width="2" /><polyline fill="none" points="27.7695,101.0983 36.0136,98.4949 42.9559,93.722" stroke="#b7ff3f" stroke-width="2" /><polyline fill="none" points="53.8034,21.6949 69.8576,25.1661" stroke="#ffb900" stroke-width="2" /><polyline fill="none" points="50.3322,62.4814 62.4814,60.3119" stroke="#ff3000" stroke-width="2" /><polyline fill="none" points="61.6136,92.4203 78.1017,79.8373" stroke="#7f0000" stroke-width="2" /></svg>