<?xml version="1.0" encoding="utf-8" ?>
<svg baseProfile="tiny" height="128" version="1.2" viewBox="0,0,128,128" width="128" xmlns="http://www.w3.org/2000/svg" xmlns:ev="http://www.w3.org/2001/xml-events" xmlns:xlink="http://www.w3.org/1999/xlink"><defs /><polyline fill="none" points="73.7627,14.7525 61.1797,14.7525 49.8983,18.2237 44.6915,21.261 38.6169,22.1288 25.1661,31.2407 11.7153,47.7288 8.678,62.4814 8.678,91.5525 11.7153,97.6271 23.8644,108.0407 45.1254,111.9458 69.4237,111.9458 82.0068,108.9085 106.739,93.2881 116.2847,83.3085 119.322,76.8 119.322,59.4441 116.2847,53.8034 114.9831,48.1627 95.4576,21.261 84.1763,13.0169 78.9695,10.8475 61.6136,8.678" stroke="#00007f" stroke-width="2" /><polyline fill="none" points="36.4475,22.9966 36.4475,29.0712 40.7864,34.7119 57.2746,41.6542 79.4034,41.6542 86.3458,39.4847 91.5525,35.5797 98.4949,33.4102" stroke="#7cff79" stroke-width="2" /><polyline fill="none" points="21.261,99.7966 45.9932,87.2136 53.3695,87.2136 58.5763,85.0441 83.3085,85.0441 94.5898,89.3831 98.4949,93.2881" stroke="#7f0000" stroke-width="2" /></svg>