<?xml version="1.0" encoding="utf-8" ?>
<svg baseProfile="tiny" height="128" version="1.2" viewBox="0,0,128,128" width="128" xmlns="http://www.w3.org/2000/svg" xmlns:ev="http://www.w3.org/2001/xml-events" xmlns:xlink="http://www.w3.org/1999/xlink"><defs /><polyline fill="none" points="112.7619,15.2381 76.1905,10.449 64.0,10.449 60.517,11.7551 59.2109,14.3673 58.3401,25.2517 61.8231,44.4082 65.7415,52.6803 80.5442,60.0816 94.0408,62.6939 104.9252,59.2109 112.7619,53.1156 119.2925,42.6667 114.9388,30.9116 111.0204,9.5782 108.4082,8.7075 105.7959,9.5782" stroke="#00007f" stroke-width="2" /><polyline fill="none" points="83.1565,34.8299 103.1837,26.9932" stroke="#0000ff" stroke-width="2" /><polyline fill="none" points="89.6871,26.9932 91.4286,34.3946" stroke="#0080ff" stroke-width="2" /><polyline fill="none" points="92.7347,27.8639 94.9116,36.5714" stroke="#15ffe1" stroke-width="2" /><polyline fill="none" points="95.3469,24.8163 96.6531,33.9592" stroke="#7cff79" stroke-width="2" /><polyline fill="none" points="36.5714,58.3401 16.1088,57.4694 9.1429,63.5646 8.7075,76.6259 13.4966,85.3333 17.415,87.0748 25.2517,87.5102 27.8639,86.6395 31.3469,82.7211 35.2653,72.7075 31.3469,64.0 26.1224,60.0816" stroke="#e4ff12" stroke-width="2" /><polyline fill="none" points="16.9796,75.3197 23.5102,74.0136 26.1224,69.2245" stroke="#ff9400" stroke-width="2" /><polyline fill="none" points="20.4626,70.5306 23.0748,78.3673" stroke="#ff1d00" stroke-width="2" /><polyline fill="none" points="23.9456,70.966 23.9456,70.966" stroke="#7f0000" stroke-width="2" /></svg>