<?xml version="1.0" encoding="utf-8" ?>
<svg baseProfile="tiny" height="128" version="1.2" viewBox="0,0,128,128" width="128" xmlns="http://www.w3.org/2000/svg" xmlns:ev="http://www.w3.org/2001/xml-events" xmlns:xlink="http://www.w3.org/1999/xlink"><defs /><polyline fill="none" points="8.678,108.9085 13.0169,104.5695 27.7695,97.1932 44.2576,83.3085 51.6339,75.4983 71.1593,49.0305 78.5356,42.0881 92.8542,34.278 101.9661,33.4102 104.5695,35.1458 107.1729,39.0508 107.1729,48.1627 100.6644,57.2746 66.3864,84.1763 34.278,107.1729 23.4305,116.7186 18.6576,119.322 12.1492,111.9458" stroke="#00007f" stroke-width="2" /><polyline fill="none" points="21.6949,99.7966 24.2983,101.0983 29.0712,108.0407" stroke="#0028ff" stroke-width="2" /><polyline fill="none" points="56.4068,11.7153 42.9559,12.1492 36.4475,15.6203 33.4102,19.5254 32.5424,31.2407 33.8441,34.7119 39.0508,40.3525 45.1254,43.3898 56.4068,43.3898 59.4441,41.6542 63.7831,35.1458 64.2169,15.1864 62.0475,11.2814 59.4441,9.5458 52.9356,8.678 52.0678,10.4136" stroke="#00d4ff" stroke-width="2" /><polyline fill="none" points="61.1797,11.2814 57.7085,12.1492 53.3695,16.0542 47.2949,24.7322 45.9932,28.6373 45.5593,40.7864 47.2949,46.861" stroke="#7cff79" stroke-width="2" /><polyline fill="none" points="44.2576,34.278 49.8983,33.8441" stroke="#ffe500" stroke-width="2" /><polyline fill="none" points="45.1254,22.5627 49.8983,24.2983" stroke="#ff4600" stroke-width="2" /><polyline fill="none" points="50.3322,14.7525 54.6712,16.4881" stroke="#7f0000" stroke-width="2" /></svg>