<?xml version="1.0" encoding="utf-8" ?>
<svg baseProfile="tiny" height="128" version="1.2" viewBox="0,0,128,128" width="128" xmlns="http://www.w3.org/2000/svg" xmlns:ev="http://www.w3.org/2001/xml-events" xmlns:xlink="http://www.w3.org/1999/xlink"><defs /><polyline fill="none" points="76.1905,14.3673 73.5782,11.7551 67.0476,9.1429 52.2449,8.7075 41.7959,13.4966 26.9932,25.2517 16.9796,38.7483 13.4966,47.4558 8.7075,68.7891 9.1429,89.2517 15.2381,100.1361 21.3333,106.2313 32.6531,111.8912 50.9388,117.9864 72.7075,119.2925 82.2857,117.1156 97.0884,108.4082 105.3605,97.5238 110.585,87.5102 113.1973,74.8844 113.1973,66.1769 105.3605,50.068 89.2517,29.1701 80.9796,20.4626 72.2721,17.415" stroke="#00007f" stroke-width="2" /><polyline fill="none" points="19.1565,42.6667 27.8639,54.8571 37.0068,78.8027 38.7483,100.5714 38.7483,111.4558 37.0068,118.8571" stroke="#00d4ff" stroke-width="2" /><polyline fill="none" points="87.9456,26.9932 85.7687,48.7619 86.6395,67.483 94.9116,90.5578 102.3129,100.1361 105.3605,101.4422" stroke="#ffe500" stroke-width="2" /><polyline fill="none" points="24.8163,47.4558 28.7347,42.6667" stroke="#7f0000" stroke-width="2" /></svg>