<?xml version="1.0" encoding="utf-8" ?>
<svg baseProfile="tiny" height="128" version="1.2" viewBox="0,0,128,128" width="128" xmlns="http://www.w3.org/2000/svg" xmlns:ev="http://www.w3.org/2001/xml-events" xmlns:xlink="http://www.w3.org/1999/xlink"><defs /><polyline fill="none" points="45.2789,8.7075 40.9252,10.0136 29.6054,17.8503 16.5442,31.3469 12.1905,38.3129 9.1429,50.068 8.7075,68.7891 9.5782,74.449 13.0612,83.5918 17.415,90.1224 28.2993,97.5238 53.9864,107.5374 96.2177,119.2925 104.0544,119.2925 108.8435,114.5034 112.7619,106.6667 116.2449,92.7347 117.1156,66.6122 115.3741,54.8571 107.5374,33.9592 97.0884,21.3333 85.7687,13.0612 77.932,11.7551 43.9728,11.3197" stroke="#00007f" stroke-width="2" /><polyline fill="none" points="24.381,21.7687 29.6054,26.5578 41.3605,41.3605 48.3265,54.8571 51.3741,64.4354 50.9388,75.3197 48.7619,80.5442 37.4422,87.9456 33.5238,91.8639 34.3946,92.2993" stroke="#7cff79" stroke-width="2" /><polyline fill="none" points="94.9116,20.898 85.7687,30.0408 73.1429,34.8299 69.2245,39.1837 67.483,50.068 69.2245,69.6599 72.2721,77.4966 77.932,84.0272" stroke="#7f0000" stroke-width="2" /></svg>