<?xml version="1.0" encoding="utf-8" ?>
<svg baseProfile="tiny" height="128" version="1.2" viewBox="0,0,128,128" width="128" xmlns="http://www.w3.org/2000/svg" xmlns:ev="http://www.w3.org/2001/xml-events" xmlns:xlink="http://www.w3.org/1999/xlink"><defs /><polyline fill="none" points="66.8203,105.4373 38.6169,98.061 21.261,88.0814 12.5831,77.6678 9.5458,66.3864 8.678,52.9356 13.4508,34.278 21.6949,20.3932 31.6746,12.1492 39.4847,9.1119 48.5966,8.678 56.8407,10.4136 66.3864,14.7525 92.4203,31.6746 106.3051,47.2949 114.1153,63.7831 115.8508,72.0271 113.2475,86.7797 110.6441,93.2881 104.1356,98.9288 95.0237,101.9661 86.7797,100.2305" stroke="#00007f" stroke-width="2" /><polyline fill="none" points="25.6,21.6949 37.7492,34.278 44.6915,44.6915 47.2949,52.5017 45.1254,82.0068" stroke="#0028ff" stroke-width="2" /><polyline fill="none" points="93.2881,29.939 95.0237,75.0644 102.4,90.2508 105.0034,91.5525" stroke="#00d4ff" stroke-width="2" /><polyline fill="none" points="27.7695,48.5966 61.1797,39.9186" stroke="#7cff79" stroke-width="2" /><polyline fill="none" points="30.3729,67.6881 53.8034,64.6508" stroke="#ffe500" stroke-width="2" /><polyline fill="none" points="30.3729,86.7797 64.2169,88.0814" stroke="#ff4600" stroke-width="2" /><polyline fill="none" points="90.2508,63.3492 97.1932,62.4814 119.322,55.9729" stroke="#7f0000" stroke-width="2" /></svg>