<?xml version="1.0" encoding="utf-8" ?>
<svg baseProfile="tiny" height="128" version="1.2" viewBox="0,0,128,128" width="128" xmlns="http://www.w3.org/2000/svg" xmlns:ev="http://www.w3.org/2001/xml-events" xmlns:xlink="http://www.w3.org/1999/xlink"><defs /><polyline fill="none" points="71.8367,8.7075 61.3878,9.5782 45.7143,16.5442 37.4422,21.3333 23.5102,34.8299 16.9796,46.585 10.0136,65.7415 8.7075,73.5782 9.1429,84.4626 13.932,94.0408 18.7211,97.9592 42.2313,111.0204 67.9184,118.8571 86.2041,119.2925 90.1224,117.551 98.8299,110.585 106.2313,102.3129 112.3265,92.7347 116.2449,81.8503 118.4218,65.3061 115.3741,55.2925 97.0884,29.1701 86.6395,23.5102 76.1905,13.932 71.4014,12.6259 61.8231,12.6259" stroke="#00007f" stroke-width="2" /><polyline fill="none" points="26.1224,32.2177 24.381,39.1837 24.8163,50.5034 33.9592,63.5646 33.9592,68.7891 29.6054,82.7211 30.0408,90.5578 23.5102,98.3946" stroke="#7f0000" stroke-width="2" /></svg>