<?xml version="1.0" encoding="utf-8" ?>
<svg baseProfile="tiny" height="128" version="1.2" viewBox="0,0,128,128" width="128" xmlns="http://www.w3.org/2000/svg" xmlns:ev="http://www.w3.org/2001/xml-events" xmlns:xlink="http://www.w3.org/1999/xlink"><defs /><polyline fill="none" points="98.4949,19.0915 91.9864,15.6203" stroke="#00007f" stroke-width="2" /><polyline fill="none" points="91.9864,15.6203 73.7627,9.9797" stroke="#0000ff" stroke-width="2" /><polyline fill="none" points="80.7051,9.9797 52.5017,8.678 36.4475,12.1492 22.9966,22.1288 13.4508,37.3153 9.5458,50.7661 8.678,62.4814 12.1492,84.6102 17.3559,95.4576 23.8644,104.1356 40.3525,115.4169 50.7661,118.8881 60.3119,119.322 78.5356,115.4169 90.6847,108.9085 98.4949,101.9661 108.4746,87.2136 112.3797,76.3661 114.1153,64.6508 112.3797,42.9559 109.3424,35.5797 103.7017,27.3356 97.1932,20.3932 87.2136,13.0169" stroke="#0080ff" stroke-width="2" /><polyline fill="none" points="57.2746,12.5831 42.9559,16.0542 29.0712,24.7322 19.0915,36.8814 14.3186,46.861 12.1492,68.122 14.3186,82.8746 20.8271,100.6644 23.8644,105.4373 29.5051,110.2102" stroke="#15ffe1" stroke-width="2" /><polyline fill="none" points="76.3661,12.1492 82.8746,15.6203 88.0814,21.6949 99.7966,52.0678 102.4,64.6508 102.4,75.4983 99.7966,99.7966" stroke="#7cff79" stroke-width="2" /><polyline fill="none" points="74.6305,13.0169 47.7288,45.1254 40.7864,57.2746 36.4475,68.5559 34.7119,81.5729 35.1458,92.8542 38.1831,104.1356 43.3898,114.1153" stroke="#e4ff12" stroke-width="2" /><polyline fill="none" points="72.8949,14.7525 72.8949,14.7525" stroke="#ff9400" stroke-width="2" /><polyline fill="none" points="72.8949,14.7525 72.8949,14.7525" stroke="#ff1d00" stroke-width="2" /><polyline fill="none" points="74.1966,13.0169 79.8373,25.6 84.6102,47.2949" stroke="#7f0000" stroke-width="2" /></svg>