<?xml version="1.0" encoding="utf-8" ?>
<svg baseProfile="tiny" height="128" version="1.2" viewBox="0,0,128,128" width="128" xmlns="http://www.w3.org/2000/svg" xmlns:ev="http://www.w3.org/2001/xml-events" xmlns:xlink="http://www.w3.org/1999/xlink"><defs /><polyline fill="none" points="110.6441,26.9017 107.1729,23.4305 85.478,13.8847 67.6881,9.5458 46.861,8.678 33.4102,11.7153 19.5254,19.9593 11.7153,29.939 8.678,39.4847 9.1119,51.6339 13.4508,64.6508 19.5254,74.6305 29.0712,81.139 47.2949,88.9492 75.9322,94.1559 110.2102,95.4576 113.6814,94.5898 114.9831,91.9864 116.7186,84.6102 117.1525,44.6915 119.322,33.8441 118.4542,20.8271 113.6814,16.4881 111.078,16.4881" stroke="#00007f" stroke-width="2" /><polyline fill="none" points="24.2983,19.0915 29.0712,19.9593 44.6915,29.5051 52.9356,40.3525 58.1424,52.9356 62.0475,69.8576 62.9153,80.2712 60.7458,88.9492" stroke="#7cff79" stroke-width="2" /><polyline fill="none" points="113.2475,22.9966 105.0034,25.1661 93.722,31.6746 88.9492,39.0508 85.0441,49.8983 82.4407,65.0847 82.4407,85.0441 86.7797,95.8915 89.3831,98.9288 91.5525,98.9288" stroke="#7f0000" stroke-width="2" /></svg>