<?xml version="1.0" encoding="utf-8" ?>
<svg baseProfile="tiny" height="128" version="1.2" viewBox="0,0,128,128" width="128" xmlns="http://www.w3.org/2000/svg" xmlns:ev="http://www.w3.org/2001/xml-events" xmlns:xlink="http://www.w3.org/1999/xlink"><defs /><polyline fill="none" points="109.3424,9.9797 75.9322,8.678 56.8407,11.7153 35.5797,12.5831 26.4678,15.6203 22.5627,19.5254 18.6576,20.3932 16.0542,26.9017 12.1492,42.9559 12.1492,70.2915 17.3559,77.6678 21.261,80.2712 33.8441,83.7424 45.1254,85.0441 88.9492,84.1763 102.8339,74.1966 105.4373,70.2915 113.2475,46.4271 116.7186,25.6 116.7186,15.6203 113.2475,12.5831 105.0034,11.7153" stroke="#00007f" stroke-width="2" /><polyline fill="none" points="52.0678,83.7424 57.2746,77.6678 61.1797,62.4814 61.1797,44.6915 68.122,9.1119" stroke="#004cff" stroke-width="2" /><polyline fill="none" points="8.678,37.3153 111.5119,36.8814" stroke="#29ffcd" stroke-width="2" /><polyline fill="none" points="13.4508,55.1051 64.6508,57.7085 119.322,56.4068" stroke="#cdff29" stroke-width="2" /><polyline fill="none" points="14.7525,24.7322 17.7898,22.9966 31.2407,22.9966 68.5559,23.4305 88.5153,26.9017 117.1525,24.7322" stroke="#ff6700" stroke-width="2" /><polyline fill="none" points="17.3559,67.2542 100.6644,67.6881" stroke="#7f0000" stroke-width="2" /></svg>