<?xml version="1.0" encoding="utf-8" ?>
<svg baseProfile="tiny" height="128" version="1.2" viewBox="0,0,128,128" width="128" xmlns="http://www.w3.org/2000/svg" xmlns:ev="http://www.w3.org/2001/xml-events" xmlns:xlink="http://www.w3.org/1999/xlink"><defs /><polyline fill="none" points="82.0068,11.7153 62.9153,8.678 40.7864,8.678 32.5424,12.1492 24.7322,20.8271 17.7898,33.4102 12.5831,45.1254 8.678,63.3492 10.4136,90.6847 15.1864,101.9661 19.0915,107.1729 24.2983,111.5119 33.4102,115.4169 47.2949,118.4542 81.139,118.8881 88.0814,118.4542 93.2881,115.8508 101.0983,105.8712 115.8508,74.6305 119.322,56.8407 116.7186,43.3898 112.3797,36.4475 99.3627,21.6949 97.6271,20.3932 70.2915,12.5831" stroke="#00007f" stroke-width="2" /><polyline fill="none" points="20.8271,36.8814 47.2949,42.522 53.8034,42.522 57.2746,41.2203 65.5186,31.6746 72.8949,16.0542" stroke="#7cff79" stroke-width="2" /><polyline fill="none" points="47.2949,114.1153 52.9356,101.9661 64.2169,84.6102 72.461,78.1017 81.139,75.9322 91.5525,77.6678 94.5898,79.4034 103.7017,91.5525" stroke="#7f0000" stroke-width="2" /></svg>