<?xml version="1.0" encoding="utf-8" ?>
<svg baseProfile="tiny" height="128" version="1.2" viewBox="0,0,128,128" width="128" xmlns="http://www.w3.org/2000/svg" xmlns:ev="http://www.w3.org/2001/xml-events" xmlns:xlink="http://www.w3.org/1999/xlink"><defs /><polyline fill="none" points="85.9119,74.1966 94.1559,77.6678 95.8915,73.3288 89.3831,72.461 87.2136,73.7627" stroke="#00007f" stroke-width="2" /><polyline fill="none" points="88.9492,70.7254 91.5525,48.5966 92.8542,40.3525 94.1559,39.9186 97.1932,43.8237 99.3627,56.4068 99.3627,63.3492 95.4576,72.461" stroke="#0010ff" stroke-width="2" /><polyline fill="none" points="112.8136,45.9932 116.2847,42.522 119.322,43.3898 118.4542,49.0305 114.5492,49.4644 112.3797,44.6915" stroke="#00a4ff" stroke-width="2" /><polyline fill="none" points="8.678,64.2169 32.5424,65.0847" stroke="#3fffb7" stroke-width="2" /><polyline fill="none" points="16.922,63.3492 20.3932,25.1661 24.2983,16.922 27.7695,15.6203 32.1085,18.6576 33.4102,21.6949 35.5797,30.8068 32.9763,64.6508" stroke="#b7ff3f" stroke-width="2" /><polyline fill="none" points="19.0915,63.7831 46.861,66.3864" stroke="#ffb900" stroke-width="2" /><polyline fill="none" points="16.4881,65.9525 19.5254,69.8576 20.8271,80.7051 22.5627,81.5729 27.7695,81.5729 30.3729,79.8373 32.9763,73.7627 32.9763,66.3864" stroke="#ff3000" stroke-width="2" /><polyline fill="none" points="64.2169,8.678 64.2169,8.678" stroke="#7f0000" stroke-width="2" /></svg>