<?xml version="1.0" encoding="utf-8" ?>
<svg baseProfile="tiny" height="128" version="1.2" viewBox="0,0,128,128" width="128" xmlns="http://www.w3.org/2000/svg" xmlns:ev="http://www.w3.org/2001/xml-events" xmlns:xlink="http://www.w3.org/1999/xlink"><defs /><polyline fill="none" points="109.2789,66.1769 87.9456,73.5782 74.0136,80.1088 65.7415,81.415 43.9728,81.415 18.7211,60.0816 11.3197,47.8912 8.7075,39.619 8.7075,30.0408 13.4966,23.5102 21.3333,17.8503 33.9592,13.0612 55.7279,9.1429 84.898,9.1429 109.7143,16.1088 113.1973,18.2857 119.2925,28.7347 119.2925,43.9728 117.9864,50.068 114.068,57.034 107.9728,62.2585 97.9592,64.8707" stroke="#00007f" stroke-width="2" /><polyline fill="none" points="43.9728,11.3197 47.0204,13.4966 48.3265,20.898 48.7619,46.1497 45.2789,54.8571 31.3469,73.5782" stroke="#7cff79" stroke-width="2" /><polyline fill="none" points="91.8639,8.7075 91.8639,38.3129 94.0408,44.4082 94.0408,67.483 94.9116,69.6599" stroke="#7f0000" stroke-width="2" /></svg>