<?xml version="1.0" encoding="utf-8" ?>
<svg baseProfile="tiny" height="128" version="1.2" viewBox="0,0,128,128" width="128" xmlns="http://www.w3.org/2000/svg" xmlns:ev="http://www.w3.org/2001/xml-events" xmlns:xlink="http://www.w3.org/1999/xlink"><defs /><polyline fill="none" points="98.4949,36.4475 83.3085,37.7492 73.3288,40.7864 72.8949,44.6915 75.4983,53.3695 76.8,62.4814 78.1017,65.9525 79.8373,66.3864 86.7797,65.9525 97.6271,60.7458 100.2305,58.1424 102.4,50.7661 102.4,42.0881 100.2305,36.8814" stroke="#00007f" stroke-width="2" /><polyline fill="none" points="98.4949,36.8814 98.9288,17.7898 100.2305,9.5458 101.9661,8.678 105.8712,8.678 117.5864,12.5831 119.322,23.8644 118.8881,33.4102 116.2847,41.6542 95.0237,38.1831" stroke="#0000ff" stroke-width="2" /><polyline fill="none" points="58.5763,14.3186 47.7288,15.6203 42.9559,18.6576 40.7864,22.1288 40.3525,30.3729 45.1254,33.8441 49.8983,35.1458 54.6712,35.1458 58.5763,33.4102 62.4814,29.5051 64.6508,24.7322 64.2169,16.0542 57.2746,14.3186" stroke="#0080ff" stroke-width="2" /><polyline fill="none" points="48.5966,15.6203 48.5966,15.6203" stroke="#15ffe1" stroke-width="2" /><polyline fill="none" points="48.5966,13.8847 48.1627,18.2237 53.3695,34.278" stroke="#7cff79" stroke-width="2" /><polyline fill="none" points="58.5763,17.7898 45.5593,38.1831" stroke="#e4ff12" stroke-width="2" /><polyline fill="none" points="40.7864,19.0915 60.3119,32.5424" stroke="#ff9400" stroke-width="2" /><polyline fill="none" points="62.0475,24.2983 39.4847,29.5051" stroke="#ff1d00" stroke-width="2" /><polyline fill="none" points="29.0712,75.9322 22.5627,75.0644 14.7525,81.139 9.1119,88.9492 8.678,95.4576 10.4136,98.061 22.5627,104.1356 32.5424,104.1356 35.1458,101.9661 38.1831,94.1559 38.6169,85.478 38.1831,81.5729 33.8441,75.9322 27.7695,73.7627 21.6949,74.1966" stroke="#7f0000" stroke-width="2" /></svg>