<?xml version="1.0" encoding="utf-8" ?>
<svg baseProfile="tiny" height="128" version="1.2" viewBox="0,0,128,128" width="128" xmlns="http://www.w3.org/2000/svg" xmlns:ev="http://www.w3.org/2001/xml-events" xmlns:xlink="http://www.w3.org/1999/xlink"><defs /><polyline fill="none" points="38.6169,8.678 33.4102,8.678 25.1661,12.1492 18.2237,21.6949 12.1492,36.8814 8.678,55.539 8.678,70.7254 11.7153,82.0068 18.2237,95.8915 30.3729,108.9085 36.4475,111.9458 46.861,113.6814 62.9153,112.8136 84.1763,105.4373 103.2678,96.7593 111.9458,89.8169 115.8508,83.3085 119.322,71.1593 119.322,57.7085 118.4542,51.6339 111.078,39.0508 96.7593,22.5627 83.3085,12.1492 74.1966,9.5458 35.5797,8.678 24.7322,14.3186 15.1864,33.8441 10.8475,50.3322 15.1864,51.6339 26.4678,51.6339 32.5424,52.9356 40.7864,60.7458 45.1254,73.7627 47.2949,87.6475 47.2949,112.8136" stroke="#00007f" stroke-width="2" /><polyline fill="none" points="66.8203,12.1492 66.8203,27.3356 69.8576,39.9186 82.8746,66.8203 92.4203,79.4034 98.4949,84.6102 103.7017,86.7797 111.5119,86.7797" stroke="#7f0000" stroke-width="2" /></svg>