<?xml version="1.0" encoding="utf-8" ?>
<svg baseProfile="tiny" height="128" version="1.2" viewBox="0,0,128,128" width="128" xmlns="http://www.w3.org/2000/svg" xmlns:ev="http://www.w3.org/2001/xml-events" xmlns:xlink="http://www.w3.org/1999/xlink"><defs /><polyline fill="none" points="88.0814,29.5051 82.4407,21.261 74.1966,17.3559 65.5186,16.0542 49.4644,18.6576 39.9186,22.9966 26.0339,33.8441 18.2237,42.0881 13.0169,52.0678 9.5458,63.3492 8.678,74.1966 9.5458,83.7424 13.4508,93.722 19.5254,101.9661 27.7695,109.3424 38.6169,115.8508 50.7661,118.4542 62.4814,119.322 77.6678,115.4169 85.478,111.078 96.3254,100.2305 106.3051,81.5729 108.4746,67.2542 109.7763,43.8237 107.1729,30.8068 103.7017,22.9966 94.1559,12.5831 88.0814,9.9797 76.3661,8.678 67.6881,9.9797 51.2,18.2237 45.9932,23.4305" stroke="#00007f" stroke-width="2" /><polyline fill="none" points="28.2034,24.7322 38.1831,40.3525 45.5593,57.2746 50.3322,72.8949 50.3322,79.8373 46.861,93.2881 41.6542,101.9661 36.0136,108.4746 27.3356,115.8508 25.1661,115.8508" stroke="#0028ff" stroke-width="2" /><polyline fill="none" points="88.5153,14.3186 83.3085,24.2983 77.2339,47.2949 76.8,69.8576 78.1017,78.1017 81.5729,90.2508 85.9119,94.5898 94.5898,98.9288 106.3051,101.0983" stroke="#00d4ff" stroke-width="2" /><polyline fill="none" points="40.7864,43.3898 35.5797,45.1254 31.6746,48.1627" stroke="#7cff79" stroke-width="2" /><polyline fill="none" points="52.0678,55.539 47.2949,55.539 42.9559,58.1424" stroke="#ffe500" stroke-width="2" /><polyline fill="none" points="57.7085,72.8949 41.2203,83.7424" stroke="#ff4600" stroke-width="2" /><polyline fill="none" points="54.6712,104.5695 54.6712,104.5695" stroke="#7f0000" stroke-width="2" /></svg>