<?xml version="1.0" encoding="utf-8" ?>
<svg baseProfile="tiny" height="128" version="1.2" viewBox="0,0,128,128" width="128" xmlns="http://www.w3.org/2000/svg" xmlns:ev="http://www.w3.org/2001/xml-events" xmlns:xlink="http://www.w3.org/1999/xlink"><defs /><polyline fill="none" points="61.6136,9.5458 39.9186,10.8475 28.2034,13.8847 22.9966,16.922 18.6576,19.9593 14.3186,27.3356 9.9797,37.7492 8.678,45.1254 8.678,56.8407 11.7153,66.3864 16.0542,75.0644 19.9593,79.4034 41.2203,89.3831 61.6136,95.0237 79.4034,98.061 94.1559,98.061 109.3424,91.1186 111.9458,88.5153 116.2847,78.5356 119.322,66.3864 119.322,49.8983 114.1153,38.1831 107.6068,30.3729 98.4949,22.5627 77.6678,12.5831 58.5763,8.678" stroke="#00007f" stroke-width="2" /><polyline fill="none" points="43.8237,10.4136 47.7288,18.6576 49.4644,30.3729 49.4644,55.9729 41.6542,77.6678 35.5797,85.478" stroke="#7f0000" stroke-width="2" /></svg>