<?xml version="1.0" encoding="utf-8" ?>
<svg baseProfile="tiny" height="128" version="1.2" viewBox="0,0,128,128" width="128" xmlns="http://www.w3.org/2000/svg" xmlns:ev="http://www.w3.org/2001/xml-events" xmlns:xlink="http://www.w3.org/1999/xlink"><defs /><polyline fill="none" points="86.7797,12.1492 75.4983,19.0915 70.7254,26.9017 69.8576,34.7119 70.7254,39.0508 76.8,46.861 90.2508,53.8034 99.7966,55.1051 111.5119,52.5017 118.0203,43.8237 119.322,31.2407 117.1525,23.4305 111.5119,15.1864 107.1729,11.2814 99.7966,8.678 92.4203,8.678 84.6102,11.2814" stroke="#00007f" stroke-width="2" /><polyline fill="none" points="89.8169,12.1492 81.139,27.7695 79.8373,35.5797 80.7051,42.9559 84.1763,45.1254 86.7797,43.3898" stroke="#0080ff" stroke-width="2" /><polyline fill="none" points="98.9288,10.8475 92.4203,26.0339 91.1186,35.5797 92.4203,42.9559 95.8915,45.9932 102.4,43.8237" stroke="#7cff79" stroke-width="2" /><polyline fill="none" points="112.8136,13.0169 105.0034,27.7695 102.4,42.522 102.4,46.861 105.8712,53.8034 109.3424,56.4068 112.8136,57.2746" stroke="#ff9400" stroke-width="2" /><polyline fill="none" points="61.6136,43.8237 57.7085,39.4847 46.861,33.4102 41.6542,32.1085 30.3729,34.278 18.6576,40.3525 8.678,51.6339" stroke="#7f0000" stroke-width="2" /></svg>