<?xml version="1.0" encoding="utf-8" ?>
<svg baseProfile="tiny" height="128" version="1.2" viewBox="0,0,128,128" width="128" xmlns="http://www.w3.org/2000/svg" xmlns:ev="http://www.w3.org/2001/xml-events" xmlns:xlink="http://www.w3.org/1999/xlink"><defs /><polyline fill="none" points="34.278,49.4644 25.6,43.8237 18.6576,44.6915 14.7525,47.2949 8.678,55.539 8.678,62.9153 9.9797,66.8203 12.1492,69.4237 19.0915,71.5932 24.2983,68.5559 28.2034,60.7458 32.9763,46.4271" stroke="#00007f" stroke-width="2" /><polyline fill="none" points="83.7424,42.0881 82.0068,39.9186 80.2712,23.8644 72.0271,12.5831 68.9898,9.9797 63.3492,8.678 61.6136,10.4136 59.4441,19.5254 59.0102,31.2407 64.6508,53.3695 67.2542,70.7254 74.6305,86.7797 76.3661,117.1525 78.9695,119.322 90.6847,111.5119 85.478,97.6271 85.478,87.6475 82.4407,65.9525 84.6102,50.7661 81.139,30.8068" stroke="#7f0000" stroke-width="2" /></svg>