<?xml version="1.0" encoding="utf-8" ?>
<svg baseProfile="tiny" height="128" version="1.2" viewBox="0,0,128,128" width="128" xmlns="http://www.w3.org/2000/svg" xmlns:ev="http://www.w3.org/2001/xml-events" xmlns:xlink="http://www.w3.org/1999/xlink"><defs /><polyline fill="none" points="63.3492,11.7153 54.2373,8.678 45.5593,9.1119 35.1458,12.5831 23.4305,20.8271 13.8847,29.0712 8.678,43.8237 9.1119,51.2 13.0169,63.3492 16.922,70.2915 33.4102,87.6475 46.861,92.4203 78.9695,93.2881 96.3254,86.7797 117.1525,69.4237 118.8881,64.2169 119.322,52.0678 115.8508,39.0508 110.2102,32.9763 93.722,19.0915 74.6305,10.8475 64.2169,8.678 54.6712,8.678 44.6915,13.0169 43.8237,14.3186" stroke="#00007f" stroke-width="2" /><polyline fill="none" points="69.8576,17.3559 54.6712,29.0712 42.0881,46.4271 39.0508,54.2373 37.3153,65.5186 36.8814,75.4983 38.1831,83.7424" stroke="#00d4ff" stroke-width="2" /><polyline fill="none" points="98.061,24.2983 88.0814,23.8644 83.3085,27.7695 62.0475,57.2746 52.0678,79.4034 52.9356,84.1763 55.9729,91.1186" stroke="#ffe500" stroke-width="2" /><polyline fill="none" points="60.3119,22.9966 61.1797,19.0915 64.2169,17.3559 73.7627,13.8847 76.3661,14.3186" stroke="#7f0000" stroke-width="2" /></svg>