<?xml version="1.0" encoding="utf-8" ?>
<svg baseProfile="tiny" height="128" version="1.2" viewBox="0,0,128,128" width="128" xmlns="http://www.w3.org/2000/svg" xmlns:ev="http://www.w3.org/2001/xml-events" xmlns:xlink="http://www.w3.org/1999/xlink"><defs /><polyline fill="none" points="65.9525,13.4508 56.8407,9.5458 45.9932,8.678 35.1458,13.0169 25.6,19.0915 17.3559,29.939 11.2814,44.6915 9.1119,54.2373 8.678,73.3288 10.4136,84.1763 13.8847,92.4203 19.5254,101.5322 25.6,108.0407 33.8441,113.2475 43.8237,117.1525 52.9356,119.322 67.2542,118.8881 78.5356,114.1153 93.722,101.0983 97.6271,92.8542 102.8339,71.5932 96.3254,52.5017 77.2339,20.8271 71.1593,16.0542 63.3492,13.8847" stroke="#00007f" stroke-width="2" /><polyline fill="none" points="25.1661,26.4678 26.9017,30.8068 30.8068,35.1458 38.1831,39.4847 50.7661,36.4475 52.0678,34.7119 51.2,9.5458" stroke="#0080ff" stroke-width="2" /><polyline fill="none" points="88.0814,42.9559 83.7424,42.522 78.9695,43.8237 68.5559,48.1627 66.3864,51.2 71.5932,59.878 75.0644,69.8576 92.4203,69.8576 96.3254,71.1593" stroke="#7cff79" stroke-width="2" /><polyline fill="none" points="45.9932,111.5119 42.0881,111.078 49.8983,99.7966 53.3695,89.3831 68.5559,89.3831 74.6305,95.0237 88.9492,102.4" stroke="#ff9400" stroke-width="2" /><polyline fill="none" points="12.1492,85.0441 14.7525,82.8746 18.2237,76.3661 27.3356,64.6508 23.4305,51.6339 10.8475,51.6339" stroke="#7f0000" stroke-width="2" /></svg>