<?xml version="1.0" encoding="utf-8" ?>
<svg baseProfile="tiny" height="128" version="1.2" viewBox="0,0,128,128" width="128" xmlns="http://www.w3.org/2000/svg" xmlns:ev="http://www.w3.org/2001/xml-events" xmlns:xlink="http://www.w3.org/1999/xlink"><defs /><polyline fill="none" points="51.2,9.9797 39.0508,9.9797 31.6746,12.1492 24.2983,16.4881 16.922,24.7322 9.9797,48.1627 8.678,81.139 12.5831,95.0237 19.5254,105.4373 37.3153,114.1153 52.0678,119.322 70.7254,119.322 86.3458,112.3797 95.8915,105.8712 105.4373,97.6271 113.2475,83.7424 114.9831,68.122 102.8339,44.6915 94.1559,32.1085 76.3661,25.1661 71.1593,20.8271 46.861,9.1119 42.0881,8.678" stroke="#00007f" stroke-width="2" /><polyline fill="none" points="16.0542,38.1831 18.2237,42.0881 26.9017,48.1627 33.8441,50.3322 52.0678,51.6339 108.0407,51.6339 115.4169,47.7288 117.5864,42.9559" stroke="#00d4ff" stroke-width="2" /><polyline fill="none" points="12.5831,93.722 24.7322,89.3831 36.0136,86.7797 49.4644,86.3458 77.6678,91.9864 98.4949,104.5695" stroke="#ffe500" stroke-width="2" /><polyline fill="none" points="45.1254,59.0102 43.3898,59.4441" stroke="#7f0000" stroke-width="2" /></svg>