<?xml version="1.0" encoding="utf-8" ?>
<svg baseProfile="tiny" height="128" version="1.2" viewBox="0,0,128,128" width="128" xmlns="http://www.w3.org/2000/svg" xmlns:ev="http://www.w3.org/2001/xml-events" xmlns:xlink="http://www.w3.org/1999/xlink"><defs /><polyline fill="none" points="69.4608,13.9795 40.628,13.9795 35.8225,14.4164 30.5802,18.3481 24.901,24.0273 14.4164,39.3174 9.6109,54.6075 8.7372,68.587 10.9215,76.0137 22.7167,88.6826 30.1433,94.7986 49.802,104.8464 62.0341,108.3413 74.2662,109.215 93.9249,108.3413 107.4676,95.2355 112.7099,87.372 117.0785,76.0137 119.2628,62.9078 119.2628,32.7645 111.3993,18.3481 102.2253,13.1058 86.4983,8.7372 73.8294,8.7372 63.7816,13.9795" stroke="#00007f" stroke-width="2" /><polyline fill="none" points="41.5017,14.4164 45.4334,41.9386 45.4334,65.9659 38.0068,85.6246" stroke="#7cff79" stroke-width="2" /><polyline fill="none" points="79.9454,10.0478 73.8294,32.3276 71.2082,49.802 71.2082,75.5768 75.5768,85.6246 85.6246,100.4778 101.7884,112.7099 112.7099,114.8942" stroke="#7f0000" stroke-width="2" /></svg>