<?xml version="1.0" encoding="utf-8" ?>
<svg baseProfile="tiny" height="128" version="1.2" viewBox="0,0,128,128" width="128" xmlns="http://www.w3.org/2000/svg" xmlns:ev="http://www.w3.org/2001/xml-events" xmlns:xlink="http://www.w3.org/1999/xlink"><defs /><polyline fill="none" points="87.0748,17.415 67.483,20.4626 44.8435,27.4286 30.0408,37.4422 18.7211,50.5034 13.0612,60.0816 8.7075,77.932 9.1429,93.6054 12.6259,105.7959 24.381,117.1156 33.0884,119.2925 39.1837,118.4218 53.9864,112.7619 62.6939,107.9728 69.6599,102.7483 75.7551,95.7823 92.7347,70.5306 98.3946,47.4558 98.3946,33.5238 97.0884,27.4286 90.9932,17.8503 78.8027,8.7075 71.4014,10.449" stroke="#00007f" stroke-width="2" /><polyline fill="none" points="30.4762,43.102 33.9592,50.5034 44.8435,63.5646 51.3741,75.3197 53.551,83.5918 66.1769,101.0068 72.2721,106.2313" stroke="#7cff79" stroke-width="2" /><polyline fill="none" points="104.9252,25.2517 94.0408,28.2993 85.7687,33.0884 66.1769,45.7143 54.8571,55.7279 26.9932,88.381 22.2041,101.0068 18.2857,107.5374" stroke="#7f0000" stroke-width="2" /></svg>