<?xml version="1.0" encoding="utf-8" ?>
<svg baseProfile="tiny" height="128" version="1.2" viewBox="0,0,128,128" width="128" xmlns="http://www.w3.org/2000/svg" xmlns:ev="http://www.w3.org/2001/xml-events" xmlns:xlink="http://www.w3.org/1999/xlink"><defs /><polyline fill="none" points="62.0341,13.9795 51.1126,13.9795 38.8805,17.4744 22.2799,23.1536 14.8532,28.8328 9.1741,37.57 8.7372,41.9386 10.0478,58.5392 13.1058,62.471 51.9863,96.5461 65.0922,101.7884 73.3925,102.6621 86.0614,102.2253 100.041,95.6724 116.2048,81.256 119.2628,72.9556 119.2628,48.0546 113.5836,35.8225 102.6621,20.5324 93.0512,12.6689 81.256,9.1741 70.7713,8.7372 62.0341,10.9215" stroke="#00007f" stroke-width="2" /><polyline fill="none" points="31.4539,16.1638 38.0068,19.2218 44.5597,27.959 50.6758,45.8703 48.9283,61.5973 41.5017,75.1399 33.2014,83.4403" stroke="#7cff79" stroke-width="2" /><polyline fill="none" points="90.8669,15.727 87.372,20.0956 85.6246,28.8328 83.0034,66.4027 87.372,80.8191 91.3038,84.314" stroke="#7f0000" stroke-width="2" /></svg>