<?xml version="1.0" encoding="utf-8" ?>
<svg baseProfile="tiny" height="128" version="1.2" viewBox="0,0,128,128" width="128" xmlns="http://www.w3.org/2000/svg" xmlns:ev="http://www.w3.org/2001/xml-events" xmlns:xlink="http://www.w3.org/1999/xlink"><defs /><polyline fill="none" points="84.1763,13.8847 68.9898,11.7153 52.9356,13.4508 41.2203,16.922 31.6746,21.6949 23.4305,29.0712 16.4881,39.4847 10.8475,54.2373 9.1119,63.7831 8.678,74.1966 10.8475,88.0814 20.8271,103.7017 29.0712,108.4746 44.6915,114.1153 66.8203,116.7186 78.5356,114.5492 89.8169,109.7763 96.7593,104.5695 108.9085,89.3831 114.9831,75.4983 118.8881,60.3119 119.322,49.0305 118.4542,44.2576 115.8508,38.1831 108.9085,29.939 101.0983,23.8644 93.2881,20.8271 66.3864,18.2237 49.0305,19.0915 45.9932,20.3932 46.861,21.261" stroke="#00007f" stroke-width="2" /><polyline fill="none" points="34.7119,114.5492 33.4102,110.6441 33.8441,51.2 36.4475,26.4678 42.0881,9.9797 42.9559,8.678 42.9559,11.2814" stroke="#004cff" stroke-width="2" /><polyline fill="none" points="67.2542,114.9831 65.0847,35.1458 65.9525,19.5254" stroke="#29ffcd" stroke-width="2" /><polyline fill="none" points="90.2508,104.5695 85.0441,90.6847 84.1763,81.5729 87.2136,43.8237 85.9119,16.4881 89.3831,10.8475 89.8169,12.1492" stroke="#cdff29" stroke-width="2" /><polyline fill="none" points="108.4746,103.7017 85.478,73.3288 76.8,65.0847 45.9932,39.4847 31.2407,30.3729 20.8271,27.7695" stroke="#ff6700" stroke-width="2" /><polyline fill="none" points="14.3186,101.0983 13.8847,98.061 19.9593,88.9492 46.4271,61.1797 62.9153,47.2949 72.461,41.2203 83.3085,35.5797 93.2881,32.9763" stroke="#7f0000" stroke-width="2" /></svg>