<?xml version="1.0" encoding="utf-8" ?>
<svg baseProfile="tiny" height="128" version="1.2" viewBox="0,0,128,128" width="128" xmlns="http://www.w3.org/2000/svg" xmlns:ev="http://www.w3.org/2001/xml-events" xmlns:xlink="http://www.w3.org/1999/xlink"><defs /><polyline fill="none" points="97.1932,8.678 59.878,15.6203 46.4271,19.9593 32.9763,26.0339 26.0339,30.8068 17.7898,38.6169 11.2814,50.3322 8.678,61.1797 8.678,81.5729 16.922,96.7593 23.4305,105.0034 36.4475,116.2847 45.5593,119.322 55.1051,119.322 63.3492,117.5864 75.9322,109.7763 85.478,101.9661 90.6847,92.8542 100.6644,48.1627 102.4,21.261 99.7966,12.1492 96.3254,9.9797 85.478,9.5458" stroke="#00007f" stroke-width="2" /><polyline fill="none" points="55.1051,15.1864 48.5966,34.278 46.861,46.4271 41.2203,58.5763 39.4847,72.0271 39.4847,89.3831 42.0881,97.6271 43.3898,106.739 50.3322,112.3797 52.9356,113.6814 54.6712,112.3797" stroke="#7cff79" stroke-width="2" /><polyline fill="none" points="62.4814,16.0542 59.878,16.922 59.0102,19.5254 56.8407,30.3729 52.0678,43.3898 52.9356,82.8746 55.539,98.061" stroke="#7f0000" stroke-width="2" /></svg>