<?xml version="1.0" encoding="utf-8" ?>
<svg baseProfile="tiny" height="128" version="1.2" viewBox="0,0,128,128" width="128" xmlns="http://www.w3.org/2000/svg" xmlns:ev="http://www.w3.org/2001/xml-events" xmlns:xlink="http://www.w3.org/1999/xlink"><defs /><polyline fill="none" points="52.9356,25.1661 81.5729,29.0712 96.7593,41.6542 113.6814,51.2 113.6814,71.5932 111.9458,75.0644 102.8339,82.4407 98.061,92.8542 93.2881,98.9288 81.139,103.7017 60.3119,107.1729 38.1831,107.1729 31.2407,105.4373 20.8271,95.4576 9.5458,67.2542 8.678,39.9186 9.5458,35.1458 12.1492,31.6746 16.922,29.939 21.6949,25.1661 35.5797,19.5254 65.0847,9.5458 69.4237,8.678 68.5559,9.5458" stroke="#00007f" stroke-width="2" /><polyline fill="none" points="60.3119,34.7119 52.9356,52.9356 46.4271,62.0475 32.5424,98.061 20.3932,117.5864 16.922,119.322 16.0542,111.9458" stroke="#7cff79" stroke-width="2" /><polyline fill="none" points="26.0339,29.0712 26.0339,29.0712" stroke="#7f0000" stroke-width="2" /></svg>