<?xml version="1.0" encoding="utf-8" ?>
<svg baseProfile="tiny" height="128" version="1.2" viewBox="0,0,128,128" width="128" xmlns="http://www.w3.org/2000/svg" xmlns:ev="http://www.w3.org/2001/xml-events" xmlns:xlink="http://www.w3.org/1999/xlink"><defs /><polyline fill="none" points="66.3864,21.261 56.8407,15.1864 49.4644,12.5831 41.2203,12.1492 33.4102,13.4508 26.0339,16.4881 19.5254,20.8271 13.4508,29.5051 9.5458,40.7864 8.678,48.1627 9.9797,62.4814 14.3186,77.2339 20.8271,89.8169 32.1085,100.2305 45.9932,108.0407 53.8034,110.2102 68.5559,109.7763 76.8,108.0407 90.2508,101.0983 102.4,91.9864 111.9458,79.4034 118.0203,65.5186 119.322,53.3695 117.5864,41.2203 112.8136,31.2407 105.0034,22.5627 92.4203,14.3186 78.9695,9.9797 64.6508,8.678 51.2,9.9797 40.3525,12.5831 26.9017,18.2237" stroke="#00007f" stroke-width="2" /><polyline fill="none" points="20.8271,19.5254 36.4475,38.1831 42.522,50.7661 46.861,64.2169 49.0305,75.0644 49.0305,89.3831 42.522,113.2475" stroke="#0028ff" stroke-width="2" /><polyline fill="none" points="91.5525,9.1119 85.9119,15.1864 83.3085,25.1661 82.4407,38.1831 82.8746,68.122 87.6475,82.8746 101.0983,102.8339" stroke="#00d4ff" stroke-width="2" /><polyline fill="none" points="32.1085,38.1831 37.7492,29.5051 40.7864,26.0339" stroke="#7cff79" stroke-width="2" /><polyline fill="none" points="38.6169,55.1051 53.3695,48.1627" stroke="#ffe500" stroke-width="2" /><polyline fill="none" points="47.7288,78.5356 58.5763,84.1763" stroke="#ff4600" stroke-width="2" /><polyline fill="none" points="47.2949,99.3627 50.7661,101.9661" stroke="#7f0000" stroke-width="2" /></svg>