<?xml version="1.0" encoding="utf-8" ?>
<svg baseProfile="tiny" height="128" version="1.2" viewBox="0,0,128,128" width="128" xmlns="http://www.w3.org/2000/svg" xmlns:ev="http://www.w3.org/2001/xml-events" xmlns:xlink="http://www.w3.org/1999/xlink"><defs /><polyline fill="none" points="85.0441,12.1492 67.2542,12.1492 60.3119,14.7525 48.5966,16.0542 32.5424,20.3932 17.3559,28.6373 11.2814,33.8441 8.678,42.0881 8.678,61.6136 10.4136,67.6881 10.4136,79.4034 15.1864,100.2305 19.5254,106.3051 26.4678,110.2102 49.4644,114.9831 62.0475,115.8508 79.4034,115.8508 93.722,106.739 115.8508,69.4237 119.322,55.539 119.322,28.6373 117.1525,22.1288 109.3424,16.922 88.9492,12.5831 82.0068,8.678" stroke="#00007f" stroke-width="2" /><polyline fill="none" points="76.8,18.2237 72.461,42.0881 71.5932,85.9119 83.3085,101.0983 84.1763,97.1932" stroke="#7cff79" stroke-width="2" /><polyline fill="none" points="36.4475,21.261 36.0136,36.4475 39.9186,58.1424 39.9186,95.4576 34.7119,104.1356 29.939,105.8712 26.4678,108.9085" stroke="#7f0000" stroke-width="2" /></svg>