<?xml version="1.0" encoding="utf-8" ?>
<svg baseProfile="tiny" height="128" version="1.2" viewBox="0,0,128,128" width="128" xmlns="http://www.w3.org/2000/svg" xmlns:ev="http://www.w3.org/2001/xml-events" xmlns:xlink="http://www.w3.org/1999/xlink"><defs /><polyline fill="none" points="88.9492,9.1119 63.7831,8.678 42.0881,13.0169 26.0339,19.0915 13.4508,34.7119 8.678,49.0305 10.4136,61.1797 16.4881,70.2915 22.1288,74.1966 41.2203,82.8746 49.0305,85.0441 74.1966,85.0441 87.2136,81.5729 96.3254,77.6678 110.6441,67.6881 118.4542,55.1051 119.322,42.522 105.8712,19.0915 95.4576,13.0169 84.6102,10.8475" stroke="#00007f" stroke-width="2" /><polyline fill="none" points="45.1254,16.0542 44.2576,35.1458 39.0508,63.3492 35.1458,68.9898 21.6949,74.1966" stroke="#0080ff" stroke-width="2" /><polyline fill="none" points="95.8915,12.5831 93.722,20.3932 79.8373,47.7288 74.6305,74.1966 75.0644,80.7051 78.1017,82.4407" stroke="#7cff79" stroke-width="2" /><polyline fill="none" points="82.8746,22.5627 91.1186,23.8644" stroke="#ff9400" stroke-width="2" /><polyline fill="none" points="91.1186,23.8644 96.3254,24.7322" stroke="#7f0000" stroke-width="2" /></svg>