<?xml version="1.0" encoding="utf-8" ?>
<svg baseProfile="tiny" height="128" version="1.2" viewBox="0,0,128,128" width="128" xmlns="http://www.w3.org/2000/svg" xmlns:ev="http://www.w3.org/2001/xml-events" xmlns:xlink="http://www.w3.org/1999/xlink"><defs /><polyline fill="none" points="105.4373,11.2814 98.4949,12.5831 75.4983,9.5458 53.3695,9.5458 49.4644,10.4136 33.4102,19.9593 18.2237,35.5797 9.9797,49.0305 8.678,57.7085 9.1119,69.8576 14.7525,76.3661 36.8814,91.1186 47.2949,95.8915 60.3119,97.1932 78.5356,96.3254 88.5153,92.4203 98.061,76.3661 110.2102,61.1797 116.7186,48.1627 118.4542,36.0136 119.322,17.7898 117.1525,13.8847 110.6441,8.678" stroke="#00007f" stroke-width="2" /><polyline fill="none" points="84.1763,12.5831 71.5932,44.2576 61.6136,62.4814 56.4068,77.6678 54.6712,80.2712 54.6712,79.4034" stroke="#004cff" stroke-width="2" /><polyline fill="none" points="62.9153,29.0712 79.4034,31.6746 84.1763,33.8441 85.9119,36.0136" stroke="#29ffcd" stroke-width="2" /><polyline fill="none" points="56.4068,49.4644 70.7254,52.5017 74.1966,56.4068" stroke="#cdff29" stroke-width="2" /><polyline fill="none" points="43.8237,66.3864 65.0847,78.5356" stroke="#ff6700" stroke-width="2" /><polyline fill="none" points="57.2746,80.7051 47.2949,95.0237" stroke="#7f0000" stroke-width="2" /></svg>