<?xml version="1.0" encoding="utf-8" ?>
<svg baseProfile="tiny" height="128" version="1.2" viewBox="0,0,128,128" width="128" xmlns="http://www.w3.org/2000/svg" xmlns:ev="http://www.w3.org/2001/xml-events" xmlns:xlink="http://www.w3.org/1999/xlink"><defs /><polyline fill="none" points="69.4237,10.4136 53.8034,9.9797 37.3153,16.0542 27.7695,21.6949 19.5254,28.6373 11.2814,45.1254 8.678,56.8407 8.678,68.122 13.8847,82.0068 17.7898,86.7797 26.0339,91.9864 40.3525,97.6271 69.4237,104.5695 97.1932,104.5695 108.0407,98.061 113.6814,90.6847 117.5864,81.139 119.322,59.4441 114.5492,45.1254 111.078,40.7864 86.3458,13.8847 72.0271,9.5458 65.0847,9.1119" stroke="#00007f" stroke-width="2" /><polyline fill="none" points="72.0271,8.678 85.9119,56.8407 95.4576,82.0068 102.8339,96.3254" stroke="#004cff" stroke-width="2" /><polyline fill="none" points="64.2169,29.939 85.478,22.1288" stroke="#29ffcd" stroke-width="2" /><polyline fill="none" points="70.2915,53.3695 79.8373,48.1627 92.4203,45.5593" stroke="#cdff29" stroke-width="2" /><polyline fill="none" points="83.3085,69.8576 87.6475,70.2915 101.0983,64.6508 107.1729,63.7831" stroke="#ff6700" stroke-width="2" /><polyline fill="none" points="95.4576,90.6847 98.061,91.1186 105.0034,88.9492 109.7763,84.6102" stroke="#7f0000" stroke-width="2" /></svg>