<?xml version="1.0" encoding="utf-8" ?>
<svg baseProfile="tiny" height="128" version="1.2" viewBox="0,0,128,128" width="128" xmlns="http://www.w3.org/2000/svg" xmlns:ev="http://www.w3.org/2001/xml-events" xmlns:xlink="http://www.w3.org/1999/xlink"><defs /><polyline fill="none" points="71.1593,9.5458 65.5186,8.678 55.9729,11.2814 38.1831,21.6949 19.9593,37.3153 10.8475,52.5017 8.678,62.9153 14.7525,81.5729 24.7322,97.1932 38.6169,110.6441 44.2576,114.1153 55.539,118.4542 66.3864,119.322 75.9322,116.7186 89.3831,106.3051 96.7593,96.7593 102.4,85.9119 105.8712,73.7627 107.1729,61.6136 106.739,49.8983 104.1356,39.4847 99.7966,30.3729 94.1559,22.9966 87.6475,17.7898 77.6678,14.7525" stroke="#00007f" stroke-width="2" /><polyline fill="none" points="60.3119,11.7153 64.2169,61.6136 58.1424,100.2305 53.3695,116.7186" stroke="#0080ff" stroke-width="2" /><polyline fill="none" points="86.7797,14.3186 71.5932,76.3661 68.9898,99.3627 73.7627,116.7186" stroke="#7cff79" stroke-width="2" /><polyline fill="none" points="13.4508,58.5763 41.2203,62.9153 74.1966,70.2915" stroke="#ff9400" stroke-width="2" /><polyline fill="none" points="59.0102,67.2542 92.4203,68.5559" stroke="#7f0000" stroke-width="2" /></svg>