<?xml version="1.0" encoding="utf-8" ?>
<svg baseProfile="tiny" height="128" version="1.2" viewBox="0,0,128,128" width="128" xmlns="http://www.w3.org/2000/svg" xmlns:ev="http://www.w3.org/2001/xml-events" xmlns:xlink="http://www.w3.org/1999/xlink"><defs /><polyline fill="none" points="70.0952,52.2449 58.7755,64.4354 60.517,65.3061 60.517,67.9184 55.7279,68.3537 51.8095,63.5646 51.3741,59.6463 53.1156,59.2109 54.8571,60.0816 70.0952,45.2789 72.7075,45.2789 73.5782,46.585 69.2245,52.2449" stroke="#00007f" stroke-width="2" /><polyline fill="none" points="65.7415,48.7619 69.2245,53.9864" stroke="#0028ff" stroke-width="2" /><polyline fill="none" points="60.517,52.2449 62.6939,53.9864 64.4354,57.4694" stroke="#00d4ff" stroke-width="2" /><polyline fill="none" points="58.7755,55.7279 60.9524,60.9524" stroke="#7cff79" stroke-width="2" /><polyline fill="none" points="84.0272,43.102 86.6395,43.102 90.5578,47.8912 90.9932,50.068 87.0748,51.8095 84.0272,49.1973 83.1565,45.2789 84.4626,43.5374 87.5102,44.4082" stroke="#ffe500" stroke-width="2" /><polyline fill="none" points="30.0408,70.0952 40.9252,58.7755 46.585,56.1633 51.8095,55.7279 55.2925,58.3401 55.7279,63.5646 50.9388,67.483 46.585,67.9184 49.1973,65.7415 54.8571,65.7415 58.7755,68.7891 58.7755,71.8367 22.6395,85.7687 13.0612,87.5102" stroke="#ff4600" stroke-width="2" /><polyline fill="none" points="24.381,28.2993 24.381,26.9932 20.0272,26.5578 16.1088,28.7347 14.8027,36.1361 16.9796,40.0544 27.4286,43.9728 30.0408,51.3741 30.4762,57.4694 28.7347,60.9524 25.2517,62.6939 20.0272,63.1293 13.4966,60.517 9.5782,56.5986 8.7075,51.3741 10.8844,46.585 19.1565,43.5374 35.2653,45.2789 40.0544,42.2313 43.5374,36.5714 44.4082,27.8639 42.2313,24.381 38.7483,21.3333 33.0884,20.0272 28.7347,24.381 29.6054,35.2653 34.3946,41.3605 42.6667,41.3605 45.2789,36.5714 46.1497,30.4762 44.4082,23.9456 43.102,22.2041 41.3605,22.2041 42.2313,26.1224 52.2449,37.8776 53.9864,38.7483 53.9864,34.8299 50.9388,23.9456 60.0816,37.8776 72.2721,18.7211 70.5306,38.7483 72.2721,43.5374 74.8844,44.8435 80.5442,41.7959 85.3333,34.3946 86.2041,20.898 82.7211,16.9796 76.6259,18.7211 74.8844,20.898 71.8367,27.8639 71.8367,31.7823 77.0612,35.2653 84.898,36.5714 88.8163,28.2993 88.8163,23.0748 87.5102,17.415 84.0272,16.5442 84.0272,29.1701 85.7687,34.3946 89.2517,16.1088 91.4286,12.6259 94.4762,12.1905 99.7007,16.9796 103.1837,25.2517 105.3605,40.0544 104.9252,48.7619 106.2313,42.6667 118.8571,24.8163 119.2925,19.1565 114.5034,17.415 111.4558,16.9796 102.3129,24.381 101.4422,28.2993 104.4898,40.9252 107.102,44.8435 110.1497,47.8912 116.6803,47.4558 117.9864,40.4898 114.9388,23.0748 112.3265,19.5918 109.7143,17.8503 103.1837,21.7687 102.7483,36.5714 108.8435,42.6667 115.3741,8.7075" stroke="#7f0000" stroke-width="2" /></svg>