<?xml version="1.0" encoding="utf-8" ?>
<svg baseProfile="tiny" height="128" version="1.2" viewBox="0,0,128,128" width="128" xmlns="http://www.w3.org/2000/svg" xmlns:ev="http://www.w3.org/2001/xml-events" xmlns:xlink="http://www.w3.org/1999/xlink"><defs /><polyline fill="none" points="22.1288,101.9661 13.0169,105.0034 9.9797,110.6441 8.678,114.1153 9.1119,118.0203 15.6203,118.4542 21.6949,116.2847 25.6,112.8136 27.7695,108.4746 29.5051,101.0983" stroke="#00007f" stroke-width="2" /><polyline fill="none" points="22.5627,101.9661 23.8644,92.4203 36.8814,50.3322 41.6542,27.7695 49.0305,16.4881 58.5763,8.678 59.4441,22.5627 52.0678,63.7831 35.5797,94.1559 33.8441,94.5898" stroke="#0000ff" stroke-width="2" /><polyline fill="none" points="38.1831,50.7661 44.2576,50.7661" stroke="#0080ff" stroke-width="2" /><polyline fill="none" points="32.1085,56.8407 49.4644,55.539 51.6339,54.2373" stroke="#15ffe1" stroke-width="2" /><polyline fill="none" points="68.9898,16.0542 67.6881,24.7322 70.2915,30.3729 75.4983,32.9763 82.4407,34.278 89.3831,33.8441 94.5898,29.939 97.1932,24.2983 96.7593,19.0915 90.6847,13.4508 79.4034,10.8475 71.5932,12.5831 69.4237,16.922" stroke="#7cff79" stroke-width="2" /><polyline fill="none" points="26.4678,105.4373 32.9763,91.9864" stroke="#e4ff12" stroke-width="2" /><polyline fill="none" points="35.1458,49.4644 52.0678,48.1627" stroke="#ff9400" stroke-width="2" /><polyline fill="none" points="42.0881,53.8034 47.7288,51.6339 52.9356,52.5017" stroke="#ff1d00" stroke-width="2" /><polyline fill="none" points="99.7966,119.322 100.6644,108.0407 105.8712,82.0068 114.1153,52.5017 119.322,29.0712" stroke="#7f0000" stroke-width="2" /></svg>