<?xml version="1.0" encoding="utf-8" ?>
<svg baseProfile="tiny" height="128" version="1.2" viewBox="0,0,128,128" width="128" xmlns="http://www.w3.org/2000/svg" xmlns:ev="http://www.w3.org/2001/xml-events" xmlns:xlink="http://www.w3.org/1999/xlink"><defs /><polyline fill="none" points="101.5322,11.7153 84.1763,9.5458 55.9729,10.8475 42.9559,13.4508 26.0339,22.5627 20.3932,29.0712 12.5831,45.9932 8.678,63.3492 9.9797,70.2915 33.4102,81.139 50.3322,85.0441 81.139,84.1763 92.4203,82.4407 104.1356,77.2339 112.3797,70.2915 119.322,48.1627 118.4542,32.5424 108.0407,17.3559" stroke="#00007f" stroke-width="2" /><polyline fill="none" points="99.7966,10.4136 104.1356,13.0169 108.0407,18.6576" stroke="#0080ff" stroke-width="2" /><polyline fill="none" points="92.8542,9.5458 77.6678,21.261 64.2169,26.0339 58.5763,38.6169 39.4847,63.3492 25.1661,68.122 16.4881,74.1966 22.1288,71.5932" stroke="#7cff79" stroke-width="2" /><polyline fill="none" points="94.5898,8.678 88.0814,10.4136 75.9322,25.6 68.9898,36.8814 65.5186,47.2949 65.5186,67.6881 69.4237,86.7797" stroke="#ff9400" stroke-width="2" /><polyline fill="none" points="46.861,10.4136 46.861,27.7695 44.2576,40.7864 26.9017,81.139" stroke="#7f0000" stroke-width="2" /></svg>