<?xml version="1.0" encoding="utf-8" ?>
<svg baseProfile="tiny" height="128" version="1.2" viewBox="0,0,128,128" width="128" xmlns="http://www.w3.org/2000/svg" xmlns:ev="http://www.w3.org/2001/xml-events" xmlns:xlink="http://www.w3.org/1999/xlink"><defs /><polyline fill="none" points="28.2034,8.678 23.4305,12.5831 17.3559,20.8271 10.8475,39.9186 8.678,62.0475 9.9797,78.9695 13.8847,94.1559 24.2983,108.0407 41.2203,117.1525 57.7085,119.322 74.1966,118.0203 84.6102,114.5492 96.7593,108.4746 105.0034,101.5322 111.5119,93.722 114.9831,88.0814 118.0203,76.8 117.5864,66.3864 113.6814,55.1051 107.6068,43.8237 98.9288,32.9763 89.3831,24.2983 75.0644,16.922 45.9932,10.4136 22.1288,10.4136" stroke="#00007f" stroke-width="2" /><polyline fill="none" points="14.3186,19.5254 44.6915,44.2576 51.2,53.8034 58.1424,67.6881 60.7458,78.9695 63.7831,97.1932 62.0475,112.3797" stroke="#7cff79" stroke-width="2" /><polyline fill="none" points="82.8746,27.3356 80.7051,24.2983 78.9695,24.7322 78.5356,42.9559 82.8746,75.9322 91.9864,96.7593 103.7017,112.3797" stroke="#7f0000" stroke-width="2" /></svg>