<?xml version="1.0" encoding="utf-8" ?>
<svg baseProfile="tiny" height="128" version="1.2" viewBox="0,0,128,128" width="128" xmlns="http://www.w3.org/2000/svg" xmlns:ev="http://www.w3.org/2001/xml-events" xmlns:xlink="http://www.w3.org/1999/xlink"><defs /><polyline fill="none" points="82.0068,17.7898 70.2915,10.4136 63.3492,8.678 48.5966,10.4136 35.5797,16.922 24.7322,26.4678 13.4508,43.3898 9.9797,52.5017 8.678,68.122 9.9797,78.9695 13.8847,89.3831 20.8271,98.9288 29.0712,106.3051 40.7864,112.3797 52.9356,114.9831 74.1966,114.5492 85.9119,112.8136" stroke="#00007f" stroke-width="2" /><polyline fill="none" points="113.6814,84.6102 113.6814,84.6102" stroke="#0010ff" stroke-width="2" /><polyline fill="none" points="116.7186,62.4814 115.4169,56.4068 107.6068,41.2203 89.3831,20.3932 82.0068,14.3186 76.8,12.5831" stroke="#00a4ff" stroke-width="2" /><polyline fill="none" points="83.3085,114.1153 85.0441,115.4169 89.8169,112.3797 106.3051,91.9864 109.3424,83.7424 114.9831,74.1966 119.322,62.0475 119.322,58.5763" stroke="#3fffb7" stroke-width="2" /><polyline fill="none" points="34.7119,20.8271 35.1458,26.0339 41.2203,33.8441 49.4644,50.3322 57.2746,72.0271 56.8407,93.722 51.2,113.6814" stroke="#b7ff3f" stroke-width="2" /><polyline fill="none" points="85.478,19.5254 76.3661,38.1831 73.3288,57.2746 73.3288,71.1593 76.8,92.8542 94.1559,115.8508" stroke="#ffb900" stroke-width="2" /><polyline fill="none" points="33.8441,48.1627 42.0881,37.3153 50.7661,30.3729" stroke="#ff3000" stroke-width="2" /><polyline fill="none" points="48.5966,81.5729 58.1424,73.7627 62.9153,71.5932" stroke="#7f0000" stroke-width="2" /></svg>