<?xml version="1.0" encoding="utf-8" ?>
<svg baseProfile="tiny" height="128" version="1.2" viewBox="0,0,128,128" width="128" xmlns="http://www.w3.org/2000/svg" xmlns:ev="http://www.w3.org/2001/xml-events" xmlns:xlink="http://www.w3.org/1999/xlink"><defs /><polyline fill="none" points="66.3864,20.3932 60.3119,22.5627 26.0339,46.861 16.0542,55.539 9.9797,63.3492 8.678,71.5932 8.678,98.9288 10.4136,106.3051 14.7525,108.9085 32.1085,110.6441 63.3492,110.6441 83.3085,103.2678 97.1932,94.5898 104.1356,87.6475 111.078,76.3661 117.1525,57.7085 119.322,45.1254 118.0203,29.5051 100.2305,13.0169 90.2508,8.678 82.0068,8.678 71.5932,18.6576 66.8203,24.7322" stroke="#00007f" stroke-width="2" /><polyline fill="none" points="41.2203,39.0508 43.3898,45.9932" stroke="#0000e8" stroke-width="2" /><polyline fill="none" points="45.9932,50.3322 49.0305,59.878" stroke="#0038ff" stroke-width="2" /><polyline fill="none" points="52.5017,66.8203 52.5017,72.8949" stroke="#0094ff" stroke-width="2" /><polyline fill="none" points="54.2373,78.5356 54.2373,87.2136" stroke="#0cf4ea" stroke-width="2" /><polyline fill="none" points="55.539,96.7593 55.1051,101.0983 49.8983,107.6068" stroke="#56ffa0" stroke-width="2" /><polyline fill="none" points="79.8373,9.5458 79.8373,20.3932 82.8746,25.1661" stroke="#a0ff56" stroke-width="2" /><polyline fill="none" points="86.3458,31.6746 93.2881,40.3525" stroke="#eaff0c" stroke-width="2" /><polyline fill="none" points="96.7593,48.5966 102.4,59.878" stroke="#ffaa00" stroke-width="2" /><polyline fill="none" points="104.5695,71.1593 108.9085,77.6678" stroke="#ff5500" stroke-width="2" /><polyline fill="none" points="53.8034,26.9017 59.878,29.5051 63.3492,32.5424 65.0847,45.5593 72.8949,55.9729 73.7627,64.6508 70.7254,74.1966 93.722,75.4983 90.6847,77.6678" stroke="#e80000" stroke-width="2" /><polyline fill="none" points="90.6847,77.6678 90.6847,77.6678" stroke="#7f0000" stroke-width="2" /></svg>