<?xml version="1.0" encoding="utf-8" ?>
<svg baseProfile="tiny" height="128" version="1.2" viewBox="0,0,128,128" width="128" xmlns="http://www.w3.org/2000/svg" xmlns:ev="http://www.w3.org/2001/xml-events" xmlns:xlink="http://www.w3.org/1999/xlink"><defs /><polyline fill="none" points="46.4271,9.9797 28.6373,8.678 12.5831,10.8475 8.678,51.2 42.9559,51.2 59.4441,48.5966 64.2169,27.7695 63.3492,9.1119 47.2949,10.8475" stroke="#00007f" stroke-width="2" /><polyline fill="none" points="41.2203,32.1085 37.3153,31.6746 22.5627,35.1458 21.6949,45.5593 22.5627,59.878 26.0339,67.6881 28.2034,68.5559 40.3525,64.6508 44.6915,57.2746 47.2949,46.4271 46.861,36.4475 43.8237,30.3729" stroke="#0000ff" stroke-width="2" /><polyline fill="none" points="43.3898,30.8068 32.5424,46.4271 22.5627,64.6508" stroke="#0080ff" stroke-width="2" /><polyline fill="none" points="24.7322,33.8441 42.0881,49.0305 45.9932,57.2746 45.5593,62.0475" stroke="#15ffe1" stroke-width="2" /><polyline fill="none" points="25.1661,102.8339 26.4678,100.2305 32.1085,97.6271 44.6915,97.1932 52.0678,100.6644 53.8034,107.1729 52.5017,111.5119 49.0305,115.4169 42.0881,118.8881 37.3153,119.322 29.5051,114.9831 25.1661,109.7763 23.4305,103.2678 25.1661,99.3627" stroke="#7cff79" stroke-width="2" /><polyline fill="none" points="48.5966,97.1932 31.2407,116.2847" stroke="#e4ff12" stroke-width="2" /><polyline fill="none" points="25.1661,98.9288 30.3729,105.0034 51.2,114.5492" stroke="#ff9400" stroke-width="2" /><polyline fill="none" points="35.5797,96.7593 42.522,116.2847" stroke="#ff1d00" stroke-width="2" /><polyline fill="none" points="55.1051,104.5695 28.2034,111.078" stroke="#7f0000" stroke-width="2" /></svg>