<?xml version="1.0" encoding="utf-8" ?>
<svg baseProfile="tiny" height="128" version="1.2" viewBox="0,0,128,128" width="128" xmlns="http://www.w3.org/2000/svg" xmlns:ev="http://www.w3.org/2001/xml-events" xmlns:xlink="http://www.w3.org/1999/xlink"><defs /><polyline fill="none" points="58.5763,18.2237 43.3898,18.2237 26.0339,27.3356 18.6576,36.4475 11.2814,57.2746 10.8475,79.8373 16.4881,97.1932 25.1661,107.6068 42.0881,115.8508 68.122,116.7186 76.8,111.9458 83.7424,97.6271 88.5153,80.2712 90.6847,64.2169 89.8169,36.4475 84.6102,23.8644 77.6678,13.8847 72.0271,9.5458 56.8407,8.678 53.8034,9.1119 48.1627,14.3186" stroke="#00007f" stroke-width="2" /><polyline fill="none" points="33.8441,18.6576 35.1458,63.7831 32.5424,80.2712 23.8644,99.7966 13.4508,109.3424 8.678,111.078 12.5831,100.2305 15.1864,96.7593 26.4678,87.6475" stroke="#7cff79" stroke-width="2" /><polyline fill="none" points="80.7051,20.3932 80.2712,23.8644 70.2915,41.2203 63.3492,59.0102 61.1797,70.2915 62.0475,97.6271 67.6881,114.9831 72.0271,119.322" stroke="#7f0000" stroke-width="2" /></svg>