<?xml version="1.0" encoding="utf-8" ?>
<svg baseProfile="tiny" height="128" version="1.2" viewBox="0,0,128,128" width="128" xmlns="http://www.w3.org/2000/svg" xmlns:ev="http://www.w3.org/2001/xml-events" xmlns:xlink="http://www.w3.org/1999/xlink"><defs /><polyline fill="none" points="62.0475,20.8271 39.9186,21.261 22.9966,38.1831 9.9797,55.9729 8.678,65.9525 8.678,87.6475 13.4508,112.3797 15.6203,116.7186 21.261,119.322 26.4678,118.4542 68.9898,95.4576 85.9119,81.5729 95.8915,67.6881 100.2305,58.1424 104.1356,41.6542 102.8339,37.3153 69.8576,18.2237 46.4271,8.678" stroke="#00007f" stroke-width="2" /><polyline fill="none" points="39.9186,26.9017 49.0305,48.5966 58.5763,83.7424 63.3492,91.1186" stroke="#0028ff" stroke-width="2" /><polyline fill="none" points="35.1458,38.6169 43.3898,39.9186 52.9356,47.7288" stroke="#00d4ff" stroke-width="2" /><polyline fill="none" points="50.3322,33.8441 45.5593,35.5797 39.4847,49.4644" stroke="#7cff79" stroke-width="2" /><polyline fill="none" points="39.4847,49.4644 47.7288,50.3322 59.878,57.2746" stroke="#ffe500" stroke-width="2" /><polyline fill="none" points="54.2373,46.861 53.8034,55.9729 49.0305,62.4814 45.5593,63.3492" stroke="#ff4600" stroke-width="2" /><polyline fill="none" points="44.6915,62.0475 51.6339,63.3492 62.4814,70.7254" stroke="#7f0000" stroke-width="2" /></svg>