<?xml version="1.0" encoding="utf-8" ?>
<svg baseProfile="tiny" height="128" version="1.2" viewBox="0,0,128,128" width="128" xmlns="http://www.w3.org/2000/svg" xmlns:ev="http://www.w3.org/2001/xml-events" xmlns:xlink="http://www.w3.org/1999/xlink"><defs /><polyline fill="none" points="41.6542,11.7153 32.9763,14.3186 20.8271,22.5627 12.1492,35.5797 9.5458,44.6915 8.678,54.2373 10.4136,63.3492 13.4508,69.8576 16.4881,75.4983 22.1288,81.139 28.2034,85.0441 39.9186,89.8169 58.5763,91.5525 82.8746,88.9492 95.4576,84.1763 105.8712,78.1017 116.2847,65.9525 118.8881,58.1424 119.322,51.6339 117.1525,43.3898 110.6441,31.6746 106.3051,26.4678 93.722,16.4881 75.0644,9.5458 54.2373,8.678 44.6915,9.9797 32.1085,13.8847" stroke="#00007f" stroke-width="2" /><polyline fill="none" points="82.8746,15.1864 74.6305,26.4678 71.1593,45.9932 75.0644,67.6881 80.2712,77.2339 85.9119,83.7424" stroke="#0000fe" stroke-width="2" /><polyline fill="none" points="28.6373,19.9593 33.8441,23.8644 38.6169,34.278 42.0881,60.3119 40.7864,81.139 36.4475,88.5153 31.2407,91.9864" stroke="#0060ff" stroke-width="2" /><polyline fill="none" points="65.5186,26.0339 74.1966,22.9966 85.9119,22.5627" stroke="#00d4ff" stroke-width="2" /><polyline fill="none" points="65.9525,47.7288 77.6678,42.9559" stroke="#4cffaa" stroke-width="2" /><polyline fill="none" points="66.8203,66.8203 85.478,63.7831" stroke="#aaff4c" stroke-width="2" /><polyline fill="none" points="78.9695,82.8746 96.3254,76.3661" stroke="#ffe500" stroke-width="2" /><polyline fill="none" points="23.8644,27.3356 42.0881,27.3356" stroke="#ff7a00" stroke-width="2" /><polyline fill="none" points="32.9763,59.878 48.5966,59.878" stroke="#fe1200" stroke-width="2" /><polyline fill="none" points="26.9017,86.7797 41.2203,86.3458" stroke="#7f0000" stroke-width="2" /></svg>