<?xml version="1.0" encoding="utf-8" ?>
<svg baseProfile="tiny" height="128" version="1.2" viewBox="0,0,128,128" width="128" xmlns="http://www.w3.org/2000/svg" xmlns:ev="http://www.w3.org/2001/xml-events" xmlns:xlink="http://www.w3.org/1999/xlink"><defs /><polyline fill="none" points="36.2594,110.5256 29.7065,110.9625 23.5904,107.4676 17.9113,101.7884 10.9215,86.0614 8.7372,73.3925 9.1741,48.0546 16.1638,30.5802 23.5904,21.843 33.6382,15.727 49.3652,10.0478 79.9454,8.7372 86.0614,10.4846 96.1092,16.6007 107.0307,27.959 113.1468,37.1331 119.2628,50.6758 118.8259,69.8976 108.7782,89.1195 100.9147,97.8567 91.3038,104.4096 81.256,109.6519 70.3345,113.1468 58.1024,114.4573 47.1809,114.4573 37.1331,108.7782 28.8328,98.7304 24.4642,90.8669" stroke="#00007f" stroke-width="2" /><polyline fill="none" points="29.2696,16.6007 36.2594,29.7065 41.5017,44.1229 44.5597,57.2287 46.3072,89.1195 43.2491,116.6416" stroke="#0080ff" stroke-width="2" /><polyline fill="none" points="82.5666,9.6109 80.8191,10.9215 76.4505,32.7645 74.7031,52.4232 81.6928,93.9249 86.4983,107.0307" stroke="#7cff79" stroke-width="2" /><polyline fill="none" points="27.0853,32.7645 51.9863,30.1433" stroke="#ff9400" stroke-width="2" /><polyline fill="none" points="28.3959,67.2765 34.0751,64.2184 44.5597,62.0341 50.2389,62.0341 56.3549,65.529" stroke="#7f0000" stroke-width="2" /></svg>