<?xml version="1.0" encoding="utf-8" ?>
<svg baseProfile="tiny" height="128" version="1.2" viewBox="0,0,128,128" width="128" xmlns="http://www.w3.org/2000/svg" xmlns:ev="http://www.w3.org/2001/xml-events" xmlns:xlink="http://www.w3.org/1999/xlink"><defs /><polyline fill="none" points="14.3186,46.861 13.0169,42.0881 14.3186,34.278 23.4305,20.8271 31.6746,14.7525 39.9186,10.4136 49.4644,8.678 59.4441,8.678 68.9898,11.2814 88.0814,22.9966 95.4576,29.5051 101.0983,37.3153 109.3424,57.7085 111.5119,65.9525 111.9458,81.5729 111.078,88.0814 104.5695,98.4949 100.6644,101.9661 79.8373,111.9458 62.0475,114.9831 45.1254,114.9831 36.0136,114.1153 29.0712,110.6441 22.5627,107.1729 17.3559,101.9661 9.9797,85.9119 8.678,61.1797 15.1864,30.3729" stroke="#00007f" stroke-width="2" /><polyline fill="none" points="26.9017,15.6203 36.0136,32.1085 38.6169,41.2203 44.6915,76.3661 45.5593,92.8542 45.5593,106.3051 42.9559,114.1153 38.1831,117.5864 32.5424,119.322" stroke="#0010ff" stroke-width="2" /><polyline fill="none" points="80.2712,13.0169 76.8,19.0915 73.3288,32.1085 72.0271,51.2 72.461,75.9322 76.8,89.3831 82.8746,98.9288 88.5153,103.2678 95.4576,105.4373 101.0983,105.4373 101.9661,103.2678" stroke="#00a4ff" stroke-width="2" /><polyline fill="none" points="64.6508,25.6 68.5559,31.2407 73.7627,34.278 87.6475,35.1458" stroke="#3fffb7" stroke-width="2" /><polyline fill="none" points="64.2169,47.2949 65.9525,49.4644 72.461,52.9356 80.2712,52.9356" stroke="#b7ff3f" stroke-width="2" /><polyline fill="none" points="64.2169,72.8949 72.461,73.3288 78.1017,70.7254 81.139,67.2542" stroke="#ffb900" stroke-width="2" /><polyline fill="none" points="72.461,90.2508 80.7051,89.3831 87.6475,85.478" stroke="#ff3000" stroke-width="2" /><polyline fill="none" points="80.2712,109.7763 86.7797,107.6068 90.6847,104.1356 92.4203,99.7966" stroke="#7f0000" stroke-width="2" /></svg>