<?xml version="1.0" encoding="utf-8" ?>
<svg baseProfile="tiny" height="128" version="1.2" viewBox="0,0,128,128" width="128" xmlns="http://www.w3.org/2000/svg" xmlns:ev="http://www.w3.org/2001/xml-events" xmlns:xlink="http://www.w3.org/1999/xlink"><defs /><polyline fill="none" points="40.3525,11.7153 27.3356,19.9593 15.6203,34.278 9.1119,55.539 8.678,65.5186 9.5458,84.6102 14.3186,98.4949 24.7322,109.7763 32.1085,114.9831 39.9186,117.1525 64.2169,119.322 75.0644,118.4542 85.0441,116.7186 93.2881,111.5119 98.4949,100.6644 101.9661,83.7424 103.7017,55.539 102.8339,42.522 101.5322,35.5797 96.3254,23.4305 92.8542,18.2237 86.7797,13.4508 42.522,8.678 27.7695,9.5458" stroke="#00007f" stroke-width="2" /><polyline fill="none" points="27.3356,22.9966 37.7492,34.7119 39.4847,39.4847 45.9932,68.122 46.4271,95.8915 41.2203,104.5695 39.0508,111.9458" stroke="#7cff79" stroke-width="2" /><polyline fill="none" points="100.2305,33.8441 94.5898,37.3153 86.3458,49.4644 76.3661,93.722" stroke="#7f0000" stroke-width="2" /></svg>