<?xml version="1.0" encoding="utf-8" ?>
<svg baseProfile="tiny" height="128" version="1.2" viewBox="0,0,128,128" width="128" xmlns="http://www.w3.org/2000/svg" xmlns:ev="http://www.w3.org/2001/xml-events" xmlns:xlink="http://www.w3.org/1999/xlink"><defs /><polyline fill="none" points="36.8814,16.922 29.5051,22.5627 16.0542,41.6542 10.8475,52.5017 8.678,62.0475 9.1119,72.8949 14.3186,88.0814 26.4678,100.2305 37.3153,105.0034 47.2949,107.6068 62.0475,107.1729 85.478,101.5322 92.8542,97.1932 108.0407,83.7424 114.9831,74.1966 118.0203,66.3864 119.322,55.9729 114.1153,44.6915 92.8542,26.4678 74.1966,13.0169 64.2169,8.678 58.5763,8.678 53.8034,11.2814 45.5593,19.0915 31.2407,38.6169 29.5051,46.861" stroke="#00007f" stroke-width="2" /><polyline fill="none" points="62.9153,14.3186 58.5763,13.8847 54.2373,16.922 51.2,20.8271 49.0305,25.6 47.7288,36.4475 49.0305,43.8237 52.5017,49.0305 68.9898,61.6136 73.3288,69.4237 78.5356,84.6102 79.8373,95.0237 79.4034,101.5322 73.3288,108.4746" stroke="#004cff" stroke-width="2" /><polyline fill="none" points="48.1627,62.0475 82.4407,36.0136" stroke="#29ffcd" stroke-width="2" /><polyline fill="none" points="51.2,88.5153 65.0847,78.9695 82.0068,65.0847" stroke="#cdff29" stroke-width="2" /><polyline fill="none" points="70.2915,101.5322 81.5729,95.0237 95.8915,82.8746" stroke="#ff6700" stroke-width="2" /><polyline fill="none" points="48.1627,34.278 78.5356,23.4305" stroke="#7f0000" stroke-width="2" /></svg>