<?xml version="1.0" encoding="utf-8" ?>
<svg baseProfile="tiny" height="128" version="1.2" viewBox="0,0,128,128" width="128" xmlns="http://www.w3.org/2000/svg" xmlns:ev="http://www.w3.org/2001/xml-events" xmlns:xlink="http://www.w3.org/1999/xlink"><defs /><polyline fill="none" points="99.7966,19.5254 94.5898,12.5831 86.3458,10.4136 64.6508,9.9797 48.1627,14.7525 32.9763,22.9966 20.8271,34.7119 12.5831,47.7288 8.678,63.3492 8.678,76.8 11.2814,89.3831 22.9966,101.5322 37.7492,109.3424 49.8983,113.6814 61.1797,115.4169 73.3288,115.4169 84.1763,111.5119 105.4373,101.0983 112.8136,94.1559 117.1525,83.7424 118.8881,69.8576 119.322,42.9559 118.4542,31.6746 113.6814,22.9966 107.6068,16.0542 93.2881,8.678 75.9322,9.1119 72.8949,12.5831" stroke="#00007f" stroke-width="2" /><polyline fill="none" points="42.0881,10.8475 48.1627,20.3932 59.878,53.8034 62.4814,67.2542 62.4814,81.5729 61.6136,87.6475 55.539,97.6271 49.8983,102.4 39.9186,106.3051" stroke="#0028ff" stroke-width="2" /><polyline fill="none" points="94.1559,12.1492 87.2136,22.1288 83.3085,36.4475 79.4034,65.5186 79.4034,73.3288 81.139,79.8373 89.3831,89.3831 93.2881,91.5525 117.1525,98.4949" stroke="#00d4ff" stroke-width="2" /><polyline fill="none" points="42.522,27.3356 65.5186,28.6373" stroke="#7cff79" stroke-width="2" /><polyline fill="none" points="44.2576,59.4441 57.2746,59.4441 68.122,64.6508" stroke="#ffe500" stroke-width="2" /><polyline fill="none" points="46.4271,88.0814 50.3322,88.9492 60.7458,95.8915 64.2169,95.8915" stroke="#ff4600" stroke-width="2" /><polyline fill="none" points="81.5729,19.9593 97.6271,26.4678" stroke="#7f0000" stroke-width="2" /></svg>