<?xml version="1.0" encoding="utf-8" ?>
<svg baseProfile="tiny" height="128" version="1.2" viewBox="0,0,128,128" width="128" xmlns="http://www.w3.org/2000/svg" xmlns:ev="http://www.w3.org/2001/xml-events" xmlns:xlink="http://www.w3.org/1999/xlink"><defs /><polyline fill="none" points="89.3831,19.9593 85.0441,13.8847 80.7051,11.2814 75.4983,9.5458 60.3119,8.678 43.8237,16.0542 27.3356,31.2407 19.9593,41.2203 8.678,69.4237 9.5458,86.7797 20.3932,101.9661 32.5424,111.5119 45.9932,116.7186 64.6508,118.4542 75.4983,117.5864 91.9864,110.6441 98.4949,105.8712 109.7763,94.5898 114.1153,86.7797 118.4542,74.6305 119.322,59.878 114.1153,37.7492 107.1729,28.2034 92.4203,17.7898 83.3085,13.8847 77.2339,13.8847" stroke="#00007f" stroke-width="2" /><polyline fill="none" points="30.8068,32.5424 42.0881,48.1627 46.4271,62.9153 46.4271,92.8542 43.8237,115.8508" stroke="#0080ff" stroke-width="2" /><polyline fill="none" points="104.5695,26.0339 94.5898,29.939 84.1763,40.7864 77.2339,63.7831 75.4983,75.4983 76.3661,100.6644 84.6102,109.7763 90.2508,114.1153 92.8542,114.1153" stroke="#7cff79" stroke-width="2" /><polyline fill="none" points="21.6949,55.1051 35.5797,53.3695 48.1627,49.8983" stroke="#ff9400" stroke-width="2" /><polyline fill="none" points="29.0712,85.9119 34.278,84.1763 62.9153,81.5729" stroke="#7f0000" stroke-width="2" /></svg>