<?xml version="1.0" encoding="utf-8" ?>
<svg baseProfile="tiny" height="128" version="1.2" viewBox="0,0,128,128" width="128" xmlns="http://www.w3.org/2000/svg" xmlns:ev="http://www.w3.org/2001/xml-events" xmlns:xlink="http://www.w3.org/1999/xlink"><defs /><polyline fill="none" points="73.3288,18.2237 66.8203,14.3186 60.3119,12.1492 51.2,11.7153 39.4847,13.0169 28.2034,19.5254 18.2237,31.2407 13.8847,38.6169 8.678,53.8034 8.678,75.9322 17.7898,97.1932 22.1288,102.8339 33.4102,112.8136 46.861,118.8881 54.2373,119.322 61.6136,119.322 69.4237,117.5864 76.8,113.2475 83.7424,106.739 95.0237,89.3831 103.7017,63.7831 103.7017,50.3322 94.1559,35.1458 85.9119,26.9017 68.9898,13.4508 62.4814,9.9797 56.8407,8.678" stroke="#00007f" stroke-width="2" /><polyline fill="none" points="21.261,26.9017 30.3729,44.6915 33.8441,57.7085 34.7119,72.0271 32.5424,86.3458 21.6949,99.7966" stroke="#0010ff" stroke-width="2" /><polyline fill="none" points="89.8169,20.3932 86.7797,22.9966 80.2712,37.3153 79.4034,66.3864 81.5729,79.4034 85.478,91.1186 90.6847,100.6644 94.1559,101.9661" stroke="#00a4ff" stroke-width="2" /><polyline fill="none" points="78.9695,33.4102 88.5153,38.6169" stroke="#3fffb7" stroke-width="2" /><polyline fill="none" points="73.3288,45.1254 86.7797,48.5966" stroke="#b7ff3f" stroke-width="2" /><polyline fill="none" points="74.1966,66.3864 87.2136,65.9525" stroke="#ffb900" stroke-width="2" /><polyline fill="none" points="75.4983,83.3085 85.478,81.5729" stroke="#ff3000" stroke-width="2" /><polyline fill="none" points="83.3085,96.7593 83.3085,96.7593" stroke="#7f0000" stroke-width="2" /></svg>