<?xml version="1.0" encoding="utf-8" ?>
<svg baseProfile="tiny" height="128" version="1.2" viewBox="0,0,128,128" width="128" xmlns="http://www.w3.org/2000/svg" xmlns:ev="http://www.w3.org/2001/xml-events" xmlns:xlink="http://www.w3.org/1999/xlink"><defs /><polyline fill="none" points="72.461,17.7898 68.9898,12.5831 58.5763,8.678 50.3322,8.678 40.3525,11.7153 35.1458,14.3186 22.1288,25.6 10.8475,47.2949 8.678,65.0847 11.2814,79.8373 13.0169,84.6102 23.8644,101.0983 33.8441,108.9085 40.3525,111.9458 53.3695,115.8508 69.8576,116.7186 95.8915,109.7763 108.9085,98.061 114.9831,88.5153 117.1525,80.7051 119.322,60.7458 118.8881,51.6339 117.1525,43.3898 111.9458,36.0136 108.4746,32.1085 94.5898,22.9966 69.8576,14.7525 63.3492,14.7525" stroke="#00007f" stroke-width="2" /><polyline fill="none" points="23.4305,29.0712 29.939,32.5424 36.8814,40.3525 41.6542,57.7085 41.2203,71.1593 33.8441,97.6271 30.3729,104.5695" stroke="#7cff79" stroke-width="2" /><polyline fill="none" points="87.6475,29.0712 84.6102,32.1085 81.5729,42.9559 80.7051,60.7458 82.4407,76.8 86.3458,88.5153 91.9864,98.4949 100.6644,107.1729 105.0034,109.7763" stroke="#7f0000" stroke-width="2" /></svg>