<?xml version="1.0" encoding="utf-8" ?>
<svg baseProfile="tiny" height="128" version="1.2" viewBox="0,0,128,128" width="128" xmlns="http://www.w3.org/2000/svg" xmlns:ev="http://www.w3.org/2001/xml-events" xmlns:xlink="http://www.w3.org/1999/xlink"><defs /><polyline fill="none" points="59.878,16.4881 45.5593,10.4136 36.0136,9.9797 21.6949,16.922 15.1864,22.9966 10.4136,32.9763 8.678,53.3695 14.3186,65.9525 22.5627,75.0644 38.1831,84.1763 52.0678,88.5153 64.2169,91.1186 87.2136,91.9864 99.7966,87.2136 108.9085,79.8373 117.1525,66.3864 119.322,58.1424 119.322,39.0508 117.5864,35.1458 111.5119,29.0712 92.4203,14.3186 82.4407,9.5458 54.6712,8.678 50.3322,9.9797" stroke="#00007f" stroke-width="2" /><polyline fill="none" points="22.1288,18.2237 34.278,16.0542 40.7864,20.3932 43.8237,26.4678 48.1627,39.4847 51.2,59.878 50.3322,82.0068" stroke="#7cff79" stroke-width="2" /><polyline fill="none" points="108.4746,27.3356 99.3627,26.9017 95.8915,28.2034 88.5153,42.0881 80.7051,61.6136 77.2339,75.0644 76.8,87.2136 79.4034,88.9492" stroke="#7f0000" stroke-width="2" /></svg>