<?xml version="1.0" encoding="utf-8" ?>
<svg baseProfile="tiny" height="128" version="1.2" viewBox="0,0,128,128" width="128" xmlns="http://www.w3.org/2000/svg" xmlns:ev="http://www.w3.org/2001/xml-events" xmlns:xlink="http://www.w3.org/1999/xlink"><defs /><polyline fill="none" points="112.8136,44.2576 108.9085,33.4102 101.5322,24.7322 95.8915,19.0915 81.139,11.2814 71.5932,8.678 61.1797,8.678 45.1254,12.1492 34.7119,16.922 25.6,23.4305 18.6576,31.2407 14.3186,40.7864 11.7153,51.2 11.2814,62.4814 12.5831,73.7627 14.7525,84.1763 21.6949,98.061 35.1458,112.3797 47.2949,117.1525 56.8407,119.322 77.2339,116.7186 91.5525,111.078 103.7017,103.2678 114.9831,88.0814 118.8881,75.0644 118.8881,65.5186 117.5864,55.9729 113.2475,42.522 108.9085,35.1458 101.0983,27.3356" stroke="#00007f" stroke-width="2" /><polyline fill="none" points="79.4034,13.4508 78.9695,41.6542 85.0441,63.3492 99.3627,89.3831 108.0407,99.3627 115.4169,103.2678" stroke="#7cff79" stroke-width="2" /><polyline fill="none" points="43.8237,12.1492 46.861,41.6542 45.9932,52.9356 43.3898,65.0847 36.8814,79.4034 28.6373,89.8169 17.7898,96.7593 8.678,97.6271" stroke="#7f0000" stroke-width="2" /></svg>