<?xml version="1.0" encoding="utf-8" ?>
<svg baseProfile="tiny" height="128" version="1.2" viewBox="0,0,128,128" width="128" xmlns="http://www.w3.org/2000/svg" xmlns:ev="http://www.w3.org/2001/xml-events" xmlns:xlink="http://www.w3.org/1999/xlink"><defs /><polyline fill="none" points="8.678,80.7051 10.4136,90.2508 18.2237,99.3627 37.7492,103.7017 51.6339,105.4373 68.5559,105.4373 75.9322,104.1356 88.5153,96.3254 102.4,82.4407 113.2475,67.2542 118.0203,55.9729 119.322,40.7864 117.5864,30.3729 114.5492,19.5254 107.1729,13.4508 99.3627,10.4136 56.4068,8.678 46.861,10.4136 39.4847,14.7525 26.9017,24.2983 19.5254,31.6746 10.4136,47.2949 8.678,54.6712 11.7153,62.4814 11.7153,67.2542" stroke="#00007f" stroke-width="2" /><polyline fill="none" points="56.4068,13.4508 56.4068,21.261 51.6339,29.0712 42.522,51.6339 40.7864,63.7831 36.4475,74.6305 25.6,89.8169 19.5254,94.5898" stroke="#7cff79" stroke-width="2" /><polyline fill="none" points="43.8237,17.7898 43.8237,19.5254" stroke="#7f0000" stroke-width="2" /></svg>