<?xml version="1.0" encoding="utf-8" ?>
<svg baseProfile="tiny" height="128" version="1.2" viewBox="0,0,128,128" width="128" xmlns="http://www.w3.org/2000/svg" xmlns:ev="http://www.w3.org/2001/xml-events" xmlns:xlink="http://www.w3.org/1999/xlink"><defs /><polyline fill="none" points="107.1729,17.3559 96.7593,9.9797 92.4203,8.678 87.6475,9.1119 69.8576,19.5254 65.0847,23.8644 62.9153,27.7695 65.9525,48.1627 68.9898,55.1051 74.6305,59.0102 81.5729,61.1797 92.4203,61.1797 100.2305,58.1424 107.1729,52.5017 114.9831,42.0881 115.4169,36.0136 114.1153,28.6373 110.6441,22.1288 104.5695,17.7898" stroke="#00007f" stroke-width="2" /><polyline fill="none" points="105.8712,14.7525 98.9288,22.5627 94.5898,29.939 91.1186,44.2576 90.6847,62.4814" stroke="#0028ff" stroke-width="2" /><polyline fill="none" points="66.3864,20.3932 71.1593,28.2034 74.6305,42.0881 73.3288,57.2746" stroke="#00d4ff" stroke-width="2" /><polyline fill="none" points="119.322,22.1288 119.322,22.1288" stroke="#7cff79" stroke-width="2" /><polyline fill="none" points="8.678,43.3898 29.939,32.9763" stroke="#ffe500" stroke-width="2" /><polyline fill="none" points="28.6373,59.0102 49.4644,50.3322" stroke="#ff4600" stroke-width="2" /><polyline fill="none" points="29.5051,82.4407 45.9932,76.3661" stroke="#7f0000" stroke-width="2" /></svg>