<?xml version="1.0" encoding="utf-8" ?>
<svg baseProfile="tiny" height="128" version="1.2" viewBox="0,0,128,128" width="128" xmlns="http://www.w3.org/2000/svg" xmlns:ev="http://www.w3.org/2001/xml-events" xmlns:xlink="http://www.w3.org/1999/xlink"><defs /><polyline fill="none" points="79.8373,10.4136 70.2915,8.678 62.4814,9.5458 52.5017,12.5831 33.4102,22.9966 24.2983,31.2407 17.3559,41.6542 11.7153,54.2373 8.678,76.8 11.2814,85.9119 18.2237,92.4203 29.0712,96.3254 41.6542,97.1932 54.2373,96.7593 67.2542,93.722 91.1186,83.7424 101.0983,78.5356 108.0407,72.8949 114.1153,65.0847 117.5864,57.2746 119.322,43.8237 117.5864,35.1458 106.3051,21.261 98.061,16.0542 89.3831,12.1492 68.9898,10.4136" stroke="#00007f" stroke-width="2" /><polyline fill="none" points="34.278,20.3932 38.1831,23.4305 44.6915,38.1831 50.3322,59.878 50.3322,74.1966 48.1627,84.6102 43.8237,94.1559 34.7119,102.4" stroke="#004cff" stroke-width="2" /><polyline fill="none" points="102.8339,13.4508 95.8915,15.1864 89.8169,24.7322 84.1763,39.0508 83.7424,48.5966 83.7424,58.1424 85.9119,66.3864 96.7593,88.0814" stroke="#29ffcd" stroke-width="2" /><polyline fill="none" points="77.2339,35.1458 94.5898,36.0136" stroke="#cdff29" stroke-width="2" /><polyline fill="none" points="79.4034,60.7458 102.8339,48.1627" stroke="#ff6700" stroke-width="2" /><polyline fill="none" points="83.3085,75.0644 94.1559,77.6678 103.2678,76.8" stroke="#7f0000" stroke-width="2" /></svg>