<?xml version="1.0" encoding="utf-8" ?>
<svg baseProfile="tiny" height="128" version="1.2" viewBox="0,0,128,128" width="128" xmlns="http://www.w3.org/2000/svg" xmlns:ev="http://www.w3.org/2001/xml-events" xmlns:xlink="http://www.w3.org/1999/xlink"><defs /><polyline fill="none" points="90.6847,22.1288 70.2915,15.1864 52.5017,14.3186 33.4102,19.9593 23.4305,26.0339 16.4881,32.5424 11.2814,40.3525 8.678,49.4644 10.4136,65.9525 16.4881,73.7627 25.1661,79.8373 36.8814,83.3085 51.6339,85.0441 65.9525,84.6102 80.7051,80.2712 94.1559,72.0271 105.4373,62.4814 113.6814,52.0678 118.4542,39.9186 118.4542,29.0712 115.4169,19.9593 107.1729,13.4508 95.4576,9.5458 81.139,8.678 66.8203,8.678 51.6339,11.2814" stroke="#00007f" stroke-width="2" /><polyline fill="none" points="31.6746,18.2237 35.5797,19.5254 40.3525,22.5627 45.9932,29.0712 49.8983,36.8814 51.2,51.2 48.1627,59.0102 43.3898,65.5186 31.6746,78.5356 22.5627,84.6102" stroke="#0000f1" stroke-width="2" /><polyline fill="none" points="111.078,13.0169 107.1729,13.4508 101.0983,17.7898 95.0237,23.4305 90.2508,31.6746 87.2136,42.522 86.3458,62.4814 88.9492,69.4237 93.722,74.1966 101.5322,77.6678 114.9831,78.5356 119.322,73.7627" stroke="#004cff" stroke-width="2" /><polyline fill="none" points="28.6373,34.278 49.4644,26.4678" stroke="#00b0ff" stroke-width="2" /><polyline fill="none" points="34.278,52.9356 65.9525,49.4644" stroke="#29ffcd" stroke-width="2" /><polyline fill="none" points="29.5051,61.6136 45.5593,68.9898 54.2373,71.1593" stroke="#7cff79" stroke-width="2" /><polyline fill="none" points="22.9966,68.9898 29.5051,73.7627 39.0508,77.2339" stroke="#cdff29" stroke-width="2" /><polyline fill="none" points="78.1017,24.7322 101.0983,23.4305" stroke="#ffc400" stroke-width="2" /><polyline fill="none" points="82.4407,37.3153 101.9661,35.1458" stroke="#ff6700" stroke-width="2" /><polyline fill="none" points="79.8373,49.8983 97.6271,49.4644" stroke="#f10700" stroke-width="2" /><polyline fill="none" points="80.7051,68.122 91.1186,63.3492" stroke="#7f0000" stroke-width="2" /></svg>