<?xml version="1.0" encoding="utf-8" ?>
<svg baseProfile="tiny" height="128" version="1.2" viewBox="0,0,128,128" width="128" xmlns="http://www.w3.org/2000/svg" xmlns:ev="http://www.w3.org/2001/xml-events" xmlns:xlink="http://www.w3.org/1999/xlink"><defs /><polyline fill="none" points="89.8169,19.9593 82.4407,15.6203 64.6508,8.678 46.4271,8.678 32.1085,15.1864 21.261,23.4305 11.2814,41.2203 8.678,52.5017 8.678,68.5559 10.8475,76.8 15.6203,85.478 24.7322,95.8915 29.0712,98.9288 34.7119,101.0983 52.5017,103.2678 79.8373,103.2678 91.1186,101.0983 102.4,94.5898 111.5119,84.1763 119.322,62.0475 118.4542,32.9763 114.9831,23.4305 112.3797,19.9593 105.8712,16.4881 97.6271,15.6203 94.5898,18.6576" stroke="#00007f" stroke-width="2" /><polyline fill="none" points="31.2407,81.139 36.4475,78.9695 56.4068,55.1051 61.6136,45.1254 62.9153,22.5627" stroke="#0010ff" stroke-width="2" /><polyline fill="none" points="94.5898,13.0169 94.5898,59.0102 98.061,71.5932 111.078,93.2881" stroke="#00a4ff" stroke-width="2" /><polyline fill="none" points="71.5932,42.522 103.7017,33.4102" stroke="#3fffb7" stroke-width="2" /><polyline fill="none" points="81.139,60.3119 105.8712,58.1424" stroke="#b7ff3f" stroke-width="2" /><polyline fill="none" points="88.5153,78.5356 103.2678,75.4983" stroke="#ffb900" stroke-width="2" /><polyline fill="none" points="23.4305,57.2746 39.0508,71.5932" stroke="#ff3000" stroke-width="2" /><polyline fill="none" points="35.5797,57.2746 46.4271,67.6881 57.2746,75.0644" stroke="#7f0000" stroke-width="2" /></svg>