<?xml version="1.0" encoding="utf-8" ?>
<svg baseProfile="tiny" height="128" version="1.2" viewBox="0,0,128,128" width="128" xmlns="http://www.w3.org/2000/svg" xmlns:ev="http://www.w3.org/2001/xml-events" xmlns:xlink="http://www.w3.org/1999/xlink"><defs /><polyline fill="none" points="14.7525,39.0508 16.922,32.9763 22.9966,23.8644 35.1458,15.6203 50.3322,10.4136 67.6881,8.678 86.7797,9.9797 103.7017,17.3559 115.4169,28.2034 119.322,41.2203 114.9831,59.4441 101.9661,75.0644 85.0441,86.3458 67.2542,92.4203 50.7661,93.2881 38.6169,88.0814 28.6373,75.0644 21.261,59.0102 10.8475,33.8441 8.678,25.6 9.1119,19.9593 18.2237,14.7525" stroke="#00007f" stroke-width="2" /><polyline fill="none" points="45.5593,11.7153 49.4644,13.8847 53.3695,19.9593 57.2746,32.1085 57.7085,52.0678 55.539,68.122 47.2949,79.4034 36.8814,85.478 28.2034,85.9119 24.2983,83.3085" stroke="#0000fe" stroke-width="2" /><polyline fill="none" points="106.739,9.5458 99.3627,9.9797 89.3831,16.922 80.7051,25.6 75.0644,36.0136 72.8949,46.861 72.8949,57.2746 75.9322,67.2542 82.8746,75.0644 90.6847,79.8373 101.0983,81.139" stroke="#0060ff" stroke-width="2" /><polyline fill="none" points="40.7864,29.5051 64.2169,30.8068" stroke="#00d4ff" stroke-width="2" /><polyline fill="none" points="35.1458,55.539 51.2,55.1051" stroke="#4cffaa" stroke-width="2" /><polyline fill="none" points="36.8814,65.0847 61.6136,70.7254 71.5932,74.1966" stroke="#aaff4c" stroke-width="2" /><polyline fill="none" points="42.9559,70.2915 62.4814,71.1593 68.5559,72.8949" stroke="#ffe500" stroke-width="2" /><polyline fill="none" points="73.3288,30.8068 81.5729,37.3153 91.5525,38.1831" stroke="#ff7a00" stroke-width="2" /><polyline fill="none" points="77.2339,35.5797 87.2136,40.3525" stroke="#fe1200" stroke-width="2" /><polyline fill="none" points="81.5729,59.878 98.061,59.4441" stroke="#7f0000" stroke-width="2" /></svg>