<?xml version="1.0" encoding="utf-8" ?>
<svg baseProfile="tiny" height="128" version="1.2" viewBox="0,0,128,128" width="128" xmlns="http://www.w3.org/2000/svg" xmlns:ev="http://www.w3.org/2001/xml-events" xmlns:xlink="http://www.w3.org/1999/xlink"><defs /><polyline fill="none" points="71.5932,12.5831 65.5186,9.9797 55.539,10.8475 36.0136,28.6373 29.939,36.0136 13.8847,63.7831 10.8475,71.5932 8.678,83.7424 8.678,92.8542 26.0339,104.5695 38.1831,107.1729 58.5763,107.1729 72.461,100.2305 90.6847,88.9492 98.4949,82.8746 110.2102,70.2915 117.1525,60.3119 118.4542,53.8034 118.4542,45.5593 112.3797,31.2407 101.0983,16.4881 95.4576,12.1492 91.1186,10.4136 82.4407,8.678 71.5932,8.678" stroke="#00007f" stroke-width="2" /><polyline fill="none" points="58.5763,29.939 55.539,33.4102 46.4271,87.2136 42.9559,119.322" stroke="#7cff79" stroke-width="2" /><polyline fill="none" points="45.9932,82.8746 51.2,61.6136 68.5559,13.8847" stroke="#7f0000" stroke-width="2" /></svg>