<?xml version="1.0" encoding="utf-8" ?>
<svg baseProfile="tiny" height="128" version="1.2" viewBox="0,0,128,128" width="128" xmlns="http://www.w3.org/2000/svg" xmlns:ev="http://www.w3.org/2001/xml-events" xmlns:xlink="http://www.w3.org/1999/xlink"><defs /><polyline fill="none" points="52.5017,11.2814 40.3525,15.6203 22.9966,31.6746 15.6203,43.8237 10.8475,58.5763 8.678,75.4983 9.1119,92.8542 16.4881,107.1729 26.4678,116.2847 36.8814,119.322 47.2949,119.322 57.7085,115.4169 69.4237,107.1729 80.7051,95.0237 88.9492,79.4034 94.1559,62.4814 95.4576,38.1831 91.5525,30.3729 84.1763,22.9966 61.1797,8.678" stroke="#00007f" stroke-width="2" /><polyline fill="none" points="40.3525,24.7322 43.8237,32.9763 43.8237,43.3898 40.3525,77.6678 36.4475,94.1559 29.5051,101.5322 17.7898,109.3424 15.1864,112.3797" stroke="#0080ff" stroke-width="2" /><polyline fill="none" points="77.2339,15.6203 73.3288,25.1661 68.9898,46.861 63.3492,65.5186 63.7831,82.0068 70.2915,105.4373 72.8949,110.2102" stroke="#7cff79" stroke-width="2" /><polyline fill="none" points="35.5797,38.6169 51.6339,36.8814" stroke="#ff9400" stroke-width="2" /><polyline fill="none" points="34.7119,70.7254 38.6169,69.4237 47.7288,71.5932" stroke="#7f0000" stroke-width="2" /></svg>