<?xml version="1.0" encoding="utf-8" ?>
<svg baseProfile="tiny" height="128" version="1.2" viewBox="0,0,128,128" width="128" xmlns="http://www.w3.org/2000/svg" xmlns:ev="http://www.w3.org/2001/xml-events" xmlns:xlink="http://www.w3.org/1999/xlink"><defs /><polyline fill="none" points="95.4576,24.2983 81.139,16.4881 69.8576,12.1492 60.7458,9.5458 45.9932,8.678 25.1661,13.4508 11.7153,23.8644 9.5458,29.5051 8.678,42.522 11.7153,52.5017 16.922,62.0475 26.4678,69.8576 35.1458,74.1966 64.6508,83.7424 82.0068,91.1186 101.0983,92.8542 115.8508,90.2508 118.8881,81.139 119.322,70.2915 116.2847,57.7085 111.9458,49.4644 98.061,33.8441 78.5356,18.6576" stroke="#00007f" stroke-width="2" /><polyline fill="none" points="32.5424,10.8475 44.6915,27.3356 45.1254,32.1085 36.4475,48.1627 36.4475,55.9729 39.0508,62.4814 37.7492,66.8203 32.1085,71.1593 26.9017,72.8949 25.1661,71.1593" stroke="#7cff79" stroke-width="2" /><polyline fill="none" points="60.3119,13.8847 57.7085,20.3932 58.5763,27.7695 74.6305,42.522 75.4983,49.0305 69.8576,67.6881 66.3864,74.1966 59.878,78.5356 55.539,84.6102 52.0678,82.8746" stroke="#7f0000" stroke-width="2" /></svg>