<?xml version="1.0" encoding="utf-8" ?>
<svg baseProfile="tiny" height="128" version="1.2" viewBox="0,0,128,128" width="128" xmlns="http://www.w3.org/2000/svg" xmlns:ev="http://www.w3.org/2001/xml-events" xmlns:xlink="http://www.w3.org/1999/xlink"><defs /><polyline fill="none" points="43.8237,8.678 30.3729,16.4881 24.7322,22.5627 14.3186,40.3525 10.4136,50.3322 8.678,62.0475 9.5458,75.0644 11.2814,86.3458 16.922,102.4 31.2407,107.1729 38.1831,108.0407 44.2576,107.6068 55.9729,101.9661 65.5186,88.9492 67.2542,78.5356 65.5186,59.4441 61.1797,43.3898 58.5763,36.8814 48.5966,25.1661 40.3525,19.9593 32.1085,16.4881" stroke="#00007f" stroke-width="2" /><polyline fill="none" points="10.4136,45.9932 27.3356,52.9356 30.3729,57.7085 30.8068,61.6136 30.3729,74.6305 27.3356,84.6102 22.9966,89.3831 16.922,92.4203 13.8847,92.8542" stroke="#00d4ff" stroke-width="2" /><polyline fill="none" points="71.1593,48.5966 57.2746,51.2 52.0678,53.8034 48.1627,58.1424 46.4271,64.6508 45.9932,75.0644 47.7288,78.9695 55.9729,83.3085 65.9525,83.7424" stroke="#ffe500" stroke-width="2" /><polyline fill="none" points="95.0237,119.322 91.1186,86.3458 88.0814,71.5932" stroke="#7f0000" stroke-width="2" /></svg>