<?xml version="1.0" encoding="utf-8" ?>
<svg baseProfile="tiny" height="128" version="1.2" viewBox="0,0,128,128" width="128" xmlns="http://www.w3.org/2000/svg" xmlns:ev="http://www.w3.org/2001/xml-events" xmlns:xlink="http://www.w3.org/1999/xlink"><defs /><polyline fill="none" points="66.8203,8.678 42.0881,15.1864 32.9763,20.8271 25.1661,29.5051 18.6576,43.8237 16.4881,51.6339 16.4881,65.5186 22.5627,77.6678 29.0712,86.3458 47.2949,99.7966 65.0847,103.7017 71.5932,103.7017 81.5729,102.4 93.722,98.061 102.4,92.8542 111.9458,83.3085 116.7186,75.9322 119.322,67.6881 118.4542,56.4068 108.4746,35.1458 97.1932,22.5627 87.6475,17.3559 79.8373,15.1864 71.5932,13.8847 56.4068,15.1864 45.1254,18.2237" stroke="#00007f" stroke-width="2" /><polyline fill="none" points="61.6136,15.1864 56.4068,19.9593 49.8983,37.3153 42.9559,47.2949 29.939,55.539 13.0169,61.6136 8.678,61.6136" stroke="#0010ff" stroke-width="2" /><polyline fill="none" points="101.9661,34.278 93.722,55.9729 89.3831,73.7627 92.8542,94.5898 100.6644,98.4949" stroke="#00a4ff" stroke-width="2" /><polyline fill="none" points="85.9119,40.7864 92.8542,47.2949 101.5322,49.8983 103.7017,52.0678" stroke="#3fffb7" stroke-width="2" /><polyline fill="none" points="84.1763,67.2542 98.9288,66.8203" stroke="#b7ff3f" stroke-width="2" /><polyline fill="none" points="81.139,85.9119 98.9288,85.478" stroke="#ffb900" stroke-width="2" /><polyline fill="none" points="43.8237,26.0339 50.3322,42.522 56.4068,52.0678" stroke="#ff3000" stroke-width="2" /><polyline fill="none" points="37.3153,44.2576 39.0508,52.5017 43.3898,61.1797" stroke="#7f0000" stroke-width="2" /></svg>