<?xml version="1.0" encoding="utf-8" ?>
<svg baseProfile="tiny" height="128" version="1.2" viewBox="0,0,128,128" width="128" xmlns="http://www.w3.org/2000/svg" xmlns:ev="http://www.w3.org/2001/xml-events" xmlns:xlink="http://www.w3.org/1999/xlink"><defs /><polyline fill="none" points="16.1088,25.6871 41.3605,15.2381 55.2925,11.7551 75.3197,11.3197 95.7823,17.8503 102.3129,21.7687 109.2789,30.4762 117.551,47.8912 119.2925,59.2109 116.6803,70.0952 114.068,75.3197 107.5374,82.2857 102.7483,84.898 89.6871,88.8163 81.8503,89.2517 61.8231,87.9456 46.585,85.3333 28.2993,77.4966 13.0612,64.8707 8.7075,57.034 9.1429,46.585 19.1565,20.898 21.7687,17.415" stroke="#00007f" stroke-width="2" /><polyline fill="none" points="47.8912,14.3673 47.0204,17.8503 50.068,24.8163 52.6803,40.0544 57.9048,56.1633 56.1633,60.0816 46.1497,71.4014 35.7007,80.5442 26.9932,83.5918 23.5102,82.7211 20.898,77.4966" stroke="#7cff79" stroke-width="2" /><polyline fill="none" points="83.1565,8.7075 80.5442,12.6259 80.1088,29.6054 86.2041,69.6599 97.0884,76.1905 103.1837,75.3197 108.8435,69.2245 115.3741,51.8095 117.9864,49.1973" stroke="#7f0000" stroke-width="2" /></svg>