<?xml version="1.0" encoding="utf-8" ?>
<svg baseProfile="tiny" height="128" version="1.2" viewBox="0,0,128,128" width="128" xmlns="http://www.w3.org/2000/svg" xmlns:ev="http://www.w3.org/2001/xml-events" xmlns:xlink="http://www.w3.org/1999/xlink"><defs /><polyline fill="none" points="42.9559,18.6576 51.2,36.4475 55.539,52.0678 54.6712,67.6881 49.4644,81.139 43.8237,88.5153" stroke="#00007f" stroke-width="2" /><polyline fill="none" points="97.6271,19.0915 92.4203,28.6373 85.0441,60.7458 85.0441,83.7424 88.9492,91.9864" stroke="#004cff" stroke-width="2" /><polyline fill="none" points="118.4542,19.5254 72.8949,8.678 39.9186,8.678 18.6576,15.6203 13.0169,19.0915 10.4136,22.5627 8.678,33.8441 8.678,60.3119 11.2814,68.5559 17.3559,76.8 32.1085,87.6475 52.5017,96.7593 69.8576,98.9288 98.9288,98.4949 103.7017,95.4576 105.8712,91.5525 113.6814,85.478 117.1525,78.1017 119.322,65.9525 119.322,53.3695 114.1153,36.8814 110.6441,31.6746 98.9288,27.3356" stroke="#29ffcd" stroke-width="2" /><polyline fill="none" points="45.1254,30.8068 51.2,28.2034" stroke="#cdff29" stroke-width="2" /><polyline fill="none" points="42.9559,42.0881 49.0305,40.3525" stroke="#ff6700" stroke-width="2" /><polyline fill="none" points="37.7492,59.0102 85.478,57.7085" stroke="#7f0000" stroke-width="2" /></svg>