<?xml version="1.0" encoding="utf-8" ?>
<svg baseProfile="tiny" height="128" version="1.2" viewBox="0,0,128,128" width="128" xmlns="http://www.w3.org/2000/svg" xmlns:ev="http://www.w3.org/2001/xml-events" xmlns:xlink="http://www.w3.org/1999/xlink"><defs /><polyline fill="none" points="66.8203,20.3932 62.4814,13.8847 57.7085,12.5831 48.1627,12.5831 41.2203,14.7525 34.278,19.5254 21.261,31.2407 17.3559,38.1831 9.1119,64.6508 8.678,88.0814 12.1492,95.0237 15.6203,101.5322 23.4305,108.9085 31.6746,113.2475 42.522,116.2847 64.2169,119.322 75.4983,111.5119 85.478,88.0814 87.6475,79.4034 89.3831,47.7288 87.2136,38.1831 81.139,29.0712 68.122,12.5831 63.3492,8.678 60.7458,8.678" stroke="#00007f" stroke-width="2" /><polyline fill="none" points="28.6373,24.7322 31.2407,29.0712 38.1831,46.4271 44.2576,75.0644 46.4271,103.2678 42.0881,113.6814" stroke="#7cff79" stroke-width="2" /><polyline fill="none" points="76.8,101.9661 74.6305,99.7966 67.6881,85.9119 65.5186,71.1593 65.0847,49.8983 65.9525,43.3898 71.5932,31.2407 84.1763,18.2237" stroke="#7f0000" stroke-width="2" /></svg>