<?xml version="1.0" encoding="utf-8" ?>
<svg baseProfile="tiny" height="128" version="1.2" viewBox="0,0,128,128" width="128" xmlns="http://www.w3.org/2000/svg" xmlns:ev="http://www.w3.org/2001/xml-events" xmlns:xlink="http://www.w3.org/1999/xlink"><defs /><polyline fill="none" points="56.8407,17.7898 40.7864,27.3356 29.939,38.1831 18.6576,54.2373 10.4136,73.3288 8.678,87.6475 8.678,104.5695 11.2814,111.9458 16.922,117.1525 30.8068,119.322 43.8237,118.4542 67.2542,109.7763 82.0068,95.8915 88.9492,85.0441 94.5898,72.8949 97.6271,59.4441 97.6271,46.861 94.5898,41.6542 83.3085,30.8068 67.2542,21.261 59.0102,17.7898" stroke="#00007f" stroke-width="2" /><polyline fill="none" points="24.7322,27.3356 54.2373,72.0271 61.1797,85.0441 65.5186,96.3254 65.5186,100.2305" stroke="#00d4ff" stroke-width="2" /><polyline fill="none" points="87.6475,27.3356 75.0644,40.3525 41.2203,86.3458 21.261,105.8712 21.261,104.1356" stroke="#ffe500" stroke-width="2" /><polyline fill="none" points="65.0847,8.678 56.8407,46.4271 50.7661,101.9661" stroke="#7f0000" stroke-width="2" /></svg>