<?xml version="1.0" encoding="utf-8" ?>
<svg baseProfile="tiny" height="128" version="1.2" viewBox="0,0,128,128" width="128" xmlns="http://www.w3.org/2000/svg" xmlns:ev="http://www.w3.org/2001/xml-events" xmlns:xlink="http://www.w3.org/1999/xlink"><defs /><polyline fill="none" points="81.8503,9.5782 66.6122,8.7075 35.2653,26.9932 13.0612,37.0068 10.0136,40.4898 8.7075,48.7619 10.0136,63.5646 13.4966,82.2857 16.9796,90.1224 23.0748,97.5238 32.6531,104.4898 66.1769,117.551 87.0748,119.2925 100.1361,118.4218 107.5374,111.4558 114.068,94.4762 115.8095,88.381 117.551,57.4694 115.3741,50.9388 109.2789,39.619 87.0748,11.7551 82.7211,9.1429" stroke="#00007f" stroke-width="2" /><polyline fill="none" points="97.0884,24.8163 92.2993,28.2993 83.1565,39.1837 73.5782,56.1633 62.2585,83.1565 58.7755,101.4422 59.2109,108.4082" stroke="#7cff79" stroke-width="2" /><polyline fill="none" points="31.3469,35.2653 32.6531,47.0204 29.1701,65.7415 22.6395,71.8367 12.6259,73.5782" stroke="#7f0000" stroke-width="2" /></svg>