<?xml version="1.0" encoding="utf-8" ?>
<svg baseProfile="tiny" height="128" version="1.2" viewBox="0,0,128,128" width="128" xmlns="http://www.w3.org/2000/svg" xmlns:ev="http://www.w3.org/2001/xml-events" xmlns:xlink="http://www.w3.org/1999/xlink"><defs /><polyline fill="none" points="54.2373,8.678 45.9932,8.678 30.8068,14.7525 20.8271,22.5627 13.0169,32.1085 9.5458,42.0881 8.678,54.2373 14.7525,67.6881 25.1661,77.6678 38.1831,84.6102 53.3695,90.2508 67.6881,92.4203 89.3831,92.4203 103.2678,88.9492 111.9458,84.1763 115.8508,78.9695 118.4542,70.2915 119.322,56.4068 115.4169,45.5593 109.3424,35.1458 101.5322,26.9017 95.8915,22.5627 85.0441,18.2237 62.0475,15.1864" stroke="#00007f" stroke-width="2" /><polyline fill="none" points="45.9932,9.5458 56.8407,34.278 58.5763,41.6542 58.1424,52.9356 52.9356,61.6136 48.5966,65.0847 16.4881,82.8746" stroke="#7cff79" stroke-width="2" /><polyline fill="none" points="99.7966,25.1661 91.1186,39.0508 87.2136,50.7661 84.1763,65.9525 84.6102,73.3288 87.6475,75.4983 96.3254,76.8" stroke="#7f0000" stroke-width="2" /></svg>