<?xml version="1.0" encoding="utf-8" ?>
<svg baseProfile="tiny" height="128" version="1.2" viewBox="0,0,128,128" width="128" xmlns="http://www.w3.org/2000/svg" xmlns:ev="http://www.w3.org/2001/xml-events" xmlns:xlink="http://www.w3.org/1999/xlink"><defs /><polyline fill="none" points="105.8712,21.6949 92.4203,12.1492 84.1763,9.5458 72.461,8.678 62.4814,9.9797 52.0678,13.8847 37.3153,21.6949 19.0915,36.0136 13.4508,44.6915 10.8475,52.5017 10.8475,65.0847 12.5831,73.3288 19.5254,88.0814 25.6,93.2881 35.1458,98.4949 52.0678,100.6644 74.1966,96.7593 94.5898,87.6475 111.078,72.461 115.4169,65.0847 119.322,52.9356 118.4542,42.0881 115.4169,33.4102 110.6441,25.1661 105.0034,19.5254 97.6271,16.0542 90.2508,16.0542" stroke="#00007f" stroke-width="2" /><polyline fill="none" points="53.8034,18.2237 58.1424,21.6949 80.2712,59.878 95.0237,77.2339 108.4746,88.9492" stroke="#0028ff" stroke-width="2" /><polyline fill="none" points="83.7424,25.1661 74.6305,32.1085 64.6508,42.9559 60.3119,50.3322 56.4068,62.9153" stroke="#00d4ff" stroke-width="2" /><polyline fill="none" points="95.8915,46.861 82.0068,62.9153 75.0644,76.8" stroke="#7cff79" stroke-width="2" /><polyline fill="none" points="8.678,52.5017 27.7695,59.4441 36.0136,66.3864 44.2576,74.1966 63.7831,101.9661" stroke="#ffe500" stroke-width="2" /><polyline fill="none" points="41.2203,35.5797 38.6169,36.4475 33.4102,46.4271 24.7322,75.4983 22.1288,95.8915" stroke="#ff4600" stroke-width="2" /><polyline fill="none" points="54.6712,60.7458 46.4271,71.5932 42.9559,88.5153" stroke="#7f0000" stroke-width="2" /></svg>