<?xml version="1.0" encoding="utf-8" ?>
<svg baseProfile="tiny" height="128" version="1.2" viewBox="0,0,128,128" width="128" xmlns="http://www.w3.org/2000/svg" xmlns:ev="http://www.w3.org/2001/xml-events" xmlns:xlink="http://www.w3.org/1999/xlink"><defs /><polyline fill="none" points="77.6678,11.7153 52.9356,9.9797 42.0881,16.0542 31.2407,26.0339 24.2983,35.1458 15.1864,54.2373 9.5458,75.0644 8.678,82.8746 9.1119,101.5322 13.8847,110.2102 21.261,115.8508 39.4847,119.322 65.9525,119.322 73.3288,116.2847 82.0068,108.9085 90.2508,96.3254 95.0237,83.7424 101.0983,59.4441 100.6644,50.7661 95.4576,42.9559 74.6305,19.9593" stroke="#00007f" stroke-width="2" /><polyline fill="none" points="44.2576,13.0169 44.6915,35.1458 39.9186,69.4237 29.5051,96.7593 16.4881,115.4169 17.7898,111.9458" stroke="#7cff79" stroke-width="2" /><polyline fill="none" points="65.9525,8.678 60.3119,39.9186 59.4441,95.4576 62.4814,101.9661 73.3288,105.8712 76.3661,105.4373" stroke="#7f0000" stroke-width="2" /></svg>