<?xml version="1.0" encoding="utf-8" ?>
<svg baseProfile="tiny" height="128" version="1.2" viewBox="0,0,128,128" width="128" xmlns="http://www.w3.org/2000/svg" xmlns:ev="http://www.w3.org/2001/xml-events" xmlns:xlink="http://www.w3.org/1999/xlink"><defs /><polyline fill="none" points="44.6915,8.678 33.4102,15.6203 13.0169,37.7492 8.678,57.7085 8.678,76.3661 9.5458,82.4407 16.4881,97.1932 22.5627,100.6644 24.2983,105.0034 29.5051,110.6441 46.861,119.322 57.7085,118.4542 72.0271,108.0407 82.4407,97.1932 92.8542,82.4407 92.8542,65.5186 89.3831,55.539 89.3831,50.7661 85.9119,41.2203 82.4407,36.8814 76.3661,19.9593 71.5932,16.4881 65.5186,13.0169 38.6169,13.0169 30.8068,15.6203" stroke="#00007f" stroke-width="2" /><polyline fill="none" points="30.8068,15.6203 33.4102,20.3932 35.1458,47.2949 36.8814,51.6339 36.8814,101.5322 29.939,111.078 26.0339,111.5119" stroke="#7cff79" stroke-width="2" /><polyline fill="none" points="77.2339,13.8847 75.4983,19.0915 70.2915,23.8644 66.8203,33.8441 65.9525,58.5763 68.5559,68.122 72.0271,72.8949 72.0271,77.2339 75.4983,82.4407 79.8373,83.3085" stroke="#7f0000" stroke-width="2" /></svg>