<?xml version="1.0" encoding="utf-8" ?>
<svg baseProfile="tiny" height="128" version="1.2" viewBox="0,0,128,128" width="128" xmlns="http://www.w3.org/2000/svg" xmlns:ev="http://www.w3.org/2001/xml-events" xmlns:xlink="http://www.w3.org/1999/xlink"><defs /><polyline fill="none" points="63.3447,8.7372 51.1126,8.7372 38.4437,15.727 22.2799,31.8908 11.7952,50.2389 8.7372,69.4608 8.7372,81.256 12.2321,92.1775 17.9113,100.4778 25.3379,108.7782 38.8805,117.0785 49.3652,119.2628 65.0922,118.3891 83.4403,111.3993 103.9727,100.041 115.7679,87.372 117.0785,84.314 117.5154,75.5768 114.4573,65.9659 108.3413,51.5495 104.8464,46.3072 94.3618,40.628 76.4505,35.8225 69.0239,31.8908 58.5392,21.843" stroke="#00007f" stroke-width="2" /><polyline fill="none" points="38.4437,21.4061 41.0648,24.901 44.1229,32.3276 47.1809,47.6177 45.8703,67.2765 39.3174,85.6246 35.8225,91.7406 32.7645,96.1092 20.9693,106.5939" stroke="#7cff79" stroke-width="2" /><polyline fill="none" points="79.5085,38.8805 71.6451,63.7816 71.2082,88.2457 72.9556,92.6143 83.4403,99.6041" stroke="#7f0000" stroke-width="2" /></svg>