<?xml version="1.0" encoding="utf-8" ?>
<svg baseProfile="tiny" height="128" version="1.2" viewBox="0,0,128,128" width="128" xmlns="http://www.w3.org/2000/svg" xmlns:ev="http://www.w3.org/2001/xml-events" xmlns:xlink="http://www.w3.org/1999/xlink"><defs /><polyline fill="none" points="37.7492,18.2237 28.6373,22.5627 18.6576,32.9763 14.7525,40.3525 12.1492,49.4644 10.8475,68.9898 12.1492,76.8 21.6949,90.2508 35.1458,101.0983 49.8983,107.6068 57.2746,108.9085 81.139,108.4746 88.0814,104.1356 101.5322,92.8542 107.1729,83.3085 116.7186,59.4441 119.322,46.4271 118.8881,35.5797 116.2847,31.2407 108.9085,25.6 74.6305,12.1492 46.861,8.678 39.9186,9.1119 31.2407,16.0542" stroke="#00007f" stroke-width="2" /><polyline fill="none" points="8.678,61.1797 24.2983,62.9153 38.1831,68.122 52.0678,68.5559 68.122,63.7831 105.8712,42.522" stroke="#00d4ff" stroke-width="2" /><polyline fill="none" points="30.8068,23.4305 43.3898,45.9932 49.8983,62.4814 54.2373,83.7424 55.1051,103.2678" stroke="#ffe500" stroke-width="2" /><polyline fill="none" points="68.9898,16.922 71.5932,43.3898 77.2339,78.1017 83.3085,89.3831 88.9492,91.9864" stroke="#7f0000" stroke-width="2" /></svg>