<?xml version="1.0" encoding="utf-8" ?>
<svg baseProfile="tiny" height="128" version="1.2" viewBox="0,0,128,128" width="128" xmlns="http://www.w3.org/2000/svg" xmlns:ev="http://www.w3.org/2001/xml-events" xmlns:xlink="http://www.w3.org/1999/xlink"><defs /><polyline fill="none" points="82.0068,111.5119 61.1797,111.078 45.9932,107.1729 28.2034,96.7593 19.9593,88.9492 13.8847,78.9695 10.4136,68.9898 8.678,58.1424 9.5458,37.3153 13.4508,29.0712 20.3932,22.1288 36.0136,13.8847 45.9932,11.7153 68.122,11.2814 80.7051,12.1492 91.1186,16.4881 100.2305,22.9966 107.6068,31.6746 113.6814,39.9186 117.1525,47.7288 119.322,57.2746 118.4542,78.5356 108.4746,99.3627 102.8339,105.4373 95.4576,110.6441 89.8169,113.6814 81.139,114.9831 77.6678,112.3797 75.4983,107.1729" stroke="#00007f" stroke-width="2" /><polyline fill="none" points="45.9932,13.0169 56.8407,46.861" stroke="#0028ff" stroke-width="2" /><polyline fill="none" points="54.2373,37.7492 57.7085,53.8034 56.8407,99.3627" stroke="#00d4ff" stroke-width="2" /><polyline fill="none" points="55.1051,91.5525 44.6915,110.2102" stroke="#7cff79" stroke-width="2" /><polyline fill="none" points="75.4983,8.678 75.0644,52.9356 76.8,65.5186 84.6102,92.4203 98.9288,114.9831" stroke="#ffe500" stroke-width="2" /><polyline fill="none" points="69.4237,23.4305 89.3831,37.3153" stroke="#ff4600" stroke-width="2" /><polyline fill="none" points="71.1593,54.6712 93.2881,63.3492" stroke="#7f0000" stroke-width="2" /></svg>