<?xml version="1.0" encoding="utf-8" ?>
<svg baseProfile="tiny" height="128" version="1.2" viewBox="0,0,128,128" width="128" xmlns="http://www.w3.org/2000/svg" xmlns:ev="http://www.w3.org/2001/xml-events" xmlns:xlink="http://www.w3.org/1999/xlink"><defs /><polyline fill="none" points="94.5898,13.0169 87.6475,9.9797 61.6136,9.9797 33.8441,19.5254 19.5254,28.6373 13.4508,38.1831 10.4136,46.4271 8.678,55.1051 8.678,69.8576 9.9797,78.9695 13.8847,87.6475 18.6576,94.1559 25.1661,98.4949 42.9559,101.5322 84.1763,101.5322 93.722,98.061 103.7017,95.8915 110.2102,88.0814 118.4542,64.6508 119.322,47.7288 118.4542,43.3898 106.739,23.4305 98.061,16.0542 88.0814,9.9797" stroke="#00007f" stroke-width="2" /><polyline fill="none" points="76.8,8.678 73.3288,11.2814 71.5932,15.1864 69.8576,25.6 70.7254,47.7288 75.9322,67.6881 79.4034,75.4983 87.2136,84.6102 96.3254,90.2508 104.1356,91.1186" stroke="#7cff79" stroke-width="2" /><polyline fill="none" points="20.3932,20.3932 35.1458,45.1254 42.0881,69.8576 41.6542,86.7797 36.4475,95.0237 32.5424,98.4949" stroke="#7f0000" stroke-width="2" /></svg>