<?xml version="1.0" encoding="utf-8" ?>
<svg baseProfile="tiny" height="128" version="1.2" viewBox="0,0,128,128" width="128" xmlns="http://www.w3.org/2000/svg" xmlns:ev="http://www.w3.org/2001/xml-events" xmlns:xlink="http://www.w3.org/1999/xlink"><defs /><polyline fill="none" points="73.3288,19.9593 42.9559,28.6373 23.8644,41.2203 20.3932,44.2576 13.4508,55.539 9.9797,65.5186 8.678,75.4983 8.678,82.4407 12.1492,93.722 19.0915,103.2678 25.6,108.4746 33.4102,113.6814 46.4271,117.5864 71.1593,117.5864 80.7051,114.9831 90.2508,109.7763 101.0983,98.9288 106.3051,90.2508 110.6441,80.2712 118.8881,47.2949 119.322,32.9763 111.5119,25.1661 100.2305,18.2237 74.6305,9.5458 61.6136,8.678 58.1424,10.4136 53.3695,16.922 52.5017,21.6949 54.6712,23.4305" stroke="#00007f" stroke-width="2" /><polyline fill="none" points="81.139,12.1492 82.8746,40.3525 79.8373,56.4068 76.8,65.5186 72.8949,70.2915 49.0305,88.0814 40.7864,91.1186 33.4102,92.4203" stroke="#7cff79" stroke-width="2" /><polyline fill="none" points="93.2881,20.3932 96.7593,67.2542 96.7593,85.0441 90.6847,87.6475 86.3458,91.9864 71.5932,90.2508 65.9525,95.0237 61.1797,95.8915" stroke="#7f0000" stroke-width="2" /></svg>