<?xml version="1.0" encoding="utf-8" ?>
<svg baseProfile="tiny" height="128" version="1.2" viewBox="0,0,128,128" width="128" xmlns="http://www.w3.org/2000/svg" xmlns:ev="http://www.w3.org/2001/xml-events" xmlns:xlink="http://www.w3.org/1999/xlink"><defs /><polyline fill="none" points="31.7823,31.3469 23.0748,36.5714 10.0136,49.6327 8.7075,85.7687 11.3197,92.2993 20.898,101.8776 30.4762,108.4082 50.5034,114.9388 74.449,116.2449 99.2653,112.7619 105.3605,105.3605 110.1497,96.2177 118.8571,74.0136 119.2925,53.1156 116.6803,44.8435 110.585,34.8299 87.0748,16.9796 72.7075,11.7551 58.7755,8.7075 46.1497,9.1429 38.3129,13.932 32.6531,19.1565 26.1224,33.9592" stroke="#00007f" stroke-width="2" /><polyline fill="none" points="30.0408,39.1837 63.1293,66.6122 70.966,77.0612 76.6259,105.7959" stroke="#7cff79" stroke-width="2" /><polyline fill="none" points="42.2313,13.932 77.4966,33.0884 87.0748,50.9388 91.8639,64.8707 93.6054,78.8027 91.8639,92.7347" stroke="#7f0000" stroke-width="2" /></svg>