<?xml version="1.0" encoding="utf-8" ?>
<svg baseProfile="tiny" height="128" version="1.2" viewBox="0,0,128,128" width="128" xmlns="http://www.w3.org/2000/svg" xmlns:ev="http://www.w3.org/2001/xml-events" xmlns:xlink="http://www.w3.org/1999/xlink"><defs /><polyline fill="none" points="93.722,11.7153 82.4407,8.678 63.3492,8.678 40.3525,14.3186 31.6746,17.7898 16.4881,27.7695 10.8475,35.1458 8.678,42.9559 9.5458,56.8407 14.3186,68.5559 19.0915,73.3288 19.9593,77.2339 25.1661,85.0441 33.4102,93.722 51.6339,105.8712 62.0475,110.6441 74.6305,111.5119 82.4407,113.6814 90.6847,113.6814 102.4,107.6068 113.6814,92.4203 116.2847,84.6102 119.322,68.5559 119.322,36.8814 108.4746,20.8271 88.0814,12.1492 69.4237,11.7153" stroke="#00007f" stroke-width="2" /><polyline fill="none" points="27.7695,17.7898 49.0305,28.6373 52.0678,31.6746 53.8034,36.8814 53.8034,42.9559 50.7661,54.2373 45.1254,70.7254 36.4475,82.8746 27.7695,88.0814" stroke="#7cff79" stroke-width="2" /><polyline fill="none" points="102.4,19.9593 98.061,19.9593 86.3458,28.2034 82.0068,36.4475 79.4034,48.5966 79.4034,56.4068 82.8746,65.0847 88.0814,72.461 88.5153,76.3661 96.3254,87.6475 109.3424,94.1559" stroke="#7f0000" stroke-width="2" /></svg>