<?xml version="1.0" encoding="utf-8" ?>
<svg baseProfile="tiny" height="128" version="1.2" viewBox="0,0,128,128" width="128" xmlns="http://www.w3.org/2000/svg" xmlns:ev="http://www.w3.org/2001/xml-events" xmlns:xlink="http://www.w3.org/1999/xlink"><defs /><polyline fill="none" points="27.3356,109.7763 19.5254,103.7017 14.3186,95.8915 10.4136,84.1763 8.678,72.461 10.4136,60.3119 15.6203,43.3898 30.8068,23.4305 34.7119,19.9593 48.5966,12.5831 65.0847,8.678 74.1966,10.4136 82.8746,13.8847 90.6847,19.9593 96.3254,26.4678 112.8136,57.2746 115.4169,70.2915 113.2475,88.9492 101.5322,106.3051 97.6271,110.2102 88.9492,115.8508 70.7254,119.322 52.9356,117.1525 35.5797,110.6441 27.7695,109.3424 26.0339,107.6068" stroke="#00007f" stroke-width="2" /><polyline fill="none" points="18.6576,42.0881 25.1661,41.6542 31.2407,43.8237 36.4475,49.0305 43.3898,62.9153 44.6915,73.7627 42.9559,91.5525 38.6169,103.7017 34.7119,112.3797 33.8441,112.3797" stroke="#004cff" stroke-width="2" /><polyline fill="none" points="23.8644,60.3119 27.3356,60.7458 43.8237,51.6339" stroke="#29ffcd" stroke-width="2" /><polyline fill="none" points="36.8814,82.8746 43.3898,81.5729" stroke="#cdff29" stroke-width="2" /><polyline fill="none" points="33.4102,97.1932 44.6915,99.7966" stroke="#ff6700" stroke-width="2" /><polyline fill="none" points="73.7627,32.9763 69.4237,34.7119 65.9525,38.6169" stroke="#7f0000" stroke-width="2" /></svg>