<?xml version="1.0" encoding="utf-8" ?>
<svg baseProfile="tiny" height="128" version="1.2" viewBox="0,0,128,128" width="128" xmlns="http://www.w3.org/2000/svg" xmlns:ev="http://www.w3.org/2001/xml-events" xmlns:xlink="http://www.w3.org/1999/xlink"><defs /><polyline fill="none" points="66.3864,14.7525 51.2,15.6203 42.522,21.6949 32.5424,32.9763 13.8847,55.9729 8.678,72.8949 8.678,78.5356 10.4136,88.0814 14.7525,93.2881 23.4305,101.0983 38.6169,110.6441 58.1424,118.4542 81.139,119.322 85.478,118.4542 90.6847,114.1153 95.8915,108.0407 101.0983,97.1932 104.5695,87.6475 104.5695,78.1017 101.9661,67.6881 87.2136,32.9763 75.4983,17.3559 61.6136,8.678 56.4068,8.678 52.5017,10.4136 48.5966,16.4881" stroke="#00007f" stroke-width="2" /><polyline fill="none" points="47.7288,17.3559 50.3322,26.9017 50.3322,51.2 48.1627,60.3119 39.9186,75.9322 18.2237,106.3051" stroke="#7cff79" stroke-width="2" /><polyline fill="none" points="87.2136,30.3729 78.1017,30.8068 72.461,32.9763 59.878,41.6542 47.7288,53.3695 39.9186,66.8203 39.0508,82.0068 45.1254,98.061 45.1254,102.8339 52.0678,116.2847 56.4068,118.4542 57.2746,117.5864" stroke="#7f0000" stroke-width="2" /></svg>