<?xml version="1.0" encoding="utf-8" ?>
<svg baseProfile="tiny" height="128" version="1.2" viewBox="0,0,128,128" width="128" xmlns="http://www.w3.org/2000/svg" xmlns:ev="http://www.w3.org/2001/xml-events" xmlns:xlink="http://www.w3.org/1999/xlink"><defs /><polyline fill="none" points="99.3627,17.3559 93.722,19.5254 76.8,20.3932 55.1051,24.2983 37.3153,33.4102 22.5627,45.1254 16.922,52.5017 9.5458,68.122 8.678,76.3661 9.9797,93.2881 19.5254,105.4373 28.6373,113.2475 32.5424,115.8508 45.9932,119.322 57.7085,119.322 62.4814,116.2847 81.5729,96.3254 92.8542,82.4407 100.2305,69.4237 105.0034,57.7085 110.2102,38.1831 111.078,19.5254 106.3051,11.2814 102.8339,8.678 100.2305,8.678" stroke="#00007f" stroke-width="2" /><polyline fill="none" points="33.8441,36.8814 44.6915,37.3153 49.4644,39.4847 51.6339,42.9559 52.5017,50.3322 52.5017,65.9525 47.7288,101.0983 43.3898,108.9085 37.3153,113.2475" stroke="#7cff79" stroke-width="2" /><polyline fill="none" points="112.3797,25.1661 103.2678,26.9017 99.3627,29.0712 87.2136,41.6542 77.6678,56.4068 74.1966,72.0271 74.1966,88.9492 81.5729,99.3627 84.6102,100.6644" stroke="#7f0000" stroke-width="2" /></svg>