<?xml version="1.0" encoding="utf-8" ?>
<svg baseProfile="tiny" height="128" version="1.2" viewBox="0,0,128,128" width="128" xmlns="http://www.w3.org/2000/svg" xmlns:ev="http://www.w3.org/2001/xml-events" xmlns:xlink="http://www.w3.org/1999/xlink"><defs /><polyline fill="none" points="68.122,11.7153 45.1254,11.2814 39.0508,12.1492 32.5424,14.3186 22.9966,21.261 13.8847,32.5424 9.1119,52.0678 8.678,63.7831 12.5831,82.0068 19.9593,93.2881 28.2034,99.7966 45.1254,107.6068 55.539,110.6441 74.1966,111.9458 93.722,105.0034 108.0407,93.722 114.9831,79.4034 118.4542,65.9525 119.322,57.7085 118.4542,42.0881 114.5492,33.8441 108.9085,27.7695 96.7593,22.1288 84.6102,13.8847 76.3661,12.5831 55.539,13.4508" stroke="#00007f" stroke-width="2" /><polyline fill="none" points="86.3458,13.8847 74.6305,14.3186 63.7831,23.4305 54.6712,38.1831 54.6712,48.5966 62.4814,68.5559 72.8949,84.1763 92.4203,98.061 104.5695,103.2678" stroke="#7cff79" stroke-width="2" /><polyline fill="none" points="40.3525,8.678 48.1627,13.4508 54.6712,24.2983 65.5186,57.7085 65.9525,68.9898 62.0475,79.4034 52.0678,92.4203 42.522,95.8915 26.0339,95.4576" stroke="#7f0000" stroke-width="2" /></svg>