<?xml version="1.0" encoding="utf-8" ?>
<svg baseProfile="tiny" height="128" version="1.2" viewBox="0,0,128,128" width="128" xmlns="http://www.w3.org/2000/svg" xmlns:ev="http://www.w3.org/2001/xml-events" xmlns:xlink="http://www.w3.org/1999/xlink"><defs /><polyline fill="none" points="36.1361,48.7619 32.6531,43.9728 31.3469,33.9592 33.0884,27.8639 42.2313,16.1088 49.6327,12.1905 65.3061,8.7075 74.0136,9.1429 81.415,12.6259 96.6531,26.1224 103.1837,35.2653 108.8435,47.8912 114.068,72.7075 114.5034,90.5578 109.7143,98.8299 99.2653,104.4898 73.5782,115.3741 58.3401,119.2925 35.7007,119.2925 27.8639,117.1156 15.6735,110.585 11.3197,105.3605 9.1429,97.9592 8.7075,80.9796 10.8844,70.966 17.8503,55.7279 24.381,45.7143 31.7823,40.0544 39.619,36.5714" stroke="#00007f" stroke-width="2" /><polyline fill="none" points="45.2789,16.9796 51.3741,28.2993 66.1769,47.4558 100.5714,97.9592" stroke="#0000d1" stroke-width="2" /><polyline fill="none" points="68.3537,64.0 70.5306,62.2585 82.2857,59.6463" stroke="#0010ff" stroke-width="2" /><polyline fill="none" points="62.2585,53.1156 63.1293,50.9388 71.8367,46.1497" stroke="#0058ff" stroke-width="2" /><polyline fill="none" points="49.6327,35.7007 60.9524,24.8163" stroke="#00a4ff" stroke-width="2" /><polyline fill="none" points="45.2789,25.6871 51.3741,16.1088" stroke="#05ecf1" stroke-width="2" /><polyline fill="none" points="68.3537,77.932 80.1088,69.6599 90.1224,67.483" stroke="#3fffb7" stroke-width="2" /><polyline fill="none" points="84.898,85.7687 99.2653,80.9796" stroke="#7cff79" stroke-width="2" /><polyline fill="none" points="82.7211,97.0884 100.5714,84.898" stroke="#b7ff3f" stroke-width="2" /><polyline fill="none" points="23.0748,54.8571 37.4422,67.483 57.9048,81.415 69.2245,91.4286 80.9796,104.9252 84.0272,106.6667" stroke="#f1fc05" stroke-width="2" /><polyline fill="none" points="38.7483,70.5306 40.9252,64.8707 49.1973,57.034" stroke="#ffb900" stroke-width="2" /><polyline fill="none" points="47.4558,77.932 60.0816,67.483" stroke="#ff7300" stroke-width="2" /><polyline fill="none" points="62.2585,84.898 66.6122,81.8503" stroke="#ff3000" stroke-width="2" /><polyline fill="none" points="68.3537,94.9116 70.5306,91.8639 80.9796,86.2041" stroke="#d10000" stroke-width="2" /><polyline fill="none" points="74.449,104.0544 82.2857,96.6531 86.6395,94.0408" stroke="#7f0000" stroke-width="2" /></svg>