<?xml version="1.0" encoding="utf-8" ?>
<svg baseProfile="tiny" height="128" version="1.2" viewBox="0,0,128,128" width="128" xmlns="http://www.w3.org/2000/svg" xmlns:ev="http://www.w3.org/2001/xml-events" xmlns:xlink="http://www.w3.org/1999/xlink"><defs /><polyline fill="none" points="55.1051,16.922 32.9763,23.4305 23.4305,29.0712 17.7898,35.1458 10.8475,50.3322 8.678,60.3119 9.5458,70.7254 13.4508,80.2712 17.7898,86.3458 25.6,94.5898 35.5797,101.0983 53.8034,108.4746 66.3864,109.3424 81.5729,106.3051 98.9288,96.7593 105.0034,89.3831 114.5492,73.3288 119.322,57.2746 119.322,40.3525 117.1525,36.8814 103.7017,24.7322 83.7424,9.9797 75.9322,8.678 69.4237,13.4508 59.0102,14.3186 56.4068,15.6203" stroke="#00007f" stroke-width="2" /><polyline fill="none" points="58.5763,21.6949 56.4068,34.278 58.1424,42.0881 62.0475,50.7661 67.2542,57.7085 71.5932,62.0475 76.3661,64.2169 82.8746,64.6508 98.4949,56.4068 110.2102,46.861 115.4169,40.3525 114.5492,37.7492" stroke="#00d4ff" stroke-width="2" /><polyline fill="none" points="22.9966,90.2508 29.0712,83.7424 32.9763,82.0068 45.1254,81.5729 52.0678,82.8746 58.5763,86.7797 64.2169,93.722 63.7831,97.1932 58.1424,103.7017" stroke="#ffe500" stroke-width="2" /><polyline fill="none" points="15.6203,53.8034 25.6,50.3322 31.2407,44.6915 30.3729,42.522" stroke="#7f0000" stroke-width="2" /></svg>