<?xml version="1.0" encoding="utf-8" ?>
<svg baseProfile="tiny" height="128" version="1.2" viewBox="0,0,128,128" width="128" xmlns="http://www.w3.org/2000/svg" xmlns:ev="http://www.w3.org/2001/xml-events" xmlns:xlink="http://www.w3.org/1999/xlink"><defs /><polyline fill="none" points="55.9729,8.678 42.0881,16.0542 28.6373,26.4678 19.0915,36.4475 13.8847,45.5593 9.1119,59.4441 8.678,65.5186 11.2814,75.9322 20.3932,87.2136 26.9017,92.8542 34.278,97.1932 49.0305,102.4 65.5186,106.3051 78.1017,106.3051 86.3458,104.5695 94.5898,99.3627 105.4373,85.478 115.8508,65.5186 119.322,53.3695 119.322,45.5593 117.1525,40.3525 111.5119,31.6746 106.739,29.0712 91.1186,22.9966 72.8949,19.9593 62.4814,13.8847 53.3695,11.2814" stroke="#00007f" stroke-width="2" /><polyline fill="none" points="91.9864,22.9966 89.8169,29.0712 89.8169,39.9186 96.3254,68.5559 97.1932,83.3085 100.6644,85.478" stroke="#00d4ff" stroke-width="2" /><polyline fill="none" points="33.4102,24.7322 36.4475,43.3898 36.4475,64.2169 34.278,69.8576 30.3729,74.1966 23.4305,87.6475 21.261,90.2508 20.8271,88.5153" stroke="#ffe500" stroke-width="2" /><polyline fill="none" points="61.6136,11.7153 64.6508,49.8983 67.2542,63.3492 68.5559,87.2136 68.122,101.0983" stroke="#7f0000" stroke-width="2" /></svg>