<?xml version="1.0" encoding="utf-8" ?>
<svg baseProfile="tiny" height="128" version="1.2" viewBox="0,0,128,128" width="128" xmlns="http://www.w3.org/2000/svg" xmlns:ev="http://www.w3.org/2001/xml-events" xmlns:xlink="http://www.w3.org/1999/xlink"><defs /><polyline fill="none" points="24.7322,17.3559 17.3559,25.1661 10.8475,40.3525 8.678,59.878 8.678,83.7424 10.4136,92.8542 16.4881,104.1356 21.261,109.3424 31.6746,117.1525 45.5593,119.322 60.7458,118.4542 68.9898,117.1525 81.5729,110.6441 93.2881,101.9661 97.6271,96.7593 106.3051,79.8373 109.3424,65.0847 109.3424,52.9356 102.8339,36.8814 93.722,26.4678 82.4407,16.4881 74.6305,13.0169 53.8034,8.678 34.7119,8.678 31.2407,9.9797 31.6746,17.3559 36.8814,26.4678 41.2203,41.2203 43.3898,70.7254 41.2203,80.2712 36.8814,89.8169 27.3356,104.1356 26.9017,107.6068 23.8644,107.6068" stroke="#00007f" stroke-width="2" /><polyline fill="none" points="75.9322,18.6576 73.3288,25.1661 66.3864,52.5017 64.2169,72.461 64.2169,89.8169 71.5932,101.9661 77.2339,107.6068" stroke="#7f0000" stroke-width="2" /></svg>