<?xml version="1.0" encoding="utf-8" ?>
<svg baseProfile="tiny" height="128" version="1.2" viewBox="0,0,128,128" width="128" xmlns="http://www.w3.org/2000/svg" xmlns:ev="http://www.w3.org/2001/xml-events" xmlns:xlink="http://www.w3.org/1999/xlink"><defs /><polyline fill="none" points="59.878,10.4136 53.8034,8.678 44.6915,11.2814 31.2407,22.9966 23.8644,32.1085 11.7153,54.6712 8.678,66.3864 8.678,89.8169 13.8847,101.0983 20.8271,108.9085 30.3729,115.4169 41.2203,118.4542 62.9153,119.322 72.461,114.5492 81.5729,107.6068 89.3831,99.3627 95.8915,88.0814 102.8339,66.8203 102.8339,46.4271 99.7966,39.0508 94.1559,31.6746 78.9695,23.4305 68.9898,21.6949 41.2203,20.3932" stroke="#00007f" stroke-width="2" /><polyline fill="none" points="29.5051,26.4678 45.9932,61.6136 50.7661,82.8746 50.7661,98.4949 48.1627,103.2678 39.9186,111.9458" stroke="#004cff" stroke-width="2" /><polyline fill="none" points="81.139,23.4305 77.2339,39.4847 77.2339,70.2915 83.7424,85.478 91.5525,94.5898 95.4576,96.7593" stroke="#29ffcd" stroke-width="2" /><polyline fill="none" points="22.1288,49.8983 28.2034,45.1254 54.6712,28.6373" stroke="#cdff29" stroke-width="2" /><polyline fill="none" points="32.1085,75.0644 34.7119,71.1593 50.7661,59.4441" stroke="#ff6700" stroke-width="2" /><polyline fill="none" points="39.9186,100.2305 54.6712,90.2508 63.3492,87.6475" stroke="#7f0000" stroke-width="2" /></svg>