<?xml version="1.0" encoding="utf-8" ?>
<svg baseProfile="tiny" height="128" version="1.2" viewBox="0,0,128,128" width="128" xmlns="http://www.w3.org/2000/svg" xmlns:ev="http://www.w3.org/2001/xml-events" xmlns:xlink="http://www.w3.org/1999/xlink"><defs /><polyline fill="none" points="9.5458,59.4441 9.1119,50.3322 12.1492,42.9559 20.8271,30.8068 29.0712,22.9966 38.6169,17.3559 48.5966,13.4508 69.4237,9.9797 78.1017,9.9797 86.3458,11.7153 94.1559,14.7525 99.7966,19.9593 105.8712,26.9017 109.3424,34.7119 114.5492,56.8407 112.8136,75.4983 108.9085,83.7424 103.7017,90.6847 98.4949,95.4576 89.8169,102.4 70.7254,112.8136 62.4814,114.9831 45.9932,116.7186 31.6746,110.2102 24.7322,102.4 16.0542,86.7797 12.1492,75.0644 8.678,50.7661" stroke="#00007f" stroke-width="2" /><polyline fill="none" points="34.278,27.3356 51.6339,114.1153" stroke="#00d4ff" stroke-width="2" /><polyline fill="none" points="64.2169,8.678 68.5559,22.5627 79.8373,83.3085 82.8746,90.2508 88.5153,97.1932" stroke="#ffe500" stroke-width="2" /><polyline fill="none" points="87.6475,15.6203 107.6068,70.2915 119.322,95.8915" stroke="#7f0000" stroke-width="2" /></svg>