<?xml version="1.0" encoding="utf-8" ?>
<svg baseProfile="tiny" height="128" version="1.2" viewBox="0,0,128,128" width="128" xmlns="http://www.w3.org/2000/svg" xmlns:ev="http://www.w3.org/2001/xml-events" xmlns:xlink="http://www.w3.org/1999/xlink"><defs /><polyline fill="none" points="104.1356,35.1458 93.722,24.7322 87.2136,19.9593 75.9322,16.0542 63.7831,14.7525 55.1051,15.6203 42.0881,19.9593 33.8441,24.7322 22.9966,34.278 14.3186,45.9932 10.8475,54.6712 8.678,74.1966 9.9797,84.1763 13.8847,96.7593 18.6576,104.1356 26.9017,111.9458 33.8441,115.8508 44.2576,118.8881 55.1051,119.322 66.3864,116.2847 80.2712,109.3424 89.3831,102.4 101.0983,88.9492 107.6068,76.3661 112.3797,63.3492 114.1153,55.539 113.6814,46.4271 111.078,39.9186 106.3051,34.278 101.5322,30.3729 91.1186,26.0339" stroke="#00007f" stroke-width="2" /><polyline fill="none" points="59.0102,8.678 61.1797,16.0542 44.2576,47.7288 38.1831,72.461 37.3153,90.2508 38.6169,99.7966 42.522,108.0407 44.6915,108.0407 45.1254,106.3051" stroke="#0028ff" stroke-width="2" /><polyline fill="none" points="78.1017,23.8644 71.5932,36.8814 70.7254,59.0102 73.7627,81.5729 78.5356,96.7593" stroke="#00d4ff" stroke-width="2" /><polyline fill="none" points="69.4237,38.1831 66.3864,44.6915 68.5559,45.9932" stroke="#7cff79" stroke-width="2" /><polyline fill="none" points="74.1966,49.4644 65.9525,51.2" stroke="#ffe500" stroke-width="2" /><polyline fill="none" points="75.0644,61.1797 66.8203,63.3492" stroke="#ff4600" stroke-width="2" /><polyline fill="none" points="75.9322,73.7627 69.4237,74.6305" stroke="#7f0000" stroke-width="2" /></svg>