<?xml version="1.0" encoding="utf-8" ?>
<svg baseProfile="tiny" height="128" version="1.2" viewBox="0,0,128,128" width="128" xmlns="http://www.w3.org/2000/svg" xmlns:ev="http://www.w3.org/2001/xml-events" xmlns:xlink="http://www.w3.org/1999/xlink"><defs /><polyline fill="none" points="12.1492,39.4847 16.4881,30.8068 24.7322,22.9966 54.6712,10.4136 61.6136,8.678 75.9322,8.678 85.0441,12.1492 100.2305,23.8644 111.9458,42.522 118.8881,60.7458 119.322,68.9898 117.1525,75.4983 106.739,93.2881 96.7593,101.0983 89.8169,104.1356 70.2915,106.3051 55.1051,106.739 33.4102,99.3627 15.1864,87.6475 12.1492,83.3085 9.1119,72.8949 8.678,60.7458 9.9797,50.3322 14.7525,36.8814 26.9017,23.8644" stroke="#00007f" stroke-width="2" /><polyline fill="none" points="32.1085,22.1288 40.3525,29.5051 45.5593,37.3153 49.4644,75.0644 39.9186,95.0237 28.6373,102.4" stroke="#00d4ff" stroke-width="2" /><polyline fill="none" points="88.0814,17.3559 76.8,38.6169 76.3661,73.7627 79.4034,83.3085 88.0814,101.5322 90.2508,103.7017" stroke="#ffe500" stroke-width="2" /><polyline fill="none" points="72.461,29.0712 72.461,29.0712" stroke="#7f0000" stroke-width="2" /></svg>