<?xml version="1.0" encoding="utf-8" ?>
<svg baseProfile="tiny" height="128" version="1.2" viewBox="0,0,128,128" width="128" xmlns="http://www.w3.org/2000/svg" xmlns:ev="http://www.w3.org/2001/xml-events" xmlns:xlink="http://www.w3.org/1999/xlink"><defs /><polyline fill="none" points="69.4237,10.4136 60.7458,9.9797 48.1627,13.4508 37.7492,18.6576 29.939,25.6 16.0542,46.861 12.1492,59.0102 8.678,75.0644 10.8475,87.2136 18.6576,100.6644 28.6373,109.7763 34.7119,112.8136 49.0305,115.4169 62.4814,114.1153 74.1966,108.4746 85.0441,100.6644 98.9288,87.2136 110.6441,64.2169 114.1153,48.5966 111.5119,37.3153 107.6068,28.6373 99.3627,18.6576 88.5153,12.5831 71.1593,8.678" stroke="#00007f" stroke-width="2" /><polyline fill="none" points="31.2407,29.939 36.4475,35.1458 42.0881,43.3898 49.8983,68.5559 49.8983,89.8169 47.2949,106.3051 42.9559,119.322" stroke="#7cff79" stroke-width="2" /><polyline fill="none" points="79.4034,9.1119 68.9898,49.4644 69.4237,64.6508 77.2339,82.0068 83.7424,88.0814 90.6847,91.5525" stroke="#7f0000" stroke-width="2" /></svg>