<?xml version="1.0" encoding="utf-8" ?>
<svg baseProfile="tiny" height="128" version="1.2" viewBox="0,0,128,128" width="128" xmlns="http://www.w3.org/2000/svg" xmlns:ev="http://www.w3.org/2001/xml-events" xmlns:xlink="http://www.w3.org/1999/xlink"><defs /><polyline fill="none" points="90.6847,16.922 75.0644,10.8475 63.7831,8.678 52.5017,9.1119 44.2576,11.7153 25.1661,24.2983 16.4881,37.3153 11.2814,53.3695 8.678,72.461 13.4508,91.5525 15.1864,95.0237 26.0339,107.1729 39.4847,114.1153 57.2746,118.4542 74.6305,116.2847 85.478,112.3797 96.3254,105.8712 105.4373,98.061 114.1153,85.0441 117.5864,72.8949 119.322,60.7458 117.1525,45.9932 113.2475,32.1085 109.7763,27.7695 102.4,19.9593 89.8169,14.3186" stroke="#00007f" stroke-width="2" /><polyline fill="none" points="43.3898,112.3797 39.4847,89.8169 47.7288,57.2746 58.1424,36.8814 67.2542,25.6 85.0441,12.5831" stroke="#0000f1" stroke-width="2" /><polyline fill="none" points="35.1458,101.0983 48.5966,101.5322" stroke="#004cff" stroke-width="2" /><polyline fill="none" points="32.9763,84.1763 36.8814,85.478" stroke="#00b0ff" stroke-width="2" /><polyline fill="none" points="37.7492,73.7627 46.861,73.7627" stroke="#29ffcd" stroke-width="2" /><polyline fill="none" points="48.5966,56.4068 52.5017,58.1424" stroke="#7cff79" stroke-width="2" /><polyline fill="none" points="54.2373,40.7864 58.1424,40.7864" stroke="#cdff29" stroke-width="2" /><polyline fill="none" points="59.878,30.8068 67.6881,31.6746" stroke="#ffc400" stroke-width="2" /><polyline fill="none" points="78.5356,13.8847 80.2712,15.1864" stroke="#ff6700" stroke-width="2" /><polyline fill="none" points="73.3288,23.4305 77.6678,28.2034" stroke="#f10700" stroke-width="2" /><polyline fill="none" points="44.6915,55.9729 44.6915,55.9729" stroke="#7f0000" stroke-width="2" /></svg>