<?xml version="1.0" encoding="utf-8" ?>
<svg baseProfile="tiny" height="128" version="1.2" viewBox="0,0,128,128" width="128" xmlns="http://www.w3.org/2000/svg" xmlns:ev="http://www.w3.org/2001/xml-events" xmlns:xlink="http://www.w3.org/1999/xlink"><defs /><polyline fill="none" points="55.9729,12.1492 51.6339,13.0169 41.2203,18.2237 30.3729,26.0339 19.5254,36.8814 11.7153,49.8983 9.5458,57.2746 8.678,65.9525 9.9797,75.0644 13.0169,83.7424 23.8644,101.9661 29.5051,108.0407 36.4475,114.1153 50.7661,119.322 64.2169,118.4542 75.9322,114.1153 90.2508,106.739 103.2678,97.1932 111.5119,86.7797 117.1525,74.6305 119.322,56.4068 117.1525,42.0881 112.8136,32.5424 106.3051,24.7322 88.5153,12.5831 77.6678,9.5458 72.8949,8.678 63.7831,9.5458 55.539,14.3186" stroke="#00007f" stroke-width="2" /><polyline fill="none" points="99.3627,28.2034 95.4576,32.1085 92.8542,40.7864 91.5525,61.1797 95.0237,81.139 100.6644,92.8542" stroke="#0010ff" stroke-width="2" /><polyline fill="none" points="83.7424,91.5525 88.5153,88.5153 109.3424,82.8746" stroke="#00a4ff" stroke-width="2" /><polyline fill="none" points="78.5356,75.4983 88.5153,72.461 108.9085,71.1593" stroke="#3fffb7" stroke-width="2" /><polyline fill="none" points="85.9119,52.0678 100.6644,55.539" stroke="#b7ff3f" stroke-width="2" /><polyline fill="none" points="83.7424,25.6 110.2102,33.4102" stroke="#ffb900" stroke-width="2" /><polyline fill="none" points="97.6271,27.3356 97.6271,23.4305 100.6644,22.1288" stroke="#ff3000" stroke-width="2" /><polyline fill="none" points="40.7864,10.4136 40.7864,10.4136" stroke="#7f0000" stroke-width="2" /></svg>