<?xml version="1.0" encoding="utf-8" ?>
<svg baseProfile="tiny" height="128" version="1.2" viewBox="0,0,128,128" width="128" xmlns="http://www.w3.org/2000/svg" xmlns:ev="http://www.w3.org/2001/xml-events" xmlns:xlink="http://www.w3.org/1999/xlink"><defs /><polyline fill="none" points="103.2678,13.0169 100.6644,13.0169 97.1932,15.6203 94.1559,20.8271 94.1559,25.1661 98.9288,29.939 108.4746,31.6746 117.5864,24.2983 119.322,20.8271 118.8881,17.7898 112.8136,13.4508 106.739,12.1492 100.6644,13.4508" stroke="#00007f" stroke-width="2" /><polyline fill="none" points="101.0983,14.3186 101.0983,21.261" stroke="#0028ff" stroke-width="2" /><polyline fill="none" points="106.739,8.678 108.9085,15.1864" stroke="#00d4ff" stroke-width="2" /><polyline fill="none" points="103.2678,19.0915 109.3424,23.8644" stroke="#7cff79" stroke-width="2" /><polyline fill="none" points="109.3424,24.2983 104.1356,20.8271" stroke="#ffe500" stroke-width="2" /><polyline fill="none" points="106.739,25.1661 102.8339,20.8271" stroke="#ff4600" stroke-width="2" /><polyline fill="none" points="19.5254,29.0712 10.4136,33.8441 8.678,36.4475 9.1119,39.9186 13.8847,45.5593 19.0915,47.2949 24.7322,46.861 29.0712,39.0508 29.939,28.6373 27.7695,26.9017 22.9966,26.9017 16.0542,30.8068" stroke="#7f0000" stroke-width="2" /></svg>