<?xml version="1.0" encoding="utf-8" ?>
<svg baseProfile="tiny" height="128" version="1.2" viewBox="0,0,128,128" width="128" xmlns="http://www.w3.org/2000/svg" xmlns:ev="http://www.w3.org/2001/xml-events" xmlns:xlink="http://www.w3.org/1999/xlink"><defs /><polyline fill="none" points="39.0508,22.1288 32.9763,20.3932 26.4678,20.3932 19.9593,22.9966 13.8847,28.6373 9.9797,36.4475 8.678,43.8237 8.678,68.5559 10.8475,89.3831 12.5831,96.3254 19.0915,105.4373 29.5051,114.1153 39.4847,118.4542 53.8034,119.322 62.4814,118.0203 72.8949,115.4169 89.8169,107.6068 95.8915,101.0983 99.3627,87.6475 99.3627,73.3288 94.1559,50.7661 89.3831,41.2203 79.4034,28.2034 68.5559,19.9593 55.1051,12.1492 40.3525,8.678 28.2034,9.1119" stroke="#00007f" stroke-width="2" /><polyline fill="none" points="25.6,23.4305 36.0136,25.6 38.6169,28.6373 41.6542,41.6542 41.2203,57.7085 35.1458,86.7797 32.1085,99.7966 27.3356,106.3051 30.8068,107.1729" stroke="#7cff79" stroke-width="2" /><polyline fill="none" points="81.139,26.0339 74.6305,28.6373 70.2915,35.1458 61.1797,61.1797 64.2169,87.6475 71.5932,103.7017 75.9322,106.3051" stroke="#7f0000" stroke-width="2" /></svg>