<?xml version="1.0" encoding="utf-8" ?>
<svg baseProfile="tiny" height="128" version="1.2" viewBox="0,0,128,128" width="128" xmlns="http://www.w3.org/2000/svg" xmlns:ev="http://www.w3.org/2001/xml-events" xmlns:xlink="http://www.w3.org/1999/xlink"><defs /><polyline fill="none" points="97.1932,14.3186 83.3085,8.678 66.8203,8.678 51.6339,13.8847 20.8271,36.4475 13.8847,44.2576 12.1492,49.4644 9.9797,67.6881 9.1119,86.7797 12.1492,95.4576 18.6576,103.7017 26.9017,110.6441 42.0881,117.5864 52.5017,119.322 82.8746,119.322 91.9864,115.8508 99.7966,111.078 107.6068,102.8339 115.8508,83.7424 117.1525,60.7458 115.4169,30.3729 114.1153,26.4678 103.7017,18.6576 93.722,17.3559" stroke="#00007f" stroke-width="2" /><polyline fill="none" points="8.678,80.7051 31.6746,80.7051 39.4847,81.5729 57.2746,88.5153 77.2339,98.061 85.9119,104.5695 96.7593,116.2847" stroke="#7cff79" stroke-width="2" /><polyline fill="none" points="27.7695,22.9966 46.861,40.7864 58.5763,46.4271 70.7254,48.5966 98.9288,48.5966 114.5492,43.8237" stroke="#7f0000" stroke-width="2" /></svg>