<?xml version="1.0" encoding="utf-8" ?>
<svg baseProfile="tiny" height="128" version="1.2" viewBox="0,0,128,128" width="128" xmlns="http://www.w3.org/2000/svg" xmlns:ev="http://www.w3.org/2001/xml-events" xmlns:xlink="http://www.w3.org/1999/xlink"><defs /><polyline fill="none" points="61.8231,8.7075 41.7959,9.1429 26.9932,14.8027 13.4966,24.381 10.449,29.1701 8.7075,40.9252 8.7075,53.1156 12.6259,63.1293 18.7211,69.6599 34.8299,82.2857 40.0544,85.3333 57.4694,90.5578 80.9796,90.1224 86.6395,88.8163 96.2177,84.4626 103.619,79.6735 113.1973,70.5306 119.2925,55.2925 119.2925,40.4898 113.1973,31.3469 107.102,25.6871 79.6735,13.4966 60.9524,9.1429" stroke="#00007f" stroke-width="2" /><polyline fill="none" points="46.1497,10.0136 47.8912,20.4626 46.585,42.2313 34.8299,59.6463 25.6871,67.9184 21.3333,70.0952" stroke="#7cff79" stroke-width="2" /><polyline fill="none" points="101.4422,29.1701 98.3946,30.0408 86.6395,40.0544 81.415,48.7619 77.932,60.0816 76.1905,87.9456" stroke="#7f0000" stroke-width="2" /></svg>