<?xml version="1.0" encoding="utf-8" ?>
<svg baseProfile="tiny" height="128" version="1.2" viewBox="0,0,128,128" width="128" xmlns="http://www.w3.org/2000/svg" xmlns:ev="http://www.w3.org/2001/xml-events" xmlns:xlink="http://www.w3.org/1999/xlink"><defs /><polyline fill="none" points="67.6881,14.7525 65.5186,13.4508 51.2,12.5831 38.6169,13.8847 21.6949,21.261 13.0169,30.3729 8.678,41.6542 9.1119,57.7085 15.1864,75.0644 23.8644,90.6847 30.8068,98.9288 45.9932,111.9458 54.6712,115.8508 73.7627,119.322 82.8746,119.322 91.5525,115.8508 99.3627,109.3424 106.3051,100.2305 111.5119,88.5153 114.5492,74.6305 114.9831,61.1797 112.8136,47.7288 106.739,36.8814 100.6644,28.6373 92.8542,22.1288 74.1966,12.1492 63.7831,8.678" stroke="#00007f" stroke-width="2" /><polyline fill="none" points="90.6847,21.6949 83.7424,26.9017 79.4034,33.4102 74.6305,42.9559 70.7254,59.4441 71.1593,85.478 79.8373,118.4542" stroke="#7cff79" stroke-width="2" /><polyline fill="none" points="36.0136,21.261 33.4102,21.261 27.3356,30.8068 24.2983,41.6542 24.2983,49.8983 28.2034,58.5763 50.3322,88.9492 54.6712,101.9661 54.6712,104.5695 52.0678,106.739" stroke="#7f0000" stroke-width="2" /></svg>