<?xml version="1.0" encoding="utf-8" ?>
<svg baseProfile="tiny" height="128" version="1.2" viewBox="0,0,128,128" width="128" xmlns="http://www.w3.org/2000/svg" xmlns:ev="http://www.w3.org/2001/xml-events" xmlns:xlink="http://www.w3.org/1999/xlink"><defs /><polyline fill="none" points="81.5729,17.7898 67.2542,10.4136 60.3119,8.678 51.6339,9.1119 35.1458,15.6203 19.9593,28.6373 12.1492,39.9186 8.678,56.8407 10.8475,70.7254 13.0169,75.4983 20.3932,84.6102 33.4102,95.8915 42.9559,101.5322 56.8407,105.8712 65.9525,106.739 76.8,105.8712 91.1186,101.5322 98.4949,96.3254 108.0407,86.7797 113.6814,76.3661 115.4169,67.6881 114.9831,59.0102 111.078,46.861 99.7966,29.939 74.1966,10.8475" stroke="#00007f" stroke-width="2" /><polyline fill="none" points="18.2237,16.922 26.4678,19.9593 39.9186,32.5424 46.861,43.3898 50.7661,54.6712 51.6339,68.5559 45.9932,90.6847 41.2203,96.7593 35.1458,98.9288" stroke="#0010ff" stroke-width="2" /><polyline fill="none" points="108.9085,19.0915 102.8339,23.8644 93.722,36.4475 91.1186,49.4644 91.9864,62.9153 94.1559,73.3288 102.4,90.2508 110.2102,97.1932 119.322,102.4" stroke="#00a4ff" stroke-width="2" /><polyline fill="none" points="33.8441,36.0136 42.9559,30.3729 49.4644,28.2034" stroke="#3fffb7" stroke-width="2" /><polyline fill="none" points="46.861,78.5356 59.878,72.8949" stroke="#b7ff3f" stroke-width="2" /><polyline fill="none" points="39.0508,97.6271 45.9932,96.3254" stroke="#ffb900" stroke-width="2" /><polyline fill="none" points="96.3254,37.7492 89.8169,39.9186 78.9695,47.7288" stroke="#ff3000" stroke-width="2" /><polyline fill="none" points="101.9661,72.8949 91.5525,78.9695" stroke="#7f0000" stroke-width="2" /></svg>