<?xml version="1.0" encoding="utf-8" ?>
<svg baseProfile="tiny" height="128" version="1.2" viewBox="0,0,128,128" width="128" xmlns="http://www.w3.org/2000/svg" xmlns:ev="http://www.w3.org/2001/xml-events" xmlns:xlink="http://www.w3.org/1999/xlink"><defs /><polyline fill="none" points="85.9119,14.7525 81.139,11.2814 71.1593,8.678 52.5017,9.5458 43.3898,14.7525 20.8271,37.3153 15.6203,44.6915 11.2814,56.4068 8.678,81.139 11.2814,88.9492 13.4508,91.5525 22.5627,97.1932 38.6169,100.6644 55.1051,100.6644 73.3288,98.061 97.6271,88.5153 108.4746,78.5356 114.5492,69.8576 118.8881,59.4441 119.322,52.9356 118.4542,36.0136 114.5492,26.4678 109.7763,22.1288 85.9119,12.1492 70.7254,9.5458" stroke="#00007f" stroke-width="2" /><polyline fill="none" points="43.8237,13.4508 54.2373,45.1254 55.539,64.6508 49.0305,82.4407 40.7864,95.8915" stroke="#7cff79" stroke-width="2" /><polyline fill="none" points="96.7593,13.4508 88.9492,38.1831 84.6102,61.1797 85.0441,72.8949 93.2881,88.9492" stroke="#7f0000" stroke-width="2" /></svg>