<?xml version="1.0" encoding="utf-8" ?>
<svg baseProfile="tiny" height="128" version="1.2" viewBox="0,0,128,128" width="128" xmlns="http://www.w3.org/2000/svg" xmlns:ev="http://www.w3.org/2001/xml-events" xmlns:xlink="http://www.w3.org/1999/xlink"><defs /><polyline fill="none" points="77.6678,11.2814 69.8576,8.678 47.7288,9.1119 36.8814,13.4508 19.0915,29.0712 12.1492,42.522 8.678,60.3119 9.1119,70.2915 14.3186,82.8746 21.261,92.4203 28.2034,97.6271 45.9932,103.2678 58.1424,105.0034 91.9864,105.0034 96.7593,103.2678 109.3424,95.0237 117.5864,83.3085 119.322,74.1966 118.8881,58.5763 108.9085,32.1085 102.4,24.7322 85.9119,18.6576 77.2339,12.1492" stroke="#00007f" stroke-width="2" /><polyline fill="none" points="39.0508,12.5831 45.5593,24.7322 45.5593,53.8034 40.7864,66.8203 25.6,88.0814" stroke="#00d4ff" stroke-width="2" /><polyline fill="none" points="88.5153,20.3932 85.0441,39.9186 85.0441,63.3492 93.722,83.3085 105.4373,97.1932" stroke="#ffe500" stroke-width="2" /><polyline fill="none" points="65.9525,13.4508 65.9525,21.6949" stroke="#7f0000" stroke-width="2" /></svg>