<?xml version="1.0" encoding="utf-8" ?>
<svg baseProfile="tiny" height="128" version="1.2" viewBox="0,0,128,128" width="128" xmlns="http://www.w3.org/2000/svg" xmlns:ev="http://www.w3.org/2001/xml-events" xmlns:xlink="http://www.w3.org/1999/xlink"><defs /><polyline fill="none" points="64.2169,8.678 49.4644,15.6203 31.6746,28.2034 18.2237,42.9559 11.2814,55.539 8.678,71.1593 9.9797,81.5729 16.922,95.4576 19.9593,99.7966 24.7322,103.2678 37.3153,111.078 45.9932,114.1153 76.3661,119.322 90.2508,118.8881 102.4,115.8508 105.4373,114.5492 110.2102,107.6068 111.5119,94.1559 104.1356,65.9525 98.9288,51.6339 85.0441,26.9017 66.3864,9.9797" stroke="#00007f" stroke-width="2" /><polyline fill="none" points="25.1661,33.4102 31.2407,40.7864 42.522,45.5593 81.139,46.861 88.0814,45.5593 105.4373,31.6746" stroke="#0000ff" stroke-width="2" /><polyline fill="none" points="30.3729,106.739 36.8814,100.6644 49.0305,96.7593 75.0644,96.7593 81.139,98.9288 88.0814,104.1356 89.3831,110.2102 86.3458,111.078 72.0271,105.8712" stroke="#0080ff" stroke-width="2" /><polyline fill="none" points="46.4271,95.0237 45.1254,101.9661 52.0678,95.4576" stroke="#15ffe1" stroke-width="2" /><polyline fill="none" points="59.0102,90.6847 64.2169,98.061 68.122,96.3254" stroke="#7cff79" stroke-width="2" /><polyline fill="none" points="73.3288,93.722 75.0644,101.9661 77.6678,102.8339 85.478,96.7593" stroke="#e4ff12" stroke-width="2" /><polyline fill="none" points="88.5153,94.5898 91.1186,100.2305" stroke="#ff9400" stroke-width="2" /><polyline fill="none" points="91.9864,100.6644 92.4203,108.9085 88.9492,108.4746 61.1797,88.5153" stroke="#ff1d00" stroke-width="2" /><polyline fill="none" points="36.0136,26.0339 35.1458,37.7492 38.1831,34.7119" stroke="#7f0000" stroke-width="2" /></svg>