<?xml version="1.0" encoding="utf-8" ?>
<svg baseProfile="tiny" height="128" version="1.2" viewBox="0,0,128,128" width="128" xmlns="http://www.w3.org/2000/svg" xmlns:ev="http://www.w3.org/2001/xml-events" xmlns:xlink="http://www.w3.org/1999/xlink"><defs /><polyline fill="none" points="52.5017,9.5458 45.1254,14.7525 37.7492,23.4305 20.3932,48.1627 8.678,70.2915 9.5458,82.4407 13.8847,90.2508 22.9966,98.4949 36.8814,104.5695 58.5763,105.4373 73.3288,108.9085 100.2305,111.9458 111.9458,111.9458 117.1525,103.7017 119.322,89.8169 119.322,72.8949 114.9831,58.1424 109.7763,48.5966 99.7966,36.0136 84.6102,19.9593 77.2339,13.8847 62.9153,8.678 55.539,11.7153 49.4644,9.5458" stroke="#00007f" stroke-width="2" /><polyline fill="none" points="28.6373,37.7492 32.5424,37.7492 39.4847,42.522 48.1627,55.1051 55.539,79.8373 55.539,88.0814 51.6339,95.4576" stroke="#00d4ff" stroke-width="2" /><polyline fill="none" points="50.3322,100.6644 50.3322,101.5322" stroke="#ffe500" stroke-width="2" /><polyline fill="none" points="82.8746,18.2237 79.4034,21.261 77.2339,25.6 71.5932,42.0881 69.4237,61.1797 69.4237,74.6305 73.3288,89.8169" stroke="#7f0000" stroke-width="2" /></svg>