<?xml version="1.0" encoding="utf-8" ?>
<svg baseProfile="tiny" height="128" version="1.2" viewBox="0,0,128,128" width="128" xmlns="http://www.w3.org/2000/svg" xmlns:ev="http://www.w3.org/2001/xml-events" xmlns:xlink="http://www.w3.org/1999/xlink"><defs /><polyline fill="none" points="18.2237,22.5627 13.4508,30.3729 9.5458,42.9559 8.678,56.4068 10.4136,62.4814 14.7525,72.0271 25.1661,85.478 43.8237,94.5898 69.8576,98.9288 89.3831,98.9288 96.7593,96.7593 106.739,90.2508 112.8136,84.1763 116.7186,77.2339 119.322,68.5559 118.0203,51.6339 111.078,39.9186 99.3627,28.6373 78.9695,17.7898 59.878,10.8475 41.6542,9.9797 20.8271,20.3932 18.2237,21.6949 30.8068,33.8441 35.5797,41.2203 41.2203,53.8034 42.0881,70.2915 39.9186,87.2136 37.7492,91.9864" stroke="#00007f" stroke-width="2" /><polyline fill="none" points="60.3119,8.678 63.7831,29.939 69.4237,46.861 78.9695,59.0102 93.2881,68.122" stroke="#7f0000" stroke-width="2" /></svg>