<?xml version="1.0" encoding="utf-8" ?>
<svg baseProfile="tiny" height="128" version="1.2" viewBox="0,0,128,128" width="128" xmlns="http://www.w3.org/2000/svg" xmlns:ev="http://www.w3.org/2001/xml-events" xmlns:xlink="http://www.w3.org/1999/xlink"><defs /><polyline fill="none" points="44.2576,20.3932 36.4475,29.5051 25.6,50.7661 9.5458,74.1966 8.678,88.9492 16.922,98.061 22.5627,100.2305 30.8068,110.2102 42.0881,112.3797 49.8983,117.1525 58.5763,117.1525 61.1797,119.322 71.1593,117.1525 71.5932,114.9831 81.139,106.3051 86.3458,95.4576 89.8169,91.1186 95.4576,77.2339 96.3254,40.7864 85.9119,26.9017 84.1763,22.1288 79.4034,17.3559 61.6136,8.678 55.1051,8.678 52.9356,9.9797 39.4847,22.5627 35.5797,28.2034" stroke="#00007f" stroke-width="2" /><polyline fill="none" points="36.0136,28.2034 36.0136,28.2034" stroke="#0000f1" stroke-width="2" /><polyline fill="none" points="33.4102,36.8814 33.4102,36.8814" stroke="#004cff" stroke-width="2" /><polyline fill="none" points="33.4102,36.8814 34.7119,43.3898" stroke="#00b0ff" stroke-width="2" /><polyline fill="none" points="35.1458,49.8983 35.1458,49.8983" stroke="#29ffcd" stroke-width="2" /><polyline fill="none" points="35.1458,38.6169 42.0881,49.4644 49.0305,52.5017" stroke="#7cff79" stroke-width="2" /><polyline fill="none" points="49.0305,52.5017 64.2169,46.861" stroke="#cdff29" stroke-width="2" /><polyline fill="none" points="71.5932,45.1254 73.7627,41.2203 89.3831,28.6373" stroke="#ffc400" stroke-width="2" /><polyline fill="none" points="18.6576,91.1186 24.2983,86.3458 31.2407,84.6102" stroke="#ff6700" stroke-width="2" /><polyline fill="none" points="42.522,84.6102 49.8983,89.8169 53.8034,94.5898" stroke="#f10700" stroke-width="2" /><polyline fill="none" points="62.9153,100.6644 64.2169,101.9661" stroke="#7f0000" stroke-width="2" /></svg>