<?xml version="1.0" encoding="utf-8" ?>
<svg baseProfile="tiny" height="128" version="1.2" viewBox="0,0,128,128" width="128" xmlns="http://www.w3.org/2000/svg" xmlns:ev="http://www.w3.org/2001/xml-events" xmlns:xlink="http://www.w3.org/1999/xlink"><defs /><polyline fill="none" points="77.2339,11.7153 65.0847,12.1492 56.8407,13.8847 37.3153,20.8271 27.3356,27.7695 16.4881,38.1831 9.9797,51.6339 8.678,62.4814 9.9797,69.4237 18.2237,80.7051 34.7119,91.1186 47.7288,95.0237 54.2373,95.0237 76.3661,95.0237 91.1186,88.5153 101.0983,79.4034 109.7763,69.4237 114.5492,60.3119 119.322,45.5593 119.322,36.0136 117.5864,28.6373 112.3797,20.3932 106.3051,13.4508 100.2305,9.9797 88.9492,8.678 76.3661,8.678 68.122,11.7153" stroke="#00007f" stroke-width="2" /><polyline fill="none" points="55.1051,15.6203 59.4441,23.8644 72.0271,32.1085 92.4203,38.6169 118.4542,39.9186 116.7186,41.2203" stroke="#0000e8" stroke-width="2" /><polyline fill="none" points="20.3932,44.6915 35.5797,44.6915 62.0475,59.0102 71.1593,69.4237 73.3288,74.6305 74.1966,80.7051" stroke="#0038ff" stroke-width="2" /><polyline fill="none" points="37.7492,58.1424 48.1627,39.0508" stroke="#0094ff" stroke-width="2" /><polyline fill="none" points="53.8034,58.1424 64.2169,52.5017" stroke="#0cf4ea" stroke-width="2" /><polyline fill="none" points="65.0847,67.2542 72.8949,63.3492 75.4983,60.3119" stroke="#56ffa0" stroke-width="2" /><polyline fill="none" points="66.8203,24.7322 61.1797,32.1085" stroke="#a0ff56" stroke-width="2" /><polyline fill="none" points="99.7966,29.0712 95.0237,37.7492" stroke="#eaff0c" stroke-width="2" /><polyline fill="none" points="109.3424,35.1458 108.4746,39.4847 106.739,40.7864" stroke="#ffaa00" stroke-width="2" /><polyline fill="none" points="81.139,31.6746 77.2339,36.4475" stroke="#ff5500" stroke-width="2" /><polyline fill="none" points="67.2542,23.8644 56.4068,23.8644" stroke="#e80000" stroke-width="2" /><polyline fill="none" points="61.1797,16.4881 56.8407,17.3559" stroke="#7f0000" stroke-width="2" /></svg>