<?xml version="1.0" encoding="utf-8" ?>
<svg baseProfile="tiny" height="128" version="1.2" viewBox="0,0,128,128" width="128" xmlns="http://www.w3.org/2000/svg" xmlns:ev="http://www.w3.org/2001/xml-events" xmlns:xlink="http://www.w3.org/1999/xlink"><defs /><polyline fill="none" points="16.922,49.8983 14.7525,42.9559 17.3559,35.5797 26.9017,22.9966 33.4102,17.3559 58.5763,9.5458 71.1593,8.678 94.5898,11.2814 102.4,15.1864 114.5492,26.9017 119.322,39.4847 116.2847,64.2169 101.0983,85.0441 88.0814,94.1559 75.4983,99.3627 62.0475,98.4949 46.861,94.5898 32.9763,87.2136 21.6949,78.5356 12.1492,68.122 8.678,54.2373 9.5458,42.522 18.6576,29.0712" stroke="#00007f" stroke-width="2" /><polyline fill="none" points="45.1254,11.2814 45.9932,13.8847" stroke="#0028ff" stroke-width="2" /><polyline fill="none" points="51.2,19.9593 48.5966,19.0915 63.7831,48.1627 67.2542,61.1797 65.9525,71.5932 60.7458,82.4407 57.2746,87.2136 51.6339,90.2508" stroke="#00d4ff" stroke-width="2" /><polyline fill="none" points="89.8169,18.2237 84.6102,18.2237 80.2712,21.261 75.9322,34.278 75.4983,47.7288 82.8746,72.0271 90.2508,84.1763 97.6271,91.1186" stroke="#7cff79" stroke-width="2" /><polyline fill="none" points="38.1831,30.8068 94.5898,30.8068" stroke="#ffe500" stroke-width="2" /><polyline fill="none" points="36.8814,55.9729 60.7458,52.9356 93.2881,52.5017" stroke="#ff4600" stroke-width="2" /><polyline fill="none" points="55.9729,72.0271 93.2881,72.0271" stroke="#7f0000" stroke-width="2" /></svg>