<?xml version="1.0" encoding="utf-8" ?>
<svg baseProfile="tiny" height="128" version="1.2" viewBox="0,0,128,128" width="128" xmlns="http://www.w3.org/2000/svg" xmlns:ev="http://www.w3.org/2001/xml-events" xmlns:xlink="http://www.w3.org/1999/xlink"><defs /><polyline fill="none" points="21.6949,24.7322 13.0169,40.3525 9.1119,55.1051 8.678,68.122 9.5458,75.0644 13.0169,83.3085 23.4305,97.1932 31.2407,103.2678 49.0305,111.9458 65.9525,115.8508 78.1017,116.2847 94.5898,113.2475 102.8339,109.7763 111.078,102.4 118.0203,85.0441 119.322,74.1966 118.0203,57.7085 114.5492,40.3525 107.1729,24.7322 101.0983,17.7898 91.5525,12.1492 80.7051,9.1119 64.2169,8.678 48.1627,11.2814 35.5797,17.3559 26.0339,23.8644 22.5627,27.7695 20.8271,27.7695 29.5051,26.9017 42.522,30.3729 55.1051,41.6542 58.1424,48.5966 59.4441,62.0475 56.8407,74.6305 48.5966,88.9492 40.3525,100.6644" stroke="#00007f" stroke-width="2" /><polyline fill="none" points="97.6271,21.6949 89.8169,50.7661 88.5153,76.3661 89.3831,81.5729 93.722,88.5153 101.9661,97.1932 105.4373,98.4949" stroke="#7f0000" stroke-width="2" /></svg>