<?xml version="1.0" encoding="utf-8" ?>
<svg baseProfile="tiny" height="128" version="1.2" viewBox="0,0,128,128" width="128" xmlns="http://www.w3.org/2000/svg" xmlns:ev="http://www.w3.org/2001/xml-events" xmlns:xlink="http://www.w3.org/1999/xlink"><defs /><polyline fill="none" points="56.4068,8.678 43.8237,19.0915 26.4678,36.8814 13.0169,60.7458 9.5458,73.7627 8.678,86.7797 10.4136,99.3627 16.922,108.0407 24.7322,113.6814 32.9763,117.1525 46.861,119.322 61.1797,118.4542 78.1017,114.1153 96.7593,104.5695 104.1356,97.6271 110.6441,87.2136 114.5492,74.6305 117.1525,61.6136 117.5864,49.0305 117.5864,39.9186 114.9831,32.9763 111.5119,28.2034 100.6644,20.8271 87.2136,16.4881 53.8034,15.1864" stroke="#00007f" stroke-width="2" /><polyline fill="none" points="33.8441,33.8441 33.8441,33.8441" stroke="#0010ff" stroke-width="2" /><polyline fill="none" points="39.0508,39.0508 37.7492,52.5017" stroke="#00a4ff" stroke-width="2" /><polyline fill="none" points="39.0508,64.6508 32.1085,74.1966" stroke="#3fffb7" stroke-width="2" /><polyline fill="none" points="28.6373,88.5153 16.0542,101.9661" stroke="#b7ff3f" stroke-width="2" /><polyline fill="none" points="82.0068,28.2034 80.2712,30.8068 80.2712,39.0508 81.5729,41.2203" stroke="#ffb900" stroke-width="2" /><polyline fill="none" points="87.2136,58.5763 92.4203,72.461 96.3254,77.6678 98.4949,79.8373 98.4949,78.5356" stroke="#ff3000" stroke-width="2" /><polyline fill="none" points="92.8542,86.3458 97.6271,91.9864 101.5322,93.2881" stroke="#7f0000" stroke-width="2" /></svg>