<?xml version="1.0" encoding="utf-8" ?>
<svg baseProfile="tiny" height="128" version="1.2" viewBox="0,0,128,128" width="128" xmlns="http://www.w3.org/2000/svg" xmlns:ev="http://www.w3.org/2001/xml-events" xmlns:xlink="http://www.w3.org/1999/xlink"><defs /><polyline fill="none" points="26.9017,22.1288 20.3932,22.9966 17.3559,29.0712 11.2814,47.2949 11.2814,62.4814 14.3186,67.2542 24.7322,95.0237 28.2034,100.6644 36.4475,108.0407 58.5763,116.7186 70.7254,116.7186 77.6678,114.5492 87.2136,107.6068 91.5525,103.2678 97.6271,93.2881 102.4,79.8373 103.7017,68.9898 103.7017,52.0678 98.9288,43.3898 87.2136,34.278 72.8949,25.6 21.6949,8.678 10.8475,8.678 8.678,11.2814 8.678,13.8847 10.8475,19.9593 14.3186,21.261 22.5627,21.261 23.4305,24.7322" stroke="#00007f" stroke-width="2" /><polyline fill="none" points="35.1458,13.0169 35.1458,65.0847 43.3898,92.4203 43.8237,105.0034 44.6915,103.2678" stroke="#7cff79" stroke-width="2" /><polyline fill="none" points="64.6508,25.1661 65.9525,32.1085 67.2542,102.8339 68.9898,117.1525 69.8576,119.322 70.7254,112.3797" stroke="#7f0000" stroke-width="2" /></svg>