<?xml version="1.0" encoding="utf-8" ?>
<svg baseProfile="tiny" height="128" version="1.2" viewBox="0,0,128,128" width="128" xmlns="http://www.w3.org/2000/svg" xmlns:ev="http://www.w3.org/2001/xml-events" xmlns:xlink="http://www.w3.org/1999/xlink"><defs /><polyline fill="none" points="65.9525,9.5458 52.9356,8.678 29.939,20.3932 19.5254,30.8068 8.678,58.1424 9.1119,73.3288 16.922,90.2508 25.1661,103.2678 35.5797,111.078 42.522,114.1153 68.122,119.322 81.139,118.4542 89.3831,115.4169 93.2881,113.6814 101.9661,105.0034 106.3051,97.6271 109.7763,85.478 111.5119,63.3492 106.739,50.7661 98.9288,37.7492 93.2881,29.5051 88.0814,24.7322 62.9153,8.678" stroke="#00007f" stroke-width="2" /><polyline fill="none" points="27.7695,22.5627 32.5424,27.7695 35.5797,39.0508 38.6169,112.8136" stroke="#004cff" stroke-width="2" /><polyline fill="none" points="82.0068,25.1661 77.6678,26.9017 76.3661,29.0712 75.9322,65.0847 79.4034,84.1763 92.4203,115.4169 92.4203,119.322" stroke="#29ffcd" stroke-width="2" /><polyline fill="none" points="31.6746,37.7492 36.4475,38.6169 40.7864,36.8814" stroke="#cdff29" stroke-width="2" /><polyline fill="none" points="35.5797,56.8407 40.3525,56.8407" stroke="#ff6700" stroke-width="2" /><polyline fill="none" points="38.6169,76.3661 42.0881,76.3661" stroke="#7f0000" stroke-width="2" /></svg>