<?xml version="1.0" encoding="utf-8" ?>
<svg baseProfile="tiny" height="128" version="1.2" viewBox="0,0,128,128" width="128" xmlns="http://www.w3.org/2000/svg" xmlns:ev="http://www.w3.org/2001/xml-events" xmlns:xlink="http://www.w3.org/1999/xlink"><defs /><polyline fill="none" points="73.1429,103.619 58.3401,99.7007 42.6667,93.6054 30.0408,85.3333 17.415,74.8844 8.7075,54.8571 9.1429,44.8435 20.898,25.2517 33.0884,16.9796 45.7143,11.7551 58.7755,8.7075 71.4014,9.5782 98.3946,19.5918 107.5374,26.9932 119.2925,41.7959 118.8571,58.7755 114.5034,68.3537 107.5374,76.6259 98.3946,82.7211 86.2041,86.2041 76.1905,87.9456 67.0476,87.5102 53.551,76.6259" stroke="#00007f" stroke-width="2" /><polyline fill="none" points="26.5578,18.7211 38.7483,20.898 43.5374,23.9456 49.6327,33.9592 51.3741,43.102 50.9388,53.1156 46.585,74.8844 43.102,82.7211 33.9592,89.2517 30.9116,88.8163" stroke="#7cff79" stroke-width="2" /><polyline fill="none" points="90.1224,14.3673 84.4626,23.9456 82.7211,32.2177 82.7211,36.1361 87.9456,49.6327 91.4286,56.5986 101.4422,67.483 115.3741,72.2721" stroke="#7f0000" stroke-width="2" /></svg>