<?xml version="1.0" encoding="utf-8" ?>
<svg baseProfile="tiny" height="128" version="1.2" viewBox="0,0,128,128" width="128" xmlns="http://www.w3.org/2000/svg" xmlns:ev="http://www.w3.org/2001/xml-events" xmlns:xlink="http://www.w3.org/1999/xlink"><defs /><polyline fill="none" points="48.1627,118.4542 40.3525,116.7186 26.9017,108.0407 15.6203,97.1932 14.3186,93.2881 8.678,66.3864 8.678,52.0678 14.7525,41.6542 19.5254,26.4678 19.5254,21.6949 22.1288,17.3559 24.2983,10.4136 27.7695,8.678 50.3322,9.9797 74.1966,17.7898 80.7051,21.6949 84.1763,29.939 94.1559,45.9932 97.6271,56.4068 101.0983,74.1966 99.7966,88.9492 95.4576,92.8542 80.2712,93.722 75.4983,95.4576 53.3695,115.8508 45.5593,119.322 38.6169,116.7186 36.4475,113.2475 34.7119,104.1356 33.8441,85.478 32.5424,82.0068" stroke="#00007f" stroke-width="2" /><polyline fill="none" points="68.5559,14.3186 65.0847,20.8271 65.0847,24.7322 59.0102,35.5797 56.4068,50.3322 56.4068,67.6881 63.7831,86.7797 75.0644,98.061 65.0847,79.8373" stroke="#7cff79" stroke-width="2" /><polyline fill="none" points="18.6576,20.8271 22.9966,22.1288 26.4678,25.6 36.4475,43.8237 40.3525,58.1424 43.8237,65.0847 43.3898,98.4949 36.4475,111.078 31.6746,113.6814" stroke="#7f0000" stroke-width="2" /></svg>