<?xml version="1.0" encoding="utf-8" ?>
<svg baseProfile="tiny" height="128" version="1.2" viewBox="0,0,128,128" width="128" xmlns="http://www.w3.org/2000/svg" xmlns:ev="http://www.w3.org/2001/xml-events" xmlns:xlink="http://www.w3.org/1999/xlink"><defs /><polyline fill="none" points="55.9729,30.8068 52.0678,29.939 35.5797,30.8068 30.3729,33.8441 21.6949,42.522 11.7153,58.5763 9.9797,65.0847 8.678,80.2712 10.4136,86.3458 18.6576,96.7593 30.8068,105.8712 39.4847,110.2102 62.9153,117.5864 83.7424,118.4542 97.1932,113.2475 102.4,109.3424 108.9085,102.4 113.6814,93.2881 119.322,66.8203 119.322,59.4441 118.8881,55.539 112.3797,42.9559 102.8339,29.0712 98.4949,24.7322 88.5153,18.6576 76.8,14.3186 56.4068,13.8847 48.1627,18.2237 41.2203,24.2983 35.1458,32.5424" stroke="#00007f" stroke-width="2" /><polyline fill="none" points="73.3288,27.7695 72.0271,63.7831 64.6508,101.5322 64.2169,113.2475" stroke="#0028ff" stroke-width="2" /><polyline fill="none" points="55.539,97.6271 61.1797,95.0237 72.461,95.4576 72.461,93.2881" stroke="#00d4ff" stroke-width="2" /><polyline fill="none" points="63.7831,83.7424 60.3119,79.8373 74.6305,78.5356" stroke="#7cff79" stroke-width="2" /><polyline fill="none" points="65.0847,64.2169 63.7831,62.0475 72.0271,61.1797 76.3661,57.7085 76.3661,52.0678 72.0271,47.7288 67.2542,46.4271 78.1017,47.7288" stroke="#ffe500" stroke-width="2" /><polyline fill="none" points="68.122,32.1085 75.9322,30.8068 78.1017,29.5051" stroke="#ff4600" stroke-width="2" /><polyline fill="none" points="69.8576,8.678 68.9898,16.4881 70.7254,30.3729" stroke="#7f0000" stroke-width="2" /></svg>