<?xml version="1.0" encoding="utf-8" ?>
<svg baseProfile="tiny" height="128" version="1.2" viewBox="0,0,128,128" width="128" xmlns="http://www.w3.org/2000/svg" xmlns:ev="http://www.w3.org/2001/xml-events" xmlns:xlink="http://www.w3.org/1999/xlink"><defs /><polyline fill="none" points="80.2712,16.4881 75.0644,14.3186 64.2169,13.0169 45.1254,14.3186 28.6373,22.9966 15.1864,38.6169 8.678,53.8034 8.678,73.7627 9.9797,82.8746 13.0169,90.2508 22.1288,101.9661 32.5424,110.6441 50.7661,118.4542 75.0644,119.322 95.0237,105.8712 110.2102,85.478 113.6814,60.7458 113.6814,55.1051 110.6441,50.3322 92.8542,27.7695 76.3661,15.1864 65.0847,8.678" stroke="#00007f" stroke-width="2" /><polyline fill="none" points="24.2983,27.7695 28.6373,28.6373 28.6373,32.9763 32.9763,44.6915 35.5797,59.4441 36.0136,89.3831 32.1085,108.0407" stroke="#7cff79" stroke-width="2" /><polyline fill="none" points="89.3831,28.6373 84.6102,32.9763 81.5729,55.1051 80.7051,91.1186 82.4407,98.9288 94.1559,114.9831" stroke="#7f0000" stroke-width="2" /></svg>