<?xml version="1.0" encoding="utf-8" ?>
<svg baseProfile="tiny" height="128" version="1.2" viewBox="0,0,128,128" width="128" xmlns="http://www.w3.org/2000/svg" xmlns:ev="http://www.w3.org/2001/xml-events" xmlns:xlink="http://www.w3.org/1999/xlink"><defs /><polyline fill="none" points="84.1763,19.9593 77.2339,14.3186 70.7254,10.8475 58.1424,8.678 43.8237,9.1119 37.7492,11.7153 26.0339,19.0915 16.922,30.3729 11.7153,41.2203 8.678,56.4068 8.678,68.9898 10.8475,78.1017 16.4881,90.6847 24.2983,101.9661 35.1458,111.9458 43.8237,115.8508 53.8034,118.8881 73.7627,119.322 88.0814,115.8508 94.5898,111.5119 100.6644,103.7017 103.2678,95.4576 102.4,75.0644 95.4576,45.5593 90.6847,32.1085 83.3085,17.7898" stroke="#00007f" stroke-width="2" /><polyline fill="none" points="79.4034,19.9593 63.3492,57.7085 63.3492,73.3288 67.2542,90.6847 73.3288,104.5695 80.7051,111.5119 91.5525,114.9831" stroke="#7cff79" stroke-width="2" /><polyline fill="none" points="30.8068,24.2983 36.8814,46.861 39.4847,67.6881 36.8814,89.8169 34.7119,94.1559 30.8068,98.061" stroke="#7f0000" stroke-width="2" /></svg>