<?xml version="1.0" encoding="utf-8" ?>
<svg baseProfile="tiny" height="128" version="1.2" viewBox="0,0,128,128" width="128" xmlns="http://www.w3.org/2000/svg" xmlns:ev="http://www.w3.org/2001/xml-events" xmlns:xlink="http://www.w3.org/1999/xlink"><defs /><polyline fill="none" points="98.3946,84.898 96.2177,87.5102 90.1224,90.1224 81.415,91.8639 68.7891,91.4286 45.7143,87.0748 28.7347,79.2381 18.7211,70.966 10.449,58.3401 9.1429,52.2449 8.7075,48.3265 11.7551,36.1361 21.7687,24.381 46.1497,11.7551 60.517,9.1429 75.3197,8.7075 105.7959,16.1088 113.6327,26.1224 118.8571,43.102 119.2925,61.8231 118.4218,65.3061 113.1973,72.7075 98.8299,85.7687 96.2177,86.2041" stroke="#00007f" stroke-width="2" /><polyline fill="none" points="41.3605,86.2041 47.8912,78.3673 53.1156,64.8707 55.7279,44.4082 55.2925,34.3946 50.5034,26.1224 43.9728,19.1565 35.7007,18.2857" stroke="#7cff79" stroke-width="2" /><polyline fill="none" points="90.1224,14.3673 80.9796,27.4286 78.3673,36.1361 78.3673,43.102 81.8503,55.2925 90.1224,71.8367 95.3469,78.3673 103.1837,84.0272" stroke="#7f0000" stroke-width="2" /></svg>