<?xml version="1.0" encoding="utf-8" ?>
<svg baseProfile="tiny" height="128" version="1.2" viewBox="0,0,128,128" width="128" xmlns="http://www.w3.org/2000/svg" xmlns:ev="http://www.w3.org/2001/xml-events" xmlns:xlink="http://www.w3.org/1999/xlink"><defs /><polyline fill="none" points="51.6339,13.0169 46.4271,11.7153 34.7119,11.7153 25.1661,15.6203 21.261,18.6576 11.7153,35.5797 8.678,50.7661 8.678,60.7458 10.4136,74.1966 13.0169,81.139 18.6576,92.4203 23.8644,99.3627 31.6746,107.1729 38.6169,112.3797 56.8407,118.8881 76.3661,119.322 90.6847,117.1525 103.7017,111.078 109.7763,105.8712 117.1525,93.2881 119.322,85.0441 119.322,66.3864 117.1525,50.3322 106.739,32.1085 101.9661,26.4678 89.8169,19.5254 77.6678,14.7525 59.4441,9.9797 46.4271,8.678 38.1831,10.4136" stroke="#00007f" stroke-width="2" /><polyline fill="none" points="107.1729,27.7695 104.5695,37.3153 104.1356,47.7288 99.3627,51.6339 97.6271,56.4068 100.6644,62.9153 100.2305,70.2915 104.5695,79.4034 104.5695,85.9119 114.1153,96.7593 112.3797,105.4373" stroke="#7cff79" stroke-width="2" /><polyline fill="none" points="13.8847,29.0712 23.8644,39.9186 20.3932,49.8983 21.261,59.878 19.0915,64.6508 19.9593,69.4237 17.7898,75.0644 17.7898,82.4407 21.261,90.2508 22.1288,98.9288" stroke="#7f0000" stroke-width="2" /></svg>