<?xml version="1.0" encoding="utf-8" ?>
<svg baseProfile="tiny" height="128" version="1.2" viewBox="0,0,128,128" width="128" xmlns="http://www.w3.org/2000/svg" xmlns:ev="http://www.w3.org/2001/xml-events" xmlns:xlink="http://www.w3.org/1999/xlink"><defs /><polyline fill="none" points="54.6712,20.8271 38.6169,22.5627 27.7695,29.5051 17.7898,42.0881 10.8475,54.6712 8.678,62.0475 9.1119,76.3661 18.2237,96.7593 28.2034,110.6441 34.278,115.8508 45.5593,119.322 59.4441,119.322 69.8576,115.4169 84.1763,104.5695 96.3254,85.478 101.0983,73.7627 101.5322,44.6915 95.8915,30.8068 90.2508,21.6949 82.8746,15.6203 70.7254,10.8475 65.5186,9.5458 49.0305,8.678" stroke="#00007f" stroke-width="2" /><polyline fill="none" points="19.0915,38.6169 35.1458,55.539 49.8983,57.2746 63.7831,57.2746 70.7254,56.8407 77.6678,53.3695 101.9661,37.3153 103.2678,34.7119" stroke="#7cff79" stroke-width="2" /><polyline fill="none" points="93.2881,45.9932 84.1763,47.7288 75.0644,53.8034 56.4068,72.461 46.4271,80.2712 43.3898,84.6102 39.9186,93.2881 36.0136,106.3051 36.0136,114.5492" stroke="#7f0000" stroke-width="2" /></svg>