<?xml version="1.0" encoding="utf-8" ?>
<svg baseProfile="tiny" height="128" version="1.2" viewBox="0,0,128,128" width="128" xmlns="http://www.w3.org/2000/svg" xmlns:ev="http://www.w3.org/2001/xml-events" xmlns:xlink="http://www.w3.org/1999/xlink"><defs /><polyline fill="none" points="58.1424,11.2814 49.4644,13.8847 39.9186,19.5254 24.2983,32.9763 13.4508,51.6339 10.4136,62.0475 8.678,72.461 9.5458,82.0068 13.8847,100.2305 16.922,106.739 28.2034,116.2847 36.4475,119.322 47.2949,118.8881 60.3119,114.9831 72.0271,108.0407 83.7424,99.3627 92.8542,91.1186 108.0407,68.5559 114.9831,54.2373 117.5864,44.2576 118.0203,33.8441 115.8508,26.9017 112.3797,20.8271 104.1356,13.8847 86.3458,8.678 65.9525,9.5458 57.2746,11.7153 43.8237,20.3932" stroke="#00007f" stroke-width="2" /><polyline fill="none" points="80.2712,23.8644 75.0644,31.6746 73.7627,37.3153 72.461,43.8237 73.3288,55.539 75.9322,62.9153 82.8746,67.6881 93.722,71.5932" stroke="#7cff79" stroke-width="2" /><polyline fill="none" points="16.0542,43.3898 21.6949,44.6915 34.7119,51.2 42.0881,58.1424 44.2576,62.9153 44.2576,72.0271 42.0881,81.139 31.6746,100.2305" stroke="#7f0000" stroke-width="2" /></svg>