<?xml version="1.0" encoding="utf-8" ?>
<svg baseProfile="tiny" height="128" version="1.2" viewBox="0,0,128,128" width="128" xmlns="http://www.w3.org/2000/svg" xmlns:ev="http://www.w3.org/2001/xml-events" xmlns:xlink="http://www.w3.org/1999/xlink"><defs /><polyline fill="none" points="80.9796,17.8503 78.3673,17.415 68.7891,10.0136 61.3878,8.7075 52.6803,8.7075 34.3946,13.4966 29.6054,15.2381 21.3333,24.381 10.8844,42.2313 8.7075,61.8231 12.6259,84.898 17.8503,95.7823 35.7007,112.3265 43.9728,116.2449 56.1633,119.2925 73.5782,118.4218 82.7211,116.2449 97.0884,108.4082 106.2313,101.4422 110.585,96.2177 117.1156,73.5782 115.3741,57.034 110.585,39.1837 101.4422,24.8163 96.6531,20.4626 83.1565,13.0612 68.3537,11.3197" stroke="#00007f" stroke-width="2" /><polyline fill="none" points="33.9592,11.7551 49.6327,44.8435 54.4218,61.3878 56.1633,80.1088 62.2585,103.1837 62.2585,117.1156" stroke="#7cff79" stroke-width="2" /><polyline fill="none" points="91.8639,16.5442 82.2857,30.4762 79.6735,38.3129 74.449,67.9184 73.5782,84.898 75.3197,103.619 79.2381,113.6327" stroke="#7f0000" stroke-width="2" /></svg>