<?xml version="1.0" encoding="utf-8" ?>
<svg baseProfile="tiny" height="128" version="1.2" viewBox="0,0,128,128" width="128" xmlns="http://www.w3.org/2000/svg" xmlns:ev="http://www.w3.org/2001/xml-events" xmlns:xlink="http://www.w3.org/1999/xlink"><defs /><polyline fill="none" points="10.4136,41.2203 15.6203,31.2407 22.5627,23.4305 27.3356,20.8271 45.5593,17.7898 59.0102,18.6576 64.6508,20.8271 70.2915,24.2983 74.1966,28.6373 78.1017,35.5797 80.7051,43.8237 82.8746,61.6136 82.0068,69.8576 79.8373,75.4983 71.1593,83.3085 65.5186,86.3458 58.5763,87.2136 44.6915,85.9119 32.1085,77.6678 22.9966,65.5186 18.2237,49.4644 17.3559,28.6373 20.8271,22.5627 22.5627,21.6949" stroke="#00007f" stroke-width="2" /><polyline fill="none" points="49.8983,14.7525 49.0305,29.5051 52.0678,36.4475 67.6881,47.7288 74.1966,50.7661 84.1763,52.5017" stroke="#004cff" stroke-width="2" /><polyline fill="none" points="8.678,28.6373 30.3729,47.7288 37.7492,56.4068 43.8237,66.3864 49.0305,82.0068 49.0305,93.722 45.9932,96.7593 42.9559,97.1932" stroke="#29ffcd" stroke-width="2" /><polyline fill="none" points="94.5898,8.678 82.4407,17.7898" stroke="#cdff29" stroke-width="2" /><polyline fill="none" points="112.8136,28.6373 101.0983,42.522" stroke="#ff6700" stroke-width="2" /><polyline fill="none" points="118.8881,53.8034 119.322,56.8407 117.5864,60.7458" stroke="#7f0000" stroke-width="2" /></svg>