<?xml version="1.0" encoding="utf-8" ?>
<svg baseProfile="tiny" height="128" version="1.2" viewBox="0,0,128,128" width="128" xmlns="http://www.w3.org/2000/svg" xmlns:ev="http://www.w3.org/2001/xml-events" xmlns:xlink="http://www.w3.org/1999/xlink"><defs /><polyline fill="none" points="54.2373,19.5254 48.5966,12.5831 43.8237,10.8475 34.7119,11.2814 24.7322,15.6203 19.9593,19.5254 13.0169,29.939 11.2814,36.4475 8.678,61.6136 11.2814,73.3288 22.5627,91.9864 40.3525,104.5695 57.7085,107.6068 75.9322,107.1729 86.7797,104.5695 101.0983,96.3254 113.6814,79.8373 116.7186,72.461 119.322,59.4441 118.4542,45.5593 115.8508,37.3153 109.7763,25.1661 96.3254,15.6203 72.8949,8.678 52.9356,9.1119 42.522,11.7153" stroke="#00007f" stroke-width="2" /><polyline fill="none" points="26.4678,87.6475 33.4102,79.4034 44.6915,72.461 56.4068,66.3864 66.8203,65.0847 76.3661,66.3864 91.1186,72.0271 100.2305,83.3085 101.5322,88.0814" stroke="#7cff79" stroke-width="2" /><polyline fill="none" points="29.0712,16.4881 40.7864,36.0136 48.5966,42.0881 76.8,39.4847 90.2508,29.0712 95.0237,22.1288" stroke="#7f0000" stroke-width="2" /></svg>