<?xml version="1.0" encoding="utf-8" ?>
<svg baseProfile="tiny" height="128" version="1.2" viewBox="0,0,128,128" width="128" xmlns="http://www.w3.org/2000/svg" xmlns:ev="http://www.w3.org/2001/xml-events" xmlns:xlink="http://www.w3.org/1999/xlink"><defs /><polyline fill="none" points="97.6271,18.2237 91.5525,15.6203 82.0068,15.6203 59.0102,21.6949 47.2949,23.4305 34.278,31.2407 26.0339,34.7119 21.261,41.6542 14.3186,64.2169 13.4508,74.1966 19.9593,101.5322 31.6746,113.2475 42.0881,118.0203 50.3322,119.322 60.7458,117.5864 79.4034,110.6441 94.5898,98.4949 103.2678,88.9492 114.1153,68.5559 116.7186,59.878 118.0203,42.522 109.7763,27.7695 100.6644,22.1288 87.2136,17.3559 77.2339,16.4881 68.122,19.5254" stroke="#00007f" stroke-width="2" /><polyline fill="none" points="8.678,105.0034 36.0136,91.9864 46.861,78.5356 52.0678,65.0847 53.8034,47.7288 52.5017,36.8814 42.522,18.2237 33.4102,8.678" stroke="#0028ff" stroke-width="2" /><polyline fill="none" points="83.3085,112.8136 77.6678,101.9661 74.6305,91.5525 74.1966,77.2339 75.9322,59.0102 85.9119,39.9186 96.3254,27.7695 111.078,22.9966" stroke="#00d4ff" stroke-width="2" /><polyline fill="none" points="39.9186,40.3525 45.5593,40.3525 55.9729,42.9559 63.3492,46.4271 65.0847,48.5966" stroke="#7cff79" stroke-width="2" /><polyline fill="none" points="39.0508,71.5932 49.4644,78.1017 57.2746,85.9119" stroke="#ffe500" stroke-width="2" /><polyline fill="none" points="30.8068,85.478 36.4475,98.4949 38.6169,110.6441" stroke="#ff4600" stroke-width="2" /><polyline fill="none" points="50.7661,58.1424 55.9729,59.0102" stroke="#7f0000" stroke-width="2" /></svg>