<?xml version="1.0" encoding="utf-8" ?>
<svg baseProfile="tiny" height="128" version="1.2" viewBox="0,0,128,128" width="128" xmlns="http://www.w3.org/2000/svg" xmlns:ev="http://www.w3.org/2001/xml-events" xmlns:xlink="http://www.w3.org/1999/xlink"><defs /><polyline fill="none" points="83.3085,21.261 74.1966,12.1492 66.8203,11.2814 56.4068,13.0169 42.0881,21.261 27.3356,35.5797 20.8271,43.3898 11.7153,61.1797 8.678,76.3661 8.678,94.1559 11.2814,102.8339 16.4881,108.0407 23.4305,111.5119 36.4475,114.1153 51.6339,114.5492 60.3119,113.2475 76.8,106.739 83.3085,102.4 94.5898,91.1186 99.7966,81.5729 105.4373,55.539 106.3051,28.6373 103.7017,18.6576 98.4949,13.0169 90.6847,10.8475 69.8576,8.678" stroke="#00007f" stroke-width="2" /><polyline fill="none" points="29.5051,35.1458 35.1458,42.522 41.2203,43.8237 44.2576,40.7864 46.4271,31.6746 48.5966,27.3356" stroke="#0000fe" stroke-width="2" /><polyline fill="none" points="26.0339,55.539 31.6746,63.3492 35.5797,65.9525 39.9186,66.8203 47.7288,51.2" stroke="#0060ff" stroke-width="2" /><polyline fill="none" points="28.6373,82.0068 36.0136,100.2305 39.0508,100.6644 43.3898,82.4407" stroke="#00d4ff" stroke-width="2" /><polyline fill="none" points="29.939,103.2678 32.9763,105.0034 37.7492,104.5695 46.4271,94.5898" stroke="#4cffaa" stroke-width="2" /><polyline fill="none" points="78.5356,26.4678 83.7424,41.2203 86.7797,41.6542 91.9864,30.3729" stroke="#aaff4c" stroke-width="2" /><polyline fill="none" points="77.2339,51.6339 85.478,68.5559 93.2881,52.9356" stroke="#ffe500" stroke-width="2" /><polyline fill="none" points="77.6678,74.6305 78.9695,79.8373 83.3085,85.9119 87.6475,84.1763 90.6847,74.6305" stroke="#ff7a00" stroke-width="2" /><polyline fill="none" points="86.7797,15.6203 85.0441,18.2237 84.1763,74.6305 87.6475,92.4203 87.6475,100.6644" stroke="#fe1200" stroke-width="2" /><polyline fill="none" points="40.7864,26.0339 38.6169,27.3356 38.6169,51.6339 36.4475,71.1593 36.8814,119.322" stroke="#7f0000" stroke-width="2" /></svg>