<?xml version="1.0" encoding="utf-8" ?>
<svg baseProfile="tiny" height="128" version="1.2" viewBox="0,0,128,128" width="128" xmlns="http://www.w3.org/2000/svg" xmlns:ev="http://www.w3.org/2001/xml-events" xmlns:xlink="http://www.w3.org/1999/xlink"><defs /><polyline fill="none" points="37.3153,23.4305 27.7695,23.4305 24.2983,24.7322 19.0915,28.6373 12.5831,36.8814 9.5458,51.6339 8.678,87.6475 10.8475,93.722 20.3932,102.4 36.0136,108.9085 44.2576,110.6441 54.2373,111.078 61.1797,109.7763 108.0407,81.5729 116.2847,69.8576 118.0203,64.6508 119.322,39.9186 116.7186,34.7119 111.9458,28.6373 97.1932,17.3559 78.1017,9.9797 68.122,8.678 52.0678,8.678 42.522,12.5831 34.7119,17.3559" stroke="#00007f" stroke-width="2" /><polyline fill="none" points="23.4305,24.2983 34.278,24.2983 39.0508,28.6373 41.2203,40.3525 41.2203,62.4814 36.0136,76.3661 32.9763,81.139 25.1661,89.8169 9.9797,102.4" stroke="#7cff79" stroke-width="2" /><polyline fill="none" points="100.2305,21.261 91.1186,21.261 81.5729,28.6373 78.1017,39.0508 78.1017,59.0102 84.1763,69.8576 97.1932,78.9695 111.078,81.5729" stroke="#7f0000" stroke-width="2" /></svg>