<?xml version="1.0" encoding="utf-8" ?>
<svg baseProfile="tiny" height="128" version="1.2" viewBox="0,0,128,128" width="128" xmlns="http://www.w3.org/2000/svg" xmlns:ev="http://www.w3.org/2001/xml-events" xmlns:xlink="http://www.w3.org/1999/xlink"><defs /><polyline fill="none" points="30.8068,88.5153 30.8068,83.7424 37.7492,73.7627 60.7458,47.7288 68.5559,42.9559 80.7051,42.522 83.3085,45.5593 83.7424,53.8034 76.3661,64.6508 64.2169,77.2339 38.1831,93.2881" stroke="#00007f" stroke-width="2" /><polyline fill="none" points="31.6746,83.3085 28.6373,89.3831 12.1492,107.1729 8.678,113.6814 8.678,118.4542 15.1864,119.322 19.9593,117.1525 41.6542,89.3831" stroke="#0010ff" stroke-width="2" /><polyline fill="none" points="56.8407,52.0678 65.0847,65.9525 74.1966,72.8949" stroke="#00a4ff" stroke-width="2" /><polyline fill="none" points="49.0305,56.8407 50.3322,60.3119 56.4068,67.6881 60.7458,71.1593 68.9898,74.1966" stroke="#3fffb7" stroke-width="2" /><polyline fill="none" points="95.0237,11.2814 92.8542,8.678 87.6475,9.5458 84.1763,13.8847 82.0068,20.8271 82.4407,32.9763 84.1763,37.3153 86.7797,40.7864 91.9864,43.8237 100.6644,43.3898 105.0034,39.0508 109.3424,30.3729 109.7763,22.5627 109.3424,19.9593 102.8339,13.4508 95.8915,10.4136 89.3831,9.5458" stroke="#b7ff3f" stroke-width="2" /><polyline fill="none" points="63.7831,48.1627 69.4237,58.1424 77.2339,64.2169" stroke="#ffb900" stroke-width="2" /><polyline fill="none" points="69.8576,44.2576 71.5932,49.0305 78.1017,55.1051" stroke="#ff3000" stroke-width="2" /><polyline fill="none" points="29.5051,13.8847 26.9017,11.7153 21.6949,15.6203 16.4881,22.9966 12.1492,34.278 12.1492,49.4644 13.8847,56.4068 17.3559,62.0475 20.8271,64.2169 29.5051,65.0847 37.3153,60.3119 51.6339,46.861 55.1051,38.1831 52.5017,35.5797 42.0881,36.0136 40.3525,33.4102 38.1831,15.6203 29.0712,9.9797 26.0339,9.5458 25.1661,12.5831" stroke="#7f0000" stroke-width="2" /></svg>