<?xml version="1.0" encoding="utf-8" ?>
<svg baseProfile="tiny" height="128" version="1.2" viewBox="0,0,128,128" width="128" xmlns="http://www.w3.org/2000/svg" xmlns:ev="http://www.w3.org/2001/xml-events" xmlns:xlink="http://www.w3.org/1999/xlink"><defs /><polyline fill="none" points="62.9153,8.678 84.6102,10.4136 98.061,14.3186 106.739,18.6576 112.8136,23.8644 116.2847,30.3729 119.322,52.9356 118.8881,67.2542 116.7186,72.8949 107.6068,85.478 94.1559,93.722 76.8,99.3627 49.8983,99.7966 35.5797,95.8915 19.9593,87.2136 11.7153,78.1017 9.1119,71.1593 8.678,57.7085 10.4136,50.7661 28.2034,29.939 39.4847,20.3932 49.4644,14.7525 62.9153,13.4508" stroke="#00007f" stroke-width="2" /><polyline fill="none" points="100.6644,18.2237 97.6271,22.1288 88.9492,27.3356 68.5559,36.0136 54.2373,39.0508 13.0169,51.6339" stroke="#7cff79" stroke-width="2" /><polyline fill="none" points="115.8508,65.0847 108.4746,64.6508 99.7966,65.9525 77.2339,75.0644 67.6881,80.2712 43.3898,98.061" stroke="#7f0000" stroke-width="2" /></svg>