<?xml version="1.0" encoding="utf-8" ?>
<svg baseProfile="tiny" height="128" version="1.2" viewBox="0,0,128,128" width="128" xmlns="http://www.w3.org/2000/svg" xmlns:ev="http://www.w3.org/2001/xml-events" xmlns:xlink="http://www.w3.org/1999/xlink"><defs /><polyline fill="none" points="62.471,8.7372 39.3174,8.7372 30.5802,12.2321 17.9113,23.1536 14.8532,27.5222 8.7372,43.686 8.7372,69.8976 10.9215,76.8874 19.2218,91.3038 27.0853,99.6041 31.4539,102.6621 40.1911,107.0307 50.6758,108.7782 68.1502,108.7782 73.3925,107.0307 82.5666,101.7884 89.9932,95.6724 98.7304,84.314 104.4096,70.3345 105.7201,47.1809 104.4096,41.0648 100.4778,35.3857 74.7031,11.7952 66.8396,10.0478 50.2389,10.0478" stroke="#00007f" stroke-width="2" /><polyline fill="none" points="33.6382,11.7952 43.2491,24.901 44.9966,30.1433 45.8703,51.9863 44.5597,65.0922 33.6382,89.5563 22.2799,100.4778" stroke="#00d4ff" stroke-width="2" /><polyline fill="none" points="89.1195,26.6485 83.8771,25.3379 76.4505,35.8225 67.7133,53.2969 63.3447,72.5188 64.2184,96.5461 68.587,109.215 76.8874,119.2628" stroke="#ffe500" stroke-width="2" /><polyline fill="none" points="70.7713,24.4642 90.43,30.5802" stroke="#7f0000" stroke-width="2" /></svg>