<?xml version="1.0" encoding="utf-8" ?>
<svg baseProfile="tiny" height="128" version="1.2" viewBox="0,0,128,128" width="128" xmlns="http://www.w3.org/2000/svg" xmlns:ev="http://www.w3.org/2001/xml-events" xmlns:xlink="http://www.w3.org/1999/xlink"><defs /><polyline fill="none" points="59.4441,101.9661 34.278,101.5322 25.6,99.7966 18.6576,96.3254 13.8847,91.9864 10.4136,86.3458 8.678,75.4983 9.9797,66.3864 17.3559,45.1254 27.3356,31.2407 35.5797,22.9966 54.2373,11.2814 63.3492,8.678 77.6678,9.9797 96.7593,18.6576 109.3424,27.7695 112.8136,32.1085 116.7186,40.7864 119.322,51.6339 119.322,65.5186 114.1153,84.6102 109.3424,93.2881 104.5695,97.6271 82.8746,104.5695 68.9898,106.3051 40.3525,105.8712 31.2407,104.5695 23.4305,101.0983 18.6576,95.8915 16.922,89.8169" stroke="#00007f" stroke-width="2" /><polyline fill="none" points="41.2203,20.3932 54.6712,23.4305 57.2746,27.7695 57.7085,32.1085 50.3322,51.2 52.5017,65.9525 52.9356,91.5525 49.8983,98.4949 42.9559,105.4373 36.8814,110.2102 29.939,112.3797" stroke="#7cff79" stroke-width="2" /><polyline fill="none" points="98.061,20.3932 89.3831,26.9017 79.8373,39.4847 75.9322,48.5966 72.0271,64.2169 70.7254,86.3458 76.3661,101.5322 84.1763,108.9085" stroke="#7f0000" stroke-width="2" /></svg>