<?xml version="1.0" encoding="utf-8" ?>
<svg baseProfile="tiny" height="128" version="1.2" viewBox="0,0,128,128" width="128" xmlns="http://www.w3.org/2000/svg" xmlns:ev="http://www.w3.org/2001/xml-events" xmlns:xlink="http://www.w3.org/1999/xlink"><defs /><polyline fill="none" points="107.102,40.4898 101.4422,28.7347 92.7347,20.4626 84.4626,14.8027 71.8367,9.5782 61.3878,8.7075 38.7483,16.9796 24.381,29.6054 15.6735,40.4898 10.0136,55.7279 8.7075,73.1429 14.3673,89.6871 18.2857,95.7823 30.4762,103.619 41.7959,107.102 62.2585,108.8435 75.7551,106.2313 90.5578,100.5714 97.5238,97.0884 101.0068,93.6054 106.2313,85.7687 111.8912,69.2245 109.7143,54.4218 105.7959,44.4082 87.5102,26.5578 83.5918,24.381 84.898,26.1224" stroke="#00007f" stroke-width="2" /><polyline fill="none" points="20.0272,22.2041 32.2177,32.6531 39.1837,40.9252 46.585,58.7755 48.3265,74.0136 46.585,88.8163 43.102,99.7007 41.7959,102.3129 41.3605,101.4422" stroke="#004cff" stroke-width="2" /><polyline fill="none" points="94.0408,18.2857 92.2993,16.9796 90.1224,17.8503 83.1565,24.381 79.6735,30.4762 74.8844,45.7143 72.2721,66.1769 72.2721,87.9456 74.8844,106.2313 77.932,112.3265 82.7211,117.1156 87.0748,119.2925 90.1224,119.2925" stroke="#29ffcd" stroke-width="2" /><polyline fill="none" points="27.8639,43.9728 43.5374,35.2653" stroke="#cdff29" stroke-width="2" /><polyline fill="none" points="36.1361,58.3401 54.4218,55.7279" stroke="#ff6700" stroke-width="2" /><polyline fill="none" points="36.5714,81.415 51.3741,84.4626" stroke="#7f0000" stroke-width="2" /></svg>