<?xml version="1.0" encoding="utf-8" ?>
<svg baseProfile="tiny" height="128" version="1.2" viewBox="0,0,128,128" width="128" xmlns="http://www.w3.org/2000/svg" xmlns:ev="http://www.w3.org/2001/xml-events" xmlns:xlink="http://www.w3.org/1999/xlink"><defs /><polyline fill="none" points="36.0136,30.3729 29.5051,30.3729 24.7322,34.278 17.7898,41.2203 13.4508,50.7661 11.2814,69.4237 8.678,75.4983 8.678,85.478 18.6576,103.7017 38.6169,110.6441 45.9932,115.8508 57.7085,118.4542 85.478,119.322 100.2305,98.4949 104.1356,85.9119 106.739,81.139 105.8712,56.4068 101.5322,44.6915 98.061,29.939 89.3831,16.0542 78.9695,11.2814 68.122,8.678 28.2034,8.678 19.9593,10.8475" stroke="#00007f" stroke-width="2" /><polyline fill="none" points="32.9763,22.5627 33.8441,32.5424 38.6169,56.4068 41.2203,63.7831 41.2203,85.478 34.7119,91.5525 28.6373,91.9864" stroke="#00d4ff" stroke-width="2" /><polyline fill="none" points="82.0068,15.1864 82.0068,19.0915 75.0644,38.6169 72.461,50.3322 70.2915,70.2915 70.2915,95.8915 74.1966,104.1356 86.3458,111.9458 90.6847,113.2475" stroke="#ffe500" stroke-width="2" /><polyline fill="none" points="59.0102,13.8847 56.8407,60.3119 52.9356,73.7627 53.8034,119.322" stroke="#7f0000" stroke-width="2" /></svg>