<?xml version="1.0" encoding="utf-8" ?>
<svg baseProfile="tiny" height="128" version="1.2" viewBox="0,0,128,128" width="128" xmlns="http://www.w3.org/2000/svg" xmlns:ev="http://www.w3.org/2001/xml-events" xmlns:xlink="http://www.w3.org/1999/xlink"><defs /><polyline fill="none" points="36.1361,22.2041 26.5578,23.0748 18.7211,26.9932 13.932,32.2177 10.449,41.7959 8.7075,57.034 9.5782,74.449 15.2381,83.1565 26.5578,89.6871 42.2313,93.1701 65.7415,93.6054 77.0612,89.2517 82.7211,79.2381 86.6395,60.0816 86.6395,43.9728 83.1565,33.0884 71.8367,21.3333 53.551,10.449 47.8912,8.7075 45.2789,8.7075 43.102,10.8844 37.0068,21.3333 26.1224,21.7687 22.2041,23.0748" stroke="#00007f" stroke-width="2" /><polyline fill="none" points="33.5238,27.8639 27.8639,67.9184 27.4286,92.2993 29.1701,87.5102" stroke="#004cff" stroke-width="2" /><polyline fill="none" points="48.3265,20.4626 53.1156,30.4762 64.0,69.2245 64.4354,80.9796 68.7891,106.2313 69.2245,103.1837" stroke="#29ffcd" stroke-width="2" /><polyline fill="none" points="76.6259,13.0612 77.0612,88.8163 76.1905,90.5578" stroke="#cdff29" stroke-width="2" /><polyline fill="none" points="13.4966,59.2109 53.551,53.551 117.551,46.585 119.2925,45.7143 117.1156,44.4082 111.4558,44.4082" stroke="#ff6700" stroke-width="2" /><polyline fill="none" points="9.5782,68.7891 61.3878,77.0612 70.966,80.1088" stroke="#7f0000" stroke-width="2" /></svg>