<?xml version="1.0" encoding="utf-8" ?>
<svg baseProfile="tiny" height="128" version="1.2" viewBox="0,0,128,128" width="128" xmlns="http://www.w3.org/2000/svg" xmlns:ev="http://www.w3.org/2001/xml-events" xmlns:xlink="http://www.w3.org/1999/xlink"><defs /><polyline fill="none" points="12.5831,24.7322 10.8475,31.6746 10.4136,58.5763 11.7153,74.1966 14.7525,84.1763 21.6949,95.0237 29.0712,98.061 40.7864,98.9288 98.061,98.061 107.6068,93.2881 111.9458,82.8746 113.2475,57.2746 110.2102,33.8441 105.0034,25.6 96.3254,21.6949 88.9492,20.3932 54.2373,17.3559 34.7119,16.922 14.7525,19.9593 8.678,22.1288" stroke="#00007f" stroke-width="2" /><polyline fill="none" points="9.5458,36.8814 14.3186,37.3153 21.261,35.1458 25.1661,31.6746 30.8068,19.5254 32.5424,8.678" stroke="#0080ff" stroke-width="2" /><polyline fill="none" points="71.1593,16.4881 80.2712,32.5424 86.7797,39.0508 91.5525,41.6542 102.4,44.2576 108.0407,43.8237 119.322,38.6169" stroke="#7cff79" stroke-width="2" /><polyline fill="none" points="9.9797,72.0271 20.3932,70.7254 29.0712,75.0644 43.3898,89.3831 51.2,99.7966" stroke="#ff9400" stroke-width="2" /><polyline fill="none" points="79.4034,102.4 85.0441,89.8169 95.0237,79.4034 102.4,77.2339 114.5492,77.2339" stroke="#7f0000" stroke-width="2" /></svg>