<?xml version="1.0" encoding="utf-8" ?>
<svg baseProfile="tiny" height="128" version="1.2" viewBox="0,0,128,128" width="128" xmlns="http://www.w3.org/2000/svg" xmlns:ev="http://www.w3.org/2001/xml-events" xmlns:xlink="http://www.w3.org/1999/xlink"><defs /><polyline fill="none" points="49.0305,8.678 41.2203,10.8475 33.8441,15.1864 21.261,28.2034 13.8847,41.6542 9.5458,55.9729 8.678,75.4983 9.9797,82.8746 17.3559,96.7593 28.6373,109.7763 42.9559,117.5864 50.7661,118.8881 72.0271,119.322 84.6102,115.8508 90.2508,112.8136 98.061,104.1356 111.9458,76.8 113.2475,53.3695 111.9458,47.2949 97.6271,27.3356 88.0814,20.3932 52.9356,12.1492" stroke="#00007f" stroke-width="2" /><polyline fill="none" points="86.3458,19.0915 80.2712,19.9593 75.0644,22.9966 68.9898,31.2407 64.2169,43.3898 62.4814,63.7831 62.4814,83.7424 63.7831,89.8169 72.0271,101.5322 83.7424,107.1729" stroke="#0010ff" stroke-width="2" /><polyline fill="none" points="31.6746,20.3932 34.278,19.0915 35.5797,21.261 44.2576,45.5593 45.5593,61.1797 43.8237,74.6305 39.0508,86.3458 32.9763,93.2881 29.939,95.0237 22.5627,95.4576 12.5831,92.8542" stroke="#00a4ff" stroke-width="2" /><polyline fill="none" points="62.4814,23.8644 69.8576,28.2034" stroke="#3fffb7" stroke-width="2" /><polyline fill="none" points="59.0102,45.5593 66.8203,48.5966" stroke="#b7ff3f" stroke-width="2" /><polyline fill="none" points="54.6712,71.1593 61.1797,71.5932" stroke="#ffb900" stroke-width="2" /><polyline fill="none" points="62.0475,91.1186 64.2169,88.9492 73.7627,87.2136" stroke="#ff3000" stroke-width="2" /><polyline fill="none" points="66.3864,109.3424 72.461,105.4373" stroke="#7f0000" stroke-width="2" /></svg>