<?xml version="1.0" encoding="utf-8" ?>
<svg baseProfile="tiny" height="128" version="1.2" viewBox="0,0,128,128" width="128" xmlns="http://www.w3.org/2000/svg" xmlns:ev="http://www.w3.org/2001/xml-events" xmlns:xlink="http://www.w3.org/1999/xlink"><defs /><polyline fill="none" points="98.4949,31.6746 79.4034,20.3932 68.9898,18.2237 43.3898,17.3559 29.939,22.5627 19.9593,32.1085 11.7153,45.1254 8.678,57.2746 10.4136,69.4237 18.2237,81.139 29.939,91.1186 54.2373,107.6068 65.5186,112.8136 74.6305,115.8508 83.3085,116.2847 91.1186,114.9831 98.9288,102.8339 103.2678,89.8169 105.4373,75.0644 104.5695,49.8983 100.6644,40.3525 94.1559,33.8441" stroke="#00007f" stroke-width="2" /><polyline fill="none" points="61.1797,13.0169 68.9898,37.3153 70.7254,75.9322 63.3492,101.5322 55.1051,119.322" stroke="#004cff" stroke-width="2" /><polyline fill="none" points="38.1831,8.678 38.1831,8.678" stroke="#29ffcd" stroke-width="2" /><polyline fill="none" points="38.1831,8.678 41.6542,15.6203 45.5593,49.8983 45.5593,82.0068 43.8237,88.5153 35.1458,101.5322" stroke="#cdff29" stroke-width="2" /><polyline fill="none" points="77.2339,37.3153 73.3288,34.7119 64.6508,35.1458" stroke="#ff6700" stroke-width="2" /><polyline fill="none" points="78.9695,52.0678 71.1593,53.8034 64.6508,59.0102" stroke="#7f0000" stroke-width="2" /></svg>