<?xml version="1.0" encoding="utf-8" ?>
<svg baseProfile="tiny" height="128" version="1.2" viewBox="0,0,128,128" width="128" xmlns="http://www.w3.org/2000/svg" xmlns:ev="http://www.w3.org/2001/xml-events" xmlns:xlink="http://www.w3.org/1999/xlink"><defs /><polyline fill="none" points="55.9181,16.1638 32.3276,16.1638 27.5222,17.4744 22.2799,19.6587 17.9113,24.0273 14.4164,31.4539 13.9795,75.5768 18.3481,86.4983 24.901,94.7986 36.2594,100.4778 50.2389,104.8464 61.5973,106.157 83.4403,107.0307 91.7406,103.5358 99.1672,96.9829 103.9727,90.43 110.0887,76.0137 111.3993,69.4608 112.273,48.9283 110.0887,42.8123 106.157,36.6962 90.43,19.2218 79.5085,11.3584 71.6451,8.7372 51.5495,9.6109 50.2389,14.4164" stroke="#00007f" stroke-width="2" /><polyline fill="none" points="50.2389,14.4164 61.1604,35.8225 63.7816,48.0546 62.471,58.9761 46.3072,84.7509 28.8328,107.0307 15.2901,117.0785 8.7372,119.2628" stroke="#7cff79" stroke-width="2" /><polyline fill="none" points="76.8874,13.5427 77.3242,70.7713 81.6928,83.4403 90.8669,93.4881 91.7406,96.5461" stroke="#7f0000" stroke-width="2" /></svg>