<?xml version="1.0" encoding="utf-8" ?>
<svg baseProfile="tiny" height="128" version="1.2" viewBox="0,0,128,128" width="128" xmlns="http://www.w3.org/2000/svg" xmlns:ev="http://www.w3.org/2001/xml-events" xmlns:xlink="http://www.w3.org/1999/xlink"><defs /><polyline fill="none" points="82.2857,16.9796 77.0612,11.7551 69.2245,8.7075 53.551,9.5782 34.3946,19.1565 19.5918,32.6531 11.3197,47.8912 8.7075,64.4354 10.0136,76.1905 12.6259,85.3333 20.0272,99.2653 29.6054,109.7143 37.8776,115.3741 47.4558,118.8571 56.1633,119.2925 70.5306,115.8095 81.415,110.585 90.5578,103.619 100.5714,91.8639 104.9252,84.0272 107.5374,75.3197 105.3605,55.7279 98.8299,39.1837 77.4966,10.0136" stroke="#00007f" stroke-width="2" /><polyline fill="none" points="33.0884,19.5918 34.8299,19.5918 37.8776,22.6395 46.585,37.0068 52.6803,53.9864 53.551,63.5646 48.7619,79.2381 41.7959,90.5578 26.9932,107.5374" stroke="#00d4ff" stroke-width="2" /><polyline fill="none" points="82.7211,14.8027 79.2381,14.3673 75.7551,21.3333 74.0136,52.2449 75.7551,67.0476 82.2857,82.7211 90.1224,91.8639 97.0884,96.6531 96.2177,98.3946" stroke="#ffe500" stroke-width="2" /><polyline fill="none" points="68.7891,28.7347 77.932,30.4762" stroke="#7f0000" stroke-width="2" /></svg>