<?xml version="1.0" encoding="utf-8" ?>
<svg baseProfile="tiny" height="128" version="1.2" viewBox="0,0,128,128" width="128" xmlns="http://www.w3.org/2000/svg" xmlns:ev="http://www.w3.org/2001/xml-events" xmlns:xlink="http://www.w3.org/1999/xlink"><defs /><polyline fill="none" points="63.3492,13.8847 55.1051,12.5831 42.0881,18.6576 29.5051,27.3356 22.1288,36.8814 13.4508,54.6712 10.4136,66.8203 8.678,87.6475 9.9797,96.7593 13.0169,104.5695 19.0915,110.2102 34.278,117.5864 51.2,119.322 67.6881,118.0203 75.9322,114.5492 82.4407,109.7763 88.0814,102.4 96.3254,79.8373 101.9661,58.1424 103.2678,42.522 101.0983,36.4475 97.1932,30.8068 82.4407,15.1864 73.7627,9.1119 68.5559,8.678" stroke="#00007f" stroke-width="2" /><polyline fill="none" points="41.2203,24.2983 41.2203,32.5424 46.4271,45.1254 48.5966,56.8407 47.7288,78.5356 45.9932,84.1763 40.7864,94.1559 33.8441,102.4 21.261,112.3797 22.1288,112.8136" stroke="#0010ff" stroke-width="2" /><polyline fill="none" points="95.4576,31.2407 76.8,52.5017 73.3288,63.7831 73.3288,77.2339 76.3661,86.7797 81.139,95.0237 88.5153,100.2305 95.4576,101.5322 96.3254,99.7966" stroke="#00a4ff" stroke-width="2" /><polyline fill="none" points="44.2576,41.2203 56.8407,41.6542 58.5763,43.3898" stroke="#3fffb7" stroke-width="2" /><polyline fill="none" points="37.7492,62.9153 42.0881,65.9525 51.2,67.2542 52.5017,69.4237" stroke="#b7ff3f" stroke-width="2" /><polyline fill="none" points="39.0508,78.1017 47.7288,83.7424" stroke="#ffb900" stroke-width="2" /><polyline fill="none" points="35.1458,93.2881 38.1831,95.0237 45.9932,94.5898" stroke="#ff3000" stroke-width="2" /><polyline fill="none" points="78.9695,38.6169 81.5729,41.6542 93.722,43.8237" stroke="#7f0000" stroke-width="2" /></svg>