<?xml version="1.0" encoding="utf-8" ?>
<svg baseProfile="tiny" height="128" version="1.2" viewBox="0,0,128,128" width="128" xmlns="http://www.w3.org/2000/svg" xmlns:ev="http://www.w3.org/2001/xml-events" xmlns:xlink="http://www.w3.org/1999/xlink"><defs /><polyline fill="none" points="119.322,67.2542 119.322,67.2542" stroke="#00007f" stroke-width="2" /><polyline fill="none" points="88.0814,11.2814 75.0644,10.8475 32.5424,18.2237 16.922,26.4678 10.4136,34.278 8.678,41.2203 9.5458,52.0678 15.6203,59.4441 32.1085,72.461 42.0881,77.6678 51.2,81.5729 66.3864,85.478 81.5729,86.7797 95.8915,86.7797 99.7966,85.478 102.8339,84.1763 111.9458,74.6305 113.6814,67.2542 113.6814,49.4644 109.7763,39.4847 95.8915,23.4305 75.9322,8.678" stroke="#0080ff" stroke-width="2" /><polyline fill="none" points="44.6915,19.0915 49.0305,22.1288 50.3322,27.7695 50.3322,42.0881 47.7288,53.3695 42.522,64.6508 41.6542,73.7627" stroke="#7cff79" stroke-width="2" /><polyline fill="none" points="80.7051,16.0542 82.8746,16.0542 71.1593,31.6746 66.3864,42.9559 61.1797,60.7458 60.3119,75.4983 64.2169,83.3085" stroke="#ff9400" stroke-width="2" /><polyline fill="none" points="43.8237,30.3729 43.8237,30.3729" stroke="#7f0000" stroke-width="2" /></svg>