<?xml version="1.0" encoding="utf-8" ?>
<svg baseProfile="tiny" height="128" version="1.2" viewBox="0,0,128,128" width="128" xmlns="http://www.w3.org/2000/svg" xmlns:ev="http://www.w3.org/2001/xml-events" xmlns:xlink="http://www.w3.org/1999/xlink"><defs /><polyline fill="none" points="27.3356,18.2237 15.1864,24.2983 13.0169,27.3356 8.678,40.3525 9.1119,53.8034 12.1492,59.878 23.8644,76.3661 39.4847,84.1763 70.2915,89.3831 84.1763,88.5153 101.9661,82.0068 114.9831,72.461 116.7186,69.4237 119.322,58.5763 119.322,26.4678 113.2475,17.3559 110.6441,15.1864 103.2678,12.1492 88.9492,8.678 50.7661,8.678 31.2407,13.0169 17.3559,20.3932" stroke="#00007f" stroke-width="2" /><polyline fill="none" points="32.9763,11.7153 38.6169,14.3186 45.1254,19.9593 50.3322,30.8068 52.5017,49.0305 52.0678,55.1051 46.861,64.6508 39.4847,70.2915 32.9763,71.5932" stroke="#7cff79" stroke-width="2" /><polyline fill="none" points="91.9864,9.5458 89.3831,9.9797 82.0068,24.7322 80.7051,31.2407 81.139,53.3695 83.3085,60.3119 88.9492,69.8576 92.4203,73.3288 103.2678,75.4983" stroke="#7f0000" stroke-width="2" /></svg>