<?xml version="1.0" encoding="utf-8" ?>
<svg baseProfile="tiny" height="128" version="1.2" viewBox="0,0,128,128" width="128" xmlns="http://www.w3.org/2000/svg" xmlns:ev="http://www.w3.org/2001/xml-events" xmlns:xlink="http://www.w3.org/1999/xlink"><defs /><polyline fill="none" points="101.0983,23.4305 94.5898,22.5627 81.139,15.6203 71.1593,12.5831 59.4441,11.2814 47.7288,12.1492 36.0136,16.4881 26.0339,22.9966 15.1864,36.8814 9.5458,51.6339 8.678,62.4814 9.1119,78.5356 12.1492,88.5153 14.3186,93.722 22.9966,103.2678 44.2576,113.2475 54.2373,114.5492 66.3864,114.1153 82.0068,108.9085 94.5898,99.7966 101.9661,87.6475 107.1729,71.1593 108.4746,48.1627 107.1729,42.0881 101.0983,31.6746 85.0441,17.3559" stroke="#00007f" stroke-width="2" /><polyline fill="none" points="16.922,99.3627 22.1288,96.3254 33.4102,80.7051 42.522,59.878 43.8237,52.9356 45.1254,40.7864 44.6915,28.6373 37.7492,14.7525 30.8068,8.678" stroke="#00d4ff" stroke-width="2" /><polyline fill="none" points="45.9932,119.322 58.1424,104.5695 67.6881,87.2136 73.7627,70.7254 76.3661,58.1424 77.2339,34.7119 74.1966,26.0339 69.4237,18.6576 62.0475,12.5831" stroke="#ffe500" stroke-width="2" /><polyline fill="none" points="79.8373,109.3424 91.5525,84.1763 95.0237,70.2915 95.4576,38.6169 93.722,19.5254" stroke="#7f0000" stroke-width="2" /></svg>