<?xml version="1.0" encoding="utf-8" ?>
<svg baseProfile="tiny" height="128" version="1.2" viewBox="0,0,128,128" width="128" xmlns="http://www.w3.org/2000/svg" xmlns:ev="http://www.w3.org/2001/xml-events" xmlns:xlink="http://www.w3.org/1999/xlink"><defs /><polyline fill="none" points="58.1424,36.0136 46.4271,28.6373 32.1085,25.6 18.6576,26.4678 10.8475,33.8441 8.678,42.9559 8.678,75.0644 15.6203,101.9661 21.6949,108.0407 30.3729,113.6814 45.9932,118.4542 72.0271,119.322 94.5898,112.8136 102.8339,108.0407 108.4746,96.3254 110.2102,85.0441 110.2102,59.4441 104.1356,45.1254 93.2881,27.7695 81.139,15.1864 74.6305,11.7153 60.7458,9.5458 43.3898,10.8475 35.1458,14.3186 26.4678,22.9966" stroke="#00007f" stroke-width="2" /><polyline fill="none" points="65.9525,8.678 61.6136,16.4881 58.5763,27.3356 58.1424,52.0678 63.3492,65.5186 71.5932,79.8373 81.139,88.5153 90.6847,94.1559" stroke="#00d4ff" stroke-width="2" /><polyline fill="none" points="10.8475,26.4678 22.9966,39.4847 30.8068,62.4814 33.8441,82.8746 33.8441,103.2678 32.9763,108.0407 29.939,110.2102" stroke="#ffe500" stroke-width="2" /><polyline fill="none" points="9.9797,69.4237 23.8644,63.7831" stroke="#7f0000" stroke-width="2" /></svg>