<?xml version="1.0" encoding="utf-8" ?>
<svg baseProfile="tiny" height="128" version="1.2" viewBox="0,0,128,128" width="128" xmlns="http://www.w3.org/2000/svg" xmlns:ev="http://www.w3.org/2001/xml-events" xmlns:xlink="http://www.w3.org/1999/xlink"><defs /><polyline fill="none" points="56.4068,18.6576 46.4271,18.2237 36.0136,25.6 26.0339,35.5797 16.922,50.7661 13.4508,59.0102 9.1119,78.9695 8.678,100.2305 9.9797,107.6068 13.8847,113.6814 19.9593,118.0203 34.278,119.322 46.4271,115.4169 56.8407,107.6068 65.9525,95.8915 72.8949,82.8746 74.6305,76.8 75.9322,70.7254 75.9322,55.9729 74.1966,47.2949 57.2746,8.678" stroke="#00007f" stroke-width="2" /><polyline fill="none" points="47.7288,13.4508 39.4847,62.0475 30.3729,89.3831 25.6,98.9288 20.3932,105.0034 14.3186,107.6068 9.1119,107.6068" stroke="#00d4ff" stroke-width="2" /><polyline fill="none" points="65.9525,24.2983 64.6508,30.3729 52.5017,57.2746 49.4644,66.8203 47.7288,79.4034 47.7288,89.3831 51.2,96.7593 56.4068,101.5322 65.0847,103.2678" stroke="#ffe500" stroke-width="2" /><polyline fill="none" points="42.522,34.278 30.8068,42.0881" stroke="#7f0000" stroke-width="2" /></svg>