<?xml version="1.0" encoding="utf-8" ?>
<svg baseProfile="tiny" height="128" version="1.2" viewBox="0,0,128,128" width="128" xmlns="http://www.w3.org/2000/svg" xmlns:ev="http://www.w3.org/2001/xml-events" xmlns:xlink="http://www.w3.org/1999/xlink"><defs /><polyline fill="none" points="68.7891,9.1429 58.7755,8.7075 50.9388,12.1905 33.0884,25.6871 19.5918,43.102 10.8844,60.0816 8.7075,68.3537 9.1429,81.415 12.6259,97.5238 17.415,107.9728 22.6395,114.5034 36.1361,119.2925 50.068,119.2925 61.8231,116.6803 81.8503,107.9728 94.0408,97.0884 99.7007,88.381 106.2313,73.1429 108.8435,57.4694 108.4082,38.3129 104.4898,26.1224 97.9592,17.8503 89.6871,13.4966 78.3673,13.0612 64.0,17.8503" stroke="#00007f" stroke-width="2" /><polyline fill="none" points="53.551,22.6395 51.8095,25.2517 50.5034,31.7823 51.3741,61.8231 47.8912,87.9456 40.9252,106.2313 33.0884,115.3741" stroke="#7cff79" stroke-width="2" /><polyline fill="none" points="86.6395,23.0748 82.2857,39.619 79.6735,56.1633 80.9796,90.1224 79.6735,101.0068 75.3197,114.5034" stroke="#7f0000" stroke-width="2" /></svg>