<?xml version="1.0" encoding="utf-8" ?>
<svg baseProfile="tiny" height="128" version="1.2" viewBox="0,0,128,128" width="128" xmlns="http://www.w3.org/2000/svg" xmlns:ev="http://www.w3.org/2001/xml-events" xmlns:xlink="http://www.w3.org/1999/xlink"><defs /><polyline fill="none" points="51.2,8.678 31.2407,9.5458 21.6949,19.9593 17.7898,28.2034 11.7153,48.1627 8.678,68.5559 8.678,82.4407 16.922,99.3627 29.0712,109.7763 49.0305,117.5864 63.3492,119.322 78.5356,118.4542 89.8169,113.2475 108.0407,93.722 113.6814,84.1763 114.9831,74.1966 112.8136,65.0847 105.4373,52.0678 92.8542,37.3153 76.3661,24.2983 50.7661,20.3932" stroke="#00007f" stroke-width="2" /><polyline fill="none" points="15.1864,55.1051 20.8271,73.3288 22.9966,89.3831 22.9966,102.4" stroke="#0080ff" stroke-width="2" /><polyline fill="none" points="20.3932,68.9898 13.4508,72.0271 12.5831,73.7627 19.0915,75.4983" stroke="#7cff79" stroke-width="2" /><polyline fill="none" points="22.1288,77.2339 16.4881,80.7051 15.6203,84.1763 22.9966,87.6475 30.8068,89.3831 28.2034,91.5525 19.0915,93.722" stroke="#ff9400" stroke-width="2" /><polyline fill="none" points="88.0814,37.7492 88.0814,68.122 88.9492,73.3288 95.0237,88.9492 102.8339,98.061" stroke="#7f0000" stroke-width="2" /></svg>