<?xml version="1.0" encoding="utf-8" ?>
<svg baseProfile="tiny" height="128" version="1.2" viewBox="0,0,128,128" width="128" xmlns="http://www.w3.org/2000/svg" xmlns:ev="http://www.w3.org/2001/xml-events" xmlns:xlink="http://www.w3.org/1999/xlink"><defs /><polyline fill="none" points="50.7661,10.8475 43.8237,8.678 36.4475,9.1119 24.7322,16.4881 16.922,23.4305 11.7153,32.1085 8.678,42.0881 8.678,49.8983 15.6203,63.3492 21.261,69.4237 34.278,73.3288 91.5525,74.1966 99.7966,72.0271 108.9085,67.6881 113.2475,64.6508 118.0203,57.2746 119.322,48.5966 118.4542,38.1831 114.5492,28.2034 109.3424,22.1288 103.2678,17.3559 88.9492,12.5831 75.0644,11.2814 30.8068,11.2814" stroke="#00007f" stroke-width="2" /><polyline fill="none" points="84.1763,11.2814 80.7051,16.922 76.3661,30.8068 72.0271,52.9356 72.8949,62.9153 75.4983,65.9525 80.7051,68.9898" stroke="#004cff" stroke-width="2" /><polyline fill="none" points="33.4102,12.1492 46.861,29.5051 54.2373,51.2 55.539,69.4237 53.3695,73.3288 45.9932,79.4034" stroke="#29ffcd" stroke-width="2" /><polyline fill="none" points="36.0136,19.5254 46.4271,19.5254 54.6712,17.3559" stroke="#cdff29" stroke-width="2" /><polyline fill="none" points="47.2949,36.8814 61.1797,36.8814" stroke="#ff6700" stroke-width="2" /><polyline fill="none" points="48.1627,68.122 53.8034,68.122 55.1051,71.5932" stroke="#7f0000" stroke-width="2" /></svg>