<?xml version="1.0" encoding="utf-8" ?>
<svg baseProfile="tiny" height="128" version="1.2" viewBox="0,0,128,128" width="128" xmlns="http://www.w3.org/2000/svg" xmlns:ev="http://www.w3.org/2001/xml-events" xmlns:xlink="http://www.w3.org/1999/xlink"><defs /><polyline fill="none" points="111.078,22.9966 106.3051,16.4881 103.2678,15.6203 95.0237,8.678 76.3661,9.9797 43.8237,18.6576 23.4305,26.4678 17.3559,30.8068 13.0169,36.0136 9.5458,42.522 8.678,48.5966 8.678,60.7458 14.7525,67.2542 30.8068,76.8 48.5966,81.139 58.5763,80.2712 89.8169,68.9898 99.7966,63.7831 111.5119,54.6712 115.8508,45.9932 119.322,23.8644 118.4542,16.0542 112.3797,14.3186" stroke="#00007f" stroke-width="2" /><polyline fill="none" points="101.0983,12.5831 82.8746,34.7119 76.8,49.8983 78.5356,58.5763 84.1763,63.3492 92.4203,66.8203" stroke="#0080ff" stroke-width="2" /><polyline fill="none" points="36.0136,22.9966 44.6915,35.1458" stroke="#7cff79" stroke-width="2" /><polyline fill="none" points="45.5593,35.5797 32.9763,52.9356" stroke="#ff9400" stroke-width="2" /><polyline fill="none" points="33.4102,52.9356 15.1864,71.5932" stroke="#7f0000" stroke-width="2" /></svg>