<?xml version="1.0" encoding="utf-8" ?>
<svg baseProfile="tiny" height="128" version="1.2" viewBox="0,0,128,128" width="128" xmlns="http://www.w3.org/2000/svg" xmlns:ev="http://www.w3.org/2001/xml-events" xmlns:xlink="http://www.w3.org/1999/xlink"><defs /><polyline fill="none" points="110.6441,19.5254 104.1356,14.3186 86.7797,10.4136 55.1051,9.9797 40.3525,13.8847 22.9966,24.7322 14.7525,33.8441 9.5458,51.6339 8.678,62.4814 13.0169,72.8949 19.0915,82.0068 29.0712,92.4203 35.1458,95.8915 48.5966,98.9288 82.4407,98.9288 101.0983,93.2881 111.5119,84.1763 118.4542,68.5559 119.322,52.5017 116.2847,21.6949 111.078,9.1119 95.4576,8.678" stroke="#00007f" stroke-width="2" /><polyline fill="none" points="55.1051,9.9797 57.7085,22.5627 57.7085,30.8068 52.0678,55.539 45.9932,70.7254 38.6169,83.7424 34.7119,87.6475 31.2407,88.5153" stroke="#004cff" stroke-width="2" /><polyline fill="none" points="85.0441,11.7153 76.3661,36.4475 75.0644,49.4644 75.0644,68.9898 77.2339,77.6678 82.8746,82.0068" stroke="#29ffcd" stroke-width="2" /><polyline fill="none" points="72.461,24.7322 76.3661,24.7322 78.5356,26.4678" stroke="#cdff29" stroke-width="2" /><polyline fill="none" points="73.7627,51.2 90.6847,52.0678" stroke="#ff6700" stroke-width="2" /><polyline fill="none" points="69.8576,82.8746 78.5356,84.1763 90.6847,83.7424" stroke="#7f0000" stroke-width="2" /></svg>