<?xml version="1.0" encoding="utf-8" ?>
<svg baseProfile="tiny" height="128" version="1.2" viewBox="0,0,128,128" width="128" xmlns="http://www.w3.org/2000/svg" xmlns:ev="http://www.w3.org/2001/xml-events" xmlns:xlink="http://www.w3.org/1999/xlink"><defs /><polyline fill="none" points="55.1051,10.8475 61.6136,9.1119 73.7627,8.678 92.4203,15.6203 98.4949,19.0915 110.2102,29.5051 114.5492,34.7119 118.8881,45.5593 119.322,57.2746 113.2475,69.4237 101.9661,78.1017 94.1559,81.5729 74.6305,86.7797 54.2373,87.6475 34.278,82.0068 19.5254,69.8576 11.7153,56.4068 9.1119,49.0305 8.678,34.7119 11.2814,29.0712 16.0542,22.9966 21.261,18.6576 32.5424,13.0169 42.0881,10.8475 52.5017,10.8475" stroke="#00007f" stroke-width="2" /><polyline fill="none" points="52.0678,9.9797 61.1797,27.3356 62.0475,42.0881 58.5763,49.4644 52.5017,58.5763 36.8814,74.1966" stroke="#0010ff" stroke-width="2" /><polyline fill="none" points="85.9119,13.0169 83.3085,19.0915 82.4407,26.4678 84.1763,49.4644 91.1186,66.3864 94.1559,70.7254 101.0983,75.0644" stroke="#00a4ff" stroke-width="2" /><polyline fill="none" points="89.8169,31.6746 78.9695,32.5424 74.6305,35.1458" stroke="#3fffb7" stroke-width="2" /><polyline fill="none" points="93.722,51.6339 85.9119,56.4068" stroke="#b7ff3f" stroke-width="2" /><polyline fill="none" points="100.6644,69.4237 95.0237,73.7627 91.9864,74.1966" stroke="#ffb900" stroke-width="2" /><polyline fill="none" points="49.0305,22.9966 65.0847,26.4678" stroke="#ff3000" stroke-width="2" /><polyline fill="none" points="62.9153,43.8237 60.3119,45.5593 52.5017,46.861" stroke="#7f0000" stroke-width="2" /></svg>