<?xml version="1.0" encoding="utf-8" ?>
<svg baseProfile="tiny" height="128" version="1.2" viewBox="0,0,128,128" width="128" xmlns="http://www.w3.org/2000/svg" xmlns:ev="http://www.w3.org/2001/xml-events" xmlns:xlink="http://www.w3.org/1999/xlink"><defs /><polyline fill="none" points="78.5356,13.4508 74.1966,11.2814 55.9729,11.2814 45.9932,13.4508 24.2983,26.9017 11.7153,45.1254 8.678,57.2746 8.678,76.3661 11.2814,85.0441 22.5627,100.6644 34.7119,110.2102 45.9932,113.6814 66.3864,115.8508 75.0644,115.8508 85.0441,113.6814 92.4203,110.2102 100.6644,104.1356 111.078,91.5525 114.9831,84.1763 119.322,65.5186 118.4542,51.6339 115.8508,43.8237 108.9085,33.4102 88.9492,15.1864 72.8949,10.8475" stroke="#00007f" stroke-width="2" /><polyline fill="none" points="43.8237,20.3932 42.9559,47.7288 39.9186,50.7661 32.1085,55.1051 20.3932,58.5763 10.8475,59.0102" stroke="#0080ff" stroke-width="2" /><polyline fill="none" points="62.0475,14.7525 61.1797,53.3695 59.878,67.6881 50.3322,75.0644 40.3525,79.8373 28.2034,85.0441 16.4881,85.9119" stroke="#7cff79" stroke-width="2" /><polyline fill="none" points="88.9492,18.2237 88.0814,27.3356 90.2508,39.0508 96.3254,47.7288 105.8712,51.6339 118.0203,52.9356" stroke="#ff9400" stroke-width="2" /><polyline fill="none" points="73.7627,8.678 72.461,13.8847 72.461,22.9966 74.1966,55.9729 76.3661,72.0271 79.8373,81.139 87.2136,86.3458 99.3627,88.9492 108.9085,88.9492" stroke="#7f0000" stroke-width="2" /></svg>