<?xml version="1.0" encoding="utf-8" ?>
<svg baseProfile="tiny" height="128" version="1.2" viewBox="0,0,128,128" width="128" xmlns="http://www.w3.org/2000/svg" xmlns:ev="http://www.w3.org/2001/xml-events" xmlns:xlink="http://www.w3.org/1999/xlink"><defs /><polyline fill="none" points="64.2169,11.2814 59.0102,8.678 49.0305,9.5458 39.0508,12.5831 31.6746,16.922 22.5627,24.2983 14.7525,32.9763 9.1119,46.4271 8.678,54.2373 10.4136,63.7831 21.261,89.8169 35.1458,108.4746 47.2949,116.2847 61.1797,118.0203 80.7051,111.9458 91.5525,105.8712 101.0983,97.6271 109.7763,83.7424 113.2475,66.8203 112.3797,52.9356 110.6441,47.2949 105.8712,38.1831 96.3254,26.0339 89.3831,20.3932 83.3085,18.2237" stroke="#00007f" stroke-width="2" /><polyline fill="none" points="38.6169,11.2814 45.9932,25.6 50.7661,37.7492 52.9356,48.1627 54.2373,62.9153 52.9356,86.7797 49.8983,102.8339 45.5593,113.6814 41.2203,119.322" stroke="#0000e8" stroke-width="2" /><polyline fill="none" points="86.3458,20.3932 83.3085,26.0339 77.2339,48.5966 72.461,75.4983 72.0271,88.0814 75.0644,104.1356 78.9695,112.3797 82.4407,114.5492" stroke="#0038ff" stroke-width="2" /><polyline fill="none" points="38.1831,25.6 45.9932,26.9017" stroke="#0094ff" stroke-width="2" /><polyline fill="none" points="47.7288,37.3153 49.4644,39.4847 53.3695,40.3525" stroke="#0cf4ea" stroke-width="2" /><polyline fill="none" points="52.5017,46.861 51.2,52.9356" stroke="#56ffa0" stroke-width="2" /><polyline fill="none" points="53.3695,63.3492 55.1051,68.5559" stroke="#a0ff56" stroke-width="2" /><polyline fill="none" points="51.6339,82.8746 51.2,85.0441 53.8034,88.5153 60.7458,94.1559" stroke="#eaff0c" stroke-width="2" /><polyline fill="none" points="46.861,98.9288 47.2949,102.4 50.7661,107.6068" stroke="#ffaa00" stroke-width="2" /><polyline fill="none" points="48.5966,105.0034 55.9729,107.1729 62.0475,106.739" stroke="#ff5500" stroke-width="2" /><polyline fill="none" points="70.7254,97.6271 76.3661,98.4949 78.9695,97.1932" stroke="#e80000" stroke-width="2" /><polyline fill="none" points="66.3864,81.5729 76.3661,78.9695" stroke="#7f0000" stroke-width="2" /></svg>