<?xml version="1.0" encoding="utf-8" ?>
<svg baseProfile="tiny" height="128" version="1.2" viewBox="0,0,128,128" width="128" xmlns="http://www.w3.org/2000/svg" xmlns:ev="http://www.w3.org/2001/xml-events" xmlns:xlink="http://www.w3.org/1999/xlink"><defs /><polyline fill="none" points="39.9186,21.261 28.2034,21.261 24.2983,23.8644 9.9797,44.6915 8.678,48.1627 9.9797,59.0102 18.2237,75.4983 21.6949,79.4034 30.8068,95.4576 35.1458,98.4949 55.1051,103.2678 91.9864,106.3051 98.9288,102.8339 115.4169,82.0068 118.8881,73.3288 119.322,57.2746 116.7186,51.2 100.6644,37.7492 94.1559,26.0339 87.6475,18.6576 82.4407,16.4881 62.4814,9.9797 38.1831,8.678 27.7695,18.6576" stroke="#00007f" stroke-width="2" /><polyline fill="none" points="27.3356,19.5254 27.3356,22.9966 33.8441,26.4678 47.7288,30.8068 73.3288,30.8068 82.8746,26.4678 85.0441,21.261" stroke="#00d4ff" stroke-width="2" /><polyline fill="none" points="94.1559,38.6169 89.3831,45.9932 86.3458,61.1797 85.9119,73.7627 90.6847,87.2136 97.1932,92.8542 111.5119,101.5322" stroke="#ffe500" stroke-width="2" /><polyline fill="none" points="43.8237,73.7627 60.3119,90.2508 61.1797,96.3254 52.9356,90.2508 46.861,79.4034 43.3898,76.3661 22.9966,72.0271 33.8441,73.7627 41.6542,78.1017" stroke="#7f0000" stroke-width="2" /></svg>