<?xml version="1.0" encoding="utf-8" ?>
<svg baseProfile="tiny" height="128" version="1.2" viewBox="0,0,128,128" width="128" xmlns="http://www.w3.org/2000/svg" xmlns:ev="http://www.w3.org/2001/xml-events" xmlns:xlink="http://www.w3.org/1999/xlink"><defs /><polyline fill="none" points="66.3864,10.4136 62.4814,8.678 55.539,9.5458 42.9559,18.2237 27.7695,34.7119 15.6203,53.8034 9.1119,76.8 8.678,98.061 12.1492,105.8712 16.922,111.078 22.5627,114.9831 30.3729,118.0203 48.5966,119.322 59.0102,115.4169 68.122,109.7763 78.1017,101.0983 92.8542,80.2712 101.5322,59.878 103.2678,51.6339 103.2678,38.1831 96.3254,26.9017" stroke="#00007f" stroke-width="2" /><polyline fill="none" points="32.5424,29.0712 40.7864,36.0136 47.7288,48.5966 49.0305,58.5763 48.5966,70.2915 45.1254,80.2712 38.6169,89.8169 20.8271,105.8712 18.2237,110.6441" stroke="#0080ff" stroke-width="2" /><polyline fill="none" points="104.5695,38.1831 91.1186,41.6542 78.1017,46.861 70.7254,53.3695 64.2169,62.0475 58.5763,82.4407 58.1424,102.4 62.0475,108.9085 68.5559,111.078" stroke="#7cff79" stroke-width="2" /><polyline fill="none" points="39.9186,45.9932 54.6712,43.8237" stroke="#ff9400" stroke-width="2" /><polyline fill="none" points="35.5797,65.9525 47.2949,68.5559" stroke="#7f0000" stroke-width="2" /></svg>