<?xml version="1.0" encoding="utf-8" ?>
<svg baseProfile="tiny" height="128" version="1.2" viewBox="0,0,128,128" width="128" xmlns="http://www.w3.org/2000/svg" xmlns:ev="http://www.w3.org/2001/xml-events" xmlns:xlink="http://www.w3.org/1999/xlink"><defs /><polyline fill="none" points="65.5186,8.678 62.0475,11.7153 36.4475,19.0915 22.9966,28.6373 13.8847,42.0881 9.5458,55.9729 8.678,63.7831 9.9797,76.3661 15.6203,88.0814 19.9593,93.2881 29.5051,101.0983 36.0136,103.7017 50.7661,107.1729 59.878,106.739 79.8373,102.4 98.061,95.0237 108.4746,84.6102 114.9831,70.7254 118.8881,55.9729 119.322,49.8983 117.1525,41.6542 112.3797,33.8441 105.4373,26.0339 85.478,15.1864 66.3864,11.7153 49.4644,13.4508" stroke="#00007f" stroke-width="2" /><polyline fill="none" points="21.6949,94.5898 26.4678,95.4576 29.5051,94.5898 42.9559,84.6102 45.9932,79.4034 49.8983,62.0475 49.8983,42.0881 48.1627,32.5424 45.1254,24.2983 39.0508,17.3559" stroke="#7cff79" stroke-width="2" /><polyline fill="none" points="88.9492,14.7525 75.0644,42.9559 71.1593,55.1051 69.8576,66.8203 70.7254,73.3288 74.6305,83.3085 92.4203,98.061" stroke="#7f0000" stroke-width="2" /></svg>