<?xml version="1.0" encoding="utf-8" ?>
<svg baseProfile="tiny" height="128" version="1.2" viewBox="0,0,128,128" width="128" xmlns="http://www.w3.org/2000/svg" xmlns:ev="http://www.w3.org/2001/xml-events" xmlns:xlink="http://www.w3.org/1999/xlink"><defs /><polyline fill="none" points="55.2925,8.7075 40.0544,16.5442 33.0884,23.0748 23.0748,37.0068 14.3673,52.6803 8.7075,73.1429 10.0136,92.2993 15.6735,104.0544 22.6395,111.8912 27.4286,114.5034 38.7483,116.6803 52.6803,114.9388 60.0816,111.8912 84.0272,97.9592 88.8163,93.1701 94.4762,82.7211 98.8299,65.3061 99.2653,60.0816 96.2177,42.2313 90.1224,24.8163 86.6395,20.898 73.5782,16.1088 50.068,15.2381 48.3265,13.4966" stroke="#00007f" stroke-width="2" /><polyline fill="none" points="24.381,33.9592 30.9116,39.619 37.8776,50.5034 44.4082,78.8027 44.4082,93.1701 42.2313,104.9252 35.2653,119.2925 33.5238,118.8571" stroke="#7cff79" stroke-width="2" /><polyline fill="none" points="75.3197,17.415 62.6939,46.585 62.2585,53.1156 67.9184,69.2245 88.8163,95.3469 90.9932,100.5714" stroke="#7f0000" stroke-width="2" /></svg>