<?xml version="1.0" encoding="utf-8" ?>
<svg baseProfile="tiny" height="128" version="1.2" viewBox="0,0,128,128" width="128" xmlns="http://www.w3.org/2000/svg" xmlns:ev="http://www.w3.org/2001/xml-events" xmlns:xlink="http://www.w3.org/1999/xlink"><defs /><polyline fill="none" points="75.4983,9.9797 63.3492,8.678 48.1627,11.7153 32.9763,19.5254 19.5254,31.6746 11.7153,46.4271 9.1119,55.539 8.678,74.1966 9.9797,83.3085 15.6203,94.5898 22.5627,102.8339 31.6746,110.2102 41.6542,115.4169 52.9356,118.8881 66.3864,119.322 76.3661,117.5864 85.0441,112.8136 97.6271,99.3627 106.3051,85.0441 108.4746,74.1966 109.7763,51.6339 105.0034,39.0508 99.3627,31.2407 90.6847,24.7322 78.9695,21.261" stroke="#00007f" stroke-width="2" /><polyline fill="none" points="26.0339,32.9763 35.5797,42.522 41.6542,58.5763 41.6542,82.0068 36.8814,101.9661" stroke="#0010ff" stroke-width="2" /><polyline fill="none" points="91.5525,28.2034 86.7797,30.8068 82.8746,37.3153 78.9695,46.4271 75.0644,63.3492 73.7627,81.139 75.4983,89.8169 79.8373,101.9661" stroke="#00a4ff" stroke-width="2" /><polyline fill="none" points="70.2915,37.7492 75.0644,40.3525" stroke="#3fffb7" stroke-width="2" /><polyline fill="none" points="68.5559,56.4068 75.9322,58.1424" stroke="#b7ff3f" stroke-width="2" /><polyline fill="none" points="75.4983,80.7051 77.6678,81.5729" stroke="#ffb900" stroke-width="2" /><polyline fill="none" points="80.2712,99.3627 85.0441,98.4949" stroke="#ff3000" stroke-width="2" /><polyline fill="none" points="26.9017,44.2576 26.9017,44.2576" stroke="#7f0000" stroke-width="2" /></svg>