<?xml version="1.0" encoding="utf-8" ?>
<svg baseProfile="tiny" height="128" version="1.2" viewBox="0,0,128,128" width="128" xmlns="http://www.w3.org/2000/svg" xmlns:ev="http://www.w3.org/2001/xml-events" xmlns:xlink="http://www.w3.org/1999/xlink"><defs /><polyline fill="none" points="45.9932,8.678 42.522,9.5458 33.8441,22.9966 26.0339,36.4475 17.3559,57.7085 8.678,87.6475 8.678,95.0237 13.4508,102.8339 22.5627,112.3797 27.7695,115.4169 35.1458,115.8508 49.0305,111.9458 75.0644,99.7966 82.4407,94.1559 85.478,90.6847 91.1186,75.0644 91.5525,55.9729 88.9492,47.7288 58.1424,21.6949 45.1254,16.0542" stroke="#00007f" stroke-width="2" /><polyline fill="none" points="42.522,16.922 44.2576,31.2407 44.2576,62.9153 42.522,75.4983 28.2034,108.4746 19.5254,119.322" stroke="#7cff79" stroke-width="2" /><polyline fill="none" points="86.3458,39.9186 82.8746,56.4068 86.7797,70.7254 85.478,78.1017" stroke="#7f0000" stroke-width="2" /></svg>