<?xml version="1.0" encoding="utf-8" ?>
<svg baseProfile="tiny" height="128" version="1.2" viewBox="0,0,128,128" width="128" xmlns="http://www.w3.org/2000/svg" xmlns:ev="http://www.w3.org/2001/xml-events" xmlns:xlink="http://www.w3.org/1999/xlink"><defs /><polyline fill="none" points="67.2542,11.7153 45.5593,10.8475 38.6169,13.4508 24.7322,22.9966 16.4881,32.9763 12.5831,43.3898 12.1492,59.0102 17.7898,82.0068 23.4305,92.8542 30.3729,101.5322 47.2949,111.078 88.9492,119.322 97.6271,119.322 103.2678,117.1525 109.3424,111.078 116.7186,91.9864 118.8881,78.1017 118.8881,59.4441 112.8136,45.5593 99.7966,25.6 86.7797,16.922 72.0271,12.5831 65.9525,12.5831" stroke="#00007f" stroke-width="2" /><polyline fill="none" points="38.1831,8.678 41.6542,16.4881 48.5966,26.9017 64.6508,39.4847 71.1593,42.522 76.8,43.8237 90.2508,43.3898 99.7966,39.4847 105.0034,33.4102" stroke="#0000ff" stroke-width="2" /><polyline fill="none" points="80.2712,19.5254 79.8373,19.0915" stroke="#0080ff" stroke-width="2" /><polyline fill="none" points="79.4034,19.0915 69.8576,18.2237 47.7288,26.4678 30.3729,35.1458 23.8644,40.3525 13.4508,53.8034 8.678,65.0847 13.8847,62.4814" stroke="#15ffe1" stroke-width="2" /><polyline fill="none" points="77.2339,26.4678 67.2542,64.2169 61.6136,102.8339 60.3119,107.6068 60.3119,95.0237" stroke="#7cff79" stroke-width="2" /><polyline fill="none" points="80.2712,31.6746 84.6102,33.8441 89.3831,39.9186 103.7017,67.6881 107.1729,99.3627" stroke="#e4ff12" stroke-width="2" /><polyline fill="none" points="81.5729,20.3932 75.9322,22.5627 48.5966,48.5966 41.6542,60.7458 38.1831,71.5932 31.6746,85.478" stroke="#ff9400" stroke-width="2" /><polyline fill="none" points="76.8,24.2983 77.2339,24.2983" stroke="#ff1d00" stroke-width="2" /><polyline fill="none" points="78.5356,27.7695 85.478,47.2949 88.0814,60.3119 91.1186,82.8746 91.9864,108.0407" stroke="#7f0000" stroke-width="2" /></svg>