<?xml version="1.0" encoding="utf-8" ?>
<svg baseProfile="tiny" height="128" version="1.2" viewBox="0,0,128,128" width="128" xmlns="http://www.w3.org/2000/svg" xmlns:ev="http://www.w3.org/2001/xml-events" xmlns:xlink="http://www.w3.org/1999/xlink"><defs /><polyline fill="none" points="38.1831,9.1119 30.8068,8.678 21.6949,15.6203 18.2237,21.261 10.8475,41.6542 8.678,55.539 9.9797,84.6102 15.6203,95.8915 20.8271,102.8339 35.5797,111.5119 55.1051,116.7186 84.1763,119.322 103.7017,117.1525 108.0407,112.8136 110.2102,106.3051 111.078,84.6102 110.2102,72.0271 94.5898,39.9186 84.6102,29.0712 74.1966,26.4678 57.7085,26.0339 41.2203,23.4305" stroke="#00007f" stroke-width="2" /><polyline fill="none" points="29.5051,13.0169 35.1458,30.8068 43.8237,49.0305 45.5593,54.6712 46.4271,67.2542 39.9186,84.6102 26.9017,95.8915 28.2034,95.8915" stroke="#0080ff" stroke-width="2" /><polyline fill="none" points="81.139,35.5797 77.6678,42.522 72.8949,67.6881 72.461,86.7797 73.7627,92.8542 80.2712,101.0983 85.9119,104.5695 107.1729,110.6441 106.739,108.4746" stroke="#7cff79" stroke-width="2" /><polyline fill="none" points="68.9898,52.9356 82.8746,54.2373" stroke="#ff9400" stroke-width="2" /><polyline fill="none" points="68.5559,77.2339 68.5559,77.2339" stroke="#7f0000" stroke-width="2" /></svg>