<?xml version="1.0" encoding="utf-8" ?>
<svg baseProfile="tiny" height="128" version="1.2" viewBox="0,0,128,128" width="128" xmlns="http://www.w3.org/2000/svg" xmlns:ev="http://www.w3.org/2001/xml-events" xmlns:xlink="http://www.w3.org/1999/xlink"><defs /><polyline fill="none" points="53.3695,8.678 45.1254,10.8475 36.4475,15.6203 21.6949,28.6373 16.0542,40.7864 9.5458,51.6339 8.678,66.3864 9.9797,69.8576 19.0915,82.4407 32.9763,96.7593 48.5966,102.8339 64.6508,103.7017 83.7424,100.6644 91.5525,96.3254 102.8339,87.2136 111.9458,69.8576 119.322,52.0678 119.322,43.8237 116.7186,36.4475 113.2475,32.5424 101.5322,25.1661 89.3831,20.8271 68.9898,14.7525 56.4068,14.7525" stroke="#00007f" stroke-width="2" /><polyline fill="none" points="41.6542,14.7525 42.9559,26.4678 42.0881,47.7288 39.0508,60.3119 36.4475,67.6881 32.5424,72.0271" stroke="#7cff79" stroke-width="2" /><polyline fill="none" points="105.0034,26.4678 98.4949,35.5797 92.4203,48.1627 88.5153,75.9322 88.5153,84.1763 91.5525,91.5525 100.6644,98.4949" stroke="#7f0000" stroke-width="2" /></svg>