<?xml version="1.0" encoding="utf-8" ?>
<svg baseProfile="tiny" height="128" version="1.2" viewBox="0,0,128,128" width="128" xmlns="http://www.w3.org/2000/svg" xmlns:ev="http://www.w3.org/2001/xml-events" xmlns:xlink="http://www.w3.org/1999/xlink"><defs /><polyline fill="none" points="25.6,25.1661 22.1288,26.0339 17.7898,29.5051 11.2814,39.0508 9.1119,47.2949 8.678,69.8576 14.7525,82.8746 24.2983,95.4576 32.9763,101.9661 43.8237,106.3051 61.6136,105.8712 83.7424,97.6271 104.5695,87.2136 113.2475,79.4034 118.4542,72.461 119.322,49.4644 112.8136,34.278 103.7017,23.4305 100.2305,20.3932 88.9492,15.1864 74.6305,10.4136 61.1797,8.678 45.5593,8.678 33.8441,13.4508 21.6949,24.7322" stroke="#00007f" stroke-width="2" /><polyline fill="none" points="24.2983,24.2983 28.2034,24.2983 32.5424,28.2034 37.3153,41.2203 38.6169,85.0441 35.1458,94.1559 33.8441,89.3831" stroke="#00d4ff" stroke-width="2" /><polyline fill="none" points="39.4847,11.2814 44.6915,22.1288 48.5966,36.0136 48.5966,67.6881 39.9186,91.1186 36.0136,98.061 29.5051,104.5695" stroke="#ffe500" stroke-width="2" /><polyline fill="none" points="85.9119,13.8847 85.9119,18.6576 82.4407,29.0712" stroke="#7f0000" stroke-width="2" /></svg>