<?xml version="1.0" encoding="utf-8" ?>
<svg baseProfile="tiny" height="128" version="1.2" viewBox="0,0,128,128" width="128" xmlns="http://www.w3.org/2000/svg" xmlns:ev="http://www.w3.org/2001/xml-events" xmlns:xlink="http://www.w3.org/1999/xlink"><defs /><polyline fill="none" points="46.4271,92.8542 52.5017,105.0034 53.3695,110.2102 53.8034,112.8136 50.3322,116.7186 47.7288,118.4542 40.7864,119.322 17.7898,119.322 16.0542,118.0203 20.8271,101.5322 24.7322,95.4576 16.922,42.9559 8.678,18.6576 11.2814,12.5831 17.7898,8.678 24.7322,10.8475 31.2407,17.7898 35.5797,26.0339 42.0881,43.3898 49.4644,77.2339 49.4644,82.8746 46.4271,90.2508 36.8814,88.0814 21.261,89.3831" stroke="#00007f" stroke-width="2" /><polyline fill="none" points="62.4814,73.7627 62.4814,73.7627" stroke="#7cff79" stroke-width="2" /><polyline fill="none" points="44.6915,89.8169 53.8034,76.8 61.6136,70.2915 71.1593,67.2542 84.6102,71.1593 90.2508,75.4983 95.4576,82.0068 95.8915,93.2881 93.2881,99.7966 85.0441,108.0407 72.8949,112.8136 65.5186,109.7763 63.3492,106.3051 62.4814,100.2305" stroke="#7f0000" stroke-width="2" /></svg>