<?xml version="1.0" encoding="utf-8" ?>
<svg baseProfile="tiny" height="128" version="1.2" viewBox="0,0,128,128" width="128" xmlns="http://www.w3.org/2000/svg" xmlns:ev="http://www.w3.org/2001/xml-events" xmlns:xlink="http://www.w3.org/1999/xlink"><defs /><polyline fill="none" points="40.7864,12.5831 32.9763,13.8847 23.8644,24.7322 13.4508,48.1627 9.1119,60.7458 8.678,66.8203 13.0169,80.7051 21.261,93.2881 34.278,102.4 40.3525,105.4373 61.1797,108.9085 76.8,105.0034 91.5525,97.6271 108.9085,80.7051 116.2847,67.6881 119.322,55.9729 118.0203,45.1254 116.7186,39.9186 110.6441,30.3729 94.5898,15.1864 85.0441,10.4136 75.9322,8.678 47.2949,9.9797 35.5797,12.5831 30.3729,16.4881 26.0339,23.8644 25.6,36.8814 26.9017,40.7864 33.8441,48.1627 42.9559,52.0678 60.3119,56.4068 91.5525,61.6136 91.5525,89.3831 80.2712,98.4949 71.1593,108.0407 67.2542,110.2102" stroke="#00007f" stroke-width="2" /><polyline fill="none" points="31.2407,30.8068 39.0508,52.9356" stroke="#0000fe" stroke-width="2" /><polyline fill="none" points="54.2373,55.9729 64.2169,61.1797 73.3288,62.4814" stroke="#0060ff" stroke-width="2" /><polyline fill="none" points="91.5525,64.6508 98.061,76.8" stroke="#00d4ff" stroke-width="2" /><polyline fill="none" points="93.2881,82.8746 89.3831,91.1186" stroke="#4cffaa" stroke-width="2" /><polyline fill="none" points="73.3288,98.061 72.0271,98.9288" stroke="#aaff4c" stroke-width="2" /><polyline fill="none" points="65.5186,100.6644 65.5186,101.0983" stroke="#ffe500" stroke-width="2" /><polyline fill="none" points="59.0102,88.5153 68.122,84.1763" stroke="#ff7a00" stroke-width="2" /><polyline fill="none" points="90.2508,69.8576 90.6847,68.122" stroke="#fe1200" stroke-width="2" /><polyline fill="none" points="84.6102,55.9729 81.5729,53.8034" stroke="#7f0000" stroke-width="2" /></svg>