<?xml version="1.0" encoding="utf-8" ?>
<svg baseProfile="tiny" height="128" version="1.2" viewBox="0,0,128,128" width="128" xmlns="http://www.w3.org/2000/svg" xmlns:ev="http://www.w3.org/2001/xml-events" xmlns:xlink="http://www.w3.org/1999/xlink"><defs /><polyline fill="none" points="53.1156,15.6735 42.6667,16.9796 35.2653,21.3333 21.3333,39.1837 14.8027,51.8095 10.8844,55.7279 8.7075,61.8231 17.415,85.3333 24.381,97.9592 40.0544,115.3741 50.068,119.2925 73.5782,119.2925 85.3333,117.551 95.7823,112.3265 99.7007,109.7143 105.7959,99.2653 108.8435,85.3333 111.0204,65.7415 110.585,39.1837 106.6667,31.7823 99.7007,23.0748 85.7687,12.1905 77.4966,8.7075 66.6122,8.7075 53.1156,14.8027" stroke="#00007f" stroke-width="2" /><polyline fill="none" points="31.3469,20.898 35.7007,29.1701 42.2313,35.2653 71.8367,46.1497 93.1701,47.4558 110.585,41.3605" stroke="#7cff79" stroke-width="2" /><polyline fill="none" points="24.8163,93.1701 36.5714,90.9932 51.8095,90.9932 61.8231,94.9116 82.2857,111.8912" stroke="#7f0000" stroke-width="2" /></svg>