<?xml version="1.0" encoding="utf-8" ?>
<svg baseProfile="tiny" height="128" version="1.2" viewBox="0,0,128,128" width="128" xmlns="http://www.w3.org/2000/svg" xmlns:ev="http://www.w3.org/2001/xml-events" xmlns:xlink="http://www.w3.org/1999/xlink"><defs /><polyline fill="none" points="100.5714,33.9592 95.7823,25.2517 87.5102,16.9796 77.0612,10.8844 66.6122,8.7075 60.0816,8.7075 52.2449,11.3197 23.0748,28.2993 18.2857,33.0884 11.7551,43.9728 10.0136,50.068 8.7075,59.2109 10.0136,67.483 21.7687,81.415 40.9252,94.0408 49.1973,97.9592 58.3401,99.7007 75.3197,100.1361 96.2177,91.4286 112.3265,80.9796 116.2449,76.6259 118.8571,68.7891 119.2925,52.2449 114.9388,42.6667 108.8435,37.4422 104.9252,36.1361" stroke="#00007f" stroke-width="2" /><polyline fill="none" points="90.1224,21.7687 84.4626,25.2517 80.5442,33.0884 77.932,50.068 77.932,61.8231 83.1565,71.8367 97.5238,84.0272" stroke="#004cff" stroke-width="2" /><polyline fill="none" points="22.6395,33.5238 25.6871,33.5238 31.7823,40.9252 33.9592,44.8435 34.8299,52.6803 30.0408,69.2245 25.2517,77.932 16.5442,79.6735" stroke="#29ffcd" stroke-width="2" /><polyline fill="none" points="14.3673,59.2109 37.8776,60.0816 53.1156,52.6803 71.4014,37.0068 77.932,28.2993 81.8503,17.8503" stroke="#cdff29" stroke-width="2" /><polyline fill="none" points="55.7279,58.3401 55.7279,58.3401" stroke="#ff6700" stroke-width="2" /><polyline fill="none" points="54.8571,52.6803 54.8571,49.6327 64.0,53.9864 72.7075,63.1293 79.6735,76.6259 83.1565,99.2653" stroke="#7f0000" stroke-width="2" /></svg>