<?xml version="1.0" encoding="utf-8" ?>
<svg baseProfile="tiny" height="128" version="1.2" viewBox="0,0,128,128" width="128" xmlns="http://www.w3.org/2000/svg" xmlns:ev="http://www.w3.org/2001/xml-events" xmlns:xlink="http://www.w3.org/1999/xlink"><defs /><polyline fill="none" points="40.7864,11.2814 51.2,8.678 80.7051,8.678 87.6475,10.8475 101.5322,21.6949 113.2475,38.6169 115.8508,45.5593 118.4542,67.2542 118.4542,91.9864 113.6814,98.9288 96.7593,110.2102 82.8746,115.4169 68.9898,118.0203 37.7492,119.322 33.8441,118.4542 19.0915,110.6441 9.1119,95.8915 8.678,85.9119 9.9797,78.9695 16.0542,65.5186 22.9966,55.1051 38.6169,38.1831 45.9932,27.7695 54.2373,20.8271" stroke="#00007f" stroke-width="2" /><polyline fill="none" points="86.3458,12.5831 87.2136,19.5254 82.0068,33.8441 75.0644,70.7254 75.0644,85.9119 78.5356,99.3627 81.139,106.3051 81.139,102.4" stroke="#0010ff" stroke-width="2" /><polyline fill="none" points="33.4102,44.2576 38.6169,50.7661 44.6915,65.9525 46.4271,76.8 45.5593,107.6068 43.3898,111.078 40.3525,113.2475 36.8814,105.8712" stroke="#00a4ff" stroke-width="2" /><polyline fill="none" points="36.0136,58.5763 44.6915,57.7085" stroke="#3fffb7" stroke-width="2" /><polyline fill="none" points="42.9559,75.4983 46.4271,76.8" stroke="#b7ff3f" stroke-width="2" /><polyline fill="none" points="39.4847,84.6102 44.2576,88.0814" stroke="#ffb900" stroke-width="2" /><polyline fill="none" points="75.4983,23.8644 85.9119,27.3356 86.3458,29.939" stroke="#ff3000" stroke-width="2" /><polyline fill="none" points="75.0644,51.6339 77.6678,58.5763" stroke="#7f0000" stroke-width="2" /></svg>