<?xml version="1.0" encoding="utf-8" ?>
<svg baseProfile="tiny" height="128" version="1.2" viewBox="0,0,128,128" width="128" xmlns="http://www.w3.org/2000/svg" xmlns:ev="http://www.w3.org/2001/xml-events" xmlns:xlink="http://www.w3.org/1999/xlink"><defs /><polyline fill="none" points="40.7864,23.4305 32.9763,26.4678 19.9593,36.0136 11.7153,52.5017 9.1119,61.6136 8.678,69.8576 9.5458,77.2339 14.7525,91.1186 19.5254,98.061 30.3729,108.4746 42.9559,115.4169 71.5932,119.322 79.8373,118.4542 86.3458,116.7186 91.9864,113.2475 101.9661,102.8339 105.4373,96.3254 109.7763,79.8373 111.5119,60.3119 109.7763,43.8237 107.6068,37.7492 100.6644,27.7695 91.1186,16.922 80.2712,9.9797 69.4237,8.678 57.7085,9.1119 42.9559,13.4508 36.0136,17.7898 29.939,23.4305 21.261,34.7119" stroke="#00007f" stroke-width="2" /><polyline fill="none" points="34.278,21.261 37.3153,40.7864 40.7864,46.861 45.5593,51.2 49.0305,52.5017 54.2373,52.5017 67.6881,49.4644 73.3288,45.1254 83.7424,30.3729 85.0441,24.7322 84.1763,17.7898 81.5729,18.2237" stroke="#7cff79" stroke-width="2" /><polyline fill="none" points="38.1831,112.3797 39.0508,104.1356 49.0305,85.0441 54.6712,77.6678 60.7458,75.0644 75.4983,76.8 87.6475,83.7424 92.4203,90.2508 94.1559,102.8339" stroke="#7f0000" stroke-width="2" /></svg>