<?xml version="1.0" encoding="utf-8" ?>
<svg baseProfile="tiny" height="128" version="1.2" viewBox="0,0,128,128" width="128" xmlns="http://www.w3.org/2000/svg" xmlns:ev="http://www.w3.org/2001/xml-events" xmlns:xlink="http://www.w3.org/1999/xlink"><defs /><polyline fill="none" points="66.8203,8.678 51.2,9.1119 29.939,22.9966 21.6949,31.2407 14.7525,41.2203 8.678,59.878 8.678,85.478 19.0915,99.7966 32.5424,109.3424 45.5593,114.9831 60.7458,118.4542 85.478,118.8881 94.1559,113.6814 109.3424,97.6271 115.4169,83.7424 118.4542,73.3288 119.322,48.5966 117.5864,39.4847 114.5492,32.9763 100.6644,14.3186 93.722,11.7153 84.1763,11.2814" stroke="#00007f" stroke-width="2" /><polyline fill="none" points="40.3525,16.0542 39.4847,29.0712 26.0339,75.4983 8.678,114.9831" stroke="#7cff79" stroke-width="2" /><polyline fill="none" points="108.9085,11.2814 96.7593,27.3356 72.0271,71.1593 65.5186,95.8915 66.3864,118.8881" stroke="#7f0000" stroke-width="2" /></svg>