<?xml version="1.0" encoding="utf-8" ?>
<svg baseProfile="tiny" height="128" version="1.2" viewBox="0,0,128,128" width="128" xmlns="http://www.w3.org/2000/svg" xmlns:ev="http://www.w3.org/2001/xml-events" xmlns:xlink="http://www.w3.org/1999/xlink"><defs /><polyline fill="none" points="8.678,29.939 11.2814,26.9017 21.261,21.6949 47.2949,15.1864 61.6136,13.4508 86.7797,13.8847 99.3627,19.5254 109.7763,28.6373 117.5864,40.7864 119.322,53.8034 118.8881,65.9525 112.8136,76.3661 104.1356,85.478 81.5729,99.3627 67.2542,105.0034 53.8034,108.0407 41.6542,108.0407 30.8068,101.5322 22.5627,87.6475 16.0542,71.1593 13.0169,57.7085 11.7153,35.1458 12.1492,25.6 17.7898,16.922 26.9017,11.7153 39.9186,8.678 53.8034,8.678 67.6881,12.1492" stroke="#00007f" stroke-width="2" /><polyline fill="none" points="47.2949,14.7525 49.0305,34.7119 48.1627,60.3119 45.1254,64.6508 29.5051,78.1017 17.7898,96.3254" stroke="#7cff79" stroke-width="2" /><polyline fill="none" points="77.2339,21.261 77.6678,85.0441 85.0441,93.2881 105.4373,101.0983" stroke="#7f0000" stroke-width="2" /></svg>