<?xml version="1.0" encoding="utf-8" ?>
<svg baseProfile="tiny" height="128" version="1.2" viewBox="0,0,128,128" width="128" xmlns="http://www.w3.org/2000/svg" xmlns:ev="http://www.w3.org/2001/xml-events" xmlns:xlink="http://www.w3.org/1999/xlink"><defs /><polyline fill="none" points="16.9796,100.1361 16.1088,104.0544 9.5782,114.9388 8.7075,118.8571 14.8027,119.2925 19.5918,116.6803 22.2041,113.6327 23.5102,106.2313 30.0408,88.8163 40.0544,64.8707 53.9864,26.1224 61.3878,10.0136 60.0816,8.7075 46.585,8.7075 41.7959,11.3197 35.7007,18.2857 34.3946,23.9456 33.5238,49.1973 26.1224,67.9184 16.9796,101.0068 15.2381,102.7483" stroke="#00007f" stroke-width="2" /><polyline fill="none" points="15.2381,100.1361 25.6871,99.7007" stroke="#7cff79" stroke-width="2" /><polyline fill="none" points="99.2653,64.4354 91.4286,63.1293 85.3333,66.1769 75.3197,75.7551 72.2721,84.0272 72.2721,92.2993 76.6259,98.8299 82.7211,101.4422 92.7347,101.8776 97.9592,97.5238 101.4422,91.4286 103.619,74.8844 94.0408,69.2245 85.7687,69.2245" stroke="#7f0000" stroke-width="2" /></svg>