<?xml version="1.0" encoding="utf-8" ?>
<svg baseProfile="tiny" height="128" version="1.2" viewBox="0,0,128,128" width="128" xmlns="http://www.w3.org/2000/svg" xmlns:ev="http://www.w3.org/2001/xml-events" xmlns:xlink="http://www.w3.org/1999/xlink"><defs /><polyline fill="none" points="83.5918,11.3197 60.0816,13.932 42.6667,21.7687 33.0884,29.1701 18.7211,44.4082 14.8027,50.5034 10.449,62.2585 8.7075,68.3537 8.7075,82.2857 14.3673,92.2993 21.3333,98.3946 31.7823,102.3129 50.9388,103.1837 78.3673,95.3469 101.0068,82.7211 114.5034,69.6599 117.9864,60.517 119.2925,51.3741 117.9864,43.102 114.068,34.3946 108.4082,26.5578 101.4422,20.898 90.9932,15.2381 77.932,10.449 57.4694,8.7075 53.1156,12.1905" stroke="#00007f" stroke-width="2" /><polyline fill="none" points="69.2245,11.3197 66.6122,12.6259 46.585,53.1156 37.4422,64.4354 24.8163,75.7551 8.7075,83.1565" stroke="#00d4ff" stroke-width="2" /><polyline fill="none" points="23.9456,103.1837 35.2653,100.1361 51.3741,92.2993 60.0816,84.898 73.1429,70.966 80.5442,49.1973 84.0272,20.898" stroke="#ffe500" stroke-width="2" /><polyline fill="none" points="72.7075,109.7143 75.7551,108.4082 87.9456,93.6054 99.7007,75.3197 108.8435,51.3741 110.1497,22.6395 111.8912,21.3333" stroke="#7f0000" stroke-width="2" /></svg>