<?xml version="1.0" encoding="utf-8" ?>
<svg baseProfile="tiny" height="128" version="1.2" viewBox="0,0,128,128" width="128" xmlns="http://www.w3.org/2000/svg" xmlns:ev="http://www.w3.org/2001/xml-events" xmlns:xlink="http://www.w3.org/1999/xlink"><defs /><polyline fill="none" points="64.6508,8.678 57.7085,13.4508 40.3525,21.261 30.3729,29.939 24.7322,37.3153 15.6203,52.9356 11.7153,62.4814 9.1119,72.8949 8.678,89.3831 12.5831,101.5322 20.8271,112.3797 27.7695,116.2847 40.3525,119.322 61.1797,117.5864 78.9695,107.6068 87.6475,98.9288 93.2881,87.2136 96.7593,66.8203 95.8915,58.5763 87.2136,44.2576 69.8576,27.7695 65.5186,18.6576" stroke="#00007f" stroke-width="2" /><polyline fill="none" points="59.0102,14.3186 52.9356,26.0339 48.5966,47.7288 49.0305,64.2169 52.0678,79.8373 57.2746,95.4576 62.4814,104.1356 71.5932,111.5119 78.5356,114.9831 81.5729,114.5492" stroke="#7cff79" stroke-width="2" /><polyline fill="none" points="28.2034,26.9017 33.4102,57.7085 33.8441,84.1763 29.0712,104.1356 19.5254,114.9831 17.3559,114.5492 17.3559,113.2475" stroke="#7f0000" stroke-width="2" /></svg>