<?xml version="1.0" encoding="utf-8" ?>
<svg baseProfile="tiny" height="128" version="1.2" viewBox="0,0,128,128" width="128" xmlns="http://www.w3.org/2000/svg" xmlns:ev="http://www.w3.org/2001/xml-events" xmlns:xlink="http://www.w3.org/1999/xlink"><defs /><polyline fill="none" points="75.3197,22.2041 67.483,18.2857 48.7619,18.2857 35.2653,24.381 28.2993,29.1701 16.9796,40.4898 12.6259,47.4558 10.0136,55.2925 8.7075,73.1429 9.1429,83.5918 18.7211,102.7483 24.8163,110.1497 30.9116,115.3741 37.4422,118.8571 55.2925,119.2925 65.3061,114.068 76.1905,105.7959 102.3129,76.1905 106.6667,67.0476 108.4082,57.4694 108.4082,48.3265 105.3605,39.619 94.9116,23.9456 88.381,17.415 81.415,12.1905 74.8844,8.7075 67.483,8.7075" stroke="#00007f" stroke-width="2" /><polyline fill="none" points="41.3605,25.6871 45.2789,48.7619 45.7143,80.1088 40.9252,102.7483 35.7007,111.8912" stroke="#0010ff" stroke-width="2" /><polyline fill="none" points="84.898,14.3673 81.415,17.8503 79.2381,23.9456 71.8367,47.0204 70.5306,78.3673 71.4014,85.3333 74.449,88.8163" stroke="#00a4ff" stroke-width="2" /><polyline fill="none" points="68.3537,31.3469 80.1088,33.5238" stroke="#3fffb7" stroke-width="2" /><polyline fill="none" points="69.6599,56.5986 82.2857,56.1633" stroke="#b7ff3f" stroke-width="2" /><polyline fill="none" points="74.0136,79.2381 87.9456,78.8027" stroke="#ffb900" stroke-width="2" /><polyline fill="none" points="35.7007,48.3265 38.3129,47.0204 47.4558,47.4558" stroke="#ff3000" stroke-width="2" /><polyline fill="none" points="43.9728,70.0952 43.9728,70.0952" stroke="#7f0000" stroke-width="2" /></svg>