<?xml version="1.0" encoding="utf-8" ?>
<svg baseProfile="tiny" height="128" version="1.2" viewBox="0,0,128,128" width="128" xmlns="http://www.w3.org/2000/svg" xmlns:ev="http://www.w3.org/2001/xml-events" xmlns:xlink="http://www.w3.org/1999/xlink"><defs /><polyline fill="none" points="64.2169,8.678 58.1424,8.678 42.0881,17.7898 31.2407,27.7695 24.2983,36.0136 18.6576,44.6915 10.8475,60.7458 9.1119,69.8576 8.678,82.8746 14.3186,94.1559 22.9966,102.4 31.2407,106.3051 46.4271,108.9085 59.0102,108.9085 72.8949,106.3051 95.4576,94.1559 109.7763,81.5729 117.5864,68.9898 119.322,52.5017 116.2847,43.8237 110.2102,34.278 102.8339,26.9017 90.2508,17.3559 78.5356,11.7153 66.3864,9.1119 59.4441,8.678 55.539,10.8475" stroke="#00007f" stroke-width="2" /><polyline fill="none" points="44.6915,13.8847 44.2576,39.0508 42.0881,57.2746 39.9186,101.0983 37.7492,106.3051" stroke="#7cff79" stroke-width="2" /><polyline fill="none" points="78.9695,15.6203 78.9695,36.8814 72.0271,70.7254 69.4237,102.8339" stroke="#7f0000" stroke-width="2" /></svg>