<?xml version="1.0" encoding="utf-8" ?>
<svg baseProfile="tiny" height="128" version="1.2" viewBox="0,0,128,128" width="128" xmlns="http://www.w3.org/2000/svg" xmlns:ev="http://www.w3.org/2001/xml-events" xmlns:xlink="http://www.w3.org/1999/xlink"><defs /><polyline fill="none" points="44.2576,73.7627 51.2,75.9322 57.7085,73.7627 62.0475,70.2915 114.5492,69.8576 115.4169,64.2169 105.8712,61.1797 98.9288,60.7458 63.3492,60.3119 62.0475,62.0475 63.3492,67.2542" stroke="#00007f" stroke-width="2" /><polyline fill="none" points="65.5186,61.1797 62.0475,59.878 56.4068,59.878 53.8034,61.1797 51.6339,66.3864 46.4271,68.5559 45.5593,75.0644 46.861,76.8" stroke="#0000ff" stroke-width="2" /><polyline fill="none" points="75.0644,43.3898 76.8,46.4271 81.139,49.8983 87.6475,52.9356 91.9864,52.9356 95.0237,49.8983 97.6271,43.8237 97.1932,38.6169 94.1559,36.4475 86.7797,33.8441 78.9695,33.8441 75.0644,38.6169 75.4983,43.8237 88.0814,49.0305" stroke="#0080ff" stroke-width="2" /><polyline fill="none" points="44.2576,87.2136 42.9559,49.4644 44.2576,36.4475" stroke="#15ffe1" stroke-width="2" /><polyline fill="none" points="43.3898,87.6475 8.678,88.0814 8.678,83.7424 17.3559,60.3119 20.8271,43.3898 22.5627,39.0508 24.7322,37.3153 59.0102,37.3153" stroke="#7cff79" stroke-width="2" /><polyline fill="none" points="44.6915,62.4814 57.2746,64.6508" stroke="#e4ff12" stroke-width="2" /><polyline fill="none" points="43.3898,74.1966 60.7458,74.6305" stroke="#ff9400" stroke-width="2" /><polyline fill="none" points="78.5356,40.7864 81.139,44.6915 84.1763,47.2949 94.1559,49.0305 97.6271,45.5593 98.4949,39.0508 97.1932,35.5797 91.5525,32.1085 87.6475,30.8068 82.8746,31.6746 80.2712,35.5797 77.6678,44.6915 77.6678,54.6712 80.2712,61.6136 87.2136,64.2169 98.9288,64.2169 104.5695,61.6136 109.3424,58.1424 116.2847,48.5966 119.322,38.1831 119.322,27.3356 117.5864,22.5627 114.9831,16.922 107.6068,10.8475 91.9864,8.678 76.3661,14.3186 68.5559,19.5254 53.3695,35.1458 44.2576,50.7661 41.6542,58.5763 42.522,71.1593 45.5593,74.1966 50.7661,75.9322 72.8949,75.0644 88.5153,69.4237 95.4576,65.5186 102.8339,59.0102 105.0034,51.2 101.9661,49.0305 96.7593,47.7288 87.6475,47.7288 85.9119,49.0305 84.6102,53.3695 85.478,57.7085" stroke="#ff1d00" stroke-width="2" /><polyline fill="none" points="78.9695,99.7966 77.6678,102.8339 83.7424,103.7017 86.3458,101.0983 88.0814,95.8915" stroke="#7f0000" stroke-width="2" /></svg>