<?xml version="1.0" encoding="utf-8" ?>
<svg baseProfile="tiny" height="128" version="1.2" viewBox="0,0,128,128" width="128" xmlns="http://www.w3.org/2000/svg" xmlns:ev="http://www.w3.org/2001/xml-events" xmlns:xlink="http://www.w3.org/1999/xlink"><defs /><polyline fill="none" points="46.1497,8.7075 32.6531,13.0612 16.9796,23.5102 11.3197,33.5238 8.7075,46.1497 8.7075,52.2449 11.7551,64.0 20.0272,76.6259 31.7823,84.4626 43.9728,88.381 61.8231,90.9932 74.0136,90.9932 87.9456,88.8163 101.0068,82.7211 109.7143,75.7551 118.8571,60.0816 119.2925,47.8912 114.068,38.3129 108.4082,32.6531 88.8163,20.898 64.4354,13.4966" stroke="#00007f" stroke-width="2" /><polyline fill="none" points="22.2041,20.4626 23.0748,26.1224 27.4286,35.2653 44.8435,61.3878 57.4694,70.5306 66.1769,73.1429 71.8367,72.7075 79.2381,68.3537 90.1224,59.6463 97.5238,49.6327 99.7007,38.7483 97.0884,33.5238 91.8639,29.6054" stroke="#0000ff" stroke-width="2" /><polyline fill="none" points="24.381,37.0068 29.6054,37.4422 38.3129,34.8299" stroke="#0080ff" stroke-width="2" /><polyline fill="none" points="38.3129,50.9388 41.3605,51.3741 48.3265,47.4558" stroke="#15ffe1" stroke-width="2" /><polyline fill="none" points="46.1497,68.7891 62.2585,58.7755" stroke="#7cff79" stroke-width="2" /><polyline fill="none" points="68.3537,75.3197 75.3197,59.6463" stroke="#e4ff12" stroke-width="2" /><polyline fill="none" points="82.2857,62.6939 93.1701,68.7891" stroke="#ff9400" stroke-width="2" /><polyline fill="none" points="93.1701,55.7279 97.9592,55.2925" stroke="#ff1d00" stroke-width="2" /><polyline fill="none" points="96.2177,39.619 99.2653,40.0544" stroke="#7f0000" stroke-width="2" /></svg>