<?xml version="1.0" encoding="utf-8" ?>
<svg baseProfile="tiny" height="128" version="1.2" viewBox="0,0,128,128" width="128" xmlns="http://www.w3.org/2000/svg" xmlns:ev="http://www.w3.org/2001/xml-events" xmlns:xlink="http://www.w3.org/1999/xlink"><defs /><polyline fill="none" points="16.922,61.1797 11.2814,66.8203 9.1119,73.7627 8.678,80.2712 11.7153,87.6475 20.8271,95.8915 26.4678,97.1932 38.6169,96.3254 47.2949,88.9492 52.9356,75.0644 54.2373,63.7831 54.6712,53.3695 53.3695,48.5966 46.4271,44.2576 41.6542,43.3898 41.2203,49.0305" stroke="#00007f" stroke-width="2" /><polyline fill="none" points="13.8847,62.4814 18.6576,55.9729 34.7119,46.861 41.6542,46.861 49.4644,50.7661 49.0305,52.9356" stroke="#0010ff" stroke-width="2" /><polyline fill="none" points="13.4508,65.0847 18.6576,67.6881" stroke="#00a4ff" stroke-width="2" /><polyline fill="none" points="19.5254,66.8203 19.9593,66.8203" stroke="#3fffb7" stroke-width="2" /><polyline fill="none" points="17.3559,66.8203 34.7119,67.6881 47.7288,65.5186 50.3322,60.3119" stroke="#b7ff3f" stroke-width="2" /><polyline fill="none" points="47.7288,79.8373 35.5797,78.5356 27.7695,80.2712 20.3932,84.6102 17.3559,91.9864" stroke="#ffb900" stroke-width="2" /><polyline fill="none" points="13.4508,64.6508 20.8271,67.2542 43.3898,67.2542 49.0305,63.7831 52.9356,57.7085" stroke="#ff3000" stroke-width="2" /><polyline fill="none" points="68.9898,8.678 75.4983,9.1119 79.8373,10.8475 82.4407,14.3186 78.9695,27.7695 77.2339,39.9186 74.6305,96.7593 71.5932,114.1153 75.0644,115.8508 75.0644,117.5864 72.0271,119.322 65.9525,119.322 59.878,118.0203 58.1424,115.4169 58.5763,113.2475 67.2542,112.3797 68.9898,103.7017 68.122,10.8475" stroke="#7f0000" stroke-width="2" /></svg>