<?xml version="1.0" encoding="utf-8" ?>
<svg baseProfile="tiny" height="128" version="1.2" viewBox="0,0,128,128" width="128" xmlns="http://www.w3.org/2000/svg" xmlns:ev="http://www.w3.org/2001/xml-events" xmlns:xlink="http://www.w3.org/1999/xlink"><defs /><polyline fill="none" points="54.2373,8.678 43.8237,8.678 36.8814,12.5831 21.6949,28.2034 14.7525,37.3153 10.8475,47.2949 8.678,55.9729 9.5458,73.3288 12.5831,82.4407 17.7898,91.1186 26.0339,99.3627 35.5797,105.4373 55.1051,113.2475 78.1017,113.6814 90.6847,108.9085 100.6644,102.4 108.9085,95.4576 115.8508,85.9119 118.8881,75.0644 119.322,64.2169 116.7186,54.6712 111.5119,45.1254 104.1356,36.8814 95.0237,29.939 80.2712,20.8271 63.7831,15.1864" stroke="#00007f" stroke-width="2" /><polyline fill="none" points="50.3322,9.1119 52.0678,22.1288 59.4441,50.3322 61.6136,67.2542 61.6136,82.0068 57.2746,92.4203 51.6339,98.9288" stroke="#0028ff" stroke-width="2" /><polyline fill="none" points="93.722,25.1661 93.2881,29.0712 79.4034,59.878 78.5356,81.5729 80.7051,88.0814 88.9492,97.6271 96.7593,101.0983 100.6644,101.0983" stroke="#00d4ff" stroke-width="2" /><polyline fill="none" points="37.7492,41.2203 62.4814,39.9186" stroke="#7cff79" stroke-width="2" /><polyline fill="none" points="45.9932,75.9322 61.6136,75.0644 70.7254,72.461" stroke="#ffe500" stroke-width="2" /><polyline fill="none" points="73.7627,44.6915 80.2712,44.2576 91.1186,47.2949" stroke="#ff4600" stroke-width="2" /><polyline fill="none" points="68.9898,81.139 100.6644,81.5729" stroke="#7f0000" stroke-width="2" /></svg>