<?xml version="1.0" encoding="utf-8" ?>
<svg baseProfile="tiny" height="128" version="1.2" viewBox="0,0,128,128" width="128" xmlns="http://www.w3.org/2000/svg" xmlns:ev="http://www.w3.org/2001/xml-events" xmlns:xlink="http://www.w3.org/1999/xlink"><defs /><polyline fill="none" points="75.0644,15.6203 70.7254,13.0169 65.9525,12.5831 51.2,13.0169 43.8237,15.6203 31.6746,23.8644 19.5254,40.3525 10.8475,55.1051 8.678,68.122 8.678,82.4407 20.3932,98.9288 36.8814,107.6068 48.1627,112.3797 59.0102,114.5492 90.2508,115.8508 105.0034,107.1729 114.9831,91.5525 118.0203,78.1017 119.322,63.3492 118.8881,43.3898 116.7186,36.8814 100.2305,16.0542 93.2881,15.1864" stroke="#00007f" stroke-width="2" /><polyline fill="none" points="59.4441,8.678 60.7458,49.0305 53.3695,72.0271 46.4271,85.9119 39.9186,95.0237 26.0339,102.8339" stroke="#7cff79" stroke-width="2" /><polyline fill="none" points="83.7424,15.6203 80.7051,37.7492 80.7051,73.3288 92.8542,96.7593 96.7593,99.3627" stroke="#7f0000" stroke-width="2" /></svg>