<?xml version="1.0" encoding="utf-8" ?>
<svg baseProfile="tiny" height="128" version="1.2" viewBox="0,0,128,128" width="128" xmlns="http://www.w3.org/2000/svg" xmlns:ev="http://www.w3.org/2001/xml-events" xmlns:xlink="http://www.w3.org/1999/xlink"><defs /><polyline fill="none" points="109.7763,69.4237 109.7763,77.2339 107.1729,81.5729 98.4949,86.3458 83.3085,91.1186 64.6508,93.2881 43.8237,92.8542 25.6,88.0814 18.6576,84.1763 13.4508,79.4034 9.9797,72.8949 8.678,66.8203 9.9797,52.5017 13.8847,43.8237 20.3932,35.5797 28.2034,27.7695 47.2949,14.3186 57.2746,10.4136 67.6881,8.678 84.6102,9.5458 91.9864,13.0169 98.4949,18.2237 112.8136,37.3153 116.2847,43.8237 119.322,57.2746 118.0203,70.2915 115.8508,75.0644 111.9458,79.8373 75.9322,96.3254 62.0475,100.6644 51.2,101.0983" stroke="#00007f" stroke-width="2" /><polyline fill="none" points="49.4644,14.3186 54.2373,54.2373 54.2373,68.9898 50.3322,76.8 33.8441,91.9864" stroke="#7cff79" stroke-width="2" /><polyline fill="none" points="88.5153,16.0542 82.0068,23.8644 75.0644,36.8814 73.3288,45.1254 72.8949,59.878 76.3661,75.9322 79.8373,83.3085 92.8542,91.5525" stroke="#7f0000" stroke-width="2" /></svg>