<?xml version="1.0" encoding="utf-8" ?>
<svg baseProfile="tiny" height="128" version="1.2" viewBox="0,0,128,128" width="128" xmlns="http://www.w3.org/2000/svg" xmlns:ev="http://www.w3.org/2001/xml-events" xmlns:xlink="http://www.w3.org/1999/xlink"><defs /><polyline fill="none" points="55.9729,10.4136 47.7288,9.9797 42.9559,11.2814 30.8068,19.5254 18.6576,34.7119 13.8847,44.2576 9.9797,53.8034 8.678,64.6508 9.5458,80.2712 15.6203,88.0814 23.8644,93.2881 33.4102,96.7593 44.6915,97.6271 56.4068,96.7593 68.9898,92.4203 81.139,87.2136 102.8339,71.1593 116.7186,51.6339 119.322,43.3898 119.322,35.1458 117.1525,28.2034 110.2102,21.261 101.9661,16.922 90.6847,12.5831 69.4237,9.1119 52.9356,8.678" stroke="#00007f" stroke-width="2" /><polyline fill="none" points="26.0339,18.2237 30.8068,19.0915 42.9559,25.6 46.4271,31.6746 46.4271,35.1458 41.6542,47.7288 44.2576,51.2 44.2576,53.8034 24.7322,68.9898 31.2407,73.7627 30.8068,95.0237 37.3153,98.061 38.1831,99.7966" stroke="#7cff79" stroke-width="2" /><polyline fill="none" points="91.1186,9.9797 85.478,14.3186 81.139,22.9966 80.7051,41.6542 77.2339,52.0678 77.6678,54.6712 81.5729,55.9729 82.4407,61.1797 72.8949,77.6678 71.1593,91.1186" stroke="#7f0000" stroke-width="2" /></svg>