<?xml version="1.0" encoding="utf-8" ?>
<svg baseProfile="tiny" height="128" version="1.2" viewBox="0,0,128,128" width="128" xmlns="http://www.w3.org/2000/svg" xmlns:ev="http://www.w3.org/2001/xml-events" xmlns:xlink="http://www.w3.org/1999/xlink"><defs /><polyline fill="none" points="59.878,36.8814 85.478,36.8814 96.3254,33.8441 111.5119,36.8814 114.1153,39.9186 113.6814,42.9559 107.6068,44.2576 63.3492,41.2203 60.7458,37.7492" stroke="#00007f" stroke-width="2" /><polyline fill="none" points="89.3831,26.9017 102.8339,22.9966 105.0034,29.5051 104.1356,30.8068 99.7966,31.6746 94.5898,30.3729 93.2881,28.6373" stroke="#0028ff" stroke-width="2" /><polyline fill="none" points="85.0441,26.0339 81.139,27.3356 76.3661,30.3729 74.1966,34.278 77.6678,33.8441 81.5729,31.6746 82.8746,29.5051 83.3085,24.2983 82.0068,21.6949 78.5356,19.5254 75.0644,19.5254 72.8949,22.1288" stroke="#00d4ff" stroke-width="2" /><polyline fill="none" points="69.4237,23.4305 66.8203,23.4305 64.6508,25.6 63.3492,29.939 64.2169,32.5424 72.0271,30.8068 76.3661,27.7695 77.2339,25.1661 75.4983,22.9966 68.9898,21.261" stroke="#7cff79" stroke-width="2" /><polyline fill="none" points="63.3492,18.2237 52.5017,23.8644 43.8237,32.1085 41.6542,37.7492 46.4271,37.7492 55.1051,31.6746 56.8407,25.1661" stroke="#ffe500" stroke-width="2" /><polyline fill="none" points="53.8034,28.2034 49.8983,52.5017 52.9356,52.5017 57.2746,48.1627 58.5763,42.9559 57.7085,36.0136" stroke="#ff4600" stroke-width="2" /><polyline fill="none" points="62.9153,40.7864 12.5831,40.3525 35.1458,36.8814 108.0407,36.4475 91.9864,36.8814 52.0678,32.1085 9.1119,22.5627 8.678,20.8271 59.878,19.5254 91.9864,17.7898 103.7017,15.6203 119.322,15.6203 60.7458,8.678" stroke="#7f0000" stroke-width="2" /></svg>