<?xml version="1.0" encoding="utf-8" ?>
<svg baseProfile="tiny" height="128" version="1.2" viewBox="0,0,128,128" width="128" xmlns="http://www.w3.org/2000/svg" xmlns:ev="http://www.w3.org/2001/xml-events" xmlns:xlink="http://www.w3.org/1999/xlink"><defs /><polyline fill="none" points="83.3085,13.4508 70.2915,12.5831 58.1424,15.1864 51.2,17.3559 29.0712,27.7695 16.4881,42.0881 9.1119,56.8407 8.678,69.8576 10.4136,74.1966 19.5254,88.9492 28.6373,100.2305 41.2203,109.3424 55.9729,115.8508 63.7831,117.5864 70.7254,119.322 83.3085,119.322 91.9864,117.1525 99.7966,109.7763 105.0034,93.2881 105.4373,53.3695 98.9288,21.6949 96.3254,14.3186 92.8542,9.9797 87.6475,8.678 79.8373,8.678 74.1966,11.2814" stroke="#00007f" stroke-width="2" /><polyline fill="none" points="45.9932,20.3932 48.5966,22.1288 51.6339,33.8441 50.3322,67.2542 39.4847,92.4203 34.7119,97.6271 32.9763,98.4949 31.6746,96.3254" stroke="#7cff79" stroke-width="2" /><polyline fill="none" points="88.5153,14.3186 85.478,14.7525 81.5729,19.9593 78.5356,27.7695 62.9153,83.7424 63.3492,93.2881 77.6678,106.739" stroke="#7f0000" stroke-width="2" /></svg>