<?xml version="1.0" encoding="utf-8" ?>
<svg baseProfile="tiny" height="128" version="1.2" viewBox="0,0,128,128" width="128" xmlns="http://www.w3.org/2000/svg" xmlns:ev="http://www.w3.org/2001/xml-events" xmlns:xlink="http://www.w3.org/1999/xlink"><defs /><polyline fill="none" points="99.7007,16.9796 94.4762,13.0612 85.3333,9.5782 70.5306,8.7075 64.0,11.7551 55.7279,19.1565 27.8639,52.6803 10.449,78.3673 8.7075,84.898 8.7075,95.3469 11.3197,98.3946 20.898,100.5714 39.619,100.1361 65.3061,93.6054 74.0136,88.381 84.898,79.2381 101.8776,58.7755 109.7143,47.0204 117.551,32.6531 119.2925,26.1224 118.4218,17.415 113.1973,14.3673 101.4422,12.6259 80.5442,16.1088" stroke="#00007f" stroke-width="2" /><polyline fill="none" points="80.5442,8.7075 82.7211,27.4286 82.2857,39.1837 76.6259,54.4218 72.7075,58.7755 67.0476,64.4354 43.102,77.4966 36.5714,77.932 17.415,73.1429" stroke="#7cff79" stroke-width="2" /><polyline fill="none" points="115.3741,14.3673 108.8435,27.4286 104.9252,40.4898 97.5238,57.9048 94.9116,70.5306 94.4762,75.3197 95.7823,75.7551" stroke="#7f0000" stroke-width="2" /></svg>