<?xml version="1.0" encoding="utf-8" ?>
<svg baseProfile="tiny" height="128" version="1.2" viewBox="0,0,128,128" width="128" xmlns="http://www.w3.org/2000/svg" xmlns:ev="http://www.w3.org/2001/xml-events" xmlns:xlink="http://www.w3.org/1999/xlink"><defs /><polyline fill="none" points="59.0102,13.8847 81.5729,19.9593 94.1559,26.9017 102.8339,35.5797 107.1729,49.4644 107.6068,61.1797 101.0983,84.6102 96.3254,94.5898 88.5153,106.3051 75.9322,112.8136 58.1424,119.322 51.2,119.322 34.278,114.1153 19.5254,104.1356 12.5831,88.9492 8.678,73.7627 8.678,58.1424 15.6203,39.9186 19.9593,33.4102 31.2407,24.2983 54.6712,9.1119 58.1424,8.678 73.7627,15.1864 72.8949,19.5254 43.3898,47.2949 25.1661,72.0271 20.8271,82.0068 20.8271,108.9085" stroke="#00007f" stroke-width="2" /><polyline fill="none" points="26.9017,115.4169 29.939,116.7186 29.5051,113.2475 31.6746,102.4 32.5424,88.5153 36.4475,78.9695 42.0881,72.461 49.4644,59.4441 63.7831,43.8237 74.1966,34.7119 87.2136,26.9017 95.0237,24.2983" stroke="#7f0000" stroke-width="2" /></svg>