<?xml version="1.0" encoding="utf-8" ?>
<svg baseProfile="tiny" height="128" version="1.2" viewBox="0,0,128,128" width="128" xmlns="http://www.w3.org/2000/svg" xmlns:ev="http://www.w3.org/2001/xml-events" xmlns:xlink="http://www.w3.org/1999/xlink"><defs /><polyline fill="none" points="65.9525,8.678 44.2576,8.678 32.1085,11.2814 22.9966,15.1864 17.7898,21.261 13.0169,28.6373 9.1119,39.0508 8.678,83.3085 13.0169,93.722 18.2237,100.6644 29.939,111.078 37.3153,114.9831 49.4644,118.0203 84.1763,119.322 88.0814,118.8881 95.0237,113.6814 102.8339,103.7017 105.0034,96.3254 105.0034,72.461 102.4,62.4814 95.8915,51.6339 75.9322,32.9763 68.9898,20.8271 65.5186,18.2237 56.8407,16.0542" stroke="#00007f" stroke-width="2" /><polyline fill="none" points="53.8034,15.1864 53.3695,65.5186 50.7661,75.9322 45.5593,88.5153 40.7864,104.5695 38.6169,104.1356" stroke="#00d4ff" stroke-width="2" /><polyline fill="none" points="35.1458,10.4136 34.278,52.0678 19.5254,95.4576 14.7525,98.9288" stroke="#ffe500" stroke-width="2" /><polyline fill="none" points="78.5356,33.8441 76.8,78.1017 81.5729,92.8542 90.2508,108.4746" stroke="#7f0000" stroke-width="2" /></svg>