<?xml version="1.0" encoding="utf-8" ?>
<svg baseProfile="tiny" height="128" version="1.2" viewBox="0,0,128,128" width="128" xmlns="http://www.w3.org/2000/svg" xmlns:ev="http://www.w3.org/2001/xml-events" xmlns:xlink="http://www.w3.org/1999/xlink"><defs /><polyline fill="none" points="110.2102,9.9797 104.5695,8.678 88.0814,8.678 78.1017,9.9797 52.5017,18.6576 42.522,26.4678 41.2203,32.5424 41.2203,45.9932 43.8237,53.8034 49.8983,65.0847 55.539,70.7254 65.9525,78.5356 72.8949,80.2712 78.9695,80.2712 85.9119,78.9695 95.4576,74.1966 108.4746,63.7831 113.6814,57.2746 118.4542,41.6542 119.322,23.8644 114.9831,12.1492 107.6068,9.9797 94.5898,10.4136" stroke="#00007f" stroke-width="2" /><polyline fill="none" points="88.0814,72.8949 88.5153,37.3153 90.6847,35.1458 99.3627,30.8068 115.8508,27.3356" stroke="#0080ff" stroke-width="2" /><polyline fill="none" points="65.0847,15.1864 65.5186,31.2407 64.6508,36.4475 57.2746,49.0305 53.3695,53.3695 48.5966,54.2373" stroke="#7cff79" stroke-width="2" /><polyline fill="none" points="88.0814,12.5831 65.9525,79.8373" stroke="#ff9400" stroke-width="2" /><polyline fill="none" points="8.678,92.4203 47.7288,71.5932" stroke="#7f0000" stroke-width="2" /></svg>