<?xml version="1.0" encoding="utf-8" ?>
<svg baseProfile="tiny" height="128" version="1.2" viewBox="0,0,128,128" width="128" xmlns="http://www.w3.org/2000/svg" xmlns:ev="http://www.w3.org/2001/xml-events" xmlns:xlink="http://www.w3.org/1999/xlink"><defs /><polyline fill="none" points="47.6177,8.7372 37.57,13.5427 18.785,25.7747 13.5427,31.4539 8.7372,39.7543 8.7372,63.7816 20.0956,86.9352 33.6382,100.041 44.9966,104.4096 83.0034,104.8464 92.1775,103.5358 101.7884,99.1672 107.4676,94.7986 119.2628,76.8874 119.2628,73.3925 112.273,60.2867 91.7406,30.1433 80.3823,20.5324 65.529,12.2321 62.0341,11.3584 58.9761,12.6689 53.7338,17.0375" stroke="#00007f" stroke-width="2" /><polyline fill="none" points="71.6451,19.6587 66.4027,31.8908 65.0922,53.2969 62.9078,64.2184 58.1024,77.3242 53.7338,84.7509 49.802,100.041" stroke="#00d4ff" stroke-width="2" /><polyline fill="none" points="24.4642,42.3754 28.3959,43.686 31.8908,39.3174 35.3857,32.3276 39.3174,15.727" stroke="#ffe500" stroke-width="2" /><polyline fill="none" points="85.6246,43.686 85.6246,67.7133 84.314,76.0137 79.5085,89.5563 83.0034,102.2253" stroke="#7f0000" stroke-width="2" /></svg>