<?xml version="1.0" encoding="utf-8" ?>
<svg baseProfile="tiny" height="128" version="1.2" viewBox="0,0,128,128" width="128" xmlns="http://www.w3.org/2000/svg" xmlns:ev="http://www.w3.org/2001/xml-events" xmlns:xlink="http://www.w3.org/1999/xlink"><defs /><polyline fill="none" points="43.3898,16.4881 34.7119,20.3932 27.3356,28.2034 14.3186,48.5966 9.5458,62.0475 8.678,79.4034 10.8475,88.5153 18.6576,100.2305 29.0712,107.6068 40.7864,111.9458 57.7085,113.2475 68.5559,111.9458 84.6102,105.8712 94.1559,98.4949 110.2102,82.4407 115.4169,70.7254 119.322,58.1424 119.322,49.8983 112.8136,32.9763 99.7966,17.7898 91.9864,13.0169 66.8203,8.678 59.4441,10.8475 48.1627,19.0915" stroke="#00007f" stroke-width="2" /><polyline fill="none" points="23.8644,31.6746 26.0339,33.4102 40.3525,36.4475 47.2949,45.9932 49.0305,52.9356 48.1627,61.6136 40.7864,71.5932 36.4475,82.0068 40.3525,90.2508 53.3695,101.5322 56.4068,105.4373 57.7085,114.9831" stroke="#7cff79" stroke-width="2" /><polyline fill="none" points="88.0814,9.9797 83.7424,9.1119 77.6678,13.0169 68.9898,23.8644 65.5186,33.4102 68.122,38.6169 74.6305,45.1254 91.9864,55.1051" stroke="#7f0000" stroke-width="2" /></svg>