<?xml version="1.0" encoding="utf-8" ?>
<svg baseProfile="tiny" height="128" version="1.2" viewBox="0,0,128,128" width="128" xmlns="http://www.w3.org/2000/svg" xmlns:ev="http://www.w3.org/2001/xml-events" xmlns:xlink="http://www.w3.org/1999/xlink"><defs /><polyline fill="none" points="41.2203,19.0915 19.5254,29.0712 13.4508,30.3729 11.2814,36.4475 8.678,52.0678 9.9797,65.5186 14.7525,84.1763 21.261,99.3627 29.5051,108.4746 41.2203,114.5492 47.2949,114.9831 59.4441,114.9831 75.4983,111.078 81.5729,105.4373 85.9119,99.3627 90.2508,87.2136 91.5525,78.5356 91.9864,63.3492 90.2508,44.6915 87.2136,35.1458 83.7424,29.5051 77.2339,20.3932 67.6881,12.1492 62.0475,9.9797 55.9729,9.1119 46.861,10.4136 31.6746,16.0542 16.4881,24.2983 9.9797,39.9186 9.9797,51.6339 15.1864,68.122" stroke="#00007f" stroke-width="2" /><polyline fill="none" points="48.5966,12.1492 42.522,16.4881 36.0136,25.6 20.3932,65.5186 18.2237,74.1966 19.0915,80.7051 22.9966,98.4949 26.9017,105.0034" stroke="#7cff79" stroke-width="2" /><polyline fill="none" points="54.6712,8.678 46.861,29.939 42.0881,54.2373 37.7492,66.3864 32.9763,88.0814 33.4102,99.7966 45.5593,119.322" stroke="#7f0000" stroke-width="2" /></svg>