<?xml version="1.0" encoding="utf-8" ?>
<svg baseProfile="tiny" height="128" version="1.2" viewBox="0,0,128,128" width="128" xmlns="http://www.w3.org/2000/svg" xmlns:ev="http://www.w3.org/2001/xml-events" xmlns:xlink="http://www.w3.org/1999/xlink"><defs /><polyline fill="none" points="84.1763,8.678 75.4983,9.5458 60.3119,15.1864 42.0881,24.7322 26.9017,37.7492 16.0542,50.7661 10.8475,62.9153 8.678,75.9322 9.1119,90.6847 13.4508,103.2678 21.261,111.078 29.0712,116.2847 42.0881,119.322 58.5763,119.322 81.139,111.9458 88.5153,106.739 94.5898,98.9288 107.6068,75.9322 111.9458,62.0475 112.8136,51.6339 111.9458,42.522 107.1729,33.8441 91.1186,22.5627 68.9898,16.0542 63.3492,16.4881 53.8034,21.261" stroke="#00007f" stroke-width="2" /><polyline fill="none" points="46.861,27.7695 55.9729,54.2373 56.4068,78.9695 50.7661,96.3254 37.7492,116.7186" stroke="#00d4ff" stroke-width="2" /><polyline fill="none" points="86.3458,34.7119 83.3085,44.6915 79.8373,68.122 79.8373,82.0068 82.8746,95.0237" stroke="#ffe500" stroke-width="2" /><polyline fill="none" points="63.7831,69.8576 89.8169,70.2915" stroke="#7f0000" stroke-width="2" /></svg>