<?xml version="1.0" encoding="utf-8" ?>
<svg baseProfile="tiny" height="128" version="1.2" viewBox="0,0,128,128" width="128" xmlns="http://www.w3.org/2000/svg" xmlns:ev="http://www.w3.org/2001/xml-events" xmlns:xlink="http://www.w3.org/1999/xlink"><defs /><polyline fill="none" points="66.6122,14.3673 60.9524,9.5782 45.7143,8.7075 31.3469,18.2857 22.6395,27.8639 14.8027,42.6667 10.449,56.5986 8.7075,67.9184 10.0136,80.9796 13.4966,87.9456 23.0748,101.0068 32.6531,109.7143 43.9728,115.8095 56.1633,118.4218 75.3197,119.2925 88.8163,115.3741 98.8299,107.9728 104.9252,94.9116 105.7959,87.0748 105.3605,65.3061 98.8299,42.6667 94.4762,33.0884 87.0748,22.6395 78.3673,16.1088 65.3061,9.5782" stroke="#00007f" stroke-width="2" /><polyline fill="none" points="43.102,22.2041 46.1497,27.4286 45.7143,33.9592" stroke="#0028ff" stroke-width="2" /><polyline fill="none" points="51.8095,44.8435 52.6803,51.8095 48.7619,60.0816" stroke="#00d4ff" stroke-width="2" /><polyline fill="none" points="53.1156,80.5442 43.5374,88.8163" stroke="#7cff79" stroke-width="2" /><polyline fill="none" points="40.4898,100.5714 30.0408,104.0544" stroke="#ffe500" stroke-width="2" /><polyline fill="none" points="76.6259,22.2041 72.2721,23.5102 72.2721,67.9184 81.415,97.5238 89.6871,111.4558 94.9116,116.2449" stroke="#ff4600" stroke-width="2" /><polyline fill="none" points="33.0884,14.8027 40.0544,19.1565 46.1497,36.1361 47.4558,77.932 42.2313,97.5238 35.7007,105.3605 27.8639,109.7143" stroke="#7f0000" stroke-width="2" /></svg>