<?xml version="1.0" encoding="utf-8" ?>
<svg baseProfile="tiny" height="128" version="1.2" viewBox="0,0,128,128" width="128" xmlns="http://www.w3.org/2000/svg" xmlns:ev="http://www.w3.org/2001/xml-events" xmlns:xlink="http://www.w3.org/1999/xlink"><defs /><polyline fill="none" points="24.2983,31.6746 18.2237,36.0136 10.4136,46.861 8.678,54.2373 12.1492,58.5763 22.9966,62.0475 27.3356,59.4441 29.939,55.1051 29.5051,46.4271 22.5627,30.3729" stroke="#00007f" stroke-width="2" /><polyline fill="none" points="96.3254,55.1051 93.2881,50.3322 70.2915,26.0339 66.3864,16.4881 67.6881,11.7153 71.5932,8.678 74.6305,8.678 82.4407,11.7153 90.2508,20.3932 95.0237,28.2034 100.6644,33.4102 107.6068,52.0678 114.1153,60.7458 115.4169,65.0847 118.4542,65.5186 119.322,69.4237 117.1525,72.8949 113.2475,72.8949 109.3424,66.3864 96.3254,55.1051" stroke="#00d4ff" stroke-width="2" /><polyline fill="none" points="86.7797,45.9932 101.5322,35.1458" stroke="#ffe500" stroke-width="2" /><polyline fill="none" points="92.4203,51.2 105.4373,42.0881" stroke="#7f0000" stroke-width="2" /></svg>