<?xml version="1.0" encoding="utf-8" ?>
<svg baseProfile="tiny" height="128" version="1.2" viewBox="0,0,128,128" width="128" xmlns="http://www.w3.org/2000/svg" xmlns:ev="http://www.w3.org/2001/xml-events" xmlns:xlink="http://www.w3.org/1999/xlink"><defs /><polyline fill="none" points="54.2373,12.1492 43.3898,8.678 29.5051,8.678 23.8644,28.2034 19.0915,34.7119 18.2237,49.0305 13.4508,68.122 13.4508,78.5356 8.678,84.6102 9.9797,101.5322 16.0542,105.4373 41.2203,107.6068 48.1627,110.2102 82.0068,109.7763 90.2508,105.0034 97.1932,98.4949 102.8339,88.9492 102.8339,83.3085 106.3051,75.0644 106.3051,34.278 93.722,28.6373 72.461,14.3186 49.4644,10.8475" stroke="#00007f" stroke-width="2" /><polyline fill="none" points="36.4475,12.1492 36.4475,19.0915 42.522,34.7119 42.522,45.9932 48.1627,61.1797 50.7661,82.0068 55.1051,90.2508 55.1051,111.5119 54.2373,119.322 52.9356,114.5492" stroke="#7cff79" stroke-width="2" /><polyline fill="none" points="90.2508,27.3356 84.1763,30.8068 79.8373,36.8814 77.2339,50.7661 77.2339,80.7051" stroke="#7f0000" stroke-width="2" /></svg>