<?xml version="1.0" encoding="utf-8" ?>
<svg baseProfile="tiny" height="128" version="1.2" viewBox="0,0,128,128" width="128" xmlns="http://www.w3.org/2000/svg" xmlns:ev="http://www.w3.org/2001/xml-events" xmlns:xlink="http://www.w3.org/1999/xlink"><defs /><polyline fill="none" points="81.6928,12.2321 70.7713,8.7372 62.471,8.7372 43.2491,16.1638 34.0751,21.843 24.4642,30.1433 17.9113,38.8805 11.3584,51.1126 9.1741,60.2867 8.7372,70.3345 12.2321,83.8771 21.843,100.4778 28.3959,108.7782 42.8123,117.0785 52.4232,119.2628 65.9659,119.2628 87.8089,112.273 95.6724,107.9044 106.157,98.7304 114.0205,86.0614 119.2628,57.2287 118.8259,45.4334 116.6416,36.2594 107.0307,22.2799 91.7406,17.4744 74.7031,9.1741" stroke="#00007f" stroke-width="2" /><polyline fill="none" points="32.3276,25.3379 42.8123,32.7645 52.8601,36.6962 88.6826,38.8805 99.1672,36.2594 110.0887,23.1536" stroke="#0080ff" stroke-width="2" /><polyline fill="none" points="25.3379,32.7645 26.6485,35.8225 31.4539,40.1911 36.6962,41.9386 61.5973,46.3072 87.8089,47.6177 100.4778,43.2491 114.4573,34.5119" stroke="#7cff79" stroke-width="2" /><polyline fill="none" points="24.901,101.7884 39.7543,90.43 55.0444,83.8771 65.0922,81.256 75.5768,80.3823 83.4403,81.6928 98.2935,92.1775" stroke="#ff9400" stroke-width="2" /><polyline fill="none" points="37.57,106.157 51.9863,95.2355 71.6451,88.6826 90.8669,89.1195 95.2355,90.43 100.041,94.3618" stroke="#7f0000" stroke-width="2" /></svg>