<?xml version="1.0" encoding="utf-8" ?>
<svg baseProfile="tiny" height="128" version="1.2" viewBox="0,0,128,128" width="128" xmlns="http://www.w3.org/2000/svg" xmlns:ev="http://www.w3.org/2001/xml-events" xmlns:xlink="http://www.w3.org/1999/xlink"><defs /><polyline fill="none" points="101.9661,25.6 91.1186,12.1492 72.8949,8.678 54.6712,10.8475 32.1085,20.8271 22.1288,28.6373 17.3559,35.1458 9.9797,51.2 8.678,58.5763 9.5458,68.122 11.7153,74.1966 16.922,81.5729 26.0339,90.6847 38.6169,99.3627 60.3119,107.6068 73.7627,108.4746 83.3085,107.6068 101.0983,99.3627 107.1729,94.5898 114.5492,84.1763 118.4542,73.7627 119.322,62.9153 117.5864,49.8983 114.9831,42.522 109.3424,33.4102 100.2305,23.8644" stroke="#00007f" stroke-width="2" /><polyline fill="none" points="33.4102,18.6576 38.1831,25.1661 40.3525,32.1085 42.0881,44.6915 41.2203,62.9153 35.5797,88.5153" stroke="#0010ff" stroke-width="2" /><polyline fill="none" points="92.8542,13.8847 91.1186,40.7864 95.4576,72.8949 101.5322,84.6102 106.3051,90.2508 109.3424,91.5525" stroke="#00a4ff" stroke-width="2" /><polyline fill="none" points="31.2407,37.3153 45.9932,32.5424" stroke="#3fffb7" stroke-width="2" /><polyline fill="none" points="37.7492,49.4644 44.2576,49.0305" stroke="#b7ff3f" stroke-width="2" /><polyline fill="none" points="36.4475,62.4814 42.9559,65.0847" stroke="#ffb900" stroke-width="2" /><polyline fill="none" points="32.1085,75.4983 41.2203,79.4034" stroke="#ff3000" stroke-width="2" /><polyline fill="none" points="88.0814,39.4847 93.2881,38.6169" stroke="#7f0000" stroke-width="2" /></svg>