<?xml version="1.0" encoding="utf-8" ?>
<svg baseProfile="tiny" height="128" version="1.2" viewBox="0,0,128,128" width="128" xmlns="http://www.w3.org/2000/svg" xmlns:ev="http://www.w3.org/2001/xml-events" xmlns:xlink="http://www.w3.org/1999/xlink"><defs /><polyline fill="none" points="39.9186,18.6576 15.1864,38.6169 9.9797,49.4644 8.678,56.8407 11.7153,82.0068 16.4881,98.9288 18.6576,102.8339 32.5424,114.9831 37.7492,117.5864 63.7831,119.322 81.5729,115.4169 88.0814,111.9458 100.2305,98.4949 114.5492,71.5932 118.4542,55.539 118.4542,45.5593 115.4169,38.6169 96.3254,19.0915 71.5932,9.5458 64.6508,8.678 59.878,8.678 41.6542,13.0169" stroke="#00007f" stroke-width="2" /><polyline fill="none" points="16.922,39.4847 28.6373,41.2203 33.4102,43.8237 38.1831,47.7288 45.5593,57.7085 50.3322,70.2915 52.5017,81.139 52.5017,96.7593 50.7661,109.3424" stroke="#0080ff" stroke-width="2" /><polyline fill="none" points="66.8203,13.0169 68.9898,48.1627 74.6305,62.0475 97.1932,87.6475 105.8712,94.1559" stroke="#7cff79" stroke-width="2" /><polyline fill="none" points="61.6136,41.2203 64.6508,37.7492" stroke="#ff9400" stroke-width="2" /><polyline fill="none" points="71.5932,66.3864 76.8,63.3492 86.7797,60.7458" stroke="#7f0000" stroke-width="2" /></svg>