<?xml version="1.0" encoding="utf-8" ?>
<svg baseProfile="tiny" height="128" version="1.2" viewBox="0,0,128,128" width="128" xmlns="http://www.w3.org/2000/svg" xmlns:ev="http://www.w3.org/2001/xml-events" xmlns:xlink="http://www.w3.org/1999/xlink"><defs /><polyline fill="none" points="119.322,32.5424 95.8915,16.0542 80.7051,8.678 35.1458,9.5458 10.8475,42.0881 8.678,59.4441 35.1458,105.0034 92.4203,93.722 105.8712,83.3085 115.8508,45.1254 114.9831,41.6542 83.3085,20.3932 72.461,18.6576" stroke="#00007f" stroke-width="2" /><polyline fill="none" points="17.7898,22.9966 51.6339,41.6542 53.3695,55.9729 45.5593,98.4949 36.0136,106.739 21.261,109.7763" stroke="#004cff" stroke-width="2" /><polyline fill="none" points="108.0407,27.3356 97.6271,36.8814 92.4203,45.9932 85.478,81.139 86.7797,91.1186 92.4203,96.7593" stroke="#29ffcd" stroke-width="2" /><polyline fill="none" points="44.6915,29.5051 45.5593,28.6373" stroke="#cdff29" stroke-width="2" /><polyline fill="none" points="39.0508,54.2373 52.9356,50.7661" stroke="#ff6700" stroke-width="2" /><polyline fill="none" points="40.3525,93.2881 40.3525,93.2881" stroke="#7f0000" stroke-width="2" /></svg>