<?xml version="1.0" encoding="utf-8" ?>
<svg baseProfile="tiny" height="128" version="1.2" viewBox="0,0,128,128" width="128" xmlns="http://www.w3.org/2000/svg" xmlns:ev="http://www.w3.org/2001/xml-events" xmlns:xlink="http://www.w3.org/1999/xlink"><defs /><polyline fill="none" points="109.7763,15.1864 99.3627,11.2814 77.2339,8.678 48.1627,8.678 42.0881,9.9797 23.4305,25.6 13.8847,41.2203 8.678,57.2746 8.678,79.8373 10.8475,91.5525 14.3186,99.7966 19.9593,108.0407 29.939,115.4169 40.3525,118.0203 61.6136,119.322 68.122,118.8881 77.6678,116.2847 86.3458,110.6441 95.4576,102.8339 106.739,85.9119 110.2102,76.3661 111.9458,65.9525 111.9458,43.8237 109.3424,27.3356 103.2678,15.1864" stroke="#00007f" stroke-width="2" /><polyline fill="none" points="31.2407,16.4881 59.0102,36.0136 66.3864,46.861 70.7254,58.1424 74.1966,77.2339 76.8,97.6271 75.9322,114.1153" stroke="#7cff79" stroke-width="2" /><polyline fill="none" points="12.5831,50.3322 19.9593,59.0102 38.6169,89.3831 41.2203,97.6271 42.0881,116.7186" stroke="#7f0000" stroke-width="2" /></svg>