<?xml version="1.0" encoding="utf-8" ?>
<svg baseProfile="tiny" height="128" version="1.2" viewBox="0,0,128,128" width="128" xmlns="http://www.w3.org/2000/svg" xmlns:ev="http://www.w3.org/2001/xml-events" xmlns:xlink="http://www.w3.org/1999/xlink"><defs /><polyline fill="none" points="58.3401,19.5918 55.2925,16.9796 48.3265,16.1088 32.2177,20.898 13.4966,32.2177 10.449,37.0068 8.7075,44.4082 9.1429,53.551 11.3197,60.517 20.898,71.8367 33.5238,78.3673 56.1633,81.8503 84.0272,82.7211 99.2653,80.5442 109.2789,76.6259 115.3741,72.2721 117.9864,68.3537 119.2925,46.585 115.3741,36.1361 108.4082,25.2517 99.2653,16.5442 85.7687,10.0136 77.4966,8.7075 67.483,9.1429 53.551,13.4966 47.8912,18.7211" stroke="#00007f" stroke-width="2" /><polyline fill="none" points="49.1973,16.5442 53.1156,30.0408 53.1156,46.1497 49.1973,58.3401 43.102,69.2245" stroke="#0028ff" stroke-width="2" /><polyline fill="none" points="88.381,10.449 81.8503,23.9456 80.1088,39.619 82.2857,61.3878 85.7687,72.7075" stroke="#00d4ff" stroke-width="2" /><polyline fill="none" points="43.5374,27.8639 53.551,30.9116" stroke="#7cff79" stroke-width="2" /><polyline fill="none" points="53.1156,35.2653 53.9864,38.3129" stroke="#ffe500" stroke-width="2" /><polyline fill="none" points="49.1973,41.3605 55.7279,49.1973" stroke="#ff4600" stroke-width="2" /><polyline fill="none" points="46.585,57.4694 46.585,57.4694" stroke="#7f0000" stroke-width="2" /></svg>