<?xml version="1.0" encoding="utf-8" ?>
<svg baseProfile="tiny" height="128" version="1.2" viewBox="0,0,128,128" width="128" xmlns="http://www.w3.org/2000/svg" xmlns:ev="http://www.w3.org/2001/xml-events" xmlns:xlink="http://www.w3.org/1999/xlink"><defs /><polyline fill="none" points="62.0475,119.322 50.3322,116.2847 31.2407,107.6068 16.4881,97.6271 12.5831,90.6847 9.5458,81.139 8.678,59.0102 12.5831,44.2576 20.3932,31.6746 32.9763,15.6203 39.0508,11.7153 44.6915,9.5458 62.9153,8.678 69.8576,9.5458 78.5356,13.4508 90.6847,23.4305 97.6271,33.4102 105.4373,65.0847 106.3051,92.8542 99.3627,99.7966 84.6102,107.6068 68.9898,110.2102 43.3898,109.3424" stroke="#00007f" stroke-width="2" /><polyline fill="none" points="90.6847,19.5254 83.7424,20.3932 78.5356,24.7322 74.6305,29.5051 63.7831,51.6339 59.878,89.8169 61.1797,95.4576 70.7254,103.7017" stroke="#7cff79" stroke-width="2" /><polyline fill="none" points="33.4102,21.6949 38.1831,23.4305 41.2203,29.5051 42.0881,64.2169 39.4847,75.4983 32.5424,91.5525 28.6373,96.7593 22.5627,100.6644" stroke="#7f0000" stroke-width="2" /></svg>