<?xml version="1.0" encoding="utf-8" ?>
<svg baseProfile="tiny" height="128" version="1.2" viewBox="0,0,128,128" width="128" xmlns="http://www.w3.org/2000/svg" xmlns:ev="http://www.w3.org/2001/xml-events" xmlns:xlink="http://www.w3.org/1999/xlink"><defs /><polyline fill="none" points="21.261,22.1288 22.9966,19.9593 27.7695,17.3559 43.8237,11.2814 71.5932,8.678 80.7051,9.5458 89.8169,12.1492 104.5695,19.9593 115.4169,29.5051 119.322,38.1831 119.322,43.8237 114.9831,51.6339 108.0407,58.5763 98.9288,66.8203 87.2136,73.3288 65.0847,81.139 43.3898,82.4407 29.939,80.2712 22.9966,76.8 13.0169,64.2169 8.678,48.1627 8.678,42.0881 11.2814,35.1458 18.6576,28.2034 28.2034,22.1288 38.6169,18.2237" stroke="#00007f" stroke-width="2" /><polyline fill="none" points="98.4949,15.1864 93.722,19.0915 88.9492,26.4678 80.2712,46.861 78.5356,65.0847 79.8373,67.6881 84.1763,71.1593" stroke="#0010ff" stroke-width="2" /><polyline fill="none" points="37.3153,11.7153 46.4271,21.6949 52.0678,31.6746 55.1051,41.6542 55.539,57.7085 51.2,67.6881 49.4644,70.2915 46.4271,71.5932" stroke="#00a4ff" stroke-width="2" /><polyline fill="none" points="37.3153,16.4881 59.4441,13.0169" stroke="#3fffb7" stroke-width="2" /><polyline fill="none" points="46.4271,39.0508 64.6508,39.0508" stroke="#b7ff3f" stroke-width="2" /><polyline fill="none" points="43.8237,59.878 61.6136,70.2915" stroke="#ffb900" stroke-width="2" /><polyline fill="none" points="78.5356,58.1424 95.8915,60.3119" stroke="#ff3000" stroke-width="2" /><polyline fill="none" points="78.1017,38.6169 78.1017,36.4475 98.9288,29.0712" stroke="#7f0000" stroke-width="2" /></svg>