<?xml version="1.0" encoding="utf-8" ?>
<svg baseProfile="tiny" height="128" version="1.2" viewBox="0,0,128,128" width="128" xmlns="http://www.w3.org/2000/svg" xmlns:ev="http://www.w3.org/2001/xml-events" xmlns:xlink="http://www.w3.org/1999/xlink"><defs /><polyline fill="none" points="58.1424,9.1119 27.7695,32.9763 22.5627,40.3525 19.0915,49.4644 10.8475,71.1593 8.678,81.139 14.7525,103.2678 23.8644,111.5119 43.8237,119.322 55.1051,118.8881 77.6678,110.6441 94.1559,85.0441 96.7593,74.6305 95.4576,41.6542 88.9492,22.9966 80.2712,14.3186 62.9153,8.678" stroke="#00007f" stroke-width="2" /><polyline fill="none" points="64.6508,11.2814 61.1797,31.6746 54.2373,47.2949 38.6169,64.6508 27.7695,71.1593 21.261,76.8" stroke="#00d4ff" stroke-width="2" /><polyline fill="none" points="69.8576,25.6 66.8203,37.7492 66.8203,46.4271 71.1593,57.2746 82.8746,68.5559 98.061,72.8949" stroke="#ffe500" stroke-width="2" /><polyline fill="none" points="62.9153,44.2576 56.8407,72.8949 46.4271,109.7763" stroke="#7f0000" stroke-width="2" /></svg>