<?xml version="1.0" encoding="utf-8" ?>
<svg baseProfile="tiny" height="128" version="1.2" viewBox="0,0,128,128" width="128" xmlns="http://www.w3.org/2000/svg" xmlns:ev="http://www.w3.org/2001/xml-events" xmlns:xlink="http://www.w3.org/1999/xlink"><defs /><polyline fill="none" points="73.1429,12.6259 68.3537,10.449 58.3401,8.7075 47.0204,9.1429 38.3129,12.6259 30.4762,16.5442 24.8163,21.3333 12.1905,40.0544 8.7075,51.8095 9.1429,68.7891 13.0612,75.7551 19.5918,84.4626 33.9592,97.0884 46.1497,104.0544 58.3401,108.8435 69.6599,112.7619 78.3673,113.6327 90.9932,113.6327 103.1837,110.585 115.8095,101.8776 119.2925,94.0408 119.2925,82.7211 106.2313,49.1973 103.619,43.102 85.7687,17.8503 78.3673,15.6735" stroke="#00007f" stroke-width="2" /><polyline fill="none" points="94.4762,26.5578 83.1565,30.9116 76.6259,37.0068 72.2721,46.1497 70.966,56.1633 70.966,68.3537 76.1905,84.4626 89.2517,113.1973 93.6054,119.2925" stroke="#7cff79" stroke-width="2" /><polyline fill="none" points="30.4762,19.5918 38.3129,22.6395 43.9728,27.8639 49.6327,37.4422 51.8095,48.7619 51.8095,55.2925 46.1497,68.7891 31.3469,87.9456" stroke="#7f0000" stroke-width="2" /></svg>