<?xml version="1.0" encoding="utf-8" ?>
<svg baseProfile="tiny" height="128" version="1.2" viewBox="0,0,128,128" width="128" xmlns="http://www.w3.org/2000/svg" xmlns:ev="http://www.w3.org/2001/xml-events" xmlns:xlink="http://www.w3.org/1999/xlink"><defs /><polyline fill="none" points="44.6915,10.8475 32.1085,16.0542 20.8271,26.4678 13.8847,36.4475 9.1119,51.6339 8.678,60.3119 12.1492,72.461 19.9593,88.5153 27.7695,97.6271 42.9559,105.4373 59.878,110.6441 78.1017,111.078 90.6847,107.6068 101.5322,101.9661 109.7763,94.1559 116.2847,79.8373 119.322,62.0475 118.4542,52.5017 114.1153,38.1831 105.8712,26.0339 98.061,18.6576 88.0814,13.8847 65.9525,9.1119 53.3695,8.678 43.8237,11.2814 42.9559,13.0169 47.7288,21.6949 52.9356,36.8814 55.9729,59.878 52.0678,76.3661 40.3525,99.7966" stroke="#00007f" stroke-width="2" /><polyline fill="none" points="91.1186,11.7153 81.139,45.5593 80.2712,67.2542 82.4407,80.2712 85.0441,89.3831 93.2881,98.9288 101.0983,103.2678" stroke="#0010ff" stroke-width="2" /><polyline fill="none" points="78.9695,89.3831 90.2508,82.8746" stroke="#00a4ff" stroke-width="2" /><polyline fill="none" points="72.8949,62.4814 88.0814,61.6136" stroke="#3fffb7" stroke-width="2" /><polyline fill="none" points="78.5356,32.1085 91.1186,36.0136" stroke="#b7ff3f" stroke-width="2" /><polyline fill="none" points="38.6169,32.1085 55.539,27.3356" stroke="#ffb900" stroke-width="2" /><polyline fill="none" points="49.8983,49.4644 62.0475,51.2" stroke="#ff3000" stroke-width="2" /><polyline fill="none" points="48.5966,70.7254 57.2746,77.2339" stroke="#7f0000" stroke-width="2" /></svg>