<?xml version="1.0" encoding="utf-8" ?>
<svg baseProfile="tiny" height="128" version="1.2" viewBox="0,0,128,128" width="128" xmlns="http://www.w3.org/2000/svg" xmlns:ev="http://www.w3.org/2001/xml-events" xmlns:xlink="http://www.w3.org/1999/xlink"><defs /><polyline fill="none" points="95.0237,29.939 90.6847,21.6949 85.9119,17.7898 68.9898,9.5458 50.7661,8.678 39.0508,13.4508 29.0712,22.5627 20.3932,33.4102 10.8475,53.3695 8.678,67.6881 8.678,81.5729 10.8475,88.5153 19.9593,101.0983 26.9017,107.1729 33.8441,111.5119 49.0305,117.1525 64.2169,119.322 76.8,119.322 92.8542,111.078 101.0983,103.2678 110.2102,87.6475 113.2475,75.4983 114.1153,56.8407 111.5119,44.6915 105.0034,32.9763 88.9492,18.2237" stroke="#00007f" stroke-width="2" /><polyline fill="none" points="83.3085,15.6203 74.1966,60.3119 74.1966,79.8373 76.3661,87.6475 83.3085,99.7966 89.3831,108.4746 95.4576,113.6814" stroke="#0028ff" stroke-width="2" /><polyline fill="none" points="29.0712,28.2034 35.1458,36.0136 40.7864,48.1627 46.861,73.3288 46.4271,101.9661 43.3898,112.3797 41.6542,114.9831 38.6169,115.8508" stroke="#00d4ff" stroke-width="2" /><polyline fill="none" points="53.8034,42.522 39.4847,42.522 28.6373,45.1254" stroke="#7cff79" stroke-width="2" /><polyline fill="none" points="56.4068,61.6136 35.5797,58.5763" stroke="#ffe500" stroke-width="2" /><polyline fill="none" points="52.0678,75.9322 35.5797,75.0644" stroke="#ff4600" stroke-width="2" /><polyline fill="none" points="84.6102,87.6475 61.1797,88.9492" stroke="#7f0000" stroke-width="2" /></svg>