<?xml version="1.0" encoding="utf-8" ?>
<svg baseProfile="tiny" height="128" version="1.2" viewBox="0,0,128,128" width="128" xmlns="http://www.w3.org/2000/svg" xmlns:ev="http://www.w3.org/2001/xml-events" xmlns:xlink="http://www.w3.org/1999/xlink"><defs /><polyline fill="none" points="82.4407,15.1864 75.9322,10.8475 68.122,8.678 49.0305,9.1119 25.1661,22.5627 14.7525,36.4475 10.4136,49.0305 8.678,56.4068 8.678,75.0644 17.3559,96.3254 28.2034,108.9085 38.1831,115.4169 52.9356,119.322 79.8373,118.8881 88.9492,112.3797 98.9288,99.3627 102.4,91.5525 108.4746,76.3661 110.2102,63.7831 108.9085,45.5593 106.3051,39.0508 98.4949,28.2034 86.3458,18.2237 77.6678,15.1864 54.6712,14.7525" stroke="#00007f" stroke-width="2" /><polyline fill="none" points="27.7695,18.2237 44.6915,45.5593 48.5966,55.9729 50.7661,69.8576 50.7661,79.4034 48.5966,90.6847 39.9186,102.4 26.0339,112.3797 24.2983,103.2678" stroke="#7cff79" stroke-width="2" /><polyline fill="none" points="84.1763,21.6949 77.2339,51.2 77.2339,77.6678 85.9119,94.1559 94.5898,99.7966" stroke="#7f0000" stroke-width="2" /></svg>