<?xml version="1.0" encoding="utf-8" ?>
<svg baseProfile="tiny" height="128" version="1.2" viewBox="0,0,128,128" width="128" xmlns="http://www.w3.org/2000/svg" xmlns:ev="http://www.w3.org/2001/xml-events" xmlns:xlink="http://www.w3.org/1999/xlink"><defs /><polyline fill="none" points="98.061,31.2407 91.1186,19.0915 77.6678,9.9797 65.0847,8.678 56.8407,9.9797 49.0305,13.4508 32.5424,26.0339 18.6576,43.3898 13.8847,52.0678 9.1119,69.8576 8.678,85.478 11.2814,93.2881 19.9593,105.8712 25.6,110.6441 39.0508,117.1525 61.6136,119.322 69.4237,117.5864 83.7424,110.6441 97.6271,96.3254 102.4,85.0441 106.739,67.2542 106.3051,50.3322 100.6644,32.9763 96.3254,25.1661" stroke="#00007f" stroke-width="2" /><polyline fill="none" points="34.278,25.1661 36.8814,27.3356 39.9186,35.1458 43.3898,61.1797 42.522,87.6475 35.5797,111.9458" stroke="#0080ff" stroke-width="2" /><polyline fill="none" points="84.6102,22.1288 81.5729,54.2373 81.5729,72.461 88.5153,95.8915 92.4203,102.4 95.8915,104.5695" stroke="#7cff79" stroke-width="2" /><polyline fill="none" points="82.8746,39.4847 92.8542,38.6169" stroke="#ff9400" stroke-width="2" /><polyline fill="none" points="88.0814,52.0678 97.6271,52.0678" stroke="#7f0000" stroke-width="2" /></svg>