<?xml version="1.0" encoding="utf-8" ?>
<svg baseProfile="tiny" height="128" version="1.2" viewBox="0,0,128,128" width="128" xmlns="http://www.w3.org/2000/svg" xmlns:ev="http://www.w3.org/2001/xml-events" xmlns:xlink="http://www.w3.org/1999/xlink"><defs /><polyline fill="none" points="73.3288,8.678 64.6508,10.4136 41.2203,35.5797 35.5797,44.6915 22.1288,56.4068 13.8847,68.122 12.1492,90.2508 13.8847,100.6644 20.3932,108.9085 29.0712,114.1153 39.4847,117.5864 51.6339,119.322 59.878,119.322 68.122,115.8508 76.8,107.6068 87.2136,100.2305 100.6644,81.5729 108.9085,61.1797 110.6441,51.2 109.3424,42.9559 95.4576,24.2983 87.2136,19.0915 82.0068,12.1492" stroke="#00007f" stroke-width="2" /><polyline fill="none" points="63.3492,13.8847 58.1424,23.8644 54.6712,44.2576 46.4271,72.8949 44.2576,95.4576" stroke="#00d4ff" stroke-width="2" /><polyline fill="none" points="85.478,13.8847 80.2712,29.0712 80.2712,68.122 75.0644,85.0441 83.7424,98.9288" stroke="#ffe500" stroke-width="2" /><polyline fill="none" points="8.678,80.2712 19.0915,76.8 29.0712,69.8576 52.9356,61.6136 95.4576,52.9356" stroke="#7f0000" stroke-width="2" /></svg>