<?xml version="1.0" encoding="utf-8" ?>
<svg baseProfile="tiny" height="128" version="1.2" viewBox="0,0,128,128" width="128" xmlns="http://www.w3.org/2000/svg" xmlns:ev="http://www.w3.org/2001/xml-events" xmlns:xlink="http://www.w3.org/1999/xlink"><defs /><polyline fill="none" points="86.3458,10.4136 69.4237,11.2814 55.539,16.0542 42.9559,22.1288 28.6373,33.4102 16.4881,45.9932 8.678,63.7831 9.5458,79.4034 14.3186,86.7797 24.2983,94.5898 38.6169,99.3627 53.3695,101.0983 82.8746,101.0983 90.2508,98.9288 101.0983,91.5525 105.4373,86.3458 114.5492,68.5559 116.2847,57.2746 115.4169,42.522 102.4,17.7898 96.7593,12.1492 75.9322,8.678" stroke="#00007f" stroke-width="2" /><polyline fill="none" points="72.8949,13.0169 74.6305,17.7898 74.6305,29.5051 71.1593,91.1186" stroke="#004cff" stroke-width="2" /><polyline fill="none" points="16.4881,55.539 67.2542,57.7085 119.322,56.8407" stroke="#29ffcd" stroke-width="2" /><polyline fill="none" points="108.0407,34.7119 84.6102,46.4271 65.5186,66.3864 56.8407,72.8949 25.6,88.9492" stroke="#cdff29" stroke-width="2" /><polyline fill="none" points="54.6712,34.7119 54.6712,34.7119" stroke="#ff6700" stroke-width="2" /><polyline fill="none" points="49.8983,29.939 61.1797,44.6915 89.8169,75.0644 100.6644,90.2508" stroke="#7f0000" stroke-width="2" /></svg>