<?xml version="1.0" encoding="utf-8" ?>
<svg baseProfile="tiny" height="128" version="1.2" viewBox="0,0,128,128" width="128" xmlns="http://www.w3.org/2000/svg" xmlns:ev="http://www.w3.org/2001/xml-events" xmlns:xlink="http://www.w3.org/1999/xlink"><defs /><polyline fill="none" points="29.6054,29.1701 31.3469,24.8163 39.1837,16.9796 53.1156,10.449 61.3878,8.7075 80.1088,8.7075 88.8163,11.3197 97.9592,16.1088 105.3605,22.2041 111.4558,29.1701 118.8571,47.8912 119.2925,68.7891 115.3741,78.8027 108.8435,88.8163 101.0068,97.5238 91.4286,104.0544 81.8503,108.4082 72.2721,110.585 54.8571,109.2789 35.7007,101.8776 26.5578,96.2177 13.932,82.2857 10.0136,74.0136 8.7075,64.8707 9.1429,55.2925 12.1905,46.1497 20.898,31.7823 35.2653,21.7687" stroke="#00007f" stroke-width="2" /><polyline fill="none" points="41.3605,16.1088 49.1973,20.898 54.8571,31.3469 56.1633,40.0544 56.1633,59.2109 47.8912,85.7687 42.2313,95.3469 37.0068,99.2653" stroke="#7cff79" stroke-width="2" /><polyline fill="none" points="102.7483,16.5442 93.1701,28.2993 89.2517,37.8776 86.6395,47.8912 85.3333,67.9184 87.0748,77.0612 93.1701,93.1701 100.1361,103.1837 104.4898,106.6667" stroke="#7f0000" stroke-width="2" /></svg>