<?xml version="1.0" encoding="utf-8" ?>
<svg baseProfile="tiny" height="128" version="1.2" viewBox="0,0,128,128" width="128" xmlns="http://www.w3.org/2000/svg" xmlns:ev="http://www.w3.org/2001/xml-events" xmlns:xlink="http://www.w3.org/1999/xlink"><defs /><polyline fill="none" points="48.5966,17.7898 25.1661,18.2237 15.6203,24.7322 9.5458,33.8441 8.678,54.6712 13.4508,59.878 35.5797,72.0271 56.4068,74.6305 79.8373,75.0644 88.9492,71.5932 99.3627,65.5186 115.8508,53.3695 118.4542,50.3322 119.322,42.9559 119.322,39.0508 117.1525,34.278 109.7763,24.2983 101.5322,16.922 93.2881,12.5831 83.3085,9.5458 66.8203,8.678 44.2576,18.6576" stroke="#00007f" stroke-width="2" /><polyline fill="none" points="35.5797,18.2237 35.1458,47.2949 30.3729,57.2746 23.8644,62.0475" stroke="#7cff79" stroke-width="2" /><polyline fill="none" points="85.478,12.1492 81.5729,26.4678 82.8746,47.7288 85.478,52.9356 91.5525,59.0102 98.9288,64.6508 101.0983,64.6508" stroke="#7f0000" stroke-width="2" /></svg>