<?xml version="1.0" encoding="utf-8" ?>
<svg baseProfile="tiny" height="128" version="1.2" viewBox="0,0,128,128" width="128" xmlns="http://www.w3.org/2000/svg" xmlns:ev="http://www.w3.org/2001/xml-events" xmlns:xlink="http://www.w3.org/1999/xlink"><defs /><polyline fill="none" points="78.5356,10.4136 59.878,8.678 49.4644,11.7153 40.7864,17.3559 26.0339,33.8441 13.4508,52.5017 9.1119,68.5559 8.678,74.1966 14.7525,81.139 20.8271,84.1763 39.4847,87.6475 46.4271,87.6475 82.0068,79.8373 103.7017,76.8 115.8508,68.9898 118.0203,65.0847 119.322,57.7085 118.8881,43.3898 116.2847,38.6169 105.8712,26.9017 95.4576,22.5627 80.7051,18.6576 78.9695,17.3559 78.1017,13.8847 76.3661,13.4508 70.2915,17.3559 68.122,22.1288 64.6508,39.4847 69.8576,47.2949 100.6644,75.9322" stroke="#00007f" stroke-width="2" /><polyline fill="none" points="49.8983,10.4136 55.9729,46.861 54.2373,55.539 48.5966,66.8203 40.7864,73.7627 25.6,79.8373" stroke="#7f0000" stroke-width="2" /></svg>