<?xml version="1.0" encoding="utf-8" ?>
<svg baseProfile="tiny" height="128" version="1.2" viewBox="0,0,128,128" width="128" xmlns="http://www.w3.org/2000/svg" xmlns:ev="http://www.w3.org/2001/xml-events" xmlns:xlink="http://www.w3.org/1999/xlink"><defs /><polyline fill="none" points="85.9119,17.7898 70.7254,9.9797 60.7458,8.678 49.4644,9.1119 39.9186,13.0169 30.8068,19.9593 17.3559,36.0136 10.8475,50.3322 8.678,61.6136 9.1119,75.9322 12.1492,91.1186 15.1864,97.1932 24.7322,106.739 35.1458,112.8136 48.1627,117.5864 68.5559,119.322 76.3661,117.1525 85.9119,111.078 93.2881,105.4373 100.2305,96.3254 105.0034,81.5729 108.9085,61.6136 109.7763,46.4271 108.0407,34.7119 104.5695,26.0339 96.3254,16.922 86.3458,13.0169 75.4983,10.8475" stroke="#00007f" stroke-width="2" /><polyline fill="none" points="90.2508,16.922 83.7424,30.8068 70.7254,77.2339 70.2915,104.1356 74.6305,116.7186" stroke="#0080ff" stroke-width="2" /><polyline fill="none" points="26.0339,12.5831 41.2203,33.4102 48.5966,59.878 49.8983,81.139 46.4271,92.8542 39.9186,108.0407" stroke="#7cff79" stroke-width="2" /><polyline fill="none" points="52.5017,34.278 44.2576,34.278 29.5051,37.3153" stroke="#ff9400" stroke-width="2" /><polyline fill="none" points="56.4068,62.0475 13.4508,63.3492" stroke="#7f0000" stroke-width="2" /></svg>