<?xml version="1.0" encoding="utf-8" ?>
<svg baseProfile="tiny" height="128" version="1.2" viewBox="0,0,128,128" width="128" xmlns="http://www.w3.org/2000/svg" xmlns:ev="http://www.w3.org/2001/xml-events" xmlns:xlink="http://www.w3.org/1999/xlink"><defs /><polyline fill="none" points="104.1356,23.8644 91.5525,16.0542 79.4034,13.8847 41.2203,13.8847 28.6373,16.0542 16.4881,26.0339 11.2814,38.6169 11.2814,63.7831 8.678,76.8 8.678,88.9492 13.8847,101.9661 39.0508,116.7186 51.6339,119.322 63.7831,119.322 76.3661,116.7186 89.3831,106.739 101.9661,101.5322 116.7186,76.8 116.7186,51.2 114.1153,38.6169 109.3424,26.4678 106.739,8.678" stroke="#00007f" stroke-width="2" /><polyline fill="none" points="66.3864,26.4678 66.3864,76.8 61.6136,88.9492 53.8034,101.5322 41.2203,111.9458 39.0508,111.9458" stroke="#7cff79" stroke-width="2" /><polyline fill="none" points="91.5525,114.1153 91.5525,38.6169 96.7593,26.4678 109.3424,26.4678 119.322,28.6373" stroke="#7f0000" stroke-width="2" /></svg>