<?xml version="1.0" encoding="utf-8" ?>
<svg baseProfile="tiny" height="128" version="1.2" viewBox="0,0,128,128" width="128" xmlns="http://www.w3.org/2000/svg" xmlns:ev="http://www.w3.org/2001/xml-events" xmlns:xlink="http://www.w3.org/1999/xlink"><defs /><polyline fill="none" points="76.8,8.678 61.6136,9.5458 39.0508,22.9966 20.8271,41.2203 10.8475,60.3119 8.678,70.7254 8.678,81.5729 11.7153,91.9864 26.9017,108.0407 35.1458,112.3797 46.4271,114.1153 72.461,114.1153 103.2678,101.9661 109.3424,95.8915 113.2475,88.9492 116.2847,66.3864 116.2847,44.2576 114.1153,33.8441 107.1729,22.1288 102.4,17.7898 85.9119,8.678 79.8373,9.5458" stroke="#00007f" stroke-width="2" /><polyline fill="none" points="42.0881,19.9593 44.2576,26.9017 60.3119,60.3119 64.6508,77.6678 64.6508,87.6475 50.3322,106.3051" stroke="#7cff79" stroke-width="2" /><polyline fill="none" points="94.1559,15.6203 89.8169,20.8271 89.8169,105.8712 95.0237,116.2847 101.0983,119.322" stroke="#7f0000" stroke-width="2" /></svg>