<?xml version="1.0" encoding="utf-8" ?>
<svg baseProfile="tiny" height="128" version="1.2" viewBox="0,0,128,128" width="128" xmlns="http://www.w3.org/2000/svg" xmlns:ev="http://www.w3.org/2001/xml-events" xmlns:xlink="http://www.w3.org/1999/xlink"><defs /><polyline fill="none" points="52.5017,8.678 45.1254,12.1492 28.6373,15.1864 22.1288,20.3932 15.1864,29.939 10.8475,40.7864 8.678,47.2949 9.1119,52.9356 11.7153,56.4068 19.0915,61.1797 59.878,76.3661 81.139,82.4407 106.3051,78.9695 116.2847,73.3288 119.322,69.4237 118.4542,61.6136 112.8136,45.9932 105.4373,37.3153 90.2508,25.1661 72.0271,16.0542 61.1797,13.8847 55.1051,15.6203" stroke="#00007f" stroke-width="2" /><polyline fill="none" points="48.5966,11.2814 56.8407,35.1458 53.8034,49.4644 47.7288,58.5763 32.1085,65.0847" stroke="#7cff79" stroke-width="2" /><polyline fill="none" points="78.5356,21.6949 69.4237,46.4271 74.1966,60.7458 86.3458,83.3085" stroke="#7f0000" stroke-width="2" /></svg>