<?xml version="1.0" encoding="utf-8" ?>
<svg baseProfile="tiny" height="128" version="1.2" viewBox="0,0,128,128" width="128" xmlns="http://www.w3.org/2000/svg" xmlns:ev="http://www.w3.org/2001/xml-events" xmlns:xlink="http://www.w3.org/1999/xlink"><defs /><polyline fill="none" points="96.3254,33.4102 88.5153,23.4305 79.4034,15.1864 71.1593,9.9797 64.6508,8.678 57.2746,9.9797 22.5627,29.939 13.4508,40.7864 9.9797,49.8983 8.678,59.0102 9.1119,75.9322 16.922,91.5525 22.9966,98.061 32.5424,104.1356 45.9932,108.4746 68.5559,111.078 76.8,111.078 113.6814,92.4203 118.0203,84.6102 119.322,75.9322 118.4542,59.4441 116.2847,51.6339 107.6068,38.1831 88.5153,22.5627" stroke="#00007f" stroke-width="2" /><polyline fill="none" points="91.1186,23.8644 86.7797,32.5424 85.0441,40.3525 85.0441,69.8576 88.0814,87.2136 93.2881,101.0983" stroke="#00d4ff" stroke-width="2" /><polyline fill="none" points="30.8068,27.3356 37.7492,39.9186 42.522,56.4068 44.6915,94.5898 43.3898,100.6644 38.1831,112.3797" stroke="#ffe500" stroke-width="2" /><polyline fill="none" points="24.7322,43.8237 30.8068,37.3153 47.7288,29.5051" stroke="#7f0000" stroke-width="2" /></svg>