<?xml version="1.0" encoding="utf-8" ?>
<svg baseProfile="tiny" height="128" version="1.2" viewBox="0,0,128,128" width="128" xmlns="http://www.w3.org/2000/svg" xmlns:ev="http://www.w3.org/2001/xml-events" xmlns:xlink="http://www.w3.org/1999/xlink"><defs /><polyline fill="none" points="13.0169,64.6508 29.5051,63.3492 29.5051,43.8237 27.3356,32.9763 23.8644,29.939 10.4136,29.0712 8.678,32.1085 9.1119,42.0881 12.5831,68.5559" stroke="#00007f" stroke-width="2" /><polyline fill="none" points="77.2339,74.6305 69.4237,68.9898 54.2373,52.0678 51.2,47.2949 49.8983,37.7492 54.6712,24.2983 64.2169,14.7525 77.6678,10.4136 84.6102,10.4136 95.8915,16.0542 105.8712,27.3356 112.8136,38.6169 114.5492,48.1627 114.1153,54.6712 106.3051,68.122 97.6271,74.6305 79.8373,78.1017 67.2542,74.6305 62.0475,69.4237" stroke="#004cff" stroke-width="2" /><polyline fill="none" points="56.8407,16.0542 63.7831,19.0915 71.1593,25.6 77.2339,37.7492 79.4034,55.539 78.1017,79.4034" stroke="#29ffcd" stroke-width="2" /><polyline fill="none" points="83.7424,8.678 88.9492,14.3186 95.0237,31.6746 97.6271,69.4237" stroke="#cdff29" stroke-width="2" /><polyline fill="none" points="95.8915,45.9932 112.3797,42.0881 119.322,35.5797" stroke="#ff6700" stroke-width="2" /><polyline fill="none" points="78.1017,45.9932 73.3288,45.5593 55.9729,47.2949 52.9356,44.2576 52.9356,40.3525" stroke="#7f0000" stroke-width="2" /></svg>