<?xml version="1.0" encoding="utf-8" ?>
<svg baseProfile="tiny" height="128" version="1.2" viewBox="0,0,128,128" width="128" xmlns="http://www.w3.org/2000/svg" xmlns:ev="http://www.w3.org/2001/xml-events" xmlns:xlink="http://www.w3.org/1999/xlink"><defs /><polyline fill="none" points="20.8271,27.3356 24.7322,16.922 32.1085,11.7153 44.2576,8.678 61.1797,8.678 79.8373,12.5831 87.6475,15.6203 102.8339,25.1661 116.7186,39.0508 118.8881,43.8237 119.322,52.5017 115.4169,68.9898 101.5322,89.3831 87.2136,99.3627 70.2915,105.0034 53.3695,105.4373 35.1458,101.9661 26.9017,98.4949 13.4508,81.5729 8.678,63.7831 8.678,48.1627 9.9797,40.3525 15.6203,30.3729 22.5627,25.6" stroke="#00007f" stroke-width="2" /><polyline fill="none" points="52.0678,9.9797 50.3322,14.7525 26.0339,35.1458 11.2814,52.0678" stroke="#0080ff" stroke-width="2" /><polyline fill="none" points="106.3051,37.7492 73.7627,58.5763 62.4814,68.5559 58.5763,73.3288 52.9356,86.7797 52.0678,101.5322" stroke="#7cff79" stroke-width="2" /><polyline fill="none" points="21.6949,21.6949 44.6915,29.0712 58.1424,36.4475 88.5153,61.1797 103.7017,81.5729" stroke="#ff9400" stroke-width="2" /><polyline fill="none" points="82.0068,20.8271 49.0305,57.7085 31.6746,82.0068 29.0712,90.2508" stroke="#7f0000" stroke-width="2" /></svg>