<?xml version="1.0" encoding="utf-8" ?>
<svg baseProfile="tiny" height="128" version="1.2" viewBox="0,0,128,128" width="128" xmlns="http://www.w3.org/2000/svg" xmlns:ev="http://www.w3.org/2001/xml-events" xmlns:xlink="http://www.w3.org/1999/xlink"><defs /><polyline fill="none" points="73.3288,10.4136 69.8576,8.678 63.7831,9.1119 61.1797,11.2814 57.7085,18.6576 58.5763,29.939 62.0475,34.278 68.9898,38.1831 74.1966,38.6169 77.2339,36.8814 81.5729,27.3356 82.0068,21.261 77.6678,12.1492 75.9322,9.5458 71.1593,9.5458" stroke="#00007f" stroke-width="2" /><polyline fill="none" points="68.5559,11.2814 62.0475,20.8271 60.3119,27.3356 61.6136,36.8814 65.5186,37.7492 67.6881,35.5797" stroke="#004cff" stroke-width="2" /><polyline fill="none" points="76.8,15.1864 75.0644,30.8068 72.0271,35.1458 67.2542,35.5797" stroke="#29ffcd" stroke-width="2" /><polyline fill="none" points="115.4169,20.8271 104.1356,22.5627 97.6271,26.0339 95.4576,29.0712 119.322,45.5593" stroke="#cdff29" stroke-width="2" /><polyline fill="none" points="118.0203,31.2407 114.9831,29.5051 101.0983,30.3729" stroke="#ff6700" stroke-width="2" /><polyline fill="none" points="8.678,62.0475 13.4508,49.8983" stroke="#7f0000" stroke-width="2" /></svg>