<?xml version="1.0" encoding="utf-8" ?>
<svg baseProfile="tiny" height="128" version="1.2" viewBox="0,0,128,128" width="128" xmlns="http://www.w3.org/2000/svg" xmlns:ev="http://www.w3.org/2001/xml-events" xmlns:xlink="http://www.w3.org/1999/xlink"><defs /><polyline fill="none" points="119.322,28.6373 117.1525,23.4305 106.3051,14.7525 86.7797,9.5458 65.5186,8.678 43.8237,14.3186 32.1085,19.5254 16.4881,32.9763 11.7153,41.2203 9.1119,49.4644 8.678,58.5763 9.1119,67.6881 13.4508,75.9322 19.5254,83.7424 34.278,97.1932 49.8983,105.4373 66.8203,106.739 75.9322,104.5695 84.6102,98.4949 91.9864,90.6847 103.2678,71.1593 106.739,59.878 108.4746,49.4644 107.1729,29.0712 99.3627,14.3186" stroke="#00007f" stroke-width="2" /><polyline fill="none" points="33.8441,15.6203 43.8237,26.9017 47.2949,40.3525 47.2949,57.7085 42.0881,100.6644" stroke="#7cff79" stroke-width="2" /><polyline fill="none" points="98.061,11.2814 83.3085,40.3525 78.9695,59.878 79.4034,78.9695 82.8746,87.6475 88.5153,96.3254" stroke="#7f0000" stroke-width="2" /></svg>