<?xml version="1.0" encoding="utf-8" ?>
<svg baseProfile="tiny" height="128" version="1.2" viewBox="0,0,128,128" width="128" xmlns="http://www.w3.org/2000/svg" xmlns:ev="http://www.w3.org/2001/xml-events" xmlns:xlink="http://www.w3.org/1999/xlink"><defs /><polyline fill="none" points="62.4814,16.922 40.3525,9.5458 30.3729,8.678 26.0339,9.1119 22.9966,10.8475 16.922,16.922 13.0169,26.9017 8.678,52.9356 9.1119,82.4407 14.7525,95.8915 24.7322,107.1729 38.1831,117.1525 45.1254,119.322 51.6339,119.322 54.6712,117.5864 63.3492,99.3627 65.5186,85.478 66.8203,31.6746 62.4814,14.7525" stroke="#00007f" stroke-width="2" /><polyline fill="none" points="26.9017,12.1492 27.3356,27.7695 33.8441,33.8441 34.7119,38.1831 34.7119,57.2746 29.5051,70.7254 19.5254,83.7424 18.6576,93.722 20.8271,97.6271" stroke="#7cff79" stroke-width="2" /><polyline fill="none" points="55.539,14.3186 48.5966,32.9763 46.4271,41.6542 45.1254,67.6881 49.4644,90.2508 53.3695,95.0237 59.878,99.3627" stroke="#7f0000" stroke-width="2" /></svg>