<?xml version="1.0" encoding="utf-8" ?>
<svg baseProfile="tiny" height="128" version="1.2" viewBox="0,0,128,128" width="128" xmlns="http://www.w3.org/2000/svg" xmlns:ev="http://www.w3.org/2001/xml-events" xmlns:xlink="http://www.w3.org/1999/xlink"><defs /><polyline fill="none" points="84.1763,23.4305 71.5932,19.9593 51.2,24.7322 45.1254,24.7322 26.9017,36.0136 14.3186,48.5966 10.8475,55.539 10.8475,62.4814 8.678,70.2915 8.678,92.8542 9.9797,100.2305 15.6203,111.5119 21.261,115.8508 26.9017,118.0203 35.1458,119.322 66.8203,119.322 82.8746,114.5492 99.7966,108.0407 104.5695,98.4949 104.5695,66.8203 99.7966,43.8237 88.5153,24.7322 75.0644,12.1492 68.122,8.678" stroke="#00007f" stroke-width="2" /><polyline fill="none" points="33.8441,32.5424 34.7119,40.7864 34.7119,90.6847 37.3153,96.3254 37.3153,103.2678" stroke="#0080ff" stroke-width="2" /><polyline fill="none" points="84.1763,19.0915 78.5356,22.1288 72.461,29.0712 68.122,36.0136 62.4814,49.8983 62.4814,111.5119 63.3492,116.7186 65.5186,119.322" stroke="#7cff79" stroke-width="2" /><polyline fill="none" points="53.3695,41.6542 71.5932,41.6542 90.6847,48.5966 93.2881,50.7661" stroke="#ff9400" stroke-width="2" /><polyline fill="none" points="63.3492,70.2915 78.1017,71.5932" stroke="#7f0000" stroke-width="2" /></svg>