<?xml version="1.0" encoding="utf-8" ?>
<svg baseProfile="tiny" height="128" version="1.2" viewBox="0,0,128,128" width="128" xmlns="http://www.w3.org/2000/svg" xmlns:ev="http://www.w3.org/2001/xml-events" xmlns:xlink="http://www.w3.org/1999/xlink"><defs /><polyline fill="none" points="100.6644,17.3559 89.8169,14.7525 75.4983,14.3186 46.861,19.0915 37.7492,22.1288 30.8068,26.4678 23.8644,31.6746 18.2237,38.1831 13.4508,45.1254 8.678,59.878 12.1492,76.3661 19.5254,87.2136 34.278,95.0237 43.3898,95.8915 51.2,94.1559 68.122,83.7424 86.7797,65.9525 104.1356,44.6915 109.7763,29.939 109.3424,25.6 105.8712,19.9593 100.2305,14.3186 91.9864,9.9797 84.6102,8.678 80.2712,10.4136" stroke="#00007f" stroke-width="2" /><polyline fill="none" points="32.5424,22.5627 48.5966,38.6169 63.3492,58.5763 80.2712,89.8169 82.8746,99.3627" stroke="#004cff" stroke-width="2" /><polyline fill="none" points="10.8475,41.2203 29.0712,61.6136 61.1797,91.1186" stroke="#29ffcd" stroke-width="2" /><polyline fill="none" points="49.4644,12.1492 62.0475,22.1288 76.3661,37.3153 91.1186,53.8034 94.5898,60.7458" stroke="#cdff29" stroke-width="2" /><polyline fill="none" points="10.8475,84.1763 19.9593,68.9898 29.939,56.4068 42.0881,44.2576 56.4068,32.5424 70.2915,25.1661 78.5356,22.5627 91.9864,19.9593 104.1356,19.9593" stroke="#ff6700" stroke-width="2" /><polyline fill="none" points="24.2983,98.061 68.9898,52.0678 95.0237,33.4102 107.1729,27.7695 119.322,24.7322" stroke="#7f0000" stroke-width="2" /></svg>