<?xml version="1.0" encoding="utf-8" ?>
<svg baseProfile="tiny" height="128" version="1.2" viewBox="0,0,128,128" width="128" xmlns="http://www.w3.org/2000/svg" xmlns:ev="http://www.w3.org/2001/xml-events" xmlns:xlink="http://www.w3.org/1999/xlink"><defs /><polyline fill="none" points="98.9288,27.3356 91.9864,20.8271 65.9525,12.1492 45.1254,12.1492 32.9763,15.6203 25.6,19.5254 18.6576,26.9017 11.2814,42.9559 8.678,67.6881 9.9797,79.4034 14.3186,85.478 27.3356,95.8915 36.4475,100.2305 46.861,102.4 63.7831,103.2678 75.0644,101.9661 97.6271,91.9864 106.3051,84.1763 113.2475,75.0644 118.4542,63.3492 119.322,53.8034 109.3424,29.0712 104.5695,24.2983 95.4576,20.3932" stroke="#00007f" stroke-width="2" /><polyline fill="none" points="41.6542,8.678 46.4271,14.3186 51.6339,24.2983 59.0102,48.5966 58.5763,57.7085 55.9729,68.5559 46.4271,93.722" stroke="#0010ff" stroke-width="2" /><polyline fill="none" points="102.8339,13.4508 97.1932,19.9593 89.3831,32.1085 84.1763,55.539 84.1763,70.7254 85.478,78.1017 91.1186,92.4203 96.7593,99.7966" stroke="#00a4ff" stroke-width="2" /><polyline fill="none" points="78.9695,25.1661 78.5356,23.8644 80.2712,23.8644 105.0034,31.2407" stroke="#3fffb7" stroke-width="2" /><polyline fill="none" points="73.7627,40.3525 81.5729,42.0881 98.061,42.0881" stroke="#b7ff3f" stroke-width="2" /><polyline fill="none" points="82.8746,55.539 95.8915,55.9729 106.3051,54.2373" stroke="#ffb900" stroke-width="2" /><polyline fill="none" points="76.3661,75.4983 95.8915,73.7627" stroke="#ff3000" stroke-width="2" /><polyline fill="none" points="80.2712,83.7424 80.2712,83.7424" stroke="#7f0000" stroke-width="2" /></svg>