<?xml version="1.0" encoding="utf-8" ?>
<svg baseProfile="tiny" height="128" version="1.2" viewBox="0,0,128,128" width="128" xmlns="http://www.w3.org/2000/svg" xmlns:ev="http://www.w3.org/2001/xml-events" xmlns:xlink="http://www.w3.org/1999/xlink"><defs /><polyline fill="none" points="73.5782,9.5782 56.1633,9.1429 44.4082,11.7551 21.3333,28.2993 13.4966,37.8776 8.7075,47.0204 8.7075,68.7891 23.9456,97.9592 34.3946,111.0204 40.9252,114.9388 49.6327,114.9388 62.6939,117.1156 88.381,117.1156 110.585,102.3129 115.3741,93.6054 117.9864,84.898 119.2925,54.8571 117.9864,46.1497 111.4558,27.4286 106.6667,23.0748 93.6054,14.8027 80.1088,10.449 68.7891,8.7075" stroke="#00007f" stroke-width="2" /><polyline fill="none" points="41.3605,15.6735 47.0204,23.9456 53.9864,43.102 53.9864,64.4354 52.6803,73.5782 48.3265,87.0748 38.3129,105.3605 38.7483,102.7483" stroke="#7cff79" stroke-width="2" /><polyline fill="none" points="87.0748,15.2381 76.1905,45.2789 74.0136,60.9524 74.8844,84.898 80.9796,96.2177" stroke="#7f0000" stroke-width="2" /></svg>