<?xml version="1.0" encoding="utf-8" ?>
<svg baseProfile="tiny" height="128" version="1.2" viewBox="0,0,128,128" width="128" xmlns="http://www.w3.org/2000/svg" xmlns:ev="http://www.w3.org/2001/xml-events" xmlns:xlink="http://www.w3.org/1999/xlink"><defs /><polyline fill="none" points="42.0881,26.0339 30.3729,27.7695 20.8271,34.278 12.1492,43.3898 8.678,52.5017 8.678,57.7085 11.2814,62.9153 16.0542,68.122 22.9966,71.1593 41.2203,72.0271 55.1051,65.9525 60.3119,61.1797 65.5186,51.2 65.5186,39.0508 59.4441,22.9966 54.2373,17.3559 49.8983,16.0542" stroke="#00007f" stroke-width="2" /><polyline fill="none" points="26.0339,36.0136 23.4305,65.0847 23.8644,68.122 27.3356,69.4237" stroke="#004cff" stroke-width="2" /><polyline fill="none" points="55.9729,22.1288 49.4644,51.2 49.8983,63.7831 51.6339,67.2542 52.9356,66.3864" stroke="#29ffcd" stroke-width="2" /><polyline fill="none" points="51.2,8.678 49.0305,12.5831 37.7492,22.5627 36.0136,28.2034" stroke="#cdff29" stroke-width="2" /><polyline fill="none" points="10.8475,49.4644 13.0169,48.1627 48.5966,37.7492 74.1966,32.9763 85.478,32.5424" stroke="#ff6700" stroke-width="2" /><polyline fill="none" points="13.0169,59.0102 22.9966,53.3695 60.7458,45.9932 83.3085,43.8237 119.322,43.3898" stroke="#7f0000" stroke-width="2" /></svg>