<?xml version="1.0" encoding="utf-8" ?>
<svg baseProfile="tiny" height="128" version="1.2" viewBox="0,0,128,128" width="128" xmlns="http://www.w3.org/2000/svg" xmlns:ev="http://www.w3.org/2001/xml-events" xmlns:xlink="http://www.w3.org/1999/xlink"><defs /><polyline fill="none" points="63.5646,8.7075 53.551,9.1429 31.3469,21.7687 22.6395,29.6054 16.5442,38.3129 8.7075,63.5646 9.1429,84.0272 12.6259,90.5578 16.9796,95.7823 25.6871,101.0068 37.8776,104.4898 66.1769,105.3605 78.3673,104.0544 99.2653,96.2177 107.102,90.5578 113.6327,83.1565 118.4218,74.449 119.2925,64.8707 117.551,55.2925 110.585,43.9728 97.5238,39.619 59.2109,31.3469" stroke="#00007f" stroke-width="2" /><polyline fill="none" points="45.2789,16.1088 49.1973,16.9796 53.1156,22.6395 55.7279,33.9592 56.1633,50.9388 52.6803,67.9184 47.4558,80.1088 42.2313,89.2517 35.7007,94.9116 37.0068,91.4286 42.2313,86.6395 56.5986,77.932" stroke="#0028ff" stroke-width="2" /><polyline fill="none" points="97.9592,45.2789 93.1701,57.9048 92.2993,64.8707 91.4286,92.7347 92.2993,96.6531 102.3129,101.4422" stroke="#00d4ff" stroke-width="2" /><polyline fill="none" points="52.6803,42.6667 64.8707,43.5374" stroke="#7cff79" stroke-width="2" /><polyline fill="none" points="40.9252,60.9524 49.1973,62.6939 52.2449,66.1769 52.2449,70.966" stroke="#ffe500" stroke-width="2" /><polyline fill="none" points="50.9388,76.6259 51.3741,79.6735 54.4218,83.1565 63.5646,87.0748 66.1769,85.3333" stroke="#ff4600" stroke-width="2" /><polyline fill="none" points="84.4626,66.6122 90.9932,61.8231 99.2653,59.6463" stroke="#7f0000" stroke-width="2" /></svg>