<?xml version="1.0" encoding="utf-8" ?>
<svg baseProfile="tiny" height="128" version="1.2" viewBox="0,0,128,128" width="128" xmlns="http://www.w3.org/2000/svg" xmlns:ev="http://www.w3.org/2001/xml-events" xmlns:xlink="http://www.w3.org/1999/xlink"><defs /><polyline fill="none" points="23.4305,86.3458 19.0915,85.9119 15.1864,87.2136 9.5458,94.5898 8.678,99.7966 11.2814,103.7017 17.3559,104.5695 21.261,102.4 26.9017,96.3254 28.2034,92.8542 28.2034,86.3458 25.1661,81.5729" stroke="#00007f" stroke-width="2" /><polyline fill="none" points="22.5627,84.1763 22.1288,80.2712 32.1085,41.2203 39.0508,17.7898 43.3898,10.8475 47.7288,9.1119 60.7458,8.678 71.5932,11.2814 78.9695,16.922 80.2712,22.9966 80.2712,29.5051 77.6678,36.4475 68.9898,49.0305 61.1797,56.4068 22.5627,84.1763" stroke="#00d4ff" stroke-width="2" /><polyline fill="none" points="100.2305,45.5593 98.4949,44.2576 90.6847,43.3898 82.8746,45.5593 75.9322,51.2 71.5932,60.3119 71.1593,69.8576 74.1966,75.9322 80.2712,81.139 91.1186,83.7424 99.7966,83.3085 111.9458,77.6678 117.1525,72.0271 118.8881,65.9525 119.322,59.4441 113.6814,51.2 104.1356,45.5593 96.3254,45.1254" stroke="#ffe500" stroke-width="2" /><polyline fill="none" points="85.0441,80.7051 82.4407,79.4034 81.5729,75.9322 81.5729,70.2915 84.6102,66.3864 91.9864,62.4814 105.8712,60.3119 110.2102,57.7085 112.8136,54.2373" stroke="#7f0000" stroke-width="2" /></svg>