<?xml version="1.0" encoding="utf-8" ?>
<svg baseProfile="tiny" height="128" version="1.2" viewBox="0,0,128,128" width="128" xmlns="http://www.w3.org/2000/svg" xmlns:ev="http://www.w3.org/2001/xml-events" xmlns:xlink="http://www.w3.org/1999/xlink"><defs /><polyline fill="none" points="92.4203,12.1492 91.1186,10.8475 81.139,8.678 56.4068,9.1119 41.6542,16.0542 28.2034,28.2034 21.6949,37.3153 9.9797,59.0102 8.678,68.122 8.678,90.2508 10.8475,95.0237 14.7525,98.4949 33.4102,102.4 74.6305,102.4 86.3458,96.7593 94.5898,89.3831 108.0407,70.2915 113.2475,60.3119 118.8881,45.1254 119.322,32.1085 115.8508,26.4678 101.0983,13.4508 89.3831,10.8475" stroke="#00007f" stroke-width="2" /><polyline fill="none" points="98.061,9.9797 80.7051,32.1085 73.7627,48.5966 72.461,71.1593 76.8,86.3458 82.0068,94.1559" stroke="#0080ff" stroke-width="2" /><polyline fill="none" points="56.4068,10.4136 61.1797,16.922 63.7831,23.8644 63.7831,35.5797 62.4814,42.522 47.2949,70.2915 39.4847,80.7051 33.8441,84.6102 20.8271,85.478" stroke="#7cff79" stroke-width="2" /><polyline fill="none" points="56.8407,22.9966 72.0271,23.8644" stroke="#ff9400" stroke-width="2" /><polyline fill="none" points="59.878,41.2203 60.7458,43.8237 66.8203,49.0305" stroke="#7f0000" stroke-width="2" /></svg>