<?xml version="1.0" encoding="utf-8" ?>
<svg baseProfile="tiny" height="128" version="1.2" viewBox="0,0,128,128" width="128" xmlns="http://www.w3.org/2000/svg" xmlns:ev="http://www.w3.org/2001/xml-events" xmlns:xlink="http://www.w3.org/1999/xlink"><defs /><polyline fill="none" points="86.3458,13.4508 79.4034,9.9797 72.461,8.678 51.2,8.678 40.3525,11.7153 26.9017,18.2237 19.9593,23.4305 10.8475,37.7492 9.5458,65.5186 14.3186,87.2136 20.3932,101.0983 25.6,108.0407 36.0136,116.2847 50.3322,119.322 63.7831,119.322 71.1593,118.0203 85.0441,111.5119 98.4949,99.7966 105.8712,89.3831 111.5119,71.5932 114.5492,53.8034 114.5492,36.4475 108.4746,26.0339 101.9661,20.3932 87.2136,13.0169" stroke="#00007f" stroke-width="2" /><polyline fill="none" points="8.678,44.2576 19.0915,37.3153 26.0339,35.1458 43.8237,35.1458 54.2373,39.4847 71.5932,59.0102 78.9695,64.2169 95.8915,65.5186 112.3797,59.0102" stroke="#0080ff" stroke-width="2" /><polyline fill="none" points="13.4508,83.7424 27.7695,75.0644 34.278,73.7627 48.1627,73.7627 59.0102,79.4034 69.4237,87.6475 79.8373,93.2881 105.4373,88.5153" stroke="#7cff79" stroke-width="2" /><polyline fill="none" points="87.2136,18.6576 87.2136,22.1288 83.3085,25.1661 72.0271,42.522 58.5763,52.9356" stroke="#ff9400" stroke-width="2" /><polyline fill="none" points="55.1051,82.8746 41.6542,100.6644 36.0136,110.6441 34.7119,116.7186" stroke="#7f0000" stroke-width="2" /></svg>