<?xml version="1.0" encoding="utf-8" ?>
<svg baseProfile="tiny" height="128" version="1.2" viewBox="0,0,128,128" width="128" xmlns="http://www.w3.org/2000/svg" xmlns:ev="http://www.w3.org/2001/xml-events" xmlns:xlink="http://www.w3.org/1999/xlink"><defs /><polyline fill="none" points="37.7492,12.1492 27.7695,16.922 19.9593,24.2983 10.4136,42.0881 8.678,54.6712 9.5458,74.1966 12.1492,81.139 19.5254,92.8542 30.8068,101.5322 37.3153,105.0034 57.2746,108.4746 86.3458,108.4746 93.2881,107.1729 103.2678,103.2678 111.078,96.3254 117.5864,81.139 119.322,65.0847 118.8881,51.2 115.4169,38.1831 111.9458,31.2407 109.3424,27.7695 102.8339,22.1288 91.1186,15.1864 85.9119,13.4508 62.4814,8.678 48.5966,8.678 41.2203,9.5458 27.7695,17.3559 19.9593,26.4678 19.5254,30.3729" stroke="#00007f" stroke-width="2" /><polyline fill="none" points="52.5017,8.678 49.8983,48.5966 45.9932,63.7831 42.9559,71.1593 38.1831,78.9695 28.6373,87.2136" stroke="#00d4ff" stroke-width="2" /><polyline fill="none" points="72.461,20.8271 73.3288,33.8441 75.9322,45.5593 83.7424,67.2542 93.2881,78.5356 115.8508,95.8915" stroke="#ffe500" stroke-width="2" /><polyline fill="none" points="48.5966,56.8407 79.8373,56.8407 85.0441,55.1051" stroke="#7f0000" stroke-width="2" /></svg>