<?xml version="1.0" encoding="utf-8" ?>
<svg baseProfile="tiny" height="128" version="1.2" viewBox="0,0,128,128" width="128" xmlns="http://www.w3.org/2000/svg" xmlns:ev="http://www.w3.org/2001/xml-events" xmlns:xlink="http://www.w3.org/1999/xlink"><defs /><polyline fill="none" points="47.2949,8.678 39.4847,10.4136 28.2034,18.2237 16.922,33.4102 12.5831,42.522 9.9797,50.3322 8.678,59.4441 9.5458,75.0644 19.5254,88.9492 35.5797,101.0983 55.9729,106.739 68.122,107.6068 79.8373,107.1729 91.5525,101.5322 101.5322,94.1559 110.2102,85.478 115.4169,77.2339 118.8881,68.122 119.322,59.0102 118.8881,51.2 114.5492,44.2576 108.9085,38.1831 94.5898,28.6373 55.539,15.1864 47.2949,14.7525 41.2203,16.0542 36.4475,19.9593" stroke="#00007f" stroke-width="2" /><polyline fill="none" points="13.4508,45.1254 29.0712,45.1254 39.9186,50.3322 65.5186,75.0644 80.2712,82.8746 91.1186,85.0441 102.4,83.3085" stroke="#00d4ff" stroke-width="2" /><polyline fill="none" points="68.9898,22.1288 62.0475,29.5051 59.878,35.1458 59.878,41.6542 71.1593,59.0102 72.0271,72.8949 68.122,80.2712 59.4441,88.0814 52.5017,91.9864 40.7864,95.4576" stroke="#ffe500" stroke-width="2" /><polyline fill="none" points="16.4881,71.5932 19.0915,74.6305 26.0339,77.6678 39.0508,77.6678 73.3288,62.4814 109.3424,57.7085" stroke="#7f0000" stroke-width="2" /></svg>