<?xml version="1.0" encoding="utf-8" ?>
<svg baseProfile="tiny" height="128" version="1.2" viewBox="0,0,128,128" width="128" xmlns="http://www.w3.org/2000/svg" xmlns:ev="http://www.w3.org/2001/xml-events" xmlns:xlink="http://www.w3.org/1999/xlink"><defs /><polyline fill="none" points="94.5898,32.1085 91.9864,22.5627 83.7424,12.5831 72.0271,8.678 50.7661,9.5458 40.7864,14.7525 31.6746,22.1288 22.5627,33.4102 15.1864,47.2949 9.5458,63.7831 8.678,84.1763 10.8475,90.2508 19.0915,101.9661 31.2407,111.9458 44.2576,117.5864 52.0678,118.8881 72.0271,119.322 85.0441,114.9831 101.0983,104.5695 108.4746,96.7593 117.1525,83.3085 119.322,71.1593 119.322,65.5186 117.5864,60.7458 108.0407,42.0881 96.7593,27.7695" stroke="#00007f" stroke-width="2" /><polyline fill="none" points="88.0814,16.4881 82.8746,22.5627 77.6678,33.8441 71.1593,62.9153 71.1593,86.3458 75.9322,99.3627 81.139,105.4373 91.1186,111.9458" stroke="#7cff79" stroke-width="2" /><polyline fill="none" points="38.6169,22.1288 43.8237,34.278 49.8983,55.1051 50.7661,75.9322 48.1627,84.6102 39.9186,101.0983 32.1085,108.0407" stroke="#7f0000" stroke-width="2" /></svg>