<?xml version="1.0" encoding="utf-8" ?>
<svg baseProfile="tiny" height="128" version="1.2" viewBox="0,0,128,128" width="128" xmlns="http://www.w3.org/2000/svg" xmlns:ev="http://www.w3.org/2001/xml-events" xmlns:xlink="http://www.w3.org/1999/xlink"><defs /><polyline fill="none" points="87.6475,12.5831 83.7424,11.2814 70.2915,11.2814 59.878,13.0169 48.5966,17.3559 36.4475,25.6 25.6,34.7119 16.0542,46.861 10.4136,59.4441 8.678,70.2915 8.678,81.139 13.0169,90.6847 21.261,97.6271 31.2407,102.8339 45.1254,106.739 58.1424,109.3424 82.8746,109.3424 95.8915,105.0034 105.4373,98.9288 113.6814,88.5153 118.0203,74.6305 119.322,57.2746 118.8881,42.9559 116.2847,29.939 111.9458,23.4305 86.3458,11.2814 81.139,9.1119 72.0271,8.678" stroke="#00007f" stroke-width="2" /><polyline fill="none" points="41.6542,26.0339 45.5593,29.0712 50.7661,42.0881 52.5017,51.6339 52.9356,75.0644 52.5017,78.9695 39.4847,97.1932 32.9763,110.6441" stroke="#004cff" stroke-width="2" /><polyline fill="none" points="97.6271,20.3932 94.5898,23.4305 94.1559,29.939 91.1186,41.2203 82.0068,62.4814 79.8373,72.8949 80.7051,77.6678 103.7017,98.4949" stroke="#29ffcd" stroke-width="2" /><polyline fill="none" points="82.8746,45.1254 108.0407,45.9932" stroke="#cdff29" stroke-width="2" /><polyline fill="none" points="77.2339,66.3864 88.0814,68.5559 105.4373,68.5559" stroke="#ff6700" stroke-width="2" /><polyline fill="none" points="29.939,58.5763 82.8746,58.1424" stroke="#7f0000" stroke-width="2" /></svg>