<?xml version="1.0" encoding="utf-8" ?>
<svg baseProfile="tiny" height="128" version="1.2" viewBox="0,0,128,128" width="128" xmlns="http://www.w3.org/2000/svg" xmlns:ev="http://www.w3.org/2001/xml-events" xmlns:xlink="http://www.w3.org/1999/xlink"><defs /><polyline fill="none" points="49.8983,8.678 34.7119,10.8475 30.8068,16.0542 25.6,26.4678 18.2237,33.8441 13.8847,41.2203 8.678,45.5593 8.678,79.4034 11.7153,84.6102 19.0915,89.8169 23.4305,96.3254 32.5424,101.0983 40.3525,104.5695 61.6136,105.4373 66.8203,105.4373 72.8949,102.4 74.1966,96.3254 81.139,95.0237 90.6847,90.6847 107.6068,74.1966 119.322,55.1051 119.322,35.1458 100.2305,33.8441 94.1559,31.6746 83.3085,23.4305 72.0271,17.3559 61.1797,14.7525 48.5966,9.5458 32.9763,9.5458 30.8068,8.678" stroke="#00007f" stroke-width="2" /><polyline fill="none" points="22.5627,90.6847 24.7322,67.6881 34.7119,39.4847 35.1458,30.8068 36.8814,25.6 38.1831,14.7525 38.1831,9.9797 26.4678,13.8847" stroke="#7cff79" stroke-width="2" /><polyline fill="none" points="83.3085,27.7695 79.4034,43.3898 80.2712,64.2169 88.9492,75.0644 90.6847,81.5729 99.3627,88.9492" stroke="#7f0000" stroke-width="2" /></svg>