<?xml version="1.0" encoding="utf-8" ?>
<svg baseProfile="tiny" height="128" version="1.2" viewBox="0,0,128,128" width="128" xmlns="http://www.w3.org/2000/svg" xmlns:ev="http://www.w3.org/2001/xml-events" xmlns:xlink="http://www.w3.org/1999/xlink"><defs /><polyline fill="none" points="42.522,8.678 32.1085,12.1492 26.0339,16.0542 13.8847,29.939 11.7153,34.7119 8.678,50.3322 8.678,69.8576 16.0542,84.1763 23.8644,92.4203 31.6746,96.3254 43.3898,100.2305 55.9729,99.7966 68.5559,96.7593 82.0068,88.0814 89.3831,80.2712 93.2881,72.461 95.4576,63.3492 93.2881,51.6339 85.0441,36.8814 74.1966,23.8644 65.5186,16.0542 55.1051,10.4136 49.0305,9.1119 42.9559,9.9797" stroke="#00007f" stroke-width="2" /><polyline fill="none" points="43.8237,9.5458 42.522,22.5627 42.522,93.722 41.2203,108.0407 42.0881,117.5864" stroke="#004cff" stroke-width="2" /><polyline fill="none" points="59.4441,8.678 57.7085,33.8441 51.6339,71.5932 52.5017,98.061 55.1051,108.0407" stroke="#29ffcd" stroke-width="2" /><polyline fill="none" points="70.2915,26.0339 68.9898,34.278 68.122,107.1729" stroke="#cdff29" stroke-width="2" /><polyline fill="none" points="13.4508,29.939 21.6949,40.7864 36.8814,53.8034 47.2949,58.5763 55.1051,60.3119 68.122,60.3119 81.5729,57.7085 93.722,51.6339 98.9288,47.7288" stroke="#ff6700" stroke-width="2" /><polyline fill="none" points="18.2237,51.6339 23.4305,64.2169 32.5424,74.6305 40.7864,78.9695 57.7085,82.0068 80.2712,78.9695 91.1186,75.9322 104.5695,70.2915 119.322,59.878" stroke="#7f0000" stroke-width="2" /></svg>