<?xml version="1.0" encoding="utf-8" ?>
<svg baseProfile="tiny" height="128" version="1.2" viewBox="0,0,128,128" width="128" xmlns="http://www.w3.org/2000/svg" xmlns:ev="http://www.w3.org/2001/xml-events" xmlns:xlink="http://www.w3.org/1999/xlink"><defs /><polyline fill="none" points="119.2925,20.0272 99.7007,19.1565 59.2109,9.5782 37.4422,8.7075 31.3469,10.449 18.7211,16.9796 11.3197,25.2517 8.7075,38.7483 8.7075,53.9864 21.7687,103.1837 28.7347,112.3265 34.8299,115.8095 40.0544,116.2449 62.2585,111.8912 84.898,99.7007 110.585,68.7891 114.9388,57.4694 115.3741,50.068 113.1973,33.0884 109.7143,22.6395" stroke="#00007f" stroke-width="2" /><polyline fill="none" points="38.7483,10.449 47.4558,31.7823 47.4558,53.1156 46.585,63.1293 43.102,74.0136 33.9592,88.381 31.3469,90.5578" stroke="#7cff79" stroke-width="2" /><polyline fill="none" points="85.7687,13.932 79.2381,25.6871 77.0612,33.0884 75.3197,44.4082 76.1905,58.7755 77.4966,62.2585 87.9456,73.5782 93.6054,75.7551" stroke="#7f0000" stroke-width="2" /></svg>