<?xml version="1.0" encoding="utf-8" ?>
<svg baseProfile="tiny" height="128" version="1.2" viewBox="0,0,128,128" width="128" xmlns="http://www.w3.org/2000/svg" xmlns:ev="http://www.w3.org/2001/xml-events" xmlns:xlink="http://www.w3.org/1999/xlink"><defs /><polyline fill="none" points="70.7254,82.8746 66.3864,85.9119 61.6136,86.3458 56.4068,88.9492 46.4271,89.3831 28.6373,87.2136 22.1288,83.3085 19.5254,79.8373 11.7153,62.4814 8.678,44.6915 12.1492,34.7119 16.0542,29.939 29.939,17.7898 39.9186,12.1492 44.6915,10.4136 54.2373,9.5458 75.0644,9.9797 93.722,15.1864 102.4,19.0915 116.7186,29.0712 119.322,36.4475 118.4542,44.2576 111.078,61.6136 105.0034,71.5932 95.4576,79.8373 87.2136,83.3085 76.3661,85.0441 47.2949,86.3458" stroke="#00007f" stroke-width="2" /><polyline fill="none" points="52.0678,8.678 44.2576,16.4881 52.0678,34.7119 56.8407,50.3322 58.1424,57.2746 57.2746,70.7254 54.6712,76.8 48.1627,84.1763 37.3153,89.8169" stroke="#7cff79" stroke-width="2" /><polyline fill="none" points="88.9492,11.7153 82.0068,20.3932 76.8,35.1458 73.3288,68.5559 75.4983,75.9322 88.0814,85.0441 102.4,92.8542" stroke="#7f0000" stroke-width="2" /></svg>