<?xml version="1.0" encoding="utf-8" ?>
<svg baseProfile="tiny" height="128" version="1.2" viewBox="0,0,128,128" width="128" xmlns="http://www.w3.org/2000/svg" xmlns:ev="http://www.w3.org/2001/xml-events" xmlns:xlink="http://www.w3.org/1999/xlink"><defs /><polyline fill="none" points="76.3661,11.2814 70.2915,9.1119 58.1424,9.5458 42.522,17.3559 29.939,26.9017 22.5627,34.7119 14.3186,49.0305 8.678,62.4814 8.678,69.8576 11.2814,75.4983 20.3932,84.6102 52.0678,102.8339 73.7627,111.9458 85.0441,112.8136 88.5153,111.5119 98.4949,101.9661 106.3051,92.8542 112.3797,82.8746 118.0203,64.2169 119.322,53.8034 118.8881,42.0881 113.6814,32.9763 105.4373,26.4678 93.2881,22.9966 55.1051,16.922 48.1627,13.0169" stroke="#00007f" stroke-width="2" /><polyline fill="none" points="19.5254,38.6169 19.9593,40.7864 48.1627,76.3661 58.1424,90.2508 65.0847,102.4 67.2542,108.4746" stroke="#0080ff" stroke-width="2" /><polyline fill="none" points="87.6475,31.6746 74.6305,33.4102 65.5186,36.4475 55.539,40.3525 42.0881,48.5966 27.3356,60.7458 12.5831,85.0441 10.4136,87.6475 9.9797,85.9119" stroke="#7cff79" stroke-width="2" /><polyline fill="none" points="39.4847,8.678 45.5593,55.9729 45.5593,81.139 39.9186,97.6271" stroke="#ff9400" stroke-width="2" /><polyline fill="none" points="12.1492,55.1051 39.0508,62.9153" stroke="#7f0000" stroke-width="2" /></svg>