<?xml version="1.0" encoding="utf-8" ?>
<svg baseProfile="tiny" height="128" version="1.2" viewBox="0,0,128,128" width="128" xmlns="http://www.w3.org/2000/svg" xmlns:ev="http://www.w3.org/2001/xml-events" xmlns:xlink="http://www.w3.org/1999/xlink"><defs /><polyline fill="none" points="99.2653,92.7347 94.0408,96.2177 88.8163,104.4898 89.6871,108.4082 96.6531,108.8435 111.4558,101.8776 115.3741,97.5238 119.2925,87.5102 115.8095,86.2041 110.585,87.0748 103.619,37.4422 96.6531,16.9796 92.2993,9.5782 87.5102,8.7075 82.7211,10.0136 74.8844,16.9796 71.8367,22.6395 72.2721,34.8299 87.5102,75.7551 106.6667,98.3946" stroke="#00007f" stroke-width="2" /><polyline fill="none" points="74.8844,37.8776 93.6054,27.8639 102.3129,25.6871" stroke="#00d4ff" stroke-width="2" /><polyline fill="none" points="80.9796,50.5034 92.7347,46.1497 104.9252,38.7483" stroke="#ffe500" stroke-width="2" /><polyline fill="none" points="26.1224,55.7279 20.4626,56.5986 14.3673,60.0816 8.7075,68.7891 8.7075,80.9796 15.6735,90.9932 21.3333,95.3469 29.1701,98.3946 43.5374,100.1361 51.8095,97.5238 61.8231,88.381 64.4354,81.8503 67.0476,61.3878 67.0476,57.4694 64.8707,53.9864 55.2925,50.5034 41.7959,50.9388 30.9116,54.8571 21.3333,62.6939" stroke="#7f0000" stroke-width="2" /></svg>