<?xml version="1.0" encoding="utf-8" ?>
<svg baseProfile="tiny" height="128" version="1.2" viewBox="0,0,128,128" width="128" xmlns="http://www.w3.org/2000/svg" xmlns:ev="http://www.w3.org/2001/xml-events" xmlns:xlink="http://www.w3.org/1999/xlink"><defs /><polyline fill="none" points="87.6475,8.678 57.7085,10.4136 32.1085,24.2983 19.0915,36.8814 9.5458,52.0678 8.678,67.6881 9.9797,77.2339 17.3559,91.5525 22.5627,99.3627 34.7119,111.5119 49.8983,118.8881 59.4441,119.322 78.1017,114.5492 86.7797,110.6441 99.7966,101.5322 107.1729,91.5525 109.3424,84.6102 110.6441,61.1797 107.1729,39.4847 101.9661,28.6373 96.3254,22.1288" stroke="#00007f" stroke-width="2" /><polyline fill="none" points="32.9763,35.5797 36.0136,60.7458 35.1458,78.5356 22.9966,105.4373 19.9593,108.0407" stroke="#0080ff" stroke-width="2" /><polyline fill="none" points="80.7051,30.8068 77.6678,31.6746 74.6305,35.5797 69.8576,44.6915 66.8203,58.1424 66.3864,71.1593 71.1593,88.5153 76.3661,98.061 80.2712,101.5322 85.9119,101.9661" stroke="#7cff79" stroke-width="2" /><polyline fill="none" points="100.2305,25.1661 96.3254,26.4678 86.3458,32.9763 80.2712,38.6169 78.9695,42.522 77.2339,60.7458 78.5356,89.3831 80.7051,98.9288 85.0441,101.9661" stroke="#ff9400" stroke-width="2" /><polyline fill="none" points="37.3153,22.5627 41.2203,38.1831 39.4847,80.7051 35.5797,95.0237 28.2034,106.3051" stroke="#7f0000" stroke-width="2" /></svg>