<?xml version="1.0" encoding="utf-8" ?>
<svg baseProfile="tiny" height="128" version="1.2" viewBox="0,0,128,128" width="128" xmlns="http://www.w3.org/2000/svg" xmlns:ev="http://www.w3.org/2001/xml-events" xmlns:xlink="http://www.w3.org/1999/xlink"><defs /><polyline fill="none" points="24.8163,72.2721 19.5918,72.7075 13.932,76.6259 8.7075,86.6395 9.1429,93.6054 13.932,98.8299 23.5102,100.1361 34.8299,97.9592 39.619,93.1701 40.0544,84.898 37.4422,78.8027 31.7823,72.2721 23.0748,67.9184" stroke="#00007f" stroke-width="2" /><polyline fill="none" points="39.619,44.8435 49.6327,35.2653" stroke="#0028ff" stroke-width="2" /><polyline fill="none" points="58.7755,61.3878 81.8503,39.1837 97.0884,28.2993 104.4898,25.2517" stroke="#00d4ff" stroke-width="2" /><polyline fill="none" points="59.6463,84.0272 94.4762,59.6463" stroke="#7cff79" stroke-width="2" /><polyline fill="none" points="73.1429,53.1156 70.5306,52.2449 67.0476,56.5986 51.8095,66.6122 60.517,71.4014 63.1293,77.0612 62.6939,80.9796" stroke="#ffe500" stroke-width="2" /><polyline fill="none" points="55.7279,87.5102 50.9388,87.0748 47.4558,79.6735 48.7619,65.7415 52.2449,60.0816" stroke="#ff4600" stroke-width="2" /><polyline fill="none" points="57.034,66.6122 111.0204,12.6259 118.8571,8.7075 119.2925,11.7551 113.6327,23.5102 107.102,43.102 98.8299,54.4218 91.4286,61.8231" stroke="#7f0000" stroke-width="2" /></svg>