<?xml version="1.0" encoding="utf-8" ?>
<svg baseProfile="tiny" height="128" version="1.2" viewBox="0,0,128,128" width="128" xmlns="http://www.w3.org/2000/svg" xmlns:ev="http://www.w3.org/2001/xml-events" xmlns:xlink="http://www.w3.org/1999/xlink"><defs /><polyline fill="none" points="20.8271,30.3729 26.4678,21.6949 34.7119,13.8847 39.9186,11.2814 52.5017,8.678 67.6881,8.678 75.4983,10.8475 83.3085,13.4508 95.8915,22.5627 99.7966,28.2034 104.1356,42.9559 106.739,59.4441 106.739,76.8 104.1356,85.0441 96.3254,98.9288 90.6847,105.4373 83.3085,110.2102 65.5186,114.9831 46.861,114.9831 39.0508,113.2475 24.7322,106.3051 14.7525,96.7593 11.7153,91.5525 9.5458,85.478 8.678,73.3288 9.1119,65.5186 11.7153,51.6339 19.9593,34.278 25.1661,27.7695 29.939,24.7322" stroke="#00007f" stroke-width="2" /><polyline fill="none" points="13.8847,45.5593 24.7322,45.5593 33.8441,49.0305 43.8237,56.8407 49.8983,63.7831 55.9729,72.0271 64.6508,91.1186 67.2542,99.3627 68.9898,114.5492" stroke="#0000ff" stroke-width="2" /><polyline fill="none" points="68.9898,11.2814 66.3864,12.1492 65.9525,22.5627 72.8949,39.0508 81.139,50.3322 85.478,55.9729 98.9288,66.3864 108.9085,71.1593 119.322,72.8949" stroke="#0080ff" stroke-width="2" /><polyline fill="none" points="75.4983,22.1288 72.0271,25.6 68.122,33.4102 65.9525,43.3898" stroke="#15ffe1" stroke-width="2" /><polyline fill="none" points="85.9119,42.9559 74.1966,55.9729" stroke="#7cff79" stroke-width="2" /><polyline fill="none" points="90.2508,53.3695 83.7424,68.5559" stroke="#e4ff12" stroke-width="2" /><polyline fill="none" points="32.5424,42.0881 27.3356,51.2 25.1661,61.6136" stroke="#ff9400" stroke-width="2" /><polyline fill="none" points="49.0305,62.4814 38.6169,77.6678" stroke="#ff1d00" stroke-width="2" /><polyline fill="none" points="67.2542,77.2339 56.4068,88.9492" stroke="#7f0000" stroke-width="2" /></svg>