<?xml version="1.0" encoding="utf-8" ?>
<svg baseProfile="tiny" height="128" version="1.2" viewBox="0,0,128,128" width="128" xmlns="http://www.w3.org/2000/svg" xmlns:ev="http://www.w3.org/2001/xml-events" xmlns:xlink="http://www.w3.org/1999/xlink"><defs /><polyline fill="none" points="54.6712,17.3559 52.5017,16.0542 42.522,16.4881 34.278,19.9593 15.1864,34.278 10.8475,44.2576 11.2814,63.7831 13.4508,71.1593 25.1661,88.5153 37.7492,94.5898 55.9729,98.061 91.1186,98.061 94.5898,97.6271 119.322,59.0102 118.0203,44.6915 109.7763,26.9017 105.4373,21.261 95.8915,13.8847 82.4407,10.8475 54.2373,10.4136 44.2576,13.0169 35.5797,17.7898" stroke="#00007f" stroke-width="2" /><polyline fill="none" points="40.3525,14.3186 39.0508,21.261 39.9186,28.6373 44.6915,32.5424 64.2169,42.0881 82.0068,72.461 96.3254,86.3458 100.2305,93.722" stroke="#00d4ff" stroke-width="2" /><polyline fill="none" points="81.5729,8.678 68.122,15.1864 63.3492,22.1288 62.4814,35.5797 65.9525,54.2373 65.9525,70.7254 64.2169,75.9322 52.9356,93.2881 40.7864,85.478" stroke="#ffe500" stroke-width="2" /><polyline fill="none" points="8.678,61.1797 32.5424,62.0475" stroke="#7f0000" stroke-width="2" /></svg>