<?xml version="1.0" encoding="utf-8" ?>
<svg baseProfile="tiny" height="128" version="1.2" viewBox="0,0,128,128" width="128" xmlns="http://www.w3.org/2000/svg" xmlns:ev="http://www.w3.org/2001/xml-events" xmlns:xlink="http://www.w3.org/1999/xlink"><defs /><polyline fill="none" points="48.3265,11.3197 51.3741,9.5782 61.3878,8.7075 85.3333,9.1429 96.6531,15.2381 101.0068,19.5918 109.7143,32.6531 118.4218,57.034 119.2925,73.5782 118.4218,79.2381 115.3741,84.4626 97.9592,97.9592 90.5578,101.4422 73.5782,105.3605 37.0068,106.6667 30.0408,104.9252 16.9796,97.5238 10.449,86.2041 8.7075,80.1088 8.7075,60.517 11.3197,52.6803 18.2857,38.7483 26.5578,26.9932 42.2313,13.0612 50.068,9.1429" stroke="#00007f" stroke-width="2" /><polyline fill="none" points="87.0748,13.932 83.1565,21.3333 79.2381,36.5714 77.4966,67.0476 78.8027,74.8844 83.1565,89.6871 90.9932,104.4898 94.0408,107.102" stroke="#004cff" stroke-width="2" /><polyline fill="none" points="28.2993,11.7551 30.9116,20.898 41.3605,39.619 43.5374,50.9388 44.8435,85.7687 40.9252,101.8776" stroke="#29ffcd" stroke-width="2" /><polyline fill="none" points="102.7483,26.1224 87.0748,28.7347 60.9524,28.7347" stroke="#cdff29" stroke-width="2" /><polyline fill="none" points="94.0408,50.5034 70.0952,52.6803" stroke="#ff6700" stroke-width="2" /><polyline fill="none" points="104.4898,80.1088 86.2041,84.898 71.8367,86.2041" stroke="#7f0000" stroke-width="2" /></svg>