<?xml version="1.0" encoding="utf-8" ?>
<svg baseProfile="tiny" height="128" version="1.2" viewBox="0,0,128,128" width="128" xmlns="http://www.w3.org/2000/svg" xmlns:ev="http://www.w3.org/2001/xml-events" xmlns:xlink="http://www.w3.org/1999/xlink"><defs /><polyline fill="none" points="49.4644,16.922 61.1797,11.7153 71.5932,9.1119 78.5356,8.678 86.7797,9.9797 96.7593,15.1864 105.0034,22.9966 111.078,40.3525 110.2102,55.1051 104.1356,69.8576 99.3627,77.2339 87.2136,87.2136 77.2339,93.2881 66.3864,98.061 55.539,99.7966 42.0881,98.4949 32.9763,95.4576 26.0339,91.1186 19.9593,85.0441 16.922,76.8 15.6203,70.2915 17.3559,55.1051 21.261,41.2203 26.4678,32.5424 35.5797,23.8644 51.2,15.1864 72.461,10.4136 78.1017,10.8475 85.478,13.8847" stroke="#00007f" stroke-width="2" /><polyline fill="none" points="57.2746,16.4881 48.5966,48.5966 37.7492,72.461 28.6373,87.2136 22.1288,94.1559 14.3186,98.9288 8.678,99.3627" stroke="#004cff" stroke-width="2" /><polyline fill="none" points="77.2339,13.8847 78.1017,38.6169 84.1763,60.3119 89.8169,71.1593 98.4949,75.9322 109.3424,78.1017 119.322,74.6305" stroke="#29ffcd" stroke-width="2" /><polyline fill="none" points="92.8542,35.1458 75.0644,34.7119" stroke="#cdff29" stroke-width="2" /><polyline fill="none" points="92.8542,47.7288 87.2136,50.3322 80.2712,49.4644" stroke="#ff6700" stroke-width="2" /><polyline fill="none" points="98.061,69.4237 97.6271,75.0644 92.8542,76.8" stroke="#7f0000" stroke-width="2" /></svg>