<?xml version="1.0" encoding="utf-8" ?>
<svg baseProfile="tiny" height="128" version="1.2" viewBox="0,0,128,128" width="128" xmlns="http://www.w3.org/2000/svg" xmlns:ev="http://www.w3.org/2001/xml-events" xmlns:xlink="http://www.w3.org/1999/xlink"><defs /><polyline fill="none" points="53.3695,15.1864 46.861,15.1864 43.8237,16.4881 40.3525,26.4678 40.7864,38.6169 42.9559,41.2203 51.2,41.2203 54.6712,36.4475 56.8407,25.6 57.2746,9.9797 53.3695,8.678 51.6339,10.8475" stroke="#00007f" stroke-width="2" /><polyline fill="none" points="44.6915,43.8237 42.522,76.8 36.8814,75.9322 28.6373,82.0068 18.6576,91.5525 8.678,104.1356" stroke="#0080ff" stroke-width="2" /><polyline fill="none" points="42.0881,77.6678 42.0881,88.5153 46.4271,119.322" stroke="#7cff79" stroke-width="2" /><polyline fill="none" points="45.1254,55.1051 51.6339,57.7085 66.3864,57.2746 70.7254,55.539 74.1966,51.6339 75.0644,47.7288 72.8949,46.4271 60.3119,46.861 45.1254,51.2 40.7864,53.8034" stroke="#ff9400" stroke-width="2" /><polyline fill="none" points="73.3288,59.878 68.122,49.4644 67.2542,44.6915 68.122,33.8441 70.7254,28.2034 72.8949,27.3356 76.3661,31.6746 78.9695,39.0508 79.4034,62.4814 86.7797,64.6508 87.2136,69.8576 84.6102,71.5932 74.1966,72.8949 68.9898,72.8949 68.122,70.7254 68.5559,68.122 72.8949,62.9153 79.8373,62.0475" stroke="#7f0000" stroke-width="2" /></svg>