<?xml version="1.0" encoding="utf-8" ?>
<svg baseProfile="tiny" height="128" version="1.2" viewBox="0,0,128,128" width="128" xmlns="http://www.w3.org/2000/svg" xmlns:ev="http://www.w3.org/2001/xml-events" xmlns:xlink="http://www.w3.org/1999/xlink"><defs /><polyline fill="none" points="47.2949,18.6576 40.3525,17.7898 34.278,22.1288 26.4678,33.4102 19.5254,49.0305 13.8847,68.5559 12.5831,81.139 15.1864,89.3831 25.6,100.6644 34.7119,106.739 41.6542,108.0407 60.3119,107.6068 78.1017,104.5695 89.8169,98.9288 98.4949,93.2881 107.6068,83.3085 115.8508,71.5932 119.322,57.2746 118.0203,39.9186 114.9831,29.939 109.7763,21.261 102.4,15.1864 93.2881,9.9797 78.1017,8.678 56.4068,16.0542 29.0712,32.5424 19.5254,43.8237 10.4136,66.8203 8.678,76.8 9.9797,91.1186" stroke="#00007f" stroke-width="2" /><polyline fill="none" points="47.2949,30.8068 40.3525,36.0136 42.0881,44.6915 48.1627,57.7085 54.6712,61.1797 68.9898,61.1797 75.4983,63.3492 76.8,78.1017 74.6305,91.1186" stroke="#7cff79" stroke-width="2" /><polyline fill="none" points="73.7627,10.4136 81.139,12.1492 87.2136,16.922 98.061,29.5051 100.2305,36.8814 100.2305,57.7085 97.1932,85.0441" stroke="#7f0000" stroke-width="2" /></svg>