<?xml version="1.0" encoding="utf-8" ?>
<svg baseProfile="tiny" height="128" version="1.2" viewBox="0,0,128,128" width="128" xmlns="http://www.w3.org/2000/svg" xmlns:ev="http://www.w3.org/2001/xml-events" xmlns:xlink="http://www.w3.org/1999/xlink"><defs /><polyline fill="none" points="41.2203,8.678 29.0712,14.7525 23.4305,19.9593 14.7525,32.1085 9.9797,42.9559 8.678,59.0102 10.8475,66.3864 19.0915,80.7051 22.9966,84.1763 32.9763,91.5525 48.5966,99.7966 64.2169,102.8339 72.8949,98.9288 86.7797,96.7593 98.061,91.9864 103.7017,85.9119 117.5864,63.7831 119.322,56.8407 118.4542,42.9559 106.739,26.0339 101.5322,21.261 89.3831,14.3186 68.122,8.678 60.7458,9.1119 46.861,14.3186" stroke="#00007f" stroke-width="2" /><polyline fill="none" points="52.9356,15.1864 52.9356,15.1864" stroke="#004cff" stroke-width="2" /><polyline fill="none" points="43.3898,13.4508 48.5966,20.3932 51.6339,28.6373 53.8034,43.3898 52.0678,62.9153 49.4644,73.7627 46.4271,77.6678" stroke="#29ffcd" stroke-width="2" /><polyline fill="none" points="49.4644,70.7254 39.4847,82.4407 36.0136,82.4407" stroke="#cdff29" stroke-width="2" /><polyline fill="none" points="84.6102,12.1492 82.4407,25.6 84.1763,49.4644 88.0814,61.1797 92.4203,66.8203 94.1559,67.2542" stroke="#ff6700" stroke-width="2" /><polyline fill="none" points="97.1932,70.2915 97.1932,70.2915" stroke="#7f0000" stroke-width="2" /></svg>