<?xml version="1.0" encoding="utf-8" ?>
<svg baseProfile="tiny" height="128" version="1.2" viewBox="0,0,128,128" width="128" xmlns="http://www.w3.org/2000/svg" xmlns:ev="http://www.w3.org/2001/xml-events" xmlns:xlink="http://www.w3.org/1999/xlink"><defs /><polyline fill="none" points="75.0644,10.4136 75.0644,8.678 68.122,9.5458 58.5763,12.5831 45.9932,19.5254 24.7322,35.5797 12.1492,51.2 9.5458,57.2746 8.678,63.3492 13.4508,76.8 20.8271,85.9119 29.939,92.4203 38.6169,95.8915 56.4068,99.7966 65.9525,99.3627 76.8,96.7593 87.2136,91.9864 96.3254,86.3458 109.7763,71.5932 114.5492,62.9153 119.322,45.9932 118.0203,32.1085 113.6814,26.4678 107.1729,22.1288 76.8,12.1492" stroke="#00007f" stroke-width="2" /><polyline fill="none" points="14.7525,40.7864 20.3932,40.7864 27.7695,42.9559 33.8441,46.861 40.3525,54.6712 47.2949,71.1593 47.7288,90.2508" stroke="#00d4ff" stroke-width="2" /><polyline fill="none" points="106.739,14.3186 92.4203,22.9966 82.8746,31.6746 78.5356,38.1831 76.3661,45.5593 78.1017,57.2746 83.3085,68.9898 92.8542,82.0068 98.9288,86.3458" stroke="#ffe500" stroke-width="2" /><polyline fill="none" points="42.522,78.1017 44.2576,81.5729 45.5593,90.6847 43.3898,98.061" stroke="#7f0000" stroke-width="2" /></svg>