<?xml version="1.0" encoding="utf-8" ?>
<svg baseProfile="tiny" height="128" version="1.2" viewBox="0,0,128,128" width="128" xmlns="http://www.w3.org/2000/svg" xmlns:ev="http://www.w3.org/2001/xml-events" xmlns:xlink="http://www.w3.org/1999/xlink"><defs /><polyline fill="none" points="11.2814,52.5017 9.1119,47.2949 8.678,42.0881 13.4508,33.4102 26.0339,22.9966 37.3153,18.6576 45.1254,18.2237 60.7458,21.6949 74.6305,31.2407 78.1017,37.3153 78.9695,44.2576 78.1017,49.4644 73.7627,56.4068 65.5186,62.9153 59.4441,65.9525 45.9932,68.9898 34.278,69.4237 24.7322,67.2542 17.3559,62.9153 14.3186,58.5763 12.1492,51.6339" stroke="#00007f" stroke-width="2" /><polyline fill="none" points="27.3356,24.7322 31.2407,62.0475" stroke="#0080ff" stroke-width="2" /><polyline fill="none" points="48.5966,16.0542 55.539,38.6169 59.4441,68.5559 60.7458,69.4237 61.6136,68.5559" stroke="#7cff79" stroke-width="2" /><polyline fill="none" points="82.0068,8.678 85.0441,31.6746 85.9119,28.2034 90.2508,22.1288 94.1559,22.5627 97.1932,26.9017 95.4576,31.2407 91.5525,33.4102 89.3831,32.9763 87.2136,27.7695" stroke="#ff9400" stroke-width="2" /><polyline fill="none" points="119.322,23.8644 117.1525,20.8271 113.2475,19.0915 110.2102,20.3932 108.4746,23.8644 109.7763,26.0339 114.5492,22.1288 118.0203,28.2034" stroke="#7f0000" stroke-width="2" /></svg>