<?xml version="1.0" encoding="utf-8" ?>
<svg baseProfile="tiny" height="128" version="1.2" viewBox="0,0,128,128" width="128" xmlns="http://www.w3.org/2000/svg" xmlns:ev="http://www.w3.org/2001/xml-events" xmlns:xlink="http://www.w3.org/1999/xlink"><defs /><polyline fill="none" points="33.8441,8.678 20.3932,20.8271 13.8847,30.3729 8.678,54.2373 8.678,81.139 20.8271,102.8339 28.6373,111.5119 46.861,118.4542 59.4441,119.322 70.7254,119.322 81.5729,115.8508 98.4949,109.7763 105.0034,106.3051 109.3424,101.9661 112.3797,83.7424 112.3797,61.6136 99.3627,34.278 89.8169,24.2983 75.0644,16.4881 54.6712,9.5458 29.5051,8.678" stroke="#00007f" stroke-width="2" /><polyline fill="none" points="33.8441,15.6203 34.7119,25.1661 39.9186,38.1831 42.522,51.6339 42.522,86.3458 39.0508,95.0237 32.5424,103.2678 30.3729,103.7017" stroke="#7cff79" stroke-width="2" /><polyline fill="none" points="73.3288,20.8271 70.7254,26.4678 70.7254,65.5186 74.1966,74.1966 84.6102,87.2136 92.8542,92.4203 97.6271,93.2881" stroke="#7f0000" stroke-width="2" /></svg>