<?xml version="1.0" encoding="utf-8" ?>
<svg baseProfile="tiny" height="128" version="1.2" viewBox="0,0,128,128" width="128" xmlns="http://www.w3.org/2000/svg" xmlns:ev="http://www.w3.org/2001/xml-events" xmlns:xlink="http://www.w3.org/1999/xlink"><defs /><polyline fill="none" points="90.5578,11.3197 64.4354,9.5782 53.551,13.4966 42.6667,21.3333 24.381,37.4422 17.8503,45.2789 13.0612,53.551 10.8844,63.1293 8.7075,87.9456 10.0136,96.2177 13.0612,103.619 18.2857,111.0204 29.6054,117.551 38.3129,119.2925 64.4354,118.8571 90.9932,103.619 101.8776,93.6054 109.2789,74.8844 110.585,48.7619 108.4082,41.7959 99.2653,23.5102 90.5578,14.8027 87.5102,8.7075" stroke="#00007f" stroke-width="2" /><polyline fill="none" points="18.7211,37.0068 38.3129,39.1837 109.2789,40.0544" stroke="#0000e8" stroke-width="2" /><polyline fill="none" points="41.7959,26.9932 40.9252,45.7143 43.9728,43.5374" stroke="#0038ff" stroke-width="2" /><polyline fill="none" points="57.9048,23.5102 59.6463,36.1361 61.8231,37.4422" stroke="#0094ff" stroke-width="2" /><polyline fill="none" points="73.1429,31.7823 77.932,53.1156 79.2381,50.9388" stroke="#0cf4ea" stroke-width="2" /><polyline fill="none" points="85.3333,28.7347 86.6395,47.4558 89.2517,59.2109" stroke="#56ffa0" stroke-width="2" /><polyline fill="none" points="11.7551,87.5102 30.9116,90.9932 61.8231,92.7347 70.0952,92.7347 88.381,87.9456 114.068,90.1224" stroke="#a0ff56" stroke-width="2" /><polyline fill="none" points="97.0884,31.3469 99.2653,44.4082" stroke="#eaff0c" stroke-width="2" /><polyline fill="none" points="59.6463,31.3469 59.2109,47.0204" stroke="#ffaa00" stroke-width="2" /><polyline fill="none" points="30.0408,83.5918 29.6054,102.7483" stroke="#ff5500" stroke-width="2" /><polyline fill="none" points="46.1497,77.932 46.585,97.0884" stroke="#e80000" stroke-width="2" /><polyline fill="none" points="68.7891,81.8503 68.7891,90.9932" stroke="#7f0000" stroke-width="2" /></svg>