<?xml version="1.0" encoding="utf-8" ?>
<svg baseProfile="tiny" height="128" version="1.2" viewBox="0,0,128,128" width="128" xmlns="http://www.w3.org/2000/svg" xmlns:ev="http://www.w3.org/2001/xml-events" xmlns:xlink="http://www.w3.org/1999/xlink"><defs /><polyline fill="none" points="91.5525,17.7898 91.1186,17.3559" stroke="#00007f" stroke-width="2" /><polyline fill="none" points="90.6847,16.922 65.9525,10.4136 50.3322,8.678 44.2576,8.678 34.278,13.8847 25.1661,22.5627 16.4881,33.8441 9.9797,50.3322 8.678,68.5559 13.8847,77.2339 19.0915,81.139 29.5051,86.3458 42.9559,90.2508 74.1966,91.1186 92.8542,86.3458 99.7966,81.139 108.4746,68.122 116.7186,50.7661 119.322,39.4847 118.8881,31.2407 115.8508,24.2983 111.5119,16.922 104.1356,9.9797" stroke="#00d4ff" stroke-width="2" /><polyline fill="none" points="38.1831,12.5831 46.861,21.261 53.3695,35.5797 54.2373,43.8237 51.6339,64.2169 49.4644,71.1593 42.9559,82.4407" stroke="#ffe500" stroke-width="2" /><polyline fill="none" points="104.5695,19.9593 91.5525,26.4678 78.1017,38.1831 65.5186,55.9729 59.4441,68.122 58.5763,73.7627 59.4441,81.139 62.9153,86.3458 65.0847,87.2136" stroke="#7f0000" stroke-width="2" /></svg>