<?xml version="1.0" encoding="utf-8" ?>
<svg baseProfile="tiny" height="128" version="1.2" viewBox="0,0,128,128" width="128" xmlns="http://www.w3.org/2000/svg" xmlns:ev="http://www.w3.org/2001/xml-events" xmlns:xlink="http://www.w3.org/1999/xlink"><defs /><polyline fill="none" points="79.4034,19.0915 71.5932,17.7898 52.0678,18.6576 35.5797,26.9017 17.7898,41.2203 10.4136,51.2 8.678,59.4441 9.1119,71.1593 15.1864,80.7051 32.5424,95.8915 44.2576,102.4 53.3695,105.4373 72.8949,105.8712 82.4407,104.1356 102.4,95.0237 110.6441,86.3458 116.2847,77.6678 119.322,69.8576 119.322,57.2746 116.2847,50.7661 109.3424,39.9186 98.9288,27.7695 89.3831,19.9593 70.2915,8.678" stroke="#00007f" stroke-width="2" /><polyline fill="none" points="43.3898,21.6949 52.0678,36.0136 59.878,60.7458 60.3119,86.3458 53.8034,101.9661 51.6339,100.2305" stroke="#7cff79" stroke-width="2" /><polyline fill="none" points="90.2508,28.6373 83.7424,43.8237 80.2712,61.1797 79.8373,78.9695 84.6102,95.8915" stroke="#7f0000" stroke-width="2" /></svg>