<?xml version="1.0" encoding="utf-8" ?>
<svg baseProfile="tiny" height="128" version="1.2" viewBox="0,0,128,128" width="128" xmlns="http://www.w3.org/2000/svg" xmlns:ev="http://www.w3.org/2001/xml-events" xmlns:xlink="http://www.w3.org/1999/xlink"><defs /><polyline fill="none" points="38.6169,13.0169 34.278,13.0169 23.8644,20.8271 11.2814,43.8237 8.678,52.9356 8.678,77.6678 9.9797,84.1763 16.922,101.0983 19.9593,105.8712 28.6373,116.2847 33.8441,119.322 46.861,118.8881 62.9153,113.2475 70.2915,108.9085 81.5729,95.4576 85.478,88.0814 90.6847,72.0271 90.6847,50.7661 82.4407,27.7695 78.9695,21.6949 72.0271,16.4881 39.0508,9.1119 27.3356,8.678 19.9593,10.4136" stroke="#00007f" stroke-width="2" /><polyline fill="none" points="27.7695,23.4305 25.6,25.1661 21.261,32.9763" stroke="#0000c8" stroke-width="2" /><polyline fill="none" points="21.261,30.3729 32.5424,32.5424" stroke="#0000ff" stroke-width="2" /><polyline fill="none" points="35.1458,30.3729 34.278,35.1458" stroke="#0040ff" stroke-width="2" /><polyline fill="none" points="36.8814,33.4102 50.3322,34.278" stroke="#0080ff" stroke-width="2" /><polyline fill="none" points="51.2,30.8068 51.2,37.7492" stroke="#00c0ff" stroke-width="2" /><polyline fill="none" points="42.522,30.3729 42.0881,37.7492" stroke="#15ffe1" stroke-width="2" /><polyline fill="none" points="31.2407,27.7695 29.5051,31.6746" stroke="#49ffad" stroke-width="2" /><polyline fill="none" points="51.6339,33.4102 55.539,33.4102" stroke="#7cff79" stroke-width="2" /><polyline fill="none" points="56.8407,30.8068 56.4068,35.1458" stroke="#b0ff46" stroke-width="2" /><polyline fill="none" points="57.7085,33.4102 65.9525,30.3729" stroke="#e4ff12" stroke-width="2" /><polyline fill="none" points="65.0847,28.2034 68.122,32.1085" stroke="#ffcf00" stroke-width="2" /><polyline fill="none" points="68.122,28.2034 70.7254,26.4678" stroke="#ff9400" stroke-width="2" /><polyline fill="none" points="67.6881,22.5627 72.0271,26.9017" stroke="#ff5900" stroke-width="2" /><polyline fill="none" points="69.4237,23.8644 77.6678,19.5254" stroke="#ff1d00" stroke-width="2" /><polyline fill="none" points="60.7458,27.7695 62.4814,34.7119" stroke="#c30000" stroke-width="2" /><polyline fill="none" points="10.8475,81.139 41.2203,84.6102 75.4983,91.1186 81.139,92.8542 82.0068,94.5898" stroke="#7f0000" stroke-width="2" /></svg>