<?xml version="1.0" encoding="utf-8" ?>
<svg baseProfile="tiny" height="128" version="1.2" viewBox="0,0,128,128" width="128" xmlns="http://www.w3.org/2000/svg" xmlns:ev="http://www.w3.org/2001/xml-events" xmlns:xlink="http://www.w3.org/1999/xlink"><defs /><polyline fill="none" points="68.9898,10.8475 65.9525,8.678 49.0305,8.678 42.9559,10.4136 29.5051,18.2237 24.2983,22.1288 16.0542,32.5424 10.8475,42.9559 8.678,54.2373 8.678,82.0068 10.4136,88.0814 15.6203,98.9288 22.5627,107.1729 30.3729,113.6814 38.1831,117.1525 51.2,119.322 61.6136,118.4542 74.1966,108.4746 86.7797,96.7593 97.6271,82.8746 103.7017,68.9898 105.8712,60.3119 106.3051,42.522 104.1356,29.939 100.6644,21.6949 95.0237,16.0542 84.1763,10.8475 66.3864,10.8475" stroke="#00007f" stroke-width="2" /><polyline fill="none" points="24.7322,36.8814 30.3729,36.4475 36.0136,40.3525 39.4847,49.4644 41.6542,61.1797 40.7864,70.2915 33.4102,79.8373 28.2034,82.8746 12.1492,86.3458" stroke="#7cff79" stroke-width="2" /><polyline fill="none" points="108.9085,42.522 99.7966,43.8237 94.1559,47.2949 91.5525,50.3322 85.9119,61.6136 85.0441,67.2542 85.9119,81.5729 89.8169,85.478 92.4203,85.9119" stroke="#7f0000" stroke-width="2" /></svg>