<?xml version="1.0" encoding="utf-8" ?>
<svg baseProfile="tiny" height="128" version="1.2" viewBox="0,0,128,128" width="128" xmlns="http://www.w3.org/2000/svg" xmlns:ev="http://www.w3.org/2001/xml-events" xmlns:xlink="http://www.w3.org/1999/xlink"><defs /><polyline fill="none" points="30.8068,19.0915 49.4644,10.4136 59.878,8.678 65.0847,9.1119 73.7627,13.0169 84.6102,20.3932 93.722,29.0712 104.1356,43.3898 109.7763,59.878 111.5119,70.7254 111.5119,82.4407 107.1729,95.4576 101.9661,105.0034 97.1932,111.078 90.2508,116.7186 52.9356,119.322 45.1254,116.2847 38.1831,108.9085 17.7898,72.8949 10.4136,56.8407 8.678,48.5966 9.5458,34.278 20.8271,26.0339 30.3729,21.6949" stroke="#00007f" stroke-width="2" /><polyline fill="none" points="15.1864,43.8237 15.1864,43.8237" stroke="#0000ff" stroke-width="2" /><polyline fill="none" points="15.1864,43.8237 15.1864,43.8237" stroke="#0080ff" stroke-width="2" /><polyline fill="none" points="23.8644,47.7288 23.8644,47.7288" stroke="#15ffe1" stroke-width="2" /><polyline fill="none" points="23.8644,47.7288 26.9017,47.7288 31.2407,50.7661" stroke="#7cff79" stroke-width="2" /><polyline fill="none" points="32.9763,54.6712 45.9932,83.7424" stroke="#e4ff12" stroke-width="2" /><polyline fill="none" points="52.0678,95.0237 51.6339,100.6644" stroke="#ff9400" stroke-width="2" /><polyline fill="none" points="77.2339,24.7322 76.3661,65.0847 78.5356,72.0271 88.9492,80.7051 102.4,86.3458 113.2475,88.5153" stroke="#ff1d00" stroke-width="2" /><polyline fill="none" points="15.1864,42.522 23.4305,45.1254 29.0712,50.7661 48.1627,83.3085 51.2,95.4576 51.2,113.2475 49.8983,115.4169 47.7288,115.8508" stroke="#7f0000" stroke-width="2" /></svg>