<?xml version="1.0" encoding="utf-8" ?>
<svg baseProfile="tiny" height="128" version="1.2" viewBox="0,0,128,128" width="128" xmlns="http://www.w3.org/2000/svg" xmlns:ev="http://www.w3.org/2001/xml-events" xmlns:xlink="http://www.w3.org/1999/xlink"><defs /><polyline fill="none" points="98.061,35.5797 92.8542,32.5424 75.0644,16.0542 60.3119,9.5458 45.5593,8.678 39.4847,9.5458 30.8068,13.8847 27.7695,17.3559 13.0169,47.7288 9.5458,66.8203 8.678,89.3831 9.5458,96.7593 14.3186,107.6068 20.3932,113.6814 30.3729,118.0203 43.8237,119.322 61.1797,118.8881 82.8746,110.2102 91.1186,103.2678 105.8712,76.8 108.9085,56.4068 108.9085,41.6542 104.1356,38.6169 94.1559,34.7119" stroke="#00007f" stroke-width="2" /><polyline fill="none" points="73.7627,17.7898 72.461,24.2983 72.461,49.8983 76.3661,66.3864 76.3661,85.0441 72.461,115.8508" stroke="#7cff79" stroke-width="2" /><polyline fill="none" points="93.2881,32.9763 91.1186,55.9729 91.1186,102.4" stroke="#7f0000" stroke-width="2" /></svg>