<?xml version="1.0" encoding="utf-8" ?>
<svg baseProfile="tiny" height="128" version="1.2" viewBox="0,0,128,128" width="128" xmlns="http://www.w3.org/2000/svg" xmlns:ev="http://www.w3.org/2001/xml-events" xmlns:xlink="http://www.w3.org/1999/xlink"><defs /><polyline fill="none" points="36.4475,82.8746 11.2814,52.5017 8.678,37.3153 9.5458,33.8441 21.6949,20.3932 50.3322,8.678 54.6712,8.678 73.3288,21.6949 79.8373,34.7119 81.139,49.4644 78.5356,68.9898 78.5356,85.478 75.9322,91.5525 65.9525,93.722 58.1424,93.722 43.8237,90.2508 34.7119,84.6102 30.3729,75.9322" stroke="#00007f" stroke-width="2" /><polyline fill="none" points="30.3729,78.1017 26.4678,66.3864 23.4305,48.1627 28.2034,24.7322 32.5424,19.9593 34.7119,19.0915 35.1458,20.8271" stroke="#0000fe" stroke-width="2" /><polyline fill="none" points="25.1661,28.2034 35.5797,28.2034" stroke="#0060ff" stroke-width="2" /><polyline fill="none" points="17.3559,38.1831 27.7695,39.9186" stroke="#00d4ff" stroke-width="2" /><polyline fill="none" points="21.261,47.2949 29.5051,48.1627" stroke="#4cffaa" stroke-width="2" /><polyline fill="none" points="64.6508,95.4576 52.5017,53.8034 52.5017,28.2034 55.539,17.7898 60.3119,14.7525" stroke="#aaff4c" stroke-width="2" /><polyline fill="none" points="49.4644,24.7322 58.5763,24.7322 56.8407,23.4305" stroke="#ffe500" stroke-width="2" /><polyline fill="none" points="49.0305,38.6169 56.4068,38.6169" stroke="#ff7a00" stroke-width="2" /><polyline fill="none" points="51.2,60.3119 57.7085,60.7458" stroke="#fe1200" stroke-width="2" /><polyline fill="none" points="114.1153,97.6271 103.7017,82.8746 92.4203,52.9356 94.5898,49.8983 99.7966,52.0678 109.3424,68.9898 119.322,82.4407" stroke="#7f0000" stroke-width="2" /></svg>