<?xml version="1.0" encoding="utf-8" ?>
<svg baseProfile="tiny" height="128" version="1.2" viewBox="0,0,128,128" width="128" xmlns="http://www.w3.org/2000/svg" xmlns:ev="http://www.w3.org/2001/xml-events" xmlns:xlink="http://www.w3.org/1999/xlink"><defs /><polyline fill="none" points="114.5492,25.1661 117.1525,18.6576 117.1525,13.8847 111.9458,8.678 110.2102,9.1119 108.4746,13.0169 108.0407,64.2169 108.9085,67.2542 114.9831,67.6881 119.322,44.6915 118.4542,31.6746 115.8508,23.4305" stroke="#00007f" stroke-width="2" /><polyline fill="none" points="110.2102,67.2542 107.6068,66.8203 105.8712,68.9898 105.4373,75.4983 107.1729,76.3661 113.2475,75.9322 116.2847,73.7627 117.1525,68.9898 114.1153,68.122" stroke="#0010ff" stroke-width="2" /><polyline fill="none" points="109.3424,75.0644 109.7763,89.8169 106.739,95.4576 110.6441,96.7593 114.9831,95.4576 116.2847,92.8542 116.2847,81.5729 114.5492,75.4983" stroke="#00a4ff" stroke-width="2" /><polyline fill="none" points="96.3254,22.5627 94.1559,20.3932 89.3831,18.2237 77.6678,18.2237 73.3288,19.9593 71.5932,29.0712 73.7627,34.278 76.3661,36.8814 85.478,38.6169 91.5525,35.5797 91.9864,27.3356 88.9492,21.261" stroke="#3fffb7" stroke-width="2" /><polyline fill="none" points="65.5186,22.9966 29.939,18.6576 17.3559,18.2237 8.678,20.8271" stroke="#b7ff3f" stroke-width="2" /><polyline fill="none" points="46.861,29.0712 65.5186,30.8068 48.5966,29.0712 15.1864,29.0712 9.9797,33.8441" stroke="#ffb900" stroke-width="2" /><polyline fill="none" points="65.0847,36.8814 61.6136,35.5797 35.1458,35.5797 12.1492,45.5593" stroke="#ff3000" stroke-width="2" /><polyline fill="none" points="74.6305,37.3153 60.7458,37.3153 54.2373,39.0508 45.9932,43.3898 38.6169,51.6339" stroke="#7f0000" stroke-width="2" /></svg>