<?xml version="1.0" encoding="utf-8" ?>
<svg baseProfile="tiny" height="128" version="1.2" viewBox="0,0,128,128" width="128" xmlns="http://www.w3.org/2000/svg" xmlns:ev="http://www.w3.org/2001/xml-events" xmlns:xlink="http://www.w3.org/1999/xlink"><defs /><polyline fill="none" points="76.3661,11.2814 60.3119,11.2814 42.9559,22.5627 34.278,29.5051 22.1288,45.5593 8.678,67.6881 8.678,82.8746 13.4508,99.7966 16.4881,103.7017 25.6,109.7763 55.539,118.0203 95.0237,119.322 104.1356,90.6847 105.4373,50.3322 103.2678,41.2203 95.0237,24.2983 84.6102,10.8475 81.139,8.678" stroke="#00007f" stroke-width="2" /><polyline fill="none" points="38.6169,28.2034 38.6169,32.9763 44.2576,45.9932 46.861,59.0102 46.4271,77.2339 40.7864,89.3831 34.278,96.7593 27.3356,98.9288 19.0915,98.9288" stroke="#7cff79" stroke-width="2" /><polyline fill="none" points="105.4373,45.5593 97.6271,45.5593 71.5932,54.2373 55.1051,62.4814 47.2949,68.5559 46.4271,71.5932 46.4271,75.4983 48.1627,78.9695 76.8,98.4949 98.4949,97.6271" stroke="#7f0000" stroke-width="2" /></svg>