<?xml version="1.0" encoding="utf-8" ?>
<svg baseProfile="tiny" height="128" version="1.2" viewBox="0,0,128,128" width="128" xmlns="http://www.w3.org/2000/svg" xmlns:ev="http://www.w3.org/2001/xml-events" xmlns:xlink="http://www.w3.org/1999/xlink"><defs /><polyline fill="none" points="76.8,13.0169 64.2169,8.678 50.3322,8.678 37.3153,12.1492 28.6373,18.6576 18.6576,31.2407 11.7153,43.8237 8.678,56.4068 9.5458,64.2169 13.4508,75.9322 18.6576,83.3085 26.4678,91.9864 45.5593,105.8712 62.9153,110.6441 70.7254,110.6441 81.5729,108.4746 93.722,102.8339 103.7017,93.722 107.6068,87.6475 117.1525,63.3492 119.322,41.6542 114.9831,30.8068 107.6068,23.4305 89.3831,16.4881 67.2542,13.4508 65.5186,13.4508 67.2542,14.3186" stroke="#00007f" stroke-width="2" /><polyline fill="none" points="41.6542,22.1288 45.5593,24.2983 48.1627,36.8814 49.8983,75.4983 52.9356,98.4949 51.6339,107.1729" stroke="#0080ff" stroke-width="2" /><polyline fill="none" points="87.6475,17.3559 80.2712,42.522 78.5356,56.8407 78.5356,81.139 86.3458,105.4373 91.1186,112.3797 91.1186,111.078" stroke="#7cff79" stroke-width="2" /><polyline fill="none" points="49.0305,30.8068 39.4847,16.922 34.278,13.4508" stroke="#ff9400" stroke-width="2" /><polyline fill="none" points="34.278,32.5424 58.5763,31.6746" stroke="#7f0000" stroke-width="2" /></svg>