<?xml version="1.0" encoding="utf-8" ?>
<svg baseProfile="tiny" height="128" version="1.2" viewBox="0,0,128,128" width="128" xmlns="http://www.w3.org/2000/svg" xmlns:ev="http://www.w3.org/2001/xml-events" xmlns:xlink="http://www.w3.org/1999/xlink"><defs /><polyline fill="none" points="46.4271,13.8847 40.3525,15.1864 36.0136,18.2237 22.1288,38.1831 13.8847,55.1051 9.5458,70.7254 8.678,92.4203 16.922,106.3051 19.9593,109.7763 27.7695,114.1153 45.5593,114.1153 60.3119,107.1729 69.4237,98.9288 83.3085,67.6881 84.6102,49.0305 82.8746,33.4102 75.4983,19.5254 68.122,13.0169 61.1797,10.4136 53.8034,8.678 42.9559,9.5458 39.9186,12.1492 35.5797,21.6949" stroke="#00007f" stroke-width="2" /><polyline fill="none" points="16.922,42.0881 45.5593,119.322" stroke="#004cff" stroke-width="2" /><polyline fill="none" points="46.4271,21.261 44.2576,24.7322 43.3898,46.4271 44.2576,87.6475 49.8983,104.1356 55.539,112.8136" stroke="#29ffcd" stroke-width="2" /><polyline fill="none" points="61.6136,19.9593 60.3119,22.5627 61.6136,71.1593 67.2542,95.8915 72.461,107.1729" stroke="#cdff29" stroke-width="2" /><polyline fill="none" points="69.4237,24.7322 68.5559,44.6915 69.8576,67.2542 73.7627,95.4576" stroke="#ff6700" stroke-width="2" /><polyline fill="none" points="42.9559,28.6373 40.3525,32.5424 39.4847,58.1424 40.3525,81.139 44.2576,105.4373" stroke="#7f0000" stroke-width="2" /></svg>