<?xml version="1.0" encoding="utf-8" ?>
<svg baseProfile="tiny" height="128" version="1.2" viewBox="0,0,128,128" width="128" xmlns="http://www.w3.org/2000/svg" xmlns:ev="http://www.w3.org/2001/xml-events" xmlns:xlink="http://www.w3.org/1999/xlink"><defs /><polyline fill="none" points="65.7415,8.7075 44.4082,9.1429 26.1224,15.2381 13.4966,24.8163 8.7075,33.9592 8.7075,57.4694 16.5442,72.7075 26.1224,81.415 51.3741,91.4286 61.3878,93.6054 80.1088,92.2993 106.6667,83.5918 113.6327,79.2381 117.1156,74.0136 119.2925,60.517 119.2925,48.7619 109.2789,29.6054 104.4898,24.8163 91.4286,17.415 69.6599,10.0136" stroke="#00007f" stroke-width="2" /><polyline fill="none" points="30.0408,12.1905 30.4762,17.8503 39.619,40.0544 40.4898,68.3537 36.5714,76.1905 27.4286,82.2857 39.619,79.2381 52.6803,72.2721" stroke="#7cff79" stroke-width="2" /><polyline fill="none" points="100.5714,23.0748 93.1701,27.4286 78.3673,40.0544 74.0136,46.585 71.8367,53.9864 72.2721,63.1293 77.932,75.7551 85.3333,84.898 90.1224,88.381" stroke="#7f0000" stroke-width="2" /></svg>