<?xml version="1.0" encoding="utf-8" ?>
<svg baseProfile="tiny" height="128" version="1.2" viewBox="0,0,128,128" width="128" xmlns="http://www.w3.org/2000/svg" xmlns:ev="http://www.w3.org/2001/xml-events" xmlns:xlink="http://www.w3.org/1999/xlink"><defs /><polyline fill="none" points="57.034,21.7687 35.7007,21.7687 26.9932,24.381 16.9796,30.4762 12.6259,33.9592 9.1429,40.4898 8.7075,60.0816 20.0272,81.415 27.4286,89.6871 37.0068,94.9116 60.9524,100.1361 84.4626,100.5714 92.2993,97.9592 101.8776,92.7347 109.7143,82.7211 114.5034,73.5782 117.9864,62.6939 119.2925,53.551 119.2925,41.7959 116.6803,34.3946 107.9728,27.4286 94.9116,20.4626 74.0136,13.0612 54.8571,8.7075 45.2789,8.7075 34.8299,12.1905 16.9796,28.2993" stroke="#00007f" stroke-width="2" /><polyline fill="none" points="33.0884,14.3673 40.4898,20.898 51.3741,33.0884 56.5986,41.7959 60.517,52.6803 61.3878,72.2721 53.9864,89.2517 50.068,93.6054 46.1497,95.3469" stroke="#7cff79" stroke-width="2" /><polyline fill="none" points="92.7347,20.898 89.6871,21.7687 84.898,25.6871 77.4966,34.3946 74.0136,43.9728 73.1429,63.1293 75.3197,70.0952 84.4626,84.4626 94.4762,93.1701 100.5714,94.9116" stroke="#7f0000" stroke-width="2" /></svg>