<?xml version="1.0" encoding="utf-8" ?>
<svg baseProfile="tiny" height="128" version="1.2" viewBox="0,0,128,128" width="128" xmlns="http://www.w3.org/2000/svg" xmlns:ev="http://www.w3.org/2001/xml-events" xmlns:xlink="http://www.w3.org/1999/xlink"><defs /><polyline fill="none" points="74.6305,8.678 59.878,9.5458 43.3898,19.5254 32.1085,30.8068 19.9593,47.2949 15.1864,56.4068 8.678,75.9322 8.678,92.4203 11.7153,98.9288 17.7898,105.4373 33.4102,114.1153 42.9559,117.1525 59.878,119.322 73.7627,118.4542 80.7051,115.4169 92.8542,106.739 102.4,95.0237 109.7763,83.3085 113.2475,71.5932 114.9831,61.6136 115.4169,41.6542 111.078,34.278 102.4,26.4678 95.8915,23.4305 90.6847,21.6949 78.9695,21.6949 70.7254,19.0915 62.9153,19.5254" stroke="#00007f" stroke-width="2" /><polyline fill="none" points="57.7085,32.1085 56.8407,81.139 58.5763,88.5153" stroke="#004cff" stroke-width="2" /><polyline fill="none" points="35.1458,39.4847 54.6712,32.9763 81.139,31.2407 85.478,33.8441 89.8169,41.6542" stroke="#29ffcd" stroke-width="2" /><polyline fill="none" points="18.2237,97.1932 56.8407,96.7593 75.4983,83.3085 93.722,73.3288" stroke="#cdff29" stroke-width="2" /><polyline fill="none" points="86.3458,41.6542 88.5153,47.7288 88.5153,78.1017 83.3085,87.6475 77.6678,95.0237" stroke="#ff6700" stroke-width="2" /><polyline fill="none" points="42.522,36.4475 36.4475,40.3525 24.2983,65.0847 20.3932,84.1763 20.3932,95.8915" stroke="#7f0000" stroke-width="2" /></svg>