<?xml version="1.0" encoding="utf-8" ?>
<svg baseProfile="tiny" height="128" version="1.2" viewBox="0,0,128,128" width="128" xmlns="http://www.w3.org/2000/svg" xmlns:ev="http://www.w3.org/2001/xml-events" xmlns:xlink="http://www.w3.org/1999/xlink"><defs /><polyline fill="none" points="58.3401,8.7075 53.551,9.5782 44.8435,17.415 32.6531,23.9456 22.6395,35.7007 15.6735,47.0204 11.3197,60.517 9.5782,75.7551 8.7075,104.0544 11.7551,109.7143 21.3333,116.2449 28.2993,119.2925 40.9252,119.2925 46.1497,117.551 55.7279,112.3265 60.0816,107.9728 73.5782,89.2517 80.9796,77.0612 83.1565,67.9184 83.5918,51.3741 80.5442,33.9592 72.7075,22.6395 62.6939,13.932" stroke="#00007f" stroke-width="2" /><polyline fill="none" points="26.1224,33.0884 31.3469,48.7619 32.6531,63.1293 33.0884,90.5578 27.8639,107.102 22.2041,113.6327" stroke="#7cff79" stroke-width="2" /><polyline fill="none" points="48.3265,21.7687 44.8435,34.8299 44.8435,51.3741 47.0204,63.5646 52.2449,75.3197 60.0816,84.0272 80.1088,95.3469 92.2993,96.6531 99.2653,94.0408" stroke="#7f0000" stroke-width="2" /></svg>