<?xml version="1.0" encoding="utf-8" ?>
<svg baseProfile="tiny" height="128" version="1.2" viewBox="0,0,128,128" width="128" xmlns="http://www.w3.org/2000/svg" xmlns:ev="http://www.w3.org/2001/xml-events" xmlns:xlink="http://www.w3.org/1999/xlink"><defs /><polyline fill="none" points="114.5034,54.4218 112.3265,43.102 98.3946,20.0272 90.9932,13.4966 77.4966,8.7075 61.3878,8.7075 42.2313,15.2381 30.0408,23.0748 20.898,32.6531 16.1088,42.2313 10.0136,61.3878 8.7075,86.2041 13.0612,92.2993 16.1088,94.0408 32.2177,98.8299 58.7755,101.8776 79.6735,98.8299 91.8639,94.0408 99.7007,87.5102 111.0204,75.7551 117.551,65.3061 119.2925,55.2925 118.4218,52.6803 116.6803,51.8095" stroke="#00007f" stroke-width="2" /><polyline fill="none" points="10.0136,62.2585 36.1361,57.4694 68.3537,47.8912 77.932,40.4898 87.9456,27.8639 90.1224,22.2041" stroke="#7cff79" stroke-width="2" /><polyline fill="none" points="13.4966,67.0476 46.1497,66.1769 58.3401,64.4354 77.4966,59.6463 85.3333,55.2925" stroke="#7f0000" stroke-width="2" /></svg>