<?xml version="1.0" encoding="utf-8" ?>
<svg baseProfile="tiny" height="128" version="1.2" viewBox="0,0,128,128" width="128" xmlns="http://www.w3.org/2000/svg" xmlns:ev="http://www.w3.org/2001/xml-events" xmlns:xlink="http://www.w3.org/1999/xlink"><defs /><polyline fill="none" points="51.8095,14.3673 42.2313,12.6259 23.0748,12.6259 15.2381,13.4966 10.8844,16.9796 8.7075,38.3129 8.7075,68.3537 11.3197,75.7551 14.3673,80.5442 18.2857,83.5918 28.2993,87.5102 57.034,91.4286 78.8027,91.4286 92.2993,86.6395 97.9592,80.1088 98.8299,57.4694 92.2993,39.619 86.6395,30.0408 79.6735,22.2041 71.8367,17.8503 47.4558,14.3673" stroke="#00007f" stroke-width="2" /><polyline fill="none" points="40.9252,8.7075 41.7959,74.8844 38.3129,81.8503 32.2177,87.5102 33.9592,83.1565" stroke="#00d4ff" stroke-width="2" /><polyline fill="none" points="69.6599,17.415 64.8707,30.0408 59.6463,50.5034 58.7755,84.898 60.9524,92.7347 67.0476,105.3605 78.8027,119.2925 91.8639,119.2925 93.1701,114.5034 92.7347,108.4082" stroke="#ffe500" stroke-width="2" /><polyline fill="none" points="55.2925,20.898 55.2925,20.898" stroke="#7f0000" stroke-width="2" /></svg>