<?xml version="1.0" encoding="utf-8" ?>
<svg baseProfile="tiny" height="128" version="1.2" viewBox="0,0,128,128" width="128" xmlns="http://www.w3.org/2000/svg" xmlns:ev="http://www.w3.org/2001/xml-events" xmlns:xlink="http://www.w3.org/1999/xlink"><defs /><polyline fill="none" points="10.8844,33.5238 16.9796,25.6871 29.1701,18.2857 44.8435,11.3197 60.517,8.7075 75.3197,10.0136 89.6871,14.3673 97.0884,18.2857 105.7959,26.9932" stroke="#00007f" stroke-width="2" /><polyline fill="none" points="117.1156,46.585 119.2925,66.1769 117.9864,76.6259 113.1973,88.381 105.3605,97.9592 98.8299,102.7483 82.7211,107.5374 72.2721,108.4082 53.551,107.102 34.8299,101.4422 20.898,95.7823 16.9796,93.1701 11.3197,84.0272 8.7075,74.8844 8.7075,59.2109 12.1905,41.3605 16.1088,29.6054" stroke="#00d4ff" stroke-width="2" /><polyline fill="none" points="35.7007,17.8503 38.3129,32.2177 37.8776,57.9048 33.9592,70.5306 24.8163,86.2041" stroke="#ffe500" stroke-width="2" /><polyline fill="none" points="83.5918,12.6259 79.6735,50.068 80.5442,66.1769 86.2041,83.1565 97.5238,97.5238" stroke="#7f0000" stroke-width="2" /></svg>