<?xml version="1.0" encoding="utf-8" ?>
<svg baseProfile="tiny" height="128" version="1.2" viewBox="0,0,128,128" width="128" xmlns="http://www.w3.org/2000/svg" xmlns:ev="http://www.w3.org/2001/xml-events" xmlns:xlink="http://www.w3.org/1999/xlink"><defs /><polyline fill="none" points="87.2136,9.9797 72.461,8.678 53.3695,12.1492 32.1085,21.261 22.9966,28.6373 16.922,36.4475 9.5458,53.3695 8.678,62.0475 10.4136,69.4237 17.7898,83.7424 23.4305,90.2508 31.2407,96.3254 40.7864,100.2305 51.2,102.8339 62.0475,103.2678 73.3288,101.5322 84.1763,98.4949 95.0237,92.4203 111.078,76.8 118.8881,58.5763 119.322,49.0305 118.0203,41.2203 112.3797,27.7695 102.4,17.3559 96.3254,13.8847 81.139,9.9797" stroke="#00007f" stroke-width="2" /><polyline fill="none" points="33.4102,19.9593 47.7288,32.5424 53.3695,44.2576 54.6712,51.6339 53.3695,66.8203 46.861,80.2712 38.6169,91.1186" stroke="#7cff79" stroke-width="2" /><polyline fill="none" points="98.061,25.1661 90.2508,36.8814 84.6102,48.1627 82.8746,60.3119 83.7424,66.3864 86.3458,72.461 90.2508,77.6678 96.3254,82.0068" stroke="#7f0000" stroke-width="2" /></svg>