<?xml version="1.0" encoding="utf-8" ?>
<svg baseProfile="tiny" height="128" version="1.2" viewBox="0,0,128,128" width="128" xmlns="http://www.w3.org/2000/svg" xmlns:ev="http://www.w3.org/2001/xml-events" xmlns:xlink="http://www.w3.org/1999/xlink"><defs /><polyline fill="none" points="52.0678,9.9797 41.2203,8.678 29.939,9.9797 15.1864,27.3356 9.9797,41.6542 8.678,55.9729 8.678,88.9492 15.1864,102.4 23.4305,111.5119 29.939,116.7186 41.6542,119.322 57.7085,119.322 70.2915,114.1153 82.4407,104.5695 91.5525,86.7797 92.8542,62.9153 88.9492,48.1627 80.7051,30.8068 70.2915,22.9966 62.4814,19.0915" stroke="#00007f" stroke-width="2" /><polyline fill="none" points="35.1458,17.7898 36.4475,39.0508 42.9559,81.139 42.9559,118.0203" stroke="#004cff" stroke-width="2" /><polyline fill="none" points="61.1797,32.5424 62.4814,52.0678 68.122,83.7424 74.6305,103.2678 78.5356,107.6068" stroke="#29ffcd" stroke-width="2" /><polyline fill="none" points="22.9966,31.2407 42.9559,36.4475" stroke="#cdff29" stroke-width="2" /><polyline fill="none" points="26.9017,52.0678 36.4475,55.9729 49.4644,55.9729" stroke="#ff6700" stroke-width="2" /><polyline fill="none" points="39.0508,78.5356 55.9729,77.2339" stroke="#7f0000" stroke-width="2" /></svg>