<?xml version="1.0" encoding="utf-8" ?>
<svg baseProfile="tiny" height="128" version="1.2" viewBox="0,0,128,128" width="128" xmlns="http://www.w3.org/2000/svg" xmlns:ev="http://www.w3.org/2001/xml-events" xmlns:xlink="http://www.w3.org/1999/xlink"><defs /><polyline fill="none" points="89.3831,17.3559 86.3458,11.7153 77.6678,9.1119 59.878,8.678 48.5966,9.9797 39.0508,12.5831 28.6373,17.3559 20.3932,24.2983 13.0169,35.1458 9.5458,46.861 8.678,65.0847 10.4136,77.6678 13.8847,88.5153 19.9593,96.7593 28.2034,103.7017 49.0305,113.2475 61.6136,117.1525 72.8949,118.8881 84.1763,118.8881 95.0237,115.8508 99.7966,112.3797 107.1729,102.8339 110.6441,96.7593 114.5492,84.6102 116.7186,72.461 115.8508,58.1424 106.3051,35.5797 99.3627,25.6 93.722,20.3932 85.0441,15.1864 75.4983,12.1492" stroke="#00007f" stroke-width="2" /><polyline fill="none" points="30.8068,11.2814 30.8068,14.7525 37.7492,23.8644 44.6915,38.6169 46.861,54.6712 47.2949,72.8949 45.5593,83.3085 39.0508,99.7966 33.4102,106.3051" stroke="#7cff79" stroke-width="2" /><polyline fill="none" points="79.8373,119.322 72.8949,111.078 67.2542,97.6271 64.2169,77.6678 64.2169,64.2169 66.3864,51.6339 71.5932,40.7864 80.7051,27.3356 87.2136,20.8271 90.6847,19.5254" stroke="#7f0000" stroke-width="2" /></svg>