<?xml version="1.0" encoding="utf-8" ?>
<svg baseProfile="tiny" height="128" version="1.2" viewBox="0,0,128,128" width="128" xmlns="http://www.w3.org/2000/svg" xmlns:ev="http://www.w3.org/2001/xml-events" xmlns:xlink="http://www.w3.org/1999/xlink"><defs /><polyline fill="none" points="92.4203,20.3932 91.5525,17.3559 82.4407,11.7153 66.8203,9.1119 58.5763,8.678 33.8441,16.922 9.5458,48.1627 8.678,69.8576 16.922,88.0814 26.9017,99.7966 45.9932,111.9458 55.1051,114.9831 63.3492,117.1525 85.0441,117.1525 98.4949,114.1153 107.1729,110.6441 114.1153,101.5322 118.4542,83.7424 119.322,69.8576 116.2847,56.4068 112.8136,47.2949 108.4746,39.4847 98.9288,27.7695 84.1763,17.3559 75.4983,15.6203 63.7831,16.922 47.2949,23.8644" stroke="#00007f" stroke-width="2" /><polyline fill="none" points="45.5593,22.5627 45.5593,22.5627" stroke="#0000e8" stroke-width="2" /><polyline fill="none" points="52.9356,51.6339 52.9356,51.6339" stroke="#0038ff" stroke-width="2" /><polyline fill="none" points="50.7661,13.0169 56.4068,26.9017" stroke="#0094ff" stroke-width="2" /><polyline fill="none" points="55.539,39.9186 55.539,39.9186" stroke="#0cf4ea" stroke-width="2" /><polyline fill="none" points="55.1051,55.1051 52.9356,64.6508" stroke="#56ffa0" stroke-width="2" /><polyline fill="none" points="42.522,86.7797 40.3525,90.2508" stroke="#a0ff56" stroke-width="2" /><polyline fill="none" points="95.8915,21.261 90.2508,26.0339 86.3458,32.1085" stroke="#eaff0c" stroke-width="2" /><polyline fill="none" points="81.5729,55.9729 80.2712,75.4983" stroke="#ffaa00" stroke-width="2" /><polyline fill="none" points="85.0441,95.0237 88.0814,105.4373" stroke="#ff5500" stroke-width="2" /><polyline fill="none" points="30.8068,99.3627 36.0136,95.0237 45.5593,82.8746 50.3322,72.8949 52.0678,65.0847 53.8034,39.4847 51.6339,31.2407 45.5593,23.8644" stroke="#e80000" stroke-width="2" /><polyline fill="none" points="98.061,20.3932 82.0068,39.9186 78.5356,46.861 74.1966,64.6508 75.0644,74.6305 79.4034,88.5153 94.1559,116.7186" stroke="#7f0000" stroke-width="2" /></svg>