<?xml version="1.0" encoding="utf-8" ?>
<svg baseProfile="tiny" height="128" version="1.2" viewBox="0,0,128,128" width="128" xmlns="http://www.w3.org/2000/svg" xmlns:ev="http://www.w3.org/2001/xml-events" xmlns:xlink="http://www.w3.org/1999/xlink"><defs /><polyline fill="none" points="108.9085,36.4475 91.1186,19.0915 80.7051,12.1492 70.7254,9.5458 50.3322,8.678 41.2203,11.2814 30.8068,20.3932 16.4881,40.3525 8.678,62.0475 8.678,86.7797 16.922,98.4949 25.1661,105.4373 37.3153,111.5119 66.8203,119.322 85.9119,119.322 98.061,115.8508 101.9661,113.6814 109.3424,101.5322 112.3797,93.722 112.3797,65.0847 111.5119,42.0881 108.0407,36.4475" stroke="#00007f" stroke-width="2" /><polyline fill="none" points="90.2508,21.261 84.6102,49.0305 84.6102,82.8746 89.3831,101.9661 95.0237,115.8508 97.6271,119.322" stroke="#7cff79" stroke-width="2" /><polyline fill="none" points="36.0136,21.261 42.522,38.1831 45.1254,50.7661 45.9932,93.2881 42.9559,112.3797" stroke="#7f0000" stroke-width="2" /></svg>