<?xml version="1.0" encoding="utf-8" ?>
<svg baseProfile="tiny" height="128" version="1.2" viewBox="0,0,128,128" width="128" xmlns="http://www.w3.org/2000/svg" xmlns:ev="http://www.w3.org/2001/xml-events" xmlns:xlink="http://www.w3.org/1999/xlink"><defs /><polyline fill="none" points="85.0441,8.678 62.4814,15.1864 49.8983,20.3932 34.278,29.5051 22.1288,42.9559 16.922,52.0678 13.4508,65.9525 13.4508,80.2712 16.0542,88.0814 22.1288,94.5898 29.5051,98.9288 37.3153,100.6644 69.4237,100.6644 77.2339,98.9288 84.1763,96.7593 93.722,91.1186 104.1356,82.0068 114.5492,70.2915 118.4542,56.8407 119.322,41.6542 111.9458,29.5051 100.2305,17.7898 87.6475,11.7153 82.0068,11.2814" stroke="#00007f" stroke-width="2" /><polyline fill="none" points="53.3695,99.3627 55.9729,82.8746 66.8203,58.5763 88.0814,30.8068 104.1356,18.6576" stroke="#0000d5" stroke-width="2" /><polyline fill="none" points="51.2,88.0814 58.1424,88.0814" stroke="#001cff" stroke-width="2" /><polyline fill="none" points="54.2373,74.6305 60.7458,75.0644" stroke="#006cff" stroke-width="2" /><polyline fill="none" points="60.3119,60.3119 67.2542,61.6136" stroke="#00b8ff" stroke-width="2" /><polyline fill="none" points="67.2542,48.5966 78.9695,51.2" stroke="#1cffda" stroke-width="2" /><polyline fill="none" points="77.2339,38.6169 84.6102,39.9186" stroke="#5cff9a" stroke-width="2" /><polyline fill="none" points="84.1763,29.0712 91.1186,33.4102" stroke="#9aff5c" stroke-width="2" /><polyline fill="none" points="89.8169,18.2237 99.7966,24.2983" stroke="#daff1c" stroke-width="2" /><polyline fill="none" points="112.3797,73.7627 91.9864,61.6136 72.461,55.539 61.1797,54.2373 19.5254,52.9356 8.678,55.9729" stroke="#ffcb00" stroke-width="2" /><polyline fill="none" points="23.8644,47.7288 23.4305,58.5763" stroke="#ff8500" stroke-width="2" /><polyline fill="none" points="39.9186,49.0305 39.4847,55.9729" stroke="#ff3b00" stroke-width="2" /><polyline fill="none" points="51.2,50.7661 51.2,59.0102" stroke="#d50000" stroke-width="2" /><polyline fill="none" points="68.122,50.3322 65.0847,60.7458" stroke="#7f0000" stroke-width="2" /></svg>