<?xml version="1.0" encoding="utf-8" ?>
<svg baseProfile="tiny" height="128" version="1.2" viewBox="0,0,128,128" width="128" xmlns="http://www.w3.org/2000/svg" xmlns:ev="http://www.w3.org/2001/xml-events" xmlns:xlink="http://www.w3.org/1999/xlink"><defs /><polyline fill="none" points="92.4203,8.678 75.4983,9.5458 29.939,25.6 20.8271,29.939 11.2814,44.2576 8.678,59.878 11.7153,80.2712 18.2237,89.3831 28.2034,94.1559 38.6169,95.8915 48.5966,95.8915 64.2169,93.2881 82.0068,87.6475 106.3051,68.122 117.1525,53.3695 119.322,48.5966 118.4542,28.6373 115.4169,19.0915 110.6441,16.922 101.5322,16.922 98.061,13.4508" stroke="#00007f" stroke-width="2" /><polyline fill="none" points="95.0237,15.1864 85.0441,39.4847 82.0068,59.0102 82.0068,68.5559 88.5153,85.9119" stroke="#00d4ff" stroke-width="2" /><polyline fill="none" points="35.5797,26.4678 40.3525,30.3729 45.5593,39.0508 48.5966,54.2373 45.9932,85.0441 42.9559,97.1932" stroke="#ffe500" stroke-width="2" /><polyline fill="none" points="36.4475,45.1254 55.1051,40.3525" stroke="#7f0000" stroke-width="2" /></svg>