<?xml version="1.0" encoding="utf-8" ?>
<svg baseProfile="tiny" height="128" version="1.2" viewBox="0,0,128,128" width="128" xmlns="http://www.w3.org/2000/svg" xmlns:ev="http://www.w3.org/2001/xml-events" xmlns:xlink="http://www.w3.org/1999/xlink"><defs /><polyline fill="none" points="108.4082,23.0748 94.4762,16.9796 83.1565,14.3673 73.5782,13.932 60.517,16.9796 49.1973,20.898 37.4422,27.8639 24.381,39.1837 17.8503,47.8912 8.7075,80.9796 9.1429,90.5578 11.7551,101.0068 14.8027,109.7143 20.4626,114.5034 33.5238,119.2925 42.2313,119.2925 64.0,114.5034 82.7211,105.3605 93.1701,96.6531 102.3129,84.898 106.2313,68.7891 106.2313,50.5034 102.7483,29.6054 101.0068,26.9932 94.9116,24.8163" stroke="#00007f" stroke-width="2" /><polyline fill="none" points="26.1224,28.7347 32.6531,31.7823 42.6667,40.0544 48.3265,53.1156 49.6327,62.6939 43.102,101.4422 34.8299,115.8095 32.2177,118.4218" stroke="#7cff79" stroke-width="2" /><polyline fill="none" points="105.3605,8.7075 94.9116,15.2381 76.1905,38.7483 67.483,57.9048 64.8707,70.966 64.4354,90.1224 66.6122,95.3469 72.7075,100.5714 93.6054,103.619" stroke="#7f0000" stroke-width="2" /></svg>