<?xml version="1.0" encoding="utf-8" ?>
<svg baseProfile="tiny" height="128" version="1.2" viewBox="0,0,128,128" width="128" xmlns="http://www.w3.org/2000/svg" xmlns:ev="http://www.w3.org/2001/xml-events" xmlns:xlink="http://www.w3.org/1999/xlink"><defs /><polyline fill="none" points="66.3864,14.3186 59.0102,9.5458 48.5966,9.1119 41.2203,11.7153 28.6373,21.261 17.7898,34.278 13.4508,42.0881 9.1119,57.2746 8.678,71.5932 10.8475,77.6678 19.0915,88.9492 31.2407,97.6271 53.8034,104.5695 71.1593,105.4373 79.4034,104.5695 87.6475,101.5322 95.4576,98.061 107.6068,89.3831 117.5864,75.0644 119.322,58.5763 118.0203,52.9356 112.3797,42.9559 98.9288,30.3729 78.1017,19.0915 59.878,14.7525" stroke="#00007f" stroke-width="2" /><polyline fill="none" points="48.1627,8.678 45.9932,9.1119 42.522,14.7525 36.0136,29.939 31.6746,46.4271 30.8068,58.5763 31.2407,75.0644 33.8441,84.6102 39.0508,96.3254 43.3898,98.9288" stroke="#0028ff" stroke-width="2" /><polyline fill="none" points="85.478,22.1288 81.5729,43.3898 82.0068,67.6881 87.2136,81.5729 96.7593,93.2881" stroke="#00d4ff" stroke-width="2" /><polyline fill="none" points="25.6,32.5424 42.0881,22.5627" stroke="#7cff79" stroke-width="2" /><polyline fill="none" points="21.6949,52.0678 42.0881,35.1458" stroke="#ffe500" stroke-width="2" /><polyline fill="none" points="27.7695,56.8407 42.0881,44.6915" stroke="#ff4600" stroke-width="2" /><polyline fill="none" points="29.5051,77.6678 45.9932,66.8203" stroke="#7f0000" stroke-width="2" /></svg>