<?xml version="1.0" encoding="utf-8" ?>
<svg baseProfile="tiny" height="128" version="1.2" viewBox="0,0,128,128" width="128" xmlns="http://www.w3.org/2000/svg" xmlns:ev="http://www.w3.org/2001/xml-events" xmlns:xlink="http://www.w3.org/1999/xlink"><defs /><polyline fill="none" points="63.5646,8.7075 50.5034,9.1429 41.3605,11.7551 27.4286,18.7211 16.9796,26.9932 13.0612,33.0884 8.7075,47.0204 8.7075,74.449 13.0612,84.0272 21.3333,94.9116 27.4286,99.7007 50.9388,107.5374 69.6599,108.8435 80.5442,105.7959 98.8299,95.7823 109.2789,86.2041 114.068,79.2381 117.9864,73.1429 119.2925,64.8707 117.9864,52.6803 113.1973,42.6667 105.7959,35.2653 95.7823,26.9932 74.449,13.932 67.0476,10.0136 60.9524,9.1429 51.8095,13.0612" stroke="#00007f" stroke-width="2" /><polyline fill="none" points="32.6531,16.1088 35.7007,17.415 40.9252,25.6871 44.4082,35.2653 45.2789,60.517 41.3605,80.5442 38.7483,88.381 29.1701,97.9592 26.1224,98.8299 26.1224,96.2177" stroke="#0080ff" stroke-width="2" /><polyline fill="none" points="93.1701,23.9456 84.0272,36.5714 81.415,45.7143 79.6735,58.7755 80.9796,74.8844 90.9932,104.4898" stroke="#7cff79" stroke-width="2" /><polyline fill="none" points="83.5918,35.7007 87.0748,35.7007 90.5578,37.4422" stroke="#ff9400" stroke-width="2" /><polyline fill="none" points="82.2857,53.551 86.6395,55.7279" stroke="#7f0000" stroke-width="2" /></svg>