<?xml version="1.0" encoding="utf-8" ?>
<svg baseProfile="tiny" height="128" version="1.2" viewBox="0,0,128,128" width="128" xmlns="http://www.w3.org/2000/svg" xmlns:ev="http://www.w3.org/2001/xml-events" xmlns:xlink="http://www.w3.org/1999/xlink"><defs /><polyline fill="none" points="119.322,30.8068 116.7186,29.939 105.0034,19.0915 94.5898,12.1492 85.0441,9.1119 73.3288,8.678 42.0881,23.4305 24.2983,40.7864 13.4508,55.539 9.9797,63.7831 8.678,74.6305 9.9797,85.0441 13.0169,91.1186 17.3559,95.4576 25.6,100.6644 45.1254,108.4746 56.8407,109.7763 63.7831,108.0407 82.8746,99.7966 88.9492,95.4576 93.2881,91.5525 108.0407,70.2915 115.4169,53.8034 118.8881,40.7864 118.4542,30.3729 114.1153,23.8644 104.1356,16.4881 96.3254,16.4881 78.9695,32.1085 69.4237,45.9932 65.0847,59.4441 65.0847,90.6847 69.8576,105.0034" stroke="#00007f" stroke-width="2" /><polyline fill="none" points="34.7119,26.4678 41.2203,42.9559 42.0881,59.878 39.0508,87.6475 32.1085,101.9661" stroke="#0010ff" stroke-width="2" /><polyline fill="none" points="26.4678,33.8441 50.3322,38.1831" stroke="#00a4ff" stroke-width="2" /><polyline fill="none" points="28.2034,66.8203 58.1424,66.8203" stroke="#3fffb7" stroke-width="2" /><polyline fill="none" points="35.5797,83.7424 41.6542,83.7424 63.7831,79.4034" stroke="#b7ff3f" stroke-width="2" /><polyline fill="none" points="82.4407,45.1254 74.6305,41.2203 65.9525,39.4847" stroke="#ffb900" stroke-width="2" /><polyline fill="none" points="79.4034,60.7458 67.6881,64.6508 59.0102,71.5932" stroke="#ff3000" stroke-width="2" /><polyline fill="none" points="75.0644,88.0814 64.6508,95.0237" stroke="#7f0000" stroke-width="2" /></svg>