<?xml version="1.0" encoding="utf-8" ?>
<svg baseProfile="tiny" height="128" version="1.2" viewBox="0,0,128,128" width="128" xmlns="http://www.w3.org/2000/svg" xmlns:ev="http://www.w3.org/2001/xml-events" xmlns:xlink="http://www.w3.org/1999/xlink"><defs /><polyline fill="none" points="52.6803,8.7075 20.0272,21.7687 9.1429,34.3946 8.7075,39.619 14.8027,66.1769 20.4626,80.5442 30.4762,101.0068 38.3129,109.2789 49.1973,116.6803 56.1633,119.2925 66.1769,118.8571 77.0612,113.6327 82.2857,107.9728 84.898,103.1837 92.2993,76.1905 91.4286,66.6122 85.3333,57.4694 69.2245,40.9252 62.6939,36.1361 42.2313,28.7347 34.8299,29.1701 29.1701,32.6531 20.898,42.6667 19.1565,47.0204 15.6735,60.9524 15.6735,68.7891" stroke="#00007f" stroke-width="2" /><polyline fill="none" points="20.4626,42.6667 23.0748,47.0204 26.1224,61.3878 26.1224,84.4626 25.2517,87.0748 24.8163,86.2041" stroke="#7cff79" stroke-width="2" /><polyline fill="none" points="64.8707,43.9728 55.7279,66.1769 53.9864,74.449 54.4218,78.8027 57.9048,85.3333 70.5306,99.2653 86.6395,109.2789" stroke="#7f0000" stroke-width="2" /></svg>