<?xml version="1.0" encoding="utf-8" ?>
<svg baseProfile="tiny" height="128" version="1.2" viewBox="0,0,128,128" width="128" xmlns="http://www.w3.org/2000/svg" xmlns:ev="http://www.w3.org/2001/xml-events" xmlns:xlink="http://www.w3.org/1999/xlink"><defs /><polyline fill="none" points="22.9966,105.0034 30.3729,110.6441 45.9932,114.9831 52.9356,114.9831 54.2373,113.2475 59.0102,106.739 61.6136,98.061 63.3492,82.0068 63.3492,59.0102 49.0305,45.9932 42.0881,45.9932 34.7119,51.6339 20.3932,78.9695 26.0339,93.2881 28.6373,96.3254" stroke="#00007f" stroke-width="2" /><polyline fill="none" points="19.9593,64.6508 19.9593,90.6847 8.678,116.2847 16.0542,119.322 18.6576,111.9458 37.3153,82.0068 44.6915,67.6881 51.6339,45.9932 52.9356,36.4475 47.2949,45.9932 49.0305,54.6712 57.7085,60.3119 64.6508,61.6136 65.9525,55.1051 57.2746,51.6339 41.6542,53.3695 37.3153,62.0475 36.0136,91.9864 43.3898,98.9288 45.9932,91.9864 44.6915,75.0644 41.6542,65.0847 34.278,51.6339 24.2983,42.0881 21.6949,53.3695 21.6949,70.7254 24.7322,79.4034 31.6746,86.3458 40.3525,90.6847 47.2949,90.2508 50.3322,77.6678 50.3322,51.6339 44.6915,44.6915 39.0508,59.0102 40.3525,91.9864 44.6915,108.0407 50.3322,114.9831 55.9729,103.2678 55.9729,70.2915 51.6339,30.3729 51.6339,41.6542 53.3695,49.0305 60.3119,53.3695 60.3119,37.3153 57.7085,22.9966 47.2949,15.6203 38.6169,14.7525 37.3153,21.6949 41.6542,28.6373 52.0678,34.7119 62.9153,38.6169 70.7254,38.6169 73.3288,30.3729 72.0271,22.9966 67.6881,15.6203 60.3119,8.678 53.3695,11.7153 53.3695,20.3932 64.6508,27.3356 78.9695,28.6373 67.6881,22.9966 57.2746,23.4305 53.3695,36.0136 53.3695,44.6915 54.6712,53.3695 59.0102,64.6508 63.3492,62.0475" stroke="#7f0000" stroke-width="2" /></svg>