<?xml version="1.0" encoding="utf-8" ?>
<svg baseProfile="tiny" height="128" version="1.2" viewBox="0,0,128,128" width="128" xmlns="http://www.w3.org/2000/svg" xmlns:ev="http://www.w3.org/2001/xml-events" xmlns:xlink="http://www.w3.org/1999/xlink"><defs /><polyline fill="none" points="10.4136,50.3322 19.0915,28.6373 23.4305,21.6949 28.6373,16.4881 42.9559,9.9797 62.9153,8.678 73.7627,9.5458 85.0441,13.4508 95.0237,18.6576 104.1356,25.6 111.9458,33.8441 116.7186,40.7864 118.8881,49.4644 119.322,56.4068 118.8881,64.6508 115.8508,70.7254 111.5119,76.3661 99.3627,85.0441 81.139,90.2508 62.0475,91.1186 42.0881,85.0441 22.9966,71.5932 15.1864,62.4814 9.9797,52.5017 8.678,42.522 10.8475,39.9186" stroke="#00007f" stroke-width="2" /><polyline fill="none" points="40.7864,9.1119 47.2949,25.1661 49.0305,33.8441 49.0305,49.0305 44.2576,70.7254 36.0136,82.4407" stroke="#7cff79" stroke-width="2" /><polyline fill="none" points="82.8746,16.922 81.139,18.6576 77.6678,59.878 81.139,68.5559 88.0814,78.9695 91.1186,81.5729 97.1932,82.8746" stroke="#7f0000" stroke-width="2" /></svg>