<?xml version="1.0" encoding="utf-8" ?>
<svg baseProfile="tiny" height="128" version="1.2" viewBox="0,0,128,128" width="128" xmlns="http://www.w3.org/2000/svg" xmlns:ev="http://www.w3.org/2001/xml-events" xmlns:xlink="http://www.w3.org/1999/xlink"><defs /><polyline fill="none" points="69.4237,9.9797 62.9153,10.8475 52.9356,15.6203 40.7864,26.4678 18.6576,49.8983 9.1119,70.7254 8.678,79.8373 13.8847,94.1559 25.6,108.0407 32.5424,114.5492 42.0881,118.4542 49.8983,119.322 78.1017,115.4169 93.722,107.6068 107.6068,98.061 109.3424,94.5898 110.6441,80.2712 108.9085,70.2915 93.2881,35.1458 80.7051,14.3186 73.3288,12.5831 66.8203,8.678" stroke="#00007f" stroke-width="2" /><polyline fill="none" points="85.478,22.1288 76.8,34.278 68.9898,57.2746 66.3864,70.7254 68.9898,84.1763 74.1966,101.9661 76.8,105.0034" stroke="#7cff79" stroke-width="2" /><polyline fill="none" points="34.7119,29.0712 45.1254,42.522 37.7492,106.3051 35.5797,110.2102 33.8441,111.078" stroke="#7f0000" stroke-width="2" /></svg>