<?xml version="1.0" encoding="utf-8" ?>
<svg baseProfile="tiny" height="128" version="1.2" viewBox="0,0,128,128" width="128" xmlns="http://www.w3.org/2000/svg" xmlns:ev="http://www.w3.org/2001/xml-events" xmlns:xlink="http://www.w3.org/1999/xlink"><defs /><polyline fill="none" points="65.3061,11.7551 61.8231,8.7075 37.8776,8.7075 21.3333,16.5442 12.1905,25.6871 9.5782,32.2177 8.7075,56.5986 21.3333,78.8027 31.7823,90.5578 40.4898,95.3469 65.7415,99.2653 98.8299,98.8299 103.619,97.0884 111.0204,90.1224 119.2925,73.5782 119.2925,47.0204 113.6327,34.3946 104.0544,26.1224 82.2857,16.9796 69.2245,13.932 54.4218,13.932" stroke="#00007f" stroke-width="2" /><polyline fill="none" points="39.1837,10.0136 42.6667,11.7551 44.4082,14.3673 45.7143,20.4626 47.0204,51.3741 38.3129,67.483 26.5578,79.2381" stroke="#7cff79" stroke-width="2" /><polyline fill="none" points="90.1224,22.6395 89.6871,25.6871 81.415,38.3129 80.9796,50.9388 78.8027,60.0816 78.8027,81.8503 84.0272,91.8639" stroke="#7f0000" stroke-width="2" /></svg>