<?xml version="1.0" encoding="utf-8" ?>
<svg baseProfile="tiny" height="128" version="1.2" viewBox="0,0,128,128" width="128" xmlns="http://www.w3.org/2000/svg" xmlns:ev="http://www.w3.org/2001/xml-events" xmlns:xlink="http://www.w3.org/1999/xlink"><defs /><polyline fill="none" points="41.2203,36.4475 37.3153,35.1458 24.2983,35.1458 16.922,41.6542 13.8847,45.9932 8.678,61.6136 8.678,83.7424 13.4508,95.4576 23.8644,109.3424 34.7119,116.7186 47.2949,119.322 65.0847,119.322 84.6102,114.1153 98.061,107.6068 104.1356,101.9661 109.7763,92.8542 111.9458,82.4407 111.5119,61.1797 100.6644,37.7492 90.6847,26.0339 80.2712,18.2237 65.0847,11.2814 48.1627,8.678 29.939,8.678 14.7525,18.6576 12.1492,26.4678 12.1492,34.7119 21.261,45.9932" stroke="#00007f" stroke-width="2" /><polyline fill="none" points="45.9932,9.5458 45.9932,38.6169 43.8237,46.4271 35.5797,63.7831 28.6373,74.6305 27.3356,82.4407 16.0542,99.3627" stroke="#7cff79" stroke-width="2" /><polyline fill="none" points="69.4237,17.7898 68.122,26.4678 65.5186,31.2407 64.2169,45.1254 64.2169,49.0305 66.8203,55.1051 85.9119,83.3085 104.1356,94.1559" stroke="#7f0000" stroke-width="2" /></svg>