<?xml version="1.0" encoding="utf-8" ?>
<svg baseProfile="tiny" height="128" version="1.2" viewBox="0,0,128,128" width="128" xmlns="http://www.w3.org/2000/svg" xmlns:ev="http://www.w3.org/2001/xml-events" xmlns:xlink="http://www.w3.org/1999/xlink"><defs /><polyline fill="none" points="63.5646,10.0136 60.517,8.7075 52.2449,9.1429 42.6667,15.2381 31.7823,25.6871 18.2857,40.4898 12.1905,50.068 9.5782,57.034 8.7075,70.0952 9.5782,77.0612 16.1088,89.2517 33.0884,105.7959 53.9864,117.551 60.0816,119.2925 70.966,119.2925 81.8503,113.1973 96.2177,101.8776 104.0544,93.6054 111.0204,80.1088 111.8912,66.6122 107.5374,50.9388 91.4286,28.7347 77.4966,16.9796 70.966,13.4966 59.2109,11.3197" stroke="#00007f" stroke-width="2" /><polyline fill="none" points="41.7959,15.6735 43.102,16.9796 50.9388,38.3129 53.551,50.5034 53.9864,63.5646 51.3741,77.0612 47.4558,89.6871 33.5238,111.0204" stroke="#7cff79" stroke-width="2" /><polyline fill="none" points="84.4626,25.2517 80.1088,34.3946 74.449,57.9048 70.966,75.7551 70.5306,87.5102 73.1429,96.6531 84.898,113.1973" stroke="#7f0000" stroke-width="2" /></svg>