<?xml version="1.0" encoding="utf-8" ?>
<svg baseProfile="tiny" height="128" version="1.2" viewBox="0,0,128,128" width="128" xmlns="http://www.w3.org/2000/svg" xmlns:ev="http://www.w3.org/2001/xml-events" xmlns:xlink="http://www.w3.org/1999/xlink"><defs /><polyline fill="none" points="103.619,33.0884 97.0884,22.2041 85.3333,13.932 78.3673,10.8844 59.2109,8.7075 54.8571,10.0136 45.2789,16.9796 19.1565,39.1837 9.5782,54.8571 8.7075,79.6735 11.7551,87.9456 14.3673,92.2993 33.0884,110.1497 41.7959,112.7619 87.5102,111.4558 98.8299,105.3605 106.6667,93.6054 116.6803,71.4014 119.2925,58.7755 119.2925,47.8912 116.2449,41.7959 111.0204,36.5714 81.8503,16.1088" stroke="#00007f" stroke-width="2" /><polyline fill="none" points="17.8503,36.5714 39.619,58.7755 43.9728,74.449 43.102,89.6871 37.8776,99.7007 29.6054,108.4082" stroke="#7cff79" stroke-width="2" /><polyline fill="none" points="102.7483,24.8163 101.0068,24.381 98.8299,26.1224 90.9932,42.2313 87.9456,51.3741 88.381,61.8231 93.6054,73.1429 108.8435,92.7347 110.585,97.5238" stroke="#7f0000" stroke-width="2" /></svg>