<?xml version="1.0" encoding="utf-8" ?>
<svg baseProfile="tiny" height="128" version="1.2" viewBox="0,0,128,128" width="128" xmlns="http://www.w3.org/2000/svg" xmlns:ev="http://www.w3.org/2001/xml-events" xmlns:xlink="http://www.w3.org/1999/xlink"><defs /><polyline fill="none" points="49.0305,8.678 43.8237,9.5458 36.0136,13.0169 12.5831,34.278 9.5458,42.9559 8.678,68.122 14.3186,77.2339 25.1661,88.5153 36.4475,97.1932 53.8034,105.8712 62.0475,107.1729 84.6102,109.3424 104.1356,108.0407 111.5119,104.1356 118.0203,92.4203 119.322,84.1763 118.8881,64.6508 110.2102,50.3322 101.0983,39.9186 88.0814,32.1085 68.9898,29.0712 59.878,26.4678 54.2373,23.4305 44.2576,22.9966" stroke="#00007f" stroke-width="2" /><polyline fill="none" points="47.2949,10.4136 36.8814,21.261 36.4475,44.2576 39.0508,56.4068 45.1254,68.9898 53.3695,74.1966 72.8949,77.2339 82.8746,77.2339 87.6475,74.6305 88.5153,44.2576 90.6847,37.7492 94.1559,32.5424" stroke="#7f0000" stroke-width="2" /></svg>