<?xml version="1.0" encoding="utf-8" ?>
<svg baseProfile="tiny" height="128" version="1.2" viewBox="0,0,128,128" width="128" xmlns="http://www.w3.org/2000/svg" xmlns:ev="http://www.w3.org/2001/xml-events" xmlns:xlink="http://www.w3.org/1999/xlink"><defs /><polyline fill="none" points="56.4068,12.5831 47.2949,11.2814 34.7119,12.1492 24.2983,18.2237 15.1864,29.0712 9.5458,52.0678 8.678,80.7051 10.4136,87.2136 16.922,98.061 26.9017,108.0407 46.861,116.7186 63.7831,119.322 85.9119,118.4542 92.8542,112.8136 99.3627,104.5695 109.3424,89.8169 116.7186,75.0644 118.4542,49.8983 115.8508,41.2203 105.4373,26.4678 99.7966,19.9593 91.9864,15.1864 84.1763,12.1492 42.0881,12.1492" stroke="#00007f" stroke-width="2" /><polyline fill="none" points="47.2949,10.4136 50.3322,19.9593 49.4644,64.2169 43.8237,88.5153 36.4475,99.7966 29.0712,106.3051" stroke="#004cff" stroke-width="2" /><polyline fill="none" points="80.7051,8.678 78.9695,16.4881 79.8373,65.0847 84.1763,74.1966 94.5898,86.3458 98.9288,90.6847 103.7017,92.4203" stroke="#29ffcd" stroke-width="2" /><polyline fill="none" points="31.6746,28.2034 50.3322,27.3356" stroke="#cdff29" stroke-width="2" /><polyline fill="none" points="40.7864,64.2169 58.5763,63.7831" stroke="#ff6700" stroke-width="2" /><polyline fill="none" points="31.6746,88.0814 38.1831,89.8169 55.539,89.8169" stroke="#7f0000" stroke-width="2" /></svg>