<?xml version="1.0" encoding="utf-8" ?>
<svg baseProfile="tiny" height="128" version="1.2" viewBox="0,0,128,128" width="128" xmlns="http://www.w3.org/2000/svg" xmlns:ev="http://www.w3.org/2001/xml-events" xmlns:xlink="http://www.w3.org/1999/xlink"><defs /><polyline fill="none" points="33.4102,24.7322 29.0712,29.939 18.6576,36.4475 13.4508,42.522 9.5458,54.2373 8.678,67.6881 10.8475,75.0644 18.6576,90.6847 25.6,99.3627 31.6746,104.1356 44.6915,108.0407 64.6508,108.4746 72.8949,104.5695 77.2339,99.3627 85.478,82.4407 88.0814,74.6305 88.9492,59.0102 85.9119,45.1254 81.5729,36.4475 78.1017,31.2407 60.7458,15.1864 48.5966,9.5458 43.3898,8.678 32.5424,9.1119 21.261,12.5831" stroke="#00007f" stroke-width="2" /><polyline fill="none" points="29.5051,26.9017 42.9559,51.6339 43.8237,60.3119 39.4847,84.1763 29.0712,104.1356" stroke="#00d4ff" stroke-width="2" /><polyline fill="none" points="76.8,33.4102 67.2542,49.8983 62.4814,72.0271 62.4814,80.2712 63.7831,89.8169 67.6881,103.2678 77.6678,119.322" stroke="#ffe500" stroke-width="2" /><polyline fill="none" points="32.1085,44.2576 35.1458,44.6915" stroke="#7f0000" stroke-width="2" /></svg>