<?xml version="1.0" encoding="utf-8" ?>
<svg baseProfile="tiny" height="128" version="1.2" viewBox="0,0,128,128" width="128" xmlns="http://www.w3.org/2000/svg" xmlns:ev="http://www.w3.org/2001/xml-events" xmlns:xlink="http://www.w3.org/1999/xlink"><defs /><polyline fill="none" points="91.5525,11.2814 82.0068,8.678 59.4441,10.8475 36.4475,20.8271 22.9966,30.3729 13.4508,43.3898 9.9797,52.0678 8.678,58.1424 8.678,77.2339 14.7525,88.0814 22.1288,94.1559 39.0508,101.5322 56.8407,106.3051 68.122,106.3051 88.0814,105.8712 101.0983,96.7593 114.5492,78.5356 119.322,60.7458 119.322,45.1254 114.5492,35.1458 103.7017,22.9966 84.6102,11.2814" stroke="#00007f" stroke-width="2" /><polyline fill="none" points="30.3729,37.7492 35.1458,43.8237 39.9186,59.4441 43.3898,80.7051 41.2203,97.6271" stroke="#00d4ff" stroke-width="2" /><polyline fill="none" points="89.3831,13.4508 80.7051,55.539 80.7051,74.6305 88.0814,90.2508 94.1559,95.4576" stroke="#ffe500" stroke-width="2" /><polyline fill="none" points="20.8271,73.7627 26.9017,68.5559 45.9932,58.1424 72.461,52.0678 79.8373,52.0678" stroke="#7f0000" stroke-width="2" /></svg>