<?xml version="1.0" encoding="utf-8" ?>
<svg baseProfile="tiny" height="128" version="1.2" viewBox="0,0,128,128" width="128" xmlns="http://www.w3.org/2000/svg" xmlns:ev="http://www.w3.org/2001/xml-events" xmlns:xlink="http://www.w3.org/1999/xlink"><defs /><polyline fill="none" points="87.2136,18.2237 78.1017,15.6203 59.0102,15.6203 43.8237,19.9593 36.4475,24.7322 21.6949,42.9559 15.1864,55.9729 10.8475,67.6881 10.8475,75.9322 12.1492,83.7424 16.922,95.8915 26.9017,107.6068 34.7119,111.078 53.3695,111.078 72.461,108.0407 90.6847,102.8339 98.9288,98.4949 105.4373,89.8169 107.6068,82.8746 106.739,64.2169 104.1356,50.3322 97.1932,29.939 92.4203,22.5627 75.4983,8.678" stroke="#00007f" stroke-width="2" /><polyline fill="none" points="67.6881,13.0169 39.4847,44.2576 39.4847,54.6712 40.7864,59.0102 45.9932,70.2915 49.8983,74.1966 65.5186,79.8373 84.6102,81.139 88.0814,82.4407 92.8542,90.2508" stroke="#00d4ff" stroke-width="2" /><polyline fill="none" points="8.678,62.9153 10.8475,59.4441 17.7898,54.6712 31.6746,60.7458 51.6339,83.7424 49.0305,95.0237 33.8441,119.322" stroke="#ffe500" stroke-width="2" /><polyline fill="none" points="70.7254,71.1593 70.7254,80.2712" stroke="#7f0000" stroke-width="2" /></svg>