<?xml version="1.0" encoding="utf-8" ?>
<svg baseProfile="tiny" height="128" version="1.2" viewBox="0,0,128,128" width="128" xmlns="http://www.w3.org/2000/svg" xmlns:ev="http://www.w3.org/2001/xml-events" xmlns:xlink="http://www.w3.org/1999/xlink"><defs /><polyline fill="none" points="26.9017,15.6203 26.9017,17.3559 24.2983,21.6949 12.1492,37.7492 8.678,50.7661 8.678,55.9729 13.4508,73.7627 17.7898,82.0068 28.6373,95.0237 35.5797,101.0983 50.7661,110.6441 66.8203,115.8508 73.3288,116.2847 84.1763,115.8508 99.3627,110.2102 112.8136,98.9288 117.5864,90.6847 119.322,80.7051 116.7186,62.0475 109.7763,46.861 102.8339,35.5797 93.722,25.6 73.3288,12.1492 63.3492,9.1119 54.6712,8.678 41.2203,11.2814 25.6,18.6576 21.261,22.1288" stroke="#00007f" stroke-width="2" /><polyline fill="none" points="85.478,20.3932 84.6102,18.6576 82.0068,18.2237 78.9695,28.2034 75.9322,55.9729 76.8,75.4983 80.2712,91.5525 83.3085,98.9288 89.8169,110.2102 94.5898,114.9831 96.7593,114.9831" stroke="#0010ff" stroke-width="2" /><polyline fill="none" points="26.0339,18.6576 39.9186,45.9932 45.5593,67.6881 45.5593,86.7797 42.0881,101.0983 37.3153,109.3424" stroke="#00a4ff" stroke-width="2" /><polyline fill="none" points="91.1186,45.5593 75.0644,49.4644" stroke="#3fffb7" stroke-width="2" /><polyline fill="none" points="89.3831,68.9898 85.9119,73.3288 74.1966,75.4983" stroke="#b7ff3f" stroke-width="2" /><polyline fill="none" points="93.2881,86.7797 90.6847,91.5525 82.0068,92.8542 74.6305,92.4203" stroke="#ffb900" stroke-width="2" /><polyline fill="none" points="48.5966,49.8983 36.4475,50.3322" stroke="#ff3000" stroke-width="2" /><polyline fill="none" points="53.3695,73.7627 52.0678,75.4983 49.0305,75.0644 36.4475,72.0271" stroke="#7f0000" stroke-width="2" /></svg>