<?xml version="1.0" encoding="utf-8" ?>
<svg baseProfile="tiny" height="128" version="1.2" viewBox="0,0,128,128" width="128" xmlns="http://www.w3.org/2000/svg" xmlns:ev="http://www.w3.org/2001/xml-events" xmlns:xlink="http://www.w3.org/1999/xlink"><defs /><polyline fill="none" points="47.7288,10.8475 34.7119,10.8475 10.8475,16.922 8.678,21.261 8.678,37.7492 10.8475,42.522 17.7898,46.861 26.9017,50.7661 55.9729,58.5763 85.9119,58.5763 99.7966,55.539 110.2102,50.7661 115.4169,47.2949 118.0203,42.9559 119.322,38.6169 118.4542,28.6373 111.078,20.8271 98.4949,14.7525 77.6678,8.678 62.4814,8.678 53.8034,10.8475 32.5424,20.8271" stroke="#00007f" stroke-width="2" /><polyline fill="none" points="42.522,10.4136 45.5593,26.4678 44.6915,38.6169 42.9559,43.3898 35.5797,49.8983 33.4102,50.3322" stroke="#0000ff" stroke-width="2" /><polyline fill="none" points="82.4407,14.7525 75.0644,19.9593 71.1593,24.7322 67.6881,32.5424 67.6881,49.0305 73.3288,57.2746" stroke="#0080ff" stroke-width="2" /><polyline fill="none" points="59.4441,16.922 77.6678,16.922" stroke="#15ffe1" stroke-width="2" /><polyline fill="none" points="80.7051,16.922 80.7051,19.5254" stroke="#7cff79" stroke-width="2" /><polyline fill="none" points="60.7458,34.7119 74.1966,34.7119" stroke="#e4ff12" stroke-width="2" /><polyline fill="none" points="78.5356,34.7119 79.4034,34.7119" stroke="#ff9400" stroke-width="2" /><polyline fill="none" points="67.6881,47.2949 67.6881,47.2949" stroke="#ff1d00" stroke-width="2" /><polyline fill="none" points="67.6881,47.2949 67.6881,47.2949" stroke="#7f0000" stroke-width="2" /></svg>