<?xml version="1.0" encoding="utf-8" ?>
<svg baseProfile="tiny" height="128" version="1.2" viewBox="0,0,128,128" width="128" xmlns="http://www.w3.org/2000/svg" xmlns:ev="http://www.w3.org/2001/xml-events" xmlns:xlink="http://www.w3.org/1999/xlink"><defs /><polyline fill="none" points="63.3492,116.7186 55.539,119.322 46.861,118.0203 29.5051,108.9085 15.6203,95.4576 10.4136,84.1763 8.678,71.1593 9.9797,56.8407 12.1492,48.1627 16.4881,39.9186 26.4678,26.9017 38.6169,17.7898 51.6339,11.7153 64.6508,8.678 70.7254,9.1119 84.1763,17.7898 91.1186,26.9017 98.061,47.7288 99.3627,62.4814 98.061,83.3085 95.4576,92.4203 91.5525,101.5322 86.3458,106.739 75.4983,110.6441 61.6136,112.3797" stroke="#00007f" stroke-width="2" /><polyline fill="none" points="72.0271,10.4136 61.1797,39.0508 59.4441,51.6339 59.4441,72.0271 61.6136,85.478 64.2169,91.9864 72.0271,100.2305 76.8,102.4" stroke="#7cff79" stroke-width="2" /><polyline fill="none" points="30.8068,27.7695 36.8814,33.4102 38.1831,49.8983 35.5797,97.6271 34.278,100.6644 29.0712,102.4" stroke="#7f0000" stroke-width="2" /></svg>