<?xml version="1.0" encoding="utf-8" ?>
<svg baseProfile="tiny" height="128" version="1.2" viewBox="0,0,128,128" width="128" xmlns="http://www.w3.org/2000/svg" xmlns:ev="http://www.w3.org/2001/xml-events" xmlns:xlink="http://www.w3.org/1999/xlink"><defs /><polyline fill="none" points="77.6678,30.8068 48.1627,15.1864 32.9763,14.3186 25.1661,19.0915 13.8847,35.1458 8.678,55.539 9.9797,79.4034 15.6203,91.5525 21.261,100.2305 29.5051,108.4746 38.6169,113.6814 49.8983,116.2847 72.8949,116.2847 84.1763,114.1153 92.8542,109.7763 98.061,104.5695 102.8339,95.8915 104.1356,85.478 104.1356,72.461 95.8915,45.9932 89.8169,32.5424 82.4407,22.5627 74.6305,16.0542 65.5186,13.4508 56.8407,13.4508 49.0305,16.0542" stroke="#00007f" stroke-width="2" /><polyline fill="none" points="20.8271,13.4508 31.6746,17.3559 46.4271,36.4475 54.2373,50.7661 60.7458,65.5186 64.2169,80.2712 63.7831,101.0983 57.2746,109.7763 50.3322,115.4169 44.6915,118.0203 38.1831,119.322" stroke="#7cff79" stroke-width="2" /><polyline fill="none" points="76.3661,8.678 74.1966,12.1492 71.5932,43.8237 72.0271,75.0644 77.6678,91.1186 85.0441,103.2678 91.9864,110.2102 98.9288,112.3797 105.0034,112.3797 110.2102,106.739" stroke="#7f0000" stroke-width="2" /></svg>