<?xml version="1.0" encoding="utf-8" ?>
<svg baseProfile="tiny" height="128" version="1.2" viewBox="0,0,128,128" width="128" xmlns="http://www.w3.org/2000/svg" xmlns:ev="http://www.w3.org/2001/xml-events" xmlns:xlink="http://www.w3.org/1999/xlink"><defs /><polyline fill="none" points="94.5898,17.7898 92.4203,15.1864 85.9119,13.0169 75.0644,11.2814 58.5763,12.1492 42.0881,15.6203 30.8068,21.261 15.1864,33.4102 11.2814,38.1831 8.678,52.5017 9.9797,63.7831 22.9966,81.139 36.4475,95.4576 44.2576,99.7966 77.6678,103.2678 97.1932,103.2678 111.078,99.3627 116.7186,92.4203 119.322,80.7051 119.322,62.9153 117.5864,54.2373 111.9458,37.7492 105.4373,25.1661 101.9661,20.3932 94.1559,15.6203 87.6475,15.6203" stroke="#00007f" stroke-width="2" /><polyline fill="none" points="49.8983,13.0169 49.8983,42.522 48.5966,51.2 42.0881,67.2542 25.6,85.9119 33.4102,81.5729" stroke="#00d4ff" stroke-width="2" /><polyline fill="none" points="78.5356,8.678 78.5356,17.3559 82.4407,44.2576 91.1186,70.7254 102.4,86.7797 110.2102,90.6847 114.9831,91.5525 115.4169,90.6847" stroke="#ffe500" stroke-width="2" /><polyline fill="none" points="71.1593,32.1085 72.0271,29.939 77.2339,27.3356" stroke="#7f0000" stroke-width="2" /></svg>