<?xml version="1.0" encoding="utf-8" ?>
<svg baseProfile="tiny" height="128" version="1.2" viewBox="0,0,128,128" width="128" xmlns="http://www.w3.org/2000/svg" xmlns:ev="http://www.w3.org/2001/xml-events" xmlns:xlink="http://www.w3.org/1999/xlink"><defs /><polyline fill="none" points="77.6678,11.2814 60.3119,8.678 43.3898,9.5458 38.6169,11.2814 29.0712,19.0915 11.2814,37.3153 8.678,49.0305 8.678,62.9153 11.7153,84.6102 14.7525,91.9864 17.7898,97.1932 27.3356,106.739 31.6746,109.3424 51.2,116.2847 85.478,117.1525 105.0034,113.2475 108.4746,111.078 116.2847,97.6271 119.322,84.1763 117.5864,68.122 113.6814,55.1051 105.8712,42.522 102.4,30.3729 93.2881,26.0339 85.478,19.0915 74.6305,15.1864 69.4237,9.5458 68.5559,10.4136" stroke="#00007f" stroke-width="2" /><polyline fill="none" points="60.7458,10.4136 54.2373,31.2407 50.7661,36.8814 41.6542,47.7288 24.7322,61.6136 20.8271,64.6508 13.0169,66.8203" stroke="#7cff79" stroke-width="2" /><polyline fill="none" points="103.7017,36.8814 96.7593,40.7864 85.9119,53.3695 77.6678,61.1797 69.4237,82.8746 65.5186,98.9288 61.6136,104.5695 60.7458,109.7763" stroke="#7f0000" stroke-width="2" /></svg>