<?xml version="1.0" encoding="utf-8" ?>
<svg baseProfile="tiny" height="128" version="1.2" viewBox="0,0,128,128" width="128" xmlns="http://www.w3.org/2000/svg" xmlns:ev="http://www.w3.org/2001/xml-events" xmlns:xlink="http://www.w3.org/1999/xlink"><defs /><polyline fill="none" points="88.0814,67.6881 78.9695,65.9525 66.8203,66.3864 61.1797,69.4237 57.2746,76.3661 57.2746,84.1763 62.9153,90.6847 71.1593,94.1559 78.5356,93.2881 82.8746,88.5153 86.7797,77.6678 86.7797,72.8949 84.6102,69.4237" stroke="#00007f" stroke-width="2" /><polyline fill="none" points="55.539,78.9695 59.878,78.9695 68.9898,75.4983 72.8949,72.0271 75.0644,66.3864" stroke="#0000ff" stroke-width="2" /><polyline fill="none" points="67.6881,91.9864 68.9898,86.7797 72.8949,81.5729 78.5356,79.4034 85.478,79.8373" stroke="#0080ff" stroke-width="2" /><polyline fill="none" points="84.1763,65.9525 85.9119,70.2915" stroke="#15ffe1" stroke-width="2" /><polyline fill="none" points="8.678,116.7186 30.8068,118.0203" stroke="#7cff79" stroke-width="2" /><polyline fill="none" points="15.1864,116.7186 18.2237,87.6475" stroke="#e4ff12" stroke-width="2" /><polyline fill="none" points="20.8271,119.322 26.0339,87.2136" stroke="#ff9400" stroke-width="2" /><polyline fill="none" points="26.0339,87.2136 29.939,83.7424 31.6746,76.3661 35.5797,17.3559" stroke="#ff1d00" stroke-width="2" /><polyline fill="none" points="18.2237,88.0814 15.6203,86.3458 13.8847,79.4034 12.1492,64.6508 12.5831,44.6915 17.3559,12.1492 19.9593,9.1119 28.2034,8.678 32.5424,13.4508 34.278,19.5254" stroke="#7f0000" stroke-width="2" /></svg>