<?xml version="1.0" encoding="utf-8" ?>
<svg baseProfile="tiny" height="128" version="1.2" viewBox="0,0,128,128" width="128" xmlns="http://www.w3.org/2000/svg" xmlns:ev="http://www.w3.org/2001/xml-events" xmlns:xlink="http://www.w3.org/1999/xlink"><defs /><polyline fill="none" points="88.9492,12.1492 81.5729,9.5458 73.3288,8.678 67.2542,9.9797 47.2949,18.2237 28.2034,29.5051 20.3932,37.3153 13.8847,45.9932 9.9797,55.539 8.678,77.2339 9.9797,88.0814 14.3186,97.6271 20.3932,105.0034 28.2034,111.078 36.4475,115.4169 46.4271,118.4542 68.5559,119.322 78.1017,116.2847 86.7797,111.5119 102.4,96.7593 110.6441,80.2712 114.9831,57.2746 114.5492,42.9559 112.8136,37.3153 108.0407,26.9017 101.5322,18.6576 91.5525,12.5831 87.2136,11.7153" stroke="#00007f" stroke-width="2" /><polyline fill="none" points="35.5797,26.4678 51.2,31.2407 41.6542,39.0508 47.2949,40.7864 49.4644,42.9559 49.0305,44.6915 43.8237,49.4644 48.5966,60.3119 43.8237,60.7458 43.3898,63.3492 47.2949,76.3661 45.5593,77.2339 45.1254,79.4034 49.0305,88.9492 48.5966,91.1186 38.1831,97.6271 37.3153,102.4 38.1831,105.4373 24.7322,111.9458" stroke="#7cff79" stroke-width="2" /><polyline fill="none" points="94.1559,11.2814 84.1763,23.4305 88.0814,26.0339 88.5153,29.5051 76.3661,43.8237 76.3661,45.5593 83.3085,49.8983 84.1763,52.5017 71.1593,68.122 72.0271,71.1593 85.0441,74.1966 85.478,77.2339 77.2339,88.0814 77.2339,90.6847 85.9119,96.3254 82.8746,108.0407 92.8542,113.2475" stroke="#7f0000" stroke-width="2" /></svg>