<?xml version="1.0" encoding="utf-8" ?>
<svg baseProfile="tiny" height="128" version="1.2" viewBox="0,0,128,128" width="128" xmlns="http://www.w3.org/2000/svg" xmlns:ev="http://www.w3.org/2001/xml-events" xmlns:xlink="http://www.w3.org/1999/xlink"><defs /><polyline fill="none" points="72.7075,10.8844 45.7143,10.8844 28.7347,17.8503 18.7211,25.6871 14.8027,30.0408 12.1905,38.7483 8.7075,67.0476 8.7075,80.9796 10.449,89.6871 19.5918,106.2313 28.2993,111.0204 48.7619,116.6803 70.5306,117.1156 97.9592,111.4558 104.4898,105.7959 114.068,94.4762 118.4218,84.4626 119.2925,73.5782 119.2925,37.4422 115.8095,25.6871 111.4558,19.5918 90.1224,10.8844 81.415,8.7075 60.517,8.7075 56.1633,11.3197" stroke="#00007f" stroke-width="2" /><polyline fill="none" points="29.6054,13.4966 57.034,41.3605 72.7075,66.1769 78.8027,81.415 80.9796,111.0204 84.0272,117.1156" stroke="#00d4ff" stroke-width="2" /><polyline fill="none" points="30.4762,48.7619 30.4762,48.7619" stroke="#ffe500" stroke-width="2" /><polyline fill="none" points="27.4286,64.4354 27.4286,64.4354" stroke="#7f0000" stroke-width="2" /></svg>