<?xml version="1.0" encoding="utf-8" ?>
<svg baseProfile="tiny" height="128" version="1.2" viewBox="0,0,128,128" width="128" xmlns="http://www.w3.org/2000/svg" xmlns:ev="http://www.w3.org/2001/xml-events" xmlns:xlink="http://www.w3.org/1999/xlink"><defs /><polyline fill="none" points="18.6576,88.0814 13.4508,82.8746 12.1492,77.2339 12.5831,64.2169 14.3186,56.8407 21.6949,42.0881 26.9017,35.1458 32.1085,29.0712 45.1254,19.5254 59.878,11.7153 74.1966,9.1119 86.7797,8.678 98.4949,11.2814 108.0407,16.922 114.5492,23.4305 119.322,37.7492 119.322,49.0305 115.8508,60.7458 109.7763,74.1966 102.4,85.478 92.8542,95.0237 82.8746,101.9661 77.2339,103.7017 59.0102,105.8712 38.6169,105.0034 25.6,101.9661 15.1864,96.3254 11.2814,91.5525 9.5458,85.9119 8.678,76.3661" stroke="#00007f" stroke-width="2" /><polyline fill="none" points="55.1051,110.6441 52.9356,109.3424 51.6339,102.4 51.2,78.9695 54.2373,65.9525 58.5763,55.9729 67.2542,41.6542 78.5356,27.7695 95.4576,13.0169 101.9661,9.5458" stroke="#0028ff" stroke-width="2" /><polyline fill="none" points="78.1017,12.5831 81.139,12.5831 91.9864,17.3559 101.0983,22.5627 102.8339,25.1661" stroke="#00d4ff" stroke-width="2" /><polyline fill="none" points="55.9729,35.1458 76.3661,39.4847 82.8746,43.3898 84.1763,45.5593" stroke="#7cff79" stroke-width="2" /><polyline fill="none" points="43.8237,59.0102 62.0475,60.3119 74.1966,63.7831" stroke="#ffe500" stroke-width="2" /><polyline fill="none" points="36.8814,95.4576 49.4644,96.3254 63.7831,95.4576" stroke="#ff4600" stroke-width="2" /><polyline fill="none" points="42.522,118.0203 50.3322,118.4542 62.0475,115.8508" stroke="#7f0000" stroke-width="2" /></svg>