<?xml version="1.0" encoding="utf-8" ?>
<svg baseProfile="tiny" height="128" version="1.2" viewBox="0,0,128,128" width="128" xmlns="http://www.w3.org/2000/svg" xmlns:ev="http://www.w3.org/2001/xml-events" xmlns:xlink="http://www.w3.org/1999/xlink"><defs /><polyline fill="none" points="15.1864,22.1288 21.6949,15.1864 29.939,10.4136 42.522,8.678 56.4068,8.678 65.9525,11.7153 84.6102,25.6 93.2881,34.7119 100.2305,44.2576 110.6441,65.9525 113.6814,72.8949 114.1153,81.139 112.3797,91.9864 106.739,102.8339 100.2305,110.2102 91.1186,116.2847 75.0644,119.322 57.2746,118.0203 21.6949,108.9085 14.7525,101.9661 9.5458,89.3831 8.678,76.8 21.261,32.1085 22.9966,20.3932 25.1661,17.7898" stroke="#00007f" stroke-width="2" /><polyline fill="none" points="29.939,11.7153 32.9763,21.6949 35.1458,38.6169 35.1458,53.3695 32.5424,96.3254 26.0339,102.8339" stroke="#004cff" stroke-width="2" /><polyline fill="none" points="83.7424,15.1864 80.7051,16.922 76.8,22.9966 74.1966,32.1085 71.5932,49.0305 69.8576,78.5356 73.3288,91.9864 86.7797,105.8712 89.8169,113.6814" stroke="#29ffcd" stroke-width="2" /><polyline fill="none" points="49.4644,39.4847 75.0644,41.6542 90.6847,46.861" stroke="#cdff29" stroke-width="2" /><polyline fill="none" points="60.7458,67.6881 65.0847,65.5186 79.8373,62.4814 91.5525,62.9153" stroke="#ff6700" stroke-width="2" /><polyline fill="none" points="82.0068,80.7051 79.4034,83.7424" stroke="#7f0000" stroke-width="2" /></svg>