<?xml version="1.0" encoding="utf-8" ?>
<svg baseProfile="tiny" height="128" version="1.2" viewBox="0,0,128,128" width="128" xmlns="http://www.w3.org/2000/svg" xmlns:ev="http://www.w3.org/2001/xml-events" xmlns:xlink="http://www.w3.org/1999/xlink"><defs /><polyline fill="none" points="41.6542,26.0339 32.9763,30.3729 25.6,35.5797 13.4508,50.3322 10.4136,57.7085 8.678,68.9898 9.5458,82.0068 11.2814,87.2136 16.922,97.6271 22.5627,105.0034 29.0712,110.2102 36.8814,113.6814 54.6712,114.5492 72.8949,107.1729 85.0441,98.061 96.3254,87.2136 108.9085,71.1593 111.9458,64.2169 114.9831,51.2 114.9831,43.8237 112.3797,35.5797 92.8542,16.0542 82.0068,10.4136 73.3288,8.678 59.878,9.5458 50.7661,12.5831 34.7119,25.6 32.5424,29.5051 32.5424,31.6746" stroke="#00007f" stroke-width="2" /><polyline fill="none" points="30.8068,32.9763 34.7119,37.3153 40.7864,47.2949 47.2949,61.6136 47.7288,68.9898 43.8237,74.6305 38.1831,78.9695 15.6203,83.7424" stroke="#00d4ff" stroke-width="2" /><polyline fill="none" points="21.6949,103.7017 31.6746,95.8915 38.1831,93.2881 45.9932,92.4203 51.2,94.5898 55.1051,99.3627 58.5763,110.2102" stroke="#ffe500" stroke-width="2" /><polyline fill="none" points="90.6847,85.478 86.3458,88.9492 83.3085,81.5729 81.139,68.122 81.5729,59.0102 83.3085,54.2373 86.7797,51.2 119.322,39.9186" stroke="#7f0000" stroke-width="2" /></svg>