<?xml version="1.0" encoding="utf-8" ?>
<svg baseProfile="tiny" height="128" version="1.2" viewBox="0,0,128,128" width="128" xmlns="http://www.w3.org/2000/svg" xmlns:ev="http://www.w3.org/2001/xml-events" xmlns:xlink="http://www.w3.org/1999/xlink"><defs /><polyline fill="none" points="82.0068,15.1864 77.6678,12.5831 70.7254,12.5831 45.1254,22.5627 22.5627,39.9186 17.3559,48.1627 12.5831,58.5763 9.9797,69.4237 8.678,91.9864 10.8475,102.4 15.6203,109.3424 21.261,114.5492 29.939,118.0203 39.0508,119.322 61.6136,118.4542 71.5932,115.8508 82.0068,111.5119 96.7593,99.7966 105.4373,85.478 108.0407,78.1017 110.6441,60.7458 110.6441,42.9559 108.0407,32.5424 101.0983,22.9966 91.5525,13.8847 86.7797,11.2814 75.0644,8.678 71.1593,10.8475" stroke="#00007f" stroke-width="2" /><polyline fill="none" points="81.5729,24.7322 79.4034,27.7695 79.4034,44.6915 85.478,54.2373 86.3458,80.7051 85.478,84.1763 77.6678,85.478 76.8,101.5322 75.4983,105.4373" stroke="#7cff79" stroke-width="2" /><polyline fill="none" points="57.7085,32.5424 49.0305,33.8441 45.5593,37.3153 43.8237,60.7458 42.522,64.6508 42.522,78.9695" stroke="#7f0000" stroke-width="2" /></svg>