<?xml version="1.0" encoding="utf-8" ?>
<svg baseProfile="tiny" height="128" version="1.2" viewBox="0,0,128,128" width="128" xmlns="http://www.w3.org/2000/svg" xmlns:ev="http://www.w3.org/2001/xml-events" xmlns:xlink="http://www.w3.org/1999/xlink"><defs /><polyline fill="none" points="58.7755,9.1429 50.5034,8.7075 39.619,12.1905 34.3946,15.6735 23.0748,26.1224 17.8503,34.3946 10.449,52.2449 8.7075,68.7891 10.0136,76.1905 13.932,83.1565 25.6871,95.7823 50.9388,107.5374 70.5306,110.1497 88.381,108.4082 96.6531,104.4898 109.2789,94.0408 116.6803,79.2381 118.8571,71.4014 119.2925,54.4218 110.585,37.4422 103.1837,27.8639 93.1701,19.1565 83.1565,13.0612 78.3673,11.3197 57.034,9.1429" stroke="#00007f" stroke-width="2" /><polyline fill="none" points="86.2041,15.6735 81.8503,33.0884 81.8503,59.2109 84.898,70.5306 89.6871,80.5442 95.3469,87.0748 102.7483,90.9932 107.5374,90.5578" stroke="#7cff79" stroke-width="2" /><polyline fill="none" points="37.0068,13.932 47.4558,33.0884 49.6327,43.102 49.6327,54.4218 48.7619,60.9524 43.9728,73.1429 28.7347,91.4286" stroke="#7f0000" stroke-width="2" /></svg>