<?xml version="1.0" encoding="utf-8" ?>
<svg baseProfile="tiny" height="128" version="1.2" viewBox="0,0,128,128" width="128" xmlns="http://www.w3.org/2000/svg" xmlns:ev="http://www.w3.org/2001/xml-events" xmlns:xlink="http://www.w3.org/1999/xlink"><defs /><polyline fill="none" points="34.278,22.9966 31.2407,23.4305 22.9966,39.4847 9.9797,72.461 8.678,99.7966 12.1492,106.739 21.261,114.5492 27.3356,117.1525 33.4102,118.8881 48.1627,119.322 57.7085,117.1525 72.8949,109.7763 86.7797,98.4949 94.5898,84.6102 101.0983,60.7458 101.0983,34.7119 97.1932,24.7322 85.0441,12.5831 75.9322,9.1119 53.3695,8.678 50.3322,10.8475 44.2576,10.8475 43.8237,12.5831" stroke="#00007f" stroke-width="2" /><polyline fill="none" points="32.9763,17.7898 36.4475,16.4881 49.8983,21.6949 81.139,39.4847 87.6475,44.6915 93.722,52.9356 92.8542,59.0102" stroke="#7cff79" stroke-width="2" /><polyline fill="none" points="19.5254,52.0678 28.2034,56.8407 62.9153,68.5559 72.461,74.6305 81.5729,83.7424 85.478,89.8169 89.3831,90.6847" stroke="#7f0000" stroke-width="2" /></svg>