<?xml version="1.0" encoding="utf-8" ?>
<svg baseProfile="tiny" height="128" version="1.2" viewBox="0,0,128,128" width="128" xmlns="http://www.w3.org/2000/svg" xmlns:ev="http://www.w3.org/2001/xml-events" xmlns:xlink="http://www.w3.org/1999/xlink"><defs /><polyline fill="none" points="59.0102,12.5831 65.5186,9.9797 73.3288,9.9797 85.9119,15.1864 95.8915,25.6 100.6644,35.5797 103.7017,46.4271 103.2678,64.6508 100.6644,77.2339 95.8915,89.8169 85.0441,105.8712 75.0644,113.6814 68.9898,116.7186 57.7085,119.322 51.2,119.322 39.0508,116.2847 28.6373,111.5119 20.3932,104.5695 13.8847,95.8915 9.9797,86.3458 8.678,75.4983 10.8475,57.7085 17.7898,42.0881 25.1661,32.5424 37.7492,21.261 46.4271,15.1864 59.0102,10.4136 70.2915,8.678" stroke="#00007f" stroke-width="2" /><polyline fill="none" points="87.2136,22.5627 80.2712,28.2034 72.8949,38.6169 69.8576,45.9932 68.5559,54.6712 72.0271,75.9322 82.8746,99.3627" stroke="#00d4ff" stroke-width="2" /><polyline fill="none" points="22.5627,42.0881 25.6,45.9932 34.7119,67.2542 38.1831,85.0441 38.1831,93.2881 36.4475,100.2305 32.1085,105.4373 27.7695,108.4746" stroke="#ffe500" stroke-width="2" /><polyline fill="none" points="82.4407,61.1797 30.3729,72.461" stroke="#7f0000" stroke-width="2" /></svg>