<?xml version="1.0" encoding="utf-8" ?>
<svg baseProfile="tiny" height="128" version="1.2" viewBox="0,0,128,128" width="128" xmlns="http://www.w3.org/2000/svg" xmlns:ev="http://www.w3.org/2001/xml-events" xmlns:xlink="http://www.w3.org/1999/xlink"><defs /><polyline fill="none" points="24.2983,71.5932 16.0542,71.1593 11.7153,73.3288 8.678,79.4034 9.1119,85.9119 12.5831,93.2881 19.0915,98.4949 23.8644,100.6644 27.7695,100.6644 33.4102,98.061 36.8814,90.6847 36.8814,84.6102 31.6746,73.3288 26.9017,68.5559" stroke="#00007f" stroke-width="2" /><polyline fill="none" points="9.5458,80.7051 12.5831,82.8746" stroke="#0000f1" stroke-width="2" /><polyline fill="none" points="18.6576,82.0068 22.9966,79.4034" stroke="#004cff" stroke-width="2" /><polyline fill="none" points="25.1661,77.2339 25.1661,69.8576" stroke="#00b0ff" stroke-width="2" /><polyline fill="none" points="19.9593,96.7593 20.3932,91.5525" stroke="#29ffcd" stroke-width="2" /><polyline fill="none" points="24.2983,89.3831 28.6373,87.6475" stroke="#7cff79" stroke-width="2" /><polyline fill="none" points="32.5424,86.7797 37.3153,86.7797" stroke="#cdff29" stroke-width="2" /><polyline fill="none" points="19.9593,93.2881 19.9593,89.8169 21.6949,88.5153 33.8441,87.6475" stroke="#ffc400" stroke-width="2" /><polyline fill="none" points="11.2814,79.4034 11.7153,81.139 20.3932,80.7051 22.5627,76.8 23.4305,69.4237" stroke="#ff6700" stroke-width="2" /><polyline fill="none" points="117.5864,98.061 101.9661,75.4983 92.4203,64.6508 88.9492,61.6136 62.9153,48.5966 54.6712,40.3525 50.3322,31.2407 49.8983,14.7525 52.5017,10.4136 57.2746,8.678 69.8576,9.1119 76.3661,13.4508 82.4407,21.261 93.722,41.2203 102.4,65.9525 119.322,97.6271 118.0203,99.3627 116.2847,98.061" stroke="#f10700" stroke-width="2" /><polyline fill="none" points="111.9458,89.8169 113.2475,85.9119" stroke="#7f0000" stroke-width="2" /></svg>