<?xml version="1.0" encoding="utf-8" ?>
<svg baseProfile="tiny" height="128" version="1.2" viewBox="0,0,128,128" width="128" xmlns="http://www.w3.org/2000/svg" xmlns:ev="http://www.w3.org/2001/xml-events" xmlns:xlink="http://www.w3.org/1999/xlink"><defs /><polyline fill="none" points="58.5763,13.0169 51.6339,14.3186 24.2983,29.0712 19.0915,33.4102 14.3186,40.3525 9.5458,54.2373 8.678,65.9525 9.9797,71.1593 14.3186,75.4983 20.3932,78.5356 50.3322,88.5153 59.878,90.2508 98.061,88.9492 105.0034,82.4407 111.078,60.7458 109.7763,51.2 105.4373,43.3898 100.6644,36.0136 96.7593,32.1085 83.3085,26.4678 61.6136,19.9593 52.0678,15.1864" stroke="#00007f" stroke-width="2" /><polyline fill="none" points="22.9966,30.3729 22.9966,63.7831 21.261,78.9695" stroke="#004cff" stroke-width="2" /><polyline fill="none" points="37.3153,19.5254 40.7864,42.0881 48.1627,77.6678 48.1627,78.9695 46.4271,78.1017 44.2576,75.0644" stroke="#29ffcd" stroke-width="2" /><polyline fill="none" points="56.8407,8.678 58.5763,23.4305 58.5763,79.8373" stroke="#cdff29" stroke-width="2" /><polyline fill="none" points="82.4407,19.0915 82.4407,61.1797 85.9119,84.1763" stroke="#ff6700" stroke-width="2" /><polyline fill="none" points="12.1492,49.0305 21.6949,47.7288 97.6271,29.5051 119.322,27.7695" stroke="#7f0000" stroke-width="2" /></svg>