<?xml version="1.0" encoding="utf-8" ?>
<svg baseProfile="tiny" height="128" version="1.2" viewBox="0,0,128,128" width="128" xmlns="http://www.w3.org/2000/svg" xmlns:ev="http://www.w3.org/2001/xml-events" xmlns:xlink="http://www.w3.org/1999/xlink"><defs /><polyline fill="none" points="117.5864,24.7322 111.9458,18.6576 103.7017,13.0169 98.9288,11.2814 82.8746,8.678 64.2169,8.678 55.539,10.8475 32.9763,24.7322 22.5627,34.7119 14.7525,45.1254 9.9797,55.1051 8.678,65.0847 9.1119,75.0644 13.8847,84.6102 20.8271,92.4203 27.7695,96.3254 37.3153,99.3627 63.3492,99.7966 95.0237,91.1186 102.4,87.6475 109.3424,82.4407 114.9831,75.0644 118.0203,65.5186 119.322,46.4271 111.078,23.8644 108.0407,21.6949" stroke="#00007f" stroke-width="2" /><polyline fill="none" points="30.8068,25.6 36.4475,35.1458 47.7288,67.6881 48.5966,92.4203 46.4271,98.9288" stroke="#7cff79" stroke-width="2" /><polyline fill="none" points="111.9458,15.6203 108.4746,16.922 103.2678,22.1288 97.1932,30.3729 92.8542,38.1831 89.8169,47.7288 90.2508,75.9322 99.3627,87.6475" stroke="#7f0000" stroke-width="2" /></svg>