<?xml version="1.0" encoding="utf-8" ?>
<svg baseProfile="tiny" height="128" version="1.2" viewBox="0,0,128,128" width="128" xmlns="http://www.w3.org/2000/svg" xmlns:ev="http://www.w3.org/2001/xml-events" xmlns:xlink="http://www.w3.org/1999/xlink"><defs /><polyline fill="none" points="85.9119,15.6203 22.9966,16.4881 11.2814,35.5797 8.678,42.9559 8.678,61.6136 14.3186,78.1017 22.1288,90.2508 25.6,92.8542 58.5763,96.3254 80.2712,96.3254 84.6102,95.0237 95.4576,88.5153 105.8712,76.8 111.5119,67.6881 117.1525,53.3695 119.322,39.9186 119.322,25.6 112.8136,21.6949 105.8712,20.3932 92.4203,15.1864 85.9119,14.3186 85.0441,17.7898 72.461,29.939 71.1593,63.3492 72.8949,69.8576 76.3661,75.9322 94.1559,94.1559" stroke="#00007f" stroke-width="2" /><polyline fill="none" points="20.8271,8.678 44.2576,31.2407 58.1424,64.2169 54.6712,67.6881 44.6915,84.1763 34.278,91.5525" stroke="#7cff79" stroke-width="2" /><polyline fill="none" points="16.4881,54.2373 79.8373,51.6339 107.6068,48.5966" stroke="#7f0000" stroke-width="2" /></svg>