<?xml version="1.0" encoding="utf-8" ?>
<svg baseProfile="tiny" height="128" version="1.2" viewBox="0,0,128,128" width="128" xmlns="http://www.w3.org/2000/svg" xmlns:ev="http://www.w3.org/2001/xml-events" xmlns:xlink="http://www.w3.org/1999/xlink"><defs /><polyline fill="none" points="74.1966,9.5458 62.0475,9.5458 40.3525,16.0542 21.6949,29.5051 11.2814,48.5966 8.678,71.1593 10.8475,87.2136 15.6203,101.0983 26.4678,110.6441 40.7864,116.2847 68.9898,119.322 86.3458,114.1153 91.1186,110.6441 95.8915,104.5695 106.739,77.2339 108.0407,55.9729 104.1356,42.522 92.4203,25.6 72.8949,16.0542" stroke="#00007f" stroke-width="2" /><polyline fill="none" points="76.8,8.678 70.7254,8.678" stroke="#00d4ff" stroke-width="2" /><polyline fill="none" points="54.6712,12.1492 57.7085,32.9763 55.9729,67.6881 53.3695,77.2339 38.6169,102.8339 29.939,110.6441 25.1661,112.8136 29.0712,110.6441" stroke="#ffe500" stroke-width="2" /><polyline fill="none" points="97.1932,34.278 91.9864,42.0881 84.6102,68.9898 83.3085,93.2881 84.6102,106.3051" stroke="#7f0000" stroke-width="2" /></svg>