<?xml version="1.0" encoding="utf-8" ?>
<svg baseProfile="tiny" height="128" version="1.2" viewBox="0,0,128,128" width="128" xmlns="http://www.w3.org/2000/svg" xmlns:ev="http://www.w3.org/2001/xml-events" xmlns:xlink="http://www.w3.org/1999/xlink"><defs /><polyline fill="none" points="61.6136,11.7153 43.3898,12.1492 31.2407,16.4881 19.0915,26.0339 9.9797,40.7864 8.678,51.2 8.678,74.6305 14.7525,87.2136 22.5627,97.6271 36.4475,107.6068 61.6136,115.4169 91.5525,115.8508 95.4576,111.078 105.8712,103.2678 115.4169,90.6847 118.8881,78.9695 119.322,69.4237 110.2102,56.8407 80.7051,36.0136" stroke="#00007f" stroke-width="2" /><polyline fill="none" points="55.1051,8.678 72.461,11.7153 78.5356,15.6203 95.0237,22.1288 100.2305,27.3356 111.078,48.5966 113.6814,63.7831" stroke="#00d4ff" stroke-width="2" /><polyline fill="none" points="34.7119,13.8847 48.5966,14.7525 54.6712,17.3559 85.0441,37.3153" stroke="#ffe500" stroke-width="2" /><polyline fill="none" points="11.2814,50.7661 19.5254,50.7661 32.9763,55.539 60.3119,67.2542 69.4237,72.8949 78.1017,80.2712 87.2136,91.1186 91.1186,102.4 91.1186,110.2102 90.2508,108.4746" stroke="#7f0000" stroke-width="2" /></svg>