<?xml version="1.0" encoding="utf-8" ?>
<svg baseProfile="tiny" height="128" version="1.2" viewBox="0,0,128,128" width="128" xmlns="http://www.w3.org/2000/svg" xmlns:ev="http://www.w3.org/2001/xml-events" xmlns:xlink="http://www.w3.org/1999/xlink"><defs /><polyline fill="none" points="71.8367,13.4966 55.2925,10.8844 40.4898,10.8844 26.1224,13.4966 18.2857,20.0272 14.8027,26.9932 8.7075,47.0204 8.7075,61.8231 14.8027,74.0136 21.3333,77.932 28.7347,80.1088 62.6939,81.415 77.932,77.0612 84.0272,74.449 106.2313,57.4694 115.8095,47.8912 119.2925,40.9252 118.8571,36.5714 111.4558,22.2041 100.5714,14.3673 77.0612,10.0136 38.3129,9.1429" stroke="#00007f" stroke-width="2" /><polyline fill="none" points="46.585,13.0612 37.8776,20.0272 31.7823,28.2993 25.2517,49.6327 24.8163,64.8707 28.7347,77.932 31.7823,82.7211 38.3129,86.6395" stroke="#004cff" stroke-width="2" /><polyline fill="none" points="67.9184,8.7075 78.3673,17.415 80.1088,25.6871 80.1088,40.0544 77.932,56.5986 75.3197,66.1769 70.0952,76.6259 64.8707,82.2857" stroke="#29ffcd" stroke-width="2" /><polyline fill="none" points="28.7347,29.1701 43.102,29.6054" stroke="#cdff29" stroke-width="2" /><polyline fill="none" points="10.8844,45.7143 25.2517,45.7143" stroke="#ff6700" stroke-width="2" /><polyline fill="none" points="16.9796,60.9524 30.9116,56.5986" stroke="#7f0000" stroke-width="2" /></svg>