<?xml version="1.0" encoding="utf-8" ?>
<svg baseProfile="tiny" height="128" version="1.2" viewBox="0,0,128,128" width="128" xmlns="http://www.w3.org/2000/svg" xmlns:ev="http://www.w3.org/2001/xml-events" xmlns:xlink="http://www.w3.org/1999/xlink"><defs /><polyline fill="none" points="73.5782,9.1429 61.8231,8.7075 50.5034,10.449 38.7483,14.8027 28.7347,20.898 19.5918,30.4762 13.4966,41.3605 9.5782,52.2449 8.7075,64.4354 11.3197,73.1429 16.1088,81.415 32.2177,97.0884 37.8776,100.1361 52.6803,104.4898 75.7551,106.6667 94.0408,100.1361 100.5714,95.3469 107.9728,87.5102 114.9388,75.7551 118.8571,66.6122 119.2925,43.102 115.3741,30.9116 111.4558,24.381 102.7483,16.5442 80.1088,11.3197 53.551,10.8844" stroke="#00007f" stroke-width="2" /><polyline fill="none" points="43.5374,13.4966 43.9728,50.068 42.6667,60.0816 38.3129,72.7075 26.1224,89.6871" stroke="#7cff79" stroke-width="2" /><polyline fill="none" points="90.5578,14.3673 85.3333,47.4558 84.898,70.966 88.8163,88.381 96.6531,101.8776" stroke="#7f0000" stroke-width="2" /></svg>