<?xml version="1.0" encoding="utf-8" ?>
<svg baseProfile="tiny" height="128" version="1.2" viewBox="0,0,128,128" width="128" xmlns="http://www.w3.org/2000/svg" xmlns:ev="http://www.w3.org/2001/xml-events" xmlns:xlink="http://www.w3.org/1999/xlink"><defs /><polyline fill="none" points="47.4558,18.2857 39.619,19.5918 28.7347,27.4286 17.8503,43.5374 13.932,55.2925 9.5782,78.3673 8.7075,100.5714 10.8844,108.4082 13.932,113.6327 20.4626,119.2925 32.6531,118.4218 55.7279,104.0544 64.8707,94.9116 75.3197,75.7551 80.5442,56.1633 81.8503,45.7143 80.9796,25.6871 78.3673,19.1565 74.0136,13.932 70.0952,11.3197 56.1633,8.7075 43.5374,9.1429 40.0544,10.8844 39.1837,16.5442" stroke="#00007f" stroke-width="2" /><polyline fill="none" points="25.2517,28.7347 37.0068,42.2313 38.3129,57.034 36.5714,64.4354 28.2993,84.898 25.6871,101.8776 22.2041,108.4082 16.1088,115.3741" stroke="#7cff79" stroke-width="2" /><polyline fill="none" points="64.8707,14.3673 59.2109,30.4762 51.8095,61.8231 51.3741,68.7891 56.5986,90.1224 66.6122,104.4898" stroke="#7f0000" stroke-width="2" /></svg>