<?xml version="1.0" encoding="utf-8" ?>
<svg baseProfile="tiny" height="128" version="1.2" viewBox="0,0,128,128" width="128" xmlns="http://www.w3.org/2000/svg" xmlns:ev="http://www.w3.org/2001/xml-events" xmlns:xlink="http://www.w3.org/1999/xlink"><defs /><polyline fill="none" points="72.0271,8.678 52.0678,8.678 40.3525,11.7153 26.4678,22.9966 11.2814,40.7864 8.678,50.3322 8.678,68.9898 15.6203,92.4203 22.5627,106.3051 25.6,109.3424 36.0136,114.9831 49.4644,117.5864 98.4949,117.5864 98.4949,29.5051" stroke="#00007f" stroke-width="2" /><polyline fill="none" points="98.4949,113.6814 116.2847,93.722" stroke="#004cff" stroke-width="2" /><polyline fill="none" points="75.4983,10.4136 75.4983,10.4136" stroke="#29ffcd" stroke-width="2" /><polyline fill="none" points="75.4983,10.4136 75.4983,10.4136" stroke="#cdff29" stroke-width="2" /><polyline fill="none" points="97.6271,111.9458 104.1356,111.078 113.6814,98.061 119.322,71.1593 119.322,50.7661 111.5119,34.7119 102.4,21.261 95.0237,16.4881 76.8,9.9797" stroke="#ff6700" stroke-width="2" /><polyline fill="none" points="91.9864,16.922 88.5153,18.2237 85.0441,22.5627 82.4407,31.2407 80.7051,97.6271 82.0068,100.6644 98.9288,111.5119 101.0983,114.9831" stroke="#7f0000" stroke-width="2" /></svg>