<?xml version="1.0" encoding="utf-8" ?>
<svg baseProfile="tiny" height="128" version="1.2" viewBox="0,0,128,128" width="128" xmlns="http://www.w3.org/2000/svg" xmlns:ev="http://www.w3.org/2001/xml-events" xmlns:xlink="http://www.w3.org/1999/xlink"><defs /><polyline fill="none" points="43.8237,19.0915 25.1661,25.1661 18.6576,29.0712 14.7525,32.1085 9.1119,42.0881 8.678,61.1797 13.8847,87.6475 16.0542,94.1559 21.6949,105.0034 26.4678,108.9085 36.8814,112.8136 55.1051,115.4169 73.7627,115.4169 85.478,112.3797 96.3254,104.5695 105.8712,94.1559 115.4169,78.1017 118.8881,69.4237 119.322,63.3492 117.5864,53.8034 111.5119,44.2576 91.9864,27.7695 74.1966,15.6203 61.1797,10.8475 52.0678,9.1119 26.0339,8.678" stroke="#00007f" stroke-width="2" /><polyline fill="none" points="45.5593,20.8271 49.0305,29.5051 49.8983,37.3153 50.3322,78.5356 47.7288,91.9864 42.9559,107.1729" stroke="#7cff79" stroke-width="2" /><polyline fill="none" points="51.2,19.9593 52.9356,29.939 52.5017,53.8034 50.3322,65.9525 49.8983,82.0068 45.1254,104.5695" stroke="#7f0000" stroke-width="2" /></svg>