<?xml version="1.0" encoding="utf-8" ?>
<svg baseProfile="tiny" height="128" version="1.2" viewBox="0,0,128,128" width="128" xmlns="http://www.w3.org/2000/svg" xmlns:ev="http://www.w3.org/2001/xml-events" xmlns:xlink="http://www.w3.org/1999/xlink"><defs /><polyline fill="none" points="93.722,16.922 84.6102,12.1492 64.6508,9.9797 46.861,10.4136 27.7695,15.1864 19.0915,21.6949 15.1864,26.0339 11.2814,33.8441 8.678,46.861 9.9797,58.5763 13.8847,68.5559 18.2237,74.6305 27.7695,82.0068 46.861,91.1186 57.7085,93.2881 69.4237,93.2881 81.139,91.1186 94.5898,86.7797 103.2678,80.7051 108.4746,75.4983 117.1525,58.5763 119.322,49.0305 118.8881,43.3898 115.8508,35.5797 108.4746,24.7322 103.7017,20.8271 93.722,15.1864 77.6678,11.2814" stroke="#00007f" stroke-width="2" /><polyline fill="none" points="48.5966,8.678 53.8034,15.1864 60.7458,31.6746 62.0475,38.6169 61.6136,47.2949 50.3322,67.2542 42.9559,72.461 26.0339,78.1017" stroke="#7cff79" stroke-width="2" /><polyline fill="none" points="102.4,22.5627 96.7593,22.9966 86.3458,30.8068 81.5729,37.7492 74.6305,53.3695 71.1593,68.9898 72.0271,72.8949 73.7627,78.9695 84.1763,92.4203" stroke="#7f0000" stroke-width="2" /></svg>