<?xml version="1.0" encoding="utf-8" ?>
<svg baseProfile="tiny" height="128" version="1.2" viewBox="0,0,128,128" width="128" xmlns="http://www.w3.org/2000/svg" xmlns:ev="http://www.w3.org/2001/xml-events" xmlns:xlink="http://www.w3.org/1999/xlink"><defs /><polyline fill="none" points="26.0339,19.0915 20.3932,25.1661 12.1492,41.2203 9.9797,50.3322 8.678,64.6508 13.0169,78.9695 27.7695,94.1559 40.7864,101.0983 51.2,104.1356 73.7627,104.1356 85.0441,100.6644 101.9661,91.5525 109.3424,85.478 114.9831,78.1017 119.322,64.2169 116.7186,45.5593 113.2475,36.4475 106.3051,25.1661 92.8542,14.3186 75.9322,8.678 59.0102,9.5458 43.3898,13.4508 23.8644,23.4305" stroke="#00007f" stroke-width="2" /><polyline fill="none" points="15.6203,27.3356 33.8441,45.1254 39.0508,53.3695 41.2203,59.4441 40.7864,73.3288 33.4102,97.1932 35.1458,100.2305" stroke="#0000ff" stroke-width="2" /><polyline fill="none" points="95.0237,20.3932 91.9864,21.261 87.2136,26.4678 84.1763,35.1458 82.8746,56.4068 85.0441,68.5559 89.8169,77.2339 95.4576,81.5729 101.5322,83.7424 107.1729,83.3085 108.4746,82.0068" stroke="#0080ff" stroke-width="2" /><polyline fill="none" points="33.4102,85.478 40.3525,87.6475" stroke="#15ffe1" stroke-width="2" /><polyline fill="none" points="35.1458,73.3288 40.3525,71.5932" stroke="#7cff79" stroke-width="2" /><polyline fill="none" points="30.3729,52.9356 36.4475,46.4271" stroke="#e4ff12" stroke-width="2" /><polyline fill="none" points="23.4305,36.4475 27.7695,34.278" stroke="#ff9400" stroke-width="2" /><polyline fill="none" points="73.7627,30.8068 85.478,30.8068" stroke="#ff1d00" stroke-width="2" /><polyline fill="none" points="90.6847,52.5017 90.6847,52.5017" stroke="#7f0000" stroke-width="2" /></svg>