<?xml version="1.0" encoding="utf-8" ?>
<svg baseProfile="tiny" height="128" version="1.2" viewBox="0,0,128,128" width="128" xmlns="http://www.w3.org/2000/svg" xmlns:ev="http://www.w3.org/2001/xml-events" xmlns:xlink="http://www.w3.org/1999/xlink"><defs /><polyline fill="none" points="38.6169,18.6576 27.3356,20.3932 21.261,22.9966 14.7525,31.2407 12.1492,38.1831 10.8475,49.4644 12.1492,58.1424 18.2237,78.9695 25.6,92.4203 32.5424,100.6644 42.9559,108.0407 50.7661,112.3797 62.4814,115.4169 74.6305,115.4169 85.9119,112.8136 98.4949,104.5695 107.6068,94.5898 111.078,88.5153 113.6814,79.8373 114.1153,70.7254 109.3424,52.9356 94.1559,31.2407 85.478,22.5627 72.8949,14.3186 59.0102,10.4136 45.5593,11.2814 36.4475,15.1864 30.8068,21.6949 28.2034,27.7695" stroke="#00007f" stroke-width="2" /><polyline fill="none" points="8.678,38.6169 24.7322,38.1831 35.1458,41.2203 45.1254,46.4271 52.5017,52.0678 56.8407,57.7085 61.6136,64.6508 65.9525,78.1017 70.7254,107.1729 71.1593,117.5864 70.2915,119.322" stroke="#00d4ff" stroke-width="2" /><polyline fill="none" points="64.2169,8.678 59.0102,19.5254 56.8407,36.4475 60.7458,55.9729 66.8203,70.7254 72.461,78.9695 86.3458,90.2508 99.3627,95.4576 110.6441,97.6271" stroke="#ffe500" stroke-width="2" /><polyline fill="none" points="22.5627,91.5525 25.6,85.0441 35.5797,73.3288 46.861,64.2169 68.9898,51.2 77.2339,48.1627 90.6847,45.1254 113.6814,50.3322" stroke="#7f0000" stroke-width="2" /></svg>