<?xml version="1.0" encoding="utf-8" ?>
<svg baseProfile="tiny" height="128" version="1.2" viewBox="0,0,128,128" width="128" xmlns="http://www.w3.org/2000/svg" xmlns:ev="http://www.w3.org/2001/xml-events" xmlns:xlink="http://www.w3.org/1999/xlink"><defs /><polyline fill="none" points="101.9661,33.4102 98.9288,24.2983 93.722,19.5254 89.8169,17.3559 75.4983,13.4508 50.7661,12.5831 38.1831,15.6203 23.4305,23.4305 17.3559,31.2407 12.5831,41.2203 8.678,56.8407 8.678,96.3254 10.8475,105.4373 22.5627,112.8136 34.278,116.2847 66.3864,116.2847 93.722,112.3797 110.6441,103.7017 114.5492,99.3627 117.5864,88.9492 119.322,70.7254 118.4542,32.9763 113.2475,23.4305 105.4373,15.6203 94.1559,8.678 89.8169,8.678" stroke="#00007f" stroke-width="2" /><polyline fill="none" points="42.9559,16.4881 42.0881,36.0136 29.0712,88.0814 27.3356,103.7017 25.6,107.6068 25.1661,101.9661" stroke="#00d4ff" stroke-width="2" /><polyline fill="none" points="104.5695,22.5627 104.5695,42.0881 98.4949,70.2915 95.8915,87.2136 95.8915,97.6271 96.7593,101.0983 98.4949,101.9661" stroke="#ffe500" stroke-width="2" /><polyline fill="none" points="32.9763,33.4102 40.7864,34.278" stroke="#7f0000" stroke-width="2" /></svg>