<?xml version="1.0" encoding="utf-8" ?>
<svg baseProfile="tiny" height="128" version="1.2" viewBox="0,0,128,128" width="128" xmlns="http://www.w3.org/2000/svg" xmlns:ev="http://www.w3.org/2001/xml-events" xmlns:xlink="http://www.w3.org/1999/xlink"><defs /><polyline fill="none" points="22.1288,80.2712 17.7898,77.2339 12.5831,69.4237 9.9797,60.3119 8.678,49.4644 9.5458,39.4847 12.5831,29.0712 15.6203,24.2983 21.6949,19.5254 31.6746,14.7525 49.0305,10.4136 77.6678,8.678 95.0237,15.6203 104.1356,22.1288 111.078,30.8068 118.0203,44.6915 119.322,62.0475 114.9831,77.6678 111.9458,82.8746 109.3424,85.0441 74.1966,90.2508 54.2373,91.9864 40.3525,91.5525 29.939,88.5153 22.9966,82.8746 12.1492,65.5186" stroke="#00007f" stroke-width="2" /><polyline fill="none" points="32.5424,16.4881 34.278,16.0542 35.5797,17.7898 48.5966,44.2576 53.3695,57.7085 53.8034,69.8576 49.0305,79.8373 45.5593,83.7424 45.1254,86.7797" stroke="#0010ff" stroke-width="2" /><polyline fill="none" points="86.3458,15.1864 84.6102,16.0542 80.2712,25.6 74.6305,65.9525 74.6305,78.9695 78.9695,93.2881" stroke="#00a4ff" stroke-width="2" /><polyline fill="none" points="72.461,86.3458 85.9119,82.4407 87.6475,81.5729 88.9492,77.6678" stroke="#3fffb7" stroke-width="2" /><polyline fill="none" points="70.2915,67.2542 78.5356,66.3864" stroke="#b7ff3f" stroke-width="2" /><polyline fill="none" points="75.4983,55.1051 83.3085,49.8983" stroke="#ffb900" stroke-width="2" /><polyline fill="none" points="82.4407,28.2034 84.6102,26.9017 82.0068,25.6 67.2542,26.0339" stroke="#ff3000" stroke-width="2" /><polyline fill="none" points="59.0102,27.3356 46.861,31.2407" stroke="#7f0000" stroke-width="2" /></svg>