<?xml version="1.0" encoding="utf-8" ?>
<svg baseProfile="tiny" height="128" version="1.2" viewBox="0,0,128,128" width="128" xmlns="http://www.w3.org/2000/svg" xmlns:ev="http://www.w3.org/2001/xml-events" xmlns:xlink="http://www.w3.org/1999/xlink"><defs /><polyline fill="none" points="65.9525,12.5831 53.8034,8.678 40.7864,9.9797 27.3356,22.5627 21.261,32.1085 11.7153,54.2373 9.1119,66.8203 8.678,88.0814 12.1492,96.3254 18.6576,103.2678 26.0339,109.3424 34.7119,114.1153 54.6712,119.322 73.7627,118.4542 82.4407,115.4169 88.9492,110.2102 94.5898,103.2678 98.061,93.722 100.6644,83.3085 101.0983,72.0271 101.0983,61.1797 99.3627,50.7661 95.8915,42.0881 91.1186,34.278 85.0441,28.2034 77.6678,23.4305 61.6136,16.4881 54.2373,15.1864 40.3525,16.0542" stroke="#00007f" stroke-width="2" /><polyline fill="none" points="96.3254,29.0712 88.0814,29.0712 84.1763,31.2407 76.3661,38.1831 72.8949,43.3898 68.5559,55.9729 69.4237,69.4237 72.8949,75.0644 82.4407,82.8746 95.0237,85.478 106.739,85.0441" stroke="#00d4ff" stroke-width="2" /><polyline fill="none" points="28.6373,26.0339 29.0712,24.2983 39.4847,23.4305 47.7288,29.0712 51.2,37.7492 50.7661,48.5966 37.7492,64.6508 27.3356,70.2915 20.3932,70.7254" stroke="#ffe500" stroke-width="2" /><polyline fill="none" points="47.7288,22.5627 49.0305,25.1661 42.522,28.2034 52.5017,32.5424 55.539,36.0136 45.1254,42.0881 51.2,46.861 51.2,49.8983 47.7288,52.9356 28.2034,63.3492 27.3356,72.0271" stroke="#7f0000" stroke-width="2" /></svg>