<?xml version="1.0" encoding="utf-8" ?>
<svg baseProfile="tiny" height="128" version="1.2" viewBox="0,0,128,128" width="128" xmlns="http://www.w3.org/2000/svg" xmlns:ev="http://www.w3.org/2001/xml-events" xmlns:xlink="http://www.w3.org/1999/xlink"><defs /><polyline fill="none" points="44.2576,8.678 32.9763,10.8475 22.5627,16.4881 15.6203,22.9966 12.5831,31.2407 8.678,53.3695 8.678,77.2339 9.9797,83.7424 18.2237,103.7017 26.9017,113.2475 33.8441,117.5864 41.2203,119.322 64.2169,119.322 87.2136,111.078 96.7593,105.0034 103.2678,98.4949 106.739,93.722 112.8136,72.8949 113.2475,57.7085 108.9085,47.2949 103.7017,40.7864 87.6475,27.7695 78.5356,22.5627 65.9525,16.922 41.2203,13.0169" stroke="#00007f" stroke-width="2" /><polyline fill="none" points="44.2576,10.4136 44.6915,20.3932 38.1831,44.2576 26.4678,68.122 13.0169,89.8169" stroke="#7cff79" stroke-width="2" /><polyline fill="none" points="42.0881,16.0542 42.522,57.2746 45.1254,74.1966 48.5966,88.0814 52.9356,98.9288 57.7085,105.8712 62.4814,108.4746" stroke="#7f0000" stroke-width="2" /></svg>