<?xml version="1.0" encoding="utf-8" ?>
<svg baseProfile="tiny" height="128" version="1.2" viewBox="0,0,128,128" width="128" xmlns="http://www.w3.org/2000/svg" xmlns:ev="http://www.w3.org/2001/xml-events" xmlns:xlink="http://www.w3.org/1999/xlink"><defs /><polyline fill="none" points="58.5763,10.8475 68.9898,8.678 75.4983,9.5458 82.8746,13.8847 105.8712,33.8441 118.4542,56.8407 119.322,69.4237 116.2847,82.8746 108.9085,96.3254 98.4949,102.8339 76.8,109.7763 59.0102,111.078 45.1254,108.9085 34.7119,104.5695 22.1288,92.8542 13.8847,82.8746 8.678,64.2169 9.5458,51.6339 13.8847,42.0881 26.4678,25.1661 31.6746,22.1288 47.2949,18.2237 62.9153,16.0542" stroke="#00007f" stroke-width="2" /><polyline fill="none" points="22.1288,26.4678 70.2915,74.1966 93.2881,101.5322" stroke="#7cff79" stroke-width="2" /><polyline fill="none" points="36.0136,94.1559 42.0881,92.4203 55.539,79.4034 66.8203,63.3492 78.5356,52.5017 83.7424,42.9559" stroke="#7f0000" stroke-width="2" /></svg>