<?xml version="1.0" encoding="utf-8" ?>
<svg baseProfile="tiny" height="128" version="1.2" viewBox="0,0,128,128" width="128" xmlns="http://www.w3.org/2000/svg" xmlns:ev="http://www.w3.org/2001/xml-events" xmlns:xlink="http://www.w3.org/1999/xlink"><defs /><polyline fill="none" points="51.6339,29.939 48.1627,30.3729 39.4847,37.3153 26.4678,50.7661 10.8475,70.2915 8.678,90.2508 18.2237,111.078 26.0339,115.4169 38.6169,118.4542 50.3322,119.322 80.2712,114.5492 89.8169,111.5119 95.0237,108.4746 101.0983,101.5322 112.3797,84.6102 117.5864,68.9898 113.6814,57.2746 101.0983,28.6373 83.7424,9.1119 75.4983,8.678 68.5559,18.2237 62.4814,21.261 58.1424,28.2034 54.2373,30.8068" stroke="#00007f" stroke-width="2" /><polyline fill="none" points="36.4475,112.8136 49.0305,76.3661 68.9898,36.4475 76.3661,17.7898" stroke="#004cff" stroke-width="2" /><polyline fill="none" points="75.4983,109.7763 77.6678,88.9492 85.478,75.4983 93.722,54.2373 105.0034,37.7492" stroke="#29ffcd" stroke-width="2" /><polyline fill="none" points="35.5797,94.5898 42.9559,97.6271" stroke="#cdff29" stroke-width="2" /><polyline fill="none" points="41.6542,82.8746 50.3322,85.0441 52.0678,87.2136" stroke="#ff6700" stroke-width="2" /><polyline fill="none" points="45.5593,67.2542 53.3695,69.4237" stroke="#7f0000" stroke-width="2" /></svg>