<?xml version="1.0" encoding="utf-8" ?>
<svg baseProfile="tiny" height="128" version="1.2" viewBox="0,0,128,128" width="128" xmlns="http://www.w3.org/2000/svg" xmlns:ev="http://www.w3.org/2001/xml-events" xmlns:xlink="http://www.w3.org/1999/xlink"><defs /><polyline fill="none" points="80.7051,22.9966 73.3288,20.8271 45.1254,21.6949 29.5051,32.5424 13.4508,59.0102 8.678,77.6678 9.1119,96.3254 13.0169,105.4373 20.8271,110.6441 42.0881,117.1525 61.6136,112.8136 85.0441,97.6271 88.9492,96.3254 98.4949,88.9492 114.1153,66.3864 118.4542,52.9356 119.322,41.6542 115.8508,32.9763 106.3051,22.9966 78.1017,10.8475 63.3492,8.678 58.1424,8.678 54.2373,10.8475" stroke="#00007f" stroke-width="2" /><polyline fill="none" points="56.8407,25.6 55.539,42.9559 53.3695,49.8983 45.1254,59.4441 36.0136,65.9525 24.2983,82.8746 24.2983,97.1932 27.7695,107.6068 28.2034,117.5864" stroke="#7cff79" stroke-width="2" /><polyline fill="none" points="74.6305,27.3356 74.1966,43.8237 60.3119,64.6508 60.3119,76.3661 71.5932,91.5525 75.4983,101.5322" stroke="#7f0000" stroke-width="2" /></svg>