<?xml version="1.0" encoding="utf-8" ?>
<svg baseProfile="tiny" height="128" version="1.2" viewBox="0,0,128,128" width="128" xmlns="http://www.w3.org/2000/svg" xmlns:ev="http://www.w3.org/2001/xml-events" xmlns:xlink="http://www.w3.org/1999/xlink"><defs /><polyline fill="none" points="36.4475,101.0983 23.4305,89.8169 13.0169,76.3661 8.678,60.3119 8.678,50.3322 11.2814,41.6542 18.2237,28.6373 27.3356,19.0915 34.7119,14.7525 49.0305,10.4136 62.0475,8.678 82.8746,8.678 94.5898,13.8847 101.0983,19.9593 108.0407,28.6373 114.1153,40.7864 117.5864,53.8034 119.322,73.3288 118.0203,88.0814 110.2102,96.3254 103.7017,101.0983 57.2746,111.078 44.2576,109.7763 40.7864,103.7017 40.7864,95.0237" stroke="#00007f" stroke-width="2" /><polyline fill="none" points="42.9559,19.9593 40.7864,29.5051 40.7864,43.3898" stroke="#0080ff" stroke-width="2" /><polyline fill="none" points="50.7661,21.261 47.7288,25.1661 43.8237,75.4983 33.4102,101.5322" stroke="#7cff79" stroke-width="2" /><polyline fill="none" points="32.5424,28.2034 38.1831,54.6712 51.6339,72.461 61.6136,92.4203 72.0271,105.0034" stroke="#ff9400" stroke-width="2" /><polyline fill="none" points="56.4068,34.278 52.5017,48.1627 41.2203,59.0102 29.5051,75.4983 28.2034,86.7797" stroke="#7f0000" stroke-width="2" /></svg>