<?xml version="1.0" encoding="utf-8" ?>
<svg baseProfile="tiny" height="128" version="1.2" viewBox="0,0,128,128" width="128" xmlns="http://www.w3.org/2000/svg" xmlns:ev="http://www.w3.org/2001/xml-events" xmlns:xlink="http://www.w3.org/1999/xlink"><defs /><polyline fill="none" points="59.4441,8.678 45.9932,15.1864 36.0136,22.1288 26.0339,32.1085 16.0542,44.6915 10.4136,57.2746 8.678,70.7254 11.2814,83.7424 16.0542,96.7593 22.5627,106.739 29.5051,113.2475 36.4475,117.5864 45.5593,119.322 56.4068,118.0203 66.3864,113.6814 80.2712,100.6644 90.6847,85.0441 96.3254,68.9898 96.7593,54.2373 94.1559,45.1254 89.3831,37.7492 75.4983,26.9017 56.8407,20.8271" stroke="#00007f" stroke-width="2" /><polyline fill="none" points="53.8034,16.922 46.861,27.7695 47.2949,39.4847 53.8034,48.5966 61.6136,56.4068 66.3864,64.6508 65.0847,70.7254 45.5593,102.4" stroke="#7f0000" stroke-width="2" /></svg>