<?xml version="1.0" encoding="utf-8" ?>
<svg baseProfile="tiny" height="128" version="1.2" viewBox="0,0,128,128" width="128" xmlns="http://www.w3.org/2000/svg" xmlns:ev="http://www.w3.org/2001/xml-events" xmlns:xlink="http://www.w3.org/1999/xlink"><defs /><polyline fill="none" points="68.9898,8.678 56.8407,8.678 43.3898,13.4508 26.4678,21.6949 17.7898,29.0712 10.8475,39.9186 8.678,51.2 9.1119,59.4441 14.7525,70.7254 19.9593,76.3661 40.3525,88.9492 55.9729,93.2881 68.122,94.5898 84.1763,94.5898 93.722,93.2881 106.739,87.2136 112.8136,82.8746 118.0203,72.8949 119.322,55.539 117.5864,47.2949 114.1153,39.9186 102.4,23.8644 98.4949,20.3932 88.9492,14.7525 76.3661,12.1492 67.6881,12.5831" stroke="#00007f" stroke-width="2" /><polyline fill="none" points="42.522,16.922 41.6542,37.3153 37.7492,52.9356 32.1085,63.7831 26.4678,67.2542 24.7322,66.3864" stroke="#0080ff" stroke-width="2" /><polyline fill="none" points="103.2678,21.6949 91.5525,34.7119 81.5729,49.8983 77.2339,60.7458 70.7254,82.4407 71.1593,90.6847 73.7627,96.3254 76.3661,87.6475" stroke="#7cff79" stroke-width="2" /><polyline fill="none" points="82.0068,44.2576 87.6475,48.1627" stroke="#ff9400" stroke-width="2" /><polyline fill="none" points="75.9322,58.5763 77.2339,63.7831" stroke="#7f0000" stroke-width="2" /></svg>