<?xml version="1.0" encoding="utf-8" ?>
<svg baseProfile="tiny" height="128" version="1.2" viewBox="0,0,128,128" width="128" xmlns="http://www.w3.org/2000/svg" xmlns:ev="http://www.w3.org/2001/xml-events" xmlns:xlink="http://www.w3.org/1999/xlink"><defs /><polyline fill="none" points="67.6881,16.0542 58.5763,13.0169 48.1627,13.8847 36.8814,19.5254 22.5627,33.4102 14.7525,47.2949 9.5458,64.2169 8.678,78.5356 11.2814,91.1186 19.5254,104.1356 32.9763,113.6814 49.0305,118.8881 65.5186,119.322 79.4034,116.2847 91.5525,109.3424 102.8339,99.3627 111.5119,87.6475 114.5492,82.4407 117.1525,70.7254 117.5864,57.7085 114.1153,39.9186 108.9085,29.939 102.4,21.261 93.722,15.6203 83.7424,12.1492 65.9525,10.8475" stroke="#00007f" stroke-width="2" /><polyline fill="none" points="23.8644,22.9966 36.4475,33.8441 41.2203,44.2576 42.522,53.8034 42.522,78.9695 36.0136,95.8915 29.939,107.1729" stroke="#0080ff" stroke-width="2" /><polyline fill="none" points="87.6475,19.5254 84.1763,25.6 73.3288,52.0678 71.1593,67.6881 71.5932,81.5729 75.9322,88.5153 83.3085,94.5898 89.3831,97.6271 97.6271,98.4949" stroke="#7cff79" stroke-width="2" /><polyline fill="none" points="44.2576,8.678 51.2,18.6576 55.9729,33.4102 58.1424,42.0881 59.4441,69.8576 52.5017,87.2136 40.3525,105.8712" stroke="#ff9400" stroke-width="2" /><polyline fill="none" points="87.2136,9.1119 71.1593,30.8068 62.4814,49.4644 59.0102,64.6508" stroke="#7f0000" stroke-width="2" /></svg>