<?xml version="1.0" encoding="utf-8" ?>
<svg baseProfile="tiny" height="128" version="1.2" viewBox="0,0,128,128" width="128" xmlns="http://www.w3.org/2000/svg" xmlns:ev="http://www.w3.org/2001/xml-events" xmlns:xlink="http://www.w3.org/1999/xlink"><defs /><polyline fill="none" points="75.4983,13.8847 63.3492,28.2034 23.4305,61.1797 13.4508,71.5932 11.7153,79.8373 14.7525,85.9119 28.2034,95.0237 38.6169,96.7593 72.8949,96.3254 90.2508,92.4203 99.3627,87.6475 105.0034,78.9695 113.6814,57.7085 119.322,33.8441 119.322,14.7525 115.4169,8.678 104.5695,9.9797 68.9898,30.8068" stroke="#00007f" stroke-width="2" /><polyline fill="none" points="58.5763,37.7492 62.4814,44.6915 66.3864,57.2746 67.6881,72.461 62.0475,81.5729 47.2949,96.7593 43.3898,98.061" stroke="#00d4ff" stroke-width="2" /><polyline fill="none" points="114.9831,18.6576 109.3424,34.7119 95.4576,59.878 90.2508,73.7627 90.6847,85.478 96.3254,90.6847 96.7593,89.3831" stroke="#ffe500" stroke-width="2" /><polyline fill="none" points="118.8881,42.9559 117.1525,51.2 109.3424,59.878 92.8542,70.2915 79.4034,74.6305 42.9559,76.3661 8.678,76.3661" stroke="#7f0000" stroke-width="2" /></svg>