<?xml version="1.0" encoding="utf-8" ?>
<svg baseProfile="tiny" height="128" version="1.2" viewBox="0,0,128,128" width="128" xmlns="http://www.w3.org/2000/svg" xmlns:ev="http://www.w3.org/2001/xml-events" xmlns:xlink="http://www.w3.org/1999/xlink"><defs /><polyline fill="none" points="12.5831,41.2203 18.6576,15.6203 22.9966,10.4136 29.939,8.678 39.9186,9.1119 70.7254,16.922 90.2508,25.1661 112.3797,36.4475 116.2847,41.2203 119.322,51.2 118.4542,59.878 114.5492,68.5559 106.3051,76.3661 96.3254,82.0068 74.6305,88.9492 69.8576,88.9492 56.4068,88.0814 18.2237,66.3864 16.0542,63.3492 8.678,43.8237 9.1119,39.0508" stroke="#00007f" stroke-width="2" /><polyline fill="none" points="64.6508,18.6576 64.2169,48.5966 60.3119,69.8576 54.6712,88.5153" stroke="#0080ff" stroke-width="2" /><polyline fill="none" points="80.7051,27.7695 78.9695,72.8949 75.4983,88.9492 69.8576,88.9492" stroke="#7cff79" stroke-width="2" /><polyline fill="none" points="29.939,10.8475 13.0169,50.3322 9.5458,66.3864 10.4136,71.5932" stroke="#ff9400" stroke-width="2" /><polyline fill="none" points="112.8136,37.3153 112.8136,60.7458 111.078,72.461 108.0407,78.9695" stroke="#7f0000" stroke-width="2" /></svg>