<?xml version="1.0" encoding="utf-8" ?>
<svg baseProfile="tiny" height="128" version="1.2" viewBox="0,0,128,128" width="128" xmlns="http://www.w3.org/2000/svg" xmlns:ev="http://www.w3.org/2001/xml-events" xmlns:xlink="http://www.w3.org/1999/xlink"><defs /><polyline fill="none" points="47.8912,44.8435 42.2313,41.7959 31.7823,40.4898 22.6395,43.9728 14.8027,50.5034 10.449,57.4694 8.7075,64.8707 9.5782,72.2721 14.3673,78.3673 24.8163,82.7211 37.4422,81.8503 46.585,76.1905 53.551,68.7891 57.9048,59.2109 57.034,50.5034 47.4558,41.3605 39.619,39.1837" stroke="#00007f" stroke-width="2" /><polyline fill="none" points="75.7551,10.8844 73.5782,9.1429 68.3537,8.7075 61.8231,13.4966 60.517,17.8503 61.8231,25.6871 104.9252,108.4082 107.5374,110.1497 112.3265,110.1497 119.2925,104.0544 119.2925,99.2653 109.7143,89.2517 101.4422,77.0612 88.8163,40.9252 75.3197,13.4966" stroke="#7cff79" stroke-width="2" /><polyline fill="none" points="88.8163,75.3197 99.2653,73.5782" stroke="#7f0000" stroke-width="2" /></svg>