<?xml version="1.0" encoding="utf-8" ?>
<svg baseProfile="tiny" height="128" version="1.2" viewBox="0,0,128,128" width="128" xmlns="http://www.w3.org/2000/svg" xmlns:ev="http://www.w3.org/2001/xml-events" xmlns:xlink="http://www.w3.org/1999/xlink"><defs /><polyline fill="none" points="24.2983,27.7695 20.3932,29.939 13.8847,40.7864 10.4136,52.5017 8.678,71.1593 13.0169,82.8746 27.3356,97.6271 43.3898,106.3051 60.7458,107.6068 76.8,103.7017 100.2305,84.6102 113.2475,69.8576 119.322,47.2949 119.322,39.4847 117.5864,32.5424 102.8339,16.0542 93.722,9.9797 85.9119,8.678 66.8203,8.678 31.6746,14.3186 28.2034,15.6203 24.7322,19.9593 20.3932,26.9017 20.8271,29.0712" stroke="#00007f" stroke-width="2" /><polyline fill="none" points="20.8271,21.6949 27.3356,26.0339 32.1085,33.4102 33.8441,56.8407 29.939,69.8576 19.0915,79.8373" stroke="#00d4ff" stroke-width="2" /><polyline fill="none" points="100.6644,17.7898 90.2508,32.1085 84.1763,62.9153 88.0814,81.5729 94.1559,86.7797 98.061,93.722 100.2305,91.9864" stroke="#ffe500" stroke-width="2" /><polyline fill="none" points="49.0305,17.7898 50.7661,50.7661" stroke="#7f0000" stroke-width="2" /></svg>