<?xml version="1.0" encoding="utf-8" ?>
<svg baseProfile="tiny" height="128" version="1.2" viewBox="0,0,128,128" width="128" xmlns="http://www.w3.org/2000/svg" xmlns:ev="http://www.w3.org/2001/xml-events" xmlns:xlink="http://www.w3.org/1999/xlink"><defs /><polyline fill="none" points="65.9525,19.9593 42.522,21.261 17.7898,45.1254 13.0169,51.6339 9.5458,66.3864 8.678,78.9695 9.5458,94.5898 11.2814,98.4949 22.9966,112.8136 41.6542,119.322 76.3661,113.6814 85.9119,105.4373 94.1559,93.2881 101.0983,86.7797 104.5695,82.4407 108.9085,70.7254 108.9085,64.2169 106.3051,54.2373 97.1932,41.2203 90.6847,35.1458 73.3288,13.4508 68.122,8.678" stroke="#00007f" stroke-width="2" /><polyline fill="none" points="71.5932,16.0542 65.5186,24.2983 62.9153,25.6 54.6712,40.3525 52.9356,69.8576 62.0475,96.3254 73.3288,111.078 75.0644,108.9085" stroke="#7cff79" stroke-width="2" /><polyline fill="none" points="23.8644,36.0136 31.2407,44.2576 35.5797,56.4068 39.9186,80.7051 39.9186,88.0814 36.4475,98.061 32.5424,101.9661 30.3729,108.4746 24.7322,113.2475" stroke="#7f0000" stroke-width="2" /></svg>