<?xml version="1.0" encoding="utf-8" ?>
<svg baseProfile="tiny" height="128" version="1.2" viewBox="0,0,128,128" width="128" xmlns="http://www.w3.org/2000/svg" xmlns:ev="http://www.w3.org/2001/xml-events" xmlns:xlink="http://www.w3.org/1999/xlink"><defs /><polyline fill="none" points="96.7593,9.5458 89.3831,9.5458 67.2542,13.8847 49.0305,19.9593 26.9017,29.5051 15.6203,35.5797 11.7153,39.4847 8.678,55.539 9.9797,63.3492 13.4508,69.4237 39.9186,85.0441 60.7458,92.8542 77.2339,96.7593 88.0814,96.3254 97.1932,94.1559 103.7017,88.0814 107.6068,81.139 117.5864,37.7492 119.322,22.1288 116.7186,14.7525 108.0407,10.8475 96.7593,8.678" stroke="#00007f" stroke-width="2" /><polyline fill="none" points="39.9186,24.7322 43.3898,47.7288 36.4475,76.3661" stroke="#0080ff" stroke-width="2" /><polyline fill="none" points="90.2508,13.4508 81.139,26.0339 78.5356,34.278 75.0644,69.8576 76.8,91.1186" stroke="#7cff79" stroke-width="2" /><polyline fill="none" points="34.7119,38.6169 49.4644,40.3525" stroke="#ff9400" stroke-width="2" /><polyline fill="none" points="57.7085,49.8983 57.7085,49.8983" stroke="#7f0000" stroke-width="2" /></svg>