<?xml version="1.0" encoding="utf-8" ?>
<svg baseProfile="tiny" height="128" version="1.2" viewBox="0,0,128,128" width="128" xmlns="http://www.w3.org/2000/svg" xmlns:ev="http://www.w3.org/2001/xml-events" xmlns:xlink="http://www.w3.org/1999/xlink"><defs /><polyline fill="none" points="42.9559,11.2814 33.4102,11.2814 26.9017,14.7525 20.8271,19.9593 13.4508,34.7119 8.678,54.2373 9.5458,86.7797 16.4881,98.061 20.8271,103.2678 37.3153,115.4169 53.3695,119.322 82.8746,118.8881 90.2508,114.9831 101.5322,106.3051 104.5695,99.3627 105.0034,85.0441 100.2305,49.8983 86.7797,26.0339 78.5356,19.5254 60.7458,10.8475 49.8983,8.678 36.4475,8.678" stroke="#00007f" stroke-width="2" /><polyline fill="none" points="78.1017,20.3932 69.8576,44.2576 68.9898,81.5729 70.7254,89.3831 78.5356,101.9661 88.9492,113.6814 94.5898,117.1525 91.5525,108.4746" stroke="#7cff79" stroke-width="2" /><polyline fill="none" points="35.5797,11.7153 35.5797,14.7525 40.7864,24.7322 48.1627,46.861 49.8983,60.3119 49.8983,78.5356 46.861,90.6847 42.522,95.4576 25.6,105.8712" stroke="#7f0000" stroke-width="2" /></svg>