<?xml version="1.0" encoding="utf-8" ?>
<svg baseProfile="tiny" height="128" version="1.2" viewBox="0,0,128,128" width="128" xmlns="http://www.w3.org/2000/svg" xmlns:ev="http://www.w3.org/2001/xml-events" xmlns:xlink="http://www.w3.org/1999/xlink"><defs /><polyline fill="none" points="65.9525,12.1492 70.7254,10.4136 56.4068,10.4136 31.2407,15.6203 26.9017,18.6576 22.5627,24.2983 18.6576,33.8441 10.4136,72.0271 9.5458,79.8373 11.2814,94.1559 16.0542,106.3051 22.1288,113.2475 29.0712,118.0203 37.7492,119.322 45.5593,118.0203 56.4068,112.8136 96.3254,86.7797 101.9661,78.9695 106.3051,68.122 111.5119,42.522 109.7763,34.7119 103.7017,26.9017 97.1932,21.6949 84.1763,15.1864 63.7831,8.678 52.9356,9.9797 42.9559,13.4508" stroke="#00007f" stroke-width="2" /><polyline fill="none" points="60.7458,16.4881 56.8407,21.261 54.2373,33.8441 60.3119,74.1966 64.2169,117.5864" stroke="#0080ff" stroke-width="2" /><polyline fill="none" points="8.678,81.5729 34.7119,62.9153 55.539,53.8034 75.0644,49.0305 107.1729,45.5593 117.5864,43.3898" stroke="#7cff79" stroke-width="2" /><polyline fill="none" points="105.4373,18.6576 98.061,20.8271 88.5153,25.6 73.3288,38.1831 39.9186,80.2712 32.1085,91.5525 21.6949,110.6441" stroke="#ff9400" stroke-width="2" /><polyline fill="none" points="27.3356,34.278 29.939,34.278 58.1424,72.0271 68.122,78.5356 81.139,82.0068" stroke="#7f0000" stroke-width="2" /></svg>