<?xml version="1.0" encoding="utf-8" ?>
<svg baseProfile="tiny" height="128" version="1.2" viewBox="0,0,128,128" width="128" xmlns="http://www.w3.org/2000/svg" xmlns:ev="http://www.w3.org/2001/xml-events" xmlns:xlink="http://www.w3.org/1999/xlink"><defs /><polyline fill="none" points="77.7611,9.1741 67.2765,8.7372 53.2969,13.1058 40.1911,14.4164 25.7747,22.7167 20.9693,27.5222 14.4164,38.4437 11.7952,45.4334 9.1741,61.1604 8.7372,74.7031 11.3584,87.8089 17.9113,100.9147 22.2799,106.157 27.5222,110.0887 38.0068,115.7679 50.6758,118.8259 70.7713,119.2628 84.7509,112.273 96.1092,102.2253 100.9147,96.5461 105.2833,86.0614 106.5939,78.6348 106.5939,54.1706 105.7201,47.1809 101.3515,35.8225 97.4198,28.3959 89.5563,19.2218 79.0717,14.4164 62.0341,13.5427" stroke="#00007f" stroke-width="2" /><polyline fill="none" points="20.5324,27.5222 27.959,31.4539 34.9488,38.4437 45.4334,57.6655 54.1706,77.7611 58.9761,94.7986 58.5392,108.7782 55.0444,118.3891" stroke="#0000ff" stroke-width="2" /><polyline fill="none" points="34.0751,55.9181 38.8805,54.1706 56.3549,42.3754" stroke="#0080ff" stroke-width="2" /><polyline fill="none" points="44.1229,81.6928 60.7235,72.0819" stroke="#15ffe1" stroke-width="2" /><polyline fill="none" points="51.1126,96.9829 55.0444,97.4198" stroke="#7cff79" stroke-width="2" /><polyline fill="none" points="54.6075,109.6519 68.1502,110.5256" stroke="#e4ff12" stroke-width="2" /><polyline fill="none" points="77.7611,9.6109 70.3345,58.5392 70.7713,79.0717 82.1297,90.8669 93.0512,95.2355 110.0887,98.7304" stroke="#ff9400" stroke-width="2" /><polyline fill="none" points="52.4232,47.6177 58.9761,42.8123 73.8294,35.8225" stroke="#ff1d00" stroke-width="2" /><polyline fill="none" points="68.587,67.7133 65.9659,70.7713 72.9556,69.8976 80.3823,63.3447" stroke="#7f0000" stroke-width="2" /></svg>