<?xml version="1.0" encoding="utf-8" ?>
<svg baseProfile="tiny" height="128" version="1.2" viewBox="0,0,128,128" width="128" xmlns="http://www.w3.org/2000/svg" xmlns:ev="http://www.w3.org/2001/xml-events" xmlns:xlink="http://www.w3.org/1999/xlink"><defs /><polyline fill="none" points="88.0814,20.3932 65.9525,10.4136 50.7661,8.678 43.8237,11.7153 29.5051,29.0712 22.1288,42.522 9.9797,76.8 8.678,86.7797 16.4881,94.5898 37.7492,101.0983 65.5186,105.8712 76.3661,105.8712 84.6102,104.1356 94.5898,101.0983 99.3627,97.6271 116.2847,60.3119 119.322,42.9559 117.1525,36.8814 109.7763,30.8068 93.722,23.8644 88.5153,20.3932" stroke="#00007f" stroke-width="2" /><polyline fill="none" points="93.722,24.7322 85.0441,59.0102 83.7424,76.3661 88.0814,87.6475 97.1932,97.6271" stroke="#7cff79" stroke-width="2" /><polyline fill="none" points="33.4102,26.0339 48.1627,48.1627 50.3322,55.1051 50.7661,72.0271 48.1627,81.139 35.1458,92.4203 29.939,106.739" stroke="#7f0000" stroke-width="2" /></svg>