<?xml version="1.0" encoding="utf-8" ?>
<svg baseProfile="tiny" height="128" version="1.2" viewBox="0,0,128,128" width="128" xmlns="http://www.w3.org/2000/svg" xmlns:ev="http://www.w3.org/2001/xml-events" xmlns:xlink="http://www.w3.org/1999/xlink"><defs /><polyline fill="none" points="38.1831,25.1661 56.4068,26.4678 70.2915,30.3729 84.6102,35.5797 89.8169,41.2203 89.8169,45.9932 78.1017,54.6712 57.2746,58.5763 18.6576,58.5763 9.5458,56.8407 8.678,55.539 9.5458,47.7288 18.6576,34.7119 30.3729,27.3356 45.1254,24.7322" stroke="#00007f" stroke-width="2" /><polyline fill="none" points="24.7322,31.2407 27.7695,33.8441 34.7119,46.4271 36.4475,52.9356 35.5797,57.2746" stroke="#004cff" stroke-width="2" /><polyline fill="none" points="51.2,59.0102 52.9356,35.1458 51.6339,29.0712 47.7288,26.9017" stroke="#29ffcd" stroke-width="2" /><polyline fill="none" points="67.6881,55.539 70.7254,47.7288 70.7254,34.278 66.3864,29.5051" stroke="#cdff29" stroke-width="2" /><polyline fill="none" points="99.7966,59.4441 98.061,65.9525 84.1763,85.478 92.4203,86.3458 107.1729,82.8746 107.1729,74.6305 111.078,49.8983 117.5864,27.3356 118.8881,18.6576 119.322,10.8475 118.4542,9.5458 108.9085,8.678 108.0407,9.9797 98.9288,67.2542" stroke="#ff6700" stroke-width="2" /><polyline fill="none" points="92.4203,85.9119 92.4203,97.6271 95.8915,98.061 97.6271,78.9695" stroke="#7f0000" stroke-width="2" /></svg>