<?xml version="1.0" encoding="utf-8" ?>
<svg baseProfile="tiny" height="128" version="1.2" viewBox="0,0,128,128" width="128" xmlns="http://www.w3.org/2000/svg" xmlns:ev="http://www.w3.org/2001/xml-events" xmlns:xlink="http://www.w3.org/1999/xlink"><defs /><polyline fill="none" points="45.5593,14.7525 32.9763,25.6 26.0339,34.7119 12.5831,60.3119 8.678,73.7627 8.678,95.0237 16.4881,104.1356 27.3356,111.5119 41.2203,115.4169 68.9898,116.2847 83.3085,113.2475 94.1559,105.8712 103.7017,97.1932 109.3424,87.6475 111.5119,78.5356 111.5119,67.6881 108.9085,53.3695 97.1932,32.9763 84.6102,20.3932 65.0847,10.4136 60.3119,8.678 52.5017,9.5458" stroke="#00007f" stroke-width="2" /><polyline fill="none" points="24.2983,39.4847 31.6746,45.5593 39.9186,57.2746 43.3898,65.9525 45.5593,85.0441 45.5593,108.0407 43.8237,119.322" stroke="#7cff79" stroke-width="2" /><polyline fill="none" points="80.7051,18.2237 75.4983,45.5593 74.6305,87.2136 76.8,98.9288 82.4407,106.739 88.0814,112.3797 95.0237,116.2847" stroke="#7f0000" stroke-width="2" /></svg>