<?xml version="1.0" encoding="utf-8" ?>
<svg baseProfile="tiny" height="128" version="1.2" viewBox="0,0,128,128" width="128" xmlns="http://www.w3.org/2000/svg" xmlns:ev="http://www.w3.org/2001/xml-events" xmlns:xlink="http://www.w3.org/1999/xlink"><defs /><polyline fill="none" points="19.5254,22.1288 19.9593,18.6576 21.6949,16.922 35.5797,11.7153 52.0678,8.678 62.0475,8.678 72.461,13.8847 85.0441,23.8644 101.5322,40.7864 106.3051,48.5966 109.3424,62.4814 109.3424,79.4034 92.8542,111.5119 88.5153,116.2847 79.4034,119.322 66.8203,119.322 30.3729,111.9458 22.9966,105.0034 11.2814,79.4034 8.678,68.122 8.678,60.3119 12.1492,53.3695 23.4305,40.3525 31.6746,15.1864 41.2203,10.8475 45.1254,11.2814 49.0305,19.9593 50.7661,34.7119 50.7661,106.739 49.0305,117.1525" stroke="#00007f" stroke-width="2" /><polyline fill="none" points="78.1017,21.6949 79.8373,40.3525 79.8373,61.6136 85.478,102.8339" stroke="#004cff" stroke-width="2" /><polyline fill="none" points="74.6305,31.2407 81.139,32.1085" stroke="#29ffcd" stroke-width="2" /><polyline fill="none" points="78.1017,39.4847 79.4034,41.6542 84.1763,43.3898" stroke="#cdff29" stroke-width="2" /><polyline fill="none" points="76.3661,64.2169 83.3085,67.6881" stroke="#ff6700" stroke-width="2" /><polyline fill="none" points="82.4407,87.2136 84.1763,93.722" stroke="#7f0000" stroke-width="2" /></svg>