<?xml version="1.0" encoding="utf-8" ?>
<svg baseProfile="tiny" height="128" version="1.2" viewBox="0,0,128,128" width="128" xmlns="http://www.w3.org/2000/svg" xmlns:ev="http://www.w3.org/2001/xml-events" xmlns:xlink="http://www.w3.org/1999/xlink"><defs /><polyline fill="none" points="48.5966,11.7153 74.6305,8.678 85.0441,8.678 90.2508,9.9797 106.739,22.9966 110.6441,27.7695 117.1525,38.6169 119.322,47.7288 118.4542,68.122 113.6814,80.2712 104.5695,92.8542 93.722,99.3627 82.4407,104.1356 59.878,108.0407 47.2949,105.8712 26.0339,90.6847 16.922,78.1017 8.678,50.7661 8.678,35.1458 9.5458,29.939 13.8847,20.8271 25.1661,16.922 42.9559,16.922 54.2373,13.8847 55.9729,11.7153" stroke="#00007f" stroke-width="2" /><polyline fill="none" points="84.6102,98.9288 86.7797,91.1186 90.2508,60.3119 95.4576,34.7119 97.6271,29.939 102.8339,24.2983" stroke="#0080ff" stroke-width="2" /><polyline fill="none" points="56.8407,104.5695 56.8407,78.9695 50.7661,61.1797 45.9932,52.0678 42.0881,37.3153 37.7492,32.9763 25.6,26.9017 23.8644,17.7898" stroke="#7cff79" stroke-width="2" /><polyline fill="none" points="34.278,21.6949 31.2407,28.2034" stroke="#ff9400" stroke-width="2" /><polyline fill="none" points="48.1627,38.1831 43.3898,40.3525" stroke="#7f0000" stroke-width="2" /></svg>