<?xml version="1.0" encoding="utf-8" ?>
<svg baseProfile="tiny" height="128" version="1.2" viewBox="0,0,128,128" width="128" xmlns="http://www.w3.org/2000/svg" xmlns:ev="http://www.w3.org/2001/xml-events" xmlns:xlink="http://www.w3.org/1999/xlink"><defs /><polyline fill="none" points="94.5898,13.0169 74.6305,9.1119 37.7492,8.678 28.6373,13.0169 23.8644,17.7898 15.1864,31.6746 10.4136,44.6915 8.678,56.4068 9.1119,82.0068 15.6203,92.4203 27.3356,103.7017 39.9186,111.9458 46.861,114.5492 62.0475,116.7186 78.5356,116.7186 89.8169,113.2475 101.5322,105.4373 106.739,100.2305 111.5119,93.722 118.0203,79.4034 119.322,54.6712 117.5864,49.4644 107.1729,33.8441 88.0814,11.7153" stroke="#00007f" stroke-width="2" /><polyline fill="none" points="57.7085,11.7153 58.1424,52.0678 60.7458,59.0102 66.8203,65.0847 73.3288,68.9898 88.5153,72.8949 118.0203,54.6712" stroke="#0000ff" stroke-width="2" /><polyline fill="none" points="11.7153,70.2915 36.0136,70.2915 45.5593,72.0271 52.5017,76.3661 59.878,85.478 65.5186,95.0237 66.8203,107.6068 64.2169,114.5492" stroke="#0080ff" stroke-width="2" /><polyline fill="none" points="44.2576,13.0169 44.2576,29.0712 48.1627,47.2949 52.9356,60.7458 56.4068,66.8203 62.4814,70.7254 77.2339,77.2339 98.4949,77.6678 104.5695,74.6305 107.6068,71.5932 112.3797,65.0847 116.2847,52.0678" stroke="#15ffe1" stroke-width="2" /><polyline fill="none" points="8.678,62.4814 36.0136,62.4814 48.1627,65.9525 51.2,68.5559 66.8203,91.5525 71.5932,108.9085" stroke="#7cff79" stroke-width="2" /><polyline fill="none" points="16.0542,32.1085 23.8644,42.9559 47.2949,66.8203 97.6271,113.2475" stroke="#e4ff12" stroke-width="2" /><polyline fill="none" points="31.6746,17.3559 107.6068,80.2712 114.5492,88.5153" stroke="#ff9400" stroke-width="2" /><polyline fill="none" points="22.1288,91.5525 24.7322,87.2136 42.9559,68.5559 50.7661,63.3492 104.1356,17.3559" stroke="#ff1d00" stroke-width="2" /><polyline fill="none" points="36.0136,102.8339 110.2102,62.9153" stroke="#7f0000" stroke-width="2" /></svg>