<?xml version="1.0" encoding="utf-8" ?>
<svg baseProfile="tiny" height="128" version="1.2" viewBox="0,0,128,128" width="128" xmlns="http://www.w3.org/2000/svg" xmlns:ev="http://www.w3.org/2001/xml-events" xmlns:xlink="http://www.w3.org/1999/xlink"><defs /><polyline fill="none" points="70.2915,42.0881 59.4441,42.522 52.0678,45.9932 45.1254,52.9356 41.6542,60.3119 39.9186,68.9898 40.3525,77.6678 45.1254,83.3085 50.7661,85.9119 62.9153,86.3458 68.9898,83.7424 79.8373,73.7627 86.7797,63.7831 88.0814,51.2 83.3085,42.0881 75.0644,38.1831 65.9525,38.1831 62.4814,39.4847" stroke="#00007f" stroke-width="2" /><polyline fill="none" points="79.8373,39.0508 78.9695,24.7322 84.6102,15.6203 88.9492,12.1492 95.8915,9.1119 105.4373,8.678 110.6441,11.7153 114.5492,16.4881 116.7186,22.5627 116.7186,34.278 114.1153,38.6169 107.6068,43.8237 100.2305,46.4271 92.8542,46.4271 85.9119,43.3898" stroke="#0000d1" stroke-width="2" /><polyline fill="none" points="98.4949,31.6746 101.5322,33.8441 101.0983,39.0508 90.2508,52.9356" stroke="#0010ff" stroke-width="2" /><polyline fill="none" points="98.4949,30.3729 101.0983,31.6746 117.5864,30.3729" stroke="#0058ff" stroke-width="2" /><polyline fill="none" points="105.4373,39.0508 119.322,39.0508" stroke="#00a4ff" stroke-width="2" /><polyline fill="none" points="109.3424,34.7119 100.2305,64.6508" stroke="#05ecf1" stroke-width="2" /><polyline fill="none" points="106.739,40.3525 104.5695,39.4847 101.5322,42.9559 91.9864,68.5559" stroke="#3fffb7" stroke-width="2" /><polyline fill="none" points="104.5695,32.5424 111.078,43.8237 118.4542,49.8983" stroke="#7cff79" stroke-width="2" /><polyline fill="none" points="101.0983,32.1085 114.5492,39.0508 119.322,43.8237" stroke="#b7ff3f" stroke-width="2" /><polyline fill="none" points="104.1356,35.1458 103.7017,44.2576 96.3254,59.0102" stroke="#f1fc05" stroke-width="2" /><polyline fill="none" points="108.4746,38.1831 96.7593,49.8983" stroke="#ffb900" stroke-width="2" /><polyline fill="none" points="42.0881,70.7254 33.4102,51.2 28.6373,48.5966 23.8644,48.5966 19.0915,52.9356 11.7153,65.5186 10.4136,72.8949 10.4136,90.2508 8.678,96.3254" stroke="#ff7300" stroke-width="2" /><polyline fill="none" points="68.122,82.8746 68.122,91.5525" stroke="#ff3000" stroke-width="2" /><polyline fill="none" points="90.2508,61.1797 90.2508,91.9864" stroke="#d10000" stroke-width="2" /><polyline fill="none" points="88.9492,56.8407 92.4203,70.2915 91.9864,94.1559" stroke="#7f0000" stroke-width="2" /></svg>