<?xml version="1.0" encoding="utf-8" ?>
<svg baseProfile="tiny" height="128" version="1.2" viewBox="0,0,128,128" width="128" xmlns="http://www.w3.org/2000/svg" xmlns:ev="http://www.w3.org/2001/xml-events" xmlns:xlink="http://www.w3.org/1999/xlink"><defs /><polyline fill="none" points="59.4441,108.4746 55.9729,109.3424 47.2949,108.4746 30.3729,100.6644 23.8644,93.722 16.4881,82.0068 9.1119,56.8407 8.678,45.9932 10.4136,43.3898 27.3356,35.5797 16.0542,27.7695 11.2814,19.9593 10.8475,12.5831 11.7153,9.1119 15.1864,8.678 17.7898,8.678 29.0712,16.4881 46.4271,33.4102 61.6136,30.8068 64.6508,31.6746 72.0271,36.8814 75.0644,29.5051 78.9695,24.7322 85.0441,19.0915 100.2305,9.9797 98.4949,36.0136 93.722,47.2949 101.0983,60.3119 101.9661,69.4237 101.9661,90.2508 98.4949,99.3627 92.8542,106.3051 84.6102,111.9458 69.4237,118.0203 62.4814,119.322 51.6339,119.322 48.1627,118.0203 39.4847,110.6441 38.6169,108.4746" stroke="#00007f" stroke-width="2" /><polyline fill="none" points="46.4271,73.7627 38.6169,73.7627 32.9763,71.5932 16.922,60.7458 13.4508,56.4068" stroke="#0028ff" stroke-width="2" /><polyline fill="none" points="53.3695,81.5729 39.9186,80.2712 25.1661,76.3661" stroke="#00d4ff" stroke-width="2" /><polyline fill="none" points="53.3695,89.8169 49.0305,92.4203 42.0881,101.0983" stroke="#7cff79" stroke-width="2" /><polyline fill="none" points="85.9119,71.1593 101.0983,69.4237" stroke="#ffe500" stroke-width="2" /><polyline fill="none" points="91.1186,86.7797 100.2305,95.4576" stroke="#ff4600" stroke-width="2" /><polyline fill="none" points="73.7627,103.7017 71.1593,105.4373 71.1593,111.5119" stroke="#7f0000" stroke-width="2" /></svg>