<?xml version="1.0" encoding="utf-8" ?>
<svg baseProfile="tiny" height="128" version="1.2" viewBox="0,0,128,128" width="128" xmlns="http://www.w3.org/2000/svg" xmlns:ev="http://www.w3.org/2001/xml-events" xmlns:xlink="http://www.w3.org/1999/xlink"><defs /><polyline fill="none" points="45.2789,18.7211 44.8435,14.8027 41.3605,9.1429 42.6667,8.7075 49.1973,10.8844 59.6463,17.8503" stroke="#00007f" stroke-width="2" /><polyline fill="none" points="59.6463,17.8503 61.8231,11.7551 76.6259,14.8027 78.3673,16.1088 78.3673,20.4626" stroke="#0000de" stroke-width="2" /><polyline fill="none" points="50.068,23.0748 50.068,34.3946 54.4218,39.1837 58.7755,40.9252 70.966,40.9252 79.6735,37.8776" stroke="#0028ff" stroke-width="2" /><polyline fill="none" points="57.9048,26.5578 40.9252,37.0068" stroke="#0080ff" stroke-width="2" /><polyline fill="none" points="61.8231,34.3946 45.7143,44.8435" stroke="#00d4ff" stroke-width="2" /><polyline fill="none" points="63.5646,39.1837 67.0476,40.9252" stroke="#36ffc0" stroke-width="2" /><polyline fill="none" points="67.9184,26.5578 67.483,31.7823 70.5306,34.8299 76.1905,33.5238 77.0612,29.1701 75.7551,28.7347" stroke="#7cff79" stroke-width="2" /><polyline fill="none" points="86.2041,32.2177 119.2925,33.0884 117.1156,33.9592" stroke="#c0ff36" stroke-width="2" /><polyline fill="none" points="94.9116,43.5374 105.3605,43.9728 105.3605,41.7959" stroke="#ffe500" stroke-width="2" /><polyline fill="none" points="94.9116,24.381 97.0884,22.6395" stroke="#ff9400" stroke-width="2" /><polyline fill="none" points="99.7007,11.7551 107.102,18.7211 108.4082,29.6054 107.102,35.2653 98.8299,45.2789" stroke="#ff4600" stroke-width="2" /><polyline fill="none" points="64.4354,46.1497 74.0136,50.068 97.5238,51.8095" stroke="#de0000" stroke-width="2" /><polyline fill="none" points="50.068,40.9252 42.2313,46.585 35.2653,49.1973 8.7075,55.2925 24.8163,60.0816 47.8912,60.9524" stroke="#7f0000" stroke-width="2" /></svg>