<?xml version="1.0" encoding="utf-8" ?>
<svg baseProfile="tiny" height="128" version="1.2" viewBox="0,0,128,128" width="128" xmlns="http://www.w3.org/2000/svg" xmlns:ev="http://www.w3.org/2001/xml-events" xmlns:xlink="http://www.w3.org/1999/xlink"><defs /><polyline fill="none" points="103.2678,60.7458 101.9661,57.2746 89.8169,45.9932 78.5356,40.3525 70.2915,38.6169 60.7458,38.6169 55.9729,39.9186 36.0136,49.4644 28.2034,55.9729 22.1288,63.3492 17.3559,77.6678 17.3559,85.9119 20.3932,95.0237 26.9017,106.739 34.7119,112.8136 49.4644,116.2847 67.2542,112.8136 75.0644,107.6068 87.2136,97.1932 92.8542,88.9492 98.061,77.6678 101.0983,66.8203 99.3627,56.4068" stroke="#00007f" stroke-width="2" /><polyline fill="none" points="29.939,42.9559 26.0339,42.0881 14.3186,34.278 9.5458,26.9017 8.678,23.4305 10.8475,15.6203 14.7525,12.1492 22.9966,8.678 26.9017,9.5458 41.6542,19.5254 50.3322,35.5797 51.2,39.4847 53.3695,38.6169" stroke="#0000ff" stroke-width="2" /><polyline fill="none" points="82.0068,40.3525 80.2712,28.6373 85.478,20.8271 94.5898,16.922 108.9085,14.7525 118.4542,29.5051 119.322,41.2203 116.2847,48.5966 108.9085,55.539 101.5322,58.5763 95.0237,56.4068" stroke="#0080ff" stroke-width="2" /><polyline fill="none" points="45.9932,82.0068 26.0339,79.8373 13.8847,76.8" stroke="#15ffe1" stroke-width="2" /><polyline fill="none" points="40.3525,90.6847 18.2237,89.3831" stroke="#7cff79" stroke-width="2" /><polyline fill="none" points="70.2915,79.8373 95.8915,76.8" stroke="#e4ff12" stroke-width="2" /><polyline fill="none" points="68.5559,88.5153 81.139,88.5153 87.2136,87.2136" stroke="#ff9400" stroke-width="2" /><polyline fill="none" points="50.3322,57.7085 42.9559,58.5763 41.6542,65.5186 45.1254,68.5559 51.2,68.122 54.2373,64.2169 54.6712,60.7458 53.3695,59.4441" stroke="#ff1d00" stroke-width="2" /><polyline fill="none" points="72.461,58.5763 68.9898,59.878 67.2542,63.7831" stroke="#7f0000" stroke-width="2" /></svg>