<?xml version="1.0" encoding="utf-8" ?>
<svg baseProfile="tiny" height="128" version="1.2" viewBox="0,0,128,128" width="128" xmlns="http://www.w3.org/2000/svg" xmlns:ev="http://www.w3.org/2001/xml-events" xmlns:xlink="http://www.w3.org/1999/xlink"><defs /><polyline fill="none" points="84.1763,38.6169 81.5729,35.5797 72.0271,32.9763 28.6373,32.5424 18.6576,38.1831 13.8847,44.2576 9.1119,57.2746 8.678,72.8949 9.5458,76.8 14.3186,88.9492 20.8271,99.3627 29.0712,106.739 36.8814,111.078 45.5593,113.6814 68.5559,114.1153 91.5525,107.1729 98.061,104.1356 108.0407,95.8915 118.0203,79.4034 119.322,72.461 118.4542,58.5763 115.8508,52.0678 109.3424,43.8237 91.9864,32.9763 77.2339,30.3729 63.3492,30.3729" stroke="#00007f" stroke-width="2" /><polyline fill="none" points="17.3559,34.278 16.4881,32.5424 16.922,9.1119 19.0915,9.5458 43.8237,26.9017" stroke="#0000f1" stroke-width="2" /><polyline fill="none" points="69.8576,29.0712 94.5898,8.678 96.7593,31.2407" stroke="#004cff" stroke-width="2" /><polyline fill="none" points="40.3525,50.7661 35.5797,53.8034 35.1458,58.5763 36.4475,59.4441 43.3898,59.4441 45.1254,55.9729 45.1254,49.4644 43.8237,47.7288 42.522,49.0305" stroke="#00b0ff" stroke-width="2" /><polyline fill="none" points="87.2136,51.6339 85.9119,58.5763 94.5898,58.1424 95.0237,53.8034 93.2881,52.0678" stroke="#29ffcd" stroke-width="2" /><polyline fill="none" points="75.9322,69.8576 103.2678,62.4814" stroke="#7cff79" stroke-width="2" /><polyline fill="none" points="85.478,70.2915 85.9119,72.0271 88.5153,74.6305 105.8712,78.1017" stroke="#cdff29" stroke-width="2" /><polyline fill="none" points="86.3458,80.7051 110.2102,90.6847" stroke="#ffc400" stroke-width="2" /><polyline fill="none" points="47.2949,74.1966 16.4881,73.7627" stroke="#ff6700" stroke-width="2" /><polyline fill="none" points="39.4847,78.9695 26.0339,85.0441 24.7322,85.9119 27.7695,86.7797" stroke="#f10700" stroke-width="2" /><polyline fill="none" points="49.0305,87.6475 37.7492,92.8542" stroke="#7f0000" stroke-width="2" /></svg>