<?xml version="1.0" encoding="utf-8" ?>
<svg baseProfile="tiny" height="128" version="1.2" viewBox="0,0,128,128" width="128" xmlns="http://www.w3.org/2000/svg" xmlns:ev="http://www.w3.org/2001/xml-events" xmlns:xlink="http://www.w3.org/1999/xlink"><defs /><polyline fill="none" points="37.0068,111.0204 29.6054,111.4558 23.9456,110.1497 19.1565,107.102 13.4966,101.0068 8.7075,88.8163 8.7075,77.932 10.449,72.2721 16.9796,60.0816 22.6395,53.551 36.5714,42.6667 45.7143,39.619 57.9048,39.1837 69.2245,42.6667 80.5442,52.6803 87.5102,73.5782 88.381,89.6871 84.4626,104.4898 77.4966,113.1973 70.5306,117.551 64.8707,119.2925 52.6803,117.9864 38.3129,112.7619 30.9116,107.9728" stroke="#00007f" stroke-width="2" /><polyline fill="none" points="16.9796,64.0 17.415,33.0884 20.0272,15.2381 22.6395,9.5782 24.8163,8.7075 30.0408,11.3197 45.2789,40.9252" stroke="#0010ff" stroke-width="2" /><polyline fill="none" points="62.6939,41.7959 66.6122,29.1701 70.5306,22.2041 81.8503,10.0136 85.7687,8.7075 91.4286,13.932 94.0408,23.5102 94.9116,37.8776 93.1701,57.4694" stroke="#00a4ff" stroke-width="2" /><polyline fill="none" points="34.8299,62.6939 41.7959,64.4354" stroke="#3fffb7" stroke-width="2" /><polyline fill="none" points="69.2245,64.0 69.2245,69.6599" stroke="#b7ff3f" stroke-width="2" /><polyline fill="none" points="32.2177,86.6395 35.7007,91.4286 40.9252,94.9116 50.9388,97.9592 55.7279,97.9592 63.5646,94.9116 72.2721,82.2857" stroke="#ffb900" stroke-width="2" /><polyline fill="none" points="43.9728,97.5238 46.585,84.0272 42.2313,81.8503 43.102,76.6259 46.585,74.449 65.7415,75.7551 65.7415,77.4966 62.6939,79.6735 51.3741,84.898" stroke="#ff3000" stroke-width="2" /><polyline fill="none" points="51.3741,77.0612 49.6327,77.0612 48.3265,78.8027 51.3741,74.8844 50.5034,70.966" stroke="#7f0000" stroke-width="2" /></svg>