<?xml version="1.0" encoding="utf-8" ?>
<svg baseProfile="tiny" height="128" version="1.2" viewBox="0,0,128,128" width="128" xmlns="http://www.w3.org/2000/svg" xmlns:ev="http://www.w3.org/2001/xml-events" xmlns:xlink="http://www.w3.org/1999/xlink"><defs /><polyline fill="none" points="45.5593,26.0339 42.9559,9.1119 45.5593,8.678 61.1797,20.3932" stroke="#00007f" stroke-width="2" /><polyline fill="none" points="62.0475,21.261 63.3492,19.5254 68.9898,16.922 79.8373,15.6203 88.5153,18.6576 94.5898,25.1661" stroke="#0000de" stroke-width="2" /><polyline fill="none" points="93.722,23.8644 108.0407,12.1492 108.0407,31.6746" stroke="#0028ff" stroke-width="2" /><polyline fill="none" points="81.139,53.3695 82.4407,49.8983 83.7424,52.0678 81.139,53.8034 82.0068,51.6339" stroke="#0080ff" stroke-width="2" /><polyline fill="none" points="62.4814,49.4644 62.9153,51.2 61.6136,50.3322 62.9153,49.0305" stroke="#00d4ff" stroke-width="2" /><polyline fill="none" points="46.861,26.0339 42.522,35.1458 40.3525,52.5017 40.3525,63.7831 42.0881,72.0271 46.4271,81.139 53.3695,88.0814 58.5763,91.1186 66.8203,92.4203 73.3288,91.1186 79.8373,86.7797 89.3831,77.2339 95.0237,68.5559 100.2305,59.0102 103.2678,49.8983 105.8712,25.6" stroke="#36ffc0" stroke-width="2" /><polyline fill="none" points="66.3864,69.4237 65.5186,67.6881 68.5559,67.2542 68.9898,68.122 67.2542,69.4237 68.5559,67.6881" stroke="#7cff79" stroke-width="2" /><polyline fill="none" points="68.5559,68.122 119.322,59.0102" stroke="#c0ff36" stroke-width="2" /><polyline fill="none" points="70.2915,69.8576 87.6475,73.7627 115.8508,83.7424" stroke="#ffe500" stroke-width="2" /><polyline fill="none" points="65.9525,68.122 34.278,54.6712 21.6949,52.0678" stroke="#ff9400" stroke-width="2" /><polyline fill="none" points="62.9153,67.6881 30.3729,72.0271 16.922,75.4983 8.678,79.4034" stroke="#ff4600" stroke-width="2" /><polyline fill="none" points="69.4237,67.6881 62.4814,68.5559 37.3153,81.5729 13.8847,98.4949" stroke="#de0000" stroke-width="2" /><polyline fill="none" points="70.7254,70.7254 85.478,84.6102 111.078,103.7017" stroke="#7f0000" stroke-width="2" /></svg>