<?xml version="1.0" encoding="utf-8" ?>
<svg baseProfile="tiny" height="128" version="1.2" viewBox="0,0,128,128" width="128" xmlns="http://www.w3.org/2000/svg" xmlns:ev="http://www.w3.org/2001/xml-events" xmlns:xlink="http://www.w3.org/1999/xlink"><defs /><polyline fill="none" points="30.3729,51.6339 28.2034,63.3492 28.2034,78.9695 36.0136,94.5898 41.6542,98.061 46.861,99.3627 68.9898,99.3627 74.1966,98.061 91.1186,88.0814 96.3254,82.8746 98.9288,78.5356 99.7966,67.6881 97.1932,59.0102 93.722,54.6712 55.9729,29.0712 42.522,32.1085 31.2407,42.522 28.2034,49.4644 26.4678,62.0475" stroke="#00007f" stroke-width="2" /><polyline fill="none" points="38.6169,41.6542 36.0136,40.7864 33.8441,36.8814 29.5051,22.5627 29.939,16.4881 33.8441,10.4136 35.5797,9.9797 39.9186,16.0542 41.6542,33.4102 43.8237,41.6542" stroke="#0000d5" stroke-width="2" /><polyline fill="none" points="70.2915,43.8237 72.0271,27.3356 76.8,13.8847 81.5729,8.678 83.7424,9.9797 85.478,14.7525 85.478,22.9966 76.8,43.8237 76.3661,48.1627" stroke="#001cff" stroke-width="2" /><polyline fill="none" points="45.1254,48.1627 45.1254,48.1627" stroke="#006cff" stroke-width="2" /><polyline fill="none" points="45.1254,47.7288 46.4271,55.1051 48.5966,55.539 50.7661,52.9356 50.3322,48.5966 48.1627,48.1627 47.7288,52.5017 52.0678,51.2" stroke="#00b8ff" stroke-width="2" /><polyline fill="none" points="68.122,49.4644 65.9525,49.4644 64.6508,51.6339 64.6508,53.8034 70.2915,55.1051 70.2915,51.2 68.5559,50.7661 68.122,53.3695" stroke="#1cffda" stroke-width="2" /><polyline fill="none" points="61.1797,71.5932 63.3492,72.0271 63.7831,73.3288 61.6136,73.3288 59.878,71.5932 61.6136,70.2915 59.878,70.7254 60.3119,69.8576" stroke="#5cff9a" stroke-width="2" /><polyline fill="none" points="85.9119,67.6881 92.4203,57.7085 97.6271,52.5017 111.9458,44.2576" stroke="#9aff5c" stroke-width="2" /><polyline fill="none" points="92.8542,66.8203 95.0237,66.3864 119.322,50.7661" stroke="#daff1c" stroke-width="2" /><polyline fill="none" points="90.2508,73.3288 111.5119,84.6102" stroke="#ffcb00" stroke-width="2" /><polyline fill="none" points="34.278,73.3288 24.2983,69.4237 8.678,67.2542" stroke="#ff8500" stroke-width="2" /><polyline fill="none" points="36.8814,80.2712 22.9966,80.2712 10.4136,83.7424" stroke="#ff3b00" stroke-width="2" /><polyline fill="none" points="36.0136,88.0814 23.8644,98.061 16.4881,107.1729" stroke="#d50000" stroke-width="2" /><polyline fill="none" points="52.0678,88.0814 58.5763,91.9864 68.9898,91.9864 72.461,88.0814 77.2339,78.9695" stroke="#7f0000" stroke-width="2" /></svg>