<?xml version="1.0" encoding="utf-8" ?>
<svg baseProfile="tiny" height="128" version="1.2" viewBox="0,0,128,128" width="128" xmlns="http://www.w3.org/2000/svg" xmlns:ev="http://www.w3.org/2001/xml-events" xmlns:xlink="http://www.w3.org/1999/xlink"><defs /><polyline fill="none" points="56.8407,28.2034 48.5966,30.8068 38.6169,36.8814 32.1085,43.3898 25.6,58.5763 22.5627,78.1017 24.7322,88.5153 33.8441,101.0983 47.2949,110.2102 55.539,113.2475 75.4983,114.9831 86.3458,113.2475 101.9661,106.3051 112.8136,94.5898 117.5864,85.9119 119.322,77.6678 119.322,71.1593 118.0203,67.6881 107.1729,49.0305 90.2508,30.8068 79.8373,24.2983 70.2915,21.261 60.7458,22.9966 52.5017,27.7695 48.1627,32.9763" stroke="#00007f" stroke-width="2" /><polyline fill="none" points="96.7593,34.278 97.1932,34.278" stroke="#0010ff" stroke-width="2" /><polyline fill="none" points="89.3831,30.8068 101.0983,19.5254 114.1153,10.8475 115.8508,14.3186 114.9831,31.2407 116.2847,51.6339" stroke="#00a4ff" stroke-width="2" /><polyline fill="none" points="44.6915,32.9763 37.3153,24.7322 24.7322,14.3186 12.5831,8.678 9.1119,8.678 8.678,13.4508 10.8475,27.7695 18.2237,56.4068" stroke="#3fffb7" stroke-width="2" /><polyline fill="none" points="52.0678,52.5017 65.5186,51.6339" stroke="#b7ff3f" stroke-width="2" /><polyline fill="none" points="88.0814,51.6339 88.9492,51.6339" stroke="#ffb900" stroke-width="2" /><polyline fill="none" points="42.522,75.9322 46.861,81.5729 50.7661,83.3085 62.4814,84.1763 88.9492,75.0644 101.9661,68.122" stroke="#ff3000" stroke-width="2" /><polyline fill="none" points="72.8949,78.9695 79.4034,77.2339" stroke="#7f0000" stroke-width="2" /></svg>