<?xml version="1.0" encoding="utf-8" ?>
<svg baseProfile="tiny" height="128" version="1.2" viewBox="0,0,128,128" width="128" xmlns="http://www.w3.org/2000/svg" xmlns:ev="http://www.w3.org/2001/xml-events" xmlns:xlink="http://www.w3.org/1999/xlink"><defs /><polyline fill="none" points="52.0678,32.1085 50.3322,25.6 41.6542,21.6949 41.6542,14.7525 39.4847,9.1119 38.6169,8.678 33.4102,19.0915 28.2034,17.7898 23.4305,20.3932 16.922,8.678 14.7525,20.8271 11.7153,22.5627 8.678,31.2407 9.5458,40.3525 13.8847,45.5593" stroke="#00007f" stroke-width="2" /><polyline fill="none" points="46.861,26.0339 49.8983,28.2034 51.2,35.1458 47.2949,42.9559 39.9186,47.2949 30.8068,48.5966 12.1492,43.8237" stroke="#0010ff" stroke-width="2" /><polyline fill="none" points="42.0881,45.9932 45.1254,59.878 45.1254,76.8 42.522,86.7797 36.8814,93.722" stroke="#00a4ff" stroke-width="2" /><polyline fill="none" points="14.7525,40.3525 10.4136,52.5017 9.5458,69.4237 9.9797,76.3661 15.1864,91.1186 18.6576,95.8915 22.9966,98.9288 37.3153,96.3254" stroke="#3fffb7" stroke-width="2" /><polyline fill="none" points="26.0339,75.0644 24.2983,84.6102 29.5051,90.6847 38.1831,94.5898 50.3322,93.722 52.9356,91.9864 53.8034,82.8746 50.7661,78.9695 46.4271,79.8373 43.8237,85.9119 46.4271,90.6847 56.8407,91.9864 62.4814,90.6847 69.4237,87.2136 75.4983,82.4407 78.1017,76.8 77.6678,72.461 75.9322,70.7254 71.5932,73.3288 72.8949,78.5356 78.9695,84.1763 85.478,84.1763 96.3254,78.1017 100.6644,74.1966 99.3627,69.8576 96.3254,65.0847 93.722,63.3492 89.8169,63.7831 88.0814,68.122 89.3831,73.7627 93.722,75.4983 107.1729,75.4983 117.5864,62.4814 119.322,53.8034" stroke="#b7ff3f" stroke-width="2" /><polyline fill="none" points="13.0169,29.0712 21.6949,32.9763" stroke="#ffb900" stroke-width="2" /><polyline fill="none" points="13.4508,35.5797 18.2237,36.8814 22.9966,36.0136" stroke="#ff3000" stroke-width="2" /><polyline fill="none" points="46.861,26.9017 35.5797,29.0712" stroke="#7f0000" stroke-width="2" /></svg>