<?xml version="1.0" encoding="utf-8" ?>
<svg baseProfile="tiny" height="128" version="1.2" viewBox="0,0,128,128" width="128" xmlns="http://www.w3.org/2000/svg" xmlns:ev="http://www.w3.org/2001/xml-events" xmlns:xlink="http://www.w3.org/1999/xlink"><defs /><polyline fill="none" points="10.0136,42.6667 9.1429,32.6531 14.8027,17.415 16.5442,33.0884 38.7483,29.6054 39.1837,19.5918 42.2313,10.0136 43.9728,8.7075 46.585,21.3333 47.8912,36.1361 47.8912,40.0544 44.4082,39.1837" stroke="#00007f" stroke-width="2" /><polyline fill="none" points="20.4626,41.7959 20.4626,41.7959" stroke="#0000d1" stroke-width="2" /><polyline fill="none" points="33.5238,39.619 33.5238,39.619" stroke="#0010ff" stroke-width="2" /><polyline fill="none" points="21.3333,50.068 27.4286,53.9864 29.1701,47.8912 31.7823,53.551 33.9592,54.8571 34.8299,45.7143 33.5238,44.4082 32.2177,45.7143" stroke="#0058ff" stroke-width="2" /><polyline fill="none" points="10.449,40.4898 8.7075,51.3741 11.3197,63.1293 14.3673,66.6122 19.1565,68.7891 23.0748,68.7891 24.381,66.6122" stroke="#00a4ff" stroke-width="2" /><polyline fill="none" points="46.585,36.5714 46.585,55.7279 42.6667,63.1293 37.0068,65.3061" stroke="#05ecf1" stroke-width="2" /><polyline fill="none" points="19.1565,71.4014 19.5918,95.7823 18.2857,113.6327 19.5918,111.4558" stroke="#3fffb7" stroke-width="2" /><polyline fill="none" points="41.7959,64.0 53.9864,98.3946" stroke="#7cff79" stroke-width="2" /><polyline fill="none" points="46.585,106.6667 50.5034,89.2517 56.5986,83.1565 64.8707,82.2857 69.2245,86.2041 70.5306,94.4762 66.6122,104.0544 59.6463,113.6327" stroke="#b7ff3f" stroke-width="2" /><polyline fill="none" points="45.2789,108.8435 29.1701,116.2449 26.9932,117.9864 27.4286,119.2925 39.619,118.8571 52.6803,114.9388 55.2925,114.068 54.4218,113.1973" stroke="#f1fc05" stroke-width="2" /><polyline fill="none" points="26.9932,110.585 20.898,119.2925 32.2177,114.9388" stroke="#ffb900" stroke-width="2" /><polyline fill="none" points="20.4626,84.0272 31.7823,114.9388 33.0884,116.2449 33.5238,113.1973" stroke="#ff7300" stroke-width="2" /><polyline fill="none" points="32.6531,82.2857 39.1837,112.3265" stroke="#ff3000" stroke-width="2" /><polyline fill="none" points="44.4082,92.2993 43.5374,107.102" stroke="#d10000" stroke-width="2" /><polyline fill="none" points="50.9388,89.2517 56.1633,72.7075 63.1293,67.483 79.6735,63.1293 88.8163,53.9864 97.5238,34.8299 97.9592,26.5578 97.0884,20.0272 101.0068,24.8163 102.3129,36.1361 96.6531,54.8571 92.7347,61.8231 87.9456,66.6122 78.3673,72.2721 60.517,74.0136 56.5986,78.3673 56.1633,81.8503" stroke="#7f0000" stroke-width="2" /></svg>