<?xml version="1.0" encoding="utf-8" ?>
<svg baseProfile="tiny" height="128" version="1.2" viewBox="0,0,128,128" width="128" xmlns="http://www.w3.org/2000/svg" xmlns:ev="http://www.w3.org/2001/xml-events" xmlns:xlink="http://www.w3.org/1999/xlink"><defs /><polyline fill="none" points="22.5627,22.9966 17.7898,29.0712 17.3559,37.3153 18.6576,42.0881 26.4678,48.5966 36.0136,50.3322 45.1254,44.2576 47.2949,37.3153 44.6915,26.9017 36.8814,19.9593 30.3729,17.7898 23.4305,17.7898 19.5254,19.5254" stroke="#00007f" stroke-width="2" /><polyline fill="none" points="34.7119,19.0915 49.4644,8.678 49.0305,28.6373" stroke="#0000ff" stroke-width="2" /><polyline fill="none" points="21.261,22.9966 9.1119,18.6576 8.678,26.0339 11.7153,29.939" stroke="#0080ff" stroke-width="2" /><polyline fill="none" points="24.7322,48.5966 16.922,76.3661 12.5831,80.7051 15.1864,79.8373 22.9966,69.8576 30.8068,52.0678" stroke="#15ffe1" stroke-width="2" /><polyline fill="none" points="44.2576,45.9932 46.4271,59.878 46.4271,73.3288 44.6915,75.0644 40.7864,75.9322 39.4847,71.5932 38.1831,47.7288" stroke="#7cff79" stroke-width="2" /><polyline fill="none" points="22.9966,72.0271 24.2983,74.1966 28.2034,75.9322 32.9763,75.9322 35.1458,74.1966" stroke="#e4ff12" stroke-width="2" /><polyline fill="none" points="46.861,45.1254 55.1051,54.2373 57.7085,62.9153 57.2746,67.6881" stroke="#ff9400" stroke-width="2" /><polyline fill="none" points="58.5763,63.7831 62.0475,65.5186 66.3864,65.0847 85.0441,56.4068 92.8542,54.6712 108.0407,55.1051 117.5864,59.0102 119.322,57.7085 112.3797,62.0475 90.6847,61.1797 83.7424,66.3864 71.1593,68.122 56.8407,73.3288 49.8983,73.7627 42.9559,69.4237" stroke="#ff1d00" stroke-width="2" /><polyline fill="none" points="24.2983,41.2203 27.3356,44.6915 30.8068,41.2203 32.5424,43.3898" stroke="#7f0000" stroke-width="2" /></svg>