<?xml version="1.0" encoding="utf-8" ?>
<svg baseProfile="tiny" height="128" version="1.2" viewBox="0,0,128,128" width="128" xmlns="http://www.w3.org/2000/svg" xmlns:ev="http://www.w3.org/2001/xml-events" xmlns:xlink="http://www.w3.org/1999/xlink"><defs /><polyline fill="none" points="69.8576,100.2305 50.3322,100.2305 44.6915,98.4949 36.4475,93.2881 27.7695,83.3085 27.7695,73.7627 32.5424,67.2542 40.3525,62.9153 57.7085,58.5763 67.6881,59.0102 72.8949,60.7458 81.5729,70.2915 85.0441,82.8746 84.1763,89.8169 79.8373,95.0237 68.5559,101.0983 62.9153,101.9661 60.3119,100.6644" stroke="#00007f" stroke-width="2" /><polyline fill="none" points="68.9898,60.7458 67.6881,47.7288 71.1593,40.7864 78.9695,35.5797 86.3458,35.1458 88.9492,36.4475 92.8542,40.3525 95.4576,46.4271 96.7593,59.0102 91.5525,69.8576 83.7424,73.7627" stroke="#0000f1" stroke-width="2" /><polyline fill="none" points="27.7695,84.1763 26.4678,84.6102 17.3559,75.9322 10.8475,64.6508 8.678,49.4644 8.678,18.6576 11.7153,11.7153 18.2237,8.678 20.8271,9.5458 26.4678,19.0915 28.6373,32.5424 26.4678,65.9525 28.6373,70.2915" stroke="#004cff" stroke-width="2" /><polyline fill="none" points="38.6169,90.2508 34.278,114.1153" stroke="#00b0ff" stroke-width="2" /><polyline fill="none" points="46.4271,94.5898 45.9932,106.739 44.2576,113.6814" stroke="#29ffcd" stroke-width="2" /><polyline fill="none" points="65.5186,96.7593 68.122,119.322" stroke="#7cff79" stroke-width="2" /><polyline fill="none" points="76.3661,92.4203 80.7051,107.1729 80.2712,112.8136" stroke="#cdff29" stroke-width="2" /><polyline fill="none" points="72.0271,46.861 72.0271,45.5593 74.6305,45.1254 75.9322,47.2949 74.1966,47.2949 75.0644,45.9932" stroke="#ffc400" stroke-width="2" /><polyline fill="none" points="86.3458,47.2949 87.6475,46.861 87.2136,48.1627 85.9119,47.2949 87.6475,46.861" stroke="#ff6700" stroke-width="2" /><polyline fill="none" points="72.8949,55.1051 77.2339,61.1797 82.8746,64.6508 85.9119,61.1797 87.2136,55.1051" stroke="#f10700" stroke-width="2" /><polyline fill="none" points="63.3492,58.5763 60.7458,40.7864 60.7458,39.9186 62.0475,40.3525 63.3492,42.9559 59.878,36.4475 59.0102,27.7695 60.7458,24.2983 62.9153,24.2983 66.8203,26.9017 71.5932,33.8441 68.122,22.9966 68.122,16.4881 69.4237,14.3186 75.9322,16.922 81.139,23.8644 81.5729,26.9017 78.9695,19.0915 79.4034,13.0169 83.3085,12.5831 86.3458,15.1864 90.6847,23.4305 89.3831,15.1864 93.2881,16.4881 95.4576,19.5254 95.4576,29.0712 95.4576,26.0339 98.061,24.2983 100.2305,29.5051 100.2305,39.0508 98.061,49.0305" stroke="#7f0000" stroke-width="2" /></svg>