<?xml version="1.0" encoding="utf-8" ?>
<svg baseProfile="tiny" height="128" version="1.2" viewBox="0,0,128,128" width="128" xmlns="http://www.w3.org/2000/svg" xmlns:ev="http://www.w3.org/2001/xml-events" xmlns:xlink="http://www.w3.org/1999/xlink"><defs /><polyline fill="none" points="13.4508,34.278 13.4508,28.6373 14.7525,26.0339 19.9593,22.9966 24.7322,22.9966 31.6746,26.0339 34.7119,35.5797 34.7119,41.6542 29.0712,47.2949 26.0339,48.5966 19.5254,48.5966 16.0542,46.4271 12.1492,39.9186 11.2814,33.4102 13.4508,30.8068" stroke="#00007f" stroke-width="2" /><polyline fill="none" points="34.7119,45.1254 67.2542,36.4475 83.7424,36.0136 86.3458,41.2203 85.9119,48.1627 75.9322,56.4068 66.8203,60.7458 61.6136,62.0475 42.9559,61.1797 39.9186,56.8407 40.3525,45.5593 44.2576,40.7864 47.7288,40.3525" stroke="#0000b1" stroke-width="2" /><polyline fill="none" points="85.0441,42.522 86.7797,39.0508 100.2305,28.2034 111.9458,14.3186 113.2475,17.3559 113.2475,26.0339 111.5119,30.3729 98.4949,42.522 91.9864,42.9559" stroke="#0000e3" stroke-width="2" /><polyline fill="none" points="25.6,15.6203 29.0712,10.8475 33.8441,8.678 34.7119,19.0915" stroke="#0004ff" stroke-width="2" /><polyline fill="none" points="12.5831,21.6949 8.678,9.5458 16.922,17.7898" stroke="#0030ff" stroke-width="2" /><polyline fill="none" points="18.2237,33.4102 21.6949,34.7119 27.7695,34.7119 27.7695,30.3729" stroke="#005cff" stroke-width="2" /><polyline fill="none" points="24.7322,27.7695 21.6949,26.9017" stroke="#0088ff" stroke-width="2" /><polyline fill="none" points="19.5254,26.9017 19.5254,26.9017" stroke="#00b4ff" stroke-width="2" /><polyline fill="none" points="52.0678,60.7458 46.861,76.3661 57.7085,69.8576 62.0475,65.9525" stroke="#00e4f7" stroke-width="2" /><polyline fill="none" points="67.6881,61.1797 69.8576,69.4237 72.461,72.8949" stroke="#22ffd4" stroke-width="2" /><polyline fill="none" points="80.7051,54.2373 91.1186,68.9898 92.4203,67.2542" stroke="#46ffb0" stroke-width="2" /><polyline fill="none" points="83.7424,48.5966 91.1186,53.8034 119.322,63.7831 118.0203,62.4814 94.1559,55.539" stroke="#69ff8d" stroke-width="2" /><polyline fill="none" points="46.4271,39.4847 49.0305,49.4644 51.2,50.3322 54.2373,48.5966" stroke="#8dff69" stroke-width="2" /><polyline fill="none" points="60.7458,40.3525 63.7831,47.2949" stroke="#b0ff46" stroke-width="2" /><polyline fill="none" points="70.2915,39.0508 71.1593,49.8983" stroke="#d4ff22" stroke-width="2" /><polyline fill="none" points="70.7254,51.2 66.8203,52.9356 61.1797,52.9356" stroke="#f7f400" stroke-width="2" /><polyline fill="none" points="52.9356,49.4644 52.9356,52.5017" stroke="#ffc800" stroke-width="2" /><polyline fill="none" points="51.6339,51.6339 49.4644,62.0475 43.8237,47.2949" stroke="#ff9f00" stroke-width="2" /><polyline fill="none" points="16.922,26.9017 18.2237,27.7695 17.7898,26.9017" stroke="#ff7600" stroke-width="2" /><polyline fill="none" points="22.9966,28.6373 28.2034,28.6373" stroke="#ff4d00" stroke-width="2" /><polyline fill="none" points="24.7322,30.8068 26.9017,31.6746" stroke="#ff2500" stroke-width="2" /><polyline fill="none" points="26.4678,31.6746 26.9017,32.1085" stroke="#e30000" stroke-width="2" /><polyline fill="none" points="21.261,29.5051 16.922,30.8068" stroke="#b10000" stroke-width="2" /><polyline fill="none" points="20.3932,31.6746 20.3932,31.6746" stroke="#7f0000" stroke-width="2" /></svg>