<?xml version="1.0" encoding="utf-8" ?>
<svg baseProfile="tiny" height="128" version="1.2" viewBox="0,0,128,128" width="128" xmlns="http://www.w3.org/2000/svg" xmlns:ev="http://www.w3.org/2001/xml-events" xmlns:xlink="http://www.w3.org/1999/xlink"><defs /><polyline fill="none" points="112.3265,23.9456 101.8776,23.5102 94.9116,28.2993 91.8639,32.2177 89.2517,39.619 89.2517,46.585 90.5578,49.6327 94.0408,51.3741 101.4422,52.2449 105.3605,50.9388 110.585,45.2789 112.7619,38.7483 113.1973,30.9116 110.1497,20.898 107.9728,20.0272" stroke="#00007f" stroke-width="2" /><polyline fill="none" points="90.9932,28.2993 90.9932,19.5918 93.1701,14.3673 97.5238,8.7075 98.8299,12.1905 99.2653,23.9456" stroke="#0000fe" stroke-width="2" /><polyline fill="none" points="110.585,27.4286 115.3741,12.6259 118.8571,9.5782 118.8571,26.5578" stroke="#0060ff" stroke-width="2" /><polyline fill="none" points="95.3469,33.5238 80.9796,26.5578" stroke="#00d4ff" stroke-width="2" /><polyline fill="none" points="90.9932,41.7959 85.3333,39.1837 79.6735,40.0544" stroke="#4cffaa" stroke-width="2" /><polyline fill="none" points="91.4286,46.585 83.1565,47.4558 80.1088,50.5034" stroke="#aaff4c" stroke-width="2" /><polyline fill="none" points="104.4898,39.1837 114.9388,39.1837 119.2925,43.102" stroke="#ffe500" stroke-width="2" /><polyline fill="none" points="107.5374,43.102 119.2925,46.585" stroke="#ff7a00" stroke-width="2" /><polyline fill="none" points="105.7959,47.0204 111.0204,52.6803" stroke="#fe1200" stroke-width="2" /><polyline fill="none" points="95.7823,47.8912 74.8844,44.8435 37.0068,35.7007 24.8163,35.7007 11.3197,43.102 8.7075,48.3265 10.0136,54.4218 16.9796,60.0816 21.7687,62.2585 34.8299,65.3061 50.068,66.1769 70.966,66.6122 77.0612,65.3061" stroke="#7f0000" stroke-width="2" /></svg>