<?xml version="1.0" encoding="utf-8" ?>
<svg baseProfile="tiny" height="128" version="1.2" viewBox="0,0,128,128" width="128" xmlns="http://www.w3.org/2000/svg" xmlns:ev="http://www.w3.org/2001/xml-events" xmlns:xlink="http://www.w3.org/1999/xlink"><defs /><polyline fill="none" points="40.3525,43.3898 48.5966,20.3932 54.6712,8.678 54.6712,43.3898 62.0475,44.2576 69.8576,39.9186 80.7051,37.3153 88.5153,32.9763 105.0034,12.1492 108.4746,9.9797 109.7763,11.7153 118.8881,39.0508 118.8881,48.5966 115.8508,51.6339 118.4542,57.7085 119.322,72.0271 115.8508,82.8746 105.4373,91.5525 80.7051,101.5322 55.539,109.3424 45.5593,109.3424 26.9017,103.7017 23.8644,100.6644 21.6949,91.1186 21.6949,67.2542 26.0339,57.7085 38.6169,49.4644 41.6542,45.5593" stroke="#00007f" stroke-width="2" /><polyline fill="none" points="50.7661,58.5763 52.0678,61.6136 53.3695,59.878 50.7661,56.4068 50.3322,59.4441 53.8034,62.4814 54.6712,60.7458 51.6339,58.1424 51.2,59.878 54.6712,67.2542 54.2373,63.7831 51.6339,60.3119 52.9356,59.878 52.5017,58.5763 56.8407,60.7458" stroke="#0010ff" stroke-width="2" /><polyline fill="none" points="83.3085,58.5763 84.1763,60.3119 87.6475,62.0475 91.1186,62.4814 91.9864,60.3119 85.9119,56.8407 84.1763,57.2746 90.2508,64.2169" stroke="#00a4ff" stroke-width="2" /><polyline fill="none" points="60.7458,87.2136 76.3661,87.2136 85.0441,82.8746 88.5153,76.3661" stroke="#3fffb7" stroke-width="2" /><polyline fill="none" points="40.3525,82.8746 28.6373,78.5356 20.3932,77.2339" stroke="#b7ff3f" stroke-width="2" /><polyline fill="none" points="45.5593,94.5898 12.1492,100.6644" stroke="#ffb900" stroke-width="2" /><polyline fill="none" points="22.5627,77.2339 8.678,75.4983" stroke="#ff3000" stroke-width="2" /><polyline fill="none" points="116.2847,57.7085 92.4203,60.3119" stroke="#7f0000" stroke-width="2" /></svg>