<?xml version="1.0" encoding="utf-8" ?>
<svg baseProfile="tiny" height="128" version="1.2" viewBox="0,0,128,128" width="128" xmlns="http://www.w3.org/2000/svg" xmlns:ev="http://www.w3.org/2001/xml-events" xmlns:xlink="http://www.w3.org/1999/xlink"><defs /><polyline fill="none" points="14.7525,36.4475 15.1864,45.9932 18.6576,49.4644 31.6746,54.6712 41.6542,55.1051 51.2,49.8983 53.8034,40.7864 50.7661,34.7119 45.1254,30.3729 36.8814,28.2034 26.0339,28.2034 16.922,32.5424 8.678,33.4102" stroke="#00007f" stroke-width="2" /><polyline fill="none" points="37.7492,52.9356 32.5424,58.5763 22.9966,64.6508 12.5831,77.6678 10.8475,84.1763 11.7153,90.2508 13.4508,93.2881 16.4881,95.4576 35.1458,100.2305 52.0678,100.2305 59.4441,98.4949 64.6508,92.4203 67.2542,81.5729 67.2542,72.0271 65.5186,68.5559 54.6712,59.0102 45.9932,54.6712 41.2203,53.3695" stroke="#0000e8" stroke-width="2" /><polyline fill="none" points="22.1288,28.2034 20.8271,24.7322 20.8271,8.678 25.6,20.8271 29.5051,25.6" stroke="#0038ff" stroke-width="2" /><polyline fill="none" points="36.0136,25.6 47.7288,9.9797 49.4644,13.0169 45.9932,26.4678" stroke="#0094ff" stroke-width="2" /><polyline fill="none" points="47.7288,94.5898 48.5966,98.4949 39.4847,108.4746 38.6169,114.5492 46.4271,119.322 56.4068,119.322 60.7458,117.5864" stroke="#0cf4ea" stroke-width="2" /><polyline fill="none" points="27.7695,39.0508 31.6746,41.6542 33.8441,42.0881 34.7119,39.4847 24.7322,38.1831" stroke="#56ffa0" stroke-width="2" /><polyline fill="none" points="43.8237,36.0136 42.9559,39.0508 45.5593,39.0508 45.5593,36.4475 43.8237,36.4475" stroke="#a0ff56" stroke-width="2" /><polyline fill="none" points="38.1831,41.6542 40.3525,46.861" stroke="#eaff0c" stroke-width="2" /><polyline fill="none" points="36.4475,45.9932 42.9559,46.861" stroke="#ffaa00" stroke-width="2" /><polyline fill="none" points="40.3525,46.861 22.5627,54.2373 16.922,60.7458" stroke="#ff5500" stroke-width="2" /><polyline fill="none" points="45.5593,48.1627 94.1559,48.1627 102.4,47.2949" stroke="#e80000" stroke-width="2" /><polyline fill="none" points="52.0678,52.0678 85.0441,56.8407" stroke="#7f0000" stroke-width="2" /></svg>