<?xml version="1.0" encoding="utf-8" ?>
<svg baseProfile="tiny" height="128" version="1.2" viewBox="0,0,128,128" width="128" xmlns="http://www.w3.org/2000/svg" xmlns:ev="http://www.w3.org/2001/xml-events" xmlns:xlink="http://www.w3.org/1999/xlink"><defs /><polyline fill="none" points="13.4508,82.4407 17.3559,95.8915 26.4678,109.3424 39.4847,117.1525 46.4271,119.322 64.6508,119.322 70.7254,118.0203 90.2508,105.8712 101.0983,96.3254 110.6441,78.1017 99.7966,74.6305 85.478,73.3288 83.7424,69.8576 86.7797,33.4102 84.1763,26.9017 78.9695,22.5627 54.2373,21.261 43.3898,29.0712 39.9186,33.8441 37.7492,42.522 39.0508,76.8 20.3932,72.8949" stroke="#00007f" stroke-width="2" /><polyline fill="none" points="44.6915,23.4305 36.0136,21.261 8.678,8.678 16.4881,24.7322 29.939,34.7119" stroke="#0000fe" stroke-width="2" /><polyline fill="none" points="81.139,20.8271 86.3458,17.7898 95.4576,15.1864 111.5119,14.7525 112.3797,16.922 91.9864,32.5424 88.0814,40.7864" stroke="#0060ff" stroke-width="2" /><polyline fill="none" points="58.5763,75.9322 61.1797,77.6678 63.3492,77.6678 61.6136,75.0644" stroke="#00d4ff" stroke-width="2" /><polyline fill="none" points="60.7458,75.0644 39.9186,65.0847 27.7695,64.2169 20.8271,66.8203" stroke="#4cffaa" stroke-width="2" /><polyline fill="none" points="63.3492,75.4983 91.9864,49.0305 106.3051,42.0881 115.8508,39.9186" stroke="#aaff4c" stroke-width="2" /><polyline fill="none" points="65.9525,75.4983 97.1932,72.8949" stroke="#ffe500" stroke-width="2" /><polyline fill="none" points="60.7458,78.9695 54.2373,80.7051 45.5593,86.3458" stroke="#ff7a00" stroke-width="2" /><polyline fill="none" points="62.9153,42.9559 62.9153,51.6339" stroke="#fe1200" stroke-width="2" /><polyline fill="none" points="55.9729,44.6915 55.9729,55.1051" stroke="#7f0000" stroke-width="2" /></svg>