<?xml version="1.0" encoding="utf-8" ?>
<svg baseProfile="tiny" height="128" version="1.2" viewBox="0,0,128,128" width="128" xmlns="http://www.w3.org/2000/svg" xmlns:ev="http://www.w3.org/2001/xml-events" xmlns:xlink="http://www.w3.org/1999/xlink"><defs /><polyline fill="none" points="24.2983,43.8237 34.7119,8.678 39.9186,39.0508 52.0678,34.7119 58.1424,34.278 80.2712,40.7864 82.8746,42.522 92.8542,18.6576 101.0983,38.6169 102.8339,45.1254 101.9661,61.1797 95.0237,78.5356 88.0814,82.8746 73.7627,85.9119 63.7831,85.478 52.0678,79.8373 35.5797,68.5559 32.1085,64.6508 24.7322,47.2949 25.6,42.0881" stroke="#00007f" stroke-width="2" /><polyline fill="none" points="29.5051,48.1627 25.6,50.7661 8.678,53.3695" stroke="#0000ff" stroke-width="2" /><polyline fill="none" points="28.6373,55.539 13.0169,59.4441" stroke="#0080ff" stroke-width="2" /><polyline fill="none" points="42.0881,61.6136 24.2983,70.2915" stroke="#15ffe1" stroke-width="2" /><polyline fill="none" points="94.1559,55.539 112.3797,56.8407" stroke="#7cff79" stroke-width="2" /><polyline fill="none" points="95.4576,64.2169 111.9458,67.6881" stroke="#e4ff12" stroke-width="2" /><polyline fill="none" points="95.0237,71.5932 119.322,75.4983" stroke="#ff9400" stroke-width="2" /><polyline fill="none" points="48.5966,51.2 48.5966,52.5017 49.8983,51.6339" stroke="#ff1d00" stroke-width="2" /><polyline fill="none" points="74.6305,52.9356 75.4983,54.2373" stroke="#7f0000" stroke-width="2" /></svg>