<?xml version="1.0" encoding="utf-8" ?>
<svg baseProfile="tiny" height="128" version="1.2" viewBox="0,0,128,128" width="128" xmlns="http://www.w3.org/2000/svg" xmlns:ev="http://www.w3.org/2001/xml-events" xmlns:xlink="http://www.w3.org/1999/xlink"><defs /><polyline fill="none" points="36.4475,25.6 22.5627,36.8814 19.9593,44.6915 19.9593,50.3322 24.7322,52.0678 33.4102,50.7661 40.3525,47.7288 45.5593,42.0881 45.9932,36.4475 43.3898,26.0339 40.3525,22.5627 34.278,20.3932" stroke="#00007f" stroke-width="2" /><polyline fill="none" points="19.5254,35.5797 13.8847,28.2034 8.678,8.678 30.3729,32.9763" stroke="#0028ff" stroke-width="2" /><polyline fill="none" points="29.5051,19.0915 39.4847,11.2814 47.7288,8.678 48.5966,15.6203 44.6915,29.0712" stroke="#00d4ff" stroke-width="2" /><polyline fill="none" points="27.7695,38.6169 28.6373,34.278 29.5051,36.4475 33.4102,33.4102" stroke="#7cff79" stroke-width="2" /><polyline fill="none" points="41.2203,32.1085 38.6169,34.278" stroke="#ffe500" stroke-width="2" /><polyline fill="none" points="28.6373,47.2949 36.4475,45.1254 42.0881,39.4847" stroke="#ff4600" stroke-width="2" /><polyline fill="none" points="37.3153,50.7661 50.3322,48.5966 80.7051,50.3322 103.7017,55.9729 113.6814,59.4441 118.8881,63.3492 119.322,66.8203 117.5864,68.5559 101.9661,77.2339 83.3085,80.7051 68.9898,79.4034 51.6339,72.8949 42.0881,65.0847 35.5797,55.9729 32.1085,45.9932 31.2407,38.1831" stroke="#7f0000" stroke-width="2" /></svg>