<?xml version="1.0" encoding="utf-8" ?>
<svg baseProfile="tiny" height="128" version="1.2" viewBox="0,0,128,128" width="128" xmlns="http://www.w3.org/2000/svg" xmlns:ev="http://www.w3.org/2001/xml-events" xmlns:xlink="http://www.w3.org/1999/xlink"><defs /><polyline fill="none" points="37.3153,34.7119 43.8237,8.678 47.7288,28.2034 50.7661,35.1458" stroke="#00007f" stroke-width="2" /><polyline fill="none" points="51.2,32.9763 55.1051,29.0712 59.4441,26.9017 81.139,26.4678 89.3831,31.2407 92.8542,37.3153" stroke="#0000de" stroke-width="2" /><polyline fill="none" points="91.9864,34.7119 101.5322,13.0169 107.1729,32.5424 107.6068,36.4475 106.739,37.3153" stroke="#0028ff" stroke-width="2" /><polyline fill="none" points="36.4475,32.1085 23.8644,46.4271 19.5254,54.6712 17.7898,63.3492 18.2237,76.3661 26.4678,92.4203 34.7119,99.3627 47.7288,101.9661 88.5153,101.0983 104.1356,96.3254 111.5119,90.2508 115.8508,81.139 119.322,49.0305 117.5864,38.6169 113.2475,34.7119 109.7763,34.278" stroke="#0080ff" stroke-width="2" /><polyline fill="none" points="64.2169,63.3492 58.1424,91.9864 54.6712,94.1559 52.5017,94.1559 52.9356,92.8542" stroke="#00d4ff" stroke-width="2" /><polyline fill="none" points="64.6508,65.0847 63.7831,77.6678 65.0847,82.4407 69.4237,91.9864 73.7627,92.8542" stroke="#36ffc0" stroke-width="2" /><polyline fill="none" points="60.3119,83.7424 65.0847,84.1763" stroke="#7cff79" stroke-width="2" /><polyline fill="none" points="45.5593,59.4441 16.0542,59.4441 8.678,56.8407" stroke="#c0ff36" stroke-width="2" /><polyline fill="none" points="39.4847,59.878 31.2407,82.4407 27.7695,93.2881 28.2034,95.8915" stroke="#ffe500" stroke-width="2" /><polyline fill="none" points="74.1966,60.3119 100.6644,51.2 107.6068,49.8983" stroke="#ff9400" stroke-width="2" /><polyline fill="none" points="84.1763,55.539 95.0237,67.2542 100.6644,77.6678" stroke="#ff4600" stroke-width="2" /><polyline fill="none" points="55.1051,36.8814 51.6339,45.5593 54.2373,47.7288 56.8407,45.9932 57.2746,43.8237 53.8034,44.2576 53.3695,46.4271 54.6712,48.5966 56.8407,47.2949 56.4068,42.9559 52.9356,44.6915 53.8034,46.861 55.9729,48.1627 58.1424,47.2949" stroke="#de0000" stroke-width="2" /><polyline fill="none" points="72.0271,39.4847 66.8203,43.8237 66.8203,45.9932 71.5932,47.7288 72.8949,46.4271 70.7254,43.3898 73.3288,43.3898" stroke="#7f0000" stroke-width="2" /></svg>