<?xml version="1.0" encoding="utf-8" ?>
<svg baseProfile="tiny" height="128" version="1.2" viewBox="0,0,128,128" width="128" xmlns="http://www.w3.org/2000/svg" xmlns:ev="http://www.w3.org/2001/xml-events" xmlns:xlink="http://www.w3.org/1999/xlink"><defs /><polyline fill="none" points="31.6746,109.3424 12.5831,98.061 9.5458,91.1186 8.678,83.7424 11.2814,76.8 16.4881,68.5559 28.6373,57.2746 36.4475,52.9356 44.2576,51.2 59.0102,51.6339 67.6881,53.8034 76.3661,58.5763 83.3085,65.5186 87.2136,72.461 91.9864,96.3254 89.8169,102.8339 85.0441,107.6068 77.6678,111.9458 68.9898,114.1153 45.5593,115.8508 33.8441,112.3797 30.8068,109.7763" stroke="#00007f" stroke-width="2" /><polyline fill="none" points="20.3932,62.0475 20.8271,31.6746 19.0915,8.678 28.2034,17.7898 57.2746,38.1831 65.5186,52.5017" stroke="#0000ff" stroke-width="2" /><polyline fill="none" points="65.5186,52.0678 85.478,38.1831 119.322,17.7898 115.8508,34.7119 111.078,45.9932 104.5695,54.6712 94.1559,60.3119" stroke="#0080ff" stroke-width="2" /><polyline fill="none" points="87.6475,63.3492 87.6475,63.3492" stroke="#15ffe1" stroke-width="2" /><polyline fill="none" points="29.5051,76.8 40.3525,70.2915 42.522,70.2915 43.8237,74.1966 42.9559,77.6678 40.3525,79.4034 32.9763,79.8373 29.5051,77.2339" stroke="#7cff79" stroke-width="2" /><polyline fill="none" points="59.4441,81.5729 59.4441,75.9322 62.0475,72.461 65.5186,71.1593 68.5559,71.1593 71.5932,73.7627 72.8949,77.2339 72.461,81.139 67.2542,82.4407 62.0475,79.4034" stroke="#e4ff12" stroke-width="2" /><polyline fill="none" points="67.2542,76.3661 67.2542,76.3661" stroke="#ff9400" stroke-width="2" /><polyline fill="none" points="35.1458,73.7627 35.1458,73.7627" stroke="#ff1d00" stroke-width="2" /><polyline fill="none" points="26.4678,88.0814 29.5051,91.5525" stroke="#7f0000" stroke-width="2" /></svg>