<?xml version="1.0" encoding="utf-8" ?>
<svg baseProfile="tiny" height="128" version="1.2" viewBox="0,0,128,128" width="128" xmlns="http://www.w3.org/2000/svg" xmlns:ev="http://www.w3.org/2001/xml-events" xmlns:xlink="http://www.w3.org/1999/xlink"><defs /><polyline fill="none" points="53.3695,36.0136 41.2203,36.0136 32.9763,37.3153 8.678,57.7085 8.678,61.1797 18.6576,79.8373 53.8034,98.4949 71.1593,105.4373 83.3085,108.4746 90.6847,108.4746 108.4746,105.0034 112.8136,101.5322 117.1525,92.8542 119.322,82.0068 118.4542,68.5559 97.1932,46.861 89.3831,40.3525 80.7051,37.3153 62.0475,38.1831 59.878,41.6542 45.5593,43.8237 42.9559,41.6542" stroke="#00007f" stroke-width="2" /><polyline fill="none" points="95.4576,43.8237 105.8712,27.3356 111.5119,20.8271 108.4746,42.9559 102.8339,60.3119 101.5322,57.7085" stroke="#004cff" stroke-width="2" /><polyline fill="none" points="32.5424,32.9763 34.7119,27.7695 36.0136,12.1492 37.3153,8.678 41.2203,8.678 43.8237,15.6203 43.8237,34.7119 46.861,48.5966 49.0305,52.9356 45.1254,45.9932" stroke="#29ffcd" stroke-width="2" /><polyline fill="none" points="63.3492,66.8203 70.2915,66.8203" stroke="#cdff29" stroke-width="2" /><polyline fill="none" points="85.0441,69.8576 91.9864,69.8576 92.8542,65.9525" stroke="#ff6700" stroke-width="2" /><polyline fill="none" points="63.3492,75.4983 71.1593,80.7051 93.722,81.139 93.2881,78.5356" stroke="#7f0000" stroke-width="2" /></svg>