<?xml version="1.0" encoding="utf-8" ?>
<svg baseProfile="tiny" height="128" version="1.2" viewBox="0,0,128,128" width="128" xmlns="http://www.w3.org/2000/svg" xmlns:ev="http://www.w3.org/2001/xml-events" xmlns:xlink="http://www.w3.org/1999/xlink"><defs /><polyline fill="none" points="32.5424,42.9559 27.7695,59.0102 29.5051,80.7051 36.4475,93.722 50.3322,105.0034 62.4814,108.4746 75.0644,106.739 87.2136,102.4 95.4576,97.1932 101.9661,89.8169 106.3051,54.2373 103.7017,43.3898 101.5322,42.522 111.5119,30.8068 118.0203,16.922 119.322,9.5458 116.2847,8.678 100.2305,17.3559 90.6847,26.4678 84.1763,38.6169 82.4407,39.0508 62.4814,34.7119 51.2,34.278 35.1458,19.9593 30.3729,19.0915 27.3356,20.8271 26.4678,22.9966 32.5424,43.8237 36.8814,50.3322 41.6542,52.5017" stroke="#00007f" stroke-width="2" /><polyline fill="none" points="33.4102,32.5424 43.3898,41.2203 45.5593,41.6542 34.7119,33.4102" stroke="#0000fe" stroke-width="2" /><polyline fill="none" points="114.5492,25.6 95.0237,39.0508 94.1559,41.6542 107.1729,28.6373 108.0407,25.6 106.3051,24.2983" stroke="#0060ff" stroke-width="2" /><polyline fill="none" points="80.2712,76.3661 86.7797,72.8949 116.2847,65.5186" stroke="#00d4ff" stroke-width="2" /><polyline fill="none" points="81.5729,84.6102 99.3627,81.5729 107.6068,82.4407" stroke="#4cffaa" stroke-width="2" /><polyline fill="none" points="82.4407,87.6475 97.6271,90.2508" stroke="#aaff4c" stroke-width="2" /><polyline fill="none" points="45.9932,70.7254 17.3559,71.5932 8.678,75.9322" stroke="#ffe500" stroke-width="2" /><polyline fill="none" points="41.2203,78.9695 33.4102,82.0068 16.0542,95.4576" stroke="#ff7a00" stroke-width="2" /><polyline fill="none" points="49.4644,85.9119 32.5424,102.8339 30.8068,107.1729" stroke="#fe1200" stroke-width="2" /><polyline fill="none" points="60.7458,76.3661 68.9898,75.0644" stroke="#7f0000" stroke-width="2" /></svg>