<?xml version="1.0" encoding="utf-8" ?>
<svg baseProfile="tiny" height="128" version="1.2" viewBox="0,0,128,128" width="128" xmlns="http://www.w3.org/2000/svg" xmlns:ev="http://www.w3.org/2001/xml-events" xmlns:xlink="http://www.w3.org/1999/xlink"><defs /><polyline fill="none" points="61.1797,19.0915 56.8407,13.4508 53.8034,12.1492 52.9356,13.0169 56.8407,22.5627 55.9729,29.0712 59.878,36.0136 66.8203,42.0881 78.1017,42.9559 81.139,41.6542 88.0814,36.0136 91.1186,30.3729 89.8169,24.7322 84.1763,22.1288 84.1763,17.7898 87.6475,8.678 79.8373,16.922 76.3661,14.7525 71.1593,14.7525 65.5186,16.0542 61.6136,19.0915" stroke="#00007f" stroke-width="2" /><polyline fill="none" points="78.5356,27.7695 98.061,14.7525" stroke="#0000ff" stroke-width="2" /><polyline fill="none" points="82.0068,29.5051 98.9288,24.2983 119.322,22.5627" stroke="#0080ff" stroke-width="2" /><polyline fill="none" points="82.4407,31.6746 105.4373,31.6746 117.1525,35.5797" stroke="#15ffe1" stroke-width="2" /><polyline fill="none" points="64.6508,29.939 46.4271,23.8644 16.4881,19.9593 8.678,16.922" stroke="#7cff79" stroke-width="2" /><polyline fill="none" points="57.2746,31.6746 42.9559,32.1085 23.4305,38.1831" stroke="#e4ff12" stroke-width="2" /><polyline fill="none" points="63.3492,35.1458 44.2576,44.6915 38.1831,51.2" stroke="#ff9400" stroke-width="2" /><polyline fill="none" points="70.2915,31.6746 77.6678,30.3729 78.9695,32.5424 70.7254,34.7119 68.5559,32.9763 69.8576,31.6746" stroke="#ff1d00" stroke-width="2" /><polyline fill="none" points="72.461,33.8441 72.461,33.8441" stroke="#7f0000" stroke-width="2" /></svg>