<?xml version="1.0" encoding="utf-8" ?>
<svg baseProfile="tiny" height="128" version="1.2" viewBox="0,0,128,128" width="128" xmlns="http://www.w3.org/2000/svg" xmlns:ev="http://www.w3.org/2001/xml-events" xmlns:xlink="http://www.w3.org/1999/xlink"><defs /><polyline fill="none" points="30.8068,30.8068 39.4847,23.8644 48.5966,21.6949 66.8203,21.6949 79.4034,26.4678 94.5898,10.8475 98.061,8.678 100.6644,8.678 101.5322,23.8644 96.3254,38.6169" stroke="#00007f" stroke-width="2" /><polyline fill="none" points="24.2983,33.8441 19.5254,25.1661 8.678,16.0542 8.678,26.4678 14.7525,59.0102 23.4305,75.9322 33.8441,82.8746 44.2576,86.3458 66.8203,86.3458 75.0644,82.4407 86.3458,73.7627 91.9864,63.3492 93.2881,45.1254" stroke="#0000e8" stroke-width="2" /><polyline fill="none" points="36.0136,46.4271 33.8441,49.4644 37.7492,50.7661 40.3525,47.7288 37.7492,46.861" stroke="#0038ff" stroke-width="2" /><polyline fill="none" points="70.7254,39.9186 68.122,41.2203 66.8203,45.1254 70.7254,44.6915 68.122,42.522 68.122,45.5593" stroke="#0094ff" stroke-width="2" /><polyline fill="none" points="49.8983,59.878 65.9525,58.1424 62.0475,66.8203 55.1051,68.9898 52.9356,66.3864 52.0678,60.3119" stroke="#0cf4ea" stroke-width="2" /><polyline fill="none" points="58.5763,67.6881 59.878,78.1017" stroke="#56ffa0" stroke-width="2" /><polyline fill="none" points="48.1627,68.122 23.4305,64.6508" stroke="#a0ff56" stroke-width="2" /><polyline fill="none" points="39.4847,72.8949 26.0339,74.6305" stroke="#eaff0c" stroke-width="2" /><polyline fill="none" points="43.8237,82.4407 36.8814,89.3831" stroke="#ffaa00" stroke-width="2" /><polyline fill="none" points="82.4407,62.0475 114.9831,57.2746" stroke="#ff5500" stroke-width="2" /><polyline fill="none" points="78.9695,73.3288 119.322,72.461" stroke="#e80000" stroke-width="2" /><polyline fill="none" points="81.5729,83.3085 84.1763,86.3458 102.8339,91.5525" stroke="#7f0000" stroke-width="2" /></svg>