<?xml version="1.0" encoding="utf-8" ?>
<svg baseProfile="tiny" height="128" version="1.2" viewBox="0,0,128,128" width="128" xmlns="http://www.w3.org/2000/svg" xmlns:ev="http://www.w3.org/2001/xml-events" xmlns:xlink="http://www.w3.org/1999/xlink"><defs /><polyline fill="none" points="60.2867,44.1229 54.6075,45.8703 41.5017,57.2287 37.57,75.1399 38.0068,80.3823 41.0648,85.1877 48.4915,92.6143 54.6075,96.5461 73.3925,97.8567 78.6348,95.2355 83.0034,89.5563 84.7509,85.1877 85.1877,76.8874 83.4403,71.2082 78.198,65.9659 70.3345,62.9078 60.7235,62.471" stroke="#00007f" stroke-width="2" /><polyline fill="none" points="59.8498,42.8123 65.0922,34.0751 65.0922,31.4539 61.5973,28.3959 48.0546,26.6485 38.0068,33.6382 17.4744,59.8498 13.9795,66.4027 12.6689,74.7031 12.6689,87.8089" stroke="#0000bf" stroke-width="2" /><polyline fill="none" points="18.3481,100.041 22.2799,104.8464 34.5119,113.1468 53.7338,118.8259 72.9556,118.8259 94.3618,113.5836 103.9727,109.215 114.4573,100.041 119.2628,87.8089 119.2628,76.4505 115.3311,68.1502 107.4676,59.8498 96.5461,53.2969 75.1399,44.9966 70.7713,44.9966 66.4027,48.0546 59.8498,58.5392" stroke="#0000fe" stroke-width="2" /><polyline fill="none" points="60.2867,58.5392 60.2867,58.5392" stroke="#0028ff" stroke-width="2" /><polyline fill="none" points="59.8498,53.2969 58.9761,62.0341" stroke="#0060ff" stroke-width="2" /><polyline fill="none" points="12.2321,83.0034 17.9113,98.2935 24.4642,107.4676" stroke="#009cff" stroke-width="2" /><polyline fill="none" points="37.57,65.0922 54.6075,63.7816 55.9181,69.4608 55.0444,73.3925 50.6758,77.3242 38.0068,79.5085" stroke="#00d4ff" stroke-width="2" /><polyline fill="none" points="19.2218,52.8601 18.785,45.4334 15.2901,41.0648 10.4846,41.0648 9.1741,44.1229 8.7372,62.0341 13.1058,69.8976" stroke="#1fffd7" stroke-width="2" /><polyline fill="none" points="58.5392,59.413 53.2969,54.6075 52.8601,52.8601 54.6075,51.1126 62.9078,50.2389 61.1604,49.3652 66.4027,48.0546 67.2765,45.8703 70.7713,48.9283" stroke="#4cffaa" stroke-width="2" /><polyline fill="none" points="47.6177,27.959 46.744,8.7372 53.2969,25.3379" stroke="#7cff79" stroke-width="2" /><polyline fill="none" points="55.0444,29.7065 70.7713,13.9795 65.529,28.8328" stroke="#aaff4c" stroke-width="2" /><polyline fill="none" points="63.7816,32.7645 63.7816,32.7645" stroke="#d7ff1f" stroke-width="2" /><polyline fill="none" points="44.1229,27.959 44.1229,27.959" stroke="#ffe500" stroke-width="2" /><polyline fill="none" points="54.1706,34.9488 54.1706,34.9488" stroke="#ffb100" stroke-width="2" /><polyline fill="none" points="46.744,34.5119 46.744,34.5119" stroke="#ff7a00" stroke-width="2" /><polyline fill="none" points="56.7918,36.6962 56.7918,36.6962" stroke="#ff4600" stroke-width="2" /><polyline fill="none" points="42.3754,41.9386 44.1229,43.2491 55.9181,44.1229" stroke="#fe1200" stroke-width="2" /><polyline fill="none" points="48.0546,33.2014 52.4232,34.9488" stroke="#bf0000" stroke-width="2" /><polyline fill="none" points="59.8498,34.5119 59.8498,34.5119" stroke="#7f0000" stroke-width="2" /></svg>