<?xml version="1.0" encoding="utf-8" ?>
<svg baseProfile="tiny" height="128" version="1.2" viewBox="0,0,128,128" width="128" xmlns="http://www.w3.org/2000/svg" xmlns:ev="http://www.w3.org/2001/xml-events" xmlns:xlink="http://www.w3.org/1999/xlink"><defs /><polyline fill="none" points="13.0169,48.1627 13.0169,8.678 15.6203,10.8475 27.3356,27.7695 40.7864,44.2576" stroke="#00007f" stroke-width="2" /><polyline fill="none" points="41.2203,40.3525 62.4814,38.1831 65.0847,40.3525 66.3864,45.5593 72.8949,33.8441 85.0441,19.0915 87.2136,23.4305 86.3458,69.4237 75.9322,82.4407 67.6881,87.2136 48.1627,86.7797 26.9017,78.9695 21.6949,75.9322 19.9593,63.3492 13.0169,53.3695 10.4136,51.6339 8.678,48.5966 9.1119,46.4271" stroke="#0000d1" stroke-width="2" /><polyline fill="none" points="49.0305,65.0847 57.7085,64.6508 58.1424,72.461 55.539,72.461 49.8983,65.5186 36.0136,65.5186 39.4847,67.6881" stroke="#0010ff" stroke-width="2" /><polyline fill="none" points="56.8407,69.8576 42.522,69.8576 37.7492,71.5932" stroke="#0058ff" stroke-width="2" /><polyline fill="none" points="53.8034,72.461 48.1627,73.3288 44.6915,77.2339" stroke="#00a4ff" stroke-width="2" /><polyline fill="none" points="61.6136,65.0847 72.8949,63.3492" stroke="#05ecf1" stroke-width="2" /><polyline fill="none" points="62.9153,70.2915 75.9322,70.2915 85.0441,68.5559" stroke="#3fffb7" stroke-width="2" /><polyline fill="none" points="62.0475,74.1966 82.0068,74.1966" stroke="#7cff79" stroke-width="2" /><polyline fill="none" points="55.1051,70.7254 46.4271,70.7254" stroke="#b7ff3f" stroke-width="2" /><polyline fill="none" points="44.2576,51.2 41.6542,51.2 40.7864,57.2746 42.9559,57.7085" stroke="#f1fc05" stroke-width="2" /><polyline fill="none" points="48.1627,51.6339 42.0881,49.8983 41.6542,55.1051 44.2576,56.4068" stroke="#ffb900" stroke-width="2" /><polyline fill="none" points="46.861,54.6712 44.2576,53.8034 42.0881,56.4068 42.0881,59.0102 47.2949,58.5763 47.7288,55.539 45.9932,52.9356 42.9559,51.6339" stroke="#ff7300" stroke-width="2" /><polyline fill="none" points="64.6508,51.6339 62.0475,52.9356 62.0475,55.9729 64.2169,56.4068 67.2542,55.1051 67.6881,52.5017 62.0475,49.8983 59.4441,49.8983 60.3119,51.6339" stroke="#ff3000" stroke-width="2" /><polyline fill="none" points="38.1831,80.7051 35.5797,91.1186 35.1458,109.3424 38.6169,111.5119 118.8881,110.6441 109.7763,97.6271 109.3424,75.4983 106.739,73.7627 67.2542,75.0644 73.3288,76.3661" stroke="#d10000" stroke-width="2" /><polyline fill="none" points="110.2102,78.9695 109.7763,70.2915 119.322,60.3119" stroke="#7f0000" stroke-width="2" /></svg>