<?xml version="1.0" encoding="utf-8" ?>
<svg baseProfile="tiny" height="128" version="1.2" viewBox="0,0,128,128" width="128" xmlns="http://www.w3.org/2000/svg" xmlns:ev="http://www.w3.org/2001/xml-events" xmlns:xlink="http://www.w3.org/1999/xlink"><defs /><polyline fill="none" points="49.8983,44.6915 36.8814,44.6915 31.6746,46.861 24.2983,51.6339 20.8271,60.3119 20.3932,78.5356 26.4678,88.5153 33.8441,94.1559 42.522,95.8915 54.2373,96.3254 64.6508,95.0237 76.8,91.1186 87.2136,85.9119 93.722,78.1017 99.7966,65.0847 99.3627,54.2373 95.0237,44.6915 88.9492,38.1831 78.1017,31.2407 66.8203,29.0712 55.1051,29.939 52.5017,32.1085 45.9932,42.522" stroke="#00007f" stroke-width="2" /><polyline fill="none" points="46.4271,53.3695 44.6915,55.539" stroke="#0000d5" stroke-width="2" /><polyline fill="none" points="61.6136,52.5017 62.0475,52.5017" stroke="#001cff" stroke-width="2" /><polyline fill="none" points="47.7288,75.0644 51.2,78.5356 57.7085,78.5356 62.4814,71.5932" stroke="#006cff" stroke-width="2" /><polyline fill="none" points="53.8034,66.8203 51.2,66.3864 50.3322,68.5559 49.4644,80.7051 47.2949,82.8746 45.5593,82.0068 45.9932,79.4034" stroke="#00b8ff" stroke-width="2" /><polyline fill="none" points="51.6339,68.5559 52.5017,78.9695 53.8034,81.5729 59.0102,80.7051 60.7458,71.5932" stroke="#1cffda" stroke-width="2" /><polyline fill="none" points="44.6915,65.0847 9.5458,53.3695" stroke="#5cff9a" stroke-width="2" /><polyline fill="none" points="34.278,72.0271 16.4881,72.8949 10.8475,74.6305" stroke="#9aff5c" stroke-width="2" /><polyline fill="none" points="36.0136,75.0644 26.9017,85.0441 8.678,97.1932" stroke="#daff1c" stroke-width="2" /><polyline fill="none" points="77.2339,57.7085 98.061,47.2949 107.6068,46.4271 108.9085,49.0305" stroke="#ffcb00" stroke-width="2" /><polyline fill="none" points="88.9492,63.3492 119.322,70.7254" stroke="#ff8500" stroke-width="2" /><polyline fill="none" points="75.9322,82.0068 91.9864,88.9492 116.2847,92.8542" stroke="#ff3b00" stroke-width="2" /><polyline fill="none" points="29.0712,52.0678 27.3356,49.8983 28.2034,24.2983 30.3729,25.6 48.5966,50.7661" stroke="#d50000" stroke-width="2" /><polyline fill="none" points="67.2542,28.6373 69.4237,17.7898 75.0644,8.678 78.5356,12.5831 86.3458,26.9017" stroke="#7f0000" stroke-width="2" /></svg>