<?xml version="1.0" encoding="utf-8" ?>
<svg baseProfile="tiny" height="128" version="1.2" viewBox="0,0,128,128" width="128" xmlns="http://www.w3.org/2000/svg" xmlns:ev="http://www.w3.org/2001/xml-events" xmlns:xlink="http://www.w3.org/1999/xlink"><defs /><polyline fill="none" points="57.9048,24.381 47.8912,23.9456 40.0544,26.5578 31.3469,34.3946 27.8639,40.4898 43.102,84.0272 57.9048,90.1224 73.5782,88.8163 80.5442,85.3333 88.381,76.6259 92.7347,57.4694 84.0272,44.8435 68.7891,29.6054 57.4694,20.4626" stroke="#00007f" stroke-width="2" /><polyline fill="none" points="82.7211,41.3605 90.1224,29.1701 90.1224,52.2449" stroke="#0000ff" stroke-width="2" /><polyline fill="none" points="41.3605,23.5102 47.8912,8.7075 48.3265,23.9456" stroke="#0080ff" stroke-width="2" /><polyline fill="none" points="42.6667,54.8571 13.4966,54.8571 8.7075,57.034" stroke="#15ffe1" stroke-width="2" /><polyline fill="none" points="40.0544,58.7755 10.0136,68.7891" stroke="#7cff79" stroke-width="2" /><polyline fill="none" points="38.7483,68.7891 13.932,80.9796 13.0612,82.2857 15.2381,82.2857" stroke="#e4ff12" stroke-width="2" /><polyline fill="none" points="71.8367,80.1088 94.9116,93.1701 101.8776,94.0408" stroke="#ff9400" stroke-width="2" /><polyline fill="none" points="76.1905,75.3197 107.5374,78.3673" stroke="#ff1d00" stroke-width="2" /><polyline fill="none" points="81.415,68.3537 119.2925,69.6599 113.1973,67.9184" stroke="#7f0000" stroke-width="2" /></svg>