<?xml version="1.0" encoding="utf-8" ?>
<svg baseProfile="tiny" height="128" version="1.2" viewBox="0,0,128,128" width="128" xmlns="http://www.w3.org/2000/svg" xmlns:ev="http://www.w3.org/2001/xml-events" xmlns:xlink="http://www.w3.org/1999/xlink"><defs /><polyline fill="none" points="40.7864,41.2203 37.7492,48.1627 38.6169,54.2373 43.8237,61.1797 50.7661,65.5186 67.2542,68.122 78.9695,65.5186 83.7424,62.0475 88.5153,55.9729 89.3831,51.2 88.0814,46.4271 82.4407,39.4847 71.5932,34.278 60.7458,32.5424 49.8983,33.8441 42.0881,37.3153 36.8814,44.2576" stroke="#00007f" stroke-width="2" /><polyline fill="none" points="88.0814,40.3525 98.4949,44.6915 105.4373,44.2576 112.8136,37.7492 118.0203,27.3356 119.322,19.9593 118.4542,15.6203 112.3797,13.4508 105.8712,14.3186 101.5322,17.3559" stroke="#0000ff" stroke-width="2" /><polyline fill="none" points="44.6915,63.3492 40.7864,77.6678 41.2203,82.0068" stroke="#0080ff" stroke-width="2" /><polyline fill="none" points="59.0102,64.6508 58.5763,81.5729" stroke="#15ffe1" stroke-width="2" /><polyline fill="none" points="74.1966,67.6881 72.8949,83.3085" stroke="#7cff79" stroke-width="2" /><polyline fill="none" points="82.0068,64.6508 81.5729,80.7051" stroke="#e4ff12" stroke-width="2" /><polyline fill="none" points="41.2203,44.6915 40.3525,27.3356 38.1831,19.5254 34.278,15.6203 28.6373,14.3186 23.4305,14.7525 16.922,18.2237 10.4136,26.0339 9.5458,30.8068 9.9797,37.7492 13.8847,44.6915 19.9593,49.0305 30.3729,51.2 39.0508,49.4644 40.7864,46.861 40.7864,43.8237" stroke="#ff9400" stroke-width="2" /><polyline fill="none" points="32.9763,16.0542 39.9186,8.678 38.1831,20.8271" stroke="#ff1d00" stroke-width="2" /><polyline fill="none" points="9.5458,31.2407 8.678,30.3729" stroke="#7f0000" stroke-width="2" /></svg>