<?xml version="1.0" encoding="utf-8" ?>
<svg baseProfile="tiny" height="128" version="1.2" viewBox="0,0,128,128" width="128" xmlns="http://www.w3.org/2000/svg" xmlns:ev="http://www.w3.org/2001/xml-events" xmlns:xlink="http://www.w3.org/1999/xlink"><defs /><polyline fill="none" points="45.1254,39.0508 39.9186,36.0136 32.5424,36.0136 25.6,37.7492 18.2237,42.9559 13.0169,51.6339 8.678,66.3864 9.9797,85.9119 19.0915,108.0407 26.4678,114.9831 43.8237,119.322 68.122,118.4542 74.6305,114.1153 82.8746,99.7966 85.0441,92.8542 88.0814,82.4407 88.0814,71.1593 85.0441,58.5763 74.1966,46.4271 55.9729,39.0508 42.0881,36.8814 39.0508,37.7492" stroke="#00007f" stroke-width="2" /><polyline fill="none" points="74.6305,45.1254 74.6305,38.6169 93.2881,16.0542 97.1932,22.9966 97.1932,34.7119 96.3254,42.0881 91.1186,56.8407" stroke="#0010ff" stroke-width="2" /><polyline fill="none" points="28.6373,32.5424 14.7525,8.678 14.7525,22.1288 16.922,36.8814 19.9593,42.9559 24.2983,47.2949" stroke="#00a4ff" stroke-width="2" /><polyline fill="none" points="33.8441,72.461 33.8441,72.461" stroke="#3fffb7" stroke-width="2" /><polyline fill="none" points="67.2542,65.0847 67.2542,65.0847" stroke="#b7ff3f" stroke-width="2" /><polyline fill="none" points="69.4237,62.0475 62.0475,62.9153" stroke="#ffb900" stroke-width="2" /><polyline fill="none" points="34.7119,62.9153 36.0136,62.0475" stroke="#ff3000" stroke-width="2" /><polyline fill="none" points="36.8814,93.2881 56.8407,91.9864" stroke="#7f0000" stroke-width="2" /></svg>