<?xml version="1.0" encoding="utf-8" ?>
<svg baseProfile="tiny" height="128" version="1.2" viewBox="0,0,128,128" width="128" xmlns="http://www.w3.org/2000/svg" xmlns:ev="http://www.w3.org/2001/xml-events" xmlns:xlink="http://www.w3.org/1999/xlink"><defs /><polyline fill="none" points="24.7322,57.2746 22.1288,56.4068 21.261,54.2373 8.678,20.8271 11.2814,19.9593 14.3186,21.261 33.4102,31.6746 37.7492,31.6746 60.3119,25.6 77.6678,27.3356 87.6475,15.6203 97.1932,8.678 99.3627,10.4136 99.7966,13.4508 98.061,50.3322" stroke="#00007f" stroke-width="2" /><polyline fill="none" points="25.1661,60.7458 23.4305,77.6678 23.4305,84.1763 24.7322,87.2136 36.8814,93.2881 52.9356,95.4576 70.7254,95.4576 79.4034,94.1559 93.722,87.2136 110.2102,70.7254 111.078,68.122 110.6441,63.7831 104.1356,54.6712" stroke="#0000e8" stroke-width="2" /><polyline fill="none" points="61.6136,69.8576 66.3864,68.122" stroke="#0038ff" stroke-width="2" /><polyline fill="none" points="42.9559,73.3288 22.5627,73.3288" stroke="#0094ff" stroke-width="2" /><polyline fill="none" points="43.3898,78.9695 29.0712,85.478 20.8271,91.1186" stroke="#0cf4ea" stroke-width="2" /><polyline fill="none" points="44.2576,89.8169 40.3525,89.3831 36.0136,93.2881 31.6746,102.4" stroke="#56ffa0" stroke-width="2" /><polyline fill="none" points="89.3831,63.3492 102.8339,50.7661 107.1729,48.1627" stroke="#a0ff56" stroke-width="2" /><polyline fill="none" points="89.8169,69.4237 119.322,70.7254" stroke="#eaff0c" stroke-width="2" /><polyline fill="none" points="97.1932,81.139 114.9831,87.6475" stroke="#ffaa00" stroke-width="2" /><polyline fill="none" points="67.2542,78.9695 58.1424,85.478" stroke="#ff5500" stroke-width="2" /><polyline fill="none" points="65.5186,81.139 68.5559,82.8746 74.6305,84.6102 84.1763,80.2712" stroke="#e80000" stroke-width="2" /><polyline fill="none" points="73.3288,36.8814 73.3288,36.8814" stroke="#7f0000" stroke-width="2" /></svg>