<?xml version="1.0" encoding="utf-8" ?>
<svg baseProfile="tiny" height="128" version="1.2" viewBox="0,0,128,128" width="128" xmlns="http://www.w3.org/2000/svg" xmlns:ev="http://www.w3.org/2001/xml-events" xmlns:xlink="http://www.w3.org/1999/xlink"><defs /><polyline fill="none" points="15.2381,62.6939 18.2857,79.6735 29.1701,95.3469 33.9592,98.8299 40.0544,101.8776 46.1497,102.7483 59.2109,102.7483 75.3197,100.5714 87.0748,96.2177 104.0544,84.898 111.4558,76.6259 118.4218,65.7415 118.8571,50.9388 116.6803,45.7143 112.7619,40.0544 106.6667,39.1837" stroke="#00007f" stroke-width="2" /><polyline fill="none" points="57.034,82.7211 56.1633,86.2041 60.0816,85.3333 61.3878,80.5442 57.4694,82.2857 60.517,80.5442" stroke="#0000c3" stroke-width="2" /><polyline fill="none" points="60.517,85.7687 59.6463,91.8639 55.7279,96.2177 49.6327,97.0884 45.7143,96.2177 46.1497,94.4762" stroke="#0000ff" stroke-width="2" /><polyline fill="none" points="61.8231,84.898 64.0,91.4286 67.0476,94.0408 78.3673,90.1224" stroke="#0034ff" stroke-width="2" /><polyline fill="none" points="23.5102,74.0136 39.619,70.5306 50.9388,70.5306 52.2449,72.2721" stroke="#0070ff" stroke-width="2" /><polyline fill="none" points="17.415,85.7687 22.6395,81.8503 28.2993,79.6735 44.8435,77.4966" stroke="#00acff" stroke-width="2" /><polyline fill="none" points="25.2517,89.6871 35.2653,85.3333 43.9728,83.5918" stroke="#02e8f4" stroke-width="2" /><polyline fill="none" points="89.2517,71.8367 94.4762,69.6599 108.8435,69.2245" stroke="#32ffc3" stroke-width="2" /><polyline fill="none" points="84.4626,76.6259 92.7347,76.1905 101.4422,77.932 97.0884,81.8503 92.7347,83.1565 99.2653,80.5442" stroke="#63ff93" stroke-width="2" /><polyline fill="none" points="40.0544,57.9048 40.0544,57.9048" stroke="#93ff63" stroke-width="2" /><polyline fill="none" points="78.8027,57.034 77.0612,57.034" stroke="#c3ff32" stroke-width="2" /><polyline fill="none" points="40.0544,53.1156 40.4898,58.3401 43.9728,53.9864 42.6667,51.3741 37.8776,57.034 41.7959,59.6463 47.8912,55.7279 49.6327,52.6803" stroke="#f4f802" stroke-width="2" /><polyline fill="none" points="80.1088,53.1156 80.1088,56.5986 84.898,57.4694 84.4626,52.6803 82.7211,52.6803" stroke="#ffc000" stroke-width="2" /><polyline fill="none" points="14.8027,67.9184 16.1088,45.7143 20.4626,38.3129 25.2517,37.0068" stroke="#ff8900" stroke-width="2" /><polyline fill="none" points="23.9456,39.619 20.898,38.3129 14.8027,33.0884 9.5782,20.0272 8.7075,12.1905 15.2381,10.0136 24.381,15.2381 43.9728,30.9116" stroke="#ff5100" stroke-width="2" /><polyline fill="none" points="42.6667,31.3469 48.3265,26.1224 63.5646,22.6395 94.0408,26.1224" stroke="#ff1a00" stroke-width="2" /><polyline fill="none" points="88.381,28.7347 94.9116,19.1565 101.4422,13.0612 108.4082,8.7075 111.8912,10.0136 110.585,23.5102 102.3129,40.0544" stroke="#c30000" stroke-width="2" /><polyline fill="none" points="104.0544,31.7823 111.4558,34.3946 118.4218,41.7959 119.2925,44.8435" stroke="#7f0000" stroke-width="2" /></svg>