<?xml version="1.0" encoding="utf-8" ?>
<svg baseProfile="tiny" height="128" version="1.2" viewBox="0,0,128,128" width="128" xmlns="http://www.w3.org/2000/svg" xmlns:ev="http://www.w3.org/2001/xml-events" xmlns:xlink="http://www.w3.org/1999/xlink"><defs /><polyline fill="none" points="76.8874,34.9488 63.3447,31.4539 48.4915,31.8908 35.8225,38.4437 22.2799,51.9863 12.2321,68.1502 8.7372,83.8771 10.4846,99.1672 17.9113,108.7782 22.7167,113.1468 37.1331,118.8259 56.7918,119.2628 78.198,115.7679 85.1877,112.7099 96.1092,103.5358 100.4778,95.6724 104.8464,82.5666 104.4096,69.0239 102.6621,60.7235 98.2935,52.4232 70.7713,28.3959" stroke="#00007f" stroke-width="2" /><polyline fill="none" points="23.1536,51.9863 22.2799,35.3857 28.8328,13.5427 35.3857,19.6587 46.744,46.3072" stroke="#0010ff" stroke-width="2" /><polyline fill="none" points="86.4983,37.57 100.041,8.7372 101.7884,11.3584 101.7884,45.4334 100.4778,47.1809" stroke="#00a4ff" stroke-width="2" /><polyline fill="none" points="57.6655,70.3345 58.1024,65.0922" stroke="#3fffb7" stroke-width="2" /><polyline fill="none" points="32.3276,54.6075 39.3174,61.1604 38.0068,52.4232" stroke="#b7ff3f" stroke-width="2" /><polyline fill="none" points="85.1877,53.2969 86.9352,59.413 83.0034,54.6075 80.8191,49.802" stroke="#ffb900" stroke-width="2" /><polyline fill="none" points="58.9761,68.587 54.6075,80.8191 41.5017,99.1672 30.1433,93.9249 24.901,89.1195" stroke="#ff3000" stroke-width="2" /><polyline fill="none" points="63.3447,68.1502 61.5973,80.8191 64.2184,95.6724 72.9556,109.215 81.256,115.3311" stroke="#7f0000" stroke-width="2" /></svg>