<?xml version="1.0" encoding="utf-8" ?>
<svg baseProfile="tiny" height="128" version="1.2" viewBox="0,0,128,128" width="128" xmlns="http://www.w3.org/2000/svg" xmlns:ev="http://www.w3.org/2001/xml-events" xmlns:xlink="http://www.w3.org/1999/xlink"><defs /><polyline fill="none" points="38.6169,13.4508 29.5051,29.939" stroke="#00007f" stroke-width="2" /><polyline fill="none" points="38.6169,14.7525 49.0305,32.9763 62.9153,29.0712 71.1593,29.0712 79.4034,31.2407 80.7051,19.9593 85.9119,8.678 101.5322,28.6373 104.1356,36.8814 104.5695,46.861 94.5898,64.6508 85.478,72.461 70.7254,76.3661 60.3119,76.3661 39.4847,72.461 32.1085,66.8203 26.9017,57.7085 23.4305,46.861 22.9966,36.0136" stroke="#0000ff" stroke-width="2" /><polyline fill="none" points="31.6746,39.4847 8.678,45.1254 11.2814,45.5593" stroke="#0080ff" stroke-width="2" /><polyline fill="none" points="37.3153,49.8983 15.6203,55.9729" stroke="#15ffe1" stroke-width="2" /><polyline fill="none" points="45.5593,59.4441 26.4678,69.4237 29.0712,69.4237" stroke="#7cff79" stroke-width="2" /><polyline fill="none" points="90.2508,45.9932 119.322,53.3695" stroke="#e4ff12" stroke-width="2" /><polyline fill="none" points="93.2881,55.9729 110.6441,64.2169" stroke="#ff9400" stroke-width="2" /><polyline fill="none" points="86.7797,65.5186 99.3627,75.0644 94.1559,74.1966" stroke="#ff1d00" stroke-width="2" /><polyline fill="none" points="55.539,43.3898 53.3695,47.2949 57.7085,47.7288 57.7085,45.5593 55.539,42.9559 56.4068,46.861 54.2373,47.7288 59.878,47.2949" stroke="#7f0000" stroke-width="2" /></svg>