<?xml version="1.0" encoding="utf-8" ?>
<svg baseProfile="tiny" height="128" version="1.2" viewBox="0,0,128,128" width="128" xmlns="http://www.w3.org/2000/svg" xmlns:ev="http://www.w3.org/2001/xml-events" xmlns:xlink="http://www.w3.org/1999/xlink"><defs /><polyline fill="none" points="36.4475,39.9186 39.4847,17.7898 42.522,9.1119 55.539,43.3898" stroke="#00007f" stroke-width="2" /><polyline fill="none" points="57.7085,40.7864 69.4237,40.3525" stroke="#0000f1" stroke-width="2" /><polyline fill="none" points="71.1593,39.9186 87.2136,12.5831 91.1186,8.678 91.1186,40.3525" stroke="#004cff" stroke-width="2" /><polyline fill="none" points="36.0136,38.6169 32.9763,39.9186 29.0712,46.861 27.7695,59.4441 29.0712,64.6508 33.4102,70.2915 39.9186,75.0644 51.2,79.4034 59.878,80.7051 71.5932,80.7051 79.4034,78.5356 86.3458,75.0644 92.8542,67.6881 96.7593,58.5763 96.7593,49.0305 92.4203,42.0881 85.9119,40.3525" stroke="#00b0ff" stroke-width="2" /><polyline fill="none" points="73.7627,62.9153 98.4949,61.6136 115.4169,57.2746" stroke="#29ffcd" stroke-width="2" /><polyline fill="none" points="76.8,53.8034 119.322,37.7492" stroke="#7cff79" stroke-width="2" /><polyline fill="none" points="79.8373,67.2542 101.0983,73.3288 118.8881,81.5729" stroke="#cdff29" stroke-width="2" /><polyline fill="none" points="46.861,56.8407 24.2983,52.0678 13.4508,47.2949 8.678,42.522" stroke="#ffc400" stroke-width="2" /><polyline fill="none" points="44.6915,64.6508 41.2203,64.2169 20.3932,68.9898 8.678,73.3288" stroke="#ff6700" stroke-width="2" /><polyline fill="none" points="51.6339,77.6678 23.8644,90.2508 10.8475,100.6644" stroke="#f10700" stroke-width="2" /><polyline fill="none" points="50.3322,48.1627 49.4644,52.0678 52.9356,53.3695 53.8034,49.0305 50.3322,47.7288 48.5966,48.5966" stroke="#7f0000" stroke-width="2" /></svg>