<?xml version="1.0" encoding="utf-8" ?>
<svg baseProfile="tiny" height="128" version="1.2" viewBox="0,0,128,128" width="128" xmlns="http://www.w3.org/2000/svg" xmlns:ev="http://www.w3.org/2001/xml-events" xmlns:xlink="http://www.w3.org/1999/xlink"><defs /><polyline fill="none" points="23.8644,48.5966 19.0915,56.4068 14.3186,68.122 10.8475,90.6847 12.5831,104.1356 23.8644,115.4169 29.5051,118.0203 36.8814,119.322 46.4271,119.322 54.2373,115.8508 62.9153,110.6441 75.0644,99.3627 82.4407,86.7797 83.7424,79.4034 83.3085,65.5186 72.8949,55.1051 67.2542,51.2 53.8034,47.7288 41.6542,47.7288 31.2407,52.0678" stroke="#00007f" stroke-width="2" /><polyline fill="none" points="16.4881,61.6136 15.6203,59.0102 14.7525,38.1831 8.678,18.6576 8.678,12.5831 13.4508,13.8847 31.2407,39.0508 32.9763,43.8237 38.1831,49.4644" stroke="#0000f1" stroke-width="2" /><polyline fill="none" points="69.8576,55.9729 78.9695,41.6542 107.1729,8.678 107.6068,15.6203 105.4373,26.4678 100.6644,38.1831 90.2508,55.9729 78.5356,72.0271" stroke="#004cff" stroke-width="2" /><polyline fill="none" points="29.939,85.478 29.939,85.478" stroke="#00b0ff" stroke-width="2" /><polyline fill="none" points="55.1051,74.6305 55.1051,74.6305" stroke="#29ffcd" stroke-width="2" /><polyline fill="none" points="32.5424,72.461 32.1085,75.4983 34.7119,75.4983 35.1458,73.7627" stroke="#7cff79" stroke-width="2" /><polyline fill="none" points="55.539,68.5559 54.2373,71.5932 55.539,74.6305 58.5763,74.6305 59.4441,72.0271 57.7085,70.2915" stroke="#cdff29" stroke-width="2" /><polyline fill="none" points="35.5797,88.0814 51.6339,88.0814 52.5017,91.9864 49.0305,99.3627 46.4271,101.0983 42.522,101.9661 37.3153,96.7593 36.4475,86.7797" stroke="#ffc400" stroke-width="2" /><polyline fill="none" points="42.9559,101.9661 39.9186,105.8712 35.5797,108.0407 26.4678,108.4746 25.6,105.8712" stroke="#ff6700" stroke-width="2" /><polyline fill="none" points="45.5593,101.0983 46.861,108.9085 50.3322,109.7763 54.6712,107.6068 59.0102,101.9661" stroke="#f10700" stroke-width="2" /><polyline fill="none" points="75.9322,55.9729 77.2339,51.6339 83.7424,43.8237" stroke="#7f0000" stroke-width="2" /></svg>