<?xml version="1.0" encoding="utf-8" ?>
<svg baseProfile="tiny" height="128" version="1.2" viewBox="0,0,128,128" width="128" xmlns="http://www.w3.org/2000/svg" xmlns:ev="http://www.w3.org/2001/xml-events" xmlns:xlink="http://www.w3.org/1999/xlink"><defs /><polyline fill="none" points="40.3525,88.5153 34.278,85.9119 26.9017,74.1966 25.6,65.0847 26.0339,55.539 28.6373,51.2 34.7119,45.1254 35.1458,36.0136 42.0881,13.8847 44.6915,15.6203 54.6712,41.2203" stroke="#00007f" stroke-width="2" /><polyline fill="none" points="41.2203,18.2237 41.6542,42.522 36.0136,45.5593" stroke="#0000fe" stroke-width="2" /><polyline fill="none" points="55.1051,40.7864 64.6508,40.7864 67.6881,27.7695 72.8949,19.9593 80.7051,12.1492 86.7797,8.678 88.0814,10.4136 87.2136,45.5593" stroke="#0060ff" stroke-width="2" /><polyline fill="none" points="85.0441,13.8847 81.139,27.7695 80.7051,39.0508 82.8746,41.6542 93.2881,41.6542" stroke="#00d4ff" stroke-width="2" /><polyline fill="none" points="89.8169,45.5593 92.8542,50.3322 93.2881,62.4814 88.9492,76.3661 83.7424,82.8746 75.9322,88.0814 67.6881,89.8169 47.2949,90.6847 39.9186,89.3831" stroke="#4cffaa" stroke-width="2" /><polyline fill="none" points="8.678,59.878 19.9593,64.2169 30.3729,71.5932" stroke="#aaff4c" stroke-width="2" /><polyline fill="none" points="11.2814,87.2136 19.9593,81.5729 31.2407,76.3661" stroke="#ffe500" stroke-width="2" /><polyline fill="none" points="89.8169,65.9525 95.0237,62.4814 102.8339,59.4441 119.322,56.8407" stroke="#ff7a00" stroke-width="2" /><polyline fill="none" points="86.7797,74.6305 93.2881,75.9322 114.5492,83.7424" stroke="#fe1200" stroke-width="2" /><polyline fill="none" points="44.2576,60.3119 44.2576,66.3864 43.3898,63.3492" stroke="#7f0000" stroke-width="2" /></svg>