<?xml version="1.0" encoding="utf-8" ?>
<svg baseProfile="tiny" height="128" version="1.2" viewBox="0,0,128,128" width="128" xmlns="http://www.w3.org/2000/svg" xmlns:ev="http://www.w3.org/2001/xml-events" xmlns:xlink="http://www.w3.org/1999/xlink"><defs /><polyline fill="none" points="10.8844,103.1837 8.7075,96.2177 10.449,84.0272 36.1361,60.9524 45.2789,57.034 64.0,51.3741 83.1565,51.3741 90.9932,52.6803 97.0884,56.1633 116.2449,73.5782 117.9864,77.0612 119.2925,85.3333 118.8571,106.2313 113.1973,110.1497 103.1837,112.3265 64.8707,114.068 35.7007,113.1973 28.7347,110.585 20.0272,91.8639" stroke="#00007f" stroke-width="2" /><polyline fill="none" points="25.2517,52.2449 26.1224,53.551 32.6531,26.9932 38.7483,9.5782 40.0544,8.7075 50.9388,20.0272 56.5986,31.7823" stroke="#0000f1" stroke-width="2" /><polyline fill="none" points="82.7211,31.7823 81.415,31.7823 90.9932,13.932 93.6054,10.0136 95.7823,10.8844 99.7007,18.7211 107.102,56.1633" stroke="#004cff" stroke-width="2" /><polyline fill="none" points="47.0204,71.8367 53.551,71.4014 48.7619,72.7075 47.8912,70.966 49.1973,69.6599 52.2449,70.5306" stroke="#00b0ff" stroke-width="2" /><polyline fill="none" points="74.8844,71.4014 71.8367,71.8367 74.8844,71.4014" stroke="#29ffcd" stroke-width="2" /><polyline fill="none" points="64.4354,76.6259 66.1769,76.1905 66.1769,74.8844 64.4354,74.8844" stroke="#7cff79" stroke-width="2" /><polyline fill="none" points="65.3061,76.6259 60.517,80.5442 53.551,80.5442" stroke="#cdff29" stroke-width="2" /><polyline fill="none" points="70.0952,80.1088 73.1429,80.1088 69.2245,78.3673 66.6122,75.3197" stroke="#ffc400" stroke-width="2" /><polyline fill="none" points="76.1905,76.1905 82.7211,75.3197 85.3333,73.1429 75.3197,77.4966" stroke="#ff6700" stroke-width="2" /><polyline fill="none" points="71.4014,79.6735 77.4966,83.1565 88.381,86.2041 77.932,79.6735" stroke="#f10700" stroke-width="2" /><polyline fill="none" points="75.3197,76.6259 82.2857,74.8844" stroke="#7f0000" stroke-width="2" /></svg>