<?xml version="1.0" encoding="utf-8" ?>
<svg baseProfile="tiny" height="128" version="1.2" viewBox="0,0,128,128" width="128" xmlns="http://www.w3.org/2000/svg" xmlns:ev="http://www.w3.org/2001/xml-events" xmlns:xlink="http://www.w3.org/1999/xlink"><defs /><polyline fill="none" points="71.1593,98.9288 65.0847,102.4 50.3322,102.8339 30.3729,97.6271 15.1864,91.5525 9.5458,83.3085 8.678,62.9153 9.5458,56.4068 19.0915,38.6169 26.0339,31.2407 33.4102,26.0339 42.9559,21.261 54.6712,19.0915 72.0271,19.0915 82.8746,20.8271 92.4203,26.0339 98.4949,35.1458 101.0983,44.2576 101.5322,59.4441 94.1559,73.3288 87.2136,80.7051 76.3661,87.6475 71.5932,85.9119" stroke="#00007f" stroke-width="2" /><polyline fill="none" points="16.4881,36.0136 16.4881,19.5254 19.0915,10.8475 21.261,12.1492 28.6373,26.0339 31.2407,27.3356" stroke="#0080ff" stroke-width="2" /><polyline fill="none" points="86.7797,21.261 88.9492,17.7898 101.5322,10.8475 118.4542,8.678 119.322,19.5254 114.9831,29.939 110.6441,34.278 101.5322,36.0136" stroke="#7cff79" stroke-width="2" /><polyline fill="none" points="49.4644,42.0881 49.4644,45.1254 43.3898,46.4271 39.9186,39.9186 41.6542,38.1831 51.6339,38.1831 52.9356,39.9186 53.8034,44.6915" stroke="#ff9400" stroke-width="2" /><polyline fill="none" points="82.4407,43.8237 82.4407,45.5593 79.8373,46.4271 73.7627,44.6915 72.461,42.0881 74.6305,38.6169" stroke="#7f0000" stroke-width="2" /></svg>