<?xml version="1.0" encoding="utf-8" ?>
<svg baseProfile="tiny" height="128" version="1.2" viewBox="0,0,128,128" width="128" xmlns="http://www.w3.org/2000/svg" xmlns:ev="http://www.w3.org/2001/xml-events" xmlns:xlink="http://www.w3.org/1999/xlink"><defs /><polyline fill="none" points="57.034,39.619 56.1633,36.1361 61.3878,33.0884 67.483,31.3469 72.2721,32.2177 81.8503,36.1361 93.6054,47.4558 101.0068,59.6463 103.619,68.3537 101.8776,77.932 98.3946,86.6395 91.8639,98.3946 80.1088,109.2789 67.0476,116.6803 57.034,119.2925 42.2313,118.4218 28.7347,113.1973 15.2381,102.3129 8.7075,88.8163 8.7075,78.8027 10.449,74.0136 33.9592,49.1973 45.7143,42.2313 58.3401,37.0068" stroke="#00007f" stroke-width="2" /><polyline fill="none" points="71.4014,32.6531 78.3673,16.9796 82.2857,10.449 85.3333,8.7075 85.7687,34.3946" stroke="#0000ff" stroke-width="2" /><polyline fill="none" points="39.619,40.4898 26.1224,25.6871 23.0748,22.6395 19.5918,22.2041 31.3469,54.8571" stroke="#0080ff" stroke-width="2" /><polyline fill="none" points="70.966,60.9524 70.0952,60.9524" stroke="#15ffe1" stroke-width="2" /><polyline fill="none" points="43.9728,68.3537 43.5374,67.9184" stroke="#7cff79" stroke-width="2" /><polyline fill="none" points="57.4694,75.7551 56.1633,75.7551" stroke="#e4ff12" stroke-width="2" /><polyline fill="none" points="67.9184,93.6054 58.3401,90.9932 42.6667,91.4286" stroke="#ff9400" stroke-width="2" /><polyline fill="none" points="48.3265,92.7347 49.1973,81.415" stroke="#ff1d00" stroke-width="2" /><polyline fill="none" points="59.2109,92.2993 59.2109,86.2041" stroke="#7f0000" stroke-width="2" /></svg>