<?xml version="1.0" encoding="utf-8" ?>
<svg baseProfile="tiny" height="128" version="1.2" viewBox="0,0,128,128" width="128" xmlns="http://www.w3.org/2000/svg" xmlns:ev="http://www.w3.org/2001/xml-events" xmlns:xlink="http://www.w3.org/1999/xlink"><defs /><polyline fill="none" points="11.2814,61.1797 13.4508,60.7458 10.4136,34.278 10.4136,27.3356 11.7153,26.4678 17.3559,26.9017 22.5627,38.1831 24.2983,38.6169 28.6373,32.5424 32.9763,22.9966 37.7492,22.1288 42.9559,30.3729 45.5593,46.861 44.6915,62.9153 42.9559,66.3864 37.3153,68.5559 16.922,71.1593 12.5831,67.6881 11.7153,61.1797" stroke="#00007f" stroke-width="2" /><polyline fill="none" points="44.6915,43.3898 56.8407,41.2203 79.8373,41.2203 90.2508,39.9186 98.061,36.8814 105.8712,32.1085 110.2102,26.9017 113.6814,19.0915 114.9831,10.4136 116.7186,8.678 119.322,22.5627 119.322,63.3492 118.4542,90.2508 116.7186,97.1932 112.3797,97.1932 109.7763,95.0237 106.3051,86.3458 101.5322,68.9898 99.3627,88.9492 96.3254,91.5525 92.4203,85.9119 88.0814,68.5559 83.3085,67.2542 60.7458,72.8949 34.278,73.7627 33.8441,95.8915 28.6373,108.4746 26.9017,105.4373 26.9017,97.1932 29.0712,84.1763 26.0339,78.5356 24.2983,87.2136 19.0915,99.3627 13.4508,104.1356 11.2814,103.2678 9.5458,99.7966 8.678,91.5525 18.2237,72.8949" stroke="#0080ff" stroke-width="2" /><polyline fill="none" points="23.8644,52.9356 30.8068,53.8034 31.2407,56.4068 27.7695,57.7085 24.7322,52.0678" stroke="#7cff79" stroke-width="2" /><polyline fill="none" points="28.6373,57.7085 19.9593,61.1797 13.4508,60.7458 15.6203,58.5763" stroke="#ff9400" stroke-width="2" /><polyline fill="none" points="30.8068,57.7085 40.7864,58.1424" stroke="#7f0000" stroke-width="2" /></svg>