<?xml version="1.0" encoding="utf-8" ?>
<svg baseProfile="tiny" height="128" version="1.2" viewBox="0,0,128,128" width="128" xmlns="http://www.w3.org/2000/svg" xmlns:ev="http://www.w3.org/2001/xml-events" xmlns:xlink="http://www.w3.org/1999/xlink"><defs /><polyline fill="none" points="28.6373,28.6373 22.1288,36.0136 21.6949,42.522 23.8644,48.1627 34.278,51.6339 50.7661,50.7661 53.8034,49.0305 55.1051,45.1254 54.6712,29.0712 49.4644,26.4678 52.9356,19.5254 49.0305,18.6576 38.6169,26.4678 33.8441,26.4678 26.0339,19.5254 19.0915,18.6576 27.7695,27.7695" stroke="#00007f" stroke-width="2" /><polyline fill="none" points="36.4475,38.6169 38.1831,42.522 39.4847,39.4847 35.1458,38.1831 37.7492,39.0508 36.8814,37.7492 37.7492,41.6542 35.1458,38.1831 38.1831,42.522 36.8814,40.3525 37.7492,37.3153 38.6169,42.9559 39.0508,39.4847 37.7492,40.7864" stroke="#0000d1" stroke-width="2" /><polyline fill="none" points="37.7492,41.2203 36.0136,43.3898 31.2407,42.9559 26.0339,37.3153 26.4678,36.0136" stroke="#0010ff" stroke-width="2" /><polyline fill="none" points="39.4847,41.2203 39.0508,41.2203" stroke="#0058ff" stroke-width="2" /><polyline fill="none" points="38.1831,41.2203 40.7864,45.1254 42.522,45.5593 47.7288,40.3525" stroke="#00a4ff" stroke-width="2" /><polyline fill="none" points="33.4102,29.939 34.278,34.7119 34.7119,31.6746" stroke="#05ecf1" stroke-width="2" /><polyline fill="none" points="39.0508,32.1085 40.3525,32.5424 40.7864,29.939 39.4847,32.1085 40.3525,30.3729 40.7864,31.2407" stroke="#3fffb7" stroke-width="2" /><polyline fill="none" points="42.522,34.7119 55.539,33.4102" stroke="#7cff79" stroke-width="2" /><polyline fill="none" points="45.5593,37.7492 55.1051,39.0508 46.4271,38.6169" stroke="#b7ff3f" stroke-width="2" /><polyline fill="none" points="42.522,39.4847 47.7288,42.9559 55.1051,43.8237" stroke="#f1fc05" stroke-width="2" /><polyline fill="none" points="31.2407,38.6169 11.7153,35.1458" stroke="#ffb900" stroke-width="2" /><polyline fill="none" points="28.2034,39.9186 16.922,39.4847" stroke="#ff7300" stroke-width="2" /><polyline fill="none" points="31.6746,40.7864 20.8271,40.3525 8.678,43.8237" stroke="#ff3000" stroke-width="2" /><polyline fill="none" points="55.539,46.4271 61.1797,42.0881 89.3831,29.5051 98.9288,26.9017 107.1729,26.9017 114.5492,31.2407 118.8881,36.8814 119.322,40.3525 114.9831,49.0305 105.8712,54.2373 93.2881,56.8407 57.7085,56.8407 36.4475,53.8034 38.6169,53.3695" stroke="#d10000" stroke-width="2" /><polyline fill="none" points="106.739,26.9017 113.2475,8.678 116.7186,30.3729" stroke="#7f0000" stroke-width="2" /></svg>