<?xml version="1.0" encoding="utf-8" ?>
<svg baseProfile="tiny" height="128" version="1.2" viewBox="0,0,128,128" width="128" xmlns="http://www.w3.org/2000/svg" xmlns:ev="http://www.w3.org/2001/xml-events" xmlns:xlink="http://www.w3.org/1999/xlink"><defs /><polyline fill="none" points="64.2169,46.4271 47.2949,45.1254 35.5797,47.2949 26.9017,52.0678 15.1864,65.5186 9.1119,78.5356 8.678,91.1186 11.2814,96.7593 25.1661,108.9085 44.6915,118.8881 52.0678,119.322 76.3661,111.9458 83.3085,106.739 89.3831,95.8915 90.6847,90.2508 90.6847,75.0644 89.8169,71.5932 78.9695,54.2373 70.2915,46.861" stroke="#00007f" stroke-width="2" /><polyline fill="none" points="17.7898,43.8237 22.5627,8.678 25.1661,9.5458 49.0305,40.7864" stroke="#0080ff" stroke-width="2" /><polyline fill="none" points="19.9593,43.8237 19.9593,52.0678" stroke="#7cff79" stroke-width="2" /><polyline fill="none" points="71.1593,43.8237 82.8746,16.4881 84.6102,13.8847 86.7797,13.4508 92.4203,35.5797 93.722,56.8407" stroke="#ff9400" stroke-width="2" /><polyline fill="none" points="98.061,49.8983 95.8915,53.3695 92.4203,75.0644" stroke="#7f0000" stroke-width="2" /></svg>