<?xml version="1.0" encoding="utf-8" ?>
<svg baseProfile="tiny" height="128" version="1.2" viewBox="0,0,128,128" width="128" xmlns="http://www.w3.org/2000/svg" xmlns:ev="http://www.w3.org/2001/xml-events" xmlns:xlink="http://www.w3.org/1999/xlink"><defs /><polyline fill="none" points="80.2712,38.6169 69.8576,34.278 63.3492,34.278 51.2,41.6542 42.0881,49.0305 34.7119,59.4441 30.3729,68.9898 28.2034,78.5356 29.0712,85.9119 41.2203,99.7966 50.3322,105.8712 55.539,107.6068 66.3864,108.0407 75.0644,107.6068 82.4407,105.4373 96.7593,93.2881 102.4,85.478 105.4373,73.7627 104.5695,64.6508 91.1186,43.3898 88.0814,40.3525 80.7051,37.7492" stroke="#00007f" stroke-width="2" /><polyline fill="none" points="84.6102,35.1458 84.6102,31.2407 98.9288,11.2814 100.6644,13.8847 101.5322,22.5627 109.3424,48.5966 111.9458,64.2169" stroke="#0000ff" stroke-width="2" /><polyline fill="none" points="65.0847,41.2203 59.878,26.9017 52.5017,13.0169 48.1627,8.678 30.3729,49.4644 26.4678,61.1797 26.9017,65.0847" stroke="#0080ff" stroke-width="2" /><polyline fill="none" points="60.7458,72.8949 68.122,76.3661 64.6508,79.8373 62.0475,79.8373 62.0475,73.7627" stroke="#15ffe1" stroke-width="2" /><polyline fill="none" points="51.6339,94.1559 54.6712,95.4576 68.122,91.1186" stroke="#7cff79" stroke-width="2" /><polyline fill="none" points="82.8746,55.539 81.5729,58.5763 82.0068,63.3492 84.6102,68.122 86.7797,68.122 88.5153,65.5186 89.3831,54.2373 88.5153,52.0678 82.4407,51.2" stroke="#e4ff12" stroke-width="2" /><polyline fill="none" points="56.8407,47.7288 54.2373,49.8983 54.2373,52.0678 58.1424,53.3695 61.6136,46.861 58.5763,46.4271 56.4068,47.7288 56.4068,49.4644" stroke="#ff9400" stroke-width="2" /><polyline fill="none" points="28.2034,59.4441 26.0339,68.5559 20.3932,79.4034 13.0169,91.5525 8.678,95.8915 28.2034,88.9492 28.6373,91.1186 16.0542,113.2475 19.9593,113.2475 36.8814,104.1356 51.2,100.6644" stroke="#ff1d00" stroke-width="2" /><polyline fill="none" points="107.6068,66.8203 112.3797,81.5729 117.1525,115.8508 102.4,104.5695 97.1932,102.8339 99.7966,117.5864 96.3254,119.322 85.0441,111.5119" stroke="#7f0000" stroke-width="2" /></svg>