<?xml version="1.0" encoding="utf-8" ?>
<svg baseProfile="tiny" height="128" version="1.2" viewBox="0,0,128,128" width="128" xmlns="http://www.w3.org/2000/svg" xmlns:ev="http://www.w3.org/2001/xml-events" xmlns:xlink="http://www.w3.org/1999/xlink"><defs /><polyline fill="none" points="45.5593,31.6746 32.9763,35.5797 21.261,44.6915 13.4508,55.9729 9.5458,65.0847 8.678,76.8 10.8475,91.9864 15.6203,101.0983 21.6949,108.4746 33.8441,115.8508 47.7288,119.322 52.9356,119.322 67.6881,115.8508 81.139,107.1729 88.0814,99.7966 92.8542,91.1186 96.7593,78.9695 97.1932,72.461 95.0237,65.9525 85.9119,54.2373 72.0271,46.4271 61.6136,42.9559 52.0678,41.2203 44.2576,42.0881" stroke="#00007f" stroke-width="2" /><polyline fill="none" points="13.0169,51.2 10.8475,44.2576 10.8475,8.678 29.5051,30.8068 36.8814,36.8814" stroke="#0080ff" stroke-width="2" /><polyline fill="none" points="69.8576,53.8034 80.2712,41.6542 95.8915,18.6576 99.3627,15.6203 98.4949,24.2983 90.6847,46.4271 91.1186,55.539" stroke="#7cff79" stroke-width="2" /><polyline fill="none" points="79.8373,48.5966 88.0814,30.8068 89.3831,32.9763 87.2136,47.2949 87.6475,55.9729" stroke="#ff9400" stroke-width="2" /><polyline fill="none" points="19.5254,49.0305 18.2237,47.2949 18.2237,43.3898 20.8271,29.5051 22.9966,29.0712 33.4102,39.9186" stroke="#7f0000" stroke-width="2" /></svg>