<?xml version="1.0" encoding="utf-8" ?>
<svg baseProfile="tiny" height="128" version="1.2" viewBox="0,0,128,128" width="128" xmlns="http://www.w3.org/2000/svg" xmlns:ev="http://www.w3.org/2001/xml-events" xmlns:xlink="http://www.w3.org/1999/xlink"><defs /><polyline fill="none" points="33.9592,77.932 30.0408,64.8707 30.0408,56.1633 32.6531,45.7143 36.5714,39.1837 46.585,29.1701 55.2925,23.9456 61.8231,22.2041 76.6259,23.5102 87.9456,28.7347 93.6054,33.9592 98.8299,41.3605 103.1837,52.2449 104.4898,69.6599 99.2653,95.3469 96.2177,102.7483 92.7347,107.9728 87.0748,110.585 79.2381,111.8912 69.2245,111.4558 55.7279,108.4082 43.102,100.1361 37.8776,91.4286 36.5714,75.3197 40.4898,53.1156 40.4898,49.6327 38.7483,48.3265" stroke="#00007f" stroke-width="2" /><polyline fill="none" points="8.7075,70.966 20.0272,75.3197 41.3605,77.932" stroke="#0000de" stroke-width="2" /><polyline fill="none" points="12.1905,93.6054 38.7483,88.8163" stroke="#0028ff" stroke-width="2" /><polyline fill="none" points="24.381,107.9728 36.5714,109.7143 57.034,101.8776" stroke="#0080ff" stroke-width="2" /><polyline fill="none" points="88.381,78.3673 91.8639,73.5782 114.5034,77.4966" stroke="#00d4ff" stroke-width="2" /><polyline fill="none" points="80.5442,88.8163 114.068,93.6054" stroke="#36ffc0" stroke-width="2" /><polyline fill="none" points="78.8027,101.8776 96.6531,110.1497 111.8912,113.1973 119.2925,112.3265" stroke="#7cff79" stroke-width="2" /><polyline fill="none" points="52.6803,67.483 49.6327,59.2109 50.5034,54.4218 54.4218,50.068 58.7755,47.8912 60.517,48.7619 61.8231,60.0816 60.0816,65.3061 56.1633,67.483 50.9388,65.3061" stroke="#c0ff36" stroke-width="2" /><polyline fill="none" points="78.3673,70.5306 76.1905,63.5646 77.4966,56.1633 83.5918,51.8095 87.0748,51.8095 88.8163,53.551 88.8163,60.0816 87.0748,67.0476 83.5918,67.9184 76.6259,66.6122" stroke="#ffe500" stroke-width="2" /><polyline fill="none" points="53.9864,86.6395 68.3537,87.9456 77.932,90.1224 78.8027,91.4286 76.1905,95.7823 72.2721,96.2177 56.5986,88.381 53.9864,85.3333" stroke="#ff9400" stroke-width="2" /><polyline fill="none" points="34.8299,46.1497 30.9116,39.1837 30.4762,12.1905 35.7007,9.1429 40.9252,18.7211 47.0204,25.2517" stroke="#ff4600" stroke-width="2" /><polyline fill="none" points="72.7075,37.4422 72.7075,37.4422" stroke="#de0000" stroke-width="2" /><polyline fill="none" points="84.898,25.2517 81.415,25.6871 84.0272,22.2041 91.4286,14.3673 100.5714,8.7075 96.6531,20.0272 94.9116,32.2177" stroke="#7f0000" stroke-width="2" /></svg>