<?xml version="1.0" encoding="utf-8" ?>
<svg baseProfile="tiny" height="128" version="1.2" viewBox="0,0,128,128" width="128" xmlns="http://www.w3.org/2000/svg" xmlns:ev="http://www.w3.org/2001/xml-events" xmlns:xlink="http://www.w3.org/1999/xlink"><defs /><polyline fill="none" points="26.3014,51.2877 16.2192,36.3836 8.7671,14.9041 8.7671,9.2055 12.274,8.7671 17.0959,12.7123 22.7945,28.9315 28.0548,36.8219 36.3836,41.2055 47.7808,45.1507 51.726,45.589 53.0411,44.274 67.0685,47.7808 80.6575,47.3425 84.6027,46.0274 88.9863,41.6438 99.0685,24.5479 99.0685,35.9452 107.8356,29.8082 113.0959,29.8082 113.5342,32.8767 110.4658,41.2055 110.9041,45.1507 118.3562,51.726 119.2329,56.1096 92.4932,57.863 73.6438,62.2466 69.2603,71.0137 65.3151,69.6986 62.6849,62.2466 60.9315,62.6849 59.6164,70.137 58.7397,70.5753 56.9863,69.6986 53.9178,63.1233 48.2192,61.3699 43.8356,61.8082 41.6438,64.0 41.6438,71.4521 40.7671,72.3288 32.8767,71.0137 32.0,64.4384 27.6164,68.8219 25.4247,62.6849 27.6164,50.411 25.4247,49.9726" stroke="#00007f" stroke-width="2" /></svg>