<?xml version="1.0" encoding="utf-8" ?>
<svg baseProfile="tiny" height="128" version="1.2" viewBox="0,0,128,128" width="128" xmlns="http://www.w3.org/2000/svg" xmlns:ev="http://www.w3.org/2001/xml-events" xmlns:xlink="http://www.w3.org/1999/xlink"><defs /><polyline fill="none" points="31.6746,57.7085 34.7119,50.3322 41.2203,42.0881 51.6339,34.7119 60.3119,31.6746 64.2169,32.1085 68.9898,37.7492 71.1593,43.8237 72.461,56.8407" stroke="#00007f" stroke-width="2" /><polyline fill="none" points="72.8949,53.3695 95.8915,8.678 96.3254,26.9017 93.722,52.5017" stroke="#0000e8" stroke-width="2" /><polyline fill="none" points="29.5051,58.5763 31.6746,54.2373 30.8068,45.5593 23.8644,30.8068 17.7898,21.6949 15.1864,22.5627 10.4136,36.4475 8.678,59.4441" stroke="#0038ff" stroke-width="2" /><polyline fill="none" points="11.7153,60.7458 15.1864,88.9492 19.0915,100.2305 26.0339,110.2102 29.939,113.6814 38.6169,118.4542 42.9559,119.322 60.3119,118.8881 65.5186,117.1525 72.8949,111.9458 81.139,101.0983 87.2136,85.9119 93.2881,65.0847 93.722,46.861" stroke="#0094ff" stroke-width="2" /><polyline fill="none" points="46.4271,83.3085 48.5966,79.8373 51.6339,78.9695 59.0102,79.8373" stroke="#0cf4ea" stroke-width="2" /><polyline fill="none" points="62.4814,79.4034 75.9322,68.5559" stroke="#56ffa0" stroke-width="2" /><polyline fill="none" points="65.5186,85.0441 83.3085,77.6678" stroke="#a0ff56" stroke-width="2" /><polyline fill="none" points="67.6881,90.2508 74.6305,91.5525 80.7051,95.0237" stroke="#eaff0c" stroke-width="2" /><polyline fill="none" points="32.9763,82.8746 20.8271,79.8373" stroke="#ffaa00" stroke-width="2" /><polyline fill="none" points="42.9559,90.2508 31.6746,91.5525" stroke="#ff5500" stroke-width="2" /><polyline fill="none" points="43.3898,107.6068 35.5797,109.3424 32.9763,113.6814" stroke="#e80000" stroke-width="2" /><polyline fill="none" points="31.6746,93.2881 19.9593,95.4576 18.6576,98.4949" stroke="#7f0000" stroke-width="2" /></svg>