<?xml version="1.0" encoding="utf-8" ?>
<svg baseProfile="tiny" height="128" version="1.2" viewBox="0,0,128,128" width="128" xmlns="http://www.w3.org/2000/svg" xmlns:ev="http://www.w3.org/2001/xml-events" xmlns:xlink="http://www.w3.org/1999/xlink"><defs /><polyline fill="none" points="61.1797,80.7051 61.1797,75.9322 53.3695,75.9322 51.6339,78.1017 52.0678,83.3085 53.3695,84.6102 59.0102,84.6102 59.878,82.8746 60.7458,78.5356 60.3119,76.8 58.1424,76.8 58.1424,78.5356 62.9153,79.4034" stroke="#00007f" stroke-width="2" /><polyline fill="none" points="65.0847,76.3661 62.9153,75.9322 78.1017,67.6881 91.1186,64.6508" stroke="#0000e8" stroke-width="2" /><polyline fill="none" points="63.3492,77.2339 82.8746,81.5729" stroke="#0038ff" stroke-width="2" /><polyline fill="none" points="66.8203,78.9695 65.0847,79.4034 64.2169,82.8746 68.122,94.1559 70.7254,95.8915" stroke="#0094ff" stroke-width="2" /><polyline fill="none" points="42.9559,78.1017 41.6542,78.5356 28.6373,73.3288 16.4881,73.3288" stroke="#0cf4ea" stroke-width="2" /><polyline fill="none" points="39.0508,77.2339 32.9763,77.2339 19.5254,82.8746" stroke="#56ffa0" stroke-width="2" /><polyline fill="none" points="39.4847,88.5153 27.7695,91.1186 17.3559,101.0983" stroke="#a0ff56" stroke-width="2" /><polyline fill="none" points="41.2203,56.8407 40.3525,58.1424 39.9186,55.539 38.1831,55.1051 37.7492,57.7085 42.9559,59.0102" stroke="#eaff0c" stroke-width="2" /><polyline fill="none" points="61.1797,55.1051 63.7831,55.9729 67.6881,54.2373 66.8203,55.9729" stroke="#ffaa00" stroke-width="2" /><polyline fill="none" points="62.9153,32.5424 54.2373,32.9763 39.9186,36.4475 29.5051,42.522 23.4305,49.0305 15.6203,63.7831 9.5458,81.5729 8.678,93.2881 13.4508,104.1356 19.0915,110.2102 30.3729,116.7186 39.0508,118.8881 63.7831,119.322 78.5356,117.1525 85.478,114.1153 94.5898,105.0034 99.3627,94.5898 104.1356,75.4983 104.1356,64.2169 103.2678,58.1424 98.061,48.5966 91.5525,44.2576 78.1017,39.4847 61.1797,38.1831" stroke="#ff5500" stroke-width="2" /><polyline fill="none" points="84.1763,35.5797 84.1763,32.1085 91.5525,19.0915 97.6271,13.8847 102.8339,12.5831 102.8339,39.9186 101.9661,52.0678 100.6644,54.2373" stroke="#e80000" stroke-width="2" /><polyline fill="none" points="60.3119,29.939 54.2373,19.0915 35.5797,8.678 33.8441,9.9797 31.6746,39.4847" stroke="#7f0000" stroke-width="2" /></svg>