<?xml version="1.0" encoding="utf-8" ?>
<svg baseProfile="tiny" height="128" version="1.2" viewBox="0,0,128,128" width="128" xmlns="http://www.w3.org/2000/svg" xmlns:ev="http://www.w3.org/2001/xml-events" xmlns:xlink="http://www.w3.org/1999/xlink"><defs /><polyline fill="none" points="32.5424,79.4034 25.1661,68.5559 21.6949,59.4441 21.261,44.2576 23.4305,39.9186 30.8068,30.8068 40.3525,25.6 53.3695,21.261 67.2542,20.3932 78.9695,25.6 92.8542,36.4475 97.1932,42.0881 99.3627,49.0305 99.3627,56.8407 95.8915,65.5186 89.3831,74.1966 81.5729,80.2712 76.8,82.0068 39.4847,88.9492 22.9966,88.5153 9.9797,80.7051 8.678,78.1017" stroke="#00007f" stroke-width="2" /><polyline fill="none" points="23.4305,41.2203 13.4508,16.4881 45.5593,31.2407" stroke="#0028ff" stroke-width="2" /><polyline fill="none" points="77.6678,28.2034 82.0068,27.3356 118.8881,8.678 119.322,13.0169 117.1525,19.9593 100.6644,45.1254" stroke="#00d4ff" stroke-width="2" /><polyline fill="none" points="62.9153,62.4814 61.6136,60.3119 63.3492,60.3119 62.4814,62.0475" stroke="#7cff79" stroke-width="2" /><polyline fill="none" points="64.2169,62.0475 76.3661,62.0475 101.9661,59.0102" stroke="#ffe500" stroke-width="2" /><polyline fill="none" points="64.2169,62.4814 94.5898,70.7254 115.8508,72.8949" stroke="#ff4600" stroke-width="2" /><polyline fill="none" points="67.6881,68.5559 80.7051,68.9898 104.5695,75.4983 117.1525,77.2339" stroke="#7f0000" stroke-width="2" /></svg>