<?xml version="1.0" encoding="utf-8" ?>
<svg baseProfile="tiny" height="128" version="1.2" viewBox="0,0,128,128" width="128" xmlns="http://www.w3.org/2000/svg" xmlns:ev="http://www.w3.org/2001/xml-events" xmlns:xlink="http://www.w3.org/1999/xlink"><defs /><polyline fill="none" points="28.6373,31.6746 30.3729,24.7322 32.1085,21.261 35.1458,20.3932 40.7864,32.5424" stroke="#00007f" stroke-width="2" /><polyline fill="none" points="26.9017,27.7695 16.922,29.5051 12.1492,16.922 10.4136,22.5627 10.4136,36.0136" stroke="#0000ff" stroke-width="2" /><polyline fill="none" points="12.1492,39.4847 8.678,40.3525 8.678,42.9559 9.1119,46.861 13.0169,49.4644 30.8068,50.3322" stroke="#0080ff" stroke-width="2" /><polyline fill="none" points="36.8814,32.5424 35.5797,38.6169 36.8814,42.522 45.5593,53.3695 56.8407,58.5763 67.6881,59.4441" stroke="#15ffe1" stroke-width="2" /><polyline fill="none" points="15.1864,49.0305 14.3186,54.6712 14.7525,65.0847 19.5254,75.9322 25.1661,80.2712" stroke="#7cff79" stroke-width="2" /><polyline fill="none" points="56.4068,57.2746 65.9525,57.2746 83.7424,52.5017 96.3254,52.9356 99.3627,54.2373 108.9085,63.7831 112.8136,79.8373 113.2475,88.0814" stroke="#e4ff12" stroke-width="2" /><polyline fill="none" points="93.2881,47.7288 97.6271,47.7288 102.4,45.1254 110.6441,35.5797 113.2475,27.7695 113.2475,16.0542 109.3424,8.678 112.8136,13.4508 117.1525,22.5627 119.322,39.0508 115.4169,49.4644 109.3424,59.0102 102.8339,64.6508" stroke="#ff9400" stroke-width="2" /><polyline fill="none" points="106.739,80.7051 107.1729,95.8915 99.3627,101.0983 96.7593,101.0983 94.1559,97.1932 91.9864,78.1017 88.9492,79.8373 69.8576,80.2712 52.0678,82.4407 52.0678,103.7017 46.4271,105.0034 43.3898,101.0983 37.3153,78.1017" stroke="#ff1d00" stroke-width="2" /><polyline fill="none" points="21.261,69.8576 20.8271,103.2678 29.939,103.2678 43.8237,92.4203" stroke="#7f0000" stroke-width="2" /></svg>