<?xml version="1.0" encoding="utf-8" ?>
<svg baseProfile="tiny" height="128" version="1.2" viewBox="0,0,128,128" width="128" xmlns="http://www.w3.org/2000/svg" xmlns:ev="http://www.w3.org/2001/xml-events" xmlns:xlink="http://www.w3.org/1999/xlink"><defs /><polyline fill="none" points="11.8356,39.4521 8.7671,35.5068 8.7671,28.0548 10.5205,27.6164 13.1507,29.3699 16.2192,34.6301 18.411,28.4932 21.0411,25.863 23.2329,25.863 24.5479,28.0548 24.1096,32.8767 29.3699,27.1781 30.6849,27.1781 32.4384,29.3699 32.0,32.4384 24.9863,38.5753 22.7945,42.0822 24.1096,72.3288" stroke="#00007f" stroke-width="2" /><polyline fill="none" points="10.9589,38.5753 12.7123,46.0274 13.589,64.8767 16.6575,70.137" stroke="#0000de" stroke-width="2" /><polyline fill="none" points="47.7808,27.6164 44.7123,43.8356 44.7123,52.1644 46.9041,59.6164 51.2877,65.7534 56.9863,68.3836 67.9452,68.8219 82.8493,64.4384 89.863,60.9315 93.3699,55.6712 93.3699,38.5753 91.1781,28.0548 95.5616,16.6575 96.4384,8.7671 78.0274,23.2329 60.0548,25.4247 42.9589,10.5205 41.6438,21.0411 49.0959,28.9315" stroke="#0028ff" stroke-width="2" /><polyline fill="none" points="57.4247,38.5753 56.5479,41.6438 57.863,42.9589 58.7397,42.0822 56.5479,36.3836 56.5479,39.4521 57.863,40.3288" stroke="#0080ff" stroke-width="2" /><polyline fill="none" points="72.3288,41.6438 78.4658,44.7123 78.9041,40.7671 76.7123,39.8904 74.0822,42.0822" stroke="#00d4ff" stroke-width="2" /><polyline fill="none" points="64.0,48.6575 64.0,51.726 65.7534,52.6027 67.9452,52.1644 68.3836,49.0959 65.7534,47.3425 62.2466,48.2192" stroke="#36ffc0" stroke-width="2" /><polyline fill="none" points="65.7534,52.6027 65.7534,59.6164 64.0,65.3151 57.863,66.6301 56.5479,64.0 57.863,62.2466" stroke="#7cff79" stroke-width="2" /><polyline fill="none" points="64.4384,64.0 65.7534,66.6301 68.8219,66.6301 70.5753,64.0" stroke="#c0ff36" stroke-width="2" /><polyline fill="none" points="76.274,54.3562 116.1644,50.8493" stroke="#ffe500" stroke-width="2" /><polyline fill="none" points="86.7945,59.1781 112.6575,60.0548" stroke="#ff9400" stroke-width="2" /><polyline fill="none" points="82.8493,60.9315 119.2329,71.0137" stroke="#ff4600" stroke-width="2" /><polyline fill="none" points="50.411,53.9178 30.2466,55.6712" stroke="#de0000" stroke-width="2" /><polyline fill="none" points="51.726,57.863 37.6986,62.6849" stroke="#7f0000" stroke-width="2" /></svg>