<?xml version="1.0" encoding="utf-8" ?>
<svg baseProfile="tiny" height="128" version="1.2" viewBox="0,0,128,128" width="128" xmlns="http://www.w3.org/2000/svg" xmlns:ev="http://www.w3.org/2001/xml-events" xmlns:xlink="http://www.w3.org/1999/xlink"><defs /><polyline fill="none" points="24.2983,39.9186 24.2983,24.2983 27.3356,13.0169 32.9763,12.1492 38.1831,16.4881 46.861,30.3729 49.0305,36.4475 52.9356,36.8814 75.4983,33.4102 89.8169,8.678 99.3627,29.0712 98.9288,42.9559" stroke="#00007f" stroke-width="2" /><polyline fill="none" points="98.9288,42.9559 103.2678,43.3898 113.2475,48.1627 117.1525,51.6339 119.322,66.8203 119.322,80.2712 114.5492,90.2508 111.5119,93.2881 98.9288,100.6644 91.1186,102.8339 59.4441,102.8339 28.2034,99.3627 12.1492,93.2881 8.678,82.4407 8.678,70.7254 10.4136,64.2169 17.7898,53.8034 32.1085,44.2576" stroke="#0000ff" stroke-width="2" /><polyline fill="none" points="64.6508,65.5186 60.3119,74.6305 70.7254,75.9322 73.7627,74.1966 67.2542,64.6508" stroke="#0080ff" stroke-width="2" /><polyline fill="none" points="59.4441,71.5932 39.4847,71.5932 24.7322,75.4983 22.5627,77.2339" stroke="#15ffe1" stroke-width="2" /><polyline fill="none" points="49.8983,77.2339 32.5424,81.5729 27.7695,87.2136" stroke="#7cff79" stroke-width="2" /><polyline fill="none" points="52.0678,83.7424 43.8237,85.478 38.1831,88.9492 36.0136,91.9864" stroke="#e4ff12" stroke-width="2" /><polyline fill="none" points="73.7627,66.3864 95.8915,65.5186 105.4373,69.4237" stroke="#ff9400" stroke-width="2" /><polyline fill="none" points="85.478,73.3288 108.9085,73.3288 112.8136,78.1017" stroke="#ff1d00" stroke-width="2" /><polyline fill="none" points="88.0814,74.6305 91.9864,75.0644 95.4576,76.8 100.2305,84.1763" stroke="#7f0000" stroke-width="2" /></svg>