<?xml version="1.0" encoding="utf-8" ?>
<svg baseProfile="tiny" height="128" version="1.2" viewBox="0,0,128,128" width="128" xmlns="http://www.w3.org/2000/svg" xmlns:ev="http://www.w3.org/2001/xml-events" xmlns:xlink="http://www.w3.org/1999/xlink"><defs /><polyline fill="none" points="25.1661,21.6949 31.2407,10.8475 33.4102,8.678 34.7119,17.3559" stroke="#00007f" stroke-width="2" /><polyline fill="none" points="35.5797,17.3559 45.1254,14.3186 57.7085,13.4508 78.1017,17.7898" stroke="#0000d1" stroke-width="2" /><polyline fill="none" points="78.1017,17.7898 83.3085,11.2814 84.6102,18.6576" stroke="#0010ff" stroke-width="2" /><polyline fill="none" points="85.478,18.6576 94.1559,24.7322 103.2678,35.1458 105.8712,43.8237 105.8712,50.7661 103.2678,57.2746 98.4949,62.4814 93.722,64.2169 77.6678,67.2542 59.878,68.122" stroke="#0058ff" stroke-width="2" /><polyline fill="none" points="25.1661,23.8644 20.8271,26.9017 17.3559,38.6169 17.7898,45.5593 22.5627,53.8034 29.5051,60.3119 36.0136,63.3492 60.3119,66.3864" stroke="#00a4ff" stroke-width="2" /><polyline fill="none" points="44.6915,27.7695 42.0881,28.6373 41.6542,31.2407 43.8237,33.8441 45.9932,33.8441 46.861,29.0712 44.6915,27.3356 42.9559,29.5051" stroke="#05ecf1" stroke-width="2" /><polyline fill="none" points="70.2915,29.939 69.8576,33.4102 71.1593,34.7119 72.8949,33.8441 74.1966,32.1085 73.3288,28.6373 71.1593,28.2034 68.9898,31.2407" stroke="#3fffb7" stroke-width="2" /><polyline fill="none" points="57.2746,40.3525 59.4441,40.7864 57.2746,40.3525 59.0102,41.6542 56.4068,43.8237 52.5017,42.9559" stroke="#7cff79" stroke-width="2" /><polyline fill="none" points="59.4441,42.0881 65.9525,43.8237 68.122,40.7864" stroke="#b7ff3f" stroke-width="2" /><polyline fill="none" points="22.9966,30.8068 19.5254,30.8068 13.4508,28.2034" stroke="#f1fc05" stroke-width="2" /><polyline fill="none" points="20.3932,36.8814 12.1492,37.7492 8.678,39.4847" stroke="#ffb900" stroke-width="2" /><polyline fill="none" points="21.6949,42.0881 10.4136,44.2576" stroke="#ff7300" stroke-width="2" /><polyline fill="none" points="97.6271,36.8814 111.9458,35.1458" stroke="#ff3000" stroke-width="2" /><polyline fill="none" points="95.8915,45.1254 114.5492,46.861" stroke="#d10000" stroke-width="2" /><polyline fill="none" points="96.3254,56.8407 119.322,59.4441" stroke="#7f0000" stroke-width="2" /></svg>