<?xml version="1.0" encoding="utf-8" ?>
<svg baseProfile="tiny" height="128" version="1.2" viewBox="0,0,128,128" width="128" xmlns="http://www.w3.org/2000/svg" xmlns:ev="http://www.w3.org/2001/xml-events" xmlns:xlink="http://www.w3.org/1999/xlink"><defs /><polyline fill="none" points="10.4136,34.7119 19.0915,29.0712 28.2034,26.4678 45.9932,27.3356 51.2,28.6373 55.1051,32.5424 56.4068,37.7492 55.539,45.1254 51.6339,48.1627 45.5593,49.0305 32.1085,49.0305 16.922,46.861 8.678,40.7864 9.9797,35.5797" stroke="#00007f" stroke-width="2" /><polyline fill="none" points="18.2237,46.4271 18.2237,52.5017 20.3932,59.0102 19.5254,60.3119 16.4881,58.1424 13.4508,49.4644 13.8847,46.861 16.4881,44.6915" stroke="#0000f1" stroke-width="2" /><polyline fill="none" points="25.6,49.0305 25.1661,53.8034 27.7695,58.1424 26.4678,59.878 23.4305,58.5763 21.261,53.3695 22.1288,45.9932" stroke="#004cff" stroke-width="2" /><polyline fill="none" points="48.1627,49.0305 53.8034,61.1797 52.9356,63.7831 50.3322,64.6508 45.5593,62.4814 43.8237,57.2746 43.8237,49.8983" stroke="#00b0ff" stroke-width="2" /><polyline fill="none" points="40.3525,52.0678 42.9559,57.7085 41.6542,59.0102 39.4847,58.5763 38.6169,50.7661" stroke="#29ffcd" stroke-width="2" /><polyline fill="none" points="49.0305,25.1661 51.2,20.3932 59.0102,15.6203 67.6881,19.0915 68.5559,22.9966 67.2542,27.7695 60.7458,23.4305 52.9356,24.2983" stroke="#7cff79" stroke-width="2" /><polyline fill="none" points="82.4407,13.4508 77.6678,14.7525 76.3661,19.5254 89.8169,22.5627" stroke="#cdff29" stroke-width="2" /><polyline fill="none" points="89.3831,8.678 89.8169,19.0915 94.5898,11.7153 97.1932,15.1864 99.7966,14.3186 104.1356,19.5254" stroke="#ffc400" stroke-width="2" /><polyline fill="none" points="105.8712,16.4881 108.0407,15.6203 106.739,14.7525 105.4373,16.4881 105.8712,19.5254 109.7763,20.8271 110.6441,19.9593" stroke="#ff6700" stroke-width="2" /><polyline fill="none" points="111.078,16.0542 109.3424,19.5254 113.2475,23.8644 116.2847,20.8271 115.4169,14.7525 112.8136,13.8847 108.0407,15.6203" stroke="#f10700" stroke-width="2" /><polyline fill="none" points="116.2847,12.1492 116.7186,17.7898 119.322,13.4508" stroke="#7f0000" stroke-width="2" /></svg>