<?xml version="1.0" encoding="utf-8" ?>
<svg baseProfile="tiny" height="128" version="1.2" viewBox="0,0,128,128" width="128" xmlns="http://www.w3.org/2000/svg" xmlns:ev="http://www.w3.org/2001/xml-events" xmlns:xlink="http://www.w3.org/1999/xlink"><defs /><polyline fill="none" points="32.9763,38.6169 32.1085,28.2034 34.278,9.1119 36.4475,9.1119 39.4847,15.6203 43.8237,31.6746 45.9932,31.6746 57.2746,29.5051 70.2915,29.5051 79.4034,30.8068 86.3458,14.7525 91.9864,8.678 92.8542,19.5254 91.5525,33.8441 95.4576,39.9186 96.7593,46.4271 96.3254,49.8983 91.5525,61.1797 85.478,66.8203 69.4237,74.6305 60.3119,75.4983 48.5966,74.1966 40.3525,69.4237 35.1458,64.6508 31.6746,57.2746 32.5424,46.861" stroke="#00007f" stroke-width="2" /><polyline fill="none" points="8.678,55.1051 26.9017,51.2 35.1458,50.3322" stroke="#004cff" stroke-width="2" /><polyline fill="none" points="16.0542,69.8576 59.878,52.9356" stroke="#29ffcd" stroke-width="2" /><polyline fill="none" points="89.8169,49.8983 111.078,50.3322 119.322,52.9356" stroke="#cdff29" stroke-width="2" /><polyline fill="none" points="82.0068,60.3119 112.3797,68.9898" stroke="#ff6700" stroke-width="2" /><polyline fill="none" points="65.5186,52.5017 65.5186,52.5017" stroke="#7f0000" stroke-width="2" /></svg>