<?xml version="1.0" encoding="utf-8" ?>
<svg baseProfile="tiny" height="128" version="1.2" viewBox="0,0,128,128" width="128" xmlns="http://www.w3.org/2000/svg" xmlns:ev="http://www.w3.org/2001/xml-events" xmlns:xlink="http://www.w3.org/1999/xlink"><defs /><polyline fill="none" points="20.3932,36.4475 11.2814,42.9559 8.678,51.6339 9.9797,62.9153 15.1864,68.9898 27.3356,72.8949 45.5593,75.0644 68.9898,75.0644 77.2339,73.3288 82.8746,71.5932 88.9492,65.9525 91.5525,52.9356 89.8169,44.6915 71.5932,37.3153 30.3729,30.3729 19.0915,31.6746 11.2814,36.8814 12.1492,38.6169" stroke="#00007f" stroke-width="2" /><polyline fill="none" points="15.1864,30.8068 16.922,17.7898 21.261,8.678 34.278,19.9593 41.6542,29.0712" stroke="#0000ff" stroke-width="2" /><polyline fill="none" points="71.5932,32.9763 68.5559,34.7119" stroke="#0080ff" stroke-width="2" /><polyline fill="none" points="68.5559,34.7119 68.9898,16.922 72.0271,14.3186 82.8746,30.8068 85.9119,41.6542" stroke="#15ffe1" stroke-width="2" /><polyline fill="none" points="47.2949,52.5017 35.5797,54.6712 48.5966,55.539 42.9559,52.5017 41.6542,59.878 44.2576,61.6136 49.4644,61.6136 52.5017,59.0102 49.8983,58.5763 56.8407,58.5763 65.9525,55.539" stroke="#7cff79" stroke-width="2" /><polyline fill="none" points="66.8203,48.1627 66.8203,48.1627" stroke="#e4ff12" stroke-width="2" /><polyline fill="none" points="67.2542,45.5593 75.4983,46.4271 68.5559,46.861" stroke="#ff9400" stroke-width="2" /><polyline fill="none" points="20.3932,42.9559 61.1797,45.5593" stroke="#ff1d00" stroke-width="2" /><polyline fill="none" points="55.539,74.1966 60.7458,119.322 75.4983,107.1729 96.7593,98.061 112.8136,109.3424 118.4542,111.078" stroke="#7f0000" stroke-width="2" /></svg>