<?xml version="1.0" encoding="utf-8" ?>
<svg baseProfile="tiny" height="128" version="1.2" viewBox="0,0,128,128" width="128" xmlns="http://www.w3.org/2000/svg" xmlns:ev="http://www.w3.org/2001/xml-events" xmlns:xlink="http://www.w3.org/1999/xlink"><defs /><polyline fill="none" points="61.1797,45.9932 54.6712,43.3898 44.2576,42.522 37.7492,43.3898 30.8068,46.861 25.1661,52.5017 13.4508,68.9898 9.9797,78.5356 8.678,87.2136 9.9797,101.5322 13.8847,107.6068 20.8271,112.8136 29.0712,116.2847 38.1831,118.8881 47.7288,119.322 66.3864,118.0203 75.0644,114.1153 81.5729,108.9085 90.2508,95.8915 91.9864,88.5153 92.4203,77.2339 91.1186,71.5932 85.478,61.1797 81.5729,56.8407 61.6136,40.3525" stroke="#00007f" stroke-width="2" /><polyline fill="none" points="45.5593,43.8237 14.7525,10.8475 14.7525,23.4305 17.7898,48.1627 19.0915,50.7661 19.5254,50.3322" stroke="#0000e8" stroke-width="2" /><polyline fill="none" points="43.3898,41.6542 45.1254,36.8814 52.5017,26.0339 61.1797,15.1864 68.5559,8.678 68.5559,36.8814 72.461,52.0678" stroke="#0038ff" stroke-width="2" /><polyline fill="none" points="23.4305,34.278 21.6949,35.5797 22.1288,40.7864 23.4305,44.6915 24.7322,45.5593 27.3356,45.1254 29.5051,42.0881 29.939,37.7492 26.0339,34.278 21.261,33.4102" stroke="#0094ff" stroke-width="2" /><polyline fill="none" points="59.878,33.4102 56.8407,36.0136 55.9729,39.9186 56.4068,41.6542 61.1797,42.0881 63.7831,38.1831 64.2169,32.1085 63.3492,30.8068 59.0102,29.5051" stroke="#0cf4ea" stroke-width="2" /><polyline fill="none" points="39.4847,82.8746 32.5424,76.3661" stroke="#56ffa0" stroke-width="2" /><polyline fill="none" points="39.4847,87.2136 28.6373,86.7797" stroke="#a0ff56" stroke-width="2" /><polyline fill="none" points="45.1254,95.8915 33.8441,96.3254 31.2407,97.6271" stroke="#eaff0c" stroke-width="2" /><polyline fill="none" points="58.1424,82.0068 69.4237,80.7051" stroke="#ffaa00" stroke-width="2" /><polyline fill="none" points="60.7458,88.5153 72.8949,88.5153" stroke="#ff5500" stroke-width="2" /><polyline fill="none" points="61.6136,97.6271 72.8949,97.1932" stroke="#e80000" stroke-width="2" /><polyline fill="none" points="46.861,100.2305 54.6712,101.5322 57.7085,99.3627" stroke="#7f0000" stroke-width="2" /></svg>