<?xml version="1.0" encoding="utf-8" ?>
<svg baseProfile="tiny" height="128" version="1.2" viewBox="0,0,128,128" width="128" xmlns="http://www.w3.org/2000/svg" xmlns:ev="http://www.w3.org/2001/xml-events" xmlns:xlink="http://www.w3.org/1999/xlink"><defs /><polyline fill="none" points="65.0847,35.1458 32.9763,36.0136 25.6,42.0881 21.6949,47.2949 11.7153,68.5559 8.678,80.7051 9.1119,94.1559 12.5831,100.2305 19.0915,107.6068 32.1085,114.9831 39.4847,117.5864 52.9356,119.322 70.2915,118.4542 75.4983,114.9831 79.8373,109.7763 84.6102,100.2305 85.9119,87.2136 85.478,72.8949 77.2339,53.3695 63.7831,34.278" stroke="#00007f" stroke-width="2" /><polyline fill="none" points="19.5254,47.7288 17.3559,8.678 26.9017,16.4881 43.8237,40.3525" stroke="#0028ff" stroke-width="2" /><polyline fill="none" points="62.9153,32.1085 81.5729,18.2237 91.9864,13.8847 87.2136,26.4678 74.1966,52.0678" stroke="#00d4ff" stroke-width="2" /><polyline fill="none" points="46.4271,76.8 41.6542,76.8 39.4847,78.5356 38.6169,84.6102 42.0881,89.3831 49.8983,89.8169 52.5017,88.0814 52.5017,80.7051 45.9932,75.4983" stroke="#7cff79" stroke-width="2" /><polyline fill="none" points="47.2949,86.7797 47.2949,101.5322 49.4644,107.1729 62.4814,108.0407 64.6508,105.8712" stroke="#ffe500" stroke-width="2" /><polyline fill="none" points="45.5593,91.9864 44.6915,99.7966 38.1831,105.8712 33.8441,104.1356 26.9017,95.0237" stroke="#ff4600" stroke-width="2" /><polyline fill="none" points="31.2407,60.3119 32.1085,62.9153 34.278,62.9153 35.1458,60.3119" stroke="#7f0000" stroke-width="2" /></svg>