<?xml version="1.0" encoding="utf-8" ?>
<svg baseProfile="tiny" height="128" version="1.2" viewBox="0,0,128,128" width="128" xmlns="http://www.w3.org/2000/svg" xmlns:ev="http://www.w3.org/2001/xml-events" xmlns:xlink="http://www.w3.org/1999/xlink"><defs /><polyline fill="none" points="26.1224,43.102 24.8163,36.5714 25.2517,16.1088 26.5578,10.449 28.7347,8.7075 30.4762,8.7075 33.9592,13.0612 44.4082,45.2789 49.6327,35.2653 61.3878,19.1565 64.4354,16.1088 70.966,16.1088 72.7075,17.415 74.8844,26.1224 75.3197,43.9728 83.5918,50.068 90.1224,60.517 91.8639,65.7415 90.9932,77.0612 81.8503,86.2041 51.8095,94.9116 39.1837,94.0408 33.9592,91.8639 24.381,80.5442 21.3333,78.8027 16.1088,67.9184 15.2381,58.3401 16.1088,50.5034 18.7211,47.0204 26.5578,43.5374" stroke="#00007f" stroke-width="2" /><polyline fill="none" points="43.102,70.5306 10.449,67.483" stroke="#0028ff" stroke-width="2" /><polyline fill="none" points="40.4898,74.449 26.9932,80.9796 10.0136,94.4762 8.7075,95.3469 10.0136,93.1701" stroke="#00d4ff" stroke-width="2" /><polyline fill="none" points="65.7415,68.3537 81.8503,57.9048 111.8912,43.5374" stroke="#7cff79" stroke-width="2" /><polyline fill="none" points="69.2245,70.0952 109.7143,80.1088 119.2925,84.898" stroke="#ffe500" stroke-width="2" /><polyline fill="none" points="71.8367,71.4014 81.415,86.2041 88.8163,94.9116 91.4286,96.2177" stroke="#ff4600" stroke-width="2" /><polyline fill="none" points="58.7755,57.034 58.7755,60.0816 61.3878,63.1293" stroke="#7f0000" stroke-width="2" /></svg>