<?xml version="1.0" encoding="utf-8" ?>
<svg baseProfile="tiny" height="128" version="1.2" viewBox="0,0,128,128" width="128" xmlns="http://www.w3.org/2000/svg" xmlns:ev="http://www.w3.org/2001/xml-events" xmlns:xlink="http://www.w3.org/1999/xlink"><defs /><polyline fill="none" points="42.522,32.5424 33.4102,20.3932 23.4305,39.4847" stroke="#00007f" stroke-width="2" /><polyline fill="none" points="40.3525,26.9017 51.6339,21.6949 59.4441,20.3932 70.2915,20.3932 75.4983,24.7322" stroke="#0000d1" stroke-width="2" /><polyline fill="none" points="77.2339,26.0339 85.9119,14.7525 92.4203,8.678 92.8542,16.922 98.4949,27.3356" stroke="#0010ff" stroke-width="2" /><polyline fill="none" points="61.6136,54.2373 63.3492,57.2746 67.6881,57.2746 70.7254,53.3695 70.7254,50.3322 59.878,49.0305 51.6339,54.2373 51.6339,56.8407 54.6712,58.1424 56.4068,58.1424 56.4068,54.6712" stroke="#0058ff" stroke-width="2" /><polyline fill="none" points="64.2169,58.5763 59.4441,65.9525 55.1051,59.4441" stroke="#00a4ff" stroke-width="2" /><polyline fill="none" points="58.5763,67.6881 58.5763,79.4034 59.878,81.5729 64.6508,84.6102 69.4237,84.1763 76.3661,81.5729 79.8373,78.5356 81.139,72.8949" stroke="#05ecf1" stroke-width="2" /><polyline fill="none" points="57.2746,65.5186 54.6712,77.6678 51.6339,86.3458 48.1627,88.0814 43.8237,86.7797 39.4847,80.7051 39.0508,76.3661" stroke="#3fffb7" stroke-width="2" /><polyline fill="none" points="43.3898,41.6542 36.8814,48.5966 36.8814,50.3322 40.7864,51.2 42.522,48.1627 42.0881,45.5593" stroke="#7cff79" stroke-width="2" /><polyline fill="none" points="74.6305,35.1458 72.8949,39.4847 72.8949,41.2203 74.6305,42.522 78.9695,42.9559 81.139,41.6542 81.5729,37.7492 78.1017,36.0136" stroke="#b7ff3f" stroke-width="2" /><polyline fill="none" points="72.461,53.8034 87.6475,48.5966 108.4746,47.2949" stroke="#f1fc05" stroke-width="2" /><polyline fill="none" points="71.5932,53.8034 98.4949,55.1051 107.6068,56.8407 119.322,61.1797" stroke="#ffb900" stroke-width="2" /><polyline fill="none" points="68.5559,54.6712 74.6305,54.6712 96.3254,60.3119 111.5119,66.3864 118.8881,71.1593" stroke="#ff7300" stroke-width="2" /><polyline fill="none" points="51.2,56.4068 39.9186,58.5763 8.678,69.8576" stroke="#ff3000" stroke-width="2" /><polyline fill="none" points="52.9356,60.7458 48.5966,60.3119 38.6169,62.9153 16.0542,73.7627" stroke="#d10000" stroke-width="2" /><polyline fill="none" points="53.8034,59.878 53.8034,59.878" stroke="#7f0000" stroke-width="2" /></svg>