<?xml version="1.0" encoding="utf-8" ?>
<svg baseProfile="tiny" height="128" version="1.2" viewBox="0,0,128,128" width="128" xmlns="http://www.w3.org/2000/svg" xmlns:ev="http://www.w3.org/2001/xml-events" xmlns:xlink="http://www.w3.org/1999/xlink"><defs /><polyline fill="none" points="23.8644,113.2475 9.9797,86.3458 8.678,76.8 9.5458,69.4237 16.922,59.4441 28.6373,51.2 35.5797,48.5966 42.522,48.5966 50.7661,49.4644 54.6712,51.2 63.3492,52.5017 69.8576,52.5017 76.8,57.2746 79.8373,62.0475 82.0068,73.3288 80.7051,89.3831 77.2339,98.9288 72.461,106.739 65.9525,113.2475 59.4441,116.7186 52.5017,118.0203 22.5627,119.322 21.261,108.0407" stroke="#00007f" stroke-width="2" /><polyline fill="none" points="21.261,51.2 22.5627,24.2983 27.3356,8.678 29.5051,16.0542 39.9186,36.8814 43.3898,46.861" stroke="#0000de" stroke-width="2" /><polyline fill="none" points="53.8034,45.1254 74.1966,10.8475 74.6305,42.522 78.5356,60.7458" stroke="#0028ff" stroke-width="2" /><polyline fill="none" points="38.1831,78.1017 38.1831,78.1017" stroke="#0080ff" stroke-width="2" /><polyline fill="none" points="38.6169,73.3288 38.6169,74.6305" stroke="#00d4ff" stroke-width="2" /><polyline fill="none" points="61.1797,75.9322 61.1797,76.8" stroke="#36ffc0" stroke-width="2" /><polyline fill="none" points="48.1627,92.8542 48.1627,92.8542" stroke="#7cff79" stroke-width="2" /><polyline fill="none" points="45.9932,90.6847 48.1627,91.1186" stroke="#c0ff36" stroke-width="2" /><polyline fill="none" points="48.1627,91.1186 48.1627,91.1186" stroke="#ffe500" stroke-width="2" /><polyline fill="none" points="65.9525,91.9864 78.1017,88.0814 88.5153,87.2136" stroke="#ff9400" stroke-width="2" /><polyline fill="none" points="72.0271,99.7966 79.8373,112.8136" stroke="#ff4600" stroke-width="2" /><polyline fill="none" points="27.3356,88.0814 13.4508,86.7797" stroke="#de0000" stroke-width="2" /><polyline fill="none" points="35.1458,95.4576 33.8441,98.4949" stroke="#7f0000" stroke-width="2" /></svg>