<?xml version="1.0" encoding="utf-8" ?>
<svg baseProfile="tiny" height="128" version="1.2" viewBox="0,0,128,128" width="128" xmlns="http://www.w3.org/2000/svg" xmlns:ev="http://www.w3.org/2001/xml-events" xmlns:xlink="http://www.w3.org/1999/xlink"><defs /><polyline fill="none" points="62.4814,46.4271 60.3119,51.6339" stroke="#00007f" stroke-width="2" /><polyline fill="none" points="69.4237,46.4271 67.6881,51.2 69.4237,50.3322" stroke="#0000a3" stroke-width="2" /><polyline fill="none" points="76.3661,45.5593 74.6305,49.8983" stroke="#0000cc" stroke-width="2" /><polyline fill="none" points="61.1797,45.5593 78.1017,45.9932" stroke="#0000f5" stroke-width="2" /><polyline fill="none" points="78.5356,45.9932 79.4034,50.3322" stroke="#000cff" stroke-width="2" /><polyline fill="none" points="79.4034,46.4271 80.7051,42.522 75.4983,39.9186 62.9153,40.3525 61.1797,43.3898 62.9153,44.6915" stroke="#0030ff" stroke-width="2" /><polyline fill="none" points="61.6136,40.3525 61.1797,36.4475" stroke="#0050ff" stroke-width="2" /><polyline fill="none" points="61.1797,36.0136 55.9729,36.4475 55.539,35.1458 58.1424,33.4102 62.9153,33.8441 61.6136,35.5797" stroke="#0074ff" stroke-width="2" /><polyline fill="none" points="59.4441,34.278 59.0102,34.278" stroke="#0098ff" stroke-width="2" /><polyline fill="none" points="58.5763,33.8441 59.4441,33.8441" stroke="#00bcff" stroke-width="2" /><polyline fill="none" points="60.3119,33.8441 60.7458,34.278" stroke="#00e0fa" stroke-width="2" /><polyline fill="none" points="62.0475,44.6915 73.7627,36.4475" stroke="#18ffdd" stroke-width="2" /><polyline fill="none" points="75.0644,35.5797 77.2339,35.5797" stroke="#32ffc3" stroke-width="2" /><polyline fill="none" points="71.5932,37.3153 72.461,37.3153" stroke="#4fffa6" stroke-width="2" /><polyline fill="none" points="75.0644,37.7492 75.0644,37.7492" stroke="#6cff89" stroke-width="2" /><polyline fill="none" points="76.8,38.1831 70.7254,39.0508" stroke="#89ff6c" stroke-width="2" /><polyline fill="none" points="73.7627,39.0508 74.1966,39.0508" stroke="#a6ff4f" stroke-width="2" /><polyline fill="none" points="77.6678,38.6169 72.461,39.9186" stroke="#c3ff32" stroke-width="2" /><polyline fill="none" points="72.461,39.4847 66.8203,45.9932" stroke="#ddff18" stroke-width="2" /><polyline fill="none" points="65.9525,42.522 65.9525,41.6542" stroke="#faf000" stroke-width="2" /><polyline fill="none" points="71.1593,34.7119 69.4237,36.4475" stroke="#ffcf00" stroke-width="2" /><polyline fill="none" points="68.9898,36.8814 62.9153,37.7492" stroke="#ffae00" stroke-width="2" /><polyline fill="none" points="62.9153,37.7492 68.5559,37.3153" stroke="#ff8c00" stroke-width="2" /><polyline fill="none" points="68.9898,37.3153 68.5559,37.7492" stroke="#ff6b00" stroke-width="2" /><polyline fill="none" points="71.1593,37.3153 70.7254,37.7492" stroke="#ff4d00" stroke-width="2" /><polyline fill="none" points="72.461,37.3153 70.2915,38.6169" stroke="#ff2c00" stroke-width="2" /><polyline fill="none" points="75.4983,38.1831 73.7627,39.4847" stroke="#f50b00" stroke-width="2" /><polyline fill="none" points="73.7627,40.3525 77.6678,40.3525" stroke="#cc0000" stroke-width="2" /><polyline fill="none" points="60.7458,42.0881 61.1797,41.6542" stroke="#a30000" stroke-width="2" /><polyline fill="none" points="75.0644,38.1831 49.0305,42.522 112.8136,42.9559 14.3186,44.6915 119.322,44.6915 9.1119,45.1254 19.5254,47.2949 118.8881,48.1627 9.1119,49.4644 97.1932,52.9356 119.322,52.5017 35.1458,51.2 8.678,48.1627 8.678,45.5593 11.2814,44.2576 43.3898,37.7492 118.8881,10.8475 118.8881,8.678 8.678,30.8068 75.4983,31.2407 119.322,19.0915 47.7288,23.8644 8.678,24.7322 87.2136,17.7898 119.322,13.4508 45.1254,22.5627 8.678,22.9966 119.322,28.2034 101.0983,36.8814 8.678,66.3864 94.1559,74.1966 8.678,74.1966 59.0102,72.8949 115.8508,68.122 118.4542,65.9525 76.3661,71.1593 9.1119,74.1966 115.8508,72.0271 119.322,64.2169 114.9831,67.2542 8.678,74.1966 119.322,53.3695 45.9932,71.1593 116.7186,72.461" stroke="#7f0000" stroke-width="2" /></svg>