<?xml version="1.0" encoding="utf-8" ?>
<svg baseProfile="tiny" height="128" version="1.2" viewBox="0,0,128,128" width="128" xmlns="http://www.w3.org/2000/svg" xmlns:ev="http://www.w3.org/2001/xml-events" xmlns:xlink="http://www.w3.org/1999/xlink"><defs /><polyline fill="none" points="91.1186,77.2339 82.4407,65.9525 73.7627,60.3119 51.6339,53.3695 33.8441,51.6339 19.9593,51.6339 12.5831,55.9729 9.1119,61.1797 8.678,74.1966 11.7153,85.478 17.3559,95.4576 28.6373,106.739 39.9186,114.1153 46.861,117.1525 59.4441,119.322 69.4237,119.322 79.4034,114.5492 86.3458,108.9085 91.1186,102.4 95.0237,93.2881 98.061,80.7051 98.061,73.3288 95.4576,65.9525 90.2508,61.6136" stroke="#00007f" stroke-width="2" /><polyline fill="none" points="43.8237,46.4271 59.0102,25.6 76.8,8.678 78.5356,9.5458 91.9864,35.5797 98.4949,52.9356 99.3627,59.0102" stroke="#0080ff" stroke-width="2" /><polyline fill="none" points="29.5051,63.7831 28.2034,65.5186 29.0712,66.8203 31.2407,68.122 32.9763,67.2542 33.4102,62.4814 30.3729,62.0475" stroke="#7cff79" stroke-width="2" /><polyline fill="none" points="57.7085,67.2542 52.9356,68.9898 50.3322,72.0271 52.9356,75.0644 57.7085,75.9322 59.0102,70.7254 57.2746,68.122" stroke="#ff9400" stroke-width="2" /><polyline fill="none" points="39.4847,78.5356 39.4847,85.9119 34.278,85.9119 33.8441,87.6475 34.278,89.8169 37.3153,91.9864 46.4271,91.9864 48.5966,90.2508 48.1627,86.3458 45.1254,80.7051 39.4847,78.1017 36.0136,78.1017" stroke="#7f0000" stroke-width="2" /></svg>