<?xml version="1.0" encoding="utf-8" ?>
<svg baseProfile="tiny" height="128" version="1.2" viewBox="0,0,128,128" width="128" xmlns="http://www.w3.org/2000/svg" xmlns:ev="http://www.w3.org/2001/xml-events" xmlns:xlink="http://www.w3.org/1999/xlink"><defs /><polyline fill="none" points="61.1797,36.0136 49.8983,36.4475 38.6169,42.0881 25.1661,53.8034 16.0542,65.5186 10.4136,76.3661 8.678,82.8746 8.678,100.2305 12.5831,105.4373 26.9017,111.5119 51.2,114.5492 74.6305,115.4169 87.2136,114.1153 100.2305,110.2102 108.9085,105.0034 112.3797,98.061 113.6814,86.7797 105.4373,62.0475 98.9288,47.7288 76.8,19.0915 65.9525,11.2814 59.878,8.678 54.2373,8.678 40.3525,18.6576 36.8814,19.5254" stroke="#00007f" stroke-width="2" /><polyline fill="none" points="24.7322,51.2 20.3932,37.3153 19.5254,18.2237 22.5627,18.2237 24.7322,19.9593 40.3525,38.6169" stroke="#0000ff" stroke-width="2" /><polyline fill="none" points="96.7593,36.0136 112.3797,16.922 114.5492,15.6203 117.5864,18.6576 118.8881,21.261 119.322,38.1831 114.1153,56.4068 111.9458,59.0102" stroke="#0080ff" stroke-width="2" /><polyline fill="none" points="64.2169,92.4203 76.3661,80.2712 95.8915,64.6508" stroke="#15ffe1" stroke-width="2" /><polyline fill="none" points="65.0847,71.5932 80.2712,55.9729" stroke="#7cff79" stroke-width="2" /><polyline fill="none" points="67.2542,96.7593 74.1966,96.7593 98.9288,102.4 107.6068,102.8339" stroke="#e4ff12" stroke-width="2" /><polyline fill="none" points="49.4644,84.1763 30.8068,82.8746" stroke="#ff9400" stroke-width="2" /><polyline fill="none" points="40.7864,94.1559 13.8847,101.9661" stroke="#ff1d00" stroke-width="2" /><polyline fill="none" points="36.0136,110.6441 12.1492,119.322" stroke="#7f0000" stroke-width="2" /></svg>