<?xml version="1.0" encoding="utf-8" ?>
<svg baseProfile="tiny" height="128" version="1.2" viewBox="0,0,128,128" width="128" xmlns="http://www.w3.org/2000/svg" xmlns:ev="http://www.w3.org/2001/xml-events" xmlns:xlink="http://www.w3.org/1999/xlink"><defs /><polyline fill="none" points="46.4271,13.8847 38.1831,14.3186 31.2407,17.3559 27.3356,19.5254 20.3932,26.0339 12.1492,39.4847 8.678,57.7085 10.4136,78.5356 14.3186,89.3831 19.9593,97.6271 21.6949,98.9288 35.5797,98.061 42.9559,92.4203" stroke="#00007f" stroke-width="2" /><polyline fill="none" points="72.0271,57.2746 62.4814,61.1797 54.2373,68.5559 51.6339,73.7627 49.8983,85.0441 50.3322,91.5525 55.539,99.7966 57.7085,100.2305 65.0847,95.0237 70.2915,82.0068 71.5932,59.0102 69.4237,95.4576" stroke="#00d4ff" stroke-width="2" /><polyline fill="none" points="95.0237,8.678 97.1932,51.2 95.4576,99.3627" stroke="#ffe500" stroke-width="2" /><polyline fill="none" points="119.322,37.7492 95.4576,43.3898 80.2712,43.8237" stroke="#7f0000" stroke-width="2" /></svg>