<?xml version="1.0" encoding="utf-8" ?>
<svg baseProfile="tiny" height="128" version="1.2" viewBox="0,0,128,128" width="128" xmlns="http://www.w3.org/2000/svg" xmlns:ev="http://www.w3.org/2001/xml-events" xmlns:xlink="http://www.w3.org/1999/xlink"><defs /><polyline fill="none" points="41.6542,55.1051 37.7492,55.1051 33.8441,57.7085 28.6373,65.0847 22.1288,82.0068 20.8271,95.0237 22.1288,100.6644 33.8441,113.2475 40.7864,117.5864 48.5966,119.322 60.7458,118.8881 67.2542,117.1525 77.2339,110.2102 84.6102,101.0983 89.3831,92.8542 91.1186,84.6102 91.9864,70.2915 90.2508,62.0475 86.3458,55.539 73.3288,45.9932 62.4814,43.8237 36.4475,43.3898" stroke="#00007f" stroke-width="2" /><polyline fill="none" points="30.3729,58.1424 25.6,52.5017 8.678,21.261 33.8441,34.7119 43.8237,43.8237" stroke="#0080ff" stroke-width="2" /><polyline fill="none" points="82.4407,41.2203 81.5729,39.0508 84.1763,34.278 98.9288,8.678 98.9288,16.922 92.4203,49.4644 92.4203,55.9729" stroke="#7cff79" stroke-width="2" /><polyline fill="none" points="40.7864,69.4237 38.1831,71.1593 39.4847,75.0644 43.8237,80.7051 46.861,81.5729 49.8983,80.2712 51.6339,69.8576 49.8983,68.122 46.4271,68.5559" stroke="#ff9400" stroke-width="2" /><polyline fill="none" points="62.9153,65.0847 64.6508,65.0847 67.2542,71.5932 72.0271,74.1966 78.1017,74.6305 84.1763,72.0271 88.0814,65.0847 86.7797,59.878 75.4983,59.4441 67.6881,62.0475" stroke="#7f0000" stroke-width="2" /></svg>