<?xml version="1.0" encoding="utf-8" ?>
<svg baseProfile="tiny" height="128" version="1.2" viewBox="0,0,128,128" width="128" xmlns="http://www.w3.org/2000/svg" xmlns:ev="http://www.w3.org/2001/xml-events" xmlns:xlink="http://www.w3.org/1999/xlink"><defs /><polyline fill="none" points="28.2034,17.3559 24.2983,18.6576 19.5254,23.8644 18.2237,30.8068 22.1288,38.1831 26.9017,40.7864 33.8441,40.7864 40.3525,37.3153 43.3898,33.8441 45.1254,28.6373 44.2576,22.9966 36.0136,17.7898 30.8068,16.0542 23.8644,16.922 19.5254,20.3932" stroke="#00007f" stroke-width="2" /><polyline fill="none" points="29.5051,42.9559 22.9966,47.2949 16.4881,55.1051 10.8475,68.122 8.678,76.8 9.5458,84.6102 15.1864,95.8915 20.8271,101.5322 26.4678,104.5695 36.8814,103.7017 44.2576,100.6644 51.6339,92.8542 56.4068,82.4407 57.2746,75.9322 55.539,68.5559 45.1254,47.2949 39.4847,43.8237" stroke="#0000bf" stroke-width="2" /><polyline fill="none" points="38.6169,18.6576 38.6169,16.4881 46.861,8.678 46.4271,14.3186 43.8237,19.5254" stroke="#0000fe" stroke-width="2" /><polyline fill="none" points="30.3729,17.3559 19.9593,9.5458 19.9593,12.1492 22.5627,19.0915 27.3356,22.1288" stroke="#0028ff" stroke-width="2" /><polyline fill="none" points="30.3729,28.6373 31.2407,28.6373" stroke="#0060ff" stroke-width="2" /><polyline fill="none" points="42.0881,26.9017 42.9559,26.9017" stroke="#009cff" stroke-width="2" /><polyline fill="none" points="40.3525,33.8441 39.9186,33.8441" stroke="#00d4ff" stroke-width="2" /><polyline fill="none" points="60.3119,80.7051 69.4237,78.1017 80.7051,78.5356 84.1763,84.1763 83.7424,91.5525 82.0068,94.1559 76.8,95.8915 74.6305,94.1559 75.0644,90.2508 76.8,88.5153 81.139,85.9119 88.5153,85.478 89.8169,90.2508 88.0814,99.3627 85.478,103.7017 82.4407,105.0034 85.9119,101.5322 93.722,99.3627 96.3254,101.9661 96.7593,105.0034 89.3831,118.4542 85.9119,119.322" stroke="#1fffd7" stroke-width="2" /><polyline fill="none" points="16.0542,63.7831 24.7322,61.6136 23.8644,69.8576 18.2237,85.478 18.2237,90.2508 20.8271,99.3627" stroke="#4cffaa" stroke-width="2" /><polyline fill="none" points="57.2746,62.4814 54.6712,57.7085 49.8983,55.539 47.2949,56.4068 45.9932,59.878 45.5593,68.5559 47.2949,86.7797 45.9932,105.0034" stroke="#7cff79" stroke-width="2" /><polyline fill="none" points="59.878,61.6136 58.5763,75.4983 55.1051,87.2136" stroke="#aaff4c" stroke-width="2" /><polyline fill="none" points="42.522,41.6542 50.3322,44.6915 54.6712,49.8983 60.3119,62.4814 63.3492,65.0847" stroke="#d7ff1f" stroke-width="2" /><polyline fill="none" points="49.4644,46.4271 58.1424,67.2542" stroke="#ffe500" stroke-width="2" /><polyline fill="none" points="49.4644,49.8983 55.1051,63.3492 55.1051,69.4237" stroke="#ffb100" stroke-width="2" /><polyline fill="none" points="39.0508,34.7119 40.3525,35.1458" stroke="#ff7a00" stroke-width="2" /><polyline fill="none" points="41.2203,35.1458 40.7864,35.1458" stroke="#ff4600" stroke-width="2" /><polyline fill="none" points="25.6,12.1492 36.0136,17.7898" stroke="#fe1200" stroke-width="2" /><polyline fill="none" points="28.6373,18.2237 29.0712,19.0915" stroke="#bf0000" stroke-width="2" /><polyline fill="none" points="26.4678,65.9525 20.3932,79.4034 17.7898,92.4203 19.5254,74.1966" stroke="#7f0000" stroke-width="2" /></svg>