<?xml version="1.0" encoding="utf-8" ?>
<svg baseProfile="tiny" height="128" version="1.2" viewBox="0,0,128,128" width="128" xmlns="http://www.w3.org/2000/svg" xmlns:ev="http://www.w3.org/2001/xml-events" xmlns:xlink="http://www.w3.org/1999/xlink"><defs /><polyline fill="none" points="42.522,22.5627 49.8983,8.678 51.2,8.678 59.4441,17.7898 71.1593,17.3559 77.6678,22.1288 84.6102,13.8847 95.8915,29.939 98.061,41.2203 97.6271,49.0305 79.4034,57.2746 60.3119,62.0475 52.9356,62.0475 47.7288,60.3119 38.6169,52.0678 29.5051,39.9186 27.7695,35.1458 27.7695,27.7695 32.5424,23.8644 39.0508,21.261 58.5763,18.6576 91.5525,22.5627" stroke="#00007f" stroke-width="2" /><polyline fill="none" points="82.4407,29.939 77.2339,32.9763 82.0068,29.939 83.3085,31.6746 83.3085,35.5797 82.0068,35.1458 79.4034,30.8068" stroke="#0000f1" stroke-width="2" /><polyline fill="none" points="47.7288,35.5797 50.7661,30.8068 49.0305,32.1085 49.4644,27.7695 51.2,26.9017 51.6339,29.5051" stroke="#004cff" stroke-width="2" /><polyline fill="none" points="63.3492,32.5424 65.9525,39.0508 67.2542,39.0508 62.4814,42.522 61.1797,40.3525 63.7831,33.4102" stroke="#00b0ff" stroke-width="2" /><polyline fill="none" points="55.539,46.4271 55.1051,47.7288 56.8407,49.8983 62.4814,52.0678 67.2542,50.7661 71.1593,47.2949" stroke="#29ffcd" stroke-width="2" /><polyline fill="none" points="40.3525,39.0508 29.939,43.8237 17.3559,52.5017" stroke="#7cff79" stroke-width="2" /><polyline fill="none" points="34.7119,35.5797 8.678,35.1458" stroke="#cdff29" stroke-width="2" /><polyline fill="none" points="37.3153,37.7492 35.1458,53.8034 31.2407,63.3492 28.2034,66.3864" stroke="#ffc400" stroke-width="2" /><polyline fill="none" points="103.2678,33.4102 119.322,24.7322" stroke="#ff6700" stroke-width="2" /><polyline fill="none" points="86.7797,43.3898 87.2136,50.3322 90.2508,55.1051 99.7966,59.878 111.9458,60.3119" stroke="#f10700" stroke-width="2" /><polyline fill="none" points="79.4034,39.0508 95.8915,36.4475 108.4746,32.1085" stroke="#7f0000" stroke-width="2" /></svg>