<?xml version="1.0" encoding="utf-8" ?>
<svg baseProfile="tiny" height="128" version="1.2" viewBox="0,0,128,128" width="128" xmlns="http://www.w3.org/2000/svg" xmlns:ev="http://www.w3.org/2001/xml-events" xmlns:xlink="http://www.w3.org/1999/xlink"><defs /><polyline fill="none" points="64.4354,22.6395 58.7755,23.9456 54.8571,27.8639 50.9388,35.2653 49.1973,42.2313 49.6327,50.068 54.4218,56.5986 61.8231,61.8231 70.5306,64.8707 82.2857,65.3061 89.6871,59.6463 92.7347,50.9388 92.7347,43.5374 88.381,33.9592 77.4966,25.2517 66.6122,22.6395 68.7891,23.9456 71.8367,22.6395 97.0884,8.7075 93.1701,37.4422" stroke="#00007f" stroke-width="2" /><polyline fill="none" points="57.4694,28.2993 42.2313,13.0612 44.8435,30.0408 47.8912,40.4898" stroke="#0080ff" stroke-width="2" /><polyline fill="none" points="58.7755,60.9524 49.6327,68.7891 46.585,75.7551 43.5374,94.0408 43.5374,113.1973 45.7143,118.4218 47.0204,119.2925" stroke="#7cff79" stroke-width="2" /><polyline fill="none" points="86.2041,64.8707 86.2041,79.2381 81.415,93.1701 81.8503,97.9592 85.7687,106.6667 85.3333,109.7143" stroke="#ff9400" stroke-width="2" /><polyline fill="none" points="45.7143,112.7619 41.7959,110.585 37.4422,105.3605 26.1224,86.6395 18.2857,80.5442 11.3197,79.6735 8.7075,81.8503 8.7075,90.5578 14.3673,99.7007 20.898,106.6667 29.6054,112.7619 46.1497,119.2925 50.9388,119.2925" stroke="#7f0000" stroke-width="2" /></svg>