<?xml version="1.0" encoding="utf-8" ?>
<svg baseProfile="tiny" height="128" version="1.2" viewBox="0,0,128,128" width="128" xmlns="http://www.w3.org/2000/svg" xmlns:ev="http://www.w3.org/2001/xml-events" xmlns:xlink="http://www.w3.org/1999/xlink"><defs /><polyline fill="none" points="11.7153,31.6746 18.6576,21.261 24.7322,15.6203 32.9763,26.4678 42.9559,34.7119" stroke="#00007f" stroke-width="2" /><polyline fill="none" points="41.2203,32.5424 59.4441,31.2407 69.8576,10.8475 73.7627,8.678 80.2712,24.2983 89.3831,39.0508 95.0237,52.0678 96.7593,58.1424 96.7593,64.6508 92.4203,72.0271 86.3458,76.8 75.4983,82.4407 58.5763,84.1763 44.2576,80.7051 32.5424,75.9322 17.7898,63.7831 13.4508,57.2746 8.678,42.9559 8.678,36.4475 13.4508,29.5051" stroke="#0000d5" stroke-width="2" /><polyline fill="none" points="37.3153,47.2949 37.3153,47.2949" stroke="#001cff" stroke-width="2" /><polyline fill="none" points="58.1424,44.6915 58.5763,44.6915" stroke="#006cff" stroke-width="2" /><polyline fill="none" points="38.1831,44.6915 38.6169,45.1254" stroke="#00b8ff" stroke-width="2" /><polyline fill="none" points="39.0508,57.2746 34.7119,58.1424 20.8271,65.5186" stroke="#1cffda" stroke-width="2" /><polyline fill="none" points="34.7119,65.0847 29.5051,72.0271" stroke="#5cff9a" stroke-width="2" /><polyline fill="none" points="36.8814,66.8203 37.3153,74.6305 39.0508,75.9322" stroke="#9aff5c" stroke-width="2" /><polyline fill="none" points="66.3864,53.8034 85.9119,54.6712" stroke="#daff1c" stroke-width="2" /><polyline fill="none" points="70.2915,58.5763 78.9695,62.0475 91.1186,64.2169" stroke="#ffcb00" stroke-width="2" /><polyline fill="none" points="76.3661,68.122 83.7424,72.0271" stroke="#ff8500" stroke-width="2" /><polyline fill="none" points="47.2949,62.9153 48.1627,65.0847 51.6339,65.9525 52.9356,62.0475 57.2746,62.4814 59.0102,61.6136 59.878,58.5763" stroke="#ff3b00" stroke-width="2" /><polyline fill="none" points="45.9932,82.0068 45.9932,105.0034 49.4644,113.6814 54.6712,117.1525 68.9898,119.322 85.0441,117.1525 89.3831,115.8508 90.2508,114.1153 90.2508,95.8915 85.478,84.1763 81.139,80.2712" stroke="#d50000" stroke-width="2" /><polyline fill="none" points="88.0814,100.2305 95.0237,99.3627 101.0983,95.4576 105.0034,88.0814 107.1729,70.2915 109.3424,68.9898 114.1153,68.9898" stroke="#7f0000" stroke-width="2" /></svg>