<?xml version="1.0" encoding="utf-8" ?>
<svg baseProfile="tiny" height="128" version="1.2" viewBox="0,0,128,128" width="128" xmlns="http://www.w3.org/2000/svg" xmlns:ev="http://www.w3.org/2001/xml-events" xmlns:xlink="http://www.w3.org/1999/xlink"><defs /><polyline fill="none" points="16.922,45.5593 19.5254,13.0169 22.5627,22.1288 22.9966,29.0712 28.6373,45.1254 44.2576,45.1254 48.5966,41.2203 60.3119,8.678 72.461,44.2576 74.1966,46.4271 83.7424,49.4644 88.0814,55.9729 95.4576,75.9322 95.4576,87.6475 93.2881,96.3254 89.3831,104.1356 81.139,112.8136 69.4237,118.0203 57.7085,119.322 46.4271,118.8881 35.5797,113.2475 17.7898,90.2508 9.9797,77.6678 8.678,71.5932 9.1119,56.8407 13.8847,47.7288 15.6203,45.5593 17.3559,45.5593" stroke="#00007f" stroke-width="2" /><polyline fill="none" points="51.2,70.7254 45.9932,73.3288 48.1627,75.0644" stroke="#0000e8" stroke-width="2" /><polyline fill="none" points="52.9356,72.8949 63.7831,72.8949" stroke="#0038ff" stroke-width="2" /><polyline fill="none" points="59.878,79.4034 62.4814,81.139 72.461,82.8746" stroke="#0094ff" stroke-width="2" /><polyline fill="none" points="62.9153,85.9119 65.0847,90.6847" stroke="#0cf4ea" stroke-width="2" /><polyline fill="none" points="36.0136,74.6305 25.1661,74.1966" stroke="#56ffa0" stroke-width="2" /><polyline fill="none" points="39.4847,88.5153 37.7492,90.6847 32.9763,92.8542" stroke="#a0ff56" stroke-width="2" /><polyline fill="none" points="37.3153,78.5356 22.9966,78.9695" stroke="#eaff0c" stroke-width="2" /><polyline fill="none" points="49.0305,73.7627 49.0305,87.2136 51.6339,97.6271 54.2373,103.2678 55.9729,105.8712 64.2169,106.739 65.5186,100.2305" stroke="#ffaa00" stroke-width="2" /><polyline fill="none" points="55.9729,101.5322 48.1627,104.5695 42.9559,104.5695 38.1831,100.6644 36.4475,91.9864" stroke="#ff5500" stroke-width="2" /><polyline fill="none" points="33.4102,57.2746 33.8441,57.2746" stroke="#e80000" stroke-width="2" /><polyline fill="none" points="35.1458,57.2746 33.8441,57.2746" stroke="#7f0000" stroke-width="2" /></svg>