<?xml version="1.0" encoding="utf-8" ?>
<svg baseProfile="tiny" height="128" version="1.2" viewBox="0,0,128,128" width="128" xmlns="http://www.w3.org/2000/svg" xmlns:ev="http://www.w3.org/2001/xml-events" xmlns:xlink="http://www.w3.org/1999/xlink"><defs /><polyline fill="none" points="19.0915,33.4102 17.7898,37.3153 17.3559,50.7661 23.8644,61.6136 30.8068,66.8203 34.278,66.8203 42.0881,58.5763 45.5593,50.7661 45.1254,42.0881 41.2203,39.0508 19.0915,28.6373 17.3559,28.6373 15.6203,32.9763" stroke="#00007f" stroke-width="2" /><polyline fill="none" points="16.4881,36.0136 8.678,8.678 23.8644,29.939" stroke="#004cff" stroke-width="2" /><polyline fill="none" points="42.0881,35.5797 60.7458,19.5254 50.3322,45.5593" stroke="#29ffcd" stroke-width="2" /><polyline fill="none" points="40.7864,60.3119 44.2576,56.8407 55.539,51.6339 78.9695,44.6915 84.6102,45.1254 90.6847,52.9356 95.4576,67.2542 95.8915,77.6678 91.9864,83.3085 81.5729,87.2136 59.0102,91.5525 47.7288,91.5525 35.5797,89.8169 26.9017,85.0441 24.2983,77.2339 24.7322,72.461 32.1085,66.8203" stroke="#cdff29" stroke-width="2" /><polyline fill="none" points="119.322,42.522 98.9288,52.9356" stroke="#ff6700" stroke-width="2" /><polyline fill="none" points="39.4847,89.8169 38.1831,96.3254 28.6373,114.1153 29.5051,114.5492" stroke="#7f0000" stroke-width="2" /></svg>