<?xml version="1.0" encoding="utf-8" ?>
<svg baseProfile="tiny" height="128" version="1.2" viewBox="0,0,128,128" width="128" xmlns="http://www.w3.org/2000/svg" xmlns:ev="http://www.w3.org/2001/xml-events" xmlns:xlink="http://www.w3.org/1999/xlink"><defs /><polyline fill="none" points="47.8912,44.4082 38.3129,39.619 31.7823,39.619 25.2517,45.2789 20.0272,52.6803 13.4966,68.7891 11.7551,76.1905 11.3197,91.8639 17.415,107.9728 22.2041,113.1973 28.2993,116.6803 35.2653,118.8571 47.4558,119.2925 54.8571,117.9864 61.8231,114.9388 70.966,106.6667 81.8503,90.9932 84.0272,78.8027 80.5442,67.483 69.6599,53.1156 62.2585,48.3265 57.034,46.1497 44.4082,46.1497 35.2653,50.5034 28.7347,56.1633" stroke="#00007f" stroke-width="2" /><polyline fill="none" points="9.5782,58.3401 12.1905,46.585 8.7075,19.1565 8.7075,13.4966 10.8844,8.7075 13.4966,8.7075 25.2517,28.2993 31.7823,35.2653 31.7823,33.5238" stroke="#00d4ff" stroke-width="2" /><polyline fill="none" points="58.7755,47.4558 69.2245,27.4286 74.449,20.0272 77.0612,25.2517 77.932,49.6327" stroke="#ffe500" stroke-width="2" /><polyline fill="none" points="42.6667,77.0612 40.9252,82.7211 41.7959,85.3333 44.4082,86.2041 46.585,84.0272 47.4558,75.7551 42.2313,74.8844 40.4898,77.4966" stroke="#7f0000" stroke-width="2" /></svg>