<?xml version="1.0" encoding="utf-8" ?>
<svg baseProfile="tiny" height="128" version="1.2" viewBox="0,0,128,128" width="128" xmlns="http://www.w3.org/2000/svg" xmlns:ev="http://www.w3.org/2001/xml-events" xmlns:xlink="http://www.w3.org/1999/xlink"><defs /><polyline fill="none" points="64.6508,29.5051 59.878,29.5051 36.8814,35.1458 24.2983,41.2203 16.0542,49.8983 16.0542,58.5763 19.5254,64.6508 27.7695,71.5932 37.3153,75.4983 45.9932,76.8 67.6881,75.4983 87.6475,67.6881 98.9288,59.4441 101.9661,55.1051 104.5695,47.7288 104.5695,39.0508 101.9661,35.1458 93.722,28.6373 84.1763,25.6 72.0271,25.1661" stroke="#00007f" stroke-width="2" /><polyline fill="none" points="66.3864,29.0712 91.5525,16.922 116.2847,10.8475 119.322,11.7153 117.5864,19.9593 105.8712,34.278" stroke="#004cff" stroke-width="2" /><polyline fill="none" points="32.9763,33.8441 29.939,24.2983 24.7322,16.4881 16.4881,10.4136 9.1119,8.678 8.678,17.7898 10.4136,24.2983 16.4881,34.278 22.9966,39.9186" stroke="#29ffcd" stroke-width="2" /><polyline fill="none" points="49.0305,39.4847 48.5966,47.7288" stroke="#cdff29" stroke-width="2" /><polyline fill="none" points="76.3661,43.3898 76.8,50.3322" stroke="#ff6700" stroke-width="2" /><polyline fill="none" points="48.5966,59.878 56.4068,61.6136" stroke="#7f0000" stroke-width="2" /></svg>