<?xml version="1.0" encoding="utf-8" ?>
<svg baseProfile="tiny" height="128" version="1.2" viewBox="0,0,128,128" width="128" xmlns="http://www.w3.org/2000/svg" xmlns:ev="http://www.w3.org/2001/xml-events" xmlns:xlink="http://www.w3.org/1999/xlink"><defs /><polyline fill="none" points="22.1288,38.1831 24.2983,29.5051 29.939,17.3559 37.7492,21.6949 48.5966,36.8814 52.0678,36.8814 70.2915,10.8475 73.7627,8.678 77.2339,10.4136 83.3085,18.6576 89.3831,33.4102 93.2881,47.7288 95.4576,62.0475 95.0237,72.461 92.8542,80.7051 85.0441,92.8542 79.8373,97.1932 65.9525,103.7017 57.2746,105.4373 48.5966,102.8339 40.3525,97.1932 34.7119,90.2508 30.8068,82.4407 26.4678,58.5763 25.6,40.7864" stroke="#00007f" stroke-width="2" /><polyline fill="none" points="22.1288,58.5763 8.678,64.2169" stroke="#0000f1" stroke-width="2" /><polyline fill="none" points="34.278,81.139 29.0712,84.1763 17.3559,96.7593 12.1492,100.2305" stroke="#004cff" stroke-width="2" /><polyline fill="none" points="43.8237,101.9661 36.8814,104.1356 31.2407,108.4746 26.0339,114.9831 25.1661,119.322" stroke="#00b0ff" stroke-width="2" /><polyline fill="none" points="89.8169,60.3119 109.7763,69.8576" stroke="#29ffcd" stroke-width="2" /><polyline fill="none" points="87.2136,85.0441 104.1356,91.1186" stroke="#7cff79" stroke-width="2" /><polyline fill="none" points="75.4983,98.9288 86.7797,108.9085 97.6271,115.8508" stroke="#cdff29" stroke-width="2" /><polyline fill="none" points="66.8203,43.3898 66.8203,43.3898" stroke="#ffc400" stroke-width="2" /><polyline fill="none" points="63.7831,44.2576 70.2915,51.6339" stroke="#ff6700" stroke-width="2" /><polyline fill="none" points="48.1627,49.0305 49.0305,54.6712" stroke="#f10700" stroke-width="2" /><polyline fill="none" points="49.4644,81.5729 59.878,83.7424 68.9898,82.0068 77.2339,71.5932" stroke="#7f0000" stroke-width="2" /></svg>