<?xml version="1.0" encoding="utf-8" ?>
<svg baseProfile="tiny" height="128" version="1.2" viewBox="0,0,128,128" width="128" xmlns="http://www.w3.org/2000/svg" xmlns:ev="http://www.w3.org/2001/xml-events" xmlns:xlink="http://www.w3.org/1999/xlink"><defs /><polyline fill="none" points="35.5797,36.8814 20.8271,36.0136 12.5831,39.0508 10.8475,43.8237 10.8475,50.3322 14.7525,56.4068 22.5627,59.878 37.7492,59.878 48.1627,55.539 51.6339,51.6339 52.5017,42.9559 49.0305,38.1831 32.9763,29.939 27.3356,29.0712" stroke="#00007f" stroke-width="2" /><polyline fill="none" points="9.5458,37.7492 25.1661,31.2407" stroke="#0000fe" stroke-width="2" /><polyline fill="none" points="8.678,35.5797 33.4102,27.7695" stroke="#0060ff" stroke-width="2" /><polyline fill="none" points="39.0508,34.7119 61.1797,47.7288" stroke="#00d4ff" stroke-width="2" /><polyline fill="none" points="16.922,32.9763 15.1864,8.678 19.9593,15.6203 32.5424,24.7322" stroke="#4cffaa" stroke-width="2" /><polyline fill="none" points="49.0305,36.0136 59.878,18.2237 60.7458,19.5254 57.2746,39.0508" stroke="#aaff4c" stroke-width="2" /><polyline fill="none" points="55.1051,46.861 105.0034,44.6915 119.322,52.5017 111.5119,65.5186 101.9661,71.5932 89.3831,76.8 72.461,77.6678 51.2,68.122 49.8983,66.3864 50.7661,64.6508" stroke="#ffe500" stroke-width="2" /><polyline fill="none" points="67.6881,69.8576 59.4441,88.5153 62.4814,88.0814 75.0644,77.6678" stroke="#ff7a00" stroke-width="2" /><polyline fill="none" points="86.3458,70.7254 86.3458,75.4983 88.5153,75.4983 92.8542,71.5932" stroke="#fe1200" stroke-width="2" /><polyline fill="none" points="95.8915,69.4237 109.3424,70.2915" stroke="#7f0000" stroke-width="2" /></svg>