<?xml version="1.0" encoding="utf-8" ?>
<svg baseProfile="tiny" height="128" version="1.2" viewBox="0,0,128,128" width="128" xmlns="http://www.w3.org/2000/svg" xmlns:ev="http://www.w3.org/2001/xml-events" xmlns:xlink="http://www.w3.org/1999/xlink"><defs /><polyline fill="none" points="37.0068,20.4626 33.5238,22.2041 32.2177,26.5578 36.5714,29.6054 39.619,27.4286 40.0544,21.3333 36.5714,19.5918" stroke="#00007f" stroke-width="2" /><polyline fill="none" points="33.9592,22.2041 36.1361,13.932 38.3129,20.0272" stroke="#0000c3" stroke-width="2" /><polyline fill="none" points="40.4898,23.9456 45.2789,23.5102 61.3878,26.5578 63.1293,28.2993 61.8231,30.9116 52.2449,31.3469 36.1361,26.9932" stroke="#0000ff" stroke-width="2" /><polyline fill="none" points="61.8231,26.1224 63.1293,20.4626 68.3537,18.7211 71.8367,15.6735 72.2721,13.0612 70.0952,12.6259" stroke="#0034ff" stroke-width="2" /><polyline fill="none" points="43.102,29.1701 41.3605,30.9116 40.4898,37.8776" stroke="#0070ff" stroke-width="2" /><polyline fill="none" points="59.6463,32.2177 60.517,40.4898" stroke="#00acff" stroke-width="2" /><polyline fill="none" points="44.8435,31.7823 44.8435,36.5714" stroke="#02e8f4" stroke-width="2" /><polyline fill="none" points="52.6803,31.3469 53.1156,36.1361" stroke="#32ffc3" stroke-width="2" /><polyline fill="none" points="36.1361,16.5442 36.1361,16.5442" stroke="#63ff93" stroke-width="2" /><polyline fill="none" points="28.7347,22.6395 23.5102,13.4966 13.932,8.7075 10.449,10.8844 8.7075,15.6735 8.7075,21.3333 10.0136,24.8163 13.932,27.4286 17.415,27.8639 23.9456,26.1224 26.5578,22.6395" stroke="#93ff63" stroke-width="2" /><polyline fill="none" points="15.2381,14.8027 13.4966,20.898" stroke="#c3ff32" stroke-width="2" /><polyline fill="none" points="14.8027,14.8027 15.6735,18.7211 17.415,15.6735 18.2857,16.9796 16.5442,24.8163" stroke="#f4f802" stroke-width="2" /><polyline fill="none" points="20.0272,23.0748 21.3333,21.7687 20.898,20.898 17.8503,22.2041 20.0272,27.4286" stroke="#ffc000" stroke-width="2" /><polyline fill="none" points="20.898,20.898 20.0272,23.5102 21.3333,22.6395 21.3333,17.8503" stroke="#ff8900" stroke-width="2" /><polyline fill="none" points="21.7687,23.5102 22.6395,26.1224 22.2041,20.898 22.6395,24.381 25.2517,21.7687 26.1224,17.415 25.2517,14.8027" stroke="#ff5100" stroke-width="2" /><polyline fill="none" points="77.4966,30.4762 78.3673,43.5374 76.6259,39.619" stroke="#ff1a00" stroke-width="2" /><polyline fill="none" points="75.7551,30.0408 80.1088,35.7007 83.1565,34.3946 85.3333,27.8639 86.6395,41.7959 87.5102,43.9728 88.381,43.5374" stroke="#c30000" stroke-width="2" /><polyline fill="none" points="91.4286,39.1837 93.1701,34.8299 92.7347,30.9116 91.4286,33.9592 92.2993,41.7959 94.4762,42.6667 96.6531,40.0544 97.9592,32.6531 97.5238,40.0544 98.3946,41.7959 99.7007,41.3605 101.8776,37.4422 101.4422,33.0884 99.7007,31.3469 97.0884,32.6531 103.619,31.3469 106.2313,33.9592 108.8435,41.7959 111.8912,37.4422 113.6327,30.0408 113.1973,38.3129 114.5034,40.9252 115.8095,40.9252 119.2925,33.0884 119.2925,30.4762 117.1156,30.0408" stroke="#7f0000" stroke-width="2" /></svg>