<?xml version="1.0" encoding="utf-8" ?>
<svg baseProfile="tiny" height="128" version="1.2" viewBox="0,0,128,128" width="128" xmlns="http://www.w3.org/2000/svg" xmlns:ev="http://www.w3.org/2001/xml-events" xmlns:xlink="http://www.w3.org/1999/xlink"><defs /><polyline fill="none" points="40.7864,26.0339 82.4407,25.1661 114.5492,10.4136 116.2847,9.9797 116.7186,11.7153 104.5695,29.5051 95.8915,37.7492 98.4949,41.6542 98.9288,48.5966 95.4576,55.539 89.3831,62.4814 83.3085,67.6881 72.461,72.8949 64.6508,75.0644 48.1627,76.3661 34.278,73.3288 26.4678,64.6508 24.2983,56.8407 24.2983,45.9932 29.939,34.7119 8.678,8.678 34.7119,16.0542 47.2949,22.9966 50.7661,26.4678" stroke="#00007f" stroke-width="2" /><polyline fill="none" points="45.1254,35.1458 39.4847,37.3153 38.6169,40.3525 39.9186,41.2203 43.3898,38.6169 43.8237,35.5797 42.522,34.7119" stroke="#0028ff" stroke-width="2" /><polyline fill="none" points="79.4034,36.0136 75.4983,39.9186 77.2339,40.3525 78.9695,37.7492 75.9322,36.8814" stroke="#00d4ff" stroke-width="2" /><polyline fill="none" points="60.7458,43.8237 60.7458,48.1627 57.2746,53.3695 53.3695,56.4068 45.1254,59.878" stroke="#7cff79" stroke-width="2" /><polyline fill="none" points="61.6136,43.3898 63.7831,56.4068 65.9525,60.3119 73.3288,65.5186" stroke="#ffe500" stroke-width="2" /><polyline fill="none" points="83.7424,46.4271 106.3051,45.1254 119.322,46.4271" stroke="#ff4600" stroke-width="2" /><polyline fill="none" points="85.478,50.7661 90.6847,51.2 98.061,54.2373 115.8508,63.3492" stroke="#7f0000" stroke-width="2" /></svg>