<?xml version="1.0" encoding="utf-8" ?>
<svg baseProfile="tiny" height="128" version="1.2" viewBox="0,0,128,128" width="128" xmlns="http://www.w3.org/2000/svg" xmlns:ev="http://www.w3.org/2001/xml-events" xmlns:xlink="http://www.w3.org/1999/xlink"><defs /><polyline fill="none" points="101.0983,45.1254 90.2508,36.0136 78.1017,31.6746 60.7458,31.6746 47.7288,37.3153 29.0712,51.2 22.1288,62.4814 21.261,67.2542 21.261,77.6678 28.2034,87.6475 33.8441,91.1186 45.9932,95.4576 59.878,95.8915 74.6305,89.8169 89.8169,79.8373 101.5322,68.5559 106.739,57.2746 105.4373,47.7288 92.8542,36.4475" stroke="#00007f" stroke-width="2" /><polyline fill="none" points="93.722,29.0712 98.4949,23.8644 118.4542,8.678 108.9085,29.939 104.1356,44.2576 103.2678,52.0678" stroke="#0000fe" stroke-width="2" /><polyline fill="none" points="24.7322,53.3695 22.9966,49.8983 22.9966,22.5627 24.7322,16.0542 32.1085,35.1458 36.8814,40.7864 42.0881,42.9559" stroke="#0060ff" stroke-width="2" /><polyline fill="none" points="42.9559,62.4814 16.922,65.5186 8.678,68.122" stroke="#00d4ff" stroke-width="2" /><polyline fill="none" points="43.3898,73.7627 18.6576,88.9492" stroke="#4cffaa" stroke-width="2" /><polyline fill="none" points="45.1254,85.478 32.1085,101.0983" stroke="#aaff4c" stroke-width="2" /><polyline fill="none" points="79.4034,56.8407 119.322,67.2542" stroke="#ffe500" stroke-width="2" /><polyline fill="none" points="82.4407,74.1966 104.5695,84.6102" stroke="#ff7a00" stroke-width="2" /><polyline fill="none" points="76.3661,84.6102 86.7797,89.8169" stroke="#fe1200" stroke-width="2" /><polyline fill="none" points="54.6712,42.522 51.6339,42.522 45.9932,46.4271 42.0881,53.3695" stroke="#7f0000" stroke-width="2" /></svg>