<?xml version="1.0" encoding="utf-8" ?>
<svg baseProfile="tiny" height="128" version="1.2" viewBox="0,0,128,128" width="128" xmlns="http://www.w3.org/2000/svg" xmlns:ev="http://www.w3.org/2001/xml-events" xmlns:xlink="http://www.w3.org/1999/xlink"><defs /><polyline fill="none" points="37.7492,39.9186 29.0712,42.522 22.1288,47.2949 15.6203,52.9356 11.2814,59.878 8.678,67.6881 8.678,79.8373 12.5831,88.0814 27.7695,102.4 42.9559,109.3424 61.6136,112.8136 83.7424,112.8136 89.3831,111.5119 102.8339,104.1356 110.2102,96.7593 115.4169,89.3831 118.0203,79.8373 119.322,61.6136 116.2847,53.3695 109.7763,47.2949 99.3627,42.522 88.0814,39.9186 74.1966,38.6169" stroke="#00007f" stroke-width="2" /><polyline fill="none" points="32.5424,37.3153 39.4847,13.8847 43.8237,16.4881 61.1797,34.278" stroke="#0000d5" stroke-width="2" /><polyline fill="none" points="61.1797,33.8441 70.7254,32.5424 78.1017,13.0169 81.139,8.678 84.1763,9.5458 90.2508,37.3153" stroke="#001cff" stroke-width="2" /><polyline fill="none" points="47.2949,80.7051 50.3322,86.7797 53.3695,88.9492 57.7085,89.3831 62.0475,89.3831 65.9525,87.2136 68.5559,81.139 77.2339,85.9119 90.6847,85.9119" stroke="#006cff" stroke-width="2" /><polyline fill="none" points="64.2169,74.1966 68.122,72.0271 70.7254,72.0271 69.4237,74.6305 65.9525,74.6305 65.5186,72.8949" stroke="#00b8ff" stroke-width="2" /><polyline fill="none" points="68.5559,67.6881 85.0441,63.7831 93.722,60.3119" stroke="#1cffda" stroke-width="2" /><polyline fill="none" points="72.461,70.7254 95.4576,67.6881" stroke="#5cff9a" stroke-width="2" /><polyline fill="none" points="74.1966,72.461 77.2339,74.1966 87.6475,75.4983 94.1559,77.6678" stroke="#9aff5c" stroke-width="2" /><polyline fill="none" points="72.0271,68.5559 68.122,69.4237 41.6542,69.4237" stroke="#daff1c" stroke-width="2" /><polyline fill="none" points="68.5559,74.6305 55.9729,75.4983 43.3898,80.2712" stroke="#ffcb00" stroke-width="2" /><polyline fill="none" points="60.7458,77.2339 44.2576,88.9492" stroke="#ff8500" stroke-width="2" /><polyline fill="none" points="40.3525,49.0305 40.3525,49.0305" stroke="#ff3b00" stroke-width="2" /><polyline fill="none" points="45.1254,49.4644 45.5593,50.3322" stroke="#d50000" stroke-width="2" /><polyline fill="none" points="72.0271,46.861 72.0271,52.9356 72.461,49.0305 74.6305,47.7288" stroke="#7f0000" stroke-width="2" /></svg>