<?xml version="1.0" encoding="utf-8" ?>
<svg baseProfile="tiny" height="128" version="1.2" viewBox="0,0,128,128" width="128" xmlns="http://www.w3.org/2000/svg" xmlns:ev="http://www.w3.org/2001/xml-events" xmlns:xlink="http://www.w3.org/1999/xlink"><defs /><polyline fill="none" points="50.3322,17.3559 38.6169,26.4678 32.1085,35.1458 36.4475,47.7288 50.3322,57.7085 61.1797,62.0475 69.4237,63.3492 78.9695,62.4814 84.6102,59.878 91.1186,55.1051 95.0237,49.4644 96.3254,44.2576 93.722,38.1831 89.3831,33.4102 80.2712,26.4678 52.5017,15.1864" stroke="#00007f" stroke-width="2" /><polyline fill="none" points="29.5051,23.4305 33.4102,8.678 42.0881,9.5458 49.4644,15.1864" stroke="#0000b6" stroke-width="2" /><polyline fill="none" points="83.3085,18.2237 83.3085,17.7898" stroke="#0000f1" stroke-width="2" /><polyline fill="none" points="83.7424,17.7898 95.4576,8.678 91.9864,31.2407" stroke="#0018ff" stroke-width="2" /><polyline fill="none" points="58.5763,41.2203 60.7458,39.9186 63.3492,41.2203" stroke="#004cff" stroke-width="2" /><polyline fill="none" points="59.878,44.2576 57.2746,52.5017 52.5017,52.5017" stroke="#0080ff" stroke-width="2" /><polyline fill="none" points="60.3119,44.6915 63.3492,51.2 68.5559,52.5017" stroke="#00b0ff" stroke-width="2" /><polyline fill="none" points="46.861,32.9763 46.861,32.9763" stroke="#00e4f7" stroke-width="2" /><polyline fill="none" points="65.0847,28.6373 64.6508,28.6373" stroke="#29ffcd" stroke-width="2" /><polyline fill="none" points="56.8407,65.9525 46.861,69.8576 40.3525,75.0644 37.3153,78.9695 34.7119,89.3831 41.6542,98.4949 48.1627,103.7017 59.0102,108.4746 69.8576,109.3424 79.8373,106.739 87.2136,101.9661 94.1559,92.8542 95.4576,86.3458 93.722,78.9695 90.2508,73.7627 78.5356,62.4814" stroke="#53ffa3" stroke-width="2" /><polyline fill="none" points="98.061,86.3458 109.7763,87.6475 111.9458,86.3458 118.4542,66.8203 115.4169,53.8034 119.322,48.1627" stroke="#7cff79" stroke-width="2" /><polyline fill="none" points="89.8169,102.4 93.722,115.8508 98.4949,116.2847" stroke="#a3ff53" stroke-width="2" /><polyline fill="none" points="57.2746,105.8712 50.3322,113.6814 37.7492,112.8136" stroke="#cdff29" stroke-width="2" /><polyline fill="none" points="30.3729,77.6678 26.9017,77.2339 26.9017,75.4983" stroke="#f7f400" stroke-width="2" /><polyline fill="none" points="96.7593,76.3661 102.8339,71.5932" stroke="#ffc400" stroke-width="2" /><polyline fill="none" points="77.6678,44.2576 111.5119,37.3153" stroke="#ff9400" stroke-width="2" /><polyline fill="none" points="82.8746,50.7661 108.4746,55.539 113.6814,58.1424" stroke="#ff6700" stroke-width="2" /><polyline fill="none" points="37.7492,43.3898 22.9966,45.1254 8.678,49.4644" stroke="#ff3700" stroke-width="2" /><polyline fill="none" points="40.7864,52.9356 15.6203,63.7831" stroke="#f10700" stroke-width="2" /><polyline fill="none" points="48.1627,53.3695 35.5797,72.461" stroke="#b60000" stroke-width="2" /><polyline fill="none" points="88.0814,45.9932 111.5119,42.9559" stroke="#7f0000" stroke-width="2" /></svg>