<?xml version="1.0" encoding="utf-8" ?>
<svg baseProfile="tiny" height="128" version="1.2" viewBox="0,0,128,128" width="128" xmlns="http://www.w3.org/2000/svg" xmlns:ev="http://www.w3.org/2001/xml-events" xmlns:xlink="http://www.w3.org/1999/xlink"><defs /><polyline fill="none" points="42.522,18.6576 35.1458,40.7864 39.0508,20.8271 44.6915,10.4136 47.7288,8.678 55.539,25.6 69.4237,43.8237 79.4034,28.2034 84.6102,22.9966 88.9492,20.8271 92.4203,28.2034 94.1559,45.1254 98.9288,58.1424 48.5966,47.2949 33.8441,46.861 25.6,49.0305 23.8644,50.3322 22.1288,56.8407 22.1288,75.0644 26.0339,87.6475 32.1085,97.6271 39.0508,103.7017 48.1627,107.6068 64.6508,109.3424 73.7627,106.739 83.3085,101.5322 100.6644,86.7797 104.1356,82.4407 107.6068,74.1966 108.0407,66.8203 104.5695,59.878 101.9661,57.2746 94.1559,54.2373 72.8949,52.5017" stroke="#00007f" stroke-width="2" /><polyline fill="none" points="78.9695,83.3085 88.9492,81.139 111.5119,88.0814" stroke="#0028ff" stroke-width="2" /><polyline fill="none" points="72.8949,99.7966 95.8915,104.1356 107.1729,111.078" stroke="#00d4ff" stroke-width="2" /><polyline fill="none" points="78.9695,88.5153 101.0983,89.8169 114.9831,94.5898 119.322,99.3627" stroke="#7cff79" stroke-width="2" /><polyline fill="none" points="46.4271,75.9322 34.278,75.0644 25.6,76.3661 15.6203,81.5729 9.9797,87.6475" stroke="#ffe500" stroke-width="2" /><polyline fill="none" points="45.9932,91.5525 22.1288,91.1186 13.8847,93.722 8.678,98.061" stroke="#ff4600" stroke-width="2" /><polyline fill="none" points="47.7288,82.4407 44.6915,81.139 13.8847,84.6102" stroke="#7f0000" stroke-width="2" /></svg>