<?xml version="1.0" encoding="utf-8" ?>
<svg baseProfile="tiny" height="128" version="1.2" viewBox="0,0,128,128" width="128" xmlns="http://www.w3.org/2000/svg" xmlns:ev="http://www.w3.org/2001/xml-events" xmlns:xlink="http://www.w3.org/1999/xlink"><defs /><polyline fill="none" points="52.9356,40.3525 28.2034,41.2203 13.8847,52.9356 10.8475,62.4814 11.7153,78.1017 19.9593,97.1932 24.2983,103.2678 33.4102,109.3424 61.6136,110.6441 76.3661,104.5695 92.8542,95.0237 99.3627,86.3458 100.6644,78.9695 99.7966,68.122 91.9864,61.6136 77.2339,53.8034 47.7288,46.4271" stroke="#00007f" stroke-width="2" /><polyline fill="none" points="23.4305,38.6169 10.4136,8.678 13.4508,10.4136 13.8847,13.4508 12.5831,16.4881 9.9797,18.2237 8.678,25.1661 10.4136,32.1085 14.7525,41.6542 15.6203,41.6542" stroke="#0080ff" stroke-width="2" /><polyline fill="none" points="86.3458,54.6712 87.2136,50.3322 96.7593,40.3525 111.078,21.6949 117.1525,16.922 119.322,21.6949 119.322,26.4678 113.2475,56.8407 103.7017,73.7627 99.3627,76.8" stroke="#7cff79" stroke-width="2" /><polyline fill="none" points="23.8644,102.4 23.8644,109.7763" stroke="#ff9400" stroke-width="2" /><polyline fill="none" points="13.4508,99.3627 13.4508,99.3627" stroke="#7f0000" stroke-width="2" /></svg>