<?xml version="1.0" encoding="utf-8" ?>
<svg baseProfile="tiny" height="128" version="1.2" viewBox="0,0,128,128" width="128" xmlns="http://www.w3.org/2000/svg" xmlns:ev="http://www.w3.org/2001/xml-events" xmlns:xlink="http://www.w3.org/1999/xlink"><defs /><polyline fill="none" points="34.278,52.5017 20.8271,59.4441 11.7153,73.3288 8.678,83.3085 8.678,91.5525 11.7153,101.9661 17.7898,110.6441 25.1661,116.2847 40.3525,119.322 48.1627,119.322 63.7831,116.2847 77.6678,108.9085 80.7051,105.8712 85.0441,99.7966 91.9864,84.6102 94.1559,78.9695 95.0237,72.461 93.722,65.5186 91.1186,62.0475 62.4814,49.4644 43.3898,55.1051 29.5051,65.0847" stroke="#00007f" stroke-width="2" /><polyline fill="none" points="17.7898,102.4 20.8271,90.6847 30.8068,83.3085 37.3153,81.5729 44.2576,81.5729 47.7288,83.7424 52.9356,96.7593 56.8407,83.7424 63.7831,79.4034 70.2915,80.2712 77.2339,82.8746 80.2712,85.0441 84.6102,95.0237" stroke="#004cff" stroke-width="2" /><polyline fill="none" points="65.5186,42.0881 79.8373,28.2034 93.2881,8.678 95.0237,11.7153 94.1559,59.0102" stroke="#29ffcd" stroke-width="2" /><polyline fill="none" points="39.0508,56.8407 27.7695,41.2203 23.8644,25.1661 22.1288,22.5627" stroke="#cdff29" stroke-width="2" /><polyline fill="none" points="17.7898,26.9017 27.7695,68.9898 24.7322,71.5932 25.1661,69.8576" stroke="#ff6700" stroke-width="2" /><polyline fill="none" points="62.4814,72.461 63.3492,62.4814 66.3864,60.7458 72.0271,62.0475 74.6305,65.0847 75.9322,71.1593 72.8949,80.7051 71.5932,77.6678" stroke="#7f0000" stroke-width="2" /></svg>