<?xml version="1.0" encoding="utf-8" ?>
<svg baseProfile="tiny" height="128" version="1.2" viewBox="0,0,128,128" width="128" xmlns="http://www.w3.org/2000/svg" xmlns:ev="http://www.w3.org/2001/xml-events" xmlns:xlink="http://www.w3.org/1999/xlink"><defs /><polyline fill="none" points="72.461,32.9763 63.7831,32.1085 44.2576,36.4475 30.8068,45.5593 26.0339,52.0678 25.6,55.539 26.0339,61.1797 28.6373,64.2169 47.2949,73.7627 59.0102,75.9322 80.2712,75.4983 86.7797,72.461 91.1186,66.8203 91.5525,49.8983 88.5153,43.8237 85.9119,42.0881 78.9695,39.0508 72.0271,38.1831" stroke="#00007f" stroke-width="2" /><polyline fill="none" points="38.6169,39.9186 39.4847,23.8644 42.0881,14.7525 44.6915,9.9797 49.0305,8.678 51.2,10.4136 58.1424,24.2983 62.0475,24.7322" stroke="#0000cc" stroke-width="2" /><polyline fill="none" points="84.1763,37.3153 86.3458,31.6746 95.0237,20.8271 101.5322,16.922 106.3051,16.4881 108.9085,17.7898 108.9085,25.1661 106.739,31.2407 97.1932,47.2949" stroke="#0008ff" stroke-width="2" /><polyline fill="none" points="51.2,53.3695 51.2,53.3695" stroke="#004cff" stroke-width="2" /><polyline fill="none" points="80.2712,52.0678 80.2712,52.0678" stroke="#0090ff" stroke-width="2" /><polyline fill="none" points="50.7661,45.5593 52.9356,46.861 51.6339,48.1627" stroke="#00d4ff" stroke-width="2" /><polyline fill="none" points="81.5729,53.3695 80.7051,53.8034" stroke="#29ffcd" stroke-width="2" /><polyline fill="none" points="61.6136,56.4068 69.8576,56.8407 72.0271,59.0102 73.3288,62.9153 69.8576,63.7831 63.7831,62.4814 60.3119,57.7085 61.6136,55.9729" stroke="#5fff96" stroke-width="2" /><polyline fill="none" points="66.3864,62.4814 60.3119,66.3864 45.5593,65.9525 44.6915,64.2169" stroke="#96ff5f" stroke-width="2" /><polyline fill="none" points="72.0271,62.4814 72.0271,68.5559 74.6305,70.7254 80.7051,72.0271 91.5525,72.0271" stroke="#cdff29" stroke-width="2" /><polyline fill="none" points="91.1186,57.7085 101.5322,56.8407 111.5119,53.3695" stroke="#ffe500" stroke-width="2" /><polyline fill="none" points="92.8542,65.0847 115.4169,65.0847" stroke="#ffa600" stroke-width="2" /><polyline fill="none" points="92.4203,71.1593 97.1932,74.6305 105.8712,77.2339 119.322,78.1017" stroke="#ff6700" stroke-width="2" /><polyline fill="none" points="33.8441,49.8983 12.1492,49.0305 8.678,47.7288" stroke="#ff2800" stroke-width="2" /><polyline fill="none" points="27.3356,59.878 11.7153,60.7458" stroke="#cc0000" stroke-width="2" /><polyline fill="none" points="37.3153,68.122 37.3153,68.122" stroke="#7f0000" stroke-width="2" /></svg>