<?xml version="1.0" encoding="utf-8" ?>
<svg baseProfile="tiny" height="128" version="1.2" viewBox="0,0,128,128" width="128" xmlns="http://www.w3.org/2000/svg" xmlns:ev="http://www.w3.org/2001/xml-events" xmlns:xlink="http://www.w3.org/1999/xlink"><defs /><polyline fill="none" points="33.8441,17.7898 30.3729,27.7695 29.0712,38.1831 31.2407,63.3492 33.4102,74.1966 40.7864,88.0814 50.3322,98.4949 57.2746,103.7017 64.6508,106.739 72.8949,107.1729 80.2712,105.0034 86.7797,100.6644 91.9864,94.1559 98.061,78.5356 101.5322,63.7831 102.4,35.1458 101.0983,24.2983 95.4576,12.5831 84.6102,28.6373 76.8,42.9559 65.9525,39.4847 53.8034,39.9186 52.0678,36.4475 50.7661,24.2983 47.7288,18.2237 42.522,10.8475 38.1831,8.678 36.0136,9.9797 34.278,16.922 34.278,26.9017 38.6169,37.3153" stroke="#00007f" stroke-width="2" /><polyline fill="none" points="50.7661,61.6136 50.7661,61.6136" stroke="#0000f1" stroke-width="2" /><polyline fill="none" points="68.122,58.5763 68.122,58.5763" stroke="#004cff" stroke-width="2" /><polyline fill="none" points="62.4814,67.2542 65.5186,76.3661 64.6508,83.7424 62.9153,86.3458 57.7085,87.6475 54.2373,85.478" stroke="#00b0ff" stroke-width="2" /><polyline fill="none" points="62.4814,67.6881 69.4237,88.9492 72.8949,90.6847 79.4034,87.6475 82.0068,81.5729" stroke="#29ffcd" stroke-width="2" /><polyline fill="none" points="77.2339,60.7458 77.2339,60.7458" stroke="#7cff79" stroke-width="2" /><polyline fill="none" points="75.9322,58.5763 75.9322,58.5763" stroke="#cdff29" stroke-width="2" /><polyline fill="none" points="79.4034,70.7254 108.9085,55.1051" stroke="#ffc400" stroke-width="2" /><polyline fill="none" points="84.6102,75.9322 91.1186,81.5729 119.322,88.0814" stroke="#ff6700" stroke-width="2" /><polyline fill="none" points="36.4475,76.8 8.678,78.5356" stroke="#f10700" stroke-width="2" /><polyline fill="none" points="45.9932,88.9492 42.0881,88.9492 32.1085,94.5898 16.922,107.1729" stroke="#7f0000" stroke-width="2" /></svg>