<?xml version="1.0" encoding="utf-8" ?>
<svg baseProfile="tiny" height="128" version="1.2" viewBox="0,0,128,128" width="128" xmlns="http://www.w3.org/2000/svg" xmlns:ev="http://www.w3.org/2001/xml-events" xmlns:xlink="http://www.w3.org/1999/xlink"><defs /><polyline fill="none" points="38.1831,30.8068 38.6169,13.0169 39.9186,11.7153 49.4644,23.8644" stroke="#00007f" stroke-width="2" /><polyline fill="none" points="49.0305,23.4305 55.1051,19.0915 63.3492,18.6576 68.9898,18.6576 78.1017,23.4305" stroke="#0000cc" stroke-width="2" /><polyline fill="none" points="81.5729,23.4305 94.5898,8.678 94.5898,21.261" stroke="#0008ff" stroke-width="2" /><polyline fill="none" points="52.5017,37.3153 51.2,40.3525 54.2373,36.0136 53.8034,37.3153 55.1051,37.3153" stroke="#004cff" stroke-width="2" /><polyline fill="none" points="68.5559,38.1831 68.122,41.2203 69.8576,41.2203 72.0271,34.7119 70.7254,35.1458 69.4237,37.7492 71.1593,38.1831" stroke="#0090ff" stroke-width="2" /><polyline fill="none" points="59.4441,55.1051 66.8203,54.2373 65.0847,59.0102 60.7458,59.878 55.9729,53.8034" stroke="#00d4ff" stroke-width="2" /><polyline fill="none" points="60.7458,61.1797 60.3119,65.5186 58.5763,70.7254 55.1051,74.1966 49.8983,75.0644" stroke="#29ffcd" stroke-width="2" /><polyline fill="none" points="61.1797,61.6136 67.6881,70.7254 75.4983,75.0644" stroke="#5fff96" stroke-width="2" /><polyline fill="none" points="36.0136,40.7864 33.4102,46.4271 29.939,63.3492 32.1085,66.8203 38.1831,72.0271 47.7288,72.8949" stroke="#96ff5f" stroke-width="2" /><polyline fill="none" points="78.9695,78.1017 85.0441,78.1017 89.8169,75.0644 94.1559,70.7254 96.7593,65.9525 98.061,59.878 98.4949,45.1254 95.4576,38.1831" stroke="#cdff29" stroke-width="2" /><polyline fill="none" points="55.1051,78.9695 62.9153,83.3085 77.6678,88.9492 84.6102,88.0814 85.0441,80.7051" stroke="#ffe500" stroke-width="2" /><polyline fill="none" points="87.6475,52.9356 99.7966,46.4271 116.2847,39.4847" stroke="#ffa600" stroke-width="2" /><polyline fill="none" points="87.2136,55.539 119.322,57.2746" stroke="#ff6700" stroke-width="2" /><polyline fill="none" points="84.1763,64.2169 119.322,74.6305" stroke="#ff2800" stroke-width="2" /><polyline fill="none" points="39.4847,46.4271 8.678,32.9763" stroke="#cc0000" stroke-width="2" /><polyline fill="none" points="49.0305,59.4441 37.3153,58.5763" stroke="#7f0000" stroke-width="2" /></svg>