<?xml version="1.0" encoding="utf-8" ?>
<svg baseProfile="tiny" height="128" version="1.2" viewBox="0,0,128,128" width="128" xmlns="http://www.w3.org/2000/svg" xmlns:ev="http://www.w3.org/2001/xml-events" xmlns:xlink="http://www.w3.org/1999/xlink"><defs /><polyline fill="none" points="40.3525,27.7695 40.3525,64.2169 42.0881,69.8576 45.9932,74.1966 60.3119,83.7424 73.7627,87.6475 78.5356,87.6475 89.8169,83.7424 95.8915,78.9695" stroke="#00007f" stroke-width="2" /><polyline fill="none" points="89.8169,79.4034 99.7966,77.6678 101.5322,73.3288 103.7017,60.3119 102.8339,35.5797 98.061,32.1085 43.8237,26.0339" stroke="#0000d5" stroke-width="2" /><polyline fill="none" points="67.6881,34.278 64.2169,23.8644 49.4644,8.678 45.9932,8.678 42.9559,13.0169 39.0508,40.7864" stroke="#001cff" stroke-width="2" /><polyline fill="none" points="91.1186,31.2407 108.4746,22.5627 108.9085,26.4678 107.6068,29.939 98.4949,45.9932" stroke="#006cff" stroke-width="2" /><polyline fill="none" points="86.3458,52.5017 82.8746,51.2 75.9322,51.2" stroke="#00b8ff" stroke-width="2" /><polyline fill="none" points="61.6136,43.8237 52.0678,42.9559 47.7288,40.7864" stroke="#1cffda" stroke-width="2" /><polyline fill="none" points="72.461,64.2169 65.0847,62.9153 60.3119,58.1424" stroke="#5cff9a" stroke-width="2" /><polyline fill="none" points="55.9729,60.7458 30.3729,45.9932 22.9966,43.8237" stroke="#9aff5c" stroke-width="2" /><polyline fill="none" points="46.4271,60.7458 39.4847,59.0102 25.6,59.0102 22.5627,60.3119" stroke="#daff1c" stroke-width="2" /><polyline fill="none" points="52.0678,62.4814 30.3729,64.2169 8.678,69.8576" stroke="#ffcb00" stroke-width="2" /><polyline fill="none" points="82.0068,61.6136 96.7593,60.3119 108.9085,62.0475 113.2475,64.2169" stroke="#ff8500" stroke-width="2" /><polyline fill="none" points="77.2339,65.5186 95.8915,71.1593 104.1356,76.8" stroke="#ff3b00" stroke-width="2" /><polyline fill="none" points="88.5153,60.3119 91.9864,60.7458 98.061,65.0847 105.4373,72.0271 119.322,93.722" stroke="#d50000" stroke-width="2" /><polyline fill="none" points="92.4203,73.3288 106.739,78.1017" stroke="#7f0000" stroke-width="2" /></svg>