<?xml version="1.0" encoding="utf-8" ?>
<svg baseProfile="tiny" height="128" version="1.2" viewBox="0,0,128,128" width="128" xmlns="http://www.w3.org/2000/svg" xmlns:ev="http://www.w3.org/2001/xml-events" xmlns:xlink="http://www.w3.org/1999/xlink"><defs /><polyline fill="none" points="26.0339,41.2203 37.3153,29.0712 45.9932,24.2983 74.6305,19.5254 77.2339,19.9593 79.4034,23.8644 82.8746,20.3932 86.3458,12.5831 90.6847,8.678 93.2881,14.7525 92.8542,27.7695 91.1186,40.3525 91.9864,41.6542" stroke="#00007f" stroke-width="2" /><polyline fill="none" points="34.7119,35.5797 23.4305,29.5051 13.8847,27.7695 13.0169,30.3729 16.0542,39.4847 26.4678,51.2 29.939,53.3695" stroke="#0000de" stroke-width="2" /><polyline fill="none" points="57.2746,57.2746 53.3695,56.8407 48.1627,58.5763 28.6373,67.2542 15.6203,76.3661 10.8475,81.5729 8.678,85.9119" stroke="#0028ff" stroke-width="2" /><polyline fill="none" points="57.7085,65.0847 39.9186,86.3458 32.5424,100.2305" stroke="#0080ff" stroke-width="2" /><polyline fill="none" points="85.9119,54.6712 115.8508,48.1627" stroke="#00d4ff" stroke-width="2" /><polyline fill="none" points="91.5525,64.6508 119.322,65.5186" stroke="#36ffc0" stroke-width="2" /><polyline fill="none" points="68.5559,61.1797 73.7627,62.9153 71.5932,67.6881 69.4237,66.3864 68.5559,62.9153" stroke="#7cff79" stroke-width="2" /><polyline fill="none" points="72.0271,47.2949 75.0644,34.7119 77.2339,35.1458 80.7051,41.2203" stroke="#c0ff36" stroke-width="2" /><polyline fill="none" points="54.6712,49.8983 45.5593,45.5593 42.9559,45.5593 39.9186,54.6712 41.2203,58.1424" stroke="#ffe500" stroke-width="2" /><polyline fill="none" points="77.6678,75.0644 70.2915,84.6102 65.0847,87.6475 64.2169,85.0441" stroke="#ff9400" stroke-width="2" /><polyline fill="none" points="82.4407,77.6678 90.6847,83.7424 93.722,78.9695" stroke="#ff4600" stroke-width="2" /><polyline fill="none" points="41.6542,66.3864 43.8237,76.8 47.2949,83.7424 52.0678,90.2508 60.7458,96.7593" stroke="#de0000" stroke-width="2" /><polyline fill="none" points="94.5898,49.0305 101.0983,62.4814 102.8339,80.2712" stroke="#7f0000" stroke-width="2" /></svg>