<?xml version="1.0" encoding="utf-8" ?>
<svg baseProfile="tiny" height="128" version="1.2" viewBox="0,0,128,128" width="128" xmlns="http://www.w3.org/2000/svg" xmlns:ev="http://www.w3.org/2001/xml-events" xmlns:xlink="http://www.w3.org/1999/xlink"><defs /><polyline fill="none" points="8.7372,79.5085 9.1741,94.7986 12.2321,101.3515 24.901,110.9625 42.8123,117.5154 54.1706,116.2048 64.2184,112.273 68.1502,108.3413 71.6451,100.041 71.6451,94.7986 69.0239,90.43 44.5597,74.2662 35.3857,72.0819 24.901,72.0819 12.2321,82.5666" stroke="#00007f" stroke-width="2" /><polyline fill="none" points="12.6689,76.4505 13.9795,64.2184 10.0478,39.3174 21.843,57.2287 26.2116,69.4608" stroke="#004cff" stroke-width="2" /><polyline fill="none" points="43.686,72.5188 47.1809,67.7133 63.7816,31.0171 69.8976,8.7372 71.2082,11.7952 71.2082,27.959 63.7816,70.3345 62.9078,84.7509" stroke="#29ffcd" stroke-width="2" /><polyline fill="none" points="30.1433,101.3515 30.5802,105.7201 26.6485,107.4676 23.1536,103.5358 22.7167,100.9147" stroke="#cdff29" stroke-width="2" /><polyline fill="none" points="30.5802,101.7884 34.9488,106.157 37.57,106.5939 41.0648,102.6621 40.628,100.9147 38.4437,100.041" stroke="#ff6700" stroke-width="2" /><polyline fill="none" points="25.3379,88.2457 72.0819,119.2628" stroke="#7f0000" stroke-width="2" /></svg>