<?xml version="1.0" encoding="utf-8" ?>
<svg baseProfile="tiny" height="128" version="1.2" viewBox="0,0,128,128" width="128" xmlns="http://www.w3.org/2000/svg" xmlns:ev="http://www.w3.org/2001/xml-events" xmlns:xlink="http://www.w3.org/1999/xlink"><defs /><polyline fill="none" points="27.3356,52.5017 32.9763,49.4644 56.4068,42.522 66.8203,41.6542 74.1966,42.9559 86.3458,46.861 98.9288,54.6712 108.9085,65.9525 113.6814,75.4983 113.2475,92.4203 109.7763,98.4949 103.2678,104.1356 96.3254,108.0407 65.9525,118.0203 52.5017,119.322 43.3898,118.0203 34.7119,114.1153 19.9593,102.4 12.5831,90.6847 9.1119,78.9695 9.5458,70.2915 24.2983,54.6712 26.9017,52.9356 29.5051,53.3695" stroke="#00007f" stroke-width="2" /><polyline fill="none" points="71.5932,42.0881 82.8746,26.0339 88.0814,8.678 89.8169,11.7153 94.1559,41.2203 98.4949,56.4068" stroke="#0000d5" stroke-width="2" /><polyline fill="none" points="32.1085,47.2949 23.8644,30.8068 9.9797,9.1119 8.678,55.1051 13.0169,75.9322" stroke="#001cff" stroke-width="2" /><polyline fill="none" points="78.9695,68.9898 76.3661,70.2915" stroke="#006cff" stroke-width="2" /><polyline fill="none" points="43.8237,70.2915 42.9559,70.7254" stroke="#00b8ff" stroke-width="2" /><polyline fill="none" points="61.6136,88.5153 60.7458,88.5153" stroke="#1cffda" stroke-width="2" /><polyline fill="none" points="57.7085,91.5525 54.6712,100.6644 49.8983,105.8712 43.8237,109.3424 38.6169,109.7763" stroke="#5cff9a" stroke-width="2" /><polyline fill="none" points="57.7085,91.1186 61.6136,98.4949 68.122,103.2678 82.4407,107.1729 86.7797,106.3051 89.3831,103.7017" stroke="#9aff5c" stroke-width="2" /><polyline fill="none" points="71.5932,76.3661 70.7254,78.9695 58.1424,87.6475" stroke="#daff1c" stroke-width="2" /><polyline fill="none" points="78.1017,82.0068 67.2542,88.0814 61.6136,88.9492" stroke="#ffcb00" stroke-width="2" /><polyline fill="none" points="74.6305,90.6847 58.5763,88.0814" stroke="#ff8500" stroke-width="2" /><polyline fill="none" points="48.1627,89.8169 45.1254,87.6475 38.6169,86.7797" stroke="#ff3b00" stroke-width="2" /><polyline fill="none" points="58.1424,87.6475 38.6169,87.6475" stroke="#d50000" stroke-width="2" /><polyline fill="none" points="55.539,94.1559 52.0678,94.1559 42.9559,97.1932 34.7119,102.8339" stroke="#7f0000" stroke-width="2" /></svg>