<?xml version="1.0" encoding="utf-8" ?>
<svg baseProfile="tiny" height="128" version="1.2" viewBox="0,0,128,128" width="128" xmlns="http://www.w3.org/2000/svg" xmlns:ev="http://www.w3.org/2001/xml-events" xmlns:xlink="http://www.w3.org/1999/xlink"><defs /><polyline fill="none" points="8.678,49.0305 12.1492,59.0102 19.0915,70.2915 44.6915,91.1186 66.8203,99.3627 77.2339,101.5322 96.3254,103.2678 102.8339,101.0983 110.2102,96.7593 115.8508,89.8169 119.322,75.4983 119.322,55.9729 113.6814,41.6542 101.5322,20.3932 97.1932,8.678 93.722,10.8475 81.139,29.939 73.3288,31.6746 47.2949,31.2407 39.4847,18.2237 34.278,12.5831 26.4678,16.0542 19.9593,23.4305 15.6203,38.6169 16.922,63.3492" stroke="#00007f" stroke-width="2" /><polyline fill="none" points="58.5763,67.6881 62.0475,74.1966 67.6881,69.8576 72.461,72.0271 72.8949,67.6881" stroke="#0000fe" stroke-width="2" /><polyline fill="none" points="65.9525,68.122 64.6508,65.0847 65.9525,64.2169 67.6881,64.6508 68.5559,66.8203" stroke="#0060ff" stroke-width="2" /><polyline fill="none" points="89.8169,44.6915 91.5525,62.9153" stroke="#00d4ff" stroke-width="2" /><polyline fill="none" points="38.6169,49.0305 38.6169,64.6508 39.9186,66.8203" stroke="#4cffaa" stroke-width="2" /><polyline fill="none" points="47.2949,79.4034 45.1254,81.5729 36.4475,84.1763 32.5424,88.0814" stroke="#aaff4c" stroke-width="2" /><polyline fill="none" points="52.9356,80.2712 52.5017,85.478 45.5593,98.061" stroke="#ffe500" stroke-width="2" /><polyline fill="none" points="91.1186,74.1966 104.1356,74.1966" stroke="#ff7a00" stroke-width="2" /><polyline fill="none" points="82.0068,85.478 94.1559,85.0441 101.0983,87.2136 104.1356,89.8169" stroke="#fe1200" stroke-width="2" /><polyline fill="none" points="68.122,101.5322 68.122,101.5322" stroke="#7f0000" stroke-width="2" /></svg>