<?xml version="1.0" encoding="utf-8" ?>
<svg baseProfile="tiny" height="128" version="1.2" viewBox="0,0,128,128" width="128" xmlns="http://www.w3.org/2000/svg" xmlns:ev="http://www.w3.org/2001/xml-events" xmlns:xlink="http://www.w3.org/1999/xlink"><defs /><polyline fill="none" points="12.1492,16.0542 11.7153,45.1254 13.4508,61.1797 9.5458,27.7695 10.4136,19.9593 13.4508,17.7898 19.5254,18.6576 23.4305,21.6949 38.1831,41.6542 45.5593,48.5966" stroke="#00007f" stroke-width="2" /><polyline fill="none" points="75.4983,52.9356 80.2712,43.8237 91.9864,29.939 102.4,19.5254 117.5864,8.678 118.0203,10.8475 108.0407,46.861 108.9085,56.8407" stroke="#0010ff" stroke-width="2" /><polyline fill="none" points="9.1119,63.3492 17.3559,57.7085 29.939,52.5017 53.3695,48.5966 69.8576,47.7288 87.6475,50.3322 98.4949,55.9729 107.6068,63.3492" stroke="#00a4ff" stroke-width="2" /><polyline fill="none" points="8.678,56.4068 18.6576,88.9492 23.8644,98.4949 29.0712,105.0034 42.9559,114.5492 55.1051,118.4542 65.0847,119.322 79.8373,114.9831 89.3831,108.4746 96.3254,100.2305 103.2678,89.3831 107.1729,78.9695 108.4746,66.8203 105.4373,53.8034 101.9661,49.8983" stroke="#3fffb7" stroke-width="2" /><polyline fill="none" points="40.3525,99.7966 49.8983,104.1356 53.8034,103.7017 57.7085,101.5322 63.7831,91.1186 67.2542,74.1966 66.8203,87.6475 70.2915,98.4949 74.6305,101.9661 78.9695,101.9661 83.3085,97.6271 85.478,92.8542" stroke="#b7ff3f" stroke-width="2" /><polyline fill="none" points="42.522,59.878 38.1831,64.6508 36.0136,73.3288 37.7492,82.4407 41.6542,87.2136 49.0305,78.5356 51.2,71.5932 51.2,63.3492 47.2949,62.4814" stroke="#ffb900" stroke-width="2" /><polyline fill="none" points="87.2136,63.3492 82.4407,72.8949 82.0068,81.5729 84.6102,87.6475 87.6475,84.6102 91.5525,76.8 92.4203,70.7254 90.6847,63.3492 88.5153,61.6136" stroke="#ff3000" stroke-width="2" /><polyline fill="none" points="48.5966,75.0644 46.4271,74.1966 43.3898,75.9322 40.7864,84.1763 40.7864,88.0814 44.2576,87.2136 46.861,83.3085 49.0305,77.2339 49.0305,75.9322 47.7288,76.3661" stroke="#7f0000" stroke-width="2" /></svg>