<?xml version="1.0" encoding="utf-8" ?>
<svg baseProfile="tiny" height="128" version="1.2" viewBox="0,0,128,128" width="128" xmlns="http://www.w3.org/2000/svg" xmlns:ev="http://www.w3.org/2001/xml-events" xmlns:xlink="http://www.w3.org/1999/xlink"><defs /><polyline fill="none" points="37.7492,46.4271 35.1458,34.278 30.8068,43.8237 21.261,43.8237 14.7525,46.4271 8.678,41.2203 9.1119,65.9525 13.4508,73.3288 19.9593,78.1017 27.7695,78.5356 39.9186,63.3492 39.4847,55.539 35.5797,45.5593" stroke="#00007f" stroke-width="2" /><polyline fill="none" points="25.6,53.8034 23.8644,53.8034 23.8644,55.539 25.1661,55.539 25.6,53.3695" stroke="#0000fe" stroke-width="2" /><polyline fill="none" points="29.0712,52.9356 28.6373,55.1051 29.939,55.1051 29.939,52.9356" stroke="#0060ff" stroke-width="2" /><polyline fill="none" points="25.1661,60.7458 20.8271,63.7831 20.3932,67.6881 23.8644,69.8576 25.6,69.4237 27.3356,65.9525 26.4678,62.9153" stroke="#00d4ff" stroke-width="2" /><polyline fill="none" points="24.2983,70.7254 26.0339,73.7627 28.2034,73.3288 28.6373,71.1593" stroke="#4cffaa" stroke-width="2" /><polyline fill="none" points="25.6,73.3288 21.6949,73.3288 20.3932,71.1593" stroke="#aaff4c" stroke-width="2" /><polyline fill="none" points="24.2983,79.4034 32.1085,85.0441 62.4814,93.722 79.8373,93.722 91.1186,91.5525 94.5898,88.0814 97.6271,82.0068 96.3254,75.9322 79.8373,66.8203 66.3864,64.6508 36.8814,64.2169" stroke="#ffe500" stroke-width="2" /><polyline fill="none" points="83.7424,69.8576 83.7424,58.1424 88.0814,48.1627 94.5898,42.9559 107.6068,42.9559 111.078,40.7864 116.7186,33.4102 119.322,18.2237 114.9831,8.678" stroke="#ff7a00" stroke-width="2" /><polyline fill="none" points="52.9356,94.5898 49.4644,106.3051 49.8983,110.2102 52.9356,114.5492 59.878,114.5492 64.2169,111.078 63.7831,108.4746 57.7085,102.8339 54.6712,95.8915" stroke="#fe1200" stroke-width="2" /><polyline fill="none" points="75.9322,95.4576 79.4034,102.4 83.3085,104.5695" stroke="#7f0000" stroke-width="2" /></svg>