<?xml version="1.0" encoding="utf-8" ?>
<svg baseProfile="tiny" height="128" version="1.2" viewBox="0,0,128,128" width="128" xmlns="http://www.w3.org/2000/svg" xmlns:ev="http://www.w3.org/2001/xml-events" xmlns:xlink="http://www.w3.org/1999/xlink"><defs /><polyline fill="none" points="8.7075,56.1633 10.449,30.4762 16.5442,8.7075 25.2517,20.4626 36.1361,43.9728 40.4898,58.3401 54.8571,47.0204 79.6735,19.1565 84.4626,26.5578 91.8639,57.9048 96.6531,71.4014 90.1224,91.4286 80.5442,107.9728 65.3061,118.8571 44.8435,119.2925 33.5238,116.6803 21.7687,108.8435 15.6735,99.7007 11.3197,80.9796 9.1429,51.8095" stroke="#00007f" stroke-width="2" /><polyline fill="none" points="37.4422,80.1088 20.898,67.9184" stroke="#0010ff" stroke-width="2" /><polyline fill="none" points="37.4422,91.4286 24.8163,89.2517" stroke="#00a4ff" stroke-width="2" /><polyline fill="none" points="37.4422,106.2313 35.2653,105.3605 29.1701,107.5374" stroke="#3fffb7" stroke-width="2" /><polyline fill="none" points="68.3537,78.8027 87.5102,84.0272" stroke="#b7ff3f" stroke-width="2" /><polyline fill="none" points="65.3061,93.6054 69.6599,96.2177 85.3333,101.0068" stroke="#ffb900" stroke-width="2" /><polyline fill="none" points="59.2109,110.585 75.3197,117.1156" stroke="#ff3000" stroke-width="2" /><polyline fill="none" points="43.102,96.6531 59.2109,99.2653" stroke="#7f0000" stroke-width="2" /></svg>