<?xml version="1.0" encoding="utf-8" ?>
<svg baseProfile="tiny" height="128" version="1.2" viewBox="0,0,128,128" width="128" xmlns="http://www.w3.org/2000/svg" xmlns:ev="http://www.w3.org/2001/xml-events" xmlns:xlink="http://www.w3.org/1999/xlink"><defs /><polyline fill="none" points="95.0237,30.8068 75.9322,30.8068 69.8576,34.7119 65.0847,42.9559 60.7458,59.878 68.9898,68.122 77.6678,71.5932 81.5729,74.6305 95.0237,74.6305 99.7966,66.8203 99.7966,62.0475 105.0034,40.7864 105.4373,26.9017 117.1525,33.8441 119.322,33.8441" stroke="#00007f" stroke-width="2" /><polyline fill="none" points="66.8203,30.8068 66.8203,13.4508 71.5932,10.4136 75.4983,21.261" stroke="#004cff" stroke-width="2" /><polyline fill="none" points="106.739,21.261 106.739,16.4881 110.6441,8.678 111.5119,30.3729 109.7763,31.2407" stroke="#29ffcd" stroke-width="2" /><polyline fill="none" points="84.6102,48.5966 84.6102,48.5966" stroke="#cdff29" stroke-width="2" /><polyline fill="none" points="80.2712,42.522 84.6102,43.8237 87.2136,47.7288" stroke="#ff6700" stroke-width="2" /><polyline fill="none" points="66.8203,68.9898 55.539,66.8203 46.861,62.9153 30.8068,61.1797 8.678,61.1797" stroke="#7f0000" stroke-width="2" /></svg>