<?xml version="1.0" encoding="utf-8" ?>
<svg baseProfile="tiny" height="128" version="1.2" viewBox="0,0,128,128" width="128" xmlns="http://www.w3.org/2000/svg" xmlns:ev="http://www.w3.org/2001/xml-events" xmlns:xlink="http://www.w3.org/1999/xlink"><defs /><polyline fill="none" points="36.8814,69.4237 33.4102,63.7831 32.9763,53.8034 36.4475,46.4271 40.7864,41.6542 54.6712,34.7119 73.7627,31.6746 82.8746,36.0136 91.5525,47.2949 97.6271,58.1424 101.5322,75.9322" stroke="#00007f" stroke-width="2" /><polyline fill="none" points="49.0305,35.5797 35.1458,13.4508 32.1085,9.1119 29.5051,8.678 27.7695,19.5254 27.7695,32.5424 28.6373,43.3898 30.3729,46.861" stroke="#0000f1" stroke-width="2" /><polyline fill="none" points="82.8746,31.6746 100.6644,15.6203 95.0237,26.9017 89.3831,43.3898" stroke="#004cff" stroke-width="2" /><polyline fill="none" points="61.1797,68.9898 69.8576,68.9898 65.9525,76.3661 63.7831,77.2339 59.878,70.2915" stroke="#00b0ff" stroke-width="2" /><polyline fill="none" points="50.7661,51.6339 51.6339,52.5017 50.7661,52.0678 49.8983,54.2373 51.2,54.6712 51.6339,50.3322" stroke="#29ffcd" stroke-width="2" /><polyline fill="none" points="72.8949,52.0678 72.461,52.0678" stroke="#7cff79" stroke-width="2" /><polyline fill="none" points="67.2542,78.1017 66.8203,80.7051 70.7254,87.2136 73.3288,89.3831 80.2712,89.8169 86.3458,86.3458 90.2508,82.0068 94.1559,75.4983 94.1559,72.461" stroke="#cdff29" stroke-width="2" /><polyline fill="none" points="62.4814,79.8373 63.3492,88.9492 58.5763,93.2881 45.9932,92.4203 42.522,90.6847 40.7864,87.6475" stroke="#ffc400" stroke-width="2" /><polyline fill="none" points="62.0475,74.6305 8.678,66.3864" stroke="#ff6700" stroke-width="2" /><polyline fill="none" points="72.461,70.2915 71.1593,68.122 77.2339,65.0847 119.322,49.0305" stroke="#f10700" stroke-width="2" /><polyline fill="none" points="68.5559,78.5356 115.4169,72.461" stroke="#7f0000" stroke-width="2" /></svg>