<?xml version="1.0" encoding="utf-8" ?>
<svg baseProfile="tiny" height="128" version="1.2" viewBox="0,0,128,128" width="128" xmlns="http://www.w3.org/2000/svg" xmlns:ev="http://www.w3.org/2001/xml-events" xmlns:xlink="http://www.w3.org/1999/xlink"><defs /><polyline fill="none" points="45.1254,22.1288 39.9186,25.1661 35.5797,30.3729 32.5424,37.3153 30.8068,45.1254 32.5424,59.0102 36.0136,65.5186 41.6542,70.7254 57.7085,79.8373 74.1966,83.7424 91.5525,81.5729 100.6644,76.8 104.5695,73.3288 106.3051,68.9898 106.3051,64.2169 99.3627,48.1627 88.5153,33.8441 72.0271,18.6576 61.1797,14.3186 49.8983,16.0542 44.2576,19.0915 40.3525,23.4305 38.6169,28.6373 39.9186,30.8068" stroke="#00007f" stroke-width="2" /><polyline fill="none" points="90.6847,35.5797 109.7763,13.8847 116.2847,8.678 119.322,8.678 115.8508,20.8271 104.5695,45.5593 98.9288,54.6712" stroke="#0000fe" stroke-width="2" /><polyline fill="none" points="35.5797,20.3932 21.261,13.4508 9.9797,12.5831 8.678,14.3186 19.5254,33.4102 30.3729,44.2576 35.5797,47.2949" stroke="#0060ff" stroke-width="2" /><polyline fill="none" points="69.8576,54.6712 71.5932,56.4068 68.9898,55.9729" stroke="#00d4ff" stroke-width="2" /><polyline fill="none" points="71.5932,58.5763 116.7186,49.0305" stroke="#4cffaa" stroke-width="2" /><polyline fill="none" points="76.3661,62.0475 91.5525,69.4237 114.1153,75.9322" stroke="#aaff4c" stroke-width="2" /><polyline fill="none" points="67.6881,59.0102 35.1458,59.878 21.6949,58.1424" stroke="#ffe500" stroke-width="2" /><polyline fill="none" points="71.1593,59.4441 31.2407,77.6678" stroke="#ff7a00" stroke-width="2" /><polyline fill="none" points="48.5966,37.3153 48.5966,39.4847 50.3322,40.3525 56.4068,38.6169" stroke="#fe1200" stroke-width="2" /><polyline fill="none" points="68.5559,36.8814 68.9898,39.4847" stroke="#7f0000" stroke-width="2" /></svg>