<?xml version="1.0" encoding="utf-8" ?>
<svg baseProfile="tiny" height="128" version="1.2" viewBox="0,0,128,128" width="128" xmlns="http://www.w3.org/2000/svg" xmlns:ev="http://www.w3.org/2001/xml-events" xmlns:xlink="http://www.w3.org/1999/xlink"><defs /><polyline fill="none" points="49.9726,10.5205 50.8493,55.2329 55.6712,57.863 73.6438,61.8082 86.7945,57.863 95.1233,48.6575 98.1918,42.5205 99.5068,28.0548 96.0,9.2055 83.2877,24.5479 80.6575,20.6027 70.5753,22.7945 61.8082,13.1507 55.6712,9.6438 51.726,8.7671 49.5342,9.6438 49.9726,10.9589" stroke="#00007f" stroke-width="2" /><polyline fill="none" points="64.4384,44.274 57.4247,41.6438 22.7945,35.5068 15.3425,37.2603" stroke="#0010ff" stroke-width="2" /><polyline fill="none" points="76.274,36.3836 89.863,34.1918 111.3425,35.0685" stroke="#00a4ff" stroke-width="2" /><polyline fill="none" points="79.7808,44.274 95.1233,45.1507 117.9178,37.6986" stroke="#3fffb7" stroke-width="2" /><polyline fill="none" points="80.6575,51.726 89.4247,52.1644 104.7671,47.7808 119.2329,46.9041" stroke="#b7ff3f" stroke-width="2" /><polyline fill="none" points="56.1096,51.2877 47.7808,46.9041 35.5068,43.8356 21.4795,43.8356 8.7671,46.9041" stroke="#ffb900" stroke-width="2" /><polyline fill="none" points="56.1096,45.589 24.5479,41.6438 13.589,41.6438 11.8356,43.8356" stroke="#ff3000" stroke-width="2" /><polyline fill="none" points="64.4384,32.4384 62.6849,36.3836 65.3151,38.137 67.0685,37.6986 68.8219,32.8767 65.7534,32.0" stroke="#7f0000" stroke-width="2" /></svg>