<?xml version="1.0" encoding="utf-8" ?>
<svg baseProfile="tiny" height="128" version="1.2" viewBox="0,0,128,128" width="128" xmlns="http://www.w3.org/2000/svg" xmlns:ev="http://www.w3.org/2001/xml-events" xmlns:xlink="http://www.w3.org/1999/xlink"><defs /><polyline fill="none" points="24.2983,32.5424 20.3932,37.3153 10.8475,60.3119 8.678,73.3288 10.8475,88.0814 16.922,96.7593 25.1661,103.7017 43.3898,113.2475 56.4068,114.9831 63.3492,112.3797 74.6305,105.0034 92.8542,75.0644 95.4576,65.0847 95.4576,53.3695 93.2881,45.5593 111.5119,37.3153 118.0203,32.5424 119.322,28.6373 118.0203,26.9017 112.8136,26.9017 103.7017,29.0712 78.1017,40.7864 43.8237,36.4475 42.0881,35.5797 27.7695,13.0169 22.1288,8.678 20.3932,12.5831 19.9593,25.1661 26.0339,42.9559" stroke="#00007f" stroke-width="2" /><polyline fill="none" points="28.6373,30.8068 25.6,19.5254 26.9017,19.5254 32.5424,28.2034 35.1458,36.0136 29.5051,37.3153" stroke="#004cff" stroke-width="2" /><polyline fill="none" points="78.5356,35.1458 103.2678,30.8068 91.9864,45.5593 81.5729,35.5797" stroke="#29ffcd" stroke-width="2" /><polyline fill="none" points="27.7695,52.0678 41.2203,55.1051 41.6542,56.8407 26.4678,52.0678" stroke="#cdff29" stroke-width="2" /><polyline fill="none" points="75.4983,58.1424 78.1017,57.7085 77.6678,60.7458 71.5932,58.5763 70.2915,56.8407" stroke="#ff6700" stroke-width="2" /><polyline fill="none" points="41.2203,84.1763 42.9559,76.8 44.6915,76.3661 54.2373,76.3661 62.0475,78.5356 49.8983,81.5729 43.8237,81.139" stroke="#7f0000" stroke-width="2" /></svg>