<?xml version="1.0" encoding="utf-8" ?>
<svg baseProfile="tiny" height="128" version="1.2" viewBox="0,0,128,128" width="128" xmlns="http://www.w3.org/2000/svg" xmlns:ev="http://www.w3.org/2001/xml-events" xmlns:xlink="http://www.w3.org/1999/xlink"><defs /><polyline fill="none" points="8.678,28.2034 9.5458,61.6136 12.5831,75.9322 17.7898,88.5153 26.4678,97.6271 34.278,102.4 42.522,105.4373 53.3695,105.8712 59.4441,105.0034 73.3288,96.7593 80.7051,89.3831 87.2136,79.4034 89.8169,67.2542 89.8169,39.0508 87.2136,23.4305 82.0068,8.678 77.6678,12.5831 65.5186,32.5424 62.9153,34.278 32.5424,34.278 22.9966,18.2237 13.4508,10.4136 12.1492,44.2576" stroke="#00007f" stroke-width="2" /><polyline fill="none" points="31.2407,56.8407 33.8441,57.2746 36.4475,59.4441 33.4102,60.7458 30.8068,56.8407 32.9763,54.6712 35.5797,54.6712 36.4475,58.5763" stroke="#0000fe" stroke-width="2" /><polyline fill="none" points="55.1051,59.0102 58.5763,56.4068 68.9898,54.6712 64.6508,56.4068 63.3492,53.8034 65.5186,52.5017 65.9525,56.8407 64.6508,57.2746" stroke="#0060ff" stroke-width="2" /><polyline fill="none" points="31.6746,85.0441 34.7119,88.0814 40.7864,87.6475 44.2576,82.8746 45.5593,75.4983 48.1627,78.5356 50.3322,85.9119 53.3695,90.6847 56.4068,92.4203 63.7831,92.4203 68.5559,88.0814 70.2915,75.4983" stroke="#00d4ff" stroke-width="2" /><polyline fill="none" points="44.2576,72.0271 44.2576,72.0271" stroke="#4cffaa" stroke-width="2" /><polyline fill="none" points="41.2203,75.0644 46.4271,76.3661 44.2576,76.3661 43.3898,73.3288 45.1254,71.5932 45.5593,72.461" stroke="#aaff4c" stroke-width="2" /><polyline fill="none" points="72.0271,36.0136 78.1017,27.3356 85.9119,20.3932 85.478,37.7492 83.7424,39.4847 75.4983,39.4847 72.461,41.2203" stroke="#ffe500" stroke-width="2" /><polyline fill="none" points="18.6576,39.0508 17.7898,20.8271 20.8271,24.2983 25.6,36.0136 15.6203,39.4847" stroke="#ff7a00" stroke-width="2" /><polyline fill="none" points="75.4983,39.9186 73.7627,35.5797 75.9322,32.1085" stroke="#fe1200" stroke-width="2" /><polyline fill="none" points="35.1458,106.3051 32.9763,108.4746 33.4102,112.3797 40.7864,119.322 56.4068,117.1525 62.4814,114.5492 64.2169,112.3797 64.6508,97.6271" stroke="#7f0000" stroke-width="2" /></svg>