<?xml version="1.0" encoding="utf-8" ?>
<svg baseProfile="tiny" height="128" version="1.2" viewBox="0,0,128,128" width="128" xmlns="http://www.w3.org/2000/svg" xmlns:ev="http://www.w3.org/2001/xml-events" xmlns:xlink="http://www.w3.org/1999/xlink"><defs /><polyline fill="none" points="41.6542,26.9017 38.6169,21.6949 27.7695,15.1864 25.1661,15.1864 23.4305,18.6576 29.939,36.4475 42.0881,54.2373" stroke="#00007f" stroke-width="2" /><polyline fill="none" points="45.9932,27.7695 64.2169,26.0339 81.5729,27.7695 87.2136,25.6 87.6475,20.3932 92.8542,13.8847 102.4,9.1119 108.9085,8.678 105.4373,28.2034 107.1729,42.522" stroke="#0000fe" stroke-width="2" /><polyline fill="none" points="43.8237,57.2746 40.3525,62.0475 36.4475,73.3288 36.0136,88.0814 37.7492,95.4576 41.2203,100.6644 45.5593,104.1356 51.6339,106.739 67.2542,108.9085 74.6305,108.0407 80.7051,104.1356 91.1186,94.1559 101.5322,77.2339 103.7017,69.8576 103.7017,55.9729 100.6644,48.1627 94.5898,43.8237" stroke="#0060ff" stroke-width="2" /><polyline fill="none" points="59.878,83.7424 62.9153,81.5729 65.0847,87.6475 59.0102,83.7424" stroke="#00d4ff" stroke-width="2" /><polyline fill="none" points="52.5017,51.2 53.3695,52.9356" stroke="#4cffaa" stroke-width="2" /><polyline fill="none" points="84.1763,51.2 82.8746,52.5017" stroke="#aaff4c" stroke-width="2" /><polyline fill="none" points="87.2136,73.7627 91.9864,70.2915 97.6271,68.9898 119.322,69.4237" stroke="#ffe500" stroke-width="2" /><polyline fill="none" points="91.5525,84.6102 98.4949,86.3458 108.4746,92.8542" stroke="#ff7a00" stroke-width="2" /><polyline fill="none" points="34.7119,76.8 27.3356,77.6678 22.5627,79.8373 8.678,91.1186" stroke="#fe1200" stroke-width="2" /><polyline fill="none" points="54.2373,80.2712 54.2373,80.2712" stroke="#7f0000" stroke-width="2" /></svg>