<?xml version="1.0" encoding="utf-8" ?>
<svg baseProfile="tiny" height="128" version="1.2" viewBox="0,0,128,128" width="128" xmlns="http://www.w3.org/2000/svg" xmlns:ev="http://www.w3.org/2001/xml-events" xmlns:xlink="http://www.w3.org/1999/xlink"><defs /><polyline fill="none" points="29.939,53.8034 19.0915,68.122 18.6576,75.0644 21.261,87.6475 28.6373,100.6644 32.9763,105.4373 43.8237,114.9831 54.2373,118.8881 62.4814,119.322 76.8,115.8508 87.2136,112.8136 95.8915,107.1729 108.0407,92.8542 113.2475,83.7424 114.5492,75.4983 112.8136,66.3864 108.0407,62.0475 90.2508,52.9356 72.0271,49.4644 49.0305,47.2949 33.4102,49.8983 27.7695,53.8034" stroke="#00007f" stroke-width="2" /><polyline fill="none" points="27.3356,53.3695 28.6373,36.8814 36.8814,8.678 36.8814,13.8847 47.7288,39.9186 49.4644,48.5966" stroke="#004cff" stroke-width="2" /><polyline fill="none" points="75.4983,49.4644 87.2136,16.4881 94.1559,32.5424 106.739,52.9356 113.6814,66.3864" stroke="#29ffcd" stroke-width="2" /><polyline fill="none" points="40.3525,65.9525 38.6169,68.122 39.9186,73.3288 43.8237,73.7627 47.2949,71.1593 45.9932,65.9525 43.3898,64.6508 38.6169,66.3864" stroke="#cdff29" stroke-width="2" /><polyline fill="none" points="91.1186,68.5559 87.6475,72.0271 87.2136,76.8 89.3831,79.8373 92.8542,78.9695 95.0237,75.4983 95.0237,71.5932 92.4203,67.6881" stroke="#ff6700" stroke-width="2" /><polyline fill="none" points="56.4068,88.9492 23.8644,101.9661 8.678,105.0034" stroke="#7f0000" stroke-width="2" /></svg>