<?xml version="1.0" encoding="utf-8" ?>
<svg baseProfile="tiny" height="128" version="1.2" viewBox="0,0,128,128" width="128" xmlns="http://www.w3.org/2000/svg" xmlns:ev="http://www.w3.org/2001/xml-events" xmlns:xlink="http://www.w3.org/1999/xlink"><defs /><polyline fill="none" points="47.7288,29.5051 45.9932,36.8814 45.5593,46.861 51.2,55.539 59.4441,59.4441 72.461,59.4441 78.1017,58.1424 86.3458,52.9356 88.9492,48.1627 89.3831,43.3898 89.3831,36.0136 86.7797,29.5051" stroke="#00007f" stroke-width="2" /><polyline fill="none" points="45.9932,27.3356 41.6542,16.0542 43.8237,15.1864 49.0305,17.3559 61.1797,26.0339 71.1593,23.4305 73.7627,18.6576 84.6102,8.678 85.478,10.8475 84.6102,26.4678 89.8169,30.8068" stroke="#0000e8" stroke-width="2" /><polyline fill="none" points="59.0102,36.4475 59.4441,37.7492 61.1797,37.7492 59.4441,35.1458 59.4441,36.8814 65.0847,37.3153" stroke="#0038ff" stroke-width="2" /><polyline fill="none" points="74.6305,32.9763 74.1966,34.278" stroke="#0094ff" stroke-width="2" /><polyline fill="none" points="68.9898,41.6542 69.4237,43.3898 71.1593,43.3898 71.1593,42.0881 69.4237,43.3898 70.7254,43.3898" stroke="#0cf4ea" stroke-width="2" /><polyline fill="none" points="69.8576,43.3898 63.3492,51.6339 62.4814,53.3695 64.2169,52.5017" stroke="#56ffa0" stroke-width="2" /><polyline fill="none" points="69.8576,44.6915 74.1966,50.3322" stroke="#a0ff56" stroke-width="2" /><polyline fill="none" points="58.1424,60.7458 58.1424,87.6475 62.0475,108.0407 66.8203,119.322 69.8576,111.9458 70.2915,80.2712 72.461,76.8 79.4034,78.1017 79.4034,106.3051 82.0068,115.4169 84.1763,115.8508 85.9119,114.1153 85.0441,62.0475 83.7424,58.1424 79.8373,56.4068" stroke="#eaff0c" stroke-width="2" /><polyline fill="none" points="56.4068,59.0102 49.4644,76.8 42.0881,89.8169 39.4847,98.061 39.4847,104.5695 43.8237,111.5119 48.1627,115.8508 56.4068,118.4542 60.3119,118.4542 62.9153,116.7186" stroke="#ffaa00" stroke-width="2" /><polyline fill="none" points="65.9525,112.8136 78.9695,111.9458" stroke="#ff5500" stroke-width="2" /><polyline fill="none" points="83.7424,109.7763 89.8169,106.3051 90.6847,102.4 90.2508,92.8542 84.1763,82.0068" stroke="#e80000" stroke-width="2" /><polyline fill="none" points="42.522,100.6644 36.0136,101.0983 27.7695,97.6271 20.3932,91.1186 17.7898,85.9119 16.0542,76.8 17.3559,45.1254 13.8847,38.6169 8.678,33.8441 10.4136,32.5424 13.4508,33.4102 15.6203,38.1831 20.8271,80.7051 31.2407,104.1356" stroke="#7f0000" stroke-width="2" /></svg>