<?xml version="1.0" encoding="utf-8" ?>
<svg baseProfile="tiny" height="128" version="1.2" viewBox="0,0,128,128" width="128" xmlns="http://www.w3.org/2000/svg" xmlns:ev="http://www.w3.org/2001/xml-events" xmlns:xlink="http://www.w3.org/1999/xlink"><defs /><polyline fill="none" points="96.7593,47.7288 88.5153,44.2576 79.4034,42.522 58.1424,43.8237 45.5593,50.3322 36.4475,60.7458 31.6746,78.5356 32.1085,89.3831 34.7119,99.7966 40.3525,108.0407 47.7288,114.1153 56.8407,117.1525 64.2169,117.5864 76.8,114.9831 88.5153,107.1729 98.9288,92.8542 101.9661,80.2712 98.061,65.5186 87.2136,51.6339 79.4034,47.2949 74.1966,46.4271 61.6136,47.2949" stroke="#00007f" stroke-width="2" /><polyline fill="none" points="13.8847,65.9525 37.3153,72.8949" stroke="#0000ff" stroke-width="2" /><polyline fill="none" points="8.678,91.1186 26.4678,91.1186 39.0508,88.9492" stroke="#0080ff" stroke-width="2" /><polyline fill="none" points="20.8271,113.2475 44.6915,101.5322" stroke="#15ffe1" stroke-width="2" /><polyline fill="none" points="87.6475,69.4237 105.0034,65.9525 111.078,62.4814 118.8881,55.539" stroke="#7cff79" stroke-width="2" /><polyline fill="none" points="82.8746,85.9119 98.4949,85.478 119.322,83.3085" stroke="#e4ff12" stroke-width="2" /><polyline fill="none" points="82.8746,99.3627 117.5864,110.2102" stroke="#ff9400" stroke-width="2" /><polyline fill="none" points="36.4475,57.2746 27.7695,15.1864 29.0712,13.4508 36.4475,14.7525 45.9932,19.5254 52.9356,25.1661 61.6136,36.0136" stroke="#ff1d00" stroke-width="2" /><polyline fill="none" points="77.2339,33.8441 91.5525,23.8644 107.1729,8.678 104.5695,29.0712 97.1932,51.6339" stroke="#7f0000" stroke-width="2" /></svg>