<?xml version="1.0" encoding="utf-8" ?>
<svg baseProfile="tiny" height="128" version="1.2" viewBox="0,0,128,128" width="128" xmlns="http://www.w3.org/2000/svg" xmlns:ev="http://www.w3.org/2001/xml-events" xmlns:xlink="http://www.w3.org/1999/xlink"><defs /><polyline fill="none" points="38.1831,28.2034 38.1831,17.3559 45.5593,25.6 59.0102,21.6949 66.8203,21.6949 72.461,22.9966 79.4034,8.678 84.1763,22.1288 80.7051,26.9017 91.5525,41.2203 93.2881,49.0305 88.5153,58.5763 72.461,69.8576 64.6508,72.8949 54.2373,73.3288 48.1627,71.1593 43.8237,67.6881 40.3525,56.8407 40.3525,45.5593 45.5593,34.278 37.3153,26.9017" stroke="#00007f" stroke-width="2" /><polyline fill="none" points="60.7458,50.3322 62.4814,50.7661 65.9525,46.861 56.4068,47.2949 60.3119,51.2 63.7831,48.1627 62.9153,47.7288 54.6712,48.1627 59.4441,50.7661 61.1797,49.0305 58.1424,48.5966 59.878,48.5966" stroke="#0028ff" stroke-width="2" /><polyline fill="none" points="52.9356,52.9356 21.261,52.9356" stroke="#00d4ff" stroke-width="2" /><polyline fill="none" points="45.1254,55.539 8.678,60.7458" stroke="#7cff79" stroke-width="2" /><polyline fill="none" points="71.5932,47.7288 86.3458,46.861 107.6068,42.9559" stroke="#ffe500" stroke-width="2" /><polyline fill="none" points="70.7254,50.3322 119.322,50.3322" stroke="#ff4600" stroke-width="2" /><polyline fill="none" points="60.3119,52.5017 59.878,61.6136" stroke="#7f0000" stroke-width="2" /></svg>