<?xml version="1.0" encoding="utf-8" ?>
<svg baseProfile="tiny" height="128" version="1.2" viewBox="0,0,128,128" width="128" xmlns="http://www.w3.org/2000/svg" xmlns:ev="http://www.w3.org/2001/xml-events" xmlns:xlink="http://www.w3.org/1999/xlink"><defs /><polyline fill="none" points="10.449,39.1837 27.8639,8.7075 29.1701,10.449 33.9592,33.5238 34.8299,36.5714 36.5714,37.4422 53.1156,33.5238 63.1293,18.7211 64.8707,20.4626 64.4354,29.6054 59.2109,54.8571 53.551,62.6939 45.7143,67.0476 29.1701,68.3537 16.5442,63.1293 13.932,60.0816 10.0136,50.9388 9.1429,41.3605 10.449,37.4422" stroke="#00007f" stroke-width="2" /><polyline fill="none" points="19.5918,43.9728 21.7687,43.102 20.898,45.7143" stroke="#0000d1" stroke-width="2" /><polyline fill="none" points="40.4898,49.1973 38.7483,50.5034" stroke="#0010ff" stroke-width="2" /><polyline fill="none" points="20.4626,67.483 19.5918,71.8367 10.8844,90.5578 10.0136,103.1837 15.6735,111.4558 25.6871,115.8095 30.0408,115.8095 37.0068,111.8912 43.9728,104.9252 48.3265,96.2177 50.068,87.5102 49.1973,76.6259 46.585,70.966 43.9728,66.1769 37.8776,60.9524" stroke="#0058ff" stroke-width="2" /><polyline fill="none" points="49.1973,107.5374 64.0,98.8299 68.7891,97.0884 75.3197,97.5238 80.9796,100.5714 94.0408,117.551 97.0884,119.2925 99.2653,118.8571" stroke="#00a4ff" stroke-width="2" /><polyline fill="none" points="33.9592,112.7619 33.9592,108.4082 30.9116,105.3605 23.0748,105.7959 20.0272,109.7143" stroke="#05ecf1" stroke-width="2" /><polyline fill="none" points="15.6735,98.3946 16.9796,94.9116 13.4966,94.9116 8.7075,102.7483" stroke="#3fffb7" stroke-width="2" /><polyline fill="none" points="59.6463,40.0544 50.5034,40.4898 43.5374,38.7483" stroke="#7cff79" stroke-width="2" /><polyline fill="none" points="31.7823,34.8299 15.2381,30.0408" stroke="#b7ff3f" stroke-width="2" /><polyline fill="none" points="26.9932,55.2925 26.9932,55.2925" stroke="#f1fc05" stroke-width="2" /><polyline fill="none" points="21.3333,54.8571 18.2857,54.4218 11.3197,49.6327" stroke="#ffb900" stroke-width="2" /><polyline fill="none" points="27.8639,57.034 37.4422,57.4694" stroke="#ff7300" stroke-width="2" /><polyline fill="none" points="23.5102,62.6939 16.5442,59.2109" stroke="#ff3000" stroke-width="2" /><polyline fill="none" points="28.7347,64.4354 32.6531,64.0" stroke="#d10000" stroke-width="2" /><polyline fill="none" points="22.6395,55.7279 24.8163,57.034" stroke="#7f0000" stroke-width="2" /></svg>