<?xml version="1.0" encoding="utf-8" ?>
<svg baseProfile="tiny" height="128" version="1.2" viewBox="0,0,128,128" width="128" xmlns="http://www.w3.org/2000/svg" xmlns:ev="http://www.w3.org/2001/xml-events" xmlns:xlink="http://www.w3.org/1999/xlink"><defs /><polyline fill="none" points="65.7415,16.5442 62.6939,14.8027 53.9864,15.2381 41.7959,16.9796 33.0884,20.4626 22.2041,28.7347 17.415,36.1361 14.8027,44.4082 14.8027,57.034 17.8503,67.483 23.5102,77.0612 33.0884,85.3333 47.8912,90.5578 58.7755,91.8639 80.5442,87.5102 87.0748,83.5918 93.1701,73.5782 95.7823,60.0816 95.3469,46.585 90.9932,35.7007 84.4626,27.4286 75.3197,23.0748 64.4354,22.6395" stroke="#00007f" stroke-width="2" /><polyline fill="none" points="23.0748,31.7823 18.7211,16.1088 13.0612,8.7075 10.449,14.3673 8.7075,45.7143" stroke="#0000f1" stroke-width="2" /><polyline fill="none" points="83.5918,21.7687 95.3469,15.6735 116.6803,9.1429 119.2925,9.5782 118.4218,20.0272 111.4558,38.7483 104.0544,51.8095 96.2177,61.3878" stroke="#004cff" stroke-width="2" /><polyline fill="none" points="43.5374,66.1769 36.1361,63.5646 23.5102,61.8231" stroke="#00b0ff" stroke-width="2" /><polyline fill="none" points="43.9728,75.7551 19.5918,77.932" stroke="#29ffcd" stroke-width="2" /><polyline fill="none" points="48.7619,85.7687 24.8163,91.8639" stroke="#7cff79" stroke-width="2" /><polyline fill="none" points="73.1429,67.483 77.4966,65.3061 87.5102,62.2585 116.2449,57.034" stroke="#cdff29" stroke-width="2" /><polyline fill="none" points="65.3061,72.7075 103.619,77.4966" stroke="#ffc400" stroke-width="2" /><polyline fill="none" points="69.6599,89.2517 90.5578,90.9932 97.0884,90.1224" stroke="#ff6700" stroke-width="2" /><polyline fill="none" points="51.3741,41.7959 47.8912,40.0544 41.3605,40.0544 35.7007,41.3605 33.0884,43.5374 32.6531,46.1497 33.9592,49.1973 38.3129,52.2449 43.9728,53.551 54.8571,51.8095 55.2925,49.1973 50.5034,44.4082" stroke="#f10700" stroke-width="2" /><polyline fill="none" points="79.2381,40.9252 76.1905,40.4898 66.6122,44.8435 64.4354,47.8912 66.6122,50.9388 75.7551,52.2449 87.5102,50.068 88.381,47.0204 83.5918,43.9728" stroke="#7f0000" stroke-width="2" /></svg>