<?xml version="1.0" encoding="utf-8" ?>
<svg baseProfile="tiny" height="128" version="1.2" viewBox="0,0,128,128" width="128" xmlns="http://www.w3.org/2000/svg" xmlns:ev="http://www.w3.org/2001/xml-events" xmlns:xlink="http://www.w3.org/1999/xlink"><defs /><polyline fill="none" points="57.034,26.9932 53.551,23.9456 45.7143,23.9456 34.3946,28.7347 28.7347,38.7483 27.4286,50.068 31.7823,56.1633 41.3605,60.9524 48.3265,61.8231 60.9524,61.8231 67.483,48.3265 67.9184,37.0068 65.3061,30.0408 62.2585,26.5578 57.034,24.8163" stroke="#00007f" stroke-width="2" /><polyline fill="none" points="56.5986,25.6871 67.0476,13.932 78.8027,10.449 84.0272,13.4966 83.5918,20.0272 67.483,41.7959" stroke="#0000f1" stroke-width="2" /><polyline fill="none" points="37.8776,25.2517 28.2993,9.5782 20.898,8.7075 15.2381,12.6259 16.5442,18.7211 32.2177,38.7483" stroke="#004cff" stroke-width="2" /><polyline fill="none" points="46.1497,40.4898 43.102,41.3605 43.102,45.2789 43.9728,45.7143 47.8912,46.1497 47.8912,40.9252 43.5374,39.619" stroke="#00b0ff" stroke-width="2" /><polyline fill="none" points="42.6667,43.102 8.7075,55.7279" stroke="#29ffcd" stroke-width="2" /><polyline fill="none" points="43.5374,45.2789 29.1701,60.517 15.2381,71.8367 14.8027,72.2721 16.1088,72.2721" stroke="#7cff79" stroke-width="2" /><polyline fill="none" points="40.0544,52.2449 35.2653,57.034 31.7823,74.449" stroke="#cdff29" stroke-width="2" /><polyline fill="none" points="60.0816,43.102 95.7823,44.4082 89.2517,46.585" stroke="#ffc400" stroke-width="2" /><polyline fill="none" points="68.3537,48.3265 84.4626,49.6327 107.5374,54.4218 119.2925,54.8571" stroke="#ff6700" stroke-width="2" /><polyline fill="none" points="57.9048,50.5034 70.966,54.8571 98.3946,60.517 111.8912,65.3061" stroke="#f10700" stroke-width="2" /><polyline fill="none" points="37.4422,29.1701 37.8776,32.6531 39.619,35.7007 43.9728,36.5714 43.9728,35.2653 39.619,26.1224 34.8299,27.4286" stroke="#7f0000" stroke-width="2" /></svg>