<?xml version="1.0" encoding="utf-8" ?>
<svg baseProfile="tiny" height="128" version="1.2" viewBox="0,0,128,128" width="128" xmlns="http://www.w3.org/2000/svg" xmlns:ev="http://www.w3.org/2001/xml-events" xmlns:xlink="http://www.w3.org/1999/xlink"><defs /><polyline fill="none" points="99.2653,20.898 95.3469,18.2857 86.2041,19.5918 80.5442,25.2517 79.2381,31.3469 80.1088,36.5714 84.4626,40.0544 90.9932,41.3605 98.3946,40.4898 101.8776,36.5714 102.7483,29.6054 100.1361,23.9456 96.6531,22.2041" stroke="#00007f" stroke-width="2" /><polyline fill="none" points="79.6735,17.8503 79.6735,15.2381 82.2857,13.0612 91.8639,8.7075 91.4286,18.7211 93.6054,19.5918" stroke="#0000de" stroke-width="2" /><polyline fill="none" points="103.619,20.0272 102.3129,17.8503 106.2313,15.6735 119.2925,14.8027 117.9864,17.8503 106.6667,29.6054" stroke="#0028ff" stroke-width="2" /><polyline fill="none" points="77.932,30.9116 67.9184,29.1701 57.4694,29.1701 50.9388,30.9116 46.1497,33.9592 44.8435,36.5714 45.2789,41.7959 47.8912,44.8435 55.2925,48.3265 70.0952,48.7619 74.8844,47.4558 86.6395,41.3605 90.5578,38.7483 89.6871,37.4422" stroke="#0080ff" stroke-width="2" /><polyline fill="none" points="58.7755,51.8095 56.5986,53.9864 52.6803,67.483 52.2449,76.6259" stroke="#00d4ff" stroke-width="2" /><polyline fill="none" points="82.7211,48.7619 82.2857,53.551 83.5918,57.4694 90.9932,69.2245" stroke="#36ffc0" stroke-width="2" /><polyline fill="none" points="88.381,40.4898 105.3605,53.551" stroke="#7cff79" stroke-width="2" /><polyline fill="none" points="48.3265,37.0068 43.5374,35.7007 35.7007,43.5374 33.0884,51.8095 35.2653,62.2585 14.3673,62.6939 10.449,64.4354" stroke="#c0ff36" stroke-width="2" /><polyline fill="none" points="16.5442,60.517 12.1905,60.517 10.449,66.1769 12.6259,70.966 17.415,72.2721 17.415,65.7415 13.4966,61.8231 10.0136,61.3878 8.7075,62.2585 8.7075,68.3537" stroke="#ffe500" stroke-width="2" /><polyline fill="none" points="85.7687,26.9932 85.7687,26.9932" stroke="#ff9400" stroke-width="2" /><polyline fill="none" points="97.5238,33.5238 97.5238,33.5238" stroke="#ff4600" stroke-width="2" /><polyline fill="none" points="89.2517,28.7347 89.2517,28.7347" stroke="#de0000" stroke-width="2" /><polyline fill="none" points="94.9116,31.7823 92.2993,30.9116" stroke="#7f0000" stroke-width="2" /></svg>