<?xml version="1.0" encoding="utf-8" ?>
<svg baseProfile="tiny" height="128" version="1.2" viewBox="0,0,128,128" width="128" xmlns="http://www.w3.org/2000/svg" xmlns:ev="http://www.w3.org/2001/xml-events" xmlns:xlink="http://www.w3.org/1999/xlink"><defs /><polyline fill="none" points="32.5424,33.4102 32.1085,16.4881 34.7119,23.4305 42.9559,31.2407 43.8237,29.939 50.7661,29.5051 56.8407,26.9017 57.7085,23.4305 65.9525,12.5831 72.0271,8.678 73.3288,32.9763 80.2712,35.5797 87.2136,41.6542 89.8169,46.4271 91.5525,52.5017 90.6847,62.4814 88.9492,65.0847 81.5729,70.2915 68.122,72.8949 54.2373,73.3288 38.1831,69.8576 29.0712,55.539 26.9017,42.9559 26.9017,40.3525 31.6746,33.8441 35.1458,30.3729 34.278,32.9763" stroke="#00007f" stroke-width="2" /><polyline fill="none" points="42.9559,46.861 36.8814,46.4271 36.4475,48.5966 41.6542,49.8983 44.6915,52.9356 50.3322,51.6339 51.2,48.5966 50.3322,47.2949 43.3898,46.4271" stroke="#0000fe" stroke-width="2" /><polyline fill="none" points="66.8203,44.2576 61.1797,44.2576 58.1424,49.8983 59.0102,51.6339" stroke="#0060ff" stroke-width="2" /><polyline fill="none" points="59.0102,51.6339 63.7831,52.5017 72.0271,46.4271 72.8949,45.5593 71.1593,43.3898 66.3864,42.522" stroke="#00d4ff" stroke-width="2" /><polyline fill="none" points="66.3864,42.522 66.3864,42.522" stroke="#4cffaa" stroke-width="2" /><polyline fill="none" points="52.0678,63.7831 55.9729,62.9153 56.4068,58.1424 56.8407,63.7831 64.2169,65.0847" stroke="#aaff4c" stroke-width="2" /><polyline fill="none" points="55.9729,61.1797 52.9356,63.3492 50.3322,63.7831" stroke="#ffe500" stroke-width="2" /><polyline fill="none" points="77.2339,55.9729 84.1763,51.2 113.2475,38.1831" stroke="#ff7a00" stroke-width="2" /><polyline fill="none" points="85.478,58.5763 109.7763,54.6712 119.322,51.2" stroke="#fe1200" stroke-width="2" /><polyline fill="none" points="42.0881,57.2746 17.7898,64.6508 13.0169,67.2542 8.678,71.1593" stroke="#7f0000" stroke-width="2" /></svg>