<?xml version="1.0" encoding="utf-8" ?>
<svg baseProfile="tiny" height="128" version="1.2" viewBox="0,0,128,128" width="128" xmlns="http://www.w3.org/2000/svg" xmlns:ev="http://www.w3.org/2001/xml-events" xmlns:xlink="http://www.w3.org/1999/xlink"><defs /><polyline fill="none" points="28.6373,19.5254 22.1288,17.3559 14.7525,21.6949 9.1119,29.939 8.678,35.1458 10.4136,37.7492 17.3559,41.2203 26.4678,42.0881 34.278,37.3153 35.5797,32.5424 34.278,23.4305 31.2407,19.0915 25.6,16.0542" stroke="#00007f" stroke-width="2" /><polyline fill="none" points="10.8475,22.9966 13.4508,9.5458 18.2237,19.0915" stroke="#0000b6" stroke-width="2" /><polyline fill="none" points="24.2983,15.6203 28.6373,16.4881 38.1831,8.678 37.3153,24.7322" stroke="#0000f1" stroke-width="2" /><polyline fill="none" points="37.3153,24.7322 48.1627,24.7322 88.5153,30.3729 95.0237,33.8441 98.9288,38.1831" stroke="#0018ff" stroke-width="2" /><polyline fill="none" points="33.4102,39.9186 36.4475,42.9559 42.0881,44.6915 50.3322,43.3898 83.7424,43.8237 99.3627,37.3153 99.3627,35.5797" stroke="#004cff" stroke-width="2" /><polyline fill="none" points="48.1627,27.3356 48.1627,36.4475" stroke="#0080ff" stroke-width="2" /><polyline fill="none" points="52.0678,26.9017 54.2373,32.1085" stroke="#00b0ff" stroke-width="2" /><polyline fill="none" points="59.878,28.6373 64.2169,37.3153" stroke="#00e4f7" stroke-width="2" /><polyline fill="none" points="71.1593,28.2034 72.0271,32.1085" stroke="#29ffcd" stroke-width="2" /><polyline fill="none" points="75.9322,29.0712 78.9695,35.5797" stroke="#53ffa3" stroke-width="2" /><polyline fill="none" points="81.5729,33.8441 85.0441,39.0508" stroke="#7cff79" stroke-width="2" /><polyline fill="none" points="97.6271,36.0136 101.9661,37.3153 109.3424,22.9966 119.322,29.0712" stroke="#a3ff53" stroke-width="2" /><polyline fill="none" points="82.8746,42.522 84.1763,49.0305" stroke="#cdff29" stroke-width="2" /><polyline fill="none" points="72.8949,40.7864 73.7627,47.7288" stroke="#f7f400" stroke-width="2" /><polyline fill="none" points="65.5186,42.9559 63.7831,49.4644" stroke="#ffc400" stroke-width="2" /><polyline fill="none" points="52.9356,43.3898 49.8983,50.7661" stroke="#ff9400" stroke-width="2" /><polyline fill="none" points="18.6576,22.1288 16.4881,22.9966 18.2237,23.4305" stroke="#ff6700" stroke-width="2" /><polyline fill="none" points="29.5051,24.7322 30.3729,25.6 28.6373,25.1661" stroke="#ff3700" stroke-width="2" /><polyline fill="none" points="22.5627,28.2034 18.2237,31.2407 25.6,33.8441 22.5627,26.4678" stroke="#f10700" stroke-width="2" /><polyline fill="none" points="21.261,33.8441 19.0915,38.6169 16.0542,39.9186 13.4508,37.7492 11.2814,32.5424" stroke="#b60000" stroke-width="2" /><polyline fill="none" points="19.9593,32.1085 21.6949,35.1458" stroke="#7f0000" stroke-width="2" /></svg>