<?xml version="1.0" encoding="utf-8" ?>
<svg baseProfile="tiny" height="128" version="1.2" viewBox="0,0,128,128" width="128" xmlns="http://www.w3.org/2000/svg" xmlns:ev="http://www.w3.org/2001/xml-events" xmlns:xlink="http://www.w3.org/1999/xlink"><defs /><polyline fill="none" points="73.5782,32.2177 65.7415,29.1701 56.5986,27.4286 43.102,28.2993 28.7347,33.0884 18.2857,40.9252 13.932,46.1497 10.8844,51.8095 8.7075,66.1769 11.7551,79.6735 18.7211,93.6054 25.2517,97.5238 37.0068,98.8299 46.585,98.3946 58.7755,95.3469 69.2245,90.5578 79.2381,83.5918 87.5102,73.5782 97.5238,55.7279 98.8299,44.8435 97.0884,40.4898 86.6395,30.9116 78.8027,26.9932 78.3673,24.8163" stroke="#00007f" stroke-width="2" /><polyline fill="none" points="75.3197,33.0884 77.0612,29.6054 84.0272,24.8163 102.3129,14.3673 119.2925,8.7075 118.8571,14.8027 112.7619,24.8163 100.1361,37.8776 92.7347,43.102" stroke="#004cff" stroke-width="2" /><polyline fill="none" points="40.9252,25.6871 35.2653,23.9456 18.2857,12.6259 13.4966,11.7551 13.0612,16.1088 14.8027,22.2041 23.0748,38.7483" stroke="#29ffcd" stroke-width="2" /><polyline fill="none" points="64.8707,48.3265 84.4626,50.068" stroke="#cdff29" stroke-width="2" /><polyline fill="none" points="44.8435,47.0204 27.4286,45.2789" stroke="#ff6700" stroke-width="2" /><polyline fill="none" points="32.2177,69.2245 32.2177,70.966 34.8299,74.0136 40.0544,77.4966 47.0204,80.1088 53.551,81.415 61.8231,78.8027 67.0476,72.2721 67.483,68.3537 67.0476,64.8707 62.6939,60.517 52.6803,57.034 49.6327,57.034 45.2789,58.3401 40.9252,63.1293" stroke="#7f0000" stroke-width="2" /></svg>