<?xml version="1.0" encoding="utf-8" ?>
<svg baseProfile="tiny" height="128" version="1.2" viewBox="0,0,128,128" width="128" xmlns="http://www.w3.org/2000/svg" xmlns:ev="http://www.w3.org/2001/xml-events" xmlns:xlink="http://www.w3.org/1999/xlink"><defs /><polyline fill="none" points="83.3085,36.4475 99.3627,34.7119 105.8712,35.5797 112.8136,39.9186 115.4169,43.8237 118.0203,48.1627 119.322,55.1051 119.322,57.7085 117.1525,60.3119 109.7763,63.3492 99.7966,64.2169 89.3831,60.7458 82.8746,55.1051 80.2712,48.5966 80.2712,37.3153 83.3085,29.5051" stroke="#00007f" stroke-width="2" /><polyline fill="none" points="81.139,33.4102 82.0068,28.6373 80.2712,8.678 90.6847,32.5424 94.5898,35.5797 96.7593,33.8441 102.8339,14.3186 108.0407,9.1119 108.9085,22.1288 107.1729,42.9559 106.3051,42.9559" stroke="#0000c8" stroke-width="2" /><polyline fill="none" points="86.3458,47.7288 89.3831,47.2949 88.5153,44.6915 89.3831,47.7288" stroke="#0000ff" stroke-width="2" /><polyline fill="none" points="102.4,48.5966 101.5322,48.1627 103.2678,47.2949" stroke="#0040ff" stroke-width="2" /><polyline fill="none" points="97.6271,56.4068 97.6271,56.4068" stroke="#0080ff" stroke-width="2" /><polyline fill="none" points="95.4576,54.6712 94.1559,58.1424" stroke="#00c0ff" stroke-width="2" /><polyline fill="none" points="95.0237,55.539 91.5525,56.4068" stroke="#15ffe1" stroke-width="2" /><polyline fill="none" points="95.0237,58.5763 91.5525,59.878" stroke="#49ffad" stroke-width="2" /><polyline fill="none" points="96.3254,55.9729 99.3627,55.1051" stroke="#7cff79" stroke-width="2" /><polyline fill="none" points="97.1932,56.4068 100.6644,58.1424" stroke="#b0ff46" stroke-width="2" /><polyline fill="none" points="94.1559,68.5559 94.1559,68.5559" stroke="#e4ff12" stroke-width="2" /><polyline fill="none" points="94.1559,68.5559 94.1559,66.3864 93.2881,70.7254 85.0441,75.4983 55.9729,75.9322 47.2949,77.6678 39.4847,83.7424 37.7492,88.0814 38.6169,88.9492 45.1254,91.9864 56.4068,94.1559 92.8542,93.2881 108.0407,88.9492 111.9458,84.6102 112.8136,80.7051 112.3797,78.1017 107.6068,70.7254 98.4949,64.6508 85.9119,62.0475" stroke="#ffcf00" stroke-width="2" /><polyline fill="none" points="39.4847,88.9492 35.5797,86.7797 25.1661,84.1763 24.2983,86.3458 24.2983,98.4949 21.6949,101.0983 18.2237,101.0983 8.678,95.8915" stroke="#ff9400" stroke-width="2" /><polyline fill="none" points="44.6915,95.8915 46.4271,98.061 46.4271,107.1729" stroke="#ff5900" stroke-width="2" /><polyline fill="none" points="56.8407,95.4576 59.0102,95.0237 59.878,97.1932 60.7458,112.8136" stroke="#ff1d00" stroke-width="2" /><polyline fill="none" points="78.5356,92.8542 79.8373,94.1559 79.8373,113.2475" stroke="#c30000" stroke-width="2" /><polyline fill="none" points="93.2881,89.8169 98.061,90.6847 101.0983,96.7593 102.8339,110.6441 99.7966,112.8136" stroke="#7f0000" stroke-width="2" /></svg>