<?xml version="1.0" encoding="utf-8" ?>
<svg baseProfile="tiny" height="128" version="1.2" viewBox="0,0,128,128" width="128" xmlns="http://www.w3.org/2000/svg" xmlns:ev="http://www.w3.org/2001/xml-events" xmlns:xlink="http://www.w3.org/1999/xlink"><defs /><polyline fill="none" points="62.9153,29.0712 56.4068,38.6169 54.6712,45.5593 54.6712,52.5017 57.2746,59.0102 67.2542,65.0847 82.0068,70.7254 90.2508,68.9898 95.8915,64.6508 102.8339,57.2746 105.8712,41.6542 101.9661,32.1085 98.061,28.6373 92.8542,8.678 87.2136,14.3186 82.4407,23.4305 77.6678,28.2034 72.8949,26.4678 68.5559,13.8847 65.5186,11.2814 60.3119,31.2407" stroke="#00007f" stroke-width="2" /><polyline fill="none" points="72.8949,46.4271 17.3559,58.1424 8.678,61.6136 18.6576,59.878" stroke="#004cff" stroke-width="2" /><polyline fill="none" points="72.461,51.2 47.2949,63.3492 45.1254,65.9525 44.6915,68.5559" stroke="#29ffcd" stroke-width="2" /><polyline fill="none" points="88.0814,44.2576 119.322,42.9559" stroke="#cdff29" stroke-width="2" /><polyline fill="none" points="91.9864,55.1051 102.4,57.7085 117.1525,58.1424" stroke="#ff6700" stroke-width="2" /><polyline fill="none" points="82.0068,39.9186 83.3085,45.1254 86.7797,45.9932 91.5525,40.3525 85.9119,38.1831" stroke="#7f0000" stroke-width="2" /></svg>