<?xml version="1.0" encoding="utf-8" ?>
<svg baseProfile="tiny" height="128" version="1.2" viewBox="0,0,128,128" width="128" xmlns="http://www.w3.org/2000/svg" xmlns:ev="http://www.w3.org/2001/xml-events" xmlns:xlink="http://www.w3.org/1999/xlink"><defs /><polyline fill="none" points="66.8203,55.9729 88.9492,37.3153 96.7593,27.3356 107.1729,8.678 104.5695,16.922 98.061,53.3695 93.2881,63.7831" stroke="#00007f" stroke-width="2" /><polyline fill="none" points="47.7288,53.8034 38.6169,33.8441 25.6,14.3186 23.4305,17.3559 23.8644,21.6949 28.2034,39.0508 34.278,55.1051 32.9763,60.3119" stroke="#0000fe" stroke-width="2" /><polyline fill="none" points="35.1458,59.878 30.3729,61.1797 24.7322,68.9898 24.2983,75.9322 27.7695,87.2136 33.8441,95.4576 47.7288,107.6068 59.4441,114.1153 73.7627,119.322 80.2712,119.322 87.2136,116.2847 91.5525,114.1153 97.1932,105.8712 104.1356,87.2136 103.2678,80.7051 99.7966,71.1593" stroke="#0060ff" stroke-width="2" /><polyline fill="none" points="66.3864,55.539 57.7085,55.1051 52.0678,57.2746" stroke="#00d4ff" stroke-width="2" /><polyline fill="none" points="48.5966,72.8949 48.1627,72.8949" stroke="#4cffaa" stroke-width="2" /><polyline fill="none" points="79.8373,71.1593 79.4034,71.1593" stroke="#aaff4c" stroke-width="2" /><polyline fill="none" points="61.1797,90.6847 63.7831,96.7593 72.0271,102.4" stroke="#ffe500" stroke-width="2" /><polyline fill="none" points="58.1424,85.478 59.878,94.5898 55.9729,102.8339 53.8034,104.5695" stroke="#ff7a00" stroke-width="2" /><polyline fill="none" points="59.0102,87.6475 25.6,84.1763 17.3559,85.9119 8.678,91.9864" stroke="#fe1200" stroke-width="2" /><polyline fill="none" points="56.4068,85.9119 67.2542,83.7424 93.2881,83.3085 100.2305,84.1763 110.6441,88.5153" stroke="#7f0000" stroke-width="2" /></svg>