<?xml version="1.0" encoding="utf-8" ?>
<svg baseProfile="tiny" height="128" version="1.2" viewBox="0,0,128,128" width="128" xmlns="http://www.w3.org/2000/svg" xmlns:ev="http://www.w3.org/2001/xml-events" xmlns:xlink="http://www.w3.org/1999/xlink"><defs /><polyline fill="none" points="69.8576,22.9966 65.5186,23.4305 61.1797,25.6 44.2576,38.1831 39.9186,44.6915 38.6169,48.1627 39.0508,52.5017 47.7288,60.3119 54.6712,62.9153 64.6508,65.5186 74.6305,65.5186 79.8373,63.3492 82.4407,55.9729 81.5729,38.6169 77.6678,26.0339 68.5559,20.3932" stroke="#00007f" stroke-width="2" /><polyline fill="none" points="54.2373,62.4814 43.8237,62.0475 33.4102,65.0847 21.261,71.1593 11.2814,80.2712 8.678,86.7797 10.4136,92.4203 15.6203,97.6271 28.6373,108.4746 43.3898,114.1153 55.1051,115.4169 61.1797,114.9831 68.5559,112.3797 78.1017,107.6068 83.3085,102.8339 87.2136,91.9864 88.5153,74.1966 84.6102,65.9525 77.2339,62.4814" stroke="#0000d1" stroke-width="2" /><polyline fill="none" points="82.4407,103.2678 87.2136,108.0407 93.722,108.9085 103.2678,103.2678 115.8508,77.2339 118.8881,65.9525 119.322,59.0102 115.4169,59.878 109.3424,64.6508 102.4,78.9695 96.3254,86.7797 90.6847,91.5525 81.139,96.7593" stroke="#0010ff" stroke-width="2" /><polyline fill="none" points="75.9322,27.7695 76.8,13.0169 75.9322,10.8475 73.7627,10.4136 69.8576,19.5254" stroke="#0058ff" stroke-width="2" /><polyline fill="none" points="61.1797,23.8644 52.5017,8.678 52.0678,27.3356" stroke="#00a4ff" stroke-width="2" /><polyline fill="none" points="63.7831,34.7119 64.6508,37.3153" stroke="#05ecf1" stroke-width="2" /><polyline fill="none" points="71.5932,36.0136 71.5932,39.0508" stroke="#3fffb7" stroke-width="2" /><polyline fill="none" points="69.8576,47.7288 98.4949,45.9932" stroke="#7cff79" stroke-width="2" /><polyline fill="none" points="75.9322,49.0305 93.722,55.9729" stroke="#b7ff3f" stroke-width="2" /><polyline fill="none" points="69.8576,51.6339 89.3831,60.7458 90.6847,62.0475 85.478,60.7458" stroke="#f1fc05" stroke-width="2" /><polyline fill="none" points="55.1051,45.9932 32.5424,22.5627" stroke="#ffb900" stroke-width="2" /><polyline fill="none" points="53.3695,46.861 29.0712,48.5966 43.8237,48.5966" stroke="#ff7300" stroke-width="2" /><polyline fill="none" points="54.2373,47.2949 48.5966,48.1627 26.0339,58.1424 28.2034,58.1424" stroke="#ff3000" stroke-width="2" /><polyline fill="none" points="63.7831,41.6542 63.7831,45.5593" stroke="#d10000" stroke-width="2" /><polyline fill="none" points="55.9729,52.9356 65.0847,53.8034" stroke="#7f0000" stroke-width="2" /></svg>