<?xml version="1.0" encoding="utf-8" ?>
<svg baseProfile="tiny" height="128" version="1.2" viewBox="0,0,128,128" width="128" xmlns="http://www.w3.org/2000/svg" xmlns:ev="http://www.w3.org/2001/xml-events" xmlns:xlink="http://www.w3.org/1999/xlink"><defs /><polyline fill="none" points="64.2169,53.3695 63.7831,50.7661 53.3695,46.861 28.2034,45.5593 20.3932,46.861 17.3559,48.1627 10.8475,56.4068 8.678,68.5559 8.678,85.0441 13.0169,95.8915 19.9593,106.739 30.3729,117.5864 34.278,119.322 39.4847,119.322 44.2576,116.7186 74.6305,90.2508 78.9695,81.5729 78.5356,64.2169 69.8576,51.6339 62.9153,45.9932 48.5966,45.5593" stroke="#00007f" stroke-width="2" /><polyline fill="none" points="8.678,45.9932 11.7153,44.2576 15.6203,38.1831 17.7898,23.8644 18.2237,9.1119 20.8271,8.678 29.0712,24.2983 36.8814,46.861" stroke="#004cff" stroke-width="2" /><polyline fill="none" points="49.0305,41.6542 72.0271,11.7153 73.3288,32.5424 75.4983,42.9559 70.7254,46.861" stroke="#29ffcd" stroke-width="2" /><polyline fill="none" points="33.8441,64.6508 29.5051,64.2169" stroke="#cdff29" stroke-width="2" /><polyline fill="none" points="47.7288,66.3864 56.4068,66.3864" stroke="#ff6700" stroke-width="2" /><polyline fill="none" points="38.6169,82.8746 36.0136,85.0441 36.0136,87.6475 42.0881,88.5153" stroke="#7f0000" stroke-width="2" /></svg>