<?xml version="1.0" encoding="utf-8" ?>
<svg baseProfile="tiny" height="128" version="1.2" viewBox="0,0,128,128" width="128" xmlns="http://www.w3.org/2000/svg" xmlns:ev="http://www.w3.org/2001/xml-events" xmlns:xlink="http://www.w3.org/1999/xlink"><defs /><polyline fill="none" points="59.0102,60.3119 57.2746,71.1593 55.539,72.8949 51.6339,65.9525 51.2,55.9729 45.9932,57.7085 44.2576,72.461 40.3525,73.3288 37.3153,71.5932 36.4475,67.2542 37.3153,55.9729 34.7119,54.6712 29.939,54.6712 26.9017,61.1797 27.7695,71.5932 25.6,73.3288 22.5627,72.8949 20.3932,68.9898 20.8271,57.2746 12.1492,55.1051 8.678,49.8983 9.1119,45.1254 11.2814,40.7864 16.0542,36.8814 34.278,33.8441 42.9559,33.8441 68.9898,38.1831 78.1017,25.1661 79.8373,23.8644 84.1763,23.8644 92.4203,28.2034 97.6271,33.8441 102.4,42.0881 101.9661,48.1627 98.9288,52.0678 92.8542,55.1051 78.1017,54.6712 72.0271,50.7661 64.2169,57.2746 62.4814,61.1797" stroke="#00007f" stroke-width="2" /><polyline fill="none" points="80.7051,22.9966 79.8373,16.0542 82.8746,8.678 84.6102,11.7153 84.6102,21.6949" stroke="#0000f1" stroke-width="2" /><polyline fill="none" points="84.6102,21.6949 89.8169,9.9797 91.1186,11.2814 91.1186,24.2983" stroke="#004cff" stroke-width="2" /><polyline fill="none" points="86.3458,32.1085 85.9119,33.4102 87.6475,33.8441 87.6475,30.8068" stroke="#00b0ff" stroke-width="2" /><polyline fill="none" points="95.8915,41.2203 91.5525,42.522 88.5153,47.2949" stroke="#29ffcd" stroke-width="2" /><polyline fill="none" points="95.8915,41.2203 91.9864,47.2949" stroke="#7cff79" stroke-width="2" /><polyline fill="none" points="96.3254,41.2203 94.5898,49.4644" stroke="#cdff29" stroke-width="2" /><polyline fill="none" points="97.1932,39.9186 107.6068,40.3525 119.322,44.2576" stroke="#ffc400" stroke-width="2" /><polyline fill="none" points="96.7593,42.0881 105.4373,42.522 108.0407,44.2576" stroke="#ff6700" stroke-width="2" /><polyline fill="none" points="95.8915,43.3898 107.1729,48.5966" stroke="#f10700" stroke-width="2" /><polyline fill="none" points="98.4949,45.9932 98.4949,45.9932" stroke="#7f0000" stroke-width="2" /></svg>