<?xml version="1.0" encoding="utf-8" ?>
<svg baseProfile="tiny" height="128" version="1.2" viewBox="0,0,128,128" width="128" xmlns="http://www.w3.org/2000/svg" xmlns:ev="http://www.w3.org/2001/xml-events" xmlns:xlink="http://www.w3.org/1999/xlink"><defs /><polyline fill="none" points="18.6576,45.9932 13.8847,49.8983 11.2814,54.6712 8.678,63.7831 8.678,73.3288 9.5458,78.1017 14.7525,86.3458 25.6,93.2881 39.9186,96.3254 92.8542,95.4576 98.061,92.4203 102.4,87.2136 105.0034,78.1017 105.0034,66.8203 102.4,61.6136 94.1559,53.8034 88.9492,50.7661 65.9525,41.6542 39.0508,36.4475 26.4678,37.7492 22.1288,45.5593 21.261,51.6339" stroke="#00007f" stroke-width="2" /><polyline fill="none" points="13.0169,40.7864 10.4136,22.9966 10.4136,8.678 14.7525,11.2814 26.4678,24.7322 38.1831,35.5797" stroke="#0000fe" stroke-width="2" /><polyline fill="none" points="87.2136,47.7288 107.1729,27.3356 109.3424,32.5424 108.4746,36.4475 101.5322,55.9729" stroke="#0060ff" stroke-width="2" /><polyline fill="none" points="39.9186,55.9729 39.9186,55.9729" stroke="#00d4ff" stroke-width="2" /><polyline fill="none" points="62.0475,58.5763 62.0475,60.3119" stroke="#4cffaa" stroke-width="2" /><polyline fill="none" points="39.9186,53.3695 39.9186,53.3695" stroke="#aaff4c" stroke-width="2" /><polyline fill="none" points="39.9186,54.2373 39.9186,58.5763 44.2576,60.3119 46.861,55.1051" stroke="#ffe500" stroke-width="2" /><polyline fill="none" points="62.0475,71.1593 74.6305,72.8949 110.2102,72.8949" stroke="#ff7a00" stroke-width="2" /><polyline fill="none" points="63.7831,74.6305 65.0847,79.4034 71.1593,84.6102 81.139,88.9492 89.8169,95.0237" stroke="#fe1200" stroke-width="2" /><polyline fill="none" points="63.7831,76.3661 76.8,81.139 94.1559,90.6847 119.322,95.0237" stroke="#7f0000" stroke-width="2" /></svg>