<?xml version="1.0" encoding="utf-8" ?>
<svg baseProfile="tiny" height="128" version="1.2" viewBox="0,0,128,128" width="128" xmlns="http://www.w3.org/2000/svg" xmlns:ev="http://www.w3.org/2001/xml-events" xmlns:xlink="http://www.w3.org/1999/xlink"><defs /><polyline fill="none" points="48.1627,16.922 44.6915,16.4881 31.2407,8.678 25.1661,23.4305 26.4678,32.5424" stroke="#00007f" stroke-width="2" /><polyline fill="none" points="50.3322,15.1864 59.0102,13.4508 66.3864,16.4881 72.0271,14.3186 82.4407,19.0915 100.2305,10.8475 102.8339,16.4881 103.2678,24.7322 95.0237,36.4475" stroke="#0000ba" stroke-width="2" /><polyline fill="none" points="32.5424,12.5831 37.3153,14.7525 42.0881,22.9966" stroke="#0000f5" stroke-width="2" /><polyline fill="none" points="104.1356,14.7525 92.8542,16.922 85.9119,21.6949" stroke="#0020ff" stroke-width="2" /><polyline fill="none" points="26.9017,33.4102 28.2034,40.3525 25.6,52.0678 32.1085,54.2373 34.278,59.4441 37.3153,61.1797 58.5763,66.3864" stroke="#0054ff" stroke-width="2" /><polyline fill="none" points="97.1932,36.8814 95.8915,45.1254 98.9288,56.8407 95.8915,56.8407 90.6847,63.7831" stroke="#008cff" stroke-width="2" /><polyline fill="none" points="56.8407,37.7492 55.539,35.1458 50.7661,32.5424 43.3898,32.1085 38.1831,33.8441 37.7492,39.0508 41.2203,41.2203 47.2949,42.522 53.8034,41.2203" stroke="#00c0ff" stroke-width="2" /><polyline fill="none" points="77.6678,38.1831 79.8373,36.0136 87.6475,34.7119 91.1186,36.0136 92.8542,39.0508 83.3085,41.6542 77.6678,41.2203" stroke="#0ff8e7" stroke-width="2" /><polyline fill="none" points="59.878,46.4271 70.2915,46.861 70.7254,49.0305 68.5559,51.2 62.9153,47.2949" stroke="#39ffbd" stroke-width="2" /><polyline fill="none" points="69.4237,49.0305 68.122,49.0305" stroke="#66ff90" stroke-width="2" /><polyline fill="none" points="68.5559,52.0678 62.9153,55.9729 53.3695,57.7085 49.4644,55.539 48.1627,52.0678" stroke="#90ff66" stroke-width="2" /><polyline fill="none" points="71.5932,54.2373 71.5932,56.8407 73.7627,59.4441 77.2339,60.3119 80.7051,59.4441" stroke="#bdff39" stroke-width="2" /><polyline fill="none" points="87.2136,53.8034 87.2136,53.3695" stroke="#e7ff0f" stroke-width="2" /><polyline fill="none" points="88.5153,48.1627 119.322,34.278" stroke="#ffd300" stroke-width="2" /><polyline fill="none" points="84.6102,50.3322 114.9831,43.3898" stroke="#ffa300" stroke-width="2" /><polyline fill="none" points="84.1763,52.5017 114.9831,49.4644" stroke="#ff6f00" stroke-width="2" /><polyline fill="none" points="49.0305,49.0305 41.6542,44.6915 13.0169,40.7864" stroke="#ff3f00" stroke-width="2" /><polyline fill="none" points="42.9559,52.0678 25.6,52.9356 11.7153,51.2" stroke="#f50b00" stroke-width="2" /><polyline fill="none" points="48.1627,54.2373 8.678,68.122" stroke="#ba0000" stroke-width="2" /><polyline fill="none" points="43.8237,33.8441 42.0881,38.1831 44.6915,40.3525 49.8983,37.7492 50.3322,35.1458 50.3322,38.6169 46.861,41.6542" stroke="#7f0000" stroke-width="2" /></svg>