<?xml version="1.0" encoding="utf-8" ?>
<svg baseProfile="tiny" height="128" version="1.2" viewBox="0,0,128,128" width="128" xmlns="http://www.w3.org/2000/svg" xmlns:ev="http://www.w3.org/2001/xml-events" xmlns:xlink="http://www.w3.org/1999/xlink"><defs /><polyline fill="none" points="99.7007,31.7823 88.8163,42.2313 85.7687,47.4558 85.3333,53.1156 89.2517,58.3401 92.7347,59.2109 104.4898,57.9048 109.7143,52.2449 110.585,48.3265 111.0204,37.4422 109.2789,27.4286 106.6667,26.5578 102.7483,29.1701 100.5714,29.6054 93.6054,25.6871 87.9456,20.0272 90.9932,32.2177 94.0408,35.7007" stroke="#00007f" stroke-width="2" /><polyline fill="none" points="111.8912,27.8639 116.2449,19.5918 118.4218,19.5918 119.2925,23.0748 117.9864,26.9932 111.8912,34.3946 111.8912,37.8776" stroke="#0010ff" stroke-width="2" /><polyline fill="none" points="101.0068,43.102 99.2653,45.7143 100.1361,47.4558 102.7483,44.4082" stroke="#00a4ff" stroke-width="2" /><polyline fill="none" points="100.5714,49.6327 94.0408,55.2925" stroke="#3fffb7" stroke-width="2" /><polyline fill="none" points="102.7483,50.5034 108.8435,55.2925" stroke="#b7ff3f" stroke-width="2" /><polyline fill="none" points="105.3605,37.4422 104.9252,36.1361" stroke="#ffb900" stroke-width="2" /><polyline fill="none" points="98.3946,36.1361 98.8299,35.7007" stroke="#ff3000" stroke-width="2" /><polyline fill="none" points="87.0748,46.585 49.6327,61.3878 40.0544,60.9524 28.7347,57.034 21.3333,52.2449 18.2857,45.2789 17.8503,30.9116 19.5918,26.1224 25.2517,23.9456 37.0068,26.9932 38.3129,29.1701 36.5714,32.2177 28.2993,37.0068 35.2653,36.5714 38.3129,35.7007 41.7959,30.9116 43.9728,18.7211 40.4898,13.4966 35.2653,10.0136 26.5578,8.7075 21.7687,10.8844 13.4966,19.1565 8.7075,27.8639 8.7075,45.7143 10.8844,53.9864 17.415,60.9524 33.9592,69.6599 34.3946,77.4966 29.1701,94.4762 46.585,90.5578 44.4082,70.5306" stroke="#7f0000" stroke-width="2" /></svg>