<?xml version="1.0" encoding="utf-8" ?>
<svg baseProfile="tiny" height="128" version="1.2" viewBox="0,0,128,128" width="128" xmlns="http://www.w3.org/2000/svg" xmlns:ev="http://www.w3.org/2001/xml-events" xmlns:xlink="http://www.w3.org/1999/xlink"><defs /><polyline fill="none" points="46.4271,18.2237 41.6542,23.4305 40.3525,29.939 43.3898,36.4475 48.1627,40.7864 54.6712,44.2576 61.6136,45.5593 72.461,45.5593 81.5729,41.6542 85.0441,37.3153 86.7797,32.1085 85.0441,22.9966 81.139,19.9593 84.6102,10.8475 74.6305,17.3559 55.9729,16.922 52.0678,12.5831 45.1254,8.678 44.6915,11.2814 47.7288,17.7898" stroke="#00007f" stroke-width="2" /><polyline fill="none" points="44.6915,27.7695 26.4678,21.6949 15.1864,21.6949 8.678,23.4305" stroke="#0028ff" stroke-width="2" /><polyline fill="none" points="45.1254,30.3729 18.6576,37.3153 14.3186,41.2203" stroke="#00d4ff" stroke-width="2" /><polyline fill="none" points="47.2949,33.8441 26.4678,41.6542 20.3932,47.2949" stroke="#7cff79" stroke-width="2" /><polyline fill="none" points="83.3085,30.8068 97.6271,26.9017 117.1525,26.4678" stroke="#ffe500" stroke-width="2" /><polyline fill="none" points="84.1763,35.5797 97.1932,33.4102 119.322,33.4102" stroke="#ff4600" stroke-width="2" /><polyline fill="none" points="79.8373,38.6169 107.6068,45.9932" stroke="#7f0000" stroke-width="2" /></svg>