<?xml version="1.0" encoding="utf-8" ?>
<svg baseProfile="tiny" height="128" version="1.2" viewBox="0,0,128,128" width="128" xmlns="http://www.w3.org/2000/svg" xmlns:ev="http://www.w3.org/2001/xml-events" xmlns:xlink="http://www.w3.org/1999/xlink"><defs /><polyline fill="none" points="73.7103,36.1931 64.0,32.2207 50.3172,29.5724 45.9034,30.0138 33.9862,37.9586 21.1862,44.1379 13.2414,52.0828 12.3586,57.8207 18.9793,78.1241 25.6,92.2483 50.3172,113.8759 59.1448,117.8483 67.0897,118.731 94.8966,117.8483 110.7862,106.3724 117.8483,91.8069 118.731,79.0069 112.9931,63.5586 109.4621,57.8207 81.2138,33.5448 73.269,29.131" stroke="#00007f" stroke-width="2" /><polyline fill="none" points="90.4828,38.8414 109.0207,17.6552 105.0483,50.3172" stroke="#0000fe" stroke-width="2" /><polyline fill="none" points="38.4,28.2483 17.2138,8.8276 18.9793,27.8069 18.5379,40.6069" stroke="#0060ff" stroke-width="2" /><polyline fill="none" points="59.5862,71.0621 74.1517,68.4138 70.6207,83.4207 69.7379,85.1862 65.7655,78.1241 60.9103,67.0897" stroke="#00d4ff" stroke-width="2" /><polyline fill="none" points="82.5379,74.1517 119.1724,60.9103" stroke="#4cffaa" stroke-width="2" /><polyline fill="none" points="90.0414,80.331 96.2207,80.7724 112.1103,87.3931 117.8483,88.2759" stroke="#aaff4c" stroke-width="2" /><polyline fill="none" points="96.2207,87.8345 103.2828,101.5172 109.4621,108.5793 106.3724,103.7241" stroke="#ffe500" stroke-width="2" /><polyline fill="none" points="45.0207,71.9448 8.8276,62.6759" stroke="#ff7a00" stroke-width="2" /><polyline fill="none" points="40.6069,78.1241 35.7517,81.6552 11.9172,90.0414 9.269,92.6897" stroke="#fe1200" stroke-width="2" /><polyline fill="none" points="39.7241,81.6552 36.6345,96.2207 30.8966,105.0483" stroke="#7f0000" stroke-width="2" /></svg>