<?xml version="1.0" encoding="utf-8" ?>
<svg baseProfile="tiny" height="128" version="1.2" viewBox="0,0,128,128" width="128" xmlns="http://www.w3.org/2000/svg" xmlns:ev="http://www.w3.org/2001/xml-events" xmlns:xlink="http://www.w3.org/1999/xlink"><defs /><polyline fill="none" points="50.068,47.4558 31.7823,48.7619 18.7211,53.551 10.8844,61.3878 8.7075,69.6599 8.7075,83.5918 19.1565,102.3129 28.2993,108.4082 42.6667,108.4082 60.0816,103.1837 68.3537,97.5238 77.0612,86.6395 79.6735,76.6259 79.6735,68.3537 72.2721,53.551 64.0,47.0204 41.7959,45.2789 39.1837,46.1497 36.1361,48.7619" stroke="#00007f" stroke-width="2" /><polyline fill="none" points="13.4966,55.7279 13.4966,26.1224 16.9796,18.2857 20.0272,14.8027 33.0884,47.0204" stroke="#004cff" stroke-width="2" /><polyline fill="none" points="56.1633,45.7143 53.1156,44.8435 53.9864,39.619 61.8231,26.1224 66.1769,10.0136 68.7891,8.7075 71.4014,14.3673 73.1429,36.1361 73.1429,47.4558 69.2245,62.6939" stroke="#29ffcd" stroke-width="2" /><polyline fill="none" points="35.2653,67.0476 26.9932,66.1769 24.8163,70.5306 25.2517,77.0612 27.4286,76.1905 27.8639,68.3537" stroke="#cdff29" stroke-width="2" /><polyline fill="none" points="61.8231,61.8231 52.2449,63.1293 53.1156,69.2245 55.7279,70.0952 57.034,66.1769" stroke="#ff6700" stroke-width="2" /><polyline fill="none" points="53.9864,87.5102 90.1224,73.5782 119.2925,66.1769" stroke="#7f0000" stroke-width="2" /></svg>