<?xml version="1.0" encoding="utf-8" ?>
<svg baseProfile="tiny" height="128" version="1.2" viewBox="0,0,128,128" width="128" xmlns="http://www.w3.org/2000/svg" xmlns:ev="http://www.w3.org/2001/xml-events" xmlns:xlink="http://www.w3.org/1999/xlink"><defs /><polyline fill="none" points="39.9186,16.4881 33.4102,19.9593 26.9017,26.0339 19.5254,37.3153 18.2237,49.4644 19.9593,57.2746 28.6373,68.5559 36.0136,73.3288 53.8034,78.9695 66.8203,78.9695 75.9322,73.7627 87.2136,61.1797 87.6475,52.5017 82.4407,39.9186 72.8949,26.0339 67.2542,20.8271 60.3119,16.922 51.6339,15.6203 40.7864,22.1288 34.278,17.7898" stroke="#00007f" stroke-width="2" /><polyline fill="none" points="26.9017,26.0339 17.3559,11.7153 17.3559,8.678 36.4475,18.2237" stroke="#0000d5" stroke-width="2" /><polyline fill="none" points="65.9525,15.6203 79.8373,9.1119 82.4407,8.678 84.6102,11.7153 80.7051,19.9593 73.7627,30.3729" stroke="#001cff" stroke-width="2" /><polyline fill="none" points="38.1831,37.3153 38.1831,37.3153" stroke="#006cff" stroke-width="2" /><polyline fill="none" points="42.9559,40.7864 42.522,40.7864" stroke="#00b8ff" stroke-width="2" /><polyline fill="none" points="58.1424,41.2203 59.0102,41.2203" stroke="#1cffda" stroke-width="2" /><polyline fill="none" points="51.6339,58.1424 52.0678,56.4068" stroke="#5cff9a" stroke-width="2" /><polyline fill="none" points="47.2949,65.0847 58.1424,65.5186 62.9153,62.4814" stroke="#9aff5c" stroke-width="2" /><polyline fill="none" points="39.0508,56.8407 29.939,52.0678 8.678,45.5593" stroke="#daff1c" stroke-width="2" /><polyline fill="none" points="35.5797,60.3119 35.1458,62.9153 21.261,68.9898" stroke="#ffcb00" stroke-width="2" /><polyline fill="none" points="42.522,65.9525 39.0508,66.8203 29.939,80.2712" stroke="#ff8500" stroke-width="2" /><polyline fill="none" points="80.2712,48.5966 88.0814,45.5593 117.1525,26.9017" stroke="#ff3b00" stroke-width="2" /><polyline fill="none" points="80.2712,56.4068 82.8746,58.5763 119.322,65.9525" stroke="#d50000" stroke-width="2" /><polyline fill="none" points="77.2339,65.5186 88.9492,72.8949" stroke="#7f0000" stroke-width="2" /></svg>