<?xml version="1.0" encoding="utf-8" ?>
<svg baseProfile="tiny" height="128" version="1.2" viewBox="0,0,128,128" width="128" xmlns="http://www.w3.org/2000/svg" xmlns:ev="http://www.w3.org/2001/xml-events" xmlns:xlink="http://www.w3.org/1999/xlink"><defs /><polyline fill="none" points="72.8949,33.4102 63.7831,31.6746 52.0678,31.6746 45.9932,33.4102 32.5424,41.6542 20.8271,54.6712 13.0169,69.4237 8.678,84.6102 9.1119,98.4949 10.8475,105.0034 17.7898,114.1153 27.7695,118.8881 39.9186,119.322 46.4271,118.0203 62.4814,108.9085 71.5932,99.3627 75.4983,92.8542 79.8373,80.2712 81.5729,60.7458 78.9695,44.2576 75.4983,36.8814 70.7254,31.6746" stroke="#00007f" stroke-width="2" /><polyline fill="none" points="26.4678,50.7661 24.2983,35.5797 26.0339,9.5458 28.2034,8.678 29.5051,10.4136 36.8814,31.2407 41.6542,36.4475" stroke="#0000d5" stroke-width="2" /><polyline fill="none" points="67.6881,35.1458 90.6847,20.8271 101.0983,16.4881 106.739,16.0542 106.739,17.7898 86.3458,39.0508 79.8373,48.1627" stroke="#001cff" stroke-width="2" /><polyline fill="none" points="42.9559,81.5729 43.3898,76.3661 40.7864,75.9322 39.0508,79.8373 42.0881,79.8373 44.6915,75.9322 41.6542,77.6678" stroke="#006cff" stroke-width="2" /><polyline fill="none" points="42.522,77.2339 51.6339,78.5356 55.9729,76.3661 64.6508,69.8576 70.7254,62.0475" stroke="#00b8ff" stroke-width="2" /><polyline fill="none" points="47.7288,78.1017 55.1051,82.0068 61.6136,82.4407 69.8576,78.5356 77.2339,72.8949" stroke="#1cffda" stroke-width="2" /><polyline fill="none" points="37.3153,81.139 52.0678,86.3458 60.3119,87.6475 65.9525,85.478 70.7254,79.4034" stroke="#5cff9a" stroke-width="2" /><polyline fill="none" points="39.4847,81.5729 19.5254,79.8373 16.922,76.8 16.922,72.461" stroke="#9aff5c" stroke-width="2" /><polyline fill="none" points="42.0881,80.7051 25.6,88.5153 13.4508,89.3831" stroke="#daff1c" stroke-width="2" /><polyline fill="none" points="42.0881,81.5729 26.9017,94.1559 17.7898,95.8915" stroke="#ffcb00" stroke-width="2" /><polyline fill="none" points="43.3898,79.8373 42.9559,83.3085 45.9932,92.8542 50.7661,95.0237 57.2746,95.4576" stroke="#ff8500" stroke-width="2" /><polyline fill="none" points="39.4847,82.8746 39.4847,94.1559 35.5797,101.0983 32.5424,102.8339" stroke="#ff3b00" stroke-width="2" /><polyline fill="none" points="43.8237,50.3322 42.9559,62.4814" stroke="#d50000" stroke-width="2" /><polyline fill="none" points="55.539,49.8983 54.6712,59.878" stroke="#7f0000" stroke-width="2" /></svg>