<?xml version="1.0" encoding="utf-8" ?>
<svg baseProfile="tiny" height="128" version="1.2" viewBox="0,0,128,128" width="128" xmlns="http://www.w3.org/2000/svg" xmlns:ev="http://www.w3.org/2001/xml-events" xmlns:xlink="http://www.w3.org/1999/xlink"><defs /><polyline fill="none" points="36.8814,119.322 18.2237,106.3051 12.5831,96.3254 9.5458,85.478 9.5458,66.3864 24.7322,49.4644 32.5424,43.8237 48.1627,38.1831 78.5356,38.1831 87.2136,41.6542 100.2305,52.0678 105.0034,63.7831 105.8712,78.5356 102.4,92.8542 100.2305,97.6271 93.722,105.4373 84.1763,109.7763 64.2169,110.6441 35.1458,109.7763" stroke="#00007f" stroke-width="2" /><polyline fill="none" points="78.5356,31.2407 88.5153,25.6 105.0034,8.678 108.0407,18.2237 108.9085,41.6542 114.5492,47.2949" stroke="#7cff79" stroke-width="2" /><polyline fill="none" points="8.678,51.2 12.5831,36.0136 14.7525,9.5458 19.9593,11.7153 40.7864,47.2949 48.5966,55.9729" stroke="#7f0000" stroke-width="2" /></svg>