<?xml version="1.0" encoding="utf-8" ?>
<svg baseProfile="tiny" height="128" version="1.2" viewBox="0,0,128,128" width="128" xmlns="http://www.w3.org/2000/svg" xmlns:ev="http://www.w3.org/2001/xml-events" xmlns:xlink="http://www.w3.org/1999/xlink"><defs /><polyline fill="none" points="55.539,13.4508 65.5186,13.8847 88.9492,18.6576 97.6271,12.1492 97.6271,23.4305 95.8915,32.5424 108.9085,49.8983 111.5119,61.1797 108.9085,65.9525 104.1356,69.8576 92.8542,73.3288 81.139,73.3288 52.0678,66.8203 43.8237,63.3492 36.0136,56.8407 32.1085,49.4644 32.1085,42.0881 37.3153,33.8441 53.8034,19.9593 51.6339,8.678 59.0102,14.7525" stroke="#00007f" stroke-width="2" /><polyline fill="none" points="57.2746,29.0712 56.4068,32.9763" stroke="#0010ff" stroke-width="2" /><polyline fill="none" points="82.4407,34.7119 81.139,40.7864" stroke="#00a4ff" stroke-width="2" /><polyline fill="none" points="52.0678,45.9932 53.3695,52.0678 55.9729,52.5017 60.3119,50.3322 62.9153,53.3695 65.5186,53.8034 67.6881,52.5017 68.9898,49.8983" stroke="#3fffb7" stroke-width="2" /><polyline fill="none" points="95.4576,57.7085 105.8712,64.6508 111.9458,73.3288" stroke="#b7ff3f" stroke-width="2" /><polyline fill="none" points="96.3254,53.8034 108.9085,53.8034 119.322,58.5763" stroke="#ffb900" stroke-width="2" /><polyline fill="none" points="36.0136,50.3322 32.9763,50.3322 21.261,54.6712 8.678,62.0475" stroke="#ff3000" stroke-width="2" /><polyline fill="none" points="39.0508,41.2203 9.1119,40.7864" stroke="#7f0000" stroke-width="2" /></svg>