<?xml version="1.0" encoding="utf-8" ?>
<svg baseProfile="tiny" height="128" version="1.2" viewBox="0,0,128,128" width="128" xmlns="http://www.w3.org/2000/svg" xmlns:ev="http://www.w3.org/2001/xml-events" xmlns:xlink="http://www.w3.org/1999/xlink"><defs /><polyline fill="none" points="66.8203,37.7492 59.878,33.8441 46.861,35.5797 33.8441,45.9932 28.6373,56.8407 27.3356,75.9322 30.3729,89.3831 37.3153,102.8339 47.2949,111.9458 55.1051,115.4169 63.7831,116.2847 81.139,110.6441 95.0237,98.9288 102.4,85.478 105.0034,77.2339 105.0034,70.7254 101.9661,57.2746 97.1932,48.5966 89.8169,39.9186 77.6678,32.1085 54.6712,29.0712" stroke="#00007f" stroke-width="2" /><polyline fill="none" points="68.9898,35.5797 74.1966,29.0712 88.0814,16.4881 98.061,9.5458 103.7017,8.678 106.3051,12.1492 106.3051,24.2983 102.8339,41.2203 99.7966,47.2949" stroke="#0000f1" stroke-width="2" /><polyline fill="none" points="51.6339,33.4102 40.3525,27.3356 27.7695,22.5627 21.261,21.261 9.9797,22.1288 8.678,24.2983 10.8475,30.8068 28.6373,53.3695" stroke="#004cff" stroke-width="2" /><polyline fill="none" points="53.8034,56.4068 56.8407,71.5932 58.5763,71.1593 58.1424,59.878 55.539,56.4068 53.3695,55.9729 52.5017,57.2746" stroke="#00b0ff" stroke-width="2" /><polyline fill="none" points="70.7254,54.2373 69.8576,59.0102 70.7254,70.2915 72.461,68.5559 72.8949,59.4441 70.7254,53.3695 68.5559,52.5017" stroke="#29ffcd" stroke-width="2" /><polyline fill="none" points="85.9119,70.7254 106.3051,60.7458 119.322,52.9356" stroke="#7cff79" stroke-width="2" /><polyline fill="none" points="81.139,81.139 90.2508,81.139 114.9831,73.3288" stroke="#cdff29" stroke-width="2" /><polyline fill="none" points="87.2136,88.5153 118.0203,98.4949" stroke="#ffc400" stroke-width="2" /><polyline fill="none" points="47.2949,75.4983 19.5254,83.7424" stroke="#ff6700" stroke-width="2" /><polyline fill="none" points="53.3695,85.478 27.3356,101.5322" stroke="#f10700" stroke-width="2" /><polyline fill="none" points="57.7085,94.5898 26.4678,114.1153" stroke="#7f0000" stroke-width="2" /></svg>