<?xml version="1.0" encoding="utf-8" ?>
<svg baseProfile="tiny" height="128" version="1.2" viewBox="0,0,128,128" width="128" xmlns="http://www.w3.org/2000/svg" xmlns:ev="http://www.w3.org/2001/xml-events" xmlns:xlink="http://www.w3.org/1999/xlink"><defs /><polyline fill="none" points="81.5729,13.0169 75.9322,16.4881 70.7254,17.3559 41.6542,35.1458 19.5254,59.878 12.1492,75.9322 10.8475,85.0441 12.1492,98.061 16.4881,105.0034 22.9966,111.5119 40.7864,118.0203 52.0678,119.322 63.7831,118.0203 79.8373,109.3424 90.2508,91.9864 91.5525,69.8576 89.3831,60.7458 85.0441,54.2373 78.1017,49.4644 29.5051,26.4678" stroke="#00007f" stroke-width="2" /><polyline fill="none" points="10.8475,67.2542 13.0169,39.0508 8.678,19.0915 8.678,13.0169 15.6203,9.9797 20.8271,9.9797 28.2034,13.0169 42.9559,28.6373" stroke="#0000f1" stroke-width="2" /><polyline fill="none" points="58.5763,32.9763 65.0847,28.2034 73.7627,16.4881 86.3458,8.678 87.2136,25.1661 85.0441,30.8068 82.8746,45.1254" stroke="#004cff" stroke-width="2" /><polyline fill="none" points="55.1051,82.8746 54.2373,89.3831 55.1051,92.8542" stroke="#00b0ff" stroke-width="2" /><polyline fill="none" points="54.2373,80.7051 48.1627,91.5525 42.9559,93.722 40.7864,92.8542" stroke="#29ffcd" stroke-width="2" /><polyline fill="none" points="50.7661,81.5729 54.2373,73.7627" stroke="#7cff79" stroke-width="2" /><polyline fill="none" points="67.2542,79.4034 76.3661,76.3661" stroke="#cdff29" stroke-width="2" /><polyline fill="none" points="72.8949,80.7051 76.3661,83.7424" stroke="#ffc400" stroke-width="2" /><polyline fill="none" points="73.7627,85.9119 80.7051,93.722" stroke="#ff6700" stroke-width="2" /><polyline fill="none" points="34.278,91.5525 28.6373,90.6847" stroke="#f10700" stroke-width="2" /><polyline fill="none" points="27.3356,93.722 27.3356,99.3627" stroke="#7f0000" stroke-width="2" /></svg>