<?xml version="1.0" encoding="utf-8" ?>
<svg baseProfile="tiny" height="128" version="1.2" viewBox="0,0,128,128" width="128" xmlns="http://www.w3.org/2000/svg" xmlns:ev="http://www.w3.org/2001/xml-events" xmlns:xlink="http://www.w3.org/1999/xlink"><defs /><polyline fill="none" points="19.0915,39.9186 17.7898,41.6542 15.6203,53.8034 16.4881,60.7458 23.8644,69.4237 28.6373,71.5932 34.278,71.5932 39.4847,68.5559 46.861,58.5763 48.1627,47.7288 45.9932,43.3898 42.0881,39.9186 36.8814,38.1831 26.9017,37.7492" stroke="#00007f" stroke-width="2" /><polyline fill="none" points="12.5831,47.2949 8.678,28.2034 10.8475,29.0712 21.6949,42.522" stroke="#0080ff" stroke-width="2" /><polyline fill="none" points="37.7492,41.6542 49.0305,22.5627 46.861,45.9932" stroke="#7cff79" stroke-width="2" /><polyline fill="none" points="24.2983,66.8203 26.0339,74.1966 33.8441,88.5153 37.3153,104.5695 40.7864,112.3797 49.0305,117.1525 71.1593,119.322 78.9695,112.8136 81.5729,102.8339 80.7051,92.8542 65.5186,82.4407 40.3525,72.0271 34.7119,66.3864" stroke="#ff9400" stroke-width="2" /><polyline fill="none" points="82.8746,100.2305 94.5898,94.1559 101.0983,85.0441 102.8339,79.8373 102.8339,73.7627 100.6644,67.2542 81.5729,43.3898 79.8373,36.8814 79.4034,29.0712 81.139,21.6949 85.0441,15.1864 92.8542,8.678" stroke="#7f0000" stroke-width="2" /></svg>