<?xml version="1.0" encoding="utf-8" ?>
<svg baseProfile="tiny" height="128" version="1.2" viewBox="0,0,128,128" width="128" xmlns="http://www.w3.org/2000/svg" xmlns:ev="http://www.w3.org/2001/xml-events" xmlns:xlink="http://www.w3.org/1999/xlink"><defs /><polyline fill="none" points="37.4422,49.6327 53.551,46.1497 59.6463,46.1497 66.1769,43.9728 89.2517,43.9728 98.3946,47.4558" stroke="#00007f" stroke-width="2" /><polyline fill="none" points="90.9932,42.2313 94.9116,40.0544 100.5714,33.9592 119.2925,21.3333 119.2925,30.4762 117.551,33.5238 114.9388,49.1973 104.4898,75.3197 101.8776,77.932" stroke="#0010ff" stroke-width="2" /><polyline fill="none" points="46.1497,43.102 46.1497,36.5714 43.9728,33.5238 41.7959,24.381 33.0884,15.2381 20.4626,8.7075 16.1088,14.3673 15.2381,23.5102 8.7075,43.9728 9.1429,56.1633 13.0612,66.1769 17.415,71.8367 18.2857,74.8844 35.2653,94.9116 41.7959,99.2653 51.8095,103.619 66.6122,103.619 72.7075,104.9252 79.2381,107.9728 93.1701,107.9728 95.7823,105.7959 99.2653,93.6054 105.7959,81.8503 105.7959,75.7551" stroke="#00a4ff" stroke-width="2" /><polyline fill="none" points="62.2585,75.7551 64.0,81.415 67.0476,82.2857 73.1429,79.6735 74.8844,76.1905 61.8231,73.1429" stroke="#3fffb7" stroke-width="2" /><polyline fill="none" points="64.0,84.0272 64.0,87.0748 60.9524,90.1224 55.2925,90.5578 51.3741,82.7211" stroke="#b7ff3f" stroke-width="2" /><polyline fill="none" points="64.4354,82.7211 66.1769,88.8163 70.966,92.7347 74.8844,92.7347 77.0612,89.2517 77.932,84.0272" stroke="#ffb900" stroke-width="2" /><polyline fill="none" points="46.1497,60.517 44.4082,64.0 49.6327,64.0 51.3741,60.517" stroke="#ff3000" stroke-width="2" /><polyline fill="none" points="74.8844,61.8231 68.3537,60.9524 70.5306,64.0 74.8844,66.6122 77.0612,64.0 71.8367,60.517" stroke="#7f0000" stroke-width="2" /></svg>