<?xml version="1.0" encoding="utf-8" ?>
<svg baseProfile="tiny" height="128" version="1.2" viewBox="0,0,128,128" width="128" xmlns="http://www.w3.org/2000/svg" xmlns:ev="http://www.w3.org/2001/xml-events" xmlns:xlink="http://www.w3.org/1999/xlink"><defs /><polyline fill="none" points="63.3492,63.3492 50.7661,60.7458 51.2,71.1593 54.2373,73.3288 64.2169,74.6305 66.3864,69.4237" stroke="#00007f" stroke-width="2" /><polyline fill="none" points="58.1424,75.0644 55.539,80.7051 55.1051,85.9119 58.1424,95.0237 65.5186,98.9288 74.1966,100.6644" stroke="#0000cc" stroke-width="2" /><polyline fill="none" points="54.6712,78.9695 48.5966,98.4949 45.1254,100.6644 41.6542,100.6644 32.5424,97.1932" stroke="#0008ff" stroke-width="2" /><polyline fill="none" points="52.9356,31.2407 47.7288,29.5051 43.3898,32.5424 45.1254,39.9186 51.2,43.8237 52.0678,36.8814 49.0305,33.4102" stroke="#004cff" stroke-width="2" /><polyline fill="none" points="72.461,34.278 68.5559,30.8068 64.6508,30.3729 63.3492,30.8068 62.0475,35.1458 67.2542,42.0881 73.7627,45.5593 75.4983,44.6915 75.4983,39.9186 67.2542,34.278" stroke="#0090ff" stroke-width="2" /><polyline fill="none" points="67.2542,39.0508 65.0847,38.1831" stroke="#00d4ff" stroke-width="2" /><polyline fill="none" points="47.7288,38.6169 46.861,39.9186" stroke="#29ffcd" stroke-width="2" /><polyline fill="none" points="46.4271,19.0915 35.1458,8.678 36.0136,22.1288" stroke="#5fff96" stroke-width="2" /><polyline fill="none" points="62.9153,26.0339 66.3864,19.5254 75.0644,13.0169 76.8,16.4881 77.2339,25.1661" stroke="#96ff5f" stroke-width="2" /><polyline fill="none" points="44.2576,65.5186 26.0339,51.6339 11.7153,45.1254" stroke="#cdff29" stroke-width="2" /><polyline fill="none" points="39.0508,67.6881 8.678,71.1593" stroke="#ffe500" stroke-width="2" /><polyline fill="none" points="44.6915,75.0644 34.7119,75.4983 17.3559,80.2712" stroke="#ffa600" stroke-width="2" /><polyline fill="none" points="75.4983,69.4237 79.8373,67.2542 84.1763,66.8203 100.6644,68.122 114.1153,74.1966 119.322,78.1017" stroke="#ff6700" stroke-width="2" /><polyline fill="none" points="75.0644,73.7627 83.3085,75.4983 102.4,88.9492" stroke="#ff2800" stroke-width="2" /><polyline fill="none" points="66.3864,73.7627 83.3085,86.7797 107.1729,111.078" stroke="#cc0000" stroke-width="2" /><polyline fill="none" points="32.1085,27.7695 29.5051,35.1458 28.6373,53.3695" stroke="#7f0000" stroke-width="2" /></svg>