<?xml version="1.0" encoding="utf-8" ?>
<svg baseProfile="tiny" height="128" version="1.2" viewBox="0,0,128,128" width="128" xmlns="http://www.w3.org/2000/svg" xmlns:ev="http://www.w3.org/2001/xml-events" xmlns:xlink="http://www.w3.org/1999/xlink"><defs /><polyline fill="none" points="30.3729,28.6373 32.1085,8.678 45.1254,23.8644 71.1593,21.6949 94.1559,29.5051 99.3627,33.4102 107.1729,23.4305 119.322,16.0542 108.0407,38.6169 105.4373,46.4271 106.3051,62.4814 109.7763,76.3661 107.6068,89.8169 103.7017,98.9288 99.7966,102.8339 84.1763,108.9085 71.1593,109.3424 59.0102,105.8712 38.6169,91.5525 18.6576,82.0068 12.1492,75.4983 9.5458,70.2915 8.678,61.6136 10.4136,49.8983 13.4508,41.2203 19.9593,31.6746 30.3729,28.6373" stroke="#00007f" stroke-width="2" /><polyline fill="none" points="56.4068,64.2169 69.8576,66.3864 62.9153,74.6305 61.1797,72.8949 57.7085,62.9153" stroke="#0010ff" stroke-width="2" /><polyline fill="none" points="45.1254,64.2169 32.1085,56.4068" stroke="#00a4ff" stroke-width="2" /><polyline fill="none" points="42.0881,68.122 29.939,71.5932" stroke="#3fffb7" stroke-width="2" /><polyline fill="none" points="42.0881,75.9322 36.8814,82.0068" stroke="#b7ff3f" stroke-width="2" /><polyline fill="none" points="83.3085,68.5559 102.4,63.7831 111.078,64.2169" stroke="#ffb900" stroke-width="2" /><polyline fill="none" points="89.8169,75.9322 97.6271,80.7051 109.3424,91.5525" stroke="#ff3000" stroke-width="2" /><polyline fill="none" points="88.9492,85.478 98.4949,114.5492" stroke="#7f0000" stroke-width="2" /></svg>