<?xml version="1.0" encoding="utf-8" ?>
<svg baseProfile="tiny" height="128" version="1.2" viewBox="0,0,128,128" width="128" xmlns="http://www.w3.org/2000/svg" xmlns:ev="http://www.w3.org/2001/xml-events" xmlns:xlink="http://www.w3.org/1999/xlink"><defs /><polyline fill="none" points="26.0339,38.1831 26.9017,18.6576 30.8068,9.1119 33.8441,8.678 40.7864,17.7898 45.9932,30.3729 50.3322,26.0339 58.5763,23.8644 72.0271,23.8644 81.139,26.9017 86.7797,17.7898 95.0237,9.1119 98.061,27.7695 101.0983,37.7492 100.2305,49.0305 93.722,65.0847 85.478,75.4983 77.6678,80.7051 67.2542,83.7424 60.3119,83.7424 44.2576,78.9695 40.3525,75.4983 32.1085,61.1797 28.2034,39.4847" stroke="#00007f" stroke-width="2" /><polyline fill="none" points="45.9932,54.2373 24.2983,53.8034 8.678,59.4441" stroke="#0080ff" stroke-width="2" /><polyline fill="none" points="51.2,65.9525 25.1661,68.9898 21.6949,70.2915 13.4508,77.2339" stroke="#7cff79" stroke-width="2" /><polyline fill="none" points="77.2339,46.4271 108.0407,51.2 114.5492,54.2373 119.322,59.0102" stroke="#ff9400" stroke-width="2" /><polyline fill="none" points="70.7254,60.7458 88.0814,60.7458" stroke="#7f0000" stroke-width="2" /></svg>