<?xml version="1.0" encoding="utf-8" ?>
<svg baseProfile="tiny" height="128" version="1.2" viewBox="0,0,128,128" width="128" xmlns="http://www.w3.org/2000/svg" xmlns:ev="http://www.w3.org/2001/xml-events" xmlns:xlink="http://www.w3.org/1999/xlink"><defs /><polyline fill="none" points="9.5782,21.3333 16.5442,8.7075 18.2857,21.3333 20.0272,24.381 34.8299,20.4626 39.619,20.4626 46.1497,23.5102 48.3265,17.415 52.2449,12.6259 54.8571,26.9932 52.6803,40.9252 50.5034,45.7143 45.7143,51.8095 37.4422,57.034 26.9932,55.7279 20.898,52.2449 15.6735,47.4558 12.1905,37.8776 11.3197,22.2041 12.1905,20.898" stroke="#00007f" stroke-width="2" /><polyline fill="none" points="55.7279,44.4082 69.2245,37.8776 76.1905,36.1361 90.1224,33.9592 101.4422,34.3946 107.9728,36.5714 113.6327,41.3605 114.9388,47.8912 112.3265,53.1156 95.7823,64.8707 83.1565,67.9184 65.7415,67.9184 53.1156,65.3061 47.0204,61.8231 42.6667,57.4694" stroke="#0000cc" stroke-width="2" /><polyline fill="none" points="107.102,36.1361 111.8912,28.2993 115.8095,24.8163 119.2925,23.9456 112.7619,39.1837" stroke="#0008ff" stroke-width="2" /><polyline fill="none" points="54.4218,69.6599 52.6803,70.5306 49.6327,84.4626 46.1497,85.3333 43.9728,88.381 43.5374,92.2993 47.8912,93.1701 52.6803,89.2517 60.0816,74.8844 65.3061,68.3537" stroke="#004cff" stroke-width="2" /><polyline fill="none" points="95.3469,62.6939 94.4762,77.0612 91.8639,85.7687 91.4286,82.7211 90.1224,86.2041 91.8639,88.8163 96.6531,87.5102 99.2653,83.5918 102.3129,64.8707" stroke="#0090ff" stroke-width="2" /><polyline fill="none" points="29.6054,38.3129 32.2177,43.102 33.5238,38.3129 27.4286,37.8776" stroke="#00d4ff" stroke-width="2" /><polyline fill="none" points="34.8299,43.9728 29.6054,48.3265 25.6871,49.6327 22.6395,49.6327 22.6395,46.1497 23.9456,43.9728" stroke="#29ffcd" stroke-width="2" /><polyline fill="none" points="33.0884,46.585 34.3946,48.3265 42.6667,49.1973 48.7619,43.5374" stroke="#5fff96" stroke-width="2" /><polyline fill="none" points="45.7143,38.3129 62.6939,37.0068" stroke="#96ff5f" stroke-width="2" /><polyline fill="none" points="44.8435,43.102 57.4694,46.585" stroke="#cdff29" stroke-width="2" /><polyline fill="none" points="47.0204,39.619 54.4218,49.6327" stroke="#ffe500" stroke-width="2" /><polyline fill="none" points="20.0272,33.0884 14.3673,33.5238" stroke="#ffa600" stroke-width="2" /><polyline fill="none" points="23.0748,37.4422 8.7075,40.0544" stroke="#ff6700" stroke-width="2" /><polyline fill="none" points="20.4626,41.7959 8.7075,45.2789" stroke="#ff2800" stroke-width="2" /><polyline fill="none" points="27.8639,26.9932 28.2993,28.2993 29.6054,27.8639 29.6054,24.8163 29.1701,26.9932" stroke="#cc0000" stroke-width="2" /><polyline fill="none" points="43.9728,25.2517 43.5374,28.2993" stroke="#7f0000" stroke-width="2" /></svg>