<?xml version="1.0" encoding="utf-8" ?>
<svg baseProfile="tiny" height="128" version="1.2" viewBox="0,0,128,128" width="128" xmlns="http://www.w3.org/2000/svg" xmlns:ev="http://www.w3.org/2001/xml-events" xmlns:xlink="http://www.w3.org/1999/xlink"><defs /><polyline fill="none" points="31.2407,11.2814 34.278,33.8441 39.4847,49.4644 49.8983,57.2746 59.878,58.1424 68.122,55.1051 75.0644,50.7661 86.3458,28.6373 90.2508,8.678" stroke="#00007f" stroke-width="2" /><polyline fill="none" points="75.9322,27.7695 85.478,23.8644 98.061,21.261 119.322,20.3932" stroke="#0010ff" stroke-width="2" /><polyline fill="none" points="72.0271,34.7119 107.6068,32.9763 111.5119,34.278" stroke="#00a4ff" stroke-width="2" /><polyline fill="none" points="72.0271,41.6542 108.0407,44.6915" stroke="#3fffb7" stroke-width="2" /><polyline fill="none" points="48.1627,28.6373 10.4136,20.8271" stroke="#b7ff3f" stroke-width="2" /><polyline fill="none" points="45.5593,35.1458 11.2814,34.7119" stroke="#ffb900" stroke-width="2" /><polyline fill="none" points="44.2576,41.2203 8.678,55.9729" stroke="#ff3000" stroke-width="2" /><polyline fill="none" points="52.5017,45.5593 62.4814,44.6915 64.2169,42.522 56.8407,42.0881 52.9356,43.3898 52.0678,44.6915" stroke="#7f0000" stroke-width="2" /></svg>