<?xml version="1.0" encoding="utf-8" ?>
<svg baseProfile="tiny" height="128" version="1.2" viewBox="0,0,128,128" width="128" xmlns="http://www.w3.org/2000/svg" xmlns:ev="http://www.w3.org/2001/xml-events" xmlns:xlink="http://www.w3.org/1999/xlink"><defs /><polyline fill="none" points="67.299,45.7457 47.945,34.7491 43.1065,33.8694 33.4296,36.5086 27.2715,40.9072 20.6735,47.5052 19.354,53.6632 19.7938,63.3402 25.0722,73.457 44.4261,98.5292 61.5808,111.2852 73.457,113.0447 88.8522,111.2852 94.5704,105.1271 97.2096,98.0893 69.9381,64.6598 62.0206,50.1443 43.1065,28.5911" stroke="#00007f" stroke-width="2" /><polyline fill="none" points="27.2715,44.866 27.2715,31.6701 21.9931,8.7973 29.0309,14.5155 39.1478,27.2715" stroke="#0000e8" stroke-width="2" /><polyline fill="none" points="47.945,33.4296 54.1031,11.4364 54.9828,34.7491 60.2612,45.3058" stroke="#0038ff" stroke-width="2" /><polyline fill="none" points="34.7491,59.3814 38.268,67.7388 39.5876,66.8591" stroke="#0094ff" stroke-width="2" /><polyline fill="none" points="45.7457,53.6632 53.2234,65.0997" stroke="#0cf4ea" stroke-width="2" /><polyline fill="none" points="47.0653,83.5739 23.7526,92.3711 8.7973,99.8488 28.5911,98.0893 30.7904,96.7698" stroke="#56ffa0" stroke-width="2" /><polyline fill="none" points="45.3058,87.0928 47.5052,103.3677 46.6254,119.2027" stroke="#a0ff56" stroke-width="2" /><polyline fill="none" points="67.7388,73.8969 78.2955,52.7835" stroke="#eaff0c" stroke-width="2" /><polyline fill="none" points="74.3368,77.8557 85.3333,76.9759 87.0928,71.2577 103.3677,70.8179" stroke="#ffaa00" stroke-width="2" /><polyline fill="none" points="55.4227,76.5361 50.1443,76.9759 49.2646,79.6151 49.7045,83.134 53.2234,88.8522 66.4192,89.732 66.8591,82.2543 61.5808,77.8557 60.701,79.6151" stroke="#ff5500" stroke-width="2" /><polyline fill="none" points="63.3402,90.1718 65.5395,95.89 67.299,106.8866 68.1787,106.8866" stroke="#e80000" stroke-width="2" /><polyline fill="none" points="67.7388,90.1718 70.8179,90.6117 81.8144,99.8488" stroke="#7f0000" stroke-width="2" /></svg>