<?xml version="1.0" encoding="utf-8" ?>
<svg baseProfile="tiny" height="128" version="1.2" viewBox="0,0,128,128" width="128" xmlns="http://www.w3.org/2000/svg" xmlns:ev="http://www.w3.org/2001/xml-events" xmlns:xlink="http://www.w3.org/1999/xlink"><defs /><polyline fill="none" points="26.9017,36.4475 28.6373,21.261 30.8068,21.6949 38.1831,26.9017 48.5966,24.2983 71.5932,25.6 78.1017,15.6203 87.2136,8.678 91.5525,16.0542 93.722,26.0339" stroke="#00007f" stroke-width="2" /><polyline fill="none" points="23.8644,35.1458 20.3932,45.1254 19.9593,55.539 21.261,62.0475 26.0339,75.0644 33.8441,83.7424 39.4847,86.7797 47.2949,88.9492 61.1797,88.9492 78.9695,84.1763 87.2136,78.9695 95.4576,72.461 101.0983,65.5186 104.1356,59.0102 106.3051,41.6542 103.2678,28.2034 100.6644,23.8644 95.0237,20.8271" stroke="#0000e8" stroke-width="2" /><polyline fill="none" points="32.9763,49.8983 23.8644,52.5017 8.678,62.0475" stroke="#0038ff" stroke-width="2" /><polyline fill="none" points="36.0136,63.7831 13.4508,76.3661" stroke="#0094ff" stroke-width="2" /><polyline fill="none" points="49.8983,69.8576 39.0508,77.2339 28.2034,88.5153" stroke="#0cf4ea" stroke-width="2" /><polyline fill="none" points="88.9492,49.4644 114.5492,53.3695 119.322,55.1051" stroke="#56ffa0" stroke-width="2" /><polyline fill="none" points="85.9119,60.3119 110.6441,69.8576" stroke="#a0ff56" stroke-width="2" /><polyline fill="none" points="79.4034,70.2915 113.2475,81.139" stroke="#eaff0c" stroke-width="2" /><polyline fill="none" points="43.8237,50.3322 42.0881,49.0305 41.6542,44.2576 42.9559,42.522 45.1254,43.3898 45.9932,45.9932 44.2576,48.5966" stroke="#ffaa00" stroke-width="2" /><polyline fill="none" points="70.7254,45.5593 66.3864,42.9559 65.9525,40.3525 67.2542,38.6169 70.2915,39.0508 72.461,43.8237" stroke="#ff5500" stroke-width="2" /><polyline fill="none" points="59.878,53.8034 61.1797,58.1424" stroke="#e80000" stroke-width="2" /><polyline fill="none" points="56.4068,75.9322 68.5559,72.461" stroke="#7f0000" stroke-width="2" /></svg>