<?xml version="1.0" encoding="utf-8" ?>
<svg baseProfile="tiny" height="128" version="1.2" viewBox="0,0,128,128" width="128" xmlns="http://www.w3.org/2000/svg" xmlns:ev="http://www.w3.org/2001/xml-events" xmlns:xlink="http://www.w3.org/1999/xlink"><defs /><polyline fill="none" points="37.8776,70.966 32.2177,68.3537 22.6395,57.4694 19.5918,50.9388 20.4626,40.9252 26.1224,31.3469 35.7007,26.1224 43.102,25.6871 52.2449,32.2177 56.5986,44.4082 58.7755,56.5986 58.3401,62.6939 45.7143,70.966 43.102,71.4014 39.619,68.7891 34.3946,67.483" stroke="#00007f" stroke-width="2" /><polyline fill="none" points="41.7959,21.7687 48.3265,13.932 61.3878,8.7075 67.9184,8.7075 68.3537,14.8027 60.517,23.9456 55.2925,27.4286 49.1973,27.8639" stroke="#0000cc" stroke-width="2" /><polyline fill="none" points="26.1224,26.9932 25.2517,20.0272 21.7687,13.0612 17.415,10.0136 13.4966,10.0136 9.1429,14.3673 8.7075,21.7687 11.7551,28.2993 15.2381,31.3469" stroke="#0008ff" stroke-width="2" /><polyline fill="none" points="31.7823,40.9252 31.7823,40.9252" stroke="#004cff" stroke-width="2" /><polyline fill="none" points="27.8639,37.4422 31.7823,46.585" stroke="#0090ff" stroke-width="2" /><polyline fill="none" points="43.102,34.8299 47.4558,43.5374" stroke="#00d4ff" stroke-width="2" /><polyline fill="none" points="42.6667,46.585 38.7483,59.6463" stroke="#29ffcd" stroke-width="2" /><polyline fill="none" points="41.7959,46.585 48.7619,55.7279" stroke="#5fff96" stroke-width="2" /><polyline fill="none" points="45.7143,70.0952 39.1837,92.7347" stroke="#96ff5f" stroke-width="2" /><polyline fill="none" points="49.6327,74.449 49.6327,87.5102 68.3537,79.2381 84.898,78.8027 97.5238,83.1565 107.5374,89.6871 108.4082,96.2177 106.6667,102.7483 103.1837,107.9728 94.9116,113.6327 78.3673,117.1156 59.2109,117.9864 51.3741,114.5034 37.4422,103.1837 37.4422,95.3469" stroke="#cdff29" stroke-width="2" /><polyline fill="none" points="57.9048,119.2925 57.9048,119.2925" stroke="#ffe500" stroke-width="2" /><polyline fill="none" points="68.3537,111.4558 68.7891,117.9864" stroke="#ffa600" stroke-width="2" /><polyline fill="none" points="79.2381,114.068 79.6735,118.4218" stroke="#ff6700" stroke-width="2" /><polyline fill="none" points="89.2517,117.9864 89.2517,117.9864" stroke="#ff2800" stroke-width="2" /><polyline fill="none" points="94.4762,114.068 97.5238,118.8571" stroke="#cc0000" stroke-width="2" /><polyline fill="none" points="64.8707,118.4218 64.8707,118.4218" stroke="#7f0000" stroke-width="2" /></svg>