<?xml version="1.0" encoding="utf-8" ?>
<svg baseProfile="tiny" height="128" version="1.2" viewBox="0,0,128,128" width="128" xmlns="http://www.w3.org/2000/svg" xmlns:ev="http://www.w3.org/2001/xml-events" xmlns:xlink="http://www.w3.org/1999/xlink"><defs /><polyline fill="none" points="38.6169,33.4102 37.7492,10.4136 39.4847,8.678 47.7288,24.7322 51.6339,29.5051 54.2373,30.3729" stroke="#00007f" stroke-width="2" /><polyline fill="none" points="88.9492,29.0712 98.4949,8.678 99.7966,12.5831 100.2305,29.5051" stroke="#0000f1" stroke-width="2" /><polyline fill="none" points="44.6915,61.1797 43.8237,57.2746 35.5797,49.8983 26.0339,42.522 8.678,32.5424" stroke="#004cff" stroke-width="2" /><polyline fill="none" points="48.1627,72.8949 17.3559,70.2915" stroke="#00b0ff" stroke-width="2" /><polyline fill="none" points="42.522,78.5356 29.939,86.3458 17.7898,91.5525" stroke="#29ffcd" stroke-width="2" /><polyline fill="none" points="86.3458,52.0678 93.2881,42.0881 102.4,33.8441" stroke="#7cff79" stroke-width="2" /><polyline fill="none" points="91.1186,62.4814 98.9288,61.1797 119.322,62.4814" stroke="#cdff29" stroke-width="2" /><polyline fill="none" points="93.722,70.2915 118.8881,88.0814" stroke="#ffc400" stroke-width="2" /><polyline fill="none" points="65.9525,52.9356 68.122,53.3695 72.0271,57.7085 69.4237,60.7458 65.9525,62.0475 62.4814,60.3119 62.4814,52.9356" stroke="#ff6700" stroke-width="2" /><polyline fill="none" points="44.6915,82.8746 57.2746,86.3458 75.0644,86.7797 94.1559,79.8373 99.3627,72.8949 101.5322,65.0847 101.9661,56.8407 101.0983,47.2949 98.9288,41.2203 95.4576,37.3153" stroke="#f10700" stroke-width="2" /><polyline fill="none" points="38.1831,36.0136 32.1085,48.1627 32.1085,64.6508 33.4102,68.5559 42.9559,82.8746" stroke="#7f0000" stroke-width="2" /></svg>