<?xml version="1.0" encoding="utf-8" ?>
<svg baseProfile="tiny" height="128" version="1.2" viewBox="0,0,128,128" width="128" xmlns="http://www.w3.org/2000/svg" xmlns:ev="http://www.w3.org/2001/xml-events" xmlns:xlink="http://www.w3.org/1999/xlink"><defs /><polyline fill="none" points="59.0102,37.3153 73.7627,34.278 85.9119,36.8814 98.061,45.9932 104.5695,56.4068 106.3051,68.9898 103.2678,80.2712 98.4949,85.0441 91.9864,88.5153 78.5356,91.5525 64.6508,91.5525 52.5017,89.3831 45.5593,86.3458 40.3525,81.139 37.3153,72.8949 37.3153,63.7831 41.2203,49.4644 48.1627,39.9186 53.3695,36.4475 59.878,34.7119 32.1085,15.6203 19.5254,8.678 35.1458,32.5424 38.1831,39.9186" stroke="#00007f" stroke-width="2" /><polyline fill="none" points="73.3288,32.5424 84.1763,23.8644 106.739,12.5831 105.0034,19.9593 93.722,42.522" stroke="#0000b6" stroke-width="2" /><polyline fill="none" points="84.6102,49.0305 88.5153,49.4644 89.8169,51.6339 88.9492,59.878 85.0441,61.6136 81.139,55.9729 82.4407,50.3322 84.1763,49.8983 87.2136,51.6339 88.0814,55.9729 86.3458,55.539 85.478,52.9356 86.3458,56.8407 82.4407,55.1051" stroke="#0000f1" stroke-width="2" /><polyline fill="none" points="58.5763,49.0305 64.6508,45.1254 69.8576,49.8983 70.2915,52.5017 68.122,58.1424 62.4814,62.0475 59.4441,62.0475 54.6712,57.2746 52.0678,49.4644 52.5017,47.2949 59.0102,46.4271 62.0475,50.3322 61.6136,55.9729 59.0102,50.7661 61.1797,49.0305 62.9153,52.5017 60.7458,51.2 62.9153,50.7661" stroke="#0018ff" stroke-width="2" /><polyline fill="none" points="70.7254,66.8203 75.9322,66.8203 79.4034,71.1593 77.6678,74.1966 74.1966,75.0644 71.5932,73.7627 68.5559,71.1593 67.6881,68.5559" stroke="#004cff" stroke-width="2" /><polyline fill="none" points="74.1966,76.3661 75.4983,81.139 79.4034,83.3085 85.9119,83.7424 91.5525,81.139" stroke="#0080ff" stroke-width="2" /><polyline fill="none" points="71.5932,73.7627 72.0271,78.5356 68.5559,83.7424 60.7458,85.0441 50.3322,78.9695" stroke="#00b0ff" stroke-width="2" /><polyline fill="none" points="58.1424,74.1966 48.5966,66.3864" stroke="#00e4f7" stroke-width="2" /><polyline fill="none" points="59.0102,78.1017 47.7288,68.9898" stroke="#29ffcd" stroke-width="2" /><polyline fill="none" points="62.4814,73.7627 52.5017,62.0475" stroke="#53ffa3" stroke-width="2" /><polyline fill="none" points="83.3085,74.1966 94.1559,56.4068" stroke="#7cff79" stroke-width="2" /><polyline fill="none" points="86.7797,74.1966 101.5322,64.2169" stroke="#a3ff53" stroke-width="2" /><polyline fill="none" points="88.9492,77.6678 100.6644,72.461" stroke="#cdff29" stroke-width="2" /><polyline fill="none" points="40.3525,38.6169 44.6915,45.5593" stroke="#f7f400" stroke-width="2" /><polyline fill="none" points="49.0305,38.1831 47.2949,34.278 36.8814,22.5627 42.522,40.3525" stroke="#ffc400" stroke-width="2" /><polyline fill="none" points="78.1017,34.7119 92.4203,25.1661 91.5525,30.3729 86.7797,39.9186" stroke="#ff9400" stroke-width="2" /><polyline fill="none" points="88.0814,88.0814 101.0983,98.9288" stroke="#ff6700" stroke-width="2" /><polyline fill="none" points="54.2373,92.4203 44.6915,103.2678" stroke="#ff3700" stroke-width="2" /><polyline fill="none" points="96.7593,97.6271 100.2305,97.1932 101.9661,99.7966 103.2678,107.1729 102.4,110.6441 95.8915,116.7186 87.6475,119.322" stroke="#f10700" stroke-width="2" /><polyline fill="none" points="45.9932,101.9661 43.3898,105.0034 42.522,109.3424 42.522,113.2475 44.2576,115.8508" stroke="#b60000" stroke-width="2" /><polyline fill="none" points="41.6542,106.739 22.9966,89.8169 14.7525,59.4441 8.678,42.522" stroke="#7f0000" stroke-width="2" /></svg>