<?xml version="1.0" encoding="utf-8" ?>
<svg baseProfile="tiny" height="128" version="1.2" viewBox="0,0,128,128" width="128" xmlns="http://www.w3.org/2000/svg" xmlns:ev="http://www.w3.org/2001/xml-events" xmlns:xlink="http://www.w3.org/1999/xlink"><defs /><polyline fill="none" points="38.7483,48.3265 36.5714,47.4558 25.2517,47.8912 19.1565,51.3741 13.4966,56.1633 9.1429,63.1293 8.7075,67.0476 11.3197,70.966 18.2857,76.1905 33.5238,80.9796 59.6463,82.2857 72.2721,79.6735 82.7211,74.0136 86.6395,71.4014 90.9932,64.8707 92.2993,54.4218 87.5102,48.7619 79.6735,44.8435 63.5646,42.2313 46.585,42.6667 31.7823,49.1973 27.8639,53.1156 26.9932,57.034" stroke="#00007f" stroke-width="2" /><polyline fill="none" points="108.8435,30.0408 105.7959,28.7347 96.6531,28.7347 92.2993,31.7823 90.9932,34.3946 90.5578,40.4898 92.2993,43.9728 96.6531,47.8912 101.8776,50.068 107.9728,50.068 111.8912,46.585 114.068,40.9252 114.9388,32.2177 110.585,29.1701 99.7007,27.8639" stroke="#0010ff" stroke-width="2" /><polyline fill="none" points="97.5238,30.9116 94.4762,8.7075 100.5714,16.1088 106.2313,27.8639" stroke="#00a4ff" stroke-width="2" /><polyline fill="none" points="26.1224,81.415 20.898,87.0748 13.932,101.4422 12.1905,118.8571 16.1088,119.2925 20.898,112.7619 30.9116,94.4762 34.3946,85.7687" stroke="#3fffb7" stroke-width="2" /><polyline fill="none" points="49.1973,84.4626 46.585,87.5102 42.2313,107.102 42.6667,111.8912 47.8912,111.0204 50.5034,107.5374 53.551,97.9592 54.8571,79.6735" stroke="#b7ff3f" stroke-width="2" /><polyline fill="none" points="68.3537,85.7687 75.3197,108.8435 76.6259,110.1497 77.932,107.9728 78.3673,103.1837 78.3673,91.8639 76.6259,82.7211 72.7075,78.3673 68.3537,77.4966" stroke="#ffb900" stroke-width="2" /><polyline fill="none" points="84.4626,83.1565 86.6395,94.4762 89.2517,98.3946 93.6054,99.7007 94.9116,97.0884 94.9116,87.9456 92.2993,79.2381 89.6871,73.5782 85.3333,70.966" stroke="#ff3000" stroke-width="2" /><polyline fill="none" points="15.2381,68.3537 15.2381,68.3537" stroke="#7f0000" stroke-width="2" /></svg>