<?xml version="1.0" encoding="utf-8" ?>
<svg baseProfile="tiny" height="128" version="1.2" viewBox="0,0,128,128" width="128" xmlns="http://www.w3.org/2000/svg" xmlns:ev="http://www.w3.org/2001/xml-events" xmlns:xlink="http://www.w3.org/1999/xlink"><defs /><polyline fill="none" points="36.4475,35.5797 36.8814,27.3356 40.3525,22.9966 51.2,22.1288 69.4237,24.2983 95.8915,23.4305 95.8915,28.2034 92.4203,37.7492 80.2712,42.522 68.122,38.6169 54.6712,36.0136 37.3153,37.7492" stroke="#00007f" stroke-width="2" /><polyline fill="none" points="35.1458,29.939 26.0339,28.2034 25.1661,24.7322 20.3932,18.6576 19.5254,8.678 15.6203,10.4136 10.8475,16.0542 8.678,21.6949 9.5458,26.4678 26.9017,32.1085 39.4847,32.9763" stroke="#0000ff" stroke-width="2" /><polyline fill="none" points="39.0508,38.6169 42.522,49.8983" stroke="#0080ff" stroke-width="2" /><polyline fill="none" points="52.0678,42.9559 55.539,49.0305 66.8203,51.6339" stroke="#15ffe1" stroke-width="2" /><polyline fill="none" points="67.6881,52.0678 69.8576,53.8034 74.6305,54.2373" stroke="#7cff79" stroke-width="2" /><polyline fill="none" points="81.5729,44.2576 83.7424,52.5017" stroke="#e4ff12" stroke-width="2" /><polyline fill="none" points="88.0814,40.7864 90.6847,51.2" stroke="#ff9400" stroke-width="2" /><polyline fill="none" points="50.3322,36.8814 51.6339,44.6915" stroke="#ff1d00" stroke-width="2" /><polyline fill="none" points="99.3627,21.261 101.0983,18.6576 109.3424,18.2237 116.7186,19.9593 119.322,22.9966 117.1525,27.7695 114.1153,29.5051 103.7017,29.939 98.061,27.7695 98.061,18.2237" stroke="#7f0000" stroke-width="2" /></svg>