<?xml version="1.0" encoding="utf-8" ?>
<svg baseProfile="tiny" height="128" version="1.2" viewBox="0,0,128,128" width="128" xmlns="http://www.w3.org/2000/svg" xmlns:ev="http://www.w3.org/2001/xml-events" xmlns:xlink="http://www.w3.org/1999/xlink"><defs /><polyline fill="none" points="67.2542,50.3322 52.9356,51.2 46.4271,53.8034 39.9186,58.1424 37.3153,63.3492 36.8814,73.3288 39.0508,82.4407 43.3898,93.2881 51.2,103.2678 53.8034,105.0034 62.9153,105.8712 70.2915,103.2678 90.2508,89.8169 95.8915,79.4034 95.4576,68.5559 88.0814,58.5763 77.2339,51.2 61.1797,45.9932" stroke="#00007f" stroke-width="2" /><polyline fill="none" points="62.9153,75.4983 60.7458,76.8 61.6136,78.5356 63.3492,78.5356 65.0847,75.0644 62.9153,76.3661" stroke="#0000fe" stroke-width="2" /><polyline fill="none" points="64.2169,74.6305 60.3119,77.2339 59.878,80.7051 61.6136,81.139 65.5186,78.5356 65.9525,77.2339 63.3492,76.8" stroke="#0060ff" stroke-width="2" /><polyline fill="none" points="60.3119,77.6678 42.9559,68.122 31.6746,65.5186 15.1864,65.0847 8.678,66.3864" stroke="#00d4ff" stroke-width="2" /><polyline fill="none" points="57.7085,78.1017 37.3153,76.3661 24.2983,76.3661 20.8271,77.6678" stroke="#4cffaa" stroke-width="2" /><polyline fill="none" points="54.6712,79.4034 39.4847,80.2712 27.3356,82.8746 20.8271,85.0441 19.5254,87.2136" stroke="#aaff4c" stroke-width="2" /><polyline fill="none" points="69.4237,77.2339 119.322,76.8" stroke="#ffe500" stroke-width="2" /><polyline fill="none" points="65.5186,77.2339 75.4983,80.2712 114.1153,83.3085" stroke="#ff7a00" stroke-width="2" /><polyline fill="none" points="65.0847,79.8373 68.9898,83.3085 80.2712,88.5153 98.9288,93.722" stroke="#fe1200" stroke-width="2" /><polyline fill="none" points="42.522,53.3695 42.0881,8.678 59.0102,45.9932" stroke="#7f0000" stroke-width="2" /></svg>