<?xml version="1.0" encoding="utf-8" ?>
<svg baseProfile="tiny" height="128" version="1.2" viewBox="0,0,128,128" width="128" xmlns="http://www.w3.org/2000/svg" xmlns:ev="http://www.w3.org/2001/xml-events" xmlns:xlink="http://www.w3.org/1999/xlink"><defs /><polyline fill="none" points="54.6712,29.5051 41.6542,29.5051 29.939,35.1458 23.8644,39.4847 18.2237,45.9932 11.7153,57.7085 8.678,71.1593 9.5458,81.5729 13.0169,91.5525 21.6949,103.7017 38.1831,114.9831 49.4644,118.0203 60.3119,119.322 68.5559,118.4542 88.0814,109.3424 91.9864,106.739 99.3627,97.1932 104.1356,85.9119 104.5695,73.7627 98.4949,59.878 85.0441,42.0881 73.3288,32.9763" stroke="#00007f" stroke-width="2" /><polyline fill="none" points="29.0712,40.3525 26.9017,35.1458 23.8644,13.8847 24.2983,8.678 30.3729,11.2814 37.3153,20.3932 42.9559,24.2983" stroke="#0000f1" stroke-width="2" /><polyline fill="none" points="102.4,42.9559 98.061,43.3898 98.4949,40.7864 108.4746,30.3729 115.4169,26.4678 118.0203,26.9017 117.5864,37.7492 111.078,52.0678 108.0407,61.1797" stroke="#004cff" stroke-width="2" /><polyline fill="none" points="56.4068,72.0271 64.2169,74.6305" stroke="#00b0ff" stroke-width="2" /><polyline fill="none" points="51.2,71.5932 55.539,81.139 58.1424,81.5729 62.9153,79.8373" stroke="#29ffcd" stroke-width="2" /><polyline fill="none" points="59.0102,75.4983 52.0678,72.0271 39.9186,70.2915 29.5051,73.7627 16.922,82.8746" stroke="#7cff79" stroke-width="2" /><polyline fill="none" points="48.1627,77.2339 30.3729,89.3831" stroke="#cdff29" stroke-width="2" /><polyline fill="none" points="53.3695,82.4407 47.7288,88.0814 39.4847,104.1356" stroke="#ffc400" stroke-width="2" /><polyline fill="none" points="73.3288,81.139 75.4983,83.7424 88.9492,89.3831" stroke="#ff6700" stroke-width="2" /><polyline fill="none" points="69.4237,88.9492 76.8,99.3627" stroke="#f10700" stroke-width="2" /><polyline fill="none" points="78.5356,75.9322 95.4576,69.4237" stroke="#7f0000" stroke-width="2" /></svg>