<?xml version="1.0" encoding="utf-8" ?>
<svg baseProfile="tiny" height="128" version="1.2" viewBox="0,0,128,128" width="128" xmlns="http://www.w3.org/2000/svg" xmlns:ev="http://www.w3.org/2001/xml-events" xmlns:xlink="http://www.w3.org/1999/xlink"><defs /><polyline fill="none" points="20.4626,45.2789 26.9932,33.0884 33.9592,13.4966 37.0068,8.7075 39.1837,9.5782 43.5374,32.2177 46.585,39.619" stroke="#00007f" stroke-width="2" /><polyline fill="none" points="60.9524,43.9728 63.5646,42.2313 72.7075,24.8163 76.6259,20.0272 80.9796,17.8503 82.7211,50.068" stroke="#0000ff" stroke-width="2" /><polyline fill="none" points="74.0136,54.8571 74.0136,51.3741 66.6122,46.585 57.4694,43.9728 31.7823,43.5374 25.6871,45.7143 15.6735,52.2449 12.1905,57.9048 9.5782,64.0 8.7075,77.4966 9.5782,85.7687 16.1088,100.5714 21.3333,107.102 29.1701,113.1973 45.7143,119.2925 74.449,119.2925 84.0272,116.6803 92.2993,111.8912 98.8299,105.7959 103.619,97.5238 106.2313,87.9456 106.2313,77.932 102.7483,67.9184 96.2177,58.3401 77.932,45.7143" stroke="#0080ff" stroke-width="2" /><polyline fill="none" points="38.7483,82.2857 34.3946,83.5918 26.9932,83.1565 17.415,79.2381" stroke="#15ffe1" stroke-width="2" /><polyline fill="none" points="43.9728,92.2993 38.7483,95.7823 33.5238,96.6531 21.7687,97.0884 20.0272,96.2177" stroke="#7cff79" stroke-width="2" /><polyline fill="none" points="68.3537,90.9932 76.1905,93.1701 84.4626,93.1701 88.8163,90.1224 89.2517,88.381" stroke="#e4ff12" stroke-width="2" /><polyline fill="none" points="58.3401,102.7483 66.6122,104.0544 84.0272,99.7007" stroke="#ff9400" stroke-width="2" /><polyline fill="none" points="37.4422,58.7755 34.3946,60.0816 33.0884,54.4218 37.4422,53.551 37.8776,57.034" stroke="#ff1d00" stroke-width="2" /><polyline fill="none" points="64.4354,61.8231 66.1769,60.517 67.483,65.3061 66.1769,66.6122 60.0816,67.0476 59.2109,61.8231 60.9524,60.517 62.6939,60.517" stroke="#7f0000" stroke-width="2" /></svg>