<?xml version="1.0" encoding="utf-8" ?>
<svg baseProfile="tiny" height="128" version="1.2" viewBox="0,0,128,128" width="128" xmlns="http://www.w3.org/2000/svg" xmlns:ev="http://www.w3.org/2001/xml-events" xmlns:xlink="http://www.w3.org/1999/xlink"><defs /><polyline fill="none" points="36.8219,29.3699 31.1233,20.1644 27.1781,9.6438 28.9315,8.7671 31.5616,10.0822 46.0274,21.0411" stroke="#00007f" stroke-width="2" /><polyline fill="none" points="73.6438,24.5479 94.6849,9.2055 95.1233,30.6849" stroke="#0000f1" stroke-width="2" /><polyline fill="none" points="73.2055,24.1096 60.4932,21.4795 46.9041,21.4795 40.3288,24.9863 34.1918,33.7534 34.1918,38.5753 36.3836,45.589 42.9589,54.3562 50.8493,60.4932 56.1096,67.5068 60.9315,67.0685 81.5342,50.411 89.863,45.1507 98.1918,36.8219 99.0685,32.4384 78.4658,25.863 71.8904,24.9863" stroke="#004cff" stroke-width="2" /><polyline fill="none" points="44.7123,34.1918 45.589,32.4384 49.0959,31.5616 55.6712,32.0 56.1096,33.3151" stroke="#00b0ff" stroke-width="2" /><polyline fill="none" points="74.0822,32.8767 80.2192,34.1918 85.0411,38.5753" stroke="#29ffcd" stroke-width="2" /><polyline fill="none" points="76.7123,44.7123 111.7808,43.3973" stroke="#7cff79" stroke-width="2" /><polyline fill="none" points="73.2055,46.9041 108.274,48.6575" stroke="#cdff29" stroke-width="2" /><polyline fill="none" points="72.7671,51.726 119.2329,66.1918" stroke="#ffc400" stroke-width="2" /><polyline fill="none" points="44.274,41.6438 21.4795,38.5753 8.7671,39.0137" stroke="#ff6700" stroke-width="2" /><polyline fill="none" points="40.7671,45.589 17.9726,45.1507" stroke="#f10700" stroke-width="2" /><polyline fill="none" points="46.4658,46.9041 36.8219,48.2192" stroke="#7f0000" stroke-width="2" /></svg>