<?xml version="1.0" encoding="utf-8" ?>
<svg baseProfile="tiny" height="128" version="1.2" viewBox="0,0,128,128" width="128" xmlns="http://www.w3.org/2000/svg" xmlns:ev="http://www.w3.org/2001/xml-events" xmlns:xlink="http://www.w3.org/1999/xlink"><defs /><polyline fill="none" points="28.6373,47.2949 39.9186,41.6542 51.6339,39.4847 66.8203,41.2203 77.6678,45.9932 84.1763,52.5017 85.0441,58.1424 77.6678,66.8203 68.5559,71.5932 59.0102,73.7627 51.6339,72.8949 37.3153,68.122 31.2407,64.6508 25.1661,57.7085 23.8644,54.2373 32.5424,45.5593" stroke="#00007f" stroke-width="2" /><polyline fill="none" points="83.7424,48.5966 79.8373,47.2949 78.9695,45.1254 82.0068,39.9186 92.8542,32.9763 103.2678,29.939 112.8136,32.9763 119.322,44.6915 118.8881,49.8983 116.7186,54.6712 108.9085,59.4441 98.9288,59.878 85.478,56.4068" stroke="#0000ff" stroke-width="2" /><polyline fill="none" points="85.478,34.278 90.2508,11.2814 98.9288,30.8068" stroke="#0080ff" stroke-width="2" /><polyline fill="none" points="105.4373,30.8068 114.1153,8.678 115.8508,19.9593 114.5492,29.939" stroke="#15ffe1" stroke-width="2" /><polyline fill="none" points="22.5627,50.3322 12.1492,69.4237 9.9797,75.9322 8.678,86.3458 11.2814,93.722" stroke="#7cff79" stroke-width="2" /><polyline fill="none" points="16.4881,93.2881 21.261,70.7254 26.9017,58.5763" stroke="#e4ff12" stroke-width="2" /><polyline fill="none" points="42.9559,66.8203 38.6169,91.9864 40.3525,102.8339" stroke="#ff9400" stroke-width="2" /><polyline fill="none" points="42.522,94.5898 51.2,91.9864" stroke="#ff1d00" stroke-width="2" /><polyline fill="none" points="60.7458,70.7254 60.3119,80.7051" stroke="#7f0000" stroke-width="2" /></svg>