<?xml version="1.0" encoding="utf-8" ?>
<svg baseProfile="tiny" height="128" version="1.2" viewBox="0,0,128,128" width="128" xmlns="http://www.w3.org/2000/svg" xmlns:ev="http://www.w3.org/2001/xml-events" xmlns:xlink="http://www.w3.org/1999/xlink"><defs /><polyline fill="none" points="41.6542,30.3729 41.6542,30.3729" stroke="#00007f" stroke-width="2" /><polyline fill="none" points="53.8034,26.9017 44.6915,27.7695 37.3153,31.2407 30.8068,36.0136 26.0339,41.6542 22.1288,49.0305 20.8271,56.8407 22.9966,63.7831 27.3356,70.7254 37.3153,77.6678 44.6915,80.7051 65.5186,84.1763 79.4034,83.3085 90.2508,79.8373 95.8915,76.3661 100.2305,71.5932 104.5695,62.9153 105.4373,52.0678 101.0983,42.522 93.722,35.1458 83.7424,30.3729 67.2542,28.6373 55.1051,29.5051 45.5593,34.7119" stroke="#0000c8" stroke-width="2" /><polyline fill="none" points="50.7661,42.0881 45.1254,45.1254 44.2576,50.3322 49.4644,53.3695 55.1051,52.9356 57.7085,49.4644 56.4068,45.1254 50.3322,42.522 46.4271,42.9559 45.1254,45.1254" stroke="#0000ff" stroke-width="2" /><polyline fill="none" points="82.8746,42.0881 77.2339,45.1254 76.3661,49.0305 78.5356,51.2 83.3085,51.6339 88.5153,49.0305 88.5153,46.4271 85.0441,42.522 78.5356,42.522" stroke="#0040ff" stroke-width="2" /><polyline fill="none" points="61.6136,60.3119 69.8576,59.4441 71.1593,64.2169 63.7831,67.6881 60.7458,65.5186 59.878,63.3492" stroke="#0080ff" stroke-width="2" /><polyline fill="none" points="79.8373,60.3119 105.4373,53.8034 111.5119,53.3695 113.2475,55.9729" stroke="#00c0ff" stroke-width="2" /><polyline fill="none" points="79.4034,65.0847 96.3254,62.9153 103.2678,64.6508" stroke="#15ffe1" stroke-width="2" /><polyline fill="none" points="85.0441,68.5559 102.8339,74.6305 102.8339,75.4983" stroke="#49ffad" stroke-width="2" /><polyline fill="none" points="36.4475,62.4814 16.4881,65.5186 9.5458,68.9898 8.678,70.7254" stroke="#7cff79" stroke-width="2" /><polyline fill="none" points="41.2203,65.0847 24.7322,73.3288 19.0915,77.2339 17.3559,80.2712" stroke="#b0ff46" stroke-width="2" /><polyline fill="none" points="43.3898,72.8949 29.0712,81.5729 21.261,87.6475 22.5627,88.5153" stroke="#e4ff12" stroke-width="2" /><polyline fill="none" points="57.7085,73.3288 60.3119,78.1017 66.3864,79.4034 68.122,77.6678 68.5559,74.6305 70.7254,77.6678 77.2339,76.3661 79.4034,71.5932 78.1017,69.8576" stroke="#ffcf00" stroke-width="2" /><polyline fill="none" points="81.139,34.278 87.2136,24.7322 98.4949,16.4881 115.4169,9.1119 118.8881,8.678" stroke="#ff9400" stroke-width="2" /><polyline fill="none" points="119.322,8.678 111.5119,26.4678 96.7593,42.9559" stroke="#ff5900" stroke-width="2" /><polyline fill="none" points="30.3729,44.6915 23.8644,39.0508 21.261,32.5424 21.261,23.8644 24.7322,13.4508" stroke="#ff1d00" stroke-width="2" /><polyline fill="none" points="27.3356,13.4508 38.1831,22.5627 43.3898,29.939 46.4271,37.3153" stroke="#c30000" stroke-width="2" /><polyline fill="none" points="46.861,31.2407 60.3119,24.2983" stroke="#7f0000" stroke-width="2" /></svg>