<?xml version="1.0" encoding="utf-8" ?>
<svg baseProfile="tiny" height="128" version="1.2" viewBox="0,0,128,128" width="128" xmlns="http://www.w3.org/2000/svg" xmlns:ev="http://www.w3.org/2001/xml-events" xmlns:xlink="http://www.w3.org/1999/xlink"><defs /><polyline fill="none" points="83.7424,38.1831 72.0271,36.0136 57.2746,36.0136 41.2203,42.522 26.0339,54.6712 18.6576,62.9153 10.8475,76.3661 8.678,88.9492 9.1119,95.0237 13.8847,101.9661 28.2034,110.2102 45.1254,115.8508 73.7627,116.7186 83.3085,113.2475 93.2881,107.1729 107.6068,92.8542 116.7186,80.7051 118.8881,73.7627 119.322,60.3119 111.078,47.7288 107.1729,43.8237 90.6847,35.5797 83.3085,30.3729" stroke="#00007f" stroke-width="2" /><polyline fill="none" points="53.8034,37.3153 49.4644,36.4475 29.939,10.4136 26.0339,9.1119 23.4305,9.9797 21.261,28.6373 21.261,52.0678" stroke="#0028ff" stroke-width="2" /><polyline fill="none" points="98.061,35.1458 114.1153,8.678 115.4169,12.1492 114.9831,41.6542 116.2847,50.7661" stroke="#00d4ff" stroke-width="2" /><polyline fill="none" points="82.8746,60.7458 82.8746,60.7458" stroke="#7cff79" stroke-width="2" /><polyline fill="none" points="79.4034,63.3492 80.7051,66.3864 86.3458,63.7831 86.3458,56.8407 84.1763,56.8407 82.0068,59.0102 82.0068,61.6136 83.3085,62.0475" stroke="#ffe500" stroke-width="2" /><polyline fill="none" points="45.9932,55.539 45.5593,58.1424 48.5966,60.3119 49.0305,57.7085" stroke="#ff4600" stroke-width="2" /><polyline fill="none" points="55.539,75.9322 71.1593,77.6678 71.1593,81.5729 65.0847,92.8542 59.878,79.4034" stroke="#7f0000" stroke-width="2" /></svg>