<?xml version="1.0" encoding="utf-8" ?>
<svg baseProfile="tiny" height="128" version="1.2" viewBox="0,0,128,128" width="128" xmlns="http://www.w3.org/2000/svg" xmlns:ev="http://www.w3.org/2001/xml-events" xmlns:xlink="http://www.w3.org/1999/xlink"><defs /><polyline fill="none" points="81.5729,52.5017 75.0644,49.0305 65.5186,46.4271 43.8237,45.5593 32.1085,51.6339 20.8271,61.1797 14.7525,68.9898 9.9797,81.5729 8.678,100.2305 14.3186,110.6441 24.2983,116.7186 36.4475,119.322 55.1051,118.4542 65.5186,112.3797 73.3288,103.2678 76.3661,94.1559 75.9322,72.0271 72.8949,51.6339 70.7254,47.2949 68.122,46.4271" stroke="#00007f" stroke-width="2" /><polyline fill="none" points="67.6881,46.4271 67.6881,44.6915 80.2712,26.4678 86.3458,20.3932 75.4983,59.0102 73.7627,62.0475" stroke="#0080ff" stroke-width="2" /><polyline fill="none" points="34.278,49.4644 34.278,46.4271 25.1661,26.0339 15.1864,8.678 12.5831,22.9966 12.5831,52.0678 16.4881,58.1424 17.3559,65.0847" stroke="#7cff79" stroke-width="2" /><polyline fill="none" points="40.3525,76.8 30.8068,73.7627" stroke="#ff9400" stroke-width="2" /><polyline fill="none" points="54.6712,77.6678 61.6136,76.3661" stroke="#7f0000" stroke-width="2" /></svg>