<?xml version="1.0" encoding="utf-8" ?>
<svg baseProfile="tiny" height="128" version="1.2" viewBox="0,0,128,128" width="128" xmlns="http://www.w3.org/2000/svg" xmlns:ev="http://www.w3.org/2001/xml-events" xmlns:xlink="http://www.w3.org/1999/xlink"><defs /><polyline fill="none" points="9.5458,31.6746 11.2814,25.1661 16.0542,20.8271 21.6949,19.0915 27.7695,19.0915 32.5424,20.8271 37.3153,26.4678 37.7492,35.5797 28.2034,42.522 16.922,43.3898 10.8475,39.9186 8.678,32.9763" stroke="#00007f" stroke-width="2" /><polyline fill="none" points="32.1085,19.5254 32.5424,13.8847 27.7695,8.678 25.1661,10.8475 23.8644,19.5254 19.9593,12.5831 13.8847,11.2814 11.7153,14.3186 11.2814,19.5254 13.8847,24.7322" stroke="#004cff" stroke-width="2" /><polyline fill="none" points="37.3153,38.6169 90.2508,38.1831 103.2678,41.2203 107.1729,43.8237 106.739,46.4271 89.3831,49.8983 68.5559,52.0678 40.3525,52.5017 30.3729,50.3322 25.6,46.4271 25.6,43.8237 34.7119,39.9186" stroke="#29ffcd" stroke-width="2" /><polyline fill="none" points="110.6441,45.9932 109.7763,44.6915 109.3424,45.5593 111.078,53.8034 110.6441,73.3288 115.4169,82.4407 118.8881,71.1593 119.322,62.0475 111.9458,49.4644 105.0034,43.3898" stroke="#cdff29" stroke-width="2" /><polyline fill="none" points="40.3525,52.5017 44.2576,71.1593 32.5424,73.7627 39.9186,76.8 48.1627,77.2339 49.8983,57.7085 48.1627,51.6339" stroke="#ff6700" stroke-width="2" /><polyline fill="none" points="84.1763,52.5017 85.9119,68.9898 74.1966,73.7627 77.2339,80.2712 80.7051,81.5729 94.5898,76.3661 95.0237,63.3492 91.1186,51.6339" stroke="#7f0000" stroke-width="2" /></svg>