<?xml version="1.0" encoding="utf-8" ?>
<svg baseProfile="tiny" height="128" version="1.2" viewBox="0,0,128,128" width="128" xmlns="http://www.w3.org/2000/svg" xmlns:ev="http://www.w3.org/2001/xml-events" xmlns:xlink="http://www.w3.org/1999/xlink"><defs /><polyline fill="none" points="37.7492,43.3898 30.8068,42.9559 22.5627,49.4644 18.6576,58.1424 18.6576,66.8203 23.4305,74.1966 28.2034,76.3661 33.4102,77.6678 46.4271,78.1017 51.2,75.9322 57.7085,70.2915 61.1797,62.4814 61.6136,54.2373 56.4068,47.7288 42.0881,42.522" stroke="#00007f" stroke-width="2" /><polyline fill="none" points="43.8237,37.7492 53.3695,28.6373 59.878,25.1661 61.1797,25.6 61.6136,32.9763 58.5763,45.5593" stroke="#0000c3" stroke-width="2" /><polyline fill="none" points="34.7119,40.3525 21.261,33.4102 19.9593,35.1458 19.9593,43.8237 22.5627,52.5017" stroke="#0000ff" stroke-width="2" /><polyline fill="none" points="39.9186,73.3288 37.3153,93.722 38.6169,97.6271 40.7864,99.3627 46.4271,99.3627 55.539,87.2136 55.9729,100.2305 57.7085,101.9661 60.3119,101.9661 66.3864,98.061 72.0271,88.0814 84.1763,87.6475 85.9119,89.3831 88.5153,101.0983 90.6847,103.7017 96.7593,105.0034 101.9661,101.9661 105.4373,96.3254 106.739,90.6847 108.9085,100.2305 113.6814,101.5322 117.5864,93.2881 119.322,79.8373 115.4169,66.3864 110.6441,60.7458 100.6644,57.7085 65.0847,56.4068" stroke="#0034ff" stroke-width="2" /><polyline fill="none" points="98.4949,51.2 96.3254,48.5966 95.4576,41.2203 95.0237,20.3932 96.3254,16.4881 100.6644,10.8475 103.2678,9.5458 110.6441,8.678 113.2475,9.9797 114.9831,16.922 113.6814,29.5051 101.9661,59.0102" stroke="#0070ff" stroke-width="2" /><polyline fill="none" points="32.9763,52.0678 33.4102,56.8407" stroke="#00acff" stroke-width="2" /><polyline fill="none" points="46.861,48.1627 45.9932,52.9356" stroke="#02e8f4" stroke-width="2" /><polyline fill="none" points="32.1085,61.6136 33.8441,65.0847 37.3153,66.3864 39.9186,65.9525 42.522,61.6136 46.4271,67.2542 49.8983,67.2542" stroke="#32ffc3" stroke-width="2" /><polyline fill="none" points="10.4136,59.4441 13.8847,59.878 19.0915,62.9153" stroke="#63ff93" stroke-width="2" /><polyline fill="none" points="8.678,69.4237 16.4881,68.5559" stroke="#93ff63" stroke-width="2" /><polyline fill="none" points="11.7153,77.6678 16.922,73.3288" stroke="#c3ff32" stroke-width="2" /><polyline fill="none" points="55.9729,59.0102 67.6881,57.7085" stroke="#f4f802" stroke-width="2" /><polyline fill="none" points="56.4068,63.7831 66.3864,65.5186" stroke="#ffc000" stroke-width="2" /><polyline fill="none" points="56.4068,67.2542 65.9525,71.5932" stroke="#ff8900" stroke-width="2" /><polyline fill="none" points="42.522,36.8814 40.7864,42.0881" stroke="#ff5100" stroke-width="2" /><polyline fill="none" points="60.3119,42.522 59.0102,47.7288" stroke="#ff1a00" stroke-width="2" /><polyline fill="none" points="61.6136,23.8644 64.2169,36.4475 63.3492,52.5017" stroke="#c30000" stroke-width="2" /><polyline fill="none" points="21.6949,32.5424 15.1864,47.7288 15.1864,55.9729 16.922,59.4441" stroke="#7f0000" stroke-width="2" /></svg>