<?xml version="1.0" encoding="utf-8" ?>
<svg baseProfile="tiny" height="128" version="1.2" viewBox="0,0,128,128" width="128" xmlns="http://www.w3.org/2000/svg" xmlns:ev="http://www.w3.org/2001/xml-events" xmlns:xlink="http://www.w3.org/1999/xlink"><defs /><polyline fill="none" points="75.9322,23.8644 68.122,24.7322 62.0475,27.3356 55.1051,32.5424 50.7661,38.6169 46.4271,61.6136 48.5966,70.7254 53.3695,74.6305 63.7831,73.7627 75.4983,69.8576 81.5729,65.9525 88.9492,55.9729 89.8169,49.8983 82.8746,33.8441 72.461,22.9966" stroke="#00007f" stroke-width="2" /><polyline fill="none" points="49.8983,33.4102 52.9356,20.8271 58.5763,8.678 60.3119,9.5458 60.7458,24.2983 62.4814,25.1661 83.3085,22.9966 90.2508,13.8847 91.9864,13.4508 91.9864,17.7898 88.5153,23.8644 85.9119,33.4102" stroke="#0028ff" stroke-width="2" /><polyline fill="none" points="76.8,48.5966 108.4746,57.2746 116.7186,65.0847 119.322,69.8576" stroke="#00d4ff" stroke-width="2" /><polyline fill="none" points="75.4983,61.1797 86.7797,65.5186 95.8915,70.2915" stroke="#7cff79" stroke-width="2" /><polyline fill="none" points="50.7661,58.5763 32.9763,62.0475 18.2237,68.5559" stroke="#ffe500" stroke-width="2" /><polyline fill="none" points="52.0678,61.6136 19.5254,76.3661 8.678,85.0441" stroke="#ff4600" stroke-width="2" /><polyline fill="none" points="62.4814,52.0678 58.5763,59.4441 60.7458,59.878 65.9525,58.1424 65.9525,54.6712 62.4814,51.2" stroke="#7f0000" stroke-width="2" /></svg>