<?xml version="1.0" encoding="utf-8" ?>
<svg baseProfile="tiny" height="128" version="1.2" viewBox="0,0,128,128" width="128" xmlns="http://www.w3.org/2000/svg" xmlns:ev="http://www.w3.org/2001/xml-events" xmlns:xlink="http://www.w3.org/1999/xlink"><defs /><polyline fill="none" points="10.0136,66.1769 12.1905,61.3878 15.6735,58.3401 44.8435,46.585 61.8231,44.4082 70.0952,44.4082 77.932,46.1497 89.2517,54.8571 94.0408,60.517 96.6531,67.0476 99.2653,81.415 99.2653,92.7347 96.6531,98.3946 79.2381,110.1497 58.7755,116.6803 41.7959,119.2925 28.7347,118.8571 19.1565,112.7619 12.1905,98.8299 9.5782,71.8367 10.8844,67.483 14.8027,61.8231" stroke="#00007f" stroke-width="2" /><polyline fill="none" points="17.415,56.5986 13.932,53.9864 8.7075,27.8639 9.1429,11.7551 11.3197,8.7075 16.5442,24.8163 20.898,33.9592 29.1701,44.8435 33.0884,48.3265 37.0068,48.7619" stroke="#7cff79" stroke-width="2" /><polyline fill="none" points="87.0748,43.5374 89.2517,37.0068 104.4898,12.6259 104.9252,19.5918 101.0068,45.2789 95.7823,65.3061" stroke="#7f0000" stroke-width="2" /></svg>