<?xml version="1.0" encoding="utf-8" ?>
<svg baseProfile="tiny" height="128" version="1.2" viewBox="0,0,128,128" width="128" xmlns="http://www.w3.org/2000/svg" xmlns:ev="http://www.w3.org/2001/xml-events" xmlns:xlink="http://www.w3.org/1999/xlink"><defs /><polyline fill="none" points="62.4814,37.7492 62.4814,33.8441 69.4237,23.8644 78.5356,14.3186 84.1763,11.2814 85.0441,27.3356 83.7424,42.522 95.0237,59.0102 95.4576,68.9898 87.6475,84.6102 76.8,94.5898 69.8576,98.061 56.4068,100.6644 48.1627,100.2305 41.6542,97.6271 31.6746,91.5525 21.6949,82.4407 17.3559,75.0644 14.3186,65.5186 13.4508,55.1051 15.6203,48.1627 22.9966,42.522 31.6746,40.7864 23.8644,25.6 22.1288,9.5458 23.8644,8.678 37.3153,22.5627 47.7288,35.5797 49.8983,39.9186 63.3492,38.6169" stroke="#00007f" stroke-width="2" /><polyline fill="none" points="44.6915,73.3288 39.0508,71.1593 8.678,65.9525 43.3898,75.0644 49.4644,78.1017 28.6373,85.9119 12.1492,100.6644 30.8068,85.9119 39.4847,80.2712 45.1254,78.9695 45.9932,80.7051 37.3153,109.7763 36.8814,119.322" stroke="#7cff79" stroke-width="2" /><polyline fill="none" points="64.2169,71.1593 79.8373,60.7458 90.2508,55.539 98.9288,53.3695 64.2169,72.0271 65.5186,73.7627 99.3627,87.2136 72.0271,79.8373 60.7458,74.1966 82.4407,102.4 96.3254,115.8508" stroke="#7f0000" stroke-width="2" /></svg>