<?xml version="1.0" encoding="utf-8" ?>
<svg baseProfile="tiny" height="128" version="1.2" viewBox="0,0,128,128" width="128" xmlns="http://www.w3.org/2000/svg" xmlns:ev="http://www.w3.org/2001/xml-events" xmlns:xlink="http://www.w3.org/1999/xlink"><defs /><polyline fill="none" points="17.8503,53.1156 22.2041,38.3129 31.7823,19.1565 33.5238,20.898 36.1361,31.3469 40.0544,50.068" stroke="#00007f" stroke-width="2" /><polyline fill="none" points="39.1837,51.3741 45.7143,43.9728 57.034,38.7483 62.2585,38.7483 69.6599,41.3605 70.0952,44.4082" stroke="#0000ff" stroke-width="2" /><polyline fill="none" points="70.0952,44.4082 73.5782,26.5578 81.415,8.7075 82.7211,12.1905 80.5442,40.0544 84.0272,59.2109" stroke="#0080ff" stroke-width="2" /><polyline fill="none" points="84.0272,59.2109 78.8027,73.1429 64.8707,97.5238 51.8095,111.0204 42.6667,117.551 37.0068,119.2925 33.5238,116.6803 30.4762,111.4558 27.4286,104.9252 25.6871,97.5238 25.2517,84.4626 27.4286,61.3878 23.9456,46.585" stroke="#15ffe1" stroke-width="2" /><polyline fill="none" points="53.1156,81.8503 60.9524,76.1905 106.6667,55.2925" stroke="#7cff79" stroke-width="2" /><polyline fill="none" points="57.9048,87.0748 60.9524,84.0272 77.0612,81.8503" stroke="#e4ff12" stroke-width="2" /><polyline fill="none" points="43.102,78.3673 40.9252,75.3197 33.9592,70.5306 26.9932,67.483 21.7687,67.0476" stroke="#ff9400" stroke-width="2" /><polyline fill="none" points="39.619,84.0272 27.8639,87.0748 8.7075,94.4762" stroke="#ff1d00" stroke-width="2" /><polyline fill="none" points="46.1497,53.1156 40.0544,64.8707 40.4898,67.0476 43.102,67.9184 47.4558,63.5646 50.9388,51.8095" stroke="#7f0000" stroke-width="2" /></svg>