<?xml version="1.0" encoding="utf-8" ?>
<svg baseProfile="tiny" height="128" version="1.2" viewBox="0,0,128,128" width="128" xmlns="http://www.w3.org/2000/svg" xmlns:ev="http://www.w3.org/2001/xml-events" xmlns:xlink="http://www.w3.org/1999/xlink"><defs /><polyline fill="none" points="41.6542,44.2576 37.7492,40.3525 30.8068,38.6169 17.7898,38.6169 10.8475,41.6542 8.678,47.2949 9.9797,57.7085 12.1492,61.6136 17.7898,66.3864 33.8441,64.2169 44.2576,59.878 46.4271,55.1051 43.3898,45.9932 45.1254,42.9559 47.2949,42.0881 77.2339,43.3898 95.8915,45.5593 98.061,48.1627 97.6271,53.3695 92.4203,57.7085 77.2339,64.2169 66.8203,66.8203 46.861,67.6881 31.6746,64.6508" stroke="#00007f" stroke-width="2" /><polyline fill="none" points="99.3627,48.1627 119.322,13.0169" stroke="#0080ff" stroke-width="2" /><polyline fill="none" points="94.1559,58.5763 96.3254,85.9119" stroke="#7cff79" stroke-width="2" /><polyline fill="none" points="39.9186,63.3492 36.8814,81.5729 33.4102,91.1186" stroke="#ff9400" stroke-width="2" /><polyline fill="none" points="30.3729,39.0508 14.3186,8.678 14.3186,39.9186" stroke="#7f0000" stroke-width="2" /></svg>