<?xml version="1.0" encoding="utf-8" ?>
<svg baseProfile="tiny" height="128" version="1.2" viewBox="0,0,128,128" width="128" xmlns="http://www.w3.org/2000/svg" xmlns:ev="http://www.w3.org/2001/xml-events" xmlns:xlink="http://www.w3.org/1999/xlink"><defs /><polyline fill="none" points="72.461,33.4102 53.3695,34.278 40.3525,37.7492 28.6373,43.3898 21.261,51.2 19.0915,55.539 17.7898,65.5186 19.9593,77.6678 29.0712,98.4949 36.4475,110.2102 41.2203,114.1153 49.8983,118.4542 66.3864,119.322 75.4983,117.5864 92.8542,111.078 98.9288,105.0034 103.2678,95.8915 109.3424,70.7254 109.7763,57.2746 106.739,46.861 101.9661,42.0881 95.4576,38.1831 65.9525,26.0339" stroke="#00007f" stroke-width="2" /><polyline fill="none" points="95.4576,34.278 108.4746,17.7898 118.4542,10.8475 114.9831,42.0881 111.078,53.3695" stroke="#7cff79" stroke-width="2" /><polyline fill="none" points="48.1627,34.278 26.9017,23.4305 8.678,8.678 15.6203,43.8237 21.6949,55.9729" stroke="#7f0000" stroke-width="2" /></svg>