<?xml version="1.0" encoding="utf-8" ?>
<svg baseProfile="tiny" height="128" version="1.2" viewBox="0,0,128,128" width="128" xmlns="http://www.w3.org/2000/svg" xmlns:ev="http://www.w3.org/2001/xml-events" xmlns:xlink="http://www.w3.org/1999/xlink"><defs /><polyline fill="none" points="56.1096,27.6164 59.1781,23.6712 66.6301,23.2329 71.0137,26.3014 71.0137,28.9315" stroke="#00007f" stroke-width="2" /><polyline fill="none" points="71.0137,28.9315 73.2055,16.6575 79.3425,8.7671 84.6027,23.2329 86.3562,36.3836" stroke="#0000fe" stroke-width="2" /><polyline fill="none" points="54.7945,28.4932 52.6027,21.4795 42.5205,11.3973 42.0822,32.8767" stroke="#0060ff" stroke-width="2" /><polyline fill="none" points="41.2055,33.7534 39.8904,41.2055 45.589,49.5342 53.9178,53.9178 66.1918,56.1096 78.0274,56.1096 83.726,53.0411 86.3562,50.411 87.2329,43.3973 81.0959,34.6301" stroke="#00d4ff" stroke-width="2" /><polyline fill="none" points="53.9178,32.8767 56.1096,34.6301" stroke="#4cffaa" stroke-width="2" /><polyline fill="none" points="68.3836,32.0 68.3836,35.9452 70.137,37.6986 70.5753,36.3836 69.2603,35.9452" stroke="#aaff4c" stroke-width="2" /><polyline fill="none" points="67.5068,42.9589 81.0959,39.0137 100.8219,35.9452" stroke="#ffe500" stroke-width="2" /><polyline fill="none" points="74.9589,44.7123 119.2329,44.7123" stroke="#ff7a00" stroke-width="2" /><polyline fill="none" points="49.0959,42.0822 8.7671,30.2466" stroke="#fe1200" stroke-width="2" /><polyline fill="none" points="47.3425,43.3973 43.3973,44.7123" stroke="#7f0000" stroke-width="2" /></svg>