<?xml version="1.0" encoding="utf-8" ?>
<svg baseProfile="tiny" height="128" version="1.2" viewBox="0,0,128,128" width="128" xmlns="http://www.w3.org/2000/svg" xmlns:ev="http://www.w3.org/2001/xml-events" xmlns:xlink="http://www.w3.org/1999/xlink"><defs /><polyline fill="none" points="42.522,49.4644 34.7119,49.4644 30.3729,52.0678 22.9966,62.0475 19.0915,73.7627 18.6576,86.7797 20.3932,94.1559 27.3356,106.739 37.3153,115.4169 48.1627,118.8881 54.2373,119.322 61.6136,118.8881 67.2542,116.7186 78.9695,108.4746 88.5153,96.3254 93.722,82.4407 94.1559,69.8576 90.6847,59.0102 84.1763,49.8983 71.5932,42.522 59.4441,40.7864 60.7458,42.522" stroke="#00007f" stroke-width="2" /><polyline fill="none" points="77.2339,41.2203 76.8,38.6169 87.2136,30.8068 108.4746,21.6949 118.8881,19.0915 118.8881,21.261 97.6271,52.5017 92.8542,61.6136" stroke="#0000ff" stroke-width="2" /><polyline fill="none" points="32.1085,49.4644 24.2983,33.4102 8.678,8.678 32.1085,26.0339 49.4644,42.9559" stroke="#0080ff" stroke-width="2" /><polyline fill="none" points="39.9186,47.2949 34.7119,36.8814 28.6373,28.6373 47.7288,45.1254" stroke="#15ffe1" stroke-width="2" /><polyline fill="none" points="81.5729,42.9559 93.2881,36.4475 108.0407,32.5424 98.061,44.2576 91.9864,55.1051" stroke="#7cff79" stroke-width="2" /><polyline fill="none" points="40.3525,92.4203 49.0305,99.3627 56.8407,101.0983 61.6136,98.061 62.9153,95.8915 62.9153,85.478 67.2542,95.0237 73.3288,99.3627 78.1017,98.9288 81.5729,91.5525" stroke="#e4ff12" stroke-width="2" /><polyline fill="none" points="62.0475,79.4034 61.1797,82.8746 62.4814,87.2136 65.0847,88.9492 67.6881,86.7797 67.6881,84.1763 65.0847,80.7051 62.4814,82.0068 62.9153,84.6102 64.6508,84.6102 64.2169,82.4407" stroke="#ff9400" stroke-width="2" /><polyline fill="none" points="47.2949,68.5559 48.1627,70.7254 51.2,73.7627 51.2,69.4237 49.8983,66.8203 49.8983,69.8576" stroke="#ff1d00" stroke-width="2" /><polyline fill="none" points="77.6678,72.8949 74.1966,68.9898 70.2915,68.9898 71.5932,73.7627 73.3288,74.1966 75.0644,70.2915 73.7627,67.6881 74.1966,69.8576" stroke="#7f0000" stroke-width="2" /></svg>