<?xml version="1.0" encoding="utf-8" ?>
<svg baseProfile="tiny" height="128" version="1.2" viewBox="0,0,128,128" width="128" xmlns="http://www.w3.org/2000/svg" xmlns:ev="http://www.w3.org/2001/xml-events" xmlns:xlink="http://www.w3.org/1999/xlink"><defs /><polyline fill="none" points="69.2245,68.7891 57.4694,66.1769 43.5374,54.8571 39.1837,47.8912 38.3129,43.5374 39.1837,38.7483 42.2313,33.9592 55.2925,24.381 73.1429,20.4626 82.2857,20.898 94.4762,23.9456 98.3946,26.1224 101.4422,31.7823 101.0068,40.4898 94.4762,49.6327 81.415,59.6463 68.3537,65.3061" stroke="#00007f" stroke-width="2" /><polyline fill="none" points="94.0408,33.5238 97.0884,26.5578 102.3129,20.4626 111.0204,14.3673 119.2925,11.3197 117.9864,18.2857 114.068,28.7347 98.8299,53.551" stroke="#0028ff" stroke-width="2" /><polyline fill="none" points="30.9116,43.9728 22.2041,18.7211 21.7687,9.5782 29.1701,8.7075 38.7483,11.7551 64.0,25.2517" stroke="#00d4ff" stroke-width="2" /><polyline fill="none" points="67.9184,55.7279 70.0952,60.517 74.0136,59.2109 79.2381,50.5034 82.7211,51.8095 86.2041,60.0816 88.381,56.1633 89.2517,46.585" stroke="#7cff79" stroke-width="2" /><polyline fill="none" points="60.0816,37.8776 60.0816,37.4422" stroke="#ffe500" stroke-width="2" /><polyline fill="none" points="90.5578,38.3129 90.5578,37.8776" stroke="#ff4600" stroke-width="2" /><polyline fill="none" points="97.9592,67.0476 83.5918,85.7687 77.0612,93.1701 72.2721,95.7823 68.3537,96.6531 33.0884,94.9116 19.5918,91.8639 12.6259,89.2517 8.7075,81.8503 9.1429,72.2721 11.7551,68.7891 21.3333,63.5646 34.3946,61.3878 49.6327,61.3878" stroke="#7f0000" stroke-width="2" /></svg>