<?xml version="1.0" encoding="utf-8" ?>
<svg baseProfile="tiny" height="128" version="1.2" viewBox="0,0,128,128" width="128" xmlns="http://www.w3.org/2000/svg" xmlns:ev="http://www.w3.org/2001/xml-events" xmlns:xlink="http://www.w3.org/1999/xlink"><defs /><polyline fill="none" points="84.1763,45.5593 79.8373,39.0508 75.4983,36.4475 63.7831,35.1458 57.2746,36.4475 42.522,43.3898 31.2407,57.2746 29.0712,62.9153 27.7695,72.461 30.3729,85.0441 32.5424,88.9492 48.1627,105.0034 63.7831,111.9458 78.1017,110.6441 92.8542,103.7017 98.9288,98.4949 105.8712,88.0814 106.3051,76.3661 95.4576,52.5017 88.5153,44.2576 78.5356,36.4475 70.2915,33.4102" stroke="#00007f" stroke-width="2" /><polyline fill="none" points="32.9763,51.2 29.939,48.5966 28.2034,44.2576 28.2034,22.1288 30.3729,16.922 38.1831,10.4136 44.2576,8.678 48.5966,9.5458 57.2746,16.0542 62.9153,24.7322 65.5186,35.1458" stroke="#0000de" stroke-width="2" /><polyline fill="none" points="74.1966,41.6542 75.4983,31.6746 83.7424,18.2237 90.2508,16.0542 98.061,16.0542 107.6068,19.9593 113.2475,27.7695 114.5492,38.6169 113.6814,45.9932 110.2102,55.1051 101.9661,67.2542" stroke="#0028ff" stroke-width="2" /><polyline fill="none" points="32.9763,44.6915 33.8441,36.8814 37.3153,27.3356 40.7864,24.7322 45.5593,25.6 50.7661,39.9186" stroke="#0080ff" stroke-width="2" /><polyline fill="none" points="78.9695,41.6542 81.139,39.4847 83.7424,32.9763 87.6475,27.7695 91.1186,26.4678 94.1559,26.9017 97.6271,31.2407 99.7966,39.9186 97.6271,53.3695" stroke="#00d4ff" stroke-width="2" /><polyline fill="none" points="38.6169,70.2915 8.678,71.5932" stroke="#36ffc0" stroke-width="2" /><polyline fill="none" points="39.9186,86.3458 27.7695,89.8169 12.5831,89.3831" stroke="#7cff79" stroke-width="2" /><polyline fill="none" points="52.5017,95.8915 31.6746,102.4" stroke="#c0ff36" stroke-width="2" /><polyline fill="none" points="82.8746,69.4237 95.0237,69.4237 117.5864,75.0644" stroke="#ffe500" stroke-width="2" /><polyline fill="none" points="89.8169,85.9119 102.8339,89.8169 119.322,89.3831" stroke="#ff9400" stroke-width="2" /><polyline fill="none" points="91.5525,106.3051 103.7017,108.9085 114.1153,112.8136" stroke="#ff4600" stroke-width="2" /><polyline fill="none" points="68.5559,79.4034 62.0475,79.4034 57.7085,82.4407 56.4068,85.9119 58.5763,89.3831 63.3492,91.1186 68.122,91.1186 71.5932,89.3831 74.1966,83.3085 67.2542,80.2712" stroke="#de0000" stroke-width="2" /><polyline fill="none" points="58.5763,50.3322 58.5763,50.3322" stroke="#7f0000" stroke-width="2" /></svg>