<?xml version="1.0" encoding="utf-8" ?>
<svg baseProfile="tiny" height="128" version="1.2" viewBox="0,0,128,128" width="128" xmlns="http://www.w3.org/2000/svg" xmlns:ev="http://www.w3.org/2001/xml-events" xmlns:xlink="http://www.w3.org/1999/xlink"><defs /><polyline fill="none" points="57.7085,38.1831 49.0305,41.2203 43.8237,51.2 42.0881,59.878 42.0881,73.7627 42.9559,80.2712 46.4271,88.9492 53.3695,95.4576 65.0847,98.9288 82.8746,99.7966 88.5153,97.6271 98.4949,89.8169 103.2678,80.2712 103.7017,74.6305 103.7017,61.6136 92.8542,45.1254 81.139,38.6169 71.5932,36.8814 62.4814,36.8814 56.8407,37.3153 40.7864,47.2949" stroke="#00007f" stroke-width="2" /><polyline fill="none" points="88.5153,43.8237 88.5153,35.5797 92.8542,27.7695 96.3254,24.2983 99.7966,24.2983 103.2678,26.9017 103.7017,39.9186 102.4,48.5966 99.3627,55.9729 96.3254,58.5763" stroke="#0000f1" stroke-width="2" /><polyline fill="none" points="61.1797,34.7119 64.6508,31.2407 64.6508,27.7695 59.0102,11.2814 54.6712,8.678 49.8983,10.4136 40.3525,16.4881 36.8814,23.8644 37.3153,32.9763 47.7288,51.2" stroke="#004cff" stroke-width="2" /><polyline fill="none" points="79.4034,62.0475 72.8949,59.0102 72.0271,63.7831 73.3288,66.8203 77.2339,68.122 81.139,67.6881 82.8746,65.0847 80.2712,64.2169" stroke="#00b0ff" stroke-width="2" /><polyline fill="none" points="55.539,63.3492 55.539,63.3492" stroke="#29ffcd" stroke-width="2" /><polyline fill="none" points="49.8983,58.5763 49.8983,67.2542 53.8034,70.7254 62.4814,71.5932 63.7831,67.2542 59.878,65.5186" stroke="#7cff79" stroke-width="2" /><polyline fill="none" points="72.8949,79.4034 68.5559,82.8746 55.539,82.8746" stroke="#cdff29" stroke-width="2" /><polyline fill="none" points="96.7593,74.6305 103.2678,68.9898 111.5119,63.7831 119.322,62.4814" stroke="#ffc400" stroke-width="2" /><polyline fill="none" points="96.7593,78.1017 101.9661,80.7051 107.1729,86.7797 117.1525,101.9661" stroke="#ff6700" stroke-width="2" /><polyline fill="none" points="89.8169,80.7051 90.6847,90.2508 96.7593,110.2102" stroke="#f10700" stroke-width="2" /><polyline fill="none" points="39.4847,66.8203 31.6746,65.9525 16.0542,60.3119 8.678,59.878" stroke="#7f0000" stroke-width="2" /></svg>