<?xml version="1.0" encoding="utf-8" ?>
<svg baseProfile="tiny" height="128" version="1.2" viewBox="0,0,128,128" width="128" xmlns="http://www.w3.org/2000/svg" xmlns:ev="http://www.w3.org/2001/xml-events" xmlns:xlink="http://www.w3.org/1999/xlink"><defs /><polyline fill="none" points="14.7525,17.3559 15.6203,9.5458 21.261,16.922" stroke="#00007f" stroke-width="2" /><polyline fill="none" points="32.5424,17.3559 36.8814,8.678 41.6542,17.3559" stroke="#0000e8" stroke-width="2" /><polyline fill="none" points="8.678,27.3356 10.8475,23.4305 17.7898,19.9593 42.9559,16.0542 49.0305,16.4881 52.5017,18.6576 55.539,24.2983 56.4068,29.0712 55.9729,47.7288 50.3322,57.7085 37.7492,65.0847 25.1661,66.3864 18.6576,62.4814 10.8475,45.9932 9.5458,38.1831 10.4136,29.0712" stroke="#0038ff" stroke-width="2" /><polyline fill="none" points="23.8644,33.8441 21.6949,34.7119 21.6949,39.4847 23.4305,42.0881 26.4678,42.522 27.7695,37.3153 24.2983,33.4102" stroke="#0094ff" stroke-width="2" /><polyline fill="none" points="35.1458,29.939 34.278,33.4102 36.4475,38.6169 38.6169,40.3525 39.9186,37.3153 38.6169,33.4102 35.1458,31.2407" stroke="#0cf4ea" stroke-width="2" /><polyline fill="none" points="29.0712,59.0102 29.939,54.2373 32.9763,52.0678 36.4475,53.3695 38.6169,57.7085" stroke="#56ffa0" stroke-width="2" /><polyline fill="none" points="28.6373,59.0102 38.1831,56.4068" stroke="#a0ff56" stroke-width="2" /><polyline fill="none" points="35.1458,68.9898 52.0678,63.7831 73.3288,49.4644 84.6102,43.8237 98.9288,42.0881 110.6441,47.7288 114.1153,52.0678 118.4542,59.878 119.322,67.2542 113.2475,78.1017 104.1356,85.0441 84.1763,93.2881 67.6881,97.1932 49.0305,97.6271 36.4475,91.5525 29.939,82.8746 29.5051,75.4983 37.3153,68.122 39.0508,65.0847" stroke="#eaff0c" stroke-width="2" /><polyline fill="none" points="23.4305,50.7661 15.1864,48.5966" stroke="#ffaa00" stroke-width="2" /><polyline fill="none" points="23.8644,54.2373 18.6576,54.6712" stroke="#ff5500" stroke-width="2" /><polyline fill="none" points="44.2576,48.1627 50.7661,42.522" stroke="#e80000" stroke-width="2" /><polyline fill="none" points="45.5593,53.3695 50.3322,50.7661" stroke="#7f0000" stroke-width="2" /></svg>