<?xml version="1.0" encoding="utf-8" ?>
<svg baseProfile="tiny" height="128" version="1.2" viewBox="0,0,128,128" width="128" xmlns="http://www.w3.org/2000/svg" xmlns:ev="http://www.w3.org/2001/xml-events" xmlns:xlink="http://www.w3.org/1999/xlink"><defs /><polyline fill="none" points="13.0169,58.5763 14.3186,52.0678 16.0542,8.678 17.3559,8.678 19.0915,11.7153 29.5051,39.0508 30.3729,36.8814" stroke="#00007f" stroke-width="2" /><polyline fill="none" points="29.0712,37.3153 45.9932,35.5797 60.7458,38.6169 80.2712,45.9932" stroke="#0080ff" stroke-width="2" /><polyline fill="none" points="80.7051,42.522 85.0441,33.4102 95.4576,19.0915 107.1729,49.4644" stroke="#7cff79" stroke-width="2" /><polyline fill="none" points="11.2814,58.1424 8.678,68.122 10.8475,79.4034 16.922,91.5525 23.4305,98.9288 35.5797,106.739 53.8034,114.9831 68.5559,119.322 81.5729,119.322 92.8542,114.9831 97.6271,111.078 101.5322,105.8712 105.8712,94.5898 108.0407,85.0441 108.0407,50.7661" stroke="#ff9400" stroke-width="2" /><polyline fill="none" points="44.2576,55.9729 39.9186,55.9729 37.3153,58.1424 38.6169,59.878 42.522,59.878 45.1254,59.0102 43.8237,58.1424 37.3153,56.8407 41.2203,55.9729 42.0881,58.5763 41.6542,60.3119 36.4475,58.5763 36.0136,55.539 39.4847,54.2373 49.4644,55.9729 49.8983,57.2746 46.861,59.0102 41.2203,59.0102 39.0508,55.9729 42.0881,55.9729 42.9559,58.1424 45.1254,57.2746" stroke="#7f0000" stroke-width="2" /></svg>