<?xml version="1.0" encoding="utf-8" ?>
<svg baseProfile="tiny" height="128" version="1.2" viewBox="0,0,128,128" width="128" xmlns="http://www.w3.org/2000/svg" xmlns:ev="http://www.w3.org/2001/xml-events" xmlns:xlink="http://www.w3.org/1999/xlink"><defs /><polyline fill="none" points="44.2576,46.861 22.9966,45.9932 11.2814,50.3322 8.678,54.6712 8.678,96.3254 12.1492,101.9661 25.1661,112.3797 40.3525,117.5864 50.3322,119.322 65.0847,118.4542 78.5356,109.3424 88.5153,95.4576 95.4576,82.4407 100.2305,67.6881 103.7017,51.2 103.7017,44.6915 102.8339,40.3525 97.6271,34.278 84.1763,28.6373 69.4237,28.6373 55.1051,40.3525 42.9559,44.2576 33.8441,44.2576" stroke="#00007f" stroke-width="2" /><polyline fill="none" points="17.7898,46.861 16.922,32.9763 37.7492,60.3119" stroke="#0010ff" stroke-width="2" /><polyline fill="none" points="62.0475,31.2407 62.9153,19.5254 65.5186,8.678 73.7627,34.278" stroke="#00a4ff" stroke-width="2" /><polyline fill="none" points="31.2407,74.1966 35.1458,71.1593 36.0136,66.8203 35.1458,72.0271" stroke="#3fffb7" stroke-width="2" /><polyline fill="none" points="69.4237,72.0271 69.4237,72.0271" stroke="#b7ff3f" stroke-width="2" /><polyline fill="none" points="51.2,82.8746 49.4644,81.139" stroke="#ffb900" stroke-width="2" /><polyline fill="none" points="49.4644,81.139 44.2576,93.722 41.2203,97.6271 30.3729,98.4949" stroke="#ff3000" stroke-width="2" /><polyline fill="none" points="46.861,85.0441 49.0305,89.3831 57.7085,95.0237" stroke="#7f0000" stroke-width="2" /></svg>