<?xml version="1.0" encoding="utf-8" ?>
<svg baseProfile="tiny" height="128" version="1.2" viewBox="0,0,128,128" width="128" xmlns="http://www.w3.org/2000/svg" xmlns:ev="http://www.w3.org/2001/xml-events" xmlns:xlink="http://www.w3.org/1999/xlink"><defs /><polyline fill="none" points="33.8441,47.7288 28.2034,47.2949 22.9966,49.0305 12.1492,55.539 8.678,61.1797 8.678,68.122 13.4508,76.8 23.8644,82.4407 33.4102,82.4407 39.4847,78.1017 42.0881,70.2915 42.0881,61.1797 39.4847,54.6712 32.9763,49.0305" stroke="#00007f" stroke-width="2" /><polyline fill="none" points="36.4475,50.3322 30.3729,34.7119 26.9017,45.5593" stroke="#0000c8" stroke-width="2" /><polyline fill="none" points="21.6949,45.1254 21.261,42.522 15.6203,34.7119 14.7525,51.2" stroke="#0000ff" stroke-width="2" /><polyline fill="none" points="44.6915,69.4237 58.1424,68.5559 66.8203,70.7254 77.2339,78.9695 80.2712,84.1763 80.7051,88.9492 69.8576,91.9864 51.6339,91.5525 37.7492,85.478 32.1085,78.9695" stroke="#0040ff" stroke-width="2" /><polyline fill="none" points="74.6305,80.7051 81.139,77.2339 85.478,62.9153 85.9119,47.2949 82.0068,26.0339 82.0068,17.7898 85.0441,11.7153 91.9864,8.678 95.8915,8.678 92.4203,10.4136" stroke="#0080ff" stroke-width="2" /><polyline fill="none" points="70.2915,91.1186 70.2915,119.322" stroke="#00c0ff" stroke-width="2" /><polyline fill="none" points="52.5017,92.4203 54.6712,97.6271 55.9729,114.5492" stroke="#15ffe1" stroke-width="2" /><polyline fill="none" points="46.861,91.1186 44.6915,108.4746" stroke="#49ffad" stroke-width="2" /><polyline fill="none" points="38.1831,87.6475 36.8814,98.061 33.8441,108.9085" stroke="#7cff79" stroke-width="2" /><polyline fill="none" points="26.9017,64.2169 26.9017,62.4814 30.3729,69.4237 35.5797,74.6305" stroke="#b0ff46" stroke-width="2" /><polyline fill="none" points="26.0339,62.4814 24.7322,68.122 19.9593,71.5932 16.922,72.0271" stroke="#e4ff12" stroke-width="2" /><polyline fill="none" points="23.8644,53.3695 23.8644,53.3695" stroke="#ffcf00" stroke-width="2" /><polyline fill="none" points="30.8068,54.2373 30.8068,54.2373" stroke="#ff9400" stroke-width="2" /><polyline fill="none" points="30.8068,65.0847 35.1458,63.3492" stroke="#ff5900" stroke-width="2" /><polyline fill="none" points="30.3729,65.9525 35.5797,65.5186" stroke="#ff1d00" stroke-width="2" /><polyline fill="none" points="33.8441,70.2915 37.7492,68.5559" stroke="#c30000" stroke-width="2" /><polyline fill="none" points="27.7695,54.2373 27.7695,54.2373" stroke="#7f0000" stroke-width="2" /></svg>