<?xml version="1.0" encoding="utf-8" ?>
<svg baseProfile="tiny" height="128" version="1.2" viewBox="0,0,128,128" width="128" xmlns="http://www.w3.org/2000/svg" xmlns:ev="http://www.w3.org/2001/xml-events" xmlns:xlink="http://www.w3.org/1999/xlink"><defs /><polyline fill="none" points="50.3322,25.1661 47.2949,25.1661 43.8237,29.939 42.9559,40.3525 45.5593,45.5593 55.1051,54.6712 64.6508,58.5763 86.7797,59.878 94.1559,57.7085 98.9288,51.6339 98.061,42.522 94.1559,34.7119 89.3831,30.3729 77.2339,24.2983 68.5559,22.1288 49.4644,21.261 41.6542,23.8644 39.4847,13.4508 39.4847,9.9797 41.2203,8.678 47.7288,15.1864 50.7661,19.9593" stroke="#00007f" stroke-width="2" /><polyline fill="none" points="79.8373,24.2983 93.2881,12.1492 93.722,19.5254 88.9492,28.2034" stroke="#0010ff" stroke-width="2" /><polyline fill="none" points="82.0068,46.4271 114.9831,41.6542" stroke="#00a4ff" stroke-width="2" /><polyline fill="none" points="83.7424,51.6339 119.322,51.6339" stroke="#3fffb7" stroke-width="2" /><polyline fill="none" points="50.3322,42.0881 10.8475,42.0881 8.678,43.3898" stroke="#b7ff3f" stroke-width="2" /><polyline fill="none" points="55.1051,46.861 16.0542,57.2746" stroke="#ffb900" stroke-width="2" /><polyline fill="none" points="58.1424,36.4475 59.0102,34.7119" stroke="#ff3000" stroke-width="2" /><polyline fill="none" points="78.5356,34.278 77.6678,36.0136" stroke="#7f0000" stroke-width="2" /></svg>