<?xml version="1.0" encoding="utf-8" ?>
<svg baseProfile="tiny" height="128" version="1.2" viewBox="0,0,128,128" width="128" xmlns="http://www.w3.org/2000/svg" xmlns:ev="http://www.w3.org/2001/xml-events" xmlns:xlink="http://www.w3.org/1999/xlink"><defs /><polyline fill="none" points="47.7288,46.4271 44.2576,51.2 40.7864,64.6508 41.6542,91.5525 47.2949,104.5695 54.2373,112.3797 62.0475,114.5492 69.8576,113.2475 74.6305,109.7763 78.1017,104.5695 83.7424,88.9492 85.0441,65.5186 81.139,47.2949 76.3661,39.0508 70.2915,34.7119 57.2746,32.9763 51.6339,33.4102 47.2949,36.8814 43.3898,48.1627" stroke="#00007f" stroke-width="2" /><polyline fill="none" points="45.5593,59.0102 51.2,61.1797 54.6712,60.7458 56.4068,59.0102 54.6712,54.2373 50.3322,53.8034 48.1627,55.539" stroke="#0000fe" stroke-width="2" /><polyline fill="none" points="67.2542,55.9729 69.4237,60.3119 72.0271,60.7458 74.6305,59.4441 75.9322,56.4068 73.3288,52.5017 68.9898,52.0678 66.8203,53.8034 65.5186,56.4068" stroke="#0060ff" stroke-width="2" /><polyline fill="none" points="59.4441,75.4983 59.4441,77.2339 61.6136,77.2339 61.1797,75.9322" stroke="#00d4ff" stroke-width="2" /><polyline fill="none" points="59.4441,75.9322 65.9525,72.0271 83.7424,65.5186 103.7017,63.7831" stroke="#4cffaa" stroke-width="2" /><polyline fill="none" points="62.9153,77.2339 87.6475,74.1966 107.1729,74.1966 117.1525,76.3661 119.322,78.1017 119.322,81.5729" stroke="#aaff4c" stroke-width="2" /><polyline fill="none" points="61.6136,74.1966 58.5763,72.461 33.8441,68.9898 18.2237,69.4237" stroke="#ffe500" stroke-width="2" /><polyline fill="none" points="54.6712,79.8373 46.861,74.6305 37.7492,74.6305 22.5627,79.8373 8.678,87.2136" stroke="#ff7a00" stroke-width="2" /><polyline fill="none" points="77.6678,29.939 77.2339,22.5627 83.7424,13.8847 93.2881,8.678 98.4949,8.678 99.7966,10.8475 101.0983,14.3186 100.2305,23.8644 88.5153,41.6542 84.1763,45.1254" stroke="#fe1200" stroke-width="2" /><polyline fill="none" points="52.0678,39.4847 50.7661,32.9763 46.861,26.4678 42.0881,20.3932 36.8814,17.3559 27.7695,16.4881 23.8644,20.3932 22.5627,23.4305" stroke="#7f0000" stroke-width="2" /></svg>