<?xml version="1.0" encoding="utf-8" ?>
<svg baseProfile="tiny" height="128" version="1.2" viewBox="0,0,128,128" width="128" xmlns="http://www.w3.org/2000/svg" xmlns:ev="http://www.w3.org/2001/xml-events" xmlns:xlink="http://www.w3.org/1999/xlink"><defs /><polyline fill="none" points="8.678,19.5254 8.678,30.3729 10.4136,17.7898 18.2237,27.7695 42.522,25.6 54.2373,27.7695 64.2169,18.2237 65.5186,17.3559 66.3864,18.2237 66.8203,34.7119 65.0847,40.7864 55.1051,56.4068 46.4271,59.0102 32.9763,59.0102 19.0915,49.0305 12.5831,40.7864 11.7153,26.9017" stroke="#00007f" stroke-width="2" /><polyline fill="none" points="32.1085,43.3898 42.0881,46.861 44.2576,43.3898 51.6339,37.7492" stroke="#0000d1" stroke-width="2" /><polyline fill="none" points="45.1254,45.1254 35.1458,52.9356" stroke="#0010ff" stroke-width="2" /><polyline fill="none" points="44.2576,45.9932 53.8034,52.0678" stroke="#0058ff" stroke-width="2" /><polyline fill="none" points="30.3729,29.5051 32.5424,35.1458" stroke="#00a4ff" stroke-width="2" /><polyline fill="none" points="42.522,31.2407 42.522,35.5797" stroke="#05ecf1" stroke-width="2" /><polyline fill="none" points="42.522,49.0305 41.6542,54.2373 43.3898,55.1051 48.5966,52.5017 47.7288,49.4644" stroke="#3fffb7" stroke-width="2" /><polyline fill="none" points="63.7831,26.0339 66.3864,21.261 62.0475,27.7695 65.5186,29.5051" stroke="#7cff79" stroke-width="2" /><polyline fill="none" points="13.8847,19.5254 13.8847,28.2034 12.5831,27.7695" stroke="#b7ff3f" stroke-width="2" /><polyline fill="none" points="65.5186,39.9186 77.2339,36.4475 91.9864,36.8814 99.7966,42.9559 101.9661,49.4644 94.1559,56.8407 81.139,61.1797 64.2169,61.1797 52.9356,59.4441 52.5017,58.5763 56.4068,57.7085" stroke="#f1fc05" stroke-width="2" /><polyline fill="none" points="65.5186,62.4814 66.3864,66.3864 65.0847,68.9898 57.7085,72.461 53.3695,77.6678 61.1797,78.1017 63.3492,76.8 68.9898,78.1017 74.6305,76.3661 75.4983,65.9525 74.6305,62.0475" stroke="#ffb900" stroke-width="2" /><polyline fill="none" points="87.2136,58.5763 85.0441,72.8949 87.2136,74.1966 98.9288,72.0271 98.061,63.3492 94.1559,59.878" stroke="#ff7300" stroke-width="2" /><polyline fill="none" points="100.2305,55.539 103.7017,57.7085 105.0034,64.6508 110.6441,66.8203 113.2475,59.878 111.078,55.539 105.0034,51.2" stroke="#ff3000" stroke-width="2" /><polyline fill="none" points="62.4814,58.1424 55.1051,62.9153 48.1627,70.7254 63.3492,70.7254 65.5186,68.5559" stroke="#d10000" stroke-width="2" /><polyline fill="none" points="98.061,40.3525 104.5695,26.4678 107.1729,12.5831 109.7763,8.678 116.7186,9.5458 119.322,19.0915 116.7186,23.4305 101.5322,37.3153" stroke="#7f0000" stroke-width="2" /></svg>