<?xml version="1.0" encoding="utf-8" ?>
<svg baseProfile="tiny" height="128" version="1.2" viewBox="0,0,128,128" width="128" xmlns="http://www.w3.org/2000/svg" xmlns:ev="http://www.w3.org/2001/xml-events" xmlns:xlink="http://www.w3.org/1999/xlink"><defs /><polyline fill="none" points="20.3932,42.9559 14.7525,49.8983 9.5458,58.5763 8.678,65.0847 11.2814,69.4237 20.8271,76.3661 30.8068,76.8 35.1458,75.0644 40.7864,67.2542 42.522,56.8407 41.6542,52.0678 36.8814,45.1254 32.9763,43.8237 28.6373,43.8237 18.2237,49.4644" stroke="#00007f" stroke-width="2" /><polyline fill="none" points="22.5627,63.3492 28.2034,64.6508 32.1085,62.9153 32.5424,65.0847 28.6373,68.9898 26.9017,68.5559 25.6,62.4814" stroke="#0000bf" stroke-width="2" /><polyline fill="none" points="29.0712,68.122 23.4305,72.0271" stroke="#0000fe" stroke-width="2" /><polyline fill="none" points="31.2407,70.2915 35.5797,72.461" stroke="#0028ff" stroke-width="2" /><polyline fill="none" points="19.9593,57.2746 19.9593,56.8407" stroke="#0060ff" stroke-width="2" /><polyline fill="none" points="31.6746,54.2373 30.8068,54.2373" stroke="#009cff" stroke-width="2" /><polyline fill="none" points="15.1864,45.1254 13.4508,44.2576 14.7525,36.8814 24.2983,44.2576" stroke="#00d4ff" stroke-width="2" /><polyline fill="none" points="35.5797,43.3898 40.7864,36.8814 42.9559,37.7492 46.4271,53.3695" stroke="#1fffd7" stroke-width="2" /><polyline fill="none" points="45.1254,65.9525 70.7254,63.3492 88.0814,67.6881 95.4576,68.122" stroke="#4cffaa" stroke-width="2" /><polyline fill="none" points="33.8441,75.0644 37.3153,77.6678 49.0305,81.5729 67.2542,83.7424 77.2339,83.7424 101.0983,78.5356 111.078,75.0644 111.5119,72.461 108.9085,69.8576 99.7966,65.9525" stroke="#7cff79" stroke-width="2" /><polyline fill="none" points="96.3254,62.4814 106.3051,59.4441 113.2475,51.6339 114.5492,45.5593 111.9458,41.6542 105.0034,39.0508 96.3254,38.6169 104.5695,26.4678 111.078,10.8475 113.2475,8.678 119.322,9.9797" stroke="#aaff4c" stroke-width="2" /><polyline fill="none" points="43.3898,83.3085 44.6915,95.0237 47.2949,95.8915 50.7661,94.5898 54.6712,89.8169 55.9729,86.3458 55.1051,80.2712 51.2,78.1017" stroke="#d7ff1f" stroke-width="2" /><polyline fill="none" points="65.0847,81.5729 65.9525,89.8169 68.5559,91.5525 70.2915,91.5525 71.1593,88.0814 70.2915,84.6102 67.2542,82.0068" stroke="#ffe500" stroke-width="2" /><polyline fill="none" points="85.0441,84.1763 82.8746,87.6475 82.4407,93.2881 88.9492,99.3627 91.5525,98.061 91.5525,85.9119 88.0814,78.5356" stroke="#ffb100" stroke-width="2" /><polyline fill="none" points="98.4949,76.3661 98.4949,78.5356 101.9661,83.3085 103.2678,80.2712 103.2678,74.6305" stroke="#ff7a00" stroke-width="2" /><polyline fill="none" points="48.1627,65.5186 50.3322,64.6508 52.0678,66.3864 51.2,71.5932 52.5017,69.4237 55.1051,68.9898 55.1051,78.5356" stroke="#ff4600" stroke-width="2" /><polyline fill="none" points="68.9898,63.7831 72.8949,64.2169 74.1966,68.122 80.2712,67.6881" stroke="#fe1200" stroke-width="2" /><polyline fill="none" points="92.8542,65.0847 91.5525,69.8576 92.8542,72.0271 97.1932,68.9898 101.5322,73.7627" stroke="#bf0000" stroke-width="2" /><polyline fill="none" points="66.8203,75.4983 88.9492,79.8373" stroke="#7f0000" stroke-width="2" /></svg>