<?xml version="1.0" encoding="utf-8" ?>
<svg baseProfile="tiny" height="128" version="1.2" viewBox="0,0,128,128" width="128" xmlns="http://www.w3.org/2000/svg" xmlns:ev="http://www.w3.org/2001/xml-events" xmlns:xlink="http://www.w3.org/1999/xlink"><defs /><polyline fill="none" points="9.1119,44.6915 8.678,13.0169 10.4136,17.7898 26.0339,42.9559 27.7695,34.7119 33.4102,27.7695 42.0881,24.2983 49.0305,23.4305 56.8407,24.2983 60.3119,26.4678 73.3288,42.9559 74.6305,25.1661 77.6678,12.1492 79.4034,8.678 80.7051,9.5458 86.3458,31.2407 88.5153,47.7288 92.8542,48.1627 95.0237,53.3695 96.3254,64.6508 95.8915,90.2508 91.5525,101.0983 86.7797,108.9085 76.3661,116.2847 55.539,119.322 42.522,118.8881 35.1458,116.7186 27.3356,112.8136 21.6949,107.1729 16.0542,98.4949 12.5831,86.3458 10.4136,67.2542 10.4136,53.3695 15.1864,45.1254" stroke="#00007f" stroke-width="2" /><polyline fill="none" points="49.8983,79.4034 51.2,92.4203 52.9356,93.722 57.7085,93.722 59.0102,92.8542 59.0102,82.4407 58.1424,80.2712 50.7661,81.139" stroke="#0000cc" stroke-width="2" /><polyline fill="none" points="57.7085,95.8915 59.0102,108.4746 61.1797,109.3424 65.5186,107.6068 74.6305,99.3627" stroke="#0008ff" stroke-width="2" /><polyline fill="none" points="62.0475,108.9085 46.861,109.7763 40.7864,106.3051" stroke="#004cff" stroke-width="2" /><polyline fill="none" points="68.122,49.8983 67.6881,59.878" stroke="#0090ff" stroke-width="2" /><polyline fill="none" points="42.522,53.8034 42.522,60.3119" stroke="#00d4ff" stroke-width="2" /><polyline fill="none" points="57.7085,102.4 67.2542,97.1932" stroke="#29ffcd" stroke-width="2" /><polyline fill="none" points="58.1424,99.3627 72.461,89.8169" stroke="#5fff96" stroke-width="2" /><polyline fill="none" points="59.0102,103.2678 75.4983,101.9661" stroke="#96ff5f" stroke-width="2" /><polyline fill="none" points="52.9356,98.9288 39.9186,98.4949" stroke="#cdff29" stroke-width="2" /><polyline fill="none" points="57.2746,100.6644 54.6712,99.7966 43.3898,103.2678" stroke="#ffe500" stroke-width="2" /><polyline fill="none" points="60.7458,102.4 54.6712,104.1356 52.0678,107.6068" stroke="#ffa600" stroke-width="2" /><polyline fill="none" points="88.0814,89.3831 88.0814,89.3831" stroke="#ff6700" stroke-width="2" /><polyline fill="none" points="84.6102,82.8746 84.6102,82.8746" stroke="#ff2800" stroke-width="2" /><polyline fill="none" points="80.2712,81.5729 80.2712,81.5729" stroke="#cc0000" stroke-width="2" /><polyline fill="none" points="71.1593,84.1763 71.1593,84.1763" stroke="#7f0000" stroke-width="2" /></svg>