<?xml version="1.0" encoding="utf-8" ?>
<svg baseProfile="tiny" height="128" version="1.2" viewBox="0,0,128,128" width="128" xmlns="http://www.w3.org/2000/svg" xmlns:ev="http://www.w3.org/2001/xml-events" xmlns:xlink="http://www.w3.org/1999/xlink"><defs /><polyline fill="none" points="85.478,55.539 68.5559,51.6339 52.9356,49.8983 26.4678,49.4644 16.0542,55.539 11.2814,63.7831 8.678,78.1017 8.678,96.3254 12.5831,105.0034 16.0542,109.3424 24.7322,116.2847 31.6746,118.8881 44.6915,119.322 55.1051,117.1525 80.2712,103.7017 87.2136,98.4949 93.2881,92.8542 104.5695,75.9322 108.9085,59.878 108.9085,48.5966 102.8339,41.2203 91.9864,36.8814" stroke="#00007f" stroke-width="2" /><polyline fill="none" points="31.2407,45.1254 22.9966,35.1458 13.0169,16.922 8.678,64.6508" stroke="#0028ff" stroke-width="2" /><polyline fill="none" points="53.3695,45.9932 62.4814,42.522 80.2712,27.7695 109.7763,8.678 110.6441,10.8475 108.0407,19.9593 98.061,45.9932" stroke="#00d4ff" stroke-width="2" /><polyline fill="none" points="26.9017,65.5186 32.1085,62.9153 40.3525,62.9153" stroke="#7cff79" stroke-width="2" /><polyline fill="none" points="29.0712,69.4237 29.939,73.7627 33.4102,75.0644 35.5797,74.6305 36.8814,70.2915 34.7119,68.9898 30.8068,68.9898" stroke="#ffe500" stroke-width="2" /><polyline fill="none" points="58.5763,62.9153 65.9525,64.6508" stroke="#ff4600" stroke-width="2" /><polyline fill="none" points="56.4068,67.6881 57.2746,71.5932 60.7458,70.2915" stroke="#7f0000" stroke-width="2" /></svg>