<?xml version="1.0" encoding="utf-8" ?>
<svg baseProfile="tiny" height="128" version="1.2" viewBox="0,0,128,128" width="128" xmlns="http://www.w3.org/2000/svg" xmlns:ev="http://www.w3.org/2001/xml-events" xmlns:xlink="http://www.w3.org/1999/xlink"><defs /><polyline fill="none" points="43.9728,68.3537 43.9728,68.3537" stroke="#00007f" stroke-width="2" /><polyline fill="none" points="43.9728,68.3537 44.8435,94.9116" stroke="#0000fe" stroke-width="2" /><polyline fill="none" points="66.6122,94.4762 63.1293,64.0" stroke="#0060ff" stroke-width="2" /><polyline fill="none" points="76.6259,65.3061 79.2381,89.6871" stroke="#00d4ff" stroke-width="2" /><polyline fill="none" points="90.5578,90.5578 87.5102,57.034" stroke="#4cffaa" stroke-width="2" /><polyline fill="none" points="39.1837,65.7415 50.9388,62.6939 69.6599,64.4354 74.0136,63.5646 80.5442,60.9524 87.0748,52.6803 90.9932,50.5034 114.9388,51.3741 117.9864,48.3265 119.2925,43.102" stroke="#aaff4c" stroke-width="2" /><polyline fill="none" points="117.551,42.2313 106.6667,30.4762 99.2653,26.5578 85.3333,29.6054 64.4354,38.3129 38.7483,43.102 29.1701,48.7619 26.9932,54.4218 15.2381,70.0952 8.7075,83.1565 9.5782,94.0408 12.6259,96.2177 16.9796,96.6531 20.0272,93.6054 31.7823,71.8367 39.1837,65.7415" stroke="#ffe500" stroke-width="2" /><polyline fill="none" points="98.8299,23.0748 102.3129,20.0272 103.619,16.1088 105.3605,15.6735 106.6667,30.0408" stroke="#ff7a00" stroke-width="2" /><polyline fill="none" points="108.8435,31.7823 110.585,18.2857 113.6327,12.1905 117.551,11.3197 117.9864,13.4966 112.7619,35.7007" stroke="#fe1200" stroke-width="2" /><polyline fill="none" points="104.9252,26.5578 102.3129,8.7075" stroke="#7f0000" stroke-width="2" /></svg>