<?xml version="1.0" encoding="utf-8" ?>
<svg baseProfile="tiny" height="128" version="1.2" viewBox="0,0,128,128" width="128" xmlns="http://www.w3.org/2000/svg" xmlns:ev="http://www.w3.org/2001/xml-events" xmlns:xlink="http://www.w3.org/1999/xlink"><defs /><polyline fill="none" points="86.3458,21.6949 77.2339,20.3932 57.2746,21.6949 45.1254,26.4678 33.4102,36.8814 29.0712,43.3898 26.4678,50.7661 25.6,59.4441 26.9017,67.6881 30.3729,75.4983 35.1458,81.139 40.3525,83.7424 52.0678,84.1763 63.7831,79.8373 75.4983,70.7254 89.3831,52.5017 93.722,42.0881 94.1559,32.5424 87.6475,24.2983 82.0068,21.261 78.9695,21.261" stroke="#00007f" stroke-width="2" /><polyline fill="none" points="39.0508,31.2407 46.861,10.4136 52.5017,22.1288" stroke="#0000ff" stroke-width="2" /><polyline fill="none" points="73.3288,18.6576 88.5153,8.678 88.0814,25.6" stroke="#0080ff" stroke-width="2" /><polyline fill="none" points="62.9153,55.9729 76.3661,56.4068 119.322,54.6712" stroke="#15ffe1" stroke-width="2" /><polyline fill="none" points="54.2373,68.5559 91.5525,67.2542" stroke="#7cff79" stroke-width="2" /><polyline fill="none" points="72.0271,62.4814 98.4949,62.0475 103.7017,60.7458 105.0034,59.4441" stroke="#e4ff12" stroke-width="2" /><polyline fill="none" points="39.0508,55.1051 29.0712,53.8034 8.678,46.861" stroke="#ff9400" stroke-width="2" /><polyline fill="none" points="34.7119,55.1051 26.0339,57.7085 8.678,59.0102" stroke="#ff1d00" stroke-width="2" /><polyline fill="none" points="30.8068,62.0475 22.5627,68.5559 12.1492,74.6305" stroke="#7f0000" stroke-width="2" /></svg>