<?xml version="1.0" encoding="utf-8" ?>
<svg baseProfile="tiny" height="128" version="1.2" viewBox="0,0,128,128" width="128" xmlns="http://www.w3.org/2000/svg" xmlns:ev="http://www.w3.org/2001/xml-events" xmlns:xlink="http://www.w3.org/1999/xlink"><defs /><polyline fill="none" points="88.0814,32.1085 80.7051,24.7322 68.5559,21.261 52.0678,22.5627 27.7695,29.5051 19.5254,35.5797 16.0542,41.6542 13.4508,51.2 15.6203,58.1424 29.939,67.2542 50.3322,72.8949 68.9898,72.8949 85.478,67.6881 89.8169,61.6136 91.1186,55.539 91.5525,41.2203 85.9119,23.8644 83.7424,22.5627 80.2712,23.8644" stroke="#00007f" stroke-width="2" /><polyline fill="none" points="47.7288,36.8814 48.5966,41.2203" stroke="#0000de" stroke-width="2" /><polyline fill="none" points="58.5763,37.3153 58.1424,41.6542" stroke="#0028ff" stroke-width="2" /><polyline fill="none" points="42.0881,50.7661 45.1254,54.6712 50.7661,58.1424 59.4441,57.7085" stroke="#0080ff" stroke-width="2" /><polyline fill="none" points="56.4068,51.6339 59.0102,49.8983" stroke="#00d4ff" stroke-width="2" /><polyline fill="none" points="62.9153,48.5966 76.8,45.5593 119.322,45.1254" stroke="#36ffc0" stroke-width="2" /><polyline fill="none" points="71.1593,52.0678 94.5898,59.4441 100.2305,62.9153" stroke="#7cff79" stroke-width="2" /><polyline fill="none" points="65.5186,59.878 83.7424,73.7627" stroke="#c0ff36" stroke-width="2" /><polyline fill="none" points="43.3898,44.6915 29.0712,32.9763 19.9593,29.5051" stroke="#ffe500" stroke-width="2" /><polyline fill="none" points="33.4102,42.0881 16.0542,42.522 8.678,43.8237" stroke="#ff9400" stroke-width="2" /><polyline fill="none" points="33.4102,47.7288 19.5254,53.3695 14.7525,56.8407" stroke="#ff4600" stroke-width="2" /><polyline fill="none" points="36.4475,26.0339 46.861,8.678 49.0305,9.1119 61.6136,26.9017" stroke="#de0000" stroke-width="2" /><polyline fill="none" points="75.9322,20.3932 95.4576,11.2814 95.4576,29.939 91.9864,33.8441" stroke="#7f0000" stroke-width="2" /></svg>