<?xml version="1.0" encoding="utf-8" ?>
<svg baseProfile="tiny" height="128" version="1.2" viewBox="0,0,128,128" width="128" xmlns="http://www.w3.org/2000/svg" xmlns:ev="http://www.w3.org/2001/xml-events" xmlns:xlink="http://www.w3.org/1999/xlink"><defs /><polyline fill="none" points="35.5797,34.278 29.939,41.2203 25.1661,52.9356 24.7322,67.6881 26.4678,72.0271 34.278,82.8746 42.522,89.3831 49.8983,92.4203 68.5559,93.722 75.9322,91.5525 83.3085,86.7797 89.3831,79.4034 96.3254,65.9525 96.3254,46.4271 92.4203,39.0508 84.6102,31.2407" stroke="#00007f" stroke-width="2" /><polyline fill="none" points="37.7492,32.1085 48.5966,27.3356 67.2542,24.7322 76.3661,24.7322 84.6102,26.9017" stroke="#0000cc" stroke-width="2" /><polyline fill="none" points="26.4678,42.522 22.9966,40.3525 20.3932,30.3729 19.5254,15.6203 22.1288,13.4508 28.6373,13.8847 42.522,22.9966" stroke="#0008ff" stroke-width="2" /><polyline fill="none" points="79.4034,24.2983 79.4034,18.6576 84.6102,13.0169 94.1559,8.678 99.3627,8.678 100.6644,25.1661 97.1932,29.939 91.1186,35.5797" stroke="#004cff" stroke-width="2" /><polyline fill="none" points="48.5966,49.8983 45.9932,52.0678 45.5593,50.3322" stroke="#0090ff" stroke-width="2" /><polyline fill="none" points="76.3661,47.2949 79.4034,46.861 76.8,49.0305 75.4983,46.4271 78.1017,45.1254" stroke="#00d4ff" stroke-width="2" /><polyline fill="none" points="55.539,65.9525 58.5763,60.3119 61.1797,59.0102 64.2169,58.5763 66.3864,61.6136 66.3864,66.8203 62.4814,68.5559 57.2746,68.5559 55.1051,64.6508" stroke="#29ffcd" stroke-width="2" /><polyline fill="none" points="61.1797,68.5559 61.1797,75.4983 55.9729,80.2712 49.0305,80.2712 45.9932,75.9322" stroke="#5fff96" stroke-width="2" /><polyline fill="none" points="60.3119,65.9525 63.3492,72.461 69.8576,77.2339 73.7627,76.8 78.5356,71.1593" stroke="#96ff5f" stroke-width="2" /><polyline fill="none" points="45.5593,63.3492 27.7695,58.1424 13.0169,48.5966" stroke="#cdff29" stroke-width="2" /><polyline fill="none" points="34.7119,72.461 16.4881,68.5559 10.4136,68.5559 8.678,70.7254" stroke="#ffe500" stroke-width="2" /><polyline fill="none" points="38.6169,73.3288 19.0915,93.722 16.0542,98.4949" stroke="#ffa600" stroke-width="2" /><polyline fill="none" points="88.5153,57.7085 114.1153,47.7288 118.4542,44.6915" stroke="#ff6700" stroke-width="2" /><polyline fill="none" points="94.5898,66.8203 113.6814,75.0644 119.322,75.4983" stroke="#ff2800" stroke-width="2" /><polyline fill="none" points="85.0441,75.0644 87.2136,80.7051 91.9864,85.0441 106.3051,93.722 115.4169,101.0983" stroke="#cc0000" stroke-width="2" /><polyline fill="none" points="29.939,36.4475 27.7695,33.8441 27.3356,22.5627 36.4475,29.939" stroke="#7f0000" stroke-width="2" /></svg>