<?xml version="1.0" encoding="utf-8" ?>
<svg baseProfile="tiny" height="128" version="1.2" viewBox="0,0,128,128" width="128" xmlns="http://www.w3.org/2000/svg" xmlns:ev="http://www.w3.org/2001/xml-events" xmlns:xlink="http://www.w3.org/1999/xlink"><defs /><polyline fill="none" points="51.6339,31.2407 38.1831,30.3729 32.5424,32.5424 29.0712,38.1831 26.4678,46.861 26.4678,59.878 32.5424,78.5356 38.6169,85.0441 65.9525,85.9119 91.9864,71.5932 102.8339,61.1797 101.5322,49.0305 93.2881,37.3153 87.2136,32.5424 66.8203,26.4678 49.0305,27.7695" stroke="#00007f" stroke-width="2" /><polyline fill="none" points="29.0712,29.0712 29.0712,14.7525 29.939,8.678 36.0136,8.678 47.7288,17.7898 50.3322,21.6949" stroke="#0028ff" stroke-width="2" /><polyline fill="none" points="80.2712,21.6949 105.8712,22.9966 113.2475,20.8271 108.9085,26.4678 103.7017,38.6169" stroke="#00d4ff" stroke-width="2" /><polyline fill="none" points="56.4068,53.8034 36.4475,52.5017 29.939,53.8034 18.2237,59.878 12.1492,68.122" stroke="#7cff79" stroke-width="2" /><polyline fill="none" points="50.3322,61.1797 36.0136,57.2746 28.6373,57.7085 18.2237,68.122 14.7525,75.4983" stroke="#ffe500" stroke-width="2" /><polyline fill="none" points="49.0305,66.8203 36.0136,66.8203 22.9966,71.5932 16.922,77.6678 8.678,91.9864" stroke="#ff4600" stroke-width="2" /><polyline fill="none" points="75.4983,50.3322 88.5153,50.3322 113.6814,53.8034 119.322,56.4068" stroke="#7f0000" stroke-width="2" /></svg>