<?xml version="1.0" encoding="utf-8" ?>
<svg baseProfile="tiny" height="128" version="1.2" viewBox="0,0,128,128" width="128" xmlns="http://www.w3.org/2000/svg" xmlns:ev="http://www.w3.org/2001/xml-events" xmlns:xlink="http://www.w3.org/1999/xlink"><defs /><polyline fill="none" points="34.278,25.6 40.3525,15.1864 45.5593,9.5458 47.7288,12.5831 49.8983,24.2983 69.8576,23.4305 80.7051,30.3729 89.3831,12.5831 94.5898,8.678 100.6644,32.9763 97.1932,52.0678 91.1186,65.9525 87.2136,72.0271 73.3288,79.4034 65.0847,79.4034 50.7661,75.0644 36.4475,63.7831 29.939,53.8034 28.2034,46.861 29.0712,38.6169 34.7119,26.0339" stroke="#00007f" stroke-width="2" /><polyline fill="none" points="89.8169,52.9356 105.4373,55.1051 113.2475,57.7085 118.4542,61.1797" stroke="#0010ff" stroke-width="2" /><polyline fill="none" points="88.9492,59.4441 104.5695,59.878 114.9831,61.6136 119.322,65.0847 114.5492,65.9525" stroke="#00a4ff" stroke-width="2" /><polyline fill="none" points="87.6475,67.2542 111.078,75.9322 108.4746,84.6102" stroke="#3fffb7" stroke-width="2" /><polyline fill="none" points="32.9763,39.4847 10.4136,48.1627" stroke="#b7ff3f" stroke-width="2" /><polyline fill="none" points="36.0136,45.9932 24.7322,50.7661 14.3186,57.2746" stroke="#ffb900" stroke-width="2" /><polyline fill="none" points="34.278,52.5017 8.678,65.0847" stroke="#ff3000" stroke-width="2" /><polyline fill="none" points="49.4644,43.8237 47.2949,38.6169 47.2949,35.1458 49.4644,32.9763 55.1051,32.9763 58.1424,39.0508 52.5017,48.5966 49.4644,48.1627 49.0305,45.9932" stroke="#7f0000" stroke-width="2" /></svg>