<?xml version="1.0" encoding="utf-8" ?>
<svg baseProfile="tiny" height="128" version="1.2" viewBox="0,0,128,128" width="128" xmlns="http://www.w3.org/2000/svg" xmlns:ev="http://www.w3.org/2001/xml-events" xmlns:xlink="http://www.w3.org/1999/xlink"><defs /><polyline fill="none" points="55.539,119.322 35.5797,111.5119 12.5831,106.739 8.678,91.5525 8.678,78.5356 12.5831,62.9153 18.2237,51.6339 21.6949,47.7288 31.6746,43.8237 61.6136,35.5797 74.1966,35.5797 85.0441,39.9186 95.4576,46.4271 98.4949,53.8034 99.3627,69.4237 95.0237,85.478 85.9119,100.2305 79.8373,105.4373 72.0271,110.6441 60.7458,115.4169" stroke="#00007f" stroke-width="2" /><polyline fill="none" points="13.0169,47.7288 12.5831,12.5831 14.7525,10.8475 20.3932,15.1864 29.0712,26.4678 33.8441,35.1458 36.4475,45.1254" stroke="#004cff" stroke-width="2" /><polyline fill="none" points="68.5559,36.0136 80.2712,22.9966 99.3627,8.678 103.7017,28.2034 104.5695,45.1254" stroke="#29ffcd" stroke-width="2" /><polyline fill="none" points="32.1085,62.9153 30.3729,67.6881 33.8441,68.5559 36.4475,66.3864 36.8814,62.0475 34.278,58.5763" stroke="#cdff29" stroke-width="2" /><polyline fill="none" points="62.4814,52.5017 61.6136,54.2373 62.0475,56.4068 65.9525,57.7085" stroke="#ff6700" stroke-width="2" /><polyline fill="none" points="55.1051,75.4983 67.6881,74.1966" stroke="#7f0000" stroke-width="2" /></svg>