<?xml version="1.0" encoding="utf-8" ?>
<svg baseProfile="tiny" height="128" version="1.2" viewBox="0,0,128,128" width="128" xmlns="http://www.w3.org/2000/svg" xmlns:ev="http://www.w3.org/2001/xml-events" xmlns:xlink="http://www.w3.org/1999/xlink"><defs /><polyline fill="none" points="80.2712,91.1186 72.0271,94.1559 60.3119,93.722 48.1627,83.3085 45.9932,80.2712 43.3898,63.7831 36.4475,46.861 35.5797,42.522 36.0136,46.861 27.3356,35.5797 14.7525,26.9017 10.4136,22.9966 8.678,16.922 10.8475,16.4881 16.4881,19.9593 21.6949,20.8271 24.7322,24.7322 30.8068,25.6 35.5797,28.6373 49.0305,25.1661 91.1186,25.6 95.8915,27.7695 95.0237,21.261 110.2102,8.678 112.8136,35.5797 119.322,58.5763 118.8881,68.9898 113.6814,73.7627 109.3424,83.7424 99.7966,90.2508 92.4203,92.8542 85.9119,98.4949 85.0441,97.1932 80.2712,97.1932 73.3288,100.6644 72.461,95.4576" stroke="#00007f" stroke-width="2" /><polyline fill="none" points="71.1593,68.122 59.878,66.3864 51.2,61.6136 48.5966,66.8203 51.2,72.461 55.1051,77.2339 64.6508,81.5729 65.9525,80.2712 66.3864,75.9322 68.122,74.1966 67.2542,69.4237 70.7254,65.0847 76.8,59.0102 86.3458,55.1051 91.1186,57.2746 94.1559,61.1797 95.0237,66.3864 91.5525,70.7254 81.5729,74.1966 71.1593,69.8576 70.2915,68.122" stroke="#7cff79" stroke-width="2" /><polyline fill="none" points="81.139,63.3492 80.7051,58.5763 111.5119,48.5966 114.5492,49.0305" stroke="#7f0000" stroke-width="2" /></svg>