<?xml version="1.0" encoding="utf-8" ?>
<svg baseProfile="tiny" height="128" version="1.2" viewBox="0,0,128,128" width="128" xmlns="http://www.w3.org/2000/svg" xmlns:ev="http://www.w3.org/2001/xml-events" xmlns:xlink="http://www.w3.org/1999/xlink"><defs /><polyline fill="none" points="101.5322,30.8068 97.1932,31.2407 88.5153,41.2203 84.1763,49.0305 84.1763,55.9729 88.0814,59.0102 102.4,61.6136 106.739,60.7458 110.2102,54.2373 111.5119,41.2203 109.7763,36.4475 104.5695,29.939 95.4576,25.1661" stroke="#00007f" stroke-width="2" /><polyline fill="none" points="92.4203,32.1085 95.4576,19.0915 101.5322,32.1085" stroke="#0000fe" stroke-width="2" /><polyline fill="none" points="108.9085,32.5424 116.2847,29.5051 119.322,30.3729 110.2102,43.3898" stroke="#0060ff" stroke-width="2" /><polyline fill="none" points="98.9288,42.522 98.061,47.7288" stroke="#00d4ff" stroke-width="2" /><polyline fill="none" points="106.3051,44.6915 105.8712,50.3322 104.5695,52.5017" stroke="#4cffaa" stroke-width="2" /><polyline fill="none" points="98.061,53.3695 98.9288,55.1051 101.5322,55.1051 101.9661,53.8034" stroke="#aaff4c" stroke-width="2" /><polyline fill="none" points="101.5322,52.9356 100.6644,51.2 100.2305,53.8034" stroke="#ffe500" stroke-width="2" /><polyline fill="none" points="82.8746,42.0881 77.6678,40.7864 73.7627,41.6542 64.6508,48.1627 62.0475,54.2373 62.0475,59.878 63.7831,60.7458 69.8576,60.7458 74.1966,58.1424 77.2339,54.2373 77.6678,49.0305" stroke="#ff7a00" stroke-width="2" /><polyline fill="none" points="62.4814,50.7661 56.8407,50.7661 50.7661,56.8407 48.1627,56.4068 44.6915,52.5017 37.3153,38.6169 33.8441,29.5051 33.8441,23.8644 37.7492,11.2814 36.4475,9.5458 21.6949,8.678 18.6576,9.1119 13.0169,13.0169 9.1119,19.5254 8.678,28.6373 10.4136,32.9763 21.6949,43.8237 26.4678,53.3695 31.2407,56.4068 48.5966,59.0102 56.4068,59.0102 61.6136,58.1424 66.3864,52.9356" stroke="#fe1200" stroke-width="2" /><polyline fill="none" points="68.122,60.3119 67.2542,62.4814" stroke="#7f0000" stroke-width="2" /></svg>