<?xml version="1.0" encoding="utf-8" ?>
<svg baseProfile="tiny" height="128" version="1.2" viewBox="0,0,128,128" width="128" xmlns="http://www.w3.org/2000/svg" xmlns:ev="http://www.w3.org/2001/xml-events" xmlns:xlink="http://www.w3.org/1999/xlink"><defs /><polyline fill="none" points="65.0847,26.4678 54.6712,24.2983 40.3525,26.4678 25.6,33.4102 21.6949,38.1831 18.6576,48.1627 8.678,68.9898 8.678,81.5729 11.7153,86.7797 26.4678,101.5322 38.1831,108.4746 54.6712,111.5119 77.2339,110.6441 83.7424,108.4746 88.5153,104.5695 96.7593,83.7424 97.6271,55.9729 96.3254,51.2 90.2508,39.0508 79.8373,25.6 73.7627,22.5627 55.1051,21.6949 51.2,22.5627" stroke="#00007f" stroke-width="2" /><polyline fill="none" points="20.3932,45.1254 21.6949,38.1831 16.4881,19.5254 16.4881,8.678 22.5627,12.5831 26.4678,19.5254 36.0136,29.0712 40.3525,30.3729" stroke="#00d4ff" stroke-width="2" /><polyline fill="none" points="100.6644,30.3729 95.8915,32.1085 116.2847,17.7898 119.322,11.7153 108.4746,34.278 103.2678,40.3525 98.4949,51.2" stroke="#ffe500" stroke-width="2" /><polyline fill="none" points="55.9729,61.1797 55.9729,61.1797" stroke="#7f0000" stroke-width="2" /></svg>