<?xml version="1.0" encoding="utf-8" ?>
<svg baseProfile="tiny" height="128" version="1.2" viewBox="0,0,128,128" width="128" xmlns="http://www.w3.org/2000/svg" xmlns:ev="http://www.w3.org/2001/xml-events" xmlns:xlink="http://www.w3.org/1999/xlink"><defs /><polyline fill="none" points="83.1565,52.2449 80.5442,50.9388 71.4014,50.9388 65.3061,53.1156 56.1633,57.9048 43.5374,69.2245 37.8776,78.3673 34.3946,90.9932 34.3946,97.9592 38.7483,106.2313 42.2313,110.1497 50.9388,115.3741 59.6463,118.4218 72.7075,119.2925 78.3673,117.9864 88.381,111.8912 97.5238,103.619 102.7483,96.2177 108.8435,81.8503 110.1497,69.2245 105.3605,61.3878 98.3946,55.7279 88.381,50.068 80.9796,49.1973" stroke="#00007f" stroke-width="2" /><polyline fill="none" points="64.4354,66.1769 56.1633,73.5782 55.7279,78.3673 61.3878,78.8027 67.0476,74.0136 70.0952,69.2245 64.8707,68.7891" stroke="#0000fe" stroke-width="2" /><polyline fill="none" points="87.0748,70.0952 84.0272,73.5782 84.0272,75.7551 90.5578,75.7551 98.8299,69.2245 93.1701,66.6122 87.0748,67.483" stroke="#0060ff" stroke-width="2" /><polyline fill="none" points="69.2245,104.4898 67.0476,99.2653 66.6122,94.0408 79.2381,92.7347 79.6735,95.3469 77.932,97.5238 69.6599,103.619" stroke="#00d4ff" stroke-width="2" /><polyline fill="none" points="65.7415,96.2177 35.7007,92.7347 20.0272,92.7347 8.7075,95.7823" stroke="#4cffaa" stroke-width="2" /><polyline fill="none" points="79.2381,98.3946 81.415,97.5238 108.8435,97.9592" stroke="#aaff4c" stroke-width="2" /><polyline fill="none" points="53.9864,106.2313 40.0544,116.6803" stroke="#ffe500" stroke-width="2" /><polyline fill="none" points="94.4762,90.5578 106.6667,99.2653 117.551,101.0068" stroke="#ff7a00" stroke-width="2" /><polyline fill="none" points="63.5646,91.8639 37.4422,110.585" stroke="#fe1200" stroke-width="2" /><polyline fill="none" points="51.3741,56.1633 45.2789,52.6803 36.5714,30.4762 34.3946,20.4626 51.8095,8.7075 55.2925,9.1429" stroke="#7f0000" stroke-width="2" /></svg>