<?xml version="1.0" encoding="utf-8" ?>
<svg baseProfile="tiny" height="128" version="1.2" viewBox="0,0,128,128" width="128" xmlns="http://www.w3.org/2000/svg" xmlns:ev="http://www.w3.org/2001/xml-events" xmlns:xlink="http://www.w3.org/1999/xlink"><defs /><polyline fill="none" points="98.9288,40.7864 93.722,36.4475 75.0644,35.5797 55.1051,38.6169 25.1661,49.4644 16.922,54.6712 8.678,70.2915 10.4136,85.0441 22.5627,101.5322 33.8441,107.6068 41.2203,108.9085 86.7797,109.7763 98.4949,105.0034 108.4746,88.0814 111.5119,75.9322 112.8136,52.9356 107.1729,39.9186 102.4,35.5797 96.7593,34.7119" stroke="#00007f" stroke-width="2" /><polyline fill="none" points="94.5898,34.7119 96.3254,29.0712 102.4,19.5254 112.3797,8.678 119.322,50.7661 112.3797,56.4068 109.7763,60.7458" stroke="#0000fe" stroke-width="2" /><polyline fill="none" points="30.8068,41.6542 30.8068,32.9763 28.2034,26.9017 20.8271,18.2237 18.2237,30.8068 17.3559,49.8983" stroke="#0060ff" stroke-width="2" /><polyline fill="none" points="63.7831,76.8 62.4814,77.2339 62.4814,75.4983 63.7831,74.6305 64.6508,75.9322 58.5763,83.3085" stroke="#00d4ff" stroke-width="2" /><polyline fill="none" points="62.0475,75.9322 66.8203,83.7424 69.4237,85.478" stroke="#4cffaa" stroke-width="2" /><polyline fill="none" points="64.2169,73.7627 81.139,68.9898" stroke="#aaff4c" stroke-width="2" /><polyline fill="none" points="65.0847,75.9322 69.4237,77.6678 85.478,78.5356" stroke="#ffe500" stroke-width="2" /><polyline fill="none" points="62.9153,76.8 54.2373,74.6305 45.5593,75.9322" stroke="#ff7a00" stroke-width="2" /><polyline fill="none" points="63.3492,78.9695 54.2373,79.4034 45.9932,83.3085" stroke="#fe1200" stroke-width="2" /><polyline fill="none" points="73.7627,45.9932 69.8576,52.9356 65.9525,53.8034 66.8203,50.7661 69.4237,49.8983 70.7254,52.0678" stroke="#7f0000" stroke-width="2" /></svg>