<?xml version="1.0" encoding="utf-8" ?>
<svg baseProfile="tiny" height="128" version="1.2" viewBox="0,0,128,128" width="128" xmlns="http://www.w3.org/2000/svg" xmlns:ev="http://www.w3.org/2001/xml-events" xmlns:xlink="http://www.w3.org/1999/xlink"><defs /><polyline fill="none" points="58.1424,39.4847 42.522,39.4847 22.5627,49.4644 11.7153,61.1797 8.678,71.1593 8.678,93.722 15.6203,105.8712 24.2983,111.9458 31.6746,114.5492 55.9729,119.322 77.2339,118.8881 90.2508,113.2475 101.0983,104.5695 107.6068,91.5525 109.7763,83.7424 110.6441,58.1424 108.9085,53.8034 101.5322,46.861 91.9864,42.0881 78.5356,37.7492 53.3695,36.0136 49.4644,38.6169" stroke="#00007f" stroke-width="2" /><polyline fill="none" points="86.3458,37.7492 90.6847,26.9017 101.0983,8.678 103.2678,42.522" stroke="#004cff" stroke-width="2" /><polyline fill="none" points="35.5797,41.2203 26.4678,21.261 20.8271,11.7153 19.9593,12.1492 18.6576,48.1627" stroke="#29ffcd" stroke-width="2" /><polyline fill="none" points="44.6915,63.7831 40.7864,63.7831 40.3525,67.6881 41.2203,68.9898 45.5593,68.9898 47.7288,66.8203 47.7288,62.4814" stroke="#cdff29" stroke-width="2" /><polyline fill="none" points="82.0068,62.0475 77.6678,62.9153 75.9322,67.2542 81.139,66.8203 83.7424,63.3492" stroke="#ff6700" stroke-width="2" /><polyline fill="none" points="60.3119,82.8746 62.9153,78.5356 65.9525,77.6678 74.1966,83.3085 88.0814,84.1763" stroke="#7f0000" stroke-width="2" /></svg>