<?xml version="1.0" encoding="utf-8" ?>
<svg baseProfile="tiny" height="128" version="1.2" viewBox="0,0,128,128" width="128" xmlns="http://www.w3.org/2000/svg" xmlns:ev="http://www.w3.org/2001/xml-events" xmlns:xlink="http://www.w3.org/1999/xlink"><defs /><polyline fill="none" points="86.3458,45.9932 80.7051,39.9186 75.0644,37.7492 58.5763,37.3153 32.9763,48.1627 21.6949,58.5763 10.8475,77.2339 9.5458,90.2508 13.0169,100.6644 16.922,105.4373 21.6949,109.7763 32.9763,115.4169 39.4847,116.7186 54.2373,117.1525 68.5559,114.1153 75.4983,111.5119 88.0814,102.8339 95.8915,92.4203 98.9288,85.9119 100.6644,71.5932 97.1932,54.2373 90.2508,45.5593 80.7051,38.1831 74.6305,36.4475 62.4814,36.8814" stroke="#00007f" stroke-width="2" /><polyline fill="none" points="24.7322,52.9356 14.3186,31.6746 8.678,14.3186 9.9797,10.8475 15.1864,11.7153 22.9966,17.3559 39.0508,48.5966" stroke="#0000f1" stroke-width="2" /><polyline fill="none" points="83.7424,42.522 111.078,14.3186 118.8881,8.678 119.322,10.8475 105.0034,44.2576 98.061,72.461" stroke="#004cff" stroke-width="2" /><polyline fill="none" points="41.6542,62.0475 41.6542,62.0475" stroke="#00b0ff" stroke-width="2" /><polyline fill="none" points="65.9525,65.5186 65.9525,65.5186" stroke="#29ffcd" stroke-width="2" /><polyline fill="none" points="48.5966,81.5729 29.5051,76.3661 23.4305,77.2339" stroke="#7cff79" stroke-width="2" /><polyline fill="none" points="44.6915,87.2136 30.3729,84.6102 23.4305,85.478" stroke="#cdff29" stroke-width="2" /><polyline fill="none" points="48.5966,92.8542 18.2237,98.9288" stroke="#ffc400" stroke-width="2" /><polyline fill="none" points="55.1051,83.7424 67.6881,82.4407 81.139,84.6102" stroke="#ff6700" stroke-width="2" /><polyline fill="none" points="55.539,91.1186 62.4814,90.6847 82.8746,94.1559" stroke="#f10700" stroke-width="2" /><polyline fill="none" points="55.1051,97.6271 74.6305,107.6068" stroke="#7f0000" stroke-width="2" /></svg>