<?xml version="1.0" encoding="utf-8" ?>
<svg baseProfile="tiny" height="128" version="1.2" viewBox="0,0,128,128" width="128" xmlns="http://www.w3.org/2000/svg" xmlns:ev="http://www.w3.org/2001/xml-events" xmlns:xlink="http://www.w3.org/1999/xlink"><defs /><polyline fill="none" points="21.261,54.6712 25.6,99.3627 32.9763,114.1153 35.5797,117.1525 40.3525,119.322 60.3119,118.8881 76.3661,110.6441 82.4407,105.0034 84.1763,100.6644 85.9119,82.8746 78.5356,58.5763" stroke="#00007f" stroke-width="2" /><polyline fill="none" points="43.3898,82.0068 56.8407,77.2339 64.6508,78.1017 64.6508,81.139 61.6136,85.9119 57.2746,91.5525 54.2373,92.8542 39.9186,77.2339" stroke="#0000fe" stroke-width="2" /><polyline fill="none" points="55.1051,95.4576 55.1051,105.0034" stroke="#0060ff" stroke-width="2" /><polyline fill="none" points="50.7661,109.7763 50.7661,112.3797 54.6712,113.6814 62.0475,110.2102 63.3492,105.8712" stroke="#00d4ff" stroke-width="2" /><polyline fill="none" points="65.9525,63.3492 65.0847,72.461" stroke="#4cffaa" stroke-width="2" /><polyline fill="none" points="39.0508,66.8203 37.3153,68.5559 37.3153,72.461" stroke="#aaff4c" stroke-width="2" /><polyline fill="none" points="21.6949,55.1051 16.922,47.2949 9.5458,29.0712 8.678,25.6 11.7153,24.7322 19.9593,29.939 28.6373,39.0508 37.7492,51.6339 42.522,55.539" stroke="#ffe500" stroke-width="2" /><polyline fill="none" points="42.522,55.539 51.6339,50.7661 65.5186,50.3322 71.1593,27.7695 84.1763,8.678 84.6102,21.261 78.9695,59.878" stroke="#ff7a00" stroke-width="2" /><polyline fill="none" points="75.0644,50.3322 75.0644,44.2576 77.2339,37.7492 75.0644,46.4271" stroke="#fe1200" stroke-width="2" /><polyline fill="none" points="29.939,52.5017 26.0339,47.7288 26.9017,49.8983 29.0712,52.9356 29.5051,51.6339 27.3356,46.861 25.6,45.5593 26.4678,47.7288" stroke="#7f0000" stroke-width="2" /></svg>