<?xml version="1.0" encoding="utf-8" ?>
<svg baseProfile="tiny" height="128" version="1.2" viewBox="0,0,128,128" width="128" xmlns="http://www.w3.org/2000/svg" xmlns:ev="http://www.w3.org/2001/xml-events" xmlns:xlink="http://www.w3.org/1999/xlink"><defs /><polyline fill="none" points="70.2915,39.9186 64.2169,39.0508 50.7661,42.9559 40.7864,48.5966 37.3153,52.5017 32.5424,60.7458 28.2034,75.0644 27.7695,90.6847 30.8068,97.6271 35.5797,104.1356 45.1254,111.5119 60.7458,118.8881 70.7254,119.322 77.2339,117.5864 96.7593,105.8712 100.6644,100.2305 101.9661,95.8915 101.0983,72.461 98.9288,65.5186 96.3254,61.1797 89.8169,54.6712 71.1593,45.5593" stroke="#00007f" stroke-width="2" /><polyline fill="none" points="74.1966,46.4271 76.8,37.7492 83.3085,26.4678 103.2678,8.678 112.8136,31.6746 114.1153,47.7288 110.2102,59.878 101.0983,65.5186" stroke="#0000d5" stroke-width="2" /><polyline fill="none" points="47.7288,35.1458 39.0508,31.6746 29.939,29.939 17.7898,29.939 8.678,34.7119 8.678,39.9186 14.7525,48.1627 32.5424,61.6136" stroke="#001cff" stroke-width="2" /><polyline fill="none" points="45.9932,61.1797 42.522,63.7831 42.522,66.3864 45.1254,65.5186 46.4271,62.0475 43.8237,63.7831" stroke="#006cff" stroke-width="2" /><polyline fill="none" points="81.139,69.8576 80.2712,73.7627 81.5729,71.1593 80.2712,70.2915 81.5729,72.8949" stroke="#00b8ff" stroke-width="2" /><polyline fill="none" points="65.0847,76.8 62.4814,75.4983 53.8034,75.4983 52.0678,76.8 51.2,82.0068 55.539,87.2136 59.878,87.2136 65.9525,77.2339" stroke="#1cffda" stroke-width="2" /><polyline fill="none" points="55.539,88.5153 57.2746,95.8915 62.4814,101.0983 72.0271,101.9661 77.2339,97.1932" stroke="#5cff9a" stroke-width="2" /><polyline fill="none" points="53.8034,84.6102 52.5017,91.1186 47.2949,95.8915 42.0881,95.8915 39.9186,91.1186" stroke="#9aff5c" stroke-width="2" /><polyline fill="none" points="72.8949,84.6102 88.9492,82.8746 104.1356,83.3085" stroke="#daff1c" stroke-width="2" /><polyline fill="none" points="78.1017,90.2508 100.2305,91.1186" stroke="#ffcb00" stroke-width="2" /><polyline fill="none" points="83.3085,96.3254 83.7424,98.061 89.3831,100.6644 103.7017,103.2678" stroke="#ff8500" stroke-width="2" /><polyline fill="none" points="42.9559,77.2339 24.2983,74.6305" stroke="#ff3b00" stroke-width="2" /><polyline fill="none" points="47.7288,84.1763 25.1661,80.2712 11.7153,79.8373" stroke="#d50000" stroke-width="2" /><polyline fill="none" points="38.6169,88.5153 22.1288,86.3458 12.1492,86.3458 10.4136,87.2136" stroke="#7f0000" stroke-width="2" /></svg>