<?xml version="1.0" encoding="utf-8" ?>
<svg baseProfile="tiny" height="128" version="1.2" viewBox="0,0,128,128" width="128" xmlns="http://www.w3.org/2000/svg" xmlns:ev="http://www.w3.org/2001/xml-events" xmlns:xlink="http://www.w3.org/1999/xlink"><defs /><polyline fill="none" points="60.3119,42.522 58.1424,39.4847 50.7661,36.8814 41.6542,36.4475 34.7119,38.1831 26.0339,42.9559 19.0915,49.8983 10.8475,65.0847 8.678,79.8373 11.2814,93.722 16.4881,102.8339 25.1661,111.5119 36.8814,117.5864 53.8034,119.322 60.7458,117.5864 71.1593,113.2475 76.8,108.9085 82.8746,101.0983 86.7797,84.1763 84.6102,60.3119 83.3085,55.1051 76.3661,41.6542 68.5559,35.5797 62.0475,33.8441 50.3322,33.8441 42.522,35.5797" stroke="#00007f" stroke-width="2" /><polyline fill="none" points="19.0915,45.9932 34.7119,8.678 39.0508,28.2034" stroke="#0000e8" stroke-width="2" /><polyline fill="none" points="63.7831,36.0136 70.2915,23.8644 74.6305,19.5254 75.4983,21.6949 72.461,48.5966" stroke="#0038ff" stroke-width="2" /><polyline fill="none" points="49.8983,80.2712 48.5966,78.9695 47.7288,80.2712 49.4644,78.9695" stroke="#0094ff" stroke-width="2" /><polyline fill="none" points="53.8034,77.6678 60.3119,76.8 72.0271,71.5932" stroke="#0cf4ea" stroke-width="2" /><polyline fill="none" points="58.5763,86.7797 70.7254,87.6475 77.2339,86.3458" stroke="#56ffa0" stroke-width="2" /><polyline fill="none" points="60.3119,100.2305 69.8576,104.5695" stroke="#a0ff56" stroke-width="2" /><polyline fill="none" points="35.1458,83.7424 24.7322,82.0068 16.0542,83.7424" stroke="#eaff0c" stroke-width="2" /><polyline fill="none" points="36.4475,87.2136 24.7322,92.4203" stroke="#ffaa00" stroke-width="2" /><polyline fill="none" points="42.0881,94.5898 37.3153,99.7966 18.2237,111.9458" stroke="#ff5500" stroke-width="2" /><polyline fill="none" points="39.9186,50.7661 36.8814,53.8034 36.8814,55.9729 39.0508,58.1424 42.0881,56.4068 42.0881,53.3695 39.4847,53.3695 36.4475,57.2746 36.0136,60.7458" stroke="#e80000" stroke-width="2" /><polyline fill="none" points="60.3119,52.5017 53.8034,55.539 53.8034,56.8407 57.2746,56.8407 62.0475,52.9356 61.6136,51.2 59.878,51.2 58.5763,53.8034" stroke="#7f0000" stroke-width="2" /></svg>