<?xml version="1.0" encoding="utf-8" ?>
<svg baseProfile="tiny" height="128" version="1.2" viewBox="0,0,128,128" width="128" xmlns="http://www.w3.org/2000/svg" xmlns:ev="http://www.w3.org/2001/xml-events" xmlns:xlink="http://www.w3.org/1999/xlink"><defs /><polyline fill="none" points="74.6305,49.4644 65.9525,45.5593 48.1627,45.1254 28.6373,53.8034 21.6949,59.4441 16.4881,66.8203 14.7525,75.0644 15.1864,84.1763 21.6949,94.5898 32.1085,103.2678 43.8237,110.6441 56.8407,115.4169 68.9898,117.5864 87.2136,117.1525 92.4203,114.1153 96.3254,109.3424 98.4949,102.8339 98.9288,85.9119 97.1932,77.2339 94.1559,70.2915 90.2508,62.9153 80.7051,56.4068 68.5559,54.2373 62.4814,54.2373 57.7085,56.4068" stroke="#00007f" stroke-width="2" /><polyline fill="none" points="22.9966,55.1051 22.1288,26.0339 22.9966,16.0542 26.0339,10.8475 29.939,8.678 32.5424,8.678 36.8814,15.1864 48.5966,50.3322" stroke="#0000d1" stroke-width="2" /><polyline fill="none" points="75.0644,53.3695 85.9119,43.3898 96.7593,37.3153 102.8339,35.1458 112.3797,34.7119 114.1153,44.2576 101.9661,71.1593 99.7966,80.7051" stroke="#0010ff" stroke-width="2" /><polyline fill="none" points="51.6339,86.7797 53.8034,84.1763 64.6508,85.9119 53.3695,85.478 58.1424,84.6102 55.9729,82.8746 54.2373,83.3085 54.2373,86.7797" stroke="#0058ff" stroke-width="2" /><polyline fill="none" points="55.539,90.6847 49.4644,105.0034" stroke="#00a4ff" stroke-width="2" /><polyline fill="none" points="43.8237,63.7831 43.8237,63.7831" stroke="#05ecf1" stroke-width="2" /><polyline fill="none" points="70.2915,78.5356 70.2915,78.5356" stroke="#3fffb7" stroke-width="2" /><polyline fill="none" points="42.522,67.2542 42.522,67.2542" stroke="#7cff79" stroke-width="2" /><polyline fill="none" points="76.8,69.8576 76.8,69.8576" stroke="#b7ff3f" stroke-width="2" /><polyline fill="none" points="44.2576,64.6508 40.7864,62.0475" stroke="#f1fc05" stroke-width="2" /><polyline fill="none" points="78.9695,73.7627 79.4034,71.5932" stroke="#ffb900" stroke-width="2" /><polyline fill="none" points="82.8746,98.4949 90.2508,98.061 100.6644,99.7966" stroke="#ff7300" stroke-width="2" /><polyline fill="none" points="79.8373,110.6441 100.6644,119.322" stroke="#ff3000" stroke-width="2" /><polyline fill="none" points="28.6373,77.6678 23.8644,74.6305 16.922,77.6678" stroke="#d10000" stroke-width="2" /><polyline fill="none" points="30.8068,83.7424 8.678,93.722" stroke="#7f0000" stroke-width="2" /></svg>