<?xml version="1.0" encoding="utf-8" ?>
<svg baseProfile="tiny" height="128" version="1.2" viewBox="0,0,128,128" width="128" xmlns="http://www.w3.org/2000/svg" xmlns:ev="http://www.w3.org/2001/xml-events" xmlns:xlink="http://www.w3.org/1999/xlink"><defs /><polyline fill="none" points="35.5797,64.6508 33.8441,63.3492 24.7322,64.2169 19.9593,66.8203 16.0542,70.2915 9.5458,85.9119 8.678,101.0983 16.0542,112.8136 22.5627,118.0203 26.0339,119.322 37.7492,119.322 48.1627,116.2847 56.8407,109.7763 59.878,105.8712 63.7831,97.6271 65.5186,88.5153 65.5186,76.8 61.1797,69.8576 48.1627,58.5763 39.4847,56.8407 35.1458,58.1424 35.1458,59.4441" stroke="#00007f" stroke-width="2" /><polyline fill="none" points="19.0915,72.461 17.3559,45.9932 21.6949,37.7492 30.8068,29.939 39.0508,26.4678 53.3695,26.0339 55.9729,27.3356 59.0102,29.939 61.6136,35.5797 61.6136,43.3898 60.3119,45.5593 57.2746,49.8983 50.7661,55.539 41.2203,60.7458 33.4102,62.4814 29.5051,62.4814 26.4678,60.7458" stroke="#0000fe" stroke-width="2" /><polyline fill="none" points="21.261,38.6169 21.261,13.8847 22.1288,9.1119 23.4305,8.678 31.6746,31.6746 33.8441,34.278" stroke="#0060ff" stroke-width="2" /><polyline fill="none" points="49.0305,23.8644 65.0847,9.1119 61.6136,32.1085" stroke="#00d4ff" stroke-width="2" /><polyline fill="none" points="41.6542,39.0508 41.6542,39.0508" stroke="#4cffaa" stroke-width="2" /><polyline fill="none" points="40.7864,38.6169 40.7864,42.0881 42.522,42.9559" stroke="#aaff4c" stroke-width="2" /><polyline fill="none" points="51.2,35.1458 71.1593,36.8814" stroke="#ffe500" stroke-width="2" /><polyline fill="none" points="50.3322,45.5593 57.7085,45.5593 61.1797,46.861" stroke="#ff7a00" stroke-width="2" /><polyline fill="none" points="29.939,41.6542 24.2983,41.2203 13.0169,45.5593 9.9797,48.5966" stroke="#fe1200" stroke-width="2" /><polyline fill="none" points="36.4475,49.4644 21.261,57.2746" stroke="#7f0000" stroke-width="2" /></svg>