<?xml version="1.0" encoding="utf-8" ?>
<svg baseProfile="tiny" height="128" version="1.2" viewBox="0,0,128,128" width="128" xmlns="http://www.w3.org/2000/svg" xmlns:ev="http://www.w3.org/2001/xml-events" xmlns:xlink="http://www.w3.org/1999/xlink"><defs /><polyline fill="none" points="41.6542,31.2407 43.8237,27.7695 57.7085,24.7322 72.0271,23.4305 75.4983,24.2983 83.3085,33.4102" stroke="#00007f" stroke-width="2" /><polyline fill="none" points="85.478,28.6373 91.9864,15.6203 96.7593,10.4136 98.4949,13.8847 98.4949,23.8644 96.7593,37.7492" stroke="#0000f1" stroke-width="2" /><polyline fill="none" points="39.0508,26.4678 32.1085,11.2814 28.2034,8.678 27.3356,10.4136 27.3356,13.8847 38.6169,39.4847" stroke="#004cff" stroke-width="2" /><polyline fill="none" points="36.4475,39.0508 32.1085,43.8237 29.5051,52.0678 29.939,62.4814 36.4475,72.8949 40.3525,76.3661 52.9356,84.1763 61.6136,85.9119 72.8949,86.3458 83.3085,83.7424 88.5153,79.8373 95.0237,70.7254 97.1932,65.0847 99.7966,51.6339 98.4949,42.522 92.8542,36.8814 85.0441,35.5797" stroke="#00b0ff" stroke-width="2" /><polyline fill="none" points="69.8576,52.0678 87.6475,49.8983 119.322,49.8983" stroke="#29ffcd" stroke-width="2" /><polyline fill="none" points="72.0271,62.4814 84.1763,63.3492 114.1153,72.461" stroke="#7cff79" stroke-width="2" /><polyline fill="none" points="73.3288,73.3288 109.3424,83.3085" stroke="#cdff29" stroke-width="2" /><polyline fill="none" points="58.5763,56.8407 42.9559,56.8407 33.8441,58.1424 8.678,68.5559" stroke="#ffc400" stroke-width="2" /><polyline fill="none" points="59.4441,62.4814 35.1458,70.2915 25.1661,76.8 22.5627,80.7051" stroke="#ff6700" stroke-width="2" /><polyline fill="none" points="58.1424,69.8576 50.7661,71.5932 44.6915,76.3661 30.3729,91.9864" stroke="#f10700" stroke-width="2" /><polyline fill="none" points="60.3119,51.2 53.8034,56.8407 52.5017,70.2915 54.2373,75.0644 59.4441,77.6678 62.0475,77.2339 64.6508,72.461" stroke="#7f0000" stroke-width="2" /></svg>