<?xml version="1.0" encoding="utf-8" ?>
<svg baseProfile="tiny" height="128" version="1.2" viewBox="0,0,128,128" width="128" xmlns="http://www.w3.org/2000/svg" xmlns:ev="http://www.w3.org/2001/xml-events" xmlns:xlink="http://www.w3.org/1999/xlink"><defs /><polyline fill="none" points="83.7424,29.5051 79.4034,28.2034 64.6508,28.6373 55.9729,34.278 46.4271,42.522 40.3525,51.6339 39.0508,57.7085 41.2203,63.3492 47.2949,69.4237 55.539,70.7254 68.5559,65.5186 78.9695,53.3695 82.4407,43.8237 82.4407,31.2407 80.7051,26.4678 72.8949,22.9966" stroke="#00007f" stroke-width="2" /><polyline fill="none" points="72.8949,22.9966 72.8949,22.9966" stroke="#0000d5" stroke-width="2" /><polyline fill="none" points="75.0644,26.4678 76.8,25.1661 77.2339,14.7525 74.1966,8.678" stroke="#001cff" stroke-width="2" /><polyline fill="none" points="74.1966,8.678 67.2542,12.5831 61.6136,19.0915 59.0102,26.0339" stroke="#006cff" stroke-width="2" /><polyline fill="none" points="59.0102,26.0339 59.0102,26.0339" stroke="#00b8ff" stroke-width="2" /><polyline fill="none" points="56.4068,31.2407 52.5017,26.0339 46.4271,20.3932 45.9932,45.5593" stroke="#1cffda" stroke-width="2" /><polyline fill="none" points="71.5932,39.9186 71.5932,39.9186" stroke="#5cff9a" stroke-width="2" /><polyline fill="none" points="59.4441,42.0881 59.4441,42.0881" stroke="#9aff5c" stroke-width="2" /><polyline fill="none" points="74.6305,39.4847 71.5932,40.3525 72.8949,39.0508" stroke="#daff1c" stroke-width="2" /><polyline fill="none" points="62.9153,39.0508 62.0475,41.6542 64.2169,40.3525 61.6136,42.522" stroke="#ffcb00" stroke-width="2" /><polyline fill="none" points="66.3864,50.7661 65.5186,48.1627 65.5186,50.7661" stroke="#ff8500" stroke-width="2" /><polyline fill="none" points="67.2542,48.5966 78.5356,48.5966" stroke="#ff3b00" stroke-width="2" /><polyline fill="none" points="63.3492,50.3322 48.5966,52.5017" stroke="#d50000" stroke-width="2" /><polyline fill="none" points="66.8203,63.3492 87.6475,63.3492 109.7763,65.9525 111.9458,94.5898 107.1729,103.2678 101.5322,109.7763 92.8542,115.4169 84.1763,118.0203 74.1966,119.322 52.5017,118.8881 19.5254,110.6441 13.0169,107.1729 9.1119,101.5322 8.678,96.3254 10.8475,88.9492 12.5831,84.1763 17.3559,78.5356 22.9966,74.1966 34.7119,68.9898 65.5186,57.7085" stroke="#7f0000" stroke-width="2" /></svg>