<?xml version="1.0" encoding="utf-8" ?>
<svg baseProfile="tiny" height="128" version="1.2" viewBox="0,0,128,128" width="128" xmlns="http://www.w3.org/2000/svg" xmlns:ev="http://www.w3.org/2001/xml-events" xmlns:xlink="http://www.w3.org/1999/xlink"><defs /><polyline fill="none" points="24.2983,119.322 26.4678,79.8373" stroke="#00007f" stroke-width="2" /><polyline fill="none" points="24.2983,117.1525 36.4475,114.5492" stroke="#0000f1" stroke-width="2" /><polyline fill="none" points="10.8475,73.7627 24.2983,75.0644 38.1831,78.5356 81.139,73.7627 85.478,70.2915 85.478,68.122 77.2339,60.3119 56.8407,57.2746 13.4508,58.5763 9.1119,62.4814 8.678,67.2542 9.5458,72.0271 15.1864,72.8949" stroke="#004cff" stroke-width="2" /><polyline fill="none" points="45.9932,75.0644 46.4271,108.9085 49.0305,110.6441 55.539,108.4746" stroke="#00b0ff" stroke-width="2" /><polyline fill="none" points="59.878,80.7051 62.9153,90.2508 62.9153,112.3797 74.6305,110.2102" stroke="#29ffcd" stroke-width="2" /><polyline fill="none" points="75.0644,73.7627 75.9322,78.5356 82.0068,91.1186 87.6475,114.5492 94.1559,107.6068" stroke="#7cff79" stroke-width="2" /><polyline fill="none" points="78.1017,58.1424 78.5356,53.3695 80.7051,50.3322" stroke="#cdff29" stroke-width="2" /><polyline fill="none" points="78.9695,49.8983 73.7627,42.9559 72.0271,36.8814 75.9322,28.6373 80.7051,27.3356 85.9119,29.5051 88.9492,35.1458 92.4203,44.2576 91.9864,52.9356 89.3831,58.1424 85.0441,58.1424 80.7051,55.9729 78.9695,53.8034 78.9695,47.7288 80.7051,45.9932" stroke="#ffc400" stroke-width="2" /><polyline fill="none" points="72.8949,25.6 75.9322,8.678 81.139,14.7525 83.7424,27.3356" stroke="#ff6700" stroke-width="2" /><polyline fill="none" points="90.6847,34.278 97.6271,29.5051 111.078,25.1661 105.0034,35.5797 98.4949,40.3525 94.5898,45.9932" stroke="#f10700" stroke-width="2" /><polyline fill="none" points="71.1593,28.2034 71.1593,26.0339" stroke="#7f0000" stroke-width="2" /></svg>