<?xml version="1.0" encoding="utf-8" ?>
<svg baseProfile="tiny" height="128" version="1.2" viewBox="0,0,128,128" width="128" xmlns="http://www.w3.org/2000/svg" xmlns:ev="http://www.w3.org/2001/xml-events" xmlns:xlink="http://www.w3.org/1999/xlink"><defs /><polyline fill="none" points="26.9017,32.1085 23.4305,25.1661 13.0169,10.8475 20.8271,11.7153 35.1458,23.4305 39.4847,19.9593 50.7661,19.9593 65.5186,23.8644 74.6305,15.1864 91.1186,8.678 89.3831,16.922 83.7424,30.3729 91.5525,42.9559 92.4203,52.5017 85.478,60.3119 72.8949,65.0847 45.5593,65.5186 38.6169,62.9153 29.939,52.5017 26.9017,44.6915 26.4678,34.278" stroke="#00007f" stroke-width="2" /><polyline fill="none" points="36.0136,43.3898 14.7525,56.4068 8.678,61.6136" stroke="#0010ff" stroke-width="2" /><polyline fill="none" points="36.0136,53.8034 19.9593,65.0847 9.9797,73.7627" stroke="#00a4ff" stroke-width="2" /><polyline fill="none" points="43.8237,63.3492 22.5627,76.3661" stroke="#3fffb7" stroke-width="2" /><polyline fill="none" points="82.4407,42.0881 92.4203,41.6542" stroke="#b7ff3f" stroke-width="2" /><polyline fill="none" points="80.7051,51.6339 110.2102,54.2373" stroke="#ffb900" stroke-width="2" /><polyline fill="none" points="82.0068,57.2746 91.9864,63.7831 119.322,72.0271" stroke="#ff3000" stroke-width="2" /><polyline fill="none" points="48.1627,46.4271 48.1627,52.9356 49.4644,54.6712 53.8034,56.8407 61.1797,56.8407 62.0475,53.8034 63.7831,59.4441 66.3864,61.1797 70.2915,61.1797 73.3288,59.0102 74.6305,50.7661" stroke="#7f0000" stroke-width="2" /></svg>