<?xml version="1.0" encoding="utf-8" ?>
<svg baseProfile="tiny" height="128" version="1.2" viewBox="0,0,128,128" width="128" xmlns="http://www.w3.org/2000/svg" xmlns:ev="http://www.w3.org/2001/xml-events" xmlns:xlink="http://www.w3.org/1999/xlink"><defs /><polyline fill="none" points="76.8,24.2983 85.0441,16.0542 95.0237,9.9797 98.4949,9.1119 98.9288,12.5831 92.8542,34.7119" stroke="#00007f" stroke-width="2" /><polyline fill="none" points="48.1627,23.4305 41.6542,19.0915 32.1085,8.678 30.3729,9.5458 30.3729,26.4678 33.4102,36.4475" stroke="#0000c8" stroke-width="2" /><polyline fill="none" points="34.278,39.4847 29.0712,43.3898 22.5627,53.8034 21.261,58.1424 22.5627,65.9525 26.4678,72.0271 57.7085,81.5729 68.5559,80.7051 73.7627,78.5356 78.9695,74.1966 89.3831,59.0102 94.5898,48.1627 94.5898,38.6169 90.6847,36.4475" stroke="#0000ff" stroke-width="2" /><polyline fill="none" points="45.1254,25.6 61.6136,20.3932 72.0271,21.6949 72.8949,22.9966" stroke="#0040ff" stroke-width="2" /><polyline fill="none" points="58.5763,42.9559 57.7085,57.2746" stroke="#0080ff" stroke-width="2" /><polyline fill="none" points="60.3119,39.4847 62.9153,39.9186" stroke="#00c0ff" stroke-width="2" /><polyline fill="none" points="61.6136,37.7492 55.539,41.2203 54.6712,45.9932 58.5763,47.2949 64.2169,45.1254 64.2169,40.3525 58.5763,39.4847 55.1051,42.0881" stroke="#15ffe1" stroke-width="2" /><polyline fill="none" points="62.4814,39.9186 59.878,45.5593" stroke="#49ffad" stroke-width="2" /><polyline fill="none" points="48.1627,56.4068 53.3695,59.878 64.2169,60.3119 70.2915,57.2746" stroke="#7cff79" stroke-width="2" /><polyline fill="none" points="80.2712,37.3153 80.2712,37.3153" stroke="#b0ff46" stroke-width="2" /><polyline fill="none" points="76.8,39.0508 75.4983,39.9186" stroke="#e4ff12" stroke-width="2" /><polyline fill="none" points="44.6915,39.0508 44.2576,39.4847" stroke="#ffcf00" stroke-width="2" /><polyline fill="none" points="81.5729,48.5966 99.3627,49.0305 111.9458,52.9356" stroke="#ff9400" stroke-width="2" /><polyline fill="none" points="83.7424,55.539 110.2102,62.0475 119.322,67.6881" stroke="#ff5900" stroke-width="2" /><polyline fill="none" points="80.2712,62.4814 86.7797,67.6881 93.722,76.8 106.739,98.061" stroke="#ff1d00" stroke-width="2" /><polyline fill="none" points="37.7492,47.2949 25.6,49.4644 12.5831,55.1051" stroke="#c30000" stroke-width="2" /><polyline fill="none" points="27.3356,59.878 19.9593,62.9153 12.5831,68.5559 8.678,80.2712" stroke="#7f0000" stroke-width="2" /></svg>