<?xml version="1.0" encoding="utf-8" ?>
<svg baseProfile="tiny" height="128" version="1.2" viewBox="0,0,128,128" width="128" xmlns="http://www.w3.org/2000/svg" xmlns:ev="http://www.w3.org/2001/xml-events" xmlns:xlink="http://www.w3.org/1999/xlink"><defs /><polyline fill="none" points="36.0136,47.7288 23.4305,52.9356 15.6203,59.0102 11.2814,65.9525 8.678,78.1017 11.7153,90.2508 16.0542,97.6271 28.6373,107.6068 49.0305,115.4169 70.2915,119.322 79.8373,118.4542 88.9492,114.9831 98.9288,108.4746 108.4746,98.9288 113.2475,87.6475 114.5492,80.2712 114.1153,72.0271 111.5119,62.4814 104.1356,54.2373 92.8542,45.9932 70.7254,39.0508 62.0475,38.1831 49.0305,38.6169 37.7492,42.522 29.0712,48.5966" stroke="#00007f" stroke-width="2" /><polyline fill="none" points="26.4678,43.3898 28.6373,21.6949 30.8068,14.7525 36.0136,8.678 39.0508,9.1119 41.6542,12.5831 47.7288,32.5424 51.2,39.0508" stroke="#004cff" stroke-width="2" /><polyline fill="none" points="90.6847,47.2949 99.7966,21.6949 105.0034,13.4508 108.0407,11.7153 110.2102,14.3186 111.5119,22.9966 111.078,54.2373" stroke="#29ffcd" stroke-width="2" /><polyline fill="none" points="55.1051,81.5729 50.7661,75.9322 49.4644,69.8576 50.7661,66.3864 56.4068,63.7831 65.5186,63.7831 70.7254,69.4237 69.8576,73.7627 59.4441,80.2712" stroke="#cdff29" stroke-width="2" /><polyline fill="none" points="55.9729,80.7051 55.539,88.9492 53.8034,91.9864 51.2,95.0237 45.5593,96.3254 36.8814,95.0237 34.278,87.6475 36.8814,82.4407" stroke="#ff6700" stroke-width="2" /><polyline fill="none" points="57.7085,81.139 57.2746,85.478 64.6508,99.7966 68.9898,101.9661 76.8,98.4949" stroke="#7f0000" stroke-width="2" /></svg>