<?xml version="1.0" encoding="utf-8" ?>
<svg baseProfile="tiny" height="128" version="1.2" viewBox="0,0,128,128" width="128" xmlns="http://www.w3.org/2000/svg" xmlns:ev="http://www.w3.org/2001/xml-events" xmlns:xlink="http://www.w3.org/1999/xlink"><defs /><polyline fill="none" points="9.1119,40.3525 29.939,26.4678 37.3153,24.7322 59.878,23.8644 75.4983,19.9593 88.5153,19.5254 100.2305,12.1492 109.7763,9.1119 113.2475,8.678 115.4169,12.1492 116.2847,17.7898 115.4169,20.8271 108.4746,26.9017 98.061,29.939" stroke="#00007f" stroke-width="2" /><polyline fill="none" points="8.678,40.7864 30.8068,32.1085 36.4475,38.1831 41.2203,52.9356 44.6915,45.5593 50.3322,41.6542 55.9729,53.3695 59.0102,54.2373 69.4237,42.0881 72.461,40.3525 75.9322,44.6915 78.1017,53.8034 87.2136,43.3898 91.1186,53.3695 95.8915,46.861 97.6271,38.6169 101.0983,32.5424" stroke="#0010ff" stroke-width="2" /><polyline fill="none" points="105.0034,28.2034 103.7017,36.4475 91.5525,51.2" stroke="#00a4ff" stroke-width="2" /><polyline fill="none" points="103.7017,21.261 108.9085,22.1288 112.3797,20.8271" stroke="#3fffb7" stroke-width="2" /><polyline fill="none" points="100.2305,24.2983 95.0237,24.7322 89.8169,28.2034" stroke="#b7ff3f" stroke-width="2" /><polyline fill="none" points="96.3254,19.9593 97.1932,19.9593 100.6644,22.5627" stroke="#ffb900" stroke-width="2" /><polyline fill="none" points="101.5322,15.6203 100.6644,19.0915" stroke="#ff3000" stroke-width="2" /><polyline fill="none" points="112.3797,22.9966 119.322,24.2983" stroke="#7f0000" stroke-width="2" /></svg>