<?xml version="1.0" encoding="utf-8" ?>
<svg baseProfile="tiny" height="128" version="1.2" viewBox="0,0,128,128" width="128" xmlns="http://www.w3.org/2000/svg" xmlns:ev="http://www.w3.org/2001/xml-events" xmlns:xlink="http://www.w3.org/1999/xlink"><defs /><polyline fill="none" points="21.261,47.2949 13.0169,27.3356 8.678,11.7153 12.1492,11.7153 16.922,13.4508 39.0508,31.2407 43.3898,32.5424 55.1051,29.939 70.2915,31.2407 78.5356,33.8441 89.8169,40.3525 99.7966,21.261 106.739,14.7525 119.322,8.678 112.8136,37.7492 111.078,71.5932 106.3051,85.0441 100.6644,91.5525 85.478,102.8339 66.8203,106.739 47.2949,105.8712 31.6746,97.1932" stroke="#00007f" stroke-width="2" /><polyline fill="none" points="19.9593,44.2576 14.7525,56.8407 14.3186,70.2915 15.6203,77.6678 24.2983,96.3254 29.5051,101.5322" stroke="#00d4ff" stroke-width="2" /><polyline fill="none" points="49.0305,45.9932 44.6915,56.8407 48.1627,58.5763 53.8034,57.2746 55.539,54.6712 52.9356,52.5017" stroke="#ffe500" stroke-width="2" /><polyline fill="none" points="87.6475,47.2949 82.4407,51.2 82.4407,54.2373 84.1763,54.2373 84.1763,51.6339" stroke="#7f0000" stroke-width="2" /></svg>