<?xml version="1.0" encoding="utf-8" ?>
<svg baseProfile="tiny" height="128" version="1.2" viewBox="0,0,128,128" width="128" xmlns="http://www.w3.org/2000/svg" xmlns:ev="http://www.w3.org/2001/xml-events" xmlns:xlink="http://www.w3.org/1999/xlink"><defs /><polyline fill="none" points="9.9797,11.7153 8.678,15.6203 9.1119,18.6576 16.4881,42.0881 22.9966,89.3831 29.0712,101.9661 33.4102,107.1729 38.6169,110.2102 52.5017,116.2847 61.6136,118.0203 84.1763,119.322 91.5525,117.5864 99.3627,110.2102 104.5695,96.3254 109.7763,75.9322 112.8136,60.3119 112.8136,35.1458 108.4746,9.9797 105.4373,8.678 94.1559,23.8644 89.3831,36.4475 84.1763,41.2203 70.7254,41.6542 46.4271,46.861 43.3898,46.861 29.5051,33.8441 19.5254,26.9017 14.7525,22.1288 12.1492,14.7525" stroke="#00007f" stroke-width="2" /><polyline fill="none" points="66.3864,81.139 63.3492,79.8373 62.9153,75.0644 65.0847,70.7254 69.8576,67.6881 73.7627,67.2542 75.9322,71.1593 70.2915,76.8 64.2169,78.9695 67.6881,75.4983 75.4983,73.3288" stroke="#004cff" stroke-width="2" /><polyline fill="none" points="72.0271,70.7254 72.0271,91.5525 65.0847,97.6271 52.9356,101.5322" stroke="#29ffcd" stroke-width="2" /><polyline fill="none" points="66.3864,78.5356 88.5153,88.9492 96.3254,88.9492 103.7017,85.478" stroke="#cdff29" stroke-width="2" /><polyline fill="none" points="44.6915,62.9153 42.522,55.9729 45.1254,52.5017" stroke="#ff6700" stroke-width="2" /><polyline fill="none" points="90.6847,62.9153 90.6847,57.7085" stroke="#7f0000" stroke-width="2" /></svg>