<?xml version="1.0" encoding="utf-8" ?>
<svg baseProfile="tiny" height="128" version="1.2" viewBox="0,0,128,128" width="128" xmlns="http://www.w3.org/2000/svg" xmlns:ev="http://www.w3.org/2001/xml-events" xmlns:xlink="http://www.w3.org/1999/xlink"><defs /><polyline fill="none" points="61.1797,8.678 47.7288,16.922 18.2237,46.861 13.8847,52.5017 9.5458,66.8203 8.678,76.3661 14.7525,92.4203 23.4305,106.3051 36.4475,113.6814 53.3695,119.322 75.4983,118.0203 98.9288,111.5119 114.1153,104.5695 116.7186,101.9661 117.1525,94.1559 114.1153,87.2136 104.1356,72.8949 98.061,59.0102 92.4203,49.4644 78.5356,37.3153 67.2542,30.3729 62.4814,19.5254 62.4814,16.0542 55.9729,12.5831" stroke="#00007f" stroke-width="2" /><polyline fill="none" points="58.1424,78.1017 55.539,80.7051 58.5763,92.4203 61.6136,93.722 69.4237,93.2881 70.2915,87.6475 61.6136,80.7051" stroke="#0000fe" stroke-width="2" /><polyline fill="none" points="66.8203,83.3085 72.461,82.8746 86.3458,76.3661" stroke="#0060ff" stroke-width="2" /><polyline fill="none" points="68.9898,87.2136 80.7051,87.2136" stroke="#00d4ff" stroke-width="2" /><polyline fill="none" points="72.0271,89.3831 75.9322,90.2508 86.7797,95.4576" stroke="#4cffaa" stroke-width="2" /><polyline fill="none" points="55.539,82.8746 49.8983,82.8746 40.3525,79.8373 26.4678,69.8576" stroke="#aaff4c" stroke-width="2" /><polyline fill="none" points="55.539,85.9119 30.3729,91.1186 29.939,91.9864" stroke="#ffe500" stroke-width="2" /><polyline fill="none" points="56.4068,91.9864 42.522,105.0034" stroke="#ff7a00" stroke-width="2" /><polyline fill="none" points="54.2373,48.1627 52.0678,53.3695 52.0678,59.878 53.8034,62.4814 56.8407,62.9153 60.7458,59.4441 62.4814,55.9729 62.4814,52.9356 58.5763,47.7288 52.5017,45.1254" stroke="#fe1200" stroke-width="2" /><polyline fill="none" points="33.8441,49.4644 36.4475,54.6712 39.0508,55.1051 39.4847,52.0678 38.6169,49.0305 35.5797,47.7288 33.8441,48.1627" stroke="#7f0000" stroke-width="2" /></svg>