<?xml version="1.0" encoding="utf-8" ?>
<svg baseProfile="tiny" height="128" version="1.2" viewBox="0,0,128,128" width="128" xmlns="http://www.w3.org/2000/svg" xmlns:ev="http://www.w3.org/2001/xml-events" xmlns:xlink="http://www.w3.org/1999/xlink"><defs /><polyline fill="none" points="48.1627,30.8068 33.8441,26.4678 8.678,23.4305" stroke="#00007f" stroke-width="2" /><polyline fill="none" points="47.2949,33.8441 66.3864,28.6373 85.9119,28.2034 101.9661,32.5424 107.6068,37.3153 105.8712,42.0881 98.9288,45.5593 86.3458,48.1627 75.4983,48.5966 60.3119,47.2949 53.8034,44.2576 50.7661,39.0508 51.6339,32.1085 54.2373,26.9017" stroke="#0000f1" stroke-width="2" /><polyline fill="none" points="57.2746,42.0881 49.8983,73.3288" stroke="#004cff" stroke-width="2" /><polyline fill="none" points="96.3254,47.7288 101.5322,59.878" stroke="#00b0ff" stroke-width="2" /><polyline fill="none" points="107.6068,18.6576 103.2678,21.6949 101.0983,28.6373 104.1356,31.2407 109.3424,30.8068 113.2475,26.9017 111.9458,22.9966 105.0034,19.5254 98.4949,22.1288" stroke="#29ffcd" stroke-width="2" /><polyline fill="none" points="97.1932,21.261 94.1559,14.7525 95.0237,12.1492 102.8339,21.261 106.739,22.1288" stroke="#7cff79" stroke-width="2" /><polyline fill="none" points="108.9085,18.6576 116.2847,8.678 113.2475,22.1288" stroke="#cdff29" stroke-width="2" /><polyline fill="none" points="108.9085,26.0339 108.9085,26.0339" stroke="#ffc400" stroke-width="2" /><polyline fill="none" points="106.739,26.9017 105.8712,28.2034" stroke="#ff6700" stroke-width="2" /><polyline fill="none" points="101.9661,30.3729 103.7017,38.6169 108.4746,39.9186 113.2475,38.6169 115.8508,35.5797 116.7186,31.6746 112.3797,22.5627 108.9085,20.3932 105.0034,19.5254 100.2305,22.1288 97.6271,25.6" stroke="#f10700" stroke-width="2" /><polyline fill="none" points="102.8339,23.4305 98.9288,35.5797 102.8339,41.2203 106.739,42.9559 111.9458,42.0881 116.2847,38.6169 119.322,32.5424 114.1153,26.0339 108.4746,24.2983 104.1356,24.7322" stroke="#7f0000" stroke-width="2" /></svg>