<?xml version="1.0" encoding="utf-8" ?>
<svg baseProfile="tiny" height="128" version="1.2" viewBox="0,0,128,128" width="128" xmlns="http://www.w3.org/2000/svg" xmlns:ev="http://www.w3.org/2001/xml-events" xmlns:xlink="http://www.w3.org/1999/xlink"><defs /><polyline fill="none" points="49.0305,88.0814 39.9186,88.0814 30.8068,86.3458 15.1864,78.9695 11.2814,74.6305 9.5458,70.2915 8.678,57.7085 10.8475,49.8983 16.0542,43.8237 50.7661,21.6949" stroke="#00007f" stroke-width="2" /><polyline fill="none" points="49.0305,24.7322 61.6136,8.678 64.2169,24.2983" stroke="#0000de" stroke-width="2" /><polyline fill="none" points="65.9525,24.2983 74.6305,24.7322 90.2508,28.6373" stroke="#0028ff" stroke-width="2" /><polyline fill="none" points="90.2508,28.6373 104.1356,18.2237 104.5695,32.9763" stroke="#0080ff" stroke-width="2" /><polyline fill="none" points="98.061,32.9763 102.4,33.4102 109.7763,36.8814 116.7186,45.5593 119.322,54.2373 119.322,62.9153 118.8881,66.3864 114.5492,72.461 101.0983,80.7051 89.8169,83.7424 60.3119,87.2136 45.5593,86.3458" stroke="#00d4ff" stroke-width="2" /><polyline fill="none" points="71.5932,40.7864 69.4237,47.7288 71.1593,48.1627 72.0271,45.5593" stroke="#36ffc0" stroke-width="2" /><polyline fill="none" points="100.6644,43.8237 97.6271,51.6339 99.3627,52.0678 101.0983,47.7288" stroke="#7cff79" stroke-width="2" /><polyline fill="none" points="76.3661,61.1797 90.6847,60.3119" stroke="#c0ff36" stroke-width="2" /><polyline fill="none" points="85.478,61.1797 85.0441,68.9898 80.2712,76.3661" stroke="#ffe500" stroke-width="2" /><polyline fill="none" points="64.2169,56.8407 57.2746,54.2373 53.3695,54.2373" stroke="#ff9400" stroke-width="2" /><polyline fill="none" points="64.6508,61.1797 55.539,61.6136" stroke="#ff4600" stroke-width="2" /><polyline fill="none" points="60.3119,66.3864 53.3695,69.4237" stroke="#de0000" stroke-width="2" /><polyline fill="none" points="103.2678,58.5763 112.3797,57.7085" stroke="#7f0000" stroke-width="2" /></svg>