<?xml version="1.0" encoding="utf-8" ?>
<svg baseProfile="tiny" height="128" version="1.2" viewBox="0,0,128,128" width="128" xmlns="http://www.w3.org/2000/svg" xmlns:ev="http://www.w3.org/2001/xml-events" xmlns:xlink="http://www.w3.org/1999/xlink"><defs /><polyline fill="none" points="19.5918,48.7619 17.415,44.8435 17.8503,34.3946 27.8639,12.1905 31.3469,26.5578 39.1837,42.6667" stroke="#00007f" stroke-width="2" /><polyline fill="none" points="48.3265,47.0204 48.7619,43.102 55.2925,33.0884 64.4354,8.7075 78.3673,37.4422" stroke="#0028ff" stroke-width="2" /><polyline fill="none" points="91.4286,50.9388 78.3673,50.068 60.0816,44.8435 40.4898,43.9728 17.8503,49.1973 15.6735,51.8095 12.1905,61.8231 8.7075,83.5918 8.7075,95.7823 12.1905,111.0204 16.5442,116.2449 26.9932,119.2925 49.1973,119.2925 62.2585,117.1156 69.6599,112.3265 79.6735,96.2177 82.7211,88.381 86.6395,62.6939 86.2041,57.9048 81.8503,52.2449" stroke="#00d4ff" stroke-width="2" /><polyline fill="none" points="48.7619,82.7211 54.4218,82.2857" stroke="#7cff79" stroke-width="2" /><polyline fill="none" points="42.6667,100.1361 49.6327,99.7007 57.4694,106.6667" stroke="#ffe500" stroke-width="2" /><polyline fill="none" points="58.3401,104.4898 67.0476,102.7483" stroke="#ff4600" stroke-width="2" /><polyline fill="none" points="28.2993,87.5102 24.8163,86.2041 21.7687,87.0748" stroke="#7f0000" stroke-width="2" /></svg>