<?xml version="1.0" encoding="utf-8" ?>
<svg baseProfile="tiny" height="128" version="1.2" viewBox="0,0,128,128" width="128" xmlns="http://www.w3.org/2000/svg" xmlns:ev="http://www.w3.org/2001/xml-events" xmlns:xlink="http://www.w3.org/1999/xlink"><defs /><polyline fill="none" points="82.4407,35.5797 75.4983,30.8068 68.9898,28.6373 61.1797,28.6373 53.8034,32.1085 45.9932,40.7864 43.8237,46.861 44.2576,55.9729 47.2949,62.4814 55.539,69.8576 67.6881,72.8949 74.1966,72.461 84.1763,69.4237 90.6847,63.7831 93.722,58.5763 93.2881,46.861 88.0814,38.6169 77.6678,29.5051" stroke="#00007f" stroke-width="2" /><polyline fill="none" points="72.461,28.2034 83.7424,16.922 91.9864,11.7153 94.1559,11.2814 94.5898,16.0542 89.8169,32.9763" stroke="#0010ff" stroke-width="2" /><polyline fill="none" points="60.7458,28.2034 48.1627,8.678 49.8983,19.9593 49.4644,31.2407" stroke="#00a4ff" stroke-width="2" /><polyline fill="none" points="44.6915,48.1627 8.678,38.1831" stroke="#3fffb7" stroke-width="2" /><polyline fill="none" points="49.0305,52.9356 27.3356,53.8034 16.922,56.4068" stroke="#b7ff3f" stroke-width="2" /><polyline fill="none" points="47.7288,59.4441 22.9966,68.9898" stroke="#ffb900" stroke-width="2" /><polyline fill="none" points="82.4407,47.7288 90.6847,45.1254 119.322,41.2203" stroke="#ff3000" stroke-width="2" /><polyline fill="none" points="83.3085,59.0102 95.0237,57.2746" stroke="#7f0000" stroke-width="2" /></svg>