<?xml version="1.0" encoding="utf-8" ?>
<svg baseProfile="tiny" height="128" version="1.2" viewBox="0,0,128,128" width="128" xmlns="http://www.w3.org/2000/svg" xmlns:ev="http://www.w3.org/2001/xml-events" xmlns:xlink="http://www.w3.org/1999/xlink"><defs /><polyline fill="none" points="63.3492,18.6576 53.3695,20.3932 44.2576,23.8644 31.6746,34.278 20.3932,49.0305 16.0542,64.6508 16.0542,71.5932 17.7898,75.4983 29.0712,89.3831 43.8237,92.4203 63.3492,100.2305 85.478,100.2305 89.3831,95.8915 91.5525,91.1186 93.722,67.6881 93.722,50.3322 89.8169,40.7864 83.3085,32.5424 68.5559,18.6576" stroke="#00007f" stroke-width="2" /><polyline fill="none" points="28.2034,41.2203 25.6,37.7492 22.5627,26.9017 19.0915,22.9966 9.5458,16.922 8.678,10.8475 11.2814,8.678 18.2237,14.7525 30.3729,20.3932 39.4847,29.0712 46.861,33.4102" stroke="#004cff" stroke-width="2" /><polyline fill="none" points="76.8,24.7322 107.6068,18.6576 119.322,14.3186 105.8712,29.0712 99.3627,44.6915 94.1559,49.0305" stroke="#29ffcd" stroke-width="2" /><polyline fill="none" points="49.4644,39.9186 45.9932,43.3898 44.6915,48.5966 47.7288,51.2 50.7661,48.1627 49.4644,42.0881" stroke="#cdff29" stroke-width="2" /><polyline fill="none" points="68.122,47.7288 65.9525,50.3322 67.2542,53.3695 73.7627,53.8034 78.5356,46.861 72.8949,45.1254" stroke="#ff6700" stroke-width="2" /><polyline fill="none" points="55.1051,70.7254 47.7288,80.2712 53.8034,81.139 54.6712,76.3661" stroke="#7f0000" stroke-width="2" /></svg>