<?xml version="1.0" encoding="utf-8" ?>
<svg baseProfile="tiny" height="128" version="1.2" viewBox="0,0,128,128" width="128" xmlns="http://www.w3.org/2000/svg" xmlns:ev="http://www.w3.org/2001/xml-events" xmlns:xlink="http://www.w3.org/1999/xlink"><defs /><polyline fill="none" points="13.8847,45.1254 15.1864,42.9559 36.8814,32.1085 57.2746,23.8644 78.9695,22.5627 84.6102,25.1661 93.2881,32.9763 96.3254,43.8237 96.3254,50.7661 94.1559,59.4441 90.2508,67.6881 80.2712,83.7424 75.0644,87.2136 66.3864,90.2508 55.9729,91.5525 36.4475,91.1186 24.2983,84.6102 13.4508,73.3288 10.8475,68.9898 8.678,55.1051 10.8475,50.7661 24.2983,35.5797" stroke="#00007f" stroke-width="2" /><polyline fill="none" points="29.5051,49.0305 35.1458,50.3322 36.0136,52.9356 32.1085,53.8034" stroke="#0000cc" stroke-width="2" /><polyline fill="none" points="77.6678,49.4644 73.3288,49.0305 70.2915,46.861 69.8576,45.1254 71.5932,46.861 70.2915,51.6339" stroke="#0008ff" stroke-width="2" /><polyline fill="none" points="52.0678,64.2169 45.5593,55.539 49.4644,54.2373 62.4814,55.539 59.878,61.1797 52.5017,65.9525" stroke="#004cff" stroke-width="2" /><polyline fill="none" points="55.1051,62.9153 51.2,71.1593 46.4271,75.9322 44.2576,76.3661 42.0881,74.6305 41.2203,69.4237" stroke="#0090ff" stroke-width="2" /><polyline fill="none" points="55.539,62.4814 55.9729,71.1593 58.1424,75.9322 62.0475,76.3661 67.2542,70.7254" stroke="#00d4ff" stroke-width="2" /><polyline fill="none" points="14.7525,44.6915 13.0169,42.522 13.8847,30.8068 19.9593,10.4136 21.6949,8.678 24.2983,8.678 32.1085,13.8847 44.6915,29.0712" stroke="#29ffcd" stroke-width="2" /><polyline fill="none" points="24.7322,37.7492 25.1661,25.6 27.7695,24.7322 33.8441,29.5051" stroke="#5fff96" stroke-width="2" /><polyline fill="none" points="91.5525,24.7322 102.8339,18.6576 112.3797,15.6203 112.3797,19.0915 102.8339,35.1458" stroke="#96ff5f" stroke-width="2" /><polyline fill="none" points="94.5898,29.939 100.2305,28.6373 100.2305,30.8068 94.1559,35.5797" stroke="#cdff29" stroke-width="2" /><polyline fill="none" points="75.0644,54.6712 95.0237,49.4644 111.9458,47.2949" stroke="#ffe500" stroke-width="2" /><polyline fill="none" points="71.5932,69.4237 76.3661,68.9898 81.5729,70.7254 93.722,76.3661" stroke="#ffa600" stroke-width="2" /><polyline fill="none" points="65.9525,87.6475 78.1017,104.1356" stroke="#ff6700" stroke-width="2" /><polyline fill="none" points="35.1458,66.8203 17.3559,61.6136 9.1119,61.1797" stroke="#ff2800" stroke-width="2" /><polyline fill="none" points="29.0712,72.8949 22.5627,76.8 18.6576,83.3085 16.4881,89.3831" stroke="#cc0000" stroke-width="2" /><polyline fill="none" points="34.278,91.5525 34.278,119.322" stroke="#7f0000" stroke-width="2" /></svg>