<?xml version="1.0" encoding="utf-8" ?>
<svg baseProfile="tiny" height="128" version="1.2" viewBox="0,0,128,128" width="128" xmlns="http://www.w3.org/2000/svg" xmlns:ev="http://www.w3.org/2001/xml-events" xmlns:xlink="http://www.w3.org/1999/xlink"><defs /><polyline fill="none" points="66.3864,37.3153 65.5186,36.0136 61.6136,35.5797 55.1051,38.1831 33.4102,61.6136 26.4678,74.6305 25.1661,91.1186 26.9017,97.1932 30.8068,102.8339 36.4475,108.0407 45.9932,111.9458 70.2915,112.8136 76.3661,112.3797 80.7051,109.7763 95.0237,90.2508 98.9288,72.0271 98.4949,59.878 93.2881,50.3322 71.5932,42.522 55.539,35.1458" stroke="#00007f" stroke-width="2" /><polyline fill="none" points="43.3898,57.7085 43.3898,42.9559 50.3322,8.678 52.5017,12.1492 53.8034,27.7695 58.5763,40.7864" stroke="#0000e8" stroke-width="2" /><polyline fill="none" points="72.8949,43.3898 88.0814,33.4102 114.5492,22.5627 119.322,16.0542 111.5119,24.2983 105.8712,36.4475 95.0237,51.6339 88.5153,57.7085" stroke="#0038ff" stroke-width="2" /><polyline fill="none" points="55.1051,55.539 55.539,58.5763 56.8407,59.0102" stroke="#0094ff" stroke-width="2" /><polyline fill="none" points="76.8,62.4814 69.8576,64.6508" stroke="#0cf4ea" stroke-width="2" /><polyline fill="none" points="59.4441,75.9322 59.4441,75.9322" stroke="#56ffa0" stroke-width="2" /><polyline fill="none" points="46.861,82.0068 47.2949,89.8169 52.5017,98.061 64.6508,97.1932 75.9322,85.478" stroke="#a0ff56" stroke-width="2" /><polyline fill="none" points="27.3356,70.7254 8.678,66.8203" stroke="#eaff0c" stroke-width="2" /><polyline fill="none" points="22.9966,78.1017 14.7525,83.7424" stroke="#ffaa00" stroke-width="2" /><polyline fill="none" points="25.6,90.6847 18.6576,99.7966 13.4508,103.2678" stroke="#ff5500" stroke-width="2" /><polyline fill="none" points="98.061,80.2712 111.9458,77.2339" stroke="#e80000" stroke-width="2" /><polyline fill="none" points="96.7593,93.722 100.6644,95.0237" stroke="#7f0000" stroke-width="2" /></svg>