<?xml version="1.0" encoding="utf-8" ?>
<svg baseProfile="tiny" height="128" version="1.2" viewBox="0,0,128,128" width="128" xmlns="http://www.w3.org/2000/svg" xmlns:ev="http://www.w3.org/2001/xml-events" xmlns:xlink="http://www.w3.org/1999/xlink"><defs /><polyline fill="none" points="36.4475,40.7864 39.4847,8.678 42.0881,9.9797 44.2576,13.4508 51.2,36.0136 53.3695,38.6169 61.6136,35.1458 67.2542,34.7119 72.461,35.5797 78.5356,39.9186 82.8746,30.8068 96.7593,12.1492 98.4949,13.4508 98.9288,20.3932 94.1559,45.9932 100.6644,58.5763 101.5322,70.2915 95.4576,86.7797 91.1186,92.4203 86.3458,95.4576 72.461,100.2305 56.4068,98.4949 42.522,92.4203 29.0712,81.5729 23.8644,73.3288 22.9966,58.1424 27.7695,51.2 38.6169,41.6542" stroke="#00007f" stroke-width="2" /><polyline fill="none" points="44.2576,75.9322 32.1085,85.0441 8.678,105.4373" stroke="#0080ff" stroke-width="2" /><polyline fill="none" points="40.3525,64.6508 23.4305,75.4983 8.678,82.0068" stroke="#7cff79" stroke-width="2" /><polyline fill="none" points="77.2339,78.5356 102.4,92.8542 112.8136,100.2305" stroke="#ff9400" stroke-width="2" /><polyline fill="none" points="81.5729,68.9898 119.322,82.8746" stroke="#7f0000" stroke-width="2" /></svg>