<?xml version="1.0" encoding="utf-8" ?>
<svg baseProfile="tiny" height="128" version="1.2" viewBox="0,0,128,128" width="128" xmlns="http://www.w3.org/2000/svg" xmlns:ev="http://www.w3.org/2001/xml-events" xmlns:xlink="http://www.w3.org/1999/xlink"><defs /><polyline fill="none" points="16.0542,27.3356 16.0542,27.3356" stroke="#00007f" stroke-width="2" /><polyline fill="none" points="16.0542,27.3356 17.7898,17.3559" stroke="#0000b1" stroke-width="2" /><polyline fill="none" points="17.7898,16.922 17.7898,9.5458 19.9593,8.678 20.8271,10.4136 26.4678,32.5424 32.9763,22.5627 39.4847,21.261 64.6508,49.8983 66.8203,32.9763 72.461,20.8271 77.2339,14.3186 79.4034,26.0339 82.0068,31.6746 101.9661,59.4441 107.6068,64.6508" stroke="#0000e8" stroke-width="2" /><polyline fill="none" points="16.922,27.7695 16.4881,27.7695" stroke="#0008ff" stroke-width="2" /><polyline fill="none" points="15.6203,27.7695 13.0169,30.8068 11.2814,39.0508 11.2814,52.0678 12.1492,57.2746 17.3559,64.6508 43.3898,91.5525 51.6339,98.9288 70.2915,109.7763 79.4034,108.9085 89.3831,104.5695 95.0237,95.8915 94.5898,87.2136 107.1729,64.6508" stroke="#0038ff" stroke-width="2" /><polyline fill="none" points="77.2339,72.0271 88.5153,70.2915 115.4169,70.2915" stroke="#0068ff" stroke-width="2" /><polyline fill="none" points="78.1017,81.139 87.6475,83.3085 106.739,91.5525 114.5492,92.8542" stroke="#0094ff" stroke-width="2" /><polyline fill="none" points="83.7424,94.5898 98.4949,111.5119 111.078,119.322" stroke="#00c4ff" stroke-width="2" /><polyline fill="none" points="32.1085,59.4441 10.8475,68.9898" stroke="#0cf4ea" stroke-width="2" /><polyline fill="none" points="10.4136,68.9898 9.5458,69.4237" stroke="#2fffc7" stroke-width="2" /><polyline fill="none" points="8.678,69.8576 8.678,69.8576" stroke="#56ffa0" stroke-width="2" /><polyline fill="none" points="34.7119,64.2169 27.3356,67.6881 15.1864,76.8" stroke="#7cff79" stroke-width="2" /><polyline fill="none" points="39.9186,70.7254 36.4475,72.8949" stroke="#a0ff56" stroke-width="2" /><polyline fill="none" points="34.278,75.4983 30.8068,77.6678" stroke="#c7ff2f" stroke-width="2" /><polyline fill="none" points="28.6373,79.8373 24.2983,84.1763" stroke="#eaff0c" stroke-width="2" /><polyline fill="none" points="19.9593,88.0814 14.3186,92.8542" stroke="#ffd700" stroke-width="2" /><polyline fill="none" points="16.922,28.6373 16.922,28.6373" stroke="#ffaa00" stroke-width="2" /><polyline fill="none" points="24.2983,29.939 24.2983,29.939" stroke="#ff8100" stroke-width="2" /><polyline fill="none" points="14.7525,25.6 20.3932,27.7695" stroke="#ff5500" stroke-width="2" /><polyline fill="none" points="20.3932,27.7695 26.0339,29.939" stroke="#ff2800" stroke-width="2" /><polyline fill="none" points="64.6508,40.7864 65.9525,40.7864" stroke="#e80000" stroke-width="2" /><polyline fill="none" points="67.2542,39.4847 69.8576,37.3153" stroke="#b10000" stroke-width="2" /><polyline fill="none" points="85.478,29.939 91.5525,27.7695 99.3627,21.261" stroke="#7f0000" stroke-width="2" /></svg>