<?xml version="1.0" encoding="utf-8" ?>
<svg baseProfile="tiny" height="128" version="1.2" viewBox="0,0,128,128" width="128" xmlns="http://www.w3.org/2000/svg" xmlns:ev="http://www.w3.org/2001/xml-events" xmlns:xlink="http://www.w3.org/1999/xlink"><defs /><polyline fill="none" points="25.6,53.8034 22.9966,34.7119 22.9966,19.9593 24.7322,14.3186 27.7695,12.1492 33.8441,13.4508 39.0508,22.1288 41.2203,29.0712 43.8237,46.861 49.0305,48.1627 60.7458,18.6576 69.8576,8.678 73.3288,17.3559 76.8,45.5593 79.4034,50.7661" stroke="#00007f" stroke-width="2" /><polyline fill="none" points="79.4034,50.7661 80.7051,64.6508 75.9322,76.8 70.2915,81.5729 50.3322,90.6847 45.1254,90.6847 39.4847,88.5153 31.6746,82.0068 26.9017,71.1593 26.9017,54.2373" stroke="#0000e8" stroke-width="2" /><polyline fill="none" points="41.2203,58.1424 41.2203,58.1424" stroke="#0038ff" stroke-width="2" /><polyline fill="none" points="39.0508,57.2746 39.0508,57.2746" stroke="#0094ff" stroke-width="2" /><polyline fill="none" points="37.3153,58.1424 42.0881,58.1424" stroke="#0cf4ea" stroke-width="2" /><polyline fill="none" points="59.878,56.8407 64.6508,55.9729" stroke="#56ffa0" stroke-width="2" /><polyline fill="none" points="51.6339,69.4237 52.9356,69.4237" stroke="#a0ff56" stroke-width="2" /><polyline fill="none" points="64.2169,70.7254 81.139,64.6508 119.322,61.6136" stroke="#eaff0c" stroke-width="2" /><polyline fill="none" points="67.2542,71.1593 75.0644,73.7627 112.8136,79.8373" stroke="#ffaa00" stroke-width="2" /><polyline fill="none" points="39.4847,68.5559 36.4475,69.8576 29.5051,70.7254 8.678,69.8576" stroke="#ff5500" stroke-width="2" /><polyline fill="none" points="38.1831,69.4237 36.4475,72.461 26.4678,81.5729 19.5254,91.5525" stroke="#e80000" stroke-width="2" /><polyline fill="none" points="39.4847,71.5932 36.0136,78.9695 35.5797,91.1186 36.4475,91.9864" stroke="#7f0000" stroke-width="2" /></svg>