<?xml version="1.0" encoding="utf-8" ?>
<svg baseProfile="tiny" height="128" version="1.2" viewBox="0,0,128,128" width="128" xmlns="http://www.w3.org/2000/svg" xmlns:ev="http://www.w3.org/2001/xml-events" xmlns:xlink="http://www.w3.org/1999/xlink"><defs /><polyline fill="none" points="52.5017,37.3153 37.3153,8.678 37.3153,21.261 34.7119,36.4475" stroke="#00007f" stroke-width="2" /><polyline fill="none" points="33.8441,37.3153 34.7119,56.4068" stroke="#0000fe" stroke-width="2" /><polyline fill="none" points="51.6339,36.4475 80.2712,36.0136 86.3458,38.1831" stroke="#0060ff" stroke-width="2" /><polyline fill="none" points="86.7797,38.1831 94.5898,28.2034 107.1729,17.7898 106.739,26.4678 98.9288,65.0847 100.6644,70.2915 100.2305,82.4407 95.8915,89.8169 90.6847,92.8542 74.6305,94.5898 59.0102,94.1559 49.8983,90.2508 41.6542,84.6102 27.3356,68.9898 23.8644,55.9729 23.8644,51.6339 26.4678,49.4644 37.7492,50.3322" stroke="#00d4ff" stroke-width="2" /><polyline fill="none" points="60.7458,66.8203 60.3119,68.9898 66.3864,69.4237 67.6881,64.2169 66.3864,62.0475 59.0102,59.878 51.6339,60.3119 50.3322,62.4814 52.5017,65.9525" stroke="#4cffaa" stroke-width="2" /><polyline fill="none" points="52.9356,66.8203 26.0339,66.8203 8.678,65.0847" stroke="#aaff4c" stroke-width="2" /><polyline fill="none" points="48.5966,75.0644 42.522,75.0644 13.4508,84.1763" stroke="#ffe500" stroke-width="2" /><polyline fill="none" points="50.3322,85.9119 41.6542,87.6475 32.5424,94.1559" stroke="#ff7a00" stroke-width="2" /><polyline fill="none" points="73.3288,70.7254 88.0814,66.3864 119.322,62.9153" stroke="#fe1200" stroke-width="2" /><polyline fill="none" points="82.0068,70.2915 94.5898,70.2915" stroke="#7f0000" stroke-width="2" /></svg>