<?xml version="1.0" encoding="utf-8" ?>
<svg baseProfile="tiny" height="128" version="1.2" viewBox="0,0,128,128" width="128" xmlns="http://www.w3.org/2000/svg" xmlns:ev="http://www.w3.org/2001/xml-events" xmlns:xlink="http://www.w3.org/1999/xlink"><defs /><polyline fill="none" points="31.3469,55.2925 23.5102,80.5442 28.2993,77.0612" stroke="#00007f" stroke-width="2" /><polyline fill="none" points="69.6599,57.9048 67.9184,60.9524 65.3061,78.8027 61.8231,75.7551" stroke="#0000d5" stroke-width="2" /><polyline fill="none" points="51.8095,33.0884 38.3129,27.8639 32.2177,31.7823 28.2993,53.551 30.4762,56.1633 40.0544,61.8231 52.2449,65.7415 60.9524,66.1769 68.7891,60.517 72.7075,50.5034 72.2721,38.3129 68.3537,28.2993 45.2789,27.8639 43.102,29.1701 44.4082,29.6054" stroke="#001cff" stroke-width="2" /><polyline fill="none" points="30.4762,29.6054 30.4762,23.9456 27.8639,20.0272 22.6395,17.415 15.2381,16.1088 11.3197,17.415 8.7075,20.898 8.7075,29.6054 12.1905,33.9592 16.5442,36.1361 24.381,38.7483 30.4762,38.7483 33.9592,33.9592 34.8299,28.2993 27.4286,23.0748" stroke="#006cff" stroke-width="2" /><polyline fill="none" points="11.7551,10.8844 19.5918,8.7075 17.415,16.5442 20.898,16.5442" stroke="#00b8ff" stroke-width="2" /><polyline fill="none" points="24.381,16.5442 36.5714,14.8027 33.9592,16.5442 32.6531,27.4286 34.3946,28.7347 36.5714,27.8639" stroke="#1cffda" stroke-width="2" /><polyline fill="none" points="67.483,36.5714 96.6531,36.1361 103.1837,33.9592 108.8435,29.1701" stroke="#5cff9a" stroke-width="2" /><polyline fill="none" points="15.2381,20.0272 16.9796,19.1565" stroke="#9aff5c" stroke-width="2" /><polyline fill="none" points="24.8163,24.381 25.2517,23.0748 23.0748,24.381" stroke="#daff1c" stroke-width="2" /><polyline fill="none" points="14.8027,27.8639 20.0272,32.6531 29.6054,33.5238" stroke="#ffcb00" stroke-width="2" /><polyline fill="none" points="36.1361,63.5646 34.3946,74.449" stroke="#ff8500" stroke-width="2" /><polyline fill="none" points="53.1156,66.6122 51.3741,78.8027 50.5034,75.3197" stroke="#ff3b00" stroke-width="2" /><polyline fill="none" points="37.0068,60.0816 35.7007,66.6122" stroke="#d50000" stroke-width="2" /><polyline fill="none" points="74.449,38.7483 101.8776,39.619 108.4082,38.3129 115.3741,34.8299 118.4218,30.9116 119.2925,26.9932 112.3265,26.5578 104.0544,30.0408" stroke="#7f0000" stroke-width="2" /></svg>