<?xml version="1.0" encoding="utf-8" ?>
<svg baseProfile="tiny" height="128" version="1.2" viewBox="0,0,128,128" width="128" xmlns="http://www.w3.org/2000/svg" xmlns:ev="http://www.w3.org/2001/xml-events" xmlns:xlink="http://www.w3.org/1999/xlink"><defs /><polyline fill="none" points="102.4,81.139 100.6644,84.1763 101.0983,89.8169 104.1356,89.3831 105.4373,85.9119 105.0034,82.8746 101.9661,82.4407" stroke="#00007f" stroke-width="2" /><polyline fill="none" points="100.6644,88.0814 94.5898,72.8949 91.9864,69.8576 85.0441,68.9898 78.5356,71.1593 73.7627,75.0644 72.0271,88.0814 72.8949,93.722 77.2339,96.3254 86.3458,98.061 88.9492,96.7593 94.1559,90.6847" stroke="#0000bf" stroke-width="2" /><polyline fill="none" points="81.5729,78.1017 74.6305,78.5356 63.7831,84.1763 55.9729,90.6847 53.8034,95.4576 54.2373,106.3051 60.7458,116.2847 70.7254,111.9458 71.5932,107.6068" stroke="#0000fe" stroke-width="2" /><polyline fill="none" points="76.3661,86.3458 72.461,85.478 68.122,87.6475 62.4814,92.8542 59.4441,98.9288 59.0102,104.5695 61.1797,110.2102 66.8203,113.6814" stroke="#0028ff" stroke-width="2" /><polyline fill="none" points="109.7763,71.5932 108.9085,69.8576 107.6068,69.8576 105.8712,76.3661 104.5695,83.7424 106.3051,86.7797 108.4746,88.5153 114.5492,87.2136 119.322,80.7051 117.1525,75.4983 112.8136,71.5932 111.078,72.0271 109.3424,75.0644" stroke="#0060ff" stroke-width="2" /><polyline fill="none" points="107.1729,82.8746 102.8339,84.6102 101.0983,89.3831 103.7017,87.6475" stroke="#009cff" stroke-width="2" /><polyline fill="none" points="111.5119,73.3288 109.7763,73.7627 106.3051,77.2339 104.1356,84.6102 105.0034,87.6475 107.1729,88.9492 112.3797,87.6475 115.4169,84.1763 115.8508,79.8373 114.1153,74.6305 110.6441,71.1593 107.6068,71.1593 105.0034,73.7627 102.8339,80.7051" stroke="#00d4ff" stroke-width="2" /><polyline fill="none" points="112.8136,80.7051 111.5119,82.0068" stroke="#1fffd7" stroke-width="2" /><polyline fill="none" points="92.8542,97.1932 97.6271,98.4949 103.2678,104.1356" stroke="#4cffaa" stroke-width="2" /><polyline fill="none" points="86.7797,100.2305 85.478,103.2678 78.9695,106.739 79.4034,107.6068" stroke="#7cff79" stroke-width="2" /><polyline fill="none" points="97.1932,103.2678 97.1932,105.0034 101.5322,105.4373" stroke="#aaff4c" stroke-width="2" /><polyline fill="none" points="97.6271,89.3831 98.9288,92.8542 107.6068,100.6644" stroke="#d7ff1f" stroke-width="2" /><polyline fill="none" points="97.1932,95.4576 96.3254,96.7593 102.4,100.2305" stroke="#ffe500" stroke-width="2" /><polyline fill="none" points="78.5356,93.2881 70.7254,101.0983" stroke="#ffb100" stroke-width="2" /><polyline fill="none" points="90.6847,93.722 86.3458,98.4949 84.6102,104.1356" stroke="#ff7a00" stroke-width="2" /><polyline fill="none" points="74.1966,90.6847 74.1966,92.8542 79.8373,100.2305 85.9119,104.1356" stroke="#ff4600" stroke-width="2" /><polyline fill="none" points="76.8,95.0237 76.8,101.9661" stroke="#fe1200" stroke-width="2" /><polyline fill="none" points="42.522,26.4678 31.2407,32.5424 20.8271,40.7864 14.7525,47.7288 8.678,57.7085 9.9797,63.3492 13.0169,67.2542 26.0339,75.4983 35.1458,77.2339 50.3322,74.6305 62.4814,67.2542 75.9322,54.2373 79.8373,47.7288 81.5729,42.522 82.4407,32.9763 78.5356,22.1288 73.7627,18.2237 65.9525,18.2237 58.1424,20.8271 42.9559,30.3729 36.8814,35.5797" stroke="#bf0000" stroke-width="2" /><polyline fill="none" points="91.1186,8.678 87.2136,11.7153 83.7424,18.6576 91.5525,34.278" stroke="#7f0000" stroke-width="2" /></svg>