<?xml version="1.0" encoding="utf-8" ?>
<svg baseProfile="tiny" height="128" version="1.2" viewBox="0,0,128,128" width="128" xmlns="http://www.w3.org/2000/svg" xmlns:ev="http://www.w3.org/2001/xml-events" xmlns:xlink="http://www.w3.org/1999/xlink"><defs /><polyline fill="none" points="46.4271,34.7119 39.0508,29.939 31.2407,29.0712 22.9966,30.3729 16.0542,35.1458 12.1492,41.6542 13.0169,49.4644 16.0542,55.539 22.1288,60.3119 30.3729,61.6136 44.6915,59.4441 54.2373,54.6712 59.4441,49.4644 60.3119,47.7288 58.5763,42.522 52.9356,36.8814 45.9932,32.9763 33.4102,30.3729" stroke="#00007f" stroke-width="2" /><polyline fill="none" points="29.5051,61.1797 30.3729,73.7627 23.4305,78.1017 11.2814,80.7051 9.1119,83.3085 8.678,102.4 9.9797,113.6814" stroke="#0000fe" stroke-width="2" /><polyline fill="none" points="49.0305,56.8407 44.2576,69.8576 65.0847,68.122 66.3864,70.7254 63.7831,85.9119 59.0102,96.3254 60.3119,118.8881" stroke="#0060ff" stroke-width="2" /><polyline fill="none" points="30.8068,40.7864 29.939,41.6542" stroke="#00d4ff" stroke-width="2" /><polyline fill="none" points="43.8237,43.3898 43.3898,43.3898" stroke="#4cffaa" stroke-width="2" /><polyline fill="none" points="27.7695,50.7661 36.4475,55.1051 48.1627,51.2" stroke="#aaff4c" stroke-width="2" /><polyline fill="none" points="85.478,20.3932 80.2712,17.7898 70.7254,19.5254 63.7831,28.2034 63.3492,33.8441 65.5186,38.1831 72.461,41.6542 78.5356,42.0881 88.9492,39.4847" stroke="#ffe500" stroke-width="2" /><polyline fill="none" points="105.0034,35.1458 99.7966,29.0712 93.722,25.6 90.6847,27.7695 88.5153,32.1085 88.9492,39.4847 94.1559,41.2203 98.9288,39.9186 103.2678,36.4475 106.3051,30.3729 105.4373,32.5424 106.739,36.8814" stroke="#ff7a00" stroke-width="2" /><polyline fill="none" points="114.5492,8.678 115.4169,11.2814 116.7186,37.3153" stroke="#fe1200" stroke-width="2" /><polyline fill="none" points="105.0034,23.8644 119.322,21.6949" stroke="#7f0000" stroke-width="2" /></svg>