<?xml version="1.0" encoding="utf-8" ?>
<svg baseProfile="tiny" height="128" version="1.2" viewBox="0,0,128,128" width="128" xmlns="http://www.w3.org/2000/svg" xmlns:ev="http://www.w3.org/2001/xml-events" xmlns:xlink="http://www.w3.org/1999/xlink"><defs /><polyline fill="none" points="101.5322,34.278 96.7593,31.2407 89.3831,30.3729 85.9119,32.1085 82.0068,40.3525 81.139,48.5966 82.8746,56.8407 91.5525,69.4237 102.4,76.3661 109.3424,77.2339 113.2475,73.3288 118.0203,62.9153 119.322,55.1051 118.8881,48.1627 111.5119,36.0136 101.0983,28.6373 95.4576,28.2034" stroke="#00007f" stroke-width="2" /><polyline fill="none" points="108.9085,34.278 114.5492,22.1288 116.2847,22.9966 117.1525,42.9559" stroke="#0000de" stroke-width="2" /><polyline fill="none" points="88.5153,29.939 86.3458,26.9017 77.2339,21.261 77.2339,26.0339 83.3085,43.3898" stroke="#0028ff" stroke-width="2" /><polyline fill="none" points="87.6475,62.0475 68.5559,56.8407 55.9729,55.1051 33.4102,55.1051 25.6,59.4441 22.1288,66.8203 22.1288,75.4983 26.0339,81.139 32.9763,85.9119 43.3898,89.3831 64.2169,90.6847 83.3085,84.1763 99.3627,72.8949" stroke="#0080ff" stroke-width="2" /><polyline fill="none" points="29.5051,85.0441 27.3356,102.4 38.6169,107.1729" stroke="#00d4ff" stroke-width="2" /><polyline fill="none" points="43.8237,88.5153 42.0881,97.1932 42.522,105.0034 51.6339,105.8712" stroke="#36ffc0" stroke-width="2" /><polyline fill="none" points="60.7458,88.5153 58.5763,102.4 66.8203,104.5695 73.3288,104.5695" stroke="#7cff79" stroke-width="2" /><polyline fill="none" points="78.1017,86.7797 77.6678,100.2305 79.4034,101.5322 97.1932,103.7017" stroke="#c0ff36" stroke-width="2" /><polyline fill="none" points="23.8644,66.8203 10.4136,45.5593 8.678,35.1458 15.6203,18.6576 24.7322,8.678 22.9966,29.5051 22.9966,52.5017 26.4678,65.5186" stroke="#ffe500" stroke-width="2" /><polyline fill="none" points="95.8915,42.9559 95.4576,45.5593 96.3254,42.9559" stroke="#ff9400" stroke-width="2" /><polyline fill="none" points="102.4,42.0881 103.2678,45.1254 103.2678,42.0881 101.0983,51.6339" stroke="#ff4600" stroke-width="2" /><polyline fill="none" points="100.2305,56.4068 98.4949,62.4814 104.1356,63.7831 105.0034,62.0475 105.0034,59.0102 100.6644,55.1051" stroke="#de0000" stroke-width="2" /><polyline fill="none" points="103.7017,65.0847 110.2102,72.0271" stroke="#7f0000" stroke-width="2" /></svg>