<?xml version="1.0" encoding="utf-8" ?>
<svg baseProfile="tiny" height="128" version="1.2" viewBox="0,0,128,128" width="128" xmlns="http://www.w3.org/2000/svg" xmlns:ev="http://www.w3.org/2001/xml-events" xmlns:xlink="http://www.w3.org/1999/xlink"><defs /><polyline fill="none" points="28.2034,10.8475 26.9017,35.5797 27.3356,15.1864 29.5051,10.8475 31.6746,11.2814 33.4102,14.3186 38.6169,33.4102 46.861,22.9966 51.2,22.1288 61.1797,23.4305 65.9525,26.4678 69.8576,31.2407 76.3661,10.8475 78.5356,8.678 79.4034,11.2814 83.7424,36.4475 88.5153,47.7288 88.5153,65.0847 77.6678,78.9695 68.122,83.7424 55.9729,84.6102 52.5017,83.3085 39.0508,75.0644 31.2407,66.8203 26.4678,56.8407 24.7322,49.4644 24.7322,41.6542 26.9017,33.8441 33.8441,27.3356" stroke="#00007f" stroke-width="2" /><polyline fill="none" points="53.8034,63.7831 52.9356,59.878 55.539,58.5763 62.4814,57.7085 63.7831,62.0475 62.9153,64.2169 60.7458,65.5186 57.2746,65.9525 54.6712,64.2169 55.1051,60.7458 87.6475,52.5017 105.0034,42.9559" stroke="#0028ff" stroke-width="2" /><polyline fill="none" points="62.4814,61.1797 78.5356,63.7831 113.2475,64.2169" stroke="#00d4ff" stroke-width="2" /><polyline fill="none" points="68.122,66.3864 69.8576,69.4237 76.8,75.0644 83.3085,77.6678 110.6441,85.0441 119.322,85.9119" stroke="#7cff79" stroke-width="2" /><polyline fill="none" points="57.7085,62.9153 53.8034,60.3119 49.4644,60.3119 16.4881,65.9525 9.5458,65.9525 8.678,63.3492" stroke="#ffe500" stroke-width="2" /><polyline fill="none" points="53.8034,68.122 41.6542,73.3288 11.2814,93.722 33.4102,79.8373" stroke="#ff4600" stroke-width="2" /><polyline fill="none" points="61.1797,64.2169 43.8237,84.6102 30.3729,103.7017" stroke="#7f0000" stroke-width="2" /></svg>