<?xml version="1.0" encoding="utf-8" ?>
<svg baseProfile="tiny" height="128" version="1.2" viewBox="0,0,128,128" width="128" xmlns="http://www.w3.org/2000/svg" xmlns:ev="http://www.w3.org/2001/xml-events" xmlns:xlink="http://www.w3.org/1999/xlink"><defs /><polyline fill="none" points="32.5424,52.5017 22.1288,34.7119 19.5254,27.7695 34.7119,42.522 41.2203,20.8271 57.2746,18.6576 61.1797,19.9593 71.5932,26.4678 82.4407,8.678 84.6102,9.1119 90.2508,24.2983" stroke="#00007f" stroke-width="2" /><polyline fill="none" points="55.539,42.9559 52.9356,45.9932 51.6339,52.5017 59.878,51.2 59.4441,52.5017 52.5017,55.9729 49.8983,49.4644" stroke="#0000ff" stroke-width="2" /><polyline fill="none" points="62.9153,25.1661 59.0102,29.5051" stroke="#0080ff" stroke-width="2" /><polyline fill="none" points="49.8983,37.3153 46.861,40.7864" stroke="#15ffe1" stroke-width="2" /><polyline fill="none" points="52.5017,42.9559 95.0237,50.3322 109.3424,45.5593 119.322,45.1254" stroke="#7cff79" stroke-width="2" /><polyline fill="none" points="76.3661,59.878 118.0203,60.7458" stroke="#e4ff12" stroke-width="2" /><polyline fill="none" points="31.2407,74.1966 26.9017,79.4034 8.678,94.5898" stroke="#ff9400" stroke-width="2" /><polyline fill="none" points="43.3898,62.4814 26.4678,73.3288 13.4508,77.6678" stroke="#ff1d00" stroke-width="2" /><polyline fill="none" points="42.0881,73.3288 69.8576,76.3661 84.1763,75.4983 91.9864,65.9525 92.4203,62.0475 90.6847,61.1797 82.8746,65.0847 60.3119,82.8746 43.3898,85.478 39.0508,85.0441 33.4102,81.5729" stroke="#7f0000" stroke-width="2" /></svg>