<?xml version="1.0" encoding="utf-8" ?>
<svg baseProfile="tiny" height="128" version="1.2" viewBox="0,0,128,128" width="128" xmlns="http://www.w3.org/2000/svg" xmlns:ev="http://www.w3.org/2001/xml-events" xmlns:xlink="http://www.w3.org/1999/xlink"><defs /><polyline fill="none" points="35.3857,19.2218 39.7543,13.9795 51.9863,12.2321 55.4812,13.1058 60.7235,18.3481 69.8976,8.7372 70.7713,14.8532 62.471,27.959" stroke="#00007f" stroke-width="2" /><polyline fill="none" points="34.0751,17.4744 25.3379,12.6689 25.3379,14.8532 31.8908,34.5119 38.4437,38.4437 46.3072,38.4437 49.802,35.8225 53.2969,38.4437 58.9761,38.4437 63.7816,36.6962 65.529,34.0751 65.529,28.3959 62.0341,22.7167" stroke="#0000d5" stroke-width="2" /><polyline fill="none" points="47.1809,29.7065 45.4334,30.1433 46.3072,31.0171 48.0546,29.7065 44.9966,29.2696 48.0546,31.0171 52.4232,31.0171 52.4232,29.7065 47.6177,29.2696" stroke="#001cff" stroke-width="2" /><polyline fill="none" points="53.2969,21.843 50.6758,21.4061 52.4232,21.843 51.5495,20.0956 50.6758,20.9693" stroke="#006cff" stroke-width="2" /><polyline fill="none" points="45.4334,22.7167 35.3857,20.9693 37.1331,20.9693 37.57,24.901 38.8805,23.5904 39.7543,24.0273" stroke="#00b8ff" stroke-width="2" /><polyline fill="none" points="39.3174,38.8805 37.57,54.1706 39.7543,58.5392 41.9386,59.413 63.7816,59.413 66.8396,58.1024 67.7133,48.9283 62.9078,39.3174" stroke="#1cffda" stroke-width="2" /><polyline fill="none" points="67.2765,58.9761 83.8771,51.5495 85.6246,46.744 85.6246,41.9386 81.256,31.0171 80.3823,18.3481 83.8771,13.9795 90.43,12.6689 90.8669,15.727 87.372,23.5904 87.372,28.8328 92.1775,41.0648 92.1775,47.6177 90.8669,51.5495 87.372,55.9181 80.3823,60.2867 74.7031,60.2867 64.6553,56.7918" stroke="#5cff9a" stroke-width="2" /><polyline fill="none" points="58.9761,57.2287 55.0444,56.7918 54.6075,58.5392 63.3447,59.8498 65.529,57.2287 59.413,55.0444 57.2287,40.1911" stroke="#9aff5c" stroke-width="2" /><polyline fill="none" points="47.1809,43.2491 47.1809,52.8601 41.9386,53.2969 41.5017,56.3549 45.4334,58.5392 51.5495,57.6655 50.6758,54.1706 42.8123,52.4232" stroke="#daff1c" stroke-width="2" /><polyline fill="none" points="41.9386,32.7645 31.4539,29.7065 16.1638,31.8908" stroke="#ffcb00" stroke-width="2" /><polyline fill="none" points="34.9488,32.3276 26.6485,32.3276 15.2901,36.6962 8.7372,41.9386 9.6109,42.8123 13.1058,43.2491" stroke="#ff8500" stroke-width="2" /><polyline fill="none" points="41.0648,33.6382 33.6382,34.0751 24.0273,36.6962 18.3481,39.7543 17.4744,41.5017 18.785,42.3754" stroke="#ff3b00" stroke-width="2" /><polyline fill="none" points="58.1024,32.3276 60.2867,29.2696 67.2765,27.0853 93.4881,24.901 93.4881,26.2116" stroke="#d50000" stroke-width="2" /><polyline fill="none" points="59.8498,32.7645 64.2184,31.0171 69.4608,31.0171 119.2628,38.8805" stroke="#7f0000" stroke-width="2" /></svg>