<?xml version="1.0" encoding="utf-8" ?>
<svg baseProfile="tiny" height="128" version="1.2" viewBox="0,0,128,128" width="128" xmlns="http://www.w3.org/2000/svg" xmlns:ev="http://www.w3.org/2001/xml-events" xmlns:xlink="http://www.w3.org/1999/xlink"><defs /><polyline fill="none" points="109.7763,23.8644 107.6068,21.6949 96.3254,20.8271 92.8542,22.1288 85.0441,29.0712 84.6102,35.5797 86.3458,39.0508 91.1186,43.8237 97.6271,47.2949 105.4373,48.1627 109.7763,46.861 115.8508,40.7864 116.7186,33.8441 115.4169,29.939 110.6441,24.2983 106.3051,22.5627" stroke="#00007f" stroke-width="2" /><polyline fill="none" points="85.9119,32.1085 79.8373,41.6542 70.7254,45.5593 62.4814,45.5593 30.8068,41.6542 17.3559,41.2203" stroke="#0000d5" stroke-width="2" /><polyline fill="none" points="92.8542,43.3898 91.5525,54.2373 89.3831,61.1797 86.7797,64.6508 79.4034,68.9898 59.0102,71.5932 42.0881,70.2915 29.5051,72.461 16.0542,67.2542 9.1119,45.5593 8.678,38.6169 10.8475,34.278 20.8271,37.3153 22.9966,39.0508" stroke="#001cff" stroke-width="2" /><polyline fill="none" points="32.9763,72.0271 36.0136,80.7051 41.6542,88.9492 43.8237,90.6847 48.1627,90.6847 49.4644,89.8169 49.4644,84.6102 45.1254,78.9695 34.278,72.8949" stroke="#006cff" stroke-width="2" /><polyline fill="none" points="22.5627,70.7254 19.0915,78.1017 18.6576,93.2881 24.2983,75.4983 23.4305,70.2915" stroke="#00b8ff" stroke-width="2" /><polyline fill="none" points="25.1661,69.8576 28.2034,76.8 29.5051,92.4203 30.8068,91.9864 31.6746,81.139 28.2034,66.8203 26.9017,65.5186" stroke="#1cffda" stroke-width="2" /><polyline fill="none" points="76.3661,72.8949 73.7627,89.8169 76.8,82.8746 76.8,72.8949" stroke="#5cff9a" stroke-width="2" /><polyline fill="none" points="84.1763,68.5559 81.139,69.8576 81.139,74.1966 83.7424,79.8373 87.2136,82.4407 90.6847,83.7424 92.4203,79.4034 91.9864,72.8949 88.9492,67.6881 85.0441,65.0847 83.7424,65.9525" stroke="#9aff5c" stroke-width="2" /><polyline fill="none" points="91.1186,21.261 92.4203,8.678 99.7966,18.6576" stroke="#daff1c" stroke-width="2" /><polyline fill="none" points="105.0034,19.9593 113.2475,14.7525 117.5864,14.3186 119.322,24.2983 115.8508,29.0712" stroke="#ffcb00" stroke-width="2" /><polyline fill="none" points="96.3254,27.3356 96.3254,29.5051" stroke="#ff8500" stroke-width="2" /><polyline fill="none" points="101.9661,27.7695 99.3627,32.1085" stroke="#ff3b00" stroke-width="2" /><polyline fill="none" points="97.1932,33.4102 97.1932,37.7492" stroke="#d50000" stroke-width="2" /><polyline fill="none" points="93.722,35.5797 95.4576,39.4847 98.4949,40.7864 103.7017,33.8441" stroke="#7f0000" stroke-width="2" /></svg>