<?xml version="1.0" encoding="utf-8" ?>
<svg baseProfile="tiny" height="128" version="1.2" viewBox="0,0,128,128" width="128" xmlns="http://www.w3.org/2000/svg" xmlns:ev="http://www.w3.org/2001/xml-events" xmlns:xlink="http://www.w3.org/1999/xlink"><defs /><polyline fill="none" points="52.2449,43.102 44.4082,40.0544 37.0068,41.3605 25.6871,47.0204 17.415,54.4218 11.3197,66.1769 8.7075,76.6259 8.7075,86.6395 12.1905,98.8299 16.5442,107.5374 20.4626,111.8912 37.0068,118.8571 57.034,119.2925 66.6122,116.6803 77.4966,111.0204 84.4626,102.3129 87.9456,88.381 86.6395,74.449 80.5442,57.4694 75.3197,47.8912 71.4014,45.2789 49.1973,45.7143" stroke="#00007f" stroke-width="2" /><polyline fill="none" points="47.0204,91.4286 43.5374,90.1224 37.4422,93.1701 34.8299,96.6531 35.2653,100.1361 48.7619,102.7483 58.3401,100.5714 60.9524,97.5238 58.7755,94.0408 53.551,91.8639 47.0204,91.4286" stroke="#0010ff" stroke-width="2" /><polyline fill="none" points="41.3605,99.2653 41.7959,98.3946" stroke="#00a4ff" stroke-width="2" /><polyline fill="none" points="50.5034,97.5238 50.068,97.5238" stroke="#3fffb7" stroke-width="2" /><polyline fill="none" points="36.5714,60.517 37.0068,64.4354 37.4422,62.2585" stroke="#b7ff3f" stroke-width="2" /><polyline fill="none" points="60.0816,66.1769 59.6463,63.1293 59.6463,65.7415" stroke="#ffb900" stroke-width="2" /><polyline fill="none" points="20.0272,49.1973 16.1088,43.102 14.8027,36.5714 14.3673,10.0136 17.8503,11.7551 30.4762,41.3605 33.9592,38.7483" stroke="#ff3000" stroke-width="2" /><polyline fill="none" points="60.9524,43.102 69.2245,23.5102 77.932,8.7075 80.1088,13.0612 79.6735,20.0272 69.6599,48.7619" stroke="#7f0000" stroke-width="2" /></svg>