<?xml version="1.0" encoding="utf-8" ?>
<svg baseProfile="tiny" height="128" version="1.2" viewBox="0,0,128,128" width="128" xmlns="http://www.w3.org/2000/svg" xmlns:ev="http://www.w3.org/2001/xml-events" xmlns:xlink="http://www.w3.org/1999/xlink"><defs /><polyline fill="none" points="78.9695,31.6746 80.2712,9.5458 83.3085,8.678 86.3458,9.9797 93.2881,15.6203 107.1729,30.8068 111.078,31.6746" stroke="#00007f" stroke-width="2" /><polyline fill="none" points="77.2339,33.4102 73.7627,31.6746 59.0102,31.6746 55.9729,32.9763 52.0678,37.3153 48.5966,46.4271" stroke="#0000e8" stroke-width="2" /><polyline fill="none" points="43.8237,42.522 29.939,36.4475 19.5254,26.9017 23.4305,62.0475" stroke="#0038ff" stroke-width="2" /><polyline fill="none" points="24.2983,58.1424 15.1864,63.3492 10.4136,68.9898 8.678,77.2339 8.678,88.5153 14.7525,95.8915 21.261,99.7966 29.939,102.4 51.2,105.8712 68.5559,105.8712 77.6678,103.7017" stroke="#0094ff" stroke-width="2" /><polyline fill="none" points="106.739,28.2034 116.2847,40.7864 119.322,51.6339 118.4542,66.8203 112.8136,76.8 105.4373,85.478 96.7593,90.6847 67.2542,97.6271 59.0102,98.061" stroke="#0cf4ea" stroke-width="2" /><polyline fill="none" points="78.9695,51.2 79.8373,48.5966 91.5525,46.861 92.4203,50.3322 89.8169,52.5017 81.5729,55.1051 78.9695,55.1051 75.4983,52.5017 75.0644,49.8983" stroke="#56ffa0" stroke-width="2" /><polyline fill="none" points="44.6915,62.0475 47.7288,60.7458 48.5966,64.2169 46.4271,67.2542 43.3898,68.122 40.7864,68.122 39.0508,64.6508 39.4847,62.0475" stroke="#a0ff56" stroke-width="2" /><polyline fill="none" points="72.461,69.8576 87.6475,62.4814" stroke="#eaff0c" stroke-width="2" /><polyline fill="none" points="70.7254,70.7254 67.2542,72.461 44.6915,75.4983" stroke="#ffaa00" stroke-width="2" /><polyline fill="none" points="74.1966,72.8949 90.6847,76.8" stroke="#ff5500" stroke-width="2" /><polyline fill="none" points="67.6881,73.3288 62.0475,81.139 55.1051,87.6475" stroke="#e80000" stroke-width="2" /><polyline fill="none" points="73.3288,88.5153 86.3458,84.6102" stroke="#7f0000" stroke-width="2" /></svg>