<?xml version="1.0" encoding="utf-8" ?>
<svg baseProfile="tiny" height="128" version="1.2" viewBox="0,0,128,128" width="128" xmlns="http://www.w3.org/2000/svg" xmlns:ev="http://www.w3.org/2001/xml-events" xmlns:xlink="http://www.w3.org/1999/xlink"><defs /><polyline fill="none" points="24.7322,45.5593 19.0915,8.678 29.5051,27.7695 34.278,40.3525 52.0678,32.9763 64.6508,34.278 81.139,38.6169 85.0441,19.5254 87.6475,11.2814 88.5153,10.4136 88.9492,10.8475 90.6847,26.4678 93.722,39.9186 95.8915,63.3492 86.3458,81.5729 78.5356,87.2136 58.5763,89.8169 42.9559,85.478 27.3356,72.0271 23.8644,66.3864 20.8271,58.5763 20.8271,47.7288 22.9966,42.0881" stroke="#00007f" stroke-width="2" /><polyline fill="none" points="43.3898,59.878 32.9763,57.7085 13.4508,57.7085 8.678,59.4441" stroke="#0028ff" stroke-width="2" /><polyline fill="none" points="35.5797,66.3864 16.4881,74.1966 9.9797,78.5356" stroke="#00d4ff" stroke-width="2" /><polyline fill="none" points="46.861,77.6678 21.6949,85.9119" stroke="#7cff79" stroke-width="2" /><polyline fill="none" points="88.5153,56.4068 118.0203,51.6339" stroke="#ffe500" stroke-width="2" /><polyline fill="none" points="90.2508,67.6881 111.078,68.5559 119.322,70.7254 116.7186,72.0271" stroke="#ff4600" stroke-width="2" /><polyline fill="none" points="81.5729,78.1017 117.1525,80.7051" stroke="#7f0000" stroke-width="2" /></svg>