<?xml version="1.0" encoding="utf-8" ?>
<svg baseProfile="tiny" height="128" version="1.2" viewBox="0,0,128,128" width="128" xmlns="http://www.w3.org/2000/svg" xmlns:ev="http://www.w3.org/2001/xml-events" xmlns:xlink="http://www.w3.org/1999/xlink"><defs /><polyline fill="none" points="43.9728,56.1633 51.3741,50.068 64.8707,47.4558 73.5782,47.8912 77.932,51.3741" stroke="#00007f" stroke-width="2" /><polyline fill="none" points="77.932,51.3741 78.3673,48.3265 87.5102,30.4762 101.4422,8.7075 101.8776,13.0612 100.1361,17.8503 99.2653,53.1156" stroke="#004cff" stroke-width="2" /><polyline fill="none" points="99.7007,54.4218 112.3265,78.8027 118.8571,102.3129 119.2925,110.1497 113.6327,110.1497" stroke="#29ffcd" stroke-width="2" /><polyline fill="none" points="113.6327,110.1497 80.5442,117.1156 52.2449,117.551 45.2789,114.9388 38.3129,107.102 33.5238,94.0408 33.5238,76.6259 36.1361,69.6599" stroke="#cdff29" stroke-width="2" /><polyline fill="none" points="36.1361,70.0952 30.4762,60.517 16.5442,43.5374 11.3197,34.3946 8.7075,26.5578 11.3197,26.9932 16.5442,31.7823 25.2517,34.3946 31.3469,38.3129 46.1497,55.2925" stroke="#ff6700" stroke-width="2" /><polyline fill="none" points="61.3878,79.6735 68.7891,79.2381 72.7075,80.9796 71.8367,93.1701 68.3537,93.1701 64.8707,89.6871" stroke="#7f0000" stroke-width="2" /></svg>