<?xml version="1.0" encoding="utf-8" ?>
<svg baseProfile="tiny" height="128" version="1.2" viewBox="0,0,128,128" width="128" xmlns="http://www.w3.org/2000/svg" xmlns:ev="http://www.w3.org/2001/xml-events" xmlns:xlink="http://www.w3.org/1999/xlink"><defs /><polyline fill="none" points="43.8237,39.4847 32.5424,46.861 28.2034,52.5017 23.8644,64.6508 22.1288,83.3085 24.7322,91.1186 32.9763,100.2305 50.7661,111.078 71.5932,118.8881 86.3458,119.322 102.4,111.9458 105.8712,108.0407 108.4746,101.9661 111.9458,86.3458 112.3797,74.1966 107.6068,57.2746 101.9661,49.8983 95.0237,45.1254 77.6678,38.6169 49.0305,37.3153 42.9559,37.7492 36.8814,40.3525" stroke="#00007f" stroke-width="2" /><polyline fill="none" points="22.9966,50.7661 20.3932,48.5966 15.1864,39.9186 9.5458,26.4678 8.678,12.5831 9.5458,10.4136 12.5831,10.4136 22.5627,25.1661 36.4475,37.3153" stroke="#0010ff" stroke-width="2" /><polyline fill="none" points="67.2542,36.0136 86.7797,14.7525 97.1932,8.678 98.9288,9.1119 102.4,18.2237 104.1356,40.3525" stroke="#00a4ff" stroke-width="2" /><polyline fill="none" points="41.6542,59.4441 42.522,64.2169 46.861,69.8576 48.5966,69.4237 48.5966,64.2169 47.7288,61.6136 45.9932,61.1797 45.5593,62.4814 46.4271,63.3492" stroke="#3fffb7" stroke-width="2" /><polyline fill="none" points="78.5356,63.7831 76.3661,69.8576 77.6678,69.4237 78.9695,65.9525" stroke="#b7ff3f" stroke-width="2" /><polyline fill="none" points="76.8,62.0475 69.8576,65.5186 70.2915,70.2915 75.4983,72.0271 78.1017,68.122 78.5356,64.2169" stroke="#ffb900" stroke-width="2" /><polyline fill="none" points="43.8237,82.4407 54.2373,92.4203 74.1966,98.9288 95.4576,99.3627 99.7966,96.7593 102.4,90.6847" stroke="#ff3000" stroke-width="2" /><polyline fill="none" points="60.7458,76.8 78.1017,76.3661 78.1017,78.1017 70.7254,85.478" stroke="#7f0000" stroke-width="2" /></svg>