<?xml version="1.0" encoding="utf-8" ?>
<svg baseProfile="tiny" height="128" version="1.2" viewBox="0,0,128,128" width="128" xmlns="http://www.w3.org/2000/svg" xmlns:ev="http://www.w3.org/2001/xml-events" xmlns:xlink="http://www.w3.org/1999/xlink"><defs /><polyline fill="none" points="63.5646,31.7823 37.4422,41.3605 30.0408,50.5034 24.381,65.7415 22.6395,80.5442 24.8163,89.2517 30.0408,97.9592 34.3946,103.1837 42.6667,108.4082 49.6327,110.585 60.9524,111.0204 80.9796,101.0068 96.6531,90.1224 97.0884,86.2041 95.7823,72.7075 89.6871,56.5986 80.9796,44.8435 67.9184,32.6531 61.3878,29.1701" stroke="#00007f" stroke-width="2" /><polyline fill="none" points="30.4762,45.2789 37.8776,23.5102 47.4558,8.7075 54.8571,27.4286 56.1633,36.5714" stroke="#0000d1" stroke-width="2" /><polyline fill="none" points="72.2721,37.0068 76.1905,32.2177 87.0748,23.9456 97.9592,20.0272 96.6531,29.1701 85.3333,47.8912 83.5918,49.1973" stroke="#0010ff" stroke-width="2" /><polyline fill="none" points="78.3673,43.102 81.8503,39.1837 87.5102,26.5578 94.0408,23.5102" stroke="#0058ff" stroke-width="2" /><polyline fill="none" points="45.7143,37.4422 44.4082,29.1701 45.7143,15.2381" stroke="#00a4ff" stroke-width="2" /><polyline fill="none" points="44.8435,45.2789 39.619,59.2109 46.585,63.1293 50.068,62.2585 52.2449,59.2109 50.5034,50.068 48.7619,47.0204 44.4082,44.4082" stroke="#05ecf1" stroke-width="2" /><polyline fill="none" points="70.0952,45.7143 66.6122,46.585 64.4354,51.3741 67.0476,54.8571 70.5306,55.2925 72.2721,53.9864 72.2721,50.068 69.6599,47.4558" stroke="#3fffb7" stroke-width="2" /><polyline fill="none" points="69.6599,50.9388 69.6599,50.9388" stroke="#7cff79" stroke-width="2" /><polyline fill="none" points="40.9252,57.034 42.2313,57.034" stroke="#b7ff3f" stroke-width="2" /><polyline fill="none" points="44.4082,82.2857 12.1905,82.2857" stroke="#f1fc05" stroke-width="2" /><polyline fill="none" points="45.7143,94.4762 8.7075,102.3129" stroke="#ffb900" stroke-width="2" /><polyline fill="none" points="45.2789,99.7007 43.9728,103.619 33.0884,119.2925 32.6531,117.9864" stroke="#ff7300" stroke-width="2" /><polyline fill="none" points="72.2721,75.3197 104.4898,71.4014" stroke="#ff3000" stroke-width="2" /><polyline fill="none" points="74.449,87.0748 98.3946,86.2041 107.5374,89.6871" stroke="#d10000" stroke-width="2" /><polyline fill="none" points="78.3673,94.9116 87.0748,100.1361 98.8299,109.7143" stroke="#7f0000" stroke-width="2" /></svg>