<?xml version="1.0" encoding="utf-8" ?>
<svg baseProfile="tiny" height="128" version="1.2" viewBox="0,0,128,128" width="128" xmlns="http://www.w3.org/2000/svg" xmlns:ev="http://www.w3.org/2001/xml-events" xmlns:xlink="http://www.w3.org/1999/xlink"><defs /><polyline fill="none" points="72.0271,31.6746 66.3864,27.3356 59.4441,25.6 41.6542,26.4678 35.1458,29.5051 23.8644,38.1831 18.6576,44.6915 14.7525,51.6339 9.5458,67.2542 8.678,79.8373 9.5458,86.3458 13.4508,93.722 20.3932,103.2678 31.2407,111.5119 37.7492,114.5492 57.7085,119.322 76.3661,118.4542 87.6475,112.3797 95.8915,101.5322 103.7017,84.1763 104.1356,66.8203 102.4,56.4068 96.7593,47.7288 92.4203,43.8237 73.7627,31.6746" stroke="#00007f" stroke-width="2" /><polyline fill="none" points="90.2508,38.1831 91.1186,34.278 99.7966,21.261 105.8712,18.2237 105.4373,30.8068 100.6644,52.9356" stroke="#0000d1" stroke-width="2" /><polyline fill="none" points="32.1085,32.1085 19.9593,8.678 17.3559,10.8475 11.2814,26.9017 9.9797,40.3525" stroke="#0010ff" stroke-width="2" /><polyline fill="none" points="45.1254,42.0881 40.3525,42.9559 36.8814,47.2949 35.1458,52.5017 35.1458,58.5763 42.522,63.7831 49.8983,63.7831 52.9356,62.4814 56.4068,58.1424 56.8407,50.7661 54.6712,45.1254 48.1627,40.7864" stroke="#0058ff" stroke-width="2" /><polyline fill="none" points="89.8169,42.9559 85.9119,42.522 80.2712,44.2576 77.2339,51.2 77.2339,59.4441 81.139,62.9153 86.3458,62.9153 88.0814,59.4441 88.0814,54.2373 83.3085,46.4271" stroke="#00a4ff" stroke-width="2" /><polyline fill="none" points="62.4814,71.1593 59.0102,71.1593 53.3695,74.6305 50.3322,77.6678 49.4644,83.7424 51.2,85.0441 60.7458,86.7797 73.3288,86.7797 78.5356,83.7424 79.8373,77.6678 77.2339,74.1966 70.7254,71.1593 61.1797,70.2915" stroke="#05ecf1" stroke-width="2" /><polyline fill="none" points="80.2712,73.7627 84.6102,73.7627 97.6271,68.5559" stroke="#3fffb7" stroke-width="2" /><polyline fill="none" points="82.8746,81.5729 94.5898,83.7424" stroke="#7cff79" stroke-width="2" /><polyline fill="none" points="76.3661,86.3458 85.0441,90.6847" stroke="#b7ff3f" stroke-width="2" /><polyline fill="none" points="42.9559,74.6305 33.8441,70.7254" stroke="#f1fc05" stroke-width="2" /><polyline fill="none" points="44.6915,78.9695 35.1458,79.8373" stroke="#ffb900" stroke-width="2" /><polyline fill="none" points="49.0305,81.5729 40.3525,86.7797" stroke="#ff7300" stroke-width="2" /><polyline fill="none" points="40.3525,96.3254 36.4475,97.1932 32.1085,104.5695" stroke="#ff3000" stroke-width="2" /><polyline fill="none" points="81.139,96.7593 85.9119,106.3051" stroke="#d10000" stroke-width="2" /><polyline fill="none" points="34.7119,99.3627 43.8237,105.0034 52.9356,107.6068 65.0847,108.0407 76.8,106.3051" stroke="#7f0000" stroke-width="2" /></svg>