<?xml version="1.0" encoding="utf-8" ?>
<svg baseProfile="tiny" height="128" version="1.2" viewBox="0,0,128,128" width="128" xmlns="http://www.w3.org/2000/svg" xmlns:ev="http://www.w3.org/2001/xml-events" xmlns:xlink="http://www.w3.org/1999/xlink"><defs /><polyline fill="none" points="41.6542,10.4136 32.1085,34.278 29.5051,47.7288 29.5051,62.0475 32.9763,73.7627 43.8237,83.3085 54.6712,87.2136 68.9898,88.0814 82.4407,82.8746 90.6847,74.6305 98.9288,60.7458 103.2678,51.2 104.1356,42.0881 93.2881,12.1492 91.9864,13.0169 78.9695,42.522 64.2169,40.3525 53.3695,41.6542 48.5966,17.3559 41.2203,8.678" stroke="#00007f" stroke-width="2" /><polyline fill="none" points="40.3525,48.5966 52.9356,48.5966 55.9729,49.8983 57.2746,53.8034 55.1051,56.4068 49.4644,59.0102 43.8237,59.0102 39.0508,55.1051" stroke="#0000e8" stroke-width="2" /><polyline fill="none" points="49.0305,49.0305 48.5966,59.878" stroke="#0038ff" stroke-width="2" /><polyline fill="none" points="74.1966,56.4068 73.3288,54.6712 76.8,51.6339 82.4407,50.7661 88.9492,51.2 90.2508,55.1051 88.9492,56.8407 84.1763,59.4441 78.1017,59.878" stroke="#0094ff" stroke-width="2" /><polyline fill="none" points="86.3458,47.2949 84.1763,50.7661 82.8746,58.1424" stroke="#0cf4ea" stroke-width="2" /><polyline fill="none" points="53.8034,71.1593 57.7085,75.4983 65.9525,71.1593 62.9153,73.3288 62.4814,78.9695 65.0847,81.5729 71.1593,82.4407" stroke="#56ffa0" stroke-width="2" /><polyline fill="none" points="58.1424,75.4983 56.8407,79.8373 52.5017,82.0068" stroke="#a0ff56" stroke-width="2" /><polyline fill="none" points="79.4034,70.7254 93.722,70.2915 119.322,78.9695" stroke="#eaff0c" stroke-width="2" /><polyline fill="none" points="71.5932,75.0644 83.7424,83.3085 94.1559,92.8542" stroke="#ffaa00" stroke-width="2" /><polyline fill="none" points="85.9119,76.3661 95.8915,80.2712 105.8712,86.3458" stroke="#ff5500" stroke-width="2" /><polyline fill="none" points="42.0881,74.1966 34.278,73.3288 28.6373,74.6305 18.2237,78.1017 8.678,83.7424" stroke="#e80000" stroke-width="2" /><polyline fill="none" points="39.0508,79.4034 29.939,83.7424 19.9593,93.722" stroke="#7f0000" stroke-width="2" /></svg>