<?xml version="1.0" encoding="utf-8" ?>
<svg baseProfile="tiny" height="128" version="1.2" viewBox="0,0,128,128" width="128" xmlns="http://www.w3.org/2000/svg" xmlns:ev="http://www.w3.org/2001/xml-events" xmlns:xlink="http://www.w3.org/1999/xlink"><defs /><polyline fill="none" points="27.3356,96.7593 21.261,91.1186 11.2814,75.4983 8.678,58.5763 12.1492,49.0305 17.7898,42.9559 24.7322,36.8814 37.3153,33.8441 49.0305,34.278 62.9153,38.1831 75.4983,44.2576 82.8746,49.8983 90.6847,60.3119 96.7593,72.0271 99.3627,81.5729 101.5322,99.7966 101.5322,113.2475 100.2305,116.7186 95.0237,118.8881 83.3085,119.322 44.2576,110.6441 40.7864,105.4373 39.4847,96.3254" stroke="#00007f" stroke-width="2" /><polyline fill="none" points="19.5254,39.0508 27.3356,8.678 36.8814,19.9593 40.3525,32.5424" stroke="#004cff" stroke-width="2" /><polyline fill="none" points="60.3119,37.7492 89.8169,16.922 92.4203,21.6949 92.8542,48.5966" stroke="#29ffcd" stroke-width="2" /><polyline fill="none" points="38.1831,73.7627 52.5017,72.0271 60.3119,72.461 59.0102,78.1017 48.5966,78.9695 47.2949,80.2712 47.7288,86.7797 43.3898,90.2508 40.7864,87.6475 39.0508,77.2339 33.4102,75.9322 36.4475,74.1966 42.0881,74.1966" stroke="#cdff29" stroke-width="2" /><polyline fill="none" points="27.7695,52.5017 28.6373,51.2 34.7119,50.3322 33.4102,55.539 29.939,57.7085 29.939,54.2373 32.9763,52.5017" stroke="#ff6700" stroke-width="2" /><polyline fill="none" points="47.2949,55.9729 50.3322,52.5017 55.539,51.6339 55.1051,54.6712 51.6339,56.4068 49.0305,56.4068 50.3322,54.6712" stroke="#7f0000" stroke-width="2" /></svg>