<?xml version="1.0" encoding="utf-8" ?>
<svg baseProfile="tiny" height="128" version="1.2" viewBox="0,0,128,128" width="128" xmlns="http://www.w3.org/2000/svg" xmlns:ev="http://www.w3.org/2001/xml-events" xmlns:xlink="http://www.w3.org/1999/xlink"><defs /><polyline fill="none" points="28.2034,40.7864 23.8644,41.2203 19.5254,46.4271 18.6576,82.4407 20.8271,94.1559 28.2034,108.4746 32.1085,112.8136 36.4475,116.2847 42.522,118.0203 52.0678,119.322 70.7254,118.0203 78.9695,114.5492 89.3831,105.0034 95.0237,91.9864 95.0237,71.1593 92.4203,64.2169 82.0068,54.6712 72.8949,49.4644 50.7661,48.5966 28.6373,43.8237 25.1661,32.5424 11.7153,11.2814 8.678,8.678 12.1492,42.0881 16.0542,53.8034 18.6576,55.9729" stroke="#00007f" stroke-width="2" /><polyline fill="none" points="61.1797,57.2746 61.1797,46.4271 63.7831,38.1831 72.461,21.6949 78.9695,13.8847 81.139,18.2237 82.4407,55.9729" stroke="#0080ff" stroke-width="2" /><polyline fill="none" points="38.6169,70.2915 38.6169,70.2915" stroke="#7cff79" stroke-width="2" /><polyline fill="none" points="38.6169,70.2915 38.6169,73.3288 41.6542,75.9322 46.861,76.3661 48.5966,74.1966" stroke="#ff9400" stroke-width="2" /><polyline fill="none" points="66.8203,71.5932 76.3661,72.461 80.7051,70.2915" stroke="#7f0000" stroke-width="2" /></svg>