<?xml version="1.0" encoding="utf-8" ?>
<svg baseProfile="tiny" height="128" version="1.2" viewBox="0,0,128,128" width="128" xmlns="http://www.w3.org/2000/svg" xmlns:ev="http://www.w3.org/2001/xml-events" xmlns:xlink="http://www.w3.org/1999/xlink"><defs /><polyline fill="none" points="36.0136,52.9356 27.3356,16.4881 30.3729,18.2237 38.6169,26.9017 50.3322,46.861 54.2373,48.5966 59.878,42.0881 65.5186,39.0508 72.8949,39.0508 79.4034,45.5593 81.5729,35.5797 97.1932,8.678 98.9288,24.7322 99.3627,56.8407 101.0983,64.6508 101.0983,74.6305 91.9864,85.478 80.2712,91.9864 68.9898,95.0237 54.6712,94.1559 45.1254,87.6475 40.7864,82.4407 35.5797,68.122 35.1458,55.539" stroke="#00007f" stroke-width="2" /><polyline fill="none" points="60.7458,56.4068 61.6136,65.5186" stroke="#0010ff" stroke-width="2" /><polyline fill="none" points="72.8949,57.2746 73.7627,62.0475" stroke="#00a4ff" stroke-width="2" /><polyline fill="none" points="70.7254,72.461 70.7254,72.461" stroke="#3fffb7" stroke-width="2" /><polyline fill="none" points="80.7051,73.7627 82.8746,68.122 89.3831,63.3492 101.9661,58.5763 108.4746,57.7085" stroke="#b7ff3f" stroke-width="2" /><polyline fill="none" points="54.6712,70.7254 50.3322,68.9898 40.7864,68.9898 34.7119,70.2915 16.4881,76.8 8.678,82.0068" stroke="#ffb900" stroke-width="2" /><polyline fill="none" points="53.3695,78.9695 43.3898,78.9695 34.278,82.0068 23.8644,87.2136 18.6576,92.4203" stroke="#ff3000" stroke-width="2" /><polyline fill="none" points="87.2136,77.6678 104.5695,75.0644 119.322,75.0644" stroke="#7f0000" stroke-width="2" /></svg>