<?xml version="1.0" encoding="utf-8" ?>
<svg baseProfile="tiny" height="128" version="1.2" viewBox="0,0,128,128" width="128" xmlns="http://www.w3.org/2000/svg" xmlns:ev="http://www.w3.org/2001/xml-events" xmlns:xlink="http://www.w3.org/1999/xlink"><defs /><polyline fill="none" points="36.5714,37.4422 36.5714,31.3469 33.9592,27.8639 27.4286,25.2517 19.1565,24.8163 12.1905,27.8639 9.1429,30.9116 8.7075,36.1361 10.449,40.9252 14.3673,43.102 22.2041,44.4082 49.1973,47.4558 47.8912,38.7483 43.102,32.2177 38.3129,29.6054 26.5578,26.9932" stroke="#00007f" stroke-width="2" /><polyline fill="none" points="18.7211,24.8163 21.7687,16.9796 28.7347,8.7075 30.4762,22.6395 31.7823,23.5102" stroke="#0000fe" stroke-width="2" /><polyline fill="none" points="38.3129,24.381 36.1361,25.6871 43.102,19.1565 43.5374,28.7347" stroke="#0060ff" stroke-width="2" /><polyline fill="none" points="22.6395,30.4762 22.6395,31.3469" stroke="#00d4ff" stroke-width="2" /><polyline fill="none" points="43.102,34.8299 36.1361,33.9592 37.4422,33.0884 38.3129,34.8299" stroke="#4cffaa" stroke-width="2" /><polyline fill="none" points="26.5578,35.7007 25.2517,39.1837 27.4286,39.1837 29.1701,38.3129 26.9932,35.7007" stroke="#aaff4c" stroke-width="2" /><polyline fill="none" points="19.5918,39.1837 31.3469,41.3605" stroke="#ffe500" stroke-width="2" /><polyline fill="none" points="27.8639,38.3129 27.8639,39.1837" stroke="#ff7a00" stroke-width="2" /><polyline fill="none" points="55.2925,38.7483 51.3741,41.7959 57.9048,40.0544 67.9184,40.0544 88.8163,44.8435 111.0204,44.4082 102.3129,46.1497" stroke="#fe1200" stroke-width="2" /><polyline fill="none" points="47.4558,50.068 68.7891,58.7755 82.2857,61.3878 105.7959,56.5986 119.2925,50.5034 119.2925,47.0204 117.1156,44.8435 80.9796,29.6054" stroke="#7f0000" stroke-width="2" /></svg>