<?xml version="1.0" encoding="utf-8" ?>
<svg baseProfile="tiny" height="128" version="1.2" viewBox="0,0,128,128" width="128" xmlns="http://www.w3.org/2000/svg" xmlns:ev="http://www.w3.org/2001/xml-events" xmlns:xlink="http://www.w3.org/1999/xlink"><defs /><polyline fill="none" points="41.6542,23.8644 29.939,22.1288 34.278,16.922 40.3525,13.0169 45.1254,12.5831 47.7288,13.8847 49.8983,18.6576 49.4644,20.8271 48.1627,20.8271" stroke="#00007f" stroke-width="2" /><polyline fill="none" points="75.9322,18.2237 77.6678,12.1492 82.4407,9.1119 88.5153,8.678 89.8169,10.8475 89.8169,16.4881 81.5729,19.0915 73.3288,19.0915" stroke="#0000ff" stroke-width="2" /><polyline fill="none" points="39.4847,30.3729 44.2576,24.7322 51.2,19.9593 61.1797,17.7898 71.1593,17.3559 80.2712,20.8271 85.0441,26.9017 85.9119,33.8441 83.7424,39.0508 78.9695,45.1254 70.2915,49.4644 61.1797,51.6339 50.7661,52.0678 37.7492,45.5593 33.4102,40.7864 31.2407,29.939 40.3525,29.5051" stroke="#0080ff" stroke-width="2" /><polyline fill="none" points="38.1831,37.7492 23.8644,40.7864 8.678,42.522" stroke="#15ffe1" stroke-width="2" /><polyline fill="none" points="39.4847,41.6542 29.939,45.1254 17.3559,51.6339" stroke="#7cff79" stroke-width="2" /><polyline fill="none" points="48.1627,42.522 32.9763,57.2746 30.8068,63.3492" stroke="#e4ff12" stroke-width="2" /><polyline fill="none" points="73.3288,34.7119 93.722,36.0136 106.3051,40.3525" stroke="#ff9400" stroke-width="2" /><polyline fill="none" points="61.6136,37.3153 83.3085,40.7864 106.3051,48.5966" stroke="#ff1d00" stroke-width="2" /><polyline fill="none" points="65.9525,42.522 80.2712,45.9932 119.322,63.7831" stroke="#7f0000" stroke-width="2" /></svg>