<?xml version="1.0" encoding="utf-8" ?>
<svg baseProfile="tiny" height="128" version="1.2" viewBox="0,0,128,128" width="128" xmlns="http://www.w3.org/2000/svg" xmlns:ev="http://www.w3.org/2001/xml-events" xmlns:xlink="http://www.w3.org/1999/xlink"><defs /><polyline fill="none" points="19.0915,45.9932 13.0169,18.2237 8.678,8.678 22.1288,19.5254 31.2407,32.5424 32.1085,36.0136 64.2169,36.8814 82.4407,44.2576 85.478,44.2576 88.0814,28.6373 95.8915,16.4881 99.3627,16.4881 101.0983,72.8949 98.4949,82.0068 93.722,85.0441 84.6102,85.478 75.0644,88.5153 59.4441,88.5153 48.5966,84.1763 45.1254,80.7051 36.0136,77.6678 29.939,72.8949 26.9017,69.8576 20.3932,58.5763 18.2237,49.4644" stroke="#00007f" stroke-width="2" /><polyline fill="none" points="40.7864,56.4068 43.8237,55.9729 40.7864,55.539 41.6542,56.8407" stroke="#0000f1" stroke-width="2" /><polyline fill="none" points="75.4983,55.539 78.9695,55.9729 74.6305,54.2373" stroke="#004cff" stroke-width="2" /><polyline fill="none" points="56.4068,61.6136 61.1797,67.6881 62.4814,61.1797 59.4441,60.7458 59.0102,63.7831 60.7458,67.2542 60.7458,71.5932 56.8407,72.8949 49.4644,72.8949 47.2949,69.8576 50.3322,68.5559 51.6339,71.5932 54.6712,74.1966 59.0102,75.0644 62.0475,71.5932 62.0475,68.122 59.4441,71.1593 59.4441,74.6305 69.4237,78.1017 72.0271,71.1593" stroke="#00b0ff" stroke-width="2" /><polyline fill="none" points="10.4136,65.0847 32.1085,65.0847" stroke="#29ffcd" stroke-width="2" /><polyline fill="none" points="17.7898,75.0644 24.2983,76.3661 37.3153,69.8576" stroke="#7cff79" stroke-width="2" /><polyline fill="none" points="41.6542,72.0271 34.7119,76.3661 21.261,98.4949 15.1864,111.078" stroke="#cdff29" stroke-width="2" /><polyline fill="none" points="87.6475,81.5729 91.9864,81.5729 100.6644,86.3458 105.0034,85.9119" stroke="#ffc400" stroke-width="2" /><polyline fill="none" points="90.6847,71.1593 118.8881,69.8576" stroke="#ff6700" stroke-width="2" /><polyline fill="none" points="98.061,61.6136 119.322,56.4068" stroke="#f10700" stroke-width="2" /><polyline fill="none" points="44.2576,85.9119 44.2576,85.9119" stroke="#7f0000" stroke-width="2" /></svg>