<?xml version="1.0" encoding="utf-8" ?>
<svg baseProfile="tiny" height="128" version="1.2" viewBox="0,0,128,128" width="128" xmlns="http://www.w3.org/2000/svg" xmlns:ev="http://www.w3.org/2001/xml-events" xmlns:xlink="http://www.w3.org/1999/xlink"><defs /><polyline fill="none" points="60.3119,13.4508 58.1424,12.1492 45.1254,12.5831 29.939,19.0915 24.7322,23.4305 19.5254,34.278 18.2237,53.3695 19.9593,64.2169 24.7322,78.5356 29.0712,83.3085 45.9932,91.1186 77.2339,94.5898 92.8542,94.5898 95.0237,93.2881 96.3254,91.1186 96.3254,75.4983 92.8542,54.2373 86.3458,35.1458 76.8,15.6203 71.1593,9.1119 67.2542,8.678" stroke="#00007f" stroke-width="2" /><polyline fill="none" points="45.9932,55.1051 62.4814,56.4068 65.9525,59.4441 68.122,63.7831 67.6881,65.9525 59.0102,67.2542 53.3695,73.3288 48.5966,72.461 46.861,70.2915 47.7288,59.4441 46.4271,57.2746 43.3898,56.4068" stroke="#0010ff" stroke-width="2" /><polyline fill="none" points="40.3525,56.4068 8.678,55.539" stroke="#00a4ff" stroke-width="2" /><polyline fill="none" points="38.6169,67.6881 19.9593,67.6881 14.3186,69.4237" stroke="#3fffb7" stroke-width="2" /><polyline fill="none" points="41.6542,82.0068 32.5424,82.0068 22.1288,84.1763" stroke="#b7ff3f" stroke-width="2" /><polyline fill="none" points="83.7424,67.6881 98.4949,73.3288 119.322,77.2339" stroke="#ffb900" stroke-width="2" /><polyline fill="none" points="79.8373,81.139 94.1559,87.6475" stroke="#ff3000" stroke-width="2" /><polyline fill="none" points="71.5932,86.7797 72.8949,88.9492 83.3085,95.8915" stroke="#7f0000" stroke-width="2" /></svg>