<?xml version="1.0" encoding="utf-8" ?>
<svg baseProfile="tiny" height="128" version="1.2" viewBox="0,0,128,128" width="128" xmlns="http://www.w3.org/2000/svg" xmlns:ev="http://www.w3.org/2001/xml-events" xmlns:xlink="http://www.w3.org/1999/xlink"><defs /><polyline fill="none" points="15.6203,101.5322 8.678,84.6102 8.678,65.9525 12.1492,57.2746 20.8271,51.2 39.4847,44.2576 58.1424,44.2576 74.1966,53.8034 87.2136,66.8203 91.1186,80.2712 90.2508,102.8339 83.7424,111.5119 75.0644,114.9831 65.5186,118.4542 55.1051,119.322 31.6746,118.4542 18.6576,113.2475 13.8847,105.0034 13.0169,95.4576" stroke="#00007f" stroke-width="2" /><polyline fill="none" points="20.3932,45.9932 18.2237,36.4475 18.2237,12.1492 22.1288,8.678 26.9017,11.2814 36.0136,22.5627 41.6542,35.1458" stroke="#0028ff" stroke-width="2" /><polyline fill="none" points="64.2169,42.522 74.1966,39.4847 95.4576,29.0712 117.5864,22.5627 119.322,26.9017 114.1153,42.522 100.6644,68.9898 96.3254,71.5932" stroke="#00d4ff" stroke-width="2" /><polyline fill="none" points="26.4678,79.4034 32.5424,83.7424 39.4847,91.9864" stroke="#7cff79" stroke-width="2" /><polyline fill="none" points="27.3356,96.3254 38.6169,89.3831" stroke="#ffe500" stroke-width="2" /><polyline fill="none" points="30.8068,106.739 43.3898,91.1186" stroke="#ff4600" stroke-width="2" /><polyline fill="none" points="67.2542,94.5898 77.6678,98.9288" stroke="#7f0000" stroke-width="2" /></svg>