<?xml version="1.0" encoding="utf-8" ?>
<svg baseProfile="tiny" height="128" version="1.2" viewBox="0,0,128,128" width="128" xmlns="http://www.w3.org/2000/svg" xmlns:ev="http://www.w3.org/2001/xml-events" xmlns:xlink="http://www.w3.org/1999/xlink"><defs /><polyline fill="none" points="53.3695,38.1831 49.4644,47.7288 45.9932,49.4644" stroke="#00007f" stroke-width="2" /><polyline fill="none" points="61.6136,38.1831 84.1763,42.0881" stroke="#0000d5" stroke-width="2" /><polyline fill="none" points="70.2915,44.6915 88.5153,49.4644" stroke="#001cff" stroke-width="2" /><polyline fill="none" points="53.8034,50.3322 50.3322,50.3322 41.2203,54.6712" stroke="#006cff" stroke-width="2" /><polyline fill="none" points="53.3695,36.4475 55.1051,51.2 66.8203,49.4644 67.2542,46.861 57.2746,37.7492 52.5017,36.0136" stroke="#00b8ff" stroke-width="2" /><polyline fill="none" points="58.5763,39.9186 58.1424,47.2949 61.1797,46.4271 51.6339,47.7288 54.6712,44.2576" stroke="#1cffda" stroke-width="2" /><polyline fill="none" points="42.522,30.8068 42.9559,27.7695 45.9932,26.4678 48.1627,26.4678 49.8983,28.6373 48.1627,32.5424 43.3898,32.9763 39.9186,31.2407 39.9186,29.939 44.2576,28.6373 47.7288,29.939" stroke="#5cff9a" stroke-width="2" /><polyline fill="none" points="64.2169,24.7322 61.1797,22.9966 56.4068,26.9017 58.1424,32.1085 62.0475,33.8441 65.5186,31.6746 64.6508,29.5051 58.1424,26.0339 61.1797,28.2034 59.878,29.939 61.1797,31.2407 60.3119,31.6746 62.4814,31.2407" stroke="#9aff5c" stroke-width="2" /><polyline fill="none" points="57.7085,59.0102 64.2169,55.9729 71.1593,57.2746" stroke="#daff1c" stroke-width="2" /><polyline fill="none" points="36.4475,12.1492 29.5051,15.6203 20.3932,26.4678 18.2237,35.5797 19.5254,55.1051 24.2983,66.8203 33.4102,79.4034 45.5593,92.4203 61.1797,104.5695 68.5559,106.739 97.1932,106.739 118.4542,68.9898 119.322,58.5763 118.4542,55.9729 109.3424,46.4271 98.4949,37.3153 82.8746,26.9017 68.9898,19.9593 55.1051,16.0542 53.8034,16.0542 53.3695,18.6576 62.0475,23.8644 65.5186,22.9966 71.1593,18.6576 73.3288,13.0169 79.8373,8.678 80.7051,29.939" stroke="#ffcb00" stroke-width="2" /><polyline fill="none" points="13.4508,40.3525 8.678,22.5627 9.1119,13.0169 11.7153,12.5831 16.0542,14.3186 26.9017,23.4305" stroke="#ff8500" stroke-width="2" /><polyline fill="none" points="95.0237,39.0508 92.8542,52.0678 90.6847,54.2373 100.2305,47.7288" stroke="#ff3b00" stroke-width="2" /><polyline fill="none" points="39.4847,77.6678 48.5966,76.3661 55.1051,72.8949 55.539,78.9695 52.5017,86.7797 50.7661,88.9492 48.1627,88.5153" stroke="#d50000" stroke-width="2" /><polyline fill="none" points="69.8576,78.9695 80.7051,79.4034 87.6475,72.461" stroke="#7f0000" stroke-width="2" /></svg>