<?xml version="1.0" encoding="utf-8" ?>
<svg baseProfile="tiny" height="128" version="1.2" viewBox="0,0,128,128" width="128" xmlns="http://www.w3.org/2000/svg" xmlns:ev="http://www.w3.org/2001/xml-events" xmlns:xlink="http://www.w3.org/1999/xlink"><defs /><polyline fill="none" points="77.4966,38.7483 70.966,31.7823 66.1769,30.0408 52.6803,31.3469 36.1361,42.6667 22.2041,58.3401 12.1905,76.1905 9.1429,84.898 8.7075,93.1701 9.5782,101.0068 13.0612,106.6667 19.1565,111.8912 26.1224,115.3741 42.2313,119.2925 69.2245,119.2925 77.4966,116.6803 90.5578,107.9728 99.2653,94.4762 102.3129,85.7687 104.4898,70.5306 103.619,63.1293 100.1361,56.5986 83.1565,40.0544 59.6463,27.4286" stroke="#00007f" stroke-width="2" /><polyline fill="none" points="24.381,52.6803 23.0748,50.068 23.5102,29.6054 27.8639,8.7075 31.3469,11.7551 46.585,33.5238 52.6803,37.0068" stroke="#0000fe" stroke-width="2" /><polyline fill="none" points="77.4966,37.4422 87.0748,17.8503 89.2517,18.2857 93.6054,34.8299 98.3946,61.3878 99.7007,62.6939 99.7007,58.3401" stroke="#0060ff" stroke-width="2" /><polyline fill="none" points="47.4558,55.2925 47.4558,57.9048 49.1973,56.5986 50.5034,53.9864 47.0204,53.1156 44.8435,57.4694" stroke="#00d4ff" stroke-width="2" /><polyline fill="none" points="70.0952,57.9048 70.0952,59.6463 73.1429,60.0816 75.3197,56.5986 73.5782,55.2925 72.7075,56.1633" stroke="#4cffaa" stroke-width="2" /><polyline fill="none" points="58.3401,86.2041 57.034,85.3333" stroke="#aaff4c" stroke-width="2" /><polyline fill="none" points="57.4694,83.5918 46.1497,82.7211 33.9592,78.8027" stroke="#ffe500" stroke-width="2" /><polyline fill="none" points="50.5034,88.381 34.3946,87.5102" stroke="#ff7a00" stroke-width="2" /><polyline fill="none" points="69.2245,84.0272 87.5102,76.6259" stroke="#fe1200" stroke-width="2" /><polyline fill="none" points="72.2721,87.5102 82.2857,84.898" stroke="#7f0000" stroke-width="2" /></svg>