<?xml version="1.0" encoding="utf-8" ?>
<svg baseProfile="tiny" height="128" version="1.2" viewBox="0,0,128,128" width="128" xmlns="http://www.w3.org/2000/svg" xmlns:ev="http://www.w3.org/2001/xml-events" xmlns:xlink="http://www.w3.org/1999/xlink"><defs /><polyline fill="none" points="37.7492,45.9932 29.5051,49.4644 25.6,44.6915 13.0169,22.9966 8.678,11.7153 14.3186,10.8475 21.261,14.7525 48.1627,35.5797 61.1797,31.2407 78.9695,30.8068 83.3085,29.5051 92.4203,14.7525 96.7593,9.9797 101.0983,8.678 104.1356,16.922 102.4,48.5966 103.2678,52.5017 113.6814,64.6508 118.8881,72.8949 118.0203,85.9119 111.5119,98.061 93.722,113.6814 81.139,118.8881 68.5559,118.0203 59.0102,114.9831 47.2949,104.1356 36.0136,85.0441 32.1085,75.4983 30.8068,65.9525 34.278,62.0475" stroke="#00007f" stroke-width="2" /><polyline fill="none" points="17.3559,82.4407 51.2,67.6881" stroke="#0000ff" stroke-width="2" /><polyline fill="none" points="27.3356,95.8915 39.4847,91.1186" stroke="#0080ff" stroke-width="2" /><polyline fill="none" points="33.4102,106.739 59.4441,97.1932" stroke="#15ffe1" stroke-width="2" /><polyline fill="none" points="95.0237,75.4983 106.739,78.5356 119.322,78.9695" stroke="#7cff79" stroke-width="2" /><polyline fill="none" points="88.5153,93.2881 93.722,95.4576 109.3424,95.4576 116.2847,98.4949" stroke="#e4ff12" stroke-width="2" /><polyline fill="none" points="95.0237,96.3254 99.3627,94.5898 111.5119,95.8915" stroke="#ff9400" stroke-width="2" /><polyline fill="none" points="85.0441,75.0644 79.8373,75.4983 74.1966,78.9695" stroke="#ff1d00" stroke-width="2" /><polyline fill="none" points="83.3085,73.7627 74.1966,86.3458" stroke="#7f0000" stroke-width="2" /></svg>