<?xml version="1.0" encoding="utf-8" ?>
<svg baseProfile="tiny" height="128" version="1.2" viewBox="0,0,128,128" width="128" xmlns="http://www.w3.org/2000/svg" xmlns:ev="http://www.w3.org/2001/xml-events" xmlns:xlink="http://www.w3.org/1999/xlink"><defs /><polyline fill="none" points="20.4626,45.2789 17.8503,45.7143 15.2381,50.5034 10.8844,63.5646 8.7075,76.6259 9.1429,89.2517 15.2381,99.2653 23.0748,105.7959 47.4558,117.1156 60.9524,119.2925 76.6259,119.2925 87.0748,115.3741 97.0884,108.4082 102.7483,101.0068 105.7959,93.1701 107.5374,85.7687 107.5374,73.1429 98.8299,60.0816 91.8639,52.2449 78.8027,43.102 57.034,36.5714 31.3469,35.7007 20.4626,40.4898 13.4966,46.1497" stroke="#00007f" stroke-width="2" /><polyline fill="none" points="19.5918,46.585 16.5442,31.3469 10.449,16.1088 10.449,10.8844 12.6259,11.7551 23.9456,27.8639 26.5578,28.7347" stroke="#004cff" stroke-width="2" /><polyline fill="none" points="70.0952,34.8299 72.7075,34.3946 79.2381,26.9932 88.381,8.7075 90.1224,10.8844 90.1224,30.0408 86.2041,50.5034 84.4626,52.2449" stroke="#29ffcd" stroke-width="2" /><polyline fill="none" points="36.1361,53.9864 37.0068,61.3878 44.4082,61.8231 47.0204,59.2109 49.1973,50.9388" stroke="#cdff29" stroke-width="2" /><polyline fill="none" points="71.8367,59.6463 72.7075,67.0476 75.3197,67.0476 77.0612,64.0 77.0612,58.7755 72.2721,55.2925 63.5646,55.7279" stroke="#ff6700" stroke-width="2" /><polyline fill="none" points="37.8776,82.2857 37.8776,92.2993 43.102,96.2177 47.8912,96.6531 48.7619,91.8639 53.9864,98.8299 64.4354,100.5714 67.0476,99.2653 68.3537,96.6531 69.2245,80.9796" stroke="#7f0000" stroke-width="2" /></svg>