<?xml version="1.0" encoding="utf-8" ?>
<svg baseProfile="tiny" height="128" version="1.2" viewBox="0,0,128,128" width="128" xmlns="http://www.w3.org/2000/svg" xmlns:ev="http://www.w3.org/2001/xml-events" xmlns:xlink="http://www.w3.org/1999/xlink"><defs /><polyline fill="none" points="84.6102,47.2949 68.122,46.4271 52.9356,48.5966 42.0881,51.6339 26.4678,59.878 22.5627,65.5186 22.1288,75.0644 26.4678,80.7051 36.4475,85.478 57.7085,86.3458 65.5186,85.478 84.6102,76.8 97.1932,65.5186 102.8339,56.4068 101.9661,50.7661 93.722,47.7288 68.122,45.1254" stroke="#00007f" stroke-width="2" /><polyline fill="none" points="95.8915,48.1627 100.2305,43.8237 101.9661,36.0136" stroke="#0028ff" stroke-width="2" /><polyline fill="none" points="105.8712,35.1458 103.7017,33.4102 90.2508,29.939 85.9119,27.3356 85.478,21.261 90.2508,18.2237 99.3627,17.7898 106.739,22.9966 109.3424,26.9017 110.2102,30.3729 108.4746,33.4102 99.7966,37.3153" stroke="#00d4ff" stroke-width="2" /><polyline fill="none" points="87.2136,20.8271 91.9864,8.678 95.4576,16.4881 98.061,18.2237" stroke="#7cff79" stroke-width="2" /><polyline fill="none" points="103.7017,18.2237 108.9085,10.8475 109.7763,27.3356" stroke="#ffe500" stroke-width="2" /><polyline fill="none" points="25.1661,72.8949 24.7322,57.2746 21.6949,53.8034 12.1492,54.6712 10.4136,51.2 8.678,39.4847 8.678,13.8847" stroke="#ff4600" stroke-width="2" /><polyline fill="none" points="38.1831,84.1763 35.5797,95.0237 24.7322,119.322 26.4678,118.0203" stroke="#7f0000" stroke-width="2" /></svg>