<?xml version="1.0" encoding="utf-8" ?>
<svg baseProfile="tiny" height="128" version="1.2" viewBox="0,0,128,128" width="128" xmlns="http://www.w3.org/2000/svg" xmlns:ev="http://www.w3.org/2001/xml-events" xmlns:xlink="http://www.w3.org/1999/xlink"><defs /><polyline fill="none" points="18.6576,56.8407 9.9797,78.5356 9.5458,94.1559 13.0169,102.8339 19.5254,109.7763 32.9763,117.1525 57.2746,119.322 68.9898,119.322 71.1593,118.0203 80.2712,99.7966 85.9119,82.0068 85.9119,69.4237 82.4407,60.7458" stroke="#00007f" stroke-width="2" /><polyline fill="none" points="19.0915,54.6712 11.7153,38.6169 8.678,21.6949 21.6949,10.4136 22.9966,12.1492 23.8644,19.9593 26.9017,25.6 32.1085,44.2576 35.5797,45.1254 41.6542,42.0881 47.7288,42.0881 65.9525,46.861 67.2542,41.6542 74.1966,25.1661 77.6678,20.3932 87.2136,13.4508 88.9492,8.678 88.5153,16.0542 85.0441,26.4678 74.6305,50.3322 80.7051,57.2746 82.8746,62.0475" stroke="#004cff" stroke-width="2" /><polyline fill="none" points="47.7288,87.2136 42.522,89.8169 38.1831,95.4576" stroke="#29ffcd" stroke-width="2" /><polyline fill="none" points="49.8983,87.6475 58.5763,87.6475 62.0475,89.3831" stroke="#cdff29" stroke-width="2" /><polyline fill="none" points="44.2576,84.1763 34.7119,85.0441" stroke="#ff6700" stroke-width="2" /><polyline fill="none" points="49.0305,85.0441 62.0475,82.0068" stroke="#7f0000" stroke-width="2" /></svg>