<?xml version="1.0" encoding="utf-8" ?>
<svg baseProfile="tiny" height="128" version="1.2" viewBox="0,0,128,128" width="128" xmlns="http://www.w3.org/2000/svg" xmlns:ev="http://www.w3.org/2001/xml-events" xmlns:xlink="http://www.w3.org/1999/xlink"><defs /><polyline fill="none" points="45.9932,29.939 32.9763,37.7492 26.0339,48.5966 23.4305,56.4068 23.4305,67.6881 27.3356,76.8 39.9186,85.478 59.4441,85.9119 73.7627,79.4034 82.0068,70.7254 85.9119,64.2169 88.0814,52.5017 87.2136,42.9559 82.0068,33.8441 74.6305,31.6746 74.6305,20.3932 72.8949,11.7153 66.8203,22.1288 65.0847,29.5051 55.9729,29.939 54.6712,19.9593 50.7661,8.678 44.2576,28.2034" stroke="#00007f" stroke-width="2" /><polyline fill="none" points="51.6339,39.4847 47.2949,41.2203 45.9932,45.5593 46.4271,46.861 50.3322,47.2949 52.0678,45.9932 52.9356,42.9559" stroke="#0000f1" stroke-width="2" /><polyline fill="none" points="76.8,39.0508 71.5932,39.9186 66.8203,42.9559 66.3864,45.9932 70.7254,45.9932 74.1966,43.8237 74.1966,41.6542 72.0271,40.3525" stroke="#004cff" stroke-width="2" /><polyline fill="none" points="56.4068,52.0678 54.2373,53.3695 52.9356,56.4068 56.4068,56.8407 56.8407,54.6712" stroke="#00b0ff" stroke-width="2" /><polyline fill="none" points="54.6712,58.1424 53.3695,62.4814 49.0305,67.6881 45.5593,68.9898 42.522,68.5559 41.6542,66.8203 42.522,60.7458" stroke="#29ffcd" stroke-width="2" /><polyline fill="none" points="55.539,56.4068 54.6712,66.8203 56.4068,69.8576 63.3492,70.2915 65.5186,68.122" stroke="#7cff79" stroke-width="2" /><polyline fill="none" points="76.8,57.2746 79.4034,53.3695 88.0814,48.5966 98.061,45.5593 105.8712,44.6915" stroke="#cdff29" stroke-width="2" /><polyline fill="none" points="81.139,62.0475 99.3627,51.6339 119.322,47.7288" stroke="#ffc400" stroke-width="2" /><polyline fill="none" points="86.7797,64.6508 113.2475,63.3492" stroke="#ff6700" stroke-width="2" /><polyline fill="none" points="36.8814,52.9356 32.1085,52.9356 22.5627,56.8407 9.5458,66.8203" stroke="#f10700" stroke-width="2" /><polyline fill="none" points="36.8814,61.1797 30.8068,63.3492 19.9593,69.8576 8.678,81.5729" stroke="#7f0000" stroke-width="2" /></svg>