<?xml version="1.0" encoding="utf-8" ?>
<svg baseProfile="tiny" height="128" version="1.2" viewBox="0,0,128,128" width="128" xmlns="http://www.w3.org/2000/svg" xmlns:ev="http://www.w3.org/2001/xml-events" xmlns:xlink="http://www.w3.org/1999/xlink"><defs /><polyline fill="none" points="59.4441,39.0508 66.3864,36.8814 72.8949,36.4475 75.0644,38.1831 76.8,45.1254" stroke="#00007f" stroke-width="2" /><polyline fill="none" points="57.7085,39.4847 77.2339,44.6915" stroke="#0000bf" stroke-width="2" /><polyline fill="none" points="49.8983,25.6 49.0305,26.9017 46.4271,23.8644 42.0881,23.8644 41.6542,26.9017 45.5593,30.3729 49.0305,31.2407 50.3322,29.939 47.7288,24.7322" stroke="#0000fe" stroke-width="2" /><polyline fill="none" points="72.461,25.6 72.8949,24.2983 70.7254,24.2983 67.2542,28.2034 68.9898,29.0712 71.1593,27.7695 72.8949,25.1661 72.461,23.4305" stroke="#0028ff" stroke-width="2" /><polyline fill="none" points="66.3864,44.6915 64.6508,50.7661 62.0475,52.9356 55.9729,52.9356 52.9356,49.8983" stroke="#0060ff" stroke-width="2" /><polyline fill="none" points="65.0847,48.1627 70.2915,52.9356 76.8,54.2373 82.0068,52.5017 85.0441,48.1627" stroke="#009cff" stroke-width="2" /><polyline fill="none" points="23.4305,28.2034 31.6746,9.9797 38.6169,10.8475 48.1627,14.7525" stroke="#00d4ff" stroke-width="2" /><polyline fill="none" points="49.0305,19.9593 55.539,16.0542 62.4814,14.3186 81.5729,16.0542 95.8915,8.678 103.7017,26.9017" stroke="#1fffd7" stroke-width="2" /><polyline fill="none" points="25.1661,31.6746 22.9966,41.2203 23.8644,47.2949 29.5051,56.4068 42.0881,65.0847 60.7458,68.5559 85.478,65.5186 95.8915,60.7458 106.3051,49.0305 110.6441,38.6169 109.7763,35.1458" stroke="#4cffaa" stroke-width="2" /><polyline fill="none" points="60.7458,70.2915 62.0475,71.1593 62.9153,74.1966 61.1797,85.0441 62.0475,89.3831" stroke="#7cff79" stroke-width="2" /><polyline fill="none" points="84.6102,64.6508 83.3085,71.5932 85.478,78.5356 91.1186,85.9119 96.3254,88.9492" stroke="#aaff4c" stroke-width="2" /><polyline fill="none" points="59.0102,69.8576 60.7458,78.1017 59.878,89.3831" stroke="#d7ff1f" stroke-width="2" /><polyline fill="none" points="82.4407,49.4644 98.9288,40.7864 116.7186,37.3153" stroke="#ffe500" stroke-width="2" /><polyline fill="none" points="89.8169,54.6712 99.7966,51.2 119.322,49.4644" stroke="#ffb100" stroke-width="2" /><polyline fill="none" points="87.2136,56.4068 103.2678,63.3492 114.5492,65.9525" stroke="#ff7a00" stroke-width="2" /><polyline fill="none" points="43.8237,45.5593 30.3729,49.4644 8.678,59.878" stroke="#ff4600" stroke-width="2" /><polyline fill="none" points="49.4644,57.2746 44.6915,61.6136 22.9966,75.0644 17.7898,83.7424" stroke="#fe1200" stroke-width="2" /><polyline fill="none" points="57.2746,62.4814 36.4475,80.2712 30.3729,88.0814 29.0712,91.5525" stroke="#bf0000" stroke-width="2" /><polyline fill="none" points="54.2373,56.8407 58.5763,62.4814 62.0475,63.3492 70.7254,60.7458 75.0644,56.4068" stroke="#7f0000" stroke-width="2" /></svg>