<?xml version="1.0" encoding="utf-8" ?>
<svg baseProfile="tiny" height="128" version="1.2" viewBox="0,0,128,128" width="128" xmlns="http://www.w3.org/2000/svg" xmlns:ev="http://www.w3.org/2001/xml-events" xmlns:xlink="http://www.w3.org/1999/xlink"><defs /><polyline fill="none" points="33.8441,29.939 49.0305,8.678 51.2,9.5458 53.3695,14.7525 55.1051,28.2034 57.2746,31.6746" stroke="#00007f" stroke-width="2" /><polyline fill="none" points="90.2508,37.3153 103.2678,16.0542 114.5492,45.9932 113.2475,46.4271" stroke="#0000f1" stroke-width="2" /><polyline fill="none" points="93.2881,41.2203 66.3864,39.4847 47.7288,34.278 29.939,33.4102 24.2983,34.7119 16.922,42.0881 13.4508,50.3322 11.2814,59.0102 11.2814,65.5186 14.3186,71.1593 21.261,78.1017 36.0136,85.478 53.3695,89.3831 78.5356,93.2881 88.9492,92.8542 96.3254,89.3831 104.5695,82.8746 108.4746,77.2339 111.5119,64.6508 111.9458,53.3695 103.2678,41.6542 96.7593,41.2203" stroke="#004cff" stroke-width="2" /><polyline fill="none" points="37.3153,68.5559 50.7661,78.1017 73.7627,78.5356 73.3288,77.2339" stroke="#00b0ff" stroke-width="2" /><polyline fill="none" points="44.2576,44.6915 45.5593,47.2949 44.6915,50.3322" stroke="#29ffcd" stroke-width="2" /><polyline fill="none" points="75.0644,54.6712 85.478,49.4644 85.9119,58.1424 87.6475,61.1797" stroke="#7cff79" stroke-width="2" /><polyline fill="none" points="42.0881,43.8237 37.3153,42.9559 31.2407,47.2949" stroke="#cdff29" stroke-width="2" /><polyline fill="none" points="57.2746,62.0475 58.5763,64.6508 60.7458,63.7831 59.878,62.4814" stroke="#ffc400" stroke-width="2" /><polyline fill="none" points="75.4983,63.3492 89.3831,65.9525 97.1932,69.8576" stroke="#ff6700" stroke-width="2" /><polyline fill="none" points="78.9695,71.1593 97.6271,78.5356 119.322,90.2508" stroke="#f10700" stroke-width="2" /><polyline fill="none" points="36.8814,56.8407 22.1288,57.2746 8.678,53.3695" stroke="#7f0000" stroke-width="2" /></svg>