<?xml version="1.0" encoding="utf-8" ?>
<svg baseProfile="tiny" height="128" version="1.2" viewBox="0,0,128,128" width="128" xmlns="http://www.w3.org/2000/svg" xmlns:ev="http://www.w3.org/2001/xml-events" xmlns:xlink="http://www.w3.org/1999/xlink"><defs /><polyline fill="none" points="60.9524,118.8571 14.3673,118.4218 11.3197,114.068 9.1429,105.7959 8.7075,77.0612 13.4966,65.7415 20.4626,58.3401 34.3946,48.3265 43.9728,43.5374 53.9864,40.4898 91.8639,40.0544 112.3265,73.5782 114.5034,80.5442 114.9388,94.0408 110.1497,103.619 97.0884,117.9864 58.7755,119.2925" stroke="#00007f" stroke-width="2" /><polyline fill="none" points="20.898,57.4694 20.0272,45.2789 13.932,23.5102 53.551,67.0476 54.4218,61.8231" stroke="#0000fe" stroke-width="2" /><polyline fill="none" points="89.6871,39.619 96.6531,17.415 103.619,8.7075 104.4898,10.449 104.0544,14.8027 99.2653,25.6871 97.5238,37.4422 94.9116,43.102" stroke="#0060ff" stroke-width="2" /><polyline fill="none" points="56.1633,85.3333 56.1633,89.6871" stroke="#00d4ff" stroke-width="2" /><polyline fill="none" points="55.7279,84.898 51.8095,79.2381 43.102,72.2721" stroke="#4cffaa" stroke-width="2" /><polyline fill="none" points="55.2925,88.381 48.7619,95.7823" stroke="#aaff4c" stroke-width="2" /><polyline fill="none" points="56.1633,84.4626 61.3878,79.2381 75.3197,70.966" stroke="#ffe500" stroke-width="2" /><polyline fill="none" points="56.5986,87.5102 67.483,97.9592" stroke="#ff7a00" stroke-width="2" /><polyline fill="none" points="52.2449,67.9184 52.6803,70.5306" stroke="#fe1200" stroke-width="2" /><polyline fill="none" points="61.8231,65.7415 61.8231,70.0952" stroke="#7f0000" stroke-width="2" /></svg>