<?xml version="1.0" encoding="utf-8" ?>
<svg baseProfile="tiny" height="128" version="1.2" viewBox="0,0,128,128" width="128" xmlns="http://www.w3.org/2000/svg" xmlns:ev="http://www.w3.org/2001/xml-events" xmlns:xlink="http://www.w3.org/1999/xlink"><defs /><polyline fill="none" points="12.1905,8.7075 16.1088,22.2041 15.2381,32.6531" stroke="#00007f" stroke-width="2" /><polyline fill="none" points="12.6259,9.5782 9.5782,14.8027 8.7075,23.0748 9.5782,30.4762 13.4966,39.619" stroke="#0000fe" stroke-width="2" /><polyline fill="none" points="21.7687,31.7823 32.2177,28.7347 43.102,28.7347" stroke="#0060ff" stroke-width="2" /><polyline fill="none" points="43.102,23.5102 48.7619,10.0136 52.2449,8.7075 56.1633,18.2857 59.2109,34.8299 58.3401,38.3129" stroke="#00d4ff" stroke-width="2" /><polyline fill="none" points="27.4286,48.7619 27.4286,55.7279" stroke="#4cffaa" stroke-width="2" /><polyline fill="none" points="27.8639,49.6327 37.8776,47.8912 40.9252,53.1156 26.9932,55.2925" stroke="#aaff4c" stroke-width="2" /><polyline fill="none" points="25.2517,38.3129 23.9456,40.4898 24.8163,42.6667 31.7823,43.102 33.9592,40.4898 27.8639,37.0068" stroke="#ffe500" stroke-width="2" /><polyline fill="none" points="43.102,38.7483 40.4898,39.619 40.0544,42.2313 45.2789,44.8435 46.1497,44.4082 43.9728,42.2313" stroke="#ff7a00" stroke-width="2" /><polyline fill="none" points="16.5442,38.3129 16.1088,51.3741 22.2041,62.6939 34.3946,72.2721 45.2789,76.1905 50.5034,75.7551 57.034,73.1429 65.3061,60.0816 66.1769,53.9864 63.5646,46.1497 60.0816,41.7959 54.8571,39.619" stroke="#fe1200" stroke-width="2" /><polyline fill="none" points="64.4354,57.4694 82.2857,57.4694 115.3741,62.6939 119.2925,68.3537 119.2925,74.0136 113.1973,78.8027 100.5714,80.5442 83.1565,79.6735 58.7755,75.3197" stroke="#7f0000" stroke-width="2" /></svg>