<?xml version="1.0" encoding="utf-8" ?>
<svg baseProfile="tiny" height="128" version="1.2" viewBox="0,0,128,128" width="128" xmlns="http://www.w3.org/2000/svg" xmlns:ev="http://www.w3.org/2001/xml-events" xmlns:xlink="http://www.w3.org/1999/xlink"><defs /><polyline fill="none" points="38.1831,26.0339 44.2576,20.8271 49.4644,19.0915 66.3864,17.7898 84.6102,22.9966 90.6847,29.5051 101.0983,17.7898 113.2475,10.4136 116.7186,19.0915 119.322,40.3525 113.6814,73.3288 107.6068,81.5729 97.1932,84.1763 87.6475,85.0441 59.4441,84.6102 36.4475,76.8 29.939,70.2915 21.261,49.4644 17.7898,44.2576 15.1864,34.278 14.7525,12.5831 11.2814,9.1119 8.678,8.678 20.3932,10.8475 32.5424,16.4881 38.6169,21.261 39.0508,24.2983" stroke="#00007f" stroke-width="2" /><polyline fill="none" points="58.1424,39.9186 57.2746,40.3525" stroke="#0080ff" stroke-width="2" /><polyline fill="none" points="79.8373,39.9186 79.8373,40.3525" stroke="#7cff79" stroke-width="2" /><polyline fill="none" points="62.9153,52.9356 62.9153,64.6508 61.6136,72.461 57.2746,75.0644 52.0678,72.8949 51.6339,68.122 56.8407,60.7458" stroke="#ff9400" stroke-width="2" /><polyline fill="none" points="62.0475,54.2373 70.2915,69.8576 75.0644,69.8576 78.5356,65.5186" stroke="#7f0000" stroke-width="2" /></svg>