<?xml version="1.0" encoding="utf-8" ?>
<svg baseProfile="tiny" height="128" version="1.2" viewBox="0,0,128,128" width="128" xmlns="http://www.w3.org/2000/svg" xmlns:ev="http://www.w3.org/2001/xml-events" xmlns:xlink="http://www.w3.org/1999/xlink"><defs /><polyline fill="none" points="89.5563,24.901 84.314,23.5904 64.6553,23.1536 45.8703,33.2014 39.3174,41.5017 36.6962,48.4915 35.8225,63.3447 37.57,72.9556 41.5017,81.256 50.6758,86.4983 58.5392,88.2457 72.5188,84.314 86.4983,75.5768 92.6143,66.8396 93.9249,63.3447 95.2355,42.8123 94.7986,36.2594 89.1195,22.7167" stroke="#00007f" stroke-width="2" /><polyline fill="none" points="89.1195,22.7167 109.6519,13.9795 114.0205,8.7372 115.3311,9.1741 106.157,36.6962 97.4198,44.5597" stroke="#0010ff" stroke-width="2" /><polyline fill="none" points="53.2969,27.0853 24.901,14.4164 38.4437,42.3754 40.628,51.5495" stroke="#00a4ff" stroke-width="2" /><polyline fill="none" points="62.471,51.5495 60.2867,58.5392 52.4232,72.5188 50.6758,72.5188 44.9966,64.6553" stroke="#3fffb7" stroke-width="2" /><polyline fill="none" points="60.2867,52.4232 59.8498,60.7235 65.9659,73.8294 77.7611,73.8294 80.3823,70.3345 80.8191,62.0341" stroke="#b7ff3f" stroke-width="2" /><polyline fill="none" points="82.5666,63.7816 110.0887,67.2765 117.9522,70.7713 119.2628,73.3925" stroke="#ffb900" stroke-width="2" /><polyline fill="none" points="72.9556,73.3925 75.5768,73.3925 81.6928,77.3242 95.6724,93.9249 96.9829,94.3618 97.4198,91.7406" stroke="#ff3000" stroke-width="2" /><polyline fill="none" points="36.2594,65.9659 28.8328,68.1502 18.3481,69.4608 8.7372,73.8294" stroke="#7f0000" stroke-width="2" /></svg>