<?xml version="1.0" encoding="utf-8" ?>
<svg baseProfile="tiny" height="128" version="1.2" viewBox="0,0,128,128" width="128" xmlns="http://www.w3.org/2000/svg" xmlns:ev="http://www.w3.org/2001/xml-events" xmlns:xlink="http://www.w3.org/1999/xlink"><defs /><polyline fill="none" points="18.6576,47.2949 13.8847,47.2949 13.0169,51.2 13.4508,55.9729 19.9593,57.7085 22.5627,54.2373 21.6949,49.4644 18.6576,47.7288" stroke="#00007f" stroke-width="2" /><polyline fill="none" points="14.3186,49.0305 9.1119,46.861 11.7153,51.2" stroke="#0000d5" stroke-width="2" /><polyline fill="none" points="22.9966,46.861 21.6949,47.7288" stroke="#001cff" stroke-width="2" /><polyline fill="none" points="21.6949,47.2949 22.5627,46.4271" stroke="#006cff" stroke-width="2" /><polyline fill="none" points="111.9458,9.9797 119.322,8.678" stroke="#00b8ff" stroke-width="2" /><polyline fill="none" points="15.6203,52.5017 8.678,54.2373" stroke="#1cffda" stroke-width="2" /><polyline fill="none" points="17.3559,55.1051 9.9797,59.0102" stroke="#5cff9a" stroke-width="2" /><polyline fill="none" points="18.6576,53.3695 23.4305,50.3322 26.4678,49.8983" stroke="#9aff5c" stroke-width="2" /><polyline fill="none" points="21.261,53.3695 25.6,52.9356" stroke="#daff1c" stroke-width="2" /><polyline fill="none" points="17.3559,53.3695 17.3559,53.8034" stroke="#ffcb00" stroke-width="2" /><polyline fill="none" points="16.4881,50.3322 15.1864,49.8983" stroke="#ff8500" stroke-width="2" /><polyline fill="none" points="19.5254,49.8983 19.5254,49.8983" stroke="#ff3b00" stroke-width="2" /><polyline fill="none" points="21.6949,59.4441 21.261,58.1424 46.861,59.0102" stroke="#d50000" stroke-width="2" /><polyline fill="none" points="26.0339,59.878 31.6746,82.8746" stroke="#7f0000" stroke-width="2" /></svg>