<?xml version="1.0" encoding="utf-8" ?>
<svg baseProfile="tiny" height="128" version="1.2" viewBox="0,0,128,128" width="128" xmlns="http://www.w3.org/2000/svg" xmlns:ev="http://www.w3.org/2001/xml-events" xmlns:xlink="http://www.w3.org/1999/xlink"><defs /><polyline fill="none" points="94.4762,51.8095 89.2517,45.7143 79.6735,41.3605 69.6599,40.9252 55.2925,45.7143 46.1497,52.6803 37.4422,66.1769 35.7007,75.7551 39.1837,87.0748 49.1973,96.2177 59.2109,99.7007 69.6599,99.7007 77.4966,97.9592 90.1224,90.9932 97.0884,83.1565 101.0068,76.6259 104.0544,63.5646 100.5714,53.551 89.6871,44.4082" stroke="#00007f" stroke-width="2" /><polyline fill="none" points="42.2313,53.9864 21.3333,40.9252 12.1905,37.0068 9.1429,37.0068 8.7075,41.3605 13.0612,51.3741 20.4626,64.8707 24.8163,69.6599" stroke="#0000f1" stroke-width="2" /><polyline fill="none" points="80.9796,39.619 91.8639,15.6735 97.9592,8.7075 100.5714,14.8027 101.8776,36.5714 104.0544,47.0204" stroke="#004cff" stroke-width="2" /><polyline fill="none" points="61.8231,79.2381 49.1973,84.4626 29.1701,97.9592" stroke="#00b0ff" stroke-width="2" /><polyline fill="none" points="60.517,90.5578 46.585,99.2653 37.4422,107.5374 31.3469,115.3741" stroke="#29ffcd" stroke-width="2" /><polyline fill="none" points="78.8027,74.449 80.1088,70.0952 87.5102,63.5646 116.6803,47.8912" stroke="#7cff79" stroke-width="2" /><polyline fill="none" points="87.0748,79.6735 119.2925,65.7415" stroke="#cdff29" stroke-width="2" /><polyline fill="none" points="72.7075,74.8844 71.8367,75.7551 72.7075,73.5782 71.4014,73.5782 66.1769,75.3197" stroke="#ffc400" stroke-width="2" /><polyline fill="none" points="57.9048,71.8367 57.9048,71.8367" stroke="#ff6700" stroke-width="2" /><polyline fill="none" points="76.1905,56.5986 79.2381,54.8571 78.3673,55.7279 79.6735,55.7279 80.5442,54.4218" stroke="#f10700" stroke-width="2" /><polyline fill="none" points="53.551,70.0952 56.1633,67.483" stroke="#7f0000" stroke-width="2" /></svg>