<?xml version="1.0" encoding="utf-8" ?>
<svg baseProfile="tiny" height="128" version="1.2" viewBox="0,0,128,128" width="128" xmlns="http://www.w3.org/2000/svg" xmlns:ev="http://www.w3.org/2001/xml-events" xmlns:xlink="http://www.w3.org/1999/xlink"><defs /><polyline fill="none" points="114.4573,22.2799 111.8362,19.6587 106.5939,18.785 96.9829,23.1536 94.7986,27.959 94.7986,31.4539 96.9829,37.1331 99.6041,39.3174 105.2833,40.628 113.1468,35.8225 115.7679,29.7065 114.0205,21.843" stroke="#00007f" stroke-width="2" /><polyline fill="none" points="97.4198,23.1536 94.7986,12.2321 104.4096,19.2218" stroke="#0000e8" stroke-width="2" /><polyline fill="none" points="110.9625,18.3481 119.2628,14.8532 118.8259,18.3481 114.4573,24.0273" stroke="#0038ff" stroke-width="2" /><polyline fill="none" points="94.7986,26.6485 85.1877,21.4061 63.7816,19.2218 42.8123,27.0853 34.9488,31.8908 33.2014,34.9488 38.0068,41.5017 44.9966,45.4334 51.1126,47.6177 62.471,49.3652 82.5666,47.6177 92.1775,42.3754 94.3618,38.8805" stroke="#0094ff" stroke-width="2" /><polyline fill="none" points="33.6382,34.0751 27.959,30.5802 27.0853,24.901 27.959,17.0375 24.901,13.1058 19.2218,10.0478 9.6109,8.7372" stroke="#0cf4ea" stroke-width="2" /><polyline fill="none" points="8.7372,8.7372 13.1058,14.8532 20.9693,17.9113 23.5904,16.6007 27.0853,18.785 25.3379,26.2116 25.7747,30.5802 27.0853,32.7645 34.5119,36.2594" stroke="#56ffa0" stroke-width="2" /><polyline fill="none" points="43.686,44.9966 41.0648,58.1024" stroke="#a0ff56" stroke-width="2" /><polyline fill="none" points="48.9283,48.9283 51.5495,54.6075 52.4232,65.9659 58.1024,65.9659" stroke="#eaff0c" stroke-width="2" /><polyline fill="none" points="72.0819,51.1126 72.5188,64.2184 74.7031,65.0922 81.256,64.2184" stroke="#ffaa00" stroke-width="2" /><polyline fill="none" points="83.8771,47.1809 86.4983,56.7918 89.9932,61.5973 94.3618,63.3447" stroke="#ff5500" stroke-width="2" /><polyline fill="none" points="102.6621,24.0273 102.6621,26.6485 103.5358,26.6485 104.4096,24.901 102.2253,23.1536" stroke="#e80000" stroke-width="2" /><polyline fill="none" points="109.215,26.2116 108.3413,27.5222" stroke="#7f0000" stroke-width="2" /></svg>