<?xml version="1.0" encoding="utf-8" ?>
<svg baseProfile="tiny" height="128" version="1.2" viewBox="0,0,128,128" width="128" xmlns="http://www.w3.org/2000/svg" xmlns:ev="http://www.w3.org/2001/xml-events" xmlns:xlink="http://www.w3.org/1999/xlink"><defs /><polyline fill="none" points="41.3605,19.5918 33.9592,19.1565 27.4286,22.6395 26.1224,24.8163 25.6871,30.4762 30.0408,37.0068 33.0884,39.1837 49.1973,38.7483 55.7279,34.3946 55.7279,26.5578 48.7619,16.9796 42.6667,14.8027 37.8776,18.2857" stroke="#00007f" stroke-width="2" /><polyline fill="none" points="28.7347,20.4626 27.4286,19.1565 27.4286,8.7075 33.5238,12.1905 39.1837,19.1565" stroke="#0000f1" stroke-width="2" /><polyline fill="none" points="50.068,16.9796 64.4354,14.3673 63.5646,16.9796 55.7279,25.6871" stroke="#004cff" stroke-width="2" /><polyline fill="none" points="55.7279,25.6871 63.1293,23.0748 73.5782,23.0748 84.4626,25.2517 88.8163,28.7347 91.4286,37.4422 90.9932,42.2313 86.6395,46.1497 76.6259,47.8912 64.0,47.8912 50.5034,43.9728 47.0204,39.1837 48.3265,38.3129" stroke="#00b0ff" stroke-width="2" /><polyline fill="none" points="90.9932,36.1361 92.7347,33.5238 97.9592,31.3469 119.2925,30.9116" stroke="#29ffcd" stroke-width="2" /><polyline fill="none" points="35.2653,25.2517 34.8299,25.6871" stroke="#7cff79" stroke-width="2" /><polyline fill="none" points="46.585,26.5578 46.1497,27.4286" stroke="#cdff29" stroke-width="2" /><polyline fill="none" points="36.5714,30.4762 26.5578,28.2993 8.7075,28.2993" stroke="#ffc400" stroke-width="2" /><polyline fill="none" points="34.8299,30.4762 17.8503,30.4762 8.7075,33.9592" stroke="#ff6700" stroke-width="2" /><polyline fill="none" points="39.619,30.9116 74.8844,30.9116" stroke="#f10700" stroke-width="2" /><polyline fill="none" points="41.3605,30.9116 50.9388,33.5238 67.483,35.2653" stroke="#7f0000" stroke-width="2" /></svg>