<?xml version="1.0" encoding="utf-8" ?>
<svg baseProfile="tiny" height="128" version="1.2" viewBox="0,0,128,128" width="128" xmlns="http://www.w3.org/2000/svg" xmlns:ev="http://www.w3.org/2001/xml-events" xmlns:xlink="http://www.w3.org/1999/xlink"><defs /><polyline fill="none" points="62.9153,45.5593 54.2373,43.8237 33.4102,43.8237 28.2034,47.2949 22.5627,57.7085 20.8271,75.9322 22.9966,81.5729 28.6373,85.0441 42.0881,85.478 70.2915,77.2339 79.8373,73.3288 87.6475,67.6881 93.722,60.3119 96.3254,51.6339 95.0237,45.5593 89.3831,38.1831 79.8373,30.3729 68.122,29.0712 59.878,32.1085 49.8983,44.2576" stroke="#00007f" stroke-width="2" /><polyline fill="none" points="39.9186,44.2576 35.1458,41.2203 26.9017,30.8068 16.4881,21.261 15.1864,26.9017 15.1864,45.1254 17.3559,55.1051" stroke="#0000f1" stroke-width="2" /><polyline fill="none" points="58.5763,30.8068 59.0102,24.2983 63.7831,12.1492 68.5559,8.678 71.1593,9.1119 73.3288,13.0169 78.5356,27.7695" stroke="#004cff" stroke-width="2" /><polyline fill="none" points="49.4644,60.3119 49.4644,60.3119" stroke="#00b0ff" stroke-width="2" /><polyline fill="none" points="47.7288,56.4068 47.7288,61.6136 46.861,56.8407" stroke="#29ffcd" stroke-width="2" /><polyline fill="none" points="68.122,44.2576 68.122,51.2" stroke="#7cff79" stroke-width="2" /><polyline fill="none" points="62.9153,65.5186 62.9153,66.3864" stroke="#cdff29" stroke-width="2" /><polyline fill="none" points="62.4814,65.5186 51.6339,65.9525 27.3356,69.4237 13.8847,74.1966 11.2814,76.3661 8.678,81.139" stroke="#ffc400" stroke-width="2" /><polyline fill="none" points="61.1797,65.5186 79.4034,52.9356 85.478,50.3322 95.0237,40.3525 112.3797,27.3356" stroke="#ff6700" stroke-width="2" /><polyline fill="none" points="61.1797,69.4237 36.8814,84.1763 32.1085,88.5153 28.6373,96.3254 28.6373,105.8712 31.6746,104.5695" stroke="#f10700" stroke-width="2" /><polyline fill="none" points="62.4814,69.4237 74.6305,62.9153 95.4576,55.539 109.7763,52.5017 119.322,52.0678" stroke="#7f0000" stroke-width="2" /></svg>