<?xml version="1.0" encoding="utf-8" ?>
<svg baseProfile="tiny" height="128" version="1.2" viewBox="0,0,128,128" width="128" xmlns="http://www.w3.org/2000/svg" xmlns:ev="http://www.w3.org/2001/xml-events" xmlns:xlink="http://www.w3.org/1999/xlink"><defs /><polyline fill="none" points="23.8644,39.4847 21.261,43.3898 18.6576,52.0678 19.5254,57.7085 23.4305,64.2169 30.3729,66.3864 35.1458,66.8203 42.0881,63.3492 45.5593,51.2 43.3898,42.9559 39.0508,36.8814 29.939,33.4102" stroke="#00007f" stroke-width="2" /><polyline fill="none" points="21.261,41.2203 22.1288,26.0339 20.3932,8.678" stroke="#0000d1" stroke-width="2" /><polyline fill="none" points="22.9966,10.8475 30.8068,34.7119" stroke="#0010ff" stroke-width="2" /><polyline fill="none" points="31.6746,32.1085 39.9186,23.8644 47.2949,10.8475 48.5966,19.9593 47.7288,34.278" stroke="#0058ff" stroke-width="2" /><polyline fill="none" points="26.4678,48.5966 18.6576,48.5966 8.678,50.7661" stroke="#00a4ff" stroke-width="2" /><polyline fill="none" points="29.939,60.7458 13.4508,62.9153" stroke="#05ecf1" stroke-width="2" /><polyline fill="none" points="37.7492,52.5017 54.6712,55.539" stroke="#3fffb7" stroke-width="2" /><polyline fill="none" points="29.939,55.9729 53.8034,61.6136" stroke="#7cff79" stroke-width="2" /><polyline fill="none" points="22.5627,52.9356 16.922,53.8034 9.9797,57.2746" stroke="#b7ff3f" stroke-width="2" /><polyline fill="none" points="26.0339,42.9559 26.0339,42.9559" stroke="#f1fc05" stroke-width="2" /><polyline fill="none" points="35.1458,44.6915 35.1458,44.6915" stroke="#ffb900" stroke-width="2" /><polyline fill="none" points="27.7695,42.9559 27.7695,42.9559" stroke="#ff7300" stroke-width="2" /><polyline fill="none" points="43.8237,51.2 64.6508,46.861 84.6102,44.6915 104.1356,46.861 116.2847,51.6339 118.8881,55.1051 119.322,58.5763 115.4169,65.5186 105.4373,71.1593 88.5153,73.7627 65.9525,72.0271 55.539,68.5559 48.5966,63.3492 47.7288,60.3119 49.0305,55.9729" stroke="#ff3000" stroke-width="2" /><polyline fill="none" points="50.3322,66.3864 49.0305,73.3288 49.8983,89.3831 49.0305,103.7017" stroke="#d10000" stroke-width="2" /><polyline fill="none" points="79.8373,78.9695 78.5356,87.6475 79.8373,98.061" stroke="#7f0000" stroke-width="2" /></svg>