<?xml version="1.0" encoding="utf-8" ?>
<svg baseProfile="tiny" height="128" version="1.2" viewBox="0,0,128,128" width="128" xmlns="http://www.w3.org/2000/svg" xmlns:ev="http://www.w3.org/2001/xml-events" xmlns:xlink="http://www.w3.org/1999/xlink"><defs /><polyline fill="none" points="42.0881,88.5153 52.0678,100.6644 54.6712,98.4949 61.1797,85.478 65.9525,95.8915 70.7254,100.2305 73.7627,97.1932 75.9322,91.1186 77.2339,84.1763 75.9322,77.2339" stroke="#00007f" stroke-width="2" /><polyline fill="none" points="72.461,56.4068 70.2915,55.1051 67.2542,55.539 62.4814,59.4441 62.9153,60.7458 65.9525,62.0475 68.5559,61.1797 72.8949,57.7085 72.8949,53.8034" stroke="#0000d5" stroke-width="2" /><polyline fill="none" points="40.7864,61.6136 39.4847,65.0847 40.7864,69.4237 43.8237,73.7627 45.9932,74.6305 49.4644,67.6881 47.7288,59.4441 42.9559,55.1051 37.3153,55.539" stroke="#001cff" stroke-width="2" /><polyline fill="none" points="75.0644,85.478 105.4373,79.4034" stroke="#006cff" stroke-width="2" /><polyline fill="none" points="69.8576,87.2136 76.8,88.0814 102.8339,82.8746" stroke="#00b8ff" stroke-width="2" /><polyline fill="none" points="73.3288,81.139 82.0068,69.4237 95.8915,55.9729" stroke="#1cffda" stroke-width="2" /><polyline fill="none" points="38.1831,91.9864 25.1661,97.1932" stroke="#5cff9a" stroke-width="2" /><polyline fill="none" points="45.5593,84.1763 23.4305,82.8746" stroke="#9aff5c" stroke-width="2" /><polyline fill="none" points="49.0305,97.6271 41.2203,99.7966 27.3356,106.3051" stroke="#daff1c" stroke-width="2" /><polyline fill="none" points="24.7322,114.1153 24.2983,114.1153" stroke="#ffcb00" stroke-width="2" /><polyline fill="none" points="13.8847,103.7017 16.0542,108.9085 22.1288,116.2847 28.2034,119.322 38.1831,119.322 50.7661,117.1525 70.2915,110.2102 86.3458,101.5322 98.4949,89.8169 104.5695,80.2712 107.1729,70.7254 105.0034,42.522 104.5695,40.3525 101.5322,40.3525" stroke="#ff8500" stroke-width="2" /><polyline fill="none" points="99.3627,33.8441 92.8542,40.7864 99.3627,21.6949 101.0983,8.678 93.2881,20.8271 80.7051,34.278 68.9898,44.2576 64.2169,45.5593 65.5186,43.3898" stroke="#ff3b00" stroke-width="2" /><polyline fill="none" points="78.9695,45.5593 79.8373,39.0508 78.1017,35.1458 74.1966,33.4102 67.2542,32.9763 38.6169,41.2203 22.1288,52.5017 17.7898,39.4847 11.7153,32.9763 10.4136,36.0136 10.8475,64.2169" stroke="#d50000" stroke-width="2" /><polyline fill="none" points="17.3559,59.878 9.9797,73.7627 8.678,81.139 9.5458,91.9864 13.4508,101.0983" stroke="#7f0000" stroke-width="2" /></svg>