<?xml version="1.0" encoding="utf-8" ?>
<svg baseProfile="tiny" height="128" version="1.2" viewBox="0,0,128,128" width="128" xmlns="http://www.w3.org/2000/svg" xmlns:ev="http://www.w3.org/2001/xml-events" xmlns:xlink="http://www.w3.org/1999/xlink"><defs /><polyline fill="none" points="55.539,52.0678 50.7661,49.0305 42.522,49.4644 34.278,56.8407 23.4305,76.8 18.2237,93.2881 17.7898,105.4373 25.1661,113.6814 39.4847,118.4542 70.7254,119.322 92.4203,112.3797 95.4576,109.3424 97.1932,102.8339 91.5525,88.5153 80.2712,72.0271 68.9898,51.6339 63.3492,47.2949 61.6136,47.2949" stroke="#00007f" stroke-width="2" /><polyline fill="none" points="64.2169,53.8034 84.6102,38.1831 93.2881,26.0339 91.5525,36.0136 81.5729,59.878" stroke="#004cff" stroke-width="2" /><polyline fill="none" points="35.1458,48.1627 33.4102,41.2203 22.1288,22.9966 9.5458,8.678 8.678,11.7153 9.9797,26.9017 16.0542,45.1254 22.1288,59.0102 26.9017,61.6136 30.3729,86.3458" stroke="#29ffcd" stroke-width="2" /><polyline fill="none" points="47.2949,84.1763 55.9729,97.1932 58.5763,84.6102 60.7458,79.8373 52.9356,82.0068 47.2949,80.7051" stroke="#cdff29" stroke-width="2" /><polyline fill="none" points="56.4068,95.4576 58.1424,103.2678 60.7458,107.6068 65.0847,109.3424 67.6881,108.0407 68.122,103.2678" stroke="#ff6700" stroke-width="2" /><polyline fill="none" points="61.6136,103.7017 59.878,111.078 55.9729,114.9831 48.1627,106.739 39.4847,91.9864" stroke="#7f0000" stroke-width="2" /></svg>