<?xml version="1.0" encoding="utf-8" ?>
<svg baseProfile="tiny" height="128" version="1.2" viewBox="0,0,128,128" width="128" xmlns="http://www.w3.org/2000/svg" xmlns:ev="http://www.w3.org/2001/xml-events" xmlns:xlink="http://www.w3.org/1999/xlink"><defs /><polyline fill="none" points="54.6712,16.0542 45.5593,46.4271 43.3898,60.7458 44.2576,68.9898 52.0678,79.4034 59.878,85.0441 71.1593,88.0814 93.722,88.5153 100.2305,87.6475 104.5695,83.7424 109.3424,76.3661 114.5492,58.1424 114.9831,40.3525 113.2475,33.4102 108.0407,26.9017 98.9288,26.0339 102.4,13.8847 101.9661,11.7153 98.4949,10.4136 90.2508,11.2814 86.7797,20.8271 79.8373,22.1288 78.1017,20.3932 79.4034,8.678 68.5559,9.9797 61.6136,8.678 55.9729,13.8847 52.5017,19.9593" stroke="#00007f" stroke-width="2" /><polyline fill="none" points="68.9898,26.0339 68.9898,26.0339" stroke="#0000fe" stroke-width="2" /><polyline fill="none" points="60.7458,45.9932 61.6136,38.6169 67.2542,29.0712 70.2915,29.5051 75.0644,33.4102 76.8,36.4475 77.6678,41.2203 72.461,44.2576 62.9153,42.0881" stroke="#0060ff" stroke-width="2" /><polyline fill="none" points="91.9864,37.3153 89.8169,44.2576 89.8169,51.6339 92.4203,53.8034 97.1932,54.6712 103.2678,54.2373 105.4373,51.2 105.4373,42.522 102.8339,39.4847 98.4949,37.3153 89.8169,37.3153" stroke="#00d4ff" stroke-width="2" /><polyline fill="none" points="91.9864,60.7458 100.6644,60.3119" stroke="#4cffaa" stroke-width="2" /><polyline fill="none" points="91.9864,66.3864 113.2475,78.9695" stroke="#aaff4c" stroke-width="2" /><polyline fill="none" points="85.0441,71.1593 98.4949,84.1763 119.322,100.6644" stroke="#ffe500" stroke-width="2" /><polyline fill="none" points="66.3864,71.1593 49.8983,73.3288 18.2237,81.139" stroke="#ff7a00" stroke-width="2" /><polyline fill="none" points="57.2746,60.7458 19.5254,59.878 8.678,60.7458" stroke="#fe1200" stroke-width="2" /><polyline fill="none" points="54.2373,52.5017 43.8237,48.1627 27.7695,36.0136" stroke="#7f0000" stroke-width="2" /></svg>