<?xml version="1.0" encoding="utf-8" ?>
<svg baseProfile="tiny" height="128" version="1.2" viewBox="0,0,128,128" width="128" xmlns="http://www.w3.org/2000/svg" xmlns:ev="http://www.w3.org/2001/xml-events" xmlns:xlink="http://www.w3.org/1999/xlink"><defs /><polyline fill="none" points="12.1492,48.5966 13.8847,35.5797 20.3932,8.678 30.3729,28.2034 37.7492,34.7119 44.2576,38.6169" stroke="#00007f" stroke-width="2" /><polyline fill="none" points="14.3186,53.8034 23.8644,49.0305 49.8983,42.522 79.8373,41.6542 96.3254,44.2576 109.7763,50.3322 114.9831,56.4068 118.8881,71.5932 118.0203,81.5729 112.8136,85.9119 96.7593,92.4203 87.2136,93.2881 52.9356,94.1559 42.9559,92.4203 34.278,88.9492 26.4678,84.1763 21.6949,78.9695 18.6576,69.8576 19.5254,49.4644 23.8644,45.5593" stroke="#0000fe" stroke-width="2" /><polyline fill="none" points="82.8746,39.9186 85.0441,33.8441 98.4949,16.0542 103.7017,36.4475 109.7763,46.4271 115.4169,50.7661" stroke="#0060ff" stroke-width="2" /><polyline fill="none" points="52.5017,71.1593 81.139,68.9898 82.4407,73.3288 77.6678,83.3085 73.7627,84.6102 66.3864,83.7424 55.9729,78.1017 50.7661,72.0271" stroke="#00d4ff" stroke-width="2" /><polyline fill="none" points="46.861,71.5932 8.678,71.5932" stroke="#4cffaa" stroke-width="2" /><polyline fill="none" points="49.0305,80.7051 35.5797,79.8373 16.922,89.3831" stroke="#aaff4c" stroke-width="2" /><polyline fill="none" points="56.8407,92.4203 43.8237,92.8542 34.7119,100.2305" stroke="#ffe500" stroke-width="2" /><polyline fill="none" points="78.5356,67.2542 119.322,58.1424" stroke="#ff7a00" stroke-width="2" /><polyline fill="none" points="82.4407,81.5729 91.1186,81.139 110.2102,84.6102" stroke="#fe1200" stroke-width="2" /><polyline fill="none" points="80.7051,91.1186 92.4203,95.8915 108.0407,105.4373" stroke="#7f0000" stroke-width="2" /></svg>