<?xml version="1.0" encoding="utf-8" ?>
<svg baseProfile="tiny" height="128" version="1.2" viewBox="0,0,128,128" width="128" xmlns="http://www.w3.org/2000/svg" xmlns:ev="http://www.w3.org/2001/xml-events" xmlns:xlink="http://www.w3.org/1999/xlink"><defs /><polyline fill="none" points="35.8225,40.1911 39.3174,39.7543 36.6962,41.9386 35.8225,39.3174" stroke="#00007f" stroke-width="2" /><polyline fill="none" points="35.8225,39.3174 8.7372,39.7543" stroke="#0000bf" stroke-width="2" /><polyline fill="none" points="34.0751,39.7543 27.5222,44.9966" stroke="#0000fe" stroke-width="2" /><polyline fill="none" points="35.8225,42.3754 23.1536,44.9966" stroke="#0028ff" stroke-width="2" /><polyline fill="none" points="38.4437,40.628 44.5597,42.3754 54.6075,42.3754" stroke="#0060ff" stroke-width="2" /><polyline fill="none" points="38.4437,40.1911 57.6655,38.0068" stroke="#009cff" stroke-width="2" /><polyline fill="none" points="38.8805,39.3174 42.3754,37.57 54.6075,35.3857" stroke="#00d4ff" stroke-width="2" /><polyline fill="none" points="16.1638,24.4642 16.1638,14.4164 17.9113,10.9215 20.9693,8.7372 23.1536,15.727 26.2116,18.3481 38.8805,18.785 42.8123,17.0375 55.4812,15.2901 55.9181,20.9693 62.0341,22.7167 66.8396,30.5802 67.7133,43.2491 62.471,49.3652 55.9181,50.6758 28.3959,51.5495 24.4642,50.2389 20.0956,45.4334 18.3481,37.57 19.2218,25.7747 16.1638,25.3379" stroke="#1fffd7" stroke-width="2" /><polyline fill="none" points="25.7747,28.3959 30.5802,30.1433 27.5222,29.7065 26.6485,27.959" stroke="#4cffaa" stroke-width="2" /><polyline fill="none" points="43.2491,27.959 41.5017,28.8328 42.8123,29.2696 45.4334,28.3959 42.3754,30.1433" stroke="#7cff79" stroke-width="2" /><polyline fill="none" points="75.5768,31.4539 77.3242,24.901 79.9454,28.8328 82.5666,25.7747 83.0034,31.0171" stroke="#aaff4c" stroke-width="2" /><polyline fill="none" points="91.3038,25.7747 87.8089,25.7747 86.9352,28.8328 94.3618,29.2696" stroke="#d7ff1f" stroke-width="2" /><polyline fill="none" points="84.7509,28.8328 86.4983,28.3959" stroke="#ffe500" stroke-width="2" /><polyline fill="none" points="86.4983,28.3959 90.43,27.5222" stroke="#ffb100" stroke-width="2" /><polyline fill="none" points="100.041,25.3379 96.1092,26.6485 99.1672,29.2696 101.3515,28.3959 101.7884,26.6485 98.7304,24.901" stroke="#ff7a00" stroke-width="2" /><polyline fill="none" points="104.4096,24.4642 105.2833,28.8328 107.9044,26.2116 112.273,30.5802 114.4573,27.959 114.8942,24.4642" stroke="#ff4600" stroke-width="2" /><polyline fill="none" points="116.2048,18.3481 118.3891,22.7167 118.8259,30.1433" stroke="#fe1200" stroke-width="2" /><polyline fill="none" points="119.2628,34.9488 119.2628,34.9488" stroke="#bf0000" stroke-width="2" /><polyline fill="none" points="27.5222,51.1126 26.2116,72.5188 27.5222,80.8191 32.3276,85.1877 39.3174,83.4403 41.5017,98.7304 43.2491,96.9829 43.686,79.0717 48.9283,79.5085 49.802,96.9829 51.5495,91.7406 52.4232,76.8874 62.9078,80.8191 65.529,94.7986 68.1502,100.4778 69.0239,80.3823 79.0717,84.314" stroke="#7f0000" stroke-width="2" /></svg>