<?xml version="1.0" encoding="utf-8" ?>
<svg baseProfile="tiny" height="128" version="1.2" viewBox="0,0,128,128" width="128" xmlns="http://www.w3.org/2000/svg" xmlns:ev="http://www.w3.org/2001/xml-events" xmlns:xlink="http://www.w3.org/1999/xlink"><defs /><polyline fill="none" points="33.5238,11.3197 31.3469,16.1088 31.3469,34.3946 32.6531,21.3333" stroke="#00007f" stroke-width="2" /><polyline fill="none" points="33.0884,8.7075 43.9728,26.1224 46.1497,34.8299" stroke="#0000de" stroke-width="2" /><polyline fill="none" points="46.1497,34.8299 56.5986,28.2993 63.5646,26.5578 70.966,30.0408 75.3197,36.5714" stroke="#0028ff" stroke-width="2" /><polyline fill="none" points="75.3197,36.5714 89.2517,11.3197 96.6531,30.4762 96.6531,35.7007" stroke="#0080ff" stroke-width="2" /><polyline fill="none" points="94.4762,35.2653 96.2177,35.2653 104.9252,40.9252 112.3265,48.3265 118.8571,64.8707 119.2925,77.932 113.1973,86.2041 97.9592,96.6531 78.3673,98.8299 54.4218,97.9592 42.6667,94.4762 28.7347,84.4626 9.5782,60.9524 8.7075,55.2925 13.0612,48.3265 21.3333,41.3605 31.3469,37.4422 34.8299,30.0408" stroke="#00d4ff" stroke-width="2" /><polyline fill="none" points="40.4898,50.068 40.4898,55.2925 41.3605,56.5986 44.4082,56.5986 44.8435,51.8095 37.4422,50.068" stroke="#36ffc0" stroke-width="2" /><polyline fill="none" points="75.7551,52.2449 75.7551,57.034 77.4966,58.3401 80.1088,56.5986 80.5442,53.551 68.3537,51.3741" stroke="#7cff79" stroke-width="2" /><polyline fill="none" points="45.2789,70.966 45.2789,73.1429 50.5034,80.5442 52.6803,80.9796 53.9864,75.7551 56.1633,74.449 62.2585,80.5442 67.483,80.9796 70.0952,78.3673 70.0952,74.449 65.3061,70.0952" stroke="#c0ff36" stroke-width="2" /><polyline fill="none" points="65.7415,69.6599 89.6871,68.3537" stroke="#ffe500" stroke-width="2" /><polyline fill="none" points="74.8844,74.8844 85.3333,74.8844" stroke="#ff9400" stroke-width="2" /><polyline fill="none" points="84.4626,79.6735 104.0544,83.5918 105.3605,84.4626 102.3129,84.4626" stroke="#ff4600" stroke-width="2" /><polyline fill="none" points="37.0068,74.449 26.9932,80.5442" stroke="#de0000" stroke-width="2" /><polyline fill="none" points="38.7483,80.1088 33.9592,85.3333" stroke="#7f0000" stroke-width="2" /></svg>