<?xml version="1.0" encoding="utf-8" ?>
<svg baseProfile="tiny" height="128" version="1.2" viewBox="0,0,128,128" width="128" xmlns="http://www.w3.org/2000/svg" xmlns:ev="http://www.w3.org/2001/xml-events" xmlns:xlink="http://www.w3.org/1999/xlink"><defs /><polyline fill="none" points="31.7823,54.4218 41.3605,28.7347 43.5374,52.2449 57.4694,39.1837 59.6463,34.3946 60.0816,44.4082 66.1769,65.7415 67.9184,70.966 75.7551,77.0612 77.0612,86.2041 73.5782,100.5714 67.0476,106.6667 50.9388,110.1497 40.4898,107.9728 35.7007,104.0544 30.0408,96.6531 26.1224,84.0272 26.1224,68.3537 27.8639,62.6939 30.4762,60.517" stroke="#00007f" stroke-width="2" /><polyline fill="none" points="29.1701,58.7755 31.7823,52.6803" stroke="#0000fe" stroke-width="2" /><polyline fill="none" points="40.4898,59.6463 37.4422,67.9184 39.1837,70.0952 40.4898,69.2245 40.9252,64.0 39.619,61.8231" stroke="#0060ff" stroke-width="2" /><polyline fill="none" points="53.1156,64.4354 50.9388,65.3061 51.8095,69.6599 53.551,70.0952 55.7279,68.7891 56.1633,64.4354 53.551,64.4354" stroke="#00d4ff" stroke-width="2" /><polyline fill="none" points="45.2789,78.8027 45.2789,80.9796 47.8912,80.5442 48.3265,77.4966 46.585,77.932 44.8435,88.381 40.4898,88.8163 37.8776,85.3333" stroke="#4cffaa" stroke-width="2" /><polyline fill="none" points="45.2789,77.932 44.8435,92.2993 51.8095,92.7347 54.4218,89.6871" stroke="#aaff4c" stroke-width="2" /><polyline fill="none" points="41.7959,53.551 41.7959,8.7075 34.8299,34.8299 31.3469,61.3878" stroke="#ffe500" stroke-width="2" /><polyline fill="none" points="43.5374,49.6327 64.8707,14.8027 65.3061,58.7755" stroke="#ff7a00" stroke-width="2" /><polyline fill="none" points="32.2177,61.3878 30.0408,59.2109 23.5102,56.5986 16.5442,58.3401 13.0612,62.6939 8.7075,76.6259 8.7075,90.5578 17.8503,104.0544 34.3946,114.068 52.2449,118.8571 74.449,119.2925 81.415,114.9388 85.3333,108.4082 89.6871,91.4286 88.8163,68.7891 86.2041,64.8707 80.9796,61.8231 67.9184,61.8231 59.2109,67.483" stroke="#fe1200" stroke-width="2" /><polyline fill="none" points="32.2177,79.2381 32.2177,92.2993 37.4422,93.6054 43.102,93.1701 46.1497,89.2517 47.4558,82.2857 45.2789,93.6054 45.7143,102.3129 58.3401,101.4422 61.8231,94.4762 61.3878,87.0748" stroke="#7f0000" stroke-width="2" /></svg>