<?xml version="1.0" encoding="utf-8" ?>
<svg baseProfile="tiny" height="128" version="1.2" viewBox="0,0,128,128" width="128" xmlns="http://www.w3.org/2000/svg" xmlns:ev="http://www.w3.org/2001/xml-events" xmlns:xlink="http://www.w3.org/1999/xlink"><defs /><polyline fill="none" points="39.0508,43.3898 33.4102,44.6915 21.6949,50.7661 15.1864,58.5763 8.678,72.8949 8.678,83.7424 12.1492,88.9492 29.5051,108.4746 43.3898,118.0203 50.7661,119.322 62.9153,118.0203 88.9492,98.4949 95.4576,91.1186 97.6271,78.9695 97.6271,65.0847 90.2508,53.3695 80.2712,45.5593 47.7288,44.2576" stroke="#00007f" stroke-width="2" /><polyline fill="none" points="30.3729,42.522 24.7322,43.3898 20.3932,37.7492 19.5254,32.5424 19.5254,8.678 21.6949,16.4881 31.2407,29.0712 36.8814,34.7119 45.5593,39.9186" stroke="#0010ff" stroke-width="2" /><polyline fill="none" points="80.2712,36.8814 86.7797,27.3356 105.0034,14.3186 107.1729,22.1288 104.1356,48.5966" stroke="#00a4ff" stroke-width="2" /><polyline fill="none" points="46.861,59.878 46.861,59.878" stroke="#3fffb7" stroke-width="2" /><polyline fill="none" points="80.2712,60.7458 80.2712,60.7458" stroke="#b7ff3f" stroke-width="2" /><polyline fill="none" points="47.7288,69.4237 47.7288,74.6305 41.2203,71.5932" stroke="#ffb900" stroke-width="2" /><polyline fill="none" points="78.9695,69.4237 72.0271,69.4237 66.3864,71.5932 71.5932,74.6305 76.8,74.6305 77.2339,73.7627" stroke="#ff3000" stroke-width="2" /><polyline fill="none" points="51.2,88.9492 56.4068,94.5898 65.0847,95.4576" stroke="#7f0000" stroke-width="2" /></svg>