<?xml version="1.0" encoding="utf-8" ?>
<svg baseProfile="tiny" height="128" version="1.2" viewBox="0,0,128,128" width="128" xmlns="http://www.w3.org/2000/svg" xmlns:ev="http://www.w3.org/2001/xml-events" xmlns:xlink="http://www.w3.org/1999/xlink"><defs /><polyline fill="none" points="37.3153,40.7864 39.9186,39.4847 75.4983,39.0508 80.7051,41.6542 86.3458,47.2949 88.5153,52.0678 88.5153,57.7085 83.3085,71.1593 80.2712,76.3661 77.6678,78.1017 65.0847,78.1017 50.7661,72.461 43.3898,65.9525 39.4847,56.4068 38.1831,49.4644 39.0508,30.8068" stroke="#00007f" stroke-width="2" /><polyline fill="none" points="80.2712,55.1051 81.5729,50.7661 88.5153,44.2576 94.5898,40.7864 98.4949,40.3525 103.2678,45.5593 103.7017,53.3695 102.4,55.539 96.7593,58.5763 91.5525,60.3119 85.9119,60.3119 84.1763,55.539 87.6475,51.6339" stroke="#0000c8" stroke-width="2" /><polyline fill="none" points="42.0881,49.8983 32.5424,46.4271 10.4136,44.2576 8.678,42.522 9.1119,39.9186" stroke="#0000ff" stroke-width="2" /><polyline fill="none" points="95.8915,55.1051 100.6644,59.4441" stroke="#0040ff" stroke-width="2" /><polyline fill="none" points="95.0237,59.878 101.5322,66.3864" stroke="#0080ff" stroke-width="2" /><polyline fill="none" points="89.8169,57.7085 94.5898,64.6508 95.8915,70.2915" stroke="#00c0ff" stroke-width="2" /><polyline fill="none" points="90.6847,41.6542 88.9492,34.278 85.9119,29.5051 86.7797,28.2034" stroke="#15ffe1" stroke-width="2" /><polyline fill="none" points="86.7797,42.522 84.1763,39.0508 76.8,35.5797" stroke="#49ffad" stroke-width="2" /><polyline fill="none" points="96.3254,39.4847 98.061,34.278" stroke="#7cff79" stroke-width="2" /><polyline fill="none" points="98.9288,48.1627 100.2305,51.2 98.4949,51.2" stroke="#b0ff46" stroke-width="2" /><polyline fill="none" points="61.6136,78.9695 59.4441,79.4034 56.4068,94.5898 56.4068,104.5695 59.0102,110.6441" stroke="#e4ff12" stroke-width="2" /><polyline fill="none" points="64.2169,84.1763 65.5186,103.2678 68.122,112.8136" stroke="#ffcf00" stroke-width="2" /><polyline fill="none" points="81.139,79.8373 79.8373,81.5729 78.5356,86.3458 79.4034,95.8915 81.139,101.5322 87.6475,113.2475" stroke="#ff9400" stroke-width="2" /><polyline fill="none" points="59.0102,10.4136 57.2746,8.678 52.5017,8.678 42.0881,14.3186 37.7492,22.5627 37.3153,32.1085 42.0881,36.8814 48.5966,37.7492 57.2746,34.7119 63.7831,30.8068 65.9525,28.2034" stroke="#ff5900" stroke-width="2" /><polyline fill="none" points="87.6475,20.8271 63.3492,20.3932 63.7831,22.5627 69.4237,25.6 77.2339,26.9017 79.4034,26.4678 82.0068,21.6949 82.4407,24.7322 87.2136,32.9763 91.5525,36.4475 95.8915,37.7492" stroke="#ff1d00" stroke-width="2" /><polyline fill="none" points="103.2678,12.1492 107.6068,29.0712" stroke="#c30000" stroke-width="2" /><polyline fill="none" points="99.3627,22.5627 119.322,23.4305" stroke="#7f0000" stroke-width="2" /></svg>