<?xml version="1.0" encoding="utf-8" ?>
<svg baseProfile="tiny" height="128" version="1.2" viewBox="0,0,128,128" width="128" xmlns="http://www.w3.org/2000/svg" xmlns:ev="http://www.w3.org/2001/xml-events" xmlns:xlink="http://www.w3.org/1999/xlink"><defs /><polyline fill="none" points="12.5831,78.5356 8.678,44.6915 8.678,29.0712 11.2814,16.4881 15.1864,10.8475 18.6576,8.678 20.3932,9.1119 30.3729,21.261 38.1831,38.6169 75.9322,38.6169 76.3661,24.2983 81.139,15.6203 87.2136,11.2814 91.9864,13.0169 95.4576,18.2237 98.061,22.9966 100.6644,35.5797 101.0983,51.2 104.1356,66.3864 104.1356,93.2881 100.6644,101.5322 92.4203,109.3424 88.5153,111.078 68.9898,118.0203 52.9356,119.322 31.2407,114.5492 22.5627,111.078 18.6576,105.4373 17.3559,93.2881 11.2814,70.2915" stroke="#00007f" stroke-width="2" /><polyline fill="none" points="40.7864,59.0102 33.8441,55.1051 28.2034,55.1051 25.1661,59.878 23.8644,66.3864 26.0339,70.2915 28.6373,72.0271 36.0136,72.8949 39.0508,71.1593 40.3525,65.9525 37.3153,57.7085" stroke="#0000fe" stroke-width="2" /><polyline fill="none" points="31.6746,58.5763 32.9763,68.122" stroke="#0060ff" stroke-width="2" /><polyline fill="none" points="92.8542,62.0475 88.0814,57.7085 81.5729,56.4068 76.3661,59.4441 72.8949,64.6508 73.7627,68.122 77.2339,71.1593 87.6475,70.7254 90.2508,68.5559 91.1186,64.6508 91.1186,62.4814 89.8169,60.7458" stroke="#00d4ff" stroke-width="2" /><polyline fill="none" points="81.5729,61.1797 82.8746,66.3864" stroke="#4cffaa" stroke-width="2" /><polyline fill="none" points="54.6712,76.8 52.0678,83.3085 52.9356,86.7797 62.0475,87.6475 63.3492,85.9119 63.3492,81.5729 61.6136,78.1017" stroke="#aaff4c" stroke-width="2" /><polyline fill="none" points="56.8407,84.6102 56.8407,85.0441" stroke="#ffe500" stroke-width="2" /><polyline fill="none" points="58.5763,85.478 58.5763,85.478" stroke="#ff7a00" stroke-width="2" /><polyline fill="none" points="59.878,84.6102 59.878,84.6102" stroke="#fe1200" stroke-width="2" /><polyline fill="none" points="56.8407,86.7797 55.539,99.3627 29.939,99.7966 58.5763,101.0983 68.5559,100.2305 85.478,92.8542 87.2136,86.7797" stroke="#7f0000" stroke-width="2" /></svg>