<?xml version="1.0" encoding="utf-8" ?>
<svg baseProfile="tiny" height="128" version="1.2" viewBox="0,0,128,128" width="128" xmlns="http://www.w3.org/2000/svg" xmlns:ev="http://www.w3.org/2001/xml-events" xmlns:xlink="http://www.w3.org/1999/xlink"><defs /><polyline fill="none" points="85.9119,75.9322 72.8949,78.5356 42.522,78.5356 19.0915,72.0271 10.8475,66.8203 8.678,53.8034 10.4136,49.0305 19.9593,41.6542 35.1458,37.3153 49.0305,36.0136 105.4373,36.0136 109.3424,36.4475 115.4169,39.9186 119.322,48.1627 119.322,59.0102 117.1525,62.0475 109.7763,69.8576 104.5695,73.3288 89.3831,78.5356 78.9695,78.9695" stroke="#00007f" stroke-width="2" /><polyline fill="none" points="75.9322,62.9153 70.7254,62.4814 68.5559,65.0847 69.8576,59.4441 83.3085,65.9525 74.1966,65.9525" stroke="#0028ff" stroke-width="2" /><polyline fill="none" points="73.3288,65.9525 72.8949,74.6305 74.1966,77.2339 83.7424,71.1593" stroke="#00d4ff" stroke-width="2" /><polyline fill="none" points="12.5831,37.7492 11.2814,9.9797 13.8847,8.678 19.5254,14.3186 35.5797,36.8814 36.8814,36.4475" stroke="#7cff79" stroke-width="2" /><polyline fill="none" points="85.9119,38.1831 93.2881,28.2034 101.5322,12.1492 101.5322,31.6746 103.2678,40.3525 101.0983,42.522" stroke="#ffe500" stroke-width="2" /><polyline fill="none" points="45.9932,46.861 47.2949,47.2949" stroke="#ff4600" stroke-width="2" /><polyline fill="none" points="91.9864,53.8034 93.2881,61.1797" stroke="#7f0000" stroke-width="2" /></svg>