<?xml version="1.0" encoding="utf-8" ?>
<svg baseProfile="tiny" height="128" version="1.2" viewBox="0,0,128,128" width="128" xmlns="http://www.w3.org/2000/svg" xmlns:ev="http://www.w3.org/2001/xml-events" xmlns:xlink="http://www.w3.org/1999/xlink"><defs /><polyline fill="none" points="52.5017,20.3932 47.2949,23.8644 42.522,32.5424 39.9186,42.0881 39.4847,60.3119 44.6915,69.4237 52.5017,75.0644 65.9525,75.9322 69.8576,74.6305 73.7627,71.5932 77.6678,63.7831 77.6678,48.1627 72.8949,38.1831 64.2169,23.8644 58.5763,20.3932 51.6339,20.8271" stroke="#00007f" stroke-width="2" /><polyline fill="none" points="36.8814,36.8814 36.8814,18.6576 45.5593,22.5627" stroke="#0000d5" stroke-width="2" /><polyline fill="none" points="67.2542,22.9966 68.5559,18.6576 77.6678,9.1119 80.2712,8.678 79.8373,19.5254 76.8,33.8441" stroke="#001cff" stroke-width="2" /><polyline fill="none" points="47.2949,40.7864 47.2949,40.7864" stroke="#006cff" stroke-width="2" /><polyline fill="none" points="50.3322,40.3525 54.2373,40.7864" stroke="#00b8ff" stroke-width="2" /><polyline fill="none" points="60.3119,39.4847 63.3492,39.0508" stroke="#1cffda" stroke-width="2" /><polyline fill="none" points="69.4237,48.5966 77.6678,45.5593 93.722,43.3898" stroke="#5cff9a" stroke-width="2" /><polyline fill="none" points="69.8576,55.539 93.722,52.0678" stroke="#9aff5c" stroke-width="2" /><polyline fill="none" points="71.1593,62.0475 102.8339,62.0475" stroke="#daff1c" stroke-width="2" /><polyline fill="none" points="55.539,52.0678 37.7492,51.6339 8.678,58.5763" stroke="#ffcb00" stroke-width="2" /><polyline fill="none" points="59.0102,55.1051 51.2,55.9729 23.4305,63.7831" stroke="#ff8500" stroke-width="2" /><polyline fill="none" points="50.3322,62.9153 8.678,77.2339" stroke="#ff3b00" stroke-width="2" /><polyline fill="none" points="52.0678,67.6881 66.3864,68.5559" stroke="#d50000" stroke-width="2" /><polyline fill="none" points="62.4814,75.4983 59.4441,97.6271 59.4441,114.1153 61.6136,117.5864 65.0847,119.322 71.5932,119.322 77.6678,117.5864 85.478,107.6068 87.6475,101.5322 87.2136,88.9492 82.8746,83.3085 71.1593,77.2339 65.5186,75.9322 54.2373,77.2339" stroke="#7f0000" stroke-width="2" /></svg>