<?xml version="1.0" encoding="utf-8" ?>
<svg baseProfile="tiny" height="128" version="1.2" viewBox="0,0,128,128" width="128" xmlns="http://www.w3.org/2000/svg" xmlns:ev="http://www.w3.org/2001/xml-events" xmlns:xlink="http://www.w3.org/1999/xlink"><defs /><polyline fill="none" points="59.878,35.1458 49.4644,32.5424 42.522,32.5424 16.922,56.8407 9.9797,68.5559 8.678,73.7627 8.678,79.8373 11.2814,89.3831 17.7898,97.1932 34.278,105.8712 57.7085,111.9458 110.2102,109.3424 117.1525,107.6068 119.322,103.2678 119.322,70.7254 118.0203,60.7458 113.2475,49.8983 108.4746,44.6915 97.6271,36.8814 70.7254,34.278 55.539,35.1458" stroke="#00007f" stroke-width="2" /><polyline fill="none" points="36.0136,38.6169 36.4475,23.8644 39.4847,12.1492 42.0881,8.678 47.7288,15.1864 55.539,38.1831 58.5763,44.6915 59.4441,42.9559" stroke="#0000f1" stroke-width="2" /><polyline fill="none" points="85.0441,32.5424 89.8169,16.0542 93.2881,11.7153 94.5898,11.7153 94.5898,39.4847" stroke="#004cff" stroke-width="2" /><polyline fill="none" points="65.0847,76.8 66.3864,71.5932 65.0847,69.4237 62.9153,69.4237 59.4441,75.9322 61.1797,84.1763 63.7831,87.6475 70.7254,89.8169 72.8949,88.0814 73.7627,84.1763 72.0271,74.1966 68.122,70.2915 65.9525,70.2915" stroke="#00b0ff" stroke-width="2" /><polyline fill="none" points="72.8949,74.6305 98.061,68.9898" stroke="#29ffcd" stroke-width="2" /><polyline fill="none" points="78.1017,83.3085 99.3627,86.7797 98.4949,87.6475" stroke="#7cff79" stroke-width="2" /><polyline fill="none" points="67.6881,93.2881 73.3288,93.722 94.1559,100.2305" stroke="#cdff29" stroke-width="2" /><polyline fill="none" points="56.8407,74.1966 16.0542,73.7627" stroke="#ffc400" stroke-width="2" /><polyline fill="none" points="57.7085,82.4407 37.3153,85.9119" stroke="#ff6700" stroke-width="2" /><polyline fill="none" points="57.7085,88.5153 43.8237,99.7966" stroke="#f10700" stroke-width="2" /><polyline fill="none" points="78.9695,52.0678 78.5356,45.9932 80.2712,44.6915 90.2508,42.9559 95.8915,46.861 96.3254,54.6712 94.5898,57.7085 90.2508,60.3119 82.4407,59.878 79.4034,52.5017" stroke="#7f0000" stroke-width="2" /></svg>