<?xml version="1.0" encoding="utf-8" ?>
<svg baseProfile="tiny" height="128" version="1.2" viewBox="0,0,128,128" width="128" xmlns="http://www.w3.org/2000/svg" xmlns:ev="http://www.w3.org/2001/xml-events" xmlns:xlink="http://www.w3.org/1999/xlink"><defs /><polyline fill="none" points="16.4881,66.3864 8.678,19.9593 8.678,12.1492 13.4508,20.8271 35.5797,51.2 52.0678,45.5593 69.4237,43.3898 76.8,44.6915 83.7424,49.4644 83.7424,40.3525 91.9864,22.5627 98.4949,11.7153 104.1356,8.678 102.4,13.8847 103.2678,23.4305 108.0407,39.4847 108.4746,47.2949 107.6068,62.0475 106.3051,59.878 105.0034,51.6339 108.0407,75.4983 108.4746,98.4949 107.6068,102.4 104.5695,104.5695 76.8,115.8508 61.6136,119.322 43.3898,117.1525 24.7322,105.8712 22.1288,102.4 16.0542,75.9322 16.922,59.878" stroke="#00007f" stroke-width="2" /><polyline fill="none" points="56.8407,76.3661 69.8576,78.9695 62.4814,88.5153 55.1051,73.3288" stroke="#00d4ff" stroke-width="2" /><polyline fill="none" points="50.3322,64.2169 48.5966,69.4237" stroke="#ffe500" stroke-width="2" /><polyline fill="none" points="77.2339,61.1797 80.7051,72.461 79.8373,73.3288" stroke="#7f0000" stroke-width="2" /></svg>