<?xml version="1.0" encoding="utf-8" ?>
<svg baseProfile="tiny" height="128" version="1.2" viewBox="0,0,128,128" width="128" xmlns="http://www.w3.org/2000/svg" xmlns:ev="http://www.w3.org/2001/xml-events" xmlns:xlink="http://www.w3.org/1999/xlink"><defs /><polyline fill="none" points="76.8,87.2136 73.3288,84.6102 65.5186,84.6102 61.6136,87.6475 61.6136,97.1932 64.6508,99.7966 73.7627,99.3627 77.2339,95.0237 78.9695,87.2136 78.9695,84.6102 77.2339,82.0068 74.1966,82.0068" stroke="#00007f" stroke-width="2" /><polyline fill="none" points="51.2,79.8373 34.278,69.4237 11.2814,60.3119" stroke="#0010ff" stroke-width="2" /><polyline fill="none" points="60.3119,93.722 19.0915,93.2881" stroke="#00a4ff" stroke-width="2" /><polyline fill="none" points="78.5356,85.0441 91.1186,75.4983 117.1525,61.6136" stroke="#3fffb7" stroke-width="2" /><polyline fill="none" points="84.1763,90.2508 95.0237,90.6847 108.0407,93.2881 119.322,93.2881" stroke="#b7ff3f" stroke-width="2" /><polyline fill="none" points="45.9932,52.0678 49.4644,44.6915 52.9356,42.9559 65.5186,42.522 77.2339,45.9932 76.8,36.0136 73.3288,29.5051 63.3492,22.1288 54.6712,21.6949 50.3322,24.2983 48.1627,28.2034 45.9932,50.7661" stroke="#ffb900" stroke-width="2" /><polyline fill="none" points="90.2508,36.4475 91.1186,30.8068 94.1559,26.4678 102.4,20.3932 109.7763,19.9593 113.2475,21.261 118.8881,29.939 116.2847,20.3932 111.9458,13.4508 107.6068,10.4136 102.8339,8.678 96.7593,8.678 94.1559,14.3186 93.2881,36.4475" stroke="#ff3000" stroke-width="2" /><polyline fill="none" points="15.1864,39.0508 8.678,26.0339" stroke="#7f0000" stroke-width="2" /></svg>