<?xml version="1.0" encoding="utf-8" ?>
<svg baseProfile="tiny" height="128" version="1.2" viewBox="0,0,128,128" width="128" xmlns="http://www.w3.org/2000/svg" xmlns:ev="http://www.w3.org/2001/xml-events" xmlns:xlink="http://www.w3.org/1999/xlink"><defs /><polyline fill="none" points="58.1424,32.1085 50.3322,30.8068 42.522,38.1831 39.0508,47.7288 39.0508,58.1424 43.8237,66.3864 52.0678,75.0644 62.9153,80.7051 71.5932,80.7051 81.5729,72.0271 83.7424,67.2542 85.0441,63.3492 85.0441,44.2576 81.139,32.9763 75.0644,29.5051 64.6508,29.0712" stroke="#00007f" stroke-width="2" /><polyline fill="none" points="75.4983,25.6 87.6475,13.8847 90.6847,13.0169 92.8542,27.7695 92.8542,42.522" stroke="#0000ff" stroke-width="2" /><polyline fill="none" points="58.5763,29.939 39.4847,16.4881 23.8644,8.678 22.1288,28.2034 24.2983,42.9559" stroke="#0080ff" stroke-width="2" /><polyline fill="none" points="52.9356,46.861 31.6746,52.0678 13.8847,60.7458 8.678,65.9525" stroke="#15ffe1" stroke-width="2" /><polyline fill="none" points="42.9559,62.4814 20.8271,82.4407" stroke="#7cff79" stroke-width="2" /><polyline fill="none" points="43.3898,65.9525 44.2576,75.0644 41.6542,85.478" stroke="#e4ff12" stroke-width="2" /><polyline fill="none" points="81.139,49.4644 116.2847,48.1627 119.322,50.7661" stroke="#ff9400" stroke-width="2" /><polyline fill="none" points="88.5153,55.9729 98.061,61.6136 102.4,67.2542" stroke="#ff1d00" stroke-width="2" /><polyline fill="none" points="88.0814,65.9525 101.9661,75.4983" stroke="#7f0000" stroke-width="2" /></svg>