<?xml version="1.0" encoding="utf-8" ?>
<svg baseProfile="tiny" height="128" version="1.2" viewBox="0,0,128,128" width="128" xmlns="http://www.w3.org/2000/svg" xmlns:ev="http://www.w3.org/2001/xml-events" xmlns:xlink="http://www.w3.org/1999/xlink"><defs /><polyline fill="none" points="56.4068,36.8814 52.5017,45.9932 52.5017,49.8983 57.2746,36.8814 59.4441,49.8983 65.0847,49.0305 70.2915,37.3153 69.4237,32.1085 68.122,35.5797 67.6881,45.5593 68.5559,48.1627 71.1593,49.4644 77.2339,37.7492 77.6678,32.9763 75.9322,38.6169 76.3661,43.8237 78.1017,49.0305 81.5729,50.3322 87.6475,35.5797 84.1763,32.1085 75.0644,34.278 52.5017,34.7119 48.5966,28.6373 49.0305,24.7322 50.7661,22.1288 67.6881,17.7898 78.9695,18.2237 119.322,23.8644 118.0203,29.0712 113.6814,32.5424 98.9288,36.8814 82.8746,38.6169 67.6881,37.7492" stroke="#00007f" stroke-width="2" /><polyline fill="none" points="96.7593,36.8814 119.322,51.2 119.322,70.7254 114.1153,69.8576" stroke="#0080ff" stroke-width="2" /><polyline fill="none" points="77.6678,38.1831 82.8746,47.2949 90.6847,54.2373 101.5322,62.0475 119.322,70.7254" stroke="#7cff79" stroke-width="2" /><polyline fill="none" points="50.3322,20.8271 34.278,19.5254 29.5051,20.8271 28.2034,28.6373 28.2034,48.5966 30.8068,56.8407 32.9763,59.4441 35.5797,59.878 45.5593,57.7085 50.3322,55.1051 53.3695,51.6339 66.3864,22.1288" stroke="#ff9400" stroke-width="2" /><polyline fill="none" points="76.3661,48.5966 55.1051,34.7119 54.6712,33.4102 57.7085,32.5424 85.9119,31.2407 78.1017,37.3153 67.2542,42.522 54.2373,45.1254 36.8814,46.4271 54.6712,45.5593 95.8915,45.9932 23.4305,52.5017 47.7288,38.1831 119.322,8.678 88.0814,23.8644 59.878,32.5424 9.1119,43.8237 19.5254,35.1458 56.4068,18.6576 78.9695,13.4508 96.7593,13.0169 107.6068,17.7898 111.9458,25.6 107.6068,34.278 94.1559,45.5593 71.1593,54.6712 37.7492,61.6136 9.5458,69.4237 8.678,70.7254 10.4136,69.8576 21.6949,54.2373 39.0508,25.1661 50.7661,11.7153 65.9525,8.678 78.9695,8.678 87.2136,12.1492 93.722,19.5254 95.4576,30.3729 93.2881,42.9559 87.2136,54.2373 78.9695,62.4814 63.3492,70.2915 48.1627,70.7254 35.1458,69.4237 27.3356,64.2169 25.6,59.4441 26.9017,56.4068 33.4102,53.3695 69.4237,52.5017 61.1797,56.8407 53.8034,57.7085 49.8983,56.4068 49.8983,53.8034 54.6712,45.9932 65.5186,38.1831 81.5729,31.2407 94.1559,29.0712 104.1356,29.0712 74.1966,42.0881 56.4068,42.522 38.1831,40.7864 31.6746,36.0136 35.5797,28.2034 46.861,12.1492 62.9153,8.678 99.3627,8.678 111.9458,11.7153 119.322,18.6576 118.4542,62.9153 116.2847,70.7254 97.1932,70.7254 89.8169,66.8203 83.3085,55.9729 78.9695,40.7864 78.9695,25.6 82.4407,12.5831 85.0441,8.678 82.8746,24.7322 75.4983,40.3525 66.8203,53.8034 59.0102,59.4441 59.0102,55.9729 62.9153,47.7288 67.6881,39.9186 78.5356,33.4102 77.2339,36.8814 70.7254,42.9559 57.2746,50.3322 42.0881,54.6712 30.8068,54.6712 34.7119,50.3322 48.1627,43.3898 71.5932,37.3153 89.3831,35.1458 100.2305,35.1458 83.7424,40.7864 39.4847,45.9932 86.3458,36.8814 86.7797,40.7864 84.6102,46.861 75.9322,59.878 77.2339,49.0305 82.4407,38.6169 91.1186,27.7695 101.9661,18.6576 116.2847,12.1492 113.6814,17.7898 89.8169,50.3322 85.0441,59.4441 82.8746,56.8407 80.7051,52.0678 81.5729,39.9186 89.8169,25.6 96.7593,19.9593 91.5525,29.5051 83.7424,36.8814 62.4814,48.1627 54.2373,49.0305 53.3695,49.0305 53.8034,47.7288 57.2746,45.1254 67.2542,42.0881 91.1186,37.7492 95.0237,38.1831 85.478,45.1254 68.9898,52.9356 51.2,54.6712 43.8237,52.9356 43.3898,51.2 45.1254,46.4271 52.5017,38.6169 65.5186,30.3729 84.1763,23.8644 101.5322,22.9966 114.9831,25.6 116.7186,29.939 111.5119,37.7492 75.9322,70.7254 70.2915,70.7254 69.8576,56.4068 65.5186,41.6542 68.122,42.522 69.8576,49.0305 68.9898,53.3695 62.4814,59.0102 51.6339,62.9153 39.0508,62.9153 28.6373,59.4441 25.6,54.6712 26.0339,49.8983 28.6373,44.2576 32.9763,40.7864 40.7864,39.9186 45.1254,41.6542 50.3322,50.3322 53.3695,64.6508 74.6305,53.8034 55.539,52.9356 54.2373,49.0305" stroke="#7f0000" stroke-width="2" /></svg>