<?xml version="1.0" encoding="utf-8" ?>
<svg baseProfile="tiny" height="128" version="1.2" viewBox="0,0,128,128" width="128" xmlns="http://www.w3.org/2000/svg" xmlns:ev="http://www.w3.org/2001/xml-events" xmlns:xlink="http://www.w3.org/1999/xlink"><defs /><polyline fill="none" points="35.1458,36.4475 34.278,13.0169 36.0136,8.678 46.4271,27.7695 49.8983,22.9966 56.4068,18.2237 62.0475,16.4881 76.3661,16.0542 80.2712,16.4881 89.8169,20.3932 99.3627,28.2034 105.0034,16.922 110.6441,12.1492 111.9458,15.6203 111.9458,32.1085" stroke="#00007f" stroke-width="2" /><polyline fill="none" points="32.9763,35.1458 32.1085,44.6915 33.4102,51.2 39.9186,73.3288 44.6915,82.4407 50.7661,88.9492 58.5763,93.722 69.8576,98.061 82.8746,99.3627 91.1186,95.8915 97.1932,91.5525 102.8339,82.4407 109.7763,53.8034 109.7763,26.9017" stroke="#0000f1" stroke-width="2" /><polyline fill="none" points="68.9898,59.878 70.2915,58.5763 78.5356,57.7085 80.7051,59.878 71.5932,63.7831 68.9898,60.3119" stroke="#004cff" stroke-width="2" /><polyline fill="none" points="74.6305,64.2169 74.6305,77.2339 77.6678,78.5356 80.7051,78.1017 81.139,74.6305 79.4034,74.1966" stroke="#00b0ff" stroke-width="2" /><polyline fill="none" points="74.6305,76.3661 68.5559,76.8 65.9525,75.0644" stroke="#29ffcd" stroke-width="2" /><polyline fill="none" points="67.6881,61.1797 58.1424,56.4068 48.5966,56.8407 41.6542,59.0102 25.6,69.4237 18.2237,77.2339 8.678,90.6847" stroke="#7cff79" stroke-width="2" /><polyline fill="none" points="63.3492,62.9153 52.9356,62.9153 41.2203,68.9898 30.3729,81.139 25.6,95.8915" stroke="#cdff29" stroke-width="2" /><polyline fill="none" points="90.6847,59.0102 98.9288,59.4441 110.2102,62.9153 117.1525,67.2542 119.322,70.2915" stroke="#ffc400" stroke-width="2" /><polyline fill="none" points="82.8746,63.3492 87.2136,63.3492 111.5119,72.461" stroke="#ff6700" stroke-width="2" /><polyline fill="none" points="57.7085,45.5593 55.539,46.4271 57.7085,47.7288" stroke="#f10700" stroke-width="2" /><polyline fill="none" points="93.2881,49.4644 93.2881,49.4644" stroke="#7f0000" stroke-width="2" /></svg>