<?xml version="1.0" encoding="utf-8" ?>
<svg baseProfile="tiny" height="128" version="1.2" viewBox="0,0,128,128" width="128" xmlns="http://www.w3.org/2000/svg" xmlns:ev="http://www.w3.org/2001/xml-events" xmlns:xlink="http://www.w3.org/1999/xlink"><defs /><polyline fill="none" points="36.4475,55.1051 35.1458,57.7085 35.1458,76.8 38.6169,94.5898 42.522,103.7017 51.6339,114.9831 56.8407,118.0203 72.0271,119.322 79.8373,116.2847 94.5898,106.3051 103.2678,93.722 104.1356,86.7797 103.7017,74.6305 101.0983,68.9898 91.9864,58.1424 75.4983,45.1254 64.6508,41.6542 52.9356,41.6542 45.1254,45.1254 33.8441,53.3695 27.3356,62.0475 26.9017,65.9525" stroke="#00007f" stroke-width="2" /><polyline fill="none" points="74.6305,49.0305 73.7627,42.0881 75.0644,39.4847 95.4576,11.2814 98.061,8.678 100.2305,9.1119 99.7966,70.2915" stroke="#0010ff" stroke-width="2" /><polyline fill="none" points="41.6542,43.8237 33.8441,27.7695 22.9966,14.7525 12.5831,9.5458 9.1119,9.9797 8.678,13.0169 8.678,22.1288 32.9763,49.8983 37.7492,57.7085 40.3525,59.0102" stroke="#00a4ff" stroke-width="2" /><polyline fill="none" points="56.4068,69.4237 56.4068,69.4237" stroke="#3fffb7" stroke-width="2" /><polyline fill="none" points="52.9356,75.4983 55.1051,75.4983 55.539,72.8949 54.6712,75.4983" stroke="#b7ff3f" stroke-width="2" /><polyline fill="none" points="82.4407,73.7627 82.4407,73.7627" stroke="#ffb900" stroke-width="2" /><polyline fill="none" points="70.7254,90.2508 68.122,91.9864 68.122,93.722" stroke="#ff3000" stroke-width="2" /><polyline fill="none" points="82.4407,66.3864 83.3085,67.6881" stroke="#7f0000" stroke-width="2" /></svg>