<?xml version="1.0" encoding="utf-8" ?>
<svg baseProfile="tiny" height="128" version="1.2" viewBox="0,0,128,128" width="128" xmlns="http://www.w3.org/2000/svg" xmlns:ev="http://www.w3.org/2001/xml-events" xmlns:xlink="http://www.w3.org/1999/xlink"><defs /><polyline fill="none" points="53.8034,9.5458 35.1458,41.2203" stroke="#00007f" stroke-width="2" /><polyline fill="none" points="52.5017,8.678 53.3695,24.2983 59.4441,36.4475 64.2169,42.522 76.3661,40.3525 83.3085,31.2407 88.5153,18.6576 89.8169,19.0915 98.9288,34.278 106.3051,40.3525 108.4746,45.5593 108.9085,60.7458 106.3051,67.6881 101.5322,74.6305 85.9119,88.5153 78.9695,101.0983 73.3288,106.739 52.0678,97.1932 40.3525,77.2339 33.4102,68.9898 31.2407,62.9153 31.2407,52.9356 33.8441,44.2576 36.0136,42.0881" stroke="#0000ff" stroke-width="2" /><polyline fill="none" points="55.1051,68.5559 40.7864,69.8576 14.7525,68.5559 8.678,69.8576" stroke="#0080ff" stroke-width="2" /><polyline fill="none" points="53.3695,73.7627 38.6169,77.6678 16.4881,79.8373" stroke="#15ffe1" stroke-width="2" /><polyline fill="none" points="59.4441,78.5356 49.4644,85.478 32.1085,90.6847" stroke="#7cff79" stroke-width="2" /><polyline fill="none" points="82.4407,79.4034 88.5153,80.7051 111.078,92.4203 119.322,94.5898" stroke="#e4ff12" stroke-width="2" /><polyline fill="none" points="91.5525,75.9322 116.7186,79.4034" stroke="#ff9400" stroke-width="2" /><polyline fill="none" points="96.7593,71.1593 111.078,71.1593 118.0203,69.4237" stroke="#ff1d00" stroke-width="2" /><polyline fill="none" points="68.122,67.6881 68.122,67.6881" stroke="#7f0000" stroke-width="2" /></svg>