<?xml version="1.0" encoding="utf-8" ?>
<svg baseProfile="tiny" height="128" version="1.2" viewBox="0,0,128,128" width="128" xmlns="http://www.w3.org/2000/svg" xmlns:ev="http://www.w3.org/2001/xml-events" xmlns:xlink="http://www.w3.org/1999/xlink"><defs /><polyline fill="none" points="18.6576,52.5017 26.0339,13.0169 31.6746,28.6373 40.3525,47.7288 52.5017,42.9559 63.7831,42.9559 72.8949,46.4271 77.6678,51.2 88.0814,8.678 93.2881,40.7864 98.9288,53.3695" stroke="#00007f" stroke-width="2" /><polyline fill="none" points="18.2237,50.7661 10.8475,65.9525 9.1119,73.3288 8.678,85.478 12.1492,98.9288 16.922,108.0407 23.8644,114.9831 30.3729,118.0203 40.7864,119.322 55.539,118.8881 75.4983,114.9831 91.5525,108.0407 104.5695,99.3627 106.739,95.8915 107.6068,89.3831 107.6068,73.7627 105.8712,57.7085 102.4,53.8034 93.2881,54.2373" stroke="#0010ff" stroke-width="2" /><polyline fill="none" points="33.4102,74.1966 38.6169,71.5932 50.3322,69.4237" stroke="#00a4ff" stroke-width="2" /><polyline fill="none" points="31.6746,76.3661 40.7864,79.8373 50.3322,80.2712 57.2746,70.2915 57.2746,68.122 55.1051,66.3864" stroke="#3fffb7" stroke-width="2" /><polyline fill="none" points="68.5559,73.3288 81.5729,69.8576 97.6271,70.7254" stroke="#b7ff3f" stroke-width="2" /><polyline fill="none" points="64.2169,72.0271 68.9898,77.6678 74.6305,81.139 86.3458,82.0068 92.4203,79.4034 95.4576,74.6305 94.5898,68.5559 89.8169,65.9525" stroke="#ffb900" stroke-width="2" /><polyline fill="none" points="50.7661,88.9492 59.4441,101.5322" stroke="#ff3000" stroke-width="2" /><polyline fill="none" points="49.4644,88.9492 52.0678,88.0814 68.9898,88.9492 60.3119,103.2678" stroke="#7f0000" stroke-width="2" /></svg>