<?xml version="1.0" encoding="utf-8" ?>
<svg baseProfile="tiny" height="128" version="1.2" viewBox="0,0,128,128" width="128" xmlns="http://www.w3.org/2000/svg" xmlns:ev="http://www.w3.org/2001/xml-events" xmlns:xlink="http://www.w3.org/1999/xlink"><defs /><polyline fill="none" points="30.3729,76.3661 14.7525,57.2746 13.8847,52.5017 15.6203,45.5593 22.5627,35.5797 32.1085,28.2034 39.9186,24.7322 60.3119,21.261 73.7627,20.8271 82.0068,22.5627 92.4203,27.3356 97.6271,32.9763 100.6644,44.6915 100.2305,54.6712 98.4949,59.4441 95.4576,65.0847 84.1763,72.8949" stroke="#00007f" stroke-width="2" /><polyline fill="none" points="101.0983,42.0881 119.322,8.678 105.4373,14.3186 92.8542,22.5627" stroke="#0080ff" stroke-width="2" /><polyline fill="none" points="26.9017,37.7492 20.8271,36.8814 10.8475,22.1288 8.678,15.1864 39.4847,23.4305" stroke="#7cff79" stroke-width="2" /><polyline fill="none" points="36.8814,34.7119 34.7119,37.7492 34.7119,40.7864 37.3153,41.2203 41.6542,39.0508 42.0881,36.4475 39.0508,36.0136 32.5424,40.3525 34.278,41.6542 36.8814,40.7864 41.6542,37.3153 39.9186,36.8814 36.8814,39.0508 39.4847,38.1831 38.1831,38.1831 38.6169,39.4847" stroke="#ff9400" stroke-width="2" /><polyline fill="none" points="84.6102,37.7492 81.5729,39.4847 83.3085,39.9186 81.139,39.0508 77.6678,40.7864 74.1966,44.6915 75.9322,45.9932 81.5729,39.9186 78.9695,38.1831 81.5729,38.6169 74.6305,40.7864 75.9322,42.0881 83.7424,37.3153 80.7051,40.3525" stroke="#7f0000" stroke-width="2" /></svg>