<?xml version="1.0" encoding="utf-8" ?>
<svg baseProfile="tiny" height="128" version="1.2" viewBox="0,0,128,128" width="128" xmlns="http://www.w3.org/2000/svg" xmlns:ev="http://www.w3.org/2001/xml-events" xmlns:xlink="http://www.w3.org/1999/xlink"><defs /><polyline fill="none" points="58.1424,25.6 46.861,30.3729 37.3153,39.4847 32.5424,45.1254 25.1661,60.3119 23.4305,69.4237 23.8644,83.7424 32.1085,95.8915 40.7864,101.5322 49.8983,104.1356 69.8576,104.1356 81.5729,101.9661 94.1559,97.1932 103.2678,91.1186 105.8712,78.5356 105.0034,59.0102 95.4576,40.3525 88.0814,33.4102 76.3661,27.3356 61.1797,23.4305 52.5017,24.7322" stroke="#00007f" stroke-width="2" /><polyline fill="none" points="37.3153,34.278 35.1458,36.0136 33.4102,32.5424 35.5797,20.8271 40.7864,11.2814 45.5593,8.678 47.7288,8.678 54.2373,13.0169 63.3492,24.7322 66.8203,25.6 72.461,22.5627" stroke="#0000d5" stroke-width="2" /><polyline fill="none" points="88.9492,29.939 119.322,30.3729 119.322,35.5797 106.739,59.4441" stroke="#001cff" stroke-width="2" /><polyline fill="none" points="49.4644,49.0305 45.5593,52.5017 45.5593,54.6712 49.8983,52.9356 50.7661,49.0305" stroke="#006cff" stroke-width="2" /><polyline fill="none" points="81.139,51.6339 77.6678,57.7085 76.8,63.7831 78.9695,64.6508 79.4034,58.1424" stroke="#00b8ff" stroke-width="2" /><polyline fill="none" points="56.4068,72.0271 62.9153,74.6305 63.7831,77.2339 61.6136,79.4034 59.4441,78.1017 55.9729,70.2915" stroke="#1cffda" stroke-width="2" /><polyline fill="none" points="59.0102,74.6305 57.2746,81.139 51.6339,89.3831 45.1254,94.5898 45.1254,89.8169 46.861,86.7797" stroke="#5cff9a" stroke-width="2" /><polyline fill="none" points="56.8407,77.6678 57.7085,83.3085 60.7458,90.6847 63.7831,90.6847 68.5559,87.6475" stroke="#9aff5c" stroke-width="2" /><polyline fill="none" points="82.8746,81.5729 119.322,80.2712" stroke="#daff1c" stroke-width="2" /><polyline fill="none" points="82.4407,91.1186 103.2678,106.3051" stroke="#ffcb00" stroke-width="2" /><polyline fill="none" points="75.0644,98.4949 75.4983,104.5695 77.6678,108.9085" stroke="#ff8500" stroke-width="2" /><polyline fill="none" points="14.7525,49.0305 26.0339,65.0847 31.2407,69.4237" stroke="#ff3b00" stroke-width="2" /><polyline fill="none" points="8.678,73.7627 29.5051,76.8 29.5051,78.5356" stroke="#d50000" stroke-width="2" /><polyline fill="none" points="9.9797,90.2508 25.6,89.8169 39.9186,87.6475" stroke="#7f0000" stroke-width="2" /></svg>