<?xml version="1.0" encoding="utf-8" ?>
<svg baseProfile="tiny" height="128" version="1.2" viewBox="0,0,128,128" width="128" xmlns="http://www.w3.org/2000/svg" xmlns:ev="http://www.w3.org/2001/xml-events" xmlns:xlink="http://www.w3.org/1999/xlink"><defs /><polyline fill="none" points="82.4407,110.6441 67.2542,114.9831 45.1254,117.5864 28.6373,117.5864 23.8644,115.8508 17.3559,109.3424 15.6203,105.4373 13.4508,84.1763 9.1119,67.6881 8.678,55.1051 12.5831,50.3322 17.7898,47.7288 28.6373,44.6915 49.0305,41.6542 75.0644,41.2203 87.2136,47.7288 95.0237,55.539 107.1729,83.7424 109.7763,92.8542 109.7763,97.6271 101.0983,109.3424 89.3831,117.1525 75.0644,117.5864 64.6508,109.7763" stroke="#00007f" stroke-width="2" /><polyline fill="none" points="9.9797,48.5966 14.7525,37.7492 19.9593,9.9797 21.6949,8.678 27.7695,16.0542 32.1085,25.6 35.5797,33.4102 36.4475,41.2203" stroke="#0080ff" stroke-width="2" /><polyline fill="none" points="81.139,42.9559 89.3831,34.7119 101.5322,33.8441 108.0407,32.1085 118.4542,19.9593 119.322,23.8644 114.1153,56.4068" stroke="#7cff79" stroke-width="2" /><polyline fill="none" points="112.8136,61.6136 108.4746,68.122 115.8508,56.4068 116.7186,53.8034 113.2475,55.1051 104.5695,70.2915" stroke="#ff9400" stroke-width="2" /><polyline fill="none" points="31.6746,100.2305 48.5966,94.5898 65.0847,93.722" stroke="#7f0000" stroke-width="2" /></svg>