<?xml version="1.0" encoding="utf-8" ?>
<svg baseProfile="tiny" height="128" version="1.2" viewBox="0,0,128,128" width="128" xmlns="http://www.w3.org/2000/svg" xmlns:ev="http://www.w3.org/2001/xml-events" xmlns:xlink="http://www.w3.org/1999/xlink"><defs /><polyline fill="none" points="51.2,22.5627 44.2576,28.6373 42.0881,34.7119 42.0881,42.0881 46.4271,47.7288 51.6339,50.3322 63.3492,50.3322 71.5932,46.861 78.5356,41.2203 82.0068,35.1458 82.4407,29.5051 81.5729,26.4678 76.3661,22.9966 71.5932,21.6949 59.0102,22.1288 48.5966,26.0339" stroke="#00007f" stroke-width="2" /><polyline fill="none" points="59.0102,37.7492 58.1424,38.6169 59.4441,39.4847 61.6136,38.1831 59.878,39.0508" stroke="#0000de" stroke-width="2" /><polyline fill="none" points="75.4983,36.4475 97.1932,31.2407 119.322,28.6373" stroke="#0028ff" stroke-width="2" /><polyline fill="none" points="75.9322,44.2576 107.6068,43.3898" stroke="#0080ff" stroke-width="2" /><polyline fill="none" points="70.7254,45.5593 78.5356,45.5593 97.1932,51.6339" stroke="#00d4ff" stroke-width="2" /><polyline fill="none" points="44.6915,39.4847 37.7492,39.0508 27.3356,40.3525 17.3559,43.3898 8.678,48.1627" stroke="#36ffc0" stroke-width="2" /><polyline fill="none" points="54.6712,39.0508 42.522,43.8237 33.4102,49.8983 31.6746,53.3695" stroke="#7cff79" stroke-width="2" /><polyline fill="none" points="56.4068,45.9932 32.9763,59.4441" stroke="#c0ff36" stroke-width="2" /><polyline fill="none" points="38.1831,22.5627 39.4847,21.261 40.7864,12.5831 42.522,8.678 45.9932,13.4508 52.5017,19.0915 59.878,22.1288" stroke="#ffe500" stroke-width="2" /><polyline fill="none" points="71.5932,24.2983 82.4407,10.8475 82.0068,19.0915 84.6102,25.6" stroke="#ff9400" stroke-width="2" /><polyline fill="none" points="39.4847,19.5254 38.1831,26.9017" stroke="#ff4600" stroke-width="2" /><polyline fill="none" points="52.9356,30.8068 54.2373,30.8068" stroke="#de0000" stroke-width="2" /><polyline fill="none" points="66.3864,31.6746 66.3864,31.6746" stroke="#7f0000" stroke-width="2" /></svg>