<?xml version="1.0" encoding="utf-8" ?>
<svg baseProfile="tiny" height="128" version="1.2" viewBox="0,0,128,128" width="128" xmlns="http://www.w3.org/2000/svg" xmlns:ev="http://www.w3.org/2001/xml-events" xmlns:xlink="http://www.w3.org/1999/xlink"><defs /><polyline fill="none" points="55.2925,39.619 67.483,40.4898 77.0612,44.4082 82.7211,48.7619 90.9932,60.517 97.0884,74.0136 98.8299,80.5442 99.2653,87.5102 94.4762,100.5714 87.0748,110.585 80.1088,115.3741 67.9184,118.8571 58.7755,119.2925 49.1973,118.4218 39.1837,114.5034 25.6871,107.9728 17.8503,101.4422 14.8027,93.1701 14.3673,82.7211 16.9796,71.4014 24.381,55.7279 53.1156,35.2653" stroke="#00007f" stroke-width="2" /><polyline fill="none" points="73.5782,44.4082 77.4966,34.3946 93.6054,8.7075 94.9116,13.4966 97.5238,44.8435 97.5238,49.6327 95.3469,53.9864" stroke="#0080ff" stroke-width="2" /><polyline fill="none" points="36.5714,43.9728 23.9456,33.0884 11.3197,24.381 8.7075,59.6463" stroke="#7cff79" stroke-width="2" /><polyline fill="none" points="74.449,64.0 70.966,62.6939 64.4354,64.4354 64.4354,67.0476 66.6122,69.2245 69.2245,69.6599 70.5306,66.6122 69.6599,64.4354" stroke="#ff9400" stroke-width="2" /><polyline fill="none" points="40.9252,63.1293 32.2177,63.1293 31.7823,65.7415 37.4422,68.7891 41.7959,68.3537 44.4082,67.483 45.7143,64.8707 39.1837,63.5646" stroke="#7f0000" stroke-width="2" /></svg>