<?xml version="1.0" encoding="utf-8" ?>
<svg baseProfile="tiny" height="128" version="1.2" viewBox="0,0,128,128" width="128" xmlns="http://www.w3.org/2000/svg" xmlns:ev="http://www.w3.org/2001/xml-events" xmlns:xlink="http://www.w3.org/1999/xlink"><defs /><polyline fill="none" points="39.0508,44.6915 31.2407,37.7492 28.2034,31.6746 28.2034,24.7322 34.278,8.678 49.8983,28.2034 56.4068,33.4102" stroke="#00007f" stroke-width="2" /><polyline fill="none" points="55.539,32.9763 68.9898,27.7695 77.2339,28.6373 87.2136,33.4102 100.2305,16.0542 108.0407,10.4136 112.3797,9.9797 111.078,10.8475 109.3424,19.5254 105.4373,46.861 85.9119,55.9729 82.4407,61.6136 78.1017,74.6305 72.461,81.5729 63.3492,83.7424 57.2746,79.4034 42.0881,56.8407 38.1831,42.522" stroke="#0000fe" stroke-width="2" /><polyline fill="none" points="58.1424,72.8949 62.9153,64.6508 70.2915,61.6136 72.461,62.0475 76.3661,65.9525 78.5356,71.1593 78.1017,75.0644" stroke="#0060ff" stroke-width="2" /><polyline fill="none" points="83.3085,72.461 83.3085,72.461" stroke="#00d4ff" stroke-width="2" /><polyline fill="none" points="82.0068,65.5186 92.4203,69.8576 119.322,75.9322" stroke="#4cffaa" stroke-width="2" /><polyline fill="none" points="84.6102,58.5763 97.1932,63.3492 118.0203,68.9898" stroke="#aaff4c" stroke-width="2" /><polyline fill="none" points="84.6102,72.461 105.4373,91.1186" stroke="#ffe500" stroke-width="2" /><polyline fill="none" points="58.1424,65.0847 38.6169,68.9898 29.0712,72.461 8.678,84.1763" stroke="#ff7a00" stroke-width="2" /><polyline fill="none" points="59.878,75.0644 35.1458,81.5729 16.922,91.1186" stroke="#fe1200" stroke-width="2" /><polyline fill="none" points="59.4441,82.4407 29.5051,97.6271" stroke="#7f0000" stroke-width="2" /></svg>