<?xml version="1.0" encoding="utf-8" ?>
<svg baseProfile="tiny" height="128" version="1.2" viewBox="0,0,128,128" width="128" xmlns="http://www.w3.org/2000/svg" xmlns:ev="http://www.w3.org/2001/xml-events" xmlns:xlink="http://www.w3.org/1999/xlink"><defs /><polyline fill="none" points="44.2576,29.5051 29.939,30.8068 23.8644,33.4102 19.5254,39.0508 17.7898,44.6915 19.9593,50.7661 25.6,55.9729 31.6746,58.5763 44.2576,60.3119 53.3695,59.878 61.1797,50.7661 55.1051,36.4475 48.5966,30.3729" stroke="#00007f" stroke-width="2" /><polyline fill="none" points="11.2814,31.2407 16.4881,8.678 19.5254,8.678 29.5051,20.3932" stroke="#0010ff" stroke-width="2" /><polyline fill="none" points="51.2,27.7695 57.2746,22.5627 68.122,19.5254 64.6508,32.1085 59.878,36.0136" stroke="#00a4ff" stroke-width="2" /><polyline fill="none" points="8.678,29.939 9.9797,36.0136" stroke="#3fffb7" stroke-width="2" /><polyline fill="none" points="28.2034,18.2237 28.2034,18.2237" stroke="#b7ff3f" stroke-width="2" /><polyline fill="none" points="28.2034,18.2237 29.939,19.9593" stroke="#ffb900" stroke-width="2" /><polyline fill="none" points="9.9797,27.3356 17.7898,44.2576" stroke="#ff3000" stroke-width="2" /><polyline fill="none" points="33.4102,51.2 32.1085,67.2542 33.4102,79.4034 36.4475,85.0441 41.6542,90.6847 51.2,96.7593 63.7831,101.5322 99.3627,105.8712 115.8508,110.2102 119.322,109.7763" stroke="#7f0000" stroke-width="2" /></svg>