<?xml version="1.0" encoding="utf-8" ?>
<svg baseProfile="tiny" height="128" version="1.2" viewBox="0,0,128,128" width="128" xmlns="http://www.w3.org/2000/svg" xmlns:ev="http://www.w3.org/2001/xml-events" xmlns:xlink="http://www.w3.org/1999/xlink"><defs /><polyline fill="none" points="42.6667,45.7143 36.5714,46.585 29.1701,41.7959 24.8163,15.6735 20.4626,10.449 13.0612,8.7075 9.5782,14.3673 8.7075,26.5578 13.0612,38.7483 18.7211,45.2789 25.6871,50.5034 38.3129,52.2449 47.4558,48.3265" stroke="#00007f" stroke-width="2" /><polyline fill="none" points="47.4558,46.1497 65.3061,42.6667 74.449,42.6667 91.4286,51.3741 96.2177,55.2925 96.6531,60.9524 91.8639,63.1293 59.6463,64.4354 50.5034,60.9524 43.5374,53.9864 43.5374,50.5034 49.1973,48.7619" stroke="#0010ff" stroke-width="2" /><polyline fill="none" points="88.8163,51.8095 89.2517,49.6327 100.1361,43.102 111.4558,41.3605 117.1156,42.2313 119.2925,45.2789 119.2925,50.068 117.551,51.8095 112.7619,54.4218 97.0884,56.5986" stroke="#00a4ff" stroke-width="2" /><polyline fill="none" points="108.8435,47.4558 107.9728,47.0204" stroke="#3fffb7" stroke-width="2" /><polyline fill="none" points="100.5714,37.0068 100.1361,26.1224 107.5374,34.8299 109.2789,40.0544" stroke="#b7ff3f" stroke-width="2" /><polyline fill="none" points="102.7483,33.5238 102.3129,40.0544" stroke="#ffb900" stroke-width="2" /><polyline fill="none" points="109.7143,40.9252 114.068,33.0884 118.8571,27.4286 119.2925,42.2313" stroke="#ff3000" stroke-width="2" /><polyline fill="none" points="87.0748,64.0 87.0748,80.1088 103.1837,84.0272" stroke="#7f0000" stroke-width="2" /></svg>