<?xml version="1.0" encoding="utf-8" ?>
<svg baseProfile="tiny" height="128" version="1.2" viewBox="0,0,128,128" width="128" xmlns="http://www.w3.org/2000/svg" xmlns:ev="http://www.w3.org/2001/xml-events" xmlns:xlink="http://www.w3.org/1999/xlink"><defs /><polyline fill="none" points="68.5559,40.3525 68.5559,40.3525" stroke="#00007f" stroke-width="2" /><polyline fill="none" points="68.5559,36.4475 68.9898,35.1458" stroke="#0000e8" stroke-width="2" /><polyline fill="none" points="68.9898,34.278 72.461,34.7119" stroke="#0038ff" stroke-width="2" /><polyline fill="none" points="78.9695,34.7119 82.8746,38.1831 112.3797,39.0508 116.2847,34.278 119.322,37.3153 114.9831,49.0305 107.6068,60.7458 98.4949,64.6508 94.5898,64.2169 86.7797,59.4441 78.1017,50.3322 76.3661,45.5593 75.4983,36.0136 82.0068,36.8814 94.1559,32.9763" stroke="#0094ff" stroke-width="2" /><polyline fill="none" points="95.0237,64.6508 91.1186,64.6508 87.6475,66.3864 86.7797,69.8576 88.0814,70.7254 97.6271,70.2915 104.1356,68.122 105.8712,65.5186" stroke="#0cf4ea" stroke-width="2" /><polyline fill="none" points="87.2136,70.7254 54.6712,70.7254 49.8983,72.461 41.6542,78.1017 34.278,88.5153 34.7119,93.2881 39.0508,97.1932 56.4068,103.7017 78.5356,103.7017 91.5525,99.7966 104.5695,91.9864 108.0407,85.0441 108.4746,70.2915 107.6068,68.9898 105.8712,71.1593 103.2678,80.2712" stroke="#56ffa0" stroke-width="2" /><polyline fill="none" points="96.3254,98.061 95.8915,106.739 93.2881,114.1153 91.9864,113.6814" stroke="#a0ff56" stroke-width="2" /><polyline fill="none" points="82.8746,105.4373 80.7051,116.7186" stroke="#eaff0c" stroke-width="2" /><polyline fill="none" points="45.9932,104.1356 44.6915,115.8508 42.522,108.4746" stroke="#ffaa00" stroke-width="2" /><polyline fill="none" points="38.6169,95.4576 36.8814,96.3254 32.5424,107.1729" stroke="#ff5500" stroke-width="2" /><polyline fill="none" points="32.1085,80.7051 29.0712,66.8203 21.6949,48.1627 21.261,20.8271 15.1864,10.8475 8.678,8.678" stroke="#e80000" stroke-width="2" /><polyline fill="none" points="83.3085,43.8237 84.1763,46.4271 82.4407,43.3898 82.0068,44.2576" stroke="#7f0000" stroke-width="2" /></svg>