<?xml version="1.0" encoding="utf-8" ?>
<svg baseProfile="tiny" height="128" version="1.2" viewBox="0,0,128,128" width="128" xmlns="http://www.w3.org/2000/svg" xmlns:ev="http://www.w3.org/2001/xml-events" xmlns:xlink="http://www.w3.org/1999/xlink"><defs /><polyline fill="none" points="85.478,53.3695 60.7458,39.4847 46.861,36.4475 39.9186,36.0136 31.2407,37.7492 19.5254,46.4271 13.8847,51.6339 10.4136,57.7085 8.678,68.122 12.1492,84.1763 23.4305,105.4373 32.9763,112.8136 52.5017,119.322 78.5356,114.9831 85.0441,111.5119 90.6847,106.3051 98.4949,90.6847 100.6644,82.8746 99.7966,75.9322 86.7797,51.2 77.6678,41.6542" stroke="#00007f" stroke-width="2" /><polyline fill="none" points="11.2814,50.7661 16.0542,38.6169 23.8644,8.678 36.8814,21.6949 52.0678,42.9559 55.539,49.8983" stroke="#004cff" stroke-width="2" /><polyline fill="none" points="71.5932,40.3525 101.5322,14.3186 103.2678,22.9966 102.8339,43.3898 101.9661,57.2746 99.7966,65.5186" stroke="#29ffcd" stroke-width="2" /><polyline fill="none" points="39.9186,72.461 39.9186,78.5356 39.9186,75.9322 37.7492,75.4983 36.4475,78.9695 39.9186,80.2712 45.5593,73.7627 44.2576,70.7254 41.2203,71.5932" stroke="#cdff29" stroke-width="2" /><polyline fill="none" points="71.5932,67.2542 71.5932,78.5356 73.3288,75.9322 72.461,74.1966 72.0271,80.2712" stroke="#ff6700" stroke-width="2" /><polyline fill="none" points="69.8576,67.2542 63.3492,65.5186 60.7458,65.9525 57.7085,72.0271 58.1424,76.8 59.4441,79.4034 64.6508,82.4407 69.8576,83.3085 72.0271,81.5729 71.5932,78.9695 71.5932,81.139" stroke="#7f0000" stroke-width="2" /></svg>