<?xml version="1.0" encoding="utf-8" ?>
<svg baseProfile="tiny" height="128" version="1.2" viewBox="0,0,128,128" width="128" xmlns="http://www.w3.org/2000/svg" xmlns:ev="http://www.w3.org/2001/xml-events" xmlns:xlink="http://www.w3.org/1999/xlink"><defs /><polyline fill="none" points="39.1837,47.8912 37.0068,52.6803 37.4422,57.9048 40.9252,59.2109 47.4558,57.9048 51.8095,55.7279 52.2449,53.551 50.068,49.6327 45.7143,47.0204 41.3605,46.1497 38.3129,47.0204" stroke="#00007f" stroke-width="2" /><polyline fill="none" points="70.0952,67.483 70.966,69.6599 74.0136,67.9184" stroke="#0000c3" stroke-width="2" /><polyline fill="none" points="73.1429,68.7891 69.6599,71.4014 62.6939,73.5782" stroke="#0000ff" stroke-width="2" /><polyline fill="none" points="70.966,68.3537 73.1429,73.5782 77.4966,74.449" stroke="#0034ff" stroke-width="2" /><polyline fill="none" points="86.6395,50.9388 84.4626,57.034 87.0748,58.7755 94.9116,55.7279 95.7823,51.8095 94.4762,49.6327 91.8639,47.0204 87.9456,46.585 80.1088,50.5034" stroke="#0070ff" stroke-width="2" /><polyline fill="none" points="70.966,69.2245 60.9524,66.6122" stroke="#00acff" stroke-width="2" /><polyline fill="none" points="70.5306,69.6599 56.1633,71.4014" stroke="#02e8f4" stroke-width="2" /><polyline fill="none" points="72.7075,69.2245 89.2517,64.4354" stroke="#32ffc3" stroke-width="2" /><polyline fill="none" points="72.2721,69.2245 89.6871,71.8367" stroke="#63ff93" stroke-width="2" /><polyline fill="none" points="26.5578,8.7075 22.2041,23.9456 22.2041,30.0408 23.5102,31.7823" stroke="#93ff63" stroke-width="2" /><polyline fill="none" points="24.8163,11.7551 47.8912,25.6871" stroke="#c3ff32" stroke-width="2" /><polyline fill="none" points="30.9116,20.0272 27.4286,31.7823" stroke="#f4f802" stroke-width="2" /><polyline fill="none" points="30.9116,21.3333 36.5714,27.8639" stroke="#ffc000" stroke-width="2" /><polyline fill="none" points="78.3673,31.3469 119.2925,21.7687 119.2925,27.4286 116.6803,34.8299 109.2789,43.5374" stroke="#ff8900" stroke-width="2" /><polyline fill="none" points="91.8639,36.5714 97.0884,33.0884 106.6667,30.0408 107.5374,31.7823 103.619,38.7483" stroke="#ff5100" stroke-width="2" /><polyline fill="none" points="47.4558,26.5578 53.551,23.9456 68.3537,23.0748 76.1905,26.5578 77.4966,32.6531" stroke="#ff1a00" stroke-width="2" /><polyline fill="none" points="21.3333,34.8299 10.8844,48.7619 8.7075,55.2925 8.7075,61.8231 11.3197,69.2245 17.8503,78.8027 30.9116,88.381 43.5374,93.6054 57.034,94.4762 76.6259,90.1224" stroke="#c30000" stroke-width="2" /><polyline fill="none" points="109.7143,45.7143 114.9388,62.6939 114.9388,67.483 112.7619,70.966 104.9252,77.0612 95.3469,81.415 80.9796,86.6395 70.966,88.381" stroke="#7f0000" stroke-width="2" /></svg>