<?xml version="1.0" encoding="utf-8" ?>
<svg baseProfile="tiny" height="128" version="1.2" viewBox="0,0,128,128" width="128" xmlns="http://www.w3.org/2000/svg" xmlns:ev="http://www.w3.org/2001/xml-events" xmlns:xlink="http://www.w3.org/1999/xlink"><defs /><polyline fill="none" points="36.4475,27.3356 40.7864,22.5627 50.3322,17.3559 68.5559,13.8847 73.7627,14.3186 80.7051,17.3559 85.0441,21.6949 87.6475,29.5051" stroke="#00007f" stroke-width="2" /><polyline fill="none" points="85.478,25.6 94.1559,21.6949 111.5119,16.922 105.4373,24.7322 101.5322,32.5424" stroke="#0000e8" stroke-width="2" /><polyline fill="none" points="35.5797,25.1661 22.9966,8.678 23.8644,16.922 27.7695,29.939" stroke="#0038ff" stroke-width="2" /><polyline fill="none" points="29.5051,29.5051 19.9593,30.8068 12.1492,36.8814 8.678,46.861 10.4136,61.6136 17.3559,72.0271 23.4305,75.9322 35.1458,79.4034 44.2576,79.8373 49.4644,77.6678" stroke="#0094ff" stroke-width="2" /><polyline fill="none" points="99.3627,29.0712 106.3051,33.4102 114.5492,44.6915 116.7186,50.7661 117.1525,61.1797 113.2475,71.1593 106.739,78.1017 98.061,83.3085 81.5729,87.2136 59.0102,87.6475" stroke="#0cf4ea" stroke-width="2" /><polyline fill="none" points="55.1051,50.3322 38.1831,45.5593 28.2034,45.1254 23.4305,45.9932 16.4881,49.8983 14.3186,52.5017 14.7525,56.8407" stroke="#56ffa0" stroke-width="2" /><polyline fill="none" points="46.4271,56.4068 33.4102,51.6339 24.2983,50.7661 18.6576,51.2 12.1492,55.1051" stroke="#a0ff56" stroke-width="2" /><polyline fill="none" points="79.4034,52.9356 97.6271,51.6339 114.1153,52.5017" stroke="#eaff0c" stroke-width="2" /><polyline fill="none" points="76.3661,62.9153 77.6678,61.1797 82.8746,60.3119 92.4203,62.0475 119.322,74.1966" stroke="#ffaa00" stroke-width="2" /><polyline fill="none" points="62.0475,54.2373 61.1797,53.3695 59.0102,54.2373 57.2746,57.7085 65.0847,58.1424 66.3864,55.1051 58.5763,52.5017 59.0102,54.6712 64.2169,55.9729 60.7458,55.9729" stroke="#ff5500" stroke-width="2" /><polyline fill="none" points="41.6542,32.5424 42.522,30.8068 46.4271,29.939 43.8237,30.3729" stroke="#e80000" stroke-width="2" /><polyline fill="none" points="78.5356,38.6169 83.7424,36.8814" stroke="#7f0000" stroke-width="2" /></svg>