<?xml version="1.0" encoding="utf-8" ?>
<svg baseProfile="tiny" height="128" version="1.2" viewBox="0,0,128,128" width="128" xmlns="http://www.w3.org/2000/svg" xmlns:ev="http://www.w3.org/2001/xml-events" xmlns:xlink="http://www.w3.org/1999/xlink"><defs /><polyline fill="none" points="51.6339,39.4847 42.522,38.1831 32.1085,43.3898 26.0339,49.0305 14.3186,64.6508 8.678,80.2712 9.1119,94.1559 13.4508,101.5322 19.9593,108.0407 29.0712,114.1153 38.1831,117.5864 47.7288,119.322 57.7085,119.322 67.6881,117.5864 76.3661,113.6814 84.1763,108.0407 90.6847,100.6644 95.8915,91.9864 99.3627,81.5729 99.7966,63.7831 95.8915,57.2746 89.3831,52.0678 60.7458,39.9186" stroke="#00007f" stroke-width="2" /><polyline fill="none" points="13.4508,62.0475 11.7153,60.3119 11.7153,35.1458 14.3186,22.5627 19.0915,13.0169 21.261,13.0169 41.6542,32.9763 47.7288,42.0881" stroke="#0010ff" stroke-width="2" /><polyline fill="none" points="69.8576,37.3153 90.6847,20.3932 105.4373,12.1492 116.7186,8.678 118.0203,11.7153 117.1525,16.922 104.1356,60.3119" stroke="#00a4ff" stroke-width="2" /><polyline fill="none" points="75.4983,38.1831 85.9119,32.1085 98.4949,27.7695 98.9288,32.5424 95.8915,55.539" stroke="#3fffb7" stroke-width="2" /><polyline fill="none" points="20.8271,58.5763 23.4305,30.3729 26.4678,29.939 36.8814,45.5593" stroke="#b7ff3f" stroke-width="2" /><polyline fill="none" points="31.6746,71.5932 32.9763,74.6305" stroke="#ffb900" stroke-width="2" /><polyline fill="none" points="56.4068,66.8203 59.878,72.0271" stroke="#ff3000" stroke-width="2" /><polyline fill="none" points="32.9763,85.478 33.4102,86.7797 38.6169,88.9492 42.9559,88.5153 47.2949,82.8746 55.9729,87.6475 64.6508,85.9119" stroke="#7f0000" stroke-width="2" /></svg>