<?xml version="1.0" encoding="utf-8" ?>
<svg baseProfile="tiny" height="128" version="1.2" viewBox="0,0,128,128" width="128" xmlns="http://www.w3.org/2000/svg" xmlns:ev="http://www.w3.org/2001/xml-events" xmlns:xlink="http://www.w3.org/1999/xlink"><defs /><polyline fill="none" points="31.2407,42.9559 24.7322,47.7288 22.5627,51.2 19.5254,63.7831 19.9593,84.1763 27.3356,96.7593 32.5424,102.4 38.1831,105.8712 51.6339,110.6441 67.6881,111.078 83.3085,104.5695 95.4576,92.8542 101.9661,80.7051 103.7017,68.5559 98.4949,57.2746 94.1559,51.6339 82.8746,42.522 69.8576,36.4475 55.539,34.278 39.0508,36.0136" stroke="#00007f" stroke-width="2" /><polyline fill="none" points="23.8644,51.2 19.5254,45.1254 13.4508,29.5051 11.7153,9.9797 13.4508,8.678 18.2237,10.8475 31.6746,26.9017 36.4475,30.8068" stroke="#0000fe" stroke-width="2" /><polyline fill="none" points="85.9119,43.8237 85.9119,42.0881 107.1729,14.3186 101.0983,46.861" stroke="#0060ff" stroke-width="2" /><polyline fill="none" points="55.1051,76.8 53.3695,77.6678 53.3695,79.4034 56.4068,78.9695 54.6712,79.4034" stroke="#00d4ff" stroke-width="2" /><polyline fill="none" points="58.1424,78.1017 93.2881,71.5932 115.4169,69.8576" stroke="#4cffaa" stroke-width="2" /><polyline fill="none" points="58.1424,80.7051 110.6441,85.0441" stroke="#aaff4c" stroke-width="2" /><polyline fill="none" points="60.3119,81.139 77.6678,90.2508 90.6847,94.5898 105.8712,95.8915" stroke="#ffe500" stroke-width="2" /><polyline fill="none" points="53.3695,76.8 45.5593,77.6678 24.7322,84.1763 11.7153,86.7797" stroke="#ff7a00" stroke-width="2" /><polyline fill="none" points="50.7661,87.6475 44.2576,88.5153 10.4136,102.8339 8.678,105.8712" stroke="#fe1200" stroke-width="2" /><polyline fill="none" points="49.4644,85.0441 44.2576,86.7797 37.7492,92.4203 14.7525,119.322" stroke="#7f0000" stroke-width="2" /></svg>