<?xml version="1.0" encoding="utf-8" ?>
<svg baseProfile="tiny" height="128" version="1.2" viewBox="0,0,128,128" width="128" xmlns="http://www.w3.org/2000/svg" xmlns:ev="http://www.w3.org/2001/xml-events" xmlns:xlink="http://www.w3.org/1999/xlink"><defs /><polyline fill="none" points="90.2508,33.4102 84.6102,32.5424 76.3661,36.0136 68.5559,46.4271 67.2542,49.8983 67.6881,55.1051 75.0644,62.9153 82.8746,65.5186 92.4203,65.9525 100.6644,62.9153 107.1729,58.1424 111.5119,49.8983 111.9458,42.9559 110.6441,39.4847 106.3051,35.5797 97.6271,31.2407 94.1559,31.2407" stroke="#00007f" stroke-width="2" /><polyline fill="none" points="72.0271,39.9186 72.0271,29.939 74.6305,15.1864 75.9322,14.3186 87.6475,30.8068 89.8169,30.8068" stroke="#0010ff" stroke-width="2" /><polyline fill="none" points="97.6271,30.8068 105.4373,10.4136 106.3051,8.678 108.0407,9.1119 111.078,28.2034 111.5119,38.1831" stroke="#00a4ff" stroke-width="2" /><polyline fill="none" points="83.7424,45.5593 83.3085,48.1627 83.7424,46.4271" stroke="#3fffb7" stroke-width="2" /><polyline fill="none" points="99.7966,39.9186 98.9288,42.0881 101.0983,44.2576 102.8339,43.3898" stroke="#b7ff3f" stroke-width="2" /><polyline fill="none" points="85.9119,54.2373 87.6475,57.7085 92.8542,59.4441 98.061,55.9729 101.0983,52.5017" stroke="#ffb900" stroke-width="2" /><polyline fill="none" points="89.3831,67.2542 85.0441,82.4407 74.6305,83.7424 56.4068,83.3085 41.6542,86.3458 33.4102,93.2881 32.9763,98.4949 33.8441,101.5322 38.6169,106.3051 45.1254,110.2102 58.5763,112.8136 85.0441,110.6441 101.9661,105.0034 107.6068,101.9661 109.7763,99.3627 111.078,93.722 110.6441,84.6102 105.0034,65.5186 101.0983,58.5763" stroke="#ff3000" stroke-width="2" /><polyline fill="none" points="31.6746,96.3254 22.1288,97.1932 16.0542,100.2305 10.4136,110.2102 8.678,119.322" stroke="#7f0000" stroke-width="2" /></svg>