<?xml version="1.0" encoding="utf-8" ?>
<svg baseProfile="tiny" height="128" version="1.2" viewBox="0,0,128,128" width="128" xmlns="http://www.w3.org/2000/svg" xmlns:ev="http://www.w3.org/2001/xml-events" xmlns:xlink="http://www.w3.org/1999/xlink"><defs /><polyline fill="none" points="95.0237,29.5051 93.2881,26.9017 85.0441,24.7322 71.1593,23.8644 66.3864,24.7322 60.7458,28.6373 51.2,38.6169 47.7288,45.1254 46.861,62.4814 50.7661,68.9898 57.7085,72.0271 75.0644,74.6305 82.0068,74.1966 91.1186,55.9729 93.722,45.9932 94.5898,40.3525 92.8542,27.3356" stroke="#00007f" stroke-width="2" /><polyline fill="none" points="49.8983,9.5458 47.2949,40.7864" stroke="#0000fe" stroke-width="2" /><polyline fill="none" points="50.3322,8.678 52.0678,13.0169 56.8407,16.922 64.2169,27.7695" stroke="#0060ff" stroke-width="2" /><polyline fill="none" points="89.3831,26.9017 107.6068,10.4136 108.9085,13.8847 102.8339,33.8441 99.3627,41.2203 94.1559,45.1254" stroke="#00d4ff" stroke-width="2" /><polyline fill="none" points="61.1797,56.4068 41.2203,56.8407 26.9017,58.5763 8.678,57.7085" stroke="#4cffaa" stroke-width="2" /><polyline fill="none" points="54.2373,57.7085 53.8034,59.878 48.1627,63.3492 19.0915,72.0271 10.4136,76.8" stroke="#aaff4c" stroke-width="2" /><polyline fill="none" points="82.0068,56.8407 119.322,57.2746" stroke="#ffe500" stroke-width="2" /><polyline fill="none" points="80.7051,65.5186 105.8712,81.5729 112.3797,84.1763 111.9458,82.4407" stroke="#ff7a00" stroke-width="2" /><polyline fill="none" points="70.7254,51.2 68.9898,53.3695 68.9898,57.7085 70.7254,58.5763 72.8949,51.2 72.8949,49.4644 70.7254,52.0678" stroke="#fe1200" stroke-width="2" /><polyline fill="none" points="51.6339,72.0271 49.8983,78.5356" stroke="#7f0000" stroke-width="2" /></svg>