<?xml version="1.0" encoding="utf-8" ?>
<svg baseProfile="tiny" height="128" version="1.2" viewBox="0,0,128,128" width="128" xmlns="http://www.w3.org/2000/svg" xmlns:ev="http://www.w3.org/2001/xml-events" xmlns:xlink="http://www.w3.org/1999/xlink"><defs /><polyline fill="none" points="78.1017,25.1661 63.3492,35.1458 61.1797,39.4847 61.1797,47.2949 63.7831,52.9356 68.122,55.539 77.6678,58.1424 82.4407,57.2746 84.6102,53.8034 85.478,45.9932 85.0441,32.1085 82.4407,25.1661 78.5356,16.922 75.9322,16.4881 72.461,20.8271 70.2915,28.2034" stroke="#00007f" stroke-width="2" /><polyline fill="none" points="63.3492,32.1085 59.878,22.9966 60.7458,8.678 63.3492,26.4678 65.0847,29.5051 68.122,29.939" stroke="#0000fe" stroke-width="2" /><polyline fill="none" points="70.2915,29.0712 73.7627,11.2814 76.8,15.1864 81.5729,26.4678" stroke="#0060ff" stroke-width="2" /><polyline fill="none" points="69.4237,56.4068 63.3492,59.0102 57.2746,63.7831 45.1254,84.1763 44.6915,98.4949 47.7288,111.5119" stroke="#00d4ff" stroke-width="2" /><polyline fill="none" points="80.7051,58.1424 83.3085,59.4441 87.2136,66.8203 92.8542,86.3458 91.1186,99.3627 86.7797,108.4746 85.478,114.5492 76.8,118.0203 59.0102,119.322 51.6339,117.5864 49.4644,114.1153" stroke="#4cffaa" stroke-width="2" /><polyline fill="none" points="45.1254,106.739 39.9186,106.3051 31.6746,103.2678 23.8644,98.4949 16.0542,87.2136 8.678,86.3458 9.5458,91.5525 22.5627,104.5695 40.7864,107.6068 43.3898,112.8136" stroke="#aaff4c" stroke-width="2" /><polyline fill="none" points="68.9898,49.0305 42.9559,45.1254" stroke="#ffe500" stroke-width="2" /><polyline fill="none" points="72.0271,51.6339 60.7458,55.1051 43.8237,57.7085" stroke="#ff7a00" stroke-width="2" /><polyline fill="none" points="76.3661,48.1627 86.3458,45.5593 108.0407,42.522" stroke="#fe1200" stroke-width="2" /><polyline fill="none" points="79.8373,49.0305 100.6644,54.2373" stroke="#7f0000" stroke-width="2" /></svg>