<?xml version="1.0" encoding="utf-8" ?>
<svg baseProfile="tiny" height="128" version="1.2" viewBox="0,0,128,128" width="128" xmlns="http://www.w3.org/2000/svg" xmlns:ev="http://www.w3.org/2001/xml-events" xmlns:xlink="http://www.w3.org/1999/xlink"><defs /><polyline fill="none" points="43.3898,28.6373 32.1085,31.2407 20.3932,36.8814 16.0542,39.9186 13.0169,44.2576 11.7153,51.6339 19.0915,64.2169 29.0712,71.5932 45.5593,71.5932 50.7661,69.4237 55.539,62.0475 56.8407,55.539 56.8407,40.7864 53.8034,34.278 51.2,32.9763 41.6542,32.9763 40.3525,34.278" stroke="#00007f" stroke-width="2" /><polyline fill="none" points="32.1085,53.3695 33.8441,50.7661 37.3153,53.3695" stroke="#0000d1" stroke-width="2" /><polyline fill="none" points="35.5797,52.0678 36.8814,49.4644 35.1458,51.2" stroke="#0010ff" stroke-width="2" /><polyline fill="none" points="32.9763,49.8983 25.6,47.2949 19.9593,47.7288 19.5254,49.0305" stroke="#0058ff" stroke-width="2" /><polyline fill="none" points="29.0712,51.2 23.8644,51.6339 21.6949,54.6712" stroke="#00a4ff" stroke-width="2" /><polyline fill="none" points="30.8068,52.9356 26.4678,56.8407" stroke="#05ecf1" stroke-width="2" /><polyline fill="none" points="38.6169,48.5966 46.861,45.5593" stroke="#3fffb7" stroke-width="2" /><polyline fill="none" points="38.1831,52.9356 46.4271,53.3695" stroke="#7cff79" stroke-width="2" /><polyline fill="none" points="39.9186,55.539 46.4271,56.8407" stroke="#b7ff3f" stroke-width="2" /><polyline fill="none" points="27.3356,38.1831 27.3356,38.1831" stroke="#f1fc05" stroke-width="2" /><polyline fill="none" points="29.0712,38.6169 26.4678,40.7864 30.8068,39.9186" stroke="#ffb900" stroke-width="2" /><polyline fill="none" points="40.3525,39.9186 39.4847,39.9186" stroke="#ff7300" stroke-width="2" /><polyline fill="none" points="13.0169,35.5797 12.5831,28.2034 8.678,13.4508 8.678,10.8475 11.2814,8.678 16.4881,13.0169 26.9017,29.5051 31.6746,34.7119 32.9763,33.8441" stroke="#ff3000" stroke-width="2" /><polyline fill="none" points="47.7288,29.5051 68.122,16.0542 67.6881,24.2983 65.9525,28.6373 57.7085,40.7864" stroke="#d10000" stroke-width="2" /><polyline fill="none" points="60.3119,52.9356 62.9153,51.6339 97.6271,52.0678 113.6814,53.3695 119.322,54.6712" stroke="#7f0000" stroke-width="2" /></svg>