<?xml version="1.0" encoding="utf-8" ?>
<svg baseProfile="tiny" height="128" version="1.2" viewBox="0,0,128,128" width="128" xmlns="http://www.w3.org/2000/svg" xmlns:ev="http://www.w3.org/2001/xml-events" xmlns:xlink="http://www.w3.org/1999/xlink"><defs /><polyline fill="none" points="26.0339,29.0712 26.0339,13.8847 28.6373,19.0915 38.6169,31.6746" stroke="#00007f" stroke-width="2" /><polyline fill="none" points="46.861,28.6373 51.2,8.678 53.3695,17.3559 59.878,31.2407" stroke="#0028ff" stroke-width="2" /><polyline fill="none" points="24.7322,38.1831 24.7322,52.9356 27.3356,58.5763 30.3729,62.0475 41.6542,70.7254 49.4644,73.7627 58.1424,74.6305 62.9153,73.3288 66.3864,69.8576 70.7254,59.0102 70.7254,52.0678 67.6881,46.4271" stroke="#00d4ff" stroke-width="2" /><polyline fill="none" points="45.1254,56.4068 11.7153,56.4068 8.678,57.2746" stroke="#7cff79" stroke-width="2" /><polyline fill="none" points="44.2576,59.4441 40.3525,59.4441 35.1458,62.4814 18.6576,78.1017" stroke="#ffe500" stroke-width="2" /><polyline fill="none" points="46.4271,62.9153 39.0508,91.9864" stroke="#ff4600" stroke-width="2" /><polyline fill="none" points="60.3119,52.9356 68.5559,51.6339 119.322,36.8814" stroke="#7f0000" stroke-width="2" /></svg>