<?xml version="1.0" encoding="utf-8" ?>
<svg baseProfile="tiny" height="128" version="1.2" viewBox="0,0,128,128" width="128" xmlns="http://www.w3.org/2000/svg" xmlns:ev="http://www.w3.org/2001/xml-events" xmlns:xlink="http://www.w3.org/1999/xlink"><defs /><polyline fill="none" points="115.8508,29.939 111.078,27.3356 98.9288,25.6 91.5525,26.0339 85.0441,29.5051 82.8746,36.4475 83.7424,45.1254 89.8169,50.3322 97.6271,51.2 108.0407,44.2576 119.322,29.0712" stroke="#00007f" stroke-width="2" /><polyline fill="none" points="97.6271,26.4678 90.6847,15.6203 89.8169,8.678 88.0814,18.2237 84.1763,26.9017" stroke="#0080ff" stroke-width="2" /><polyline fill="none" points="105.8712,31.2407 102.4,30.8068" stroke="#7cff79" stroke-width="2" /><polyline fill="none" points="83.3085,41.6542 63.3492,30.3729 48.1627,29.0712 42.9559,31.2407 40.3525,44.6915 37.7492,48.5966 36.4475,48.5966 23.4305,40.3525 16.4881,30.3729 9.9797,28.2034 8.678,38.6169 10.4136,42.0881 16.922,49.4644 34.7119,59.4441 37.3153,64.2169 36.8814,72.8949 38.6169,75.0644 41.6542,71.5932 43.3898,65.0847 51.2,60.7458 55.1051,68.9898 59.878,74.1966 66.8203,74.1966 72.0271,67.6881 72.0271,65.0847 68.122,60.7458 68.5559,57.7085 72.8949,60.7458 77.2339,71.1593 82.0068,69.8576 86.3458,57.7085 96.7593,69.4237 97.1932,57.2746 99.3627,49.8983 103.2678,44.6915" stroke="#ff9400" stroke-width="2" /><polyline fill="none" points="103.7017,38.6169 103.7017,38.6169" stroke="#7f0000" stroke-width="2" /></svg>