<?xml version="1.0" encoding="utf-8" ?>
<svg baseProfile="tiny" height="128" version="1.2" viewBox="0,0,128,128" width="128" xmlns="http://www.w3.org/2000/svg" xmlns:ev="http://www.w3.org/2001/xml-events" xmlns:xlink="http://www.w3.org/1999/xlink"><defs /><polyline fill="none" points="64.0,23.9456 62.6939,22.6395 56.1633,22.2041 30.9116,30.0408 23.5102,35.2653 14.8027,47.0204 10.8844,56.5986 8.7075,65.7415 8.7075,85.3333 12.6259,95.7823 18.7211,104.4898 27.4286,110.585 39.619,114.9388 53.9864,117.1156 67.9184,117.1156 80.1088,114.5034 90.1224,109.7143 99.2653,101.4422 105.7959,91.8639 108.4082,81.415 109.2789,66.1769 106.2313,50.5034 101.4422,40.9252 94.4762,32.6531 84.0272,26.1224 72.2721,22.6395 60.9524,20.898" stroke="#00007f" stroke-width="2" /><polyline fill="none" points="23.5102,30.4762 11.3197,8.7075 34.3946,21.3333" stroke="#0080ff" stroke-width="2" /><polyline fill="none" points="91.8639,24.381 94.9116,24.8163 119.2925,13.4966 114.5034,23.0748 111.8912,34.3946 108.4082,39.619" stroke="#7cff79" stroke-width="2" /><polyline fill="none" points="53.1156,43.102 53.551,47.4558" stroke="#ff9400" stroke-width="2" /><polyline fill="none" points="75.7551,42.2313 75.3197,49.6327" stroke="#7f0000" stroke-width="2" /></svg>