<?xml version="1.0" encoding="utf-8" ?>
<svg baseProfile="tiny" height="128" version="1.2" viewBox="0,0,128,128" width="128" xmlns="http://www.w3.org/2000/svg" xmlns:ev="http://www.w3.org/2001/xml-events" xmlns:xlink="http://www.w3.org/1999/xlink"><defs /><polyline fill="none" points="22.9966,26.9017 18.6576,37.7492 19.0915,45.9932 26.0339,49.8983 33.4102,49.8983 36.8814,48.1627 45.5593,39.9186 48.5966,35.1458 49.0305,29.0712 45.9932,24.7322 36.4475,20.8271 29.939,21.261 25.6,26.0339" stroke="#00007f" stroke-width="2" /><polyline fill="none" points="20.8271,24.7322 21.261,18.2237 24.2983,13.0169 26.4678,13.0169 30.3729,20.3932" stroke="#0000b1" stroke-width="2" /><polyline fill="none" points="39.0508,20.3932 45.9932,8.678 48.1627,10.4136 50.7661,19.0915" stroke="#0000e8" stroke-width="2" /><polyline fill="none" points="52.0678,34.278 102.8339,26.4678 107.1729,30.8068 108.4746,36.4475 106.739,37.7492" stroke="#0008ff" stroke-width="2" /><polyline fill="none" points="45.5593,45.9932 59.878,48.5966 78.9695,47.2949 100.6644,39.0508 107.1729,34.278" stroke="#0038ff" stroke-width="2" /><polyline fill="none" points="48.5966,43.8237 52.9356,58.1424 55.539,61.6136 61.6136,60.7458 65.0847,52.9356" stroke="#0068ff" stroke-width="2" /><polyline fill="none" points="67.6881,50.7661 71.1593,55.539 75.0644,57.2746 78.5356,55.539 79.8373,51.6339" stroke="#0094ff" stroke-width="2" /><polyline fill="none" points="89.8169,48.5966 96.3254,53.3695 98.4949,52.5017 100.2305,46.861" stroke="#00c4ff" stroke-width="2" /><polyline fill="none" points="104.1356,52.0678 106.739,51.2 106.739,40.7864" stroke="#0cf4ea" stroke-width="2" /><polyline fill="none" points="110.2102,27.3356 113.2475,23.4305 119.322,22.9966" stroke="#2fffc7" stroke-width="2" /><polyline fill="none" points="24.7322,29.939 24.7322,29.939" stroke="#56ffa0" stroke-width="2" /><polyline fill="none" points="39.9186,25.1661 39.9186,25.1661" stroke="#7cff79" stroke-width="2" /><polyline fill="none" points="28.6373,32.9763 28.6373,32.9763" stroke="#a0ff56" stroke-width="2" /><polyline fill="none" points="37.7492,29.0712 34.7119,30.3729 34.278,32.1085" stroke="#c7ff2f" stroke-width="2" /><polyline fill="none" points="31.2407,30.3729 30.8068,33.4102 30.8068,29.5051" stroke="#eaff0c" stroke-width="2" /><polyline fill="none" points="29.939,41.2203 32.5424,41.6542 40.7864,38.1831" stroke="#ffd700" stroke-width="2" /><polyline fill="none" points="49.8983,16.4881 49.4644,23.4305" stroke="#ffaa00" stroke-width="2" /><polyline fill="none" points="31.6746,45.5593 46.861,42.9559 51.6339,42.9559 53.3695,44.6915" stroke="#ff8100" stroke-width="2" /><polyline fill="none" points="33.4102,43.3898 26.4678,44.6915 8.678,52.5017" stroke="#ff5500" stroke-width="2" /><polyline fill="none" points="36.4475,42.522 22.1288,45.1254 12.1492,51.2" stroke="#ff2800" stroke-width="2" /><polyline fill="none" points="32.9763,51.2 56.8407,54.6712" stroke="#e80000" stroke-width="2" /><polyline fill="none" points="33.8441,47.7288 36.0136,49.4644 52.0678,49.0305" stroke="#b10000" stroke-width="2" /><polyline fill="none" points="35.5797,48.5966 22.1288,59.0102" stroke="#7f0000" stroke-width="2" /></svg>