<?xml version="1.0" encoding="utf-8" ?>
<svg baseProfile="tiny" height="128" version="1.2" viewBox="0,0,128,128" width="128" xmlns="http://www.w3.org/2000/svg" xmlns:ev="http://www.w3.org/2001/xml-events" xmlns:xlink="http://www.w3.org/1999/xlink"><defs /><polyline fill="none" points="46.861,47.7288 33.4102,51.2 26.4678,54.6712 16.4881,71.1593" stroke="#00007f" stroke-width="2" /><polyline fill="none" points="46.861,49.0305 41.2203,49.0305 35.5797,52.5017 26.9017,63.3492 22.9966,68.9898 20.8271,81.5729 20.8271,87.2136 25.6,99.3627 29.0712,105.0034 41.2203,117.1525 47.7288,119.322 66.8203,118.0203 86.7797,107.1729 93.722,93.722 93.722,73.7627 92.4203,67.6881 81.5729,62.4814 76.8,55.539 71.5932,51.2 47.7288,47.7288 41.2203,45.5593" stroke="#0000d5" stroke-width="2" /><polyline fill="none" points="31.2407,66.8203 26.4678,61.1797 19.9593,41.2203 18.6576,32.9763 9.9797,20.8271 8.678,15.1864 14.3186,15.6203 17.7898,20.8271 22.9966,25.1661 32.1085,36.4475 46.861,51.2" stroke="#001cff" stroke-width="2" /><polyline fill="none" points="56.8407,61.1797 61.1797,49.8983 68.9898,37.3153 80.2712,8.678 84.6102,15.6203 84.6102,46.861 83.7424,52.0678 82.4407,52.0678" stroke="#006cff" stroke-width="2" /><polyline fill="none" points="39.0508,71.1593 39.0508,71.1593" stroke="#00b8ff" stroke-width="2" /><polyline fill="none" points="44.2576,78.9695 44.2576,78.9695" stroke="#1cffda" stroke-width="2" /><polyline fill="none" points="46.861,78.9695 44.2576,78.9695" stroke="#5cff9a" stroke-width="2" /><polyline fill="none" points="64.6508,74.6305 65.5186,76.8" stroke="#9aff5c" stroke-width="2" /><polyline fill="none" points="53.3695,101.5322 49.8983,95.8915 52.0678,94.5898" stroke="#daff1c" stroke-width="2" /><polyline fill="none" points="54.6712,96.7593 55.539,95.8915" stroke="#ffcb00" stroke-width="2" /><polyline fill="none" points="61.1797,88.0814 82.8746,73.3288 96.7593,68.9898 109.3424,68.9898" stroke="#ff8500" stroke-width="2" /><polyline fill="none" points="53.3695,82.4407 47.7288,86.7797 32.1085,86.7797" stroke="#ff3b00" stroke-width="2" /><polyline fill="none" points="49.0305,91.5525 33.4102,91.5525" stroke="#d50000" stroke-width="2" /><polyline fill="none" points="65.5186,94.5898 78.1017,97.1932 83.7424,99.3627 86.7797,102.4" stroke="#7f0000" stroke-width="2" /></svg>