<?xml version="1.0" encoding="utf-8" ?>
<svg baseProfile="tiny" height="128" version="1.2" viewBox="0,0,128,128" width="128" xmlns="http://www.w3.org/2000/svg" xmlns:ev="http://www.w3.org/2001/xml-events" xmlns:xlink="http://www.w3.org/1999/xlink"><defs /><polyline fill="none" points="63.1293,44.8435 61.8231,24.8163 64.4354,16.5442 68.7891,17.8503 77.0612,28.7347 97.0884,26.5578 99.2653,25.2517 104.0544,12.1905 107.102,8.7075 111.0204,12.6259 115.3741,21.3333 118.4218,30.9116 119.2925,40.0544 117.1156,47.0204 110.585,55.2925 102.7483,60.0816 87.9456,64.4354 79.6735,63.5646 72.7075,60.517 67.9184,56.1633 62.6939,47.8912" stroke="#00007f" stroke-width="2" /><polyline fill="none" points="87.0748,43.9728 91.8639,42.2313 95.3469,43.102 95.7823,45.7143 93.6054,50.5034 87.9456,43.9728" stroke="#0000f1" stroke-width="2" /><polyline fill="none" points="94.9116,49.6327 86.2041,59.6463" stroke="#004cff" stroke-width="2" /><polyline fill="none" points="94.9116,50.9388 98.8299,55.2925" stroke="#00b0ff" stroke-width="2" /><polyline fill="none" points="79.6735,34.3946 80.5442,39.1837 83.1565,40.0544 85.3333,37.8776 82.2857,33.5238" stroke="#29ffcd" stroke-width="2" /><polyline fill="none" points="97.0884,29.6054 97.0884,34.8299 99.2653,33.5238 96.6531,30.9116" stroke="#7cff79" stroke-width="2" /><polyline fill="none" points="58.7755,53.551 50.9388,52.2449 29.1701,54.4218 15.6735,57.9048 9.5782,61.3878 8.7075,66.1769 13.0612,71.4014 19.5918,74.449 30.4762,76.1905 57.9048,75.3197 88.381,70.5306 106.2313,64.8707 114.5034,58.7755" stroke="#cdff29" stroke-width="2" /><polyline fill="none" points="101.4422,65.3061 105.3605,85.3333" stroke="#ffc400" stroke-width="2" /><polyline fill="none" points="88.381,70.5306 91.4286,85.7687" stroke="#ff6700" stroke-width="2" /><polyline fill="none" points="59.6463,70.5306 62.2585,83.5918" stroke="#f10700" stroke-width="2" /><polyline fill="none" points="38.3129,73.1429 40.0544,88.381" stroke="#7f0000" stroke-width="2" /></svg>