<?xml version="1.0" encoding="utf-8" ?>
<svg baseProfile="tiny" height="128" version="1.2" viewBox="0,0,128,128" width="128" xmlns="http://www.w3.org/2000/svg" xmlns:ev="http://www.w3.org/2001/xml-events" xmlns:xlink="http://www.w3.org/1999/xlink"><defs /><polyline fill="none" points="26.9017,56.8407 39.0508,71.1593 47.2949,76.3661 73.7627,75.4983 93.722,69.8576 102.4,59.4441 104.1356,51.2 101.0983,42.9559 109.7763,32.1085 113.6814,20.3932 113.2475,16.4881 101.9661,8.678 94.5898,11.7153 87.2136,20.3932 76.3661,27.7695 61.1797,27.7695 38.6169,32.5424 34.7119,35.5797 8.678,29.939 8.678,45.1254 13.0169,59.4441 34.7119,59.4441" stroke="#00007f" stroke-width="2" /><polyline fill="none" points="46.4271,61.1797 50.3322,62.4814 61.1797,62.4814 82.8746,59.0102 85.9119,56.8407" stroke="#0000ff" stroke-width="2" /><polyline fill="none" points="52.9356,46.4271 52.5017,39.9186" stroke="#0080ff" stroke-width="2" /><polyline fill="none" points="74.1966,44.2576 73.3288,34.278" stroke="#15ffe1" stroke-width="2" /><polyline fill="none" points="85.9119,46.4271 92.8542,44.2576 107.6068,43.8237 114.9831,45.9932 119.322,48.5966" stroke="#7cff79" stroke-width="2" /><polyline fill="none" points="88.0814,52.9356 103.2678,52.9356 108.4746,58.1424" stroke="#e4ff12" stroke-width="2" /><polyline fill="none" points="42.9559,56.8407 26.9017,58.1424 23.4305,59.4441 20.3932,64.2169" stroke="#ff9400" stroke-width="2" /><polyline fill="none" points="46.4271,60.3119 38.1831,60.3119 31.2407,63.7831 27.7695,73.3288" stroke="#ff1d00" stroke-width="2" /><polyline fill="none" points="60.3119,76.3661 59.0102,79.8373" stroke="#7f0000" stroke-width="2" /></svg>