<?xml version="1.0" encoding="utf-8" ?>
<svg baseProfile="tiny" height="128" version="1.2" viewBox="0,0,128,128" width="128" xmlns="http://www.w3.org/2000/svg" xmlns:ev="http://www.w3.org/2001/xml-events" xmlns:xlink="http://www.w3.org/1999/xlink"><defs /><polyline fill="none" points="82.0068,51.6339 75.4983,49.8983 63.3492,49.8983 51.2,52.0678 41.2203,56.4068 28.6373,68.9898 28.2034,74.6305 29.939,77.2339 35.1458,80.7051 45.1254,84.1763 65.0847,87.2136 84.6102,87.2136 90.6847,85.478 96.3254,82.8746 101.5322,78.1017 103.7017,69.4237 104.1356,56.8407 101.0983,52.9356 95.4576,49.8983 82.4407,51.2" stroke="#00007f" stroke-width="2" /><polyline fill="none" points="101.9661,23.8644 92.8542,25.6 85.478,30.3729 79.8373,36.8814 79.8373,42.0881 82.0068,44.2576 98.4949,49.4644 111.078,52.0678 114.1153,48.1627 115.4169,35.5797 112.3797,31.2407 105.0034,29.939" stroke="#0000fe" stroke-width="2" /><polyline fill="none" points="32.9763,63.7831 18.6576,59.878 10.4136,54.6712 8.678,49.0305 8.678,41.2203 12.5831,33.4102 16.922,28.6373 26.4678,26.9017 27.7695,36.8814 26.0339,40.3525 19.9593,43.3898 13.4508,44.2576 13.8847,37.7492 19.5254,35.1458 20.3932,37.3153" stroke="#0060ff" stroke-width="2" /><polyline fill="none" points="91.5525,10.8475 89.3831,22.5627" stroke="#00d4ff" stroke-width="2" /><polyline fill="none" points="93.2881,8.678 97.1932,12.5831 101.5322,19.9593" stroke="#4cffaa" stroke-width="2" /><polyline fill="none" points="119.322,15.6203 113.2475,22.1288 107.6068,32.5424 111.5119,28.2034" stroke="#aaff4c" stroke-width="2" /><polyline fill="none" points="117.5864,17.3559 118.4542,26.0339 116.2847,30.8068" stroke="#ffe500" stroke-width="2" /><polyline fill="none" points="94.1559,32.1085 94.5898,33.4102 94.1559,32.1085" stroke="#ff7a00" stroke-width="2" /><polyline fill="none" points="102.8339,32.5424 102.8339,32.9763" stroke="#fe1200" stroke-width="2" /><polyline fill="none" points="86.7797,39.9186 99.7966,45.1254 104.1356,45.5593 105.0034,44.2576" stroke="#7f0000" stroke-width="2" /></svg>