<?xml version="1.0" encoding="utf-8" ?>
<svg baseProfile="tiny" height="128" version="1.2" viewBox="0,0,128,128" width="128" xmlns="http://www.w3.org/2000/svg" xmlns:ev="http://www.w3.org/2001/xml-events" xmlns:xlink="http://www.w3.org/1999/xlink"><defs /><polyline fill="none" points="34.7119,29.939 31.6746,18.2237 32.5424,8.678 47.2949,30.3729 56.4068,27.7695 74.6305,26.9017 81.139,29.0712 91.9864,37.3153 97.1932,47.7288 97.6271,59.4441 93.722,65.0847 74.1966,75.0644 54.2373,75.4983 37.7492,70.7254 32.5424,67.6881 24.2983,58.5763 22.9966,51.2 28.2034,41.2203 40.7864,28.2034" stroke="#00007f" stroke-width="2" /><polyline fill="none" points="83.7424,29.939 90.6847,14.7525 97.6271,32.9763 96.7593,39.9186" stroke="#0010ff" stroke-width="2" /><polyline fill="none" points="62.0475,51.6339 58.1424,52.0678 58.1424,58.5763 65.0847,58.5763 65.0847,52.0678 62.0475,50.7661" stroke="#00a4ff" stroke-width="2" /><polyline fill="none" points="57.7085,53.8034 53.3695,50.7661 19.5254,36.4475" stroke="#3fffb7" stroke-width="2" /><polyline fill="none" points="56.4068,52.5017 47.7288,54.6712 23.4305,54.6712 11.7153,57.7085 8.678,59.878" stroke="#b7ff3f" stroke-width="2" /><polyline fill="none" points="61.6136,58.1424 40.3525,67.6881 26.9017,72.0271" stroke="#ffb900" stroke-width="2" /><polyline fill="none" points="68.122,56.4068 91.1186,50.3322 105.4373,44.2576 119.322,42.522" stroke="#ff3000" stroke-width="2" /><polyline fill="none" points="67.2542,49.8983 68.122,51.2" stroke="#7f0000" stroke-width="2" /></svg>