<?xml version="1.0" encoding="utf-8" ?>
<svg baseProfile="tiny" height="128" version="1.2" viewBox="0,0,128,128" width="128" xmlns="http://www.w3.org/2000/svg" xmlns:ev="http://www.w3.org/2001/xml-events" xmlns:xlink="http://www.w3.org/1999/xlink"><defs /><polyline fill="none" points="103.2678,45.9932 89.8169,38.6169 75.0644,36.0136 62.9153,36.4475 42.0881,42.522 39.0508,45.1254 35.1458,52.5017 35.1458,62.4814 39.4847,74.6305 50.7661,88.9492 66.3864,97.1932 79.8373,99.7966 86.7797,98.9288 95.8915,95.0237 100.6644,90.6847 104.1356,85.0441 106.3051,76.8 105.0034,59.4441 101.9661,50.3322 97.1932,42.0881 85.9119,30.3729" stroke="#00007f" stroke-width="2" /><polyline fill="none" points="52.0678,36.4475 49.8983,36.4475 42.9559,32.1085 36.8814,24.7322 31.6746,20.3932 9.9797,8.678 8.678,11.7153 11.2814,22.5627 21.261,39.0508 25.6,52.0678" stroke="#004cff" stroke-width="2" /><polyline fill="none" points="82.4407,40.7864 82.4407,38.6169 85.0441,36.4475 91.1186,34.278 113.2475,18.6576 119.322,11.2814 111.5119,35.5797 111.5119,59.0102" stroke="#29ffcd" stroke-width="2" /><polyline fill="none" points="49.8983,63.3492 51.6339,68.9898" stroke="#cdff29" stroke-width="2" /><polyline fill="none" points="76.3661,60.3119 75.0644,60.3119" stroke="#ff6700" stroke-width="2" /><polyline fill="none" points="74.6305,75.4983 72.8949,77.6678" stroke="#7f0000" stroke-width="2" /></svg>