<?xml version="1.0" encoding="utf-8" ?>
<svg baseProfile="tiny" height="128" version="1.2" viewBox="0,0,128,128" width="128" xmlns="http://www.w3.org/2000/svg" xmlns:ev="http://www.w3.org/2001/xml-events" xmlns:xlink="http://www.w3.org/1999/xlink"><defs /><polyline fill="none" points="73.3288,47.7288 49.8983,51.2 29.5051,59.4441 17.3559,70.7254 10.8475,81.139 8.678,88.9492 9.1119,100.2305 23.8644,112.3797 33.8441,116.2847 47.7288,119.322 57.7085,119.322 79.4034,112.3797 85.478,105.4373 88.9492,95.4576 89.8169,59.4441 84.1763,45.1254 75.4983,36.0136" stroke="#00007f" stroke-width="2" /><polyline fill="none" points="75.4983,36.0136 75.4983,36.0136" stroke="#004cff" stroke-width="2" /><polyline fill="none" points="19.9593,65.5186 13.8847,57.2746 11.2814,42.522 13.0169,19.5254 15.6203,8.678 28.2034,23.4305 41.2203,47.7288" stroke="#29ffcd" stroke-width="2" /><polyline fill="none" points="41.2203,47.7288 41.2203,47.7288" stroke="#cdff29" stroke-width="2" /><polyline fill="none" points="72.461,45.1254 85.9119,36.8814 95.0237,28.6373 101.0983,24.7322" stroke="#ff6700" stroke-width="2" /><polyline fill="none" points="101.5322,24.2983 98.061,42.522 91.1186,63.3492" stroke="#7f0000" stroke-width="2" /></svg>