<?xml version="1.0" encoding="utf-8" ?>
<svg baseProfile="tiny" height="128" version="1.2" viewBox="0,0,128,128" width="128" xmlns="http://www.w3.org/2000/svg" xmlns:ev="http://www.w3.org/2001/xml-events" xmlns:xlink="http://www.w3.org/1999/xlink"><defs /><polyline fill="none" points="89.8169,52.0678 87.6475,46.861 78.1017,36.0136 67.6881,30.8068 60.3119,30.8068 34.278,42.522 23.4305,48.5966 9.9797,63.3492 8.678,80.2712 12.1492,86.7797 25.6,92.8542 41.6542,96.3254 98.061,99.3627 109.7763,96.3254 114.9831,91.5525 117.1525,84.1763 119.322,74.1966 119.322,49.8983 114.1153,38.1831 101.5322,26.9017 91.1186,23.4305 85.478,23.4305" stroke="#00007f" stroke-width="2" /><polyline fill="none" points="35.1458,16.0542 35.1458,21.261 29.939,32.9763" stroke="#0010ff" stroke-width="2" /><polyline fill="none" points="33.8441,11.7153 39.0508,11.7153 55.1051,22.5627" stroke="#00a4ff" stroke-width="2" /><polyline fill="none" points="99.3627,8.678 97.1932,13.8847 90.6847,22.5627" stroke="#3fffb7" stroke-width="2" /><polyline fill="none" points="105.4373,8.678 108.4746,21.6949 113.2475,32.1085 116.2847,35.1458" stroke="#b7ff3f" stroke-width="2" /><polyline fill="none" points="61.1797,55.9729 68.5559,57.2746" stroke="#ffb900" stroke-width="2" /><polyline fill="none" points="96.3254,58.1424 95.0237,62.4814" stroke="#ff3000" stroke-width="2" /><polyline fill="none" points="59.4441,84.6102 85.478,85.478" stroke="#7f0000" stroke-width="2" /></svg>