<?xml version="1.0" encoding="utf-8" ?>
<svg baseProfile="tiny" height="128" version="1.2" viewBox="0,0,128,128" width="128" xmlns="http://www.w3.org/2000/svg" xmlns:ev="http://www.w3.org/2001/xml-events" xmlns:xlink="http://www.w3.org/1999/xlink"><defs /><polyline fill="none" points="99.7966,28.2034 98.4949,26.0339 90.2508,21.261 80.2712,20.8271 70.2915,23.8644 64.2169,29.0712 62.0475,39.9186 65.9525,51.2 71.1593,57.2746 82.0068,62.0475 93.2881,62.0475 98.061,60.3119 102.8339,55.1051 106.739,47.2949 108.0407,41.6542 107.1729,34.278 103.2678,29.0712" stroke="#00007f" stroke-width="2" /><polyline fill="none" points="87.2136,36.4475 82.4407,36.8814 79.8373,40.3525 78.9695,45.5593 80.7051,48.5966 83.7424,50.7661 91.9864,51.6339 93.2881,41.6542 90.2508,38.1831" stroke="#0000cc" stroke-width="2" /><polyline fill="none" points="85.0441,39.9186 85.478,40.7864" stroke="#0008ff" stroke-width="2" /><polyline fill="none" points="81.139,42.9559 60.7458,46.4271" stroke="#004cff" stroke-width="2" /><polyline fill="none" points="76.3661,49.4644 62.0475,62.4814" stroke="#0090ff" stroke-width="2" /><polyline fill="none" points="99.3627,42.9559 116.7186,37.7492" stroke="#00d4ff" stroke-width="2" /><polyline fill="none" points="94.5898,49.8983 119.322,54.6712" stroke="#29ffcd" stroke-width="2" /><polyline fill="none" points="90.2508,28.2034 90.2508,28.2034" stroke="#5fff96" stroke-width="2" /><polyline fill="none" points="75.4983,29.939 75.4983,29.939" stroke="#96ff5f" stroke-width="2" /><polyline fill="none" points="73.3288,27.7695 73.3288,28.6373" stroke="#cdff29" stroke-width="2" /><polyline fill="none" points="95.8915,23.4305 95.4576,20.8271 103.2678,8.678 105.0034,10.4136 105.8712,27.3356" stroke="#ffe500" stroke-width="2" /><polyline fill="none" points="75.0644,22.1288 60.7458,12.5831 58.5763,14.3186 58.5763,20.8271 60.3119,26.9017" stroke="#ffa600" stroke-width="2" /><polyline fill="none" points="104.1356,70.2915 36.8814,65.5186 21.6949,67.2542 12.5831,75.0644 11.7153,81.139 16.0542,88.0814 26.4678,94.1559 40.3525,96.7593 73.3288,96.3254 92.8542,90.2508 98.9288,85.478 101.0983,78.9695 93.2881,69.4237 78.1017,65.5186 59.0102,65.9525" stroke="#ff6700" stroke-width="2" /><polyline fill="none" points="23.4305,68.122 19.0915,61.6136 10.8475,46.4271 8.678,27.3356 10.8475,20.3932" stroke="#ff2800" stroke-width="2" /><polyline fill="none" points="34.278,94.1559 27.7695,113.2475" stroke="#cc0000" stroke-width="2" /><polyline fill="none" points="86.7797,98.061 86.3458,102.8339" stroke="#7f0000" stroke-width="2" /></svg>