<?xml version="1.0" encoding="utf-8" ?>
<svg baseProfile="tiny" height="128" version="1.2" viewBox="0,0,128,128" width="128" xmlns="http://www.w3.org/2000/svg" xmlns:ev="http://www.w3.org/2001/xml-events" xmlns:xlink="http://www.w3.org/1999/xlink"><defs /><polyline fill="none" points="36.8814,46.4271 30.3729,54.6712 31.2407,64.6508 40.3525,72.0271 45.1254,72.8949 54.2373,69.8576 58.5763,66.3864 62.4814,58.1424 62.4814,53.3695 60.7458,49.0305 50.7661,40.7864 43.8237,36.8814 38.6169,35.5797 32.9763,39.0508" stroke="#00007f" stroke-width="2" /><polyline fill="none" points="26.9017,49.0305 17.3559,38.6169" stroke="#0000c3" stroke-width="2" /><polyline fill="none" points="29.5051,52.0678 13.0169,16.922 16.0542,17.3559 24.2983,22.9966 37.7492,34.7119 47.2949,38.6169" stroke="#0000ff" stroke-width="2" /><polyline fill="none" points="52.0678,31.2407 56.8407,15.1864 60.7458,8.678 62.9153,14.3186 63.7831,36.0136 61.1797,52.0678" stroke="#0034ff" stroke-width="2" /><polyline fill="none" points="40.7864,57.2746 18.2237,75.0644" stroke="#0070ff" stroke-width="2" /><polyline fill="none" points="48.1627,60.7458 21.261,90.6847 18.2237,95.8915 20.3932,96.7593" stroke="#00acff" stroke-width="2" /><polyline fill="none" points="55.539,58.5763 73.7627,66.3864 95.8915,70.2915" stroke="#02e8f4" stroke-width="2" /><polyline fill="none" points="60.3119,52.9356 63.7831,50.7661 70.7254,48.5966" stroke="#32ffc3" stroke-width="2" /><polyline fill="none" points="57.2746,65.5186 76.8,74.6305" stroke="#63ff93" stroke-width="2" /><polyline fill="none" points="38.1831,43.3898 38.1831,44.6915" stroke="#93ff63" stroke-width="2" /><polyline fill="none" points="54.2373,46.4271 53.8034,47.7288" stroke="#c3ff32" stroke-width="2" /><polyline fill="none" points="39.9186,49.8983 39.4847,50.7661" stroke="#f4f802" stroke-width="2" /><polyline fill="none" points="52.5017,74.1966 49.4644,75.4983 41.6542,75.0644 19.5254,70.2915 13.0169,70.7254 9.5458,73.7627 8.678,76.3661 9.5458,86.7797 12.1492,91.9864 17.3559,96.7593 24.2983,97.6271 42.522,96.3254 63.3492,92.8542" stroke="#ffc000" stroke-width="2" /><polyline fill="none" points="15.6203,90.2508 13.0169,95.0237 13.4508,100.2305 22.1288,119.322" stroke="#ff8900" stroke-width="2" /><polyline fill="none" points="33.4102,91.9864 37.3153,110.6441 39.4847,111.9458 40.7864,111.078" stroke="#ff5100" stroke-width="2" /><polyline fill="none" points="48.1627,95.4576 52.5017,98.9288 57.7085,108.9085" stroke="#ff1a00" stroke-width="2" /><polyline fill="none" points="66.8203,85.478 75.0644,103.7017" stroke="#c30000" stroke-width="2" /><polyline fill="none" points="16.0542,69.4237 8.678,50.3322" stroke="#7f0000" stroke-width="2" /></svg>