<?xml version="1.0" encoding="utf-8" ?>
<svg baseProfile="tiny" height="128" version="1.2" viewBox="0,0,128,128" width="128" xmlns="http://www.w3.org/2000/svg" xmlns:ev="http://www.w3.org/2001/xml-events" xmlns:xlink="http://www.w3.org/1999/xlink"><defs /><polyline fill="none" points="21.261,36.4475 21.261,8.678 31.6746,16.0542 38.6169,26.0339 45.1254,21.6949 68.9898,19.0915 75.9322,20.8271 92.8542,28.6373 111.9458,9.5458 119.322,44.6915 119.322,68.5559 113.6814,82.8746 104.5695,92.4203 98.4949,96.7593 80.2712,102.4 68.9898,103.2678 54.2373,102.8339 34.7119,95.8915 30.8068,93.2881 27.7695,88.5153 16.0542,42.522 16.0542,37.7492 18.6576,32.5424 21.6949,30.8068 25.1661,31.6746" stroke="#00007f" stroke-width="2" /><polyline fill="none" points="63.7831,59.878 61.1797,63.3492 64.2169,67.6881 66.3864,68.5559 68.5559,64.6508 64.2169,61.6136" stroke="#0028ff" stroke-width="2" /><polyline fill="none" points="74.6305,60.7458 95.8915,53.8034 108.4746,53.8034" stroke="#00d4ff" stroke-width="2" /><polyline fill="none" points="85.0441,65.0847 97.6271,67.2542" stroke="#7cff79" stroke-width="2" /><polyline fill="none" points="54.2373,64.6508 45.5593,63.3492 8.678,63.7831" stroke="#ffe500" stroke-width="2" /><polyline fill="none" points="52.9356,68.5559 29.939,75.9322 29.0712,76.8 29.939,77.2339" stroke="#ff4600" stroke-width="2" /><polyline fill="none" points="49.4644,36.4475 45.1254,41.6542 45.9932,45.5593 53.8034,47.7288 56.8407,44.6915 56.8407,42.0881 49.8983,35.5797" stroke="#7f0000" stroke-width="2" /></svg>