<?xml version="1.0" encoding="utf-8" ?>
<svg baseProfile="tiny" height="128" version="1.2" viewBox="0,0,128,128" width="128" xmlns="http://www.w3.org/2000/svg" xmlns:ev="http://www.w3.org/2001/xml-events" xmlns:xlink="http://www.w3.org/1999/xlink"><defs /><polyline fill="none" points="105.7201,12.6689 100.4778,10.4846 90.8669,14.8532 87.372,20.9693 86.4983,27.0853 92.6143,33.6382 99.6041,37.1331 109.6519,38.8805 118.3891,37.1331 119.2628,30.1433 114.8942,16.1638 110.5256,11.7952 103.9727,8.7372" stroke="#00007f" stroke-width="2" /><polyline fill="none" points="97.8567,17.4744 97.8567,17.4744" stroke="#0028ff" stroke-width="2" /><polyline fill="none" points="97.8567,17.9113 97.8567,17.9113" stroke="#00d4ff" stroke-width="2" /><polyline fill="none" points="100.9147,20.5324 100.9147,20.5324" stroke="#7cff79" stroke-width="2" /><polyline fill="none" points="107.4676,21.4061 107.4676,21.4061" stroke="#ffe500" stroke-width="2" /><polyline fill="none" points="93.4881,43.686 91.7406,37.1331" stroke="#ff4600" stroke-width="2" /><polyline fill="none" points="87.372,32.7645 83.0034,38.8805 33.6382,53.7338 17.0375,62.471 11.7952,66.4027 8.7372,72.0819 8.7372,76.8874 12.2321,81.6928 26.6485,89.9932 38.4437,93.0512 69.0239,88.2457 77.3242,83.0034 93.0512,63.7816 97.8567,56.3549 101.7884,46.3072" stroke="#7f0000" stroke-width="2" /></svg>