<?xml version="1.0" encoding="utf-8" ?>
<svg baseProfile="tiny" height="128" version="1.2" viewBox="0,0,128,128" width="128" xmlns="http://www.w3.org/2000/svg" xmlns:ev="http://www.w3.org/2001/xml-events" xmlns:xlink="http://www.w3.org/1999/xlink"><defs /><polyline fill="none" points="12.5831,48.5966 8.678,23.4305 27.7695,36.8814 33.4102,45.5593 56.4068,36.4475 68.5559,36.4475 75.9322,40.7864 80.2712,35.5797 96.7593,8.678 97.6271,16.0542 94.5898,42.0881 96.7593,48.1627 99.7966,64.2169 99.3627,70.2915 94.5898,79.8373 85.9119,86.3458 70.2915,92.8542 42.0881,101.5322 38.6169,101.0983 35.1458,100.2305 25.6,94.5898 15.1864,84.1763 11.7153,74.6305 12.5831,66.3864 11.7153,51.2" stroke="#00007f" stroke-width="2" /><polyline fill="none" points="57.7085,64.2169 54.6712,67.2542 53.3695,71.5932 53.3695,74.6305 56.4068,76.3661 59.4441,75.0644 63.3492,67.2542 59.4441,62.0475 64.6508,63.3492 84.1763,63.7831 114.1153,59.4441 119.322,56.8407" stroke="#0080ff" stroke-width="2" /><polyline fill="none" points="63.3492,66.8203 78.9695,76.3661" stroke="#7cff79" stroke-width="2" /><polyline fill="none" points="61.6136,72.8949 72.8949,84.6102" stroke="#ff9400" stroke-width="2" /><polyline fill="none" points="52.5017,70.7254 34.278,68.5559 23.8644,69.8576 10.4136,69.4237" stroke="#7f0000" stroke-width="2" /></svg>