<?xml version="1.0" encoding="utf-8" ?>
<svg baseProfile="tiny" height="128" version="1.2" viewBox="0,0,128,128" width="128" xmlns="http://www.w3.org/2000/svg" xmlns:ev="http://www.w3.org/2001/xml-events" xmlns:xlink="http://www.w3.org/1999/xlink"><defs /><polyline fill="none" points="39.4847,52.0678 38.6169,65.5186" stroke="#00007f" stroke-width="2" /><polyline fill="none" points="48.1627,52.0678 49.8983,70.7254" stroke="#0028ff" stroke-width="2" /><polyline fill="none" points="61.1797,61.1797 61.6136,69.4237 63.3492,73.7627 61.6136,64.2169 56.4068,57.7085 56.8407,49.8983" stroke="#00d4ff" stroke-width="2" /><polyline fill="none" points="78.5356,54.2373 79.8373,75.9322" stroke="#7cff79" stroke-width="2" /><polyline fill="none" points="78.1017,54.6712 85.0441,45.5593 86.7797,39.4847 82.0068,32.5424 73.7627,28.2034 64.6508,20.3932 51.6339,19.0915 32.1085,27.3356 29.0712,33.8441 29.0712,42.9559 32.9763,49.0305 46.4271,49.8983 55.539,53.8034 65.5186,55.539 79.8373,55.539" stroke="#ffe500" stroke-width="2" /><polyline fill="none" points="26.0339,34.7119 24.2983,31.2407 14.7525,30.3729 9.9797,32.1085 8.678,37.3153 17.3559,42.0881 30.3729,42.522" stroke="#ff4600" stroke-width="2" /><polyline fill="none" points="87.6475,38.6169 114.1153,12.5831 119.322,8.678" stroke="#7f0000" stroke-width="2" /></svg>