<?xml version="1.0" encoding="utf-8" ?>
<svg baseProfile="tiny" height="128" version="1.2" viewBox="0,0,128,128" width="128" xmlns="http://www.w3.org/2000/svg" xmlns:ev="http://www.w3.org/2001/xml-events" xmlns:xlink="http://www.w3.org/1999/xlink"><defs /><polyline fill="none" points="25.1661,40.3525 28.6373,36.0136 33.4102,33.8441 44.2576,30.8068 53.3695,30.3729 67.2542,32.5424 78.9695,40.7864 88.0814,53.8034 93.2881,64.2169 97.6271,78.9695 97.6271,96.7593 92.8542,109.3424 82.8746,117.1525 74.1966,119.322 65.5186,118.8881 49.8983,111.5119 31.6746,95.0237 20.3932,77.2339 18.2237,70.7254 17.7898,63.7831 19.5254,50.7661 22.1288,41.6542 26.4678,35.1458 31.6746,32.1085" stroke="#00007f" stroke-width="2" /><polyline fill="none" points="33.8441,36.0136 29.5051,32.5424 19.5254,15.1864 14.3186,10.8475 9.1119,8.678 8.678,13.0169 12.5831,29.939 16.4881,37.7492 19.9593,41.6542" stroke="#0000ff" stroke-width="2" /><polyline fill="none" points="80.2712,39.9186 80.7051,37.7492 82.4407,36.0136 98.061,25.1661 108.0407,16.0542 86.7797,47.7288" stroke="#0080ff" stroke-width="2" /><polyline fill="none" points="51.6339,72.461 55.9729,69.8576 62.0475,70.2915" stroke="#15ffe1" stroke-width="2" /><polyline fill="none" points="52.0678,70.7254 52.9356,77.2339 55.9729,81.139 63.3492,81.5729" stroke="#7cff79" stroke-width="2" /><polyline fill="none" points="60.7458,70.7254 61.6136,77.2339 60.3119,83.3085" stroke="#e4ff12" stroke-width="2" /><polyline fill="none" points="62.0475,71.5932 76.8,67.2542 87.2136,65.9525" stroke="#ff9400" stroke-width="2" /><polyline fill="none" points="68.5559,77.6678 75.0644,72.8949 88.0814,71.5932" stroke="#ff1d00" stroke-width="2" /><polyline fill="none" points="70.7254,85.478 76.8,83.3085 91.9864,82.4407" stroke="#7f0000" stroke-width="2" /></svg>