<?xml version="1.0" encoding="utf-8" ?>
<svg baseProfile="tiny" height="128" version="1.2" viewBox="0,0,128,128" width="128" xmlns="http://www.w3.org/2000/svg" xmlns:ev="http://www.w3.org/2001/xml-events" xmlns:xlink="http://www.w3.org/1999/xlink"><defs /><polyline fill="none" points="33.5238,65.7415 43.102,77.4966" stroke="#00007f" stroke-width="2" /><polyline fill="none" points="43.5374,65.7415 37.0068,66.6122 28.2993,77.932" stroke="#0000de" stroke-width="2" /><polyline fill="none" points="56.5986,64.0 61.8231,64.4354 69.6599,71.4014 75.3197,79.6735 77.932,81.8503 77.932,80.5442" stroke="#0028ff" stroke-width="2" /><polyline fill="none" points="73.5782,60.9524 67.483,67.483 59.6463,80.9796" stroke="#0080ff" stroke-width="2" /><polyline fill="none" points="53.1156,96.2177 43.5374,96.2177 40.4898,98.8299 39.1837,104.4898 45.7143,109.7143 53.551,113.1973 60.517,113.6327 64.4354,107.5374 64.4354,103.619 59.2109,98.3946 53.1156,97.9592" stroke="#00d4ff" stroke-width="2" /><polyline fill="none" points="82.7211,93.1701 74.8844,93.1701 70.0952,94.9116 62.2585,101.8776" stroke="#36ffc0" stroke-width="2" /><polyline fill="none" points="83.1565,105.7959 67.0476,106.6667" stroke="#7cff79" stroke-width="2" /><polyline fill="none" points="60.9524,110.1497 85.7687,117.9864" stroke="#c0ff36" stroke-width="2" /><polyline fill="none" points="41.3605,101.0068 32.6531,97.0884 25.2517,90.9932 24.381,90.5578 23.9456,91.8639" stroke="#ffe500" stroke-width="2" /><polyline fill="none" points="39.619,102.7483 26.1224,102.7483" stroke="#ff9400" stroke-width="2" /><polyline fill="none" points="40.4898,103.619 37.4422,104.4898" stroke="#ff4600" stroke-width="2" /><polyline fill="none" points="37.4422,105.3605 27.8639,107.5374 18.7211,117.1156" stroke="#de0000" stroke-width="2" /><polyline fill="none" points="50.5034,119.2925 29.1701,119.2925 19.5918,107.102 8.7075,73.5782 8.7075,51.8095 10.8844,40.0544 15.2381,28.2993 20.4626,20.0272 26.9932,13.932 37.8776,8.7075 53.1156,8.7075 63.5646,14.3673 73.1429,22.2041" stroke="#7f0000" stroke-width="2" /></svg>