<?xml version="1.0" encoding="utf-8" ?>
<svg baseProfile="tiny" height="128" version="1.2" viewBox="0,0,128,128" width="128" xmlns="http://www.w3.org/2000/svg" xmlns:ev="http://www.w3.org/2001/xml-events" xmlns:xlink="http://www.w3.org/1999/xlink"><defs /><polyline fill="none" points="55.9729,26.9017 53.8034,26.0339 51.2,26.9017 50.7661,32.1085 52.9356,33.8441 55.9729,33.8441 57.7085,29.5051 55.9729,25.6 53.3695,26.9017 51.2,30.3729 52.0678,32.1085 54.6712,32.5424 56.4068,29.5051 55.1051,27.7695 53.3695,28.6373 55.1051,31.6746 56.8407,28.6373" stroke="#00007f" stroke-width="2" /><polyline fill="none" points="71.1593,27.3356 70.2915,26.0339 67.2542,26.4678 66.3864,29.0712 67.2542,31.6746 69.8576,32.9763 72.8949,31.6746 73.7627,28.2034 72.0271,26.0339 68.9898,26.9017 68.122,29.5051 70.7254,30.3729 69.8576,26.4678" stroke="#0000f1" stroke-width="2" /><polyline fill="none" points="60.3119,36.0136 58.5763,44.2576 65.9525,42.9559 60.3119,33.8441 58.5763,36.4475 57.7085,41.2203 60.3119,37.3153 60.7458,44.2576 62.9153,36.8814 64.2169,44.2576" stroke="#004cff" stroke-width="2" /><polyline fill="none" points="38.6169,19.5254 40.3525,8.678 42.522,10.4136 46.4271,17.7898 52.9356,13.0169 56.4068,13.0169 63.3492,14.7525 71.1593,20.3932 78.9695,9.5458 82.0068,20.3932" stroke="#00b0ff" stroke-width="2" /><polyline fill="none" points="77.6678,39.9186 102.8339,28.2034 110.6441,26.4678" stroke="#29ffcd" stroke-width="2" /><polyline fill="none" points="79.4034,46.861 97.6271,39.9186 108.0407,40.3525" stroke="#7cff79" stroke-width="2" /><polyline fill="none" points="76.8,55.1051 98.061,49.8983 109.3424,49.8983 119.322,52.9356" stroke="#cdff29" stroke-width="2" /><polyline fill="none" points="46.861,35.5797 44.2576,34.278 36.4475,33.4102 15.6203,36.8814" stroke="#ffc400" stroke-width="2" /><polyline fill="none" points="52.5017,46.4271 42.0881,44.6915 29.5051,45.5593 8.678,52.0678" stroke="#ff6700" stroke-width="2" /><polyline fill="none" points="52.5017,54.2373 33.4102,59.4441 14.7525,72.461" stroke="#f10700" stroke-width="2" /><polyline fill="none" points="46.4271,58.5763 53.3695,67.6881 61.6136,68.5559 69.8576,63.3492 72.8949,59.0102 75.4983,52.0678" stroke="#7f0000" stroke-width="2" /></svg>