<?xml version="1.0" encoding="utf-8" ?>
<svg baseProfile="tiny" height="128" version="1.2" viewBox="0,0,128,128" width="128" xmlns="http://www.w3.org/2000/svg" xmlns:ev="http://www.w3.org/2001/xml-events" xmlns:xlink="http://www.w3.org/1999/xlink"><defs /><polyline fill="none" points="47.2949,33.4102 45.5593,23.4305 38.6169,9.9797 39.9186,8.678 45.1254,9.9797 59.4441,22.1288 70.2915,17.3559 84.6102,15.1864 91.5525,16.4881 99.3627,24.2983 115.8508,10.8475 113.6814,29.5051 117.1525,36.0136 119.322,48.1627 116.2847,61.1797 108.4746,69.8576 94.5898,79.4034 85.0441,83.3085 80.2712,83.3085 72.0271,79.4034 53.8034,68.122 44.2576,57.7085 39.0508,48.5966 38.1831,40.3525 39.9186,35.1458 42.9559,32.9763 45.9932,32.9763" stroke="#00007f" stroke-width="2" /><polyline fill="none" points="78.5356,58.5763 62.4814,51.2 54.2373,49.0305" stroke="#004cff" stroke-width="2" /><polyline fill="none" points="78.9695,62.0475 66.8203,63.7831 60.3119,66.8203" stroke="#29ffcd" stroke-width="2" /><polyline fill="none" points="86.3458,62.4814 96.3254,56.8407 101.5322,55.1051" stroke="#cdff29" stroke-width="2" /><polyline fill="none" points="87.2136,61.6136 94.1559,64.6508 105.0034,73.3288" stroke="#ff6700" stroke-width="2" /><polyline fill="none" points="39.9186,60.3119 34.7119,58.5763 20.3932,60.3119 12.5831,63.7831 8.678,68.5559" stroke="#7f0000" stroke-width="2" /></svg>