<?xml version="1.0" encoding="utf-8" ?>
<svg baseProfile="tiny" height="128" version="1.2" viewBox="0,0,128,128" width="128" xmlns="http://www.w3.org/2000/svg" xmlns:ev="http://www.w3.org/2001/xml-events" xmlns:xlink="http://www.w3.org/1999/xlink"><defs /><polyline fill="none" points="73.7627,23.4305 63.3492,26.4678 49.4644,34.278 42.522,42.9559 40.3525,50.7661 40.7864,59.4441 42.522,63.7831 55.539,76.3661 65.9525,83.3085 71.1593,85.0441 85.478,85.478 92.4203,79.8373 101.5322,68.122 104.5695,60.7458 105.4373,49.4644 104.5695,42.0881 101.5322,35.5797 91.9864,25.1661 85.0441,22.1288 60.3119,19.5254" stroke="#00007f" stroke-width="2" /><polyline fill="none" points="90.6847,23.4305 93.2881,19.9593 100.2305,15.6203 119.322,8.678 119.322,20.3932 111.9458,45.1254" stroke="#0000e8" stroke-width="2" /><polyline fill="none" points="59.0102,28.6373 51.2,25.6 9.9797,25.1661 8.678,30.8068 13.0169,36.8814 27.3356,46.4271 33.4102,53.3695" stroke="#0038ff" stroke-width="2" /><polyline fill="none" points="64.6508,32.1085 63.7831,42.0881 65.5186,48.5966" stroke="#0094ff" stroke-width="2" /><polyline fill="none" points="82.4407,31.2407 83.3085,48.1627" stroke="#0cf4ea" stroke-width="2" /><polyline fill="none" points="74.6305,58.1424 70.7254,59.878 70.2915,66.3864 73.3288,68.9898 77.2339,68.9898 80.2712,67.2542 81.139,58.5763 76.3661,54.6712" stroke="#56ffa0" stroke-width="2" /><polyline fill="none" points="79.4034,56.8407 81.5729,54.6712 91.9864,53.3695" stroke="#a0ff56" stroke-width="2" /><polyline fill="none" points="79.4034,61.1797 92.8542,61.1797" stroke="#eaff0c" stroke-width="2" /><polyline fill="none" points="79.8373,68.122 85.9119,68.122 94.5898,71.5932" stroke="#ffaa00" stroke-width="2" /><polyline fill="none" points="68.5559,55.1051 65.5186,52.9356 53.3695,51.6339" stroke="#ff5500" stroke-width="2" /><polyline fill="none" points="68.9898,60.3119 55.1051,62.4814" stroke="#e80000" stroke-width="2" /><polyline fill="none" points="71.5932,67.2542 64.6508,67.2542 51.6339,71.5932" stroke="#7f0000" stroke-width="2" /></svg>