<?xml version="1.0" encoding="utf-8" ?>
<svg baseProfile="tiny" height="128" version="1.2" viewBox="0,0,128,128" width="128" xmlns="http://www.w3.org/2000/svg" xmlns:ev="http://www.w3.org/2001/xml-events" xmlns:xlink="http://www.w3.org/1999/xlink"><defs /><polyline fill="none" points="26.9932,49.6327 20.898,47.4558 16.1088,43.102 13.4966,38.3129 13.4966,33.5238 16.1088,28.7347 21.3333,25.6871 28.7347,23.0748 35.7007,23.5102 36.1361,21.3333 34.8299,19.5918 26.5578,19.1565 17.415,22.2041 11.7551,26.5578 8.7075,32.2177 8.7075,42.6667 11.7551,47.8912 19.5918,52.6803 28.7347,53.9864 30.9116,56.1633 31.7823,65.7415 25.6871,75.7551 25.6871,77.4966 29.1701,77.932 35.2653,70.966 38.7483,60.517 41.7959,56.5986 43.5374,60.9524 42.2313,74.0136 44.8435,74.0136 50.5034,58.7755 52.2449,57.034 55.2925,63.1293 56.1633,72.7075 60.0816,74.0136 64.8707,65.3061 68.7891,52.6803 69.2245,76.6259 70.5306,78.8027 73.1429,78.8027 80.9796,70.5306 81.8503,47.8912 95.3469,45.7143 104.0544,37.4422 115.3741,31.3469 118.8571,26.1224 119.2925,22.2041 114.9388,17.8503 104.4898,16.1088 88.8163,18.7211 74.449,29.1701 62.6939,31.7823 44.4082,33.5238 32.2177,39.1837 24.8163,48.7619" stroke="#00007f" stroke-width="2" /><polyline fill="none" points="92.2993,20.4626 94.9116,10.449 97.0884,15.2381" stroke="#004cff" stroke-width="2" /><polyline fill="none" points="97.5238,13.932 98.8299,16.5442" stroke="#29ffcd" stroke-width="2" /><polyline fill="none" points="104.4898,15.2381 106.6667,8.7075 109.7143,16.5442" stroke="#cdff29" stroke-width="2" /><polyline fill="none" points="107.5374,23.9456 110.1497,25.6871 111.0204,22.6395 107.5374,24.8163 113.6327,26.1224" stroke="#ff6700" stroke-width="2" /><polyline fill="none" points="103.1837,32.6531 119.2925,33.0884" stroke="#7f0000" stroke-width="2" /></svg>