<?xml version="1.0" encoding="utf-8" ?>
<svg baseProfile="tiny" height="128" version="1.2" viewBox="0,0,128,128" width="128" xmlns="http://www.w3.org/2000/svg" xmlns:ev="http://www.w3.org/2001/xml-events" xmlns:xlink="http://www.w3.org/1999/xlink"><defs /><polyline fill="none" points="82.8746,32.1085 80.7051,27.7695 80.2712,13.0169 85.478,16.922 90.6847,16.0542 93.722,8.678 99.7966,21.6949 99.7966,29.939 97.6271,32.5424 92.8542,34.278 85.9119,34.7119 82.8746,30.3729" stroke="#00007f" stroke-width="2" /><polyline fill="none" points="88.9492,26.4678 82.8746,27.3356 75.4983,31.2407" stroke="#0000fe" stroke-width="2" /><polyline fill="none" points="87.6475,26.0339 78.5356,34.7119 74.6305,41.6542" stroke="#0060ff" stroke-width="2" /><polyline fill="none" points="91.5525,26.9017 88.9492,29.939 85.478,37.7492 85.0441,43.8237" stroke="#00d4ff" stroke-width="2" /><polyline fill="none" points="88.5153,26.4678 93.2881,20.8271 106.739,19.5254" stroke="#4cffaa" stroke-width="2" /><polyline fill="none" points="91.1186,27.7695 104.5695,29.0712 111.9458,32.9763" stroke="#aaff4c" stroke-width="2" /><polyline fill="none" points="89.8169,25.6 105.0034,21.6949 119.322,20.3932" stroke="#ffe500" stroke-width="2" /><polyline fill="none" points="79.8373,23.8644 50.7661,23.8644 34.7119,28.6373 30.3729,28.6373 19.0915,15.6203 10.4136,14.7525 8.678,19.5254 19.5254,26.0339 27.3356,39.9186 27.3356,45.1254 21.6949,65.0847 22.1288,70.2915 39.9186,69.8576 40.3525,66.3864 37.3153,60.3119 36.4475,45.1254 37.7492,43.3898 47.7288,39.9186 67.2542,39.0508 65.9525,55.9729 66.3864,66.8203 85.478,72.8949 94.1559,72.461 94.5898,70.2915 90.6847,65.5186 81.5729,58.5763 79.4034,51.6339 79.4034,46.4271 82.0068,43.8237 88.0814,41.6542 88.9492,35.1458" stroke="#ff7a00" stroke-width="2" /><polyline fill="none" points="85.0441,24.7322 85.0441,24.7322" stroke="#fe1200" stroke-width="2" /><polyline fill="none" points="95.8915,21.6949 95.8915,21.6949" stroke="#7f0000" stroke-width="2" /></svg>