<?xml version="1.0" encoding="utf-8" ?>
<svg baseProfile="tiny" height="128" version="1.2" viewBox="0,0,128,128" width="128" xmlns="http://www.w3.org/2000/svg" xmlns:ev="http://www.w3.org/2001/xml-events" xmlns:xlink="http://www.w3.org/1999/xlink"><defs /><polyline fill="none" points="65.9525,34.7119 61.1797,33.8441 49.4644,36.0136 39.4847,42.522 34.7119,47.2949 32.9763,52.5017 36.8814,62.0475 43.3898,69.8576 50.7661,76.3661 65.9525,80.7051 72.8949,80.2712 78.1017,78.5356 86.7797,71.1593 88.9492,62.9153 87.6475,55.9729 86.3458,52.0678 78.5356,46.4271 74.1966,45.1254 63.7831,45.5593 55.539,48.5966 52.0678,51.6339" stroke="#00007f" stroke-width="2" /><polyline fill="none" points="49.4644,47.7288 42.9559,34.7119 40.7864,22.5627 44.2576,22.5627 58.5763,37.3153 70.7254,19.5254 79.8373,8.678 80.7051,43.3898 83.3085,47.2949" stroke="#0010ff" stroke-width="2" /><polyline fill="none" points="53.8034,53.3695 56.4068,52.0678" stroke="#00a4ff" stroke-width="2" /><polyline fill="none" points="75.0644,52.5017 75.0644,52.9356" stroke="#3fffb7" stroke-width="2" /><polyline fill="none" points="62.0475,68.5559 34.278,65.0847" stroke="#b7ff3f" stroke-width="2" /><polyline fill="none" points="62.0475,71.5932 46.861,73.3288 33.8441,77.2339 21.261,83.7424 13.4508,91.1186 8.678,98.4949" stroke="#ffb900" stroke-width="2" /><polyline fill="none" points="75.9322,68.9898 94.1559,61.6136 119.322,58.1424" stroke="#ff3000" stroke-width="2" /><polyline fill="none" points="94.5898,70.2915 109.3424,77.2339 119.322,79.8373" stroke="#7f0000" stroke-width="2" /></svg>