<?xml version="1.0" encoding="utf-8" ?>
<svg baseProfile="tiny" height="128" version="1.2" viewBox="0,0,128,128" width="128" xmlns="http://www.w3.org/2000/svg" xmlns:ev="http://www.w3.org/2001/xml-events" xmlns:xlink="http://www.w3.org/1999/xlink"><defs /><polyline fill="none" points="15.6203,49.4644 9.9797,45.5593 8.678,47.7288 9.5458,54.2373" stroke="#00007f" stroke-width="2" /><polyline fill="none" points="15.6203,48.1627 28.6373,46.861 37.7492,35.5797 44.2576,48.1627 43.3898,52.5017" stroke="#0000e8" stroke-width="2" /><polyline fill="none" points="12.1492,55.9729 9.9797,67.2542 12.5831,70.2915 16.4881,72.461 29.0712,71.1593 37.7492,66.3864 39.9186,63.7831" stroke="#0038ff" stroke-width="2" /><polyline fill="none" points="17.3559,60.7458 16.0542,64.6508 13.0169,65.0847" stroke="#0094ff" stroke-width="2" /><polyline fill="none" points="16.4881,63.7831 19.5254,67.6881 23.8644,66.8203" stroke="#0cf4ea" stroke-width="2" /><polyline fill="none" points="28.6373,54.6712 28.6373,54.6712" stroke="#56ffa0" stroke-width="2" /><polyline fill="none" points="25.6,55.539 26.9017,56.8407" stroke="#a0ff56" stroke-width="2" /><polyline fill="none" points="15.1864,55.9729 14.7525,55.9729" stroke="#eaff0c" stroke-width="2" /><polyline fill="none" points="46.4271,52.5017 87.6475,56.8407" stroke="#ffaa00" stroke-width="2" /><polyline fill="none" points="26.4678,73.7627 33.8441,81.139 36.0136,92.4203 36.0136,106.739 38.1831,108.4746 39.9186,85.478 41.6542,83.7424 45.9932,83.7424 47.2949,85.9119 47.7288,92.4203 52.5017,107.6068 55.9729,107.6068 57.2746,105.0034 54.6712,95.8915 54.6712,83.7424 56.8407,82.4407 82.0068,78.9695 87.2136,85.478 98.9288,108.0407 100.6644,104.1356 101.0983,98.4949 96.3254,83.3085" stroke="#ff5500" stroke-width="2" /><polyline fill="none" points="75.0644,82.4407 75.9322,85.478 75.9322,107.1729 80.2712,87.2136" stroke="#e80000" stroke-width="2" /><polyline fill="none" points="87.2136,55.9729 103.7017,42.0881 111.078,31.6746 117.5864,14.7525 118.4542,8.678 119.322,27.7695 116.7186,36.0136 108.9085,44.6915 90.6847,60.7458 95.0237,82.4407" stroke="#7f0000" stroke-width="2" /></svg>