<?xml version="1.0" encoding="utf-8" ?>
<svg baseProfile="tiny" height="128" version="1.2" viewBox="0,0,128,128" width="128" xmlns="http://www.w3.org/2000/svg" xmlns:ev="http://www.w3.org/2001/xml-events" xmlns:xlink="http://www.w3.org/1999/xlink"><defs /><polyline fill="none" points="44.6915,29.0712 34.7119,27.3356 31.2407,28.2034 28.6373,30.3729 25.1661,37.3153 24.7322,42.0881 26.0339,47.2949 27.7695,49.8983 33.8441,52.5017 43.8237,51.6339 55.539,45.5593 57.2746,41.6542 57.2746,37.7492 53.8034,33.8441 44.6915,29.0712" stroke="#00007f" stroke-width="2" /><polyline fill="none" points="27.7695,31.6746 31.6746,9.1119 32.9763,19.5254 35.5797,29.0712 36.0136,30.3729 36.4475,28.2034" stroke="#0000d5" stroke-width="2" /><polyline fill="none" points="40.3525,29.939 39.9186,25.6 47.2949,8.678 46.4271,29.939" stroke="#001cff" stroke-width="2" /><polyline fill="none" points="52.9356,33.4102 55.9729,31.2407 62.0475,32.1085" stroke="#006cff" stroke-width="2" /><polyline fill="none" points="52.5017,33.4102 62.9153,30.8068 75.9322,30.8068 87.2136,33.8441 91.5525,37.3153" stroke="#00b8ff" stroke-width="2" /><polyline fill="none" points="36.4475,55.1051 40.3525,60.3119 46.861,63.3492 64.2169,66.3864 76.3661,65.9525 85.478,64.2169 95.8915,60.3119 101.0983,56.8407" stroke="#1cffda" stroke-width="2" /><polyline fill="none" points="91.5525,37.3153 103.2678,45.1254 117.5864,61.1797" stroke="#5cff9a" stroke-width="2" /><polyline fill="none" points="99.7966,55.9729 117.1525,62.9153 119.322,62.9153 118.0203,61.1797" stroke="#9aff5c" stroke-width="2" /><polyline fill="none" points="41.2203,62.0475 41.6542,78.5356 42.9559,82.0068 47.2949,68.5559 47.2949,59.878" stroke="#daff1c" stroke-width="2" /><polyline fill="none" points="60.3119,68.122 59.878,82.4407 61.1797,93.2881 62.4814,95.4576 68.122,77.2339 70.7254,59.0102" stroke="#ffcb00" stroke-width="2" /><polyline fill="none" points="81.139,66.8203 80.2712,91.5525 82.4407,85.9119 87.2136,56.4068 87.6475,54.6712 88.9492,57.2746" stroke="#ff8500" stroke-width="2" /><polyline fill="none" points="97.1932,62.9153 95.0237,89.3831 104.5695,48.5966" stroke="#ff3b00" stroke-width="2" /><polyline fill="none" points="34.7119,42.0881 33.8441,42.9559 35.1458,44.2576 38.6169,44.6915 35.1458,45.1254" stroke="#d50000" stroke-width="2" /><polyline fill="none" points="44.6915,39.9186 48.1627,36.8814 38.1831,39.4847 8.678,39.4847" stroke="#7f0000" stroke-width="2" /></svg>