<?xml version="1.0" encoding="utf-8" ?>
<svg baseProfile="tiny" height="128" version="1.2" viewBox="0,0,128,128" width="128" xmlns="http://www.w3.org/2000/svg" xmlns:ev="http://www.w3.org/2001/xml-events" xmlns:xlink="http://www.w3.org/1999/xlink"><defs /><polyline fill="none" points="39.9186,24.2983 44.2576,8.678 47.2949,11.2814 55.1051,26.4678" stroke="#00007f" stroke-width="2" /><polyline fill="none" points="76.3661,26.4678 85.478,12.5831 88.0814,15.6203 91.1186,33.4102" stroke="#0000f1" stroke-width="2" /><polyline fill="none" points="74.6305,28.6373 68.5559,26.0339 62.9153,25.6 52.0678,28.2034" stroke="#004cff" stroke-width="2" /><polyline fill="none" points="38.6169,26.0339 30.3729,30.3729 22.9966,39.0508 20.3932,47.2949 21.261,60.7458 24.7322,68.122 34.7119,78.5356 44.2576,83.3085 55.1051,86.3458 66.3864,86.3458 81.139,82.4407 88.5153,77.6678 95.8915,69.8576 100.2305,59.878 101.0983,46.861 96.7593,32.1085 91.9864,29.5051" stroke="#00b0ff" stroke-width="2" /><polyline fill="none" points="92.4203,50.7661 114.9831,51.6339" stroke="#29ffcd" stroke-width="2" /><polyline fill="none" points="89.8169,63.7831 119.322,73.3288" stroke="#7cff79" stroke-width="2" /><polyline fill="none" points="9.5458,59.878 21.6949,58.5763 30.8068,59.4441" stroke="#cdff29" stroke-width="2" /><polyline fill="none" points="8.678,80.7051 19.9593,75.0644 32.9763,71.5932" stroke="#ffc400" stroke-width="2" /><polyline fill="none" points="47.2949,42.522 44.2576,42.0881 41.6542,44.2576 40.7864,48.1627 43.8237,49.8983 45.1254,47.2949 45.1254,45.1254 42.0881,44.2576 42.0881,48.1627" stroke="#ff6700" stroke-width="2" /><polyline fill="none" points="83.7424,46.4271 81.139,44.6915 78.1017,46.4271 76.8,50.3322 78.5356,52.5017 81.139,52.9356 83.3085,50.3322 83.3085,47.2949 80.7051,46.4271 82.0068,49.8983" stroke="#f10700" stroke-width="2" /><polyline fill="none" points="61.1797,57.2746 68.9898,59.0102" stroke="#7f0000" stroke-width="2" /></svg>