<?xml version="1.0" encoding="utf-8" ?>
<svg baseProfile="tiny" height="128" version="1.2" viewBox="0,0,128,128" width="128" xmlns="http://www.w3.org/2000/svg" xmlns:ev="http://www.w3.org/2001/xml-events" xmlns:xlink="http://www.w3.org/1999/xlink"><defs /><polyline fill="none" points="76.3661,37.7492 51.6339,38.1831 26.4678,46.861 11.2814,70.7254 8.678,78.1017 8.678,81.5729 19.5254,94.1559 50.7661,112.3797 62.0475,118.0203 69.8576,119.322 85.9119,110.6441 91.1186,105.4373 90.6847,61.6136 90.6847,59.878 83.7424,53.3695 81.5729,52.9356 65.5186,39.0508" stroke="#00007f" stroke-width="2" /><polyline fill="none" points="25.1661,45.9932 25.1661,16.0542 30.3729,22.9966 42.522,32.1085 52.9356,44.6915" stroke="#0000f1" stroke-width="2" /><polyline fill="none" points="67.2542,36.4475 68.122,33.4102 73.7627,27.3356 74.6305,21.6949 80.7051,8.678 82.4407,10.4136 82.4407,24.2983 88.5153,63.3492 86.3458,62.9153 84.1763,59.4441" stroke="#004cff" stroke-width="2" /><polyline fill="none" points="37.3153,64.6508 38.1831,67.2542" stroke="#00b0ff" stroke-width="2" /><polyline fill="none" points="57.2746,60.3119 57.2746,67.2542" stroke="#29ffcd" stroke-width="2" /><polyline fill="none" points="43.8237,88.9492 43.3898,78.9695 45.5593,77.6678 53.3695,91.5525 41.2203,85.9119" stroke="#7cff79" stroke-width="2" /><polyline fill="none" points="56.4068,91.5525 69.4237,84.6102 75.9322,83.7424 74.1966,81.5729" stroke="#cdff29" stroke-width="2" /><polyline fill="none" points="68.5559,89.3831 73.3288,83.7424 74.1966,79.4034" stroke="#ffc400" stroke-width="2" /><polyline fill="none" points="43.8237,91.9864 34.278,91.9864 30.8068,93.722" stroke="#ff6700" stroke-width="2" /><polyline fill="none" points="39.4847,93.722 22.1288,105.0034 22.1288,101.5322" stroke="#f10700" stroke-width="2" /><polyline fill="none" points="64.2169,100.2305 71.1593,100.2305 79.4034,95.0237" stroke="#7f0000" stroke-width="2" /></svg>