<?xml version="1.0" encoding="utf-8" ?>
<svg baseProfile="tiny" height="128" version="1.2" viewBox="0,0,128,128" width="128" xmlns="http://www.w3.org/2000/svg" xmlns:ev="http://www.w3.org/2001/xml-events" xmlns:xlink="http://www.w3.org/1999/xlink"><defs /><polyline fill="none" points="13.0169,41.6542 17.7898,36.4475 26.9017,30.8068 32.1085,29.5051 39.4847,31.2407 46.4271,37.3153 49.8983,42.522 59.4441,72.0271 68.122,75.9322" stroke="#00007f" stroke-width="2" /><polyline fill="none" points="51.2,52.0678 72.0271,75.9322 75.0644,76.8" stroke="#0000ff" stroke-width="2" /><polyline fill="none" points="76.8,72.461 87.6475,98.9288" stroke="#0080ff" stroke-width="2" /><polyline fill="none" points="63.7831,73.3288 73.3288,78.9695 89.8169,81.5729 95.4576,85.0441 97.1932,94.1559 93.2881,113.2475" stroke="#15ffe1" stroke-width="2" /><polyline fill="none" points="16.4881,39.0508 8.678,48.1627 11.2814,56.4068 15.1864,59.0102 22.1288,60.7458 33.4102,60.7458 34.7119,62.4814 24.7322,85.0441 25.6,95.4576 29.0712,105.8712 37.7492,87.2136 39.4847,85.0441 41.6542,85.0441 45.5593,91.5525 48.1627,108.4746 50.7661,111.078 53.3695,107.6068 56.8407,89.3831 58.5763,87.2136 60.3119,88.0814 62.4814,94.1559 64.6508,111.5119 68.122,115.8508 70.2915,116.7186 74.1966,115.4169 75.0644,100.2305 77.6678,94.1559 81.5729,113.2475 83.7424,116.7186 89.3831,119.322 97.1932,98.9288" stroke="#7cff79" stroke-width="2" /><polyline fill="none" points="93.722,83.3085 106.3051,78.1017 111.5119,77.6678 114.1153,80.7051 114.9831,85.9119 108.0407,92.8542 102.4,95.0237 95.4576,95.0237 90.6847,91.9864" stroke="#e4ff12" stroke-width="2" /><polyline fill="none" points="29.0712,40.7864 29.0712,40.7864" stroke="#ff9400" stroke-width="2" /><polyline fill="none" points="28.6373,30.3729 32.1085,15.6203 35.5797,10.4136 39.9186,8.678 42.0881,9.9797 43.8237,14.3186 42.522,28.6373 43.3898,33.4102" stroke="#ff1d00" stroke-width="2" /><polyline fill="none" points="44.2576,33.8441 47.2949,30.3729 60.7458,22.1288 67.2542,21.6949 71.1593,25.6 68.9898,31.2407 64.6508,35.5797 46.4271,46.4271" stroke="#7f0000" stroke-width="2" /></svg>