<?xml version="1.0" encoding="utf-8" ?>
<svg baseProfile="tiny" height="128" version="1.2" viewBox="0,0,128,128" width="128" xmlns="http://www.w3.org/2000/svg" xmlns:ev="http://www.w3.org/2001/xml-events" xmlns:xlink="http://www.w3.org/1999/xlink"><defs /><polyline fill="none" points="43.8237,11.7153 45.1254,26.0339 43.8237,11.7153 45.5593,10.8475 51.6339,16.0542 57.7085,24.7322 61.6136,20.8271 67.6881,19.0915 83.3085,20.8271 87.6475,24.2983 101.5322,8.678 101.5322,20.3932 104.1356,36.0136 103.7017,39.4847 98.4949,45.5593 85.478,54.2373 68.9898,56.4068 52.5017,55.1051 45.5593,52.0678 39.4847,42.0881 39.4847,31.6746 42.9559,24.2983" stroke="#00007f" stroke-width="2" /><polyline fill="none" points="48.5966,39.0508 31.6746,39.9186 8.678,43.8237" stroke="#0000ff" stroke-width="2" /><polyline fill="none" points="49.0305,44.6915 23.4305,54.6712" stroke="#0080ff" stroke-width="2" /><polyline fill="none" points="58.5763,46.861 48.5966,53.3695 38.6169,63.7831" stroke="#15ffe1" stroke-width="2" /><polyline fill="none" points="89.3831,39.9186 119.322,34.278" stroke="#7cff79" stroke-width="2" /><polyline fill="none" points="85.0441,45.1254 113.6814,49.0305" stroke="#e4ff12" stroke-width="2" /><polyline fill="none" points="81.139,49.4644 98.4949,55.1051 104.1356,58.5763" stroke="#ff9400" stroke-width="2" /><polyline fill="none" points="60.7458,32.9763 60.7458,32.9763" stroke="#ff1d00" stroke-width="2" /><polyline fill="none" points="82.4407,34.278 82.4407,34.278" stroke="#7f0000" stroke-width="2" /></svg>