<?xml version="1.0" encoding="utf-8" ?>
<svg baseProfile="tiny" height="128" version="1.2" viewBox="0,0,128,128" width="128" xmlns="http://www.w3.org/2000/svg" xmlns:ev="http://www.w3.org/2001/xml-events" xmlns:xlink="http://www.w3.org/1999/xlink"><defs /><polyline fill="none" points="54.2373,38.1831 37.3153,52.0678 26.4678,65.5186 19.0915,83.3085 20.3932,95.8915 25.6,111.078 35.1458,117.5864 41.6542,119.322 52.5017,119.322 65.5186,116.7186 76.3661,109.7763 84.1763,97.1932 89.8169,75.9322 89.8169,68.5559 84.6102,53.3695 77.2339,43.8237 68.9898,36.8814 59.4441,37.3153" stroke="#00007f" stroke-width="2" /><polyline fill="none" points="72.461,30.3729 76.8,29.0712 95.0237,13.8847 107.1729,8.678 102.4,31.2407 96.3254,47.7288 96.3254,59.878" stroke="#0010ff" stroke-width="2" /><polyline fill="none" points="44.6915,49.4644 38.1831,37.3153 31.2407,33.8441 8.678,27.7695 31.2407,60.7458 39.4847,78.9695" stroke="#00a4ff" stroke-width="2" /><polyline fill="none" points="53.3695,78.9695 55.1051,90.2508 58.1424,85.9119 57.2746,79.4034 52.9356,83.3085" stroke="#3fffb7" stroke-width="2" /><polyline fill="none" points="58.5763,89.8169 57.7085,94.1559 58.1424,109.3424 62.0475,115.4169 73.3288,117.5864 111.5119,108.9085" stroke="#b7ff3f" stroke-width="2" /><polyline fill="none" points="55.9729,90.6847 54.2373,96.3254 49.8983,101.0983 38.6169,110.2102 16.4881,111.5119 11.2814,108.0407" stroke="#ffb900" stroke-width="2" /><polyline fill="none" points="68.9898,57.2746 71.5932,60.3119" stroke="#ff3000" stroke-width="2" /><polyline fill="none" points="48.1627,58.1424 49.8983,59.878" stroke="#7f0000" stroke-width="2" /></svg>