<?xml version="1.0" encoding="utf-8" ?>
<svg baseProfile="tiny" height="128" version="1.2" viewBox="0,0,128,128" width="128" xmlns="http://www.w3.org/2000/svg" xmlns:ev="http://www.w3.org/2001/xml-events" xmlns:xlink="http://www.w3.org/1999/xlink"><defs /><polyline fill="none" points="17.3559,55.1051 13.8847,28.2034 8.678,14.7525 16.4881,29.939 27.3356,45.5593" stroke="#00007f" stroke-width="2" /><polyline fill="none" points="30.3729,46.4271 46.861,42.9559 63.3492,42.522 73.3288,46.4271" stroke="#004cff" stroke-width="2" /><polyline fill="none" points="75.0644,48.5966 76.8,42.9559 86.3458,22.9966 91.1186,8.678 90.2508,39.0508 93.2881,53.3695" stroke="#29ffcd" stroke-width="2" /><polyline fill="none" points="16.0542,62.0475 14.3186,65.5186 13.0169,90.2508 13.8847,95.4576 19.0915,105.4373 25.6,111.5119 43.3898,118.0203 52.5017,119.322 69.8576,119.322 80.7051,114.5492 90.2508,106.739 95.8915,99.7966 99.3627,91.5525 100.6644,84.1763 99.7966,75.4983 92.4203,55.1051 90.6847,54.6712" stroke="#cdff29" stroke-width="2" /><polyline fill="none" points="56.8407,85.0441 50.3322,85.478 49.8983,87.6475 51.2,90.2508 57.7085,89.8169 59.0102,86.7797 56.8407,85.478 54.6712,86.7797" stroke="#ff6700" stroke-width="2" /><polyline fill="none" points="58.5763,90.2508 56.8407,95.4576 52.9356,98.4949 47.7288,99.7966 41.2203,99.3627" stroke="#7f0000" stroke-width="2" /></svg>