<?xml version="1.0" encoding="utf-8" ?>
<svg baseProfile="tiny" height="128" version="1.2" viewBox="0,0,128,128" width="128" xmlns="http://www.w3.org/2000/svg" xmlns:ev="http://www.w3.org/2001/xml-events" xmlns:xlink="http://www.w3.org/1999/xlink"><defs /><polyline fill="none" points="62.4814,25.6 49.8983,26.9017 38.6169,29.939 14.3186,40.3525 9.5458,47.2949 8.678,57.7085 9.5458,67.2542 13.4508,74.6305 19.0915,80.7051 31.2407,89.3831 50.3322,100.6644 62.0475,105.0034 83.7424,105.4373 100.2305,99.7966 107.1729,93.722 109.3424,86.3458 108.0407,68.122 103.2678,55.9729 97.1932,44.6915 85.9119,32.1085 81.5729,29.5051 68.122,25.6 62.4814,26.0339" stroke="#00007f" stroke-width="2" /><polyline fill="none" points="62.4814,26.0339 70.7254,8.678 78.9695,24.2983 79.8373,28.6373" stroke="#0000fe" stroke-width="2" /><polyline fill="none" points="19.9593,36.0136 12.5831,18.2237 12.1492,9.9797 18.6576,13.8847 29.5051,25.1661 33.8441,32.1085" stroke="#0060ff" stroke-width="2" /><polyline fill="none" points="44.2576,70.7254 27.3356,74.6305" stroke="#00d4ff" stroke-width="2" /><polyline fill="none" points="53.3695,82.0068 36.8814,92.4203" stroke="#4cffaa" stroke-width="2" /><polyline fill="none" points="57.2746,89.8169 52.5017,106.3051" stroke="#aaff4c" stroke-width="2" /><polyline fill="none" points="86.3458,61.1797 86.3458,61.1797" stroke="#ffe500" stroke-width="2" /><polyline fill="none" points="93.722,46.861 93.722,46.861" stroke="#ff7a00" stroke-width="2" /><polyline fill="none" points="78.1017,62.4814 105.4373,41.2203 113.6814,39.9186" stroke="#fe1200" stroke-width="2" /><polyline fill="none" points="93.2881,75.4983 119.322,64.6508" stroke="#7f0000" stroke-width="2" /></svg>