<?xml version="1.0" encoding="utf-8" ?>
<svg baseProfile="tiny" height="128" version="1.2" viewBox="0,0,128,128" width="128" xmlns="http://www.w3.org/2000/svg" xmlns:ev="http://www.w3.org/2001/xml-events" xmlns:xlink="http://www.w3.org/1999/xlink"><defs /><polyline fill="none" points="43.3898,27.7695 42.9559,26.4678 38.1831,25.1661 29.5051,25.6 18.2237,32.5424 11.2814,41.2203 8.678,51.2 10.4136,59.4441 16.0542,65.0847 22.9966,66.8203 29.939,65.5186 39.0508,61.1797 48.1627,53.8034 52.9356,45.1254 53.3695,37.7492 49.0305,32.1085 42.9559,28.2034 34.278,27.7695" stroke="#00007f" stroke-width="2" /><polyline fill="none" points="38.6169,48.1627 49.8983,42.9559" stroke="#0000c3" stroke-width="2" /><polyline fill="none" points="44.6915,53.3695 54.6712,49.4644" stroke="#0000ff" stroke-width="2" /><polyline fill="none" points="19.5254,47.2949 15.6203,43.3898" stroke="#0034ff" stroke-width="2" /><polyline fill="none" points="12.5831,54.6712 8.678,50.7661" stroke="#0070ff" stroke-width="2" /><polyline fill="none" points="26.9017,37.7492 26.9017,37.7492" stroke="#00acff" stroke-width="2" /><polyline fill="none" points="42.522,36.4475 42.522,36.4475" stroke="#02e8f4" stroke-width="2" /><polyline fill="none" points="27.3356,37.3153 28.6373,36.8814 28.2034,35.1458" stroke="#32ffc3" stroke-width="2" /><polyline fill="none" points="34.278,36.0136 38.1831,36.0136 36.8814,34.278" stroke="#63ff93" stroke-width="2" /><polyline fill="none" points="26.4678,53.3695 27.3356,51.6339 31.6746,52.5017" stroke="#93ff63" stroke-width="2" /><polyline fill="none" points="32.1085,52.5017 82.8746,88.9492" stroke="#c3ff32" stroke-width="2" /><polyline fill="none" points="22.5627,51.2 24.2983,55.9729 26.9017,58.5763 30.3729,52.9356 34.278,56.4068 36.8814,51.2 36.0136,48.1627" stroke="#f4f802" stroke-width="2" /><polyline fill="none" points="17.3559,63.7831 15.6203,82.0068 16.922,98.9288 22.1288,101.0983 36.4475,101.9661 43.8237,99.7966 45.9932,95.0237 45.9932,86.7797 39.9186,62.4814" stroke="#ffc000" stroke-width="2" /><polyline fill="none" points="42.522,70.2915 36.8814,69.4237 30.8068,78.1017" stroke="#ff8900" stroke-width="2" /><polyline fill="none" points="13.8847,77.2339 20.8271,67.2542 23.8644,66.8203 28.6373,70.7254 28.2034,79.8373" stroke="#ff5100" stroke-width="2" /><polyline fill="none" points="16.922,101.5322 18.6576,114.5492 22.1288,118.4542 24.7322,119.322 26.0339,118.0203 26.4678,111.078 26.4678,116.2847 28.2034,115.4169 29.0712,116.7186 29.939,114.9831 29.0712,103.7017" stroke="#ff1a00" stroke-width="2" /><polyline fill="none" points="41.6542,102.4 41.2203,107.6068 42.9559,113.6814 47.7288,119.322 50.7661,113.6814" stroke="#c30000" stroke-width="2" /><polyline fill="none" points="75.0644,39.4847 77.6678,20.3932 80.7051,14.3186 85.478,8.678 86.3458,13.0169 83.7424,28.2034 85.0441,31.6746 93.722,30.8068 107.1729,26.0339 110.6441,29.5051 109.7763,40.3525 106.3051,52.0678" stroke="#7f0000" stroke-width="2" /></svg>