<?xml version="1.0" encoding="utf-8" ?>
<svg baseProfile="tiny" height="128" version="1.2" viewBox="0,0,128,128" width="128" xmlns="http://www.w3.org/2000/svg" xmlns:ev="http://www.w3.org/2001/xml-events" xmlns:xlink="http://www.w3.org/1999/xlink"><defs /><polyline fill="none" points="64.2169,37.3153 69.4237,28.2034 83.7424,9.9797 75.0644,33.4102" stroke="#00007f" stroke-width="2" /><polyline fill="none" points="38.1831,35.5797 21.261,12.5831 16.922,8.678 16.4881,12.5831 37.3153,36.0136" stroke="#0000cc" stroke-width="2" /><polyline fill="none" points="44.2576,31.6746 46.4271,29.0712 56.4068,27.3356 73.7627,26.9017 77.6678,29.939 77.6678,37.3153" stroke="#0008ff" stroke-width="2" /><polyline fill="none" points="65.0847,26.9017 58.5763,26.9017 51.6339,30.3729 41.6542,39.9186 36.4475,52.5017 36.0136,60.3119 37.3153,63.3492 42.522,65.9525 58.5763,66.3864 67.2542,63.3492 75.9322,57.7085 84.6102,45.1254 85.0441,38.1831 79.4034,35.1458 62.0475,34.278" stroke="#004cff" stroke-width="2" /><polyline fill="none" points="55.539,51.6339 50.3322,50.3322 50.3322,48.5966 51.6339,48.5966" stroke="#0090ff" stroke-width="2" /><polyline fill="none" points="55.1051,45.9932 66.8203,44.6915 83.7424,36.8814" stroke="#00d4ff" stroke-width="2" /><polyline fill="none" points="56.4068,47.2949 63.7831,45.1254 96.7593,43.3898" stroke="#29ffcd" stroke-width="2" /><polyline fill="none" points="56.8407,55.539 66.3864,52.0678 103.7017,44.6915" stroke="#5fff96" stroke-width="2" /><polyline fill="none" points="49.0305,53.3695 58.5763,49.0305 85.0441,42.522 76.8,42.522 64.2169,46.4271 50.3322,53.3695 35.5797,61.6136 8.678,80.2712" stroke="#96ff5f" stroke-width="2" /><polyline fill="none" points="53.3695,45.5593 52.0678,43.3898 34.7119,54.6712 11.2814,66.8203" stroke="#cdff29" stroke-width="2" /><polyline fill="none" points="58.1424,39.4847 51.6339,46.4271 12.5831,70.2915" stroke="#ffe500" stroke-width="2" /><polyline fill="none" points="40.3525,58.5763 35.1458,60.7458 16.922,75.0644" stroke="#ffa600" stroke-width="2" /><polyline fill="none" points="52.0678,45.5593 52.0678,45.5593" stroke="#ff6700" stroke-width="2" /><polyline fill="none" points="54.2373,40.3525 52.9356,39.9186" stroke="#ff2800" stroke-width="2" /><polyline fill="none" points="71.1593,39.4847 67.6881,39.4847 67.2542,42.9559" stroke="#cc0000" stroke-width="2" /><polyline fill="none" points="52.9356,72.8949 51.2,75.4983 50.7661,110.2102 49.4644,119.322" stroke="#7f0000" stroke-width="2" /></svg>