<?xml version="1.0" encoding="utf-8" ?>
<svg baseProfile="tiny" height="128" version="1.2" viewBox="0,0,128,128" width="128" xmlns="http://www.w3.org/2000/svg" xmlns:ev="http://www.w3.org/2001/xml-events" xmlns:xlink="http://www.w3.org/1999/xlink"><defs /><polyline fill="none" points="16.4881,37.7492 11.7153,41.6542 9.5458,46.861 8.678,53.8034 11.2814,60.3119 21.6949,67.6881 27.3356,69.8576 35.1458,70.2915 42.9559,69.4237 54.2373,65.5186 62.0475,59.878 66.8203,53.8034 70.2915,42.0881 68.9898,38.1831 60.3119,30.8068 52.5017,29.939 44.6915,30.8068" stroke="#00007f" stroke-width="2" /><polyline fill="none" points="20.8271,39.9186 19.0915,26.0339 20.8271,24.7322 22.9966,26.9017 27.7695,37.7492" stroke="#0000d1" stroke-width="2" /><polyline fill="none" points="32.1085,39.0508 38.6169,37.3153 42.9559,37.7492 43.3898,31.2407 45.9932,19.9593 54.2373,37.7492" stroke="#0010ff" stroke-width="2" /><polyline fill="none" points="30.3729,52.5017 30.3729,52.5017" stroke="#0058ff" stroke-width="2" /><polyline fill="none" points="44.2576,46.4271 45.9932,46.4271" stroke="#00a4ff" stroke-width="2" /><polyline fill="none" points="29.0712,50.3322 29.0712,52.5017 30.3729,52.5017" stroke="#05ecf1" stroke-width="2" /><polyline fill="none" points="74.1966,51.6339 89.8169,41.6542 95.4576,39.9186 107.1729,39.0508 111.5119,41.6542 112.3797,43.8237 113.2475,61.6136" stroke="#3fffb7" stroke-width="2" /><polyline fill="none" points="52.0678,63.3492 52.9356,61.1797 51.2,61.1797 47.2949,65.9525 45.9932,72.8949 46.861,76.8 52.9356,80.7051 56.4068,81.139 90.6847,73.7627 102.8339,66.3864 114.5492,62.0475" stroke="#7cff79" stroke-width="2" /><polyline fill="none" points="65.0847,85.478 59.4441,100.2305 60.3119,101.0983" stroke="#b7ff3f" stroke-width="2" /><polyline fill="none" points="76.3661,78.5356 77.6678,93.722" stroke="#f1fc05" stroke-width="2" /><polyline fill="none" points="99.3627,72.461 98.061,75.0644 97.6271,88.5153" stroke="#ffb900" stroke-width="2" /><polyline fill="none" points="109.7763,69.8576 111.5119,85.9119" stroke="#ff7300" stroke-width="2" /><polyline fill="none" points="112.8136,39.0508 115.8508,29.5051 115.4169,18.2237 119.322,8.678" stroke="#ff3000" stroke-width="2" /><polyline fill="none" points="40.7864,55.9729 40.7864,55.9729" stroke="#d10000" stroke-width="2" /><polyline fill="none" points="42.0881,62.9153 42.0881,62.9153" stroke="#7f0000" stroke-width="2" /></svg>