<?xml version="1.0" encoding="utf-8" ?>
<svg baseProfile="tiny" height="128" version="1.2" viewBox="0,0,128,128" width="128" xmlns="http://www.w3.org/2000/svg" xmlns:ev="http://www.w3.org/2001/xml-events" xmlns:xlink="http://www.w3.org/1999/xlink"><defs /><polyline fill="none" points="47.2949,40.3525 72.461,41.6542 72.8949,46.4271 71.5932,58.5763 76.3661,59.878 80.2712,59.0102 83.3085,55.9729 87.2136,46.861 88.0814,39.0508 89.3831,38.1831 88.0814,38.1831" stroke="#00007f" stroke-width="2" /><polyline fill="none" points="47.7288,40.7864 45.5593,56.8407 41.2203,61.6136 38.1831,62.4814 33.4102,62.0475 29.939,57.7085 27.7695,42.522 28.6373,42.0881" stroke="#0000e8" stroke-width="2" /><polyline fill="none" points="25.1661,40.7864 26.0339,29.939 13.8847,40.3525 9.1119,41.2203 8.678,26.0339 11.2814,20.3932 14.7525,16.922 36.0136,8.678 85.478,13.4508 94.1559,17.7898 99.7966,9.1119 105.8712,9.1119 113.2475,11.2814 117.1525,14.7525 119.322,21.261 118.8881,32.1085 115.8508,38.1831 111.078,42.0881 95.4576,35.1458 92.4203,35.1458 91.9864,38.1831 93.722,38.1831" stroke="#0038ff" stroke-width="2" /><polyline fill="none" points="106.739,19.5254 113.2475,21.6949" stroke="#0094ff" stroke-width="2" /><polyline fill="none" points="107.6068,17.7898 106.3051,18.6576 105.4373,24.7322 108.4746,26.0339 110.2102,17.3559" stroke="#0cf4ea" stroke-width="2" /><polyline fill="none" points="100.2305,28.6373 111.5119,34.7119 116.2847,34.7119" stroke="#56ffa0" stroke-width="2" /><polyline fill="none" points="41.2203,25.1661 39.9186,32.9763 36.8814,41.2203" stroke="#a0ff56" stroke-width="2" /><polyline fill="none" points="40.7864,22.1288 50.7661,21.6949 51.6339,29.939 49.0305,33.4102 47.2949,33.8441 47.7288,37.3153 45.5593,41.2203 42.0881,43.3898 37.3153,43.8237" stroke="#eaff0c" stroke-width="2" /><polyline fill="none" points="64.2169,30.3729 54.6712,35.5797 53.3695,38.6169 54.6712,41.6542 56.8407,41.2203 59.0102,36.0136" stroke="#ffaa00" stroke-width="2" /><polyline fill="none" points="75.9322,29.939 72.8949,35.1458 72.8949,41.6542" stroke="#ff5500" stroke-width="2" /><polyline fill="none" points="78.5356,16.922 78.5356,16.922" stroke="#e80000" stroke-width="2" /><polyline fill="none" points="83.7424,19.0915 83.7424,19.0915" stroke="#7f0000" stroke-width="2" /></svg>