<?xml version="1.0" encoding="utf-8" ?>
<svg baseProfile="tiny" height="128" version="1.2" viewBox="0,0,128,128" width="128" xmlns="http://www.w3.org/2000/svg" xmlns:ev="http://www.w3.org/2001/xml-events" xmlns:xlink="http://www.w3.org/1999/xlink"><defs /><polyline fill="none" points="13.0169,44.2576 11.7153,42.0881 11.7153,37.7492 16.0542,12.5831 17.7898,14.7525 22.9966,35.5797" stroke="#00007f" stroke-width="2" /><polyline fill="none" points="21.6949,33.8441 40.3525,33.4102 46.4271,34.7119 49.0305,17.3559 53.3695,8.678 59.878,33.8441" stroke="#0000e8" stroke-width="2" /><polyline fill="none" points="9.9797,40.3525 8.678,42.522 8.678,52.5017 11.7153,60.3119 19.0915,68.9898 24.2983,72.461 31.6746,74.1966 38.1831,73.7627 54.2373,63.7831 59.878,54.6712 59.878,41.6542" stroke="#0038ff" stroke-width="2" /><polyline fill="none" points="22.1288,63.3492 32.5424,63.7831" stroke="#0094ff" stroke-width="2" /><polyline fill="none" points="26.0339,41.2203 26.0339,41.2203" stroke="#0cf4ea" stroke-width="2" /><polyline fill="none" points="41.6542,41.6542 47.2949,41.2203" stroke="#56ffa0" stroke-width="2" /><polyline fill="none" points="22.1288,42.9559 24.7322,43.3898" stroke="#a0ff56" stroke-width="2" /><polyline fill="none" points="30.8068,62.0475 42.522,59.4441" stroke="#eaff0c" stroke-width="2" /><polyline fill="none" points="29.939,48.1627 30.3729,59.878 28.2034,62.4814" stroke="#ffaa00" stroke-width="2" /><polyline fill="none" points="28.6373,49.0305 31.6746,59.4441 34.278,62.4814 36.4475,62.4814" stroke="#ff5500" stroke-width="2" /><polyline fill="none" points="41.2203,73.7627 42.522,81.5729 54.2373,101.9661" stroke="#e80000" stroke-width="2" /><polyline fill="none" points="21.261,72.461 27.3356,115.8508 29.939,119.322 32.1085,116.2847 33.4102,101.0983 37.3153,113.6814" stroke="#7f0000" stroke-width="2" /></svg>