<?xml version="1.0" encoding="utf-8" ?>
<svg baseProfile="tiny" height="128" version="1.2" viewBox="0,0,128,128" width="128" xmlns="http://www.w3.org/2000/svg" xmlns:ev="http://www.w3.org/2001/xml-events" xmlns:xlink="http://www.w3.org/1999/xlink"><defs /><polyline fill="none" points="59.878,22.9966 48.5966,25.1661 41.6542,28.2034 25.6,42.0881 23.4305,46.4271 22.9966,56.4068 26.9017,66.3864 33.4102,71.1593 46.4271,75.4983 71.5932,77.2339 90.6847,72.461 101.9661,65.5186 108.4746,50.7661 108.0407,43.3898 102.4,36.0136 95.0237,30.3729 86.7797,26.0339 65.5186,23.4305 61.6136,26.0339" stroke="#00007f" stroke-width="2" /><polyline fill="none" points="48.1627,27.3356 37.7492,24.7322 20.3932,11.7153 13.4508,8.678 10.4136,13.4508 8.678,18.6576 9.9797,27.3356 12.5831,31.6746 22.1288,38.6169 26.0339,40.3525 29.0712,39.9186" stroke="#004cff" stroke-width="2" /><polyline fill="none" points="83.3085,26.9017 95.8915,21.261 107.6068,18.6576 119.322,11.2814 108.9085,34.7119 104.5695,41.6542" stroke="#29ffcd" stroke-width="2" /><polyline fill="none" points="45.1254,42.9559 45.1254,42.9559" stroke="#cdff29" stroke-width="2" /><polyline fill="none" points="82.8746,45.9932 82.8746,45.9932" stroke="#ff6700" stroke-width="2" /><polyline fill="none" points="46.861,59.0102 59.878,64.2169" stroke="#7f0000" stroke-width="2" /></svg>