<?xml version="1.0" encoding="utf-8" ?>
<svg baseProfile="tiny" height="128" version="1.2" viewBox="0,0,128,128" width="128" xmlns="http://www.w3.org/2000/svg" xmlns:ev="http://www.w3.org/2001/xml-events" xmlns:xlink="http://www.w3.org/1999/xlink"><defs /><polyline fill="none" points="12.6259,27.4286 12.6259,11.3197 13.4966,10.449 24.381,24.381" stroke="#00007f" stroke-width="2" /><polyline fill="none" points="26.5578,21.3333 25.6871,21.7687 37.0068,25.2517 46.585,26.1224 55.7279,8.7075 56.5986,9.1429 63.1293,23.5102" stroke="#0000d5" stroke-width="2" /><polyline fill="none" points="8.7075,26.5578 9.1429,50.068 12.6259,57.034 23.5102,65.7415 34.8299,68.3537 42.6667,68.3537 49.1973,67.483 58.3401,63.5646 63.5646,58.7755 66.6122,53.551 71.4014,33.5238 66.6122,25.2517 63.5646,22.6395" stroke="#001cff" stroke-width="2" /><polyline fill="none" points="19.1565,38.3129 19.1565,47.0204" stroke="#006cff" stroke-width="2" /><polyline fill="none" points="50.068,36.5714 51.8095,47.8912" stroke="#00b8ff" stroke-width="2" /><polyline fill="none" points="30.4762,48.7619 37.4422,49.1973 37.8776,50.9388 35.2653,53.9864 30.4762,48.7619" stroke="#1cffda" stroke-width="2" /><polyline fill="none" points="33.9592,54.8571 28.7347,61.8231 23.0748,61.8231 19.1565,58.7755" stroke="#5cff9a" stroke-width="2" /><polyline fill="none" points="33.5238,54.8571 35.2653,60.9524 39.1837,64.0 47.0204,64.4354 50.5034,60.517" stroke="#9aff5c" stroke-width="2" /><polyline fill="none" points="66.1769,55.7279 97.5238,47.4558 108.4082,47.0204 111.4558,48.3265 117.9864,53.9864 119.2925,58.3401 118.8571,64.8707 116.2449,68.3537 105.3605,75.3197 96.6531,77.932 77.4966,77.4966 63.5646,72.7075 56.5986,68.3537 52.2449,63.5646" stroke="#daff1c" stroke-width="2" /><polyline fill="none" points="59.2109,70.966 57.4694,72.2721 53.9864,79.6735" stroke="#ffcb00" stroke-width="2" /><polyline fill="none" points="73.1429,73.5782 72.7075,85.7687" stroke="#ff8500" stroke-width="2" /><polyline fill="none" points="87.5102,80.5442 96.2177,92.7347" stroke="#ff3b00" stroke-width="2" /><polyline fill="none" points="107.102,76.1905 112.7619,80.5442 115.8095,84.4626" stroke="#d50000" stroke-width="2" /><polyline fill="none" points="111.0204,52.6803 116.6803,45.2789 117.9864,36.1361 117.9864,30.0408 111.4558,16.1088 111.4558,13.0612 112.7619,11.7551" stroke="#7f0000" stroke-width="2" /></svg>