<?xml version="1.0" encoding="utf-8" ?>
<svg baseProfile="tiny" height="128" version="1.2" viewBox="0,0,128,128" width="128" xmlns="http://www.w3.org/2000/svg" xmlns:ev="http://www.w3.org/2001/xml-events" xmlns:xlink="http://www.w3.org/1999/xlink"><defs /><polyline fill="none" points="27.3356,76.8 21.6949,75.4983 11.2814,68.122 9.1119,65.0847 8.678,59.0102 12.5831,51.2 28.2034,42.9559 37.7492,42.522 43.8237,45.5593 49.8983,51.2 51.2,55.539 51.2,62.0475 47.2949,70.2915 43.8237,72.8949 34.7119,75.4983" stroke="#00007f" stroke-width="2" /><polyline fill="none" points="14.3186,58.5763 19.5254,54.6712 26.0339,53.3695 27.7695,54.2373 29.0712,59.0102" stroke="#0000de" stroke-width="2" /><polyline fill="none" points="10.8475,58.1424 15.6203,59.878 25.1661,59.878 30.3729,58.5763" stroke="#0028ff" stroke-width="2" /><polyline fill="none" points="34.278,57.7085 37.3153,54.2373 42.522,52.9356 45.5593,52.9356 48.1627,56.8407" stroke="#0080ff" stroke-width="2" /><polyline fill="none" points="29.939,58.5763 41.6542,61.6136 45.5593,61.6136 51.6339,58.5763" stroke="#00d4ff" stroke-width="2" /><polyline fill="none" points="9.1119,54.6712 9.5458,40.3525 14.3186,36.4475 20.3932,35.5797 21.261,40.3525" stroke="#36ffc0" stroke-width="2" /><polyline fill="none" points="19.0915,34.278 20.3932,49.4644" stroke="#7cff79" stroke-width="2" /><polyline fill="none" points="42.9559,42.9559 50.3322,36.0136 55.9729,45.1254 55.9729,55.539" stroke="#c0ff36" stroke-width="2" /><polyline fill="none" points="74.1966,71.1593 42.9559,71.5932 29.5051,74.1966 24.7322,76.3661 18.6576,85.478 18.2237,93.2881 21.6949,99.3627 29.5051,101.5322 59.878,101.0983 72.8949,95.8915 79.8373,85.0441 80.2712,71.1593" stroke="#ffe500" stroke-width="2" /><polyline fill="none" points="71.5932,65.9525 74.1966,61.1797 74.6305,49.4644 72.0271,44.2576 65.0847,39.0508 64.2169,36.8814 68.122,29.0712 68.9898,23.8644 66.3864,19.9593 60.3119,15.6203 58.5763,10.4136 62.0475,8.678 64.2169,9.5458 65.0847,13.0169 64.2169,20.8271 68.9898,31.6746 76.3661,36.4475 79.4034,42.0881 77.2339,48.5966 76.8,65.5186 68.5559,75.4983" stroke="#ff9400" stroke-width="2" /><polyline fill="none" points="25.6,100.2305 23.4305,103.2678 22.9966,116.2847" stroke="#ff4600" stroke-width="2" /><polyline fill="none" points="38.6169,103.7017 37.7492,113.2475 40.3525,119.322" stroke="#de0000" stroke-width="2" /><polyline fill="none" points="56.8407,102.8339 62.9153,115.8508" stroke="#7f0000" stroke-width="2" /></svg>