<?xml version="1.0" encoding="utf-8" ?>
<svg baseProfile="tiny" height="128" version="1.2" viewBox="0,0,128,128" width="128" xmlns="http://www.w3.org/2000/svg" xmlns:ev="http://www.w3.org/2001/xml-events" xmlns:xlink="http://www.w3.org/1999/xlink"><defs /><polyline fill="none" points="39.0508,58.1424 39.9186,45.9932 42.0881,42.0881 47.2949,37.7492 61.1797,32.1085 78.5356,30.8068 89.8169,39.0508 95.4576,50.7661 95.4576,62.4814 89.3831,71.5932 80.7051,78.5356 68.5559,82.8746 50.7661,84.1763 42.522,80.7051 37.7492,74.1966 36.8814,64.2169 38.1831,58.1424 46.4271,45.1254 54.2373,41.6542" stroke="#00007f" stroke-width="2" /><polyline fill="none" points="47.7288,36.8814 44.6915,20.8271 45.1254,8.678 48.5966,11.2814 51.2,15.6203 56.8407,35.5797" stroke="#0000ff" stroke-width="2" /><polyline fill="none" points="75.4983,31.2407 90.6847,22.5627 104.1356,18.2237 88.0814,38.6169" stroke="#0080ff" stroke-width="2" /><polyline fill="none" points="95.8915,63.3492 97.1932,62.0475 119.322,62.9153" stroke="#15ffe1" stroke-width="2" /><polyline fill="none" points="93.2881,67.6881 114.9831,71.5932" stroke="#7cff79" stroke-width="2" /><polyline fill="none" points="91.5525,68.5559 104.5695,82.8746" stroke="#e4ff12" stroke-width="2" /><polyline fill="none" points="39.9186,53.8034 27.3356,52.0678 19.5254,53.8034" stroke="#ff9400" stroke-width="2" /><polyline fill="none" points="38.1831,55.9729 36.0136,55.1051 23.4305,55.539 19.0915,56.4068 13.0169,60.3119" stroke="#ff1d00" stroke-width="2" /><polyline fill="none" points="36.8814,63.7831 31.6746,63.3492 24.7322,65.9525 8.678,77.6678" stroke="#7f0000" stroke-width="2" /></svg>