<?xml version="1.0" encoding="utf-8" ?>
<svg baseProfile="tiny" height="128" version="1.2" viewBox="0,0,128,128" width="128" xmlns="http://www.w3.org/2000/svg" xmlns:ev="http://www.w3.org/2001/xml-events" xmlns:xlink="http://www.w3.org/1999/xlink"><defs /><polyline fill="none" points="41.6542,49.0305 25.6,34.7119 8.678,25.1661 15.1864,52.9356 15.6203,62.9153 17.3559,62.4814" stroke="#00007f" stroke-width="2" /><polyline fill="none" points="75.0644,47.2949 99.7966,18.2237 110.2102,8.678 112.3797,13.8847 112.3797,20.8271 105.4373,53.3695 103.7017,60.3119 103.7017,55.539" stroke="#0000ff" stroke-width="2" /><polyline fill="none" points="87.6475,52.5017 104.5695,25.6 104.1356,38.1831 98.9288,62.9153" stroke="#0080ff" stroke-width="2" /><polyline fill="none" points="33.4102,54.2373 28.2034,49.4644 22.1288,39.4847 19.5254,43.3898 19.5254,48.1627 22.5627,59.0102 24.2983,60.3119" stroke="#15ffe1" stroke-width="2" /><polyline fill="none" points="47.7288,45.5593 66.3864,45.5593 69.4237,47.2949" stroke="#7cff79" stroke-width="2" /><polyline fill="none" points="19.9593,68.122 17.3559,74.6305 17.3559,95.8915 19.5254,102.4 22.1288,106.3051 25.6,108.0407 33.4102,108.0407 43.3898,115.4169 53.3695,119.322 55.9729,119.322 74.1966,109.3424 91.1186,106.739 100.2305,101.0983 104.1356,96.3254 105.8712,91.5525 108.0407,73.7627" stroke="#e4ff12" stroke-width="2" /><polyline fill="none" points="52.9356,87.6475 51.2,94.5898" stroke="#ff9400" stroke-width="2" /><polyline fill="none" points="46.4271,96.7593 40.3525,97.1932" stroke="#ff1d00" stroke-width="2" /><polyline fill="none" points="58.5763,86.3458 57.2746,98.9288 62.9153,104.5695 69.4237,105.4373 74.6305,101.5322" stroke="#7f0000" stroke-width="2" /></svg>