<?xml version="1.0" encoding="utf-8" ?>
<svg baseProfile="tiny" height="128" version="1.2" viewBox="0,0,128,128" width="128" xmlns="http://www.w3.org/2000/svg" xmlns:ev="http://www.w3.org/2001/xml-events" xmlns:xlink="http://www.w3.org/1999/xlink"><defs /><polyline fill="none" points="51.2,19.9593 51.6339,22.5627 42.0881,34.278 34.7119,45.9932 34.7119,52.9356 41.2203,63.3492 49.8983,72.0271 65.0847,78.1017 72.0271,78.1017 80.2712,71.1593 86.3458,56.4068 88.0814,42.9559 84.6102,33.8441 73.7627,18.6576 63.7831,10.4136 59.4441,12.1492 53.8034,17.7898 41.2203,24.7322" stroke="#00007f" stroke-width="2" /><polyline fill="none" points="69.8576,17.7898 77.6678,18.2237 88.9492,14.7525 118.0203,9.1119 119.322,13.0169 114.1153,22.5627 101.0983,36.0136 99.3627,36.0136" stroke="#0000e8" stroke-width="2" /><polyline fill="none" points="42.522,19.5254 38.1831,16.0542 8.678,8.678 10.8475,17.7898 16.4881,29.5051 28.6373,45.9932" stroke="#0038ff" stroke-width="2" /><polyline fill="none" points="45.1254,32.1085 51.2,45.5593 56.4068,43.8237 58.1424,40.7864 57.7085,36.0136 55.9729,33.8441 52.9356,32.9763 51.6339,34.7119" stroke="#0094ff" stroke-width="2" /><polyline fill="none" points="71.1593,44.2576 72.461,35.1458 70.2915,35.5797 65.9525,40.7864 66.3864,47.2949 68.9898,47.7288 73.3288,44.6915 74.6305,39.9186 72.8949,39.4847" stroke="#0cf4ea" stroke-width="2" /><polyline fill="none" points="62.0475,45.9932 64.2169,52.5017 63.3492,55.1051" stroke="#56ffa0" stroke-width="2" /><polyline fill="none" points="64.6508,50.7661 44.2576,54.2373" stroke="#a0ff56" stroke-width="2" /><polyline fill="none" points="53.3695,52.9356 45.9932,59.878 51.6339,60.3119" stroke="#eaff0c" stroke-width="2" /><polyline fill="none" points="65.9525,56.4068 52.5017,63.7831" stroke="#ffaa00" stroke-width="2" /><polyline fill="none" points="65.5186,49.4644 78.1017,46.861" stroke="#ff5500" stroke-width="2" /><polyline fill="none" points="68.9898,53.3695 73.7627,53.3695" stroke="#e80000" stroke-width="2" /><polyline fill="none" points="68.122,53.3695 71.5932,53.3695" stroke="#7f0000" stroke-width="2" /></svg>