<?xml version="1.0" encoding="utf-8" ?>
<svg baseProfile="tiny" height="128" version="1.2" viewBox="0,0,128,128" width="128" xmlns="http://www.w3.org/2000/svg" xmlns:ev="http://www.w3.org/2001/xml-events" xmlns:xlink="http://www.w3.org/1999/xlink"><defs /><polyline fill="none" points="41.6542,87.2136 29.0712,75.4983 26.4678,68.5559 26.4678,59.0102 33.4102,36.0136 38.1831,8.678 42.0881,32.9763 47.2949,38.6169 63.3492,42.0881 65.0847,39.4847 68.122,15.6203 71.5932,10.8475 75.4983,25.1661 87.2136,55.1051 88.9492,62.0475 87.2136,68.5559 79.4034,75.0644 61.6136,81.5729 38.1831,81.5729 33.4102,80.2712 32.1085,77.6678" stroke="#00007f" stroke-width="2" /><polyline fill="none" points="50.3322,53.8034 50.3322,55.1051 48.5966,55.1051" stroke="#0000ff" stroke-width="2" /><polyline fill="none" points="60.3119,55.539 56.8407,55.9729 60.3119,55.1051 60.3119,56.4068" stroke="#0080ff" stroke-width="2" /><polyline fill="none" points="49.0305,67.2542 48.1627,65.0847 52.0678,64.2169 52.0678,66.3864 50.3322,67.6881 47.7288,66.3864 47.7288,64.6508 51.2,64.6508 51.2,66.3864" stroke="#15ffe1" stroke-width="2" /><polyline fill="none" points="51.2,66.3864 53.8034,72.0271 63.3492,78.1017" stroke="#7cff79" stroke-width="2" /><polyline fill="none" points="49.0305,68.122 36.0136,75.0644 28.2034,74.1966" stroke="#e4ff12" stroke-width="2" /><polyline fill="none" points="66.3864,62.9153 98.4949,62.9153" stroke="#ff9400" stroke-width="2" /><polyline fill="none" points="66.3864,65.5186 80.2712,65.5186 119.322,71.1593" stroke="#ff1d00" stroke-width="2" /><polyline fill="none" points="37.3153,58.5763 8.678,58.5763" stroke="#7f0000" stroke-width="2" /></svg>