<?xml version="1.0" encoding="utf-8" ?>
<svg baseProfile="tiny" height="128" version="1.2" viewBox="0,0,128,128" width="128" xmlns="http://www.w3.org/2000/svg" xmlns:ev="http://www.w3.org/2001/xml-events" xmlns:xlink="http://www.w3.org/1999/xlink"><defs /><polyline fill="none" points="34.7119,34.7119 26.9017,56.8407 26.9017,64.6508 34.7119,77.6678 49.4644,91.9864 57.7085,96.7593 66.8203,99.7966 70.7254,99.7966 78.9695,99.3627 84.1763,97.1932 88.9492,94.5898 91.1186,91.1186 83.3085,72.461 83.3085,67.6881 80.2712,64.2169 80.2712,59.878 77.6678,53.8034 72.461,46.4271 60.3119,40.7864 46.4271,38.1831 40.3525,39.0508" stroke="#00007f" stroke-width="2" /><polyline fill="none" points="72.461,48.1627 119.322,14.3186 119.322,18.6576 108.9085,36.0136 107.1729,40.7864 85.9119,67.6881" stroke="#0000ff" stroke-width="2" /><polyline fill="none" points="37.3153,38.1831 19.5254,18.6576 13.8847,10.8475 10.8475,8.678 8.678,13.8847 8.678,21.261 22.5627,49.4644" stroke="#0080ff" stroke-width="2" /><polyline fill="none" points="75.0644,69.8576 82.8746,69.8576 104.5695,64.2169" stroke="#15ffe1" stroke-width="2" /><polyline fill="none" points="80.2712,80.2712 104.5695,78.5356" stroke="#7cff79" stroke-width="2" /><polyline fill="none" points="80.2712,86.3458 85.9119,93.722 99.3627,102.4 98.061,103.2678" stroke="#e4ff12" stroke-width="2" /><polyline fill="none" points="42.9559,69.8576 37.7492,70.2915 28.2034,77.6678 18.6576,81.139" stroke="#ff9400" stroke-width="2" /><polyline fill="none" points="40.3525,80.2712 19.5254,101.9661" stroke="#ff1d00" stroke-width="2" /><polyline fill="none" points="45.5593,86.3458 42.9559,94.5898 37.3153,102.4" stroke="#7f0000" stroke-width="2" /></svg>