<?xml version="1.0" encoding="utf-8" ?>
<svg baseProfile="tiny" height="128" version="1.2" viewBox="0,0,128,128" width="128" xmlns="http://www.w3.org/2000/svg" xmlns:ev="http://www.w3.org/2001/xml-events" xmlns:xlink="http://www.w3.org/1999/xlink"><defs /><polyline fill="none" points="60.517,50.5034 54.8571,45.7143 48.7619,45.7143 41.3605,49.1973 30.9116,57.9048 23.5102,67.0476 18.7211,75.7551 16.9796,84.0272 16.9796,94.0408 20.898,101.4422 26.9932,108.8435 35.7007,114.068 47.0204,117.551 58.7755,119.2925 78.8027,119.2925 86.2041,113.1973 92.2993,105.7959 97.9592,87.0748 97.9592,67.483 93.6054,60.517 87.5102,54.4218 80.1088,50.068 70.966,47.0204 45.2789,45.2789" stroke="#00007f" stroke-width="2" /><polyline fill="none" points="18.2857,65.3061 16.9796,61.3878 16.9796,47.8912 8.7075,21.3333 12.1905,21.7687 30.0408,37.8776 39.619,43.9728 42.6667,44.8435" stroke="#004cff" stroke-width="2" /><polyline fill="none" points="65.7415,46.585 87.0748,8.7075 89.6871,15.2381 90.9932,26.1224 90.9932,55.7279" stroke="#29ffcd" stroke-width="2" /><polyline fill="none" points="69.6599,74.449 66.1769,72.7075 58.7755,73.5782 67.483,74.449 70.966,73.5782 67.483,71.8367 64.0,72.7075 64.0,74.0136" stroke="#cdff29" stroke-width="2" /><polyline fill="none" points="62.6939,77.0612 63.1293,97.5238 61.3878,102.3129 57.9048,105.3605 50.068,105.3605 47.0204,103.619" stroke="#ff6700" stroke-width="2" /><polyline fill="none" points="64.0,74.449 62.2585,78.3673 62.6939,93.1701 69.6599,100.5714" stroke="#7f0000" stroke-width="2" /></svg>