<?xml version="1.0" encoding="utf-8" ?>
<svg baseProfile="tiny" height="128" version="1.2" viewBox="0,0,128,128" width="128" xmlns="http://www.w3.org/2000/svg" xmlns:ev="http://www.w3.org/2001/xml-events" xmlns:xlink="http://www.w3.org/1999/xlink"><defs /><polyline fill="none" points="74.1966,54.2373 69.8576,52.9356 58.5763,52.9356 42.0881,55.539 28.6373,62.4814 19.9593,69.8576 14.3186,78.9695 12.5831,86.7797 12.5831,96.3254 15.1864,104.5695 20.8271,111.5119 28.6373,117.1525 37.3153,119.322 47.7288,119.322 57.2746,116.2847 65.0847,111.078 72.461,101.9661 77.6678,91.1186 82.0068,74.6305 83.7424,40.7864 77.6678,40.3525" stroke="#00007f" stroke-width="2" /><polyline fill="none" points="21.6949,66.3864 16.4881,58.5763 13.8847,35.5797 8.678,8.678 16.0542,12.1492 21.6949,16.4881 42.0881,34.7119 55.539,50.3322 58.1424,51.6339" stroke="#0010ff" stroke-width="2" /><polyline fill="none" points="62.0475,52.5017 76.8,43.3898 85.9119,35.5797 92.4203,26.4678 94.1559,19.5254 91.5525,42.0881 80.7051,66.3864" stroke="#00a4ff" stroke-width="2" /><polyline fill="none" points="46.4271,80.7051 45.1254,83.7424 40.7864,85.478 39.0508,88.5153" stroke="#3fffb7" stroke-width="2" /><polyline fill="none" points="40.3525,83.3085 44.6915,88.5153 47.7288,85.9119 47.7288,82.0068 43.3898,80.2712 40.7864,85.478 40.7864,88.5153 44.2576,88.0814 45.5593,82.0068" stroke="#b7ff3f" stroke-width="2" /><polyline fill="none" points="40.3525,85.9119 39.4847,98.061" stroke="#ffb900" stroke-width="2" /><polyline fill="none" points="20.8271,94.1559 32.5424,99.3627 52.5017,98.9288" stroke="#ff3000" stroke-width="2" /><polyline fill="none" points="40.3525,68.9898 40.3525,68.9898" stroke="#7f0000" stroke-width="2" /></svg>