<?xml version="1.0" encoding="utf-8" ?>
<svg baseProfile="tiny" height="128" version="1.2" viewBox="0,0,128,128" width="128" xmlns="http://www.w3.org/2000/svg" xmlns:ev="http://www.w3.org/2001/xml-events" xmlns:xlink="http://www.w3.org/1999/xlink"><defs /><polyline fill="none" points="74.6305,112.8136 66.8203,114.5492 51.2,114.5492 37.7492,109.3424 29.939,102.4 24.7322,95.0237 22.9966,89.3831 22.5627,78.9695 24.2983,69.4237 29.0712,58.1424 34.7119,50.3322 42.522,45.9932 58.5763,40.3525 75.4983,39.4847 88.0814,43.3898 98.061,52.9356 104.5695,64.6508 108.0407,74.1966 108.9085,88.0814 103.7017,98.4949 92.4203,108.0407 77.2339,114.1153 69.8576,114.1153 66.8203,112.3797" stroke="#00007f" stroke-width="2" /><polyline fill="none" points="77.6678,37.7492 83.3085,28.6373 92.4203,19.9593 105.0034,12.1492 114.1153,9.1119 119.322,8.678 116.2847,21.261 101.9661,45.5593 98.9288,49.0305" stroke="#0000d5" stroke-width="2" /><polyline fill="none" points="88.0814,41.6542 98.061,30.8068 105.8712,27.3356 106.3051,28.6373 105.4373,32.1085 94.5898,45.9932" stroke="#001cff" stroke-width="2" /><polyline fill="none" points="26.0339,62.4814 23.8644,61.6136 15.6203,47.2949 8.678,14.7525 15.1864,12.5831 20.8271,12.5831 29.0712,16.0542 39.9186,28.2034 48.5966,43.8237" stroke="#006cff" stroke-width="2" /><polyline fill="none" points="32.5424,53.3695 29.0712,48.5966 26.4678,34.278 28.6373,33.8441 31.6746,36.0136 41.2203,47.7288" stroke="#00b8ff" stroke-width="2" /><polyline fill="none" points="60.3119,75.0644 67.6881,73.7627 68.5559,75.9322 66.8203,77.2339 63.3492,77.2339 62.4814,75.0644 65.0847,73.3288 68.5559,74.1966 68.5559,76.3661 66.8203,76.8 64.6508,76.8 63.7831,75.0644 65.0847,74.1966 67.6881,75.4983 66.8203,74.6305 66.8203,82.0068 67.6881,87.2136 71.5932,94.5898 75.9322,95.4576" stroke="#1cffda" stroke-width="2" /><polyline fill="none" points="64.2169,74.6305 63.7831,88.0814 61.1797,95.0237 59.878,95.8915 59.878,94.5898" stroke="#5cff9a" stroke-width="2" /><polyline fill="none" points="62.0475,88.0814 68.122,88.9492" stroke="#9aff5c" stroke-width="2" /><polyline fill="none" points="69.8576,81.139 76.8,73.3288 85.0441,66.8203" stroke="#daff1c" stroke-width="2" /><polyline fill="none" points="71.1593,80.7051 93.722,89.8169" stroke="#ffcb00" stroke-width="2" /><polyline fill="none" points="82.0068,76.8 98.9288,75.0644 102.4,78.5356" stroke="#ff8500" stroke-width="2" /><polyline fill="none" points="63.3492,75.9322 51.2,74.1966 44.2576,75.0644 35.1458,79.4034 41.6542,80.7051" stroke="#ff3b00" stroke-width="2" /><polyline fill="none" points="52.9356,82.4407 46.861,84.6102 42.0881,88.5153 38.1831,95.0237 37.7492,99.3627" stroke="#d50000" stroke-width="2" /><polyline fill="none" points="55.9729,85.478 50.7661,98.9288" stroke="#7f0000" stroke-width="2" /></svg>