<?xml version="1.0" encoding="utf-8" ?>
<svg baseProfile="tiny" height="128" version="1.2" viewBox="0,0,128,128" width="128" xmlns="http://www.w3.org/2000/svg" xmlns:ev="http://www.w3.org/2001/xml-events" xmlns:xlink="http://www.w3.org/1999/xlink"><defs /><polyline fill="none" points="14.3673,78.8027 10.0136,66.6122 8.7075,55.7279 9.5782,49.1973 16.5442,39.1837 23.5102,33.5238 27.4286,32.2177 29.1701,18.7211 32.6531,8.7075 36.1361,8.7075 37.4422,10.449 44.8435,34.3946 48.3265,39.619 53.551,38.7483 61.3878,34.8299 70.966,33.5238 83.1565,13.0612 86.6395,11.3197 90.5578,12.1905 92.2993,18.2857 93.1701,35.7007 100.1361,57.034 100.5714,67.0476 99.2653,76.1905 96.2177,86.2041 91.4286,93.1701 68.7891,109.7143" stroke="#00007f" stroke-width="2" /><polyline fill="none" points="12.6259,60.9524 12.6259,66.6122 17.8503,81.8503 28.2993,98.8299 36.5714,105.7959 50.068,111.4558 60.517,117.1156 62.2585,119.2925" stroke="#0010ff" stroke-width="2" /><polyline fill="none" points="79.6735,106.6667 69.6599,112.7619 59.2109,116.2449" stroke="#00a4ff" stroke-width="2" /><polyline fill="none" points="21.7687,57.034 24.8163,54.8571 40.9252,50.068 50.068,50.9388 53.1156,54.4218 49.1973,65.7415 44.4082,71.4014 35.2653,70.5306 25.6871,65.3061" stroke="#3fffb7" stroke-width="2" /><polyline fill="none" points="90.9932,51.8095 68.3537,53.1156 61.8231,55.7279 53.9864,64.0 53.9864,68.3537 55.7279,70.5306 64.8707,74.449 75.7551,74.449 83.5918,71.4014" stroke="#b7ff3f" stroke-width="2" /><polyline fill="none" points="76.1905,65.3061 76.1905,66.1769" stroke="#ffb900" stroke-width="2" /><polyline fill="none" points="52.2449,82.7211 52.6803,91.4286" stroke="#ff3000" stroke-width="2" /><polyline fill="none" points="43.9728,101.8776 67.0476,103.619 74.8844,101.0068" stroke="#7f0000" stroke-width="2" /></svg>