<?xml version="1.0" encoding="utf-8" ?>
<svg baseProfile="tiny" height="128" version="1.2" viewBox="0,0,128,128" width="128" xmlns="http://www.w3.org/2000/svg" xmlns:ev="http://www.w3.org/2001/xml-events" xmlns:xlink="http://www.w3.org/1999/xlink"><defs /><polyline fill="none" points="74.1966,37.3153 55.539,21.6949 48.5966,19.5254 26.9017,18.6576 16.922,23.8644 12.5831,29.5051 9.5458,37.7492 8.678,54.6712 9.5458,64.6508 13.4508,78.5356 19.5254,91.5525 36.8814,112.8136 46.4271,118.0203 54.6712,119.322 70.2915,119.322 79.8373,114.9831 85.478,108.0407 88.5153,92.4203 87.6475,51.2 80.2712,37.7492 66.3864,25.6 66.3864,21.6949" stroke="#00007f" stroke-width="2" /><polyline fill="none" points="47.7288,33.8441 54.6712,13.8847 60.3119,9.5458 65.0847,8.678 70.7254,8.678 76.8,18.6576 79.4034,32.1085 80.2712,50.7661 85.0441,49.0305 93.2881,36.4475 98.4949,31.6746 103.2678,28.6373 112.3797,28.6373 112.3797,41.6542 100.2305,61.1797 98.4949,64.6508 102.4,62.4814" stroke="#004cff" stroke-width="2" /><polyline fill="none" points="43.3898,53.8034 42.522,62.9153 46.4271,66.3864 48.5966,66.3864" stroke="#29ffcd" stroke-width="2" /><polyline fill="none" points="76.3661,42.522 77.2339,55.539" stroke="#cdff29" stroke-width="2" /><polyline fill="none" points="36.4475,74.6305 41.6542,76.3661 45.5593,79.4034 64.2169,98.4949 69.8576,101.5322 75.4983,102.4 84.1763,100.6644" stroke="#ff6700" stroke-width="2" /><polyline fill="none" points="70.7254,70.7254 70.7254,70.7254" stroke="#7f0000" stroke-width="2" /></svg>