<?xml version="1.0" encoding="utf-8" ?>
<svg baseProfile="tiny" height="128" version="1.2" viewBox="0,0,128,128" width="128" xmlns="http://www.w3.org/2000/svg" xmlns:ev="http://www.w3.org/2001/xml-events" xmlns:xlink="http://www.w3.org/1999/xlink"><defs /><polyline fill="none" points="67.3449,38.8014 56.6411,34.3415 45.0453,34.3415 41.4774,36.5714 34.3415,50.8432 31.6655,63.777 33.0035,78.4948 39.2474,88.3066 48.6132,95.4425 78.0488,96.7805 88.3066,84.7387 92.3206,72.6969 94.1045,54.8571 91.8746,50.8432 72.6969,36.5714 62.439,36.1254" stroke="#00007f" stroke-width="2" /><polyline fill="none" points="51.7352,38.3554 53.9652,20.5157 56.6411,11.1498 59.7631,8.9199 73.1429,35.2334" stroke="#0000f1" stroke-width="2" /><polyline fill="none" points="76.2648,39.2474 86.0767,17.8397 87.8606,17.3937 88.7526,45.4913" stroke="#004cff" stroke-width="2" /><polyline fill="none" points="89.1986,67.7909 119.0801,63.777" stroke="#00b0ff" stroke-width="2" /><polyline fill="none" points="87.4146,76.2648 104.3624,76.2648" stroke="#29ffcd" stroke-width="2" /><polyline fill="none" points="80.2787,82.5087 98.1185,94.5505" stroke="#7cff79" stroke-width="2" /><polyline fill="none" points="36.5714,50.8432 32.1115,49.5052 10.7038,33.8955" stroke="#cdff29" stroke-width="2" /><polyline fill="none" points="36.5714,62.885 13.3798,56.1951 9.3659,56.1951 8.9199,57.0871" stroke="#ffc400" stroke-width="2" /><polyline fill="none" points="41.0314,70.0209 30.7735,74.4808 19.1777,82.0627" stroke="#ff6700" stroke-width="2" /><polyline fill="none" points="53.9652,49.5052 52.1812,49.0592 50.8432,50.8432 49.0592,63.777 54.4111,63.777 57.0871,60.6551 57.9791,53.9652 55.7491,51.2892" stroke="#f10700" stroke-width="2" /><polyline fill="none" points="71.8049,52.6272 69.1289,55.3031 68.6829,61.101 70.4669,64.669 74.9268,64.669" stroke="#7f0000" stroke-width="2" /></svg>