<?xml version="1.0" encoding="utf-8" ?>
<svg baseProfile="tiny" height="128" version="1.2" viewBox="0,0,128,128" width="128" xmlns="http://www.w3.org/2000/svg" xmlns:ev="http://www.w3.org/2001/xml-events" xmlns:xlink="http://www.w3.org/1999/xlink"><defs /><polyline fill="none" points="59.878,33.8441 48.5966,32.1085 40.7864,34.7119 29.0712,42.522 17.7898,56.4068 13.0169,65.9525 10.8475,76.8 10.8475,86.7797 14.3186,99.7966 18.2237,107.6068 25.1661,115.4169 32.1085,118.8881 36.8814,119.322 42.522,119.322 52.5017,115.4169 62.0475,109.3424 70.2915,101.5322 77.6678,87.6475 78.5356,68.5559 75.9322,52.0678 69.8576,39.0508 65.5186,35.1458 60.3119,34.7119" stroke="#00007f" stroke-width="2" /><polyline fill="none" points="20.3932,49.4644 19.0915,38.1831 19.0915,16.922 21.6949,10.4136 28.2034,13.0169 30.3729,16.4881 40.3525,35.5797" stroke="#0000f1" stroke-width="2" /><polyline fill="none" points="56.4068,32.9763 64.2169,14.7525 70.2915,9.1119 72.8949,8.678 73.7627,9.9797 75.4983,14.3186 75.9322,22.9966 72.8949,50.3322" stroke="#004cff" stroke-width="2" /><polyline fill="none" points="30.8068,62.0475 33.4102,62.4814" stroke="#00b0ff" stroke-width="2" /><polyline fill="none" points="59.4441,59.4441 59.4441,60.3119" stroke="#29ffcd" stroke-width="2" /><polyline fill="none" points="29.5051,81.5729 39.0508,88.9492 47.7288,91.5525 53.8034,89.3831 58.1424,85.9119 59.4441,79.8373" stroke="#7cff79" stroke-width="2" /><polyline fill="none" points="43.3898,75.0644 43.3898,75.0644" stroke="#cdff29" stroke-width="2" /><polyline fill="none" points="46.4271,77.2339 52.5017,74.1966 65.9525,57.7085" stroke="#ffc400" stroke-width="2" /><polyline fill="none" points="48.1627,77.6678 59.0102,80.7051 68.122,81.5729" stroke="#ff6700" stroke-width="2" /><polyline fill="none" points="50.3322,81.5729 35.5797,69.4237 28.2034,65.0847 23.4305,64.6508" stroke="#f10700" stroke-width="2" /><polyline fill="none" points="47.2949,78.1017 37.7492,78.1017 8.678,84.6102" stroke="#7f0000" stroke-width="2" /></svg>