<?xml version="1.0" encoding="utf-8" ?>
<svg baseProfile="tiny" height="128" version="1.2" viewBox="0,0,128,128" width="128" xmlns="http://www.w3.org/2000/svg" xmlns:ev="http://www.w3.org/2001/xml-events" xmlns:xlink="http://www.w3.org/1999/xlink"><defs /><polyline fill="none" points="37.3153,43.8237 52.5017,36.4475 52.0678,38.1831 59.878,39.4847 59.4441,44.2576 75.4983,42.9559 75.0644,48.5966 80.7051,49.8983 80.7051,51.2 75.4983,58.1424 77.2339,59.4441 70.2915,63.3492 61.1797,64.6508 55.1051,55.539 42.9559,58.5763 38.1831,50.3322 38.1831,45.5593 39.9186,44.2576" stroke="#00007f" stroke-width="2" /><polyline fill="none" points="37.7492,59.0102 32.1085,62.4814 30.3729,64.2169 31.6746,65.0847 26.0339,70.7254 27.7695,73.7627 26.4678,77.2339 29.939,77.2339 36.4475,73.7627 36.0136,68.5559" stroke="#0000e8" stroke-width="2" /><polyline fill="none" points="44.2576,47.7288 44.6915,47.7288" stroke="#0038ff" stroke-width="2" /><polyline fill="none" points="62.0475,63.7831 56.4068,66.3864 57.7085,68.122 56.4068,70.2915 52.0678,73.3288 51.6339,75.0644 53.3695,75.4983 52.0678,80.7051 54.6712,81.5729 62.9153,79.8373 59.4441,69.8576 61.1797,60.7458" stroke="#0094ff" stroke-width="2" /><polyline fill="none" points="33.8441,70.2915 40.7864,62.0475 46.4271,59.0102" stroke="#0cf4ea" stroke-width="2" /><polyline fill="none" points="44.6915,38.6169 49.0305,26.9017 45.9932,25.1661 38.1831,25.1661 36.8814,21.261 31.2407,18.6576 22.9966,19.0915 21.6949,17.7898 17.7898,19.5254 8.678,28.6373 9.5458,32.1085 12.1492,34.278 19.9593,35.1458 22.9966,38.6169 49.0305,42.9559" stroke="#56ffa0" stroke-width="2" /><polyline fill="none" points="11.7153,28.2034 17.7898,26.4678 21.261,27.7695 22.1288,29.0712 18.2237,31.6746 12.1492,31.2407" stroke="#a0ff56" stroke-width="2" /><polyline fill="none" points="25.1661,26.9017 26.4678,25.1661" stroke="#eaff0c" stroke-width="2" /><polyline fill="none" points="22.5627,23.8644 26.9017,24.7322" stroke="#ffaa00" stroke-width="2" /><polyline fill="none" points="30.3729,21.261 35.5797,15.6203 41.2203,12.1492 41.2203,23.4305" stroke="#ff5500" stroke-width="2" /><polyline fill="none" points="28.2034,19.5254 25.6,11.7153 22.5627,8.678 20.3932,10.8475 18.6576,19.5254" stroke="#e80000" stroke-width="2" /><polyline fill="none" points="82.8746,49.4644 86.7797,45.9932 91.1186,45.1254 94.5898,40.3525 98.4949,37.3153 103.7017,39.4847 113.6814,36.4475 119.322,42.0881 109.3424,52.0678 98.4949,58.5763 96.7593,58.1424 95.4576,54.2373 93.2881,52.0678 82.8746,50.7661" stroke="#7f0000" stroke-width="2" /></svg>