<?xml version="1.0" encoding="utf-8" ?>
<svg baseProfile="tiny" height="128" version="1.2" viewBox="0,0,128,128" width="128" xmlns="http://www.w3.org/2000/svg" xmlns:ev="http://www.w3.org/2001/xml-events" xmlns:xlink="http://www.w3.org/1999/xlink"><defs /><polyline fill="none" points="61.1797,28.2034 51.6339,23.8644 42.0881,21.6949 33.4102,21.6949 25.1661,24.7322 17.7898,30.8068 13.8847,39.4847 12.1492,50.7661 13.8847,57.2746 20.3932,63.3492 35.1458,68.122 47.7288,67.6881 58.1424,63.7831 64.6508,56.8407 68.9898,41.6542 67.2542,34.7119 58.1424,24.2983" stroke="#00007f" stroke-width="2" /><polyline fill="none" points="15.1864,32.9763 12.5831,17.3559 14.3186,12.1492 18.6576,13.8847 31.2407,22.5627" stroke="#0000e8" stroke-width="2" /><polyline fill="none" points="49.4644,22.5627 58.1424,12.1492 62.9153,8.678 65.0847,10.4136 65.5186,13.0169 65.5186,28.2034 63.3492,25.1661" stroke="#0038ff" stroke-width="2" /><polyline fill="none" points="21.261,65.0847 15.6203,69.4237 10.4136,82.4407 8.678,104.5695 10.4136,113.2475 12.5831,115.4169" stroke="#0094ff" stroke-width="2" /><polyline fill="none" points="66.8203,55.539 71.1593,59.878 74.1966,66.3864 75.4983,82.4407 66.3864,112.8136" stroke="#0cf4ea" stroke-width="2" /><polyline fill="none" points="64.6508,112.3797 62.9153,112.8136" stroke="#56ffa0" stroke-width="2" /><polyline fill="none" points="76.3661,82.8746 78.9695,84.6102 83.7424,83.3085 91.1186,78.5356 95.4576,73.7627 98.9288,65.5186 102.4,44.2576 105.4373,38.1831 110.2102,33.4102 113.2475,33.4102 115.8508,37.7492 118.8881,52.9356 119.322,68.122 115.4169,84.6102 107.1729,92.8542 99.7966,95.8915 89.8169,96.3254 73.7627,103.2678" stroke="#a0ff56" stroke-width="2" /><polyline fill="none" points="29.939,39.0508 30.3729,38.1831" stroke="#eaff0c" stroke-width="2" /><polyline fill="none" points="50.3322,37.7492 52.0678,36.0136" stroke="#ffaa00" stroke-width="2" /><polyline fill="none" points="39.4847,51.6339 41.2203,50.7661 41.2203,52.0678" stroke="#ff5500" stroke-width="2" /><polyline fill="none" points="46.4271,51.2 65.5186,41.2203" stroke="#e80000" stroke-width="2" /><polyline fill="none" points="47.2949,53.3695 58.1424,53.8034 61.1797,52.9356" stroke="#7f0000" stroke-width="2" /></svg>