<?xml version="1.0" encoding="utf-8" ?>
<svg baseProfile="tiny" height="128" version="1.2" viewBox="0,0,128,128" width="128" xmlns="http://www.w3.org/2000/svg" xmlns:ev="http://www.w3.org/2001/xml-events" xmlns:xlink="http://www.w3.org/1999/xlink"><defs /><polyline fill="none" points="31.6746,42.522 26.0339,44.6915 21.6949,48.5966 15.1864,57.7085 11.7153,65.5186 8.678,78.5356 12.5831,95.0237 17.3559,102.8339 25.6,111.9458 29.0712,114.9831 39.0508,118.8881 45.9932,119.322 53.3695,118.0203 67.6881,110.6441 78.1017,101.0983 83.7424,93.722 89.8169,80.2712 93.722,62.4814 91.9864,49.8983 87.2136,43.3898 77.6678,37.7492 67.2542,33.8441 50.3322,30.8068 44.6915,31.2407 39.4847,33.4102 27.7695,45.9932 17.3559,48.1627 14.3186,44.2576 12.1492,35.1458 11.7153,23.4305 14.3186,18.2237 19.9593,22.1288 31.6746,33.8441 38.1831,37.7492" stroke="#00007f" stroke-width="2" /><polyline fill="none" points="71.5932,31.6746 92.8542,13.0169 99.7966,9.1119 104.1356,8.678 105.0034,10.4136 104.1356,15.6203 93.2881,41.6542" stroke="#0010ff" stroke-width="2" /><polyline fill="none" points="39.9186,58.1424 33.4102,63.3492 26.9017,72.461 28.2034,74.1966 32.1085,73.7627 39.9186,69.8576 44.2576,65.0847 45.5593,59.878 40.7864,57.7085" stroke="#00a4ff" stroke-width="2" /><polyline fill="none" points="61.6136,57.2746 65.5186,55.1051 70.7254,54.6712 82.0068,59.878" stroke="#3fffb7" stroke-width="2" /><polyline fill="none" points="62.0475,59.0102 65.9525,60.7458 76.3661,62.0475 81.5729,60.7458 85.0441,56.4068" stroke="#b7ff3f" stroke-width="2" /><polyline fill="none" points="55.1051,71.1593 49.8983,79.8373 47.2949,87.6475 52.9356,86.7797 58.1424,82.8746 59.4441,78.1017 55.9729,72.8949" stroke="#ffb900" stroke-width="2" /><polyline fill="none" points="54.6712,84.1763 47.7288,96.7593 38.1831,106.3051" stroke="#ff3000" stroke-width="2" /><polyline fill="none" points="55.539,90.2508 55.9729,93.722 62.4814,100.2305 71.1593,103.2678" stroke="#7f0000" stroke-width="2" /></svg>