<?xml version="1.0" encoding="utf-8" ?>
<svg baseProfile="tiny" height="128" version="1.2" viewBox="0,0,128,128" width="128" xmlns="http://www.w3.org/2000/svg" xmlns:ev="http://www.w3.org/2001/xml-events" xmlns:xlink="http://www.w3.org/1999/xlink"><defs /><polyline fill="none" points="32.5424,41.6542 36.0136,61.1797 38.1831,66.8203 43.3898,69.8576 49.0305,70.2915 51.2,69.4237 52.5017,65.5186 43.8237,52.5017 42.522,44.6915 43.3898,39.9186" stroke="#00007f" stroke-width="2" /><polyline fill="none" points="35.1458,44.2576 36.8814,31.2407 26.0339,30.3729 17.7898,26.4678 11.7153,18.2237 8.678,9.5458 17.7898,8.678 26.4678,12.5831 30.8068,17.7898 35.1458,29.939 37.7492,32.5424 53.3695,34.278 63.3492,29.939" stroke="#004cff" stroke-width="2" /><polyline fill="none" points="44.2576,41.2203 66.3864,48.5966 76.3661,47.2949 85.0441,42.9559" stroke="#29ffcd" stroke-width="2" /><polyline fill="none" points="59.0102,28.2034 66.3864,28.2034 89.8169,32.5424 95.8915,32.1085 98.9288,29.0712" stroke="#cdff29" stroke-width="2" /><polyline fill="none" points="86.7797,44.2576 88.5153,52.0678 86.7797,68.122 87.6475,71.1593 91.9864,72.8949 99.3627,73.7627 103.7017,72.8949 106.739,70.2915 106.3051,63.7831 98.061,52.0678 97.1932,46.4271 100.6644,44.6915 105.8712,44.6915 113.6814,48.5966 118.4542,42.0881 119.322,37.3153 113.2475,29.5051 106.3051,26.4678 98.061,28.2034 91.5525,34.7119" stroke="#ff6700" stroke-width="2" /><polyline fill="none" points="96.3254,30.8068 101.5322,11.2814 108.0407,36.4475" stroke="#7f0000" stroke-width="2" /></svg>