<?xml version="1.0" encoding="utf-8" ?>
<svg baseProfile="tiny" height="128" version="1.2" viewBox="0,0,128,128" width="128" xmlns="http://www.w3.org/2000/svg" xmlns:ev="http://www.w3.org/2001/xml-events" xmlns:xlink="http://www.w3.org/1999/xlink"><defs /><polyline fill="none" points="32.1085,49.8983 31.2407,62.4814 40.7864,82.8746 50.3322,91.1186 57.2746,92.8542 75.0644,91.9864 86.3458,86.3458 97.1932,75.9322 105.0034,65.5186 110.2102,52.0678 110.6441,35.1458 107.6068,28.2034 98.061,20.8271 71.5932,9.1119 65.5186,8.678 55.1051,11.7153 43.3898,19.0915 34.7119,28.6373 32.1085,32.1085 28.6373,44.6915 29.0712,51.2 30.8068,54.6712" stroke="#00007f" stroke-width="2" /><polyline fill="none" points="80.7051,70.7254 111.5119,106.3051" stroke="#0000fe" stroke-width="2" /><polyline fill="none" points="83.7424,60.7458 117.1525,80.2712" stroke="#0060ff" stroke-width="2" /><polyline fill="none" points="80.2712,43.3898 96.3254,47.7288 119.322,52.0678" stroke="#00d4ff" stroke-width="2" /><polyline fill="none" points="49.8983,52.0678 43.8237,51.6339 28.2034,56.8407 14.3186,64.6508 8.678,69.8576" stroke="#4cffaa" stroke-width="2" /><polyline fill="none" points="50.7661,63.3492 29.5051,86.7797" stroke="#aaff4c" stroke-width="2" /><polyline fill="none" points="58.5763,78.9695 35.1458,105.4373" stroke="#ffe500" stroke-width="2" /><polyline fill="none" points="51.6339,27.3356 49.8983,30.8068 53.3695,31.2407 56.8407,29.939 56.4068,26.9017" stroke="#ff7a00" stroke-width="2" /><polyline fill="none" points="86.3458,26.0339 82.8746,28.2034" stroke="#fe1200" stroke-width="2" /><polyline fill="none" points="66.3864,49.8983 66.3864,49.8983" stroke="#7f0000" stroke-width="2" /></svg>