<?xml version="1.0" encoding="utf-8" ?>
<svg baseProfile="tiny" height="128" version="1.2" viewBox="0,0,128,128" width="128" xmlns="http://www.w3.org/2000/svg" xmlns:ev="http://www.w3.org/2001/xml-events" xmlns:xlink="http://www.w3.org/1999/xlink"><defs /><polyline fill="none" points="16.922,46.4271 13.4508,35.1458 9.1119,8.678 21.6949,16.0542 31.2407,24.2983 37.7492,33.4102 44.6915,35.1458 85.0441,37.7492 106.739,22.1288 110.6441,17.7898 113.2475,32.9763 112.3797,59.4441 108.4746,72.0271 104.1356,80.7051 93.722,89.8169 83.3085,95.4576 72.461,97.6271 46.4271,98.4949 35.1458,91.9864 23.8644,77.6678 20.8271,68.5559 20.3932,56.8407 15.6203,48.1627" stroke="#00007f" stroke-width="2" /><polyline fill="none" points="42.522,52.9356 43.3898,56.8407 47.2949,58.5763 49.0305,56.8407 45.1254,54.2373 43.3898,54.6712 44.2576,56.8407 45.5593,57.2746 47.2949,56.8407 48.1627,54.6712 45.5593,54.6712 44.2576,57.2746 46.4271,56.8407 47.2949,54.6712" stroke="#0000f1" stroke-width="2" /><polyline fill="none" points="82.0068,52.9356 77.2339,60.3119 80.7051,61.1797 84.1763,59.878 86.3458,57.2746 85.9119,55.1051 84.1763,53.8034 82.4407,55.539 82.0068,58.5763 84.6102,59.878 85.0441,55.1051 82.4407,54.6712 81.5729,55.9729 84.1763,58.5763 84.1763,56.4068" stroke="#004cff" stroke-width="2" /><polyline fill="none" points="64.2169,74.6305 59.4441,70.2915 62.4814,69.4237 64.2169,73.3288 64.6508,71.5932 62.0475,68.9898 62.9153,70.7254 61.6136,70.7254 61.6136,73.3288 60.3119,72.8949 60.3119,74.1966 62.9153,74.1966 63.7831,72.8949 63.3492,70.2915 61.1797,69.8576 61.1797,72.461 62.4814,73.3288 65.0847,72.0271 64.2169,70.7254 61.6136,70.2915 61.6136,71.5932 63.3492,74.6305 64.6508,74.1966 64.2169,77.2339 65.9525,78.9695 73.3288,79.8373 76.3661,77.6678 77.6678,75.4983 76.3661,75.0644" stroke="#00b0ff" stroke-width="2" /><polyline fill="none" points="62.4814,73.7627 64.6508,78.1017 64.2169,82.0068 59.4441,82.8746 55.1051,80.2712" stroke="#29ffcd" stroke-width="2" /><polyline fill="none" points="78.9695,67.6881 114.9831,67.6881 119.322,69.8576 117.1525,70.7254" stroke="#7cff79" stroke-width="2" /><polyline fill="none" points="82.8746,69.4237 88.5153,72.8949 115.8508,82.4407" stroke="#cdff29" stroke-width="2" /><polyline fill="none" points="85.478,75.9322 98.4949,86.3458 102.4,91.5525 101.5322,93.722" stroke="#ffc400" stroke-width="2" /><polyline fill="none" points="52.0678,72.0271 44.2576,70.7254 20.3932,70.2915 14.7525,72.0271 8.678,75.9322" stroke="#ff6700" stroke-width="2" /><polyline fill="none" points="53.3695,74.6305 29.939,78.1017 22.1288,82.0068 20.3932,83.7424 20.3932,86.3458" stroke="#f10700" stroke-width="2" /><polyline fill="none" points="51.6339,77.2339 22.5627,85.0441 16.4881,89.8169 13.8847,94.1559 13.4508,98.4949" stroke="#7f0000" stroke-width="2" /></svg>