<?xml version="1.0" encoding="utf-8" ?>
<svg baseProfile="tiny" height="128" version="1.2" viewBox="0,0,128,128" width="128" xmlns="http://www.w3.org/2000/svg" xmlns:ev="http://www.w3.org/2001/xml-events" xmlns:xlink="http://www.w3.org/1999/xlink"><defs /><polyline fill="none" points="46.585,39.1837 43.102,37.8776 32.6531,37.8776 28.2993,39.1837 13.4966,52.6803 10.8844,57.034 9.5782,63.5646 8.7075,82.2857 12.1905,94.4762 21.7687,110.585 31.3469,117.9864 37.0068,119.2925 60.9524,119.2925 67.9184,116.2449 74.0136,111.4558 85.3333,97.5238 89.2517,90.1224 92.2993,75.7551 90.9932,63.5646 84.0272,51.3741 78.8027,46.585 64.8707,39.619 36.1361,34.3946" stroke="#00007f" stroke-width="2" /><polyline fill="none" points="70.5306,38.3129 70.5306,33.9592 73.1429,26.9932 81.8503,13.4966 84.4626,28.7347 92.2993,47.8912 92.2993,53.551" stroke="#00d4ff" stroke-width="2" /><polyline fill="none" points="30.4762,38.3129 29.1701,10.0136 28.7347,8.7075 26.9932,10.449 16.5442,38.7483 14.8027,54.8571 15.6735,64.4354" stroke="#ffe500" stroke-width="2" /><polyline fill="none" points="46.585,77.932 47.8912,81.415 51.8095,80.9796 53.1156,79.6735 50.068,78.8027 48.7619,81.8503 50.5034,95.3469 53.551,99.7007 58.3401,101.8776 63.5646,101.8776 70.0952,94.9116 70.0952,96.6531 61.8231,101.4422 49.1973,98.8299 32.6531,100.1361" stroke="#7f0000" stroke-width="2" /></svg>