<?xml version="1.0" encoding="utf-8" ?>
<svg baseProfile="tiny" height="128" version="1.2" viewBox="0,0,128,128" width="128" xmlns="http://www.w3.org/2000/svg" xmlns:ev="http://www.w3.org/2001/xml-events" xmlns:xlink="http://www.w3.org/1999/xlink"><defs /><polyline fill="none" points="81.139,37.7492 75.9322,34.7119 65.9525,32.1085 45.1254,31.2407 28.2034,37.7492 21.261,43.8237 17.3559,52.5017 17.3559,59.0102 19.0915,64.6508 29.5051,78.5356 44.6915,88.9492 52.0678,91.1186 68.5559,91.5525 89.8169,83.3085 99.7966,75.9322 101.9661,63.3492 97.6271,49.4644 92.4203,43.3898 86.3458,38.6169 75.0644,34.278" stroke="#00007f" stroke-width="2" /><polyline fill="none" points="78.5356,34.7119 99.3627,25.1661 116.2847,15.1864 117.1525,15.6203 119.322,22.5627 119.322,31.2407 117.1525,42.0881 107.6068,51.2 103.2678,52.9356 99.3627,52.0678" stroke="#0010ff" stroke-width="2" /><polyline fill="none" points="40.7864,29.939 26.0339,22.5627 10.8475,8.678 8.678,19.0915 9.9797,38.1831 12.5831,45.1254 19.0915,52.0678" stroke="#00a4ff" stroke-width="2" /><polyline fill="none" points="56.4068,65.0847 61.6136,65.5186 57.7085,68.5559" stroke="#3fffb7" stroke-width="2" /><polyline fill="none" points="44.6915,45.5593 42.0881,45.5593 40.7864,47.2949 40.7864,51.2 46.4271,51.6339 47.7288,50.7661 48.5966,45.1254 45.9932,43.8237 44.2576,45.1254" stroke="#b7ff3f" stroke-width="2" /><polyline fill="none" points="78.1017,48.5966 75.4983,48.5966 73.7627,50.7661 72.461,55.9729 74.1966,57.7085 78.5356,56.8407 78.9695,51.2 77.2339,49.4644" stroke="#ffb900" stroke-width="2" /><polyline fill="none" points="57.2746,71.1593 55.539,76.8 52.0678,77.2339 49.8983,75.0644" stroke="#ff3000" stroke-width="2" /><polyline fill="none" points="57.7085,71.5932 59.0102,78.5356 62.0475,79.8373 66.8203,78.9695" stroke="#7f0000" stroke-width="2" /></svg>