<?xml version="1.0" encoding="utf-8" ?>
<svg baseProfile="tiny" height="128" version="1.2" viewBox="0,0,128,128" width="128" xmlns="http://www.w3.org/2000/svg" xmlns:ev="http://www.w3.org/2001/xml-events" xmlns:xlink="http://www.w3.org/1999/xlink"><defs /><polyline fill="none" points="101.9661,27.3356 102.4,26.0339 98.061,22.5627 91.5525,20.8271 82.4407,21.261 75.0644,25.6 69.8576,31.2407 65.5186,42.9559 65.5186,55.1051 68.5559,62.4814 77.2339,69.4237 90.6847,71.5932 95.4576,71.1593 103.7017,67.6881 112.8136,60.3119 118.8881,49.0305 118.8881,36.4475 113.2475,26.0339 104.5695,21.6949 98.4949,21.261" stroke="#00007f" stroke-width="2" /><polyline fill="none" points="91.9864,43.3898 91.9864,50.7661 86.7797,53.8034 82.0068,54.2373" stroke="#0000f1" stroke-width="2" /><polyline fill="none" points="92.4203,41.6542 94.1559,50.7661 96.7593,52.0678 103.7017,52.5017" stroke="#004cff" stroke-width="2" /><polyline fill="none" points="81.5729,41.6542 81.139,33.8441" stroke="#00b0ff" stroke-width="2" /><polyline fill="none" points="106.3051,36.4475 105.4373,30.3729" stroke="#29ffcd" stroke-width="2" /><polyline fill="none" points="68.5559,36.8814 68.9898,12.1492 78.1017,21.261" stroke="#7cff79" stroke-width="2" /><polyline fill="none" points="107.6068,19.5254 111.9458,8.678 119.322,26.0339" stroke="#cdff29" stroke-width="2" /><polyline fill="none" points="63.3492,42.9559 51.6339,43.8237 33.8441,51.2 27.7695,55.9729 24.7322,61.1797 24.7322,64.6508 37.7492,71.5932 47.7288,71.5932 65.9525,65.5186" stroke="#ffc400" stroke-width="2" /><polyline fill="none" points="26.9017,63.3492 17.7898,64.6508 10.4136,72.461 8.678,76.3661" stroke="#ff6700" stroke-width="2" /><polyline fill="none" points="39.9186,70.7254 37.7492,80.2712 37.3153,87.2136" stroke="#f10700" stroke-width="2" /><polyline fill="none" points="52.9356,73.3288 52.9356,78.5356 55.539,84.1763" stroke="#7f0000" stroke-width="2" /></svg>