<?xml version="1.0" encoding="utf-8" ?>
<svg baseProfile="tiny" height="128" version="1.2" viewBox="0,0,128,128" width="128" xmlns="http://www.w3.org/2000/svg" xmlns:ev="http://www.w3.org/2001/xml-events" xmlns:xlink="http://www.w3.org/1999/xlink"><defs /><polyline fill="none" points="108.9085,60.3119 108.4746,58.5763 103.7017,55.9729 86.7797,51.6339 59.4441,51.6339 43.3898,55.539 34.278,59.4441 23.8644,67.6881 21.6949,72.0271 20.8271,83.7424 22.1288,86.7797 33.8441,97.6271 43.8237,102.8339 57.2746,106.739 87.2136,108.9085" stroke="#00007f" stroke-width="2" /><polyline fill="none" points="105.8712,104.5695 117.1525,98.9288 118.8881,96.3254 119.322,92.4203 104.5695,61.1797 99.3627,54.2373 94.5898,49.8983" stroke="#0028ff" stroke-width="2" /><polyline fill="none" points="26.9017,63.3492 19.0915,53.3695 10.8475,35.5797 8.678,17.3559 11.2814,15.6203 16.922,19.0915 38.1831,39.9186 50.3322,54.2373" stroke="#00d4ff" stroke-width="2" /><polyline fill="none" points="91.5525,47.7288 94.5898,37.3153 101.9661,25.1661 117.1525,8.678 118.8881,13.4508 118.4542,22.1288 112.8136,52.0678 107.1729,68.122" stroke="#7cff79" stroke-width="2" /><polyline fill="none" points="42.0881,76.3661 42.0881,76.3661" stroke="#ffe500" stroke-width="2" /><polyline fill="none" points="44.2576,68.122 49.0305,70.7254 50.7661,70.7254 48.5966,68.9898" stroke="#ff4600" stroke-width="2" /><polyline fill="none" points="93.2881,72.0271 91.5525,73.3288 91.1186,75.4983 92.4203,74.1966" stroke="#7f0000" stroke-width="2" /></svg>