<?xml version="1.0" encoding="utf-8" ?>
<svg baseProfile="tiny" height="128" version="1.2" viewBox="0,0,128,128" width="128" xmlns="http://www.w3.org/2000/svg" xmlns:ev="http://www.w3.org/2001/xml-events" xmlns:xlink="http://www.w3.org/1999/xlink"><defs /><polyline fill="none" points="45.1254,23.8644 57.2746,19.9593 67.6881,19.5254 87.6475,24.7322 90.2508,21.261 97.6271,16.922 106.739,8.678 108.9085,29.0712 117.5864,42.9559 119.322,52.5017 118.8881,59.4441 112.3797,75.9322 108.4746,80.7051 91.1186,92.8542 78.1017,98.9288 55.9729,101.0983 42.9559,98.4949 30.3729,93.722 18.6576,85.0441 11.7153,73.3288 8.678,54.6712 8.678,44.6915 11.2814,38.6169 16.4881,33.4102 14.7525,19.5254 12.1492,13.4508 13.8847,12.1492 19.9593,13.4508 43.3898,25.1661 50.3322,26.4678" stroke="#00007f" stroke-width="2" /><polyline fill="none" points="64.2169,61.6136 58.5763,61.1797 57.7085,62.4814 58.5763,65.5186 62.9153,66.3864 72.461,62.9153 66.3864,61.1797" stroke="#0000ff" stroke-width="2" /><polyline fill="none" points="55.9729,62.4814 32.5424,60.7458 28.6373,59.878 28.2034,58.5763" stroke="#0080ff" stroke-width="2" /><polyline fill="none" points="51.6339,65.5186 36.0136,68.122" stroke="#15ffe1" stroke-width="2" /><polyline fill="none" points="71.5932,65.5186 95.8915,66.3864" stroke="#7cff79" stroke-width="2" /><polyline fill="none" points="69.8576,61.6136 95.0237,55.9729" stroke="#e4ff12" stroke-width="2" /><polyline fill="none" points="89.3831,49.4644 87.6475,46.861 78.5356,45.1254 70.2915,45.1254 69.4237,46.4271 71.1593,46.861" stroke="#ff9400" stroke-width="2" /><polyline fill="none" points="86.7797,49.4644 82.0068,51.6339 77.2339,51.6339 68.5559,49.0305 66.3864,46.861" stroke="#ff1d00" stroke-width="2" /><polyline fill="none" points="52.5017,44.6915 38.6169,43.3898 36.8814,45.1254 39.4847,45.9932" stroke="#7f0000" stroke-width="2" /></svg>