<?xml version="1.0" encoding="utf-8" ?>
<svg baseProfile="tiny" height="128" version="1.2" viewBox="0,0,128,128" width="128" xmlns="http://www.w3.org/2000/svg" xmlns:ev="http://www.w3.org/2001/xml-events" xmlns:xlink="http://www.w3.org/1999/xlink"><defs /><polyline fill="none" points="62.9153,65.0847 52.5017,64.2169 39.9186,67.2542 24.2983,78.5356 21.261,83.7424 19.0915,99.7966 20.3932,109.7763 25.1661,114.1153 30.3729,116.2847 46.4271,119.322 51.6339,119.322 56.8407,117.1525 72.0271,105.8712 82.8746,95.8915 94.1559,80.7051 98.4949,69.4237 100.6644,58.5763 100.6644,38.1831 85.0441,37.7492 74.6305,39.0508 69.4237,40.7864 41.2203,62.9153" stroke="#00007f" stroke-width="2" /><polyline fill="none" points="26.4678,86.7797 27.3356,82.0068 26.4678,76.3661 14.7525,51.2 11.7153,35.1458 9.5458,8.678 18.2237,19.0915 21.261,24.2983 22.1288,29.5051 26.4678,34.7119 30.3729,45.1254 33.8441,65.9525 37.7492,72.461 39.0508,77.6678 43.8237,81.5729 46.4271,81.5729" stroke="#0010ff" stroke-width="2" /><polyline fill="none" points="71.1593,64.2169 68.122,51.2 69.4237,39.9186 70.2915,34.7119 81.5729,9.1119 85.0441,13.8847 85.0441,29.0712 83.7424,40.3525 80.7051,50.3322" stroke="#00a4ff" stroke-width="2" /><polyline fill="none" points="69.4237,82.8746 54.6712,83.7424" stroke="#3fffb7" stroke-width="2" /><polyline fill="none" points="44.2576,93.2881 22.1288,105.0034 8.678,114.1153" stroke="#b7ff3f" stroke-width="2" /><polyline fill="none" points="79.8373,90.2508 74.6305,90.2508 79.4034,91.1186 95.4576,101.5322 100.6644,102.8339" stroke="#ffb900" stroke-width="2" /><polyline fill="none" points="85.0441,68.122 100.6644,73.3288 100.6644,78.5356" stroke="#ff3000" stroke-width="2" /><polyline fill="none" points="32.5424,85.0441 22.1288,85.0441" stroke="#7f0000" stroke-width="2" /></svg>