<?xml version="1.0" encoding="utf-8" ?>
<svg baseProfile="tiny" height="128" version="1.2" viewBox="0,0,128,128" width="128" xmlns="http://www.w3.org/2000/svg" xmlns:ev="http://www.w3.org/2001/xml-events" xmlns:xlink="http://www.w3.org/1999/xlink"><defs /><polyline fill="none" points="33.8441,100.2305 31.2407,114.1153 31.6746,116.2847 41.6542,117.1525" stroke="#00007f" stroke-width="2" /><polyline fill="none" points="51.6339,98.4949 49.4644,117.5864 53.8034,119.322 59.878,116.2847" stroke="#0000f1" stroke-width="2" /><polyline fill="none" points="78.9695,82.0068 70.7254,105.0034 69.8576,114.1153 71.5932,115.4169 74.1966,113.6814 80.7051,107.6068 89.3831,95.8915 90.6847,91.9864" stroke="#004cff" stroke-width="2" /><polyline fill="none" points="16.4881,85.9119 10.8475,101.0983 8.678,111.9458 13.0169,114.9831 18.2237,115.8508" stroke="#00b0ff" stroke-width="2" /><polyline fill="none" points="15.1864,81.139 17.7898,83.3085 24.2983,84.1763 32.5424,81.5729 65.9525,78.9695 70.2915,78.1017 85.9119,68.122 86.3458,63.7831 81.5729,54.2373 70.2915,47.7288 64.6508,45.9932 49.0305,45.9932 36.4475,51.6339 26.9017,59.878 16.4881,66.8203 11.2814,76.8 13.8847,85.0441 16.0542,86.3458 22.5627,86.7797 32.9763,84.6102" stroke="#29ffcd" stroke-width="2" /><polyline fill="none" points="78.5356,80.2712 77.6678,72.0271" stroke="#7cff79" stroke-width="2" /><polyline fill="none" points="86.7797,54.6712 87.2136,50.3322 92.8542,42.522 104.5695,33.4102 110.2102,33.8441 112.3797,36.4475 114.1153,42.9559 112.3797,48.5966 103.2678,57.7085 90.2508,63.3492 85.9119,63.3492 78.1017,59.0102" stroke="#cdff29" stroke-width="2" /><polyline fill="none" points="88.9492,40.7864 86.7797,28.2034 87.2136,20.8271 88.9492,16.922 96.7593,33.4102" stroke="#ffc400" stroke-width="2" /><polyline fill="none" points="105.4373,28.2034 112.3797,10.4136 114.5492,8.678 115.4169,17.7898 111.078,29.939" stroke="#ff6700" stroke-width="2" /><polyline fill="none" points="104.5695,40.3525 104.5695,40.3525" stroke="#f10700" stroke-width="2" /><polyline fill="none" points="103.2678,40.3525 104.5695,40.3525" stroke="#7f0000" stroke-width="2" /></svg>