<?xml version="1.0" encoding="utf-8" ?>
<svg baseProfile="tiny" height="128" version="1.2" viewBox="0,0,128,128" width="128" xmlns="http://www.w3.org/2000/svg" xmlns:ev="http://www.w3.org/2001/xml-events" xmlns:xlink="http://www.w3.org/1999/xlink"><defs /><polyline fill="none" points="70.0952,114.9388 81.8503,107.5374 87.9456,98.8299 101.0068,69.2245 107.9728,43.5374 107.102,37.8776 102.7483,33.0884 90.9932,26.9932 80.1088,23.0748 57.4694,22.2041 38.3129,30.0408 26.1224,36.1361 13.0612,47.0204 9.5782,53.1156 8.7075,60.0816 8.7075,74.0136 10.449,82.7211 20.0272,100.5714 28.7347,111.8912 37.0068,117.551 44.8435,119.2925 64.8707,118.8571 73.1429,115.8095" stroke="#00007f" stroke-width="2" /><polyline fill="none" points="89.6871,22.6395 111.8912,8.7075 104.4898,23.9456 98.8299,38.7483 97.9592,38.7483" stroke="#0080ff" stroke-width="2" /><polyline fill="none" points="31.3469,16.5442 25.6871,25.6871" stroke="#7cff79" stroke-width="2" /><polyline fill="none" points="37.0068,31.3469 32.6531,25.6871 14.8027,13.932 16.9796,32.6531 21.7687,36.5714 22.2041,38.7483" stroke="#ff9400" stroke-width="2" /><polyline fill="none" points="76.6259,65.7415 73.5782,66.1769 57.9048,77.0612" stroke="#7f0000" stroke-width="2" /></svg>