<?xml version="1.0" encoding="utf-8" ?>
<svg baseProfile="tiny" height="128" version="1.2" viewBox="0,0,128,128" width="128" xmlns="http://www.w3.org/2000/svg" xmlns:ev="http://www.w3.org/2001/xml-events" xmlns:xlink="http://www.w3.org/1999/xlink"><defs /><polyline fill="none" points="33.4102,84.1763 17.3559,85.478 10.4136,80.7051 9.5458,78.1017 9.1119,74.6305 13.8847,66.3864 26.0339,53.3695 30.3729,51.6339 35.5797,52.0678 41.2203,55.9729 42.9559,69.8576 39.0508,79.4034 36.4475,81.139" stroke="#00007f" stroke-width="2" /><polyline fill="none" points="31.2407,77.2339 19.0915,79.8373" stroke="#0000e8" stroke-width="2" /><polyline fill="none" points="28.6373,64.2169 28.6373,62.0475 27.3356,64.6508" stroke="#0038ff" stroke-width="2" /><polyline fill="none" points="23.4305,71.5932 20.8271,69.8576" stroke="#0094ff" stroke-width="2" /><polyline fill="none" points="11.2814,63.7831 8.678,42.522 10.4136,41.2203 20.3932,49.4644" stroke="#0cf4ea" stroke-width="2" /><polyline fill="none" points="35.5797,52.5017 49.8983,40.3525 51.2,49.0305 45.1254,66.8203" stroke="#56ffa0" stroke-width="2" /><polyline fill="none" points="45.9932,68.122 53.8034,57.2746 58.5763,53.8034 93.722,55.1051 100.6644,59.878 101.9661,62.4814 101.9661,69.8576 97.1932,77.6678 85.0441,88.0814 77.2339,88.9492 58.5763,86.3458 36.4475,77.6678" stroke="#a0ff56" stroke-width="2" /><polyline fill="none" points="48.5966,84.1763 46.861,107.1729 43.3898,117.1525" stroke="#eaff0c" stroke-width="2" /><polyline fill="none" points="56.8407,79.8373 67.2542,119.322" stroke="#ffaa00" stroke-width="2" /><polyline fill="none" points="78.5356,88.5153 83.3085,105.0034 84.6102,118.4542" stroke="#ff5500" stroke-width="2" /><polyline fill="none" points="87.2136,74.6305 89.3831,75.4983 94.5898,79.4034 101.9661,88.5153 108.4746,99.7966" stroke="#e80000" stroke-width="2" /><polyline fill="none" points="88.5153,52.5017 98.4949,42.522 103.2678,32.5424 103.7017,26.9017 100.2305,18.6576 95.4576,14.3186 86.3458,9.1119 81.5729,8.678 76.3661,9.1119 75.0644,12.5831 82.0068,26.4678 84.1763,26.4678" stroke="#7f0000" stroke-width="2" /></svg>