<?xml version="1.0" encoding="utf-8" ?>
<svg baseProfile="tiny" height="128" version="1.2" viewBox="0,0,128,128" width="128" xmlns="http://www.w3.org/2000/svg" xmlns:ev="http://www.w3.org/2001/xml-events" xmlns:xlink="http://www.w3.org/1999/xlink"><defs /><polyline fill="none" points="28.6373,37.7492 30.3729,50.3322 30.8068,41.6542 33.4102,32.9763 34.7119,32.5424 35.5797,34.278 38.1831,43.8237 43.8237,34.278 45.1254,33.8441 47.7288,36.0136 50.7661,44.2576" stroke="#00007f" stroke-width="2" /><polyline fill="none" points="56.4068,37.3153 61.1797,34.7119 64.2169,30.3729 62.9153,26.9017 59.878,26.0339 55.9729,28.6373 52.0678,34.278 51.2,38.6169 53.3695,42.522 59.878,45.1254 65.5186,44.2576 70.7254,39.4847 72.461,33.8441" stroke="#0000f1" stroke-width="2" /><polyline fill="none" points="72.0271,29.0712 75.4983,33.4102 80.2712,34.7119 83.7424,31.2407 85.9119,22.5627 91.9864,26.9017 95.8915,26.4678 99.7966,17.3559 99.7966,11.2814 98.4949,8.678" stroke="#004cff" stroke-width="2" /><polyline fill="none" points="19.0915,81.139 14.7525,80.2712 11.2814,78.1017 8.678,72.461 9.1119,68.122 11.7153,66.3864 16.0542,67.2542 26.0339,76.3661 28.6373,67.2542 36.8814,60.3119 51.6339,54.6712 62.4814,54.6712 59.878,41.2203 62.4814,39.0508 67.6881,38.1831 75.0644,40.7864 81.139,45.9932 96.3254,65.9525 101.0983,77.2339 99.7966,87.6475 91.5525,95.0237 78.9695,103.2678 56.8407,108.0407 46.861,108.4746 40.7864,105.0034 29.5051,91.9864 23.4305,80.7051 23.8644,75.9322" stroke="#00b0ff" stroke-width="2" /><polyline fill="none" points="12.1492,95.0237 19.5254,90.2508 25.1661,88.5153 46.861,84.6102" stroke="#29ffcd" stroke-width="2" /><polyline fill="none" points="30.3729,105.8712 40.3525,97.6271 62.9153,85.478" stroke="#7cff79" stroke-width="2" /><polyline fill="none" points="47.7288,119.322 60.7458,88.0814" stroke="#cdff29" stroke-width="2" /><polyline fill="none" points="75.9322,72.461 108.4746,63.7831" stroke="#ffc400" stroke-width="2" /><polyline fill="none" points="76.8,83.7424 104.1356,75.9322 109.3424,72.8949" stroke="#ff6700" stroke-width="2" /><polyline fill="none" points="76.8,87.6475 93.722,86.3458 114.5492,89.8169" stroke="#f10700" stroke-width="2" /><polyline fill="none" points="64.2169,80.2712 65.0847,81.5729 65.0847,80.2712" stroke="#7f0000" stroke-width="2" /></svg>