<?xml version="1.0" encoding="utf-8" ?>
<svg baseProfile="tiny" height="128" version="1.2" viewBox="0,0,128,128" width="128" xmlns="http://www.w3.org/2000/svg" xmlns:ev="http://www.w3.org/2001/xml-events" xmlns:xlink="http://www.w3.org/1999/xlink"><defs /><polyline fill="none" points="33.8441,29.939 40.3525,26.0339 45.9932,23.8644 53.3695,23.8644 59.4441,21.6949 70.2915,21.6949 82.8746,27.7695 82.4407,34.278 72.8949,53.3695 61.6136,63.3492 56.4068,64.6508 39.0508,66.3864 29.0712,58.5763 27.7695,53.3695 29.939,42.0881" stroke="#00007f" stroke-width="2" /><polyline fill="none" points="35.1458,26.9017 28.2034,16.922 22.9966,14.7525 18.6576,20.8271 22.9966,29.939" stroke="#0010ff" stroke-width="2" /><polyline fill="none" points="68.5559,24.7322 73.7627,20.8271 85.478,14.7525 91.9864,9.5458 96.7593,8.678 95.8915,13.8847 92.8542,19.9593 88.9492,24.7322 84.6102,26.9017" stroke="#00a4ff" stroke-width="2" /><polyline fill="none" points="62.4814,50.3322 70.7254,50.3322 82.8746,53.3695 90.2508,57.7085 104.1356,69.4237" stroke="#3fffb7" stroke-width="2" /><polyline fill="none" points="59.4441,54.2373 64.6508,59.4441 68.5559,67.6881 79.8373,79.8373" stroke="#b7ff3f" stroke-width="2" /><polyline fill="none" points="40.3525,48.1627 29.939,50.3322 12.5831,57.2746 8.678,60.3119" stroke="#ffb900" stroke-width="2" /><polyline fill="none" points="38.1831,54.2373 24.7322,62.4814 16.922,72.8949 12.5831,83.7424" stroke="#ff3000" stroke-width="2" /><polyline fill="none" points="82.8746,49.4644 91.9864,72.8949 95.8915,93.722 95.8915,119.322" stroke="#7f0000" stroke-width="2" /></svg>