<?xml version="1.0" encoding="utf-8" ?>
<svg baseProfile="tiny" height="128" version="1.2" viewBox="0,0,128,128" width="128" xmlns="http://www.w3.org/2000/svg" xmlns:ev="http://www.w3.org/2001/xml-events" xmlns:xlink="http://www.w3.org/1999/xlink"><defs /><polyline fill="none" points="29.0712,39.0508 28.6373,36.0136 41.2203,8.678 42.522,8.678 48.1627,26.4678 52.0678,33.8441" stroke="#00007f" stroke-width="2" /><polyline fill="none" points="52.0678,35.1458 53.8034,33.8441 63.7831,33.8441 72.0271,35.5797 74.1966,37.3153" stroke="#0000f1" stroke-width="2" /><polyline fill="none" points="71.5932,37.7492 91.1186,11.7153 93.722,29.5051 96.7593,37.7492" stroke="#004cff" stroke-width="2" /><polyline fill="none" points="97.1932,38.6169 101.0983,45.5593 101.0983,54.2373 95.4576,66.3864 80.7051,78.9695 63.7831,83.7424 50.3322,82.4407 40.3525,77.2339 32.9763,71.1593 28.6373,64.6508 25.1661,52.0678 24.7322,42.522 28.2034,40.7864" stroke="#00b0ff" stroke-width="2" /><polyline fill="none" points="22.9966,52.5017 8.678,56.4068" stroke="#29ffcd" stroke-width="2" /><polyline fill="none" points="31.6746,64.2169 18.6576,70.2915" stroke="#7cff79" stroke-width="2" /><polyline fill="none" points="36.8814,72.461 30.3729,77.6678 28.6373,82.4407" stroke="#cdff29" stroke-width="2" /><polyline fill="none" points="100.6644,58.5763 114.9831,66.3864 119.322,67.2542" stroke="#ffc400" stroke-width="2" /><polyline fill="none" points="96.7593,65.5186 97.6271,68.122 108.4746,74.1966" stroke="#ff6700" stroke-width="2" /><polyline fill="none" points="91.1186,73.3288 105.0034,84.1763" stroke="#f10700" stroke-width="2" /><polyline fill="none" points="51.2,47.7288 49.0305,49.8983" stroke="#7f0000" stroke-width="2" /></svg>