<?xml version="1.0" encoding="utf-8" ?>
<svg baseProfile="tiny" height="128" version="1.2" viewBox="0,0,128,128" width="128" xmlns="http://www.w3.org/2000/svg" xmlns:ev="http://www.w3.org/2001/xml-events" xmlns:xlink="http://www.w3.org/1999/xlink"><defs /><polyline fill="none" points="11.2814,35.1458 33.4102,8.678 32.5424,36.4475 35.5797,48.5966" stroke="#00007f" stroke-width="2" /><polyline fill="none" points="81.139,48.5966 81.139,35.5797 86.3458,17.7898 86.7797,24.7322 93.2881,45.5593 93.722,59.4441" stroke="#0000fe" stroke-width="2" /><polyline fill="none" points="34.278,45.9932 81.139,45.9932" stroke="#0060ff" stroke-width="2" /><polyline fill="none" points="8.678,33.4102 8.678,82.8746 14.3186,92.8542 27.3356,100.2305 40.7864,102.8339 61.6136,102.4 71.5932,100.2305 101.0983,90.2508 109.7763,84.1763 117.1525,76.3661 118.8881,72.461 119.322,68.122 118.4542,66.3864 110.6441,61.1797 94.5898,58.1424 92.8542,55.9729" stroke="#00d4ff" stroke-width="2" /><polyline fill="none" points="28.2034,59.4441 28.6373,61.1797 30.8068,61.1797 31.6746,55.539 26.9017,53.8034 25.6,58.1424 27.3356,60.3119" stroke="#4cffaa" stroke-width="2" /><polyline fill="none" points="72.0271,56.8407 72.8949,55.539 71.1593,54.6712 70.2915,58.5763 72.8949,58.1424 73.3288,56.8407" stroke="#aaff4c" stroke-width="2" /><polyline fill="none" points="51.2,77.6678 51.2,77.6678" stroke="#ffe500" stroke-width="2" /><polyline fill="none" points="51.2,77.6678 51.2,85.0441 46.4271,85.9119 43.8237,85.478 35.1458,76.3661 28.6373,75.0644" stroke="#ff7a00" stroke-width="2" /><polyline fill="none" points="51.2,78.1017 66.8203,83.7424 72.8949,84.1763 80.2712,75.4983 83.3085,67.2542" stroke="#fe1200" stroke-width="2" /><polyline fill="none" points="49.4644,67.2542 55.539,72.8949 58.5763,73.3288 58.5763,72.0271 51.2,71.5932 48.1627,75.0644" stroke="#7f0000" stroke-width="2" /></svg>