<?xml version="1.0" encoding="utf-8" ?>
<svg baseProfile="tiny" height="128" version="1.2" viewBox="0,0,128,128" width="128" xmlns="http://www.w3.org/2000/svg" xmlns:ev="http://www.w3.org/2001/xml-events" xmlns:xlink="http://www.w3.org/1999/xlink"><defs /><polyline fill="none" points="44.4082,84.0272 73.1429,70.966 78.3673,67.0476 78.8027,97.0884 76.1905,107.9728 77.932,109.7143 85.3333,109.2789 87.5102,106.2313 85.7687,103.619 92.2993,104.0544 94.0408,102.7483 90.1224,101.0068 90.5578,97.5238 86.2041,93.6054 85.7687,62.2585 76.1905,70.0952" stroke="#00007f" stroke-width="2" /><polyline fill="none" points="43.9728,84.4626 43.5374,104.9252 45.7143,105.7959 60.0816,105.7959 64.0,108.4082 63.5646,110.1497 57.034,112.3265 38.7483,112.3265 25.2517,109.7143 23.9456,106.2313 24.381,98.8299 30.9116,84.0272 17.415,99.7007 10.0136,102.3129 8.7075,95.3469 10.8844,83.5918 15.2381,77.932 26.5578,73.5782 38.7483,71.8367 44.8435,69.6599 67.0476,57.4694 76.6259,50.9388 87.9456,34.8299 93.1701,30.9116 105.7959,30.9116 114.068,33.5238 118.8571,40.9252 119.2925,50.068 113.1973,57.9048 104.4898,60.517 89.6871,58.7755 86.6395,56.5986 87.9456,55.2925" stroke="#0010ff" stroke-width="2" /><polyline fill="none" points="112.7619,43.9728 110.585,43.9728 107.9728,47.0204 107.9728,52.2449 109.7143,52.6803 113.6327,47.4558 107.9728,47.4558 107.9728,49.6327 109.7143,49.6327 110.1497,46.1497 104.9252,45.2789" stroke="#00a4ff" stroke-width="2" /><polyline fill="none" points="97.0884,36.5714 94.9116,40.0544 96.6531,40.9252 97.9592,39.1837 96.2177,39.1837" stroke="#3fffb7" stroke-width="2" /><polyline fill="none" points="102.7483,37.8776 101.4422,43.102 103.619,42.6667 104.0544,38.7483 102.3129,37.0068" stroke="#b7ff3f" stroke-width="2" /><polyline fill="none" points="90.5578,30.4762 86.2041,29.6054 81.415,25.2517 77.932,16.9796 77.932,14.3673 80.9796,10.8844 87.0748,8.7075 93.1701,9.5782 94.0408,16.5442 97.5238,13.0612 100.5714,11.7551 110.585,11.7551 115.3741,14.8027 117.1156,18.7211 115.3741,22.2041 109.2789,25.2517 104.9252,25.2517 102.3129,29.6054" stroke="#ffb900" stroke-width="2" /><polyline fill="none" points="54.4218,82.7211 56.1633,87.0748 47.8912,98.3946 47.8912,100.1361 59.6463,98.8299 64.0,101.8776 64.4354,105.3605 60.9524,106.2313 51.3741,101.8776 50.068,100.5714 50.5034,95.7823" stroke="#ff3000" stroke-width="2" /><polyline fill="none" points="93.6054,59.6463 91.4286,87.0748 102.3129,87.0748 103.619,88.8163 100.1361,90.1224 101.0068,91.8639 97.0884,92.2993 93.1701,91.8639 87.0748,86.6395" stroke="#7f0000" stroke-width="2" /></svg>