<?xml version="1.0" encoding="utf-8" ?>
<svg baseProfile="tiny" height="128" version="1.2" viewBox="0,0,128,128" width="128" xmlns="http://www.w3.org/2000/svg" xmlns:ev="http://www.w3.org/2001/xml-events" xmlns:xlink="http://www.w3.org/1999/xlink"><defs /><polyline fill="none" points="92.4203,30.3729 79.4034,29.5051 63.7831,25.1661 54.6712,25.1661 44.6915,31.2407 32.9763,45.1254 24.2983,61.6136 24.2983,71.5932 28.2034,82.4407 43.8237,98.4949 53.8034,102.4 68.122,102.8339 76.8,101.0983 90.6847,96.3254 95.4576,93.722 101.0983,88.0814 105.8712,72.8949 106.739,55.539 103.7017,46.861 98.4949,37.3153 93.2881,31.2407 88.9492,28.6373" stroke="#00007f" stroke-width="2" /><polyline fill="none" points="32.5424,36.8814 28.6373,33.4102 26.4678,26.0339 26.0339,14.7525 28.2034,13.4508 31.6746,13.4508 36.0136,15.1864 44.6915,22.5627 52.0678,26.4678" stroke="#0000f1" stroke-width="2" /><polyline fill="none" points="79.4034,29.939 86.3458,20.3932 98.9288,8.678 100.6644,10.8475 101.9661,18.2237 101.9661,39.0508" stroke="#004cff" stroke-width="2" /><polyline fill="none" points="59.0102,64.2169 59.0102,64.2169" stroke="#00b0ff" stroke-width="2" /><polyline fill="none" points="63.3492,69.4237 65.0847,67.6881 67.2542,68.9898 67.2542,74.1966 65.9525,75.9322 60.7458,75.4983 59.4441,72.8949 59.878,67.2542 62.9153,66.3864 63.7831,68.9898 61.1797,71.5932" stroke="#29ffcd" stroke-width="2" /><polyline fill="none" points="83.3085,62.0475 112.3797,54.2373" stroke="#7cff79" stroke-width="2" /><polyline fill="none" points="83.7424,76.3661 91.9864,76.3661 103.2678,78.9695 109.3424,82.8746" stroke="#cdff29" stroke-width="2" /><polyline fill="none" points="84.6102,91.9864 96.3254,105.0034 107.1729,113.2475" stroke="#ffc400" stroke-width="2" /><polyline fill="none" points="39.9186,59.0102 33.8441,57.7085 16.0542,49.0305 9.9797,47.7288" stroke="#ff6700" stroke-width="2" /><polyline fill="none" points="46.4271,64.2169 17.7898,80.7051 11.2814,87.2136 8.678,91.5525" stroke="#f10700" stroke-width="2" /><polyline fill="none" points="52.9356,80.7051 46.4271,84.1763 32.9763,96.7593 24.2983,108.9085 19.5254,119.322" stroke="#7f0000" stroke-width="2" /></svg>