<?xml version="1.0" encoding="utf-8" ?>
<svg baseProfile="tiny" height="128" version="1.2" viewBox="0,0,128,128" width="128" xmlns="http://www.w3.org/2000/svg" xmlns:ev="http://www.w3.org/2001/xml-events" xmlns:xlink="http://www.w3.org/1999/xlink"><defs /><polyline fill="none" points="12.1492,45.9932 9.1119,57.7085 8.678,71.1593 10.8475,93.2881 18.2237,105.0034 26.9017,113.6814 31.6746,116.2847 42.9559,119.322 52.9356,118.8881 62.4814,115.8508 69.4237,111.9458 78.9695,102.8339 85.0441,95.0237 90.2508,79.8373 91.1186,66.3864 87.6475,51.6339 78.9695,39.0508 72.461,32.9763 65.5186,29.0712 50.7661,26.9017 36.4475,29.939 22.1288,37.7492 11.7153,49.0305" stroke="#00007f" stroke-width="2" /><polyline fill="none" points="9.9797,51.2 10.8475,14.3186 18.6576,27.7695 24.7322,34.278" stroke="#0000ff" stroke-width="2" /><polyline fill="none" points="63.3492,28.6373 65.5186,20.3932 72.8949,10.8475 75.9322,8.678 77.6678,10.8475 77.2339,23.4305 79.4034,32.9763" stroke="#0080ff" stroke-width="2" /><polyline fill="none" points="40.7864,74.6305 42.0881,77.6678 47.7288,80.7051 51.6339,78.9695 52.5017,75.4983 51.6339,73.7627 48.1627,72.8949 44.6915,75.9322 44.2576,77.2339 46.861,77.2339 50.7661,75.0644 45.9932,78.5356 46.861,80.2712 49.0305,78.5356 47.2949,76.8 49.4644,86.3458 49.4644,96.7593 48.1627,100.2305 44.6915,102.8339 40.7864,101.5322 38.1831,97.1932 39.9186,94.1559" stroke="#15ffe1" stroke-width="2" /><polyline fill="none" points="49.4644,81.5729 58.1424,93.2881 63.3492,96.3254 69.8576,95.8915 73.3288,91.1186" stroke="#7cff79" stroke-width="2" /><polyline fill="none" points="69.4237,83.3085 75.9322,80.2712 87.2136,78.1017" stroke="#e4ff12" stroke-width="2" /><polyline fill="none" points="66.8203,75.0644 81.139,67.6881" stroke="#ff9400" stroke-width="2" /><polyline fill="none" points="64.2169,70.2915 72.0271,65.0847" stroke="#ff1d00" stroke-width="2" /><polyline fill="none" points="31.2407,91.1186 20.8271,88.0814" stroke="#7f0000" stroke-width="2" /></svg>