<?xml version="1.0" encoding="utf-8" ?>
<svg baseProfile="tiny" height="128" version="1.2" viewBox="0,0,128,128" width="128" xmlns="http://www.w3.org/2000/svg" xmlns:ev="http://www.w3.org/2001/xml-events" xmlns:xlink="http://www.w3.org/1999/xlink"><defs /><polyline fill="none" points="76.6259,60.0816 70.5306,60.517 59.6463,57.4694 44.4082,48.3265 41.7959,43.9728 40.9252,37.8776 40.9252,22.6395 43.5374,18.2857 52.6803,8.7075 55.2925,23.0748 58.3401,18.7211 58.3401,20.898 60.0816,22.2041 72.2721,25.6871 79.6735,26.1224 81.415,24.381 81.415,16.9796 86.6395,9.1429 90.1224,40.0544 89.6871,50.9388 80.9796,58.7755 71.8367,60.9524 67.9184,60.9524 67.0476,60.517 67.483,59.6463" stroke="#00007f" stroke-width="2" /><polyline fill="none" points="53.551,43.5374 56.5986,46.585 64.0,47.0204 69.6599,43.102 71.8367,39.1837 70.5306,48.3265 74.449,48.7619 76.6259,47.0204" stroke="#0010ff" stroke-width="2" /><polyline fill="none" points="59.2109,32.2177 62.2585,31.3469 64.0,33.5238 61.3878,34.8299 58.7755,33.9592" stroke="#00a4ff" stroke-width="2" /><polyline fill="none" points="81.415,35.7007 78.8027,34.3946 79.6735,32.2177 81.415,35.2653 78.8027,36.1361" stroke="#3fffb7" stroke-width="2" /><polyline fill="none" points="83.5918,43.9728 119.2925,43.5374" stroke="#b7ff3f" stroke-width="2" /><polyline fill="none" points="78.3673,48.3265 90.5578,50.068 101.4422,53.1156" stroke="#ffb900" stroke-width="2" /><polyline fill="none" points="82.2857,53.1156 97.0884,60.0816" stroke="#ff3000" stroke-width="2" /><polyline fill="none" points="41.7959,30.9116 8.7075,30.9116 11.7551,31.7823" stroke="#7f0000" stroke-width="2" /></svg>