<?xml version="1.0" encoding="utf-8" ?>
<svg baseProfile="tiny" height="128" version="1.2" viewBox="0,0,128,128" width="128" xmlns="http://www.w3.org/2000/svg" xmlns:ev="http://www.w3.org/2001/xml-events" xmlns:xlink="http://www.w3.org/1999/xlink"><defs /><polyline fill="none" points="32.1085,29.939 26.0339,35.1458 19.5254,47.2949 17.7898,57.7085 18.2237,68.9898 25.6,75.4983 31.2407,76.3661 36.0136,75.9322 42.522,71.1593 45.5593,63.7831 45.9932,55.1051 36.4475,37.3153 32.9763,27.7695" stroke="#00007f" stroke-width="2" /><polyline fill="none" points="35.5797,32.5424 39.9186,20.8271 46.4271,8.678 48.1627,12.1492 48.1627,41.2203 46.861,49.8983" stroke="#0010ff" stroke-width="2" /><polyline fill="none" points="25.6,36.4475 18.6576,23.8644 9.9797,18.2237 8.678,26.0339 13.4508,47.7288" stroke="#00a4ff" stroke-width="2" /><polyline fill="none" points="21.6949,52.0678 22.9966,52.5017" stroke="#3fffb7" stroke-width="2" /><polyline fill="none" points="36.0136,53.3695 36.4475,52.9356" stroke="#b7ff3f" stroke-width="2" /><polyline fill="none" points="28.6373,60.7458 26.4678,62.4814" stroke="#ffb900" stroke-width="2" /><polyline fill="none" points="26.9017,70.7254 29.5051,70.2915 32.5424,66.3864" stroke="#ff3000" stroke-width="2" /><polyline fill="none" points="47.7288,56.8407 68.9898,53.8034 95.0237,53.8034 113.2475,59.878 115.8508,62.0475 119.322,66.8203 118.0203,69.4237 114.9831,70.7254 98.061,77.2339 72.0271,84.6102 52.9356,84.1763 40.3525,78.9695 35.5797,74.1966 33.8441,80.2712 33.8441,88.5153 38.6169,90.2508 42.9559,85.0441 45.1254,79.4034" stroke="#7f0000" stroke-width="2" /></svg>