<?xml version="1.0" encoding="utf-8" ?>
<svg baseProfile="tiny" height="128" version="1.2" viewBox="0,0,128,128" width="128" xmlns="http://www.w3.org/2000/svg" xmlns:ev="http://www.w3.org/2001/xml-events" xmlns:xlink="http://www.w3.org/1999/xlink"><defs /><polyline fill="none" points="45.1254,75.0644 27.3356,74.1966 15.1864,66.8203 10.4136,60.3119 9.9797,51.2 11.7153,45.9932 16.0542,40.3525 27.3356,33.4102 43.3898,30.3729 70.7254,30.3729 87.2136,33.8441 98.9288,39.9186 105.0034,47.7288 106.3051,57.7085 100.6644,62.9153 82.8746,70.2915 62.9153,74.1966 42.0881,74.1966 34.278,71.1593" stroke="#00007f" stroke-width="2" /><polyline fill="none" points="15.6203,40.7864 8.678,10.4136 30.3729,26.9017 45.1254,33.4102" stroke="#0080ff" stroke-width="2" /><polyline fill="none" points="84.1763,28.2034 105.4373,12.1492 113.6814,9.1119 117.5864,8.678 95.4576,43.8237" stroke="#7cff79" stroke-width="2" /><polyline fill="none" points="43.3898,75.0644 29.939,93.722 19.5254,114.1153 40.3525,114.5492 78.5356,118.8881 90.6847,119.322 95.0237,118.4542 94.5898,112.8136 84.6102,81.139 78.9695,72.461" stroke="#ff9400" stroke-width="2" /><polyline fill="none" points="58.1424,49.8983 58.1424,49.8983" stroke="#7f0000" stroke-width="2" /></svg>