<?xml version="1.0" encoding="utf-8" ?>
<svg baseProfile="tiny" height="128" version="1.2" viewBox="0,0,128,128" width="128" xmlns="http://www.w3.org/2000/svg" xmlns:ev="http://www.w3.org/2001/xml-events" xmlns:xlink="http://www.w3.org/1999/xlink"><defs /><polyline fill="none" points="18.2237,27.7695 14.3186,38.6169 13.4508,49.4644 17.3559,55.539 22.1288,57.7085 28.2034,57.7085 36.8814,51.6339 43.3898,42.522 45.1254,30.8068 41.6542,26.9017 34.278,25.1661 13.4508,29.0712 9.1119,17.3559 8.678,8.678 25.1661,26.0339 42.9559,14.3186 45.1254,13.8847 46.4271,17.7898 45.9932,35.1458" stroke="#00007f" stroke-width="2" /><polyline fill="none" points="22.5627,56.4068 21.6949,72.8949 23.4305,73.7627 30.3729,73.7627 57.2746,66.8203 73.3288,65.5186 82.8746,65.5186 94.5898,70.2915 97.1932,74.6305 96.3254,80.2712 90.6847,87.2136 85.478,90.2508 69.4237,94.1559 40.3525,94.5898 33.8441,93.2881 22.5627,87.6475 18.6576,84.1763 16.0542,79.4034 15.6203,75.9322 18.2237,72.8949 26.4678,69.8576 35.5797,69.4237" stroke="#0028ff" stroke-width="2" /><polyline fill="none" points="23.8644,86.3458 18.6576,102.8339" stroke="#00d4ff" stroke-width="2" /><polyline fill="none" points="37.3153,91.9864 39.4847,101.0983 43.3898,100.6644" stroke="#7cff79" stroke-width="2" /><polyline fill="none" points="78.5356,90.6847 81.5729,105.0034" stroke="#ffe500" stroke-width="2" /><polyline fill="none" points="90.6847,88.5153 96.3254,98.9288 100.6644,101.0983" stroke="#ff4600" stroke-width="2" /><polyline fill="none" points="90.6847,77.2339 98.4949,72.0271 119.322,65.0847" stroke="#7f0000" stroke-width="2" /></svg>