<?xml version="1.0" encoding="utf-8" ?>
<svg baseProfile="tiny" height="128" version="1.2" viewBox="0,0,128,128" width="128" xmlns="http://www.w3.org/2000/svg" xmlns:ev="http://www.w3.org/2001/xml-events" xmlns:xlink="http://www.w3.org/1999/xlink"><defs /><polyline fill="none" points="54.6712,29.939 28.2034,35.1458 16.922,41.2203 13.0169,46.4271 9.5458,62.0475 8.678,72.8949 9.5458,93.722 15.1864,107.1729 21.6949,114.5492 28.6373,118.4542 44.6915,119.322 57.7085,115.4169 62.9153,110.6441 67.2542,103.7017 70.2915,95.0237 71.1593,80.2712 66.3864,66.8203 58.5763,55.539 44.2576,42.0881 34.278,34.278 30.8068,32.9763" stroke="#00007f" stroke-width="2" /><polyline fill="none" points="26.9017,32.1085 29.939,22.1288 36.4475,8.678 38.6169,10.4136 42.522,38.6169" stroke="#0000fe" stroke-width="2" /><polyline fill="none" points="70.7254,86.3458 55.539,86.3458" stroke="#0060ff" stroke-width="2" /><polyline fill="none" points="45.9932,53.8034 46.4271,52.9356" stroke="#00d4ff" stroke-width="2" /><polyline fill="none" points="65.0847,77.2339 79.8373,73.3288" stroke="#4cffaa" stroke-width="2" /><polyline fill="none" points="62.0475,78.1017 79.4034,75.4983" stroke="#aaff4c" stroke-width="2" /><polyline fill="none" points="64.2169,80.2712 79.8373,82.0068" stroke="#ffe500" stroke-width="2" /><polyline fill="none" points="50.7661,78.9695 37.7492,95.0237" stroke="#ff7a00" stroke-width="2" /><polyline fill="none" points="48.5966,91.9864 44.6915,95.4576 43.3898,98.061" stroke="#fe1200" stroke-width="2" /><polyline fill="none" points="57.2746,93.722 55.539,101.5322" stroke="#7f0000" stroke-width="2" /></svg>