<?xml version="1.0" encoding="utf-8" ?>
<svg baseProfile="tiny" height="128" version="1.2" viewBox="0,0,128,128" width="128" xmlns="http://www.w3.org/2000/svg" xmlns:ev="http://www.w3.org/2001/xml-events" xmlns:xlink="http://www.w3.org/1999/xlink"><defs /><polyline fill="none" points="9.9797,38.6169 9.1119,55.9729 13.4508,69.4237 23.4305,78.9695 36.8814,83.7424 51.2,82.4407 65.0847,75.0644 72.0271,63.7831 74.6305,55.1051 73.7627,43.8237 69.4237,40.7864" stroke="#00007f" stroke-width="2" /><polyline fill="none" points="8.678,38.6169 10.4136,29.5051 21.6949,9.5458 30.3729,29.5051 39.0508,26.9017 47.7288,26.0339 59.0102,31.2407 60.7458,32.9763 69.8576,8.678 75.0644,22.1288 77.2339,32.9763 77.2339,41.6542" stroke="#0000fe" stroke-width="2" /><polyline fill="none" points="39.4847,56.4068 41.6542,58.1424 43.8237,57.2746 41.6542,55.539 39.9186,55.9729" stroke="#0060ff" stroke-width="2" /><polyline fill="none" points="39.9186,57.7085 35.1458,66.3864 32.9763,68.122 26.4678,68.5559 19.9593,65.9525" stroke="#00d4ff" stroke-width="2" /><polyline fill="none" points="40.7864,57.7085 45.5593,63.7831 49.8983,65.9525 55.539,66.3864" stroke="#4cffaa" stroke-width="2" /><polyline fill="none" points="29.939,64.6508 29.939,66.8203 36.8814,71.1593 47.7288,70.2915 50.7661,67.2542" stroke="#aaff4c" stroke-width="2" /><polyline fill="none" points="28.2034,41.6542 28.2034,43.8237 30.3729,44.6915 32.1085,42.522 29.939,41.6542 32.1085,42.0881" stroke="#ffe500" stroke-width="2" /><polyline fill="none" points="49.4644,41.6542 48.1627,43.8237 50.7661,45.5593 52.9356,43.8237 53.3695,40.7864" stroke="#ff7a00" stroke-width="2" /><polyline fill="none" points="36.8814,84.1763 37.7492,109.3424" stroke="#fe1200" stroke-width="2" /><polyline fill="none" points="30.8068,80.7051 24.2983,83.3085 18.6576,89.8169 15.1864,96.3254 14.7525,101.0983 16.4881,105.8712 22.5627,111.078 38.1831,118.4542 49.4644,119.322 58.1424,112.3797 65.5186,100.6644 65.5186,95.8915 62.4814,92.4203" stroke="#7f0000" stroke-width="2" /></svg>