<?xml version="1.0" encoding="utf-8" ?>
<svg baseProfile="tiny" height="128" version="1.2" viewBox="0,0,128,128" width="128" xmlns="http://www.w3.org/2000/svg" xmlns:ev="http://www.w3.org/2001/xml-events" xmlns:xlink="http://www.w3.org/1999/xlink"><defs /><polyline fill="none" points="62.0475,36.8814 50.3322,36.8814 35.5797,41.6542 27.7695,45.9932 17.3559,54.2373 10.4136,66.3864 9.9797,82.0068 10.8475,87.6475 17.7898,96.7593 29.5051,104.1356 41.6542,107.1729 59.0102,110.2102 74.1966,110.2102 85.0441,105.4373 93.722,99.3627 101.9661,90.2508 104.1356,84.1763 105.4373,62.0475 103.2678,55.539 98.061,46.4271 88.9492,39.0508 75.9322,33.8441 61.6136,32.9763" stroke="#00007f" stroke-width="2" /><polyline fill="none" points="21.261,52.0678 21.261,17.3559 28.6373,17.7898 32.9763,19.9593 52.9356,34.7119" stroke="#0028ff" stroke-width="2" /><polyline fill="none" points="84.1763,35.5797 88.0814,30.8068 96.3254,24.2983 103.7017,21.261 114.1153,19.5254 115.4169,22.1288 114.9831,27.7695 103.7017,42.9559 100.6644,53.8034" stroke="#00d4ff" stroke-width="2" /><polyline fill="none" points="109.3424,54.6712 110.6441,46.861 115.8508,32.1085 116.7186,10.4136 119.322,8.678" stroke="#7cff79" stroke-width="2" /><polyline fill="none" points="17.7898,18.2237 15.6203,19.5254 12.1492,26.9017 8.678,49.0305" stroke="#ffe500" stroke-width="2" /><polyline fill="none" points="43.8237,58.5763 41.2203,59.4441 39.9186,62.4814 39.9186,68.9898 49.0305,69.4237 51.6339,68.122 52.5017,65.0847 51.2,62.4814 45.5593,57.2746" stroke="#ff4600" stroke-width="2" /><polyline fill="none" points="82.4407,57.7085 75.0644,58.1424 72.8949,59.878 71.1593,62.9153 70.7254,68.9898" stroke="#7f0000" stroke-width="2" /></svg>