<?xml version="1.0" encoding="utf-8" ?>
<svg baseProfile="tiny" height="128" version="1.2" viewBox="0,0,128,128" width="128" xmlns="http://www.w3.org/2000/svg" xmlns:ev="http://www.w3.org/2001/xml-events" xmlns:xlink="http://www.w3.org/1999/xlink"><defs /><polyline fill="none" points="52.0678,52.9356 32.1085,55.539 24.2983,59.0102 13.8847,77.2339 8.678,102.8339 20.3932,107.6068 27.3356,112.8136 39.9186,118.4542 71.5932,119.322 81.5729,117.1525 89.3831,109.3424 95.4576,97.6271 96.7593,83.7424 86.7797,55.1051 82.4407,52.0678 70.7254,50.7661" stroke="#00007f" stroke-width="2" /><polyline fill="none" points="23.4305,55.9729 19.5254,42.9559 17.3559,24.2983 29.0712,32.5424 50.3322,55.539" stroke="#0000ff" stroke-width="2" /><polyline fill="none" points="58.5763,50.3322 58.5763,46.4271 61.6136,39.9186 74.6305,18.2237 77.2339,8.678 80.7051,36.0136 83.7424,48.5966" stroke="#0080ff" stroke-width="2" /><polyline fill="none" points="39.0508,78.1017 38.6169,76.3661 40.3525,74.6305 41.6542,77.6678" stroke="#15ffe1" stroke-width="2" /><polyline fill="none" points="81.5729,73.3288 79.8373,73.3288 81.5729,72.0271 75.4983,73.3288 77.6678,72.0271 79.4034,72.0271 79.8373,73.7627" stroke="#7cff79" stroke-width="2" /><polyline fill="none" points="59.0102,94.5898 60.3119,96.3254 56.4068,96.3254 55.9729,94.5898 61.6136,92.4203 61.6136,94.1559 59.878,95.0237" stroke="#e4ff12" stroke-width="2" /><polyline fill="none" points="51.6339,106.3051 63.7831,105.8712 65.5186,104.5695" stroke="#ff9400" stroke-width="2" /><polyline fill="none" points="55.539,94.5898 51.6339,88.9492 39.0508,81.139 36.0136,76.8" stroke="#ff1d00" stroke-width="2" /><polyline fill="none" points="58.5763,95.4576 43.3898,95.0237" stroke="#7f0000" stroke-width="2" /></svg>