<?xml version="1.0" encoding="utf-8" ?>
<svg baseProfile="tiny" height="128" version="1.2" viewBox="0,0,128,128" width="128" xmlns="http://www.w3.org/2000/svg" xmlns:ev="http://www.w3.org/2001/xml-events" xmlns:xlink="http://www.w3.org/1999/xlink"><defs /><polyline fill="none" points="84.0272,95.7823 57.9048,113.6327 48.7619,117.551 39.1837,119.2925 23.9456,119.2925 20.0272,116.6803 16.5442,112.3265 13.4966,99.2653 13.0612,84.898 14.3673,80.5442 21.3333,71.4014 30.0408,64.0 44.8435,57.9048 53.551,56.1633 62.6939,56.1633 71.4014,60.517 81.8503,74.0136 85.3333,83.5918 87.9456,97.5238 87.9456,101.4422 85.3333,102.7483" stroke="#00007f" stroke-width="2" /><polyline fill="none" points="13.4966,84.4626 14.3673,59.6463 8.7075,28.7347 34.3946,54.8571 39.1837,62.2585" stroke="#0080ff" stroke-width="2" /><polyline fill="none" points="51.8095,59.6463 64.0,22.2041 68.7891,11.3197 71.4014,8.7075 73.5782,11.3197 74.449,17.415 74.449,64.8707 75.7551,68.7891" stroke="#7cff79" stroke-width="2" /><polyline fill="none" points="41.3605,95.3469 41.3605,89.2517 43.102,86.2041 54.8571,81.8503 57.034,85.3333 56.5986,91.8639 51.3741,97.0884 45.2789,98.3946 40.4898,97.0884 39.1837,94.9116" stroke="#ff9400" stroke-width="2" /><polyline fill="none" points="57.034,86.6395 74.8844,62.6939" stroke="#7f0000" stroke-width="2" /></svg>