<?xml version="1.0" encoding="utf-8" ?>
<svg baseProfile="tiny" height="128" version="1.2" viewBox="0,0,128,128" width="128" xmlns="http://www.w3.org/2000/svg" xmlns:ev="http://www.w3.org/2001/xml-events" xmlns:xlink="http://www.w3.org/1999/xlink"><defs /><polyline fill="none" points="43.8237,54.6712 36.8814,52.0678 22.1288,52.9356 17.7898,54.6712 11.2814,60.7458 8.678,66.3864 8.678,89.8169 12.1492,97.6271 16.922,103.2678 29.5051,111.078 47.7288,111.078 58.1424,108.4746 74.1966,97.6271 79.8373,91.1186 82.4407,84.1763 84.1763,78.5356 83.3085,65.0847 80.7051,60.7458 75.9322,56.4068 70.2915,52.9356 59.878,49.0305 45.5593,45.5593 40.3525,45.5593 37.3153,48.1627" stroke="#00007f" stroke-width="2" /><polyline fill="none" points="10.4136,56.4068 8.678,51.2 18.6576,13.8847 22.9966,17.7898 25.6,22.9966 43.8237,47.2949" stroke="#0028ff" stroke-width="2" /><polyline fill="none" points="59.878,49.8983 60.7458,39.0508 68.9898,25.1661 78.5356,14.3186 88.5153,8.678 91.5525,15.1864 90.6847,21.261 77.2339,56.4068 75.0644,70.7254" stroke="#00d4ff" stroke-width="2" /><polyline fill="none" points="27.7695,64.6508 28.2034,69.8576 29.5051,64.2169 27.7695,68.122" stroke="#7cff79" stroke-width="2" /><polyline fill="none" points="58.1424,63.3492 58.1424,67.2542 60.7458,61.1797 60.7458,58.1424 58.1424,62.4814" stroke="#ffe500" stroke-width="2" /><polyline fill="none" points="32.9763,88.5153 47.2949,85.0441" stroke="#ff4600" stroke-width="2" /><polyline fill="none" points="89.8169,70.7254 94.1559,62.9153 96.7593,60.7458 115.8508,46.4271 119.322,45.5593" stroke="#7f0000" stroke-width="2" /></svg>