<?xml version="1.0" encoding="utf-8" ?>
<svg baseProfile="tiny" height="128" version="1.2" viewBox="0,0,128,128" width="128" xmlns="http://www.w3.org/2000/svg" xmlns:ev="http://www.w3.org/2001/xml-events" xmlns:xlink="http://www.w3.org/1999/xlink"><defs /><polyline fill="none" points="119.322,63.3492 94.1559,53.8034 67.6881,48.1627 44.6915,47.2949 22.9966,50.3322 18.6576,52.5017 11.2814,66.3864 11.7153,72.461 16.4881,82.0068 19.9593,85.0441 27.7695,88.0814 44.6915,89.8169 60.3119,88.9492 68.9898,88.0814 78.1017,83.7424 82.4407,72.8949 83.3085,59.0102 85.0441,54.6712" stroke="#00007f" stroke-width="2" /><polyline fill="none" points="89.8169,54.2373 87.2136,45.9932 85.9119,35.1458 87.6475,20.8271 92.4203,8.678 94.1559,13.8847 91.9864,44.2576 93.2881,62.4814" stroke="#0028ff" stroke-width="2" /><polyline fill="none" points="28.2034,41.6542 18.2237,26.0339 14.7525,22.5627 10.4136,22.9966 8.678,30.8068 9.1119,40.7864 15.1864,59.4441" stroke="#00d4ff" stroke-width="2" /><polyline fill="none" points="66.3864,66.3864 62.4814,65.0847 62.4814,66.8203" stroke="#7cff79" stroke-width="2" /><polyline fill="none" points="37.7492,64.2169 37.7492,65.0847" stroke="#ffe500" stroke-width="2" /><polyline fill="none" points="47.7288,77.2339 48.5966,80.7051" stroke="#ff4600" stroke-width="2" /><polyline fill="none" points="36.4475,80.7051 45.1254,85.478 55.1051,87.2136 62.9153,85.0441 75.4983,76.3661" stroke="#7f0000" stroke-width="2" /></svg>