<?xml version="1.0" encoding="utf-8" ?>
<svg baseProfile="tiny" height="128" version="1.2" viewBox="0,0,128,128" width="128" xmlns="http://www.w3.org/2000/svg" xmlns:ev="http://www.w3.org/2001/xml-events" xmlns:xlink="http://www.w3.org/1999/xlink"><defs /><polyline fill="none" points="65.9525,24.7322 57.7085,24.2983 50.7661,26.4678 30.3729,38.6169 21.6949,48.5966 17.7898,55.9729 16.0542,65.0847 16.4881,74.1966 19.9593,82.4407 26.0339,89.3831 34.7119,95.8915 43.8237,100.6644 58.5763,102.4 72.8949,99.3627 76.8,96.7593 86.7797,86.3458 95.0237,72.0271 97.6271,62.0475 98.9288,43.3898 95.4576,33.8441 91.1186,28.2034 86.7797,24.7322 76.3661,24.7322 60.3119,28.6373" stroke="#00007f" stroke-width="2" /><polyline fill="none" points="32.9763,46.861 26.0339,29.0712 22.9966,16.0542 23.4305,8.678 41.2203,26.4678 49.8983,36.0136 51.2,39.4847" stroke="#004cff" stroke-width="2" /><polyline fill="none" points="79.4034,38.1831 98.9288,13.0169 100.6644,18.2237 99.3627,24.7322 96.3254,34.278 90.2508,45.9932" stroke="#29ffcd" stroke-width="2" /><polyline fill="none" points="42.522,63.3492 26.9017,65.0847 8.678,78.1017" stroke="#cdff29" stroke-width="2" /><polyline fill="none" points="37.7492,81.139 28.6373,82.8746 9.9797,89.8169" stroke="#ff6700" stroke-width="2" /><polyline fill="none" points="86.3458,55.9729 98.061,56.4068 113.6814,53.8034 119.322,55.539" stroke="#7f0000" stroke-width="2" /></svg>