<?xml version="1.0" encoding="utf-8" ?>
<svg baseProfile="tiny" height="128" version="1.2" viewBox="0,0,128,128" width="128" xmlns="http://www.w3.org/2000/svg" xmlns:ev="http://www.w3.org/2001/xml-events" xmlns:xlink="http://www.w3.org/1999/xlink"><defs /><polyline fill="none" points="18.6576,29.5051 22.9966,22.9966 28.2034,20.3932 32.9763,19.9593 39.0508,22.1288 43.8237,12.1492 46.861,8.678 46.861,19.9593 43.8237,26.9017 48.5966,34.278 47.7288,41.2203 42.9559,48.1627 38.6169,51.6339 27.7695,53.3695 23.8644,52.0678 14.7525,44.2576 9.1119,30.8068 8.678,15.1864 21.261,24.2983" stroke="#00007f" stroke-width="2" /><polyline fill="none" points="68.5559,38.1831 59.4441,36.8814 55.1051,37.7492 47.2949,42.9559 45.5593,46.4271 45.9932,51.2 49.4644,55.539 53.3695,57.2746 60.3119,59.4441 82.4407,60.7458 95.8915,59.4441 101.5322,57.7085 103.7017,55.539 102.8339,49.0305 95.8915,43.8237 75.0644,37.7492 61.6136,35.5797" stroke="#0000fe" stroke-width="2" /><polyline fill="none" points="103.2678,48.5966 111.5119,32.5424 111.9458,25.1661 109.3424,13.8847 112.8136,15.6203 117.5864,21.6949 119.322,32.5424 117.5864,37.7492 113.2475,43.3898 105.0034,48.1627" stroke="#0060ff" stroke-width="2" /><polyline fill="none" points="63.7831,56.8407 64.6508,66.8203 62.4814,73.3288 54.2373,78.1017 49.4644,75.9322 55.539,75.0644 54.6712,67.6881 59.4441,64.2169 64.2169,65.9525 64.6508,60.3119" stroke="#00d4ff" stroke-width="2" /><polyline fill="none" points="73.7627,59.4441 72.461,75.0644 69.8576,78.9695 66.3864,76.3661 68.5559,74.1966 73.7627,75.0644 68.122,69.4237 68.9898,67.6881 72.8949,66.3864 72.8949,56.8407" stroke="#4cffaa" stroke-width="2" /><polyline fill="none" points="88.5153,61.1797 90.6847,66.3864 89.3831,73.7627 86.3458,77.6678 80.2712,78.5356 76.8,76.8 75.4983,75.0644 78.1017,73.3288 85.0441,73.3288 85.478,65.5186 84.1763,59.4441" stroke="#aaff4c" stroke-width="2" /><polyline fill="none" points="99.3627,55.539 101.0983,65.5186 100.2305,72.8949 98.9288,74.1966 95.4576,74.6305 92.8542,71.5932 97.6271,68.122 97.6271,59.878" stroke="#ffe500" stroke-width="2" /><polyline fill="none" points="30.8068,30.8068 30.8068,30.8068" stroke="#ff7a00" stroke-width="2" /><polyline fill="none" points="39.0508,30.8068 39.0508,30.8068" stroke="#fe1200" stroke-width="2" /><polyline fill="none" points="24.2983,32.9763 24.7322,35.5797" stroke="#7f0000" stroke-width="2" /></svg>