<?xml version="1.0" encoding="utf-8" ?>
<svg baseProfile="tiny" height="128" version="1.2" viewBox="0,0,128,128" width="128" xmlns="http://www.w3.org/2000/svg" xmlns:ev="http://www.w3.org/2001/xml-events" xmlns:xlink="http://www.w3.org/1999/xlink"><defs /><polyline fill="none" points="116.2847,36.0136 114.1153,41.6542 109.7763,47.7288 101.0983,50.7661 89.8169,50.7661 85.0441,48.5966 83.3085,45.1254 84.6102,39.4847 88.9492,33.8441 97.1932,29.0712 110.6441,27.7695 114.1153,33.4102 114.1153,39.0508 109.7763,47.7288 103.7017,53.8034" stroke="#00007f" stroke-width="2" /><polyline fill="none" points="82.4407,28.6373 85.0441,14.3186 87.6475,8.678 91.9864,20.3932 92.8542,31.6746" stroke="#00d4ff" stroke-width="2" /><polyline fill="none" points="104.1356,25.6 112.3797,15.1864 114.9831,15.1864 119.322,29.939" stroke="#ffe500" stroke-width="2" /><polyline fill="none" points="8.678,47.7288 23.4305,42.522 44.2576,43.3898 53.3695,40.3525 68.9898,40.3525 85.9119,47.7288 89.3831,52.9356 92.8542,64.6508 95.4576,76.8 95.4576,85.478 93.722,90.6847 87.6475,95.0237 84.1763,96.3254 26.4678,96.3254 20.3932,95.0237" stroke="#7f0000" stroke-width="2" /></svg>