<?xml version="1.0" encoding="utf-8" ?>
<svg baseProfile="tiny" height="128" version="1.2" viewBox="0,0,128,128" width="128" xmlns="http://www.w3.org/2000/svg" xmlns:ev="http://www.w3.org/2001/xml-events" xmlns:xlink="http://www.w3.org/1999/xlink"><defs /><polyline fill="none" points="15.4483,24.2759 15.0069,8.8276 24.2759,15.8897 26.9241,19.8621 37.5172,19.4207 46.3448,24.2759 47.669,18.0966 53.8483,9.269 57.3793,16.7724 58.7034,32.6621 52.5241,43.2552 45.4621,48.1103 32.2207,49.8759 24.7172,48.9931 21.1862,44.5793 15.8897,32.6621 14.1241,23.8345 16.331,22.9517" stroke="#00007f" stroke-width="2" /><polyline fill="none" points="29.131,30.0138 28.6897,31.3379 30.0138,32.2207" stroke="#0000e8" stroke-width="2" /><polyline fill="none" points="44.1379,29.5724 44.1379,31.7793 45.9034,32.2207" stroke="#0038ff" stroke-width="2" /><polyline fill="none" points="33.9862,37.5172 36.1931,37.9586 33.5448,37.9586" stroke="#0094ff" stroke-width="2" /><polyline fill="none" points="35.3103,37.9586 36.1931,41.0483 39.7241,39.7241" stroke="#0cf4ea" stroke-width="2" /><polyline fill="none" points="35.7517,38.8414 33.5448,41.931 30.0138,40.1655" stroke="#56ffa0" stroke-width="2" /><polyline fill="none" points="34.4276,41.0483 35.3103,43.6966 37.0759,41.0483" stroke="#a0ff56" stroke-width="2" /><polyline fill="none" points="59.5862,27.3655 110.7862,27.3655 111.2276,35.7517 116.9655,45.4621 119.1724,53.4069" stroke="#eaff0c" stroke-width="2" /><polyline fill="none" points="47.669,36.6345 60.469,37.0759 76.3586,34.4276" stroke="#ffaa00" stroke-width="2" /><polyline fill="none" points="45.4621,38.4 63.1172,42.3724" stroke="#ff5500" stroke-width="2" /><polyline fill="none" points="24.2759,37.5172 9.269,37.5172" stroke="#e80000" stroke-width="2" /><polyline fill="none" points="19.8621,40.1655 19.4207,41.0483 8.8276,41.931" stroke="#7f0000" stroke-width="2" /></svg>