<?xml version="1.0" encoding="utf-8" ?>
<svg baseProfile="tiny" height="128" version="1.2" viewBox="0,0,128,128" width="128" xmlns="http://www.w3.org/2000/svg" xmlns:ev="http://www.w3.org/2001/xml-events" xmlns:xlink="http://www.w3.org/1999/xlink"><defs /><polyline fill="none" points="43.3898,29.939 30.8068,10.4136 28.2034,9.1119 28.2034,21.261 30.3729,34.7119 23.4305,37.3153 20.8271,40.7864 17.7898,49.4644 16.922,56.8407 16.922,64.2169 21.6949,77.2339 36.4475,90.6847 44.6915,94.5898 63.3492,95.8915 78.9695,93.2881 90.6847,86.3458 95.4576,77.6678 97.1932,62.0475 93.722,55.9729 87.6475,50.7661 91.9864,45.1254 97.6271,28.6373 99.3627,16.922 98.4949,9.5458 96.3254,8.678 93.2881,10.4136 84.1763,22.1288 77.6678,27.7695 73.7627,29.0712 60.3119,28.2034 50.3322,32.9763 46.861,37.7492" stroke="#00007f" stroke-width="2" /><polyline fill="none" points="38.6169,48.5966 34.7119,49.4644 32.9763,52.0678 32.9763,56.8407 36.8814,59.0102 40.7864,59.0102 47.7288,55.1051 50.7661,52.0678 48.1627,50.7661" stroke="#0028ff" stroke-width="2" /><polyline fill="none" points="72.0271,52.5017 66.8203,52.9356 62.9153,54.6712 60.7458,59.0102 61.1797,63.3492 66.3864,63.3492 73.7627,58.5763 76.3661,55.9729 75.4983,53.8034 74.1966,53.8034" stroke="#00d4ff" stroke-width="2" /><polyline fill="none" points="48.5966,69.8576 46.4271,68.5559 11.7153,67.6881" stroke="#7cff79" stroke-width="2" /><polyline fill="none" points="36.4475,74.1966 18.6576,73.3288 8.678,75.4983" stroke="#ffe500" stroke-width="2" /><polyline fill="none" points="73.3288,74.1966 102.4,71.5932 119.322,72.461" stroke="#ff4600" stroke-width="2" /><polyline fill="none" points="75.0644,79.4034 111.5119,78.5356" stroke="#7f0000" stroke-width="2" /></svg>