<?xml version="1.0" encoding="utf-8" ?>
<svg baseProfile="tiny" height="128" version="1.2" viewBox="0,0,128,128" width="128" xmlns="http://www.w3.org/2000/svg" xmlns:ev="http://www.w3.org/2001/xml-events" xmlns:xlink="http://www.w3.org/1999/xlink"><defs /><polyline fill="none" points="91.1186,47.7288 57.7085,55.1051 38.6169,62.4814 20.3932,75.0644 12.1492,86.7797 9.5458,94.1559 8.678,110.2102 13.0169,116.2847 17.7898,118.4542 24.2983,119.322 40.7864,118.4542 61.1797,114.1153 78.5356,107.6068 86.7797,102.4 94.1559,94.5898 110.2102,66.3864 111.078,62.0475 108.0407,59.4441 96.7593,54.6712 82.8746,52.5017" stroke="#00007f" stroke-width="2" /><polyline fill="none" points="29.939,60.3119 31.2407,46.861 37.7492,27.7695 37.7492,10.8475 39.0508,8.678 41.2203,13.0169 41.2203,30.3729 48.5966,44.6915 48.5966,50.7661" stroke="#0080ff" stroke-width="2" /><polyline fill="none" points="69.4237,47.7288 78.5356,30.3729 98.9288,15.1864 103.7017,9.1119 106.739,13.8847 105.8712,26.4678 98.9288,45.9932 92.8542,55.9729" stroke="#7cff79" stroke-width="2" /><polyline fill="none" points="32.5424,73.7627 31.6746,80.2712 36.8814,81.139 39.4847,77.2339 39.4847,72.8949 36.4475,72.461" stroke="#ff9400" stroke-width="2" /><polyline fill="none" points="68.122,70.7254 62.9153,74.6305 62.0475,78.9695 64.2169,80.2712 71.5932,75.9322 73.7627,72.0271 72.461,69.8576 66.8203,70.7254" stroke="#7f0000" stroke-width="2" /></svg>