<?xml version="1.0" encoding="utf-8" ?>
<svg baseProfile="tiny" height="128" version="1.2" viewBox="0,0,128,128" width="128" xmlns="http://www.w3.org/2000/svg" xmlns:ev="http://www.w3.org/2001/xml-events" xmlns:xlink="http://www.w3.org/1999/xlink"><defs /><polyline fill="none" points="82.4407,20.8271 78.5356,17.3559 65.5186,10.8475 55.1051,8.678 46.861,9.5458 36.4475,15.6203 29.0712,26.4678 28.2034,35.5797 32.9763,44.6915 39.9186,51.2 53.3695,57.2746 64.6508,58.5763 71.5932,56.8407 77.6678,51.2 83.7424,35.5797 83.7424,29.939 81.139,23.4305 81.139,19.0915" stroke="#00007f" stroke-width="2" /><polyline fill="none" points="90.2508,10.8475 84.1763,12.1492 79.4034,16.0542 77.6678,22.1288 79.8373,27.3356 83.7424,29.939 94.1559,30.3729 100.2305,29.5051 103.2678,27.3356 105.0034,14.3186 103.2678,11.2814 95.8915,9.1119 87.2136,14.7525" stroke="#0000cc" stroke-width="2" /><polyline fill="none" points="94.1559,15.1864 94.5898,15.1864" stroke="#0008ff" stroke-width="2" /><polyline fill="none" points="102.8339,24.2983 114.5492,17.7898" stroke="#004cff" stroke-width="2" /><polyline fill="none" points="105.0034,23.4305 119.322,20.3932" stroke="#0090ff" stroke-width="2" /><polyline fill="none" points="105.0034,24.7322 118.8881,24.2983" stroke="#00d4ff" stroke-width="2" /><polyline fill="none" points="99.7966,24.7322 88.5153,36.8814" stroke="#29ffcd" stroke-width="2" /><polyline fill="none" points="100.2305,26.4678 94.1559,38.1831" stroke="#5fff96" stroke-width="2" /><polyline fill="none" points="101.5322,27.7695 102.8339,48.1627" stroke="#96ff5f" stroke-width="2" /><polyline fill="none" points="73.7627,54.6712 78.9695,74.1966" stroke="#cdff29" stroke-width="2" /><polyline fill="none" points="38.1831,49.8983 38.1831,56.4068 35.5797,68.122" stroke="#ffe500" stroke-width="2" /><polyline fill="none" points="45.9932,55.9729 43.8237,62.0475" stroke="#ffa600" stroke-width="2" /><polyline fill="none" points="68.9898,57.7085 73.7627,67.2542" stroke="#ff6700" stroke-width="2" /><polyline fill="none" points="45.9932,55.539 45.1254,58.1424" stroke="#ff2800" stroke-width="2" /><polyline fill="none" points="86.7797,16.4881 85.9119,9.1119 88.0814,9.1119 88.9492,14.3186" stroke="#cc0000" stroke-width="2" /><polyline fill="none" points="27.7695,32.5424 9.1119,43.3898 8.678,54.6712 10.4136,55.1051 12.5831,53.8034 18.6576,47.2949 25.1661,35.1458" stroke="#7f0000" stroke-width="2" /></svg>