<?xml version="1.0" encoding="utf-8" ?>
<svg baseProfile="tiny" height="128" version="1.2" viewBox="0,0,128,128" width="128" xmlns="http://www.w3.org/2000/svg" xmlns:ev="http://www.w3.org/2001/xml-events" xmlns:xlink="http://www.w3.org/1999/xlink"><defs /><polyline fill="none" points="35.5797,27.3356 33.4102,26.4678 15.1864,26.4678 10.8475,29.0712 9.1119,32.5424 8.678,43.3898 9.9797,47.7288 14.7525,53.8034 23.4305,59.0102 33.8441,59.4441 38.6169,56.4068 42.522,50.3322 43.3898,32.5424 38.6169,26.0339 31.6746,26.9017" stroke="#00007f" stroke-width="2" /><polyline fill="none" points="15.1864,26.9017 19.9593,10.8475 21.261,17.3559 24.2983,24.2983" stroke="#0000de" stroke-width="2" /><polyline fill="none" points="27.7695,25.6 32.9763,8.678 36.8814,26.9017" stroke="#0028ff" stroke-width="2" /><polyline fill="none" points="45.1254,33.4102 49.4644,29.939 55.9729,28.2034 75.9322,28.2034 82.0068,29.939 94.1559,39.4847 97.6271,43.3898 98.061,48.5966 90.6847,57.2746 78.9695,61.6136 71.1593,61.6136 57.7085,55.539 39.9186,51.6339" stroke="#0080ff" stroke-width="2" /><polyline fill="none" points="46.861,54.2373 41.6542,64.6508 36.0136,70.2915" stroke="#00d4ff" stroke-width="2" /><polyline fill="none" points="51.6339,55.9729 54.2373,68.9898 56.4068,71.5932 58.5763,71.1593" stroke="#36ffc0" stroke-width="2" /><polyline fill="none" points="78.5356,61.6136 78.1017,66.8203 73.7627,70.7254" stroke="#7cff79" stroke-width="2" /><polyline fill="none" points="80.2712,61.6136 85.478,67.2542 94.1559,67.6881" stroke="#c0ff36" stroke-width="2" /><polyline fill="none" points="97.6271,46.4271 105.0034,46.4271 113.2475,42.522 116.2847,39.4847 119.322,33.8441 119.322,18.2237" stroke="#ffe500" stroke-width="2" /><polyline fill="none" points="22.9966,34.278 22.9966,39.9186" stroke="#ff9400" stroke-width="2" /><polyline fill="none" points="31.6746,34.7119 32.5424,39.0508" stroke="#ff4600" stroke-width="2" /><polyline fill="none" points="23.4305,46.4271 27.3356,50.3322 30.8068,50.7661 35.1458,49.4644 36.0136,45.9932" stroke="#de0000" stroke-width="2" /><polyline fill="none" points="27.7695,41.6542 27.7695,42.9559" stroke="#7f0000" stroke-width="2" /></svg>