<?xml version="1.0" encoding="utf-8" ?>
<svg baseProfile="tiny" height="128" version="1.2" viewBox="0,0,128,128" width="128" xmlns="http://www.w3.org/2000/svg" xmlns:ev="http://www.w3.org/2001/xml-events" xmlns:xlink="http://www.w3.org/1999/xlink"><defs /><polyline fill="none" points="41.2203,30.8068 41.2203,25.1661 49.0305,8.678 58.1424,25.6 65.5186,23.8644 73.7627,26.9017 77.2339,24.2983 82.4407,11.7153 83.3085,12.5831 84.6102,38.1831 79.8373,48.1627 74.6305,54.6712 69.8576,58.5763 65.0847,59.4441 57.7085,57.2746 44.2576,49.0305 41.2203,42.9559 42.0881,33.4102" stroke="#00007f" stroke-width="2" /><polyline fill="none" points="62.0475,31.2407 60.7458,46.4271 62.4814,49.0305 65.0847,48.5966 66.3864,45.5593 60.3119,47.2949 59.4441,42.0881 56.8407,45.9932 52.5017,45.1254" stroke="#0000fe" stroke-width="2" /><polyline fill="none" points="54.2373,31.2407 54.2373,31.2407" stroke="#0060ff" stroke-width="2" /><polyline fill="none" points="70.7254,36.0136 70.7254,36.0136" stroke="#00d4ff" stroke-width="2" /><polyline fill="none" points="70.7254,36.0136 72.0271,37.7492 71.1593,35.5797" stroke="#4cffaa" stroke-width="2" /><polyline fill="none" points="52.5017,33.4102 52.0678,35.5797 54.6712,36.8814 58.5763,34.278 55.9729,33.8441 53.8034,35.1458 55.1051,35.5797 56.4068,33.8441 53.3695,33.4102" stroke="#aaff4c" stroke-width="2" /><polyline fill="none" points="60.3119,39.4847 49.0305,40.7864 21.261,39.9186 32.1085,42.522 56.8407,40.7864 47.2949,46.4271 30.3729,52.9356 8.678,58.1424 51.6339,41.2203 55.539,40.3525 58.1424,42.0881 54.6712,48.5966 50.3322,52.9356 28.2034,67.6881" stroke="#ffe500" stroke-width="2" /><polyline fill="none" points="61.6136,39.4847 65.0847,41.2203 76.3661,41.6542 100.6644,39.0508 118.0203,39.0508" stroke="#ff7a00" stroke-width="2" /><polyline fill="none" points="61.1797,40.3525 75.4983,49.0305 119.322,65.9525" stroke="#fe1200" stroke-width="2" /><polyline fill="none" points="53.3695,37.3153 53.3695,37.3153" stroke="#7f0000" stroke-width="2" /></svg>