<?xml version="1.0" encoding="utf-8" ?>
<svg baseProfile="tiny" height="128" version="1.2" viewBox="0,0,128,128" width="128" xmlns="http://www.w3.org/2000/svg" xmlns:ev="http://www.w3.org/2001/xml-events" xmlns:xlink="http://www.w3.org/1999/xlink"><defs /><polyline fill="none" points="31.7823,51.8095 30.0408,35.2653 25.6871,16.1088 28.2993,23.0748 41.3605,43.9728 54.8571,42.6667 56.1633,40.0544 55.2925,17.8503 56.5986,8.7075 58.3401,11.3197 61.8231,30.9116 67.0476,47.8912" stroke="#00007f" stroke-width="2" /><polyline fill="none" points="37.4422,60.9524 40.4898,56.5986 50.068,56.1633 43.5374,58.7755 38.3129,57.9048" stroke="#0000f1" stroke-width="2" /><polyline fill="none" points="54.8571,57.034 54.8571,57.034" stroke="#004cff" stroke-width="2" /><polyline fill="none" points="60.517,51.8095 67.483,49.6327 63.5646,53.1156 56.1633,53.551" stroke="#00b0ff" stroke-width="2" /><polyline fill="none" points="54.4218,64.0 57.4694,62.6939" stroke="#29ffcd" stroke-width="2" /><polyline fill="none" points="60.0816,57.9048 72.2721,51.8095 80.9796,49.1973 92.7347,48.7619 96.2177,50.068 97.5238,52.6803" stroke="#7cff79" stroke-width="2" /><polyline fill="none" points="64.0,60.517 82.7211,59.6463 87.9456,60.517 90.9932,63.1293" stroke="#cdff29" stroke-width="2" /><polyline fill="none" points="40.9252,64.4354 26.9932,60.9524 16.9796,60.9524 12.6259,62.6939 8.7075,67.483" stroke="#ffc400" stroke-width="2" /><polyline fill="none" points="47.8912,65.3061 37.0068,65.7415 31.3469,67.9184 24.381,73.1429" stroke="#ff6700" stroke-width="2" /><polyline fill="none" points="34.3946,74.0136 44.4082,80.5442 54.4218,80.9796 58.7755,79.2381 61.3878,76.1905 66.1769,65.3061" stroke="#f10700" stroke-width="2" /><polyline fill="none" points="47.4558,84.0272 46.585,97.5238 39.1837,105.3605 30.0408,110.1497 26.9932,115.3741 28.2993,119.2925 35.7007,119.2925 52.6803,112.3265 55.2925,108.4082 55.7279,98.8299 57.4694,108.4082 60.517,113.6327 63.5646,115.8095 77.4966,116.6803 78.8027,111.0204" stroke="#7f0000" stroke-width="2" /></svg>