<?xml version="1.0" encoding="utf-8" ?>
<svg baseProfile="tiny" height="128" version="1.2" viewBox="0,0,128,128" width="128" xmlns="http://www.w3.org/2000/svg" xmlns:ev="http://www.w3.org/2001/xml-events" xmlns:xlink="http://www.w3.org/1999/xlink"><defs /><polyline fill="none" points="48.5966,103.2678 42.522,106.3051 34.278,108.0407 24.2983,105.4373 19.0915,99.7966 14.7525,88.0814 16.4881,55.1051 13.4508,44.6915 12.1492,33.4102 8.678,23.8644 19.9593,28.6373 31.6746,36.0136 45.1254,48.1627 50.7661,55.9729 55.539,56.8407 77.2339,51.2 81.139,45.5593 82.8746,38.1831 91.1186,22.9966 101.5322,8.678 106.739,29.0712 106.3051,59.0102 108.4746,71.5932 108.4746,86.7797 105.4373,99.3627 94.5898,114.9831 91.5525,117.1525 82.0068,119.322 48.5966,119.322 37.7492,117.5864 26.9017,111.9458 19.0915,105.0034 14.3186,95.4576 13.8847,89.8169" stroke="#00007f" stroke-width="2" /><polyline fill="none" points="48.1627,72.461 56.8407,86.3458 62.9153,72.8949 48.1627,74.6305" stroke="#0080ff" stroke-width="2" /><polyline fill="none" points="59.0102,85.9119 57.2746,88.5153 57.7085,96.3254" stroke="#7cff79" stroke-width="2" /><polyline fill="none" points="41.6542,82.8746 42.9559,88.0814 46.4271,92.8542 52.9356,97.1932 57.7085,98.061 62.9153,97.6271 68.9898,93.722 72.8949,85.9119" stroke="#ff9400" stroke-width="2" /><polyline fill="none" points="26.0339,64.2169 30.8068,67.2542 39.4847,68.5559 39.4847,64.6508 34.7119,61.1797 26.9017,65.5186" stroke="#7f0000" stroke-width="2" /></svg>