<?xml version="1.0" encoding="utf-8" ?>
<svg baseProfile="tiny" height="128" version="1.2" viewBox="0,0,128,128" width="128" xmlns="http://www.w3.org/2000/svg" xmlns:ev="http://www.w3.org/2001/xml-events" xmlns:xlink="http://www.w3.org/1999/xlink"><defs /><polyline fill="none" points="20.3932,33.4102 17.7898,25.1661 11.7153,16.922 9.1119,24.7322 8.678,40.7864 16.0542,54.6712 19.5254,58.1424 27.7695,61.6136 33.4102,66.3864 36.8814,65.9525 39.4847,64.2169 50.7661,51.6339 55.1051,45.5593 56.8407,38.1831 58.5763,12.5831 56.4068,8.678 46.861,18.6576 41.6542,28.6373 36.8814,26.9017 27.3356,26.9017 21.6949,29.5051" stroke="#00007f" stroke-width="2" /><polyline fill="none" points="32.5424,49.8983 30.8068,56.4068 25.6,57.2746 22.5627,55.539 22.1288,52.5017 29.0712,52.0678 31.6746,48.1627 32.1085,55.539 32.9763,56.8407 38.1831,57.2746 41.2203,55.1051 42.0881,52.0678 40.3525,48.5966 37.7492,47.7288 34.278,50.3322" stroke="#004cff" stroke-width="2" /><polyline fill="none" points="40.3525,36.8814 40.7864,35.1458 43.8237,35.1458 48.5966,38.1831" stroke="#29ffcd" stroke-width="2" /><polyline fill="none" points="31.6746,38.1831 25.6,33.8441 22.5627,33.8441 21.261,35.1458" stroke="#cdff29" stroke-width="2" /><polyline fill="none" points="15.6203,51.6339 14.7525,108.4746 19.0915,119.322 23.4305,116.7186 29.939,108.0407 31.6746,84.6102 33.8441,78.9695 37.3153,76.8 39.9186,76.3661 40.7864,78.1017 39.0508,108.4746 43.3898,112.8136 47.7288,112.8136 49.8983,110.2102 51.2,91.9864 49.0305,57.7085" stroke="#ff6700" stroke-width="2" /><polyline fill="none" points="48.5966,90.2508 51.6339,86.3458 61.6136,82.0068 88.0814,82.4407 89.3831,103.7017 91.5525,107.6068 95.4576,98.061 94.1559,83.3085 95.4576,100.6644 98.4949,107.6068 102.8339,98.061 98.4949,85.478 98.061,78.5356 101.5322,62.9153 106.3051,53.8034 108.9085,33.4102 97.6271,59.0102 94.5898,61.6136 84.1763,55.1051 56.8407,51.2 40.3525,53.3695 30.3729,56.4068" stroke="#7f0000" stroke-width="2" /></svg>