<?xml version="1.0" encoding="utf-8" ?>
<svg baseProfile="tiny" height="128" version="1.2" viewBox="0,0,128,128" width="128" xmlns="http://www.w3.org/2000/svg" xmlns:ev="http://www.w3.org/2001/xml-events" xmlns:xlink="http://www.w3.org/1999/xlink"><defs /><polyline fill="none" points="13.8847,63.3492 8.678,22.1288 12.5831,9.5458 15.6203,8.678 23.8644,13.8847 29.5051,22.9966 32.9763,32.5424 42.9559,27.3356 55.1051,27.3356 85.0441,31.6746 88.5153,34.278 100.2305,19.5254 111.078,11.2814 113.6814,14.3186 119.322,32.9763 119.322,48.5966 114.5492,63.3492 105.0034,75.4983 85.9119,88.5153 74.6305,89.8169 67.6881,91.9864 42.9559,93.722 30.3729,88.5153 20.8271,79.4034 15.1864,70.2915 12.5831,63.3492" stroke="#00007f" stroke-width="2" /><polyline fill="none" points="33.8441,71.5932 39.9186,75.0644 45.9932,75.4983 57.7085,71.5932 62.9153,64.6508 66.8203,68.122 68.122,71.1593 74.6305,73.3288 80.2712,72.8949 93.2881,68.122" stroke="#0000f1" stroke-width="2" /><polyline fill="none" points="65.9525,62.0475 62.9153,59.4441 65.5186,58.1424 64.2169,62.0475" stroke="#004cff" stroke-width="2" /><polyline fill="none" points="46.4271,44.2576 51.6339,45.5593" stroke="#00b0ff" stroke-width="2" /><polyline fill="none" points="72.8949,47.7288 81.5729,45.9932" stroke="#29ffcd" stroke-width="2" /><polyline fill="none" points="88.9492,55.9729 98.9288,49.4644 105.4373,49.8983" stroke="#7cff79" stroke-width="2" /><polyline fill="none" points="90.6847,57.7085 106.3051,56.8407" stroke="#cdff29" stroke-width="2" /><polyline fill="none" points="95.0237,59.878 109.3424,62.9153" stroke="#ffc400" stroke-width="2" /><polyline fill="none" points="34.278,58.1424 23.4305,54.6712" stroke="#ff6700" stroke-width="2" /><polyline fill="none" points="33.8441,62.0475 29.939,63.3492 21.6949,62.9153" stroke="#f10700" stroke-width="2" /><polyline fill="none" points="39.4847,62.9153 29.5051,68.5559" stroke="#7f0000" stroke-width="2" /></svg>