<?xml version="1.0" encoding="utf-8" ?>
<svg baseProfile="tiny" height="128" version="1.2" viewBox="0,0,128,128" width="128" xmlns="http://www.w3.org/2000/svg" xmlns:ev="http://www.w3.org/2001/xml-events" xmlns:xlink="http://www.w3.org/1999/xlink"><defs /><polyline fill="none" points="31.2407,53.8034 37.7492,48.1627 47.7288,35.1458 52.9356,24.7322 56.8407,8.678 56.8407,32.9763 58.1424,36.4475 60.3119,37.7492 63.7831,37.3153 71.1593,31.2407 86.3458,9.5458 87.6475,29.5051 93.722,45.9932 94.5898,58.5763 93.2881,64.6508 85.0441,80.2712 76.8,88.0814 69.4237,92.4203 60.3119,92.4203 48.1627,85.9119 35.1458,71.1593 32.1085,65.0847 32.9763,57.2746 37.3153,45.9932" stroke="#00007f" stroke-width="2" /><polyline fill="none" points="49.8983,54.6712 47.7288,58.5763 48.1627,62.9153 53.3695,63.7831 57.2746,60.3119 55.9729,55.539 50.3322,52.9356" stroke="#0000f1" stroke-width="2" /><polyline fill="none" points="82.4407,53.8034 76.3661,58.1424 74.6305,62.0475 78.1017,63.7831 82.8746,60.7458 83.3085,58.1424 80.7051,55.9729" stroke="#004cff" stroke-width="2" /><polyline fill="none" points="100.2305,59.0102 118.4542,59.878" stroke="#00b0ff" stroke-width="2" /><polyline fill="none" points="95.0237,69.4237 119.322,73.3288" stroke="#29ffcd" stroke-width="2" /><polyline fill="none" points="88.0814,77.2339 91.9864,78.9695 116.7186,81.5729" stroke="#7cff79" stroke-width="2" /><polyline fill="none" points="43.3898,51.6339 23.4305,54.2373 9.1119,53.8034" stroke="#cdff29" stroke-width="2" /><polyline fill="none" points="36.8814,73.3288 8.678,69.8576" stroke="#ffc400" stroke-width="2" /><polyline fill="none" points="41.6542,77.6678 28.6373,82.4407 12.1492,84.1763" stroke="#ff6700" stroke-width="2" /><polyline fill="none" points="52.5017,77.2339 62.9153,81.139 73.3288,81.139 77.6678,79.4034" stroke="#f10700" stroke-width="2" /><polyline fill="none" points="66.8203,71.5932 66.8203,71.5932" stroke="#7f0000" stroke-width="2" /></svg>