<?xml version="1.0" encoding="utf-8" ?>
<svg baseProfile="tiny" height="128" version="1.2" viewBox="0,0,128,128" width="128" xmlns="http://www.w3.org/2000/svg" xmlns:ev="http://www.w3.org/2001/xml-events" xmlns:xlink="http://www.w3.org/1999/xlink"><defs /><polyline fill="none" points="20.4626,41.7959 15.2381,46.1497 11.3197,54.8571 10.0136,65.3061 12.1905,72.7075 19.5918,84.0272 31.3469,93.6054 40.0544,97.9592 55.7279,101.8776 71.4014,102.3129 79.2381,101.0068 87.9456,97.0884 96.6531,90.9932 105.3605,80.1088 109.7143,64.4354 110.1497,47.8912 106.2313,41.7959 101.0068,38.3129 87.9456,35.7007 86.6395,33.9592 86.6395,20.0272 83.5918,9.1429 80.9796,8.7075 71.8367,17.415 65.3061,24.381 62.6939,30.0408 44.8435,35.2653 42.6667,35.7007 42.2313,30.0408 37.8776,22.6395 29.6054,18.2857 29.1701,26.5578 31.3469,34.3946 29.6054,36.5714 22.2041,38.7483" stroke="#00007f" stroke-width="2" /><polyline fill="none" points="34.3946,67.0476 15.6735,82.2857 8.7075,90.1224 10.449,90.9932 12.6259,90.1224" stroke="#0000ff" stroke-width="2" /><polyline fill="none" points="37.4422,71.8367 39.619,73.1429 30.9116,86.2041 29.1701,90.9932" stroke="#0080ff" stroke-width="2" /><polyline fill="none" points="43.102,80.5442 36.1361,100.1361 35.7007,104.0544" stroke="#15ffe1" stroke-width="2" /><polyline fill="none" points="93.6054,61.3878 119.2925,68.7891 118.4218,69.6599" stroke="#7cff79" stroke-width="2" /><polyline fill="none" points="90.1224,72.2721 106.6667,78.8027 107.102,80.5442" stroke="#e4ff12" stroke-width="2" /><polyline fill="none" points="98.3946,82.7211 98.3946,82.7211" stroke="#ff9400" stroke-width="2" /><polyline fill="none" points="54.4218,60.517 69.6599,60.9524" stroke="#ff1d00" stroke-width="2" /><polyline fill="none" points="53.551,62.2585 62.2585,72.2721 65.3061,64.8707" stroke="#7f0000" stroke-width="2" /></svg>