<?xml version="1.0" encoding="utf-8" ?>
<svg baseProfile="tiny" height="128" version="1.2" viewBox="0,0,128,128" width="128" xmlns="http://www.w3.org/2000/svg" xmlns:ev="http://www.w3.org/2001/xml-events" xmlns:xlink="http://www.w3.org/1999/xlink"><defs /><polyline fill="none" points="39.0508,31.6746 41.6542,51.2 46.4271,64.2169 58.1424,81.5729 68.9898,87.6475 79.8373,88.0814 86.3458,86.3458 94.1559,80.7051 98.4949,75.9322 101.9661,69.8576 104.5695,59.0102 104.5695,41.2203 98.061,33.4102 84.1763,27.7695 56.4068,22.1288 43.3898,21.6949 37.7492,22.9966 34.7119,25.6 33.8441,29.0712 43.3898,58.5763 50.3322,68.5559 56.4068,74.1966" stroke="#00007f" stroke-width="2" /><polyline fill="none" points="83.7424,62.4814 112.3797,61.6136" stroke="#0000e8" stroke-width="2" /><polyline fill="none" points="95.4576,68.122 111.9458,77.2339" stroke="#0038ff" stroke-width="2" /><polyline fill="none" points="85.9119,81.5729 91.9864,84.1763" stroke="#0094ff" stroke-width="2" /><polyline fill="none" points="90.6847,84.1763 93.722,85.9119 100.2305,87.2136 114.1153,94.1559" stroke="#0cf4ea" stroke-width="2" /><polyline fill="none" points="37.3153,64.2169 40.3525,62.4814 50.7661,62.0475" stroke="#56ffa0" stroke-width="2" /><polyline fill="none" points="36.4475,82.0068 54.2373,73.3288" stroke="#a0ff56" stroke-width="2" /><polyline fill="none" points="55.539,90.2508 67.6881,82.8746" stroke="#eaff0c" stroke-width="2" /><polyline fill="none" points="81.5729,32.5424 77.6678,33.8441 76.3661,37.3153 77.2339,43.8237 79.4034,45.9932 88.9492,47.7288 91.9864,43.8237 91.5525,39.0508 88.0814,35.5797 84.1763,35.1458 83.7424,40.3525 89.3831,41.2203 89.8169,38.6169 86.7797,36.4475 82.8746,36.4475 82.4407,40.3525 85.0441,43.8237" stroke="#ffaa00" stroke-width="2" /><polyline fill="none" points="52.0678,33.4102 49.4644,35.1458 49.8983,41.2203 59.0102,42.0881 61.1797,38.1831 60.3119,34.7119 54.2373,32.5424 54.2373,36.0136 55.539,37.3153" stroke="#ff5500" stroke-width="2" /><polyline fill="none" points="84.6102,25.6 85.0441,22.9966 91.5525,18.6576 108.9085,17.7898 114.9831,19.5254 118.0203,22.5627 119.322,26.9017 114.9831,39.4847 110.6441,47.7288" stroke="#e80000" stroke-width="2" /><polyline fill="none" points="50.7661,15.6203 41.6542,10.4136 29.939,8.678 13.0169,9.5458 8.678,12.1492 9.9797,18.6576 17.7898,27.3356 39.0508,42.522" stroke="#7f0000" stroke-width="2" /></svg>