<?xml version="1.0" encoding="utf-8" ?>
<svg baseProfile="tiny" height="128" version="1.2" viewBox="0,0,128,128" width="128" xmlns="http://www.w3.org/2000/svg" xmlns:ev="http://www.w3.org/2001/xml-events" xmlns:xlink="http://www.w3.org/1999/xlink"><defs /><polyline fill="none" points="85.478,16.4881 58.5763,19.9593 52.0678,22.1288 32.9763,32.9763 23.4305,42.0881 19.9593,48.5966 18.6576,53.3695 18.6576,68.9898 20.3932,74.1966 25.6,78.9695 43.3898,84.1763 78.9695,85.0441 91.1186,79.4034 94.1559,76.8 103.2678,64.2169 105.8712,57.2746 105.8712,50.7661 98.4949,24.7322 89.8169,18.6576 82.0068,18.6576" stroke="#00007f" stroke-width="2" /><polyline fill="none" points="39.0508,26.0339 8.678,13.4508 9.5458,18.2237 15.1864,31.6746 19.5254,36.8814" stroke="#004cff" stroke-width="2" /><polyline fill="none" points="99.3627,25.6 101.5322,21.261 113.6814,9.9797 116.2847,8.678 118.4542,11.2814 119.322,15.1864 115.4169,22.5627 106.739,33.8441 103.2678,36.8814" stroke="#29ffcd" stroke-width="2" /><polyline fill="none" points="88.0814,37.7492 88.0814,37.7492" stroke="#cdff29" stroke-width="2" /><polyline fill="none" points="85.0441,37.3153 87.2136,38.1831 85.478,39.9186 83.7424,40.7864 83.3085,39.0508 85.0441,38.1831 80.7051,39.0508" stroke="#ff6700" stroke-width="2" /><polyline fill="none" points="42.522,37.3153 44.2576,41.6542 46.4271,39.4847 44.2576,37.7492" stroke="#7f0000" stroke-width="2" /></svg>