<?xml version="1.0" encoding="utf-8" ?>
<svg baseProfile="tiny" height="128" version="1.2" viewBox="0,0,128,128" width="128" xmlns="http://www.w3.org/2000/svg" xmlns:ev="http://www.w3.org/2001/xml-events" xmlns:xlink="http://www.w3.org/1999/xlink"><defs /><polyline fill="none" points="17.8503,28.7347 12.6259,32.2177 9.5782,37.4422 8.7075,48.3265 10.8844,53.9864 16.1088,61.8231 20.4626,64.4354 27.4286,64.4354 30.9116,63.1293 37.0068,57.4694 39.619,53.551 42.2313,43.5374 42.2313,32.6531 38.7483,27.4286 32.2177,24.8163 26.9932,24.381 20.0272,27.4286" stroke="#00007f" stroke-width="2" /><polyline fill="none" points="18.2857,30.0408 20.0272,17.415 24.381,8.7075 27.8639,19.1565 29.1701,21.3333 30.4762,21.7687 52.6803,10.0136 51.8095,19.5918 43.9728,38.3129" stroke="#0010ff" stroke-width="2" /><polyline fill="none" points="43.102,40.4898 63.5646,32.2177 77.0612,30.9116 84.4626,32.2177 92.7347,36.1361 96.6531,39.619 97.9592,43.5374 84.4626,50.068 69.6599,53.1156 24.8163,54.8571 36.5714,52.2449" stroke="#00a4ff" stroke-width="2" /><polyline fill="none" points="97.9592,39.619 99.2653,41.3605 104.4898,41.7959 119.2925,38.3129 116.6803,40.9252" stroke="#3fffb7" stroke-width="2" /><polyline fill="none" points="43.102,53.551 43.9728,62.6939 45.7143,61.8231" stroke="#b7ff3f" stroke-width="2" /><polyline fill="none" points="53.551,50.9388 56.5986,57.034" stroke="#ffb900" stroke-width="2" /><polyline fill="none" points="65.3061,50.068 67.483,57.9048 69.6599,58.3401" stroke="#ff3000" stroke-width="2" /><polyline fill="none" points="82.2857,49.6327 83.1565,59.6463" stroke="#7f0000" stroke-width="2" /></svg>