<?xml version="1.0" encoding="utf-8" ?>
<svg baseProfile="tiny" height="128" version="1.2" viewBox="0,0,128,128" width="128" xmlns="http://www.w3.org/2000/svg" xmlns:ev="http://www.w3.org/2001/xml-events" xmlns:xlink="http://www.w3.org/1999/xlink"><defs /><polyline fill="none" points="78.9695,49.0305 69.4237,41.6542 55.539,41.6542 49.0305,45.5593 39.0508,56.8407 34.7119,68.5559 34.278,81.139 36.0136,86.7797 43.3898,96.3254 47.7288,99.7966 58.1424,104.1356 75.0644,104.1356 82.8746,97.1932 89.3831,88.9492 94.1559,76.8 94.1559,57.2746 86.3458,47.7288 80.7051,45.1254 73.3288,44.6915 72.461,42.9559 78.5356,33.4102 94.5898,17.7898 104.1356,12.1492 114.9831,8.678 117.1525,8.678 119.322,10.8475 119.322,17.3559 116.7186,26.4678 110.6441,37.7492 93.722,61.1797" stroke="#00007f" stroke-width="2" /><polyline fill="none" points="60.7458,40.3525 38.6169,22.5627 29.0712,17.7898 16.922,16.0542 15.6203,18.6576 15.6203,25.6 21.6949,40.3525 35.1458,58.1424 43.3898,63.7831" stroke="#0000e8" stroke-width="2" /><polyline fill="none" points="66.3864,75.0644 63.7831,74.6305 63.3492,78.1017 64.6508,76.3661 64.2169,82.0068 58.5763,87.2136 47.7288,89.3831" stroke="#0038ff" stroke-width="2" /><polyline fill="none" points="64.2169,74.1966 64.2169,83.3085 68.122,89.8169 74.6305,91.9864 82.0068,91.1186" stroke="#0094ff" stroke-width="2" /><polyline fill="none" points="59.0102,50.7661 58.5763,59.0102 61.1797,54.6712 59.0102,53.3695" stroke="#0cf4ea" stroke-width="2" /><polyline fill="none" points="80.2712,57.2746 78.1017,59.0102 78.1017,64.2169 79.8373,66.3864 81.5729,66.3864 81.5729,60.3119" stroke="#56ffa0" stroke-width="2" /><polyline fill="none" points="78.1017,82.0068 84.1763,80.2712 105.0034,67.2542" stroke="#a0ff56" stroke-width="2" /><polyline fill="none" points="84.1763,88.9492 116.7186,94.1559" stroke="#eaff0c" stroke-width="2" /><polyline fill="none" points="84.1763,86.3458 89.8169,87.2136 107.6068,84.6102" stroke="#ffaa00" stroke-width="2" /><polyline fill="none" points="47.7288,79.4034 30.8068,79.4034 8.678,72.8949" stroke="#ff5500" stroke-width="2" /><polyline fill="none" points="42.522,75.0644 18.6576,61.1797" stroke="#e80000" stroke-width="2" /><polyline fill="none" points="42.0881,86.7797 33.8441,89.3831 21.6949,95.4576" stroke="#7f0000" stroke-width="2" /></svg>