<?xml version="1.0" encoding="utf-8" ?>
<svg baseProfile="tiny" height="128" version="1.2" viewBox="0,0,128,128" width="128" xmlns="http://www.w3.org/2000/svg" xmlns:ev="http://www.w3.org/2001/xml-events" xmlns:xlink="http://www.w3.org/1999/xlink"><defs /><polyline fill="none" points="12.6259,23.5102 16.9796,11.3197 20.898,21.3333 20.898,19.5918 23.9456,17.8503 32.6531,16.9796 43.102,22.6395 46.1497,8.7075 50.9388,20.898" stroke="#00007f" stroke-width="2" /><polyline fill="none" points="11.3197,23.5102 10.0136,44.4082 13.0612,52.6803 16.1088,57.4694 20.898,60.9524 28.7347,63.5646 34.8299,63.5646 43.102,61.3878 48.7619,57.4694 53.551,52.6803 57.9048,44.4082 57.9048,33.9592 47.8912,19.5918" stroke="#0000b6" stroke-width="2" /><polyline fill="none" points="25.6871,37.0068 27.8639,40.9252 26.5578,38.7483 26.9932,36.5714 31.7823,36.1361 32.2177,39.1837 29.6054,43.102 28.2993,37.8776 29.6054,40.0544" stroke="#0000f1" stroke-width="2" /><polyline fill="none" points="31.3469,37.0068 45.2789,29.1701" stroke="#0018ff" stroke-width="2" /><polyline fill="none" points="33.5238,37.4422 50.068,36.1361" stroke="#004cff" stroke-width="2" /><polyline fill="none" points="34.8299,39.1837 50.068,45.7143" stroke="#0080ff" stroke-width="2" /><polyline fill="none" points="23.9456,38.3129 10.8844,35.2653" stroke="#00b0ff" stroke-width="2" /><polyline fill="none" points="25.6871,39.619 18.2857,39.619 8.7075,43.9728" stroke="#00e4f7" stroke-width="2" /><polyline fill="none" points="24.8163,40.9252 18.2857,44.8435 10.449,53.551" stroke="#29ffcd" stroke-width="2" /><polyline fill="none" points="17.415,37.8776 15.6735,37.4422" stroke="#53ffa3" stroke-width="2" /><polyline fill="none" points="16.5442,42.6667 16.5442,42.6667" stroke="#7cff79" stroke-width="2" /><polyline fill="none" points="42.2313,33.5238 42.2313,33.5238" stroke="#a3ff53" stroke-width="2" /><polyline fill="none" points="42.6667,39.619 42.6667,39.619" stroke="#cdff29" stroke-width="2" /><polyline fill="none" points="19.5918,27.4286 20.898,27.8639" stroke="#f7f400" stroke-width="2" /><polyline fill="none" points="37.8776,24.8163 38.3129,24.381" stroke="#ffc400" stroke-width="2" /><polyline fill="none" points="20.0272,48.3265 47.8912,43.5374 49.1973,51.8095 45.7143,45.7143 19.1565,47.8912 21.3333,54.4218 22.6395,53.1156 24.381,47.0204 26.5578,56.1633 31.3469,58.7755 37.4422,58.7755 41.3605,57.034 44.8435,53.551 47.4558,47.8912 47.8912,43.9728" stroke="#ff9400" stroke-width="2" /><polyline fill="none" points="59.2109,34.3946 95.3469,34.3946 103.619,35.7007 109.2789,37.8776 112.7619,42.2313 113.1973,47.4558 110.585,57.034 105.7959,67.9184 104.0544,69.2245 102.7483,65.3061 100.1361,62.6939 87.0748,59.6463 85.7687,69.6599 84.4626,72.7075 81.415,62.6939 69.2245,62.2585 58.3401,59.6463 53.551,67.9184 52.2449,68.7891 51.8095,64.0 50.5034,63.5646 45.7143,71.8367 44.8435,60.9524" stroke="#ff6700" stroke-width="2" /><polyline fill="none" points="109.7143,38.3129 111.8912,37.8776 115.3741,40.4898 119.2925,52.6803 119.2925,67.9184 115.8095,77.932 112.3265,80.5442 112.3265,50.9388 110.585,42.6667" stroke="#ff3700" stroke-width="2" /><polyline fill="none" points="91.4286,36.1361 92.2993,39.619 95.3469,41.7959 101.8776,40.9252 104.4898,38.7483 103.619,37.4422 90.9932,37.8776 98.3946,37.0068 94.9116,39.619 95.7823,40.4898 101.8776,39.619 95.7823,40.4898" stroke="#f10700" stroke-width="2" /><polyline fill="none" points="67.0476,44.4082 73.5782,43.5374 76.6259,44.8435 77.4966,48.3265 73.5782,50.9388 70.0952,50.9388 68.3537,49.1973 69.2245,44.8435 70.966,42.6667 65.7415,47.0204 68.3537,47.8912 74.0136,44.4082 69.6599,48.3265 76.1905,46.585 73.1429,49.6327" stroke="#b60000" stroke-width="2" /><polyline fill="none" points="16.5442,26.9932 19.5918,24.8163 24.381,24.8163 26.9932,26.9932 27.4286,30.4762 25.6871,33.5238 22.6395,35.2653 18.7211,35.2653 16.1088,33.5238" stroke="#7f0000" stroke-width="2" /></svg>