<?xml version="1.0" encoding="utf-8" ?>
<svg baseProfile="tiny" height="128" version="1.2" viewBox="0,0,128,128" width="128" xmlns="http://www.w3.org/2000/svg" xmlns:ev="http://www.w3.org/2001/xml-events" xmlns:xlink="http://www.w3.org/1999/xlink"><defs /><polyline fill="none" points="32.5424,38.6169 33.4102,29.0712 30.8068,16.4881 31.2407,10.4136 37.3153,11.2814 44.6915,15.1864 54.6712,31.2407 56.8407,29.5051 68.122,28.2034 71.1593,28.2034 75.4983,31.2407 76.8,29.0712 76.3661,19.5254 78.5356,9.9797 80.2712,8.678 84.1763,12.5831 91.9864,31.6746 99.3627,35.1458 106.3051,46.4271 105.4373,55.539 98.4949,63.7831 91.9864,65.9525 78.1017,66.3864 50.3322,65.5186 39.0508,60.3119 36.4475,56.8407 32.9763,48.1627 33.4102,39.0508" stroke="#00007f" stroke-width="2" /><polyline fill="none" points="45.5593,43.8237 49.8983,42.522 51.6339,45.1254 46.861,45.5593 45.9932,44.2576" stroke="#0000fe" stroke-width="2" /><polyline fill="none" points="75.4983,42.0881 77.2339,40.3525 80.2712,40.3525 81.5729,42.522 75.4983,42.9559" stroke="#0060ff" stroke-width="2" /><polyline fill="none" points="55.539,55.1051 56.4068,52.0678 57.7085,51.6339 59.4441,51.6339 59.878,53.3695 63.3492,51.6339 69.4237,53.3695" stroke="#00d4ff" stroke-width="2" /><polyline fill="none" points="85.478,47.2949 114.1153,42.522" stroke="#4cffaa" stroke-width="2" /><polyline fill="none" points="96.3254,49.4644 119.322,47.2949" stroke="#aaff4c" stroke-width="2" /><polyline fill="none" points="97.6271,54.2373 115.4169,54.2373" stroke="#ffe500" stroke-width="2" /><polyline fill="none" points="42.522,49.8983 14.3186,54.2373 8.678,56.4068" stroke="#ff7a00" stroke-width="2" /><polyline fill="none" points="41.6542,56.8407 16.0542,63.3492" stroke="#fe1200" stroke-width="2" /><polyline fill="none" points="44.2576,63.3492 43.3898,62.4814" stroke="#7f0000" stroke-width="2" /></svg>