<?xml version="1.0" encoding="utf-8" ?>
<svg baseProfile="tiny" height="128" version="1.2" viewBox="0,0,128,128" width="128" xmlns="http://www.w3.org/2000/svg" xmlns:ev="http://www.w3.org/2001/xml-events" xmlns:xlink="http://www.w3.org/1999/xlink"><defs /><polyline fill="none" points="72.461,39.0508 82.0068,31.2407 89.8169,19.9593 102.8339,8.678 104.1356,12.5831 102.8339,30.8068 103.7017,59.4441 106.739,61.6136 108.9085,65.0847 111.9458,80.2712 112.3797,103.7017 108.0407,111.078 98.061,114.5492 90.6847,114.5492 82.0068,117.1525 68.9898,119.322 56.4068,119.322 44.6915,118.4542 24.2983,111.078 20.3932,106.739 11.2814,85.478 8.678,82.0068 26.9017,62.9153 28.6373,55.9729 29.5051,60.3119" stroke="#00007f" stroke-width="2" /><polyline fill="none" points="29.5051,60.3119 26.4678,52.5017 24.2983,36.8814 18.2237,21.6949 16.922,10.8475 20.3932,10.4136 28.6373,26.4678 37.7492,29.939 59.4441,32.1085 71.1593,35.5797 72.0271,38.1831" stroke="#0010ff" stroke-width="2" /><polyline fill="none" points="67.2542,90.2508 67.2542,90.2508" stroke="#00a4ff" stroke-width="2" /><polyline fill="none" points="67.2542,90.2508 59.0102,91.9864 55.539,94.5898 55.9729,103.2678 63.7831,98.9288 70.2915,98.061 66.3864,95.4576 59.878,95.4576 59.0102,98.4949 61.6136,94.5898 64.6508,93.2881 65.0847,94.5898" stroke="#3fffb7" stroke-width="2" /><polyline fill="none" points="76.8,82.8746 97.1932,82.8746" stroke="#b7ff3f" stroke-width="2" /><polyline fill="none" points="83.7424,87.2136 98.9288,87.6475 101.9661,88.9492" stroke="#ffb900" stroke-width="2" /><polyline fill="none" points="84.1763,95.8915 92.8542,97.1932 101.9661,101.5322" stroke="#ff3000" stroke-width="2" /><polyline fill="none" points="44.2576,90.2508 34.278,82.4407 32.5424,82.8746" stroke="#7f0000" stroke-width="2" /></svg>