<?xml version="1.0" encoding="utf-8" ?>
<svg baseProfile="tiny" height="128" version="1.2" viewBox="0,0,128,128" width="128" xmlns="http://www.w3.org/2000/svg" xmlns:ev="http://www.w3.org/2001/xml-events" xmlns:xlink="http://www.w3.org/1999/xlink"><defs /><polyline fill="none" points="59.878,26.9017 53.3695,14.7525 44.2576,8.678 43.8237,17.3559 48.5966,32.5424 43.3898,33.8441 36.4475,39.4847 34.278,44.2576 34.7119,54.6712 41.6542,64.6508 52.0678,72.0271 61.1797,74.6305 71.5932,74.6305 85.0441,71.5932 95.8915,65.5186 99.3627,62.0475 102.8339,57.2746 105.4373,48.5966 104.5695,40.3525 96.3254,36.4475 87.2136,35.5797 91.1186,21.6949 91.5525,9.9797 85.9119,19.9593 78.9695,26.9017 73.3288,29.0712 58.5763,27.3356" stroke="#00007f" stroke-width="2" /><polyline fill="none" points="76.3661,53.8034 69.8576,55.539 66.8203,58.5763 71.1593,60.3119 78.5356,59.878 79.8373,56.8407 78.5356,55.1051 76.3661,55.1051" stroke="#0000fe" stroke-width="2" /><polyline fill="none" points="75.9322,60.7458 75.9322,63.7831 73.3288,65.0847 59.4441,66.8203 69.4237,66.3864 86.7797,64.2169" stroke="#0060ff" stroke-width="2" /><polyline fill="none" points="47.2949,38.6169 47.2949,38.6169" stroke="#00d4ff" stroke-width="2" /><polyline fill="none" points="82.4407,40.3525 82.4407,40.3525" stroke="#4cffaa" stroke-width="2" /><polyline fill="none" points="54.2373,41.2203 53.3695,43.3898" stroke="#aaff4c" stroke-width="2" /><polyline fill="none" points="78.9695,40.3525 78.5356,41.6542" stroke="#ffe500" stroke-width="2" /><polyline fill="none" points="58.1424,77.2339 21.6949,76.8 15.6203,78.1017 11.7153,81.5729" stroke="#ff7a00" stroke-width="2" /><polyline fill="none" points="87.2136,70.2915 86.3458,78.1017 80.2712,88.0814 80.2712,96.3254 82.4407,112.8136 82.0068,114.5492 80.2712,115.8508 76.3661,112.8136 72.461,97.6271 72.0271,111.5119 69.8576,114.1153 63.3492,111.5119 59.878,101.9661 59.878,103.7017 57.2746,104.1356 36.8814,99.3627 15.1864,99.7966 22.9966,111.5119 24.7322,119.322 17.3559,118.4542 11.7153,115.8508 8.678,112.3797 8.678,113.2475" stroke="#fe1200" stroke-width="2" /><polyline fill="none" points="13.0169,82.4407 9.9797,59.4441 10.8475,43.8237 13.8847,39.0508 19.0915,35.5797 23.8644,34.278 24.2983,36.8814 22.9966,64.2169 19.0915,73.3288 11.7153,85.0441" stroke="#7f0000" stroke-width="2" /></svg>