<?xml version="1.0" encoding="utf-8" ?>
<svg baseProfile="tiny" height="128" version="1.2" viewBox="0,0,128,128" width="128" xmlns="http://www.w3.org/2000/svg" xmlns:ev="http://www.w3.org/2001/xml-events" xmlns:xlink="http://www.w3.org/1999/xlink"><defs /><polyline fill="none" points="20.0272,103.619 13.0612,101.4422 8.7075,93.1701 9.1429,82.7211 13.4966,74.0136 21.7687,64.4354 33.0884,55.7279 46.1497,49.6327 52.6803,48.3265 59.2109,47.4558 72.2721,48.7619 79.2381,50.9388 89.2517,56.5986 97.0884,63.5646 101.8776,71.4014 103.1837,76.1905 102.3129,85.7687 95.7823,96.6531 87.9456,102.7483 81.415,106.2313 70.0952,108.4082 58.3401,108.4082 41.7959,104.0544 30.0408,98.8299 23.5102,92.7347" stroke="#00007f" stroke-width="2" /><polyline fill="none" points="24.381,57.034 20.898,47.8912 18.2857,34.8299 17.8503,20.0272 19.5918,9.1429 21.7687,8.7075 24.8163,12.1905 41.3605,47.4558" stroke="#004cff" stroke-width="2" /><polyline fill="none" points="80.5442,42.2313 83.1565,42.6667 87.0748,40.4898 108.4082,18.7211 115.8095,13.932 118.4218,13.932 119.2925,21.7687 117.1156,29.1701 108.8435,47.4558 101.4422,57.9048" stroke="#29ffcd" stroke-width="2" /><polyline fill="none" points="44.4082,66.1769 44.4082,66.6122" stroke="#cdff29" stroke-width="2" /><polyline fill="none" points="74.449,67.0476 74.0136,67.0476" stroke="#ff6700" stroke-width="2" /><polyline fill="none" points="57.034,81.415 56.1633,84.0272 52.2449,88.8163 45.2789,90.5578" stroke="#7f0000" stroke-width="2" /></svg>