<?xml version="1.0" encoding="utf-8" ?>
<svg baseProfile="tiny" height="128" version="1.2" viewBox="0,0,128,128" width="128" xmlns="http://www.w3.org/2000/svg" xmlns:ev="http://www.w3.org/2001/xml-events" xmlns:xlink="http://www.w3.org/1999/xlink"><defs /><polyline fill="none" points="64.6508,22.5627 59.0102,23.4305 49.8983,29.0712 41.6542,41.6542 40.7864,49.8983 42.0881,55.539 46.861,62.0475 53.8034,67.2542 60.3119,68.9898 68.9898,68.9898 76.8,65.9525 86.3458,55.539 91.1186,41.6542 90.6847,34.278 87.2136,30.8068 69.8576,21.261 61.6136,21.261" stroke="#00007f" stroke-width="2" /><polyline fill="none" points="74.1966,24.2983 81.5729,13.0169 87.2136,9.1119 90.6847,8.678 91.9864,14.3186 90.2508,31.2407" stroke="#0000fe" stroke-width="2" /><polyline fill="none" points="56.8407,23.8644 50.7661,17.7898 38.1831,9.5458 37.3153,11.2814 37.7492,22.9966 43.3898,38.1831" stroke="#0060ff" stroke-width="2" /><polyline fill="none" points="69.4237,47.2949 94.5898,42.9559 109.3424,38.6169" stroke="#00d4ff" stroke-width="2" /><polyline fill="none" points="67.2542,51.6339 78.1017,51.6339 114.1153,45.5593" stroke="#4cffaa" stroke-width="2" /><polyline fill="none" points="75.0644,57.2746 119.322,53.8034" stroke="#aaff4c" stroke-width="2" /><polyline fill="none" points="48.5966,48.1627 39.9186,47.2949 27.7695,49.0305 8.678,55.9729" stroke="#ffe500" stroke-width="2" /><polyline fill="none" points="46.861,56.4068 44.2576,55.1051 35.5797,55.539 28.2034,58.1424 15.6203,65.9525" stroke="#ff7a00" stroke-width="2" /><polyline fill="none" points="52.0678,59.878 39.0508,68.122 24.2983,81.5729" stroke="#fe1200" stroke-width="2" /><polyline fill="none" points="55.9729,32.1085 57.2746,35.1458" stroke="#7f0000" stroke-width="2" /></svg>