<?xml version="1.0" encoding="utf-8" ?>
<svg baseProfile="tiny" height="128" version="1.2" viewBox="0,0,128,128" width="128" xmlns="http://www.w3.org/2000/svg" xmlns:ev="http://www.w3.org/2001/xml-events" xmlns:xlink="http://www.w3.org/1999/xlink"><defs /><polyline fill="none" points="27.7695,36.4475 22.9966,41.2203 10.8475,62.9153 8.678,73.3288 8.678,86.3458 9.9797,90.2508 19.0915,106.739 28.6373,114.5492 41.2203,119.322 57.2746,119.322 76.8,111.078 87.6475,103.2678 91.9864,96.7593 95.0237,82.8746 95.4576,65.5186 92.4203,50.3322 85.0441,39.0508 106.3051,9.1119 90.6847,8.678 79.4034,12.5831 68.5559,19.9593 59.0102,31.2407 56.8407,31.6746 49.0305,24.2983 32.5424,14.7525 18.6576,8.678 17.7898,16.922 23.8644,28.6373" stroke="#00007f" stroke-width="2" /><polyline fill="none" points="32.1085,34.7119 31.6746,26.0339 29.939,20.8271 41.6542,33.8441" stroke="#0000d5" stroke-width="2" /><polyline fill="none" points="68.5559,32.5424 83.7424,19.5254 77.6678,30.3729 75.9322,36.8814" stroke="#001cff" stroke-width="2" /><polyline fill="none" points="57.2746,79.8373 45.5593,79.4034 36.4475,84.6102 32.5424,89.3831 32.5424,94.5898 37.7492,98.9288 48.5966,100.6644 56.4068,100.2305 59.4441,96.3254 60.7458,81.5729 54.2373,78.5356" stroke="#006cff" stroke-width="2" /><polyline fill="none" points="42.9559,97.6271 46.861,94.5898 49.0305,94.5898 52.5017,97.1932" stroke="#00b8ff" stroke-width="2" /><polyline fill="none" points="30.3729,88.0814 14.7525,88.0814" stroke="#1cffda" stroke-width="2" /><polyline fill="none" points="32.5424,85.0441 30.3729,83.7424 16.4881,82.4407" stroke="#5cff9a" stroke-width="2" /><polyline fill="none" points="31.6746,92.8542 19.5254,97.6271" stroke="#9aff5c" stroke-width="2" /><polyline fill="none" points="64.6508,91.1186 76.3661,88.9492 92.8542,81.5729" stroke="#daff1c" stroke-width="2" /><polyline fill="none" points="57.2746,98.9288 88.5153,98.9288" stroke="#ffcb00" stroke-width="2" /><polyline fill="none" points="55.9729,100.6644 86.3458,100.6644" stroke="#ff8500" stroke-width="2" /><polyline fill="none" points="59.4441,91.5525 84.6102,91.1186" stroke="#ff3b00" stroke-width="2" /><polyline fill="none" points="38.1831,49.4644 26.9017,59.0102 25.6,66.3864 26.4678,68.122 31.6746,69.4237 46.861,69.8576 49.0305,68.5559 50.3322,65.5186 49.8983,57.7085 43.8237,50.7661 40.3525,49.0305" stroke="#d50000" stroke-width="2" /><polyline fill="none" points="52.9356,59.4441 53.8034,55.9729 60.3119,53.8034 75.9322,54.2373" stroke="#7f0000" stroke-width="2" /></svg>