<?xml version="1.0" encoding="utf-8" ?>
<svg baseProfile="tiny" height="128" version="1.2" viewBox="0,0,128,128" width="128" xmlns="http://www.w3.org/2000/svg" xmlns:ev="http://www.w3.org/2001/xml-events" xmlns:xlink="http://www.w3.org/1999/xlink"><defs /><polyline fill="none" points="48.5966,40.3525 30.3729,47.2949 15.6203,58.1424 9.1119,78.1017 8.678,101.9661 11.2814,107.6068 15.6203,112.3797 22.9966,116.2847 41.2203,119.322 57.2746,118.8881 73.3288,111.9458 78.9695,107.1729 82.8746,101.0983 86.3458,88.9492 85.0441,73.7627 77.2339,60.3119 71.5932,53.3695 65.5186,48.5966 56.8407,43.8237 42.522,40.3525" stroke="#00007f" stroke-width="2" /><polyline fill="none" points="14.3186,63.7831 19.5254,45.1254 21.6949,15.1864 26.0339,28.2034 35.1458,47.7288" stroke="#004cff" stroke-width="2" /><polyline fill="none" points="65.5186,45.9932 72.461,31.6746 79.4034,8.678 79.8373,59.0102 78.9695,63.3492" stroke="#29ffcd" stroke-width="2" /><polyline fill="none" points="28.6373,70.2915 31.2407,65.5186 33.4102,64.2169 36.4475,64.6508 39.0508,68.122" stroke="#cdff29" stroke-width="2" /><polyline fill="none" points="54.2373,64.2169 55.539,62.0475 61.6136,59.878 66.8203,60.3119 68.122,64.2169" stroke="#ff6700" stroke-width="2" /><polyline fill="none" points="40.3525,77.2339 52.5017,77.2339 52.5017,89.8169 50.7661,89.8169 41.2203,75.4983" stroke="#7f0000" stroke-width="2" /></svg>