<?xml version="1.0" encoding="utf-8" ?>
<svg baseProfile="tiny" height="128" version="1.2" viewBox="0,0,128,128" width="128" xmlns="http://www.w3.org/2000/svg" xmlns:ev="http://www.w3.org/2001/xml-events" xmlns:xlink="http://www.w3.org/1999/xlink"><defs /><polyline fill="none" points="20.3932,55.539 9.9797,20.3932 8.678,9.5458 22.9966,28.2034 35.5797,48.5966" stroke="#00007f" stroke-width="2" /><polyline fill="none" points="70.2915,44.6915 72.8949,39.0508 87.2136,18.2237 93.722,12.5831 100.2305,8.678 101.0983,15.1864 97.6271,31.2407 95.4576,52.9356" stroke="#0000ff" stroke-width="2" /><polyline fill="none" points="33.4102,48.5966 42.0881,45.9932 53.8034,45.9932 64.6508,48.1627" stroke="#0080ff" stroke-width="2" /><polyline fill="none" points="21.6949,57.7085 16.922,59.0102 12.5831,67.6881 12.1492,85.0441 16.0542,93.722 26.9017,107.6068 33.8441,112.8136 52.0678,118.8881 85.0441,119.322 97.6271,115.8508 108.9085,109.7763 113.6814,103.2678 117.5864,87.6475 118.0203,67.6881 113.2475,58.1424 108.4746,52.9356 103.2678,50.3322 91.1186,50.3322" stroke="#15ffe1" stroke-width="2" /><polyline fill="none" points="39.4847,58.5763 30.8068,63.3492 29.939,66.8203 35.1458,70.2915 39.9186,70.2915 45.1254,67.2542 45.9932,63.7831 36.0136,59.4441" stroke="#7cff79" stroke-width="2" /><polyline fill="none" points="81.139,55.1051 76.8,58.5763 77.6678,62.0475 80.7051,65.5186 86.7797,67.2542 88.5153,66.3864 90.2508,62.4814 88.9492,57.2746 83.7424,56.4068" stroke="#e4ff12" stroke-width="2" /><polyline fill="none" points="85.478,62.0475 82.4407,61.6136" stroke="#ff9400" stroke-width="2" /><polyline fill="none" points="38.1831,64.6508 37.7492,64.6508" stroke="#ff1d00" stroke-width="2" /><polyline fill="none" points="78.9695,95.0237 101.5322,95.0237 105.8712,93.2881 105.8712,91.1186" stroke="#7f0000" stroke-width="2" /></svg>