<?xml version="1.0" encoding="utf-8" ?>
<svg baseProfile="tiny" height="128" version="1.2" viewBox="0,0,128,128" width="128" xmlns="http://www.w3.org/2000/svg" xmlns:ev="http://www.w3.org/2001/xml-events" xmlns:xlink="http://www.w3.org/1999/xlink"><defs /><polyline fill="none" points="12.5831,28.6373 16.4881,8.678 22.1288,24.2983 29.939,37.3153 37.3153,33.8441 55.9729,32.1085 60.7458,32.9763 70.7254,39.0508 77.6678,15.1864 88.9492,46.861 89.3831,65.0847 85.0441,92.8542 75.9322,110.2102 72.461,112.8136 59.878,117.5864 46.861,118.0203 37.7492,116.2847 28.6373,111.5119 14.3186,98.4949 9.5458,82.4407 8.678,61.1797 13.4508,47.7288 13.0169,20.3932" stroke="#00007f" stroke-width="2" /><polyline fill="none" points="47.7288,75.0644 46.861,80.7051 49.4644,82.0068 50.3322,79.4034 49.0305,77.2339" stroke="#00d4ff" stroke-width="2" /><polyline fill="none" points="50.7661,76.3661 65.0847,72.461 91.1186,68.9898 119.322,67.6881" stroke="#ffe500" stroke-width="2" /><polyline fill="none" points="49.4644,79.8373 119.322,78.9695" stroke="#7f0000" stroke-width="2" /></svg>