<?xml version="1.0" encoding="utf-8" ?>
<svg baseProfile="tiny" height="128" version="1.2" viewBox="0,0,128,128" width="128" xmlns="http://www.w3.org/2000/svg" xmlns:ev="http://www.w3.org/2001/xml-events" xmlns:xlink="http://www.w3.org/1999/xlink"><defs /><polyline fill="none" points="23.4305,45.1254 26.0339,20.8271 27.7695,16.4881 36.8814,24.2983 43.3898,16.4881 49.0305,13.4508 57.2746,11.2814 63.7831,36.0136" stroke="#00007f" stroke-width="2" /><polyline fill="none" points="61.6136,26.9017 78.1017,13.0169 75.0644,45.1254 73.7627,45.9932" stroke="#0000c3" stroke-width="2" /><polyline fill="none" points="38.6169,30.3729 38.1831,34.7119 40.3525,35.1458 43.8237,32.1085 44.2576,29.939 42.522,29.939 42.9559,30.8068" stroke="#0000ff" stroke-width="2" /><polyline fill="none" points="60.7458,31.6746 58.5763,33.4102 59.0102,35.1458 61.6136,35.1458 62.9153,32.9763 62.9153,30.8068 61.1797,30.3729" stroke="#0034ff" stroke-width="2" /><polyline fill="none" points="49.0305,37.7492 48.5966,39.9186 50.7661,39.4847 51.2,37.3153 47.7288,38.6169 48.5966,41.6542 44.2576,52.5017 42.0881,54.6712 38.6169,52.0678 36.8814,47.2949 38.1831,44.2576 40.3525,43.3898" stroke="#0070ff" stroke-width="2" /><polyline fill="none" points="48.5966,41.2203 49.0305,51.2 51.2,54.6712 53.8034,55.1051 57.7085,52.5017 59.878,49.0305 60.7458,40.7864 59.0102,40.7864" stroke="#00acff" stroke-width="2" /><polyline fill="none" points="46.4271,36.4475 45.1254,38.1831 34.278,36.8814" stroke="#02e8f4" stroke-width="2" /><polyline fill="none" points="45.9932,39.4847 33.8441,43.3898" stroke="#32ffc3" stroke-width="2" /><polyline fill="none" points="47.2949,39.9186 39.4847,48.1627" stroke="#63ff93" stroke-width="2" /><polyline fill="none" points="55.539,36.0136 71.5932,36.4475" stroke="#93ff63" stroke-width="2" /><polyline fill="none" points="55.539,37.7492 68.5559,42.0881" stroke="#c3ff32" stroke-width="2" /><polyline fill="none" points="53.3695,37.7492 67.2542,47.2949" stroke="#f4f802" stroke-width="2" /><polyline fill="none" points="22.9966,45.1254 24.7322,55.9729 28.2034,63.3492 35.5797,69.8576 40.3525,71.1593 43.8237,70.7254 59.4441,64.2169 65.9525,55.1051 68.9898,45.5593" stroke="#ffc000" stroke-width="2" /><polyline fill="none" points="22.5627,56.4068 14.7525,55.539 11.7153,57.7085 8.678,67.6881 9.5458,72.461 13.4508,72.461 18.2237,67.6881 15.6203,72.8949 17.3559,76.3661 21.6949,75.9322 26.9017,70.2915 26.4678,76.3661 29.939,77.2339 34.278,72.8949 35.5797,67.6881" stroke="#ff8900" stroke-width="2" /><polyline fill="none" points="63.3492,62.4814 65.0847,67.2542 72.8949,70.2915 76.8,69.4237 76.3661,60.7458 82.4407,63.7831 82.4407,60.7458 78.9695,56.4068 66.8203,52.9356" stroke="#ff5100" stroke-width="2" /><polyline fill="none" points="71.5932,45.5593 76.8,40.7864 85.478,37.3153 96.3254,35.1458 105.8712,35.5797 108.4746,40.3525 108.0407,43.8237 100.2305,50.7661 89.8169,53.3695 80.2712,53.3695 77.2339,52.0678" stroke="#ff1a00" stroke-width="2" /><polyline fill="none" points="104.1356,35.1458 105.0034,22.5627 117.1525,14.7525 118.0203,8.678 119.322,13.0169 118.4542,17.7898 105.8712,31.6746 108.0407,38.1831" stroke="#c30000" stroke-width="2" /><polyline fill="none" points="105.4373,47.7288 103.2678,53.8034 104.5695,57.2746 108.0407,56.4068 109.7763,52.5017 110.2102,55.1051 111.5119,55.1051 113.6814,52.0678 117.1525,51.6339 117.1525,45.5593 111.078,39.9186" stroke="#7f0000" stroke-width="2" /></svg>