<?xml version="1.0" encoding="utf-8" ?>
<svg baseProfile="tiny" height="128" version="1.2" viewBox="0,0,128,128" width="128" xmlns="http://www.w3.org/2000/svg" xmlns:ev="http://www.w3.org/2001/xml-events" xmlns:xlink="http://www.w3.org/1999/xlink"><defs /><polyline fill="none" points="87.6475,45.9932 69.8576,45.1254 56.8407,46.4271 38.6169,52.5017 28.2034,59.878 19.0915,74.1966 13.4508,88.5153 13.4508,99.3627 17.3559,110.2102 23.8644,116.7186 32.1085,119.322 58.1424,116.7186 66.3864,114.5492 81.5729,103.2678 90.6847,93.2881 93.2881,85.9119 88.9492,59.4441 81.5729,43.3898 81.5729,39.9186 116.2847,8.678 114.5492,20.8271 109.7763,35.1458 97.6271,58.1424 94.5898,60.7458" stroke="#00007f" stroke-width="2" /><polyline fill="none" points="43.8237,50.7661 30.3729,30.8068 20.3932,22.1288 17.3559,26.0339 16.4881,61.1797" stroke="#0000ff" stroke-width="2" /><polyline fill="none" points="55.1051,87.2136 52.0678,86.7797 51.2,82.8746" stroke="#0080ff" stroke-width="2" /><polyline fill="none" points="66.3864,80.7051 87.2136,64.6508" stroke="#15ffe1" stroke-width="2" /><polyline fill="none" points="73.7627,83.3085 91.5525,83.7424 96.7593,82.4407 103.2678,83.3085" stroke="#7cff79" stroke-width="2" /><polyline fill="none" points="68.122,96.3254 82.8746,92.8542 102.8339,91.1186" stroke="#e4ff12" stroke-width="2" /><polyline fill="none" points="37.3153,76.3661 26.0339,69.8576" stroke="#ff9400" stroke-width="2" /><polyline fill="none" points="36.8814,82.0068 32.9763,82.0068 21.261,87.6475 17.3559,91.9864" stroke="#ff1d00" stroke-width="2" /><polyline fill="none" points="28.6373,96.3254 8.678,110.6441" stroke="#7f0000" stroke-width="2" /></svg>