<?xml version="1.0" encoding="utf-8" ?>
<svg baseProfile="tiny" height="128" version="1.2" viewBox="0,0,128,128" width="128" xmlns="http://www.w3.org/2000/svg" xmlns:ev="http://www.w3.org/2001/xml-events" xmlns:xlink="http://www.w3.org/1999/xlink"><defs /><polyline fill="none" points="25.1661,19.5254 46.861,24.2983 61.6136,31.6746 70.7254,39.4847 70.7254,48.5966 67.6881,52.0678 56.4068,56.8407 43.3898,58.5763 32.1085,53.3695 15.1864,41.6542 10.4136,32.9763 11.2814,29.939 36.8814,22.1288" stroke="#00007f" stroke-width="2" /><polyline fill="none" points="52.0678,33.4102 41.6542,37.3153 41.2203,36.0136 45.1254,29.939 54.2373,32.1085 51.6339,33.4102" stroke="#0000d1" stroke-width="2" /><polyline fill="none" points="26.4678,34.7119 27.3356,36.0136 20.3932,37.3153 24.7322,32.5424 29.0712,31.6746 29.0712,34.7119 26.9017,37.7492" stroke="#0010ff" stroke-width="2" /><polyline fill="none" points="40.7864,44.6915 39.9186,45.1254" stroke="#0058ff" stroke-width="2" /><polyline fill="none" points="40.7864,44.2576 62.9153,43.8237" stroke="#00a4ff" stroke-width="2" /><polyline fill="none" points="42.522,47.2949 51.6339,47.2949 60.3119,43.8237" stroke="#05ecf1" stroke-width="2" /><polyline fill="none" points="42.9559,49.4644 55.539,53.3695 68.5559,54.6712 65.5186,55.539" stroke="#3fffb7" stroke-width="2" /><polyline fill="none" points="29.0712,45.9932 12.1492,42.0881" stroke="#7cff79" stroke-width="2" /><polyline fill="none" points="27.3356,49.8983 28.6373,49.4644 27.3356,49.0305 14.7525,51.6339 8.678,50.3322" stroke="#b7ff3f" stroke-width="2" /><polyline fill="none" points="27.3356,53.8034 14.3186,57.7085" stroke="#f1fc05" stroke-width="2" /><polyline fill="none" points="29.939,45.9932 32.9763,52.0678 36.4475,54.2373 40.7864,54.2373 41.6542,52.9356 40.3525,47.7288 38.6169,45.5593 36.0136,45.1254 30.8068,47.2949 29.939,45.9932" stroke="#ffb900" stroke-width="2" /><polyline fill="none" points="51.2,27.3356 55.539,26.0339 65.9525,17.3559 66.8203,18.2237 66.3864,22.9966 63.3492,24.2983 62.4814,29.5051 60.7458,30.8068" stroke="#ff7300" stroke-width="2" /><polyline fill="none" points="26.4678,23.8644 24.7322,9.5458 19.9593,8.678 18.2237,10.8475 16.922,25.6" stroke="#ff3000" stroke-width="2" /><polyline fill="none" points="66.8203,36.0136 76.8,39.9186 87.6475,41.2203 110.6441,41.2203 115.4169,39.9186 119.322,36.8814" stroke="#d10000" stroke-width="2" /><polyline fill="none" points="59.878,56.8407 79.8373,57.7085 101.5322,61.6136 108.9085,61.6136 116.7186,59.4441" stroke="#7f0000" stroke-width="2" /></svg>