<?xml version="1.0" encoding="utf-8" ?>
<svg baseProfile="tiny" height="128" version="1.2" viewBox="0,0,128,128" width="128" xmlns="http://www.w3.org/2000/svg" xmlns:ev="http://www.w3.org/2001/xml-events" xmlns:xlink="http://www.w3.org/1999/xlink"><defs /><polyline fill="none" points="34.7119,38.1831 27.3356,25.6 17.7898,14.3186 10.4136,10.4136 8.678,16.0542 16.0542,36.0136 33.4102,59.0102 36.4475,68.122 36.4475,85.9119 41.6542,88.0814 43.8237,74.1966 48.5966,68.122 52.5017,66.3864 67.2542,65.0847 74.1966,66.8203 75.4983,85.0441 87.2136,85.9119 82.4407,67.2542 91.1186,64.2169 99.3627,57.2746 109.7763,36.8814" stroke="#00007f" stroke-width="2" /><polyline fill="none" points="108.4746,26.9017 105.8712,21.6949 99.3627,18.6576 93.2881,18.6576 88.5153,20.3932 87.2136,23.4305 88.9492,27.3356 93.722,34.278 99.3627,39.0508 110.6441,42.522 114.9831,42.0881 117.1525,39.4847 116.7186,34.278 113.2475,29.0712 104.1356,23.4305" stroke="#0000f1" stroke-width="2" /><polyline fill="none" points="88.9492,36.0136 79.8373,36.0136 56.8407,40.3525 42.522,40.7864 36.0136,39.4847" stroke="#004cff" stroke-width="2" /><polyline fill="none" points="88.9492,20.3932 92.4203,15.1864 92.4203,8.678 98.061,19.5254" stroke="#00b0ff" stroke-width="2" /><polyline fill="none" points="110.6441,25.6 115.8508,13.8847 116.2847,21.261 119.322,32.5424" stroke="#29ffcd" stroke-width="2" /><polyline fill="none" points="103.7017,29.0712 101.9661,37.3153 101.0983,38.1831 99.3627,36.4475" stroke="#7cff79" stroke-width="2" /><polyline fill="none" points="102.8339,34.7119 105.0034,40.3525 108.0407,37.7492" stroke="#cdff29" stroke-width="2" /><polyline fill="none" points="98.061,24.7322 97.6271,27.7695 98.4949,26.9017 95.4576,24.2983" stroke="#ffc400" stroke-width="2" /><polyline fill="none" points="108.0407,27.7695 108.0407,28.2034" stroke="#ff6700" stroke-width="2" /><polyline fill="none" points="87.6475,37.3153 95.0237,36.8814" stroke="#f10700" stroke-width="2" /><polyline fill="none" points="84.1763,65.5186 89.3831,73.7627 93.722,83.7424 89.3831,83.7424" stroke="#7f0000" stroke-width="2" /></svg>