<?xml version="1.0" encoding="utf-8" ?>
<svg baseProfile="tiny" height="128" version="1.2" viewBox="0,0,128,128" width="128" xmlns="http://www.w3.org/2000/svg" xmlns:ev="http://www.w3.org/2001/xml-events" xmlns:xlink="http://www.w3.org/1999/xlink"><defs /><polyline fill="none" points="16.922,23.8644 13.4508,30.3729 12.1492,41.6542 15.1864,48.1627 22.1288,54.2373 30.8068,55.539 40.7864,51.6339 45.1254,48.1627 50.7661,39.4847 51.6339,32.1085 50.3322,28.6373 47.2949,26.0339 38.1831,22.1288 13.4508,22.5627" stroke="#00007f" stroke-width="2" /><polyline fill="none" points="43.3898,21.6949 46.861,13.0169 51.2,9.5458 52.5017,26.0339 51.2,27.7695" stroke="#0010ff" stroke-width="2" /><polyline fill="none" points="10.4136,26.4678 8.678,24.7322 8.678,16.4881 11.2814,8.678 13.4508,9.5458 21.6949,20.3932" stroke="#00a4ff" stroke-width="2" /><polyline fill="none" points="22.9966,41.6542 27.3356,45.5593 36.0136,46.861 39.4847,45.1254 40.7864,41.2203" stroke="#3fffb7" stroke-width="2" /><polyline fill="none" points="28.2034,34.7119 29.0712,39.0508" stroke="#b7ff3f" stroke-width="2" /><polyline fill="none" points="35.5797,32.5424 36.4475,39.4847" stroke="#ffb900" stroke-width="2" /><polyline fill="none" points="48.1627,29.0712 52.9356,30.8068 63.7831,32.1085 119.322,29.939" stroke="#ff3000" stroke-width="2" /><polyline fill="none" points="40.7864,49.4644 95.0237,50.3322" stroke="#7f0000" stroke-width="2" /></svg>