<?xml version="1.0" encoding="utf-8" ?>
<svg baseProfile="tiny" height="128" version="1.2" viewBox="0,0,128,128" width="128" xmlns="http://www.w3.org/2000/svg" xmlns:ev="http://www.w3.org/2001/xml-events" xmlns:xlink="http://www.w3.org/1999/xlink"><defs /><polyline fill="none" points="54.6712,30.3729 53.3695,27.7695 49.8983,26.4678 40.7864,28.6373 29.0712,37.3153 25.1661,42.522 22.9966,51.2 23.8644,56.8407 29.939,63.3492 39.4847,64.6508 44.6915,63.7831 54.6712,56.8407 60.7458,48.5966 62.4814,38.6169 61.1797,33.8441 57.7085,29.939 52.0678,27.3356 42.522,27.3356 38.1831,31.2407" stroke="#00007f" stroke-width="2" /><polyline fill="none" points="36.0136,70.7254 35.1458,67.6881 24.2983,68.5559 18.6576,71.5932 11.2814,79.4034 8.678,89.8169 8.678,96.3254 9.9797,102.4 16.4881,112.3797 29.0712,118.4542 36.4475,119.322 49.0305,118.4542 61.1797,112.8136 65.5186,108.4746 71.1593,97.6271 72.8949,87.2136 71.1593,82.4407 67.2542,77.2339 62.4814,73.7627 52.5017,69.4237 32.5424,67.2542" stroke="#0000fe" stroke-width="2" /><polyline fill="none" points="27.3356,35.1458 25.6,21.261 26.9017,15.6203 29.5051,16.4881 37.7492,29.0712 41.6542,31.2407" stroke="#0060ff" stroke-width="2" /><polyline fill="none" points="53.8034,28.6373 61.1797,16.0542 66.8203,9.9797 69.8576,8.678 70.2915,11.7153 59.878,36.8814" stroke="#00d4ff" stroke-width="2" /><polyline fill="none" points="39.4847,51.2 39.4847,51.2" stroke="#4cffaa" stroke-width="2" /><polyline fill="none" points="45.1254,47.7288 64.2169,47.2949" stroke="#aaff4c" stroke-width="2" /><polyline fill="none" points="39.9186,53.8034 50.7661,55.9729" stroke="#ffe500" stroke-width="2" /><polyline fill="none" points="36.8814,50.7661 22.9966,53.3695" stroke="#ff7a00" stroke-width="2" /><polyline fill="none" points="38.6169,57.7085 29.939,59.4441 26.4678,62.0475" stroke="#fe1200" stroke-width="2" /><polyline fill="none" points="63.7831,108.0407 69.4237,108.0407 78.9695,103.7017 86.7797,95.8915 90.6847,87.6475 90.6847,80.2712 78.9695,66.3864 74.6305,59.0102 73.3288,45.5593 75.0644,36.0136 82.8746,19.9593 87.2136,14.7525 91.9864,12.1492 95.8915,12.1492 96.7593,21.6949 88.0814,45.5593 87.2136,55.539 87.6475,58.1424 95.4576,72.8949 96.7593,79.4034 96.3254,91.9864 91.1186,99.3627 85.478,103.7017 79.4034,106.3051 68.122,106.739" stroke="#7f0000" stroke-width="2" /></svg>