<?xml version="1.0" encoding="utf-8" ?>
<svg baseProfile="tiny" height="128" version="1.2" viewBox="0,0,128,128" width="128" xmlns="http://www.w3.org/2000/svg" xmlns:ev="http://www.w3.org/2001/xml-events" xmlns:xlink="http://www.w3.org/1999/xlink"><defs /><polyline fill="none" points="99.7966,30.8068 82.4407,24.2983 59.0102,22.9966 49.0305,26.4678 40.3525,33.4102 32.1085,43.3898 25.6,54.6712 22.5627,67.6881 22.5627,79.4034 24.2983,89.3831 29.5051,96.3254 36.8814,100.6644 46.861,101.5322 57.7085,100.6644 69.8576,95.0237 81.139,87.2136 90.6847,78.1017 98.9288,68.5559 104.1356,59.878 106.3051,50.3322 105.4373,42.0881 100.6644,35.1458 92.4203,29.0712 83.7424,25.1661 74.1966,22.9966" stroke="#00007f" stroke-width="2" /><polyline fill="none" points="23.4305,45.9932 22.1288,15.6203 23.4305,12.5831 25.1661,12.1492 32.5424,19.5254 42.522,24.2983" stroke="#0010ff" stroke-width="2" /><polyline fill="none" points="90.6847,19.0915 88.9492,18.2237 91.5525,15.6203 101.0983,10.4136 108.9085,8.678 118.8881,9.5458 119.322,15.6203 118.0203,21.261 111.078,34.278 106.3051,38.1831" stroke="#00a4ff" stroke-width="2" /><polyline fill="none" points="58.5763,62.9153 66.8203,62.0475 68.122,65.0847 62.0475,69.8576 59.4441,70.2915 58.5763,66.3864 61.6136,62.4814 63.3492,62.4814 63.7831,65.9525 62.0475,67.2542 60.7458,65.5186 60.7458,62.0475 62.0475,60.3119 63.7831,60.3119 64.2169,64.2169 62.0475,67.6881" stroke="#3fffb7" stroke-width="2" /><polyline fill="none" points="47.7288,63.7831 35.5797,64.2169 29.0712,66.3864 20.8271,69.8576 8.678,78.1017" stroke="#b7ff3f" stroke-width="2" /><polyline fill="none" points="47.7288,69.8576 39.9186,71.1593 34.278,73.7627 16.0542,84.1763" stroke="#ffb900" stroke-width="2" /><polyline fill="none" points="82.8746,65.0847 108.9085,61.1797" stroke="#ff3000" stroke-width="2" /><polyline fill="none" points="77.2339,73.7627 98.061,75.4983" stroke="#7f0000" stroke-width="2" /></svg>