<?xml version="1.0" encoding="utf-8" ?>
<svg baseProfile="tiny" height="128" version="1.2" viewBox="0,0,128,128" width="128" xmlns="http://www.w3.org/2000/svg" xmlns:ev="http://www.w3.org/2001/xml-events" xmlns:xlink="http://www.w3.org/1999/xlink"><defs /><polyline fill="none" points="41.6542,11.7153 39.0508,22.1288 41.6542,8.678 51.2,20.3932 58.5763,10.8475 70.2915,24.2983" stroke="#00007f" stroke-width="2" /><polyline fill="none" points="38.6169,22.9966 35.1458,26.9017 32.5424,33.4102 33.4102,38.6169 37.3153,42.9559 49.0305,47.2949 62.0475,46.4271 66.8203,44.6915 72.8949,40.3525 73.3288,36.0136 68.9898,26.4678" stroke="#0000fe" stroke-width="2" /><polyline fill="none" points="72.461,34.7119 89.8169,28.6373 98.4949,26.9017 98.9288,28.6373" stroke="#0060ff" stroke-width="2" /><polyline fill="none" points="77.2339,39.0508 98.061,42.522" stroke="#00d4ff" stroke-width="2" /><polyline fill="none" points="34.278,28.2034 8.678,32.1085" stroke="#4cffaa" stroke-width="2" /><polyline fill="none" points="31.2407,37.7492 12.1492,46.4271" stroke="#aaff4c" stroke-width="2" /><polyline fill="none" points="46.4271,47.7288 45.5593,62.0475 47.2949,71.1593 49.4644,75.4983 52.9356,78.5356 58.1424,81.139 62.9153,81.5729 68.9898,78.1017 72.461,70.7254 66.8203,55.1051 59.4441,46.861" stroke="#ffe500" stroke-width="2" /><polyline fill="none" points="72.461,66.8203 75.9322,67.2542 81.5729,65.0847 91.9864,55.9729 95.8915,54.6712 101.0983,55.1051 119.322,61.1797" stroke="#ff7a00" stroke-width="2" /><polyline fill="none" points="52.0678,59.878 52.5017,68.9898 55.539,70.2915 58.1424,63.7831 56.4068,57.7085" stroke="#fe1200" stroke-width="2" /><polyline fill="none" points="61.1797,62.0475 63.3492,68.5559 66.8203,67.6881 67.6881,61.6136 65.0847,57.2746" stroke="#7f0000" stroke-width="2" /></svg>