<?xml version="1.0" encoding="utf-8" ?>
<svg baseProfile="tiny" height="128" version="1.2" viewBox="0,0,128,128" width="128" xmlns="http://www.w3.org/2000/svg" xmlns:ev="http://www.w3.org/2001/xml-events" xmlns:xlink="http://www.w3.org/1999/xlink"><defs /><polyline fill="none" points="17.3559,56.4068 17.7898,40.3525 16.0542,22.1288 17.7898,17.7898 19.9593,19.5254 33.4102,42.0881 46.861,34.278 57.2746,34.278 61.6136,37.3153 65.5186,23.8644 76.8,9.5458 78.9695,8.678 80.7051,20.3932 81.139,38.6169 87.6475,57.7085 93.2881,87.2136 92.8542,97.6271 87.6475,105.0034 84.1763,107.6068 75.9322,110.6441 59.0102,110.6441 33.4102,98.4949 26.4678,91.5525 22.1288,82.0068 18.2237,66.3864 18.6576,59.0102" stroke="#00007f" stroke-width="2" /><polyline fill="none" points="42.0881,62.9153 39.9186,64.2169 43.3898,64.2169 44.6915,59.4441 42.522,59.0102 41.2203,60.7458" stroke="#0000ff" stroke-width="2" /><polyline fill="none" points="62.0475,53.8034 64.2169,53.3695 65.9525,54.6712 64.2169,52.9356 62.0475,53.8034" stroke="#0080ff" stroke-width="2" /><polyline fill="none" points="56.4068,73.7627 58.5763,75.0644 56.8407,76.3661 56.4068,78.9695 58.5763,78.9695 59.4441,76.8 55.9729,76.3661 56.8407,77.6678" stroke="#15ffe1" stroke-width="2" /><polyline fill="none" points="62.0475,71.5932 91.1186,54.6712 113.6814,44.2576" stroke="#7cff79" stroke-width="2" /><polyline fill="none" points="65.5186,74.1966 95.0237,74.1966" stroke="#e4ff12" stroke-width="2" /><polyline fill="none" points="59.0102,78.9695 42.0881,82.0068 22.1288,90.6847 8.678,101.5322" stroke="#ff9400" stroke-width="2" /><polyline fill="none" points="52.9356,90.6847 43.3898,91.5525 31.2407,98.061 17.3559,111.9458 12.5831,119.322" stroke="#ff1d00" stroke-width="2" /><polyline fill="none" points="62.9153,98.061 66.3864,101.0983 72.461,102.4 74.6305,100.2305 74.6305,96.3254" stroke="#7f0000" stroke-width="2" /></svg>