<?xml version="1.0" encoding="utf-8" ?>
<svg baseProfile="tiny" height="128" version="1.2" viewBox="0,0,128,128" width="128" xmlns="http://www.w3.org/2000/svg" xmlns:ev="http://www.w3.org/2001/xml-events" xmlns:xlink="http://www.w3.org/1999/xlink"><defs /><polyline fill="none" points="28.6373,29.939 29.5051,23.4305 33.8441,8.678 38.1831,18.2237 44.6915,28.2034 61.6136,29.5051 66.8203,28.2034 68.9898,17.7898 71.1593,13.4508 74.6305,9.9797 90.2508,39.9186 90.6847,53.8034 87.2136,66.3864 81.139,72.0271 75.4983,75.0644 67.2542,75.9322 53.8034,75.0644 37.3153,68.9898 35.5797,67.6881 30.8068,57.7085 27.7695,35.5797 27.7695,29.939 30.3729,27.3356" stroke="#00007f" stroke-width="2" /><polyline fill="none" points="87.2136,48.1627 89.3831,45.5593 95.4576,42.9559 115.8508,38.1831" stroke="#0000fe" stroke-width="2" /><polyline fill="none" points="85.0441,52.0678 119.322,51.2" stroke="#0060ff" stroke-width="2" /><polyline fill="none" points="36.8814,45.9932 30.8068,45.9932 8.678,41.6542" stroke="#00d4ff" stroke-width="2" /><polyline fill="none" points="30.8068,51.2 20.3932,51.2" stroke="#4cffaa" stroke-width="2" /><polyline fill="none" points="60.7458,47.7288 65.9525,48.5966" stroke="#aaff4c" stroke-width="2" /><polyline fill="none" points="61.6136,48.1627 62.4814,52.9356 66.3864,59.878 70.2915,57.2746 70.2915,55.539 68.5559,54.6712" stroke="#ffe500" stroke-width="2" /><polyline fill="none" points="59.4441,47.7288 59.4441,55.1051 57.7085,57.2746 55.539,56.8407 51.2,53.3695" stroke="#ff7a00" stroke-width="2" /><polyline fill="none" points="49.8983,38.1831 56.4068,39.4847" stroke="#fe1200" stroke-width="2" /><polyline fill="none" points="58.5763,38.6169 58.5763,38.6169" stroke="#7f0000" stroke-width="2" /></svg>