<?xml version="1.0" encoding="utf-8" ?>
<svg baseProfile="tiny" height="128" version="1.2" viewBox="0,0,128,128" width="128" xmlns="http://www.w3.org/2000/svg" xmlns:ev="http://www.w3.org/2001/xml-events" xmlns:xlink="http://www.w3.org/1999/xlink"><defs /><polyline fill="none" points="28.2034,56.4068 26.9017,50.3322 28.6373,42.9559 40.3525,9.5458 42.522,9.1119 50.3322,54.6712 52.5017,56.8407 55.539,56.8407 71.5932,53.8034 75.0644,38.6169 87.6475,10.4136 89.3831,8.678 92.8542,39.0508 96.7593,59.4441 97.6271,73.7627" stroke="#00007f" stroke-width="2" /><polyline fill="none" points="30.8068,56.8407 30.3729,62.9153 24.2983,80.7051 23.8644,95.0237 27.3356,100.6644 32.1085,105.4373 34.278,105.4373" stroke="#0000cc" stroke-width="2" /><polyline fill="none" points="32.5424,76.8 36.0136,74.6305 47.2949,74.1966 49.8983,75.9322 49.8983,80.7051 43.3898,81.5729 40.7864,81.5729 35.5797,76.8" stroke="#0008ff" stroke-width="2" /><polyline fill="none" points="49.0305,74.6305 49.0305,74.6305" stroke="#004cff" stroke-width="2" /><polyline fill="none" points="67.6881,74.1966 67.2542,76.3661 69.4237,78.1017 76.8,78.1017 81.5729,76.3661 84.1763,71.5932 80.2712,69.4237 73.7627,69.8576 68.9898,72.8949" stroke="#0090ff" stroke-width="2" /><polyline fill="none" points="61.1797,82.8746 58.5763,86.7797 57.2746,95.0237 55.1051,97.1932 49.4644,98.061 47.2949,95.8915" stroke="#00d4ff" stroke-width="2" /><polyline fill="none" points="61.1797,86.3458 61.6136,93.722 65.5186,95.0237 72.461,94.1559 77.2339,88.9492" stroke="#29ffcd" stroke-width="2" /><polyline fill="none" points="98.061,74.1966 98.9288,82.8746 94.1559,91.5525 82.4407,102.4 71.5932,108.0407 63.3492,109.7763 49.0305,109.7763 38.1831,106.739 34.7119,103.7017" stroke="#5fff96" stroke-width="2" /><polyline fill="none" points="36.4475,29.0712 36.0136,57.2746 35.1458,59.4441 29.939,61.1797" stroke="#96ff5f" stroke-width="2" /><polyline fill="none" points="86.3458,24.2983 86.7797,35.1458 84.1763,50.7661 86.7797,52.0678 96.3254,52.0678" stroke="#cdff29" stroke-width="2" /><polyline fill="none" points="73.3288,70.2915 75.0644,75.9322" stroke="#ffe500" stroke-width="2" /><polyline fill="none" points="46.4271,75.4983 44.6915,77.6678 44.6915,82.8746" stroke="#ffa600" stroke-width="2" /><polyline fill="none" points="88.9492,84.1763 98.061,78.9695 117.1525,74.6305" stroke="#ff6700" stroke-width="2" /><polyline fill="none" points="91.5525,93.722 111.078,101.5322" stroke="#ff2800" stroke-width="2" /><polyline fill="none" points="8.678,91.5525 12.1492,90.2508 23.8644,90.2508 30.8068,91.5525" stroke="#cc0000" stroke-width="2" /><polyline fill="none" points="12.1492,119.322 14.7525,115.4169 19.5254,111.9458 37.3153,103.2678" stroke="#7f0000" stroke-width="2" /></svg>