<?xml version="1.0" encoding="utf-8" ?>
<svg baseProfile="tiny" height="128" version="1.2" viewBox="0,0,128,128" width="128" xmlns="http://www.w3.org/2000/svg" xmlns:ev="http://www.w3.org/2001/xml-events" xmlns:xlink="http://www.w3.org/1999/xlink"><defs /><polyline fill="none" points="36.4475,31.6746 33.4102,31.2407 29.939,33.4102 25.1661,43.3898 25.6,54.6712 32.1085,63.3492 40.3525,68.5559 49.8983,71.1593 69.4237,71.1593 80.2712,68.122 89.8169,63.3492 96.7593,56.8407 99.7966,49.0305 100.6644,41.2203 100.2305,36.4475 97.6271,32.9763 88.9492,28.2034 83.3085,8.678 72.461,24.7322 67.6881,22.5627 55.9729,22.1288 47.2949,26.4678 44.2576,18.6576 39.9186,15.1864 34.7119,13.8847 31.6746,32.9763" stroke="#00007f" stroke-width="2" /><polyline fill="none" points="52.0678,23.4305 50.7661,24.2983 50.7661,39.0508 52.5017,42.0881 56.8407,23.4305" stroke="#0000d5" stroke-width="2" /><polyline fill="none" points="61.1797,21.6949 60.3119,22.9966 59.878,35.5797 60.7458,36.0136 64.2169,22.5627" stroke="#001cff" stroke-width="2" /><polyline fill="none" points="68.5559,22.1288 67.6881,35.1458 69.4237,35.1458 71.5932,30.8068 72.0271,23.4305" stroke="#006cff" stroke-width="2" /><polyline fill="none" points="36.4475,39.4847 38.6169,42.9559 36.4475,39.4847" stroke="#00b8ff" stroke-width="2" /><polyline fill="none" points="87.6475,34.7119 89.3831,33.8441 89.8169,34.7119 87.6475,37.3153 77.6678,37.7492 82.0068,36.0136 88.0814,37.3153" stroke="#1cffda" stroke-width="2" /><polyline fill="none" points="58.1424,46.861 64.6508,47.2949 58.1424,55.1051 59.4441,55.9729" stroke="#5cff9a" stroke-width="2" /><polyline fill="none" points="68.5559,46.4271 119.322,34.278" stroke="#9aff5c" stroke-width="2" /><polyline fill="none" points="71.5932,52.9356 72.461,51.6339 84.1763,52.5017 117.5864,59.0102" stroke="#daff1c" stroke-width="2" /><polyline fill="none" points="21.261,50.3322 36.8814,52.9356 48.1627,52.9356" stroke="#ffcb00" stroke-width="2" /><polyline fill="none" points="50.3322,53.3695 47.7288,54.2373 18.2237,74.1966 11.7153,79.8373 8.678,85.0441" stroke="#ff8500" stroke-width="2" /><polyline fill="none" points="48.5966,59.878 25.1661,85.9119 21.6949,94.5898" stroke="#ff3b00" stroke-width="2" /><polyline fill="none" points="59.878,59.878 59.878,61.1797 62.9153,61.1797 70.7254,58.5763" stroke="#d50000" stroke-width="2" /><polyline fill="none" points="59.878,47.2949 59.0102,51.2 60.7458,53.8034" stroke="#7f0000" stroke-width="2" /></svg>