<?xml version="1.0" encoding="utf-8" ?>
<svg baseProfile="tiny" height="128" version="1.2" viewBox="0,0,128,128" width="128" xmlns="http://www.w3.org/2000/svg" xmlns:ev="http://www.w3.org/2001/xml-events" xmlns:xlink="http://www.w3.org/1999/xlink"><defs /><polyline fill="none" points="42.2313,23.9456 37.0068,23.5102 27.8639,30.4762 20.898,40.9252 16.9796,53.9864 18.7211,64.8707 24.381,73.5782 32.6531,76.1905 40.0544,71.8367 51.3741,55.2925 53.9864,42.6667 52.6803,38.7483 49.1973,34.8299 38.7483,27.8639" stroke="#00007f" stroke-width="2" /><polyline fill="none" points="41.7959,32.2177 46.585,23.9456 51.3741,19.1565 65.7415,12.1905 60.9524,25.2517 47.8912,45.7143" stroke="#0000cc" stroke-width="2" /><polyline fill="none" points="25.2517,30.4762 21.7687,18.7211 15.6735,10.449 12.1905,8.7075 8.7075,11.3197 8.7075,17.8503 14.3673,29.6054 18.2857,45.2789" stroke="#0008ff" stroke-width="2" /><polyline fill="none" points="17.415,33.0884 16.1088,26.1224 19.5918,21.7687 21.3333,24.8163 22.2041,35.2653" stroke="#004cff" stroke-width="2" /><polyline fill="none" points="40.9252,34.8299 55.7279,24.8163 53.551,30.4762 49.1973,35.7007" stroke="#0090ff" stroke-width="2" /><polyline fill="none" points="30.9116,41.7959 26.9932,46.1497 28.2993,48.3265 31.7823,46.585 33.9592,43.102 31.3469,43.9728 29.1701,47.4558" stroke="#00d4ff" stroke-width="2" /><polyline fill="none" points="42.2313,47.0204 41.7959,49.6327 42.6667,50.9388 45.2789,49.1973 45.2789,46.585 43.5374,44.8435 41.3605,45.7143 41.7959,47.8912 45.7143,47.0204" stroke="#29ffcd" stroke-width="2" /><polyline fill="none" points="26.1224,55.7279 40.4898,58.3401" stroke="#5fff96" stroke-width="2" /><polyline fill="none" points="24.8163,58.3401 31.7823,67.0476 39.1837,57.034" stroke="#96ff5f" stroke-width="2" /><polyline fill="none" points="33.9592,61.3878 34.3946,62.6939" stroke="#cdff29" stroke-width="2" /><polyline fill="none" points="33.5238,67.483 28.7347,77.0612 27.4286,77.0612 25.6871,75.3197" stroke="#ffe500" stroke-width="2" /><polyline fill="none" points="31.7823,66.6122 37.0068,74.0136 38.7483,74.0136 40.4898,70.966" stroke="#ffa600" stroke-width="2" /><polyline fill="none" points="50.9388,57.034 50.5034,56.1633 51.8095,54.8571 56.5986,54.4218 82.2857,54.8571 89.6871,59.2109 90.9932,62.2585 89.6871,65.7415 82.2857,73.5782 73.5782,77.0612 59.2109,76.6259 41.3605,72.2721" stroke="#ff6700" stroke-width="2" /><polyline fill="none" points="93.1701,56.1633 109.7143,64.0 116.6803,69.6599 119.2925,78.8027 117.1156,87.9456 111.4558,93.1701 99.7007,99.2653 84.898,102.3129 67.9184,103.1837" stroke="#ff2800" stroke-width="2" /><polyline fill="none" points="92.7347,61.3878 99.7007,64.0 104.0544,69.6599 104.9252,74.449 104.0544,80.5442 99.7007,86.2041 92.7347,92.2993 70.0952,98.3946 67.9184,100.5714 69.6599,102.7483" stroke="#cc0000" stroke-width="2" /><polyline fill="none" points="101.0068,55.2925 97.0884,55.7279" stroke="#7f0000" stroke-width="2" /></svg>