<?xml version="1.0" encoding="utf-8" ?>
<svg baseProfile="tiny" height="128" version="1.2" viewBox="0,0,128,128" width="128" xmlns="http://www.w3.org/2000/svg" xmlns:ev="http://www.w3.org/2001/xml-events" xmlns:xlink="http://www.w3.org/1999/xlink"><defs /><polyline fill="none" points="9.9797,39.0508 12.1492,21.6949 15.1864,17.7898 19.5254,19.9593 26.0339,30.3729 27.7695,31.2407" stroke="#00007f" stroke-width="2" /><polyline fill="none" points="36.4475,30.8068 35.1458,29.5051 36.0136,24.7322 39.0508,17.7898 43.8237,13.0169 51.2,8.678 56.4068,9.1119 64.2169,19.9593 71.1593,25.1661" stroke="#0000b6" stroke-width="2" /><polyline fill="none" points="28.2034,35.1458 30.8068,31.2407 35.1458,28.6373 40.3525,29.0712 41.6542,32.1085" stroke="#0000ec" stroke-width="2" /><polyline fill="none" points="9.9797,39.9186 8.678,41.2203 9.1119,50.7661 16.0542,59.878 19.0915,74.1966 22.1288,75.4983 29.0712,75.9322 34.7119,82.8746 41.6542,83.7424 53.8034,77.6678 67.2542,65.5186 74.6305,55.9729 78.5356,47.7288 79.4034,37.7492 78.1017,35.5797 70.7254,29.5051 64.2169,27.7695" stroke="#0010ff" stroke-width="2" /><polyline fill="none" points="36.4475,65.9525 42.0881,62.0475 47.2949,61.6136 47.2949,63.7831 44.6915,65.9525 41.2203,65.9525 38.6169,64.6508 38.1831,62.9153" stroke="#0040ff" stroke-width="2" /><polyline fill="none" points="47.7288,57.7085 66.3864,45.9932" stroke="#0070ff" stroke-width="2" /><polyline fill="none" points="54.2373,59.4441 66.8203,55.539" stroke="#00a4ff" stroke-width="2" /><polyline fill="none" points="63.3492,60.3119 62.0475,61.6136 63.3492,61.6136 69.8576,60.7458" stroke="#00d4ff" stroke-width="2" /><polyline fill="none" points="29.0712,64.2169 19.9593,61.1797" stroke="#18ffdd" stroke-width="2" /><polyline fill="none" points="33.8441,67.2542 25.1661,71.1593" stroke="#3fffb7" stroke-width="2" /><polyline fill="none" points="30.8068,75.0644 25.6,76.8" stroke="#66ff90" stroke-width="2" /><polyline fill="none" points="22.9966,45.5593 24.7322,42.9559 30.8068,42.522 32.9763,44.2576 31.2407,46.861" stroke="#90ff66" stroke-width="2" /><polyline fill="none" points="21.261,45.9932 22.1288,49.4644 24.2983,52.0678 27.3356,49.8983" stroke="#b7ff3f" stroke-width="2" /><polyline fill="none" points="28.2034,49.0305 31.2407,46.861 35.1458,47.2949" stroke="#ddff18" stroke-width="2" /><polyline fill="none" points="48.1627,40.3525 55.1051,35.1458 59.878,34.278 59.878,36.4475" stroke="#ffe500" stroke-width="2" /><polyline fill="none" points="50.7661,42.522 54.2373,40.7864 55.9729,42.0881 53.3695,43.3898 53.8034,41.2203 55.9729,42.0881 55.9729,43.3898 55.9729,42.0881" stroke="#ffb900" stroke-width="2" /><polyline fill="none" points="55.9729,26.4678 53.8034,25.6 53.8034,17.7898 57.7085,22.5627" stroke="#ff8900" stroke-width="2" /><polyline fill="none" points="14.7525,35.1458 12.5831,33.8441 13.0169,28.6373 16.4881,20.8271 19.9593,21.261 24.7322,28.2034" stroke="#ff5c00" stroke-width="2" /><polyline fill="none" points="61.6136,72.461 106.739,71.5932 114.5492,72.8949 118.0203,75.0644 119.322,78.9695 118.8881,83.3085 114.9831,88.5153 106.739,93.2881 92.4203,94.1559 50.3322,84.1763" stroke="#ff3000" stroke-width="2" /><polyline fill="none" points="45.9932,83.3085 34.7119,81.139 26.0339,45.1254" stroke="#ec0300" stroke-width="2" /><polyline fill="none" points="66.3864,86.7797 52.9356,92.4203 53.3695,95.0237" stroke="#b60000" stroke-width="2" /><polyline fill="none" points="90.6847,89.8169 91.5525,96.3254 94.1559,100.6644" stroke="#7f0000" stroke-width="2" /></svg>