<?xml version="1.0" encoding="utf-8" ?>
<svg baseProfile="tiny" height="128" version="1.2" viewBox="0,0,128,128" width="128" xmlns="http://www.w3.org/2000/svg" xmlns:ev="http://www.w3.org/2001/xml-events" xmlns:xlink="http://www.w3.org/1999/xlink"><defs /><polyline fill="none" points="24.2983,53.8034 24.2983,14.3186 31.2407,22.1288 41.6542,41.2203 57.7085,41.6542 64.6508,46.861 66.8203,35.5797 75.0644,17.7898 81.139,8.678 82.8746,10.4136 90.6847,52.9356" stroke="#00007f" stroke-width="2" /><polyline fill="none" points="23.8644,51.6339 22.1288,54.6712 22.1288,65.5186 26.4678,82.4407 30.3729,88.5153 37.7492,95.8915 44.6915,98.4949 51.6339,99.7966 65.5186,99.3627 78.5356,95.0237 86.3458,88.9492 92.4203,81.5729 98.4949,68.5559 99.7966,61.1797 95.4576,56.8407 86.3458,53.8034" stroke="#0010ff" stroke-width="2" /><polyline fill="none" points="28.6373,69.8576 10.8475,56.8407 8.678,53.8034" stroke="#00a4ff" stroke-width="2" /><polyline fill="none" points="29.5051,73.7627 21.6949,76.8 14.3186,82.4407" stroke="#3fffb7" stroke-width="2" /><polyline fill="none" points="33.4102,67.2542 31.2407,69.8576 27.3356,90.6847 21.261,107.1729" stroke="#b7ff3f" stroke-width="2" /><polyline fill="none" points="89.3831,62.0475 91.9864,58.1424 112.3797,43.3898" stroke="#ffb900" stroke-width="2" /><polyline fill="none" points="90.6847,70.7254 91.1186,66.3864 92.8542,65.0847 105.8712,73.3288 119.322,78.5356" stroke="#ff3000" stroke-width="2" /><polyline fill="none" points="94.1559,65.9525 98.4949,62.9153 119.322,58.5763" stroke="#7f0000" stroke-width="2" /></svg>