<?xml version="1.0" encoding="utf-8" ?>
<svg baseProfile="tiny" height="128" version="1.2" viewBox="0,0,128,128" width="128" xmlns="http://www.w3.org/2000/svg" xmlns:ev="http://www.w3.org/2001/xml-events" xmlns:xlink="http://www.w3.org/1999/xlink"><defs /><polyline fill="none" points="89.8169,85.9119 95.4576,86.7797" stroke="#00007f" stroke-width="2" /><polyline fill="none" points="64.2169,35.5797 60.7458,52.9356 61.1797,63.7831 58.5763,62.9153 43.8237,34.278 41.6542,18.6576 44.2576,14.3186 46.861,14.3186 51.2,18.2237 66.8203,37.3153 78.9695,55.539" stroke="#004cff" stroke-width="2" /><polyline fill="none" points="29.939,105.0034 35.5797,101.0983 43.8237,101.0983 56.4068,105.8712 60.3119,109.3424 62.0475,115.4169 56.8407,118.8881 50.3322,119.322" stroke="#29ffcd" stroke-width="2" /><polyline fill="none" points="48.1627,110.2102 49.8983,110.2102" stroke="#cdff29" stroke-width="2" /><polyline fill="none" points="26.0339,42.9559 26.0339,42.9559" stroke="#ff6700" stroke-width="2" /><polyline fill="none" points="16.0542,49.4644 8.678,16.0542 8.678,8.678 16.922,27.7695 22.9966,48.1627 25.6,72.461 19.9593,40.3525" stroke="#7f0000" stroke-width="2" /></svg>