<?xml version="1.0" encoding="utf-8" ?>
<svg baseProfile="tiny" height="128" version="1.2" viewBox="0,0,128,128" width="128" xmlns="http://www.w3.org/2000/svg" xmlns:ev="http://www.w3.org/2001/xml-events" xmlns:xlink="http://www.w3.org/1999/xlink"><defs /><polyline fill="none" points="19.5254,49.8983 16.4881,46.4271 16.0542,42.0881 18.2237,36.4475 23.8644,31.6746 31.2407,31.2407 35.5797,35.1458 38.6169,43.8237 38.6169,51.2 36.0136,54.2373 26.9017,55.539 21.261,53.8034 18.6576,50.3322" stroke="#00007f" stroke-width="2" /><polyline fill="none" points="35.5797,34.278 34.278,34.278 33.8441,32.5424 35.5797,29.0712 40.7864,20.8271 44.6915,16.4881 45.1254,29.939 39.4847,41.2203" stroke="#0080ff" stroke-width="2" /><polyline fill="none" points="19.5254,33.8441 14.7525,12.5831 12.5831,9.1119 10.4136,8.678 8.678,11.2814 8.678,23.4305 11.7153,31.2407 16.4881,36.4475" stroke="#7cff79" stroke-width="2" /><polyline fill="none" points="35.5797,53.3695 49.0305,53.3695 68.122,50.7661 79.8373,51.6339 90.2508,58.1424 94.5898,64.6508 95.0237,78.1017 90.6847,82.4407 67.6881,83.7424 54.2373,79.8373 40.7864,70.7254 32.1085,55.1051" stroke="#ff9400" stroke-width="2" /><polyline fill="none" points="59.0102,77.2339 58.1424,81.139 58.5763,110.2102 50.7661,110.2102 49.4644,111.9458 53.8034,114.9831 51.2,116.2847 52.0678,119.322 58.1424,118.0203 59.4441,113.2475" stroke="#7f0000" stroke-width="2" /></svg>