<?xml version="1.0" encoding="utf-8" ?>
<svg baseProfile="tiny" height="128" version="1.2" viewBox="0,0,128,128" width="128" xmlns="http://www.w3.org/2000/svg" xmlns:ev="http://www.w3.org/2001/xml-events" xmlns:xlink="http://www.w3.org/1999/xlink"><defs /><polyline fill="none" points="56.4068,26.9017 51.2,26.9017 41.2203,37.7492 35.1458,49.4644 35.1458,61.6136 40.3525,66.3864 47.7288,68.5559 67.2542,68.5559 73.7627,62.4814 82.0068,48.1627 82.8746,35.5797 80.7051,32.1085 75.4983,30.8068 58.5763,29.939" stroke="#00007f" stroke-width="2" /><polyline fill="none" points="64.6508,26.0339 65.5186,21.261 68.122,18.2237 78.9695,8.678 80.7051,17.7898 75.9322,28.6373 75.4983,33.8441" stroke="#0000ff" stroke-width="2" /><polyline fill="none" points="42.9559,29.939 29.939,20.8271 27.7695,26.0339 27.7695,29.939 32.1085,42.0881" stroke="#0080ff" stroke-width="2" /><polyline fill="none" points="45.1254,43.3898 45.1254,51.6339 46.4271,52.0678" stroke="#15ffe1" stroke-width="2" /><polyline fill="none" points="62.4814,41.2203 63.3492,49.4644" stroke="#7cff79" stroke-width="2" /><polyline fill="none" points="51.2,59.4441 54.2373,64.2169 59.0102,65.5186 62.4814,61.6136 67.6881,50.3322" stroke="#e4ff12" stroke-width="2" /><polyline fill="none" points="73.7627,48.1627 95.4576,35.1458 119.322,25.1661" stroke="#ff9400" stroke-width="2" /><polyline fill="none" points="72.8949,55.1051 95.0237,55.539 109.3424,57.7085 111.9458,59.4441" stroke="#ff1d00" stroke-width="2" /><polyline fill="none" points="44.2576,58.1424 8.678,58.1424" stroke="#7f0000" stroke-width="2" /></svg>