<?xml version="1.0" encoding="utf-8" ?>
<svg baseProfile="tiny" height="128" version="1.2" viewBox="0,0,128,128" width="128" xmlns="http://www.w3.org/2000/svg" xmlns:ev="http://www.w3.org/2001/xml-events" xmlns:xlink="http://www.w3.org/1999/xlink"><defs /><polyline fill="none" points="72.461,31.2407 66.3864,26.9017 47.2949,26.0339 34.7119,29.939 21.261,37.7492 11.7153,49.0305 8.678,56.8407 8.678,60.7458 11.2814,67.6881 18.2237,75.4983 29.5051,80.7051 47.7288,81.5729 81.139,72.0271 98.4949,64.2169 111.078,55.9729 116.7186,48.5966 119.322,42.0881 119.322,39.0508 116.7186,34.278 112.3797,30.3729 100.2305,24.7322 90.6847,22.9966 68.9898,28.6373" stroke="#00007f" stroke-width="2" /><polyline fill="none" points="40.7864,28.6373 26.0339,14.7525 19.9593,25.6 16.922,34.278 16.4881,40.3525" stroke="#0010ff" stroke-width="2" /><polyline fill="none" points="99.7966,25.1661 101.5322,19.5254 106.3051,13.0169 112.8136,8.678 114.9831,16.4881 114.5492,35.5797" stroke="#00a4ff" stroke-width="2" /><polyline fill="none" points="88.9492,33.8441 82.0068,39.0508 69.4237,45.1254 70.7254,47.7288 74.6305,49.8983 83.3085,51.2 86.3458,49.8983 89.3831,45.1254 90.2508,34.278 88.0814,34.278" stroke="#3fffb7" stroke-width="2" /><polyline fill="none" points="82.4407,44.2576 86.7797,51.2" stroke="#b7ff3f" stroke-width="2" /><polyline fill="none" points="29.939,48.5966 23.4305,55.9729 24.2983,58.1424 28.6373,60.3119 37.3153,60.3119 43.3898,57.2746 46.4271,50.7661 42.0881,47.7288 32.5424,48.1627" stroke="#ffb900" stroke-width="2" /><polyline fill="none" points="31.2407,47.2949 33.4102,49.0305 39.0508,59.4441" stroke="#ff3000" stroke-width="2" /><polyline fill="none" points="66.3864,62.0475 65.0847,62.0475 60.3119,55.539 55.9729,52.9356 64.2169,51.2 66.8203,60.7458 67.6881,70.7254 65.0847,68.5559" stroke="#7f0000" stroke-width="2" /></svg>