<?xml version="1.0" encoding="utf-8" ?>
<svg baseProfile="tiny" height="128" version="1.2" viewBox="0,0,128,128" width="128" xmlns="http://www.w3.org/2000/svg" xmlns:ev="http://www.w3.org/2001/xml-events" xmlns:xlink="http://www.w3.org/1999/xlink"><defs /><polyline fill="none" points="65.5186,49.8983 61.6136,44.2576 56.4068,40.7864 49.8983,38.6169 41.6542,39.0508 32.9763,42.0881 26.9017,45.9932 16.4881,61.1797 9.1119,82.4407 8.678,92.4203 10.4136,101.9661 15.1864,109.3424 24.7322,114.5492 36.4475,118.0203 60.3119,119.322 70.2915,115.4169 76.3661,110.6441 81.139,102.8339 85.9119,90.2508 86.3458,76.3661 85.0441,62.4814 80.7051,52.9356 68.9898,36.0136" stroke="#00007f" stroke-width="2" /><polyline fill="none" points="22.1288,46.4271 22.5627,36.4475 21.261,21.261 26.4678,8.678 30.8068,17.3559 35.1458,34.7119 38.1831,42.0881 40.7864,43.8237" stroke="#004cff" stroke-width="2" /><polyline fill="none" points="55.539,42.522 76.8,26.9017 88.5153,20.8271 89.8169,34.7119 87.6475,50.7661 85.478,52.0678" stroke="#29ffcd" stroke-width="2" /><polyline fill="none" points="41.6542,75.9322 34.278,75.9322 35.5797,80.7051 39.9186,85.0441 47.7288,88.0814 54.6712,87.6475 56.8407,85.0441 57.2746,80.2712 55.539,73.3288 51.6339,72.0271 44.2576,72.0271 42.0881,72.8949 40.7864,76.8" stroke="#cdff29" stroke-width="2" /><polyline fill="none" points="37.7492,81.139 33.8441,88.5153 25.1661,91.1186 22.1288,90.2508" stroke="#ff6700" stroke-width="2" /><polyline fill="none" points="50.3322,89.3831 53.8034,92.4203 63.3492,96.3254 71.1593,95.0237" stroke="#7f0000" stroke-width="2" /></svg>