<?xml version="1.0" encoding="utf-8" ?>
<svg baseProfile="tiny" height="128" version="1.2" viewBox="0,0,128,128" width="128" xmlns="http://www.w3.org/2000/svg" xmlns:ev="http://www.w3.org/2001/xml-events" xmlns:xlink="http://www.w3.org/1999/xlink"><defs /><polyline fill="none" points="74.449,27.8639 69.2245,25.2517 60.517,25.2517 43.9728,29.1701 34.3946,34.8299 28.2993,43.102 27.8639,55.2925 29.6054,60.9524 33.9592,67.0476 40.0544,70.966 53.9864,73.1429 70.966,71.8367 86.6395,64.8707 96.2177,55.7279 98.8299,48.3265 97.9592,44.8435 94.9116,41.3605 78.3673,30.0408 67.0476,27.4286 59.2109,26.9932" stroke="#00007f" stroke-width="2" /><polyline fill="none" points="30.0408,38.3129 27.8639,36.1361 20.898,21.7687 20.0272,13.932 22.2041,12.6259 45.7143,24.381 51.8095,29.1701" stroke="#0028ff" stroke-width="2" /><polyline fill="none" points="84.0272,29.6054 100.5714,14.8027 109.7143,8.7075 104.9252,29.1701 94.0408,47.8912" stroke="#00d4ff" stroke-width="2" /><polyline fill="none" points="74.0136,50.5034 109.7143,79.6735 118.8571,88.8163 119.2925,92.7347" stroke="#7cff79" stroke-width="2" /><polyline fill="none" points="54.4218,66.1769 32.6531,76.1905 8.7075,95.7823" stroke="#ffe500" stroke-width="2" /><polyline fill="none" points="55.2925,50.9388 46.1497,52.6803 24.8163,61.8231 13.932,64.4354" stroke="#ff4600" stroke-width="2" /><polyline fill="none" points="70.966,46.585 84.4626,58.7755 102.3129,70.966" stroke="#7f0000" stroke-width="2" /></svg>