<?xml version="1.0" encoding="utf-8" ?>
<svg baseProfile="tiny" height="128" version="1.2" viewBox="0,0,128,128" width="128" xmlns="http://www.w3.org/2000/svg" xmlns:ev="http://www.w3.org/2001/xml-events" xmlns:xlink="http://www.w3.org/1999/xlink"><defs /><polyline fill="none" points="94.5898,33.8441 85.478,31.6746 68.122,30.8068 60.3119,32.5424 42.9559,42.522 29.0712,66.8203 28.2034,82.8746 30.3729,88.5153 35.1458,92.8542 42.0881,95.0237 61.6136,95.8915 90.2508,80.7051 97.6271,70.2915 102.4,58.5763 103.2678,43.3898 92.4203,27.7695 89.8169,26.0339" stroke="#00007f" stroke-width="2" /><polyline fill="none" points="49.8983,65.9525 37.7492,58.5763 27.3356,55.539 13.0169,55.539 9.5458,60.3119" stroke="#0000f1" stroke-width="2" /><polyline fill="none" points="35.1458,77.2339 33.4102,71.1593 28.2034,67.2542 22.9966,65.5186 16.0542,65.5186 11.7153,68.5559 8.678,75.0644 8.678,77.2339 11.7153,78.9695" stroke="#004cff" stroke-width="2" /><polyline fill="none" points="35.1458,87.2136 23.8644,86.7797 21.261,88.0814 11.2814,96.3254 9.9797,101.5322 11.7153,103.2678" stroke="#00b0ff" stroke-width="2" /><polyline fill="none" points="87.6475,54.6712 92.4203,52.0678 113.6814,51.2 119.322,55.9729 119.322,59.4441 117.5864,63.3492 113.2475,67.2542" stroke="#29ffcd" stroke-width="2" /><polyline fill="none" points="88.0814,67.2542 97.6271,65.5186 103.7017,65.9525 106.3051,71.1593 106.3051,75.0644 104.1356,78.9695" stroke="#7cff79" stroke-width="2" /><polyline fill="none" points="82.0068,76.3661 89.3831,75.4983 93.722,80.2712 95.0237,94.1559 92.8542,99.7966" stroke="#cdff29" stroke-width="2" /><polyline fill="none" points="49.4644,36.8814 49.4644,25.1661 52.9356,9.1119 55.539,8.678 62.0475,21.6949 67.2542,28.2034" stroke="#ffc400" stroke-width="2" /><polyline fill="none" points="83.7424,29.5051 107.1729,17.7898 106.739,21.261 97.6271,35.5797" stroke="#ff6700" stroke-width="2" /><polyline fill="none" points="59.0102,64.2169 64.6508,67.6881 64.6508,69.8576 54.6712,75.0644 54.2373,72.461 57.2746,62.9153" stroke="#f10700" stroke-width="2" /><polyline fill="none" points="53.3695,74.6305 49.8983,85.9119 45.9932,88.9492 43.8237,88.0814 42.522,79.8373" stroke="#7f0000" stroke-width="2" /></svg>