<?xml version="1.0" encoding="utf-8" ?>
<svg baseProfile="tiny" height="128" version="1.2" viewBox="0,0,128,128" width="128" xmlns="http://www.w3.org/2000/svg" xmlns:ev="http://www.w3.org/2001/xml-events" xmlns:xlink="http://www.w3.org/1999/xlink"><defs /><polyline fill="none" points="45.1254,118.4542 36.8814,119.322 32.1085,117.1525 23.8644,111.9458 14.3186,102.8339 10.4136,94.5898 8.678,86.7797 8.678,78.9695 12.1492,69.4237 17.7898,61.6136 29.0712,52.9356 46.861,48.1627 59.4441,48.1627 63.7831,49.8983 72.0271,55.9729 75.9322,61.6136 78.1017,67.6881 78.1017,79.8373 75.9322,87.2136 68.9898,99.7966 63.3492,106.739 59.4441,108.9085 50.7661,107.1729 39.0508,108.0407" stroke="#00007f" stroke-width="2" /><polyline fill="none" points="13.0169,67.2542 11.7153,66.3864 10.8475,59.878 10.4136,49.8983 18.6576,21.261 37.3153,48.1627" stroke="#0010ff" stroke-width="2" /><polyline fill="none" points="15.6203,57.2746 14.3186,45.9932 17.7898,34.278 26.0339,34.7119 23.8644,35.5797 26.9017,56.4068" stroke="#00a4ff" stroke-width="2" /><polyline fill="none" points="13.4508,52.0678 19.9593,57.2746" stroke="#3fffb7" stroke-width="2" /><polyline fill="none" points="48.1627,48.1627 48.1627,42.0881 53.3695,33.4102 72.0271,8.678 72.461,33.4102 78.1017,63.3492" stroke="#b7ff3f" stroke-width="2" /><polyline fill="none" points="55.1051,45.1254 58.5763,33.4102 65.5186,20.3932 70.7254,49.4644" stroke="#ffb900" stroke-width="2" /><polyline fill="none" points="39.4847,78.1017 57.7085,74.1966 55.1051,76.3661 51.6339,84.1763 44.2576,94.5898 37.7492,74.1966" stroke="#ff3000" stroke-width="2" /><polyline fill="none" points="29.5051,67.2542 29.0712,63.7831 29.939,69.8576 28.6373,67.2542 29.0712,64.6508 30.8068,63.3492" stroke="#7f0000" stroke-width="2" /></svg>