<?xml version="1.0" encoding="utf-8" ?>
<svg baseProfile="tiny" height="128" version="1.2" viewBox="0,0,128,128" width="128" xmlns="http://www.w3.org/2000/svg" xmlns:ev="http://www.w3.org/2001/xml-events" xmlns:xlink="http://www.w3.org/1999/xlink"><defs /><polyline fill="none" points="61.8231,26.1224 73.1429,23.9456 87.0748,24.381 94.4762,27.4286 97.5238,31.7823 101.4422,25.6871 119.2925,8.7075 115.3741,45.7143 113.6327,49.1973" stroke="#00007f" stroke-width="2" /><polyline fill="none" points="52.2449,24.8163 46.585,26.9932 43.5374,31.3469 40.4898,22.6395 35.7007,14.8027 31.3469,10.8844 26.9932,9.5782 26.1224,31.7823 29.6054,55.7279" stroke="#0000ff" stroke-width="2" /><polyline fill="none" points="30.0408,49.6327 25.2517,62.6939 24.381,72.7075 24.381,82.7211 27.8639,90.9932 32.6531,97.5238 40.4898,103.1837 49.1973,105.7959 63.1293,106.6667 70.966,104.4898 83.1565,97.9592 94.4762,90.1224 99.7007,84.4626 114.5034,60.0816 117.551,47.4558 117.551,40.9252 116.2449,39.619" stroke="#0080ff" stroke-width="2" /><polyline fill="none" points="78.3673,64.4354 93.1701,70.0952 97.0884,72.7075 99.7007,76.6259" stroke="#15ffe1" stroke-width="2" /><polyline fill="none" points="87.0748,79.6735 107.5374,87.0748 112.7619,90.9932 118.8571,99.7007" stroke="#7cff79" stroke-width="2" /><polyline fill="none" points="16.5442,73.5782 16.5442,73.5782" stroke="#e4ff12" stroke-width="2" /><polyline fill="none" points="38.3129,73.1429 26.1224,76.1905 18.2857,80.1088 13.0612,84.0272 8.7075,92.2993" stroke="#ff9400" stroke-width="2" /><polyline fill="none" points="37.8776,84.898 33.5238,87.0748 26.9932,94.0408 23.9456,103.1837" stroke="#ff1d00" stroke-width="2" /><polyline fill="none" points="68.3537,64.8707 68.7891,72.2721 72.7075,79.2381 53.551,78.3673 60.517,71.8367 66.6122,60.0816 69.6599,62.2585" stroke="#7f0000" stroke-width="2" /></svg>