<?xml version="1.0" encoding="utf-8" ?>
<svg baseProfile="tiny" height="128" version="1.2" viewBox="0,0,128,128" width="128" xmlns="http://www.w3.org/2000/svg" xmlns:ev="http://www.w3.org/2001/xml-events" xmlns:xlink="http://www.w3.org/1999/xlink"><defs /><polyline fill="none" points="31.6746,74.1966 23.8644,53.3695 10.4136,26.0339 8.678,16.0542 10.4136,9.5458 19.9593,9.5458 25.1661,12.5831 29.5051,16.922 34.7119,42.522 46.861,47.2949 76.3661,46.861 90.2508,49.0305 92.8542,47.2949 99.7966,32.9763 109.3424,18.6576 119.322,8.678 118.0203,32.1085 111.5119,55.1051 117.1525,72.0271 118.4542,85.0441 114.5492,90.2508 105.8712,95.0237 72.0271,102.4 58.5763,101.5322 43.3898,95.4576 37.7492,92.4203 35.5797,86.7797 31.6746,65.9525 32.5424,59.0102 39.0508,48.1627" stroke="#00007f" stroke-width="2" /><polyline fill="none" points="70.2915,68.5559 62.0475,77.6678" stroke="#0080ff" stroke-width="2" /><polyline fill="none" points="45.5593,80.7051 37.3153,81.139" stroke="#7cff79" stroke-width="2" /><polyline fill="none" points="51.6339,84.6102 46.861,88.9492" stroke="#ff9400" stroke-width="2" /><polyline fill="none" points="57.7085,89.8169 55.1051,96.3254" stroke="#7f0000" stroke-width="2" /></svg>