<?xml version="1.0" encoding="utf-8" ?>
<svg baseProfile="tiny" height="128" version="1.2" viewBox="0,0,128,128" width="128" xmlns="http://www.w3.org/2000/svg" xmlns:ev="http://www.w3.org/2001/xml-events" xmlns:xlink="http://www.w3.org/1999/xlink"><defs /><polyline fill="none" points="74.5205,37.6986 71.0137,34.1918 64.8767,32.0 50.8493,32.0 46.4658,34.6301 41.2055,40.3288 38.137,44.7123 35.0685,53.0411 34.6301,58.7397 38.137,64.0 51.726,72.7671 68.8219,77.1507 83.726,74.5205 92.9315,68.8219 97.3151,63.1233 99.9452,56.9863 100.3836,45.589 97.7534,42.0822 88.9863,36.8219 74.9589,36.8219" stroke="#00007f" stroke-width="2" /><polyline fill="none" points="49.9726,31.5616 56.5479,8.7671 59.1781,28.0548 60.9315,32.4384" stroke="#0000ff" stroke-width="2" /><polyline fill="none" points="87.6712,35.5068 107.3973,15.3425 103.4521,41.2055" stroke="#0080ff" stroke-width="2" /><polyline fill="none" points="56.1096,42.0822 54.3562,44.7123 54.7945,46.9041 60.4932,49.0959 64.0,48.2192 65.3151,44.7123 63.1233,42.5205 57.863,42.0822" stroke="#15ffe1" stroke-width="2" /><polyline fill="none" points="77.589,46.0274 73.2055,46.0274 71.8904,47.7808 72.7671,49.5342 79.7808,52.6027 86.7945,53.9178 87.6712,51.2877 85.9178,49.0959 80.2192,48.6575" stroke="#7cff79" stroke-width="2" /><polyline fill="none" points="90.3014,60.4932 119.2329,59.6164" stroke="#e4ff12" stroke-width="2" /><polyline fill="none" points="86.7945,64.8767 105.2055,73.6438 111.7808,79.7808 112.6575,83.726" stroke="#ff9400" stroke-width="2" /><polyline fill="none" points="74.9589,70.5753 77.589,82.411 78.4658,94.2466" stroke="#ff1d00" stroke-width="2" /><polyline fill="none" points="29.3699,50.411 33.7534,50.411 33.7534,48.6575 25.863,44.7123 8.7671,42.0822" stroke="#7f0000" stroke-width="2" /></svg>