<?xml version="1.0" encoding="utf-8" ?>
<svg baseProfile="tiny" height="128" version="1.2" viewBox="0,0,128,128" width="128" xmlns="http://www.w3.org/2000/svg" xmlns:ev="http://www.w3.org/2001/xml-events" xmlns:xlink="http://www.w3.org/1999/xlink"><defs /><polyline fill="none" points="95.0237,51.2 91.5525,41.6542 86.3458,35.5797 71.5932,28.2034 49.8983,25.6 43.3898,26.9017 36.0136,31.2407 29.5051,36.0136 18.2237,49.4644 11.7153,64.6508 10.4136,72.461 10.4136,87.2136 16.0542,101.5322 25.1661,112.3797 31.6746,115.8508 45.1254,119.322 59.4441,118.8881 66.3864,116.2847 78.1017,108.0407 84.6102,98.061 88.9492,79.8373 88.5153,39.4847" stroke="#00007f" stroke-width="2" /><polyline fill="none" points="17.3559,53.3695 12.5831,43.3898 8.678,19.5254 11.7153,19.0915 13.8847,20.3932 32.1085,33.8441 37.7492,34.278" stroke="#0010ff" stroke-width="2" /><polyline fill="none" points="74.1966,29.939 77.2339,23.4305 90.6847,8.678 91.9864,11.2814 94.5898,44.2576" stroke="#00a4ff" stroke-width="2" /><polyline fill="none" points="39.9186,62.0475 39.9186,62.0475" stroke="#3fffb7" stroke-width="2" /><polyline fill="none" points="61.1797,56.8407 61.1797,56.8407" stroke="#b7ff3f" stroke-width="2" /><polyline fill="none" points="42.0881,57.7085 40.3525,55.1051" stroke="#ffb900" stroke-width="2" /><polyline fill="none" points="62.9153,54.2373 61.6136,51.2" stroke="#ff3000" stroke-width="2" /><polyline fill="none" points="49.8983,73.7627 57.2746,70.2915 59.0102,72.8949 59.0102,79.4034 58.5763,81.139 55.9729,82.0068 50.7661,79.8373 49.0305,73.7627 49.8983,71.5932" stroke="#7f0000" stroke-width="2" /></svg>