<?xml version="1.0" encoding="utf-8" ?>
<svg baseProfile="tiny" height="128" version="1.2" viewBox="0,0,128,128" width="128" xmlns="http://www.w3.org/2000/svg" xmlns:ev="http://www.w3.org/2001/xml-events" xmlns:xlink="http://www.w3.org/1999/xlink"><defs /><polyline fill="none" points="53.3695,60.3119 43.8237,57.2746 34.278,57.2746 24.7322,62.0475 17.3559,71.5932 9.5458,85.9119 9.5458,100.6644 13.4508,109.7763 18.6576,113.6814 27.7695,117.5864 36.8814,119.322 56.4068,119.322 61.1797,118.4542 65.9525,115.4169 69.8576,105.8712 71.5932,96.3254 71.5932,86.7797 69.8576,77.2339 59.4441,58.5763 47.7288,53.3695" stroke="#00007f" stroke-width="2" /><polyline fill="none" points="57.2746,55.539 60.3119,50.7661 89.8169,31.6746 91.5525,37.3153 88.0814,46.4271 68.5559,78.1017" stroke="#0000ff" stroke-width="2" /><polyline fill="none" points="22.1288,51.6339 16.922,34.7119 13.4508,8.678 10.4136,13.4508 8.678,47.2949 8.678,80.2712" stroke="#0080ff" stroke-width="2" /><polyline fill="none" points="21.261,46.861 22.1288,56.4068 23.8644,59.4441" stroke="#15ffe1" stroke-width="2" /><polyline fill="none" points="37.3153,75.4983 37.3153,75.4983" stroke="#7cff79" stroke-width="2" /><polyline fill="none" points="47.7288,76.3661 47.7288,76.3661" stroke="#e4ff12" stroke-width="2" /><polyline fill="none" points="32.5424,77.2339 35.5797,80.2712" stroke="#ff9400" stroke-width="2" /><polyline fill="none" points="46.861,78.1017 45.9932,84.1763" stroke="#ff1d00" stroke-width="2" /><polyline fill="none" points="32.5424,89.8169 32.5424,89.8169" stroke="#7f0000" stroke-width="2" /></svg>