<?xml version="1.0" encoding="utf-8" ?>
<svg baseProfile="tiny" height="128" version="1.2" viewBox="0,0,128,128" width="128" xmlns="http://www.w3.org/2000/svg" xmlns:ev="http://www.w3.org/2001/xml-events" xmlns:xlink="http://www.w3.org/1999/xlink"><defs /><polyline fill="none" points="28.2034,30.8068 31.2407,8.678 41.6542,19.9593 49.4644,32.1085 57.2746,28.6373 69.8576,27.3356 90.2508,33.8441 91.9864,31.2407 95.4576,16.922 101.9661,22.5627 105.0034,27.3356 108.0407,40.7864 108.0407,65.5186 100.2305,86.3458 95.0237,94.1559 89.8169,98.9288 75.0644,105.8712 67.2542,107.6068 55.539,106.3051 40.7864,95.4576 35.5797,89.8169 21.6949,49.0305 21.261,39.0508 24.2983,31.6746 26.9017,30.8068" stroke="#00007f" stroke-width="2" /><polyline fill="none" points="39.4847,64.2169 8.678,70.2915" stroke="#004cff" stroke-width="2" /><polyline fill="none" points="26.0339,69.4237 25.6,73.7627 17.7898,80.7051" stroke="#29ffcd" stroke-width="2" /><polyline fill="none" points="43.3898,70.2915 25.1661,85.0441" stroke="#cdff29" stroke-width="2" /><polyline fill="none" points="87.2136,69.8576 117.1525,73.3288" stroke="#ff6700" stroke-width="2" /><polyline fill="none" points="92.4203,83.7424 119.322,84.6102" stroke="#7f0000" stroke-width="2" /></svg>