<?xml version="1.0" encoding="utf-8" ?>
<svg baseProfile="tiny" height="128" version="1.2" viewBox="0,0,128,128" width="128" xmlns="http://www.w3.org/2000/svg" xmlns:ev="http://www.w3.org/2001/xml-events" xmlns:xlink="http://www.w3.org/1999/xlink"><defs /><polyline fill="none" points="82.0068,40.7864 83.7424,36.8814 82.0068,31.2407 78.1017,25.6 72.0271,20.8271 60.7458,16.0542 45.9932,16.4881 38.1831,19.9593 30.8068,27.3356 23.8644,41.6542 21.6949,57.2746 24.7322,70.2915 28.2034,76.3661 32.9763,80.7051 46.4271,85.0441 60.7458,82.0068 64.2169,80.2712 76.3661,67.6881 82.8746,55.9729 85.9119,42.0881 84.6102,34.7119 82.0068,28.2034" stroke="#00007f" stroke-width="2" /><polyline fill="none" points="68.9898,18.2237 85.0441,9.5458 89.8169,8.678 92.4203,9.5458 94.1559,13.0169 94.1559,20.8271 86.7797,42.9559" stroke="#0000d1" stroke-width="2" /><polyline fill="none" points="45.5593,18.6576 42.9559,16.0542 32.5424,10.8475 26.4678,9.1119 20.3932,9.9797 19.5254,15.1864 26.4678,34.278" stroke="#0010ff" stroke-width="2" /><polyline fill="none" points="32.9763,58.1424 22.9966,56.8407 15.6203,59.878 8.678,65.5186" stroke="#0058ff" stroke-width="2" /><polyline fill="none" points="34.7119,67.6881 22.1288,72.8949 18.2237,78.1017" stroke="#00a4ff" stroke-width="2" /><polyline fill="none" points="70.2915,61.6136 81.5729,65.0847 94.1559,76.3661" stroke="#05ecf1" stroke-width="2" /><polyline fill="none" points="55.1051,76.8 78.5356,83.3085" stroke="#3fffb7" stroke-width="2" /><polyline fill="none" points="60.7458,38.1831 65.9525,37.3153 70.2915,38.1831 73.3288,40.7864" stroke="#7cff79" stroke-width="2" /><polyline fill="none" points="63.3492,39.4847 64.2169,42.9559" stroke="#b7ff3f" stroke-width="2" /><polyline fill="none" points="48.1627,40.7864 45.9932,37.7492 39.4847,35.1458 32.9763,37.7492" stroke="#f1fc05" stroke-width="2" /><polyline fill="none" points="41.6542,36.4475 41.2203,40.7864" stroke="#ffb900" stroke-width="2" /><polyline fill="none" points="42.522,45.5593 33.8441,45.1254" stroke="#ff7300" stroke-width="2" /><polyline fill="none" points="57.2746,46.4271 66.8203,47.2949" stroke="#ff3000" stroke-width="2" /><polyline fill="none" points="32.5424,85.0441 30.8068,115.4169" stroke="#d10000" stroke-width="2" /><polyline fill="none" points="50.3322,84.1763 49.8983,119.322" stroke="#7f0000" stroke-width="2" /></svg>