<?xml version="1.0" encoding="utf-8" ?>
<svg baseProfile="tiny" height="128" version="1.2" viewBox="0,0,128,128" width="128" xmlns="http://www.w3.org/2000/svg" xmlns:ev="http://www.w3.org/2001/xml-events" xmlns:xlink="http://www.w3.org/1999/xlink"><defs /><polyline fill="none" points="81.5729,16.922 78.1017,15.1864 71.5932,16.4881 55.539,24.2983 50.3322,28.2034 41.6542,39.0508 36.4475,51.6339 36.0136,62.4814 42.0881,71.5932 52.0678,76.8 68.5559,77.2339 78.9695,73.3288 88.0814,64.6508 91.5525,59.0102 95.0237,47.7288 95.4576,36.4475 89.3831,26.9017 84.6102,23.4305 75.0644,20.8271 63.3492,21.6949" stroke="#00007f" stroke-width="2" /><polyline fill="none" points="56.4068,50.3322 62.4814,49.4644 68.9898,52.0678 65.5186,58.1424 60.3119,62.4814 54.2373,52.5017" stroke="#0000d5" stroke-width="2" /><polyline fill="none" points="63.7831,64.2169 59.0102,71.1593 54.6712,73.7627 49.4644,73.7627 47.2949,68.9898 48.1627,68.122" stroke="#001cff" stroke-width="2" /><polyline fill="none" points="61.1797,63.7831 60.7458,67.6881 62.9153,70.7254 68.9898,74.1966 74.1966,72.461 77.6678,64.2169" stroke="#006cff" stroke-width="2" /><polyline fill="none" points="46.861,29.0712 50.7661,9.1119 51.6339,9.1119 53.3695,23.8644" stroke="#00b8ff" stroke-width="2" /><polyline fill="none" points="80.2712,20.3932 91.1186,8.678 90.6847,26.4678" stroke="#1cffda" stroke-width="2" /><polyline fill="none" points="59.0102,28.6373 56.8407,35.1458 64.6508,35.5797 66.8203,33.4102 60.3119,29.5051 58.5763,29.939" stroke="#5cff9a" stroke-width="2" /><polyline fill="none" points="76.8,31.2407 69.4237,37.3153 71.5932,37.7492 78.5356,34.7119 79.8373,32.1085 74.6305,33.4102" stroke="#9aff5c" stroke-width="2" /><polyline fill="none" points="81.5729,47.7288 105.0034,47.2949 116.2847,48.1627" stroke="#daff1c" stroke-width="2" /><polyline fill="none" points="78.9695,55.1051 101.5322,52.5017 119.322,54.2373" stroke="#ffcb00" stroke-width="2" /><polyline fill="none" points="81.5729,58.1424 100.6644,62.9153" stroke="#ff8500" stroke-width="2" /><polyline fill="none" points="44.2576,48.5966 20.8271,52.0678 14.3186,52.0678 8.678,50.3322" stroke="#ff3b00" stroke-width="2" /><polyline fill="none" points="43.8237,64.2169 28.2034,63.7831 13.0169,65.5186" stroke="#d50000" stroke-width="2" /><polyline fill="none" points="43.8237,53.3695 12.1492,63.3492" stroke="#7f0000" stroke-width="2" /></svg>