<?xml version="1.0" encoding="utf-8" ?>
<svg baseProfile="tiny" height="128" version="1.2" viewBox="0,0,128,128" width="128" xmlns="http://www.w3.org/2000/svg" xmlns:ev="http://www.w3.org/2001/xml-events" xmlns:xlink="http://www.w3.org/1999/xlink"><defs /><polyline fill="none" points="53.551,39.619 40.0544,38.3129 22.6395,41.7959 20.0272,43.5374 10.449,64.8707 8.7075,84.4626 23.9456,102.7483 34.3946,111.0204 56.1633,119.2925 73.1429,118.8571 86.2041,110.1497 90.9932,102.7483 92.7347,95.7823 91.4286,82.7211 85.7687,67.0476 74.8844,54.4218 64.8707,48.3265 51.3741,43.5374" stroke="#00007f" stroke-width="2" /><polyline fill="none" points="13.0612,50.5034 15.6735,42.6667 15.6735,8.7075 27.8639,37.8776" stroke="#0010ff" stroke-width="2" /><polyline fill="none" points="57.4694,43.9728 65.3061,32.6531 72.7075,26.5578 70.966,51.3741" stroke="#00a4ff" stroke-width="2" /><polyline fill="none" points="34.3946,94.9116 41.7959,98.3946 47.0204,98.3946 49.6327,97.0884 56.5986,101.0068 59.6463,101.0068 63.1293,95.3469" stroke="#3fffb7" stroke-width="2" /><polyline fill="none" points="47.0204,84.0272 47.0204,84.0272" stroke="#b7ff3f" stroke-width="2" /><polyline fill="none" points="47.8912,84.4626 48.3265,86.2041" stroke="#ffb900" stroke-width="2" /><polyline fill="none" points="29.6054,60.9524 23.0748,61.3878 20.4626,63.5646 20.0272,70.5306 22.6395,75.3197 26.9932,77.932 37.4422,78.3673 39.619,74.0136 40.0544,67.0476 38.7483,64.8707 35.7007,61.8231 30.4762,61.3878" stroke="#ff3000" stroke-width="2" /><polyline fill="none" points="60.517,65.7415 52.2449,66.6122 50.068,70.0952 50.068,74.449 51.3741,76.6259 63.1293,79.6735 67.0476,76.6259 67.9184,71.8367 66.1769,69.2245 60.0816,68.3537" stroke="#7f0000" stroke-width="2" /></svg>