<?xml version="1.0" encoding="utf-8" ?>
<svg baseProfile="tiny" height="128" version="1.2" viewBox="0,0,128,128" width="128" xmlns="http://www.w3.org/2000/svg" xmlns:ev="http://www.w3.org/2001/xml-events" xmlns:xlink="http://www.w3.org/1999/xlink"><defs /><polyline fill="none" points="46.861,37.3153 38.6169,37.3153 27.3356,44.2576 21.6949,49.8983 15.1864,57.7085 11.2814,65.9525 9.1119,74.6305 8.678,83.7424 11.7153,94.1559 16.0542,101.9661 21.6949,109.3424 31.2407,115.8508 40.7864,118.8881 50.7661,119.322 66.8203,114.5492 78.1017,106.739 86.7797,95.0237 91.1186,82.4407 91.5525,69.8576 86.3458,55.9729 80.7051,49.0305 65.9525,39.9186 54.6712,35.5797 50.7661,35.5797" stroke="#00007f" stroke-width="2" /><polyline fill="none" points="14.3186,57.7085 13.0169,22.1288 14.7525,9.5458 16.4881,8.678 18.6576,9.9797 24.7322,16.922 38.6169,39.0508" stroke="#004cff" stroke-width="2" /><polyline fill="none" points="68.5559,38.6169 75.9322,31.6746 93.722,21.261 101.9661,18.2237 107.1729,18.6576 107.6068,22.9966 104.5695,29.5051 87.2136,52.0678" stroke="#29ffcd" stroke-width="2" /><polyline fill="none" points="32.9763,80.2712 32.1085,76.3661 36.0136,73.3288 37.7492,75.9322 36.0136,76.8" stroke="#cdff29" stroke-width="2" /><polyline fill="none" points="56.4068,79.4034 56.4068,77.2339 59.4441,73.7627 63.3492,72.461 63.3492,74.6305 61.6136,75.9322 62.0475,74.1966" stroke="#ff6700" stroke-width="2" /><polyline fill="none" points="44.2576,95.8915 39.9186,86.3458 51.6339,86.7797 52.5017,88.0814 47.7288,93.722" stroke="#7f0000" stroke-width="2" /></svg>