<?xml version="1.0" encoding="utf-8" ?>
<svg baseProfile="tiny" height="128" version="1.2" viewBox="0,0,128,128" width="128" xmlns="http://www.w3.org/2000/svg" xmlns:ev="http://www.w3.org/2001/xml-events" xmlns:xlink="http://www.w3.org/1999/xlink"><defs /><polyline fill="none" points="74.6305,63.3492 72.461,51.2 66.8203,43.8237 59.878,42.0881 39.4847,42.522 27.3356,47.2949 17.3559,55.539 10.4136,64.6508 8.678,84.1763 11.7153,94.5898 14.3186,98.4949 20.8271,107.6068 38.6169,114.5492 59.0102,119.322 77.2339,117.5864 85.9119,110.2102 92.8542,86.7797 91.5525,76.8 85.478,65.0847 72.461,53.3695 63.3492,48.1627" stroke="#00007f" stroke-width="2" /><polyline fill="none" points="24.7322,48.1627 24.7322,36.8814 26.0339,30.3729 27.7695,27.7695 30.8068,26.4678 33.4102,29.5051 37.7492,41.2203" stroke="#0000de" stroke-width="2" /><polyline fill="none" points="54.6712,37.7492 67.2542,18.2237 75.4983,10.8475 82.4407,8.678 83.7424,11.2814 83.7424,24.7322 79.8373,42.9559 76.3661,53.3695" stroke="#0028ff" stroke-width="2" /><polyline fill="none" points="36.8814,63.3492 33.8441,62.9153 32.5424,65.5186 32.9763,69.4237 38.1831,63.7831 36.8814,61.6136 32.9763,68.5559 35.1458,70.7254 38.6169,67.6881 39.4847,63.7831 36.8814,62.0475 35.5797,64.2169" stroke="#0080ff" stroke-width="2" /><polyline fill="none" points="59.0102,59.0102 56.4068,59.4441 55.9729,62.4814 55.9729,65.0847 58.5763,65.9525 58.5763,61.1797 55.1051,63.7831 57.7085,68.122 57.7085,62.0475 55.539,64.6508 57.2746,67.2542" stroke="#00d4ff" stroke-width="2" /><polyline fill="none" points="43.8237,85.9119 42.522,83.7424 42.522,88.5153 35.1458,96.7593 30.8068,98.4949" stroke="#36ffc0" stroke-width="2" /><polyline fill="none" points="42.522,79.8373 45.5593,94.5898 51.6339,100.6644 54.2373,101.5322" stroke="#7cff79" stroke-width="2" /><polyline fill="none" points="45.1254,87.2136 60.7458,85.478" stroke="#c0ff36" stroke-width="2" /><polyline fill="none" points="51.6339,88.0814 70.7254,91.1186" stroke="#ffe500" stroke-width="2" /><polyline fill="none" points="55.9729,92.8542 65.0847,92.8542 71.1593,95.4576" stroke="#ff9400" stroke-width="2" /><polyline fill="none" points="36.4475,82.0068 23.4305,81.139" stroke="#ff4600" stroke-width="2" /><polyline fill="none" points="44.2576,87.2136 40.3525,89.8169 30.8068,90.2508" stroke="#de0000" stroke-width="2" /><polyline fill="none" points="41.2203,90.2508 41.2203,90.2508" stroke="#7f0000" stroke-width="2" /></svg>