<?xml version="1.0" encoding="utf-8" ?>
<svg baseProfile="tiny" height="128" version="1.2" viewBox="0,0,128,128" width="128" xmlns="http://www.w3.org/2000/svg" xmlns:ev="http://www.w3.org/2001/xml-events" xmlns:xlink="http://www.w3.org/1999/xlink"><defs /><polyline fill="none" points="36.8814,27.7695 31.2407,11.2814 48.1627,22.1288 64.2169,19.5254 74.1966,20.3932 80.7051,12.5831 87.6475,8.678 89.3831,12.1492 90.6847,31.2407 97.6271,39.9186 100.6644,50.3322 99.7966,62.0475 93.722,70.2915 83.3085,79.4034 69.8576,85.0441 54.6712,85.0441 43.3898,79.4034 32.9763,70.2915 26.4678,58.5763 26.0339,49.0305 27.7695,39.4847 32.1085,32.1085 34.7119,29.939" stroke="#00007f" stroke-width="2" /><polyline fill="none" points="38.1831,59.0102 24.2983,55.9729 15.6203,59.0102 8.678,64.2169" stroke="#0000fe" stroke-width="2" /><polyline fill="none" points="40.7864,72.8949 22.1288,78.5356 17.3559,81.139 14.3186,85.0441" stroke="#0060ff" stroke-width="2" /><polyline fill="none" points="49.0305,75.9322 28.2034,91.9864 21.6949,99.7966 21.261,103.2678" stroke="#00d4ff" stroke-width="2" /><polyline fill="none" points="100.6644,48.5966 118.8881,55.9729" stroke="#4cffaa" stroke-width="2" /><polyline fill="none" points="91.1186,58.1424 116.2847,65.5186 119.322,68.5559" stroke="#aaff4c" stroke-width="2" /><polyline fill="none" points="87.2136,73.3288 111.078,88.9492" stroke="#ffe500" stroke-width="2" /><polyline fill="none" points="47.7288,38.6169 49.0305,44.6915" stroke="#ff7a00" stroke-width="2" /><polyline fill="none" points="70.2915,36.0136 72.0271,43.3898" stroke="#fe1200" stroke-width="2" /><polyline fill="none" points="49.8983,72.0271 54.2373,74.6305 61.6136,75.9322 76.8,69.8576" stroke="#7f0000" stroke-width="2" /></svg>