<?xml version="1.0" encoding="utf-8" ?>
<svg baseProfile="tiny" height="128" version="1.2" viewBox="0,0,128,128" width="128" xmlns="http://www.w3.org/2000/svg" xmlns:ev="http://www.w3.org/2001/xml-events" xmlns:xlink="http://www.w3.org/1999/xlink"><defs /><polyline fill="none" points="26.0339,23.4305 20.3932,29.0712 15.6203,38.1831 14.7525,51.6339 16.0542,56.4068 19.0915,58.5763 35.5797,59.878 40.7864,55.539 46.861,46.861 47.7288,28.2034 44.6915,20.3932 43.3898,17.7898 37.3153,16.0542 31.6746,16.0542 25.6,18.6576 18.2237,25.1661" stroke="#00007f" stroke-width="2" /><polyline fill="none" points="13.8847,33.8441 13.8847,22.9966 8.678,8.678 10.4136,12.1492 19.9593,21.261" stroke="#0080ff" stroke-width="2" /><polyline fill="none" points="44.6915,18.6576 53.8034,13.4508 62.0475,11.7153 62.9153,14.7525 57.2746,25.1661" stroke="#7cff79" stroke-width="2" /><polyline fill="none" points="57.7085,22.1288 54.6712,23.8644 45.9932,36.8814" stroke="#ff9400" stroke-width="2" /><polyline fill="none" points="29.0712,66.3864 27.3356,72.0271 29.5051,83.7424 38.1831,105.8712 43.3898,111.9458 50.7661,117.1525 59.878,119.322 71.1593,119.322" stroke="#7f0000" stroke-width="2" /></svg>