<?xml version="1.0" encoding="utf-8" ?>
<svg baseProfile="tiny" height="128" version="1.2" viewBox="0,0,128,128" width="128" xmlns="http://www.w3.org/2000/svg" xmlns:ev="http://www.w3.org/2001/xml-events" xmlns:xlink="http://www.w3.org/1999/xlink"><defs /><polyline fill="none" points="118.8881,19.9593 110.2102,21.6949 97.1932,29.0712 78.5356,44.2576 69.8576,54.2373 69.8576,66.8203 77.2339,83.3085 79.4034,85.478 83.7424,85.9119 92.8542,82.4407 102.4,72.461 109.3424,55.9729 108.9085,38.1831 105.4373,34.7119 101.0983,33.4102" stroke="#00007f" stroke-width="2" /><polyline fill="none" points="84.1763,48.5966 81.5729,59.4441 85.478,57.2746" stroke="#0000e8" stroke-width="2" /><polyline fill="none" points="102.4,48.1627 100.2305,53.3695 90.6847,56.8407" stroke="#0038ff" stroke-width="2" /><polyline fill="none" points="78.9695,59.878 78.9695,64.6508 81.139,69.4237 86.7797,75.9322 90.2508,75.0644 91.9864,72.0271 94.5898,74.1966 97.1932,72.461 103.7017,63.3492 102.4,61.6136" stroke="#0094ff" stroke-width="2" /><polyline fill="none" points="77.6678,42.0881 90.2508,23.4305 95.4576,8.678 97.6271,12.5831 98.9288,19.9593 99.3627,36.8814" stroke="#0cf4ea" stroke-width="2" /><polyline fill="none" points="119.322,20.3932 117.5864,28.2034 109.7763,37.7492" stroke="#56ffa0" stroke-width="2" /><polyline fill="none" points="102.4,30.8068 110.2102,25.6 109.3424,34.7119" stroke="#a0ff56" stroke-width="2" /><polyline fill="none" points="96.3254,27.3356 98.061,19.9593 88.0814,37.3153" stroke="#eaff0c" stroke-width="2" /><polyline fill="none" points="68.9898,65.0847 33.4102,74.1966 32.5424,76.8 33.8441,79.8373 37.7492,83.7424 44.2576,86.7797 48.1627,87.6475 57.7085,87.2136 67.6881,83.7424 76.8,76.8 79.4034,74.1966 73.3288,72.0271" stroke="#ffaa00" stroke-width="2" /><polyline fill="none" points="33.8441,72.0271 10.8475,29.5051 8.678,16.922 9.5458,12.5831 11.7153,9.9797 9.9797,35.1458 12.1492,44.6915 21.6949,68.9898 23.8644,71.5932 32.5424,73.3288" stroke="#ff5500" stroke-width="2" /><polyline fill="none" points="37.3153,82.0068 34.7119,102.4 36.8814,103.2678 40.7864,100.6644" stroke="#e80000" stroke-width="2" /><polyline fill="none" points="49.8983,90.6847 49.8983,90.6847" stroke="#7f0000" stroke-width="2" /></svg>