<?xml version="1.0" encoding="utf-8" ?>
<svg baseProfile="tiny" height="128" version="1.2" viewBox="0,0,128,128" width="128" xmlns="http://www.w3.org/2000/svg" xmlns:ev="http://www.w3.org/2001/xml-events" xmlns:xlink="http://www.w3.org/1999/xlink"><defs /><polyline fill="none" points="76.3661,32.9763 69.4237,33.8441 21.6949,55.9729 13.0169,65.9525 10.8475,77.6678 12.5831,87.6475 17.7898,98.4949 31.2407,108.9085 39.9186,112.3797 55.539,114.5492 78.5356,112.3797 96.3254,101.5322 110.6441,88.5153 112.8136,83.3085 114.1153,73.3288 112.8136,61.1797 106.3051,49.8983 95.0237,42.522 63.7831,40.3525 52.9356,43.8237" stroke="#00007f" stroke-width="2" /><polyline fill="none" points="8.678,66.3864 34.278,16.4881 38.1831,13.4508 41.6542,17.7898 47.7288,31.2407 55.9729,42.522" stroke="#0000ff" stroke-width="2" /><polyline fill="none" points="82.8746,42.522 87.2136,38.1831 98.061,15.1864 101.0983,10.8475 104.5695,8.678 112.8136,21.261 114.1153,31.2407 114.5492,53.3695 117.5864,63.7831 119.322,65.5186" stroke="#0080ff" stroke-width="2" /><polyline fill="none" points="54.2373,66.3864 55.9729,66.3864" stroke="#15ffe1" stroke-width="2" /><polyline fill="none" points="88.9492,62.4814 87.6475,64.2169" stroke="#7cff79" stroke-width="2" /><polyline fill="none" points="67.2542,81.139 68.122,80.7051" stroke="#e4ff12" stroke-width="2" /><polyline fill="none" points="60.3119,86.3458 32.9763,79.4034 20.8271,78.5356" stroke="#ff9400" stroke-width="2" /><polyline fill="none" points="56.8407,89.8169 42.9559,93.2881 26.9017,95.0237 17.3559,99.7966" stroke="#ff1d00" stroke-width="2" /><polyline fill="none" points="83.3085,84.1763 111.078,76.3661" stroke="#7f0000" stroke-width="2" /></svg>