<?xml version="1.0" encoding="utf-8" ?>
<svg baseProfile="tiny" height="128" version="1.2" viewBox="0,0,128,128" width="128" xmlns="http://www.w3.org/2000/svg" xmlns:ev="http://www.w3.org/2001/xml-events" xmlns:xlink="http://www.w3.org/1999/xlink"><defs /><polyline fill="none" points="50.5034,24.381 39.1837,23.0748 29.6054,26.9932 17.415,42.6667 11.7551,56.5986 9.5782,67.483 8.7075,90.9932 13.0612,105.3605 23.9456,114.9388 39.619,119.2925 57.4694,118.8571 69.6599,115.3741 79.6735,109.2789 87.0748,101.4422 92.7347,91.8639 94.0408,85.7687 94.4762,69.6599 89.2517,54.4218 78.3673,35.7007 74.8844,32.2177 66.1769,26.5578 56.1633,23.5102 40.0544,23.0748 25.2517,26.5578 23.0748,28.2993 23.5102,30.0408" stroke="#00007f" stroke-width="2" /><polyline fill="none" points="55.7279,27.4286 57.034,23.0748 63.1293,15.2381 69.2245,11.3197 75.7551,8.7075 77.0612,15.2381 73.5782,30.9116 74.449,37.0068" stroke="#0000d5" stroke-width="2" /><polyline fill="none" points="21.3333,33.5238 20.0272,31.3469 8.7075,24.8163 8.7075,33.5238 11.7551,46.585" stroke="#001cff" stroke-width="2" /><polyline fill="none" points="45.7143,75.3197 49.6327,64.0 51.3741,73.1429 54.4218,80.5442 48.7619,76.6259 43.5374,75.7551" stroke="#006cff" stroke-width="2" /><polyline fill="none" points="49.1973,77.932 50.5034,83.5918 49.6327,95.3469 43.102,98.8299 37.8776,97.9592 36.1361,95.7823 36.5714,93.6054 40.0544,91.4286" stroke="#00b8ff" stroke-width="2" /><polyline fill="none" points="52.2449,77.932 52.2449,87.0748 55.7279,91.8639 63.1293,92.2993 64.8707,86.2041 64.8707,84.0272 63.5646,83.5918" stroke="#1cffda" stroke-width="2" /><polyline fill="none" points="37.0068,48.3265 34.8299,46.585 32.6531,47.8912 31.7823,50.068 35.2653,53.551 36.5714,50.9388 34.8299,48.7619 33.5238,49.1973 33.9592,51.8095" stroke="#5cff9a" stroke-width="2" /><polyline fill="none" points="61.3878,46.585 59.2109,45.7143 58.7755,48.3265 59.2109,50.068 61.3878,50.9388 62.6939,48.3265 61.3878,45.7143 59.2109,45.2789 58.7755,47.4558 60.0816,47.8912" stroke="#9aff5c" stroke-width="2" /><polyline fill="none" points="60.0816,62.6939 66.6122,58.3401 83.5918,53.1156" stroke="#daff1c" stroke-width="2" /><polyline fill="none" points="57.4694,69.6599 77.4966,64.0 84.0272,62.6939 87.9456,62.6939 87.0748,63.5646" stroke="#ffcb00" stroke-width="2" /><polyline fill="none" points="60.0816,73.1429 86.2041,70.0952 98.8299,70.0952 99.2653,71.4014" stroke="#ff8500" stroke-width="2" /><polyline fill="none" points="44.4082,68.7891 36.5714,65.7415 25.2517,65.7415 21.7687,67.0476 20.4626,68.7891 22.2041,69.2245" stroke="#ff3b00" stroke-width="2" /><polyline fill="none" points="47.8912,69.2245 25.6871,70.5306 14.3673,74.449 8.7075,78.8027 9.5782,79.2381" stroke="#d50000" stroke-width="2" /><polyline fill="none" points="47.4558,71.8367 39.1837,72.7075 26.1224,79.2381 16.1088,86.6395 13.932,91.8639" stroke="#7f0000" stroke-width="2" /></svg>