<?xml version="1.0" encoding="utf-8" ?>
<svg baseProfile="tiny" height="128" version="1.2" viewBox="0,0,128,128" width="128" xmlns="http://www.w3.org/2000/svg" xmlns:ev="http://www.w3.org/2001/xml-events" xmlns:xlink="http://www.w3.org/1999/xlink"><defs /><polyline fill="none" points="23.8644,10.4136 24.7322,14.7525 26.9017,16.0542 31.6746,18.2237 36.0136,17.3559 38.1831,13.4508 32.1085,8.678 26.0339,9.1119 20.3932,13.0169" stroke="#00007f" stroke-width="2" /><polyline fill="none" points="12.1492,18.2237 8.678,24.7322 9.5458,26.4678 11.7153,26.9017 16.922,22.5627 17.7898,17.3559 14.3186,16.0542 9.1119,18.6576" stroke="#0000c3" stroke-width="2" /><polyline fill="none" points="23.8644,14.3186 21.6949,14.3186 18.6576,19.5254 16.922,28.2034 18.6576,33.8441 22.1288,35.1458 25.1661,34.278 31.6746,23.4305 30.8068,19.0915 29.0712,16.0542 26.0339,16.0542 23.4305,17.7898" stroke="#0000ff" stroke-width="2" /><polyline fill="none" points="22.1288,28.2034 19.0915,32.9763" stroke="#0034ff" stroke-width="2" /><polyline fill="none" points="28.2034,26.4678 33.4102,22.9966" stroke="#0070ff" stroke-width="2" /><polyline fill="none" points="24.2983,26.0339 33.8441,21.6949" stroke="#00acff" stroke-width="2" /><polyline fill="none" points="19.9593,26.9017 16.922,31.6746" stroke="#02e8f4" stroke-width="2" /><polyline fill="none" points="26.0339,29.939 27.7695,29.0712 26.4678,28.2034 26.0339,29.939" stroke="#32ffc3" stroke-width="2" /><polyline fill="none" points="21.261,22.5627 22.5627,22.1288 22.5627,20.3932" stroke="#63ff93" stroke-width="2" /><polyline fill="none" points="28.6373,19.0915 30.3729,19.0915" stroke="#93ff63" stroke-width="2" /><polyline fill="none" points="30.3729,29.5051 61.1797,20.8271 73.3288,19.5254" stroke="#c3ff32" stroke-width="2" /><polyline fill="none" points="72.0271,19.0915 80.2712,22.1288 85.0441,26.4678 96.7593,30.3729" stroke="#f4f802" stroke-width="2" /><polyline fill="none" points="98.4949,29.0712 102.8339,22.9966 111.5119,20.3932 118.4542,22.9966 119.322,25.6 118.4542,27.7695 117.1525,29.0712 103.2678,29.5051" stroke="#ffc000" stroke-width="2" /><polyline fill="none" points="101.5322,29.0712 101.0983,31.6746" stroke="#ff8900" stroke-width="2" /><polyline fill="none" points="98.061,31.2407 98.061,32.1085" stroke="#ff5100" stroke-width="2" /><polyline fill="none" points="37.7492,28.2034 36.0136,28.6373 33.8441,40.3525 34.7119,43.8237 36.4475,45.1254 41.6542,44.2576 42.9559,42.522 43.8237,29.5051 45.5593,28.2034" stroke="#ff1a00" stroke-width="2" /><polyline fill="none" points="77.6678,20.3932 74.6305,29.0712 77.6678,38.6169 83.3085,32.1085 84.1763,22.9966" stroke="#c30000" stroke-width="2" /><polyline fill="none" points="46.861,29.0712 52.5017,26.9017" stroke="#7f0000" stroke-width="2" /></svg>