<?xml version="1.0" encoding="utf-8" ?>
<svg baseProfile="tiny" height="128" version="1.2" viewBox="0,0,128,128" width="128" xmlns="http://www.w3.org/2000/svg" xmlns:ev="http://www.w3.org/2001/xml-events" xmlns:xlink="http://www.w3.org/1999/xlink"><defs /><polyline fill="none" points="32.1085,39.0508 25.1661,36.8814 22.1288,28.6373 17.7898,24.2983 8.678,23.8644" stroke="#00007f" stroke-width="2" /><polyline fill="none" points="32.1085,39.0508 39.4847,37.7492" stroke="#0000cc" stroke-width="2" /><polyline fill="none" points="39.9186,38.1831 39.9186,32.9763 42.9559,29.5051 47.7288,26.4678 54.6712,24.2983 72.0271,24.7322 85.0441,27.7695 87.2136,30.8068 87.2136,34.278 85.9119,36.0136 75.9322,41.2203 59.4441,42.522 50.7661,42.522 42.0881,38.1831" stroke="#0008ff" stroke-width="2" /><polyline fill="none" points="42.9559,39.0508 42.522,47.7288 44.2576,49.0305 47.2949,46.861" stroke="#004cff" stroke-width="2" /><polyline fill="none" points="77.6678,41.2203 73.7627,43.8237 74.1966,45.5593 78.1017,47.7288 81.5729,46.861" stroke="#0090ff" stroke-width="2" /><polyline fill="none" points="85.478,28.2034 88.5153,21.6949 98.061,17.7898 108.9085,17.7898 111.9458,20.3932 113.6814,24.7322 114.1153,29.939 112.3797,32.5424 103.2678,36.4475 97.1932,36.4475 85.9119,31.6746" stroke="#00d4ff" stroke-width="2" /><polyline fill="none" points="88.9492,19.5254 85.478,8.678 91.9864,15.6203" stroke="#29ffcd" stroke-width="2" /><polyline fill="none" points="98.061,15.6203 98.061,9.9797 103.7017,16.922" stroke="#5fff96" stroke-width="2" /><polyline fill="none" points="105.0034,21.261 105.0034,24.7322 107.6068,25.6 108.0407,24.2983 108.0407,22.5627 105.0034,22.1288" stroke="#96ff5f" stroke-width="2" /><polyline fill="none" points="112.3797,27.7695 117.1525,18.6576" stroke="#cdff29" stroke-width="2" /><polyline fill="none" points="113.2475,26.0339 112.8136,28.6373 118.4542,36.4475" stroke="#ffe500" stroke-width="2" /><polyline fill="none" points="113.2475,27.7695 119.322,26.9017" stroke="#ffa600" stroke-width="2" /><polyline fill="none" points="111.9458,29.939 111.078,37.7492" stroke="#ff6700" stroke-width="2" /><polyline fill="none" points="101.5322,29.5051 105.4373,31.6746 108.4746,31.6746" stroke="#ff2800" stroke-width="2" /><polyline fill="none" points="43.8237,64.2169 41.2203,70.7254 42.522,75.9322 47.7288,78.5356 52.0678,78.5356 53.8034,76.3661" stroke="#cc0000" stroke-width="2" /><polyline fill="none" points="56.4068,71.1593 54.6712,79.4034 57.2746,82.4407 62.4814,83.3085 65.0847,79.4034 65.5186,75.4983 61.6136,72.461 55.1051,70.2915" stroke="#7f0000" stroke-width="2" /></svg>