<?xml version="1.0" encoding="utf-8" ?>
<svg baseProfile="tiny" height="128" version="1.2" viewBox="0,0,128,128" width="128" xmlns="http://www.w3.org/2000/svg" xmlns:ev="http://www.w3.org/2001/xml-events" xmlns:xlink="http://www.w3.org/1999/xlink"><defs /><polyline fill="none" points="88.8163,33.5238 106.2313,22.2041 119.2925,16.5442 118.4218,24.8163 111.0204,47.4558" stroke="#00007f" stroke-width="2" /><polyline fill="none" points="90.1224,33.0884 70.966,32.6531 56.5986,35.2653 39.619,21.7687 26.5578,16.9796 13.4966,9.5782 8.7075,8.7075 12.6259,15.6735 19.1565,41.3605 28.7347,53.551 28.7347,73.1429 47.8912,88.8163 63.5646,94.4762 81.8503,94.9116 90.9932,91.8639 108.8435,81.8503 113.6327,76.1905 118.8571,60.9524 118.8571,50.9388 114.5034,44.8435" stroke="#0000fe" stroke-width="2" /><polyline fill="none" points="69.6599,71.8367 67.9184,72.7075 67.9184,70.5306 74.0136,65.7415 70.966,70.5306 68.7891,71.4014 68.3537,70.0952 72.2721,67.9184" stroke="#0060ff" stroke-width="2" /><polyline fill="none" points="59.2109,66.6122 44.4082,60.517" stroke="#00d4ff" stroke-width="2" /><polyline fill="none" points="57.034,67.483 45.7143,67.483" stroke="#4cffaa" stroke-width="2" /><polyline fill="none" points="54.8571,71.8367 44.8435,75.7551" stroke="#aaff4c" stroke-width="2" /><polyline fill="none" points="85.3333,61.8231 97.0884,59.6463" stroke="#ffe500" stroke-width="2" /><polyline fill="none" points="96.6531,66.6122 98.8299,66.6122" stroke="#ff7a00" stroke-width="2" /><polyline fill="none" points="77.0612,73.5782 86.6395,74.8844 98.8299,78.8027" stroke="#fe1200" stroke-width="2" /><polyline fill="none" points="67.483,84.898 66.6122,86.2041 68.7891,87.5102 71.8367,87.0748 72.2721,85.7687" stroke="#7f0000" stroke-width="2" /></svg>