<?xml version="1.0" encoding="utf-8" ?>
<svg baseProfile="tiny" height="128" version="1.2" viewBox="0,0,128,128" width="128" xmlns="http://www.w3.org/2000/svg" xmlns:ev="http://www.w3.org/2001/xml-events" xmlns:xlink="http://www.w3.org/1999/xlink"><defs /><polyline fill="none" points="11.7153,13.0169 19.9593,49.4644" stroke="#00007f" stroke-width="2" /><polyline fill="none" points="13.4508,12.5831 49.8983,53.3695 54.2373,44.2576 67.2542,31.6746 80.7051,12.1492 84.1763,8.678 84.6102,10.8475 82.8746,61.6136 83.3085,64.2169 90.2508,69.4237 94.5898,75.9322 96.7593,89.8169 94.5898,97.1932 91.5525,101.9661 80.7051,113.2475 65.5186,118.4542 49.0305,119.322 33.8441,114.1153 12.1492,98.9288 9.1119,91.1186 8.678,82.4407 12.5831,65.9525 16.922,52.9356 19.5254,49.4644" stroke="#0000ff" stroke-width="2" /><polyline fill="none" points="30.3729,78.5356 33.4102,75.0644 34.278,76.8 32.1085,78.1017 30.3729,75.9322 31.2407,75.0644 33.4102,76.3661 32.1085,78.5356 33.4102,76.8" stroke="#0080ff" stroke-width="2" /><polyline fill="none" points="59.4441,79.4034 59.4441,78.1017 62.4814,76.8 65.5186,78.1017 65.5186,79.8373 61.1797,81.139 59.878,79.8373 60.7458,77.2339 62.0475,76.3661 63.3492,77.2339 62.0475,78.5356 60.7458,76.3661" stroke="#15ffe1" stroke-width="2" /><polyline fill="none" points="47.7288,94.1559 46.4271,91.9864 47.7288,91.5525 47.2949,92.8542 46.4271,91.9864 46.861,93.2881" stroke="#7cff79" stroke-width="2" /><polyline fill="none" points="36.0136,104.1356 49.4644,105.4373 56.8407,104.5695" stroke="#e4ff12" stroke-width="2" /><polyline fill="none" points="45.1254,90.6847 24.7322,85.9119" stroke="#ff9400" stroke-width="2" /><polyline fill="none" points="46.861,92.8542 30.3729,93.722" stroke="#ff1d00" stroke-width="2" /><polyline fill="none" points="45.1254,93.722 37.7492,95.4576" stroke="#7f0000" stroke-width="2" /></svg>