<?xml version="1.0" encoding="utf-8" ?>
<svg baseProfile="tiny" height="128" version="1.2" viewBox="0,0,128,128" width="128" xmlns="http://www.w3.org/2000/svg" xmlns:ev="http://www.w3.org/2001/xml-events" xmlns:xlink="http://www.w3.org/1999/xlink"><defs /><polyline fill="none" points="33.8441,31.2407 49.4644,22.9966 53.8034,22.1288 60.3119,25.1661 74.1966,36.0136 76.8,36.8814 109.7763,15.6203 111.9458,19.0915 112.3797,48.5966 108.0407,57.2746 104.1356,59.4441 95.0237,60.7458 93.722,64.2169 95.0237,87.2136 84.6102,98.9288 68.9898,106.739 61.6136,108.4746 52.5017,106.739 42.9559,98.4949 35.5797,90.2508 32.9763,81.139 33.4102,53.8034 29.939,52.9356 26.0339,49.0305 18.2237,38.1831 15.1864,33.4102 11.7153,16.922 8.678,10.4136 14.3186,8.678 25.1661,16.4881 30.8068,21.261 43.3898,36.0136" stroke="#00007f" stroke-width="2" /><polyline fill="none" points="49.0305,68.122 37.3153,71.1593 12.5831,84.6102" stroke="#004cff" stroke-width="2" /><polyline fill="none" points="55.1051,84.1763 44.6915,84.6102 35.1458,88.9492 26.4678,94.1559 19.0915,101.5322" stroke="#29ffcd" stroke-width="2" /><polyline fill="none" points="54.6712,94.5898 51.6339,97.1932 39.0508,115.4169" stroke="#cdff29" stroke-width="2" /><polyline fill="none" points="91.1186,66.8203 105.0034,70.7254 119.322,72.0271" stroke="#ff6700" stroke-width="2" /><polyline fill="none" points="74.1966,83.3085 95.8915,91.1186" stroke="#7f0000" stroke-width="2" /></svg>