<?xml version="1.0" encoding="utf-8" ?>
<svg baseProfile="tiny" height="128" version="1.2" viewBox="0,0,128,128" width="128" xmlns="http://www.w3.org/2000/svg" xmlns:ev="http://www.w3.org/2001/xml-events" xmlns:xlink="http://www.w3.org/1999/xlink"><defs /><polyline fill="none" points="30.8068,29.5051 21.6949,32.5424 16.0542,38.6169 11.7153,47.2949 12.5831,56.4068 23.4305,68.9898 30.8068,72.461 39.0508,75.0644 51.6339,75.9322 55.539,75.0644 59.4441,73.3288 62.9153,69.8576 68.9898,59.878 71.1593,47.7288 69.8576,38.6169 63.7831,31.6746 49.0305,23.4305 39.4847,22.9966 35.1458,24.2983 27.7695,27.3356 24.2983,32.1085" stroke="#00007f" stroke-width="2" /><polyline fill="none" points="40.7864,47.7288 39.0508,52.9356 42.0881,52.5017 42.9559,50.7661" stroke="#0000d5" stroke-width="2" /><polyline fill="none" points="42.522,53.3695 41.6542,63.3492 38.6169,65.9525 32.5424,65.9525 41.2203,69.4237 49.8983,69.8576 56.8407,68.122 60.7458,65.5186" stroke="#001cff" stroke-width="2" /><polyline fill="none" points="57.2746,53.3695 69.4237,47.7288" stroke="#006cff" stroke-width="2" /><polyline fill="none" points="61.1797,57.2746 68.9898,56.8407" stroke="#00b8ff" stroke-width="2" /><polyline fill="none" points="18.6576,45.5593 26.0339,47.2949" stroke="#1cffda" stroke-width="2" /><polyline fill="none" points="16.0542,53.8034 20.8271,55.9729 25.6,55.1051" stroke="#5cff9a" stroke-width="2" /><polyline fill="none" points="62.4814,25.1661 67.6881,8.678 70.7254,21.6949 70.2915,38.6169" stroke="#9aff5c" stroke-width="2" /><polyline fill="none" points="61.6136,30.8068 61.6136,30.8068" stroke="#daff1c" stroke-width="2" /><polyline fill="none" points="16.0542,39.9186 12.5831,35.5797 8.678,23.4305 14.7525,24.2983 27.3356,31.2407" stroke="#ffcb00" stroke-width="2" /><polyline fill="none" points="32.1085,36.0136 36.0136,39.0508" stroke="#ff8500" stroke-width="2" /><polyline fill="none" points="51.6339,32.9763 57.2746,37.3153" stroke="#ff3b00" stroke-width="2" /><polyline fill="none" points="65.9525,65.9525 91.5525,65.9525 107.6068,64.2169 114.5492,67.2542 119.322,73.7627 114.1153,86.7797 108.4746,98.061 101.0983,105.4373 92.8542,108.9085 76.3661,108.9085 38.6169,102.4 35.5797,92.8542 35.1458,72.8949" stroke="#d50000" stroke-width="2" /><polyline fill="none" points="47.2949,97.6271 43.8237,102.4" stroke="#7f0000" stroke-width="2" /></svg>