<?xml version="1.0" encoding="utf-8" ?>
<svg baseProfile="tiny" height="128" version="1.2" viewBox="0,0,128,128" width="128" xmlns="http://www.w3.org/2000/svg" xmlns:ev="http://www.w3.org/2001/xml-events" xmlns:xlink="http://www.w3.org/1999/xlink"><defs /><polyline fill="none" points="45.2789,23.0748 43.9728,20.4626 39.619,20.0272 33.0884,25.2517 29.6054,30.9116 27.8639,43.5374 29.6054,53.1156 32.2177,57.4694 41.3605,64.8707 47.4558,66.6122 55.2925,64.0 59.6463,59.6463 62.2585,51.8095 62.6939,40.9252 60.517,33.9592 50.5034,21.3333 44.4082,20.898 37.8776,24.381" stroke="#00007f" stroke-width="2" /><polyline fill="none" points="37.4422,62.2585 39.619,82.2857 37.0068,96.2177 42.2313,112.7619 46.1497,117.551 49.1973,119.2925 55.7279,119.2925 63.5646,115.3741 67.9184,109.7143 70.966,101.8776 71.8367,93.6054 69.6599,85.3333 64.4354,76.1905 57.9048,69.6599" stroke="#0000f1" stroke-width="2" /><polyline fill="none" points="34.8299,22.2041 34.3946,14.8027 36.5714,8.7075 37.8776,9.5782 41.7959,18.2857 43.102,19.1565" stroke="#004cff" stroke-width="2" /><polyline fill="none" points="51.8095,23.0748 52.2449,20.0272 58.7755,11.3197 60.0816,13.932 58.3401,26.9932" stroke="#00b0ff" stroke-width="2" /><polyline fill="none" points="71.4014,107.5374 75.3197,109.2789 79.6735,108.4082 83.5918,104.4898 88.8163,95.3469 94.4762,94.0408" stroke="#29ffcd" stroke-width="2" /><polyline fill="none" points="51.3741,46.585 72.2721,36.1361" stroke="#7cff79" stroke-width="2" /><polyline fill="none" points="55.2925,52.2449 61.3878,48.7619 74.8844,46.585" stroke="#cdff29" stroke-width="2" /><polyline fill="none" points="53.9864,58.7755 62.6939,57.4694 74.449,61.3878" stroke="#ffc400" stroke-width="2" /><polyline fill="none" points="36.1361,49.6327 26.1224,48.7619 8.7075,54.4218" stroke="#ff6700" stroke-width="2" /><polyline fill="none" points="37.0068,53.551 28.7347,54.8571 14.3673,65.3061" stroke="#f10700" stroke-width="2" /><polyline fill="none" points="43.5374,57.034 26.9932,68.7891 17.415,79.2381" stroke="#7f0000" stroke-width="2" /></svg>