<?xml version="1.0" encoding="utf-8" ?>
<svg baseProfile="tiny" height="128" version="1.2" viewBox="0,0,128,128" width="128" xmlns="http://www.w3.org/2000/svg" xmlns:ev="http://www.w3.org/2001/xml-events" xmlns:xlink="http://www.w3.org/1999/xlink"><defs /><polyline fill="none" points="91.9864,58.1424 78.5356,36.8814 69.8576,27.7695 48.1627,31.6746 23.4305,48.1627 13.0169,60.7458 8.678,72.0271 11.7153,98.4949 24.2983,115.8508 28.2034,118.0203 37.7492,119.322 64.2169,111.078 80.2712,100.6644 84.6102,95.0237 90.6847,75.9322 98.4949,59.4441 97.6271,49.0305 87.2136,35.5797" stroke="#00007f" stroke-width="2" /><polyline fill="none" points="9.9797,57.2746 15.1864,50.3322 17.7898,40.3525 19.5254,11.7153 21.261,8.678 27.3356,10.8475 30.8068,16.0542 35.1458,31.2407 36.0136,44.2576" stroke="#0000ff" stroke-width="2" /><polyline fill="none" points="71.1593,28.6373 72.0271,25.1661 82.8746,18.2237 89.3831,9.1119 90.6847,11.7153 93.2881,27.7695 92.8542,57.7085" stroke="#0080ff" stroke-width="2" /><polyline fill="none" points="32.1085,69.8576 32.1085,59.0102 34.278,58.1424 33.4102,59.4441" stroke="#15ffe1" stroke-width="2" /><polyline fill="none" points="66.3864,59.0102 65.0847,65.5186 68.122,64.6508 70.2915,62.9153 72.461,58.5763 72.461,50.7661 70.2915,51.6339 66.3864,57.7085 68.122,56.8407" stroke="#7cff79" stroke-width="2" /><polyline fill="none" points="46.4271,71.1593 40.3525,79.4034 39.4847,83.3085 57.2746,82.4407 56.4068,71.1593 52.5017,63.7831 50.3322,63.3492" stroke="#e4ff12" stroke-width="2" /><polyline fill="none" points="47.2949,85.478 37.7492,94.1559 31.2407,108.9085 29.0712,110.6441 21.261,111.078" stroke="#ff9400" stroke-width="2" /><polyline fill="none" points="48.1627,81.5729 58.5763,96.3254 69.4237,96.7593" stroke="#ff1d00" stroke-width="2" /><polyline fill="none" points="47.2949,87.6475 47.2949,99.3627 43.3898,104.1356 39.4847,104.5695 28.2034,96.7593 21.261,85.0441 25.6,99.7966 30.3729,107.1729 32.5424,108.0407 40.3525,101.9661 43.3898,98.061 46.4271,89.8169 46.861,82.8746 49.0305,88.5153 52.9356,92.8542 62.0475,98.4949 67.2542,98.4949 72.0271,95.0237 75.0644,86.3458 70.7254,98.061 63.7831,107.1729 55.9729,107.6068 51.6339,102.8339" stroke="#7f0000" stroke-width="2" /></svg>