<?xml version="1.0" encoding="utf-8" ?>
<svg baseProfile="tiny" height="128" version="1.2" viewBox="0,0,128,128" width="128" xmlns="http://www.w3.org/2000/svg" xmlns:ev="http://www.w3.org/2001/xml-events" xmlns:xlink="http://www.w3.org/1999/xlink"><defs /><polyline fill="none" points="77.6678,24.2983 71.1593,23.8644 62.0475,28.2034 49.8983,38.1831 43.8237,49.8983 41.6542,60.7458 42.0881,77.6678 45.9932,85.478 55.9729,91.1186 72.0271,92.4203 81.5729,86.3458 87.6475,75.9322 90.6847,64.6508 91.1186,50.3322 86.7797,28.6373 79.4034,23.4305" stroke="#00007f" stroke-width="2" /><polyline fill="none" points="86.3458,32.5424 93.722,14.7525 102.4,9.5458 106.3051,8.678 107.6068,11.2814 107.6068,20.3932 105.4373,29.939 100.2305,40.3525 92.8542,49.0305" stroke="#0000e8" stroke-width="2" /><polyline fill="none" points="56.8407,32.5424 57.2746,12.1492 55.9729,10.4136 53.8034,9.1119 49.4644,9.5458 43.8237,13.8847 40.7864,26.0339 41.2203,40.7864 43.8237,47.2949" stroke="#0038ff" stroke-width="2" /><polyline fill="none" points="66.3864,35.1458 62.4814,39.9186 61.6136,45.9932 62.9153,48.5966 65.5186,46.861 67.6881,41.6542 66.3864,39.0508" stroke="#0094ff" stroke-width="2" /><polyline fill="none" points="82.8746,38.6169 79.8373,41.6542 77.6678,46.4271 81.139,47.7288 82.0068,43.3898 80.7051,41.2203" stroke="#0cf4ea" stroke-width="2" /><polyline fill="none" points="66.3864,55.9729 65.9525,72.461 70.2915,75.9322" stroke="#56ffa0" stroke-width="2" /><polyline fill="none" points="66.3864,59.0102 75.4983,62.9153 88.0814,63.7831 97.6271,58.1424 105.0034,50.3322" stroke="#a0ff56" stroke-width="2" /><polyline fill="none" points="66.8203,59.0102 89.3831,69.8576 101.9661,72.8949 113.2475,72.8949 119.322,68.9898" stroke="#eaff0c" stroke-width="2" /><polyline fill="none" points="64.6508,62.0475 81.139,77.6678 86.7797,81.139 102.8339,83.3085" stroke="#ffaa00" stroke-width="2" /><polyline fill="none" points="65.0847,54.6712 62.9153,55.9729 37.7492,55.1051 13.4508,46.4271" stroke="#ff5500" stroke-width="2" /><polyline fill="none" points="55.1051,55.539 53.3695,57.7085 46.4271,61.1797 8.678,68.122" stroke="#e80000" stroke-width="2" /><polyline fill="none" points="62.9153,53.3695 36.4475,75.9322 25.1661,83.7424 21.261,88.0814" stroke="#7f0000" stroke-width="2" /></svg>