<?xml version="1.0" encoding="utf-8" ?>
<svg baseProfile="tiny" height="128" version="1.2" viewBox="0,0,128,128" width="128" xmlns="http://www.w3.org/2000/svg" xmlns:ev="http://www.w3.org/2001/xml-events" xmlns:xlink="http://www.w3.org/1999/xlink"><defs /><polyline fill="none" points="68.5559,22.5627 45.9932,30.3729 35.5797,37.7492 28.2034,47.7288 26.4678,56.4068 28.6373,72.8949 36.4475,86.7797 47.2949,94.1559 64.2169,93.2881 76.3661,88.9492 86.7797,79.4034 96.7593,59.4441 97.6271,43.8237 96.3254,35.5797 88.0814,30.3729 78.9695,26.4678 59.878,25.1661" stroke="#00007f" stroke-width="2" /><polyline fill="none" points="39.9186,38.1831 36.4475,34.7119 35.1458,30.8068 32.1085,18.6576 32.9763,8.678 38.6169,10.4136 46.4271,17.3559 54.6712,28.6373 58.1424,31.2407" stroke="#0000fe" stroke-width="2" /><polyline fill="none" points="89.3831,29.5051 119.322,13.8847 116.2847,22.1288 108.4746,31.6746 92.8542,42.9559" stroke="#0060ff" stroke-width="2" /><polyline fill="none" points="63.7831,56.8407 61.1797,56.8407" stroke="#00d4ff" stroke-width="2" /><polyline fill="none" points="50.3322,42.0881 50.3322,41.2203" stroke="#4cffaa" stroke-width="2" /><polyline fill="none" points="81.5729,40.3525 81.5729,40.3525" stroke="#aaff4c" stroke-width="2" /><polyline fill="none" points="74.1966,41.2203 74.6305,42.0881" stroke="#ffe500" stroke-width="2" /><polyline fill="none" points="58.1424,59.4441 19.0915,45.9932 8.678,46.4271" stroke="#ff7a00" stroke-width="2" /><polyline fill="none" points="56.4068,62.0475 14.3186,78.5356" stroke="#fe1200" stroke-width="2" /><polyline fill="none" points="62.4814,64.2169 50.3322,76.3661 38.1831,91.9864 34.278,94.5898" stroke="#7f0000" stroke-width="2" /></svg>