<?xml version="1.0" encoding="utf-8" ?>
<svg baseProfile="tiny" height="128" version="1.2" viewBox="0,0,128,128" width="128" xmlns="http://www.w3.org/2000/svg" xmlns:ev="http://www.w3.org/2001/xml-events" xmlns:xlink="http://www.w3.org/1999/xlink"><defs /><polyline fill="none" points="32.1085,32.9763 36.8814,13.4508 39.0508,8.678 41.6542,10.4136 47.7288,20.8271 49.4644,21.6949" stroke="#00007f" stroke-width="2" /><polyline fill="none" points="87.6475,26.4678 93.2881,13.8847 98.061,11.2814 99.3627,13.8847 102.4,30.8068" stroke="#0000ff" stroke-width="2" /><polyline fill="none" points="63.3492,64.2169 60.7458,62.4814 58.5763,56.8407 70.7254,54.6712 69.4237,59.878 66.3864,62.0475" stroke="#0080ff" stroke-width="2" /><polyline fill="none" points="64.2169,65.9525 62.4814,72.0271 59.4441,74.1966 46.4271,78.9695" stroke="#15ffe1" stroke-width="2" /><polyline fill="none" points="66.3864,68.122 68.5559,75.4983 72.0271,79.8373 79.8373,82.4407 85.9119,82.0068" stroke="#7cff79" stroke-width="2" /><polyline fill="none" points="90.2508,56.8407 119.322,55.1051" stroke="#e4ff12" stroke-width="2" /><polyline fill="none" points="89.8169,70.2915 118.4542,72.0271" stroke="#ff9400" stroke-width="2" /><polyline fill="none" points="39.4847,59.4441 30.8068,58.5763 26.0339,56.4068 20.8271,52.5017 13.4508,42.0881" stroke="#ff1d00" stroke-width="2" /><polyline fill="none" points="32.1085,65.9525 18.2237,66.8203 8.678,68.9898" stroke="#7f0000" stroke-width="2" /></svg>