<?xml version="1.0" encoding="utf-8" ?>
<svg baseProfile="tiny" height="128" version="1.2" viewBox="0,0,128,128" width="128" xmlns="http://www.w3.org/2000/svg" xmlns:ev="http://www.w3.org/2001/xml-events" xmlns:xlink="http://www.w3.org/1999/xlink"><defs /><polyline fill="none" points="29.939,37.7492 29.5051,33.8441 32.5424,18.2237 36.0136,8.678 43.8237,16.922 55.539,39.9186 75.9322,44.6915 95.4576,23.8644 101.0983,22.5627 105.4373,49.0305 105.0034,61.1797 101.9661,73.7627 95.4576,87.2136 84.6102,98.4949 64.2169,104.1356 47.7288,98.9288 36.0136,84.6102 30.8068,73.3288 28.6373,62.0475 29.5051,55.1051 38.6169,40.7864" stroke="#00007f" stroke-width="2" /><polyline fill="none" points="53.8034,67.2542 68.122,67.2542 71.5932,70.2915 66.8203,75.0644 62.0475,76.3661 55.1051,71.1593" stroke="#004cff" stroke-width="2" /><polyline fill="none" points="74.6305,70.7254 119.322,62.9153" stroke="#29ffcd" stroke-width="2" /><polyline fill="none" points="72.461,73.3288 113.2475,82.8746 118.8881,85.9119" stroke="#cdff29" stroke-width="2" /><polyline fill="none" points="59.878,75.0644 28.2034,59.4441 8.678,61.6136" stroke="#ff6700" stroke-width="2" /><polyline fill="none" points="58.1424,77.6678 49.4644,78.5356 43.8237,80.7051 18.2237,96.7593" stroke="#7f0000" stroke-width="2" /></svg>