<?xml version="1.0" encoding="utf-8" ?>
<svg baseProfile="tiny" height="128" version="1.2" viewBox="0,0,128,128" width="128" xmlns="http://www.w3.org/2000/svg" xmlns:ev="http://www.w3.org/2001/xml-events" xmlns:xlink="http://www.w3.org/1999/xlink"><defs /><polyline fill="none" points="8.678,59.4441 18.2237,47.2949 23.4305,35.5797 32.1085,26.0339 38.1831,30.8068 45.9932,40.3525 50.7661,49.4644 50.3322,66.3864 46.861,73.3288 36.4475,83.3085 27.7695,83.3085 20.3932,72.461 18.6576,67.2542 18.6576,55.9729 20.3932,48.1627 25.6,35.5797" stroke="#00007f" stroke-width="2" /><polyline fill="none" points="75.0644,50.7661 58.5763,50.7661" stroke="#0010ff" stroke-width="2" /><polyline fill="none" points="32.9763,52.5017 49.8983,49.4644 91.9864,49.8983 108.0407,52.0678 110.2102,53.3695 114.9831,62.4814 119.322,73.7627 116.7186,79.8373 105.4373,84.6102 88.0814,87.6475 66.8203,87.6475 47.2949,84.1763 47.7288,68.9898 50.7661,62.9153 54.6712,62.0475" stroke="#00a4ff" stroke-width="2" /><polyline fill="none" points="17.7898,31.6746 19.0915,35.1458 19.5254,31.6746 17.3559,26.0339 15.6203,14.7525 18.2237,16.4881 29.0712,29.939" stroke="#3fffb7" stroke-width="2" /><polyline fill="none" points="29.939,29.939 29.939,29.0712" stroke="#b7ff3f" stroke-width="2" /><polyline fill="none" points="34.7119,26.4678 44.6915,16.0542 62.0475,8.678 62.9153,12.1492 60.7458,17.7898 52.9356,26.9017 48.5966,35.1458" stroke="#ffb900" stroke-width="2" /><polyline fill="none" points="49.8983,89.3831 52.5017,89.3831" stroke="#ff3000" stroke-width="2" /><polyline fill="none" points="53.3695,89.8169 54.6712,113.6814" stroke="#7f0000" stroke-width="2" /></svg>