<?xml version="1.0" encoding="utf-8" ?>
<svg baseProfile="tiny" height="128" version="1.2" viewBox="0,0,128,128" width="128" xmlns="http://www.w3.org/2000/svg" xmlns:ev="http://www.w3.org/2001/xml-events" xmlns:xlink="http://www.w3.org/1999/xlink"><defs /><polyline fill="none" points="72.0271,43.3898 50.7661,42.9559 35.1458,44.6915 24.2983,55.9729 17.7898,69.4237 19.5254,80.2712 22.5627,84.6102 27.3356,88.5153 29.5051,88.0814 33.4102,82.8746 38.1831,64.6508 65.9525,62.4814 66.8203,75.0644 69.4237,84.1763 72.8949,88.0814 75.4983,87.6475 79.8373,82.4407 82.8746,73.7627 86.7797,53.8034 106.3051,51.2 111.5119,49.4644 115.8508,44.6915 117.1525,36.4475 113.2475,29.0712 109.3424,25.1661 102.8339,22.9966 91.5525,24.7322 76.3661,31.2407 74.1966,32.9763 74.6305,34.278" stroke="#00007f" stroke-width="2" /><polyline fill="none" points="72.0271,32.9763 72.0271,41.2203" stroke="#0000d5" stroke-width="2" /><polyline fill="none" points="92.8542,24.7322 93.722,11.2814 94.1559,9.1119 96.7593,8.678 101.0983,15.1864 105.8712,26.4678" stroke="#001cff" stroke-width="2" /><polyline fill="none" points="100.6644,32.9763 100.6644,32.9763" stroke="#006cff" stroke-width="2" /><polyline fill="none" points="102.8339,32.5424 102.8339,32.5424" stroke="#00b8ff" stroke-width="2" /><polyline fill="none" points="109.7763,42.0881 101.0983,39.9186" stroke="#1cffda" stroke-width="2" /><polyline fill="none" points="102.8339,30.8068 119.322,32.5424" stroke="#5cff9a" stroke-width="2" /><polyline fill="none" points="98.061,51.2 99.7966,52.0678" stroke="#9aff5c" stroke-width="2" /><polyline fill="none" points="102.4,42.9559 106.739,45.5593" stroke="#daff1c" stroke-width="2" /><polyline fill="none" points="88.5153,40.3525 98.061,46.4271" stroke="#ffcb00" stroke-width="2" /><polyline fill="none" points="94.1559,43.3898 100.2305,45.9932" stroke="#ff8500" stroke-width="2" /><polyline fill="none" points="99.3627,35.5797 104.5695,40.7864" stroke="#ff3b00" stroke-width="2" /><polyline fill="none" points="101.5322,36.8814 102.8339,39.0508" stroke="#d50000" stroke-width="2" /><polyline fill="none" points="29.0712,48.5966 16.0542,39.0508 8.678,29.939 31.2407,56.8407" stroke="#7f0000" stroke-width="2" /></svg>