<?xml version="1.0" encoding="utf-8" ?>
<svg baseProfile="tiny" height="128" version="1.2" viewBox="0,0,128,128" width="128" xmlns="http://www.w3.org/2000/svg" xmlns:ev="http://www.w3.org/2001/xml-events" xmlns:xlink="http://www.w3.org/1999/xlink"><defs /><polyline fill="none" points="106.739,48.5966 101.9661,45.1254 86.7797,42.0881 69.8576,41.6542 58.5763,42.9559 42.9559,49.0305 27.7695,60.3119 20.8271,69.4237 18.2237,78.5356 17.7898,89.8169 18.6576,95.4576 20.8271,100.6644 29.0712,110.6441 33.4102,113.2475 46.4271,118.0203 64.2169,119.322 73.3288,118.0203 90.2508,111.078 101.0983,104.1356 104.1356,100.6644 116.2847,75.4983 117.1525,65.0847 115.4169,59.878 112.3797,55.9729 103.7017,49.8983 95.8915,46.4271" stroke="#00007f" stroke-width="2" /><polyline fill="none" points="27.3356,64.2169 20.3932,39.9186 17.3559,18.6576 26.4678,26.4678 41.6542,44.2576" stroke="#0080ff" stroke-width="2" /><polyline fill="none" points="95.8915,42.522 105.4373,20.8271 114.1153,8.678 114.5492,18.6576 111.078,41.2203 110.6441,54.6712" stroke="#7cff79" stroke-width="2" /><polyline fill="none" points="46.861,80.2712 36.0136,75.4983 8.678,67.6881" stroke="#ff9400" stroke-width="2" /><polyline fill="none" points="35.1458,88.0814 35.1458,88.0814" stroke="#7f0000" stroke-width="2" /></svg>