<?xml version="1.0" encoding="utf-8" ?>
<svg baseProfile="tiny" height="128" version="1.2" viewBox="0,0,128,128" width="128" xmlns="http://www.w3.org/2000/svg" xmlns:ev="http://www.w3.org/2001/xml-events" xmlns:xlink="http://www.w3.org/1999/xlink"><defs /><polyline fill="none" points="20.8271,42.522 26.0339,25.6 34.278,8.678 36.4475,13.8847 37.7492,23.8644 43.8237,37.7492 62.0475,29.939 78.1017,29.0712 85.478,35.5797 90.6847,42.522 91.9864,46.861 94.1559,25.1661 97.6271,12.1492 99.7966,13.8847 108.0407,40.7864 110.6441,58.5763 110.6441,69.8576 105.0034,87.2136 100.6644,92.8542 92.8542,99.3627 84.6102,103.2678 68.122,105.8712 48.1627,105.8712 43.8237,102.4 37.7492,88.0814 34.278,75.0644 32.1085,52.0678 29.5051,38.1831" stroke="#00007f" stroke-width="2" /><polyline fill="none" points="52.9356,56.4068 51.6339,58.1424 53.3695,58.5763 54.2373,56.8407" stroke="#0000e8" stroke-width="2" /><polyline fill="none" points="92.4203,54.6712 92.4203,56.4068 93.2881,54.6712" stroke="#0038ff" stroke-width="2" /><polyline fill="none" points="69.4237,73.3288 71.5932,73.7627 71.1593,75.0644" stroke="#0094ff" stroke-width="2" /><polyline fill="none" points="70.7254,73.3288 72.0271,86.7797 74.1966,88.9492 89.3831,77.2339" stroke="#0cf4ea" stroke-width="2" /><polyline fill="none" points="71.1593,79.8373 69.4237,88.9492 66.3864,92.4203 62.4814,92.8542 60.3119,85.9119" stroke="#56ffa0" stroke-width="2" /><polyline fill="none" points="97.1932,72.461 98.061,70.2915 103.2678,67.2542 106.3051,61.6136 112.8136,57.2746" stroke="#a0ff56" stroke-width="2" /><polyline fill="none" points="93.722,77.2339 98.061,77.2339 119.322,71.5932" stroke="#eaff0c" stroke-width="2" /><polyline fill="none" points="100.6644,84.6102 118.0203,89.8169" stroke="#ffaa00" stroke-width="2" /><polyline fill="none" points="51.6339,72.8949 12.5831,72.8949 8.678,73.3288 11.2814,74.1966" stroke="#ff5500" stroke-width="2" /><polyline fill="none" points="48.5966,85.0441 39.9186,86.7797 35.5797,89.3831 30.3729,94.1559 35.5797,95.0237" stroke="#e80000" stroke-width="2" /><polyline fill="none" points="54.6712,92.8542 18.6576,118.4542" stroke="#7f0000" stroke-width="2" /></svg>