<?xml version="1.0" encoding="utf-8" ?>
<svg baseProfile="tiny" height="128" version="1.2" viewBox="0,0,128,128" width="128" xmlns="http://www.w3.org/2000/svg" xmlns:ev="http://www.w3.org/2001/xml-events" xmlns:xlink="http://www.w3.org/1999/xlink"><defs /><polyline fill="none" points="78.9695,46.861 75.4983,40.3525 67.2542,34.7119 55.1051,34.278 50.3322,36.8814 44.2576,43.8237 40.3525,54.2373 39.4847,68.5559 39.9186,73.3288 42.522,77.2339 46.861,81.5729 50.7661,82.8746 64.2169,83.7424 76.8,78.5356 82.8746,72.461 86.7797,62.4814 86.7797,47.7288 82.0068,40.3525 70.7254,35.5797" stroke="#00007f" stroke-width="2" /><polyline fill="none" points="45.1254,39.9186 49.0305,19.0915 52.9356,8.678 54.6712,9.9797 63.3492,31.6746" stroke="#0000f1" stroke-width="2" /><polyline fill="none" points="72.461,30.3729 76.3661,16.922 79.8373,9.1119 81.139,8.678 86.3458,35.1458" stroke="#004cff" stroke-width="2" /><polyline fill="none" points="50.3322,29.0712 52.5017,19.5254 53.3695,19.0915 56.4068,29.939" stroke="#00b0ff" stroke-width="2" /><polyline fill="none" points="74.1966,32.1085 78.5356,19.9593 80.2712,36.0136" stroke="#29ffcd" stroke-width="2" /><polyline fill="none" points="45.5593,59.4441 8.678,54.2373" stroke="#7cff79" stroke-width="2" /><polyline fill="none" points="44.6915,67.6881 17.3559,75.9322" stroke="#cdff29" stroke-width="2" /><polyline fill="none" points="48.1627,72.8949 18.6576,100.2305" stroke="#ffc400" stroke-width="2" /><polyline fill="none" points="80.7051,61.6136 96.3254,62.0475 119.322,65.5186" stroke="#ff6700" stroke-width="2" /><polyline fill="none" points="80.7051,73.7627 100.6644,82.0068" stroke="#f10700" stroke-width="2" /><polyline fill="none" points="74.6305,75.9322 102.4,96.7593" stroke="#7f0000" stroke-width="2" /></svg>