<?xml version="1.0" encoding="utf-8" ?>
<svg baseProfile="tiny" height="128" version="1.2" viewBox="0,0,128,128" width="128" xmlns="http://www.w3.org/2000/svg" xmlns:ev="http://www.w3.org/2001/xml-events" xmlns:xlink="http://www.w3.org/1999/xlink"><defs /><polyline fill="none" points="27.4286,61.3878 26.1224,56.1633 26.1224,37.8776 30.0408,22.2041 35.7007,9.1429 40.0544,8.7075 48.7619,26.5578 60.0816,42.2313 65.7415,47.4558 68.7891,42.6667 73.5782,29.1701 83.5918,12.1905 87.9456,10.0136 90.9932,15.2381 99.2653,33.5238 107.9728,60.0816 107.9728,81.415 104.0544,97.9592 101.4422,103.619 93.1701,111.4558 87.5102,113.6327 70.5306,117.1156 52.6803,117.1156 45.2789,114.5034 39.1837,111.0204 33.9592,105.3605 30.4762,98.8299 29.1701,64.4354" stroke="#00007f" stroke-width="2" /><polyline fill="none" points="67.9184,73.1429 61.8231,74.8844 61.3878,83.5918 65.3061,87.5102 72.7075,88.8163 76.6259,85.3333 76.6259,81.415 68.7891,74.8844 64.4354,74.8844" stroke="#0000ff" stroke-width="2" /><polyline fill="none" points="74.449,80.1088 100.1361,77.932 114.9388,74.0136" stroke="#0080ff" stroke-width="2" /><polyline fill="none" points="74.449,88.8163 88.8163,88.8163 117.9864,96.6531" stroke="#15ffe1" stroke-width="2" /><polyline fill="none" points="68.7891,90.5578 85.3333,96.6531 107.102,107.5374" stroke="#7cff79" stroke-width="2" /><polyline fill="none" points="60.9524,82.7211 55.7279,80.9796 31.7823,79.2381 13.932,79.2381 9.5782,80.1088 8.7075,82.7211" stroke="#e4ff12" stroke-width="2" /><polyline fill="none" points="60.9524,81.8503 29.1701,104.4898 27.4286,109.2789" stroke="#ff9400" stroke-width="2" /><polyline fill="none" points="62.6939,87.0748 37.4422,119.2925" stroke="#ff1d00" stroke-width="2" /><polyline fill="none" points="32.2177,58.3401 30.4762,53.551 30.4762,34.3946 32.2177,30.4762 37.0068,30.4762 42.2313,36.5714" stroke="#7f0000" stroke-width="2" /></svg>