<?xml version="1.0" encoding="utf-8" ?>
<svg baseProfile="tiny" height="128" version="1.2" viewBox="0,0,128,128" width="128" xmlns="http://www.w3.org/2000/svg" xmlns:ev="http://www.w3.org/2001/xml-events" xmlns:xlink="http://www.w3.org/1999/xlink"><defs /><polyline fill="none" points="23.8644,34.7119 31.2407,22.5627 33.8441,13.4508 40.3525,27.3356 42.0881,33.8441" stroke="#00007f" stroke-width="2" /><polyline fill="none" points="86.7797,36.4475 96.7593,8.678 100.6644,17.7898 108.0407,42.522" stroke="#0000de" stroke-width="2" /><polyline fill="none" points="47.2949,33.8441 52.5017,30.3729 65.9525,29.0712 76.8,31.6746 88.0814,37.7492" stroke="#0028ff" stroke-width="2" /><polyline fill="none" points="23.8644,37.3153 14.3186,42.0881 9.9797,49.4644 8.678,55.539 8.678,60.3119 11.2814,65.9525 21.261,73.3288" stroke="#0080ff" stroke-width="2" /><polyline fill="none" points="115.8508,41.2203 119.322,52.5017 119.322,58.5763 116.2847,65.5186 109.3424,69.4237 86.7797,73.7627" stroke="#00d4ff" stroke-width="2" /><polyline fill="none" points="29.0712,78.9695 57.7085,81.139 90.2508,78.1017" stroke="#36ffc0" stroke-width="2" /><polyline fill="none" points="51.2,56.4068 35.1458,51.6339" stroke="#7cff79" stroke-width="2" /><polyline fill="none" points="44.6915,57.7085 25.6,58.1424" stroke="#c0ff36" stroke-width="2" /><polyline fill="none" points="41.6542,61.6136 33.8441,65.0847" stroke="#ffe500" stroke-width="2" /><polyline fill="none" points="78.1017,54.6712 88.0814,54.2373 97.1932,51.2" stroke="#ff9400" stroke-width="2" /><polyline fill="none" points="83.3085,59.4441 93.722,59.0102" stroke="#ff4600" stroke-width="2" /><polyline fill="none" points="83.3085,62.9153 87.6475,66.3864 93.2881,68.5559" stroke="#de0000" stroke-width="2" /><polyline fill="none" points="59.0102,58.5763 59.0102,58.5763" stroke="#7f0000" stroke-width="2" /></svg>