<?xml version="1.0" encoding="utf-8" ?>
<svg baseProfile="tiny" height="128" version="1.2" viewBox="0,0,128,128" width="128" xmlns="http://www.w3.org/2000/svg" xmlns:ev="http://www.w3.org/2001/xml-events" xmlns:xlink="http://www.w3.org/1999/xlink"><defs /><polyline fill="none" points="32.1085,86.3458 31.2407,94.5898 32.5424,100.2305 36.8814,106.3051 44.6915,110.6441 67.2542,114.9831 102.8339,113.2475 112.8136,109.3424 114.9831,106.3051 115.4169,98.9288 109.7763,86.7797 98.061,76.3661 90.6847,72.461 72.0271,65.5186 60.3119,63.3492 39.0508,63.7831 29.5051,65.0847 16.922,69.8576 11.2814,72.461 10.4136,75.0644" stroke="#00007f" stroke-width="2" /><polyline fill="none" points="20.3932,73.3288 14.7525,59.878 8.678,53.3695 50.7661,70.7254" stroke="#0080ff" stroke-width="2" /><polyline fill="none" points="79.8373,64.2169 87.2136,54.2373 101.0983,30.8068 110.2102,11.7153 114.9831,8.678 118.8881,8.678 119.322,48.1627 116.2847,64.6508" stroke="#7cff79" stroke-width="2" /><polyline fill="none" points="56.4068,81.5729 60.7458,84.1763 62.0475,84.1763 61.6136,82.8746 56.4068,80.2712" stroke="#ff9400" stroke-width="2" /><polyline fill="none" points="72.0271,82.8746 70.2915,83.3085" stroke="#7f0000" stroke-width="2" /></svg>