<?xml version="1.0" encoding="utf-8" ?>
<svg baseProfile="tiny" height="128" version="1.2" viewBox="0,0,128,128" width="128" xmlns="http://www.w3.org/2000/svg" xmlns:ev="http://www.w3.org/2001/xml-events" xmlns:xlink="http://www.w3.org/1999/xlink"><defs /><polyline fill="none" points="88.0814,35.1458 83.3085,32.9763 47.7288,40.3525 39.0508,45.1254 30.3729,52.9356 18.6576,75.9322 20.8271,90.6847 29.5051,100.6644 71.1593,106.3051 88.5153,98.061 101.9661,82.8746 108.0407,57.7085 100.2305,43.3898 86.3458,31.6746" stroke="#00007f" stroke-width="2" /><polyline fill="none" points="24.7322,52.9356 21.6949,48.1627 18.6576,12.1492 41.6542,25.1661 55.1051,43.3898 56.8407,42.9559" stroke="#0000fe" stroke-width="2" /><polyline fill="none" points="95.0237,39.0508 111.9458,15.6203 119.322,8.678 113.2475,44.6915 108.0407,58.5763" stroke="#0060ff" stroke-width="2" /><polyline fill="none" points="59.0102,71.1593 59.0102,71.1593" stroke="#00d4ff" stroke-width="2" /><polyline fill="none" points="52.0678,75.9322 46.861,72.461 20.3932,68.5559 8.678,72.8949" stroke="#4cffaa" stroke-width="2" /><polyline fill="none" points="52.0678,81.5729 30.8068,86.7797 10.8475,95.0237" stroke="#aaff4c" stroke-width="2" /><polyline fill="none" points="61.6136,76.3661 75.9322,72.461 100.2305,69.8576 113.2475,69.8576" stroke="#ffe500" stroke-width="2" /><polyline fill="none" points="66.3864,84.1763 91.5525,91.1186 108.4746,92.4203" stroke="#ff7a00" stroke-width="2" /><polyline fill="none" points="46.4271,61.1797 46.4271,61.1797" stroke="#fe1200" stroke-width="2" /><polyline fill="none" points="73.7627,56.8407 73.7627,56.8407" stroke="#7f0000" stroke-width="2" /></svg>