<?xml version="1.0" encoding="utf-8" ?>
<svg baseProfile="tiny" height="128" version="1.2" viewBox="0,0,128,128" width="128" xmlns="http://www.w3.org/2000/svg" xmlns:ev="http://www.w3.org/2001/xml-events" xmlns:xlink="http://www.w3.org/1999/xlink"><defs /><polyline fill="none" points="8.678,66.3864 16.0542,27.7695 17.7898,8.678 32.9763,53.3695 39.9186,55.9729 59.878,59.0102 63.7831,50.7661 70.7254,24.7322 75.4983,10.8475 77.6678,21.6949 81.139,65.0847 74.6305,95.4576 70.7254,106.739 64.2169,113.6814 53.3695,118.4542 46.4271,119.322 39.4847,117.5864 34.278,114.1153 21.261,101.9661 9.9797,79.8373 9.1119,63.7831" stroke="#00007f" stroke-width="2" /><polyline fill="none" points="38.6169,86.3458 36.4475,94.5898 29.939,93.2881 29.5051,91.9864 30.8068,90.6847" stroke="#0010ff" stroke-width="2" /><polyline fill="none" points="37.3153,95.0237 43.8237,97.1932 45.5593,92.8542 44.2576,92.8542" stroke="#00a4ff" stroke-width="2" /><polyline fill="none" points="30.3729,61.1797 27.7695,75.4983" stroke="#3fffb7" stroke-width="2" /><polyline fill="none" points="34.278,61.6136 36.8814,66.3864 37.3153,75.0644" stroke="#b7ff3f" stroke-width="2" /><polyline fill="none" points="37.3153,75.0644 32.5424,77.2339 27.3356,74.6305" stroke="#ffb900" stroke-width="2" /><polyline fill="none" points="30.8068,63.7831 35.1458,61.6136" stroke="#ff3000" stroke-width="2" /><polyline fill="none" points="52.0678,76.3661 50.3322,75.9322 50.3322,73.3288 54.2373,66.3864 56.8407,65.0847 60.3119,68.5559" stroke="#7f0000" stroke-width="2" /></svg>