<?xml version="1.0" encoding="utf-8" ?>
<svg baseProfile="tiny" height="128" version="1.2" viewBox="0,0,128,128" width="128" xmlns="http://www.w3.org/2000/svg" xmlns:ev="http://www.w3.org/2001/xml-events" xmlns:xlink="http://www.w3.org/1999/xlink"><defs /><polyline fill="none" points="33.8441,73.3288 38.1831,49.8983 37.7492,72.461 45.5593,68.9898 47.2949,49.8983 50.3322,54.2373 56.4068,56.8407 53.8034,70.7254 62.0475,66.3864 63.3492,50.7661 64.6508,64.2169 62.0475,51.6339 91.1186,50.7661 92.8542,54.6712 92.4203,68.122 95.0237,70.2915 99.7966,62.9153 98.9288,52.5017 99.7966,48.1627 98.4949,66.8203 100.6644,67.2542 102.4,65.5186 106.3051,58.1424 107.1729,47.2949 104.5695,32.5424 98.061,26.9017 91.1186,25.6 76.8,25.1661 32.5424,30.3729 24.7322,22.5627 18.6576,22.1288 15.1864,24.7322 11.2814,31.6746 9.9797,35.1458 10.8475,39.0508 16.922,42.9559 22.9966,44.6915 27.3356,42.9559 34.7119,37.7492 36.0136,41.2203 35.5797,49.8983" stroke="#00007f" stroke-width="2" /><polyline fill="none" points="15.1864,42.0881 8.678,44.6915" stroke="#0000ff" stroke-width="2" /><polyline fill="none" points="13.8847,40.3525 10.4136,45.1254" stroke="#0080ff" stroke-width="2" /><polyline fill="none" points="19.0915,43.8237 17.3559,48.1627" stroke="#15ffe1" stroke-width="2" /><polyline fill="none" points="20.8271,44.6915 17.3559,51.6339" stroke="#7cff79" stroke-width="2" /><polyline fill="none" points="16.922,48.5966 16.0542,56.4068" stroke="#e4ff12" stroke-width="2" /><polyline fill="none" points="102.4,31.2407 110.6441,22.9966 114.1153,8.678 118.0203,9.1119 119.322,14.7525 118.0203,18.2237 108.4746,27.3356 101.5322,36.0136" stroke="#ff9400" stroke-width="2" /><polyline fill="none" points="18.2237,29.0712 18.2237,29.0712" stroke="#ff1d00" stroke-width="2" /><polyline fill="none" points="12.5831,36.4475 20.3932,33.8441" stroke="#7f0000" stroke-width="2" /></svg>