<?xml version="1.0" encoding="utf-8" ?>
<svg baseProfile="tiny" height="128" version="1.2" viewBox="0,0,128,128" width="128" xmlns="http://www.w3.org/2000/svg" xmlns:ev="http://www.w3.org/2001/xml-events" xmlns:xlink="http://www.w3.org/1999/xlink"><defs /><polyline fill="none" points="18.2237,56.8407 20.3932,53.3695 19.9593,49.4644 29.939,54.2373 41.6542,54.6712 42.9559,49.0305 58.5763,60.3119 62.9153,68.5559 62.9153,72.8949 59.4441,77.2339 53.8034,78.9695 29.939,79.8373 20.3932,78.1017 13.8847,73.3288 13.4508,68.9898 14.7525,64.6508 17.3559,61.6136 21.261,59.878" stroke="#00007f" stroke-width="2" /><polyline fill="none" points="32.1085,63.3492 32.1085,63.3492" stroke="#0000ff" stroke-width="2" /><polyline fill="none" points="43.8237,62.9153 44.2576,62.9153" stroke="#0080ff" stroke-width="2" /><polyline fill="none" points="35.1458,67.2542 37.7492,70.7254 41.2203,72.0271 43.3898,71.1593 44.6915,68.5559" stroke="#15ffe1" stroke-width="2" /><polyline fill="none" points="26.4678,68.122 33.4102,71.1593 37.3153,69.4237 36.8814,67.2542" stroke="#7cff79" stroke-width="2" /><polyline fill="none" points="17.3559,55.9729 18.2237,58.5763 16.922,62.4814" stroke="#e4ff12" stroke-width="2" /><polyline fill="none" points="60.3119,75.0644 68.122,75.9322 78.1017,68.5559 83.3085,66.8203 98.9288,71.5932 112.3797,69.8576" stroke="#ff9400" stroke-width="2" /><polyline fill="none" points="111.9458,70.7254 116.2847,69.8576 119.322,72.0271 114.9831,75.4983 109.3424,76.8 81.139,78.5356 58.1424,78.1017" stroke="#ff1d00" stroke-width="2" /><polyline fill="none" points="33.4102,26.0339 30.8068,23.8644 29.5051,20.3932 29.939,15.6203 32.1085,12.5831 39.4847,8.678 50.7661,9.9797 56.8407,15.6203 57.7085,21.261 55.539,24.7322 43.8237,31.6746 36.0136,33.4102 31.2407,32.5424 30.3729,30.8068 31.6746,27.7695 37.7492,23.4305 47.2949,20.8271 55.9729,20.8271 58.1424,22.5627 58.1424,24.2983 52.5017,28.2034 43.3898,31.2407 34.7119,31.2407 35.1458,29.5051 37.7492,27.7695 48.5966,26.4678 56.4068,27.3356 62.9153,30.8068 63.7831,34.7119 59.4441,37.3153 62.4814,35.1458 67.6881,33.4102 78.1017,33.8441 83.3085,36.0136 85.0441,39.4847 83.7424,44.2576 76.8,50.7661 88.9492,46.4271 104.1356,45.1254 114.5492,48.5966 115.4169,53.8034 110.6441,59.878 101.5322,66.3864 85.478,73.3288 74.1966,75.0644 69.8576,73.3288 63.7831,61.1797 59.878,58.5763 52.5017,56.8407 26.4678,55.9729 19.0915,53.3695 17.3559,51.2 18.6576,49.0305 26.4678,45.9932 42.9559,44.2576 56.8407,45.5593 64.6508,49.0305 65.0847,54.6712 58.5763,62.0475 41.6542,71.1593 21.6949,76.8 13.8847,77.2339 8.678,75.9322" stroke="#7f0000" stroke-width="2" /></svg>