<?xml version="1.0" encoding="utf-8" ?>
<svg baseProfile="tiny" height="128" version="1.2" viewBox="0,0,128,128" width="128" xmlns="http://www.w3.org/2000/svg" xmlns:ev="http://www.w3.org/2001/xml-events" xmlns:xlink="http://www.w3.org/1999/xlink"><defs /><polyline fill="none" points="83.3085,26.9017 98.4949,8.678 99.3627,28.2034 103.2678,36.0136" stroke="#00007f" stroke-width="2" /><polyline fill="none" points="81.139,32.5424 69.4237,29.939 50.7661,29.939 40.3525,32.9763" stroke="#0000f1" stroke-width="2" /><polyline fill="none" points="44.6915,30.8068 36.8814,15.1864 33.4102,12.1492 28.2034,31.6746 27.7695,38.6169" stroke="#004cff" stroke-width="2" /><polyline fill="none" points="25.1661,37.3153 27.3356,37.7492 26.9017,57.2746 29.0712,61.1797 39.9186,72.0271 54.6712,79.4034" stroke="#00b0ff" stroke-width="2" /><polyline fill="none" points="107.6068,36.8814 100.2305,45.9932 88.0814,66.3864 76.3661,76.3661 68.9898,80.2712 44.2576,83.7424" stroke="#29ffcd" stroke-width="2" /><polyline fill="none" points="65.0847,65.9525 68.9898,61.1797 75.0644,57.7085 81.139,55.539 90.2508,54.2373" stroke="#7cff79" stroke-width="2" /><polyline fill="none" points="75.9322,72.8949 83.7424,72.461 105.8712,66.3864" stroke="#cdff29" stroke-width="2" /><polyline fill="none" points="75.0644,73.7627 76.3661,80.2712 75.9322,119.322" stroke="#ffc400" stroke-width="2" /><polyline fill="none" points="52.0678,60.7458 48.1627,60.3119 31.6746,64.2169 12.5831,64.6508 8.678,67.2542" stroke="#ff6700" stroke-width="2" /><polyline fill="none" points="53.3695,71.1593 38.1831,71.5932 32.1085,75.0644 21.261,86.7797 15.1864,97.6271" stroke="#f10700" stroke-width="2" /><polyline fill="none" points="58.5763,78.1017 49.8983,79.4034 41.6542,84.1763 18.6576,104.5695" stroke="#7f0000" stroke-width="2" /></svg>