<?xml version="1.0" encoding="utf-8" ?>
<svg baseProfile="tiny" height="128" version="1.2" viewBox="0,0,128,128" width="128" xmlns="http://www.w3.org/2000/svg" xmlns:ev="http://www.w3.org/2001/xml-events" xmlns:xlink="http://www.w3.org/1999/xlink"><defs /><polyline fill="none" points="97.1932,11.2814 93.722,13.4508 84.1763,22.9966 80.2712,32.1085 79.8373,39.9186 84.1763,50.7661 90.2508,56.8407 95.4576,55.9729 101.5322,49.8983 105.8712,42.9559 110.2102,32.5424 110.2102,16.4881 108.0407,12.1492 103.7017,8.678 101.5322,8.678 93.2881,13.0169 91.9864,17.7898" stroke="#00007f" stroke-width="2" /><polyline fill="none" points="95.0237,38.6169 93.2881,43.3898 96.3254,45.9932 101.0983,44.2576 106.739,38.1831" stroke="#0000b6" stroke-width="2" /><polyline fill="none" points="108.4746,33.4102 113.6814,36.4475 119.322,37.3153" stroke="#0000f1" stroke-width="2" /><polyline fill="none" points="106.739,41.6542 116.7186,45.1254" stroke="#0018ff" stroke-width="2" /><polyline fill="none" points="109.3424,38.1831 119.322,39.4847" stroke="#004cff" stroke-width="2" /><polyline fill="none" points="80.2712,32.1085 70.2915,31.6746 69.4237,33.4102" stroke="#0080ff" stroke-width="2" /><polyline fill="none" points="79.4034,41.6542 67.6881,41.2203" stroke="#00b0ff" stroke-width="2" /><polyline fill="none" points="83.3085,48.5966 72.0271,49.0305" stroke="#00e4f7" stroke-width="2" /><polyline fill="none" points="91.1186,56.4068 45.9932,55.539 32.1085,56.8407 16.922,61.1797 12.5831,64.6508 9.5458,72.0271 8.678,79.4034 9.9797,85.9119 16.4881,89.3831 36.0136,88.9492 48.1627,85.478 75.4983,69.4237 88.9492,56.4068" stroke="#29ffcd" stroke-width="2" /><polyline fill="none" points="27.7695,88.9492 25.1661,91.5525 24.7322,102.8339" stroke="#53ffa3" stroke-width="2" /><polyline fill="none" points="24.2983,103.2678 26.0339,103.2678" stroke="#7cff79" stroke-width="2" /><polyline fill="none" points="24.2983,102.4 24.2983,102.4" stroke="#a3ff53" stroke-width="2" /><polyline fill="none" points="24.2983,102.4 25.6,102.4" stroke="#cdff29" stroke-width="2" /><polyline fill="none" points="57.7085,99.7966 57.7085,99.7966" stroke="#f7f400" stroke-width="2" /><polyline fill="none" points="57.7085,99.7966 22.9966,103.2678" stroke="#ffc400" stroke-width="2" /><polyline fill="none" points="39.4847,98.4949 39.4847,98.4949" stroke="#ff9400" stroke-width="2" /><polyline fill="none" points="39.4847,98.061 39.0508,92.4203" stroke="#ff6700" stroke-width="2" /><polyline fill="none" points="39.0508,92.4203 38.6169,89.8169" stroke="#ff3700" stroke-width="2" /><polyline fill="none" points="39.9186,86.7797 41.2203,102.4 42.9559,100.6644" stroke="#f10700" stroke-width="2" /><polyline fill="none" points="66.8203,77.2339 66.8203,77.2339" stroke="#b60000" stroke-width="2" /><polyline fill="none" points="65.5186,75.9322 65.5186,89.8169 73.3288,86.7797 70.7254,72.0271" stroke="#7f0000" stroke-width="2" /></svg>