<?xml version="1.0" encoding="utf-8" ?>
<svg baseProfile="tiny" height="128" version="1.2" viewBox="0,0,128,128" width="128" xmlns="http://www.w3.org/2000/svg" xmlns:ev="http://www.w3.org/2001/xml-events" xmlns:xlink="http://www.w3.org/1999/xlink"><defs /><polyline fill="none" points="17.3559,77.6678 16.0542,88.0814 16.0542,106.739" stroke="#00007f" stroke-width="2" /><polyline fill="none" points="25.1661,83.3085 21.6949,106.3051" stroke="#0000ff" stroke-width="2" /><polyline fill="none" points="15.6203,76.3661 22.1288,75.9322 24.2983,78.9695 24.2983,85.9119 18.2237,110.2102 15.1864,109.3424 13.4508,104.1356" stroke="#0080ff" stroke-width="2" /><polyline fill="none" points="33.4102,106.739 37.7492,72.461 42.0881,72.461 46.4271,74.6305 49.0305,78.5356 49.0305,98.061 41.6542,118.8881 39.9186,119.322 33.4102,110.6441 30.8068,105.0034" stroke="#15ffe1" stroke-width="2" /><polyline fill="none" points="14.7525,73.7627 37.7492,71.1593 54.6712,74.1966 60.7458,74.1966 62.4814,71.5932 62.0475,59.4441 77.6678,61.6136 83.3085,55.539 85.0441,50.7661 72.461,23.4305 59.0102,31.2407 52.0678,44.2576 52.5017,49.0305 40.3525,52.5017 22.5627,52.5017 13.0169,57.7085 8.678,67.2542 16.922,69.8576" stroke="#7cff79" stroke-width="2" /><polyline fill="none" points="61.6136,24.2983 61.1797,8.678 72.461,23.8644" stroke="#e4ff12" stroke-width="2" /><polyline fill="none" points="62.0475,21.261 63.3492,27.7695" stroke="#ff9400" stroke-width="2" /><polyline fill="none" points="79.8373,41.6542 82.4407,37.3153 87.6475,41.2203 89.8169,48.5966 85.9119,49.4644" stroke="#ff1d00" stroke-width="2" /><polyline fill="none" points="86.7797,42.522 82.0068,45.1254" stroke="#7f0000" stroke-width="2" /></svg>