<?xml version="1.0" encoding="utf-8" ?>
<svg baseProfile="tiny" height="128" version="1.2" viewBox="0,0,128,128" width="128" xmlns="http://www.w3.org/2000/svg" xmlns:ev="http://www.w3.org/2001/xml-events" xmlns:xlink="http://www.w3.org/1999/xlink"><defs /><polyline fill="none" points="45.1254,39.4847 44.2576,24.2983 46.4271,13.8847 52.0678,25.6 57.2746,31.6746 70.7254,27.3356 80.7051,28.2034 84.1763,15.6203 88.5153,9.5458 92.4203,8.678 95.0237,19.0915 101.0983,32.9763 108.0407,34.7119 113.2475,39.4847 115.8508,44.2576 117.5864,64.6508 114.5492,69.8576 101.0983,79.8373 86.3458,84.1763 64.2169,85.0441 50.3322,80.7051 42.522,73.7627 38.6169,67.2542 37.7492,47.2949 40.3525,42.522 42.522,42.522" stroke="#00007f" stroke-width="2" /><polyline fill="none" points="61.6136,57.2746 31.2407,52.0678 17.3559,51.6339 11.2814,54.2373 8.678,58.5763" stroke="#0010ff" stroke-width="2" /><polyline fill="none" points="93.2881,58.1424 94.1559,53.8034 102.8339,42.9559 116.7186,32.1085 119.322,28.2034" stroke="#00a4ff" stroke-width="2" /><polyline fill="none" points="55.1051,65.9525 40.7864,66.3864 28.2034,68.9898 22.5627,71.5932 16.0542,76.8 10.4136,84.1763" stroke="#3fffb7" stroke-width="2" /><polyline fill="none" points="102.8339,59.878 114.9831,63.7831 118.4542,66.3864" stroke="#b7ff3f" stroke-width="2" /><polyline fill="none" points="52.0678,75.4983 48.1627,75.0644 41.2203,77.6678 29.939,84.6102 19.9593,94.1559" stroke="#ffb900" stroke-width="2" /><polyline fill="none" points="102.4,69.8576 114.1153,76.3661 118.4542,81.5729 118.8881,83.7424" stroke="#ff3000" stroke-width="2" /><polyline fill="none" points="65.9525,70.2915 83.3085,71.1593 86.3458,69.4237" stroke="#7f0000" stroke-width="2" /></svg>