<?xml version="1.0" encoding="utf-8" ?>
<svg baseProfile="tiny" height="128" version="1.2" viewBox="0,0,128,128" width="128" xmlns="http://www.w3.org/2000/svg" xmlns:ev="http://www.w3.org/2001/xml-events" xmlns:xlink="http://www.w3.org/1999/xlink"><defs /><polyline fill="none" points="39.4847,47.7288 20.8271,48.1627" stroke="#00007f" stroke-width="2" /><polyline fill="none" points="20.3932,48.5966 16.922,49.4644 11.7153,52.9356" stroke="#0000f1" stroke-width="2" /><polyline fill="none" points="44.2576,54.2373 13.4508,59.4441 8.678,62.4814" stroke="#004cff" stroke-width="2" /><polyline fill="none" points="77.6678,49.4644 83.7424,48.1627 95.8915,49.4644 109.3424,56.8407 119.322,65.9525" stroke="#00b0ff" stroke-width="2" /><polyline fill="none" points="89.3831,61.1797 102.8339,65.5186 114.9831,73.3288 116.7186,75.9322" stroke="#29ffcd" stroke-width="2" /><polyline fill="none" points="31.6746,39.4847 31.6746,54.6712 33.8441,60.7458 40.7864,69.4237 45.9932,72.8949 62.0475,78.1017 91.9864,78.5356 106.3051,65.5186 108.9085,57.2746 109.7763,33.4102 108.0407,22.1288 103.7017,14.3186" stroke="#7cff79" stroke-width="2" /><polyline fill="none" points="98.061,15.6203 74.1966,28.6373 68.122,21.6949 59.4441,16.0542 49.8983,11.7153 36.8814,8.678 36.8814,37.7492" stroke="#cdff29" stroke-width="2" /><polyline fill="none" points="56.4068,49.0305 53.8034,48.1627 51.2,39.9186 53.3695,35.5797 58.1424,33.4102 61.6136,33.4102 64.2169,38.1831 64.2169,46.861 61.1797,48.1627" stroke="#ffc400" stroke-width="2" /><polyline fill="none" points="84.6102,48.5966 80.7051,42.0881 80.2712,35.1458 82.0068,32.5424 85.9119,32.1085 89.3831,37.3153 89.8169,43.3898 87.2136,46.861 82.8746,48.1627" stroke="#ff6700" stroke-width="2" /><polyline fill="none" points="70.7254,52.0678 67.2542,68.9898" stroke="#f10700" stroke-width="2" /><polyline fill="none" points="66.8203,68.122 59.4441,65.0847" stroke="#7f0000" stroke-width="2" /></svg>