<?xml version="1.0" encoding="utf-8" ?>
<svg baseProfile="tiny" height="128" version="1.2" viewBox="0,0,128,128" width="128" xmlns="http://www.w3.org/2000/svg" xmlns:ev="http://www.w3.org/2001/xml-events" xmlns:xlink="http://www.w3.org/1999/xlink"><defs /><polyline fill="none" points="56.4068,36.0136 50.3322,38.6169 36.8814,48.1627 29.0712,56.8407 23.4305,67.6881 20.8271,79.4034 20.3932,92.4203 23.4305,103.2678 30.3729,112.3797 37.3153,117.1525 46.4271,119.322 52.9356,119.322 65.0847,114.5492 83.7424,98.061 92.4203,85.478 96.7593,72.8949 97.6271,63.3492 95.4576,53.8034 86.3458,42.0881 78.5356,36.4475 68.9898,32.5424 51.2,31.2407" stroke="#00007f" stroke-width="2" /><polyline fill="none" points="35.1458,52.0678 29.0712,38.1831 8.678,9.1119 16.4881,9.1119 32.9763,14.7525 44.6915,24.7322 56.4068,40.7864" stroke="#0028ff" stroke-width="2" /><polyline fill="none" points="75.9322,38.1831 79.8373,32.1085 92.4203,19.9593 109.3424,8.678 106.3051,16.4881 95.8915,35.5797 88.9492,55.9729" stroke="#00d4ff" stroke-width="2" /><polyline fill="none" points="20.3932,88.5153 60.7458,91.5525 82.8746,99.7966" stroke="#7cff79" stroke-width="2" /><polyline fill="none" points="29.0712,100.2305 58.1424,101.5322" stroke="#ffe500" stroke-width="2" /><polyline fill="none" points="43.3898,49.0305 50.3322,61.1797 52.9356,69.4237 48.1627,63.7831 43.8237,61.1797 30.8068,59.878 34.278,52.5017 39.4847,49.4644" stroke="#ff4600" stroke-width="2" /><polyline fill="none" points="79.8373,60.3119 73.7627,60.3119 68.122,64.2169 65.0847,67.6881 62.0475,74.6305" stroke="#7f0000" stroke-width="2" /></svg>