<?xml version="1.0" encoding="utf-8" ?>
<svg baseProfile="tiny" height="128" version="1.2" viewBox="0,0,128,128" width="128" xmlns="http://www.w3.org/2000/svg" xmlns:ev="http://www.w3.org/2001/xml-events" xmlns:xlink="http://www.w3.org/1999/xlink"><defs /><polyline fill="none" points="15.6203,82.0068 9.1119,72.0271 8.678,31.6746 16.0542,8.678 18.6576,28.2034 43.3898,34.278 51.2,29.0712 65.0847,16.4881 72.461,37.3153 73.3288,55.539 67.6881,70.2915 59.4441,76.3661 43.3898,81.5729 24.7322,83.3085 13.0169,82.4407" stroke="#00007f" stroke-width="2" /><polyline fill="none" points="22.5627,61.6136 41.2203,61.6136" stroke="#0028ff" stroke-width="2" /><polyline fill="none" points="26.4678,44.6915 26.4678,48.5966" stroke="#00d4ff" stroke-width="2" /><polyline fill="none" points="36.8814,45.5593 36.8814,49.8983" stroke="#7cff79" stroke-width="2" /><polyline fill="none" points="30.8068,61.1797 26.0339,69.4237 24.7322,69.8576 22.9966,65.9525" stroke="#ffe500" stroke-width="2" /><polyline fill="none" points="27.3356,67.6881 28.2034,72.8949 35.1458,72.8949 37.7492,71.1593" stroke="#ff4600" stroke-width="2" /><polyline fill="none" points="51.6339,82.4407 56.4068,97.6271 56.8407,104.1356 56.8407,111.5119 52.0678,119.322" stroke="#7f0000" stroke-width="2" /></svg>