<?xml version="1.0" encoding="utf-8" ?>
<svg baseProfile="tiny" height="128" version="1.2" viewBox="0,0,128,128" width="128" xmlns="http://www.w3.org/2000/svg" xmlns:ev="http://www.w3.org/2001/xml-events" xmlns:xlink="http://www.w3.org/1999/xlink"><defs /><polyline fill="none" points="42.9559,102.4 31.2407,96.3254 22.9966,83.3085 22.5627,75.0644 25.1661,67.6881 29.939,62.4814 40.7864,55.1051 49.4644,51.6339 61.1797,48.5966 70.2915,48.5966 85.478,53.3695 90.2508,57.7085 93.722,64.6508 93.2881,72.8949 90.2508,81.5729 82.8746,91.9864 71.1593,98.9288 57.2746,103.2678 47.2949,104.1356 42.9559,101.0983" stroke="#00007f" stroke-width="2" /><polyline fill="none" points="21.6949,59.878 22.9966,58.5763 21.6949,47.2949 22.5627,39.4847 26.4678,27.7695 35.5797,8.678 35.1458,21.6949 39.0508,35.5797 45.5593,50.7661 45.9932,56.8407" stroke="#0000de" stroke-width="2" /><polyline fill="none" points="69.4237,45.9932 70.7254,45.9932 73.3288,43.3898 86.7797,23.8644 98.9288,13.0169 95.4576,36.0136 94.1559,60.3119" stroke="#0028ff" stroke-width="2" /><polyline fill="none" points="30.3729,55.1051 27.7695,55.1051 27.3356,52.5017 29.0712,36.0136 34.278,48.5966 34.7119,56.4068" stroke="#0080ff" stroke-width="2" /><polyline fill="none" points="78.5356,49.4644 78.9695,46.861 83.3085,40.7864 88.9492,36.8814 89.8169,39.4847 86.7797,47.2949 86.7797,52.5017" stroke="#00d4ff" stroke-width="2" /><polyline fill="none" points="43.8237,82.4407 47.7288,89.8169 56.4068,93.2881 60.7458,91.5525 63.7831,86.3458 62.9153,84.1763" stroke="#36ffc0" stroke-width="2" /><polyline fill="none" points="55.1051,76.8 51.6339,74.1966 55.539,72.8949 56.8407,74.1966 52.9356,75.0644 52.5017,72.461" stroke="#7cff79" stroke-width="2" /><polyline fill="none" points="45.1254,63.7831 45.9932,61.1797 50.3322,59.4441 50.3322,62.4814 49.0305,63.3492 42.9559,61.6136 42.9559,60.3119" stroke="#c0ff36" stroke-width="2" /><polyline fill="none" points="65.0847,62.4814 64.6508,59.878 65.9525,59.0102 72.0271,58.5763 72.0271,61.6136 70.7254,62.0475 65.0847,62.4814 64.2169,61.1797" stroke="#ffe500" stroke-width="2" /><polyline fill="none" points="59.4441,74.1966 77.6678,80.2712 119.322,86.3458" stroke="#ff9400" stroke-width="2" /><polyline fill="none" points="65.0847,80.2712 95.8915,90.2508 114.9831,91.5525" stroke="#ff4600" stroke-width="2" /><polyline fill="none" points="43.3898,75.9322 27.3356,78.9695 8.678,85.9119" stroke="#de0000" stroke-width="2" /><polyline fill="none" points="45.9932,77.2339 9.1119,92.4203" stroke="#7f0000" stroke-width="2" /></svg>