<?xml version="1.0" encoding="utf-8" ?>
<svg baseProfile="tiny" height="128" version="1.2" viewBox="0,0,128,128" width="128" xmlns="http://www.w3.org/2000/svg" xmlns:ev="http://www.w3.org/2001/xml-events" xmlns:xlink="http://www.w3.org/1999/xlink"><defs /><polyline fill="none" points="63.3492,29.939 68.5559,27.3356 80.7051,26.9017 85.9119,30.8068 91.1186,37.3153" stroke="#00007f" stroke-width="2" /><polyline fill="none" points="93.2881,36.8814 96.3254,28.6373 103.7017,20.8271 106.739,20.3932 108.0407,29.0712 102.4,45.5593" stroke="#0000e8" stroke-width="2" /><polyline fill="none" points="64.2169,29.5051 47.2949,8.678 43.8237,24.2983 43.8237,35.5797 45.5593,39.4847" stroke="#0038ff" stroke-width="2" /><polyline fill="none" points="46.861,42.9559 40.3525,41.6542 32.9763,48.1627 27.3356,63.7831 26.9017,78.1017 28.6373,82.8746 35.5797,89.8169 46.861,93.722 60.3119,95.0237 78.9695,94.1559 89.3831,88.5153 101.0983,78.5356 107.6068,70.2915 112.3797,58.5763 112.8136,49.4644 108.4746,45.1254" stroke="#0094ff" stroke-width="2" /><polyline fill="none" points="86.3458,50.3322 81.139,49.8983 77.2339,64.6508 77.2339,68.9898 81.139,67.6881 84.6102,64.6508 87.2136,56.8407 86.3458,48.5966" stroke="#0cf4ea" stroke-width="2" /><polyline fill="none" points="59.0102,36.8814 55.539,38.6169 52.0678,44.6915 52.0678,53.3695 62.4814,54.6712 66.8203,49.8983 67.2542,45.5593 64.6508,44.2576" stroke="#56ffa0" stroke-width="2" /><polyline fill="none" points="64.2169,72.461 59.4441,69.8576 56.4068,69.8576 52.9356,71.1593 52.5017,75.4983 55.1051,78.5356 61.6136,78.1017 65.5186,75.4983" stroke="#a0ff56" stroke-width="2" /><polyline fill="none" points="63.3492,74.6305 116.2847,74.1966 119.322,75.0644" stroke="#eaff0c" stroke-width="2" /><polyline fill="none" points="62.0475,80.7051 95.0237,86.7797 102.4,88.9492 104.1356,90.6847" stroke="#ffaa00" stroke-width="2" /><polyline fill="none" points="47.2949,68.9898 38.6169,56.8407 16.0542,34.7119" stroke="#ff5500" stroke-width="2" /><polyline fill="none" points="41.2203,72.461 36.0136,68.5559 19.5254,61.1797 8.678,55.1051" stroke="#e80000" stroke-width="2" /><polyline fill="none" points="60.3119,81.5729 65.9525,86.3458 99.7966,108.0407" stroke="#7f0000" stroke-width="2" /></svg>