<?xml version="1.0" encoding="utf-8" ?>
<svg baseProfile="tiny" height="128" version="1.2" viewBox="0,0,128,128" width="128" xmlns="http://www.w3.org/2000/svg" xmlns:ev="http://www.w3.org/2001/xml-events" xmlns:xlink="http://www.w3.org/1999/xlink"><defs /><polyline fill="none" points="8.678,64.6508 9.9797,46.4271 19.5254,8.678 28.2034,51.6339" stroke="#00007f" stroke-width="2" /><polyline fill="none" points="31.6746,47.7288 38.1831,42.522 50.3322,41.2203 56.4068,42.522 68.9898,49.4644 72.0271,49.4644 95.8915,26.9017 112.3797,8.678 111.5119,34.278 104.1356,53.8034 94.5898,71.5932 92.4203,88.9492 86.7797,98.9288 75.4983,109.7763 65.5186,114.5492 54.2373,117.1525 27.7695,119.322 22.1288,114.9831 12.1492,95.8915 12.1492,67.2542" stroke="#004cff" stroke-width="2" /><polyline fill="none" points="31.6746,61.1797 32.1085,70.2915" stroke="#29ffcd" stroke-width="2" /><polyline fill="none" points="49.4644,65.9525 49.8983,75.9322" stroke="#cdff29" stroke-width="2" /><polyline fill="none" points="36.8814,91.9864 32.9763,99.3627 30.8068,101.5322 28.2034,101.5322 25.1661,98.9288 24.7322,96.3254 26.0339,85.0441" stroke="#ff6700" stroke-width="2" /><polyline fill="none" points="39.0508,89.3831 39.0508,89.3831" stroke="#7f0000" stroke-width="2" /></svg>