<?xml version="1.0" encoding="utf-8" ?>
<svg baseProfile="tiny" height="128" version="1.2" viewBox="0,0,128,128" width="128" xmlns="http://www.w3.org/2000/svg" xmlns:ev="http://www.w3.org/2001/xml-events" xmlns:xlink="http://www.w3.org/1999/xlink"><defs /><polyline fill="none" points="14.2222,44.043 15.5986,22.4803 17.8925,11.0108 19.7276,9.1756 23.3978,11.9283 35.7849,31.1971 44.5018,42.2079" stroke="#00007f" stroke-width="2" /><polyline fill="none" points="44.043,41.2903 49.0896,37.1613 58.2652,34.8674 68.3584,35.7849 72.0287,38.9964" stroke="#0000de" stroke-width="2" /><polyline fill="none" points="72.4875,38.5376 77.0753,29.8208 94.0502,12.8459 95.8853,17.8925 95.8853,50.4659" stroke="#0028ff" stroke-width="2" /><polyline fill="none" points="16.0573,44.043 13.3047,47.7133 13.3047,56.8889 15.1398,66.9821 20.6452,75.6989 26.6093,82.5806 37.6201,90.3799 55.0538,94.509 81.6631,89.9211 89.9211,84.4158 96.8029,75.2401 99.0968,63.3118 97.7204,55.5125 87.1685,38.9964" stroke="#0080ff" stroke-width="2" /><polyline fill="none" points="54.595,74.3226 55.0538,71.5699 59.1828,68.8172 62.853,70.6523 56.4301,73.405 54.595,72.0287 55.5125,69.7348 58.724,70.6523 59.1828,72.9462 57.8065,73.8638" stroke="#00d4ff" stroke-width="2" /><polyline fill="none" points="69.276,70.1935 77.9928,66.9821 87.6272,65.147 118.8244,63.7706" stroke="#36ffc0" stroke-width="2" /><polyline fill="none" points="70.1935,71.1111 83.4982,71.5699 109.6487,75.6989" stroke="#7cff79" stroke-width="2" /><polyline fill="none" points="80.2867,77.5341 83.4982,78.9104 107.8136,80.2867" stroke="#c0ff36" stroke-width="2" /><polyline fill="none" points="38.5376,72.4875 30.2796,70.1935 24.7742,70.1935 9.1756,73.8638" stroke="#ffe500" stroke-width="2" /><polyline fill="none" points="49.5484,76.1577 34.4086,76.1577 18.81,81.2043" stroke="#ff9400" stroke-width="2" /><polyline fill="none" points="45.4194,74.7814 33.491,76.6165 19.7276,83.4982" stroke="#ff4600" stroke-width="2" /><polyline fill="none" points="41.2903,88.086 47.7133,89.9211 57.8065,89.0036 64.2294,85.3333 66.0645,82.5806" stroke="#de0000" stroke-width="2" /><polyline fill="none" points="43.5842,56.4301 43.5842,56.4301" stroke="#7f0000" stroke-width="2" /></svg>