<?xml version="1.0" encoding="utf-8" ?>
<svg baseProfile="tiny" height="128" version="1.2" viewBox="0,0,128,128" width="128" xmlns="http://www.w3.org/2000/svg" xmlns:ev="http://www.w3.org/2001/xml-events" xmlns:xlink="http://www.w3.org/1999/xlink"><defs /><polyline fill="none" points="55.1051,43.8237 49.0305,42.9559 42.522,47.7288 36.0136,59.878 33.8441,78.1017 33.8441,94.5898 36.0136,99.3627 39.9186,102.4 46.861,104.1356 60.7458,104.1356 78.9695,91.5525 82.8746,87.2136 86.3458,78.9695 86.3458,62.4814 81.139,48.1627 75.9322,42.9559 68.5559,39.4847 59.0102,39.0508 52.9356,40.7864" stroke="#00007f" stroke-width="2" /><polyline fill="none" points="32.5424,61.1797 30.8068,55.1051 29.939,24.7322 35.5797,24.7322 44.6915,33.8441 52.9356,39.9186" stroke="#0010ff" stroke-width="2" /><polyline fill="none" points="71.1593,35.5797 72.8949,26.4678 77.2339,17.7898 83.7424,12.1492 92.4203,8.678 94.1559,12.5831 94.1559,19.5254 81.139,46.861" stroke="#00a4ff" stroke-width="2" /><polyline fill="none" points="59.0102,77.2339 62.0475,72.8949 64.2169,76.8 59.878,78.9695 59.878,75.9322" stroke="#3fffb7" stroke-width="2" /><polyline fill="none" points="52.0678,72.8949 44.6915,74.1966 8.678,75.0644" stroke="#b7ff3f" stroke-width="2" /><polyline fill="none" points="48.1627,76.8 39.9186,82.8746 15.6203,94.1559" stroke="#ffb900" stroke-width="2" /><polyline fill="none" points="59.878,72.0271 88.9492,56.8407 110.2102,49.8983" stroke="#ff3000" stroke-width="2" /><polyline fill="none" points="64.2169,75.9322 119.322,74.1966" stroke="#7f0000" stroke-width="2" /></svg>