<?xml version="1.0" encoding="utf-8" ?>
<svg baseProfile="tiny" height="128" version="1.2" viewBox="0,0,128,128" width="128" xmlns="http://www.w3.org/2000/svg" xmlns:ev="http://www.w3.org/2001/xml-events" xmlns:xlink="http://www.w3.org/1999/xlink"><defs /><polyline fill="none" points="81.5729,25.1661 67.2542,25.1661 60.3119,26.9017 49.8983,32.5424 38.1831,41.6542 29.0712,56.4068 24.2983,69.4237 23.4305,83.3085 26.9017,91.9864 30.3729,98.4949 42.9559,106.3051 49.4644,107.6068 59.4441,107.6068 75.0644,101.0983 92.4203,84.6102 95.8915,75.9322 98.4949,50.3322 95.4576,42.0881 82.0068,25.6" stroke="#00007f" stroke-width="2" /><polyline fill="none" points="37.3153,44.6915 37.7492,32.1085 44.6915,13.4508 48.5966,12.5831 58.1424,24.2983" stroke="#0000ff" stroke-width="2" /><polyline fill="none" points="77.2339,25.1661 78.1017,19.5254 92.4203,8.678 93.2881,34.278" stroke="#0080ff" stroke-width="2" /><polyline fill="none" points="8.678,63.3492 16.922,67.2542 41.2203,69.4237 54.6712,72.0271" stroke="#15ffe1" stroke-width="2" /><polyline fill="none" points="13.4508,92.4203 55.1051,72.8949" stroke="#7cff79" stroke-width="2" /><polyline fill="none" points="54.6712,72.0271 53.8034,75.9322 42.522,97.1932 26.9017,119.322" stroke="#e4ff12" stroke-width="2" /><polyline fill="none" points="72.461,64.6508 88.5153,64.6508 102.4,59.878 115.4169,58.1424" stroke="#ff9400" stroke-width="2" /><polyline fill="none" points="69.4237,65.9525 70.7254,68.9898 95.8915,87.2136 98.4949,91.1186" stroke="#ff1d00" stroke-width="2" /><polyline fill="none" points="65.5186,68.5559 68.122,71.5932 75.0644,88.0814 86.7797,108.0407" stroke="#7f0000" stroke-width="2" /></svg>