<?xml version="1.0" encoding="utf-8" ?>
<svg baseProfile="tiny" height="128" version="1.2" viewBox="0,0,128,128" width="128" xmlns="http://www.w3.org/2000/svg" xmlns:ev="http://www.w3.org/2001/xml-events" xmlns:xlink="http://www.w3.org/1999/xlink"><defs /><polyline fill="none" points="38.1831,36.4475 32.1085,39.0508 30.3729,42.0881 34.278,52.0678 41.6542,61.1797 50.3322,66.3864 60.7458,69.8576 68.122,69.8576 75.0644,66.3864 82.0068,56.4068 85.0441,46.861 84.6102,39.9186 81.5729,34.278 77.6678,30.8068 70.7254,28.2034 55.9729,26.0339 36.8814,26.4678 29.0712,29.0712 26.0339,32.1085 26.0339,35.1458 27.7695,36.8814 35.5797,39.0508" stroke="#00007f" stroke-width="2" /><polyline fill="none" points="34.278,26.4678 40.7864,8.678 42.522,15.6203 47.7288,24.2983" stroke="#0010ff" stroke-width="2" /><polyline fill="none" points="68.9898,26.9017 73.3288,23.4305 79.4034,13.4508 80.2712,31.6746" stroke="#00a4ff" stroke-width="2" /><polyline fill="none" points="75.9322,52.0678 119.322,52.0678" stroke="#3fffb7" stroke-width="2" /><polyline fill="none" points="72.8949,57.2746 104.5695,59.4441 114.1153,60.7458 117.1525,62.9153" stroke="#b7ff3f" stroke-width="2" /><polyline fill="none" points="71.1593,62.4814 100.2305,68.9898 106.3051,72.0271" stroke="#ffb900" stroke-width="2" /><polyline fill="none" points="44.2576,45.1254 8.678,53.3695" stroke="#ff3000" stroke-width="2" /><polyline fill="none" points="43.3898,55.1051 22.5627,60.7458" stroke="#7f0000" stroke-width="2" /></svg>