<?xml version="1.0" encoding="utf-8" ?>
<svg baseProfile="tiny" height="128" version="1.2" viewBox="0,0,128,128" width="128" xmlns="http://www.w3.org/2000/svg" xmlns:ev="http://www.w3.org/2001/xml-events" xmlns:xlink="http://www.w3.org/1999/xlink"><defs /><polyline fill="none" points="62.9153,32.9763 45.5593,32.1085 37.7492,36.0136 30.3729,41.6542 26.4678,45.9932 22.5627,52.9356 18.2237,69.8576 18.2237,95.0237 24.7322,104.5695 33.8441,111.078 39.4847,112.8136 49.0305,114.5492 78.1017,113.6814 83.7424,110.6441 91.9864,99.3627 96.7593,80.7051 97.6271,60.3119 96.7593,55.539 91.1186,49.0305 67.6881,31.2407" stroke="#00007f" stroke-width="2" /><polyline fill="none" points="20.8271,54.6712 14.3186,49.0305 11.7153,40.7864 8.678,8.678 14.3186,11.7153 22.9966,24.7322 32.1085,35.1458" stroke="#0010ff" stroke-width="2" /><polyline fill="none" points="88.5153,41.6542 90.2508,35.5797 98.9288,26.4678 119.322,9.5458 117.1525,18.2237 106.3051,42.522 102.4,56.4068" stroke="#00a4ff" stroke-width="2" /><polyline fill="none" points="52.9356,69.4237 62.0475,70.7254 45.9932,70.7254" stroke="#3fffb7" stroke-width="2" /><polyline fill="none" points="47.2949,47.2949 49.0305,49.0305" stroke="#b7ff3f" stroke-width="2" /><polyline fill="none" points="65.9525,45.1254 69.4237,49.8983 66.8203,49.8983" stroke="#ffb900" stroke-width="2" /><polyline fill="none" points="51.6339,78.9695 53.8034,84.6102 53.8034,95.0237 51.6339,99.7966 45.9932,104.1356 40.3525,105.4373 30.3729,104.1356 26.4678,96.7593" stroke="#ff3000" stroke-width="2" /><polyline fill="none" points="62.0475,74.1966 59.4441,78.9695 59.4441,91.9864 62.0475,101.0983 65.9525,107.1729 73.3288,110.6441 80.2712,110.6441 86.3458,108.0407 90.2508,102.4" stroke="#7f0000" stroke-width="2" /></svg>