<?xml version="1.0" encoding="utf-8" ?>
<svg baseProfile="tiny" height="128" version="1.2" viewBox="0,0,128,128" width="128" xmlns="http://www.w3.org/2000/svg" xmlns:ev="http://www.w3.org/2001/xml-events" xmlns:xlink="http://www.w3.org/1999/xlink"><defs /><polyline fill="none" points="12.1492,23.4305 11.7153,42.0881" stroke="#00007f" stroke-width="2" /><polyline fill="none" points="25.1661,17.7898 28.6373,25.1661 36.8814,36.4475 52.0678,45.5593" stroke="#0000d1" stroke-width="2" /><polyline fill="none" points="8.678,29.939 14.3186,22.1288 17.3559,14.3186" stroke="#0010ff" stroke-width="2" /><polyline fill="none" points="60.3119,8.678 65.5186,15.6203 70.2915,38.6169" stroke="#0058ff" stroke-width="2" /><polyline fill="none" points="64.6508,10.8475 77.6678,17.3559 86.7797,23.4305 101.5322,36.4475 100.6644,36.8814" stroke="#00a4ff" stroke-width="2" /><polyline fill="none" points="39.0508,46.861 68.122,46.4271 75.4983,48.5966" stroke="#05ecf1" stroke-width="2" /><polyline fill="none" points="17.3559,44.2576 13.0169,51.2 11.7153,61.6136 12.1492,65.9525 18.6576,78.1017 28.2034,85.478 44.6915,91.5525 61.1797,93.722 73.7627,93.722 90.2508,91.5525 104.5695,85.9119 112.3797,80.2712 117.1525,73.3288 119.322,66.3864 119.322,55.539 117.5864,51.6339 108.0407,40.7864" stroke="#3fffb7" stroke-width="2" /><polyline fill="none" points="65.9525,71.1593 65.5186,69.8576" stroke="#7cff79" stroke-width="2" /><polyline fill="none" points="65.5186,75.9322 66.8203,79.8373 63.3492,82.4407 61.1797,82.4407" stroke="#b7ff3f" stroke-width="2" /><polyline fill="none" points="73.3288,75.9322 84.6102,78.9695" stroke="#f1fc05" stroke-width="2" /><polyline fill="none" points="62.4814,74.6305 50.7661,75.4983 26.4678,81.5729" stroke="#ffb900" stroke-width="2" /><polyline fill="none" points="59.878,65.9525 35.5797,64.6508 31.2407,63.7831 29.0712,62.0475" stroke="#ff7300" stroke-width="2" /><polyline fill="none" points="68.9898,68.122 82.4407,64.6508 108.4746,54.6712" stroke="#ff3000" stroke-width="2" /><polyline fill="none" points="75.4983,71.5932 112.3797,72.461" stroke="#d10000" stroke-width="2" /><polyline fill="none" points="68.9898,52.5017 69.4237,57.2746 67.6881,53.3695" stroke="#7f0000" stroke-width="2" /></svg>