<?xml version="1.0" encoding="utf-8" ?>
<svg baseProfile="tiny" height="128" version="1.2" viewBox="0,0,128,128" width="128" xmlns="http://www.w3.org/2000/svg" xmlns:ev="http://www.w3.org/2001/xml-events" xmlns:xlink="http://www.w3.org/1999/xlink"><defs /><polyline fill="none" points="50.7661,37.3153 39.9186,41.6542 29.0712,52.9356 23.4305,64.2169 21.261,77.2339 22.5627,87.2136 28.2034,100.2305 35.1458,107.1729 46.4271,111.5119 52.5017,111.9458 63.7831,110.2102 74.6305,105.0034 86.3458,97.6271 98.061,84.6102 101.9661,78.5356 105.8712,67.2542 105.0034,51.6339 102.4,45.9932 98.4949,42.0881 91.1186,38.1831 82.0068,36.4475 67.6881,37.3153 61.6136,39.0508" stroke="#00007f" stroke-width="2" /><polyline fill="none" points="42.0881,70.7254 42.0881,70.7254" stroke="#0000c3" stroke-width="2" /><polyline fill="none" points="76.8,59.878 76.8,59.878" stroke="#0000ff" stroke-width="2" /><polyline fill="none" points="41.6542,73.7627 45.1254,77.6678" stroke="#0034ff" stroke-width="2" /><polyline fill="none" points="75.9322,61.6136 77.2339,63.3492" stroke="#0070ff" stroke-width="2" /><polyline fill="none" points="60.7458,82.0068 63.7831,81.139" stroke="#00acff" stroke-width="2" /><polyline fill="none" points="52.0678,95.4576 58.1424,97.1932 62.9153,96.3254 71.5932,91.1186 78.5356,83.7424" stroke="#02e8f4" stroke-width="2" /><polyline fill="none" points="36.4475,47.7288 29.939,45.1254 9.9797,40.7864 8.678,42.522 9.5458,44.6915 15.1864,53.3695" stroke="#32ffc3" stroke-width="2" /><polyline fill="none" points="79.4034,33.8441 82.8746,8.678 84.6102,9.5458 92.8542,22.1288" stroke="#63ff93" stroke-width="2" /><polyline fill="none" points="48.1627,91.5525 21.261,111.5119" stroke="#93ff63" stroke-width="2" /><polyline fill="none" points="50.7661,91.9864 42.0881,105.4373 36.0136,119.322" stroke="#c3ff32" stroke-width="2" /><polyline fill="none" points="72.8949,80.7051 105.0034,63.7831" stroke="#f4f802" stroke-width="2" /><polyline fill="none" points="82.8746,86.7797 95.8915,84.1763" stroke="#ffc000" stroke-width="2" /><polyline fill="none" points="65.0847,81.5729 65.9525,87.2136" stroke="#ff8900" stroke-width="2" /><polyline fill="none" points="67.2542,82.8746 67.2542,86.7797 69.8576,93.2881 67.6881,91.5525" stroke="#ff5100" stroke-width="2" /><polyline fill="none" points="97.1932,29.0712 99.7966,37.7492" stroke="#ff1a00" stroke-width="2" /><polyline fill="none" points="21.261,60.3119 29.0712,64.2169 15.6203,54.2373" stroke="#c30000" stroke-width="2" /><polyline fill="none" points="31.6746,56.8407 21.261,54.2373" stroke="#7f0000" stroke-width="2" /></svg>