<?xml version="1.0" encoding="utf-8" ?>
<svg baseProfile="tiny" height="128" version="1.2" viewBox="0,0,128,128" width="128" xmlns="http://www.w3.org/2000/svg" xmlns:ev="http://www.w3.org/2001/xml-events" xmlns:xlink="http://www.w3.org/1999/xlink"><defs /><polyline fill="none" points="90.6847,31.2407 76.8,23.4305 65.5186,24.7322 52.0678,32.1085 45.1254,38.1831 40.3525,47.7288 40.3525,62.0475 42.9559,73.3288 47.2949,78.9695 58.5763,85.9119 63.7831,87.6475 72.0271,87.6475 78.5356,85.0441 87.6475,73.7627 94.1559,53.3695 93.2881,41.6542 85.0441,24.2983 100.6644,18.6576 115.4169,8.678 98.4949,51.2" stroke="#00007f" stroke-width="2" /><polyline fill="none" points="59.4441,27.3356 43.3898,16.922 26.0339,11.2814 27.7695,19.5254 34.278,34.7119 42.522,47.7288" stroke="#0000de" stroke-width="2" /><polyline fill="none" points="75.9322,42.9559 75.9322,42.9559" stroke="#0028ff" stroke-width="2" /><polyline fill="none" points="60.3119,48.1627 60.3119,48.1627" stroke="#0080ff" stroke-width="2" /><polyline fill="none" points="59.0102,43.3898 59.0102,43.3898" stroke="#00d4ff" stroke-width="2" /><polyline fill="none" points="66.3864,52.9356 67.2542,64.6508 61.6136,74.1966" stroke="#36ffc0" stroke-width="2" /><polyline fill="none" points="70.2915,63.3492 70.2915,67.6881 73.7627,76.8" stroke="#7cff79" stroke-width="2" /><polyline fill="none" points="79.8373,59.4441 97.6271,60.7458 119.322,60.7458" stroke="#c0ff36" stroke-width="2" /><polyline fill="none" points="80.2712,69.4237 88.0814,69.4237 111.5119,74.6305" stroke="#ffe500" stroke-width="2" /><polyline fill="none" points="78.9695,75.4983 98.4949,80.7051 110.2102,85.9119" stroke="#ff9400" stroke-width="2" /><polyline fill="none" points="49.0305,65.9525 44.6915,64.6508 8.678,64.6508" stroke="#ff4600" stroke-width="2" /><polyline fill="none" points="52.9356,71.1593 23.8644,86.3458 13.4508,95.0237" stroke="#de0000" stroke-width="2" /><polyline fill="none" points="61.1797,74.6305 55.539,78.5356 38.1831,95.8915 32.9763,104.5695" stroke="#7f0000" stroke-width="2" /></svg>