<?xml version="1.0" encoding="utf-8" ?>
<svg baseProfile="tiny" height="128" version="1.2" viewBox="0,0,128,128" width="128" xmlns="http://www.w3.org/2000/svg" xmlns:ev="http://www.w3.org/2001/xml-events" xmlns:xlink="http://www.w3.org/1999/xlink"><defs /><polyline fill="none" points="22.9966,37.7492 26.0339,31.2407 27.7695,16.0542 30.3729,16.4881 40.3525,29.0712 49.4644,22.5627 59.0102,19.5254 67.2542,19.0915 78.1017,21.6949 91.1186,8.678 92.4203,10.8475 91.9864,26.4678 96.7593,42.9559 96.3254,49.8983 89.8169,62.0475 76.3661,74.1966 68.5559,76.8 55.1051,77.6678 46.861,77.2339 41.6542,74.6305 29.939,59.0102 25.6,47.7288 26.0339,40.3525" stroke="#00007f" stroke-width="2" /><polyline fill="none" points="46.861,41.2203 49.8983,46.4271 51.2,43.8237 48.1627,40.3525 45.5593,46.861 48.1627,43.3898" stroke="#0000de" stroke-width="2" /><polyline fill="none" points="68.9898,44.2576 74.1966,48.1627 75.9322,45.9932 67.6881,43.8237" stroke="#0028ff" stroke-width="2" /><polyline fill="none" points="61.6136,62.4814 59.0102,61.1797 59.4441,59.0102 65.5186,58.5763 64.6508,63.3492 61.1797,62.4814 61.6136,59.4441" stroke="#0080ff" stroke-width="2" /><polyline fill="none" points="63.3492,62.4814 57.7085,66.8203 48.1627,67.2542 45.1254,65.0847 45.5593,62.4814 46.861,61.6136" stroke="#00d4ff" stroke-width="2" /><polyline fill="none" points="63.7831,63.7831 67.6881,66.8203 74.6305,67.2542 82.8746,65.5186 85.478,62.9153 85.9119,60.3119" stroke="#36ffc0" stroke-width="2" /><polyline fill="none" points="78.1017,50.7661 108.4746,42.522 118.4542,38.1831" stroke="#7cff79" stroke-width="2" /><polyline fill="none" points="77.6678,52.5017 79.8373,53.8034 91.9864,53.3695 119.322,49.0305" stroke="#c0ff36" stroke-width="2" /><polyline fill="none" points="74.6305,57.7085 84.1763,62.4814 100.2305,67.6881 113.6814,75.4983" stroke="#ffe500" stroke-width="2" /><polyline fill="none" points="54.6712,59.4441 14.7525,59.0102 8.678,62.0475" stroke="#ff9400" stroke-width="2" /><polyline fill="none" points="47.2949,60.3119 21.261,72.0271 13.0169,77.2339" stroke="#ff4600" stroke-width="2" /><polyline fill="none" points="48.5966,58.5763 46.4271,62.0475 15.1864,93.722" stroke="#de0000" stroke-width="2" /><polyline fill="none" points="44.6915,78.9695 41.6542,82.4407" stroke="#7f0000" stroke-width="2" /></svg>