<?xml version="1.0" encoding="utf-8" ?>
<svg baseProfile="tiny" height="128" version="1.2" viewBox="0,0,128,128" width="128" xmlns="http://www.w3.org/2000/svg" xmlns:ev="http://www.w3.org/2001/xml-events" xmlns:xlink="http://www.w3.org/1999/xlink"><defs /><polyline fill="none" points="62.4814,117.5864 52.9356,116.7186 47.2949,112.8136 41.2203,106.3051 34.7119,94.5898 25.1661,56.4068 25.1661,44.2576 31.2407,26.9017 42.0881,8.678 65.0847,42.9559 70.7254,33.4102 80.2712,23.4305 92.8542,17.3559 101.0983,39.0508 103.2678,54.6712 99.3627,67.6881 96.7593,72.8949 82.4407,84.6102 70.7254,99.7966 61.6136,114.9831" stroke="#00007f" stroke-width="2" /><polyline fill="none" points="74.6305,75.4983 98.9288,67.2542" stroke="#0000fe" stroke-width="2" /><polyline fill="none" points="77.2339,79.8373 85.478,84.1763 103.7017,99.7966" stroke="#0060ff" stroke-width="2" /><polyline fill="none" points="70.7254,88.5153 75.9322,95.0237 84.1763,110.6441" stroke="#00d4ff" stroke-width="2" /><polyline fill="none" points="42.0881,72.461 18.6576,50.3322" stroke="#4cffaa" stroke-width="2" /><polyline fill="none" points="39.0508,83.7424 24.2983,89.3831 8.678,98.9288" stroke="#aaff4c" stroke-width="2" /><polyline fill="none" points="34.278,97.1932 29.0712,99.3627 18.6576,108.0407 10.4136,119.322" stroke="#ffe500" stroke-width="2" /><polyline fill="none" points="56.4068,76.3661 58.1424,77.2339 56.4068,72.0271" stroke="#ff7a00" stroke-width="2" /><polyline fill="none" points="58.1424,79.8373 56.8407,95.4576 51.2,97.6271 46.4271,96.3254" stroke="#fe1200" stroke-width="2" /><polyline fill="none" points="57.2746,94.1559 57.2746,94.1559" stroke="#7f0000" stroke-width="2" /></svg>