<?xml version="1.0" encoding="utf-8" ?>
<svg baseProfile="tiny" height="128" version="1.2" viewBox="0,0,128,128" width="128" xmlns="http://www.w3.org/2000/svg" xmlns:ev="http://www.w3.org/2001/xml-events" xmlns:xlink="http://www.w3.org/1999/xlink"><defs /><polyline fill="none" points="20.3932,41.2203 9.5458,58.1424 9.1119,74.6305 11.2814,86.3458 14.3186,94.5898 23.8644,112.3797 29.0712,117.1525 35.1458,119.322 40.7864,117.1525 60.7458,103.7017 72.8949,91.9864 83.7424,78.5356 86.7797,72.461 88.5153,62.4814 88.5153,52.0678 87.6475,48.5966 85.0441,45.5593 68.122,38.1831 31.2407,37.3153 16.4881,39.0508" stroke="#00007f" stroke-width="2" /><polyline fill="none" points="17.3559,39.4847 20.8271,29.5051 21.6949,8.678 27.3356,12.1492 36.4475,29.5051 39.4847,32.1085" stroke="#0000fe" stroke-width="2" /><polyline fill="none" points="69.4237,36.0136 83.7424,28.6373 97.6271,23.4305 87.6475,41.2203" stroke="#0060ff" stroke-width="2" /><polyline fill="none" points="36.4475,76.3661 37.7492,80.7051 39.4847,81.139 42.9559,75.0644 41.2203,73.7627 36.0136,73.7627" stroke="#00d4ff" stroke-width="2" /><polyline fill="none" points="40.7864,74.6305 53.8034,74.1966 69.4237,70.2915" stroke="#4cffaa" stroke-width="2" /><polyline fill="none" points="40.3525,76.3661 48.5966,77.6678 67.2542,78.1017" stroke="#aaff4c" stroke-width="2" /><polyline fill="none" points="39.4847,76.8 44.6915,78.9695 50.7661,85.0441" stroke="#ffe500" stroke-width="2" /><polyline fill="none" points="34.278,72.461 18.2237,60.3119 8.678,55.9729" stroke="#ff7a00" stroke-width="2" /><polyline fill="none" points="19.0915,70.7254 44.2576,77.6678 60.3119,78.9695" stroke="#fe1200" stroke-width="2" /><polyline fill="none" points="36.0136,79.4034 20.3932,85.9119 15.1864,89.8169" stroke="#7f0000" stroke-width="2" /></svg>