<?xml version="1.0" encoding="utf-8" ?>
<svg baseProfile="tiny" height="128" version="1.2" viewBox="0,0,128,128" width="128" xmlns="http://www.w3.org/2000/svg" xmlns:ev="http://www.w3.org/2001/xml-events" xmlns:xlink="http://www.w3.org/1999/xlink"><defs /><polyline fill="none" points="31.6746,42.9559 19.5254,16.0542 18.2237,8.678 24.7322,10.4136 55.9729,29.939" stroke="#00007f" stroke-width="2" /><polyline fill="none" points="87.6475,35.5797 90.2508,27.7695 103.2678,13.0169 105.4373,13.0169 119.322,33.8441" stroke="#0000d5" stroke-width="2" /><polyline fill="none" points="111.078,42.9559 113.6814,58.5763 112.3797,72.8949 104.1356,86.3458 98.061,93.2881 90.2508,98.4949 81.5729,103.7017 61.6136,107.1729 41.2203,106.739 32.1085,105.0034 23.8644,101.0983 18.2237,96.7593 11.7153,84.1763 10.8475,67.2542 13.0169,58.1424 16.922,50.7661 34.278,33.8441 49.0305,25.1661 65.0847,23.4305 75.4983,24.2983 85.0441,27.3356 100.6644,35.5797" stroke="#001cff" stroke-width="2" /><polyline fill="none" points="58.5763,69.4237 52.0678,73.7627 69.4237,78.1017 58.1424,68.9898" stroke="#006cff" stroke-width="2" /><polyline fill="none" points="58.5763,79.8373 55.539,87.2136" stroke="#00b8ff" stroke-width="2" /><polyline fill="none" points="73.3288,88.5153 71.1593,95.4576 68.122,98.061 61.6136,101.9661 58.1424,102.4 48.1627,102.4 42.9559,100.6644 36.4475,95.4576 32.9763,91.1186" stroke="#1cffda" stroke-width="2" /><polyline fill="none" points="51.2,73.7627 8.678,69.4237" stroke="#5cff9a" stroke-width="2" /><polyline fill="none" points="44.2576,80.2712 44.6915,78.5356 37.3153,76.8 25.6,76.8 16.4881,79.8373" stroke="#9aff5c" stroke-width="2" /><polyline fill="none" points="52.9356,72.461 53.8034,69.4237 61.1797,69.4237 90.2508,74.6305" stroke="#daff1c" stroke-width="2" /><polyline fill="none" points="70.7254,79.8373 82.8746,78.1017 94.5898,80.2712" stroke="#ffcb00" stroke-width="2" /><polyline fill="none" points="34.7119,42.9559 44.6915,41.6542 49.8983,44.2576 51.6339,46.861 52.0678,52.5017 50.3322,54.2373 47.2949,55.9729 41.6542,55.9729 39.9186,49.0305 42.0881,47.7288" stroke="#ff8500" stroke-width="2" /><polyline fill="none" points="45.9932,51.6339 40.3525,51.6339" stroke="#ff3b00" stroke-width="2" /><polyline fill="none" points="74.1966,51.2 78.9695,47.2949 81.5729,46.861 85.9119,46.4271 91.1186,49.0305 92.4203,57.7085 89.3831,59.878 82.8746,60.7458 78.9695,59.0102 75.4983,53.3695" stroke="#d50000" stroke-width="2" /><polyline fill="none" points="88.5153,53.8034 88.5153,53.8034" stroke="#7f0000" stroke-width="2" /></svg>