<?xml version="1.0" encoding="utf-8" ?>
<svg baseProfile="tiny" height="128" version="1.2" viewBox="0,0,128,128" width="128" xmlns="http://www.w3.org/2000/svg" xmlns:ev="http://www.w3.org/2001/xml-events" xmlns:xlink="http://www.w3.org/1999/xlink"><defs /><polyline fill="none" points="102.3129,37.8776 95.7823,25.2517 91.4286,38.3129 84.4626,40.4898 81.415,34.3946 76.1905,28.7347 74.449,30.9116 73.5782,53.9864 78.8027,62.2585 85.3333,67.0476 96.6531,64.4354 99.7007,59.6463 102.3129,53.1156 103.619,40.4898 101.4422,37.8776 97.9592,40.4898" stroke="#00007f" stroke-width="2" /><polyline fill="none" points="96.2177,49.1973 90.1224,50.9388 94.4762,54.4218 96.2177,52.6803 96.2177,47.4558" stroke="#0000c8" stroke-width="2" /><polyline fill="none" points="95.7823,53.9864 94.9116,58.7755 89.6871,58.7755 86.6395,56.1633" stroke="#0000ff" stroke-width="2" /><polyline fill="none" points="94.4762,56.5986 97.9592,57.034 101.0068,54.4218 102.7483,49.1973 100.5714,46.585" stroke="#0040ff" stroke-width="2" /><polyline fill="none" points="82.2857,47.0204 82.7211,50.5034" stroke="#0080ff" stroke-width="2" /><polyline fill="none" points="89.6871,44.8435 89.2517,50.5034" stroke="#00c0ff" stroke-width="2" /><polyline fill="none" points="71.8367,51.8095 65.7415,49.6327 26.5578,49.1973 19.1565,53.1156 15.2381,58.3401 13.932,67.483 18.2857,72.7075 26.9932,72.2721 27.8639,65.7415 33.0884,64.8707 67.0476,64.8707 67.0476,70.0952 73.1429,79.6735 80.5442,77.0612 82.2857,73.1429 82.2857,63.5646" stroke="#15ffe1" stroke-width="2" /><polyline fill="none" points="66.6122,64.0 66.6122,69.2245 61.8231,76.1905 56.1633,75.3197 52.6803,67.9184 52.2449,62.6939" stroke="#49ffad" stroke-width="2" /><polyline fill="none" points="37.4422,64.8707 33.9592,74.449 24.381,70.966 24.381,66.6122" stroke="#7cff79" stroke-width="2" /><polyline fill="none" points="25.6871,50.5034 25.2517,37.4422 30.4762,13.4966 24.8163,8.7075 14.8027,9.5782 8.7075,14.3673 8.7075,41.3605 13.4966,54.8571 20.0272,56.5986" stroke="#b0ff46" stroke-width="2" /><polyline fill="none" points="81.415,55.2925 61.3878,54.4218" stroke="#e4ff12" stroke-width="2" /><polyline fill="none" points="82.7211,54.4218 73.1429,58.7755 66.1769,63.5646" stroke="#ffcf00" stroke-width="2" /><polyline fill="none" points="79.2381,61.8231 70.966,66.6122" stroke="#ff9400" stroke-width="2" /><polyline fill="none" points="101.0068,49.6327 115.3741,47.8912 119.2925,48.7619 114.9388,49.6327" stroke="#ff5900" stroke-width="2" /><polyline fill="none" points="98.8299,53.551 107.102,53.551 110.585,56.5986" stroke="#ff1d00" stroke-width="2" /><polyline fill="none" points="97.9592,57.034 102.7483,57.4694 109.2789,61.8231 107.9728,63.5646" stroke="#c30000" stroke-width="2" /><polyline fill="none" points="57.034,51.3741 57.034,51.3741" stroke="#7f0000" stroke-width="2" /></svg>