<?xml version="1.0" encoding="utf-8" ?>
<svg baseProfile="tiny" height="128" version="1.2" viewBox="0,0,128,128" width="128" xmlns="http://www.w3.org/2000/svg" xmlns:ev="http://www.w3.org/2001/xml-events" xmlns:xlink="http://www.w3.org/1999/xlink"><defs /><polyline fill="none" points="39.9186,34.7119 39.9186,68.122 41.2203,71.1593 85.9119,72.461 101.0983,74.6305 101.9661,70.2915 99.7966,55.9729 85.9119,8.678 81.139,15.6203 74.6305,31.2407 61.1797,33.8441 52.0678,32.9763 44.6915,15.6203 41.2203,12.5831 36.4475,33.4102" stroke="#00007f" stroke-width="2" /><polyline fill="none" points="42.0881,32.9763 43.3898,24.2983 45.1254,21.261 47.7288,31.6746 43.8237,32.9763" stroke="#0000ff" stroke-width="2" /><polyline fill="none" points="81.5729,31.2407 84.1763,22.9966 87.2136,32.9763 82.0068,32.5424" stroke="#0080ff" stroke-width="2" /><polyline fill="none" points="63.3492,49.4644 65.5186,51.6339 67.2542,49.4644 65.0847,49.0305" stroke="#15ffe1" stroke-width="2" /><polyline fill="none" points="59.878,49.4644 44.2576,48.5966 8.678,41.6542" stroke="#7cff79" stroke-width="2" /><polyline fill="none" points="52.5017,49.4644 49.8983,53.8034 33.4102,62.0475" stroke="#e4ff12" stroke-width="2" /><polyline fill="none" points="72.461,49.0305 83.7424,40.7864 108.0407,29.939" stroke="#ff9400" stroke-width="2" /><polyline fill="none" points="73.7627,51.6339 106.739,61.1797 119.322,63.3492" stroke="#ff1d00" stroke-width="2" /><polyline fill="none" points="49.0305,45.5593 51.6339,41.2203 55.1051,38.6169 57.2746,39.9186 57.7085,45.5593" stroke="#7f0000" stroke-width="2" /></svg>