<?xml version="1.0" encoding="utf-8" ?>
<svg baseProfile="tiny" height="128" version="1.2" viewBox="0,0,128,128" width="128" xmlns="http://www.w3.org/2000/svg" xmlns:ev="http://www.w3.org/2001/xml-events" xmlns:xlink="http://www.w3.org/1999/xlink"><defs /><polyline fill="none" points="108.8435,53.1156 102.7483,49.1973 90.5578,47.4558 78.8027,47.8912 67.9184,53.9864 63.1293,64.0 62.6939,68.7891 65.3061,76.6259 68.3537,81.415 77.4966,88.8163 87.9456,90.9932 98.8299,87.5102 108.8435,81.415 114.9388,75.3197 115.8095,71.4014 114.068,65.7415 107.9728,58.3401 97.9592,53.1156 91.4286,54.4218" stroke="#00007f" stroke-width="2" /><polyline fill="none" points="66.6122,67.483 74.449,74.449" stroke="#0010ff" stroke-width="2" /><polyline fill="none" points="71.4014,67.0476 64.0,21.7687 68.3537,27.4286 78.8027,49.6327 80.5442,48.3265" stroke="#00a4ff" stroke-width="2" /><polyline fill="none" points="104.4898,53.1156 104.0544,46.1497 108.4082,29.1701 113.6327,15.6735 119.2925,8.7075 118.8571,36.5714 113.6327,61.8231" stroke="#3fffb7" stroke-width="2" /><polyline fill="none" points="82.2857,65.3061 79.6735,68.7891 80.9796,72.7075 82.7211,72.7075 83.1565,70.0952 81.415,68.7891 80.1088,70.5306 80.9796,71.8367" stroke="#b7ff3f" stroke-width="2" /><polyline fill="none" points="101.8776,68.3537 99.7007,70.966 99.7007,73.5782 100.1361,75.7551 102.3129,75.3197 102.7483,69.2245 101.0068,71.8367 101.8776,74.449 103.1837,74.0136" stroke="#ffb900" stroke-width="2" /><polyline fill="none" points="84.0272,81.415 84.0272,83.5918 88.8163,87.0748 95.7823,86.6395" stroke="#ff3000" stroke-width="2" /><polyline fill="none" points="66.6122,70.0952 63.5646,60.9524 58.3401,59.2109 50.068,61.3878 38.7483,66.6122 27.8639,75.7551 20.0272,84.4626 10.449,98.3946 8.7075,101.8776 10.449,104.0544" stroke="#7f0000" stroke-width="2" /></svg>