<?xml version="1.0" encoding="utf-8" ?>
<svg baseProfile="tiny" height="128" version="1.2" viewBox="0,0,128,128" width="128" xmlns="http://www.w3.org/2000/svg" xmlns:ev="http://www.w3.org/2001/xml-events" xmlns:xlink="http://www.w3.org/1999/xlink"><defs /><polyline fill="none" points="28.2034,33.8441 26.0339,13.4508 35.1458,19.9593 42.522,16.922 52.0678,14.7525 58.5763,14.7525 64.6508,16.922 76.8,8.678 77.2339,14.3186 75.0644,23.4305 84.6102,36.4475 85.9119,47.7288 82.0068,58.1424 74.6305,65.5186 60.7458,70.2915 46.4271,68.9898 36.4475,63.3492 29.0712,49.8983 26.0339,37.7492 28.2034,27.7695" stroke="#00007f" stroke-width="2" /><polyline fill="none" points="37.7492,30.3729 39.0508,34.7119" stroke="#0000d5" stroke-width="2" /><polyline fill="none" points="61.6136,28.6373 62.0475,33.8441" stroke="#001cff" stroke-width="2" /><polyline fill="none" points="48.5966,47.7288 46.4271,49.0305 45.5593,47.2949 47.7288,42.522 52.0678,41.2203 53.8034,42.0881 52.9356,47.2949 49.8983,48.1627 43.3898,53.3695 38.1831,54.2373" stroke="#006cff" stroke-width="2" /><polyline fill="none" points="51.2,47.2949 56.8407,51.2 63.3492,51.6339 68.9898,49.0305 71.1593,45.9932" stroke="#00b8ff" stroke-width="2" /><polyline fill="none" points="85.0441,47.7288 90.2508,74.6305" stroke="#1cffda" stroke-width="2" /><polyline fill="none" points="40.7864,66.3864 37.7492,78.5356 37.7492,82.4407 39.0508,84.1763" stroke="#5cff9a" stroke-width="2" /><polyline fill="none" points="36.0136,47.2949 24.7322,45.9932 9.1119,45.9932" stroke="#9aff5c" stroke-width="2" /><polyline fill="none" points="29.0712,51.2 30.3729,51.2" stroke="#daff1c" stroke-width="2" /><polyline fill="none" points="36.0136,50.3322 8.678,59.878" stroke="#ffcb00" stroke-width="2" /><polyline fill="none" points="33.4102,56.8407 30.3729,59.878 19.5254,65.9525" stroke="#ff8500" stroke-width="2" /><polyline fill="none" points="76.3661,42.522 100.2305,25.1661" stroke="#ff3b00" stroke-width="2" /><polyline fill="none" points="77.6678,47.7288 91.1186,42.522 108.0407,38.6169" stroke="#d50000" stroke-width="2" /><polyline fill="none" points="77.2339,51.6339 111.9458,51.2 119.322,52.5017" stroke="#7f0000" stroke-width="2" /></svg>