<?xml version="1.0" encoding="utf-8" ?>
<svg baseProfile="tiny" height="128" version="1.2" viewBox="0,0,128,128" width="128" xmlns="http://www.w3.org/2000/svg" xmlns:ev="http://www.w3.org/2001/xml-events" xmlns:xlink="http://www.w3.org/1999/xlink"><defs /><polyline fill="none" points="41.6542,59.878 32.9763,58.1424 24.2983,59.4441 16.4881,65.9525 9.5458,81.139 8.678,98.4949 12.1492,108.9085 19.9593,117.1525 28.2034,118.8881 44.2576,119.322 54.2373,115.8508 61.1797,110.2102 65.0847,102.8339 64.6508,85.478 59.0102,74.1966 53.3695,68.122 45.9932,65.0847 35.1458,64.2169" stroke="#00007f" stroke-width="2" /><polyline fill="none" points="43.3898,69.8576 43.8237,63.7831 48.5966,53.3695 52.0678,48.5966 54.6712,47.2949 57.2746,52.5017 58.1424,69.8576" stroke="#0000de" stroke-width="2" /><polyline fill="none" points="26.0339,65.9525 22.9966,63.7831 15.1864,50.3322 13.4508,55.1051 15.1864,74.6305" stroke="#0028ff" stroke-width="2" /><polyline fill="none" points="22.5627,88.9492 23.8644,84.1763 26.0339,83.7424 25.6,86.3458" stroke="#0080ff" stroke-width="2" /><polyline fill="none" points="46.861,91.5525 45.1254,84.1763 51.2,79.4034 52.9356,80.2712" stroke="#00d4ff" stroke-width="2" /><polyline fill="none" points="49.8983,93.2881 59.4441,89.8169 67.6881,88.9492" stroke="#36ffc0" stroke-width="2" /><polyline fill="none" points="52.0678,99.3627 61.1797,98.9288" stroke="#7cff79" stroke-width="2" /><polyline fill="none" points="58.1424,102.4 64.6508,105.8712" stroke="#c0ff36" stroke-width="2" /><polyline fill="none" points="29.939,91.5525 24.2983,90.6847 21.261,91.9864 15.6203,96.7593 14.3186,100.6644" stroke="#ffe500" stroke-width="2" /><polyline fill="none" points="25.6,97.6271 22.5627,101.5322 19.9593,109.3424" stroke="#ff9400" stroke-width="2" /><polyline fill="none" points="27.3356,107.6068 26.4678,114.1153" stroke="#ff4600" stroke-width="2" /><polyline fill="none" points="37.3153,97.6271 39.4847,101.5322 43.8237,104.5695 44.2576,100.6644 41.6542,98.9288" stroke="#de0000" stroke-width="2" /><polyline fill="none" points="29.0712,55.539 29.0712,51.2 35.1458,28.6373 35.5797,19.9593 34.278,11.2814 29.5051,8.678" stroke="#7f0000" stroke-width="2" /></svg>