<?xml version="1.0" encoding="utf-8" ?>
<svg baseProfile="tiny" height="128" version="1.2" viewBox="0,0,128,128" width="128" xmlns="http://www.w3.org/2000/svg" xmlns:ev="http://www.w3.org/2001/xml-events" xmlns:xlink="http://www.w3.org/1999/xlink"><defs /><polyline fill="none" points="87.5102,40.0544 87.5102,40.0544" stroke="#00007f" stroke-width="2" /><polyline fill="none" points="77.932,35.2653 69.2245,31.3469 60.517,29.6054 43.9728,31.7823 37.4422,18.7211 29.1701,8.7075 26.9932,29.1701 24.8163,36.5714 20.0272,46.585 19.5918,52.6803 22.6395,63.5646 30.0408,72.2721 48.3265,81.415 63.1293,83.5918 81.8503,81.415 94.9116,75.7551 98.3946,71.4014 99.7007,63.5646 97.0884,54.4218 87.9456,40.0544 90.9932,14.3673 82.2857,26.5578 75.3197,33.0884" stroke="#0028ff" stroke-width="2" /><polyline fill="none" points="69.6599,40.4898 68.7891,49.1973" stroke="#00d4ff" stroke-width="2" /><polyline fill="none" points="56.5986,40.9252 56.5986,47.0204" stroke="#7cff79" stroke-width="2" /><polyline fill="none" points="78.3673,53.1156 74.0136,61.3878 68.3537,64.8707 60.9524,63.1293 54.8571,56.5986" stroke="#ffe500" stroke-width="2" /><polyline fill="none" points="65.7415,51.8095 63.5646,49.1973" stroke="#ff4600" stroke-width="2" /><polyline fill="none" points="41.7959,73.1429 38.7483,79.2381 35.2653,82.7211 20.0272,84.4626 15.6735,85.7687 11.7551,89.6871 9.5782,95.3469 8.7075,101.0068 11.3197,107.9728 19.1565,114.068 30.9116,117.551 41.7959,119.2925 64.0,119.2925 76.1905,117.1156 88.8163,112.3265 91.8639,105.3605 92.2993,95.7823 90.1224,88.381 84.0272,80.1088" stroke="#7f0000" stroke-width="2" /></svg>