<?xml version="1.0" encoding="utf-8" ?>
<svg baseProfile="tiny" height="128" version="1.2" viewBox="0,0,128,128" width="128" xmlns="http://www.w3.org/2000/svg" xmlns:ev="http://www.w3.org/2001/xml-events" xmlns:xlink="http://www.w3.org/1999/xlink"><defs /><polyline fill="none" points="100.6644,76.8 95.4576,69.8576 87.2136,65.9525 82.0068,65.0847 70.7254,64.2169 55.1051,65.9525 36.4475,70.7254 20.8271,77.6678 11.2814,86.7797 8.678,95.8915 13.4508,106.3051 19.0915,111.078 28.6373,115.8508 44.6915,118.4542 56.8407,119.322 65.9525,118.0203 70.7254,116.2847 77.6678,111.5119 85.9119,82.8746 87.2136,61.1797 85.9119,55.1051" stroke="#00007f" stroke-width="2" /><polyline fill="none" points="70.7254,62.0475 71.5932,58.5763 81.5729,42.9559 103.2678,17.3559 108.0407,8.678 109.7763,13.4508 109.7763,36.8814 107.6068,50.3322 101.9661,65.9525 91.9864,78.1017" stroke="#0000ff" stroke-width="2" /><polyline fill="none" points="39.9186,66.3864 35.5797,49.4644 23.4305,20.3932 20.3932,24.2983 19.0915,34.7119 20.3932,83.7424" stroke="#0080ff" stroke-width="2" /><polyline fill="none" points="29.5051,69.4237 27.3356,62.0475 27.3356,55.539 32.5424,67.2542" stroke="#15ffe1" stroke-width="2" /><polyline fill="none" points="85.0441,59.4441 85.9119,55.1051 92.8542,48.5966 91.9864,52.9356 85.0441,60.7458" stroke="#7cff79" stroke-width="2" /><polyline fill="none" points="37.3153,83.7424 37.7492,83.7424" stroke="#e4ff12" stroke-width="2" /><polyline fill="none" points="56.8407,81.139 55.9729,81.139" stroke="#ff9400" stroke-width="2" /><polyline fill="none" points="46.861,91.9864 46.4271,91.9864" stroke="#ff1d00" stroke-width="2" /><polyline fill="none" points="36.0136,93.722 19.9593,96.3254" stroke="#7f0000" stroke-width="2" /></svg>