<?xml version="1.0" encoding="utf-8" ?>
<svg baseProfile="tiny" height="128" version="1.2" viewBox="0,0,128,128" width="128" xmlns="http://www.w3.org/2000/svg" xmlns:ev="http://www.w3.org/2001/xml-events" xmlns:xlink="http://www.w3.org/1999/xlink"><defs /><polyline fill="none" points="13.4508,59.0102 12.1492,42.0881 14.3186,16.0542 18.2237,18.6576 27.3356,31.6746 34.7119,47.2949" stroke="#00007f" stroke-width="2" /><polyline fill="none" points="14.7525,59.0102 29.5051,49.4644 49.8983,44.6915 72.461,48.1627 87.6475,52.5017 94.5898,57.2746" stroke="#0010ff" stroke-width="2" /><polyline fill="none" points="62.4814,43.8237 62.4814,41.2203 68.5559,30.8068 79.8373,13.8847 85.0441,8.678 86.3458,12.5831 83.3085,47.2949" stroke="#00a4ff" stroke-width="2" /><polyline fill="none" points="14.3186,57.2746 8.678,75.0644 9.1119,87.6475 17.3559,102.4 22.9966,106.739 38.6169,111.5119 64.6508,103.2678 83.7424,91.9864 87.2136,78.9695 93.2881,66.3864 93.2881,58.5763 94.5898,57.2746" stroke="#3fffb7" stroke-width="2" /><polyline fill="none" points="54.6712,57.7085 67.2542,59.0102" stroke="#b7ff3f" stroke-width="2" /><polyline fill="none" points="36.0136,62.0475 24.7322,65.9525" stroke="#ffb900" stroke-width="2" /><polyline fill="none" points="65.9525,75.9322 75.4983,73.7627 95.8915,72.461" stroke="#ff3000" stroke-width="2" /><polyline fill="none" points="67.6881,84.1763 82.4407,81.139 119.322,78.1017" stroke="#7f0000" stroke-width="2" /></svg>