<?xml version="1.0" encoding="utf-8" ?>
<svg baseProfile="tiny" height="128" version="1.2" viewBox="0,0,128,128" width="128" xmlns="http://www.w3.org/2000/svg" xmlns:ev="http://www.w3.org/2001/xml-events" xmlns:xlink="http://www.w3.org/1999/xlink"><defs /><polyline fill="none" points="57.2746,51.6339 52.0678,22.9966 41.6542,36.4475 39.0508,42.522 33.8441,40.7864 18.2237,43.3898" stroke="#00007f" stroke-width="2" /><polyline fill="none" points="16.922,43.3898 9.5458,23.8644" stroke="#0000cc" stroke-width="2" /><polyline fill="none" points="18.2237,46.861 15.6203,43.3898 9.9797,24.2983 8.678,44.2576 10.4136,66.3864 14.7525,73.3288 29.0712,78.5356 33.8441,78.9695 43.8237,77.2339 49.0305,75.0644 52.5017,72.0271 55.539,60.7458 54.6712,56.4068 52.0678,52.0678" stroke="#0008ff" stroke-width="2" /><polyline fill="none" points="27.7695,56.4068 22.9966,58.1424 27.3356,67.2542 33.8441,64.2169 29.5051,54.2373" stroke="#004cff" stroke-width="2" /><polyline fill="none" points="27.7695,65.0847 26.4678,71.5932 24.2983,72.8949 20.8271,73.3288 18.6576,71.5932" stroke="#0090ff" stroke-width="2" /><polyline fill="none" points="22.9966,61.6136 33.4102,74.1966 39.0508,75.0644 40.7864,71.1593" stroke="#00d4ff" stroke-width="2" /><polyline fill="none" points="36.0136,42.9559 38.1831,53.8034" stroke="#29ffcd" stroke-width="2" /><polyline fill="none" points="9.9797,46.861 12.1492,55.9729" stroke="#5fff96" stroke-width="2" /><polyline fill="none" points="16.4881,45.9932 18.6576,55.1051" stroke="#96ff5f" stroke-width="2" /><polyline fill="none" points="49.0305,47.7288 47.2949,32.9763 43.8237,37.7492 42.9559,46.861" stroke="#cdff29" stroke-width="2" /><polyline fill="none" points="9.1119,49.4644 10.8475,41.2203 10.4136,36.0136 12.1492,45.9932" stroke="#ffe500" stroke-width="2" /><polyline fill="none" points="55.9729,51.6339 68.9898,49.8983" stroke="#ffa600" stroke-width="2" /><polyline fill="none" points="59.0102,48.1627 75.4983,45.5593" stroke="#ff6700" stroke-width="2" /><polyline fill="none" points="63.7831,45.1254 86.7797,52.5017" stroke="#ff2800" stroke-width="2" /><polyline fill="none" points="71.5932,49.0305 83.3085,52.9356 88.5153,52.9356 99.7966,58.1424 104.1356,56.8407 108.0407,53.3695" stroke="#cc0000" stroke-width="2" /><polyline fill="none" points="95.0237,50.3322 105.0034,48.5966 114.5492,42.9559 115.8508,39.0508 115.4169,32.1085 108.4746,22.5627 98.9288,13.4508 91.5525,9.5458 84.6102,8.678 109.3424,9.9797 115.4169,13.8847 119.322,20.3932 118.0203,64.2169 110.2102,77.6678 108.4746,91.9864 109.7763,98.9288 108.0407,100.2305 98.9288,99.3627 91.9864,89.8169 92.4203,82.0068 90.6847,77.6678 83.3085,72.0271 80.7051,78.5356 81.139,82.0068 84.1763,89.8169 91.9864,96.7593 88.9492,98.061 78.5356,98.061 74.6305,96.7593 70.7254,82.8746 65.9525,77.6678 59.4441,79.8373 58.1424,81.5729 57.2746,91.5525 53.8034,97.1932 50.3322,98.4949 45.1254,95.8915 42.522,89.8169 41.6542,80.2712 42.0881,84.6102 40.3525,87.2136 30.3729,95.0237 25.6,91.9864 23.8644,88.5153 22.5627,78.1017" stroke="#7f0000" stroke-width="2" /></svg>