<?xml version="1.0" encoding="utf-8" ?>
<svg baseProfile="tiny" height="128" version="1.2" viewBox="0,0,128,128" width="128" xmlns="http://www.w3.org/2000/svg" xmlns:ev="http://www.w3.org/2001/xml-events" xmlns:xlink="http://www.w3.org/1999/xlink"><defs /><polyline fill="none" points="58.5763,22.1288 53.8034,19.5254 42.0881,19.0915 22.1288,27.3356 16.922,36.8814 14.3186,50.3322 14.7525,57.2746 22.5627,73.7627 34.7119,84.6102 49.4644,91.1186 54.6712,91.1186 62.4814,87.2136 71.5932,79.4034 79.4034,67.2542 81.5729,58.5763 81.5729,50.3322 78.9695,43.8237 70.7254,32.1085 66.3864,27.7695 58.5763,23.8644" stroke="#00007f" stroke-width="2" /><polyline fill="none" points="24.2983,52.0678 35.5797,59.4441 49.0305,62.9153" stroke="#0000d1" stroke-width="2" /><polyline fill="none" points="49.0305,62.9153 33.8441,62.9153 22.9966,65.0847" stroke="#0010ff" stroke-width="2" /><polyline fill="none" points="46.861,67.2542 22.9966,71.5932" stroke="#0058ff" stroke-width="2" /><polyline fill="none" points="60.3119,65.9525 71.5932,60.7458 96.3254,54.2373" stroke="#00a4ff" stroke-width="2" /><polyline fill="none" points="58.5763,64.6508 117.5864,65.5186 119.322,66.8203" stroke="#05ecf1" stroke-width="2" /><polyline fill="none" points="63.3492,67.2542 65.9525,70.2915 75.9322,73.7627 82.4407,78.1017" stroke="#3fffb7" stroke-width="2" /><polyline fill="none" points="56.4068,59.878 52.0678,61.6136 49.8983,63.7831 50.3322,65.5186 54.6712,69.8576 59.0102,70.7254 63.7831,68.5559 64.6508,62.0475 50.7661,59.0102" stroke="#7cff79" stroke-width="2" /><polyline fill="none" points="37.7492,33.4102 35.5797,36.0136 37.3153,40.3525 42.0881,41.6542 43.8237,39.4847 43.8237,34.7119 39.4847,34.278" stroke="#b7ff3f" stroke-width="2" /><polyline fill="none" points="62.9153,40.7864 58.5763,43.3898 59.4441,47.7288 62.0475,49.0305 68.5559,49.0305 70.7254,47.2949 70.7254,42.0881 69.4237,40.3525 64.2169,39.4847" stroke="#f1fc05" stroke-width="2" /><polyline fill="none" points="44.2576,74.1966 57.2746,74.1966 59.4441,72.8949" stroke="#ffb900" stroke-width="2" /><polyline fill="none" points="22.9966,20.8271 31.2407,9.1119 33.4102,8.678 36.8814,20.3932" stroke="#ff7300" stroke-width="2" /><polyline fill="none" points="65.5186,23.8644 85.9119,16.4881 85.9119,31.6746 81.5729,43.8237" stroke="#ff3000" stroke-width="2" /><polyline fill="none" points="22.1288,20.8271 20.8271,25.1661" stroke="#d10000" stroke-width="2" /><polyline fill="none" points="8.678,53.8034 8.678,53.8034" stroke="#7f0000" stroke-width="2" /></svg>