<?xml version="1.0" encoding="utf-8" ?>
<svg baseProfile="tiny" height="128" version="1.2" viewBox="0,0,128,128" width="128" xmlns="http://www.w3.org/2000/svg" xmlns:ev="http://www.w3.org/2001/xml-events" xmlns:xlink="http://www.w3.org/1999/xlink"><defs /><polyline fill="none" points="33.0884,52.6803 68.7891,33.0884 108.4082,52.2449 113.1973,71.8367 82.2857,119.2925 29.1701,109.2789 20.898,57.4694 23.5102,50.5034" stroke="#00007f" stroke-width="2" /><polyline fill="none" points="37.0068,42.2313 14.8027,30.9116 8.7075,34.8299 15.6735,77.932" stroke="#004cff" stroke-width="2" /><polyline fill="none" points="81.415,29.1701 99.7007,11.3197 104.9252,8.7075 113.6327,19.5918 114.9388,54.4218" stroke="#29ffcd" stroke-width="2" /><polyline fill="none" points="77.4966,59.2109 78.3673,68.3537" stroke="#cdff29" stroke-width="2" /><polyline fill="none" points="40.9252,67.9184 44.8435,68.3537 51.3741,76.6259" stroke="#ff6700" stroke-width="2" /><polyline fill="none" points="92.2993,72.2721 91.8639,79.6735 87.9456,91.4286 76.6259,98.8299 69.2245,84.0272 69.2245,80.5442 69.2245,87.5102 64.4354,106.2313 53.1156,102.7483 51.8095,100.5714" stroke="#7f0000" stroke-width="2" /></svg>