<?xml version="1.0" encoding="utf-8" ?>
<svg baseProfile="tiny" height="128" version="1.2" viewBox="0,0,128,128" width="128" xmlns="http://www.w3.org/2000/svg" xmlns:ev="http://www.w3.org/2001/xml-events" xmlns:xlink="http://www.w3.org/1999/xlink"><defs /><polyline fill="none" points="35.5797,114.1153 31.2407,112.8136 16.922,95.8915 13.0169,88.5153 9.9797,78.5356 8.678,52.5017 13.0169,21.261 16.4881,12.5831 25.1661,27.7695 38.1831,61.6136 78.9695,62.0475 81.139,59.4441 82.0068,49.8983 88.0814,28.2034 95.0237,11.2814 98.061,8.678 100.2305,12.5831 107.1729,37.7492 109.7763,50.7661 109.7763,74.1966 101.9661,90.6847 93.722,99.7966 83.7424,106.3051 62.4814,111.5119 41.2203,111.078 33.8441,105.4373" stroke="#00007f" stroke-width="2" /><polyline fill="none" points="47.7288,77.2339 46.861,74.1966 49.4644,72.461 50.7661,75.4983 50.7661,78.1017 47.7288,78.1017 47.7288,72.0271 49.8983,75.4983" stroke="#0080ff" stroke-width="2" /><polyline fill="none" points="83.7424,72.461 82.4407,67.6881" stroke="#7cff79" stroke-width="2" /><polyline fill="none" points="53.8034,92.4203 59.0102,85.0441 62.9153,82.4407 65.5186,82.4407 66.3864,85.478 69.8576,86.7797 75.9322,82.4407 78.9695,82.0068 80.7051,85.478" stroke="#ff9400" stroke-width="2" /><polyline fill="none" points="87.2136,119.322 87.2136,119.322" stroke="#7f0000" stroke-width="2" /></svg>