<?xml version="1.0" encoding="utf-8" ?>
<svg baseProfile="tiny" height="128" version="1.2" viewBox="0,0,128,128" width="128" xmlns="http://www.w3.org/2000/svg" xmlns:ev="http://www.w3.org/2001/xml-events" xmlns:xlink="http://www.w3.org/1999/xlink"><defs /><polyline fill="none" points="22.1288,62.4814 17.7898,63.3492 13.4508,68.5559 12.1492,81.5729 14.3186,85.478 21.6949,89.8169 28.2034,90.2508 34.278,82.4407 36.4475,73.7627 35.5797,65.9525 28.2034,62.0475 22.5627,61.6136 22.9966,63.7831" stroke="#00007f" stroke-width="2" /><polyline fill="none" points="39.4847,77.2339 36.8814,76.3661 39.4847,74.6305 59.0102,68.9898 68.9898,68.5559 72.0271,69.8576 77.6678,76.3661 78.1017,82.8746 76.8,85.9119 66.3864,92.4203 61.6136,95.0237 53.3695,96.3254 43.3898,95.8915 39.4847,91.1186 38.1831,85.0441 38.1831,78.9695 41.6542,76.3661" stroke="#0000bf" stroke-width="2" /><polyline fill="none" points="44.6915,89.3831 42.9559,101.5322 42.9559,114.5492 44.2576,117.1525 51.6339,118.0203 53.8034,114.5492 55.539,118.8881 56.8407,116.7186 59.4441,102.8339 58.5763,95.4576" stroke="#0000fe" stroke-width="2" /><polyline fill="none" points="66.8203,95.4576 68.9898,110.2102 73.3288,119.322 76.8,112.3797 76.8,103.7017 73.7627,95.4576 71.5932,92.4203 72.0271,94.5898" stroke="#0028ff" stroke-width="2" /><polyline fill="none" points="78.1017,87.6475 82.4407,104.5695 86.3458,111.5119 88.9492,113.2475 91.5525,111.9458 92.4203,107.6068 92.8542,95.0237 90.6847,90.6847 83.3085,85.9119" stroke="#0060ff" stroke-width="2" /><polyline fill="none" points="83.7424,78.9695 94.5898,109.3424 97.1932,110.2102 98.9288,107.1729 100.6644,98.9288 100.6644,91.5525 99.3627,88.9492 91.9864,84.6102 80.7051,83.3085" stroke="#009cff" stroke-width="2" /><polyline fill="none" points="78.5356,72.0271 80.2712,73.7627 86.3458,73.7627 92.4203,71.1593 94.5898,65.5186 94.5898,58.1424" stroke="#00d4ff" stroke-width="2" /><polyline fill="none" points="32.9763,58.5763 42.9559,45.9932 43.3898,57.7085 40.7864,61.6136" stroke="#1fffd7" stroke-width="2" /><polyline fill="none" points="22.9966,59.0102 12.1492,50.3322 8.678,50.3322 9.5458,71.1593" stroke="#4cffaa" stroke-width="2" /><polyline fill="none" points="23.4305,71.1593 23.4305,71.1593" stroke="#7cff79" stroke-width="2" /><polyline fill="none" points="25.1661,75.4983 23.4305,74.6305" stroke="#aaff4c" stroke-width="2" /><polyline fill="none" points="32.9763,68.5559 32.9763,68.5559" stroke="#d7ff1f" stroke-width="2" /><polyline fill="none" points="24.7322,73.7627 24.7322,73.7627" stroke="#ffe500" stroke-width="2" /><polyline fill="none" points="27.7695,66.3864 34.278,71.1593 28.2034,71.1593" stroke="#ffb100" stroke-width="2" /><polyline fill="none" points="16.0542,76.8 15.1864,84.6102 17.3559,85.478 21.261,83.7424 25.6,78.9695" stroke="#ff7a00" stroke-width="2" /><polyline fill="none" points="47.2949,88.0814 47.2949,82.4407 49.8983,77.6678 57.2746,74.6305" stroke="#ff4600" stroke-width="2" /><polyline fill="none" points="59.4441,93.2881 58.5763,88.9492 64.6508,68.9898" stroke="#fe1200" stroke-width="2" /><polyline fill="none" points="71.5932,95.4576 71.5932,86.7797 74.6305,79.8373" stroke="#bf0000" stroke-width="2" /><polyline fill="none" points="48.5966,13.4508 47.7288,26.9017 49.4644,21.261 55.1051,13.4508 60.7458,8.678 63.3492,10.8475 63.3492,19.0915" stroke="#7f0000" stroke-width="2" /></svg>