<?xml version="1.0" encoding="utf-8" ?>
<svg baseProfile="tiny" height="128" version="1.2" viewBox="0,0,128,128" width="128" xmlns="http://www.w3.org/2000/svg" xmlns:ev="http://www.w3.org/2001/xml-events" xmlns:xlink="http://www.w3.org/1999/xlink"><defs /><polyline fill="none" points="16.0542,59.0102 14.3186,40.3525 19.5254,15.6203 23.4305,30.3729 32.9763,45.5593 34.7119,52.5017 56.4068,56.8407 60.3119,32.9763 65.0847,20.8271 72.8949,8.678 86.7797,45.5593 90.6847,51.2 93.722,59.0102 94.1559,89.8169 90.6847,101.9661 86.3458,109.7763 74.1966,117.1525 61.1797,119.322 39.0508,116.2847 22.1288,108.4746 11.7153,94.5898 9.1119,81.139 8.678,72.0271 11.2814,67.2542 15.6203,64.2169 15.6203,62.0475" stroke="#00007f" stroke-width="2" /><polyline fill="none" points="33.8441,83.3085 32.1085,82.8746" stroke="#0000fe" stroke-width="2" /><polyline fill="none" points="66.8203,77.6678 68.122,78.5356" stroke="#0060ff" stroke-width="2" /><polyline fill="none" points="32.5424,80.2712 32.9763,84.6102 30.8068,84.6102 32.9763,82.8746" stroke="#00d4ff" stroke-width="2" /><polyline fill="none" points="65.0847,78.5356 67.2542,78.1017 68.122,79.8373 65.5186,76.8" stroke="#4cffaa" stroke-width="2" /><polyline fill="none" points="19.9593,91.9864 22.9966,91.5525 32.9763,98.061 36.8814,97.6271" stroke="#aaff4c" stroke-width="2" /><polyline fill="none" points="26.0339,101.9661 35.1458,101.0983" stroke="#ffe500" stroke-width="2" /><polyline fill="none" points="35.1458,115.8508 33.4102,111.078 35.5797,105.8712" stroke="#ff7a00" stroke-width="2" /><polyline fill="none" points="78.5356,88.0814 83.7424,71.5932" stroke="#fe1200" stroke-width="2" /><polyline fill="none" points="75.9322,96.3254 80.2712,98.4949 90.2508,100.2305" stroke="#7f0000" stroke-width="2" /></svg>