<?xml version="1.0" encoding="utf-8" ?>
<svg baseProfile="tiny" height="128" version="1.2" viewBox="0,0,128,128" width="128" xmlns="http://www.w3.org/2000/svg" xmlns:ev="http://www.w3.org/2001/xml-events" xmlns:xlink="http://www.w3.org/1999/xlink"><defs /><polyline fill="none" points="34.7119,38.1831 26.9017,37.3153 19.5254,40.3525 14.3186,46.4271 10.4136,54.6712 8.678,66.8203 9.9797,78.1017 16.0542,87.2136 19.5254,88.9492 29.0712,88.0814 34.278,85.0441 41.2203,75.4983 44.2576,63.3492 44.6915,50.3322 43.3898,46.4271 35.5797,39.4847 25.1661,36.4475" stroke="#00007f" stroke-width="2" /><polyline fill="none" points="9.1119,64.2169 9.1119,47.7288 14.3186,21.261 19.9593,38.6169 26.9017,51.2" stroke="#0000ac" stroke-width="2" /><polyline fill="none" points="33.4102,40.7864 39.4847,28.2034 52.0678,13.4508 39.9186,60.7458" stroke="#0000de" stroke-width="2" /><polyline fill="none" points="28.2034,62.0475 39.4847,58.1424" stroke="#0000ff" stroke-width="2" /><polyline fill="none" points="29.5051,70.7254 39.4847,72.0271" stroke="#0028ff" stroke-width="2" /><polyline fill="none" points="29.0712,76.3661 38.1831,80.2712" stroke="#0054ff" stroke-width="2" /><polyline fill="none" points="19.9593,65.0847 10.8475,61.6136" stroke="#0080ff" stroke-width="2" /><polyline fill="none" points="16.922,69.4237 12.5831,69.4237" stroke="#00a8ff" stroke-width="2" /><polyline fill="none" points="17.3559,75.4983 11.7153,75.9322" stroke="#00d4ff" stroke-width="2" /><polyline fill="none" points="22.5627,66.8203 21.261,71.1593 24.2983,72.461 26.0339,70.2915 25.6,66.3864 23.4305,65.0847 22.9966,68.9898 25.1661,69.8576" stroke="#15ffe1" stroke-width="2" /><polyline fill="none" points="24.7322,71.5932 20.8271,80.2712" stroke="#36ffc0" stroke-width="2" /><polyline fill="none" points="23.8644,73.3288 28.6373,81.139" stroke="#59ff9d" stroke-width="2" /><polyline fill="none" points="19.0915,48.5966 18.2237,53.3695 22.5627,55.539 23.4305,52.5017 20.8271,51.6339" stroke="#7cff79" stroke-width="2" /><polyline fill="none" points="32.1085,48.1627 31.2407,50.3322 31.2407,52.5017 32.1085,52.5017 32.5424,50.3322 29.939,48.5966" stroke="#9dff59" stroke-width="2" /><polyline fill="none" points="39.0508,36.8814 45.9932,27.3356 39.4847,44.2576" stroke="#c0ff36" stroke-width="2" /><polyline fill="none" points="13.4508,46.4271 15.6203,36.8814 16.4881,46.861" stroke="#e4ff12" stroke-width="2" /><polyline fill="none" points="42.522,76.3661 45.1254,70.2915 55.539,57.2746 63.3492,50.3322 71.1593,46.4271 78.5356,45.9932 82.0068,48.1627 83.3085,52.0678 83.3085,58.5763 74.6305,70.7254 56.8407,85.9119 43.3898,94.5898 38.1831,96.3254 32.9763,96.3254 27.3356,92.8542 24.7322,87.2136 25.6,83.3085 27.7695,81.139" stroke="#ffe500" stroke-width="2" /><polyline fill="none" points="42.522,92.4203 40.3525,95.0237 40.3525,102.4 43.3898,117.1525 44.2576,119.322 45.1254,116.2847 42.0881,88.5153" stroke="#ffbd00" stroke-width="2" /><polyline fill="none" points="50.3322,87.6475 49.8983,94.1559 61.1797,115.4169 54.2373,94.1559 52.0678,82.4407" stroke="#ff9400" stroke-width="2" /><polyline fill="none" points="73.7627,68.9898 82.0068,87.2136 85.9119,91.1186 85.9119,85.0441 76.3661,64.2169" stroke="#ff6f00" stroke-width="2" /><polyline fill="none" points="78.5356,62.4814 82.8746,70.7254 88.9492,76.8 91.9864,78.1017 91.9864,74.1966 82.4407,60.7458 77.2339,56.8407" stroke="#ff4600" stroke-width="2" /><polyline fill="none" points="64.2169,50.7661 73.7627,45.5593 82.4407,32.5424 83.7424,19.9593 79.4034,13.4508 75.9322,11.7153 69.4237,11.7153 66.3864,15.6203 66.8203,22.9966 68.9898,25.1661 72.461,25.6 76.8,21.6949 69.4237,25.1661 66.3864,24.7322 65.5186,23.4305 65.0847,16.4881 67.2542,11.7153 70.2915,8.678 74.6305,8.678 84.1763,13.0169 88.0814,22.1288 84.1763,42.9559 78.9695,51.6339 75.9322,53.8034 75.0644,52.5017" stroke="#ff1d00" stroke-width="2" /><polyline fill="none" points="51.6339,62.0475 50.7661,62.9153 52.9356,66.3864 56.8407,70.7254" stroke="#de0000" stroke-width="2" /><polyline fill="none" points="57.7085,55.1051 61.1797,63.7831 66.3864,70.7254" stroke="#ac0000" stroke-width="2" /><polyline fill="none" points="66.8203,45.5593 70.7254,56.4068" stroke="#7f0000" stroke-width="2" /></svg>