<?xml version="1.0" encoding="utf-8" ?>
<svg baseProfile="tiny" height="128" version="1.2" viewBox="0,0,128,128" width="128" xmlns="http://www.w3.org/2000/svg" xmlns:ev="http://www.w3.org/2001/xml-events" xmlns:xlink="http://www.w3.org/1999/xlink"><defs /><polyline fill="none" points="27.3356,46.861 9.5458,21.261 8.678,13.8847 11.7153,9.5458 13.8847,9.9797 22.1288,22.1288 31.2407,32.1085 40.7864,38.6169" stroke="#00007f" stroke-width="2" /><polyline fill="none" points="41.2203,38.6169 55.539,30.8068 67.6881,29.0712 73.3288,29.939 83.7424,38.1831 107.6068,9.9797 111.5119,8.678 118.4542,16.4881 112.3797,34.278 105.4373,48.5966" stroke="#0000e8" stroke-width="2" /><polyline fill="none" points="28.6373,48.5966 15.1864,60.7458 12.5831,64.6508 10.4136,71.5932 11.2814,79.4034 21.6949,92.8542 30.3729,101.0983 42.522,107.6068 54.6712,111.5119 63.3492,111.9458 84.1763,108.9085 96.3254,104.1356 104.5695,97.6271 111.5119,84.6102 114.5492,64.6508 119.322,53.8034 114.1153,45.1254 104.5695,46.861" stroke="#0038ff" stroke-width="2" /><polyline fill="none" points="43.8237,53.3695 37.3153,60.7458 42.9559,62.4814 44.6915,60.7458 46.4271,55.539 46.4271,52.5017 45.1254,51.6339" stroke="#0094ff" stroke-width="2" /><polyline fill="none" points="87.2136,53.3695 74.1966,53.3695 68.9898,54.6712 68.5559,56.8407 71.1593,60.3119 77.6678,63.7831 81.5729,63.7831 85.9119,60.3119 87.2136,56.8407 85.0441,55.539" stroke="#0cf4ea" stroke-width="2" /><polyline fill="none" points="58.5763,74.1966 56.8407,81.5729 59.878,83.3085 64.2169,75.9322 58.1424,73.3288" stroke="#56ffa0" stroke-width="2" /><polyline fill="none" points="52.9356,78.5356 32.1085,85.0441 23.4305,85.9119" stroke="#a0ff56" stroke-width="2" /><polyline fill="none" points="53.3695,84.6102 44.6915,88.5153 37.7492,89.8169" stroke="#eaff0c" stroke-width="2" /><polyline fill="none" points="50.7661,73.3288 36.8814,72.8949 18.6576,69.8576" stroke="#ffaa00" stroke-width="2" /><polyline fill="none" points="69.4237,75.9322 91.9864,72.461 104.5695,65.9525" stroke="#ff5500" stroke-width="2" /><polyline fill="none" points="68.9898,81.139 104.1356,85.9119" stroke="#e80000" stroke-width="2" /><polyline fill="none" points="71.1593,88.9492 95.4576,99.3627" stroke="#7f0000" stroke-width="2" /></svg>