<?xml version="1.0" encoding="utf-8" ?>
<svg baseProfile="tiny" height="128" version="1.2" viewBox="0,0,128,128" width="128" xmlns="http://www.w3.org/2000/svg" xmlns:ev="http://www.w3.org/2001/xml-events" xmlns:xlink="http://www.w3.org/1999/xlink"><defs /><polyline fill="none" points="96.3254,65.0847 95.4576,50.7661 88.0814,31.6746 83.3085,30.3729 63.3492,30.3729 36.8814,36.8814 33.4102,40.3525 29.5051,51.6339 18.2237,71.1593 13.0169,87.6475 12.5831,96.3254 16.922,103.7017 32.5424,110.2102 39.9186,111.9458 54.2373,111.9458 80.7051,105.0034 88.0814,102.4 91.5525,98.061 95.4576,89.3831 96.3254,83.7424 94.5898,69.4237 87.2136,59.878 75.4983,49.4644 59.0102,38.1831" stroke="#00007f" stroke-width="2" /><polyline fill="none" points="25.6,41.2203 13.0169,20.8271 8.678,8.678 16.922,9.9797 32.5424,22.9966 42.0881,22.9966" stroke="#0010ff" stroke-width="2" /><polyline fill="none" points="76.8,28.6373 102.8339,13.8847 119.322,10.4136 102.8339,35.1458 99.3627,38.1831 95.0237,39.0508" stroke="#00a4ff" stroke-width="2" /><polyline fill="none" points="44.2576,49.4644 49.4644,50.3322" stroke="#3fffb7" stroke-width="2" /><polyline fill="none" points="65.0847,47.2949 65.9525,48.5966" stroke="#b7ff3f" stroke-width="2" /><polyline fill="none" points="50.3322,65.9525 50.3322,65.9525" stroke="#ffb900" stroke-width="2" /><polyline fill="none" points="56.4068,62.9153 55.539,72.0271 49.4644,83.7424 46.4271,87.6475 38.1831,88.0814 35.5797,84.1763 44.2576,78.5356" stroke="#ff3000" stroke-width="2" /><polyline fill="none" points="58.5763,68.9898 59.0102,76.3661" stroke="#7f0000" stroke-width="2" /></svg>