<?xml version="1.0" encoding="utf-8" ?>
<svg baseProfile="tiny" height="128" version="1.2" viewBox="0,0,128,128" width="128" xmlns="http://www.w3.org/2000/svg" xmlns:ev="http://www.w3.org/2001/xml-events" xmlns:xlink="http://www.w3.org/1999/xlink"><defs /><polyline fill="none" points="23.8644,29.0712 13.4508,16.0542 15.1864,15.1864 19.9593,15.6203 35.1458,20.8271 58.5763,17.3559 69.8576,8.678 70.7254,9.9797 67.6881,20.8271" stroke="#00007f" stroke-width="2" /><polyline fill="none" points="23.8644,29.939 19.5254,34.7119 16.922,42.522 17.3559,51.6339 20.3932,55.9729 29.5051,60.7458 46.4271,65.5186 64.2169,65.5186 75.4983,62.0475 81.5729,56.8407 87.6475,48.5966 90.6847,38.1831 88.9492,28.6373 85.9119,25.6 69.4237,21.6949" stroke="#0010ff" stroke-width="2" /><polyline fill="none" points="25.1661,44.6915 8.678,51.6339" stroke="#00a4ff" stroke-width="2" /><polyline fill="none" points="25.1661,49.4644 16.922,52.9356 9.1119,59.0102" stroke="#3fffb7" stroke-width="2" /><polyline fill="none" points="29.0712,54.6712 13.4508,65.5186" stroke="#b7ff3f" stroke-width="2" /><polyline fill="none" points="80.2712,38.1831 100.2305,37.3153" stroke="#ffb900" stroke-width="2" /><polyline fill="none" points="79.8373,44.6915 92.8542,43.8237 102.4,45.9932" stroke="#ff3000" stroke-width="2" /><polyline fill="none" points="81.5729,54.6712 119.322,59.4441" stroke="#7f0000" stroke-width="2" /></svg>