<?xml version="1.0" encoding="utf-8" ?>
<svg baseProfile="tiny" height="128" version="1.2" viewBox="0,0,128,128" width="128" xmlns="http://www.w3.org/2000/svg" xmlns:ev="http://www.w3.org/2001/xml-events" xmlns:xlink="http://www.w3.org/1999/xlink"><defs /><polyline fill="none" points="20.898,60.9524 15.6735,43.102 13.932,31.3469 14.3673,8.7075" stroke="#00007f" stroke-width="2" /><polyline fill="none" points="20.898,61.8231 47.4558,57.4694 83.1565,55.7279 87.5102,53.9864 88.381,55.7279 89.6871,72.7075 89.6871,84.0272 87.5102,84.898 30.0408,84.4626 23.0748,83.1565 22.2041,75.3197 24.8163,65.3061 24.381,62.6939 21.7687,61.8231" stroke="#0000d1" stroke-width="2" /><polyline fill="none" points="85.7687,53.9864 84.0272,51.8095 84.898,46.1497 92.7347,43.9728 95.3469,46.585 95.7823,51.8095 93.6054,54.8571 88.381,57.4694 86.2041,55.7279" stroke="#0010ff" stroke-width="2" /><polyline fill="none" points="86.6395,49.6327 86.6395,49.6327" stroke="#0058ff" stroke-width="2" /><polyline fill="none" points="90.1224,50.068 90.1224,49.1973" stroke="#00a4ff" stroke-width="2" /><polyline fill="none" points="90.1224,52.6803 104.0544,54.4218" stroke="#05ecf1" stroke-width="2" /><polyline fill="none" points="87.5102,52.2449 73.1429,51.3741" stroke="#3fffb7" stroke-width="2" /><polyline fill="none" points="84.0272,53.551 76.6259,53.1156" stroke="#7cff79" stroke-width="2" /><polyline fill="none" points="92.2993,53.9864 107.102,58.3401" stroke="#b7ff3f" stroke-width="2" /><polyline fill="none" points="90.1224,54.8571 90.1224,64.4354" stroke="#f1fc05" stroke-width="2" /><polyline fill="none" points="72.7075,80.9796 77.0612,85.7687 94.0408,116.6803 90.9932,112.7619 85.3333,108.4082" stroke="#ffb900" stroke-width="2" /><polyline fill="none" points="62.2585,82.2857 61.8231,91.8639 63.5646,99.7007 73.5782,119.2925" stroke="#ff7300" stroke-width="2" /><polyline fill="none" points="41.7959,86.2041 25.2517,92.2993 20.0272,96.2177 16.1088,100.5714 9.5782,111.8912 8.7075,114.5034 10.449,113.1973" stroke="#ff3000" stroke-width="2" /><polyline fill="none" points="47.4558,88.381 40.9252,96.6531 23.5102,107.5374 20.4626,111.4558 18.7211,117.551" stroke="#d10000" stroke-width="2" /><polyline fill="none" points="82.7211,45.2789 79.2381,41.3605 84.4626,46.585" stroke="#7f0000" stroke-width="2" /></svg>