<?xml version="1.0" encoding="utf-8" ?>
<svg baseProfile="tiny" height="128" version="1.2" viewBox="0,0,128,128" width="128" xmlns="http://www.w3.org/2000/svg" xmlns:ev="http://www.w3.org/2001/xml-events" xmlns:xlink="http://www.w3.org/1999/xlink"><defs /><polyline fill="none" points="68.9898,23.4305 55.539,22.5627 40.7864,29.5051 22.5627,46.861 11.7153,64.6508 9.1119,80.7051 10.4136,88.9492 13.4508,95.8915 20.3932,104.5695 27.3356,109.3424 32.9763,111.5119 41.2203,112.3797 51.6339,111.5119 62.9153,108.0407 88.0814,94.1559 101.5322,80.7051 109.3424,64.2169 108.9085,50.3322 102.4,41.2203 93.2881,34.278 79.8373,26.9017 67.6881,22.9966 58.1424,23.4305" stroke="#00007f" stroke-width="2" /><polyline fill="none" points="89.8169,27.7695 102.4,20.3932 114.5492,9.5458 118.4542,8.678 119.322,10.8475 118.8881,16.922 114.1153,39.9186 111.9458,45.9932 108.0407,49.4644" stroke="#0080ff" stroke-width="2" /><polyline fill="none" points="26.0339,36.0136 21.261,32.1085 11.7153,11.7153 12.1492,37.3153 8.678,62.0475" stroke="#7cff79" stroke-width="2" /><polyline fill="none" points="57.7085,58.5763 52.9356,60.3119 56.4068,67.2542 64.6508,70.2915 67.2542,69.8576" stroke="#ff9400" stroke-width="2" /><polyline fill="none" points="60.3119,62.9153 63.3492,55.9729 68.5559,52.0678 72.8949,52.9356 74.6305,55.1051 72.461,62.4814 65.5186,74.1966" stroke="#7f0000" stroke-width="2" /></svg>