<?xml version="1.0" encoding="utf-8" ?>
<svg baseProfile="tiny" height="128" version="1.2" viewBox="0,0,128,128" width="128" xmlns="http://www.w3.org/2000/svg" xmlns:ev="http://www.w3.org/2001/xml-events" xmlns:xlink="http://www.w3.org/1999/xlink"><defs /><polyline fill="none" points="70.7254,40.7864 39.9186,41.6542 13.4508,51.2 9.5458,56.8407 8.678,62.0475 18.2237,75.0644 35.5797,85.9119 47.2949,89.8169 89.8169,90.2508 100.6644,88.0814 108.9085,83.3085 113.6814,79.8373 118.0203,73.3288 119.322,63.3492 116.2847,58.5763 110.2102,54.6712 87.2136,47.2949 76.3661,47.2949 68.5559,45.5593" stroke="#00007f" stroke-width="2" /><polyline fill="none" points="21.261,47.2949 21.261,34.278 17.3559,19.9593 17.3559,13.8847 19.0915,8.678 24.7322,11.7153 31.2407,19.5254 36.8814,27.7695 40.7864,41.6542 44.6915,41.6542" stroke="#004cff" stroke-width="2" /><polyline fill="none" points="95.4576,50.7661 98.061,39.0508 102.8339,27.3356 108.9085,20.8271 115.8508,18.6576 117.5864,23.8644 118.0203,32.5424 108.4746,54.6712" stroke="#29ffcd" stroke-width="2" /><polyline fill="none" points="40.3525,54.6712 33.4102,57.2746 35.5797,64.6508 39.4847,66.3864 51.2,58.1424 53.3695,55.9729 53.3695,53.8034 39.0508,51.6339" stroke="#cdff29" stroke-width="2" /><polyline fill="none" points="88.5153,60.7458 85.478,62.0475 84.1763,64.6508 84.1763,68.9898 85.9119,70.7254 91.9864,69.8576 94.1559,66.3864 94.1559,63.3492 88.5153,59.0102" stroke="#ff6700" stroke-width="2" /><polyline fill="none" points="42.0881,55.1051 39.9186,60.7458" stroke="#7f0000" stroke-width="2" /></svg>