<?xml version="1.0" encoding="utf-8" ?>
<svg baseProfile="tiny" height="128" version="1.2" viewBox="0,0,128,128" width="128" xmlns="http://www.w3.org/2000/svg" xmlns:ev="http://www.w3.org/2001/xml-events" xmlns:xlink="http://www.w3.org/1999/xlink"><defs /><polyline fill="none" points="50.3322,39.9186 27.3356,33.8441 21.6949,36.4475 13.0169,41.2203 9.9797,44.6915 8.678,62.0475 14.7525,72.8949 22.9966,78.1017 62.9153,89.3831 82.4407,90.6847 100.2305,82.8746 104.1356,80.2712 108.4746,74.1966 109.3424,68.5559 108.4746,61.6136 96.3254,51.2 72.0271,39.9186 57.2746,35.5797 45.5593,33.8441 28.2034,33.4102 24.2983,35.1458" stroke="#00007f" stroke-width="2" /><polyline fill="none" points="10.8475,33.4102 15.1864,37.7492 15.6203,36.4475 11.7153,16.0542 12.5831,8.678 21.261,24.2983 33.8441,38.1831" stroke="#0000ff" stroke-width="2" /><polyline fill="none" points="78.9695,40.7864 90.2508,36.8814 107.1729,26.4678 98.4949,58.1424" stroke="#0080ff" stroke-width="2" /><polyline fill="none" points="51.6339,57.2746 48.1627,60.7458 48.1627,65.9525 55.9729,66.3864 60.7458,64.2169 61.1797,60.3119 59.878,59.4441 54.6712,59.4441 52.0678,61.6136 51.6339,59.878 50.3322,59.878" stroke="#15ffe1" stroke-width="2" /><polyline fill="none" points="37.7492,53.8034 20.8271,52.9356 11.7153,54.2373" stroke="#7cff79" stroke-width="2" /><polyline fill="none" points="36.0136,63.3492 16.922,63.3492" stroke="#e4ff12" stroke-width="2" /><polyline fill="none" points="41.2203,71.1593 20.3932,74.6305" stroke="#ff9400" stroke-width="2" /><polyline fill="none" points="74.1966,75.4983 82.8746,82.8746 90.2508,85.9119 104.5695,90.6847 119.322,91.5525" stroke="#ff1d00" stroke-width="2" /><polyline fill="none" points="67.6881,65.5186 77.2339,68.9898 89.8169,68.9898 92.4203,67.6881" stroke="#7f0000" stroke-width="2" /></svg>