<?xml version="1.0" encoding="utf-8" ?>
<svg baseProfile="tiny" height="128" version="1.2" viewBox="0,0,128,128" width="128" xmlns="http://www.w3.org/2000/svg" xmlns:ev="http://www.w3.org/2001/xml-events" xmlns:xlink="http://www.w3.org/1999/xlink"><defs /><polyline fill="none" points="82.8746,20.3932 72.0271,16.4881 59.4441,16.0542 45.5593,20.3932 31.6746,27.7695 29.5051,33.4102 29.0712,42.522 32.1085,51.2 37.7492,54.6712 48.5966,57.7085 59.0102,58.1424 65.0847,55.9729 80.2712,41.2203 84.1763,28.2034 84.1763,19.0915" stroke="#00007f" stroke-width="2" /><polyline fill="none" points="33.8441,30.8068 26.0339,22.5627 21.261,14.3186 19.5254,8.678 31.6746,21.6949 39.4847,27.7695" stroke="#0000f1" stroke-width="2" /><polyline fill="none" points="70.7254,23.8644 91.9864,16.4881 109.3424,13.4508 119.322,13.0169 110.2102,19.9593 79.8373,28.6373 72.0271,32.5424" stroke="#004cff" stroke-width="2" /><polyline fill="none" points="49.4644,34.7119 49.4644,34.7119" stroke="#00b0ff" stroke-width="2" /><polyline fill="none" points="55.9729,34.7119 55.9729,34.7119" stroke="#29ffcd" stroke-width="2" /><polyline fill="none" points="59.878,33.8441 60.3119,33.8441" stroke="#7cff79" stroke-width="2" /><polyline fill="none" points="36.0136,42.9559 18.2237,44.2576 8.678,46.861" stroke="#cdff29" stroke-width="2" /><polyline fill="none" points="32.5424,46.861 9.1119,52.9356" stroke="#ffc400" stroke-width="2" /><polyline fill="none" points="65.9525,41.2203 78.9695,41.2203 89.8169,44.6915" stroke="#ff6700" stroke-width="2" /><polyline fill="none" points="67.2542,45.1254 95.0237,52.5017" stroke="#f10700" stroke-width="2" /><polyline fill="none" points="51.6339,47.7288 56.4068,48.5966" stroke="#7f0000" stroke-width="2" /></svg>