<?xml version="1.0" encoding="utf-8" ?>
<svg baseProfile="tiny" height="128" version="1.2" viewBox="0,0,128,128" width="128" xmlns="http://www.w3.org/2000/svg" xmlns:ev="http://www.w3.org/2001/xml-events" xmlns:xlink="http://www.w3.org/1999/xlink"><defs /><polyline fill="none" points="13.8847,29.939 14.7525,31.6746 15.1864,42.522 13.4508,55.1051 34.278,70.7254 49.0305,77.2339 77.6678,50.7661 75.9322,26.4678 79.8373,9.5458 76.8,10.4136 55.9729,27.7695 53.3695,28.6373 49.8983,24.2983 45.5593,23.4305 39.9186,24.2983 31.6746,27.7695 24.2983,16.922 14.7525,10.4136 9.5458,8.678 8.678,19.9593 11.7153,31.6746" stroke="#00007f" stroke-width="2" /><polyline fill="none" points="17.7898,42.9559 23.8644,49.8983 36.4475,55.1051 38.1831,47.7288 36.8814,40.3525 33.4102,37.7492 29.0712,37.3153 21.6949,42.522 21.261,45.9932" stroke="#0010ff" stroke-width="2" /><polyline fill="none" points="55.539,52.9356 54.6712,46.4271 58.5763,39.9186 68.9898,39.9186 70.7254,43.8237 68.5559,49.4644 62.9153,53.8034 50.3322,57.7085 49.4644,59.878" stroke="#00a4ff" stroke-width="2" /><polyline fill="none" points="41.2203,59.878 42.522,62.9153 44.6915,64.2169 49.4644,59.0102 42.0881,57.7085" stroke="#3fffb7" stroke-width="2" /><polyline fill="none" points="38.1831,74.1966 30.8068,81.139 28.6373,88.0814 29.5051,96.3254 33.8441,101.0983 34.278,114.9831 42.0881,114.5492 45.1254,112.3797 47.7288,93.722 54.6712,118.0203 56.8407,119.322 60.7458,119.322 72.8949,115.8508 62.4814,92.4203 60.7458,81.139 62.0475,71.1593" stroke="#b7ff3f" stroke-width="2" /><polyline fill="none" points="66.8203,68.122 69.8576,68.5559 75.9322,73.3288 80.7051,81.5729 80.7051,87.2136 78.1017,92.4203 78.1017,97.1932 86.3458,105.4373 91.9864,106.739 72.461,108.9085" stroke="#ffb900" stroke-width="2" /><polyline fill="none" points="30.8068,63.3492 23.4305,100.6644" stroke="#ff3000" stroke-width="2" /><polyline fill="none" points="25.6,100.6644 29.0712,101.9661 33.4102,101.0983" stroke="#7f0000" stroke-width="2" /></svg>