<?xml version="1.0" encoding="utf-8" ?>
<svg baseProfile="tiny" height="128" version="1.2" viewBox="0,0,128,128" width="128" xmlns="http://www.w3.org/2000/svg" xmlns:ev="http://www.w3.org/2001/xml-events" xmlns:xlink="http://www.w3.org/1999/xlink"><defs /><polyline fill="none" points="47.7288,42.9559 44.2576,42.9559 38.1831,49.4644 9.1119,94.1559 8.678,98.061 14.3186,107.1729 23.4305,113.2475 36.8814,116.2847 63.7831,119.322 72.8949,117.5864 98.061,105.8712 101.0983,101.9661 104.1356,80.7051 102.4,56.8407 98.9288,47.7288 82.8746,42.0881 61.1797,39.9186 53.3695,40.3525 44.6915,45.1254" stroke="#00007f" stroke-width="2" /><polyline fill="none" points="86.7797,38.6169 86.7797,38.6169" stroke="#0000d1" stroke-width="2" /><polyline fill="none" points="86.7797,38.6169 92.8542,31.2407 118.0203,8.678 118.4542,15.6203 116.7186,23.4305 105.4373,49.0305" stroke="#0010ff" stroke-width="2" /><polyline fill="none" points="48.1627,41.2203 39.4847,37.7492 36.0136,34.278 28.6373,32.1085 27.7695,39.9186 29.0712,48.1627" stroke="#0058ff" stroke-width="2" /><polyline fill="none" points="42.522,56.8407 45.5593,55.539 43.8237,57.2746" stroke="#00a4ff" stroke-width="2" /><polyline fill="none" points="79.8373,58.1424 78.9695,56.4068 80.2712,54.2373 82.4407,53.3695 83.3085,55.539 80.7051,57.7085 80.7051,55.9729" stroke="#05ecf1" stroke-width="2" /><polyline fill="none" points="57.7085,68.5559 51.2,97.1932 49.8983,111.9458 51.6339,115.4169 55.539,115.4169 65.5186,111.078 70.7254,105.8712" stroke="#3fffb7" stroke-width="2" /><polyline fill="none" points="52.0678,99.3627 49.8983,107.1729 43.8237,116.7186 39.4847,116.7186 38.1831,109.3424" stroke="#7cff79" stroke-width="2" /><polyline fill="none" points="64.2169,77.2339 55.1051,77.2339 51.2,72.8949 50.7661,71.1593 53.8034,67.2542 60.3119,63.7831 62.0475,65.9525 62.0475,68.122 58.1424,76.8 56.4068,77.2339 55.539,75.4983 59.0102,70.7254 59.4441,74.1966 57.2746,75.0644" stroke="#b7ff3f" stroke-width="2" /><polyline fill="none" points="63.7831,88.9492 85.9119,77.6678" stroke="#f1fc05" stroke-width="2" /><polyline fill="none" points="75.0644,87.6475 85.478,88.0814 91.1186,86.3458" stroke="#ffb900" stroke-width="2" /><polyline fill="none" points="78.9695,89.8169 86.7797,97.6271 88.9492,102.4" stroke="#ff7300" stroke-width="2" /><polyline fill="none" points="38.6169,92.4203 37.3153,87.6475 27.7695,76.3661" stroke="#ff3000" stroke-width="2" /><polyline fill="none" points="31.6746,94.1559 23.4305,90.2508" stroke="#d10000" stroke-width="2" /><polyline fill="none" points="32.9763,98.061 25.6,100.6644 20.8271,104.5695" stroke="#7f0000" stroke-width="2" /></svg>