<?xml version="1.0" encoding="utf-8" ?>
<svg baseProfile="tiny" height="128" version="1.2" viewBox="0,0,128,128" width="128" xmlns="http://www.w3.org/2000/svg" xmlns:ev="http://www.w3.org/2001/xml-events" xmlns:xlink="http://www.w3.org/1999/xlink"><defs /><polyline fill="none" points="88.0814,21.261 87.6475,31.6746 90.6847,33.4102 96.7593,35.1458 109.7763,34.7119 116.7186,26.4678 119.322,18.6576 118.4542,8.678 113.6814,15.6203 111.078,16.0542 100.6644,16.0542 98.061,14.7525 94.5898,9.1119 92.4203,8.678 86.7797,17.7898" stroke="#00007f" stroke-width="2" /><polyline fill="none" points="97.6271,19.9593 97.6271,19.9593" stroke="#004cff" stroke-width="2" /><polyline fill="none" points="98.4949,23.8644 96.3254,20.8271" stroke="#29ffcd" stroke-width="2" /><polyline fill="none" points="105.4373,21.261 107.6068,22.5627 107.1729,20.8271" stroke="#cdff29" stroke-width="2" /><polyline fill="none" points="98.4949,28.6373 105.8712,27.7695" stroke="#ff6700" stroke-width="2" /><polyline fill="none" points="105.0034,33.8441 104.5695,36.4475 98.9288,44.2576 87.6475,50.3322 90.6847,59.878 92.4203,78.5356 89.3831,71.5932 84.1763,70.7254 82.4407,52.5017 80.7051,55.1051 81.139,73.7627 78.9695,74.1966 75.4983,73.3288 72.461,68.5559 70.2915,51.6339 52.5017,51.6339 34.7119,53.3695 33.8441,58.5763 37.7492,78.5356 34.278,72.8949 29.5051,49.8983 27.7695,52.5017 27.7695,77.6678 24.7322,79.4034 21.261,78.1017 17.7898,74.1966 19.0915,42.9559 8.678,41.2203" stroke="#7f0000" stroke-width="2" /></svg>