<?xml version="1.0" encoding="utf-8" ?>
<svg baseProfile="tiny" height="128" version="1.2" viewBox="0,0,128,128" width="128" xmlns="http://www.w3.org/2000/svg" xmlns:ev="http://www.w3.org/2001/xml-events" xmlns:xlink="http://www.w3.org/1999/xlink"><defs /><polyline fill="none" points="60.7235,25.7747 52.4232,25.3379 47.6177,27.0853 35.8225,36.6962 27.5222,45.8703 23.5904,55.0444 21.4061,65.0922 20.5324,93.4881 25.3379,107.0307 33.6382,115.7679 47.6177,119.2628 69.4608,119.2628 85.6246,113.5836 91.3038,109.215 95.6724,103.5358 100.041,91.3038 100.4778,71.2082 90.43,53.2969 76.4505,37.1331 69.4608,33.2014 49.3652,27.5222 46.744,27.959" stroke="#00007f" stroke-width="2" /><polyline fill="none" points="67.2765,31.0171 66.8396,27.5222 87.8089,8.7372 88.2457,11.7952 81.256,38.0068 79.5085,53.2969" stroke="#0028ff" stroke-width="2" /><polyline fill="none" points="38.4437,38.4437 34.0751,36.6962 13.1058,19.6587 8.7372,18.785 8.7372,22.7167 13.5427,35.8225 27.5222,61.1604" stroke="#00d4ff" stroke-width="2" /><polyline fill="none" points="49.802,68.587 45.8703,65.529 45.4334,61.1604 47.1809,59.8498 50.2389,66.8396 48.9283,69.0239 47.1809,69.4608" stroke="#7cff79" stroke-width="2" /><polyline fill="none" points="63.7816,60.2867 63.3447,55.4812 67.2765,53.7338 71.2082,54.1706 72.5188,56.3549 72.9556,63.3447 69.8976,63.7816 68.1502,55.0444" stroke="#ffe500" stroke-width="2" /><polyline fill="none" points="61.5973,75.5768 58.1024,85.6246 58.1024,81.256 61.5973,73.8294 66.8396,83.4403 56.7918,85.6246" stroke="#ff4600" stroke-width="2" /><polyline fill="none" points="41.0648,98.2935 50.6758,100.041 68.587,100.041 76.4505,97.4198 88.2457,90.8669" stroke="#7f0000" stroke-width="2" /></svg>