<?xml version="1.0" encoding="utf-8" ?>
<svg baseProfile="tiny" height="128" version="1.2" viewBox="0,0,128,128" width="128" xmlns="http://www.w3.org/2000/svg" xmlns:ev="http://www.w3.org/2001/xml-events" xmlns:xlink="http://www.w3.org/1999/xlink"><defs /><polyline fill="none" points="81.139,26.9017 52.5017,22.5627 46.4271,24.2983 39.9186,28.6373 32.1085,12.5831 29.5051,9.1119 26.4678,8.678 22.9966,28.2034 22.5627,44.6915 23.8644,52.0678 29.0712,65.5186 32.5424,70.2915 39.4847,75.0644 47.2949,77.2339 57.7085,77.6678 74.6305,72.461 84.1763,66.8203 88.5153,62.4814 92.8542,56.4068 97.1932,44.2576 97.6271,23.4305 95.4576,16.4881 92.8542,13.8847 86.3458,23.8644 82.0068,27.3356" stroke="#00007f" stroke-width="2" /><polyline fill="none" points="94.5898,42.9559 119.322,42.522" stroke="#0000fe" stroke-width="2" /><polyline fill="none" points="95.4576,49.4644 116.2847,57.2746" stroke="#0060ff" stroke-width="2" /><polyline fill="none" points="93.722,62.4814 111.9458,77.2339" stroke="#00d4ff" stroke-width="2" /><polyline fill="none" points="31.2407,38.6169 9.1119,35.5797 8.678,36.8814" stroke="#4cffaa" stroke-width="2" /><polyline fill="none" points="29.5051,51.6339 9.1119,45.9932" stroke="#aaff4c" stroke-width="2" /><polyline fill="none" points="27.3356,58.5763 13.0169,60.3119" stroke="#ffe500" stroke-width="2" /><polyline fill="none" points="51.2,33.4102 51.6339,34.7119 47.2949,35.1458 43.3898,37.7492 43.3898,42.0881 44.6915,43.3898 48.1627,44.6915 54.2373,37.7492 52.0678,32.9763 49.4644,32.1085" stroke="#ff7a00" stroke-width="2" /><polyline fill="none" points="78.1017,39.9186 73.3288,41.6542 69.8576,47.2949 78.9695,46.861 80.7051,45.5593 81.5729,40.7864 75.0644,36.8814" stroke="#fe1200" stroke-width="2" /><polyline fill="none" points="61.1797,54.2373 60.3119,58.1424 56.8407,61.1797 50.7661,60.7458 47.7288,55.9729 47.7288,60.3119 42.0881,60.3119 38.1831,54.2373" stroke="#7f0000" stroke-width="2" /></svg>