<?xml version="1.0" encoding="utf-8" ?>
<svg baseProfile="tiny" height="128" version="1.2" viewBox="0,0,128,128" width="128" xmlns="http://www.w3.org/2000/svg" xmlns:ev="http://www.w3.org/2001/xml-events" xmlns:xlink="http://www.w3.org/1999/xlink"><defs /><polyline fill="none" points="70.7254,15.6203 60.7458,16.0542 54.6712,18.2237 47.7288,23.8644 44.2576,29.5051 43.3898,48.1627 44.6915,51.6339 55.539,64.6508 59.0102,66.3864 67.2542,66.8203 72.461,65.0847 84.1763,54.6712 85.0441,38.1831 84.1763,27.7695 82.4407,23.8644 70.2915,17.3559" stroke="#00007f" stroke-width="2" /><polyline fill="none" points="70.2915,16.4881 71.5932,13.0169 74.6305,10.8475 78.9695,21.6949" stroke="#0000e8" stroke-width="2" /><polyline fill="none" points="57.7085,17.3559 56.8407,11.2814 52.9356,8.678 48.5966,20.8271 46.4271,29.939" stroke="#0038ff" stroke-width="2" /><polyline fill="none" points="56.8407,33.4102 56.8407,33.8441" stroke="#0094ff" stroke-width="2" /><polyline fill="none" points="68.9898,32.5424 69.4237,32.9763" stroke="#0cf4ea" stroke-width="2" /><polyline fill="none" points="65.5186,44.6915 63.3492,44.2576 63.7831,45.1254" stroke="#56ffa0" stroke-width="2" /><polyline fill="none" points="64.2169,44.6915 61.1797,55.9729 58.1424,54.2373 56.8407,47.2949" stroke="#a0ff56" stroke-width="2" /><polyline fill="none" points="63.3492,45.9932 63.3492,54.6712 66.8203,55.1051 69.4237,48.1627" stroke="#eaff0c" stroke-width="2" /><polyline fill="none" points="69.4237,48.1627 89.3831,47.2949 104.5695,50.3322" stroke="#ffaa00" stroke-width="2" /><polyline fill="none" points="74.1966,45.1254 89.8169,34.7119 101.5322,32.5424 119.322,32.5424" stroke="#ff5500" stroke-width="2" /><polyline fill="none" points="77.6678,40.3525 81.5729,32.5424 93.2881,17.3559 95.0237,16.0542 102.8339,16.0542" stroke="#e80000" stroke-width="2" /><polyline fill="none" points="53.3695,46.4271 39.0508,42.0881 25.6,42.0881 15.1864,45.1254 8.678,49.0305" stroke="#7f0000" stroke-width="2" /></svg>