<?xml version="1.0" encoding="utf-8" ?>
<svg baseProfile="tiny" height="128" version="1.2" viewBox="0,0,128,128" width="128" xmlns="http://www.w3.org/2000/svg" xmlns:ev="http://www.w3.org/2001/xml-events" xmlns:xlink="http://www.w3.org/1999/xlink"><defs /><polyline fill="none" points="40.9252,53.551 32.2177,51.8095 16.9796,52.2449 10.449,56.5986 8.7075,60.9524 8.7075,68.7891 11.7551,75.7551 19.5918,82.7211 33.0884,87.0748 52.6803,89.2517 76.6259,88.8163 94.0408,76.1905 96.2177,72.7075 96.6531,68.3537 92.2993,64.8707 79.6735,60.517 64.0,57.4694 54.8571,53.9864 47.8912,53.1156 26.9932,53.551" stroke="#00007f" stroke-width="2" /><polyline fill="none" points="91.4286,63.5646 88.381,60.0816 85.7687,51.8095 84.4626,41.3605 88.381,35.2653 99.7007,30.0408 103.619,29.6054 111.4558,30.0408 118.8571,38.3129 119.2925,49.1973 113.6327,62.2585 103.1837,68.3537 90.5578,65.3061" stroke="#0000c8" stroke-width="2" /><polyline fill="none" points="90.1224,31.7823 86.6395,23.9456 86.2041,18.2857 91.4286,20.4626 100.5714,30.9116" stroke="#0000ff" stroke-width="2" /><polyline fill="none" points="103.1837,28.7347 112.3265,13.4966 114.068,13.932 115.8095,23.5102 118.8571,29.6054" stroke="#0040ff" stroke-width="2" /><polyline fill="none" points="91.4286,48.7619 93.6054,53.1156 95.7823,54.4218 101.8776,53.1156 104.4898,47.4558 103.619,43.102" stroke="#0080ff" stroke-width="2" /><polyline fill="none" points="96.2177,39.1837 96.6531,39.1837" stroke="#00c0ff" stroke-width="2" /><polyline fill="none" points="101.8776,37.0068 101.8776,37.0068" stroke="#15ffe1" stroke-width="2" /><polyline fill="none" points="100.5714,37.0068 100.5714,37.0068" stroke="#49ffad" stroke-width="2" /><polyline fill="none" points="100.5714,37.0068 100.5714,37.0068" stroke="#7cff79" stroke-width="2" /><polyline fill="none" points="99.2653,39.1837 100.1361,38.7483" stroke="#b0ff46" stroke-width="2" /><polyline fill="none" points="101.0068,37.8776 101.0068,37.8776" stroke="#e4ff12" stroke-width="2" /><polyline fill="none" points="101.0068,37.8776 101.0068,37.4422" stroke="#ffcf00" stroke-width="2" /><polyline fill="none" points="19.1565,86.6395 15.6735,97.5238 15.6735,99.7007 16.5442,99.7007" stroke="#ff9400" stroke-width="2" /><polyline fill="none" points="32.2177,87.0748 30.4762,101.8776" stroke="#ff5900" stroke-width="2" /><polyline fill="none" points="58.3401,87.9456 57.9048,96.2177 56.1633,100.5714" stroke="#ff1d00" stroke-width="2" /><polyline fill="none" points="84.0272,84.0272 86.2041,95.7823" stroke="#c30000" stroke-width="2" /><polyline fill="none" points="13.932,49.1973 13.4966,46.585 9.1429,37.8776 9.1429,25.2517 13.0612,16.5442 18.2857,12.6259 14.8027,8.7075 8.7075,8.7075" stroke="#7f0000" stroke-width="2" /></svg>