<?xml version="1.0" encoding="utf-8" ?>
<svg baseProfile="tiny" height="128" version="1.2" viewBox="0,0,128,128" width="128" xmlns="http://www.w3.org/2000/svg" xmlns:ev="http://www.w3.org/2001/xml-events" xmlns:xlink="http://www.w3.org/1999/xlink"><defs /><polyline fill="none" points="90.6847,35.5797 48.1627,35.5797 34.7119,23.4305 15.6203,13.0169 8.678,10.8475 21.261,43.8237 21.261,46.861 16.4881,57.7085 14.3186,70.2915 15.1864,86.7797 19.9593,99.7966 29.5051,110.2102 42.0881,116.2847 59.0102,118.8881 75.0644,118.0203 92.8542,111.078 101.0983,103.7017 108.4746,91.5525 112.3797,75.9322 111.5119,63.7831 106.739,51.6339 106.3051,43.3898 118.8881,14.7525 119.322,10.4136 116.7186,8.678 110.2102,9.9797 92.8542,24.7322 84.6102,36.8814" stroke="#00007f" stroke-width="2" /><polyline fill="none" points="48.5966,64.2169 44.6915,63.7831" stroke="#00d4ff" stroke-width="2" /><polyline fill="none" points="89.3831,64.2169 85.0441,63.7831 85.0441,67.6881 87.2136,68.122 86.7797,65.0847" stroke="#ffe500" stroke-width="2" /><polyline fill="none" points="64.6508,89.3831 56.4068,89.8169 54.2373,90.6847 54.6712,92.8542 60.7458,95.8915 68.122,91.5525" stroke="#7f0000" stroke-width="2" /></svg>