<?xml version="1.0" encoding="utf-8" ?>
<svg baseProfile="tiny" height="128" version="1.2" viewBox="0,0,128,128" width="128" xmlns="http://www.w3.org/2000/svg" xmlns:ev="http://www.w3.org/2001/xml-events" xmlns:xlink="http://www.w3.org/1999/xlink"><defs /><polyline fill="none" points="42.2313,40.4898 38.3129,55.7279 38.3129,62.6939 42.2313,71.8367 47.8912,77.0612 57.034,82.7211 63.5646,84.4626 75.7551,84.0272 82.2857,80.5442 85.3333,72.7075 86.2041,53.9864 83.5918,47.0204 90.9932,49.6327 94.9116,48.7619 103.1837,40.4898 104.4898,35.7007 92.2993,33.9592 73.5782,34.8299 60.9524,29.1701 56.5986,30.9116 53.1156,34.8299 52.2449,27.4286 41.7959,18.7211 26.1224,9.1429 19.5918,8.7075 19.1565,15.6735 22.6395,21.7687 38.7483,36.1361 57.9048,49.1973" stroke="#00007f" stroke-width="2" /><polyline fill="none" points="74.449,68.7891 84.4626,68.7891 97.5238,66.1769 106.2313,63.1293 108.8435,60.517" stroke="#0000fe" stroke-width="2" /><polyline fill="none" points="66.6122,78.3673 90.1224,77.4966 101.4422,74.0136" stroke="#0060ff" stroke-width="2" /><polyline fill="none" points="46.585,56.5986 40.4898,51.8095 12.1905,45.7143" stroke="#00d4ff" stroke-width="2" /><polyline fill="none" points="49.6327,68.7891 28.7347,64.4354 8.7075,63.1293" stroke="#4cffaa" stroke-width="2" /><polyline fill="none" points="10.0136,117.9864 10.0136,98.8299 11.7551,92.2993 16.1088,93.1701 23.0748,108.4082 25.2517,104.0544 27.4286,92.2993 29.1701,89.2517 31.7823,88.381 35.2653,93.6054 40.9252,108.4082" stroke="#aaff4c" stroke-width="2" /><polyline fill="none" points="53.551,119.2925 55.2925,101.0068" stroke="#ffe500" stroke-width="2" /><polyline fill="none" points="50.068,85.3333 59.2109,89.2517 64.4354,89.6871 66.6122,89.2517 65.7415,87.0748 59.6463,85.7687" stroke="#ff7a00" stroke-width="2" /><polyline fill="none" points="77.0612,106.6667 74.8844,110.585 75.7551,116.2449 72.7075,103.1837 74.0136,98.8299 76.6259,97.5238 78.8027,97.9592 87.5102,105.7959 94.4762,116.6803" stroke="#fe1200" stroke-width="2" /><polyline fill="none" points="74.0136,107.5374 89.6871,106.2313" stroke="#7f0000" stroke-width="2" /></svg>