<?xml version="1.0" encoding="utf-8" ?>
<svg baseProfile="tiny" height="128" version="1.2" viewBox="0,0,128,128" width="128" xmlns="http://www.w3.org/2000/svg" xmlns:ev="http://www.w3.org/2001/xml-events" xmlns:xlink="http://www.w3.org/1999/xlink"><defs /><polyline fill="none" points="25.1661,30.8068 32.5424,8.678 52.0678,32.5424" stroke="#00007f" stroke-width="2" /><polyline fill="none" points="52.0678,32.5424 66.3864,31.2407 94.5898,32.9763 95.8915,31.6746 98.4949,9.1119 100.6644,14.3186 108.4746,24.2983 119.322,32.9763" stroke="#0000ff" stroke-width="2" /><polyline fill="none" points="25.1661,30.3729 20.8271,38.1831 18.6576,48.1627 26.4678,60.7458 37.7492,65.5186 65.5186,69.8576 85.478,69.4237 98.061,63.3492 107.1729,57.7085 116.2847,49.0305 119.322,43.8237 118.8881,37.7492" stroke="#0080ff" stroke-width="2" /><polyline fill="none" points="52.0678,47.2949 59.4441,48.1627 55.9729,50.3322 58.1424,47.7288" stroke="#15ffe1" stroke-width="2" /><polyline fill="none" points="82.0068,48.5966 77.6678,50.7661 79.4034,50.7661 80.7051,49.0305" stroke="#7cff79" stroke-width="2" /><polyline fill="none" points="65.5186,59.0102 70.7254,59.878 70.7254,61.6136 66.8203,66.8203 66.3864,56.4068" stroke="#e4ff12" stroke-width="2" /><polyline fill="none" points="50.3322,67.6881 44.2576,68.122 28.2034,75.9322 13.8847,88.0814 9.9797,94.5898 8.678,105.8712 9.5458,113.6814 11.2814,114.9831 13.8847,114.5492 29.0712,108.4746 36.4475,104.1356 40.3525,99.3627 51.6339,94.5898 66.3864,84.1763 73.3288,78.1017 83.7424,65.0847 86.7797,60.3119 86.3458,58.1424" stroke="#ff9400" stroke-width="2" /><polyline fill="none" points="51.6339,95.0237 54.6712,114.1153 68.122,110.2102 71.5932,112.3797 69.8576,114.5492 53.8034,115.8508 40.3525,112.3797 34.7119,100.6644" stroke="#ff1d00" stroke-width="2" /><polyline fill="none" points="75.4983,73.7627 85.478,85.478 86.7797,89.3831 97.1932,85.478 103.2678,86.3458 105.8712,90.2508 102.4,93.2881 98.4949,92.8542 81.5729,85.9119 74.1966,81.5729 69.4237,75.9322" stroke="#7f0000" stroke-width="2" /></svg>