<?xml version="1.0" encoding="utf-8" ?>
<svg baseProfile="tiny" height="128" version="1.2" viewBox="0,0,128,128" width="128" xmlns="http://www.w3.org/2000/svg" xmlns:ev="http://www.w3.org/2001/xml-events" xmlns:xlink="http://www.w3.org/1999/xlink"><defs /><polyline fill="none" points="11.7153,25.6 8.678,29.0712 8.678,43.8237 9.9797,49.0305 14.3186,55.1051 20.3932,56.4068 24.7322,53.8034 26.9017,50.3322 27.3356,39.4847 25.1661,34.278 21.261,29.5051 14.7525,24.7322 12.5831,23.8644 10.8475,25.1661" stroke="#00007f" stroke-width="2" /><polyline fill="none" points="9.9797,25.1661 10.4136,8.678 16.922,24.2983" stroke="#004cff" stroke-width="2" /><polyline fill="none" points="22.9966,32.9763 23.4305,22.5627 25.6,18.6576 29.939,26.9017 29.939,31.6746 27.3356,35.5797" stroke="#29ffcd" stroke-width="2" /><polyline fill="none" points="19.0915,57.7085 18.6576,76.8 19.9593,83.3085 22.9966,87.6475 27.7695,88.9492 46.4271,87.6475 62.9153,83.7424 78.1017,77.2339 82.8746,73.7627 85.0441,68.9898 85.0441,65.5186 82.4407,60.3119 74.1966,54.6712 65.9525,53.8034 48.5966,54.6712 20.3932,59.4441" stroke="#cdff29" stroke-width="2" /><polyline fill="none" points="20.8271,83.7424 22.5627,110.6441 24.2983,117.5864 26.4678,119.322 35.5797,112.8136 38.1831,107.6068 39.4847,91.5525 38.1831,84.6102" stroke="#ff6700" stroke-width="2" /><polyline fill="none" points="58.1424,84.6102 58.5763,101.0983 60.3119,108.4746 62.0475,110.2102 65.5186,109.3424 70.7254,105.4373 78.1017,94.5898 79.8373,86.7797 73.7627,69.8576" stroke="#7f0000" stroke-width="2" /></svg>