<?xml version="1.0" encoding="utf-8" ?>
<svg baseProfile="tiny" height="128" version="1.2" viewBox="0,0,128,128" width="128" xmlns="http://www.w3.org/2000/svg" xmlns:ev="http://www.w3.org/2001/xml-events" xmlns:xlink="http://www.w3.org/1999/xlink"><defs /><polyline fill="none" points="61.1797,33.4102 49.0305,29.0712 42.522,29.0712 34.7119,31.2407 29.0712,35.1458 23.4305,41.2203 15.1864,57.2746 13.0169,72.8949 15.6203,79.4034 20.3932,85.0441 42.0881,100.6644 53.8034,105.4373 64.2169,104.1356 70.2915,101.0983 81.139,88.5153 85.0441,79.8373 86.3458,71.1593 85.478,62.0475 78.9695,45.1254 74.1966,38.1831 66.8203,32.1085" stroke="#00007f" stroke-width="2" /><polyline fill="none" points="64.6508,31.6746 69.4237,29.0712 82.0068,19.0915 82.8746,43.8237 88.9492,63.3492" stroke="#0000f1" stroke-width="2" /><polyline fill="none" points="36.4475,27.7695 16.4881,8.678 15.6203,10.8475 16.922,49.4644" stroke="#004cff" stroke-width="2" /><polyline fill="none" points="53.8034,70.2915 41.6542,71.1593 47.7288,77.6678 49.4644,81.5729 54.2373,67.2542" stroke="#00b0ff" stroke-width="2" /><polyline fill="none" points="30.8068,66.8203 19.5254,63.3492 8.678,62.0475" stroke="#29ffcd" stroke-width="2" /><polyline fill="none" points="28.6373,76.3661 22.5627,76.8 9.1119,80.2712" stroke="#7cff79" stroke-width="2" /><polyline fill="none" points="31.6746,90.6847 14.3186,105.4373" stroke="#cdff29" stroke-width="2" /><polyline fill="none" points="68.5559,72.8949 91.1186,72.8949 96.7593,74.1966" stroke="#ffc400" stroke-width="2" /><polyline fill="none" points="67.2542,87.6475 88.0814,92.8542" stroke="#ff6700" stroke-width="2" /><polyline fill="none" points="62.0475,98.4949 86.7797,119.322" stroke="#f10700" stroke-width="2" /><polyline fill="none" points="53.8034,84.6102 51.2,92.8542 47.2949,98.4949 44.2576,99.3627 40.3525,98.061" stroke="#7f0000" stroke-width="2" /></svg>