<?xml version="1.0" encoding="utf-8" ?>
<svg baseProfile="tiny" height="128" version="1.2" viewBox="0,0,128,128" width="128" xmlns="http://www.w3.org/2000/svg" xmlns:ev="http://www.w3.org/2001/xml-events" xmlns:xlink="http://www.w3.org/1999/xlink"><defs /><polyline fill="none" points="13.4508,66.8203 8.678,89.8169 8.678,92.8542 11.7153,93.722 16.4881,88.5153 19.5254,80.2712 21.261,65.0847" stroke="#00007f" stroke-width="2" /><polyline fill="none" points="69.4237,68.9898 67.2542,68.122 65.0847,72.8949 61.6136,90.6847 63.3492,92.8542 65.9525,92.4203 70.2915,86.7797 72.461,74.6305 71.5932,65.0847" stroke="#0010ff" stroke-width="2" /><polyline fill="none" points="13.0169,42.9559 11.7153,55.1051 11.7153,57.7085 12.5831,58.1424 17.3559,49.4644 17.7898,42.0881" stroke="#00a4ff" stroke-width="2" /><polyline fill="none" points="65.5186,40.3525 62.9153,49.8983 64.2169,55.1051 67.2542,53.8034 68.9898,42.522" stroke="#3fffb7" stroke-width="2" /><polyline fill="none" points="65.9525,55.539 52.0678,55.1051 28.6373,59.4441 18.2237,59.878 12.5831,64.2169 12.5831,66.3864 17.3559,68.5559 65.0847,68.122 73.3288,64.6508 75.0644,59.878 74.1966,56.4068 66.8203,55.1051" stroke="#b7ff3f" stroke-width="2" /><polyline fill="none" points="74.1966,55.9729 86.3458,32.5424" stroke="#ffb900" stroke-width="2" /><polyline fill="none" points="74.1966,62.9153 83.7424,59.0102 90.2508,53.8034 93.722,39.4847" stroke="#ff3000" stroke-width="2" /><polyline fill="none" points="90.6847,29.939 88.0814,26.0339 88.9492,19.0915 92.4203,13.4508 97.1932,10.4136 109.7763,8.678 114.9831,11.2814 118.4542,14.7525 119.322,24.7322 115.4169,32.5424 98.061,39.0508 95.8915,38.6169 95.4576,37.3153" stroke="#7f0000" stroke-width="2" /></svg>