<?xml version="1.0" encoding="utf-8" ?>
<svg baseProfile="tiny" height="128" version="1.2" viewBox="0,0,128,128" width="128" xmlns="http://www.w3.org/2000/svg" xmlns:ev="http://www.w3.org/2001/xml-events" xmlns:xlink="http://www.w3.org/1999/xlink"><defs /><polyline fill="none" points="42.9559,86.7797 37.3153,86.7797 31.2407,81.139 27.3356,73.7627 22.5627,59.4441 22.5627,52.0678 19.9593,50.7661 16.922,45.1254 8.678,12.1492 11.7153,12.1492 22.5627,17.3559 38.1831,30.8068 46.861,21.6949 51.2,19.0915 62.9153,17.3559 73.7627,18.2237 86.3458,25.6 105.0034,16.4881 116.2847,9.5458 118.4542,8.678 119.322,10.8475 105.4373,39.0508 102.4,49.0305 100.6644,69.4237 94.1559,80.7051 87.2136,86.3458 73.3288,90.2508 52.0678,90.6847 42.9559,88.9492" stroke="#00007f" stroke-width="2" /><polyline fill="none" points="42.0881,49.0305 35.1458,50.7661 37.7492,52.0678" stroke="#0010ff" stroke-width="2" /><polyline fill="none" points="41.2203,52.0678 26.9017,59.0102" stroke="#00a4ff" stroke-width="2" /><polyline fill="none" points="46.4271,58.1424 44.6915,63.3492 39.0508,69.8576" stroke="#3fffb7" stroke-width="2" /><polyline fill="none" points="91.1186,52.0678 94.5898,52.9356" stroke="#b7ff3f" stroke-width="2" /><polyline fill="none" points="88.0814,59.878 89.8169,59.878" stroke="#ffb900" stroke-width="2" /><polyline fill="none" points="80.7051,71.5932 91.9864,72.8949" stroke="#ff3000" stroke-width="2" /><polyline fill="none" points="50.7661,43.3898 46.861,42.522 45.1254,40.3525 44.6915,33.4102 46.861,31.6746 53.3695,31.6746" stroke="#7f0000" stroke-width="2" /></svg>