<?xml version="1.0" encoding="utf-8" ?>
<svg baseProfile="tiny" height="128" version="1.2" viewBox="0,0,128,128" width="128" xmlns="http://www.w3.org/2000/svg" xmlns:ev="http://www.w3.org/2001/xml-events" xmlns:xlink="http://www.w3.org/1999/xlink"><defs /><polyline fill="none" points="72.8949,36.4475 41.6542,36.8814 29.0712,39.0508 17.3559,46.4271 9.1119,60.7458 8.678,74.6305 16.4881,91.1186 27.7695,105.8712 42.9559,114.9831 64.2169,118.8881 89.3831,119.322 95.8915,118.0203 101.0983,114.1153 107.1729,101.0983 107.6068,97.1932 107.6068,84.1763 103.7017,64.2169 100.2305,58.1424 93.2881,49.4644 78.9695,45.5593 65.5186,39.9186 72.8949,32.1085 96.7593,13.8847 98.061,15.6203 96.7593,46.861" stroke="#00007f" stroke-width="2" /><polyline fill="none" points="39.0508,35.1458 35.5797,30.8068 14.7525,14.7525 10.8475,8.678 22.1288,34.278 24.2983,47.2949" stroke="#004cff" stroke-width="2" /><polyline fill="none" points="66.3864,73.7627 68.5559,85.0441 71.5932,89.8169 75.4983,92.4203 87.2136,93.722 89.8169,91.1186 89.8169,86.7797" stroke="#29ffcd" stroke-width="2" /><polyline fill="none" points="64.2169,75.4983 57.2746,86.7797 40.7864,99.7966 27.7695,105.4373 21.6949,105.8712 19.9593,102.4" stroke="#cdff29" stroke-width="2" /><polyline fill="none" points="42.522,64.6508 42.522,65.0847" stroke="#ff6700" stroke-width="2" /><polyline fill="none" points="75.4983,63.3492 75.4983,63.3492" stroke="#7f0000" stroke-width="2" /></svg>