<?xml version="1.0" encoding="utf-8" ?>
<svg baseProfile="tiny" height="128" version="1.2" viewBox="0,0,128,128" width="128" xmlns="http://www.w3.org/2000/svg" xmlns:ev="http://www.w3.org/2001/xml-events" xmlns:xlink="http://www.w3.org/1999/xlink"><defs /><polyline fill="none" points="25.1661,47.2949 23.8644,62.4814 26.4678,68.9898 28.2034,66.3864 30.8068,50.7661 32.1085,55.539 34.7119,50.7661 35.1458,63.3492 37.3153,67.2542 39.0508,61.1797 39.0508,49.4644 39.9186,54.6712 41.2203,49.8983 42.0881,51.2 43.8237,49.8983 48.5966,41.6542 52.0678,40.3525 57.7085,42.522 60.3119,37.3153 59.4441,32.9763 56.4068,31.6746 49.8983,33.8441 42.522,38.6169 39.4847,38.6169 35.1458,38.6169 23.8644,32.5424 18.2237,32.1085 13.4508,35.5797 9.9797,41.6542 8.678,59.0102 11.2814,58.1424 19.0915,48.5966 26.4678,47.2949" stroke="#00007f" stroke-width="2" /><polyline fill="none" points="68.122,44.2576 68.122,21.6949 71.1593,24.2983 78.1017,12.5831 75.4983,32.9763 75.0644,50.7661" stroke="#004cff" stroke-width="2" /><polyline fill="none" points="87.2136,17.3559 84.6102,29.0712 84.6102,46.861" stroke="#29ffcd" stroke-width="2" /><polyline fill="none" points="88.5153,32.1085 91.9864,26.4678 94.1559,24.7322 95.0237,25.6 92.8542,46.861 91.1186,46.861 90.6847,43.3898 91.5525,34.278 94.1559,22.5627 96.3254,19.0915 98.9288,25.6 101.9661,40.3525" stroke="#cdff29" stroke-width="2" /><polyline fill="none" points="92.8542,35.5797 99.3627,31.2407" stroke="#ff6700" stroke-width="2" /><polyline fill="none" points="104.1356,21.6949 106.3051,31.2407 110.2102,37.7492 111.5119,35.5797 110.6441,26.9017 114.5492,33.4102 117.1525,35.1458 118.8881,29.5051 119.322,8.678" stroke="#7f0000" stroke-width="2" /></svg>