<?xml version="1.0" encoding="utf-8" ?>
<svg baseProfile="tiny" height="128" version="1.2" viewBox="0,0,128,128" width="128" xmlns="http://www.w3.org/2000/svg" xmlns:ev="http://www.w3.org/2001/xml-events" xmlns:xlink="http://www.w3.org/1999/xlink"><defs /><polyline fill="none" points="31.6746,39.9186 34.7119,19.9593 47.2949,36.4475 56.4068,32.9763 65.0847,32.9763 67.2542,35.1458 69.8576,32.9763 73.7627,22.1288 78.9695,13.4508 83.7424,8.678 88.0814,23.8644 89.8169,41.6542 89.3831,50.7661 95.0237,66.3864 91.9864,71.1593 92.4203,75.4983 86.7797,77.6678 59.0102,76.8 42.9559,68.122 38.1831,68.122 36.0136,69.4237 33.8441,68.122 8.678,46.4271 9.5458,48.5966 13.8847,51.2 15.1864,49.4644 12.1492,33.4102 23.8644,37.3153 31.2407,36.4475 33.4102,37.7492" stroke="#00007f" stroke-width="2" /><polyline fill="none" points="34.7119,67.6881 36.0136,69.8576 36.4475,94.1559 31.6746,106.739 31.6746,108.9085 34.278,111.078 45.1254,109.7763 52.0678,105.4373 68.5559,88.9492 78.9695,85.9119 82.4407,80.2712 83.7424,75.0644 74.1966,69.8576" stroke="#0028ff" stroke-width="2" /><polyline fill="none" points="43.8237,42.9559 43.3898,50.3322" stroke="#00d4ff" stroke-width="2" /><polyline fill="none" points="72.0271,51.6339 70.2915,59.878" stroke="#7cff79" stroke-width="2" /><polyline fill="none" points="55.539,54.2373 57.7085,59.0102 60.3119,58.1424" stroke="#ffe500" stroke-width="2" /><polyline fill="none" points="47.2949,106.739 48.5966,115.8508 51.2,115.4169 61.6136,102.8339 70.2915,111.5119 72.8949,108.4746 75.9322,100.2305 80.2712,95.4576 83.7424,67.2542" stroke="#ff4600" stroke-width="2" /><polyline fill="none" points="84.6102,76.8 99.3627,75.4983 114.5492,69.8576 119.322,66.8203" stroke="#7f0000" stroke-width="2" /></svg>