<?xml version="1.0" encoding="utf-8" ?>
<svg baseProfile="tiny" height="128" version="1.2" viewBox="0,0,128,128" width="128" xmlns="http://www.w3.org/2000/svg" xmlns:ev="http://www.w3.org/2001/xml-events" xmlns:xlink="http://www.w3.org/1999/xlink"><defs /><polyline fill="none" points="53.3695,55.1051 45.9932,66.8203 16.922,82.0068 13.0169,88.5153 8.678,100.6644 13.8847,105.0034 22.1288,108.0407 54.6712,111.5119 70.2915,108.0407 78.9695,90.6847 84.6102,65.5186 95.8915,64.2169 101.5322,61.1797 108.4746,49.0305 110.2102,36.4475 106.739,24.7322 99.3627,15.6203 90.6847,14.3186 81.139,16.922 64.6508,24.2983 60.3119,27.3356 55.1051,33.4102 49.8983,48.1627 52.0678,51.6339 55.9729,53.8034 59.878,52.0678" stroke="#00007f" stroke-width="2" /><polyline fill="none" points="111.5119,39.0508 118.8881,16.0542 119.322,8.678 98.061,26.9017" stroke="#0000f1" stroke-width="2" /><polyline fill="none" points="68.5559,23.4305 78.5356,9.1119 80.7051,17.7898" stroke="#004cff" stroke-width="2" /><polyline fill="none" points="84.1763,27.3356 72.0271,36.4475" stroke="#00b0ff" stroke-width="2" /><polyline fill="none" points="72.461,26.9017 82.8746,38.6169 73.3288,45.1254 72.0271,43.8237" stroke="#29ffcd" stroke-width="2" /><polyline fill="none" points="72.8949,36.0136 68.9898,32.9763" stroke="#7cff79" stroke-width="2" /><polyline fill="none" points="71.5932,26.9017 78.5356,21.261" stroke="#cdff29" stroke-width="2" /><polyline fill="none" points="85.0441,27.3356 87.6475,29.5051" stroke="#ffc400" stroke-width="2" /><polyline fill="none" points="76.8,49.4644 75.4983,49.8983 75.4983,52.0678 78.1017,51.6339 77.2339,49.4644 68.9898,65.9525 66.8203,55.539 69.8576,52.0678 67.6881,62.9153 67.6881,64.2169 68.9898,63.7831 73.3288,58.5763 75.4983,52.5017 71.1593,66.3864 74.1966,67.2542 75.9322,65.0847" stroke="#ff6700" stroke-width="2" /><polyline fill="none" points="93.722,34.278 99.7966,43.3898 101.9661,43.8237" stroke="#f10700" stroke-width="2" /><polyline fill="none" points="102.8339,38.1831 88.0814,44.2576" stroke="#7f0000" stroke-width="2" /></svg>