<?xml version="1.0" encoding="utf-8" ?>
<svg baseProfile="tiny" height="128" version="1.2" viewBox="0,0,128,128" width="128" xmlns="http://www.w3.org/2000/svg" xmlns:ev="http://www.w3.org/2001/xml-events" xmlns:xlink="http://www.w3.org/1999/xlink"><defs /><polyline fill="none" points="24.7322,99.3627 25.6,103.7017 29.939,108.4746 45.9932,114.9831 59.878,117.5864 75.9322,117.5864 86.7797,115.4169 103.2678,108.4746 112.3797,97.6271 118.0203,84.1763 119.322,68.5559 113.6814,53.3695 106.739,45.1254 101.0983,41.6542 93.2881,39.9186 81.139,39.9186 67.2542,43.3898 59.0102,46.861 48.5966,54.2373 35.5797,70.2915 26.9017,86.7797 25.6,104.1356" stroke="#00007f" stroke-width="2" /><polyline fill="none" points="57.2746,65.0847 58.5763,74.1966" stroke="#0010ff" stroke-width="2" /><polyline fill="none" points="92.8542,58.5763 93.722,67.2542" stroke="#00a4ff" stroke-width="2" /><polyline fill="none" points="66.3864,84.1763 72.8949,88.9492 77.2339,89.8169 79.8373,85.9119 87.6475,88.0814 89.8169,86.3458 89.8169,82.8746" stroke="#3fffb7" stroke-width="2" /><polyline fill="none" points="65.5186,41.6542 47.7288,26.9017 40.3525,18.2237 37.7492,31.6746 37.7492,60.3119 38.6169,64.2169" stroke="#b7ff3f" stroke-width="2" /><polyline fill="none" points="92.4203,38.1831 101.9661,27.3356 111.5119,8.678 113.2475,9.5458 116.7186,33.4102 116.7186,49.0305 114.9831,55.1051 113.6814,55.9729" stroke="#ffb900" stroke-width="2" /><polyline fill="none" points="38.6169,85.0441 30.8068,82.8746 8.678,82.8746" stroke="#ff3000" stroke-width="2" /><polyline fill="none" points="33.8441,95.0237 30.8068,98.9288 13.4508,111.5119" stroke="#7f0000" stroke-width="2" /></svg>