<?xml version="1.0" encoding="utf-8" ?>
<svg baseProfile="tiny" height="128" version="1.2" viewBox="0,0,128,128" width="128" xmlns="http://www.w3.org/2000/svg" xmlns:ev="http://www.w3.org/2001/xml-events" xmlns:xlink="http://www.w3.org/1999/xlink"><defs /><polyline fill="none" points="64.6508,81.5729 67.6881,79.8373 68.5559,76.8 68.122,52.5017 64.2169,39.9186 57.2746,28.2034 49.0305,20.8271 40.3525,19.0915 31.6746,24.2983 26.4678,32.5424 24.7322,39.4847 23.8644,56.8407 26.0339,65.5186 30.3729,72.8949 40.7864,80.7051 54.2373,85.0441 62.0475,84.1763 67.2542,77.6678 66.3864,75.9322" stroke="#00007f" stroke-width="2" /><polyline fill="none" points="58.5763,61.6136 54.6712,65.9525 48.5966,68.9898 39.9186,70.2915 33.8441,66.3864 32.1085,63.3492 32.5424,60.7458" stroke="#0000ff" stroke-width="2" /><polyline fill="none" points="43.3898,56.8407 44.6915,59.0102 45.1254,82.8746 49.0305,96.7593" stroke="#0080ff" stroke-width="2" /><polyline fill="none" points="49.0305,36.4475 49.0305,35.1458 45.9932,33.4102 42.0881,33.4102 39.9186,35.1458 39.4847,36.4475 44.2576,43.3898 51.2,41.6542 52.5017,37.3153 45.1254,33.8441" stroke="#15ffe1" stroke-width="2" /><polyline fill="none" points="31.6746,32.9763 29.0712,37.7492 28.6373,42.522 29.5051,43.8237 34.278,45.1254 38.1831,40.3525 38.6169,35.1458 30.3729,34.278" stroke="#7cff79" stroke-width="2" /><polyline fill="none" points="42.522,53.8034 45.1254,78.1017 51.6339,105.0034 50.3322,105.8712 45.5593,102.4 43.3898,94.5898 45.1254,71.1593 42.0881,54.6712 45.9932,101.0983 41.6542,95.0237 40.3525,87.2136 42.9559,70.2915 39.0508,54.2373 46.4271,92.8542 45.1254,98.061 42.0881,98.9288 40.3525,96.3254 39.4847,78.5356 42.0881,62.9153 40.7864,53.3695" stroke="#e4ff12" stroke-width="2" /><polyline fill="none" points="56.8407,30.3729 57.7085,22.5627 64.6508,8.678 69.8576,20.3932 70.7254,40.7864" stroke="#ff9400" stroke-width="2" /><polyline fill="none" points="26.4678,25.6 28.6373,25.6 29.0712,23.4305 27.3356,21.261 9.5458,8.678 8.678,9.5458 22.5627,41.6542" stroke="#ff1d00" stroke-width="2" /><polyline fill="none" points="32.5424,80.7051 29.939,82.8746 19.9593,99.7966 16.922,108.4746 21.261,113.6814 39.9186,119.322 48.1627,119.322 66.3864,108.9085 69.4237,105.0034 71.5932,85.0441 68.5559,78.1017" stroke="#7f0000" stroke-width="2" /></svg>