<?xml version="1.0" encoding="utf-8" ?>
<svg baseProfile="tiny" height="128" version="1.2" viewBox="0,0,128,128" width="128" xmlns="http://www.w3.org/2000/svg" xmlns:ev="http://www.w3.org/2001/xml-events" xmlns:xlink="http://www.w3.org/1999/xlink"><defs /><polyline fill="none" points="45.9932,35.1458 42.0881,40.7864 41.2203,47.2949 47.7288,59.4441 58.5763,69.8576 69.4237,73.7627 78.1017,73.7627 95.4576,57.7085 97.6271,52.0678 96.3254,45.5593 93.2881,39.4847 88.0814,36.0136 87.6475,33.8441 93.722,19.9593 95.0237,9.9797 93.722,8.678 79.4034,20.8271 73.7627,28.2034 63.3492,27.7695 61.1797,25.1661 49.8983,19.9593 40.7864,12.5831 37.7492,12.5831 37.3153,14.7525 45.9932,27.3356 47.7288,32.1085" stroke="#00007f" stroke-width="2" /><polyline fill="none" points="62.9153,45.5593 74.1966,45.5593 73.3288,49.4644 70.2915,54.2373 68.122,51.2 60.7458,45.5593" stroke="#004cff" stroke-width="2" /><polyline fill="none" points="76.3661,47.7288 85.478,45.9932 117.1525,43.8237" stroke="#29ffcd" stroke-width="2" /><polyline fill="none" points="79.4034,49.4644 99.7966,51.6339 119.322,56.4068" stroke="#cdff29" stroke-width="2" /><polyline fill="none" points="56.8407,49.4644 42.9559,45.9932 8.678,44.6915" stroke="#ff6700" stroke-width="2" /><polyline fill="none" points="51.6339,53.3695 11.2814,62.9153" stroke="#7f0000" stroke-width="2" /></svg>