<?xml version="1.0" encoding="utf-8" ?>
<svg baseProfile="tiny" height="128" version="1.2" viewBox="0,0,128,128" width="128" xmlns="http://www.w3.org/2000/svg" xmlns:ev="http://www.w3.org/2001/xml-events" xmlns:xlink="http://www.w3.org/1999/xlink"><defs /><polyline fill="none" points="79.8373,49.0305 78.1017,57.7085 78.9695,66.8203 83.3085,70.2915 89.3831,72.0271 102.8339,72.0271 106.3051,59.0102 105.4373,41.2203 97.1932,36.0136 82.4407,36.0136 80.7051,41.6542 80.7051,50.7661" stroke="#00007f" stroke-width="2" /><polyline fill="none" points="75.4983,52.5017 33.8441,52.5017 30.3729,56.8407 33.8441,66.3864 42.0881,72.8949 83.3085,73.7627" stroke="#0028ff" stroke-width="2" /><polyline fill="none" points="43.8237,72.0271 45.5593,96.7593 49.8983,96.3254" stroke="#00d4ff" stroke-width="2" /><polyline fill="none" points="64.2169,74.6305 65.0847,91.1186" stroke="#7cff79" stroke-width="2" /><polyline fill="none" points="29.0712,56.8407 8.678,58.5763" stroke="#ffe500" stroke-width="2" /><polyline fill="none" points="79.8373,31.6746 77.2339,27.3356 77.2339,13.0169 85.9119,13.0169 90.2508,17.3559 93.722,26.4678 93.722,31.6746 96.3254,12.1492 100.6644,8.678 114.9831,9.5458 119.322,22.1288 119.322,31.2407 111.5119,40.3525 104.5695,42.0881" stroke="#ff4600" stroke-width="2" /><polyline fill="none" points="91.1186,51.6339 91.1186,51.6339" stroke="#7f0000" stroke-width="2" /></svg>