<?xml version="1.0" encoding="utf-8" ?>
<svg baseProfile="tiny" height="128" version="1.2" viewBox="0,0,128,128" width="128" xmlns="http://www.w3.org/2000/svg" xmlns:ev="http://www.w3.org/2001/xml-events" xmlns:xlink="http://www.w3.org/1999/xlink"><defs /><polyline fill="none" points="42.2313,72.2721 39.619,67.483 37.0068,56.1633 36.5714,47.8912 44.8435,36.1361 57.034,29.6054 60.517,30.9116 77.0612,48.7619 82.2857,58.3401 83.1565,64.8707 77.4966,69.2245 64.4354,74.8844 53.9864,75.7551 42.6667,74.449 39.1837,72.2721" stroke="#00007f" stroke-width="2" /><polyline fill="none" points="37.0068,43.5374 36.1361,22.2041 37.0068,11.3197 38.7483,8.7075 43.9728,14.8027 46.1497,21.3333 52.2449,31.3469" stroke="#0000f1" stroke-width="2" /><polyline fill="none" points="66.1769,39.619 102.7483,18.2857 96.2177,47.8912 92.7347,55.2925 84.898,62.2585" stroke="#004cff" stroke-width="2" /><polyline fill="none" points="70.966,58.7755 119.2925,50.9388" stroke="#00b0ff" stroke-width="2" /><polyline fill="none" points="74.449,66.1769 104.4898,69.6599 94.4762,69.6599" stroke="#29ffcd" stroke-width="2" /><polyline fill="none" points="68.3537,72.2721 88.381,84.898 89.2517,85.3333 87.9456,82.7211" stroke="#7cff79" stroke-width="2" /><polyline fill="none" points="47.4558,57.9048 15.6735,59.2109 8.7075,60.0816 12.1905,60.517" stroke="#cdff29" stroke-width="2" /><polyline fill="none" points="47.0204,66.6122 42.2313,70.0952 23.0748,77.932 19.1565,81.415 24.381,80.5442" stroke="#ffc400" stroke-width="2" /><polyline fill="none" points="54.8571,73.1429 32.6531,83.1565" stroke="#ff6700" stroke-width="2" /><polyline fill="none" points="50.5034,50.5034 50.5034,50.068" stroke="#f10700" stroke-width="2" /><polyline fill="none" points="53.551,50.068 54.4218,51.8095" stroke="#7f0000" stroke-width="2" /></svg>