<?xml version="1.0" encoding="utf-8" ?>
<svg baseProfile="tiny" height="128" version="1.2" viewBox="0,0,128,128" width="128" xmlns="http://www.w3.org/2000/svg" xmlns:ev="http://www.w3.org/2001/xml-events" xmlns:xlink="http://www.w3.org/1999/xlink"><defs /><polyline fill="none" points="42.522,21.6949 34.7119,19.9593 29.0712,21.261 23.4305,27.7695 20.8271,35.1458 21.261,42.0881 24.7322,50.3322 32.9763,56.4068 39.9186,56.8407 47.7288,52.9356 52.0678,47.7288 56.4068,38.1831 56.4068,32.1085 53.8034,26.4678 47.2949,21.261 42.522,20.8271 33.8441,24.2983" stroke="#00007f" stroke-width="2" /><polyline fill="none" points="36.8814,19.9593 25.6,8.678 24.7322,26.0339" stroke="#0000e8" stroke-width="2" /><polyline fill="none" points="43.3898,19.9593 54.2373,10.4136 53.3695,18.6576 50.7661,24.7322" stroke="#0038ff" stroke-width="2" /><polyline fill="none" points="29.939,53.8034 24.2983,65.5186 23.8644,73.7627 25.6,82.4407 31.2407,92.8542 35.1458,97.1932 39.4847,99.3627 45.1254,99.7966 49.4644,99.3627 55.539,95.0237 57.2746,85.478 56.8407,75.0644 53.3695,61.1797 50.3322,54.6712 47.7288,52.9356" stroke="#0094ff" stroke-width="2" /><polyline fill="none" points="55.9729,85.478 62.0475,92.4203 68.5559,91.1186 75.9322,82.8746 78.1017,57.2746 81.139,49.4644 90.2508,43.8237 97.6271,43.3898 106.3051,47.7288 112.3797,45.9932 117.5864,41.2203 119.322,36.4475 118.0203,34.278" stroke="#0cf4ea" stroke-width="2" /><polyline fill="none" points="36.4475,62.4814 35.5797,78.1017 39.0508,88.9492 42.522,89.8169 45.5593,86.3458 45.9932,78.9695 43.8237,71.1593 37.3153,62.0475" stroke="#56ffa0" stroke-width="2" /><polyline fill="none" points="33.4102,32.5424 32.5424,33.4102 32.5424,30.3729 32.1085,34.278" stroke="#a0ff56" stroke-width="2" /><polyline fill="none" points="43.3898,32.9763 43.3898,32.5424" stroke="#eaff0c" stroke-width="2" /><polyline fill="none" points="8.678,37.3153 19.9593,38.6169 35.5797,43.8237" stroke="#ffaa00" stroke-width="2" /><polyline fill="none" points="8.678,52.9356 27.7695,49.8983 32.9763,50.3322" stroke="#ff5500" stroke-width="2" /><polyline fill="none" points="43.8237,43.3898 59.878,50.7661 69.8576,56.8407" stroke="#e80000" stroke-width="2" /><polyline fill="none" points="42.0881,48.5966 63.7831,62.0475" stroke="#7f0000" stroke-width="2" /></svg>