<?xml version="1.0" encoding="utf-8" ?>
<svg baseProfile="tiny" height="128" version="1.2" viewBox="0,0,128,128" width="128" xmlns="http://www.w3.org/2000/svg" xmlns:ev="http://www.w3.org/2001/xml-events" xmlns:xlink="http://www.w3.org/1999/xlink"><defs /><polyline fill="none" points="37.7778,8.8889 23.1111,11.5556 15.1111,16.0 10.2222,27.1111 8.8889,40.4444 13.3333,48.0 20.0,53.7778 41.7778,56.8889 46.6667,56.8889 60.8889,51.5556 73.3333,42.6667 73.3333,38.2222 72.4444,35.1111 67.5556,29.7778 59.5556,23.5556 49.3333,17.7778 44.0,11.1111 37.3333,8.8889" stroke="#00007f" stroke-width="2" /><polyline fill="none" points="20.8889,30.2222 21.7778,36.0" stroke="#0000fe" stroke-width="2" /><polyline fill="none" points="37.7778,28.8889 38.2222,34.6667" stroke="#0060ff" stroke-width="2" /><polyline fill="none" points="33.7778,42.6667 35.1111,43.5556 36.0,42.2222 33.7778,42.2222" stroke="#00d4ff" stroke-width="2" /><polyline fill="none" points="35.5556,44.4444 33.7778,49.7778" stroke="#4cffaa" stroke-width="2" /><polyline fill="none" points="38.2222,48.4444 40.8889,49.7778" stroke="#aaff4c" stroke-width="2" /><polyline fill="none" points="37.3333,46.2222 36.0,44.0" stroke="#ffe500" stroke-width="2" /><polyline fill="none" points="36.8889,42.2222 48.8889,41.3333 63.1111,36.4444 86.6667,23.1111" stroke="#ff7a00" stroke-width="2" /><polyline fill="none" points="40.4444,43.5556 56.4444,47.5556 88.4444,62.2222" stroke="#fe1200" stroke-width="2" /><polyline fill="none" points="66.2222,40.0 119.1111,32.4444" stroke="#7f0000" stroke-width="2" /></svg>