<?xml version="1.0" encoding="utf-8" ?>
<svg baseProfile="tiny" height="128" version="1.2" viewBox="0,0,128,128" width="128" xmlns="http://www.w3.org/2000/svg" xmlns:ev="http://www.w3.org/2001/xml-events" xmlns:xlink="http://www.w3.org/1999/xlink"><defs /><polyline fill="none" points="46.4271,42.522 31.6746,42.9559 26.9017,54.6712 22.1288,60.7458 20.3932,68.122 15.6203,78.1017 9.1119,84.6102 8.678,101.5322 15.1864,113.2475 22.5627,118.0203 25.6,118.4542 49.8983,118.4542 56.4068,117.1525 88.0814,97.6271 91.1186,91.9864 91.1186,80.7051 89.8169,78.5356 76.8,68.122 63.7831,59.4441 59.0102,51.6339 40.7864,36.0136" stroke="#00007f" stroke-width="2" /><polyline fill="none" points="27.7695,36.0136 29.0712,27.3356 33.4102,19.0915 38.6169,13.0169 41.2203,13.0169 45.5593,16.0542 47.2949,29.0712 49.0305,30.3729 49.4644,32.9763 52.0678,34.7119 63.3492,17.3559 69.8576,10.8475 77.2339,8.678 78.1017,11.7153 78.1017,43.3898 79.4034,50.7661 62.9153,72.0271" stroke="#004cff" stroke-width="2" /><polyline fill="none" points="32.1085,62.4814 42.522,70.7254" stroke="#29ffcd" stroke-width="2" /><polyline fill="none" points="53.8034,72.8949 49.8983,85.478" stroke="#cdff29" stroke-width="2" /><polyline fill="none" points="23.4305,118.4542 49.0305,119.322 65.5186,116.2847 68.5559,114.1153" stroke="#ff6700" stroke-width="2" /><polyline fill="none" points="25.6,97.6271 39.9186,97.6271 61.1797,94.1559" stroke="#7f0000" stroke-width="2" /></svg>