<?xml version="1.0" encoding="utf-8" ?>
<svg baseProfile="tiny" height="128" version="1.2" viewBox="0,0,128,128" width="128" xmlns="http://www.w3.org/2000/svg" xmlns:ev="http://www.w3.org/2001/xml-events" xmlns:xlink="http://www.w3.org/1999/xlink"><defs /><polyline fill="none" points="38.3129,42.6667 31.3469,47.0204 24.381,56.5986 20.0272,66.1769 18.2857,78.3673 20.0272,91.8639 24.381,104.0544 33.0884,115.3741 42.2313,119.2925 55.2925,117.551 64.4354,111.0204 70.0952,104.4898 74.0136,95.7823 76.1905,87.0748 76.1905,66.6122 71.4014,52.6803 61.3878,43.5374 50.5034,40.0544 30.4762,41.7959" stroke="#00007f" stroke-width="2" /><polyline fill="none" points="26.1224,53.551 16.9796,36.1361 12.1905,22.6395 8.7075,8.7075 16.1088,23.9456 29.1701,40.4898" stroke="#0010ff" stroke-width="2" /><polyline fill="none" points="62.2585,39.1837 70.5306,32.2177 85.7687,14.3673 70.0952,41.3605" stroke="#00a4ff" stroke-width="2" /><polyline fill="none" points="33.9592,80.5442 33.9592,80.5442" stroke="#3fffb7" stroke-width="2" /><polyline fill="none" points="56.5986,61.3878 56.5986,61.3878" stroke="#b7ff3f" stroke-width="2" /><polyline fill="none" points="35.7007,70.5306 35.7007,70.5306" stroke="#ffb900" stroke-width="2" /><polyline fill="none" points="53.9864,66.6122 54.8571,67.0476" stroke="#ff3000" stroke-width="2" /><polyline fill="none" points="28.2993,71.8367 28.2993,72.2721" stroke="#7f0000" stroke-width="2" /></svg>