<?xml version="1.0" encoding="utf-8" ?>
<svg baseProfile="tiny" height="128" version="1.2" viewBox="0,0,128,128" width="128" xmlns="http://www.w3.org/2000/svg" xmlns:ev="http://www.w3.org/2001/xml-events" xmlns:xlink="http://www.w3.org/1999/xlink"><defs /><polyline fill="none" points="13.0169,77.2339 32.9763,88.0814 49.0305,88.0814 90.2508,74.1966 103.2678,65.0847 108.0407,56.8407 108.4746,49.4644 105.8712,42.522 99.7966,35.1458 90.6847,33.8441 88.9492,30.3729 90.6847,8.678 85.0441,15.1864 80.2712,24.7322 79.4034,29.939 77.2339,32.1085 65.9525,32.9763 39.0508,45.9932 21.6949,25.1661 14.3186,21.6949 8.678,20.8271 9.5458,28.6373 14.3186,39.4847 15.6203,49.0305 19.0915,59.4441 13.0169,66.3864 11.7153,73.3288 13.4508,75.9322 18.6576,78.1017" stroke="#00007f" stroke-width="2" /><polyline fill="none" points="47.2949,56.4068 54.2373,54.6712" stroke="#0028ff" stroke-width="2" /><polyline fill="none" points="76.8,49.0305 84.1763,46.4271 86.7797,42.9559" stroke="#00d4ff" stroke-width="2" /><polyline fill="none" points="48.1627,70.7254 32.9763,71.1593 20.3932,80.2712 17.7898,87.6475" stroke="#7cff79" stroke-width="2" /><polyline fill="none" points="51.2,77.2339 35.5797,79.8373 28.2034,87.2136 26.4678,94.1559" stroke="#ffe500" stroke-width="2" /><polyline fill="none" points="78.1017,65.0847 84.6102,65.0847 93.722,57.7085 97.6271,56.8407 111.9458,56.4068 116.7186,58.1424" stroke="#ff4600" stroke-width="2" /><polyline fill="none" points="81.5729,72.0271 101.0983,61.1797 108.9085,58.5763 111.9458,58.5763 119.322,64.2169" stroke="#7f0000" stroke-width="2" /></svg>