<?xml version="1.0" encoding="utf-8" ?>
<svg baseProfile="tiny" height="128" version="1.2" viewBox="0,0,128,128" width="128" xmlns="http://www.w3.org/2000/svg" xmlns:ev="http://www.w3.org/2001/xml-events" xmlns:xlink="http://www.w3.org/1999/xlink"><defs /><polyline fill="none" points="18.2237,45.9932 26.0339,22.1288 30.8068,13.0169 38.6169,32.9763 42.522,36.0136" stroke="#00007f" stroke-width="2" /><polyline fill="none" points="80.7051,40.3525 97.1932,8.678 98.4949,16.0542 95.0237,41.6542 97.1932,43.8237 103.7017,44.6915" stroke="#0000ff" stroke-width="2" /><polyline fill="none" points="62.9153,72.461 54.6712,83.7424 55.9729,85.478 74.1966,82.0068 64.6508,73.7627" stroke="#0080ff" stroke-width="2" /><polyline fill="none" points="43.3898,81.5729 36.8814,81.5729 23.4305,87.2136 16.4881,92.4203 8.678,101.9661" stroke="#15ffe1" stroke-width="2" /><polyline fill="none" points="50.3322,91.9864 39.9186,96.3254 29.5051,104.5695 26.9017,110.2102 29.5051,112.3797" stroke="#7cff79" stroke-width="2" /><polyline fill="none" points="91.5525,84.1763 99.7966,83.3085 107.6068,89.8169 119.322,103.7017" stroke="#e4ff12" stroke-width="2" /><polyline fill="none" points="86.7797,76.3661 108.0407,83.7424 114.1153,89.3831" stroke="#ff9400" stroke-width="2" /><polyline fill="none" points="36.0136,54.6712 29.0712,57.7085 26.0339,60.7458 26.9017,63.7831 30.3729,65.9525 35.5797,66.3864 40.3525,64.6508 44.6915,61.1797 46.861,55.1051 37.3153,53.8034 28.6373,54.6712 26.4678,56.4068" stroke="#ff1d00" stroke-width="2" /><polyline fill="none" points="82.8746,55.9729 80.2712,57.2746 80.7051,60.7458 89.8169,65.9525 91.5525,65.9525 91.5525,59.4441 89.8169,56.8407 82.0068,55.1051 76.8,56.8407" stroke="#7f0000" stroke-width="2" /></svg>