<?xml version="1.0" encoding="utf-8" ?>
<svg baseProfile="tiny" height="128" version="1.2" viewBox="0,0,128,128" width="128" xmlns="http://www.w3.org/2000/svg" xmlns:ev="http://www.w3.org/2001/xml-events" xmlns:xlink="http://www.w3.org/1999/xlink"><defs /><polyline fill="none" points="49.8983,70.2915 44.6915,65.9525 30.8068,65.9525 16.4881,73.7627 9.5458,82.8746 8.678,96.7593 12.5831,103.7017 19.0915,109.7763 32.5424,117.1525 59.4441,119.322 69.8576,113.6814 75.4983,107.6068 78.5356,97.1932 72.461,80.2712 61.6136,68.9898 50.3322,63.3492 39.0508,62.4814" stroke="#00007f" stroke-width="2" /><polyline fill="none" points="22.1288,68.5559 12.1492,50.7661 9.1119,53.3695 8.678,59.0102 10.8475,77.2339" stroke="#0000fe" stroke-width="2" /><polyline fill="none" points="57.2746,73.7627 58.1424,68.122 62.9153,58.1424 74.6305,81.5729" stroke="#0060ff" stroke-width="2" /><polyline fill="none" points="45.9932,97.1932 44.6915,101.0983 39.4847,105.8712 36.0136,106.739" stroke="#00d4ff" stroke-width="2" /><polyline fill="none" points="48.1627,100.6644 50.3322,107.6068 55.9729,109.3424" stroke="#4cffaa" stroke-width="2" /><polyline fill="none" points="31.2407,84.1763 30.8068,83.7424" stroke="#aaff4c" stroke-width="2" /><polyline fill="none" points="56.4068,87.6475 56.4068,88.0814" stroke="#ffe500" stroke-width="2" /><polyline fill="none" points="35.5797,9.1119 33.4102,15.6203 34.278,31.6746" stroke="#ff7a00" stroke-width="2" /><polyline fill="none" points="32.9763,15.6203 41.6542,23.8644 48.1627,8.678 55.1051,19.0915 58.1424,30.3729 63.7831,32.9763 71.1593,31.2407 73.7627,26.4678 73.3288,23.8644 68.122,20.8271 67.2542,23.8644 73.3288,33.4102 91.5525,38.6169" stroke="#fe1200" stroke-width="2" /><polyline fill="none" points="96.3254,21.6949 93.722,20.3932 89.3831,22.9966 88.5153,25.1661 90.2508,32.1085 94.5898,36.4475 99.3627,37.3153 102.4,35.5797 104.1356,32.5424 103.2678,26.9017 95.8915,21.261" stroke="#7f0000" stroke-width="2" /></svg>