<?xml version="1.0" encoding="utf-8" ?>
<svg baseProfile="tiny" height="128" version="1.2" viewBox="0,0,128,128" width="128" xmlns="http://www.w3.org/2000/svg" xmlns:ev="http://www.w3.org/2001/xml-events" xmlns:xlink="http://www.w3.org/1999/xlink"><defs /><polyline fill="none" points="39.4847,28.6373 39.9186,25.6 45.5593,20.8271 52.5017,16.4881 57.7085,15.1864 64.6508,15.1864 76.3661,18.6576 81.5729,21.6949 83.3085,26.9017" stroke="#00007f" stroke-width="2" /><polyline fill="none" points="34.7119,31.2407 27.7695,19.9593 21.6949,14.7525 17.7898,13.0169 13.0169,13.8847 10.4136,16.0542 9.1119,19.5254 9.1119,22.9966 11.2814,25.6 25.1661,38.1831 30.3729,46.861" stroke="#0000f1" stroke-width="2" /><polyline fill="none" points="85.478,29.0712 90.6847,18.6576 103.2678,9.5458 106.3051,8.678 114.9831,10.4136 119.322,13.8847 117.5864,23.4305 107.6068,37.7492 95.8915,46.4271 93.2881,46.861" stroke="#004cff" stroke-width="2" /><polyline fill="none" points="32.9763,51.6339 32.5424,66.3864 36.0136,80.7051 42.0881,85.0441 52.9356,88.5153 65.0847,88.9492 75.4983,86.3458 84.1763,79.4034 94.5898,65.5186 98.061,48.5966" stroke="#00b0ff" stroke-width="2" /><polyline fill="none" points="68.5559,68.5559 99.3627,55.9729 109.7763,54.2373" stroke="#29ffcd" stroke-width="2" /><polyline fill="none" points="71.5932,68.5559 81.5729,84.1763 86.3458,97.6271 88.9492,98.061" stroke="#7cff79" stroke-width="2" /><polyline fill="none" points="45.1254,70.2915 44.6915,68.122 41.2203,66.8203 17.7898,64.6508 8.678,65.5186" stroke="#cdff29" stroke-width="2" /><polyline fill="none" points="48.5966,73.3288 42.522,82.4407 23.4305,100.6644" stroke="#ffc400" stroke-width="2" /><polyline fill="none" points="56.8407,38.1831 56.4068,38.1831" stroke="#ff6700" stroke-width="2" /><polyline fill="none" points="75.9322,45.1254 75.9322,42.522" stroke="#f10700" stroke-width="2" /><polyline fill="none" points="63.3492,49.8983 63.3492,54.6712" stroke="#7f0000" stroke-width="2" /></svg>