<?xml version="1.0" encoding="utf-8" ?>
<svg baseProfile="tiny" height="128" version="1.2" viewBox="0,0,128,128" width="128" xmlns="http://www.w3.org/2000/svg" xmlns:ev="http://www.w3.org/2001/xml-events" xmlns:xlink="http://www.w3.org/1999/xlink"><defs /><polyline fill="none" points="30.8068,31.2407 30.8068,43.3898 35.5797,50.7661 41.6542,54.2373 58.5763,55.9729 62.0475,52.5017 66.8203,35.1458 66.8203,29.939 63.7831,23.4305 48.5966,19.5254 41.2203,19.5254 36.0136,20.8271 31.2407,24.7322 28.2034,30.3729" stroke="#00007f" stroke-width="2" /><polyline fill="none" points="36.8814,53.3695 31.6746,54.2373 26.4678,58.1424 19.5254,70.7254 18.2237,78.1017 18.6576,80.2712 21.261,82.8746 39.4847,89.3831 67.2542,91.5525 77.6678,87.2136 80.2712,79.8373 79.4034,74.1966 74.6305,67.6881 61.1797,61.6136 59.4441,59.4441 59.4441,56.4068" stroke="#0000cc" stroke-width="2" /><polyline fill="none" points="45.1254,33.4102 45.1254,33.4102" stroke="#0008ff" stroke-width="2" /><polyline fill="none" points="47.7288,39.9186 48.5966,39.9186" stroke="#004cff" stroke-width="2" /><polyline fill="none" points="42.522,28.6373 42.522,32.1085" stroke="#0090ff" stroke-width="2" /><polyline fill="none" points="49.0305,29.5051 49.8983,31.6746" stroke="#00d4ff" stroke-width="2" /><polyline fill="none" points="59.878,39.0508 62.4814,39.4847 80.7051,35.1458" stroke="#29ffcd" stroke-width="2" /><polyline fill="none" points="59.4441,41.2203 83.7424,41.2203" stroke="#5fff96" stroke-width="2" /><polyline fill="none" points="65.5186,42.9559 61.6136,42.9559" stroke="#96ff5f" stroke-width="2" /><polyline fill="none" points="59.878,42.522 65.5186,42.522 78.9695,48.1627 83.7424,48.5966 85.0441,50.3322" stroke="#cdff29" stroke-width="2" /><polyline fill="none" points="34.278,34.278 21.6949,33.8441 8.678,30.3729" stroke="#ffe500" stroke-width="2" /><polyline fill="none" points="32.5424,35.1458 9.1119,41.6542" stroke="#ffa600" stroke-width="2" /><polyline fill="none" points="32.9763,37.3153 12.5831,43.3898" stroke="#ff6700" stroke-width="2" /><polyline fill="none" points="40.3525,18.6576 42.9559,8.678 47.2949,18.2237" stroke="#ff2800" stroke-width="2" /><polyline fill="none" points="56.8407,19.0915 59.4441,17.7898 62.0475,12.5831 62.9153,20.3932" stroke="#cc0000" stroke-width="2" /><polyline fill="none" points="78.1017,75.0644 108.0407,74.6305 115.8508,72.0271 118.8881,67.2542 119.322,47.2949 118.4542,40.7864 114.5492,32.9763" stroke="#7f0000" stroke-width="2" /></svg>