<?xml version="1.0" encoding="utf-8" ?>
<svg baseProfile="tiny" height="128" version="1.2" viewBox="0,0,128,128" width="128" xmlns="http://www.w3.org/2000/svg" xmlns:ev="http://www.w3.org/2001/xml-events" xmlns:xlink="http://www.w3.org/1999/xlink"><defs /><polyline fill="none" points="48.1627,26.0339 43.8237,28.6373 42.522,35.5797 44.6915,39.0508 49.4644,40.3525 63.7831,39.9186 66.8203,36.4475 66.8203,30.8068 62.4814,26.4678 43.8237,25.6" stroke="#00007f" stroke-width="2" /><polyline fill="none" points="52.9356,32.1085 52.0678,37.7492 53.8034,38.1831 58.1424,36.4475 59.0102,32.1085" stroke="#0000b6" stroke-width="2" /><polyline fill="none" points="53.3695,32.9763 38.1831,32.5424" stroke="#0000ec" stroke-width="2" /><polyline fill="none" points="53.8034,33.4102 40.7864,39.9186" stroke="#0010ff" stroke-width="2" /><polyline fill="none" points="53.8034,35.1458 50.7661,39.4847 43.8237,45.5593" stroke="#0040ff" stroke-width="2" /><polyline fill="none" points="57.2746,31.6746 68.5559,32.5424" stroke="#0070ff" stroke-width="2" /><polyline fill="none" points="55.1051,36.0136 65.9525,35.5797" stroke="#00a4ff" stroke-width="2" /><polyline fill="none" points="56.4068,37.3153 62.4814,38.6169 68.5559,36.4475" stroke="#00d4ff" stroke-width="2" /><polyline fill="none" points="49.4644,26.4678 49.8983,29.939" stroke="#18ffdd" stroke-width="2" /><polyline fill="none" points="56.4068,26.9017 58.5763,31.6746" stroke="#3fffb7" stroke-width="2" /><polyline fill="none" points="47.2949,26.9017 52.0678,18.6576 55.539,25.1661" stroke="#66ff90" stroke-width="2" /><polyline fill="none" points="59.878,25.1661 59.878,22.5627 63.3492,17.3559 65.9525,28.6373" stroke="#90ff66" stroke-width="2" /><polyline fill="none" points="52.5017,39.0508 55.1051,39.4847 56.4068,37.3153" stroke="#b7ff3f" stroke-width="2" /><polyline fill="none" points="53.8034,39.9186 59.4441,39.4847 85.9119,29.5051 96.3254,28.2034 103.2678,29.5051 110.2102,33.4102 114.5492,40.3525 116.2847,54.6712 113.2475,54.2373" stroke="#ddff18" stroke-width="2" /><polyline fill="none" points="56.8407,41.2203 57.2746,51.6339 58.5763,54.6712 69.8576,49.0305 74.1966,53.3695 80.2712,48.1627 83.7424,52.5017 86.7797,52.9356 94.1559,49.4644 97.6271,53.8034 104.5695,52.5017 110.6441,55.539 113.6814,53.3695" stroke="#ffe500" stroke-width="2" /><polyline fill="none" points="109.3424,33.4102 108.9085,29.5051 111.5119,24.2983 119.322,19.9593 118.0203,28.2034 113.2475,36.0136" stroke="#ffb900" stroke-width="2" /><polyline fill="none" points="11.7153,21.6949 13.4508,17.7898 19.5254,16.922 20.3932,9.1119 24.7322,16.0542 27.7695,10.8475 30.8068,8.678 32.9763,15.6203 39.4847,16.0542 41.6542,17.3559 42.9559,22.9966 40.7864,29.0712 34.278,37.7492 30.3729,39.4847 21.261,38.1831 13.4508,34.278 10.4136,28.6373 10.8475,20.3932" stroke="#ff8900" stroke-width="2" /><polyline fill="none" points="21.261,21.6949 21.261,22.9966" stroke="#ff5c00" stroke-width="2" /><polyline fill="none" points="32.5424,20.3932 31.6746,24.7322" stroke="#ff3000" stroke-width="2" /><polyline fill="none" points="22.1288,31.2407 8.678,37.7492" stroke="#ec0300" stroke-width="2" /><polyline fill="none" points="24.7322,32.1085 21.261,39.0508 16.922,42.522" stroke="#b60000" stroke-width="2" /><polyline fill="none" points="22.9966,36.8814 22.1288,45.1254" stroke="#7f0000" stroke-width="2" /></svg>