<?xml version="1.0" encoding="utf-8" ?>
<svg baseProfile="tiny" height="128" version="1.2" viewBox="0,0,128,128" width="128" xmlns="http://www.w3.org/2000/svg" xmlns:ev="http://www.w3.org/2001/xml-events" xmlns:xlink="http://www.w3.org/1999/xlink"><defs /><polyline fill="none" points="43.9728,35.7007 21.7687,49.1973 14.8027,55.7279 9.1429,67.9184 8.7075,78.8027 12.1905,92.7347 25.2517,111.4558 35.7007,115.8095 50.5034,119.2925 60.517,119.2925 69.6599,117.551 87.0748,108.4082 101.8776,95.3469 108.4082,84.898 109.7143,74.8844 103.619,57.4694 95.7823,47.8912 81.8503,41.3605 70.0952,37.4422 55.2925,35.2653 37.4422,35.2653" stroke="#00007f" stroke-width="2" /><polyline fill="none" points="23.5102,47.0204 22.2041,41.3605 22.2041,29.1701 16.1088,10.8844 17.8503,9.1429 33.0884,9.5782 40.4898,11.3197 52.2449,18.7211 62.6939,33.9592" stroke="#0000e8" stroke-width="2" /><polyline fill="none" points="73.5782,37.0068 81.415,23.0748 87.5102,16.1088 97.5238,10.8844 110.585,8.7075 115.3741,23.9456 115.3741,34.8299 103.619,58.7755" stroke="#0038ff" stroke-width="2" /><polyline fill="none" points="60.517,75.3197 57.4694,76.1905 55.7279,79.2381 60.0816,79.6735 63.1293,77.0612 61.3878,76.6259 56.1633,79.2381 56.5986,77.0612" stroke="#0094ff" stroke-width="2" /><polyline fill="none" points="40.4898,102.3129 68.3537,97.0884 75.7551,97.9592" stroke="#0cf4ea" stroke-width="2" /><polyline fill="none" points="61.3878,97.0884 62.6939,80.5442 60.9524,76.6259" stroke="#56ffa0" stroke-width="2" /><polyline fill="none" points="51.3741,74.8844 44.4082,74.8844 39.1837,76.6259 28.7347,77.932 10.449,77.932" stroke="#a0ff56" stroke-width="2" /><polyline fill="none" points="56.5986,80.5442 42.6667,81.415 23.5102,87.0748" stroke="#eaff0c" stroke-width="2" /><polyline fill="none" points="58.3401,80.9796 43.9728,84.0272" stroke="#ffaa00" stroke-width="2" /><polyline fill="none" points="71.8367,74.0136 79.2381,69.2245 90.9932,64.8707 104.4898,64.0" stroke="#ff5500" stroke-width="2" /><polyline fill="none" points="63.1293,77.932 90.5578,77.932 94.4762,78.3673 94.4762,79.2381" stroke="#e80000" stroke-width="2" /><polyline fill="none" points="63.1293,79.2381 82.7211,84.0272 85.7687,89.2517" stroke="#7f0000" stroke-width="2" /></svg>