<?xml version="1.0" encoding="utf-8" ?>
<svg baseProfile="tiny" height="128" version="1.2" viewBox="0,0,128,128" width="128" xmlns="http://www.w3.org/2000/svg" xmlns:ev="http://www.w3.org/2001/xml-events" xmlns:xlink="http://www.w3.org/1999/xlink"><defs /><polyline fill="none" points="52.9356,51.2 45.5593,42.9559 42.0881,40.7864 36.8814,39.9186 29.5051,39.9186 15.6203,48.5966 10.8475,55.9729 8.678,62.9153 9.1119,70.2915 13.4508,77.6678 20.8271,84.1763 32.1085,89.3831 43.8237,92.8542 70.7254,93.722 80.7051,92.4203 89.8169,88.5153 95.4576,83.7424 98.4949,74.6305 98.4949,69.8576 94.1559,62.9153 79.8373,50.3322 63.7831,43.3898 52.9356,41.6542" stroke="#00007f" stroke-width="2" /><polyline fill="none" points="18.6576,49.4644 17.7898,41.6542 18.6576,38.1831 27.7695,23.4305 34.278,9.9797 36.8814,21.6949 41.2203,31.2407 48.1627,36.4475 57.7085,38.6169" stroke="#7cff79" stroke-width="2" /><polyline fill="none" points="88.5153,47.7288 89.3831,42.0881 101.0983,31.6746 119.322,8.678 98.061,59.4441" stroke="#7f0000" stroke-width="2" /></svg>