<?xml version="1.0" encoding="utf-8" ?>
<svg baseProfile="tiny" height="128" version="1.2" viewBox="0,0,128,128" width="128" xmlns="http://www.w3.org/2000/svg" xmlns:ev="http://www.w3.org/2001/xml-events" xmlns:xlink="http://www.w3.org/1999/xlink"><defs /><polyline fill="none" points="71.5932,22.5627 72.0271,16.4881 75.4983,9.9797 80.2712,20.8271 82.4407,20.8271 85.0441,16.0542 88.9492,13.8847 95.4576,15.1864 102.4,18.6576 106.3051,8.678 110.2102,12.1492 112.8136,16.922 113.2475,27.3356 111.5119,30.8068 105.8712,34.278 101.0983,35.1458 93.2881,35.5797 78.9695,31.6746 71.5932,26.0339 70.7254,19.9593" stroke="#00007f" stroke-width="2" /><polyline fill="none" points="91.9864,22.1288 92.8542,19.5254 91.1186,19.9593 91.1186,21.6949 91.9864,20.3932" stroke="#0028ff" stroke-width="2" /><polyline fill="none" points="103.2678,22.9966 103.7017,20.3932 102.8339,20.8271" stroke="#00d4ff" stroke-width="2" /><polyline fill="none" points="112.8136,22.1288 113.2475,27.3356 115.4169,26.4678 117.1525,22.5627 115.8508,20.3932 113.2475,23.8644 114.1153,26.9017 117.5864,24.7322 119.322,22.1288 115.8508,22.9966 114.1153,25.6 114.9831,27.3356" stroke="#7cff79" stroke-width="2" /><polyline fill="none" points="87.2136,27.7695 94.1559,31.6746 101.5322,32.5424 104.5695,29.939" stroke="#ffe500" stroke-width="2" /><polyline fill="none" points="97.1932,27.7695 99.3627,26.0339 100.2305,27.7695 101.0983,26.9017 100.6644,24.2983 98.4949,24.7322 98.061,26.9017 101.0983,28.6373 103.7017,27.7695 102.8339,25.6 98.9288,23.8644 96.7593,25.6 100.2305,28.6373 102.4,28.6373 103.2678,26.4678 99.7966,25.1661 99.7966,27.3356" stroke="#ff4600" stroke-width="2" /><polyline fill="none" points="70.7254,25.6 34.278,30.3729 24.7322,33.4102 20.8271,36.0136 11.7153,45.9932 8.678,55.1051 9.9797,55.539" stroke="#7f0000" stroke-width="2" /></svg>