<?xml version="1.0" encoding="utf-8" ?>
<svg baseProfile="tiny" height="128" version="1.2" viewBox="0,0,128,128" width="128" xmlns="http://www.w3.org/2000/svg" xmlns:ev="http://www.w3.org/2001/xml-events" xmlns:xlink="http://www.w3.org/1999/xlink"><defs /><polyline fill="none" points="72.0271,20.8271 60.7458,20.8271 55.1051,22.9966 48.1627,27.7695 40.7864,36.8814 36.8814,52.5017 36.8814,59.878 39.0508,64.6508 50.3322,76.8 64.6508,81.5729 82.4407,80.7051 89.3831,75.4983 98.4949,56.8407 101.5322,42.9559 101.0983,30.3729 93.2881,23.8644 83.3085,19.9593 68.9898,17.3559" stroke="#00007f" stroke-width="2" /><polyline fill="none" points="36.8814,40.7864 34.278,15.6203 39.9186,19.0915 44.6915,24.7322" stroke="#0000ff" stroke-width="2" /><polyline fill="none" points="88.0814,22.9966 93.722,19.0915 100.2305,8.678 102.4,14.3186 102.4,19.9593 99.3627,30.3729" stroke="#0080ff" stroke-width="2" /><polyline fill="none" points="36.8814,55.9729 24.7322,57.7085 8.678,62.4814" stroke="#15ffe1" stroke-width="2" /><polyline fill="none" points="36.8814,72.8949 20.3932,78.5356 15.1864,81.5729" stroke="#7cff79" stroke-width="2" /><polyline fill="none" points="45.5593,79.4034 38.6169,82.4407 26.4678,91.9864" stroke="#e4ff12" stroke-width="2" /><polyline fill="none" points="93.722,54.2373 119.322,55.1051" stroke="#ff9400" stroke-width="2" /><polyline fill="none" points="96.7593,71.1593 96.7593,71.1593" stroke="#ff1d00" stroke-width="2" /><polyline fill="none" points="89.8169,60.7458 100.2305,61.6136" stroke="#7f0000" stroke-width="2" /></svg>