<?xml version="1.0" encoding="utf-8" ?>
<svg baseProfile="tiny" height="128" version="1.2" viewBox="0,0,128,128" width="128" xmlns="http://www.w3.org/2000/svg" xmlns:ev="http://www.w3.org/2001/xml-events" xmlns:xlink="http://www.w3.org/1999/xlink"><defs /><polyline fill="none" points="30.3729,9.9797 22.5627,9.9797 16.0542,14.3186 10.4136,24.2983 8.678,34.7119 10.8475,42.522 15.6203,48.5966 23.8644,52.5017 34.7119,52.0678 43.3898,49.0305 49.4644,42.9559 52.0678,37.3153 52.5017,27.3356 48.1627,16.4881 41.2203,10.4136 33.4102,8.678 28.2034,9.9797" stroke="#00007f" stroke-width="2" /><polyline fill="none" points="42.0881,49.0305 39.9186,52.5017 41.2203,60.7458 44.2576,64.2169 49.0305,67.2542 52.9356,67.6881 58.5763,65.5186 63.7831,58.1424 66.8203,65.0847 72.461,68.9898 77.6678,68.5559 80.7051,65.5186 82.4407,61.6136 88.0814,66.3864 92.8542,66.8203 96.3254,65.0847 98.061,61.6136 96.7593,53.8034 101.0983,63.3492 108.0407,69.8576 116.7186,72.0271 119.322,68.122 116.2847,58.5763 101.5322,33.8441 88.9492,19.5254 79.4034,15.6203 56.8407,10.8475 49.8983,10.8475 43.3898,12.1492" stroke="#7f0000" stroke-width="2" /></svg>