<?xml version="1.0" encoding="utf-8" ?>
<svg baseProfile="tiny" height="128" version="1.2" viewBox="0,0,128,128" width="128" xmlns="http://www.w3.org/2000/svg" xmlns:ev="http://www.w3.org/2001/xml-events" xmlns:xlink="http://www.w3.org/1999/xlink"><defs /><polyline fill="none" points="21.261,26.4678 19.9593,24.2983 19.9593,8.678 22.9966,10.8475 38.6169,30.8068 46.861,28.6373 64.2169,28.2034 85.478,35.1458 90.2508,23.4305 98.4949,11.2814 99.3627,28.2034 97.1932,42.9559" stroke="#00007f" stroke-width="2" /><polyline fill="none" points="19.9593,25.6 20.3932,28.2034 27.7695,45.1254 22.1288,47.7288 18.2237,53.3695 13.0169,66.8203 11.7153,77.6678 13.4508,81.5729 20.8271,88.5153 41.2203,98.061 57.7085,101.5322 73.3288,102.4 85.478,99.3627 95.4576,93.722 99.7966,89.8169 108.0407,75.4983 109.7763,63.7831 101.5322,50.7661 97.1932,45.9932" stroke="#0000ff" stroke-width="2" /><polyline fill="none" points="48.5966,65.0847 55.1051,63.7831 64.2169,64.2169 65.5186,65.5186 65.0847,69.8576 61.6136,74.1966 51.2,63.3492" stroke="#0080ff" stroke-width="2" /><polyline fill="none" points="46.861,47.7288 49.4644,49.8983 51.6339,47.2949 51.6339,45.5593 49.4644,44.2576 48.1627,44.2576 46.861,46.861" stroke="#15ffe1" stroke-width="2" /><polyline fill="none" points="68.5559,46.861 66.3864,46.861 69.8576,50.7661 72.461,50.3322 72.8949,46.4271 70.7254,45.5593" stroke="#7cff79" stroke-width="2" /><polyline fill="none" points="68.9898,66.3864 77.6678,64.2169 89.8169,64.2169 102.8339,68.9898 112.8136,75.9322" stroke="#e4ff12" stroke-width="2" /><polyline fill="none" points="72.461,70.2915 81.139,78.1017 91.9864,100.2305" stroke="#ff9400" stroke-width="2" /><polyline fill="none" points="38.1831,68.9898 29.0712,64.2169 21.6949,64.2169 14.3186,67.6881 8.678,76.3661" stroke="#ff1d00" stroke-width="2" /><polyline fill="none" points="43.8237,68.5559 39.9186,70.2915 32.5424,76.8 25.6,85.478 22.1288,91.9864 19.9593,98.9288 18.6576,111.078 19.5254,115.8508 22.5627,119.322" stroke="#7f0000" stroke-width="2" /></svg>