<?xml version="1.0" encoding="utf-8" ?>
<svg baseProfile="tiny" height="128" version="1.2" viewBox="0,0,128,128" width="128" xmlns="http://www.w3.org/2000/svg" xmlns:ev="http://www.w3.org/2001/xml-events" xmlns:xlink="http://www.w3.org/1999/xlink"><defs /><polyline fill="none" points="59.0102,33.8441 58.1424,18.2237 66.3864,19.0915 78.5356,17.3559 79.4034,27.7695 70.7254,27.7695 61.1797,30.3729" stroke="#00007f" stroke-width="2" /><polyline fill="none" points="62.9153,25.1661 62.9153,25.1661" stroke="#0000ba" stroke-width="2" /><polyline fill="none" points="68.5559,23.4305 68.5559,23.4305" stroke="#0000f5" stroke-width="2" /><polyline fill="none" points="79.4034,23.4305 79.4034,23.4305" stroke="#0020ff" stroke-width="2" /><polyline fill="none" points="75.4983,21.6949 75.4983,21.6949" stroke="#0054ff" stroke-width="2" /><polyline fill="none" points="68.9898,25.6 68.9898,25.6" stroke="#008cff" stroke-width="2" /><polyline fill="none" points="68.5559,24.7322 68.5559,24.7322" stroke="#00c0ff" stroke-width="2" /><polyline fill="none" points="78.1017,18.2237 78.1017,18.2237" stroke="#0ff8e7" stroke-width="2" /><polyline fill="none" points="78.5356,22.9966 78.5356,22.9966" stroke="#39ffbd" stroke-width="2" /><polyline fill="none" points="63.7831,24.2983 63.7831,24.2983" stroke="#66ff90" stroke-width="2" /><polyline fill="none" points="60.7458,22.9966 60.7458,22.9966" stroke="#90ff66" stroke-width="2" /><polyline fill="none" points="69.4237,16.0542 68.9898,22.9966" stroke="#bdff39" stroke-width="2" /><polyline fill="none" points="69.8576,21.261 69.8576,21.261" stroke="#e7ff0f" stroke-width="2" /><polyline fill="none" points="70.7254,19.5254 70.7254,19.5254" stroke="#ffd300" stroke-width="2" /><polyline fill="none" points="74.6305,18.6576 78.5356,22.5627 74.6305,17.7898 66.3864,22.1288 65.0847,19.9593 70.7254,11.2814 72.0271,13.4508 70.7254,18.6576 75.4983,8.678 79.8373,10.8475 95.8915,12.1492 98.9288,13.8847 99.3627,21.6949 104.1356,19.0915 105.0034,26.0339 109.3424,24.7322 110.2102,27.3356 113.6814,28.2034 118.8881,24.7322 115.8508,29.5051" stroke="#ffa300" stroke-width="2" /><polyline fill="none" points="55.1051,20.8271 48.5966,20.8271" stroke="#ff6f00" stroke-width="2" /><polyline fill="none" points="43.3898,16.4881 42.9559,22.9966 39.4847,21.6949 32.1085,26.4678 29.939,17.3559 25.1661,26.9017 22.9966,9.1119 25.1661,21.261" stroke="#ff3f00" stroke-width="2" /><polyline fill="none" points="81.139,40.3525 85.0441,38.6169 89.3831,33.8441" stroke="#f50b00" stroke-width="2" /><polyline fill="none" points="85.9119,26.9017 92.8542,25.1661 94.1559,25.6 93.2881,30.3729 99.7966,25.6 99.7966,34.7119 103.7017,35.1458 119.322,22.5627 106.739,36.4475 99.3627,30.3729 78.1017,33.4102 68.9898,30.3729 61.1797,24.2983 58.1424,24.2983 50.3322,29.939 40.7864,26.9017 29.5051,30.3729 19.0915,19.9593 16.0542,22.1288 14.7525,26.4678 8.678,26.0339" stroke="#ba0000" stroke-width="2" /><polyline fill="none" points="49.8983,19.9593 44.6915,21.261 43.8237,19.5254 48.1627,22.5627 51.6339,22.9966 78.5356,21.261 82.0068,25.1661 86.7797,38.6169 88.0814,38.1831 100.6644,28.2034 101.0983,32.9763 106.739,30.8068" stroke="#7f0000" stroke-width="2" /></svg>