<?xml version="1.0" encoding="utf-8" ?>
<svg baseProfile="tiny" height="128" version="1.2" viewBox="0,0,128,128" width="128" xmlns="http://www.w3.org/2000/svg" xmlns:ev="http://www.w3.org/2001/xml-events" xmlns:xlink="http://www.w3.org/1999/xlink"><defs /><polyline fill="none" points="10.4136,52.0678 17.7898,65.9525 25.6,69.8576 33.8441,70.2915 40.3525,66.8203 54.2373,51.2 55.9729,45.9932 55.539,39.4847 49.8983,35.5797 32.9763,30.3729 16.922,29.5051 12.5831,34.7119 11.2814,39.9186 9.9797,52.0678 11.7153,55.1051" stroke="#00007f" stroke-width="2" /><polyline fill="none" points="15.6203,31.2407 16.922,14.7525 19.0915,8.678 22.9966,12.5831 30.8068,29.5051" stroke="#0000ff" stroke-width="2" /><polyline fill="none" points="39.9186,31.2407 44.6915,17.3559 49.4644,11.2814 52.5017,10.8475 55.1051,13.8847 55.539,25.6 52.0678,37.3153" stroke="#0080ff" stroke-width="2" /><polyline fill="none" points="21.6949,68.122 10.8475,82.4407 8.678,91.5525 8.678,99.3627 11.2814,106.739 15.6203,113.2475 20.3932,114.5492 28.6373,114.5492 36.4475,111.5119 39.9186,104.5695 42.0881,73.7627 41.2203,65.9525" stroke="#15ffe1" stroke-width="2" /><polyline fill="none" points="20.3932,113.2475 21.6949,108.4746 25.6,102.8339 31.2407,99.7966 48.1627,95.8915" stroke="#7cff79" stroke-width="2" /><polyline fill="none" points="48.1627,95.8915 67.2542,82.8746 69.8576,78.9695 69.8576,74.6305 66.8203,72.461 58.5763,72.461" stroke="#e4ff12" stroke-width="2" /><polyline fill="none" points="21.6949,44.2576 23.4305,44.6915 24.2983,42.9559 22.9966,42.522" stroke="#ff9400" stroke-width="2" /><polyline fill="none" points="42.522,49.8983 98.9288,49.0305 119.322,51.2" stroke="#ff1d00" stroke-width="2" /><polyline fill="none" points="39.4847,58.1424 59.4441,64.6508 75.4983,64.6508" stroke="#7f0000" stroke-width="2" /></svg>