<?xml version="1.0" encoding="utf-8" ?>
<svg baseProfile="tiny" height="128" version="1.2" viewBox="0,0,128,128" width="128" xmlns="http://www.w3.org/2000/svg" xmlns:ev="http://www.w3.org/2001/xml-events" xmlns:xlink="http://www.w3.org/1999/xlink"><defs /><polyline fill="none" points="77.6678,26.4678 93.2881,18.6576 107.1729,8.678 106.739,22.1288 101.9661,38.1831" stroke="#00007f" stroke-width="2" /><polyline fill="none" points="77.2339,26.0339 51.2,31.2407 44.6915,33.8441 33.4102,21.6949 24.2983,14.7525 23.4305,25.1661 27.3356,40.3525 22.1288,45.9932 19.5254,53.3695 19.5254,68.122 22.9966,77.6678 36.0136,88.9492 42.9559,91.9864 53.3695,93.722 71.5932,92.8542 86.7797,89.3831 103.2678,81.5729 111.078,75.0644 116.7186,68.122 119.322,56.8407 116.7186,51.6339 99.7966,40.3525" stroke="#0000e8" stroke-width="2" /><polyline fill="none" points="55.1051,70.2915 64.2169,71.5932 65.0847,73.7627 60.7458,74.6305 55.9729,70.7254 57.7085,70.7254" stroke="#0038ff" stroke-width="2" /><polyline fill="none" points="59.878,72.0271 62.0475,70.2915" stroke="#0094ff" stroke-width="2" /><polyline fill="none" points="79.8373,55.539 78.1017,55.9729 78.5356,57.7085 80.7051,56.8407 81.5729,55.539 79.4034,55.1051 76.3661,59.0102" stroke="#0cf4ea" stroke-width="2" /><polyline fill="none" points="52.0678,57.7085 52.0678,59.4441 54.2373,59.4441 56.4068,56.4068 53.3695,56.4068 50.3322,59.0102" stroke="#56ffa0" stroke-width="2" /><polyline fill="none" points="88.9492,72.0271 106.739,63.7831 115.8508,63.3492" stroke="#a0ff56" stroke-width="2" /><polyline fill="none" points="89.3831,76.8 105.8712,74.1966 114.1153,74.6305" stroke="#eaff0c" stroke-width="2" /><polyline fill="none" points="88.5153,80.2712 108.4746,88.9492" stroke="#ffaa00" stroke-width="2" /><polyline fill="none" points="42.0881,71.5932 38.6169,70.2915 31.2407,70.2915 8.678,77.2339" stroke="#ff5500" stroke-width="2" /><polyline fill="none" points="40.3525,78.9695 28.2034,82.4407 17.7898,88.0814" stroke="#e80000" stroke-width="2" /><polyline fill="none" points="35.1458,91.1186 26.4678,95.0237 21.261,101.5322" stroke="#7f0000" stroke-width="2" /></svg>