<?xml version="1.0" encoding="utf-8" ?>
<svg baseProfile="tiny" height="128" version="1.2" viewBox="0,0,128,128" width="128" xmlns="http://www.w3.org/2000/svg" xmlns:ev="http://www.w3.org/2001/xml-events" xmlns:xlink="http://www.w3.org/1999/xlink"><defs /><polyline fill="none" points="14.3186,22.1288 9.9797,33.4102 8.678,40.7864 9.5458,49.8983 13.8847,60.7458 24.7322,64.6508 42.522,63.3492 52.0678,61.1797 72.461,50.3322 91.5525,36.0136 95.0237,30.3729 93.2881,26.0339 86.7797,21.261 78.1017,18.2237 45.1254,14.3186 38.1831,16.0542 11.2814,16.0542 9.1119,16.922 8.678,18.2237 13.8847,22.5627" stroke="#00007f" stroke-width="2" /><polyline fill="none" points="9.9797,28.2034 9.9797,15.1864 9.1119,9.9797 17.3559,22.1288" stroke="#0010ff" stroke-width="2" /><polyline fill="none" points="72.8949,15.1864 75.4983,8.678 78.5356,15.6203" stroke="#00a4ff" stroke-width="2" /><polyline fill="none" points="29.0712,27.3356 29.0712,27.3356" stroke="#3fffb7" stroke-width="2" /><polyline fill="none" points="30.8068,28.2034 29.0712,26.9017 23.4305,30.8068 24.7322,32.1085 29.5051,30.3729 30.8068,29.5051 30.3729,26.9017" stroke="#b7ff3f" stroke-width="2" /><polyline fill="none" points="66.8203,29.5051 61.6136,26.4678 59.878,31.2407 66.8203,31.2407" stroke="#ffb900" stroke-width="2" /><polyline fill="none" points="68.122,38.1831 119.322,22.5627" stroke="#ff3000" stroke-width="2" /><polyline fill="none" points="73.7627,39.9186 84.1763,50.3322" stroke="#7f0000" stroke-width="2" /></svg>