<?xml version="1.0" encoding="utf-8" ?>
<svg baseProfile="tiny" height="128" version="1.2" viewBox="0,0,128,128" width="128" xmlns="http://www.w3.org/2000/svg" xmlns:ev="http://www.w3.org/2001/xml-events" xmlns:xlink="http://www.w3.org/1999/xlink"><defs /><polyline fill="none" points="46.744,29.2696 53.7338,10.4846 54.6075,10.4846 59.8498,21.843 62.471,32.3276 73.3925,32.3276 73.8294,27.959 77.3242,17.9113 84.7509,8.7372 85.6246,9.6109 92.6143,24.4642 95.6724,40.1911 89.9932,57.2287 82.1297,66.8396 65.9659,67.7133 58.1024,63.3447 52.4232,58.1024 47.6177,50.2389 44.1229,39.3174 42.8123,31.0171 43.2491,24.901" stroke="#00007f" stroke-width="2" /><polyline fill="none" points="58.1024,37.1331 56.7918,41.0648 60.7235,41.5017 62.9078,38.0068 60.2867,36.2594" stroke="#0000ff" stroke-width="2" /><polyline fill="none" points="81.256,38.0068 81.256,42.3754 83.0034,42.8123 84.7509,41.5017 85.6246,38.0068 79.5085,35.8225" stroke="#0080ff" stroke-width="2" /><polyline fill="none" points="66.4027,53.2969 67.7133,55.0444 71.6451,54.1706 72.0819,51.1126 69.4608,50.2389 68.1502,51.1126" stroke="#15ffe1" stroke-width="2" /><polyline fill="none" points="75.1399,53.2969 104.8464,50.6758 111.3993,46.744" stroke="#7cff79" stroke-width="2" /><polyline fill="none" points="71.2082,56.3549 91.7406,64.6553 119.2628,72.5188 117.9522,70.3345" stroke="#e4ff12" stroke-width="2" /><polyline fill="none" points="68.587,53.7338 35.8225,44.9966 8.7372,36.2594" stroke="#ff9400" stroke-width="2" /><polyline fill="none" points="65.0922,54.1706 63.3447,55.9181 51.1126,59.413 36.2594,67.2765" stroke="#ff1d00" stroke-width="2" /><polyline fill="none" points="78.198,55.4812 97.4198,57.6655" stroke="#7f0000" stroke-width="2" /></svg>