<?xml version="1.0" encoding="utf-8" ?>
<svg baseProfile="tiny" height="128" version="1.2" viewBox="0,0,128,128" width="128" xmlns="http://www.w3.org/2000/svg" xmlns:ev="http://www.w3.org/2001/xml-events" xmlns:xlink="http://www.w3.org/1999/xlink"><defs /><polyline fill="none" points="31.6746,41.2203 9.5458,20.8271 12.1492,49.0305" stroke="#00007f" stroke-width="2" /><polyline fill="none" points="29.5051,40.3525 52.0678,34.7119 63.7831,33.8441 63.7831,35.1458 63.7831,16.0542 65.5186,8.678 70.2915,13.4508 73.7627,19.5254 81.5729,37.3153" stroke="#0000de" stroke-width="2" /><polyline fill="none" points="82.4407,37.3153 90.2508,41.2203 90.2508,42.9559 83.7424,49.4644 83.7424,50.7661 90.6847,49.4644 85.9119,62.9153 90.6847,66.8203 90.2508,74.6305 88.0814,80.7051 85.478,81.5729" stroke="#0028ff" stroke-width="2" /><polyline fill="none" points="13.8847,52.0678 12.1492,55.1051 13.0169,65.9525 32.1085,84.1763 33.4102,88.5153 32.9763,91.9864 26.4678,109.3424 17.3559,119.322" stroke="#0080ff" stroke-width="2" /><polyline fill="none" points="86.3458,82.8746 100.2305,92.8542 107.6068,94.1559 118.4542,93.2881" stroke="#00d4ff" stroke-width="2" /><polyline fill="none" points="37.3153,58.5763 34.278,62.0475 35.5797,62.4814 39.4847,59.878 39.9186,57.2746 36.8814,57.2746 34.7119,59.0102" stroke="#36ffc0" stroke-width="2" /><polyline fill="none" points="71.5932,48.5966 68.122,52.0678 71.1593,52.0678 72.8949,49.8983 71.5932,49.0305 66.8203,51.2" stroke="#7cff79" stroke-width="2" /><polyline fill="none" points="51.2,65.0847 58.1424,62.9153 55.539,68.9898 49.0305,68.9898 45.1254,66.8203 48.5966,64.2169 54.6712,64.2169" stroke="#c0ff36" stroke-width="2" /><polyline fill="none" points="54.6712,69.8576 54.6712,72.8949 51.2,78.9695 46.861,80.2712 43.3898,75.9322" stroke="#ffe500" stroke-width="2" /><polyline fill="none" points="54.6712,74.6305 58.5763,78.1017 62.0475,78.9695 63.7831,75.0644 62.9153,72.0271" stroke="#ff9400" stroke-width="2" /><polyline fill="none" points="59.878,70.2915 62.9153,66.8203 75.0644,61.1797 103.7017,52.0678 109.7763,51.6339" stroke="#ff4600" stroke-width="2" /><polyline fill="none" points="71.1593,69.8576 107.1729,63.3492" stroke="#de0000" stroke-width="2" /><polyline fill="none" points="45.5593,74.1966 26.0339,76.8 8.678,82.4407" stroke="#7f0000" stroke-width="2" /></svg>