<?xml version="1.0" encoding="utf-8" ?>
<svg baseProfile="tiny" height="128" version="1.2" viewBox="0,0,128,128" width="128" xmlns="http://www.w3.org/2000/svg" xmlns:ev="http://www.w3.org/2001/xml-events" xmlns:xlink="http://www.w3.org/1999/xlink"><defs /><polyline fill="none" points="35.1458,29.939 33.8441,26.4678 39.9186,22.1288 54.6712,18.6576 66.3864,18.6576 81.139,22.9966 88.0814,27.7695 95.4576,35.1458" stroke="#00007f" stroke-width="2" /><polyline fill="none" points="99.3627,32.9763 98.061,29.5051 118.4542,11.7153 119.322,15.1864 116.7186,30.8068 112.3797,47.7288 108.9085,54.2373" stroke="#0010ff" stroke-width="2" /><polyline fill="none" points="36.4475,29.5051 22.1288,17.3559 8.678,8.678 14.7525,25.1661 20.8271,53.8034 18.2237,77.2339 19.5254,91.1186 25.1661,99.7966 37.3153,106.739 47.7288,108.4746 60.3119,107.6068 72.0271,102.4 83.7424,94.5898 97.6271,80.2712 106.739,66.8203 109.7763,58.1424 110.6441,50.7661" stroke="#00a4ff" stroke-width="2" /><polyline fill="none" points="44.6915,68.122 41.6542,68.5559 39.9186,72.0271 37.7492,85.9119 41.6542,98.9288 45.9932,104.1356" stroke="#3fffb7" stroke-width="2" /><polyline fill="none" points="44.2576,68.5559 51.6339,66.8203 63.7831,67.6881 67.6881,69.4237 72.0271,74.1966 73.7627,77.6678 72.0271,87.2136 69.4237,92.4203 63.7831,97.6271 50.3322,104.1356" stroke="#b7ff3f" stroke-width="2" /><polyline fill="none" points="51.6339,78.5356 56.8407,81.139 59.878,80.7051 59.878,77.2339" stroke="#ffb900" stroke-width="2" /><polyline fill="none" points="58.1424,83.7424 55.1051,85.0441 47.2949,93.2881 36.0136,100.6644" stroke="#ff3000" stroke-width="2" /><polyline fill="none" points="66.8203,79.4034 63.3492,81.139 62.0475,88.0814 67.2542,98.9288 71.5932,101.9661" stroke="#7f0000" stroke-width="2" /></svg>