<?xml version="1.0" encoding="utf-8" ?>
<svg baseProfile="tiny" height="128" version="1.2" viewBox="0,0,128,128" width="128" xmlns="http://www.w3.org/2000/svg" xmlns:ev="http://www.w3.org/2001/xml-events" xmlns:xlink="http://www.w3.org/1999/xlink"><defs /><polyline fill="none" points="40.3525,33.8441 37.7492,33.4102 23.4305,37.7492 11.7153,48.5966 9.1119,54.6712 8.678,59.878 15.1864,75.9322 31.2407,91.1186 38.6169,95.4576 49.4644,99.3627 63.7831,103.2678 77.2339,104.5695 99.7966,104.1356 111.5119,98.061 118.0203,89.8169 119.322,78.5356 115.8508,66.3864 113.6814,62.9153 105.0034,53.8034 84.6102,40.7864 62.9153,31.6746 54.6712,29.0712 35.5797,28.2034 26.0339,30.8068 23.4305,32.1085 23.4305,34.7119 28.2034,8.678 30.8068,9.1119 53.3695,32.1085" stroke="#00007f" stroke-width="2" /><polyline fill="none" points="98.4949,45.1254 104.1356,39.0508 114.1153,33.4102 119.322,58.1424" stroke="#0000f1" stroke-width="2" /><polyline fill="none" points="62.4814,67.6881 65.0847,66.3864 72.0271,66.3864 69.8576,67.2542 65.5186,65.0847" stroke="#004cff" stroke-width="2" /><polyline fill="none" points="84.1763,77.2339 103.2678,83.3085 111.078,84.1763 106.3051,85.9119" stroke="#00b0ff" stroke-width="2" /><polyline fill="none" points="88.9492,83.3085 97.1932,91.9864" stroke="#29ffcd" stroke-width="2" /><polyline fill="none" points="79.8373,88.0814 78.5356,108.4746" stroke="#7cff79" stroke-width="2" /><polyline fill="none" points="42.522,52.9356 39.4847,52.5017 28.2034,45.1254 25.1661,48.5966" stroke="#cdff29" stroke-width="2" /><polyline fill="none" points="42.9559,65.5186 25.1661,62.0475" stroke="#ffc400" stroke-width="2" /><polyline fill="none" points="43.8237,72.8949 20.8271,73.7627" stroke="#ff6700" stroke-width="2" /><polyline fill="none" points="52.9356,45.1254 53.3695,47.7288 59.4441,50.3322 59.878,47.7288 56.4068,45.9932" stroke="#f10700" stroke-width="2" /><polyline fill="none" points="83.7424,61.1797 87.2136,62.4814 91.1186,62.0475" stroke="#7f0000" stroke-width="2" /></svg>