<?xml version="1.0" encoding="utf-8" ?>
<svg baseProfile="tiny" height="128" version="1.2" viewBox="0,0,128,128" width="128" xmlns="http://www.w3.org/2000/svg" xmlns:ev="http://www.w3.org/2001/xml-events" xmlns:xlink="http://www.w3.org/1999/xlink"><defs /><polyline fill="none" points="67.483,85.7687 70.5306,76.6259 70.966,67.0476 66.6122,57.034 63.1293,53.1156 55.7279,48.3265 49.1973,45.2789 43.102,44.8435 20.0272,55.2925 14.3673,61.8231 8.7075,79.2381 8.7075,97.0884 10.8844,101.0068 15.6735,107.9728 23.5102,113.6327 43.102,119.2925 58.3401,117.1156 70.5306,101.8776 85.7687,88.8163 87.9456,80.5442 84.898,75.3197 79.2381,70.5306" stroke="#00007f" stroke-width="2" /><polyline fill="none" points="10.8844,59.2109 20.898,31.7823 23.5102,16.5442 27.8639,8.7075 30.9116,17.415 30.9116,33.0884 37.0068,41.7959" stroke="#0080ff" stroke-width="2" /><polyline fill="none" points="64.8707,48.7619 75.3197,40.0544 87.0748,25.2517 87.5102,48.3265 83.5918,59.6463 78.8027,68.7891" stroke="#7cff79" stroke-width="2" /><polyline fill="none" points="23.0748,66.6122 21.7687,74.8844 23.9456,75.3197 24.8163,72.2721 22.2041,65.3061" stroke="#ff9400" stroke-width="2" /><polyline fill="none" points="58.7755,71.4014 64.4354,72.7075" stroke="#7f0000" stroke-width="2" /></svg>