<?xml version="1.0" encoding="utf-8" ?>
<svg baseProfile="tiny" height="128" version="1.2" viewBox="0,0,128,128" width="128" xmlns="http://www.w3.org/2000/svg" xmlns:ev="http://www.w3.org/2001/xml-events" xmlns:xlink="http://www.w3.org/1999/xlink"><defs /><polyline fill="none" points="101.9661,40.3525 112.8136,21.6949 118.8881,8.678 119.322,26.4678 118.0203,49.8983" stroke="#00007f" stroke-width="2" /><polyline fill="none" points="96.3254,38.1831 36.8814,36.8814 33.4102,33.8441 32.9763,30.3729 21.261,14.3186 19.0915,17.7898 19.0915,45.5593 12.5831,47.2949 9.1119,51.2 8.678,71.1593 15.6203,93.2881 22.1288,101.9661 25.6,105.0034 28.6373,105.0034 32.9763,108.9085 40.7864,111.078 82.4407,111.9458 92.8542,107.1729 111.5119,95.0237 117.1525,87.6475 118.8881,83.3085 119.322,65.0847 116.2847,56.8407" stroke="#0028ff" stroke-width="2" /><polyline fill="none" points="59.878,78.1017 62.9153,78.1017 62.9153,74.6305 56.8407,70.7254 57.2746,74.1966 60.3119,78.1017" stroke="#00d4ff" stroke-width="2" /><polyline fill="none" points="60.3119,75.9322 59.0102,86.3458 57.2746,89.3831 48.1627,90.2508" stroke="#7cff79" stroke-width="2" /><polyline fill="none" points="62.9153,86.7797 66.8203,86.7797" stroke="#ffe500" stroke-width="2" /><polyline fill="none" points="85.478,58.1424 85.9119,61.6136 79.8373,62.4814 78.9695,59.0102 85.9119,57.2746 82.8746,59.878 81.139,59.878" stroke="#ff4600" stroke-width="2" /><polyline fill="none" points="42.0881,51.2 45.1254,54.6712 45.1254,62.4814 41.6542,63.7831 38.6169,63.3492 38.1831,58.5763 38.6169,55.539 45.5593,53.8034 43.8237,56.8407 32.5424,57.2746" stroke="#7f0000" stroke-width="2" /></svg>