<?xml version="1.0" encoding="utf-8" ?>
<svg baseProfile="tiny" height="128" version="1.2" viewBox="0,0,128,128" width="128" xmlns="http://www.w3.org/2000/svg" xmlns:ev="http://www.w3.org/2001/xml-events" xmlns:xlink="http://www.w3.org/1999/xlink"><defs /><polyline fill="none" points="47.7288,22.5627 48.5966,12.5831 51.6339,9.1119 59.0102,17.7898 63.7831,14.7525 69.4237,13.8847 78.5356,17.7898 85.9119,8.678 88.9492,13.0169 89.3831,18.2237 95.4576,29.0712 94.1559,40.7864 85.478,49.0305 75.9322,54.6712 67.2542,56.8407 56.4068,56.4068 50.3322,52.0678 45.5593,44.2576 44.6915,30.8068 45.9932,23.8644 47.7288,22.5627" stroke="#00007f" stroke-width="2" /><polyline fill="none" points="59.0102,28.6373 59.0102,28.6373" stroke="#0000ff" stroke-width="2" /><polyline fill="none" points="58.5763,28.6373 60.3119,27.3356 57.7085,28.6373" stroke="#0080ff" stroke-width="2" /><polyline fill="none" points="76.8,26.4678 78.1017,27.7695 76.3661,27.7695" stroke="#15ffe1" stroke-width="2" /><polyline fill="none" points="56.8407,38.1831 59.0102,42.0881 62.9153,43.3898 68.5559,40.7864 69.8576,35.5797 65.9525,36.4475 65.5186,39.0508 68.9898,42.522 74.1966,42.9559 76.3661,40.3525 77.2339,36.8814" stroke="#7cff79" stroke-width="2" /><polyline fill="none" points="81.139,36.0136 94.1559,35.5797 112.3797,32.1085" stroke="#e4ff12" stroke-width="2" /><polyline fill="none" points="82.4407,39.9186 119.322,42.522" stroke="#ff9400" stroke-width="2" /><polyline fill="none" points="51.2,36.0136 33.8441,36.4475 8.678,42.9559" stroke="#ff1d00" stroke-width="2" /><polyline fill="none" points="48.5966,41.2203 38.1831,43.8237 17.7898,53.8034" stroke="#7f0000" stroke-width="2" /></svg>