<?xml version="1.0" encoding="utf-8" ?>
<svg baseProfile="tiny" height="128" version="1.2" viewBox="0,0,128,128" width="128" xmlns="http://www.w3.org/2000/svg" xmlns:ev="http://www.w3.org/2001/xml-events" xmlns:xlink="http://www.w3.org/1999/xlink"><defs /><polyline fill="none" points="47.7288,94.1559 40.3525,86.7797 38.1831,80.2712 38.1831,70.7254 43.3898,58.1424 66.3864,33.8441 75.9322,29.5051 84.1763,30.8068 91.9864,34.7119 101.5322,55.1051 98.061,68.9898 91.9864,81.5729 83.3085,91.5525 69.4237,98.9288 61.1797,100.2305 46.4271,92.8542 41.2203,88.0814 37.7492,82.8746 39.9186,76.8" stroke="#00007f" stroke-width="2" /><polyline fill="none" points="44.2576,94.5898 42.522,98.4949 37.3153,103.2678 32.5424,105.4373 30.8068,103.7017 31.2407,98.061 34.278,94.1559 42.9559,92.8542" stroke="#0000b6" stroke-width="2" /><polyline fill="none" points="79.8373,93.722 86.3458,95.4576 90.6847,99.3627 92.8542,103.2678 90.6847,105.8712 86.7797,106.739 81.5729,105.8712 77.6678,101.9661" stroke="#0000f1" stroke-width="2" /><polyline fill="none" points="79.4034,104.1356 76.8,98.9288" stroke="#0018ff" stroke-width="2" /><polyline fill="none" points="36.8814,81.5729 32.5424,85.0441 21.6949,88.0814 14.3186,87.6475 8.678,82.8746 10.4136,79.8373 14.7525,77.2339 22.1288,75.0644 33.4102,74.6305 35.5797,73.3288" stroke="#004cff" stroke-width="2" /><polyline fill="none" points="78.5356,38.6169 69.8576,27.7695 68.5559,22.1288 73.7627,15.6203 82.0068,10.4136 88.0814,8.678 96.7593,10.4136 102.4,13.8847 107.6068,20.8271 105.0034,26.4678 96.7593,32.5424 88.9492,33.4102 78.9695,29.939 75.9322,26.9017 76.3661,21.261" stroke="#0080ff" stroke-width="2" /><polyline fill="none" points="95.8915,25.6 108.9085,30.3729" stroke="#00b0ff" stroke-width="2" /><polyline fill="none" points="92.8542,30.3729 104.5695,32.5424" stroke="#00e4f7" stroke-width="2" /><polyline fill="none" points="72.461,19.5254 65.0847,14.3186 62.4814,11.2814" stroke="#29ffcd" stroke-width="2" /><polyline fill="none" points="72.8949,25.1661 59.878,22.1288" stroke="#53ffa3" stroke-width="2" /><polyline fill="none" points="81.139,14.7525 88.5153,13.4508 89.8169,14.7525 88.0814,17.3559 85.478,18.2237 82.8746,17.3559 83.3085,15.1864" stroke="#7cff79" stroke-width="2" /><polyline fill="none" points="92.8542,19.5254 92.8542,17.7898 96.7593,16.0542 101.0983,19.5254 98.9288,21.261 95.8915,20.8271 96.3254,19.9593" stroke="#a3ff53" stroke-width="2" /><polyline fill="none" points="98.061,17.3559 98.061,17.3559" stroke="#cdff29" stroke-width="2" /><polyline fill="none" points="85.9119,13.8847 85.9119,13.8847" stroke="#f7f400" stroke-width="2" /><polyline fill="none" points="86.3458,15.1864 86.3458,15.1864" stroke="#ffc400" stroke-width="2" /><polyline fill="none" points="99.7966,62.9153 111.078,65.5186 112.3797,69.8576 110.2102,75.4983 101.0983,81.139 98.061,81.5729 97.1932,80.2712" stroke="#ff9400" stroke-width="2" /><polyline fill="none" points="108.0407,69.8576 119.322,73.7627" stroke="#ff6700" stroke-width="2" /><polyline fill="none" points="103.2678,75.4983 114.1153,79.4034" stroke="#ff3700" stroke-width="2" /><polyline fill="none" points="42.0881,55.539 42.0881,49.8983 43.3898,45.5593 50.3322,40.7864 55.539,43.3898 53.8034,51.2 46.861,55.1051 42.9559,55.1051 39.4847,50.3322" stroke="#f10700" stroke-width="2" /><polyline fill="none" points="48.1627,44.6915 37.7492,36.8814" stroke="#b60000" stroke-width="2" /><polyline fill="none" points="41.6542,48.1627 33.4102,42.522" stroke="#7f0000" stroke-width="2" /></svg>