<?xml version="1.0" encoding="utf-8" ?>
<svg baseProfile="tiny" height="128" version="1.2" viewBox="0,0,128,128" width="128" xmlns="http://www.w3.org/2000/svg" xmlns:ev="http://www.w3.org/2001/xml-events" xmlns:xlink="http://www.w3.org/1999/xlink"><defs /><polyline fill="none" points="56.8407,27.3356 49.0305,26.0339 39.9186,26.4678 27.3356,31.2407 22.1288,36.0136 19.0915,40.7864 19.0915,47.2949 20.3932,50.7661 32.1085,58.5763 50.3322,65.5186 68.5559,69.4237 78.5356,68.122 85.478,62.9153 88.9492,52.9356 88.9492,45.1254 82.4407,36.0136 74.1966,30.3729 67.6881,28.2034 59.878,28.6373 44.2576,32.5424" stroke="#00007f" stroke-width="2" /><polyline fill="none" points="26.4678,27.7695 26.4678,21.6949 35.5797,8.678 41.6542,24.7322" stroke="#0000fe" stroke-width="2" /><polyline fill="none" points="61.6136,28.2034 64.2169,19.9593 70.2915,13.0169 67.6881,32.1085" stroke="#0060ff" stroke-width="2" /><polyline fill="none" points="39.9186,32.5424 40.7864,36.0136 39.0508,33.4102 37.3153,33.4102 36.8814,35.1458" stroke="#00d4ff" stroke-width="2" /><polyline fill="none" points="60.3119,36.0136 60.3119,39.0508 62.0475,39.9186 62.4814,38.1831 61.1797,35.5797 59.4441,35.1458" stroke="#4cffaa" stroke-width="2" /><polyline fill="none" points="48.1627,45.1254 37.3153,43.3898 8.678,36.4475" stroke="#aaff4c" stroke-width="2" /><polyline fill="none" points="38.1831,48.5966 34.278,49.8983 8.678,49.8983" stroke="#ffe500" stroke-width="2" /><polyline fill="none" points="42.522,56.4068 22.9966,59.4441 8.678,64.2169" stroke="#ff7a00" stroke-width="2" /><polyline fill="none" points="53.3695,44.2576 51.6339,48.1627 54.2373,49.8983 52.9356,47.2949 49.0305,46.4271" stroke="#fe1200" stroke-width="2" /><polyline fill="none" points="68.5559,44.2576 92.4203,42.0881 119.322,41.6542" stroke="#7f0000" stroke-width="2" /></svg>