<?xml version="1.0" encoding="utf-8" ?>
<svg baseProfile="tiny" height="128" version="1.2" viewBox="0,0,128,128" width="128" xmlns="http://www.w3.org/2000/svg" xmlns:ev="http://www.w3.org/2001/xml-events" xmlns:xlink="http://www.w3.org/1999/xlink"><defs /><polyline fill="none" points="29.5051,30.8068 26.0339,32.5424 17.7898,41.6542 16.0542,46.861 16.4881,51.2 20.3932,54.2373 28.6373,54.2373 35.5797,49.8983 39.0508,44.6915 40.3525,36.8814 37.7492,30.3729 33.4102,27.7695 28.6373,29.0712" stroke="#00007f" stroke-width="2" /><polyline fill="none" points="31.2407,29.5051 31.6746,27.7695 38.1831,20.8271 41.6542,19.5254 42.9559,22.9966 43.3898,35.5797" stroke="#0000cc" stroke-width="2" /><polyline fill="none" points="27.3356,40.7864 27.3356,40.7864" stroke="#0008ff" stroke-width="2" /><polyline fill="none" points="17.3559,45.1254 15.6203,44.6915 12.5831,47.7288 10.8475,53.3695 12.5831,53.8034 17.7898,49.8983" stroke="#004cff" stroke-width="2" /><polyline fill="none" points="24.2983,49.8983 16.922,73.7627" stroke="#0090ff" stroke-width="2" /><polyline fill="none" points="24.2983,45.5593 23.4305,75.0644 25.1661,80.7051" stroke="#00d4ff" stroke-width="2" /><polyline fill="none" points="36.0136,52.0678 37.3153,63.7831 41.6542,78.5356" stroke="#29ffcd" stroke-width="2" /><polyline fill="none" points="27.7695,49.8983 32.5424,59.878 35.5797,74.1966" stroke="#5fff96" stroke-width="2" /><polyline fill="none" points="19.9593,40.3525 8.678,26.4678" stroke="#96ff5f" stroke-width="2" /><polyline fill="none" points="22.1288,36.4475 12.5831,19.0915" stroke="#cdff29" stroke-width="2" /><polyline fill="none" points="24.7322,35.1458 20.3932,20.8271 19.5254,8.678" stroke="#ffe500" stroke-width="2" /><polyline fill="none" points="41.6542,42.9559 43.3898,41.2203 52.5017,38.1831 72.8949,36.0136 91.5525,35.5797 105.4373,38.1831 112.8136,41.2203 119.322,46.4271 118.4542,53.3695 107.1729,59.0102 81.5729,61.1797 46.4271,57.7085 31.2407,52.0678" stroke="#ffa600" stroke-width="2" /><polyline fill="none" points="98.9288,53.3695 98.9288,54.6712 119.322,68.9898" stroke="#ff6700" stroke-width="2" /><polyline fill="none" points="84.1763,62.9153 85.9119,66.3864 85.0441,72.8949 80.7051,79.8373" stroke="#ff2800" stroke-width="2" /><polyline fill="none" points="66.3864,53.8034 61.6136,73.3288 58.1424,78.5356" stroke="#cc0000" stroke-width="2" /><polyline fill="none" points="53.3695,53.8034 44.6915,77.2339" stroke="#7f0000" stroke-width="2" /></svg>