<?xml version="1.0" encoding="utf-8" ?>
<svg baseProfile="tiny" height="128" version="1.2" viewBox="0,0,128,128" width="128" xmlns="http://www.w3.org/2000/svg" xmlns:ev="http://www.w3.org/2001/xml-events" xmlns:xlink="http://www.w3.org/1999/xlink"><defs /><polyline fill="none" points="10.449,37.0068 8.7075,8.7075 20.4626,19.1565 26.5578,31.3469 35.7007,41.7959 38.7483,48.3265 42.6667,40.9252 46.1497,39.619 55.7279,37.0068 69.6599,36.5714 80.9796,42.2313 83.5918,50.9388 89.6871,62.2585 101.8776,41.7959 114.9388,26.9932 118.8571,24.8163 115.3741,63.1293 106.6667,89.6871 98.3946,102.3129 63.5646,118.4218 57.4694,119.2925 39.619,110.585 33.5238,102.7483 29.6054,94.0408 26.1224,64.8707 14.3673,40.4898 11.3197,33.0884 12.1905,31.7823" stroke="#00007f" stroke-width="2" /><polyline fill="none" points="41.3605,69.2245 19.5918,72.2721" stroke="#0010ff" stroke-width="2" /><polyline fill="none" points="40.0544,84.898 24.8163,84.898 22.2041,86.2041 24.381,89.2517" stroke="#00a4ff" stroke-width="2" /><polyline fill="none" points="37.0068,96.2177 26.9932,101.0068" stroke="#3fffb7" stroke-width="2" /><polyline fill="none" points="96.6531,74.0136 104.4898,75.7551 110.1497,79.2381 115.8095,83.5918 114.5034,86.2041" stroke="#b7ff3f" stroke-width="2" /><polyline fill="none" points="91.8639,83.1565 109.2789,93.1701 113.6327,99.2653" stroke="#ffb900" stroke-width="2" /><polyline fill="none" points="87.0748,94.4762 95.3469,107.102 101.0068,112.3265" stroke="#ff3000" stroke-width="2" /><polyline fill="none" points="50.5034,88.8163 52.6803,92.2993 56.5986,93.6054 60.0816,90.9932 62.6939,85.3333 63.5646,91.4286 67.483,93.1701 75.7551,87.0748 80.1088,81.8503" stroke="#7f0000" stroke-width="2" /></svg>