<?xml version="1.0" encoding="utf-8" ?>
<svg baseProfile="tiny" height="128" version="1.2" viewBox="0,0,128,128" width="128" xmlns="http://www.w3.org/2000/svg" xmlns:ev="http://www.w3.org/2001/xml-events" xmlns:xlink="http://www.w3.org/1999/xlink"><defs /><polyline fill="none" points="39.0508,36.8814 17.7898,12.5831 8.678,8.678 18.6576,33.4102 22.5627,52.5017" stroke="#00007f" stroke-width="2" /><polyline fill="none" points="39.4847,36.4475 55.9729,31.6746 68.122,31.6746 84.1763,40.3525 88.0814,32.1085 93.722,24.7322 108.0407,16.0542 119.322,13.0169 110.2102,37.3153 108.9085,47.7288" stroke="#004cff" stroke-width="2" /><polyline fill="none" points="22.5627,50.3322 23.8644,73.7627 27.3356,83.3085 30.8068,88.0814 43.3898,97.6271 54.6712,100.6644 67.2542,101.5322 73.3288,100.2305 84.1763,95.8915 93.2881,88.0814 100.6644,79.4034 106.739,65.9525 108.9085,42.522" stroke="#29ffcd" stroke-width="2" /><polyline fill="none" points="60.7458,61.1797 53.8034,70.2915 69.4237,68.5559 70.2915,67.2542 68.5559,65.5186 60.3119,61.1797" stroke="#cdff29" stroke-width="2" /><polyline fill="none" points="61.1797,72.8949 62.9153,83.3085 49.8983,81.5729 71.1593,82.8746" stroke="#ff6700" stroke-width="2" /><polyline fill="none" points="47.2949,49.0305 45.5593,49.4644 44.6915,55.539 47.7288,63.3492 49.0305,63.7831 52.9356,62.0475 54.2373,59.878 54.2373,50.7661 49.0305,46.861 43.8237,47.7288" stroke="#7f0000" stroke-width="2" /></svg>