<?xml version="1.0" encoding="utf-8" ?>
<svg baseProfile="tiny" height="128" version="1.2" viewBox="0,0,128,128" width="128" xmlns="http://www.w3.org/2000/svg" xmlns:ev="http://www.w3.org/2001/xml-events" xmlns:xlink="http://www.w3.org/1999/xlink"><defs /><polyline fill="none" points="44.6915,45.1254 36.8814,48.1627 32.5424,53.3695 30.8068,61.1797 30.3729,72.0271 30.8068,77.6678 34.7119,86.7797 37.7492,89.8169 45.1254,94.1559 59.4441,95.0237 68.9898,91.5525 77.2339,85.478 83.3085,77.6678 87.2136,69.4237 88.5153,64.6508 88.0814,55.1051 82.4407,46.861 68.9898,39.4847 55.539,36.8814 47.2949,36.8814 43.3898,39.0508" stroke="#00007f" stroke-width="2" /><polyline fill="none" points="43.3898,43.3898 27.7695,21.6949 19.5254,12.5831 16.0542,10.8475 16.4881,17.7898 29.0712,54.2373" stroke="#0028ff" stroke-width="2" /><polyline fill="none" points="80.2712,38.6169 78.1017,37.3153 78.1017,36.0136 106.3051,8.678 92.4203,53.3695" stroke="#00d4ff" stroke-width="2" /><polyline fill="none" points="55.1051,71.1593 58.1424,68.5559 59.0102,70.2915 59.4441,72.8949 55.539,74.6305 55.539,72.0271 57.2746,70.2915 54.2373,69.4237" stroke="#7cff79" stroke-width="2" /><polyline fill="none" points="55.539,72.0271 43.3898,75.4983 35.1458,80.7051 27.3356,87.6475 19.5254,96.7593 8.678,119.322" stroke="#ffe500" stroke-width="2" /><polyline fill="none" points="53.3695,73.3288 47.2949,76.8 42.522,83.3085 31.2407,108.4746" stroke="#ff4600" stroke-width="2" /><polyline fill="none" points="60.3119,68.122 50.7661,67.6881 43.8237,69.8576 35.5797,74.1966 27.7695,80.7051 20.8271,89.3831" stroke="#7f0000" stroke-width="2" /></svg>