<?xml version="1.0" encoding="utf-8" ?>
<svg baseProfile="tiny" height="128" version="1.2" viewBox="0,0,128,128" width="128" xmlns="http://www.w3.org/2000/svg" xmlns:ev="http://www.w3.org/2001/xml-events" xmlns:xlink="http://www.w3.org/1999/xlink"><defs /><polyline fill="none" points="9.5458,46.861 8.678,15.6203 11.2814,16.4881 19.0915,24.7322 21.6949,29.5051 27.3356,45.9932 35.1458,41.2203 48.1627,39.0508 60.7458,39.0508 66.3864,42.522 69.4237,50.3322 72.0271,36.0136 75.9322,25.6 84.6102,10.4136 87.6475,8.678 88.9492,13.8847 88.9492,56.4068 91.1186,80.7051 91.1186,92.4203 88.9492,101.0983 84.6102,108.9085 78.9695,113.6814 70.2915,117.5864 60.7458,119.322 49.0305,118.8881 38.6169,115.4169 22.1288,99.3627 15.6203,87.2136 8.678,57.2746 8.678,44.2576 9.5458,43.8237" stroke="#00007f" stroke-width="2" /><polyline fill="none" points="49.8983,80.2712 47.2949,80.2712 44.6915,85.0441 44.6915,88.0814 48.1627,89.8169 52.9356,84.6102 49.8983,85.0441 47.2949,88.0814 52.5017,78.9695" stroke="#7f0000" stroke-width="2" /></svg>