<?xml version="1.0" encoding="utf-8" ?>
<svg baseProfile="tiny" height="128" version="1.2" viewBox="0,0,128,128" width="128" xmlns="http://www.w3.org/2000/svg" xmlns:ev="http://www.w3.org/2001/xml-events" xmlns:xlink="http://www.w3.org/1999/xlink"><defs /><polyline fill="none" points="56.8407,50.3322 72.0271,55.1051 74.6305,59.4441 73.3288,65.5186 69.8576,66.3864 66.3864,64.6508 63.7831,59.878 61.6136,52.9356 61.6136,44.6915" stroke="#00007f" stroke-width="2" /><polyline fill="none" points="53.3695,12.5831 47.7288,13.0169 44.2576,14.7525 41.6542,18.2237 40.7864,24.2983 59.4441,26.4678 61.1797,23.4305 61.1797,19.9593 55.539,18.6576" stroke="#0000f1" stroke-width="2" /><polyline fill="none" points="75.0644,14.3186 73.7627,21.261 75.0644,25.6 78.1017,27.7695 81.5729,27.7695 84.6102,26.9017 87.2136,23.4305 86.3458,16.922 76.8,8.678" stroke="#004cff" stroke-width="2" /><polyline fill="none" points="56.8407,49.0305 41.2203,43.3898 12.5831,43.3898" stroke="#00b0ff" stroke-width="2" /><polyline fill="none" points="48.5966,61.1797 31.2407,57.2746 18.2237,56.8407 8.678,62.4814" stroke="#29ffcd" stroke-width="2" /><polyline fill="none" points="45.5593,63.7831 40.3525,73.3288 44.6915,76.3661 48.5966,76.3661" stroke="#7cff79" stroke-width="2" /><polyline fill="none" points="94.1559,42.9559 100.2305,39.9186 113.6814,37.3153 116.7186,37.3153 118.0203,40.7864" stroke="#cdff29" stroke-width="2" /><polyline fill="none" points="81.5729,54.6712 99.7966,55.9729 110.6441,59.4441" stroke="#ffc400" stroke-width="2" /><polyline fill="none" points="80.2712,75.0644 101.5322,76.8 114.5492,79.4034 119.322,82.0068" stroke="#ff6700" stroke-width="2" /><polyline fill="none" points="55.9729,85.0441 85.0441,83.7424" stroke="#f10700" stroke-width="2" /><polyline fill="none" points="59.4441,83.7424 59.878,93.2881 63.3492,100.6644 75.4983,105.4373 85.9119,106.739 89.8169,105.8712 94.5898,98.4949 98.9288,85.478 99.7966,77.6678" stroke="#7f0000" stroke-width="2" /></svg>