<?xml version="1.0" encoding="utf-8" ?>
<svg baseProfile="tiny" height="128" version="1.2" viewBox="0,0,128,128" width="128" xmlns="http://www.w3.org/2000/svg" xmlns:ev="http://www.w3.org/2001/xml-events" xmlns:xlink="http://www.w3.org/1999/xlink"><defs /><polyline fill="none" points="65.5186,36.0136 53.8034,35.1458 47.7288,37.3153 45.1254,39.9186 37.7492,43.3898 17.3559,62.4814 14.3186,68.5559 9.1119,85.9119 8.678,98.061 9.1119,102.8339 17.7898,111.9458 40.7864,119.322 54.6712,119.322 55.1051,116.7186 61.1797,112.3797 67.6881,101.9661 72.8949,85.478 74.1966,48.1627 67.2542,38.6169 57.2746,29.939" stroke="#00007f" stroke-width="2" /><polyline fill="none" points="20.3932,55.9729 19.9593,19.0915 24.2983,26.9017 29.0712,45.9932" stroke="#0000d5" stroke-width="2" /><polyline fill="none" points="66.8203,39.0508 76.3661,23.4305 88.5153,8.678 89.8169,11.2814 90.2508,26.9017 88.0814,39.4847 81.139,53.8034 75.9322,58.5763" stroke="#001cff" stroke-width="2" /><polyline fill="none" points="26.9017,84.6102 21.6949,84.1763 10.4136,78.9695" stroke="#006cff" stroke-width="2" /><polyline fill="none" points="22.1288,89.8169 13.0169,88.9492" stroke="#00b8ff" stroke-width="2" /><polyline fill="none" points="23.4305,95.4576 15.6203,96.3254" stroke="#1cffda" stroke-width="2" /><polyline fill="none" points="58.5763,83.3085 65.9525,80.7051" stroke="#5cff9a" stroke-width="2" /><polyline fill="none" points="59.4441,90.2508 70.2915,90.2508" stroke="#9aff5c" stroke-width="2" /><polyline fill="none" points="59.4441,96.7593 65.0847,101.0983" stroke="#daff1c" stroke-width="2" /><polyline fill="none" points="42.0881,83.7424 42.0881,83.7424" stroke="#ffcb00" stroke-width="2" /><polyline fill="none" points="36.0136,93.722 35.1458,93.722" stroke="#ff8500" stroke-width="2" /><polyline fill="none" points="35.1458,93.722 49.8983,94.1559" stroke="#ff3b00" stroke-width="2" /><polyline fill="none" points="36.0136,61.1797 36.0136,61.1797" stroke="#d50000" stroke-width="2" /><polyline fill="none" points="39.4847,61.6136 39.0508,62.0475" stroke="#7f0000" stroke-width="2" /></svg>