<?xml version="1.0" encoding="utf-8" ?>
<svg baseProfile="tiny" height="128" version="1.2" viewBox="0,0,128,128" width="128" xmlns="http://www.w3.org/2000/svg" xmlns:ev="http://www.w3.org/2001/xml-events" xmlns:xlink="http://www.w3.org/1999/xlink"><defs /><polyline fill="none" points="32.1085,13.0169 38.6169,33.8441 40.3525,55.1051" stroke="#00007f" stroke-width="2" /><polyline fill="none" points="29.5051,8.678 27.3356,31.6746 30.8068,59.878" stroke="#0000de" stroke-width="2" /><polyline fill="none" points="26.9017,8.678 14.3186,34.278 10.8475,45.5593 8.678,62.4814 10.4136,73.3288 11.2814,75.9322 13.8847,75.9322 13.0169,75.0644" stroke="#0028ff" stroke-width="2" /><polyline fill="none" points="42.0881,55.539 58.1424,49.8983 70.7254,49.4644" stroke="#0080ff" stroke-width="2" /><polyline fill="none" points="71.1593,46.4271 94.5898,11.2814 95.8915,16.0542 95.4576,31.6746 89.8169,52.5017 88.5153,55.1051 88.5153,52.9356" stroke="#00d4ff" stroke-width="2" /><polyline fill="none" points="95.8915,9.5458 102.8339,26.4678 103.2678,32.1085 102.8339,49.8983 101.0983,56.4068 98.4949,59.4441 98.4949,56.8407" stroke="#36ffc0" stroke-width="2" /><polyline fill="none" points="16.4881,75.0644 11.7153,85.478 13.4508,103.2678 16.922,111.5119 19.5254,113.2475 22.9966,109.3424" stroke="#7cff79" stroke-width="2" /><polyline fill="none" points="98.4949,59.4441 96.7593,76.3661 98.061,81.5729 102.8339,87.6475 103.2678,91.1186 100.6644,99.7966 95.8915,105.4373 87.6475,110.6441 58.1424,117.1525 34.278,119.322 28.2034,118.4542 27.3356,114.9831 28.2034,116.2847" stroke="#c0ff36" stroke-width="2" /><polyline fill="none" points="44.6915,75.0644 43.8237,82.4407 46.861,76.8 46.861,74.1966 45.5593,76.3661" stroke="#ffe500" stroke-width="2" /><polyline fill="none" points="71.5932,70.2915 73.3288,80.7051 74.1966,75.4983 73.7627,72.461 72.8949,74.6305 73.3288,71.5932" stroke="#ff9400" stroke-width="2" /><polyline fill="none" points="63.3492,84.1763 66.3864,84.6102 61.6136,86.7797 64.2169,86.7797" stroke="#ff4600" stroke-width="2" /><polyline fill="none" points="64.6508,86.3458 59.0102,98.4949 60.3119,97.6271" stroke="#de0000" stroke-width="2" /><polyline fill="none" points="65.0847,86.7797 73.7627,95.8915" stroke="#7f0000" stroke-width="2" /></svg>