<?xml version="1.0" encoding="utf-8" ?>
<svg baseProfile="tiny" height="128" version="1.2" viewBox="0,0,128,128" width="128" xmlns="http://www.w3.org/2000/svg" xmlns:ev="http://www.w3.org/2001/xml-events" xmlns:xlink="http://www.w3.org/1999/xlink"><defs /><polyline fill="none" points="9.9797,39.4847 12.5831,26.0339 18.6576,38.1831 22.5627,28.6373 26.0339,25.6 30.3729,40.7864 35.1458,40.7864 36.8814,43.8237 37.7492,53.3695 34.278,59.0102 27.3356,62.0475 15.1864,61.1797 10.8475,55.1051 8.678,40.3525" stroke="#00007f" stroke-width="2" /><polyline fill="none" points="36.8814,42.9559 44.6915,39.4847 61.6136,37.3153 72.8949,38.6169 81.139,45.9932 82.8746,61.6136 79.4034,72.0271 76.8,72.0271 74.1966,68.9898 71.5932,63.3492 71.5932,60.3119 65.5186,71.5932 60.7458,74.6305 52.9356,75.0644 50.7661,73.3288 50.7661,59.878 45.5593,71.1593 43.3898,72.461 35.5797,56.8407" stroke="#0010ff" stroke-width="2" /><polyline fill="none" points="80.7051,38.6169 79.4034,39.0508 79.4034,38.1831 83.3085,33.8441 94.1559,26.9017 101.5322,17.7898 104.1356,11.7153 111.9458,8.678 118.4542,9.1119 119.322,18.2237 117.5864,21.261 107.1729,29.0712 90.2508,36.8814 79.8373,39.9186" stroke="#00a4ff" stroke-width="2" /><polyline fill="none" points="13.0169,45.9932 14.7525,47.2949 13.4508,48.5966 12.1492,48.5966 11.7153,46.4271" stroke="#3fffb7" stroke-width="2" /><polyline fill="none" points="26.0339,49.0305 24.2983,49.0305 22.9966,46.4271 25.6,43.8237 26.9017,45.5593 22.9966,50.3322" stroke="#b7ff3f" stroke-width="2" /><polyline fill="none" points="17.7898,53.8034 19.0915,53.3695 19.5254,54.6712 17.7898,54.6712" stroke="#ffb900" stroke-width="2" /><polyline fill="none" points="19.5254,53.8034 22.5627,56.8407 24.7322,54.2373" stroke="#ff3000" stroke-width="2" /><polyline fill="none" points="18.2237,55.1051 15.6203,55.539 9.5458,43.8237 13.4508,43.8237 16.0542,40.3525" stroke="#7f0000" stroke-width="2" /></svg>