<?xml version="1.0" encoding="utf-8" ?>
<svg baseProfile="tiny" height="128" version="1.2" viewBox="0,0,128,128" width="128" xmlns="http://www.w3.org/2000/svg" xmlns:ev="http://www.w3.org/2001/xml-events" xmlns:xlink="http://www.w3.org/1999/xlink"><defs /><polyline fill="none" points="9.1119,119.322 9.5458,81.5729 13.0169,40.3525 18.2237,18.2237 19.5254,28.2034 22.9966,38.6169 24.7322,40.3525 29.0712,39.4847 36.4475,28.6373 42.522,9.9797 45.5593,49.4644 51.2,53.8034 71.5932,60.7458 75.9322,60.7458 80.2712,58.1424 84.6102,50.7661 88.9492,27.3356 96.7593,8.678 95.0237,118.8881 87.2136,85.0441 80.2712,88.5153 76.8,92.8542 71.5932,110.6441 68.122,100.2305 62.4814,91.1186 56.4068,86.7797 46.861,83.3085 39.9186,83.3085 36.4475,86.7797 31.2407,109.7763 27.7695,100.2305 21.261,92.4203 16.0542,95.8915 14.3186,110.2102" stroke="#00007f" stroke-width="2" /><polyline fill="none" points="20.8271,47.2949 20.8271,47.2949" stroke="#0000fe" stroke-width="2" /><polyline fill="none" points="30.8068,47.7288 30.8068,47.7288" stroke="#0060ff" stroke-width="2" /><polyline fill="none" points="22.1288,46.4271 22.1288,46.4271" stroke="#00d4ff" stroke-width="2" /><polyline fill="none" points="32.9763,47.2949 49.0305,42.522" stroke="#4cffaa" stroke-width="2" /><polyline fill="none" points="37.7492,53.3695 47.7288,57.7085" stroke="#aaff4c" stroke-width="2" /><polyline fill="none" points="20.8271,48.5966 8.678,45.1254" stroke="#ffe500" stroke-width="2" /><polyline fill="none" points="22.1288,55.1051 15.6203,57.2746" stroke="#ff7a00" stroke-width="2" /><polyline fill="none" points="22.9966,41.6542 22.9966,41.6542" stroke="#fe1200" stroke-width="2" /><polyline fill="none" points="31.6746,41.6542 31.6746,41.6542" stroke="#7f0000" stroke-width="2" /></svg>