<?xml version="1.0" encoding="utf-8" ?>
<svg baseProfile="tiny" height="128" version="1.2" viewBox="0,0,128,128" width="128" xmlns="http://www.w3.org/2000/svg" xmlns:ev="http://www.w3.org/2001/xml-events" xmlns:xlink="http://www.w3.org/1999/xlink"><defs /><polyline fill="none" points="35.2653,40.0544 38.7483,37.4422 52.2449,33.5238 73.1429,33.0884 86.6395,36.5714 93.6054,41.3605" stroke="#00007f" stroke-width="2" /><polyline fill="none" points="94.0408,41.3605 114.9388,11.3197 115.3741,47.4558" stroke="#0010ff" stroke-width="2" /><polyline fill="none" points="34.8299,39.1837 23.5102,21.3333 8.7075,8.7075 10.0136,22.2041 19.1565,55.2925 20.0272,68.3537 22.2041,74.449 26.9932,83.5918 36.1361,93.6054 50.9388,101.8776 64.8707,104.9252 89.2517,104.9252 93.6054,103.619 99.2653,99.2653 106.2313,88.381 114.5034,65.3061 118.4218,56.5986 119.2925,52.2449 117.551,47.8912" stroke="#00a4ff" stroke-width="2" /><polyline fill="none" points="81.415,81.415 84.4626,77.932 96.6531,75.7551" stroke="#3fffb7" stroke-width="2" /><polyline fill="none" points="53.9864,75.7551 43.102,70.5306 30.9116,69.2245" stroke="#b7ff3f" stroke-width="2" /><polyline fill="none" points="50.9388,83.1565 41.3605,83.1565" stroke="#ffb900" stroke-width="2" /><polyline fill="none" points="84.4626,86.6395 101.4422,83.5918" stroke="#ff3000" stroke-width="2" /><polyline fill="none" points="60.517,85.7687 66.1769,80.5442 68.7891,80.5442 69.6599,82.7211 80.9796,80.5442" stroke="#7f0000" stroke-width="2" /></svg>