<?xml version="1.0" encoding="utf-8" ?>
<svg baseProfile="tiny" height="128" version="1.2" viewBox="0,0,128,128" width="128" xmlns="http://www.w3.org/2000/svg" xmlns:ev="http://www.w3.org/2001/xml-events" xmlns:xlink="http://www.w3.org/1999/xlink"><defs /><polyline fill="none" points="44.6915,36.4475 45.9932,33.4102 51.2,30.3729 58.5763,27.3356 66.8203,25.6 75.4983,28.2034 83.3085,36.8814 103.2678,17.7898 111.078,12.1492 118.0203,8.678 119.322,12.5831 118.0203,16.922 100.2305,45.1254 99.3627,48.1627" stroke="#00007f" stroke-width="2" /><polyline fill="none" points="49.4644,36.4475 46.861,35.5797 42.522,29.939 27.7695,16.922 25.1661,15.1864 23.4305,18.2237 26.0339,37.7492 30.8068,46.4271 26.9017,65.5186 28.2034,72.461 32.1085,78.9695 39.0508,85.478 48.1627,89.3831 70.7254,90.2508 86.7797,85.9119 96.3254,80.2712 101.5322,69.8576 102.4,60.7458 98.061,49.0305 94.5898,45.1254" stroke="#0028ff" stroke-width="2" /><polyline fill="none" points="50.3322,55.539 50.7661,55.539" stroke="#00d4ff" stroke-width="2" /><polyline fill="none" points="83.7424,49.0305 82.8746,49.8983" stroke="#7cff79" stroke-width="2" /><polyline fill="none" points="62.9153,62.0475 63.3492,61.1797" stroke="#ffe500" stroke-width="2" /><polyline fill="none" points="55.1051,78.9695 65.9525,80.7051 72.8949,76.8" stroke="#ff4600" stroke-width="2" /><polyline fill="none" points="40.3525,80.7051 29.939,84.1763 20.8271,90.6847 11.7153,104.5695 8.678,114.9831" stroke="#7f0000" stroke-width="2" /></svg>