<?xml version="1.0" encoding="utf-8" ?>
<svg baseProfile="tiny" height="128" version="1.2" viewBox="0,0,128,128" width="128" xmlns="http://www.w3.org/2000/svg" xmlns:ev="http://www.w3.org/2001/xml-events" xmlns:xlink="http://www.w3.org/1999/xlink"><defs /><polyline fill="none" points="25.6,22.1288 30.3729,19.9593 34.7119,22.5627 38.1831,10.4136 39.4847,10.4136 43.8237,19.0915 45.1254,30.3729 43.8237,33.4102 33.8441,39.0508 26.9017,38.1831 21.261,35.5797 17.7898,30.3729 14.3186,14.7525 8.678,8.678 18.6576,12.1492 26.0339,19.0915" stroke="#00007f" stroke-width="2" /><polyline fill="none" points="22.5627,35.1458 25.6,45.5593 30.8068,55.539 42.0881,62.4814 58.1424,62.0475 75.9322,55.539 90.2508,54.2373 91.1186,42.9559 83.7424,36.0136 69.4237,30.3729 55.9729,29.0712 46.861,32.5424 43.8237,32.5424 42.522,31.2407" stroke="#0000ff" stroke-width="2" /><polyline fill="none" points="28.2034,53.3695 28.2034,63.3492" stroke="#0080ff" stroke-width="2" /><polyline fill="none" points="45.9932,62.9153 48.1627,66.3864" stroke="#15ffe1" stroke-width="2" /><polyline fill="none" points="58.5763,59.878 59.4441,65.0847 62.9153,66.3864" stroke="#7cff79" stroke-width="2" /><polyline fill="none" points="75.4983,55.9729 75.9322,64.2169 77.2339,66.3864" stroke="#e4ff12" stroke-width="2" /><polyline fill="none" points="90.6847,44.6915 96.7593,38.1831 101.0983,31.2407 111.9458,20.3932 112.3797,17.3559 116.2847,17.3559 119.322,20.8271 118.4542,28.6373 110.2102,34.278 88.9492,44.2576" stroke="#ff9400" stroke-width="2" /><polyline fill="none" points="27.7695,26.4678 30.8068,26.0339 32.9763,22.9966 26.9017,22.1288 26.0339,23.4305 29.939,23.8644" stroke="#ff1d00" stroke-width="2" /><polyline fill="none" points="41.2203,26.9017 40.7864,26.9017" stroke="#7f0000" stroke-width="2" /></svg>