<?xml version="1.0" encoding="utf-8" ?>
<svg baseProfile="tiny" height="128" version="1.2" viewBox="0,0,128,128" width="128" xmlns="http://www.w3.org/2000/svg" xmlns:ev="http://www.w3.org/2001/xml-events" xmlns:xlink="http://www.w3.org/1999/xlink"><defs /><polyline fill="none" points="22.5627,52.9356 39.9186,43.3898 53.3695,40.7864 67.2542,41.2203 79.8373,48.5966" stroke="#00007f" stroke-width="2" /><polyline fill="none" points="20.3932,74.1966 42.522,78.9695 55.9729,78.9695 74.1966,73.7627 81.139,65.9525 84.1763,54.6712 82.8746,49.4644 76.3661,47.2949" stroke="#0000e8" stroke-width="2" /><polyline fill="none" points="26.0339,49.8983 21.6949,52.5017 19.0915,56.4068 18.6576,66.8203 21.261,76.3661 24.2983,80.2712 26.9017,81.139" stroke="#0038ff" stroke-width="2" /><polyline fill="none" points="36.8814,53.3695 30.8068,62.4814 29.939,67.6881 29.939,72.0271 36.8814,70.7254 50.7661,55.539 54.6712,46.4271 52.9356,39.9186 50.7661,37.7492 47.2949,36.8814 42.522,37.3153 38.1831,39.0508 33.8441,43.3898 28.2034,55.1051 26.4678,71.1593 34.7119,72.461 66.3864,49.4644 59.0102,48.1627 51.2,50.7661 42.9559,55.539 34.278,66.8203 32.1085,75.4983 32.1085,78.5356 33.8441,80.2712 48.1627,78.9695 66.8203,67.2542 76.3661,58.5763 78.1017,53.3695 76.8,51.2 66.8203,52.0678 55.539,56.8407 50.7661,61.6136 49.4644,68.122 55.9729,68.5559 62.0475,66.3864 75.4983,54.2373 77.6678,51.2 78.5356,44.6915 76.3661,41.2203 69.8576,37.3153 63.3492,36.0136 55.539,36.0136 49.8983,37.3153 40.3525,47.2949 38.6169,53.3695 38.1831,63.3492 40.3525,66.8203 44.6915,68.9898 53.8034,69.4237 59.0102,68.122 62.0475,64.6508 62.9153,56.4068 55.539,55.1051 41.6542,59.0102 32.9763,63.3492 29.939,65.9525 27.7695,72.0271 31.6746,73.7627 44.2576,72.461 55.9729,65.5186 55.9729,60.3119 50.7661,57.7085 41.2203,54.6712 34.7119,54.6712 27.3356,55.539 21.6949,59.0102 15.1864,67.2542 15.6203,71.1593" stroke="#0094ff" stroke-width="2" /><polyline fill="none" points="71.5932,46.861 76.8,47.7288 83.3085,45.1254 88.9492,41.2203 97.1932,31.6746" stroke="#0cf4ea" stroke-width="2" /><polyline fill="none" points="84.1763,55.9729 93.722,55.539 109.7763,41.6542" stroke="#56ffa0" stroke-width="2" /><polyline fill="none" points="101.9661,12.5831 98.4949,13.0169 92.4203,19.5254 93.2881,31.6746 98.061,43.3898 105.0034,49.0305 112.3797,49.8983 118.0203,42.0881 119.322,27.7695 116.7186,22.9966 111.078,16.0542 100.6644,8.678" stroke="#a0ff56" stroke-width="2" /><polyline fill="none" points="29.0712,76.8 26.0339,80.7051 26.0339,94.5898 32.5424,111.078" stroke="#eaff0c" stroke-width="2" /><polyline fill="none" points="48.1627,75.0644 47.2949,94.5898 50.3322,109.7763" stroke="#ffaa00" stroke-width="2" /><polyline fill="none" points="74.6305,67.2542 77.2339,90.6847 81.5729,100.2305" stroke="#ff5500" stroke-width="2" /><polyline fill="none" points="61.1797,69.8576 60.7458,78.9695 63.3492,88.5153 67.6881,96.3254" stroke="#e80000" stroke-width="2" /><polyline fill="none" points="19.9593,42.522 17.7898,41.6542 11.7153,34.278 8.678,24.2983" stroke="#7f0000" stroke-width="2" /></svg>