<?xml version="1.0" encoding="utf-8" ?>
<svg baseProfile="tiny" height="128" version="1.2" viewBox="0,0,128,128" width="128" xmlns="http://www.w3.org/2000/svg" xmlns:ev="http://www.w3.org/2001/xml-events" xmlns:xlink="http://www.w3.org/1999/xlink"><defs /><polyline fill="none" points="66.3864,31.2407 47.2949,30.8068 37.3153,41.2203 32.1085,49.4644 25.1661,53.8034 22.9966,57.2746 28.6373,65.9525 47.7288,78.9695 57.2746,80.7051 71.5932,80.7051 89.3831,64.6508 91.5525,46.4271 88.9492,39.4847 82.8746,36.0136 75.0644,29.5051 68.122,29.5051 59.0102,33.8441" stroke="#00007f" stroke-width="2" /><polyline fill="none" points="67.2542,30.3729 69.8576,21.261 75.9322,16.922 79.4034,11.7153 88.0814,8.678 89.8169,10.4136 90.6847,17.3559 90.6847,32.5424 88.0814,40.7864" stroke="#0000e8" stroke-width="2" /><polyline fill="none" points="54.6712,33.8441 48.5966,29.0712 42.0881,20.3932 27.3356,13.0169 19.5254,12.1492 22.9966,19.5254 29.5051,26.0339 32.9763,39.9186 32.9763,42.0881 32.1085,41.6542" stroke="#0038ff" stroke-width="2" /><polyline fill="none" points="56.4068,61.1797 20.3932,59.878 14.3186,57.7085 13.0169,53.8034" stroke="#0094ff" stroke-width="2" /><polyline fill="none" points="56.4068,64.6508 41.2203,64.2169 19.5254,66.3864 10.8475,65.5186 8.678,64.2169" stroke="#0cf4ea" stroke-width="2" /><polyline fill="none" points="62.4814,63.7831 66.8203,64.6508 83.3085,64.6508 100.2305,60.7458 115.8508,53.8034 119.322,49.4644 119.322,45.1254" stroke="#56ffa0" stroke-width="2" /><polyline fill="none" points="63.7831,61.6136 84.6102,59.0102 93.722,55.9729 101.5322,50.3322 105.4373,44.6915" stroke="#a0ff56" stroke-width="2" /><polyline fill="none" points="66.8203,59.0102 60.3119,65.9525 55.539,59.0102 65.0847,58.5763" stroke="#eaff0c" stroke-width="2" /><polyline fill="none" points="60.3119,64.6508 62.4814,72.8949 66.3864,72.8949 66.3864,69.4237" stroke="#ffaa00" stroke-width="2" /><polyline fill="none" points="61.6136,65.0847 55.9729,73.7627 53.8034,69.4237" stroke="#ff5500" stroke-width="2" /><polyline fill="none" points="71.5932,41.2203 68.5559,44.2576 68.5559,47.7288 70.7254,49.4644 72.461,49.8983 74.6305,48.1627 74.6305,45.9932 67.6881,42.522" stroke="#e80000" stroke-width="2" /><polyline fill="none" points="50.3322,39.9186 47.7288,43.3898 43.3898,45.1254 42.522,48.1627 45.1254,49.8983 52.0678,49.8983 52.5017,45.9932 49.4644,38.1831" stroke="#7f0000" stroke-width="2" /></svg>