<?xml version="1.0" encoding="utf-8" ?>
<svg baseProfile="tiny" height="128" version="1.2" viewBox="0,0,128,128" width="128" xmlns="http://www.w3.org/2000/svg" xmlns:ev="http://www.w3.org/2001/xml-events" xmlns:xlink="http://www.w3.org/1999/xlink"><defs /><polyline fill="none" points="61.6136,29.939 55.539,26.9017 42.522,27.7695 34.7119,32.1085 28.6373,37.3153 22.9966,46.861 20.8271,58.5763 21.261,71.1593 24.7322,78.5356 30.3729,82.4407 40.3525,85.478 56.4068,84.6102 71.5932,76.8 85.478,66.3864 87.6475,62.0475 87.6475,47.7288 85.478,43.3898 82.4407,39.4847 74.1966,34.278 64.2169,31.2407" stroke="#00007f" stroke-width="2" /><polyline fill="none" points="58.1424,38.1831 59.0102,29.5051 67.6881,11.7153 71.1593,8.678 73.3288,32.5424 75.0644,40.7864 76.3661,41.6542" stroke="#0000e8" stroke-width="2" /><polyline fill="none" points="42.522,29.939 32.5424,13.4508 28.2034,9.5458 26.4678,13.8847 24.7322,43.8237" stroke="#0038ff" stroke-width="2" /><polyline fill="none" points="50.3322,48.1627 58.1424,45.1254 61.6136,45.9932" stroke="#0094ff" stroke-width="2" /><polyline fill="none" points="38.1831,45.9932 38.1831,45.9932" stroke="#0cf4ea" stroke-width="2" /><polyline fill="none" points="40.3525,48.1627 28.2034,43.8237" stroke="#56ffa0" stroke-width="2" /><polyline fill="none" points="67.6881,62.0475 79.8373,49.4644 109.3424,32.1085" stroke="#a0ff56" stroke-width="2" /><polyline fill="none" points="66.3864,65.0847 109.3424,63.7831 114.5492,64.2169 118.8881,66.8203 119.322,69.8576" stroke="#eaff0c" stroke-width="2" /><polyline fill="none" points="67.2542,65.0847 112.3797,109.3424" stroke="#ffaa00" stroke-width="2" /><polyline fill="none" points="13.4508,49.0305 28.6373,54.6712 37.7492,60.7458" stroke="#ff5500" stroke-width="2" /><polyline fill="none" points="42.522,62.0475 33.4102,63.7831 14.3186,74.1966 8.678,79.8373" stroke="#e80000" stroke-width="2" /><polyline fill="none" points="41.6542,64.2169 34.7119,72.0271 21.6949,92.4203 16.922,101.5322" stroke="#7f0000" stroke-width="2" /></svg>