<?xml version="1.0" encoding="utf-8" ?>
<svg baseProfile="tiny" height="128" version="1.2" viewBox="0,0,128,128" width="128" xmlns="http://www.w3.org/2000/svg" xmlns:ev="http://www.w3.org/2001/xml-events" xmlns:xlink="http://www.w3.org/1999/xlink"><defs /><polyline fill="none" points="66.8203,39.4847 74.1966,33.8441 80.7051,32.9763 93.2881,35.1458 99.3627,39.4847 119.322,8.678 118.0203,22.9966 110.6441,44.2576 111.078,47.7288" stroke="#00007f" stroke-width="2" /><polyline fill="none" points="66.3864,39.0508 62.0475,26.9017 59.878,24.2983 50.7661,17.3559 44.2576,16.0542 48.1627,32.1085 50.7661,37.7492 54.6712,42.0881" stroke="#0028ff" stroke-width="2" /><polyline fill="none" points="56.8407,36.8814 54.2373,24.7322 56.4068,23.4305 60.7458,36.8814" stroke="#00d4ff" stroke-width="2" /><polyline fill="none" points="106.3051,39.0508 110.6441,33.8441 111.5119,34.7119 110.6441,38.1831 107.1729,42.9559" stroke="#7cff79" stroke-width="2" /><polyline fill="none" points="53.3695,44.2576 50.7661,60.3119 52.9356,72.0271 55.539,78.1017 59.4441,82.4407 65.9525,87.2136 81.5729,92.8542 90.2508,92.8542 94.1559,91.5525 115.4169,73.7627 117.1525,59.878 111.078,50.3322" stroke="#ffe500" stroke-width="2" /><polyline fill="none" points="74.1966,55.539 35.1458,58.5763 22.1288,61.6136 18.2237,64.2169" stroke="#ff4600" stroke-width="2" /><polyline fill="none" points="66.3864,61.1797 26.4678,64.6508 8.678,68.122" stroke="#7f0000" stroke-width="2" /></svg>