<?xml version="1.0" encoding="utf-8" ?>
<svg baseProfile="tiny" height="128" version="1.2" viewBox="0,0,128,128" width="128" xmlns="http://www.w3.org/2000/svg" xmlns:ev="http://www.w3.org/2001/xml-events" xmlns:xlink="http://www.w3.org/1999/xlink"><defs /><polyline fill="none" points="52.5017,38.1831 53.8034,39.9186 53.3695,58.1424 49.4644,63.7831 39.4847,70.2915 29.5051,73.7627 16.922,74.6305 13.4508,72.0271 12.1492,69.4237 8.678,42.0881 9.1119,38.1831 12.5831,32.5424 11.2814,10.8475 23.8644,40.7864 25.1661,41.6542 32.1085,39.0508 40.7864,38.1831 38.1831,22.5627 39.0508,16.922 43.8237,11.7153 50.3322,8.678 50.3322,24.7322 53.3695,41.2203" stroke="#00007f" stroke-width="2" /><polyline fill="none" points="39.9186,46.4271 40.7864,49.8983 41.6542,49.4644" stroke="#0080ff" stroke-width="2" /><polyline fill="none" points="27.3356,49.8983 26.9017,52.9356 28.6373,55.1051 29.0712,49.0305 30.8068,50.7661" stroke="#7cff79" stroke-width="2" /><polyline fill="none" points="39.9186,56.4068 36.4475,58.5763 38.6169,62.0475 39.9186,59.4441 40.7864,60.7458 41.2203,66.8203 42.0881,67.6881 49.0305,63.7831 34.7119,69.8576 30.3729,69.4237 28.6373,64.2169" stroke="#ff9400" stroke-width="2" /><polyline fill="none" points="52.9356,52.9356 56.8407,51.2 82.8746,45.9932 104.1356,45.5593 113.2475,48.5966 117.1525,51.2 119.322,55.1051 116.2847,87.6475 112.8136,87.6475 111.078,83.7424 108.4746,71.5932 105.0034,80.2712 100.6644,86.7797 94.1559,88.5153 90.6847,75.0644 88.0814,86.3458 83.3085,89.8169 80.2712,85.478 75.4983,73.7627 73.7627,75.9322 72.8949,89.8169 68.5559,91.5525 62.4814,91.5525 59.878,87.2136 56.8407,72.461 47.7288,71.5932 43.3898,64.2169" stroke="#7f0000" stroke-width="2" /></svg>