<?xml version="1.0" encoding="utf-8" ?>
<svg baseProfile="tiny" height="128" version="1.2" viewBox="0,0,128,128" width="128" xmlns="http://www.w3.org/2000/svg" xmlns:ev="http://www.w3.org/2001/xml-events" xmlns:xlink="http://www.w3.org/1999/xlink"><defs /><polyline fill="none" points="88.9863,29.3699 47.7808,28.4932 31.5616,37.6986 12.274,51.2877 8.7671,55.6712 8.7671,59.1781 10.9589,59.1781 12.274,55.6712 35.9452,42.5205 48.2192,42.5205 50.411,56.9863 53.0411,58.3014 58.3014,57.863 60.0548,46.0274 70.137,42.0822 74.5205,42.0822 81.9726,45.1507 82.8493,55.2329 84.1644,56.1096 96.4384,57.4247 97.7534,52.6027 94.2466,45.589 107.3973,41.6438 111.3425,38.5753 119.2329,28.9315 119.2329,22.7945 114.411,16.2192 108.274,15.3425 100.8219,18.411 92.0548,26.3014 87.6712,28.9315" stroke="#00007f" stroke-width="2" /><polyline fill="none" points="99.5068,18.8493 100.8219,9.6438 103.8904,8.7671 105.2055,14.4658" stroke="#0010ff" stroke-width="2" /><polyline fill="none" points="113.9726,16.2192 116.1644,10.9589 118.7945,9.6438 118.7945,18.411" stroke="#00a4ff" stroke-width="2" /><polyline fill="none" points="105.2055,20.6027 104.7671,21.9178" stroke="#3fffb7" stroke-width="2" /><polyline fill="none" points="109.1507,21.0411 109.1507,23.2329" stroke="#b7ff3f" stroke-width="2" /><polyline fill="none" points="106.5205,23.6712 108.274,24.5479" stroke="#ffb900" stroke-width="2" /><polyline fill="none" points="103.0137,28.4932 108.7123,31.1233 114.411,30.6849 113.0959,28.9315 104.7671,27.6164" stroke="#ff3000" stroke-width="2" /><polyline fill="none" points="105.6438,27.6164 107.3973,30.6849 108.7123,29.3699 111.3425,30.6849" stroke="#7f0000" stroke-width="2" /></svg>