<?xml version="1.0" encoding="utf-8" ?>
<svg baseProfile="tiny" height="128" version="1.2" viewBox="0,0,128,128" width="128" xmlns="http://www.w3.org/2000/svg" xmlns:ev="http://www.w3.org/2001/xml-events" xmlns:xlink="http://www.w3.org/1999/xlink"><defs /><polyline fill="none" points="43.8237,108.9085 39.4847,105.0034 35.1458,96.7593 30.8068,79.4034 28.6373,51.2 29.5051,47.7288 34.7119,41.6542 41.6542,38.1831 62.4814,34.7119 103.2678,59.878 105.8712,66.3864 108.9085,93.2881 106.3051,98.4949 100.6644,103.2678 91.9864,108.9085 74.6305,114.9831 69.8576,115.4169 44.6915,114.9831 38.1831,105.0034" stroke="#00007f" stroke-width="2" /><polyline fill="none" points="25.1661,44.6915 8.678,8.678 30.3729,17.3559 38.1831,22.1288 40.3525,26.0339 40.3525,29.5051" stroke="#004cff" stroke-width="2" /><polyline fill="none" points="87.6475,44.6915 98.061,39.0508 118.0203,32.1085 119.322,35.5797 107.6068,49.0305 105.4373,53.8034 103.2678,55.1051" stroke="#29ffcd" stroke-width="2" /><polyline fill="none" points="58.1424,84.1763 62.0475,86.3458 65.5186,83.7424 64.2169,80.7051 60.3119,78.5356 49.4644,78.1017" stroke="#cdff29" stroke-width="2" /><polyline fill="none" points="56.8407,84.1763 55.539,91.5525 47.7288,93.2881" stroke="#ff6700" stroke-width="2" /><polyline fill="none" points="65.5186,90.2508 75.4983,94.1559" stroke="#7f0000" stroke-width="2" /></svg>