<?xml version="1.0" encoding="utf-8" ?>
<svg baseProfile="tiny" height="128" version="1.2" viewBox="0,0,128,128" width="128" xmlns="http://www.w3.org/2000/svg" xmlns:ev="http://www.w3.org/2001/xml-events" xmlns:xlink="http://www.w3.org/1999/xlink"><defs /><polyline fill="none" points="13.4508,61.6136 22.1288,90.6847 29.5051,104.5695 36.8814,112.3797 45.9932,116.7186 58.1424,119.322 72.0271,119.322 88.9492,114.1153 93.722,105.8712 95.8915,90.2508 98.061,62.0475 96.7593,52.0678 101.5322,31.2407 100.6644,9.9797 84.1763,29.5051 75.9322,44.2576 60.7458,47.7288 34.7119,48.5966 29.0712,33.4102 20.3932,22.5627 13.0169,9.5458 11.2814,8.678 8.678,19.0915 8.678,36.4475 10.8475,55.539" stroke="#00007f" stroke-width="2" /><polyline fill="none" points="24.2983,60.7458 32.1085,60.7458" stroke="#00d4ff" stroke-width="2" /><polyline fill="none" points="63.3492,62.9153 78.1017,59.4441" stroke="#ffe500" stroke-width="2" /><polyline fill="none" points="46.861,72.461 48.5966,73.3288 51.6339,78.9695 55.1051,80.7051 55.9729,74.6305 50.7661,70.7254 49.8983,71.5932" stroke="#7f0000" stroke-width="2" /></svg>