<?xml version="1.0" encoding="utf-8" ?>
<svg baseProfile="tiny" height="128" version="1.2" viewBox="0,0,128,128" width="128" xmlns="http://www.w3.org/2000/svg" xmlns:ev="http://www.w3.org/2001/xml-events" xmlns:xlink="http://www.w3.org/1999/xlink"><defs /><polyline fill="none" points="52.5017,26.9017 44.6915,30.8068 41.2203,33.8441 40.3525,44.6915 42.0881,50.3322 48.5966,58.1424 56.4068,62.0475 74.1966,63.7831 77.6678,61.1797 78.9695,57.2746 80.2712,43.8237 77.6678,37.3153 72.8949,31.6746 63.7831,28.6373 37.3153,26.9017" stroke="#00007f" stroke-width="2" /><polyline fill="none" points="43.3898,30.3729 41.6542,21.261 42.522,8.678 46.4271,10.8475 54.2373,18.6576 57.2746,27.3356" stroke="#0000cc" stroke-width="2" /><polyline fill="none" points="71.1593,29.939 93.722,22.5627 95.4576,23.8644 92.8542,36.0136 88.9492,44.2576 86.3458,47.7288 78.1017,51.2" stroke="#0008ff" stroke-width="2" /><polyline fill="none" points="49.8983,59.0102 41.2203,72.0271 39.0508,80.2712 39.0508,86.7797 42.0881,96.7593 46.861,105.4373 52.5017,112.3797 58.1424,116.2847 63.7831,117.1525 65.9525,116.2847 69.8576,110.6441 72.0271,87.2136 71.5932,65.9525" stroke="#004cff" stroke-width="2" /><polyline fill="none" points="70.7254,99.7966 76.3661,97.6271 82.4407,92.4203 89.3831,68.5559 93.2881,60.7458 98.9288,59.4441 103.2678,61.6136 107.1729,65.5186 109.3424,71.5932 109.3424,80.2712 107.1729,86.3458 104.1356,89.8169 80.7051,98.4949 71.5932,104.5695" stroke="#0090ff" stroke-width="2" /><polyline fill="none" points="47.2949,105.0034 31.2407,108.0407 27.3356,111.078 27.3356,114.1153 29.939,115.8508 43.8237,116.7186 47.7288,114.9831 49.4644,110.6441 48.1627,107.1729 43.8237,105.4373" stroke="#00d4ff" stroke-width="2" /><polyline fill="none" points="75.0644,111.078 70.2915,113.2475 69.4237,115.4169 72.8949,118.0203 78.9695,119.322 83.3085,119.322 85.478,118.0203 85.9119,114.9831 84.6102,113.2475 79.8373,111.5119 68.122,110.6441" stroke="#29ffcd" stroke-width="2" /><polyline fill="none" points="75.4983,115.4169 75.9322,118.8881" stroke="#5fff96" stroke-width="2" /><polyline fill="none" points="78.1017,116.2847 79.4034,119.322" stroke="#96ff5f" stroke-width="2" /><polyline fill="none" points="81.5729,116.2847 83.3085,118.8881" stroke="#cdff29" stroke-width="2" /><polyline fill="none" points="57.7085,45.9932 58.1424,45.9932" stroke="#ffe500" stroke-width="2" /><polyline fill="none" points="58.1424,45.9932 58.1424,45.9932" stroke="#ffa600" stroke-width="2" /><polyline fill="none" points="54.2373,46.861 45.1254,45.9932 8.678,46.861" stroke="#ff6700" stroke-width="2" /><polyline fill="none" points="47.7288,49.0305 41.6542,49.0305 27.7695,52.5017 18.6576,56.8407" stroke="#ff2800" stroke-width="2" /><polyline fill="none" points="65.0847,47.7288 88.9492,47.7288 107.1729,50.7661" stroke="#cc0000" stroke-width="2" /><polyline fill="none" points="65.0847,52.9356 90.6847,52.9356 101.9661,54.2373" stroke="#7f0000" stroke-width="2" /></svg>