<?xml version="1.0" encoding="utf-8" ?>
<svg baseProfile="tiny" height="128" version="1.2" viewBox="0,0,128,128" width="128" xmlns="http://www.w3.org/2000/svg" xmlns:ev="http://www.w3.org/2001/xml-events" xmlns:xlink="http://www.w3.org/1999/xlink"><defs /><polyline fill="none" points="17.7898,21.6949 9.9797,26.9017 8.678,30.8068 9.1119,36.4475 14.3186,42.9559 25.6,49.8983 33.4102,50.3322 38.6169,46.4271 41.6542,38.1831 41.2203,31.6746 39.4847,29.0712" stroke="#00007f" stroke-width="2" /><polyline fill="none" points="15.1864,22.5627 20.3932,8.678 23.4305,21.261 25.6,22.5627 31.6746,20.3932 40.7864,9.1119 40.7864,12.5831 36.8814,26.9017" stroke="#0000de" stroke-width="2" /><polyline fill="none" points="16.4881,28.6373 20.3932,29.939" stroke="#0028ff" stroke-width="2" /><polyline fill="none" points="28.2034,30.8068 33.4102,31.2407" stroke="#0080ff" stroke-width="2" /><polyline fill="none" points="11.2814,34.278 16.0542,34.7119" stroke="#00d4ff" stroke-width="2" /><polyline fill="none" points="31.2407,37.3153 36.4475,37.7492" stroke="#36ffc0" stroke-width="2" /><polyline fill="none" points="10.8475,37.3153 17.3559,37.3153" stroke="#7cff79" stroke-width="2" /><polyline fill="none" points="29.5051,40.7864 36.4475,41.6542" stroke="#c0ff36" stroke-width="2" /><polyline fill="none" points="17.7898,41.2203 25.1661,42.9559" stroke="#ffe500" stroke-width="2" /><polyline fill="none" points="52.9356,22.1288 73.7627,20.8271 86.7797,28.6373" stroke="#ff9400" stroke-width="2" /><polyline fill="none" points="26.4678,49.4644 39.0508,56.8407 44.2576,58.5763 54.6712,58.5763 76.3661,50.7661" stroke="#ff4600" stroke-width="2" /><polyline fill="none" points="94.1559,24.2983 108.4746,24.2983 111.078,30.3729 111.5119,53.3695 114.1153,57.7085 119.322,59.0102" stroke="#de0000" stroke-width="2" /><polyline fill="none" points="95.0237,37.3153 98.4949,37.3153 100.6644,39.4847 104.1356,53.8034 107.1729,59.0102 111.5119,62.4814 116.2847,62.9153" stroke="#7f0000" stroke-width="2" /></svg>