<?xml version="1.0" encoding="utf-8" ?>
<svg baseProfile="tiny" height="128" version="1.2" viewBox="0,0,128,128" width="128" xmlns="http://www.w3.org/2000/svg" xmlns:ev="http://www.w3.org/2001/xml-events" xmlns:xlink="http://www.w3.org/1999/xlink"><defs /><polyline fill="none" points="42.522,118.4542 31.6746,111.9458 22.1288,101.9661 19.9593,96.7593 19.9593,82.8746 21.6949,72.8949 32.1085,56.4068 41.2203,48.5966 45.9932,45.9932 52.9356,44.2576 66.3864,43.8237 71.1593,44.6915 75.4983,48.1627 81.5729,55.539 82.0068,67.2542 81.139,72.461 71.5932,91.5525 59.878,108.4746 43.8237,119.322" stroke="#00007f" stroke-width="2" /><polyline fill="none" points="22.9966,57.7085 18.6576,33.4102 17.3559,8.678 22.1288,14.7525 28.6373,31.2407 30.3729,38.1831 30.3729,47.2949" stroke="#0000d1" stroke-width="2" /><polyline fill="none" points="72.8949,43.3898 80.2712,20.8271 83.7424,13.8847 86.3458,12.5831 88.0814,19.5254 88.0814,29.939 83.3085,55.1051" stroke="#0010ff" stroke-width="2" /><polyline fill="none" points="43.3898,79.8373 43.3898,79.8373" stroke="#0058ff" stroke-width="2" /><polyline fill="none" points="45.5593,74.1966 45.5593,76.8 47.2949,78.9695" stroke="#00a4ff" stroke-width="2" /><polyline fill="none" points="44.6915,57.2746 50.3322,58.5763 52.9356,58.1424 53.3695,55.539 50.3322,53.3695 45.5593,53.3695 44.2576,55.1051" stroke="#05ecf1" stroke-width="2" /><polyline fill="none" points="65.5186,58.1424 68.122,58.5763 69.8576,56.4068" stroke="#3fffb7" stroke-width="2" /><polyline fill="none" points="65.5186,52.9356 64.2169,55.539 65.0847,58.1424 72.461,61.1797 74.1966,60.7458" stroke="#7cff79" stroke-width="2" /><polyline fill="none" points="53.3695,82.0068 57.2746,84.1763 65.5186,84.1763" stroke="#b7ff3f" stroke-width="2" /><polyline fill="none" points="52.9356,89.3831 63.3492,89.3831 68.122,88.0814" stroke="#f1fc05" stroke-width="2" /><polyline fill="none" points="43.3898,81.5729 23.4305,78.9695" stroke="#ffb900" stroke-width="2" /><polyline fill="none" points="41.6542,74.1966 29.939,69.4237 11.7153,67.6881" stroke="#ff7300" stroke-width="2" /><polyline fill="none" points="26.9017,79.8373 8.678,79.8373" stroke="#ff3000" stroke-width="2" /><polyline fill="none" points="55.539,82.4407 72.0271,83.3085 95.0237,79.8373 98.4949,77.6678" stroke="#d10000" stroke-width="2" /><polyline fill="none" points="56.4068,87.2136 70.2915,90.2508 86.7797,90.2508" stroke="#7f0000" stroke-width="2" /></svg>