<?xml version="1.0" encoding="utf-8" ?>
<svg baseProfile="tiny" height="128" version="1.2" viewBox="0,0,128,128" width="128" xmlns="http://www.w3.org/2000/svg" xmlns:ev="http://www.w3.org/2001/xml-events" xmlns:xlink="http://www.w3.org/1999/xlink"><defs /><polyline fill="none" points="75.7551,35.7007 65.3061,37.4422 63.1293,39.619 61.8231,43.9728 64.4354,51.3741 68.3537,53.1156 73.5782,53.1156 80.5442,50.068 84.0272,43.102 81.415,37.8776 74.0136,36.1361" stroke="#00007f" stroke-width="2" /><polyline fill="none" points="59.6463,44.8435 60.517,30.4762 62.2585,25.2517 63.5646,26.1224 66.1769,34.8299" stroke="#0000f1" stroke-width="2" /><polyline fill="none" points="77.4966,37.0068 84.4626,20.0272 83.5918,32.6531 84.898,43.5374" stroke="#004cff" stroke-width="2" /><polyline fill="none" points="90.5578,47.8912 80.5442,47.0204 75.3197,49.1973 71.8367,54.4218 73.1429,59.6463 77.0612,63.5646 84.0272,65.7415 95.7823,64.0 101.8776,60.517 104.9252,55.7279 103.619,50.068 98.3946,46.585 89.6871,46.1497" stroke="#00b0ff" stroke-width="2" /><polyline fill="none" points="106.6667,54.8571 104.0544,54.4218 102.7483,51.3741 104.0544,43.9728 109.2789,39.619 117.1156,37.4422 119.2925,33.0884 119.2925,24.8163 116.6803,16.9796 111.0204,8.7075" stroke="#29ffcd" stroke-width="2" /><polyline fill="none" points="101.4422,58.3401 97.9592,67.483 99.7007,75.7551" stroke="#7cff79" stroke-width="2" /><polyline fill="none" points="87.5102,64.8707 87.5102,74.449" stroke="#cdff29" stroke-width="2" /><polyline fill="none" points="74.8844,61.3878 72.7075,65.3061 73.1429,73.1429" stroke="#ffc400" stroke-width="2" /><polyline fill="none" points="71.4014,57.034 67.9184,59.6463 64.0,67.0476" stroke="#ff6700" stroke-width="2" /><polyline fill="none" points="13.932,47.4558 13.0612,49.1973 14.3673,51.8095 12.6259,50.5034 8.7075,46.1497 9.5782,43.102 16.1088,43.9728 19.1565,47.0204 16.9796,42.6667 18.2857,38.7483 21.7687,38.3129 25.6871,40.0544" stroke="#f10700" stroke-width="2" /><polyline fill="none" points="23.9456,32.6531 25.2517,31.7823" stroke="#7f0000" stroke-width="2" /></svg>