<?xml version="1.0" encoding="utf-8" ?>
<svg baseProfile="tiny" height="128" version="1.2" viewBox="0,0,128,128" width="128" xmlns="http://www.w3.org/2000/svg" xmlns:ev="http://www.w3.org/2001/xml-events" xmlns:xlink="http://www.w3.org/1999/xlink"><defs /><polyline fill="none" points="13.8847,45.5593 16.922,29.0712 19.0915,27.7695 23.8644,31.6746 26.4678,36.8814 33.4102,45.1254 36.0136,54.2373 65.9525,52.0678 72.461,49.0305 79.4034,48.5966 79.8373,8.678 85.0441,16.4881 94.1559,52.0678 94.5898,100.6644 86.3458,112.8136 79.4034,118.0203 74.1966,119.322 56.8407,118.4542 47.2949,108.0407 36.4475,101.5322 31.2407,96.3254 22.1288,81.139 14.7525,74.6305 15.6203,68.122 14.7525,46.861" stroke="#00007f" stroke-width="2" /><polyline fill="none" points="42.0881,63.7831 34.278,66.3864 26.9017,74.6305 25.1661,79.8373 25.1661,88.9492 26.9017,92.4203 37.3153,92.8542 42.0881,89.3831 43.8237,83.7424 43.8237,78.5356 40.7864,72.0271" stroke="#0080ff" stroke-width="2" /><polyline fill="none" points="74.1966,72.461 70.7254,73.7627 67.6881,78.5356 64.2169,86.3458 64.2169,100.2305 67.6881,101.9661 73.3288,101.9661 77.2339,89.3831 77.2339,80.7051 73.3288,75.4983" stroke="#7cff79" stroke-width="2" /><polyline fill="none" points="53.8034,106.3051 41.6542,106.739 8.678,114.1153" stroke="#ff9400" stroke-width="2" /><polyline fill="none" points="54.6712,111.9458 46.861,111.9458 34.7119,114.5492 32.5424,117.5864" stroke="#7f0000" stroke-width="2" /></svg>