<?xml version="1.0" encoding="utf-8" ?>
<svg baseProfile="tiny" height="128" version="1.2" viewBox="0,0,128,128" width="128" xmlns="http://www.w3.org/2000/svg" xmlns:ev="http://www.w3.org/2001/xml-events" xmlns:xlink="http://www.w3.org/1999/xlink"><defs /><polyline fill="none" points="38.1831,50.3322 35.1458,40.3525 30.3729,29.939 19.9593,11.2814 18.6576,11.2814 14.3186,21.6949 9.5458,38.6169 8.678,55.9729" stroke="#00007f" stroke-width="2" /><polyline fill="none" points="58.1424,53.3695 77.2339,18.2237 84.6102,8.678 86.3458,10.8475 90.2508,25.1661 92.4203,45.9932 91.9864,54.6712 90.6847,56.4068 87.2136,56.4068" stroke="#0000f1" stroke-width="2" /><polyline fill="none" points="36.4475,49.8983 61.1797,48.5966 65.0847,52.0678" stroke="#004cff" stroke-width="2" /><polyline fill="none" points="91.5525,53.3695 100.2305,62.4814 105.0034,72.0271 106.3051,88.0814 105.0034,94.5898 101.0983,101.0983 94.5898,107.6068 82.8746,115.4169 72.461,119.322 65.5186,119.322 40.7864,113.2475 22.5627,92.8542 18.6576,86.3458 12.1492,68.5559 12.1492,52.5017" stroke="#00b0ff" stroke-width="2" /><polyline fill="none" points="55.9729,78.9695 56.4068,83.7424 58.5763,85.0441 60.3119,78.9695 58.5763,78.5356 57.2746,79.8373 57.2746,83.3085 58.5763,79.8373 57.2746,78.9695 55.539,79.8373" stroke="#29ffcd" stroke-width="2" /><polyline fill="none" points="38.6169,78.1017 29.5051,76.8 34.7119,79.8373 45.5593,83.3085" stroke="#7cff79" stroke-width="2" /><polyline fill="none" points="55.9729,86.7797 30.3729,89.8169" stroke="#cdff29" stroke-width="2" /><polyline fill="none" points="48.1627,91.9864 29.939,101.0983 32.9763,101.0983" stroke="#ffc400" stroke-width="2" /><polyline fill="none" points="72.461,80.7051 112.8136,78.1017" stroke="#ff6700" stroke-width="2" /><polyline fill="none" points="72.461,86.7797 97.6271,86.3458 103.2678,87.6475 110.6441,91.5525" stroke="#f10700" stroke-width="2" /><polyline fill="none" points="78.9695,91.1186 82.8746,94.5898 95.4576,98.4949 105.0034,106.3051" stroke="#7f0000" stroke-width="2" /></svg>