<?xml version="1.0" encoding="utf-8" ?>
<svg baseProfile="tiny" height="128" version="1.2" viewBox="0,0,128,128" width="128" xmlns="http://www.w3.org/2000/svg" xmlns:ev="http://www.w3.org/2001/xml-events" xmlns:xlink="http://www.w3.org/1999/xlink"><defs /><polyline fill="none" points="70.7254,12.5831 62.0475,24.2983 52.9356,31.6746 44.2576,42.522 43.3898,45.9932 52.5017,53.8034 62.4814,57.2746 76.8,57.2746 83.3085,52.0678 85.478,39.9186 84.1763,25.6 73.3288,13.0169 70.2915,12.1492 69.8576,14.7525" stroke="#00007f" stroke-width="2" /><polyline fill="none" points="63.3492,56.4068 54.2373,60.3119 47.2949,71.5932 42.0881,97.1932 29.939,119.322" stroke="#0000f1" stroke-width="2" /><polyline fill="none" points="75.0644,57.7085 78.5356,65.0847 82.4407,78.5356 82.0068,114.5492" stroke="#004cff" stroke-width="2" /><polyline fill="none" points="42.0881,94.1559 43.8237,95.0237 33.8441,84.1763 26.0339,67.6881 19.5254,45.5593 11.7153,40.3525 8.678,42.522 10.4136,47.2949 9.9797,59.878 12.5831,71.1593 27.7695,98.9288 34.278,100.6644 34.278,95.8915 29.939,80.7051" stroke="#00b0ff" stroke-width="2" /><polyline fill="none" points="55.9729,30.8068 46.4271,26.4678 39.0508,25.1661 41.6542,26.4678" stroke="#29ffcd" stroke-width="2" /><polyline fill="none" points="56.8407,38.6169 48.1627,37.7492 42.9559,38.6169 39.9186,40.7864" stroke="#7cff79" stroke-width="2" /><polyline fill="none" points="47.2949,46.4271 44.6915,50.7661" stroke="#cdff29" stroke-width="2" /><polyline fill="none" points="72.8949,34.7119 83.3085,34.278 90.6847,37.7492" stroke="#ffc400" stroke-width="2" /><polyline fill="none" points="78.5356,38.6169 100.2305,52.0678 102.8339,56.4068" stroke="#ff6700" stroke-width="2" /><polyline fill="none" points="76.3661,44.2576 85.0441,48.1627 88.5153,52.5017" stroke="#f10700" stroke-width="2" /><polyline fill="none" points="76.3661,16.922 76.3661,13.4508 78.1017,11.2814 87.6475,8.678 90.2508,9.9797 90.6847,11.2814 89.8169,18.6576" stroke="#7f0000" stroke-width="2" /></svg>