<?xml version="1.0" encoding="utf-8" ?>
<svg baseProfile="tiny" height="128" version="1.2" viewBox="0,0,128,128" width="128" xmlns="http://www.w3.org/2000/svg" xmlns:ev="http://www.w3.org/2001/xml-events" xmlns:xlink="http://www.w3.org/1999/xlink"><defs /><polyline fill="none" points="43.3898,26.4678 62.4814,25.1661 76.3661,26.0339 88.0814,31.2407 99.7966,40.3525 111.078,55.539 116.7186,72.461 117.5864,78.9695 116.7186,89.8169 111.5119,99.7966 98.4949,111.5119 83.7424,118.0203 68.9898,119.322 63.7831,118.0203 53.3695,112.3797 39.0508,99.3627 29.0712,88.0814 24.7322,70.7254 24.7322,61.1797 28.2034,52.5017 43.3898,26.4678 17.3559,16.922 9.5458,15.6203 8.678,17.3559 20.8271,30.8068 30.8068,45.9932" stroke="#00007f" stroke-width="2" /><polyline fill="none" points="78.1017,27.3356 104.5695,8.678 105.4373,15.1864 102.4,41.6542" stroke="#0000cc" stroke-width="2" /><polyline fill="none" points="89.8169,46.4271 80.2712,45.5593" stroke="#0008ff" stroke-width="2" /><polyline fill="none" points="59.878,48.5966 43.3898,47.7288" stroke="#004cff" stroke-width="2" /><polyline fill="none" points="67.6881,55.9729 65.9525,65.9525 66.8203,78.1017" stroke="#0090ff" stroke-width="2" /><polyline fill="none" points="67.2542,56.4068 68.9898,56.4068 71.5932,63.7831 81.5729,77.2339 66.3864,79.4034" stroke="#00d4ff" stroke-width="2" /><polyline fill="none" points="64.6508,65.9525 46.861,61.1797" stroke="#29ffcd" stroke-width="2" /><polyline fill="none" points="61.1797,72.0271 60.7458,70.2915 58.1424,69.4237 50.3322,68.5559" stroke="#5fff96" stroke-width="2" /><polyline fill="none" points="62.4814,77.2339 55.9729,77.2339 49.0305,75.0644" stroke="#96ff5f" stroke-width="2" /><polyline fill="none" points="73.3288,63.3492 82.4407,54.6712" stroke="#cdff29" stroke-width="2" /><polyline fill="none" points="80.2712,68.5559 88.9492,64.6508" stroke="#ffe500" stroke-width="2" /><polyline fill="none" points="79.4034,73.7627 89.8169,73.7627" stroke="#ffa600" stroke-width="2" /><polyline fill="none" points="71.1593,82.4407 70.7254,78.1017 73.7627,84.1763 72.8949,94.1559 71.1593,97.6271 65.9525,101.5322 56.4068,102.4 51.2,98.9288 49.0305,93.722" stroke="#ff6700" stroke-width="2" /><polyline fill="none" points="72.461,76.8 72.8949,94.5898 74.6305,99.3627 77.6678,103.2678 83.3085,105.8712 88.0814,105.0034 91.9864,100.6644 94.5898,95.0237" stroke="#ff2800" stroke-width="2" /><polyline fill="none" points="88.9492,45.5593 87.6475,40.7864 82.8746,37.3153 79.4034,37.7492 77.6678,45.1254" stroke="#cc0000" stroke-width="2" /><polyline fill="none" points="59.0102,48.1627 59.0102,44.6915 55.539,40.7864 47.7288,38.6169 45.1254,42.522 45.9932,49.4644" stroke="#7f0000" stroke-width="2" /></svg>