<?xml version="1.0" encoding="utf-8" ?>
<svg baseProfile="tiny" height="128" version="1.2" viewBox="0,0,128,128" width="128" xmlns="http://www.w3.org/2000/svg" xmlns:ev="http://www.w3.org/2001/xml-events" xmlns:xlink="http://www.w3.org/1999/xlink"><defs /><polyline fill="none" points="64.2169,41.6542 36.4475,40.3525 28.2034,43.3898 22.5627,48.1627 13.8847,58.5763 10.4136,65.5186 8.678,72.8949 8.678,92.8542 10.8475,100.2305 16.0542,107.6068 22.5627,113.6814 30.8068,118.4542 40.3525,119.322 51.2,117.5864 65.9525,111.078 75.9322,98.9288 80.2712,91.1186 82.4407,84.6102 82.8746,72.461 80.7051,60.3119 75.9322,51.2 73.3288,48.5966 57.7085,45.9932" stroke="#00007f" stroke-width="2" /><polyline fill="none" points="16.4881,51.2 18.6576,39.9186 29.939,16.4881" stroke="#004cff" stroke-width="2" /><polyline fill="none" points="32.9763,9.1119 36.0136,27.3356 39.4847,40.3525" stroke="#29ffcd" stroke-width="2" /><polyline fill="none" points="57.2746,37.7492 83.3085,8.678 85.478,12.5831 86.3458,31.2407 84.6102,49.0305 81.139,56.4068" stroke="#cdff29" stroke-width="2" /><polyline fill="none" points="40.3525,85.478 42.522,84.1763 42.9559,86.3458 40.7864,87.2136 40.3525,85.0441 42.9559,103.2678 45.5593,105.0034 49.0305,104.1356 50.7661,101.9661" stroke="#ff6700" stroke-width="2" /><polyline fill="none" points="42.9559,100.6644 39.4847,105.0034 36.8814,105.0034 31.6746,98.4949 30.8068,94.1559" stroke="#7f0000" stroke-width="2" /></svg>