<?xml version="1.0" encoding="utf-8" ?>
<svg baseProfile="tiny" height="128" version="1.2" viewBox="0,0,128,128" width="128" xmlns="http://www.w3.org/2000/svg" xmlns:ev="http://www.w3.org/2001/xml-events" xmlns:xlink="http://www.w3.org/1999/xlink"><defs /><polyline fill="none" points="73.3288,93.722 59.4441,99.7966 49.0305,99.3627 46.4271,96.7593 32.9763,77.2339 29.939,65.5186 18.2237,38.6169 8.678,9.1119 13.0169,8.678 30.8068,19.5254 60.3119,44.2576 57.7085,35.5797 59.878,33.4102 76.3661,32.5424 85.0441,34.278 105.4373,19.9593 115.4169,11.2814 117.5864,13.8847 117.5864,40.3525 113.2475,77.6678 103.7017,98.4949 92.4203,113.2475 84.6102,119.322 68.9898,114.9831 55.1051,101.0983 51.2,88.5153" stroke="#00007f" stroke-width="2" /><polyline fill="none" points="72.461,71.1593 75.9322,80.2712 73.3288,78.9695 68.5559,69.4237 70.2915,66.3864 74.6305,65.0847 78.1017,75.4983 73.7627,90.6847 75.4983,79.4034 77.6678,85.9119 78.1017,79.4034" stroke="#004cff" stroke-width="2" /><polyline fill="none" points="79.4034,73.7627 92.4203,66.3864 110.2102,65.5186 99.3627,68.122" stroke="#29ffcd" stroke-width="2" /><polyline fill="none" points="79.8373,78.9695 110.6441,80.7051 110.2102,84.1763" stroke="#cdff29" stroke-width="2" /><polyline fill="none" points="65.0847,78.1017 59.878,78.5356 44.2576,85.9119 33.8441,94.1559 54.2373,88.5153 70.2915,80.2712" stroke="#ff6700" stroke-width="2" /><polyline fill="none" points="77.2339,73.7627 70.7254,81.5729" stroke="#7f0000" stroke-width="2" /></svg>