<?xml version="1.0" encoding="utf-8" ?>
<svg baseProfile="tiny" height="128" version="1.2" viewBox="0,0,128,128" width="128" xmlns="http://www.w3.org/2000/svg" xmlns:ev="http://www.w3.org/2001/xml-events" xmlns:xlink="http://www.w3.org/1999/xlink"><defs /><polyline fill="none" points="86.3458,41.2203 59.878,41.2203 39.9186,43.8237 25.6,48.1627 18.6576,53.3695 13.0169,59.878 9.5458,68.122 8.678,76.8 9.9797,85.0441 13.8847,94.1559 20.3932,102.8339 30.8068,109.7763 42.9559,114.9831 54.6712,118.4542 70.7254,117.5864 91.9864,111.078 103.2678,105.0034 112.3797,96.7593 118.0203,88.0814 119.322,78.5356 118.4542,72.0271 112.8136,58.1424 107.1729,51.2 98.9288,43.8237 88.0814,39.4847 78.1017,39.0508 78.9695,36.0136 87.6475,22.9966 96.3254,13.0169 101.9661,8.678 104.1356,16.4881 107.6068,49.4644" stroke="#00007f" stroke-width="2" /><polyline fill="none" points="36.4475,45.1254 14.7525,18.2237 12.1492,31.6746 13.0169,53.8034" stroke="#004cff" stroke-width="2" /><polyline fill="none" points="58.1424,70.2915 59.878,70.7254 58.5763,72.0271 60.3119,83.3085 58.5763,91.5525 55.9729,94.5898 52.9356,95.8915 49.8983,95.0237 48.1627,91.5525" stroke="#29ffcd" stroke-width="2" /><polyline fill="none" points="58.1424,73.7627 59.4441,81.5729 62.4814,86.7797 67.6881,89.8169 72.461,88.9492 75.0644,86.7797 77.6678,78.9695" stroke="#cdff29" stroke-width="2" /><polyline fill="none" points="32.1085,59.0102 34.278,58.1424" stroke="#ff6700" stroke-width="2" /><polyline fill="none" points="78.5356,63.3492 80.2712,61.6136" stroke="#7f0000" stroke-width="2" /></svg>