<?xml version="1.0" encoding="utf-8" ?>
<svg baseProfile="tiny" height="128" version="1.2" viewBox="0,0,128,128" width="128" xmlns="http://www.w3.org/2000/svg" xmlns:ev="http://www.w3.org/2001/xml-events" xmlns:xlink="http://www.w3.org/1999/xlink"><defs /><polyline fill="none" points="34.3946,63.1293 34.3946,40.4898 38.3129,21.3333 42.2313,13.4966 49.6327,31.7823 55.2925,56.1633 61.3878,55.2925 77.0612,55.7279 78.8027,54.8571 79.2381,28.7347 82.7211,14.3673 85.7687,9.5782 88.8163,8.7075 90.9932,10.449 97.9592,25.2517 100.1361,67.0476 98.3946,89.2517 92.2993,98.3946 80.5442,106.6667 68.7891,109.7143 56.1633,109.7143 47.8912,107.5374 33.9592,97.5238 29.1701,89.6871 26.5578,75.7551 27.4286,62.6939 30.0408,57.034 32.6531,55.2925" stroke="#00007f" stroke-width="2" /><polyline fill="none" points="40.9252,83.5918 38.3129,81.415 39.1837,75.7551 44.8435,70.0952 50.5034,70.966 51.8095,75.3197 51.3741,79.2381 47.4558,81.8503 43.102,81.8503 41.3605,77.4966 41.7959,72.7075 46.1497,70.5306 48.3265,71.8367 49.1973,77.932 45.2789,80.1088 43.9728,77.4966 45.7143,74.0136 49.6327,72.7075 50.068,76.1905 47.0204,78.8027 44.8435,77.932 44.8435,75.3197 47.4558,73.5782 49.6327,73.1429 49.6327,75.7551 46.1497,75.7551 46.1497,73.5782 48.7619,71.8367 49.1973,74.0136 47.0204,76.1905 46.585,74.8844" stroke="#0000de" stroke-width="2" /><polyline fill="none" points="77.932,80.5442 71.4014,77.4966 70.966,74.449 76.1905,71.4014 82.7211,71.8367 83.1565,75.7551 79.2381,78.8027 76.1905,79.2381 75.7551,77.0612 79.2381,73.5782 83.1565,72.2721 81.415,75.3197 77.4966,78.3673 76.6259,75.3197 77.4966,73.1429 80.5442,71.4014 80.9796,73.1429 77.0612,78.3673 76.6259,76.1905 80.5442,72.2721 74.0136,77.0612 73.1429,75.7551 80.5442,69.6599" stroke="#0028ff" stroke-width="2" /><polyline fill="none" points="59.2109,86.2041 67.483,86.2041" stroke="#0080ff" stroke-width="2" /><polyline fill="none" points="57.9048,86.6395 64.4354,90.5578" stroke="#00d4ff" stroke-width="2" /><polyline fill="none" points="69.6599,86.6395 67.483,87.0748 64.8707,91.4286 65.3061,96.2177 67.9184,98.8299 80.5442,102.3129 88.8163,101.0068" stroke="#36ffc0" stroke-width="2" /><polyline fill="none" points="64.0,91.8639 63.1293,98.8299 53.551,103.1837 45.2789,104.0544" stroke="#7cff79" stroke-width="2" /><polyline fill="none" points="79.6735,90.5578 80.1088,88.381 90.9932,80.9796 119.2925,65.7415" stroke="#c0ff36" stroke-width="2" /><polyline fill="none" points="80.1088,88.381 94.4762,92.7347 110.585,99.7007 115.8095,100.5714" stroke="#ffe500" stroke-width="2" /><polyline fill="none" points="91.8639,85.3333 113.6327,88.381" stroke="#ff9400" stroke-width="2" /><polyline fill="none" points="43.5374,93.1701 27.4286,90.5578 9.5782,84.4626 8.7075,82.7211" stroke="#ff4600" stroke-width="2" /><polyline fill="none" points="43.102,94.9116 34.8299,101.0068 22.6395,107.102" stroke="#de0000" stroke-width="2" /><polyline fill="none" points="38.3129,91.4286 35.7007,89.2517 24.381,85.3333 10.8844,78.3673" stroke="#7f0000" stroke-width="2" /></svg>