<?xml version="1.0" encoding="utf-8" ?>
<svg baseProfile="tiny" height="128" version="1.2" viewBox="0,0,128,128" width="128" xmlns="http://www.w3.org/2000/svg" xmlns:ev="http://www.w3.org/2001/xml-events" xmlns:xlink="http://www.w3.org/1999/xlink"><defs /><polyline fill="none" points="16.4881,65.9525 16.4881,33.8441 18.2237,19.9593 20.8271,17.3559 30.8068,33.4102 35.1458,64.2169" stroke="#00007f" stroke-width="2" /><polyline fill="none" points="35.1458,64.2169 68.9898,61.6136" stroke="#0010ff" stroke-width="2" /><polyline fill="none" points="68.9898,61.6136 69.4237,35.1458 75.0644,8.678 80.2712,13.8847 93.2881,39.4847 95.0237,58.1424 93.722,69.4237" stroke="#00a4ff" stroke-width="2" /><polyline fill="none" points="93.722,69.4237 93.2881,78.9695 88.9492,94.1559 75.0644,113.2475 68.5559,117.1525 61.1797,118.8881 40.3525,119.322 32.1085,115.8508 27.7695,111.078 15.1864,90.6847 13.0169,82.8746 12.5831,72.461 18.2237,62.9153" stroke="#3fffb7" stroke-width="2" /><polyline fill="none" points="37.7492,87.6475 23.4305,83.7424 8.678,83.3085" stroke="#b7ff3f" stroke-width="2" /><polyline fill="none" points="32.5424,95.4576 16.922,98.4949" stroke="#ffb900" stroke-width="2" /><polyline fill="none" points="62.9153,82.0068 75.9322,79.8373" stroke="#ff3000" stroke-width="2" /><polyline fill="none" points="59.0102,92.8542 72.0271,92.8542 75.4983,93.722" stroke="#7f0000" stroke-width="2" /></svg>