<?xml version="1.0" encoding="utf-8" ?>
<svg baseProfile="tiny" height="128" version="1.2" viewBox="0,0,128,128" width="128" xmlns="http://www.w3.org/2000/svg" xmlns:ev="http://www.w3.org/2001/xml-events" xmlns:xlink="http://www.w3.org/1999/xlink"><defs /><polyline fill="none" points="78.3673,111.0204 61.3878,108.4082 47.8912,103.1837 36.1361,91.8639 32.2177,83.5918 30.4762,70.966 32.2177,60.9524 34.8299,54.4218 46.1497,41.3605 57.4694,34.8299 70.966,32.2177 78.3673,32.6531 95.3469,38.7483 107.102,50.9388 113.6327,65.3061 114.5034,82.2857 111.0204,90.5578 103.619,98.3946 78.3673,112.7619 76.6259,111.8912" stroke="#00007f" stroke-width="2" /><polyline fill="none" points="88.8163,36.5714 113.6327,10.8844 116.2449,8.7075 119.2925,10.0136 119.2925,33.9592 117.551,47.4558 113.6327,61.8231" stroke="#0010ff" stroke-width="2" /><polyline fill="none" points="45.7143,37.0068 9.5782,20.4626 8.7075,23.0748 12.6259,31.3469 29.1701,58.7755" stroke="#00a4ff" stroke-width="2" /><polyline fill="none" points="56.1633,55.2925 57.034,55.2925" stroke="#3fffb7" stroke-width="2" /><polyline fill="none" points="79.2381,53.551 79.6735,54.4218" stroke="#b7ff3f" stroke-width="2" /><polyline fill="none" points="67.483,72.2721 64.4354,71.8367 60.0816,76.6259 60.0816,79.2381 62.6939,81.415 68.7891,80.9796 71.4014,77.932 71.8367,75.3197 69.6599,72.2721 66.1769,71.8367" stroke="#ffb900" stroke-width="2" /><polyline fill="none" points="63.5646,84.4626 60.9524,98.8299 57.9048,101.4422 54.8571,98.8299 53.551,90.5578" stroke="#ff3000" stroke-width="2" /><polyline fill="none" points="62.6939,84.898 62.2585,91.4286" stroke="#7f0000" stroke-width="2" /></svg>