<?xml version="1.0" encoding="utf-8" ?>
<svg baseProfile="tiny" height="128" version="1.2" viewBox="0,0,128,128" width="128" xmlns="http://www.w3.org/2000/svg" xmlns:ev="http://www.w3.org/2001/xml-events" xmlns:xlink="http://www.w3.org/1999/xlink"><defs /><polyline fill="none" points="21.6949,43.3898 18.2237,33.4102 16.922,12.1492 19.9593,10.8475 26.0339,16.0542 33.8441,27.3356 39.4847,39.4847 51.2,37.7492 67.2542,37.7492 70.2915,39.4847 89.8169,8.678 91.5525,12.5831 94.5898,37.3153 98.061,49.0305" stroke="#00007f" stroke-width="2" /><polyline fill="none" points="21.6949,45.9932 17.7898,47.7288 16.0542,50.3322 13.8847,59.878 13.8847,83.7424 18.2237,97.6271 22.1288,103.7017 35.5797,115.4169 39.4847,117.1525 55.9729,117.1525 67.2542,113.6814 76.3661,107.6068 83.3085,99.3627 92.4203,83.3085 95.8915,73.3288 96.3254,56.4068 94.5898,51.6339 85.0441,45.1254" stroke="#0000f1" stroke-width="2" /><polyline fill="none" points="66.8203,80.2712 78.5356,76.8 92.8542,70.2915" stroke="#004cff" stroke-width="2" /><polyline fill="none" points="68.122,90.6847 70.7254,88.9492 98.061,88.0814" stroke="#00b0ff" stroke-width="2" /><polyline fill="none" points="70.2915,103.2678 72.461,108.9085 82.8746,119.322" stroke="#29ffcd" stroke-width="2" /><polyline fill="none" points="25.6,80.2712 8.678,76.8" stroke="#7cff79" stroke-width="2" /><polyline fill="none" points="24.7322,91.9864 18.6576,93.722 12.1492,100.6644" stroke="#cdff29" stroke-width="2" /><polyline fill="none" points="33.8441,102.4 30.3729,106.3051 26.4678,117.5864" stroke="#ffc400" stroke-width="2" /><polyline fill="none" points="39.4847,64.2169 39.4847,64.2169" stroke="#ff6700" stroke-width="2" /><polyline fill="none" points="70.2915,61.1797 70.2915,61.1797" stroke="#f10700" stroke-width="2" /><polyline fill="none" points="35.5797,63.3492 38.1831,65.5186" stroke="#7f0000" stroke-width="2" /></svg>