<?xml version="1.0" encoding="utf-8" ?>
<svg baseProfile="tiny" height="128" version="1.2" viewBox="0,0,128,128" width="128" xmlns="http://www.w3.org/2000/svg" xmlns:ev="http://www.w3.org/2001/xml-events" xmlns:xlink="http://www.w3.org/1999/xlink"><defs /><polyline fill="none" points="78.3673,38.7483 60.0816,34.3946 39.1837,33.5238 25.6871,36.5714 15.2381,44.4082 10.8844,50.5034 8.7075,57.9048 9.1429,70.5306 16.5442,79.2381 25.6871,83.1565 33.5238,84.898 51.3741,84.898 74.8844,80.9796 91.8639,73.5782 98.3946,67.9184 102.3129,60.0816 103.1837,50.9388 100.5714,42.6667 95.3469,33.9592 90.1224,30.9116 82.7211,30.9116 72.2721,34.3946 70.5306,38.3129" stroke="#00007f" stroke-width="2" /><polyline fill="none" points="98.3946,37.0068 101.4422,30.9116 105.7959,26.5578 105.7959,35.7007 100.5714,41.3605 112.3265,24.381 119.2925,8.7075 110.585,16.9796 98.3946,39.1837" stroke="#00d4ff" stroke-width="2" /><polyline fill="none" points="93.1701,70.966 92.7347,84.0272" stroke="#ffe500" stroke-width="2" /><polyline fill="none" points="84.0272,73.1429 82.2857,87.0748" stroke="#7f0000" stroke-width="2" /></svg>