<?xml version="1.0" encoding="utf-8" ?>
<svg baseProfile="tiny" height="128" version="1.2" viewBox="0,0,128,128" width="128" xmlns="http://www.w3.org/2000/svg" xmlns:ev="http://www.w3.org/2001/xml-events" xmlns:xlink="http://www.w3.org/1999/xlink"><defs /><polyline fill="none" points="111.9458,52.9356 85.9119,55.539 48.1627,54.2373 41.6542,46.4271 41.2203,40.7864 46.4271,32.9763 54.2373,28.6373 61.6136,26.9017 78.5356,26.9017 111.9458,32.1085 117.5864,36.4475 119.322,45.1254 117.5864,49.0305 108.9085,51.6339 91.5525,52.0678" stroke="#00007f" stroke-width="2" /><polyline fill="none" points="49.0305,54.6712 45.9932,55.1051 43.3898,57.7085 39.9186,68.9898 40.3525,80.2712 44.2576,84.1763 53.3695,85.0441 57.2746,80.7051 57.2746,75.0644 52.5017,52.0678" stroke="#0000ff" stroke-width="2" /><polyline fill="none" points="41.6542,84.6102 45.1254,79.4034 49.8983,76.8" stroke="#0080ff" stroke-width="2" /><polyline fill="none" points="53.3695,82.0068 54.2373,76.8 52.0678,72.0271" stroke="#15ffe1" stroke-width="2" /><polyline fill="none" points="99.7966,51.6339 97.1932,52.5017 90.2508,59.878 85.0441,69.8576 82.4407,80.7051 82.4407,88.9492 83.7424,90.2508 98.061,91.1186 101.9661,89.8169 104.5695,87.2136 105.8712,82.8746 105.8712,68.5559 103.7017,58.5763 98.061,50.3322" stroke="#7cff79" stroke-width="2" /><polyline fill="none" points="85.9119,84.1763 91.9864,85.9119 95.4576,89.3831 95.8915,95.4576" stroke="#e4ff12" stroke-width="2" /><polyline fill="none" points="85.9119,92.4203 90.2508,84.1763" stroke="#ff9400" stroke-width="2" /><polyline fill="none" points="44.6915,32.9763 43.3898,30.3729 35.1458,24.2983 27.7695,16.922 14.3186,16.0542 8.678,19.9593 8.678,25.1661 11.7153,28.6373 25.6,32.5424 36.4475,40.7864 45.5593,45.9932" stroke="#ff1d00" stroke-width="2" /><polyline fill="none" points="24.2983,15.1864 24.7322,13.8847 35.1458,8.678 35.5797,22.5627" stroke="#7f0000" stroke-width="2" /></svg>