<?xml version="1.0" encoding="utf-8" ?>
<svg baseProfile="tiny" height="128" version="1.2" viewBox="0,0,128,128" width="128" xmlns="http://www.w3.org/2000/svg" xmlns:ev="http://www.w3.org/2001/xml-events" xmlns:xlink="http://www.w3.org/1999/xlink"><defs /><polyline fill="none" points="32.9763,54.2373 24.2983,54.6712 19.0915,58.5763 9.1119,77.2339 8.678,93.722 17.7898,108.0407 32.5424,116.2847 42.522,118.4542 57.2746,119.322 82.8746,118.4542 97.6271,112.3797 101.9661,109.7763 106.739,102.8339 107.1729,94.1559 105.0034,86.3458 101.0983,78.1017 95.4576,70.7254 86.7797,62.0475 78.1017,56.4068 59.4441,50.3322 32.1085,49.0305 18.6576,52.9356 13.4508,55.9729 12.1492,64.6508 13.4508,65.9525" stroke="#00007f" stroke-width="2" /><polyline fill="none" points="15.6203,51.2 15.6203,34.7119 19.0915,19.5254 19.9593,8.678 23.4305,28.6373 33.4102,53.8034" stroke="#0080ff" stroke-width="2" /><polyline fill="none" points="19.9593,46.4271 19.9593,39.9186 23.8644,46.861" stroke="#7cff79" stroke-width="2" /><polyline fill="none" points="65.9525,50.7661 86.3458,24.7322 95.8915,18.6576 95.4576,70.2915" stroke="#ff9400" stroke-width="2" /><polyline fill="none" points="75.0644,50.7661 84.6102,41.2203 88.0814,52.9356" stroke="#7f0000" stroke-width="2" /></svg>