<?xml version="1.0" encoding="utf-8" ?>
<svg baseProfile="tiny" height="128" version="1.2" viewBox="0,0,128,128" width="128" xmlns="http://www.w3.org/2000/svg" xmlns:ev="http://www.w3.org/2001/xml-events" xmlns:xlink="http://www.w3.org/1999/xlink"><defs /><polyline fill="none" points="31.6746,37.3153 32.1085,19.9593 34.278,19.5254 36.8814,22.5627 42.522,33.8441" stroke="#00007f" stroke-width="2" /><polyline fill="none" points="46.861,32.9763 48.1627,30.3729 53.8034,28.2034 60.3119,27.3356 70.7254,27.3356 75.9322,29.5051 77.6678,31.6746" stroke="#0000d5" stroke-width="2" /><polyline fill="none" points="81.139,29.0712 81.139,22.1288 84.6102,16.922 95.4576,8.678 96.7593,11.2814 96.7593,37.7492 95.0237,48.1627" stroke="#001cff" stroke-width="2" /><polyline fill="none" points="33.4102,44.2576 27.3356,45.9932 22.1288,53.8034 19.0915,61.1797 18.6576,69.8576 22.1288,74.6305 29.0712,79.4034 37.3153,82.4407 46.4271,83.3085 56.4068,83.3085 75.0644,80.2712 86.3458,75.9322 94.5898,70.2915 99.3627,65.0847 101.0983,57.2746 100.2305,54.2373 94.1559,49.4644 90.6847,48.5966" stroke="#006cff" stroke-width="2" /><polyline fill="none" points="39.4847,32.1085 39.9186,37.3153" stroke="#00b8ff" stroke-width="2" /><polyline fill="none" points="86.3458,22.9966 85.9119,27.3356 87.2136,29.0712 87.6475,26.9017" stroke="#1cffda" stroke-width="2" /><polyline fill="none" points="11.2814,52.5017 16.4881,51.6339 30.8068,57.2746" stroke="#5cff9a" stroke-width="2" /><polyline fill="none" points="8.678,69.4237 10.8475,68.122 27.3356,66.8203" stroke="#9aff5c" stroke-width="2" /><polyline fill="none" points="14.7525,80.2712 47.7288,64.2169" stroke="#daff1c" stroke-width="2" /><polyline fill="none" points="85.478,52.0678 91.1186,46.861 102.8339,42.9559 112.8136,41.2203" stroke="#ffcb00" stroke-width="2" /><polyline fill="none" points="87.2136,61.6136 100.6644,56.4068 107.1729,55.9729" stroke="#ff8500" stroke-width="2" /><polyline fill="none" points="91.9864,67.6881 97.1932,65.9525 102.8339,65.9525 119.322,68.9898" stroke="#ff3b00" stroke-width="2" /><polyline fill="none" points="49.4644,49.4644 51.6339,56.4068" stroke="#d50000" stroke-width="2" /><polyline fill="none" points="67.2542,45.1254 69.4237,53.8034" stroke="#7f0000" stroke-width="2" /></svg>