<?xml version="1.0" encoding="utf-8" ?>
<svg baseProfile="tiny" height="128" version="1.2" viewBox="0,0,128,128" width="128" xmlns="http://www.w3.org/2000/svg" xmlns:ev="http://www.w3.org/2001/xml-events" xmlns:xlink="http://www.w3.org/1999/xlink"><defs /><polyline fill="none" points="68.587,37.57 65.0922,34.9488 55.9181,34.5119 40.628,41.5017 29.7065,52.8601 25.3379,62.471 24.0273,67.7133 24.0273,83.4403 27.5222,92.6143 39.7543,105.7201 56.7918,115.7679 69.8976,118.8259 82.1297,119.2628 93.0512,114.0205 97.8567,109.6519 102.6621,98.7304 104.4096,79.9454 104.4096,73.3925 100.9147,62.0341 91.7406,49.3652 83.0034,42.8123 73.8294,37.1331 61.1604,32.7645 54.6075,32.3276" stroke="#00007f" stroke-width="2" /><polyline fill="none" points="50.6758,76.8874 65.529,76.8874" stroke="#0000d5" stroke-width="2" /><polyline fill="none" points="48.9283,79.9454 61.1604,93.9249 69.0239,81.256" stroke="#001cff" stroke-width="2" /><polyline fill="none" points="45.8703,84.7509 38.4437,80.8191 30.5802,81.256 24.4642,87.372 23.5904,93.4881" stroke="#006cff" stroke-width="2" /><polyline fill="none" points="51.9863,88.2457 44.9966,88.6826 39.7543,91.7406 36.2594,96.1092 34.9488,101.3515" stroke="#00b8ff" stroke-width="2" /><polyline fill="none" points="45.8703,103.5358 43.2491,112.7099" stroke="#1cffda" stroke-width="2" /><polyline fill="none" points="79.0717,82.5666 97.8567,81.256 107.0307,85.1877 111.3993,88.6826" stroke="#5cff9a" stroke-width="2" /><polyline fill="none" points="77.3242,87.8089 104.4096,98.2935" stroke="#9aff5c" stroke-width="2" /><polyline fill="none" points="79.5085,101.3515 94.3618,109.215" stroke="#daff1c" stroke-width="2" /><polyline fill="none" points="48.0546,106.157 49.802,109.215 55.4812,113.1468 65.9659,116.2048 70.3345,115.7679 71.2082,110.0887" stroke="#ffcb00" stroke-width="2" /><polyline fill="none" points="38.0068,43.686 37.1331,48.9283 39.7543,54.1706" stroke="#ff8500" stroke-width="2" /><polyline fill="none" points="68.1502,49.3652 71.2082,65.9659" stroke="#ff3b00" stroke-width="2" /><polyline fill="none" points="27.959,46.3072 17.9113,32.3276 8.7372,8.7372 11.7952,9.1741 18.3481,14.8532 38.0068,37.57" stroke="#d50000" stroke-width="2" /><polyline fill="none" points="86.0614,35.3857 89.9932,35.3857 95.6724,32.3276 113.5836,17.0375 114.0205,17.9113 94.3618,57.2287" stroke="#7f0000" stroke-width="2" /></svg>