<?xml version="1.0" encoding="utf-8" ?>
<svg baseProfile="tiny" height="128" version="1.2" viewBox="0,0,128,128" width="128" xmlns="http://www.w3.org/2000/svg" xmlns:ev="http://www.w3.org/2001/xml-events" xmlns:xlink="http://www.w3.org/1999/xlink"><defs /><polyline fill="none" points="26.9017,32.1085 26.9017,19.9593 36.4475,26.4678 42.0881,27.7695 45.1254,22.1288 49.4644,19.0915 61.6136,15.6203 72.0271,16.922 82.0068,28.2034 84.1763,17.7898 93.2881,8.678 94.5898,10.8475 90.2508,27.3356" stroke="#00007f" stroke-width="2" /><polyline fill="none" points="24.7322,33.4102 25.6,56.4068 30.8068,68.122 42.522,78.1017 52.9356,82.0068 62.0475,82.4407 68.122,79.8373 74.1966,75.4983 81.139,67.2542 85.0441,59.0102 92.8542,32.5424" stroke="#0000f1" stroke-width="2" /><polyline fill="none" points="50.7661,41.2203 52.9356,44.2576 55.539,44.6915 56.4068,38.1831 54.6712,38.1831 53.3695,39.9186 53.3695,41.2203 55.539,42.522" stroke="#004cff" stroke-width="2" /><polyline fill="none" points="71.5932,35.5797 69.8576,39.0508 71.1593,36.8814 69.8576,40.3525 71.1593,39.0508 71.1593,36.0136 69.8576,39.0508" stroke="#00b0ff" stroke-width="2" /><polyline fill="none" points="55.9729,56.8407 65.5186,54.2373 58.5763,54.6712 57.7085,62.0475 58.1424,63.7831 59.4441,63.7831 66.3864,53.3695" stroke="#29ffcd" stroke-width="2" /><polyline fill="none" points="59.0102,62.4814 58.1424,66.3864 52.9356,71.5932 45.1254,74.6305 42.0881,73.7627 41.2203,72.0271" stroke="#7cff79" stroke-width="2" /><polyline fill="none" points="54.2373,60.7458 55.1051,65.5186 60.3119,74.1966 64.6508,78.5356 70.7254,80.7051" stroke="#cdff29" stroke-width="2" /><polyline fill="none" points="53.3695,48.5966 47.2949,52.0678 29.0712,52.5017 14.3186,56.8407 11.7153,60.3119 8.678,68.5559" stroke="#ffc400" stroke-width="2" /><polyline fill="none" points="51.2,61.1797 33.8441,67.6881 23.4305,74.6305 15.6203,85.9119 13.0169,95.4576" stroke="#ff6700" stroke-width="2" /><polyline fill="none" points="58.5763,62.9153 74.1966,63.3492 96.7593,61.6136 112.8136,66.3864 119.322,70.2915" stroke="#f10700" stroke-width="2" /><polyline fill="none" points="62.4814,67.2542 86.3458,79.4034 100.2305,91.5525" stroke="#7f0000" stroke-width="2" /></svg>