<?xml version="1.0" encoding="utf-8" ?>
<svg baseProfile="tiny" height="128" version="1.2" viewBox="0,0,128,128" width="128" xmlns="http://www.w3.org/2000/svg" xmlns:ev="http://www.w3.org/2001/xml-events" xmlns:xlink="http://www.w3.org/1999/xlink"><defs /><polyline fill="none" points="60.7458,9.9797 52.5017,9.9797 44.2576,13.0169 34.278,21.6949 29.0712,29.5051 26.4678,37.3153 26.4678,42.522 30.8068,48.5966 39.4847,56.4068 51.6339,62.0475 70.2915,62.9153 78.5356,59.878 82.8746,53.8034 83.7424,43.8237 81.139,38.1831 70.2915,26.4678 62.9153,23.4305 59.878,19.5254 58.5763,8.678" stroke="#00007f" stroke-width="2" /><polyline fill="none" points="39.9186,44.2576 8.678,49.0305" stroke="#0000de" stroke-width="2" /><polyline fill="none" points="43.3898,47.7288 28.2034,51.2 19.5254,55.539" stroke="#0028ff" stroke-width="2" /><polyline fill="none" points="44.2576,55.539 20.8271,65.5186" stroke="#0080ff" stroke-width="2" /><polyline fill="none" points="68.122,40.7864 119.322,38.1831" stroke="#00d4ff" stroke-width="2" /><polyline fill="none" points="71.5932,45.9932 106.739,45.9932" stroke="#36ffc0" stroke-width="2" /><polyline fill="none" points="72.0271,51.2 102.8339,51.6339 113.6814,54.6712" stroke="#7cff79" stroke-width="2" /><polyline fill="none" points="36.8814,18.2237 29.939,11.7153 26.0339,10.8475 20.8271,26.9017 21.261,29.5051 26.4678,33.4102 36.0136,36.4475" stroke="#c0ff36" stroke-width="2" /><polyline fill="none" points="59.0102,14.7525 68.5559,11.2814 72.8949,11.7153 76.8,14.3186 78.1017,16.4881 77.6678,23.4305 74.1966,26.9017 69.8576,27.7695" stroke="#ffe500" stroke-width="2" /><polyline fill="none" points="52.0678,30.3729 52.0678,30.3729" stroke="#ff9400" stroke-width="2" /><polyline fill="none" points="62.9153,30.3729 62.9153,30.3729" stroke="#ff4600" stroke-width="2" /><polyline fill="none" points="45.1254,30.3729 49.4644,30.3729 48.5966,32.5424 45.1254,32.5424 44.2576,30.3729" stroke="#de0000" stroke-width="2" /><polyline fill="none" points="57.2746,30.3729 58.5763,32.1085 56.8407,32.9763 55.9729,31.2407 57.7085,29.939 58.5763,30.3729" stroke="#7f0000" stroke-width="2" /></svg>