<?xml version="1.0" encoding="utf-8" ?>
<svg baseProfile="tiny" height="128" version="1.2" viewBox="0,0,128,128" width="128" xmlns="http://www.w3.org/2000/svg" xmlns:ev="http://www.w3.org/2001/xml-events" xmlns:xlink="http://www.w3.org/1999/xlink"><defs /><polyline fill="none" points="41.6542,24.2983 35.1458,33.4102 32.5424,44.2576 32.5424,50.7661 37.3153,64.2169 41.6542,68.122 47.2949,70.2915 54.2373,71.1593 61.6136,69.4237 68.5559,66.8203 75.4983,61.1797 80.2712,52.9356 80.7051,49.0305 77.6678,32.5424 72.0271,25.6 65.5186,22.5627 55.9729,22.5627 42.522,28.2034" stroke="#00007f" stroke-width="2" /><polyline fill="none" points="54.6712,55.1051 56.4068,56.4068 58.5763,53.3695 54.6712,54.6712" stroke="#0000f1" stroke-width="2" /><polyline fill="none" points="56.8407,57.2746 57.7085,64.2169 56.8407,66.8203" stroke="#004cff" stroke-width="2" /><polyline fill="none" points="58.1424,65.0847 63.7831,68.9898" stroke="#00b0ff" stroke-width="2" /><polyline fill="none" points="62.0475,24.7322 94.5898,11.2814 95.0237,17.7898 92.8542,26.0339 87.2136,36.0136 82.8746,40.3525" stroke="#29ffcd" stroke-width="2" /><polyline fill="none" points="38.6169,29.939 37.3153,22.9966 19.0915,8.678 22.9966,28.6373 29.0712,43.8237 32.9763,47.7288 36.4475,48.1627" stroke="#7cff79" stroke-width="2" /><polyline fill="none" points="39.4847,58.1424 36.4475,58.5763 18.6576,69.4237 8.678,78.1017" stroke="#cdff29" stroke-width="2" /><polyline fill="none" points="44.2576,64.2169 40.3525,64.6508 22.9966,78.1017 21.261,80.7051" stroke="#ffc400" stroke-width="2" /><polyline fill="none" points="73.3288,46.861 94.5898,47.2949 103.7017,50.3322 119.322,58.1424" stroke="#ff6700" stroke-width="2" /><polyline fill="none" points="74.6305,54.6712 82.8746,55.1051 90.2508,58.5763 98.4949,64.2169 103.2678,70.2915" stroke="#f10700" stroke-width="2" /><polyline fill="none" points="66.8203,40.3525 66.8203,40.3525" stroke="#7f0000" stroke-width="2" /></svg>