<?xml version="1.0" encoding="utf-8" ?>
<svg baseProfile="tiny" height="128" version="1.2" viewBox="0,0,128,128" width="128" xmlns="http://www.w3.org/2000/svg" xmlns:ev="http://www.w3.org/2001/xml-events" xmlns:xlink="http://www.w3.org/1999/xlink"><defs /><polyline fill="none" points="29.5051,34.7119 22.1288,17.7898 26.0339,17.7898 31.6746,19.9593 42.0881,28.2034 57.2746,25.6 69.8576,8.678 71.5932,26.0339" stroke="#00007f" stroke-width="2" /><polyline fill="none" points="29.0712,36.8814 29.939,52.5017 33.8441,60.7458 37.7492,64.2169 48.5966,68.5559 62.4814,67.6881 72.461,59.4441 76.8,44.2576 74.1966,32.5424 70.2915,24.7322" stroke="#0028ff" stroke-width="2" /><polyline fill="none" points="61.6136,46.4271 68.9898,40.3525 77.2339,37.7492 118.4542,36.0136" stroke="#00d4ff" stroke-width="2" /><polyline fill="none" points="119.322,36.0136 119.322,36.0136" stroke="#7cff79" stroke-width="2" /><polyline fill="none" points="66.3864,52.0678 74.1966,49.0305 99.3627,49.4644" stroke="#ffe500" stroke-width="2" /><polyline fill="none" points="64.6508,56.8407 77.6678,56.8407 93.2881,63.7831" stroke="#ff4600" stroke-width="2" /><polyline fill="none" points="33.8441,48.5966 11.2814,58.1424 8.678,61.1797" stroke="#7f0000" stroke-width="2" /></svg>