<?xml version="1.0" encoding="utf-8" ?>
<svg baseProfile="tiny" height="128" version="1.2" viewBox="0,0,128,128" width="128" xmlns="http://www.w3.org/2000/svg" xmlns:ev="http://www.w3.org/2001/xml-events" xmlns:xlink="http://www.w3.org/1999/xlink"><defs /><polyline fill="none" points="24.2983,49.4644 24.7322,62.0475 30.8068,87.6475 36.8814,98.4949 42.9559,104.5695 55.9729,108.4746 73.7627,108.4746 90.6847,105.8712 101.9661,101.9661 106.3051,98.9288 111.078,86.7797 111.9458,67.6881 103.2678,49.8983 99.3627,26.4678 94.1559,19.5254 87.6475,15.6203 74.6305,12.5831 63.3492,12.5831 57.7085,13.8847 47.7288,19.5254 32.9763,39.4847 29.0712,48.1627 24.7322,52.9356 19.5254,42.522 8.678,28.2034 13.4508,28.2034 29.5051,33.8441 33.8441,33.8441" stroke="#00007f" stroke-width="2" /><polyline fill="none" points="94.1559,16.0542 106.739,13.4508 118.0203,8.678 119.322,10.4136 115.4169,24.2983 108.9085,37.7492" stroke="#004cff" stroke-width="2" /><polyline fill="none" points="53.8034,42.9559 54.2373,39.0508" stroke="#29ffcd" stroke-width="2" /><polyline fill="none" points="86.7797,39.0508 88.0814,45.9932" stroke="#cdff29" stroke-width="2" /><polyline fill="none" points="73.3288,57.2746 69.4237,65.5186 62.0475,73.7627 51.6339,77.2339 43.8237,76.3661" stroke="#ff6700" stroke-width="2" /><polyline fill="none" points="73.7627,53.8034 74.6305,63.7831 84.1763,72.461 91.9864,74.6305 101.0983,74.6305 108.0407,71.5932" stroke="#7f0000" stroke-width="2" /></svg>