<?xml version="1.0" encoding="utf-8" ?>
<svg baseProfile="tiny" height="128" version="1.2" viewBox="0,0,128,128" width="128" xmlns="http://www.w3.org/2000/svg" xmlns:ev="http://www.w3.org/2001/xml-events" xmlns:xlink="http://www.w3.org/1999/xlink"><defs /><polyline fill="none" points="75.4983,27.7695 56.8407,23.4305 43.3898,26.4678 35.5797,29.939 17.3559,43.8237 11.2814,55.9729 10.8475,71.5932 15.1864,86.3458 19.0915,92.8542 26.9017,102.4 31.2407,106.3051 42.522,110.2102 50.3322,111.5119 70.7254,109.7763 82.0068,106.739 88.9492,103.7017 98.061,95.8915 110.2102,70.7254 108.9085,56.4068 107.6068,52.0678 102.8339,47.2949 94.5898,43.3898 78.1017,30.8068 63.3492,27.3356" stroke="#00007f" stroke-width="2" /><polyline fill="none" points="8.678,41.2203 12.1492,8.678" stroke="#0028ff" stroke-width="2" /><polyline fill="none" points="10.8475,9.9797 28.2034,29.0712 33.8441,38.1831" stroke="#00d4ff" stroke-width="2" /><polyline fill="none" points="82.4407,27.7695 118.8881,8.678 119.322,11.7153 114.9831,32.5424 111.9458,40.3525 105.4373,51.2" stroke="#7cff79" stroke-width="2" /><polyline fill="none" points="43.8237,62.0475 42.522,68.5559 43.8237,76.3661 49.4644,79.4034 56.4068,78.1017 60.7458,72.8949 62.0475,65.5186 59.4441,62.4814 49.0305,63.7831 45.1254,66.8203 43.8237,70.2915 46.4271,73.3288" stroke="#ffe500" stroke-width="2" /><polyline fill="none" points="74.6305,62.0475 75.4983,71.1593 79.4034,74.6305 84.6102,74.1966 88.5153,68.5559 89.8169,62.0475 88.5153,59.0102 84.1763,57.2746 79.8373,59.0102 77.2339,62.4814" stroke="#ff4600" stroke-width="2" /><polyline fill="none" points="57.2746,87.6475 61.1797,90.6847 55.539,92.8542" stroke="#7f0000" stroke-width="2" /></svg>