<?xml version="1.0" encoding="utf-8" ?>
<svg baseProfile="tiny" height="128" version="1.2" viewBox="0,0,128,128" width="128" xmlns="http://www.w3.org/2000/svg" xmlns:ev="http://www.w3.org/2001/xml-events" xmlns:xlink="http://www.w3.org/1999/xlink"><defs /><polyline fill="none" points="24.381,38.7483 25.2517,33.5238 28.7347,27.8639 36.1361,21.7687 43.9728,19.1565 57.4694,22.2041 65.7415,27.8639 70.0952,33.0884 71.8367,37.4422 73.1429,46.1497 70.0952,61.3878 63.5646,67.9184 52.2449,70.966 34.8299,68.7891 29.1701,65.3061 25.2517,60.9524 21.3333,53.9864 20.4626,48.3265 20.4626,42.2313 22.6395,35.7007" stroke="#00007f" stroke-width="2" /><polyline fill="none" points="58.3401,20.898 65.7415,11.3197 70.0952,8.7075 73.1429,9.1429 75.3197,13.0612 76.6259,21.3333 75.7551,28.2993 72.7075,34.8299" stroke="#0010ff" stroke-width="2" /><polyline fill="none" points="33.9592,22.2041 23.9456,13.932 19.1565,12.6259 14.8027,13.4966 13.4966,16.9796 16.1088,26.9932 18.7211,31.7823 23.5102,36.5714" stroke="#00a4ff" stroke-width="2" /><polyline fill="none" points="42.6667,47.4558 56.5986,47.0204 51.3741,54.8571 41.3605,47.8912" stroke="#3fffb7" stroke-width="2" /><polyline fill="none" points="50.5034,55.7279 51.8095,65.3061 53.9864,68.7891 56.1633,69.2245" stroke="#b7ff3f" stroke-width="2" /><polyline fill="none" points="60.9524,29.6054 63.5646,40.9252" stroke="#ffb900" stroke-width="2" /><polyline fill="none" points="33.0884,31.7823 31.7823,35.7007 31.7823,43.9728" stroke="#ff3000" stroke-width="2" /><polyline fill="none" points="36.1361,70.966 34.8299,82.2857 26.9932,101.8776 23.0748,106.2313 20.898,106.2313 12.6259,100.1361 9.5782,110.1497 8.7075,119.2925" stroke="#7f0000" stroke-width="2" /></svg>