<?xml version="1.0" encoding="utf-8" ?>
<svg baseProfile="tiny" height="128" version="1.2" viewBox="0,0,128,128" width="128" xmlns="http://www.w3.org/2000/svg" xmlns:ev="http://www.w3.org/2001/xml-events" xmlns:xlink="http://www.w3.org/1999/xlink"><defs /><polyline fill="none" points="23.8644,36.8814 18.2237,13.0169 27.3356,17.3559 48.5966,31.2407 70.2915,32.9763 82.8746,8.678 88.0814,22.1288 93.2881,42.9559 91.1186,54.2373 84.6102,60.3119 66.8203,64.6508 59.878,64.6508 51.2,62.0475 36.8814,52.9356 22.1288,35.5797" stroke="#00007f" stroke-width="2" /><polyline fill="none" points="55.9729,51.6339 22.9966,55.9729 17.3559,58.5763" stroke="#0000ff" stroke-width="2" /><polyline fill="none" points="51.6339,51.6339 14.3186,49.8983 8.678,48.5966 10.8475,48.1627" stroke="#0080ff" stroke-width="2" /><polyline fill="none" points="54.6712,50.7661 26.9017,46.861 9.5458,42.522" stroke="#15ffe1" stroke-width="2" /><polyline fill="none" points="73.7627,49.4644 119.322,50.3322" stroke="#7cff79" stroke-width="2" /><polyline fill="none" points="79.4034,50.7661 89.3831,53.3695 114.9831,55.9729" stroke="#e4ff12" stroke-width="2" /><polyline fill="none" points="76.8,50.3322 105.4373,63.7831" stroke="#ff9400" stroke-width="2" /><polyline fill="none" points="44.2576,42.9559 37.3153,41.2203 36.0136,39.0508 36.8814,37.3153 45.1254,36.8814 52.5017,39.0508 53.3695,41.6542 50.3322,43.8237 40.7864,42.522 37.3153,41.2203 39.0508,40.3525" stroke="#ff1d00" stroke-width="2" /><polyline fill="none" points="88.9492,43.8237 82.8746,42.0881" stroke="#7f0000" stroke-width="2" /></svg>