<?xml version="1.0" encoding="utf-8" ?>
<svg baseProfile="tiny" height="128" version="1.2" viewBox="0,0,128,128" width="128" xmlns="http://www.w3.org/2000/svg" xmlns:ev="http://www.w3.org/2001/xml-events" xmlns:xlink="http://www.w3.org/1999/xlink"><defs /><polyline fill="none" points="107.6068,16.0542 98.4949,22.1288 90.6847,32.9763 87.6475,47.2949 88.5153,49.8983 91.5525,52.0678 110.2102,48.5966 118.8881,42.9559 118.4542,34.7119 114.5492,26.4678 108.4746,19.0915 101.5322,14.3186" stroke="#00007f" stroke-width="2" /><polyline fill="none" points="88.9492,32.9763 88.5153,8.678 96.7593,22.5627" stroke="#00d4ff" stroke-width="2" /><polyline fill="none" points="106.739,19.0915 115.4169,11.2814 119.322,33.8441" stroke="#ffe500" stroke-width="2" /><polyline fill="none" points="12.1492,54.6712 9.1119,59.4441 8.678,68.122 11.2814,72.461 15.6203,74.6305 18.6576,74.1966 22.9966,71.5932 25.6,65.5186 25.1661,61.6136 22.5627,57.7085 19.0915,54.6712 16.922,54.6712" stroke="#7f0000" stroke-width="2" /></svg>