<?xml version="1.0" encoding="utf-8" ?>
<svg baseProfile="tiny" height="128" version="1.2" viewBox="0,0,128,128" width="128" xmlns="http://www.w3.org/2000/svg" xmlns:ev="http://www.w3.org/2001/xml-events" xmlns:xlink="http://www.w3.org/1999/xlink"><defs /><polyline fill="none" points="8.9199,29.8815 10.2578,18.2857 12.4878,11.5958 34.3415,29.4355 66.899,31.2195 74.9268,18.2857 86.9686,8.9199 90.5366,23.6376 90.9826,38.8014 94.5505,47.2753 94.5505,53.0732 90.0906,61.547 83.4007,69.1289 74.4808,75.8188 63.331,81.1707 48.6132,84.2927 34.7875,79.3868 19.6237,50.8432 15.6098,33.0035" stroke="#00007f" stroke-width="2" /><polyline fill="none" points="24.0836,43.2613 25.4216,42.3693 25.8676,40.1394 23.6376,39.2474 23.6376,41.4774 24.5296,40.1394 24.9756,41.4774" stroke="#0000e8" stroke-width="2" /><polyline fill="none" points="53.5192,39.6934 56.1951,45.0453 56.1951,42.8153 54.4111,39.6934 50.3972,47.2753 45.9373,53.0732" stroke="#0038ff" stroke-width="2" /><polyline fill="none" points="42.3693,46.8293 41.0314,53.0732 44.5993,46.8293 43.2613,45.0453 40.1394,45.0453" stroke="#0094ff" stroke-width="2" /><polyline fill="none" points="42.3693,50.8432 41.9233,59.7631 39.6934,60.2091 35.2334,56.6411" stroke="#0cf4ea" stroke-width="2" /><polyline fill="none" points="41.4774,50.8432 44.1533,56.6411 47.7213,58.8711 55.3031,58.4251 54.8571,54.4111 53.0732,53.9652" stroke="#56ffa0" stroke-width="2" /><polyline fill="none" points="41.4774,60.2091 43.2613,63.777 46.3833,64.669 50.3972,62.439 50.8432,57.5331" stroke="#a0ff56" stroke-width="2" /><polyline fill="none" points="63.331,52.6272 100.7944,34.3415" stroke="#eaff0c" stroke-width="2" /><polyline fill="none" points="73.1429,53.0732 82.9547,51.7352 119.0801,50.3972" stroke="#ffaa00" stroke-width="2" /><polyline fill="none" points="78.0488,62.885 94.9965,69.5749" stroke="#ff5500" stroke-width="2" /><polyline fill="none" points="31.2195,50.8432 24.5296,53.9652 8.9199,56.6411" stroke="#e80000" stroke-width="2" /><polyline fill="none" points="30.3275,57.5331 16.0557,63.331 23.1916,62.439" stroke="#7f0000" stroke-width="2" /></svg>