<?xml version="1.0" encoding="utf-8" ?>
<svg baseProfile="tiny" height="128" version="1.2" viewBox="0,0,128,128" width="128" xmlns="http://www.w3.org/2000/svg" xmlns:ev="http://www.w3.org/2001/xml-events" xmlns:xlink="http://www.w3.org/1999/xlink"><defs /><polyline fill="none" points="38.1831,50.3322 39.0508,47.2949 45.5593,43.8237 60.3119,41.2203 70.2915,41.2203 84.1763,47.2949 90.6847,54.6712 95.4576,65.5186 96.7593,84.1763 94.1559,96.3254 82.8746,111.5119 72.8949,116.7186 66.3864,118.4542 49.0305,119.322 43.3898,118.0203 27.7695,107.6068 19.5254,97.1932 14.3186,86.3458 13.0169,80.2712 13.0169,65.0847 18.2237,52.9356 25.6,44.6915 34.278,40.3525 40.3525,39.4847 41.2203,40.7864 40.3525,42.522" stroke="#00007f" stroke-width="2" /><polyline fill="none" points="43.8237,39.9186 41.2203,34.7119 27.7695,21.6949 17.7898,13.0169 8.678,8.678 9.5458,16.4881 18.6576,48.5966 21.261,48.1627" stroke="#0080ff" stroke-width="2" /><polyline fill="none" points="72.8949,44.2576 79.8373,31.6746 98.9288,8.678 97.6271,38.6169 95.0237,51.2" stroke="#7cff79" stroke-width="2" /><polyline fill="none" points="32.5424,59.878 35.1458,58.1424 39.9186,57.2746 47.2949,59.878 50.3322,64.6508 50.7661,68.5559 49.0305,70.2915 40.3525,73.7627 36.4475,73.7627 33.8441,71.5932 32.5424,62.4814 38.1831,55.539" stroke="#ff9400" stroke-width="2" /><polyline fill="none" points="68.122,62.4814 72.8949,58.5763 78.1017,58.1424 79.8373,65.0847 76.8,68.9898 72.461,70.7254 66.8203,69.8576 65.5186,65.9525 66.3864,59.878" stroke="#7f0000" stroke-width="2" /></svg>