<?xml version="1.0" encoding="utf-8" ?>
<svg baseProfile="tiny" height="128" version="1.2" viewBox="0,0,128,128" width="128" xmlns="http://www.w3.org/2000/svg" xmlns:ev="http://www.w3.org/2001/xml-events" xmlns:xlink="http://www.w3.org/1999/xlink"><defs /><polyline fill="none" points="70.7254,46.4271 57.7085,42.0881 45.1254,42.9559 28.2034,50.3322 17.7898,60.3119 10.8475,72.461 8.678,84.6102 12.1492,95.4576 19.9593,105.4373 32.1085,114.1153 43.8237,118.4542 49.8983,119.322 66.8203,117.5864 73.7627,114.9831 80.2712,109.7763 85.478,101.0983 88.5153,92.4203 89.8169,72.461 85.478,60.3119 81.139,54.6712 65.5186,42.0881" stroke="#00007f" stroke-width="2" /><polyline fill="none" points="21.261,59.4441 16.0542,32.1085 13.8847,9.9797 16.0542,8.678 18.6576,10.4136 45.1254,42.0881" stroke="#0028ff" stroke-width="2" /><polyline fill="none" points="72.461,48.1627 77.2339,39.4847 84.6102,31.2407 111.078,9.1119 111.5119,11.2814 88.9492,61.1797" stroke="#00d4ff" stroke-width="2" /><polyline fill="none" points="32.1085,69.4237 30.8068,71.5932 32.9763,72.0271 36.4475,69.4237 35.1458,68.5559" stroke="#7cff79" stroke-width="2" /><polyline fill="none" points="58.5763,66.3864 55.9729,70.2915 60.3119,68.122 59.0102,66.3864" stroke="#ffe500" stroke-width="2" /><polyline fill="none" points="43.8237,93.2881 55.9729,91.1186" stroke="#ff4600" stroke-width="2" /><polyline fill="none" points="42.522,98.061 47.2949,100.2305 54.6712,91.1186" stroke="#7f0000" stroke-width="2" /></svg>