<?xml version="1.0" encoding="utf-8" ?>
<svg baseProfile="tiny" height="128" version="1.2" viewBox="0,0,128,128" width="128" xmlns="http://www.w3.org/2000/svg" xmlns:ev="http://www.w3.org/2001/xml-events" xmlns:xlink="http://www.w3.org/1999/xlink"><defs /><polyline fill="none" points="47.4558,31.7823 37.0068,30.0408 26.5578,34.8299 20.898,33.5238 16.9796,29.1701 20.4626,20.4626 24.8163,16.5442 31.3469,14.8027 33.9592,15.6735 34.3946,13.0612 32.6531,10.449 28.7347,9.1429 21.7687,8.7075 13.932,11.3197 9.1429,21.3333 8.7075,27.4286 17.415,35.7007 22.6395,38.7483 27.8639,51.3741 30.9116,43.102 33.9592,49.1973 36.1361,50.068 37.8776,47.4558 37.0068,42.2313 41.7959,50.9388 44.4082,44.8435 43.9728,41.3605 46.1497,42.6667 49.1973,49.1973 51.8095,40.9252 64.4354,34.8299 64.4354,31.7823 61.3878,30.4762 54.4218,30.0408 46.585,31.7823" stroke="#00007f" stroke-width="2" /><polyline fill="none" points="53.551,28.7347 53.9864,23.0748 55.7279,21.7687 57.9048,28.7347" stroke="#0000de" stroke-width="2" /><polyline fill="none" points="63.5646,28.2993 66.1769,21.3333 70.0952,24.381 70.5306,27.4286 66.1769,31.7823" stroke="#0028ff" stroke-width="2" /><polyline fill="none" points="53.551,35.2653 60.0816,35.7007" stroke="#0080ff" stroke-width="2" /><polyline fill="none" points="57.034,32.6531 59.2109,32.6531" stroke="#00d4ff" stroke-width="2" /><polyline fill="none" points="61.8231,32.6531 62.6939,33.5238" stroke="#36ffc0" stroke-width="2" /><polyline fill="none" points="57.4694,33.0884 57.4694,33.5238" stroke="#7cff79" stroke-width="2" /><polyline fill="none" points="59.6463,33.5238 59.2109,33.9592" stroke="#c0ff36" stroke-width="2" /><polyline fill="none" points="54.4218,33.0884 59.2109,34.3946" stroke="#ffe500" stroke-width="2" /><polyline fill="none" points="55.7279,34.3946 59.2109,34.8299" stroke="#ff9400" stroke-width="2" /><polyline fill="none" points="81.415,31.7823 80.1088,27.8639 80.9796,23.9456 89.2517,29.6054 93.1701,23.9456 95.7823,27.8639 100.1361,25.6871 104.0544,30.0408 107.102,23.5102 107.5374,26.9932 108.8435,27.8639" stroke="#ff4600" stroke-width="2" /><polyline fill="none" points="108.8435,16.5442 110.1497,21.7687" stroke="#de0000" stroke-width="2" /><polyline fill="none" points="118.4218,29.1701 119.2925,23.9456" stroke="#7f0000" stroke-width="2" /></svg>