<?xml version="1.0" encoding="utf-8" ?>
<svg baseProfile="tiny" height="128" version="1.2" viewBox="0,0,128,128" width="128" xmlns="http://www.w3.org/2000/svg" xmlns:ev="http://www.w3.org/2001/xml-events" xmlns:xlink="http://www.w3.org/1999/xlink"><defs /><polyline fill="none" points="13.4508,51.6339 14.7525,65.0847 22.1288,75.4983 28.6373,80.7051 37.3153,84.6102 57.7085,87.6475 76.3661,87.6475 84.1763,85.9119 95.0237,80.2712 101.5322,70.7254 105.4373,56.4068 105.4373,42.522 103.2678,36.0136 99.7966,29.0712 91.9864,22.5627 75.9322,16.4881 62.4814,14.7525 46.4271,14.7525 36.4475,17.3559 29.5051,20.8271 15.6203,32.1085 11.7153,39.4847 13.0169,59.878" stroke="#00007f" stroke-width="2" /><polyline fill="none" points="28.6373,60.3119 24.7322,61.1797 9.5458,74.1966 8.678,76.3661" stroke="#0000d1" stroke-width="2" /><polyline fill="none" points="39.4847,68.9898 36.8814,75.4983 25.1661,85.9119" stroke="#0010ff" stroke-width="2" /><polyline fill="none" points="53.8034,77.2339 48.5966,95.0237" stroke="#0058ff" stroke-width="2" /><polyline fill="none" points="91.9864,54.6712 114.5492,57.2746" stroke="#00a4ff" stroke-width="2" /><polyline fill="none" points="79.8373,68.9898 84.1763,70.7254 119.322,75.4983" stroke="#05ecf1" stroke-width="2" /><polyline fill="none" points="83.3085,81.5729 105.4373,84.6102" stroke="#3fffb7" stroke-width="2" /><polyline fill="none" points="54.2373,59.0102 54.2373,57.2746" stroke="#7cff79" stroke-width="2" /><polyline fill="none" points="66.3864,54.2373 66.3864,54.6712" stroke="#b7ff3f" stroke-width="2" /><polyline fill="none" points="24.2983,42.0881 24.2983,39.0508 29.939,33.4102 43.8237,31.2407" stroke="#f1fc05" stroke-width="2" /><polyline fill="none" points="31.6746,38.6169 34.7119,37.7492 37.3153,40.7864 34.278,43.3898 31.6746,40.3525 33.4102,39.0508" stroke="#ffb900" stroke-width="2" /><polyline fill="none" points="67.2542,32.9763 86.7797,34.7119 89.3831,37.7492" stroke="#ff7300" stroke-width="2" /><polyline fill="none" points="72.461,40.3525 74.1966,37.3153 73.3288,37.3153" stroke="#ff3000" stroke-width="2" /><polyline fill="none" points="9.1119,38.6169 9.9797,10.4136 13.4508,8.678 25.6,9.9797 42.0881,17.3559" stroke="#d10000" stroke-width="2" /><polyline fill="none" points="85.478,17.7898 91.9864,13.0169 99.3627,9.9797 101.5322,13.4508 101.0983,28.6373" stroke="#7f0000" stroke-width="2" /></svg>