<?xml version="1.0" encoding="utf-8" ?>
<svg baseProfile="tiny" height="128" version="1.2" viewBox="0,0,128,128" width="128" xmlns="http://www.w3.org/2000/svg" xmlns:ev="http://www.w3.org/2001/xml-events" xmlns:xlink="http://www.w3.org/1999/xlink"><defs /><polyline fill="none" points="19.5254,29.939 15.6203,29.0712 13.0169,33.4102 10.8475,45.1254 12.5831,55.539 15.1864,56.8407 21.261,54.6712 31.6746,45.5593 33.8441,41.2203 33.8441,36.0136 31.2407,34.278 20.8271,31.2407" stroke="#00007f" stroke-width="2" /><polyline fill="none" points="15.1864,27.7695 19.9593,16.922 26.4678,8.678 26.9017,17.3559 22.9966,31.6746" stroke="#0000e8" stroke-width="2" /><polyline fill="none" points="27.3356,31.6746 33.8441,24.7322 42.522,11.7153 39.9186,22.1288 34.278,34.7119" stroke="#0038ff" stroke-width="2" /><polyline fill="none" points="33.4102,41.2203 47.2949,34.278 53.8034,32.5424 66.3864,31.6746 92.8542,32.1085 96.3254,34.7119 95.8915,41.2203 92.8542,49.0305 87.6475,55.539 82.0068,59.878 77.2339,61.6136 55.1051,61.6136 27.3356,46.4271" stroke="#0094ff" stroke-width="2" /><polyline fill="none" points="52.9356,57.7085 50.7661,72.8949 55.9729,69.4237" stroke="#0cf4ea" stroke-width="2" /><polyline fill="none" points="63.3492,64.6508 63.3492,68.9898 64.6508,69.4237" stroke="#56ffa0" stroke-width="2" /><polyline fill="none" points="74.6305,59.878 75.9322,68.5559 78.1017,67.6881" stroke="#a0ff56" stroke-width="2" /><polyline fill="none" points="82.0068,60.3119 82.0068,68.9898" stroke="#eaff0c" stroke-width="2" /><polyline fill="none" points="18.2237,42.0881 18.2237,42.0881" stroke="#ffaa00" stroke-width="2" /><polyline fill="none" points="13.8847,42.522 8.678,48.1627 17.7898,41.6542" stroke="#ff5500" stroke-width="2" /><polyline fill="none" points="25.6,44.2576 25.1661,47.2949 24.7322,45.5593" stroke="#e80000" stroke-width="2" /><polyline fill="none" points="97.6271,30.8068 105.0034,23.4305 108.9085,21.6949 114.1153,23.4305 114.5492,45.9932 119.322,65.0847 116.2847,70.7254 114.1153,71.5932 112.8136,69.8576 113.2475,50.7661 107.1729,36.8814 103.2678,34.278 101.0983,34.7119 98.061,39.0508" stroke="#7f0000" stroke-width="2" /></svg>