<?xml version="1.0" encoding="utf-8" ?>
<svg baseProfile="tiny" height="128" version="1.2" viewBox="0,0,128,128" width="128" xmlns="http://www.w3.org/2000/svg" xmlns:ev="http://www.w3.org/2001/xml-events" xmlns:xlink="http://www.w3.org/1999/xlink"><defs /><polyline fill="none" points="47.7288,106.739 39.0508,106.739 26.4678,103.7017 21.261,100.6644 16.4881,89.3831 15.1864,80.2712 16.0542,65.9525 27.7695,55.1051 47.7288,44.2576 62.0475,40.7864 84.6102,41.6542 89.3831,43.3898 93.2881,46.4271 93.2881,67.6881 90.2508,75.4983 76.8,91.9864 70.7254,104.1356 62.9153,112.8136 63.7831,109.7763" stroke="#00007f" stroke-width="2" /><polyline fill="none" points="46.4271,105.0034 47.7288,110.6441 50.3322,112.3797" stroke="#0000e8" stroke-width="2" /><polyline fill="none" points="56.4068,80.2712 68.5559,77.6678 81.5729,77.6678 90.2508,82.4407" stroke="#0038ff" stroke-width="2" /><polyline fill="none" points="57.2746,95.0237 70.7254,94.1559 93.2881,105.8712" stroke="#0094ff" stroke-width="2" /><polyline fill="none" points="65.0847,112.3797 80.7051,115.4169 91.9864,119.322" stroke="#0cf4ea" stroke-width="2" /><polyline fill="none" points="51.2,82.4407 47.2949,81.5729 43.3898,85.0441 43.3898,89.3831 47.7288,91.1186 56.4068,91.1186 58.5763,87.2136 59.0102,83.3085" stroke="#56ffa0" stroke-width="2" /><polyline fill="none" points="37.7492,92.8542 23.4305,98.9288 16.4881,106.739" stroke="#a0ff56" stroke-width="2" /><polyline fill="none" points="36.0136,84.6102 14.3186,89.3831 8.678,91.9864" stroke="#eaff0c" stroke-width="2" /><polyline fill="none" points="28.2034,80.7051 23.4305,83.3085 14.3186,83.3085" stroke="#ffaa00" stroke-width="2" /><polyline fill="none" points="67.6881,61.1797 65.9525,57.2746 66.8203,51.6339" stroke="#ff5500" stroke-width="2" /><polyline fill="none" points="33.8441,65.0847 31.6746,59.4441 32.9763,55.1051 36.8814,50.3322" stroke="#e80000" stroke-width="2" /><polyline fill="none" points="72.0271,36.8814 72.8949,17.3559 78.5356,11.7153 89.3831,8.678 95.8915,8.678 99.7966,10.4136 102.8339,14.7525" stroke="#7f0000" stroke-width="2" /></svg>