<?xml version="1.0" encoding="utf-8" ?>
<svg baseProfile="tiny" height="128" version="1.2" viewBox="0,0,128,128" width="128" xmlns="http://www.w3.org/2000/svg" xmlns:ev="http://www.w3.org/2001/xml-events" xmlns:xlink="http://www.w3.org/1999/xlink"><defs /><polyline fill="none" points="22.5627,30.8068 22.9966,14.7525 24.2983,8.678 28.2034,9.9797 46.861,27.7695 69.4237,25.6 78.5356,27.3356 85.0441,30.8068 96.7593,13.0169 99.7966,11.2814 103.2678,24.7322 102.4,35.1458 89.8169,67.6881 83.7424,76.3661 77.6678,80.7051 65.9525,81.5729 52.9356,78.1017 32.9763,54.2373 24.2983,34.7119" stroke="#00007f" stroke-width="2" /><polyline fill="none" points="69.8576,49.0305 112.3797,37.3153" stroke="#004cff" stroke-width="2" /><polyline fill="none" points="70.7254,54.2373 91.1186,56.8407 114.5492,54.2373" stroke="#29ffcd" stroke-width="2" /><polyline fill="none" points="70.7254,63.7831 82.8746,66.8203 107.1729,76.8 119.322,80.2712" stroke="#cdff29" stroke-width="2" /><polyline fill="none" points="51.2,52.5017 23.4305,50.7661 8.678,53.8034" stroke="#ff6700" stroke-width="2" /><polyline fill="none" points="49.0305,63.7831 29.939,69.8576 22.9966,73.7627 16.922,79.4034" stroke="#7f0000" stroke-width="2" /></svg>