<?xml version="1.0" encoding="utf-8" ?>
<svg baseProfile="tiny" height="128" version="1.2" viewBox="0,0,128,128" width="128" xmlns="http://www.w3.org/2000/svg" xmlns:ev="http://www.w3.org/2001/xml-events" xmlns:xlink="http://www.w3.org/1999/xlink"><defs /><polyline fill="none" points="32.5424,32.5424 23.8644,36.4475 13.4508,49.0305 9.9797,58.1424 9.9797,70.2915 15.6203,76.8 24.7322,80.7051 29.939,81.5729 39.4847,82.0068 48.5966,78.9695 57.2746,74.1966 65.5186,65.5186 67.2542,57.7085 65.5186,49.4644 60.3119,42.9559 52.9356,37.7492 40.3525,33.8441 29.5051,34.278" stroke="#00007f" stroke-width="2" /><polyline fill="none" points="11.7153,42.522 11.7153,32.5424 15.6203,21.261 19.5254,16.0542 22.9966,17.7898 24.7322,21.6949 30.3729,35.5797" stroke="#00d4ff" stroke-width="2" /><polyline fill="none" points="46.4271,37.7492 63.7831,8.678 61.6136,43.3898" stroke="#ffe500" stroke-width="2" /><polyline fill="none" points="28.2034,80.7051 17.3559,80.2712 13.4508,83.3085 9.1119,95.4576 8.678,102.8339 10.4136,106.739 14.7525,110.2102 28.2034,117.5864 43.8237,119.322 68.122,118.4542 78.1017,114.1153 85.478,108.4746 89.8169,102.8339 88.9492,93.2881 85.9119,89.8169 80.7051,86.7797 59.4441,83.7424 38.1831,83.7424" stroke="#7f0000" stroke-width="2" /></svg>