<?xml version="1.0" encoding="utf-8" ?>
<svg baseProfile="tiny" height="128" version="1.2" viewBox="0,0,128,128" width="128" xmlns="http://www.w3.org/2000/svg" xmlns:ev="http://www.w3.org/2001/xml-events" xmlns:xlink="http://www.w3.org/1999/xlink"><defs /><polyline fill="none" points="82.0068,52.5017 63.3492,44.6915 40.7864,42.522 32.5424,54.2373 23.8644,76.8 23.4305,94.5898 26.9017,101.5322 32.5424,108.9085 41.2203,114.1153 52.0678,117.5864 64.2169,119.322 75.0644,119.322 85.0441,115.8508 98.9288,101.9661 101.9661,92.8542 101.5322,74.6305 96.7593,66.3864 89.3831,59.878 79.8373,54.2373 69.4237,51.6339 57.7085,51.2 47.7288,52.9356" stroke="#00007f" stroke-width="2" /><polyline fill="none" points="24.7322,77.6678 22.1288,75.9322 18.6576,67.2542 8.678,27.3356 20.3932,37.7492 39.4847,59.878" stroke="#0010ff" stroke-width="2" /><polyline fill="none" points="74.1966,57.7085 72.461,54.6712 78.5356,39.9186 95.8915,8.678 97.1932,11.2814 98.4949,22.5627 96.7593,67.6881" stroke="#00a4ff" stroke-width="2" /><polyline fill="none" points="52.0678,75.4983 52.0678,75.4983" stroke="#3fffb7" stroke-width="2" /><polyline fill="none" points="71.5932,76.3661 71.5932,76.3661" stroke="#b7ff3f" stroke-width="2" /><polyline fill="none" points="39.0508,75.9322 39.4847,78.5356 42.0881,79.8373 45.1254,77.2339 45.1254,71.1593 42.0881,71.1593 41.2203,74.1966" stroke="#ffb900" stroke-width="2" /><polyline fill="none" points="70.2915,72.8949 66.8203,74.6305 66.8203,77.6678 69.8576,78.1017 70.2915,76.3661" stroke="#ff3000" stroke-width="2" /><polyline fill="none" points="54.6712,86.3458 54.6712,101.0983 57.2746,111.5119 46.4271,112.3797 40.7864,108.4746" stroke="#7f0000" stroke-width="2" /></svg>