<?xml version="1.0" encoding="utf-8" ?>
<svg baseProfile="tiny" height="128" version="1.2" viewBox="0,0,128,128" width="128" xmlns="http://www.w3.org/2000/svg" xmlns:ev="http://www.w3.org/2001/xml-events" xmlns:xlink="http://www.w3.org/1999/xlink"><defs /><polyline fill="none" points="65.9525,32.1085 59.878,26.0339 59.878,16.922 57.7085,8.678 64.2169,15.6203 76.3661,16.0542 80.7051,11.2814 79.8373,16.922 82.8746,23.4305 82.4407,26.9017 75.0644,31.6746 65.0847,32.5424" stroke="#00007f" stroke-width="2" /><polyline fill="none" points="70.2915,25.1661 49.8983,18.6576 37.3153,18.6576 29.5051,20.8271 8.678,30.8068" stroke="#0028ff" stroke-width="2" /><polyline fill="none" points="64.2169,28.6373 52.9356,27.7695 39.9186,33.4102" stroke="#00d4ff" stroke-width="2" /><polyline fill="none" points="68.9898,30.8068 61.1797,32.9763 54.6712,38.1831" stroke="#7cff79" stroke-width="2" /><polyline fill="none" points="75.4983,21.6949 86.3458,19.0915 95.8915,19.0915 105.4373,22.1288" stroke="#ffe500" stroke-width="2" /><polyline fill="none" points="72.8949,24.2983 96.7593,26.9017 119.322,38.1831" stroke="#ff4600" stroke-width="2" /><polyline fill="none" points="77.6678,27.3356 77.6678,27.3356" stroke="#7f0000" stroke-width="2" /></svg>