<?xml version="1.0" encoding="utf-8" ?>
<svg baseProfile="tiny" height="128" version="1.2" viewBox="0,0,128,128" width="128" xmlns="http://www.w3.org/2000/svg" xmlns:ev="http://www.w3.org/2001/xml-events" xmlns:xlink="http://www.w3.org/1999/xlink"><defs /><polyline fill="none" points="19.9593,26.4678 13.8847,16.0542 12.1492,20.3932" stroke="#00007f" stroke-width="2" /><polyline fill="none" points="9.1119,30.3729 16.922,20.3932 22.9966,8.678 23.4305,21.261 28.2034,34.278" stroke="#0010ff" stroke-width="2" /><polyline fill="none" points="29.0712,36.4475 48.5966,36.4475 56.8407,38.6169 61.1797,41.6542 75.4983,9.5458 77.6678,12.1492 82.8746,41.2203 83.3085,85.478 77.6678,106.739 73.3288,114.5492 68.122,118.4542 59.4441,119.322 46.861,117.5864 32.5424,114.1153 22.1288,109.7763 18.6576,106.739 13.0169,97.6271 9.5458,87.6475 8.678,80.2712 11.7153,46.861 13.4508,38.6169 17.7898,29.939" stroke="#00a4ff" stroke-width="2" /><polyline fill="none" points="27.7695,55.1051 42.0881,58.1424" stroke="#3fffb7" stroke-width="2" /><polyline fill="none" points="59.0102,60.7458 59.0102,60.7458" stroke="#b7ff3f" stroke-width="2" /><polyline fill="none" points="57.2746,61.6136 68.122,64.2169" stroke="#ffb900" stroke-width="2" /><polyline fill="none" points="25.6,74.6305 26.9017,80.7051 30.8068,86.7797 38.1831,94.1559 46.4271,98.4949 51.2,99.7966 59.0102,98.4949 68.122,93.722 68.5559,91.5525" stroke="#ff3000" stroke-width="2" /><polyline fill="none" points="49.0305,75.0644 50.3322,79.4034 49.4644,84.6102" stroke="#7f0000" stroke-width="2" /></svg>