<?xml version="1.0" encoding="utf-8" ?>
<svg baseProfile="tiny" height="128" version="1.2" viewBox="0,0,128,128" width="128" xmlns="http://www.w3.org/2000/svg" xmlns:ev="http://www.w3.org/2001/xml-events" xmlns:xlink="http://www.w3.org/1999/xlink"><defs /><polyline fill="none" points="37.0068,37.8776 33.0884,38.3129 25.6871,45.2789 13.932,62.6939 11.3197,70.5306 10.449,78.8027 10.449,87.5102 12.6259,96.2177 15.6735,102.7483 20.4626,108.4082 31.3469,114.9388 50.5034,119.2925 67.9184,118.8571 73.5782,117.551 83.1565,111.8912 94.4762,97.9592 99.7007,82.7211 99.7007,68.3537 98.3946,63.1293 94.4762,54.8571 84.4626,43.9728 76.6259,38.3129 64.8707,33.0884 57.4694,31.7823 49.6327,32.6531 32.6531,38.7483" stroke="#00007f" stroke-width="2" /><polyline fill="none" points="34.3946,38.7483 26.5578,24.381 15.2381,8.7075 8.7075,60.517" stroke="#0028ff" stroke-width="2" /><polyline fill="none" points="77.4966,34.8299 102.7483,11.3197 104.9252,10.8844 105.7959,24.8163 101.4422,54.4218" stroke="#00d4ff" stroke-width="2" /><polyline fill="none" points="94.4762,32.6531 83.5918,43.5374" stroke="#7cff79" stroke-width="2" /><polyline fill="none" points="97.9592,33.0884 92.7347,49.6327" stroke="#ffe500" stroke-width="2" /><polyline fill="none" points="20.4626,30.9116 21.3333,48.7619" stroke="#ff4600" stroke-width="2" /><polyline fill="none" points="23.9456,28.7347 32.2177,38.3129" stroke="#7f0000" stroke-width="2" /></svg>