<?xml version="1.0" encoding="utf-8" ?>
<svg baseProfile="tiny" height="128" version="1.2" viewBox="0,0,128,128" width="128" xmlns="http://www.w3.org/2000/svg" xmlns:ev="http://www.w3.org/2001/xml-events" xmlns:xlink="http://www.w3.org/1999/xlink"><defs /><polyline fill="none" points="74.6305,34.278 65.9525,29.0712 61.6136,27.7695 54.6712,27.7695 49.0305,30.3729 43.3898,38.1831 41.2203,45.5593 40.3525,68.122 42.9559,76.8 46.4271,82.0068 50.3322,85.9119 54.6712,87.6475 65.9525,84.1763 83.7424,69.4237 91.5525,54.6712 92.8542,50.3322 92.8542,39.9186 87.6475,29.939 81.5729,22.9966 75.0644,19.5254 73.3288,19.5254 72.8949,21.261" stroke="#00007f" stroke-width="2" /><polyline fill="none" points="55.9729,26.9017 56.4068,22.1288 62.0475,9.9797 63.7831,12.1492 72.8949,34.278 74.6305,33.4102 76.8,26.4678 82.8746,18.2237 93.2881,8.678 94.5898,13.8847 92.4203,44.2576" stroke="#0000ff" stroke-width="2" /><polyline fill="none" points="63.7831,55.1051 63.7831,57.2746 64.6508,55.9729" stroke="#0080ff" stroke-width="2" /><polyline fill="none" points="65.5186,55.1051 76.3661,57.2746 89.3831,57.7085 105.8712,54.6712 119.322,49.4644" stroke="#15ffe1" stroke-width="2" /><polyline fill="none" points="69.8576,57.7085 25.6,39.9186" stroke="#7cff79" stroke-width="2" /><polyline fill="none" points="60.3119,54.6712 23.8644,66.3864 9.5458,72.461 9.5458,73.7627" stroke="#e4ff12" stroke-width="2" /><polyline fill="none" points="63.3492,59.0102 70.2915,62.0475 89.8169,76.8 106.3051,85.478" stroke="#ff9400" stroke-width="2" /><polyline fill="none" points="73.3288,61.1797 77.6678,65.0847 88.0814,69.8576 107.6068,73.3288" stroke="#ff1d00" stroke-width="2" /><polyline fill="none" points="64.6508,55.1051 54.2373,52.9356 8.678,51.2" stroke="#7f0000" stroke-width="2" /></svg>