<?xml version="1.0" encoding="utf-8" ?>
<svg baseProfile="tiny" height="128" version="1.2" viewBox="0,0,128,128" width="128" xmlns="http://www.w3.org/2000/svg" xmlns:ev="http://www.w3.org/2001/xml-events" xmlns:xlink="http://www.w3.org/1999/xlink"><defs /><polyline fill="none" points="28.2034,22.5627 26.9017,31.6746" stroke="#00007f" stroke-width="2" /><polyline fill="none" points="27.3356,24.7322 27.3356,37.3153" stroke="#0000c8" stroke-width="2" /><polyline fill="none" points="26.9017,34.7119 29.939,43.8237" stroke="#0000ff" stroke-width="2" /><polyline fill="none" points="28.6373,40.7864 32.9763,45.5593 38.6169,47.7288 43.3898,47.7288 52.5017,42.522 67.2542,19.5254 69.8576,11.7153 67.6881,9.9797 62.9153,10.4136 52.5017,16.922 41.2203,15.1864 34.278,16.4881 22.5627,8.678 22.5627,15.6203 26.0339,20.3932 28.2034,27.3356" stroke="#0040ff" stroke-width="2" /><polyline fill="none" points="47.2949,29.0712 46.4271,33.8441" stroke="#0080ff" stroke-width="2" /><polyline fill="none" points="34.278,29.0712 34.278,33.4102" stroke="#00c0ff" stroke-width="2" /><polyline fill="none" points="37.3153,36.0136 36.4475,39.4847 38.6169,39.4847 39.9186,37.3153 41.2203,40.3525 42.9559,35.1458" stroke="#15ffe1" stroke-width="2" /><polyline fill="none" points="52.5017,39.9186 63.7831,37.7492 81.5729,41.6542 88.9492,44.6915" stroke="#49ffad" stroke-width="2" /><polyline fill="none" points="43.3898,46.861 40.7864,54.2373 42.0881,61.1797 44.6915,62.9153 47.7288,61.6136 52.5017,54.6712 53.8034,65.5186 55.539,68.122 58.1424,69.8576 66.3864,62.9153 74.1966,50.7661 73.7627,59.0102 75.9322,63.3492 81.5729,64.6508 88.0814,62.0475 91.1186,59.4441 92.4203,54.6712 90.2508,44.6915" stroke="#7cff79" stroke-width="2" /><polyline fill="none" points="87.2136,43.8237 95.8915,39.9186 108.4746,37.7492 111.5119,23.4305 115.8508,14.7525" stroke="#b0ff46" stroke-width="2" /><polyline fill="none" points="87.6475,49.8983 100.6644,46.4271 106.739,42.522 109.3424,39.0508 113.2475,29.939 113.6814,17.3559 119.322,13.8847 114.9831,14.3186 112.8136,16.0542" stroke="#e4ff12" stroke-width="2" /><polyline fill="none" points="46.861,35.1458 60.7458,29.5051 72.461,26.4678" stroke="#ffcf00" stroke-width="2" /><polyline fill="none" points="47.7288,36.0136 51.6339,36.0136 63.7831,42.522 68.122,42.9559" stroke="#ff9400" stroke-width="2" /><polyline fill="none" points="51.6339,38.6169 64.2169,49.0305 66.3864,53.8034" stroke="#ff5900" stroke-width="2" /><polyline fill="none" points="30.3729,34.278 8.678,29.939" stroke="#ff1d00" stroke-width="2" /><polyline fill="none" points="31.6746,38.1831 17.7898,39.4847 10.4136,42.522" stroke="#c30000" stroke-width="2" /><polyline fill="none" points="31.6746,42.0881 31.6746,43.3898 22.1288,50.7661 18.2237,57.2746" stroke="#7f0000" stroke-width="2" /></svg>