<?xml version="1.0" encoding="utf-8" ?>
<svg baseProfile="tiny" height="128" version="1.2" viewBox="0,0,128,128" width="128" xmlns="http://www.w3.org/2000/svg" xmlns:ev="http://www.w3.org/2001/xml-events" xmlns:xlink="http://www.w3.org/1999/xlink"><defs /><polyline fill="none" points="29.939,41.6542 16.4881,55.539 15.6203,60.7458 16.922,63.3492 26.4678,72.461 36.0136,78.9695 49.0305,85.478 59.4441,88.0814 71.5932,87.6475 80.2712,85.478 91.5525,78.9695 96.7593,72.0271 98.061,63.7831 96.3254,54.2373 88.0814,48.1627 96.3254,28.6373 97.1932,18.6576 94.5898,18.2237 75.0644,31.2407 60.3119,29.0712 49.0305,30.3729 43.8237,22.9966 26.4678,8.678 23.8644,11.2814 22.9966,14.7525 22.5627,26.0339 27.3356,37.7492 31.6746,41.6542" stroke="#00007f" stroke-width="2" /><polyline fill="none" points="8.678,65.5186 38.6169,51.2" stroke="#0000ff" stroke-width="2" /><polyline fill="none" points="15.6203,81.5729 36.4475,65.9525" stroke="#0080ff" stroke-width="2" /><polyline fill="none" points="29.939,94.1559 37.7492,79.8373" stroke="#15ffe1" stroke-width="2" /><polyline fill="none" points="83.3085,61.6136 96.3254,56.8407 119.322,53.8034" stroke="#7cff79" stroke-width="2" /><polyline fill="none" points="84.6102,73.7627 107.1729,80.7051 114.9831,84.6102" stroke="#e4ff12" stroke-width="2" /><polyline fill="none" points="76.8,82.4407 94.5898,95.4576" stroke="#ff9400" stroke-width="2" /><polyline fill="none" points="53.8034,59.4441 65.5186,61.1797 66.8203,66.8203 63.7831,70.2915 60.7458,68.9898 55.9729,62.0475" stroke="#ff1d00" stroke-width="2" /><polyline fill="none" points="60.7458,68.9898 60.7458,68.9898" stroke="#7f0000" stroke-width="2" /></svg>