<?xml version="1.0" encoding="utf-8" ?>
<svg baseProfile="tiny" height="128" version="1.2" viewBox="0,0,128,128" width="128" xmlns="http://www.w3.org/2000/svg" xmlns:ev="http://www.w3.org/2001/xml-events" xmlns:xlink="http://www.w3.org/1999/xlink"><defs /><polyline fill="none" points="9.9797,119.322 8.678,106.3051 9.9797,92.4203 16.4881,68.9898 22.5627,58.1424" stroke="#00007f" stroke-width="2" /><polyline fill="none" points="66.3864,55.1051 73.7627,72.461 78.1017,88.5153 79.8373,100.2305 76.8,114.9831" stroke="#0000f1" stroke-width="2" /><polyline fill="none" points="39.0508,29.939 42.9559,34.7119 44.6915,34.7119 46.4271,31.2407 40.3525,29.939" stroke="#004cff" stroke-width="2" /><polyline fill="none" points="25.6,8.678 24.7322,13.4508 26.9017,16.4881 30.3729,16.922 33.4102,13.8847 29.939,10.8475" stroke="#00b0ff" stroke-width="2" /><polyline fill="none" points="55.9729,11.7153 51.2,11.7153 49.8983,14.3186 51.6339,16.922 53.8034,15.6203 54.2373,12.5831" stroke="#29ffcd" stroke-width="2" /><polyline fill="none" points="42.9559,38.1831 38.1831,48.5966 33.4102,52.0678 28.6373,52.5017" stroke="#7cff79" stroke-width="2" /><polyline fill="none" points="43.8237,36.4475 44.6915,41.6542 46.861,45.5593 51.2,46.4271 58.1424,41.6542" stroke="#cdff29" stroke-width="2" /><polyline fill="none" points="38.6169,29.0712 28.2034,28.6373" stroke="#ffc400" stroke-width="2" /><polyline fill="none" points="38.6169,31.2407 26.0339,32.9763" stroke="#ff6700" stroke-width="2" /><polyline fill="none" points="50.7661,27.7695 57.7085,24.2983" stroke="#f10700" stroke-width="2" /><polyline fill="none" points="48.1627,30.8068 58.1424,30.8068" stroke="#7f0000" stroke-width="2" /></svg>