<?xml version="1.0" encoding="utf-8" ?>
<svg baseProfile="tiny" height="128" version="1.2" viewBox="0,0,128,128" width="128" xmlns="http://www.w3.org/2000/svg" xmlns:ev="http://www.w3.org/2001/xml-events" xmlns:xlink="http://www.w3.org/1999/xlink"><defs /><polyline fill="none" points="96.7593,29.5051 92.8542,27.3356 85.478,27.3356 76.8,30.8068 72.8949,34.7119 67.2542,44.2576 67.2542,53.8034 69.4237,57.7085 74.1966,60.7458 80.2712,61.6136 94.1559,61.6136 105.4373,55.539 108.9085,50.7661 108.9085,44.2576 104.1356,29.5051 96.7593,21.6949 90.6847,21.261" stroke="#00007f" stroke-width="2" /><polyline fill="none" points="102.4,26.4678 108.0407,16.0542 108.4746,9.1119 106.739,8.678 104.1356,9.1119 101.5322,12.1492 94.1559,25.6" stroke="#0000d1" stroke-width="2" /><polyline fill="none" points="80.2712,26.0339 76.3661,13.0169 72.8949,9.1119 70.2915,8.678 69.4237,27.3356 73.3288,32.9763" stroke="#0010ff" stroke-width="2" /><polyline fill="none" points="80.7051,49.8983 87.2136,54.2373 93.722,49.4644" stroke="#0058ff" stroke-width="2" /><polyline fill="none" points="88.9492,52.0678 96.3254,58.5763 97.1932,52.0678 95.4576,49.4644 91.9864,48.1627" stroke="#00a4ff" stroke-width="2" /><polyline fill="none" points="83.7424,33.8441 78.9695,36.0136 79.4034,42.0881 81.5729,42.9559 86.7797,42.9559 88.9492,36.0136 88.0814,34.278" stroke="#05ecf1" stroke-width="2" /><polyline fill="none" points="98.4949,32.1085 93.722,32.5424 92.4203,36.0136 92.8542,39.9186 98.4949,40.3525 101.0983,35.1458" stroke="#3fffb7" stroke-width="2" /><polyline fill="none" points="104.1356,47.7288 105.0034,45.9932 108.9085,43.8237 117.5864,42.0881" stroke="#7cff79" stroke-width="2" /><polyline fill="none" points="101.9661,49.8983 109.7763,49.8983 119.322,52.5017" stroke="#b7ff3f" stroke-width="2" /><polyline fill="none" points="104.5695,56.4068 108.9085,60.3119 113.6814,62.0475" stroke="#f1fc05" stroke-width="2" /><polyline fill="none" points="73.3288,48.5966 69.8576,45.5593 57.2746,42.0881" stroke="#ffb900" stroke-width="2" /><polyline fill="none" points="74.1966,49.4644 69.8576,50.3322 59.878,56.4068" stroke="#ff7300" stroke-width="2" /><polyline fill="none" points="76.3661,56.4068 70.7254,58.5763 59.4441,68.122" stroke="#ff3000" stroke-width="2" /><polyline fill="none" points="68.9898,58.1424 55.1051,55.539 37.7492,54.6712 24.7322,58.1424 21.6949,60.3119 15.6203,69.8576 16.922,78.1017 21.6949,81.5729 33.4102,82.0068 39.4847,80.7051 82.8746,66.3864" stroke="#d10000" stroke-width="2" /><polyline fill="none" points="24.2983,60.7458 22.9966,57.2746 22.1288,44.6915 18.6576,36.8814 12.1492,35.5797 9.5458,39.0508 8.678,45.9932" stroke="#7f0000" stroke-width="2" /></svg>