<?xml version="1.0" encoding="utf-8" ?>
<svg baseProfile="tiny" height="128" version="1.2" viewBox="0,0,128,128" width="128" xmlns="http://www.w3.org/2000/svg" xmlns:ev="http://www.w3.org/2001/xml-events" xmlns:xlink="http://www.w3.org/1999/xlink"><defs /><polyline fill="none" points="60.7458,22.1288 86.3458,44.6915 93.2881,60.7458 92.8542,68.5559 87.6475,77.2339 81.139,80.2712 55.539,80.2712 41.6542,78.5356 37.3153,75.4983 33.4102,65.0847 32.9763,59.878 35.5797,48.1627 40.3525,39.4847 49.8983,29.939 54.6712,26.9017 67.6881,24.2983" stroke="#00007f" stroke-width="2" /><polyline fill="none" points="47.7288,32.9763 42.9559,20.8271 42.9559,11.7153 52.0678,24.2983 59.4441,32.1085" stroke="#0000fe" stroke-width="2" /><polyline fill="none" points="70.7254,29.5051 78.9695,20.3932 93.2881,8.678 86.7797,26.9017 82.4407,45.5593" stroke="#0060ff" stroke-width="2" /><polyline fill="none" points="55.539,43.8237 55.539,43.8237" stroke="#00d4ff" stroke-width="2" /><polyline fill="none" points="50.3322,42.9559 51.6339,41.6542 52.9356,42.9559 51.2,42.9559" stroke="#4cffaa" stroke-width="2" /><polyline fill="none" points="67.6881,44.2576 71.1593,45.1254 68.5559,45.9932" stroke="#aaff4c" stroke-width="2" /><polyline fill="none" points="59.4441,56.4068 66.8203,55.539 91.5525,56.8407 101.9661,55.9729 111.5119,49.8983 112.3797,47.2949 111.078,42.9559" stroke="#ffe500" stroke-width="2" /><polyline fill="none" points="60.3119,58.1424 101.5322,62.9153 117.1525,60.3119 119.322,54.6712" stroke="#ff7a00" stroke-width="2" /><polyline fill="none" points="59.4441,56.8407 48.5966,57.2746 40.7864,55.539 12.5831,39.4847" stroke="#fe1200" stroke-width="2" /><polyline fill="none" points="58.1424,59.4441 48.1627,62.0475 21.261,60.7458 10.8475,57.7085 8.678,52.9356" stroke="#7f0000" stroke-width="2" /></svg>