<?xml version="1.0" encoding="utf-8" ?>
<svg baseProfile="tiny" height="128" version="1.2" viewBox="0,0,128,128" width="128" xmlns="http://www.w3.org/2000/svg" xmlns:ev="http://www.w3.org/2001/xml-events" xmlns:xlink="http://www.w3.org/1999/xlink"><defs /><polyline fill="none" points="41.2203,45.1254 26.0339,45.5593 9.5458,54.6712 8.678,65.5186 9.9797,71.5932 11.2814,78.1017 16.4881,88.5153 23.8644,99.7966 38.6169,111.078 49.0305,116.7186 62.4814,119.322 77.6678,118.4542 81.5729,117.1525 91.5525,111.078 95.8915,103.7017 100.6644,75.0644 100.6644,65.0847 98.4949,59.0102 83.7424,50.7661 74.6305,48.5966 60.3119,46.4271 33.4102,45.9932 28.2034,46.861 24.2983,42.9559 19.0915,32.5424 11.7153,13.4508 9.9797,20.3932 9.1119,39.4847 12.1492,59.0102" stroke="#00007f" stroke-width="2" /><polyline fill="none" points="72.461,45.9932 72.461,47.7288 75.9322,43.3898 96.3254,8.678 96.3254,59.4441" stroke="#0028ff" stroke-width="2" /><polyline fill="none" points="33.8441,67.2542 32.9763,65.5186" stroke="#00d4ff" stroke-width="2" /><polyline fill="none" points="31.2407,62.4814 31.2407,62.4814" stroke="#7cff79" stroke-width="2" /><polyline fill="none" points="74.6305,74.1966 74.6305,74.1966" stroke="#ffe500" stroke-width="2" /><polyline fill="none" points="74.1966,73.7627 74.1966,73.7627" stroke="#ff4600" stroke-width="2" /><polyline fill="none" points="50.3322,81.5729 51.6339,85.478 62.4814,86.7797 62.4814,85.0441 59.4441,83.7424 50.3322,82.0068" stroke="#7f0000" stroke-width="2" /></svg>