<?xml version="1.0" encoding="utf-8" ?>
<svg baseProfile="tiny" height="128" version="1.2" viewBox="0,0,128,128" width="128" xmlns="http://www.w3.org/2000/svg" xmlns:ev="http://www.w3.org/2001/xml-events" xmlns:xlink="http://www.w3.org/1999/xlink"><defs /><polyline fill="none" points="17.7898,43.3898 16.0542,12.5831 24.2983,22.9966 32.1085,37.7492 34.278,38.1831 53.3695,31.2407 63.3492,29.5051 75.0644,29.5051 81.5729,34.278 89.3831,16.4881 94.5898,8.678 96.7593,9.1119 98.061,13.0169 99.7966,41.6542" stroke="#00007f" stroke-width="2" /><polyline fill="none" points="20.8271,48.1627 19.0915,50.3322 16.0542,68.5559 16.0542,84.1763 19.9593,94.1559 31.2407,102.8339 41.6542,108.0407 50.7661,109.7763 62.0475,109.7763 70.7254,106.3051 80.2712,98.9288 90.6847,82.8746 94.1559,69.8576 95.0237,42.0881" stroke="#0000f1" stroke-width="2" /><polyline fill="none" points="35.1458,65.0847 36.0136,62.4814 39.4847,60.7458 41.6542,60.7458 41.6542,62.0475" stroke="#004cff" stroke-width="2" /><polyline fill="none" points="78.9695,63.7831 78.9695,63.7831" stroke="#00b0ff" stroke-width="2" /><polyline fill="none" points="64.2169,63.3492 72.461,59.4441 82.4407,59.4441" stroke="#29ffcd" stroke-width="2" /><polyline fill="none" points="43.8237,83.7424 30.8068,81.5729 8.678,75.0644" stroke="#7cff79" stroke-width="2" /><polyline fill="none" points="35.5797,95.0237 12.5831,92.4203" stroke="#cdff29" stroke-width="2" /><polyline fill="none" points="55.539,108.9085 47.2949,111.078 40.3525,115.4169 38.1831,119.322" stroke="#ffc400" stroke-width="2" /><polyline fill="none" points="78.5356,87.2136 85.9119,83.3085 90.6847,82.4407 103.2678,73.7627" stroke="#ff6700" stroke-width="2" /><polyline fill="none" points="78.9695,91.1186 103.2678,92.4203" stroke="#f10700" stroke-width="2" /><polyline fill="none" points="67.2542,99.3627 72.461,100.2305 96.7593,109.7763 105.8712,115.8508" stroke="#7f0000" stroke-width="2" /></svg>