<?xml version="1.0" encoding="utf-8" ?>
<svg baseProfile="tiny" height="128" version="1.2" viewBox="0,0,128,128" width="128" xmlns="http://www.w3.org/2000/svg" xmlns:ev="http://www.w3.org/2001/xml-events" xmlns:xlink="http://www.w3.org/1999/xlink"><defs /><polyline fill="none" points="57.2746,64.2169 57.2746,64.2169" stroke="#00007f" stroke-width="2" /><polyline fill="none" points="15.6203,49.8983 15.1864,47.2949 16.922,44.2576 19.9593,43.3898 21.6949,45.1254 19.0915,50.3322 15.6203,52.0678 12.1492,52.0678 13.4508,31.6746" stroke="#0000de" stroke-width="2" /><polyline fill="none" points="32.1085,37.7492 29.0712,38.6169 28.2034,37.7492 31.2407,34.7119 32.1085,51.2 20.8271,47.7288" stroke="#0028ff" stroke-width="2" /><polyline fill="none" points="52.9356,35.5797 45.1254,36.4475 44.2576,32.5424 47.2949,31.6746 50.3322,32.5424 51.6339,41.2203 49.0305,49.4644 45.1254,51.2 41.6542,50.7661 45.9932,48.1627 54.2373,47.7288 59.4441,51.2 62.9153,33.8441" stroke="#0080ff" stroke-width="2" /><polyline fill="none" points="66.3864,42.0881 69.8576,39.9186 74.6305,40.3525 74.1966,44.2576 71.1593,49.4644" stroke="#00d4ff" stroke-width="2" /><polyline fill="none" points="89.3831,38.6169 84.1763,38.1831 87.6475,35.1458 93.2881,34.7119 94.1559,36.8814 97.6271,34.278 101.9661,33.8441 101.5322,36.8814 97.1932,41.2203 87.6475,42.522 88.9492,48.5966 94.1559,49.8983 98.9288,46.4271 103.2678,35.5797 114.1153,34.278" stroke="#36ffc0" stroke-width="2" /><polyline fill="none" points="107.6068,39.0508 114.1153,37.7492 115.8508,39.0508 114.5492,50.3322" stroke="#7cff79" stroke-width="2" /><polyline fill="none" points="8.678,18.2237 26.0339,18.6576 30.3729,16.4881 62.0475,13.4508 83.7424,8.678 94.1559,10.8475 110.2102,18.6576 119.322,21.261" stroke="#c0ff36" stroke-width="2" /><polyline fill="none" points="76.8,54.6712 80.7051,64.2169 94.5898,80.7051" stroke="#ffe500" stroke-width="2" /><polyline fill="none" points="115.4169,64.2169 101.5322,66.3864 68.122,76.3661" stroke="#ff9400" stroke-width="2" /><polyline fill="none" points="23.8644,64.6508 64.2169,72.0271 82.8746,80.2712" stroke="#ff4600" stroke-width="2" /><polyline fill="none" points="56.8407,64.2169 32.1085,81.5729" stroke="#de0000" stroke-width="2" /><polyline fill="none" points="103.2678,62.0475 87.2136,72.461 56.4068,84.1763" stroke="#7f0000" stroke-width="2" /></svg>