<?xml version="1.0" encoding="utf-8" ?>
<svg baseProfile="tiny" height="128" version="1.2" viewBox="0,0,128,128" width="128" xmlns="http://www.w3.org/2000/svg" xmlns:ev="http://www.w3.org/2001/xml-events" xmlns:xlink="http://www.w3.org/1999/xlink"><defs /><polyline fill="none" points="68.9898,48.1627 56.4068,42.522 36.0136,42.522 28.6373,45.5593 16.4881,55.1051 9.9797,63.3492 9.1119,68.122 8.678,90.6847 11.7153,98.061 16.4881,105.0034 26.4678,111.5119 47.2949,117.1525 56.8407,118.4542 68.9898,119.322 71.1593,117.5864 82.8746,104.5695 87.6475,92.4203 87.6475,67.2542 74.6305,50.3322 65.5186,47.7288" stroke="#00007f" stroke-width="2" /><polyline fill="none" points="19.5254,47.2949 21.261,21.261 23.4305,14.3186 28.6373,8.678 33.8441,13.0169 42.522,28.2034 47.2949,41.6542 49.8983,43.8237 54.2373,44.2576" stroke="#0028ff" stroke-width="2" /><polyline fill="none" points="67.6881,46.861 77.2339,46.861 88.9492,42.0881 108.4746,39.0508 109.3424,42.9559 107.1729,52.0678 91.9864,73.7627" stroke="#00d4ff" stroke-width="2" /><polyline fill="none" points="43.3898,60.7458 43.3898,60.7458" stroke="#7cff79" stroke-width="2" /><polyline fill="none" points="47.7288,60.3119 43.3898,60.3119 46.4271,61.1797" stroke="#ffe500" stroke-width="2" /><polyline fill="none" points="62.4814,65.5186 65.9525,65.5186" stroke="#ff4600" stroke-width="2" /><polyline fill="none" points="52.0678,78.1017 51.2,80.2712 52.9356,81.5729" stroke="#7f0000" stroke-width="2" /></svg>