<?xml version="1.0" encoding="utf-8" ?>
<svg baseProfile="tiny" height="128" version="1.2" viewBox="0,0,128,128" width="128" xmlns="http://www.w3.org/2000/svg" xmlns:ev="http://www.w3.org/2001/xml-events" xmlns:xlink="http://www.w3.org/1999/xlink"><defs /><polyline fill="none" points="55.1051,36.4475 50.7661,35.1458 38.6169,36.8814 32.5424,40.7864 26.9017,46.861 23.8644,54.6712 24.7322,62.4814 28.2034,68.122 34.278,71.5932 45.9932,74.1966 58.1424,72.461 72.0271,65.0847 78.1017,56.8407 79.8373,51.6339 79.4034,45.9932 74.1966,37.7492 64.2169,33.8441 51.2,34.7119" stroke="#00007f" stroke-width="2" /><polyline fill="none" points="34.278,55.1051 33.8441,56.4068" stroke="#0000d1" stroke-width="2" /><polyline fill="none" points="56.4068,49.0305 57.2746,49.4644 57.2746,52.0678 55.1051,53.3695 54.6712,52.5017 56.8407,49.8983 57.2746,50.7661 55.1051,52.0678" stroke="#0010ff" stroke-width="2" /><polyline fill="none" points="43.3898,62.0475 41.6542,62.4814" stroke="#0058ff" stroke-width="2" /><polyline fill="none" points="71.5932,42.9559 71.1593,44.2576 70.2915,42.9559" stroke="#00a4ff" stroke-width="2" /><polyline fill="none" points="32.9763,71.1593 34.7119,80.2712 32.9763,86.3458 24.7322,92.4203 22.1288,89.8169 21.6949,85.478 26.0339,79.8373 29.939,63.7831" stroke="#05ecf1" stroke-width="2" /><polyline fill="none" points="53.8034,68.122 52.0678,81.5729 48.1627,88.9492 44.2576,89.3831 42.522,86.7797 44.6915,80.2712 48.1627,77.6678 46.861,71.1593" stroke="#3fffb7" stroke-width="2" /><polyline fill="none" points="71.1593,61.1797 68.122,79.8373 62.9153,91.9864 60.7458,91.5525 59.0102,89.3831 59.878,71.5932" stroke="#7cff79" stroke-width="2" /><polyline fill="none" points="79.4034,58.1424 87.2136,76.3661 89.3831,85.0441 88.5153,87.6475 81.5729,85.478 81.5729,86.7797 76.3661,68.5559 76.3661,55.1051" stroke="#b7ff3f" stroke-width="2" /><polyline fill="none" points="30.8068,27.3356 23.8644,28.6373 16.922,34.278 9.5458,45.5593 9.5458,46.861 11.7153,47.7288 23.8644,43.8237 33.4102,37.7492 34.7119,35.5797 32.5424,30.8068 27.3356,25.6 23.4305,23.8644 17.7898,23.8644" stroke="#f1fc05" stroke-width="2" /><polyline fill="none" points="18.2237,39.9186 18.6576,38.6169 19.9593,39.4847 19.0915,39.9186" stroke="#ffb900" stroke-width="2" /><polyline fill="none" points="27.3356,29.939 27.3356,36.8814" stroke="#ff7300" stroke-width="2" /><polyline fill="none" points="8.678,37.3153 11.7153,16.922 18.2237,29.939 23.4305,13.0169 26.0339,8.678 29.0712,21.6949 32.1085,25.6" stroke="#ff3000" stroke-width="2" /><polyline fill="none" points="78.5356,42.0881 80.7051,41.2203 99.7966,40.7864 114.1153,47.2949 118.8881,52.0678 119.322,66.8203 116.7186,65.0847" stroke="#d10000" stroke-width="2" /><polyline fill="none" points="82.4407,50.7661 82.4407,50.7661" stroke="#7f0000" stroke-width="2" /></svg>