<?xml version="1.0" encoding="utf-8" ?>
<svg baseProfile="tiny" height="128" version="1.2" viewBox="0,0,128,128" width="128" xmlns="http://www.w3.org/2000/svg" xmlns:ev="http://www.w3.org/2001/xml-events" xmlns:xlink="http://www.w3.org/1999/xlink"><defs /><polyline fill="none" points="42.2313,26.5578 38.3129,28.7347 30.9116,36.1361 28.7347,41.3605 26.1224,57.034 27.8639,70.0952 35.7007,80.9796 45.7143,87.5102 51.8095,89.6871 60.9524,90.9932 68.3537,90.1224 84.0272,82.7211 92.2993,75.3197 97.0884,68.7891 103.619,54.4218 105.3605,43.9728 104.0544,32.6531 98.3946,23.9456 92.2993,20.898 78.3673,18.2857 64.0,18.7211 52.6803,20.898 44.4082,24.8163 40.4898,27.8639 40.0544,30.0408" stroke="#00007f" stroke-width="2" /><polyline fill="none" points="55.2925,21.3333 40.0544,14.3673 28.7347,12.1905 27.8639,28.2993 29.6054,39.1837" stroke="#0000d1" stroke-width="2" /><polyline fill="none" points="94.9116,17.8503 107.9728,10.0136 111.8912,8.7075 113.1973,10.449 112.7619,23.0748 106.6667,38.3129" stroke="#0010ff" stroke-width="2" /><polyline fill="none" points="50.5034,36.1361 51.8095,42.2313" stroke="#0058ff" stroke-width="2" /><polyline fill="none" points="78.3673,40.4898 78.3673,40.4898" stroke="#00a4ff" stroke-width="2" /><polyline fill="none" points="80.9796,29.6054 80.5442,42.2313" stroke="#05ecf1" stroke-width="2" /><polyline fill="none" points="52.2449,61.3878 67.483,59.6463 64.4354,64.8707 56.5986,60.517" stroke="#3fffb7" stroke-width="2" /><polyline fill="none" points="65.7415,67.0476 62.2585,72.7075 53.551,78.8027 49.1973,78.8027 43.9728,75.3197" stroke="#7cff79" stroke-width="2" /><polyline fill="none" points="65.3061,62.6939 68.7891,70.0952 72.7075,72.2721 84.4626,66.1769" stroke="#b7ff3f" stroke-width="2" /><polyline fill="none" points="87.0748,52.6803 116.2449,48.3265" stroke="#f1fc05" stroke-width="2" /><polyline fill="none" points="88.381,58.7755 97.0884,64.8707 119.2925,73.1429" stroke="#ffb900" stroke-width="2" /><polyline fill="none" points="87.9456,67.0476 96.2177,80.1088 99.2653,87.5102" stroke="#ff7300" stroke-width="2" /><polyline fill="none" points="42.2313,57.034 8.7075,53.551" stroke="#ff3000" stroke-width="2" /><polyline fill="none" points="51.3741,65.3061 30.4762,67.9184 9.1429,74.449" stroke="#d10000" stroke-width="2" /><polyline fill="none" points="46.1497,67.483 40.4898,77.0612 16.1088,105.3605 13.4966,109.7143" stroke="#7f0000" stroke-width="2" /></svg>