<?xml version="1.0" encoding="utf-8" ?>
<svg baseProfile="tiny" height="128" version="1.2" viewBox="0,0,128,128" width="128" xmlns="http://www.w3.org/2000/svg" xmlns:ev="http://www.w3.org/2001/xml-events" xmlns:xlink="http://www.w3.org/1999/xlink"><defs /><polyline fill="none" points="17.3559,55.1051 18.2237,43.3898 22.5627,29.939 28.2034,21.6949 32.1085,20.8271 38.6169,32.5424 43.3898,46.4271 56.4068,39.9186 76.3661,39.0508 86.7797,45.9932 88.5153,49.0305 91.1186,46.861 94.5898,33.8441 100.6644,19.5254 107.1729,8.678 108.4746,30.3729 114.5492,56.4068" stroke="#00007f" stroke-width="2" /><polyline fill="none" points="8.678,54.2373 12.1492,59.878 21.261,88.0814 28.2034,97.1932 42.522,106.739 47.7288,108.4746 59.4441,108.9085 71.1593,108.9085 77.6678,107.1729 85.478,103.7017 96.7593,95.8915 105.8712,85.478 109.3424,79.4034 114.9831,55.9729" stroke="#0000de" stroke-width="2" /><polyline fill="none" points="24.2983,49.0305 30.8068,35.5797 33.8441,45.1254 33.8441,51.2 24.7322,52.5017" stroke="#0028ff" stroke-width="2" /><polyline fill="none" points="98.9288,43.3898 101.0983,33.4102 103.7017,38.1831 104.5695,45.1254 103.2678,48.1627 96.7593,50.3322" stroke="#0080ff" stroke-width="2" /><polyline fill="none" points="55.9729,74.6305 59.4441,83.3085 62.9153,84.6102 72.8949,72.8949 67.6881,72.0271 57.2746,74.6305" stroke="#00d4ff" stroke-width="2" /><polyline fill="none" points="55.9729,82.0068 17.3559,80.2712" stroke="#36ffc0" stroke-width="2" /><polyline fill="none" points="49.4644,88.5153 28.6373,90.2508 19.0915,95.0237 17.3559,100.2305" stroke="#7cff79" stroke-width="2" /><polyline fill="none" points="53.8034,89.3831 42.522,92.8542 26.4678,105.4373" stroke="#c0ff36" stroke-width="2" /><polyline fill="none" points="72.0271,78.1017 105.8712,78.5356 119.322,76.8" stroke="#ffe500" stroke-width="2" /><polyline fill="none" points="70.2915,92.8542 85.478,100.2305 105.0034,105.0034 108.9085,107.1729" stroke="#ff9400" stroke-width="2" /><polyline fill="none" points="95.4576,104.5695 103.2678,108.4746 109.3424,109.3424" stroke="#ff4600" stroke-width="2" /><polyline fill="none" points="43.8237,63.3492 43.8237,63.3492" stroke="#de0000" stroke-width="2" /><polyline fill="none" points="81.139,55.9729 81.139,55.9729" stroke="#7f0000" stroke-width="2" /></svg>