<?xml version="1.0" encoding="utf-8" ?>
<svg baseProfile="tiny" height="128" version="1.2" viewBox="0,0,128,128" width="128" xmlns="http://www.w3.org/2000/svg" xmlns:ev="http://www.w3.org/2001/xml-events" xmlns:xlink="http://www.w3.org/1999/xlink"><defs /><polyline fill="none" points="32.2177,75.3197 30.9116,69.6599 32.2177,53.551 38.3129,40.9252 57.9048,20.4626 70.5306,13.0612 75.7551,12.6259 80.1088,12.6259 84.0272,16.5442 87.0748,23.0748 87.9456,40.9252 86.2041,50.5034 82.2857,59.6463 70.966,73.5782 56.1633,80.9796 46.585,81.415 37.0068,81.415 29.6054,79.6735 21.3333,75.3197" stroke="#00007f" stroke-width="2" /><polyline fill="none" points="38.7483,44.4082 35.7007,40.0544 34.3946,9.5782 39.1837,8.7075 59.2109,30.4762" stroke="#0000f1" stroke-width="2" /><polyline fill="none" points="98.3946,29.6054 97.0884,25.6871 104.0544,11.7551 98.8299,53.9864" stroke="#004cff" stroke-width="2" /><polyline fill="none" points="63.1293,53.551 67.9184,57.4694 87.9456,86.2041" stroke="#00b0ff" stroke-width="2" /><polyline fill="none" points="63.1293,45.7143 76.6259,43.9728 93.6054,39.1837" stroke="#29ffcd" stroke-width="2" /><polyline fill="none" points="62.2585,56.1633 57.4694,57.4694 43.102,56.5986 35.2653,58.3401 10.8844,66.1769 8.7075,68.7891" stroke="#7cff79" stroke-width="2" /><polyline fill="none" points="49.6327,50.068 41.7959,45.2789 23.0748,38.7483" stroke="#cdff29" stroke-width="2" /><polyline fill="none" points="39.1837,74.0136 35.2653,79.6735 29.6054,94.9116 27.8639,108.4082 28.2993,119.2925" stroke="#ffc400" stroke-width="2" /><polyline fill="none" points="50.068,38.7483 52.2449,38.3129" stroke="#ff6700" stroke-width="2" /><polyline fill="none" points="79.2381,33.5238 75.3197,32.6531 71.8367,40.0544" stroke="#f10700" stroke-width="2" /><polyline fill="none" points="62.2585,70.5306 66.6122,86.2041 71.8367,95.7823 74.449,104.9252 74.449,112.7619 77.4966,111.0204" stroke="#7f0000" stroke-width="2" /></svg>