<?xml version="1.0" encoding="utf-8" ?>
<svg baseProfile="tiny" height="128" version="1.2" viewBox="0,0,128,128" width="128" xmlns="http://www.w3.org/2000/svg" xmlns:ev="http://www.w3.org/2001/xml-events" xmlns:xlink="http://www.w3.org/1999/xlink"><defs /><polyline fill="none" points="13.0612,77.4966 9.5782,71.4014 8.7075,64.4354 8.7075,56.5986 11.7551,50.068 22.6395,44.8435 40.0544,41.7959 57.9048,41.7959 70.966,46.1497 77.932,52.2449 87.9456,67.0476 90.1224,74.0136 89.6871,83.5918 81.8503,103.1837 74.0136,112.3265 58.3401,118.8571 53.1156,119.2925 48.3265,119.2925 29.6054,111.0204 19.5918,103.1837 13.0612,91.4286 10.8844,73.1429" stroke="#00007f" stroke-width="2" /><polyline fill="none" points="14.8027,50.5034 16.9796,28.7347 22.6395,10.449 30.0408,33.9592 35.7007,44.4082" stroke="#0000ff" stroke-width="2" /><polyline fill="none" points="57.9048,43.5374 61.3878,20.0272 64.4354,10.0136 67.0476,8.7075 76.6259,54.8571" stroke="#0080ff" stroke-width="2" /><polyline fill="none" points="37.4422,83.1565 30.4762,83.1565 15.6735,87.9456" stroke="#15ffe1" stroke-width="2" /><polyline fill="none" points="44.4082,92.2993 37.8776,91.4286 25.2517,95.3469" stroke="#7cff79" stroke-width="2" /><polyline fill="none" points="44.8435,99.7007 38.7483,101.8776 29.6054,108.8435" stroke="#e4ff12" stroke-width="2" /><polyline fill="none" points="70.5306,83.5918 78.3673,84.4626 97.5238,89.6871" stroke="#ff9400" stroke-width="2" /><polyline fill="none" points="65.7415,92.2993 77.4966,94.0408" stroke="#ff1d00" stroke-width="2" /><polyline fill="none" points="56.1633,97.5238 64.4354,98.8299 76.6259,104.4898" stroke="#7f0000" stroke-width="2" /></svg>