<?xml version="1.0" encoding="utf-8" ?>
<svg baseProfile="tiny" height="128" version="1.2" viewBox="0,0,128,128" width="128" xmlns="http://www.w3.org/2000/svg" xmlns:ev="http://www.w3.org/2001/xml-events" xmlns:xlink="http://www.w3.org/1999/xlink"><defs /><polyline fill="none" points="20.3932,62.4814 20.8271,51.2 25.6,29.5051 31.2407,39.4847 36.8814,59.0102" stroke="#00007f" stroke-width="2" /><polyline fill="none" points="27.3356,32.1085 23.4305,20.3932 20.3932,19.5254 17.7898,22.1288 9.9797,33.8441 8.678,41.6542 9.5458,49.0305" stroke="#0000e8" stroke-width="2" /><polyline fill="none" points="22.1288,17.3559 25.6,22.5627 42.0881,32.9763 50.3322,42.9559" stroke="#0038ff" stroke-width="2" /><polyline fill="none" points="18.6576,23.8644 17.7898,17.7898 21.6949,14.7525 30.8068,14.3186 36.4475,17.3559 36.0136,19.0915 21.6949,22.1288" stroke="#0094ff" stroke-width="2" /><polyline fill="none" points="65.9525,59.0102 72.461,31.6746 79.8373,60.3119" stroke="#0cf4ea" stroke-width="2" /><polyline fill="none" points="75.9322,33.8441 71.1593,16.922 68.9898,28.6373 60.7458,44.6915" stroke="#56ffa0" stroke-width="2" /><polyline fill="none" points="67.6881,18.6576 78.1017,32.5424 85.9119,50.3322" stroke="#a0ff56" stroke-width="2" /><polyline fill="none" points="69.4237,23.8644 65.5186,21.6949 64.2169,19.5254 65.5186,11.2814 71.1593,8.678 74.6305,9.5458 76.3661,12.1492 77.2339,23.4305 70.2915,26.0339 68.122,23.4305 67.6881,19.9593" stroke="#eaff0c" stroke-width="2" /><polyline fill="none" points="40.3525,119.322 40.3525,116.7186 45.5593,105.4373 54.2373,116.2847" stroke="#ffaa00" stroke-width="2" /><polyline fill="none" points="45.9932,105.4373 45.5593,95.8915 39.0508,98.9288 32.1085,105.8712" stroke="#ff5500" stroke-width="2" /><polyline fill="none" points="43.8237,96.7593 56.8407,103.7017" stroke="#e80000" stroke-width="2" /><polyline fill="none" points="44.6915,98.061 41.2203,95.4576 40.3525,87.6475 42.522,86.3458 49.4644,87.2136 51.6339,88.5153 53.3695,92.4203 42.0881,100.2305" stroke="#7f0000" stroke-width="2" /></svg>