<?xml version="1.0" encoding="utf-8" ?>
<svg baseProfile="tiny" height="128" version="1.2" viewBox="0,0,128,128" width="128" xmlns="http://www.w3.org/2000/svg" xmlns:ev="http://www.w3.org/2001/xml-events" xmlns:xlink="http://www.w3.org/1999/xlink"><defs /><polyline fill="none" points="41.7959,63.5646 32.2177,57.034 26.5578,50.068 25.2517,47.4558 24.381,37.4422 28.2993,24.381 31.3469,19.5918 42.6667,12.1905 54.4218,9.5782 72.7075,8.7075 84.898,13.4966 90.1224,16.9796 98.3946,28.2993 100.5714,36.5714 100.5714,47.4558 98.3946,52.6803 94.4762,56.5986 77.4966,64.0 40.4898,64.4354 36.1361,65.7415" stroke="#00007f" stroke-width="2" /><polyline fill="none" points="41.3605,45.7143 28.2993,39.1837 15.2381,36.1361" stroke="#0000fe" stroke-width="2" /><polyline fill="none" points="38.3129,49.1973 23.0748,53.1156 11.3197,61.3878 8.7075,67.0476" stroke="#0060ff" stroke-width="2" /><polyline fill="none" points="39.619,53.1156 30.9116,79.6735" stroke="#00d4ff" stroke-width="2" /><polyline fill="none" points="89.6871,43.5374 119.2925,40.0544" stroke="#4cffaa" stroke-width="2" /><polyline fill="none" points="94.0408,47.8912 118.8571,57.9048" stroke="#aaff4c" stroke-width="2" /><polyline fill="none" points="88.8163,47.8912 107.102,77.932" stroke="#ffe500" stroke-width="2" /><polyline fill="none" points="53.9864,51.3741 63.5646,50.9388 74.0136,47.8912" stroke="#ff7a00" stroke-width="2" /><polyline fill="none" points="50.5034,25.2517 51.3741,27.8639" stroke="#fe1200" stroke-width="2" /><polyline fill="none" points="68.7891,23.0748 69.2245,25.2517" stroke="#7f0000" stroke-width="2" /></svg>