<?xml version="1.0" encoding="utf-8" ?>
<svg baseProfile="tiny" height="128" version="1.2" viewBox="0,0,128,128" width="128" xmlns="http://www.w3.org/2000/svg" xmlns:ev="http://www.w3.org/2001/xml-events" xmlns:xlink="http://www.w3.org/1999/xlink"><defs /><polyline fill="none" points="29.0712,34.278 31.6746,30.8068 39.9186,26.4678 54.2373,24.7322 62.0475,29.5051 66.3864,34.7119 66.8203,39.9186 65.0847,42.522 49.8983,53.3695 36.8814,56.8407 24.2983,56.8407 20.8271,54.6712 19.0915,50.7661 20.8271,39.4847 28.6373,30.3729 33.8441,27.7695" stroke="#00007f" stroke-width="2" /><polyline fill="none" points="65.9525,28.6373 76.8,28.2034 84.1763,30.8068 93.2881,36.0136 95.4576,40.7864 91.1186,44.2576 81.5729,48.5966 62.0475,49.4644" stroke="#0000d1" stroke-width="2" /><polyline fill="none" points="94.1559,36.4475 101.5322,29.939 97.6271,22.5627 98.061,19.9593 102.4,14.3186 113.2475,9.1119 118.4542,8.678 119.322,12.5831 114.1153,23.4305 106.739,28.6373 101.0983,37.3153 93.722,42.522" stroke="#0010ff" stroke-width="2" /><polyline fill="none" points="88.9492,45.5593 92.8542,51.6339 96.7593,62.0475 96.3254,70.7254 91.5525,69.8576 83.3085,59.878 82.0068,49.4644 84.1763,45.5593" stroke="#0058ff" stroke-width="2" /><polyline fill="none" points="70.7254,49.0305 73.7627,53.8034 76.3661,63.3492 76.3661,71.1593 74.1966,73.7627 68.9898,73.7627 63.7831,68.122 62.9153,53.3695 65.9525,52.0678" stroke="#00a4ff" stroke-width="2" /><polyline fill="none" points="18.2237,42.0881 8.678,40.3525" stroke="#05ecf1" stroke-width="2" /><polyline fill="none" points="16.0542,53.3695 9.5458,55.1051" stroke="#3fffb7" stroke-width="2" /><polyline fill="none" points="29.939,39.0508 33.8441,39.0508 35.1458,40.3525 33.8441,41.2203" stroke="#7cff79" stroke-width="2" /><polyline fill="none" points="50.7661,32.9763 55.539,33.4102 55.9729,34.7119 52.0678,34.7119 51.2,31.6746" stroke="#b7ff3f" stroke-width="2" /><polyline fill="none" points="30.3729,39.9186 33.4102,39.4847 32.9763,42.0881 31.6746,42.522 31.2407,40.7864" stroke="#f1fc05" stroke-width="2" /><polyline fill="none" points="15.6203,52.5017 22.1288,52.5017" stroke="#ffb900" stroke-width="2" /><polyline fill="none" points="62.9153,31.2407 68.122,26.9017 73.7627,25.6" stroke="#ff7300" stroke-width="2" /><polyline fill="none" points="67.6881,34.278 74.6305,31.6746 79.4034,31.6746" stroke="#ff3000" stroke-width="2" /><polyline fill="none" points="22.5627,34.278 21.261,34.7119 20.8271,31.2407 23.4305,16.922 25.6,16.4881 31.6746,22.5627 38.6169,23.8644" stroke="#d10000" stroke-width="2" /><polyline fill="none" points="46.4271,22.1288 49.8983,18.2237 53.8034,10.4136" stroke="#7f0000" stroke-width="2" /></svg>