<?xml version="1.0" encoding="utf-8" ?>
<svg baseProfile="tiny" height="128" version="1.2" viewBox="0,0,128,128" width="128" xmlns="http://www.w3.org/2000/svg" xmlns:ev="http://www.w3.org/2001/xml-events" xmlns:xlink="http://www.w3.org/1999/xlink"><defs /><polyline fill="none" points="78.1017,29.939 76.3661,27.3356 66.8203,23.4305 54.2373,22.1288 50.3322,22.9966 43.3898,27.7695 38.6169,36.0136 39.0508,44.6915 44.2576,50.3322 52.9356,52.5017 65.0847,51.6339 71.1593,49.0305 74.6305,45.5593 78.9695,32.9763 78.5356,26.4678" stroke="#00007f" stroke-width="2" /><polyline fill="none" points="56.8407,21.6949 54.6712,8.678 47.7288,15.1864 47.2949,24.7322" stroke="#0000f1" stroke-width="2" /><polyline fill="none" points="49.4644,22.9966 51.6339,13.8847 52.9356,15.6203 53.8034,21.261" stroke="#004cff" stroke-width="2" /><polyline fill="none" points="75.0644,26.9017 84.1763,16.4881 91.1186,11.2814 87.2136,21.6949 78.1017,31.6746" stroke="#00b0ff" stroke-width="2" /><polyline fill="none" points="76.8,26.9017 87.6475,17.7898 86.7797,20.8271 81.139,26.4678" stroke="#29ffcd" stroke-width="2" /><polyline fill="none" points="56.4068,37.3153 10.4136,17.7898" stroke="#7cff79" stroke-width="2" /><polyline fill="none" points="59.0102,34.278 8.678,30.8068" stroke="#cdff29" stroke-width="2" /><polyline fill="none" points="51.6339,36.0136 19.9593,45.9932" stroke="#ffc400" stroke-width="2" /><polyline fill="none" points="49.8983,34.7119 91.1186,35.5797 119.322,33.4102" stroke="#ff6700" stroke-width="2" /><polyline fill="none" points="52.5017,33.4102 75.4983,48.1627" stroke="#f10700" stroke-width="2" /><polyline fill="none" points="60.3119,35.1458 66.8203,60.7458" stroke="#7f0000" stroke-width="2" /></svg>