<?xml version="1.0" encoding="utf-8" ?>
<svg baseProfile="tiny" height="128" version="1.2" viewBox="0,0,128,128" width="128" xmlns="http://www.w3.org/2000/svg" xmlns:ev="http://www.w3.org/2001/xml-events" xmlns:xlink="http://www.w3.org/1999/xlink"><defs /><polyline fill="none" points="31.2407,55.539 27.7695,55.9729 22.5627,60.7458 9.9797,81.5729 9.5458,95.4576 11.2814,101.0983 14.7525,106.3051 19.9593,110.6441 33.4102,116.7186 41.6542,118.8881 66.8203,119.322 76.8,117.1525 90.2508,111.5119 97.1932,107.6068 100.6644,103.2678 108.0407,85.478 108.0407,67.2542 104.5695,62.4814 95.0237,55.539 78.5356,53.3695 55.539,53.3695 44.2576,54.6712" stroke="#00007f" stroke-width="2" /><polyline fill="none" points="8.678,58.1424 26.4678,26.0339 30.3729,16.0542 34.278,22.5627 40.7864,42.0881" stroke="#0028ff" stroke-width="2" /><polyline fill="none" points="81.139,54.2373 81.139,46.861 88.9492,12.1492 91.5525,8.678 93.722,12.1492 104.1356,58.5763" stroke="#00d4ff" stroke-width="2" /><polyline fill="none" points="16.4881,83.7424 23.8644,86.3458 18.6576,93.722" stroke="#7cff79" stroke-width="2" /><polyline fill="none" points="96.7593,78.5356 87.6475,82.4407 85.0441,85.9119 88.5153,88.9492 94.1559,88.9492" stroke="#ffe500" stroke-width="2" /><polyline fill="none" points="42.0881,70.7254 43.3898,76.8 46.861,77.6678 50.3322,73.7627 49.0305,68.5559" stroke="#ff4600" stroke-width="2" /><polyline fill="none" points="68.122,68.122 69.4237,75.0644 75.9322,76.3661 77.6678,71.5932 77.6678,68.122 75.9322,67.2542" stroke="#7f0000" stroke-width="2" /></svg>