<?xml version="1.0" encoding="utf-8" ?>
<svg baseProfile="tiny" height="128" version="1.2" viewBox="0,0,128,128" width="128" xmlns="http://www.w3.org/2000/svg" xmlns:ev="http://www.w3.org/2001/xml-events" xmlns:xlink="http://www.w3.org/1999/xlink"><defs /><polyline fill="none" points="58.5763,31.2407 39.4847,37.7492 31.6746,42.0881 26.0339,47.7288 22.5627,54.2373 20.3932,61.6136 20.3932,67.2542 24.7322,73.3288 32.9763,79.4034 60.7458,91.1186 69.4237,93.2881 75.4983,93.722 81.5729,88.5153 87.2136,78.9695 92.8542,62.0475 92.4203,46.861 87.6475,38.1831 84.6102,35.1458 72.0271,35.5797 63.7831,34.278" stroke="#00007f" stroke-width="2" /><polyline fill="none" points="40.7864,35.1458 42.522,20.8271 45.1254,19.0915 49.8983,22.1288 55.9729,32.9763 57.7085,32.5424" stroke="#0000f1" stroke-width="2" /><polyline fill="none" points="61.1797,29.939 61.6136,28.6373" stroke="#004cff" stroke-width="2" /><polyline fill="none" points="63.3492,26.9017 82.0068,9.9797 84.6102,8.678 85.9119,27.7695 91.9864,36.8814" stroke="#00b0ff" stroke-width="2" /><polyline fill="none" points="83.3085,61.1797 91.9864,61.1797 101.0983,64.2169" stroke="#29ffcd" stroke-width="2" /><polyline fill="none" points="104.1356,65.0847 106.739,66.3864" stroke="#7cff79" stroke-width="2" /><polyline fill="none" points="106.739,66.3864 106.739,66.3864" stroke="#cdff29" stroke-width="2" /><polyline fill="none" points="88.5153,71.5932 102.4,65.9525" stroke="#ffc400" stroke-width="2" /><polyline fill="none" points="109.7763,64.6508 114.5492,63.7831 119.322,68.9898" stroke="#ff6700" stroke-width="2" /><polyline fill="none" points="22.9966,54.6712 19.9593,55.9729 14.7525,55.9729 8.678,59.0102" stroke="#f10700" stroke-width="2" /><polyline fill="none" points="20.3932,63.3492 17.7898,62.9153 12.1492,65.5186 13.8847,64.2169" stroke="#7f0000" stroke-width="2" /></svg>