<?xml version="1.0" encoding="utf-8" ?>
<svg baseProfile="tiny" height="128" version="1.2" viewBox="0,0,128,128" width="128" xmlns="http://www.w3.org/2000/svg" xmlns:ev="http://www.w3.org/2001/xml-events" xmlns:xlink="http://www.w3.org/1999/xlink"><defs /><polyline fill="none" points="8.7075,45.2789 11.3197,32.6531 12.1905,13.0612 27.4286,26.9932 30.0408,51.3741 36.1361,44.4082 40.0544,43.5374 67.0476,48.3265 70.966,50.068 75.3197,47.4558 113.1973,8.7075 119.2925,41.3605 118.8571,59.2109 110.585,75.3197 101.0068,87.5102 90.5578,97.5238 79.6735,104.0544 72.7075,105.7959 57.9048,107.102 45.2789,101.0068 25.6871,80.9796 17.415,69.2245 10.449,52.2449 11.7551,47.0204" stroke="#00007f" stroke-width="2" /><polyline fill="none" points="38.7483,56.5986 48.3265,70.966 53.1156,67.9184 51.8095,59.6463 48.3265,57.4694 37.4422,54.8571" stroke="#0000fe" stroke-width="2" /><polyline fill="none" points="95.3469,56.1633 84.898,69.6599 83.1565,69.2245 84.0272,62.6939 88.8163,58.3401 94.0408,56.5986 91.4286,58.3401" stroke="#0060ff" stroke-width="2" /><polyline fill="none" points="66.1769,67.483 64.8707,83.1565 65.7415,94.9116 65.3061,88.381 63.5646,91.4286 65.3061,88.381 63.5646,89.2517 63.1293,92.2993 67.483,88.8163 55.2925,87.0748 49.6327,92.2993 56.5986,91.4286" stroke="#00d4ff" stroke-width="2" /><polyline fill="none" points="64.0,87.0748 75.3197,90.9932 76.1905,92.2993 74.449,93.1701" stroke="#4cffaa" stroke-width="2" /><polyline fill="none" points="59.2109,99.2653 63.5646,97.0884 67.9184,97.0884" stroke="#aaff4c" stroke-width="2" /><polyline fill="none" points="74.449,90.9932 77.4966,93.6054 77.932,95.7823" stroke="#ffe500" stroke-width="2" /><polyline fill="none" points="63.5646,82.2857 54.8571,81.415 48.7619,83.1565 45.2789,84.898 47.0204,84.898" stroke="#ff7a00" stroke-width="2" /><polyline fill="none" points="64.4354,80.9796 77.0612,87.0748 77.932,88.8163" stroke="#fe1200" stroke-width="2" /><polyline fill="none" points="59.2109,97.5238 66.1769,97.9592 70.0952,96.2177" stroke="#7f0000" stroke-width="2" /></svg>