<?xml version="1.0" encoding="utf-8" ?>
<svg baseProfile="tiny" height="128" version="1.2" viewBox="0,0,128,128" width="128" xmlns="http://www.w3.org/2000/svg" xmlns:ev="http://www.w3.org/2001/xml-events" xmlns:xlink="http://www.w3.org/1999/xlink"><defs /><polyline fill="none" points="15.6203,47.2949 16.0542,32.5424 23.8644,8.678 41.2203,35.5797 42.9559,31.6746 45.5593,30.3729 71.1593,29.939 78.5356,37.7492 79.8373,37.7492 111.078,26.0339 113.2475,34.7119 114.1153,72.0271 114.1153,88.0814 111.078,101.0983 107.1729,108.0407 101.0983,112.3797 76.8,118.8881 51.2,119.322 33.4102,109.7763 26.4678,104.1356 15.6203,86.7797 13.0169,78.9695 8.678,60.7458 8.678,47.7288 10.8475,42.522" stroke="#00007f" stroke-width="2" /><polyline fill="none" points="100.2305,33.8441 98.4949,42.522 105.0034,43.3898 107.6068,41.2203" stroke="#0000fe" stroke-width="2" /><polyline fill="none" points="20.3932,27.3356 23.4305,33.4102 28.2034,35.5797 32.5424,33.8441 33.4102,29.0712" stroke="#0060ff" stroke-width="2" /><polyline fill="none" points="43.3898,54.6712 41.6542,55.1051 42.522,58.1424 44.2576,59.878 47.2949,59.878 48.1627,53.8034 45.1254,52.5017 44.2576,53.8034 45.1254,53.8034" stroke="#00d4ff" stroke-width="2" /><polyline fill="none" points="102.4,55.539 94.5898,56.4068 91.5525,58.1424 91.1186,60.7458 97.6271,62.0475 100.6644,56.4068 99.3627,51.2" stroke="#4cffaa" stroke-width="2" /><polyline fill="none" points="72.8949,94.1559 78.5356,91.9864 88.9492,85.478" stroke="#aaff4c" stroke-width="2" /><polyline fill="none" points="75.9322,99.3627 77.2339,100.6644 82.8746,100.6644 96.7593,96.3254" stroke="#ffe500" stroke-width="2" /><polyline fill="none" points="76.3661,107.6068 83.3085,111.5119 90.6847,112.8136" stroke="#ff7a00" stroke-width="2" /><polyline fill="none" points="49.8983,85.9119 35.1458,76.3661" stroke="#fe1200" stroke-width="2" /><polyline fill="none" points="49.4644,91.5525 44.6915,91.5525" stroke="#7f0000" stroke-width="2" /></svg>