<?xml version="1.0" encoding="utf-8" ?>
<svg baseProfile="tiny" height="128" version="1.2" viewBox="0,0,128,128" width="128" xmlns="http://www.w3.org/2000/svg" xmlns:ev="http://www.w3.org/2001/xml-events" xmlns:xlink="http://www.w3.org/1999/xlink"><defs /><polyline fill="none" points="20.3932,40.7864 11.7153,28.2034 8.678,17.7898 9.9797,16.922 16.922,21.261 36.8814,29.5051 42.522,33.8441 70.2915,34.278 85.9119,38.6169 88.9492,30.3729 98.9288,19.5254 101.9661,10.8475 104.5695,8.678 102.8339,14.3186 104.5695,29.0712 111.5119,46.4271 111.9458,43.3898 111.078,57.7085 107.6068,71.5932 104.5695,78.1017 97.1932,86.7797 85.478,105.0034 68.122,110.6441 56.8407,109.7763 44.6915,106.3051 34.7119,101.9661 26.9017,95.4576 19.0915,83.3085 16.4881,75.4983 18.2237,45.9932 19.0915,44.6915 20.8271,45.5593" stroke="#00007f" stroke-width="2" /><polyline fill="none" points="41.6542,53.3695 44.6915,52.0678 50.3322,52.9356 51.6339,55.1051 49.0305,56.8407 43.8237,55.9729 43.8237,53.3695 45.5593,51.2" stroke="#0000ff" stroke-width="2" /><polyline fill="none" points="76.3661,59.4441 82.0068,59.4441 82.0068,62.0475 78.9695,64.6508 76.8,62.4814 78.5356,59.4441" stroke="#0080ff" stroke-width="2" /><polyline fill="none" points="51.2,67.2542 54.6712,70.7254 59.0102,71.1593 59.4441,70.2915 53.3695,67.2542 52.0678,67.6881 51.6339,68.9898" stroke="#15ffe1" stroke-width="2" /><polyline fill="none" points="57.2746,72.461 53.8034,86.3458 51.6339,91.9864 50.3322,91.1186 42.0881,80.2712 48.1627,89.3831 52.0678,91.9864 58.1424,92.4203 77.2339,87.6475" stroke="#7cff79" stroke-width="2" /><polyline fill="none" points="62.9153,74.1966 106.739,73.7627 119.322,75.4983" stroke="#e4ff12" stroke-width="2" /><polyline fill="none" points="73.3288,79.8373 86.7797,81.5729 98.9288,89.3831" stroke="#ff9400" stroke-width="2" /><polyline fill="none" points="84.6102,88.9492 93.2881,100.2305" stroke="#ff1d00" stroke-width="2" /><polyline fill="none" points="49.0305,67.2542 49.0305,67.2542" stroke="#7f0000" stroke-width="2" /></svg>