<?xml version="1.0" encoding="utf-8" ?>
<svg baseProfile="tiny" height="128" version="1.2" viewBox="0,0,128,128" width="128" xmlns="http://www.w3.org/2000/svg" xmlns:ev="http://www.w3.org/2001/xml-events" xmlns:xlink="http://www.w3.org/1999/xlink"><defs /><polyline fill="none" points="23.4305,15.6203 26.9017,8.678 29.0712,9.1119 32.1085,18.2237" stroke="#00007f" stroke-width="2" /><polyline fill="none" points="38.6169,18.6576 39.4847,13.8847 41.6542,9.5458 43.3898,9.1119 45.1254,9.1119 48.1627,17.3559" stroke="#0000c3" stroke-width="2" /><polyline fill="none" points="32.9763,35.5797 32.1085,37.3153 34.278,37.7492 35.1458,35.5797 33.4102,35.1458" stroke="#0000ff" stroke-width="2" /><polyline fill="none" points="32.1085,37.3153 22.9966,30.8068" stroke="#0034ff" stroke-width="2" /><polyline fill="none" points="28.6373,40.7864 21.6949,42.522" stroke="#0070ff" stroke-width="2" /><polyline fill="none" points="33.8441,40.3525 33.8441,40.3525" stroke="#00acff" stroke-width="2" /><polyline fill="none" points="38.1831,38.1831 46.4271,34.278" stroke="#02e8f4" stroke-width="2" /><polyline fill="none" points="37.3153,40.7864 47.7288,46.4271" stroke="#32ffc3" stroke-width="2" /><polyline fill="none" points="19.5254,22.5627 14.3186,24.2983 10.8475,28.6373 8.678,34.7119 9.1119,43.8237 10.4136,46.4271 16.4881,52.5017 24.2983,55.9729 42.9559,56.4068 54.6712,50.7661 58.1424,44.6915 59.4441,30.3729 54.2373,21.6949" stroke="#63ff93" stroke-width="2" /><polyline fill="none" points="27.7695,23.4305 27.7695,23.4305" stroke="#93ff63" stroke-width="2" /><polyline fill="none" points="29.0712,26.9017 29.5051,29.939" stroke="#c3ff32" stroke-width="2" /><polyline fill="none" points="39.4847,24.2983 39.0508,30.8068" stroke="#f4f802" stroke-width="2" /><polyline fill="none" points="32.1085,39.9186 32.5424,46.4271 29.5051,51.2" stroke="#ffc000" stroke-width="2" /><polyline fill="none" points="35.1458,39.0508 35.5797,43.3898 40.7864,48.5966" stroke="#ff8900" stroke-width="2" /><polyline fill="none" points="60.3119,43.8237 68.122,42.0881 79.4034,51.2 85.478,53.3695 95.0237,53.3695 103.7017,47.7288 110.6441,40.7864 114.5492,32.5424 117.1525,18.6576 117.1525,35.5797 119.322,49.4644 118.0203,55.539 114.5492,59.878 109.7763,62.0475 94.1559,62.9153 88.0814,60.7458 84.6102,61.6136 82.4407,72.8949 82.0068,99.3627 80.7051,104.1356 76.8,107.1729 74.1966,107.1729 71.5932,103.7017 71.1593,85.478 70.2915,82.8746 68.5559,82.4407 66.3864,89.8169 66.3864,98.4949 63.3492,105.0034 61.1797,105.4373 54.2373,87.6475 51.2,85.478 48.5966,85.9119 47.7288,88.0814 40.7864,106.3051 38.6169,106.3051 30.3729,88.5153 26.9017,88.9492 20.8271,96.3254 18.6576,96.7593 16.4881,94.5898 16.4881,82.0068 19.9593,53.8034" stroke="#ff5100" stroke-width="2" /><polyline fill="none" points="33.8441,62.9153 28.6373,70.7254 28.2034,72.8949 30.8068,73.3288 45.5593,65.9525 46.861,69.4237" stroke="#ff1a00" stroke-width="2" /><polyline fill="none" points="64.6508,56.4068 62.9153,64.2169 65.5186,65.0847 70.7254,64.2169 74.1966,66.3864" stroke="#c30000" stroke-width="2" /><polyline fill="none" points="97.6271,56.8407 99.7966,59.0102 104.5695,57.7085" stroke="#7f0000" stroke-width="2" /></svg>