<?xml version="1.0" encoding="utf-8" ?>
<svg baseProfile="tiny" height="128" version="1.2" viewBox="0,0,128,128" width="128" xmlns="http://www.w3.org/2000/svg" xmlns:ev="http://www.w3.org/2001/xml-events" xmlns:xlink="http://www.w3.org/1999/xlink"><defs /><polyline fill="none" points="41.6542,22.5627 29.5051,23.4305 17.7898,29.5051 9.9797,39.9186 8.678,49.0305 11.2814,55.539 18.6576,63.3492 32.9763,71.5932 41.6542,73.7627 60.3119,73.7627 70.7254,69.4237 75.9322,65.0847 79.8373,58.1424 81.139,46.861 76.8,32.9763 70.7254,26.0339 64.6508,22.1288 57.7085,19.5254 36.0136,21.6949" stroke="#00007f" stroke-width="2" /><polyline fill="none" points="12.5831,29.0712 14.3186,8.678 31.2407,24.7322" stroke="#0000e8" stroke-width="2" /><polyline fill="none" points="62.0475,18.6576 77.2339,10.8475 75.9322,29.5051" stroke="#0038ff" stroke-width="2" /><polyline fill="none" points="24.7322,36.8814 24.7322,41.6542 24.7322,36.0136 26.0339,40.3525" stroke="#0094ff" stroke-width="2" /><polyline fill="none" points="52.0678,36.4475 50.3322,41.6542 50.7661,36.0136 50.7661,39.0508" stroke="#0cf4ea" stroke-width="2" /><polyline fill="none" points="33.8441,42.9559 38.6169,43.3898" stroke="#56ffa0" stroke-width="2" /><polyline fill="none" points="31.2407,50.3322 33.8441,55.1051 36.8814,51.2 39.9186,54.2373 44.6915,55.539 46.861,51.6339" stroke="#a0ff56" stroke-width="2" /><polyline fill="none" points="77.2339,42.9559 82.4407,40.3525 91.5525,40.7864 96.7593,42.9559 105.0034,48.5966 119.322,62.4814" stroke="#eaff0c" stroke-width="2" /><polyline fill="none" points="38.1831,72.461 42.0881,105.8712 44.6915,113.2475 47.7288,114.5492" stroke="#ffaa00" stroke-width="2" /><polyline fill="none" points="50.3322,80.7051 49.4644,90.6847 51.2,108.4746 52.0678,110.2102 52.9356,110.6441" stroke="#ff5500" stroke-width="2" /><polyline fill="none" points="62.9153,78.9695 61.1797,86.3458 60.7458,108.0407" stroke="#e80000" stroke-width="2" /><polyline fill="none" points="61.6136,105.4373 68.122,108.9085 99.7966,109.3424 109.7763,107.1729" stroke="#7f0000" stroke-width="2" /></svg>