<?xml version="1.0" encoding="utf-8" ?>
<svg baseProfile="tiny" height="128" version="1.2" viewBox="0,0,128,128" width="128" xmlns="http://www.w3.org/2000/svg" xmlns:ev="http://www.w3.org/2001/xml-events" xmlns:xlink="http://www.w3.org/1999/xlink"><defs /><polyline fill="none" points="34.7119,91.9864 26.9017,91.1186 23.4305,86.7797 21.6949,77.2339 21.6949,66.3864 23.4305,61.1797 26.9017,57.7085 44.6915,51.2 65.0847,49.4644 69.8576,49.4644 76.8,53.3695 80.7051,59.4441 81.5729,77.2339 78.5356,81.5729 73.7627,85.478 57.2746,93.2881 45.1254,94.5898 32.1085,85.478" stroke="#00007f" stroke-width="2" /><polyline fill="none" points="31.6746,55.539 29.939,29.5051 49.0305,55.539" stroke="#0000f1" stroke-width="2" /><polyline fill="none" points="74.1966,49.4644 82.4407,39.4847 111.9458,13.4508 119.322,8.678 107.1729,28.2034 81.5729,58.1424" stroke="#004cff" stroke-width="2" /><polyline fill="none" points="36.0136,57.7085 53.8034,59.0102 53.3695,61.1797 51.2,62.0475 42.522,62.4814 32.5424,59.4441 31.6746,58.1424 34.278,56.8407" stroke="#00b0ff" stroke-width="2" /><polyline fill="none" points="53.8034,57.7085 75.9322,57.7085 75.4983,58.5763 63.3492,60.7458 54.2373,60.7458 52.9356,59.4441" stroke="#29ffcd" stroke-width="2" /><polyline fill="none" points="42.9559,74.6305 22.9966,74.6305" stroke="#7cff79" stroke-width="2" /><polyline fill="none" points="32.9763,82.0068 8.678,82.0068" stroke="#cdff29" stroke-width="2" /><polyline fill="none" points="34.7119,88.5153 27.3356,88.5153 17.3559,92.4203 13.4508,95.4576" stroke="#ffc400" stroke-width="2" /><polyline fill="none" points="58.1424,77.6678 62.9153,77.6678 87.2136,72.0271 104.1356,70.2915" stroke="#ff6700" stroke-width="2" /><polyline fill="none" points="64.2169,82.0068 95.8915,103.2678" stroke="#f10700" stroke-width="2" /><polyline fill="none" points="60.3119,89.8169 67.2542,101.5322" stroke="#7f0000" stroke-width="2" /></svg>