<?xml version="1.0" encoding="utf-8" ?>
<svg baseProfile="tiny" height="128" version="1.2" viewBox="0,0,128,128" width="128" xmlns="http://www.w3.org/2000/svg" xmlns:ev="http://www.w3.org/2001/xml-events" xmlns:xlink="http://www.w3.org/1999/xlink"><defs /><polyline fill="none" points="49.4644,28.6373 42.9559,29.5051 30.3729,40.3525 20.3932,57.2746 18.6576,65.0847 17.7898,80.2712 21.261,94.1559 28.6373,103.2678 33.8441,106.739 48.1627,110.6441 63.7831,109.7763 72.461,107.1729 80.2712,103.7017 92.4203,95.4576 101.9661,83.3085 108.9085,68.122 110.6441,52.9356 110.6441,47.2949 108.0407,42.0881 98.4949,33.4102 86.7797,28.2034 73.3288,26.0339 53.3695,25.1661" stroke="#00007f" stroke-width="2" /><polyline fill="none" points="29.939,44.2576 24.7322,39.0508 16.922,26.9017 8.678,8.678 42.522,31.6746" stroke="#0000c3" stroke-width="2" /><polyline fill="none" points="89.3831,29.939 92.4203,25.1661 101.9661,15.6203 112.3797,9.9797 118.8881,9.5458 119.322,16.0542 118.0203,20.3932 106.739,44.2576" stroke="#0000ff" stroke-width="2" /><polyline fill="none" points="27.7695,37.7492 23.8644,28.6373 24.7322,26.4678 27.3356,26.9017 38.6169,36.8814" stroke="#0034ff" stroke-width="2" /><polyline fill="none" points="95.8915,29.939 107.6068,22.9966 110.2102,23.8644 108.4746,31.2407 102.4,38.1831" stroke="#0070ff" stroke-width="2" /><polyline fill="none" points="59.4441,72.0271 54.6712,72.461 51.2,76.3661 51.2,79.8373 57.7085,83.3085 68.9898,82.4407 75.4983,78.9695 80.2712,73.7627 79.8373,71.5932 76.8,70.7254 59.878,69.8576" stroke="#00acff" stroke-width="2" /><polyline fill="none" points="52.0678,73.7627 45.9932,72.8949 40.7864,69.4237" stroke="#02e8f4" stroke-width="2" /><polyline fill="none" points="62.4814,67.6881 67.6881,61.6136 70.2915,60.7458" stroke="#32ffc3" stroke-width="2" /><polyline fill="none" points="71.5932,71.5932 84.1763,66.3864" stroke="#63ff93" stroke-width="2" /><polyline fill="none" points="80.7051,74.6305 95.4576,71.5932" stroke="#93ff63" stroke-width="2" /><polyline fill="none" points="70.2915,82.8746 69.8576,89.8169" stroke="#c3ff32" stroke-width="2" /><polyline fill="none" points="61.6136,84.1763 51.2,91.9864" stroke="#f4f802" stroke-width="2" /><polyline fill="none" points="51.6339,84.1763 41.2203,87.6475" stroke="#ffc000" stroke-width="2" /><polyline fill="none" points="47.7288,79.4034 44.2576,82.0068" stroke="#ff8900" stroke-width="2" /><polyline fill="none" points="84.6102,82.8746 87.6475,83.3085" stroke="#ff5100" stroke-width="2" /><polyline fill="none" points="55.9729,74.6305 52.9356,71.5932" stroke="#ff1a00" stroke-width="2" /><polyline fill="none" points="49.8983,52.5017 46.861,56.4068 49.4644,55.1051 50.3322,53.8034 48.5966,53.8034 51.2,53.3695" stroke="#c30000" stroke-width="2" /><polyline fill="none" points="82.0068,50.3322 78.1017,52.5017 80.2712,52.9356 86.3458,50.3322" stroke="#7f0000" stroke-width="2" /></svg>