<?xml version="1.0" encoding="utf-8" ?>
<svg baseProfile="tiny" height="128" version="1.2" viewBox="0,0,128,128" width="128" xmlns="http://www.w3.org/2000/svg" xmlns:ev="http://www.w3.org/2001/xml-events" xmlns:xlink="http://www.w3.org/1999/xlink"><defs /><polyline fill="none" points="35.1458,23.4305 27.7695,22.1288 23.4305,25.1661 17.7898,35.5797 15.6203,42.522 16.4881,46.861 18.6576,48.5966 25.6,51.6339 31.2407,52.5017 45.5593,49.4644 51.2,44.6915 52.5017,40.3525 45.9932,29.5051 39.9186,25.1661 25.1661,23.4305" stroke="#00007f" stroke-width="2" /><polyline fill="none" points="19.5254,27.7695 12.1492,18.2237 8.678,8.678 12.5831,9.1119 24.2983,17.3559 27.3356,20.8271 25.6,22.1288" stroke="#0000f1" stroke-width="2" /><polyline fill="none" points="12.1492,17.3559 23.8644,12.1492" stroke="#004cff" stroke-width="2" /><polyline fill="none" points="34.7119,23.4305 49.4644,11.2814 48.1627,23.8644 44.2576,32.1085" stroke="#00b0ff" stroke-width="2" /><polyline fill="none" points="41.2203,17.3559 52.0678,19.9593" stroke="#29ffcd" stroke-width="2" /><polyline fill="none" points="24.7322,31.2407 26.9017,33.8441" stroke="#7cff79" stroke-width="2" /><polyline fill="none" points="34.278,32.1085 36.8814,33.8441" stroke="#cdff29" stroke-width="2" /><polyline fill="none" points="25.6,42.0881 31.6746,37.7492 31.6746,39.4847 36.4475,45.1254" stroke="#ffc400" stroke-width="2" /><polyline fill="none" points="43.8237,48.5966 43.8237,58.1424 46.4271,69.4237 35.1458,71.5932 37.3153,72.8949 44.2576,75.0644 56.4068,73.7627 57.7085,71.5932 55.539,67.2542 55.9729,63.7831 61.6136,58.1424 82.4407,54.6712 78.5356,70.2915 68.122,73.7627 68.5559,77.2339 80.2712,78.9695 88.9492,75.9322 88.5153,68.122 90.6847,63.3492 90.6847,55.539 88.5153,49.0305 82.8746,43.8237 78.9695,42.0881 52.9356,39.0508" stroke="#ff6700" stroke-width="2" /><polyline fill="none" points="90.2508,45.9932 102.4,39.9186 110.2102,28.2034 112.3797,23.4305" stroke="#f10700" stroke-width="2" /><polyline fill="none" points="112.3797,23.4305 103.2678,19.5254 102.8339,13.8847 112.3797,13.8847 116.2847,10.4136 114.9831,13.4508 115.8508,17.3559 119.322,23.4305 118.4542,25.1661 114.5492,27.7695" stroke="#7f0000" stroke-width="2" /></svg>