<?xml version="1.0" encoding="utf-8" ?>
<svg baseProfile="tiny" height="128" version="1.2" viewBox="0,0,128,128" width="128" xmlns="http://www.w3.org/2000/svg" xmlns:ev="http://www.w3.org/2001/xml-events" xmlns:xlink="http://www.w3.org/1999/xlink"><defs /><polyline fill="none" points="52.0678,22.9966 39.0508,29.939 32.9763,39.4847 32.9763,53.3695 38.1831,60.7458 50.3322,68.122 69.4237,73.7627 95.8915,73.7627 101.0983,72.0271 103.2678,69.4237 105.8712,64.6508 105.8712,54.2373 95.4576,35.1458 79.4034,19.9593 62.9153,9.9797 50.3322,8.678 41.6542,13.4508 41.6542,15.6203 51.6339,23.8644" stroke="#00007f" stroke-width="2" /><polyline fill="none" points="50.7661,36.0136 54.6712,36.0136" stroke="#0000fe" stroke-width="2" /><polyline fill="none" points="76.3661,35.1458 76.3661,35.1458" stroke="#0060ff" stroke-width="2" /><polyline fill="none" points="73.3288,34.7119 78.1017,35.1458" stroke="#00d4ff" stroke-width="2" /><polyline fill="none" points="55.1051,48.1627 40.3525,44.6915 26.4678,36.0136 8.678,30.3729" stroke="#4cffaa" stroke-width="2" /><polyline fill="none" points="72.8949,49.8983 97.1932,49.0305 112.3797,45.5593 118.4542,41.6542" stroke="#aaff4c" stroke-width="2" /><polyline fill="none" points="82.0068,55.1051 104.5695,54.6712 119.322,52.9356" stroke="#ffe500" stroke-width="2" /><polyline fill="none" points="62.4814,54.6712 21.261,54.2373" stroke="#ff7a00" stroke-width="2" /><polyline fill="none" points="57.7085,60.7458 33.4102,66.3864" stroke="#fe1200" stroke-width="2" /><polyline fill="none" points="78.5356,62.4814 103.7017,73.7627 118.4542,77.2339" stroke="#7f0000" stroke-width="2" /></svg>