<?xml version="1.0" encoding="utf-8" ?>
<svg baseProfile="tiny" height="128" version="1.2" viewBox="0,0,128,128" width="128" xmlns="http://www.w3.org/2000/svg" xmlns:ev="http://www.w3.org/2001/xml-events" xmlns:xlink="http://www.w3.org/1999/xlink"><defs /><polyline fill="none" points="26.9932,62.6939 8.7075,33.9592 47.4558,50.5034 55.2925,54.8571 58.3401,50.9388 71.4014,42.6667 79.6735,39.1837 84.4626,39.1837 89.6871,44.4082 94.4762,56.5986 103.619,28.7347 108.8435,18.7211 117.9864,8.7075 115.3741,43.102 117.1156,52.6803 110.585,80.5442 98.3946,95.3469 86.2041,106.2313 78.3673,111.0204 65.3061,116.2449 50.068,119.2925 35.2653,118.8571 27.8639,116.6803 26.9932,115.3741 23.5102,94.0408 20.898,84.898 20.898,77.0612 25.6871,68.7891 27.4286,61.3878" stroke="#00007f" stroke-width="2" /><polyline fill="none" points="61.8231,84.898 50.068,84.898 46.1497,84.4626 50.068,84.0272" stroke="#7cff79" stroke-width="2" /><polyline fill="none" points="60.9524,84.4626 53.1156,93.1701 51.3741,94.0408 51.3741,92.7347" stroke="#7f0000" stroke-width="2" /></svg>