<?xml version="1.0" encoding="utf-8" ?>
<svg baseProfile="tiny" height="128" version="1.2" viewBox="0,0,128,128" width="128" xmlns="http://www.w3.org/2000/svg" xmlns:ev="http://www.w3.org/2001/xml-events" xmlns:xlink="http://www.w3.org/1999/xlink"><defs /><polyline fill="none" points="95.0237,25.6 101.0983,26.4678 112.8136,31.2407 114.5492,35.1458 116.2847,40.3525 115.8508,48.1627 104.5695,55.9729 101.0983,57.2746 92.8542,56.4068 85.478,52.9356 82.4407,47.7288 82.8746,45.5593 95.4576,35.1458 95.4576,29.0712 98.9288,23.8644" stroke="#00007f" stroke-width="2" /><polyline fill="none" points="86.3458,52.5017 86.3458,50.7661 74.1966,47.2949 62.9153,48.1627 52.9356,51.2 27.7695,51.2 16.0542,48.1627 11.7153,79.8373 14.3186,82.8746 17.3559,82.8746 32.9763,78.5356 40.7864,78.5356 48.1627,76.3661 82.0068,75.0644 94.1559,71.5932 89.8169,61.6136 88.9492,47.2949" stroke="#0000ff" stroke-width="2" /><polyline fill="none" points="93.722,70.2915 95.0237,95.4576" stroke="#0080ff" stroke-width="2" /><polyline fill="none" points="8.678,78.5356 10.4136,81.139 12.5831,90.6847 12.5831,101.0983" stroke="#15ffe1" stroke-width="2" /><polyline fill="none" points="98.061,39.4847 98.9288,44.6915" stroke="#7cff79" stroke-width="2" /><polyline fill="none" points="103.2678,41.2203 103.2678,41.2203" stroke="#e4ff12" stroke-width="2" /><polyline fill="none" points="104.1356,35.5797 104.1356,36.4475" stroke="#ff9400" stroke-width="2" /><polyline fill="none" points="112.8136,32.9763 113.2475,29.0712 118.8881,19.0915 119.322,12.5831 116.7186,8.678 114.9831,10.8475 114.9831,16.922 113.6814,19.5254 109.3424,21.261 102.4,27.3356" stroke="#ff1d00" stroke-width="2" /><polyline fill="none" points="92.4203,30.8068 91.5525,28.2034 72.8949,21.6949" stroke="#7f0000" stroke-width="2" /></svg>