<?xml version="1.0" encoding="utf-8" ?>
<svg baseProfile="tiny" height="128" version="1.2" viewBox="0,0,128,128" width="128" xmlns="http://www.w3.org/2000/svg" xmlns:ev="http://www.w3.org/2001/xml-events" xmlns:xlink="http://www.w3.org/1999/xlink"><defs /><polyline fill="none" points="61.3878,110.585 60.9524,110.1497" stroke="#00007f" stroke-width="2" /><polyline fill="none" points="15.2381,80.9796 23.5102,90.1224 33.5238,94.4762 40.4898,91.8639 49.1973,80.9796 53.9864,92.2993 61.8231,97.0884 69.2245,96.2177 74.8844,92.7347 79.2381,87.0748 80.1088,82.7211 79.2381,82.7211" stroke="#0000e8" stroke-width="2" /><polyline fill="none" points="49.6327,74.8844 47.0204,74.8844 47.4558,78.8027 49.1973,80.1088 52.2449,78.8027 53.1156,73.5782 50.5034,73.1429 49.1973,74.449 49.1973,77.4966 50.5034,79.2381 52.2449,78.3673 52.2449,75.7551 50.068,74.8844 48.7619,76.1905 49.6327,79.2381 51.3741,79.2381 52.2449,75.3197 50.9388,74.0136 50.068,75.7551 51.3741,77.932 51.8095,74.0136 50.5034,72.7075 50.068,75.7551 50.5034,77.0612 51.3741,75.7551 51.3741,74.449 50.068,75.7551" stroke="#0038ff" stroke-width="2" /><polyline fill="none" points="37.8776,79.6735 20.898,78.8027" stroke="#0094ff" stroke-width="2" /><polyline fill="none" points="38.3129,73.5782 19.5918,66.6122 19.1565,65.3061" stroke="#0cf4ea" stroke-width="2" /><polyline fill="none" points="42.2313,69.2245 29.1701,56.5986" stroke="#56ffa0" stroke-width="2" /><polyline fill="none" points="58.7755,85.7687 90.1224,74.8844 91.8639,74.0136 88.381,72.7075" stroke="#a0ff56" stroke-width="2" /><polyline fill="none" points="61.3878,77.4966 69.6599,72.7075 81.8503,63.1293" stroke="#eaff0c" stroke-width="2" /><polyline fill="none" points="63.1293,92.7347 95.7823,96.2177 97.0884,96.2177 95.7823,93.1701" stroke="#ffaa00" stroke-width="2" /><polyline fill="none" points="23.5102,90.5578 29.1701,102.3129 31.7823,101.0068 34.8299,94.9116" stroke="#ff5500" stroke-width="2" /><polyline fill="none" points="58.7755,96.6531 63.5646,103.619 69.2245,95.7823" stroke="#e80000" stroke-width="2" /><polyline fill="none" points="8.7075,88.381 12.6259,95.3469 25.6871,113.1973 29.6054,116.6803 38.7483,119.2925 56.1633,119.2925 74.449,116.6803 90.1224,109.2789 105.3605,94.0408 111.8912,81.8503 113.6327,71.8367 113.1973,50.068 109.7143,32.6531 104.0544,18.7211 94.0408,34.3946 81.415,44.8435 70.0952,29.6054 60.517,20.0272 43.5374,11.7551 33.0884,8.7075" stroke="#7f0000" stroke-width="2" /></svg>