<?xml version="1.0" encoding="utf-8" ?>
<svg baseProfile="tiny" height="128" version="1.2" viewBox="0,0,128,128" width="128" xmlns="http://www.w3.org/2000/svg" xmlns:ev="http://www.w3.org/2001/xml-events" xmlns:xlink="http://www.w3.org/1999/xlink"><defs /><polyline fill="none" points="110.2102,15.6203 112.3797,15.6203 114.5492,18.2237 116.7186,26.0339 116.7186,36.4475 110.6441,41.2203 103.7017,41.6542 102.4,36.8814 102.8339,30.8068 110.2102,19.9593 113.2475,17.3559" stroke="#00007f" stroke-width="2" /><polyline fill="none" points="103.7017,27.3356 100.6644,14.3186 104.1356,21.261" stroke="#0000fe" stroke-width="2" /><polyline fill="none" points="107.1729,21.261 118.4542,8.678 119.322,19.5254 117.5864,24.2983" stroke="#0060ff" stroke-width="2" /><polyline fill="none" points="101.5322,34.278 79.4034,35.1458 65.5186,39.0508 58.5763,42.522 57.2746,45.5593 66.3864,50.7661 70.7254,52.5017 80.7051,51.6339 104.5695,35.5797" stroke="#00d4ff" stroke-width="2" /><polyline fill="none" points="68.9898,49.4644 62.9153,59.0102 60.3119,66.8203" stroke="#4cffaa" stroke-width="2" /><polyline fill="none" points="82.4407,51.2 81.5729,63.3492 82.8746,62.4814" stroke="#aaff4c" stroke-width="2" /><polyline fill="none" points="89.3831,45.1254 95.0237,58.1424" stroke="#ffe500" stroke-width="2" /><polyline fill="none" points="95.8915,40.7864 98.9288,45.9932 100.2305,53.3695" stroke="#ff7a00" stroke-width="2" /><polyline fill="none" points="53.8034,45.9932 47.7288,45.9932 42.0881,48.5966 39.0508,51.2 36.4475,57.2746 29.5051,60.7458 8.678,62.4814" stroke="#fe1200" stroke-width="2" /><polyline fill="none" points="59.0102,47.2949 46.861,49.4644" stroke="#7f0000" stroke-width="2" /></svg>