<?xml version="1.0" encoding="utf-8" ?>
<svg baseProfile="tiny" height="128" version="1.2" viewBox="0,0,128,128" width="128" xmlns="http://www.w3.org/2000/svg" xmlns:ev="http://www.w3.org/2001/xml-events" xmlns:xlink="http://www.w3.org/1999/xlink"><defs /><polyline fill="none" points="38.1831,37.3153 38.6169,32.5424 45.5593,12.1492 48.5966,14.7525 55.1051,30.8068 59.4441,31.6746 80.7051,28.2034 82.4407,16.922 86.7797,8.678 90.6847,13.8847 95.0237,25.6 97.1932,34.7119 95.8915,37.3153" stroke="#00007f" stroke-width="2" /><polyline fill="none" points="33.4102,39.4847 36.8814,53.3695 44.2576,65.0847 52.5017,70.2915 64.2169,71.1593 72.461,69.4237 84.1763,64.6508 95.4576,55.1051 100.2305,46.861 101.5322,39.9186 99.7966,34.7119 95.8915,31.6746" stroke="#0028ff" stroke-width="2" /><polyline fill="none" points="81.139,43.3898 105.0034,47.7288 119.322,52.5017" stroke="#00d4ff" stroke-width="2" /><polyline fill="none" points="82.0068,45.1254 102.8339,66.3864" stroke="#7cff79" stroke-width="2" /><polyline fill="none" points="34.7119,53.3695 8.678,57.2746" stroke="#ffe500" stroke-width="2" /><polyline fill="none" points="41.2203,52.5017 21.261,63.7831" stroke="#ff4600" stroke-width="2" /><polyline fill="none" points="60.3119,46.4271 68.122,45.5593 72.461,47.2949 70.7254,50.3322 66.3864,51.6339 62.4814,49.8983 65.0847,46.861 69.4237,45.5593 65.5186,48.5966" stroke="#7f0000" stroke-width="2" /></svg>