<?xml version="1.0" encoding="utf-8" ?>
<svg baseProfile="tiny" height="128" version="1.2" viewBox="0,0,128,128" width="128" xmlns="http://www.w3.org/2000/svg" xmlns:ev="http://www.w3.org/2001/xml-events" xmlns:xlink="http://www.w3.org/1999/xlink"><defs /><polyline fill="none" points="20.3932,75.9322 9.9797,33.4102 8.678,21.6949 9.9797,18.2237 17.3559,22.9966 26.0339,35.1458 42.0881,68.122 43.8237,70.2915 44.6915,69.8576" stroke="#00007f" stroke-width="2" /><polyline fill="none" points="44.2576,68.5559 50.3322,59.0102 53.3695,49.8983 64.2169,35.1458 75.4983,13.4508 79.4034,8.678 80.7051,10.4136 81.139,33.8441 82.8746,44.2576 82.4407,66.8203 82.8746,69.4237 86.3458,69.8576 88.9492,72.0271 90.2508,83.3085 77.2339,105.4373 63.7831,114.5492 54.6712,118.4542 42.522,119.322 39.0508,118.0203 31.2407,111.5119 20.3932,98.9288 13.0169,82.0068 13.4508,80.2712 16.4881,79.4034 25.6,79.4034" stroke="#004cff" stroke-width="2" /><polyline fill="none" points="36.0136,82.0068 29.939,81.5729 29.5051,84.6102 31.6746,87.6475 34.278,87.6475 35.1458,81.5729" stroke="#29ffcd" stroke-width="2" /><polyline fill="none" points="81.5729,85.0441 71.5932,81.5729 70.7254,84.6102 72.461,87.6475 74.6305,86.3458 73.7627,81.139" stroke="#cdff29" stroke-width="2" /><polyline fill="none" points="54.6712,91.1186 48.1627,96.7593 48.1627,98.061 50.3322,102.4 57.7085,107.1729 59.0102,105.0034 59.0102,100.2305 55.9729,95.0237 51.6339,93.722" stroke="#ff6700" stroke-width="2" /><polyline fill="none" points="59.4441,59.4441 61.1797,52.9356" stroke="#7f0000" stroke-width="2" /></svg>