<?xml version="1.0" encoding="utf-8" ?>
<svg baseProfile="tiny" height="128" version="1.2" viewBox="0,0,128,128" width="128" xmlns="http://www.w3.org/2000/svg" xmlns:ev="http://www.w3.org/2001/xml-events" xmlns:xlink="http://www.w3.org/1999/xlink"><defs /><polyline fill="none" points="87.2136,118.0203 83.3085,118.0203 68.9898,111.5119 34.278,110.6441 15.6203,103.2678 9.9797,97.6271 8.678,78.1017 16.4881,66.3864 58.5763,40.3525 74.1966,40.3525 83.3085,49.8983 98.4949,69.8576 100.2305,78.9695 99.3627,91.9864 91.5525,112.3797 85.478,119.322 78.1017,119.322 57.7085,109.3424" stroke="#00007f" stroke-width="2" /><polyline fill="none" points="33.4102,57.7085 32.9763,19.9593 28.6373,8.678 32.9763,8.678 38.1831,13.0169 45.5593,23.4305 52.0678,46.4271" stroke="#0010ff" stroke-width="2" /><polyline fill="none" points="71.1593,44.6915 75.0644,43.8237 85.478,32.1085 98.061,21.6949 104.5695,20.3932 103.7017,31.6746 96.7593,42.9559 92.8542,59.0102 88.5153,67.2542" stroke="#00a4ff" stroke-width="2" /><polyline fill="none" points="52.5017,72.461 52.0678,89.8169 50.7661,92.8542 36.4475,93.2881 26.9017,91.5525 26.4678,88.9492" stroke="#3fffb7" stroke-width="2" /><polyline fill="none" points="44.6915,76.8 49.8983,81.139 53.8034,88.5153 60.7458,97.1932 63.7831,98.061 68.5559,88.9492" stroke="#b7ff3f" stroke-width="2" /><polyline fill="none" points="69.4237,71.5932 69.4237,71.5932" stroke="#ffb900" stroke-width="2" /><polyline fill="none" points="39.4847,64.2169 39.4847,64.2169" stroke="#ff3000" stroke-width="2" /><polyline fill="none" points="20.8271,69.4237 20.8271,69.4237" stroke="#7f0000" stroke-width="2" /></svg>