<?xml version="1.0" encoding="utf-8" ?>
<svg baseProfile="tiny" height="128" version="1.2" viewBox="0,0,128,128" width="128" xmlns="http://www.w3.org/2000/svg" xmlns:ev="http://www.w3.org/2001/xml-events" xmlns:xlink="http://www.w3.org/1999/xlink"><defs /><polyline fill="none" points="89.2517,46.1497 80.9796,37.8776 73.5782,33.5238 64.0,32.6531 57.4694,33.9592 44.4082,41.7959 38.7483,48.3265 28.2993,64.4354 25.6871,72.7075 24.8163,87.5102 27.8639,92.7347 33.0884,97.5238 46.585,101.4422 54.8571,101.8776 70.966,100.5714 78.3673,97.5238 85.7687,93.6054 97.0884,82.7211 104.9252,68.7891 106.2313,62.2585 106.2313,54.8571 103.619,47.4558 96.2177,39.619 90.5578,38.3129" stroke="#00007f" stroke-width="2" /><polyline fill="none" points="80.1088,35.2653 103.1837,15.6735 114.5034,9.1429 118.8571,8.7075 119.2925,13.0612 114.068,29.6054 113.6327,46.1497" stroke="#0000e8" stroke-width="2" /><polyline fill="none" points="44.4082,43.102 30.4762,28.7347 22.2041,24.8163 16.1088,24.8163 16.9796,42.2313 24.8163,63.5646" stroke="#0038ff" stroke-width="2" /><polyline fill="none" points="54.4218,51.8095 51.8095,53.9864 51.3741,60.517 52.6803,60.517 53.551,58.7755 53.9864,52.2449 52.6803,53.1156 52.2449,60.0816 54.8571,52.6803" stroke="#0094ff" stroke-width="2" /><polyline fill="none" points="76.6259,48.7619 74.8844,50.5034 74.8844,61.8231 75.7551,52.6803 75.7551,56.1633 77.0612,56.1633 77.4966,53.9864 77.932,49.6327 76.6259,50.5034 75.7551,55.7279" stroke="#0cf4ea" stroke-width="2" /><polyline fill="none" points="56.1633,72.2721 61.8231,79.6735 67.483,68.7891 55.2925,70.966" stroke="#56ffa0" stroke-width="2" /><polyline fill="none" points="62.2585,79.6735 59.6463,92.7347 56.5986,96.6531 54.4218,98.3946 49.1973,98.3946 47.4558,97.5238 46.1497,93.6054" stroke="#a0ff56" stroke-width="2" /><polyline fill="none" points="61.3878,83.5918 60.9524,91.4286 63.1293,93.6054 73.5782,94.4762 78.3673,91.8639" stroke="#eaff0c" stroke-width="2" /><polyline fill="none" points="65.7415,73.5782 98.3946,62.6939 117.9864,60.0816" stroke="#ffaa00" stroke-width="2" /><polyline fill="none" points="70.5306,76.1905 79.2381,76.1905 111.4558,80.1088" stroke="#ff5500" stroke-width="2" /><polyline fill="none" points="55.2925,74.449 37.8776,73.1429 23.0748,76.1905 8.7075,77.0612" stroke="#e80000" stroke-width="2" /><polyline fill="none" points="56.5986,76.1905 53.1156,75.7551 44.4082,77.0612 23.0748,83.1565" stroke="#7f0000" stroke-width="2" /></svg>