<?xml version="1.0" encoding="utf-8" ?>
<svg baseProfile="tiny" height="128" version="1.2" viewBox="0,0,128,128" width="128" xmlns="http://www.w3.org/2000/svg" xmlns:ev="http://www.w3.org/2001/xml-events" xmlns:xlink="http://www.w3.org/1999/xlink"><defs /><polyline fill="none" points="43.8237,45.1254 36.8814,46.4271 13.8847,60.7458 8.678,71.5932 9.1119,88.9492 14.7525,99.7966 23.4305,109.3424 29.0712,113.2475 36.8814,116.2847 48.5966,118.4542 68.5559,119.322 81.5729,118.4542 91.1186,113.6814 112.8136,97.1932 118.0203,85.9119 118.0203,71.5932 116.7186,63.3492 107.6068,46.4271 96.7593,35.5797 89.3831,33.4102 72.461,32.1085 63.7831,35.1458 52.5017,43.3898 44.6915,54.2373 44.2576,59.4441" stroke="#00007f" stroke-width="2" /><polyline fill="none" points="28.2034,53.3695 14.3186,26.0339 9.1119,8.678 11.2814,10.4136 20.8271,31.2407 31.6746,43.3898 35.1458,44.6915" stroke="#0028ff" stroke-width="2" /><polyline fill="none" points="90.6847,26.0339 93.2881,22.1288 105.0034,13.8847 105.0034,30.8068 98.9288,47.2949" stroke="#00d4ff" stroke-width="2" /><polyline fill="none" points="51.6339,66.3864 51.2,68.122 52.9356,68.122 53.8034,65.5186 53.3695,64.2169 51.6339,65.5186" stroke="#7cff79" stroke-width="2" /><polyline fill="none" points="77.2339,65.9525 78.9695,67.2542 79.4034,65.5186 75.0644,67.2542" stroke="#ffe500" stroke-width="2" /><polyline fill="none" points="62.9153,84.6102 62.9153,92.8542 58.5763,96.7593 49.4644,96.7593 38.6169,93.722 35.1458,91.5525 34.278,87.2136" stroke="#ff4600" stroke-width="2" /><polyline fill="none" points="62.9153,92.8542 67.6881,99.7966 71.5932,103.2678 78.1017,102.4 85.9119,94.5898" stroke="#7f0000" stroke-width="2" /></svg>