<?xml version="1.0" encoding="utf-8" ?>
<svg baseProfile="tiny" height="128" version="1.2" viewBox="0,0,128,128" width="128" xmlns="http://www.w3.org/2000/svg" xmlns:ev="http://www.w3.org/2001/xml-events" xmlns:xlink="http://www.w3.org/1999/xlink"><defs /><polyline fill="none" points="56.8407,51.2 50.3322,48.5966 43.8237,48.1627 28.6373,59.0102 25.6,62.9153 21.261,73.3288 20.3932,89.8169 23.4305,96.3254 29.5051,97.6271 41.6542,96.3254 54.2373,90.2508 68.122,79.8373 75.9322,75.9322 78.5356,72.8949 79.8373,67.2542 78.1017,60.7458 72.0271,54.6712 64.2169,52.0678 63.3492,48.5966 68.122,38.6169 74.6305,30.8068 88.0814,29.5051 99.7966,36.4475 105.0034,45.5593 105.0034,55.1051 103.2678,58.1424 85.478,62.4814 65.0847,62.4814 65.5186,59.0102 70.7254,52.5017" stroke="#00007f" stroke-width="2" /><polyline fill="none" points="72.8949,29.0712 68.5559,23.4305 65.0847,14.3186 73.7627,15.1864 82.4407,18.6576 85.478,29.5051 88.5153,27.7695" stroke="#0000f1" stroke-width="2" /><polyline fill="none" points="88.5153,27.3356 98.4949,8.678 98.4949,23.4305 100.2305,34.278" stroke="#004cff" stroke-width="2" /><polyline fill="none" points="90.6847,48.1627 87.2136,48.1627" stroke="#00b0ff" stroke-width="2" /><polyline fill="none" points="83.3085,37.7492 83.7424,37.7492" stroke="#29ffcd" stroke-width="2" /><polyline fill="none" points="89.8169,38.1831 89.8169,38.1831" stroke="#7cff79" stroke-width="2" /><polyline fill="none" points="38.1831,99.7966 37.7492,106.739" stroke="#cdff29" stroke-width="2" /><polyline fill="none" points="73.3288,84.6102 77.2339,95.8915 78.9695,90.2508" stroke="#ffc400" stroke-width="2" /><polyline fill="none" points="89.8169,38.6169 89.8169,38.6169" stroke="#ff6700" stroke-width="2" /><polyline fill="none" points="91.9864,36.4475 91.9864,37.7492" stroke="#f10700" stroke-width="2" /><polyline fill="none" points="18.6576,77.2339 17.3559,87.6475 9.1119,119.322 8.678,116.2847 9.1119,107.1729 15.1864,89.8169 18.6576,95.0237 20.8271,87.6475 22.9966,91.5525 20.3932,106.3051 17.7898,103.2678 18.6576,96.7593 19.0915,98.9288" stroke="#7f0000" stroke-width="2" /></svg>