<?xml version="1.0" encoding="utf-8" ?>
<svg baseProfile="tiny" height="128" version="1.2" viewBox="0,0,128,128" width="128" xmlns="http://www.w3.org/2000/svg" xmlns:ev="http://www.w3.org/2001/xml-events" xmlns:xlink="http://www.w3.org/1999/xlink"><defs /><polyline fill="none" points="76.8,24.7322 72.0271,22.1288 67.6881,22.1288 56.8407,26.4678 44.6915,36.0136 35.1458,46.4271 28.6373,59.878 26.9017,69.4237 27.3356,76.8 31.2407,85.478 38.1831,92.8542 44.6915,96.7593 52.0678,98.4949 66.3864,98.9288 78.1017,95.0237 94.5898,80.7051 99.7966,68.122 101.0983,60.3119 100.2305,47.7288 95.4576,36.4475 90.2508,28.6373 80.7051,23.4305 74.6305,21.6949" stroke="#00007f" stroke-width="2" /><polyline fill="none" points="37.7492,39.4847 34.7119,34.278 31.2407,9.1119 34.278,8.678 45.1254,15.6203 47.7288,19.5254 51.2,30.3729" stroke="#0010ff" stroke-width="2" /><polyline fill="none" points="91.5525,26.0339 102.4,15.1864 119.322,10.8475 107.1729,41.2203 103.7017,47.2949 100.6644,48.5966" stroke="#00a4ff" stroke-width="2" /><polyline fill="none" points="36.8814,57.2746 33.8441,52.5017 19.5254,45.1254 19.9593,46.861" stroke="#3fffb7" stroke-width="2" /><polyline fill="none" points="30.8068,69.4237 14.3186,62.9153" stroke="#b7ff3f" stroke-width="2" /><polyline fill="none" points="32.1085,77.2339 25.6,76.8 8.678,81.5729" stroke="#ffb900" stroke-width="2" /><polyline fill="none" points="89.3831,58.1424 92.4203,59.4441 106.3051,59.4441 115.4169,61.6136" stroke="#ff3000" stroke-width="2" /><polyline fill="none" points="90.6847,73.7627 113.2475,85.478" stroke="#7f0000" stroke-width="2" /></svg>