<?xml version="1.0" encoding="utf-8" ?>
<svg baseProfile="tiny" height="128" version="1.2" viewBox="0,0,128,128" width="128" xmlns="http://www.w3.org/2000/svg" xmlns:ev="http://www.w3.org/2001/xml-events" xmlns:xlink="http://www.w3.org/1999/xlink"><defs /><polyline fill="none" points="91.9864,33.4102 91.9864,8.678 88.9492,12.5831 83.3085,26.0339 78.5356,32.9763 60.7458,31.2407 61.1797,13.0169 60.7458,10.4136 59.4441,11.2814 56.4068,25.6 47.7288,46.4271 44.6915,69.4237 50.3322,68.9898 62.4814,72.8949 77.6678,73.7627 85.0441,72.8949 86.3458,71.1593 86.7797,42.522 91.1186,33.4102" stroke="#00007f" stroke-width="2" /><polyline fill="none" points="65.5186,56.4068 98.061,56.4068 119.322,60.3119" stroke="#0028ff" stroke-width="2" /><polyline fill="none" points="66.3864,55.1051 66.8203,56.4068 73.3288,57.7085 112.8136,59.0102 116.2847,59.4441 116.7186,61.1797" stroke="#00d4ff" stroke-width="2" /><polyline fill="none" points="66.8203,55.539 56.8407,53.8034 10.8475,51.6339" stroke="#7cff79" stroke-width="2" /><polyline fill="none" points="65.0847,55.1051 54.6712,55.9729 34.278,61.6136 8.678,65.5186" stroke="#ffe500" stroke-width="2" /><polyline fill="none" points="76.3661,38.1831 75.0644,37.3153" stroke="#ff4600" stroke-width="2" /><polyline fill="none" points="66.3864,39.9186 66.3864,39.9186" stroke="#7f0000" stroke-width="2" /></svg>