<?xml version="1.0" encoding="utf-8" ?>
<svg baseProfile="tiny" height="128" version="1.2" viewBox="0,0,128,128" width="128" xmlns="http://www.w3.org/2000/svg" xmlns:ev="http://www.w3.org/2001/xml-events" xmlns:xlink="http://www.w3.org/1999/xlink"><defs /><polyline fill="none" points="15.2381,59.6463 19.5918,40.9252 27.4286,16.5442 30.9116,25.2517 38.3129,36.5714 42.2313,40.4898 47.4558,43.102" stroke="#00007f" stroke-width="2" /><polyline fill="none" points="81.415,40.0544 90.9932,18.7211 95.3469,12.6259 100.5714,8.7075 105.3605,17.415 112.3265,45.7143" stroke="#0000fe" stroke-width="2" /><polyline fill="none" points="82.2857,41.7959 64.0,36.1361 49.6327,37.8776 46.1497,39.1837 45.2789,41.7959" stroke="#0060ff" stroke-width="2" /><polyline fill="none" points="9.1429,60.9524 8.7075,67.483 11.3197,75.3197 16.9796,84.4626 22.2041,87.9456 49.1973,97.0884 54.8571,98.3946 71.4014,96.6531 94.9116,89.2517 111.4558,77.4966 117.1156,68.7891 118.4218,64.8707 119.2925,47.4558 117.551,40.0544 116.6803,38.3129 115.3741,39.619" stroke="#00d4ff" stroke-width="2" /><polyline fill="none" points="24.381,71.4014 23.9456,68.3537 26.1224,65.3061 36.5714,56.5986 41.3605,55.2925 49.6327,57.034" stroke="#4cffaa" stroke-width="2" /><polyline fill="none" points="24.8163,70.966 26.1224,73.1429 29.6054,74.8844 36.5714,74.449 42.6667,71.8367 48.3265,67.0476 50.9388,61.3878 51.8095,56.5986" stroke="#aaff4c" stroke-width="2" /><polyline fill="none" points="66.6122,65.3061 67.0476,62.6939 73.5782,56.1633 82.2857,51.3741 90.9932,48.7619 99.7007,49.6327" stroke="#ffe500" stroke-width="2" /><polyline fill="none" points="63.5646,65.3061 78.3673,69.2245 84.4626,69.6599 88.381,68.3537 94.4762,62.6939 97.0884,57.4694 97.5238,52.2449 96.6531,48.3265 95.3469,48.7619" stroke="#ff7a00" stroke-width="2" /><polyline fill="none" points="60.0816,78.8027 68.3537,80.1088 63.5646,77.932 63.5646,79.6735 65.7415,80.9796 64.8707,78.8027 63.1293,78.8027 62.6939,80.9796 64.8707,84.898 70.0952,87.5102 74.449,86.2041 81.8503,81.415 90.1224,69.6599" stroke="#fe1200" stroke-width="2" /><polyline fill="none" points="65.3061,79.6735 55.7279,89.6871" stroke="#7f0000" stroke-width="2" /></svg>