<?xml version="1.0" encoding="utf-8" ?>
<svg baseProfile="tiny" height="128" version="1.2" viewBox="0,0,128,128" width="128" xmlns="http://www.w3.org/2000/svg" xmlns:ev="http://www.w3.org/2001/xml-events" xmlns:xlink="http://www.w3.org/1999/xlink"><defs /><polyline fill="none" points="28.2034,37.7492 26.4678,31.2407 20.3932,21.6949 16.0542,16.4881 8.678,11.7153 19.5254,48.1627" stroke="#00007f" stroke-width="2" /><polyline fill="none" points="17.7898,49.0305 30.3729,41.2203 53.3695,22.9966 64.2169,23.8644 86.3458,33.4102 98.9288,47.7288" stroke="#00d4ff" stroke-width="2" /><polyline fill="none" points="80.2712,31.6746 101.5322,9.9797 104.5695,8.678 106.3051,11.2814 104.1356,19.0915 86.7797,56.8407 86.3458,55.539" stroke="#ffe500" stroke-width="2" /><polyline fill="none" points="98.061,43.8237 104.5695,54.2373 107.1729,62.4814 107.1729,94.5898 94.5898,114.5492 83.3085,118.4542 72.8949,119.322 32.5424,119.322 22.1288,113.6814 16.0542,99.7966 13.8847,91.1186 13.0169,47.2949 16.4881,46.861" stroke="#7f0000" stroke-width="2" /></svg>