<?xml version="1.0" encoding="utf-8" ?>
<svg baseProfile="tiny" height="128" version="1.2" viewBox="0,0,128,128" width="128" xmlns="http://www.w3.org/2000/svg" xmlns:ev="http://www.w3.org/2001/xml-events" xmlns:xlink="http://www.w3.org/1999/xlink"><defs /><polyline fill="none" points="63.7831,29.0712 56.8407,25.6 49.0305,26.9017 42.522,32.1085 35.5797,40.3525 32.5424,52.9356 32.9763,59.878 36.4475,72.0271 42.522,80.2712 52.9356,87.2136 61.1797,89.3831 67.6881,88.9492 73.7627,86.7797 79.8373,82.4407 85.9119,72.0271 87.2136,65.5186 87.2136,55.9729 83.3085,43.3898 70.7254,28.2034 60.3119,25.6" stroke="#00007f" stroke-width="2" /><polyline fill="none" points="40.3525,33.4102 40.3525,19.0915 47.2949,8.678 51.2,11.7153 61.1797,29.939" stroke="#0000ff" stroke-width="2" /><polyline fill="none" points="70.7254,28.2034 86.3458,16.922 91.5525,16.4881 92.4203,21.261 84.1763,38.1831 82.4407,49.0305" stroke="#0080ff" stroke-width="2" /><polyline fill="none" points="36.4475,55.539 30.8068,50.7661 21.6949,45.5593 11.2814,44.6915 8.678,45.9932" stroke="#15ffe1" stroke-width="2" /><polyline fill="none" points="41.2203,64.2169 34.7119,68.122 25.1661,76.8 18.2237,88.0814" stroke="#7cff79" stroke-width="2" /><polyline fill="none" points="46.4271,73.7627 36.4475,88.9492 31.6746,99.7966 30.8068,105.0034" stroke="#e4ff12" stroke-width="2" /><polyline fill="none" points="79.8373,56.8407 95.4576,54.2373 108.9085,50.3322 119.322,49.0305" stroke="#ff9400" stroke-width="2" /><polyline fill="none" points="75.9322,65.9525 97.6271,75.4983 107.6068,82.0068" stroke="#ff1d00" stroke-width="2" /><polyline fill="none" points="76.3661,80.2712 94.5898,99.3627 101.9661,110.2102" stroke="#7f0000" stroke-width="2" /></svg>