<?xml version="1.0" encoding="utf-8" ?>
<svg baseProfile="tiny" height="128" version="1.2" viewBox="0,0,128,128" width="128" xmlns="http://www.w3.org/2000/svg" xmlns:ev="http://www.w3.org/2001/xml-events" xmlns:xlink="http://www.w3.org/1999/xlink"><defs /><polyline fill="none" points="51.6339,32.1085 42.9559,35.5797 25.6,52.0678 21.6949,57.7085 19.0915,61.6136 16.922,71.1593 16.922,85.0441 21.6949,97.1932 37.3153,117.1525 41.6542,119.322 60.3119,119.322 72.0271,111.9458 82.4407,103.2678 85.9119,94.1559 85.9119,88.9492 89.8169,80.2712 90.6847,66.3864 85.0441,58.5763 72.0271,47.7288 44.2576,34.7119" stroke="#00007f" stroke-width="2" /><polyline fill="none" points="16.922,55.9729 9.5458,27.7695 8.678,16.0542 13.8847,17.7898 18.2237,22.1288 31.2407,39.4847" stroke="#0000fe" stroke-width="2" /><polyline fill="none" points="63.3492,38.6169 78.5356,8.678 81.139,12.5831 82.8746,22.5627 82.8746,50.3322" stroke="#0060ff" stroke-width="2" /><polyline fill="none" points="39.4847,58.1424 39.4847,59.0102" stroke="#00d4ff" stroke-width="2" /><polyline fill="none" points="59.878,54.2373 59.878,52.5017" stroke="#4cffaa" stroke-width="2" /><polyline fill="none" points="47.7288,86.7797 49.4644,77.2339 54.2373,72.8949 56.4068,76.8 52.5017,77.2339 51.2,82.0068" stroke="#aaff4c" stroke-width="2" /><polyline fill="none" points="47.7288,75.4983 30.8068,75.4983 18.6576,77.2339 19.0915,77.6678" stroke="#ffe500" stroke-width="2" /><polyline fill="none" points="49.4644,78.5356 33.8441,84.1763 25.6,89.8169 25.6,91.5525" stroke="#ff7a00" stroke-width="2" /><polyline fill="none" points="57.2746,73.7627 70.2915,66.3864 72.8949,63.3492" stroke="#fe1200" stroke-width="2" /><polyline fill="none" points="59.878,78.5356 59.878,78.5356" stroke="#7f0000" stroke-width="2" /></svg>