<?xml version="1.0" encoding="utf-8" ?>
<svg baseProfile="tiny" height="128" version="1.2" viewBox="0,0,128,128" width="128" xmlns="http://www.w3.org/2000/svg" xmlns:ev="http://www.w3.org/2001/xml-events" xmlns:xlink="http://www.w3.org/1999/xlink"><defs /><polyline fill="none" points="59.4441,98.4949 50.3322,99.3627 41.2203,95.0237 32.5424,86.7797 27.7695,75.0644 29.5051,59.878 38.6169,49.0305 49.0305,43.3898 54.6712,42.0881 65.5186,42.522 75.0644,46.861 80.2712,50.3322 91.1186,64.2169 93.2881,72.8949 93.2881,81.139 92.8542,83.7424 88.5153,89.3831 72.8949,98.061 60.3119,102.4 48.1627,103.7017 46.861,101.9661" stroke="#00007f" stroke-width="2" /><polyline fill="none" points="19.5254,57.2746 17.3559,54.2373 11.2814,29.939 8.678,8.678 31.2407,28.6373 46.4271,40.3525 57.7085,47.2949" stroke="#0010ff" stroke-width="2" /><polyline fill="none" points="75.0644,53.8034 97.6271,23.4305 108.9085,13.8847 118.0203,9.9797 119.322,12.1492 98.4949,65.5186" stroke="#00a4ff" stroke-width="2" /><polyline fill="none" points="68.5559,73.3288 85.9119,82.0068 92.4203,86.7797" stroke="#3fffb7" stroke-width="2" /><polyline fill="none" points="67.2542,82.8746 89.3831,91.5525 92.4203,91.9864" stroke="#b7ff3f" stroke-width="2" /><polyline fill="none" points="52.9356,70.2915 43.8237,68.122 19.5254,66.3864" stroke="#ffb900" stroke-width="2" /><polyline fill="none" points="51.2,77.2339 43.3898,76.3661 28.6373,80.7051" stroke="#ff3000" stroke-width="2" /><polyline fill="none" points="59.878,76.8 61.1797,74.1966 60.7458,77.6678 59.4441,70.7254" stroke="#7f0000" stroke-width="2" /></svg>