<?xml version="1.0" encoding="utf-8" ?>
<svg baseProfile="tiny" height="128" version="1.2" viewBox="0,0,128,128" width="128" xmlns="http://www.w3.org/2000/svg" xmlns:ev="http://www.w3.org/2001/xml-events" xmlns:xlink="http://www.w3.org/1999/xlink"><defs /><polyline fill="none" points="32.1085,38.1831 32.5424,36.0136 37.3153,32.1085 47.2949,27.7695 64.6508,26.4678 69.4237,28.2034 80.7051,38.6169 90.2508,27.3356 99.3627,12.5831 96.3254,37.7492 96.3254,87.2136 93.722,94.5898 83.7424,107.1729 68.9898,116.7186 59.0102,119.322 46.4271,119.322 38.6169,113.6814 32.5424,105.4373 28.2034,96.3254 25.6,85.478 20.8271,8.678 27.3356,22.5627 31.2407,35.1458 34.7119,39.4847" stroke="#00007f" stroke-width="2" /><polyline fill="none" points="35.5797,63.3492 8.678,76.8" stroke="#0028ff" stroke-width="2" /><polyline fill="none" points="32.9763,76.8 17.3559,84.1763 8.678,91.1186" stroke="#00d4ff" stroke-width="2" /><polyline fill="none" points="34.7119,91.5525 14.3186,101.5322 12.1492,102.8339 13.0169,104.1356" stroke="#7cff79" stroke-width="2" /><polyline fill="none" points="82.0068,62.4814 110.2102,74.6305" stroke="#ffe500" stroke-width="2" /><polyline fill="none" points="80.7051,75.4983 95.0237,82.4407 111.5119,94.1559" stroke="#ff4600" stroke-width="2" /><polyline fill="none" points="80.2712,94.5898 91.9864,107.6068 105.4373,118.8881" stroke="#7f0000" stroke-width="2" /></svg>