<?xml version="1.0" encoding="utf-8" ?>
<svg baseProfile="tiny" height="128" version="1.2" viewBox="0,0,128,128" width="128" xmlns="http://www.w3.org/2000/svg" xmlns:ev="http://www.w3.org/2001/xml-events" xmlns:xlink="http://www.w3.org/1999/xlink"><defs /><polyline fill="none" points="32.5424,75.9322 26.0339,75.4983 9.5458,82.4407 8.678,85.0441 9.1119,102.8339 13.8847,111.5119 30.8068,118.8881 44.6915,119.322 47.7288,117.5864 55.539,101.9661 65.0847,90.6847 68.9898,82.4407 55.1051,72.461 45.5593,72.461 37.3153,77.2339" stroke="#00007f" stroke-width="2" /><polyline fill="none" points="19.5254,77.2339 27.3356,57.2746 31.6746,30.3729 35.5797,16.922 38.1831,39.0508 41.6542,52.0678 44.2576,72.461" stroke="#0028ff" stroke-width="2" /><polyline fill="none" points="55.1051,72.0271 62.0475,53.3695 76.3661,33.4102 87.2136,13.8847 91.9864,8.678 91.9864,11.7153 81.5729,37.3153 78.1017,54.6712 75.0644,60.7458 67.6881,67.2542 65.0847,67.2542 63.3492,72.0271 60.7458,73.7627" stroke="#00d4ff" stroke-width="2" /><polyline fill="none" points="27.7695,91.1186 27.7695,91.1186" stroke="#7cff79" stroke-width="2" /><polyline fill="none" points="28.2034,90.6847 23.4305,89.3831 21.261,90.6847 23.8644,92.4203 26.4678,92.4203 28.6373,90.2508 24.7322,89.8169 24.2983,92.4203 21.261,88.5153" stroke="#ffe500" stroke-width="2" /><polyline fill="none" points="42.9559,88.9492 48.5966,88.9492 49.4644,86.7797 46.861,84.6102 44.2576,84.6102 42.9559,90.2508 45.5593,90.6847 46.861,88.5153 45.1254,88.0814 44.2576,90.6847 46.4271,91.1186 47.2949,88.9492 43.8237,88.9492" stroke="#ff4600" stroke-width="2" /><polyline fill="none" points="32.5424,101.5322 34.7119,101.5322 35.5797,104.1356 31.6746,107.6068 32.1085,103.2678" stroke="#7f0000" stroke-width="2" /></svg>