<?xml version="1.0" encoding="utf-8" ?>
<svg baseProfile="tiny" height="128" version="1.2" viewBox="0,0,128,128" width="128" xmlns="http://www.w3.org/2000/svg" xmlns:ev="http://www.w3.org/2001/xml-events" xmlns:xlink="http://www.w3.org/1999/xlink"><defs /><polyline fill="none" points="64.2169,39.0508 58.5763,42.9559 36.8814,50.3322 22.5627,56.8407 15.1864,65.5186 15.1864,82.0068 25.1661,92.4203 37.3153,98.9288 43.3898,100.6644 70.7254,100.6644 82.0068,95.8915 85.0441,91.9864 88.9492,81.5729 88.9492,65.9525 83.3085,59.878 65.9525,51.2" stroke="#00007f" stroke-width="2" /><polyline fill="none" points="32.5424,47.2949 32.5424,47.2949" stroke="#0000ff" stroke-width="2" /><polyline fill="none" points="40.7864,48.5966 37.7492,39.0508 32.9763,30.8068 16.922,10.4136 13.8847,16.0542 13.0169,33.8441 8.678,48.5966" stroke="#0080ff" stroke-width="2" /><polyline fill="none" points="74.1966,48.1627 74.1966,42.0881 85.478,29.939 96.3254,21.261 118.4542,8.678 119.322,13.4508 118.0203,29.939 114.9831,45.1254 105.8712,69.4237" stroke="#15ffe1" stroke-width="2" /><polyline fill="none" points="43.3898,67.2542 43.3898,67.2542" stroke="#7cff79" stroke-width="2" /><polyline fill="none" points="71.1593,62.0475 71.1593,62.0475" stroke="#e4ff12" stroke-width="2" /><polyline fill="none" points="45.1254,70.2915 45.1254,70.2915" stroke="#ff9400" stroke-width="2" /><polyline fill="none" points="41.2203,65.9525 45.1254,68.122 48.1627,65.0847" stroke="#ff1d00" stroke-width="2" /><polyline fill="none" points="67.2542,65.0847 70.2915,68.122" stroke="#7f0000" stroke-width="2" /></svg>