<?xml version="1.0" encoding="utf-8" ?>
<svg baseProfile="tiny" height="128" version="1.2" viewBox="0,0,128,128" width="128" xmlns="http://www.w3.org/2000/svg" xmlns:ev="http://www.w3.org/2001/xml-events" xmlns:xlink="http://www.w3.org/1999/xlink"><defs /><polyline fill="none" points="19.9593,56.4068 16.0542,72.0271 16.0542,92.8542 17.7898,97.6271 23.8644,106.739 29.0712,110.6441 32.5424,110.2102 34.278,106.739 36.0136,97.1932 38.1831,70.7254 33.4102,61.1797 26.9017,55.9729 23.4305,55.1051 18.6576,57.7085" stroke="#00007f" stroke-width="2" /><polyline fill="none" points="20.8271,53.8034 15.6203,57.2746 10.4136,42.522 8.678,29.0712 26.9017,26.0339 39.0508,26.0339 42.9559,27.3356 43.3898,37.3153 37.3153,51.2 33.4102,56.4068 29.939,57.7085 26.4678,56.4068" stroke="#0000ff" stroke-width="2" /><polyline fill="none" points="10.4136,12.5831 13.4508,28.6373" stroke="#0080ff" stroke-width="2" /><polyline fill="none" points="10.8475,16.922 19.9593,22.9966 27.7695,29.939" stroke="#15ffe1" stroke-width="2" /><polyline fill="none" points="42.522,8.678 34.278,15.6203 28.2034,22.9966" stroke="#7cff79" stroke-width="2" /><polyline fill="none" points="41.6542,10.4136 41.6542,25.1661 40.3525,29.939" stroke="#e4ff12" stroke-width="2" /><polyline fill="none" points="21.261,105.8712 19.0915,110.6441 19.5254,112.8136 22.9966,112.8136 23.4305,108.4746" stroke="#ff9400" stroke-width="2" /><polyline fill="none" points="30.8068,108.9085 40.7864,109.3424 37.7492,104.5695 32.1085,101.5322" stroke="#ff1d00" stroke-width="2" /><polyline fill="none" points="34.7119,97.1932 39.4847,96.7593 56.8407,86.7797 68.9898,76.3661 82.4407,61.1797 90.6847,56.8407 104.1356,52.9356 111.9458,52.9356 117.5864,56.4068 119.322,61.6136 118.8881,70.7254 117.1525,73.3288 97.6271,84.1763 46.4271,99.7966 35.5797,100.2305 35.1458,102.4" stroke="#7f0000" stroke-width="2" /></svg>