<?xml version="1.0" encoding="utf-8" ?>
<svg baseProfile="tiny" height="128" version="1.2" viewBox="0,0,128,128" width="128" xmlns="http://www.w3.org/2000/svg" xmlns:ev="http://www.w3.org/2001/xml-events" xmlns:xlink="http://www.w3.org/1999/xlink"><defs /><polyline fill="none" points="69.8576,58.1424 66.3864,53.8034 59.0102,50.7661 39.0508,50.7661 27.3356,56.4068 17.7898,66.3864 13.0169,77.2339 11.7153,82.4407 12.1492,101.9661 18.6576,112.8136 28.6373,118.4542 50.3322,119.322 55.9729,117.1525 64.6508,111.078 74.1966,98.061 79.8373,78.1017 79.8373,69.8576 76.3661,61.1797 69.4237,53.8034" stroke="#00007f" stroke-width="2" /><polyline fill="none" points="63.7831,48.5966 62.4814,42.9559 63.7831,38.6169 77.2339,15.1864 82.0068,9.5458 85.478,8.678 85.9119,27.7695 78.5356,57.2746" stroke="#0010ff" stroke-width="2" /><polyline fill="none" points="70.7254,50.7661 69.8576,46.4271 74.1966,42.9559 74.1966,46.4271 71.1593,49.0305 68.5559,48.5966" stroke="#00a4ff" stroke-width="2" /><polyline fill="none" points="36.4475,58.1424 23.8644,39.4847 9.5458,13.0169 8.678,45.1254 15.1864,66.8203 17.7898,71.1593 19.5254,71.5932" stroke="#3fffb7" stroke-width="2" /><polyline fill="none" points="27.3356,58.1424 22.1288,56.4068 26.0339,59.0102 26.4678,52.0678" stroke="#b7ff3f" stroke-width="2" /><polyline fill="none" points="57.2746,75.0644 55.9729,78.5356 55.1051,73.7627 52.9356,71.5932" stroke="#ffb900" stroke-width="2" /><polyline fill="none" points="29.5051,79.4034 32.1085,87.6475 32.9763,78.5356" stroke="#ff3000" stroke-width="2" /><polyline fill="none" points="32.9763,104.1356 36.4475,109.3424 46.4271,109.3424 54.6712,103.7017 58.5763,98.4949 59.4441,95.8915" stroke="#7f0000" stroke-width="2" /></svg>