<?xml version="1.0" encoding="utf-8" ?>
<svg baseProfile="tiny" height="128" version="1.2" viewBox="0,0,128,128" width="128" xmlns="http://www.w3.org/2000/svg" xmlns:ev="http://www.w3.org/2001/xml-events" xmlns:xlink="http://www.w3.org/1999/xlink"><defs /><polyline fill="none" points="22.9966,51.6339 19.9593,67.6881 22.1288,79.8373 27.7695,91.1186 36.0136,98.9288 46.4271,102.8339 60.3119,103.2678 75.4983,100.6644 80.2712,98.4949 87.6475,91.9864 93.2881,83.7424 95.4576,74.1966 92.8542,67.2542 82.8746,53.8034 82.0068,48.1627 83.3085,42.522 92.8542,21.261 93.722,9.9797 90.6847,8.678 87.2136,9.5458 76.3661,19.0915 73.3288,23.4305 69.4237,43.3898 66.8203,44.2576 51.2,37.7492 44.6915,37.7492 41.6542,36.4475 21.6949,15.6203 22.5627,49.0305 23.8644,50.7661" stroke="#00007f" stroke-width="2" /><polyline fill="none" points="65.5186,45.1254 87.6475,12.5831 85.0441,24.2983 82.4407,53.8034 82.8746,56.8407 84.6102,58.1424" stroke="#0000de" stroke-width="2" /><polyline fill="none" points="44.2576,62.9153 43.3898,62.9153" stroke="#0028ff" stroke-width="2" /><polyline fill="none" points="67.6881,61.1797 67.6881,61.1797" stroke="#0080ff" stroke-width="2" /><polyline fill="none" points="56.8407,75.4983 57.7085,77.6678 60.3119,79.4034 68.122,78.5356 96.3254,63.3492" stroke="#00d4ff" stroke-width="2" /><polyline fill="none" points="61.6136,79.8373 45.9932,81.5729 42.522,80.7051 39.0508,77.2339" stroke="#36ffc0" stroke-width="2" /><polyline fill="none" points="54.6712,84.6102 56.4068,88.9492 62.9153,93.722 67.2542,94.1559 74.6305,88.9492" stroke="#7cff79" stroke-width="2" /><polyline fill="none" points="72.8949,80.7051 98.9288,63.7831" stroke="#c0ff36" stroke-width="2" /><polyline fill="none" points="86.3458,80.7051 98.4949,77.6678 109.3424,77.6678" stroke="#ffe500" stroke-width="2" /><polyline fill="none" points="78.1017,83.7424 93.722,88.9492" stroke="#ff9400" stroke-width="2" /><polyline fill="none" points="39.9186,84.1763 16.4881,74.1966 8.678,69.4237" stroke="#ff4600" stroke-width="2" /><polyline fill="none" points="49.0305,92.4203 23.8644,104.1356 17.3559,109.3424" stroke="#de0000" stroke-width="2" /><polyline fill="none" points="39.0508,89.3831 24.7322,105.0034 13.8847,119.322" stroke="#7f0000" stroke-width="2" /></svg>