<?xml version="1.0" encoding="utf-8" ?>
<svg baseProfile="tiny" height="128" version="1.2" viewBox="0,0,128,128" width="128" xmlns="http://www.w3.org/2000/svg" xmlns:ev="http://www.w3.org/2001/xml-events" xmlns:xlink="http://www.w3.org/1999/xlink"><defs /><polyline fill="none" points="26.0339,47.2949 21.261,46.861 12.5831,39.9186 8.678,33.8441 8.678,29.939 11.2814,26.4678 15.6203,23.4305 20.8271,21.261 30.8068,19.9593 38.6169,22.5627 41.2203,25.6 41.2203,29.939 39.9186,35.5797 35.1458,43.8237 28.2034,47.2949" stroke="#00007f" stroke-width="2" /><polyline fill="none" points="82.0068,65.5186 73.7627,67.2542 59.878,65.5186 45.9932,61.6136 34.278,55.1051 32.5424,51.2 37.3153,47.2949 59.878,41.6542 76.8,41.6542 82.8746,45.9932 83.3085,54.2373 78.5356,65.9525" stroke="#0000fe" stroke-width="2" /><polyline fill="none" points="86.7797,55.1051 85.478,52.9356 88.0814,22.1288 89.3831,17.3559 93.722,14.3186 97.6271,13.8847 111.078,14.7525 119.322,13.8847" stroke="#0060ff" stroke-width="2" /><polyline fill="none" points="43.3898,62.4814 37.3153,68.9898 34.278,79.8373" stroke="#00d4ff" stroke-width="2" /><polyline fill="none" points="54.6712,68.5559 48.1627,76.8 43.8237,85.9119" stroke="#4cffaa" stroke-width="2" /><polyline fill="none" points="68.5559,65.9525 70.7254,67.6881 82.8746,85.9119" stroke="#aaff4c" stroke-width="2" /><polyline fill="none" points="79.8373,64.6508 91.1186,85.0441" stroke="#ffe500" stroke-width="2" /><polyline fill="none" points="30.3729,25.6 29.5051,21.6949 29.939,16.0542 34.7119,9.5458 36.4475,8.678 37.7492,10.8475 37.7492,22.1288" stroke="#ff7a00" stroke-width="2" /><polyline fill="none" points="24.2983,29.939 23.8644,30.3729" stroke="#fe1200" stroke-width="2" /><polyline fill="none" points="14.7525,39.4847 18.6576,39.9186 23.8644,37.7492" stroke="#7f0000" stroke-width="2" /></svg>