<?xml version="1.0" encoding="utf-8" ?>
<svg baseProfile="tiny" height="128" version="1.2" viewBox="0,0,128,128" width="128" xmlns="http://www.w3.org/2000/svg" xmlns:ev="http://www.w3.org/2001/xml-events" xmlns:xlink="http://www.w3.org/1999/xlink"><defs /><polyline fill="none" points="25.6,39.0508 8.678,62.4814" stroke="#00007f" stroke-width="2" /><polyline fill="none" points="26.0339,38.6169 26.9017,42.0881 38.1831,63.7831" stroke="#0000cc" stroke-width="2" /><polyline fill="none" points="23.8644,35.5797 16.0542,36.8814 10.8475,35.5797 11.7153,26.4678" stroke="#0008ff" stroke-width="2" /><polyline fill="none" points="24.7322,33.8441 61.1797,34.7119" stroke="#004cff" stroke-width="2" /><polyline fill="none" points="61.1797,34.7119 62.4814,45.5593 61.1797,60.3119" stroke="#0090ff" stroke-width="2" /><polyline fill="none" points="66.3864,30.3729 70.2915,58.5763 73.7627,68.122" stroke="#00d4ff" stroke-width="2" /><polyline fill="none" points="64.6508,31.6746 73.7627,36.4475 76.3661,36.0136 78.5356,33.4102 77.6678,25.6 66.8203,16.922 63.7831,20.8271 61.1797,28.6373 59.878,36.8814 61.1797,39.4847" stroke="#29ffcd" stroke-width="2" /><polyline fill="none" points="63.7831,25.1661 65.0847,8.678 69.4237,16.4881 83.3085,21.6949 72.461,31.6746" stroke="#5fff96" stroke-width="2" /><polyline fill="none" points="69.4237,31.2407 93.2881,36.4475 119.322,37.3153" stroke="#96ff5f" stroke-width="2" /><polyline fill="none" points="75.4983,26.9017 82.4407,28.2034 106.3051,28.2034" stroke="#cdff29" stroke-width="2" /><polyline fill="none" points="62.4814,25.6 55.9729,25.1661 45.9932,16.4881" stroke="#ffe500" stroke-width="2" /><polyline fill="none" points="62.9153,32.9763 49.4644,33.4102 45.9932,30.3729" stroke="#ffa600" stroke-width="2" /><polyline fill="none" points="68.122,25.6 68.122,25.6" stroke="#ff6700" stroke-width="2" /><polyline fill="none" points="68.122,25.6 69.8576,26.0339" stroke="#ff2800" stroke-width="2" /><polyline fill="none" points="71.5932,26.4678 72.461,26.4678" stroke="#cc0000" stroke-width="2" /><polyline fill="none" points="66.8203,32.1085 68.5559,32.1085" stroke="#7f0000" stroke-width="2" /></svg>