<?xml version="1.0" encoding="utf-8" ?>
<svg baseProfile="tiny" height="128" version="1.2" viewBox="0,0,128,128" width="128" xmlns="http://www.w3.org/2000/svg" xmlns:ev="http://www.w3.org/2001/xml-events" xmlns:xlink="http://www.w3.org/1999/xlink"><defs /><polyline fill="none" points="28.7347,57.034 28.7347,50.9388 31.3469,41.7959 37.4422,32.2177 47.0204,26.9932 68.7891,26.9932 77.932,32.6531 83.1565,45.7143 88.381,33.9592 106.2313,8.7075 107.5374,11.7551 107.5374,34.3946 105.7959,38.3129 105.7959,49.1973" stroke="#00007f" stroke-width="2" /><polyline fill="none" points="23.9456,57.034 23.9456,47.0204 22.2041,43.9728 14.8027,39.1837 8.7075,31.3469 13.4966,50.068 13.4966,79.2381 12.1905,88.8163 16.9796,103.1837 18.2857,113.6327 42.6667,118.4218 60.0816,119.2925 67.0476,109.2789 75.7551,102.7483 77.0612,99.7007 96.6531,80.1088 100.1361,70.5306 103.1837,68.7891 104.9252,62.6939 105.7959,43.9728 104.4898,40.0544" stroke="#0000fe" stroke-width="2" /><polyline fill="none" points="53.551,74.0136 56.5986,76.1905 59.2109,74.449 59.6463,67.9184 56.5986,67.483 53.9864,72.2721" stroke="#0060ff" stroke-width="2" /><polyline fill="none" points="53.551,72.2721 52.6803,87.9456 49.1973,89.6871 43.102,89.6871 39.619,87.5102 38.3129,84.4626 43.9728,82.2857" stroke="#00d4ff" stroke-width="2" /><polyline fill="none" points="52.2449,79.2381 52.2449,89.2517 53.9864,92.7347 56.5986,95.7823 59.2109,96.2177 60.9524,93.6054 60.9524,90.5578" stroke="#4cffaa" stroke-width="2" /><polyline fill="none" points="61.3878,72.7075 96.2177,71.4014" stroke="#aaff4c" stroke-width="2" /><polyline fill="none" points="64.0,83.1565 74.8844,87.5102 89.2517,89.6871" stroke="#ffe500" stroke-width="2" /><polyline fill="none" points="44.4082,70.966 29.6054,69.6599 22.2041,72.7075" stroke="#ff7a00" stroke-width="2" /><polyline fill="none" points="54.4218,77.4966 50.068,81.415 41.3605,85.3333 34.3946,85.7687 18.2857,90.9932 17.415,89.6871" stroke="#fe1200" stroke-width="2" /><polyline fill="none" points="26.1224,72.2721 30.9116,60.517" stroke="#7f0000" stroke-width="2" /></svg>