<?xml version="1.0" encoding="utf-8" ?>
<svg baseProfile="tiny" height="128" version="1.2" viewBox="0,0,128,128" width="128" xmlns="http://www.w3.org/2000/svg" xmlns:ev="http://www.w3.org/2001/xml-events" xmlns:xlink="http://www.w3.org/1999/xlink"><defs /><polyline fill="none" points="53.3695,22.5627 56.8407,8.678 61.1797,22.5627 69.4237,17.7898 80.2712,17.3559 91.1186,20.8271 93.722,22.9966 94.1559,27.7695 97.1932,19.5254 100.2305,15.6203 107.1729,37.7492 106.3051,46.861 102.4,52.5017 98.4949,53.3695 81.139,53.8034 68.5559,51.2 63.7831,48.1627 58.5763,42.522 52.0678,26.0339" stroke="#00007f" stroke-width="2" /><polyline fill="none" points="66.3864,30.8068 66.8203,34.7119 66.8203,29.939" stroke="#0000ff" stroke-width="2" /><polyline fill="none" points="95.4576,36.4475 96.7593,36.4475 95.0237,35.5797" stroke="#0080ff" stroke-width="2" /><polyline fill="none" points="78.1017,39.4847 62.0475,41.6542 8.678,43.3898" stroke="#15ffe1" stroke-width="2" /><polyline fill="none" points="66.3864,45.5593 50.3322,47.2949" stroke="#7cff79" stroke-width="2" /><polyline fill="none" points="70.2915,50.3322 62.4814,52.0678" stroke="#e4ff12" stroke-width="2" /><polyline fill="none" points="86.3458,37.3153 98.4949,42.0881 116.7186,46.861" stroke="#ff9400" stroke-width="2" /><polyline fill="none" points="90.6847,42.0881 103.7017,47.7288 119.322,51.2" stroke="#ff1d00" stroke-width="2" /><polyline fill="none" points="91.1186,49.4644 98.061,52.0678 112.3797,54.2373" stroke="#7f0000" stroke-width="2" /></svg>