<?xml version="1.0" encoding="utf-8" ?>
<svg baseProfile="tiny" height="128" version="1.2" viewBox="0,0,128,128" width="128" xmlns="http://www.w3.org/2000/svg" xmlns:ev="http://www.w3.org/2001/xml-events" xmlns:xlink="http://www.w3.org/1999/xlink"><defs /><polyline fill="none" points="50.7661,12.5831 57.2746,9.5458 72.461,8.678 75.9322,9.1119 82.0068,12.5831 82.4407,16.922 78.5356,30.3729 65.9525,40.3525 58.5763,42.0881 53.3695,39.9186 48.1627,33.4102 46.4271,29.5051 47.2949,18.2237 58.5763,12.1492" stroke="#00007f" stroke-width="2" /><polyline fill="none" points="76.3661,22.1288 73.7627,23.8644" stroke="#0010ff" stroke-width="2" /><polyline fill="none" points="58.1424,26.9017 59.0102,25.6" stroke="#00a4ff" stroke-width="2" /><polyline fill="none" points="78.5356,37.3153 81.5729,52.0678 76.3661,62.9153 61.1797,77.2339 50.3322,76.3661 45.5593,73.3288" stroke="#3fffb7" stroke-width="2" /><polyline fill="none" points="47.2949,71.1593 47.2949,48.1627 49.0305,36.4475" stroke="#b7ff3f" stroke-width="2" /><polyline fill="none" points="81.5729,33.8441 92.4203,45.5593 104.5695,68.9898 113.2475,72.8949 119.322,87.2136" stroke="#ffb900" stroke-width="2" /><polyline fill="none" points="50.7661,36.0136 32.5424,40.3525 25.1661,45.1254 19.0915,52.9356 8.678,78.9695" stroke="#ff3000" stroke-width="2" /><polyline fill="none" points="26.9017,77.2339 33.4102,90.2508 49.0305,103.7017 61.1797,102.4 82.8746,89.3831" stroke="#7f0000" stroke-width="2" /></svg>