<?xml version="1.0" encoding="utf-8" ?>
<svg baseProfile="tiny" height="128" version="1.2" viewBox="0,0,128,128" width="128" xmlns="http://www.w3.org/2000/svg" xmlns:ev="http://www.w3.org/2001/xml-events" xmlns:xlink="http://www.w3.org/1999/xlink"><defs /><polyline fill="none" points="70.0952,34.3946 73.5782,31.3469 89.2517,24.8163 109.7143,20.0272 100.1361,46.585 98.8299,54.8571" stroke="#00007f" stroke-width="2" /><polyline fill="none" points="70.5306,36.1361 65.7415,34.3946 51.8095,33.0884 37.4422,36.1361 31.7823,25.6871 9.1429,8.7075 13.0612,36.1361 16.5442,47.8912 10.8844,55.7279 8.7075,64.8707 9.1429,79.2381 14.8027,93.6054 21.3333,101.8776 27.4286,107.102 37.4422,114.068 47.8912,118.8571 73.5782,119.2925 88.381,114.068 91.8639,111.0204 95.3469,102.3129 98.8299,85.3333 97.0884,75.3197 93.1701,64.4354 90.1224,60.517 83.1565,56.1633" stroke="#0010ff" stroke-width="2" /><polyline fill="none" points="50.068,77.932 58.7755,77.4966" stroke="#00a4ff" stroke-width="2" /><polyline fill="none" points="36.5714,85.7687 47.4558,90.5578 54.8571,86.2041 63.1293,94.0408 66.1769,94.0408 73.5782,89.2517" stroke="#3fffb7" stroke-width="2" /><polyline fill="none" points="47.8912,90.9932 50.9388,102.7483 55.7279,106.2313 60.0816,105.7959 61.8231,104.0544 64.4354,93.6054" stroke="#b7ff3f" stroke-width="2" /><polyline fill="none" points="83.5918,75.3197 108.4082,73.1429 114.9388,75.3197" stroke="#ffb900" stroke-width="2" /><polyline fill="none" points="85.3333,87.9456 101.4422,89.6871 113.1973,93.6054 116.6803,96.2177" stroke="#ff3000" stroke-width="2" /><polyline fill="none" points="84.0272,99.2653 113.6327,113.6327" stroke="#7f0000" stroke-width="2" /></svg>