<?xml version="1.0" encoding="utf-8" ?>
<svg baseProfile="tiny" height="128" version="1.2" viewBox="0,0,128,128" width="128" xmlns="http://www.w3.org/2000/svg" xmlns:ev="http://www.w3.org/2001/xml-events" xmlns:xlink="http://www.w3.org/1999/xlink"><defs /><polyline fill="none" points="37.8776,33.9592 43.9728,45.2789 54.4218,55.2925 61.8231,60.517 66.1769,58.3401 85.3333,31.3469" stroke="#00007f" stroke-width="2" /><polyline fill="none" points="56.5986,39.619 51.8095,43.102 26.1224,53.9864 8.7075,59.2109" stroke="#0000f1" stroke-width="2" /><polyline fill="none" points="58.3401,40.4898 53.9864,45.2789 27.8639,67.0476" stroke="#004cff" stroke-width="2" /><polyline fill="none" points="57.9048,42.6667 98.3946,58.7755 114.068,61.3878 119.2925,60.9524" stroke="#00b0ff" stroke-width="2" /><polyline fill="none" points="64.0,42.2313 105.3605,41.7959" stroke="#29ffcd" stroke-width="2" /><polyline fill="none" points="45.7143,29.1701 47.0204,31.7823 50.068,30.9116 48.3265,30.0408" stroke="#7cff79" stroke-width="2" /><polyline fill="none" points="69.6599,29.6054 70.0952,30.9116 74.0136,31.3469 74.8844,30.0408 69.2245,30.0408" stroke="#cdff29" stroke-width="2" /><polyline fill="none" points="37.8776,33.9592 38.3129,25.6871" stroke="#ffc400" stroke-width="2" /><polyline fill="none" points="37.0068,26.9932 27.4286,8.7075 43.5374,19.1565" stroke="#ff6700" stroke-width="2" /><polyline fill="none" points="43.9728,20.0272 53.1156,16.9796 66.6122,16.9796 77.0612,20.4626" stroke="#f10700" stroke-width="2" /><polyline fill="none" points="77.932,20.4626 90.1224,14.8027 87.9456,23.9456 84.898,30.9116" stroke="#7f0000" stroke-width="2" /></svg>