<?xml version="1.0" encoding="utf-8" ?>
<svg baseProfile="tiny" height="128" version="1.2" viewBox="0,0,128,128" width="128" xmlns="http://www.w3.org/2000/svg" xmlns:ev="http://www.w3.org/2001/xml-events" xmlns:xlink="http://www.w3.org/1999/xlink"><defs /><polyline fill="none" points="45.5593,30.3729 23.8644,33.4102 14.3186,39.9186 11.7153,44.6915 8.678,56.4068 9.9797,71.5932 14.3186,85.0441 18.2237,95.0237 22.1288,100.2305 33.4102,108.0407 45.5593,112.3797 63.3492,112.8136 86.3458,100.6644 99.3627,91.1186 105.0034,85.478 110.2102,73.7627 97.1932,49.8983 88.0814,44.6915 68.5559,36.8814 43.8237,33.4102" stroke="#00007f" stroke-width="2" /><polyline fill="none" points="72.461,40.7864 82.8746,36.8814 100.2305,24.7322 102.4,52.0678 99.3627,52.5017" stroke="#0000e8" stroke-width="2" /><polyline fill="none" points="13.8847,36.8814 16.0542,33.8441 24.2983,8.678 41.2203,33.8441 43.3898,38.1831 42.522,37.3153" stroke="#0038ff" stroke-width="2" /><polyline fill="none" points="9.1119,63.3492 24.2983,67.2542 21.261,68.9898" stroke="#0094ff" stroke-width="2" /><polyline fill="none" points="11.7153,89.8169 21.6949,94.1559 41.6542,97.6271" stroke="#0cf4ea" stroke-width="2" /><polyline fill="none" points="11.7153,101.5322 22.1288,105.4373 39.0508,105.8712" stroke="#56ffa0" stroke-width="2" /><polyline fill="none" points="72.0271,77.2339 101.0983,85.478" stroke="#a0ff56" stroke-width="2" /><polyline fill="none" points="75.9322,92.4203 78.5356,95.8915 93.722,102.4" stroke="#eaff0c" stroke-width="2" /><polyline fill="none" points="65.5186,102.4 83.7424,115.8508 91.5525,119.322" stroke="#ffaa00" stroke-width="2" /><polyline fill="none" points="36.8814,61.1797 38.6169,75.4983 43.3898,75.0644" stroke="#ff5500" stroke-width="2" /><polyline fill="none" points="59.878,64.2169 60.3119,75.9322" stroke="#e80000" stroke-width="2" /><polyline fill="none" points="42.522,98.9288 42.9559,100.2305 44.6915,99.7966 50.7661,94.5898 52.9356,88.5153 52.9356,97.6271 56.8407,97.1932 59.878,93.722" stroke="#7f0000" stroke-width="2" /></svg>