<?xml version="1.0" encoding="utf-8" ?>
<svg baseProfile="tiny" height="128" version="1.2" viewBox="0,0,128,128" width="128" xmlns="http://www.w3.org/2000/svg" xmlns:ev="http://www.w3.org/2001/xml-events" xmlns:xlink="http://www.w3.org/1999/xlink"><defs /><polyline fill="none" points="70.2915,58.1424 66.3864,55.9729 53.8034,56.4068 36.8814,62.4814 22.1288,73.3288 16.4881,78.9695 9.5458,90.2508 8.678,95.8915 10.4136,104.1356 13.0169,107.1729 16.4881,110.6441 27.7695,116.2847 44.2576,119.322 56.8407,118.8881 62.0475,117.1525 69.4237,111.078 73.7627,102.8339 86.3458,60.3119 86.3458,53.8034 83.7424,49.8983 79.4034,47.7288" stroke="#00007f" stroke-width="2" /><polyline fill="none" points="41.6542,82.4407 63.3492,77.2339" stroke="#0000ff" stroke-width="2" /><polyline fill="none" points="46.861,91.5525 59.4441,90.6847" stroke="#0080ff" stroke-width="2" /><polyline fill="none" points="48.5966,100.2305 55.539,108.0407" stroke="#15ffe1" stroke-width="2" /><polyline fill="none" points="29.5051,86.3458 26.4678,83.7424 13.4508,90.2508 12.1492,89.8169" stroke="#7cff79" stroke-width="2" /><polyline fill="none" points="25.1661,98.4949 22.5627,101.5322" stroke="#e4ff12" stroke-width="2" /><polyline fill="none" points="30.8068,107.6068 27.7695,111.9458" stroke="#ff9400" stroke-width="2" /><polyline fill="none" points="32.1085,78.5356 38.1831,101.5322" stroke="#ff1d00" stroke-width="2" /><polyline fill="none" points="61.6136,53.8034 72.8949,34.278 94.5898,8.678" stroke="#7f0000" stroke-width="2" /></svg>