<?xml version="1.0" encoding="utf-8" ?>
<svg baseProfile="tiny" height="128" version="1.2" viewBox="0,0,128,128" width="128" xmlns="http://www.w3.org/2000/svg" xmlns:ev="http://www.w3.org/2001/xml-events" xmlns:xlink="http://www.w3.org/1999/xlink"><defs /><polyline fill="none" points="37.3153,37.3153 45.5593,31.6746 56.8407,28.6373 76.8,28.6373 88.0814,32.9763 91.9864,32.9763 117.1525,8.678 119.322,12.1492 119.322,35.5797 110.6441,51.6339" stroke="#00007f" stroke-width="2" /><polyline fill="none" points="34.7119,37.3153 27.3356,37.3153 10.8475,20.3932 8.678,23.8644 9.9797,31.6746 13.0169,39.0508 18.6576,47.7288 24.2983,62.9153 21.6949,66.8203 21.6949,72.0271 27.3356,89.3831 27.3356,92.8542 36.0136,106.3051 51.2,114.9831 77.2339,114.9831 91.9864,108.0407 108.0407,92.8542 113.6814,72.0271 113.6814,64.2169 108.0407,57.7085 108.0407,55.539" stroke="#0010ff" stroke-width="2" /><polyline fill="none" points="53.3695,67.6881 53.8034,72.0271 63.3492,86.7797 65.9525,72.0271 61.6136,68.9898 55.9729,68.9898" stroke="#00a4ff" stroke-width="2" /><polyline fill="none" points="65.9525,86.3458 67.6881,89.8169 71.1593,91.9864 78.9695,91.9864 94.5898,80.7051 99.3627,72.461 97.6271,65.0847 96.3254,64.2169" stroke="#3fffb7" stroke-width="2" /><polyline fill="none" points="62.0475,86.3458 53.3695,97.6271 45.5593,97.6271 41.6542,95.0237 39.4847,90.6847 39.0508,83.3085" stroke="#b7ff3f" stroke-width="2" /><polyline fill="none" points="50.3322,49.0305 50.3322,49.0305" stroke="#ffb900" stroke-width="2" /><polyline fill="none" points="73.3288,49.4644 73.3288,50.3322" stroke="#ff3000" stroke-width="2" /><polyline fill="none" points="68.9898,51.6339 78.9695,54.6712" stroke="#7f0000" stroke-width="2" /></svg>