<?xml version="1.0" encoding="utf-8" ?>
<svg baseProfile="tiny" height="128" version="1.2" viewBox="0,0,128,128" width="128" xmlns="http://www.w3.org/2000/svg" xmlns:ev="http://www.w3.org/2001/xml-events" xmlns:xlink="http://www.w3.org/1999/xlink"><defs /><polyline fill="none" points="59.6463,12.6259 54.8571,12.6259 44.4082,20.0272 40.0544,30.9116 33.9592,59.6463 36.5714,70.0952 38.7483,74.449 41.7959,77.0612 107.9728,61.3878 109.7143,57.4694 107.5374,40.4898 103.619,33.5238 93.6054,25.6871 87.9456,23.5102 74.0136,11.7551 65.7415,8.7075 55.7279,9.1429 49.1973,13.932 48.3265,20.4626" stroke="#00007f" stroke-width="2" /><polyline fill="none" points="48.3265,32.6531 49.6327,32.6531" stroke="#0000d5" stroke-width="2" /><polyline fill="none" points="81.415,30.9116 82.2857,30.4762" stroke="#001cff" stroke-width="2" /><polyline fill="none" points="52.6803,47.0204 55.2925,48.3265 56.5986,54.4218 60.0816,59.6463 65.7415,61.8231 73.5782,55.7279 73.5782,50.5034 71.8367,49.6327" stroke="#006cff" stroke-width="2" /><polyline fill="none" points="54.4218,37.8776 54.8571,39.619" stroke="#00b8ff" stroke-width="2" /><polyline fill="none" points="73.5782,41.7959 73.5782,40.9252" stroke="#1cffda" stroke-width="2" /><polyline fill="none" points="97.0884,37.8776 107.9728,35.7007" stroke="#5cff9a" stroke-width="2" /><polyline fill="none" points="108.8435,37.0068 113.6327,37.0068" stroke="#9aff5c" stroke-width="2" /><polyline fill="none" points="109.2789,45.2789 116.6803,42.2313" stroke="#daff1c" stroke-width="2" /><polyline fill="none" points="108.8435,50.068 119.2925,49.1973" stroke="#ffcb00" stroke-width="2" /><polyline fill="none" points="37.8776,40.4898 18.2857,34.8299" stroke="#ff8500" stroke-width="2" /><polyline fill="none" points="34.8299,57.4694 30.9116,53.9864" stroke="#ff3b00" stroke-width="2" /><polyline fill="none" points="33.9592,56.1633 27.4286,52.2449 21.7687,52.6803 21.7687,53.9864" stroke="#d50000" stroke-width="2" /><polyline fill="none" points="40.4898,62.6939 31.3469,65.7415 8.7075,78.8027 10.449,78.8027" stroke="#7f0000" stroke-width="2" /></svg>