<?xml version="1.0" encoding="utf-8" ?>
<svg baseProfile="tiny" height="128" version="1.2" viewBox="0,0,128,128" width="128" xmlns="http://www.w3.org/2000/svg" xmlns:ev="http://www.w3.org/2001/xml-events" xmlns:xlink="http://www.w3.org/1999/xlink"><defs /><polyline fill="none" points="23.8644,119.322 21.261,116.7186 16.4881,107.1729 11.2814,88.0814 10.8475,75.9322 8.678,63.3492 8.678,42.9559 12.1492,33.8441 20.8271,20.8271 25.6,18.6576 30.8068,28.6373 36.8814,45.9932 41.6542,46.861 57.7085,45.5593 68.122,24.7322 74.1966,18.2237 77.2339,12.1492 81.5729,9.1119 85.0441,8.678 86.7797,9.9797 88.5153,16.4881 88.9492,38.6169 81.139,82.0068 74.1966,99.3627 65.5186,111.9458 54.6712,117.5864 47.7288,118.8881 35.1458,118.0203 19.5254,113.6814 18.2237,111.5119" stroke="#00007f" stroke-width="2" /><polyline fill="none" points="33.8441,90.2508 29.0712,86.3458 25.6,86.3458" stroke="#0000e8" stroke-width="2" /><polyline fill="none" points="35.1458,82.0068 34.7119,80.2712 28.6373,78.9695" stroke="#0038ff" stroke-width="2" /><polyline fill="none" points="41.6542,76.8 32.1085,68.5559 27.7695,68.5559" stroke="#0094ff" stroke-width="2" /><polyline fill="none" points="46.4271,79.8373 45.1254,76.8 46.861,81.5729 45.5593,81.5729 44.6915,78.5356 45.9932,77.2339" stroke="#0cf4ea" stroke-width="2" /><polyline fill="none" points="53.8034,78.9695 56.8407,76.3661" stroke="#56ffa0" stroke-width="2" /><polyline fill="none" points="44.6915,85.9119 49.4644,84.1763 62.0475,84.6102" stroke="#a0ff56" stroke-width="2" /><polyline fill="none" points="53.8034,77.2339 63.3492,69.8576 68.5559,68.122" stroke="#eaff0c" stroke-width="2" /><polyline fill="none" points="49.8983,97.6271 52.0678,93.722 55.539,91.5525 58.5763,91.1186 61.1797,94.5898" stroke="#ffaa00" stroke-width="2" /><polyline fill="none" points="33.4102,99.7966 46.4271,110.6441 54.6712,113.2475 57.7085,112.3797 61.1797,105.0034" stroke="#ff5500" stroke-width="2" /><polyline fill="none" points="24.7322,50.3322 24.7322,50.3322" stroke="#e80000" stroke-width="2" /><polyline fill="none" points="68.9898,64.2169 68.9898,64.2169" stroke="#7f0000" stroke-width="2" /></svg>