<?xml version="1.0" encoding="utf-8" ?>
<svg baseProfile="tiny" height="128" version="1.2" viewBox="0,0,128,128" width="128" xmlns="http://www.w3.org/2000/svg" xmlns:ev="http://www.w3.org/2001/xml-events" xmlns:xlink="http://www.w3.org/1999/xlink"><defs /><polyline fill="none" points="67.483,25.6871 59.6463,25.2517 49.1973,26.9932 42.2313,29.6054 39.1837,31.7823 30.9116,44.4082 29.6054,50.9388 30.4762,60.0816 35.7007,69.2245 46.585,77.4966 64.0,82.7211 80.9796,83.1565 90.1224,79.2381 98.8299,69.2245 101.0068,62.6939 101.0068,52.6803 98.3946,43.5374 89.6871,30.9116 78.3673,23.0748 69.6599,21.7687 64.4354,24.381 61.3878,27.8639" stroke="#00007f" stroke-width="2" /><polyline fill="none" points="43.102,28.2993 44.4082,18.2857 47.0204,9.5782 49.1973,8.7075 59.6463,23.9456" stroke="#0000de" stroke-width="2" /><polyline fill="none" points="79.2381,23.5102 95.7823,11.3197 96.2177,28.7347" stroke="#0028ff" stroke-width="2" /><polyline fill="none" points="58.3401,48.7619 75.7551,49.6327 70.966,58.7755 66.6122,57.4694 59.6463,52.6803" stroke="#0080ff" stroke-width="2" /><polyline fill="none" points="52.6803,40.9252 52.6803,40.9252" stroke="#00d4ff" stroke-width="2" /><polyline fill="none" points="74.449,39.1837 74.449,39.1837" stroke="#36ffc0" stroke-width="2" /><polyline fill="none" points="72.7075,41.3605 72.7075,41.3605" stroke="#7cff79" stroke-width="2" /><polyline fill="none" points="75.7551,40.4898 75.7551,40.4898" stroke="#c0ff36" stroke-width="2" /><polyline fill="none" points="79.2381,51.3741 96.2177,47.0204 114.5034,44.4082" stroke="#ffe500" stroke-width="2" /><polyline fill="none" points="87.0748,55.7279 119.2925,57.034" stroke="#ff9400" stroke-width="2" /><polyline fill="none" points="85.7687,60.0816 103.1837,64.4354" stroke="#ff4600" stroke-width="2" /><polyline fill="none" points="48.3265,53.551 35.2653,54.8571 8.7075,54.4218" stroke="#de0000" stroke-width="2" /><polyline fill="none" points="40.4898,54.8571 33.9592,59.6463 23.0748,64.8707 16.1088,69.6599" stroke="#7f0000" stroke-width="2" /></svg>