<?xml version="1.0" encoding="utf-8" ?>
<svg baseProfile="tiny" height="128" version="1.2" viewBox="0,0,128,128" width="128" xmlns="http://www.w3.org/2000/svg" xmlns:ev="http://www.w3.org/2001/xml-events" xmlns:xlink="http://www.w3.org/1999/xlink"><defs /><polyline fill="none" points="38.3129,22.2041 23.5102,21.7687 15.2381,23.5102 26.9932,28.7347 49.6327,33.9592 50.9388,31.3469 43.5374,28.7347 39.619,24.381 37.0068,18.2857" stroke="#00007f" stroke-width="2" /><polyline fill="none" points="66.6122,26.5578 67.483,13.4966 52.2449,8.7075 59.6463,16.1088 60.9524,21.3333 73.5782,21.3333" stroke="#0000de" stroke-width="2" /><polyline fill="none" points="67.0476,29.6054 32.2177,31.3469 26.5578,36.5714 26.5578,39.1837 36.1361,44.8435 45.7143,47.0204 66.6122,49.1973 71.8367,47.4558 72.2721,26.1224 70.966,23.5102 54.8571,21.7687 51.8095,23.0748 50.5034,25.6871 53.9864,27.8639" stroke="#0028ff" stroke-width="2" /><polyline fill="none" points="44.8435,33.0884 44.8435,33.0884" stroke="#0080ff" stroke-width="2" /><polyline fill="none" points="57.034,31.3469 57.034,31.3469" stroke="#00d4ff" stroke-width="2" /><polyline fill="none" points="57.034,38.3129 21.3333,42.2313 41.7959,41.7959" stroke="#36ffc0" stroke-width="2" /><polyline fill="none" points="59.6463,29.1701 60.0816,28.7347" stroke="#7cff79" stroke-width="2" /><polyline fill="none" points="60.0816,35.7007 62.6939,37.0068 64.4354,43.5374" stroke="#c0ff36" stroke-width="2" /><polyline fill="none" points="44.4082,40.9252 56.5986,41.3605 57.4694,34.3946" stroke="#ffe500" stroke-width="2" /><polyline fill="none" points="39.619,43.9728 41.7959,54.4218" stroke="#ff9400" stroke-width="2" /><polyline fill="none" points="60.9524,40.9252 60.517,53.1156 71.4014,70.0952 72.2721,84.898 69.6599,82.7211" stroke="#ff4600" stroke-width="2" /><polyline fill="none" points="43.102,51.8095 41.7959,56.5986 45.7143,74.8844 49.1973,86.6395 50.9388,85.3333" stroke="#de0000" stroke-width="2" /><polyline fill="none" points="65.7415,45.7143 94.9116,45.7143 117.1156,54.8571 119.2925,58.7755 107.5374,61.8231 56.5986,61.8231 8.7075,66.6122" stroke="#7f0000" stroke-width="2" /></svg>