<?xml version="1.0" encoding="utf-8" ?>
<svg baseProfile="tiny" height="128" version="1.2" viewBox="0,0,128,128" width="128" xmlns="http://www.w3.org/2000/svg" xmlns:ev="http://www.w3.org/2001/xml-events" xmlns:xlink="http://www.w3.org/1999/xlink"><defs /><polyline fill="none" points="97.1932,17.3559 80.2712,16.0542 77.2339,22.1288 75.9322,32.9763 77.2339,37.3153 84.1763,45.9932 90.6847,49.4644 105.8712,49.0305 117.1525,39.9186 119.322,35.5797 119.322,30.3729 117.5864,25.6 112.8136,20.3932 105.0034,16.922 94.5898,16.922" stroke="#00007f" stroke-width="2" /><polyline fill="none" points="83.7424,16.0542 85.0441,9.1119 91.9864,18.6576" stroke="#0000cc" stroke-width="2" /><polyline fill="none" points="98.9288,16.0542 111.5119,9.9797 111.5119,19.5254" stroke="#0008ff" stroke-width="2" /><polyline fill="none" points="87.6475,33.8441 79.8373,31.6746" stroke="#004cff" stroke-width="2" /><polyline fill="none" points="88.9492,33.8441 83.3085,36.0136 82.0068,39.0508" stroke="#0090ff" stroke-width="2" /><polyline fill="none" points="89.3831,39.0508 84.6102,40.3525" stroke="#00d4ff" stroke-width="2" /><polyline fill="none" points="105.8712,31.6746 111.9458,30.3729" stroke="#29ffcd" stroke-width="2" /><polyline fill="none" points="107.1729,37.3153 115.4169,36.4475" stroke="#5fff96" stroke-width="2" /><polyline fill="none" points="107.1729,40.7864 113.6814,38.1831" stroke="#96ff5f" stroke-width="2" /><polyline fill="none" points="93.2881,23.4305 93.722,24.2983 92.4203,23.8644 93.2881,22.9966 90.6847,23.8644 91.1186,24.7322 91.9864,24.2983" stroke="#cdff29" stroke-width="2" /><polyline fill="none" points="101.5322,22.1288 100.2305,23.4305 101.9661,24.2983 100.6644,23.4305" stroke="#ffe500" stroke-width="2" /><polyline fill="none" points="94.1559,30.8068 99.7966,29.5051 100.6644,30.8068 98.061,33.8441 96.3254,33.8441 95.0237,31.6746" stroke="#ffa600" stroke-width="2" /><polyline fill="none" points="98.061,34.7119 97.6271,40.3525 94.5898,41.2203 92.8542,40.3525" stroke="#ff6700" stroke-width="2" /><polyline fill="none" points="98.061,34.278 98.9288,37.3153 100.2305,38.1831" stroke="#ff2800" stroke-width="2" /><polyline fill="none" points="77.2339,34.278 64.2169,31.6746 52.5017,31.6746 39.0508,35.1458 28.6373,41.6542 24.7322,46.861 23.8644,54.6712 26.0339,60.3119 31.6746,66.8203 41.6542,73.3288 50.7661,76.8 65.5186,77.2339 75.4983,73.7627 83.3085,68.5559 90.6847,57.2746" stroke="#cc0000" stroke-width="2" /><polyline fill="none" points="38.1831,38.6169 38.1831,23.4305 35.5797,18.2237 13.8847,13.4508 9.9797,11.2814 8.678,8.678" stroke="#7f0000" stroke-width="2" /></svg>