<?xml version="1.0" encoding="utf-8" ?>
<svg baseProfile="tiny" height="128" version="1.2" viewBox="0,0,128,128" width="128" xmlns="http://www.w3.org/2000/svg" xmlns:ev="http://www.w3.org/2001/xml-events" xmlns:xlink="http://www.w3.org/1999/xlink"><defs /><polyline fill="none" points="10.8475,44.2576 8.678,38.6169 9.1119,17.3559 9.9797,13.8847 13.4508,9.9797 16.0542,8.678 23.4305,8.678 31.2407,16.0542 36.8814,35.1458" stroke="#00007f" stroke-width="2" /><polyline fill="none" points="90.6847,36.8814 88.9492,32.9763 88.9492,25.6 91.1186,17.3559 95.4576,11.7153 98.4949,9.5458 101.5322,10.8475 108.9085,39.4847 108.9085,42.0881 102.4,47.7288" stroke="#0000e8" stroke-width="2" /><polyline fill="none" points="52.0678,72.461 45.5593,63.3492 36.0136,55.1051 33.4102,54.2373 32.1085,75.4983 33.8441,80.7051 40.7864,85.478 48.1627,83.7424 51.2,78.9695 51.2,74.1966" stroke="#0038ff" stroke-width="2" /><polyline fill="none" points="42.522,65.9525 40.7864,69.8576 40.7864,76.3661 43.8237,74.1966 44.6915,66.8203 43.3898,75.4983" stroke="#0094ff" stroke-width="2" /><polyline fill="none" points="82.4407,67.2542 82.4407,63.7831 84.1763,60.7458 95.8915,50.3322 98.9288,53.8034 99.7966,58.5763 99.3627,71.1593 90.6847,77.2339 82.8746,77.6678" stroke="#0cf4ea" stroke-width="2" /><polyline fill="none" points="86.3458,58.5763 89.8169,69.8576 90.6847,63.7831" stroke="#56ffa0" stroke-width="2" /><polyline fill="none" points="45.9932,35.1458 51.2,33.8441 77.6678,34.278 84.6102,37.7492 86.3458,42.0881" stroke="#a0ff56" stroke-width="2" /><polyline fill="none" points="26.0339,36.0136 25.1661,27.7695 28.6373,26.9017 32.1085,29.939 35.5797,37.3153" stroke="#eaff0c" stroke-width="2" /><polyline fill="none" points="65.0847,92.4203 71.1593,91.5525 70.7254,101.5322 68.5559,104.5695 65.0847,95.8915 65.0847,98.9288" stroke="#ffaa00" stroke-width="2" /><polyline fill="none" points="65.5186,98.061 25.6,101.0983" stroke="#ff5500" stroke-width="2" /><polyline fill="none" points="57.7085,111.5119 36.8814,119.322" stroke="#e80000" stroke-width="2" /><polyline fill="none" points="78.9695,93.722 91.9864,95.4576" stroke="#7f0000" stroke-width="2" /></svg>