<?xml version="1.0" encoding="utf-8" ?>
<svg baseProfile="tiny" height="128" version="1.2" viewBox="0,0,128,128" width="128" xmlns="http://www.w3.org/2000/svg" xmlns:ev="http://www.w3.org/2001/xml-events" xmlns:xlink="http://www.w3.org/1999/xlink"><defs /><polyline fill="none" points="82.4407,72.461 85.478,71.5932 91.1186,67.2542 97.6271,56.8407 98.4949,42.0881 95.0237,31.6746 88.9492,24.7322 78.1017,19.9593 66.3864,18.2237 52.5017,19.9593 41.2203,25.6 32.5424,34.7119 29.0712,42.9559 30.8068,53.3695 33.8441,59.0102 38.6169,64.2169 53.8034,73.7627 67.2542,77.2339 72.461,76.3661 76.8,73.7627" stroke="#00007f" stroke-width="2" /><polyline fill="none" points="39.4847,22.5627 28.2034,13.4508 25.1661,11.7153 24.2983,12.5831 31.6746,34.7119 32.5424,32.9763" stroke="#0080ff" stroke-width="2" /><polyline fill="none" points="85.478,24.7322 101.9661,8.678 101.0983,15.6203 95.0237,28.2034" stroke="#7cff79" stroke-width="2" /><polyline fill="none" points="97.6271,44.2576 119.322,39.9186 100.2305,44.6915 93.722,48.5966 95.0237,50.3322 110.2102,53.8034 116.2847,57.2746 91.9864,58.5763 95.0237,62.4814 108.9085,72.8949" stroke="#ff9400" stroke-width="2" /><polyline fill="none" points="35.5797,45.1254 8.678,57.2746 16.922,57.7085 35.1458,55.1051 22.5627,67.2542 40.7864,65.5186 43.3898,66.8203 39.0508,71.5932 28.2034,78.5356" stroke="#7f0000" stroke-width="2" /></svg>