<?xml version="1.0" encoding="utf-8" ?>
<svg baseProfile="tiny" height="128" version="1.2" viewBox="0,0,128,128" width="128" xmlns="http://www.w3.org/2000/svg" xmlns:ev="http://www.w3.org/2001/xml-events" xmlns:xlink="http://www.w3.org/1999/xlink"><defs /><polyline fill="none" points="43.5374,46.585 19.1565,58.3401 11.7551,67.483 9.1429,77.0612 9.5782,87.0748 12.6259,95.3469 19.1565,104.9252 40.9252,115.3741 79.2381,119.2925 90.9932,117.1156 99.2653,111.4558 114.9388,91.8639 115.3741,78.8027 107.9728,65.3061 100.5714,58.3401 89.2517,52.2449 53.9864,45.2789 44.4082,44.8435" stroke="#00007f" stroke-width="2" /><polyline fill="none" points="90.1224,47.8912 104.4898,28.7347 114.068,20.0272 114.9388,27.8639 111.8912,47.4558 112.3265,63.1293" stroke="#0000d5" stroke-width="2" /><polyline fill="none" points="26.5578,57.9048 20.4626,50.9388 15.2381,37.4422 8.7075,8.7075 21.3333,18.2857 46.585,42.6667" stroke="#001cff" stroke-width="2" /><polyline fill="none" points="41.3605,69.6599 37.8776,70.5306" stroke="#006cff" stroke-width="2" /><polyline fill="none" points="86.6395,75.3197 87.0748,76.1905" stroke="#00b8ff" stroke-width="2" /><polyline fill="none" points="50.5034,83.1565 57.9048,83.5918 56.1633,89.6871" stroke="#1cffda" stroke-width="2" /><polyline fill="none" points="53.9864,81.8503 53.9864,81.8503" stroke="#5cff9a" stroke-width="2" /><polyline fill="none" points="51.3741,81.8503 52.6803,85.7687" stroke="#9aff5c" stroke-width="2" /><polyline fill="none" points="40.4898,99.2653 43.5374,103.619 49.1973,103.619 55.7279,100.5714 59.2109,104.0544 63.5646,104.9252 71.8367,103.1837 76.1905,97.9592 75.7551,95.7823" stroke="#daff1c" stroke-width="2" /><polyline fill="none" points="83.1565,92.2993 102.7483,88.381" stroke="#ffcb00" stroke-width="2" /><polyline fill="none" points="90.5578,93.1701 111.0204,90.9932" stroke="#ff8500" stroke-width="2" /><polyline fill="none" points="86.2041,99.7007 97.5238,101.4422 111.0204,99.7007" stroke="#ff3b00" stroke-width="2" /><polyline fill="none" points="38.3129,97.5238 29.1701,90.5578" stroke="#d50000" stroke-width="2" /><polyline fill="none" points="35.7007,104.9252 20.898,96.2177" stroke="#7f0000" stroke-width="2" /></svg>