<?xml version="1.0" encoding="utf-8" ?>
<svg baseProfile="tiny" height="128" version="1.2" viewBox="0,0,128,128" width="128" xmlns="http://www.w3.org/2000/svg" xmlns:ev="http://www.w3.org/2001/xml-events" xmlns:xlink="http://www.w3.org/1999/xlink"><defs /><polyline fill="none" points="74.1966,32.9763 55.539,33.4102 43.8237,37.7492 33.8441,47.2949 29.939,60.3119 29.939,77.2339 31.2407,85.0441 35.1458,92.8542 39.9186,98.9288 45.1254,103.7017 56.4068,108.0407 70.7254,108.0407 89.8169,97.6271 93.2881,93.722 96.7593,84.1763 98.4949,73.3288 98.061,57.2746 93.2881,49.4644 85.478,43.8237 69.8576,38.6169 49.0305,37.7492" stroke="#00007f" stroke-width="2" /><polyline fill="none" points="81.139,41.6542 94.1559,33.4102 105.4373,23.4305 115.8508,17.3559 113.2475,25.6 94.5898,66.8203" stroke="#0000e8" stroke-width="2" /><polyline fill="none" points="51.6339,33.8441 45.1254,33.4102 37.7492,30.8068 31.2407,24.2983 22.5627,9.9797 20.3932,8.678 18.6576,9.5458 19.0915,28.2034 25.1661,51.6339 29.939,59.0102" stroke="#0038ff" stroke-width="2" /><polyline fill="none" points="55.1051,57.7085 56.8407,60.3119 59.4441,60.3119 57.2746,57.2746 52.5017,56.4068 51.2,62.4814 55.539,65.5186 60.3119,65.0847 62.0475,61.1797 60.3119,58.5763 52.5017,57.2746 51.6339,59.0102" stroke="#0094ff" stroke-width="2" /><polyline fill="none" points="85.0441,53.8034 81.139,54.2373 79.4034,55.9729 76.3661,63.3492 76.3661,67.6881 81.139,67.2542 89.8169,61.6136 92.4203,55.9729 88.9492,52.9356 81.139,52.5017 78.1017,55.1051 77.6678,62.9153 83.3085,65.9525 84.1763,63.7831 80.2712,59.878" stroke="#0cf4ea" stroke-width="2" /><polyline fill="none" points="78.1017,81.139 101.9661,90.2508 113.2475,96.3254" stroke="#56ffa0" stroke-width="2" /><polyline fill="none" points="76.8,88.5153 94.5898,104.1356" stroke="#a0ff56" stroke-width="2" /><polyline fill="none" points="71.1593,91.1186 72.0271,99.7966 77.6678,119.322" stroke="#eaff0c" stroke-width="2" /><polyline fill="none" points="41.6542,77.6678 35.5797,78.9695 8.678,93.2881" stroke="#ffaa00" stroke-width="2" /><polyline fill="none" points="52.0678,86.7797 46.4271,87.6475 40.3525,90.6847 27.3356,103.2678" stroke="#ff5500" stroke-width="2" /><polyline fill="none" points="64.2169,98.061 38.6169,110.2102" stroke="#e80000" stroke-width="2" /><polyline fill="none" points="79.8373,62.4814 79.8373,62.4814" stroke="#7f0000" stroke-width="2" /></svg>