<?xml version="1.0" encoding="utf-8" ?>
<svg baseProfile="tiny" height="128" version="1.2" viewBox="0,0,128,128" width="128" xmlns="http://www.w3.org/2000/svg" xmlns:ev="http://www.w3.org/2001/xml-events" xmlns:xlink="http://www.w3.org/1999/xlink"><defs /><polyline fill="none" points="68.9898,35.5797 52.9356,32.1085 45.1254,33.4102 24.2983,44.6915 16.922,56.8407 13.8847,68.9898 18.2237,85.478 31.6746,98.4949 54.6712,110.6441 80.2712,111.078 95.8915,96.3254 99.7966,84.6102 99.7966,59.878 95.8915,53.8034 90.2508,48.5966 69.8576,44.2576" stroke="#00007f" stroke-width="2" /><polyline fill="none" points="52.9356,61.6136 40.3525,63.7831" stroke="#0000e8" stroke-width="2" /><polyline fill="none" points="80.2712,63.3492 78.1017,74.1966 71.1593,68.5559 65.9525,72.8949" stroke="#0038ff" stroke-width="2" /><polyline fill="none" points="65.5186,89.3831 54.2373,86.7797 46.4271,87.6475 44.6915,96.3254 46.4271,101.0983 56.4068,106.739 63.3492,106.3051 66.8203,101.5322 61.6136,95.0237" stroke="#0094ff" stroke-width="2" /><polyline fill="none" points="62.4814,95.4576 76.8,91.9864 98.9288,84.1763" stroke="#0cf4ea" stroke-width="2" /><polyline fill="none" points="66.8203,105.4373 99.7966,107.1729" stroke="#56ffa0" stroke-width="2" /><polyline fill="none" points="65.0847,110.2102 83.7424,117.5864 94.1559,119.322" stroke="#a0ff56" stroke-width="2" /><polyline fill="none" points="55.539,95.0237 26.4678,70.2915" stroke="#eaff0c" stroke-width="2" /><polyline fill="none" points="39.0508,91.1186 24.7322,91.5525" stroke="#ffaa00" stroke-width="2" /><polyline fill="none" points="42.9559,100.2305 25.1661,105.4373 18.2237,110.2102" stroke="#ff5500" stroke-width="2" /><polyline fill="none" points="22.9966,48.5966 18.6576,42.9559 8.678,17.3559 9.9797,8.678 19.9593,9.5458 36.0136,15.6203 68.122,36.4475" stroke="#e80000" stroke-width="2" /><polyline fill="none" points="84.1763,50.7661 113.6814,13.8847 117.5864,13.8847 117.1525,35.5797 115.4169,44.2576 103.2678,75.9322" stroke="#7f0000" stroke-width="2" /></svg>