<?xml version="1.0" encoding="utf-8" ?>
<svg baseProfile="tiny" height="128" version="1.2" viewBox="0,0,128,128" width="128" xmlns="http://www.w3.org/2000/svg" xmlns:ev="http://www.w3.org/2001/xml-events" xmlns:xlink="http://www.w3.org/1999/xlink"><defs /><polyline fill="none" points="34.278,26.4678 26.9017,25.6 19.5254,29.5051 11.2814,36.8814 9.1119,42.522 8.678,55.539 11.2814,62.9153 15.6203,68.5559 21.6949,73.3288 27.3356,74.1966 29.939,72.8949 39.0508,67.2542 43.8237,62.0475 46.861,55.539 48.5966,45.9932 48.1627,42.0881 42.9559,34.7119 37.7492,30.8068 30.3729,28.6373" stroke="#00007f" stroke-width="2" /><polyline fill="none" points="16.922,32.5424 16.4881,22.1288 18.2237,13.4508 26.9017,32.1085" stroke="#0000d5" stroke-width="2" /><polyline fill="none" points="36.4475,32.1085 44.2576,14.3186 49.0305,8.678 45.9932,26.0339 45.9932,35.1458" stroke="#001cff" stroke-width="2" /><polyline fill="none" points="18.6576,43.3898 18.6576,43.3898" stroke="#006cff" stroke-width="2" /><polyline fill="none" points="21.6949,45.1254 21.6949,45.1254" stroke="#00b8ff" stroke-width="2" /><polyline fill="none" points="19.9593,45.1254 21.6949,45.5593 22.9966,42.522 20.3932,41.6542 23.4305,43.3898" stroke="#1cffda" stroke-width="2" /><polyline fill="none" points="39.9186,39.9186 38.1831,40.3525 37.3153,42.0881 41.2203,43.3898 42.0881,42.0881 40.7864,40.3525 37.7492,40.3525 40.3525,40.3525" stroke="#5cff9a" stroke-width="2" /><polyline fill="none" points="25.1661,53.3695 33.4102,54.2373" stroke="#9aff5c" stroke-width="2" /><polyline fill="none" points="30.3729,55.1051 29.0712,59.0102 31.2407,61.1797 33.8441,62.0475 34.7119,58.1424" stroke="#daff1c" stroke-width="2" /><polyline fill="none" points="28.6373,53.3695 28.6373,60.3119 25.6,61.6136 23.4305,59.4441" stroke="#ffcb00" stroke-width="2" /><polyline fill="none" points="55.1051,57.2746 55.1051,50.3322 59.0102,35.5797 60.7458,34.278 61.1797,49.0305 65.5186,45.1254 70.2915,34.278 73.3288,57.2746" stroke="#ff8500" stroke-width="2" /><polyline fill="none" points="80.2712,49.0305 84.1763,48.5966 89.3831,41.6542 84.1763,39.9186 76.3661,47.7288 76.8,55.9729 80.2712,59.4441 85.478,57.7085" stroke="#ff3b00" stroke-width="2" /><polyline fill="none" points="101.0983,43.3898 95.0237,42.9559 93.2881,44.2576 90.6847,51.6339 92.4203,55.9729 94.5898,55.539 97.6271,44.6915 97.6271,42.9559 94.1559,40.7864" stroke="#d50000" stroke-width="2" /><polyline fill="none" points="104.1356,42.9559 102.4,48.1627 101.9661,57.2746 102.4,58.5763 103.7017,55.539 104.1356,61.1797 106.3051,63.7831 114.5492,55.539 119.322,41.6542" stroke="#7f0000" stroke-width="2" /></svg>