<?xml version="1.0" encoding="utf-8" ?>
<svg baseProfile="tiny" height="128" version="1.2" viewBox="0,0,128,128" width="128" xmlns="http://www.w3.org/2000/svg" xmlns:ev="http://www.w3.org/2001/xml-events" xmlns:xlink="http://www.w3.org/1999/xlink"><defs /><polyline fill="none" points="42.522,28.6373 41.2203,23.8644 41.6542,8.678 45.9932,13.8847 52.0678,17.3559 68.5559,15.1864 86.3458,16.0542 96.3254,9.1119 98.4949,29.0712 95.0237,44.6915 89.3831,52.0678 78.1017,58.1424 63.7831,61.1797 54.6712,61.1797 48.5966,58.5763 42.9559,52.5017 39.4847,43.3898 39.9186,34.7119 42.9559,29.939" stroke="#00007f" stroke-width="2" /><polyline fill="none" points="59.0102,38.6169 65.9525,37.7492 64.2169,45.9932 62.9153,45.9932 59.4441,38.6169" stroke="#004cff" stroke-width="2" /><polyline fill="none" points="65.5186,42.0881 77.6678,39.4847 89.3831,39.0508 114.5492,42.0881" stroke="#29ffcd" stroke-width="2" /><polyline fill="none" points="68.5559,41.2203 75.4983,40.7864 102.4,46.4271 119.322,52.5017" stroke="#cdff29" stroke-width="2" /><polyline fill="none" points="58.1424,45.1254 56.8407,42.522 54.6712,41.6542 36.8814,40.7864 22.9966,42.522 8.678,48.1627" stroke="#ff6700" stroke-width="2" /><polyline fill="none" points="62.0475,42.0881 32.5424,55.1051 19.0915,62.9153" stroke="#7f0000" stroke-width="2" /></svg>