<?xml version="1.0" encoding="utf-8" ?>
<svg baseProfile="tiny" height="128" version="1.2" viewBox="0,0,128,128" width="128" xmlns="http://www.w3.org/2000/svg" xmlns:ev="http://www.w3.org/2001/xml-events" xmlns:xlink="http://www.w3.org/1999/xlink"><defs /><polyline fill="none" points="101.4422,33.5238 88.381,29.6054 66.6122,28.2993 54.8571,31.7823 46.1497,37.4422 37.8776,45.2789 33.5238,52.2449 31.3469,59.6463 31.3469,67.483 38.3129,82.2857 48.3265,89.2517 64.4354,90.5578 73.1429,86.2041 82.2857,76.1905 89.6871,63.1293 94.0408,53.1156 95.3469,47.0204 95.7823,37.0068 93.1701,31.3469 88.8163,26.9932" stroke="#00007f" stroke-width="2" /><polyline fill="none" points="70.966,44.8435 69.6599,46.585" stroke="#0000de" stroke-width="2" /><polyline fill="none" points="50.068,43.102 49.1973,43.9728" stroke="#0028ff" stroke-width="2" /><polyline fill="none" points="57.4694,53.9864 60.0816,53.1156 61.3878,55.2925 59.6463,56.5986 58.7755,52.6803 58.7755,54.8571 60.0816,78.3673 59.2109,79.6735 57.9048,79.6735 54.8571,71.8367" stroke="#0080ff" stroke-width="2" /><polyline fill="none" points="58.7755,53.9864 61.8231,74.449 67.0476,70.5306" stroke="#00d4ff" stroke-width="2" /><polyline fill="none" points="82.2857,58.3401 116.2449,53.9864" stroke="#36ffc0" stroke-width="2" /><polyline fill="none" points="84.0272,64.0 119.2925,68.7891" stroke="#7cff79" stroke-width="2" /><polyline fill="none" points="76.1905,70.5306 104.9252,78.3673" stroke="#c0ff36" stroke-width="2" /><polyline fill="none" points="46.585,55.2925 10.8844,50.5034" stroke="#ffe500" stroke-width="2" /><polyline fill="none" points="43.102,57.4694 8.7075,77.0612 16.9796,75.7551" stroke="#ff9400" stroke-width="2" /><polyline fill="none" points="44.4082,67.9184 30.0408,80.5442 13.0612,91.8639 16.5442,84.898" stroke="#ff4600" stroke-width="2" /><polyline fill="none" points="47.8912,40.4898 46.1497,32.6531 46.585,8.7075 58.7755,33.5238" stroke="#de0000" stroke-width="2" /><polyline fill="none" points="80.5442,30.0408 84.898,26.1224 110.1497,9.5782 111.4558,14.8027 111.4558,30.4762 108.8435,47.0204" stroke="#7f0000" stroke-width="2" /></svg>