<?xml version="1.0" encoding="utf-8" ?>
<svg baseProfile="tiny" height="128" version="1.2" viewBox="0,0,128,128" width="128" xmlns="http://www.w3.org/2000/svg" xmlns:ev="http://www.w3.org/2001/xml-events" xmlns:xlink="http://www.w3.org/1999/xlink"><defs /><polyline fill="none" points="88.9492,49.8983 79.8373,45.5593 59.0102,39.9186 42.9559,39.9186 32.1085,45.5593 25.6,52.5017 13.8847,70.2915 10.4136,83.3085 10.4136,99.3627 17.7898,105.0034 52.0678,118.8881 63.7831,119.322 75.4983,111.9458 87.6475,89.8169 92.4203,72.8949 91.9864,52.0678 88.0814,41.6542 82.8746,37.3153" stroke="#00007f" stroke-width="2" /><polyline fill="none" points="68.5559,46.861 76.3661,42.522 89.3831,32.1085 105.8712,16.4881 110.6441,9.9797 114.9831,41.2203 114.5492,53.8034 107.1729,68.5559 103.7017,72.8949 88.5153,82.0068" stroke="#0028ff" stroke-width="2" /><polyline fill="none" points="44.6915,39.0508 35.5797,14.3186 31.6746,10.4136 26.4678,8.678 11.7153,41.6542 9.1119,49.8983 8.678,61.6136" stroke="#00d4ff" stroke-width="2" /><polyline fill="none" points="19.0915,55.9729 22.1288,34.7119 24.2983,30.3729 28.6373,31.2407 30.3729,33.4102 33.8441,47.7288" stroke="#7cff79" stroke-width="2" /><polyline fill="none" points="91.9864,42.9559 105.0034,40.3525 103.7017,49.4644 98.061,66.8203" stroke="#ffe500" stroke-width="2" /><polyline fill="none" points="50.7661,79.8373 51.2,76.8 54.2373,75.4983 52.0678,76.8" stroke="#ff4600" stroke-width="2" /><polyline fill="none" points="52.9356,76.8 52.9356,78.5356" stroke="#7f0000" stroke-width="2" /></svg>