<?xml version="1.0" encoding="utf-8" ?>
<svg baseProfile="tiny" height="128" version="1.2" viewBox="0,0,128,128" width="128" xmlns="http://www.w3.org/2000/svg" xmlns:ev="http://www.w3.org/2001/xml-events" xmlns:xlink="http://www.w3.org/1999/xlink"><defs /><polyline fill="none" points="84.898,53.551 77.932,40.0544 74.8844,37.4422 70.5306,36.5714 60.0816,39.1837 54.8571,42.6667 50.9388,47.4558 44.8435,49.1973 37.4422,48.7619 27.8639,42.2313 16.9796,41.3605 13.932,43.102 8.7075,50.5034 12.1905,56.5986 19.1565,59.6463 39.1837,59.6463 40.9252,62.2585 40.0544,77.4966 41.3605,78.3673 46.585,77.4966 52.2449,62.6939 58.3401,61.3878 62.2585,63.5646 62.6939,77.4966 65.3061,78.8027 68.3537,74.449 72.2721,61.3878 76.1905,59.6463 77.932,61.8231 78.3673,69.2245 76.1905,78.8027 79.2381,79.6735 84.898,74.449 87.9456,59.2109 87.0748,51.3741 82.7211,50.9388" stroke="#00007f" stroke-width="2" /><polyline fill="none" points="80.5442,44.8435 84.0272,38.7483 94.0408,28.2993 101.4422,16.1088 107.102,11.7551 115.8095,8.7075 119.2925,8.7075 119.2925,15.2381 112.7619,25.2517 96.6531,40.0544 85.3333,45.2789 78.8027,46.1497" stroke="#0028ff" stroke-width="2" /><polyline fill="none" points="11.7551,48.3265 15.6735,45.7143 16.9796,46.1497 16.9796,47.8912 13.932,49.6327 11.3197,48.7619" stroke="#00d4ff" stroke-width="2" /><polyline fill="none" points="9.1429,50.5034 12.1905,50.5034 10.0136,52.6803" stroke="#7cff79" stroke-width="2" /><polyline fill="none" points="16.1088,41.3605 23.0748,30.0408 25.2517,42.2313" stroke="#ffe500" stroke-width="2" /><polyline fill="none" points="78.8027,47.8912 77.932,48.7619" stroke="#ff4600" stroke-width="2" /><polyline fill="none" points="77.932,47.4558 80.1088,49.1973" stroke="#7f0000" stroke-width="2" /></svg>