<?xml version="1.0" encoding="utf-8" ?>
<svg baseProfile="tiny" height="128" version="1.2" viewBox="0,0,128,128" width="128" xmlns="http://www.w3.org/2000/svg" xmlns:ev="http://www.w3.org/2001/xml-events" xmlns:xlink="http://www.w3.org/1999/xlink"><defs /><polyline fill="none" points="47.7288,28.2034 55.9729,19.0915 61.6136,8.678 63.3492,12.5831 63.3492,23.8644 59.4441,33.8441" stroke="#00007f" stroke-width="2" /><polyline fill="none" points="44.2576,22.1288 37.3153,21.6949 31.6746,22.9966" stroke="#0000f1" stroke-width="2" /><polyline fill="none" points="33.4102,18.2237 24.7322,15.1864 24.2983,28.2034" stroke="#004cff" stroke-width="2" /><polyline fill="none" points="26.9017,40.3525 28.2034,39.4847" stroke="#00b0ff" stroke-width="2" /><polyline fill="none" points="37.3153,36.0136 49.8983,37.3153 56.4068,39.9186" stroke="#29ffcd" stroke-width="2" /><polyline fill="none" points="38.1831,39.4847 49.4644,47.2949" stroke="#7cff79" stroke-width="2" /><polyline fill="none" points="37.7492,45.5593 45.5593,56.8407" stroke="#cdff29" stroke-width="2" /><polyline fill="none" points="26.0339,34.7119 15.1864,36.0136 8.678,38.6169" stroke="#ffc400" stroke-width="2" /><polyline fill="none" points="19.0915,44.2576 13.0169,49.0305" stroke="#ff6700" stroke-width="2" /><polyline fill="none" points="24.7322,45.9932 9.9797,59.0102" stroke="#f10700" stroke-width="2" /><polyline fill="none" points="22.9966,54.6712 24.7322,61.6136 29.939,66.8203 38.1831,69.8576 48.1627,70.7254 47.7288,86.7797 50.3322,90.6847 54.6712,92.4203 59.4441,88.9492 61.1797,78.5356 66.3864,93.2881 69.4237,94.5898 72.461,88.0814 70.2915,71.5932 92.4203,76.3661 108.4746,75.0644 105.8712,88.5153 108.9085,96.3254 112.8136,97.1932 117.5864,92.8542 118.4542,79.8373 119.322,84.1763" stroke="#7f0000" stroke-width="2" /></svg>