<?xml version="1.0" encoding="utf-8" ?>
<svg baseProfile="tiny" height="128" version="1.2" viewBox="0,0,128,128" width="128" xmlns="http://www.w3.org/2000/svg" xmlns:ev="http://www.w3.org/2001/xml-events" xmlns:xlink="http://www.w3.org/1999/xlink"><defs /><polyline fill="none" points="38.6169,45.1254 26.0339,23.8644 14.7525,12.1492 9.1119,8.678 8.678,16.0542 11.7153,27.3356 19.5254,45.1254 27.7695,58.5763" stroke="#00007f" stroke-width="2" /><polyline fill="none" points="56.8407,45.9932 60.3119,45.5593 75.9322,32.5424 88.9492,13.0169 90.6847,17.7898 91.5525,53.8034 92.8542,60.3119" stroke="#0000de" stroke-width="2" /><polyline fill="none" points="53.8034,85.9119 61.6136,85.9119 51.2,85.9119 51.2,88.0814 58.1424,91.9864 62.0475,87.2136 62.9153,83.3085" stroke="#0028ff" stroke-width="2" /><polyline fill="none" points="45.5593,93.722 21.6949,89.3831" stroke="#0080ff" stroke-width="2" /><polyline fill="none" points="49.8983,96.7593 38.1831,102.8339 29.0712,104.1356" stroke="#00d4ff" stroke-width="2" /><polyline fill="none" points="66.3864,92.4203 87.6475,89.8169 99.7966,86.3458" stroke="#36ffc0" stroke-width="2" /><polyline fill="none" points="66.8203,97.6271 82.4407,99.7966" stroke="#7cff79" stroke-width="2" /><polyline fill="none" points="42.0881,105.4373 49.8983,107.1729 52.0678,106.739 56.4068,102.8339 59.0102,102.8339 66.3864,105.8712 75.4983,106.3051 77.6678,102.4" stroke="#c0ff36" stroke-width="2" /><polyline fill="none" points="39.4847,46.4271 59.0102,45.9932" stroke="#ffe500" stroke-width="2" /><polyline fill="none" points="26.4678,54.6712 25.1661,72.461 29.5051,89.3831" stroke="#ff9400" stroke-width="2" /><polyline fill="none" points="88.9492,56.8407 91.9864,65.0847 91.5525,83.7424 82.0068,107.6068 75.0644,115.8508 60.3119,119.322 47.7288,119.322 36.8814,110.2102 32.1085,97.6271 31.2407,86.7797" stroke="#ff4600" stroke-width="2" /><polyline fill="none" points="48.1627,63.3492 48.5966,68.9898 45.9932,70.7254 43.8237,69.4237 42.9559,66.8203 45.9932,64.6508" stroke="#de0000" stroke-width="2" /><polyline fill="none" points="62.4814,64.6508 62.4814,72.0271 68.122,72.461 69.4237,70.2915 68.5559,65.9525 63.7831,63.7831" stroke="#7f0000" stroke-width="2" /></svg>