<?xml version="1.0" encoding="utf-8" ?>
<svg baseProfile="tiny" height="128" version="1.2" viewBox="0,0,128,128" width="128" xmlns="http://www.w3.org/2000/svg" xmlns:ev="http://www.w3.org/2001/xml-events" xmlns:xlink="http://www.w3.org/1999/xlink"><defs /><polyline fill="none" points="30.3729,26.0339 25.6,25.6 19.5254,27.3356 11.7153,33.4102 11.2814,49.4644 12.5831,53.8034 17.7898,58.5763 28.6373,58.5763 39.9186,55.539 47.7288,49.0305 51.2,41.6542 51.6339,30.3729 50.3322,29.5051 39.9186,29.5051 32.1085,25.1661 29.5051,27.3356" stroke="#00007f" stroke-width="2" /><polyline fill="none" points="18.6576,37.3153 18.6576,37.3153" stroke="#0000d5" stroke-width="2" /><polyline fill="none" points="39.0508,39.0508 39.0508,39.0508" stroke="#001cff" stroke-width="2" /><polyline fill="none" points="22.5627,35.5797 19.5254,36.0136" stroke="#006cff" stroke-width="2" /><polyline fill="none" points="33.8441,36.4475 44.2576,36.4475" stroke="#00b8ff" stroke-width="2" /><polyline fill="none" points="26.0339,40.7864 26.0339,40.7864" stroke="#1cffda" stroke-width="2" /><polyline fill="none" points="23.8644,42.522 31.6746,41.6542" stroke="#5cff9a" stroke-width="2" /><polyline fill="none" points="36.0136,40.7864 38.6169,43.8237" stroke="#9aff5c" stroke-width="2" /><polyline fill="none" points="29.939,42.0881 34.278,44.2576 36.8814,47.2949" stroke="#daff1c" stroke-width="2" /><polyline fill="none" points="19.0915,42.522 16.922,43.8237" stroke="#ffcb00" stroke-width="2" /><polyline fill="none" points="18.6576,45.1254 19.0915,48.1627" stroke="#ff8500" stroke-width="2" /><polyline fill="none" points="15.1864,26.4678 13.0169,8.678 8.678,40.7864" stroke="#ff3b00" stroke-width="2" /><polyline fill="none" points="35.5797,26.0339 41.6542,21.6949 60.3119,18.6576 64.2169,16.0542 62.9153,19.5254 52.5017,31.2407 42.522,39.4847" stroke="#d50000" stroke-width="2" /><polyline fill="none" points="48.5966,43.8237 83.3085,48.1627 96.7593,48.1627 111.9458,43.3898 114.5492,46.861 119.322,59.4441" stroke="#7f0000" stroke-width="2" /></svg>