<?xml version="1.0" encoding="utf-8" ?>
<svg baseProfile="tiny" height="128" version="1.2" viewBox="0,0,128,128" width="128" xmlns="http://www.w3.org/2000/svg" xmlns:ev="http://www.w3.org/2001/xml-events" xmlns:xlink="http://www.w3.org/1999/xlink"><defs /><polyline fill="none" points="94.1559,28.2034 92.8542,23.8644 87.6475,26.9017 81.139,32.1085 75.0644,40.3525 77.2339,47.2949 81.5729,51.6339 89.3831,50.7661 98.4949,45.5593 102.4,40.3525 103.7017,36.0136 98.9288,27.3356 95.4576,24.2983 93.722,24.2983" stroke="#00007f" stroke-width="2" /><polyline fill="none" points="101.5322,31.6746 104.5695,21.261 104.1356,8.678 101.9661,9.9797 92.8542,26.9017" stroke="#0000de" stroke-width="2" /><polyline fill="none" points="85.0441,30.8068 81.5729,17.3559 78.9695,13.4508 77.2339,13.0169 74.6305,45.1254" stroke="#0028ff" stroke-width="2" /><polyline fill="none" points="100.6644,36.0136 100.2305,36.0136" stroke="#0080ff" stroke-width="2" /><polyline fill="none" points="88.9492,36.0136 88.9492,36.0136" stroke="#00d4ff" stroke-width="2" /><polyline fill="none" points="89.8169,41.6542 89.8169,41.6542" stroke="#36ffc0" stroke-width="2" /><polyline fill="none" points="81.139,39.0508 81.5729,39.0508" stroke="#7cff79" stroke-width="2" /><polyline fill="none" points="78.5356,54.2373 77.2339,52.9356 61.1797,49.4644 40.7864,52.0678 29.939,56.8407 21.6949,63.3492 13.8847,75.0644 13.0169,79.8373 13.8847,83.7424 20.8271,88.5153 34.7119,87.6475 45.1254,84.1763 54.6712,78.5356 63.7831,70.7254 79.8373,54.2373 90.6847,38.6169 90.6847,36.4475 84.6102,36.4475" stroke="#c0ff36" stroke-width="2" /><polyline fill="none" points="25.1661,65.9525 13.4508,55.9729 10.8475,55.539 9.9797,59.4441 8.678,68.5559 9.1119,79.4034 11.2814,81.5729 20.8271,83.7424" stroke="#ffe500" stroke-width="2" /><polyline fill="none" points="46.861,80.7051 45.5593,119.322" stroke="#ff9400" stroke-width="2" /><polyline fill="none" points="56.4068,68.9898 60.3119,87.6475 64.6508,99.3627" stroke="#ff4600" stroke-width="2" /><polyline fill="none" points="67.6881,71.5932 82.4407,97.6271" stroke="#de0000" stroke-width="2" /><polyline fill="none" points="24.7322,91.1186 23.4305,99.3627" stroke="#7f0000" stroke-width="2" /></svg>