<?xml version="1.0" encoding="utf-8" ?>
<svg baseProfile="tiny" height="128" version="1.2" viewBox="0,0,128,128" width="128" xmlns="http://www.w3.org/2000/svg" xmlns:ev="http://www.w3.org/2001/xml-events" xmlns:xlink="http://www.w3.org/1999/xlink"><defs /><polyline fill="none" points="66.3864,22.9966 61.1797,24.2983 52.5017,28.6373 43.3898,36.4475 35.1458,49.0305 32.9763,57.7085 36.0136,69.8576 43.8237,79.8373 56.4068,87.6475 65.5186,89.3831 74.1966,88.0814 78.5356,85.9119 88.5153,76.3661 94.1559,63.7831 95.8915,50.7661 91.5525,35.1458 82.8746,26.0339 74.6305,22.9966 56.4068,22.5627" stroke="#00007f" stroke-width="2" /><polyline fill="none" points="43.8237,40.7864 39.4847,26.4678 37.7492,13.0169 40.7864,11.2814 44.2576,13.0169 55.9729,26.0339" stroke="#0000ff" stroke-width="2" /><polyline fill="none" points="74.1966,22.5627 88.5153,8.678 90.6847,15.1864 91.1186,39.0508" stroke="#0080ff" stroke-width="2" /><polyline fill="none" points="87.2136,53.8034 119.322,43.3898" stroke="#15ffe1" stroke-width="2" /><polyline fill="none" points="84.1763,64.2169 118.8881,68.122" stroke="#7cff79" stroke-width="2" /><polyline fill="none" points="86.7797,73.3288 109.3424,88.9492" stroke="#e4ff12" stroke-width="2" /><polyline fill="none" points="46.4271,65.9525 27.7695,64.6508 8.678,65.9525" stroke="#ff9400" stroke-width="2" /><polyline fill="none" points="37.7492,69.8576 30.3729,71.1593 21.261,76.3661 11.7153,84.6102" stroke="#ff1d00" stroke-width="2" /><polyline fill="none" points="39.9186,75.0644 20.3932,105.0034" stroke="#7f0000" stroke-width="2" /></svg>