<?xml version="1.0" encoding="utf-8" ?>
<svg baseProfile="tiny" height="128" version="1.2" viewBox="0,0,128,128" width="128" xmlns="http://www.w3.org/2000/svg" xmlns:ev="http://www.w3.org/2001/xml-events" xmlns:xlink="http://www.w3.org/1999/xlink"><defs /><polyline fill="none" points="50.3322,38.6169 37.3153,44.6915 29.5051,51.6339 20.3932,66.3864 11.7153,89.8169" stroke="#00007f" stroke-width="2" /><polyline fill="none" points="8.678,116.7186 11.2814,118.4542 21.261,119.322 45.9932,114.9831 66.3864,101.5322 72.8949,94.5898 76.8,86.7797 77.2339,79.4034 72.0271,63.3492 62.0475,46.4271 49.8983,34.7119 46.861,33.4102 38.6169,34.278" stroke="#0010ff" stroke-width="2" /><polyline fill="none" points="26.4678,8.678 33.8441,40.7864 30.8068,34.278 28.2034,14.7525 25.6,9.5458 24.2983,9.9797 20.8271,28.2034 22.9966,50.7661" stroke="#00a4ff" stroke-width="2" /><polyline fill="none" points="55.539,39.4847 67.2542,19.5254 69.4237,16.922 70.7254,17.3559 81.5729,47.7288 81.5729,58.5763 78.5356,67.6881" stroke="#3fffb7" stroke-width="2" /><polyline fill="none" points="41.2203,70.7254 48.1627,63.7831" stroke="#b7ff3f" stroke-width="2" /><polyline fill="none" points="59.878,55.9729 59.878,55.9729" stroke="#ffb900" stroke-width="2" /><polyline fill="none" points="55.9729,59.4441 55.9729,59.4441" stroke="#ff3000" stroke-width="2" /><polyline fill="none" points="56.4068,62.9153 56.4068,62.9153" stroke="#7f0000" stroke-width="2" /></svg>