<?xml version="1.0" encoding="utf-8" ?>
<svg baseProfile="tiny" height="128" version="1.2" viewBox="0,0,128,128" width="128" xmlns="http://www.w3.org/2000/svg" xmlns:ev="http://www.w3.org/2001/xml-events" xmlns:xlink="http://www.w3.org/1999/xlink"><defs /><polyline fill="none" points="17.3559,93.722 9.9797,79.4034 8.678,68.122 12.5831,61.1797 20.3932,59.4441 20.8271,58.1424 20.8271,13.8847 22.1288,8.678 29.0712,18.6576 41.6542,45.1254 62.0475,43.3898 68.5559,47.2949 86.7797,16.0542 89.3831,23.4305 91.5525,44.6915 111.5119,47.7288 115.4169,49.8983 118.0203,54.2373 119.322,63.3492 118.8881,80.7051 117.1525,85.9119 111.9458,91.5525 105.4373,95.8915 90.6847,101.0983 75.9322,103.2678 50.7661,103.2678 21.261,98.061 12.5831,92.8542 14.3186,90.6847" stroke="#00007f" stroke-width="2" /><polyline fill="none" points="38.6169,56.8407 50.7661,62.0475 55.539,62.0475 57.2746,59.0102" stroke="#0000fe" stroke-width="2" /><polyline fill="none" points="70.7254,58.1424 83.7424,59.4441 86.3458,56.4068" stroke="#0060ff" stroke-width="2" /><polyline fill="none" points="61.1797,73.7627 56.4068,79.8373 57.7085,80.7051 65.9525,80.2712 63.3492,74.1966" stroke="#00d4ff" stroke-width="2" /><polyline fill="none" points="46.861,76.3661 20.3932,76.3661 10.8475,78.5356" stroke="#4cffaa" stroke-width="2" /><polyline fill="none" points="39.9186,80.2712 34.7119,80.2712 28.2034,83.3085 26.9017,85.0441" stroke="#aaff4c" stroke-width="2" /><polyline fill="none" points="42.522,85.478 37.3153,91.1186" stroke="#ffe500" stroke-width="2" /><polyline fill="none" points="88.5153,76.8 97.1932,73.3288 112.3797,71.5932" stroke="#ff7a00" stroke-width="2" /><polyline fill="none" points="91.1186,79.8373 103.2678,79.8373" stroke="#fe1200" stroke-width="2" /><polyline fill="none" points="87.6475,85.0441 91.9864,87.6475" stroke="#7f0000" stroke-width="2" /></svg>