<?xml version="1.0" encoding="utf-8" ?>
<svg baseProfile="tiny" height="128" version="1.2" viewBox="0,0,128,128" width="128" xmlns="http://www.w3.org/2000/svg" xmlns:ev="http://www.w3.org/2001/xml-events" xmlns:xlink="http://www.w3.org/1999/xlink"><defs /><polyline fill="none" points="36.4475,58.5763 36.0136,68.9898 39.0508,78.5356 47.7288,85.478 58.1424,90.6847 79.8373,87.6475 91.9864,72.8949 94.1559,64.6508 94.1559,44.6915 87.6475,29.5051 84.6102,25.6 81.5729,23.8644 71.5932,22.1288 59.0102,22.9966 49.4644,26.4678 44.6915,29.939 39.4847,35.1458 38.1831,55.539" stroke="#00007f" stroke-width="2" /><polyline fill="none" points="35.5797,42.0881 31.2407,21.6949 31.6746,14.7525 40.3525,18.6576 46.861,26.0339" stroke="#0000f1" stroke-width="2" /><polyline fill="none" points="46.861,26.0339 46.861,26.0339" stroke="#004cff" stroke-width="2" /><polyline fill="none" points="69.8576,18.6576 78.1017,8.678 79.8373,9.5458 83.7424,29.0712" stroke="#00b0ff" stroke-width="2" /><polyline fill="none" points="62.0475,61.1797 58.1424,64.6508 58.5763,69.8576 62.0475,73.7627 66.8203,74.1966 69.8576,72.0271 76.3661,65.0847 78.1017,61.1797 77.2339,57.7085 69.8576,57.2746 65.0847,59.4441 63.7831,62.4814" stroke="#29ffcd" stroke-width="2" /><polyline fill="none" points="64.2169,64.2169 68.5559,61.6136 67.6881,65.0847 65.5186,63.7831" stroke="#7cff79" stroke-width="2" /><polyline fill="none" points="50.3322,44.2576 50.3322,42.522 52.5017,41.2203 55.539,42.522 55.9729,44.6915 50.7661,46.4271 49.4644,44.2576" stroke="#cdff29" stroke-width="2" /><polyline fill="none" points="70.7254,36.8814 74.1966,35.5797 72.461,36.8814 70.2915,36.4475" stroke="#ffc400" stroke-width="2" /><polyline fill="none" points="52.0678,68.122 42.0881,62.4814 33.8441,60.7458 15.1864,60.7458 8.678,62.4814" stroke="#ff6700" stroke-width="2" /><polyline fill="none" points="42.9559,70.2915 13.8847,83.3085 11.7153,86.7797" stroke="#f10700" stroke-width="2" /><polyline fill="none" points="82.8746,56.8407 119.322,26.9017" stroke="#7f0000" stroke-width="2" /></svg>