<?xml version="1.0" encoding="utf-8" ?>
<svg baseProfile="tiny" height="128" version="1.2" viewBox="0,0,128,128" width="128" xmlns="http://www.w3.org/2000/svg" xmlns:ev="http://www.w3.org/2001/xml-events" xmlns:xlink="http://www.w3.org/1999/xlink"><defs /><polyline fill="none" points="31.7823,55.7279 19.5918,63.5646 11.7551,77.4966 8.7075,87.0748 8.7075,100.5714 15.2381,109.2789 22.2041,114.068 34.8299,119.2925 54.4218,117.9864 68.3537,111.0204 77.932,98.8299 81.415,91.4286 84.898,77.4966 84.898,66.1769 83.1565,61.3878 78.8027,55.2925 68.3537,47.0204 57.9048,43.9728 47.4558,43.5374 36.5714,46.1497" stroke="#00007f" stroke-width="2" /><polyline fill="none" points="18.7211,60.9524 15.2381,53.551 14.3673,46.1497 13.0612,20.0272 15.2381,20.898 26.5578,33.9592 36.5714,48.3265" stroke="#0080ff" stroke-width="2" /><polyline fill="none" points="63.5646,44.8435 93.6054,8.7075 84.0272,33.9592 78.8027,55.2925" stroke="#7cff79" stroke-width="2" /><polyline fill="none" points="34.8299,66.1769 33.5238,73.5782 35.2653,72.2721" stroke="#ff9400" stroke-width="2" /><polyline fill="none" points="60.517,67.9184 60.517,67.9184" stroke="#7f0000" stroke-width="2" /></svg>