<?xml version="1.0" encoding="utf-8" ?>
<svg baseProfile="tiny" height="128" version="1.2" viewBox="0,0,128,128" width="128" xmlns="http://www.w3.org/2000/svg" xmlns:ev="http://www.w3.org/2001/xml-events" xmlns:xlink="http://www.w3.org/1999/xlink"><defs /><polyline fill="none" points="80.7051,33.8441 100.6644,22.1288 119.322,8.678 105.8712,61.6136" stroke="#00007f" stroke-width="2" /><polyline fill="none" points="48.1627,42.522 8.678,26.9017 22.5627,48.5966 31.6746,66.8203" stroke="#0000fe" stroke-width="2" /><polyline fill="none" points="79.4034,36.0136 72.0271,36.0136 61.6136,38.1831 51.2,41.6542 41.6542,46.4271 34.7119,52.9356 30.8068,59.878 27.7695,71.5932 27.7695,93.722 32.1085,102.8339 39.0508,108.9085 46.861,113.2475 55.539,116.2847 64.6508,116.7186 79.8373,113.2475 93.722,106.739 102.4,97.1932 106.739,85.478 107.6068,76.3661 106.3051,68.5559 98.4949,55.1051 85.9119,39.0508 79.4034,36.0136 72.8949,36.4475" stroke="#0060ff" stroke-width="2" /><polyline fill="none" points="73.3288,59.4441 72.8949,60.7458" stroke="#00d4ff" stroke-width="2" /><polyline fill="none" points="50.7661,68.122 50.7661,68.122" stroke="#4cffaa" stroke-width="2" /><polyline fill="none" points="79.4034,76.8 85.0441,71.5932" stroke="#aaff4c" stroke-width="2" /><polyline fill="none" points="81.5729,84.1763 96.3254,75.0644" stroke="#ffe500" stroke-width="2" /><polyline fill="none" points="84.1763,91.1186 96.3254,85.478" stroke="#ff7a00" stroke-width="2" /><polyline fill="none" points="49.4644,85.0441 36.8814,88.5153" stroke="#fe1200" stroke-width="2" /><polyline fill="none" points="55.1051,92.8542 55.1051,92.8542" stroke="#7f0000" stroke-width="2" /></svg>