<?xml version="1.0" encoding="utf-8" ?>
<svg baseProfile="tiny" height="128" version="1.2" viewBox="0,0,128,128" width="128" xmlns="http://www.w3.org/2000/svg" xmlns:ev="http://www.w3.org/2001/xml-events" xmlns:xlink="http://www.w3.org/1999/xlink"><defs /><polyline fill="none" points="35.1458,36.4475 32.1085,36.8814 21.261,43.8237 16.0542,51.6339 14.3186,62.9153 14.7525,84.6102 24.2983,102.4 35.5797,112.3797 52.9356,118.4542 69.8576,119.322 93.722,110.2102 97.6271,106.739 101.0983,101.0983 104.1356,82.8746 104.1356,70.7254 99.3627,53.3695 94.1559,42.9559 81.139,30.3729 69.8576,26.4678 50.3322,26.4678 42.0881,27.7695 32.9763,31.6746 21.261,34.278 11.2814,38.6169 11.7153,39.9186" stroke="#00007f" stroke-width="2" /><polyline fill="none" points="18.6576,47.2949 16.922,47.2949 15.1864,45.5593 9.9797,28.6373 8.678,19.5254 9.5458,9.9797 13.8847,8.678 19.0915,13.8847 28.2034,38.1831" stroke="#00d4ff" stroke-width="2" /><polyline fill="none" points="80.2712,29.5051 86.7797,20.3932 100.6644,10.8475 101.0983,51.6339" stroke="#ffe500" stroke-width="2" /><polyline fill="none" points="51.6339,47.7288 51.6339,55.539" stroke="#7f0000" stroke-width="2" /></svg>