<?xml version="1.0" encoding="utf-8" ?>
<svg baseProfile="tiny" height="128" version="1.2" viewBox="0,0,128,128" width="128" xmlns="http://www.w3.org/2000/svg" xmlns:ev="http://www.w3.org/2001/xml-events" xmlns:xlink="http://www.w3.org/1999/xlink"><defs /><polyline fill="none" points="92.2993,40.9252 103.619,23.9456 119.2925,8.7075 118.8571,13.932 111.8912,31.7823 106.2313,51.8095 103.619,52.2449 94.0408,49.1973 87.9456,45.7143" stroke="#00007f" stroke-width="2" /><polyline fill="none" points="104.4898,54.8571 108.4082,63.5646 109.2789,73.5782 108.4082,86.2041 103.619,93.6054 97.9592,98.3946 78.3673,107.102 48.3265,107.9728 38.3129,103.1837 29.6054,96.2177 22.6395,83.5918 19.5918,74.449 19.5918,66.1769 22.6395,61.3878 34.8299,56.5986 51.3741,51.8095 71.8367,48.7619 84.4626,49.1973 102.7483,59.2109" stroke="#0000e8" stroke-width="2" /><polyline fill="none" points="28.7347,56.1633 27.4286,50.5034 21.7687,39.1837 15.6735,31.3469 9.5782,26.5578 8.7075,31.3469 9.5782,37.0068 18.2857,70.966" stroke="#0038ff" stroke-width="2" /><polyline fill="none" points="45.7143,68.3537 44.8435,72.2721" stroke="#0094ff" stroke-width="2" /><polyline fill="none" points="73.5782,64.4354 77.0612,73.5782" stroke="#0cf4ea" stroke-width="2" /><polyline fill="none" points="60.0816,81.8503 60.0816,84.0272 63.1293,84.0272 63.1293,81.8503 60.517,81.415" stroke="#56ffa0" stroke-width="2" /><polyline fill="none" points="43.102,86.6395 48.7619,85.7687" stroke="#a0ff56" stroke-width="2" /><polyline fill="none" points="43.9728,91.4286 49.6327,90.1224" stroke="#eaff0c" stroke-width="2" /><polyline fill="none" points="47.4558,95.3469 51.3741,91.4286" stroke="#ffaa00" stroke-width="2" /><polyline fill="none" points="74.8844,80.1088 90.9932,80.1088" stroke="#ff5500" stroke-width="2" /><polyline fill="none" points="79.6735,85.3333 83.1565,85.7687" stroke="#e80000" stroke-width="2" /><polyline fill="none" points="76.6259,92.2993 89.6871,92.2993 94.9116,94.0408" stroke="#7f0000" stroke-width="2" /></svg>