<?xml version="1.0" encoding="utf-8" ?>
<svg baseProfile="tiny" height="128" version="1.2" viewBox="0,0,128,128" width="128" xmlns="http://www.w3.org/2000/svg" xmlns:ev="http://www.w3.org/2001/xml-events" xmlns:xlink="http://www.w3.org/1999/xlink"><defs /><polyline fill="none" points="35.1458,46.861 34.278,30.3729 29.5051,8.678 39.4847,19.0915 52.9356,43.3898 56.4068,36.8814 60.3119,33.4102 70.2915,30.8068 74.6305,30.8068 84.1763,33.8441 92.4203,39.4847 92.8542,42.522 98.061,30.8068 106.739,19.0915 112.8136,16.0542 114.5492,16.0542 115.4169,17.7898 114.5492,26.0339 106.739,46.4271 118.0203,68.122 119.322,74.6305 108.4746,85.9119 78.1017,102.8339 36.0136,110.6441 27.7695,108.4746 19.0915,100.6644 13.8847,91.5525 11.2814,83.3085 11.2814,75.4983 13.8847,66.8203 19.9593,57.7085 27.7695,50.3322 34.7119,47.2949 36.4475,52.0678" stroke="#00007f" stroke-width="2" /><polyline fill="none" points="49.0305,65.5186 8.678,69.8576 16.4881,72.0271" stroke="#0010ff" stroke-width="2" /><polyline fill="none" points="45.5593,78.9695 20.8271,84.6102 18.2237,85.478 22.1288,87.6475" stroke="#00a4ff" stroke-width="2" /><polyline fill="none" points="44.2576,85.478 22.9966,91.1186" stroke="#3fffb7" stroke-width="2" /><polyline fill="none" points="86.7797,65.0847 101.0983,59.4441 118.0203,56.8407 118.4542,58.1424 114.9831,61.1797" stroke="#b7ff3f" stroke-width="2" /><polyline fill="none" points="81.5729,77.2339 110.2102,72.8949 109.7763,74.1966" stroke="#ffb900" stroke-width="2" /><polyline fill="none" points="76.8,88.5153 97.1932,85.9119" stroke="#ff3000" stroke-width="2" /><polyline fill="none" points="59.4441,56.8407 68.9898,52.5017 84.6102,52.0678" stroke="#7f0000" stroke-width="2" /></svg>