<?xml version="1.0" encoding="utf-8" ?>
<svg baseProfile="tiny" height="128" version="1.2" viewBox="0,0,128,128" width="128" xmlns="http://www.w3.org/2000/svg" xmlns:ev="http://www.w3.org/2001/xml-events" xmlns:xlink="http://www.w3.org/1999/xlink"><defs /><polyline fill="none" points="34.278,45.1254 25.6,45.1254 19.5254,48.5966 12.1492,60.7458 9.5458,69.8576 8.678,81.5729 9.5458,85.478 17.3559,93.722 26.4678,100.6644 41.6542,104.5695 52.5017,105.0034 83.3085,103.7017 109.3424,94.5898 112.8136,92.4203 117.5864,85.478 119.322,80.7051 118.8881,72.0271 114.5492,65.0847 104.1356,53.3695 90.6847,44.6915 85.0441,43.3898 73.3288,42.9559 31.6746,50.3322" stroke="#00007f" stroke-width="2" /><polyline fill="none" points="25.1661,42.0881 40.3525,15.6203 44.2576,27.7695 54.2373,45.9932" stroke="#0000fe" stroke-width="2" /><polyline fill="none" points="75.9322,40.3525 86.3458,13.0169 90.2508,8.678 96.3254,35.1458 100.6644,48.1627" stroke="#0060ff" stroke-width="2" /><polyline fill="none" points="56.8407,69.8576 56.8407,69.8576" stroke="#00d4ff" stroke-width="2" /><polyline fill="none" points="59.0102,72.461 59.0102,73.7627 60.3119,72.461 60.7458,89.8169 58.5763,92.4203 52.0678,92.4203 46.4271,91.1186 42.9559,88.0814 42.0881,83.3085" stroke="#4cffaa" stroke-width="2" /><polyline fill="none" points="59.878,77.2339 61.6136,85.478 66.3864,95.4576 74.6305,95.4576 75.4983,84.6102" stroke="#aaff4c" stroke-width="2" /><polyline fill="none" points="51.6339,76.8 51.6339,76.8" stroke="#ffe500" stroke-width="2" /><polyline fill="none" points="54.2373,75.0644 38.6169,71.5932 27.3356,66.3864" stroke="#ff7a00" stroke-width="2" /><polyline fill="none" points="46.4271,76.8 18.6576,88.9492" stroke="#fe1200" stroke-width="2" /><polyline fill="none" points="65.9525,74.1966 82.8746,69.4237 113.6814,62.9153" stroke="#7f0000" stroke-width="2" /></svg>