<?xml version="1.0" encoding="utf-8" ?>
<svg baseProfile="tiny" height="128" version="1.2" viewBox="0,0,128,128" width="128" xmlns="http://www.w3.org/2000/svg" xmlns:ev="http://www.w3.org/2001/xml-events" xmlns:xlink="http://www.w3.org/1999/xlink"><defs /><polyline fill="none" points="112.7619,45.2789 108.4082,41.3605 94.0408,37.4422 77.932,36.1361 53.551,36.1361 38.7483,37.4422 30.4762,40.0544 14.8027,47.4558" stroke="#00007f" stroke-width="2" /><polyline fill="none" points="14.8027,47.4558 8.7075,8.7075 10.8844,11.3197 23.5102,18.2857 38.7483,33.0884" stroke="#0028ff" stroke-width="2" /><polyline fill="none" points="97.5238,35.2653 119.2925,10.0136 117.551,40.0544 116.2449,43.9728" stroke="#00d4ff" stroke-width="2" /><polyline fill="none" points="48.7619,59.2109 36.1361,57.9048 31.3469,60.517 29.6054,63.1293 32.6531,63.1293 37.4422,66.6122 45.2789,68.7891 47.0204,68.3537 48.7619,63.1293" stroke="#7cff79" stroke-width="2" /><polyline fill="none" points="95.7823,57.9048 80.9796,57.9048 77.932,59.2109 77.0612,61.8231 78.8027,64.4354 88.381,66.6122 95.7823,63.5646 97.0884,60.0816" stroke="#ffe500" stroke-width="2" /><polyline fill="none" points="90.1224,65.3061 91.4286,58.3401" stroke="#ff4600" stroke-width="2" /><polyline fill="none" points="86.2041,58.3401 86.2041,65.7415" stroke="#7f0000" stroke-width="2" /></svg>