<?xml version="1.0" encoding="utf-8" ?>
<svg baseProfile="tiny" height="128" version="1.2" viewBox="0,0,128,128" width="128" xmlns="http://www.w3.org/2000/svg" xmlns:ev="http://www.w3.org/2001/xml-events" xmlns:xlink="http://www.w3.org/1999/xlink"><defs /><polyline fill="none" points="76.8,27.7695 68.5559,26.4678 57.2746,30.3729 45.9932,39.4847 40.3525,48.1627 36.8814,61.1797 39.4847,70.2915 43.8237,75.9322 47.7288,78.5356 55.9729,81.139 68.5559,79.4034 89.8169,68.9898 98.061,59.0102 101.5322,48.5966 101.0983,40.7864 96.7593,31.2407 88.5153,20.3932 83.7424,16.922 79.4034,15.6203 69.4237,15.6203 64.2169,20.3932 61.1797,26.4678" stroke="#00007f" stroke-width="2" /><polyline fill="none" points="50.3322,31.6746 46.861,30.8068 42.9559,22.5627 42.0881,14.3186 43.8237,12.1492 47.7288,9.5458 53.3695,10.4136 57.2746,16.922 59.0102,23.4305" stroke="#0000fe" stroke-width="2" /><polyline fill="none" points="76.3661,24.7322 77.6678,14.3186 79.8373,10.8475 83.3085,8.678 88.5153,8.678 91.9864,13.0169 92.8542,17.7898 87.6475,23.8644 76.8,29.0712" stroke="#0060ff" stroke-width="2" /><polyline fill="none" points="75.4983,23.8644 84.1763,29.939 90.2508,37.3153 99.3627,60.7458" stroke="#00d4ff" stroke-width="2" /><polyline fill="none" points="66.3864,49.4644 65.0847,47.7288 62.0475,47.7288 59.878,50.7661 60.7458,53.8034 68.122,52.0678" stroke="#4cffaa" stroke-width="2" /><polyline fill="none" points="59.0102,55.9729 53.8034,54.6712 27.3356,52.5017 17.3559,52.5017 8.678,54.2373" stroke="#aaff4c" stroke-width="2" /><polyline fill="none" points="58.1424,61.1797 49.8983,61.1797 36.0136,66.8203 30.8068,69.8576 23.4305,77.2339" stroke="#ffe500" stroke-width="2" /><polyline fill="none" points="61.1797,66.8203 49.0305,73.7627 37.3153,86.3458 25.1661,102.4" stroke="#ff7a00" stroke-width="2" /><polyline fill="none" points="72.0271,55.9729 85.478,46.4271 94.5898,42.522 111.078,38.6169 119.322,38.1831" stroke="#fe1200" stroke-width="2" /><polyline fill="none" points="79.4034,61.6136 95.0237,55.1051 105.0034,54.6712 114.1153,57.2746 119.322,62.9153" stroke="#7f0000" stroke-width="2" /></svg>