<?xml version="1.0" encoding="utf-8" ?>
<svg baseProfile="tiny" height="128" version="1.2" viewBox="0,0,128,128" width="128" xmlns="http://www.w3.org/2000/svg" xmlns:ev="http://www.w3.org/2001/xml-events" xmlns:xlink="http://www.w3.org/1999/xlink"><defs /><polyline fill="none" points="95.3469,34.8299 76.1905,43.102 66.6122,49.6327 61.8231,55.2925 59.6463,60.9524 59.6463,68.7891 61.8231,73.5782 72.2721,79.6735 95.7823,86.2041 111.0204,87.0748 114.5034,86.2041 119.2925,75.7551 119.2925,61.8231 110.1497,49.6327 94.0408,33.5238" stroke="#00007f" stroke-width="2" /><polyline fill="none" points="90.5578,37.0068 84.0272,29.1701 78.8027,26.5578 74.8844,28.7347 72.2721,32.6531 70.5306,40.4898 72.2721,43.5374" stroke="#0000de" stroke-width="2" /><polyline fill="none" points="101.4422,39.1837 108.4082,26.1224 110.1497,36.5714 108.8435,45.2789" stroke="#0028ff" stroke-width="2" /><polyline fill="none" points="89.2517,46.585 87.0748,48.3265 90.5578,47.0204" stroke="#0080ff" stroke-width="2" /><polyline fill="none" points="97.5238,50.068 98.3946,50.068" stroke="#00d4ff" stroke-width="2" /><polyline fill="none" points="90.9932,55.2925 82.7211,64.8707" stroke="#36ffc0" stroke-width="2" /><polyline fill="none" points="88.381,59.2109 89.6871,63.5646 93.1701,68.3537" stroke="#7cff79" stroke-width="2" /><polyline fill="none" points="53.9864,53.551 50.068,50.5034 43.5374,48.3265" stroke="#c0ff36" stroke-width="2" /><polyline fill="none" points="9.5782,47.0204 8.7075,40.9252 10.0136,33.5238 21.7687,33.5238 20.898,29.1701 28.7347,39.619" stroke="#ffe500" stroke-width="2" /><polyline fill="none" points="30.4762,35.2653 31.7823,28.2993 30.0408,26.9932 28.2993,28.7347 28.7347,33.0884 35.2653,32.6531" stroke="#ff9400" stroke-width="2" /><polyline fill="none" points="38.7483,22.6395 37.4422,23.0748 37.4422,27.8639 40.9252,33.5238 43.5374,26.1224 42.2313,23.5102 40.4898,23.0748" stroke="#ff4600" stroke-width="2" /><polyline fill="none" points="43.9728,21.3333 45.7143,31.3469 48.7619,32.6531 56.1633,29.6054 61.8231,25.6871 58.7755,29.1701 66.6122,23.0748 86.6395,14.8027" stroke="#de0000" stroke-width="2" /><polyline fill="none" points="86.2041,16.1088 99.7007,14.8027 105.3605,8.7075" stroke="#7f0000" stroke-width="2" /></svg>