<?xml version="1.0" encoding="utf-8" ?>
<svg baseProfile="tiny" height="128" version="1.2" viewBox="0,0,128,128" width="128" xmlns="http://www.w3.org/2000/svg" xmlns:ev="http://www.w3.org/2001/xml-events" xmlns:xlink="http://www.w3.org/1999/xlink"><defs /><polyline fill="none" points="10.8475,64.2169 19.5254,26.9017 26.9017,39.9186 35.5797,61.1797" stroke="#00007f" stroke-width="2" /><polyline fill="none" points="59.0102,60.7458 67.2542,46.4271 80.7051,8.678 78.1017,41.6542 78.1017,63.7831 80.7051,83.3085" stroke="#004cff" stroke-width="2" /><polyline fill="none" points="36.8814,62.0475 42.9559,57.7085 46.861,57.2746 55.1051,59.4441 57.7085,62.9153" stroke="#29ffcd" stroke-width="2" /><polyline fill="none" points="80.2712,82.4407 79.8373,94.5898 68.5559,107.6068 62.4814,112.3797 48.5966,118.0203 43.3898,118.8881 26.0339,119.322 19.0915,117.5864 15.6203,116.2847 13.0169,91.5525 8.678,70.7254 11.2814,62.9153" stroke="#cdff29" stroke-width="2" /><polyline fill="none" points="45.9932,85.478 48.5966,86.3458 45.5593,83.7424 43.3898,87.6475 45.1254,88.9492 45.5593,87.2136 49.0305,85.9119 46.4271,85.9119 47.7288,87.6475 46.4271,88.5153" stroke="#ff6700" stroke-width="2" /><polyline fill="none" points="46.4271,88.5153 42.9559,103.2678 40.7864,105.4373 33.4102,106.3051 39.4847,107.1729" stroke="#7f0000" stroke-width="2" /></svg>