<?xml version="1.0" encoding="utf-8" ?>
<svg baseProfile="tiny" height="128" version="1.2" viewBox="0,0,128,128" width="128" xmlns="http://www.w3.org/2000/svg" xmlns:ev="http://www.w3.org/2001/xml-events" xmlns:xlink="http://www.w3.org/1999/xlink"><defs /><polyline fill="none" points="12.1492,61.1797 9.5458,45.9932 9.5458,32.1085 13.4508,14.3186 20.8271,8.678 23.4305,34.7119 52.9356,34.7119 53.8034,32.1085 56.4068,29.939 64.6508,26.4678 75.4983,26.4678 80.2712,29.0712 82.4407,33.4102 82.0068,42.0881 75.0644,52.5017 69.8576,54.6712 70.7254,85.9119 68.9898,101.5322 64.6508,108.9085 51.2,117.5864 43.8237,119.322 35.5797,117.5864 20.3932,110.2102 13.4508,105.0034 8.678,95.0237 9.1119,64.6508 10.4136,59.878" stroke="#00007f" stroke-width="2" /><polyline fill="none" points="23.8644,62.9153 52.5017,62.9153" stroke="#0080ff" stroke-width="2" /><polyline fill="none" points="43.3898,62.4814 46.861,59.4441 56.4068,55.1051" stroke="#7cff79" stroke-width="2" /><polyline fill="none" points="36.0136,57.2746 24.2983,45.9932" stroke="#ff9400" stroke-width="2" /><polyline fill="none" points="21.6949,58.1424 13.8847,56.8407" stroke="#7f0000" stroke-width="2" /></svg>