<?xml version="1.0" encoding="utf-8" ?>
<svg baseProfile="tiny" height="128" version="1.2" viewBox="0,0,128,128" width="128" xmlns="http://www.w3.org/2000/svg" xmlns:ev="http://www.w3.org/2001/xml-events" xmlns:xlink="http://www.w3.org/1999/xlink"><defs /><polyline fill="none" points="23.5102,38.3129 24.381,39.619 23.9456,37.8776" stroke="#00007f" stroke-width="2" /><polyline fill="none" points="37.0068,35.7007 36.5714,37.0068 37.0068,35.7007 35.7007,35.2653 35.2653,36.1361 36.5714,37.8776" stroke="#0000de" stroke-width="2" /><polyline fill="none" points="30.4762,47.8912 33.5238,50.068 36.5714,50.068 37.0068,42.6667 31.7823,43.102" stroke="#0028ff" stroke-width="2" /><polyline fill="none" points="27.4286,49.6327 20.898,54.4218 20.0272,58.3401" stroke="#0080ff" stroke-width="2" /><polyline fill="none" points="33.0884,55.7279 29.6054,57.4694 27.8639,68.7891" stroke="#00d4ff" stroke-width="2" /><polyline fill="none" points="43.9728,43.102 50.9388,43.102 56.1633,47.8912" stroke="#36ffc0" stroke-width="2" /><polyline fill="none" points="43.5374,50.5034 53.9864,50.5034" stroke="#7cff79" stroke-width="2" /><polyline fill="none" points="37.8776,50.068 39.1837,57.9048 36.5714,60.9524" stroke="#c0ff36" stroke-width="2" /><polyline fill="none" points="39.619,52.2449 43.102,53.9864 50.068,54.4218" stroke="#ffe500" stroke-width="2" /><polyline fill="none" points="17.415,35.2653 15.2381,35.7007 13.932,33.9592 8.7075,22.2041 14.3673,22.2041 22.2041,25.6871 29.1701,22.6395 39.619,20.898 49.6327,8.7075 50.9388,12.1905 49.1973,21.3333 57.9048,29.1701 65.3061,39.1837 67.0476,45.2789 67.483,51.8095 62.2585,58.7755 57.034,62.6939 46.585,65.7415 33.9592,66.6122 28.7347,64.8707 22.6395,59.6463 16.5442,40.9252" stroke="#ff9400" stroke-width="2" /><polyline fill="none" points="34.3946,73.1429 27.8639,97.9592 28.7347,109.7143 31.3469,114.5034 40.9252,119.2925 59.2109,119.2925 78.8027,111.8912 88.8163,104.4898 94.9116,97.9592 97.0884,93.1701 97.0884,82.7211 95.3469,74.0136 85.3333,58.7755 77.4966,53.1156 70.0952,50.9388" stroke="#ff4600" stroke-width="2" /><polyline fill="none" points="41.7959,83.1565 44.4082,94.4762 50.068,93.1701 51.3741,87.5102" stroke="#de0000" stroke-width="2" /><polyline fill="none" points="67.9184,73.5782 78.8027,77.4966 80.5442,75.3197" stroke="#7f0000" stroke-width="2" /></svg>