<?xml version="1.0" encoding="utf-8" ?>
<svg baseProfile="tiny" height="128" version="1.2" viewBox="0,0,128,128" width="128" xmlns="http://www.w3.org/2000/svg" xmlns:ev="http://www.w3.org/2001/xml-events" xmlns:xlink="http://www.w3.org/1999/xlink"><defs /><polyline fill="none" points="20.4626,47.8912 26.5578,27.8639 34.8299,8.7075 36.5714,10.449 42.6667,26.9932 43.9728,38.3129" stroke="#00007f" stroke-width="2" /><polyline fill="none" points="43.9728,38.3129 51.3741,35.2653 70.0952,35.2653 83.1565,38.3129 93.6054,42.2313 112.7619,21.7687 114.068,34.3946 114.068,66.6122 112.7619,71.4014 103.619,83.5918 89.2517,97.5238 86.2041,98.8299 78.3673,100.1361 54.8571,99.7007 41.7959,97.5238 23.0748,90.1224 15.6735,84.898 10.0136,78.3673 8.7075,56.5986 10.0136,49.1973" stroke="#0010ff" stroke-width="2" /><polyline fill="none" points="50.9388,80.1088 55.2925,83.5918 60.0816,85.3333 67.483,85.3333 65.7415,90.9932 59.6463,91.4286 57.9048,88.8163 57.4694,84.4626" stroke="#00a4ff" stroke-width="2" /><polyline fill="none" points="62.6939,85.7687 62.6939,89.6871" stroke="#3fffb7" stroke-width="2" /><polyline fill="none" points="76.1905,64.4354 87.9456,64.4354 92.7347,67.483 94.9116,70.5306" stroke="#b7ff3f" stroke-width="2" /><polyline fill="none" points="53.551,65.7415 46.1497,61.8231 36.5714,61.8231 33.0884,63.1293 31.7823,64.8707 32.2177,67.483 33.9592,68.7891" stroke="#ffb900" stroke-width="2" /><polyline fill="none" points="61.8231,72.2721 59.6463,75.7551 60.0816,71.4014 62.2585,74.449" stroke="#ff3000" stroke-width="2" /><polyline fill="none" points="72.7075,119.2925 72.2721,93.1701 69.6599,92.2993 67.9184,94.0408 66.6122,98.8299 66.6122,107.9728" stroke="#7f0000" stroke-width="2" /></svg>