<?xml version="1.0" encoding="utf-8" ?>
<svg baseProfile="tiny" height="128" version="1.2" viewBox="0,0,128,128" width="128" xmlns="http://www.w3.org/2000/svg" xmlns:ev="http://www.w3.org/2001/xml-events" xmlns:xlink="http://www.w3.org/1999/xlink"><defs /><polyline fill="none" points="16.4881,88.5153 12.5831,82.0068 9.1119,68.122 9.1119,56.4068 16.0542,46.4271 9.1119,16.4881 8.678,9.5458 9.9797,8.678 15.1864,9.5458 22.9966,16.4881 41.6542,39.9186 49.0305,36.8814 55.1051,36.4475 68.9898,36.4475 79.8373,39.4847 92.8542,22.5627 104.5695,10.4136 105.4373,12.5831 105.4373,29.939 102.8339,44.2576 100.2305,50.7661 109.3424,69.8576 111.9458,78.5356 111.5119,83.3085 108.4746,91.1186 102.4,100.6644 88.0814,111.5119 73.7627,115.8508 52.0678,119.322 42.0881,119.322 32.5424,115.4169 20.8271,98.4949 17.3559,83.7424" stroke="#00007f" stroke-width="2" /><polyline fill="none" points="39.9186,63.3492 43.8237,65.0847 42.522,67.2542 40.3525,66.3864" stroke="#0000ff" stroke-width="2" /><polyline fill="none" points="79.8373,68.122 79.8373,64.2169 82.0068,65.5186 82.4407,66.8203 78.9695,67.6881" stroke="#0080ff" stroke-width="2" /><polyline fill="none" points="36.0136,80.2712 19.0915,82.0068" stroke="#15ffe1" stroke-width="2" /><polyline fill="none" points="39.9186,84.6102 21.6949,98.9288" stroke="#7cff79" stroke-width="2" /><polyline fill="none" points="37.3153,98.4949 36.8814,102.4 32.5424,110.2102" stroke="#e4ff12" stroke-width="2" /><polyline fill="none" points="86.7797,81.5729 111.078,76.8" stroke="#ff9400" stroke-width="2" /><polyline fill="none" points="85.9119,90.6847 98.9288,97.1932" stroke="#ff1d00" stroke-width="2" /><polyline fill="none" points="85.9119,98.061 92.4203,113.2475" stroke="#7f0000" stroke-width="2" /></svg>