<?xml version="1.0" encoding="utf-8" ?>
<svg baseProfile="tiny" height="128" version="1.2" viewBox="0,0,128,128" width="128" xmlns="http://www.w3.org/2000/svg" xmlns:ev="http://www.w3.org/2001/xml-events" xmlns:xlink="http://www.w3.org/1999/xlink"><defs /><polyline fill="none" points="102.6621,87.372 82.5666,91.3038 62.9078,96.9829 35.8225,99.1672 31.0171,96.9829 27.5222,92.1775 23.5904,81.6928 23.1536,64.6553 24.4642,59.8498 32.3276,48.9283 35.8225,45.8703 51.1126,38.4437 59.413,37.1331 81.6928,37.1331 93.9249,42.8123 101.7884,53.7338 104.8464,65.0922 104.8464,81.6928 103.5358,85.6246" stroke="#00007f" stroke-width="2" /><polyline fill="none" points="78.198,41.5017 81.6928,32.7645 90.43,20.9693 101.7884,11.7952 109.215,8.7372 113.5836,8.7372 118.3891,19.6587 119.2628,41.9386 116.2048,51.5495 109.215,60.2867" stroke="#0010ff" stroke-width="2" /><polyline fill="none" points="49.802,41.9386 38.0068,36.2594 26.2116,23.5904 20.0956,19.6587 8.7372,18.3481 8.7372,37.57 11.7952,41.5017 21.843,47.1809 28.8328,53.7338" stroke="#00a4ff" stroke-width="2" /><polyline fill="none" points="52.8601,75.1399 27.5222,90.43" stroke="#3fffb7" stroke-width="2" /><polyline fill="none" points="56.3549,82.5666 44.5597,101.3515" stroke="#b7ff3f" stroke-width="2" /><polyline fill="none" points="80.3823,72.9556 84.314,75.1399 89.5563,75.1399 111.8362,81.6928" stroke="#ffb900" stroke-width="2" /><polyline fill="none" points="74.2662,81.6928 90.8669,92.6143" stroke="#ff3000" stroke-width="2" /><polyline fill="none" points="56.3549,72.5188 57.6655,65.0922 61.1604,62.471 69.8976,62.471 73.8294,64.2184 75.1399,68.1502 70.7713,75.5768 63.3447,74.7031 62.0341,66.4027" stroke="#7f0000" stroke-width="2" /></svg>