<?xml version="1.0" encoding="utf-8" ?>
<svg baseProfile="tiny" height="128" version="1.2" viewBox="0,0,128,128" width="128" xmlns="http://www.w3.org/2000/svg" xmlns:ev="http://www.w3.org/2001/xml-events" xmlns:xlink="http://www.w3.org/1999/xlink"><defs /><polyline fill="none" points="27.7695,42.522 22.9966,36.0136 8.678,23.8644 13.4508,27.3356 23.8644,29.0712 42.522,37.7492 45.1254,33.8441 51.2,35.5797 57.7085,32.5424 62.0475,32.1085 83.3085,34.278 90.2508,31.6746 100.6644,16.922 112.3797,8.678 112.3797,36.0136 117.5864,38.6169 119.322,42.9559 117.1525,57.2746 108.9085,68.9898 89.8169,80.2712 67.6881,85.9119 51.6339,84.6102 42.0881,76.8 36.8814,59.4441 31.2407,46.4271 27.3356,41.6542" stroke="#00007f" stroke-width="2" /><polyline fill="none" points="75.9322,60.7458 75.0644,62.9153 76.3661,63.7831 79.4034,59.878 76.8,60.7458 75.4983,62.9153 76.8,62.4814" stroke="#0028ff" stroke-width="2" /><polyline fill="none" points="78.1017,61.6136 78.9695,67.6881 76.8,71.5932 73.7627,73.3288 75.4983,69.8576" stroke="#00d4ff" stroke-width="2" /><polyline fill="none" points="78.1017,66.8203 78.9695,70.2915 81.139,70.2915 85.478,67.6881 86.7797,64.2169" stroke="#7cff79" stroke-width="2" /><polyline fill="none" points="85.0441,61.6136 85.478,61.6136" stroke="#ffe500" stroke-width="2" /><polyline fill="none" points="91.1186,60.7458 91.5525,61.6136 92.4203,60.3119" stroke="#ff4600" stroke-width="2" /><polyline fill="none" points="92.4203,65.0847 89.8169,65.5186" stroke="#7f0000" stroke-width="2" /></svg>