<?xml version="1.0" encoding="utf-8" ?>
<svg baseProfile="tiny" height="128" version="1.2" viewBox="0,0,128,128" width="128" xmlns="http://www.w3.org/2000/svg" xmlns:ev="http://www.w3.org/2001/xml-events" xmlns:xlink="http://www.w3.org/1999/xlink"><defs /><polyline fill="none" points="46.4271,52.0678 74.6305,50.3322 76.8,61.1797 77.2339,77.6678 78.9695,77.6678 90.2508,77.6678 91.5525,75.4983 90.2508,71.5932 89.3831,54.2373 87.6475,52.5017" stroke="#00007f" stroke-width="2" /><polyline fill="none" points="47.2949,52.5017 36.0136,52.0678 34.7119,53.8034 37.7492,65.5186 38.6169,76.8 29.5051,77.2339 22.5627,74.1966 20.3932,61.1797 21.6949,50.7661 12.1492,39.9186" stroke="#0000d1" stroke-width="2" /><polyline fill="none" points="38.6169,51.6339 39.0508,52.0678" stroke="#0010ff" stroke-width="2" /><polyline fill="none" points="16.922,36.8814 69.4237,36.4475 71.5932,35.5797 73.7627,29.0712 78.5356,24.7322 88.5153,20.8271 102.4,18.2237 109.7763,21.261 111.5119,23.4305 112.3797,29.939 111.078,35.1458 107.1729,40.3525 100.6644,44.2576 92.8542,47.7288 89.3831,47.2949 89.3831,46.4271" stroke="#0058ff" stroke-width="2" /><polyline fill="none" points="86.3458,25.6 85.0441,23.4305 84.6102,10.4136 86.3458,10.8475 95.0237,21.6949 97.1932,21.6949" stroke="#00a4ff" stroke-width="2" /><polyline fill="none" points="104.5695,21.6949 110.2102,8.678 111.9458,8.678 119.322,21.261" stroke="#05ecf1" stroke-width="2" /><polyline fill="none" points="85.478,47.2949 89.8169,48.1627 98.9288,43.8237" stroke="#3fffb7" stroke-width="2" /><polyline fill="none" points="85.0441,49.4644 100.6644,37.7492" stroke="#7cff79" stroke-width="2" /><polyline fill="none" points="49.0305,56.8407 48.5966,73.7627 54.2373,72.461 60.3119,68.5559 60.3119,61.6136 64.2169,59.0102" stroke="#b7ff3f" stroke-width="2" /><polyline fill="none" points="69.8576,56.8407 69.4237,70.2915 72.461,71.5932 75.9322,67.2542" stroke="#f1fc05" stroke-width="2" /><polyline fill="none" points="78.1017,68.5559 75.0644,51.2" stroke="#ffb900" stroke-width="2" /><polyline fill="none" points="24.2983,44.6915 19.5254,41.6542 10.4136,29.939" stroke="#ff7300" stroke-width="2" /><polyline fill="none" points="18.6576,49.8983 12.1492,46.861 8.678,40.3525 8.678,35.5797" stroke="#ff3000" stroke-width="2" /><polyline fill="none" points="15.1864,42.522 9.9797,35.1458" stroke="#d10000" stroke-width="2" /><polyline fill="none" points="9.5458,37.7492 9.1119,36.8814" stroke="#7f0000" stroke-width="2" /></svg>