<?xml version="1.0" encoding="utf-8" ?>
<svg baseProfile="tiny" height="128" version="1.2" viewBox="0,0,128,128" width="128" xmlns="http://www.w3.org/2000/svg" xmlns:ev="http://www.w3.org/2001/xml-events" xmlns:xlink="http://www.w3.org/1999/xlink"><defs /><polyline fill="none" points="90.2508,49.4644 76.3661,41.6542 59.0102,38.1831 47.7288,38.6169 36.0136,42.0881 29.0712,45.5593 17.7898,55.9729 13.0169,65.0847 11.2814,72.8949 10.8475,90.2508 13.4508,96.7593 18.2237,104.1356 25.6,110.6441 36.8814,117.1525 49.4644,119.322 63.7831,118.8881 82.0068,108.9085 87.2136,104.5695 92.4203,96.3254 95.0237,87.6475 96.3254,77.6678 95.8915,59.878 87.2136,45.5593" stroke="#00007f" stroke-width="2" /><polyline fill="none" points="78.1017,39.0508 88.0814,22.9966 99.3627,8.678 100.6644,13.8847 99.7966,26.4678 95.0237,47.7288 91.1186,58.5763" stroke="#004cff" stroke-width="2" /><polyline fill="none" points="36.4475,41.6542 27.7695,39.0508 16.0542,32.9763 8.678,31.2407 9.1119,42.522 13.8847,64.2169" stroke="#29ffcd" stroke-width="2" /><polyline fill="none" points="27.7695,84.1763 30.8068,90.2508 37.7492,96.7593 44.2576,97.1932 51.2,92.4203 57.7085,97.1932 61.6136,98.4949 68.9898,98.4949 71.5932,96.7593 74.6305,86.3458" stroke="#cdff29" stroke-width="2" /><polyline fill="none" points="59.4441,65.5186 75.0644,64.2169 78.9695,65.5186 84.6102,69.8576" stroke="#ff6700" stroke-width="2" /><polyline fill="none" points="35.1458,55.539 35.5797,66.3864" stroke="#7f0000" stroke-width="2" /></svg>