<?xml version="1.0" encoding="utf-8" ?>
<svg baseProfile="tiny" height="128" version="1.2" viewBox="0,0,128,128" width="128" xmlns="http://www.w3.org/2000/svg" xmlns:ev="http://www.w3.org/2001/xml-events" xmlns:xlink="http://www.w3.org/1999/xlink"><defs /><polyline fill="none" points="56.4068,60.3119 57.7085,70.2915 55.539,88.5153 50.7661,97.1932 45.1254,101.5322 42.0881,101.9661" stroke="#00007f" stroke-width="2" /><polyline fill="none" points="60.3119,59.0102 59.4441,81.5729 60.7458,88.9492 66.8203,99.3627 78.9695,104.1356" stroke="#0000ff" stroke-width="2" /><polyline fill="none" points="64.2169,58.1424 56.8407,59.878 52.0678,57.7085 44.6915,50.7661 42.522,42.522 44.6915,33.8441 51.2,29.5051 61.6136,29.0712 69.8576,32.9763 75.0644,39.0508 75.0644,50.7661 70.7254,57.2746 66.8203,59.0102 64.2169,58.5763" stroke="#0080ff" stroke-width="2" /><polyline fill="none" points="53.3695,45.5593 53.3695,45.5593" stroke="#15ffe1" stroke-width="2" /><polyline fill="none" points="70.2915,45.1254 70.2915,45.1254" stroke="#7cff79" stroke-width="2" /><polyline fill="none" points="67.6881,42.522 67.6881,42.522" stroke="#e4ff12" stroke-width="2" /><polyline fill="none" points="71.5932,12.5831 57.2746,8.678 44.6915,9.5458 32.5424,13.4508 23.4305,20.3932 12.5831,32.1085 8.678,39.9186 13.4508,60.3119 30.8068,102.8339 39.9186,111.5119 52.0678,118.0203 60.7458,119.322 74.1966,114.5492 86.3458,105.8712 100.6644,91.1186 107.1729,79.4034 110.6441,65.0847 110.2102,56.4068 107.1729,45.5593 103.2678,39.9186 88.0814,28.2034 78.1017,20.8271 68.5559,16.4881" stroke="#ff9400" stroke-width="2" /><polyline fill="none" points="35.1458,25.6 35.5797,25.6" stroke="#ff1d00" stroke-width="2" /><polyline fill="none" points="62.0475,18.6576 62.0475,18.6576" stroke="#7f0000" stroke-width="2" /></svg>