<?xml version="1.0" encoding="utf-8" ?>
<svg baseProfile="tiny" height="128" version="1.2" viewBox="0,0,128,128" width="128" xmlns="http://www.w3.org/2000/svg" xmlns:ev="http://www.w3.org/2001/xml-events" xmlns:xlink="http://www.w3.org/1999/xlink"><defs /><polyline fill="none" points="62.9153,42.522 57.7085,38.6169 39.9186,38.1831 31.2407,40.7864 16.922,50.3322 10.8475,59.0102 8.678,67.2542 14.3186,74.6305 28.2034,82.8746 50.3322,90.6847 80.7051,95.0237 99.7966,92.8542 107.1729,90.6847 116.2847,85.0441 118.8881,79.8373 119.322,74.6305 116.2847,66.8203 110.2102,59.0102 96.7593,51.6339 82.4407,45.5593 74.1966,43.3898 64.6508,43.3898" stroke="#00007f" stroke-width="2" /><polyline fill="none" points="49.4644,54.2373 48.5966,57.2746 49.4644,60.7458" stroke="#0000e8" stroke-width="2" /><polyline fill="none" points="68.122,56.4068 68.122,66.8203 65.0847,69.8576" stroke="#0038ff" stroke-width="2" /><polyline fill="none" points="53.3695,72.0271 53.3695,78.5356 56.4068,80.2712 59.4441,78.9695 62.0475,76.3661 61.1797,72.0271" stroke="#0094ff" stroke-width="2" /><polyline fill="none" points="95.8915,49.0305 112.3797,28.6373 118.0203,19.0915 119.322,41.2203 118.0203,59.878" stroke="#0cf4ea" stroke-width="2" /><polyline fill="none" points="47.2949,36.8814 42.522,11.7153 41.2203,8.678 38.6169,9.1119 37.3153,9.9797 32.9763,17.7898 25.6,41.2203" stroke="#56ffa0" stroke-width="2" /><polyline fill="none" points="71.1593,77.2339 85.9119,76.3661" stroke="#a0ff56" stroke-width="2" /><polyline fill="none" points="68.5559,82.4407 93.2881,82.8746" stroke="#eaff0c" stroke-width="2" /><polyline fill="none" points="73.7627,88.0814 91.9864,93.722" stroke="#ffaa00" stroke-width="2" /><polyline fill="none" points="46.4271,72.461 27.7695,68.122 17.3559,66.8203 18.2237,68.122" stroke="#ff5500" stroke-width="2" /><polyline fill="none" points="43.8237,78.1017 29.0712,77.6678 27.3356,78.9695" stroke="#e80000" stroke-width="2" /><polyline fill="none" points="49.0305,82.0068 36.0136,84.6102 32.9763,86.7797" stroke="#7f0000" stroke-width="2" /></svg>