<?xml version="1.0" encoding="utf-8" ?>
<svg baseProfile="tiny" height="128" version="1.2" viewBox="0,0,128,128" width="128" xmlns="http://www.w3.org/2000/svg" xmlns:ev="http://www.w3.org/2001/xml-events" xmlns:xlink="http://www.w3.org/1999/xlink"><defs /><polyline fill="none" points="40.7864,19.9593 35.5797,18.6576 26.0339,21.6949 22.5627,26.4678 22.5627,34.7119 25.1661,38.1831 33.8441,38.6169 41.6542,37.3153 45.5593,34.7119 48.1627,28.6373 47.7288,24.7322 45.5593,19.0915 40.3525,17.3559" stroke="#00007f" stroke-width="2" /><polyline fill="none" points="47.7288,25.6 47.7288,27.3356 57.7085,29.5051 67.6881,38.1831 78.9695,42.522 86.7797,43.3898 111.5119,27.7695 118.4542,20.8271" stroke="#0000c3" stroke-width="2" /><polyline fill="none" points="45.5593,34.7119 48.1627,36.4475 57.2746,39.0508 62.9153,52.9356 62.9153,58.1424 69.4237,57.7085 70.7254,50.7661 77.2339,52.5017 77.6678,55.9729 79.4034,57.7085 82.8746,56.4068 85.0441,51.6339 87.2136,51.6339 88.5153,56.4068" stroke="#0000ff" stroke-width="2" /><polyline fill="none" points="88.5153,55.539 90.6847,55.1051 90.6847,49.4644 101.5322,42.0881 105.0034,36.0136 118.0203,24.2983 119.322,21.261" stroke="#0034ff" stroke-width="2" /><polyline fill="none" points="22.1288,16.4881 24.2983,19.0915 25.6,13.0169 28.2034,13.8847 32.9763,23.8644" stroke="#0070ff" stroke-width="2" /><polyline fill="none" points="37.3153,20.3932 40.3525,8.678 42.0881,19.5254" stroke="#00acff" stroke-width="2" /><polyline fill="none" points="29.939,31.6746 21.6949,25.6" stroke="#02e8f4" stroke-width="2" /><polyline fill="none" points="36.0136,30.8068 38.1831,25.6" stroke="#32ffc3" stroke-width="2" /><polyline fill="none" points="31.6746,31.2407 39.0508,28.2034" stroke="#63ff93" stroke-width="2" /><polyline fill="none" points="33.4102,30.8068 25.6,29.5051" stroke="#93ff63" stroke-width="2" /><polyline fill="none" points="29.939,32.5424 26.4678,31.6746" stroke="#c3ff32" stroke-width="2" /><polyline fill="none" points="29.939,30.8068 32.5424,33.4102 33.8441,30.8068 31.2407,29.939 30.3729,30.8068" stroke="#f4f802" stroke-width="2" /><polyline fill="none" points="37.3153,31.2407 45.1254,27.3356" stroke="#ffc000" stroke-width="2" /><polyline fill="none" points="28.2034,24.7322 33.4102,24.7322" stroke="#ff8900" stroke-width="2" /><polyline fill="none" points="38.1831,24.2983 40.7864,24.2983" stroke="#ff5100" stroke-width="2" /><polyline fill="none" points="34.278,32.5424 39.0508,29.5051 43.8237,28.6373" stroke="#ff1a00" stroke-width="2" /><polyline fill="none" points="32.5424,31.2407 8.678,27.3356" stroke="#c30000" stroke-width="2" /><polyline fill="none" points="31.2407,34.7119 26.9017,32.9763 17.3559,32.5424" stroke="#7f0000" stroke-width="2" /></svg>