<?xml version="1.0" encoding="utf-8" ?>
<svg baseProfile="tiny" height="128" version="1.2" viewBox="0,0,128,128" width="128" xmlns="http://www.w3.org/2000/svg" xmlns:ev="http://www.w3.org/2001/xml-events" xmlns:xlink="http://www.w3.org/1999/xlink"><defs /><polyline fill="none" points="110.6441,21.6949 118.0203,23.4305 119.322,26.0339 115.4169,31.6746 108.9085,34.278" stroke="#00007f" stroke-width="2" /><polyline fill="none" points="111.5119,23.4305 109.7763,16.0542 101.9661,9.1119 95.4576,9.9797 91.1186,18.2237 91.5525,28.2034 95.8915,34.7119 101.5322,35.5797 108.4746,32.1085" stroke="#0000ff" stroke-width="2" /><polyline fill="none" points="107.1729,12.5831 104.1356,16.4881 105.8712,19.5254 107.6068,19.9593 108.4746,15.1864 106.3051,13.8847" stroke="#0080ff" stroke-width="2" /><polyline fill="none" points="91.9864,24.2983 87.6475,19.9593 82.0068,17.7898 68.122,16.4881 52.5017,21.261 45.1254,26.9017 45.5593,30.8068 52.0678,36.8814 60.3119,40.7864 75.4983,43.3898 84.6102,42.522 91.5525,39.9186 95.0237,36.8814 97.1932,31.6746" stroke="#15ffe1" stroke-width="2" /><polyline fill="none" points="95.0237,37.7492 95.4576,47.2949 91.1186,61.6136" stroke="#7cff79" stroke-width="2" /><polyline fill="none" points="90.2508,36.4475 88.5153,49.4644 84.6102,59.878" stroke="#e4ff12" stroke-width="2" /><polyline fill="none" points="48.5966,34.7119 49.0305,46.861 47.2949,57.7085" stroke="#ff9400" stroke-width="2" /><polyline fill="none" points="58.5763,41.6542 59.878,48.5966 57.7085,59.0102" stroke="#ff1d00" stroke-width="2" /><polyline fill="none" points="44.2576,27.7695 42.9559,21.6949 36.8814,12.5831 29.939,11.2814 17.3559,15.1864 8.678,8.678" stroke="#7f0000" stroke-width="2" /></svg>