<?xml version="1.0" encoding="utf-8" ?>
<svg baseProfile="tiny" height="128" version="1.2" viewBox="0,0,128,128" width="128" xmlns="http://www.w3.org/2000/svg" xmlns:ev="http://www.w3.org/2001/xml-events" xmlns:xlink="http://www.w3.org/1999/xlink"><defs /><polyline fill="none" points="52.0678,24.7322 33.4102,29.939 25.1661,34.7119 18.2237,40.7864 12.5831,52.9356 8.678,66.3864 8.678,73.7627 11.7153,80.7051 24.2983,92.4203 36.8814,99.3627 53.3695,105.8712 63.7831,107.6068 76.3661,108.0407 84.6102,105.4373 103.2678,93.722 106.739,89.8169 111.078,75.9322 111.078,69.8576 108.0407,58.1424 102.4,50.7661 89.3831,41.6542 71.5932,32.9763 56.4068,29.5051 49.0305,29.939" stroke="#00007f" stroke-width="2" /><polyline fill="none" points="23.8644,38.6169 20.3932,32.1085 15.6203,8.678 26.9017,18.6576 37.3153,31.6746" stroke="#0028ff" stroke-width="2" /><polyline fill="none" points="94.1559,44.6915 108.9085,28.6373 119.322,20.8271 119.322,28.2034 116.7186,42.0881 112.3797,53.8034" stroke="#00d4ff" stroke-width="2" /><polyline fill="none" points="62.4814,62.4814 60.7458,77.2339 55.539,86.3458 51.6339,87.6475" stroke="#7cff79" stroke-width="2" /><polyline fill="none" points="60.3119,79.4034 62.9153,84.1763 68.122,87.2136" stroke="#ffe500" stroke-width="2" /><polyline fill="none" points="29.939,51.6339 44.6915,54.6712 49.8983,60.3119" stroke="#ff4600" stroke-width="2" /><polyline fill="none" points="77.2339,62.0475 90.2508,60.7458 98.061,63.3492" stroke="#7f0000" stroke-width="2" /></svg>