<?xml version="1.0" encoding="utf-8" ?>
<svg baseProfile="tiny" height="128" version="1.2" viewBox="0,0,128,128" width="128" xmlns="http://www.w3.org/2000/svg" xmlns:ev="http://www.w3.org/2001/xml-events" xmlns:xlink="http://www.w3.org/1999/xlink"><defs /><polyline fill="none" points="29.939,29.5051 16.4881,38.6169 12.1492,46.4271 8.678,65.0847 9.5458,74.6305 11.2814,79.4034 23.8644,92.4203 35.5797,97.6271 49.0305,99.7966 75.4983,98.061 93.722,90.6847 101.0983,85.478 108.4746,76.8 117.1525,62.4814 119.322,54.6712 118.8881,43.8237 116.7186,38.6169 112.3797,34.278 85.0441,22.9966 52.9356,22.9966 19.5254,32.1085" stroke="#00007f" stroke-width="2" /><polyline fill="none" points="17.7898,42.9559 20.8271,24.7322 26.0339,10.8475 40.3525,26.0339 52.0678,34.278" stroke="#0000e8" stroke-width="2" /><polyline fill="none" points="91.1186,21.6949 104.5695,9.1119 107.1729,8.678 108.9085,10.8475 112.8136,35.5797 112.3797,40.7864 110.6441,43.8237" stroke="#0038ff" stroke-width="2" /><polyline fill="none" points="35.5797,72.8949 39.4847,82.0068 45.9932,86.3458 52.5017,86.7797 60.3119,79.8373 65.5186,65.5186 65.0847,79.4034 67.6881,86.7797 70.2915,87.2136 77.2339,84.1763 83.7424,78.9695 90.6847,67.6881" stroke="#0094ff" stroke-width="2" /><polyline fill="none" points="61.6136,56.8407 63.3492,68.5559 63.7831,63.7831" stroke="#0cf4ea" stroke-width="2" /><polyline fill="none" points="72.0271,57.2746 65.5186,64.2169 65.0847,59.878 62.9153,58.1424 69.8576,59.4441 65.0847,61.1797" stroke="#56ffa0" stroke-width="2" /><polyline fill="none" points="52.9356,71.5932 34.7119,67.2542 28.2034,61.1797 23.8644,53.3695" stroke="#a0ff56" stroke-width="2" /><polyline fill="none" points="52.5017,78.5356 37.3153,78.5356 29.5051,77.2339 25.6,75.0644" stroke="#eaff0c" stroke-width="2" /><polyline fill="none" points="81.139,65.5186 99.7966,58.5763 106.3051,53.8034" stroke="#ffaa00" stroke-width="2" /><polyline fill="none" points="78.5356,79.4034 91.5525,79.4034 97.1932,77.6678 112.8136,68.9898 114.5492,66.3864" stroke="#ff5500" stroke-width="2" /><polyline fill="none" points="45.9932,43.3898 46.861,48.1627 49.4644,43.3898 50.7661,35.1458 50.7661,48.5966 49.8983,42.0881 49.0305,44.6915 49.8983,50.3322 51.6339,37.3153" stroke="#e80000" stroke-width="2" /><polyline fill="none" points="86.3458,39.9186 86.3458,51.2 84.1763,38.6169" stroke="#7f0000" stroke-width="2" /></svg>