<?xml version="1.0" encoding="utf-8" ?>
<svg baseProfile="tiny" height="128" version="1.2" viewBox="0,0,128,128" width="128" xmlns="http://www.w3.org/2000/svg" xmlns:ev="http://www.w3.org/2001/xml-events" xmlns:xlink="http://www.w3.org/1999/xlink"><defs /><polyline fill="none" points="63.1293,42.6667 37.4422,43.102 24.381,26.9932 12.1905,8.7075 12.1905,32.6531 14.8027,51.3741 8.7075,68.7891 9.1429,81.8503 13.4966,92.7347 18.7211,101.4422 30.4762,112.3265 40.9252,117.9864 58.7755,119.2925 69.2245,116.6803 81.8503,107.5374 92.2993,93.1701 94.4762,78.3673 90.9932,63.1293 98.3946,33.5238 100.1361,11.7551 97.0884,12.1905 81.8503,26.9932 68.7891,44.4082" stroke="#00007f" stroke-width="2" /><polyline fill="none" points="66.6122,67.0476 72.7075,67.9184" stroke="#0000ff" stroke-width="2" /><polyline fill="none" points="47.8912,65.7415 33.5238,69.6599" stroke="#0080ff" stroke-width="2" /><polyline fill="none" points="60.0816,80.1088 60.517,83.1565 57.9048,85.7687 55.7279,86.2041 55.2925,83.5918 57.4694,83.5918" stroke="#15ffe1" stroke-width="2" /><polyline fill="none" points="64.8707,84.0272 76.1905,82.2857 83.5918,85.3333" stroke="#7cff79" stroke-width="2" /><polyline fill="none" points="66.6122,88.8163 74.449,92.7347 79.2381,97.0884" stroke="#e4ff12" stroke-width="2" /><polyline fill="none" points="39.619,80.1088 20.4626,87.5102 14.8027,90.9932" stroke="#ff9400" stroke-width="2" /><polyline fill="none" points="41.3605,85.3333 30.9116,94.9116 27.8639,100.1361" stroke="#ff1d00" stroke-width="2" /><polyline fill="none" points="59.2109,89.2517 58.7755,96.2177 60.517,103.1837 66.1769,105.3605 64.0,107.5374" stroke="#7f0000" stroke-width="2" /></svg>