<?xml version="1.0" encoding="utf-8" ?>
<svg baseProfile="tiny" height="128" version="1.2" viewBox="0,0,128,128" width="128" xmlns="http://www.w3.org/2000/svg" xmlns:ev="http://www.w3.org/2001/xml-events" xmlns:xlink="http://www.w3.org/1999/xlink"><defs /><polyline fill="none" points="43.3898,26.4678 46.4271,8.678 51.6339,24.7322 58.5763,37.3153" stroke="#00007f" stroke-width="2" /><polyline fill="none" points="58.5763,37.3153 76.3661,36.0136" stroke="#0010ff" stroke-width="2" /><polyline fill="none" points="76.3661,36.0136 87.6475,12.5831 88.9492,35.1458" stroke="#00a4ff" stroke-width="2" /><polyline fill="none" points="41.2203,29.5051 39.9186,34.278 39.4847,53.3695 42.0881,62.4814 48.5966,66.8203 56.8407,78.1017 70.7254,85.9119 72.8949,85.478 74.1966,83.3085 79.4034,63.3492 80.2712,42.522 84.1763,35.1458 86.3458,34.7119" stroke="#3fffb7" stroke-width="2" /><polyline fill="none" points="78.1017,57.2746 96.3254,52.0678 111.078,49.8983 119.322,50.3322" stroke="#b7ff3f" stroke-width="2" /><polyline fill="none" points="83.3085,57.2746 100.6644,60.7458 110.2102,65.9525" stroke="#ffb900" stroke-width="2" /><polyline fill="none" points="38.1831,55.539 19.9593,57.2746 9.5458,60.7458" stroke="#ff3000" stroke-width="2" /><polyline fill="none" points="37.7492,56.4068 19.5254,67.6881 9.1119,75.9322 8.678,77.6678" stroke="#7f0000" stroke-width="2" /></svg>