<?xml version="1.0" encoding="utf-8" ?>
<svg baseProfile="tiny" height="128" version="1.2" viewBox="0,0,128,128" width="128" xmlns="http://www.w3.org/2000/svg" xmlns:ev="http://www.w3.org/2001/xml-events" xmlns:xlink="http://www.w3.org/1999/xlink"><defs /><polyline fill="none" points="87.2136,21.6949 78.5356,27.7695 77.6678,31.6746 80.7051,37.3153 89.8169,40.7864 96.3254,40.7864 99.7966,39.0508 104.1356,32.5424 105.8712,26.4678 102.8339,21.261 98.9288,19.5254 91.1186,18.2237 88.9492,20.3932 83.7424,21.6949" stroke="#00007f" stroke-width="2" /><polyline fill="none" points="82.8746,23.8644 74.1966,17.3559 73.3288,9.9797 80.2712,9.1119 86.3458,19.0915" stroke="#0000ba" stroke-width="2" /><polyline fill="none" points="98.4949,17.3559 107.6068,10.8475 114.9831,8.678 118.4542,9.5458 119.322,14.3186 116.7186,18.6576 106.3051,25.6" stroke="#0000f5" stroke-width="2" /><polyline fill="none" points="78.5356,26.0339 47.2949,27.3356 33.4102,32.5424 32.1085,35.1458 36.4475,37.7492 49.0305,35.5797 82.8746,35.5797" stroke="#0020ff" stroke-width="2" /><polyline fill="none" points="36.8814,32.1085 8.678,32.5424" stroke="#0054ff" stroke-width="2" /><polyline fill="none" points="52.0678,36.0136 45.1254,42.9559" stroke="#008cff" stroke-width="2" /><polyline fill="none" points="58.5763,36.0136 50.7661,45.1254" stroke="#00c0ff" stroke-width="2" /><polyline fill="none" points="66.8203,35.5797 61.1797,45.1254" stroke="#0ff8e7" stroke-width="2" /><polyline fill="none" points="72.0271,35.1458 72.8949,37.3153 71.1593,45.9932" stroke="#39ffbd" stroke-width="2" /><polyline fill="none" points="88.0814,25.6 88.0814,25.6" stroke="#66ff90" stroke-width="2" /><polyline fill="none" points="89.8169,25.6 88.9492,26.0339" stroke="#90ff66" stroke-width="2" /><polyline fill="none" points="95.8915,25.6 95.8915,25.6" stroke="#bdff39" stroke-width="2" /><polyline fill="none" points="97.6271,26.4678 98.061,25.6" stroke="#e7ff0f" stroke-width="2" /><polyline fill="none" points="88.5153,31.6746 82.0068,30.3729" stroke="#ffd300" stroke-width="2" /><polyline fill="none" points="86.3458,32.5424 78.9695,33.8441" stroke="#ffa300" stroke-width="2" /><polyline fill="none" points="85.0441,34.7119 82.0068,36.8814" stroke="#ff6f00" stroke-width="2" /><polyline fill="none" points="96.7593,30.3729 102.8339,28.2034" stroke="#ff3f00" stroke-width="2" /><polyline fill="none" points="97.6271,32.9763 103.2678,30.8068" stroke="#f50b00" stroke-width="2" /><polyline fill="none" points="98.061,36.4475 102.8339,35.5797" stroke="#ba0000" stroke-width="2" /><polyline fill="none" points="89.3831,36.4475 92.4203,36.8814 93.2881,35.5797" stroke="#7f0000" stroke-width="2" /></svg>