<?xml version="1.0" encoding="utf-8" ?>
<svg baseProfile="tiny" height="128" version="1.2" viewBox="0,0,128,128" width="128" xmlns="http://www.w3.org/2000/svg" xmlns:ev="http://www.w3.org/2001/xml-events" xmlns:xlink="http://www.w3.org/1999/xlink"><defs /><polyline fill="none" points="46.4271,27.7695 38.1831,27.7695 31.6746,31.6746 26.9017,39.0508 26.0339,46.4271 29.939,51.6339 35.1458,54.2373 52.9356,49.0305 55.9729,44.6915 57.2746,37.7492 52.9356,32.5424 47.7288,30.3729" stroke="#00007f" stroke-width="2" /><polyline fill="none" points="34.278,38.6169 8.678,38.1831" stroke="#0000d1" stroke-width="2" /><polyline fill="none" points="33.4102,43.8237 20.8271,43.8237 16.4881,45.1254" stroke="#0010ff" stroke-width="2" /><polyline fill="none" points="33.4102,47.2949 29.0712,47.7288 12.5831,53.8034" stroke="#0058ff" stroke-width="2" /><polyline fill="none" points="43.8237,38.6169 74.1966,38.6169" stroke="#00a4ff" stroke-width="2" /><polyline fill="none" points="43.3898,42.0881 55.539,42.0881" stroke="#05ecf1" stroke-width="2" /><polyline fill="none" points="41.2203,44.2576 48.1627,49.0305 57.7085,59.0102" stroke="#3fffb7" stroke-width="2" /><polyline fill="none" points="37.3153,33.4102 37.3153,33.4102" stroke="#7cff79" stroke-width="2" /><polyline fill="none" points="37.7492,32.5424 39.4847,32.9763 40.3525,31.6746 39.0508,31.6746" stroke="#b7ff3f" stroke-width="2" /><polyline fill="none" points="44.6915,32.1085 45.1254,31.2407" stroke="#f1fc05" stroke-width="2" /><polyline fill="none" points="53.8034,30.8068 104.1356,30.8068 106.3051,31.6746 118.8881,45.9932 119.322,47.7288 115.8508,51.2 103.2678,54.2373 78.9695,54.2373 61.6136,48.5966" stroke="#ffb900" stroke-width="2" /><polyline fill="none" points="31.2407,34.278 31.2407,33.8441" stroke="#ff7300" stroke-width="2" /><polyline fill="none" points="31.2407,33.8441 31.6746,11.7153 37.3153,26.4678" stroke="#ff3000" stroke-width="2" /><polyline fill="none" points="45.9932,25.6 48.5966,17.3559 54.6712,8.678 52.0678,25.6 50.3322,29.0712" stroke="#d10000" stroke-width="2" /><polyline fill="none" points="65.9525,50.7661 65.9525,71.1593 68.9898,73.3288 72.8949,72.461 74.1966,71.1593 79.4034,61.6136 82.4407,53.3695" stroke="#7f0000" stroke-width="2" /></svg>