<?xml version="1.0" encoding="utf-8" ?>
<svg baseProfile="tiny" height="128" version="1.2" viewBox="0,0,128,128" width="128" xmlns="http://www.w3.org/2000/svg" xmlns:ev="http://www.w3.org/2001/xml-events" xmlns:xlink="http://www.w3.org/1999/xlink"><defs /><polyline fill="none" points="45.9932,21.6949 61.6136,22.9966 80.7051,33.4102 82.8746,49.4644 79.4034,55.539 66.3864,64.6508 59.4441,65.5186 51.6339,62.0475 48.5966,57.2746 45.5593,40.7864 44.6915,26.9017 46.861,17.3559 48.5966,17.3559" stroke="#00007f" stroke-width="2" /><polyline fill="none" points="42.9559,22.1288 39.0508,11.7153 34.278,8.678 30.8068,13.8847 28.6373,21.261 29.939,30.8068 36.8814,39.0508 50.7661,37.3153" stroke="#0000e8" stroke-width="2" /><polyline fill="none" points="71.1593,28.2034 87.2136,17.7898 94.5898,17.7898 99.7966,20.8271 95.8915,29.939 92.8542,31.2407 82.0068,42.522" stroke="#0038ff" stroke-width="2" /><polyline fill="none" points="82.4407,46.861 82.4407,46.861" stroke="#0094ff" stroke-width="2" /><polyline fill="none" points="77.2339,52.9356 84.6102,52.5017 100.2305,53.8034 111.9458,56.8407 119.322,56.8407" stroke="#0cf4ea" stroke-width="2" /><polyline fill="none" points="73.7627,55.9729 112.3797,58.1424" stroke="#56ffa0" stroke-width="2" /><polyline fill="none" points="45.9932,50.7661 39.0508,52.9356 8.678,52.9356" stroke="#a0ff56" stroke-width="2" /><polyline fill="none" points="50.3322,55.9729 43.3898,57.2746 31.2407,55.9729" stroke="#eaff0c" stroke-width="2" /><polyline fill="none" points="61.6136,48.5966 62.0475,48.5966" stroke="#ffaa00" stroke-width="2" /><polyline fill="none" points="55.9729,35.5797 56.4068,34.7119" stroke="#ff5500" stroke-width="2" /><polyline fill="none" points="71.1593,35.1458 70.7254,35.1458" stroke="#e80000" stroke-width="2" /><polyline fill="none" points="57.7085,54.6712 67.2542,49.4644" stroke="#7f0000" stroke-width="2" /></svg>