<?xml version="1.0" encoding="utf-8" ?>
<svg baseProfile="tiny" height="128" version="1.2" viewBox="0,0,128,128" width="128" xmlns="http://www.w3.org/2000/svg" xmlns:ev="http://www.w3.org/2001/xml-events" xmlns:xlink="http://www.w3.org/1999/xlink"><defs /><polyline fill="none" points="58.5763,34.278 54.6712,30.3729 46.4271,29.0712 21.6949,27.7695 16.922,29.0712 9.9797,33.4102 8.678,42.522 13.0169,50.7661 18.2237,55.9729 39.9186,68.5559 42.0881,68.5559 50.3322,63.3492 58.1424,54.6712 59.0102,42.9559 56.4068,29.939 49.8983,28.2034" stroke="#00007f" stroke-width="2" /><polyline fill="none" points="26.4678,26.4678 29.0712,16.0542 32.5424,8.678 30.3729,26.0339 45.1254,13.8847 46.861,15.6203 46.861,18.6576 44.6915,30.8068" stroke="#0010ff" stroke-width="2" /><polyline fill="none" points="99.3627,69.8576 86.3458,61.1797 68.122,55.1051 52.9356,56.4068 52.9356,64.2169 55.9729,70.2915 67.2542,81.139 79.4034,86.7797 92.4203,91.1186 96.3254,90.2508 99.3627,84.1763 99.7966,70.7254 98.061,67.2542" stroke="#00a4ff" stroke-width="2" /><polyline fill="none" points="62.9153,78.9695 47.2949,100.6644" stroke="#3fffb7" stroke-width="2" /><polyline fill="none" points="75.4983,85.0441 64.2169,113.2475" stroke="#b7ff3f" stroke-width="2" /><polyline fill="none" points="90.2508,89.8169 79.8373,105.8712 68.5559,116.7186" stroke="#ffb900" stroke-width="2" /><polyline fill="none" points="58.5763,71.1593 52.9356,72.0271 41.6542,77.6678 36.0136,82.4407 31.2407,89.8169" stroke="#ff3000" stroke-width="2" /><polyline fill="none" points="99.7966,80.7051 101.5322,81.139 104.5695,86.3458 108.9085,104.5695 115.8508,119.322" stroke="#7f0000" stroke-width="2" /></svg>