<?xml version="1.0" encoding="utf-8" ?>
<svg baseProfile="tiny" height="128" version="1.2" viewBox="0,0,128,128" width="128" xmlns="http://www.w3.org/2000/svg" xmlns:ev="http://www.w3.org/2001/xml-events" xmlns:xlink="http://www.w3.org/1999/xlink"><defs /><polyline fill="none" points="42.9559,45.5593 42.9559,53.8034 38.6169,68.122" stroke="#00007f" stroke-width="2" /><polyline fill="none" points="38.6169,68.122 46.4271,66.3864 47.7288,53.8034" stroke="#0000fe" stroke-width="2" /><polyline fill="none" points="38.1831,65.9525 32.9763,65.0847 30.8068,62.4814 31.2407,51.6339 34.278,49.4644 40.7864,49.8983" stroke="#0060ff" stroke-width="2" /><polyline fill="none" points="30.3729,44.6915 30.3729,36.8814 21.6949,46.861 8.678,52.5017 9.5458,45.1254 16.0542,28.6373 19.9593,21.6949 24.2983,17.7898 40.7864,16.922 75.0644,21.261 93.722,21.6949 97.1932,19.0915 97.1932,10.8475 99.7966,8.678 102.4,9.1119 110.6441,13.4508 111.9458,16.0542 112.3797,26.4678 107.1729,30.8068 112.3797,44.2576 112.3797,55.1051 109.7763,55.9729 104.5695,55.539 102.4,52.9356 99.7966,41.6542 99.7966,56.4068 101.5322,60.3119 98.9288,61.1797 94.5898,58.1424 89.8169,48.5966 84.6102,45.5593 78.9695,45.5593 76.3661,48.1627 70.7254,48.1627 59.878,52.5017 53.8034,52.5017 50.7661,49.4644" stroke="#00d4ff" stroke-width="2" /><polyline fill="none" points="105.4373,14.3186 104.5695,14.3186" stroke="#4cffaa" stroke-width="2" /><polyline fill="none" points="104.5695,14.3186 102.8339,16.922" stroke="#aaff4c" stroke-width="2" /><polyline fill="none" points="104.5695,21.6949 117.1525,24.2983" stroke="#ffe500" stroke-width="2" /><polyline fill="none" points="99.7966,23.4305 94.5898,24.2983 82.8746,30.8068" stroke="#ff7a00" stroke-width="2" /><polyline fill="none" points="104.1356,27.7695 119.322,32.9763" stroke="#fe1200" stroke-width="2" /><polyline fill="none" points="98.9288,19.9593 83.3085,15.6203" stroke="#7f0000" stroke-width="2" /></svg>