<?xml version="1.0" encoding="utf-8" ?>
<svg baseProfile="tiny" height="128" version="1.2" viewBox="0,0,128,128" width="128" xmlns="http://www.w3.org/2000/svg" xmlns:ev="http://www.w3.org/2001/xml-events" xmlns:xlink="http://www.w3.org/1999/xlink"><defs /><polyline fill="none" points="37.7492,20.3932 28.6373,32.1085 26.4678,42.522 26.4678,52.9356 12.1492,59.0102 28.2034,68.9898 20.8271,73.3288 8.678,77.2339 22.5627,78.1017 26.9017,82.4407 28.6373,81.5729" stroke="#00007f" stroke-width="2" /><polyline fill="none" points="28.6373,81.5729 36.8814,87.6475 45.1254,91.5525 69.8576,91.9864 78.9695,88.5153 89.8169,79.4034 107.1729,79.4034 114.9831,78.1017 111.5119,74.1966 95.8915,66.8203 102.8339,66.3864 119.322,61.1797 107.6068,55.1051 94.1559,52.0678 92.4203,42.9559 86.7797,32.9763 82.8746,28.6373 72.8949,22.1288 65.5186,9.5458 62.4814,19.9593" stroke="#0010ff" stroke-width="2" /><polyline fill="none" points="38.1831,18.6576 38.1831,13.4508 40.3525,8.678 44.6915,19.5254 59.0102,19.5254 63.7831,22.5627" stroke="#00a4ff" stroke-width="2" /><polyline fill="none" points="41.6542,40.3525 45.1254,39.0508 45.5593,42.0881 43.8237,43.8237 42.522,41.6542 43.8237,40.7864 45.1254,42.0881 43.3898,42.9559 43.8237,41.2203" stroke="#3fffb7" stroke-width="2" /><polyline fill="none" points="69.8576,40.3525 70.2915,36.8814 73.3288,36.8814 73.7627,39.9186 71.5932,42.0881 68.5559,42.0881 68.5559,40.3525 70.7254,38.6169 68.5559,38.6169" stroke="#b7ff3f" stroke-width="2" /><polyline fill="none" points="53.8034,53.8034 66.3864,53.8034 65.0847,56.8407 57.7085,60.3119" stroke="#ffb900" stroke-width="2" /><polyline fill="none" points="52.9356,54.2373 55.1051,55.1051 57.2746,58.5763 55.1051,62.0475 55.539,72.461 53.8034,78.5356 44.2576,81.139 39.0508,76.8 38.1831,73.3288" stroke="#ff3000" stroke-width="2" /><polyline fill="none" points="39.0508,73.3288 44.2576,72.8949 46.4271,68.9898 52.9356,66.3864 57.2746,61.1797 56.4068,79.8373 69.4237,81.139 73.7627,76.8 74.1966,73.7627" stroke="#7f0000" stroke-width="2" /></svg>