<?xml version="1.0" encoding="utf-8" ?>
<svg baseProfile="tiny" height="128" version="1.2" viewBox="0,0,128,128" width="128" xmlns="http://www.w3.org/2000/svg" xmlns:ev="http://www.w3.org/2001/xml-events" xmlns:xlink="http://www.w3.org/1999/xlink"><defs /><polyline fill="none" points="26.5578,43.5374 15.6735,50.9388 9.1429,60.517 8.7075,64.4354 10.8844,67.0476 20.4626,68.7891 24.381,67.0476 32.2177,59.6463 43.5374,39.1837 43.9728,37.4422 38.7483,37.4422 26.9932,41.3605" stroke="#00007f" stroke-width="2" /><polyline fill="none" points="23.0748,45.7143 20.4626,42.2313 20.4626,37.0068 22.6395,25.6871 27.8639,14.3673 26.9932,31.3469 30.9116,37.4422" stroke="#0000ff" stroke-width="2" /><polyline fill="none" points="40.4898,39.1837 45.2789,36.1361 55.2925,11.7551 59.6463,8.7075 60.517,17.8503 53.551,40.4898" stroke="#0080ff" stroke-width="2" /><polyline fill="none" points="64.8707,37.4422 62.2585,37.0068 55.7279,40.0544 45.7143,48.3265" stroke="#15ffe1" stroke-width="2" /><polyline fill="none" points="32.2177,58.7755 50.9388,50.068 74.0136,42.2313 84.0272,37.4422 94.4762,35.7007 98.8299,39.1837 103.1837,46.585 104.4898,57.9048 103.619,66.6122 94.9116,74.8844 74.0136,87.5102 63.1293,89.2517 47.0204,89.2517 40.4898,86.6395 33.9592,81.415 29.6054,74.0136 26.5578,61.8231 26.5578,58.7755 28.7347,57.4694" stroke="#7cff79" stroke-width="2" /><polyline fill="none" points="39.1837,77.4966 36.5714,80.5442 30.9116,109.7143 43.102,95.7823 48.3265,87.5102" stroke="#e4ff12" stroke-width="2" /><polyline fill="none" points="67.9184,91.8639 67.9184,119.2925 70.5306,84.898 77.4966,74.449" stroke="#ff9400" stroke-width="2" /><polyline fill="none" points="91.8639,80.9796 90.9932,114.5034 89.6871,103.619 90.1224,78.3673 91.8639,70.5306" stroke="#ff1d00" stroke-width="2" /><polyline fill="none" points="104.4898,65.3061 102.7483,106.6667 101.4422,84.4626 109.2789,37.8776" stroke="#7f0000" stroke-width="2" /></svg>