<?xml version="1.0" encoding="utf-8" ?>
<svg baseProfile="tiny" height="128" version="1.2" viewBox="0,0,128,128" width="128" xmlns="http://www.w3.org/2000/svg" xmlns:ev="http://www.w3.org/2001/xml-events" xmlns:xlink="http://www.w3.org/1999/xlink"><defs /><polyline fill="none" points="82.8746,20.3932 72.461,17.3559 62.9153,16.922 57.2746,19.5254 48.5966,26.9017 47.2949,35.5797 49.4644,40.7864 56.8407,48.5966 64.6508,50.3322 88.5153,51.2 93.2881,49.0305 95.0237,46.861 95.4576,41.6542 91.1186,31.2407 76.3661,19.0915" stroke="#00007f" stroke-width="2" /><polyline fill="none" points="55.1051,19.9593 43.3898,8.678 41.6542,24.2983 45.9932,29.0712" stroke="#0000ff" stroke-width="2" /><polyline fill="none" points="78.5356,18.6576 85.0441,10.4136 88.5153,9.5458 91.5525,16.922 91.5525,28.6373" stroke="#0080ff" stroke-width="2" /><polyline fill="none" points="68.9898,39.0508 64.6508,37.3153 65.0847,35.5797 69.4237,35.5797 69.4237,36.8814" stroke="#15ffe1" stroke-width="2" /><polyline fill="none" points="54.6712,33.4102 36.4475,26.9017 11.2814,29.939 8.678,31.2407" stroke="#7cff79" stroke-width="2" /><polyline fill="none" points="49.0305,35.5797 33.8441,34.7119 24.7322,39.0508 22.5627,41.6542" stroke="#e4ff12" stroke-width="2" /><polyline fill="none" points="43.3898,41.2203 32.9763,43.3898 29.5051,45.9932 29.5051,48.1627" stroke="#ff9400" stroke-width="2" /><polyline fill="none" points="81.139,30.8068 94.1559,29.0712 119.322,29.939" stroke="#ff1d00" stroke-width="2" /><polyline fill="none" points="91.5525,33.4102 105.4373,40.7864" stroke="#7f0000" stroke-width="2" /></svg>