<?xml version="1.0" encoding="utf-8" ?>
<svg baseProfile="tiny" height="128" version="1.2" viewBox="0,0,128,128" width="128" xmlns="http://www.w3.org/2000/svg" xmlns:ev="http://www.w3.org/2001/xml-events" xmlns:xlink="http://www.w3.org/1999/xlink"><defs /><polyline fill="none" points="72.8949,23.8644 65.9525,23.8644 54.6712,30.3729 45.9932,39.4847 40.7864,49.4644 42.0881,58.1424 50.3322,68.122 57.2746,72.8949 65.9525,73.7627 74.1966,68.9898 84.6102,55.9729 91.9864,43.3898 92.8542,32.1085 88.0814,28.6373 80.2712,26.4678 55.9729,25.6" stroke="#00007f" stroke-width="2" /><polyline fill="none" points="49.4644,38.1831 47.7288,27.3356 52.5017,11.2814 54.2373,11.7153 62.0475,25.6" stroke="#0000d5" stroke-width="2" /><polyline fill="none" points="76.8,26.9017 81.5729,16.922 86.7797,10.8475 90.2508,8.678 90.2508,29.939" stroke="#001cff" stroke-width="2" /><polyline fill="none" points="54.2373,39.0508 57.2746,33.4102 62.9153,32.5424 65.0847,32.9763 65.5186,34.278 65.0847,37.3153 63.3492,39.4847 56.8407,39.9186 57.2746,36.0136 61.6136,34.7119" stroke="#006cff" stroke-width="2" /><polyline fill="none" points="77.6678,37.7492 75.9322,39.4847 75.9322,36.8814 78.9695,34.7119 82.4407,35.1458 83.3085,39.0508 82.0068,40.7864 76.8,40.7864 75.4983,37.7492" stroke="#00b8ff" stroke-width="2" /><polyline fill="none" points="64.2169,54.2373 61.6136,53.8034 57.2746,64.6508 55.539,65.5186 49.0305,65.0847 45.9932,60.7458" stroke="#1cffda" stroke-width="2" /><polyline fill="none" points="62.4814,55.1051 64.2169,61.6136 67.6881,66.8203 75.9322,63.7831 77.6678,61.6136 77.6678,59.4441" stroke="#5cff9a" stroke-width="2" /><polyline fill="none" points="60.3119,55.1051 59.878,53.8034 68.5559,52.9356 65.9525,51.2 57.2746,50.7661 62.4814,49.8983" stroke="#9aff5c" stroke-width="2" /><polyline fill="none" points="90.6847,48.1627 91.9864,46.4271 119.322,45.9932" stroke="#daff1c" stroke-width="2" /><polyline fill="none" points="85.9119,56.8407 93.722,56.4068 105.4373,59.878" stroke="#ffcb00" stroke-width="2" /><polyline fill="none" points="84.6102,66.8203 101.9661,69.8576" stroke="#ff8500" stroke-width="2" /><polyline fill="none" points="41.6542,51.6339 29.5051,50.7661 16.922,53.8034 11.2814,57.2746" stroke="#ff3b00" stroke-width="2" /><polyline fill="none" points="43.8237,44.6915 39.0508,49.0305 8.678,63.3492" stroke="#d50000" stroke-width="2" /><polyline fill="none" points="52.0678,62.0475 44.2576,62.4814 30.8068,66.8203 20.3932,73.7627" stroke="#7f0000" stroke-width="2" /></svg>