<?xml version="1.0" encoding="utf-8" ?>
<svg baseProfile="tiny" height="128" version="1.2" viewBox="0,0,128,128" width="128" xmlns="http://www.w3.org/2000/svg" xmlns:ev="http://www.w3.org/2001/xml-events" xmlns:xlink="http://www.w3.org/1999/xlink"><defs /><polyline fill="none" points="32.1085,37.3153 30.8068,8.678 39.9186,22.5627 45.1254,32.9763 46.4271,30.8068 54.2373,26.9017 64.2169,25.6 73.7627,26.9017 80.2712,31.6746 84.6102,22.1288 92.4203,16.4881 95.0237,24.2983 98.4949,44.2576 103.7017,51.2 105.0034,58.5763 104.1356,76.8 101.9661,83.3085 92.4203,98.061 85.0441,103.7017 76.8,107.6068 67.6881,108.0407 53.8034,105.4373 39.9186,98.4949 25.1661,88.0814 22.1288,83.7424 21.261,78.5356 20.8271,67.6881 26.0339,51.2 31.2407,39.0508" stroke="#00007f" stroke-width="2" /><polyline fill="none" points="50.3322,44.2576 47.7288,46.4271 44.6915,52.0678 44.6915,56.4068 47.2949,56.8407 49.8983,52.5017 49.8983,47.7288 49.0305,45.9932 45.5593,50.7661 45.1254,55.539 47.7288,55.9729 50.3322,46.861 49.4644,44.2576 47.2949,45.1254 44.6915,50.7661 43.3898,59.0102 45.1254,59.0102 47.7288,53.3695 47.7288,50.3322 45.5593,49.8983 45.1254,55.9729 46.4271,55.539 48.1627,49.8983 47.7288,48.1627 46.4271,48.5966 44.6915,54.6712 46.4271,49.0305" stroke="#0000d5" stroke-width="2" /><polyline fill="none" points="72.461,45.1254 72.0271,55.9729 72.8949,56.4068 75.0644,52.9356 74.6305,43.3898 73.3288,49.0305" stroke="#001cff" stroke-width="2" /><polyline fill="none" points="57.7085,62.9153 66.3864,63.3492 63.7831,70.7254 60.7458,62.9153" stroke="#006cff" stroke-width="2" /><polyline fill="none" points="61.6136,69.4237 61.1797,73.7627 59.0102,76.8 50.3322,82.4407 45.5593,82.8746 42.522,73.7627" stroke="#00b8ff" stroke-width="2" /><polyline fill="none" points="58.5763,76.3661 61.6136,79.8373 65.0847,80.7051 69.4237,79.4034 71.5932,76.3661 71.5932,74.1966" stroke="#1cffda" stroke-width="2" /><polyline fill="none" points="28.6373,62.0475 23.8644,63.7831 17.3559,68.9898 11.7153,73.7627 8.678,78.9695" stroke="#5cff9a" stroke-width="2" /><polyline fill="none" points="24.2983,67.2542 16.0542,75.4983 14.7525,80.2712" stroke="#9aff5c" stroke-width="2" /><polyline fill="none" points="27.3356,73.3288 12.1492,88.0814" stroke="#daff1c" stroke-width="2" /><polyline fill="none" points="97.6271,66.3864 107.1729,66.8203 119.322,73.3288" stroke="#ffcb00" stroke-width="2" /><polyline fill="none" points="95.4576,75.4983 104.5695,78.5356 116.2847,86.7797" stroke="#ff8500" stroke-width="2" /><polyline fill="none" points="93.722,85.0441 105.4373,91.5525" stroke="#ff3b00" stroke-width="2" /><polyline fill="none" points="89.3831,25.1661 84.1763,32.9763 95.4576,38.6169 91.1186,22.1288" stroke="#d50000" stroke-width="2" /><polyline fill="none" points="35.1458,19.9593 36.0136,32.1085 39.4847,32.5424 35.5797,27.3356 33.8441,22.5627" stroke="#7f0000" stroke-width="2" /></svg>