<?xml version="1.0" encoding="utf-8" ?>
<svg baseProfile="tiny" height="128" version="1.2" viewBox="0,0,128,128" width="128" xmlns="http://www.w3.org/2000/svg" xmlns:ev="http://www.w3.org/2001/xml-events" xmlns:xlink="http://www.w3.org/1999/xlink"><defs /><polyline fill="none" points="31.6746,54.6712 34.7119,43.8237 39.4847,35.1458 42.9559,32.5424 59.4441,27.3356 75.0644,27.7695 97.1932,32.1085 106.739,38.1831 110.6441,44.2576 109.7763,52.5017 91.9864,85.9119 81.5729,93.2881 63.7831,96.3254 57.2746,95.8915 45.9932,91.5525 33.8441,82.8746 26.9017,73.7627 24.7322,67.6881 26.0339,54.2373 31.6746,42.522" stroke="#00007f" stroke-width="2" /><polyline fill="none" points="45.5593,39.0508 39.9186,19.0915 41.2203,15.6203 45.5593,9.1119 49.4644,9.9797 76.8,25.1661" stroke="#0000ff" stroke-width="2" /><polyline fill="none" points="94.1559,26.0339 99.3627,23.8644 108.0407,14.7525 118.0203,8.678 110.6441,27.7695 108.0407,39.0508 107.6068,47.7288" stroke="#0080ff" stroke-width="2" /><polyline fill="none" points="55.539,58.1424 72.461,65.5186 73.7627,67.6881 72.8949,70.2915 68.122,75.4983 58.5763,77.6678 54.2373,74.6305 51.6339,66.3864 52.0678,60.7458" stroke="#15ffe1" stroke-width="2" /><polyline fill="none" points="79.8373,63.7831 119.322,60.3119" stroke="#7cff79" stroke-width="2" /><polyline fill="none" points="82.0068,68.5559 90.6847,72.8949 114.5492,78.9695" stroke="#e4ff12" stroke-width="2" /><polyline fill="none" points="75.9322,79.8373 90.2508,112.8136" stroke="#ff9400" stroke-width="2" /><polyline fill="none" points="41.2203,62.9153 29.939,50.3322 15.1864,38.6169" stroke="#ff1d00" stroke-width="2" /><polyline fill="none" points="43.3898,75.0644 32.9763,72.8949 27.3356,73.3288 8.678,78.9695" stroke="#7f0000" stroke-width="2" /></svg>