<?xml version="1.0" encoding="utf-8" ?>
<svg baseProfile="tiny" height="128" version="1.2" viewBox="0,0,128,128" width="128" xmlns="http://www.w3.org/2000/svg" xmlns:ev="http://www.w3.org/2001/xml-events" xmlns:xlink="http://www.w3.org/1999/xlink"><defs /><polyline fill="none" points="47.7288,20.8271 45.1254,20.3932" stroke="#00007f" stroke-width="2" /><polyline fill="none" points="37.3153,21.6949 32.1085,24.2983 26.4678,31.6746 24.2983,39.9186 23.8644,49.4644 29.5051,62.9153 33.8441,68.122 39.4847,72.0271 53.3695,75.4983 68.5559,73.7627 82.0068,65.9525 87.2136,60.7458 91.9864,52.5017 93.722,43.8237 91.9864,34.278 86.3458,26.9017 77.2339,21.261 64.2169,17.3559 53.8034,16.922 40.7864,21.6949 34.7119,27.7695" stroke="#0000cc" stroke-width="2" /><polyline fill="none" points="34.7119,22.9966 43.8237,11.2814 47.7288,8.678 50.3322,18.6576" stroke="#0008ff" stroke-width="2" /><polyline fill="none" points="78.9695,19.5254 88.0814,13.8847 90.6847,13.8847 88.9492,32.1085" stroke="#004cff" stroke-width="2" /><polyline fill="none" points="55.1051,43.8237 62.0475,45.9932 62.4814,47.2949 60.3119,49.8983 54.6712,44.6915 60.7458,45.5593" stroke="#0090ff" stroke-width="2" /><polyline fill="none" points="59.4441,50.7661 51.6339,59.4441" stroke="#00d4ff" stroke-width="2" /><polyline fill="none" points="59.878,51.2 60.7458,60.7458" stroke="#29ffcd" stroke-width="2" /><polyline fill="none" points="45.1254,32.1085 45.5593,32.1085" stroke="#5fff96" stroke-width="2" /><polyline fill="none" points="45.1254,32.1085 45.9932,30.3729 44.2576,30.8068 43.8237,33.4102 48.1627,34.278 51.6339,32.5424 48.5966,31.6746" stroke="#96ff5f" stroke-width="2" /><polyline fill="none" points="75.0644,36.4475 76.8,36.4475 75.9322,35.5797 70.7254,35.1458 70.2915,36.8814 77.2339,38.6169 75.0644,37.3153 70.2915,37.7492" stroke="#cdff29" stroke-width="2" /><polyline fill="none" points="42.9559,48.5966 39.9186,45.1254 11.7153,26.4678 9.5458,25.1661 8.678,26.0339" stroke="#ffe500" stroke-width="2" /><polyline fill="none" points="44.6915,51.6339 38.1831,51.6339 23.8644,54.6712 11.7153,59.4441" stroke="#ffa600" stroke-width="2" /><polyline fill="none" points="41.2203,58.5763 26.4678,66.8203 22.1288,70.7254" stroke="#ff6700" stroke-width="2" /><polyline fill="none" points="66.3864,51.2 104.5695,49.4644 119.322,52.5017" stroke="#ff2800" stroke-width="2" /><polyline fill="none" points="68.5559,57.7085 76.8,58.5763 101.5322,64.2169" stroke="#cc0000" stroke-width="2" /><polyline fill="none" points="67.6881,64.2169 87.6475,76.3661 98.061,78.5356" stroke="#7f0000" stroke-width="2" /></svg>