<?xml version="1.0" encoding="utf-8" ?>
<svg baseProfile="tiny" height="128" version="1.2" viewBox="0,0,128,128" width="128" xmlns="http://www.w3.org/2000/svg" xmlns:ev="http://www.w3.org/2001/xml-events" xmlns:xlink="http://www.w3.org/1999/xlink"><defs /><polyline fill="none" points="36.0136,73.3288 27.3356,61.6136 25.6,52.9356 27.7695,47.2949 38.6169,37.7492 36.0136,28.6373 37.7492,13.4508 39.9186,8.678 41.2203,9.1119 52.9356,33.8441 56.4068,38.1831 70.2915,35.5797 76.3661,37.3153 78.9695,39.9186 80.7051,38.6169 88.0814,23.4305 97.6271,12.5831 94.1559,25.1661 91.5525,41.6542 97.1932,46.861 98.4949,51.6339 98.061,60.7458 94.1559,70.7254 88.0814,78.9695 83.3085,82.8746 76.3661,85.9119 63.7831,87.6475 52.0678,82.8746 35.1458,71.5932" stroke="#00007f" stroke-width="2" /><polyline fill="none" points="59.4441,47.7288 55.539,48.5966 54.2373,52.0678 56.8407,53.8034 62.4814,52.9356 63.7831,48.5966 60.3119,46.861" stroke="#0000ff" stroke-width="2" /><polyline fill="none" points="83.3085,50.7661 79.4034,49.0305 75.0644,49.8983 72.461,52.9356 74.1966,55.9729 78.1017,53.3695 77.2339,50.7661" stroke="#0080ff" stroke-width="2" /><polyline fill="none" points="71.1593,65.5186 111.078,62.0475" stroke="#15ffe1" stroke-width="2" /><polyline fill="none" points="69.8576,65.5186 94.5898,72.0271 119.322,76.3661" stroke="#7cff79" stroke-width="2" /><polyline fill="none" points="68.122,68.122 115.4169,86.7797" stroke="#e4ff12" stroke-width="2" /><polyline fill="none" points="52.0678,60.7458 8.678,72.0271" stroke="#ff9400" stroke-width="2" /><polyline fill="none" points="56.8407,62.4814 34.278,69.4237 13.4508,81.139" stroke="#ff1d00" stroke-width="2" /><polyline fill="none" points="56.4068,65.0847 44.2576,72.0271" stroke="#7f0000" stroke-width="2" /></svg>