<?xml version="1.0" encoding="utf-8" ?>
<svg baseProfile="tiny" height="128" version="1.2" viewBox="0,0,128,128" width="128" xmlns="http://www.w3.org/2000/svg" xmlns:ev="http://www.w3.org/2001/xml-events" xmlns:xlink="http://www.w3.org/1999/xlink"><defs /><polyline fill="none" points="34.278,39.4847 34.7119,25.6 37.7492,16.922 41.2203,11.2814 42.9559,12.5831 49.4644,28.2034 73.7627,24.2983 80.2712,24.7322 80.7051,19.5254 83.3085,14.7525 91.9864,8.678 93.2881,9.5458 93.2881,27.7695 98.061,39.0508 98.061,50.3322 95.0237,60.3119 89.8169,67.6881 82.8746,71.5932 62.4814,77.2339 48.5966,78.1017 45.5593,74.1966 37.3153,55.9729 35.5797,49.8983 35.5797,36.4475" stroke="#00007f" stroke-width="2" /><polyline fill="none" points="8.678,52.9356 45.9932,52.0678 48.1627,52.9356 46.4271,53.3695" stroke="#00d4ff" stroke-width="2" /><polyline fill="none" points="47.7288,61.1797 37.3153,62.4814 19.0915,69.4237 15.1864,72.0271 26.0339,70.7254 30.8068,68.5559" stroke="#ffe500" stroke-width="2" /><polyline fill="none" points="88.9492,46.861 116.2847,36.8814 119.322,37.3153 117.1525,40.3525" stroke="#7f0000" stroke-width="2" /></svg>