<?xml version="1.0" encoding="utf-8" ?>
<svg baseProfile="tiny" height="128" version="1.2" viewBox="0,0,128,128" width="128" xmlns="http://www.w3.org/2000/svg" xmlns:ev="http://www.w3.org/2001/xml-events" xmlns:xlink="http://www.w3.org/1999/xlink"><defs /><polyline fill="none" points="31.6746,39.9186 32.1085,29.5051 35.5797,14.3186 51.6339,30.3729" stroke="#00007f" stroke-width="2" /><polyline fill="none" points="78.9695,35.1458 95.4576,8.678 101.9661,22.9966 103.2678,31.6746" stroke="#0000fe" stroke-width="2" /><polyline fill="none" points="49.4644,30.8068 56.8407,30.3729 64.2169,32.1085 70.7254,36.4475 75.4983,42.0881" stroke="#0060ff" stroke-width="2" /><polyline fill="none" points="51.6339,32.1085 73.7627,30.3729 82.4407,35.1458" stroke="#00d4ff" stroke-width="2" /><polyline fill="none" points="32.1085,38.1831 28.2034,39.0508 18.6576,45.9932 13.8847,50.7661 10.8475,56.8407 8.678,71.5932 8.678,86.7797 10.8475,98.4949 19.0915,109.7763 28.6373,117.1525 46.861,119.322 60.3119,119.322 65.0847,118.0203" stroke="#4cffaa" stroke-width="2" /><polyline fill="none" points="32.5424,57.7085 31.6746,56.4068 29.0712,56.8407 28.2034,59.4441 30.8068,62.9153 36.0136,64.2169 39.9186,64.2169 41.6542,62.4814 37.7492,57.2746 32.5424,55.9729 27.7695,55.9729 26.4678,57.2746" stroke="#aaff4c" stroke-width="2" /><polyline fill="none" points="74.1966,59.4441 67.2542,59.0102 65.5186,61.1797 66.8203,63.7831 70.7254,65.5186 77.2339,65.5186 78.1017,63.3492 75.0644,60.7458 68.9898,59.4441" stroke="#ffe500" stroke-width="2" /><polyline fill="none" points="43.3898,83.3085 52.9356,83.3085 53.8034,84.6102 43.3898,85.9119 42.0881,84.6102" stroke="#ff7a00" stroke-width="2" /><polyline fill="none" points="48.1627,87.2136 48.1627,101.9661 43.8237,104.1356 36.0136,104.1356" stroke="#fe1200" stroke-width="2" /><polyline fill="none" points="49.0305,88.9492 52.5017,102.8339 61.1797,109.3424" stroke="#7f0000" stroke-width="2" /></svg>