<?xml version="1.0" encoding="utf-8" ?>
<svg baseProfile="tiny" height="128" version="1.2" viewBox="0,0,128,128" width="128" xmlns="http://www.w3.org/2000/svg" xmlns:ev="http://www.w3.org/2001/xml-events" xmlns:xlink="http://www.w3.org/1999/xlink"><defs /><polyline fill="none" points="68.5559,57.2746 54.6712,51.2 51.2,46.861 49.8983,29.939 51.6339,13.0169 67.2542,29.5051 84.1763,30.3729 86.7797,19.5254 90.6847,8.678 99.3627,32.9763 99.3627,40.3525 98.061,44.6915 89.8169,53.3695 82.4407,58.1424 73.3288,58.5763 64.2169,55.539" stroke="#00007f" stroke-width="2" /><polyline fill="none" points="74.1966,44.6915 76.3661,45.1254 74.1966,45.1254" stroke="#0000ff" stroke-width="2" /><polyline fill="none" points="66.3864,44.2576 33.4102,55.539 8.678,61.6136" stroke="#0080ff" stroke-width="2" /><polyline fill="none" points="58.1424,41.2203 33.4102,43.3898" stroke="#15ffe1" stroke-width="2" /><polyline fill="none" points="61.6136,51.2 52.5017,61.6136" stroke="#7cff79" stroke-width="2" /><polyline fill="none" points="89.3831,44.2576 113.2475,43.8237 119.322,44.6915" stroke="#e4ff12" stroke-width="2" /><polyline fill="none" points="90.6847,47.2949 108.4746,61.6136" stroke="#ff9400" stroke-width="2" /><polyline fill="none" points="90.2508,36.4475 109.3424,29.939" stroke="#ff1d00" stroke-width="2" /><polyline fill="none" points="78.5356,36.8814 78.9695,35.5797 81.139,36.0136 81.139,38.6169" stroke="#7f0000" stroke-width="2" /></svg>