<?xml version="1.0" encoding="utf-8" ?>
<svg baseProfile="tiny" height="128" version="1.2" viewBox="0,0,128,128" width="128" xmlns="http://www.w3.org/2000/svg" xmlns:ev="http://www.w3.org/2001/xml-events" xmlns:xlink="http://www.w3.org/1999/xlink"><defs /><polyline fill="none" points="96.3254,23.8644 89.8169,19.9593 78.5356,17.3559 65.0847,18.2237 51.2,21.6949 42.0881,26.0339 32.9763,32.1085 19.0915,45.5593 16.0542,49.8983 11.7153,57.7085 9.9797,65.9525 9.9797,73.3288 15.1864,83.7424 23.8644,91.5525 33.4102,95.8915 46.4271,98.9288 55.539,98.4949 67.6881,95.0237 80.2712,87.6475 87.6475,79.4034 93.2881,65.0847 94.5898,53.8034 92.8542,43.8237 88.5153,32.9763 79.8373,26.9017" stroke="#00007f" stroke-width="2" /><polyline fill="none" points="9.1119,45.1254 9.9797,29.5051 8.678,8.678 13.0169,10.4136 27.3356,23.8644 36.4475,28.6373" stroke="#0010ff" stroke-width="2" /><polyline fill="none" points="85.478,24.7322 119.322,19.0915 95.0237,36.4475 90.2508,41.2203 92.4203,42.522" stroke="#00a4ff" stroke-width="2" /><polyline fill="none" points="56.8407,55.9729 49.8983,57.7085 44.6915,63.7831 42.9559,72.461 45.1254,75.9322 48.1627,77.2339 52.5017,76.8 59.878,70.2915 62.0475,59.878 59.0102,56.8407" stroke="#3fffb7" stroke-width="2" /><polyline fill="none" points="62.4814,62.9153 99.3627,65.5186" stroke="#b7ff3f" stroke-width="2" /><polyline fill="none" points="60.3119,75.9322 85.9119,85.478" stroke="#ffb900" stroke-width="2" /><polyline fill="none" points="56.4068,73.7627 65.9525,75.0644 89.3831,82.4407 97.1932,82.8746" stroke="#ff3000" stroke-width="2" /><polyline fill="none" points="47.2949,68.9898 43.8237,68.5559" stroke="#7f0000" stroke-width="2" /></svg>