<?xml version="1.0" encoding="utf-8" ?>
<svg baseProfile="tiny" height="128" version="1.2" viewBox="0,0,128,128" width="128" xmlns="http://www.w3.org/2000/svg" xmlns:ev="http://www.w3.org/2001/xml-events" xmlns:xlink="http://www.w3.org/1999/xlink"><defs /><polyline fill="none" points="27.3356,57.7085 20.8271,67.6881 16.0542,82.4407 19.5254,98.061 30.3729,108.4746 41.6542,114.1153 55.1051,118.4542 62.0475,119.322 75.4983,118.0203 92.8542,110.2102 101.0983,99.3627 104.5695,93.2881 106.3051,83.3085 105.0034,69.4237 98.061,58.5763 90.2508,52.5017 85.9119,49.4644 74.1966,45.9932 61.6136,44.2576 37.7492,46.861 32.5424,49.8983" stroke="#00007f" stroke-width="2" /><polyline fill="none" points="19.9593,66.8203 24.2983,8.678 28.6373,13.4508 41.2203,43.8237" stroke="#004cff" stroke-width="2" /><polyline fill="none" points="78.9695,49.8983 95.8915,26.4678 105.4373,9.9797 108.4746,15.6203 107.1729,41.6542 104.5695,52.5017" stroke="#29ffcd" stroke-width="2" /><polyline fill="none" points="37.3153,65.5186 48.5966,68.5559" stroke="#cdff29" stroke-width="2" /><polyline fill="none" points="82.0068,70.7254 90.2508,72.0271" stroke="#ff6700" stroke-width="2" /><polyline fill="none" points="63.3492,89.3831 21.6949,91.9864 8.678,95.4576" stroke="#7f0000" stroke-width="2" /></svg>