<?xml version="1.0" encoding="utf-8" ?>
<svg baseProfile="tiny" height="128" version="1.2" viewBox="0,0,128,128" width="128" xmlns="http://www.w3.org/2000/svg" xmlns:ev="http://www.w3.org/2001/xml-events" xmlns:xlink="http://www.w3.org/1999/xlink"><defs /><polyline fill="none" points="44.4082,36.5714 22.6395,53.551 11.3197,68.3537 8.7075,74.449 8.7075,87.0748 11.3197,94.0408 21.3333,103.1837 33.0884,107.9728 42.2313,114.5034 47.4558,116.6803 60.0816,116.6803 66.6122,119.2925 76.1905,119.2925 88.381,114.068 98.8299,107.102 101.0068,100.5714 100.1361,84.898 95.3469,74.8844 92.7347,71.4014 80.1088,60.517 55.7279,50.9388 47.8912,42.6667 40.0544,40.4898" stroke="#00007f" stroke-width="2" /><polyline fill="none" points="29.1701,44.4082 26.1224,40.4898 23.9456,26.9932 23.9456,8.7075 29.1701,12.1905 33.5238,18.2857 39.1837,33.0884" stroke="#0000ff" stroke-width="2" /><polyline fill="none" points="56.1633,47.0204 74.0136,31.3469 80.1088,28.7347 85.3333,45.2789 85.7687,54.8571 83.5918,56.1633" stroke="#0080ff" stroke-width="2" /><polyline fill="none" points="40.0544,62.2585 37.8776,65.3061 39.1837,67.9184 45.7143,67.0476 46.585,64.0 43.5374,60.517" stroke="#15ffe1" stroke-width="2" /><polyline fill="none" points="70.5306,72.7075 68.3537,76.1905 70.5306,81.415 76.1905,83.1565 77.932,79.6735 76.6259,77.0612 72.2721,77.4966" stroke="#7cff79" stroke-width="2" /><polyline fill="none" points="51.3741,77.4966 42.6667,87.0748 40.0544,88.381 37.0068,87.0748 35.7007,83.5918" stroke="#e4ff12" stroke-width="2" /><polyline fill="none" points="48.7619,75.3197 49.1973,86.2041 56.1633,92.2993 62.2585,94.4762" stroke="#ff9400" stroke-width="2" /><polyline fill="none" points="41.3605,86.2041 56.5986,94.4762 57.9048,94.4762 60.9524,90.1224" stroke="#ff1d00" stroke-width="2" /><polyline fill="none" points="95.3469,79.6735 95.3469,79.6735" stroke="#7f0000" stroke-width="2" /></svg>