<?xml version="1.0" encoding="utf-8" ?>
<svg baseProfile="tiny" height="128" version="1.2" viewBox="0,0,128,128" width="128" xmlns="http://www.w3.org/2000/svg" xmlns:ev="http://www.w3.org/2001/xml-events" xmlns:xlink="http://www.w3.org/1999/xlink"><defs /><polyline fill="none" points="39.4847,41.6542 33.8441,43.8237 30.3729,51.6339 29.5051,79.8373 31.6746,91.1186 39.4847,105.0034 53.8034,112.8136 82.0068,111.5119 94.1559,105.8712 101.5322,100.6644 107.1729,94.1559 109.3424,85.478 110.6441,65.5186 108.4746,52.5017 105.0034,45.9932 96.3254,38.1831 84.1763,32.5424 71.1593,30.8068 60.3119,30.3729 54.6712,31.6746 48.1627,36.0136" stroke="#00007f" stroke-width="2" /><polyline fill="none" points="31.6746,61.1797 22.9966,49.4644 15.1864,25.6 8.678,13.0169 14.3186,10.8475 28.2034,26.0339 42.522,37.3153" stroke="#0028ff" stroke-width="2" /><polyline fill="none" points="91.9864,35.1458 88.9492,29.5051 112.8136,8.678 113.6814,14.3186 106.3051,46.861 107.1729,51.2" stroke="#00d4ff" stroke-width="2" /><polyline fill="none" points="63.3492,76.8 68.5559,76.8 63.7831,77.6678 70.2915,78.9695 73.3288,77.6678" stroke="#7cff79" stroke-width="2" /><polyline fill="none" points="85.478,73.3288 98.4949,65.5186 115.8508,60.3119" stroke="#ffe500" stroke-width="2" /><polyline fill="none" points="94.1559,76.8 110.2102,72.461 118.0203,72.0271" stroke="#ff4600" stroke-width="2" /><polyline fill="none" points="94.1559,83.3085 119.322,83.3085" stroke="#7f0000" stroke-width="2" /></svg>