<?xml version="1.0" encoding="utf-8" ?>
<svg baseProfile="tiny" height="128" version="1.2" viewBox="0,0,128,128" width="128" xmlns="http://www.w3.org/2000/svg" xmlns:ev="http://www.w3.org/2001/xml-events" xmlns:xlink="http://www.w3.org/1999/xlink"><defs /><polyline fill="none" points="68.122,61.6136 58.1424,59.878 41.6542,60.3119 37.7492,61.1797 22.5627,68.5559 15.1864,77.2339 9.5458,91.1186 8.678,104.1356 10.4136,107.6068 15.1864,108.9085 61.6136,108.9085 71.5932,107.6068 85.0441,100.6644 92.4203,94.5898 98.061,84.6102 97.6271,80.2712 93.722,74.1966 83.3085,63.7831 58.5763,63.3492 52.0678,64.6508" stroke="#00007f" stroke-width="2" /><polyline fill="none" points="9.9797,61.1797 10.8475,62.4814 14.7525,43.8237 28.2034,21.6949 37.7492,8.678 40.7864,31.6746 41.6542,48.1627 44.2576,49.0305" stroke="#0000fe" stroke-width="2" /><polyline fill="none" points="71.1593,61.6136 119.322,26.9017 117.1525,41.6542 102.8339,83.7424" stroke="#0060ff" stroke-width="2" /><polyline fill="none" points="84.1763,62.9153 100.6644,55.9729 114.1153,43.3898 111.5119,43.8237 98.9288,54.6712 95.0237,68.5559 95.0237,71.5932 96.3254,72.0271" stroke="#00d4ff" stroke-width="2" /><polyline fill="none" points="21.261,60.3119 27.7695,53.8034 30.8068,41.6542 37.7492,55.1051 40.3525,66.3864" stroke="#4cffaa" stroke-width="2" /><polyline fill="none" points="52.9356,91.9864 51.6339,96.3254 54.6712,98.061 60.3119,98.4949 61.1797,96.7593 60.3119,94.5898 55.1051,91.5525" stroke="#aaff4c" stroke-width="2" /><polyline fill="none" points="49.0305,95.0237 46.861,93.722 38.1831,94.1559" stroke="#ffe500" stroke-width="2" /><polyline fill="none" points="50.3322,96.3254 36.0136,93.722" stroke="#ff7a00" stroke-width="2" /><polyline fill="none" points="59.878,96.7593 78.1017,96.7593" stroke="#fe1200" stroke-width="2" /><polyline fill="none" points="62.4814,91.9864 75.0644,90.2508" stroke="#7f0000" stroke-width="2" /></svg>