<?xml version="1.0" encoding="utf-8" ?>
<svg baseProfile="tiny" height="128" version="1.2" viewBox="0,0,128,128" width="128" xmlns="http://www.w3.org/2000/svg" xmlns:ev="http://www.w3.org/2001/xml-events" xmlns:xlink="http://www.w3.org/1999/xlink"><defs /><polyline fill="none" points="28.2034,26.9017 22.5627,28.6373 19.0915,33.8441 16.922,45.9932 17.3559,55.539 27.7695,63.7831 39.4847,65.5186 48.5966,60.7458 53.8034,54.6712 56.4068,47.2949 55.539,39.0508 43.8237,27.3356 34.278,21.261 22.1288,18.2237" stroke="#00007f" stroke-width="2" /><polyline fill="none" points="19.0915,29.939 18.2237,14.7525 19.5254,9.1119 21.261,8.678 23.8644,9.9797 29.0712,26.0339 32.1085,30.3729" stroke="#0000f1" stroke-width="2" /><polyline fill="none" points="42.9559,26.4678 48.5966,14.3186 49.8983,16.4881 49.8983,25.1661 52.5017,32.5424" stroke="#004cff" stroke-width="2" /><polyline fill="none" points="32.1085,65.9525 28.2034,66.8203 25.1661,71.1593 24.7322,82.8746 28.2034,95.4576 21.6949,101.9661 18.2237,111.5119 23.4305,114.9831 29.939,114.9831 37.3153,109.3424 39.4847,104.1356 43.3898,116.2847 51.2,118.8881 62.0475,113.6814 63.3492,105.4373 60.7458,102.4 52.9356,98.9288 51.6339,78.9695 49.0305,68.9898 44.6915,65.0847" stroke="#00b0ff" stroke-width="2" /><polyline fill="none" points="37.3153,66.3864 37.3153,81.5729 34.7119,97.6271 36.0136,119.322" stroke="#29ffcd" stroke-width="2" /><polyline fill="none" points="35.5797,50.7661 36.0136,49.0305 37.3153,48.5966 36.8814,50.7661" stroke="#7cff79" stroke-width="2" /><polyline fill="none" points="36.8814,48.1627 41.2203,46.4271 57.7085,43.8237" stroke="#cdff29" stroke-width="2" /><polyline fill="none" points="37.7492,47.2949 64.2169,51.6339" stroke="#ffc400" stroke-width="2" /><polyline fill="none" points="36.0136,49.0305 43.8237,49.4644 55.1051,55.1051" stroke="#ff6700" stroke-width="2" /><polyline fill="none" points="36.0136,47.7288 31.2407,49.4644 8.678,49.0305" stroke="#f10700" stroke-width="2" /><polyline fill="none" points="36.8814,49.4644 32.5424,52.9356 13.4508,61.6136" stroke="#7f0000" stroke-width="2" /></svg>