<?xml version="1.0" encoding="utf-8" ?>
<svg baseProfile="tiny" height="128" version="1.2" viewBox="0,0,128,128" width="128" xmlns="http://www.w3.org/2000/svg" xmlns:ev="http://www.w3.org/2001/xml-events" xmlns:xlink="http://www.w3.org/1999/xlink"><defs /><polyline fill="none" points="71.8367,57.9048 76.1905,56.1633 79.6735,57.034 86.6395,66.1769 78.3673,73.1429 73.1429,74.449 70.5306,72.7075" stroke="#00007f" stroke-width="2" /><polyline fill="none" points="75.3197,57.9048 73.5782,45.7143 61.3878,61.3878" stroke="#0000e8" stroke-width="2" /><polyline fill="none" points="62.2585,62.6939 58.3401,60.9524 51.8095,60.9524 43.102,64.8707" stroke="#0038ff" stroke-width="2" /><polyline fill="none" points="63.5646,61.3878 56.1633,66.1769 43.9728,70.0952 25.2517,69.2245 20.898,70.966 16.9796,75.7551 16.9796,84.898 21.3333,90.1224 29.6054,93.1701 35.2653,92.7347 46.585,88.8163 50.9388,88.8163 60.517,91.4286 64.8707,88.8163 70.5306,80.5442" stroke="#0094ff" stroke-width="2" /><polyline fill="none" points="73.1429,74.449 67.483,85.7687" stroke="#0cf4ea" stroke-width="2" /><polyline fill="none" points="67.9184,83.5918 64.4354,107.102 62.6939,111.0204 60.517,111.8912 58.3401,107.9728 60.0816,90.5578" stroke="#56ffa0" stroke-width="2" /><polyline fill="none" points="33.5238,91.4286 31.3469,99.2653 29.6054,119.2925 25.6871,116.6803 22.2041,106.2313 21.7687,98.8299 24.381,93.1701" stroke="#a0ff56" stroke-width="2" /><polyline fill="none" points="26.5578,73.5782 18.2857,61.3878 16.9796,53.9864 16.9796,45.7143 21.3333,33.9592 35.7007,18.2857 36.1361,11.7551 31.7823,8.7075 26.9932,8.7075 18.2857,14.8027 12.6259,25.6871 8.7075,43.102" stroke="#eaff0c" stroke-width="2" /><polyline fill="none" points="9.1429,72.2721 16.1088,80.1088 22.2041,81.415" stroke="#ffaa00" stroke-width="2" /><polyline fill="none" points="72.2721,45.7143 68.3537,57.4694" stroke="#ff5500" stroke-width="2" /><polyline fill="none" points="73.1429,63.5646 77.932,60.9524 79.2381,62.6939 78.3673,63.5646 72.7075,63.1293" stroke="#e80000" stroke-width="2" /><polyline fill="none" points="77.4966,60.9524 77.932,61.8231" stroke="#7f0000" stroke-width="2" /></svg>