<?xml version="1.0" encoding="utf-8" ?>
<svg baseProfile="tiny" height="128" version="1.2" viewBox="0,0,128,128" width="128" xmlns="http://www.w3.org/2000/svg" xmlns:ev="http://www.w3.org/2001/xml-events" xmlns:xlink="http://www.w3.org/1999/xlink"><defs /><polyline fill="none" points="11.7153,45.9932 8.678,24.7322 8.678,13.4508 19.9593,22.1288 26.9017,31.6746 42.9559,27.7695 53.3695,26.9017 66.8203,26.4678 74.1966,28.2034 76.3661,16.0542 79.4034,8.678 86.3458,29.939 94.5898,39.4847 102.4,53.3695 106.3051,63.7831 104.5695,74.6305 98.9288,81.5729 86.7797,88.9492 78.1017,91.9864 51.2,91.9864 36.8814,87.2136 28.6373,82.4407 22.1288,75.4983 13.4508,59.878 11.7153,53.8034 16.4881,41.6542" stroke="#00007f" stroke-width="2" /><polyline fill="none" points="26.9017,69.8576 13.0169,82.8746" stroke="#0000ff" stroke-width="2" /><polyline fill="none" points="35.1458,78.1017 14.3186,94.5898" stroke="#0080ff" stroke-width="2" /><polyline fill="none" points="41.2203,80.7051 30.8068,93.722" stroke="#15ffe1" stroke-width="2" /><polyline fill="none" points="94.5898,64.6508 98.4949,64.6508 107.1729,68.5559 119.322,76.3661" stroke="#7cff79" stroke-width="2" /><polyline fill="none" points="89.3831,71.5932 106.739,83.7424 117.5864,89.3831" stroke="#e4ff12" stroke-width="2" /><polyline fill="none" points="82.0068,80.7051 100.6644,93.2881" stroke="#ff9400" stroke-width="2" /><polyline fill="none" points="32.1085,41.2203 30.8068,44.6915 32.1085,46.4271 36.8814,48.5966 40.3525,48.5966 39.9186,46.861 32.1085,41.6542" stroke="#ff1d00" stroke-width="2" /><polyline fill="none" points="81.5729,38.6169 79.8373,40.3525 79.8373,43.8237 84.1763,46.861 87.2136,46.861" stroke="#7f0000" stroke-width="2" /></svg>