<?xml version="1.0" encoding="utf-8" ?>
<svg baseProfile="tiny" height="128" version="1.2" viewBox="0,0,128,128" width="128" xmlns="http://www.w3.org/2000/svg" xmlns:ev="http://www.w3.org/2001/xml-events" xmlns:xlink="http://www.w3.org/1999/xlink"><defs /><polyline fill="none" points="90.6847,70.7254 91.1186,64.2169 88.0814,58.5763 78.9695,53.3695 68.9898,50.7661 42.9559,49.0305 31.2407,52.5017 20.3932,58.1424 15.6203,62.4814 10.4136,71.1593 8.678,80.2712 9.5458,88.5153 21.6949,101.5322 28.2034,105.8712 39.0508,110.6441 50.3322,112.3797 62.9153,111.5119 75.0644,105.8712 84.1763,96.7593 86.3458,92.4203 88.5153,88.5153 88.9492,82.0068 86.7797,75.4983 72.8949,64.6508 65.0847,60.7458" stroke="#00007f" stroke-width="2" /><polyline fill="none" points="19.5254,52.9356 21.261,50.7661 22.5627,42.9559 26.0339,36.8814 43.8237,10.8475 48.1627,8.678 49.0305,24.2983 47.7288,46.861 48.5966,51.6339 50.3322,53.3695" stroke="#0000ff" stroke-width="2" /><polyline fill="none" points="82.4407,52.9356 84.1763,42.522 88.0814,35.5797 104.5695,19.5254 112.8136,13.4508 119.322,11.2814 107.6068,50.7661 93.2881,70.2915" stroke="#0080ff" stroke-width="2" /><polyline fill="none" points="51.2,75.4983 51.2,75.4983" stroke="#15ffe1" stroke-width="2" /><polyline fill="none" points="74.6305,81.5729 74.6305,81.5729" stroke="#7cff79" stroke-width="2" /><polyline fill="none" points="45.1254,69.8576 42.9559,72.461 44.6915,70.2915" stroke="#e4ff12" stroke-width="2" /><polyline fill="none" points="68.5559,73.3288 67.6881,75.4983 73.3288,74.1966 72.461,75.4983" stroke="#ff9400" stroke-width="2" /><polyline fill="none" points="62.4814,104.5695 52.5017,110.6441 43.3898,110.6441 36.4475,107.1729 29.5051,98.9288" stroke="#ff1d00" stroke-width="2" /><polyline fill="none" points="58.5763,86.3458 58.5763,86.3458" stroke="#7f0000" stroke-width="2" /></svg>