<?xml version="1.0" encoding="utf-8" ?>
<svg baseProfile="tiny" height="128" version="1.2" viewBox="0,0,128,128" width="128" xmlns="http://www.w3.org/2000/svg" xmlns:ev="http://www.w3.org/2001/xml-events" xmlns:xlink="http://www.w3.org/1999/xlink"><defs /><polyline fill="none" points="28.2034,26.0339 30.3729,16.922 36.0136,8.678 36.8814,31.6746 38.6169,32.5424 57.7085,29.5051 68.122,24.2983 83.3085,19.9593 82.0068,27.7695 62.4814,64.2169 54.2373,72.8949 49.8983,75.4983 45.1254,76.3661 31.2407,75.4983 26.0339,69.8576 23.4305,65.0847 20.3932,52.9356 20.3932,31.2407 22.1288,27.7695 27.3356,24.7322" stroke="#00007f" stroke-width="2" /><polyline fill="none" points="28.6373,46.861 28.2034,50.7661" stroke="#0000ff" stroke-width="2" /><polyline fill="none" points="42.0881,48.1627 39.9186,53.3695" stroke="#0080ff" stroke-width="2" /><polyline fill="none" points="47.7288,58.5763 71.1593,58.1424" stroke="#15ffe1" stroke-width="2" /><polyline fill="none" points="55.539,62.4814 60.7458,66.3864 66.3864,68.122 63.7831,66.3864" stroke="#7cff79" stroke-width="2" /><polyline fill="none" points="45.1254,64.2169 46.861,68.5559 54.6712,72.8949" stroke="#e4ff12" stroke-width="2" /><polyline fill="none" points="26.9017,56.4068 24.7322,55.1051 13.4508,54.6712 14.3186,56.4068" stroke="#ff9400" stroke-width="2" /><polyline fill="none" points="29.0712,60.3119 13.8847,62.9153" stroke="#ff1d00" stroke-width="2" /><polyline fill="none" points="29.5051,65.9525 37.7492,90.2508 47.2949,94.5898 60.3119,96.3254 35.5797,113.2475 25.6,118.0203 22.1288,119.322 8.678,119.322" stroke="#7f0000" stroke-width="2" /></svg>