<?xml version="1.0" encoding="utf-8" ?>
<svg baseProfile="tiny" height="128" version="1.2" viewBox="0,0,128,128" width="128" xmlns="http://www.w3.org/2000/svg" xmlns:ev="http://www.w3.org/2001/xml-events" xmlns:xlink="http://www.w3.org/1999/xlink"><defs /><polyline fill="none" points="48.5966,19.0915 39.0508,20.3932 28.6373,26.0339 19.9593,39.4847 18.2237,48.5966 23.4305,67.2542 32.1085,76.3661 44.2576,82.0068 52.5017,83.3085 88.0814,82.4407 93.722,79.4034 98.9288,74.1966 100.6644,69.4237 101.0983,62.0475 99.3627,55.9729 91.9864,42.9559 83.7424,32.1085 74.6305,25.6 57.2746,16.0542 49.8983,15.1864 40.7864,16.922" stroke="#00007f" stroke-width="2" /><polyline fill="none" points="8.678,39.0508 15.6203,31.6746 18.2237,26.9017 18.2237,20.8271 14.7525,8.678 29.0712,19.0915 40.3525,24.7322" stroke="#004cff" stroke-width="2" /><polyline fill="none" points="80.7051,28.6373 119.322,9.1119 96.3254,42.9559" stroke="#29ffcd" stroke-width="2" /><polyline fill="none" points="53.8034,58.1424 57.2746,60.7458 60.7458,60.7458 61.6136,58.5763 58.5763,58.1424 55.539,59.878" stroke="#cdff29" stroke-width="2" /><polyline fill="none" points="57.2746,63.3492 52.9356,67.2542 48.1627,68.122 45.9932,68.122 45.5593,67.2542" stroke="#ff6700" stroke-width="2" /><polyline fill="none" points="57.2746,64.2169 61.1797,70.2915 65.5186,72.461" stroke="#7f0000" stroke-width="2" /></svg>