<?xml version="1.0" encoding="utf-8" ?>
<svg baseProfile="tiny" height="128" version="1.2" viewBox="0,0,128,128" width="128" xmlns="http://www.w3.org/2000/svg" xmlns:ev="http://www.w3.org/2001/xml-events" xmlns:xlink="http://www.w3.org/1999/xlink"><defs /><polyline fill="none" points="66.6122,37.4422 76.6259,31.7823 75.7551,23.9456 81.8503,27.8639 85.3333,34.3946 95.3469,36.5714 98.8299,41.7959" stroke="#00007f" stroke-width="2" /><polyline fill="none" points="85.3333,34.8299 92.7347,36.5714 102.7483,42.6667 103.619,49.1973 99.7007,52.2449" stroke="#0000de" stroke-width="2" /><polyline fill="none" points="93.6054,41.3605 92.2993,42.6667 93.1701,42.6667 93.1701,41.3605 91.8639,42.6667 93.6054,43.102 92.7347,41.7959 91.4286,42.6667" stroke="#0028ff" stroke-width="2" /><polyline fill="none" points="100.1361,45.7143 98.8299,45.7143 99.2653,46.585 100.1361,45.2789 101.8776,46.1497 102.3129,43.9728 100.5714,44.4082 102.3129,45.2789 101.4422,43.9728 100.1361,45.7143 101.0068,45.7143 100.5714,44.4082 99.2653,45.2789 101.4422,44.4082" stroke="#0080ff" stroke-width="2" /><polyline fill="none" points="97.0884,47.4558 90.9932,47.4558 82.7211,50.9388" stroke="#00d4ff" stroke-width="2" /><polyline fill="none" points="92.7347,49.6327 84.4626,57.9048" stroke="#36ffc0" stroke-width="2" /><polyline fill="none" points="95.3469,50.9388 92.7347,62.2585" stroke="#7cff79" stroke-width="2" /><polyline fill="none" points="102.3129,49.6327 97.5238,55.2925 88.381,56.5986" stroke="#c0ff36" stroke-width="2" /><polyline fill="none" points="67.0476,37.4422 55.7279,42.2313 39.619,43.102 32.2177,50.068" stroke="#ffe500" stroke-width="2" /><polyline fill="none" points="73.5782,34.3946 60.9524,50.068 55.7279,53.9864 30.0408,58.7755 23.0748,61.8231 20.4626,66.6122 19.1565,73.5782 19.1565,79.6735 22.2041,90.5578 25.2517,93.6054 28.7347,94.9116 37.4422,82.7211 50.068,84.4626 60.9524,83.5918 62.6939,90.9932 64.8707,94.9116 67.0476,97.0884 70.5306,97.5238 76.6259,77.932 84.4626,71.8367 89.6871,59.6463" stroke="#ff9400" stroke-width="2" /><polyline fill="none" points="27.4286,59.6463 23.0748,58.7755 19.1565,54.8571 17.415,47.0204 37.8776,26.5578 41.3605,19.1565 39.1837,13.4966 33.9592,9.5782 27.8639,8.7075 21.7687,10.449 23.5102,13.4966 30.9116,16.1088 32.2177,21.3333 29.6054,26.5578 16.5442,35.7007 9.1429,46.1497 8.7075,55.2925 13.0612,61.8231 17.8503,64.8707" stroke="#ff4600" stroke-width="2" /><polyline fill="none" points="108.4082,40.0544 119.2925,37.4422" stroke="#de0000" stroke-width="2" /><polyline fill="none" points="103.619,47.8912 119.2925,50.068" stroke="#7f0000" stroke-width="2" /></svg>