<?xml version="1.0" encoding="utf-8" ?>
<svg baseProfile="tiny" height="128" version="1.2" viewBox="0,0,128,128" width="128" xmlns="http://www.w3.org/2000/svg" xmlns:ev="http://www.w3.org/2001/xml-events" xmlns:xlink="http://www.w3.org/1999/xlink"><defs /><polyline fill="none" points="119.322,35.1458 118.0203,31.2407 111.5119,26.0339 96.3254,25.1661 91.5525,27.7695 88.5153,31.6746 89.8169,38.1831 95.0237,42.0881 104.5695,45.1254 112.8136,44.2576 115.8508,40.3525 115.8508,35.1458 113.2475,29.0712" stroke="#00007f" stroke-width="2" /><polyline fill="none" points="91.9864,21.6949 91.9864,11.7153 101.5322,23.4305 101.9661,9.1119 108.9085,23.8644" stroke="#004cff" stroke-width="2" /><polyline fill="none" points="87.2136,34.7119 76.8,38.6169 58.1424,38.6169 53.8034,36.8814 49.4644,38.1831 21.261,49.8983 19.5254,52.5017 21.6949,55.539 42.0881,62.9153 54.2373,62.9153 78.1017,52.5017 96.3254,42.0881" stroke="#29ffcd" stroke-width="2" /><polyline fill="none" points="20.3932,52.0678 16.4881,49.4644 10.4136,34.7119 8.678,13.8847 10.8475,9.9797 12.1492,8.678 15.1864,15.1864 20.8271,35.1458 23.8644,39.0508 29.0712,42.0881" stroke="#cdff29" stroke-width="2" /><polyline fill="none" points="38.1831,60.7458 36.4475,62.9153 36.4475,80.2712 38.6169,82.8746 47.7288,84.1763 47.7288,77.6678 42.9559,73.3288 45.5593,57.2746" stroke="#ff6700" stroke-width="2" /><polyline fill="none" points="52.0678,62.9153 52.0678,78.5356 53.8034,80.2712 60.7458,81.139 63.7831,77.2339 63.7831,73.3288 61.1797,72.461 59.878,70.2915 59.4441,64.6508" stroke="#7f0000" stroke-width="2" /></svg>