<?xml version="1.0" encoding="utf-8" ?>
<svg baseProfile="tiny" height="128" version="1.2" viewBox="0,0,128,128" width="128" xmlns="http://www.w3.org/2000/svg" xmlns:ev="http://www.w3.org/2001/xml-events" xmlns:xlink="http://www.w3.org/1999/xlink"><defs /><polyline fill="none" points="30.3729,80.7051 49.4644,79.4034 61.1797,74.1966 68.5559,65.5186 79.4034,45.1254 81.139,22.5627 79.4034,12.1492 76.3661,11.7153 64.6508,27.7695 44.6915,29.5051 32.9763,26.0339 30.8068,17.7898 20.8271,9.5458 15.1864,8.678 12.1492,11.7153 8.678,22.9966 8.678,32.5424 11.2814,42.9559 22.1288,71.5932 29.0712,79.8373 36.8814,82.8746" stroke="#00007f" stroke-width="2" /><polyline fill="none" points="39.4847,59.0102 38.6169,64.6508 36.0136,65.9525 32.9763,65.5186" stroke="#0010ff" stroke-width="2" /><polyline fill="none" points="37.7492,61.1797 37.7492,66.3864 40.3525,68.5559 45.9932,68.5559 47.7288,67.2542" stroke="#00a4ff" stroke-width="2" /><polyline fill="none" points="60.3119,46.4271 60.3119,46.4271" stroke="#3fffb7" stroke-width="2" /><polyline fill="none" points="52.9356,45.5593 52.9356,47.2949" stroke="#b7ff3f" stroke-width="2" /><polyline fill="none" points="30.3729,44.2576 30.3729,51.6339" stroke="#ffb900" stroke-width="2" /><polyline fill="none" points="19.9593,69.4237 11.7153,89.8169 11.2814,104.1356 18.6576,109.3424 30.3729,111.9458 61.6136,112.8136 67.6881,110.2102 75.0644,101.0983 77.2339,87.6475 77.2339,76.3661 70.2915,63.7831" stroke="#ff3000" stroke-width="2" /><polyline fill="none" points="74.1966,78.5356 87.2136,76.3661 92.8542,73.3288 99.3627,69.8576 119.322,52.5017" stroke="#7f0000" stroke-width="2" /></svg>