<?xml version="1.0" encoding="utf-8" ?>
<svg baseProfile="tiny" height="128" version="1.2" viewBox="0,0,128,128" width="128" xmlns="http://www.w3.org/2000/svg" xmlns:ev="http://www.w3.org/2001/xml-events" xmlns:xlink="http://www.w3.org/1999/xlink"><defs /><polyline fill="none" points="51.5495,30.5802 48.4915,31.4539 33.2014,43.686 28.3959,62.9078 27.959,80.8191 31.4539,84.314 40.628,89.1195 69.0239,93.9249 93.0512,93.9249 97.8567,91.7406 101.3515,88.2457 107.9044,73.8294 110.9625,57.6655 110.9625,42.3754 109.6519,39.7543 99.6041,31.4539 86.0614,27.5222 60.2867,26.6485 48.0546,31.4539" stroke="#00007f" stroke-width="2" /><polyline fill="none" points="34.9488,42.3754 34.5119,10.4846 37.57,13.1058 41.5017,20.0956 58.9761,41.9386" stroke="#0000fe" stroke-width="2" /><polyline fill="none" points="94.3618,26.6485 104.4096,15.727 114.4573,8.7372 117.9522,23.5904 117.9522,39.3174 114.8942,40.1911" stroke="#0060ff" stroke-width="2" /><polyline fill="none" points="59.413,47.6177 61.1604,50.2389 56.3549,51.9863" stroke="#00d4ff" stroke-width="2" /><polyline fill="none" points="88.6826,50.2389 88.2457,51.5495" stroke="#4cffaa" stroke-width="2" /><polyline fill="none" points="65.9659,62.9078 65.0922,66.8396" stroke="#aaff4c" stroke-width="2" /><polyline fill="none" points="84.7509,66.4027 93.9249,69.0239 112.273,69.0239" stroke="#ffe500" stroke-width="2" /><polyline fill="none" points="83.4403,82.1297 102.2253,86.4983 119.2628,88.6826" stroke="#ff7a00" stroke-width="2" /><polyline fill="none" points="81.256,89.5563 106.157,97.8567" stroke="#fe1200" stroke-width="2" /><polyline fill="none" points="50.2389,69.0239 8.7372,69.0239" stroke="#7f0000" stroke-width="2" /></svg>