<?xml version="1.0" encoding="utf-8" ?>
<svg baseProfile="tiny" height="128" version="1.2" viewBox="0,0,128,128" width="128" xmlns="http://www.w3.org/2000/svg" xmlns:ev="http://www.w3.org/2001/xml-events" xmlns:xlink="http://www.w3.org/1999/xlink"><defs /><polyline fill="none" points="55.1051,18.6576 47.2949,18.6576 37.7492,22.5627 32.9763,30.8068 32.5424,41.6542 37.3153,52.0678 44.2576,56.4068 52.9356,57.7085 62.4814,55.539 66.3864,52.5017 71.5932,42.0881 72.0271,31.2407 70.2915,26.4678 65.5186,20.8271 52.5017,19.5254" stroke="#00007f" stroke-width="2" /><polyline fill="none" points="45.1254,18.6576 33.4102,9.1119 32.5424,19.5254 33.8441,26.4678" stroke="#0000ff" stroke-width="2" /><polyline fill="none" points="58.1424,18.2237 60.3119,17.7898 66.8203,8.678 68.5559,13.0169 68.5559,22.5627" stroke="#0080ff" stroke-width="2" /><polyline fill="none" points="67.6881,52.9356 75.0644,61.6136 78.1017,72.8949 82.0068,75.0644 82.0068,79.8373 76.8,98.9288 65.0847,107.1729 51.6339,108.0407 40.7864,100.6644 38.6169,89.8169 38.6169,78.5356 42.9559,65.9525 48.1627,62.0475 48.5966,58.1424" stroke="#15ffe1" stroke-width="2" /><polyline fill="none" points="80.7051,88.0814 85.478,87.6475 87.6475,80.7051 89.3831,64.6508 98.4949,56.4068 101.9661,55.1051 110.6441,55.539 118.4542,63.3492 119.322,70.2915 111.5119,77.2339 108.4746,78.1017 106.3051,76.3661 104.1356,72.0271 104.1356,69.8576" stroke="#7cff79" stroke-width="2" /><polyline fill="none" points="70.2915,31.6746 91.1186,31.2407" stroke="#e4ff12" stroke-width="2" /><polyline fill="none" points="72.0271,42.522 80.2712,44.2576 94.1559,49.8983" stroke="#ff9400" stroke-width="2" /><polyline fill="none" points="33.4102,37.7492 21.261,35.1458 8.678,35.1458" stroke="#ff1d00" stroke-width="2" /><polyline fill="none" points="33.8441,49.0305 29.939,51.2 27.7695,55.539 23.8644,57.7085" stroke="#7f0000" stroke-width="2" /></svg>