<?xml version="1.0" encoding="utf-8" ?>
<svg baseProfile="tiny" height="128" version="1.2" viewBox="0,0,128,128" width="128" xmlns="http://www.w3.org/2000/svg" xmlns:ev="http://www.w3.org/2001/xml-events" xmlns:xlink="http://www.w3.org/1999/xlink"><defs /><polyline fill="none" points="77.6678,27.7695 82.0068,19.0915 90.2508,8.678 94.1559,16.922 98.061,29.0712" stroke="#00007f" stroke-width="2" /><polyline fill="none" points="82.4407,30.3729 67.2542,18.6576 63.3492,18.2237 59.0102,20.3932 51.6339,27.3356 47.2949,22.1288 39.0508,16.922 26.4678,13.0169 23.4305,64.2169 23.8644,71.5932 26.9017,81.139 29.939,84.6102 37.3153,89.8169 48.1627,91.5525 59.4441,91.9864 70.7254,91.5525 83.7424,85.0441 94.1559,73.7627 102.8339,45.5593 102.4,30.3729" stroke="#0000fe" stroke-width="2" /><polyline fill="none" points="82.8746,59.878 87.6475,56.8407 115.4169,47.2949" stroke="#0060ff" stroke-width="2" /><polyline fill="none" points="85.478,62.0475 111.9458,66.3864 119.322,68.9898" stroke="#00d4ff" stroke-width="2" /><polyline fill="none" points="83.7424,57.2746 106.3051,36.8814" stroke="#4cffaa" stroke-width="2" /><polyline fill="none" points="84.6102,43.3898 81.139,45.5593" stroke="#aaff4c" stroke-width="2" /><polyline fill="none" points="59.878,42.9559 49.8983,44.2576" stroke="#ffe500" stroke-width="2" /><polyline fill="none" points="46.4271,55.1051 34.278,51.6339 8.678,49.0305" stroke="#ff7a00" stroke-width="2" /><polyline fill="none" points="48.1627,55.9729 15.6203,75.9322" stroke="#fe1200" stroke-width="2" /><polyline fill="none" points="49.0305,62.4814 49.0305,62.4814" stroke="#7f0000" stroke-width="2" /></svg>