<?xml version="1.0" encoding="utf-8" ?>
<svg baseProfile="tiny" height="128" version="1.2" viewBox="0,0,128,128" width="128" xmlns="http://www.w3.org/2000/svg" xmlns:ev="http://www.w3.org/2001/xml-events" xmlns:xlink="http://www.w3.org/1999/xlink"><defs /><polyline fill="none" points="29.939,29.939 24.7322,31.2407 19.0915,36.0136 12.5831,43.3898 9.1119,51.2 9.1119,63.7831 14.3186,71.1593 22.9966,75.9322 32.5424,78.1017 39.9186,77.6678 42.9559,76.3661" stroke="#00007f" stroke-width="2" /><polyline fill="none" points="39.4847,49.0305 33.8441,57.2746 32.9763,64.2169 36.0136,64.6508 37.7492,62.9153 40.7864,50.3322 41.6542,54.6712 45.9932,62.0475 49.0305,63.7831 52.5017,63.3492" stroke="#0000de" stroke-width="2" /><polyline fill="none" points="57.2746,29.0712 61.6136,45.9932 66.3864,54.6712" stroke="#0028ff" stroke-width="2" /><polyline fill="none" points="68.9898,34.278 53.8034,44.2576" stroke="#0080ff" stroke-width="2" /><polyline fill="none" points="13.0169,24.2983 17.3559,13.8847 30.8068,22.5627" stroke="#00d4ff" stroke-width="2" /><polyline fill="none" points="43.3898,16.4881 45.1254,9.9797 47.2949,8.678 53.8034,16.922 56.8407,18.6576" stroke="#36ffc0" stroke-width="2" /><polyline fill="none" points="49.0305,84.1763 58.1424,82.8746 55.539,92.4203 48.1627,86.3458" stroke="#7cff79" stroke-width="2" /><polyline fill="none" points="57.7085,81.139 67.2542,74.6305 83.3085,69.4237" stroke="#c0ff36" stroke-width="2" /><polyline fill="none" points="60.7458,84.6102 82.0068,81.5729" stroke="#ffe500" stroke-width="2" /><polyline fill="none" points="62.9153,95.8915 85.0441,96.3254" stroke="#ff9400" stroke-width="2" /><polyline fill="none" points="33.8441,89.3831 26.0339,89.3831 8.678,92.8542" stroke="#ff4600" stroke-width="2" /><polyline fill="none" points="43.3898,92.4203 13.4508,106.3051" stroke="#de0000" stroke-width="2" /><polyline fill="none" points="44.6915,99.3627 19.5254,113.2475 11.7153,119.322" stroke="#7f0000" stroke-width="2" /></svg>