<?xml version="1.0" encoding="utf-8" ?>
<svg baseProfile="tiny" height="128" version="1.2" viewBox="0,0,128,128" width="128" xmlns="http://www.w3.org/2000/svg" xmlns:ev="http://www.w3.org/2001/xml-events" xmlns:xlink="http://www.w3.org/1999/xlink"><defs /><polyline fill="none" points="71.1593,42.522 57.7085,41.6542 44.2576,45.5593 30.3729,54.6712 29.0712,60.7458 37.3153,64.6508 51.2,67.2542 77.6678,67.2542 85.478,64.2169 93.2881,57.7085 94.1559,50.3322 88.5153,45.1254 80.7051,41.6542 73.3288,41.2203" stroke="#00007f" stroke-width="2" /><polyline fill="none" points="100.2305,25.6 93.2881,26.9017 88.9492,29.5051 83.7424,35.5797 82.8746,42.522 85.9119,45.5593 89.3831,45.9932 96.7593,45.9932 104.5695,43.3898 111.9458,35.1458 112.3797,29.0712 110.6441,26.4678 104.5695,23.8644 97.6271,23.8644 96.3254,25.6" stroke="#0000f1" stroke-width="2" /><polyline fill="none" points="83.3085,26.4678 86.3458,10.4136 88.9492,8.678 96.7593,21.6949" stroke="#004cff" stroke-width="2" /><polyline fill="none" points="109.3424,23.8644 110.2102,18.6576 117.1525,9.5458 119.322,12.5831 119.322,22.1288" stroke="#00b0ff" stroke-width="2" /><polyline fill="none" points="33.4102,53.8034 29.0712,55.1051 20.8271,55.1051 15.6203,51.6339 9.1119,37.7492 8.678,32.1085" stroke="#29ffcd" stroke-width="2" /><polyline fill="none" points="41.2203,68.9898 37.7492,71.1593 29.5051,83.7424" stroke="#7cff79" stroke-width="2" /><polyline fill="none" points="42.0881,68.9898 44.2576,84.6102" stroke="#cdff29" stroke-width="2" /><polyline fill="none" points="81.5729,71.1593 78.5356,72.8949 75.0644,77.2339 74.1966,81.5729" stroke="#ffc400" stroke-width="2" /><polyline fill="none" points="85.9119,65.9525 88.5153,75.9322 93.2881,85.478" stroke="#ff6700" stroke-width="2" /><polyline fill="none" points="101.0983,33.8441 98.9288,38.6169 93.722,39.0508" stroke="#f10700" stroke-width="2" /><polyline fill="none" points="103.7017,35.5797 105.0034,37.7492 110.2102,37.3153" stroke="#7f0000" stroke-width="2" /></svg>