<?xml version="1.0" encoding="utf-8" ?>
<svg baseProfile="tiny" height="128" version="1.2" viewBox="0,0,128,128" width="128" xmlns="http://www.w3.org/2000/svg" xmlns:ev="http://www.w3.org/2001/xml-events" xmlns:xlink="http://www.w3.org/1999/xlink"><defs /><polyline fill="none" points="63.3492,64.2169 72.461,59.4441 78.1017,51.6339 82.8746,34.278 85.478,19.0915 85.9119,8.678 72.461,20.8271 66.3864,28.2034 57.7085,34.278 37.7492,31.2407 22.9966,32.1085 22.5627,18.2237 19.5254,14.7525 9.9797,9.9797 8.678,41.6542 11.7153,53.8034 14.3186,59.0102 40.7864,64.2169 58.5763,63.3492" stroke="#00007f" stroke-width="2" /><polyline fill="none" points="72.0271,60.3119 89.8169,61.6136 100.2305,70.7254 105.8712,91.5525 102.4,100.6644 91.9864,106.3051 81.5729,109.3424 73.3288,108.4746 70.2915,107.6068 65.9525,103.7017 59.4441,101.9661 47.7288,89.3831 44.6915,72.8949" stroke="#0028ff" stroke-width="2" /><polyline fill="none" points="100.2305,74.6305 109.3424,57.2746 111.078,36.4475 110.6441,34.278 108.9085,33.4102" stroke="#00d4ff" stroke-width="2" /><polyline fill="none" points="94.5898,95.0237 92.8542,119.322" stroke="#7cff79" stroke-width="2" /><polyline fill="none" points="78.1017,107.6068 72.0271,119.322" stroke="#ffe500" stroke-width="2" /><polyline fill="none" points="51.2,99.3627 45.1254,113.6814" stroke="#ff4600" stroke-width="2" /><polyline fill="none" points="41.6542,84.6102 27.7695,97.6271" stroke="#7f0000" stroke-width="2" /></svg>