<?xml version="1.0" encoding="utf-8" ?>
<svg baseProfile="tiny" height="128" version="1.2" viewBox="0,0,128,128" width="128" xmlns="http://www.w3.org/2000/svg" xmlns:ev="http://www.w3.org/2001/xml-events" xmlns:xlink="http://www.w3.org/1999/xlink"><defs /><polyline fill="none" points="31.6746,45.9932 31.6746,14.3186 38.1831,23.4305 49.4644,32.9763 54.6712,26.0339 62.0475,9.5458 63.7831,8.678 73.7627,35.1458 73.7627,54.2373 72.461,61.6136 68.5559,70.7254 63.3492,74.6305 55.539,76.8 45.1254,76.8 41.2203,75.4983 36.4475,70.2915 29.939,57.7085 29.0712,43.8237" stroke="#00007f" stroke-width="2" /><polyline fill="none" points="44.2576,44.6915 44.2576,44.6915" stroke="#0010ff" stroke-width="2" /><polyline fill="none" points="42.9559,46.4271 42.0881,51.2" stroke="#00a4ff" stroke-width="2" /><polyline fill="none" points="55.9729,44.2576 55.9729,47.2949" stroke="#3fffb7" stroke-width="2" /><polyline fill="none" points="53.8034,59.0102 77.6678,44.2576 87.6475,39.4847 103.2678,37.3153 119.322,37.7492" stroke="#b7ff3f" stroke-width="2" /><polyline fill="none" points="55.539,59.4441 97.1932,59.4441 100.6644,60.7458" stroke="#ffb900" stroke-width="2" /><polyline fill="none" points="48.1627,59.4441 14.7525,59.4441 8.678,61.1797" stroke="#ff3000" stroke-width="2" /><polyline fill="none" points="45.1254,61.1797 42.522,66.8203 29.5051,83.3085" stroke="#7f0000" stroke-width="2" /></svg>