<?xml version="1.0" encoding="utf-8" ?>
<svg baseProfile="tiny" height="128" version="1.2" viewBox="0,0,128,128" width="128" xmlns="http://www.w3.org/2000/svg" xmlns:ev="http://www.w3.org/2001/xml-events" xmlns:xlink="http://www.w3.org/1999/xlink"><defs /><polyline fill="none" points="59.4441,116.2847 47.2949,119.322 34.7119,119.322 13.8847,109.7763 8.678,99.3627 8.678,83.7424 16.0542,70.7254 22.9966,63.7831 26.4678,61.6136 61.6136,61.6136 68.122,62.9153 79.4034,67.6881 83.7424,72.461 85.478,80.2712 85.9119,97.6271 82.4407,105.0034 72.461,114.1153 60.3119,117.5864 55.9729,117.1525" stroke="#00007f" stroke-width="2" /><polyline fill="none" points="18.2237,66.3864 16.0542,26.9017 25.1661,35.1458 35.5797,55.1051 39.0508,58.1424" stroke="#00d4ff" stroke-width="2" /><polyline fill="none" points="62.4814,60.3119 72.461,30.8068 75.4983,11.2814 78.1017,8.678 83.7424,10.4136 85.9119,13.4508 87.6475,29.0712 86.7797,42.0881 80.7051,62.0475" stroke="#ffe500" stroke-width="2" /><polyline fill="none" points="29.5051,76.8 29.5051,76.8" stroke="#7f0000" stroke-width="2" /></svg>