<?xml version="1.0" encoding="utf-8" ?>
<svg baseProfile="tiny" height="128" version="1.2" viewBox="0,0,128,128" width="128" xmlns="http://www.w3.org/2000/svg" xmlns:ev="http://www.w3.org/2001/xml-events" xmlns:xlink="http://www.w3.org/1999/xlink"><defs /><polyline fill="none" points="60.3119,36.4475 42.9559,40.3525 18.2237,54.2373 19.5254,63.7831 24.2983,68.5559 36.4475,72.0271 60.7458,74.6305 85.0441,68.9898 95.0237,62.9153 92.4203,52.9356 87.2136,50.3322 77.6678,40.7864 64.2169,38.1831 56.4068,44.6915" stroke="#00007f" stroke-width="2" /><polyline fill="none" points="84.1763,50.3322 119.322,35.5797" stroke="#0000e8" stroke-width="2" /><polyline fill="none" points="95.8915,59.878 105.8712,65.5186" stroke="#0038ff" stroke-width="2" /><polyline fill="none" points="89.8169,71.1593 96.3254,75.4983" stroke="#0094ff" stroke-width="2" /><polyline fill="none" points="87.6475,70.2915 81.5729,67.2542 74.1966,60.3119" stroke="#0cf4ea" stroke-width="2" /><polyline fill="none" points="22.5627,55.539 8.678,50.7661" stroke="#56ffa0" stroke-width="2" /><polyline fill="none" points="16.0542,64.2169 20.8271,61.1797" stroke="#a0ff56" stroke-width="2" /><polyline fill="none" points="22.5627,65.9525 13.4508,69.8576" stroke="#eaff0c" stroke-width="2" /><polyline fill="none" points="35.5797,42.9559 26.0339,21.6949 22.5627,9.9797 19.0915,8.678 13.8847,22.1288 13.4508,30.8068 16.4881,43.8237 22.1288,50.7661" stroke="#ffaa00" stroke-width="2" /><polyline fill="none" points="60.7458,34.7119 77.2339,17.3559 88.0814,13.0169 87.6475,22.5627 75.9322,40.3525" stroke="#ff5500" stroke-width="2" /><polyline fill="none" points="39.4847,48.1627 41.6542,50.3322 42.522,48.5966 41.2203,49.4644 39.9186,47.2949 41.6542,49.0305 42.9559,47.7288 41.6542,47.2949" stroke="#e80000" stroke-width="2" /><polyline fill="none" points="58.1424,45.9932 59.0102,48.1627 62.4814,46.861 60.3119,49.0305" stroke="#7f0000" stroke-width="2" /></svg>