<?xml version="1.0" encoding="utf-8" ?>
<svg baseProfile="tiny" height="128" version="1.2" viewBox="0,0,128,128" width="128" xmlns="http://www.w3.org/2000/svg" xmlns:ev="http://www.w3.org/2001/xml-events" xmlns:xlink="http://www.w3.org/1999/xlink"><defs /><polyline fill="none" points="54.2373,37.3153 45.9932,42.9559 36.8814,56.8407 32.9763,68.9898 31.6746,84.1763 34.7119,91.9864 44.6915,102.4 53.3695,106.739 63.7831,108.4746 74.1966,108.4746 85.0441,106.3051 99.3627,95.4576 105.8712,85.9119 108.0407,80.2712 109.7763,70.2915 109.7763,59.4441 105.8712,51.2 102.4,47.2949 95.0237,41.2203 85.478,36.8814 75.0644,34.7119 59.4441,34.7119 47.7288,37.3153" stroke="#00007f" stroke-width="2" /><polyline fill="none" points="94.5898,41.2203 95.8915,36.4475 114.1153,8.678 111.5119,24.2983 109.7763,52.9356 107.1729,61.1797" stroke="#0000fe" stroke-width="2" /><polyline fill="none" points="42.522,44.2576 19.0915,39.0508 8.678,39.4847 34.278,64.2169" stroke="#0060ff" stroke-width="2" /><polyline fill="none" points="11.7153,47.2949 12.1492,51.2 16.0542,58.5763 26.4678,71.1593 30.3729,74.1966" stroke="#00d4ff" stroke-width="2" /><polyline fill="none" points="115.8508,11.7153 118.8881,23.4305 119.322,42.9559 115.4169,63.7831 108.4746,78.1017" stroke="#4cffaa" stroke-width="2" /><polyline fill="none" points="20.8271,57.2746 22.5627,58.1424" stroke="#aaff4c" stroke-width="2" /><polyline fill="none" points="114.9831,36.4475 113.6814,44.2576" stroke="#ffe500" stroke-width="2" /><polyline fill="none" points="46.861,62.4814 48.5966,83.3085" stroke="#ff7a00" stroke-width="2" /><polyline fill="none" points="88.9492,56.4068 91.9864,78.1017" stroke="#fe1200" stroke-width="2" /><polyline fill="none" points="33.4102,71.1593 40.3525,62.0475 44.2576,59.878 49.8983,59.4441 57.2746,66.8203" stroke="#7f0000" stroke-width="2" /></svg>