<?xml version="1.0" encoding="utf-8" ?>
<svg baseProfile="tiny" height="128" version="1.2" viewBox="0,0,128,128" width="128" xmlns="http://www.w3.org/2000/svg" xmlns:ev="http://www.w3.org/2001/xml-events" xmlns:xlink="http://www.w3.org/1999/xlink"><defs /><polyline fill="none" points="41.7959,26.5578 41.7959,16.9796 44.8435,8.7075 53.551,21.7687 74.0136,24.8163 76.1905,10.0136 86.6395,23.5102 90.5578,38.3129 90.1224,45.7143 83.1565,54.8571 74.449,57.9048 63.1293,56.5986 54.4218,53.1156 44.8435,45.7143 40.9252,38.3129 41.7959,29.1701" stroke="#00007f" stroke-width="2" /><polyline fill="none" points="50.068,30.4762 47.8912,34.3946 49.6327,36.1361 56.1633,35.7007 57.4694,33.5238 55.2925,30.9116 49.6327,30.0408" stroke="#0000e8" stroke-width="2" /><polyline fill="none" points="50.9388,30.0408 52.6803,35.7007" stroke="#0038ff" stroke-width="2" /><polyline fill="none" points="79.6735,30.4762 74.0136,31.3469 71.4014,33.5238 70.966,37.0068 74.0136,40.0544 77.4966,40.0544 80.5442,37.4422 81.415,33.9592 79.2381,30.4762" stroke="#0094ff" stroke-width="2" /><polyline fill="none" points="78.3673,30.0408 72.7075,40.9252" stroke="#0cf4ea" stroke-width="2" /><polyline fill="none" points="42.2313,28.7347 28.2993,30.0408 8.7075,37.0068 24.381,40.4898" stroke="#56ffa0" stroke-width="2" /><polyline fill="none" points="32.6531,42.2313 36.1361,42.2313 29.6054,52.2449" stroke="#a0ff56" stroke-width="2" /><polyline fill="none" points="43.102,43.9728 43.102,62.6939 46.1497,60.0816" stroke="#eaff0c" stroke-width="2" /><polyline fill="none" points="106.6667,35.7007 119.2925,35.2653" stroke="#ffaa00" stroke-width="2" /><polyline fill="none" points="95.3469,43.9728 108.8435,48.7619" stroke="#ff5500" stroke-width="2" /><polyline fill="none" points="79.6735,59.6463 100.1361,64.4354" stroke="#e80000" stroke-width="2" /><polyline fill="none" points="52.6803,57.9048 45.7143,62.6939 43.102,67.0476 42.6667,72.2721 43.9728,77.0612 47.8912,84.4626 53.551,86.2041 62.2585,85.7687 70.5306,83.1565 93.6054,71.4014 95.3469,65.7415 90.5578,59.6463 80.5442,57.4694 74.8844,58.7755" stroke="#7f0000" stroke-width="2" /></svg>