<?xml version="1.0" encoding="utf-8" ?>
<svg baseProfile="tiny" height="128" version="1.2" viewBox="0,0,128,128" width="128" xmlns="http://www.w3.org/2000/svg" xmlns:ev="http://www.w3.org/2001/xml-events" xmlns:xlink="http://www.w3.org/1999/xlink"><defs /><polyline fill="none" points="8.678,35.5797 13.0169,13.0169 15.6203,9.9797 23.4305,12.1492 30.8068,16.4881 45.9932,32.1085" stroke="#00007f" stroke-width="2" /><polyline fill="none" points="18.6576,37.7492 22.1288,23.4305 24.2983,23.4305 31.6746,29.0712" stroke="#0000e8" stroke-width="2" /><polyline fill="none" points="80.2712,31.6746 82.8746,22.1288 88.9492,8.678 101.0983,31.6746" stroke="#0038ff" stroke-width="2" /><polyline fill="none" points="91.5525,32.9763 91.9864,28.6373 96.3254,33.8441" stroke="#0094ff" stroke-width="2" /><polyline fill="none" points="49.4644,45.9932 40.3525,60.7458 39.0508,65.9525 39.0508,68.9898 41.6542,72.0271 48.5966,75.4983 55.9729,73.7627 65.0847,66.3864 66.8203,59.0102 62.0475,49.4644" stroke="#0cf4ea" stroke-width="2" /><polyline fill="none" points="89.8169,48.5966 85.9119,55.539 84.6102,62.9153 85.9119,68.5559 92.4203,76.8 98.061,75.4983 104.5695,68.9898 106.739,61.1797 105.8712,55.9729 102.8339,50.3322" stroke="#56ffa0" stroke-width="2" /><polyline fill="none" points="59.878,97.6271 66.3864,102.8339 72.8949,104.5695 88.5153,95.4576 95.4576,99.3627 99.7966,98.9288 108.0407,90.6847" stroke="#a0ff56" stroke-width="2" /><polyline fill="none" points="88.9492,94.1559 86.7797,86.3458 94.1559,85.0441 96.7593,82.4407 95.8915,74.6305 93.2881,70.7254 84.1763,62.4814 81.5729,68.122 82.8746,74.6305 89.8169,78.9695" stroke="#eaff0c" stroke-width="2" /><polyline fill="none" points="47.2949,75.9322 26.0339,82.4407" stroke="#ffaa00" stroke-width="2" /><polyline fill="none" points="59.878,93.722 29.0712,99.3627" stroke="#ff5500" stroke-width="2" /><polyline fill="none" points="107.1729,65.9525 119.322,63.3492" stroke="#e80000" stroke-width="2" /><polyline fill="none" points="104.5695,91.5525 113.2475,87.6475" stroke="#7f0000" stroke-width="2" /></svg>