<?xml version="1.0" encoding="utf-8" ?>
<svg baseProfile="tiny" height="128" version="1.2" viewBox="0,0,128,128" width="128" xmlns="http://www.w3.org/2000/svg" xmlns:ev="http://www.w3.org/2001/xml-events" xmlns:xlink="http://www.w3.org/1999/xlink"><defs /><polyline fill="none" points="63.3492,84.6102 58.5763,91.9864 58.5763,94.1559 61.1797,94.1559 62.4814,91.9864 60.7458,91.1186 59.4441,92.8542 61.1797,93.2881 64.2169,89.8169 62.4814,89.3831 61.1797,91.1186" stroke="#00007f" stroke-width="2" /><polyline fill="none" points="47.2949,62.0475 45.5593,62.9153 43.8237,71.1593 45.1254,72.8949 48.5966,72.461 51.6339,64.6508 49.4644,62.0475 42.522,62.4814 40.7864,69.8576 44.6915,72.461 49.8983,72.461 51.6339,64.6508 48.1627,64.6508 43.8237,66.8203 42.522,72.8949 45.1254,74.6305 47.2949,74.1966 50.7661,68.9898 51.2,67.2542 48.1627,69.4237" stroke="#0000d1" stroke-width="2" /><polyline fill="none" points="82.4407,65.5186 70.7254,68.5559 71.1593,73.3288 75.4983,73.7627 77.6678,73.3288 80.2712,67.2542 77.2339,65.9525 72.0271,67.6881 71.1593,71.5932 72.461,73.3288 75.4983,72.8949 81.5729,69.8576 83.7424,65.0847 78.5356,64.2169 76.3661,66.3864" stroke="#0010ff" stroke-width="2" /><polyline fill="none" points="59.878,85.478 68.5559,85.478 68.9898,87.6475 65.9525,93.722 63.7831,96.3254 61.6136,96.7593 56.4068,89.3831 54.2373,90.6847 53.8034,93.2881 54.6712,92.4203" stroke="#0058ff" stroke-width="2" /><polyline fill="none" points="78.9695,48.1627 81.139,37.7492 87.6475,29.0712 101.0983,16.4881 115.8508,8.678 117.5864,9.9797 117.5864,12.1492 116.2847,26.9017 110.2102,44.2576 103.2678,52.5017" stroke="#00a4ff" stroke-width="2" /><polyline fill="none" points="56.4068,45.9932 51.6339,35.5797 44.2576,30.8068 29.939,23.8644 18.2237,22.1288 17.3559,29.5051 19.5254,55.1051 22.1288,60.3119 27.3356,64.2169" stroke="#05ecf1" stroke-width="2" /><polyline fill="none" points="60.3119,49.4644 73.7627,49.0305 79.8373,51.2" stroke="#3fffb7" stroke-width="2" /><polyline fill="none" points="31.6746,68.9898 30.8068,79.4034 33.8441,91.9864 38.1831,98.061 45.1254,102.4 48.5966,106.739 56.8407,110.6441" stroke="#7cff79" stroke-width="2" /><polyline fill="none" points="101.9661,56.4068 101.9661,67.6881 98.061,86.7797 91.5525,96.3254 86.7797,101.0983 72.8949,107.6068" stroke="#b7ff3f" stroke-width="2" /><polyline fill="none" points="70.2915,83.7424 85.478,82.0068 119.322,69.4237" stroke="#f1fc05" stroke-width="2" /><polyline fill="none" points="64.6508,92.8542 72.8949,88.9492 115.8508,78.5356" stroke="#ffb900" stroke-width="2" /><polyline fill="none" points="74.1966,94.5898 86.7797,91.5525 97.6271,91.1186 118.0203,95.0237" stroke="#ff7300" stroke-width="2" /><polyline fill="none" points="58.5763,83.7424 26.0339,86.3458 8.678,85.9119" stroke="#ff3000" stroke-width="2" /><polyline fill="none" points="53.8034,95.8915 30.8068,93.722 14.7525,95.0237" stroke="#d10000" stroke-width="2" /><polyline fill="none" points="64.2169,95.0237 63.3492,96.7593 57.7085,99.3627 16.4881,115.4169" stroke="#7f0000" stroke-width="2" /></svg>