<?xml version="1.0" encoding="utf-8" ?>
<svg baseProfile="tiny" height="128" version="1.2" viewBox="0,0,128,128" width="128" xmlns="http://www.w3.org/2000/svg" xmlns:ev="http://www.w3.org/2001/xml-events" xmlns:xlink="http://www.w3.org/1999/xlink"><defs /><polyline fill="none" points="48.5966,32.5424 49.8983,16.4881 53.3695,12.1492 55.1051,12.1492 57.7085,16.0542 61.6136,32.1085" stroke="#00007f" stroke-width="2" /><polyline fill="none" points="73.7627,28.2034 82.0068,8.678 85.478,34.278" stroke="#0000ff" stroke-width="2" /><polyline fill="none" points="64.2169,43.8237 61.1797,49.8983 72.8949,49.8983 68.122,45.5593 61.1797,42.9559" stroke="#0080ff" stroke-width="2" /><polyline fill="none" points="47.7288,45.5593 8.678,33.8441" stroke="#15ffe1" stroke-width="2" /><polyline fill="none" points="47.2949,48.1627 24.7322,45.5593" stroke="#7cff79" stroke-width="2" /><polyline fill="none" points="81.139,46.4271 103.7017,44.6915 119.322,45.1254" stroke="#e4ff12" stroke-width="2" /><polyline fill="none" points="86.7797,51.2 101.9661,51.6339" stroke="#ff9400" stroke-width="2" /><polyline fill="none" points="49.8983,36.4475 48.1627,49.4644 49.8983,57.2746 56.4068,62.9153 68.122,64.2169 78.1017,61.1797 85.478,56.8407 89.8169,52.5017 92.4203,45.5593 91.9864,39.4847 85.9119,32.9763 80.2712,31.6746 74.1966,33.4102" stroke="#ff1d00" stroke-width="2" /><polyline fill="none" points="65.9525,50.3322 65.9525,52.9356 64.2169,54.6712 57.2746,54.6712 55.539,53.3695 55.1051,49.8983" stroke="#7f0000" stroke-width="2" /></svg>