<?xml version="1.0" encoding="utf-8" ?>
<svg baseProfile="tiny" height="128" version="1.2" viewBox="0,0,128,128" width="128" xmlns="http://www.w3.org/2000/svg" xmlns:ev="http://www.w3.org/2001/xml-events" xmlns:xlink="http://www.w3.org/1999/xlink"><defs /><polyline fill="none" points="16.4881,39.9186 24.2983,29.5051 32.1085,13.0169 32.9763,8.678 42.0881,28.6373 45.9932,46.4271 48.1627,47.2949 75.4983,39.4847 81.5729,22.1288 83.7424,11.2814 86.7797,12.1492 99.3627,29.939 106.3051,48.1627 111.5119,56.8407 114.1153,69.4237 114.1153,80.7051 102.4,95.4576 87.2136,105.8712 79.8373,108.4746 73.7627,108.0407 68.5559,106.3051 43.3898,94.1559 34.7119,87.6475 22.5627,74.6305 13.8847,59.0102 13.4508,50.7661 22.5627,39.9186" stroke="#00007f" stroke-width="2" /><polyline fill="none" points="56.8407,80.7051 10.8475,86.7797" stroke="#0028ff" stroke-width="2" /><polyline fill="none" points="49.4644,69.8576 8.678,69.8576" stroke="#00d4ff" stroke-width="2" /><polyline fill="none" points="78.1017,72.0271 98.9288,66.8203 111.5119,66.3864" stroke="#7cff79" stroke-width="2" /><polyline fill="none" points="83.7424,78.1017 119.322,69.8576" stroke="#ffe500" stroke-width="2" /><polyline fill="none" points="47.7288,52.9356 45.9932,52.9356 45.1254,56.4068 50.3322,59.878 55.539,54.6712 52.9356,52.0678" stroke="#ff4600" stroke-width="2" /><polyline fill="none" points="72.0271,53.8034 69.8576,54.2373 69.4237,55.9729 71.5932,57.2746 76.8,57.2746 77.6678,55.1051 75.4983,52.9356 69.4237,52.0678" stroke="#7f0000" stroke-width="2" /></svg>