<?xml version="1.0" encoding="utf-8" ?>
<svg baseProfile="tiny" height="128" version="1.2" viewBox="0,0,128,128" width="128" xmlns="http://www.w3.org/2000/svg" xmlns:ev="http://www.w3.org/2001/xml-events" xmlns:xlink="http://www.w3.org/1999/xlink"><defs /><polyline fill="none" points="88.5153,57.7085 88.9492,43.8237 91.9864,37.3153 98.4949,32.1085 108.9085,32.1085 115.4169,41.6542 118.0203,49.4644 119.322,56.4068 118.0203,62.4814 115.4169,65.9525 109.3424,69.8576 74.6305,81.139 50.3322,81.5729 27.7695,81.139 13.0169,78.5356 9.9797,77.2339 8.678,74.1966 8.678,66.8203 13.0169,57.2746 15.6203,54.2373 18.6576,52.9356 52.0678,53.3695 59.0102,55.9729 79.8373,59.0102 95.8915,56.4068" stroke="#00007f" stroke-width="2" /><polyline fill="none" points="88.0814,38.1831 79.8373,28.6373 73.3288,18.6576 82.8746,17.3559 91.5525,19.9593 96.3254,29.5051 99.3627,27.7695 111.9458,8.678 114.9831,10.8475 116.2847,26.4678 112.3797,32.9763 108.0407,36.4475" stroke="#0080ff" stroke-width="2" /><polyline fill="none" points="107.1729,48.1627 107.1729,45.1254 110.2102,43.3898 108.4746,45.1254" stroke="#7cff79" stroke-width="2" /><polyline fill="none" points="12.5831,75.4983 13.0169,91.1186 15.6203,101.9661 21.261,114.9831 24.7322,114.1153 28.2034,106.739 30.8068,97.1932 31.2407,83.7424 33.4102,75.9322" stroke="#ff9400" stroke-width="2" /><polyline fill="none" points="84.6102,77.2339 88.9492,84.1763 98.4949,109.7763 101.9661,111.078 104.5695,109.3424 106.739,102.4 106.739,95.8915 91.5525,69.8576" stroke="#7f0000" stroke-width="2" /></svg>