<?xml version="1.0" encoding="utf-8" ?>
<svg baseProfile="tiny" height="128" version="1.2" viewBox="0,0,128,128" width="128" xmlns="http://www.w3.org/2000/svg" xmlns:ev="http://www.w3.org/2001/xml-events" xmlns:xlink="http://www.w3.org/1999/xlink"><defs /><polyline fill="none" points="55.539,70.2915 57.2746,54.2373 59.4441,47.2949 61.1797,45.9932 66.3864,45.5593 82.4407,45.5593 84.1763,46.861 86.3458,59.878 86.3458,70.2915 90.6847,50.7661 93.722,44.2576 101.0983,38.1831 112.8136,36.0136 118.4542,28.6373 119.322,22.5627 118.0203,20.8271 111.078,19.0915 105.4373,20.3932 100.6644,24.2983 96.7593,31.6746 96.7593,37.3153 98.4949,39.9186" stroke="#00007f" stroke-width="2" /><polyline fill="none" points="101.5322,23.4305 101.5322,9.5458 105.8712,15.1864 106.739,18.6576" stroke="#00d4ff" stroke-width="2" /><polyline fill="none" points="110.6441,18.6576 114.1153,12.5831 118.4542,8.678 118.4542,21.261" stroke="#ffe500" stroke-width="2" /><polyline fill="none" points="98.9288,39.0508 96.3254,39.0508 79.4034,32.9763 70.7254,32.5424 62.0475,34.7119 55.1051,38.1831 32.5424,40.7864 18.2237,47.7288 12.5831,52.5017 8.678,60.3119 16.0542,61.1797 36.4475,52.9356 40.7864,49.4644 45.5593,41.6542 48.5966,39.9186 48.5966,71.5932" stroke="#7f0000" stroke-width="2" /></svg>