<?xml version="1.0" encoding="utf-8" ?>
<svg baseProfile="tiny" height="128" version="1.2" viewBox="0,0,128,128" width="128" xmlns="http://www.w3.org/2000/svg" xmlns:ev="http://www.w3.org/2001/xml-events" xmlns:xlink="http://www.w3.org/1999/xlink"><defs /><polyline fill="none" points="50.3322,32.9763 41.2203,36.4475 31.6746,51.2 26.9017,66.3864 28.2034,75.4983 38.1831,86.7797 45.1254,91.9864 52.9356,95.4576 70.7254,97.1932 78.5356,93.722 84.6102,88.0814 90.2508,80.2712 92.4203,71.5932 92.8542,53.3695 90.6847,45.9932 78.9695,35.5797 72.461,33.4102 57.7085,32.5424" stroke="#00007f" stroke-width="2" /><polyline fill="none" points="34.7119,53.8034 31.2407,54.2373 23.8644,49.8983 15.1864,39.9186 8.678,29.0712 8.678,27.3356 13.8847,28.2034 26.0339,35.5797 31.6746,36.8814" stroke="#00d4ff" stroke-width="2" /><polyline fill="none" points="81.139,26.4678 90.6847,8.678 97.6271,50.3322" stroke="#ffe500" stroke-width="2" /><polyline fill="none" points="52.0678,119.322 55.1051,114.5492 57.7085,113.6814" stroke="#7f0000" stroke-width="2" /></svg>