<?xml version="1.0" encoding="utf-8" ?>
<svg baseProfile="tiny" height="128" version="1.2" viewBox="0,0,128,128" width="128" xmlns="http://www.w3.org/2000/svg" xmlns:ev="http://www.w3.org/2001/xml-events" xmlns:xlink="http://www.w3.org/1999/xlink"><defs /><polyline fill="none" points="91.5525,42.0881 67.2542,38.1831 51.6339,38.1831 31.2407,45.1254 26.9017,49.0305 22.1288,59.4441 20.8271,75.4983 25.6,78.1017 59.4441,86.7797 80.2712,90.6847 99.3627,90.2508 117.1525,82.4407 118.8881,79.8373 119.322,74.6305 116.7186,58.1424 112.3797,49.4644 101.9661,39.4847 84.1763,41.2203 85.0441,39.4847 83.7424,34.278 83.7424,25.6 89.3831,8.678 90.6847,11.2814 92.4203,24.7322 97.6271,37.3153" stroke="#00007f" stroke-width="2" /><polyline fill="none" points="37.3153,40.7864 37.3153,38.6169 27.7695,22.5627 18.2237,14.3186 9.5458,9.9797 8.678,12.1492 13.8847,26.0339 23.8644,47.7288" stroke="#0080ff" stroke-width="2" /><polyline fill="none" points="51.2,49.0305 49.0305,49.4644 47.7288,52.9356 52.9356,56.4068 56.8407,56.4068 56.4068,54.2373 49.0305,51.2 46.4271,48.5966" stroke="#7cff79" stroke-width="2" /><polyline fill="none" points="87.6475,49.0305 84.1763,49.4644 83.3085,52.9356 85.0441,55.1051 86.3458,56.4068 88.5153,56.4068 90.2508,51.6339" stroke="#ff9400" stroke-width="2" /><polyline fill="none" points="64.6508,61.1797 64.6508,68.9898 65.5186,65.5186 72.461,64.2169 63.7831,61.1797 44.6915,63.7831 32.9763,67.6881 41.6542,68.122 50.7661,65.5186 64.6508,65.5186" stroke="#7f0000" stroke-width="2" /></svg>