<?xml version="1.0" encoding="utf-8" ?>
<svg baseProfile="tiny" height="128" version="1.2" viewBox="0,0,128,128" width="128" xmlns="http://www.w3.org/2000/svg" xmlns:ev="http://www.w3.org/2001/xml-events" xmlns:xlink="http://www.w3.org/1999/xlink"><defs /><polyline fill="none" points="58.5763,20.3932 38.1831,23.8644 29.5051,34.7119 25.1661,45.5593 25.1661,50.7661 26.0339,55.1051 31.2407,62.9153 45.5593,79.4034 53.3695,85.0441 61.1797,86.7797 70.7254,86.7797 82.4407,82.0068 91.1186,76.3661 94.1559,73.7627 99.3627,62.9153 102.4,46.861 101.0983,42.9559 96.3254,38.1831 80.2712,28.6373 64.6508,22.1288 52.5017,19.9593" stroke="#00007f" stroke-width="2" /><polyline fill="none" points="69.8576,20.8271 85.478,8.678 85.478,16.0542 82.0068,28.2034" stroke="#0010ff" stroke-width="2" /><polyline fill="none" points="40.3525,20.8271 32.9763,14.3186 23.4305,10.4136 23.4305,14.3186 31.6746,31.2407" stroke="#00a4ff" stroke-width="2" /><polyline fill="none" points="47.2949,51.2 16.4881,54.6712" stroke="#3fffb7" stroke-width="2" /><polyline fill="none" points="47.7288,61.6136 26.9017,69.8576 8.678,78.9695" stroke="#b7ff3f" stroke-width="2" /><polyline fill="none" points="50.3322,72.0271 25.1661,83.7424" stroke="#ffb900" stroke-width="2" /><polyline fill="none" points="85.0441,51.2 101.0983,49.8983 119.322,44.6915" stroke="#ff3000" stroke-width="2" /><polyline fill="none" points="87.2136,55.1051 87.2136,55.1051" stroke="#7f0000" stroke-width="2" /></svg>