<?xml version="1.0" encoding="utf-8" ?>
<svg baseProfile="tiny" height="128" version="1.2" viewBox="0,0,128,128" width="128" xmlns="http://www.w3.org/2000/svg" xmlns:ev="http://www.w3.org/2001/xml-events" xmlns:xlink="http://www.w3.org/1999/xlink"><defs /><polyline fill="none" points="22.9966,39.9186 18.6576,41.2203 13.4508,48.5966 10.4136,62.4814 10.8475,89.3831 13.8847,97.6271 21.261,107.1729 28.6373,112.3797 35.1458,114.1153 53.8034,118.0203 61.6136,118.0203 79.4034,112.3797 86.7797,108.4746 99.7966,97.6271 108.0407,86.3458 109.7763,77.2339 109.3424,60.7458 106.3051,50.3322 101.5322,44.2576 95.0237,39.9186 71.5932,35.1458 35.1458,35.5797 26.4678,38.1831 17.7898,43.3898 8.678,52.5017" stroke="#00007f" stroke-width="2" /><polyline fill="none" points="19.5254,39.4847 15.1864,31.6746 13.4508,19.5254 18.2237,11.2814 25.6,8.678 30.3729,9.5458 39.0508,19.0915 43.3898,29.0712 44.6915,35.5797" stroke="#0000f1" stroke-width="2" /><polyline fill="none" points="87.6475,36.8814 102.4,10.4136 104.5695,9.1119 108.9085,9.5458 117.5864,17.7898 118.8881,21.6949 119.322,32.9763 113.6814,41.6542 105.8712,45.9932" stroke="#004cff" stroke-width="2" /><polyline fill="none" points="15.6203,61.6136 19.9593,64.6508 29.5051,68.122 39.4847,70.7254" stroke="#00b0ff" stroke-width="2" /><polyline fill="none" points="13.8847,83.3085 29.939,77.6678 39.0508,72.461" stroke="#29ffcd" stroke-width="2" /><polyline fill="none" points="23.4305,98.4949 41.6542,68.122" stroke="#7cff79" stroke-width="2" /><polyline fill="none" points="67.2542,74.6305 98.4949,73.7627 118.0203,70.7254" stroke="#cdff29" stroke-width="2" /><polyline fill="none" points="74.6305,76.8 98.4949,86.3458" stroke="#ffc400" stroke-width="2" /><polyline fill="none" points="73.7627,79.4034 82.0068,100.2305 88.0814,108.4746 91.9864,111.5119 92.8542,109.7763" stroke="#ff6700" stroke-width="2" /><polyline fill="none" points="77.2339,54.2373 71.5932,52.9356 68.122,56.4068 68.5559,59.0102 74.1966,62.4814 76.3661,61.1797 76.8,56.8407" stroke="#f10700" stroke-width="2" /><polyline fill="none" points="45.5593,48.5966 43.3898,49.4644 41.2203,53.3695 41.6542,56.8407 44.2576,58.5763 47.7288,58.5763 49.8983,56.4068 51.6339,49.8983" stroke="#7f0000" stroke-width="2" /></svg>