<?xml version="1.0" encoding="utf-8" ?>
<svg baseProfile="tiny" height="128" version="1.2" viewBox="0,0,128,128" width="128" xmlns="http://www.w3.org/2000/svg" xmlns:ev="http://www.w3.org/2001/xml-events" xmlns:xlink="http://www.w3.org/1999/xlink"><defs /><polyline fill="none" points="52.5017,30.8068 51.2,25.1661 42.0881,19.9593 33.4102,19.5254 24.2983,23.4305" stroke="#00007f" stroke-width="2" /><polyline fill="none" points="61.6136,35.1458 58.5763,22.1288 52.5017,8.678 49.8983,9.9797 49.4644,19.0915" stroke="#0000ff" stroke-width="2" /><polyline fill="none" points="24.2983,18.2237 21.6949,16.4881 17.3559,9.1119 15.6203,12.1492 15.6203,25.1661" stroke="#0080ff" stroke-width="2" /><polyline fill="none" points="15.6203,22.9966 13.8847,30.3729 9.5458,38.1831 10.4136,40.7864 8.678,45.5593 11.2814,45.5593 10.4136,47.7288 12.1492,49.8983" stroke="#15ffe1" stroke-width="2" /><polyline fill="none" points="57.7085,35.1458 59.4441,42.0881 56.8407,42.522 57.7085,47.2949 50.7661,51.6339" stroke="#7cff79" stroke-width="2" /><polyline fill="none" points="43.8237,36.0136 40.7864,35.5797 39.0508,37.7492 39.4847,39.9186 42.0881,40.3525 44.6915,37.3153" stroke="#e4ff12" stroke-width="2" /><polyline fill="none" points="26.4678,37.7492 28.2034,35.1458 26.0339,33.8441 24.7322,36.0136 25.1661,38.6169 29.939,40.3525" stroke="#ff9400" stroke-width="2" /><polyline fill="none" points="30.8068,42.522 29.939,45.5593" stroke="#ff1d00" stroke-width="2" /><polyline fill="none" points="50.7661,50.7661 59.878,63.7831 67.2542,80.7051 70.2915,98.9288 71.1593,119.322" stroke="#7f0000" stroke-width="2" /></svg>