<?xml version="1.0" encoding="utf-8" ?>
<svg baseProfile="tiny" height="128" version="1.2" viewBox="0,0,128,128" width="128" xmlns="http://www.w3.org/2000/svg" xmlns:ev="http://www.w3.org/2001/xml-events" xmlns:xlink="http://www.w3.org/1999/xlink"><defs /><polyline fill="none" points="65.9525,8.678 28.6373,8.678 16.4881,11.7153" stroke="#00007f" stroke-width="2" /><polyline fill="none" points="28.6373,9.5458 18.2237,9.1119 8.678,19.5254 9.5458,29.0712 17.3559,43.8237 22.9966,49.0305 29.939,50.7661 46.861,51.2 69.8576,48.1627 87.6475,44.6915 93.722,41.6542 98.061,37.3153 100.2305,32.9763 101.0983,15.6203 98.9288,12.1492 94.5898,9.5458 86.7797,8.678 67.2542,10.4136 52.9356,15.1864 49.0305,17.7898" stroke="#0000d1" stroke-width="2" /><polyline fill="none" points="97.1932,16.0542 112.8136,11.2814 118.0203,11.7153 119.322,15.1864 119.322,34.278 117.1525,39.0508 114.1153,41.2203 107.1729,42.522 100.2305,42.522 98.061,40.7864 96.3254,35.5797" stroke="#0010ff" stroke-width="2" /><polyline fill="none" points="113.2475,19.9593 114.9831,19.9593" stroke="#0058ff" stroke-width="2" /><polyline fill="none" points="110.2102,37.7492 110.2102,37.7492" stroke="#00a4ff" stroke-width="2" /><polyline fill="none" points="112.3797,21.6949 105.4373,32.9763 105.4373,36.4475" stroke="#05ecf1" stroke-width="2" /><polyline fill="none" points="65.9525,47.7288 69.8576,52.5017 72.461,60.7458" stroke="#3fffb7" stroke-width="2" /><polyline fill="none" points="60.7458,43.8237 60.7458,52.9356 63.7831,73.7627" stroke="#7cff79" stroke-width="2" /><polyline fill="none" points="75.0644,52.9356 75.4983,61.1797 73.3288,73.7627" stroke="#b7ff3f" stroke-width="2" /><polyline fill="none" points="67.6881,68.122 72.461,68.9898 77.6678,72.8949" stroke="#f1fc05" stroke-width="2" /><polyline fill="none" points="32.9763,52.5017 34.278,64.2169" stroke="#ffb900" stroke-width="2" /><polyline fill="none" points="42.522,51.2 44.6915,63.3492" stroke="#ff7300" stroke-width="2" /><polyline fill="none" points="35.5797,66.3864 35.5797,77.6678" stroke="#ff3000" stroke-width="2" /><polyline fill="none" points="48.1627,63.3492 47.7288,78.1017 45.5593,80.2712 47.2949,85.0441 46.4271,86.7797 39.4847,87.6475 36.0136,85.0441 39.0508,78.1017" stroke="#d10000" stroke-width="2" /><polyline fill="none" points="79.8373,65.5186 77.6678,78.5356 73.7627,81.5729 61.1797,83.3085 59.0102,79.8373 60.3119,72.8949" stroke="#7f0000" stroke-width="2" /></svg>