<?xml version="1.0" encoding="utf-8" ?>
<svg baseProfile="tiny" height="128" version="1.2" viewBox="0,0,128,128" width="128" xmlns="http://www.w3.org/2000/svg" xmlns:ev="http://www.w3.org/2001/xml-events" xmlns:xlink="http://www.w3.org/1999/xlink"><defs /><polyline fill="none" points="59.4441,22.1288 51.6339,16.0542 45.9932,8.678 44.6915,17.3559 46.861,30.3729 42.522,45.5593 43.3898,64.2169 49.0305,72.461 72.8949,76.8 89.8169,74.6305 91.9864,71.5932 97.1932,59.4441 97.6271,49.8983 91.9864,36.4475 88.9492,33.4102 94.1559,22.1288 96.7593,9.1119 86.7797,14.7525 77.6678,23.8644 67.2542,19.9593 60.7458,22.1288" stroke="#00007f" stroke-width="2" /><polyline fill="none" points="52.9356,45.9932 41.6542,45.5593 8.678,53.3695" stroke="#0028ff" stroke-width="2" /><polyline fill="none" points="54.2373,50.7661 33.4102,55.1051 21.261,61.6136" stroke="#00d4ff" stroke-width="2" /><polyline fill="none" points="61.6136,65.5186 36.4475,73.7627 29.5051,77.6678" stroke="#7cff79" stroke-width="2" /><polyline fill="none" points="83.3085,49.0305 100.6644,44.6915 112.8136,45.5593" stroke="#ffe500" stroke-width="2" /><polyline fill="none" points="85.478,53.3695 98.061,54.2373 119.322,59.4441" stroke="#ff4600" stroke-width="2" /><polyline fill="none" points="82.4407,60.7458 94.5898,62.9153 111.5119,69.8576" stroke="#7f0000" stroke-width="2" /></svg>