<?xml version="1.0" encoding="utf-8" ?>
<svg baseProfile="tiny" height="128" version="1.2" viewBox="0,0,128,128" width="128" xmlns="http://www.w3.org/2000/svg" xmlns:ev="http://www.w3.org/2001/xml-events" xmlns:xlink="http://www.w3.org/1999/xlink"><defs /><polyline fill="none" points="69.8576,23.4305 73.7627,22.9966 77.6678,24.7322" stroke="#00007f" stroke-width="2" /><polyline fill="none" points="69.8576,23.4305 65.9525,21.261 64.2169,22.1288" stroke="#0000a8" stroke-width="2" /><polyline fill="none" points="64.6508,21.6949 64.2169,26.9017 67.2542,31.2407 70.7254,32.9763 78.9695,32.9763" stroke="#0000d5" stroke-width="2" /><polyline fill="none" points="76.8,24.7322 78.5356,21.6949 81.5729,21.6949 80.2712,31.2407" stroke="#0000ff" stroke-width="2" /><polyline fill="none" points="64.2169,28.6373 48.5966,27.3356 42.522,28.6373 40.7864,30.3729 41.2203,32.9763 45.9932,36.4475 65.0847,37.7492 73.3288,35.5797 74.1966,34.278 72.8949,32.1085" stroke="#001cff" stroke-width="2" /><polyline fill="none" points="68.9898,37.3153 69.4237,44.6915" stroke="#0044ff" stroke-width="2" /><polyline fill="none" points="68.9898,44.2576 69.8576,46.4271 67.2542,45.9932" stroke="#006cff" stroke-width="2" /><polyline fill="none" points="63.7831,37.3153 64.2169,45.5593" stroke="#0090ff" stroke-width="2" /><polyline fill="none" points="59.0102,38.1831 59.4441,43.8237 61.6136,46.861 56.4068,48.1627" stroke="#00b8ff" stroke-width="2" /><polyline fill="none" points="53.8034,36.8814 54.6712,41.2203" stroke="#00e0fa" stroke-width="2" /><polyline fill="none" points="49.8983,38.1831 49.8983,44.2576" stroke="#1cffda" stroke-width="2" /><polyline fill="none" points="50.3322,44.6915 51.6339,46.861 48.5966,47.7288" stroke="#3cffba" stroke-width="2" /><polyline fill="none" points="44.2576,35.5797 45.5593,43.3898" stroke="#5cff9a" stroke-width="2" /><polyline fill="none" points="40.7864,28.2034 33.8441,26.9017 28.2034,23.8644 27.3356,19.9593 30.3729,13.8847 23.8644,9.5458 13.8847,8.678 8.678,9.9797 13.0169,9.9797 21.261,14.3186 21.6949,16.0542 18.2237,19.5254 24.7322,25.1661 32.1085,28.6373 46.861,32.9763" stroke="#7cff79" stroke-width="2" /><polyline fill="none" points="70.2915,27.3356 70.7254,27.7695" stroke="#9aff5c" stroke-width="2" /><polyline fill="none" points="75.9322,27.3356 75.9322,29.5051" stroke="#baff3c" stroke-width="2" /><polyline fill="none" points="72.0271,31.6746 74.6305,32.1085" stroke="#daff1c" stroke-width="2" /><polyline fill="none" points="69.8576,22.9966 67.6881,19.9593" stroke="#faf000" stroke-width="2" /><polyline fill="none" points="68.5559,20.3932 65.9525,22.9966 65.5186,28.6373" stroke="#ffcb00" stroke-width="2" /><polyline fill="none" points="66.8203,22.9966 65.9525,27.3356 67.6881,29.0712" stroke="#ffa600" stroke-width="2" /><polyline fill="none" points="76.3661,23.8644 80.2712,21.261" stroke="#ff8500" stroke-width="2" /><polyline fill="none" points="78.5356,22.1288 79.8373,23.8644 79.4034,28.6373" stroke="#ff6000" stroke-width="2" /><polyline fill="none" points="79.8373,23.4305 79.4034,28.6373 76.3661,32.9763" stroke="#ff3b00" stroke-width="2" /><polyline fill="none" points="87.2136,26.0339 87.2136,30.3729 88.5153,27.7695 89.3831,28.2034 91.5525,26.4678 91.9864,29.0712" stroke="#ff1600" stroke-width="2" /><polyline fill="none" points="93.2881,27.7695 95.0237,28.6373 96.7593,26.9017 95.4576,26.4678 94.1559,27.7695 94.1559,30.8068" stroke="#d50000" stroke-width="2" /><polyline fill="none" points="100.2305,29.0712 99.3627,27.7695 98.061,31.2407 100.6644,29.939 101.0983,28.2034 99.7966,28.6373" stroke="#a80000" stroke-width="2" /><polyline fill="none" points="103.7017,28.2034 104.5695,31.2407 108.0407,29.0712 111.5119,30.8068 119.322,22.1288" stroke="#7f0000" stroke-width="2" /></svg>