<?xml version="1.0" encoding="utf-8" ?>
<svg baseProfile="tiny" height="128" version="1.2" viewBox="0,0,128,128" width="128" xmlns="http://www.w3.org/2000/svg" xmlns:ev="http://www.w3.org/2001/xml-events" xmlns:xlink="http://www.w3.org/1999/xlink"><defs /><polyline fill="none" points="19.0915,90.2508 18.6576,49.0305 15.6203,36.0136 8.678,18.6576 15.1864,17.3559 22.5627,18.2237 32.9763,40.3525 37.3153,37.3153 44.6915,35.5797 52.5017,16.0542 53.3695,8.678 64.2169,23.8644 65.5186,36.4475 65.5186,69.4237 57.7085,96.3254" stroke="#00007f" stroke-width="2" /><polyline fill="none" points="36.8814,56.8407 33.8441,47.7288 30.8068,45.9932 28.2034,45.9932 26.0339,50.3322 26.0339,54.6712 29.0712,61.1797" stroke="#0000e8" stroke-width="2" /><polyline fill="none" points="45.9932,56.8407 46.4271,48.5966 44.6915,45.9932 43.3898,45.9932 38.6169,53.3695 39.9186,60.3119" stroke="#0038ff" stroke-width="2" /><polyline fill="none" points="25.1661,63.3492 37.7492,57.7085 52.5017,57.2746" stroke="#0094ff" stroke-width="2" /><polyline fill="none" points="40.7864,63.7831 39.9186,65.0847 32.1085,65.9525 28.6373,67.6881" stroke="#0cf4ea" stroke-width="2" /><polyline fill="none" points="40.7864,64.6508 31.6746,73.3288 31.2407,76.3661" stroke="#56ffa0" stroke-width="2" /><polyline fill="none" points="38.1831,71.5932 35.1458,76.3661" stroke="#a0ff56" stroke-width="2" /><polyline fill="none" points="51.2,63.3492 51.2,63.3492" stroke="#eaff0c" stroke-width="2" /><polyline fill="none" points="42.522,66.8203 57.2746,61.1797" stroke="#ffaa00" stroke-width="2" /><polyline fill="none" points="42.9559,70.2915 56.8407,71.5932" stroke="#ff5500" stroke-width="2" /><polyline fill="none" points="43.8237,72.8949 70.2915,82.8746" stroke="#e80000" stroke-width="2" /><polyline fill="none" points="64.2169,85.478 69.4237,82.0068 75.4983,80.7051 83.3085,86.7797 96.3254,89.3831 102.4,87.2136 105.0034,84.1763 107.6068,72.461 119.322,44.6915 118.4542,42.522 114.5492,40.7864 111.9458,41.6542 109.3424,45.5593 104.1356,60.7458 93.722,75.0644 85.478,78.5356 72.8949,75.4983 67.6881,77.6678" stroke="#7f0000" stroke-width="2" /></svg>