<?xml version="1.0" encoding="utf-8" ?>
<svg baseProfile="tiny" height="128" version="1.2" viewBox="0,0,128,128" width="128" xmlns="http://www.w3.org/2000/svg" xmlns:ev="http://www.w3.org/2001/xml-events" xmlns:xlink="http://www.w3.org/1999/xlink"><defs /><polyline fill="none" points="36.0136,32.1085 32.9763,29.5051 25.6,28.2034 16.0542,28.2034 13.0169,29.939 9.9797,34.278 8.678,42.0881 12.1492,51.6339 15.6203,55.1051 26.4678,59.878 36.8814,59.4441 41.6542,55.1051 42.9559,49.8983 42.0881,39.4847 37.7492,34.7119" stroke="#00007f" stroke-width="2" /><polyline fill="none" points="11.7153,29.5051 16.922,8.678 24.7322,26.4678" stroke="#0010ff" stroke-width="2" /><polyline fill="none" points="31.6746,29.5051 39.4847,10.8475 42.9559,31.6746" stroke="#00a4ff" stroke-width="2" /><polyline fill="none" points="20.8271,38.1831 19.0915,35.5797 22.5627,34.7119 24.2983,37.7492 22.5627,39.4847" stroke="#3fffb7" stroke-width="2" /><polyline fill="none" points="29.0712,36.0136 29.0712,39.9186 33.8441,40.7864 34.7119,37.7492 32.1085,33.4102" stroke="#b7ff3f" stroke-width="2" /><polyline fill="none" points="20.8271,48.5966 26.9017,49.4644 29.5051,47.2949" stroke="#ffb900" stroke-width="2" /><polyline fill="none" points="26.0339,47.2949 25.1661,42.9559" stroke="#ff3000" stroke-width="2" /><polyline fill="none" points="42.0881,35.1458 44.2576,34.278 62.0475,32.5424 79.4034,32.1085 105.0034,36.4475 110.6441,38.1831 116.7186,42.522 118.8881,45.9932 119.322,52.9356 112.3797,64.6508 106.3051,70.2915 97.6271,74.1966 81.139,77.6678 66.3864,77.2339 48.5966,72.461 37.7492,65.0847 36.4475,55.1051" stroke="#7f0000" stroke-width="2" /></svg>