<?xml version="1.0" encoding="utf-8" ?>
<svg baseProfile="tiny" height="128" version="1.2" viewBox="0,0,128,128" width="128" xmlns="http://www.w3.org/2000/svg" xmlns:ev="http://www.w3.org/2001/xml-events" xmlns:xlink="http://www.w3.org/1999/xlink"><defs /><polyline fill="none" points="58.1424,47.2949 55.9729,43.8237 40.7864,44.2576 28.6373,50.7661 19.9593,63.7831 16.0542,78.5356 16.0542,91.1186 17.3559,100.6644 22.5627,107.6068 40.3525,117.5864 57.2746,118.0203 64.6508,111.9458 69.8576,104.1356 72.8949,92.8542 72.8949,72.0271 70.7254,63.3492 66.8203,56.4068 59.4441,48.5966" stroke="#00007f" stroke-width="2" /><polyline fill="none" points="16.4881,55.9729 18.6576,18.2237 20.8271,13.0169 24.7322,8.678 29.939,11.2814 40.7864,42.0881 47.7288,55.539 49.4644,55.9729" stroke="#0000ff" stroke-width="2" /><polyline fill="none" points="58.1424,60.3119 65.9525,56.8407 67.6881,31.2407 72.0271,18.2237 74.1966,22.9966 77.6678,52.9356 77.6678,72.461 75.4983,75.0644" stroke="#0080ff" stroke-width="2" /><polyline fill="none" points="22.5627,92.4203 38.6169,104.1356 52.9356,106.739 62.9153,105.8712 70.7254,100.2305 70.7254,98.061" stroke="#15ffe1" stroke-width="2" /><polyline fill="none" points="47.2949,88.9492 42.0881,88.9492 36.8814,95.4576 36.8814,100.2305 46.861,102.4 50.7661,99.3627 51.6339,93.722 45.9932,91.1186" stroke="#7cff79" stroke-width="2" /><polyline fill="none" points="40.7864,101.9661 32.9763,104.1356 26.4678,107.6068 9.9797,119.322" stroke="#e4ff12" stroke-width="2" /><polyline fill="none" points="46.4271,101.9661 66.8203,119.322" stroke="#ff9400" stroke-width="2" /><polyline fill="none" points="38.6169,87.2136 21.6949,82.8746 8.678,77.2339" stroke="#ff1d00" stroke-width="2" /><polyline fill="none" points="42.9559,91.1186 55.9729,85.478 66.8203,75.4983" stroke="#7f0000" stroke-width="2" /></svg>