<?xml version="1.0" encoding="utf-8" ?>
<svg baseProfile="tiny" height="128" version="1.2" viewBox="0,0,128,128" width="128" xmlns="http://www.w3.org/2000/svg" xmlns:ev="http://www.w3.org/2001/xml-events" xmlns:xlink="http://www.w3.org/1999/xlink"><defs /><polyline fill="none" points="83.1565,35.7007 83.5918,38.7483 89.2517,43.9728 92.2993,45.2789 101.8776,45.7143 110.1497,43.9728 115.8095,37.4422 116.2449,33.9592 109.7143,26.5578 101.4422,24.381 93.6054,27.8639 90.5578,34.3946 84.898,40.4898" stroke="#00007f" stroke-width="2" /><polyline fill="none" points="91.8639,28.2993 93.6054,8.7075 100.5714,20.4626 115.3741,10.8844 118.8571,10.0136 119.2925,12.6259 114.068,30.9116" stroke="#0000ff" stroke-width="2" /><polyline fill="none" points="87.5102,37.0068 57.034,35.2653 32.2177,37.8776 30.0408,39.619 29.6054,43.5374 31.3469,53.551 36.5714,55.7279 45.2789,56.5986 74.8844,55.2925 84.898,52.2449 91.4286,45.2789" stroke="#0080ff" stroke-width="2" /><polyline fill="none" points="29.1701,47.4558 13.4966,49.6327 8.7075,41.7959 9.5782,38.3129 15.2381,36.5714 10.449,27.4286 9.5782,20.898 10.0136,19.5918 13.4966,18.2857 19.5918,18.7211 21.3333,20.0272 22.2041,27.4286 18.2857,34.3946 18.2857,38.3129 27.8639,41.3605" stroke="#15ffe1" stroke-width="2" /><polyline fill="none" points="35.7007,56.5986 35.7007,59.2109 38.3129,64.4354 40.4898,64.4354 41.7959,57.4694 44.4082,64.8707 47.0204,67.0476 49.1973,65.7415 46.1497,64.0 47.8912,62.2585 47.4558,55.2925" stroke="#7cff79" stroke-width="2" /><polyline fill="none" points="60.517,57.034 60.517,63.5646 64.4354,64.0 65.7415,58.3401 67.0476,62.6939 70.0952,65.3061 74.0136,64.0 74.8844,57.9048" stroke="#e4ff12" stroke-width="2" /><polyline fill="none" points="74.8844,57.9048 74.8844,57.9048" stroke="#ff9400" stroke-width="2" /><polyline fill="none" points="74.8844,57.9048 74.8844,57.9048" stroke="#ff1d00" stroke-width="2" /><polyline fill="none" points="105.3605,34.3946 105.3605,34.3946" stroke="#7f0000" stroke-width="2" /></svg>