<?xml version="1.0" encoding="utf-8" ?>
<svg baseProfile="tiny" height="128" version="1.2" viewBox="0,0,128,128" width="128" xmlns="http://www.w3.org/2000/svg" xmlns:ev="http://www.w3.org/2001/xml-events" xmlns:xlink="http://www.w3.org/1999/xlink"><defs /><polyline fill="none" points="56.4068,23.8644 58.5763,46.4271 61.1797,53.3695 64.2169,58.5763 75.0644,62.9153 82.0068,62.9153 89.3831,60.3119 92.4203,57.2746 95.8915,48.5966 100.6644,17.3559 99.7966,8.678 96.3254,9.9797 90.2508,17.3559 85.0441,21.261 80.7051,27.3356 68.5559,26.9017 64.6508,18.6576 60.7458,15.6203 58.1424,24.7322" stroke="#00007f" stroke-width="2" /><polyline fill="none" points="73.7627,45.1254 78.1017,45.1254" stroke="#0010ff" stroke-width="2" /><polyline fill="none" points="68.9898,34.7119 69.4237,38.6169" stroke="#00a4ff" stroke-width="2" /><polyline fill="none" points="84.6102,34.278 86.3458,42.522" stroke="#3fffb7" stroke-width="2" /><polyline fill="none" points="69.4237,49.8983 69.4237,52.9356 73.3288,55.1051 76.8,53.3695 77.6678,49.0305 77.6678,52.0678 80.2712,54.6712 82.8746,54.6712 83.7424,50.7661" stroke="#b7ff3f" stroke-width="2" /><polyline fill="none" points="85.9119,45.1254 87.2136,47.7288 90.6847,50.3322 97.6271,53.3695 110.2102,62.4814 113.2475,64.2169 111.5119,62.0475" stroke="#ffb900" stroke-width="2" /><polyline fill="none" points="90.6847,44.2576 93.722,45.9932 119.322,49.0305" stroke="#ff3000" stroke-width="2" /><polyline fill="none" points="65.9525,47.7288 56.4068,51.6339 20.8271,75.4983 13.0169,78.5356 8.678,78.9695 9.9797,77.2339" stroke="#7f0000" stroke-width="2" /></svg>