<?xml version="1.0" encoding="utf-8" ?>
<svg baseProfile="tiny" height="128" version="1.2" viewBox="0,0,128,128" width="128" xmlns="http://www.w3.org/2000/svg" xmlns:ev="http://www.w3.org/2001/xml-events" xmlns:xlink="http://www.w3.org/1999/xlink"><defs /><polyline fill="none" points="82.7211,41.7959 77.4966,37.8776 74.0136,37.4422 52.2449,38.3129 37.0068,47.0204 22.6395,60.9524 16.1088,70.5306 11.3197,80.9796 8.7075,90.9932 8.7075,105.3605 12.6259,111.4558 18.7211,115.8095 27.4286,119.2925 47.0204,119.2925 57.4694,117.1156 67.9184,111.8912 76.6259,104.9252 90.1224,88.381 95.7823,75.3197 98.3946,63.5646 97.9592,53.9864 96.6531,51.3741 91.8639,48.3265 80.1088,46.585" stroke="#00007f" stroke-width="2" /><polyline fill="none" points="24.8163,72.2721 24.381,61.3878 17.8503,32.6531 16.1088,13.0612 20.0272,12.6259 40.0544,30.4762 50.9388,36.5714" stroke="#0028ff" stroke-width="2" /><polyline fill="none" points="81.415,37.8776 96.6531,18.7211 107.102,8.7075 107.5374,11.3197 103.1837,27.4286 92.2993,65.3061" stroke="#00d4ff" stroke-width="2" /><polyline fill="none" points="35.2653,74.449 38.7483,73.5782 66.1769,73.5782 67.483,77.0612 51.8095,98.3946" stroke="#7cff79" stroke-width="2" /><polyline fill="none" points="38.3129,70.966 43.102,77.932 49.1973,101.4422" stroke="#ffe500" stroke-width="2" /><polyline fill="none" points="54.4218,98.8299 53.551,108.8435 59.6463,111.8912 66.6122,111.4558 70.5306,109.7143 75.3197,103.619 76.6259,100.1361" stroke="#ff4600" stroke-width="2" /><polyline fill="none" points="50.068,94.9116 50.068,94.9116" stroke="#7f0000" stroke-width="2" /></svg>