<?xml version="1.0" encoding="utf-8" ?>
<svg baseProfile="tiny" height="128" version="1.2" viewBox="0,0,128,128" width="128" xmlns="http://www.w3.org/2000/svg" xmlns:ev="http://www.w3.org/2001/xml-events" xmlns:xlink="http://www.w3.org/1999/xlink"><defs /><polyline fill="none" points="18.2237,41.6542 13.4508,37.3153 9.5458,30.8068 8.678,23.4305 12.1492,17.7898 25.1661,9.9797 35.1458,8.678 41.6542,11.2814 45.5593,17.7898" stroke="#00007f" stroke-width="2" /><polyline fill="none" points="104.1356,32.9763 101.9661,27.3356 102.4,22.1288 111.5119,16.922 119.322,17.3559 117.1525,25.6 108.9085,38.6169" stroke="#0028ff" stroke-width="2" /><polyline fill="none" points="87.6475,27.7695 45.9932,32.1085 26.0339,41.2203 19.9593,47.2949 16.0542,53.8034 11.7153,69.4237 16.4881,82.0068 20.3932,87.6475 31.6746,95.4576 40.3525,98.9288 54.2373,101.9661 61.6136,101.9661 75.0644,97.6271 82.0068,93.2881 90.6847,77.2339 93.722,62.9153 93.2881,58.5763 91.5525,48.1627 85.0441,41.6542 72.8949,38.1831" stroke="#00d4ff" stroke-width="2" /><polyline fill="none" points="50.7661,62.9153 38.6169,71.1593 24.2983,76.3661" stroke="#7cff79" stroke-width="2" /><polyline fill="none" points="55.9729,64.2169 68.9898,70.2915 74.6305,71.1593 80.7051,69.4237" stroke="#ffe500" stroke-width="2" /><polyline fill="none" points="35.5797,78.9695 42.9559,82.4407 53.8034,82.4407 65.5186,75.4983" stroke="#ff4600" stroke-width="2" /><polyline fill="none" points="35.1458,50.7661 35.5797,56.4068 36.8814,52.9356" stroke="#7f0000" stroke-width="2" /></svg>