<?xml version="1.0" encoding="utf-8" ?>
<svg baseProfile="tiny" height="128" version="1.2" viewBox="0,0,128,128" width="128" xmlns="http://www.w3.org/2000/svg" xmlns:ev="http://www.w3.org/2001/xml-events" xmlns:xlink="http://www.w3.org/1999/xlink"><defs /><polyline fill="none" points="40.4898,47.4558 29.1701,49.6327 13.932,62.6939 10.449,77.0612 10.449,97.5238 24.381,112.7619 29.6054,115.3741 56.1633,119.2925 79.6735,114.9388 82.7211,113.1973 87.5102,104.4898 90.1224,103.1837 94.9116,85.7687 94.9116,74.449 92.7347,66.6122 84.898,54.8571 78.3673,49.6327 60.9524,40.9252 51.3741,40.0544 37.4422,45.7143 29.1701,52.6803" stroke="#00007f" stroke-width="2" /><polyline fill="none" points="40.9252,79.6735 38.3129,75.7551 33.9592,73.5782 27.8639,73.1429 22.2041,67.483 10.449,60.9524" stroke="#0000fe" stroke-width="2" /><polyline fill="none" points="40.4898,98.8299 16.5442,101.4422 11.7551,102.7483 8.7075,105.3605" stroke="#0060ff" stroke-width="2" /><polyline fill="none" points="38.3129,89.6871 10.449,88.381" stroke="#00d4ff" stroke-width="2" /><polyline fill="none" points="79.6735,74.0136 87.5102,66.6122 95.7823,63.1293" stroke="#4cffaa" stroke-width="2" /><polyline fill="none" points="68.3537,86.2041 94.4762,83.5918 106.2313,84.0272 107.102,85.3333" stroke="#aaff4c" stroke-width="2" /><polyline fill="none" points="62.2585,101.4422 92.2993,112.3265 109.2789,114.9388" stroke="#ffe500" stroke-width="2" /><polyline fill="none" points="53.1156,76.1905 52.2449,78.3673 40.9252,85.7687 42.6667,96.6531 44.8435,100.5714 49.6327,102.3129 52.6803,101.0068 55.7279,96.6531 55.7279,90.9932 57.4694,86.2041 56.5986,78.8027 56.1633,76.1905 52.6803,74.8844" stroke="#ff7a00" stroke-width="2" /><polyline fill="none" points="20.4626,50.5034 16.5442,34.8299 15.2381,22.2041 15.6735,10.449 30.4762,34.8299 37.8776,43.5374" stroke="#fe1200" stroke-width="2" /><polyline fill="none" points="75.7551,35.2653 86.6395,10.8844 90.9932,8.7075 93.1701,23.9456 92.7347,44.8435 90.9932,55.2925" stroke="#7f0000" stroke-width="2" /></svg>