<?xml version="1.0" encoding="utf-8" ?>
<svg baseProfile="tiny" height="128" version="1.2" viewBox="0,0,128,128" width="128" xmlns="http://www.w3.org/2000/svg" xmlns:ev="http://www.w3.org/2001/xml-events" xmlns:xlink="http://www.w3.org/1999/xlink"><defs /><polyline fill="none" points="53.3695,27.7695 45.5593,28.6373 37.7492,31.2407 20.8271,39.0508 15.1864,44.2576 10.8475,53.8034 8.678,70.7254 16.922,87.2136 21.261,91.1186 36.4475,99.3627 48.1627,103.7017 60.3119,105.4373 79.8373,105.4373 86.3458,104.1356 104.5695,95.4576 112.3797,88.5153 114.9831,84.1763 116.2847,76.8 116.2847,67.2542 109.3424,54.6712 104.1356,49.8983 91.5525,42.0881 73.3288,35.5797 61.6136,34.278 43.8237,35.1458" stroke="#00007f" stroke-width="2" /><polyline fill="none" points="32.9763,32.5424 37.3153,25.1661 40.7864,13.4508 44.2576,8.678 54.2373,22.9966 56.8407,31.2407" stroke="#0000e8" stroke-width="2" /><polyline fill="none" points="84.1763,37.3153 90.6847,32.1085 105.0034,24.7322 119.322,19.5254 103.2678,56.8407" stroke="#0038ff" stroke-width="2" /><polyline fill="none" points="58.5763,77.6678 55.1051,76.8 51.2,79.4034 51.2,81.5729 53.3695,82.4407 58.5763,82.4407 59.4441,80.7051 59.878,78.9695 55.1051,77.2339" stroke="#0094ff" stroke-width="2" /><polyline fill="none" points="68.5559,82.8746 94.1559,84.1763" stroke="#0cf4ea" stroke-width="2" /><polyline fill="none" points="71.1593,84.6102 84.6102,91.5525" stroke="#56ffa0" stroke-width="2" /><polyline fill="none" points="65.5186,92.4203 67.6881,96.7593 78.1017,101.5322" stroke="#a0ff56" stroke-width="2" /><polyline fill="none" points="38.6169,73.7627 26.4678,69.8576 14.3186,68.122" stroke="#eaff0c" stroke-width="2" /><polyline fill="none" points="42.0881,81.139 24.2983,79.8373" stroke="#ffaa00" stroke-width="2" /><polyline fill="none" points="39.0508,85.0441 23.8644,88.0814 15.6203,93.2881" stroke="#ff5500" stroke-width="2" /><polyline fill="none" points="50.7661,47.2949 46.861,48.5966 44.2576,51.2 44.2576,53.8034 46.4271,55.9729 52.5017,56.8407 54.2373,55.1051 55.1051,49.8983 52.9356,48.5966" stroke="#e80000" stroke-width="2" /><polyline fill="none" points="81.139,59.0102 78.9695,59.0102 77.6678,62.4814 77.2339,64.2169 78.5356,65.5186 86.3458,66.3864 88.0814,65.5186 89.8169,59.878 86.3458,55.1051" stroke="#7f0000" stroke-width="2" /></svg>