<?xml version="1.0" encoding="utf-8" ?>
<svg baseProfile="tiny" height="128" version="1.2" viewBox="0,0,128,128" width="128" xmlns="http://www.w3.org/2000/svg" xmlns:ev="http://www.w3.org/2001/xml-events" xmlns:xlink="http://www.w3.org/1999/xlink"><defs /><polyline fill="none" points="43.8237,32.1085 43.8237,32.1085" stroke="#00007f" stroke-width="2" /><polyline fill="none" points="43.8237,32.1085 34.7119,30.8068 32.9763,33.4102 29.939,43.3898 29.5051,57.7085 30.8068,61.1797 35.1458,64.6508 48.1627,69.8576 56.4068,69.8576 60.3119,68.5559 64.2169,66.3864 69.4237,60.7458 71.5932,53.8034 71.5932,40.3525 68.122,34.278" stroke="#0000bf" stroke-width="2" /><polyline fill="none" points="30.8068,39.9186 25.1661,8.678 27.3356,9.9797 43.8237,29.5051 45.5593,33.4102" stroke="#0000fe" stroke-width="2" /><polyline fill="none" points="61.6136,33.8441 62.0475,21.6949 67.2542,9.1119 69.8576,9.5458 71.5932,19.5254 71.5932,39.0508" stroke="#0028ff" stroke-width="2" /><polyline fill="none" points="45.1254,43.8237 44.6915,48.1627 45.9932,47.2949 46.4271,43.3898" stroke="#0060ff" stroke-width="2" /><polyline fill="none" points="59.878,47.2949 63.3492,45.1254" stroke="#009cff" stroke-width="2" /><polyline fill="none" points="52.9356,53.3695 52.9356,56.4068 54.6712,55.1051 54.6712,59.4441 54.6712,61.1797 52.0678,62.0475 46.4271,61.1797 42.0881,57.2746" stroke="#00d4ff" stroke-width="2" /><polyline fill="none" points="55.539,54.6712 55.1051,63.7831 57.7085,65.5186 62.9153,63.7831" stroke="#1fffd7" stroke-width="2" /><polyline fill="none" points="61.1797,48.5966 60.7458,44.6915 64.6508,43.8237 62.0475,46.4271 59.0102,45.1254" stroke="#4cffaa" stroke-width="2" /><polyline fill="none" points="40.7864,29.0712 42.9559,32.1085 56.4068,35.5797" stroke="#7cff79" stroke-width="2" /><polyline fill="none" points="73.7627,54.6712 91.9864,53.8034 100.2305,57.2746 105.4373,63.3492 105.8712,76.8 96.3254,84.6102 83.7424,85.9119 63.7831,78.1017 60.3119,74.1966 60.3119,70.7254" stroke="#aaff4c" stroke-width="2" /><polyline fill="none" points="99.3627,59.0102 101.5322,56.8407 111.078,31.2407 117.5864,22.9966 119.322,23.4305 118.0203,34.7119 112.8136,47.7288 105.8712,57.7085 100.2305,62.4814" stroke="#d7ff1f" stroke-width="2" /><polyline fill="none" points="65.0847,83.3085 63.3492,87.2136 61.1797,88.5153 47.2949,87.2136 44.6915,89.3831 44.2576,93.2881 45.5593,95.0237 49.0305,94.5898 51.2,92.4203 52.0678,96.3254 57.7085,96.3254 61.1797,89.3831 60.3119,85.478" stroke="#ffe500" stroke-width="2" /><polyline fill="none" points="43.3898,56.4068 28.2034,61.6136 8.678,72.8949" stroke="#ffb100" stroke-width="2" /><polyline fill="none" points="39.0508,62.0475 23.4305,81.5729" stroke="#ff7a00" stroke-width="2" /><polyline fill="none" points="63.7831,57.7085 85.9119,56.4068" stroke="#ff4600" stroke-width="2" /><polyline fill="none" points="57.2746,61.1797 65.5186,60.7458 71.1593,62.0475 83.3085,68.9898" stroke="#fe1200" stroke-width="2" /><polyline fill="none" points="76.8,88.5153 75.4983,104.5695 74.1966,100.6644 64.2169,100.6644 61.1797,105.0034 61.1797,108.4746 68.9898,105.8712 70.7254,108.9085 75.4983,110.2102 80.2712,103.2678" stroke="#bf0000" stroke-width="2" /><polyline fill="none" points="93.722,85.0441 98.4949,100.6644 96.3254,99.3627 93.2881,100.2305 91.9864,101.5322" stroke="#7f0000" stroke-width="2" /></svg>