<?xml version="1.0" encoding="utf-8" ?>
<svg baseProfile="tiny" height="128" version="1.2" viewBox="0,0,128,128" width="128" xmlns="http://www.w3.org/2000/svg" xmlns:ev="http://www.w3.org/2001/xml-events" xmlns:xlink="http://www.w3.org/1999/xlink"><defs /><polyline fill="none" points="22.5627,37.3153 8.678,10.4136 19.5254,17.3559 45.9932,29.939 58.5763,24.7322 73.3288,22.5627 89.8169,22.5627 98.061,23.8644 114.5492,8.678 117.5864,23.8644 119.322,44.2576 118.8881,59.4441 116.2847,67.6881 111.9458,74.1966 104.1356,79.4034 82.4407,86.7797 71.1593,88.9492 59.0102,89.3831 44.6915,83.7424 36.0136,75.4983 31.2407,66.8203 21.6949,36.0136" stroke="#00007f" stroke-width="2" /><polyline fill="none" points="66.3864,58.5763 68.5559,48.5966 71.1593,44.6915 75.4983,49.8983 78.5356,57.7085 69.4237,60.7458 65.9525,60.7458 65.0847,58.1424" stroke="#0000ff" stroke-width="2" /><polyline fill="none" points="71.1593,59.878 70.7254,70.2915 63.3492,77.6678 72.0271,67.2542 74.6305,60.7458 78.5356,69.8576 82.0068,73.3288 83.3085,74.1966 83.7424,73.3288" stroke="#0080ff" stroke-width="2" /><polyline fill="none" points="81.5729,46.4271 89.8169,45.5593" stroke="#15ffe1" stroke-width="2" /><polyline fill="none" points="86.3458,52.0678 92.8542,51.6339" stroke="#7cff79" stroke-width="2" /><polyline fill="none" points="88.9492,59.4441 95.8915,59.0102" stroke="#e4ff12" stroke-width="2" /><polyline fill="none" points="59.878,47.2949 45.9932,49.0305" stroke="#ff9400" stroke-width="2" /><polyline fill="none" points="55.9729,54.6712 50.7661,55.539" stroke="#ff1d00" stroke-width="2" /><polyline fill="none" points="57.7085,61.1797 53.3695,61.6136 51.2,62.9153" stroke="#7f0000" stroke-width="2" /></svg>