<?xml version="1.0" encoding="utf-8" ?>
<svg baseProfile="tiny" height="128" version="1.2" viewBox="0,0,128,128" width="128" xmlns="http://www.w3.org/2000/svg" xmlns:ev="http://www.w3.org/2001/xml-events" xmlns:xlink="http://www.w3.org/1999/xlink"><defs /><polyline fill="none" points="15.6203,35.5797 11.2814,42.522 8.678,50.3322 9.5458,65.9525 17.3559,76.8 27.3356,84.6102 37.7492,88.9492 46.4271,91.1186 66.3864,91.5525 86.3458,87.6475 102.4,80.7051 116.7186,69.8576 118.8881,67.2542 119.322,61.6136 117.1525,55.9729 101.0983,39.0508 91.9864,32.9763 78.5356,26.0339 66.3864,22.5627 54.2373,21.261 47.7288,21.261 42.0881,23.4305 17.3559,35.1458 13.8847,26.9017 13.0169,10.4136 18.6576,16.4881 33.8441,26.0339" stroke="#00007f" stroke-width="2" /><polyline fill="none" points="85.0441,26.4678 99.3627,8.678 99.3627,26.4678 96.7593,45.5593" stroke="#00d4ff" stroke-width="2" /><polyline fill="none" points="17.7898,77.6678 23.4305,71.5932 37.3153,63.7831 46.4271,61.6136 60.3119,61.6136 69.8576,63.3492 88.0814,71.5932 97.1932,83.7424" stroke="#ffe500" stroke-width="2" /><polyline fill="none" points="51.2,67.6881 53.3695,65.0847 55.1051,68.122 52.0678,68.5559 51.6339,65.0847 52.9356,64.2169 54.2373,67.2542" stroke="#7f0000" stroke-width="2" /></svg>