<?xml version="1.0" encoding="utf-8" ?>
<svg baseProfile="tiny" height="128" version="1.2" viewBox="0,0,128,128" width="128" xmlns="http://www.w3.org/2000/svg" xmlns:ev="http://www.w3.org/2001/xml-events" xmlns:xlink="http://www.w3.org/1999/xlink"><defs /><polyline fill="none" points="9.5782,58.3401 13.932,17.415 17.8503,24.8163 22.6395,39.1837 27.4286,48.3265 40.4898,40.4898 50.9388,37.0068 61.8231,34.8299 77.0612,37.4422 90.1224,47.0204 97.0884,23.5102 103.619,8.7075 111.0204,51.3741" stroke="#00007f" stroke-width="2" /><polyline fill="none" points="8.7075,60.9524 14.8027,87.9456 24.8163,108.4082 35.7007,117.551 45.2789,119.2925 56.1633,118.8571 83.5918,112.3265 103.1837,101.0068 110.1497,94.9116 115.3741,83.5918 117.551,70.0952 117.9864,59.2109 115.8095,42.2313" stroke="#0000f1" stroke-width="2" /><polyline fill="none" points="40.4898,66.6122 43.9728,67.9184 44.4082,71.8367 40.4898,74.8844 37.8776,71.4014 41.3605,66.1769 44.4082,67.0476 45.2789,71.4014 43.102,71.8367" stroke="#004cff" stroke-width="2" /><polyline fill="none" points="93.1701,68.3537 90.5578,66.6122 89.2517,63.5646 92.2993,64.4354" stroke="#00b0ff" stroke-width="2" /><polyline fill="none" points="68.7891,85.7687 68.3537,88.381 66.6122,87.5102" stroke="#29ffcd" stroke-width="2" /><polyline fill="none" points="70.966,85.7687 87.0748,72.7075" stroke="#7cff79" stroke-width="2" /><polyline fill="none" points="74.449,91.4286 81.8503,92.2993 87.5102,94.4762" stroke="#cdff29" stroke-width="2" /><polyline fill="none" points="65.7415,98.8299 82.2857,103.619" stroke="#ffc400" stroke-width="2" /><polyline fill="none" points="78.3673,90.1224 44.8435,77.0612" stroke="#ff6700" stroke-width="2" /><polyline fill="none" points="65.7415,91.4286 53.551,92.7347 42.2313,94.9116 38.3129,97.5238" stroke="#f10700" stroke-width="2" /><polyline fill="none" points="69.6599,88.381 57.034,95.3469 50.9388,102.3129" stroke="#7f0000" stroke-width="2" /></svg>