<?xml version="1.0" encoding="utf-8" ?>
<svg baseProfile="tiny" height="128" version="1.2" viewBox="0,0,128,128" width="128" xmlns="http://www.w3.org/2000/svg" xmlns:ev="http://www.w3.org/2001/xml-events" xmlns:xlink="http://www.w3.org/1999/xlink"><defs /><polyline fill="none" points="48.5966,12.5831 36.4475,14.3186 27.3356,20.3932 22.1288,31.6746 23.4305,45.9932 38.6169,49.0305 55.539,46.4271 59.878,36.8814 60.3119,30.3729 56.8407,21.261 48.5966,16.4881 45.5593,11.7153 49.8983,10.4136 64.2169,8.678 60.3119,19.5254 57.2746,21.261" stroke="#00007f" stroke-width="2" /><polyline fill="none" points="37.7492,12.1492 30.3729,9.9797 13.4508,9.9797 15.6203,18.2237" stroke="#0000ff" stroke-width="2" /><polyline fill="none" points="21.261,21.261 21.261,21.261" stroke="#0080ff" stroke-width="2" /><polyline fill="none" points="25.1661,27.3356 25.1661,27.3356" stroke="#15ffe1" stroke-width="2" /><polyline fill="none" points="29.0712,29.5051 22.5627,34.7119 13.0169,38.1831 8.678,43.8237" stroke="#7cff79" stroke-width="2" /><polyline fill="none" points="33.4102,38.6169 23.8644,45.1254 15.1864,47.2949 12.1492,54.2373" stroke="#e4ff12" stroke-width="2" /><polyline fill="none" points="46.861,32.1085 58.1424,33.4102 72.0271,38.1831 75.4983,41.2203" stroke="#ff9400" stroke-width="2" /><polyline fill="none" points="47.2949,37.7492 74.6305,48.1627" stroke="#ff1d00" stroke-width="2" /><polyline fill="none" points="51.2,47.7288 74.6305,56.8407 87.6475,56.8407 101.5322,51.2 115.4169,49.0305 119.322,68.122 118.8881,80.2712 116.2847,87.6475 117.1525,91.5525" stroke="#7f0000" stroke-width="2" /></svg>