<?xml version="1.0" encoding="utf-8" ?>
<svg baseProfile="tiny" height="128" version="1.2" viewBox="0,0,128,128" width="128" xmlns="http://www.w3.org/2000/svg" xmlns:ev="http://www.w3.org/2001/xml-events" xmlns:xlink="http://www.w3.org/1999/xlink"><defs /><polyline fill="none" points="49.0305,29.0712 42.9559,29.5051 35.1458,34.278 27.7695,45.5593 25.6,54.2373 26.0339,59.4441 27.3356,64.6508 31.2407,70.7254 40.7864,78.9695 47.2949,82.4407 53.8034,84.1763 63.3492,84.6102 75.9322,81.5729 86.3458,75.9322 89.8169,72.8949 94.1559,65.0847 95.0237,59.0102 92.4203,51.2 82.0068,39.9186 70.2915,32.1085 61.6136,28.2034 46.4271,26.0339" stroke="#00007f" stroke-width="2" /><polyline fill="none" points="35.1458,41.6542 31.6746,37.3153 23.8644,19.5254 20.8271,8.678 30.3729,14.7525 47.2949,29.0712" stroke="#0000d1" stroke-width="2" /><polyline fill="none" points="68.122,35.5797 91.5525,11.7153 89.8169,48.5966" stroke="#0010ff" stroke-width="2" /><polyline fill="none" points="45.1254,46.861 45.1254,46.861" stroke="#0058ff" stroke-width="2" /><polyline fill="none" points="61.6136,49.0305 61.6136,49.0305" stroke="#00a4ff" stroke-width="2" /><polyline fill="none" points="45.1254,48.1627 45.1254,48.1627" stroke="#05ecf1" stroke-width="2" /><polyline fill="none" points="65.5186,47.7288 65.5186,47.7288" stroke="#3fffb7" stroke-width="2" /><polyline fill="none" points="56.4068,59.878 51.6339,57.2746 57.7085,64.2169 52.5017,58.5763 59.878,56.8407 60.7458,57.7085 60.3119,65.5186 57.7085,70.7254 52.5017,75.9322 46.861,75.9322 48.1627,73.3288" stroke="#7cff79" stroke-width="2" /><polyline fill="none" points="59.878,65.5186 61.1797,70.7254 63.7831,73.3288 67.2542,72.8949 70.7254,69.4237" stroke="#b7ff3f" stroke-width="2" /><polyline fill="none" points="46.4271,42.0881 47.7288,45.1254 49.4644,42.9559 47.7288,42.0881" stroke="#f1fc05" stroke-width="2" /><polyline fill="none" points="63.3492,40.3525 64.6508,42.522 63.3492,41.6542" stroke="#ffb900" stroke-width="2" /><polyline fill="none" points="40.7864,63.7831 8.678,78.1017" stroke="#ff7300" stroke-width="2" /><polyline fill="none" points="45.1254,61.6136 17.7898,83.3085" stroke="#ff3000" stroke-width="2" /><polyline fill="none" points="91.9864,60.3119 109.3424,64.2169 119.322,62.9153" stroke="#d10000" stroke-width="2" /><polyline fill="none" points="85.478,70.7254 95.0237,75.0644 109.7763,79.8373" stroke="#7f0000" stroke-width="2" /></svg>