<?xml version="1.0" encoding="utf-8" ?>
<svg baseProfile="tiny" height="128" version="1.2" viewBox="0,0,128,128" width="128" xmlns="http://www.w3.org/2000/svg" xmlns:ev="http://www.w3.org/2001/xml-events" xmlns:xlink="http://www.w3.org/1999/xlink"><defs /><polyline fill="none" points="101.5322,39.9186 98.4949,36.0136 87.6475,29.0712 68.9898,25.1661 56.4068,25.6 43.3898,29.0712 30.8068,35.5797 19.9593,44.2576 12.1492,54.6712 8.678,65.5186 8.678,76.3661 12.1492,87.2136 18.2237,97.1932 27.3356,104.1356 50.3322,112.3797 75.0644,114.1153 86.7797,111.5119 97.1932,106.739 106.3051,99.3627 112.3797,90.6847 115.4169,79.8373 115.4169,67.6881 113.2475,55.539 108.0407,45.9932 100.2305,36.4475 89.8169,28.6373 78.1017,22.5627" stroke="#00007f" stroke-width="2" /><polyline fill="none" points="15.6203,51.6339 13.0169,43.3898 13.0169,27.3356 10.8475,13.0169 18.2237,20.3932 32.5424,29.0712 41.6542,31.6746 50.3322,30.8068" stroke="#004cff" stroke-width="2" /><polyline fill="none" points="91.5525,29.0712 104.5695,20.8271 119.322,8.678 112.8136,45.9932 113.6814,63.3492" stroke="#29ffcd" stroke-width="2" /><polyline fill="none" points="50.3322,41.6542 43.3898,39.9186 41.2203,42.522 39.0508,50.7661 39.0508,54.6712 40.7864,57.7085 45.1254,59.4441 56.4068,58.5763 60.7458,55.9729 63.3492,52.5017 62.9153,45.1254 59.4441,42.0881 55.539,40.3525 49.8983,40.7864" stroke="#cdff29" stroke-width="2" /><polyline fill="none" points="88.9492,45.9932 85.9119,45.9932 83.7424,48.5966 78.1017,58.1424 78.1017,65.5186 81.139,67.2542 90.2508,65.9525 94.5898,62.4814 96.3254,59.0102 96.7593,54.6712 95.0237,49.0305 90.2508,45.1254 78.5356,43.3898" stroke="#ff6700" stroke-width="2" /><polyline fill="none" points="62.0475,75.0644 62.0475,75.0644" stroke="#7f0000" stroke-width="2" /></svg>