<?xml version="1.0" encoding="utf-8" ?>
<svg baseProfile="tiny" height="128" version="1.2" viewBox="0,0,128,128" width="128" xmlns="http://www.w3.org/2000/svg" xmlns:ev="http://www.w3.org/2001/xml-events" xmlns:xlink="http://www.w3.org/1999/xlink"><defs /><polyline fill="none" points="104.0544,22.6395 95.3469,18.2857 85.3333,16.5442 76.6259,16.9796 68.3537,20.898 61.8231,27.4286 58.3401,35.7007 57.9048,43.5374 60.517,49.1973 67.0476,53.551 77.4966,54.8571 86.2041,53.551 94.0408,50.068 100.5714,42.2313 102.7483,35.7007 103.1837,27.8639 101.0068,18.7211" stroke="#00007f" stroke-width="2" /><polyline fill="none" points="59.2109,32.2177 56.1633,26.5578 54.4218,20.0272 55.2925,12.6259 57.9048,8.7075 64.4354,8.7075 77.0612,16.9796" stroke="#0000c3" stroke-width="2" /><polyline fill="none" points="94.4762,16.5442 110.585,10.449 114.5034,10.449 115.8095,14.8027 116.2449,24.8163 103.1837,31.7823" stroke="#0000ff" stroke-width="2" /><polyline fill="none" points="58.7755,42.6667 41.7959,41.7959 25.2517,43.9728 14.3673,48.7619 8.7075,55.2925 8.7075,61.3878 10.0136,65.3061 16.9796,73.1429 24.381,77.4966 41.3605,81.8503 53.1156,83.1565 61.8231,82.2857 74.8844,77.932 85.7687,72.7075 93.1701,67.9184 96.6531,63.5646 99.2653,55.7279 97.9592,50.5034" stroke="#0034ff" stroke-width="2" /><polyline fill="none" points="25.2517,77.932 22.6395,88.381 23.0748,91.8639 26.9932,93.1701 30.4762,92.2993 35.2653,84.4626" stroke="#0070ff" stroke-width="2" /><polyline fill="none" points="49.6327,84.4626 48.7619,92.2993 50.5034,95.3469 56.5986,82.7211" stroke="#00acff" stroke-width="2" /><polyline fill="none" points="69.6599,80.1088 67.9184,92.7347 68.3537,94.4762 70.0952,94.4762 77.932,79.2381" stroke="#02e8f4" stroke-width="2" /><polyline fill="none" points="89.2517,72.7075 87.0748,91.8639 88.8163,91.8639 90.5578,87.0748 91.8639,74.449" stroke="#32ffc3" stroke-width="2" /><polyline fill="none" points="58.7755,33.9592 70.0952,33.5238" stroke="#63ff93" stroke-width="2" /><polyline fill="none" points="62.2585,45.2789 71.8367,43.102" stroke="#93ff63" stroke-width="2" /><polyline fill="none" points="87.5102,35.7007 100.5714,33.9592" stroke="#c3ff32" stroke-width="2" /><polyline fill="none" points="89.6871,44.8435 112.7619,41.7959" stroke="#f4f802" stroke-width="2" /><polyline fill="none" points="98.8299,35.7007 119.2925,31.3469" stroke="#ffc000" stroke-width="2" /><polyline fill="none" points="62.2585,37.8776 48.7619,33.9592 37.4422,33.5238" stroke="#ff8900" stroke-width="2" /><polyline fill="none" points="67.483,45.2789 49.6327,45.7143 37.0068,47.4558" stroke="#ff5100" stroke-width="2" /><polyline fill="none" points="77.4966,26.5578 77.4966,26.5578" stroke="#ff1a00" stroke-width="2" /><polyline fill="none" points="71.4014,28.7347 73.1429,28.7347 73.5782,26.5578" stroke="#c30000" stroke-width="2" /><polyline fill="none" points="89.2517,22.6395 88.8163,23.5102" stroke="#7f0000" stroke-width="2" /></svg>