<?xml version="1.0" encoding="utf-8" ?>
<svg baseProfile="tiny" height="128" version="1.2" viewBox="0,0,128,128" width="128" xmlns="http://www.w3.org/2000/svg" xmlns:ev="http://www.w3.org/2001/xml-events" xmlns:xlink="http://www.w3.org/1999/xlink"><defs /><polyline fill="none" points="54.6712,34.278 51.2,33.4102 43.8237,33.4102 37.3153,36.0136 32.9763,39.9186 25.6,52.0678 21.261,70.7254 20.8271,91.5525 26.4678,105.8712 30.3729,111.5119 41.6542,118.0203 62.4814,118.8881 93.2881,114.5492 101.9661,108.9085 107.1729,101.5322 113.2475,90.2508 116.2847,78.5356 116.2847,67.6881 112.3797,51.6339 101.0983,38.6169 85.9119,27.7695 72.0271,23.4305 52.9356,24.7322 36.4475,36.8814 22.5627,18.6576 15.1864,13.0169 9.1119,9.9797 8.678,17.7898 10.4136,24.2983 16.922,39.9186 22.1288,46.4271" stroke="#00007f" stroke-width="2" /><polyline fill="none" points="80.7051,19.0915 96.3254,8.678 96.3254,15.6203 88.9492,34.7119 86.3458,37.3153" stroke="#0000f1" stroke-width="2" /><polyline fill="none" points="65.0847,66.8203 52.0678,85.9119 59.878,75.0644 62.9153,65.5186 68.9898,77.2339 74.6305,80.7051 76.8,82.0068 75.9322,82.4407" stroke="#004cff" stroke-width="2" /><polyline fill="none" points="36.4475,52.5017 40.7864,53.3695 42.522,51.6339" stroke="#00b0ff" stroke-width="2" /><polyline fill="none" points="89.8169,46.4271 89.8169,46.4271" stroke="#29ffcd" stroke-width="2" /><polyline fill="none" points="89.3831,62.9153 95.4576,64.2169 119.322,52.9356" stroke="#7cff79" stroke-width="2" /><polyline fill="none" points="98.9288,59.878 98.4949,64.2169 103.7017,67.2542" stroke="#cdff29" stroke-width="2" /><polyline fill="none" points="49.8983,73.3288 25.1661,71.1593" stroke="#ffc400" stroke-width="2" /><polyline fill="none" points="48.5966,68.122 45.5593,73.3288 31.6746,84.1763 37.7492,78.5356" stroke="#ff6700" stroke-width="2" /><polyline fill="none" points="54.6712,53.8034 52.0678,59.4441 54.6712,60.7458 64.2169,54.2373" stroke="#f10700" stroke-width="2" /><polyline fill="none" points="98.9288,103.2678 98.9288,103.2678" stroke="#7f0000" stroke-width="2" /></svg>