<?xml version="1.0" encoding="utf-8" ?>
<svg baseProfile="tiny" height="128" version="1.2" viewBox="0,0,128,128" width="128" xmlns="http://www.w3.org/2000/svg" xmlns:ev="http://www.w3.org/2001/xml-events" xmlns:xlink="http://www.w3.org/1999/xlink"><defs /><polyline fill="none" points="8.678,45.9932 12.5831,31.6746 16.0542,8.678 17.7898,9.5458 35.5797,38.1831 39.0508,40.3525 45.1254,40.7864 75.9322,41.2203 77.6678,39.9186 86.7797,20.3932 90.6847,8.678 92.4203,9.9797 104.1356,44.6915 106.3051,71.1593 104.5695,82.0068 98.9288,97.6271 92.4203,108.4746 86.7797,114.1153 67.6881,118.8881 54.6712,119.322 44.6915,117.5864 26.0339,107.6068 23.4305,104.1356 20.8271,95.4576 17.3559,70.2915 10.8475,44.6915" stroke="#00007f" stroke-width="2" /><polyline fill="none" points="46.861,88.9492 47.7288,94.1559 50.3322,97.1932 55.539,98.061 57.2746,96.7593 59.0102,89.8169 61.6136,96.7593 65.0847,99.7966 70.2915,99.7966 73.3288,98.061 75.4983,94.1559 75.0644,90.6847" stroke="#0010ff" stroke-width="2" /><polyline fill="none" points="58.5763,89.3831 53.8034,84.6102 53.8034,77.6678 59.4441,75.9322 64.2169,79.8373 65.0847,86.3458 60.7458,92.4203" stroke="#00a4ff" stroke-width="2" /><polyline fill="none" points="37.3153,56.8407 40.7864,54.6712 44.2576,56.4068 45.5593,58.1424 45.9932,65.5186 43.3898,68.122 38.6169,69.4237 33.4102,67.6881 33.4102,59.0102 36.4475,55.539" stroke="#3fffb7" stroke-width="2" /><polyline fill="none" points="33.8441,65.9525 40.3525,63.7831 44.6915,65.9525" stroke="#b7ff3f" stroke-width="2" /><polyline fill="none" points="75.0644,56.4068 72.461,62.0475 72.461,68.5559 79.8373,75.9322 83.3085,76.3661 84.6102,74.6305 87.6475,66.8203 87.6475,60.7458 85.9119,57.2746 80.7051,54.6712 77.2339,54.6712 75.9322,55.1051 72.8949,59.4441" stroke="#ffb900" stroke-width="2" /><polyline fill="none" points="74.6305,70.7254 74.6305,70.7254" stroke="#ff3000" stroke-width="2" /><polyline fill="none" points="74.6305,70.2915 80.2712,66.8203 85.0441,68.5559" stroke="#7f0000" stroke-width="2" /></svg>