<?xml version="1.0" encoding="utf-8" ?>
<svg baseProfile="tiny" height="128" version="1.2" viewBox="0,0,128,128" width="128" xmlns="http://www.w3.org/2000/svg" xmlns:ev="http://www.w3.org/2001/xml-events" xmlns:xlink="http://www.w3.org/1999/xlink"><defs /><polyline fill="none" points="78.5356,29.5051 80.7051,45.9932 84.1763,53.8034 86.7797,56.4068 95.0237,59.4441 98.4949,59.0102 103.7017,55.1051 108.0407,48.5966 108.9085,44.2576 108.9085,41.2203 106.739,39.0508 96.3254,33.8441 96.3254,28.2034 98.9288,23.8644 102.8339,22.1288 105.8712,31.6746 114.9831,34.278 117.5864,36.0136 119.322,42.9559 117.5864,49.8983 105.8712,62.9153 98.9288,66.3864 82.4407,63.7831 66.3864,66.3864 60.7458,65.9525 57.7085,62.0475 58.1424,57.7085 61.1797,55.9729 70.7254,55.1051 58.5763,39.4847 56.8407,26.4678 52.0678,24.7322 40.3525,33.8441 38.1831,34.278 37.3153,32.5424 37.3153,24.7322 41.6542,19.5254 52.0678,13.4508 57.2746,13.0169 62.0475,16.0542 67.6881,8.678 68.5559,14.3186 71.1593,17.7898 82.4407,19.5254 79.8373,38.1831" stroke="#00007f" stroke-width="2" /><polyline fill="none" points="17.7898,42.0881 27.3356,35.1458 25.6,44.6915 33.8441,50.3322 35.1458,57.2746 33.8441,62.9153 29.5051,67.2542 20.8271,68.5559 15.1864,67.2542 9.9797,62.0475 8.678,54.2373 10.4136,48.1627 13.4508,44.2576 16.4881,43.3898 17.3559,45.1254" stroke="#004cff" stroke-width="2" /><polyline fill="none" points="13.4508,53.8034 13.0169,59.4441 13.0169,55.539 14.3186,57.2746 16.0542,53.3695 16.4881,58.1424" stroke="#29ffcd" stroke-width="2" /><polyline fill="none" points="19.5254,55.1051 21.6949,52.9356 20.8271,55.539" stroke="#cdff29" stroke-width="2" /><polyline fill="none" points="28.6373,52.5017 25.6,52.9356 26.4678,57.2746 27.3356,56.4068 26.9017,52.0678" stroke="#ff6700" stroke-width="2" /><polyline fill="none" points="30.8068,49.8983 32.1085,58.1424 31.6746,52.5017 32.5424,56.4068 35.1458,52.0678" stroke="#7f0000" stroke-width="2" /></svg>