<?xml version="1.0" encoding="utf-8" ?>
<svg baseProfile="tiny" height="128" version="1.2" viewBox="0,0,128,128" width="128" xmlns="http://www.w3.org/2000/svg" xmlns:ev="http://www.w3.org/2001/xml-events" xmlns:xlink="http://www.w3.org/1999/xlink"><defs /><polyline fill="none" points="72.0271,17.3559 65.0847,17.7898 59.878,19.9593 49.4644,27.3356 48.1627,30.8068 48.1627,41.2203 49.8983,45.9932 55.9729,52.5017 63.3492,57.2746 75.9322,61.1797 93.722,62.0475 99.7966,57.7085 106.739,46.861 111.5119,35.5797 111.5119,27.7695 105.4373,20.8271 96.7593,16.0542 72.8949,16.4881 68.9898,18.6576" stroke="#00007f" stroke-width="2" /><polyline fill="none" points="52.0678,33.8441 44.6915,32.5424 9.9797,32.5424 10.8475,33.4102" stroke="#0000d1" stroke-width="2" /><polyline fill="none" points="47.7288,36.8814 39.0508,39.9186 17.3559,41.2203 25.6,41.2203" stroke="#0010ff" stroke-width="2" /><polyline fill="none" points="53.3695,41.2203 13.0169,45.5593 8.678,46.861 19.0915,47.7288" stroke="#0058ff" stroke-width="2" /><polyline fill="none" points="105.8712,39.9186 115.8508,40.7864" stroke="#00a4ff" stroke-width="2" /><polyline fill="none" points="97.6271,46.4271 103.2678,48.5966 114.5492,49.4644 115.4169,46.861" stroke="#05ecf1" stroke-width="2" /><polyline fill="none" points="107.1729,29.5051 116.7186,29.5051 119.322,28.2034" stroke="#3fffb7" stroke-width="2" /><polyline fill="none" points="75.0644,27.3356 75.0644,27.3356" stroke="#7cff79" stroke-width="2" /><polyline fill="none" points="85.478,28.2034 85.478,28.2034" stroke="#b7ff3f" stroke-width="2" /><polyline fill="none" points="66.8203,27.7695 71.1593,26.0339" stroke="#f1fc05" stroke-width="2" /><polyline fill="none" points="95.8915,27.3356 95.0237,25.6 92.4203,27.3356" stroke="#ffb900" stroke-width="2" /><polyline fill="none" points="65.5186,38.6169 66.8203,42.9559 71.5932,47.7288 78.9695,49.8983 85.9119,49.4644 91.1186,45.9932 91.1186,42.522 89.3831,39.4847 82.8746,35.1458" stroke="#ff7300" stroke-width="2" /><polyline fill="none" points="73.3288,30.8068 74.6305,33.4102 76.3661,32.5424 75.9322,29.0712" stroke="#ff3000" stroke-width="2" /><polyline fill="none" points="55.1051,19.5254 55.1051,10.4136 59.878,19.0915 68.122,19.9593" stroke="#d10000" stroke-width="2" /><polyline fill="none" points="106.739,17.7898 112.8136,10.4136 116.2847,8.678 117.1525,16.0542 115.8508,26.4678" stroke="#7f0000" stroke-width="2" /></svg>