<?xml version="1.0" encoding="utf-8" ?>
<svg baseProfile="tiny" height="128" version="1.2" viewBox="0,0,128,128" width="128" xmlns="http://www.w3.org/2000/svg" xmlns:ev="http://www.w3.org/2001/xml-events" xmlns:xlink="http://www.w3.org/1999/xlink"><defs /><polyline fill="none" points="74.8844,31.7823 63.5646,31.7823 57.034,36.1361 45.7143,48.7619 37.8776,59.6463 31.3469,71.8367 26.9932,88.8163 28.2993,97.0884 32.2177,101.8776 37.8776,103.619 45.2789,102.7483 53.1156,99.7007 60.9524,93.1701 71.4014,80.5442 76.6259,70.966 79.6735,57.034 77.932,41.3605 75.7551,37.4422 71.8367,36.1361 70.966,37.0068" stroke="#00007f" stroke-width="2" /><polyline fill="none" points="64.0,45.7143 63.1293,47.4558" stroke="#0000e8" stroke-width="2" /><polyline fill="none" points="47.8912,56.1633 47.4558,56.5986" stroke="#0038ff" stroke-width="2" /><polyline fill="none" points="66.6122,68.3537 81.8503,71.4014" stroke="#0094ff" stroke-width="2" /><polyline fill="none" points="65.3061,80.9796 69.6599,80.1088 89.6871,84.4626" stroke="#0cf4ea" stroke-width="2" /><polyline fill="none" points="45.7143,74.8844 40.4898,74.0136 33.9592,76.1905 22.2041,86.6395" stroke="#56ffa0" stroke-width="2" /><polyline fill="none" points="36.1361,87.9456 20.4626,96.2177" stroke="#a0ff56" stroke-width="2" /><polyline fill="none" points="54.4218,68.3537 47.8912,70.966 45.2789,74.8844 43.5374,79.6735 43.9728,87.9456 48.3265,90.9932 56.1633,84.898 59.6463,73.1429 59.2109,70.0952 56.5986,70.0952 55.7279,71.4014" stroke="#eaff0c" stroke-width="2" /><polyline fill="none" points="48.3265,76.6259 51.8095,78.3673" stroke="#ffaa00" stroke-width="2" /><polyline fill="none" points="56.1633,73.1429 56.5986,74.8844" stroke="#ff5500" stroke-width="2" /><polyline fill="none" points="37.8776,55.2925 36.5714,36.1361 33.9592,21.3333 49.6327,27.4286 53.551,26.9932 57.4694,25.6871 68.3537,17.8503 74.0136,8.7075 75.3197,11.7551 73.5782,27.4286 74.8844,31.3469" stroke="#e80000" stroke-width="2" /><polyline fill="none" points="32.6531,55.2925 26.9932,56.1633 19.5918,64.4354 9.5782,84.4626 8.7075,91.4286 10.0136,96.6531 20.898,112.3265 28.2993,117.551 32.6531,119.2925 45.7143,118.8571 58.3401,113.6327 72.2721,102.3129 84.0272,87.0748 89.2517,71.8367 90.9932,59.2109 91.4286,47.4558 88.381,35.2653 83.5918,31.7823 76.1905,32.2177 61.3878,39.1837" stroke="#7f0000" stroke-width="2" /></svg>