<?xml version="1.0" encoding="utf-8" ?>
<svg baseProfile="tiny" height="128" version="1.2" viewBox="0,0,128,128" width="128" xmlns="http://www.w3.org/2000/svg" xmlns:ev="http://www.w3.org/2001/xml-events" xmlns:xlink="http://www.w3.org/1999/xlink"><defs /><polyline fill="none" points="39.9186,75.9322 34.7119,74.1966 26.0339,57.2746 19.5254,42.9559 18.6576,35.5797 19.9593,31.6746 9.5458,14.3186 8.678,9.1119 22.5627,8.678 30.3729,17.7898 32.9763,24.7322 34.7119,25.6 46.861,23.8644 78.1017,23.8644 99.3627,18.2237 109.3424,12.5831 110.2102,17.3559 107.1729,37.3153 110.2102,45.5593 118.8881,56.4068 119.322,64.6508 118.0203,67.6881 98.4949,82.4407 90.2508,87.2136 80.7051,88.5153 62.4814,83.3085 46.4271,80.7051 40.7864,77.6678 30.3729,68.5559 29.0712,65.0847" stroke="#00007f" stroke-width="2" /><polyline fill="none" points="46.4271,39.9186 43.8237,39.9186 41.2203,41.6542 39.4847,48.1627" stroke="#0010ff" stroke-width="2" /><polyline fill="none" points="78.9695,35.5797 93.2881,34.7119 95.8915,35.5797 96.7593,37.3153" stroke="#00a4ff" stroke-width="2" /><polyline fill="none" points="63.3492,40.7864 62.0475,44.6915 64.6508,41.2203 63.3492,41.2203 62.0475,45.1254 64.6508,45.5593 65.5186,44.2576 61.6136,42.522" stroke="#3fffb7" stroke-width="2" /><polyline fill="none" points="65.5186,45.1254 62.4814,44.6915" stroke="#b7ff3f" stroke-width="2" /><polyline fill="none" points="61.6136,44.6915 59.878,52.9356 55.9729,53.3695 51.6339,51.6339" stroke="#ffb900" stroke-width="2" /><polyline fill="none" points="58.1424,51.6339 69.8576,52.9356" stroke="#ff3000" stroke-width="2" /><polyline fill="none" points="60.3119,80.7051 58.1424,85.9119" stroke="#7f0000" stroke-width="2" /></svg>