<?xml version="1.0" encoding="utf-8" ?>
<svg baseProfile="tiny" height="128" version="1.2" viewBox="0,0,128,128" width="128" xmlns="http://www.w3.org/2000/svg" xmlns:ev="http://www.w3.org/2001/xml-events" xmlns:xlink="http://www.w3.org/1999/xlink"><defs /><polyline fill="none" points="36.0136,23.4305 39.9186,21.261 52.5017,18.2237 68.122,17.3559 81.5729,20.3932 88.5153,24.2983" stroke="#00007f" stroke-width="2" /><polyline fill="none" points="35.1458,22.9966 22.9966,8.678 22.9966,33.8441" stroke="#0000e8" stroke-width="2" /><polyline fill="none" points="88.0814,23.4305 101.0983,11.7153 101.9661,15.1864 99.7966,32.1085" stroke="#0038ff" stroke-width="2" /><polyline fill="none" points="22.1288,34.278 19.0915,44.2576 18.2237,59.0102 19.9593,68.122 25.1661,77.6678 35.5797,85.478 49.4644,91.1186 62.0475,93.2881 75.0644,93.2881 87.6475,89.8169 93.2881,85.478 100.2305,78.1017 105.0034,68.5559 106.739,59.0102 105.8712,47.2949 102.8339,37.7492 98.061,33.4102" stroke="#0094ff" stroke-width="2" /><polyline fill="none" points="46.861,41.2203 45.9932,45.1254 47.7288,45.1254 47.7288,43.3898 45.9932,43.8237 45.5593,46.861" stroke="#0cf4ea" stroke-width="2" /><polyline fill="none" points="67.6881,39.9186 67.6881,43.3898 69.8576,44.2576 72.0271,42.0881 70.7254,44.2576 71.5932,45.1254" stroke="#56ffa0" stroke-width="2" /><polyline fill="none" points="78.5356,68.9898 81.139,66.8203 92.8542,64.2169 105.0034,64.6508 119.322,68.122" stroke="#a0ff56" stroke-width="2" /><polyline fill="none" points="81.139,74.1966 102.4,78.5356 113.2475,84.1763 118.4542,88.5153" stroke="#eaff0c" stroke-width="2" /><polyline fill="none" points="49.8983,67.2542 41.6542,65.5186 32.9763,65.9525 19.9593,70.2915 12.5831,75.4983" stroke="#ffaa00" stroke-width="2" /><polyline fill="none" points="52.5017,74.1966 41.2203,74.1966 26.4678,78.1017 20.8271,81.139 8.678,92.8542" stroke="#ff5500" stroke-width="2" /><polyline fill="none" points="66.3864,61.6136 62.4814,64.2169 62.9153,65.9525 66.3864,65.0847 68.5559,63.3492 66.3864,62.4814 61.6136,65.5186 63.3492,66.3864 67.2542,65.0847 66.8203,62.9153 63.3492,63.7831 62.9153,65.5186 66.3864,65.5186 67.2542,67.6881 60.3119,76.3661" stroke="#e80000" stroke-width="2" /><polyline fill="none" points="65.0847,65.9525 63.3492,67.2542" stroke="#7f0000" stroke-width="2" /></svg>