<?xml version="1.0" encoding="utf-8" ?>
<svg baseProfile="tiny" height="128" version="1.2" viewBox="0,0,128,128" width="128" xmlns="http://www.w3.org/2000/svg" xmlns:ev="http://www.w3.org/2001/xml-events" xmlns:xlink="http://www.w3.org/1999/xlink"><defs /><polyline fill="none" points="95.7823,67.483 97.9592,63.5646 97.5238,60.0816 95.3469,57.034 84.4626,47.0204 76.6259,42.6667 57.034,36.1361 38.7483,37.0068 35.2653,41.3605 33.9592,54.8571 42.2313,79.2381 54.8571,95.3469 61.3878,100.5714 66.6122,102.3129 83.5918,102.7483 96.2177,97.9592 104.0544,87.9456 106.2313,83.1565 106.2313,74.449 101.4422,69.2245 76.6259,51.3741" stroke="#00007f" stroke-width="2" /><polyline fill="none" points="50.5034,74.449 42.6667,74.449 19.5918,85.7687" stroke="#0000ff" stroke-width="2" /><polyline fill="none" points="68.3537,82.2857 30.4762,96.2177" stroke="#0080ff" stroke-width="2" /><polyline fill="none" points="80.5442,76.6259 84.0272,75.3197 107.102,75.7551" stroke="#15ffe1" stroke-width="2" /><polyline fill="none" points="89.6871,90.9932 94.0408,89.6871 119.2925,89.6871" stroke="#7cff79" stroke-width="2" /><polyline fill="none" points="74.0136,75.7551 75.7551,78.8027 76.1905,89.2517 77.0612,84.898" stroke="#e4ff12" stroke-width="2" /><polyline fill="none" points="56.5986,51.3741 58.7755,64.8707" stroke="#ff9400" stroke-width="2" /><polyline fill="none" points="74.0136,56.1633 77.0612,64.8707" stroke="#ff1d00" stroke-width="2" /><polyline fill="none" points="39.619,39.619 33.9592,29.1701 19.5918,13.932 10.8844,8.7075 8.7075,9.1429 11.3197,23.9456 20.0272,48.3265 24.381,54.4218 32.2177,56.5986" stroke="#7f0000" stroke-width="2" /></svg>