<?xml version="1.0" encoding="utf-8" ?>
<svg baseProfile="tiny" height="128" version="1.2" viewBox="0,0,128,128" width="128" xmlns="http://www.w3.org/2000/svg" xmlns:ev="http://www.w3.org/2001/xml-events" xmlns:xlink="http://www.w3.org/1999/xlink"><defs /><polyline fill="none" points="39.9186,25.6 29.0712,27.7695 19.9593,33.8441 15.1864,41.6542 14.7525,54.2373 17.3559,61.1797 25.1661,71.1593 36.0136,80.2712 43.8237,82.4407 53.8034,82.4407 70.7254,68.5559 73.3288,62.0475 73.3288,48.1627 69.4237,37.3153 64.6508,31.6746 46.4271,25.6 40.7864,25.6" stroke="#00007f" stroke-width="2" /><polyline fill="none" points="60.3119,30.8068 63.3492,25.1661 72.0271,14.7525 77.6678,33.4102 78.5356,43.3898" stroke="#0000bf" stroke-width="2" /><polyline fill="none" points="30.8068,26.4678 22.1288,8.678 17.3559,18.6576 13.0169,47.7288" stroke="#0000fe" stroke-width="2" /><polyline fill="none" points="25.6,42.0881 26.4678,39.4847 31.2407,38.1831 35.5797,40.3525 37.3153,43.8237 35.1458,45.9932 30.8068,45.5593 27.7695,42.522 26.4678,38.1831" stroke="#0028ff" stroke-width="2" /><polyline fill="none" points="30.8068,38.1831 29.5051,42.0881 30.8068,45.9932 32.1085,46.4271 32.9763,44.6915 33.8441,40.7864 33.4102,39.4847 32.5424,39.9186 30.8068,45.9932 31.6746,40.3525 32.1085,43.3898" stroke="#0060ff" stroke-width="2" /><polyline fill="none" points="53.8034,44.2576 59.0102,40.7864 68.5559,38.6169 69.4237,43.3898 61.6136,47.7288 55.9729,48.5966 52.9356,43.3898" stroke="#009cff" stroke-width="2" /><polyline fill="none" points="62.4814,40.3525 60.3119,43.8237 59.4441,48.1627 61.1797,46.4271 62.4814,41.6542 60.3119,46.4271 60.7458,40.7864 56.4068,42.9559" stroke="#00d4ff" stroke-width="2" /><polyline fill="none" points="43.8237,54.6712 40.7864,61.1797 43.8237,62.0475 45.9932,60.3119 45.1254,54.2373" stroke="#1fffd7" stroke-width="2" /><polyline fill="none" points="45.5593,56.8407 57.7085,48.1627" stroke="#4cffaa" stroke-width="2" /><polyline fill="none" points="45.9932,58.1424 68.9898,55.539" stroke="#7cff79" stroke-width="2" /><polyline fill="none" points="44.6915,62.0475 81.5729,66.3864" stroke="#aaff4c" stroke-width="2" /><polyline fill="none" points="42.9559,55.1051 34.7119,52.5017 26.9017,51.6339" stroke="#d7ff1f" stroke-width="2" /><polyline fill="none" points="40.7864,57.2746 21.6949,56.8407 13.0169,58.5763" stroke="#ffe500" stroke-width="2" /><polyline fill="none" points="40.7864,61.1797 19.5254,68.9898" stroke="#ffb100" stroke-width="2" /><polyline fill="none" points="16.922,60.7458 12.1492,65.0847 10.4136,70.2915 8.678,85.9119 15.1864,103.7017 21.6949,113.6814 27.7695,119.322" stroke="#ff7a00" stroke-width="2" /><polyline fill="none" points="72.0271,57.2746 79.4034,65.0847 87.2136,90.2508 87.2136,101.5322 79.4034,118.0203" stroke="#ff4600" stroke-width="2" /><polyline fill="none" points="65.9525,89.3831 65.5186,103.2678 67.6881,105.0034 71.5932,105.0034 73.7627,100.6644 74.1966,87.6475" stroke="#fe1200" stroke-width="2" /><polyline fill="none" points="63.7831,105.0034 61.6136,108.9085 62.4814,110.6441 66.8203,107.1729 67.6881,109.7763 69.4237,109.7763 72.8949,106.3051" stroke="#bf0000" stroke-width="2" /><polyline fill="none" points="33.8441,87.2136 33.4102,108.9085 31.2407,109.7763 22.1288,108.4746 21.261,107.1729 18.6576,84.6102" stroke="#7f0000" stroke-width="2" /></svg>