<?xml version="1.0" encoding="utf-8" ?>
<svg baseProfile="tiny" height="128" version="1.2" viewBox="0,0,128,128" width="128" xmlns="http://www.w3.org/2000/svg" xmlns:ev="http://www.w3.org/2001/xml-events" xmlns:xlink="http://www.w3.org/1999/xlink"><defs /><polyline fill="none" points="68.122,31.6746 46.861,40.7864 30.3729,51.2 15.6203,64.6508 11.2814,71.1593 8.678,78.9695 9.9797,88.9492 14.7525,94.5898 19.5254,97.1932 26.4678,99.3627 35.1458,100.2305 46.861,100.2305 55.9729,97.6271 68.122,88.0814 75.4983,76.3661 82.8746,59.878 82.8746,48.5966 80.2712,44.6915 68.9898,42.0881 55.539,42.0881 44.2576,45.5593" stroke="#00007f" stroke-width="2" /><polyline fill="none" points="42.0881,94.1559 44.6915,118.0203 47.2949,108.9085" stroke="#0000ba" stroke-width="2" /><polyline fill="none" points="56.8407,80.2712 60.3119,103.2678 63.7831,113.6814 64.2169,105.0034" stroke="#0000f5" stroke-width="2" /><polyline fill="none" points="70.7254,79.4034 75.9322,96.3254" stroke="#0020ff" stroke-width="2" /><polyline fill="none" points="77.6678,67.2542 85.0441,92.4203 82.8746,94.5898 79.4034,95.4576" stroke="#0054ff" stroke-width="2" /><polyline fill="none" points="20.8271,92.8542 18.6576,103.2678 10.8475,119.322 39.9186,85.478 23.8644,114.5492 23.4305,112.8136" stroke="#008cff" stroke-width="2" /><polyline fill="none" points="17.7898,82.8746 17.7898,86.3458 30.8068,88.5153 30.3729,85.0441 22.9966,77.6678 17.3559,77.2339 13.4508,79.4034 13.4508,81.5729 17.7898,82.4407" stroke="#00c0ff" stroke-width="2" /><polyline fill="none" points="38.6169,68.122 26.0339,75.4983 26.4678,78.9695 35.5797,82.0068 44.6915,82.4407 47.2949,81.5729 50.3322,78.1017" stroke="#0ff8e7" stroke-width="2" /><polyline fill="none" points="62.9153,61.6136 59.4441,62.4814 58.5763,66.3864 71.1593,69.8576 72.461,67.6881 72.0271,65.5186 60.3119,62.9153" stroke="#39ffbd" stroke-width="2" /><polyline fill="none" points="40.3525,70.2915 42.9559,73.7627 45.1254,82.8746" stroke="#66ff90" stroke-width="2" /><polyline fill="none" points="55.1051,38.6169 55.1051,26.4678 58.1424,19.0915" stroke="#90ff66" stroke-width="2" /><polyline fill="none" points="72.0271,10.8475 74.1966,10.8475 77.2339,13.8847 78.9695,21.261 66.3864,21.6949" stroke="#bdff39" stroke-width="2" /><polyline fill="none" points="62.4814,25.1661 62.4814,40.7864 61.6136,36.4475" stroke="#e7ff0f" stroke-width="2" /><polyline fill="none" points="59.4441,19.5254 62.0475,16.922 81.5729,8.678 83.3085,17.7898 83.7424,36.8814" stroke="#ffd300" stroke-width="2" /><polyline fill="none" points="67.2542,23.4305 66.8203,24.2983" stroke="#ffa300" stroke-width="2" /><polyline fill="none" points="74.6305,21.6949 76.3661,22.5627" stroke="#ff6f00" stroke-width="2" /><polyline fill="none" points="68.9898,32.1085 72.0271,39.4847 74.6305,40.3525 78.1017,38.6169 80.7051,34.7119 80.2712,22.5627" stroke="#ff3f00" stroke-width="2" /><polyline fill="none" points="75.0644,29.0712 75.0644,35.1458 76.3661,34.278 77.6678,29.5051" stroke="#f50b00" stroke-width="2" /><polyline fill="none" points="75.9322,23.8644 72.0271,27.3356 71.1593,30.8068 72.8949,29.939" stroke="#ba0000" stroke-width="2" /><polyline fill="none" points="76.3661,26.0339 75.0644,29.939" stroke="#7f0000" stroke-width="2" /></svg>