<?xml version="1.0" encoding="utf-8" ?>
<svg baseProfile="tiny" height="128" version="1.2" viewBox="0,0,128,128" width="128" xmlns="http://www.w3.org/2000/svg" xmlns:ev="http://www.w3.org/2001/xml-events" xmlns:xlink="http://www.w3.org/1999/xlink"><defs /><polyline fill="none" points="35.1458,42.0881 31.2407,46.861 26.0339,59.4441 25.6,73.3288 26.9017,80.2712 30.3729,85.9119 35.5797,91.5525 49.8983,98.9288 66.8203,100.6644 75.0644,100.2305 82.8746,98.061 96.7593,91.1186 109.7763,77.6678 113.6814,67.2542 113.6814,58.5763 111.9458,53.3695 106.3051,45.1254 95.8915,39.4847 73.3288,36.0136 52.9356,36.0136" stroke="#00007f" stroke-width="2" /><polyline fill="none" points="52.9356,48.1627 50.7661,49.4644 59.878,45.9932 52.0678,46.861" stroke="#0000e8" stroke-width="2" /><polyline fill="none" points="92.8542,52.0678 89.8169,51.2 86.7797,52.5017 84.6102,55.1051 82.8746,61.6136 83.3085,67.6881 85.478,69.4237 91.1186,68.5559 99.3627,60.3119 101.0983,53.8034 99.7966,52.0678 94.1559,50.3322 90.2508,50.3322 85.9119,53.3695" stroke="#0038ff" stroke-width="2" /><polyline fill="none" points="55.539,45.9932 52.0678,48.5966 47.7288,55.539 45.5593,62.9153 46.4271,65.5186 50.3322,65.5186 55.9729,62.9153 62.0475,58.5763 69.8576,49.4644 70.7254,44.6915 68.9898,43.8237 65.0847,43.8237 59.0102,46.4271" stroke="#0094ff" stroke-width="2" /><polyline fill="none" points="56.4068,55.539 56.4068,52.0678" stroke="#0cf4ea" stroke-width="2" /><polyline fill="none" points="44.6915,42.0881 44.6915,39.4847 47.7288,35.5797 64.6508,18.6576 72.8949,10.8475 77.6678,8.678 79.4034,8.678 80.7051,11.2814 82.8746,33.8441 85.9119,40.3525" stroke="#56ffa0" stroke-width="2" /><polyline fill="none" points="92.8542,34.7119 119.322,13.0169 100.2305,51.2" stroke="#a0ff56" stroke-width="2" /><polyline fill="none" points="66.3864,77.6678 63.3492,84.6102 63.3492,90.6847 64.6508,91.5525 68.9898,89.8169 80.2712,77.6678 80.7051,74.6305 76.8,74.6305 70.2915,77.6678" stroke="#eaff0c" stroke-width="2" /><polyline fill="none" points="58.5763,82.0068 44.6915,78.5356 34.7119,74.1966" stroke="#ffaa00" stroke-width="2" /><polyline fill="none" points="79.4034,85.0441 80.2712,83.3085 86.3458,82.0068 105.8712,80.7051" stroke="#ff5500" stroke-width="2" /><polyline fill="none" points="55.9729,90.2508 41.6542,94.5898 8.678,112.3797" stroke="#e80000" stroke-width="2" /><polyline fill="none" points="80.2712,87.2136 97.6271,91.5525 109.7763,96.3254" stroke="#7f0000" stroke-width="2" /></svg>