<?xml version="1.0" encoding="utf-8" ?>
<svg baseProfile="tiny" height="128" version="1.2" viewBox="0,0,128,128" width="128" xmlns="http://www.w3.org/2000/svg" xmlns:ev="http://www.w3.org/2001/xml-events" xmlns:xlink="http://www.w3.org/1999/xlink"><defs /><polyline fill="none" points="88.5153,44.2576 85.0441,39.0508 76.3661,36.8814 65.5186,37.7492 59.0102,43.3898 45.9932,65.5186 38.1831,89.3831 38.1831,104.5695 43.8237,110.2102 51.6339,112.3797 62.0475,112.3797 71.1593,110.2102 83.3085,100.2305 97.6271,79.4034 101.5322,70.7254 102.8339,54.2373 93.2881,44.6915 85.478,39.9186 83.3085,39.9186" stroke="#00007f" stroke-width="2" /><polyline fill="none" points="84.1763,33.4102 119.322,15.1864 118.0203,21.261 110.6441,39.9186 105.0034,47.7288" stroke="#0000fe" stroke-width="2" /><polyline fill="none" points="59.0102,32.5424 59.0102,25.6 54.6712,19.9593 40.3525,8.678 37.3153,16.922 37.3153,23.4305 44.6915,46.4271" stroke="#0060ff" stroke-width="2" /><polyline fill="none" points="62.4814,71.5932 65.5186,75.0644" stroke="#00d4ff" stroke-width="2" /><polyline fill="none" points="74.1966,69.4237 91.9864,71.5932" stroke="#4cffaa" stroke-width="2" /><polyline fill="none" points="74.1966,83.7424 84.1763,85.9119" stroke="#aaff4c" stroke-width="2" /><polyline fill="none" points="61.1797,92.4203 73.3288,98.061" stroke="#ffe500" stroke-width="2" /><polyline fill="none" points="46.861,60.7458 40.3525,57.7085 30.3729,57.7085" stroke="#ff7a00" stroke-width="2" /><polyline fill="none" points="51.2,76.3661 25.1661,75.0644" stroke="#fe1200" stroke-width="2" /><polyline fill="none" points="33.8441,91.5525 28.2034,90.2508 8.678,91.5525" stroke="#7f0000" stroke-width="2" /></svg>