<?xml version="1.0" encoding="utf-8" ?>
<svg baseProfile="tiny" height="128" version="1.2" viewBox="0,0,128,128" width="128" xmlns="http://www.w3.org/2000/svg" xmlns:ev="http://www.w3.org/2001/xml-events" xmlns:xlink="http://www.w3.org/1999/xlink"><defs /><polyline fill="none" points="20.3932,37.3153 13.0169,35.1458 9.1119,31.6746 8.678,19.5254 12.1492,14.3186 19.9593,8.678 30.8068,8.678 35.1458,9.9797 39.4847,13.4508 42.0881,20.3932 43.8237,37.3153 52.5017,39.9186 64.6508,39.9186 74.1966,41.6542 87.2136,46.861 95.8915,62.4814 114.5492,68.5559 119.322,74.1966 117.1525,74.6305 100.2305,67.6881 88.5153,66.8203 83.7424,70.2915 80.7051,76.3661 79.8373,82.4407" stroke="#00007f" stroke-width="2" /><polyline fill="none" points="82.4407,68.5559 73.3288,65.0847 68.122,66.3864 64.2169,70.7254 59.4441,82.0068" stroke="#0000ff" stroke-width="2" /><polyline fill="none" points="65.9525,63.7831 47.7288,59.0102 42.9559,59.0102 34.7119,67.6881 33.4102,75.9322" stroke="#0080ff" stroke-width="2" /><polyline fill="none" points="45.1254,55.1051 44.6915,55.1051" stroke="#15ffe1" stroke-width="2" /><polyline fill="none" points="42.9559,56.8407 42.9559,56.8407" stroke="#7cff79" stroke-width="2" /><polyline fill="none" points="42.9559,56.8407 41.2203,54.6712 31.6746,54.6712 26.0339,60.7458 22.9966,70.2915" stroke="#e4ff12" stroke-width="2" /><polyline fill="none" points="19.5254,36.0136 28.2034,55.1051" stroke="#ff9400" stroke-width="2" /><polyline fill="none" points="26.4678,19.9593 26.4678,19.9593" stroke="#ff1d00" stroke-width="2" /><polyline fill="none" points="9.9797,24.2983 12.5831,28.6373 17.3559,30.8068" stroke="#7f0000" stroke-width="2" /></svg>