<?xml version="1.0" encoding="utf-8" ?>
<svg baseProfile="tiny" height="128" version="1.2" viewBox="0,0,128,128" width="128" xmlns="http://www.w3.org/2000/svg" xmlns:ev="http://www.w3.org/2001/xml-events" xmlns:xlink="http://www.w3.org/1999/xlink"><defs /><polyline fill="none" points="37.7492,27.3356 28.6373,19.5254 24.2983,17.7898 8.678,16.922 8.678,19.5254 24.7322,39.9186 31.2407,43.8237" stroke="#00007f" stroke-width="2" /><polyline fill="none" points="90.2508,28.6373 101.0983,13.4508 111.5119,9.1119 118.8881,8.678 119.322,10.4136 104.1356,65.5186 99.3627,78.5356 97.6271,74.6305" stroke="#0000ff" stroke-width="2" /><polyline fill="none" points="38.1831,26.0339 35.5797,35.5797 32.9763,65.0847 33.8441,77.2339 36.8814,81.5729 49.8983,88.5153 65.9525,91.1186 77.6678,91.1186 95.0237,87.6475 110.2102,51.2 102.4,18.2237 96.3254,16.922 66.3864,27.3356 55.539,25.1661 39.0508,24.7322 36.4475,25.6 35.1458,27.7695" stroke="#0080ff" stroke-width="2" /><polyline fill="none" points="58.5763,58.5763 48.1627,61.6136" stroke="#15ffe1" stroke-width="2" /><polyline fill="none" points="56.4068,67.6881 52.0678,70.2915" stroke="#7cff79" stroke-width="2" /><polyline fill="none" points="57.7085,74.6305 56.8407,75.9322" stroke="#e4ff12" stroke-width="2" /><polyline fill="none" points="84.6102,61.1797 95.8915,64.6508" stroke="#ff9400" stroke-width="2" /><polyline fill="none" points="75.0644,83.3085 86.3458,82.8746" stroke="#ff1d00" stroke-width="2" /><polyline fill="none" points="85.478,68.5559 98.4949,74.6305" stroke="#7f0000" stroke-width="2" /></svg>