<?xml version="1.0" encoding="utf-8" ?>
<svg baseProfile="tiny" height="128" version="1.2" viewBox="0,0,128,128" width="128" xmlns="http://www.w3.org/2000/svg" xmlns:ev="http://www.w3.org/2001/xml-events" xmlns:xlink="http://www.w3.org/1999/xlink"><defs /><polyline fill="none" points="52.5017,12.1492 43.8237,12.5831 38.6169,14.7525 30.8068,19.9593 27.7695,26.9017 28.2034,36.4475 33.8441,42.9559 42.0881,47.2949 53.8034,49.8983 62.4814,49.4644 68.122,45.5593 69.4237,41.6542 69.8576,35.5797 67.6881,29.939 59.878,22.9966 51.2,17.7898 42.9559,16.922" stroke="#00007f" stroke-width="2" /><polyline fill="none" points="26.9017,19.9593 26.0339,9.9797 27.7695,8.678 37.7492,13.8847" stroke="#0000fe" stroke-width="2" /><polyline fill="none" points="58.5763,20.8271 75.4983,15.1864 75.4983,19.5254 69.4237,34.278" stroke="#0060ff" stroke-width="2" /><polyline fill="none" points="41.6542,46.861 41.6542,86.3458 47.2949,92.8542 67.2542,104.1356" stroke="#00d4ff" stroke-width="2" /><polyline fill="none" points="63.7831,46.861 71.5932,49.8983 82.8746,59.878 90.6847,73.3288 91.9864,83.7424 87.6475,90.2508 78.5356,95.0237 57.7085,99.3627" stroke="#4cffaa" stroke-width="2" /><polyline fill="none" points="92.8542,82.4407 100.6644,63.3492 108.0407,50.7661 114.1153,43.3898 118.0203,42.522 119.322,44.6915 118.8881,49.0305 115.8508,54.2373 78.9695,77.6678" stroke="#aaff4c" stroke-width="2" /><polyline fill="none" points="46.861,35.1458 48.5966,35.1458 46.861,35.1458 48.1627,36.4475" stroke="#ffe500" stroke-width="2" /><polyline fill="none" points="55.9729,36.8814 87.6475,36.8814" stroke="#ff7a00" stroke-width="2" /><polyline fill="none" points="58.1424,40.3525 77.6678,47.2949" stroke="#fe1200" stroke-width="2" /><polyline fill="none" points="30.8068,30.8068 8.678,25.1661" stroke="#7f0000" stroke-width="2" /></svg>