<?xml version="1.0" encoding="utf-8" ?>
<svg baseProfile="tiny" height="128" version="1.2" viewBox="0,0,128,128" width="128" xmlns="http://www.w3.org/2000/svg" xmlns:ev="http://www.w3.org/2001/xml-events" xmlns:xlink="http://www.w3.org/1999/xlink"><defs /><polyline fill="none" points="16.0542,29.939 16.922,43.8237 19.9593,54.6712 23.8644,60.3119 28.6373,60.7458 31.6746,54.6712 33.4102,29.939 35.1458,23.8644 34.7119,16.922 32.9763,11.7153 31.6746,9.5458 30.3729,11.7153 29.939,23.4305 28.6373,28.2034 26.4678,31.2407 22.5627,27.7695 13.8847,8.678 10.8475,32.5424" stroke="#00007f" stroke-width="2" /><polyline fill="none" points="24.2983,36.8814 24.2983,36.8814" stroke="#0000fe" stroke-width="2" /><polyline fill="none" points="8.678,36.8814 9.1119,39.9186 9.9797,40.3525 10.8475,39.0508" stroke="#0060ff" stroke-width="2" /><polyline fill="none" points="26.0339,36.0136 26.4678,36.4475" stroke="#00d4ff" stroke-width="2" /><polyline fill="none" points="15.1864,50.3322 19.9593,51.2 25.1661,48.5966" stroke="#4cffaa" stroke-width="2" /><polyline fill="none" points="36.0136,42.0881 35.5797,41.2203" stroke="#aaff4c" stroke-width="2" /><polyline fill="none" points="31.2407,60.3119 31.6746,77.6678 32.5424,80.7051 34.7119,82.0068 38.1831,80.7051 41.6542,75.4983 43.3898,56.8407 75.0644,56.4068 79.4034,70.2915 81.139,71.5932 91.9864,69.8576 95.8915,66.8203 95.0237,59.0102 90.2508,45.5593 87.2136,39.9186 81.139,34.7119 72.8949,32.1085 62.9153,32.1085 35.1458,35.5797" stroke="#ffe500" stroke-width="2" /><polyline fill="none" points="36.8814,78.1017 45.5593,75.4983 51.6339,70.7254 53.8034,64.2169 54.2373,53.8034" stroke="#ff7a00" stroke-width="2" /><polyline fill="none" points="72.0271,56.4068 70.2915,59.878 72.8949,68.5559 81.139,68.122" stroke="#fe1200" stroke-width="2" /><polyline fill="none" points="87.6475,41.2203 95.0237,35.1458 99.7966,32.9763 105.0034,34.278 111.078,41.2203 119.322,43.3898" stroke="#7f0000" stroke-width="2" /></svg>