<?xml version="1.0" encoding="utf-8" ?>
<svg baseProfile="tiny" height="128" version="1.2" viewBox="0,0,128,128" width="128" xmlns="http://www.w3.org/2000/svg" xmlns:ev="http://www.w3.org/2001/xml-events" xmlns:xlink="http://www.w3.org/1999/xlink"><defs /><polyline fill="none" points="25.1661,40.3525 30.3729,12.5831 33.4102,26.9017 34.7119,29.939 36.8814,31.6746 52.0678,33.4102 77.2339,32.5424 85.0441,8.678 95.0237,43.8237" stroke="#00007f" stroke-width="2" /><polyline fill="none" points="28.6373,44.2576 21.6949,56.8407 20.8271,61.6136 20.3932,69.8576 23.4305,80.2712 32.5424,89.8169 39.9186,93.722 52.5017,96.3254 64.2169,95.8915 80.2712,91.9864 97.1932,81.5729 100.6644,76.3661 104.5695,63.7831 98.9288,46.861 100.6644,47.2949" stroke="#0000e8" stroke-width="2" /><polyline fill="none" points="62.9153,65.5186 56.4068,65.0847 54.2373,65.5186 53.3695,68.122 55.9729,72.461 62.4814,73.7627 68.9898,68.5559 69.4237,65.9525 68.122,64.2169 61.1797,62.0475 55.1051,65.9525" stroke="#0038ff" stroke-width="2" /><polyline fill="none" points="43.8237,74.6305 36.4475,75.0644 35.1458,78.9695 39.4847,84.1763 43.8237,87.2136 52.9356,87.2136 58.1424,84.1763 62.4814,78.5356 67.2542,85.9119 74.1966,87.6475 79.4034,85.478 84.1763,79.4034 84.6102,75.0644 82.0068,72.8949" stroke="#0094ff" stroke-width="2" /><polyline fill="none" points="9.9797,69.4237 22.5627,67.2542 38.6169,66.8203" stroke="#0cf4ea" stroke-width="2" /><polyline fill="none" points="8.678,81.5729 34.278,77.6678" stroke="#56ffa0" stroke-width="2" /><polyline fill="none" points="85.9119,67.6881 114.9831,72.8949" stroke="#a0ff56" stroke-width="2" /><polyline fill="none" points="87.6475,78.1017 107.1729,81.139 119.322,80.7051" stroke="#eaff0c" stroke-width="2" /><polyline fill="none" points="66.8203,49.0305 72.8949,45.5593 89.3831,44.6915" stroke="#ffaa00" stroke-width="2" /><polyline fill="none" points="35.1458,45.1254 42.522,45.1254 53.8034,50.3322" stroke="#ff5500" stroke-width="2" /><polyline fill="none" points="35.1458,45.9932 35.1458,51.2 36.8814,54.6712 45.1254,60.3119 49.8983,60.3119 53.8034,57.7085 56.8407,53.3695 56.8407,49.4644" stroke="#e80000" stroke-width="2" /><polyline fill="none" points="45.1254,45.9932 45.9932,55.539" stroke="#7f0000" stroke-width="2" /></svg>