<?xml version="1.0" encoding="utf-8" ?>
<svg baseProfile="tiny" height="128" version="1.2" viewBox="0,0,128,128" width="128" xmlns="http://www.w3.org/2000/svg" xmlns:ev="http://www.w3.org/2001/xml-events" xmlns:xlink="http://www.w3.org/1999/xlink"><defs /><polyline fill="none" points="57.2746,43.8237 48.1627,43.3898 42.9559,44.6915 32.5424,49.4644 24.2983,55.539 22.1288,58.1424 20.3932,63.7831 21.6949,66.3864 28.6373,72.0271 42.0881,77.2339 63.3492,78.5356 75.4983,75.9322 88.5153,68.122 91.5525,62.4814 91.1186,58.5763 86.3458,51.2 72.8949,43.8237 60.7458,41.6542 55.1051,42.522" stroke="#00007f" stroke-width="2" /><polyline fill="none" points="92.8542,59.878 93.2881,55.9729 97.1932,52.0678 105.0034,48.1627 113.2475,46.861 119.322,39.4847" stroke="#0000ff" stroke-width="2" /><polyline fill="none" points="32.1085,20.8271 25.6,21.6949 19.5254,25.6 13.0169,32.9763 8.678,40.7864 9.1119,45.9932 11.2814,48.5966 15.6203,51.2 27.7695,52.9356 39.4847,50.7661 46.4271,45.1254 49.8983,38.1831 51.2,26.9017 49.8983,23.8644 45.5593,21.6949" stroke="#0080ff" stroke-width="2" /><polyline fill="none" points="12.1492,24.2983 9.5458,8.678 13.4508,10.8475 18.6576,16.4881" stroke="#15ffe1" stroke-width="2" /><polyline fill="none" points="41.6542,20.3932 46.4271,10.8475 45.5593,22.1288" stroke="#7cff79" stroke-width="2" /><polyline fill="none" points="39.4847,82.4407 36.8814,86.7797 36.0136,95.8915" stroke="#e4ff12" stroke-width="2" /><polyline fill="none" points="59.878,78.5356 59.0102,91.9864" stroke="#ff9400" stroke-width="2" /><polyline fill="none" points="85.0441,79.8373 84.6102,91.5525" stroke="#ff1d00" stroke-width="2" /><polyline fill="none" points="95.8915,72.461 98.9288,89.8169" stroke="#7f0000" stroke-width="2" /></svg>