<?xml version="1.0" encoding="utf-8" ?>
<svg baseProfile="tiny" height="128" version="1.2" viewBox="0,0,128,128" width="128" xmlns="http://www.w3.org/2000/svg" xmlns:ev="http://www.w3.org/2001/xml-events" xmlns:xlink="http://www.w3.org/1999/xlink"><defs /><polyline fill="none" points="81.5729,49.8983 75.4983,45.5593 66.3864,42.9559 60.3119,42.0881 48.1627,44.6915 43.3898,47.2949 39.4847,52.0678 36.4475,59.0102 35.5797,65.5186 36.4475,71.5932 39.9186,82.4407 44.6915,89.3831 53.3695,97.1932 62.4814,101.0983 69.4237,101.5322 74.6305,100.2305 85.0441,91.1186 91.5525,76.3661 92.4203,68.9898 91.9864,61.1797 88.5153,48.5966 81.139,41.6542" stroke="#00007f" stroke-width="2" /><polyline fill="none" points="70.2915,47.2949 70.7254,39.9186 75.9322,29.5051 90.2508,20.8271 97.6271,20.8271 101.0983,24.2983 101.5322,31.2407 91.1186,47.7288 89.3831,56.8407" stroke="#0000bf" stroke-width="2" /><polyline fill="none" points="49.0305,43.3898 42.0881,36.0136 29.939,31.2407 22.5627,31.2407 17.7898,35.5797 17.3559,44.2576 20.3932,50.7661 24.7322,55.9729 39.4847,66.8203" stroke="#0000fe" stroke-width="2" /><polyline fill="none" points="65.5186,66.8203 66.8203,65.5186" stroke="#0028ff" stroke-width="2" /><polyline fill="none" points="55.9729,62.4814 55.539,62.0475" stroke="#0060ff" stroke-width="2" /><polyline fill="none" points="65.5186,78.5356 62.4814,76.3661 57.7085,77.2339 56.4068,78.9695 63.3492,83.7424 65.0847,79.4034 63.3492,76.3661" stroke="#009cff" stroke-width="2" /><polyline fill="none" points="64.6508,85.0441 59.878,91.1186 54.6712,92.8542 47.7288,91.5525 41.6542,86.3458" stroke="#00d4ff" stroke-width="2" /><polyline fill="none" points="64.2169,86.3458 71.5932,91.1186 76.3661,92.4203 79.8373,91.1186 80.7051,88.9492" stroke="#1fffd7" stroke-width="2" /><polyline fill="none" points="42.522,47.2949 40.7864,44.6915 34.7119,44.2576 31.2407,47.2949 29.939,53.3695 32.9763,56.4068 36.4475,57.2746" stroke="#4cffaa" stroke-width="2" /><polyline fill="none" points="75.9322,42.9559 81.5729,31.2407 85.9119,32.5424 88.9492,38.1831 88.9492,42.522 87.6475,45.9932 82.8746,49.4644" stroke="#7cff79" stroke-width="2" /><polyline fill="none" points="48.1627,80.7051 45.5593,82.8746 36.0136,83.3085 22.1288,77.6678" stroke="#aaff4c" stroke-width="2" /><polyline fill="none" points="50.3322,90.6847 40.3525,90.6847 16.922,84.1763" stroke="#d7ff1f" stroke-width="2" /><polyline fill="none" points="44.2576,75.4983 8.678,62.0475" stroke="#ffe500" stroke-width="2" /><polyline fill="none" points="78.9695,82.4407 95.0237,87.2136 103.2678,87.2136" stroke="#ffb100" stroke-width="2" /><polyline fill="none" points="69.4237,94.5898 84.1763,91.1186 104.5695,92.8542" stroke="#ff7a00" stroke-width="2" /><polyline fill="none" points="87.2136,67.6881 98.4949,70.7254 119.322,69.8576" stroke="#ff4600" stroke-width="2" /><polyline fill="none" points="56.8407,18.6576 51.6339,16.922 50.3322,17.7898 49.4644,22.9966 58.1424,41.6542 56.8407,29.939 50.7661,17.7898" stroke="#fe1200" stroke-width="2" /><polyline fill="none" points="50.7661,25.6 41.2203,17.7898 37.7492,16.4881 32.9763,16.4881 31.2407,22.1288 42.522,34.278 59.0102,43.8237" stroke="#bf0000" stroke-width="2" /><polyline fill="none" points="54.6712,22.5627 58.5763,10.8475 61.1797,8.678 65.5186,11.7153 68.122,17.7898 66.8203,28.2034 58.1424,41.2203" stroke="#7f0000" stroke-width="2" /></svg>