<?xml version="1.0" encoding="utf-8" ?>
<svg baseProfile="tiny" height="128" version="1.2" viewBox="0,0,128,128" width="128" xmlns="http://www.w3.org/2000/svg" xmlns:ev="http://www.w3.org/2001/xml-events" xmlns:xlink="http://www.w3.org/1999/xlink"><defs /><polyline fill="none" points="26.4678,56.4068 29.939,54.2373 64.2169,42.522 64.2169,22.5627 62.9153,16.4881 55.539,12.1492 51.6339,12.1492 44.6915,15.6203 35.1458,27.3356 25.1661,47.7288 23.8644,52.5017" stroke="#00007f" stroke-width="2" /><polyline fill="none" points="80.2712,37.7492 114.5492,41.2203 116.2847,38.6169 110.2102,25.1661 106.3051,9.1119 99.3627,8.678 88.5153,22.5627 84.1763,36.8814" stroke="#0000ff" stroke-width="2" /><polyline fill="none" points="85.0441,35.5797 68.9898,38.6169 42.0881,49.8983 27.7695,59.878 22.5627,65.5186 18.2237,70.7254 15.6203,79.8373 16.0542,88.5153 20.3932,92.4203 32.9763,99.7966 55.1051,108.4746 78.5356,109.7763 87.6475,104.5695 91.9864,99.3627 101.5322,74.1966 102.4,60.3119 100.2305,54.2373 96.3254,49.4644 89.3831,44.6915 76.8,39.9186 76.3661,38.6169" stroke="#0080ff" stroke-width="2" /><polyline fill="none" points="68.122,70.2915 68.122,70.2915" stroke="#15ffe1" stroke-width="2" /><polyline fill="none" points="63.7831,74.6305 48.5966,76.8 32.1085,81.139 16.0542,91.9864 8.678,101.9661" stroke="#7cff79" stroke-width="2" /><polyline fill="none" points="75.4983,87.6475 54.2373,88.5153 43.3898,91.5525 34.278,96.7593 29.939,100.6644 23.8644,107.6068 20.3932,114.9831" stroke="#e4ff12" stroke-width="2" /><polyline fill="none" points="81.139,77.2339 93.2881,78.5356 101.0983,81.5729 119.322,98.061" stroke="#ff9400" stroke-width="2" /><polyline fill="none" points="77.6678,92.8542 93.2881,95.4576 105.4373,102.4" stroke="#ff1d00" stroke-width="2" /><polyline fill="none" points="75.4983,62.9153 68.5559,66.3864 68.122,69.8576 70.7254,71.1593 71.1593,69.8576" stroke="#7f0000" stroke-width="2" /></svg>