<?xml version="1.0" encoding="utf-8" ?>
<svg baseProfile="tiny" height="128" version="1.2" viewBox="0,0,128,128" width="128" xmlns="http://www.w3.org/2000/svg" xmlns:ev="http://www.w3.org/2001/xml-events" xmlns:xlink="http://www.w3.org/1999/xlink"><defs /><polyline fill="none" points="41.2203,35.1458 47.2949,28.2034 55.1051,22.9966 61.6136,20.3932 70.2915,19.9593 78.9695,22.1288 86.7797,25.6 95.0237,34.278 97.6271,41.2203 97.1932,53.3695 93.2881,61.6136 88.5153,68.122 80.7051,73.7627 66.8203,77.6678 57.7085,76.8 50.7661,74.1966 42.522,66.8203 39.4847,59.878 38.6169,53.8034 39.0508,47.2949 42.0881,41.2203" stroke="#00007f" stroke-width="2" /><polyline fill="none" points="76.8,61.1797 71.5932,64.2169 68.122,59.4441 67.2542,53.8034 68.122,60.3119 64.6508,64.2169 60.3119,65.5186 56.8407,62.9153" stroke="#0000de" stroke-width="2" /><polyline fill="none" points="67.6881,52.9356 68.9898,51.2 65.5186,49.8983 66.8203,51.6339" stroke="#0028ff" stroke-width="2" /><polyline fill="none" points="78.9695,34.7119 79.4034,32.9763 78.1017,32.9763" stroke="#0080ff" stroke-width="2" /><polyline fill="none" points="59.878,38.1831 59.878,36.8814" stroke="#00d4ff" stroke-width="2" /><polyline fill="none" points="54.2373,23.4305 51.2,12.5831 51.6339,8.678 45.1254,18.6576 45.1254,27.7695" stroke="#36ffc0" stroke-width="2" /><polyline fill="none" points="81.5729,18.2237 86.3458,16.0542 90.6847,11.2814 93.722,24.7322 92.4203,28.2034" stroke="#7cff79" stroke-width="2" /><polyline fill="none" points="69.4237,46.861 73.7627,43.8237 99.7966,42.9559 112.3797,44.2576" stroke="#c0ff36" stroke-width="2" /><polyline fill="none" points="69.4237,49.0305 119.322,47.2949" stroke="#ffe500" stroke-width="2" /><polyline fill="none" points="62.0475,49.0305 36.0136,43.3898 18.2237,43.3898 8.678,44.2576" stroke="#ff9400" stroke-width="2" /><polyline fill="none" points="62.9153,50.3322 45.9932,50.3322 32.1085,52.5017 10.4136,58.5763" stroke="#ff4600" stroke-width="2" /><polyline fill="none" points="63.7831,52.5017 51.6339,55.1051 19.9593,71.5932" stroke="#de0000" stroke-width="2" /><polyline fill="none" points="68.9898,48.5966 92.4203,50.3322 108.9085,53.8034 118.0203,57.2746" stroke="#7f0000" stroke-width="2" /></svg>