<?xml version="1.0" encoding="utf-8" ?>
<svg baseProfile="tiny" height="128" version="1.2" viewBox="0,0,128,128" width="128" xmlns="http://www.w3.org/2000/svg" xmlns:ev="http://www.w3.org/2001/xml-events" xmlns:xlink="http://www.w3.org/1999/xlink"><defs /><polyline fill="none" points="59.878,25.6 41.2203,31.6746 28.2034,40.3525 26.0339,43.8237 25.6,48.1627 29.0712,55.1051 37.7492,60.7458 53.3695,64.6508 68.122,63.7831 85.9119,59.4441 91.5525,56.4068 94.5898,51.6339 93.722,41.2203 87.2136,32.9763 78.9695,28.6373 70.2915,26.9017 60.3119,26.9017 48.1627,29.5051" stroke="#00007f" stroke-width="2" /><polyline fill="none" points="34.7119,31.6746 35.5797,32.5424 36.4475,26.0339 42.9559,8.678 46.4271,14.3186 47.7288,28.2034" stroke="#0000ff" stroke-width="2" /><polyline fill="none" points="78.9695,26.9017 81.5729,22.5627 91.5525,12.5831 92.8542,30.8068 94.1559,36.0136" stroke="#0080ff" stroke-width="2" /><polyline fill="none" points="33.8441,49.4644 25.6,42.0881 13.8847,36.8814 8.678,36.0136" stroke="#15ffe1" stroke-width="2" /><polyline fill="none" points="51.2,50.3322 32.9763,50.7661 9.5458,56.4068" stroke="#7cff79" stroke-width="2" /><polyline fill="none" points="45.9932,56.4068 33.4102,63.7831 26.4678,71.5932" stroke="#e4ff12" stroke-width="2" /><polyline fill="none" points="80.2712,46.861 119.322,47.7288" stroke="#ff9400" stroke-width="2" /><polyline fill="none" points="86.7797,55.1051 99.3627,62.0475 115.8508,65.5186" stroke="#ff1d00" stroke-width="2" /><polyline fill="none" points="81.5729,60.3119 88.0814,67.6881 101.0983,76.8" stroke="#7f0000" stroke-width="2" /></svg>