<?xml version="1.0" encoding="utf-8" ?>
<svg baseProfile="tiny" height="128" version="1.2" viewBox="0,0,128,128" width="128" xmlns="http://www.w3.org/2000/svg" xmlns:ev="http://www.w3.org/2001/xml-events" xmlns:xlink="http://www.w3.org/1999/xlink"><defs /><polyline fill="none" points="62.0475,62.0475 45.5593,51.2 33.4102,48.5966 29.5051,49.0305 12.5831,59.878 8.678,78.1017 8.678,109.7763 16.4881,116.7186 25.6,119.322 54.6712,118.4542 66.3864,110.2102 77.6678,98.061 82.4407,85.478 84.1763,70.2915 83.3085,57.7085 80.7051,55.9729 68.5559,53.8034 59.0102,53.8034 52.0678,56.4068" stroke="#00007f" stroke-width="2" /><polyline fill="none" points="14.3186,55.9729 13.8847,29.0712 16.4881,13.4508 19.0915,8.678 23.8644,11.7153 26.4678,16.922 35.5797,36.0136 41.2203,58.1424 42.522,57.2746" stroke="#0010ff" stroke-width="2" /><polyline fill="none" points="67.6881,41.2203 69.4237,46.4271 68.5559,55.1051 75.9322,42.9559 90.6847,29.5051 95.4576,27.7695 97.6271,33.4102 97.6271,55.539 94.5898,62.0475 91.5525,78.1017" stroke="#00a4ff" stroke-width="2" /><polyline fill="none" points="90.2508,79.8373 88.5153,83.7424" stroke="#3fffb7" stroke-width="2" /><polyline fill="none" points="87.6475,84.1763 82.0068,84.6102" stroke="#b7ff3f" stroke-width="2" /><polyline fill="none" points="31.6746,73.3288 32.9763,80.7051 36.4475,82.4407 35.1458,77.2339 33.4102,78.1017" stroke="#ffb900" stroke-width="2" /><polyline fill="none" points="62.4814,77.6678 59.878,78.5356 57.7085,81.5729 59.878,80.7051" stroke="#ff3000" stroke-width="2" /><polyline fill="none" points="42.9559,92.8542 42.9559,98.4949 45.5593,101.0983 53.3695,101.0983 53.8034,98.061" stroke="#7f0000" stroke-width="2" /></svg>