<?xml version="1.0" encoding="utf-8" ?>
<svg baseProfile="tiny" height="128" version="1.2" viewBox="0,0,128,128" width="128" xmlns="http://www.w3.org/2000/svg" xmlns:ev="http://www.w3.org/2001/xml-events" xmlns:xlink="http://www.w3.org/1999/xlink"><defs /><polyline fill="none" points="47.7288,31.6746 46.861,52.9356" stroke="#00007f" stroke-width="2" /><polyline fill="none" points="83.7424,27.3356 82.4407,48.1627 79.4034,55.1051" stroke="#0000f1" stroke-width="2" /><polyline fill="none" points="58.5763,55.539 62.9153,55.539" stroke="#004cff" stroke-width="2" /><polyline fill="none" points="91.5525,56.4068 102.4,51.6339 116.7186,48.5966" stroke="#00b0ff" stroke-width="2" /><polyline fill="none" points="95.8915,67.6881 119.322,70.7254" stroke="#29ffcd" stroke-width="2" /><polyline fill="none" points="8.678,55.1051 30.8068,55.1051 32.1085,53.8034" stroke="#7cff79" stroke-width="2" /><polyline fill="none" points="19.9593,68.122 42.0881,67.2542 49.8983,65.0847" stroke="#cdff29" stroke-width="2" /><polyline fill="none" points="28.6373,29.0712 29.0712,22.1288 32.5424,12.1492 41.2203,26.9017" stroke="#ffc400" stroke-width="2" /><polyline fill="none" points="72.8949,21.261 82.8746,8.678 85.9119,13.0169 86.7797,23.8644" stroke="#ff6700" stroke-width="2" /><polyline fill="none" points="59.878,55.9729 59.4441,60.3119 58.1424,62.9153 52.9356,63.7831 51.6339,60.3119" stroke="#f10700" stroke-width="2" /><polyline fill="none" points="60.3119,56.4068 59.878,64.2169 62.4814,65.5186 65.5186,62.4814" stroke="#7f0000" stroke-width="2" /></svg>