<?xml version="1.0" encoding="utf-8" ?>
<svg baseProfile="tiny" height="128" version="1.2" viewBox="0,0,128,128" width="128" xmlns="http://www.w3.org/2000/svg" xmlns:ev="http://www.w3.org/2001/xml-events" xmlns:xlink="http://www.w3.org/1999/xlink"><defs /><polyline fill="none" points="32.5424,37.3153 22.9966,39.4847 14.7525,44.6915 9.5458,57.2746 8.678,69.4237 13.0169,79.8373 19.5254,86.7797 26.9017,89.8169 37.3153,91.9864" stroke="#00007f" stroke-width="2" /><polyline fill="none" points="28.6373,36.8814 26.9017,22.5627 26.9017,8.678 39.4847,25.1661 49.0305,34.278" stroke="#0000de" stroke-width="2" /><polyline fill="none" points="48.5966,34.278 82.0068,37.7492 85.9119,28.6373 95.4576,16.922 97.1932,42.0881" stroke="#0028ff" stroke-width="2" /><polyline fill="none" points="97.1932,42.0881 103.2678,43.3898 107.6068,45.9932 117.1525,60.3119 119.322,68.122 118.8881,75.0644 116.2847,80.7051 112.3797,84.6102 97.1932,90.2508 87.6475,91.5525 30.3729,90.6847" stroke="#0080ff" stroke-width="2" /><polyline fill="none" points="42.0881,50.7661 36.0136,51.6339 33.8441,54.2373 42.522,55.9729 45.1254,55.1051 47.7288,52.5017 41.6542,49.8983" stroke="#00d4ff" stroke-width="2" /><polyline fill="none" points="83.3085,52.5017 76.8,52.0678 75.4983,55.539 82.0068,57.7085 88.5153,58.1424 91.1186,57.2746 90.6847,55.1051 84.1763,53.3695" stroke="#36ffc0" stroke-width="2" /><polyline fill="none" points="46.4271,71.1593 47.2949,68.5559 52.9356,65.0847 55.9729,64.6508 57.7085,65.9525 57.7085,69.4237 59.0102,65.0847 65.0847,64.2169 68.5559,66.3864 68.5559,70.2915" stroke="#7cff79" stroke-width="2" /><polyline fill="none" points="42.9559,69.8576 26.9017,64.2169" stroke="#c0ff36" stroke-width="2" /><polyline fill="none" points="39.4847,74.1966 26.4678,76.3661 22.9966,79.4034" stroke="#ffe500" stroke-width="2" /><polyline fill="none" points="42.0881,66.3864 28.6373,59.0102" stroke="#ff9400" stroke-width="2" /><polyline fill="none" points="72.0271,68.122 74.6305,65.9525 90.6847,62.0475" stroke="#ff4600" stroke-width="2" /><polyline fill="none" points="75.0644,71.1593 90.2508,74.1966" stroke="#de0000" stroke-width="2" /><polyline fill="none" points="76.3661,77.2339 86.7797,89.3831" stroke="#7f0000" stroke-width="2" /></svg>