<?xml version="1.0" encoding="utf-8" ?>
<svg baseProfile="tiny" height="128" version="1.2" viewBox="0,0,128,128" width="128" xmlns="http://www.w3.org/2000/svg" xmlns:ev="http://www.w3.org/2001/xml-events" xmlns:xlink="http://www.w3.org/1999/xlink"><defs /><polyline fill="none" points="34.278,27.3356 29.0712,20.3932 26.0339,11.7153 30.8068,12.1492 40.3525,17.7898" stroke="#00007f" stroke-width="2" /><polyline fill="none" points="87.2136,20.8271 99.3627,8.678 99.7966,12.5831 95.0237,24.7322" stroke="#0000e8" stroke-width="2" /><polyline fill="none" points="41.6542,17.3559 43.8237,15.1864 53.3695,11.7153 73.3288,10.8475 80.7051,15.1864 87.2136,24.7322" stroke="#0038ff" stroke-width="2" /><polyline fill="none" points="37.7492,29.0712 32.9763,38.1831 31.6746,43.3898 34.278,56.4068 38.1831,61.6136 46.861,66.3864 67.6881,68.5559 74.1966,67.6881 82.8746,63.7831 88.9492,57.7085 92.4203,47.2949 92.4203,29.939 91.1186,26.4678" stroke="#0094ff" stroke-width="2" /><polyline fill="none" points="51.2,35.1458 51.2,35.1458" stroke="#0cf4ea" stroke-width="2" /><polyline fill="none" points="76.8,34.7119 76.8,34.7119" stroke="#56ffa0" stroke-width="2" /><polyline fill="none" points="75.0644,33.8441 72.8949,34.278 72.461,35.5797 72.461,32.9763" stroke="#a0ff56" stroke-width="2" /><polyline fill="none" points="52.5017,35.5797 52.9356,37.3153 54.2373,32.5424" stroke="#eaff0c" stroke-width="2" /><polyline fill="none" points="63.3492,55.1051 45.9932,50.3322 8.678,48.5966" stroke="#ffaa00" stroke-width="2" /><polyline fill="none" points="57.7085,53.8034 34.7119,58.5763 16.4881,66.8203" stroke="#ff5500" stroke-width="2" /><polyline fill="none" points="66.8203,49.8983 114.9831,37.3153" stroke="#e80000" stroke-width="2" /><polyline fill="none" points="67.2542,54.2373 119.322,56.8407" stroke="#7f0000" stroke-width="2" /></svg>