<?xml version="1.0" encoding="utf-8" ?>
<svg baseProfile="tiny" height="128" version="1.2" viewBox="0,0,128,128" width="128" xmlns="http://www.w3.org/2000/svg" xmlns:ev="http://www.w3.org/2001/xml-events" xmlns:xlink="http://www.w3.org/1999/xlink"><defs /><polyline fill="none" points="87.2136,52.5017 85.478,53.8034 85.9119,59.878" stroke="#00007f" stroke-width="2" /><polyline fill="none" points="87.2136,52.5017 87.2136,59.0102 88.0814,60.7458 89.8169,60.3119 90.2508,57.2746 83.3085,64.2169 77.2339,67.2542 68.5559,70.2915 62.0475,70.2915 55.539,65.9525" stroke="#0000c8" stroke-width="2" /><polyline fill="none" points="89.3831,60.3119 90.2508,65.5186 99.7966,76.3661 108.0407,81.139 116.2847,82.0068 118.4542,80.7051" stroke="#0000ff" stroke-width="2" /><polyline fill="none" points="72.8949,36.0136 73.3288,38.1831 76.8,38.1831 76.3661,36.4475 72.461,32.9763 75.4983,35.5797" stroke="#0040ff" stroke-width="2" /><polyline fill="none" points="104.1356,40.7864 103.7017,39.0508 101.9661,38.1831 99.7966,39.9186 98.9288,44.6915 101.0983,44.6915 102.4,41.2203" stroke="#0080ff" stroke-width="2" /><polyline fill="none" points="59.4441,25.1661 70.2915,8.678 75.9322,18.2237 78.9695,19.5254" stroke="#00c0ff" stroke-width="2" /><polyline fill="none" points="98.9288,26.0339 106.3051,14.7525 113.2475,9.1119 117.5864,29.0712" stroke="#15ffe1" stroke-width="2" /><polyline fill="none" points="55.539,15.1864 55.539,15.1864" stroke="#49ffad" stroke-width="2" /><polyline fill="none" points="61.1797,21.6949 52.5017,27.7695 46.861,36.0136 40.3525,57.2746 40.3525,68.9898 41.6542,74.1966 43.8237,79.4034 52.9356,90.2508 64.2169,98.9288 75.9322,104.1356 100.6644,103.2678 115.4169,92.8542 118.4542,78.1017" stroke="#7cff79" stroke-width="2" /><polyline fill="none" points="97.6271,23.8644 95.8915,24.7322 86.3458,19.5254 75.4983,19.0915" stroke="#b0ff46" stroke-width="2" /><polyline fill="none" points="114.5492,29.0712 119.322,35.5797 119.322,85.478 117.5864,99.7966" stroke="#e4ff12" stroke-width="2" /><polyline fill="none" points="44.6915,44.2576 25.6,44.6915 16.4881,48.1627 11.2814,57.7085 9.1119,68.122 9.9797,72.8949 19.5254,77.6678 41.6542,78.1017 48.5966,72.461 50.3322,55.539" stroke="#ffcf00" stroke-width="2" /><polyline fill="none" points="39.0508,72.0271 47.2949,101.5322 51.6339,110.6441 58.5763,118.4542" stroke="#ff9400" stroke-width="2" /><polyline fill="none" points="31.2407,76.3661 31.6746,98.061" stroke="#ff5900" stroke-width="2" /><polyline fill="none" points="19.0915,71.1593 16.4881,74.6305 9.9797,90.6847" stroke="#ff1d00" stroke-width="2" /><polyline fill="none" points="26.0339,73.7627 20.3932,94.1559" stroke="#c30000" stroke-width="2" /><polyline fill="none" points="16.922,47.7288 16.4881,43.8237 12.5831,43.8237 9.9797,44.6915 8.678,49.8983 9.9797,55.9729 16.0542,57.7085" stroke="#7f0000" stroke-width="2" /></svg>