<?xml version="1.0" encoding="utf-8" ?>
<svg baseProfile="tiny" height="128" version="1.2" viewBox="0,0,128,128" width="128" xmlns="http://www.w3.org/2000/svg" xmlns:ev="http://www.w3.org/2001/xml-events" xmlns:xlink="http://www.w3.org/1999/xlink"><defs /><polyline fill="none" points="21.6949,22.9966 29.5051,20.3932 37.3153,19.9593 48.1627,26.9017" stroke="#00007f" stroke-width="2" /><polyline fill="none" points="48.5966,29.5051 55.9729,19.0915 60.7458,8.678 64.2169,37.3153" stroke="#0000cc" stroke-width="2" /><polyline fill="none" points="22.5627,24.7322 11.7153,9.5458 9.1119,32.1085" stroke="#0008ff" stroke-width="2" /><polyline fill="none" points="9.9797,32.9763 8.678,36.0136 9.5458,44.2576 14.7525,60.7458 18.2237,64.2169 22.9966,66.8203 38.1831,67.6881 47.7288,64.6508 55.1051,59.4441 60.3119,52.5017 62.4814,42.0881 61.1797,38.1831" stroke="#004cff" stroke-width="2" /><polyline fill="none" points="22.5627,69.8576 16.0542,88.9492 16.0542,104.1356 18.2237,108.9085 23.8644,114.1153 29.939,118.0203 36.0136,119.322 42.9559,118.4542 48.1627,114.5492 53.3695,109.3424 55.9729,101.0983 56.4068,89.8169 53.3695,79.4034 45.1254,69.8576" stroke="#0090ff" stroke-width="2" /><polyline fill="none" points="23.4305,38.6169 23.4305,38.6169" stroke="#00d4ff" stroke-width="2" /><polyline fill="none" points="44.2576,39.0508 43.8237,39.0508" stroke="#29ffcd" stroke-width="2" /><polyline fill="none" points="22.9966,37.3153 22.9966,37.3153" stroke="#5fff96" stroke-width="2" /><polyline fill="none" points="29.5051,37.7492 29.5051,37.7492" stroke="#96ff5f" stroke-width="2" /><polyline fill="none" points="26.9017,39.9186 26.9017,39.9186" stroke="#cdff29" stroke-width="2" /><polyline fill="none" points="26.9017,34.7119 26.0339,37.7492" stroke="#ffe500" stroke-width="2" /><polyline fill="none" points="25.6,43.8237 25.6,43.8237" stroke="#ffa600" stroke-width="2" /><polyline fill="none" points="25.6,38.1831 25.6,38.1831" stroke="#ff6700" stroke-width="2" /><polyline fill="none" points="27.3356,56.4068 32.1085,61.6136 38.1831,57.2746" stroke="#ff2800" stroke-width="2" /><polyline fill="none" points="30.3729,52.5017 37.7492,49.8983" stroke="#cc0000" stroke-width="2" /><polyline fill="none" points="30.3729,55.9729 36.4475,58.1424 40.7864,47.2949" stroke="#7f0000" stroke-width="2" /></svg>