<?xml version="1.0" encoding="utf-8" ?>
<svg baseProfile="tiny" height="128" version="1.2" viewBox="0,0,128,128" width="128" xmlns="http://www.w3.org/2000/svg" xmlns:ev="http://www.w3.org/2001/xml-events" xmlns:xlink="http://www.w3.org/1999/xlink"><defs /><polyline fill="none" points="80.2712,51.2 80.2712,35.1458 85.478,26.4678 98.9288,13.4508 103.7017,10.8475 114.5492,8.678 118.4542,17.3559 119.322,30.8068 114.9831,45.5593 110.2102,53.8034 107.1729,55.539" stroke="#00007f" stroke-width="2" /><polyline fill="none" points="77.6678,47.7288 54.2373,47.7288 52.5017,42.9559 43.8237,30.3729 37.3153,24.2983 29.939,20.8271 19.5254,20.8271 15.1864,22.1288 9.9797,31.2407 8.678,39.4847 12.5831,47.2949 17.3559,53.3695 29.939,59.0102 26.4678,67.2542 25.6,86.7797 31.6746,95.4576 39.9186,103.7017 49.8983,110.6441 58.1424,114.5492 85.9119,115.8508 94.5898,110.6441 101.0983,99.3627 110.2102,69.8576 109.3424,54.2373" stroke="#004cff" stroke-width="2" /><polyline fill="none" points="75.4983,82.4407 79.8373,85.478 98.061,85.9119" stroke="#29ffcd" stroke-width="2" /><polyline fill="none" points="67.6881,85.478 55.9729,85.9119 30.8068,93.722" stroke="#cdff29" stroke-width="2" /><polyline fill="none" points="65.5186,86.7797 61.1797,90.2508 47.2949,97.1932 37.7492,108.4746" stroke="#ff6700" stroke-width="2" /><polyline fill="none" points="73.3288,91.1186 109.3424,101.5322" stroke="#7f0000" stroke-width="2" /></svg>