<?xml version="1.0" encoding="utf-8" ?>
<svg baseProfile="tiny" height="128" version="1.2" viewBox="0,0,128,128" width="128" xmlns="http://www.w3.org/2000/svg" xmlns:ev="http://www.w3.org/2001/xml-events" xmlns:xlink="http://www.w3.org/1999/xlink"><defs /><polyline fill="none" points="51.6339,36.0136 49.4644,32.5424 42.9559,28.6373 31.6746,27.7695 13.4508,36.0136 12.1492,39.4847 12.1492,50.7661 18.2237,57.7085 31.2407,61.6136 42.9559,61.6136 46.861,60.3119 49.8983,55.9729 54.6712,41.2203" stroke="#00007f" stroke-width="2" /><polyline fill="none" points="24.2983,43.3898 24.2983,43.3898" stroke="#0000f1" stroke-width="2" /><polyline fill="none" points="32.5424,41.2203 30.3729,42.0881" stroke="#004cff" stroke-width="2" /><polyline fill="none" points="25.1661,43.8237 25.1661,43.8237" stroke="#00b0ff" stroke-width="2" /><polyline fill="none" points="25.1661,43.8237 24.2983,43.8237" stroke="#29ffcd" stroke-width="2" /><polyline fill="none" points="16.0542,30.3729 11.2814,11.7153 8.678,14.7525 8.678,35.1458 9.1119,38.1831 12.1492,39.9186" stroke="#7cff79" stroke-width="2" /><polyline fill="none" points="38.6169,24.2983 39.9186,15.1864 44.6915,8.678 47.2949,12.1492 47.2949,20.3932 53.3695,27.7695" stroke="#cdff29" stroke-width="2" /><polyline fill="none" points="40.7864,59.0102 47.7288,69.4237 49.4644,73.7627 49.4644,98.4949 38.6169,101.0983 35.1458,99.3627 31.6746,96.3254 28.2034,89.3831 26.9017,82.8746 26.9017,69.4237 25.6,64.2169" stroke="#ffc400" stroke-width="2" /><polyline fill="none" points="25.1661,64.2169 17.7898,68.122 9.9797,77.2339" stroke="#ff6700" stroke-width="2" /><polyline fill="none" points="42.0881,65.0847 49.8983,65.0847 58.1424,68.9898 65.0847,69.8576 65.5186,71.1593" stroke="#f10700" stroke-width="2" /><polyline fill="none" points="42.522,96.7593 24.2983,110.2102 22.5627,114.1153 26.9017,114.5492 36.0136,109.7763 46.4271,101.9661 47.2949,98.4949 50.7661,98.4949 54.2373,99.7966 58.5763,106.3051 61.6136,117.5864 58.1424,119.322 50.3322,119.322 46.861,118.0203 38.1831,110.2102 36.0136,104.5695" stroke="#7f0000" stroke-width="2" /></svg>