<?xml version="1.0" encoding="utf-8" ?>
<svg baseProfile="tiny" height="128" version="1.2" viewBox="0,0,128,128" width="128" xmlns="http://www.w3.org/2000/svg" xmlns:ev="http://www.w3.org/2001/xml-events" xmlns:xlink="http://www.w3.org/1999/xlink"><defs /><polyline fill="none" points="25.1661,40.7864 24.2983,37.7492 21.261,37.7492 14.7525,44.6915 11.2814,50.3322 8.678,56.4068 8.678,60.7458 13.8847,66.8203 19.9593,68.5559 41.2203,63.7831 46.861,60.3119 52.9356,52.9356 53.3695,45.9932 48.1627,41.2203 37.3153,38.1831 28.2034,42.0881 26.0339,41.2203" stroke="#00007f" stroke-width="2" /><polyline fill="none" points="22.9966,38.1831 25.1661,29.939 29.5051,21.6949 32.5424,33.8441 34.7119,37.7492" stroke="#0000e8" stroke-width="2" /><polyline fill="none" points="44.2576,39.0508 48.5966,30.3729 54.6712,23.8644 57.2746,32.9763 52.5017,45.1254" stroke="#0038ff" stroke-width="2" /><polyline fill="none" points="53.8034,46.4271 80.2712,39.9186 86.7797,39.9186 98.061,42.0881 103.7017,45.1254 99.7966,58.5763 87.6475,67.6881 65.5186,74.1966 56.8407,72.8949 44.2576,65.0847" stroke="#0094ff" stroke-width="2" /><polyline fill="none" points="46.4271,68.5559 47.2949,85.9119" stroke="#0cf4ea" stroke-width="2" /><polyline fill="none" points="59.878,72.461 64.6508,82.8746 70.2915,76.3661" stroke="#56ffa0" stroke-width="2" /><polyline fill="none" points="75.0644,70.7254 83.3085,82.4407 85.0441,84.1763 85.9119,83.3085" stroke="#a0ff56" stroke-width="2" /><polyline fill="none" points="91.5525,66.8203 97.6271,85.9119" stroke="#eaff0c" stroke-width="2" /><polyline fill="none" points="21.6949,56.4068 28.2034,62.0475 31.2407,60.3119 34.7119,55.539" stroke="#ffaa00" stroke-width="2" /><polyline fill="none" points="30.3729,45.9932 29.939,52.5017" stroke="#ff5500" stroke-width="2" /><polyline fill="none" points="39.0508,45.1254 40.7864,52.0678 45.9932,49.8983" stroke="#e80000" stroke-width="2" /><polyline fill="none" points="102.8339,42.0881 105.0034,42.9559 112.3797,35.5797 117.5864,23.8644 119.322,14.7525 111.9458,8.678 101.0983,21.261" stroke="#7f0000" stroke-width="2" /></svg>