<?xml version="1.0" encoding="utf-8" ?>
<svg baseProfile="tiny" height="128" version="1.2" viewBox="0,0,128,128" width="128" xmlns="http://www.w3.org/2000/svg" xmlns:ev="http://www.w3.org/2001/xml-events" xmlns:xlink="http://www.w3.org/1999/xlink"><defs /><polyline fill="none" points="90.2508,16.4881 90.2508,35.1458 91.9864,47.2949 96.3254,56.8407 116.7186,53.8034 119.322,48.5966 119.322,13.0169 114.9831,9.5458 100.6644,8.678 92.8542,13.8847" stroke="#00007f" stroke-width="2" /><polyline fill="none" points="87.6475,41.6542 83.3085,40.3525 39.0508,39.4847 28.2034,36.8814 15.1864,36.0136 11.2814,36.0136 8.678,40.3525 8.678,60.7458 75.9322,59.0102 84.6102,58.1424 85.9119,56.4068" stroke="#0010ff" stroke-width="2" /><polyline fill="none" points="19.9593,75.9322 19.9593,75.9322" stroke="#00a4ff" stroke-width="2" /><polyline fill="none" points="11.2814,62.4814 14.7525,96.3254 16.4881,100.6644 20.3932,101.5322 25.6,75.0644 26.4678,64.6508" stroke="#3fffb7" stroke-width="2" /><polyline fill="none" points="47.7288,76.8 52.9356,81.139 52.9356,95.4576 57.2746,113.2475 62.0475,114.1153 66.3864,113.2475 70.7254,110.6441 71.5932,106.3051 67.2542,75.9322 65.5186,72.461" stroke="#b7ff3f" stroke-width="2" /><polyline fill="none" points="83.7424,61.6136 86.7797,67.6881 94.5898,96.3254 98.9288,96.3254 97.1932,53.8034 95.4576,50.3322" stroke="#ffb900" stroke-width="2" /><polyline fill="none" points="64.2169,101.5322 62.4814,64.6508" stroke="#ff3000" stroke-width="2" /><polyline fill="none" points="48.5966,111.5119 42.522,95.8915 41.2203,79.4034" stroke="#7f0000" stroke-width="2" /></svg>