<?xml version="1.0" encoding="utf-8" ?>
<svg baseProfile="tiny" height="128" version="1.2" viewBox="0,0,128,128" width="128" xmlns="http://www.w3.org/2000/svg" xmlns:ev="http://www.w3.org/2001/xml-events" xmlns:xlink="http://www.w3.org/1999/xlink"><defs /><polyline fill="none" points="79.8373,25.1661 62.0475,24.2983 55.1051,29.0712 45.5593,40.7864 39.9186,57.2746 39.4847,65.9525 49.4644,76.3661 64.6508,82.8746 76.8,82.8746 82.0068,82.0068 86.7797,75.0644 91.9864,45.5593 92.4203,33.8441 89.3831,28.2034 83.7424,23.4305 79.8373,21.261 74.1966,20.8271" stroke="#00007f" stroke-width="2" /><polyline fill="none" points="49.4644,36.8814 36.4475,14.3186 52.5017,25.6 59.0102,28.6373" stroke="#0000fe" stroke-width="2" /><polyline fill="none" points="79.4034,24.2983 85.0441,17.3559 100.2305,8.678 98.9288,13.8847 90.2508,29.5051" stroke="#0060ff" stroke-width="2" /><polyline fill="none" points="46.861,53.8034 28.6373,47.2949" stroke="#00d4ff" stroke-width="2" /><polyline fill="none" points="45.5593,60.3119 17.3559,58.5763 8.678,60.3119" stroke="#4cffaa" stroke-width="2" /><polyline fill="none" points="48.1627,64.6508 40.7864,68.9898 24.2983,75.0644" stroke="#aaff4c" stroke-width="2" /><polyline fill="none" points="84.1763,52.0678 91.1186,52.0678 102.4,47.7288" stroke="#ffe500" stroke-width="2" /><polyline fill="none" points="79.4034,64.2169 99.3627,61.1797 119.322,62.4814" stroke="#ff7a00" stroke-width="2" /><polyline fill="none" points="82.8746,65.5186 82.0068,67.6881 85.0441,69.8576 101.9661,70.7254" stroke="#fe1200" stroke-width="2" /><polyline fill="none" points="61.6136,49.0305 61.6136,49.0305" stroke="#7f0000" stroke-width="2" /></svg>