<?xml version="1.0" encoding="utf-8" ?>
<svg baseProfile="tiny" height="128" version="1.2" viewBox="0,0,128,128" width="128" xmlns="http://www.w3.org/2000/svg" xmlns:ev="http://www.w3.org/2001/xml-events" xmlns:xlink="http://www.w3.org/1999/xlink"><defs /><polyline fill="none" points="92.8542,23.8644 89.8169,22.9966 83.7424,24.2983 78.5356,28.6373 75.9322,34.7119 75.9322,38.1831 79.4034,41.2203 91.9864,42.522 101.0983,37.3153 103.7017,32.5424 103.2678,25.6 99.7966,21.261 88.5153,19.0915 83.3085,20.3932" stroke="#00007f" stroke-width="2" /><polyline fill="none" points="79.4034,24.7322 77.6678,24.7322 75.4983,19.9593 75.9322,8.678 85.0441,17.7898 91.1186,20.8271" stroke="#0000f1" stroke-width="2" /><polyline fill="none" points="101.5322,22.1288 107.6068,20.8271 119.322,15.1864 106.739,27.3356" stroke="#004cff" stroke-width="2" /><polyline fill="none" points="76.8,42.9559 67.6881,43.3898 56.8407,45.9932 53.3695,47.7288 45.9932,55.1051 44.2576,59.878 45.1254,62.9153 50.3322,65.9525 62.0475,68.122 77.6678,65.0847 91.1186,55.1051 92.8542,48.5966 89.3831,44.6915 77.2339,41.6542 72.0271,43.3898" stroke="#00b0ff" stroke-width="2" /><polyline fill="none" points="43.3898,59.0102 24.2983,50.7661 15.6203,49.0305 8.678,43.3898" stroke="#29ffcd" stroke-width="2" /><polyline fill="none" points="55.1051,68.5559 47.7288,75.0644 36.8814,88.0814 34.278,93.2881 33.8441,96.3254 35.1458,94.5898" stroke="#7cff79" stroke-width="2" /><polyline fill="none" points="65.5186,68.5559 54.6712,104.5695" stroke="#cdff29" stroke-width="2" /><polyline fill="none" points="77.6678,67.6881 78.5356,78.9695 82.0068,93.722 84.6102,99.7966 88.9492,98.4949" stroke="#ffc400" stroke-width="2" /><polyline fill="none" points="85.9119,61.6136 97.6271,80.7051 107.1729,91.1186" stroke="#ff6700" stroke-width="2" /><polyline fill="none" points="84.1763,28.2034 84.1763,27.7695" stroke="#f10700" stroke-width="2" /><polyline fill="none" points="94.5898,30.3729 94.5898,30.3729" stroke="#7f0000" stroke-width="2" /></svg>