<?xml version="1.0" encoding="utf-8" ?>
<svg baseProfile="tiny" height="128" version="1.2" viewBox="0,0,128,128" width="128" xmlns="http://www.w3.org/2000/svg" xmlns:ev="http://www.w3.org/2001/xml-events" xmlns:xlink="http://www.w3.org/1999/xlink"><defs /><polyline fill="none" points="8.678,35.1458 11.2814,8.678 31.2407,24.2983 35.1458,34.7119 39.4847,33.4102 42.0881,29.939 74.6305,29.939 88.5153,31.2407 101.9661,15.1864 105.4373,13.4508 109.7763,27.7695 109.7763,41.2203 112.3797,53.8034 112.3797,65.5186 105.0034,80.2712 97.6271,85.0441 89.8169,88.0814 78.5356,88.5153 71.1593,88.5153 60.7458,85.0441 38.1831,81.139 31.2407,73.7627 25.1661,62.4814 20.3932,52.0678 13.4508,27.7695" stroke="#00007f" stroke-width="2" /><polyline fill="none" points="55.1051,53.8034 63.3492,57.2746 63.7831,61.1797 61.6136,64.6508 58.5763,67.2542 55.1051,67.2542 51.6339,57.2746" stroke="#0028ff" stroke-width="2" /><polyline fill="none" points="78.9695,59.0102 78.9695,59.0102" stroke="#00d4ff" stroke-width="2" /><polyline fill="none" points="62.4814,59.878 78.9695,55.1051 114.9831,55.1051 119.322,57.7085" stroke="#7cff79" stroke-width="2" /><polyline fill="none" points="63.3492,62.0475 73.7627,61.1797 114.5492,72.8949" stroke="#ffe500" stroke-width="2" /><polyline fill="none" points="67.2542,62.4814 76.8,74.1966 92.8542,84.6102" stroke="#ff4600" stroke-width="2" /><polyline fill="none" points="52.9356,51.6339 47.7288,49.0305 37.7492,46.861 20.3932,46.861" stroke="#7f0000" stroke-width="2" /></svg>