<?xml version="1.0" encoding="utf-8" ?>
<svg baseProfile="tiny" height="128" version="1.2" viewBox="0,0,128,128" width="128" xmlns="http://www.w3.org/2000/svg" xmlns:ev="http://www.w3.org/2001/xml-events" xmlns:xlink="http://www.w3.org/1999/xlink"><defs /><polyline fill="none" points="47.2949,90.2508 26.4678,88.5153 10.8475,83.7424 8.678,78.9695 9.1119,72.461 12.5831,64.6508 17.7898,59.4441 38.6169,51.6339 54.6712,49.8983 76.3661,52.0678 91.9864,55.1051 96.7593,59.0102 97.1932,65.5186 91.9864,75.0644 82.8746,85.478 75.9322,89.3831 68.122,91.5525 44.6915,89.3831" stroke="#00007f" stroke-width="2" /><polyline fill="none" points="23.8644,88.0814 19.0915,111.078" stroke="#0010ff" stroke-width="2" /><polyline fill="none" points="37.3153,89.8169 32.9763,100.2305 31.6746,110.2102" stroke="#00a4ff" stroke-width="2" /><polyline fill="none" points="70.7254,90.2508 70.7254,109.3424" stroke="#3fffb7" stroke-width="2" /><polyline fill="none" points="81.5729,85.0441 83.7424,91.5525 95.4576,107.1729" stroke="#b7ff3f" stroke-width="2" /><polyline fill="none" points="96.3254,55.539 93.722,53.8034 91.9864,48.1627 93.2881,39.0508 97.1932,32.9763 104.1356,27.7695 107.6068,26.9017 110.6441,30.3729 111.5119,42.0881 109.3424,48.5966 103.7017,56.8407 100.6644,58.1424 96.7593,57.7085" stroke="#ffb900" stroke-width="2" /><polyline fill="none" points="94.5898,34.7119 98.061,8.678 103.2678,27.7695" stroke="#ff3000" stroke-width="2" /><polyline fill="none" points="109.3424,26.9017 119.322,13.0169 111.078,33.8441" stroke="#7f0000" stroke-width="2" /></svg>