<?xml version="1.0" encoding="utf-8" ?>
<svg baseProfile="tiny" height="128" version="1.2" viewBox="0,0,128,128" width="128" xmlns="http://www.w3.org/2000/svg" xmlns:ev="http://www.w3.org/2001/xml-events" xmlns:xlink="http://www.w3.org/1999/xlink"><defs /><polyline fill="none" points="35.9452,18.411 36.3836,15.3425 40.3288,11.8356 45.1507,9.6438 49.5342,8.7671 52.1644,9.2055 62.6849,15.7808 64.8767,18.8493 65.3151,24.9863 60.0548,37.6986 54.3562,43.8356 49.9726,45.589 42.5205,44.274 35.9452,39.0137 28.0548,21.4795 31.1233,17.9726 38.137,15.3425" stroke="#00007f" stroke-width="2" /><polyline fill="none" points="39.0137,22.7945 40.3288,18.8493 45.589,17.5342 48.2192,18.8493 48.6575,23.2329 45.1507,29.3699 39.8904,26.7397 37.6986,17.0959 40.3288,14.4658" stroke="#0000f1" stroke-width="2" /><polyline fill="none" points="56.9863,24.1096 53.4795,22.3562 53.4795,20.1644 55.6712,19.2877 58.7397,21.0411 56.5479,26.3014 53.4795,28.0548 51.2877,24.1096" stroke="#004cff" stroke-width="2" /><polyline fill="none" points="46.9041,32.8767 48.2192,33.3151 47.3425,34.6301 47.3425,33.3151" stroke="#00b0ff" stroke-width="2" /><polyline fill="none" points="47.3425,33.3151 72.3288,29.3699 71.8904,31.1233" stroke="#29ffcd" stroke-width="2" /><polyline fill="none" points="47.7808,34.1918 59.1781,33.3151 77.1507,35.0685" stroke="#7cff79" stroke-width="2" /><polyline fill="none" points="46.4658,34.6301 71.0137,39.0137 75.8356,40.7671 81.9726,44.7123" stroke="#cdff29" stroke-width="2" /><polyline fill="none" points="46.9041,31.5616 24.1096,32.4384" stroke="#ffc400" stroke-width="2" /><polyline fill="none" points="46.4658,34.1918 39.0137,36.8219 22.3562,46.4658 8.7671,52.1644" stroke="#ff6700" stroke-width="2" /><polyline fill="none" points="47.7808,34.1918 29.3699,48.6575" stroke="#f10700" stroke-width="2" /><polyline fill="none" points="63.5616,23.2329 84.1644,21.4795 102.5753,26.7397 117.0411,35.0685 119.2329,43.3973 111.3425,56.9863 103.0137,61.3699 91.6164,63.1233 81.5342,62.2466 68.3836,58.7397 53.4795,49.9726" stroke="#7f0000" stroke-width="2" /></svg>