<?xml version="1.0" encoding="utf-8" ?>
<svg baseProfile="tiny" height="128" version="1.2" viewBox="0,0,128,128" width="128" xmlns="http://www.w3.org/2000/svg" xmlns:ev="http://www.w3.org/2001/xml-events" xmlns:xlink="http://www.w3.org/1999/xlink"><defs /><polyline fill="none" points="86.7797,56.8407 79.4034,55.1051 72.8949,51.2 63.7831,41.2203 62.0475,26.4678 66.8203,20.8271 63.3492,8.678 72.461,12.1492 79.8373,16.922 97.6271,17.3559 105.8712,21.6949 114.1153,16.4881 117.5864,16.0542 119.322,26.9017 112.3797,41.6542 103.2678,49.8983 93.2881,55.1051" stroke="#00007f" stroke-width="2" /><polyline fill="none" points="91.9864,55.1051 85.478,55.1051" stroke="#0000f1" stroke-width="2" /><polyline fill="none" points="85.0441,37.3153 84.1763,39.9186 85.478,40.3525 88.0814,36.8814 84.1763,36.0136" stroke="#004cff" stroke-width="2" /><polyline fill="none" points="85.478,39.4847 84.6102,43.3898 82.8746,44.2576 76.3661,40.3525 82.0068,50.7661 87.2136,51.2 91.5525,47.2949" stroke="#00b0ff" stroke-width="2" /><polyline fill="none" points="81.139,17.3559 80.7051,26.4678" stroke="#29ffcd" stroke-width="2" /><polyline fill="none" points="95.4576,21.6949 95.4576,36.0136" stroke="#7cff79" stroke-width="2" /><polyline fill="none" points="89.8169,46.861 82.4407,44.2576" stroke="#cdff29" stroke-width="2" /><polyline fill="none" points="72.0271,18.2237 69.4237,15.6203 69.4237,13.0169 72.461,14.3186 72.8949,17.7898" stroke="#ffc400" stroke-width="2" /><polyline fill="none" points="114.5492,19.5254 112.3797,19.5254 111.9458,23.4305 116.2847,24.2983 116.7186,21.6949 114.5492,19.9593" stroke="#ff6700" stroke-width="2" /><polyline fill="none" points="60.3119,43.8237 38.1831,40.3525 15.6203,38.6169 15.1864,35.5797 26.0339,23.8644 22.5627,19.9593 8.678,16.4881" stroke="#f10700" stroke-width="2" /><polyline fill="none" points="15.6203,40.7864 16.0542,47.7288 20.3932,59.0102 25.6,63.7831 30.3729,65.0847 38.6169,64.6508 45.5593,61.6136 67.2542,45.9932" stroke="#7f0000" stroke-width="2" /></svg>