<?xml version="1.0" encoding="utf-8" ?>
<svg baseProfile="tiny" height="128" version="1.2" viewBox="0,0,128,128" width="128" xmlns="http://www.w3.org/2000/svg" xmlns:ev="http://www.w3.org/2001/xml-events" xmlns:xlink="http://www.w3.org/1999/xlink"><defs /><polyline fill="none" points="62.0475,55.1051 49.8983,55.1051 39.0508,52.0678 31.6746,47.2949 26.9017,39.9186 27.7695,32.5424 32.5424,24.7322 42.9559,19.5254 51.2,20.3932 58.5763,23.8644 65.0847,31.2407 69.4237,40.3525 68.5559,45.1254 64.6508,52.0678 59.878,53.8034 46.4271,50.7661" stroke="#00007f" stroke-width="2" /><polyline fill="none" points="28.6373,26.4678 24.2983,13.0169 19.9593,8.678" stroke="#0000fe" stroke-width="2" /><polyline fill="none" points="25.1661,39.9186 15.6203,39.0508 10.8475,36.0136" stroke="#0060ff" stroke-width="2" /><polyline fill="none" points="22.9966,32.9763 15.1864,32.5424 8.678,28.6373" stroke="#00d4ff" stroke-width="2" /><polyline fill="none" points="69.8576,47.2949 83.7424,46.861 89.3831,45.1254" stroke="#4cffaa" stroke-width="2" /><polyline fill="none" points="72.0271,32.5424 88.5153,23.4305" stroke="#aaff4c" stroke-width="2" /><polyline fill="none" points="36.0136,32.1085 36.0136,36.0136" stroke="#ffe500" stroke-width="2" /><polyline fill="none" points="59.878,30.3729 58.1424,31.2407" stroke="#ff7a00" stroke-width="2" /><polyline fill="none" points="32.5424,53.3695 38.6169,78.9695 41.2203,83.7424 45.9932,87.6475 62.9153,91.1186 78.5356,89.3831 91.9864,85.0441 107.1729,85.478 109.7763,91.5525 110.2102,110.6441 108.4746,118.0203 104.1356,119.322 100.6644,117.1525 99.7966,111.078 101.0983,87.2136" stroke="#fe1200" stroke-width="2" /><polyline fill="none" points="90.2508,82.4407 86.7797,93.722 85.0441,110.2102 86.3458,115.4169 88.0814,117.1525 90.2508,116.2847 93.2881,108.4746 93.2881,88.9492 91.9864,84.6102 88.5153,80.2712" stroke="#7f0000" stroke-width="2" /></svg>