<?xml version="1.0" encoding="utf-8" ?>
<svg baseProfile="tiny" height="128" version="1.2" viewBox="0,0,128,128" width="128" xmlns="http://www.w3.org/2000/svg" xmlns:ev="http://www.w3.org/2001/xml-events" xmlns:xlink="http://www.w3.org/1999/xlink"><defs /><polyline fill="none" points="16.0542,52.5017 24.7322,48.1627 38.1831,46.4271 46.861,46.861 60.3119,51.2 65.5186,55.9729 68.5559,61.6136 69.4237,67.6881 68.122,81.5729 64.2169,90.2508 57.7085,98.4949 53.8034,101.5322 45.5593,105.0034 31.6746,105.0034 26.9017,102.8339 20.3932,96.7593 15.1864,88.0814 13.8847,67.2542 19.9593,47.2949 18.6576,31.2407 21.6949,11.7153 25.1661,8.678 29.939,9.5458 33.8441,11.2814 39.0508,18.6576 39.9186,22.1288 39.4847,28.2034 34.7119,47.2949" stroke="#00007f" stroke-width="2" /><polyline fill="none" points="54.2373,54.2373 55.1051,36.0136 61.1797,13.4508 63.3492,11.2814 67.6881,10.8475 74.6305,13.0169 77.2339,14.3186 81.5729,22.5627 80.2712,36.0136 77.6678,41.6542 62.4814,58.1424" stroke="#0000ff" stroke-width="2" /><polyline fill="none" points="31.2407,59.0102 34.278,60.3119 35.5797,62.4814 33.8441,61.1797 34.278,59.4441" stroke="#0080ff" stroke-width="2" /><polyline fill="none" points="52.9356,68.122 59.4441,67.2542 60.7458,69.8576 58.5763,71.1593 57.7085,70.2915" stroke="#15ffe1" stroke-width="2" /><polyline fill="none" points="41.2203,81.5729 28.2034,76.3661 8.678,61.6136" stroke="#7cff79" stroke-width="2" /><polyline fill="none" points="41.6542,82.8746 66.3864,85.478" stroke="#e4ff12" stroke-width="2" /><polyline fill="none" points="44.6915,84.6102 12.5831,86.3458" stroke="#ff9400" stroke-width="2" /><polyline fill="none" points="47.7288,82.0068 65.5186,119.322" stroke="#ff1d00" stroke-width="2" /><polyline fill="none" points="32.5424,88.0814 35.5797,95.0237 38.1831,96.7593 41.6542,94.1559 49.0305,98.9288 56.8407,95.4576 60.3119,89.8169" stroke="#7f0000" stroke-width="2" /></svg>