<?xml version="1.0" encoding="utf-8" ?>
<svg baseProfile="tiny" height="128" version="1.2" viewBox="0,0,128,128" width="128" xmlns="http://www.w3.org/2000/svg" xmlns:ev="http://www.w3.org/2001/xml-events" xmlns:xlink="http://www.w3.org/1999/xlink"><defs /><polyline fill="none" points="42.522,42.522 36.8814,40.3525 30.3729,40.3525 23.4305,43.3898 17.7898,49.0305 16.4881,56.8407 18.6576,63.7831 22.5627,65.9525 30.3729,66.3864 39.9186,62.9153 47.2949,55.539 47.7288,49.0305 42.0881,42.9559" stroke="#00007f" stroke-width="2" /><polyline fill="none" points="16.4881,47.7288 10.4136,38.6169 8.678,33.4102 30.3729,38.6169" stroke="#0000ff" stroke-width="2" /><polyline fill="none" points="40.3525,41.6542 39.9186,39.4847 42.9559,32.9763 46.861,28.6373 51.2,26.0339 52.5017,28.6373 51.2,38.6169 47.2949,51.2" stroke="#0080ff" stroke-width="2" /><polyline fill="none" points="28.2034,69.4237 26.4678,75.0644 28.2034,80.7051 36.0136,87.2136 44.2576,89.8169 74.6305,88.0814 90.6847,83.3085 95.0237,78.1017 95.0237,72.8949 91.9864,68.9898 88.0814,66.8203 69.4237,59.878 51.2,61.6136 44.6915,59.4441" stroke="#15ffe1" stroke-width="2" /><polyline fill="none" points="32.5424,87.6475 29.939,91.9864 25.1661,111.9458 23.4305,115.4169 22.1288,116.7186 21.6949,115.4169" stroke="#7cff79" stroke-width="2" /><polyline fill="none" points="47.2949,93.722 44.6915,119.322" stroke="#e4ff12" stroke-width="2" /><polyline fill="none" points="74.1966,91.9864 77.6678,108.4746 83.7424,118.8881" stroke="#ff9400" stroke-width="2" /><polyline fill="none" points="89.8169,84.6102 102.8339,106.739" stroke="#ff1d00" stroke-width="2" /><polyline fill="none" points="85.478,65.9525 83.7424,62.4814 83.7424,53.8034 86.3458,37.7492 92.8542,26.9017 101.9661,18.2237 106.739,8.678 110.2102,16.0542 108.9085,24.2983 96.7593,36.8814 91.1186,52.9356 83.7424,67.6881" stroke="#7f0000" stroke-width="2" /></svg>