<?xml version="1.0" encoding="utf-8" ?>
<svg baseProfile="tiny" height="128" version="1.2" viewBox="0,0,128,128" width="128" xmlns="http://www.w3.org/2000/svg" xmlns:ev="http://www.w3.org/2001/xml-events" xmlns:xlink="http://www.w3.org/1999/xlink"><defs /><polyline fill="none" points="66.8203,30.3729 59.4441,30.3729 52.5017,32.1085 38.6169,40.3525 26.4678,52.9356 23.8644,59.0102 22.9966,67.6881 24.2983,73.7627 28.2034,79.4034 35.1458,84.6102 42.0881,86.3458 49.0305,86.7797 59.0102,84.1763 70.7254,77.2339 75.4983,70.2915 80.7051,58.5763 82.8746,50.3322 83.3085,42.0881 81.139,36.4475 77.6678,33.4102 70.7254,31.2407 66.8203,30.8068 65.5186,32.1085" stroke="#00007f" stroke-width="2" /><polyline fill="none" points="13.0169,23.8644 27.3356,52.9356" stroke="#0000d5" stroke-width="2" /><polyline fill="none" points="13.0169,22.1288 22.5627,24.2983 43.3898,33.8441" stroke="#001cff" stroke-width="2" /><polyline fill="none" points="77.2339,34.278 88.9492,23.8644 113.2475,9.9797" stroke="#006cff" stroke-width="2" /><polyline fill="none" points="119.322,8.678 88.5153,46.861 83.3085,58.1424" stroke="#00b8ff" stroke-width="2" /><polyline fill="none" points="13.4508,49.0305 19.0915,55.9729 26.9017,61.6136 36.8814,65.5186 42.9559,65.5186" stroke="#1cffda" stroke-width="2" /><polyline fill="none" points="9.9797,58.1424 14.7525,63.3492 19.5254,66.8203 29.939,69.4237 36.8814,69.4237" stroke="#5cff9a" stroke-width="2" /><polyline fill="none" points="8.678,75.9322 23.4305,76.8 34.7119,74.1966" stroke="#9aff5c" stroke-width="2" /><polyline fill="none" points="57.2746,64.6508 94.5898,63.7831 102.4,60.3119 105.4373,55.539" stroke="#daff1c" stroke-width="2" /><polyline fill="none" points="58.1424,74.6305 84.6102,72.8949 93.2881,70.2915" stroke="#ffcb00" stroke-width="2" /><polyline fill="none" points="62.4814,76.3661 94.1559,73.7627 102.8339,70.7254" stroke="#ff8500" stroke-width="2" /><polyline fill="none" points="45.1254,66.3864 42.9559,73.7627 44.2576,78.9695 48.5966,72.0271 49.4644,79.4034 52.9356,79.4034 55.539,75.4983 56.4068,71.5932" stroke="#ff3b00" stroke-width="2" /><polyline fill="none" points="53.3695,43.8237 49.0305,47.2949 47.7288,51.2 49.4644,52.9356 51.6339,52.9356 53.8034,48.1627" stroke="#d50000" stroke-width="2" /><polyline fill="none" points="74.6305,45.5593 70.2915,52.5017 70.2915,59.4441" stroke="#7f0000" stroke-width="2" /></svg>