<?xml version="1.0" encoding="utf-8" ?>
<svg baseProfile="tiny" height="128" version="1.2" viewBox="0,0,128,128" width="128" xmlns="http://www.w3.org/2000/svg" xmlns:ev="http://www.w3.org/2001/xml-events" xmlns:xlink="http://www.w3.org/1999/xlink"><defs /><polyline fill="none" points="80.1088,13.932 75.7551,15.2381 71.8367,20.898 72.2721,26.9932 77.0612,32.6531 89.2517,35.2653 109.2789,35.2653 111.4558,33.9592 111.8912,28.7347 103.619,20.4626 88.8163,16.1088 70.0952,15.6735" stroke="#00007f" stroke-width="2" /><polyline fill="none" points="83.5918,19.1565 80.9796,20.4626 81.415,23.5102 89.2517,23.9456 92.2993,21.3333 87.9456,18.2857" stroke="#0000de" stroke-width="2" /><polyline fill="none" points="99.2653,22.6395 95.7823,23.0748 95.3469,26.9932 103.1837,24.8163 101.8776,22.6395 95.7823,21.3333" stroke="#0028ff" stroke-width="2" /><polyline fill="none" points="91.4286,27.4286 86.6395,30.0408" stroke="#0080ff" stroke-width="2" /><polyline fill="none" points="92.2993,27.8639 92.2993,30.9116 95.7823,32.2177" stroke="#00d4ff" stroke-width="2" /><polyline fill="none" points="75.3197,14.3673 72.2721,9.1429 67.9184,8.7075 66.6122,14.8027 67.9184,17.415 71.4014,17.415 74.8844,15.2381" stroke="#36ffc0" stroke-width="2" /><polyline fill="none" points="107.9728,19.1565 112.3265,15.6735 119.2925,14.3673 118.8571,20.4626 113.6327,25.2517 109.2789,25.6871 107.102,24.381 106.2313,22.2041 106.6667,17.8503" stroke="#7cff79" stroke-width="2" /><polyline fill="none" points="72.2721,27.8639 39.1837,27.8639 36.1361,30.0408 36.1361,32.2177 65.7415,36.5714 72.2721,36.5714 79.2381,32.6531" stroke="#c0ff36" stroke-width="2" /><polyline fill="none" points="42.6667,33.9592 34.8299,40.9252" stroke="#ffe500" stroke-width="2" /><polyline fill="none" points="48.7619,34.8299 48.3265,40.9252 49.6327,40.9252" stroke="#ff9400" stroke-width="2" /><polyline fill="none" points="67.9184,34.8299 65.7415,41.7959" stroke="#ff4600" stroke-width="2" /><polyline fill="none" points="72.2721,36.5714 76.1905,43.102" stroke="#de0000" stroke-width="2" /><polyline fill="none" points="36.1361,29.1701 24.8163,24.8163 16.5442,17.8503 8.7075,17.415" stroke="#7f0000" stroke-width="2" /></svg>