<?xml version="1.0" encoding="utf-8" ?>
<svg baseProfile="tiny" height="128" version="1.2" viewBox="0,0,128,128" width="128" xmlns="http://www.w3.org/2000/svg" xmlns:ev="http://www.w3.org/2001/xml-events" xmlns:xlink="http://www.w3.org/1999/xlink"><defs /><polyline fill="none" points="21.7687,28.7347 21.7687,21.3333 23.5102,10.449 26.1224,10.449 29.1701,13.0612 30.4762,16.1088 30.9116,21.7687 32.2177,22.6395 36.5714,18.2857 40.0544,16.5442 57.4694,17.8503 68.3537,8.7075 70.5306,9.5782 74.0136,25.6871 74.449,46.585 72.2721,51.8095 67.0476,55.2925 57.034,57.9048 39.1837,58.3401 28.2993,52.6803 24.8163,43.102 21.3333,27.8639" stroke="#00007f" stroke-width="2" /><polyline fill="none" points="39.1837,41.7959 16.1088,47.0204 8.7075,52.2449 8.7075,55.7279" stroke="#0028ff" stroke-width="2" /><polyline fill="none" points="45.7143,44.8435 28.7347,52.6803 15.2381,63.1293 13.4966,66.6122" stroke="#00d4ff" stroke-width="2" /><polyline fill="none" points="39.1837,54.8571 30.9116,58.7755 20.0272,66.6122 18.7211,68.7891 19.1565,73.5782" stroke="#7cff79" stroke-width="2" /><polyline fill="none" points="65.3061,35.7007 88.8163,28.7347 105.3605,29.1701 119.2925,33.9592" stroke="#ffe500" stroke-width="2" /><polyline fill="none" points="63.5646,41.3605 73.5782,40.0544 91.8639,40.0544 111.4558,45.7143" stroke="#ff4600" stroke-width="2" /><polyline fill="none" points="72.7075,51.8095 91.4286,59.2109" stroke="#7f0000" stroke-width="2" /></svg>