<?xml version="1.0" encoding="utf-8" ?>
<svg baseProfile="tiny" height="128" version="1.2" viewBox="0,0,128,128" width="128" xmlns="http://www.w3.org/2000/svg" xmlns:ev="http://www.w3.org/2001/xml-events" xmlns:xlink="http://www.w3.org/1999/xlink"><defs /><polyline fill="none" points="31.3469,43.9728 33.9592,69.2245 39.1837,89.6871 41.7959,93.6054 47.0204,97.5238 56.5986,99.2653 63.1293,96.6531 65.7415,90.9932 62.6939,87.0748 53.1156,86.2041 51.3741,84.898 51.3741,68.7891 48.7619,52.2449 49.1973,44.8435 77.4966,44.4082 78.3673,49.1973 77.932,76.6259 80.1088,84.0272 86.6395,90.1224 94.0408,93.1701 100.5714,94.0408 104.0544,90.5578 104.9252,85.3333 104.0544,82.2857 100.5714,80.5442 91.8639,80.1088 88.381,42.6667" stroke="#00007f" stroke-width="2" /><polyline fill="none" points="87.9456,42.6667 95.3469,37.8776 107.5374,35.2653 110.585,31.3469" stroke="#0000de" stroke-width="2" /><polyline fill="none" points="31.7823,43.5374 20.0272,62.6939 13.4966,79.2381 8.7075,68.7891 8.7075,63.5646 15.2381,53.9864 24.381,44.8435 40.0544,26.1224 68.7891,22.2041 76.6259,22.2041 92.7347,24.8163" stroke="#0028ff" stroke-width="2" /><polyline fill="none" points="92.7347,24.8163 101.8776,12.1905 108.8435,8.7075 119.2925,17.8503 114.5034,20.898 112.7619,28.2993 110.1497,31.7823" stroke="#0080ff" stroke-width="2" /><polyline fill="none" points="109.7143,21.7687 100.5714,26.9932" stroke="#00d4ff" stroke-width="2" /><polyline fill="none" points="106.6667,26.1224 101.4422,31.7823 101.4422,30.0408" stroke="#36ffc0" stroke-width="2" /><polyline fill="none" points="108.4082,15.6735 108.4082,15.6735" stroke="#7cff79" stroke-width="2" /><polyline fill="none" points="111.0204,23.9456 111.0204,23.9456" stroke="#c0ff36" stroke-width="2" /><polyline fill="none" points="109.2789,27.8639 108.8435,26.1224" stroke="#ffe500" stroke-width="2" /><polyline fill="none" points="108.8435,25.6871 108.4082,23.9456" stroke="#ff9400" stroke-width="2" /><polyline fill="none" points="108.8435,23.9456 108.8435,23.9456" stroke="#ff4600" stroke-width="2" /><polyline fill="none" points="113.1973,26.5578 114.068,26.9932" stroke="#de0000" stroke-width="2" /><polyline fill="none" points="113.6327,26.9932 112.7619,26.5578" stroke="#7f0000" stroke-width="2" /></svg>