<?xml version="1.0" encoding="utf-8" ?>
<svg baseProfile="tiny" height="128" version="1.2" viewBox="0,0,128,128" width="128" xmlns="http://www.w3.org/2000/svg" xmlns:ev="http://www.w3.org/2001/xml-events" xmlns:xlink="http://www.w3.org/1999/xlink"><defs /><polyline fill="none" points="15.1864,57.2746 14.3186,45.9932 8.678,19.5254 20.8271,27.7695 39.0508,50.3322 55.1051,47.2949 74.1966,46.4271 84.6102,47.2949 93.2881,51.2 98.4949,37.3153 117.5864,8.678 116.7186,43.8237 119.322,57.2746 113.6814,57.2746 109.3424,60.3119 109.3424,88.0814 107.1729,94.5898 88.9492,105.4373 72.8949,107.1729 61.6136,106.3051 43.3898,102.4 32.5424,97.1932 23.8644,89.3831 20.8271,83.7424 18.2237,74.1966 17.3559,60.3119" stroke="#00007f" stroke-width="2" /><polyline fill="none" points="63.3492,86.3458 62.4814,88.9492 64.2169,91.9864 68.5559,91.5525 69.8576,88.0814 66.8203,85.0441 62.4814,85.478" stroke="#0000ff" stroke-width="2" /><polyline fill="none" points="68.9898,87.6475 75.9322,87.6475 93.722,84.1763" stroke="#0080ff" stroke-width="2" /><polyline fill="none" points="70.7254,92.4203 91.9864,95.0237" stroke="#15ffe1" stroke-width="2" /><polyline fill="none" points="60.7458,90.2508 42.522,82.8746 39.0508,80.2712" stroke="#7cff79" stroke-width="2" /><polyline fill="none" points="61.1797,93.722 45.1254,96.7593 36.0136,95.8915" stroke="#e4ff12" stroke-width="2" /><polyline fill="none" points="45.9932,68.122 45.9932,69.4237 49.0305,70.2915 50.3322,70.2915 49.4644,68.122 45.5593,67.2542" stroke="#ff9400" stroke-width="2" /><polyline fill="none" points="67.6881,68.122 71.5932,71.5932 74.6305,72.0271 78.5356,70.2915 80.2712,66.8203 78.9695,65.5186 75.9322,65.9525 67.6881,70.7254" stroke="#ff1d00" stroke-width="2" /><polyline fill="none" points="65.5186,92.4203 64.6508,97.1932 61.1797,99.3627" stroke="#7f0000" stroke-width="2" /></svg>