<?xml version="1.0" encoding="utf-8" ?>
<svg baseProfile="tiny" height="128" version="1.2" viewBox="0,0,128,128" width="128" xmlns="http://www.w3.org/2000/svg" xmlns:ev="http://www.w3.org/2001/xml-events" xmlns:xlink="http://www.w3.org/1999/xlink"><defs /><polyline fill="none" points="72.0271,22.1288 58.5763,20.8271 54.2373,23.8644 49.4644,29.0712 42.9559,40.7864 37.7492,55.9729 36.8814,74.1966 52.5017,75.0644 69.4237,71.5932 79.4034,67.2542 84.1763,61.6136 87.2136,51.6339 86.3458,36.8814 84.1763,32.1085 73.3288,24.7322 68.5559,19.5254" stroke="#00007f" stroke-width="2" /><polyline fill="none" points="62.9153,21.6949 54.6712,12.5831 48.1627,8.678 47.7288,16.4881 49.8983,25.6" stroke="#0000b1" stroke-width="2" /><polyline fill="none" points="84.1763,32.1085 88.0814,31.2407 101.0983,23.8644 118.0203,17.3559 117.5864,22.1288 114.1153,27.7695 91.9864,45.1254" stroke="#0000e8" stroke-width="2" /><polyline fill="none" points="62.0475,30.8068 59.878,34.278 61.6136,34.7119" stroke="#0008ff" stroke-width="2" /><polyline fill="none" points="78.1017,35.5797 73.7627,41.2203" stroke="#0038ff" stroke-width="2" /><polyline fill="none" points="63.7831,44.2576 63.3492,48.1627 65.9525,49.4644 65.9525,45.1254 62.9153,45.1254" stroke="#0068ff" stroke-width="2" /><polyline fill="none" points="63.3492,49.8983 50.3322,56.4068 43.8237,55.539 43.8237,52.0678 46.4271,49.8983" stroke="#0094ff" stroke-width="2" /><polyline fill="none" points="63.3492,49.4644 57.7085,54.6712 57.2746,57.2746 65.9525,62.4814" stroke="#00c4ff" stroke-width="2" /><polyline fill="none" points="67.2542,54.2373 67.2542,55.539" stroke="#0cf4ea" stroke-width="2" /><polyline fill="none" points="70.2915,58.5763 70.2915,59.0102" stroke="#2fffc7" stroke-width="2" /><polyline fill="none" points="75.0644,54.2373 73.7627,54.2373" stroke="#56ffa0" stroke-width="2" /><polyline fill="none" points="73.3288,54.6712 90.2508,61.1797 104.5695,69.4237 112.8136,76.3661 117.5864,84.6102" stroke="#7cff79" stroke-width="2" /><polyline fill="none" points="70.7254,57.7085 101.5322,91.9864" stroke="#a0ff56" stroke-width="2" /><polyline fill="none" points="64.2169,45.5593 62.4814,49.8983 66.8203,49.0305 67.2542,47.2949" stroke="#c7ff2f" stroke-width="2" /><polyline fill="none" points="66.3864,46.861 64.6508,45.1254" stroke="#eaff0c" stroke-width="2" /><polyline fill="none" points="67.6881,55.539 101.0983,76.8 113.6814,86.3458 119.322,92.4203" stroke="#ffd700" stroke-width="2" /><polyline fill="none" points="55.1051,46.4271 54.6712,46.4271" stroke="#ffaa00" stroke-width="2" /><polyline fill="none" points="52.9356,47.2949 51.6339,48.5966" stroke="#ff8100" stroke-width="2" /><polyline fill="none" points="51.6339,44.2576 51.6339,44.2576" stroke="#ff5500" stroke-width="2" /><polyline fill="none" points="52.0678,43.8237 50.7661,42.9559" stroke="#ff2800" stroke-width="2" /><polyline fill="none" points="50.7661,42.9559 26.9017,40.3525 12.5831,40.3525 8.678,41.6542" stroke="#e80000" stroke-width="2" /><polyline fill="none" points="52.0678,47.7288 10.8475,56.4068" stroke="#b10000" stroke-width="2" /><polyline fill="none" points="54.2373,46.861 16.0542,45.9932" stroke="#7f0000" stroke-width="2" /></svg>