<?xml version="1.0" encoding="utf-8" ?>
<svg baseProfile="tiny" height="128" version="1.2" viewBox="0,0,128,128" width="128" xmlns="http://www.w3.org/2000/svg" xmlns:ev="http://www.w3.org/2001/xml-events" xmlns:xlink="http://www.w3.org/1999/xlink"><defs /><polyline fill="none" points="23.8644,48.1627 33.8441,35.1458 36.0136,19.9593 40.3525,16.4881 44.2576,20.8271 47.2949,31.2407 55.539,42.522" stroke="#00007f" stroke-width="2" /><polyline fill="none" points="56.4068,43.3898 77.2339,21.6949 92.8542,8.678 96.7593,27.3356 97.6271,45.9932 92.8542,48.1627 53.8034,48.1627 37.7492,50.7661 32.1085,57.7085 29.939,63.3492 23.8644,72.461 24.7322,79.8373 30.3729,94.1559 35.1458,98.9288 45.1254,101.5322 79.8373,103.2678 95.0237,97.6271 99.7966,92.8542 103.2678,86.7797 107.1729,74.1966 113.6814,64.2169 113.6814,58.5763 111.9458,53.8034 106.3051,50.7661" stroke="#0000f1" stroke-width="2" /><polyline fill="none" points="65.9525,62.9153 66.8203,62.0475" stroke="#004cff" stroke-width="2" /><polyline fill="none" points="78.1017,62.9153 78.1017,62.9153" stroke="#00b0ff" stroke-width="2" /><polyline fill="none" points="78.1017,66.8203 78.1017,66.8203" stroke="#29ffcd" stroke-width="2" /><polyline fill="none" points="78.1017,66.8203 79.8373,66.8203" stroke="#7cff79" stroke-width="2" /><polyline fill="none" points="68.5559,73.3288 49.8983,73.3288 16.0542,68.5559" stroke="#cdff29" stroke-width="2" /><polyline fill="none" points="61.1797,83.7424 45.5593,84.6102 10.4136,83.7424 8.678,82.0068" stroke="#ffc400" stroke-width="2" /><polyline fill="none" points="74.1966,77.2339 84.6102,71.5932 111.9458,66.8203" stroke="#ff6700" stroke-width="2" /><polyline fill="none" points="83.7424,88.5153 119.322,86.3458" stroke="#f10700" stroke-width="2" /><polyline fill="none" points="68.5559,92.8542 71.5932,92.8542" stroke="#7f0000" stroke-width="2" /></svg>