<?xml version="1.0" encoding="utf-8" ?>
<svg baseProfile="tiny" height="128" version="1.2" viewBox="0,0,128,128" width="128" xmlns="http://www.w3.org/2000/svg" xmlns:ev="http://www.w3.org/2001/xml-events" xmlns:xlink="http://www.w3.org/1999/xlink"><defs /><polyline fill="none" points="37.3153,45.9932 50.7661,16.922 63.7831,41.6542 75.9322,15.6203 78.9695,11.7153 85.0441,8.678 87.2136,34.278 95.0237,61.1797 66.8203,52.5017 28.6373,37.3153 21.6949,41.2203 9.1119,62.0475 8.678,69.4237 13.4508,75.0644 34.7119,86.7797 45.1254,88.9492 52.0678,88.9492 61.6136,86.3458 78.5356,79.8373 83.7424,76.3661 91.1186,66.8203 93.722,58.1424 92.4203,51.2 88.9492,49.8983" stroke="#00007f" stroke-width="2" /><polyline fill="none" points="53.3695,67.6881 53.3695,67.6881" stroke="#0000ff" stroke-width="2" /><polyline fill="none" points="62.4814,70.2915 68.122,70.2915" stroke="#0080ff" stroke-width="2" /><polyline fill="none" points="46.4271,74.1966 45.5593,76.8 47.7288,80.2712 52.0678,83.7424 58.1424,85.9119 62.0475,85.9119 67.2542,82.8746 70.7254,74.6305" stroke="#15ffe1" stroke-width="2" /><polyline fill="none" points="41.2203,60.3119 50.7661,68.5559 52.9356,68.9898 52.9356,67.6881" stroke="#7cff79" stroke-width="2" /><polyline fill="none" points="43.3898,79.8373 42.0881,83.7424 35.5797,86.7797 19.5254,89.3831 19.0915,91.9864 22.1288,97.1932 29.0712,105.0034 45.5593,113.2475 60.7458,114.5492 65.0847,111.9458 67.2542,108.4746" stroke="#e4ff12" stroke-width="2" /><polyline fill="none" points="79.8373,86.7797 91.9864,105.8712 93.722,112.3797 91.5525,117.1525 88.5153,119.322 78.5356,116.7186" stroke="#ff9400" stroke-width="2" /><polyline fill="none" points="55.539,97.1932 57.7085,94.1559 62.9153,91.9864 65.9525,101.0983" stroke="#ff1d00" stroke-width="2" /><polyline fill="none" points="69.8576,95.0237 69.8576,98.9288" stroke="#7f0000" stroke-width="2" /></svg>