<?xml version="1.0" encoding="utf-8" ?>
<svg baseProfile="tiny" height="128" version="1.2" viewBox="0,0,128,128" width="128" xmlns="http://www.w3.org/2000/svg" xmlns:ev="http://www.w3.org/2001/xml-events" xmlns:xlink="http://www.w3.org/1999/xlink"><defs /><polyline fill="none" points="87.6475,66.3864 82.8746,57.7085 74.6305,50.7661 65.0847,45.5593 53.8034,43.8237 42.522,43.8237 32.5424,51.2 24.7322,62.4814 21.261,71.5932 19.5254,80.7051 19.9593,93.2881 30.3729,105.4373 42.0881,111.078 54.2373,113.2475 72.461,113.2475 78.9695,111.5119 91.1186,102.4 95.4576,94.5898 98.061,85.478 98.061,72.461 96.7593,69.4237 88.5153,59.878 82.8746,58.1424" stroke="#00007f" stroke-width="2" /><polyline fill="none" points="71.1593,51.6339 82.0068,44.2576 119.322,26.0339 114.9831,37.7492 87.2136,74.6305 85.9119,78.1017" stroke="#0080ff" stroke-width="2" /><polyline fill="none" points="10.8475,51.6339 8.678,28.2034 8.678,8.678 13.0169,10.8475 23.4305,24.2983 29.5051,32.5424 40.7864,53.3695" stroke="#7cff79" stroke-width="2" /><polyline fill="none" points="46.861,60.3119 47.7288,64.6508 46.861,71.5932" stroke="#ff9400" stroke-width="2" /><polyline fill="none" points="68.122,66.3864 67.6881,81.139" stroke="#7f0000" stroke-width="2" /></svg>