<?xml version="1.0" encoding="utf-8" ?>
<svg baseProfile="tiny" height="128" version="1.2" viewBox="0,0,128,128" width="128" xmlns="http://www.w3.org/2000/svg" xmlns:ev="http://www.w3.org/2001/xml-events" xmlns:xlink="http://www.w3.org/1999/xlink"><defs /><polyline fill="none" points="31.6746,22.9966 27.3356,26.0339 26.0339,32.1085 27.3356,38.1831 31.6746,40.3525 34.7119,40.3525 37.7492,37.7492 41.2203,30.3729 39.9186,24.7322 33.8441,23.4305" stroke="#00007f" stroke-width="2" /><polyline fill="none" points="54.6712,13.8847 50.3322,13.8847 46.861,16.4881 43.3898,21.6949 42.522,26.4678 44.6915,35.5797 52.5017,43.8237 59.4441,47.2949 72.0271,49.8983 84.6102,48.5966 95.0237,45.1254 99.3627,39.9186 100.6644,29.5051 98.061,21.6949 90.6847,13.4508 81.139,9.1119 68.9898,8.678 59.4441,10.8475 51.6339,15.6203" stroke="#0000f1" stroke-width="2" /><polyline fill="none" points="57.7085,46.4271 54.6712,55.9729" stroke="#004cff" stroke-width="2" /><polyline fill="none" points="61.6136,47.7288 63.3492,51.6339 68.5559,56.8407" stroke="#00b0ff" stroke-width="2" /><polyline fill="none" points="92.4203,47.7288 88.9492,57.2746" stroke="#29ffcd" stroke-width="2" /><polyline fill="none" points="93.722,48.1627 94.1559,50.3322" stroke="#7cff79" stroke-width="2" /><polyline fill="none" points="31.6746,32.9763 28.2034,46.861 28.2034,56.4068 29.5051,56.4068" stroke="#cdff29" stroke-width="2" /><polyline fill="none" points="30.8068,33.8441 33.4102,43.3898 37.7492,50.3322" stroke="#ffc400" stroke-width="2" /><polyline fill="none" points="25.6,29.939 8.678,17.3559" stroke="#ff6700" stroke-width="2" /><polyline fill="none" points="25.6,27.3356 21.261,19.5254 18.6576,9.1119" stroke="#f10700" stroke-width="2" /><polyline fill="none" points="101.0983,32.5424 100.6644,30.8068 102.4,29.0712 108.0407,29.0712 108.9085,42.522 113.2475,47.2949 119.322,50.7661" stroke="#7f0000" stroke-width="2" /></svg>