<?xml version="1.0" encoding="utf-8" ?>
<svg baseProfile="tiny" height="128" version="1.2" viewBox="0,0,128,128" width="128" xmlns="http://www.w3.org/2000/svg" xmlns:ev="http://www.w3.org/2001/xml-events" xmlns:xlink="http://www.w3.org/1999/xlink"><defs /><polyline fill="none" points="71.5932,26.4678 58.5763,28.6373 47.2949,36.0136 36.8814,48.5966 32.9763,56.4068 29.939,63.3492 29.0712,73.3288 31.6746,77.2339 41.2203,83.3085 56.8407,84.6102 71.5932,80.7051 84.1763,71.1593 92.8542,59.0102 95.4576,52.5017 95.8915,43.8237 95.0237,42.0881 87.2136,37.3153 68.122,29.939" stroke="#00007f" stroke-width="2" /><polyline fill="none" points="17.3559,50.3322 11.7153,34.7119 8.678,16.4881 9.1119,10.4136 12.5831,10.4136 41.6542,32.5424 47.2949,35.1458" stroke="#0000fe" stroke-width="2" /><polyline fill="none" points="73.7627,30.3729 102.4,14.7525 119.322,8.678 111.078,36.8814 104.5695,48.1627 98.4949,53.3695" stroke="#0060ff" stroke-width="2" /><polyline fill="none" points="51.6339,52.0678 52.5017,52.0678" stroke="#00d4ff" stroke-width="2" /><polyline fill="none" points="67.6881,53.3695 67.6881,53.3695" stroke="#4cffaa" stroke-width="2" /><polyline fill="none" points="69.4237,52.9356 69.4237,52.9356" stroke="#aaff4c" stroke-width="2" /><polyline fill="none" points="46.861,65.9525 47.2949,69.4237 52.5017,73.7627 57.2746,72.8949 62.0475,66.8203 63.7831,70.7254 67.6881,72.8949 71.5932,71.5932 75.0644,67.6881" stroke="#ffe500" stroke-width="2" /><polyline fill="none" points="17.3559,44.2576 22.5627,59.4441 26.9017,62.4814" stroke="#ff7a00" stroke-width="2" /><polyline fill="none" points="35.5797,53.3695 27.7695,41.6542 22.5627,29.939 41.2203,42.522" stroke="#fe1200" stroke-width="2" /><polyline fill="none" points="85.0441,36.0136 101.0983,24.2983" stroke="#7f0000" stroke-width="2" /></svg>