<?xml version="1.0" encoding="utf-8" ?>
<svg baseProfile="tiny" height="128" version="1.2" viewBox="0,0,128,128" width="128" xmlns="http://www.w3.org/2000/svg" xmlns:ev="http://www.w3.org/2001/xml-events" xmlns:xlink="http://www.w3.org/1999/xlink"><defs /><polyline fill="none" points="12.5831,30.3729 15.6203,18.2237 23.8644,29.939" stroke="#00007f" stroke-width="2" /><polyline fill="none" points="25.6,29.0712 32.5424,23.4305 39.9186,22.1288 47.7288,23.4305 52.5017,27.7695 57.2746,12.5831 60.7458,8.678 65.0847,28.6373" stroke="#0000d5" stroke-width="2" /><polyline fill="none" points="12.1492,30.3729 13.4508,42.522 20.8271,57.2746 29.0712,64.2169 38.6169,66.3864 49.0305,65.0847 55.9729,60.3119 61.1797,49.4644 65.0847,30.8068" stroke="#001cff" stroke-width="2" /><polyline fill="none" points="62.0475,30.8068 98.4949,33.4102" stroke="#006cff" stroke-width="2" /><polyline fill="none" points="51.2,66.3864 90.2508,68.5559" stroke="#00b8ff" stroke-width="2" /><polyline fill="none" points="100.2305,32.5424 113.6814,17.3559 118.8881,14.7525 119.322,19.0915 117.5864,23.8644 108.9085,34.7119 100.2305,40.7864 98.9288,62.9153 96.3254,66.8203 91.1186,69.8576" stroke="#1cffda" stroke-width="2" /><polyline fill="none" points="55.9729,66.3864 56.8407,87.2136 60.3119,89.8169 62.0475,89.3831 64.2169,85.0441 67.6881,65.5186" stroke="#5cff9a" stroke-width="2" /><polyline fill="none" points="77.2339,68.5559 76.8,82.8746 78.1017,90.2508 80.7051,95.4576 85.478,88.0814 86.3458,68.9898" stroke="#9aff5c" stroke-width="2" /><polyline fill="none" points="34.278,49.8983 19.0915,45.9932 9.9797,39.9186" stroke="#daff1c" stroke-width="2" /><polyline fill="none" points="32.5424,54.6712 8.678,54.2373" stroke="#ffcb00" stroke-width="2" /><polyline fill="none" points="32.9763,60.3119 20.8271,62.9153 17.7898,65.0847 14.7525,69.8576" stroke="#ff8500" stroke-width="2" /><polyline fill="none" points="49.8983,48.1627 59.4441,43.8237 73.3288,41.2203" stroke="#ff3b00" stroke-width="2" /><polyline fill="none" points="46.4271,55.1051 59.878,55.1051 68.5559,57.2746" stroke="#d50000" stroke-width="2" /><polyline fill="none" points="45.9932,60.7458 52.0678,64.6508 59.4441,72.461" stroke="#7f0000" stroke-width="2" /></svg>