<?xml version="1.0" encoding="utf-8" ?>
<svg baseProfile="tiny" height="128" version="1.2" viewBox="0,0,128,128" width="128" xmlns="http://www.w3.org/2000/svg" xmlns:ev="http://www.w3.org/2001/xml-events" xmlns:xlink="http://www.w3.org/1999/xlink"><defs /><polyline fill="none" points="90.5578,50.5034 67.483,50.5034 50.5034,47.0204 43.102,47.0204 30.9116,55.2925 27.8639,59.2109 26.5578,70.5306 26.9932,86.6395 29.6054,98.3946" stroke="#00007f" stroke-width="2" /><polyline fill="none" points="33.9592,53.1156 32.6531,29.6054 37.8776,9.1429 41.3605,8.7075 43.9728,27.4286 50.068,44.4082" stroke="#0010ff" stroke-width="2" /><polyline fill="none" points="83.1565,46.585 90.5578,29.1701 94.4762,26.5578 106.2313,23.0748 114.9388,22.6395 118.4218,26.1224 119.2925,33.9592 113.6327,39.619 102.7483,42.2313 95.3469,47.0204 90.9932,53.1156" stroke="#00a4ff" stroke-width="2" /><polyline fill="none" points="89.6871,53.9864 97.0884,54.4218 103.1837,61.3878 109.2789,74.0136 112.7619,85.7687 112.3265,92.7347 110.1497,96.2177 104.9252,102.7483 97.0884,107.102 78.8027,112.3265 63.5646,113.6327 40.4898,98.8299 8.7075,86.6395" stroke="#3fffb7" stroke-width="2" /><polyline fill="none" points="70.5306,76.1905 67.483,77.0612 65.3061,81.8503 65.7415,85.3333 68.7891,88.8163 72.2721,89.2517 74.0136,85.7687 74.0136,81.8503 68.7891,75.7551" stroke="#b7ff3f" stroke-width="2" /><polyline fill="none" points="48.7619,70.0952 48.3265,68.7891" stroke="#ffb900" stroke-width="2" /><polyline fill="none" points="80.9796,66.1769 84.4626,68.3537 88.381,68.3537" stroke="#ff3000" stroke-width="2" /><polyline fill="none" points="92.2993,94.9116 85.7687,97.5238 81.8503,97.5238 64.0,94.0408 63.1293,97.5238" stroke="#7f0000" stroke-width="2" /></svg>