<?xml version="1.0" encoding="utf-8" ?>
<svg baseProfile="tiny" height="128" version="1.2" viewBox="0,0,128,128" width="128" xmlns="http://www.w3.org/2000/svg" xmlns:ev="http://www.w3.org/2001/xml-events" xmlns:xlink="http://www.w3.org/1999/xlink"><defs /><polyline fill="none" points="42.9559,36.0136 37.3153,40.7864 35.5797,49.8983 35.1458,54.2373 38.6169,62.4814 52.9356,72.461 64.6508,74.6305 74.6305,72.8949 87.6475,65.0847 91.9864,59.4441 94.1559,52.5017 93.722,46.861 87.6475,37.7492 84.1763,34.7119 68.9898,32.1085 46.861,33.4102 40.7864,36.8814" stroke="#00007f" stroke-width="2" /><polyline fill="none" points="40.7864,36.8814 40.7864,19.5254 48.5966,21.6949 59.0102,31.6746" stroke="#0000ff" stroke-width="2" /><polyline fill="none" points="76.8,30.3729 80.7051,14.3186 84.1763,8.678 86.7797,20.3932 87.2136,39.0508" stroke="#0080ff" stroke-width="2" /><polyline fill="none" points="78.1017,48.5966 98.4949,32.9763 118.0203,21.6949" stroke="#15ffe1" stroke-width="2" /><polyline fill="none" points="82.4407,55.1051 95.4576,51.6339 119.322,49.0305" stroke="#7cff79" stroke-width="2" /><polyline fill="none" points="85.478,59.0102 99.7966,65.9525 104.1356,71.5932" stroke="#e4ff12" stroke-width="2" /><polyline fill="none" points="42.0881,44.6915 22.9966,44.6915 17.7898,43.3898" stroke="#ff9400" stroke-width="2" /><polyline fill="none" points="43.8237,55.9729 33.4102,59.878 8.678,72.8949" stroke="#ff1d00" stroke-width="2" /><polyline fill="none" points="44.6915,61.6136 44.6915,61.6136" stroke="#7f0000" stroke-width="2" /></svg>