<?xml version="1.0" encoding="utf-8" ?>
<svg baseProfile="tiny" height="128" version="1.2" viewBox="0,0,128,128" width="128" xmlns="http://www.w3.org/2000/svg" xmlns:ev="http://www.w3.org/2001/xml-events" xmlns:xlink="http://www.w3.org/1999/xlink"><defs /><polyline fill="none" points="82.0068,32.1085 80.2712,29.5051 72.0271,27.7695 63.3492,31.2407 57.7085,34.7119 53.8034,40.7864 50.3322,53.3695 50.3322,62.9153 51.6339,66.3864 56.4068,72.0271 62.0475,76.3661 74.1966,78.5356 90.6847,78.1017 98.4949,71.1593 101.9661,62.9153 102.4,57.2746 102.4,42.9559 101.0983,39.4847 95.0237,32.9763 79.4034,28.2034" stroke="#00007f" stroke-width="2" /><polyline fill="none" points="52.0678,37.3153 54.2373,26.4678 57.7085,17.7898 62.9153,12.5831 66.3864,11.7153 69.4237,11.2814 71.5932,13.8847 75.9322,27.3356 78.9695,29.5051 83.3085,29.5051" stroke="#0000fe" stroke-width="2" /><polyline fill="none" points="99.3627,30.8068 102.4,22.1288 108.4746,14.7525 117.1525,8.678 119.322,11.7153 118.4542,21.261 105.8712,59.878" stroke="#0060ff" stroke-width="2" /><polyline fill="none" points="76.3661,55.1051 73.7627,57.7085 73.7627,59.878 76.3661,62.0475 81.5729,62.0475 82.0068,59.878 77.2339,55.9729" stroke="#00d4ff" stroke-width="2" /><polyline fill="none" points="77.6678,62.0475 73.3288,69.8576 68.122,73.7627 60.3119,68.122 59.0102,65.5186 58.5763,59.4441" stroke="#4cffaa" stroke-width="2" /><polyline fill="none" points="78.5356,62.9153 82.0068,75.4983 84.1763,78.5356 91.5525,82.0068 96.7593,82.4407 99.3627,81.139 99.7966,73.3288 96.7593,68.9898" stroke="#aaff4c" stroke-width="2" /><polyline fill="none" points="70.7254,42.522 71.1593,45.5593 73.3288,42.0881" stroke="#ffe500" stroke-width="2" /><polyline fill="none" points="86.3458,42.9559 85.9119,48.1627 88.0814,45.1254 87.6475,42.9559" stroke="#ff7a00" stroke-width="2" /><polyline fill="none" points="56.4068,68.122 37.3153,62.0475 28.2034,62.0475 20.3932,65.0847 15.1864,68.9898 9.1119,78.5356 8.678,98.9288 10.4136,105.4373 19.0915,112.8136 31.6746,116.7186 44.6915,118.8881 47.2949,118.8881 55.9729,114.1153 73.3288,101.0983 82.4407,90.2508 83.3085,83.7424 81.5729,81.5729 78.5356,80.2712" stroke="#fe1200" stroke-width="2" /><polyline fill="none" points="9.5458,68.122 9.5458,54.6712" stroke="#7f0000" stroke-width="2" /></svg>