<?xml version="1.0" encoding="utf-8" ?>
<svg baseProfile="tiny" height="128" version="1.2" viewBox="0,0,128,128" width="128" xmlns="http://www.w3.org/2000/svg" xmlns:ev="http://www.w3.org/2001/xml-events" xmlns:xlink="http://www.w3.org/1999/xlink"><defs /><polyline fill="none" points="35.5797,107.6068 29.939,101.9661 25.1661,95.0237 9.5458,63.3492 8.678,55.1051 10.8475,46.861 14.7525,41.2203 23.4305,33.8441 13.0169,8.678 17.3559,11.7153 31.6746,31.2407 32.9763,31.6746 36.8814,28.6373 43.8237,28.2034 65.9525,28.6373 73.7627,31.2407 84.1763,40.7864 98.4949,17.7898 102.8339,11.7153 104.1356,13.4508 96.3254,39.0508 100.2305,41.6542 102.4,45.1254 104.1356,59.878 104.1356,78.1017 100.6644,89.3831 91.1186,97.6271 76.8,102.8339 59.0102,103.7017 43.8237,102.8339 31.2407,99.7966" stroke="#00007f" stroke-width="2" /><polyline fill="none" points="57.2746,76.8 57.2746,76.8" stroke="#0010ff" stroke-width="2" /><polyline fill="none" points="47.2949,64.2169 54.2373,78.1017 64.2169,68.9898 63.3492,67.2542 54.6712,65.0847 42.9559,65.9525" stroke="#00a4ff" stroke-width="2" /><polyline fill="none" points="58.5763,73.3288 98.9288,77.2339 113.6814,80.7051 119.322,82.4407 117.5864,83.3085" stroke="#3fffb7" stroke-width="2" /><polyline fill="none" points="61.6136,78.9695 86.7797,86.3458 98.4949,92.4203" stroke="#b7ff3f" stroke-width="2" /><polyline fill="none" points="62.9153,82.0068 68.122,84.6102 99.7966,107.1729" stroke="#ffb900" stroke-width="2" /><polyline fill="none" points="47.2949,69.4237 38.6169,71.1593 22.9966,76.8 17.7898,79.8373 20.3932,80.2712" stroke="#ff3000" stroke-width="2" /><polyline fill="none" points="49.8983,77.2339 20.3932,88.0814 51.2,83.3085" stroke="#7f0000" stroke-width="2" /></svg>