<?xml version="1.0" encoding="utf-8" ?>
<svg baseProfile="tiny" height="128" version="1.2" viewBox="0,0,128,128" width="128" xmlns="http://www.w3.org/2000/svg" xmlns:ev="http://www.w3.org/2001/xml-events" xmlns:xlink="http://www.w3.org/1999/xlink"><defs /><polyline fill="none" points="30.3729,34.7119 24.2983,36.4475 14.3186,45.5593 8.678,59.0102 8.678,65.9525 11.7153,73.7627 19.5254,80.7051 29.939,85.0441 43.8237,88.0814 62.0475,89.3831 76.3661,87.2136 99.3627,80.2712 109.7763,73.3288 114.9831,67.2542 117.1525,63.7831 118.4542,56.8407 117.5864,48.5966 114.1153,41.6542 108.0407,33.8441 101.5322,28.6373 83.7424,23.4305 69.4237,22.9966 55.1051,24.7322 29.939,31.2407 20.8271,36.8814 15.6203,42.9559" stroke="#00007f" stroke-width="2" /><polyline fill="none" points="15.1864,39.9186 25.1661,10.8475 27.7695,11.7153 38.1831,21.261 42.9559,22.9966" stroke="#0028ff" stroke-width="2" /><polyline fill="none" points="91.9864,24.7322 111.5119,8.678 115.4169,23.8644" stroke="#00d4ff" stroke-width="2" /><polyline fill="none" points="41.2203,47.7288 51.6339,46.4271" stroke="#7cff79" stroke-width="2" /><polyline fill="none" points="78.5356,45.5593 91.5525,45.1254" stroke="#ffe500" stroke-width="2" /><polyline fill="none" points="60.7458,61.6136 54.6712,65.0847 54.2373,69.8576 56.8407,71.1593 62.4814,69.8576 68.5559,65.5186 69.8576,67.6881 75.4983,67.2542 77.2339,65.5186 76.8,64.2169" stroke="#ff4600" stroke-width="2" /><polyline fill="none" points="45.9932,106.3051 42.0881,104.5695 39.9186,111.5119 41.2203,118.0203 45.1254,119.322 50.7661,116.2847 55.539,110.2102 55.539,115.8508 59.878,117.5864 62.9153,115.8508 65.5186,111.9458 65.9525,105.8712" stroke="#7f0000" stroke-width="2" /></svg>