<?xml version="1.0" encoding="utf-8" ?>
<svg baseProfile="tiny" height="128" version="1.2" viewBox="0,0,128,128" width="128" xmlns="http://www.w3.org/2000/svg" xmlns:ev="http://www.w3.org/2001/xml-events" xmlns:xlink="http://www.w3.org/1999/xlink"><defs /><polyline fill="none" points="87.9456,20.4626 90.9932,12.1905 97.0884,21.3333 103.1837,20.4626 111.4558,22.2041 116.6803,16.5442 119.2925,15.6735 119.2925,25.2517 117.551,35.2653 114.068,39.619 107.102,42.6667 98.8299,42.6667 92.2993,38.7483 89.2517,32.6531 87.9456,21.3333" stroke="#00007f" stroke-width="2" /><polyline fill="none" points="98.3946,26.5578 98.3946,26.5578" stroke="#0000ba" stroke-width="2" /><polyline fill="none" points="98.3946,26.5578 98.3946,32.2177" stroke="#0000f5" stroke-width="2" /><polyline fill="none" points="106.2313,26.9932 105.3605,33.0884" stroke="#0020ff" stroke-width="2" /><polyline fill="none" points="101.0068,34.8299 98.8299,35.2653 97.0884,37.0068 98.8299,38.7483 101.8776,39.1837 103.619,37.4422 100.5714,35.2653" stroke="#0054ff" stroke-width="2" /><polyline fill="none" points="100.5714,38.7483 100.1361,41.7959 97.5238,41.7959" stroke="#008cff" stroke-width="2" /><polyline fill="none" points="100.5714,39.1837 100.1361,40.4898 101.8776,41.7959 104.0544,42.6667 104.4898,41.3605" stroke="#00c0ff" stroke-width="2" /><polyline fill="none" points="91.4286,37.0068 67.483,34.8299 48.3265,37.4422 40.0544,40.0544 35.2653,43.5374 32.6531,47.4558 32.6531,53.1156 36.1361,57.4694 41.3605,60.0816 53.1156,61.3878 63.1293,60.517 79.2381,55.7279 86.2041,52.2449 91.8639,46.585 93.1701,42.6667 92.2993,40.9252" stroke="#0ff8e7" stroke-width="2" /><polyline fill="none" points="50.068,58.7755 45.7143,59.2109 43.9728,60.9524 44.4082,67.9184 46.585,70.5306 50.9388,67.483 52.6803,60.0816 54.4218,58.7755" stroke="#39ffbd" stroke-width="2" /><polyline fill="none" points="63.1293,59.6463 62.2585,62.2585 63.1293,67.0476 67.9184,68.7891 71.8367,64.8707 72.2721,57.4694" stroke="#66ff90" stroke-width="2" /><polyline fill="none" points="54.4218,60.9524 54.4218,67.0476 57.9048,68.7891 59.2109,66.6122 58.7755,59.2109" stroke="#90ff66" stroke-width="2" /><polyline fill="none" points="74.449,57.9048 75.7551,65.3061 77.4966,67.483 79.6735,67.483 80.9796,62.6939 79.2381,55.2925" stroke="#bdff39" stroke-width="2" /><polyline fill="none" points="37.0068,45.2789 31.7823,43.9728 27.4286,40.0544 14.8027,17.8503 11.7551,16.9796 9.5782,19.5918 8.7075,33.0884 13.4966,45.7143 16.9796,49.6327 21.3333,51.8095 33.5238,50.9388" stroke="#e7ff0f" stroke-width="2" /><polyline fill="none" points="80.5442,23.9456 80.1088,21.3333 74.449,17.415 53.551,8.7075 43.9728,9.5782 42.2313,11.3197 42.2313,15.6735 44.8435,19.5918 49.1973,23.0748 67.0476,27.8639 74.449,26.9932 79.6735,19.5918" stroke="#ffd300" stroke-width="2" /><polyline fill="none" points="48.3265,18.7211 48.7619,13.0612 51.3741,16.9796 53.9864,18.2857 53.551,11.3197" stroke="#ffa300" stroke-width="2" /><polyline fill="none" points="53.1156,14.3673 53.1156,14.3673" stroke="#ff6f00" stroke-width="2" /><polyline fill="none" points="53.551,12.1905 56.1633,17.8503" stroke="#ff3f00" stroke-width="2" /><polyline fill="none" points="62.6939,20.0272 59.6463,20.0272 58.3401,17.415 59.6463,16.1088 58.7755,16.9796" stroke="#f50b00" stroke-width="2" /><polyline fill="none" points="64.4354,17.415 60.9524,19.5918 64.0,20.4626 65.3061,19.5918 64.4354,18.7211" stroke="#ba0000" stroke-width="2" /><polyline fill="none" points="67.9184,20.0272 68.7891,23.0748 73.5782,23.5102 74.449,20.898" stroke="#7f0000" stroke-width="2" /></svg>