<?xml version="1.0" encoding="utf-8" ?>
<svg baseProfile="tiny" height="128" version="1.2" viewBox="0,0,128,128" width="128" xmlns="http://www.w3.org/2000/svg" xmlns:ev="http://www.w3.org/2001/xml-events" xmlns:xlink="http://www.w3.org/1999/xlink"><defs /><polyline fill="none" points="89.8169,21.6949 35.5797,9.1119 19.5254,8.678 11.7153,10.4136 8.678,15.1864 9.1119,30.8068 13.0169,49.4644 12.5831,63.3492 26.9017,68.9898 30.3729,63.3492 30.8068,45.5593 49.8983,44.6915 67.6881,48.1627 66.8203,65.9525 81.139,69.8576 84.1763,69.8576 85.478,67.2542 87.6475,47.7288 113.6814,51.2 118.0203,46.4271 119.322,40.7864 118.8881,35.5797 116.7186,31.2407 102.4,23.8644 88.5153,22.1288" stroke="#00007f" stroke-width="2" /><polyline fill="none" points="102.8339,37.7492 103.7017,43.8237 109.7763,44.6915 114.1153,42.522" stroke="#0000de" stroke-width="2" /><polyline fill="none" points="112.3797,36.8814 112.3797,36.8814" stroke="#0028ff" stroke-width="2" /><polyline fill="none" points="111.9458,36.8814 110.6441,41.2203" stroke="#0080ff" stroke-width="2" /><polyline fill="none" points="110.2102,35.5797 102.8339,42.522" stroke="#00d4ff" stroke-width="2" /><polyline fill="none" points="68.122,19.5254 56.4068,26.4678" stroke="#36ffc0" stroke-width="2" /><polyline fill="none" points="41.2203,37.7492 40.3525,35.5797" stroke="#7cff79" stroke-width="2" /><polyline fill="none" points="40.3525,20.8271 40.3525,21.261" stroke="#c0ff36" stroke-width="2" /><polyline fill="none" points="47.7288,49.0305 52.5017,55.539 61.6136,62.4814 64.6508,61.6136 69.8576,54.6712" stroke="#ffe500" stroke-width="2" /><polyline fill="none" points="79.4034,44.2576 79.4034,44.2576" stroke="#ff9400" stroke-width="2" /><polyline fill="none" points="78.9695,44.6915 77.2339,44.6915" stroke="#ff4600" stroke-width="2" /><polyline fill="none" points="72.461,27.3356 53.8034,20.3932" stroke="#de0000" stroke-width="2" /><polyline fill="none" points="44.6915,17.3559 34.278,20.8271" stroke="#7f0000" stroke-width="2" /></svg>