<?xml version="1.0" encoding="utf-8" ?>
<svg baseProfile="tiny" height="128" version="1.2" viewBox="0,0,128,128" width="128" xmlns="http://www.w3.org/2000/svg" xmlns:ev="http://www.w3.org/2001/xml-events" xmlns:xlink="http://www.w3.org/1999/xlink"><defs /><polyline fill="none" points="51.2,40.7864 46.4271,39.9186 28.2034,42.522 17.3559,46.861 11.7153,52.5017 8.678,58.1424 9.1119,62.9153 13.4508,66.8203 22.5627,69.4237 32.1085,69.4237 42.0881,66.3864 54.6712,59.0102 60.3119,57.7085 87.2136,73.3288 98.4949,72.0271 103.7017,67.6881 104.5695,61.1797 98.9288,53.3695 86.3458,42.522 76.8,36.8814 68.5559,35.5797 57.7085,44.2576 48.5966,44.6915" stroke="#00007f" stroke-width="2" /><polyline fill="none" points="95.0237,52.9356 119.322,40.3525 98.9288,67.6881" stroke="#0000c3" stroke-width="2" /><polyline fill="none" points="39.9186,57.7085 36.0136,74.6305 31.6746,85.0441 32.9763,84.6102" stroke="#0000ff" stroke-width="2" /><polyline fill="none" points="59.878,63.3492 50.7661,86.3458" stroke="#0034ff" stroke-width="2" /><polyline fill="none" points="85.0441,70.2915 78.1017,88.0814" stroke="#0070ff" stroke-width="2" /><polyline fill="none" points="99.7966,75.4983 99.7966,84.6102 98.4949,85.9119 95.0237,85.0441" stroke="#00acff" stroke-width="2" /><polyline fill="none" points="28.2034,45.1254 52.9356,8.678 52.5017,32.1085 50.7661,39.4847" stroke="#02e8f4" stroke-width="2" /><polyline fill="none" points="40.3525,39.0508 51.2,25.6 44.2576,42.0881" stroke="#32ffc3" stroke-width="2" /><polyline fill="none" points="24.2983,51.2 24.2983,52.0678" stroke="#63ff93" stroke-width="2" /><polyline fill="none" points="31.2407,85.9119 32.5424,88.0814 35.1458,88.9492 40.7864,85.0441 45.9932,75.9322 49.8983,60.7458" stroke="#93ff63" stroke-width="2" /><polyline fill="none" points="59.4441,68.5559 51.2,86.7797 52.5017,87.6475 64.2169,82.4407 69.4237,78.9695 75.0644,72.0271 77.6678,59.878" stroke="#c3ff32" stroke-width="2" /><polyline fill="none" points="76.3661,84.1763 74.1966,92.8542 81.139,93.2881 88.0814,88.9492 95.0237,75.9322 95.8915,62.9153" stroke="#f4f802" stroke-width="2" /><polyline fill="none" points="34.278,88.5153 28.6373,89.3831" stroke="#ffc000" stroke-width="2" /><polyline fill="none" points="36.0136,85.478 36.4475,90.2508" stroke="#ff8900" stroke-width="2" /><polyline fill="none" points="56.4068,85.9119 51.6339,91.5525" stroke="#ff5100" stroke-width="2" /><polyline fill="none" points="58.1424,82.8746 59.0102,90.2508 62.0475,92.4203" stroke="#ff1a00" stroke-width="2" /><polyline fill="none" points="75.0644,94.1559 73.7627,97.1932" stroke="#c30000" stroke-width="2" /><polyline fill="none" points="81.5729,92.4203 83.3085,98.9288" stroke="#7f0000" stroke-width="2" /></svg>