<?xml version="1.0" encoding="utf-8" ?>
<svg baseProfile="tiny" height="128" version="1.2" viewBox="0,0,128,128" width="128" xmlns="http://www.w3.org/2000/svg" xmlns:ev="http://www.w3.org/2001/xml-events" xmlns:xlink="http://www.w3.org/1999/xlink"><defs /><polyline fill="none" points="97.6271,40.3525 89.3831,37.7492 72.8949,37.3153 61.6136,39.0508 49.8983,44.2576 46.4271,46.861 44.2576,52.0678 45.1254,59.878 49.4644,71.5932 55.539,77.2339 61.1797,79.8373 74.1966,79.8373 84.1763,77.2339 93.2881,71.1593 95.8915,61.6136 95.0237,41.6542 88.5153,26.4678 85.0441,22.1288 81.5729,20.8271" stroke="#00007f" stroke-width="2" /><polyline fill="none" points="67.6881,57.2746 68.9898,57.2746 68.122,56.4068" stroke="#0000e8" stroke-width="2" /><polyline fill="none" points="61.1797,64.6508 73.7627,67.6881 77.2339,66.8203" stroke="#0038ff" stroke-width="2" /><polyline fill="none" points="64.2169,56.4068 35.1458,53.8034 12.5831,53.8034" stroke="#0094ff" stroke-width="2" /><polyline fill="none" points="62.9153,56.4068 27.3356,57.7085 8.678,60.3119" stroke="#0cf4ea" stroke-width="2" /><polyline fill="none" points="67.2542,58.5763 55.9729,60.3119 36.4475,68.9898" stroke="#56ffa0" stroke-width="2" /><polyline fill="none" points="70.7254,55.9729 77.2339,56.4068 89.8169,62.0475 101.5322,65.5186 119.322,66.8203" stroke="#a0ff56" stroke-width="2" /><polyline fill="none" points="72.8949,56.4068 89.8169,65.0847 103.2678,70.2915" stroke="#eaff0c" stroke-width="2" /><polyline fill="none" points="69.8576,56.8407 89.8169,68.9898 108.0407,76.8" stroke="#ffaa00" stroke-width="2" /><polyline fill="none" points="51.6339,39.4847 53.8034,36.8814 65.9525,8.678 71.5932,48.5966" stroke="#ff5500" stroke-width="2" /><polyline fill="none" points="79.4034,40.3525 98.4949,9.1119 99.3627,11.2814 99.3627,21.261 97.1932,55.9729" stroke="#e80000" stroke-width="2" /><polyline fill="none" points="59.878,47.7288 61.1797,49.0305 59.4441,48.5966" stroke="#7f0000" stroke-width="2" /></svg>