<?xml version="1.0" encoding="utf-8" ?>
<svg baseProfile="tiny" height="128" version="1.2" viewBox="0,0,128,128" width="128" xmlns="http://www.w3.org/2000/svg" xmlns:ev="http://www.w3.org/2001/xml-events" xmlns:xlink="http://www.w3.org/1999/xlink"><defs /><polyline fill="none" points="74.6305,32.9763 59.0102,33.8441 49.0305,38.1831 41.6542,45.5593 38.1831,53.3695 35.5797,62.0475 35.5797,74.6305 38.6169,80.2712 44.6915,84.1763 54.2373,86.7797 71.1593,86.7797 78.1017,85.478 88.9492,78.5356 97.6271,69.8576 103.7017,61.1797 104.5695,48.1627 99.7966,42.9559 81.139,31.6746 75.4983,29.939 65.5186,29.5051" stroke="#00007f" stroke-width="2" /><polyline fill="none" points="50.3322,36.8814 47.7288,22.5627 42.0881,13.0169 35.1458,8.678 25.6,9.9797 19.0915,13.8847 11.2814,23.4305 9.1119,32.5424 8.678,41.6542 9.9797,44.6915 15.6203,47.2949 29.0712,48.1627 32.5424,46.861" stroke="#0000fe" stroke-width="2" /><polyline fill="none" points="84.1763,23.4305 90.6847,15.6203 96.3254,13.0169 105.4373,13.8847 117.1525,21.6949 119.322,25.6 119.322,31.6746 117.1525,36.8814 110.2102,41.6542 102.4,44.2576" stroke="#0060ff" stroke-width="2" /><polyline fill="none" points="50.3322,65.0847 20.8271,65.0847" stroke="#00d4ff" stroke-width="2" /><polyline fill="none" points="43.3898,72.0271 19.5254,78.9695 12.5831,82.4407" stroke="#4cffaa" stroke-width="2" /><polyline fill="none" points="66.3864,75.4983 27.7695,89.3831" stroke="#aaff4c" stroke-width="2" /><polyline fill="none" points="85.478,58.1424 98.9288,59.4441 115.4169,64.6508" stroke="#ffe500" stroke-width="2" /><polyline fill="none" points="78.1017,69.8576 101.0983,71.1593 108.0407,72.461 109.7763,73.7627" stroke="#ff7a00" stroke-width="2" /><polyline fill="none" points="75.4983,80.7051 98.061,84.1763" stroke="#fe1200" stroke-width="2" /><polyline fill="none" points="61.6136,47.7288 59.4441,50.7661 59.4441,57.7085 61.1797,59.4441 65.9525,59.4441 69.4237,53.8034 68.5559,49.4644 59.878,44.6915" stroke="#7f0000" stroke-width="2" /></svg>