<?xml version="1.0" encoding="utf-8" ?>
<svg baseProfile="tiny" height="128" version="1.2" viewBox="0,0,128,128" width="128" xmlns="http://www.w3.org/2000/svg" xmlns:ev="http://www.w3.org/2001/xml-events" xmlns:xlink="http://www.w3.org/1999/xlink"><defs /><polyline fill="none" points="48.5966,48.1627 63.7831,38.1831 82.0068,33.4102 87.6475,33.4102 94.1559,35.5797 98.4949,40.3525 100.2305,45.5593 99.7966,50.7661 94.1559,57.7085 86.3458,62.0475 75.0644,63.7831 63.7831,63.7831 55.1051,60.7458 49.8983,55.1051 49.0305,49.8983" stroke="#00007f" stroke-width="2" /><polyline fill="none" points="96.3254,40.7864 95.8915,36.4475 98.9288,32.1085 103.2678,28.6373 107.6068,29.0712 109.7763,33.8441 109.7763,38.6169 106.739,42.0881 99.3627,42.522" stroke="#0000c3" stroke-width="2" /><polyline fill="none" points="94.5898,30.8068 93.2881,22.9966 99.7966,28.2034" stroke="#0000ff" stroke-width="2" /><polyline fill="none" points="104.5695,29.939 109.3424,21.6949 109.7763,33.4102" stroke="#0034ff" stroke-width="2" /><polyline fill="none" points="62.4814,61.6136 62.9153,74.1966 69.4237,76.8" stroke="#0070ff" stroke-width="2" /><polyline fill="none" points="75.0644,50.3322 78.9695,58.1424 85.9119,58.5763" stroke="#00acff" stroke-width="2" /><polyline fill="none" points="91.1186,48.1627 93.2881,56.8407 95.4576,58.1424 99.7966,57.7085" stroke="#02e8f4" stroke-width="2" /><polyline fill="none" points="47.2949,36.4475 47.2949,35.1458 38.6169,29.5051 26.9017,29.5051 19.9593,26.4678 13.0169,19.5254 8.678,8.678" stroke="#32ffc3" stroke-width="2" /><polyline fill="none" points="98.4949,22.1288 91.9864,19.5254" stroke="#63ff93" stroke-width="2" /><polyline fill="none" points="98.9288,26.4678 93.722,25.1661" stroke="#93ff63" stroke-width="2" /><polyline fill="none" points="99.3627,26.4678 95.4576,29.0712" stroke="#c3ff32" stroke-width="2" /><polyline fill="none" points="108.0407,22.9966 119.322,22.1288" stroke="#f4f802" stroke-width="2" /><polyline fill="none" points="111.5119,27.3356 116.2847,27.3356" stroke="#ffc000" stroke-width="2" /><polyline fill="none" points="108.9085,29.0712 111.9458,30.3729 116.2847,34.7119" stroke="#ff8900" stroke-width="2" /><polyline fill="none" points="101.5322,21.261 101.5322,21.261" stroke="#ff5100" stroke-width="2" /><polyline fill="none" points="103.7017,21.261 101.5322,22.1288" stroke="#ff1a00" stroke-width="2" /><polyline fill="none" points="106.3051,19.9593 107.1729,20.3932" stroke="#c30000" stroke-width="2" /><polyline fill="none" points="43.8237,89.3831 42.0881,81.139 41.6542,67.6881 41.2203,71.1593 39.0508,73.7627" stroke="#7f0000" stroke-width="2" /></svg>