<?xml version="1.0" encoding="utf-8" ?>
<svg baseProfile="tiny" height="128" version="1.2" viewBox="0,0,128,128" width="128" xmlns="http://www.w3.org/2000/svg" xmlns:ev="http://www.w3.org/2001/xml-events" xmlns:xlink="http://www.w3.org/1999/xlink"><defs /><polyline fill="none" points="57.7085,15.1864 41.6542,15.1864 26.9017,23.4305 18.6576,37.7492 16.0542,46.861 16.0542,68.5559 17.7898,75.9322 24.2983,87.2136 33.4102,95.0237 45.1254,100.2305 58.1424,101.0983 65.9525,98.9288 81.139,88.0814 85.478,84.6102 95.8915,66.3864 97.1932,59.4441 96.3254,45.9932 88.0814,29.0712 71.5932,17.7898 57.7085,13.8847" stroke="#00007f" stroke-width="2" /><polyline fill="none" points="36.8814,15.6203 19.9593,8.678 22.5627,20.8271 23.4305,29.5051 23.4305,33.8441 22.5627,33.8441" stroke="#0000d1" stroke-width="2" /><polyline fill="none" points="81.139,20.8271 96.7593,11.2814 97.6271,26.4678 93.722,38.6169" stroke="#0010ff" stroke-width="2" /><polyline fill="none" points="26.9017,63.3492 8.678,64.6508" stroke="#0058ff" stroke-width="2" /><polyline fill="none" points="29.5051,76.3661 19.5254,82.8746 15.1864,86.7797" stroke="#00a4ff" stroke-width="2" /><polyline fill="none" points="36.4475,85.0441 16.0542,105.0034" stroke="#05ecf1" stroke-width="2" /><polyline fill="none" points="67.2542,75.0644 67.2542,75.0644" stroke="#3fffb7" stroke-width="2" /><polyline fill="none" points="84.1763,62.9153 95.4576,63.7831 119.322,68.9898" stroke="#7cff79" stroke-width="2" /><polyline fill="none" points="87.6475,74.6305 101.9661,75.9322 109.7763,78.9695" stroke="#b7ff3f" stroke-width="2" /><polyline fill="none" points="87.6475,78.9695 97.1932,89.8169" stroke="#f1fc05" stroke-width="2" /><polyline fill="none" points="69.8576,45.5593 69.8576,45.5593" stroke="#ffb900" stroke-width="2" /><polyline fill="none" points="70.7254,45.5593 71.5932,48.5966 68.5559,49.0305" stroke="#ff7300" stroke-width="2" /><polyline fill="none" points="49.0305,44.2576 43.3898,45.9932" stroke="#ff3000" stroke-width="2" /><polyline fill="none" points="55.9729,74.1966 59.0102,79.4034 63.7831,82.0068 68.122,82.0068 71.1593,75.4983" stroke="#d10000" stroke-width="2" /><polyline fill="none" points="57.7085,75.9322 57.7085,75.9322" stroke="#7f0000" stroke-width="2" /></svg>