<?xml version="1.0" encoding="utf-8" ?>
<svg baseProfile="tiny" height="128" version="1.2" viewBox="0,0,128,128" width="128" xmlns="http://www.w3.org/2000/svg" xmlns:ev="http://www.w3.org/2001/xml-events" xmlns:xlink="http://www.w3.org/1999/xlink"><defs /><polyline fill="none" points="31.2407,39.4847 27.7695,39.4847 16.922,45.5593 11.7153,55.1051 12.1492,63.7831 15.1864,67.6881 20.8271,71.1593 34.7119,76.8 45.5593,75.0644 52.9356,70.2915 55.1051,52.5017 52.0678,44.2576 38.1831,39.0508 30.3729,42.0881" stroke="#00007f" stroke-width="2" /><polyline fill="none" points="48.5966,42.0881 60.7458,33.8441 61.1797,36.4475 58.1424,43.3898 55.1051,47.7288" stroke="#0000cc" stroke-width="2" /><polyline fill="none" points="22.9966,40.3525 8.678,34.7119 9.5458,40.7864 13.0169,49.0305" stroke="#0008ff" stroke-width="2" /><polyline fill="none" points="31.6746,61.6136 33.8441,61.1797 34.278,60.3119 32.9763,59.4441 31.2407,61.1797 32.5424,62.9153 33.4102,62.0475" stroke="#004cff" stroke-width="2" /><polyline fill="none" points="32.5424,64.6508 26.0339,68.5559" stroke="#0090ff" stroke-width="2" /><polyline fill="none" points="31.2407,65.0847 34.7119,68.5559 37.3153,68.5559" stroke="#00d4ff" stroke-width="2" /><polyline fill="none" points="27.7695,60.7458 17.3559,56.8407" stroke="#29ffcd" stroke-width="2" /><polyline fill="none" points="25.1661,62.9153 15.6203,61.6136" stroke="#5fff96" stroke-width="2" /><polyline fill="none" points="40.3525,59.878 48.5966,57.2746" stroke="#96ff5f" stroke-width="2" /><polyline fill="none" points="41.6542,61.6136 52.5017,60.7458" stroke="#cdff29" stroke-width="2" /><polyline fill="none" points="26.0339,49.8983 27.7695,51.6339 28.6373,49.8983 26.9017,48.1627" stroke="#ffe500" stroke-width="2" /><polyline fill="none" points="43.3898,49.8983 40.7864,52.0678 43.8237,52.5017 43.3898,50.7661" stroke="#ffa600" stroke-width="2" /><polyline fill="none" points="37.3153,64.6508 41.2203,63.7831 51.2,68.122" stroke="#ff6700" stroke-width="2" /><polyline fill="none" points="22.5627,65.5186 14.7525,67.2542" stroke="#ff2800" stroke-width="2" /><polyline fill="none" points="56.4068,55.9729 66.3864,51.6339 95.4576,49.4644 99.7966,50.3322 104.5695,58.1424" stroke="#cc0000" stroke-width="2" /><polyline fill="none" points="105.0034,50.3322 101.9661,36.8814 102.4,22.5627 105.8712,17.3559 118.0203,8.678 119.322,12.1492 116.2847,22.9966 105.4373,44.2576" stroke="#7f0000" stroke-width="2" /></svg>