<?xml version="1.0" encoding="utf-8" ?>
<svg baseProfile="tiny" height="128" version="1.2" viewBox="0,0,128,128" width="128" xmlns="http://www.w3.org/2000/svg" xmlns:ev="http://www.w3.org/2001/xml-events" xmlns:xlink="http://www.w3.org/1999/xlink"><defs /><polyline fill="none" points="35.1458,119.322 19.5254,114.5492 12.1492,108.0407 8.678,96.3254 8.678,81.5729 10.4136,76.3661 22.5627,62.9153 41.2203,48.1627 48.5966,44.2576 65.0847,45.5593 81.139,49.8983 93.722,57.7085 98.061,63.3492 101.5322,74.1966 102.4,88.0814 97.1932,98.4949 91.9864,104.1356 79.4034,109.3424 36.0136,118.0203" stroke="#00007f" stroke-width="2" /><polyline fill="none" points="11.2814,71.5932 11.2814,19.5254 32.9763,36.8814 41.6542,47.2949" stroke="#0028ff" stroke-width="2" /><polyline fill="none" points="76.8,45.1254 78.1017,40.7864 83.3085,33.8441 87.2136,25.1661 99.3627,8.678 100.2305,27.7695 104.5695,52.0678 103.7017,70.2915" stroke="#00d4ff" stroke-width="2" /><polyline fill="none" points="41.6542,76.8 43.8237,75.9322 39.9186,74.1966 39.9186,76.3661" stroke="#7cff79" stroke-width="2" /><polyline fill="none" points="66.8203,73.3288 68.5559,68.5559 70.7254,67.6881 70.7254,71.5932 68.9898,71.1593" stroke="#ffe500" stroke-width="2" /><polyline fill="none" points="54.2373,80.2712 51.2,91.1186 54.2373,91.1186 60.7458,86.3458 64.6508,85.9119 56.4068,82.8746 58.5763,82.8746 59.0102,85.9119 58.1424,88.0814 56.4068,88.0814 59.0102,84.6102 58.1424,87.2136 54.2373,89.8169 54.6712,85.9119 56.4068,84.1763" stroke="#ff4600" stroke-width="2" /><polyline fill="none" points="47.2949,90.6847 17.7898,90.6847 12.1492,92.4203" stroke="#7f0000" stroke-width="2" /></svg>