<?xml version="1.0" encoding="utf-8" ?>
<svg baseProfile="tiny" height="128" version="1.2" viewBox="0,0,128,128" width="128" xmlns="http://www.w3.org/2000/svg" xmlns:ev="http://www.w3.org/2001/xml-events" xmlns:xlink="http://www.w3.org/1999/xlink"><defs /><polyline fill="none" points="24.381,38.3129 23.9456,18.2857 38.7483,26.1224" stroke="#00007f" stroke-width="2" /><polyline fill="none" points="70.5306,26.5578 84.4626,8.7075 90.1224,24.381 91.4286,33.0884 91.4286,34.3946 90.5578,33.9592" stroke="#0000de" stroke-width="2" /><polyline fill="none" points="43.102,27.8639 52.6803,25.6871 59.2109,32.2177" stroke="#0028ff" stroke-width="2" /><polyline fill="none" points="94.0408,41.7959 96.6531,47.4558 94.9116,57.034 95.7823,58.3401 93.6054,61.8231 88.8163,63.1293" stroke="#0080ff" stroke-width="2" /><polyline fill="none" points="25.2517,45.2789 20.898,54.4218 20.898,62.2585 20.898,65.7415 24.8163,67.9184" stroke="#00d4ff" stroke-width="2" /><polyline fill="none" points="43.5374,74.8844 50.068,77.4966 59.6463,78.3673 82.2857,77.932 85.3333,77.0612 88.381,72.2721" stroke="#36ffc0" stroke-width="2" /><polyline fill="none" points="80.5442,50.068 103.619,49.6327" stroke="#7cff79" stroke-width="2" /><polyline fill="none" points="84.4626,59.2109 107.5374,59.2109 105.7959,60.9524" stroke="#c0ff36" stroke-width="2" /><polyline fill="none" points="84.4626,67.483 101.8776,69.6599 119.2925,69.6599 116.2449,70.966" stroke="#ffe500" stroke-width="2" /><polyline fill="none" points="33.0884,53.1156 25.6871,57.9048 14.3673,62.6939 8.7075,67.483" stroke="#ff9400" stroke-width="2" /><polyline fill="none" points="30.4762,64.0 17.415,73.5782 14.8027,76.6259" stroke="#ff4600" stroke-width="2" /><polyline fill="none" points="38.7483,67.483 33.9592,73.1429 22.2041,81.415 20.898,84.4626 23.9456,80.1088" stroke="#de0000" stroke-width="2" /><polyline fill="none" points="51.8095,55.7279 67.9184,53.9864 68.7891,55.2925 64.0,61.3878 59.6463,57.9048 54.8571,57.034" stroke="#7f0000" stroke-width="2" /></svg>