<?xml version="1.0" encoding="utf-8" ?>
<svg baseProfile="tiny" height="128" version="1.2" viewBox="0,0,128,128" width="128" xmlns="http://www.w3.org/2000/svg" xmlns:ev="http://www.w3.org/2001/xml-events" xmlns:xlink="http://www.w3.org/1999/xlink"><defs /><polyline fill="none" points="71.6451,20.0956 72.9556,8.7372 79.9454,22.7167 87.8089,18.3481 89.9932,18.785 101.7884,26.2116 105.7201,17.0375 109.6519,12.6689 118.8259,27.959 119.2628,40.628 116.6416,51.9863 112.273,60.2867 106.157,66.4027 102.6621,67.7133 96.1092,67.2765 83.0034,62.9078 73.3925,54.6075 67.7133,42.3754 66.4027,35.3857 66.8396,23.5904 70.3345,18.785" stroke="#00007f" stroke-width="2" /><polyline fill="none" points="87.8089,27.0853 88.2457,35.3857" stroke="#0028ff" stroke-width="2" /><polyline fill="none" points="98.2935,27.959 100.4778,33.2014" stroke="#00d4ff" stroke-width="2" /><polyline fill="none" points="94.3618,49.802 91.7406,58.5392 89.9932,59.8498 85.1877,58.5392 79.9454,52.4232" stroke="#7cff79" stroke-width="2" /><polyline fill="none" points="90.8669,57.2287 95.2355,61.1604 100.9147,60.2867 102.6621,57.6655" stroke="#ffe500" stroke-width="2" /><polyline fill="none" points="89.1195,58.5392 90.8669,63.3447 93.0512,62.9078 94.7986,60.2867" stroke="#ff4600" stroke-width="2" /><polyline fill="none" points="68.1502,42.3754 66.8396,44.9966 59.413,48.0546 44.5597,44.1229 36.6962,43.686 28.3959,38.4437 25.7747,35.8225 13.1058,12.2321 11.7952,10.9215 9.1741,13.5427 8.7372,20.9693 14.8532,33.6382 20.9693,41.5017 22.2799,51.5495 26.2116,59.413 30.5802,60.7235 33.6382,60.2867 36.6962,51.5495 38.8805,62.0341 43.2491,62.0341 44.5597,61.1604 44.5597,51.9863 51.9863,55.9181 60.2867,56.7918" stroke="#7f0000" stroke-width="2" /></svg>