<?xml version="1.0" encoding="utf-8" ?>
<svg baseProfile="tiny" height="128" version="1.2" viewBox="0,0,128,128" width="128" xmlns="http://www.w3.org/2000/svg" xmlns:ev="http://www.w3.org/2001/xml-events" xmlns:xlink="http://www.w3.org/1999/xlink"><defs /><polyline fill="none" points="28.2993,32.2177 29.6054,11.7551 38.7483,29.6054 47.4558,29.6054 64.0,27.4286 71.8367,8.7075 72.2721,18.7211 76.1905,31.3469 84.898,38.7483 84.4626,42.6667 81.8503,48.3265 74.8844,54.8571 37.4422,60.0816 26.1224,59.2109 20.898,50.5034 20.898,40.0544 24.381,31.3469 27.4286,30.4762 30.0408,31.3469" stroke="#00007f" stroke-width="2" /><polyline fill="none" points="32.6531,40.4898 42.6667,40.9252" stroke="#0000ff" stroke-width="2" /><polyline fill="none" points="57.034,39.1837 63.1293,37.8776" stroke="#0080ff" stroke-width="2" /><polyline fill="none" points="34.8299,55.2925 55.2925,52.2449 46.585,49.1973 37.0068,53.9864" stroke="#15ffe1" stroke-width="2" /><polyline fill="none" points="64.8707,43.102 77.0612,42.6667 85.7687,40.0544" stroke="#7cff79" stroke-width="2" /><polyline fill="none" points="64.4354,46.585 74.0136,47.8912 88.381,47.0204" stroke="#e4ff12" stroke-width="2" /><polyline fill="none" points="27.8639,46.585 15.6735,44.8435 8.7075,46.585" stroke="#ff9400" stroke-width="2" /><polyline fill="none" points="28.7347,49.6327 26.5578,52.2449 10.8844,58.7755" stroke="#ff1d00" stroke-width="2" /><polyline fill="none" points="74.8844,30.4762 78.3673,28.2993 89.2517,25.2517 96.6531,25.2517 104.0544,26.9932 113.6327,33.5238 119.2925,40.4898 118.8571,53.551 111.8912,59.2109 92.2993,65.3061 60.517,65.3061 58.3401,62.6939" stroke="#7f0000" stroke-width="2" /></svg>