<?xml version="1.0" encoding="utf-8" ?>
<svg baseProfile="tiny" height="128" version="1.2" viewBox="0,0,128,128" width="128" xmlns="http://www.w3.org/2000/svg" xmlns:ev="http://www.w3.org/2001/xml-events" xmlns:xlink="http://www.w3.org/1999/xlink"><defs /><polyline fill="none" points="44.6915,38.1831 32.1085,38.6169 25.1661,44.2576 18.2237,52.5017 9.9797,68.122 8.678,87.6475 12.1492,97.6271 22.5627,108.9085 33.8441,114.9831 49.8983,118.8881 63.7831,119.322 75.4983,114.9831 79.8373,111.5119 85.478,102.8339 88.5153,90.2508 87.6475,72.461 84.6102,63.3492 82.4407,61.1797 71.5932,55.539 52.9356,41.6542 35.5797,37.3153" stroke="#00007f" stroke-width="2" /><polyline fill="none" points="19.0915,48.1627 20.3932,44.6915 20.3932,32.5424 16.922,12.1492 32.1085,32.5424 36.4475,41.6542" stroke="#00d4ff" stroke-width="2" /><polyline fill="none" points="75.0644,50.3322 91.1186,8.678 93.2881,13.0169 93.2881,34.7119 87.2136,63.7831" stroke="#ffe500" stroke-width="2" /><polyline fill="none" points="48.1627,77.2339 41.2203,85.478 40.7864,88.5153 43.8237,90.2508 55.539,90.2508 57.2746,84.6102 50.7661,78.1017" stroke="#7f0000" stroke-width="2" /></svg>