<?xml version="1.0" encoding="utf-8" ?>
<svg baseProfile="tiny" height="128" version="1.2" viewBox="0,0,128,128" width="128" xmlns="http://www.w3.org/2000/svg" xmlns:ev="http://www.w3.org/2001/xml-events" xmlns:xlink="http://www.w3.org/1999/xlink"><defs /><polyline fill="none" points="32.9763,44.6915 35.5797,38.1831 45.1254,29.5051 60.7458,24.7322 80.7051,25.1661 94.1559,31.6746 102.8339,38.6169 107.1729,43.8237 112.3797,64.2169 111.5119,76.3661 102.4,91.5525 87.6475,105.8712 77.2339,109.7763 60.7458,110.2102 47.2949,107.6068 37.3153,103.2678 31.6746,95.4576 25.1661,83.3085 21.6949,69.8576 21.261,55.9729 22.5627,50.7661 27.3356,44.6915 42.522,33.4102" stroke="#00007f" stroke-width="2" /><polyline fill="none" points="59.878,62.9153 62.9153,64.2169 78.5356,64.2169 82.4407,65.5186 77.2339,71.5932 72.461,82.8746 68.5559,84.6102 65.0847,79.4034 58.5763,64.6508 58.1424,62.0475 60.3119,60.3119" stroke="#0000d5" stroke-width="2" /><polyline fill="none" points="72.8949,84.6102 72.461,88.9492 74.1966,91.5525 85.478,94.5898 87.6475,94.1559 89.3831,91.9864 92.8542,82.4407" stroke="#001cff" stroke-width="2" /><polyline fill="none" points="72.0271,83.3085 69.4237,85.0441 68.5559,88.9492 62.9153,95.0237 57.2746,95.8915 55.1051,95.4576 53.3695,91.9864" stroke="#006cff" stroke-width="2" /><polyline fill="none" points="95.0237,60.3119 119.322,49.4644" stroke="#00b8ff" stroke-width="2" /><polyline fill="none" points="99.3627,69.4237 119.322,67.2542" stroke="#1cffda" stroke-width="2" /><polyline fill="none" points="99.3627,76.8 113.6814,77.2339 118.8881,78.9695" stroke="#5cff9a" stroke-width="2" /><polyline fill="none" points="35.1458,65.0847 27.7695,62.0475 24.2983,62.0475 8.678,69.8576" stroke="#9aff5c" stroke-width="2" /><polyline fill="none" points="37.3153,71.1593 25.1661,75.4983 8.678,87.2136" stroke="#daff1c" stroke-width="2" /><polyline fill="none" points="45.1254,83.3085 38.6169,83.3085 32.9763,85.478 20.8271,96.3254" stroke="#ffcb00" stroke-width="2" /><polyline fill="none" points="29.5051,33.4102 28.6373,28.2034 21.261,8.678 25.1661,8.678 43.3898,19.9593 52.5017,23.4305" stroke="#ff8500" stroke-width="2" /><polyline fill="none" points="80.2712,22.1288 102.4,9.1119 100.2305,15.6203 100.2305,23.4305 101.5322,26.4678 105.0034,29.5051" stroke="#ff3b00" stroke-width="2" /><polyline fill="none" points="45.9932,45.1254 46.4271,41.6542 50.7661,39.0508 55.9729,38.6169 59.878,40.7864" stroke="#d50000" stroke-width="2" /><polyline fill="none" points="71.1593,43.3898 73.7627,41.2203 77.2339,40.3525 85.478,40.3525 87.6475,41.6542" stroke="#7f0000" stroke-width="2" /></svg>