<?xml version="1.0" encoding="utf-8" ?>
<svg baseProfile="tiny" height="128" version="1.2" viewBox="0,0,128,128" width="128" xmlns="http://www.w3.org/2000/svg" xmlns:ev="http://www.w3.org/2001/xml-events" xmlns:xlink="http://www.w3.org/1999/xlink"><defs /><polyline fill="none" points="52.9356,16.4881 48.5966,15.6203 40.3525,21.261 37.3153,29.0712 38.1831,39.9186 52.5017,42.0881 57.2746,37.7492 59.0102,32.9763 59.0102,21.261 55.9729,16.4881 51.6339,15.1864" stroke="#00007f" stroke-width="2" /><polyline fill="none" points="40.3525,20.8271 32.9763,17.3559 32.9763,9.9797 47.2949,8.678 49.8983,16.4881" stroke="#0000d1" stroke-width="2" /><polyline fill="none" points="57.7085,16.922 59.0102,13.4508 71.1593,12.5831 76.3661,17.3559 76.3661,20.8271 73.7627,24.2983 59.878,26.9017" stroke="#0010ff" stroke-width="2" /><polyline fill="none" points="45.9932,21.6949 46.4271,22.9966 46.861,21.261" stroke="#0058ff" stroke-width="2" /><polyline fill="none" points="51.2,20.8271 51.2,22.5627 51.6339,20.3932" stroke="#00a4ff" stroke-width="2" /><polyline fill="none" points="47.7288,27.3356 47.7288,28.6373" stroke="#05ecf1" stroke-width="2" /><polyline fill="none" points="43.3898,31.6746 49.8983,32.5424 49.4644,34.278 45.9932,36.4475 42.9559,31.6746" stroke="#3fffb7" stroke-width="2" /><polyline fill="none" points="41.2203,29.5051 37.7492,27.7695 26.9017,26.0339 8.678,26.0339" stroke="#7cff79" stroke-width="2" /><polyline fill="none" points="40.7864,30.8068 35.1458,30.8068 26.0339,33.8441" stroke="#b7ff3f" stroke-width="2" /><polyline fill="none" points="41.6542,35.5797 32.9763,35.1458 18.2237,39.0508" stroke="#f1fc05" stroke-width="2" /><polyline fill="none" points="55.1051,32.9763 59.4441,30.3729 65.5186,29.0712" stroke="#ffb900" stroke-width="2" /><polyline fill="none" points="55.9729,34.7119 68.5559,34.7119" stroke="#ff7300" stroke-width="2" /><polyline fill="none" points="55.539,36.8814 61.1797,37.7492" stroke="#ff3000" stroke-width="2" /><polyline fill="none" points="77.6678,18.6576 85.9119,15.6203 96.7593,15.6203 104.5695,17.7898 116.2847,24.7322 119.322,27.3356" stroke="#d10000" stroke-width="2" /><polyline fill="none" points="55.1051,45.1254 67.6881,48.1627 83.7424,48.5966 98.9288,47.7288 113.2475,42.9559" stroke="#7f0000" stroke-width="2" /></svg>