<?xml version="1.0" encoding="utf-8" ?>
<svg baseProfile="tiny" height="128" version="1.2" viewBox="0,0,128,128" width="128" xmlns="http://www.w3.org/2000/svg" xmlns:ev="http://www.w3.org/2001/xml-events" xmlns:xlink="http://www.w3.org/1999/xlink"><defs /><polyline fill="none" points="54.2373,35.1458 40.3525,35.1458 23.4305,39.4847 10.8475,45.1254 9.1119,46.4271 8.678,50.7661 20.3932,53.8034 49.0305,53.8034 85.0441,49.8983 89.3831,47.7288 86.7797,45.1254 67.2542,39.4847 55.1051,38.6169" stroke="#00007f" stroke-width="2" /><polyline fill="none" points="15.1864,47.7288 12.5831,62.9153 12.1492,80.7051" stroke="#0010ff" stroke-width="2" /><polyline fill="none" points="90.6847,43.3898 90.6847,46.4271 86.3458,55.1051 75.9322,76.3661 73.3288,78.5356" stroke="#00a4ff" stroke-width="2" /><polyline fill="none" points="30.8068,55.9729 30.8068,67.2542 32.5424,74.1966" stroke="#3fffb7" stroke-width="2" /><polyline fill="none" points="64.2169,51.2 60.7458,60.7458 60.3119,69.4237" stroke="#b7ff3f" stroke-width="2" /><polyline fill="none" points="82.8746,42.0881 83.7424,39.0508 91.5525,32.5424 95.8915,25.6" stroke="#ffb900" stroke-width="2" /><polyline fill="none" points="92.8542,44.2576 99.7966,26.9017" stroke="#ff3000" stroke-width="2" /><polyline fill="none" points="95.8915,25.6 101.9661,28.2034 116.7186,28.2034 119.322,26.4678 118.8881,22.1288 105.8712,9.1119 101.0983,8.678 98.061,12.5831 95.8915,18.6576 95.8915,27.7695 99.3627,32.1085 110.6441,35.5797" stroke="#7f0000" stroke-width="2" /></svg>