<?xml version="1.0" encoding="utf-8" ?>
<svg baseProfile="tiny" height="128" version="1.2" viewBox="0,0,128,128" width="128" xmlns="http://www.w3.org/2000/svg" xmlns:ev="http://www.w3.org/2001/xml-events" xmlns:xlink="http://www.w3.org/1999/xlink"><defs /><polyline fill="none" points="26.9017,41.6542 29.939,21.261 33.4102,8.678 45.1254,46.4271 52.9356,42.9559 69.8576,42.9559 80.7051,47.2949 86.7797,32.5424 92.8542,22.5627 98.4949,18.6576 103.7017,40.7864 110.6441,59.4441 109.7763,70.7254 108.0407,77.6678 101.9661,83.7424 91.5525,86.7797 57.7085,88.0814 44.2576,83.3085 31.2407,75.4983 28.2034,71.1593 27.3356,59.878 29.0712,43.3898 26.9017,41.2203" stroke="#00007f" stroke-width="2" /><polyline fill="none" points="55.1051,68.122 66.8203,67.6881 75.4983,71.5932 75.9322,73.3288 72.8949,75.4983 63.3492,75.9322 56.8407,72.0271 56.4068,68.9898" stroke="#0010ff" stroke-width="2" /><polyline fill="none" points="57.7085,69.8576 17.3559,67.6881" stroke="#00a4ff" stroke-width="2" /><polyline fill="none" points="45.1254,72.0271 8.678,74.1966" stroke="#3fffb7" stroke-width="2" /><polyline fill="none" points="88.5153,72.461 105.8712,72.0271" stroke="#b7ff3f" stroke-width="2" /><polyline fill="none" points="82.0068,78.1017 119.322,79.4034" stroke="#ffb900" stroke-width="2" /><polyline fill="none" points="44.2576,50.7661 40.3525,50.7661 39.4847,52.5017 42.9559,54.2373 48.5966,54.2373 49.0305,52.5017 46.4271,51.6339 41.6542,52.0678 43.3898,53.3695 49.4644,53.3695 47.2949,52.0678 42.9559,52.9356" stroke="#ff3000" stroke-width="2" /><polyline fill="none" points="83.7424,52.9356 64.2169,53.8034 76.3661,55.1051 70.7254,55.539 75.9322,55.9729 80.2712,54.2373 78.5356,53.8034 75.0644,55.1051 81.5729,56.4068 77.2339,56.8407" stroke="#7f0000" stroke-width="2" /></svg>