<?xml version="1.0" encoding="utf-8" ?>
<svg baseProfile="tiny" height="128" version="1.2" viewBox="0,0,128,128" width="128" xmlns="http://www.w3.org/2000/svg" xmlns:ev="http://www.w3.org/2001/xml-events" xmlns:xlink="http://www.w3.org/1999/xlink"><defs /><polyline fill="none" points="24.8163,107.9728 16.5442,92.2993 16.1088,82.7211 19.1565,69.2245 23.0748,61.8231 28.2993,54.8571 40.0544,45.7143 51.8095,39.1837 69.6599,36.1361 76.1905,36.1361 85.7687,38.3129 90.5578,43.9728 98.3946,70.5306 98.3946,82.7211 93.6054,97.5238 82.7211,110.1497 66.6122,116.6803 55.2925,119.2925 34.3946,118.8571 20.898,112.7619 18.7211,110.1497" stroke="#00007f" stroke-width="2" /><polyline fill="none" points="87.5102,37.8776 95.3469,18.7211 102.3129,8.7075 106.2313,10.0136 108.4082,14.8027 110.1497,44.4082 104.0544,57.4694 98.3946,64.0" stroke="#0010ff" stroke-width="2" /><polyline fill="none" points="41.3605,49.1973 23.0748,16.9796 15.6735,11.3197 11.7551,16.5442 10.449,24.381 8.7075,57.034 10.8844,64.0" stroke="#00a4ff" stroke-width="2" /><polyline fill="none" points="54.4218,86.2041 54.4218,86.2041" stroke="#3fffb7" stroke-width="2" /><polyline fill="none" points="56.5986,86.2041 56.5986,86.2041" stroke="#b7ff3f" stroke-width="2" /><polyline fill="none" points="54.8571,85.7687 59.2109,85.7687 52.2449,84.4626 55.2925,87.0748" stroke="#ffb900" stroke-width="2" /><polyline fill="none" points="72.7075,60.0816 74.0136,61.3878" stroke="#ff3000" stroke-width="2" /><polyline fill="none" points="45.2789,64.0 45.2789,62.6939" stroke="#7f0000" stroke-width="2" /></svg>