<?xml version="1.0" encoding="utf-8" ?>
<svg baseProfile="tiny" height="128" version="1.2" viewBox="0,0,128,128" width="128" xmlns="http://www.w3.org/2000/svg" xmlns:ev="http://www.w3.org/2001/xml-events" xmlns:xlink="http://www.w3.org/1999/xlink"><defs /><polyline fill="none" points="30.8068,48.1627 25.6,45.9932 16.922,45.9932 11.2814,53.8034 10.4136,62.9153 13.0169,65.9525 21.6949,71.1593 32.1085,72.461 38.1831,71.1593 42.0881,68.122 43.3898,61.6136 42.0881,57.2746 30.3729,49.8983 23.4305,49.0305" stroke="#00007f" stroke-width="2" /><polyline fill="none" points="33.4102,45.5593 32.1085,42.9559 33.8441,41.2203 40.7864,40.3525 42.522,42.522 41.6542,55.1051" stroke="#0000ff" stroke-width="2" /><polyline fill="none" points="33.4102,40.7864 30.8068,39.9186 29.0712,41.2203 28.2034,56.4068" stroke="#0080ff" stroke-width="2" /><polyline fill="none" points="19.0915,46.4271 12.5831,41.2203 10.8475,42.0881 8.678,49.4644 9.1119,52.5017 10.8475,53.8034" stroke="#15ffe1" stroke-width="2" /><polyline fill="none" points="59.878,37.3153 57.2746,37.3153 56.4068,43.8237 53.3695,46.861 55.1051,48.1627 60.3119,46.4271 67.2542,41.2203 71.5932,45.5593 77.2339,45.1254 89.3831,29.939 94.5898,18.6576 92.8542,13.4508 86.7797,9.5458 58.1424,8.678 55.9729,9.9797 52.0678,18.2237 50.7661,27.3356 53.8034,32.1085 60.3119,34.7119" stroke="#7cff79" stroke-width="2" /><polyline fill="none" points="64.2169,24.2983 63.3492,26.9017 63.3492,16.922 65.9525,16.4881 71.1593,25.1661 72.8949,13.4508 74.1966,15.1864 74.1966,30.8068 75.9322,34.278 80.7051,35.5797" stroke="#e4ff12" stroke-width="2" /><polyline fill="none" points="88.0814,25.1661 84.1763,26.4678 86.7797,26.0339 87.6475,18.6576 86.3458,15.6203 84.1763,14.7525 80.7051,21.6949 79.4034,30.3729 82.8746,29.939 92.4203,22.9966 91.1186,16.0542 89.3831,20.3932 89.8169,28.2034 92.8542,26.9017 94.5898,19.9593 98.4949,26.0339 101.0983,24.7322 101.9661,13.8847 96.3254,14.3186 90.2508,17.7898 88.9492,21.6949 89.8169,29.939 93.2881,34.7119 97.6271,34.278 101.0983,30.3729 108.9085,35.1458 109.7763,30.3729 108.0407,24.7322 117.1525,28.2034 118.0203,13.8847" stroke="#ff9400" stroke-width="2" /><polyline fill="none" points="63.7831,82.8746 61.1797,83.7424 63.3492,93.2881 65.0847,77.6678 67.2542,77.6678 75.4983,88.9492 77.2339,85.9119 78.5356,71.1593 79.8373,68.9898 83.3085,68.122 85.478,69.4237 91.1186,79.8373 93.722,81.5729 95.8915,80.2712 96.3254,64.2169 93.722,57.7085 91.5525,56.8407 91.1186,64.6508 95.4576,73.3288 101.9661,78.9695 105.8712,80.2712 108.4746,78.9695 110.2102,69.4237 109.7763,59.878 105.4373,58.1424 104.5695,67.2542 105.8712,52.0678 101.0983,47.7288 97.1932,49.0305 97.1932,52.5017 103.2678,58.1424" stroke="#ff1d00" stroke-width="2" /><polyline fill="none" points="107.6068,53.3695 107.6068,58.1424 109.7763,61.6136 111.9458,63.7831 116.2847,64.6508 117.5864,43.3898 119.322,56.4068 119.322,26.0339" stroke="#7f0000" stroke-width="2" /></svg>