<?xml version="1.0" encoding="utf-8" ?>
<svg baseProfile="tiny" height="128" version="1.2" viewBox="0,0,128,128" width="128" xmlns="http://www.w3.org/2000/svg" xmlns:ev="http://www.w3.org/2001/xml-events" xmlns:xlink="http://www.w3.org/1999/xlink"><defs /><polyline fill="none" points="49.4644,32.5424 45.9932,35.5797 42.522,41.2203 42.0881,53.3695 51.6339,62.0475 63.7831,68.9898 74.6305,68.5559 90.6847,64.2169 100.6644,59.0102 103.2678,53.8034 98.9288,43.8237 94.5898,40.3525 74.1966,39.4847 49.4644,32.9763" stroke="#00007f" stroke-width="2" /><polyline fill="none" points="49.4644,32.9763 47.2949,21.261 52.9356,8.678 56.4068,25.1661 64.2169,34.7119" stroke="#0028ff" stroke-width="2" /><polyline fill="none" points="84.1763,36.8814 95.0237,30.8068 111.078,27.7695 101.9661,39.4847" stroke="#00d4ff" stroke-width="2" /><polyline fill="none" points="49.8983,48.1627 21.6949,52.5017 8.678,52.0678 16.922,52.0678" stroke="#7cff79" stroke-width="2" /><polyline fill="none" points="49.8983,52.0678 27.3356,61.1797 23.4305,64.6508 26.4678,64.2169 38.1831,58.5763" stroke="#ffe500" stroke-width="2" /><polyline fill="none" points="49.4644,54.6712 38.1831,68.9898" stroke="#ff4600" stroke-width="2" /><polyline fill="none" points="88.9492,57.7085 99.7966,54.2373 114.5492,46.4271 119.322,42.0881 106.739,52.5017" stroke="#7f0000" stroke-width="2" /></svg>