<?xml version="1.0" encoding="utf-8" ?>
<svg baseProfile="tiny" height="128" version="1.2" viewBox="0,0,128,128" width="128" xmlns="http://www.w3.org/2000/svg" xmlns:ev="http://www.w3.org/2001/xml-events" xmlns:xlink="http://www.w3.org/1999/xlink"><defs /><polyline fill="none" points="79.8373,28.6373 75.9322,26.9017 59.878,27.3356 43.3898,34.278 32.9763,42.0881 22.5627,52.9356 17.3559,61.6136 14.7525,70.2915 15.1864,89.8169 19.5254,98.9288 27.7695,107.1729 32.5424,111.5119 44.6915,117.1525 57.7085,119.322 71.1593,118.8881 82.8746,112.3797 97.6271,98.061 107.6068,79.8373 109.3424,72.8949 109.7763,59.4441 106.739,47.2949 99.3627,38.1831 94.1559,34.278 81.5729,28.6373 71.5932,29.939 66.8203,32.5424" stroke="#00007f" stroke-width="2" /><polyline fill="none" points="78.1017,30.3729 88.9492,26.0339 99.7966,19.0915 108.4746,8.678 108.9085,17.3559 104.5695,36.0136 104.1356,47.7288" stroke="#0000f1" stroke-width="2" /><polyline fill="none" points="17.3559,51.6339 19.0915,51.6339 23.4305,45.9932 33.8441,10.4136 42.0881,26.4678 50.7661,37.7492" stroke="#004cff" stroke-width="2" /><polyline fill="none" points="50.7661,69.8576 59.4441,86.7797 63.7831,75.4983 67.2542,71.5932 72.461,68.122 43.8237,71.1593" stroke="#00b0ff" stroke-width="2" /><polyline fill="none" points="59.878,87.2136 60.3119,95.8915 57.7085,98.9288 45.1254,103.2678 31.2407,104.1356 30.3729,103.2678" stroke="#29ffcd" stroke-width="2" /><polyline fill="none" points="59.878,85.0441 61.1797,89.8169 71.5932,100.6644 79.8373,101.5322 85.478,98.061" stroke="#7cff79" stroke-width="2" /><polyline fill="none" points="43.3898,90.2508 43.3898,90.2508" stroke="#cdff29" stroke-width="2" /><polyline fill="none" points="54.6712,87.6475 54.6712,87.6475" stroke="#ffc400" stroke-width="2" /><polyline fill="none" points="49.4644,85.478 49.4644,85.478" stroke="#ff6700" stroke-width="2" /><polyline fill="none" points="36.4475,94.1559 36.4475,94.1559" stroke="#f10700" stroke-width="2" /><polyline fill="none" points="54.6712,83.3085 8.678,80.7051" stroke="#7f0000" stroke-width="2" /></svg>