<?xml version="1.0" encoding="utf-8" ?>
<svg baseProfile="tiny" height="128" version="1.2" viewBox="0,0,128,128" width="128" xmlns="http://www.w3.org/2000/svg" xmlns:ev="http://www.w3.org/2001/xml-events" xmlns:xlink="http://www.w3.org/1999/xlink"><defs /><polyline fill="none" points="94.5898,26.4678 76.3661,10.4136 71.1593,8.678 63.7831,8.678 48.5966,16.922 38.1831,27.7695 26.4678,45.1254 23.8644,64.2169 28.6373,78.1017 37.7492,89.8169 43.8237,95.8915 55.1051,100.2305 65.9525,101.5322 81.5729,99.3627 97.6271,89.3831 105.4373,75.4983 108.9085,59.878 108.4746,50.7661 102.8339,32.5424 97.6271,24.7322 89.8169,18.2237 82.0068,14.7525 77.2339,14.7525" stroke="#00007f" stroke-width="2" /><polyline fill="none" points="43.3898,61.6136 85.478,61.1797 87.2136,64.6508 87.2136,79.8373 82.8746,83.3085 75.9322,84.6102 63.7831,84.1763 55.539,81.5729 52.0678,78.9695 50.7661,68.5559 53.8034,62.9153 54.2373,58.1424" stroke="#0000ff" stroke-width="2" /><polyline fill="none" points="62.9153,50.3322 61.6136,36.4475 68.122,28.6373 72.0271,29.5051 72.461,43.3898" stroke="#0080ff" stroke-width="2" /><polyline fill="none" points="19.5254,36.0136 31.2407,39.0508 45.5593,39.0508" stroke="#15ffe1" stroke-width="2" /><polyline fill="none" points="9.9797,52.0678 19.5254,54.6712 33.4102,54.6712" stroke="#7cff79" stroke-width="2" /><polyline fill="none" points="8.678,70.2915 26.4678,72.0271 47.2949,68.122" stroke="#e4ff12" stroke-width="2" /><polyline fill="none" points="97.1932,43.8237 119.322,43.8237" stroke="#ff9400" stroke-width="2" /><polyline fill="none" points="99.3627,63.3492 117.1525,64.2169" stroke="#ff1d00" stroke-width="2" /><polyline fill="none" points="45.5593,23.4305 45.5593,23.4305" stroke="#7f0000" stroke-width="2" /></svg>