<?xml version="1.0" encoding="utf-8" ?>
<svg baseProfile="tiny" height="128" version="1.2" viewBox="0,0,128,128" width="128" xmlns="http://www.w3.org/2000/svg" xmlns:ev="http://www.w3.org/2001/xml-events" xmlns:xlink="http://www.w3.org/1999/xlink"><defs /><polyline fill="none" points="43.9728,47.0204 53.551,44.4082 60.0816,44.8435 71.8367,47.4558 78.3673,50.5034 88.381,60.9524 95.3469,77.4966 95.7823,84.4626 94.9116,95.3469 88.381,107.9728 75.3197,116.6803 64.4354,119.2925 54.8571,118.8571 45.2789,114.9388 34.8299,107.102 28.2993,99.2653 23.5102,87.9456 23.5102,77.932 26.5578,64.0 37.0068,45.2789" stroke="#00007f" stroke-width="2" /><polyline fill="none" points="49.1973,48.3265 47.8912,43.102 36.5714,26.9932 22.6395,14.8027 10.8844,8.7075 13.4966,29.1701 18.2857,45.2789 29.6054,70.966" stroke="#0000e8" stroke-width="2" /><polyline fill="none" points="69.6599,47.0204 75.3197,30.4762 80.1088,22.6395 87.9456,14.8027 90.1224,13.932 92.7347,15.2381 95.7823,26.9932 95.7823,40.0544 93.1701,60.0816 89.2517,70.0952" stroke="#0038ff" stroke-width="2" /><polyline fill="none" points="61.3878,89.6871 58.7755,87.5102 56.5986,88.381 56.1633,90.9932 60.9524,93.1701 64.8707,90.5578 65.7415,87.9456 59.6463,86.6395 52.6803,88.381 57.4694,91.8639 63.1293,91.4286 66.6122,88.381 63.1293,86.2041 57.9048,86.6395 56.1633,88.8163 62.2585,92.7347" stroke="#0094ff" stroke-width="2" /><polyline fill="none" points="62.6939,89.2517 60.517,96.2177 62.2585,101.8776 65.7415,105.3605 73.5782,107.5374 77.4966,104.4898" stroke="#0cf4ea" stroke-width="2" /><polyline fill="none" points="60.0816,95.3469 57.9048,103.619 54.4218,106.6667 48.3265,106.2313 43.102,102.3129" stroke="#56ffa0" stroke-width="2" /><polyline fill="none" points="87.9456,86.6395 107.102,97.5238" stroke="#a0ff56" stroke-width="2" /><polyline fill="none" points="84.898,97.0884 90.1224,99.7007 99.2653,108.4082" stroke="#eaff0c" stroke-width="2" /><polyline fill="none" points="35.2653,89.2517 8.7075,107.5374" stroke="#ffaa00" stroke-width="2" /><polyline fill="none" points="31.7823,99.2653 18.7211,112.7619" stroke="#ff5500" stroke-width="2" /><polyline fill="none" points="67.9184,70.0952 71.8367,70.5306 74.8844,67.483 75.7551,60.517 73.5782,58.7755 68.3537,63.5646 67.483,66.6122 69.6599,71.8367 73.1429,72.2721 75.7551,67.9184 74.8844,63.5646 72.2721,61.8231 69.6599,63.1293 70.966,68.7891 75.7551,70.966 78.3673,68.3537" stroke="#e80000" stroke-width="2" /><polyline fill="none" points="37.0068,70.966 43.5374,70.966 47.0204,67.9184 47.8912,64.4354 43.9728,62.2585 39.1837,63.5646 36.5714,66.6122 37.0068,70.0952 40.9252,72.7075 46.1497,72.2721 49.6327,67.9184 49.6327,64.8707 47.4558,60.9524 41.7959,59.2109 37.8776,60.9524 37.0068,63.1293 40.0544,68.7891 45.7143,70.5306" stroke="#7f0000" stroke-width="2" /></svg>