<?xml version="1.0" encoding="utf-8" ?>
<svg baseProfile="tiny" height="128" version="1.2" viewBox="0,0,128,128" width="128" xmlns="http://www.w3.org/2000/svg" xmlns:ev="http://www.w3.org/2001/xml-events" xmlns:xlink="http://www.w3.org/1999/xlink"><defs /><polyline fill="none" points="82.6942,69.0584 73.8969,72.5773 65.5395,73.457 52.7835,70.378 44.866,64.6598 38.7079,56.3024 33.4296,44.866 28.5911,23.3127 28.5911,12.756 30.7904,10.1168 35.6289,12.756 48.3849,27.7113 75.6564,29.4708 86.2131,28.1512 88.8522,20.2337 91.0515,8.7973 92.3711,8.7973 98.0893,11.8763 101.6082,17.1546 104.2474,27.2715 104.2474,36.5086 95.89,52.3436 91.4914,57.622 76.0962,67.299" stroke="#00007f" stroke-width="2" /><polyline fill="none" points="64.6598,57.1821 58.9416,52.3436 56.3024,47.0653 57.1821,44.4261 62.4605,42.2268 70.378,42.2268 78.2955,44.4261 78.2955,48.8247 76.0962,51.9038 63.7801,55.4227" stroke="#0000ff" stroke-width="2" /><polyline fill="none" points="75.6564,54.543 101.1684,39.1478" stroke="#0080ff" stroke-width="2" /><polyline fill="none" points="79.1753,57.622 85.3333,57.622 119.2027,50.1443 115.244,50.1443" stroke="#15ffe1" stroke-width="2" /><polyline fill="none" points="75.2165,58.0619 93.2509,73.8969 101.6082,76.5361" stroke="#7cff79" stroke-width="2" /><polyline fill="none" points="52.3436,49.2646 8.7973,44.4261" stroke="#e4ff12" stroke-width="2" /><polyline fill="none" points="54.1031,54.543 26.3918,64.6598" stroke="#ff9400" stroke-width="2" /><polyline fill="none" points="59.8213,55.4227 46.1856,69.9381 41.3471,73.457 39.5876,73.0172" stroke="#ff1d00" stroke-width="2" /><polyline fill="none" points="48.3849,32.5498 44.866,35.6289 45.7457,42.2268 50.1443,44.866 53.6632,41.3471 52.7835,37.3883 47.945,35.189" stroke="#7f0000" stroke-width="2" /></svg>