<?xml version="1.0" encoding="utf-8" ?>
<svg baseProfile="tiny" height="128" version="1.2" viewBox="0,0,128,128" width="128" xmlns="http://www.w3.org/2000/svg" xmlns:ev="http://www.w3.org/2001/xml-events" xmlns:xlink="http://www.w3.org/1999/xlink"><defs /><polyline fill="none" points="25.6,27.7695 24.7322,25.1661 28.2034,13.8847 32.9763,8.678 35.5797,8.678 39.4847,11.2814 55.1051,35.1458 74.1966,31.6746 88.9492,31.6746 94.1559,33.8441 95.4576,22.1288 98.061,16.0542 107.1729,9.5458 118.0203,40.3525 119.322,48.5966 118.4542,53.8034 115.8508,59.4441 110.2102,64.2169 83.7424,75.9322 56.4068,80.2712 45.9932,80.2712 39.4847,77.6678 29.939,67.6881 23.4305,52.0678 23.4305,28.6373" stroke="#00007f" stroke-width="2" /><polyline fill="none" points="60.3119,46.4271 61.6136,46.4271" stroke="#0000f1" stroke-width="2" /><polyline fill="none" points="79.4034,45.1254 79.4034,45.1254" stroke="#004cff" stroke-width="2" /><polyline fill="none" points="77.6678,44.6915 77.6678,44.6915" stroke="#00b0ff" stroke-width="2" /><polyline fill="none" points="69.4237,55.539 67.2542,64.6508 69.8576,66.3864 74.6305,66.3864 75.0644,64.2169 74.1966,58.5763 71.1593,55.9729" stroke="#29ffcd" stroke-width="2" /><polyline fill="none" points="67.6881,59.4441 48.1627,60.3119 27.7695,64.2169" stroke="#7cff79" stroke-width="2" /><polyline fill="none" points="67.2542,66.3864 53.8034,65.5186 47.7288,68.9898 43.8237,74.6305" stroke="#cdff29" stroke-width="2" /><polyline fill="none" points="74.1966,59.4441 80.7051,59.4441 97.1932,55.9729" stroke="#ffc400" stroke-width="2" /><polyline fill="none" points="80.2712,60.7458 85.9119,62.4814 97.6271,68.9898" stroke="#ff6700" stroke-width="2" /><polyline fill="none" points="95.0237,32.9763 114.5492,32.9763" stroke="#f10700" stroke-width="2" /><polyline fill="none" points="26.0339,72.0271 18.6576,71.5932 8.678,76.8" stroke="#7f0000" stroke-width="2" /></svg>