<?xml version="1.0" encoding="utf-8" ?>
<svg baseProfile="tiny" height="128" version="1.2" viewBox="0,0,128,128" width="128" xmlns="http://www.w3.org/2000/svg" xmlns:ev="http://www.w3.org/2001/xml-events" xmlns:xlink="http://www.w3.org/1999/xlink"><defs /><polyline fill="none" points="30.3729,38.6169 20.3932,24.7322 12.1492,15.1864 8.678,8.678 22.9966,16.0542 38.6169,19.5254 45.1254,16.4881 53.8034,14.7525 75.0644,16.4881 82.4407,19.9593 88.0814,25.1661 94.5898,19.5254 119.322,11.2814 115.8508,19.5254 103.2678,40.3525 102.8339,43.8237 107.1729,53.3695 107.6068,59.878 106.3051,64.2169 100.6644,72.0271 92.8542,77.2339 75.0644,82.8746 56.8407,83.3085 45.9932,81.139 37.7492,75.9322 31.6746,67.2542 27.7695,49.8983 28.2034,40.7864" stroke="#00007f" stroke-width="2" /><polyline fill="none" points="33.4102,29.0712 23.8644,21.6949 32.5424,22.9966 33.4102,29.939" stroke="#0000d5" stroke-width="2" /><polyline fill="none" points="92.8542,30.8068 96.3254,27.3356 102.4,24.2983 99.3627,34.278 92.4203,29.0712" stroke="#001cff" stroke-width="2" /><polyline fill="none" points="42.522,38.6169 46.861,36.0136 50.7661,36.4475 52.5017,40.3525 49.4644,43.3898 45.9932,42.0881 45.5593,37.7492" stroke="#006cff" stroke-width="2" /><polyline fill="none" points="75.9322,37.7492 79.4034,37.3153 84.6102,39.9186 84.6102,43.3898 79.4034,44.2576 75.4983,42.522 75.0644,37.7492" stroke="#00b8ff" stroke-width="2" /><polyline fill="none" points="64.2169,51.6339 66.8203,50.3322 72.0271,50.3322 73.3288,53.3695 72.0271,54.6712 68.122,54.2373 66.3864,51.6339" stroke="#1cffda" stroke-width="2" /><polyline fill="none" points="68.9898,55.1051 69.8576,69.4237" stroke="#5cff9a" stroke-width="2" /><polyline fill="none" points="56.4068,59.0102 67.2542,59.878" stroke="#9aff5c" stroke-width="2" /><polyline fill="none" points="60.7458,64.6508 66.3864,64.6508" stroke="#daff1c" stroke-width="2" /><polyline fill="none" points="51.6339,72.8949 68.9898,65.9525" stroke="#ffcb00" stroke-width="2" /><polyline fill="none" points="85.478,57.2746 73.3288,59.0102" stroke="#ff8500" stroke-width="2" /><polyline fill="none" points="73.7627,63.7831 87.6475,65.5186" stroke="#ff3b00" stroke-width="2" /><polyline fill="none" points="73.7627,67.2542 85.9119,73.3288" stroke="#d50000" stroke-width="2" /><polyline fill="none" points="60.7458,71.5932 62.4814,76.3661 65.5186,76.3661 70.7254,73.7627 72.8949,69.4237 75.9322,76.3661 80.2712,77.6678 87.2136,69.4237" stroke="#7f0000" stroke-width="2" /></svg>