<?xml version="1.0" encoding="utf-8" ?>
<svg baseProfile="tiny" height="128" version="1.2" viewBox="0,0,128,128" width="128" xmlns="http://www.w3.org/2000/svg" xmlns:ev="http://www.w3.org/2001/xml-events" xmlns:xlink="http://www.w3.org/1999/xlink"><defs /><polyline fill="none" points="79.8373,41.2203 89.8169,31.6746 98.4949,30.3729 109.7763,31.6746 118.4542,38.6169 119.322,43.8237 116.7186,50.3322 108.0407,57.7085 98.9288,60.7458 89.8169,60.3119 83.7424,58.1424 78.9695,53.8034 76.8,50.3322 77.2339,45.5593 88.0814,36.0136" stroke="#00007f" stroke-width="2" /><polyline fill="none" points="79.4034,33.8441 83.7424,34.7119 93.2881,15.6203 98.061,8.678 107.6068,29.5051 111.078,16.922 113.6814,10.8475 114.9831,10.8475 118.8881,31.2407 118.8881,41.2203" stroke="#0010ff" stroke-width="2" /><polyline fill="none" points="96.7593,36.8814 96.7593,36.8814" stroke="#00a4ff" stroke-width="2" /><polyline fill="none" points="105.0034,35.1458 105.0034,35.1458" stroke="#3fffb7" stroke-width="2" /><polyline fill="none" points="89.8169,37.3153 92.4203,37.7492" stroke="#b7ff3f" stroke-width="2" /><polyline fill="none" points="105.0034,39.0508 105.0034,37.7492" stroke="#ffb900" stroke-width="2" /><polyline fill="none" points="84.6102,47.7288 89.8169,49.8983 94.5898,50.3322 103.7017,48.5966 109.7763,45.5593" stroke="#ff3000" stroke-width="2" /><polyline fill="none" points="79.4034,41.2203 75.9322,38.6169 52.0678,36.8814 19.9593,31.2407 13.8847,32.1085 9.1119,36.8814 8.678,40.7864 11.2814,45.9932 16.922,50.3322 37.7492,58.5763 60.3119,59.878 79.8373,54.2373" stroke="#7f0000" stroke-width="2" /></svg>