<?xml version="1.0" encoding="utf-8" ?>
<svg baseProfile="tiny" height="128" version="1.2" viewBox="0,0,128,128" width="128" xmlns="http://www.w3.org/2000/svg" xmlns:ev="http://www.w3.org/2001/xml-events" xmlns:xlink="http://www.w3.org/1999/xlink"><defs /><polyline fill="none" points="62.9153,48.5966 51.6339,48.5966 44.6915,50.3322 34.278,56.8407 30.3729,61.1797 27.3356,68.122 25.1661,83.3085 25.6,97.1932 29.0712,105.8712 34.7119,111.5119 45.9932,116.7186 55.539,119.322 59.878,119.322 69.8576,114.9831 78.9695,107.1729 91.9864,82.0068 93.2881,67.6881 88.5153,55.1051 81.139,48.1627 72.8949,45.1254 39.9186,45.5593" stroke="#00007f" stroke-width="2" /><polyline fill="none" points="38.1831,58.1424 38.1831,13.4508 42.522,15.6203 52.9356,28.6373 56.4068,38.1831 57.7085,45.9932 59.4441,31.6746 59.4441,11.7153 61.1797,8.678 65.0847,13.4508 67.2542,22.5627 68.9898,49.0305" stroke="#0000fe" stroke-width="2" /><polyline fill="none" points="46.861,65.0847 46.861,70.2915" stroke="#0060ff" stroke-width="2" /><polyline fill="none" points="57.7085,65.9525 57.7085,75.9322" stroke="#00d4ff" stroke-width="2" /><polyline fill="none" points="76.8,78.9695 100.2305,63.3492 108.9085,60.7458" stroke="#4cffaa" stroke-width="2" /><polyline fill="none" points="82.0068,79.8373 88.0814,80.7051 108.9085,91.1186" stroke="#aaff4c" stroke-width="2" /><polyline fill="none" points="79.4034,82.4407 79.4034,93.722 82.8746,98.061" stroke="#ffe500" stroke-width="2" /><polyline fill="none" points="39.0508,82.0068 8.678,82.0068" stroke="#ff7a00" stroke-width="2" /><polyline fill="none" points="41.2203,81.139 38.1831,82.4407 8.678,111.9458 10.4136,105.4373 16.4881,95.8915" stroke="#fe1200" stroke-width="2" /><polyline fill="none" points="37.7492,85.478 37.7492,106.739" stroke="#7f0000" stroke-width="2" /></svg>