<?xml version="1.0" encoding="utf-8" ?>
<svg baseProfile="tiny" height="128" version="1.2" viewBox="0,0,128,128" width="128" xmlns="http://www.w3.org/2000/svg" xmlns:ev="http://www.w3.org/2001/xml-events" xmlns:xlink="http://www.w3.org/1999/xlink"><defs /><polyline fill="none" points="51.2,59.878 33.8441,62.9153 19.5254,68.5559 12.5831,74.6305 9.5458,78.9695 8.678,87.6475 12.1492,95.4576 22.5627,104.5695 38.6169,111.9458 52.0678,114.5492 72.461,113.6814 89.3831,106.3051 99.3627,98.9288 102.8339,94.1559 105.0034,88.5153 105.0034,81.139 98.9288,69.8576 91.9864,64.6508 82.4407,60.7458 63.7831,58.5763 39.4847,59.4441" stroke="#00007f" stroke-width="2" /><polyline fill="none" points="16.0542,72.8949 21.6949,55.539 22.9966,22.9966 26.9017,8.678 46.4271,58.1424 46.861,65.5186" stroke="#0028ff" stroke-width="2" /><polyline fill="none" points="88.5153,59.878 95.0237,43.3898 101.0983,33.8441 117.5864,18.6576 119.322,15.6203 112.3797,44.2576 101.5322,65.5186 103.2678,68.5559" stroke="#00d4ff" stroke-width="2" /><polyline fill="none" points="33.4102,72.8949 35.5797,75.4983 41.6542,77.6678 51.6339,78.5356" stroke="#7cff79" stroke-width="2" /><polyline fill="none" points="74.6305,79.8373 85.0441,79.8373" stroke="#ffe500" stroke-width="2" /><polyline fill="none" points="65.5186,84.1763 58.1424,94.5898 64.2169,90.2508" stroke="#ff4600" stroke-width="2" /><polyline fill="none" points="40.3525,93.722 41.6542,97.1932 49.8983,101.5322 72.0271,108.0407 85.478,109.3424" stroke="#7f0000" stroke-width="2" /></svg>