<?xml version="1.0" encoding="utf-8" ?>
<svg baseProfile="tiny" height="128" version="1.2" viewBox="0,0,128,128" width="128" xmlns="http://www.w3.org/2000/svg" xmlns:ev="http://www.w3.org/2001/xml-events" xmlns:xlink="http://www.w3.org/1999/xlink"><defs /><polyline fill="none" points="99.3627,33.4102 98.9288,31.2407 93.2881,29.0712 89.3831,28.6373 87.2136,30.8068 81.5729,42.522 82.4407,52.0678 92.8542,52.0678 100.2305,48.1627 104.1356,42.9559 105.4373,31.6746 103.7017,27.7695 98.9288,26.0339 89.8169,26.0339" stroke="#00007f" stroke-width="2" /><polyline fill="none" points="82.4407,55.9729 70.7254,51.2 61.6136,49.8983 44.2576,49.8983 25.1661,53.3695 16.0542,56.4068 11.7153,59.878 8.678,66.3864 9.5458,72.0271 16.0542,78.5356 29.0712,84.1763 50.7661,87.2136 81.5729,88.5153 85.478,86.7797 88.9492,76.8 88.9492,70.2915 86.3458,61.6136 83.3085,56.8407" stroke="#0000d5" stroke-width="2" /><polyline fill="none" points="80.7051,87.6475 84.1763,101.5322 82.4407,102.8339" stroke="#001cff" stroke-width="2" /><polyline fill="none" points="19.5254,79.4034 18.2237,88.0814 18.2237,92.8542 19.0915,92.8542" stroke="#006cff" stroke-width="2" /><polyline fill="none" points="87.2136,31.6746 84.1763,19.5254 83.7424,8.678 89.3831,23.8644 92.4203,27.3356" stroke="#00b8ff" stroke-width="2" /><polyline fill="none" points="99.3627,25.6 107.1729,14.7525 108.4746,18.6576 107.1729,33.8441" stroke="#1cffda" stroke-width="2" /><polyline fill="none" points="90.2508,35.5797 91.5525,36.0136" stroke="#5cff9a" stroke-width="2" /><polyline fill="none" points="98.061,33.8441 98.061,34.278" stroke="#9aff5c" stroke-width="2" /><polyline fill="none" points="86.7797,42.0881 79.4034,39.4847" stroke="#daff1c" stroke-width="2" /><polyline fill="none" points="84.6102,42.9559 76.8,42.9559" stroke="#ffcb00" stroke-width="2" /><polyline fill="none" points="83.7424,44.6915 80.7051,46.4271 82.4407,46.4271" stroke="#ff8500" stroke-width="2" /><polyline fill="none" points="99.7966,41.2203 119.322,40.7864" stroke="#ff3b00" stroke-width="2" /><polyline fill="none" points="99.3627,44.2576 111.078,44.2576" stroke="#d50000" stroke-width="2" /><polyline fill="none" points="95.8915,47.7288 109.7763,51.6339" stroke="#7f0000" stroke-width="2" /></svg>