<?xml version="1.0" encoding="utf-8" ?>
<svg baseProfile="tiny" height="128" version="1.2" viewBox="0,0,128,128" width="128" xmlns="http://www.w3.org/2000/svg" xmlns:ev="http://www.w3.org/2001/xml-events" xmlns:xlink="http://www.w3.org/1999/xlink"><defs /><polyline fill="none" points="43.3898,25.1661 30.8068,26.0339 8.678,32.1085 10.4136,39.4847 16.0542,44.6915 25.1661,45.9932 36.8814,45.5593 45.1254,39.4847 48.1627,19.9593" stroke="#00007f" stroke-width="2" /><polyline fill="none" points="9.5458,30.8068 9.1119,27.3356 11.2814,9.1119 15.1864,19.5254 16.0542,32.5424" stroke="#004cff" stroke-width="2" /><polyline fill="none" points="29.5051,25.6 34.7119,8.678 36.8814,25.1661" stroke="#29ffcd" stroke-width="2" /><polyline fill="none" points="41.6542,39.9186 94.1559,43.3898 118.4542,42.0881 119.322,50.3322 118.0203,58.5763 114.5492,67.2542 108.9085,73.7627 72.461,66.8203 33.4102,65.9525 28.6373,63.3492 24.7322,56.4068 31.2407,42.9559" stroke="#cdff29" stroke-width="2" /><polyline fill="none" points="42.9559,66.3864 42.9559,83.7424 43.8237,88.5153 46.4271,88.9492 56.4068,85.0441 58.1424,83.7424 53.3695,63.7831" stroke="#ff6700" stroke-width="2" /><polyline fill="none" points="80.7051,67.2542 84.1763,86.7797 94.5898,87.2136 96.3254,86.7797 99.3627,74.1966 99.7966,68.122 97.6271,63.7831" stroke="#7f0000" stroke-width="2" /></svg>