<?xml version="1.0" encoding="utf-8" ?>
<svg baseProfile="tiny" height="128" version="1.2" viewBox="0,0,128,128" width="128" xmlns="http://www.w3.org/2000/svg" xmlns:ev="http://www.w3.org/2001/xml-events" xmlns:xlink="http://www.w3.org/1999/xlink"><defs /><polyline fill="none" points="65.0847,20.3932 45.5593,19.9593 38.1831,22.5627 25.6,11.7153 25.1661,31.6746 20.3932,38.6169 17.3559,45.1254 16.4881,60.7458 20.3932,69.4237 26.9017,77.2339 35.1458,82.0068 49.0305,85.9119 64.2169,85.478 80.7051,80.2712 92.4203,73.7627 97.6271,67.6881 98.4949,58.5763 95.8915,52.9356 85.478,41.2203 75.9322,35.1458 82.4407,22.5627 85.0441,8.678 65.5186,16.922 63.7831,17.7898 63.3492,19.9593" stroke="#00007f" stroke-width="2" /><polyline fill="none" points="49.0305,39.4847 42.9559,41.2203 40.3525,44.6915 45.5593,45.5593 49.8983,44.2576 52.0678,41.2203 49.8983,39.9186" stroke="#0000e8" stroke-width="2" /><polyline fill="none" points="62.4814,41.6542 57.2746,42.9559 56.8407,44.2576 58.1424,45.9932 66.3864,46.4271 70.7254,44.6915 71.1593,42.522 68.122,40.3525 60.3119,40.7864" stroke="#0038ff" stroke-width="2" /><polyline fill="none" points="53.3695,55.1051 50.3322,60.7458 53.3695,60.7458 56.4068,57.2746 56.8407,55.539 55.1051,54.6712 52.9356,58.5763 52.9356,54.6712 52.5017,57.7085" stroke="#0094ff" stroke-width="2" /><polyline fill="none" points="52.0678,61.1797 52.0678,64.6508 50.7661,65.9525 40.3525,70.2915" stroke="#0cf4ea" stroke-width="2" /><polyline fill="none" points="52.9356,61.1797 54.2373,65.9525 59.4441,68.9898 65.9525,68.9898 74.6305,65.9525" stroke="#56ffa0" stroke-width="2" /><polyline fill="none" points="76.8,58.1424 91.1186,54.6712" stroke="#a0ff56" stroke-width="2" /><polyline fill="none" points="85.478,64.2169 119.322,63.7831" stroke="#eaff0c" stroke-width="2" /><polyline fill="none" points="82.8746,70.2915 100.6644,75.0644" stroke="#ffaa00" stroke-width="2" /><polyline fill="none" points="29.5051,56.8407 13.0169,56.8407" stroke="#ff5500" stroke-width="2" /><polyline fill="none" points="38.1831,62.9153 8.678,68.9898" stroke="#e80000" stroke-width="2" /><polyline fill="none" points="29.939,73.3288 17.7898,79.4034 13.0169,83.7424" stroke="#7f0000" stroke-width="2" /></svg>