<?xml version="1.0" encoding="utf-8" ?>
<svg baseProfile="tiny" height="128" version="1.2" viewBox="0,0,128,128" width="128" xmlns="http://www.w3.org/2000/svg" xmlns:ev="http://www.w3.org/2001/xml-events" xmlns:xlink="http://www.w3.org/1999/xlink"><defs /><polyline fill="none" points="30.3729,59.878 27.3356,56.8407 24.7322,50.3322 26.9017,42.522 31.6746,36.0136 29.0712,18.6576 29.0712,9.1119 35.5797,15.1864 43.3898,29.5051 45.1254,27.7695 56.4068,23.8644 66.3864,22.1288 69.8576,22.5627 74.6305,28.6373 77.6678,19.0915 85.478,8.678 88.5153,16.0542 90.6847,31.2407 95.4576,50.3322 95.4576,55.9729 91.9864,63.3492 83.3085,70.7254 71.1593,75.0644 46.4271,76.8 42.522,75.9322 38.6169,72.0271 34.7119,66.8203 31.6746,58.1424" stroke="#00007f" stroke-width="2" /><polyline fill="none" points="41.2203,51.6339 35.1458,47.2949 13.0169,36.8814" stroke="#004cff" stroke-width="2" /><polyline fill="none" points="39.0508,52.5017 21.261,62.9153 8.678,66.3864" stroke="#29ffcd" stroke-width="2" /><polyline fill="none" points="40.3525,50.7661 36.8814,62.4814 27.3356,80.2712" stroke="#cdff29" stroke-width="2" /><polyline fill="none" points="77.6678,45.1254 93.722,42.0881 109.7763,35.1458" stroke="#ff6700" stroke-width="2" /><polyline fill="none" points="79.4034,47.2949 85.478,52.0678 119.322,68.122" stroke="#7f0000" stroke-width="2" /></svg>