<?xml version="1.0" encoding="utf-8" ?>
<svg baseProfile="tiny" height="128" version="1.2" viewBox="0,0,128,128" width="128" xmlns="http://www.w3.org/2000/svg" xmlns:ev="http://www.w3.org/2001/xml-events" xmlns:xlink="http://www.w3.org/1999/xlink"><defs /><polyline fill="none" points="30.3729,48.1627 27.3356,49.0305 26.4678,78.5356 28.2034,83.3085 31.6746,86.3458 41.2203,88.0814 46.4271,86.3458 53.8034,78.1017 57.2746,66.8203 58.1424,55.9729 56.4068,47.2949 51.6339,42.522 42.0881,42.9559 39.0508,46.4271" stroke="#00007f" stroke-width="2" /><polyline fill="none" points="42.9559,32.9763 43.3898,22.1288 46.4271,14.7525 48.5966,12.1492 54.2373,10.4136 56.8407,23.8644 58.5763,50.7661" stroke="#004cff" stroke-width="2" /><polyline fill="none" points="34.7119,41.6542 23.8644,29.5051 14.7525,10.8475 10.4136,8.678 9.1119,14.7525 8.678,33.8441 11.2814,46.4271 16.0542,57.2746" stroke="#29ffcd" stroke-width="2" /><polyline fill="none" points="39.0508,62.9153 36.4475,60.3119 36.4475,57.2746" stroke="#cdff29" stroke-width="2" /><polyline fill="none" points="44.2576,59.0102 44.2576,59.0102" stroke="#ff6700" stroke-width="2" /><polyline fill="none" points="47.2949,76.3661 105.4373,76.3661 112.3797,79.8373 117.1525,84.6102 119.322,88.9492 118.4542,96.7593 114.1153,101.9661 101.9661,109.3424 93.722,111.078 72.461,111.9458 60.7458,109.3424 52.0678,105.0034 41.2203,95.0237 39.4847,89.8169" stroke="#7f0000" stroke-width="2" /></svg>