<?xml version="1.0" encoding="utf-8" ?>
<svg baseProfile="tiny" height="128" version="1.2" viewBox="0,0,128,128" width="128" xmlns="http://www.w3.org/2000/svg" xmlns:ev="http://www.w3.org/2001/xml-events" xmlns:xlink="http://www.w3.org/1999/xlink"><defs /><polyline fill="none" points="103.2678,38.1831 103.2678,32.5424 98.4949,29.939" stroke="#00007f" stroke-width="2" /><polyline fill="none" points="84.1763,30.8068 76.3661,34.278 68.122,48.5966 68.5559,57.7085 72.461,63.3492 80.2712,67.2542 88.0814,66.8203 95.0237,63.7831 101.5322,56.4068 103.2678,50.7661 103.2678,38.6169 101.9661,33.4102 98.4949,28.6373 89.8169,25.6 82.4407,26.9017 77.6678,30.3729 72.461,41.2203 72.461,49.4644 75.4983,56.4068 79.8373,62.4814" stroke="#0028ff" stroke-width="2" /><polyline fill="none" points="73.3288,28.6373 71.5932,14.3186 79.4034,18.6576 87.2136,28.6373 88.9492,24.2983 93.722,17.7898 105.0034,8.678 104.1356,27.7695" stroke="#00d4ff" stroke-width="2" /><polyline fill="none" points="94.5898,53.8034 106.739,42.0881 114.1153,30.3729 115.4169,30.3729" stroke="#7cff79" stroke-width="2" /><polyline fill="none" points="97.1932,48.5966 119.322,49.4644" stroke="#ffe500" stroke-width="2" /><polyline fill="none" points="94.1559,56.4068 105.4373,65.5186" stroke="#ff4600" stroke-width="2" /><polyline fill="none" points="68.122,52.9356 64.2169,51.6339 56.4068,55.1051 17.7898,57.2746 8.678,59.878" stroke="#7f0000" stroke-width="2" /></svg>