<?xml version="1.0" encoding="utf-8" ?>
<svg baseProfile="tiny" height="128" version="1.2" viewBox="0,0,128,128" width="128" xmlns="http://www.w3.org/2000/svg" xmlns:ev="http://www.w3.org/2001/xml-events" xmlns:xlink="http://www.w3.org/1999/xlink"><defs /><polyline fill="none" points="61.6136,39.0508 30.3729,13.4508 29.5051,17.3559 32.1085,30.3729 32.9763,47.7288 38.6169,70.7254 45.9932,82.0068 59.4441,90.2508 73.7627,92.8542 81.5729,92.8542 87.6475,90.6847 97.1932,81.5729 101.9661,74.1966 111.5119,49.0305 112.8136,22.1288 108.0407,8.678 105.8712,9.5458 91.1186,35.5797 78.5356,32.5424 70.2915,32.9763 67.6881,35.1458 65.0847,41.2203" stroke="#00007f" stroke-width="2" /><polyline fill="none" points="73.3288,68.122 66.3864,62.4814 65.0847,56.4068 68.9898,53.8034 73.7627,53.8034 76.8,55.9729 79.4034,61.1797 81.139,68.9898 80.2712,70.2915" stroke="#0028ff" stroke-width="2" /><polyline fill="none" points="80.7051,68.9898 76.8,74.1966 66.3864,75.0644" stroke="#00d4ff" stroke-width="2" /><polyline fill="none" points="74.1966,70.2915 79.8373,75.4983 85.9119,76.8 93.722,76.8" stroke="#7cff79" stroke-width="2" /><polyline fill="none" points="39.4847,48.5966 39.4847,28.2034 49.0305,44.6915" stroke="#ffe500" stroke-width="2" /><polyline fill="none" points="99.3627,39.0508 103.7017,29.0712 105.0034,45.5593" stroke="#ff4600" stroke-width="2" /><polyline fill="none" points="51.2,85.0441 31.2407,85.478 22.1288,88.0814 13.0169,93.722 8.678,101.0983 8.678,110.2102 9.9797,112.8136 21.6949,117.5864 32.5424,119.322 49.4644,119.322 69.8576,114.1153 78.1017,110.2102 83.3085,105.0034 87.2136,99.7966 89.8169,93.2881" stroke="#7f0000" stroke-width="2" /></svg>