<?xml version="1.0" encoding="utf-8" ?>
<svg baseProfile="tiny" height="128" version="1.2" viewBox="0,0,128,128" width="128" xmlns="http://www.w3.org/2000/svg" xmlns:ev="http://www.w3.org/2001/xml-events" xmlns:xlink="http://www.w3.org/1999/xlink"><defs /><polyline fill="none" points="35.9452,24.1096 47.3425,8.7671 57.863,24.1096 81.5342,24.5479 88.1096,14.4658 92.0548,11.8356 97.3151,27.6164" stroke="#00007f" stroke-width="2" /><polyline fill="none" points="35.9452,23.6712 32.4384,25.4247 25.4247,35.9452 24.9863,39.0137 28.9315,46.0274 35.0685,52.1644 46.9041,59.1781 67.0685,65.3151 80.2192,64.4384 88.9863,61.8082 92.4932,59.6164 95.5616,54.3562 97.7534,47.3425 96.4384,28.4932" stroke="#0000fe" stroke-width="2" /><polyline fill="none" points="33.7534,39.0137 15.3425,40.7671" stroke="#0060ff" stroke-width="2" /><polyline fill="none" points="37.6986,42.9589 16.6575,46.9041" stroke="#00d4ff" stroke-width="2" /><polyline fill="none" points="39.8904,47.7808 8.7671,55.2329" stroke="#4cffaa" stroke-width="2" /><polyline fill="none" points="94.2466,36.3836 110.4658,36.8219" stroke="#aaff4c" stroke-width="2" /><polyline fill="none" points="94.2466,46.4658 106.5205,44.7123" stroke="#ffe500" stroke-width="2" /><polyline fill="none" points="89.863,53.4795 119.2329,52.6027" stroke="#ff7a00" stroke-width="2" /><polyline fill="none" points="51.2877,38.137 52.6027,38.137" stroke="#fe1200" stroke-width="2" /><polyline fill="none" points="79.3425,38.5753 79.3425,38.5753" stroke="#7f0000" stroke-width="2" /></svg>