<?xml version="1.0" encoding="utf-8" ?>
<svg baseProfile="tiny" height="128" version="1.2" viewBox="0,0,128,128" width="128" xmlns="http://www.w3.org/2000/svg" xmlns:ev="http://www.w3.org/2001/xml-events" xmlns:xlink="http://www.w3.org/1999/xlink"><defs /><polyline fill="none" points="67.2542,26.9017 64.6508,25.1661 56.8407,25.1661 48.1627,26.9017 26.9017,37.3153 21.261,42.0881 16.0542,49.0305 9.5458,65.0847 8.678,83.7424 11.7153,91.5525 18.6576,99.7966 37.7492,111.5119 50.7661,114.9831 78.5356,114.1153 88.0814,108.9085 100.2305,98.9288 107.6068,88.9492 108.4746,82.0068 108.0407,64.6508 105.8712,56.8407 83.3085,23.8644 68.9898,15.1864" stroke="#00007f" stroke-width="2" /><polyline fill="none" points="20.8271,40.7864 16.0542,8.678 21.6949,14.7525 42.522,30.3729" stroke="#0028ff" stroke-width="2" /><polyline fill="none" points="91.9864,30.8068 94.1559,28.2034 105.8712,21.261 119.322,14.7525 112.8136,24.2983 108.0407,35.1458 105.4373,44.6915 105.4373,52.0678" stroke="#00d4ff" stroke-width="2" /><polyline fill="none" points="39.9186,59.878 41.2203,56.8407 50.7661,57.7085" stroke="#7cff79" stroke-width="2" /><polyline fill="none" points="83.7424,52.9356 86.3458,59.878" stroke="#ffe500" stroke-width="2" /><polyline fill="none" points="51.6339,74.1966 64.6508,73.3288 68.122,74.1966 65.5186,76.3661 59.878,75.9322" stroke="#ff4600" stroke-width="2" /><polyline fill="none" points="60.3119,72.461 60.3119,86.3458" stroke="#7f0000" stroke-width="2" /></svg>