<?xml version="1.0" encoding="utf-8" ?>
<svg baseProfile="tiny" height="128" version="1.2" viewBox="0,0,128,128" width="128" xmlns="http://www.w3.org/2000/svg" xmlns:ev="http://www.w3.org/2001/xml-events" xmlns:xlink="http://www.w3.org/1999/xlink"><defs /><polyline fill="none" points="21.261,75.9322 17.3559,65.9525 16.4881,57.7085 16.0542,41.2203 18.6576,34.278 22.9966,30.3729 33.4102,27.7695 42.0881,27.7695 46.861,30.3729 53.3695,39.0508 56.8407,47.2949 57.7085,61.1797 55.539,63.3492 50.3322,65.5186 33.8441,68.9898 20.3932,76.3661" stroke="#00007f" stroke-width="2" /><polyline fill="none" points="24.2983,72.461 16.922,76.8 12.5831,85.9119 12.1492,101.5322 13.4508,105.8712 17.3559,113.2475 21.6949,117.5864 29.0712,119.322 40.3525,118.8881 59.0102,109.7763 69.4237,96.3254 71.5932,90.6847 73.7627,78.5356 72.8949,62.0475 65.9525,58.1424 61.6136,58.1424 58.1424,60.3119" stroke="#0000d5" stroke-width="2" /><polyline fill="none" points="42.9559,113.6814 40.3525,105.8712" stroke="#001cff" stroke-width="2" /><polyline fill="none" points="18.2237,33.8441 12.5831,27.7695 9.1119,20.3932 8.678,16.0542 9.9797,13.4508 14.7525,9.9797 17.7898,10.4136 21.6949,17.7898 24.2983,27.7695" stroke="#006cff" stroke-width="2" /><polyline fill="none" points="38.1831,23.4305 38.1831,13.8847 41.6542,9.9797 46.4271,8.678 48.5966,10.8475 52.0678,20.8271 52.5017,29.939 51.2,32.5424" stroke="#00b8ff" stroke-width="2" /><polyline fill="none" points="23.8644,41.2203 22.1288,48.5966 26.9017,50.3322 31.6746,50.3322 33.4102,48.1627 33.8441,40.3525 31.2407,34.278 29.0712,34.278 27.7695,36.4475 28.6373,37.7492" stroke="#1cffda" stroke-width="2" /><polyline fill="none" points="40.7864,40.7864 39.0508,45.5593 41.2203,47.2949 46.4271,39.9186 47.2949,37.3153 45.9932,37.3153" stroke="#5cff9a" stroke-width="2" /><polyline fill="none" points="34.7119,50.3322 33.8441,63.3492 31.6746,65.0847 24.7322,63.3492" stroke="#9aff5c" stroke-width="2" /><polyline fill="none" points="34.7119,56.4068 35.1458,62.4814 37.7492,63.7831 44.6915,61.6136 50.3322,56.8407" stroke="#daff1c" stroke-width="2" /><polyline fill="none" points="69.4237,99.3627 73.7627,97.1932 84.6102,86.7797 90.6847,74.1966 97.6271,69.8576" stroke="#ffcb00" stroke-width="2" /><polyline fill="none" points="55.1051,112.8136 55.1051,110.2102 51.6339,104.5695" stroke="#ff8500" stroke-width="2" /><polyline fill="none" points="59.4441,105.0034 58.5763,98.4949" stroke="#ff3b00" stroke-width="2" /><polyline fill="none" points="33.8441,111.5119 32.9763,107.1729" stroke="#d50000" stroke-width="2" /><polyline fill="none" points="27.7695,112.8136 26.9017,107.6068" stroke="#7f0000" stroke-width="2" /></svg>