<?xml version="1.0" encoding="utf-8" ?>
<svg baseProfile="tiny" height="128" version="1.2" viewBox="0,0,128,128" width="128" xmlns="http://www.w3.org/2000/svg" xmlns:ev="http://www.w3.org/2001/xml-events" xmlns:xlink="http://www.w3.org/1999/xlink"><defs /><polyline fill="none" points="92.4203,41.2203 88.5153,40.7864 83.7424,44.2576 72.461,59.4441 70.2915,65.5186 69.8576,70.2915 72.8949,78.5356 82.8746,85.478 92.4203,87.6475 99.3627,87.6475 106.3051,85.478 113.6814,79.8373 119.322,67.2542 119.322,60.7458 116.2847,51.6339 110.2102,43.8237 96.3254,34.278" stroke="#00007f" stroke-width="2" /><polyline fill="none" points="96.3254,34.278 93.722,35.1458 91.5525,38.6169" stroke="#0000fe" stroke-width="2" /><polyline fill="none" points="81.5729,35.1458 80.7051,8.678 83.3085,9.1119 88.0814,13.4508 94.1559,26.4678 96.3254,34.7119" stroke="#0060ff" stroke-width="2" /><polyline fill="none" points="103.2678,34.7119 109.3424,22.9966 111.5119,21.6949 111.5119,43.8237" stroke="#00d4ff" stroke-width="2" /><polyline fill="none" points="86.7797,61.6136 87.2136,55.539" stroke="#4cffaa" stroke-width="2" /><polyline fill="none" points="106.739,53.3695 107.1729,59.878" stroke="#aaff4c" stroke-width="2" /><polyline fill="none" points="93.2881,68.122 94.5898,65.5186 97.1932,65.5186 97.1932,68.5559 95.0237,69.4237" stroke="#ffe500" stroke-width="2" /><polyline fill="none" points="95.0237,69.4237 94.1559,73.3288 90.2508,75.0644 86.3458,75.0644 82.0068,71.5932 81.5729,65.9525" stroke="#ff7a00" stroke-width="2" /><polyline fill="none" points="94.1559,69.4237 95.4576,73.3288 98.061,74.1966 102.8339,71.1593 105.8712,65.5186" stroke="#fe1200" stroke-width="2" /><polyline fill="none" points="69.8576,72.461 63.7831,75.4983 53.8034,77.2339 41.2203,76.3661 30.3729,72.8949 17.7898,65.5186 8.678,55.539 10.8475,49.8983 16.4881,44.6915 29.0712,39.4847 45.1254,38.6169 74.6305,45.9932 95.0237,55.1051" stroke="#7f0000" stroke-width="2" /></svg>