<?xml version="1.0" encoding="utf-8" ?>
<svg baseProfile="tiny" height="128" version="1.2" viewBox="0,0,128,128" width="128" xmlns="http://www.w3.org/2000/svg" xmlns:ev="http://www.w3.org/2001/xml-events" xmlns:xlink="http://www.w3.org/1999/xlink"><defs /><polyline fill="none" points="45.9932,27.7695 39.9186,26.9017 32.9763,31.6746 32.5424,34.278 36.4475,37.7492 40.7864,39.4847 47.2949,39.9186 49.0305,38.1831 49.0305,34.7119 45.5593,28.6373" stroke="#00007f" stroke-width="2" /><polyline fill="none" points="60.3119,26.4678 55.9729,28.2034 49.4644,36.8814 49.8983,42.522 56.8407,42.0881 61.6136,37.3153 62.4814,32.1085 60.7458,29.0712 56.4068,28.2034" stroke="#0000b1" stroke-width="2" /><polyline fill="none" points="39.4847,39.9186 34.278,43.8237 33.4102,50.3322 36.0136,53.8034 40.3525,55.1051 46.861,50.3322 49.4644,46.4271 48.1627,42.9559 40.7864,39.4847" stroke="#0000e3" stroke-width="2" /><polyline fill="none" points="54.6712,42.0881 52.5017,42.0881 49.8983,43.8237 47.2949,48.5966 49.0305,52.0678 56.4068,52.0678 59.878,49.4644 60.7458,45.9932 58.5763,42.0881 55.539,42.0881" stroke="#0004ff" stroke-width="2" /><polyline fill="none" points="56.8407,44.6915 62.9153,41.2203 77.6678,35.5797" stroke="#0030ff" stroke-width="2" /><polyline fill="none" points="57.7085,43.8237 78.1017,45.1254" stroke="#005cff" stroke-width="2" /><polyline fill="none" points="59.0102,45.1254 73.3288,53.8034 77.2339,58.1424" stroke="#0088ff" stroke-width="2" /><polyline fill="none" points="38.6169,46.861 37.7492,44.2576 32.9763,41.6542 23.4305,39.0508" stroke="#00b4ff" stroke-width="2" /><polyline fill="none" points="38.6169,46.4271 22.1288,45.9932" stroke="#00e4f7" stroke-width="2" /><polyline fill="none" points="37.7492,45.9932 26.9017,52.0678 25.6,54.6712" stroke="#22ffd4" stroke-width="2" /><polyline fill="none" points="60.7458,25.6 55.539,26.4678 37.3153,24.7322 32.1085,27.3356 29.0712,32.1085 28.6373,41.6542 32.5424,49.8983 40.3525,55.1051 45.5593,56.8407 58.5763,55.9729 63.3492,53.8034 65.9525,43.3898 64.6508,33.4102 61.6136,26.9017 55.539,27.7695 56.8407,21.261 62.0475,8.678 64.6508,14.7525 66.3864,32.1085" stroke="#46ffb0" stroke-width="2" /><polyline fill="none" points="33.4102,25.1661 36.4475,9.1119 48.1627,25.6" stroke="#69ff8d" stroke-width="2" /><polyline fill="none" points="41.2203,32.9763 41.2203,32.9763" stroke="#8dff69" stroke-width="2" /><polyline fill="none" points="39.0508,33.8441 43.8237,34.278 45.1254,32.5424 42.0881,34.278" stroke="#b0ff46" stroke-width="2" /><polyline fill="none" points="55.539,34.7119 54.2373,36.4475 55.9729,36.8814 56.8407,35.1458 55.9729,36.8814" stroke="#d4ff22" stroke-width="2" /><polyline fill="none" points="37.7492,23.4305 39.4847,20.3932 43.3898,23.4305" stroke="#f7f400" stroke-width="2" /><polyline fill="none" points="57.7085,25.1661 60.3119,22.5627 64.6508,22.9966 65.9525,28.6373 64.6508,31.6746" stroke="#ffc800" stroke-width="2" /><polyline fill="none" points="45.9932,52.5017 52.5017,51.2" stroke="#ff9f00" stroke-width="2" /><polyline fill="none" points="42.522,57.2746 38.1831,57.7085 36.0136,60.3119 37.3153,66.3864 40.7864,70.7254 47.7288,74.1966 61.6136,78.1017 66.8203,78.1017 70.7254,75.4983 71.5932,70.2915 68.122,64.6508 63.7831,60.7458 56.4068,58.5763 47.2949,58.5763 45.9932,59.878" stroke="#ff7600" stroke-width="2" /><polyline fill="none" points="68.5559,70.7254 119.322,81.5729" stroke="#ff4d00" stroke-width="2" /><polyline fill="none" points="71.5932,75.9322 100.2305,88.0814" stroke="#ff2500" stroke-width="2" /><polyline fill="none" points="41.2203,72.461 8.678,73.3288" stroke="#e30000" stroke-width="2" /><polyline fill="none" points="52.0678,75.0644 26.0339,78.9695 14.7525,82.4407" stroke="#b10000" stroke-width="2" /><polyline fill="none" points="55.9729,69.4237 55.9729,69.4237" stroke="#7f0000" stroke-width="2" /></svg>