<?xml version="1.0" encoding="utf-8" ?>
<svg baseProfile="tiny" height="128" version="1.2" viewBox="0,0,128,128" width="128" xmlns="http://www.w3.org/2000/svg" xmlns:ev="http://www.w3.org/2001/xml-events" xmlns:xlink="http://www.w3.org/1999/xlink"><defs /><polyline fill="none" points="17.415,61.3878 10.8844,97.0884 10.449,107.102 11.3197,109.7143 14.3673,110.585 17.8503,106.2313 22.2041,96.2177 26.5578,60.9524" stroke="#00007f" stroke-width="2" /><polyline fill="none" points="36.1361,67.9184 36.5714,104.4898 39.619,115.8095 42.2313,115.3741 46.1497,101.4422 47.4558,87.9456 47.4558,61.8231" stroke="#0000fe" stroke-width="2" /><polyline fill="none" points="53.1156,57.4694 43.102,62.2585 30.4762,63.1293 14.3673,58.3401 12.1905,56.5986 9.1429,50.9388 8.7075,37.4422 15.6735,13.932 17.8503,13.932 28.7347,35.2653 31.3469,35.2653 42.2313,8.7075 46.1497,16.9796 54.8571,50.068 55.2925,55.7279 53.551,59.2109" stroke="#0060ff" stroke-width="2" /><polyline fill="none" points="16.1088,36.1361 19.5918,44.8435" stroke="#00d4ff" stroke-width="2" /><polyline fill="none" points="40.9252,37.4422 41.3605,41.3605" stroke="#4cffaa" stroke-width="2" /><polyline fill="none" points="28.7347,47.0204 34.3946,50.068 42.2313,48.3265" stroke="#aaff4c" stroke-width="2" /><polyline fill="none" points="55.2925,51.3741 69.6599,45.2789 87.5102,40.0544 100.5714,37.4422 107.9728,37.4422 113.1973,40.9252 114.5034,53.1156 108.8435,62.2585 99.7007,69.2245 91.4286,73.5782 76.1905,77.4966 49.1973,78.3673" stroke="#ffe500" stroke-width="2" /><polyline fill="none" points="101.0068,62.2585 98.3946,73.5782 97.9592,87.9456 99.7007,109.7143 101.8776,109.7143 103.619,94.9116 103.619,57.4694" stroke="#ff7a00" stroke-width="2" /><polyline fill="none" points="113.1973,39.1837 119.2925,95.3469 116.6803,95.7823 114.5034,88.8163 112.3265,68.7891" stroke="#fe1200" stroke-width="2" /><polyline fill="none" points="112.3265,70.966 111.0204,57.9048" stroke="#7f0000" stroke-width="2" /></svg>