<?xml version="1.0" encoding="utf-8" ?>
<svg baseProfile="tiny" height="128" version="1.2" viewBox="0,0,128,128" width="128" xmlns="http://www.w3.org/2000/svg" xmlns:ev="http://www.w3.org/2001/xml-events" xmlns:xlink="http://www.w3.org/1999/xlink"><defs /><polyline fill="none" points="28.6373,22.9966 29.939,14.3186 32.1085,9.5458 33.8441,8.678 44.2576,23.8644 58.5763,19.5254 71.5932,22.1288 80.2712,25.1661 81.5729,25.1661 87.2136,15.6203 93.2881,9.5458 96.3254,15.6203 102.8339,40.7864 101.5322,62.0475 99.3627,68.5559 95.8915,72.0271 81.5729,75.4983 57.2746,76.3661 51.6339,75.4983 38.6169,68.5559 25.6,56.4068 20.8271,46.4271 20.8271,28.2034 23.8644,24.7322" stroke="#00007f" stroke-width="2" /><polyline fill="none" points="60.7458,45.1254 69.4237,47.2949 69.8576,49.4644 65.0847,52.0678 60.3119,47.2949" stroke="#0010ff" stroke-width="2" /><polyline fill="none" points="72.8949,55.9729 79.4034,51.2 85.478,48.5966 98.061,46.861" stroke="#00a4ff" stroke-width="2" /><polyline fill="none" points="72.0271,54.6712 87.2136,53.8034 119.322,56.4068" stroke="#3fffb7" stroke-width="2" /><polyline fill="none" points="80.2712,57.7085 94.1559,57.7085 107.6068,59.878" stroke="#b7ff3f" stroke-width="2" /><polyline fill="none" points="53.3695,51.2 17.7898,51.6339" stroke="#ffb900" stroke-width="2" /><polyline fill="none" points="54.2373,54.6712 8.678,63.7831" stroke="#ff3000" stroke-width="2" /><polyline fill="none" points="54.6712,59.0102 34.278,68.122 26.0339,74.1966" stroke="#7f0000" stroke-width="2" /></svg>