<?xml version="1.0" encoding="utf-8" ?>
<svg baseProfile="tiny" height="128" version="1.2" viewBox="0,0,128,128" width="128" xmlns="http://www.w3.org/2000/svg" xmlns:ev="http://www.w3.org/2001/xml-events" xmlns:xlink="http://www.w3.org/1999/xlink"><defs /><polyline fill="none" points="20.3932,22.9966 16.0542,21.6949 12.1492,23.8644 9.1119,26.9017 8.678,32.1085 13.4508,38.6169 24.2983,42.0881 34.7119,40.7864 43.8237,36.4475 48.5966,30.8068 47.7288,26.0339 40.3525,21.6949 22.9966,17.3559 13.4508,18.6576 9.5458,22.5627" stroke="#00007f" stroke-width="2" /><polyline fill="none" points="22.5627,24.2983 19.0915,27.7695 22.5627,27.3356 25.6,23.4305 22.9966,23.4305 21.6949,25.1661" stroke="#0000ff" stroke-width="2" /><polyline fill="none" points="34.7119,26.0339 31.6746,26.9017 32.1085,28.2034 33.8441,26.4678 33.4102,25.1661 29.0712,25.6" stroke="#0080ff" stroke-width="2" /><polyline fill="none" points="14.3186,20.3932 11.2814,8.678 15.1864,10.8475 21.261,18.6576" stroke="#15ffe1" stroke-width="2" /><polyline fill="none" points="36.0136,19.9593 45.5593,14.3186 42.9559,21.6949" stroke="#7cff79" stroke-width="2" /><polyline fill="none" points="26.4678,42.522 37.3153,49.8983" stroke="#e4ff12" stroke-width="2" /><polyline fill="none" points="22.9966,33.8441 22.9966,36.4475 28.2034,36.4475" stroke="#ff9400" stroke-width="2" /><polyline fill="none" points="37.3153,50.3322 59.4441,42.522 74.6305,41.2203 84.1763,44.2576 86.7797,46.861 87.6475,51.2 83.3085,56.8407 73.7627,61.6136 60.3119,62.9153 41.6542,59.0102 33.8441,53.3695" stroke="#ff1d00" stroke-width="2" /><polyline fill="none" points="87.6475,46.4271 98.9288,42.522 102.8339,37.7492 104.1356,33.4102 102.4,26.9017 103.7017,20.8271 101.5322,15.6203 116.7186,12.1492 111.9458,16.4881 113.6814,17.7898 119.322,17.7898" stroke="#7f0000" stroke-width="2" /></svg>