<?xml version="1.0" encoding="utf-8" ?>
<svg baseProfile="tiny" height="128" version="1.2" viewBox="0,0,128,128" width="128" xmlns="http://www.w3.org/2000/svg" xmlns:ev="http://www.w3.org/2001/xml-events" xmlns:xlink="http://www.w3.org/1999/xlink"><defs /><polyline fill="none" points="56.4068,30.8068 42.9559,24.7322 33.4102,23.8644 19.0915,26.9017 14.3186,30.8068 8.678,38.6169 10.4136,46.861 10.4136,60.3119 13.4508,65.5186 21.6949,71.5932 29.5051,73.3288 37.3153,72.0271 45.1254,65.0847 49.0305,55.539 51.6339,46.861 52.5017,33.4102" stroke="#00007f" stroke-width="2" /><polyline fill="none" points="20.8271,23.8644 20.3932,17.3559 17.3559,8.678 24.7322,16.4881 27.7695,22.9966" stroke="#0000f1" stroke-width="2" /><polyline fill="none" points="39.0508,23.8644 45.1254,12.1492 49.4644,15.1864 49.8983,22.9966" stroke="#004cff" stroke-width="2" /><polyline fill="none" points="55.539,31.6746 78.5356,30.8068 92.4203,35.1458 96.3254,39.0508 97.6271,42.522 98.4949,51.2 97.1932,54.6712 92.8542,58.1424 77.2339,62.9153 61.1797,62.9153 46.861,55.539" stroke="#00b0ff" stroke-width="2" /><polyline fill="none" points="49.4644,57.2746 49.4644,57.2746" stroke="#29ffcd" stroke-width="2" /><polyline fill="none" points="58.1424,62.0475 63.7831,74.6305 64.2169,86.7797" stroke="#7cff79" stroke-width="2" /><polyline fill="none" points="54.2373,61.1797 55.539,69.4237 42.0881,82.0068" stroke="#cdff29" stroke-width="2" /><polyline fill="none" points="82.8746,59.4441 91.9864,71.5932 93.722,80.2712" stroke="#ffc400" stroke-width="2" /><polyline fill="none" points="90.6847,59.4441 98.9288,64.6508 108.0407,75.9322 108.9085,80.2712" stroke="#ff6700" stroke-width="2" /><polyline fill="none" points="98.4949,42.0881 114.5492,45.1254 119.322,48.5966" stroke="#f10700" stroke-width="2" /><polyline fill="none" points="29.5051,45.1254 23.8644,50.7661 16.4881,54.2373 10.4136,54.6712" stroke="#7f0000" stroke-width="2" /></svg>