<?xml version="1.0" encoding="utf-8" ?>
<svg baseProfile="tiny" height="128" version="1.2" viewBox="0,0,128,128" width="128" xmlns="http://www.w3.org/2000/svg" xmlns:ev="http://www.w3.org/2001/xml-events" xmlns:xlink="http://www.w3.org/1999/xlink"><defs /><polyline fill="none" points="13.8847,41.6542 15.6203,29.5051 25.6,12.1492 28.2034,14.7525 30.3729,22.1288 41.2203,42.522 43.3898,43.3898 57.7085,39.0508 68.9898,38.1831 72.0271,36.0136 76.3661,23.8644 77.6678,10.8475 78.5356,8.678 80.7051,9.9797 89.8169,19.5254 92.4203,24.7322 102.8339,32.9763 111.9458,51.2 115.4169,64.2169 115.4169,69.8576 106.3051,81.139 93.2881,91.9864 88.0814,93.722 65.5186,93.722 55.9729,91.1186 39.9186,82.8746 30.3729,75.9322 21.6949,66.3864 19.0915,59.0102 8.678,42.0881" stroke="#00007f" stroke-width="2" /><polyline fill="none" points="45.5593,56.4068 46.861,61.1797" stroke="#0000de" stroke-width="2" /><polyline fill="none" points="63.3492,53.3695 68.122,53.8034" stroke="#0028ff" stroke-width="2" /><polyline fill="none" points="72.0271,66.8203 72.0271,69.8576 78.1017,72.0271 80.7051,71.1593 82.4407,68.9898 82.0068,66.3864 74.6305,65.0847" stroke="#0080ff" stroke-width="2" /><polyline fill="none" points="82.0068,72.461 82.0068,81.139 80.2712,84.1763 77.2339,86.7797 69.8576,87.2136" stroke="#00d4ff" stroke-width="2" /><polyline fill="none" points="84.1763,69.8576 84.1763,72.461 89.8169,77.6678 98.9288,78.9695 102.4,75.4983 102.4,67.6881" stroke="#36ffc0" stroke-width="2" /><polyline fill="none" points="91.5525,52.0678 91.5525,52.0678" stroke="#7cff79" stroke-width="2" /><polyline fill="none" points="89.3831,52.9356 90.6847,49.4644 101.0983,33.4102 108.4746,26.0339 114.5492,23.8644" stroke="#c0ff36" stroke-width="2" /><polyline fill="none" points="97.1932,53.8034 117.5864,43.3898" stroke="#ffe500" stroke-width="2" /><polyline fill="none" points="104.5695,61.1797 119.322,57.2746" stroke="#ff9400" stroke-width="2" /><polyline fill="none" points="52.5017,75.0644 28.2034,90.2508" stroke="#ff4600" stroke-width="2" /><polyline fill="none" points="51.6339,82.4407 41.2203,98.4949" stroke="#de0000" stroke-width="2" /><polyline fill="none" points="59.0102,80.7051 55.9729,94.1559 52.5017,103.2678" stroke="#7f0000" stroke-width="2" /></svg>