<?xml version="1.0" encoding="utf-8" ?>
<svg baseProfile="tiny" height="128" version="1.2" viewBox="0,0,128,128" width="128" xmlns="http://www.w3.org/2000/svg" xmlns:ev="http://www.w3.org/2001/xml-events" xmlns:xlink="http://www.w3.org/1999/xlink"><defs /><polyline fill="none" points="19.9593,44.6915 18.2237,45.9932 18.2237,49.0305 22.5627,58.1424 32.5424,74.6305 40.3525,82.0068 46.861,85.0441 54.2373,85.9119 62.0475,85.9119 68.9898,84.1763 85.0441,75.4983 93.722,63.7831 100.2305,42.522 99.7966,14.7525 96.7593,9.5458 91.9864,8.678 80.2712,42.0881 75.0644,30.8068 69.8576,27.3356 62.4814,25.1661 49.0305,28.2034 36.4475,35.5797 32.5424,22.9966 21.261,11.2814 20.3932,23.4305 16.4881,38.6169 20.8271,53.3695" stroke="#00007f" stroke-width="2" /><polyline fill="none" points="29.0712,61.1797 12.5831,66.8203" stroke="#0000ff" stroke-width="2" /><polyline fill="none" points="10.4136,68.122 8.678,68.9898" stroke="#0080ff" stroke-width="2" /><polyline fill="none" points="39.9186,68.122 28.6373,72.8949 13.0169,84.6102" stroke="#15ffe1" stroke-width="2" /><polyline fill="none" points="50.3322,72.461 39.9186,78.5356 24.2983,93.2881" stroke="#7cff79" stroke-width="2" /><polyline fill="none" points="91.1186,55.1051 119.322,56.8407" stroke="#e4ff12" stroke-width="2" /><polyline fill="none" points="82.0068,65.5186 94.1559,65.5186 114.1153,70.7254" stroke="#ff9400" stroke-width="2" /><polyline fill="none" points="79.4034,72.0271 108.4746,77.2339" stroke="#ff1d00" stroke-width="2" /><polyline fill="none" points="44.6915,47.2949 49.0305,59.0102 53.8034,62.9153 60.7458,62.4814 62.4814,60.3119 62.4814,55.539 57.2746,45.9932 49.8983,42.0881 48.5966,42.0881 47.2949,45.1254 45.9932,55.1051 46.861,55.539" stroke="#7f0000" stroke-width="2" /></svg>