<?xml version="1.0" encoding="utf-8" ?>
<svg baseProfile="tiny" height="128" version="1.2" viewBox="0,0,128,128" width="128" xmlns="http://www.w3.org/2000/svg" xmlns:ev="http://www.w3.org/2001/xml-events" xmlns:xlink="http://www.w3.org/1999/xlink"><defs /><polyline fill="none" points="112.7619,43.5374 107.9728,40.4898 84.4626,40.0544 76.6259,42.6667 72.7075,45.2789 68.3537,52.2449 67.483,60.0816 67.9184,64.8707 74.0136,72.2721 84.898,76.1905 97.5238,76.1905 103.619,72.7075 108.4082,68.3537 117.9864,52.2449 119.2925,47.4558 119.2925,38.3129 114.068,34.3946 107.5374,34.8299 104.9252,37.0068" stroke="#00007f" stroke-width="2" /><polyline fill="none" points="99.2653,43.5374 97.9592,37.4422 99.7007,29.1701 102.7483,15.6735 107.102,8.7075 111.4558,35.2653 111.0204,43.9728" stroke="#0000ff" stroke-width="2" /><polyline fill="none" points="83.1565,41.3605 81.8503,26.1224 75.3197,12.6259 72.7075,20.4626 72.7075,43.9728" stroke="#0080ff" stroke-width="2" /><polyline fill="none" points="92.2993,51.3741 87.9456,52.2449 94.4762,51.3741 95.7823,53.551 92.7347,54.4218" stroke="#15ffe1" stroke-width="2" /><polyline fill="none" points="104.0544,50.9388 105.3605,50.9388 104.0544,53.1156 102.3129,52.6803 104.0544,50.5034 106.2313,50.068 107.9728,51.8095" stroke="#7cff79" stroke-width="2" /><polyline fill="none" points="83.1565,70.0952 95.7823,69.2245" stroke="#e4ff12" stroke-width="2" /><polyline fill="none" points="80.5442,70.5306 93.6054,69.6599 97.0884,63.5646" stroke="#ff9400" stroke-width="2" /><polyline fill="none" points="67.0476,59.2109 62.6939,59.2109 55.7279,62.2585 43.102,72.7075 35.7007,89.6871 36.1361,93.6054 39.1837,97.5238 57.9048,106.2313 64.0,106.2313 77.4966,99.7007 81.8503,94.0408 84.898,83.5918 84.898,78.3673 77.4966,67.0476 71.4014,64.8707 67.0476,66.6122" stroke="#ff1d00" stroke-width="2" /><polyline fill="none" points="40.4898,92.7347 37.0068,91.8639 34.3946,87.0748 28.2993,59.2109 24.381,55.2925 19.1565,54.8571 14.3673,58.3401 12.6259,62.2585 9.5782,70.0952 8.7075,78.3673 9.5782,93.6054 15.2381,109.7143 21.3333,116.6803 28.7347,117.551 44.8435,92.2993" stroke="#7f0000" stroke-width="2" /></svg>