<?xml version="1.0" encoding="utf-8" ?>
<svg baseProfile="tiny" height="128" version="1.2" viewBox="0,0,128,128" width="128" xmlns="http://www.w3.org/2000/svg" xmlns:ev="http://www.w3.org/2001/xml-events" xmlns:xlink="http://www.w3.org/1999/xlink"><defs /><polyline fill="none" points="33.8441,52.9356 29.5051,47.7288 17.7898,54.6712 15.6203,57.2746 15.6203,70.2915 35.1458,93.2881 40.3525,95.8915 52.0678,98.4949 67.6881,98.4949 86.7797,91.1186 93.2881,72.461 93.722,55.539 91.9864,52.0678 77.2339,44.2576 65.9525,32.9763 50.7661,30.8068 30.3729,30.8068 28.6373,33.8441 26.9017,41.2203 26.9017,49.8983 29.5051,58.5763" stroke="#00007f" stroke-width="2" /><polyline fill="none" points="69.4237,29.5051 94.1559,12.5831 119.322,9.5458 118.4542,16.922 113.6814,31.6746 97.1932,65.5186" stroke="#0028ff" stroke-width="2" /><polyline fill="none" points="8.678,58.1424 10.8475,48.1627 12.1492,8.678 20.8271,11.7153 31.6746,26.4678 34.278,27.3356" stroke="#00d4ff" stroke-width="2" /><polyline fill="none" points="34.278,44.2576 35.1458,44.6915" stroke="#7cff79" stroke-width="2" /><polyline fill="none" points="62.0475,44.6915 60.7458,44.6915" stroke="#ffe500" stroke-width="2" /><polyline fill="none" points="46.4271,50.7661 47.2949,80.2712 34.7119,80.7051 32.1085,79.4034 29.5051,69.4237" stroke="#ff4600" stroke-width="2" /><polyline fill="none" points="49.4644,57.7085 49.4644,57.7085" stroke="#7f0000" stroke-width="2" /></svg>