<?xml version="1.0" encoding="utf-8" ?>
<svg baseProfile="tiny" height="128" version="1.2" viewBox="0,0,128,128" width="128" xmlns="http://www.w3.org/2000/svg" xmlns:ev="http://www.w3.org/2001/xml-events" xmlns:xlink="http://www.w3.org/1999/xlink"><defs /><polyline fill="none" points="23.4305,46.4271 30.8068,16.0542 32.9763,12.5831 36.0136,11.2814 39.9186,20.8271 41.2203,42.522 42.9559,49.0305 45.5593,48.1627 50.3322,42.522 55.9729,40.7864 73.7627,41.6542 83.7424,46.4271 85.0441,35.5797 89.3831,19.9593 99.3627,8.678 108.0407,33.8441 108.9085,57.2746" stroke="#00007f" stroke-width="2" /><polyline fill="none" points="24.2983,43.3898 21.6949,64.2169 23.8644,72.461 35.1458,82.8746 51.2,86.7797 68.5559,86.7797 85.0441,83.7424 93.2881,81.5729 102.4,76.8 107.6068,71.5932 109.7763,65.0847 110.6441,45.5593" stroke="#0000de" stroke-width="2" /><polyline fill="none" points="52.0678,55.539 49.4644,54.6712" stroke="#0028ff" stroke-width="2" /><polyline fill="none" points="80.7051,54.6712 76.8,55.1051 78.9695,53.3695" stroke="#0080ff" stroke-width="2" /><polyline fill="none" points="64.6508,64.2169 62.4814,68.122" stroke="#00d4ff" stroke-width="2" /><polyline fill="none" points="65.5186,63.3492 68.9898,67.6881" stroke="#36ffc0" stroke-width="2" /><polyline fill="none" points="62.4814,59.4441 66.3864,59.4441 72.0271,55.9729" stroke="#7cff79" stroke-width="2" /><polyline fill="none" points="104.1356,60.3119 110.2102,59.4441 118.8881,54.6712" stroke="#c0ff36" stroke-width="2" /><polyline fill="none" points="105.8712,72.461 119.322,72.461" stroke="#ffe500" stroke-width="2" /><polyline fill="none" points="25.6,68.9898 8.678,69.8576" stroke="#ff9400" stroke-width="2" /><polyline fill="none" points="37.7492,66.3864 28.6373,74.1966 20.8271,78.5356" stroke="#ff4600" stroke-width="2" /><polyline fill="none" points="31.6746,42.0881 34.7119,26.9017 38.6169,38.6169 39.0508,49.0305 36.4475,49.8983 32.5424,48.5966" stroke="#de0000" stroke-width="2" /><polyline fill="none" points="92.4203,42.0881 92.4203,42.0881" stroke="#7f0000" stroke-width="2" /></svg>