<?xml version="1.0" encoding="utf-8" ?>
<svg baseProfile="tiny" height="128" version="1.2" viewBox="0,0,128,128" width="128" xmlns="http://www.w3.org/2000/svg" xmlns:ev="http://www.w3.org/2001/xml-events" xmlns:xlink="http://www.w3.org/1999/xlink"><defs /><polyline fill="none" points="74.0136,39.619 68.7891,33.9592 63.5646,33.5238 47.4558,37.0068 26.5578,47.4558 14.8027,58.7755 11.3197,65.3061 9.5782,72.2721 8.7075,85.7687 10.8844,97.9592 16.9796,107.9728 24.381,114.9388 32.6531,118.8571 47.8912,119.2925 59.6463,117.1156 76.1905,108.8435 86.6395,99.2653 92.2993,82.2857 93.6054,66.6122 90.9932,54.4218 89.2517,51.8095 84.0272,49.6327 69.2245,47.4558 72.2721,45.7143" stroke="#00007f" stroke-width="2" /><polyline fill="none" points="13.932,63.1293 11.7551,63.1293 12.6259,59.6463 26.9932,26.9932 33.0884,8.7075 43.9728,41.3605" stroke="#0080ff" stroke-width="2" /><polyline fill="none" points="67.0476,33.9592 84.4626,24.381 94.0408,15.6735 95.3469,19.5918 90.5578,54.4218" stroke="#7cff79" stroke-width="2" /><polyline fill="none" points="49.6327,82.7211 46.585,101.0068 41.3605,104.0544 35.2653,101.4422" stroke="#ff9400" stroke-width="2" /><polyline fill="none" points="50.068,96.6531 49.1973,99.2653 52.6803,101.4422 56.5986,100.5714 58.3401,98.3946" stroke="#7f0000" stroke-width="2" /></svg>