<?xml version="1.0" encoding="utf-8" ?>
<svg baseProfile="tiny" height="128" version="1.2" viewBox="0,0,128,128" width="128" xmlns="http://www.w3.org/2000/svg" xmlns:ev="http://www.w3.org/2001/xml-events" xmlns:xlink="http://www.w3.org/1999/xlink"><defs /><polyline fill="none" points="33.4102,33.4102 19.9593,44.2576 13.0169,55.9729 11.2814,62.9153 10.8475,73.3288 15.6203,86.7797 22.5627,95.0237 28.6373,99.3627 44.2576,105.0034 61.6136,105.0034 76.8,98.9288 85.9119,90.2508 93.722,75.4983 95.8915,56.8407 94.5898,49.8983 89.8169,42.0881 83.3085,36.0136 75.4983,31.2407 57.7085,26.4678 42.9559,28.6373 31.2407,33.8441 26.0339,37.3153" stroke="#00007f" stroke-width="2" /><polyline fill="none" points="12.5831,56.4068 12.1492,45.5593 8.678,21.6949 21.261,27.7695 29.0712,29.5051" stroke="#0000de" stroke-width="2" /><polyline fill="none" points="70.7254,30.3729 88.9492,8.678 86.3458,37.3153" stroke="#0028ff" stroke-width="2" /><polyline fill="none" points="41.6542,59.4441 41.6542,59.4441" stroke="#0080ff" stroke-width="2" /><polyline fill="none" points="61.6136,53.3695 62.0475,53.3695" stroke="#00d4ff" stroke-width="2" /><polyline fill="none" points="46.4271,75.4983 52.5017,74.6305 62.0475,66.8203 64.6508,66.3864 64.6508,77.2339 57.7085,82.4407 50.3322,81.139 46.861,77.2339 48.5966,75.0644" stroke="#36ffc0" stroke-width="2" /><polyline fill="none" points="70.2915,64.2169 70.2915,64.2169" stroke="#7cff79" stroke-width="2" /><polyline fill="none" points="70.2915,64.2169 70.2915,61.6136 74.1966,59.0102 112.3797,40.7864" stroke="#c0ff36" stroke-width="2" /><polyline fill="none" points="76.3661,72.8949 86.7797,62.9153 95.8915,58.1424 101.5322,56.8407" stroke="#ffe500" stroke-width="2" /><polyline fill="none" points="88.9492,83.3085 116.2847,71.1593" stroke="#ff9400" stroke-width="2" /><polyline fill="none" points="35.5797,80.7051 25.1661,86.7797 11.7153,98.061" stroke="#ff4600" stroke-width="2" /><polyline fill="none" points="39.0508,93.2881 33.4102,98.4949 29.5051,104.1356" stroke="#de0000" stroke-width="2" /><polyline fill="none" points="45.1254,105.0034 39.0508,119.322" stroke="#7f0000" stroke-width="2" /></svg>