<?xml version="1.0" encoding="utf-8" ?>
<svg baseProfile="tiny" height="128" version="1.2" viewBox="0,0,128,128" width="128" xmlns="http://www.w3.org/2000/svg" xmlns:ev="http://www.w3.org/2001/xml-events" xmlns:xlink="http://www.w3.org/1999/xlink"><defs /><polyline fill="none" points="11.2814,84.1763 12.1492,75.4983 14.3186,69.8576 18.6576,64.2169 25.6,58.1424 37.7492,52.5017 48.5966,50.7661 59.878,50.7661 74.1966,54.2373 84.1763,63.3492 89.3831,75.9322 89.3831,91.1186 85.9119,99.7966 75.4983,110.6441 52.5017,117.5864 31.6746,119.322 19.9593,114.5492 12.5831,107.1729 8.678,90.2508 9.1119,84.6102 11.2814,82.8746" stroke="#00007f" stroke-width="2" /><polyline fill="none" points="21.261,16.4881 19.5254,43.3898 16.922,64.6508" stroke="#0000fe" stroke-width="2" /><polyline fill="none" points="24.7322,14.7525 25.1661,19.5254 35.5797,46.861 39.9186,53.8034" stroke="#0060ff" stroke-width="2" /><polyline fill="none" points="67.6881,9.1119 63.3492,18.6576 55.539,55.539" stroke="#00d4ff" stroke-width="2" /><polyline fill="none" points="71.1593,8.678 69.8576,9.5458 70.2915,13.0169 75.9322,47.7288" stroke="#4cffaa" stroke-width="2" /><polyline fill="none" points="48.5966,99.7966 47.2949,95.8915 52.0678,92.8542 51.6339,97.6271 47.7288,100.2305 46.4271,98.061 48.1627,95.8915 50.3322,95.4576 50.7661,96.7593 48.5966,97.6271 48.1627,96.3254 49.4644,95.4576 49.8983,97.1932 47.2949,98.9288" stroke="#aaff4c" stroke-width="2" /><polyline fill="none" points="53.8034,94.1559 67.6881,92.8542" stroke="#ffe500" stroke-width="2" /><polyline fill="none" points="50.7661,100.2305 56.8407,102.8339 60.7458,107.6068" stroke="#ff7a00" stroke-width="2" /><polyline fill="none" points="47.7288,99.3627 27.3356,112.8136" stroke="#fe1200" stroke-width="2" /><polyline fill="none" points="47.2949,94.5898 26.9017,95.4576 24.7322,94.1559" stroke="#7f0000" stroke-width="2" /></svg>