<?xml version="1.0" encoding="utf-8" ?>
<svg baseProfile="tiny" height="128" version="1.2" viewBox="0,0,128,128" width="128" xmlns="http://www.w3.org/2000/svg" xmlns:ev="http://www.w3.org/2001/xml-events" xmlns:xlink="http://www.w3.org/1999/xlink"><defs /><polyline fill="none" points="53.8034,42.0881 54.2373,36.0136 49.0305,29.939 43.8237,39.9186 38.1831,38.1831 26.4678,42.9559 20.3932,33.4102 17.7898,32.5424 14.3186,38.6169 8.678,59.878 10.4136,71.5932 16.0542,78.1017 22.9966,81.5729 28.6373,82.8746 34.7119,82.8746 42.0881,80.7051 45.9932,76.3661 56.8407,46.861 56.8407,43.8237 53.8034,41.6542" stroke="#00007f" stroke-width="2" /><polyline fill="none" points="19.0915,51.6339 19.0915,51.6339" stroke="#0028ff" stroke-width="2" /><polyline fill="none" points="45.5593,52.0678 45.5593,52.0678" stroke="#00d4ff" stroke-width="2" /><polyline fill="none" points="33.4102,62.9153 34.7119,72.8949 40.3525,74.6305 40.3525,68.9898" stroke="#7cff79" stroke-width="2" /><polyline fill="none" points="33.8441,69.8576 26.0339,72.0271 22.9966,69.8576 19.5254,63.3492" stroke="#ffe500" stroke-width="2" /><polyline fill="none" points="53.3695,58.5763 81.139,56.4068 102.4,51.2 105.0034,47.7288 112.8136,11.7153 114.9831,8.678 117.1525,9.1119 119.322,15.1864 118.0203,30.3729 110.6441,50.7661 108.0407,75.9322 111.078,90.6847 111.078,98.4949 105.0034,101.5322 101.5322,101.9661 97.1932,100.6644 95.4576,97.6271 100.2305,95.4576 100.6644,88.0814 96.7593,78.1017 91.5525,75.9322 69.4237,82.4407 63.3492,86.3458 61.6136,91.1186 64.2169,99.3627 63.3492,104.5695 58.5763,108.4746 46.861,111.078 45.1254,103.7017 51.2,101.0983 52.0678,95.8915 48.5966,83.7424 42.9559,80.2712" stroke="#ff4600" stroke-width="2" /><polyline fill="none" points="34.278,61.6136 29.5051,57.7085 31.6746,55.9729 35.1458,57.7085 35.5797,60.7458 33.8441,62.9153" stroke="#7f0000" stroke-width="2" /></svg>