<?xml version="1.0" encoding="utf-8" ?>
<svg baseProfile="tiny" height="128" version="1.2" viewBox="0,0,128,128" width="128" xmlns="http://www.w3.org/2000/svg" xmlns:ev="http://www.w3.org/2001/xml-events" xmlns:xlink="http://www.w3.org/1999/xlink"><defs /><polyline fill="none" points="65.529,20.5324 54.6075,21.4061 41.9386,25.3379 23.5904,36.2594 15.2901,47.1809 13.5427,55.0444 13.9795,60.2867 17.9113,72.0819 23.1536,82.1297 30.5802,90.43 40.1911,96.5461 49.802,99.6041 62.9078,100.9147 83.0034,95.2355 96.5461,86.9352 108.7782,72.9556 116.2048,58.9761 116.6416,54.6075 115.3311,49.3652 101.7884,34.0751 93.0512,26.6485 86.9352,23.5904 76.8874,23.1536 65.0922,24.4642 45.4334,30.5802" stroke="#00007f" stroke-width="2" /><polyline fill="none" points="101.3515,31.8908 99.1672,31.0171 100.041,27.0853 118.3891,8.7372 119.2628,17.9113 117.5154,52.8601" stroke="#0000de" stroke-width="2" /><polyline fill="none" points="41.5017,27.5222 24.0273,19.6587 8.7372,10.0478 9.1741,15.727 20.5324,41.0648" stroke="#0028ff" stroke-width="2" /><polyline fill="none" points="52.8601,49.802 52.8601,50.2389" stroke="#0080ff" stroke-width="2" /><polyline fill="none" points="85.6246,53.2969 85.6246,53.2969" stroke="#00d4ff" stroke-width="2" /><polyline fill="none" points="83.4403,49.3652 83.4403,49.3652" stroke="#36ffc0" stroke-width="2" /><polyline fill="none" points="63.7816,64.2184 59.8498,84.314 62.471,84.7509 73.8294,81.6928 69.4608,72.0819 64.6553,66.4027" stroke="#7cff79" stroke-width="2" /><polyline fill="none" points="72.0819,72.0819 106.157,48.9283" stroke="#c0ff36" stroke-width="2" /><polyline fill="none" points="72.5188,72.0819 82.5666,70.3345 101.3515,69.8976" stroke="#ffe500" stroke-width="2" /><polyline fill="none" points="68.587,73.3925 94.3618,77.7611 107.4676,82.5666" stroke="#ff9400" stroke-width="2" /><polyline fill="none" points="72.9556,76.0137 85.1877,84.314 95.6724,89.5563" stroke="#ff4600" stroke-width="2" /><polyline fill="none" points="60.7235,69.8976 32.7645,56.7918" stroke="#de0000" stroke-width="2" /><polyline fill="none" points="61.5973,69.8976 27.959,70.3345 21.843,68.587 19.6587,65.9659 20.0956,64.6553" stroke="#7f0000" stroke-width="2" /></svg>