<?xml version="1.0" encoding="utf-8" ?>
<svg baseProfile="tiny" height="128" version="1.2" viewBox="0,0,128,128" width="128" xmlns="http://www.w3.org/2000/svg" xmlns:ev="http://www.w3.org/2001/xml-events" xmlns:xlink="http://www.w3.org/1999/xlink"><defs /><polyline fill="none" points="21.261,60.7458 21.261,72.461 24.2983,80.7051 28.6373,85.478 36.8814,89.3831 60.3119,88.9492 70.7254,83.7424 82.8746,72.0271 84.6102,61.1797 80.2712,57.7085 60.3119,55.1051 23.8644,56.4068" stroke="#00007f" stroke-width="2" /><polyline fill="none" points="25.1661,83.7424 26.0339,100.2305 23.8644,118.4542 26.0339,119.322 31.2407,112.8136 42.522,106.739 46.861,102.4 47.7288,94.5898 45.5593,85.478" stroke="#0000ff" stroke-width="2" /><polyline fill="none" points="53.3695,90.2508 56.4068,98.9288 57.7085,116.7186 68.122,117.5864 67.2542,92.8542 69.8576,82.0068" stroke="#0080ff" stroke-width="2" /><polyline fill="none" points="80.2712,82.4407 80.7051,111.5119 83.3085,113.2475 88.9492,113.6814 92.4203,111.5119 93.2881,103.2678 88.5153,88.9492 85.9119,63.7831" stroke="#15ffe1" stroke-width="2" /><polyline fill="none" points="18.6576,80.2712 9.9797,90.6847 8.678,94.1559 8.678,112.3797 9.1119,115.8508 13.0169,116.7186 19.0915,114.5492 22.5627,111.5119 22.9966,79.8373 30.8068,59.0102" stroke="#7cff79" stroke-width="2" /><polyline fill="none" points="71.5932,56.8407 71.1593,40.7864 73.3288,31.6746 80.2712,24.2983 89.3831,22.9966 96.3254,31.6746 100.6644,45.1254 90.2508,63.7831 85.478,68.5559" stroke="#e4ff12" stroke-width="2" /><polyline fill="none" points="69.4237,37.7492 67.6881,35.5797 64.6508,8.678" stroke="#ff9400" stroke-width="2" /><polyline fill="none" points="72.0271,55.539 68.9898,51.2 59.4441,25.1661" stroke="#ff1d00" stroke-width="2" /><polyline fill="none" points="84.6102,41.6542 82.8746,42.9559 83.7424,44.6915 87.2136,44.6915 89.3831,41.2203 87.6475,45.1254" stroke="#7f0000" stroke-width="2" /></svg>