<?xml version="1.0" encoding="utf-8" ?>
<svg baseProfile="tiny" height="128" version="1.2" viewBox="0,0,128,128" width="128" xmlns="http://www.w3.org/2000/svg" xmlns:ev="http://www.w3.org/2001/xml-events" xmlns:xlink="http://www.w3.org/1999/xlink"><defs /><polyline fill="none" points="9.5458,54.2373 12.5831,45.5593 26.0339,19.5254 29.939,13.8847 36.4475,8.678 39.9186,8.678 41.6542,12.5831 45.9932,40.7864 49.4644,50.7661 65.0847,49.0305 78.9695,49.4644 86.3458,24.7322 92.4203,16.922 95.4576,15.6203 107.1729,61.6136 106.3051,76.3661 101.9661,87.2136 93.722,100.2305 86.3458,108.0407 78.9695,112.8136 66.8203,118.0203 55.9729,119.322 41.2203,118.4542 28.6373,111.5119 18.2237,101.0983 10.4136,85.9119 8.678,67.2542 9.5458,62.9153 15.1864,57.2746" stroke="#00007f" stroke-width="2" /><polyline fill="none" points="29.939,65.5186 49.8983,65.0847 52.9356,66.3864 52.5017,68.9898" stroke="#0010ff" stroke-width="2" /><polyline fill="none" points="45.9932,73.7627 44.6915,71.5932 46.861,71.1593 45.1254,71.5932 44.6915,69.8576" stroke="#00a4ff" stroke-width="2" /><polyline fill="none" points="76.3661,68.9898 96.3254,63.7831" stroke="#3fffb7" stroke-width="2" /><polyline fill="none" points="84.1763,72.0271 86.7797,66.8203 93.2881,63.7831 98.4949,65.9525 98.9288,67.6881 94.1559,72.8949 88.9492,75.9322 84.6102,76.8 82.4407,75.4983 82.4407,72.0271" stroke="#b7ff3f" stroke-width="2" /><polyline fill="none" points="88.0814,76.8 86.3458,75.9322" stroke="#ffb900" stroke-width="2" /><polyline fill="none" points="53.3695,75.4983 40.3525,75.9322" stroke="#ff3000" stroke-width="2" /><polyline fill="none" points="63.3492,91.5525 59.0102,92.8542" stroke="#7f0000" stroke-width="2" /></svg>