<?xml version="1.0" encoding="utf-8" ?>
<svg baseProfile="tiny" height="128" version="1.2" viewBox="0,0,128,128" width="128" xmlns="http://www.w3.org/2000/svg" xmlns:ev="http://www.w3.org/2001/xml-events" xmlns:xlink="http://www.w3.org/1999/xlink"><defs /><polyline fill="none" points="43.8237,23.8644 26.9017,47.7288 26.0339,55.1051 27.3356,58.5763 29.0712,59.878 37.3153,56.8407 48.1627,50.3322 58.5763,36.4475 58.5763,32.9763 56.8407,31.6746 41.2203,30.8068 36.0136,25.6 34.7119,25.6" stroke="#00007f" stroke-width="2" /><polyline fill="none" points="31.6746,36.4475 37.3153,21.6949 43.8237,11.2814 44.2576,18.6576 46.861,27.3356" stroke="#0000ff" stroke-width="2" /><polyline fill="none" points="52.0678,28.6373 56.8407,8.678 56.8407,12.1492 62.0475,17.7898 65.9525,24.2983 66.8203,36.8814" stroke="#0080ff" stroke-width="2" /><polyline fill="none" points="37.7492,55.9729 40.7864,58.5763 49.4644,59.878 61.1797,58.5763 68.122,54.6712 68.5559,52.5017 65.5186,49.4644 57.7085,46.4271 46.861,38.6169 46.4271,41.2203" stroke="#15ffe1" stroke-width="2" /><polyline fill="none" points="42.9559,60.7458 42.9559,70.7254 28.2034,73.3288" stroke="#7cff79" stroke-width="2" /><polyline fill="none" points="63.3492,55.1051 61.1797,68.9898 45.9932,67.6881" stroke="#e4ff12" stroke-width="2" /><polyline fill="none" points="8.678,77.2339 24.7322,71.1593 35.5797,71.1593 43.8237,72.461 62.4814,65.0847 75.9322,66.3864 83.7424,65.0847" stroke="#ff9400" stroke-width="2" /><polyline fill="none" points="16.922,75.9322 16.922,106.3051 18.2237,119.322" stroke="#ff1d00" stroke-width="2" /><polyline fill="none" points="73.7627,69.4237 75.4983,74.6305 77.6678,105.0034 76.8,104.5695" stroke="#7f0000" stroke-width="2" /></svg>