<?xml version="1.0" encoding="utf-8" ?>
<svg baseProfile="tiny" height="128" version="1.2" viewBox="0,0,128,128" width="128" xmlns="http://www.w3.org/2000/svg" xmlns:ev="http://www.w3.org/2001/xml-events" xmlns:xlink="http://www.w3.org/1999/xlink"><defs /><polyline fill="none" points="21.261,48.5966 16.922,50.7661 14.7525,54.6712 9.9797,65.5186 8.678,72.0271 8.678,88.9492 15.1864,103.7017 20.8271,110.2102 36.8814,117.1525 68.9898,118.0203 82.8746,110.6441 91.9864,95.4576 95.0237,83.3085 95.0237,70.2915 92.8542,63.7831 87.2136,56.4068 59.4441,42.522 52.0678,40.7864 39.0508,40.7864 23.8644,47.7288" stroke="#00007f" stroke-width="2" /><polyline fill="none" points="23.8644,47.7288 16.922,36.0136 13.0169,8.678 15.1864,13.0169 32.9763,30.8068 37.7492,37.3153 42.522,39.4847" stroke="#0010ff" stroke-width="2" /><polyline fill="none" points="65.0847,42.9559 95.0237,35.5797 118.4542,27.3356 119.322,31.2407 111.9458,39.4847 95.4576,50.7661 88.5153,58.1424" stroke="#00a4ff" stroke-width="2" /><polyline fill="none" points="35.5797,65.9525 35.5797,65.9525" stroke="#3fffb7" stroke-width="2" /><polyline fill="none" points="36.4475,65.9525 33.8441,65.5186 34.7119,67.6881" stroke="#b7ff3f" stroke-width="2" /><polyline fill="none" points="57.2746,65.9525 57.2746,68.9898" stroke="#ffb900" stroke-width="2" /><polyline fill="none" points="39.0508,75.9322 34.278,79.8373 33.4102,82.4407 48.1627,82.4407 39.9186,80.2712 42.522,78.5356 45.1254,78.5356 45.5593,80.2712" stroke="#ff3000" stroke-width="2" /><polyline fill="none" points="25.6,91.5525 19.5254,93.722 17.7898,97.1932 22.9966,100.6644 29.5051,102.4 34.7119,102.4 37.7492,96.3254 46.861,100.6644 53.3695,101.9661 55.9729,99.7966 56.4068,94.5898 45.1254,93.2881" stroke="#7f0000" stroke-width="2" /></svg>