<?xml version="1.0" encoding="utf-8" ?>
<svg baseProfile="tiny" height="128" version="1.2" viewBox="0,0,128,128" width="128" xmlns="http://www.w3.org/2000/svg" xmlns:ev="http://www.w3.org/2001/xml-events" xmlns:xlink="http://www.w3.org/1999/xlink"><defs /><polyline fill="none" points="69.0584,50.1443 85.7732,38.268 91.9313,36.0687 105.567,27.2715 110.4055,25.9519" stroke="#00007f" stroke-width="2" /><polyline fill="none" points="69.0584,50.1443 81.8144,54.543 86.6529,58.9416 106.0069,69.0584 102.488,64.6598" stroke="#0000e8" stroke-width="2" /><polyline fill="none" points="71.2577,49.7045 87.9725,49.2646 116.1237,45.7457 119.2027,45.3058 117.4433,43.1065" stroke="#0038ff" stroke-width="2" /><polyline fill="none" points="69.0584,50.1443 63.3402,49.2646 34.3093,39.5876 12.756,36.9485 8.7973,35.189" stroke="#0094ff" stroke-width="2" /><polyline fill="none" points="69.4983,50.5842 64.2199,59.3814 56.3024,67.7388 51.4639,70.378 48.3849,74.7766" stroke="#0cf4ea" stroke-width="2" /><polyline fill="none" points="69.4983,50.1443 45.7457,59.3814 39.1478,63.7801" stroke="#56ffa0" stroke-width="2" /><polyline fill="none" points="77.4158,29.0309 74.7766,30.3505 77.4158,33.8694 79.6151,30.3505 75.6564,29.4708" stroke="#a0ff56" stroke-width="2" /><polyline fill="none" points="63.7801,31.2302 62.9003,32.5498 69.9381,33.4296 70.378,31.6701 65.9794,29.4708 64.2199,31.6701" stroke="#eaff0c" stroke-width="2" /><polyline fill="none" points="78.7354,16.7148 80.4948,13.1959 85.7732,8.7973" stroke="#ffaa00" stroke-width="2" /><polyline fill="none" points="85.7732,8.7973 89.2921,19.354" stroke="#ff5500" stroke-width="2" /><polyline fill="none" points="78.7354,17.1546 67.7388,16.7148 58.5017,14.5155 62.4605,22.433" stroke="#e80000" stroke-width="2" /><polyline fill="none" points="64.2199,22.8729 57.1821,25.0722 47.0653,31.2302 44.4261,34.3093 43.1065,39.5876 42.2268,76.9759 45.7457,82.6942 54.9828,82.6942 84.8935,72.1375 93.2509,65.5395 103.3677,51.9038 106.8866,31.6701 106.4467,29.0309 95.4502,21.5533 87.9725,21.1134 87.0928,21.9931" stroke="#7f0000" stroke-width="2" /></svg>