<?xml version="1.0" encoding="utf-8" ?>
<svg baseProfile="tiny" height="128" version="1.2" viewBox="0,0,128,128" width="128" xmlns="http://www.w3.org/2000/svg" xmlns:ev="http://www.w3.org/2001/xml-events" xmlns:xlink="http://www.w3.org/1999/xlink"><defs /><polyline fill="none" points="33.4102,32.9763 34.7119,21.261 32.1085,8.678 44.6915,16.0542 54.2373,26.4678 66.8203,26.9017 78.9695,30.8068 96.3254,22.9966 100.2305,18.6576 100.6644,19.9593 100.2305,29.0712 95.8915,44.2576 101.9661,52.0678 103.7017,56.4068 103.2678,61.6136 99.3627,75.9322 90.6847,83.7424 86.3458,85.0441 63.3492,86.3458 45.5593,83.3085 33.8441,78.5356 26.0339,72.461 19.9593,65.0847 16.922,56.4068 16.4881,49.4644 18.6576,42.9559 26.0339,35.1458 29.939,32.1085 32.9763,32.1085" stroke="#00007f" stroke-width="2" /><polyline fill="none" points="23.8644,37.7492 17.3559,29.5051" stroke="#0010ff" stroke-width="2" /><polyline fill="none" points="19.0915,42.0881 9.5458,36.4475" stroke="#00a4ff" stroke-width="2" /><polyline fill="none" points="16.0542,47.2949 8.678,48.5966" stroke="#3fffb7" stroke-width="2" /><polyline fill="none" points="101.9661,53.3695 119.322,62.0475" stroke="#b7ff3f" stroke-width="2" /><polyline fill="none" points="100.6644,64.6508 113.6814,74.6305" stroke="#ffb900" stroke-width="2" /><polyline fill="none" points="95.4576,74.1966 105.8712,83.3085" stroke="#ff3000" stroke-width="2" /><polyline fill="none" points="49.8983,38.6169 49.8983,38.6169" stroke="#7f0000" stroke-width="2" /></svg>