<?xml version="1.0" encoding="utf-8" ?>
<svg baseProfile="tiny" height="128" version="1.2" viewBox="0,0,128,128" width="128" xmlns="http://www.w3.org/2000/svg" xmlns:ev="http://www.w3.org/2001/xml-events" xmlns:xlink="http://www.w3.org/1999/xlink"><defs /><polyline fill="none" points="54.2373,16.922 41.6542,22.5627 35.5797,27.3356 32.5424,36.4475 32.5424,44.6915 34.278,48.5966 37.7492,52.0678 53.3695,59.0102 64.2169,61.6136 82.4407,61.6136 85.9119,59.878 90.6847,54.2373 94.1559,46.4271 94.5898,39.0508 90.2508,28.2034 69.4237,19.0915 55.1051,18.2237" stroke="#00007f" stroke-width="2" /><polyline fill="none" points="45.9932,18.2237 56.4068,10.8475 64.2169,8.678 66.3864,17.3559" stroke="#0000f1" stroke-width="2" /><polyline fill="none" points="71.1593,19.9593 92.4203,9.9797 97.1932,21.6949 98.9288,34.7119" stroke="#004cff" stroke-width="2" /><polyline fill="none" points="50.3322,40.3525 31.6746,29.5051 8.678,22.1288" stroke="#00b0ff" stroke-width="2" /><polyline fill="none" points="41.6542,44.6915 19.9593,40.7864" stroke="#29ffcd" stroke-width="2" /><polyline fill="none" points="49.4644,48.5966 26.9017,55.1051" stroke="#7cff79" stroke-width="2" /><polyline fill="none" points="80.2712,48.1627 101.5322,48.5966" stroke="#cdff29" stroke-width="2" /><polyline fill="none" points="79.4034,52.5017 111.078,61.1797" stroke="#ffc400" stroke-width="2" /><polyline fill="none" points="70.2915,54.2373 77.6678,60.3119 119.322,76.8" stroke="#ff6700" stroke-width="2" /><polyline fill="none" points="58.1424,27.3356 55.1051,27.3356 55.1051,28.2034 59.4441,29.939 68.122,28.2034" stroke="#f10700" stroke-width="2" /><polyline fill="none" points="72.8949,31.2407 74.6305,37.7492 82.4407,35.5797" stroke="#7f0000" stroke-width="2" /></svg>