<?xml version="1.0" encoding="utf-8" ?>
<svg baseProfile="tiny" height="128" version="1.2" viewBox="0,0,128,128" width="128" xmlns="http://www.w3.org/2000/svg" xmlns:ev="http://www.w3.org/2001/xml-events" xmlns:xlink="http://www.w3.org/1999/xlink"><defs /><polyline fill="none" points="46.4271,29.0712 36.4475,29.5051 29.939,33.4102 25.6,39.0508 22.5627,45.5593 21.261,53.8034 21.6949,67.6881 29.5051,84.6102 32.5424,87.6475 47.2949,98.4949 58.5763,101.9661 69.8576,101.9661 76.3661,99.7966 82.0068,95.8915 88.0814,88.0814 90.6847,78.1017 90.6847,66.3864 87.2136,51.2 80.2712,38.6169 73.3288,30.8068 67.2542,26.4678 52.0678,21.6949 45.9932,22.5627 35.1458,27.7695" stroke="#00007f" stroke-width="2" /><polyline fill="none" points="65.0847,29.0712 75.9322,15.6203 85.478,8.678 87.2136,8.678 89.3831,13.4508 89.3831,22.5627 88.0814,32.9763 86.7797,34.278" stroke="#0000de" stroke-width="2" /><polyline fill="none" points="31.6746,27.3356 14.3186,14.3186 9.5458,13.8847 8.678,16.4881 10.8475,22.1288 20.3932,36.8814 25.6,42.9559 29.939,44.6915" stroke="#0028ff" stroke-width="2" /><polyline fill="none" points="44.6915,44.6915 36.4475,47.7288 37.7492,53.3695 45.1254,53.8034 49.0305,50.3322 49.4644,48.1627 47.7288,44.6915 44.6915,43.3898" stroke="#0080ff" stroke-width="2" /><polyline fill="none" points="61.6136,41.2203 59.0102,49.8983 60.7458,51.6339 65.5186,51.6339 67.2542,49.4644 67.2542,44.2576 64.6508,42.0881 60.3119,41.6542" stroke="#00d4ff" stroke-width="2" /><polyline fill="none" points="58.1424,67.2542 56.4068,65.9525 55.9729,69.4237 57.7085,68.5559 57.2746,65.9525" stroke="#36ffc0" stroke-width="2" /><polyline fill="none" points="56.4068,75.0644 59.0102,84.1763 58.1424,88.9492 56.4068,89.3831 55.1051,87.2136 58.5763,73.7627 62.4814,85.0441 65.9525,87.6475 67.2542,84.6102" stroke="#7cff79" stroke-width="2" /><polyline fill="none" points="59.4441,78.1017 73.7627,71.1593 88.5153,60.3119" stroke="#c0ff36" stroke-width="2" /><polyline fill="none" points="60.3119,77.6678 95.4576,85.9119 99.7966,85.9119 100.6644,84.6102" stroke="#ffe500" stroke-width="2" /><polyline fill="none" points="60.7458,76.8 72.461,77.6678 88.0814,75.4983 100.6644,69.8576" stroke="#ff9400" stroke-width="2" /><polyline fill="none" points="48.1627,78.1017 14.3186,70.7254" stroke="#ff4600" stroke-width="2" /><polyline fill="none" points="45.1254,73.7627 31.6746,90.6847 23.8644,97.6271" stroke="#de0000" stroke-width="2" /><polyline fill="none" points="50.3322,78.1017 36.4475,119.322" stroke="#7f0000" stroke-width="2" /></svg>