<?xml version="1.0" encoding="utf-8" ?>
<svg baseProfile="tiny" height="128" version="1.2" viewBox="0,0,128,128" width="128" xmlns="http://www.w3.org/2000/svg" xmlns:ev="http://www.w3.org/2001/xml-events" xmlns:xlink="http://www.w3.org/1999/xlink"><defs /><polyline fill="none" points="30.8068,29.0712 36.8814,9.1119 39.0508,8.678 40.7864,12.1492 43.3898,27.3356 47.2949,28.2034 58.5763,25.1661 73.7627,24.7322 77.6678,22.5627 85.0441,9.5458 87.6475,9.5458 92.8542,22.9966 100.6644,64.2169 100.6644,70.7254 95.8915,77.2339 85.0441,84.1763 69.4237,88.0814 44.2576,89.8169 37.7492,86.7797 29.939,76.8 24.2983,65.0847 23.4305,47.2949 27.7695,37.3153 38.6169,22.1288" stroke="#00007f" stroke-width="2" /><polyline fill="none" points="82.4407,43.3898 103.7017,32.1085 112.8136,25.6 118.4542,19.0915" stroke="#0010ff" stroke-width="2" /><polyline fill="none" points="80.7051,59.0102 99.3627,58.5763 112.3797,62.0475" stroke="#00a4ff" stroke-width="2" /><polyline fill="none" points="82.0068,72.461 105.8712,91.9864" stroke="#3fffb7" stroke-width="2" /><polyline fill="none" points="45.9932,52.5017 21.6949,52.9356 8.678,55.539" stroke="#b7ff3f" stroke-width="2" /><polyline fill="none" points="35.5797,66.8203 24.2983,71.5932 12.1492,83.3085" stroke="#ffb900" stroke-width="2" /><polyline fill="none" points="57.7085,79.4034 51.2,82.8746 45.5593,88.9492 23.8644,119.322" stroke="#ff3000" stroke-width="2" /><polyline fill="none" points="58.1424,55.1051 56.4068,58.5763 59.878,61.6136 66.3864,62.0475 68.9898,59.4441 69.4237,54.2373 64.2169,54.6712 57.2746,59.878" stroke="#7f0000" stroke-width="2" /></svg>