<?xml version="1.0" encoding="utf-8" ?>
<svg baseProfile="tiny" height="128" version="1.2" viewBox="0,0,128,128" width="128" xmlns="http://www.w3.org/2000/svg" xmlns:ev="http://www.w3.org/2001/xml-events" xmlns:xlink="http://www.w3.org/1999/xlink"><defs /><polyline fill="none" points="21.6949,54.6712 12.5831,61.6136 10.8475,64.6508 8.678,73.7627 11.7153,84.1763 22.1288,90.2508 29.5051,91.1186 43.8237,89.8169" stroke="#00007f" stroke-width="2" /><polyline fill="none" points="59.0102,59.4441 55.539,60.7458 52.5017,68.122 52.0678,78.1017 54.6712,83.7424 59.4441,84.6102 63.3492,82.8746 62.9153,73.3288 58.5763,64.6508 67.2542,77.2339 71.5932,79.4034 74.6305,78.9695 78.9695,65.5186 79.8373,37.7492 84.1763,56.4068 88.0814,64.2169 93.2881,71.1593 95.0237,72.461 95.0237,69.8576" stroke="#0000c3" stroke-width="2" /><polyline fill="none" points="82.0068,54.6712 99.7966,51.6339" stroke="#0000ff" stroke-width="2" /><polyline fill="none" points="80.7051,54.2373 69.4237,50.3322 66.3864,47.2949 62.9153,39.9186 62.9153,34.278 67.6881,25.6 72.0271,21.261 78.9695,19.0915 88.5153,22.5627 97.6271,30.3729 100.2305,38.6169 99.3627,51.6339" stroke="#0034ff" stroke-width="2" /><polyline fill="none" points="78.9695,31.2407 76.8,32.5424 79.8373,31.6746" stroke="#0070ff" stroke-width="2" /><polyline fill="none" points="86.3458,32.5424 89.8169,31.6746" stroke="#00acff" stroke-width="2" /><polyline fill="none" points="77.2339,41.6542 82.8746,40.7864 76.8,38.1831 73.7627,38.6169" stroke="#02e8f4" stroke-width="2" /><polyline fill="none" points="101.5322,36.0136 110.6441,31.6746 119.322,30.8068" stroke="#32ffc3" stroke-width="2" /><polyline fill="none" points="101.5322,43.8237 115.4169,43.8237 118.8881,41.6542" stroke="#63ff93" stroke-width="2" /><polyline fill="none" points="57.2746,38.6169 46.861,38.6169 43.8237,40.7864" stroke="#93ff63" stroke-width="2" /><polyline fill="none" points="63.3492,49.8983 45.5593,46.4271" stroke="#c3ff32" stroke-width="2" /><polyline fill="none" points="67.2542,22.9966 71.1593,14.7525 78.1017,8.678 82.4407,25.1661" stroke="#f4f802" stroke-width="2" /><polyline fill="none" points="91.5525,22.9966 91.9864,18.2237 94.5898,13.4508 98.061,11.2814 98.9288,16.0542 97.6271,34.7119" stroke="#ffc000" stroke-width="2" /><polyline fill="none" points="81.139,55.1051 71.1593,53.3695 59.878,53.8034 47.2949,58.1424 39.0508,66.8203 36.8814,80.2712 37.7492,88.9492 50.3322,91.9864 60.3119,91.9864 70.7254,88.9492 86.3458,76.3661 80.7051,98.061 83.3085,98.9288 96.3254,91.9864 91.1186,72.0271" stroke="#ff8900" stroke-width="2" /><polyline fill="none" points="71.1593,85.478 72.461,91.9864 80.7051,91.9864" stroke="#ff5100" stroke-width="2" /><polyline fill="none" points="51.6339,94.5898 54.6712,102.8339 56.8407,103.7017 62.0475,98.4949 65.0847,93.722 65.0847,91.1186" stroke="#ff1a00" stroke-width="2" /><polyline fill="none" points="47.2949,91.1186 44.6915,101.0983 54.6712,97.1932" stroke="#c30000" stroke-width="2" /><polyline fill="none" points="23.4305,60.3119 19.0915,74.1966 18.2237,79.8373 19.0915,82.4407 24.7322,85.0441 40.7864,86.7797" stroke="#7f0000" stroke-width="2" /></svg>