<?xml version="1.0" encoding="utf-8" ?>
<svg baseProfile="tiny" height="128" version="1.2" viewBox="0,0,128,128" width="128" xmlns="http://www.w3.org/2000/svg" xmlns:ev="http://www.w3.org/2001/xml-events" xmlns:xlink="http://www.w3.org/1999/xlink"><defs /><polyline fill="none" points="19.2218,46.744 17.9113,46.3072 16.6007,48.0546 14.8532,74.2662 18.785,89.1195 23.5904,99.6041 29.7065,106.157 45.4334,117.5154 49.802,119.2628 58.9761,118.8259 68.587,115.7679 76.4505,111.3993 83.0034,102.6621 89.9932,89.1195 95.2355,62.0341 94.3618,38.8805 91.3038,32.7645" stroke="#00007f" stroke-width="2" /><polyline fill="none" points="36.6962,79.0717 11.3584,100.041" stroke="#0000cc" stroke-width="2" /><polyline fill="none" points="42.8123,82.5666 30.5802,103.099" stroke="#0008ff" stroke-width="2" /><polyline fill="none" points="48.0546,84.7509 34.0751,110.0887" stroke="#004cff" stroke-width="2" /><polyline fill="none" points="71.6451,83.8771 85.1877,96.1092" stroke="#0090ff" stroke-width="2" /><polyline fill="none" points="76.8874,73.3925 85.6246,82.1297 92.1775,83.8771" stroke="#00d4ff" stroke-width="2" /><polyline fill="none" points="88.2457,69.4608 97.4198,76.8874 103.9727,79.9454" stroke="#29ffcd" stroke-width="2" /><polyline fill="none" points="50.2389,62.471 48.4915,65.9659 46.744,83.0034 48.0546,86.9352 57.6655,85.6246 64.6553,82.1297 71.2082,73.3925 72.0819,66.8396 69.8976,62.471 62.9078,59.8498 55.9181,61.5973 50.6758,66.4027" stroke="#5fff96" stroke-width="2" /><polyline fill="none" points="54.1706,70.3345 52.8601,72.9556 54.1706,76.0137 55.9181,71.2082" stroke="#96ff5f" stroke-width="2" /><polyline fill="none" points="61.5973,71.2082 61.1604,74.2662 62.471,74.2662 65.529,66.8396" stroke="#cdff29" stroke-width="2" /><polyline fill="none" points="15.727,48.0546 14.4164,48.0546 16.6007,45.8703 29.7065,40.1911 72.0819,30.1433 83.0034,31.4539 92.1775,34.0751 97.4198,37.57" stroke="#ffe500" stroke-width="2" /><polyline fill="none" points="18.785,46.744 16.6007,46.744 12.6689,42.3754 8.7372,28.8328 10.4846,24.0273 17.0375,16.6007 20.9693,17.9113 33.6382,33.6382 38.4437,36.6962" stroke="#ffa600" stroke-width="2" /><polyline fill="none" points="75.1399,29.7065 78.198,27.0853 89.1195,10.9215 93.0512,8.7372 93.9249,11.3584 94.3618,26.6485 91.7406,41.5017" stroke="#ff6700" stroke-width="2" /><polyline fill="none" points="23.5904,51.9863 8.7372,60.7235" stroke="#ff2800" stroke-width="2" /><polyline fill="none" points="45.4334,51.9863 36.6962,54.6075 35.8225,60.7235 37.1331,67.2765 40.628,67.2765 42.8123,65.0922 45.4334,57.6655 45.4334,53.2969 43.686,50.2389 37.1331,45.8703" stroke="#cc0000" stroke-width="2" /><polyline fill="none" points="77.3242,49.802 71.6451,48.0546 67.2765,48.9283 67.2765,56.3549 69.8976,61.5973 73.3925,64.6553 77.7611,65.0922 82.1297,62.9078 85.1877,57.6655 86.0614,51.5495 83.8771,44.9966 75.1399,35.3857 71.2082,33.6382" stroke="#7f0000" stroke-width="2" /></svg>