<?xml version="1.0" encoding="utf-8" ?>
<svg baseProfile="tiny" height="128" version="1.2" viewBox="0,0,128,128" width="128" xmlns="http://www.w3.org/2000/svg" xmlns:ev="http://www.w3.org/2001/xml-events" xmlns:xlink="http://www.w3.org/1999/xlink"><defs /><polyline fill="none" points="44.6915,33.4102 29.0712,37.3153 14.3186,49.0305 9.9797,57.2746 8.678,69.8576 12.1492,80.7051 18.2237,89.3831 22.9966,93.2881 32.1085,98.061 39.0508,100.2305 52.5017,100.6644 74.1966,88.9492 84.6102,78.5356 89.8169,67.6881 91.5525,58.5763 89.8169,36.0136 86.3458,30.8068 76.8,29.0712 44.6915,29.939 37.3153,32.9763 37.3153,35.5797" stroke="#00007f" stroke-width="2" /><polyline fill="none" points="19.9593,41.6542 31.2407,25.1661 33.4102,19.0915 34.278,8.678 38.1831,18.6576 44.6915,28.2034" stroke="#0028ff" stroke-width="2" /><polyline fill="none" points="82.4407,31.2407 111.078,20.3932 116.7186,15.6203 119.322,10.4136 102.4,30.8068 89.8169,49.4644" stroke="#00d4ff" stroke-width="2" /><polyline fill="none" points="49.8983,56.8407 45.1254,64.2169 54.2373,63.3492 51.2,54.2373 47.7288,56.4068" stroke="#7cff79" stroke-width="2" /><polyline fill="none" points="31.2407,49.8983 32.5424,46.861 36.8814,45.1254 47.7288,44.6915" stroke="#ffe500" stroke-width="2" /><polyline fill="none" points="72.461,46.861 82.4407,45.1254 81.139,47.7288" stroke="#ff4600" stroke-width="2" /><polyline fill="none" points="53.3695,82.0068 78.5356,72.0271" stroke="#7f0000" stroke-width="2" /></svg>