<?xml version="1.0" encoding="utf-8" ?>
<svg baseProfile="tiny" height="128" version="1.2" viewBox="0,0,128,128" width="128" xmlns="http://www.w3.org/2000/svg" xmlns:ev="http://www.w3.org/2001/xml-events" xmlns:xlink="http://www.w3.org/1999/xlink"><defs /><polyline fill="none" points="17.3559,37.3153 9.5458,59.878 8.678,79.4034 10.8475,88.9492 12.5831,91.5525 30.8068,107.1729 46.861,114.9831 83.3085,115.8508 94.5898,110.6441 111.9458,95.0237 119.322,67.6881 119.322,49.8983 117.5864,45.1254 101.5322,39.4847 89.3831,37.3153" stroke="#00007f" stroke-width="2" /><polyline fill="none" points="92.8542,37.3153 102.8339,26.4678 110.6441,14.3186 113.2475,31.6746 113.2475,46.4271 112.3797,48.1627" stroke="#0000de" stroke-width="2" /><polyline fill="none" points="43.8237,32.1085 23.8644,8.678 23.4305,42.9559" stroke="#0028ff" stroke-width="2" /><polyline fill="none" points="17.3559,39.4847 19.0915,38.6169 59.0102,37.3153 81.5729,37.7492 86.7797,38.6169" stroke="#0080ff" stroke-width="2" /><polyline fill="none" points="43.3898,47.7288 41.2203,52.9356 40.7864,58.1424 44.6915,60.7458 49.8983,60.3119 56.4068,55.9729 59.4441,53.3695 59.0102,51.2 55.9729,49.0305 36.4475,49.0305 39.9186,54.2373 49.0305,57.7085" stroke="#00d4ff" stroke-width="2" /><polyline fill="none" points="83.7424,50.7661 78.1017,56.8407 77.6678,67.2542 79.8373,68.122 95.8915,67.6881 98.4949,65.9525 98.4949,63.3492 96.3254,55.539 92.8542,50.3322 85.9119,47.7288 79.8373,47.7288 75.4983,52.0678" stroke="#36ffc0" stroke-width="2" /><polyline fill="none" points="37.7492,85.9119 40.7864,88.0814 49.0305,90.6847 76.8,90.6847" stroke="#7cff79" stroke-width="2" /><polyline fill="none" points="77.2339,80.2712 85.0441,82.8746 90.6847,82.8746 92.4203,84.6102" stroke="#c0ff36" stroke-width="2" /><polyline fill="none" points="80.2712,76.3661 95.0237,74.6305" stroke="#ffe500" stroke-width="2" /><polyline fill="none" points="88.0814,72.461 93.2881,68.9898" stroke="#ff9400" stroke-width="2" /><polyline fill="none" points="46.4271,74.6305 35.5797,66.3864 28.2034,63.7831" stroke="#ff4600" stroke-width="2" /><polyline fill="none" points="42.522,75.0644 33.8441,77.2339" stroke="#de0000" stroke-width="2" /><polyline fill="none" points="39.9186,78.9695 30.8068,85.9119" stroke="#7f0000" stroke-width="2" /></svg>