<?xml version="1.0" encoding="utf-8" ?>
<svg baseProfile="tiny" height="128" version="1.2" viewBox="0,0,128,128" width="128" xmlns="http://www.w3.org/2000/svg" xmlns:ev="http://www.w3.org/2001/xml-events" xmlns:xlink="http://www.w3.org/1999/xlink"><defs /><polyline fill="none" points="21.6949,29.939 11.7153,42.0881 8.678,59.0102 8.678,72.0271 10.4136,78.9695 19.5254,94.5898 22.5627,97.1932 55.539,95.8915 66.8203,92.4203 76.8,84.6102 81.139,77.6678 84.1763,62.9153 83.7424,48.5966 77.2339,40.3525 59.0102,28.2034 36.8814,21.261 25.1661,22.9966 20.8271,28.2034 18.2237,34.7119" stroke="#00007f" stroke-width="2" /><polyline fill="none" points="14.7525,34.7119 11.7153,14.7525 9.5458,8.678 25.1661,15.6203 31.6746,21.6949" stroke="#0000fe" stroke-width="2" /><polyline fill="none" points="49.8983,22.1288 64.6508,12.1492 67.2542,11.2814 68.9898,21.261 68.9898,34.7119" stroke="#0060ff" stroke-width="2" /><polyline fill="none" points="49.8983,22.1288 47.7288,23.4305" stroke="#00d4ff" stroke-width="2" /><polyline fill="none" points="20.3932,47.7288 20.8271,47.7288" stroke="#4cffaa" stroke-width="2" /><polyline fill="none" points="49.0305,42.522 50.3322,42.0881" stroke="#aaff4c" stroke-width="2" /><polyline fill="none" points="35.1458,61.6136 46.861,59.878 44.6915,65.9525 39.0508,65.9525 33.4102,62.0475" stroke="#ffe500" stroke-width="2" /><polyline fill="none" points="24.2983,69.4237 28.2034,75.0644 31.6746,75.4983 35.1458,75.4983 38.6169,73.7627 42.0881,69.4237 42.522,66.3864 42.522,70.2915 46.4271,73.7627 59.878,72.0271 61.1797,71.1593 62.0475,62.0475 60.3119,57.7085" stroke="#ff7a00" stroke-width="2" /><polyline fill="none" points="111.5119,64.2169 106.3051,51.6339 111.5119,52.9356 116.2847,61.6136" stroke="#fe1200" stroke-width="2" /><polyline fill="none" points="119.322,57.7085 117.1525,54.6712 117.1525,59.0102 118.8881,59.878" stroke="#7f0000" stroke-width="2" /></svg>