<?xml version="1.0" encoding="utf-8" ?>
<svg baseProfile="tiny" height="128" version="1.2" viewBox="0,0,128,128" width="128" xmlns="http://www.w3.org/2000/svg" xmlns:ev="http://www.w3.org/2001/xml-events" xmlns:xlink="http://www.w3.org/1999/xlink"><defs /><polyline fill="none" points="81.139,46.4271 81.5729,54.6712 88.0814,66.8203 93.2881,73.3288 98.4949,74.6305 102.4,71.5932 116.7186,46.4271 116.7186,41.2203 105.0034,30.3729 93.722,29.0712 89.8169,30.8068 79.8373,42.0881 75.9322,27.7695 75.0644,13.0169 82.4407,15.6203 98.9288,30.3729" stroke="#00007f" stroke-width="2" /><polyline fill="none" points="105.8712,30.3729 118.4542,22.1288 119.322,24.7322 118.0203,29.939 114.1153,39.4847" stroke="#0028ff" stroke-width="2" /><polyline fill="none" points="94.5898,44.2576 94.5898,44.2576" stroke="#00d4ff" stroke-width="2" /><polyline fill="none" points="82.4407,58.5763 41.2203,58.5763 38.1831,60.3119 31.6746,68.5559 30.3729,72.0271 30.8068,76.8 34.278,78.1017 42.522,78.5356 109.3424,78.5356" stroke="#7cff79" stroke-width="2" /><polyline fill="none" points="32.1085,59.878 18.2237,54.6712 13.4508,51.2 10.4136,45.9932 8.678,38.6169 8.678,25.6 16.4881,8.678" stroke="#ffe500" stroke-width="2" /><polyline fill="none" points="42.522,78.5356 42.522,102.4" stroke="#ff4600" stroke-width="2" /><polyline fill="none" points="86.3458,80.7051 86.3458,102.4" stroke="#7f0000" stroke-width="2" /></svg>