<?xml version="1.0" encoding="utf-8" ?>
<svg baseProfile="tiny" height="128" version="1.2" viewBox="0,0,128,128" width="128" xmlns="http://www.w3.org/2000/svg" xmlns:ev="http://www.w3.org/2001/xml-events" xmlns:xlink="http://www.w3.org/1999/xlink"><defs /><polyline fill="none" points="30.3729,47.7288 28.6373,54.2373 28.2034,63.7831 29.0712,68.5559 31.2407,71.5932" stroke="#00007f" stroke-width="2" /><polyline fill="none" points="37.3153,44.2576 32.9763,47.2949 29.0712,55.1051 26.0339,72.461 26.4678,82.4407 28.2034,87.6475 32.5424,91.9864 36.8814,92.8542" stroke="#0000a3" stroke-width="2" /><polyline fill="none" points="32.1085,67.6881 29.5051,76.3661 29.939,83.7424 33.8441,92.4203 39.0508,98.4949" stroke="#0000c8" stroke-width="2" /><polyline fill="none" points="35.1458,87.2136 36.4475,91.5525 47.2949,106.3051" stroke="#0000ec" stroke-width="2" /><polyline fill="none" points="39.9186,102.4 46.4271,107.6068 52.9356,109.3424" stroke="#0004ff" stroke-width="2" /><polyline fill="none" points="51.6339,108.4746 59.878,114.1153 63.7831,114.5492" stroke="#0024ff" stroke-width="2" /><polyline fill="none" points="65.5186,113.6814 74.1966,116.2847 83.7424,116.2847 89.3831,114.5492" stroke="#0044ff" stroke-width="2" /><polyline fill="none" points="99.3627,106.3051 108.4746,98.9288 111.078,92.8542" stroke="#0064ff" stroke-width="2" /><polyline fill="none" points="110.2102,68.122 110.6441,90.2508 105.4373,101.0983 96.3254,110.6441 80.2712,119.322 91.1186,114.1153 99.7966,108.0407 110.6441,92.8542 111.5119,82.4407 107.6068,65.9525" stroke="#0088ff" stroke-width="2" /><polyline fill="none" points="106.3051,63.7831 104.1356,44.2576" stroke="#00a8ff" stroke-width="2" /><polyline fill="none" points="102.8339,47.7288 93.2881,39.4847" stroke="#00c8ff" stroke-width="2" /><polyline fill="none" points="94.1559,41.2203 101.9661,47.7288 106.739,55.1051 108.4746,60.7458 108.4746,68.122 107.1729,72.461 104.1356,75.9322 104.1356,65.5186" stroke="#02e8f4" stroke-width="2" /><polyline fill="none" points="104.5695,51.2 104.5695,45.9932" stroke="#1fffd7" stroke-width="2" /><polyline fill="none" points="99.7966,30.3729 98.9288,26.0339" stroke="#39ffbd" stroke-width="2" /><polyline fill="none" points="96.3254,21.6949 93.722,16.4881 91.1186,14.7525" stroke="#53ffa3" stroke-width="2" /><polyline fill="none" points="92.8542,18.2237 93.722,23.4305 92.8542,40.3525 94.5898,25.6 92.4203,19.5254 85.9119,10.4136" stroke="#6cff89" stroke-width="2" /><polyline fill="none" points="86.7797,14.3186 83.7424,22.9966 79.4034,29.0712" stroke="#89ff6c" stroke-width="2" /><polyline fill="none" points="82.4407,23.4305 76.3661,36.0136" stroke="#a3ff53" stroke-width="2" /><polyline fill="none" points="74.1966,37.3153 79.8373,29.5051 83.7424,19.0915 82.0068,20.3932 73.3288,37.3153 67.6881,40.7864 59.4441,42.522" stroke="#bdff39" stroke-width="2" /><polyline fill="none" points="61.1797,41.2203 56.8407,39.9186 50.7661,35.1458" stroke="#d7ff1f" stroke-width="2" /><polyline fill="none" points="47.7288,32.9763 43.8237,23.4305" stroke="#f4f802" stroke-width="2" /><polyline fill="none" points="42.0881,10.4136 40.7864,8.678 39.0508,9.9797 36.4475,15.1864 34.278,24.2983 33.8441,37.3153 37.3153,15.6203" stroke="#ffda00" stroke-width="2" /><polyline fill="none" points="40.3525,37.3153 41.2203,24.7322 44.2576,32.9763 47.2949,36.4475 43.3898,35.1458" stroke="#ffbd00" stroke-width="2" /><polyline fill="none" points="83.7424,37.7492 86.3458,31.6746 87.2136,24.7322 88.0814,33.4102 82.8746,35.1458" stroke="#ff9f00" stroke-width="2" /><polyline fill="none" points="96.3254,68.5559 105.8712,68.5559 119.322,65.0847" stroke="#ff7e00" stroke-width="2" /><polyline fill="none" points="96.7593,79.4034 107.1729,78.9695 108.4746,79.8373" stroke="#ff6000" stroke-width="2" /><polyline fill="none" points="103.2678,86.7797 113.2475,85.9119" stroke="#ff4200" stroke-width="2" /><polyline fill="none" points="43.8237,81.139 22.5627,78.9695 11.2814,78.5356 8.678,78.9695 15.1864,79.4034" stroke="#ff2500" stroke-width="2" /><polyline fill="none" points="33.4102,85.478 43.3898,85.478 45.1254,85.0441 42.9559,84.1763 37.7492,84.6102 24.2983,87.2136" stroke="#ec0300" stroke-width="2" /><polyline fill="none" points="52.9356,90.2508 57.2746,90.2508 43.3898,92.8542 30.8068,98.4949" stroke="#c80000" stroke-width="2" /><polyline fill="none" points="72.8949,76.3661 69.8576,85.478 86.3458,84.6102 77.6678,75.0644 75.9322,74.1966 74.1966,75.0644" stroke="#a30000" stroke-width="2" /><polyline fill="none" points="75.4983,82.8746 76.3661,89.3831 74.1966,92.8542 68.122,95.4576 66.3864,94.1559 66.8203,89.3831" stroke="#7f0000" stroke-width="2" /></svg>