<?xml version="1.0" encoding="utf-8" ?>
<svg baseProfile="tiny" height="128" version="1.2" viewBox="0,0,128,128" width="128" xmlns="http://www.w3.org/2000/svg" xmlns:ev="http://www.w3.org/2001/xml-events" xmlns:xlink="http://www.w3.org/1999/xlink"><defs /><polyline fill="none" points="40.3525,118.4542 37.7492,119.322 34.278,117.5864 20.8271,107.1729 10.8475,96.3254 9.5458,91.9864 8.678,80.2712 12.5831,65.9525 17.7898,59.4441 27.7695,52.9356" stroke="#00007f" stroke-width="2" /><polyline fill="none" points="19.5254,56.4068 18.2237,51.2 15.6203,16.922 15.6203,9.5458 18.2237,8.678 35.5797,19.5254 42.9559,26.4678 51.6339,38.1831 56.4068,53.8034" stroke="#0000f1" stroke-width="2" /><polyline fill="none" points="51.2,42.9559 53.8034,41.2203 62.0475,40.7864 74.6305,44.2576 82.0068,48.1627 89.3831,59.0102" stroke="#004cff" stroke-width="2" /><polyline fill="none" points="78.5356,42.0881 86.3458,36.0136 94.5898,21.261 101.9661,16.922 102.8339,20.3932 101.9661,38.1831 95.8915,58.1424 93.722,62.4814" stroke="#00b0ff" stroke-width="2" /><polyline fill="none" points="89.3831,59.0102 93.722,62.9153 97.1932,68.5559 98.4949,78.1017 92.4203,101.0983 85.9119,111.078" stroke="#29ffcd" stroke-width="2" /><polyline fill="none" points="65.9525,89.8169 55.539,91.1186 52.9356,88.5153 49.0305,87.2136" stroke="#7cff79" stroke-width="2" /><polyline fill="none" points="59.4441,91.9864 58.1424,97.1932 55.1051,98.4949" stroke="#cdff29" stroke-width="2" /><polyline fill="none" points="68.5559,94.1559 62.0475,98.9288" stroke="#ffc400" stroke-width="2" /><polyline fill="none" points="74.1966,88.5153 77.6678,96.3254 82.8746,100.6644" stroke="#ff6700" stroke-width="2" /><polyline fill="none" points="76.8,87.2136 85.0441,84.1763" stroke="#f10700" stroke-width="2" /><polyline fill="none" points="54.6712,70.7254 47.2949,70.7254" stroke="#7f0000" stroke-width="2" /></svg>