<?xml version="1.0" encoding="utf-8" ?>
<svg baseProfile="tiny" height="128" version="1.2" viewBox="0,0,128,128" width="128" xmlns="http://www.w3.org/2000/svg" xmlns:ev="http://www.w3.org/2001/xml-events" xmlns:xlink="http://www.w3.org/1999/xlink"><defs /><polyline fill="none" points="12.1492,65.5186 15.1864,58.1424 16.922,47.2949 18.2237,15.1864 26.0339,23.4305 48.1627,65.5186" stroke="#00007f" stroke-width="2" /><polyline fill="none" points="88.9492,29.5051 91.1186,20.8271 92.8542,22.1288" stroke="#0028ff" stroke-width="2" /><polyline fill="none" points="79.4034,59.0102 81.5729,52.0678 92.8542,34.7119 98.4949,22.9966 100.2305,8.678 105.0034,52.5017 107.6068,61.6136" stroke="#00d4ff" stroke-width="2" /><polyline fill="none" points="106.739,62.0475 100.6644,59.0102 81.139,54.6712 42.522,52.5017 20.8271,58.1424 13.4508,65.0847 9.1119,72.0271 8.678,86.7797 10.8475,94.5898 14.3186,99.3627 19.9593,104.1356 36.0136,111.5119 59.0102,119.322 70.2915,119.322 77.6678,117.1525 82.4407,115.4169 88.9492,110.2102 103.7017,90.6847 108.0407,79.4034 109.7763,72.0271 108.9085,63.7831 108.0407,61.6136 104.5695,62.0475" stroke="#7cff79" stroke-width="2" /><polyline fill="none" points="32.1085,72.461 32.1085,74.6305 33.8441,75.9322 36.0136,70.2915" stroke="#ffe500" stroke-width="2" /><polyline fill="none" points="71.5932,79.4034 69.8576,82.8746 71.5932,83.3085 71.5932,78.5356" stroke="#ff4600" stroke-width="2" /><polyline fill="none" points="51.6339,94.1559 61.6136,94.1559 60.7458,95.8915 56.4068,97.1932 51.2,95.4576" stroke="#7f0000" stroke-width="2" /></svg>