<?xml version="1.0" encoding="utf-8" ?>
<svg baseProfile="tiny" height="128" version="1.2" viewBox="0,0,128,128" width="128" xmlns="http://www.w3.org/2000/svg" xmlns:ev="http://www.w3.org/2001/xml-events" xmlns:xlink="http://www.w3.org/1999/xlink"><defs /><polyline fill="none" points="71.5932,39.0508 65.0847,36.8814 50.7661,36.0136 42.522,36.0136 31.2407,38.1831 22.5627,37.7492 19.5254,35.1458 16.0542,19.5254 10.8475,9.5458" stroke="#00007f" stroke-width="2" /><polyline fill="none" points="10.8475,9.1119 9.1119,10.4136 8.678,17.7898 12.1492,37.7492 21.261,52.0678 29.939,78.9695 32.9763,81.5729 37.7492,80.7051 39.4847,66.3864 38.1831,52.0678 39.4847,48.5966 41.6542,50.7661 45.1254,59.878 45.5593,66.3864 42.9559,81.139 43.8237,87.2136 45.5593,86.3458 48.1627,79.8373 52.9356,50.3322 55.1051,51.6339 56.8407,56.4068 55.9729,75.0644 57.7085,78.9695 61.1797,78.1017 65.0847,71.1593 65.9525,56.8407 67.6881,53.3695 69.4237,52.9356 73.7627,57.2746 78.5356,81.5729 79.4034,83.3085 84.1763,83.7424 87.6475,81.5729 88.9492,76.8 91.5525,54.6712 91.1186,49.0305 106.3051,43.8237 112.3797,39.9186 115.8508,35.1458 115.8508,26.9017 112.8136,21.6949 107.1729,19.5254 97.1932,19.0915 86.3458,24.2983 78.5356,29.0712 75.4983,36.4475 72.8949,38.1831 71.1593,39.0508 70.2915,37.3153" stroke="#0028ff" stroke-width="2" /><polyline fill="none" points="85.9119,24.7322 85.478,17.7898 87.2136,8.678 93.722,20.8271" stroke="#00d4ff" stroke-width="2" /><polyline fill="none" points="108.4746,16.922 110.2102,18.6576 117.1525,12.1492 119.322,18.2237 118.4542,24.2983" stroke="#7cff79" stroke-width="2" /><polyline fill="none" points="95.8915,31.2407 95.8915,31.2407" stroke="#ffe500" stroke-width="2" /><polyline fill="none" points="108.4746,26.9017 108.4746,26.9017" stroke="#ff4600" stroke-width="2" /><polyline fill="none" points="97.6271,31.2407 97.6271,31.2407" stroke="#7f0000" stroke-width="2" /></svg>