<?xml version="1.0" encoding="utf-8" ?>
<svg baseProfile="tiny" height="128" version="1.2" viewBox="0,0,128,128" width="128" xmlns="http://www.w3.org/2000/svg" xmlns:ev="http://www.w3.org/2001/xml-events" xmlns:xlink="http://www.w3.org/1999/xlink"><defs /><polyline fill="none" points="25.1661,44.2576 22.1288,32.9763 22.1288,23.8644 22.9966,23.4305 38.6169,35.5797 46.4271,29.939 54.6712,27.3356 62.4814,27.3356 74.6305,32.9763 84.1763,17.3559 95.4576,8.678 96.7593,10.4136 96.3254,29.0712 104.1356,30.3729 108.0407,34.278 111.9458,43.3898 112.8136,52.5017 110.6441,60.7458 105.0034,68.5559 88.9492,79.4034 68.9898,86.3458 46.4271,89.3831 31.2407,86.3458 21.261,79.4034 15.6203,72.461 13.4508,64.6508 15.6203,56.4068 19.5254,51.2 25.1661,47.2949" stroke="#00007f" stroke-width="2" /><polyline fill="none" points="47.7288,50.3322 49.0305,51.6339" stroke="#0000e8" stroke-width="2" /><polyline fill="none" points="73.3288,51.6339 73.7627,51.6339" stroke="#0038ff" stroke-width="2" /><polyline fill="none" points="59.4441,61.1797 59.878,66.3864 56.8407,72.8949 53.8034,75.9322 51.6339,76.3661" stroke="#0094ff" stroke-width="2" /><polyline fill="none" points="62.4814,62.0475 65.9525,68.122 69.4237,71.1593 72.8949,71.5932 75.9322,69.4237" stroke="#0cf4ea" stroke-width="2" /><polyline fill="none" points="60.3119,61.6136 54.2373,59.4441 57.2746,57.2746 64.2169,57.2746 60.3119,61.6136" stroke="#56ffa0" stroke-width="2" /><polyline fill="none" points="8.678,67.2542 39.4847,59.4441" stroke="#a0ff56" stroke-width="2" /><polyline fill="none" points="15.6203,73.7627 39.0508,63.7831" stroke="#eaff0c" stroke-width="2" /><polyline fill="none" points="16.4881,79.8373 51.6339,63.7831" stroke="#ffaa00" stroke-width="2" /><polyline fill="none" points="83.3085,54.6712 113.2475,48.5966" stroke="#ff5500" stroke-width="2" /><polyline fill="none" points="81.5729,60.3119 116.2847,58.5763" stroke="#e80000" stroke-width="2" /><polyline fill="none" points="83.3085,64.6508 119.322,64.6508" stroke="#7f0000" stroke-width="2" /></svg>