<?xml version="1.0" encoding="utf-8" ?>
<svg baseProfile="tiny" height="128" version="1.2" viewBox="0,0,128,128" width="128" xmlns="http://www.w3.org/2000/svg" xmlns:ev="http://www.w3.org/2001/xml-events" xmlns:xlink="http://www.w3.org/1999/xlink"><defs /><polyline fill="none" points="37.7492,23.4305 39.0508,9.9797 41.6542,9.1119 53.8034,25.6" stroke="#00007f" stroke-width="2" /><polyline fill="none" points="70.2915,25.1661 77.6678,8.678 85.9119,24.7322" stroke="#0000e8" stroke-width="2" /><polyline fill="none" points="68.9898,25.1661 55.1051,27.7695" stroke="#0038ff" stroke-width="2" /><polyline fill="none" points="35.1458,25.1661 35.5797,45.9932 39.9186,54.6712 54.6712,67.6881 68.122,70.7254 75.4983,70.7254 81.139,66.8203 87.2136,59.4441 91.9864,48.5966 94.1559,39.0508 94.1559,30.3729 90.6847,22.1288" stroke="#0094ff" stroke-width="2" /><polyline fill="none" points="55.539,35.5797 51.2,36.4475 48.5966,38.1831 47.2949,40.7864 47.7288,45.5593 58.5763,46.4271 61.6136,45.5593 62.9153,40.7864 62.0475,38.6169 59.4441,37.3153" stroke="#0cf4ea" stroke-width="2" /><polyline fill="none" points="87.6475,37.7492 74.6305,35.5797 72.0271,37.3153 71.5932,42.0881 77.6678,44.2576 83.3085,44.2576 85.0441,39.9186 79.4034,36.8814" stroke="#56ffa0" stroke-width="2" /><polyline fill="none" points="62.0475,51.2 61.1797,55.539 63.3492,57.2746 69.4237,56.4068 72.0271,54.6712 72.461,52.5017 68.9898,47.2949" stroke="#a0ff56" stroke-width="2" /><polyline fill="none" points="61.1797,62.0475 49.4644,61.1797 20.8271,54.6712 12.1492,55.539 9.1119,57.7085 8.678,60.7458" stroke="#eaff0c" stroke-width="2" /><polyline fill="none" points="68.9898,62.4814 109.7763,45.9932 118.4542,44.6915" stroke="#ffaa00" stroke-width="2" /><polyline fill="none" points="66.3864,66.8203 38.1831,71.1593 33.4102,72.8949 28.2034,78.9695" stroke="#ff5500" stroke-width="2" /><polyline fill="none" points="65.5186,66.8203 101.0983,68.122 119.322,71.1593" stroke="#e80000" stroke-width="2" /><polyline fill="none" points="65.9525,62.4814 61.1797,67.2542 54.2373,70.7254 45.9932,73.3288 38.1831,77.2339 31.2407,85.478 29.5051,90.6847" stroke="#7f0000" stroke-width="2" /></svg>