<?xml version="1.0" encoding="utf-8" ?>
<svg baseProfile="tiny" height="128" version="1.2" viewBox="0,0,128,128" width="128" xmlns="http://www.w3.org/2000/svg" xmlns:ev="http://www.w3.org/2001/xml-events" xmlns:xlink="http://www.w3.org/1999/xlink"><defs /><polyline fill="none" points="111.9458,29.939 102.8339,24.7322 97.6271,24.7322 92.8542,26.9017 86.7797,32.9763 83.7424,39.0508 82.8746,45.1254 85.478,47.7288 90.6847,48.5966 98.061,45.9932 106.3051,37.7492 106.739,32.9763 103.2678,26.4678 98.9288,22.9966 95.0237,22.1288" stroke="#00007f" stroke-width="2" /><polyline fill="none" points="82.0068,34.7119 75.0644,30.3729 59.4441,27.7695 43.8237,27.7695 33.8441,29.939 25.1661,35.5797 20.8271,42.522 20.8271,45.1254 23.8644,49.4644 30.8068,53.8034 42.9559,56.8407 62.4814,57.7085 75.4983,55.9729 83.3085,52.9356 87.2136,49.8983 89.8169,45.5593 89.3831,39.4847 86.7797,36.0136 80.2712,32.1085 70.7254,29.5051" stroke="#0028ff" stroke-width="2" /><polyline fill="none" points="32.9763,50.7661 31.6746,50.3322 30.8068,53.8034 30.3729,65.0847 32.9763,72.461 37.3153,77.2339 47.2949,78.9695 68.122,75.4983" stroke="#00d4ff" stroke-width="2" /><polyline fill="none" points="75.9322,55.9729 73.7627,57.7085 72.0271,65.0847 72.0271,71.1593 74.1966,75.9322 79.4034,77.6678 84.6102,77.2339 89.3831,74.6305 91.5525,70.2915" stroke="#7cff79" stroke-width="2" /><polyline fill="none" points="25.1661,39.9186 20.8271,40.7864 17.7898,43.3898 9.9797,52.9356 8.678,62.0475 9.5458,65.5186 12.5831,66.8203" stroke="#ffe500" stroke-width="2" /><polyline fill="none" points="89.8169,27.7695 88.5153,25.1661 88.9492,18.6576 94.5898,8.678 95.4576,8.678 98.4949,24.7322" stroke="#ff4600" stroke-width="2" /><polyline fill="none" points="103.2678,26.4678 102.8339,25.6 104.5695,24.2983 119.322,16.922 108.9085,30.8068" stroke="#7f0000" stroke-width="2" /></svg>