<?xml version="1.0" encoding="utf-8" ?>
<svg baseProfile="tiny" height="128" version="1.2" viewBox="0,0,128,128" width="128" xmlns="http://www.w3.org/2000/svg" xmlns:ev="http://www.w3.org/2001/xml-events" xmlns:xlink="http://www.w3.org/1999/xlink"><defs /><polyline fill="none" points="46.4271,22.5627 40.3525,24.7322 32.9763,32.5424 21.6949,60.7458 19.0915,68.9898 19.9593,71.5932 33.4102,83.3085 39.9186,86.3458 49.4644,86.7797 52.9356,85.9119 74.1966,71.1593 79.4034,61.6136 82.4407,48.1627 82.4407,36.8814 78.9695,21.6949 74.1966,18.2237 59.4441,15.6203 53.8034,16.0542 47.7288,23.8644 44.6915,24.7322" stroke="#00007f" stroke-width="2" /><polyline fill="none" points="25.6,39.0508 22.1288,20.8271 16.922,9.9797 22.1288,8.678 40.7864,23.8644" stroke="#0000f1" stroke-width="2" /><polyline fill="none" points="74.1966,18.2237 85.478,16.0542 90.6847,9.1119 91.1186,11.2814 91.1186,26.0339 89.3831,29.5051 86.3458,48.5966 80.2712,59.4441 80.2712,62.9153" stroke="#004cff" stroke-width="2" /><polyline fill="none" points="44.6915,41.2203 44.6915,41.2203" stroke="#00b0ff" stroke-width="2" /><polyline fill="none" points="71.5932,44.2576 71.5932,44.2576" stroke="#29ffcd" stroke-width="2" /><polyline fill="none" points="47.2949,50.7661 52.0678,55.1051 54.6712,53.3695 55.9729,50.3322 48.1627,49.8983" stroke="#7cff79" stroke-width="2" /><polyline fill="none" points="38.1831,48.1627 21.6949,48.5966" stroke="#cdff29" stroke-width="2" /><polyline fill="none" points="38.6169,59.4441 38.6169,59.4441" stroke="#ffc400" stroke-width="2" /><polyline fill="none" points="38.6169,59.4441 29.5051,64.6508 22.5627,73.3288 12.5831,79.4034 8.678,83.7424" stroke="#ff6700" stroke-width="2" /><polyline fill="none" points="70.7254,45.5593 99.7966,39.0508 119.322,38.1831" stroke="#f10700" stroke-width="2" /><polyline fill="none" points="70.7254,56.4068 84.6102,54.6712 106.3051,62.0475" stroke="#7f0000" stroke-width="2" /></svg>