<?xml version="1.0" encoding="utf-8" ?>
<svg baseProfile="tiny" height="128" version="1.2" viewBox="0,0,128,128" width="128" xmlns="http://www.w3.org/2000/svg" xmlns:ev="http://www.w3.org/2001/xml-events" xmlns:xlink="http://www.w3.org/1999/xlink"><defs /><polyline fill="none" points="51.6339,26.0339 47.7288,25.6 41.6542,28.2034 32.1085,33.4102 29.5051,37.3153 29.5051,43.3898 33.4102,55.539 39.4847,64.2169 46.861,70.2915 58.5763,76.3661 70.7254,77.2339 76.3661,75.9322 86.7797,66.8203 93.722,54.2373 94.5898,45.5593 93.722,36.4475 88.0814,27.3356 78.5356,20.8271 59.0102,19.5254 48.1627,21.261 42.0881,23.4305" stroke="#00007f" stroke-width="2" /><polyline fill="none" points="81.139,18.6576 95.4576,8.678 95.8915,15.6203 93.2881,28.2034" stroke="#0000de" stroke-width="2" /><polyline fill="none" points="41.6542,24.7322 30.3729,13.8847 32.5424,31.2407" stroke="#0028ff" stroke-width="2" /><polyline fill="none" points="46.861,30.8068 46.861,33.4102 48.5966,35.1458 50.3322,32.5424 48.1627,30.3729 47.2949,32.5424" stroke="#0080ff" stroke-width="2" /><polyline fill="none" points="77.6678,31.2407 77.2339,33.4102 79.8373,33.4102 77.6678,30.8068" stroke="#00d4ff" stroke-width="2" /><polyline fill="none" points="55.9729,51.6339 76.3661,51.2 71.5932,61.6136 64.2169,59.0102 57.2746,52.5017" stroke="#36ffc0" stroke-width="2" /><polyline fill="none" points="70.2915,61.1797 68.122,65.9525 57.7085,75.0644 48.5966,79.4034 44.2576,79.4034 38.1831,75.0644 36.4475,66.8203 40.3525,58.5763 44.6915,56.8407" stroke="#7cff79" stroke-width="2" /><polyline fill="none" points="70.2915,62.0475 74.6305,69.4237 79.4034,68.9898 84.6102,63.7831 87.2136,58.1424 87.6475,54.2373 86.3458,51.2" stroke="#c0ff36" stroke-width="2" /><polyline fill="none" points="83.7424,44.6915 96.7593,42.9559 119.322,41.6542" stroke="#ffe500" stroke-width="2" /><polyline fill="none" points="88.5153,50.3322 105.4373,49.8983 113.6814,51.2" stroke="#ff9400" stroke-width="2" /><polyline fill="none" points="96.7593,57.2746 111.9458,59.878" stroke="#ff4600" stroke-width="2" /><polyline fill="none" points="37.3153,52.0678 8.678,52.5017" stroke="#de0000" stroke-width="2" /><polyline fill="none" points="40.7864,54.6712 23.8644,59.878 19.0915,62.4814" stroke="#7f0000" stroke-width="2" /></svg>