<?xml version="1.0" encoding="utf-8" ?>
<svg baseProfile="tiny" height="128" version="1.2" viewBox="0,0,128,128" width="128" xmlns="http://www.w3.org/2000/svg" xmlns:ev="http://www.w3.org/2001/xml-events" xmlns:xlink="http://www.w3.org/1999/xlink"><defs /><polyline fill="none" points="38.1831,114.5492 42.9559,118.0203 48.1627,119.322 57.2746,117.5864 65.9525,112.8136 70.7254,103.7017 74.1966,112.8136 79.8373,118.0203 83.7424,118.4542 97.6271,114.1153 103.2678,109.3424 98.061,107.1729" stroke="#00007f" stroke-width="2" /><polyline fill="none" points="68.9898,79.8373 65.0847,82.0068 58.5763,88.9492 56.8407,95.0237 70.7254,97.1932 72.461,96.7593 76.8,91.1186 76.3661,82.4407 64.2169,77.6678" stroke="#0000e8" stroke-width="2" /><polyline fill="none" points="36.8814,72.0271 32.9763,68.9898 31.6746,61.1797 33.8441,50.7661 38.1831,46.861 50.3322,45.9932 58.1424,52.0678 60.3119,56.4068 59.0102,62.0475 51.2,68.9898 44.2576,68.5559 35.5797,64.2169" stroke="#0038ff" stroke-width="2" /><polyline fill="none" points="86.7797,76.8 70.7254,72.461 67.6881,69.8576 64.2169,64.2169 64.2169,60.3119 68.9898,55.9729 77.6678,52.0678 85.0441,51.2 94.5898,55.9729 96.7593,61.1797 96.7593,68.5559 94.1559,74.1966 91.5525,76.3661 85.478,76.8 76.8,74.1966" stroke="#0094ff" stroke-width="2" /><polyline fill="none" points="79.8373,56.8407 75.9322,68.5559 77.6678,72.461 81.139,63.3492 80.7051,53.8034 79.4034,53.3695" stroke="#0cf4ea" stroke-width="2" /><polyline fill="none" points="43.3898,46.4271 37.3153,57.2746 42.522,62.0475 42.9559,52.9356 40.7864,45.5593 42.9559,42.522" stroke="#56ffa0" stroke-width="2" /><polyline fill="none" points="15.1864,34.278 10.4136,21.6949 8.678,8.678 22.5627,16.0542 31.6746,30.8068" stroke="#a0ff56" stroke-width="2" /><polyline fill="none" points="78.9695,33.4102 87.6475,30.3729 100.2305,20.8271 111.9458,14.7525 114.5492,26.4678 108.4746,44.2576" stroke="#eaff0c" stroke-width="2" /><polyline fill="none" points="44.2576,28.6373 44.2576,28.6373" stroke="#ffaa00" stroke-width="2" /><polyline fill="none" points="44.2576,28.6373 31.6746,31.6746" stroke="#ff5500" stroke-width="2" /><polyline fill="none" points="28.2034,33.4102 24.2983,36.8814" stroke="#e80000" stroke-width="2" /><polyline fill="none" points="30.8068,33.4102 25.6,38.1831 23.4305,42.9559 22.1288,57.7085 18.6576,70.7254" stroke="#7f0000" stroke-width="2" /></svg>