<?xml version="1.0" encoding="utf-8" ?>
<svg baseProfile="tiny" height="128" version="1.2" viewBox="0,0,128,128" width="128" xmlns="http://www.w3.org/2000/svg" xmlns:ev="http://www.w3.org/2001/xml-events" xmlns:xlink="http://www.w3.org/1999/xlink"><defs /><polyline fill="none" points="29.939,65.0847 27.7695,62.0475 27.7695,58.1424 55.1051,33.8441 58.5763,32.1085 64.6508,31.6746 79.4034,50.3322 83.7424,66.8203 79.4034,76.8 74.1966,84.6102 65.0847,112.8136 62.0475,114.9831 50.3322,118.8881 40.7864,119.322 34.278,118.4542 24.2983,114.5492 21.261,111.078 21.261,75.9322 22.9966,69.8576 27.3356,63.3492" stroke="#00007f" stroke-width="2" /><polyline fill="none" points="35.5797,43.3898 28.2034,26.4678 22.5627,24.7322 16.4881,24.7322 13.0169,26.0339" stroke="#0000de" stroke-width="2" /><polyline fill="none" points="12.5831,26.0339 13.0169,36.8814 16.0542,46.4271 22.1288,46.861 30.3729,43.3898" stroke="#0028ff" stroke-width="2" /><polyline fill="none" points="71.1593,36.4475 74.6305,31.2407 84.1763,25.1661 97.1932,23.8644 101.9661,25.6" stroke="#0080ff" stroke-width="2" /><polyline fill="none" points="79.4034,43.8237 82.4407,44.2576 85.9119,42.522 103.7017,21.261 113.6814,13.0169 114.9831,9.9797 113.2475,8.678" stroke="#00d4ff" stroke-width="2" /><polyline fill="none" points="52.5017,81.139 60.7458,79.8373 64.2169,82.0068" stroke="#36ffc0" stroke-width="2" /><polyline fill="none" points="52.5017,87.6475 56.4068,89.8169" stroke="#7cff79" stroke-width="2" /><polyline fill="none" points="50.7661,92.8542 52.0678,95.8915 59.0102,100.2305" stroke="#c0ff36" stroke-width="2" /><polyline fill="none" points="37.7492,79.4034 22.5627,78.9695" stroke="#ffe500" stroke-width="2" /><polyline fill="none" points="34.278,85.9119 26.9017,85.9119 17.7898,80.2712" stroke="#ff9400" stroke-width="2" /><polyline fill="none" points="31.6746,96.7593 29.0712,95.4576 24.7322,98.061 12.1492,98.061 8.678,96.3254" stroke="#ff4600" stroke-width="2" /><polyline fill="none" points="39.4847,55.1051 42.0881,55.1051" stroke="#de0000" stroke-width="2" /><polyline fill="none" points="52.0678,55.9729 52.0678,55.9729" stroke="#7f0000" stroke-width="2" /></svg>