<?xml version="1.0" encoding="utf-8" ?>
<svg baseProfile="tiny" height="128" version="1.2" viewBox="0,0,128,128" width="128" xmlns="http://www.w3.org/2000/svg" xmlns:ev="http://www.w3.org/2001/xml-events" xmlns:xlink="http://www.w3.org/1999/xlink"><defs /><polyline fill="none" points="64.0,22.2041 60.9524,21.3333 54.4218,22.6395 40.0544,33.9592 35.2653,42.2313 32.2177,53.551 31.7823,65.7415 34.8299,77.932 40.9252,88.8163 51.3741,100.1361 58.7755,103.619 69.6599,105.7959 76.6259,104.9252 83.1565,101.0068 88.8163,94.0408 93.1701,84.898 96.2177,75.7551 97.0884,64.8707 95.3469,49.1973 91.8639,38.3129 86.6395,29.1701 80.9796,22.6395 70.966,16.9796 63.1293,15.2381 52.6803,15.2381" stroke="#00007f" stroke-width="2" /><polyline fill="none" points="43.102,27.8639 32.2177,14.3673 25.2517,8.7075 26.1224,23.9456 34.3946,50.068" stroke="#0000d5" stroke-width="2" /><polyline fill="none" points="83.5918,21.7687 97.5238,13.0612 101.4422,11.3197 103.619,11.7551 104.4898,17.8503 101.0068,32.2177 97.0884,40.4898 90.1224,48.3265" stroke="#001cff" stroke-width="2" /><polyline fill="none" points="49.6327,46.1497 50.5034,62.6939" stroke="#006cff" stroke-width="2" /><polyline fill="none" points="75.3197,43.5374 76.1905,50.9388 75.3197,64.0 74.0136,68.3537" stroke="#00b8ff" stroke-width="2" /><polyline fill="none" points="61.8231,62.2585 60.0816,73.5782 63.5646,74.449 68.3537,73.1429 69.6599,68.7891 64.0,59.6463" stroke="#1cffda" stroke-width="2" /><polyline fill="none" points="64.4354,74.0136 60.0816,84.898 53.1156,87.9456" stroke="#5cff9a" stroke-width="2" /><polyline fill="none" points="64.8707,76.6259 74.0136,85.3333 77.0612,85.7687 78.8027,84.0272" stroke="#9aff5c" stroke-width="2" /><polyline fill="none" points="44.8435,68.3537 19.5918,63.1293 10.0136,62.2585 8.7075,63.1293" stroke="#daff1c" stroke-width="2" /><polyline fill="none" points="46.585,77.4966 24.8163,78.8027 18.2857,82.7211" stroke="#ffcb00" stroke-width="2" /><polyline fill="none" points="47.8912,83.1565 33.5238,93.1701 21.3333,112.3265" stroke="#ff8500" stroke-width="2" /><polyline fill="none" points="87.0748,67.9184 107.102,72.7075 111.8912,74.449 113.6327,77.0612" stroke="#ff3b00" stroke-width="2" /><polyline fill="none" points="85.3333,81.8503 97.9592,88.8163 107.5374,95.7823 109.2789,98.3946" stroke="#d50000" stroke-width="2" /><polyline fill="none" points="84.898,92.2993 96.2177,119.2925" stroke="#7f0000" stroke-width="2" /></svg>