<?xml version="1.0" encoding="utf-8" ?>
<svg baseProfile="tiny" height="128" version="1.2" viewBox="0,0,128,128" width="128" xmlns="http://www.w3.org/2000/svg" xmlns:ev="http://www.w3.org/2001/xml-events" xmlns:xlink="http://www.w3.org/1999/xlink"><defs /><polyline fill="none" points="29.0712,49.4644 22.5627,54.6712 14.7525,67.2542 12.1492,74.1966 10.8475,81.5729 11.7153,98.4949 16.4881,108.0407 22.5627,114.5492 29.939,118.0203 38.1831,119.322 48.1627,118.0203 58.1424,111.5119 65.9525,103.7017 73.3288,94.5898 76.8,83.7424 78.1017,75.4983 77.6678,66.8203 70.7254,59.0102 61.6136,54.2373 49.8983,52.5017 27.7695,52.5017 13.0169,59.0102 8.678,65.9525" stroke="#00007f" stroke-width="2" /><polyline fill="none" points="16.4881,55.539 19.0915,35.5797 27.7695,8.678 29.939,13.0169 36.0136,48.5966 38.1831,53.8034 39.4847,53.8034" stroke="#004cff" stroke-width="2" /><polyline fill="none" points="55.1051,49.4644 58.5763,32.1085 62.9153,22.5627 71.5932,9.5458 64.2169,45.1254 65.0847,53.3695" stroke="#29ffcd" stroke-width="2" /><polyline fill="none" points="28.6373,81.5729 29.0712,88.5153 31.6746,95.4576 33.4102,98.061 37.7492,98.9288 41.6542,95.8915 45.1254,83.3085 45.5593,87.6475 48.1627,92.4203 52.0678,92.8542 55.1051,88.9492 59.4441,79.4034 59.4441,72.8949 58.1424,70.2915" stroke="#cdff29" stroke-width="2" /><polyline fill="none" points="32.5424,56.8407 36.0136,71.1593 38.6169,76.3661" stroke="#ff6700" stroke-width="2" /><polyline fill="none" points="47.2949,60.7458 49.8983,71.1593" stroke="#7f0000" stroke-width="2" /></svg>