<?xml version="1.0" encoding="utf-8" ?>
<svg baseProfile="tiny" height="128" version="1.2" viewBox="0,0,128,128" width="128" xmlns="http://www.w3.org/2000/svg" xmlns:ev="http://www.w3.org/2001/xml-events" xmlns:xlink="http://www.w3.org/1999/xlink"><defs /><polyline fill="none" points="15.6203,46.861 15.6203,21.261 18.6576,10.4136 20.3932,9.9797 28.6373,22.5627 38.6169,46.4271 40.3525,55.1051 40.3525,52.9356" stroke="#00007f" stroke-width="2" /><polyline fill="none" points="59.4441,45.9932 71.1593,32.9763 84.6102,8.678 89.3831,60.3119 84.1763,57.2746" stroke="#0000de" stroke-width="2" /><polyline fill="none" points="61.1797,47.2949 46.861,46.4271 42.0881,47.2949 39.4847,49.8983" stroke="#0028ff" stroke-width="2" /><polyline fill="none" points="40.3525,73.7627 39.9186,77.2339 44.2576,75.9322" stroke="#0080ff" stroke-width="2" /><polyline fill="none" points="59.4441,76.3661 59.0102,80.7051 62.4814,81.5729 68.5559,77.6678 68.9898,75.9322 66.3864,75.4983" stroke="#00d4ff" stroke-width="2" /><polyline fill="none" points="39.4847,89.8169 42.9559,93.722 48.1627,95.0237 52.9356,91.9864 52.5017,90.6847" stroke="#36ffc0" stroke-width="2" /><polyline fill="none" points="45.1254,83.7424 45.5593,85.478" stroke="#7cff79" stroke-width="2" /><polyline fill="none" points="70.7254,82.8746 79.4034,83.3085" stroke="#c0ff36" stroke-width="2" /><polyline fill="none" points="72.0271,89.3831 86.7797,92.4203" stroke="#ffe500" stroke-width="2" /><polyline fill="none" points="76.3661,95.4576 82.8746,97.1932" stroke="#ff9400" stroke-width="2" /><polyline fill="none" points="94.1559,63.3492 91.9864,66.3864 91.9864,70.7254 96.3254,89.8169 96.3254,99.7966 93.722,105.4373 83.3085,112.3797 52.0678,118.4542 40.3525,119.322 39.4847,118.0203" stroke="#ff4600" stroke-width="2" /><polyline fill="none" points="15.1864,47.7288 10.4136,54.6712 8.678,61.6136 16.922,91.1186 21.261,98.4949 26.9017,104.1356 41.2203,114.5492 41.2203,113.2475" stroke="#de0000" stroke-width="2" /><polyline fill="none" points="29.0712,88.5153 29.0712,88.5153" stroke="#7f0000" stroke-width="2" /></svg>