<?xml version="1.0" encoding="utf-8" ?>
<svg baseProfile="tiny" height="128" version="1.2" viewBox="0,0,128,128" width="128" xmlns="http://www.w3.org/2000/svg" xmlns:ev="http://www.w3.org/2001/xml-events" xmlns:xlink="http://www.w3.org/1999/xlink"><defs /><polyline fill="none" points="111.4558,49.6327 109.2789,28.2993 106.2313,21.7687 94.4762,47.4558 89.2517,44.4082 83.5918,43.102 74.0136,43.5374 64.8707,45.7143 63.5646,39.1837 57.9048,26.9932 53.9864,8.7075 42.2313,50.5034 40.9252,69.6599 43.9728,76.6259 49.6327,84.4626 58.3401,92.2993 67.483,97.5238 80.5442,97.9592 91.4286,94.0408 102.7483,87.9456 109.7143,81.415 114.9388,73.1429 118.4218,63.1293 119.2925,52.6803" stroke="#00007f" stroke-width="2" /><polyline fill="none" points="95.7823,55.7279 83.5918,59.2109 83.1565,60.9524 84.898,62.2585 91.4286,63.1293 92.2993,57.034" stroke="#004cff" stroke-width="2" /><polyline fill="none" points="68.7891,53.551 68.7891,60.9524 70.5306,59.6463 72.7075,53.9864" stroke="#29ffcd" stroke-width="2" /><polyline fill="none" points="71.4014,74.0136 69.2245,75.7551 73.5782,77.932 77.932,77.4966 79.2381,75.7551 78.8027,74.8844 73.5782,74.449" stroke="#cdff29" stroke-width="2" /><polyline fill="none" points="80.1088,74.0136 100.5714,74.8844 105.3605,79.2381" stroke="#ff6700" stroke-width="2" /><polyline fill="none" points="68.3537,72.7075 53.1156,69.2245 41.7959,69.2245 16.1088,69.2245 8.7075,71.8367" stroke="#7f0000" stroke-width="2" /></svg>