<?xml version="1.0" encoding="utf-8" ?>
<svg baseProfile="tiny" height="128" version="1.2" viewBox="0,0,128,128" width="128" xmlns="http://www.w3.org/2000/svg" xmlns:ev="http://www.w3.org/2001/xml-events" xmlns:xlink="http://www.w3.org/1999/xlink"><defs /><polyline fill="none" points="49.1973,73.1429 66.6122,70.5306 67.0476,78.8027 64.8707,82.2857 59.2109,84.4626 52.2449,83.5918 48.3265,81.415 46.585,74.8844" stroke="#00007f" stroke-width="2" /><polyline fill="none" points="57.4694,84.898 57.9048,88.8163 56.5986,91.8639 51.8095,94.9116 40.0544,95.7823 36.5714,94.9116 36.1361,93.1701" stroke="#0000d1" stroke-width="2" /><polyline fill="none" points="62.6939,84.4626 60.9524,86.6395 63.1293,88.8163 71.8367,92.7347 77.932,94.0408 85.7687,87.9456 87.0748,80.9796" stroke="#0010ff" stroke-width="2" /><polyline fill="none" points="36.1361,77.932 30.9116,79.2381" stroke="#0058ff" stroke-width="2" /><polyline fill="none" points="37.8776,80.1088 37.8776,81.415 33.0884,82.7211" stroke="#00a4ff" stroke-width="2" /><polyline fill="none" points="40.9252,82.7211 40.4898,87.0748 58.3401,82.2857" stroke="#05ecf1" stroke-width="2" /><polyline fill="none" points="70.5306,74.8844 76.1905,72.7075 97.0884,68.3537" stroke="#3fffb7" stroke-width="2" /><polyline fill="none" points="74.8844,77.4966 99.7007,71.8367" stroke="#7cff79" stroke-width="2" /><polyline fill="none" points="73.1429,81.415 90.1224,82.7211" stroke="#b7ff3f" stroke-width="2" /><polyline fill="none" points="36.1361,50.9388 33.5238,57.034 35.7007,60.0816 38.7483,60.9524 44.8435,56.5986 46.1497,51.3741 43.102,49.1973 35.2653,48.7619" stroke="#f1fc05" stroke-width="2" /><polyline fill="none" points="65.3061,46.1497 59.6463,48.3265 56.5986,59.2109 62.2585,59.2109 65.7415,57.9048 67.483,54.8571 67.0476,49.1973" stroke="#ffb900" stroke-width="2" /><polyline fill="none" points="39.1837,32.6531 28.2993,26.9932 9.5782,13.932 16.5442,37.8776" stroke="#ff7300" stroke-width="2" /><polyline fill="none" points="62.6939,26.9932 67.0476,16.5442 75.7551,8.7075 76.6259,32.2177" stroke="#ff3000" stroke-width="2" /><polyline fill="none" points="60.517,26.9932 48.3265,28.7347 41.3605,32.6531" stroke="#d10000" stroke-width="2" /><polyline fill="none" points="15.2381,40.4898 9.5782,56.5986 8.7075,72.7075 13.0612,88.381 20.4626,98.8299 37.0068,110.585 46.585,115.3741 61.3878,118.8571 86.6395,119.2925 90.9932,116.6803 98.3946,104.9252 99.7007,97.5238 99.7007,71.4014 97.5238,59.6463 93.1701,49.6327 77.0612,35.2653" stroke="#7f0000" stroke-width="2" /></svg>