<?xml version="1.0" encoding="utf-8" ?>
<svg baseProfile="tiny" height="128" version="1.2" viewBox="0,0,128,128" width="128" xmlns="http://www.w3.org/2000/svg" xmlns:ev="http://www.w3.org/2001/xml-events" xmlns:xlink="http://www.w3.org/1999/xlink"><defs /><polyline fill="none" points="71.8367,57.9048 62.2585,51.8095 46.585,48.3265 32.2177,50.9388 20.898,58.7755 11.3197,73.5782 9.1429,80.9796 8.7075,87.9456 10.449,95.3469 14.8027,103.619 20.4626,110.1497 26.5578,115.3741 38.3129,119.2925 54.8571,119.2925 62.2585,116.6803 68.3537,112.7619 76.6259,102.3129 80.9796,87.0748 80.1088,73.1429 74.0136,61.8231 65.3061,53.9864" stroke="#00007f" stroke-width="2" /><polyline fill="none" points="26.5578,47.4558 33.9592,19.5918 40.0544,8.7075 42.6667,10.8844 44.8435,15.6735 50.9388,40.0544" stroke="#0000f1" stroke-width="2" /><polyline fill="none" points="64.0,45.2789 68.3537,28.7347 74.0136,19.1565 76.6259,23.0748 79.2381,50.9388" stroke="#004cff" stroke-width="2" /><polyline fill="none" points="52.2449,83.1565 46.1497,81.415 41.3605,82.7211 38.7483,85.3333 37.8776,88.8163 39.1837,91.4286 41.3605,92.2993 50.5034,91.4286 54.8571,85.7687 53.551,82.2857" stroke="#00b0ff" stroke-width="2" /><polyline fill="none" points="34.8299,85.7687 19.1565,81.8503" stroke="#29ffcd" stroke-width="2" /><polyline fill="none" points="28.2993,92.7347 19.1565,95.3469" stroke="#7cff79" stroke-width="2" /><polyline fill="none" points="33.0884,95.7823 24.8163,102.7483" stroke="#cdff29" stroke-width="2" /><polyline fill="none" points="65.7415,86.6395 83.1565,85.3333" stroke="#ffc400" stroke-width="2" /><polyline fill="none" points="60.0816,92.2993 76.6259,99.2653" stroke="#ff6700" stroke-width="2" /><polyline fill="none" points="34.3946,69.2245 34.3946,69.2245" stroke="#f10700" stroke-width="2" /><polyline fill="none" points="34.3946,71.4014 38.7483,72.7075" stroke="#7f0000" stroke-width="2" /></svg>