<?xml version="1.0" encoding="utf-8" ?>
<svg baseProfile="tiny" height="128" version="1.2" viewBox="0,0,128,128" width="128" xmlns="http://www.w3.org/2000/svg" xmlns:ev="http://www.w3.org/2001/xml-events" xmlns:xlink="http://www.w3.org/1999/xlink"><defs /><polyline fill="none" points="54.4218,94.9116 43.5374,95.3469 30.0408,93.1701 18.2857,86.6395 9.5782,74.0136 8.7075,61.3878 15.6735,56.1633 23.0748,53.9864 31.3469,53.9864 32.2177,52.2449 27.4286,36.5714 25.6871,16.9796 27.8639,18.2857 46.585,48.7619 60.517,43.9728 68.3537,43.9728 73.5782,45.7143 74.8844,43.5374 76.1905,32.6531 76.6259,8.7075 80.1088,13.932 86.2041,31.3469 88.8163,44.4082 96.2177,42.2313 101.8776,43.102 109.7143,53.1156 113.1973,61.8231 112.7619,74.8844 108.8435,79.6735 103.619,82.7211 80.1088,91.4286 42.6667,92.2993" stroke="#00007f" stroke-width="2" /><polyline fill="none" points="43.9728,56.5986 43.9728,56.5986" stroke="#0000de" stroke-width="2" /><polyline fill="none" points="87.5102,54.8571 87.5102,54.8571" stroke="#0028ff" stroke-width="2" /><polyline fill="none" points="85.7687,55.7279 77.0612,56.5986 79.2381,55.2925 81.8503,55.2925 80.9796,57.4694" stroke="#0080ff" stroke-width="2" /><polyline fill="none" points="48.3265,61.8231 46.1497,59.2109 48.7619,57.4694 53.9864,57.034 50.068,61.3878" stroke="#00d4ff" stroke-width="2" /><polyline fill="none" points="63.1293,61.8231 62.6939,65.7415 64.0,68.3537 68.3537,70.966 72.7075,70.5306 73.1429,67.483 72.2721,65.7415 67.483,62.6939" stroke="#36ffc0" stroke-width="2" /><polyline fill="none" points="64.4354,68.7891 61.3878,67.483 40.0544,67.483 26.9932,73.1429 23.5102,77.4966" stroke="#7cff79" stroke-width="2" /><polyline fill="none" points="68.3537,66.1769 61.8231,67.9184 39.1837,79.2381" stroke="#c0ff36" stroke-width="2" /><polyline fill="none" points="63.1293,76.1905 53.551,79.6735 43.102,86.2041" stroke="#ffe500" stroke-width="2" /><polyline fill="none" points="69.6599,63.1293 95.3469,60.0816 119.2925,59.2109" stroke="#ff9400" stroke-width="2" /><polyline fill="none" points="70.5306,69.6599 74.449,70.966 101.8776,70.5306 112.3265,71.8367" stroke="#ff4600" stroke-width="2" /><polyline fill="none" points="69.2245,68.7891 87.9456,71.8367 107.102,76.1905" stroke="#de0000" stroke-width="2" /><polyline fill="none" points="59.6463,84.898 70.5306,89.6871" stroke="#7f0000" stroke-width="2" /></svg>