<?xml version="1.0" encoding="utf-8" ?>
<svg baseProfile="tiny" height="128" version="1.2" viewBox="0,0,128,128" width="128" xmlns="http://www.w3.org/2000/svg" xmlns:ev="http://www.w3.org/2001/xml-events" xmlns:xlink="http://www.w3.org/1999/xlink"><defs /><polyline fill="none" points="8.678,53.8034 8.678,8.678 10.4136,9.1119 11.2814,11.7153 28.2034,34.7119 59.4441,33.4102 77.6678,40.3525 78.1017,34.7119 79.8373,31.6746 92.4203,11.7153 93.2881,14.3186 89.8169,43.8237 92.4203,55.9729 92.4203,76.3661 83.3085,91.9864 74.1966,101.9661 63.3492,110.2102 48.1627,118.0203 38.6169,119.322 23.4305,109.7763 18.6576,102.4 15.6203,92.8542 11.7153,63.7831 9.5458,59.4441" stroke="#00007f" stroke-width="2" /><polyline fill="none" points="50.7661,68.5559 50.7661,68.5559" stroke="#004cff" stroke-width="2" /><polyline fill="none" points="50.7661,68.5559 54.6712,71.1593 56.4068,71.1593 57.7085,69.4237 57.2746,67.6881 53.8034,66.8203 50.7661,70.2915" stroke="#29ffcd" stroke-width="2" /><polyline fill="none" points="51.2,70.2915 44.2576,70.2915" stroke="#cdff29" stroke-width="2" /><polyline fill="none" points="52.5017,71.1593 47.7288,71.1593 41.6542,73.3288" stroke="#ff6700" stroke-width="2" /><polyline fill="none" points="51.6339,68.5559 46.4271,65.5186" stroke="#7f0000" stroke-width="2" /></svg>