<?xml version="1.0" encoding="utf-8" ?>
<svg baseProfile="tiny" height="128" version="1.2" viewBox="0,0,128,128" width="128" xmlns="http://www.w3.org/2000/svg" xmlns:ev="http://www.w3.org/2001/xml-events" xmlns:xlink="http://www.w3.org/1999/xlink"><defs /><polyline fill="none" points="41.3605,33.9592 35.7007,40.9252 34.3946,48.7619 37.4422,55.2925 43.5374,59.2109 54.8571,60.517 67.9184,58.7755 78.8027,51.8095 83.1565,43.102 83.1565,37.0068 77.4966,30.0408 62.2585,25.6871 52.2449,26.1224 40.0544,37.8776" stroke="#00007f" stroke-width="2" /><polyline fill="none" points="39.619,36.1361 39.619,21.7687 43.9728,8.7075 45.2789,20.4626 51.3741,29.6054" stroke="#0028ff" stroke-width="2" /><polyline fill="none" points="70.0952,25.2517 79.6735,11.7551 80.1088,28.2993" stroke="#00d4ff" stroke-width="2" /><polyline fill="none" points="70.5306,40.4898 76.6259,37.8776 101.0068,36.1361 119.2925,37.8776 117.551,40.0544" stroke="#7cff79" stroke-width="2" /><polyline fill="none" points="73.5782,40.0544 110.585,48.3265" stroke="#ffe500" stroke-width="2" /><polyline fill="none" points="71.4014,44.4082 85.3333,47.4558 94.9116,53.9864 95.7823,55.7279" stroke="#ff4600" stroke-width="2" /><polyline fill="none" points="52.6803,44.4082 16.9796,44.4082 8.7075,47.4558" stroke="#7f0000" stroke-width="2" /></svg>