<?xml version="1.0" encoding="utf-8" ?>
<svg baseProfile="tiny" height="128" version="1.2" viewBox="0,0,128,128" width="128" xmlns="http://www.w3.org/2000/svg" xmlns:ev="http://www.w3.org/2001/xml-events" xmlns:xlink="http://www.w3.org/1999/xlink"><defs /><polyline fill="none" points="37.3153,56.4068 22.5627,52.5017 17.7898,47.7288 13.4508,40.3525 11.2814,35.1458 10.8475,27.3356 16.4881,8.678 23.8644,19.9593 43.8237,20.3932 48.5966,16.4881 52.9356,9.9797 57.2746,22.1288 59.0102,32.5424 59.0102,45.1254 49.8983,52.0678 41.6542,55.1051 32.9763,56.4068" stroke="#00007f" stroke-width="2" /><polyline fill="none" points="57.2746,30.3729 69.4237,28.6373 102.8339,27.3356 107.6068,29.0712 111.078,32.5424 113.2475,37.3153 117.1525,38.6169" stroke="#0000de" stroke-width="2" /><polyline fill="none" points="56.8407,51.2 93.2881,50.7661 119.322,41.2203" stroke="#0028ff" stroke-width="2" /><polyline fill="none" points="62.9153,51.6339 62.0475,72.0271" stroke="#0080ff" stroke-width="2" /><polyline fill="none" points="68.5559,50.3322 68.122,67.2542 69.4237,74.1966" stroke="#00d4ff" stroke-width="2" /><polyline fill="none" points="95.8915,49.0305 95.8915,73.3288" stroke="#36ffc0" stroke-width="2" /><polyline fill="none" points="103.2678,46.4271 102.8339,72.8949" stroke="#7cff79" stroke-width="2" /><polyline fill="none" points="28.2034,38.6169 11.7153,39.0508" stroke="#c0ff36" stroke-width="2" /><polyline fill="none" points="26.9017,42.0881 13.4508,43.3898 8.678,45.9932" stroke="#ffe500" stroke-width="2" /><polyline fill="none" points="38.1831,38.1831 46.861,37.7492 60.3119,43.3898" stroke="#ff9400" stroke-width="2" /><polyline fill="none" points="36.4475,40.7864 59.4441,51.2" stroke="#ff4600" stroke-width="2" /><polyline fill="none" points="25.6,26.0339 27.3356,28.6373" stroke="#de0000" stroke-width="2" /><polyline fill="none" points="43.8237,26.0339 43.8237,26.0339" stroke="#7f0000" stroke-width="2" /></svg>