<?xml version="1.0" encoding="utf-8" ?>
<svg baseProfile="tiny" height="128" version="1.2" viewBox="0,0,128,128" width="128" xmlns="http://www.w3.org/2000/svg" xmlns:ev="http://www.w3.org/2001/xml-events" xmlns:xlink="http://www.w3.org/1999/xlink"><defs /><polyline fill="none" points="39.619,37.8776 44.4082,17.415 49.1973,8.7075 49.6327,39.1837 54.4218,37.8776 87.5102,40.0544 94.9116,31.7823 101.0068,19.5918 105.7959,15.2381 105.3605,41.3605 102.3129,50.5034 92.7347,70.5306 87.5102,77.932 73.1429,85.7687 62.6939,87.5102 47.8912,82.2857 43.9728,79.2381 38.3129,70.5306 35.7007,59.6463 35.7007,51.3741 40.4898,34.8299" stroke="#00007f" stroke-width="2" /><polyline fill="none" points="62.2585,53.551 62.2585,60.0816 59.6463,66.6122 55.2925,69.6599 48.7619,70.0952 43.9728,66.1769 47.4558,71.4014 52.2449,74.0136 59.6463,72.2721 63.1293,64.0 63.1293,53.9864 68.7891,74.8844 70.966,75.7551 76.1905,75.3197 83.1565,70.966 80.9796,70.0952" stroke="#0028ff" stroke-width="2" /><polyline fill="none" points="64.0,52.6803 57.034,52.6803 56.1633,47.8912 58.7755,47.8912 64.0,51.3741 64.4354,53.551 63.1293,53.9864 60.9524,51.8095 60.0816,48.3265 80.9796,48.7619 88.8163,47.0204 117.1156,49.6327" stroke="#00d4ff" stroke-width="2" /><polyline fill="none" points="64.4354,51.3741 80.1088,55.2925 109.2789,56.5986 119.2925,58.3401" stroke="#7cff79" stroke-width="2" /><polyline fill="none" points="64.0,51.8095 54.4218,49.1973 18.2857,44.4082 8.7075,41.3605" stroke="#ffe500" stroke-width="2" /><polyline fill="none" points="61.8231,50.9388 33.0884,50.5034" stroke="#ff4600" stroke-width="2" /><polyline fill="none" points="29.6054,51.3741 15.2381,53.551" stroke="#7f0000" stroke-width="2" /></svg>