<?xml version="1.0" encoding="utf-8" ?>
<svg baseProfile="tiny" height="128" version="1.2" viewBox="0,0,128,128" width="128" xmlns="http://www.w3.org/2000/svg" xmlns:ev="http://www.w3.org/2001/xml-events" xmlns:xlink="http://www.w3.org/1999/xlink"><defs /><polyline fill="none" points="28.6373,12.5831 15.1864,21.261 8.678,28.6373 27.3356,31.2407" stroke="#00007f" stroke-width="2" /><polyline fill="none" points="29.939,20.3932 23.4305,22.9966 20.8271,26.0339 22.9966,27.3356 28.6373,23.8644 28.2034,21.6949" stroke="#0000bf" stroke-width="2" /><polyline fill="none" points="29.5051,13.8847 41.6542,8.678 49.4644,9.1119 44.6915,13.0169 48.5966,16.0542 49.8983,19.5254 48.1627,21.261 46.4271,19.9593 44.6915,27.3356" stroke="#0000fe" stroke-width="2" /><polyline fill="none" points="46.861,14.7525 56.8407,11.7153 61.6136,11.7153 62.0475,13.8847 59.878,24.2983" stroke="#0028ff" stroke-width="2" /><polyline fill="none" points="53.3695,18.6576 57.2746,13.8847 58.5763,14.7525 57.7085,18.6576 55.9729,20.3932 54.2373,17.3559" stroke="#0060ff" stroke-width="2" /><polyline fill="none" points="62.0475,23.8644 66.8203,21.6949 65.5186,26.9017 61.6136,30.3729 65.5186,32.9763 63.7831,34.7119 65.5186,38.1831" stroke="#009cff" stroke-width="2" /><polyline fill="none" points="27.3356,29.939 26.0339,33.8441 22.9966,36.0136 27.3356,36.8814 24.7322,41.6542 26.9017,41.2203 29.0712,45.5593" stroke="#00d4ff" stroke-width="2" /><polyline fill="none" points="41.6542,39.4847 49.4644,34.278 52.0678,34.7119 54.2373,36.8814" stroke="#1fffd7" stroke-width="2" /><polyline fill="none" points="47.2949,37.3153 47.7288,39.9186 50.7661,39.9186 49.8983,37.7492 49.0305,37.7492 49.0305,38.6169" stroke="#4cffaa" stroke-width="2" /><polyline fill="none" points="48.1627,44.2576 43.8237,45.9932 40.3525,44.2576" stroke="#7cff79" stroke-width="2" /><polyline fill="none" points="47.7288,44.6915 52.5017,45.5593 55.539,42.522" stroke="#aaff4c" stroke-width="2" /><polyline fill="none" points="39.9186,27.3356 38.1831,31.2407 39.4847,35.5797 42.9559,30.8068 41.6542,27.7695 39.0508,27.3356" stroke="#d7ff1f" stroke-width="2" /><polyline fill="none" points="50.3322,24.7322 49.8983,29.939 52.5017,32.5424 55.539,31.2407 56.8407,29.0712 56.4068,25.6 53.8034,25.1661" stroke="#ffe500" stroke-width="2" /><polyline fill="none" points="66.8203,39.0508 66.8203,44.6915 65.5186,44.6915 65.0847,41.2203 63.3492,51.6339 56.8407,65.0847" stroke="#ffb100" stroke-width="2" /><polyline fill="none" points="27.7695,46.4271 36.0136,62.9153" stroke="#ff7a00" stroke-width="2" /><polyline fill="none" points="44.2576,60.7458 45.1254,82.4407" stroke="#ff4600" stroke-width="2" /><polyline fill="none" points="36.8814,60.3119 38.1831,72.461 36.8814,83.3085" stroke="#fe1200" stroke-width="2" /><polyline fill="none" points="55.539,63.3492 55.9729,77.6678 59.878,85.478" stroke="#bf0000" stroke-width="2" /><polyline fill="none" points="57.7085,67.2542 62.0475,63.3492 68.9898,60.3119 78.5356,64.6508 85.9119,63.7831 91.1186,60.3119 99.7966,48.1627 105.4373,45.5593 112.8136,46.4271 118.0203,52.0678 119.322,58.1424 115.8508,64.2169 111.9458,64.2169 105.8712,59.878 100.6644,59.4441 83.3085,70.2915 78.9695,71.5932 70.2915,71.1593 58.1424,66.8203 53.8034,68.122" stroke="#7f0000" stroke-width="2" /></svg>