<?xml version="1.0" encoding="utf-8" ?>
<svg baseProfile="tiny" height="128" version="1.2" viewBox="0,0,128,128" width="128" xmlns="http://www.w3.org/2000/svg" xmlns:ev="http://www.w3.org/2001/xml-events" xmlns:xlink="http://www.w3.org/1999/xlink"><defs /><polyline fill="none" points="49.4644,34.278 24.2983,16.0542 10.8475,8.678 8.678,47.7288 11.7153,54.2373" stroke="#00007f" stroke-width="2" /><polyline fill="none" points="85.9119,26.4678 108.4746,14.3186 117.5864,42.0881 119.322,51.2" stroke="#0000c8" stroke-width="2" /><polyline fill="none" points="45.5593,35.1458 48.5966,31.6746 59.878,26.9017 73.3288,25.6 75.9322,27.7695" stroke="#0000ff" stroke-width="2" /><polyline fill="none" points="15.1864,56.8407 24.2983,72.461 28.6373,77.2339 36.8814,82.4407 45.9932,85.9119 55.539,87.2136 80.7051,86.7797 101.5322,78.9695 108.0407,74.1966 111.078,69.8576 112.8136,64.2169 112.3797,53.3695 105.0034,37.7492" stroke="#0040ff" stroke-width="2" /><polyline fill="none" points="60.3119,58.5763 59.0102,53.8034 60.3119,55.1051 62.0475,63.3492 63.3492,64.2169 65.0847,55.539 63.7831,52.5017 62.0475,52.5017 59.878,55.1051 60.3119,58.1424 61.6136,59.0102 62.4814,58.1424 62.4814,59.4441" stroke="#0080ff" stroke-width="2" /><polyline fill="none" points="63.3492,63.3492 60.3119,75.4983" stroke="#00c0ff" stroke-width="2" /><polyline fill="none" points="59.0102,76.8 48.5966,85.0441" stroke="#15ffe1" stroke-width="2" /><polyline fill="none" points="62.4814,72.0271 67.2542,76.8 72.8949,85.9119" stroke="#49ffad" stroke-width="2" /><polyline fill="none" points="44.2576,46.4271 44.2576,46.4271" stroke="#7cff79" stroke-width="2" /><polyline fill="none" points="79.8373,41.2203 79.8373,41.2203" stroke="#b0ff46" stroke-width="2" /><polyline fill="none" points="46.4271,47.2949 46.4271,47.2949" stroke="#e4ff12" stroke-width="2" /><polyline fill="none" points="43.8237,45.1254 41.2203,47.2949 42.522,49.0305 46.861,48.5966 48.1627,46.4271 45.5593,46.4271" stroke="#ffcf00" stroke-width="2" /><polyline fill="none" points="82.0068,43.3898 79.8373,42.0881 77.2339,42.9559 76.8,46.4271 78.1017,47.7288 80.7051,47.2949 86.7797,41.2203" stroke="#ff9400" stroke-width="2" /><polyline fill="none" points="71.5932,58.5763 104.1356,59.878 110.6441,59.878 117.5864,57.2746" stroke="#ff5900" stroke-width="2" /><polyline fill="none" points="65.0847,61.1797 78.1017,60.3119 102.4,67.6881" stroke="#ff1d00" stroke-width="2" /><polyline fill="none" points="64.2169,60.7458 82.4407,68.9898 91.9864,76.8" stroke="#c30000" stroke-width="2" /><polyline fill="none" points="53.8034,59.4441 57.7085,58.5763 57.7085,57.2746 44.2576,57.2746 13.4508,65.9525" stroke="#7f0000" stroke-width="2" /></svg>