<?xml version="1.0" encoding="utf-8" ?>
<svg baseProfile="tiny" height="128" version="1.2" viewBox="0,0,128,128" width="128" xmlns="http://www.w3.org/2000/svg" xmlns:ev="http://www.w3.org/2001/xml-events" xmlns:xlink="http://www.w3.org/1999/xlink"><defs /><polyline fill="none" points="40.7864,29.5051 44.2576,19.9593 45.9932,8.678 58.1424,29.0712 68.9898,23.8644 75.9322,22.1288 84.6102,23.4305 91.1186,28.6373 105.8712,11.2814 107.6068,32.1085" stroke="#00007f" stroke-width="2" /><polyline fill="none" points="40.3525,30.3729 32.9763,50.3322 32.9763,54.6712 35.1458,61.6136 40.3525,66.3864 59.878,75.4983 73.7627,78.1017 89.8169,76.3661 99.3627,68.9898 104.1356,59.878 107.6068,31.2407" stroke="#0000ff" stroke-width="2" /><polyline fill="none" points="96.3254,53.8034 109.3424,47.2949 117.1525,40.3525" stroke="#0080ff" stroke-width="2" /><polyline fill="none" points="95.8915,57.2746 119.322,58.1424" stroke="#15ffe1" stroke-width="2" /><polyline fill="none" points="90.6847,64.2169 113.6814,71.1593" stroke="#7cff79" stroke-width="2" /><polyline fill="none" points="32.9763,48.5966 17.3559,46.861 8.678,47.7288" stroke="#e4ff12" stroke-width="2" /><polyline fill="none" points="44.2576,54.6712 23.4305,58.1424 21.6949,59.0102 24.7322,59.878" stroke="#ff9400" stroke-width="2" /><polyline fill="none" points="46.4271,65.9525 36.4475,67.6881" stroke="#ff1d00" stroke-width="2" /><polyline fill="none" points="59.4441,32.1085 59.4441,32.1085" stroke="#7f0000" stroke-width="2" /></svg>