<?xml version="1.0" encoding="utf-8" ?>
<svg baseProfile="tiny" height="128" version="1.2" viewBox="0,0,128,128" width="128" xmlns="http://www.w3.org/2000/svg" xmlns:ev="http://www.w3.org/2001/xml-events" xmlns:xlink="http://www.w3.org/1999/xlink"><defs /><polyline fill="none" points="40.3525,47.7288 75.9322,37.3153 82.0068,37.7492 92.8542,46.4271 94.5898,46.4271 116.7186,20.8271 118.0203,22.9966 118.0203,41.2203 115.4169,65.9525 110.6441,85.0441 103.7017,105.8712 95.8915,113.6814 86.3458,118.4542 60.3119,119.322 52.0678,118.0203 40.3525,114.9831 18.2237,103.7017 16.0542,102.4 11.2814,84.1763 8.678,46.861 10.8475,22.5627 15.1864,9.9797 16.922,8.678 23.4305,14.3186 39.0508,47.2949" stroke="#00007f" stroke-width="2" /><polyline fill="none" points="47.2949,59.4441 48.1627,77.6678 52.0678,78.5356 53.3695,72.461 49.8983,59.0102 47.2949,59.0102" stroke="#0000ff" stroke-width="2" /><polyline fill="none" points="70.2915,59.0102 75.9322,77.6678 77.6678,77.2339 78.5356,71.5932 74.6305,63.3492 68.9898,57.7085" stroke="#0080ff" stroke-width="2" /><polyline fill="none" points="44.6915,67.6881 43.3898,69.4237 49.4644,72.8949" stroke="#15ffe1" stroke-width="2" /><polyline fill="none" points="53.8034,67.6881 60.3119,68.5559 52.5017,70.2915" stroke="#7cff79" stroke-width="2" /><polyline fill="none" points="59.878,85.478 63.3492,86.3458 65.9525,88.9492 57.7085,89.8169 57.7085,86.7797 59.878,84.6102" stroke="#e4ff12" stroke-width="2" /><polyline fill="none" points="61.1797,89.3831 60.3119,97.1932 58.1424,98.4949 49.8983,92.8542" stroke="#ff9400" stroke-width="2" /><polyline fill="none" points="59.0102,97.6271 65.9525,97.1932" stroke="#ff1d00" stroke-width="2" /><polyline fill="none" points="70.7254,66.3864 70.7254,66.3864" stroke="#7f0000" stroke-width="2" /></svg>