<?xml version="1.0" encoding="utf-8" ?>
<svg baseProfile="tiny" height="128" version="1.2" viewBox="0,0,128,128" width="128" xmlns="http://www.w3.org/2000/svg" xmlns:ev="http://www.w3.org/2001/xml-events" xmlns:xlink="http://www.w3.org/1999/xlink"><defs /><polyline fill="none" points="52.9356,60.3119 59.4441,47.7288 62.0475,45.1254 65.0847,44.6915 78.5356,56.4068 82.4407,62.4814 89.8169,75.9322 92.4203,88.5153 91.5525,100.2305 85.9119,111.078 79.8373,115.8508 69.4237,119.322 52.0678,116.2847 44.2576,111.5119 29.0712,99.3627 19.9593,82.8746 16.922,75.0644 16.0542,54.6712 19.5254,47.7288 27.7695,37.7492 39.0508,32.9763 52.9356,32.9763 59.878,34.278 73.7627,40.7864" stroke="#00007f" stroke-width="2" /><polyline fill="none" points="67.2542,51.2 73.3288,47.2949 88.0814,29.0712 91.9864,20.3932 94.1559,8.678 68.5559,32.5424 59.0102,38.6169" stroke="#7cff79" stroke-width="2" /><polyline fill="none" points="39.0508,35.1458 33.8441,24.2983 26.4678,17.3559 17.3559,12.1492 8.678,10.4136 9.5458,16.0542 24.2983,36.8814 25.1661,42.522" stroke="#7f0000" stroke-width="2" /></svg>