<?xml version="1.0" encoding="utf-8" ?>
<svg baseProfile="tiny" height="128" version="1.2" viewBox="0,0,128,128" width="128" xmlns="http://www.w3.org/2000/svg" xmlns:ev="http://www.w3.org/2001/xml-events" xmlns:xlink="http://www.w3.org/1999/xlink"><defs /><polyline fill="none" points="85.0441,39.4847 74.1966,34.7119 70.7254,29.939 70.7254,22.9966 77.6678,14.7525 87.6475,9.9797 102.4,8.678 116.7186,13.0169 119.322,17.3559 114.9831,25.1661 108.4746,32.5424 88.5153,39.9186 85.0441,39.9186 84.6102,36.8814" stroke="#00007f" stroke-width="2" /><polyline fill="none" points="77.6678,16.922 68.5559,15.1864 58.5763,16.0542 39.9186,21.261 29.939,29.0712 27.7695,38.6169 28.6373,43.3898 32.9763,49.0305 40.3525,52.9356 43.3898,53.3695 65.5186,45.9932 74.6305,39.0508 79.4034,32.5424" stroke="#0000f1" stroke-width="2" /><polyline fill="none" points="59.0102,49.4644 62.9153,64.6508" stroke="#004cff" stroke-width="2" /><polyline fill="none" points="46.4271,48.5966 49.8983,66.3864" stroke="#00b0ff" stroke-width="2" /><polyline fill="none" points="42.0881,50.3322 40.3525,59.4441" stroke="#29ffcd" stroke-width="2" /><polyline fill="none" points="70.7254,40.7864 74.1966,49.8983" stroke="#7cff79" stroke-width="2" /><polyline fill="none" points="27.3356,33.4102 8.678,33.4102" stroke="#cdff29" stroke-width="2" /><polyline fill="none" points="103.2678,16.4881 103.2678,16.922" stroke="#ffc400" stroke-width="2" /><polyline fill="none" points="86.3458,16.922 86.3458,17.3559" stroke="#ff6700" stroke-width="2" /><polyline fill="none" points="86.3458,33.8441 97.6271,31.6746 104.5695,25.6" stroke="#f10700" stroke-width="2" /><polyline fill="none" points="95.8915,20.3932 95.8915,20.3932" stroke="#7f0000" stroke-width="2" /></svg>