<?xml version="1.0" encoding="utf-8" ?>
<svg baseProfile="tiny" height="128" version="1.2" viewBox="0,0,128,128" width="128" xmlns="http://www.w3.org/2000/svg" xmlns:ev="http://www.w3.org/2001/xml-events" xmlns:xlink="http://www.w3.org/1999/xlink"><defs /><polyline fill="none" points="106.739,26.4678 87.6475,25.6 62.4814,21.6949 46.4271,21.261 39.0508,22.9966 35.1458,23.8644 32.5424,47.7288 37.7492,52.5017 50.3322,55.539 68.9898,55.9729 89.3831,53.8034 99.3627,49.4644 104.5695,43.8237 106.739,37.3153 107.6068,29.0712" stroke="#00007f" stroke-width="2" /><polyline fill="none" points="39.9186,36.0136 8.678,40.3525" stroke="#0000e8" stroke-width="2" /><polyline fill="none" points="106.739,42.9559 117.1525,27.3356 119.322,18.2237 118.8881,13.0169 113.6814,9.5458 108.4746,8.678 102.8339,9.1119 99.3627,11.2814 92.4203,24.2983 95.8915,29.5051 100.2305,32.5424" stroke="#0038ff" stroke-width="2" /><polyline fill="none" points="105.4373,15.1864 102.4,21.261" stroke="#0094ff" stroke-width="2" /><polyline fill="none" points="114.5492,14.7525 111.5119,21.261" stroke="#0cf4ea" stroke-width="2" /><polyline fill="none" points="98.4949,16.922 108.0407,26.9017" stroke="#56ffa0" stroke-width="2" /><polyline fill="none" points="97.1932,49.0305 95.4576,63.3492 96.7593,68.9898 91.5525,61.6136 90.6847,52.5017" stroke="#a0ff56" stroke-width="2" /><polyline fill="none" points="79.8373,57.2746 78.1017,66.8203 79.8373,76.3661 72.0271,72.461 68.5559,68.122 68.122,62.0475 69.8576,55.9729" stroke="#eaff0c" stroke-width="2" /><polyline fill="none" points="58.1424,55.9729 55.9729,72.8949 54.6712,77.6678 52.0678,77.6678 48.1627,72.0271 46.861,67.2542 48.1627,57.2746 51.2,52.0678" stroke="#ffaa00" stroke-width="2" /><polyline fill="none" points="42.0881,52.9356 41.2203,61.1797 39.4847,65.9525 33.4102,68.9898 31.6746,63.3492 31.6746,56.8407 32.9763,52.9356 36.4475,49.8983" stroke="#ff5500" stroke-width="2" /><polyline fill="none" points="89.8169,20.8271 89.8169,20.8271" stroke="#e80000" stroke-width="2" /><polyline fill="none" points="82.4407,21.261 69.4237,13.8847" stroke="#7f0000" stroke-width="2" /></svg>