<?xml version="1.0" encoding="utf-8" ?>
<svg baseProfile="tiny" height="128" version="1.2" viewBox="0,0,128,128" width="128" xmlns="http://www.w3.org/2000/svg" xmlns:ev="http://www.w3.org/2001/xml-events" xmlns:xlink="http://www.w3.org/1999/xlink"><defs /><polyline fill="none" points="72.0271,62.0475 70.2915,58.5763 60.7458,52.9356 52.5017,52.0678 39.9186,54.2373 27.7695,62.9153 19.0915,73.3288 13.4508,84.6102 9.9797,97.1932 8.678,105.4373 9.1119,112.8136 13.8847,117.1525 20.8271,119.322 42.9559,117.5864 67.6881,107.6068 80.2712,101.5322 90.6847,93.2881 103.2678,79.4034 106.739,72.461 106.739,65.5186 101.9661,58.5763 92.8542,53.8034 74.6305,49.0305" stroke="#00007f" stroke-width="2" /><polyline fill="none" points="33.4102,50.7661 31.2407,48.1627 27.7695,37.3153 26.0339,8.678 29.0712,10.4136 32.9763,17.3559 42.9559,41.6542 51.6339,52.5017" stroke="#0000fe" stroke-width="2" /><polyline fill="none" points="80.7051,62.0475 84.6102,49.0305 96.7593,22.9966 102.4,14.3186 105.4373,12.5831 106.739,27.7695 103.7017,40.3525 91.1186,67.6881" stroke="#0060ff" stroke-width="2" /><polyline fill="none" points="40.7864,72.0271 35.1458,75.0644 32.5424,78.5356 31.6746,82.8746 31.6746,87.2136 33.8441,90.6847 37.3153,90.6847 43.8237,83.3085 46.4271,72.8949 45.9932,68.5559" stroke="#00d4ff" stroke-width="2" /><polyline fill="none" points="67.6881,69.8576 70.7254,68.9898 67.6881,76.8 68.122,82.4407 72.0271,82.4407 81.5729,73.7627 82.4407,68.9898 80.7051,66.8203" stroke="#4cffaa" stroke-width="2" /><polyline fill="none" points="59.4441,98.9288 49.4644,97.1932 47.2949,100.2305 47.7288,102.8339 53.8034,104.1356 55.539,101.0983 55.9729,94.5898" stroke="#aaff4c" stroke-width="2" /><polyline fill="none" points="62.9153,98.9288 68.5559,98.061 83.7424,88.0814" stroke="#ffe500" stroke-width="2" /><polyline fill="none" points="65.9525,101.5322 85.0441,100.6644" stroke="#ff7a00" stroke-width="2" /><polyline fill="none" points="58.1424,109.3424 58.1424,109.3424" stroke="#fe1200" stroke-width="2" /><polyline fill="none" points="51.2,100.6644 41.2203,96.7593" stroke="#7f0000" stroke-width="2" /></svg>