<?xml version="1.0" encoding="utf-8" ?>
<svg baseProfile="tiny" height="128" version="1.2" viewBox="0,0,128,128" width="128" xmlns="http://www.w3.org/2000/svg" xmlns:ev="http://www.w3.org/2001/xml-events" xmlns:xlink="http://www.w3.org/1999/xlink"><defs /><polyline fill="none" points="95.0237,45.1254 92.4203,41.2203 81.5729,34.278 64.2169,34.278 58.1424,37.3153 51.6339,46.861 50.7661,59.0102 53.3695,62.9153 66.3864,70.7254 85.0441,75.4983 95.0237,76.3661 100.2305,75.4983 107.1729,67.6881 111.5119,56.8407 112.3797,46.861 108.4746,42.522 100.2305,38.1831 90.2508,36.0136 73.7627,36.0136" stroke="#00007f" stroke-width="2" /><polyline fill="none" points="59.878,35.5797 60.7458,31.2407 69.4237,16.0542 75.4983,8.678 82.4407,35.5797 84.6102,38.6169 85.478,37.7492" stroke="#004cff" stroke-width="2" /><polyline fill="none" points="95.8915,37.7492 105.4373,26.0339 112.3797,22.1288 119.322,20.3932 113.2475,32.5424 109.7763,49.8983" stroke="#29ffcd" stroke-width="2" /><polyline fill="none" points="93.2881,56.8407 92.4203,64.6508 94.1559,63.7831" stroke="#cdff29" stroke-width="2" /><polyline fill="none" points="73.3288,49.0305 72.0271,51.2 72.461,57.7085" stroke="#ff6700" stroke-width="2" /><polyline fill="none" points="53.3695,59.4441 44.6915,59.0102 39.4847,56.4068 33.8441,55.9729 26.4678,59.4441 20.3932,64.2169 10.8475,73.7627 8.678,78.9695 9.1119,87.2136 15.6203,94.5898 34.278,97.1932 45.1254,94.1559 49.0305,91.9864 57.7085,84.1763 66.8203,69.4237" stroke="#7f0000" stroke-width="2" /></svg>