<?xml version="1.0" encoding="utf-8" ?>
<svg baseProfile="tiny" height="128" version="1.2" viewBox="0,0,128,128" width="128" xmlns="http://www.w3.org/2000/svg" xmlns:ev="http://www.w3.org/2001/xml-events" xmlns:xlink="http://www.w3.org/1999/xlink"><defs /><polyline fill="none" points="36.0136,52.9356 35.1458,38.1831 37.7492,30.8068 41.2203,27.3356 55.1051,55.539" stroke="#00007f" stroke-width="2" /><polyline fill="none" points="61.6136,54.2373 62.0475,46.861 67.6881,32.5424 69.4237,32.9763 72.0271,37.3153 78.5356,52.0678" stroke="#0000de" stroke-width="2" /><polyline fill="none" points="34.278,29.0712 44.6915,28.6373 71.5932,33.4102 75.9322,32.9763" stroke="#0028ff" stroke-width="2" /><polyline fill="none" points="30.3729,35.5797 8.678,41.6542" stroke="#0080ff" stroke-width="2" /><polyline fill="none" points="75.4983,34.278 78.1017,19.0915 79.8373,13.8847 82.8746,9.9797 93.2881,8.678 97.6271,15.1864 97.6271,22.9966 92.8542,29.0712 88.0814,31.2407 83.3085,32.1085 78.5356,28.6373" stroke="#00d4ff" stroke-width="2" /><polyline fill="none" points="81.139,19.5254 81.139,19.5254" stroke="#36ffc0" stroke-width="2" /><polyline fill="none" points="85.9119,24.7322 63.7831,22.1288" stroke="#7cff79" stroke-width="2" /><polyline fill="none" points="83.7424,22.1288 75.4983,25.6 71.1593,25.6" stroke="#c0ff36" stroke-width="2" /><polyline fill="none" points="81.139,26.0339 69.8576,19.5254" stroke="#ffe500" stroke-width="2" /><polyline fill="none" points="86.7797,21.261 101.5322,22.5627 119.322,20.3932" stroke="#ff9400" stroke-width="2" /><polyline fill="none" points="88.9492,32.1085 100.2305,34.7119 110.6441,32.9763" stroke="#ff4600" stroke-width="2" /><polyline fill="none" points="90.2508,21.6949 98.4949,26.9017 108.4746,30.3729" stroke="#de0000" stroke-width="2" /><polyline fill="none" points="91.9864,14.7525 91.9864,14.7525" stroke="#7f0000" stroke-width="2" /></svg>