<?xml version="1.0" encoding="utf-8" ?>
<svg baseProfile="tiny" height="128" version="1.2" viewBox="0,0,128,128" width="128" xmlns="http://www.w3.org/2000/svg" xmlns:ev="http://www.w3.org/2001/xml-events" xmlns:xlink="http://www.w3.org/1999/xlink"><defs /><polyline fill="none" points="52.0678,23.4305 40.3525,17.3559 26.9017,16.4881 23.8644,17.3559 19.5254,20.3932 18.2237,27.3356 25.1661,34.7119 27.7695,35.5797" stroke="#00007f" stroke-width="2" /><polyline fill="none" points="49.8983,19.9593 59.878,30.8068 66.3864,32.1085 83.3085,32.1085 86.3458,30.8068 98.4949,12.1492 103.2678,9.5458 110.6441,8.678 114.1153,11.7153 114.9831,19.9593 105.4373,36.0136" stroke="#0000f1" stroke-width="2" /><polyline fill="none" points="24.7322,34.7119 29.5051,35.1458 34.7119,39.9186 32.1085,47.2949 31.6746,58.5763 37.3153,67.2542 49.8983,77.6678 66.8203,82.8746 81.139,82.4407 93.2881,75.4983 96.7593,70.7254 102.4,55.539 104.1356,44.2576 104.1356,36.4475 103.7017,34.278 102.8339,35.1458" stroke="#004cff" stroke-width="2" /><polyline fill="none" points="52.5017,48.5966 53.8034,49.8983 55.9729,49.8983 55.539,47.7288" stroke="#00b0ff" stroke-width="2" /><polyline fill="none" points="78.5356,48.5966 74.1966,51.2 76.3661,53.8034 79.8373,53.8034 79.4034,51.6339 75.9322,51.2 74.6305,52.9356" stroke="#29ffcd" stroke-width="2" /><polyline fill="none" points="59.4441,68.5559 61.6136,69.8576 72.8949,70.7254" stroke="#7cff79" stroke-width="2" /><polyline fill="none" points="61.6136,60.7458 53.3695,60.3119 43.3898,62.4814 19.0915,71.5932" stroke="#cdff29" stroke-width="2" /><polyline fill="none" points="61.6136,64.2169 79.8373,66.8203 118.8881,68.9898" stroke="#ffc400" stroke-width="2" /><polyline fill="none" points="62.4814,61.6136 79.8373,59.0102 119.322,57.7085" stroke="#ff6700" stroke-width="2" /><polyline fill="none" points="56.4068,59.0102 55.1051,56.8407 27.7695,56.4068 19.9593,57.7085 9.5458,61.6136" stroke="#f10700" stroke-width="2" /><polyline fill="none" points="57.2746,60.7458 30.8068,71.5932 8.678,85.0441" stroke="#7f0000" stroke-width="2" /></svg>