<?xml version="1.0" encoding="utf-8" ?>
<svg baseProfile="tiny" height="128" version="1.2" viewBox="0,0,128,128" width="128" xmlns="http://www.w3.org/2000/svg" xmlns:ev="http://www.w3.org/2001/xml-events" xmlns:xlink="http://www.w3.org/1999/xlink"><defs /><polyline fill="none" points="75.4983,29.0712 91.5525,13.0169 99.3627,8.678 101.9661,8.678 104.5695,10.4136 104.5695,16.922 102.4,22.5627 93.2881,39.4847 82.4407,30.3729 64.6508,27.7695 47.2949,30.3729 40.3525,35.5797 38.6169,41.6542 39.9186,49.8983 45.9932,56.4068 53.3695,61.1797 67.6881,63.3492 73.3288,62.4814 79.8373,58.1424 92.8542,44.2576 92.4203,38.1831 89.8169,36.0136" stroke="#00007f" stroke-width="2" /><polyline fill="none" points="52.0678,29.0712 41.2203,21.261 34.7119,18.6576 28.6373,19.0915 22.1288,24.2983 20.3932,28.6373 22.5627,34.278 29.5051,39.0508 38.6169,42.522 40.3525,45.5593" stroke="#0000d1" stroke-width="2" /><polyline fill="none" points="61.1797,61.6136 47.7288,58.1424 39.9186,59.4441 33.8441,63.3492 29.5051,68.9898 28.6373,72.0271 29.939,76.8 36.0136,82.0068 42.9559,85.0441 59.0102,85.9119 72.461,83.7424 82.0068,76.8 85.0441,72.461 86.3458,66.8203 84.1763,60.3119 78.5356,56.8407 72.8949,55.9729" stroke="#0010ff" stroke-width="2" /><polyline fill="none" points="56.4068,66.8203 55.1051,71.5932 56.8407,76.3661 61.1797,78.9695 65.0847,77.6678 66.3864,73.7627 63.7831,70.2915 57.2746,67.2542 55.1051,68.122" stroke="#0058ff" stroke-width="2" /><polyline fill="none" points="88.0814,60.7458 86.7797,61.6136 86.7797,60.3119 92.4203,55.1051 101.0983,48.1627" stroke="#00a4ff" stroke-width="2" /><polyline fill="none" points="21.6949,52.9356 32.1085,64.2169 33.8441,69.4237" stroke="#05ecf1" stroke-width="2" /><polyline fill="none" points="37.3153,83.7424 31.2407,85.9119 13.4508,98.9288" stroke="#3fffb7" stroke-width="2" /><polyline fill="none" points="68.5559,82.8746 73.3288,81.5729 80.2712,85.0441 92.4203,94.1559 95.4576,94.5898 97.1932,92.8542" stroke="#7cff79" stroke-width="2" /><polyline fill="none" points="91.9864,22.1288 97.6271,17.3559 98.4949,16.922 99.7966,19.0915 96.7593,25.6 89.3831,31.2407" stroke="#b7ff3f" stroke-width="2" /><polyline fill="none" points="31.6746,23.8644 39.4847,29.5051 36.8814,26.4678 32.5424,24.7322 29.5051,24.7322 30.3729,28.6373 41.2203,36.4475" stroke="#f1fc05" stroke-width="2" /><polyline fill="none" points="46.861,49.0305 27.7695,52.0678 8.678,59.878" stroke="#ffb900" stroke-width="2" /><polyline fill="none" points="48.5966,56.8407 29.5051,58.5763 21.6949,63.3492" stroke="#ff7300" stroke-width="2" /><polyline fill="none" points="51.2,59.878 36.8814,68.5559 31.2407,77.6678" stroke="#ff3000" stroke-width="2" /><polyline fill="none" points="90.2508,48.1627 87.6475,46.4271 93.2881,45.5593 119.322,48.1627" stroke="#d10000" stroke-width="2" /><polyline fill="none" points="91.9864,48.1627 97.1932,48.5966 102.8339,50.7661" stroke="#7f0000" stroke-width="2" /></svg>