<?xml version="1.0" encoding="utf-8" ?>
<svg baseProfile="tiny" height="128" version="1.2" viewBox="0,0,128,128" width="128" xmlns="http://www.w3.org/2000/svg" xmlns:ev="http://www.w3.org/2001/xml-events" xmlns:xlink="http://www.w3.org/1999/xlink"><defs /><polyline fill="none" points="43.3898,46.861 35.5797,46.4271 26.0339,51.6339 13.4508,64.6508 9.9797,70.2915 8.678,76.8 8.678,89.3831 9.9797,93.722 16.0542,102.4 24.7322,109.7763 42.0881,117.1525 55.539,119.322 72.8949,118.4542 90.6847,105.8712 99.3627,87.2136 102.4,65.0847 100.2305,62.0475 86.3458,55.1051 55.9729,46.4271 35.1458,44.6915" stroke="#00007f" stroke-width="2" /><polyline fill="none" points="67.6881,43.3898 91.5525,9.9797 91.9864,21.261 88.9492,55.1051" stroke="#004cff" stroke-width="2" /><polyline fill="none" points="15.6203,55.539 15.1864,8.678 31.2407,26.9017 46.4271,39.0508" stroke="#29ffcd" stroke-width="2" /><polyline fill="none" points="41.6542,60.3119 39.4847,59.4441 30.3729,64.6508 28.2034,69.4237 28.2034,72.8949 32.1085,76.3661 40.7864,78.1017 45.5593,77.6678 47.2949,73.7627 47.7288,68.5559 40.7864,62.4814" stroke="#cdff29" stroke-width="2" /><polyline fill="none" points="82.4407,68.9898 74.1966,70.7254 72.461,74.6305 72.0271,84.6102 74.6305,88.9492 76.8,89.8169 80.7051,88.0814 82.4407,72.8949 80.7051,65.0847 78.1017,64.6508 75.9322,65.9525" stroke="#ff6700" stroke-width="2" /><polyline fill="none" points="29.939,89.8169 33.8441,92.4203 48.5966,93.722 55.1051,93.722 65.0847,91.1186" stroke="#7f0000" stroke-width="2" /></svg>