<?xml version="1.0" encoding="utf-8" ?>
<svg baseProfile="tiny" height="128" version="1.2" viewBox="0,0,128,128" width="128" xmlns="http://www.w3.org/2000/svg" xmlns:ev="http://www.w3.org/2001/xml-events" xmlns:xlink="http://www.w3.org/1999/xlink"><defs /><polyline fill="none" points="39.0508,61.1797 36.0136,63.3492 35.1458,68.5559 41.6542,83.7424 50.3322,92.4203 57.7085,97.1932 68.5559,99.7966 79.8373,96.3254 88.5153,91.5525 94.1559,87.2136 98.9288,81.139 100.6644,70.7254 97.6271,56.8407 95.0237,54.6712" stroke="#00007f" stroke-width="2" /><polyline fill="none" points="38.1831,59.0102 32.5424,53.8034 29.939,48.1627 28.2034,30.8068 47.7288,44.2576 51.2,48.5966 68.122,48.5966 84.1763,16.922 91.9864,8.678 93.2881,10.8475 98.9288,42.0881 99.3627,56.4068" stroke="#0000e8" stroke-width="2" /><polyline fill="none" points="82.4407,77.2339 101.9661,60.3119 118.8881,48.5966" stroke="#0038ff" stroke-width="2" /><polyline fill="none" points="87.6475,87.2136 104.1356,78.5356 119.322,76.3661" stroke="#0094ff" stroke-width="2" /><polyline fill="none" points="88.9492,92.8542 110.6441,91.5525" stroke="#0cf4ea" stroke-width="2" /><polyline fill="none" points="45.5593,75.9322 32.5424,72.8949 8.678,71.5932" stroke="#56ffa0" stroke-width="2" /><polyline fill="none" points="49.4644,84.1763 30.3729,87.2136 19.5254,91.1186" stroke="#a0ff56" stroke-width="2" /><polyline fill="none" points="32.9763,104.1356 57.2746,87.2136" stroke="#eaff0c" stroke-width="2" /><polyline fill="none" points="59.878,68.122 60.3119,67.6881" stroke="#ffaa00" stroke-width="2" /><polyline fill="none" points="72.0271,67.6881 72.0271,67.6881" stroke="#ff5500" stroke-width="2" /><polyline fill="none" points="57.7085,82.0068 63.7831,87.6475 68.9898,86.3458 73.7627,78.1017 74.1966,69.4237" stroke="#e80000" stroke-width="2" /><polyline fill="none" points="62.9153,75.0644 64.6508,89.8169" stroke="#7f0000" stroke-width="2" /></svg>