<?xml version="1.0" encoding="utf-8" ?>
<svg baseProfile="tiny" height="128" version="1.2" viewBox="0,0,128,128" width="128" xmlns="http://www.w3.org/2000/svg" xmlns:ev="http://www.w3.org/2001/xml-events" xmlns:xlink="http://www.w3.org/1999/xlink"><defs /><polyline fill="none" points="30.3729,111.078 23.8644,105.8712 17.3559,95.8915 13.8847,87.2136 11.2814,71.1593 12.1492,65.9525 20.8271,45.5593 31.2407,34.7119 52.9356,22.5627 65.5186,20.3932 83.3085,22.9966 92.4203,26.9017 101.5322,35.5797 106.3051,43.8237 108.0407,55.1051 107.1729,67.6881 103.2678,85.0441 97.6271,95.0237 90.6847,101.9661 75.0644,111.5119 63.3492,114.9831 52.5017,115.4169 40.3525,113.6814 35.5797,112.3797 34.7119,108.4746" stroke="#00007f" stroke-width="2" /><polyline fill="none" points="92.4203,27.7695 105.8712,16.4881 119.322,8.678 114.5492,38.1831 108.4746,53.3695" stroke="#0000fe" stroke-width="2" /><polyline fill="none" points="42.522,29.0712 37.3153,28.2034 8.678,16.922 8.678,23.4305 20.3932,57.7085" stroke="#0060ff" stroke-width="2" /><polyline fill="none" points="79.4034,56.8407 79.4034,56.8407" stroke="#00d4ff" stroke-width="2" /><polyline fill="none" points="54.6712,61.6136 54.6712,61.6136" stroke="#4cffaa" stroke-width="2" /><polyline fill="none" points="62.0475,80.2712 66.8203,78.9695 58.1424,91.1186 53.3695,94.1559 50.3322,93.2881" stroke="#aaff4c" stroke-width="2" /><polyline fill="none" points="68.9898,81.5729 69.4237,87.2136 72.0271,91.5525 77.2339,91.5525" stroke="#ffe500" stroke-width="2" /><polyline fill="none" points="84.1763,78.1017 100.6644,68.122 108.4746,61.1797" stroke="#ff7a00" stroke-width="2" /><polyline fill="none" points="87.2136,86.7797 95.0237,84.6102 106.739,86.3458" stroke="#fe1200" stroke-width="2" /><polyline fill="none" points="92.8542,96.3254 101.0983,102.8339" stroke="#7f0000" stroke-width="2" /></svg>