<?xml version="1.0" encoding="utf-8" ?>
<svg baseProfile="tiny" height="128" version="1.2" viewBox="0,0,128,128" width="128" xmlns="http://www.w3.org/2000/svg" xmlns:ev="http://www.w3.org/2001/xml-events" xmlns:xlink="http://www.w3.org/1999/xlink"><defs /><polyline fill="none" points="19.0915,29.939 21.6949,11.7153 32.1085,27.3356 37.7492,8.678 45.1254,26.9017 49.0305,23.8644 52.5017,23.8644 57.7085,29.5051 59.4441,40.3525 56.4068,45.1254 52.0678,47.7288 37.7492,53.3695 24.2983,54.2373 16.4881,52.5017 10.4136,48.1627 8.678,37.7492 9.1119,34.278 12.1492,29.5051 16.922,27.7695" stroke="#00007f" stroke-width="2" /><polyline fill="none" points="22.9966,41.2203 25.1661,47.2949 32.1085,49.4644 38.1831,47.7288 40.3525,41.6542" stroke="#0000ff" stroke-width="2" /><polyline fill="none" points="20.3932,45.5593 19.9593,43.8237 22.1288,42.0881 29.939,40.3525" stroke="#0080ff" stroke-width="2" /><polyline fill="none" points="38.6169,43.8237 38.6169,42.0881 41.6542,41.2203 45.5593,41.2203 48.5966,43.3898" stroke="#15ffe1" stroke-width="2" /><polyline fill="none" points="21.6949,35.5797 23.8644,33.8441 30.8068,33.4102" stroke="#7cff79" stroke-width="2" /><polyline fill="none" points="36.8814,33.4102 41.6542,31.2407 45.5593,31.2407 48.5966,32.5424" stroke="#e4ff12" stroke-width="2" /><polyline fill="none" points="26.4678,54.6712 24.2983,58.5763 23.8644,75.0644 26.0339,81.5729 29.939,84.6102 42.9559,89.3831 48.5966,88.9492 60.7458,85.478 75.0644,84.6102" stroke="#ff9400" stroke-width="2" /><polyline fill="none" points="59.878,39.9186 68.122,55.9729 70.7254,58.1424 75.0644,59.4441 108.0407,42.522 111.5119,42.9559 117.5864,49.0305 119.322,52.9356 115.8508,67.2542 111.9458,76.3661 107.6068,81.139 86.7797,86.7797 79.4034,86.7797 69.8576,84.6102" stroke="#ff1d00" stroke-width="2" /><polyline fill="none" points="45.9932,85.9119 45.9932,86.7797" stroke="#7f0000" stroke-width="2" /></svg>