<?xml version="1.0" encoding="utf-8" ?>
<svg baseProfile="tiny" height="128" version="1.2" viewBox="0,0,128,128" width="128" xmlns="http://www.w3.org/2000/svg" xmlns:ev="http://www.w3.org/2001/xml-events" xmlns:xlink="http://www.w3.org/1999/xlink"><defs /><polyline fill="none" points="44.2576,32.1085 32.5424,34.7119 23.8644,45.1254 20.8271,58.1424 23.4305,75.4983 27.3356,81.139 34.7119,85.0441 50.3322,87.6475 61.1797,86.7797 66.8203,82.8746 85.0441,61.6136 85.9119,56.4068 77.2339,44.2576 68.122,38.1831 55.9729,33.8441 44.6915,32.1085" stroke="#00007f" stroke-width="2" /><polyline fill="none" points="26.4678,38.6169 31.6746,32.1085 43.8237,8.678 42.9559,31.6746" stroke="#0000fe" stroke-width="2" /><polyline fill="none" points="59.878,35.5797 63.3492,32.5424 75.0644,16.922 81.5729,14.3186 82.4407,33.8441 80.7051,46.861" stroke="#0060ff" stroke-width="2" /><polyline fill="none" points="48.1627,55.9729 46.861,61.1797 51.6339,60.7458 52.5017,55.9729 48.5966,55.539" stroke="#00d4ff" stroke-width="2" /><polyline fill="none" points="41.2203,59.4441 25.6,61.6136 8.678,62.0475" stroke="#4cffaa" stroke-width="2" /><polyline fill="none" points="38.6169,54.6712 33.4102,56.8407 22.1288,57.2746" stroke="#aaff4c" stroke-width="2" /><polyline fill="none" points="64.6508,58.5763 119.322,64.2169" stroke="#ffe500" stroke-width="2" /><polyline fill="none" points="65.0847,64.6508 86.7797,68.5559 110.6441,68.9898" stroke="#ff7a00" stroke-width="2" /><polyline fill="none" points="42.9559,44.2576 32.1085,48.1627 29.0712,50.3322 31.2407,50.3322" stroke="#fe1200" stroke-width="2" /><polyline fill="none" points="42.9559,47.2949 43.8237,47.2949" stroke="#7f0000" stroke-width="2" /></svg>