<?xml version="1.0" encoding="utf-8" ?>
<svg baseProfile="tiny" height="128" version="1.2" viewBox="0,0,128,128" width="128" xmlns="http://www.w3.org/2000/svg" xmlns:ev="http://www.w3.org/2001/xml-events" xmlns:xlink="http://www.w3.org/1999/xlink"><defs /><polyline fill="none" points="28.2034,18.6576 42.0881,35.1458 52.9356,32.1085 68.122,30.8068 70.7254,26.4678 75.0644,8.678 76.3661,9.5458 83.3085,25.1661 87.2136,43.3898 87.2136,53.3695 85.478,59.878 80.2712,64.2169 72.8949,65.9525 57.2746,67.6881 37.7492,67.6881 29.0712,56.4068 24.2983,46.861 23.4305,39.9186 26.4678,20.3932" stroke="#00007f" stroke-width="2" /><polyline fill="none" points="40.7864,45.5593 39.9186,44.2576 41.2203,43.8237 42.522,46.861 41.2203,48.5966 40.7864,47.2949" stroke="#0010ff" stroke-width="2" /><polyline fill="none" points="67.2542,39.9186 68.122,41.2203 67.2542,41.6542 66.8203,40.3525 66.3864,42.0881" stroke="#00a4ff" stroke-width="2" /><polyline fill="none" points="57.2746,53.3695 55.539,55.539 56.8407,58.5763 56.4068,62.9153 52.0678,65.9525 45.9932,65.9525 41.6542,61.1797" stroke="#3fffb7" stroke-width="2" /><polyline fill="none" points="57.2746,56.4068 61.1797,63.3492 64.6508,65.5186 70.2915,65.0847 72.461,63.3492 74.6305,57.2746" stroke="#b7ff3f" stroke-width="2" /><polyline fill="none" points="55.539,52.5017 90.2508,33.4102 105.8712,27.7695" stroke="#ffb900" stroke-width="2" /><polyline fill="none" points="57.7085,52.0678 86.7797,48.5966 119.322,48.5966" stroke="#ff3000" stroke-width="2" /><polyline fill="none" points="55.539,55.1051 34.7119,52.5017 8.678,52.0678" stroke="#7f0000" stroke-width="2" /></svg>