<?xml version="1.0" encoding="utf-8" ?>
<svg baseProfile="tiny" height="128" version="1.2" viewBox="0,0,128,128" width="128" xmlns="http://www.w3.org/2000/svg" xmlns:ev="http://www.w3.org/2001/xml-events" xmlns:xlink="http://www.w3.org/1999/xlink"><defs /><polyline fill="none" points="22.9966,46.861 16.922,52.0678 13.0169,64.2169 12.5831,75.9322 15.6203,89.8169 21.261,100.2305 26.9017,105.8712 33.4102,109.3424 44.2576,111.5119 52.0678,110.6441 60.7458,107.6068 72.0271,99.7966 78.9695,93.722 86.3458,82.4407 89.8169,72.0271 90.2508,65.5186 88.5153,59.878 82.4407,53.3695 63.3492,40.7864 49.4644,37.7492 41.6542,37.7492 38.1831,39.0508 32.9763,45.1254 32.5424,46.861 33.8441,48.5966 39.4847,49.0305 48.5966,44.6915 61.6136,13.4508 65.5186,8.678 70.2915,26.4678 72.461,44.2576 74.6305,49.0305 75.4983,47.7288" stroke="#00007f" stroke-width="2" /><polyline fill="none" points="35.5797,45.1254 27.7695,37.3153 16.0542,21.6949 10.8475,18.2237 9.1119,26.9017 10.4136,40.7864 13.4508,54.2373 18.6576,59.878" stroke="#0000e8" stroke-width="2" /><polyline fill="none" points="37.3153,69.4237 37.3153,69.4237" stroke="#0038ff" stroke-width="2" /><polyline fill="none" points="62.9153,64.6508 62.9153,64.6508" stroke="#0094ff" stroke-width="2" /><polyline fill="none" points="35.5797,68.5559 35.5797,68.5559" stroke="#0cf4ea" stroke-width="2" /><polyline fill="none" points="62.4814,59.878 61.1797,63.7831" stroke="#56ffa0" stroke-width="2" /><polyline fill="none" points="56.8407,82.4407 84.6102,63.7831 88.9492,61.6136 93.722,61.6136" stroke="#a0ff56" stroke-width="2" /><polyline fill="none" points="41.6542,81.139 33.4102,75.9322 13.4508,71.5932" stroke="#eaff0c" stroke-width="2" /><polyline fill="none" points="42.0881,85.478 14.3186,91.1186 8.678,98.4949" stroke="#ffaa00" stroke-width="2" /><polyline fill="none" points="42.0881,88.0814 31.2407,95.8915 26.0339,101.0983 15.6203,119.322" stroke="#ff5500" stroke-width="2" /><polyline fill="none" points="64.2169,83.3085 98.4949,75.9322" stroke="#e80000" stroke-width="2" /><polyline fill="none" points="66.8203,83.3085 84.1763,91.9864 107.1729,98.061" stroke="#7f0000" stroke-width="2" /></svg>