<?xml version="1.0" encoding="utf-8" ?>
<svg baseProfile="tiny" height="128" version="1.2" viewBox="0,0,128,128" width="128" xmlns="http://www.w3.org/2000/svg" xmlns:ev="http://www.w3.org/2001/xml-events" xmlns:xlink="http://www.w3.org/1999/xlink"><defs /><polyline fill="none" points="29.5051,23.8644 14.3186,59.0102 12.5831,66.8203 15.1864,71.1593 20.3932,75.9322 35.5797,85.478 46.4271,87.2136 70.2915,87.2136 89.8169,83.3085 106.739,76.8 113.6814,72.461 118.0203,66.8203 119.322,52.5017 116.7186,45.9932 105.8712,31.2407 99.7966,26.9017 91.5525,24.2983 78.9695,24.2983 76.8,12.5831 74.6305,9.5458 71.5932,8.678 66.8203,8.678 62.4814,11.2814 62.4814,16.922 65.0847,22.5627 63.3492,23.8644 51.2,23.8644 46.4271,14.7525 39.9186,11.7153 35.5797,11.7153 30.3729,21.261 29.939,26.4678 31.2407,27.3356" stroke="#00007f" stroke-width="2" /><polyline fill="none" points="49.0305,40.7864 49.0305,40.7864" stroke="#0000d5" stroke-width="2" /><polyline fill="none" points="44.2576,40.7864 30.8068,43.3898 25.6,45.9932 25.6,47.7288 26.9017,48.5966 43.8237,52.0678 57.2746,51.2 62.4814,49.0305 63.3492,47.7288 61.1797,44.2576 58.1424,42.0881 45.9932,39.4847" stroke="#001cff" stroke-width="2" /><polyline fill="none" points="82.0068,35.5797 62.0475,43.8237 60.3119,45.1254 59.4441,48.1627 64.2169,51.2 75.0644,51.2 82.8746,49.4644 87.2136,47.2949 95.8915,38.6169 90.6847,37.3153 75.9322,38.1831" stroke="#006cff" stroke-width="2" /><polyline fill="none" points="62.4814,58.1424 53.3695,62.0475 50.7661,65.0847 51.6339,66.8203 59.878,68.9898 66.3864,68.9898 68.9898,67.6881 69.8576,65.5186 69.4237,60.3119 66.8203,58.1424 63.3492,57.2746" stroke="#00b8ff" stroke-width="2" /><polyline fill="none" points="59.4441,68.9898 57.2746,75.9322 50.7661,79.4034 45.9932,78.9695 42.0881,76.8 39.4847,73.3288 39.9186,71.5932 42.0881,71.1593" stroke="#1cffda" stroke-width="2" /><polyline fill="none" points="59.0102,71.1593 64.2169,76.8 73.7627,78.5356 77.2339,77.6678 80.7051,72.8949 80.7051,71.5932 75.9322,69.8576" stroke="#5cff9a" stroke-width="2" /><polyline fill="none" points="68.9898,60.7458 78.1017,60.7458 105.0034,54.6712 114.5492,50.3322 117.1525,47.2949 114.9831,46.861" stroke="#9aff5c" stroke-width="2" /><polyline fill="none" points="67.6881,61.1797 88.0814,66.3864 105.8712,66.3864 107.1729,65.9525 107.1729,64.6508" stroke="#daff1c" stroke-width="2" /><polyline fill="none" points="57.2746,63.3492 57.2746,63.3492" stroke="#ffcb00" stroke-width="2" /><polyline fill="none" points="57.2746,63.3492 32.9763,64.2169 14.3186,67.2542" stroke="#ff8500" stroke-width="2" /><polyline fill="none" points="56.4068,62.4814 32.5424,62.4814 22.5627,60.7458 8.678,61.6136" stroke="#ff3b00" stroke-width="2" /><polyline fill="none" points="50.3322,45.5593 49.4644,45.1254" stroke="#d50000" stroke-width="2" /><polyline fill="none" points="81.139,43.3898 81.139,43.3898" stroke="#7f0000" stroke-width="2" /></svg>