<?xml version="1.0" encoding="utf-8" ?>
<svg baseProfile="tiny" height="128" version="1.2" viewBox="0,0,128,128" width="128" xmlns="http://www.w3.org/2000/svg" xmlns:ev="http://www.w3.org/2001/xml-events" xmlns:xlink="http://www.w3.org/1999/xlink"><defs /><polyline fill="none" points="78.9695,56.4068 77.2339,50.7661 73.3288,46.861 62.9153,42.0881 60.7458,45.1254 56.8407,42.522 49.8983,43.3898 41.2203,50.7661 36.4475,61.1797 33.8441,80.7051 36.4475,91.5525 43.3898,101.0983 50.7661,105.0034 57.7085,106.3051 65.0847,106.3051 75.9322,103.7017 82.8746,100.6644 93.2881,91.9864 98.061,84.1763 100.6644,77.2339 100.6644,58.5763 98.061,51.6339 90.6847,41.6542 80.7051,35.5797 74.1966,34.7119 64.2169,35.5797 56.4068,39.4847" stroke="#00007f" stroke-width="2" /><polyline fill="none" points="59.878,58.1424 59.4441,63.7831" stroke="#0000de" stroke-width="2" /><polyline fill="none" points="74.1966,56.4068 73.7627,62.9153" stroke="#0028ff" stroke-width="2" /><polyline fill="none" points="65.5186,71.5932 64.2169,85.0441 61.6136,89.8169 57.2746,90.6847 54.6712,82.4407" stroke="#0080ff" stroke-width="2" /><polyline fill="none" points="65.9525,71.5932 62.9153,83.3085 64.6508,89.3831 67.6881,91.1186 70.7254,90.6847 75.9322,87.6475 78.9695,82.4407" stroke="#00d4ff" stroke-width="2" /><polyline fill="none" points="87.6475,72.0271 119.322,73.3288" stroke="#36ffc0" stroke-width="2" /><polyline fill="none" points="86.7797,79.8373 114.5492,82.8746" stroke="#7cff79" stroke-width="2" /><polyline fill="none" points="85.0441,85.9119 115.8508,95.0237" stroke="#c0ff36" stroke-width="2" /><polyline fill="none" points="45.5593,71.5932 28.2034,69.8576 8.678,73.3288" stroke="#ffe500" stroke-width="2" /><polyline fill="none" points="42.0881,75.4983 20.8271,78.5356 12.1492,82.0068" stroke="#ff9400" stroke-width="2" /><polyline fill="none" points="43.3898,85.9119 27.7695,88.5153 14.7525,92.4203" stroke="#ff4600" stroke-width="2" /><polyline fill="none" points="39.4847,46.861 42.9559,8.678 47.2949,23.4305 49.8983,40.7864" stroke="#de0000" stroke-width="2" /><polyline fill="none" points="79.8373,34.7119 81.5729,30.8068" stroke="#7f0000" stroke-width="2" /></svg>