<?xml version="1.0" encoding="utf-8" ?>
<svg baseProfile="tiny" height="128" version="1.2" viewBox="0,0,128,128" width="128" xmlns="http://www.w3.org/2000/svg" xmlns:ev="http://www.w3.org/2001/xml-events" xmlns:xlink="http://www.w3.org/1999/xlink"><defs /><polyline fill="none" points="17.3559,60.3119 8.678,77.2339 22.9966,67.2542 35.5797,65.9525 39.4847,66.3864 41.2203,70.2915 37.7492,78.5356 37.7492,93.722 40.3525,99.3627 42.0881,100.2305 45.9932,99.7966 49.4644,95.4576 51.6339,86.7797 52.5017,72.0271 54.6712,70.7254 69.4237,70.2915 71.5932,71.1593 69.4237,86.7797 69.8576,94.5898 74.6305,101.0983 78.5356,101.0983 81.139,96.7593 82.4407,91.1186 81.5729,71.5932" stroke="#00007f" stroke-width="2" /><polyline fill="none" points="15.6203,61.1797 19.5254,57.7085 29.0712,55.539 41.2203,47.2949 51.6339,43.3898 82.0068,43.3898" stroke="#0000d5" stroke-width="2" /><polyline fill="none" points="85.478,74.1966 91.1186,70.7254 91.9864,67.2542 101.0983,61.1797 104.5695,53.8034" stroke="#001cff" stroke-width="2" /><polyline fill="none" points="86.3458,38.6169 84.1763,41.6542 83.3085,47.2949 85.0441,51.6339 88.0814,54.2373 98.4949,56.8407 104.5695,55.9729 108.9085,53.8034 111.9458,47.2949 112.3797,35.1458 108.0407,28.6373 101.0983,25.6 91.1186,25.1661 85.478,28.6373 78.9695,36.8814 77.6678,46.861" stroke="#006cff" stroke-width="2" /><polyline fill="none" points="81.139,33.8441 83.3085,8.678 85.0441,8.678 88.9492,15.1864 91.1186,26.9017" stroke="#00b8ff" stroke-width="2" /><polyline fill="none" points="101.5322,26.4678 105.8712,18.2237 112.3797,11.7153 114.5492,14.7525 114.1153,28.6373" stroke="#1cffda" stroke-width="2" /><polyline fill="none" points="114.9831,26.4678 111.9458,32.5424" stroke="#5cff9a" stroke-width="2" /><polyline fill="none" points="97.6271,43.8237 114.5492,43.8237" stroke="#9aff5c" stroke-width="2" /><polyline fill="none" points="94.5898,44.2576 82.8746,41.6542 70.7254,40.7864" stroke="#daff1c" stroke-width="2" /><polyline fill="none" points="87.6475,48.1627 100.6644,53.3695 105.0034,52.9356 108.0407,49.4644" stroke="#ffcb00" stroke-width="2" /><polyline fill="none" points="101.5322,46.4271 90.6847,45.1254 78.9695,45.5593" stroke="#ff8500" stroke-width="2" /><polyline fill="none" points="94.1559,44.2576 84.1763,45.1254 78.5356,47.7288" stroke="#ff3b00" stroke-width="2" /><polyline fill="none" points="88.9492,42.522 103.7017,45.1254 118.8881,45.1254" stroke="#d50000" stroke-width="2" /><polyline fill="none" points="119.322,49.4644 115.8508,49.8983" stroke="#7f0000" stroke-width="2" /></svg>