<?xml version="1.0" encoding="utf-8" ?>
<svg baseProfile="tiny" height="128" version="1.2" viewBox="0,0,128,128" width="128" xmlns="http://www.w3.org/2000/svg" xmlns:ev="http://www.w3.org/2001/xml-events" xmlns:xlink="http://www.w3.org/1999/xlink"><defs /><polyline fill="none" points="37.3153,70.2915 31.6746,59.0102 22.9966,26.9017 22.9966,16.922 26.9017,8.678 30.3729,9.5458 40.3525,23.8644 42.522,25.1661 51.6339,18.2237 62.0475,17.7898 89.3831,29.5051 95.8915,20.3932 106.3051,13.8847 107.6068,22.9966 108.0407,33.8441 106.739,45.9932 99.7966,58.5763 91.9864,67.2542 75.9322,77.2339 69.8576,78.5356 57.7085,78.9695 44.2576,76.8 33.8441,72.0271" stroke="#00007f" stroke-width="2" /><polyline fill="none" points="62.4814,55.1051 61.1797,54.2373" stroke="#0000ff" stroke-width="2" /><polyline fill="none" points="49.4644,52.0678 32.5424,56.8407 16.922,62.9153 8.678,64.2169" stroke="#0080ff" stroke-width="2" /><polyline fill="none" points="36.0136,48.5966 9.1119,47.7288" stroke="#15ffe1" stroke-width="2" /><polyline fill="none" points="79.4034,50.7661 104.1356,49.8983" stroke="#7cff79" stroke-width="2" /><polyline fill="none" points="105.4373,49.4644 105.4373,49.4644" stroke="#e4ff12" stroke-width="2" /><polyline fill="none" points="78.9695,56.8407 86.3458,62.4814 97.1932,66.8203 116.7186,69.4237" stroke="#ff9400" stroke-width="2" /><polyline fill="none" points="101.5322,51.2 119.322,47.2949" stroke="#ff1d00" stroke-width="2" /><polyline fill="none" points="119.322,47.2949 119.322,47.2949" stroke="#7f0000" stroke-width="2" /></svg>