<?xml version="1.0" encoding="utf-8" ?>
<svg baseProfile="tiny" height="128" version="1.2" viewBox="0,0,128,128" width="128" xmlns="http://www.w3.org/2000/svg" xmlns:ev="http://www.w3.org/2001/xml-events" xmlns:xlink="http://www.w3.org/1999/xlink"><defs /><polyline fill="none" points="45.2789,34.8299 49.1973,30.0408 61.8231,29.1701 73.1429,35.2653 80.9796,22.6395 87.0748,43.102 85.3333,55.7279 81.415,70.5306 76.6259,75.7551 63.1293,79.6735 52.2449,80.5442 37.8776,74.449 20.898,59.2109 15.2381,37.0068 14.8027,16.5442" stroke="#00007f" stroke-width="2" /><polyline fill="none" points="43.9728,35.7007 36.5714,31.3469 27.4286,22.2041 20.898,20.4626 9.1429,8.7075 8.7075,12.6259" stroke="#0010ff" stroke-width="2" /><polyline fill="none" points="33.9592,39.1837 37.0068,46.1497 40.4898,46.1497 41.7959,43.102 40.4898,40.4898 33.9592,37.4422" stroke="#00a4ff" stroke-width="2" /><polyline fill="none" points="69.2245,41.7959 67.9184,41.7959 67.9184,43.9728 71.4014,47.8912 74.449,49.1973 77.4966,47.4558 77.0612,41.3605 70.0952,39.1837" stroke="#3fffb7" stroke-width="2" /><polyline fill="none" points="50.068,63.1293 64.0,58.3401 90.9932,54.8571" stroke="#b7ff3f" stroke-width="2" /><polyline fill="none" points="60.9524,68.7891 72.7075,76.1905 96.2177,83.5918 119.2925,85.7687" stroke="#ffb900" stroke-width="2" /><polyline fill="none" points="50.068,63.1293 64.8707,67.483" stroke="#ff3000" stroke-width="2" /><polyline fill="none" points="51.3741,62.2585 68.3537,64.4354 94.4762,70.5306 106.6667,71.4014" stroke="#7f0000" stroke-width="2" /></svg>