<?xml version="1.0" encoding="utf-8" ?>
<svg baseProfile="tiny" height="128" version="1.2" viewBox="0,0,128,128" width="128" xmlns="http://www.w3.org/2000/svg" xmlns:ev="http://www.w3.org/2001/xml-events" xmlns:xlink="http://www.w3.org/1999/xlink"><defs /><polyline fill="none" points="48.1627,52.9356 49.0305,49.4644 59.0102,45.1254 81.5729,42.9559 94.5898,44.2576 105.0034,51.2 111.5119,62.4814 112.8136,75.0644 111.9458,81.5729 108.4746,87.2136 97.1932,97.6271 79.4034,108.9085 70.2915,113.6814 62.0475,115.4169 52.9356,115.4169 44.2576,112.8136 37.3153,108.0407 24.7322,87.6475 24.2983,73.3288 27.3356,66.3864 33.8441,59.878 42.0881,54.2373 52.0678,49.8983" stroke="#00007f" stroke-width="2" /><polyline fill="none" points="101.9661,42.9559 101.5322,35.1458 109.7763,19.0915 117.1525,8.678 119.322,12.5831 117.5864,64.2169" stroke="#0028ff" stroke-width="2" /><polyline fill="none" points="48.5966,53.3695 39.0508,43.8237 28.6373,37.7492 8.678,29.0712 16.4881,45.1254 22.9966,64.6508 29.5051,77.6678" stroke="#00d4ff" stroke-width="2" /><polyline fill="none" points="48.5966,65.5186 49.0305,62.9153 51.6339,61.6136 59.878,60.3119 66.8203,66.3864 66.8203,71.5932 63.3492,77.6678 53.3695,84.1763 44.6915,85.0441 40.3525,76.8 40.3525,71.1593 41.2203,66.3864 43.3898,62.4814 49.0305,59.4441" stroke="#7cff79" stroke-width="2" /><polyline fill="none" points="85.0441,52.5017 94.5898,51.2 98.4949,55.1051 98.9288,59.0102 93.2881,69.4237 89.8169,72.8949 80.7051,75.4983 74.6305,75.4983 69.4237,68.9898 69.4237,63.7831 74.6305,53.3695 79.4034,51.2" stroke="#ffe500" stroke-width="2" /><polyline fill="none" points="59.878,77.2339 60.7458,92.4203" stroke="#ff4600" stroke-width="2" /><polyline fill="none" points="69.8576,75.9322 70.2915,91.5525" stroke="#7f0000" stroke-width="2" /></svg>