<?xml version="1.0" encoding="utf-8" ?>
<svg baseProfile="tiny" height="128" version="1.2" viewBox="0,0,128,128" width="128" xmlns="http://www.w3.org/2000/svg" xmlns:ev="http://www.w3.org/2001/xml-events" xmlns:xlink="http://www.w3.org/1999/xlink"><defs /><polyline fill="none" points="24.2983,41.2203 20.8271,37.3153 21.261,22.5627 23.4305,21.261 27.3356,25.1661 32.9763,35.1458 42.0881,32.1085 65.0847,29.0712 63.3492,15.1864 65.5186,10.8475 69.8576,8.678 72.0271,11.2814 73.3288,26.0339 75.0644,26.9017 92.8542,26.9017 101.0983,32.9763 105.0034,43.3898 105.0034,58.5763 96.3254,79.8373 88.5153,88.5153 78.5356,95.0237 62.0475,100.2305 48.1627,100.6644 40.3525,97.1932 30.8068,89.8169 24.7322,82.8746 17.3559,64.6508 16.4881,49.4644 19.9593,42.0881" stroke="#00007f" stroke-width="2" /><polyline fill="none" points="46.861,29.5051 45.5593,31.6746 45.5593,38.6169 47.2949,43.3898 49.8983,45.1254" stroke="#0000de" stroke-width="2" /><polyline fill="none" points="57.2746,32.5424 60.3119,44.2576" stroke="#0028ff" stroke-width="2" /><polyline fill="none" points="18.2237,74.1966 41.2203,68.122" stroke="#0080ff" stroke-width="2" /><polyline fill="none" points="21.6949,92.8542 25.6,91.5525 39.9186,79.8373" stroke="#00d4ff" stroke-width="2" /><polyline fill="none" points="88.9492,61.1797 110.6441,53.3695 119.322,52.5017" stroke="#36ffc0" stroke-width="2" /><polyline fill="none" points="83.3085,76.8 86.3458,74.6305 108.0407,68.5559" stroke="#7cff79" stroke-width="2" /><polyline fill="none" points="45.1254,77.2339 47.7288,79.8373 53.3695,82.0068 60.7458,81.5729 63.3492,77.6678 64.6508,73.7627 71.1593,77.2339 78.9695,77.6678 83.7424,71.5932 82.8746,65.0847 80.2712,63.7831" stroke="#c0ff36" stroke-width="2" /><polyline fill="none" points="56.4068,65.9525 55.539,69.8576 64.6508,70.2915 69.8576,65.9525 66.3864,63.7831 62.0475,63.7831" stroke="#ffe500" stroke-width="2" /><polyline fill="none" points="82.4407,41.6542 91.5525,36.8814 98.061,30.8068" stroke="#ff9400" stroke-width="2" /><polyline fill="none" points="90.6847,47.7288 105.0034,36.8814" stroke="#ff4600" stroke-width="2" /><polyline fill="none" points="8.678,56.8407 12.5831,57.7085 20.8271,57.2746 36.0136,52.0678" stroke="#de0000" stroke-width="2" /><polyline fill="none" points="22.5627,67.6881 28.2034,65.5186 36.4475,59.4441" stroke="#7f0000" stroke-width="2" /></svg>