<?xml version="1.0" encoding="utf-8" ?>
<svg baseProfile="tiny" height="128" version="1.2" viewBox="0,0,128,128" width="128" xmlns="http://www.w3.org/2000/svg" xmlns:ev="http://www.w3.org/2001/xml-events" xmlns:xlink="http://www.w3.org/1999/xlink"><defs /><polyline fill="none" points="86.6395,54.4218 87.0748,60.517 85.3333,63.1293 79.2381,69.2245 74.8844,71.8367 64.0,75.3197 53.1156,77.0612 47.8912,77.0612 39.619,74.449 33.0884,68.3537 31.3469,64.4354 30.4762,51.3741 37.4422,38.3129 46.1497,30.4762 61.8231,23.0748 67.483,21.7687 76.6259,22.6395 87.0748,29.1701 93.6054,38.7483 94.4762,53.551 91.4286,60.517 86.2041,67.483 78.8027,73.1429 69.6599,77.0612 63.1293,77.0612 59.2109,74.449" stroke="#00007f" stroke-width="2" /><polyline fill="none" points="28.2993,62.6939 14.3673,41.7959 8.7075,27.4286 44.8435,26.5578" stroke="#0000ff" stroke-width="2" /><polyline fill="none" points="79.2381,23.9456 100.1361,12.1905 112.3265,8.7075 117.551,8.7075 118.8571,10.0136 119.2925,16.1088 112.7619,30.0408 103.1837,40.9252 92.2993,50.5034" stroke="#0080ff" stroke-width="2" /><polyline fill="none" points="41.3605,49.1973 43.5374,65.7415" stroke="#15ffe1" stroke-width="2" /><polyline fill="none" points="73.1429,39.619 76.1905,52.2449" stroke="#7cff79" stroke-width="2" /><polyline fill="none" points="60.517,64.4354 57.4694,63.5646" stroke="#e4ff12" stroke-width="2" /><polyline fill="none" points="56.5986,61.8231 62.2585,59.2109 67.9184,58.7755 67.483,62.2585 62.6939,67.0476" stroke="#ff9400" stroke-width="2" /><polyline fill="none" points="61.8231,65.3061 60.9524,70.0952 57.4694,74.8844" stroke="#ff1d00" stroke-width="2" /><polyline fill="none" points="60.9524,66.1769 68.3537,75.3197" stroke="#7f0000" stroke-width="2" /></svg>