<?xml version="1.0" encoding="utf-8" ?>
<svg baseProfile="tiny" height="128" version="1.2" viewBox="0,0,128,128" width="128" xmlns="http://www.w3.org/2000/svg" xmlns:ev="http://www.w3.org/2001/xml-events" xmlns:xlink="http://www.w3.org/1999/xlink"><defs /><polyline fill="none" points="10.8475,75.4983 8.678,71.1593 8.678,66.3864 14.7525,58.5763 29.939,49.0305 35.1458,47.2949 45.9932,46.861 55.1051,51.6339 62.4814,58.5763 64.6508,65.0847 64.6508,77.2339 53.3695,90.2508 45.9932,94.5898 41.2203,96.3254 32.5424,95.8915 28.2034,94.1559 17.7898,82.0068 15.1864,75.4983 15.1864,67.6881" stroke="#00007f" stroke-width="2" /><polyline fill="none" points="62.0475,51.6339 68.122,45.5593 74.6305,42.522 88.5153,40.7864 94.5898,44.6915 100.6644,53.8034 102.8339,59.878 102.8339,68.122 95.8915,85.9119 89.8169,91.5525 72.461,91.5525 67.2542,89.8169 59.4441,83.3085" stroke="#0000cc" stroke-width="2" /><polyline fill="none" points="63.7831,49.4644 60.3119,55.1051" stroke="#0008ff" stroke-width="2" /><polyline fill="none" points="66.8203,43.8237 65.5186,26.0339 66.8203,30.3729 73.3288,39.0508" stroke="#004cff" stroke-width="2" /><polyline fill="none" points="73.3288,39.9186 75.0644,39.9186" stroke="#0090ff" stroke-width="2" /><polyline fill="none" points="82.4407,39.0508 87.2136,30.3729 92.8542,24.2983 91.1186,41.2203" stroke="#00d4ff" stroke-width="2" /><polyline fill="none" points="98.4949,76.3661 103.2678,65.0847 107.1729,59.878 119.322,52.5017" stroke="#29ffcd" stroke-width="2" /><polyline fill="none" points="99.7966,74.6305 107.1729,77.2339 114.5492,85.0441" stroke="#5fff96" stroke-width="2" /><polyline fill="none" points="77.2339,66.8203 69.8576,54.6712" stroke="#96ff5f" stroke-width="2" /><polyline fill="none" points="76.8,65.9525 76.8,69.4237 68.122,82.8746" stroke="#cdff29" stroke-width="2" /><polyline fill="none" points="85.9119,67.2542 85.9119,68.5559 86.7797,66.3864 85.478,66.3864 86.3458,67.6881" stroke="#ffe500" stroke-width="2" /><polyline fill="none" points="80.7051,51.6339 81.5729,55.9729" stroke="#ffa600" stroke-width="2" /><polyline fill="none" points="88.5153,52.5017 88.5153,58.5763" stroke="#ff6700" stroke-width="2" /><polyline fill="none" points="9.9797,13.4508 10.4136,16.922 17.7898,35.1458 16.4881,14.7525 21.6949,22.1288 25.6,32.9763 27.7695,20.8271 30.8068,23.8644 33.4102,29.939" stroke="#ff2800" stroke-width="2" /><polyline fill="none" points="33.4102,26.4678 43.3898,13.8847 45.5593,9.5458 44.2576,8.678 42.0881,9.9797 39.0508,19.0915 38.6169,34.7119 43.8237,36.8814 49.0305,29.939 48.5966,22.9966 39.4847,12.5831" stroke="#cc0000" stroke-width="2" /><polyline fill="none" points="61.1797,16.0542 59.878,16.922 59.0102,22.1288" stroke="#7f0000" stroke-width="2" /></svg>