<?xml version="1.0" encoding="utf-8" ?>
<svg baseProfile="tiny" height="128" version="1.2" viewBox="0,0,128,128" width="128" xmlns="http://www.w3.org/2000/svg" xmlns:ev="http://www.w3.org/2001/xml-events" xmlns:xlink="http://www.w3.org/1999/xlink"><defs /><polyline fill="none" points="49.0305,39.4847 49.0305,39.4847" stroke="#00007f" stroke-width="2" /><polyline fill="none" points="45.5593,40.7864 38.6169,32.5424 30.3729,13.8847 41.6542,16.922 60.3119,25.1661 63.3492,25.1661 70.2915,19.5254 75.4983,17.7898 86.3458,18.6576 94.1559,24.7322 104.1356,16.4881 118.8881,8.678 118.8881,26.4678 109.3424,47.7288 108.9085,61.1797 99.7966,74.1966 92.4203,78.1017 73.3288,82.4407 67.6881,82.0068 64.2169,79.8373 53.8034,68.9898 46.861,58.1424 44.2576,50.3322 45.1254,39.4847" stroke="#0000c8" stroke-width="2" /><polyline fill="none" points="78.5356,55.539 77.6678,53.3695 76.3661,58.5763 78.5356,60.7458 82.4407,52.5017 78.1017,55.1051" stroke="#0000ff" stroke-width="2" /><polyline fill="none" points="72.0271,35.5797 71.5932,41.6542 73.7627,42.522 74.6305,39.4847 73.3288,36.8814" stroke="#0040ff" stroke-width="2" /><polyline fill="none" points="82.0068,36.4475 82.0068,39.0508 82.8746,36.4475" stroke="#0080ff" stroke-width="2" /><polyline fill="none" points="108.0407,23.4305 104.1356,26.9017 102.8339,32.1085 108.0407,32.9763 108.4746,25.6" stroke="#00c0ff" stroke-width="2" /><polyline fill="none" points="50.3322,28.6373 49.4644,33.4102 50.7661,36.4475 53.8034,37.3153 55.1051,31.6746 50.3322,27.3356 48.5966,27.3356" stroke="#15ffe1" stroke-width="2" /><polyline fill="none" points="78.9695,60.7458 73.7627,64.2169 68.9898,64.2169 65.9525,60.3119" stroke="#49ffad" stroke-width="2" /><polyline fill="none" points="82.8746,62.9153 88.9492,62.0475 89.8169,59.0102" stroke="#7cff79" stroke-width="2" /><polyline fill="none" points="75.0644,65.0847 77.2339,68.122 81.5729,68.5559 82.4407,61.6136" stroke="#b0ff46" stroke-width="2" /><polyline fill="none" points="93.2881,50.3322 103.2678,45.9932 116.7186,44.6915" stroke="#e4ff12" stroke-width="2" /><polyline fill="none" points="101.9661,55.9729 114.9831,54.2373" stroke="#ffcf00" stroke-width="2" /><polyline fill="none" points="95.8915,65.5186 103.2678,68.122 106.3051,70.2915 119.322,71.5932" stroke="#ff9400" stroke-width="2" /><polyline fill="none" points="51.6339,58.1424 39.0508,56.4068 8.678,65.0847 16.4881,67.2542" stroke="#ff5900" stroke-width="2" /><polyline fill="none" points="53.8034,66.3864 39.4847,71.1593 34.278,74.1966 19.9593,79.4034" stroke="#ff1d00" stroke-width="2" /><polyline fill="none" points="54.2373,72.8949 56.4068,71.1593" stroke="#c30000" stroke-width="2" /><polyline fill="none" points="59.0102,68.9898 31.6746,86.3458" stroke="#7f0000" stroke-width="2" /></svg>