<?xml version="1.0" encoding="utf-8" ?>
<svg baseProfile="tiny" height="128" version="1.2" viewBox="0,0,128,128" width="128" xmlns="http://www.w3.org/2000/svg" xmlns:ev="http://www.w3.org/2001/xml-events" xmlns:xlink="http://www.w3.org/1999/xlink"><defs /><polyline fill="none" points="30.8068,45.5593 44.6915,39.0508 67.6881,38.1831 80.2712,40.7864 89.3831,47.2949 94.1559,52.9356 97.1932,60.3119 100.2305,77.6678 98.9288,92.4203 90.6847,106.3051 85.9119,111.5119 75.4983,116.7186 57.2746,119.322 50.3322,118.0203 39.9186,113.2475 26.4678,101.9661 17.3559,90.2508 14.3186,82.0068 13.8847,63.3492 25.1661,44.6915 29.0712,42.522 32.9763,42.9559" stroke="#00007f" stroke-width="2" /><polyline fill="none" points="68.122,41.2203 78.9695,13.0169 82.4407,8.678 85.478,11.7153 89.3831,24.7322 93.2881,42.0881 93.722,49.0305" stroke="#004cff" stroke-width="2" /><polyline fill="none" points="41.2203,37.3153 31.6746,10.8475 29.939,14.7525 29.0712,27.3356 19.5254,54.2373" stroke="#29ffcd" stroke-width="2" /><polyline fill="none" points="44.2576,68.5559 46.861,66.3864 51.6339,66.8203 68.9898,69.4237 68.9898,72.0271 63.3492,77.6678 60.3119,84.6102 58.1424,84.6102 48.5966,70.7254" stroke="#cdff29" stroke-width="2" /><polyline fill="none" points="71.5932,75.9322 76.3661,75.4983 82.8746,78.5356 93.722,89.3831 84.1763,88.9492 68.9898,83.3085 78.9695,96.3254 71.5932,95.8915" stroke="#ff6700" stroke-width="2" /><polyline fill="none" points="39.4847,80.7051 26.9017,76.8 14.7525,77.6678 8.678,82.8746 9.1119,86.3458 20.3932,87.6475" stroke="#7f0000" stroke-width="2" /></svg>