<?xml version="1.0" encoding="utf-8" ?>
<svg baseProfile="tiny" height="128" version="1.2" viewBox="0,0,128,128" width="128" xmlns="http://www.w3.org/2000/svg" xmlns:ev="http://www.w3.org/2001/xml-events" xmlns:xlink="http://www.w3.org/1999/xlink"><defs /><polyline fill="none" points="33.0884,26.1224 16.9796,35.7007 12.6259,40.9252 10.449,45.7143 8.7075,53.1156 8.7075,62.6939 10.8844,69.6599 14.8027,75.7551 28.2993,82.2857 42.6667,85.7687 75.3197,89.6871 89.6871,90.1224 98.3946,88.381 107.102,81.415 114.068,71.8367 119.2925,58.3401 117.1156,45.7143 110.1497,33.9592 103.1837,24.8163 93.6054,19.5918 73.1429,19.1565 27.8639,28.2993" stroke="#00007f" stroke-width="2" /><polyline fill="none" points="21.3333,29.1701 22.2041,20.4626 20.898,8.7075 22.6395,8.7075 36.1361,17.8503" stroke="#0080ff" stroke-width="2" /><polyline fill="none" points="99.2653,26.5578 107.5374,16.9796 114.9388,11.7551 119.2925,10.8844 118.8571,20.0272 113.6327,34.8299" stroke="#7cff79" stroke-width="2" /><polyline fill="none" points="59.6463,54.8571 67.0476,54.4218 60.9524,60.517 57.9048,54.4218" stroke="#ff9400" stroke-width="2" /><polyline fill="none" points="58.3401,62.6939 52.6803,72.2721 42.6667,76.1905" stroke="#7f0000" stroke-width="2" /></svg>