<?xml version="1.0" encoding="utf-8" ?>
<svg baseProfile="tiny" height="128" version="1.2" viewBox="0,0,128,128" width="128" xmlns="http://www.w3.org/2000/svg" xmlns:ev="http://www.w3.org/2001/xml-events" xmlns:xlink="http://www.w3.org/1999/xlink"><defs /><polyline fill="none" points="9.1429,53.1156 11.7551,48.7619 18.2857,43.5374 30.0408,37.8776 46.1497,33.9592 65.7415,32.2177 81.415,36.1361 86.6395,40.9252 88.381,48.3265 82.2857,59.6463 68.3537,69.6599 52.2449,73.5782 34.8299,74.0136 17.8503,71.4014 10.449,66.1769 8.7075,62.6939 8.7075,56.1633 12.6259,46.1497 16.5442,42.2313 21.3333,39.619" stroke="#00007f" stroke-width="2" /><polyline fill="none" points="94.4762,25.2517 92.2993,23.9456 88.8163,24.381 81.8503,30.0408 79.6735,38.7483 80.5442,45.7143 88.8163,52.6803 100.5714,57.4694 105.3605,57.034 111.0204,55.2925 116.6803,49.6327 119.2925,43.102 118.8571,39.619 110.585,26.1224 107.102,22.6395 101.4422,20.4626 95.3469,20.0272 92.2993,21.3333" stroke="#004cff" stroke-width="2" /><polyline fill="none" points="84.898,27.8639 80.5442,23.5102 76.6259,14.8027 97.0884,21.7687" stroke="#29ffcd" stroke-width="2" /><polyline fill="none" points="96.2177,22.6395 107.102,8.7075 110.585,23.9456" stroke="#cdff29" stroke-width="2" /><polyline fill="none" points="93.6054,40.0544 97.0884,45.7143 106.2313,46.585 110.1497,43.5374 111.4558,37.8776" stroke="#ff6700" stroke-width="2" /><polyline fill="none" points="19.1565,74.8844 23.9456,86.6395 25.2517,86.6395" stroke="#7f0000" stroke-width="2" /></svg>