<?xml version="1.0" encoding="utf-8" ?>
<svg baseProfile="tiny" height="128" version="1.2" viewBox="0,0,128,128" width="128" xmlns="http://www.w3.org/2000/svg" xmlns:ev="http://www.w3.org/2001/xml-events" xmlns:xlink="http://www.w3.org/1999/xlink"><defs /><polyline fill="none" points="56.4068,73.3288 59.4441,78.9695 59.878,87.6475 56.4068,96.3254 53.8034,98.9288 48.1627,101.0983" stroke="#00007f" stroke-width="2" /><polyline fill="none" points="58.5763,78.9695 62.0475,84.6102 68.9898,89.8169 75.0644,91.1186 80.2712,89.3831" stroke="#0000ff" stroke-width="2" /><polyline fill="none" points="51.6339,74.1966 50.3322,72.0271 51.2,69.4237 56.4068,65.9525 60.7458,65.0847 62.0475,69.4237 57.2746,75.0644 53.3695,75.4983 48.5966,74.1966" stroke="#0080ff" stroke-width="2" /><polyline fill="none" points="67.2542,51.2 66.8203,49.0305 67.6881,47.2949 72.461,48.1627 74.6305,53.3695 73.7627,55.539 71.5932,55.1051" stroke="#15ffe1" stroke-width="2" /><polyline fill="none" points="30.3729,68.5559 34.278,56.8407 38.6169,57.2746 41.6542,60.7458 42.522,64.6508 38.6169,65.5186" stroke="#7cff79" stroke-width="2" /><polyline fill="none" points="55.9729,35.1458 56.4068,32.5424 62.4814,22.5627 75.0644,8.678 77.6678,17.7898 82.0068,41.6542" stroke="#e4ff12" stroke-width="2" /><polyline fill="none" points="33.8441,37.7492 14.7525,27.7695 9.9797,26.9017 8.678,58.5763 10.4136,64.6508 14.3186,71.1593" stroke="#ff9400" stroke-width="2" /><polyline fill="none" points="35.5797,36.8814 35.1458,41.2203 40.3525,32.9763 45.9932,38.6169 49.0305,38.6169 53.8034,32.9763" stroke="#ff1d00" stroke-width="2" /><polyline fill="none" points="22.5627,87.6475 22.5627,92.8542 27.3356,102.8339 41.6542,115.4169 53.8034,119.322 68.5559,117.5864 77.6678,113.2475 84.6102,108.0407 92.4203,98.9288 97.6271,89.8169 99.7966,82.8746 99.3627,79.4034 97.1932,75.0644 88.9492,66.3864" stroke="#7f0000" stroke-width="2" /></svg>