<?xml version="1.0" encoding="utf-8" ?>
<svg baseProfile="tiny" height="128" version="1.2" viewBox="0,0,128,128" width="128" xmlns="http://www.w3.org/2000/svg" xmlns:ev="http://www.w3.org/2001/xml-events" xmlns:xlink="http://www.w3.org/1999/xlink"><defs /><polyline fill="none" points="85.478,38.6169 80.7051,36.8814 68.122,35.5797 50.7661,35.5797 42.9559,38.1831 26.4678,47.2949 12.5831,60.3119 10.8475,64.2169 8.678,72.461 8.678,84.1763 12.5831,94.5898 25.6,107.1729 37.7492,112.8136 51.6339,117.5864 60.3119,119.322 76.8,119.322 86.7797,116.2847 92.4203,111.078 95.4576,105.0034 101.0983,85.0441 100.6644,59.0102 96.7593,45.1254 93.2881,39.0508 89.3831,35.1458 84.6102,33.8441 67.2542,34.278" stroke="#00007f" stroke-width="2" /><polyline fill="none" points="70.7254,34.7119 87.6475,26.0339 111.078,8.678 111.9458,12.1492 101.5322,36.4475 98.9288,52.0678" stroke="#0000f1" stroke-width="2" /><polyline fill="none" points="45.5593,36.8814 37.7492,26.9017 33.4102,15.6203 16.922,57.7085" stroke="#004cff" stroke-width="2" /><polyline fill="none" points="43.8237,62.0475 43.8237,64.2169 47.2949,66.8203 49.8983,67.2542 54.2373,65.5186 55.539,63.3492 53.8034,61.1797 45.9932,59.878" stroke="#00b0ff" stroke-width="2" /><polyline fill="none" points="45.9932,59.878 46.861,59.878" stroke="#29ffcd" stroke-width="2" /><polyline fill="none" points="68.122,59.878 65.9525,65.5186 67.6881,68.9898 73.3288,72.8949 85.9119,78.1017 96.3254,78.1017 98.4949,75.4983 98.4949,72.8949 95.8915,69.4237" stroke="#7cff79" stroke-width="2" /><polyline fill="none" points="94.1559,67.6881 76.8,65.5186" stroke="#cdff29" stroke-width="2" /><polyline fill="none" points="76.8,65.5186 75.9322,65.5186" stroke="#ffc400" stroke-width="2" /><polyline fill="none" points="56.4068,80.7051 57.2746,84.1763 56.4068,88.0814 50.7661,95.4576 48.1627,96.7593 37.3153,95.8915 35.1458,94.5898 35.5797,88.0814" stroke="#ff6700" stroke-width="2" /><polyline fill="none" points="36.0136,88.0814 39.0508,85.9119" stroke="#f10700" stroke-width="2" /><polyline fill="none" points="61.1797,84.6102 62.0475,96.3254 74.6305,99.7966" stroke="#7f0000" stroke-width="2" /></svg>