<?xml version="1.0" encoding="utf-8" ?>
<svg baseProfile="tiny" height="128" version="1.2" viewBox="0,0,128,128" width="128" xmlns="http://www.w3.org/2000/svg" xmlns:ev="http://www.w3.org/2001/xml-events" xmlns:xlink="http://www.w3.org/1999/xlink"><defs /><polyline fill="none" points="12.1492,50.7661 8.678,33.8441 9.1119,19.5254 11.2814,20.8271 20.8271,35.1458 37.7492,52.9356" stroke="#00007f" stroke-width="2" /><polyline fill="none" points="37.3153,51.6339 54.6712,45.5593 65.0847,42.9559 72.461,43.3898 82.0068,46.861" stroke="#0000de" stroke-width="2" /><polyline fill="none" points="76.3661,44.6915 78.9695,38.6169 95.4576,17.7898 109.3424,8.678 101.9661,67.2542" stroke="#0028ff" stroke-width="2" /><polyline fill="none" points="11.7153,52.0678 13.8847,59.0102 18.6576,68.9898" stroke="#0080ff" stroke-width="2" /><polyline fill="none" points="23.8644,77.2339 16.922,88.5153 13.8847,97.1932 16.0542,104.5695 26.0339,114.1153 35.1458,118.4542 42.0881,119.322 82.4407,115.8508 95.8915,110.2102 105.0034,102.4 112.3797,93.2881 116.2847,78.5356 112.8136,60.3119" stroke="#00d4ff" stroke-width="2" /><polyline fill="none" points="65.9525,78.1017 57.2746,79.4034 62.9153,82.0068 68.9898,82.8746 70.7254,80.2712 69.4237,72.8949" stroke="#36ffc0" stroke-width="2" /><polyline fill="none" points="64.2169,88.0814 59.0102,98.4949" stroke="#7cff79" stroke-width="2" /><polyline fill="none" points="71.5932,85.9119 73.7627,91.1186 79.4034,95.4576" stroke="#c0ff36" stroke-width="2" /><polyline fill="none" points="91.1186,77.6678 113.6814,69.8576" stroke="#ffe500" stroke-width="2" /><polyline fill="none" points="102.4,86.3458 114.5492,82.8746" stroke="#ff9400" stroke-width="2" /><polyline fill="none" points="37.7492,93.2881 22.1288,91.9864" stroke="#ff4600" stroke-width="2" /><polyline fill="none" points="40.3525,108.4746 30.8068,110.6441 22.9966,116.2847" stroke="#de0000" stroke-width="2" /><polyline fill="none" points="43.8237,63.7831 43.3898,64.2169" stroke="#7f0000" stroke-width="2" /></svg>