<?xml version="1.0" encoding="utf-8" ?>
<svg baseProfile="tiny" height="128" version="1.2" viewBox="0,0,128,128" width="128" xmlns="http://www.w3.org/2000/svg" xmlns:ev="http://www.w3.org/2001/xml-events" xmlns:xlink="http://www.w3.org/1999/xlink"><defs /><polyline fill="none" points="41.6542,36.4475 47.7288,14.3186 49.0305,14.7525 52.5017,32.9763 53.8034,34.278 68.5559,33.4102 75.0644,15.1864 79.4034,9.5458 82.0068,8.678 82.4407,16.922 77.6678,29.0712 88.5153,37.3153 95.0237,46.4271 101.0983,59.4441 104.1356,72.461 104.1356,77.6678 101.0983,82.0068 89.8169,89.3831 69.8576,90.6847 51.6339,89.3831 42.0881,88.0814 29.0712,82.4407 26.9017,75.4983 26.9017,60.3119 29.939,45.9932 45.1254,35.5797" stroke="#00007f" stroke-width="2" /><polyline fill="none" points="58.1424,42.0881 45.1254,49.8983 42.0881,52.5017 41.2203,56.8407 45.9932,56.4068 56.8407,50.7661 58.5763,48.5966 58.5763,44.6915" stroke="#0000e8" stroke-width="2" /><polyline fill="none" points="72.0271,43.3898 66.3864,52.0678 68.5559,52.0678 72.461,48.5966 73.7627,44.6915" stroke="#0038ff" stroke-width="2" /><polyline fill="none" points="59.4441,49.4644 59.878,55.539 58.1424,73.3288" stroke="#0094ff" stroke-width="2" /><polyline fill="none" points="68.5559,52.0678 64.6508,74.6305 62.9153,72.0271 56.4068,71.1593 60.7458,80.2712 62.4814,80.2712 63.3492,75.4983" stroke="#0cf4ea" stroke-width="2" /><polyline fill="none" points="77.2339,70.2915 91.9864,59.4441 103.7017,54.2373 119.322,50.3322" stroke="#56ffa0" stroke-width="2" /><polyline fill="none" points="94.5898,71.5932 100.2305,68.122 111.9458,65.5186" stroke="#a0ff56" stroke-width="2" /><polyline fill="none" points="87.6475,81.139 98.9288,79.8373 102.4,81.139" stroke="#eaff0c" stroke-width="2" /><polyline fill="none" points="40.3525,62.9153 16.0542,62.9153 9.9797,65.9525 8.678,69.8576" stroke="#ffaa00" stroke-width="2" /><polyline fill="none" points="43.3898,73.3288 32.1085,77.2339 27.7695,79.8373 26.9017,82.0068" stroke="#ff5500" stroke-width="2" /><polyline fill="none" points="46.4271,78.5356 46.4271,85.478 48.1627,86.3458" stroke="#e80000" stroke-width="2" /><polyline fill="none" points="62.4814,80.7051 67.6881,81.139" stroke="#7f0000" stroke-width="2" /></svg>