<?xml version="1.0" encoding="utf-8" ?>
<svg baseProfile="tiny" height="128" version="1.2" viewBox="0,0,128,128" width="128" xmlns="http://www.w3.org/2000/svg" xmlns:ev="http://www.w3.org/2001/xml-events" xmlns:xlink="http://www.w3.org/1999/xlink"><defs /><polyline fill="none" points="62.0475,31.6746 65.5186,29.5051 71.5932,29.0712 85.0441,34.7119 96.7593,42.0881 100.6644,47.2949 101.9661,53.3695 98.9288,70.2915 95.8915,76.8 88.5153,84.1763 75.9322,90.2508 59.4441,92.4203 43.3898,90.2508 35.5797,85.9119 29.5051,78.5356 23.4305,50.7661 25.6,42.0881 29.939,35.1458 41.2203,28.6373 50.7661,26.9017 60.7458,28.2034 72.461,35.1458" stroke="#00007f" stroke-width="2" /><polyline fill="none" points="72.461,29.939 85.9119,15.6203 100.2305,8.678 97.1932,40.3525" stroke="#0000e8" stroke-width="2" /><polyline fill="none" points="42.9559,31.2407 26.0339,16.922 17.3559,14.3186 17.3559,23.4305 21.6949,45.1254" stroke="#0038ff" stroke-width="2" /><polyline fill="none" points="45.9932,46.861 45.9932,46.861" stroke="#0094ff" stroke-width="2" /><polyline fill="none" points="72.8949,50.7661 72.0271,49.8983" stroke="#0cf4ea" stroke-width="2" /><polyline fill="none" points="58.5763,64.6508 57.7085,64.6508" stroke="#56ffa0" stroke-width="2" /><polyline fill="none" points="60.7458,64.2169 68.122,62.0475 85.478,62.0475 95.4576,62.9153 107.1729,65.9525" stroke="#a0ff56" stroke-width="2" /><polyline fill="none" points="58.5763,66.3864 119.322,82.8746" stroke="#eaff0c" stroke-width="2" /><polyline fill="none" points="49.8983,63.7831 11.7153,59.0102" stroke="#ffaa00" stroke-width="2" /><polyline fill="none" points="52.9356,65.9525 26.9017,77.2339 10.4136,82.4407 8.678,84.6102" stroke="#ff5500" stroke-width="2" /><polyline fill="none" points="61.1797,67.6881 64.2169,80.2712 67.2542,81.139 71.5932,78.9695" stroke="#e80000" stroke-width="2" /><polyline fill="none" points="56.4068,68.5559 56.4068,75.4983 54.6712,82.0068 50.7661,85.9119 46.861,85.478" stroke="#7f0000" stroke-width="2" /></svg>