<?xml version="1.0" encoding="utf-8" ?>
<svg baseProfile="tiny" height="128" version="1.2" viewBox="0,0,128,128" width="128" xmlns="http://www.w3.org/2000/svg" xmlns:ev="http://www.w3.org/2001/xml-events" xmlns:xlink="http://www.w3.org/1999/xlink"><defs /><polyline fill="none" points="11.7551,58.3401 10.449,40.0544 13.0612,26.1224 18.7211,12.6259 22.6395,8.7075 24.8163,8.7075 26.5578,18.7211 17.8503,48.7619 16.9796,54.4218 17.415,59.2109 20.898,61.8231 38.7483,59.6463 49.1973,53.9864 60.517,50.9388 70.0952,52.2449 77.932,56.1633 89.2517,67.0476 90.5578,80.9796 89.2517,84.4626 86.2041,88.381 74.0136,94.0408 57.9048,94.0408 30.0408,90.5578 23.5102,88.8163 12.6259,82.2857 8.7075,77.0612 10.0136,62.2585 14.3673,56.1633 19.1565,56.5986" stroke="#00007f" stroke-width="2" /><polyline fill="none" points="77.932,60.0816 76.1905,55.2925 77.0612,49.1973 81.8503,38.3129 90.1224,30.9116 93.1701,30.0408 97.9592,31.7823 101.0068,36.5714 102.3129,41.7959 100.5714,50.5034 96.6531,54.8571 84.4626,64.0" stroke="#0000f1" stroke-width="2" /><polyline fill="none" points="98.8299,53.9864 101.4422,60.0816 105.3605,65.3061" stroke="#004cff" stroke-width="2" /><polyline fill="none" points="101.4422,46.585 113.6327,49.1973" stroke="#00b0ff" stroke-width="2" /><polyline fill="none" points="100.1361,49.1973 102.3129,52.2449 103.619,49.6327 101.8776,45.7143 100.1361,49.1973" stroke="#29ffcd" stroke-width="2" /><polyline fill="none" points="97.0884,41.3605 96.2177,40.9252" stroke="#7cff79" stroke-width="2" /><polyline fill="none" points="91.8639,32.2177 94.0408,24.381 101.0068,17.415" stroke="#cdff29" stroke-width="2" /><polyline fill="none" points="73.1429,96.2177 73.1429,104.4898 74.449,109.2789 78.3673,112.7619 84.0272,114.068 87.0748,112.7619 98.3946,104.4898 97.9592,102.7483 94.4762,102.3129 90.5578,105.3605" stroke="#ffc400" stroke-width="2" /><polyline fill="none" points="57.034,97.0884 60.9524,109.2789 65.3061,114.068 70.5306,115.8095 78.8027,114.5034" stroke="#ff6700" stroke-width="2" /><polyline fill="none" points="24.381,86.6395 20.898,92.2993 19.5918,106.2313 15.6735,117.551 23.5102,119.2925 36.5714,118.4218" stroke="#f10700" stroke-width="2" /><polyline fill="none" points="15.2381,80.5442 15.2381,89.2517 11.7551,98.8299 11.3197,105.7959 11.7551,110.585 19.1565,112.3265" stroke="#7f0000" stroke-width="2" /></svg>