<?xml version="1.0" encoding="utf-8" ?>
<svg baseProfile="tiny" height="128" version="1.2" viewBox="0,0,128,128" width="128" xmlns="http://www.w3.org/2000/svg" xmlns:ev="http://www.w3.org/2001/xml-events" xmlns:xlink="http://www.w3.org/1999/xlink"><defs /><polyline fill="none" points="53.8034,49.8983 34.7119,52.0678 25.1661,56.8407 20.3932,61.6136 17.3559,66.8203 16.4881,74.6305 19.0915,77.6678 32.9763,81.139 55.539,80.2712 65.0847,77.2339 75.9322,71.1593 82.0068,64.2169 82.4407,57.7085 72.0271,53.3695 52.5017,52.0678" stroke="#00007f" stroke-width="2" /><polyline fill="none" points="76.8,50.7661 81.5729,44.6915 86.7797,32.5424 88.9492,31.2407 96.7593,31.6746 101.0983,35.5797 103.7017,39.9186 104.5695,55.1051 101.9661,59.878 91.5525,65.9525 82.8746,66.8203 81.139,65.5186" stroke="#0000ba" stroke-width="2" /><polyline fill="none" points="92.4203,37.7492 92.4203,37.7492" stroke="#0000f5" stroke-width="2" /><polyline fill="none" points="97.1932,40.3525 97.1932,40.3525" stroke="#0020ff" stroke-width="2" /><polyline fill="none" points="90.6847,38.1831 90.2508,44.2576 89.8169,40.3525" stroke="#0054ff" stroke-width="2" /><polyline fill="none" points="98.061,39.4847 97.1932,44.6915 97.6271,40.7864 98.4949,44.2576" stroke="#008cff" stroke-width="2" /><polyline fill="none" points="88.9492,48.1627 87.2136,51.6339 89.3831,53.8034 90.2508,50.7661 88.9492,49.0305" stroke="#00c0ff" stroke-width="2" /><polyline fill="none" points="85.0441,49.0305 73.7627,40.7864" stroke="#0ff8e7" stroke-width="2" /><polyline fill="none" points="88.5153,51.6339 78.9695,51.6339 63.7831,48.5966" stroke="#39ffbd" stroke-width="2" /><polyline fill="none" points="91.5525,53.3695 106.3051,54.2373" stroke="#66ff90" stroke-width="2" /><polyline fill="none" points="89.3831,55.539 93.722,63.3492 101.9661,69.4237" stroke="#90ff66" stroke-width="2" /><polyline fill="none" points="72.0271,75.9322 76.8,109.3424" stroke="#bdff39" stroke-width="2" /><polyline fill="none" points="65.5186,75.4983 64.6508,85.478" stroke="#e7ff0f" stroke-width="2" /><polyline fill="none" points="39.9186,85.9119 40.7864,119.322" stroke="#ffd300" stroke-width="2" /><polyline fill="none" points="27.3356,81.5729 24.7322,95.8915" stroke="#ffa300" stroke-width="2" /><polyline fill="none" points="25.1661,58.1424 16.4881,45.5593 11.2814,33.4102 8.678,20.3932 8.678,12.5831" stroke="#ff6f00" stroke-width="2" /><polyline fill="none" points="26.0339,14.3186 28.6373,25.1661 29.0712,13.0169 36.0136,11.7153 39.0508,16.4881 39.4847,25.1661" stroke="#ff3f00" stroke-width="2" /><polyline fill="none" points="45.1254,16.4881 49.8983,16.0542 54.2373,13.4508 55.1051,9.5458 52.9356,8.678 51.2,9.1119 49.0305,12.5831 47.7288,22.1288 51.2,23.8644 57.2746,23.8644 62.4814,21.6949" stroke="#f50b00" stroke-width="2" /><polyline fill="none" points="64.6508,18.6576 65.5186,13.4508 72.0271,13.0169 75.4983,10.4136 71.1593,9.5458 67.6881,11.7153 63.3492,18.6576 62.4814,24.2983 65.5186,26.9017 75.4983,26.9017" stroke="#ba0000" stroke-width="2" /><polyline fill="none" points="82.0068,15.1864 87.6475,14.7525 91.5525,12.5831 91.9864,9.9797 90.6847,8.678 83.7424,9.1119 80.2712,12.1492 78.1017,16.4881 77.6678,24.2983 89.8169,29.5051 100.6644,29.939" stroke="#7f0000" stroke-width="2" /></svg>