<?xml version="1.0" encoding="utf-8" ?>
<svg baseProfile="tiny" height="128" version="1.2" viewBox="0,0,128,128" width="128" xmlns="http://www.w3.org/2000/svg" xmlns:ev="http://www.w3.org/2001/xml-events" xmlns:xlink="http://www.w3.org/1999/xlink"><defs /><polyline fill="none" points="55.539,47.7288 46.861,46.861 40.3525,49.4644 34.7119,54.6712 24.2983,69.8576 19.9593,87.2136 20.3932,95.8915 24.7322,103.7017 32.1085,111.078 46.4271,117.5864 62.0475,119.322 68.122,117.5864 79.4034,110.6441 84.6102,101.0983 86.7797,91.1186 85.9119,82.4407 75.9322,61.6136 69.8576,53.3695" stroke="#00007f" stroke-width="2" /><polyline fill="none" points="16.922,72.0271 14.3186,66.8203 10.8475,50.7661 8.678,30.3729 9.9797,19.9593 13.4508,19.5254 30.8068,35.1458" stroke="#0010ff" stroke-width="2" /><polyline fill="none" points="73.7627,49.0305 73.3288,45.5593 85.9119,22.5627 99.7966,8.678 101.9661,11.7153 101.5322,21.261 94.5898,47.2949" stroke="#00a4ff" stroke-width="2" /><polyline fill="none" points="39.4847,73.3288 39.4847,73.3288" stroke="#3fffb7" stroke-width="2" /><polyline fill="none" points="62.9153,71.5932 62.4814,70.7254" stroke="#b7ff3f" stroke-width="2" /><polyline fill="none" points="56.4068,87.2136 56.4068,87.2136" stroke="#ffb900" stroke-width="2" /><polyline fill="none" points="41.6542,102.8339 56.4068,105.4373 65.9525,102.8339" stroke="#ff3000" stroke-width="2" /><polyline fill="none" points="52.5017,87.2136 52.5017,87.6475" stroke="#7f0000" stroke-width="2" /></svg>