<?xml version="1.0" encoding="utf-8" ?>
<svg baseProfile="tiny" height="128" version="1.2" viewBox="0,0,128,128" width="128" xmlns="http://www.w3.org/2000/svg" xmlns:ev="http://www.w3.org/2001/xml-events" xmlns:xlink="http://www.w3.org/1999/xlink"><defs /><polyline fill="none" points="9.9797,58.1424 16.0542,46.4271 21.261,41.2203 28.6373,38.6169 37.3153,39.0508 42.522,37.7492" stroke="#00007f" stroke-width="2" /><polyline fill="none" points="8.678,57.7085 12.1492,59.878 17.3559,59.878 27.3356,55.1051 39.4847,44.6915 42.9559,43.3898 46.4271,46.861 45.9932,63.7831 49.0305,66.8203 51.6339,66.8203 52.9356,64.6508 52.9356,49.8983 59.4441,51.6339 62.9153,63.7831 66.8203,64.2169 68.9898,63.3492 69.8576,61.1797 68.9898,47.7288 82.8746,47.7288 83.3085,55.539 85.9119,61.6136 90.6847,61.6136 91.1186,60.7458 89.8169,50.3322 91.1186,48.5966 98.4949,48.5966 101.9661,59.0102 106.3051,59.4441 108.4746,57.2746 108.4746,50.3322 103.7017,42.9559 97.1932,37.3153 107.1729,33.8441 109.7763,30.8068 109.3424,24.7322 102.4,17.7898 97.6271,17.3559 95.4576,18.6576 92.4203,26.9017 63.7831,25.6 49.0305,28.6373 45.9932,31.2407 45.5593,35.5797 42.0881,37.3153" stroke="#0000ff" stroke-width="2" /><polyline fill="none" points="108.0407,24.2983 115.4169,19.0915" stroke="#0080ff" stroke-width="2" /><polyline fill="none" points="110.6441,26.4678 119.322,23.8644" stroke="#15ffe1" stroke-width="2" /><polyline fill="none" points="108.0407,31.6746 114.5492,37.7492" stroke="#7cff79" stroke-width="2" /><polyline fill="none" points="111.078,29.5051 118.4542,32.1085" stroke="#e4ff12" stroke-width="2" /><polyline fill="none" points="101.9661,23.4305 99.7966,26.4678 100.6644,28.6373 104.1356,27.7695 105.0034,25.1661 99.3627,23.4305" stroke="#ff9400" stroke-width="2" /><polyline fill="none" points="96.7593,20.3932 94.5898,17.3559 92.8542,9.9797 100.6644,16.922" stroke="#ff1d00" stroke-width="2" /><polyline fill="none" points="103.7017,18.2237 106.3051,8.678 107.6068,16.0542 106.739,21.261" stroke="#7f0000" stroke-width="2" /></svg>