<?xml version="1.0" encoding="utf-8" ?>
<svg baseProfile="tiny" height="128" version="1.2" viewBox="0,0,128,128" width="128" xmlns="http://www.w3.org/2000/svg" xmlns:ev="http://www.w3.org/2001/xml-events" xmlns:xlink="http://www.w3.org/1999/xlink"><defs /><polyline fill="none" points="35.5797,44.2576 29.0712,44.2576 19.9593,49.8983 15.6203,55.539 10.4136,68.5559 8.678,77.2339 9.1119,87.2136 14.3186,98.4949 19.5254,105.0034 27.3356,110.2102 40.7864,116.7186 51.2,119.322 62.4814,119.322 78.1017,114.5492 101.0983,102.4 110.6441,93.722 114.9831,82.8746 115.4169,72.0271 113.6814,67.2542 111.078,62.4814 104.5695,55.9729 95.0237,49.4644 82.8746,44.6915 53.8034,45.1254 28.6373,48.1627" stroke="#00007f" stroke-width="2" /><polyline fill="none" points="29.5051,40.3525 39.4847,19.9593 49.8983,8.678 50.7661,31.6746 52.0678,39.4847 53.8034,38.6169" stroke="#0000fe" stroke-width="2" /><polyline fill="none" points="81.5729,40.3525 97.1932,25.1661 105.0034,13.0169 105.0034,26.4678 99.7966,49.4644 99.3627,47.7288" stroke="#0060ff" stroke-width="2" /><polyline fill="none" points="59.878,76.8 57.7085,79.8373 61.1797,83.7424 79.8373,88.5153 81.5729,84.6102 81.5729,80.2712 75.0644,74.1966 70.2915,71.5932 59.0102,70.7254 57.2746,78.1017" stroke="#00d4ff" stroke-width="2" /><polyline fill="none" points="65.5186,75.0644 69.4237,79.4034" stroke="#4cffaa" stroke-width="2" /><polyline fill="none" points="72.461,79.4034 77.2339,81.139" stroke="#aaff4c" stroke-width="2" /><polyline fill="none" points="86.3458,82.0068 94.5898,78.5356 113.6814,74.6305" stroke="#ffe500" stroke-width="2" /><polyline fill="none" points="91.5525,84.6102 115.4169,85.9119" stroke="#ff7a00" stroke-width="2" /><polyline fill="none" points="85.478,88.9492 96.3254,95.8915 115.8508,104.1356 106.739,101.5322" stroke="#fe1200" stroke-width="2" /><polyline fill="none" points="48.5966,75.9322 22.9966,75.0644" stroke="#7f0000" stroke-width="2" /></svg>