<?xml version="1.0" encoding="utf-8" ?>
<svg baseProfile="tiny" height="128" version="1.2" viewBox="0,0,128,128" width="128" xmlns="http://www.w3.org/2000/svg" xmlns:ev="http://www.w3.org/2001/xml-events" xmlns:xlink="http://www.w3.org/1999/xlink"><defs /><polyline fill="none" points="37.7492,42.0881 33.8441,42.522 23.8644,50.3322 19.9593,54.6712 18.2237,59.4441 13.0169,83.3085 13.0169,94.5898 19.5254,106.3051 35.5797,114.5492 60.7458,119.322 71.5932,119.322 79.4034,117.5864 94.5898,113.6814 104.1356,108.9085 113.2475,90.2508 113.6814,72.8949 108.0407,59.878 101.0983,52.0678 91.1186,45.5593 72.0271,39.9186 58.5763,37.3153 48.5966,37.3153 40.7864,39.0508" stroke="#00007f" stroke-width="2" /><polyline fill="none" points="78.9695,39.0508 95.8915,16.4881 99.7966,8.678 101.5322,10.8475 106.3051,22.9966 111.078,38.1831 111.5119,51.2 106.739,52.5017 75.9322,52.5017" stroke="#0000ff" stroke-width="2" /><polyline fill="none" points="43.8237,36.8814 40.3525,31.2407 31.6746,22.5627 9.9797,10.8475 8.678,12.5831 8.678,28.6373 10.8475,41.2203 14.3186,51.6339 16.0542,52.9356 18.2237,52.0678" stroke="#0080ff" stroke-width="2" /><polyline fill="none" points="56.4068,84.6102 61.1797,95.4576 62.4814,97.1932 64.2169,97.1932 70.2915,84.6102 68.122,83.3085 56.4068,83.3085" stroke="#15ffe1" stroke-width="2" /><polyline fill="none" points="55.9729,85.0441 44.6915,84.6102 45.5593,86.3458" stroke="#7cff79" stroke-width="2" /><polyline fill="none" points="68.9898,86.3458 79.8373,85.478" stroke="#e4ff12" stroke-width="2" /><polyline fill="none" points="71.5932,89.3831 77.2339,90.2508" stroke="#ff9400" stroke-width="2" /><polyline fill="none" points="50.7661,91.5525 44.6915,91.9864" stroke="#ff1d00" stroke-width="2" /><polyline fill="none" points="54.6712,92.4203 51.6339,94.1559" stroke="#7f0000" stroke-width="2" /></svg>