<?xml version="1.0" encoding="utf-8" ?>
<svg baseProfile="tiny" height="128" version="1.2" viewBox="0,0,128,128" width="128" xmlns="http://www.w3.org/2000/svg" xmlns:ev="http://www.w3.org/2001/xml-events" xmlns:xlink="http://www.w3.org/1999/xlink"><defs /><polyline fill="none" points="15.6203,62.0475 10.8475,70.2915 9.1119,76.3661 8.678,91.1186 18.2237,103.7017 31.6746,113.2475 40.7864,118.0203 59.0102,119.322 66.8203,114.1153 73.7627,105.4373 79.4034,94.1559 82.4407,82.0068 82.8746,68.5559 79.4034,59.4441 73.3288,52.5017 58.5763,45.5593 42.9559,44.6915 33.8441,48.1627 29.0712,52.5017 14.7525,68.9898" stroke="#00007f" stroke-width="2" /><polyline fill="none" points="22.1288,61.6136 20.8271,53.3695 22.9966,41.2203 29.939,20.3932 33.8441,12.5831 36.8814,9.5458 45.1254,8.678 52.0678,15.6203 53.8034,22.9966 53.8034,49.0305" stroke="#0028ff" stroke-width="2" /><polyline fill="none" points="69.8576,49.8983 70.7254,44.2576 78.1017,29.5051 83.3085,22.1288 95.4576,11.7153 95.4576,22.1288 91.9864,36.4475 79.4034,67.6881" stroke="#00d4ff" stroke-width="2" /><polyline fill="none" points="37.7492,65.9525 43.8237,60.7458 41.2203,62.4814 39.4847,67.2542 39.0508,72.0271 41.2203,72.461 42.522,66.8203 41.2203,63.3492 38.1831,63.3492 39.0508,68.122" stroke="#7cff79" stroke-width="2" /><polyline fill="none" points="59.4441,62.0475 56.8407,65.0847 56.8407,72.8949 65.5186,67.6881 64.6508,62.0475 61.1797,62.0475 58.5763,65.0847 58.5763,67.2542 61.1797,68.122" stroke="#ffe500" stroke-width="2" /><polyline fill="none" points="45.1254,86.7797 43.8237,91.1186 45.9932,87.6475 44.6915,89.8169 46.861,90.2508 47.2949,88.0814 49.0305,100.2305 47.2949,106.739 42.522,110.2102 34.278,112.3797 32.1085,110.6441" stroke="#ff4600" stroke-width="2" /><polyline fill="none" points="46.861,92.8542 50.3322,98.061 57.2746,103.2678" stroke="#7f0000" stroke-width="2" /></svg>