<?xml version="1.0" encoding="utf-8" ?>
<svg baseProfile="tiny" height="128" version="1.2" viewBox="0,0,128,128" width="128" xmlns="http://www.w3.org/2000/svg" xmlns:ev="http://www.w3.org/2001/xml-events" xmlns:xlink="http://www.w3.org/1999/xlink"><defs /><polyline fill="none" points="18.2237,26.4678 18.6576,16.4881 21.6949,9.5458 23.4305,8.678 26.0339,13.8847 27.3356,25.6 29.939,27.3356 39.0508,23.8644 43.8237,24.7322 47.7288,27.3356 58.1424,11.2814 58.5763,28.6373 65.0847,39.4847 65.9525,55.1051 62.4814,60.3119 55.1051,66.8203 44.2576,69.8576 29.5051,71.1593 19.9593,66.8203 10.4136,49.4644 8.678,40.7864 9.1119,31.2407 13.0169,28.6373 19.5254,27.3356" stroke="#00007f" stroke-width="2" /><polyline fill="none" points="22.1288,38.6169 22.9966,40.3525 29.0712,41.2203 31.2407,36.8814 29.5051,35.5797 27.3356,36.0136 25.6,39.9186 30.8068,39.9186 30.8068,36.0136 29.0712,36.0136 27.3356,38.1831 29.0712,39.9186" stroke="#0000ff" stroke-width="2" /><polyline fill="none" points="42.522,37.7492 43.3898,39.4847 47.2949,38.6169 50.3322,34.7119 46.861,33.8441 45.5593,37.3153 47.7288,37.7492 49.0305,35.5797 45.9932,34.7119" stroke="#0080ff" stroke-width="2" /><polyline fill="none" points="34.7119,47.2949 37.7492,49.8983 39.9186,45.9932" stroke="#15ffe1" stroke-width="2" /><polyline fill="none" points="43.3898,48.5966 55.539,45.5593" stroke="#7cff79" stroke-width="2" /><polyline fill="none" points="41.6542,52.5017 52.5017,48.5966" stroke="#e4ff12" stroke-width="2" /><polyline fill="none" points="31.6746,47.7288 16.4881,47.2949" stroke="#ff9400" stroke-width="2" /><polyline fill="none" points="31.6746,49.8983 19.0915,53.8034" stroke="#ff1d00" stroke-width="2" /><polyline fill="none" points="25.1661,70.2915 23.8644,111.9458 31.2407,118.0203 44.2576,119.322" stroke="#7f0000" stroke-width="2" /></svg>