<?xml version="1.0" encoding="utf-8" ?>
<svg baseProfile="tiny" height="128" version="1.2" viewBox="0,0,128,128" width="128" xmlns="http://www.w3.org/2000/svg" xmlns:ev="http://www.w3.org/2001/xml-events" xmlns:xlink="http://www.w3.org/1999/xlink"><defs /><polyline fill="none" points="22.1288,43.3898 16.0542,16.4881 21.6949,20.3932 33.8441,35.1458 49.8983,32.9763 60.7458,35.5797 65.0847,38.6169 66.3864,26.4678 72.8949,8.678 76.3661,13.4508 78.1017,19.9593 78.5356,40.7864 80.7051,45.9932 81.139,52.9356 78.9695,68.5559 73.7627,80.2712 70.2915,83.7424 62.4814,88.0814 52.0678,88.9492 47.7288,87.6475 36.4475,81.139 29.5051,72.461 26.9017,65.9525 25.6,46.4271" stroke="#00007f" stroke-width="2" /><polyline fill="none" points="43.8237,55.539 43.3898,55.539" stroke="#0000fe" stroke-width="2" /><polyline fill="none" points="65.9525,61.6136 65.0847,61.6136" stroke="#0060ff" stroke-width="2" /><polyline fill="none" points="55.1051,71.1593 54.6712,71.5932" stroke="#00d4ff" stroke-width="2" /><polyline fill="none" points="59.0102,76.3661 73.3288,59.878 101.9661,36.8814" stroke="#4cffaa" stroke-width="2" /><polyline fill="none" points="65.9525,72.8949 78.1017,69.4237 103.7017,65.9525" stroke="#aaff4c" stroke-width="2" /><polyline fill="none" points="60.3119,81.5729 71.5932,85.9119 92.8542,98.4949" stroke="#ffe500" stroke-width="2" /><polyline fill="none" points="49.0305,77.6678 33.4102,72.8949 11.2814,72.461" stroke="#ff7a00" stroke-width="2" /><polyline fill="none" points="43.3898,82.0068 31.2407,85.9119 13.4508,95.4576 8.678,101.0983" stroke="#fe1200" stroke-width="2" /><polyline fill="none" points="51.2,85.0441 43.3898,88.5153 26.4678,101.9661 16.4881,111.9458 11.7153,119.322" stroke="#7f0000" stroke-width="2" /></svg>