<?xml version="1.0" encoding="utf-8" ?>
<svg baseProfile="tiny" height="128" version="1.2" viewBox="0,0,128,128" width="128" xmlns="http://www.w3.org/2000/svg" xmlns:ev="http://www.w3.org/2001/xml-events" xmlns:xlink="http://www.w3.org/1999/xlink"><defs /><polyline fill="none" points="29.0712,35.5797 29.5051,51.6339 34.7119,63.7831 39.9186,94.1559 45.1254,100.6644 55.9729,108.9085 68.5559,114.1153 76.8,115.4169 90.2508,105.0034 95.8915,90.6847 100.2305,70.2915 106.3051,54.2373 106.739,48.1627 105.0034,44.6915 91.5525,33.8441 73.7627,30.8068 55.539,30.8068 42.0881,32.5424 25.1661,46.861" stroke="#00007f" stroke-width="2" /><polyline fill="none" points="29.0712,51.2 22.9966,47.2949 13.4508,38.1831 12.5831,35.5797 12.1492,32.1085 14.3186,27.3356 19.9593,20.8271 35.5797,20.3932 37.7492,25.1661 40.3525,39.4847" stroke="#0000fe" stroke-width="2" /><polyline fill="none" points="90.6847,30.3729 109.3424,14.7525 119.322,8.678 111.9458,31.6746 106.739,43.3898" stroke="#0060ff" stroke-width="2" /><polyline fill="none" points="36.8814,28.2034 20.3932,13.4508 14.7525,11.7153 8.678,11.7153 17.7898,30.8068 21.261,44.2576" stroke="#00d4ff" stroke-width="2" /><polyline fill="none" points="45.1254,54.2373 55.1051,54.2373 55.9729,57.7085 54.2373,60.3119 49.4644,61.1797 40.3525,59.878 49.8983,54.2373" stroke="#4cffaa" stroke-width="2" /><polyline fill="none" points="74.1966,56.8407 87.6475,56.8407 87.2136,62.4814 83.3085,66.8203 77.6678,68.5559 75.9322,60.7458 80.7051,58.1424" stroke="#aaff4c" stroke-width="2" /><polyline fill="none" points="63.3492,85.0441 66.8203,87.6475 69.8576,87.6475 71.1593,84.6102 65.9525,83.7424" stroke="#ffe500" stroke-width="2" /><polyline fill="none" points="62.9153,85.478 39.9186,85.0441 17.7898,79.4034" stroke="#ff7a00" stroke-width="2" /><polyline fill="none" points="65.5186,86.3458 19.9593,93.2881" stroke="#fe1200" stroke-width="2" /><polyline fill="none" points="64.6508,90.2508 42.9559,95.4576 31.2407,101.0983" stroke="#7f0000" stroke-width="2" /></svg>