<?xml version="1.0" encoding="utf-8" ?>
<svg baseProfile="tiny" height="128" version="1.2" viewBox="0,0,128,128" width="128" xmlns="http://www.w3.org/2000/svg" xmlns:ev="http://www.w3.org/2001/xml-events" xmlns:xlink="http://www.w3.org/1999/xlink"><defs /><polyline fill="none" points="58.5763,20.3932 56.8407,19.5254 52.0678,21.6949 36.0136,35.1458 32.1085,42.0881 30.3729,53.3695 34.278,57.2746 42.9559,61.6136 55.1051,64.6508 59.878,64.6508 72.0271,60.7458 82.0068,53.8034 85.478,46.861 85.478,39.4847 76.3661,31.6746 59.4441,22.9966" stroke="#00007f" stroke-width="2" /><polyline fill="none" points="41.6542,28.6373 41.6542,10.8475 42.9559,8.678 45.1254,9.1119 48.1627,16.4881 52.9356,21.6949 59.878,12.1492 65.5186,9.5458 68.122,16.922 68.122,24.7322 68.9898,23.8644" stroke="#0000de" stroke-width="2" /><polyline fill="none" points="49.0305,33.8441 45.9932,37.7492 45.5593,42.522 50.3322,42.522 50.3322,37.3153" stroke="#0028ff" stroke-width="2" /><polyline fill="none" points="50.7661,36.0136 50.7661,36.0136" stroke="#0080ff" stroke-width="2" /><polyline fill="none" points="48.5966,40.7864 49.4644,39.4847" stroke="#00d4ff" stroke-width="2" /><polyline fill="none" points="71.5932,32.1085 68.122,39.4847 67.6881,45.5593 69.4237,45.9932 72.0271,37.7492 68.9898,35.1458" stroke="#36ffc0" stroke-width="2" /><polyline fill="none" points="72.8949,38.6169 71.5932,40.7864 71.5932,39.0508 71.5932,42.0881" stroke="#7cff79" stroke-width="2" /><polyline fill="none" points="58.1424,49.4644 56.8407,54.2373 50.3322,59.0102 45.9932,59.0102 43.3898,57.7085 42.0881,55.1051 42.9559,53.3695" stroke="#c0ff36" stroke-width="2" /><polyline fill="none" points="62.4814,45.5593 61.1797,50.3322 62.0475,57.7085 64.6508,59.4441 67.2542,59.0102 68.9898,53.8034" stroke="#ffe500" stroke-width="2" /><polyline fill="none" points="60.3119,51.2 59.4441,50.3322 59.4441,45.9932 64.2169,43.3898 65.5186,44.2576 65.0847,45.1254 60.3119,47.2949 60.7458,45.1254 63.7831,44.2576 62.0475,45.9932" stroke="#ff9400" stroke-width="2" /><polyline fill="none" points="70.7254,55.1051 101.0983,45.5593 118.8881,43.8237" stroke="#ff4600" stroke-width="2" /><polyline fill="none" points="64.2169,52.9356 74.6305,45.9932 90.2508,40.3525 119.322,36.0136" stroke="#de0000" stroke-width="2" /><polyline fill="none" points="36.0136,48.5966 14.7525,38.6169 8.678,36.8814" stroke="#7f0000" stroke-width="2" /></svg>