<?xml version="1.0" encoding="utf-8" ?>
<svg baseProfile="tiny" height="128" version="1.2" viewBox="0,0,128,128" width="128" xmlns="http://www.w3.org/2000/svg" xmlns:ev="http://www.w3.org/2001/xml-events" xmlns:xlink="http://www.w3.org/1999/xlink"><defs /><polyline fill="none" points="18.7211,44.8435 10.8844,22.2041 8.7075,10.0136 10.0136,10.0136 20.0272,20.4626 42.6667,37.4422" stroke="#00007f" stroke-width="2" /><polyline fill="none" points="19.1565,27.4286 28.2993,45.7143" stroke="#0000d1" stroke-width="2" /><polyline fill="none" points="20.898,25.6871 38.3129,40.9252" stroke="#0010ff" stroke-width="2" /><polyline fill="none" points="17.415,41.7959 20.0272,46.1497 23.9456,48.7619" stroke="#0058ff" stroke-width="2" /><polyline fill="none" points="82.2857,43.9728 90.5578,25.6871 101.0068,8.7075 101.8776,10.0136 101.8776,17.415 97.9592,42.6667 97.5238,53.551" stroke="#00a4ff" stroke-width="2" /><polyline fill="none" points="91.8639,24.381 88.381,43.5374 85.7687,49.1973" stroke="#05ecf1" stroke-width="2" /><polyline fill="none" points="94.4762,25.2517 95.3469,32.2177 94.4762,50.9388" stroke="#3fffb7" stroke-width="2" /><polyline fill="none" points="78.8027,43.9728 71.4014,39.619 58.7755,36.5714 51.3741,36.5714 45.2789,38.7483" stroke="#7cff79" stroke-width="2" /><polyline fill="none" points="20.898,47.0204 12.6259,65.7415 13.4966,71.8367 19.1565,83.5918 29.1701,97.5238 39.1837,104.9252 50.9388,110.1497 59.6463,111.8912 77.932,111.8912 87.5102,105.7959 98.8299,102.3129 101.8776,100.5714 107.102,93.1701 116.6803,84.898 117.1156,70.966 115.3741,66.1769 111.4558,60.0816 105.7959,54.8571 99.7007,51.8095 97.0884,52.2449" stroke="#b7ff3f" stroke-width="2" /><polyline fill="none" points="51.8095,86.2041 40.0544,83.5918 30.0408,83.1565 22.2041,84.898 18.2857,87.5102 15.6735,90.5578 19.1565,91.8639" stroke="#f1fc05" stroke-width="2" /><polyline fill="none" points="53.551,88.381 42.6667,94.0408 27.4286,99.7007 25.6871,100.5714 28.7347,101.8776" stroke="#ffb900" stroke-width="2" /><polyline fill="none" points="61.3878,95.7823 46.585,104.9252" stroke="#ff7300" stroke-width="2" /><polyline fill="none" points="57.034,104.0544 57.9048,105.7959 56.5986,111.0204 59.6463,113.6327" stroke="#ff3000" stroke-width="2" /><polyline fill="none" points="75.7551,82.7211 100.1361,81.415 119.2925,84.898" stroke="#d10000" stroke-width="2" /><polyline fill="none" points="96.2177,88.381 96.2177,88.381" stroke="#7f0000" stroke-width="2" /></svg>