<?xml version="1.0" encoding="utf-8" ?>
<svg baseProfile="tiny" height="128" version="1.2" viewBox="0,0,128,128" width="128" xmlns="http://www.w3.org/2000/svg" xmlns:ev="http://www.w3.org/2001/xml-events" xmlns:xlink="http://www.w3.org/1999/xlink"><defs /><polyline fill="none" points="116.2847,28.2034 109.7763,23.8644 101.5322,21.261 95.0237,21.6949 86.3458,26.9017 80.7051,33.4102 77.2339,43.3898 78.1017,49.4644 84.1763,55.1051 88.0814,57.7085 95.8915,59.0102 100.2305,58.1424 108.9085,52.9356 114.9831,44.6915 117.1525,35.5797 116.7186,27.3356 111.078,24.7322" stroke="#00007f" stroke-width="2" /><polyline fill="none" points="88.9492,30.8068 85.9119,20.8271 77.2339,13.4508 72.461,11.2814 73.7627,30.8068 76.8,37.7492" stroke="#0010ff" stroke-width="2" /><polyline fill="none" points="107.1729,24.2983 114.1153,8.678 119.322,20.8271 119.322,31.6746" stroke="#00a4ff" stroke-width="2" /><polyline fill="none" points="93.2881,36.0136 94.5898,37.7492 95.0237,45.1254" stroke="#3fffb7" stroke-width="2" /><polyline fill="none" points="101.9661,31.6746 105.0034,41.2203" stroke="#b7ff3f" stroke-width="2" /><polyline fill="none" points="100.2305,43.3898 100.2305,46.861 103.2678,53.8034 106.739,52.9356 109.7763,49.0305" stroke="#ffb900" stroke-width="2" /><polyline fill="none" points="101.0983,51.2 99.3627,52.9356 94.1559,51.2 93.2881,47.2949 95.4576,45.1254" stroke="#ff3000" stroke-width="2" /><polyline fill="none" points="72.461,61.1797 62.9153,55.539 53.3695,45.9932 48.5966,44.2576 37.3153,43.3898 18.2237,43.8237 8.678,47.7288 8.678,52.0678" stroke="#7f0000" stroke-width="2" /></svg>