<?xml version="1.0" encoding="utf-8" ?>
<svg baseProfile="tiny" height="128" version="1.2" viewBox="0,0,128,128" width="128" xmlns="http://www.w3.org/2000/svg" xmlns:ev="http://www.w3.org/2001/xml-events" xmlns:xlink="http://www.w3.org/1999/xlink"><defs /><polyline fill="none" points="44.6915,42.9559 42.522,28.2034 44.2576,10.4136 45.5593,10.4136 48.1627,16.0542 55.9729,36.4475 62.4814,42.522 76.3661,39.0508 77.6678,26.4678 82.0068,8.678 90.6847,32.5424 97.6271,47.2949 98.9288,58.5763 95.8915,68.5559 92.8542,72.8949 88.0814,75.9322 68.5559,78.9695 54.6712,76.8 46.861,72.0271 41.2203,61.6136 41.2203,49.4644 43.8237,38.6169 45.1254,38.6169" stroke="#00007f" stroke-width="2" /><polyline fill="none" points="49.4644,53.3695 8.678,62.0475" stroke="#0000fe" stroke-width="2" /><polyline fill="none" points="44.6915,59.4441 26.9017,80.2712" stroke="#0060ff" stroke-width="2" /><polyline fill="none" points="48.1627,59.878 41.6542,78.5356 40.3525,86.3458 42.0881,88.5153" stroke="#00d4ff" stroke-width="2" /><polyline fill="none" points="94.5898,54.2373 119.322,30.8068" stroke="#4cffaa" stroke-width="2" /><polyline fill="none" points="97.1932,53.3695 113.6814,52.0678" stroke="#aaff4c" stroke-width="2" /><polyline fill="none" points="95.0237,60.3119 101.9661,62.9153 110.2102,68.122" stroke="#ffe500" stroke-width="2" /><polyline fill="none" points="65.9525,55.1051 68.5559,53.8034 74.6305,54.6712 79.8373,58.5763 75.9322,63.3492 70.7254,64.6508 68.122,62.4814 67.6881,57.2746 69.8576,53.8034 72.0271,56.4068 72.0271,57.7085 70.7254,57.7085" stroke="#ff7a00" stroke-width="2" /><polyline fill="none" points="61.6136,49.0305 57.7085,49.0305 62.0475,52.5017" stroke="#fe1200" stroke-width="2" /><polyline fill="none" points="78.9695,43.3898 78.1017,43.8237 80.2712,43.8237 80.7051,42.522 79.4034,42.9559" stroke="#7f0000" stroke-width="2" /></svg>