<?xml version="1.0" encoding="utf-8" ?>
<svg baseProfile="tiny" height="128" version="1.2" viewBox="0,0,128,128" width="128" xmlns="http://www.w3.org/2000/svg" xmlns:ev="http://www.w3.org/2001/xml-events" xmlns:xlink="http://www.w3.org/1999/xlink"><defs /><polyline fill="none" points="88.5153,18.2237 81.5729,26.0339 79.4034,32.5424 80.7051,34.7119 97.6271,34.7119 118.0203,25.1661 119.322,21.261 106.739,15.1864 93.722,16.0542 90.2508,19.0915" stroke="#00007f" stroke-width="2" /><polyline fill="none" points="82.8746,25.1661 59.0102,19.9593 49.0305,19.5254 34.278,22.5627 28.6373,28.2034 44.6915,34.7119 58.5763,37.7492 66.8203,37.7492 81.5729,33.8441" stroke="#0000ff" stroke-width="2" /><polyline fill="none" points="28.2034,26.9017 15.6203,26.4678 10.4136,23.8644 8.678,19.9593 9.9797,17.7898 19.9593,11.7153 23.8644,12.1492 23.8644,14.7525 21.6949,15.6203" stroke="#0080ff" stroke-width="2" /><polyline fill="none" points="33.4102,29.939 34.7119,40.7864" stroke="#15ffe1" stroke-width="2" /><polyline fill="none" points="44.6915,32.9763 45.5593,38.1831" stroke="#7cff79" stroke-width="2" /><polyline fill="none" points="60.7458,37.3153 61.6136,40.7864" stroke="#e4ff12" stroke-width="2" /><polyline fill="none" points="68.9898,36.0136 71.1593,42.522" stroke="#ff9400" stroke-width="2" /><polyline fill="none" points="93.722,15.1864 93.722,8.678 98.4949,14.3186" stroke="#ff1d00" stroke-width="2" /><polyline fill="none" points="112.8136,19.9593 107.6068,22.1288 102.8339,22.9966 103.2678,21.6949" stroke="#7f0000" stroke-width="2" /></svg>