<?xml version="1.0" encoding="utf-8" ?>
<svg baseProfile="tiny" height="128" version="1.2" viewBox="0,0,128,128" width="128" xmlns="http://www.w3.org/2000/svg" xmlns:ev="http://www.w3.org/2001/xml-events" xmlns:xlink="http://www.w3.org/1999/xlink"><defs /><polyline fill="none" points="27.8639,33.0884 28.7347,35.2653 28.2993,51.8095 32.6531,67.483 37.8776,77.4966 46.1497,83.5918 61.3878,90.9932 91.4286,90.1224 93.1701,88.381 97.5238,74.8844 98.3946,66.6122 97.9592,57.034 93.6054,39.619 91.4286,39.1837 80.5442,26.5578 74.8844,10.8844 62.2585,16.5442 59.2109,20.4626 57.4694,30.0408 60.0816,32.6531 42.2313,32.2177 42.2313,21.7687 39.619,18.2857 33.0884,13.4966 23.0748,8.7075 26.9932,12.6259 27.4286,15.6735 21.7687,30.0408 23.5102,30.4762 25.2517,26.9932" stroke="#00007f" stroke-width="2" /><polyline fill="none" points="71.4014,64.8707 71.8367,68.3537 70.0952,68.7891 54.4218,68.7891 47.0204,67.0476 46.1497,64.8707 59.2109,58.3401 69.2245,56.5986 75.7551,56.5986 78.3673,59.2109 65.7415,65.3061 61.8231,64.8707" stroke="#0010ff" stroke-width="2" /><polyline fill="none" points="78.3673,54.8571 67.483,56.5986 70.5306,57.4694 85.7687,57.9048 106.2313,60.517 119.2925,56.5986 114.068,56.5986" stroke="#00a4ff" stroke-width="2" /><polyline fill="none" points="72.2721,60.0816 89.6871,63.5646 114.068,64.8707" stroke="#3fffb7" stroke-width="2" /><polyline fill="none" points="69.2245,56.5986 73.1429,57.4694 91.8639,57.034 106.6667,52.2449 111.8912,47.8912" stroke="#b7ff3f" stroke-width="2" /><polyline fill="none" points="56.1633,61.3878 42.2313,59.2109 23.9456,59.2109 10.449,56.1633" stroke="#ffb900" stroke-width="2" /><polyline fill="none" points="58.3401,62.6939 50.5034,62.6939 28.2993,66.6122 8.7075,72.2721" stroke="#ff3000" stroke-width="2" /><polyline fill="none" points="54.8571,58.7755 54.8571,58.7755" stroke="#7f0000" stroke-width="2" /></svg>