<?xml version="1.0" encoding="utf-8" ?>
<svg baseProfile="tiny" height="128" version="1.2" viewBox="0,0,128,128" width="128" xmlns="http://www.w3.org/2000/svg" xmlns:ev="http://www.w3.org/2001/xml-events" xmlns:xlink="http://www.w3.org/1999/xlink"><defs /><polyline fill="none" points="16.4881,40.7864 15.6203,34.278 19.9593,28.2034 24.2983,25.6 28.6373,25.1661 30.8068,26.4678 30.8068,30.8068 28.6373,34.278 22.9966,38.6169 16.922,38.6169 14.3186,34.7119 14.7525,28.6373 18.6576,23.4305 23.8644,20.3932 26.9017,20.8271" stroke="#00007f" stroke-width="2" /><polyline fill="none" points="16.4881,33.4102 9.9797,22.1288 8.678,10.4136 10.8475,9.9797 11.7153,11.2814 18.6576,28.6373 19.5254,27.7695" stroke="#0000fe" stroke-width="2" /><polyline fill="none" points="22.1288,25.6 22.9966,16.4881 27.3356,9.5458 29.5051,8.678 29.0712,24.7322" stroke="#0060ff" stroke-width="2" /><polyline fill="none" points="27.3356,27.7695 36.4475,23.4305 50.7661,22.5627 68.5559,26.4678 74.6305,29.0712 78.1017,32.5424 78.1017,33.8441 74.1966,36.4475 62.0475,36.8814 29.5051,34.7119 28.6373,33.4102 29.5051,31.6746" stroke="#00d4ff" stroke-width="2" /><polyline fill="none" points="78.1017,33.4102 77.6678,29.939 80.2712,25.1661 85.478,21.6949 98.4949,16.922" stroke="#4cffaa" stroke-width="2" /><polyline fill="none" points="42.0881,37.3153 39.4847,42.522 37.7492,52.9356" stroke="#aaff4c" stroke-width="2" /><polyline fill="none" points="48.5966,36.8814 49.4644,48.5966" stroke="#ffe500" stroke-width="2" /><polyline fill="none" points="61.6136,37.3153 64.2169,53.8034" stroke="#ff7a00" stroke-width="2" /><polyline fill="none" points="68.5559,38.6169 75.9322,49.8983" stroke="#fe1200" stroke-width="2" /><polyline fill="none" points="119.322,42.9559 119.322,42.9559" stroke="#7f0000" stroke-width="2" /></svg>