<?xml version="1.0" encoding="utf-8" ?>
<svg baseProfile="tiny" height="128" version="1.2" viewBox="0,0,128,128" width="128" xmlns="http://www.w3.org/2000/svg" xmlns:ev="http://www.w3.org/2001/xml-events" xmlns:xlink="http://www.w3.org/1999/xlink"><defs /><polyline fill="none" points="103.2678,23.4305 93.722,24.7322 88.5153,33.4102 90.2508,42.9559 99.7966,45.9932 108.9085,45.5593 111.5119,42.0881 111.5119,32.5424 105.8712,23.8644" stroke="#00007f" stroke-width="2" /><polyline fill="none" points="89.3831,27.3356 85.0441,8.678 88.0814,9.9797 96.7593,20.3932" stroke="#0000ff" stroke-width="2" /><polyline fill="none" points="104.1356,22.1288 118.0203,13.0169 119.322,15.1864 119.322,24.7322 112.3797,29.0712" stroke="#0080ff" stroke-width="2" /><polyline fill="none" points="95.4576,46.4271 91.9864,54.6712 85.9119,59.0102 71.1593,63.7831 55.539,65.5186 52.5017,67.2542 56.8407,72.8949 64.2169,77.6678 68.9898,78.5356 82.0068,78.1017 87.6475,74.1966 95.4576,60.3119 98.9288,59.4441 102.8339,47.2949" stroke="#15ffe1" stroke-width="2" /><polyline fill="none" points="50.7661,66.3864 36.8814,65.5186 29.0712,70.2915 20.8271,70.7254 12.5831,66.3864 11.2814,62.9153 8.678,60.7458" stroke="#7cff79" stroke-width="2" /><polyline fill="none" points="90.2508,69.8576 95.8915,84.1763" stroke="#e4ff12" stroke-width="2" /><polyline fill="none" points="92.8542,65.5186 100.2305,87.2136" stroke="#ff9400" stroke-width="2" /><polyline fill="none" points="98.4949,31.6746 98.4949,31.2407" stroke="#ff1d00" stroke-width="2" /><polyline fill="none" points="104.5695,32.5424 103.2678,32.9763" stroke="#7f0000" stroke-width="2" /></svg>