<?xml version="1.0" encoding="utf-8" ?>
<svg baseProfile="tiny" height="128" version="1.2" viewBox="0,0,128,128" width="128" xmlns="http://www.w3.org/2000/svg" xmlns:ev="http://www.w3.org/2001/xml-events" xmlns:xlink="http://www.w3.org/1999/xlink"><defs /><polyline fill="none" points="36.5714,33.9592 36.1361,59.2109 40.9252,63.1293 44.4082,62.2585 47.0204,59.2109 49.6327,43.102 64.0,40.4898 71.8367,40.9252 75.7551,56.5986 79.6735,59.6463 84.4626,59.2109 87.5102,52.6803 87.5102,41.3605 85.3333,37.0068 80.5442,33.0884 64.8707,28.7347 44.4082,28.2993 35.2653,30.4762 30.9116,33.5238" stroke="#00007f" stroke-width="2" /><polyline fill="none" points="35.7007,31.3469 22.2041,27.4286 14.8027,28.2993 9.1429,33.0884 8.7075,40.4898 13.4966,45.2789 20.0272,47.0204 39.1837,41.7959" stroke="#0000e8" stroke-width="2" /><polyline fill="none" points="80.9796,31.7823 81.415,27.8639 86.6395,21.3333 95.7823,16.1088 102.7483,14.3673 107.5374,14.3673 113.1973,16.5442 117.1156,19.5918 119.2925,23.9456 115.3741,30.9116 107.5374,36.5714 102.7483,38.3129 80.9796,41.3605" stroke="#0038ff" stroke-width="2" /><polyline fill="none" points="83.1565,25.2517 83.5918,13.0612 92.2993,18.7211" stroke="#0094ff" stroke-width="2" /><polyline fill="none" points="99.7007,16.5442 108.4082,8.7075 112.7619,13.932 113.6327,16.5442" stroke="#0cf4ea" stroke-width="2" /><polyline fill="none" points="91.4286,25.6871 91.8639,25.6871" stroke="#56ffa0" stroke-width="2" /><polyline fill="none" points="101.4422,23.0748 101.8776,23.0748" stroke="#a0ff56" stroke-width="2" /><polyline fill="none" points="111.0204,23.9456 116.6803,20.0272" stroke="#eaff0c" stroke-width="2" /><polyline fill="none" points="110.585,27.8639 117.551,24.8163" stroke="#ffaa00" stroke-width="2" /><polyline fill="none" points="112.3265,30.9116 117.9864,32.2177" stroke="#ff5500" stroke-width="2" /><polyline fill="none" points="93.6054,33.9592 100.5714,33.5238 107.5374,31.3469" stroke="#e80000" stroke-width="2" /><polyline fill="none" points="97.0884,26.9932 98.3946,27.8639" stroke="#7f0000" stroke-width="2" /></svg>