<?xml version="1.0" encoding="utf-8" ?>
<svg baseProfile="tiny" height="128" version="1.2" viewBox="0,0,128,128" width="128" xmlns="http://www.w3.org/2000/svg" xmlns:ev="http://www.w3.org/2001/xml-events" xmlns:xlink="http://www.w3.org/1999/xlink"><defs /><polyline fill="none" points="72.8949,34.278 70.2915,31.6746 62.0475,29.5051 55.1051,29.5051 47.7288,31.2407 32.9763,42.522 22.9966,55.1051 21.261,61.1797 21.6949,72.8949 33.4102,88.0814 40.3525,93.2881 48.1627,96.3254 67.6881,94.5898 77.2339,90.6847 85.0441,84.6102 95.4576,69.8576 97.6271,62.9153 96.7593,48.5966 89.8169,37.7492 78.5356,30.8068 71.5932,30.8068 66.8203,32.9763" stroke="#00007f" stroke-width="2" /><polyline fill="none" points="41.2203,36.4475 25.1661,8.678 25.1661,52.0678" stroke="#0028ff" stroke-width="2" /><polyline fill="none" points="78.5356,33.8441 82.4407,26.9017 91.1186,16.4881 97.6271,10.8475 101.5322,9.5458 101.0983,35.1458 96.7593,58.1424" stroke="#00d4ff" stroke-width="2" /><polyline fill="none" points="62.9153,62.9153 118.0203,40.3525" stroke="#7cff79" stroke-width="2" /><polyline fill="none" points="68.5559,78.1017 86.7797,72.8949 119.322,67.6881" stroke="#ffe500" stroke-width="2" /><polyline fill="none" points="45.9932,73.3288 13.4508,51.6339 9.9797,47.7288" stroke="#ff4600" stroke-width="2" /><polyline fill="none" points="41.2203,75.9322 28.6373,78.1017 21.6949,81.5729 11.2814,90.6847 8.678,96.7593" stroke="#7f0000" stroke-width="2" /></svg>