<?xml version="1.0" encoding="utf-8" ?>
<svg baseProfile="tiny" height="128" version="1.2" viewBox="0,0,128,128" width="128" xmlns="http://www.w3.org/2000/svg" xmlns:ev="http://www.w3.org/2001/xml-events" xmlns:xlink="http://www.w3.org/1999/xlink"><defs /><polyline fill="none" points="58.5763,49.0305 50.7661,45.9932 36.4475,45.1254 19.0915,54.6712 11.7153,62.4814 8.678,75.9322 10.4136,85.0441 17.3559,95.0237 25.6,98.9288 53.3695,101.9661 78.9695,101.5322 93.2881,98.4949 107.1729,92.8542 114.1153,86.7797 117.1525,82.4407 118.8881,77.2339 119.322,69.8576 118.4542,67.2542 112.3797,59.4441 102.4,54.2373" stroke="#00007f" stroke-width="2" /><polyline fill="none" points="26.0339,42.522 28.2034,27.7695 33.4102,13.0169 37.3153,8.678 48.5966,30.3729 52.5017,44.6915" stroke="#0000cc" stroke-width="2" /><polyline fill="none" points="56.8407,45.5593 86.7797,45.5593 101.9661,49.4644 104.1356,51.2" stroke="#0008ff" stroke-width="2" /><polyline fill="none" points="75.0644,43.8237 75.9322,42.0881 87.6475,36.4475 99.3627,26.9017 102.8339,25.6 108.0407,47.2949" stroke="#004cff" stroke-width="2" /><polyline fill="none" points="46.861,60.3119 44.6915,60.7458 47.7288,62.0475 44.6915,61.6136" stroke="#0090ff" stroke-width="2" /><polyline fill="none" points="101.0983,64.6508 93.722,63.7831 94.5898,62.0475 90.6847,61.6136 94.5898,61.6136 93.722,60.3119 91.9864,60.3119 92.4203,62.0475 98.4949,62.4814 99.7966,57.7085" stroke="#00d4ff" stroke-width="2" /><polyline fill="none" points="32.9763,52.9356 32.5424,54.6712 38.1831,57.2746 42.522,57.7085 42.522,56.4068 37.7492,54.2373" stroke="#29ffcd" stroke-width="2" /><polyline fill="none" points="64.2169,65.9525 64.2169,63.7831 62.9153,64.6508 62.9153,68.5559 65.9525,70.2915 66.3864,68.122 65.9525,62.9153 64.2169,62.0475 62.4814,65.0847 63.3492,68.5559" stroke="#5fff96" stroke-width="2" /><polyline fill="none" points="41.6542,84.6102 45.9932,88.5153 59.878,89.3831 72.461,86.3458 81.139,86.3458 82.4407,84.6102" stroke="#96ff5f" stroke-width="2" /><polyline fill="none" points="26.0339,73.3288 25.1661,65.9525 23.4305,61.1797 19.9593,57.7085 16.4881,55.9729" stroke="#cdff29" stroke-width="2" /><polyline fill="none" points="25.1661,82.8746 11.7153,68.9898" stroke="#ffe500" stroke-width="2" /><polyline fill="none" points="32.9763,88.5153 24.2983,88.0814 12.1492,82.4407" stroke="#ffa600" stroke-width="2" /><polyline fill="none" points="85.478,71.1593 85.478,71.1593" stroke="#ff6700" stroke-width="2" /><polyline fill="none" points="76.3661,80.7051 88.9492,81.139 106.739,77.2339" stroke="#ff2800" stroke-width="2" /><polyline fill="none" points="78.1017,68.5559 92.8542,68.9898 101.9661,68.122 105.0034,66.8203" stroke="#cc0000" stroke-width="2" /><polyline fill="none" points="84.1763,86.3458 94.1559,92.4203 102.8339,95.0237" stroke="#7f0000" stroke-width="2" /></svg>