<?xml version="1.0" encoding="utf-8" ?>
<svg baseProfile="tiny" height="128" version="1.2" viewBox="0,0,128,128" width="128" xmlns="http://www.w3.org/2000/svg" xmlns:ev="http://www.w3.org/2001/xml-events" xmlns:xlink="http://www.w3.org/1999/xlink"><defs /><polyline fill="none" points="39.4847,46.861 39.0508,55.539" stroke="#00007f" stroke-width="2" /><polyline fill="none" points="45.1254,47.2949 45.1254,53.3695" stroke="#0000f1" stroke-width="2" /><polyline fill="none" points="77.2339,45.9932 77.2339,53.8034" stroke="#004cff" stroke-width="2" /><polyline fill="none" points="83.7424,49.0305 83.7424,54.2373" stroke="#00b0ff" stroke-width="2" /><polyline fill="none" points="41.2203,29.5051 38.6169,29.0712 34.278,32.5424 32.9763,36.0136 32.9763,40.3525 39.9186,45.5593 49.4644,48.1627 88.5153,47.2949 89.3831,40.7864 86.7797,35.1458 75.9322,27.3356 68.9898,25.6 53.8034,27.7695 39.4847,27.7695" stroke="#29ffcd" stroke-width="2" /><polyline fill="none" points="30.8068,35.5797 27.3356,37.7492 18.2237,38.1831 9.1119,32.1085 8.678,29.939" stroke="#7cff79" stroke-width="2" /><polyline fill="none" points="84.1763,31.6746 82.8746,20.8271 85.478,15.1864 85.0441,8.678 88.5153,8.678 93.722,15.1864 108.0407,13.8847 119.322,18.2237 115.8508,23.8644 110.2102,26.4678 96.7593,26.9017 92.8542,37.3153 89.3831,40.7864" stroke="#cdff29" stroke-width="2" /><polyline fill="none" points="88.0814,12.1492 86.7797,16.922 89.3831,16.922 90.2508,14.7525 88.5153,11.7153" stroke="#ffc400" stroke-width="2" /><polyline fill="none" points="114.9831,16.4881 114.5492,22.9966 116.7186,24.7322" stroke="#ff6700" stroke-width="2" /><polyline fill="none" points="105.8712,16.922 104.5695,17.7898 105.4373,16.922 102.4,16.922" stroke="#f10700" stroke-width="2" /><polyline fill="none" points="97.6271,16.4881 94.1559,18.2237 88.0814,17.7898 88.5153,16.922 94.1559,19.0915 95.0237,18.2237 95.0237,16.922 92.8542,16.4881 87.6475,18.6576 86.3458,22.5627 91.9864,23.4305 97.6271,19.0915 100.6644,19.5254" stroke="#7f0000" stroke-width="2" /></svg>