<?xml version="1.0" encoding="utf-8" ?>
<svg baseProfile="tiny" height="128" version="1.2" viewBox="0,0,128,128" width="128" xmlns="http://www.w3.org/2000/svg" xmlns:ev="http://www.w3.org/2001/xml-events" xmlns:xlink="http://www.w3.org/1999/xlink"><defs /><polyline fill="none" points="98.061,32.9763 90.6847,34.278 87.6475,37.7492 86.3458,41.6542 86.3458,49.8983 88.0814,53.3695 90.6847,55.1051 97.6271,55.539 99.3627,53.3695 101.0983,39.4847 100.6644,36.8814 97.1932,34.278" stroke="#00007f" stroke-width="2" /><polyline fill="none" points="88.5153,38.6169 77.2339,35.1458 56.4068,35.1458 32.5424,43.3898" stroke="#0000ff" stroke-width="2" /><polyline fill="none" points="22.1288,49.0305 8.678,53.8034 17.3559,82.8746 18.6576,85.0441 21.261,85.478 82.8746,77.6678 88.9492,52.0678 90.6847,49.8983" stroke="#0080ff" stroke-width="2" /><polyline fill="none" points="33.4102,83.3085 33.4102,96.3254 37.3153,113.2475" stroke="#15ffe1" stroke-width="2" /><polyline fill="none" points="57.2746,78.1017 57.2746,105.0034" stroke="#7cff79" stroke-width="2" /><polyline fill="none" points="73.3288,80.2712 75.9322,99.3627 78.5356,101.0983" stroke="#e4ff12" stroke-width="2" /><polyline fill="none" points="87.6475,74.1966 91.9864,94.5898" stroke="#ff9400" stroke-width="2" /><polyline fill="none" points="91.1186,31.2407 92.4203,24.7322 99.3627,8.678 101.0983,13.4508 101.0983,29.0712 99.7966,34.7119" stroke="#ff1d00" stroke-width="2" /><polyline fill="none" points="102.8339,36.8814 104.5695,32.5424 118.0203,19.5254 119.322,22.5627 113.6814,40.7864 107.1729,50.7661" stroke="#7f0000" stroke-width="2" /></svg>