<?xml version="1.0" encoding="utf-8" ?>
<svg baseProfile="tiny" height="128" version="1.2" viewBox="0,0,128,128" width="128" xmlns="http://www.w3.org/2000/svg" xmlns:ev="http://www.w3.org/2001/xml-events" xmlns:xlink="http://www.w3.org/1999/xlink"><defs /><polyline fill="none" points="42.522,51.2 26.0339,12.1492 21.261,25.1661 19.9593,33.8441 21.261,49.8983 23.8644,57.2746" stroke="#00007f" stroke-width="2" /><polyline fill="none" points="40.7864,49.0305 52.5017,44.2576 68.5559,41.6542 95.4576,45.9932 95.4576,39.4847 100.2305,23.4305 104.5695,16.4881 112.3797,8.678 108.4746,44.6915 101.5322,63.3492" stroke="#0000fe" stroke-width="2" /><polyline fill="none" points="24.7322,56.4068 20.8271,73.7627 23.4305,84.1763 37.7492,95.0237 51.6339,100.2305 63.3492,101.9661 84.1763,101.0983 99.3627,92.8542 102.4,88.5153 104.1356,80.7051 101.9661,68.122 99.3627,64.6508" stroke="#0060ff" stroke-width="2" /><polyline fill="none" points="36.8814,72.461 22.1288,68.122 13.4508,63.7831" stroke="#00d4ff" stroke-width="2" /><polyline fill="none" points="35.1458,80.2712 8.678,89.8169" stroke="#4cffaa" stroke-width="2" /><polyline fill="none" points="40.3525,83.7424 29.5051,90.6847 25.1661,95.8915 17.7898,101.5322" stroke="#aaff4c" stroke-width="2" /><polyline fill="none" points="81.5729,73.7627 85.0441,71.1593 90.2508,69.4237 115.8508,66.8203 118.4542,67.2542 119.322,69.4237" stroke="#ffe500" stroke-width="2" /><polyline fill="none" points="90.6847,80.2712 105.8712,83.7424 118.8881,88.9492" stroke="#ff7a00" stroke-width="2" /><polyline fill="none" points="87.6475,91.5525 101.0983,98.061 106.3051,102.8339" stroke="#fe1200" stroke-width="2" /><polyline fill="none" points="49.8983,65.5186 52.0678,68.9898 49.8983,68.5559 48.1627,62.4814" stroke="#7f0000" stroke-width="2" /></svg>