<?xml version="1.0" encoding="utf-8" ?>
<svg baseProfile="tiny" height="128" version="1.2" viewBox="0,0,128,128" width="128" xmlns="http://www.w3.org/2000/svg" xmlns:ev="http://www.w3.org/2001/xml-events" xmlns:xlink="http://www.w3.org/1999/xlink"><defs /><polyline fill="none" points="90.2222,19.1111 84.8889,19.1111 82.6667,21.3333 81.3333,32.8889 83.5556,34.6667 93.7778,35.5556 98.6667,32.8889 100.8889,26.2222 101.3333,14.6667 100.0,12.4444 97.7778,11.1111 91.1111,11.1111 85.7778,14.2222" stroke="#00007f" stroke-width="2" /><polyline fill="none" points="87.1111,12.8889 84.8889,14.2222 83.1111,20.8889" stroke="#0000ff" stroke-width="2" /><polyline fill="none" points="83.5556,22.2222 68.8889,19.1111 67.5556,20.4444" stroke="#0080ff" stroke-width="2" /><polyline fill="none" points="80.0,27.5556 73.7778,32.0 83.5556,29.7778" stroke="#15ffe1" stroke-width="2" /><polyline fill="none" points="88.0,28.0 85.3333,40.0" stroke="#7cff79" stroke-width="2" /><polyline fill="none" points="96.4444,23.1111 103.5556,19.1111 116.0,15.5556 116.0,16.8889" stroke="#e4ff12" stroke-width="2" /><polyline fill="none" points="99.1111,28.0 114.6667,27.1111" stroke="#ff9400" stroke-width="2" /><polyline fill="none" points="96.8889,29.3333 101.7778,31.1111 119.1111,32.0" stroke="#ff1d00" stroke-width="2" /><polyline fill="none" points="86.6667,15.5556 78.6667,15.5556 68.8889,13.3333 59.5556,8.8889 36.4444,9.3333 15.5556,24.4444 10.6667,29.3333 8.8889,34.2222 9.3333,40.0 11.5556,43.1111 17.3333,44.8889 27.1111,45.3333 45.7778,45.3333 54.6667,42.2222 71.5556,32.4444 79.5556,32.0 84.4444,34.2222" stroke="#7f0000" stroke-width="2" /></svg>