<?xml version="1.0" encoding="utf-8" ?>
<svg baseProfile="tiny" height="128" version="1.2" viewBox="0,0,128,128" width="128" xmlns="http://www.w3.org/2000/svg" xmlns:ev="http://www.w3.org/2001/xml-events" xmlns:xlink="http://www.w3.org/1999/xlink"><defs /><polyline fill="none" points="61.3878,23.0748 49.1973,27.4286 43.102,32.6531 36.1361,43.102 30.9116,60.0816 31.7823,68.7891 35.2653,73.5782 43.102,79.2381 60.0816,85.3333 73.1429,85.7687 82.7211,78.3673 88.8163,68.3537 94.0408,52.2449 92.2993,43.102 84.0272,33.5238 75.7551,26.9932 65.3061,23.9456" stroke="#00007f" stroke-width="2" /><polyline fill="none" points="63.1293,53.1156 62.6939,56.1633" stroke="#0000de" stroke-width="2" /><polyline fill="none" points="62.6939,62.2585 55.7279,71.4014" stroke="#0028ff" stroke-width="2" /><polyline fill="none" points="68.3537,63.5646 71.4014,69.6599" stroke="#0080ff" stroke-width="2" /><polyline fill="none" points="79.6735,56.5986 119.2925,55.7279 117.551,54.8571" stroke="#00d4ff" stroke-width="2" /><polyline fill="none" points="77.932,61.8231 107.102,60.0816 109.7143,59.2109 109.7143,56.5986" stroke="#36ffc0" stroke-width="2" /><polyline fill="none" points="80.9796,44.8435 113.1973,43.102" stroke="#7cff79" stroke-width="2" /><polyline fill="none" points="64.8707,38.3129 81.8503,37.8776" stroke="#c0ff36" stroke-width="2" /><polyline fill="none" points="44.8435,40.4898 51.3741,39.1837" stroke="#ffe500" stroke-width="2" /><polyline fill="none" points="45.7143,32.6531 27.4286,13.932 24.8163,9.1429 31.3469,8.7075 42.6667,13.0612 60.517,23.5102" stroke="#ff9400" stroke-width="2" /><polyline fill="none" points="83.1565,28.2993 111.4558,10.0136 108.8435,18.2857 98.8299,34.8299" stroke="#ff4600" stroke-width="2" /><polyline fill="none" points="42.2313,52.2449 20.0272,51.8095 8.7075,53.1156" stroke="#de0000" stroke-width="2" /><polyline fill="none" points="37.0068,65.3061 13.4966,66.6122" stroke="#7f0000" stroke-width="2" /></svg>