<?xml version="1.0" encoding="utf-8" ?>
<svg baseProfile="tiny" height="128" version="1.2" viewBox="0,0,128,128" width="128" xmlns="http://www.w3.org/2000/svg" xmlns:ev="http://www.w3.org/2001/xml-events" xmlns:xlink="http://www.w3.org/1999/xlink"><defs /><polyline fill="none" points="18.2237,39.4847 19.5254,16.4881 17.3559,8.678 17.3559,11.2814 21.261,16.0542 31.6746,23.4305 38.1831,29.939 43.3898,27.7695 58.5763,24.2983 68.9898,24.2983 83.7424,29.0712 89.3831,33.4102 91.9864,31.6746 105.0034,11.7153 107.6068,16.4881 108.4746,34.278 103.7017,60.3119 90.2508,81.139 79.8373,87.6475 54.2373,89.8169 39.0508,81.5729 29.5051,68.9898 22.1288,62.4814 16.4881,54.2373 12.5831,43.8237 13.0169,38.6169 15.1864,37.3153" stroke="#00007f" stroke-width="2" /><polyline fill="none" points="41.6542,59.878 23.8644,57.7085 8.678,59.878" stroke="#0010ff" stroke-width="2" /><polyline fill="none" points="39.9186,70.7254 29.5051,77.2339 17.3559,89.8169" stroke="#00a4ff" stroke-width="2" /><polyline fill="none" points="36.0136,69.8576 23.4305,70.2915 17.7898,74.6305" stroke="#3fffb7" stroke-width="2" /><polyline fill="none" points="90.6847,61.6136 93.2881,61.6136 111.9458,52.9356 119.322,51.6339" stroke="#b7ff3f" stroke-width="2" /><polyline fill="none" points="90.2508,71.5932 110.6441,80.7051" stroke="#ffb900" stroke-width="2" /><polyline fill="none" points="96.7593,69.4237 115.4169,68.9898" stroke="#ff3000" stroke-width="2" /><polyline fill="none" points="65.9525,65.0847 64.2169,67.6881" stroke="#7f0000" stroke-width="2" /></svg>