<?xml version="1.0" encoding="utf-8" ?>
<svg baseProfile="tiny" height="128" version="1.2" viewBox="0,0,128,128" width="128" xmlns="http://www.w3.org/2000/svg" xmlns:ev="http://www.w3.org/2001/xml-events" xmlns:xlink="http://www.w3.org/1999/xlink"><defs /><polyline fill="none" points="71.5932,38.1831 62.4814,36.4475 50.7661,36.4475 40.7864,38.1831 24.7322,45.5593 13.8847,54.6712 9.5458,59.0102 8.678,64.2169 8.678,84.1763 13.0169,90.6847 21.261,98.9288 29.5051,105.0034 49.8983,114.1153 65.5186,116.7186 84.1763,115.8508 91.5525,101.9661 92.4203,70.7254 89.3831,55.1051 85.9119,49.0305 76.3661,44.6915" stroke="#00007f" stroke-width="2" /><polyline fill="none" points="14.7525,47.2949 25.6,21.261 28.2034,8.678 34.7119,19.5254 40.3525,32.1085 41.2203,37.3153" stroke="#004cff" stroke-width="2" /><polyline fill="none" points="73.3288,46.4271 73.3288,42.0881 84.1763,22.1288 89.3831,9.5458 93.2881,24.7322 95.8915,40.7864 95.8915,50.7661" stroke="#29ffcd" stroke-width="2" /><polyline fill="none" points="25.6,61.6136 25.6,61.6136" stroke="#cdff29" stroke-width="2" /><polyline fill="none" points="49.0305,80.7051 49.0305,85.0441 61.1797,85.9119 62.0475,81.5729 57.2746,78.1017 41.6542,78.9695 57.2746,79.8373" stroke="#ff6700" stroke-width="2" /><polyline fill="none" points="57.2746,81.5729 119.322,81.5729" stroke="#7f0000" stroke-width="2" /></svg>