<?xml version="1.0" encoding="utf-8" ?>
<svg baseProfile="tiny" height="128" version="1.2" viewBox="0,0,128,128" width="128" xmlns="http://www.w3.org/2000/svg" xmlns:ev="http://www.w3.org/2001/xml-events" xmlns:xlink="http://www.w3.org/1999/xlink"><defs /><polyline fill="none" points="85.9119,67.6881 82.0068,65.0847 68.5559,61.6136 51.6339,62.4814 46.861,64.6508 40.3525,70.7254 36.4475,80.2712 36.4475,90.2508 38.6169,95.0237 46.4271,102.8339 56.8407,106.739 73.3288,106.739 82.8746,98.061 88.0814,87.2136 90.2508,76.3661 90.2508,65.9525 86.3458,60.3119" stroke="#00007f" stroke-width="2" /><polyline fill="none" points="36.8814,74.6305 36.4475,64.6508 45.1254,26.4678 45.9932,39.0508 49.0305,49.4644 53.3695,56.8407 58.1424,61.6136" stroke="#0028ff" stroke-width="2" /><polyline fill="none" points="74.6305,64.2169 73.7627,61.1797 95.4576,32.1085 95.8915,37.7492 90.2508,55.539 89.3831,66.8203" stroke="#00d4ff" stroke-width="2" /><polyline fill="none" points="60.3119,77.6678 62.0475,85.478" stroke="#7cff79" stroke-width="2" /><polyline fill="none" points="76.3661,75.4983 73.7627,78.9695 73.7627,82.4407" stroke="#ffe500" stroke-width="2" /><polyline fill="none" points="52.9356,94.5898 55.1051,97.6271 65.9525,100.2305 73.7627,100.2305 78.9695,97.1932" stroke="#ff4600" stroke-width="2" /><polyline fill="none" points="104.5695,29.939 96.3254,21.6949 89.3831,20.8271 68.5559,21.6949 40.3525,29.0712 22.1288,41.2203 14.3186,49.8983 9.9797,59.4441 8.678,78.1017 10.4136,88.5153 15.1864,98.4949 32.1085,113.6814 43.3898,118.0203 54.6712,119.322 66.3864,119.322 79.4034,115.4169 91.1186,106.3051 101.5322,95.8915 109.7763,82.8746 115.8508,67.2542 118.8881,52.0678 118.8881,40.3525 116.7186,27.7695 110.2102,15.6203 103.2678,8.678" stroke="#7f0000" stroke-width="2" /></svg>