<?xml version="1.0" encoding="utf-8" ?>
<svg baseProfile="tiny" height="128" version="1.2" viewBox="0,0,128,128" width="128" xmlns="http://www.w3.org/2000/svg" xmlns:ev="http://www.w3.org/2001/xml-events" xmlns:xlink="http://www.w3.org/1999/xlink"><defs /><polyline fill="none" points="73.207,44.4632 61.5298,50.3018 57.9368,56.1404 57.4877,62.8772 63.7754,75.0035 69.614,80.393 77.2491,83.986 89.8246,83.986 101.9509,79.9439 109.1368,73.6561 111.3825,67.3684 110.9333,59.7333 105.5439,52.9965 100.1544,50.7509 69.1649,45.3614" stroke="#00007f" stroke-width="2" /><polyline fill="none" points="65.1228,46.7088 69.614,30.9895 73.207,39.0737 77.6982,45.3614" stroke="#0000de" stroke-width="2" /><polyline fill="none" points="86.6807,48.0561 97.4596,21.1088 100.1544,52.9965" stroke="#0028ff" stroke-width="2" /><polyline fill="none" points="74.1053,57.4877 72.7579,58.386 77.2491,59.2842 76.3509,60.1825 76.8,59.2842 73.6561,58.386" stroke="#0080ff" stroke-width="2" /><polyline fill="none" points="90.2737,58.8351 89.8246,59.7333 91.6211,61.0807 94.3158,60.1825 90.7228,59.7333 89.8246,60.6316 92.9684,61.0807" stroke="#00d4ff" stroke-width="2" /><polyline fill="none" points="79.4947,66.0211 86.2316,63.7754 82.1895,63.7754 81.2912,65.5719 83.5368,65.5719" stroke="#36ffc0" stroke-width="2" /><polyline fill="none" points="83.5368,65.5719 82.1895,69.614 79.9439,70.5123 75.4526,69.614 73.207,66.9193" stroke="#7cff79" stroke-width="2" /><polyline fill="none" points="83.5368,66.9193 84.4351,69.1649 88.9263,71.8596 96.1123,73.207" stroke="#c0ff36" stroke-width="2" /><polyline fill="none" points="89.3754,67.8175 103.7474,67.8175 119.0175,65.5719" stroke="#ffe500" stroke-width="2" /><polyline fill="none" points="91.6211,68.7158 103.7474,69.614 116.3228,72.3088" stroke="#ff9400" stroke-width="2" /><polyline fill="none" points="78.5965,64.6737 8.9825,65.1228" stroke="#ff4600" stroke-width="2" /><polyline fill="none" points="72.3088,65.5719 65.1228,65.5719 40.8702,75.9018" stroke="#de0000" stroke-width="2" /><polyline fill="none" points="58.8351,52.5474 54.3439,40.4211 53.8947,29.193 55.2421,24.2526 61.0807,15.7193 74.1053,8.9825 92.9684,10.3298 112.2807,21.5579 114.5263,25.1509 114.9754,30.5404 113.6281,52.5474" stroke="#7f0000" stroke-width="2" /></svg>