<?xml version="1.0" encoding="utf-8" ?>
<svg baseProfile="tiny" height="128" version="1.2" viewBox="0,0,128,128" width="128" xmlns="http://www.w3.org/2000/svg" xmlns:ev="http://www.w3.org/2001/xml-events" xmlns:xlink="http://www.w3.org/1999/xlink"><defs /><polyline fill="none" points="18.2857,15.2381 12.6259,10.8844 16.1088,19.5918 10.0136,31.3469 8.7075,43.5374 11.3197,47.4558 17.8503,52.2449 23.5102,53.9864 33.5238,54.8571 49.6327,50.9388 58.7755,45.7143 60.0816,42.6667 60.9524,33.9592 57.9048,23.9456 65.3061,10.0136 64.8707,8.7075 62.2585,9.1429 46.1497,18.2857 26.1224,15.2381 18.2857,16.5442" stroke="#00007f" stroke-width="2" /><polyline fill="none" points="40.9252,30.0408 40.0544,32.2177 41.3605,32.6531 42.6667,31.7823 41.7959,30.9116 38.3129,30.9116" stroke="#0000f1" stroke-width="2" /><polyline fill="none" points="27.4286,33.0884 22.6395,33.9592 24.381,34.3946 26.5578,32.6531 23.9456,33.0884" stroke="#004cff" stroke-width="2" /><polyline fill="none" points="30.9116,38.3129 31.7823,40.4898 31.7823,39.1837 33.0884,40.0544 32.6531,38.7483 33.5238,38.3129 32.6531,40.0544" stroke="#00b0ff" stroke-width="2" /><polyline fill="none" points="31.7823,41.3605 30.9116,47.0204 28.7347,47.4558 26.5578,45.7143" stroke="#29ffcd" stroke-width="2" /><polyline fill="none" points="32.6531,42.6667 36.1361,46.585 37.8776,43.9728" stroke="#7cff79" stroke-width="2" /><polyline fill="none" points="43.5374,39.619 55.2925,34.3946" stroke="#cdff29" stroke-width="2" /><polyline fill="none" points="47.0204,40.9252 54.8571,39.1837" stroke="#ffc400" stroke-width="2" /><polyline fill="none" points="23.9456,40.4898 17.8503,38.3129" stroke="#ff6700" stroke-width="2" /><polyline fill="none" points="23.0748,42.2313 15.2381,43.5374" stroke="#f10700" stroke-width="2" /><polyline fill="none" points="64.8707,40.0544 74.0136,37.8776 81.415,37.4422 92.7347,40.9252 116.2449,53.1156 119.2925,56.1633 115.8095,58.7755 84.898,68.3537 65.3061,70.5306 47.0204,69.2245 36.5714,64.0 36.1361,72.2721 33.5238,75.3197 32.6531,67.483 29.6054,72.2721 28.2993,72.7075 27.4286,70.966 30.9116,56.1633" stroke="#7f0000" stroke-width="2" /></svg>