<?xml version="1.0" encoding="utf-8" ?>
<svg baseProfile="tiny" height="128" version="1.2" viewBox="0,0,128,128" width="128" xmlns="http://www.w3.org/2000/svg" xmlns:ev="http://www.w3.org/2001/xml-events" xmlns:xlink="http://www.w3.org/1999/xlink"><defs /><polyline fill="none" points="27.7695,88.5153 39.0508,101.0983" stroke="#00007f" stroke-width="2" /><polyline fill="none" points="40.3525,108.4746 13.8847,71.1593 14.3186,64.2169 22.5627,44.2576 50.3322,27.7695 85.9119,31.6746 108.9085,59.0102 109.3424,77.6678 99.3627,93.722 86.3458,101.9661 65.9525,106.3051 45.1254,105.4373 34.7119,100.6644" stroke="#0000fe" stroke-width="2" /><polyline fill="none" points="13.0169,50.7661 10.4136,48.1627 8.678,27.7695 12.5831,9.9797 39.9186,25.6 40.7864,27.7695" stroke="#0060ff" stroke-width="2" /><polyline fill="none" points="24.2983,42.9559 22.9966,26.0339 26.0339,26.9017 37.7492,36.0136" stroke="#00d4ff" stroke-width="2" /><polyline fill="none" points="89.3831,30.8068 98.4949,21.261" stroke="#4cffaa" stroke-width="2" /><polyline fill="none" points="102.8339,16.4881 116.2847,8.678 119.322,13.4508 118.0203,40.3525 111.078,53.8034" stroke="#aaff4c" stroke-width="2" /><polyline fill="none" points="97.6271,36.4475 106.739,29.939 98.9288,42.522" stroke="#ffe500" stroke-width="2" /><polyline fill="none" points="42.9559,57.2746 44.2576,63.7831" stroke="#ff7a00" stroke-width="2" /><polyline fill="none" points="83.7424,59.0102 83.7424,65.9525" stroke="#fe1200" stroke-width="2" /><polyline fill="none" points="59.878,68.9898 68.5559,65.9525 68.122,72.0271 64.2169,75.9322 54.2373,68.5559" stroke="#7f0000" stroke-width="2" /></svg>