<?xml version="1.0" encoding="utf-8" ?>
<svg baseProfile="tiny" height="128" version="1.2" viewBox="0,0,128,128" width="128" xmlns="http://www.w3.org/2000/svg" xmlns:ev="http://www.w3.org/2001/xml-events" xmlns:xlink="http://www.w3.org/1999/xlink"><defs /><polyline fill="none" points="71.5932,37.7492 65.0847,33.4102 54.6712,32.5424 45.9932,34.278 29.939,41.6542 22.5627,47.2949 12.1492,60.3119 9.5458,66.8203 8.678,74.1966 9.5458,82.0068 13.4508,89.8169 18.6576,96.7593 35.1458,108.9085 43.8237,112.8136 53.8034,113.6814 64.2169,113.2475 82.4407,106.3051 90.2508,101.9661 101.5322,89.8169 107.1729,77.6678 108.0407,65.5186 106.739,60.3119 103.7017,55.9729 98.9288,52.5017 71.5932,42.0881" stroke="#00007f" stroke-width="2" /><polyline fill="none" points="39.4847,45.5593 36.8814,46.4271 37.3153,54.2373 42.9559,56.4068 49.0305,55.539 51.6339,53.3695 52.9356,47.7288 49.8983,45.5593" stroke="#0000de" stroke-width="2" /><polyline fill="none" points="87.6475,57.7085 85.478,55.9729 82.0068,55.9729 78.1017,58.5763 75.9322,63.7831 77.2339,65.0847 81.139,65.0847 83.7424,63.3492 85.478,59.4441 84.6102,58.1424 81.139,58.5763" stroke="#0028ff" stroke-width="2" /><polyline fill="none" points="61.1797,68.122 61.6136,74.6305 58.1424,83.3085" stroke="#0080ff" stroke-width="2" /><polyline fill="none" points="50.7661,79.8373 53.8034,83.3085 61.1797,84.1763" stroke="#00d4ff" stroke-width="2" /><polyline fill="none" points="67.6881,84.6102 85.0441,78.5356 101.9661,74.1966" stroke="#36ffc0" stroke-width="2" /><polyline fill="none" points="73.3288,88.5153 88.0814,85.0441 100.6644,84.1763" stroke="#7cff79" stroke-width="2" /><polyline fill="none" points="77.6678,92.8542 86.7797,102.8339 89.3831,108.4746" stroke="#c0ff36" stroke-width="2" /><polyline fill="none" points="46.4271,80.2712 40.7864,75.9322 32.5424,72.8949 18.2237,70.7254" stroke="#ffe500" stroke-width="2" /><polyline fill="none" points="47.2949,80.2712 30.8068,82.4407 25.6,85.0441 23.8644,86.7797" stroke="#ff9400" stroke-width="2" /><polyline fill="none" points="50.3322,91.1186 39.0508,93.722 28.2034,98.4949" stroke="#ff4600" stroke-width="2" /><polyline fill="none" points="83.3085,44.6915 95.0237,37.7492 119.322,27.7695 119.322,32.1085 109.7763,51.2 108.4746,60.3119" stroke="#de0000" stroke-width="2" /><polyline fill="none" points="32.1085,42.0881 31.6746,37.7492 38.1831,23.4305 42.0881,8.678 43.8237,8.678 47.7288,13.0169 59.878,32.1085" stroke="#7f0000" stroke-width="2" /></svg>