<?xml version="1.0" encoding="utf-8" ?>
<svg baseProfile="tiny" height="128" version="1.2" viewBox="0,0,128,128" width="128" xmlns="http://www.w3.org/2000/svg" xmlns:ev="http://www.w3.org/2001/xml-events" xmlns:xlink="http://www.w3.org/1999/xlink"><defs /><polyline fill="none" points="24.0273,24.901 19.2218,25.7747 15.2901,27.959 11.7952,37.57 13.1058,53.2969 15.727,58.5392 18.785,60.2867 25.7747,61.1604 32.3276,55.4812 35.8225,48.9283 36.6962,41.0648 33.6382,34.0751 18.3481,20.0956 15.727,20.5324" stroke="#00007f" stroke-width="2" /><polyline fill="none" points="16.6007,38.8805 17.0375,38.8805" stroke="#0000c8" stroke-width="2" /><polyline fill="none" points="25.7747,37.57 25.7747,37.57" stroke="#0000ff" stroke-width="2" /><polyline fill="none" points="25.7747,38.0068 26.2116,38.0068" stroke="#0040ff" stroke-width="2" /><polyline fill="none" points="26.2116,38.0068 26.2116,38.0068" stroke="#0080ff" stroke-width="2" /><polyline fill="none" points="20.5324,45.8703 20.5324,45.8703" stroke="#00c0ff" stroke-width="2" /><polyline fill="none" points="20.5324,46.3072 20.9693,45.8703" stroke="#15ffe1" stroke-width="2" /><polyline fill="none" points="20.9693,45.8703 20.9693,45.8703" stroke="#49ffad" stroke-width="2" /><polyline fill="none" points="20.9693,46.3072 15.727,50.6758" stroke="#7cff79" stroke-width="2" /><polyline fill="none" points="19.6587,48.0546 22.7167,52.4232" stroke="#b0ff46" stroke-width="2" /><polyline fill="none" points="22.2799,44.9966 25.7747,45.4334" stroke="#e4ff12" stroke-width="2" /><polyline fill="none" points="15.727,28.3959 10.4846,20.9693 8.7372,9.1741 10.9215,8.7372 14.8532,12.6689 18.785,24.0273 20.9693,23.1536 27.5222,13.9795 31.8908,10.4846 34.5119,10.9215 38.0068,17.4744 38.4437,22.7167 34.9488,29.7065 30.1433,34.9488" stroke="#ffcf00" stroke-width="2" /><polyline fill="none" points="36.6962,38.4437 76.8874,35.8225 90.8669,35.8225 105.2833,38.0068 119.2628,43.686 119.2628,55.0444 117.0785,59.413 107.4676,65.9659 86.4983,70.3345 74.2662,71.2082 55.4812,70.3345 47.6177,68.1502 31.4539,57.6655" stroke="#ff9400" stroke-width="2" /><polyline fill="none" points="36.6962,61.5973 33.6382,86.4983 26.6485,95.6724 26.2116,102.6621 28.3959,103.9727 35.3857,103.099 40.628,98.7304 43.686,93.9249 45.4334,88.2457 46.744,69.4608" stroke="#ff5900" stroke-width="2" /><polyline fill="none" points="65.9659,70.3345 63.3447,73.3925 61.5973,79.5085 61.5973,91.7406 60.2867,97.4198 55.4812,102.6621 47.6177,103.5358 48.0546,105.7201 52.4232,110.0887 54.6075,111.3993 57.2287,110.9625 63.7816,102.6621 69.4608,89.1195 71.6451,78.6348 72.0819,64.6553" stroke="#ff1d00" stroke-width="2" /><polyline fill="none" points="86.0614,67.7133 75.1399,98.7304 70.7713,102.2253 63.7816,102.2253 69.0239,110.0887 73.3925,112.7099 78.198,110.0887 83.4403,102.6621 87.372,89.5563 91.3038,66.8396" stroke="#c30000" stroke-width="2" /><polyline fill="none" points="100.9147,61.5973 95.2355,74.7031 92.6143,102.6621" stroke="#7f0000" stroke-width="2" /></svg>