<?xml version="1.0" encoding="utf-8" ?>
<svg baseProfile="tiny" height="128" version="1.2" viewBox="0,0,128,128" width="128" xmlns="http://www.w3.org/2000/svg" xmlns:ev="http://www.w3.org/2001/xml-events" xmlns:xlink="http://www.w3.org/1999/xlink"><defs /><polyline fill="none" points="63.3492,10.4136 59.878,9.5458 55.1051,11.7153 44.2576,22.1288 39.4847,32.5424 37.7492,43.8237 41.2203,53.3695 45.9932,58.1424 55.1051,62.4814 65.5186,63.7831 79.8373,60.3119 91.5525,53.3695 100.2305,42.9559 100.6644,35.1458 96.3254,25.1661 86.3458,15.6203 75.4983,9.9797 67.6881,8.678 61.6136,8.678 56.4068,10.8475" stroke="#00007f" stroke-width="2" /><polyline fill="none" points="63.3492,19.5254 59.0102,23.4305 60.7458,22.9966 62.4814,20.3932 61.1797,20.3932 59.878,23.8644" stroke="#0000e8" stroke-width="2" /><polyline fill="none" points="78.9695,21.261 74.1966,25.6 76.8,23.4305 75.0644,22.5627 72.0271,26.0339" stroke="#0038ff" stroke-width="2" /><polyline fill="none" points="59.878,32.1085 63.7831,42.0881 60.7458,35.1458 66.3864,34.278 62.9153,46.4271 57.7085,50.7661 52.5017,51.6339 50.3322,50.7661" stroke="#0094ff" stroke-width="2" /><polyline fill="none" points="61.6136,41.6542 61.1797,47.7288 65.0847,52.9356 71.5932,54.2373 77.6678,51.2" stroke="#0cf4ea" stroke-width="2" /><polyline fill="none" points="74.6305,40.7864 104.1356,28.2034 119.322,23.8644" stroke="#56ffa0" stroke-width="2" /><polyline fill="none" points="74.6305,41.2203 102.8339,45.1254 114.9831,44.6915" stroke="#a0ff56" stroke-width="2" /><polyline fill="none" points="75.4983,47.2949 82.8746,47.2949 114.9831,56.8407" stroke="#eaff0c" stroke-width="2" /><polyline fill="none" points="52.5017,35.1458 17.3559,34.7119 8.678,36.0136" stroke="#ffaa00" stroke-width="2" /><polyline fill="none" points="47.2949,37.7492 13.4508,49.8983" stroke="#ff5500" stroke-width="2" /><polyline fill="none" points="47.7288,42.9559 30.8068,54.2373 15.6203,62.4814" stroke="#e80000" stroke-width="2" /><polyline fill="none" points="49.4644,15.6203 49.4644,15.6203" stroke="#7f0000" stroke-width="2" /></svg>