<?xml version="1.0" encoding="utf-8" ?>
<svg baseProfile="tiny" height="128" version="1.2" viewBox="0,0,128,128" width="128" xmlns="http://www.w3.org/2000/svg" xmlns:ev="http://www.w3.org/2001/xml-events" xmlns:xlink="http://www.w3.org/1999/xlink"><defs /><polyline fill="none" points="9.1119,65.0847 8.678,31.6746 9.9797,17.7898 26.9017,57.2746 43.8237,113.2475" stroke="#00007f" stroke-width="2" /><polyline fill="none" points="62.0475,46.4271 63.7831,31.6746 72.461,8.678 80.7051,46.4271" stroke="#0028ff" stroke-width="2" /><polyline fill="none" points="80.7051,46.4271 65.0847,49.8983 19.5254,66.8203 15.1864,73.3288 13.8847,84.6102 22.5627,101.9661 29.939,107.1729 39.9186,109.3424 52.5017,109.3424 65.5186,105.0034 69.8576,101.5322 75.9322,91.5525 83.7424,70.7254 85.0441,59.4441 85.0441,43.8237 81.5729,36.0136 79.4034,35.5797 78.1017,38.6169" stroke="#00d4ff" stroke-width="2" /><polyline fill="none" points="25.1661,89.8169 11.2814,104.1356" stroke="#7cff79" stroke-width="2" /><polyline fill="none" points="32.1085,91.1186 17.7898,111.078" stroke="#ffe500" stroke-width="2" /><polyline fill="none" points="36.0136,100.6644 30.3729,108.4746 26.4678,119.322" stroke="#ff4600" stroke-width="2" /><polyline fill="none" points="70.2915,77.6678 70.2915,77.6678" stroke="#7f0000" stroke-width="2" /></svg>