<?xml version="1.0" encoding="utf-8" ?>
<svg baseProfile="tiny" height="128" version="1.2" viewBox="0,0,128,128" width="128" xmlns="http://www.w3.org/2000/svg" xmlns:ev="http://www.w3.org/2001/xml-events" xmlns:xlink="http://www.w3.org/1999/xlink"><defs /><polyline fill="none" points="95.0237,28.6373 92.8542,26.9017 88.9492,26.4678 85.9119,31.2407 86.3458,40.3525 91.1186,52.0678 99.3627,60.3119 104.5695,62.0475 112.8136,61.6136 115.8508,59.4441 118.8881,53.3695 119.322,49.4644 116.2847,42.522 110.2102,36.4475 105.4373,34.278 91.9864,30.3729" stroke="#00007f" stroke-width="2" /><polyline fill="none" points="85.478,39.4847 77.2339,37.7492 46.861,37.3153 29.0712,41.2203 23.4305,45.1254 22.9966,48.1627 29.0712,51.6339 40.3525,52.5017 65.9525,46.861 88.9492,46.4271" stroke="#0000ff" stroke-width="2" /><polyline fill="none" points="36.4475,52.5017 34.7119,59.4441 34.7119,68.5559 37.3153,74.6305 40.3525,75.0644 42.522,72.8949 44.2576,67.2542 45.9932,49.8983" stroke="#0080ff" stroke-width="2" /><polyline fill="none" points="59.0102,48.5966 59.878,58.5763 62.4814,68.122 65.5186,72.461 68.9898,73.7627 72.8949,72.461 75.4983,66.8203 75.9322,58.1424 74.1966,49.4644" stroke="#15ffe1" stroke-width="2" /><polyline fill="none" points="23.8644,43.3898 14.3186,23.4305 12.1492,8.678 8.678,20.8271 9.5458,31.2407 16.4881,40.3525 28.2034,45.5593" stroke="#7cff79" stroke-width="2" /><polyline fill="none" points="96.7593,32.5424 97.1932,32.9763" stroke="#e4ff12" stroke-width="2" /><polyline fill="none" points="117.5864,47.2949 115.8508,51.2 119.322,52.0678" stroke="#ff9400" stroke-width="2" /><polyline fill="none" points="117.1525,52.0678 116.2847,55.539 114.5492,56.4068 113.2475,55.1051" stroke="#ff1d00" stroke-width="2" /><polyline fill="none" points="93.2881,31.2407 90.2508,23.4305 89.8169,14.7525 90.6847,14.3186 102.8339,25.1661 110.2102,34.7119" stroke="#7f0000" stroke-width="2" /></svg>