<?xml version="1.0" encoding="utf-8" ?>
<svg baseProfile="tiny" height="128" version="1.2" viewBox="0,0,128,128" width="128" xmlns="http://www.w3.org/2000/svg" xmlns:ev="http://www.w3.org/2001/xml-events" xmlns:xlink="http://www.w3.org/1999/xlink"><defs /><polyline fill="none" points="47.7288,49.4644 47.7288,36.4475 50.7661,15.1864 58.5763,32.9763 71.1593,34.278 72.8949,33.8441 76.3661,22.5627 83.7424,8.678 92.4203,42.9559" stroke="#00007f" stroke-width="2" /><polyline fill="none" points="46.4271,47.2949 45.1254,66.3864 53.8034,83.7424 63.7831,87.2136 82.4407,87.2136 95.8915,82.0068 102.8339,70.7254 103.7017,52.9356 99.3627,45.1254 94.1559,41.6542" stroke="#0000fe" stroke-width="2" /><polyline fill="none" points="100.2305,51.2 106.739,39.9186 117.1525,27.7695" stroke="#0060ff" stroke-width="2" /><polyline fill="none" points="102.4,55.9729 119.322,60.7458" stroke="#00d4ff" stroke-width="2" /><polyline fill="none" points="100.2305,70.2915 114.9831,89.3831" stroke="#4cffaa" stroke-width="2" /><polyline fill="none" points="49.8983,48.1627 28.6373,37.3153 9.9797,25.6" stroke="#aaff4c" stroke-width="2" /><polyline fill="none" points="44.2576,58.1424 24.2983,55.539 8.678,59.0102" stroke="#ffe500" stroke-width="2" /><polyline fill="none" points="49.4644,74.6305 40.3525,83.3085 27.3356,89.3831" stroke="#ff7a00" stroke-width="2" /><polyline fill="none" points="58.1424,50.3322 52.9356,51.2 52.9356,52.5017 53.8034,55.1051 58.1424,55.539 59.4441,53.3695 56.8407,51.6339" stroke="#fe1200" stroke-width="2" /><polyline fill="none" points="76.3661,51.6339 70.7254,52.0678 69.4237,54.2373 69.8576,55.9729 74.1966,57.7085 76.3661,57.2746 76.3661,55.539" stroke="#7f0000" stroke-width="2" /></svg>