<?xml version="1.0" encoding="utf-8" ?>
<svg baseProfile="tiny" height="128" version="1.2" viewBox="0,0,128,128" width="128" xmlns="http://www.w3.org/2000/svg" xmlns:ev="http://www.w3.org/2001/xml-events" xmlns:xlink="http://www.w3.org/1999/xlink"><defs /><polyline fill="none" points="42.9559,25.1661 37.3153,29.5051 35.5797,39.0508 38.1831,45.5593 43.8237,50.7661 58.1424,58.1424 67.6881,59.4441 76.8,58.5763 84.1763,51.2 86.7797,43.3898 87.2136,37.3153 84.6102,29.939 80.7051,28.2034 82.4407,19.5254 86.3458,14.3186 75.4983,16.0542 67.6881,22.9966 57.7085,23.4305 53.3695,12.5831 49.4644,10.4136 39.9186,8.678 45.1254,15.1864 45.5593,19.9593 43.8237,23.8644" stroke="#00007f" stroke-width="2" /><polyline fill="none" points="56.4068,41.6542 53.8034,41.6542 38.1831,35.5797 26.9017,35.1458 15.1864,37.3153 8.678,44.2576" stroke="#0000ff" stroke-width="2" /><polyline fill="none" points="62.0475,40.3525 70.7254,37.7492 93.722,38.1831 101.0983,41.2203 105.4373,46.861 110.2102,50.3322 114.5492,50.3322 115.8508,48.5966" stroke="#0080ff" stroke-width="2" /><polyline fill="none" points="52.5017,44.2576 46.861,42.522 36.4475,42.0881 30.8068,44.2576 25.1661,49.0305" stroke="#15ffe1" stroke-width="2" /><polyline fill="none" points="47.7288,30.3729 54.2373,29.5051 57.7085,32.1085 51.2,32.9763 47.7288,30.3729" stroke="#7cff79" stroke-width="2" /><polyline fill="none" points="63.7831,32.1085 67.6881,29.939 73.3288,30.3729 72.0271,32.9763 62.9153,30.8068" stroke="#e4ff12" stroke-width="2" /><polyline fill="none" points="57.7085,41.6542 63.7831,42.0881 63.7831,42.9559 59.0102,46.861 57.7085,41.6542" stroke="#ff9400" stroke-width="2" /><polyline fill="none" points="53.3695,51.2 54.6712,52.0678 56.4068,49.4644 57.2746,51.6339 60.3119,51.2 61.6136,53.8034 65.5186,51.2 66.8203,52.5017 68.122,50.7661 69.4237,53.3695" stroke="#ff1d00" stroke-width="2" /><polyline fill="none" points="66.3864,40.3525 98.9288,45.1254 108.9085,49.0305 116.2847,53.3695 119.322,56.4068" stroke="#7f0000" stroke-width="2" /></svg>