<?xml version="1.0" encoding="utf-8" ?>
<svg baseProfile="tiny" height="128" version="1.2" viewBox="0,0,128,128" width="128" xmlns="http://www.w3.org/2000/svg" xmlns:ev="http://www.w3.org/2001/xml-events" xmlns:xlink="http://www.w3.org/1999/xlink"><defs /><polyline fill="none" points="21.261,77.2339 22.1288,82.8746 20.8271,88.9492 23.8644,100.2305 29.939,110.2102 36.0136,114.5492 45.5593,117.5864 55.9729,119.322 75.4983,119.322 86.7797,117.5864 96.7593,113.6814 102.4,108.9085 108.9085,98.9288 114.9831,83.7424 114.5492,65.5186 106.739,42.522 105.0034,32.1085 96.3254,8.678 92.8542,23.4305 77.6678,52.5017 77.2339,62.4814" stroke="#00007f" stroke-width="2" /><polyline fill="none" points="83.3085,65.0847 72.8949,62.4814 58.5763,62.4814 49.0305,62.4814 46.4271,65.0847" stroke="#0000d5" stroke-width="2" /><polyline fill="none" points="45.5593,65.5186 43.3898,50.3322 37.3153,38.6169 22.1288,21.261 8.678,11.7153 10.4136,20.3932 19.9593,46.861 21.261,86.7797" stroke="#001cff" stroke-width="2" /><polyline fill="none" points="29.939,62.9153 31.2407,50.3322 22.9966,26.0339 33.8441,53.8034 40.7864,63.7831" stroke="#006cff" stroke-width="2" /><polyline fill="none" points="88.0814,59.878 93.2881,54.6712 98.4949,38.6169 97.1932,58.1424 99.3627,62.0475" stroke="#00b8ff" stroke-width="2" /><polyline fill="none" points="52.0678,79.4034 52.0678,79.4034" stroke="#1cffda" stroke-width="2" /><polyline fill="none" points="68.9898,80.2712 65.5186,80.2712" stroke="#5cff9a" stroke-width="2" /><polyline fill="none" points="46.861,79.4034 49.4644,79.4034" stroke="#9aff5c" stroke-width="2" /><polyline fill="none" points="54.6712,96.7593 45.5593,93.2881" stroke="#daff1c" stroke-width="2" /><polyline fill="none" points="51.2,100.2305 41.6542,103.7017" stroke="#ffcb00" stroke-width="2" /><polyline fill="none" points="46.4271,107.1729 44.6915,113.2475" stroke="#ff8500" stroke-width="2" /><polyline fill="none" points="65.0847,96.7593 74.6305,93.2881" stroke="#ff3b00" stroke-width="2" /><polyline fill="none" points="68.122,100.2305 73.7627,101.0983" stroke="#d50000" stroke-width="2" /><polyline fill="none" points="64.2169,105.8712 68.5559,109.7763" stroke="#7f0000" stroke-width="2" /></svg>