<?xml version="1.0" encoding="utf-8" ?>
<svg baseProfile="tiny" height="128" version="1.2" viewBox="0,0,128,128" width="128" xmlns="http://www.w3.org/2000/svg" xmlns:ev="http://www.w3.org/2001/xml-events" xmlns:xlink="http://www.w3.org/1999/xlink"><defs /><polyline fill="none" points="12.6259,36.5714 15.6735,63.1293 21.3333,79.2381 30.0408,91.4286 34.8299,94.0408 43.5374,96.2177 76.6259,97.5238 87.9456,94.4762 95.3469,89.2517 107.102,77.932 116.2449,62.2585 119.2925,52.6803 119.2925,33.9592 115.3741,10.449 103.619,27.8639 84.4626,23.0748 63.1293,22.6395 40.0544,29.1701 36.1361,13.4966 33.9592,10.0136 30.9116,8.7075 22.2041,16.1088 16.5442,23.9456 8.7075,46.1497 10.0136,48.3265" stroke="#00007f" stroke-width="2" /><polyline fill="none" points="44.4082,32.6531 43.9728,43.9728" stroke="#0000e8" stroke-width="2" /><polyline fill="none" points="43.5374,33.5238 47.8912,37.0068 48.3265,41.3605 46.1497,43.5374 45.7143,39.619 50.5034,35.7007 46.585,42.2313 43.9728,40.4898 43.102,36.5714 45.7143,33.9592 59.6463,30.9116 60.0816,35.7007 57.4694,38.7483" stroke="#0038ff" stroke-width="2" /><polyline fill="none" points="79.2381,33.9592 84.898,33.9592 85.3333,35.2653 83.5918,44.4082 73.1429,48.3265 69.6599,49.1973 68.7891,47.8912 69.2245,43.102 72.2721,39.619 82.2857,34.3946 82.2857,37.0068 77.932,43.5374 73.1429,46.1497 71.4014,43.9728 74.449,41.3605 82.7211,40.9252 77.4966,50.068 71.8367,53.1156 73.1429,49.6327 79.2381,44.4082 82.2857,42.2313 82.2857,45.2789 79.6735,47.4558 75.3197,47.8912 72.2721,44.4082" stroke="#0094ff" stroke-width="2" /><polyline fill="none" points="59.2109,40.4898 54.8571,38.7483 44.4082,40.9252" stroke="#0cf4ea" stroke-width="2" /><polyline fill="none" points="58.7755,50.9388 59.2109,60.517 58.3401,66.6122 52.2449,75.7551 43.9728,77.4966 39.1837,72.7075 39.1837,69.6599" stroke="#56ffa0" stroke-width="2" /><polyline fill="none" points="45.7143,69.6599 48.7619,70.966" stroke="#a0ff56" stroke-width="2" /><polyline fill="none" points="54.8571,71.4014 64.8707,83.5918 68.7891,86.6395 80.1088,81.8503 86.6395,76.6259 88.381,74.449 88.8163,69.2245" stroke="#eaff0c" stroke-width="2" /><polyline fill="none" points="61.3878,51.3741 53.1156,51.3741 58.3401,50.068 67.483,50.9388 67.0476,53.9864 62.2585,54.8571 53.9864,53.1156 62.2585,52.2449 63.1293,53.551 60.0816,53.9864 49.6327,49.1973 51.3741,48.3265 58.7755,49.1973 59.2109,50.068 57.4694,51.3741 47.4558,50.5034" stroke="#ffaa00" stroke-width="2" /><polyline fill="none" points="57.034,61.3878 50.9388,60.0816 37.4422,53.9864" stroke="#ff5500" stroke-width="2" /><polyline fill="none" points="58.3401,59.6463 95.3469,61.8231" stroke="#e80000" stroke-width="2" /><polyline fill="none" points="63.1293,63.5646 81.8503,80.9796" stroke="#7f0000" stroke-width="2" /></svg>