<?xml version="1.0" encoding="utf-8" ?>
<svg baseProfile="tiny" height="128" version="1.2" viewBox="0,0,128,128" width="128" xmlns="http://www.w3.org/2000/svg" xmlns:ev="http://www.w3.org/2001/xml-events" xmlns:xlink="http://www.w3.org/1999/xlink"><defs /><polyline fill="none" points="102.8339,12.5831 105.8712,9.9797 105.8712,16.922" stroke="#00007f" stroke-width="2" /><polyline fill="none" points="113.2475,19.5254 119.322,16.4881 118.0203,22.1288" stroke="#0000d5" stroke-width="2" /><polyline fill="none" points="107.1729,18.2237 111.078,17.3559 113.6814,19.0915" stroke="#001cff" stroke-width="2" /><polyline fill="none" points="118.4542,20.8271 116.2847,25.6 111.9458,29.939 105.8712,32.1085 101.5322,31.6746" stroke="#006cff" stroke-width="2" /><polyline fill="none" points="103.7017,11.7153 98.061,16.4881 95.8915,23.4305 81.139,22.9966 57.2746,24.7322 49.4644,26.9017 42.522,30.8068 27.7695,23.4305 8.678,8.678 23.8644,27.7695 35.1458,35.1458 44.2576,36.8814 50.3322,54.2373 59.0102,53.8034 58.5763,39.9186 59.4441,38.1831 65.5186,55.1051 73.7627,46.4271 73.3288,34.7119 81.5729,55.1051 88.0814,32.1085 89.3831,42.9559 93.2881,54.2373 99.3627,41.6542 100.6644,30.8068" stroke="#00b8ff" stroke-width="2" /><polyline fill="none" points="103.7017,21.261 105.0034,22.1288" stroke="#1cffda" stroke-width="2" /><polyline fill="none" points="111.5119,19.9593 111.5119,21.6949 110.6441,21.6949" stroke="#5cff9a" stroke-width="2" /><polyline fill="none" points="103.2678,26.0339 98.061,20.3932 98.061,18.2237" stroke="#9aff5c" stroke-width="2" /><polyline fill="none" points="101.5322,26.4678 95.4576,22.5627" stroke="#daff1c" stroke-width="2" /><polyline fill="none" points="102.4,29.0712 95.8915,26.0339" stroke="#ffcb00" stroke-width="2" /><polyline fill="none" points="106.739,25.1661 114.5492,28.2034" stroke="#ff8500" stroke-width="2" /><polyline fill="none" points="105.4373,26.9017 114.1153,29.0712" stroke="#ff3b00" stroke-width="2" /><polyline fill="none" points="105.0034,28.2034 111.9458,31.2407" stroke="#d50000" stroke-width="2" /><polyline fill="none" points="104.1356,25.6 107.1729,26.9017" stroke="#7f0000" stroke-width="2" /></svg>