<?xml version="1.0" encoding="utf-8" ?>
<svg baseProfile="tiny" height="128" version="1.2" viewBox="0,0,128,128" width="128" xmlns="http://www.w3.org/2000/svg" xmlns:ev="http://www.w3.org/2001/xml-events" xmlns:xlink="http://www.w3.org/1999/xlink"><defs /><polyline fill="none" points="31.6746,79.8373 49.8983,76.3661 89.8169,75.0644 109.3424,70.2915 117.5864,66.3864 119.322,59.0102 118.0203,50.3322 114.5492,42.9559 105.8712,35.1458 92.4203,32.1085 87.2136,32.1085 52.9356,36.8814 45.1254,39.0508 35.5797,45.9932 32.9763,49.8983 31.2407,57.2746 31.6746,61.6136 36.8814,70.7254 42.522,76.3661 45.9932,76.3661" stroke="#00007f" stroke-width="2" /><polyline fill="none" points="41.2203,52.5017 39.4847,19.9593 36.4475,10.8475 33.4102,8.678 28.6373,9.9797 10.4136,19.0915 8.678,22.1288 10.4136,29.939 13.4508,33.8441 16.0542,34.7119 42.9559,31.2407" stroke="#0080ff" stroke-width="2" /><polyline fill="none" points="49.4644,78.1017 50.3322,88.5153 48.5966,101.0983 49.8983,102.4" stroke="#7cff79" stroke-width="2" /><polyline fill="none" points="58.1424,75.9322 55.9729,78.9695 53.3695,91.9864 52.9356,105.0034 55.9729,104.5695 61.1797,94.1559 65.0847,76.8" stroke="#ff9400" stroke-width="2" /><polyline fill="none" points="89.8169,72.8949 91.9864,81.5729 91.9864,97.6271 95.0237,98.4949 101.5322,96.7593 104.5695,93.2881 105.8712,87.6475 104.1356,79.4034 99.7966,70.7254" stroke="#7f0000" stroke-width="2" /></svg>