<?xml version="1.0" encoding="utf-8" ?>
<svg baseProfile="tiny" height="128" version="1.2" viewBox="0,0,128,128" width="128" xmlns="http://www.w3.org/2000/svg" xmlns:ev="http://www.w3.org/2001/xml-events" xmlns:xlink="http://www.w3.org/1999/xlink"><defs /><polyline fill="none" points="54.2373,32.5424 62.0475,26.4678 79.8373,8.678 75.0644,22.1288 73.7627,32.5424 83.7424,36.0136 90.2508,42.0881 93.722,50.3322 93.722,58.5763 92.4203,65.0847 86.3458,76.8 74.6305,88.5153 60.7458,94.5898 54.6712,95.8915 43.3898,95.4576 34.278,93.2881 26.9017,89.3831 18.6576,80.7051 11.2814,68.5559 8.678,58.5763 9.9797,44.6915 15.1864,42.0881 21.261,41.6542 16.4881,30.8068 15.6203,17.7898 19.0915,18.6576 22.5627,22.1288 33.8441,37.7492 42.9559,30.3729 48.5966,29.0712 54.6712,30.3729 59.878,33.4102" stroke="#00007f" stroke-width="2" /><polyline fill="none" points="32.9763,52.5017 32.5424,54.6712" stroke="#0028ff" stroke-width="2" /><polyline fill="none" points="76.3661,48.1627 71.1593,50.7661 70.2915,52.0678 71.5932,52.5017 72.8949,49.4644" stroke="#00d4ff" stroke-width="2" /><polyline fill="none" points="43.3898,63.3492 44.2576,65.0847 51.6339,65.5186" stroke="#7cff79" stroke-width="2" /><polyline fill="none" points="51.2,64.2169 50.3322,69.4237 47.7288,72.461 41.2203,78.1017 36.4475,78.5356" stroke="#ffe500" stroke-width="2" /><polyline fill="none" points="46.4271,72.8949 47.2949,79.8373 52.9356,83.7424 59.0102,83.3085 61.1797,81.5729 62.9153,77.2339" stroke="#ff4600" stroke-width="2" /><polyline fill="none" points="87.6475,78.5356 95.0237,75.9322 105.0034,75.4983 112.3797,76.8 118.0203,80.2712 119.322,84.6102 118.4542,91.5525 116.2847,95.0237 108.4746,100.6644 91.1186,105.0034 76.8,106.739 54.6712,101.5322 33.4102,99.7966" stroke="#7f0000" stroke-width="2" /></svg>