<?xml version="1.0" encoding="utf-8" ?>
<svg baseProfile="tiny" height="128" version="1.2" viewBox="0,0,128,128" width="128" xmlns="http://www.w3.org/2000/svg" xmlns:ev="http://www.w3.org/2001/xml-events" xmlns:xlink="http://www.w3.org/1999/xlink"><defs /><polyline fill="none" points="88.5153,25.6 83.7424,27.3356 72.461,36.8814 65.9525,45.1254 64.2169,50.7661 63.7831,58.1424 66.8203,64.2169 71.5932,67.6881 80.2712,68.9898 86.7797,65.9525 95.0237,57.7085 97.6271,51.6339 98.061,36.8814 95.4576,32.1085 92.4203,29.5051" stroke="#00007f" stroke-width="2" /><polyline fill="none" points="76.8,45.5593 76.3661,50.3322" stroke="#0000fe" stroke-width="2" /><polyline fill="none" points="87.6475,45.1254 86.3458,49.4644" stroke="#0060ff" stroke-width="2" /><polyline fill="none" points="65.9525,63.3492 52.5017,65.0847 38.6169,72.8949 34.278,77.2339 32.9763,81.139 33.4102,85.478 36.8814,91.5525 42.0881,97.6271 49.4644,102.4 55.539,102.4 65.0847,98.061 72.0271,90.6847 75.0644,84.6102 74.6305,77.6678 71.1593,70.7254 68.122,66.8203" stroke="#00d4ff" stroke-width="2" /><polyline fill="none" points="34.7119,86.3458 33.4102,87.6475 22.9966,89.3831 8.678,95.8915" stroke="#4cffaa" stroke-width="2" /><polyline fill="none" points="62.4814,90.2508 63.3492,107.1729 65.5186,110.2102 66.8203,110.6441 68.122,108.4746 67.2542,93.722" stroke="#aaff4c" stroke-width="2" /><polyline fill="none" points="70.2915,90.2508 71.1593,94.5898 75.4983,103.2678 75.0644,93.722 72.8949,87.6475" stroke="#ffe500" stroke-width="2" /><polyline fill="none" points="47.7288,98.9288 42.9559,116.7186 42.9559,119.322 45.5593,117.5864 46.861,109.3424" stroke="#ff7a00" stroke-width="2" /><polyline fill="none" points="52.9356,100.2305 55.1051,109.7763 57.7085,111.9458" stroke="#fe1200" stroke-width="2" /><polyline fill="none" points="81.5729,33.4102 80.2712,32.9763 78.9695,28.6373 78.9695,22.1288 82.8746,8.678 84.6102,13.0169 85.478,30.3729" stroke="#7f0000" stroke-width="2" /></svg>