<?xml version="1.0" encoding="utf-8" ?>
<svg baseProfile="tiny" height="128" version="1.2" viewBox="0,0,128,128" width="128" xmlns="http://www.w3.org/2000/svg" xmlns:ev="http://www.w3.org/2001/xml-events" xmlns:xlink="http://www.w3.org/1999/xlink"><defs /><polyline fill="none" points="26.0339,9.5458 23.8644,26.0339" stroke="#00007f" stroke-width="2" /><polyline fill="none" points="27.7695,8.678 33.4102,11.2814 35.5797,16.0542 54.6712,12.1492 63.3492,15.1864 70.2915,10.4136 72.461,31.6746 65.5186,49.4644 57.7085,56.4068 49.0305,58.1424 43.8237,56.4068 30.8068,46.861 24.2983,36.4475 24.7322,29.939" stroke="#0000e8" stroke-width="2" /><polyline fill="none" points="47.2949,35.1458 43.8237,42.522 36.0136,44.2576" stroke="#0038ff" stroke-width="2" /><polyline fill="none" points="46.4271,36.4475 49.0305,43.8237 53.8034,46.4271" stroke="#0094ff" stroke-width="2" /><polyline fill="none" points="45.1254,42.522 49.0305,42.9559" stroke="#0cf4ea" stroke-width="2" /><polyline fill="none" points="53.3695,31.2407 59.4441,27.3356 63.3492,27.7695 65.5186,30.8068" stroke="#56ffa0" stroke-width="2" /><polyline fill="none" points="43.8237,29.939 41.6542,27.3356 39.0508,26.4678 32.1085,29.939" stroke="#a0ff56" stroke-width="2" /><polyline fill="none" points="45.5593,33.8441 46.4271,35.5797 48.5966,35.5797 46.861,33.8441 45.9932,34.7119" stroke="#eaff0c" stroke-width="2" /><polyline fill="none" points="36.4475,28.2034 38.1831,30.3729 37.7492,27.7695" stroke="#ffaa00" stroke-width="2" /><polyline fill="none" points="58.5763,28.6373 59.4441,30.3729 60.3119,28.6373" stroke="#ff5500" stroke-width="2" /><polyline fill="none" points="33.8441,49.0305 31.6746,50.7661 16.0542,72.8949 9.1119,92.8542 8.678,98.061 9.9797,103.2678 14.3186,108.0407 27.7695,114.1153 59.878,116.7186 68.5559,114.1153 74.1966,108.4746 80.2712,98.9288 82.4407,90.2508 82.0068,78.9695 77.6678,64.2169 73.7627,57.2746 66.8203,48.5966" stroke="#e80000" stroke-width="2" /><polyline fill="none" points="78.5356,57.7085 86.7797,55.9729 91.1186,53.8034 95.0237,49.8983 100.6644,36.8814 107.6068,30.8068 116.7186,26.4678 119.322,29.0712 110.2102,35.1458 101.9661,52.9356 95.8915,57.7085" stroke="#7f0000" stroke-width="2" /></svg>