<?xml version="1.0" encoding="utf-8" ?>
<svg baseProfile="tiny" height="128" version="1.2" viewBox="0,0,128,128" width="128" xmlns="http://www.w3.org/2000/svg" xmlns:ev="http://www.w3.org/2001/xml-events" xmlns:xlink="http://www.w3.org/1999/xlink"><defs /><polyline fill="none" points="85.478,32.1085 78.5356,29.939 63.7831,29.5051 52.9356,32.1085 42.9559,36.4475 36.0136,43.3898 32.1085,52.0678 29.939,60.3119 30.3729,69.8576 32.5424,75.0644 39.0508,82.0068 49.0305,85.9119 56.8407,86.7797 66.3864,86.7797 76.3661,84.6102 85.478,81.139 94.5898,76.3661 102.4,70.2915 109.7763,60.7458 110.2102,54.6712 108.9085,49.0305 105.4373,42.522 97.1932,34.278 92.4203,32.5424 85.9119,32.5424 80.2712,36.0136" stroke="#00007f" stroke-width="2" /><polyline fill="none" points="28.2034,47.2949 8.678,8.678 34.7119,28.6373 46.4271,41.2203" stroke="#0028ff" stroke-width="2" /><polyline fill="none" points="93.722,34.7119 117.1525,17.3559 119.322,16.922 109.3424,34.7119 96.3254,51.2" stroke="#00d4ff" stroke-width="2" /><polyline fill="none" points="53.3695,50.7661 53.3695,50.7661" stroke="#7cff79" stroke-width="2" /><polyline fill="none" points="82.8746,45.9932 83.7424,46.861" stroke="#ffe500" stroke-width="2" /><polyline fill="none" points="49.0305,43.8237 49.0305,43.8237" stroke="#ff4600" stroke-width="2" /><polyline fill="none" points="47.2949,73.3288 67.6881,84.6102 82.4407,85.478 89.3831,82.0068 94.1559,76.3661 95.4576,70.2915 94.1559,61.1797" stroke="#7f0000" stroke-width="2" /></svg>