<?xml version="1.0" encoding="utf-8" ?>
<svg baseProfile="tiny" height="128" version="1.2" viewBox="0,0,128,128" width="128" xmlns="http://www.w3.org/2000/svg" xmlns:ev="http://www.w3.org/2001/xml-events" xmlns:xlink="http://www.w3.org/1999/xlink"><defs /><polyline fill="none" points="20.4626,12.1905 16.9796,16.5442 17.415,21.3333 19.5918,22.6395 27.8639,22.2041 32.6531,19.1565 32.6531,16.5442 29.6054,13.4966 21.3333,13.0612" stroke="#00007f" stroke-width="2" /><polyline fill="none" points="35.2653,15.6735 33.0884,17.8503 34.3946,21.7687 45.7143,25.6871 81.8503,26.1224 89.6871,24.381 92.7347,22.6395 92.2993,20.4626 89.2517,18.2857 81.8503,16.9796 56.1633,16.9796 28.2993,19.1565" stroke="#0000de" stroke-width="2" /><polyline fill="none" points="39.619,23.5102 40.0544,36.5714" stroke="#0028ff" stroke-width="2" /><polyline fill="none" points="46.1497,25.6871 46.585,31.3469" stroke="#0080ff" stroke-width="2" /><polyline fill="none" points="66.1769,26.1224 66.1769,38.7483" stroke="#00d4ff" stroke-width="2" /><polyline fill="none" points="75.7551,26.1224 75.7551,29.6054" stroke="#36ffc0" stroke-width="2" /><polyline fill="none" points="92.7347,21.7687 94.9116,21.3333 102.7483,15.6735 108.8435,20.0272 112.3265,20.898 117.551,17.415 119.2925,13.932" stroke="#7cff79" stroke-width="2" /><polyline fill="none" points="16.9796,15.6735 16.5442,8.7075 18.2857,12.1905" stroke="#c0ff36" stroke-width="2" /><polyline fill="none" points="25.2517,12.1905 29.6054,9.5782 29.6054,13.0612" stroke="#ffe500" stroke-width="2" /><polyline fill="none" points="18.7211,18.7211 8.7075,18.2857" stroke="#ff9400" stroke-width="2" /><polyline fill="none" points="18.7211,19.5918 10.0136,23.5102" stroke="#ff4600" stroke-width="2" /><polyline fill="none" points="29.1701,16.5442 37.0068,13.4966" stroke="#de0000" stroke-width="2" /><polyline fill="none" points="28.7347,19.1565 35.7007,16.9796" stroke="#7f0000" stroke-width="2" /></svg>