<?xml version="1.0" encoding="utf-8" ?>
<svg baseProfile="tiny" height="128" version="1.2" viewBox="0,0,128,128" width="128" xmlns="http://www.w3.org/2000/svg" xmlns:ev="http://www.w3.org/2001/xml-events" xmlns:xlink="http://www.w3.org/1999/xlink"><defs /><polyline fill="none" points="92.4203,40.7864 98.4949,51.2 99.7966,58.1424 99.3627,61.6136 96.3254,64.2169 87.6475,68.5559 74.6305,71.1593 64.6508,70.7254 58.5763,66.3864 44.2576,60.3119 35.1458,53.3695 33.4102,49.4644 33.8441,45.1254 37.3153,40.7864 40.7864,38.6169 59.0102,33.8441 82.0068,33.8441 93.722,37.3153" stroke="#00007f" stroke-width="2" /><polyline fill="none" points="44.6915,58.5763 46.4271,57.7085 43.3898,64.6508 38.1831,88.0814" stroke="#0000fe" stroke-width="2" /><polyline fill="none" points="79.4034,68.5559 85.0441,79.4034" stroke="#0060ff" stroke-width="2" /><polyline fill="none" points="40.3525,42.522 33.8441,26.0339 27.3356,17.3559 25.1661,16.0542 20.8271,17.3559 14.7525,22.5627 10.8475,33.8441 10.8475,40.3525 13.0169,46.861 24.2983,54.6712 34.7119,50.3322" stroke="#00d4ff" stroke-width="2" /><polyline fill="none" points="90.6847,45.1254 100.6644,36.0136 105.4373,33.8441" stroke="#4cffaa" stroke-width="2" /><polyline fill="none" points="96.7593,32.1085 110.6441,30.3729 117.5864,35.5797 119.322,38.1831" stroke="#aaff4c" stroke-width="2" /><polyline fill="none" points="31.6746,23.4305 33.4102,9.5458" stroke="#ffe500" stroke-width="2" /><polyline fill="none" points="16.4881,17.3559 12.5831,10.8475 8.678,8.678" stroke="#ff7a00" stroke-width="2" /><polyline fill="none" points="20.3932,37.3153 11.2814,35.5797" stroke="#fe1200" stroke-width="2" /><polyline fill="none" points="29.5051,38.1831 33.8441,39.4847" stroke="#7f0000" stroke-width="2" /></svg>