<?xml version="1.0" encoding="utf-8" ?>
<svg baseProfile="tiny" height="128" version="1.2" viewBox="0,0,128,128" width="128" xmlns="http://www.w3.org/2000/svg" xmlns:ev="http://www.w3.org/2001/xml-events" xmlns:xlink="http://www.w3.org/1999/xlink"><defs /><polyline fill="none" points="47.2949,68.122 45.9932,65.5186 45.9932,49.4644 43.8237,47.2949 34.7119,44.2576 32.9763,40.3525 33.4102,29.939 42.522,22.5627 56.8407,19.0915 85.0441,18.6576 94.1559,10.4136 99.7966,8.678 101.5322,10.8475 101.9661,15.1864 113.6814,17.3559 117.5864,19.9593 119.322,23.4305 111.5119,32.5424 99.3627,35.1458 95.0237,39.9186 92.8542,43.8237 93.722,52.0678 89.8169,55.539 86.7797,56.4068 85.0441,58.5763 84.6102,74.1966 71.1593,75.4983 73.7627,67.6881 73.7627,55.9729 71.5932,54.6712 63.7831,55.9729 63.7831,64.6508 60.7458,71.5932 57.7085,75.0644 42.0881,71.1593" stroke="#00007f" stroke-width="2" /><polyline fill="none" points="105.4373,24.2983 105.4373,22.1288 107.1729,22.1288 108.9085,25.6 105.0034,28.2034 102.8339,28.2034 102.8339,25.1661" stroke="#7cff79" stroke-width="2" /><polyline fill="none" points="37.7492,27.3356 30.3729,28.2034 24.2983,32.1085 12.5831,45.5593 9.9797,53.8034 8.678,64.6508 10.4136,66.8203 13.8847,65.9525" stroke="#7f0000" stroke-width="2" /></svg>