<?xml version="1.0" encoding="utf-8" ?>
<svg baseProfile="tiny" height="128" version="1.2" viewBox="0,0,128,128" width="128" xmlns="http://www.w3.org/2000/svg" xmlns:ev="http://www.w3.org/2001/xml-events" xmlns:xlink="http://www.w3.org/1999/xlink"><defs /><polyline fill="none" points="91.1186,40.3525 85.478,42.0881 32.5424,42.0881 24.7322,46.861 16.4881,54.2373 10.8475,64.6508 8.678,74.1966 9.1119,84.1763 11.7153,94.5898 19.0915,105.4373 33.4102,117.5864 39.9186,119.322 58.5763,117.1525 74.1966,114.1153 86.7797,102.4 93.722,88.0814 102.8339,58.1424 102.8339,52.0678 101.5322,49.8983 95.8915,42.0881 93.722,40.3525 90.2508,40.3525" stroke="#00007f" stroke-width="2" /><polyline fill="none" points="13.0169,56.4068 19.5254,43.3898 22.5627,32.5424 20.3932,17.3559 22.9966,16.4881 27.7695,21.261 38.6169,36.4475" stroke="#0000fe" stroke-width="2" /><polyline fill="none" points="85.9119,42.9559 91.5525,24.2983 95.4576,18.2237 104.5695,8.678 106.3051,11.7153 107.1729,26.4678 100.6644,46.861 98.061,48.5966" stroke="#0060ff" stroke-width="2" /><polyline fill="none" points="55.9729,78.9695 54.2373,83.7424 59.0102,84.1763 59.878,81.5729 59.878,79.4034 55.9729,81.5729" stroke="#00d4ff" stroke-width="2" /><polyline fill="none" points="46.4271,77.6678 30.3729,83.7424" stroke="#4cffaa" stroke-width="2" /><polyline fill="none" points="48.5966,86.3458 39.9186,94.1559" stroke="#aaff4c" stroke-width="2" /><polyline fill="none" points="51.6339,88.0814 51.6339,90.6847 47.2949,98.061" stroke="#ffe500" stroke-width="2" /><polyline fill="none" points="65.5186,81.5729 78.1017,78.9695 82.4407,79.4034" stroke="#ff7a00" stroke-width="2" /><polyline fill="none" points="65.9525,86.7797 72.0271,84.6102 74.1966,84.6102 75.4983,86.7797" stroke="#fe1200" stroke-width="2" /><polyline fill="none" points="70.2915,93.2881 75.9322,91.1186" stroke="#7f0000" stroke-width="2" /></svg>