<?xml version="1.0" encoding="utf-8" ?>
<svg baseProfile="tiny" height="128" version="1.2" viewBox="0,0,128,128" width="128" xmlns="http://www.w3.org/2000/svg" xmlns:ev="http://www.w3.org/2001/xml-events" xmlns:xlink="http://www.w3.org/1999/xlink"><defs /><polyline fill="none" points="88.0814,36.0136 84.6102,32.1085 78.5356,29.5051 61.1797,29.0712 48.5966,32.5424 29.939,44.2576 18.2237,57.7085 10.8475,71.5932 8.678,84.6102 8.678,90.2508 10.4136,95.8915 17.3559,105.0034 28.2034,112.8136 41.2203,118.0203 49.4644,119.322 65.0847,118.8881 72.0271,116.7186 85.9119,109.3424 96.3254,100.2305 103.7017,90.2508 105.8712,84.1763 106.739,66.3864 97.1932,45.5593 84.6102,29.0712" stroke="#00007f" stroke-width="2" /><polyline fill="none" points="21.261,56.4068 22.5627,55.539 22.5627,50.3322 21.261,30.8068 18.2237,8.678 43.3898,35.5797" stroke="#0000ff" stroke-width="2" /><polyline fill="none" points="84.6102,40.7864 84.1763,35.5797 97.1932,8.678 103.2678,25.6 105.4373,50.7661" stroke="#0080ff" stroke-width="2" /><polyline fill="none" points="35.5797,44.2576 30.3729,39.4847 26.0339,30.3729 36.4475,41.6542" stroke="#15ffe1" stroke-width="2" /><polyline fill="none" points="91.9864,39.9186 96.7593,28.6373 98.4949,50.3322" stroke="#7cff79" stroke-width="2" /><polyline fill="none" points="59.878,88.9492 58.5763,87.6475 59.0102,83.7424 61.6136,82.8746 62.0475,84.6102 60.3119,86.3458 59.878,82.0068 62.0475,81.139 62.9153,82.0068 62.9153,85.478 61.6136,86.3458 75.4983,81.5729 91.9864,71.1593 93.722,65.9525" stroke="#e4ff12" stroke-width="2" /><polyline fill="none" points="62.4814,85.9119 65.9525,91.1186 76.8,92.8542 86.7797,88.9492 92.8542,85.0441" stroke="#ff9400" stroke-width="2" /><polyline fill="none" points="60.3119,87.6475 45.9932,93.2881 31.6746,95.0237 25.6,92.4203 18.6576,82.4407" stroke="#ff1d00" stroke-width="2" /><polyline fill="none" points="61.6136,85.478 49.0305,85.9119 40.7864,82.4407 35.1458,78.1017" stroke="#7f0000" stroke-width="2" /></svg>