<?xml version="1.0" encoding="utf-8" ?>
<svg baseProfile="tiny" height="128" version="1.2" viewBox="0,0,128,128" width="128" xmlns="http://www.w3.org/2000/svg" xmlns:ev="http://www.w3.org/2001/xml-events" xmlns:xlink="http://www.w3.org/1999/xlink"><defs /><polyline fill="none" points="62.0475,17.3559 45.1254,22.9966 42.0881,29.5051 41.6542,40.7864 52.0678,58.5763 62.9153,65.5186 69.4237,67.6881 79.4034,67.6881 91.9864,60.7458 96.7593,55.539 99.3627,48.5966 99.7966,32.9763 97.1932,26.9017 92.4203,20.8271 82.4407,13.0169 70.7254,9.1119 59.0102,8.678 53.3695,13.8847" stroke="#00007f" stroke-width="2" /><polyline fill="none" points="80.2712,30.8068 76.8,31.2407 72.8949,34.278 70.7254,39.4847 70.2915,43.8237 72.0271,45.5593 82.4407,47.7288 84.1763,47.7288 85.478,45.1254 86.3458,36.0136 83.7424,33.4102 79.8373,31.6746" stroke="#0000fe" stroke-width="2" /><polyline fill="none" points="71.1593,42.0881 73.7627,40.7864 81.139,39.9186" stroke="#0060ff" stroke-width="2" /><polyline fill="none" points="71.5932,55.9729 63.7831,55.9729 63.7831,60.7458 70.7254,62.9153 74.6305,62.9153 75.4983,61.6136" stroke="#00d4ff" stroke-width="2" /><polyline fill="none" points="68.122,58.1424 72.0271,56.4068 79.4034,56.4068 88.0814,53.8034 119.322,38.1831" stroke="#4cffaa" stroke-width="2" /><polyline fill="none" points="70.7254,62.9153 79.4034,62.9153 105.0034,68.9898 107.1729,70.7254" stroke="#aaff4c" stroke-width="2" /><polyline fill="none" points="62.9153,59.0102 53.3695,59.0102 21.6949,49.8983 9.1119,48.5966 8.678,49.8983" stroke="#ffe500" stroke-width="2" /><polyline fill="none" points="63.3492,62.4814 56.8407,65.0847 30.3729,81.5729 21.261,84.1763" stroke="#ff7a00" stroke-width="2" /><polyline fill="none" points="56.4068,31.6746 52.5017,34.7119 49.4644,39.9186 47.7288,49.0305 49.8983,51.2 53.8034,51.6339 57.7085,51.6339 59.878,49.8983 61.6136,31.2407 58.5763,28.2034" stroke="#fe1200" stroke-width="2" /><polyline fill="none" points="51.6339,40.3525 51.6339,45.5593" stroke="#7f0000" stroke-width="2" /></svg>