<?xml version="1.0" encoding="utf-8" ?>
<svg baseProfile="tiny" height="128" version="1.2" viewBox="0,0,128,128" width="128" xmlns="http://www.w3.org/2000/svg" xmlns:ev="http://www.w3.org/2001/xml-events" xmlns:xlink="http://www.w3.org/1999/xlink"><defs /><polyline fill="none" points="87.2136,66.8203 89.3831,59.878 88.0814,49.8983 82.0068,43.3898 77.2339,41.6542 62.9153,40.7864 52.5017,42.522 29.939,52.5017 17.3559,62.4814 12.5831,69.4237 9.9797,76.8 8.678,94.1559 10.8475,102.4 16.0542,109.7763 29.939,117.5864 38.6169,119.322 59.4441,119.322 68.5559,117.1525 75.9322,113.6814 87.6475,104.1356 95.0237,92.4203 96.7593,85.0441 97.1932,72.8949 93.722,62.4814" stroke="#00007f" stroke-width="2" /><polyline fill="none" points="21.6949,55.9729 23.8644,45.9932 34.278,22.5627 37.7492,21.6949 43.3898,36.4475 49.4644,44.2576" stroke="#0028ff" stroke-width="2" /><polyline fill="none" points="77.2339,40.7864 91.9864,14.7525 97.6271,9.9797 104.1356,8.678 105.4373,11.7153 105.4373,29.5051 102.8339,60.3119" stroke="#00d4ff" stroke-width="2" /><polyline fill="none" points="38.1831,64.2169 41.2203,62.4814 38.6169,67.6881 40.7864,69.4237 44.2576,65.5186 41.2203,65.9525" stroke="#7cff79" stroke-width="2" /><polyline fill="none" points="74.6305,63.7831 68.9898,62.9153 62.0475,64.6508 58.5763,69.4237 64.6508,69.4237 67.2542,67.6881 68.5559,65.5186 67.6881,65.5186" stroke="#ffe500" stroke-width="2" /><polyline fill="none" points="45.9932,90.6847 54.2373,90.2508 55.539,93.2881 51.2,99.3627 47.2949,95.0237 43.3898,93.2881" stroke="#ff4600" stroke-width="2" /><polyline fill="none" points="51.2,100.2305 51.6339,106.3051 53.3695,108.4746 65.0847,109.7763 66.3864,107.6068 59.4441,107.1729" stroke="#7f0000" stroke-width="2" /></svg>