<?xml version="1.0" encoding="utf-8" ?>
<svg baseProfile="tiny" height="128" version="1.2" viewBox="0,0,128,128" width="128" xmlns="http://www.w3.org/2000/svg" xmlns:ev="http://www.w3.org/2001/xml-events" xmlns:xlink="http://www.w3.org/1999/xlink"><defs /><polyline fill="none" points="57.7085,29.939 57.2746,26.4678 54.6712,24.7322 45.1254,22.9966 36.8814,26.9017 30.3729,34.7119 28.6373,39.9186 29.0712,46.4271 32.9763,53.8034 41.6542,62.9153 49.8983,65.5186 63.3492,65.5186 67.6881,64.2169 72.0271,62.0475 78.5356,56.4068 81.139,51.2 82.0068,45.5593 81.139,33.8441 78.5356,28.6373 74.1966,24.2983 61.1797,21.6949 45.1254,23.4305" stroke="#00007f" stroke-width="2" /><polyline fill="none" points="31.6746,29.939 32.1085,21.6949 37.7492,10.4136 46.861,19.5254" stroke="#0000ff" stroke-width="2" /><polyline fill="none" points="65.9525,20.3932 70.7254,12.5831 75.0644,9.5458 79.4034,8.678 82.4407,26.9017" stroke="#0080ff" stroke-width="2" /><polyline fill="none" points="42.9559,41.2203 35.1458,37.3153 13.4508,33.8441" stroke="#15ffe1" stroke-width="2" /><polyline fill="none" points="36.8814,48.1627 28.2034,46.4271 16.922,46.4271 11.2814,49.0305" stroke="#7cff79" stroke-width="2" /><polyline fill="none" points="39.9186,54.6712 29.939,54.6712 8.678,59.878" stroke="#e4ff12" stroke-width="2" /><polyline fill="none" points="74.6305,41.6542 87.2136,38.6169 108.4746,37.3153" stroke="#ff9400" stroke-width="2" /><polyline fill="none" points="74.1966,50.7661 89.3831,50.7661 100.6644,52.5017" stroke="#ff1d00" stroke-width="2" /><polyline fill="none" points="70.7254,58.1424 89.3831,58.5763 119.322,64.6508" stroke="#7f0000" stroke-width="2" /></svg>