<?xml version="1.0" encoding="utf-8" ?>
<svg baseProfile="tiny" height="128" version="1.2" viewBox="0,0,128,128" width="128" xmlns="http://www.w3.org/2000/svg" xmlns:ev="http://www.w3.org/2001/xml-events" xmlns:xlink="http://www.w3.org/1999/xlink"><defs /><polyline fill="none" points="68.9898,55.1051 54.6712,48.1627 32.9763,48.1627 23.4305,52.5017 15.6203,58.5763 9.9797,71.5932 8.678,78.9695 9.5458,91.1186 12.1492,98.9288 17.7898,107.1729 24.7322,113.2475 36.8814,118.4542 52.5017,119.322 66.3864,109.7763 70.2915,106.3051 74.6305,97.1932 76.8,88.0814 77.2339,71.5932 73.7627,53.8034" stroke="#00007f" stroke-width="2" /><polyline fill="none" points="16.922,60.3119 15.6203,52.5017 22.9966,19.0915 26.0339,19.5254 45.1254,47.7288" stroke="#0028ff" stroke-width="2" /><polyline fill="none" points="62.4814,47.7288 75.9322,21.6949 81.139,8.678 83.3085,19.5254 83.3085,38.1831 78.9695,65.0847" stroke="#00d4ff" stroke-width="2" /><polyline fill="none" points="29.0712,63.7831 27.3356,65.5186 26.9017,73.7627 31.2407,77.2339 33.4102,77.6678 34.7119,72.461 34.7119,67.6881 32.1085,65.0847 25.6,65.0847 26.4678,68.9898 28.6373,69.4237" stroke="#7cff79" stroke-width="2" /><polyline fill="none" points="62.4814,62.4814 56.8407,64.2169 54.6712,66.3864 51.6339,72.461 51.6339,75.4983 51.6339,79.4034 53.8034,82.0068 55.9729,82.8746 62.0475,82.4407 65.0847,75.4983 65.0847,65.5186 62.4814,62.9153" stroke="#ffe500" stroke-width="2" /><polyline fill="none" points="32.1085,88.5153 35.1458,86.3458 41.6542,85.0441 49.8983,85.478 56.4068,88.0814" stroke="#ff4600" stroke-width="2" /><polyline fill="none" points="30.3729,90.2508 30.3729,90.2508" stroke="#7f0000" stroke-width="2" /></svg>