<?xml version="1.0" encoding="utf-8" ?>
<svg baseProfile="tiny" height="128" version="1.2" viewBox="0,0,128,128" width="128" xmlns="http://www.w3.org/2000/svg" xmlns:ev="http://www.w3.org/2001/xml-events" xmlns:xlink="http://www.w3.org/1999/xlink"><defs /><polyline fill="none" points="80.7051,35.1458 79.8373,25.6 74.1966,8.678 54.6712,39.9186" stroke="#00007f" stroke-width="2" /><polyline fill="none" points="80.2712,33.8441 96.7593,33.8441 100.2305,37.3153" stroke="#0000f1" stroke-width="2" /><polyline fill="none" points="100.6644,37.3153 100.6644,32.1085 104.1356,23.4305 107.6068,21.261 111.5119,15.1864 117.1525,42.0881 119.322,61.1797" stroke="#004cff" stroke-width="2" /><polyline fill="none" points="119.322,61.1797 118.8881,90.6847 116.2847,95.4576 109.7763,99.7966 99.3627,102.4 80.2712,102.8339 61.1797,97.6271 48.5966,90.6847 42.9559,84.6102 38.6169,75.9322 38.6169,55.1051 42.522,43.3898 46.4271,37.3153 52.5017,30.3729 63.7831,21.6949" stroke="#00b0ff" stroke-width="2" /><polyline fill="none" points="79.8373,36.0136 79.8373,48.5966 86.7797,41.2203 95.8915,49.8983 100.6644,31.6746" stroke="#29ffcd" stroke-width="2" /><polyline fill="none" points="58.5763,59.4441 58.5763,55.539 62.4814,55.9729 65.9525,62.0475 65.9525,65.9525 64.2169,66.8203" stroke="#7cff79" stroke-width="2" /><polyline fill="none" points="99.3627,73.7627 99.3627,68.5559 103.2678,68.122 104.1356,74.6305 102.8339,76.8 98.9288,77.6678" stroke="#cdff29" stroke-width="2" /><polyline fill="none" points="70.2915,75.4983 70.7254,68.5559 72.461,66.3864 76.3661,64.2169 80.7051,65.5186 80.7051,79.8373 79.4034,82.8746 77.6678,83.3085" stroke="#ffc400" stroke-width="2" /><polyline fill="none" points="71.5932,70.7254 31.6746,69.8576 8.678,64.2169" stroke="#ff6700" stroke-width="2" /><polyline fill="none" points="68.9898,72.0271 58.1424,64.2169 39.4847,55.1051 27.3356,45.1254" stroke="#f10700" stroke-width="2" /><polyline fill="none" points="69.4237,72.8949 40.3525,84.6102 32.1085,85.9119" stroke="#7f0000" stroke-width="2" /></svg>