<?xml version="1.0" encoding="utf-8" ?>
<svg baseProfile="tiny" height="128" version="1.2" viewBox="0,0,128,128" width="128" xmlns="http://www.w3.org/2000/svg" xmlns:ev="http://www.w3.org/2001/xml-events" xmlns:xlink="http://www.w3.org/1999/xlink"><defs /><polyline fill="none" points="10.4136,54.2373 12.1492,47.7288 12.5831,27.3356 19.5254,8.678 31.6746,43.8237" stroke="#00007f" stroke-width="2" /><polyline fill="none" points="60.7458,45.1254 90.6847,13.0169 91.1186,47.7288 79.4034,49.4644 67.2542,47.2949" stroke="#0080ff" stroke-width="2" /><polyline fill="none" points="27.3356,44.6915 39.0508,43.3898 55.1051,47.2949 77.2339,54.6712 85.0441,61.1797 90.2508,69.8576 92.8542,88.0814 92.4203,97.1932 85.0441,107.6068 75.9322,112.8136 66.3864,115.4169 62.4814,118.4542 57.2746,119.322 40.3525,113.2475 26.0339,103.7017 12.1492,85.0441 8.678,70.2915 9.1119,60.3119 11.2814,56.8407 15.6203,52.0678 24.2983,47.2949" stroke="#7cff79" stroke-width="2" /><polyline fill="none" points="30.3729,59.878 31.2407,65.9525 32.9763,64.2169 32.9763,62.4814 32.5424,63.7831" stroke="#ff9400" stroke-width="2" /><polyline fill="none" points="61.1797,65.0847 62.0475,72.461" stroke="#7f0000" stroke-width="2" /></svg>