<?xml version="1.0" encoding="utf-8" ?>
<svg baseProfile="tiny" height="128" version="1.2" viewBox="0,0,128,128" width="128" xmlns="http://www.w3.org/2000/svg" xmlns:ev="http://www.w3.org/2001/xml-events" xmlns:xlink="http://www.w3.org/1999/xlink"><defs /><polyline fill="none" points="54.6712,43.8237 51.2,45.5593 43.8237,44.2576 38.6169,45.5593 32.1085,50.3322 14.7525,68.9898 10.4136,76.3661 8.678,86.3458 19.0915,101.5322 26.4678,107.6068 40.7864,116.2847 55.539,119.322 63.3492,117.5864 79.8373,110.6441 85.9119,104.1356 94.1559,91.1186 96.3254,85.0441 97.6271,68.9898 95.4576,61.6136 91.5525,54.6712 78.9695,44.6915 70.2915,42.9559 42.9559,43.3898 36.4475,45.1254" stroke="#00007f" stroke-width="2" /><polyline fill="none" points="69.4237,35.1458 88.9492,12.5831 93.2881,24.7322 93.2881,50.7661" stroke="#0080ff" stroke-width="2" /><polyline fill="none" points="53.8034,44.6915 45.5593,24.2983 34.278,8.678 31.2407,27.7695 26.0339,46.861" stroke="#7cff79" stroke-width="2" /><polyline fill="none" points="50.3322,71.1593 47.2949,72.461 45.5593,75.9322 46.4271,82.0068 50.3322,83.7424 61.1797,84.6102 64.6508,82.0068 66.3864,78.9695 66.8203,76.3661 64.6508,73.7627 55.1051,72.461 50.3322,76.3661 50.3322,78.9695 52.9356,81.139 55.539,81.139 59.0102,78.1017 51.6339,75.4983 50.3322,91.5525 48.5966,97.6271 43.8237,98.4949 39.0508,95.8915" stroke="#ff9400" stroke-width="2" /><polyline fill="none" points="55.1051,82.8746 54.2373,93.722 56.8407,98.061 65.9525,98.9288 75.0644,98.061" stroke="#7f0000" stroke-width="2" /></svg>