<?xml version="1.0" encoding="utf-8" ?>
<svg baseProfile="tiny" height="128" version="1.2" viewBox="0,0,128,128" width="128" xmlns="http://www.w3.org/2000/svg" xmlns:ev="http://www.w3.org/2001/xml-events" xmlns:xlink="http://www.w3.org/1999/xlink"><defs /><polyline fill="none" points="87.0748,47.0204 87.5102,71.4014 88.8163,74.449 92.2993,76.6259 96.2177,72.7075 101.8776,59.2109 102.3129,53.9864 100.1361,49.6327" stroke="#00007f" stroke-width="2" /><polyline fill="none" points="86.2041,47.0204 30.4762,43.5374 26.9932,64.0 32.2177,67.9184 37.4422,53.551 38.7483,43.9728" stroke="#0000e8" stroke-width="2" /><polyline fill="none" points="47.8912,43.5374 51.3741,77.4966 57.9048,75.7551 64.0,69.6599 63.1293,54.8571 60.0816,48.7619 60.0816,43.9728" stroke="#0038ff" stroke-width="2" /><polyline fill="none" points="66.1769,49.1973 65.3061,56.1633 67.9184,75.3197 70.5306,77.0612 74.0136,53.9864 72.7075,44.8435" stroke="#0094ff" stroke-width="2" /><polyline fill="none" points="29.1701,41.7959 34.8299,20.0272 43.102,17.415 58.7755,16.5442 101.0068,20.4626 118.4218,23.9456 119.2925,25.6871 107.5374,51.3741 92.2993,48.7619 86.6395,44.8435" stroke="#0cf4ea" stroke-width="2" /><polyline fill="none" points="33.5238,22.6395 9.1429,21.7687 8.7075,33.0884 34.8299,33.0884" stroke="#56ffa0" stroke-width="2" /><polyline fill="none" points="15.6735,23.9456 15.2381,23.9456" stroke="#a0ff56" stroke-width="2" /><polyline fill="none" points="21.3333,26.1224 21.3333,26.1224" stroke="#eaff0c" stroke-width="2" /><polyline fill="none" points="18.2857,26.9932 17.8503,26.9932" stroke="#ffaa00" stroke-width="2" /><polyline fill="none" points="22.6395,24.8163 21.3333,24.8163" stroke="#ff5500" stroke-width="2" /><polyline fill="none" points="13.932,28.2993 21.7687,30.9116 26.1224,28.2993" stroke="#e80000" stroke-width="2" /><polyline fill="none" points="47.8912,15.2381 47.8912,8.7075" stroke="#7f0000" stroke-width="2" /></svg>