<?xml version="1.0" encoding="utf-8" ?>
<svg baseProfile="tiny" height="128" version="1.2" viewBox="0,0,128,128" width="128" xmlns="http://www.w3.org/2000/svg" xmlns:ev="http://www.w3.org/2001/xml-events" xmlns:xlink="http://www.w3.org/1999/xlink"><defs /><polyline fill="none" points="36.4475,42.9559 29.939,43.8237 25.1661,46.4271 20.3932,49.8983 16.4881,55.539 11.2814,65.5186 8.678,78.1017 8.678,89.8169 21.6949,108.9085 26.9017,113.2475 32.9763,116.2847 42.522,118.4542 58.1424,119.322 68.5559,116.2847 72.8949,113.2475 80.2712,104.5695 87.2136,87.6475 88.5153,60.7458 87.2136,55.1051 79.4034,44.2576 68.9898,39.9186 48.1627,38.1831 41.2203,39.9186 37.3153,42.0881" stroke="#00007f" stroke-width="2" /><polyline fill="none" points="71.5932,40.3525 73.3288,35.5797 79.4034,26.0339 91.1186,17.3559" stroke="#0000f1" stroke-width="2" /><polyline fill="none" points="91.1186,66.8203 96.7593,56.8407 100.2305,42.0881 100.2305,28.2034 98.061,16.0542" stroke="#004cff" stroke-width="2" /><polyline fill="none" points="41.2203,39.9186 29.939,19.9593 24.2983,16.922" stroke="#00b0ff" stroke-width="2" /><polyline fill="none" points="12.1492,56.4068 9.5458,45.5593 10.4136,31.6746 20.3932,12.5831 26.9017,17.7898" stroke="#29ffcd" stroke-width="2" /><polyline fill="none" points="95.0237,10.4136 100.6644,8.678" stroke="#7cff79" stroke-width="2" /><polyline fill="none" points="32.5424,57.7085 30.3729,59.0102 26.9017,66.8203 26.9017,78.5356 29.939,83.3085 35.1458,83.3085 39.0508,74.1966 39.9186,61.1797 35.5797,58.5763 32.1085,58.5763" stroke="#cdff29" stroke-width="2" /><polyline fill="none" points="72.461,62.4814 67.6881,67.2542 64.2169,72.8949 63.3492,79.8373 67.2542,83.7424 72.8949,85.478 76.3661,78.5356 76.3661,69.4237 75.9322,67.2542 70.7254,64.2169" stroke="#ffc400" stroke-width="2" /><polyline fill="none" points="71.1593,74.6305 70.7254,74.6305" stroke="#ff6700" stroke-width="2" /><polyline fill="none" points="33.4102,71.1593 32.9763,71.1593" stroke="#f10700" stroke-width="2" /><polyline fill="none" points="51.6339,91.5525 58.1424,95.8915 65.5186,97.1932" stroke="#7f0000" stroke-width="2" /></svg>