<?xml version="1.0" encoding="utf-8" ?>
<svg baseProfile="tiny" height="128" version="1.2" viewBox="0,0,128,128" width="128" xmlns="http://www.w3.org/2000/svg" xmlns:ev="http://www.w3.org/2001/xml-events" xmlns:xlink="http://www.w3.org/1999/xlink"><defs /><polyline fill="none" points="14.3673,30.0408 12.6259,33.0884 11.7551,40.9252 14.3673,49.1973 16.5442,53.1156 20.898,56.5986 26.9932,59.2109 41.7959,59.2109 44.8435,55.7279 46.585,49.1973 47.4558,39.1837 46.1497,36.1361 40.9252,29.6054 29.1701,24.381 22.2041,23.9456 19.5918,25.2517 12.6259,30.9116" stroke="#00007f" stroke-width="2" /><polyline fill="none" points="12.6259,30.9116 8.7075,13.0612 10.0136,12.1905 12.1905,14.3673 17.415,23.9456" stroke="#0080ff" stroke-width="2" /><polyline fill="none" points="39.619,28.2993 39.619,14.3673 42.6667,8.7075 43.9728,8.7075 46.585,13.932 47.4558,25.2517 43.5374,35.2653" stroke="#7cff79" stroke-width="2" /><polyline fill="none" points="47.8912,39.1837 53.9864,34.8299 65.3061,32.2177 85.3333,29.6054 108.8435,30.0408 117.9864,33.9592 119.2925,49.1973 115.3741,57.034 105.7959,60.0816 63.1293,60.0816 41.7959,55.2925" stroke="#ff9400" stroke-width="2" /><polyline fill="none" points="60.517,59.2109 60.9524,79.6735" stroke="#7f0000" stroke-width="2" /></svg>