<?xml version="1.0" encoding="utf-8" ?>
<svg baseProfile="tiny" height="128" version="1.2" viewBox="0,0,128,128" width="128" xmlns="http://www.w3.org/2000/svg" xmlns:ev="http://www.w3.org/2001/xml-events" xmlns:xlink="http://www.w3.org/1999/xlink"><defs /><polyline fill="none" points="93.9249,36.6962 93.4881,32.7645 90.43,31.0171 82.1297,32.3276 76.4505,35.8225 72.0819,41.0648 70.3345,46.3072 70.7713,55.0444 74.2662,58.9761 87.372,62.9078 103.099,62.9078 111.3993,58.1024 114.4573,51.9863 114.8942,45.4334 114.0205,39.7543 111.8362,37.1331 101.7884,34.5119" stroke="#00007f" stroke-width="2" /><polyline fill="none" points="76.4505,30.5802 81.6928,19.2218 83.0034,9.6109 80.3823,8.7372 75.5768,13.9795 72.0819,24.4642 70.3345,42.3754" stroke="#0028ff" stroke-width="2" /><polyline fill="none" points="107.9044,33.2014 113.1468,20.9693 119.2628,15.727 118.3891,36.2594" stroke="#00d4ff" stroke-width="2" /><polyline fill="none" points="85.6246,38.8805 83.8771,43.2491" stroke="#7cff79" stroke-width="2" /><polyline fill="none" points="103.099,41.9386 101.3515,48.0546" stroke="#ffe500" stroke-width="2" /><polyline fill="none" points="81.256,50.6758 87.8089,54.6075 102.6621,51.5495" stroke="#ff4600" stroke-width="2" /><polyline fill="none" points="72.5188,51.5495 55.9181,44.5597 38.8805,43.686 22.2799,46.744 13.1058,51.9863 10.0478,55.9181 8.7372,62.9078 11.7952,70.3345 16.1638,74.7031 24.901,77.3242 32.3276,77.3242 46.744,72.9556 67.7133,60.2867" stroke="#7f0000" stroke-width="2" /></svg>