<?xml version="1.0" encoding="utf-8" ?>
<svg baseProfile="tiny" height="128" version="1.2" viewBox="0,0,128,128" width="128" xmlns="http://www.w3.org/2000/svg" xmlns:ev="http://www.w3.org/2001/xml-events" xmlns:xlink="http://www.w3.org/1999/xlink"><defs /><polyline fill="none" points="66.8203,41.2203 65.5186,38.1831 52.0678,38.1831 33.8441,45.5593 22.9966,55.9729 17.7898,62.9153 13.8847,70.2915 12.5831,76.8 13.0169,91.5525 21.261,107.6068 26.9017,112.8136 34.7119,116.7186 51.2,119.322 60.3119,118.0203 69.4237,114.9831 77.6678,109.7763 89.8169,97.1932 92.8542,91.5525 93.722,86.3458 93.2881,79.4034 90.6847,72.8949 86.3458,66.8203 60.3119,41.6542" stroke="#00007f" stroke-width="2" /><polyline fill="none" points="16.4881,54.2373 16.922,47.2949 26.9017,19.9593 28.6373,8.678 55.9729,42.0881 59.0102,45.5593 61.1797,45.9932" stroke="#0000f1" stroke-width="2" /><polyline fill="none" points="56.8407,53.3695 60.3119,45.9932 64.2169,40.7864 78.1017,26.0339 89.8169,16.4881 91.1186,20.3932 91.1186,28.6373 85.0441,55.539 83.7424,73.7627" stroke="#004cff" stroke-width="2" /><polyline fill="none" points="14.7525,93.722 12.5831,110.6441 14.3186,111.9458 20.3932,111.078 23.8644,106.3051 26.4678,100.6644 27.3356,93.2881 26.0339,91.1186 22.9966,90.6847 16.0542,91.9864 13.0169,94.5898 8.678,105.0034 10.4136,105.8712 12.5831,105.4373 16.4881,101.0983 21.6949,88.0814 18.2237,88.5153 16.4881,91.5525" stroke="#00b0ff" stroke-width="2" /><polyline fill="none" points="34.7119,66.3864 32.9763,69.4237 32.9763,73.3288 35.1458,77.6678 40.7864,77.6678 42.9559,74.6305 44.6915,64.6508 39.0508,64.2169 37.7492,68.9898 39.9186,70.7254" stroke="#29ffcd" stroke-width="2" /><polyline fill="none" points="67.2542,62.0475 63.7831,69.4237 63.7831,71.1593 65.5186,71.1593 67.2542,65.0847 67.2542,71.1593" stroke="#7cff79" stroke-width="2" /><polyline fill="none" points="58.5763,97.1932 58.5763,98.9288 75.4983,98.4949 93.2881,91.1186" stroke="#cdff29" stroke-width="2" /><polyline fill="none" points="57.7085,106.739 56.8407,109.7763 63.7831,108.0407 87.2136,98.061" stroke="#ffc400" stroke-width="2" /><polyline fill="none" points="40.7864,97.6271 10.4136,93.722" stroke="#ff6700" stroke-width="2" /><polyline fill="none" points="42.0881,107.1729 15.6203,106.3051" stroke="#f10700" stroke-width="2" /><polyline fill="none" points="49.4644,104.5695 46.861,112.3797 50.7661,114.1153 53.8034,113.2475 56.8407,106.739 56.8407,100.6644 52.9356,99.3627 50.7661,99.7966 47.7288,105.4373 48.5966,109.7763 53.8034,110.2102 55.539,107.6068 56.4068,101.0983 53.3695,99.7966 51.6339,102.4 50.3322,112.8136 52.9356,114.5492 56.8407,114.9831" stroke="#7f0000" stroke-width="2" /></svg>