<?xml version="1.0" encoding="utf-8" ?>
<svg baseProfile="tiny" height="128" version="1.2" viewBox="0,0,128,128" width="128" xmlns="http://www.w3.org/2000/svg" xmlns:ev="http://www.w3.org/2001/xml-events" xmlns:xlink="http://www.w3.org/1999/xlink"><defs /><polyline fill="none" points="47.2949,45.9932 37.3153,43.8237 31.2407,45.5593 24.7322,50.3322 18.6576,57.7085 13.4508,68.122 10.8475,78.5356 10.8475,89.3831 11.7153,98.061 16.0542,105.8712 22.9966,112.3797 30.8068,117.1525 39.9186,118.8881 50.7661,119.322 61.1797,116.2847 70.7254,110.6441 77.2339,103.2678 80.7051,95.8915 82.4407,87.6475 82.8746,79.8373 80.7051,71.5932 75.4983,60.3119 71.1593,53.8034 66.8203,49.8983 54.6712,44.6915" stroke="#00007f" stroke-width="2" /><polyline fill="none" points="16.4881,54.6712 13.8847,47.2949 10.4136,16.922 8.678,11.2814 26.4678,35.5797 32.5424,42.0881 39.4847,45.9932" stroke="#00d4ff" stroke-width="2" /><polyline fill="none" points="63.3492,49.0305 70.7254,19.5254 74.6305,8.678 76.3661,28.2034 76.8,56.8407" stroke="#ffe500" stroke-width="2" /><polyline fill="none" points="40.7864,72.0271 50.3322,72.0271 55.1051,75.4983 58.1424,82.0068 58.5763,90.6847 56.4068,94.1559 51.2,98.061 45.9932,97.6271 43.3898,94.5898 36.8814,73.3288" stroke="#7f0000" stroke-width="2" /></svg>