<?xml version="1.0" encoding="utf-8" ?>
<svg baseProfile="tiny" height="128" version="1.2" viewBox="0,0,128,128" width="128" xmlns="http://www.w3.org/2000/svg" xmlns:ev="http://www.w3.org/2001/xml-events" xmlns:xlink="http://www.w3.org/1999/xlink"><defs /><polyline fill="none" points="42.6667,32.6531 31.7823,31.7823 18.2857,33.0884 10.449,34.8299 8.7075,38.3129 10.0136,40.0544 13.932,40.0544 26.9932,36.5714 40.4898,35.2653 41.3605,42.2313 40.0544,55.2925 42.2313,60.9524 44.4082,62.6939 45.2789,60.0816 44.8435,42.6667 47.4558,40.9252 50.068,40.9252 51.3741,44.8435 50.5034,56.5986 51.8095,59.2109 54.4218,58.3401 56.1633,52.6803 56.5986,42.2313 61.8231,42.2313 64.4354,44.4082 67.0476,49.6327 66.1769,61.8231 68.7891,62.6939 71.4014,61.8231 74.0136,56.1633 74.449,46.585 80.9796,43.5374 90.1224,66.1769 91.8639,67.483 94.9116,67.0476 97.5238,65.3061 99.2653,59.6463 94.9116,40.9252" stroke="#00007f" stroke-width="2" /><polyline fill="none" points="42.2313,30.9116 50.9388,27.4286 82.2857,24.381 94.4762,26.1224 94.9116,10.0136 96.2177,10.449 99.7007,15.2381 102.3129,16.9796 107.9728,8.7075 109.2789,10.0136 111.0204,20.4626 118.8571,28.2993 119.2925,35.2653 117.551,39.1837 114.5034,40.9252 96.2177,43.5374 95.3469,40.4898" stroke="#004cff" stroke-width="2" /><polyline fill="none" points="100.1361,26.5578 102.3129,26.1224" stroke="#29ffcd" stroke-width="2" /><polyline fill="none" points="113.1973,26.5578 111.8912,26.1224 111.4558,27.4286" stroke="#cdff29" stroke-width="2" /><polyline fill="none" points="107.102,32.2177 105.3605,32.2177 105.3605,33.0884 109.2789,33.0884 108.8435,31.7823 104.4898,30.9116 107.102,31.7823" stroke="#ff6700" stroke-width="2" /><polyline fill="none" points="102.7483,36.5714 108.8435,34.8299" stroke="#7f0000" stroke-width="2" /></svg>