<?xml version="1.0" encoding="utf-8" ?>
<svg baseProfile="tiny" height="128" version="1.2" viewBox="0,0,128,128" width="128" xmlns="http://www.w3.org/2000/svg" xmlns:ev="http://www.w3.org/2001/xml-events" xmlns:xlink="http://www.w3.org/1999/xlink"><defs /><polyline fill="none" points="43.3898,111.9458 38.6169,115.8508 29.5051,116.7186 23.4305,112.8136 12.1492,101.9661 8.678,86.7797 8.678,69.8576 10.4136,65.5186 14.7525,61.1797 20.3932,58.1424 36.0136,51.6339 51.6339,50.7661 55.9729,60.7458 58.1424,77.2339 58.1424,81.5729 53.3695,96.7593 50.7661,101.0983 42.522,109.3424 26.0339,119.322" stroke="#00007f" stroke-width="2" /><polyline fill="none" points="11.2814,58.1424 10.4136,24.2983 13.4508,8.678 17.7898,11.2814 27.7695,36.8814 34.278,48.1627" stroke="#7cff79" stroke-width="2" /><polyline fill="none" points="51.6339,47.2949 56.4068,36.8814 64.6508,25.6 78.1017,15.1864 81.5729,22.1288 78.9695,42.522 69.8576,55.9729 59.0102,67.2542" stroke="#7f0000" stroke-width="2" /></svg>