<?xml version="1.0" encoding="utf-8" ?>
<svg baseProfile="tiny" height="128" version="1.2" viewBox="0,0,128,128" width="128" xmlns="http://www.w3.org/2000/svg" xmlns:ev="http://www.w3.org/2001/xml-events" xmlns:xlink="http://www.w3.org/1999/xlink"><defs /><polyline fill="none" points="86.7797,28.6373 87.6475,26.4678 89.3831,26.0339 99.7966,27.3356 110.6441,32.1085 117.5864,38.1831 118.8881,41.6542 119.322,50.3322 113.6814,58.5763 105.0034,64.6508 100.2305,65.9525 91.9864,65.9525 85.0441,59.4441 80.2712,50.7661 78.5356,45.9932 78.1017,38.6169 84.6102,30.3729 90.6847,26.9017" stroke="#00007f" stroke-width="2" /><polyline fill="none" points="84.6102,30.8068 75.0644,17.3559 74.6305,9.5458 77.6678,8.678 82.8746,10.8475 95.8915,20.8271 98.4949,23.8644 100.6644,31.2407" stroke="#0000c3" stroke-width="2" /><polyline fill="none" points="104.5695,29.939 107.1729,21.261 115.8508,14.3186 116.2847,25.1661 114.1153,35.1458" stroke="#0000ff" stroke-width="2" /><polyline fill="none" points="98.061,44.2576 101.9661,43.8237 106.739,48.1627 106.739,53.8034 103.2678,56.8407 99.3627,57.2746 94.5898,49.4644 95.0237,45.1254 99.3627,42.9559" stroke="#0034ff" stroke-width="2" /><polyline fill="none" points="100.2305,43.3898 101.5322,55.1051 99.3627,59.0102 98.061,59.878 93.722,59.878 89.8169,57.7085 89.3831,54.6712" stroke="#0070ff" stroke-width="2" /><polyline fill="none" points="100.6644,43.8237 104.5695,60.3119 110.2102,61.6136 113.2475,57.2746" stroke="#00acff" stroke-width="2" /><polyline fill="none" points="98.061,59.878 99.7966,64.2169 103.2678,65.9525 105.4373,64.2169 105.4373,59.878" stroke="#02e8f4" stroke-width="2" /><polyline fill="none" points="93.2881,31.6746 90.6847,33.8441 90.6847,39.4847 94.1559,42.522 97.6271,41.6542" stroke="#32ffc3" stroke-width="2" /><polyline fill="none" points="102.8339,29.5051 98.9288,31.2407" stroke="#63ff93" stroke-width="2" /><polyline fill="none" points="105.4373,36.4475 102.8339,36.8814 101.5322,40.7864 103.2678,43.3898 106.739,44.2576 108.9085,42.522 110.6441,36.4475" stroke="#93ff63" stroke-width="2" /><polyline fill="none" points="89.3831,57.2746 67.6881,58.1424 37.7492,55.9729 32.1085,56.8407 26.4678,60.3119 24.2983,63.3492 25.1661,67.6881" stroke="#c3ff32" stroke-width="2" /><polyline fill="none" points="29.939,75.4983 40.7864,82.8746 54.2373,86.3458 67.6881,86.7797 83.3085,83.3085 90.2508,77.2339 91.1186,70.7254 86.3458,62.0475 78.5356,55.9729" stroke="#f4f802" stroke-width="2" /><polyline fill="none" points="24.2983,65.0847 10.8475,53.3695 8.678,48.1627 9.1119,40.7864 10.8475,36.8814 11.7153,37.7492 15.6203,49.8983 25.1661,62.0475" stroke="#ffc000" stroke-width="2" /><polyline fill="none" points="24.2983,72.0271 31.6746,77.6678" stroke="#ff8900" stroke-width="2" /><polyline fill="none" points="86.7797,85.478 86.7797,106.3051" stroke="#ff5100" stroke-width="2" /><polyline fill="none" points="72.8949,85.0441 67.6881,104.5695" stroke="#ff1a00" stroke-width="2" /><polyline fill="none" points="54.2373,85.478 49.0305,103.7017" stroke="#c30000" stroke-width="2" /><polyline fill="none" points="37.3153,78.9695 33.4102,94.5898" stroke="#7f0000" stroke-width="2" /></svg>