<?xml version="1.0" encoding="utf-8" ?>
<svg baseProfile="tiny" height="128" version="1.2" viewBox="0,0,128,128" width="128" xmlns="http://www.w3.org/2000/svg" xmlns:ev="http://www.w3.org/2001/xml-events" xmlns:xlink="http://www.w3.org/1999/xlink"><defs /><polyline fill="none" points="85.9119,45.1254 41.2203,45.5593 31.2407,49.4644 14.3186,63.3492 8.678,72.461 8.678,83.7424 9.9797,88.0814 13.0169,91.1186 30.8068,100.2305 65.5186,106.739 82.0068,106.739 96.3254,101.9661 109.7763,92.8542 117.1525,82.4407 119.322,72.8949 119.322,63.7831 105.8712,49.0305 98.9288,44.6915 91.9864,40.7864 78.5356,38.6169" stroke="#00007f" stroke-width="2" /><polyline fill="none" points="53.3695,39.4847 52.5017,30.8068 48.5966,15.6203 44.6915,8.678 41.2203,13.8847 35.1458,44.6915" stroke="#004cff" stroke-width="2" /><polyline fill="none" points="99.3627,38.6169 99.7966,28.6373 109.3424,12.1492 111.9458,26.4678 114.1153,58.1424" stroke="#29ffcd" stroke-width="2" /><polyline fill="none" points="51.2,62.0475 48.1627,63.3492 47.2949,59.878 50.7661,59.878 49.8983,62.4814" stroke="#cdff29" stroke-width="2" /><polyline fill="none" points="84.6102,59.878 85.0441,63.3492 84.1763,63.3492" stroke="#ff6700" stroke-width="2" /><polyline fill="none" points="68.122,71.1593 67.2542,80.2712 65.5186,83.7424 62.0475,81.139 57.2746,74.6305 61.6136,72.461 69.8576,72.461" stroke="#7f0000" stroke-width="2" /></svg>