<?xml version="1.0" encoding="utf-8" ?>
<svg baseProfile="tiny" height="128" version="1.2" viewBox="0,0,128,128" width="128" xmlns="http://www.w3.org/2000/svg" xmlns:ev="http://www.w3.org/2001/xml-events" xmlns:xlink="http://www.w3.org/1999/xlink"><defs /><polyline fill="none" points="22.1288,72.0271 13.0169,45.9932 8.678,21.6949 12.5831,24.2983 19.5254,34.278 30.3729,61.6136 32.1085,62.0475 35.1458,58.5763 38.6169,57.2746 51.2,61.6136 52.9356,59.878 58.5763,38.1831 69.8576,8.678 73.7627,25.6 72.8949,58.1424 82.0068,71.1593 84.6102,86.7797 82.0068,101.0983 75.4983,105.8712 61.6136,111.9458 44.6915,117.1525 26.9017,119.322 20.3932,115.8508 13.8847,100.2305 17.7898,84.1763 22.1288,72.8949" stroke="#00007f" stroke-width="2" /><polyline fill="none" points="29.0712,76.8 32.1085,74.1966 35.5797,74.1966 39.4847,79.4034 38.1831,80.2712 34.278,80.2712 30.8068,78.5356 30.3729,75.9322" stroke="#0028ff" stroke-width="2" /><polyline fill="none" points="33.4102,76.8 33.8441,77.6678" stroke="#00d4ff" stroke-width="2" /><polyline fill="none" points="52.0678,77.2339 59.4441,75.0644 62.4814,77.6678 63.3492,81.139 58.1424,81.5729 51.2,78.1017" stroke="#7cff79" stroke-width="2" /><polyline fill="none" points="58.5763,78.1017 57.7085,78.9695" stroke="#ffe500" stroke-width="2" /><polyline fill="none" points="34.278,90.2508 34.278,90.2508" stroke="#ff4600" stroke-width="2" /><polyline fill="none" points="42.522,85.9119 41.6542,93.2881" stroke="#7f0000" stroke-width="2" /></svg>