<?xml version="1.0" encoding="utf-8" ?>
<svg baseProfile="tiny" height="128" version="1.2" viewBox="0,0,128,128" width="128" xmlns="http://www.w3.org/2000/svg" xmlns:ev="http://www.w3.org/2001/xml-events" xmlns:xlink="http://www.w3.org/1999/xlink"><defs /><polyline fill="none" points="37.57,41.0648 37.57,26.2116" stroke="#00007f" stroke-width="2" /><polyline fill="none" points="37.57,30.1433 24.4642,17.9113 8.7372,8.7372 8.7372,18.785 11.3584,36.6962 13.5427,45.4334 16.1638,47.6177" stroke="#0080ff" stroke-width="2" /><polyline fill="none" points="47.6177,39.3174 62.471,33.6382 72.9556,31.8908 82.5666,33.6382 84.7509,37.57 86.0614,31.0171 89.5563,26.2116 94.7986,21.843 115.7679,11.3584 116.6416,20.9693 110.9625,38.4437" stroke="#7cff79" stroke-width="2" /><polyline fill="none" points="12.6689,44.1229 8.7372,61.5973 8.7372,76.4505 17.0375,87.8089 43.2491,102.6621 64.6553,107.0307 92.6143,107.9044 104.4096,101.7884 112.7099,93.9249 119.2628,77.7611 119.2628,50.6758" stroke="#ff9400" stroke-width="2" /><polyline fill="none" points="37.57,58.9761 37.57,58.9761" stroke="#7f0000" stroke-width="2" /></svg>