<?xml version="1.0" encoding="utf-8" ?>
<svg baseProfile="tiny" height="128" version="1.2" viewBox="0,0,128,128" width="128" xmlns="http://www.w3.org/2000/svg" xmlns:ev="http://www.w3.org/2001/xml-events" xmlns:xlink="http://www.w3.org/1999/xlink"><defs /><polyline fill="none" points="39.9186,59.0102 37.7492,58.5763 24.7322,66.3864 19.0915,72.0271 9.5458,88.5153 8.678,101.5322 19.0915,114.9831 36.8814,119.322 49.8983,118.0203 96.7593,98.4949 102.8339,88.9492 103.2678,79.4034 100.6644,67.6881 93.2881,45.1254 90.2508,40.3525 85.478,37.3153 74.6305,34.7119 53.3695,34.278" stroke="#00007f" stroke-width="2" /><polyline fill="none" points="11.7153,75.0644 16.4881,66.8203 17.7898,54.6712 17.3559,32.9763 21.261,36.0136 34.7119,60.3119" stroke="#0010ff" stroke-width="2" /><polyline fill="none" points="79.4034,32.9763 96.3254,16.0542 105.0034,8.678 106.3051,10.8475 108.9085,38.1831 109.3424,52.0678" stroke="#00a4ff" stroke-width="2" /><polyline fill="none" points="43.8237,72.461 37.3153,75.9322 34.7119,80.2712 33.8441,83.7424 35.1458,86.3458 37.7492,87.6475 43.8237,87.6475 52.0678,78.9695 46.861,74.6305" stroke="#3fffb7" stroke-width="2" /><polyline fill="none" points="43.8237,78.1017 43.8237,78.1017" stroke="#b7ff3f" stroke-width="2" /><polyline fill="none" points="81.139,72.0271 77.6678,72.0271 72.8949,80.2712 72.0271,85.9119 72.8949,89.3831 80.2712,88.5153 95.8915,76.8" stroke="#ffb900" stroke-width="2" /><polyline fill="none" points="79.4034,82.0068 79.4034,82.0068" stroke="#ff3000" stroke-width="2" /><polyline fill="none" points="78.9695,84.1763 78.9695,84.1763" stroke="#7f0000" stroke-width="2" /></svg>