<?xml version="1.0" encoding="utf-8" ?>
<svg baseProfile="tiny" height="128" version="1.2" viewBox="0,0,128,128" width="128" xmlns="http://www.w3.org/2000/svg" xmlns:ev="http://www.w3.org/2001/xml-events" xmlns:xlink="http://www.w3.org/1999/xlink"><defs /><polyline fill="none" points="42.9559,26.0339 49.8983,20.8271 57.7085,18.2237 64.6508,19.0915 70.2915,23.8644 87.2136,8.678 91.9864,28.6373 90.6847,29.5051" stroke="#00007f" stroke-width="2" /><polyline fill="none" points="45.1254,27.3356 42.0881,26.0339 36.0136,16.4881 30.3729,11.7153 27.7695,35.1458 29.5051,47.2949 33.4102,52.9356 39.4847,58.1424 46.4271,61.1797 60.3119,64.2169 70.7254,64.2169 75.9322,62.9153 88.9492,54.2373 91.9864,49.4644 93.2881,44.2576 93.722,36.4475 90.6847,29.5051" stroke="#0000f1" stroke-width="2" /><polyline fill="none" points="67.2542,33.4102 69.4237,31.6746 76.8,31.2407 79.4034,34.278 79.4034,36.4475" stroke="#004cff" stroke-width="2" /><polyline fill="none" points="54.6712,35.5797 48.5966,31.6746 42.9559,31.2407 39.4847,35.1458 39.0508,38.1831" stroke="#00b0ff" stroke-width="2" /><polyline fill="none" points="53.3695,39.0508 63.3492,40.7864 58.5763,48.1627 53.8034,41.2203" stroke="#29ffcd" stroke-width="2" /><polyline fill="none" points="59.4441,48.1627 63.7831,54.6712 71.5932,56.8407 78.1017,52.9356 78.9695,45.5593 76.8,41.2203" stroke="#7cff79" stroke-width="2" /><polyline fill="none" points="59.0102,47.2949 56.8407,54.2373 51.2,56.4068 43.3898,52.5017 44.2576,44.6915" stroke="#cdff29" stroke-width="2" /><polyline fill="none" points="72.461,43.8237 80.2712,41.6542 119.322,37.7492" stroke="#ffc400" stroke-width="2" /><polyline fill="none" points="72.0271,45.9932 88.0814,46.861 109.7763,50.3322" stroke="#ff6700" stroke-width="2" /><polyline fill="none" points="72.0271,48.1627 82.8746,47.7288 98.4949,51.2 107.6068,57.7085" stroke="#f10700" stroke-width="2" /><polyline fill="none" points="52.0678,47.2949 30.3729,46.4271 13.4508,50.7661 8.678,55.1051" stroke="#7f0000" stroke-width="2" /></svg>