<?xml version="1.0" encoding="utf-8" ?>
<svg baseProfile="tiny" height="128" version="1.2" viewBox="0,0,128,128" width="128" xmlns="http://www.w3.org/2000/svg" xmlns:ev="http://www.w3.org/2001/xml-events" xmlns:xlink="http://www.w3.org/1999/xlink"><defs /><polyline fill="none" points="62.0475,31.6746 44.6915,42.0881 29.0712,54.2373 20.8271,62.9153 10.4136,82.8746 8.678,100.2305 12.1492,102.4 24.7322,103.2678 50.3322,97.1932 70.7254,88.0814 83.7424,78.1017 89.3831,68.5559 95.0237,49.0305 95.4576,29.939 94.1559,26.9017 87.2136,21.261 75.9322,21.261 57.2746,27.3356" stroke="#00007f" stroke-width="2" /><polyline fill="none" points="43.3898,45.5593 36.8814,17.3559 36.8814,10.4136 39.0508,8.678 42.0881,15.6203 45.9932,41.2203" stroke="#0000de" stroke-width="2" /><polyline fill="none" points="91.1186,30.3729 92.4203,27.3356 96.7593,22.9966 119.322,12.5831 91.5525,26.9017 70.7254,44.2576 72.461,45.5593" stroke="#0028ff" stroke-width="2" /><polyline fill="none" points="51.2,56.8407 51.2,56.8407" stroke="#0080ff" stroke-width="2" /><polyline fill="none" points="64.6508,51.6339 64.6508,51.6339" stroke="#00d4ff" stroke-width="2" /><polyline fill="none" points="47.7288,59.4441 47.7288,59.4441" stroke="#36ffc0" stroke-width="2" /><polyline fill="none" points="47.7288,59.4441 48.5966,59.4441" stroke="#7cff79" stroke-width="2" /><polyline fill="none" points="64.6508,61.1797 64.6508,61.1797" stroke="#c0ff36" stroke-width="2" /><polyline fill="none" points="64.6508,61.1797 64.6508,61.1797" stroke="#ffe500" stroke-width="2" /><polyline fill="none" points="64.6508,61.1797 64.6508,61.1797" stroke="#ff9400" stroke-width="2" /><polyline fill="none" points="49.8983,76.3661 32.1085,86.7797 26.0339,87.6475 21.6949,85.478" stroke="#ff4600" stroke-width="2" /><polyline fill="none" points="48.5966,78.9695 53.3695,91.5525 57.2746,90.6847 64.6508,83.7424" stroke="#de0000" stroke-width="2" /><polyline fill="none" points="72.461,66.3864 72.461,66.3864" stroke="#7f0000" stroke-width="2" /></svg>