<?xml version="1.0" encoding="utf-8" ?>
<svg baseProfile="tiny" height="128" version="1.2" viewBox="0,0,128,128" width="128" xmlns="http://www.w3.org/2000/svg" xmlns:ev="http://www.w3.org/2001/xml-events" xmlns:xlink="http://www.w3.org/1999/xlink"><defs /><polyline fill="none" points="116.2847,38.1831 113.2475,35.1458 103.2678,33.8441 98.061,36.0136 91.5525,41.6542 90.2508,45.9932 91.5525,51.2 95.0237,55.1051 102.8339,55.9729 109.3424,55.1051 115.8508,51.2 118.8881,45.5593 118.0203,38.1831" stroke="#00007f" stroke-width="2" /><polyline fill="none" points="87.6475,46.4271 25.6,45.1254" stroke="#0000de" stroke-width="2" /><polyline fill="none" points="78.5356,47.7288 80.7051,66.8203 79.8373,67.2542" stroke="#0028ff" stroke-width="2" /><polyline fill="none" points="50.3322,47.2949 48.1627,55.539 41.6542,67.6881" stroke="#0080ff" stroke-width="2" /><polyline fill="none" points="26.0339,44.2576 17.7898,23.8644 8.678,8.678" stroke="#00d4ff" stroke-width="2" /><polyline fill="none" points="36.4475,47.2949 28.6373,54.2373 24.2983,60.3119" stroke="#36ffc0" stroke-width="2" /><polyline fill="none" points="68.5559,47.7288 72.8949,60.3119 78.1017,66.8203" stroke="#7cff79" stroke-width="2" /><polyline fill="none" points="96.3254,35.1458 95.4576,29.0712 96.3254,26.9017 100.6644,33.4102" stroke="#c0ff36" stroke-width="2" /><polyline fill="none" points="108.4746,32.9763 116.2847,26.4678 116.7186,32.9763 114.5492,36.4475" stroke="#ffe500" stroke-width="2" /><polyline fill="none" points="103.2678,45.9932 102.8339,45.9932" stroke="#ff9400" stroke-width="2" /><polyline fill="none" points="108.0407,43.8237 119.322,41.6542" stroke="#ff4600" stroke-width="2" /><polyline fill="none" points="110.6441,46.4271 117.1525,45.9932" stroke="#de0000" stroke-width="2" /><polyline fill="none" points="108.0407,51.6339 110.6441,52.9356" stroke="#7f0000" stroke-width="2" /></svg>