<?xml version="1.0" encoding="utf-8" ?>
<svg baseProfile="tiny" height="128" version="1.2" viewBox="0,0,128,128" width="128" xmlns="http://www.w3.org/2000/svg" xmlns:ev="http://www.w3.org/2001/xml-events" xmlns:xlink="http://www.w3.org/1999/xlink"><defs /><polyline fill="none" points="69.0239,49.3652 69.0239,49.3652" stroke="#00007f" stroke-width="2" /><polyline fill="none" points="68.1502,51.9863 51.5495,47.1809 41.0648,48.4915 32.7645,51.1126 24.4642,56.3549 14.8532,65.9659 8.7372,78.198 8.7372,91.7406 10.9215,98.2935 16.6007,106.157 24.0273,111.3993 32.3276,115.7679 39.3174,117.0785 58.9761,116.2048 69.4608,112.7099 79.5085,107.4676 89.9932,97.8567 95.6724,90.43 99.6041,78.6348 99.6041,71.2082 97.8567,65.0922 94.3618,59.8498 85.1877,52.8601 73.8294,48.0546 54.1706,43.686" stroke="#0028ff" stroke-width="2" /><polyline fill="none" points="19.6587,60.7235 27.0853,41.0648 30.1433,20.9693 36.6962,33.6382 40.628,45.8703 42.3754,45.8703" stroke="#00d4ff" stroke-width="2" /><polyline fill="none" points="92.6143,47.6177 100.041,32.3276 109.215,18.3481 117.9522,8.7372 119.2628,12.6689 116.2048,23.1536 100.4778,58.5392" stroke="#7cff79" stroke-width="2" /><polyline fill="none" points="33.2014,69.8976 41.5017,68.1502 41.0648,70.7713 36.2594,73.3925 34.5119,71.6451 36.2594,66.8396" stroke="#ffe500" stroke-width="2" /><polyline fill="none" points="73.3925,69.0239 80.8191,63.7816 86.0614,63.3447 86.0614,66.8396 83.8771,69.8976 78.198,74.7031 75.5768,74.7031 72.0819,70.7713 71.6451,65.0922" stroke="#ff4600" stroke-width="2" /><polyline fill="none" points="32.3276,93.0512 33.2014,99.1672 35.8225,103.099 42.8123,108.3413 52.4232,111.3993 56.3549,110.9625 62.471,107.0307 68.587,100.041 71.6451,93.4881" stroke="#7f0000" stroke-width="2" /></svg>