<?xml version="1.0" encoding="utf-8" ?>
<svg baseProfile="tiny" height="128" version="1.2" viewBox="0,0,128,128" width="128" xmlns="http://www.w3.org/2000/svg" xmlns:ev="http://www.w3.org/2001/xml-events" xmlns:xlink="http://www.w3.org/1999/xlink"><defs /><polyline fill="none" points="49.8983,21.6949 36.8814,26.4678 27.3356,35.5797 23.8644,49.0305 22.1288,61.6136 22.1288,77.2339 23.8644,85.9119 26.0339,88.5153 33.4102,91.1186 46.4271,91.9864 52.9356,94.1559 65.9525,90.2508 67.2542,67.2542 64.2169,60.3119 59.4441,59.0102 49.0305,22.9966" stroke="#00007f" stroke-width="2" /><polyline fill="none" points="49.4644,22.9966 65.9525,8.678 65.5186,18.6576 59.878,35.1458 56.8407,50.3322" stroke="#0010ff" stroke-width="2" /><polyline fill="none" points="38.1831,25.6 32.9763,16.922 31.2407,18.2237 29.0712,34.7119" stroke="#00a4ff" stroke-width="2" /><polyline fill="none" points="44.6915,63.7831 38.1831,64.2169 31.2407,56.4068 30.3729,64.2169 23.4305,76.3661 21.261,76.8" stroke="#3fffb7" stroke-width="2" /><polyline fill="none" points="32.9763,52.0678 31.6746,50.3322 32.1085,52.9356" stroke="#b7ff3f" stroke-width="2" /><polyline fill="none" points="47.7288,41.2203 47.7288,40.7864" stroke="#ffb900" stroke-width="2" /><polyline fill="none" points="30.8068,39.0508 31.2407,38.6169" stroke="#ff3000" stroke-width="2" /><polyline fill="none" points="35.1458,89.8169 36.0136,98.4949 40.7864,105.8712 45.5593,110.2102 39.0508,95.8915 26.0339,81.5729 18.6576,76.8 14.3186,76.8 12.5831,78.9695 9.9797,90.2508 8.678,108.4746 13.4508,99.7966 17.3559,96.3254 24.2983,96.7593 33.8441,102.4 36.8814,106.739 40.7864,108.4746 42.9559,107.6068 42.0881,105.0034 32.5424,100.2305 23.4305,98.061 21.6949,100.2305 19.0915,108.0407 16.922,118.0203 19.0915,119.322 28.2034,114.5492 35.1458,113.2475 39.9186,106.739 50.7661,101.9661 55.539,101.5322 61.1797,104.1356 79.4034,106.739 91.9864,106.3051 102.4,98.4949 106.739,92.8542 108.4746,82.8746 93.722,55.539 88.9492,52.0678 81.139,52.0678 70.7254,55.1051 59.0102,62.9153 39.9186,80.7051" stroke="#7f0000" stroke-width="2" /></svg>