<?xml version="1.0" encoding="utf-8" ?>
<svg baseProfile="tiny" height="128" version="1.2" viewBox="0,0,128,128" width="128" xmlns="http://www.w3.org/2000/svg" xmlns:ev="http://www.w3.org/2001/xml-events" xmlns:xlink="http://www.w3.org/1999/xlink"><defs /><polyline fill="none" points="94.1559,102.4 90.2508,104.5695 64.2169,106.3051 36.0136,105.4373 28.6373,101.9661 16.0542,89.8169 14.3186,79.8373 14.3186,67.2542 20.8271,52.9356 27.3356,46.861 37.7492,40.7864 56.8407,35.5797 89.3831,34.7119 95.0237,36.8814 105.0034,44.2576 115.4169,58.1424 118.4542,65.9525 119.322,76.3661 116.7186,82.8746 110.6441,89.3831 96.7593,99.7966 91.9864,99.7966" stroke="#00007f" stroke-width="2" /><polyline fill="none" points="20.8271,52.5017 11.7153,45.5593 9.5458,40.7864 8.678,32.9763 20.8271,32.9763 35.1458,40.3525" stroke="#0010ff" stroke-width="2" /><polyline fill="none" points="83.7424,36.0136 101.5322,18.2237 115.8508,8.678 117.5864,14.3186 117.5864,39.0508 116.2847,46.4271" stroke="#00a4ff" stroke-width="2" /><polyline fill="none" points="66.8203,78.9695 67.6881,79.8373" stroke="#3fffb7" stroke-width="2" /><polyline fill="none" points="83.7424,55.539 82.8746,57.2746" stroke="#b7ff3f" stroke-width="2" /><polyline fill="none" points="41.6542,61.1797 41.2203,65.0847 46.4271,65.9525" stroke="#ffb900" stroke-width="2" /><polyline fill="none" points="65.9525,78.9695 67.6881,82.8746 67.2542,91.9864 62.9153,95.0237 59.0102,95.8915 50.7661,93.2881" stroke="#ff3000" stroke-width="2" /><polyline fill="none" points="72.461,91.9864 74.1966,96.7593 83.3085,98.4949 94.1559,98.4949" stroke="#7f0000" stroke-width="2" /></svg>