<?xml version="1.0" encoding="utf-8" ?>
<svg baseProfile="tiny" height="128" version="1.2" viewBox="0,0,128,128" width="128" xmlns="http://www.w3.org/2000/svg" xmlns:ev="http://www.w3.org/2001/xml-events" xmlns:xlink="http://www.w3.org/1999/xlink"><defs /><polyline fill="none" points="23.8644,32.9763 39.0508,36.0136 63.7831,37.7492 83.3085,11.2814 88.0814,68.5559 87.2136,86.3458 83.7424,98.4949 75.4983,109.7763 67.2542,116.7186 57.7085,118.4542 42.9559,119.322 29.939,114.1153 19.0915,106.3051 11.2814,96.7593 9.1119,85.0441 8.678,69.4237 11.2814,55.9729" stroke="#00007f" stroke-width="2" /><polyline fill="none" points="25.6,31.6746 20.3932,22.9966 15.1864,8.678 14.3186,9.9797 9.5458,68.122" stroke="#0010ff" stroke-width="2" /><polyline fill="none" points="29.939,52.0678 27.7695,52.0678 29.0712,52.5017" stroke="#00a4ff" stroke-width="2" /><polyline fill="none" points="63.3492,53.8034 62.9153,52.0678 60.7458,52.5017 63.3492,53.3695" stroke="#3fffb7" stroke-width="2" /><polyline fill="none" points="38.1831,70.2915 55.9729,68.5559 52.9356,74.6305 42.522,87.2136" stroke="#b7ff3f" stroke-width="2" /><polyline fill="none" points="33.4102,66.3864 45.1254,85.0441" stroke="#ffb900" stroke-width="2" /><polyline fill="none" points="42.0881,86.3458 43.3898,88.5153 42.0881,103.2678 38.1831,112.3797 35.5797,112.8136 30.8068,109.3424 27.7695,101.5322 27.7695,95.0237 28.6373,95.4576" stroke="#ff3000" stroke-width="2" /><polyline fill="none" points="43.8237,81.139 45.5593,96.3254" stroke="#7f0000" stroke-width="2" /></svg>