<?xml version="1.0" encoding="utf-8" ?>
<svg baseProfile="tiny" height="128" version="1.2" viewBox="0,0,128,128" width="128" xmlns="http://www.w3.org/2000/svg" xmlns:ev="http://www.w3.org/2001/xml-events" xmlns:xlink="http://www.w3.org/1999/xlink"><defs /><polyline fill="none" points="107.6068,84.1763 102.8339,86.7797 90.6847,89.3831 73.3288,89.8169 60.7458,87.6475 34.278,78.9695 26.9017,72.8949 25.6,67.6881 25.6,62.4814 29.0712,56.8407 45.1254,42.9559 78.5356,26.4678 97.1932,18.6576 106.739,16.4881 110.6441,17.3559 114.9831,20.8271 119.322,28.2034 119.322,33.8441 115.4169,55.539 103.2678,72.461 98.4949,85.0441" stroke="#00007f" stroke-width="2" /><polyline fill="none" points="32.9763,51.2 35.1458,22.5627 40.7864,34.7119 49.4644,41.6542" stroke="#0000fe" stroke-width="2" /><polyline fill="none" points="82.4407,24.7322 82.8746,13.0169 85.0441,8.678 94.5898,19.0915" stroke="#0060ff" stroke-width="2" /><polyline fill="none" points="82.0068,53.8034 72.0271,53.3695 67.2542,55.539 66.8203,59.0102 71.1593,62.0475 76.8,59.0102 78.5356,54.2373" stroke="#00d4ff" stroke-width="2" /><polyline fill="none" points="50.3322,42.0881 35.5797,45.9932 32.9763,48.1627 32.5424,50.3322 36.8814,54.6712 41.2203,56.8407 54.6712,55.539 56.4068,53.8034 56.4068,48.5966 51.6339,44.2576" stroke="#4cffaa" stroke-width="2" /><polyline fill="none" points="82.4407,36.0136 96.3254,30.3729 99.3627,33.8441 100.2305,39.4847 98.9288,43.3898 96.3254,44.6915 81.5729,44.6915 78.9695,41.2203 80.2712,35.5797" stroke="#aaff4c" stroke-width="2" /><polyline fill="none" points="89.3831,68.5559 60.3119,70.2915 59.4441,75.0644 60.7458,77.6678 73.7627,80.2712 93.2881,81.5729 95.0237,78.9695 95.4576,73.7627 93.2881,69.4237 90.6847,68.5559" stroke="#ffe500" stroke-width="2" /><polyline fill="none" points="38.1831,91.5525 28.2034,98.4949" stroke="#ff7a00" stroke-width="2" /><polyline fill="none" points="15.6203,92.8542 25.1661,100.6644 48.1627,109.3424" stroke="#fe1200" stroke-width="2" /><polyline fill="none" points="11.2814,93.722 8.678,100.2305 8.678,104.1356" stroke="#7f0000" stroke-width="2" /></svg>