<?xml version="1.0" encoding="utf-8" ?>
<svg baseProfile="tiny" height="128" version="1.2" viewBox="0,0,128,128" width="128" xmlns="http://www.w3.org/2000/svg" xmlns:ev="http://www.w3.org/2001/xml-events" xmlns:xlink="http://www.w3.org/1999/xlink"><defs /><polyline fill="none" points="70.2915,52.5017 51.6339,47.2949 42.0881,47.2949 26.0339,50.7661 15.6203,56.8407 9.5458,71.1593 9.5458,81.5729 14.7525,98.9288 27.3356,112.3797 41.6542,119.322 57.7085,117.5864 88.0814,108.9085 92.8542,105.0034 97.1932,93.722 97.1932,84.6102 94.5898,75.0644 86.7797,66.3864 78.1017,61.6136 69.4237,57.7085 64.2169,60.3119" stroke="#00007f" stroke-width="2" /><polyline fill="none" points="8.678,48.1627 8.678,33.4102 13.8847,19.9593 21.261,10.4136 25.1661,8.678 29.0712,17.7898 42.0881,39.0508 44.6915,39.4847" stroke="#0010ff" stroke-width="2" /><polyline fill="none" points="62.9153,51.6339 65.0847,47.2949 76.3661,34.278 85.0441,28.2034 89.3831,41.2203 91.9864,60.3119 91.1186,65.9525" stroke="#00a4ff" stroke-width="2" /><polyline fill="none" points="48.1627,90.2508 70.2915,79.8373" stroke="#3fffb7" stroke-width="2" /><polyline fill="none" points="55.1051,93.722 71.1593,91.1186 80.7051,88.5153 74.6305,89.3831" stroke="#b7ff3f" stroke-width="2" /><polyline fill="none" points="45.5593,92.8542 39.0508,91.9864 28.6373,86.7797 15.1864,82.4407 19.0915,81.5729 21.6949,82.4407" stroke="#ffb900" stroke-width="2" /><polyline fill="none" points="53.3695,95.4576 37.7492,98.061 32.5424,98.061 41.2203,95.4576" stroke="#ff3000" stroke-width="2" /><polyline fill="none" points="53.3695,98.061 59.878,101.0983 82.4407,105.4373 73.7627,100.6644" stroke="#7f0000" stroke-width="2" /></svg>