<?xml version="1.0" encoding="utf-8" ?>
<svg baseProfile="tiny" height="128" version="1.2" viewBox="0,0,128,128" width="128" xmlns="http://www.w3.org/2000/svg" xmlns:ev="http://www.w3.org/2001/xml-events" xmlns:xlink="http://www.w3.org/1999/xlink"><defs /><polyline fill="none" points="73.7627,42.0881 72.0271,39.9186 63.7831,35.1458 45.5593,33.4102 42.0881,35.5797 38.1831,40.3525 34.7119,49.8983 33.8441,78.1017 36.4475,85.0441 49.0305,98.4949 55.9729,102.4 65.5186,104.5695 76.3661,104.1356 81.5729,101.9661 90.6847,94.1559 93.2881,89.8169 97.1932,78.9695 97.6271,74.1966 97.6271,64.2169 95.0237,56.4068 84.6102,43.3898 67.6881,32.9763" stroke="#00007f" stroke-width="2" /><polyline fill="none" points="36.8814,39.0508 45.1254,8.678 62.0475,36.0136" stroke="#0000e8" stroke-width="2" /><polyline fill="none" points="68.5559,38.6169 70.2915,36.0136 74.1966,14.7525 76.8,16.4881 79.8373,22.9966 88.5153,47.7288" stroke="#0038ff" stroke-width="2" /><polyline fill="none" points="57.2746,53.3695 52.5017,52.0678 51.6339,54.2373 51.6339,59.0102 56.8407,60.3119 57.2746,53.3695 55.1051,52.0678 53.8034,54.2373" stroke="#0094ff" stroke-width="2" /><polyline fill="none" points="73.7627,54.2373 71.5932,55.539 71.5932,62.9153 72.8949,65.0847 75.9322,65.5186 78.1017,63.7831 78.5356,57.2746 72.461,53.8034 72.0271,58.1424 74.6305,59.878" stroke="#0cf4ea" stroke-width="2" /><polyline fill="none" points="57.7085,80.7051 58.1424,78.1017 63.7831,71.5932 71.5932,84.1763 55.539,79.4034" stroke="#56ffa0" stroke-width="2" /><polyline fill="none" points="69.8576,75.9322 119.322,60.3119" stroke="#a0ff56" stroke-width="2" /><polyline fill="none" points="69.8576,81.5729 108.0407,77.6678" stroke="#eaff0c" stroke-width="2" /><polyline fill="none" points="70.7254,89.8169 105.0034,89.3831" stroke="#ffaa00" stroke-width="2" /><polyline fill="none" points="57.2746,76.8 18.6576,65.5186" stroke="#ff5500" stroke-width="2" /><polyline fill="none" points="47.2949,83.3085 8.678,81.139" stroke="#e80000" stroke-width="2" /><polyline fill="none" points="50.3322,91.5525 42.0881,93.2881 12.1492,105.4373" stroke="#7f0000" stroke-width="2" /></svg>