<?xml version="1.0" encoding="utf-8" ?>
<svg baseProfile="tiny" height="128" version="1.2" viewBox="0,0,128,128" width="128" xmlns="http://www.w3.org/2000/svg" xmlns:ev="http://www.w3.org/2001/xml-events" xmlns:xlink="http://www.w3.org/1999/xlink"><defs /><polyline fill="none" points="60.3119,22.5627 54.6712,22.5627 48.5966,25.1661 37.7492,33.8441 32.5424,40.7864 28.6373,48.5966 27.3356,62.4814 30.3729,69.4237 37.7492,78.5356 44.6915,84.1763 59.0102,92.8542 74.1966,95.4576 79.4034,95.0237 83.3085,92.4203 91.1186,82.4407 95.4576,71.1593 96.3254,54.2373 95.4576,47.7288 89.3831,37.7492 80.2712,30.3729 75.4983,28.6373 54.2373,26.9017" stroke="#00007f" stroke-width="2" /><polyline fill="none" points="76.8,26.4678 79.4034,20.8271 86.7797,12.1492 93.2881,9.9797 95.8915,37.3153 95.0237,43.8237" stroke="#0000de" stroke-width="2" /><polyline fill="none" points="49.8983,25.1661 29.0712,8.678 32.5424,42.9559" stroke="#0028ff" stroke-width="2" /><polyline fill="none" points="54.6712,48.1627 55.1051,49.0305" stroke="#0080ff" stroke-width="2" /><polyline fill="none" points="76.8,50.3322 75.4983,51.2" stroke="#00d4ff" stroke-width="2" /><polyline fill="none" points="66.8203,65.5186 58.5763,73.3288 55.539,75.0644 50.7661,74.6305" stroke="#36ffc0" stroke-width="2" /><polyline fill="none" points="68.122,65.9525 67.2542,72.0271 68.9898,75.4983 71.5932,77.2339 78.9695,76.8" stroke="#7cff79" stroke-width="2" /><polyline fill="none" points="75.0644,66.3864 94.5898,55.9729 110.2102,44.6915" stroke="#c0ff36" stroke-width="2" /><polyline fill="none" points="81.5729,72.461 119.322,65.0847" stroke="#ffe500" stroke-width="2" /><polyline fill="none" points="85.9119,78.5356 89.3831,82.4407 108.9085,92.4203 114.1153,98.4949" stroke="#ff9400" stroke-width="2" /><polyline fill="none" points="31.6746,66.3864 16.922,56.8407 8.678,53.3695" stroke="#ff4600" stroke-width="2" /><polyline fill="none" points="26.0339,64.2169 44.6915,70.7254" stroke="#de0000" stroke-width="2" /><polyline fill="none" points="43.3898,78.1017 16.0542,81.139 8.678,83.3085" stroke="#7f0000" stroke-width="2" /></svg>