<?xml version="1.0" encoding="utf-8" ?>
<svg baseProfile="tiny" height="128" version="1.2" viewBox="0,0,128,128" width="128" xmlns="http://www.w3.org/2000/svg" xmlns:ev="http://www.w3.org/2001/xml-events" xmlns:xlink="http://www.w3.org/1999/xlink"><defs /><polyline fill="none" points="8.678,58.5763 8.678,55.539 13.8847,45.1254 30.3729,15.6203 36.0136,8.678 42.9559,47.2949 56.4068,42.9559 67.6881,42.522 82.0068,46.4271 88.0814,49.8983 107.6068,19.5254 111.078,28.2034 119.322,58.1424" stroke="#00007f" stroke-width="2" /><polyline fill="none" points="11.7153,60.3119 13.0169,73.7627 20.3932,88.5153 28.6373,99.3627 36.4475,105.4373 44.2576,108.0407 66.3864,108.9085 85.478,101.5322 91.9864,98.061 101.9661,89.3831 105.8712,85.0441 112.3797,71.1593 115.8508,52.5017" stroke="#0000f1" stroke-width="2" /><polyline fill="none" points="68.5559,78.5356 66.3864,77.6678 62.0475,80.7051 61.1797,83.3085 65.9525,84.6102 67.6881,82.4407 63.3492,81.5729 66.3864,82.4407 68.122,82.0068 68.122,81.139" stroke="#004cff" stroke-width="2" /><polyline fill="none" points="81.139,77.6678 88.5153,77.2339" stroke="#00b0ff" stroke-width="2" /><polyline fill="none" points="79.8373,85.9119 93.2881,82.4407" stroke="#29ffcd" stroke-width="2" /><polyline fill="none" points="80.2712,90.2508 90.2508,92.8542" stroke="#7cff79" stroke-width="2" /><polyline fill="none" points="45.5593,76.8 32.9763,74.1966" stroke="#cdff29" stroke-width="2" /><polyline fill="none" points="39.0508,89.3831 31.6746,87.2136" stroke="#ffc400" stroke-width="2" /><polyline fill="none" points="49.8983,88.9492 31.2407,92.4203" stroke="#ff6700" stroke-width="2" /><polyline fill="none" points="61.6136,55.539 55.9729,55.539 53.3695,57.2746 53.3695,59.4441 55.539,61.1797 60.7458,61.1797 62.4814,59.0102 54.2373,59.878 52.9356,62.4814 58.5763,63.7831 60.7458,62.0475 59.4441,61.1797" stroke="#f10700" stroke-width="2" /><polyline fill="none" points="79.8373,64.2169 81.5729,64.6508 81.5729,62.9153 75.4983,63.3492 75.4983,66.3864 82.0068,65.5186" stroke="#7f0000" stroke-width="2" /></svg>