<?xml version="1.0" encoding="utf-8" ?>
<svg baseProfile="tiny" height="128" version="1.2" viewBox="0,0,128,128" width="128" xmlns="http://www.w3.org/2000/svg" xmlns:ev="http://www.w3.org/2001/xml-events" xmlns:xlink="http://www.w3.org/1999/xlink"><defs /><polyline fill="none" points="19.9593,32.5424 22.5627,20.8271 26.4678,14.7525 30.3729,13.0169 35.5797,20.3932 41.6542,32.5424" stroke="#00007f" stroke-width="2" /><polyline fill="none" points="46.4271,28.6373 57.2746,30.3729 82.0068,30.3729 86.3458,27.7695 96.7593,8.678 101.5322,15.6203 104.5695,31.2407" stroke="#0000fe" stroke-width="2" /><polyline fill="none" points="61.6136,72.461 58.5763,77.2339 63.3492,80.2712 66.3864,75.4983 65.0847,71.1593 61.1797,70.2915 59.878,74.6305" stroke="#0060ff" stroke-width="2" /><polyline fill="none" points="60.3119,77.6678 44.6915,72.461 36.8814,72.0271 21.261,76.3661 16.922,78.9695 8.678,86.3458" stroke="#00d4ff" stroke-width="2" /><polyline fill="none" points="49.0305,80.7051 41.2203,84.6102 32.1085,91.9864 15.6203,110.6441" stroke="#4cffaa" stroke-width="2" /><polyline fill="none" points="95.8915,73.7627 119.322,78.5356" stroke="#aaff4c" stroke-width="2" /><polyline fill="none" points="79.8373,91.1186 106.739,92.8542" stroke="#ffe500" stroke-width="2" /><polyline fill="none" points="51.2,47.2949 50.3322,52.9356 52.9356,49.4644" stroke="#ff7a00" stroke-width="2" /><polyline fill="none" points="83.3085,49.4644 88.0814,49.4644" stroke="#fe1200" stroke-width="2" /><polyline fill="none" points="24.7322,53.3695 30.3729,73.7627 36.4475,85.9119 52.5017,100.2305 56.4068,103.2678 63.7831,105.0034 75.4983,100.6644 93.722,88.5153 98.9288,82.0068 100.2305,78.1017 101.5322,55.9729" stroke="#7f0000" stroke-width="2" /></svg>