<?xml version="1.0" encoding="utf-8" ?>
<svg baseProfile="tiny" height="128" version="1.2" viewBox="0,0,128,128" width="128" xmlns="http://www.w3.org/2000/svg" xmlns:ev="http://www.w3.org/2001/xml-events" xmlns:xlink="http://www.w3.org/1999/xlink"><defs /><polyline fill="none" points="9.9797,45.1254 10.8475,39.9186 17.3559,27.7695 20.8271,28.2034 23.4305,31.6746 26.4678,42.9559 29.5051,45.1254" stroke="#00007f" stroke-width="2" /><polyline fill="none" points="52.0678,43.8237 57.2746,35.5797 64.2169,17.7898 70.7254,8.678 73.7627,25.6 76.3661,32.9763" stroke="#0000ff" stroke-width="2" /><polyline fill="none" points="25.6,50.7661 27.3356,47.2949 36.4475,42.9559 44.2576,45.1254 50.7661,49.8983" stroke="#0080ff" stroke-width="2" /><polyline fill="none" points="16.4881,48.5966 9.5458,61.6136 8.678,72.461 20.3932,113.6814 32.5424,115.8508 50.7661,112.3797 52.0678,110.6441" stroke="#15ffe1" stroke-width="2" /><polyline fill="none" points="72.8949,32.9763 78.1017,35.1458 80.2712,39.4847 80.2712,55.1051 61.6136,111.9458 58.1424,116.2847 52.9356,119.322" stroke="#7cff79" stroke-width="2" /><polyline fill="none" points="26.4678,77.2339 27.3356,73.3288 31.2407,70.7254 35.1458,70.7254" stroke="#e4ff12" stroke-width="2" /><polyline fill="none" points="42.9559,69.4237 52.9356,68.5559" stroke="#ff9400" stroke-width="2" /><polyline fill="none" points="27.3356,95.0237 35.1458,95.0237 45.1254,91.9864" stroke="#ff1d00" stroke-width="2" /><polyline fill="none" points="38.6169,82.0068 38.6169,82.0068" stroke="#7f0000" stroke-width="2" /></svg>