<?xml version="1.0" encoding="utf-8" ?>
<svg baseProfile="tiny" height="128" version="1.2" viewBox="0,0,128,128" width="128" xmlns="http://www.w3.org/2000/svg" xmlns:ev="http://www.w3.org/2001/xml-events" xmlns:xlink="http://www.w3.org/1999/xlink"><defs /><polyline fill="none" points="63.7831,26.0339 52.0678,29.0712 48.5966,31.2407 43.3898,35.1458 36.0136,44.2576 34.278,47.7288 33.4102,57.2746 34.278,62.9153 38.1831,71.1593 52.0678,80.7051 68.122,82.8746 84.1763,78.1017 91.5525,72.8949 98.061,65.5186 100.6644,59.4441 100.6644,51.6339 95.4576,38.1831 91.1186,30.3729 81.5729,25.6 69.4237,25.1661 63.3492,26.9017" stroke="#00007f" stroke-width="2" /><polyline fill="none" points="62.9153,59.0102 60.3119,55.539 62.4814,49.8983 65.9525,49.0305 70.7254,52.5017 70.7254,54.6712 67.2542,59.4441 65.0847,65.5186 57.2746,68.9898 47.2949,67.6881 43.8237,65.5186" stroke="#0000de" stroke-width="2" /><polyline fill="none" points="66.3864,60.7458 66.3864,64.2169 69.8576,67.6881 75.9322,68.5559 84.1763,65.0847 88.0814,59.878" stroke="#0028ff" stroke-width="2" /><polyline fill="none" points="78.1017,36.8814 87.6475,40.3525" stroke="#0080ff" stroke-width="2" /><polyline fill="none" points="48.1627,44.2576 51.6339,42.522" stroke="#00d4ff" stroke-width="2" /><polyline fill="none" points="82.4407,23.4305 85.9119,9.1119 89.8169,8.678 95.8915,15.6203 97.1932,22.9966 96.7593,34.278" stroke="#36ffc0" stroke-width="2" /><polyline fill="none" points="56.8407,26.0339 53.3695,23.8644 42.9559,11.7153 40.3525,10.8475 38.1831,12.1492 36.0136,19.5254 35.1458,30.8068 37.3153,39.4847" stroke="#7cff79" stroke-width="2" /><polyline fill="none" points="88.0814,53.3695 114.1153,49.0305" stroke="#c0ff36" stroke-width="2" /><polyline fill="none" points="91.1186,61.6136 106.3051,62.9153 119.322,62.4814" stroke="#ffe500" stroke-width="2" /><polyline fill="none" points="86.3458,69.8576 103.2678,76.3661 116.2847,78.1017" stroke="#ff9400" stroke-width="2" /><polyline fill="none" points="45.5593,57.7085 35.1458,55.9729 20.3932,56.4068 19.5254,57.7085" stroke="#ff4600" stroke-width="2" /><polyline fill="none" points="41.6542,57.7085 23.4305,69.4237" stroke="#de0000" stroke-width="2" /><polyline fill="none" points="43.8237,60.7458 8.678,88.9492" stroke="#7f0000" stroke-width="2" /></svg>