<?xml version="1.0" encoding="utf-8" ?>
<svg baseProfile="tiny" height="128" version="1.2" viewBox="0,0,128,128" width="128" xmlns="http://www.w3.org/2000/svg" xmlns:ev="http://www.w3.org/2001/xml-events" xmlns:xlink="http://www.w3.org/1999/xlink"><defs /><polyline fill="none" points="23.8644,46.861 17.3559,49.4644 10.4136,63.7831 8.678,85.9119 10.8475,95.4576 16.922,104.5695 24.7322,111.078 35.5797,116.7186 49.0305,119.322 63.3492,118.4542 76.3661,110.6441 86.7797,99.7966 94.5898,87.6475 99.3627,72.461 100.6644,58.5763 99.3627,47.2949 93.722,39.4847 84.6102,34.278 72.8949,30.8068 49.0305,29.939 38.1831,32.5424 20.8271,39.4847" stroke="#00007f" stroke-width="2" /><polyline fill="none" points="16.0542,59.878 13.8847,57.7085 12.1492,43.8237 9.1119,11.7153 18.6576,27.7695 25.6,35.1458" stroke="#0010ff" stroke-width="2" /><polyline fill="none" points="86.3458,22.1288 88.0814,26.0339 90.6847,25.6 108.4746,11.2814 113.2475,8.678 113.2475,11.7153 104.1356,32.5424 101.0983,42.0881" stroke="#00a4ff" stroke-width="2" /><polyline fill="none" points="88.0814,24.7322 85.0441,31.6746" stroke="#3fffb7" stroke-width="2" /><polyline fill="none" points="35.1458,49.4644 34.7119,51.2" stroke="#b7ff3f" stroke-width="2" /><polyline fill="none" points="71.1593,47.7288 70.7254,49.0305" stroke="#ffb900" stroke-width="2" /><polyline fill="none" points="43.3898,77.2339 53.8034,62.0475 59.0102,78.9695 46.4271,77.2339" stroke="#ff3000" stroke-width="2" /><polyline fill="none" points="50.3322,79.4034 28.2034,108.4746" stroke="#7f0000" stroke-width="2" /></svg>