<?xml version="1.0" encoding="utf-8" ?>
<svg baseProfile="tiny" height="128" version="1.2" viewBox="0,0,128,128" width="128" xmlns="http://www.w3.org/2000/svg" xmlns:ev="http://www.w3.org/2001/xml-events" xmlns:xlink="http://www.w3.org/1999/xlink"><defs /><polyline fill="none" points="13.8847,65.5186 21.6949,58.5763 27.7695,55.9729 43.8237,55.1051 54.2373,60.7458 68.122,65.9525 79.8373,74.1966 82.0068,80.7051 83.3085,96.7593 78.9695,109.3424 71.1593,117.1525 56.4068,119.322 39.0508,119.322 29.5051,116.2847 18.2237,107.1729 10.4136,98.9288 8.678,75.0644 13.0169,66.8203 16.4881,35.1458 21.261,9.9797 23.8644,8.678 28.2034,12.1492 32.9763,33.4102 36.8814,39.0508 39.9186,47.2949 44.6915,52.0678 51.2,48.5966 59.878,38.1831 77.2339,22.9966 91.5525,13.0169 91.9864,20.3932 91.1186,26.4678 85.0441,52.5017 81.139,60.7458" stroke="#00007f" stroke-width="2" /><polyline fill="none" points="53.3695,53.3695 59.0102,47.7288 64.6508,44.6915 66.8203,47.2949 65.9525,58.1424" stroke="#0000f1" stroke-width="2" /><polyline fill="none" points="20.8271,53.3695 22.5627,45.5593 26.0339,39.9186 29.939,50.7661" stroke="#004cff" stroke-width="2" /><polyline fill="none" points="31.6746,77.6678 31.6746,76.3661" stroke="#00b0ff" stroke-width="2" /><polyline fill="none" points="50.7661,76.3661 51.6339,76.8" stroke="#29ffcd" stroke-width="2" /><polyline fill="none" points="41.6542,94.1559 47.2949,91.1186 68.9898,85.478" stroke="#7cff79" stroke-width="2" /><polyline fill="none" points="41.6542,95.0237 67.6881,93.2881" stroke="#cdff29" stroke-width="2" /><polyline fill="none" points="42.0881,94.1559 49.8983,98.061 61.6136,99.3627 63.7831,100.2305 65.5186,102.8339" stroke="#ffc400" stroke-width="2" /><polyline fill="none" points="45.5593,93.722 16.0542,83.7424" stroke="#ff6700" stroke-width="2" /><polyline fill="none" points="42.522,87.2136 29.5051,95.4576 12.5831,97.6271" stroke="#f10700" stroke-width="2" /><polyline fill="none" points="38.6169,91.9864 38.6169,94.5898 36.4475,97.6271 29.0712,103.7017" stroke="#7f0000" stroke-width="2" /></svg>