<?xml version="1.0" encoding="utf-8" ?>
<svg baseProfile="tiny" height="128" version="1.2" viewBox="0,0,128,128" width="128" xmlns="http://www.w3.org/2000/svg" xmlns:ev="http://www.w3.org/2001/xml-events" xmlns:xlink="http://www.w3.org/1999/xlink"><defs /><polyline fill="none" points="33.8441,24.2983 30.3729,20.3932 25.6,21.261 16.4881,30.8068 13.8847,39.9186 14.7525,52.9356 18.2237,59.4441 25.1661,65.0847 33.4102,66.3864 42.0881,66.3864 49.4644,63.3492 55.1051,58.5763 59.4441,45.9932 59.878,33.8441 57.2746,29.0712 52.0678,25.1661 29.5051,23.8644 25.6,24.2983 25.1661,26.0339" stroke="#00007f" stroke-width="2" /><polyline fill="none" points="43.8237,22.9966 43.8237,18.2237 54.6712,8.678 54.6712,16.0542 59.878,32.5424" stroke="#00d4ff" stroke-width="2" /><polyline fill="none" points="18.6576,22.1288 18.2237,17.7898 13.0169,10.4136 8.678,20.3932 8.678,27.3356 13.8847,39.0508" stroke="#ffe500" stroke-width="2" /><polyline fill="none" points="40.7864,71.5932 46.4271,65.0847 51.6339,61.6136 68.9898,55.1051 101.0983,54.2373 110.6441,55.539 115.8508,59.4441 119.322,68.122 118.0203,76.3661" stroke="#7f0000" stroke-width="2" /></svg>