<?xml version="1.0" encoding="utf-8" ?>
<svg baseProfile="tiny" height="128" version="1.2" viewBox="0,0,128,128" width="128" xmlns="http://www.w3.org/2000/svg" xmlns:ev="http://www.w3.org/2001/xml-events" xmlns:xlink="http://www.w3.org/1999/xlink"><defs /><polyline fill="none" points="77.3242,27.959 67.2765,30.1433 46.3072,46.3072 36.2594,56.7918 30.5802,70.3345 37.57,84.7509 51.1126,90.43 66.4027,92.6143 89.5563,88.2457 95.6724,85.1877 102.2253,74.7031 101.3515,66.4027 96.9829,54.1706 88.6826,43.2491 76.8874,34.5119 72.9556,32.7645 63.7816,33.2014" stroke="#00007f" stroke-width="2" /><polyline fill="none" points="39.7543,48.9283 37.1331,8.7372 71.2082,30.1433" stroke="#0000ff" stroke-width="2" /><polyline fill="none" points="82.1297,38.8805 93.0512,24.901 96.1092,43.686 95.2355,51.5495" stroke="#0080ff" stroke-width="2" /><polyline fill="none" points="53.7338,66.4027 29.2696,65.529" stroke="#15ffe1" stroke-width="2" /><polyline fill="none" points="49.3652,70.7713 12.6689,79.0717" stroke="#7cff79" stroke-width="2" /><polyline fill="none" points="46.744,77.7611 8.7372,96.5461" stroke="#e4ff12" stroke-width="2" /><polyline fill="none" points="89.5563,68.1502 119.2628,64.6553" stroke="#ff9400" stroke-width="2" /><polyline fill="none" points="91.3038,72.9556 106.5939,76.4505" stroke="#ff1d00" stroke-width="2" /><polyline fill="none" points="89.5563,76.8874 107.4676,86.0614" stroke="#7f0000" stroke-width="2" /></svg>