<?xml version="1.0" encoding="utf-8" ?>
<svg baseProfile="tiny" height="128" version="1.2" viewBox="0,0,128,128" width="128" xmlns="http://www.w3.org/2000/svg" xmlns:ev="http://www.w3.org/2001/xml-events" xmlns:xlink="http://www.w3.org/1999/xlink"><defs /><polyline fill="none" points="73.7627,43.3898 62.0475,43.3898 36.4475,47.7288 26.4678,47.7288 17.7898,49.4644 12.5831,52.5017 9.9797,57.2746 8.678,65.0847 16.4881,71.5932 40.3525,82.4407 69.4237,83.7424 82.4407,82.4407 87.6475,81.139 97.6271,75.0644 102.4,67.2542 101.9661,59.4441 97.6271,55.1051 72.461,46.861 68.9898,43.8237" stroke="#00007f" stroke-width="2" /><polyline fill="none" points="91.9864,50.3322 91.1186,19.9593 81.139,19.9593 83.3085,22.1288 91.1186,26.0339 99.7966,27.7695 116.7186,26.9017 119.322,24.7322 118.4542,19.9593 104.5695,11.2814 98.4949,9.1119 90.6847,8.678 88.0814,9.9797 78.1017,22.5627" stroke="#004cff" stroke-width="2" /><polyline fill="none" points="31.2407,81.5729 30.8068,102.4 31.6746,104.1356" stroke="#29ffcd" stroke-width="2" /><polyline fill="none" points="43.8237,82.4407 44.6915,101.5322 47.7288,102.4" stroke="#cdff29" stroke-width="2" /><polyline fill="none" points="72.461,78.9695 71.1593,91.1186 71.5932,101.5322" stroke="#ff6700" stroke-width="2" /><polyline fill="none" points="88.5153,78.1017 88.9492,87.2136" stroke="#7f0000" stroke-width="2" /></svg>