<?xml version="1.0" encoding="utf-8" ?>
<svg baseProfile="tiny" height="128" version="1.2" viewBox="0,0,128,128" width="128" xmlns="http://www.w3.org/2000/svg" xmlns:ev="http://www.w3.org/2001/xml-events" xmlns:xlink="http://www.w3.org/1999/xlink"><defs /><polyline fill="none" points="22.1288,63.7831 23.4305,59.878 26.4678,57.2746 38.6169,52.9356 42.0881,52.9356 44.6915,55.1051" stroke="#00007f" stroke-width="2" /><polyline fill="none" points="24.2983,59.0102 22.9966,60.7458 17.7898,52.9356 16.0542,66.3864" stroke="#0000c8" stroke-width="2" /><polyline fill="none" points="48.1627,55.9729 56.4068,49.8983 53.8034,58.1424 55.9729,61.6136 55.9729,66.3864 50.3322,73.3288 36.4475,81.139 31.2407,82.8746 26.9017,81.139 21.6949,72.461 20.3932,65.0847" stroke="#0000ff" stroke-width="2" /><polyline fill="none" points="14.3186,41.2203 17.3559,32.1085 23.4305,23.8644 22.9966,34.7119 24.2983,35.1458 26.0339,28.2034 29.5051,24.7322 37.3153,23.8644 38.6169,26.4678 37.3153,39.4847 38.6169,39.9186" stroke="#0040ff" stroke-width="2" /><polyline fill="none" points="50.3322,26.0339 47.2949,29.5051 46.861,37.7492 47.2949,39.4847 49.4644,39.9186 53.8034,36.0136 55.1051,25.1661 46.4271,25.1661 39.9186,32.1085 39.9186,45.1254 46.861,46.4271 62.9153,41.2203" stroke="#0080ff" stroke-width="2" /><polyline fill="none" points="68.122,24.7322 66.8203,39.9186 60.3119,45.5593 56.4068,45.5593 55.1051,43.3898 53.8034,30.3729 55.1051,25.1661 57.2746,23.4305 60.3119,23.4305 65.0847,27.3356 68.122,33.8441" stroke="#00c0ff" stroke-width="2" /><polyline fill="none" points="61.1797,12.5831 61.1797,21.6949 65.5186,32.9763 66.8203,33.4102 67.2542,30.8068 67.2542,19.0915 66.8203,31.2407 68.122,35.5797 75.9322,26.9017 78.5356,19.5254 78.9695,8.678" stroke="#15ffe1" stroke-width="2" /><polyline fill="none" points="49.0305,79.8373 52.9356,86.3458 53.3695,104.1356 37.3153,108.9085 30.3729,108.9085 27.3356,103.2678 26.4678,81.139 28.2034,74.1966 33.8441,72.8949" stroke="#49ffad" stroke-width="2" /><polyline fill="none" points="27.7695,94.1559 25.6,105.4373 22.1288,114.1153" stroke="#7cff79" stroke-width="2" /><polyline fill="none" points="55.1051,86.3458 62.9153,87.2136 72.0271,91.9864" stroke="#b0ff46" stroke-width="2" /><polyline fill="none" points="27.3356,93.2881 21.6949,94.1559 8.678,91.9864" stroke="#e4ff12" stroke-width="2" /><polyline fill="none" points="56.8407,105.8712 59.4441,111.078 67.2542,119.322" stroke="#ffcf00" stroke-width="2" /><polyline fill="none" points="29.939,66.8203 32.5424,72.8949" stroke="#ff9400" stroke-width="2" /><polyline fill="none" points="42.9559,62.9153 44.2576,69.4237" stroke="#ff5900" stroke-width="2" /><polyline fill="none" points="38.1831,73.7627 40.3525,75.0644 44.6915,75.0644" stroke="#ff1d00" stroke-width="2" /><polyline fill="none" points="48.1627,74.1966 62.0475,70.7254" stroke="#c30000" stroke-width="2" /><polyline fill="none" points="45.9932,79.8373 52.0678,83.7424 64.6508,82.4407 71.1593,80.2712" stroke="#7f0000" stroke-width="2" /></svg>