<?xml version="1.0" encoding="utf-8" ?>
<svg baseProfile="tiny" height="128" version="1.2" viewBox="0,0,128,128" width="128" xmlns="http://www.w3.org/2000/svg" xmlns:ev="http://www.w3.org/2001/xml-events" xmlns:xlink="http://www.w3.org/1999/xlink"><defs /><polyline fill="none" points="46.0274,42.0822 28.0548,40.7671 21.0411,53.0411 19.2877,59.6164 19.2877,74.0822 30.6849,87.2329 33.7534,88.9863 59.1781,95.5616 79.3425,95.5616 88.9863,91.6164 93.3699,79.7808 93.8082,64.8767 92.4932,60.0548 88.1096,52.1644 79.7808,42.5205 72.3288,39.0137 61.3699,36.3836 49.5342,36.3836 41.2055,39.8904" stroke="#00007f" stroke-width="2" /><polyline fill="none" points="28.4932,41.2055 32.4384,26.7397 40.3288,8.7671 53.0411,19.2877 60.9315,28.0548 66.1918,35.9452" stroke="#0000fe" stroke-width="2" /><polyline fill="none" points="68.8219,35.0685 70.5753,32.0 95.5616,10.9589 96.4384,13.1507 96.8767,31.5616 90.3014,49.0959" stroke="#0060ff" stroke-width="2" /><polyline fill="none" points="56.5479,64.0 62.2466,63.5616" stroke="#00d4ff" stroke-width="2" /><polyline fill="none" points="64.4384,63.1233 67.5068,61.8082 84.1644,61.8082 88.1096,60.4932 105.6438,49.0959 119.2329,42.0822" stroke="#4cffaa" stroke-width="2" /><polyline fill="none" points="66.1918,60.9315 96.4384,72.7671" stroke="#aaff4c" stroke-width="2" /><polyline fill="none" points="64.8767,64.4384 78.9041,72.7671 89.4247,81.9726 91.1781,80.6575" stroke="#ffe500" stroke-width="2" /><polyline fill="none" points="53.4795,61.3699 35.5068,49.5342 18.8493,44.7123" stroke="#ff7a00" stroke-width="2" /><polyline fill="none" points="55.2329,66.6301 32.8767,61.3699 8.7671,61.3699 23.2329,66.6301" stroke="#fe1200" stroke-width="2" /><polyline fill="none" points="49.0959,67.0685 26.7397,85.9178 21.4795,88.9863 14.9041,89.863" stroke="#7f0000" stroke-width="2" /></svg>