<?xml version="1.0" encoding="utf-8" ?>
<svg baseProfile="tiny" height="128" version="1.2" viewBox="0,0,128,128" width="128" xmlns="http://www.w3.org/2000/svg" xmlns:ev="http://www.w3.org/2001/xml-events" xmlns:xlink="http://www.w3.org/1999/xlink"><defs /><polyline fill="none" points="25.1661,30.8068 16.4881,37.3153 13.0169,43.3898 19.9593,52.0678 28.2034,55.539 35.1458,52.9356 45.1254,46.4271 48.5966,43.8237 49.4644,41.2203 46.861,36.0136 42.522,31.6746 36.0136,29.5051 32.9763,29.0712 31.6746,30.3729" stroke="#00007f" stroke-width="2" /><polyline fill="none" points="38.1831,26.0339 43.8237,21.261 53.8034,16.0542 49.4644,34.7119" stroke="#0000d5" stroke-width="2" /><polyline fill="none" points="21.6949,31.6746 9.5458,13.8847 8.678,16.4881" stroke="#001cff" stroke-width="2" /><polyline fill="none" points="8.678,19.9593 8.678,19.9593" stroke="#006cff" stroke-width="2" /><polyline fill="none" points="8.678,23.4305 12.1492,35.5797 14.7525,37.3153" stroke="#00b8ff" stroke-width="2" /><polyline fill="none" points="50.7661,43.8237 63.3492,39.9186 73.7627,39.9186 96.3254,47.7288 96.3254,49.8983 93.722,53.3695 82.8746,57.2746 54.2373,54.6712 40.7864,52.0678" stroke="#1cffda" stroke-width="2" /><polyline fill="none" points="97.1932,50.7661 106.739,42.522 108.4746,38.6169 106.739,24.2983 102.8339,12.5831 103.2678,9.9797 106.3051,8.678 114.1153,8.678 118.0203,10.4136" stroke="#5cff9a" stroke-width="2" /><polyline fill="none" points="119.322,32.1085 117.5864,49.4644 109.3424,55.1051 100.2305,58.1424 94.5898,58.1424 89.3831,56.4068" stroke="#9aff5c" stroke-width="2" /><polyline fill="none" points="119.322,11.7153 119.322,42.0881" stroke="#daff1c" stroke-width="2" /><polyline fill="none" points="49.8983,52.5017 49.8983,52.5017" stroke="#ffcb00" stroke-width="2" /><polyline fill="none" points="49.8983,53.3695 43.8237,78.1017 39.0508,83.3085 43.3898,85.478 48.1627,84.1763 52.5017,81.139 53.8034,71.1593 52.9356,53.3695" stroke="#ff8500" stroke-width="2" /><polyline fill="none" points="67.6881,59.878 62.0475,70.2915 59.878,82.4407 61.6136,87.2136 65.0847,88.9492 67.6881,88.5153 69.8576,85.478 74.1966,62.0475 75.0644,42.9559" stroke="#ff3b00" stroke-width="2" /><polyline fill="none" points="68.9898,55.9729 68.9898,72.461" stroke="#d50000" stroke-width="2" /><polyline fill="none" points="86.3458,52.5017 76.8,88.0814 78.9695,89.3831 85.478,87.2136 90.6847,81.5729 89.8169,51.2" stroke="#7f0000" stroke-width="2" /></svg>