<?xml version="1.0" encoding="utf-8" ?>
<svg baseProfile="tiny" height="128" version="1.2" viewBox="0,0,128,128" width="128" xmlns="http://www.w3.org/2000/svg" xmlns:ev="http://www.w3.org/2001/xml-events" xmlns:xlink="http://www.w3.org/1999/xlink"><defs /><polyline fill="none" points="36.5714,53.1156 33.0884,53.1156 31.3469,54.8571 30.9116,67.483 32.6531,81.415 37.8776,100.1361 39.1837,103.619 43.9728,108.8435 50.5034,111.0204 56.1633,111.0204 60.0816,108.8435 67.0476,101.4422 77.0612,82.2857 81.8503,66.6122 81.8503,59.2109 80.5442,54.4218 78.8027,52.2449 70.5306,48.3265 59.2109,48.3265 22.2041,56.1633" stroke="#00007f" stroke-width="2" /><polyline fill="none" points="25.6871,72.2721 23.9456,74.449 20.4626,72.2721 16.5442,64.4354 14.8027,51.3741 16.5442,31.3469 19.5918,31.7823 37.0068,45.7143 48.7619,51.3741" stroke="#0010ff" stroke-width="2" /><polyline fill="none" points="63.5646,46.585 64.4354,39.1837 71.8367,23.0748 78.3673,14.3673 86.6395,8.7075 91.4286,8.7075 95.3469,14.8027 94.9116,34.3946" stroke="#00a4ff" stroke-width="2" /><polyline fill="none" points="39.1837,71.4014 49.1973,68.7891" stroke="#3fffb7" stroke-width="2" /><polyline fill="none" points="57.4694,67.483 74.0136,62.6939" stroke="#b7ff3f" stroke-width="2" /><polyline fill="none" points="37.0068,87.9456 23.5102,99.2653 8.7075,108.8435" stroke="#ffb900" stroke-width="2" /><polyline fill="none" points="43.102,96.6531 20.898,113.1973 15.6735,119.2925" stroke="#ff3000" stroke-width="2" /><polyline fill="none" points="37.8776,87.0748 35.2653,87.9456 20.0272,101.0068 9.1429,106.6667" stroke="#7f0000" stroke-width="2" /></svg>