<?xml version="1.0" encoding="utf-8" ?>
<svg baseProfile="tiny" height="128" version="1.2" viewBox="0,0,128,128" width="128" xmlns="http://www.w3.org/2000/svg" xmlns:ev="http://www.w3.org/2001/xml-events" xmlns:xlink="http://www.w3.org/1999/xlink"><defs /><polyline fill="none" points="84.1763,37.3153 82.4407,33.8441 78.5356,31.6746 67.2542,29.0712 52.9356,30.3729 42.522,36.4475 37.7492,43.8237 38.1831,54.2373 40.7864,62.9153 47.2949,71.1593 59.878,76.3661 72.8949,76.8 86.3458,72.461 92.8542,68.122 96.7593,63.3492 98.4949,57.2746 98.4949,51.2 97.1932,47.7288 85.478,32.1085 78.5356,27.7695 72.8949,26.9017" stroke="#00007f" stroke-width="2" /><polyline fill="none" points="38.1831,40.7864 37.3153,32.1085 41.6542,11.2814 43.8237,11.7153 45.9932,15.1864 53.3695,30.3729" stroke="#0000fe" stroke-width="2" /><polyline fill="none" points="79.8373,35.1458 91.1186,8.678 93.2881,11.7153 94.5898,31.2407 97.1932,44.2576" stroke="#0060ff" stroke-width="2" /><polyline fill="none" points="74.1966,57.7085 105.0034,56.4068" stroke="#00d4ff" stroke-width="2" /><polyline fill="none" points="74.1966,64.6508 119.322,63.7831" stroke="#4cffaa" stroke-width="2" /><polyline fill="none" points="50.3322,54.2373 28.6373,54.2373 13.0169,57.2746 8.678,59.4441" stroke="#aaff4c" stroke-width="2" /><polyline fill="none" points="51.6339,62.9153 38.6169,62.4814 21.261,65.9525" stroke="#ffe500" stroke-width="2" /><polyline fill="none" points="57.2746,44.2576 58.5763,41.6542" stroke="#ff7a00" stroke-width="2" /><polyline fill="none" points="78.1017,44.6915 72.0271,43.3898" stroke="#fe1200" stroke-width="2" /><polyline fill="none" points="54.6712,62.9153 57.2746,65.0847 63.7831,65.5186" stroke="#7f0000" stroke-width="2" /></svg>