<?xml version="1.0" encoding="utf-8" ?>
<svg baseProfile="tiny" height="128" version="1.2" viewBox="0,0,128,128" width="128" xmlns="http://www.w3.org/2000/svg" xmlns:ev="http://www.w3.org/2001/xml-events" xmlns:xlink="http://www.w3.org/1999/xlink"><defs /><polyline fill="none" points="49.8983,49.4644 32.5424,41.6542 21.6949,34.278 10.8475,23.4305 8.678,23.8644 9.1119,33.8441 15.6203,42.522 36.4475,52.5017 46.861,53.3695" stroke="#00007f" stroke-width="2" /><polyline fill="none" points="51.2,49.4644 108.4746,48.1627 111.078,49.0305 112.8136,55.9729 108.9085,64.6508 103.7017,68.5559 99.7966,68.5559 71.5932,64.6508 50.3322,58.5763 42.0881,53.3695 42.0881,64.6508 39.9186,75.4983 45.5593,78.1017 50.3322,78.5356 51.6339,75.0644" stroke="#0000c3" stroke-width="2" /><polyline fill="none" points="50.7661,59.878 52.0678,69.8576 54.2373,71.5932 60.7458,72.0271" stroke="#0000ff" stroke-width="2" /><polyline fill="none" points="85.0441,67.2542 87.2136,77.6678 90.2508,78.1017 94.1559,76.3661" stroke="#0034ff" stroke-width="2" /><polyline fill="none" points="100.2305,69.8576 105.0034,80.2712 110.2102,80.7051 113.6814,78.9695" stroke="#0070ff" stroke-width="2" /><polyline fill="none" points="108.4746,47.7288 96.3254,45.1254 85.9119,38.1831 83.3085,33.8441 82.8746,24.2983 85.9119,19.5254 91.5525,19.0915 105.0034,21.6949 114.5492,26.4678 118.0203,33.4102 115.4169,42.0881 110.6441,46.4271 104.5695,48.5966 103.7017,43.3898" stroke="#00acff" stroke-width="2" /><polyline fill="none" points="109.7763,22.9966 113.6814,17.7898 119.322,13.0169 118.0203,25.6 115.8508,25.6 112.3797,22.5627" stroke="#02e8f4" stroke-width="2" /><polyline fill="none" points="91.9864,16.4881 81.139,8.678 78.9695,8.678 78.5356,12.5831 81.5729,18.6576 83.3085,20.8271 88.9492,21.6949" stroke="#32ffc3" stroke-width="2" /><polyline fill="none" points="100.2305,34.7119 104.1356,36.0136 100.6644,36.4475 100.2305,35.1458 102.8339,36.0136" stroke="#63ff93" stroke-width="2" /><polyline fill="none" points="103.7017,35.5797 114.1153,31.6746" stroke="#93ff63" stroke-width="2" /><polyline fill="none" points="105.8712,35.1458 116.2847,39.9186" stroke="#c3ff32" stroke-width="2" /><polyline fill="none" points="104.5695,36.8814 112.3797,37.7492 116.7186,40.7864" stroke="#f4f802" stroke-width="2" /><polyline fill="none" points="98.9288,34.278 89.8169,30.3729" stroke="#ffc000" stroke-width="2" /><polyline fill="none" points="96.7593,35.1458 88.0814,36.0136" stroke="#ff8900" stroke-width="2" /><polyline fill="none" points="98.4949,35.5797 88.0814,39.4847 86.7797,38.1831" stroke="#ff5100" stroke-width="2" /><polyline fill="none" points="95.4576,24.7322 97.1932,26.0339" stroke="#ff1a00" stroke-width="2" /><polyline fill="none" points="105.0034,25.1661 104.5695,29.0712" stroke="#c30000" stroke-width="2" /><polyline fill="none" points="100.6644,39.9186 103.2678,39.9186" stroke="#7f0000" stroke-width="2" /></svg>