<?xml version="1.0" encoding="utf-8" ?>
<svg baseProfile="tiny" height="128" version="1.2" viewBox="0,0,128,128" width="128" xmlns="http://www.w3.org/2000/svg" xmlns:ev="http://www.w3.org/2001/xml-events" xmlns:xlink="http://www.w3.org/1999/xlink"><defs /><polyline fill="none" points="69.4237,31.6746 61.1797,31.6746 49.4644,34.278 29.5051,45.5593 23.4305,51.6339 17.3559,63.3492 15.1864,76.3661 19.0915,91.1186 27.3356,102.8339 41.6542,109.7763 52.9356,110.2102 65.0847,108.0407 82.4407,100.2305 91.1186,91.1186 96.7593,81.139 99.3627,72.8949 100.2305,62.4814 98.4949,52.0678 94.5898,44.2576 91.5525,40.7864 85.0441,36.0136 75.9322,33.8441 62.4814,33.8441" stroke="#00007f" stroke-width="2" /><polyline fill="none" points="14.3186,56.4068 12.5831,49.4644 12.1492,29.5051 16.0542,16.4881 20.3932,18.6576 28.2034,25.1661 41.6542,39.0508" stroke="#0000fe" stroke-width="2" /><polyline fill="none" points="86.3458,34.278 101.9661,17.3559 113.2475,8.678 117.1525,21.261 117.5864,30.3729 113.6814,49.8983 110.2102,54.6712" stroke="#0060ff" stroke-width="2" /><polyline fill="none" points="46.4271,56.8407 45.5593,60.3119 48.5966,62.0475 49.8983,60.3119" stroke="#00d4ff" stroke-width="2" /><polyline fill="none" points="78.1017,52.5017 73.7627,56.8407" stroke="#4cffaa" stroke-width="2" /><polyline fill="none" points="38.1831,85.9119 8.678,87.6475" stroke="#aaff4c" stroke-width="2" /><polyline fill="none" points="46.861,92.4203 9.1119,109.3424" stroke="#ffe500" stroke-width="2" /><polyline fill="none" points="51.6339,98.061 30.3729,110.2102" stroke="#ff7a00" stroke-width="2" /><polyline fill="none" points="81.139,75.4983 119.322,68.122" stroke="#fe1200" stroke-width="2" /><polyline fill="none" points="89.3831,81.5729 117.5864,83.7424" stroke="#7f0000" stroke-width="2" /></svg>