<?xml version="1.0" encoding="utf-8" ?>
<svg baseProfile="tiny" height="128" version="1.2" viewBox="0,0,128,128" width="128" xmlns="http://www.w3.org/2000/svg" xmlns:ev="http://www.w3.org/2001/xml-events" xmlns:xlink="http://www.w3.org/1999/xlink"><defs /><polyline fill="none" points="113.6814,41.6542 104.5695,35.1458 87.6475,34.278 80.7051,37.3153 74.1966,42.9559 70.2915,55.9729 71.1593,66.3864 77.6678,73.3288 85.0441,76.8 89.8169,78.1017 103.2678,76.8 113.6814,68.5559 116.7186,63.7831 118.4542,45.9932 116.2847,42.9559 104.1356,38.6169" stroke="#00007f" stroke-width="2" /><polyline fill="none" points="67.2542,40.7864 72.8949,24.2983 78.1017,13.8847 80.2712,14.3186 85.478,23.8644 91.1186,38.1831" stroke="#0010ff" stroke-width="2" /><polyline fill="none" points="101.0983,33.4102 110.2102,8.678 114.9831,20.3932 119.322,41.2203" stroke="#00a4ff" stroke-width="2" /><polyline fill="none" points="102.8339,46.861 102.8339,46.861" stroke="#3fffb7" stroke-width="2" /><polyline fill="none" points="80.7051,45.5593 80.7051,50.7661" stroke="#b7ff3f" stroke-width="2" /><polyline fill="none" points="101.9661,41.6542 101.5322,47.2949" stroke="#ffb900" stroke-width="2" /><polyline fill="none" points="80.7051,60.3119 86.3458,64.6508 89.8169,65.5186 92.4203,65.5186 96.3254,61.6136" stroke="#ff3000" stroke-width="2" /><polyline fill="none" points="78.1017,73.3288 75.9322,71.1593 69.4237,69.4237 43.8237,68.122 33.4102,69.4237 17.3559,74.6305 13.4508,76.8 9.1119,81.5729 8.678,90.2508 11.2814,95.0237 19.0915,100.6644 28.2034,104.1356 35.5797,104.5695 64.6508,104.5695 69.8576,103.2678 80.7051,97.6271 86.7797,92.4203 91.5525,81.139 88.9492,80.2712" stroke="#7f0000" stroke-width="2" /></svg>