<?xml version="1.0" encoding="utf-8" ?>
<svg baseProfile="tiny" height="128" version="1.2" viewBox="0,0,128,128" width="128" xmlns="http://www.w3.org/2000/svg" xmlns:ev="http://www.w3.org/2001/xml-events" xmlns:xlink="http://www.w3.org/1999/xlink"><defs /><polyline fill="none" points="72.461,10.4136 66.3864,11.2814 54.2373,16.4881 43.8237,23.8644 37.3153,31.2407 33.4102,43.8237 34.278,50.7661 36.8814,56.8407 40.7864,60.3119 50.3322,64.2169 62.0475,66.3864 71.1593,65.9525 78.1017,63.7831 85.9119,58.5763 96.3254,44.6915" stroke="#00007f" stroke-width="2" /><polyline fill="none" points="70.7254,12.5831 74.6305,11.7153 85.9119,16.0542 92.8542,22.9966 95.8915,29.0712 95.4576,36.4475 91.9864,42.522 84.1763,46.4271 77.6678,47.2949" stroke="#0000e8" stroke-width="2" /><polyline fill="none" points="49.4644,28.6373 42.9559,34.278 42.9559,38.6169 45.9932,42.522 50.7661,42.0881 55.539,36.4475 56.8407,30.8068 54.6712,29.939 53.3695,31.6746" stroke="#0038ff" stroke-width="2" /><polyline fill="none" points="74.6305,28.6373 67.6881,31.6746 65.9525,39.4847 67.6881,41.6542 72.461,40.7864 77.2339,35.1458 78.1017,32.5424 75.0644,32.9763" stroke="#0094ff" stroke-width="2" /><polyline fill="none" points="51.6339,46.861 52.9356,53.8034 56.8407,54.6712 59.4441,53.3695 62.4814,49.0305 61.1797,50.7661 61.1797,53.3695 63.3492,55.539 65.9525,55.9729 71.1593,52.5017 72.461,49.4644 72.0271,44.2576" stroke="#0cf4ea" stroke-width="2" /><polyline fill="none" points="92.4203,15.1864 98.4949,10.8475 105.4373,8.678 103.2678,16.4881 99.3627,22.5627" stroke="#56ffa0" stroke-width="2" /><polyline fill="none" points="53.3695,16.0542 37.3153,9.5458 37.7492,20.3932 41.6542,27.7695" stroke="#a0ff56" stroke-width="2" /><polyline fill="none" points="83.7424,49.8983 84.6102,45.1254 94.1559,42.9559 110.6441,43.8237 119.322,47.2949" stroke="#eaff0c" stroke-width="2" /><polyline fill="none" points="79.8373,49.4644 87.6475,47.7288 92.8542,48.5966 103.7017,52.0678 111.9458,56.8407" stroke="#ffaa00" stroke-width="2" /><polyline fill="none" points="77.2339,52.5017 90.6847,56.4068 98.9288,60.7458" stroke="#ff5500" stroke-width="2" /><polyline fill="none" points="37.3153,45.9932 30.8068,44.6915 25.6,45.9932 16.922,51.2 8.678,59.0102" stroke="#e80000" stroke-width="2" /><polyline fill="none" points="39.9186,48.1627 30.3729,51.6339 19.5254,62.0475 16.0542,66.8203" stroke="#7f0000" stroke-width="2" /></svg>