<?xml version="1.0" encoding="utf-8" ?>
<svg baseProfile="tiny" height="128" version="1.2" viewBox="0,0,128,128" width="128" xmlns="http://www.w3.org/2000/svg" xmlns:ev="http://www.w3.org/2001/xml-events" xmlns:xlink="http://www.w3.org/1999/xlink"><defs /><polyline fill="none" points="8.678,111.5119 9.1119,82.0068 13.8847,51.6339 15.6203,24.7322 18.2237,8.678 20.8271,9.9797 26.0339,39.0508 30.3729,52.5017 32.1085,55.1051 34.278,55.9729 40.3525,55.539 45.5593,51.2 64.6508,19.0915 65.5186,22.1288 65.5186,96.7593 67.2542,118.0203 64.2169,119.322 48.5966,114.1153 11.2814,112.3797" stroke="#00007f" stroke-width="2" /><polyline fill="none" points="18.2237,68.122 21.261,66.8203 25.6,66.8203 27.3356,69.4237 27.3356,75.0644 26.9017,77.2339 24.2983,78.9695 18.2237,78.1017 17.7898,72.8949 21.6949,66.8203" stroke="#0000e8" stroke-width="2" /><polyline fill="none" points="21.6949,72.8949 22.9966,72.8949" stroke="#0038ff" stroke-width="2" /><polyline fill="none" points="35.5797,66.8203 41.2203,65.0847 42.9559,67.2542 42.522,74.1966 32.1085,77.6678 36.4475,64.6508" stroke="#0094ff" stroke-width="2" /><polyline fill="none" points="39.9186,68.122 39.0508,68.9898" stroke="#0cf4ea" stroke-width="2" /><polyline fill="none" points="29.0712,83.3085 33.8441,82.0068" stroke="#56ffa0" stroke-width="2" /><polyline fill="none" points="18.2237,94.1559 52.5017,95.0237" stroke="#a0ff56" stroke-width="2" /><polyline fill="none" points="39.4847,79.8373 42.9559,79.4034" stroke="#eaff0c" stroke-width="2" /><polyline fill="none" points="40.7864,82.8746 53.3695,82.8746" stroke="#ffaa00" stroke-width="2" /><polyline fill="none" points="39.0508,85.478 55.9729,87.2136" stroke="#ff5500" stroke-width="2" /><polyline fill="none" points="40.3525,78.9695 45.9932,77.6678 51.2,75.0644" stroke="#e80000" stroke-width="2" /><polyline fill="none" points="28.6373,82.4407 9.9797,81.139" stroke="#7f0000" stroke-width="2" /></svg>