<?xml version="1.0" encoding="utf-8" ?>
<svg baseProfile="tiny" height="128" version="1.2" viewBox="0,0,128,128" width="128" xmlns="http://www.w3.org/2000/svg" xmlns:ev="http://www.w3.org/2001/xml-events" xmlns:xlink="http://www.w3.org/1999/xlink"><defs /><polyline fill="none" points="13.4508,31.2407 13.8847,22.5627 22.5627,8.678 27.7695,24.2983 30.3729,27.7695 35.1458,14.7525 38.1831,9.5458 41.6542,16.0542 44.2576,28.2034 45.9932,29.5051 107.6068,36.8814 118.8881,41.2203 119.322,47.2949 115.8508,54.2373 108.9085,59.4441 97.6271,62.9153 75.9322,60.7458 51.6339,53.3695 49.8983,55.539 46.861,68.9898 46.4271,82.8746 45.5593,84.1763 44.2576,82.8746 43.3898,79.4034" stroke="#00007f" stroke-width="2" /><polyline fill="none" points="68.5559,58.1424 65.5186,72.8949" stroke="#0080ff" stroke-width="2" /><polyline fill="none" points="90.6847,64.6508 90.2508,80.2712 88.5153,89.3831 88.9492,80.7051" stroke="#7cff79" stroke-width="2" /><polyline fill="none" points="106.739,58.5763 106.739,69.4237" stroke="#ff9400" stroke-width="2" /><polyline fill="none" points="8.678,29.5051 8.678,29.5051" stroke="#7f0000" stroke-width="2" /></svg>