<?xml version="1.0" encoding="utf-8" ?>
<svg baseProfile="tiny" height="128" version="1.2" viewBox="0,0,128,128" width="128" xmlns="http://www.w3.org/2000/svg" xmlns:ev="http://www.w3.org/2001/xml-events" xmlns:xlink="http://www.w3.org/1999/xlink"><defs /><polyline fill="none" points="33.0035,40.5854 30.7735,49.0592 31.2195,53.5192 33.4495,58.4251 37.0174,62.439 42.3693,65.561 51.2892,68.2369 63.777,68.2369 74.9268,61.993 85.1847,49.9512 88.3066,41.4774 85.6307,29.4355 77.6028,23.1916 71.3589,21.4077 63.331,22.7456 41.9233,35.6794 36.1254,40.1394 34.7875,43.2613 31.2195,44.1533 32.5575,28.0976 35.6794,25.8676 40.1394,25.8676 49.9512,29.8815 61.547,20.9617 66.453,14.2718 74.4808,10.7038 77.6028,11.1498 78.9408,13.8258 78.9408,21.4077" stroke="#00007f" stroke-width="2" /><polyline fill="none" points="50.3972,42.3693 8.9199,65.115" stroke="#004cff" stroke-width="2" /><polyline fill="none" points="40.5854,55.3031 27.2056,80.2787" stroke="#29ffcd" stroke-width="2" /><polyline fill="none" points="54.8571,53.9652 52.6272,67.7909 52.6272,76.2648" stroke="#cdff29" stroke-width="2" /><polyline fill="none" points="78.4948,29.4355 105.2544,8.9199" stroke="#ff6700" stroke-width="2" /><polyline fill="none" points="79.3868,35.6794 108.3763,24.9756 119.0801,22.7456" stroke="#7f0000" stroke-width="2" /></svg>