<?xml version="1.0" encoding="utf-8" ?>
<svg baseProfile="tiny" height="128" version="1.2" viewBox="0,0,128,128" width="128" xmlns="http://www.w3.org/2000/svg" xmlns:ev="http://www.w3.org/2001/xml-events" xmlns:xlink="http://www.w3.org/1999/xlink"><defs /><polyline fill="none" points="25.3379,115.3311 18.785,111.8362 13.9795,106.5939 10.0478,94.3618 10.0478,79.0717 19.2218,65.529 44.5597,46.3072 56.3549,40.1911 68.1502,37.57 74.7031,37.57 84.314,39.7543 91.3038,43.2491 98.2935,49.802 103.099,58.1024 104.4096,62.0341 104.8464,74.7031 104.4096,78.6348 96.1092,94.3618 86.4983,105.2833 72.9556,114.4573 65.0922,118.3891 58.1024,119.2628 20.9693,115.3311 17.0375,110.0887" stroke="#00007f" stroke-width="2" /><polyline fill="none" points="10.0478,72.0819 8.7372,58.1024 10.9215,42.3754 16.6007,20.0956 21.4061,8.7372 24.4642,8.7372 28.8328,14.8532 41.0648,45.4334" stroke="#004cff" stroke-width="2" /><polyline fill="none" points="86.0614,40.628 105.7201,23.1536 113.5836,17.9113 116.2048,17.4744 117.5154,20.9693 117.0785,34.0751 106.5939,58.1024" stroke="#29ffcd" stroke-width="2" /><polyline fill="none" points="42.3754,80.3823 40.1911,82.1297 42.3754,87.8089 51.5495,91.3038 58.1024,89.9932 63.3447,83.8771 67.2765,91.3038 72.9556,91.7406 77.3242,86.9352 79.5085,81.6928" stroke="#cdff29" stroke-width="2" /><polyline fill="none" points="46.3072,56.3549 41.0648,58.1024 40.628,62.0341 42.3754,63.7816 48.0546,64.2184 52.8601,58.1024 52.4232,54.1706" stroke="#ff6700" stroke-width="2" /><polyline fill="none" points="84.314,53.7338 76.0137,60.2867 75.1399,65.0922 76.0137,66.8396 83.8771,66.8396 89.5563,63.3447 90.43,58.5392 86.4983,56.3549 78.198,55.0444" stroke="#7f0000" stroke-width="2" /></svg>