<?xml version="1.0" encoding="utf-8" ?>
<svg baseProfile="tiny" height="128" version="1.2" viewBox="0,0,128,128" width="128" xmlns="http://www.w3.org/2000/svg" xmlns:ev="http://www.w3.org/2001/xml-events" xmlns:xlink="http://www.w3.org/1999/xlink"><defs /><polyline fill="none" points="77.6678,39.4847 69.8576,37.7492 54.2373,37.7492 45.9932,38.1831 39.9186,39.9186 26.0339,46.4271 12.1492,60.3119 8.678,72.8949 8.678,78.5356 11.2814,87.2136 19.5254,95.0237 36.4475,102.8339 48.5966,105.4373 55.1051,105.4373 70.2915,101.5322 105.0034,88.0814 109.3424,82.4407 111.5119,72.0271 112.8136,56.8407 110.6441,50.7661 105.8712,45.5593 77.6678,38.6169 62.9153,38.6169" stroke="#00007f" stroke-width="2" /><polyline fill="none" points="17.7898,50.7661 22.1288,27.3356 28.6373,8.678 31.2407,9.1119 33.4102,12.1492 48.5966,36.8814 52.5017,36.8814" stroke="#0080ff" stroke-width="2" /><polyline fill="none" points="88.0814,42.0881 95.8915,37.7492 118.0203,20.3932 119.322,22.5627 115.4169,38.6169 114.5492,51.6339" stroke="#7cff79" stroke-width="2" /><polyline fill="none" points="43.8237,56.8407 43.3898,59.0102 45.1254,59.4441 47.2949,58.5763 48.5966,55.1051 46.861,54.6712 45.1254,56.8407" stroke="#ff9400" stroke-width="2" /><polyline fill="none" points="82.4407,59.4441 80.2712,61.1797 79.4034,65.0847 86.3458,65.0847 85.478,61.1797 76.8,62.9153" stroke="#7f0000" stroke-width="2" /></svg>