<?xml version="1.0" encoding="utf-8" ?>
<svg baseProfile="tiny" height="128" version="1.2" viewBox="0,0,128,128" width="128" xmlns="http://www.w3.org/2000/svg" xmlns:ev="http://www.w3.org/2001/xml-events" xmlns:xlink="http://www.w3.org/1999/xlink"><defs /><polyline fill="none" points="32.1085,10.8475 22.9966,11.7153 13.0169,18.2237 9.1119,26.4678 8.678,38.6169 10.4136,42.0881 16.922,45.9932 35.5797,45.9932 42.9559,42.522 47.2949,34.278 47.2949,24.7322 44.6915,17.3559 38.6169,10.4136 32.9763,8.678" stroke="#00007f" stroke-width="2" /><polyline fill="none" points="44.2576,12.1492 47.2949,10.4136 82.0068,10.4136 88.0814,13.4508 91.5525,17.7898 94.5898,26.4678 94.5898,34.7119 73.7627,36.8814 58.1424,40.7864" stroke="#0000d1" stroke-width="2" /><polyline fill="none" points="52.5017,40.7864 52.9356,70.2915" stroke="#0010ff" stroke-width="2" /><polyline fill="none" points="72.461,33.4102 71.5932,52.5017 75.0644,67.2542" stroke="#0058ff" stroke-width="2" /><polyline fill="none" points="89.8169,26.4678 88.9492,32.5424 92.8542,42.0881 99.7966,52.0678 106.739,59.0102" stroke="#00a4ff" stroke-width="2" /><polyline fill="none" points="100.2305,27.7695 108.9085,35.5797 119.322,40.7864" stroke="#05ecf1" stroke-width="2" /><polyline fill="none" points="18.6576,26.4678 9.1119,27.7695" stroke="#3fffb7" stroke-width="2" /><polyline fill="none" points="31.6746,26.0339 41.6542,29.5051" stroke="#7cff79" stroke-width="2" /><polyline fill="none" points="39.9186,31.6746 45.1254,35.5797" stroke="#b7ff3f" stroke-width="2" /><polyline fill="none" points="28.6373,30.3729 28.6373,30.3729" stroke="#f1fc05" stroke-width="2" /><polyline fill="none" points="30.3729,32.9763 26.4678,38.6169" stroke="#ffb900" stroke-width="2" /><polyline fill="none" points="36.4475,34.7119 43.3898,39.9186" stroke="#ff7300" stroke-width="2" /><polyline fill="none" points="24.2983,14.3186 24.2983,14.3186" stroke="#ff3000" stroke-width="2" /><polyline fill="none" points="35.5797,17.7898 35.5797,17.7898" stroke="#d10000" stroke-width="2" /><polyline fill="none" points="28.2034,36.8814 21.6949,42.0881 18.6576,43.3898" stroke="#7f0000" stroke-width="2" /></svg>