<?xml version="1.0" encoding="utf-8" ?>
<svg baseProfile="tiny" height="128" version="1.2" viewBox="0,0,128,128" width="128" xmlns="http://www.w3.org/2000/svg" xmlns:ev="http://www.w3.org/2001/xml-events" xmlns:xlink="http://www.w3.org/1999/xlink"><defs /><polyline fill="none" points="42.0881,13.4508 62.4814,13.4508 68.9898,15.6203" stroke="#00007f" stroke-width="2" /><polyline fill="none" points="40.7864,13.0169 40.3525,10.8475 36.8814,8.678 31.2407,9.5458 28.2034,14.3186 28.2034,23.4305 34.278,44.6915 43.3898,51.2 55.1051,52.0678 59.878,50.3322 65.9525,46.861 69.8576,41.6542 73.3288,35.1458 76.8,12.5831 74.1966,9.1119 69.8576,8.678 67.2542,11.7153 67.2542,17.7898" stroke="#0010ff" stroke-width="2" /><polyline fill="none" points="37.7492,34.278 8.678,30.8068" stroke="#00a4ff" stroke-width="2" /><polyline fill="none" points="35.5797,36.8814 28.2034,36.8814 13.4508,44.2576" stroke="#3fffb7" stroke-width="2" /><polyline fill="none" points="35.5797,39.0508 21.6949,51.2" stroke="#b7ff3f" stroke-width="2" /><polyline fill="none" points="67.2542,34.278 101.5322,34.278 107.1729,32.5424 107.1729,33.8441" stroke="#ffb900" stroke-width="2" /><polyline fill="none" points="69.4237,37.3153 78.5356,37.3153 105.0034,44.6915 119.322,45.9932" stroke="#ff3000" stroke-width="2" /><polyline fill="none" points="68.9898,38.6169 88.5153,49.0305" stroke="#7f0000" stroke-width="2" /></svg>