<?xml version="1.0" encoding="utf-8" ?>
<svg baseProfile="tiny" height="128" version="1.2" viewBox="0,0,128,128" width="128" xmlns="http://www.w3.org/2000/svg" xmlns:ev="http://www.w3.org/2001/xml-events" xmlns:xlink="http://www.w3.org/1999/xlink"><defs /><polyline fill="none" points="12.5831,53.8034 10.8475,56.4068 8.678,73.7627 8.678,89.3831 11.7153,103.7017 19.9593,113.6814 26.0339,117.5864 32.9763,119.322 43.8237,118.0203 54.2373,110.2102 65.0847,95.4576 69.8576,78.1017 69.8576,62.4814 71.1593,55.1051 81.139,28.6373 53.8034,43.3898 44.2576,49.8983 32.9763,50.3322 31.6746,47.2949 28.6373,26.0339 19.5254,13.8847 13.8847,8.678 13.0169,38.1831 14.7525,55.539" stroke="#00007f" stroke-width="2" /><polyline fill="none" points="31.6746,66.3864 28.2034,65.5186 22.5627,68.9898 19.9593,75.4983 22.1288,80.2712 26.9017,82.4407 32.1085,80.2712 35.5797,73.3288 34.278,68.5559" stroke="#0010ff" stroke-width="2" /><polyline fill="none" points="57.7085,68.5559 55.539,66.3864 53.3695,66.8203 48.1627,73.7627 46.4271,82.4407 48.5966,84.1763 55.1051,83.3085 58.1424,78.5356 59.0102,69.4237" stroke="#00a4ff" stroke-width="2" /><polyline fill="none" points="33.8441,89.3831 34.7119,93.722 38.1831,96.7593 42.522,90.2508 36.4475,88.5153" stroke="#3fffb7" stroke-width="2" /><polyline fill="none" points="40.3525,96.7593 53.3695,94.1559 58.1424,94.5898" stroke="#b7ff3f" stroke-width="2" /><polyline fill="none" points="45.1254,87.6475 72.0271,87.6475" stroke="#ffb900" stroke-width="2" /><polyline fill="none" points="29.939,94.5898 26.4678,92.4203 13.8847,97.6271" stroke="#ff3000" stroke-width="2" /><polyline fill="none" points="29.0712,90.2508 20.3932,87.2136 15.6203,87.6475" stroke="#7f0000" stroke-width="2" /></svg>