<?xml version="1.0" encoding="utf-8" ?>
<svg baseProfile="tiny" height="128" version="1.2" viewBox="0,0,128,128" width="128" xmlns="http://www.w3.org/2000/svg" xmlns:ev="http://www.w3.org/2001/xml-events" xmlns:xlink="http://www.w3.org/1999/xlink"><defs /><polyline fill="none" points="83.3085,49.8983 76.3661,39.9186 71.5932,36.4475 57.7085,33.4102 48.5966,32.9763 37.7492,34.278 28.2034,37.3153 19.9593,43.3898 13.8847,51.2 10.4136,59.878 8.678,70.2915 9.5458,91.5525 19.0915,108.9085 26.0339,114.1153 41.2203,119.322 60.7458,117.5864 76.8,107.6068 82.4407,101.0983 87.6475,92.4203 93.2881,71.5932 91.9864,60.3119 86.3458,54.2373 79.4034,50.7661 72.461,49.4644" stroke="#00007f" stroke-width="2" /><polyline fill="none" points="12.1492,44.2576 21.6949,10.8475 27.3356,8.678 30.3729,13.0169 35.1458,39.0508 38.6169,40.7864" stroke="#004cff" stroke-width="2" /><polyline fill="none" points="75.4983,32.5424 75.0644,28.2034 80.7051,13.8847 82.4407,13.0169 83.3085,16.4881 82.0068,22.9966 69.4237,54.2373" stroke="#29ffcd" stroke-width="2" /><polyline fill="none" points="48.1627,81.5729 28.2034,81.139" stroke="#cdff29" stroke-width="2" /><polyline fill="none" points="75.4983,76.3661 79.4034,78.5356 104.1356,79.8373" stroke="#ff6700" stroke-width="2" /><polyline fill="none" points="34.7119,95.8915 69.8576,93.722" stroke="#7f0000" stroke-width="2" /></svg>