<?xml version="1.0" encoding="utf-8" ?>
<svg baseProfile="tiny" height="128" version="1.2" viewBox="0,0,128,128" width="128" xmlns="http://www.w3.org/2000/svg" xmlns:ev="http://www.w3.org/2001/xml-events" xmlns:xlink="http://www.w3.org/1999/xlink"><defs /><polyline fill="none" points="49.8983,40.3525 29.939,43.3898 20.8271,55.539 12.5831,62.9153 8.678,70.7254 8.678,74.6305 16.922,87.2136 29.0712,99.7966 47.2949,111.9458 56.4068,115.4169 65.9525,115.4169 78.1017,111.9458 86.7797,107.1729 95.0237,100.6644 97.6271,92.4203 96.7593,87.2136 88.5153,53.3695 85.478,46.861 81.139,42.522 73.3288,38.6169 47.2949,42.522" stroke="#00007f" stroke-width="2" /><polyline fill="none" points="71.5932,36.8814 78.1017,27.3356 84.6102,20.8271 102.8339,8.678 106.3051,24.2983 105.4373,32.1085 97.6271,45.1254 91.1186,51.6339" stroke="#0010ff" stroke-width="2" /><polyline fill="none" points="44.2576,37.7492 19.0915,26.4678 11.2814,23.8644 11.2814,32.1085 15.1864,54.6712" stroke="#00a4ff" stroke-width="2" /><polyline fill="none" points="19.9593,45.1254 17.7898,31.2407 21.6949,31.6746 29.5051,40.3525" stroke="#3fffb7" stroke-width="2" /><polyline fill="none" points="79.8373,34.7119 94.1559,28.2034 95.0237,36.0136 92.8542,50.7661" stroke="#b7ff3f" stroke-width="2" /><polyline fill="none" points="56.4068,68.5559 57.2746,82.4407 59.878,86.3458 71.5932,88.5153 75.9322,87.6475 76.3661,86.3458" stroke="#ffb900" stroke-width="2" /><polyline fill="none" points="64.2169,86.3458 60.3119,88.5153 51.2,90.2508 44.2576,87.2136 40.3525,81.5729" stroke="#ff3000" stroke-width="2" /><polyline fill="none" points="59.4441,75.4983 119.322,77.2339" stroke="#7f0000" stroke-width="2" /></svg>