<?xml version="1.0" encoding="utf-8" ?>
<svg baseProfile="tiny" height="128" version="1.2" viewBox="0,0,128,128" width="128" xmlns="http://www.w3.org/2000/svg" xmlns:ev="http://www.w3.org/2001/xml-events" xmlns:xlink="http://www.w3.org/1999/xlink"><defs /><polyline fill="none" points="23.4305,22.1288 23.4305,17.7898 27.3356,8.678 34.7119,17.3559 37.3153,23.4305" stroke="#00007f" stroke-width="2" /><polyline fill="none" points="39.0508,23.4305 46.861,22.5627 68.5559,26.9017 79.8373,17.7898 86.3458,17.3559 89.3831,22.1288 92.4203,33.8441" stroke="#0000fe" stroke-width="2" /><polyline fill="none" points="26.0339,26.0339 22.5627,26.9017 20.8271,29.0712 17.7898,37.3153 19.9593,45.5593 23.8644,52.5017 36.4475,62.9153 58.1424,68.9898 67.6881,68.9898 80.2712,66.8203 87.6475,63.7831 95.8915,57.2746 99.3627,46.4271 99.3627,39.0508 97.6271,36.4475 89.8169,33.4102" stroke="#0060ff" stroke-width="2" /><polyline fill="none" points="24.7322,16.0542 25.6,26.0339" stroke="#00d4ff" stroke-width="2" /><polyline fill="none" points="39.9186,42.0881 23.4305,40.7864 19.0915,38.1831 12.5831,31.2407" stroke="#4cffaa" stroke-width="2" /><polyline fill="none" points="36.4475,45.1254 13.8847,52.9356 8.678,55.9729" stroke="#aaff4c" stroke-width="2" /><polyline fill="none" points="41.2203,46.861 36.0136,49.0305 27.3356,57.2746 19.5254,74.6305" stroke="#ffe500" stroke-width="2" /><polyline fill="none" points="74.1966,52.5017 76.8,51.2 91.1186,49.4644 105.0034,49.8983 119.322,52.9356" stroke="#ff7a00" stroke-width="2" /><polyline fill="none" points="75.4983,60.3119 101.0983,61.1797 110.6441,64.2169" stroke="#fe1200" stroke-width="2" /><polyline fill="none" points="74.1966,69.4237 91.9864,71.1593 100.6644,74.1966 108.0407,78.9695" stroke="#7f0000" stroke-width="2" /></svg>