<?xml version="1.0" encoding="utf-8" ?>
<svg baseProfile="tiny" height="128" version="1.2" viewBox="0,0,128,128" width="128" xmlns="http://www.w3.org/2000/svg" xmlns:ev="http://www.w3.org/2001/xml-events" xmlns:xlink="http://www.w3.org/1999/xlink"><defs /><polyline fill="none" points="89.8169,29.939 88.5153,28.2034 80.2712,26.0339 59.878,25.1661 42.0881,32.5424 29.0712,45.1254 26.4678,49.0305 22.1288,62.9153 22.1288,79.4034 26.4678,91.1186 30.8068,95.4576 36.0136,98.061 57.2746,100.2305 64.2169,100.2305 71.5932,97.6271 78.5356,93.2881 84.1763,88.5153 92.4203,76.3661 96.3254,65.0847 96.7593,59.4441 95.8915,47.7288 94.1559,41.6542 89.8169,32.9763 84.1763,27.3356 80.7051,25.1661 75.0644,25.1661" stroke="#00007f" stroke-width="2" /><polyline fill="none" points="91.1186,26.9017 98.4949,18.6576 111.078,9.9797 118.8881,8.678 119.322,11.7153 114.1153,19.9593 99.3627,36.0136 94.1559,39.0508" stroke="#0000de" stroke-width="2" /><polyline fill="none" points="43.8237,27.7695 24.7322,20.8271 9.5458,18.2237 8.678,21.6949 27.3356,50.7661" stroke="#0028ff" stroke-width="2" /><polyline fill="none" points="47.2949,43.3898 45.5593,45.5593 45.5593,49.8983" stroke="#0080ff" stroke-width="2" /><polyline fill="none" points="74.1966,41.6542 72.8949,47.2949" stroke="#00d4ff" stroke-width="2" /><polyline fill="none" points="58.5763,59.4441 54.2373,66.8203 49.8983,69.8576 41.6542,70.2915 36.8814,66.8203" stroke="#36ffc0" stroke-width="2" /><polyline fill="none" points="56.8407,61.6136 57.2746,66.8203 59.878,72.8949 70.7254,74.6305 79.8373,72.0271" stroke="#7cff79" stroke-width="2" /><polyline fill="none" points="77.6678,59.878 91.5525,55.1051 95.4576,55.1051" stroke="#c0ff36" stroke-width="2" /><polyline fill="none" points="84.6102,68.122 105.0034,55.9729" stroke="#ffe500" stroke-width="2" /><polyline fill="none" points="80.2712,78.9695 97.6271,71.1593" stroke="#ff9400" stroke-width="2" /><polyline fill="none" points="38.1831,59.4441 25.6,56.4068 19.9593,56.4068" stroke="#ff4600" stroke-width="2" /><polyline fill="none" points="29.5051,67.2542 25.6,65.0847 13.8847,66.3864" stroke="#de0000" stroke-width="2" /><polyline fill="none" points="32.1085,75.4983 12.5831,87.6475" stroke="#7f0000" stroke-width="2" /></svg>