<?xml version="1.0" encoding="utf-8" ?>
<svg baseProfile="tiny" height="128" version="1.2" viewBox="0,0,128,128" width="128" xmlns="http://www.w3.org/2000/svg" xmlns:ev="http://www.w3.org/2001/xml-events" xmlns:xlink="http://www.w3.org/1999/xlink"><defs /><polyline fill="none" points="35.5797,22.9966 27.3356,11.7153 26.4678,13.0169 26.9017,32.1085 22.1288,47.2949 21.6949,58.1424 24.2983,68.9898 27.3356,74.6305 35.1458,83.7424 42.9559,89.3831 49.4644,91.5525 71.5932,92.8542 80.7051,91.5525 98.9288,81.5729 105.0034,73.3288 107.1729,66.8203 108.9085,46.4271 100.2305,28.2034 106.3051,8.678 104.1356,8.678 85.9119,22.5627 72.461,17.7898 54.6712,16.922 43.3898,19.0915 34.7119,23.4305" stroke="#00007f" stroke-width="2" /><polyline fill="none" points="81.139,49.8983 91.5525,46.4271 119.322,43.8237" stroke="#0028ff" stroke-width="2" /><polyline fill="none" points="91.1186,60.3119 109.7763,67.2542 112.3797,69.4237" stroke="#00d4ff" stroke-width="2" /><polyline fill="none" points="85.478,72.8949 93.2881,81.139 101.5322,92.8542 107.1729,97.6271" stroke="#7cff79" stroke-width="2" /><polyline fill="none" points="39.4847,51.6339 31.6746,45.1254 15.1864,39.9186 8.678,39.0508" stroke="#ffe500" stroke-width="2" /><polyline fill="none" points="42.9559,60.3119 17.7898,65.5186" stroke="#ff4600" stroke-width="2" /><polyline fill="none" points="40.3525,69.4237 36.8814,70.2915 25.1661,80.7051 18.6576,89.3831" stroke="#7f0000" stroke-width="2" /></svg>