<?xml version="1.0" encoding="utf-8" ?>
<svg baseProfile="tiny" height="128" version="1.2" viewBox="0,0,128,128" width="128" xmlns="http://www.w3.org/2000/svg" xmlns:ev="http://www.w3.org/2001/xml-events" xmlns:xlink="http://www.w3.org/1999/xlink"><defs /><polyline fill="none" points="25.6,41.6542 28.2034,41.2203 31.2407,36.0136 32.9763,30.8068 36.8814,25.6 44.2576,8.678 49.0305,17.3559 55.1051,36.0136 57.7085,36.4475 65.5186,33.4102 72.8949,33.8441 85.478,45.1254 87.2136,42.522 89.8169,31.6746 101.9661,13.4508 103.7017,45.5593 114.5492,62.0475 114.5492,70.2915 109.7763,78.1017 101.0983,83.3085 99.3627,86.7797 90.6847,89.3831 64.2169,89.3831 49.4644,88.5153 41.6542,85.9119 35.5797,81.5729 30.8068,75.9322 23.8644,59.4441 24.2983,44.2576 26.0339,41.2203 28.2034,42.9559" stroke="#00007f" stroke-width="2" /><polyline fill="none" points="52.5017,52.0678 53.3695,52.0678" stroke="#0010ff" stroke-width="2" /><polyline fill="none" points="67.2542,51.6339 67.2542,51.6339" stroke="#00a4ff" stroke-width="2" /><polyline fill="none" points="82.4407,68.5559 90.6847,64.2169 101.9661,63.3492 119.322,59.4441" stroke="#3fffb7" stroke-width="2" /><polyline fill="none" points="42.522,67.2542 8.678,68.9898" stroke="#b7ff3f" stroke-width="2" /><polyline fill="none" points="42.522,69.8576 39.9186,71.5932 28.6373,73.7627 20.8271,76.8" stroke="#ffb900" stroke-width="2" /><polyline fill="none" points="95.0237,74.1966 101.0983,72.0271 118.0203,70.2915" stroke="#ff3000" stroke-width="2" /><polyline fill="none" points="74.6305,55.9729 74.6305,55.539" stroke="#7f0000" stroke-width="2" /></svg>