<?xml version="1.0" encoding="utf-8" ?>
<svg baseProfile="tiny" height="128" version="1.2" viewBox="0,0,128,128" width="128" xmlns="http://www.w3.org/2000/svg" xmlns:ev="http://www.w3.org/2001/xml-events" xmlns:xlink="http://www.w3.org/1999/xlink"><defs /><polyline fill="none" points="11.2814,29.0712 8.678,16.4881 9.9797,10.4136 11.7153,10.4136 16.4881,13.8847 25.6,25.1661 38.1831,22.9966 42.9559,25.1661 45.9932,13.0169 48.5966,9.1119 50.7661,8.678 54.6712,9.9797 58.5763,16.4881 59.878,21.261 59.0102,32.5424 55.539,43.8237 49.4644,54.2373 43.3898,59.0102 38.6169,60.7458 30.8068,61.1797 21.6949,56.8407 16.0542,50.7661 13.0169,40.7864 11.2814,27.7695" stroke="#00007f" stroke-width="2" /><polyline fill="none" points="26.4678,32.5424 24.7322,30.8068 23.4305,32.1085 24.7322,31.6746" stroke="#0000d5" stroke-width="2" /><polyline fill="none" points="49.4644,31.2407 46.861,31.2407 45.9932,33.4102 45.9932,30.8068" stroke="#001cff" stroke-width="2" /><polyline fill="none" points="37.7492,41.2203 31.6746,40.7864 31.6746,44.6915 35.1458,46.4271 39.4847,39.9186" stroke="#006cff" stroke-width="2" /><polyline fill="none" points="24.7322,59.0102 22.5627,68.122 22.1288,77.6678 25.6,83.7424 37.7492,89.8169 57.2746,88.9492" stroke="#00b8ff" stroke-width="2" /><polyline fill="none" points="42.522,54.6712 47.2949,57.2746 67.2542,60.3119 83.7424,64.2169 93.2881,68.122 96.3254,70.7254 97.1932,74.1966 94.5898,83.3085 88.5153,86.7797 79.8373,89.8169 52.5017,91.5525 48.5966,94.1559" stroke="#1cffda" stroke-width="2" /><polyline fill="none" points="84.1763,87.6475 85.0441,94.1559" stroke="#5cff9a" stroke-width="2" /><polyline fill="none" points="97.1932,75.9322 99.7966,75.4983 119.322,89.3831" stroke="#9aff5c" stroke-width="2" /><polyline fill="none" points="32.9763,42.522 23.8644,41.2203" stroke="#daff1c" stroke-width="2" /><polyline fill="none" points="30.8068,44.2576 18.2237,46.861" stroke="#ffcb00" stroke-width="2" /><polyline fill="none" points="33.4102,46.861 24.7322,53.3695" stroke="#ff8500" stroke-width="2" /><polyline fill="none" points="36.0136,45.9932 45.9932,45.9932" stroke="#ff3b00" stroke-width="2" /><polyline fill="none" points="39.4847,50.7661 43.3898,50.7661" stroke="#d50000" stroke-width="2" /><polyline fill="none" points="40.3525,39.4847 40.7864,40.7864" stroke="#7f0000" stroke-width="2" /></svg>