<?xml version="1.0" encoding="utf-8" ?>
<svg baseProfile="tiny" height="128" version="1.2" viewBox="0,0,128,128" width="128" xmlns="http://www.w3.org/2000/svg" xmlns:ev="http://www.w3.org/2001/xml-events" xmlns:xlink="http://www.w3.org/1999/xlink"><defs /><polyline fill="none" points="35.5797,33.8441 27.3356,36.4475 16.922,45.5593 9.5458,59.4441 8.678,73.7627 11.7153,82.8746 18.2237,91.1186 25.1661,96.7593 36.0136,100.2305 44.2576,99.7966 48.1627,97.6271 57.7085,87.6475 62.4814,80.2712 64.2169,73.3288 64.6508,60.3119 59.878,49.8983 49.0305,38.6169 36.4475,32.9763 31.2407,32.9763 23.4305,22.9966 17.7898,8.678 16.922,23.4305 19.0915,45.1254" stroke="#00007f" stroke-width="2" /><polyline fill="none" points="46.861,37.7492 65.0847,14.7525 65.5186,50.7661 63.7831,60.3119" stroke="#0000fe" stroke-width="2" /><polyline fill="none" points="26.0339,49.4644 26.9017,58.1424 28.6373,61.6136" stroke="#0060ff" stroke-width="2" /><polyline fill="none" points="43.3898,45.9932 45.1254,58.1424" stroke="#00d4ff" stroke-width="2" /><polyline fill="none" points="34.278,70.7254 38.1831,69.4237 38.1831,73.7627 36.4475,72.8949 35.5797,70.2915" stroke="#4cffaa" stroke-width="2" /><polyline fill="none" points="39.0508,72.8949 39.4847,80.7051 34.7119,87.2136 29.0712,88.5153 26.9017,86.7797 26.0339,83.3085" stroke="#aaff4c" stroke-width="2" /><polyline fill="none" points="42.0881,72.461 41.2203,76.8 42.0881,79.8373 44.2576,82.0068 50.3322,82.0068" stroke="#ffe500" stroke-width="2" /><polyline fill="none" points="55.539,72.461 79.4034,63.7831 103.2678,51.2" stroke="#ff7a00" stroke-width="2" /><polyline fill="none" points="60.7458,72.8949 92.4203,73.7627 119.322,72.461" stroke="#fe1200" stroke-width="2" /><polyline fill="none" points="61.1797,70.2915 72.0271,89.8169 75.9322,95.0237 84.6102,101.5322" stroke="#7f0000" stroke-width="2" /></svg>