<?xml version="1.0" encoding="utf-8" ?>
<svg baseProfile="tiny" height="128" version="1.2" viewBox="0,0,128,128" width="128" xmlns="http://www.w3.org/2000/svg" xmlns:ev="http://www.w3.org/2001/xml-events" xmlns:xlink="http://www.w3.org/1999/xlink"><defs /><polyline fill="none" points="62.0475,52.0678 59.0102,52.0678 58.1424,54.6712 56.8407,65.0847 52.9356,75.9322 54.6712,80.2712 86.7797,96.3254 93.2881,98.061 95.0237,97.1932 95.8915,94.5898 96.3254,69.8576 91.9864,59.4441 87.6475,52.9356 83.3085,49.0305 58.5763,49.8983" stroke="#00007f" stroke-width="2" /><polyline fill="none" points="58.5763,46.861 65.9525,8.678 67.2542,13.0169 68.5559,28.2034 68.5559,35.1458 66.8203,40.7864" stroke="#0000f1" stroke-width="2" /><polyline fill="none" points="76.3661,49.4644 83.7424,25.6 88.5153,15.6203 84.6102,38.1831 85.478,46.4271" stroke="#004cff" stroke-width="2" /><polyline fill="none" points="69.8576,63.7831 67.6881,62.4814 66.8203,65.0847" stroke="#00b0ff" stroke-width="2" /><polyline fill="none" points="77.2339,63.7831 75.0644,63.7831 76.8,64.2169" stroke="#29ffcd" stroke-width="2" /><polyline fill="none" points="64.2169,71.5932 55.9729,72.461" stroke="#7cff79" stroke-width="2" /><polyline fill="none" points="62.9153,77.2339 58.1424,78.5356" stroke="#cdff29" stroke-width="2" /><polyline fill="none" points="75.4983,72.8949 84.1763,74.1966" stroke="#ffc400" stroke-width="2" /><polyline fill="none" points="74.6305,78.5356 82.4407,80.2712" stroke="#ff6700" stroke-width="2" /><polyline fill="none" points="66.8203,80.7051 72.8949,82.8746" stroke="#f10700" stroke-width="2" /><polyline fill="none" points="70.2915,89.3831 53.8034,85.9119 37.7492,80.7051 16.922,82.0068 8.678,88.0814 9.1119,91.9864 32.1085,111.5119 44.2576,116.7186 56.4068,119.322 60.7458,118.4542 64.2169,116.2847 77.6678,103.2678 80.7051,98.061 80.7051,89.3831" stroke="#7f0000" stroke-width="2" /></svg>