<?xml version="1.0" encoding="utf-8" ?>
<svg baseProfile="tiny" height="128" version="1.2" viewBox="0,0,128,128" width="128" xmlns="http://www.w3.org/2000/svg" xmlns:ev="http://www.w3.org/2001/xml-events" xmlns:xlink="http://www.w3.org/1999/xlink"><defs /><polyline fill="none" points="21.6949,67.2542 19.5254,65.0847 16.4881,54.2373 14.3186,22.5627 8.678,15.1864 8.678,10.4136 10.8475,9.1119 17.3559,8.678 18.6576,10.8475 19.0915,15.6203 26.0339,29.939 28.6373,50.3322 31.6746,59.4441 51.2,56.4068 88.0814,57.2746 84.1763,53.3695 83.3085,46.861 90.2508,40.7864 96.7593,37.7492 98.9288,30.8068 101.0983,29.0712 105.4373,35.5797 111.9458,35.5797 116.7186,29.0712 118.4542,31.6746 119.322,52.0678 116.7186,57.2746 104.1356,62.4814 103.7017,64.6508 106.739,84.1763 106.739,98.4949 108.9085,98.9288 99.7966,101.9661 98.4949,98.9288 98.4949,75.4983 97.1932,78.1017 97.1932,94.5898 95.4576,98.9288 91.9864,103.2678 85.0441,104.1356 85.478,68.5559 74.1966,73.3288 39.4847,78.5356 38.6169,81.139 44.2576,90.6847 44.2576,95.4576 41.2203,99.3627 38.1831,97.6271 32.9763,81.139 34.7119,103.7017 29.5051,105.0034 27.7695,102.8339 26.9017,97.6271 25.6,77.2339 22.9966,65.9525" stroke="#00007f" stroke-width="2" /></svg>