<?xml version="1.0" encoding="utf-8" ?>
<svg baseProfile="tiny" height="128" version="1.2" viewBox="0,0,128,128" width="128" xmlns="http://www.w3.org/2000/svg" xmlns:ev="http://www.w3.org/2001/xml-events" xmlns:xlink="http://www.w3.org/1999/xlink"><defs /><polyline fill="none" points="91.1186,13.8847 90.2508,25.6" stroke="#00007f" stroke-width="2" /><polyline fill="none" points="95.0237,9.5458 98.9288,22.9966" stroke="#0000f1" stroke-width="2" /><polyline fill="none" points="111.9458,13.4508 106.739,22.5627 107.6068,22.9966" stroke="#004cff" stroke-width="2" /><polyline fill="none" points="115.4169,8.678 116.7186,19.0915" stroke="#00b0ff" stroke-width="2" /><polyline fill="none" points="114.1153,24.2983 97.1932,22.9966 84.6102,25.1661 81.139,27.7695 81.139,30.8068 83.3085,34.278 91.1186,40.3525 97.6271,42.522 105.0034,41.6542 114.9831,37.7492 118.0203,33.8441 119.322,29.939 117.5864,26.0339 114.9831,24.2983" stroke="#29ffcd" stroke-width="2" /><polyline fill="none" points="78.9695,27.3356 68.9898,24.7322 54.2373,24.7322 39.4847,27.3356 33.8441,31.6746 34.278,34.278 38.1831,37.7492 48.5966,42.522 68.122,45.9932 87.2136,40.7864 91.9864,36.4475" stroke="#7cff79" stroke-width="2" /><polyline fill="none" points="32.9763,33.8441 30.3729,40.3525 16.4881,50.3322 12.1492,52.0678 8.678,48.5966" stroke="#cdff29" stroke-width="2" /><polyline fill="none" points="49.0305,42.522 47.2949,43.8237 43.8237,52.9356 42.0881,55.1051" stroke="#ffc400" stroke-width="2" /><polyline fill="none" points="65.5186,46.4271 65.5186,54.6712" stroke="#ff6700" stroke-width="2" /><polyline fill="none" points="80.2712,46.4271 82.4407,53.8034" stroke="#f10700" stroke-width="2" /><polyline fill="none" points="59.4441,45.5593 55.539,51.2" stroke="#7f0000" stroke-width="2" /></svg>