<?xml version="1.0" encoding="utf-8" ?>
<svg baseProfile="tiny" height="128" version="1.2" viewBox="0,0,128,128" width="128" xmlns="http://www.w3.org/2000/svg" xmlns:ev="http://www.w3.org/2001/xml-events" xmlns:xlink="http://www.w3.org/1999/xlink"><defs /><polyline fill="none" points="24.8163,33.0884 24.381,43.5374 22.2041,52.2449 8.7075,64.0 9.1429,70.966 14.8027,74.0136 18.7211,71.4014 24.8163,65.3061 31.3469,60.9524 34.3946,56.5986 33.9592,42.2313 35.7007,40.4898 41.3605,38.7483 67.0476,38.7483 84.4626,41.3605" stroke="#00007f" stroke-width="2" /><polyline fill="none" points="24.381,32.2177 28.2993,19.1565 33.9592,16.5442 58.7755,15.6735 92.2993,16.9796 100.5714,18.7211 103.1837,26.9932 103.1837,33.5238 99.7007,39.1837 95.7823,41.7959 83.1565,41.7959" stroke="#0000de" stroke-width="2" /><polyline fill="none" points="52.2449,39.619 46.1497,53.9864 46.1497,58.7755 47.0204,59.2109 52.2449,53.551 57.034,40.9252" stroke="#0028ff" stroke-width="2" /><polyline fill="none" points="68.3537,38.7483 63.1293,50.068 63.1293,54.8571 66.1769,55.2925 70.0952,50.068 74.0136,42.2313" stroke="#0080ff" stroke-width="2" /><polyline fill="none" points="77.4966,41.7959 76.1905,56.1633 80.1088,53.9864 83.1565,43.102" stroke="#00d4ff" stroke-width="2" /><polyline fill="none" points="86.6395,41.7959 87.9456,55.7279 92.7347,53.1156 94.0408,42.2313" stroke="#36ffc0" stroke-width="2" /><polyline fill="none" points="101.4422,18.2857 102.7483,16.1088 107.9728,14.8027 111.8912,15.2381 116.2449,17.8503 118.8571,23.0748 119.2925,29.1701 117.9864,31.7823 113.1973,34.3946 103.1837,33.0884 99.2653,29.1701 97.9592,22.2041" stroke="#7cff79" stroke-width="2" /><polyline fill="none" points="100.1361,18.2857 101.0068,9.5782 102.7483,9.5782 104.9252,15.2381" stroke="#c0ff36" stroke-width="2" /><polyline fill="none" points="109.2789,13.932 113.6327,8.7075 115.8095,16.5442" stroke="#ffe500" stroke-width="2" /><polyline fill="none" points="107.9728,26.9932 110.585,27.8639 112.7619,26.5578" stroke="#ff9400" stroke-width="2" /><polyline fill="none" points="108.4082,19.5918 108.4082,19.5918" stroke="#ff4600" stroke-width="2" /><polyline fill="none" points="108.8435,19.5918 109.7143,22.2041" stroke="#de0000" stroke-width="2" /><polyline fill="none" points="111.4558,20.4626 112.7619,22.6395 112.3265,20.0272" stroke="#7f0000" stroke-width="2" /></svg>