<?xml version="1.0" encoding="utf-8" ?>
<svg baseProfile="tiny" height="128" version="1.2" viewBox="0,0,128,128" width="128" xmlns="http://www.w3.org/2000/svg" xmlns:ev="http://www.w3.org/2001/xml-events" xmlns:xlink="http://www.w3.org/1999/xlink"><defs /><polyline fill="none" points="28.2993,53.1156 23.9456,62.6939 22.6395,71.8367 23.0748,89.6871 28.2993,102.3129 32.6531,108.4082 38.3129,112.7619 46.1497,116.6803 61.8231,119.2925 69.6599,117.1156 85.7687,101.4422 90.5578,90.9932 93.6054,74.449 92.7347,55.2925 89.6871,47.0204 77.0612,34.3946 52.2449,34.3946 37.4422,42.6667 27.4286,53.1156 20.4626,70.0952 20.0272,75.7551" stroke="#00007f" stroke-width="2" /><polyline fill="none" points="16.9796,64.4354 12.1905,53.9864 8.7075,13.4966 11.7551,13.4966 31.3469,34.8299 39.1837,40.9252" stroke="#0080ff" stroke-width="2" /><polyline fill="none" points="83.1565,34.3946 111.0204,8.7075 111.8912,16.9796 108.8435,26.1224 94.0408,61.3878" stroke="#7cff79" stroke-width="2" /><polyline fill="none" points="50.5034,77.4966 55.7279,84.0272 58.7755,83.5918 68.3537,68.3537 60.517,67.0476 53.551,69.2245" stroke="#ff9400" stroke-width="2" /><polyline fill="none" points="48.3265,97.5238 64.4354,96.6531 70.966,93.6054" stroke="#7f0000" stroke-width="2" /></svg>