<?xml version="1.0" encoding="utf-8" ?>
<svg baseProfile="tiny" height="128" version="1.2" viewBox="0,0,128,128" width="128" xmlns="http://www.w3.org/2000/svg" xmlns:ev="http://www.w3.org/2001/xml-events" xmlns:xlink="http://www.w3.org/1999/xlink"><defs /><polyline fill="none" points="31.6746,31.2407 20.3932,32.5424 10.4136,39.4847 8.678,44.2576 9.5458,46.861 15.6203,52.9356 26.4678,57.2746 30.8068,57.7085 35.1458,56.4068 40.3525,52.5017 41.6542,47.2949 40.3525,42.522 37.7492,36.8814 33.8441,34.278 32.5424,30.3729 37.3153,22.5627 40.3525,37.3153" stroke="#00007f" stroke-width="2" /><polyline fill="none" points="28.2034,29.5051 19.9593,19.9593 18.6576,32.1085" stroke="#004cff" stroke-width="2" /><polyline fill="none" points="23.8644,36.0136 22.1288,49.8983 22.1288,51.2 23.4305,50.3322" stroke="#29ffcd" stroke-width="2" /><polyline fill="none" points="31.6746,38.6169 32.5424,52.0678" stroke="#cdff29" stroke-width="2" /><polyline fill="none" points="25.6,52.0678 26.4678,53.3695 29.5051,53.3695" stroke="#ff6700" stroke-width="2" /><polyline fill="none" points="35.5797,54.6712 67.2542,52.0678 77.6678,55.1051 85.478,55.1051 90.6847,53.3695 92.4203,49.0305 92.8542,9.9797 95.0237,8.678 107.6068,13.8847 119.322,23.4305 105.8712,37.3153 105.4373,56.8407 101.0983,64.6508 97.6271,84.1763 95.0237,89.8169 90.6847,82.8746 86.3458,63.7831 78.5356,82.8746 75.9322,83.3085 72.8949,80.2712 68.5559,68.122 35.5797,68.5559 34.7119,74.1966 28.6373,83.7424 27.3356,78.5356 27.3356,68.9898 20.8271,76.3661 18.6576,77.2339 18.2237,75.0644 19.0915,65.5186 23.4305,57.7085" stroke="#7f0000" stroke-width="2" /></svg>