<?xml version="1.0" encoding="utf-8" ?>
<svg baseProfile="tiny" height="128" version="1.2" viewBox="0,0,128,128" width="128" xmlns="http://www.w3.org/2000/svg" xmlns:ev="http://www.w3.org/2001/xml-events" xmlns:xlink="http://www.w3.org/1999/xlink"><defs /><polyline fill="none" points="90.2508,46.4271 89.8169,41.2203 85.0441,38.6169 59.0102,36.4475 39.4847,36.8814 30.8068,41.6542 16.4881,52.9356 9.5458,65.5186 8.678,75.4983 9.9797,80.2712 13.8847,84.6102 26.9017,91.5525 35.5797,93.722 52.0678,96.3254 68.5559,96.3254 84.1763,91.5525 96.7593,82.0068 104.1356,72.0271 106.739,66.3864 106.739,51.2 101.0983,43.3898 95.0237,38.6169 89.8169,36.4475" stroke="#00007f" stroke-width="2" /><polyline fill="none" points="80.2712,32.5424 81.5729,29.0712 95.0237,14.3186 106.3051,8.678 107.1729,15.6203 100.6644,32.5424 98.061,47.2949" stroke="#0010ff" stroke-width="2" /><polyline fill="none" points="36.8814,30.3729 34.278,23.8644 26.4678,14.3186 18.6576,8.678 17.3559,12.5831 17.7898,24.2983 22.9966,40.3525" stroke="#00a4ff" stroke-width="2" /><polyline fill="none" points="59.0102,61.6136 67.2542,61.1797 64.6508,68.122 62.4814,68.5559 56.8407,62.4814 59.0102,62.0475" stroke="#3fffb7" stroke-width="2" /><polyline fill="none" points="64.2169,69.8576 64.2169,79.4034 61.1797,82.4407 55.539,83.3085 55.1051,75.0644" stroke="#b7ff3f" stroke-width="2" /><polyline fill="none" points="65.5186,68.9898 65.5186,72.461 69.8576,77.6678 75.4983,78.9695 77.2339,76.3661" stroke="#ffb900" stroke-width="2" /><polyline fill="none" points="76.8,59.878 85.9119,56.4068 102.8339,55.1051 108.9085,55.9729 119.322,60.3119" stroke="#ff3000" stroke-width="2" /><polyline fill="none" points="81.139,63.7831 80.7051,61.6136 82.8746,61.6136 96.7593,65.5186 107.1729,70.7254 114.1153,76.3661" stroke="#7f0000" stroke-width="2" /></svg>