<?xml version="1.0" encoding="utf-8" ?>
<svg baseProfile="tiny" height="128" version="1.2" viewBox="0,0,128,128" width="128" xmlns="http://www.w3.org/2000/svg" xmlns:ev="http://www.w3.org/2001/xml-events" xmlns:xlink="http://www.w3.org/1999/xlink"><defs /><polyline fill="none" points="17.7898,52.0678 18.2237,20.3932 34.278,48.1627" stroke="#00007f" stroke-width="2" /><polyline fill="none" points="93.2881,51.6339 68.122,51.6339 54.6712,49.8983 27.7695,49.0305 15.1864,54.6712 12.5831,57.2746 8.678,81.5729 11.7153,95.8915 21.261,111.5119 29.0712,116.7186 36.0136,118.8881 71.1593,119.322 85.0441,114.5492 95.4576,106.3051 105.8712,95.8915 109.7763,88.5153 111.9458,80.7051 112.8136,63.7831 108.4746,56.4068 102.8339,52.0678 92.8542,47.7288 88.5153,47.7288" stroke="#0010ff" stroke-width="2" /><polyline fill="none" points="86.3458,47.7288 86.3458,16.4881 88.0814,8.678 105.4373,30.3729 108.0407,48.5966 110.2102,51.6339" stroke="#00a4ff" stroke-width="2" /><polyline fill="none" points="32.5424,64.6508 30.3729,66.8203 30.3729,68.9898 32.9763,68.122 33.8441,66.3864 31.2407,66.8203" stroke="#3fffb7" stroke-width="2" /><polyline fill="none" points="91.1186,66.3864 93.2881,66.3864 94.5898,64.2169 90.2508,64.6508" stroke="#b7ff3f" stroke-width="2" /><polyline fill="none" points="58.1424,80.2712 50.3322,81.139 50.3322,83.3085 57.2746,84.1763 58.1424,82.0068 50.3322,81.5729 49.8983,82.4407" stroke="#ffb900" stroke-width="2" /><polyline fill="none" points="53.3695,82.4407 53.3695,91.5525 39.0508,93.2881 38.6169,89.8169" stroke="#ff3000" stroke-width="2" /><polyline fill="none" points="52.9356,84.6102 52.9356,92.4203 62.4814,96.7593 65.0847,96.7593 70.2915,87.6475" stroke="#7f0000" stroke-width="2" /></svg>