<?xml version="1.0" encoding="utf-8" ?>
<svg baseProfile="tiny" height="128" version="1.2" viewBox="0,0,128,128" width="128" xmlns="http://www.w3.org/2000/svg" xmlns:ev="http://www.w3.org/2001/xml-events" xmlns:xlink="http://www.w3.org/1999/xlink"><defs /><polyline fill="none" points="44.6915,68.9898 28.2034,73.7627 18.6576,78.1017 11.7153,83.7424 9.1119,87.6475 8.678,92.4203 13.4508,101.5322 16.922,106.3051 24.7322,111.9458 36.8814,118.4542 42.9559,119.322 53.8034,115.8508 60.7458,107.1729 62.0475,94.5898 59.4441,84.1763 53.8034,77.2339 49.4644,75.0644" stroke="#00007f" stroke-width="2" /><polyline fill="none" points="62.4814,83.3085 63.7831,25.1661 59.0102,22.1288 49.8983,20.3932 48.1627,20.3932 43.3898,26.9017 45.5593,34.278 52.5017,42.9559 56.8407,45.9932 66.8203,50.3322 72.0271,49.0305 77.6678,44.2576 79.8373,41.2203 79.8373,37.3153 75.0644,26.0339 69.8576,19.0915 59.0102,17.3559 52.5017,18.6576 48.1627,21.261" stroke="#7cff79" stroke-width="2" /><polyline fill="none" points="71.1593,32.1085 62.9153,8.678 53.3695,20.8271" stroke="#7f0000" stroke-width="2" /></svg>