<?xml version="1.0" encoding="utf-8" ?>
<svg baseProfile="tiny" height="128" version="1.2" viewBox="0,0,128,128" width="128" xmlns="http://www.w3.org/2000/svg" xmlns:ev="http://www.w3.org/2001/xml-events" xmlns:xlink="http://www.w3.org/1999/xlink"><defs /><polyline fill="none" points="86.7797,31.2407 64.2169,29.939 48.1627,32.1085 32.5424,37.7492 21.261,46.4271 16.922,51.6339 10.8475,63.3492 8.678,77.6678 9.5458,86.3458 14.3186,101.0983 22.1288,110.6441 29.939,115.4169 38.1831,118.4542 45.9932,119.322 59.4441,118.8881 67.6881,116.7186 78.5356,110.6441 87.6475,99.7966 95.8915,85.0441 98.061,78.1017 100.6644,58.5763 99.3627,50.3322 96.3254,45.9932 82.4407,39.0508 82.4407,37.7492" stroke="#00007f" stroke-width="2" /><polyline fill="none" points="77.6678,33.8441 85.478,9.1119 88.9492,8.678 97.6271,21.6949 103.2678,41.6542" stroke="#0028ff" stroke-width="2" /><polyline fill="none" points="49.0305,35.5797 27.3356,22.5627 15.6203,18.6576 14.3186,22.1288 15.1864,35.5797 16.4881,42.522 20.3932,47.2949" stroke="#00d4ff" stroke-width="2" /><polyline fill="none" points="73.3288,55.9729 73.3288,55.9729" stroke="#7cff79" stroke-width="2" /><polyline fill="none" points="43.8237,54.2373 43.8237,54.2373" stroke="#ffe500" stroke-width="2" /><polyline fill="none" points="79.8373,51.2 79.8373,51.2" stroke="#ff4600" stroke-width="2" /><polyline fill="none" points="64.2169,80.2712 76.3661,79.4034 89.8169,73.3288" stroke="#7f0000" stroke-width="2" /></svg>