<?xml version="1.0" encoding="utf-8" ?>
<svg baseProfile="tiny" height="128" version="1.2" viewBox="0,0,128,128" width="128" xmlns="http://www.w3.org/2000/svg" xmlns:ev="http://www.w3.org/2001/xml-events" xmlns:xlink="http://www.w3.org/1999/xlink"><defs /><polyline fill="none" points="55.539,117.1525 51.6339,117.5864 48.5966,116.2847 34.278,104.1356 28.2034,95.4576 22.9966,80.2712 15.6203,66.3864 10.4136,44.2576 8.678,8.678 13.4508,15.1864 18.6576,26.9017 31.6746,65.0847 76.3661,64.2169 92.4203,65.9525 93.2881,59.4441 89.3831,31.2407 90.2508,23.4305 98.4949,17.7898 105.4373,17.7898 110.6441,22.1288 112.8136,27.7695 114.9831,37.3153 114.9831,55.9729 117.1525,64.6508 116.7186,70.7254 108.9085,75.9322 104.5695,81.5729 97.6271,96.3254 92.4203,101.5322 81.139,107.6068 55.1051,118.4542 43.3898,119.322" stroke="#00007f" stroke-width="2" /><polyline fill="none" points="42.9559,79.8373 42.9559,79.8373" stroke="#0080ff" stroke-width="2" /><polyline fill="none" points="41.6542,73.3288 43.8237,82.4407" stroke="#7cff79" stroke-width="2" /><polyline fill="none" points="82.8746,74.6305 82.0068,85.0441" stroke="#ff9400" stroke-width="2" /><polyline fill="none" points="44.6915,94.1559 45.1254,96.7593 52.0678,99.7966 62.9153,99.3627 70.2915,97.1932" stroke="#7f0000" stroke-width="2" /></svg>