<?xml version="1.0" encoding="utf-8" ?>
<svg baseProfile="tiny" height="128" version="1.2" viewBox="0,0,128,128" width="128" xmlns="http://www.w3.org/2000/svg" xmlns:ev="http://www.w3.org/2001/xml-events" xmlns:xlink="http://www.w3.org/1999/xlink"><defs /><polyline fill="none" points="53.8034,26.0339 55.539,22.1288 62.4814,19.5254 69.8576,19.0915 74.1966,22.5627" stroke="#00007f" stroke-width="2" /><polyline fill="none" points="76.3661,22.9966 79.4034,16.922 90.2508,8.678 90.6847,16.4881 88.0814,24.7322" stroke="#0010ff" stroke-width="2" /><polyline fill="none" points="54.6712,28.6373 42.522,18.2237 36.8814,15.1864 36.0136,17.7898 37.3153,23.4305 39.9186,29.5051 42.9559,32.1085" stroke="#00a4ff" stroke-width="2" /><polyline fill="none" points="41.2203,32.9763 36.8814,37.3153 31.6746,51.2 31.6746,59.4441 35.1458,64.6508 95.0237,67.2542 102.8339,54.2373 102.8339,43.3898 98.9288,34.7119 95.8915,32.1085 92.4203,32.1085" stroke="#3fffb7" stroke-width="2" /><polyline fill="none" points="50.7661,49.0305 26.9017,42.0881" stroke="#b7ff3f" stroke-width="2" /><polyline fill="none" points="39.4847,61.1797 23.4305,57.2746 8.678,55.1051" stroke="#ffb900" stroke-width="2" /><polyline fill="none" points="88.9492,58.1424 90.2508,55.539 119.322,49.0305" stroke="#ff3000" stroke-width="2" /><polyline fill="none" points="85.0441,50.3322 85.0441,45.5593 86.7797,41.6542 102.8339,32.9763 116.7186,29.0712" stroke="#7f0000" stroke-width="2" /></svg>