<?xml version="1.0" encoding="utf-8" ?>
<svg baseProfile="tiny" height="128" version="1.2" viewBox="0,0,128,128" width="128" xmlns="http://www.w3.org/2000/svg" xmlns:ev="http://www.w3.org/2001/xml-events" xmlns:xlink="http://www.w3.org/1999/xlink"><defs /><polyline fill="none" points="52.5017,56.4068 49.0305,56.4068 44.2576,52.9356 38.6169,43.8237 36.0136,36.4475 35.5797,27.7695 36.4475,23.4305 45.1254,8.678 48.5966,10.8475 51.2,15.1864 51.6339,19.0915 53.8034,20.3932 75.4983,21.261 78.1017,15.6203 83.3085,9.1119 90.2508,23.4305 89.8169,29.939 84.6102,43.3898 74.6305,56.4068 65.5186,59.0102 47.7288,59.0102 47.2949,56.8407" stroke="#00007f" stroke-width="2" /><polyline fill="none" points="34.278,23.8644 48.5966,19.9593 96.7593,21.6949" stroke="#0010ff" stroke-width="2" /><polyline fill="none" points="59.0102,46.4271 57.7085,44.6915 59.4441,42.522 68.5559,41.6542 74.6305,36.4475 88.9492,31.2407 101.0983,29.939 112.3797,29.939 119.322,31.2407" stroke="#00a4ff" stroke-width="2" /><polyline fill="none" points="65.0847,37.3153 73.7627,39.4847 105.0034,39.9186 113.6814,44.2576" stroke="#3fffb7" stroke-width="2" /><polyline fill="none" points="64.6508,41.2203 95.0237,48.1627 111.078,49.8983" stroke="#b7ff3f" stroke-width="2" /><polyline fill="none" points="68.122,38.6169 50.7661,42.0881 19.9593,42.0881 13.0169,45.5593 10.4136,49.0305" stroke="#ffb900" stroke-width="2" /><polyline fill="none" points="70.2915,37.3153 62.0475,44.2576 27.7695,60.3119 23.4305,64.6508 22.1288,70.7254" stroke="#ff3000" stroke-width="2" /><polyline fill="none" points="65.5186,39.9186 61.1797,41.6542 45.9932,42.522 29.5051,50.3322 8.678,57.7085" stroke="#7f0000" stroke-width="2" /></svg>