<?xml version="1.0" encoding="utf-8" ?>
<svg baseProfile="tiny" height="128" version="1.2" viewBox="0,0,128,128" width="128" xmlns="http://www.w3.org/2000/svg" xmlns:ev="http://www.w3.org/2001/xml-events" xmlns:xlink="http://www.w3.org/1999/xlink"><defs /><polyline fill="none" points="75.9322,13.8847 57.2746,12.1492 48.5966,15.6203 39.4847,22.1288 37.7492,25.6 42.9559,33.4102 63.3492,42.522 75.4983,42.522 87.2136,46.861 101.0983,45.1254 101.5322,39.4847" stroke="#00007f" stroke-width="2" /><polyline fill="none" points="69.4237,13.4508 91.9864,22.9966 105.4373,15.6203 111.078,15.1864 114.9831,16.922 117.1525,19.9593 117.1525,29.939 112.8136,34.278 102.4,36.0136" stroke="#0000e8" stroke-width="2" /><polyline fill="none" points="107.1729,17.3559 113.2475,17.7898 111.9458,20.3932 108.4746,20.3932" stroke="#0038ff" stroke-width="2" /><polyline fill="none" points="110.6441,28.2034 106.739,28.6373" stroke="#0094ff" stroke-width="2" /><polyline fill="none" points="107.1729,15.1864 108.0407,13.4508 116.7186,8.678 118.8881,9.1119 119.322,14.7525" stroke="#0cf4ea" stroke-width="2" /><polyline fill="none" points="108.9085,37.7492 109.3424,44.2576 111.078,45.1254 114.1153,38.1831 115.4169,32.1085" stroke="#56ffa0" stroke-width="2" /><polyline fill="none" points="89.8169,46.861 85.478,55.9729 80.7051,62.9153 80.2712,62.0475" stroke="#a0ff56" stroke-width="2" /><polyline fill="none" points="78.1017,44.6915 75.0644,52.0678 67.2542,63.7831 65.9525,63.3492" stroke="#eaff0c" stroke-width="2" /><polyline fill="none" points="65.0847,41.2203 52.5017,64.6508" stroke="#ffaa00" stroke-width="2" /><polyline fill="none" points="54.2373,39.0508 49.4644,40.7864 35.1458,54.2373" stroke="#ff5500" stroke-width="2" /><polyline fill="none" points="42.522,20.3932 34.278,17.3559 18.6576,22.1288 8.678,22.9966" stroke="#e80000" stroke-width="2" /><polyline fill="none" points="8.678,22.9966 15.1864,24.7322 29.0712,19.9593 32.9763,19.9593 37.7492,22.1288" stroke="#7f0000" stroke-width="2" /></svg>