<?xml version="1.0" encoding="utf-8" ?>
<svg baseProfile="tiny" height="128" version="1.2" viewBox="0,0,128,128" width="128" xmlns="http://www.w3.org/2000/svg" xmlns:ev="http://www.w3.org/2001/xml-events" xmlns:xlink="http://www.w3.org/1999/xlink"><defs /><polyline fill="none" points="43.686,86.4983 41.0648,94.3618 35.8225,100.4778 32.3276,99.6041 27.959,95.2355 27.0853,92.1775 28.3959,90.8669" stroke="#00007f" stroke-width="2" /><polyline fill="none" points="62.0341,88.6826 63.7816,97.4198 68.1502,101.3515 73.3925,101.3515 83.0034,97.4198 87.372,92.6143 84.314,92.1775" stroke="#0000f1" stroke-width="2" /><polyline fill="none" points="39.7543,24.0273 34.0751,31.4539 29.7065,41.9386 29.7065,50.6758 34.5119,60.7235 41.0648,65.529 51.9863,66.8396 58.9761,66.4027 68.587,60.7235 77.3242,43.2491 79.0717,31.0171 78.6348,9.6109 67.7133,24.901 63.3447,25.3379 52.4232,21.843 46.744,21.4061 44.1229,23.5904 44.5597,18.785 42.3754,8.7372 40.628,13.1058 38.4437,25.7747" stroke="#004cff" stroke-width="2" /><polyline fill="none" points="41.5017,37.57 44.1229,36.2594 44.9966,34.9488 43.686,34.5119 41.5017,36.6962 43.686,34.5119 42.3754,37.57 44.5597,38.0068" stroke="#00b0ff" stroke-width="2" /><polyline fill="none" points="69.8976,36.6962 65.0922,38.0068 68.587,36.2594 62.9078,38.8805" stroke="#29ffcd" stroke-width="2" /><polyline fill="none" points="50.6758,44.9966 51.1126,49.802 55.0444,45.8703 51.9863,44.9966" stroke="#7cff79" stroke-width="2" /><polyline fill="none" points="51.5495,50.6758 51.5495,55.4812 54.1706,61.1604 64.2184,55.9181 57.2287,54.1706" stroke="#cdff29" stroke-width="2" /><polyline fill="none" points="51.1126,49.802 50.6758,56.3549 48.9283,58.5392 46.3072,58.9761 44.5597,54.6075" stroke="#ffc400" stroke-width="2" /><polyline fill="none" points="69.8976,61.5973 85.6246,70.7713 99.1672,84.7509 102.6621,90.8669 112.273,116.2048 111.8362,119.2628 107.9044,118.8259" stroke="#ff6700" stroke-width="2" /><polyline fill="none" points="32.7645,61.1604 24.4642,66.4027 17.9113,72.5188 12.6689,79.0717 10.0478,86.0614 8.7372,96.5461 10.4846,112.7099 13.1058,113.5836 16.1638,112.7099" stroke="#f10700" stroke-width="2" /><polyline fill="none" points="27.959,91.7406 30.1433,78.6348 27.959,67.2765" stroke="#7f0000" stroke-width="2" /></svg>