<?xml version="1.0" encoding="utf-8" ?>
<svg baseProfile="tiny" height="128" version="1.2" viewBox="0,0,128,128" width="128" xmlns="http://www.w3.org/2000/svg" xmlns:ev="http://www.w3.org/2001/xml-events" xmlns:xlink="http://www.w3.org/1999/xlink"><defs /><polyline fill="none" points="45.1254,46.861 22.9966,45.1254 18.6576,45.9932 15.6203,50.3322 12.1492,71.1593 12.1492,98.061 12.5831,104.5695 16.0542,111.078 35.1458,117.1525 47.2949,119.322 59.4441,118.4542 75.0644,111.078 78.5356,102.8339 79.4034,86.3458 73.7627,72.461" stroke="#00007f" stroke-width="2" /><polyline fill="none" points="73.3288,70.2915 65.9525,59.878 41.2203,41.2203" stroke="#0000e8" stroke-width="2" /><polyline fill="none" points="41.2203,41.2203 41.2203,41.2203" stroke="#0038ff" stroke-width="2" /><polyline fill="none" points="37.7492,41.2203 19.5254,14.7525 15.6203,10.8475 9.9797,8.678 8.678,18.2237 13.0169,33.4102 21.6949,52.0678" stroke="#0094ff" stroke-width="2" /><polyline fill="none" points="45.9932,43.8237 48.1627,37.3153 51.6339,33.8441" stroke="#0cf4ea" stroke-width="2" /><polyline fill="none" points="61.6136,18.6576 64.2169,33.8441 67.2542,39.9186 75.9322,76.3661" stroke="#56ffa0" stroke-width="2" /><polyline fill="none" points="43.3898,73.7627 46.861,73.7627 49.8983,75.9322 42.9559,75.0644 37.7492,72.461" stroke="#a0ff56" stroke-width="2" /><polyline fill="none" points="37.7492,72.461 37.7492,72.461" stroke="#eaff0c" stroke-width="2" /><polyline fill="none" points="66.3864,78.5356 56.8407,82.0068 53.8034,81.139 62.0475,76.8 71.1593,74.6305" stroke="#ffaa00" stroke-width="2" /><polyline fill="none" points="71.5932,74.6305 71.5932,74.6305" stroke="#ff5500" stroke-width="2" /><polyline fill="none" points="52.0678,95.0237 48.1627,97.1932 44.6915,104.1356 41.2203,105.0034 26.9017,102.4 16.4881,98.4949 19.9593,98.4949 35.5797,107.1729 59.0102,109.7763 77.2339,102.8339" stroke="#e80000" stroke-width="2" /><polyline fill="none" points="77.2339,102.8339 77.2339,102.8339" stroke="#7f0000" stroke-width="2" /></svg>