<?xml version="1.0" encoding="utf-8" ?>
<svg baseProfile="tiny" height="128" version="1.2" viewBox="0,0,128,128" width="128" xmlns="http://www.w3.org/2000/svg" xmlns:ev="http://www.w3.org/2001/xml-events" xmlns:xlink="http://www.w3.org/1999/xlink"><defs /><polyline fill="none" points="78.9695,60.7458 88.0814,53.3695 93.722,51.2 98.4949,52.0678 100.6644,55.1051 98.4949,58.1424 82.0068,63.7831 75.0644,62.4814" stroke="#00007f" stroke-width="2" /><polyline fill="none" points="51.2,59.4441 42.0881,55.1051 26.4678,51.6339 26.4678,53.3695 29.939,56.4068 45.9932,62.9153 53.3695,62.9153 53.3695,59.878" stroke="#0000de" stroke-width="2" /><polyline fill="none" points="40.7864,34.7119 49.4644,29.939 62.4814,26.0339 75.0644,27.3356 90.6847,33.8441 95.8915,37.7492 100.6644,29.939 110.2102,8.678 110.2102,26.0339 112.8136,49.4644 111.5119,55.9729 107.1729,62.9153" stroke="#0028ff" stroke-width="2" /><polyline fill="none" points="30.8068,35.5797 27.7695,14.3186 26.9017,12.1492 24.2983,13.4508 11.2814,29.0712 8.678,44.6915 9.5458,56.8407 16.4881,67.2542 31.6746,79.4034 41.2203,83.3085" stroke="#0080ff" stroke-width="2" /><polyline fill="none" points="68.122,74.1966 75.0644,79.4034 69.8576,84.6102 64.2169,87.6475 59.0102,75.4983 59.0102,74.6305 60.7458,73.7627" stroke="#00d4ff" stroke-width="2" /><polyline fill="none" points="62.0475,88.0814 63.3492,98.4949 75.9322,100.6644 75.9322,99.7966" stroke="#36ffc0" stroke-width="2" /><polyline fill="none" points="60.3119,91.9864 52.0678,97.1932" stroke="#7cff79" stroke-width="2" /><polyline fill="none" points="101.9661,68.9898 100.6644,70.2915 97.1932,83.3085 94.5898,104.1356 91.1186,109.7763 78.9695,116.2847 65.5186,119.322 54.6712,119.322 47.2949,117.5864 41.6542,111.078 38.6169,104.1356 38.1831,83.3085" stroke="#c0ff36" stroke-width="2" /><polyline fill="none" points="84.1763,87.2136 111.9458,69.8576" stroke="#ffe500" stroke-width="2" /><polyline fill="none" points="84.6102,91.1186 98.061,93.722 116.2847,101.0983" stroke="#ff9400" stroke-width="2" /><polyline fill="none" points="87.2136,99.7966 95.4576,104.1356 101.9661,109.3424" stroke="#ff4600" stroke-width="2" /><polyline fill="none" points="47.2949,86.7797 19.9593,71.1593" stroke="#de0000" stroke-width="2" /><polyline fill="none" points="40.7864,88.0814 21.6949,95.0237" stroke="#7f0000" stroke-width="2" /></svg>