<?xml version="1.0" encoding="utf-8" ?>
<svg baseProfile="tiny" height="128" version="1.2" viewBox="0,0,128,128" width="128" xmlns="http://www.w3.org/2000/svg" xmlns:ev="http://www.w3.org/2001/xml-events" xmlns:xlink="http://www.w3.org/1999/xlink"><defs /><polyline fill="none" points="41.6542,25.1661 38.6169,29.939 35.1458,41.6542 35.1458,52.5017 37.7492,57.2746 41.6542,62.0475 49.0305,66.3864 57.2746,68.9898 68.9898,68.9898 81.5729,65.5186 88.5153,54.2373 90.2508,45.1254 89.3831,33.4102 86.7797,27.3356 82.4407,21.6949 77.2339,17.3559 72.8949,16.0542 50.3322,15.1864 45.5593,16.922 38.6169,22.5627" stroke="#00007f" stroke-width="2" /><polyline fill="none" points="34.278,29.939 27.7695,12.5831 36.4475,15.6203 48.1627,16.4881" stroke="#0000d5" stroke-width="2" /><polyline fill="none" points="80.2712,14.3186 96.7593,8.678 92.4203,25.1661" stroke="#001cff" stroke-width="2" /><polyline fill="none" points="85.478,23.4305 88.5153,19.9593 87.2136,24.7322" stroke="#006cff" stroke-width="2" /><polyline fill="none" points="36.0136,23.4305 34.278,15.6203 41.2203,17.7898" stroke="#00b8ff" stroke-width="2" /><polyline fill="none" points="51.2,33.8441 52.5017,41.6542" stroke="#1cffda" stroke-width="2" /><polyline fill="none" points="70.7254,33.8441 72.0271,42.522" stroke="#5cff9a" stroke-width="2" /><polyline fill="none" points="59.4441,46.4271 68.5559,45.1254 68.9898,46.861 65.9525,49.4644 55.9729,43.8237" stroke="#9aff5c" stroke-width="2" /><polyline fill="none" points="66.8203,53.3695 66.8203,59.878" stroke="#daff1c" stroke-width="2" /><polyline fill="none" points="55.1051,60.3119 59.878,64.2169 69.4237,66.3864 72.8949,64.6508 75.4983,57.7085" stroke="#ffcb00" stroke-width="2" /><polyline fill="none" points="8.678,63.7831 24.2983,55.9729 39.0508,52.9356" stroke="#ff8500" stroke-width="2" /><polyline fill="none" points="31.2407,67.6881 39.9186,61.1797" stroke="#ff3b00" stroke-width="2" /><polyline fill="none" points="83.7424,51.2 98.4949,44.2576 103.2678,43.3898 113.2475,44.2576 119.322,49.0305" stroke="#d50000" stroke-width="2" /><polyline fill="none" points="83.3085,60.7458 105.0034,59.4441" stroke="#7f0000" stroke-width="2" /></svg>