<?xml version="1.0" encoding="utf-8" ?>
<svg baseProfile="tiny" height="128" version="1.2" viewBox="0,0,128,128" width="128" xmlns="http://www.w3.org/2000/svg" xmlns:ev="http://www.w3.org/2001/xml-events" xmlns:xlink="http://www.w3.org/1999/xlink"><defs /><polyline fill="none" points="24.2983,32.5424 42.9559,25.6 62.4814,24.7322 69.4237,26.4678 76.3661,32.5424 82.4407,45.1254 81.139,53.8034 76.3661,59.4441 67.6881,66.8203 57.7085,72.461 48.5966,75.9322 39.0508,74.6305 22.1288,66.3864 11.7153,55.539 9.9797,52.5017 8.678,44.2576 11.7153,37.7492 22.1288,29.939 27.3356,29.0712" stroke="#00007f" stroke-width="2" /><polyline fill="none" points="27.7695,39.4847 27.7695,39.4847" stroke="#0000fe" stroke-width="2" /><polyline fill="none" points="33.8441,45.5593 34.7119,44.2576" stroke="#0060ff" stroke-width="2" /><polyline fill="none" points="64.2169,45.1254 64.2169,45.1254" stroke="#00d4ff" stroke-width="2" /><polyline fill="none" points="65.5186,45.9932 67.2542,45.9932 67.2542,44.6915 65.5186,43.8237 65.0847,45.5593" stroke="#4cffaa" stroke-width="2" /><polyline fill="none" points="49.0305,49.4644 50.3322,51.6339 51.6339,50.3322 53.3695,53.3695 55.1051,52.5017 55.1051,49.8983" stroke="#aaff4c" stroke-width="2" /><polyline fill="none" points="63.7831,25.1661 79.4034,16.0542 79.4034,35.5797 81.139,48.1627" stroke="#ffe500" stroke-width="2" /><polyline fill="none" points="35.1458,25.1661 35.1458,21.6949 30.8068,16.0542 19.5254,8.678 18.2237,15.6203 9.9797,39.4847" stroke="#ff7a00" stroke-width="2" /><polyline fill="none" points="51.6339,45.5593 51.6339,45.9932" stroke="#fe1200" stroke-width="2" /><polyline fill="none" points="76.8,47.2949 87.6475,50.7661 102.4,51.6339 114.1153,57.2746 117.1525,63.3492 119.322,73.7627 118.8881,81.139 116.2847,86.7797 98.9288,99.3627 91.1186,102.8339 89.3831,101.0983 89.3831,92.8542 77.6678,89.8169 75.9322,94.1559 72.0271,98.061 68.5559,90.6847 66.3864,88.5153 54.2373,85.478 49.4644,89.3831" stroke="#7f0000" stroke-width="2" /></svg>