<?xml version="1.0" encoding="utf-8" ?>
<svg baseProfile="tiny" height="128" version="1.2" viewBox="0,0,128,128" width="128" xmlns="http://www.w3.org/2000/svg" xmlns:ev="http://www.w3.org/2001/xml-events" xmlns:xlink="http://www.w3.org/1999/xlink"><defs /><polyline fill="none" points="10.4136,41.2203 17.3559,13.0169 26.9017,36.0136 67.6881,35.1458 75.0644,37.7492 89.8169,17.7898 98.4949,8.678 99.3627,9.1119 100.6644,36.4475 95.8915,77.2339 90.2508,87.2136 78.9695,95.8915 65.0847,98.9288 44.6915,99.3627 34.7119,97.1932 22.9966,91.1186 14.7525,80.7051 11.2814,68.5559 8.678,50.7661 9.9797,39.4847" stroke="#00007f" stroke-width="2" /><polyline fill="none" points="40.3525,55.539 37.7492,55.9729 35.5797,61.1797 36.0136,62.9153 38.6169,64.2169 41.2203,64.2169 43.3898,62.0475 44.2576,57.2746 39.9186,53.3695" stroke="#0000ff" stroke-width="2" /><polyline fill="none" points="65.5186,55.9729 62.9153,57.7085 62.0475,61.1797 62.0475,62.9153 65.0847,65.0847 68.9898,64.2169 69.8576,60.3119 68.5559,57.2746 64.2169,55.9729" stroke="#0080ff" stroke-width="2" /><polyline fill="none" points="50.3322,70.7254 50.3322,75.0644 52.9356,78.5356 55.1051,76.8 55.1051,72.8949 53.3695,70.2915 50.3322,68.9898" stroke="#15ffe1" stroke-width="2" /><polyline fill="none" points="52.0678,77.6678 52.0678,82.4407 47.2949,88.0814 42.9559,89.8169 40.3525,86.3458" stroke="#7cff79" stroke-width="2" /><polyline fill="none" points="52.5017,76.3661 52.9356,86.7797 55.9729,88.9492 60.3119,87.2136" stroke="#e4ff12" stroke-width="2" /><polyline fill="none" points="58.1424,80.7051 75.0644,72.0271 92.4203,67.6881 111.078,67.6881 119.322,70.7254" stroke="#ff9400" stroke-width="2" /><polyline fill="none" points="64.2169,80.7051 76.3661,75.0644 91.9864,70.7254 107.6068,70.7254 117.5864,76.8" stroke="#ff1d00" stroke-width="2" /><polyline fill="none" points="64.6508,82.0068 96.3254,90.2508" stroke="#7f0000" stroke-width="2" /></svg>