<?xml version="1.0" encoding="utf-8" ?>
<svg baseProfile="tiny" height="128" version="1.2" viewBox="0,0,128,128" width="128" xmlns="http://www.w3.org/2000/svg" xmlns:ev="http://www.w3.org/2001/xml-events" xmlns:xlink="http://www.w3.org/1999/xlink"><defs /><polyline fill="none" points="85.9119,48.1627 88.9492,42.9559 88.5153,33.8441 85.9119,24.7322 82.4407,18.2237 75.9322,10.4136 67.6881,8.678 55.539,8.678 40.7864,14.3186 36.0136,22.5627 33.8441,39.9186 36.4475,46.861 41.6542,52.9356 51.6339,56.8407 64.6508,55.9729 73.3288,53.3695 84.6102,44.2576" stroke="#00007f" stroke-width="2" /><polyline fill="none" points="49.4644,22.9966 49.4644,22.5627" stroke="#0000d1" stroke-width="2" /><polyline fill="none" points="70.2915,20.8271 70.2915,20.8271" stroke="#0010ff" stroke-width="2" /><polyline fill="none" points="68.5559,23.8644 68.5559,23.8644" stroke="#0058ff" stroke-width="2" /><polyline fill="none" points="68.5559,22.9966 68.5559,22.9966" stroke="#00a4ff" stroke-width="2" /><polyline fill="none" points="68.5559,22.9966 68.5559,22.9966" stroke="#05ecf1" stroke-width="2" /><polyline fill="none" points="68.5559,22.9966 68.5559,22.9966" stroke="#3fffb7" stroke-width="2" /><polyline fill="none" points="68.5559,22.9966 68.5559,22.9966" stroke="#7cff79" stroke-width="2" /><polyline fill="none" points="68.5559,22.9966 68.5559,22.9966" stroke="#b7ff3f" stroke-width="2" /><polyline fill="none" points="68.5559,13.8847 68.5559,15.1864" stroke="#f1fc05" stroke-width="2" /><polyline fill="none" points="63.7831,32.9763 42.522,32.9763 27.7695,35.5797 8.678,35.1458" stroke="#ffb900" stroke-width="2" /><polyline fill="none" points="55.1051,38.1831 52.5017,39.9186 41.2203,40.7864 32.1085,45.5593 20.8271,48.5966" stroke="#ff7300" stroke-width="2" /><polyline fill="none" points="53.8034,45.1254 45.1254,51.2 34.7119,65.5186" stroke="#ff3000" stroke-width="2" /><polyline fill="none" points="70.7254,36.0136 75.4983,31.2407 81.5729,28.6373 91.1186,19.9593 98.061,16.4881" stroke="#d10000" stroke-width="2" /><polyline fill="none" points="78.5356,35.1458 89.3831,27.7695 103.7017,23.4305 107.6068,20.8271 119.322,19.5254" stroke="#7f0000" stroke-width="2" /></svg>