<?xml version="1.0" encoding="utf-8" ?>
<svg baseProfile="tiny" height="128" version="1.2" viewBox="0,0,128,128" width="128" xmlns="http://www.w3.org/2000/svg" xmlns:ev="http://www.w3.org/2001/xml-events" xmlns:xlink="http://www.w3.org/1999/xlink"><defs /><polyline fill="none" points="87.6475,42.9559 81.5729,37.3153 78.9695,32.9763 77.6678,23.4305 78.9695,20.8271 81.5729,19.5254 88.5153,19.5254 89.8169,21.6949 91.9864,8.678 98.9288,23.4305 103.7017,22.9966 105.4373,21.261 107.1729,9.1119 111.078,25.1661 117.5864,29.939 119.322,38.1831 108.0407,44.6915 84.6102,43.3898" stroke="#00007f" stroke-width="2" /><polyline fill="none" points="87.6475,30.8068 87.6475,34.278 92.4203,34.7119 93.722,32.5424 92.4203,31.6746 85.9119,31.6746" stroke="#0080ff" stroke-width="2" /><polyline fill="none" points="106.3051,30.8068 104.1356,32.9763 107.6068,34.278 108.4746,31.6746 104.5695,30.8068" stroke="#7cff79" stroke-width="2" /><polyline fill="none" points="109.7763,43.8237 83.3085,43.8237 62.4814,48.5966 54.2373,49.0305 49.4644,51.2 47.2949,54.2373 45.9932,58.1424 46.861,65.9525 49.0305,67.2542 60.3119,67.2542 79.4034,62.4814 108.9085,58.1424 112.8136,51.2 111.5119,46.4271 105.8712,38.1831 98.9288,35.5797" stroke="#ff9400" stroke-width="2" /><polyline fill="none" points="54.2373,46.861 44.6915,31.6746 32.9763,19.9593 25.1661,17.3559 10.4136,17.7898 8.678,18.6576 9.1119,22.1288 13.4508,24.7322 25.1661,23.4305 29.939,25.6 35.1458,30.8068 41.2203,40.7864 47.2949,48.1627" stroke="#7f0000" stroke-width="2" /></svg>