<?xml version="1.0" encoding="utf-8" ?>
<svg baseProfile="tiny" height="128" version="1.2" viewBox="0,0,128,128" width="128" xmlns="http://www.w3.org/2000/svg" xmlns:ev="http://www.w3.org/2001/xml-events" xmlns:xlink="http://www.w3.org/1999/xlink"><defs /><polyline fill="none" points="21.261,32.1085 21.261,10.8475 22.5627,8.678 26.4678,9.9797 39.0508,25.6 45.1254,22.1288 52.5017,20.3932 78.9695,20.3932 92.4203,23.4305 101.5322,16.0542 113.2475,12.5831 114.5492,23.8644 109.7763,39.4847 110.6441,69.4237 108.9085,73.7627 89.3831,98.4949 80.2712,104.5695 72.461,106.3051 62.9153,106.3051 51.6339,103.7017 41.2203,98.9288 32.5424,91.9864 20.8271,81.139 14.3186,72.0271 10.8475,63.7831 9.9797,50.3322 13.8847,42.522 19.0915,36.4475" stroke="#00007f" stroke-width="2" /><polyline fill="none" points="40.3525,45.5593 39.4847,46.4271" stroke="#0010ff" stroke-width="2" /><polyline fill="none" points="33.4102,66.3864 9.1119,65.5186" stroke="#00a4ff" stroke-width="2" /><polyline fill="none" points="33.4102,72.461 9.5458,77.6678 8.678,78.9695" stroke="#3fffb7" stroke-width="2" /><polyline fill="none" points="27.7695,84.1763 13.4508,92.8542 12.1492,96.7593" stroke="#b7ff3f" stroke-width="2" /><polyline fill="none" points="78.9695,72.0271 105.0034,65.5186 115.4169,65.5186 119.322,67.6881" stroke="#ffb900" stroke-width="2" /><polyline fill="none" points="85.9119,75.9322 107.6068,75.9322 108.9085,78.1017" stroke="#ff3000" stroke-width="2" /><polyline fill="none" points="80.7051,86.3458 114.1153,89.8169" stroke="#7f0000" stroke-width="2" /></svg>