<?xml version="1.0" encoding="utf-8" ?>
<svg baseProfile="tiny" height="128" version="1.2" viewBox="0,0,128,128" width="128" xmlns="http://www.w3.org/2000/svg" xmlns:ev="http://www.w3.org/2001/xml-events" xmlns:xlink="http://www.w3.org/1999/xlink"><defs /><polyline fill="none" points="73.3288,46.4271 70.7254,42.9559 59.0102,36.4475 55.539,36.0136 51.2,37.3153 28.6373,50.3322 15.6203,59.878 10.4136,67.6881 8.678,75.4983 9.1119,91.5525 15.1864,99.3627 38.1831,110.2102 66.8203,118.8881 79.4034,119.322 84.1763,116.2847 96.7593,96.3254 100.6644,87.2136 101.9661,78.9695 101.9661,65.9525 95.0237,54.6712 86.7797,47.2949 68.9898,45.5593" stroke="#00007f" stroke-width="2" /><polyline fill="none" points="19.5254,54.2373 22.9966,26.9017 29.939,8.678 31.6746,12.1492 32.5424,23.4305 38.6169,45.5593 40.7864,46.861 46.861,46.861 55.539,43.3898" stroke="#0080ff" stroke-width="2" /><polyline fill="none" points="84.1763,46.861 97.6271,32.5424 112.8136,22.1288 112.8136,26.4678 107.6068,47.7288 98.4949,66.8203" stroke="#7cff79" stroke-width="2" /><polyline fill="none" points="43.3898,62.0475 43.3898,62.0475" stroke="#ff9400" stroke-width="2" /><polyline fill="none" points="46.861,58.5763 42.522,59.0102 40.7864,62.9153 42.0881,64.6508 49.0305,64.6508 50.3322,62.4814 48.1627,60.3119 44.6915,61.1797 42.522,64.2169 46.861,65.0847 50.7661,63.3492 47.2949,62.4814" stroke="#7f0000" stroke-width="2" /></svg>