<?xml version="1.0" encoding="utf-8" ?>
<svg baseProfile="tiny" height="128" version="1.2" viewBox="0,0,128,128" width="128" xmlns="http://www.w3.org/2000/svg" xmlns:ev="http://www.w3.org/2001/xml-events" xmlns:xlink="http://www.w3.org/1999/xlink"><defs /><polyline fill="none" points="53.8034,32.9763 62.4814,29.0712 68.122,28.6373 73.3288,29.5051 77.6678,32.1085 81.139,36.8814 82.0068,43.3898 80.2712,51.6339 77.2339,57.2746 69.8576,60.7458 63.7831,59.4441 52.0678,49.8983 46.4271,42.0881" stroke="#00007f" stroke-width="2" /><polyline fill="none" points="50.7661,41.6542 55.1051,32.9763" stroke="#0000b1" stroke-width="2" /><polyline fill="none" points="68.9898,38.6169 69.4237,39.4847" stroke="#0000e3" stroke-width="2" /><polyline fill="none" points="77.2339,39.9186 76.8,40.3525" stroke="#0004ff" stroke-width="2" /><polyline fill="none" points="72.461,58.1424 73.7627,56.4068 72.0271,57.7085 71.5932,55.9729 73.3288,55.539 72.0271,57.7085 71.5932,56.4068 72.461,57.7085 71.5932,56.4068" stroke="#0030ff" stroke-width="2" /><polyline fill="none" points="59.878,30.8068 61.1797,19.0915 63.7831,12.5831 64.2169,30.8068" stroke="#005cff" stroke-width="2" /><polyline fill="none" points="69.8576,27.3356 76.8,8.678 75.4983,19.5254 79.8373,39.9186" stroke="#0088ff" stroke-width="2" /><polyline fill="none" points="56.8407,32.9763 52.0678,28.6373 46.4271,26.4678 35.1458,25.1661 26.4678,25.6 13.0169,29.939 9.9797,33.8441 8.678,39.9186 9.9797,43.3898 15.6203,49.8983 27.3356,57.2746 36.4475,61.1797 42.522,60.3119 52.5017,55.1051 62.9153,52.5017" stroke="#00b4ff" stroke-width="2" /><polyline fill="none" points="69.8576,58.5763 68.122,64.2169" stroke="#00e4f7" stroke-width="2" /><polyline fill="none" points="72.0271,60.3119 72.0271,65.5186" stroke="#22ffd4" stroke-width="2" /><polyline fill="none" points="75.4983,61.6136 76.3661,65.9525" stroke="#46ffb0" stroke-width="2" /><polyline fill="none" points="59.4441,40.7864 55.9729,39.9186" stroke="#69ff8d" stroke-width="2" /><polyline fill="none" points="61.6136,45.9932 55.9729,45.5593" stroke="#8dff69" stroke-width="2" /><polyline fill="none" points="66.3864,50.3322 58.1424,57.7085" stroke="#b0ff46" stroke-width="2" /><polyline fill="none" points="78.1017,46.4271 85.9119,46.861 94.5898,51.2" stroke="#d4ff22" stroke-width="2" /><polyline fill="none" points="81.139,52.0678 87.2136,53.8034 90.2508,58.1424" stroke="#f7f400" stroke-width="2" /><polyline fill="none" points="82.4407,55.9729 87.6475,62.4814 89.3831,67.6881 89.3831,70.7254" stroke="#ffc800" stroke-width="2" /><polyline fill="none" points="31.2407,65.0847 28.6373,68.9898 25.6,67.2542 23.4305,60.7458 23.8644,54.6712 18.6576,62.9153 16.4881,63.3492 14.3186,61.6136 13.4508,54.2373 14.7525,49.4644 18.6576,45.1254 16.922,46.4271" stroke="#ff9f00" stroke-width="2" /><polyline fill="none" points="52.0678,57.7085 59.4441,68.122 58.1424,70.7254 55.1051,71.5932 52.0678,70.2915 48.5966,66.8203 47.2949,63.7831 48.1627,58.1424" stroke="#ff7600" stroke-width="2" /><polyline fill="none" points="12.1492,33.4102 9.9797,30.3729 9.5458,23.8644 11.7153,20.3932 16.4881,18.6576 22.9966,20.3932 29.5051,27.7695" stroke="#ff4d00" stroke-width="2" /><polyline fill="none" points="38.1831,19.0915 50.3322,20.3932 53.8034,28.6373 53.8034,32.5424" stroke="#ff2500" stroke-width="2" /><polyline fill="none" points="22.9966,97.1932 17.3559,98.061 14.7525,101.0983 17.3559,106.3051 24.2983,108.0407 31.2407,105.8712" stroke="#e30000" stroke-width="2" /><polyline fill="none" points="52.5017,97.6271 56.4068,98.9288 59.4441,102.4 61.6136,108.4746 60.3119,112.3797 57.2746,114.5492 53.3695,114.1153 50.7661,111.5119 49.8983,105.0034 51.2,102.8339 54.2373,101.5322 59.0102,102.4 62.0475,105.4373 66.3864,119.322" stroke="#b10000" stroke-width="2" /><polyline fill="none" points="75.9322,93.722 78.1017,96.7593 78.9695,114.5492" stroke="#7f0000" stroke-width="2" /></svg>