<?xml version="1.0" encoding="utf-8" ?>
<svg baseProfile="tiny" height="128" version="1.2" viewBox="0,0,128,128" width="128" xmlns="http://www.w3.org/2000/svg" xmlns:ev="http://www.w3.org/2001/xml-events" xmlns:xlink="http://www.w3.org/1999/xlink"><defs /><polyline fill="none" points="92.8542,26.9017 78.1017,20.8271 73.3288,20.3932 55.9729,20.8271 52.5017,25.1661 12.1492,8.678 10.8475,11.2814 14.3186,28.2034 20.3932,41.2203" stroke="#00007f" stroke-width="2" /><polyline fill="none" points="94.5898,24.7322 114.9831,16.4881 118.0203,16.4881 119.322,17.7898 118.8881,25.1661 113.6814,35.1458 109.7763,39.0508 106.739,49.8983 101.0983,55.539 101.0983,66.8203 96.7593,74.6305 91.5525,78.5356 76.3661,83.3085 69.8576,83.3085 55.539,76.3661 39.0508,71.5932 26.4678,57.2746 10.8475,43.3898 8.678,38.6169" stroke="#0010ff" stroke-width="2" /><polyline fill="none" points="70.7254,56.4068 73.3288,59.4441 77.6678,59.878 74.6305,56.4068 71.5932,56.4068 69.8576,57.2746" stroke="#00a4ff" stroke-width="2" /><polyline fill="none" points="70.2915,55.539 57.2746,55.539 40.3525,52.5017 33.8441,49.8983 41.6542,51.2" stroke="#3fffb7" stroke-width="2" /><polyline fill="none" points="68.5559,58.1424 50.3322,58.1424 42.522,59.4441" stroke="#b7ff3f" stroke-width="2" /><polyline fill="none" points="69.8576,58.5763 66.8203,58.5763 62.4814,62.0475 55.1051,64.6508" stroke="#ffb900" stroke-width="2" /><polyline fill="none" points="77.6678,55.9729 84.1763,56.8407 96.3254,54.2373 101.5322,51.6339" stroke="#ff3000" stroke-width="2" /><polyline fill="none" points="77.6678,57.7085 82.4407,59.4441" stroke="#7f0000" stroke-width="2" /></svg>