<?xml version="1.0" encoding="utf-8" ?>
<svg baseProfile="tiny" height="128" version="1.2" viewBox="0,0,128,128" width="128" xmlns="http://www.w3.org/2000/svg" xmlns:ev="http://www.w3.org/2001/xml-events" xmlns:xlink="http://www.w3.org/1999/xlink"><defs /><polyline fill="none" points="10.4136,56.8407 9.5458,14.3186 9.9797,19.5254 15.6203,27.7695 27.3356,34.7119 39.9186,45.5593 47.2949,41.2203 66.8203,41.2203 74.6305,43.3898 80.2712,47.2949 85.478,32.5424 97.1932,8.678 99.7966,9.1119 106.3051,36.0136 116.2847,63.3492 118.8881,74.1966 119.322,91.9864 118.4542,95.0237 114.9831,100.2305 107.6068,106.739 88.9492,115.8508 78.9695,118.4542 59.878,117.5864 54.6712,114.1153 46.4271,105.8712 41.6542,98.4949 31.2407,78.5356 26.9017,74.1966 8.678,47.2949" stroke="#00007f" stroke-width="2" /><polyline fill="none" points="15.1864,50.7661 15.1864,39.0508 17.7898,38.6169 24.7322,43.8237" stroke="#0000ff" stroke-width="2" /><polyline fill="none" points="91.9864,47.7288 102.4,29.939 103.7017,44.2576" stroke="#0080ff" stroke-width="2" /><polyline fill="none" points="36.4475,60.7458 36.0136,65.9525 40.7864,71.5932 50.3322,72.8949 52.9356,69.8576 53.3695,66.8203 53.3695,58.1424 49.4644,55.9729 37.3153,53.8034" stroke="#15ffe1" stroke-width="2" /><polyline fill="none" points="77.2339,54.6712 75.0644,59.878 75.0644,65.5186 76.8,68.5559 82.4407,72.0271 92.4203,72.461 94.1559,69.4237 94.1559,60.3119" stroke="#7cff79" stroke-width="2" /><polyline fill="none" points="85.478,62.0475 85.478,60.7458" stroke="#e4ff12" stroke-width="2" /><polyline fill="none" points="48.1627,64.2169 47.2949,64.6508" stroke="#ff9400" stroke-width="2" /><polyline fill="none" points="62.9153,80.7051 70.2915,78.9695 71.5932,81.139 70.2915,89.3831 68.122,89.8169 65.5186,87.6475 67.2542,95.0237 65.9525,100.2305 61.1797,102.8339 55.539,102.4 47.2949,97.6271 47.7288,92.4203" stroke="#ff1d00" stroke-width="2" /><polyline fill="none" points="65.0847,93.2881 65.0847,93.2881" stroke="#7f0000" stroke-width="2" /></svg>