<?xml version="1.0" encoding="utf-8" ?>
<svg baseProfile="tiny" height="128" version="1.2" viewBox="0,0,128,128" width="128" xmlns="http://www.w3.org/2000/svg" xmlns:ev="http://www.w3.org/2001/xml-events" xmlns:xlink="http://www.w3.org/1999/xlink"><defs /><polyline fill="none" points="57.2746,20.8271 48.5966,16.4881 37.3153,16.0542 27.7695,20.8271 21.261,33.8441 19.0915,47.2949 19.0915,58.5763 21.261,65.5186 31.2407,77.2339 38.1831,81.139 53.8034,83.3085 57.7085,82.8746 63.3492,79.8373 72.8949,73.7627 77.2339,68.5559 81.5729,59.0102 84.1763,42.0881 79.8373,32.9763 72.461,26.0339 65.5186,21.6949 61.1797,19.5254 52.9356,19.5254" stroke="#00007f" stroke-width="2" /><polyline fill="none" points="21.6949,28.2034 17.3559,10.4136 20.8271,10.8475 29.5051,16.4881" stroke="#0000fe" stroke-width="2" /><polyline fill="none" points="70.2915,23.4305 82.8746,8.678 82.4407,14.3186 75.9322,29.0712" stroke="#0060ff" stroke-width="2" /><polyline fill="none" points="71.5932,50.7661 89.8169,55.9729 119.322,58.5763" stroke="#00d4ff" stroke-width="2" /><polyline fill="none" points="75.4983,58.5763 95.0237,65.9525" stroke="#4cffaa" stroke-width="2" /><polyline fill="none" points="69.4237,62.0475 75.9322,67.2542 92.8542,75.9322" stroke="#aaff4c" stroke-width="2" /><polyline fill="none" points="35.5797,59.4441 8.678,66.8203" stroke="#ffe500" stroke-width="2" /><polyline fill="none" points="43.8237,65.5186 20.8271,77.6678" stroke="#ff7a00" stroke-width="2" /><polyline fill="none" points="27.7695,75.4983 27.7695,84.1763 22.1288,93.722" stroke="#fe1200" stroke-width="2" /><polyline fill="none" points="41.2203,70.7254 23.4305,95.8915" stroke="#7f0000" stroke-width="2" /></svg>