<?xml version="1.0" encoding="utf-8" ?>
<svg baseProfile="tiny" height="128" version="1.2" viewBox="0,0,128,128" width="128" xmlns="http://www.w3.org/2000/svg" xmlns:ev="http://www.w3.org/2001/xml-events" xmlns:xlink="http://www.w3.org/1999/xlink"><defs /><polyline fill="none" points="86.6395,39.1837 88.381,40.4898 89.2517,37.8776 86.2041,39.1837" stroke="#00007f" stroke-width="2" /><polyline fill="none" points="87.5102,40.4898 84.898,48.3265 81.8503,51.8095 79.2381,51.8095 78.8027,50.5034 80.5442,43.9728" stroke="#0000f1" stroke-width="2" /><polyline fill="none" points="86.2041,41.7959 90.5578,50.068 98.3946,45.2789" stroke="#004cff" stroke-width="2" /><polyline fill="none" points="85.7687,38.7483 80.1088,35.2653" stroke="#00b0ff" stroke-width="2" /><polyline fill="none" points="85.7687,37.4422 85.7687,33.0884 83.5918,30.0408" stroke="#29ffcd" stroke-width="2" /><polyline fill="none" points="89.6871,37.4422 103.619,30.9116 92.7347,33.9592 89.2517,37.8776" stroke="#7cff79" stroke-width="2" /><polyline fill="none" points="88.8163,38.7483 94.0408,40.0544" stroke="#cdff29" stroke-width="2" /><polyline fill="none" points="74.449,15.2381 80.9796,9.1429 80.9796,17.415 84.0272,19.5918 101.0068,24.381 108.4082,13.0612 107.9728,17.8503 110.1497,24.381" stroke="#ffc400" stroke-width="2" /><polyline fill="none" points="74.449,14.8027 57.4694,27.8639 51.8095,42.6667 51.3741,49.6327 55.7279,56.5986 62.2585,62.6939 76.1905,68.3537 103.1837,62.6939 111.0204,57.4694 114.5034,48.7619 119.2925,27.8639 117.9864,24.381 115.3741,22.6395 111.4558,22.2041 107.5374,23.9456" stroke="#ff6700" stroke-width="2" /><polyline fill="none" points="52.2449,39.1837 38.7483,40.9252 33.0884,43.9728 28.2993,49.1973 39.1837,53.9864 49.6327,52.6803 51.3741,50.9388" stroke="#f10700" stroke-width="2" /><polyline fill="none" points="29.6054,46.1497 26.1224,40.4898 11.7551,25.6871 8.7075,18.2857 9.1429,13.0612 16.9796,8.7075 18.7211,13.932 16.9796,26.5578 27.4286,33.9592" stroke="#7f0000" stroke-width="2" /></svg>