<?xml version="1.0" encoding="utf-8" ?>
<svg baseProfile="tiny" height="128" version="1.2" viewBox="0,0,128,128" width="128" xmlns="http://www.w3.org/2000/svg" xmlns:ev="http://www.w3.org/2001/xml-events" xmlns:xlink="http://www.w3.org/1999/xlink"><defs /><polyline fill="none" points="38.6169,57.7085 42.9559,55.9729 55.539,54.6712 72.8949,55.539 81.5729,60.7458 87.2136,65.9525 88.9492,74.6305 82.8746,79.8373 71.5932,83.7424 49.8983,83.7424 36.0136,78.9695 30.8068,76.3661 23.8644,69.4237 22.5627,65.0847 22.5627,58.1424 24.7322,55.539 31.2407,52.9356 40.7864,53.8034" stroke="#00007f" stroke-width="2" /><polyline fill="none" points="24.2983,61.1797 23.4305,85.0441 20.8271,98.061 16.0542,110.2102" stroke="#0000fe" stroke-width="2" /><polyline fill="none" points="38.6169,68.9898 39.0508,80.7051 36.8814,105.4373" stroke="#0060ff" stroke-width="2" /><polyline fill="none" points="76.8,83.3085 72.8949,95.8915 72.8949,107.1729" stroke="#00d4ff" stroke-width="2" /><polyline fill="none" points="98.4949,72.461 99.3627,85.9119 96.7593,101.0983" stroke="#4cffaa" stroke-width="2" /><polyline fill="none" points="23.4305,58.5763 19.9593,57.7085 17.7898,54.6712 15.6203,46.4271 15.6203,39.4847 20.3932,29.0712 20.8271,18.2237 15.6203,12.1492 8.678,8.678" stroke="#aaff4c" stroke-width="2" /><polyline fill="none" points="93.2881,69.8576 90.2508,69.4237 87.6475,65.0847 85.0441,55.1051 84.6102,42.9559 88.5153,37.3153 95.8915,32.5424 99.7966,32.5424 107.6068,39.9186 113.2475,49.8983 113.6814,58.1424 110.2102,62.4814 96.3254,70.2915 90.2508,69.8576 88.5153,66.8203 88.9492,57.7085" stroke="#ffe500" stroke-width="2" /><polyline fill="none" points="88.5153,39.4847 88.5153,25.6 91.1186,20.3932 93.2881,19.9593 101.0983,34.7119" stroke="#ff7a00" stroke-width="2" /><polyline fill="none" points="108.9085,33.4102 116.7186,21.261 119.322,31.2407 119.322,41.2203 118.0203,44.6915" stroke="#fe1200" stroke-width="2" /><polyline fill="none" points="92.4203,38.6169 92.4203,38.6169" stroke="#7f0000" stroke-width="2" /></svg>