<?xml version="1.0" encoding="utf-8" ?>
<svg baseProfile="tiny" height="128" version="1.2" viewBox="0,0,128,128" width="128" xmlns="http://www.w3.org/2000/svg" xmlns:ev="http://www.w3.org/2001/xml-events" xmlns:xlink="http://www.w3.org/1999/xlink"><defs /><polyline fill="none" points="14.9553,65.9794 9.2371,79.6151 9.2371,86.2131 11.8763,89.732 16.2749,91.9313 19.7938,90.6117 26.3918,70.378 52.7835,69.9381 61.1409,71.6976 61.1409,90.1718 65.5395,94.1306 71.6976,95.89 76.5361,85.7732 77.4158,68.1787 80.9347,64.6598 84.4536,55.8625" stroke="#00007f" stroke-width="2" /><polyline fill="none" points="85.3333,54.543 77.4158,51.4639 71.6976,45.7457 69.9381,35.189 73.457,28.5911 82.2543,19.354 91.9313,18.4742 95.89,21.1134 102.488,29.0309 103.8076,34.3093 102.9278,43.1065 99.8488,46.1856 93.2509,49.2646 80.9347,50.5842" stroke="#0000cc" stroke-width="2" /><polyline fill="none" points="82.6942,34.7491 86.2131,36.5086 85.7732,34.3093 84.0137,32.9897" stroke="#0008ff" stroke-width="2" /><polyline fill="none" points="82.6942,33.4296 78.7354,33.8694 68.1787,38.7079 60.701,43.5464 59.8213,45.3058 62.0206,45.3058" stroke="#004cff" stroke-width="2" /><polyline fill="none" points="80.4948,35.6289 73.0172,39.1478 69.0584,43.1065 66.8591,48.8247 67.7388,49.2646" stroke="#0090ff" stroke-width="2" /><polyline fill="none" points="82.6942,37.3883 80.9347,37.3883 78.2955,41.7869 75.2165,51.0241" stroke="#00d4ff" stroke-width="2" /><polyline fill="none" points="86.6529,33.4296 106.8866,28.5911 118.7629,29.0309" stroke="#29ffcd" stroke-width="2" /><polyline fill="none" points="87.9725,33.8694 100.7285,35.189 119.2027,39.1478" stroke="#5fff96" stroke-width="2" /><polyline fill="none" points="91.9313,33.8694 115.6838,48.3849" stroke="#96ff5f" stroke-width="2" /><polyline fill="none" points="91.0515,17.5945 100.2887,8.7973 101.1684,23.7526" stroke="#cdff29" stroke-width="2" /><polyline fill="none" points="76.9759,22.433 75.2165,23.7526 73.8969,22.433 68.6186,9.677 75.6564,11.4364 83.5739,18.4742" stroke="#ffe500" stroke-width="2" /><polyline fill="none" points="81.8144,24.1924 81.8144,24.1924" stroke="#ffa600" stroke-width="2" /><polyline fill="none" points="82.6942,24.1924 80.9347,25.512" stroke="#ff6700" stroke-width="2" /><polyline fill="none" points="90.6117,25.512 88.4124,23.7526" stroke="#ff2800" stroke-width="2" /><polyline fill="none" points="13.6357,63.3402 13.6357,48.8247 14.5155,47.0653 18.9141,44.866 28.1512,43.1065 51.4639,42.6667 67.7388,43.1065 71.2577,43.5464 62.9003,44.4261" stroke="#cc0000" stroke-width="2" /><polyline fill="none" points="14.0756,48.8247 10.1168,48.3849 15.8351,46.6254 8.7973,48.8247" stroke="#7f0000" stroke-width="2" /></svg>