<?xml version="1.0" encoding="utf-8" ?>
<svg baseProfile="tiny" height="128" version="1.2" viewBox="0,0,128,128" width="128" xmlns="http://www.w3.org/2000/svg" xmlns:ev="http://www.w3.org/2001/xml-events" xmlns:xlink="http://www.w3.org/1999/xlink"><defs /><polyline fill="none" points="99.3627,48.5966 93.2881,39.9186 80.2712,31.2407 62.0475,29.5051 49.8983,33.4102 40.7864,40.7864 34.7119,50.3322 32.5424,55.9729 31.2407,78.1017 36.0136,91.9864 39.0508,97.6271 44.2576,101.9661 49.4644,105.4373 56.4068,107.6068 70.2915,108.0407 76.8,106.3051 88.0814,101.0983 92.4203,97.1932 99.3627,87.2136 101.5322,80.7051 103.7017,54.6712 103.2678,49.0305 99.7966,41.6542 92.4203,35.5797" stroke="#00007f" stroke-width="2" /><polyline fill="none" points="39.9186,39.4847 56.4068,9.1119 57.7085,8.678 61.6136,20.8271 64.6508,25.6 68.122,27.3356" stroke="#0000f1" stroke-width="2" /><polyline fill="none" points="80.2712,31.6746 84.6102,21.261 95.8915,9.1119 95.0237,38.6169 95.8915,42.522" stroke="#004cff" stroke-width="2" /><polyline fill="none" points="80.7051,78.1017 99.3627,70.7254 113.2475,63.7831" stroke="#00b0ff" stroke-width="2" /><polyline fill="none" points="83.7424,89.8169 86.3458,87.6475 98.4949,84.6102 110.2102,84.1763" stroke="#29ffcd" stroke-width="2" /><polyline fill="none" points="85.9119,95.8915 113.2475,111.9458" stroke="#7cff79" stroke-width="2" /><polyline fill="none" points="49.8983,79.4034 27.3356,74.6305 13.0169,75.0644 8.678,78.5356" stroke="#cdff29" stroke-width="2" /><polyline fill="none" points="53.3695,90.2508 42.522,88.9492 31.2407,94.5898" stroke="#ffc400" stroke-width="2" /><polyline fill="none" points="51.6339,98.9288 49.8983,98.9288 40.3525,106.3051 26.4678,119.322" stroke="#ff6700" stroke-width="2" /><polyline fill="none" points="62.0475,54.6712 60.3119,55.539" stroke="#f10700" stroke-width="2" /><polyline fill="none" points="78.5356,52.0678 74.1966,55.539 73.7627,53.8034 77.2339,52.5017" stroke="#7f0000" stroke-width="2" /></svg>