<?xml version="1.0" encoding="utf-8" ?>
<svg baseProfile="tiny" height="128" version="1.2" viewBox="0,0,128,128" width="128" xmlns="http://www.w3.org/2000/svg" xmlns:ev="http://www.w3.org/2001/xml-events" xmlns:xlink="http://www.w3.org/1999/xlink"><defs /><polyline fill="none" points="63.3492,42.9559 60.3119,43.8237 62.9153,42.0881 63.7831,42.9559" stroke="#00007f" stroke-width="2" /><polyline fill="none" points="53.8034,40.7864 33.4102,42.9559" stroke="#0000cc" stroke-width="2" /><polyline fill="none" points="50.7661,48.1627 29.5051,54.2373" stroke="#0008ff" stroke-width="2" /><polyline fill="none" points="53.8034,49.4644 42.522,62.4814" stroke="#004cff" stroke-width="2" /><polyline fill="none" points="80.2712,38.1831 95.4576,38.1831" stroke="#0090ff" stroke-width="2" /><polyline fill="none" points="75.4983,47.2949 90.6847,47.7288" stroke="#00d4ff" stroke-width="2" /><polyline fill="none" points="76.8,54.2373 88.9492,56.8407 94.1559,56.4068" stroke="#29ffcd" stroke-width="2" /><polyline fill="none" points="60.7458,45.5593 61.1797,47.2949 59.878,49.8983 57.7085,49.8983 59.4441,51.2 61.6136,50.3322 62.0475,46.861 63.7831,50.7661 65.9525,50.7661 67.6881,49.0305" stroke="#5fff96" stroke-width="2" /><polyline fill="none" points="57.2746,30.3729 53.8034,31.2407 54.6712,29.5051 56.4068,29.5051" stroke="#96ff5f" stroke-width="2" /><polyline fill="none" points="70.2915,32.9763 67.2542,32.9763 67.6881,32.1085 68.9898,33.4102 67.2542,36.0136" stroke="#cdff29" stroke-width="2" /><polyline fill="none" points="30.8068,26.4678 31.2407,16.4881 33.4102,13.0169 35.1458,13.4508 45.5593,22.1288" stroke="#ffe500" stroke-width="2" /><polyline fill="none" points="47.2949,22.5627 63.3492,18.6576 71.5932,20.3932" stroke="#ffa600" stroke-width="2" /><polyline fill="none" points="71.5932,20.3932 82.4407,9.9797 85.0441,8.678 84.6102,17.3559 86.7797,26.9017" stroke="#ff6700" stroke-width="2" /><polyline fill="none" points="34.7119,29.939 26.9017,39.0508 23.4305,52.0678 22.5627,62.0475 26.0339,74.1966 31.6746,78.9695 39.0508,82.4407 46.861,83.3085 61.6136,82.4407 93.722,74.1966 108.0407,65.5186 110.6441,61.6136 114.5492,52.9356 113.6814,46.4271 109.7763,37.7492 95.4576,24.7322" stroke="#ff2800" stroke-width="2" /><polyline fill="none" points="30.8068,80.2712 28.2034,81.139 17.7898,90.2508 8.678,105.4373" stroke="#cc0000" stroke-width="2" /><polyline fill="none" points="100.2305,68.9898 108.0407,72.461 113.2475,78.1017 117.5864,87.6475 119.322,96.3254" stroke="#7f0000" stroke-width="2" /></svg>