<?xml version="1.0" encoding="utf-8" ?>
<svg baseProfile="tiny" height="128" version="1.2" viewBox="0,0,128,128" width="128" xmlns="http://www.w3.org/2000/svg" xmlns:ev="http://www.w3.org/2001/xml-events" xmlns:xlink="http://www.w3.org/1999/xlink"><defs /><polyline fill="none" points="13.4508,61.1797 17.7898,28.6373 18.2237,8.678 18.6576,13.4508 22.9966,26.4678 32.5424,45.5593 34.278,46.4271 43.8237,44.6915 55.9729,44.6915 83.7424,48.1627 97.6271,52.5017 105.0034,38.1831 111.078,19.5254 117.5864,47.2949 119.322,63.3492 118.4542,80.7051 108.9085,98.9288 102.8339,104.5695 92.4203,110.2102 82.4407,113.6814 67.2542,116.2847 33.8441,116.2847 26.4678,114.5492 17.3559,111.078 11.2814,104.1356 8.678,88.9492 8.678,60.3119 10.8475,59.0102" stroke="#00007f" stroke-width="2" /><polyline fill="none" points="14.7525,58.1424 9.5458,65.9525 9.1119,73.3288" stroke="#0080ff" stroke-width="2" /><polyline fill="none" points="29.5051,61.1797 26.0339,62.4814 24.7322,65.5186 24.2983,76.8 25.6,79.8373 34.278,84.1763 40.7864,85.0441 44.6915,85.0441 47.7288,81.139 48.1627,73.3288 46.861,67.6881 38.6169,61.1797 31.2407,61.1797 27.7695,64.6508 26.4678,69.4237" stroke="#7cff79" stroke-width="2" /><polyline fill="none" points="95.4576,67.6881 89.8169,66.8203 84.1763,67.2542 79.8373,74.1966 79.4034,82.4407 80.7051,85.0441 90.2508,89.3831 92.4203,88.0814 95.4576,79.8373 95.4576,72.0271 94.1559,70.2915 90.6847,68.9898" stroke="#ff9400" stroke-width="2" /><polyline fill="none" points="48.5966,91.5525 47.2949,100.2305 56.4068,103.7017 62.0475,103.7017 64.2169,101.5322 68.5559,91.5525 68.9898,106.3051" stroke="#7f0000" stroke-width="2" /></svg>