<?xml version="1.0" encoding="utf-8" ?>
<svg baseProfile="tiny" height="128" version="1.2" viewBox="0,0,128,128" width="128" xmlns="http://www.w3.org/2000/svg" xmlns:ev="http://www.w3.org/2001/xml-events" xmlns:xlink="http://www.w3.org/1999/xlink"><defs /><polyline fill="none" points="68.7891,19.1565 60.517,19.5918 50.068,24.381 38.7483,34.8299 34.8299,41.7959 32.6531,49.6327 32.6531,64.4354 40.4898,76.6259 47.0204,81.8503 54.4218,85.3333 62.2585,86.6395 69.6599,86.2041 77.0612,83.5918 90.5578,72.7075 100.1361,57.4694 101.8776,42.6667 100.1361,35.2653 96.6531,29.1701 91.8639,24.8163 80.9796,18.7211 65.7415,16.9796" stroke="#00007f" stroke-width="2" /><polyline fill="none" points="89.6871,19.5918 107.9728,8.7075 107.9728,16.1088 102.3129,29.6054" stroke="#0000ff" stroke-width="2" /><polyline fill="none" points="50.5034,20.0272 46.1497,13.932 40.0544,10.0136 37.0068,10.0136 38.7483,32.6531" stroke="#0080ff" stroke-width="2" /><polyline fill="none" points="89.6871,56.5986 119.2925,52.6803" stroke="#15ffe1" stroke-width="2" /><polyline fill="none" points="86.6395,64.0 108.8435,67.0476" stroke="#7cff79" stroke-width="2" /><polyline fill="none" points="80.5442,71.8367 93.6054,79.6735 108.8435,84.898" stroke="#e4ff12" stroke-width="2" /><polyline fill="none" points="43.9728,51.3741 22.6395,58.3401 8.7075,60.9524" stroke="#ff9400" stroke-width="2" /><polyline fill="none" points="50.9388,62.6939 35.2653,64.4354 13.0612,72.7075" stroke="#ff1d00" stroke-width="2" /><polyline fill="none" points="52.6803,72.2721 25.6871,84.898" stroke="#7f0000" stroke-width="2" /></svg>