<?xml version="1.0" encoding="utf-8" ?>
<svg baseProfile="tiny" height="128" version="1.2" viewBox="0,0,128,128" width="128" xmlns="http://www.w3.org/2000/svg" xmlns:ev="http://www.w3.org/2001/xml-events" xmlns:xlink="http://www.w3.org/1999/xlink"><defs /><polyline fill="none" points="67.6881,11.2814 64.2169,9.5458 58.5763,9.5458 49.4644,11.2814 45.9932,18.2237 46.861,22.9966 49.0305,26.9017 55.1051,30.3729 68.122,31.6746 75.4983,30.3729" stroke="#00007f" stroke-width="2" /><polyline fill="none" points="86.3458,12.1492 82.4407,23.4305 76.8,34.7119" stroke="#0000cc" stroke-width="2" /><polyline fill="none" points="85.478,13.4508 89.3831,19.5254 90.6847,24.2983 91.9864,39.9186 89.3831,36.0136" stroke="#0008ff" stroke-width="2" /><polyline fill="none" points="81.139,27.7695 89.8169,26.4678" stroke="#004cff" stroke-width="2" /><polyline fill="none" points="101.0983,11.7153 102.4,16.922 102.8339,26.4678 101.9661,37.3153 101.0983,39.0508 100.2305,38.1831" stroke="#0090ff" stroke-width="2" /><polyline fill="none" points="88.9492,13.0169 106.739,9.5458 119.322,8.678" stroke="#00d4ff" stroke-width="2" /><polyline fill="none" points="13.0169,34.278 8.678,25.1661 8.678,22.1288 10.4136,19.5254 17.7898,17.7898 21.6949,18.2237 25.1661,20.8271 24.7322,26.0339 16.922,31.2407" stroke="#29ffcd" stroke-width="2" /><polyline fill="none" points="11.2814,32.1085 14.3186,32.9763 18.6576,28.6373" stroke="#5fff96" stroke-width="2" /><polyline fill="none" points="9.5458,18.6576 12.5831,10.4136 15.1864,16.4881" stroke="#96ff5f" stroke-width="2" /><polyline fill="none" points="19.0915,15.6203 24.7322,12.5831 23.8644,17.7898" stroke="#cdff29" stroke-width="2" /><polyline fill="none" points="24.7322,24.2983 42.9559,23.8644 49.8983,25.6 50.7661,28.6373 47.2949,38.1831 45.5593,39.9186 38.6169,41.6542 27.7695,41.6542 18.6576,39.4847 17.3559,38.6169 17.3559,36.4475" stroke="#ffe500" stroke-width="2" /><polyline fill="none" points="49.0305,34.278 53.8034,31.6746 57.2746,37.7492 56.4068,44.2576 52.0678,45.9932 52.5017,43.3898 55.9729,41.2203" stroke="#ffa600" stroke-width="2" /><polyline fill="none" points="32.9763,42.0881 33.4102,49.0305 32.9763,49.8983 32.1085,48.5966" stroke="#ff6700" stroke-width="2" /><polyline fill="none" points="28.6373,41.2203 25.6,48.5966" stroke="#ff2800" stroke-width="2" /><polyline fill="none" points="23.8644,44.2576 23.4305,49.0305 22.5627,47.2949" stroke="#cc0000" stroke-width="2" /><polyline fill="none" points="21.6949,40.3525 20.3932,45.9932" stroke="#7f0000" stroke-width="2" /></svg>