<?xml version="1.0" encoding="utf-8" ?>
<svg baseProfile="tiny" height="128" version="1.2" viewBox="0,0,128,128" width="128" xmlns="http://www.w3.org/2000/svg" xmlns:ev="http://www.w3.org/2001/xml-events" xmlns:xlink="http://www.w3.org/1999/xlink"><defs /><polyline fill="none" points="53.8034,30.8068 49.8983,45.1254 55.539,47.2949 61.1797,33.8441 63.7831,33.4102 62.0475,41.6542 68.5559,40.7864 71.1593,34.278 71.1593,41.6542 69.4237,46.4271 73.7627,46.4271 74.6305,39.4847 77.2339,32.5424 76.8,39.9186 79.4034,42.0881 82.0068,32.9763 89.3831,32.5424 94.1559,28.6373 98.4949,22.5627 105.0034,21.6949 106.739,19.0915 107.6068,13.4508 105.4373,12.1492 98.4949,12.1492 96.3254,9.1119 94.5898,8.678 93.2881,10.4136 93.2881,15.6203 87.2136,20.3932 79.4034,22.5627 70.7254,22.5627 62.4814,19.5254 55.539,19.5254 34.7119,30.3729 16.4881,43.3898 8.678,55.1051 10.8475,55.1051 16.0542,52.9356 32.5424,39.0508 43.8237,32.5424 49.4644,29.939 55.9729,30.3729" stroke="#00007f" stroke-width="2" /><polyline fill="none" points="102.8339,14.3186 103.7017,14.7525" stroke="#0080ff" stroke-width="2" /><polyline fill="none" points="106.3051,19.0915 98.9288,19.0915" stroke="#7cff79" stroke-width="2" /><polyline fill="none" points="108.9085,15.1864 108.9085,21.6949 110.2102,13.4508 111.5119,19.0915 113.6814,16.922 114.9831,16.922 115.4169,23.4305" stroke="#ff9400" stroke-width="2" /><polyline fill="none" points="117.1525,21.261 119.322,19.9593 118.0203,16.4881 117.5864,19.0915" stroke="#7f0000" stroke-width="2" /></svg>