<?xml version="1.0" encoding="utf-8" ?>
<svg baseProfile="tiny" height="128" version="1.2" viewBox="0,0,128,128" width="128" xmlns="http://www.w3.org/2000/svg" xmlns:ev="http://www.w3.org/2001/xml-events" xmlns:xlink="http://www.w3.org/1999/xlink"><defs /><polyline fill="none" points="49.1973,30.0408 46.585,28.7347 36.5714,28.7347 30.0408,34.3946 29.6054,45.2789 32.6531,48.7619 37.0068,49.6327 42.2313,49.6327 48.3265,42.6667 51.3741,33.0884 47.4558,30.0408" stroke="#00007f" stroke-width="2" /><polyline fill="none" points="46.585,29.6054 51.3741,16.9796 49.6327,15.6735 42.2313,20.0272 39.619,25.6871" stroke="#0000de" stroke-width="2" /><polyline fill="none" points="31.3469,30.4762 29.6054,23.9456 26.5578,20.898 20.898,18.2857 20.0272,23.9456 26.9932,32.6531" stroke="#0028ff" stroke-width="2" /><polyline fill="none" points="49.6327,47.4558 49.6327,49.1973 53.551,51.8095 68.7891,55.7279 97.0884,57.9048 99.2653,58.7755 106.2313,67.9184 108.8435,73.5782 106.2313,76.6259 103.1837,77.0612 93.6054,65.3061 80.1088,64.4354 69.2245,66.6122 72.2721,76.6259 72.2721,80.1088 70.0952,80.5442 64.4354,76.6259 62.6939,68.7891 59.6463,65.7415 56.5986,66.1769 57.4694,78.8027 54.8571,79.2381 52.6803,77.4966 52.2449,71.8367 47.8912,64.8707 40.4898,63.1293 34.8299,58.3401 35.2653,48.7619" stroke="#0080ff" stroke-width="2" /><polyline fill="none" points="42.2313,34.3946 42.2313,34.3946" stroke="#00d4ff" stroke-width="2" /><polyline fill="none" points="36.5714,38.3129 36.5714,38.3129" stroke="#36ffc0" stroke-width="2" /><polyline fill="none" points="42.2313,33.9592 42.2313,33.9592" stroke="#7cff79" stroke-width="2" /><polyline fill="none" points="43.102,34.3946 43.102,34.3946" stroke="#c0ff36" stroke-width="2" /><polyline fill="none" points="43.102,36.1361 43.102,36.1361" stroke="#ffe500" stroke-width="2" /><polyline fill="none" points="41.7959,33.0884 43.5374,33.9592 43.102,31.7823" stroke="#ff9400" stroke-width="2" /><polyline fill="none" points="36.5714,37.4422 32.6531,30.4762" stroke="#ff4600" stroke-width="2" /><polyline fill="none" points="43.5374,38.7483 42.6667,42.2313 35.2653,42.6667" stroke="#de0000" stroke-width="2" /><polyline fill="none" points="110.585,48.3265 107.5374,42.2313 96.2177,29.6054 82.2857,20.0272 68.3537,13.0612 49.1973,9.1429 28.7347,8.7075 20.4626,10.0136 13.932,15.2381 10.8844,22.6395 8.7075,45.7143 11.7551,54.4218 18.2857,64.8707 33.0884,83.5918 43.5374,91.8639 56.5986,97.9592 76.6259,102.7483 96.2177,102.3129 103.1837,97.9592 111.4558,89.6871 118.8571,76.6259 119.2925,60.0816 115.8095,48.7619" stroke="#7f0000" stroke-width="2" /></svg>