<?xml version="1.0" encoding="utf-8" ?>
<svg baseProfile="tiny" height="128" version="1.2" viewBox="0,0,128,128" width="128" xmlns="http://www.w3.org/2000/svg" xmlns:ev="http://www.w3.org/2001/xml-events" xmlns:xlink="http://www.w3.org/1999/xlink"><defs /><polyline fill="none" points="42.9559,96.7593 38.6169,97.1932 17.7898,75.4983 11.7153,63.7831 8.678,50.7661 8.678,42.9559 14.7525,10.8475 25.6,29.0712 32.1085,36.0136 70.7254,36.4475 73.3288,35.1458 81.5729,35.1458 98.4949,8.678 100.2305,11.7153 100.6644,39.4847 97.1932,58.5763 92.8542,68.9898 79.8373,84.6102 73.3288,87.6475 59.878,98.061 42.0881,97.6271 37.3153,93.722" stroke="#00007f" stroke-width="2" /><polyline fill="none" points="43.3898,61.6136 43.3898,63.3492 44.6915,63.7831 46.4271,60.7458 45.1254,60.3119 44.2576,63.3492 45.1254,60.3119" stroke="#0000d5" stroke-width="2" /><polyline fill="none" points="57.7085,59.0102 58.5763,62.4814 60.7458,63.7831 62.4814,63.3492 63.7831,60.3119 62.9153,62.0475 64.2169,62.0475 63.7831,59.4441 62.0475,60.7458 62.0475,58.5763 60.3119,57.7085 59.4441,62.0475 60.7458,63.3492 62.9153,63.3492 63.3492,61.6136 62.0475,59.4441 60.3119,61.1797" stroke="#001cff" stroke-width="2" /><polyline fill="none" points="45.5593,72.461 49.0305,75.0644" stroke="#006cff" stroke-width="2" /><polyline fill="none" points="47.7288,72.8949 50.3322,72.461 50.3322,74.6305 49.0305,72.8949" stroke="#00b8ff" stroke-width="2" /><polyline fill="none" points="49.0305,73.3288 47.7288,81.5729 43.8237,81.5729 40.7864,78.1017" stroke="#1cffda" stroke-width="2" /><polyline fill="none" points="49.0305,76.3661 51.6339,83.3085 57.7085,84.6102" stroke="#5cff9a" stroke-width="2" /><polyline fill="none" points="54.6712,74.1966 59.0102,72.0271 84.6102,68.122" stroke="#9aff5c" stroke-width="2" /><polyline fill="none" points="59.4441,79.4034 96.3254,79.4034" stroke="#daff1c" stroke-width="2" /><polyline fill="none" points="56.4068,79.4034 81.5729,85.478 82.8746,86.3458 82.0068,86.7797" stroke="#ffcb00" stroke-width="2" /><polyline fill="none" points="35.1458,74.6305 16.922,74.6305" stroke="#ff8500" stroke-width="2" /><polyline fill="none" points="42.522,75.4983 25.6,76.3661" stroke="#ff3b00" stroke-width="2" /><polyline fill="none" points="44.6915,76.8 21.261,82.4407 19.5254,85.0441" stroke="#d50000" stroke-width="2" /><polyline fill="none" points="119.322,91.5525 119.322,101.0983" stroke="#7f0000" stroke-width="2" /></svg>