<?xml version="1.0" encoding="utf-8" ?>
<svg baseProfile="tiny" height="128" version="1.2" viewBox="0,0,128,128" width="128" xmlns="http://www.w3.org/2000/svg" xmlns:ev="http://www.w3.org/2001/xml-events" xmlns:xlink="http://www.w3.org/1999/xlink"><defs /><polyline fill="none" points="50.068,22.2041 42.6667,18.2857 30.4762,17.415 17.8503,24.381 11.3197,30.4762 10.8844,35.7007 14.8027,43.9728 23.0748,51.3741 30.9116,55.2925 37.0068,55.7279 43.5374,50.9388 53.1156,39.1837 57.034,30.9116 56.5986,26.9932 51.8095,22.6395 45.7143,19.5918 37.0068,18.7211" stroke="#00007f" stroke-width="2" /><polyline fill="none" points="10.8844,27.4286 8.7075,19.5918 9.1429,10.449 26.1224,13.0612" stroke="#0000cc" stroke-width="2" /><polyline fill="none" points="42.6667,17.415 59.6463,8.7075 59.2109,14.3673 54.4218,26.9932" stroke="#0008ff" stroke-width="2" /><polyline fill="none" points="33.0884,39.1837 35.7007,41.3605 35.2653,45.7143 30.4762,46.1497 28.2993,43.5374" stroke="#004cff" stroke-width="2" /><polyline fill="none" points="31.7823,38.7483 39.1837,43.102 43.5374,41.3605 42.2313,39.1837" stroke="#0090ff" stroke-width="2" /><polyline fill="none" points="23.5102,31.7823 24.8163,30.9116 25.2517,33.9592 24.8163,35.2653 22.2041,34.8299 21.7687,31.3469 23.9456,29.6054 23.5102,32.2177 23.9456,30.9116 25.2517,31.7823 23.9456,32.2177" stroke="#00d4ff" stroke-width="2" /><polyline fill="none" points="40.0544,30.0408 37.0068,30.0408 37.4422,28.7347 43.9728,26.1224 41.3605,30.0408 40.4898,30.4762 40.4898,27.8639 40.0544,29.1701" stroke="#29ffcd" stroke-width="2" /><polyline fill="none" points="25.6871,52.2449 21.7687,54.4218 13.4966,66.1769 9.5782,75.3197 9.1429,84.0272 13.932,95.3469 21.7687,106.2313 26.1224,110.585 32.6531,113.6327 43.102,114.068 50.9388,110.585 60.0816,100.1361 64.0,85.7687 62.6939,69.6599 54.8571,55.7279 46.585,50.068 40.0544,48.7619 35.7007,49.6327 33.9592,50.9388 33.5238,54.8571" stroke="#5fff96" stroke-width="2" /><polyline fill="none" points="17.8503,75.3197 16.1088,85.3333 16.9796,87.0748 21.3333,88.381 26.5578,84.4626 29.1701,78.8027 29.1701,75.7551 28.2993,75.7551" stroke="#96ff5f" stroke-width="2" /><polyline fill="none" points="38.3129,76.1905 38.7483,81.415 40.9252,83.1565 46.1497,83.1565 49.1973,81.415 52.2449,75.7551 51.8095,67.9184 49.6327,67.483 48.7619,72.2721" stroke="#cdff29" stroke-width="2" /><polyline fill="none" points="21.3333,105.7959 20.0272,116.6803 21.7687,119.2925 28.2993,118.4218 33.9592,113.6327 33.9592,109.2789 28.7347,109.7143" stroke="#ffe500" stroke-width="2" /><polyline fill="none" points="51.3741,107.9728 52.2449,111.0204 56.1633,111.4558 60.9524,109.2789 63.5646,105.7959 64.0,99.2653 60.9524,96.2177 57.4694,96.6531 54.8571,99.7007" stroke="#ffa600" stroke-width="2" /><polyline fill="none" points="66.1769,80.1088 75.3197,72.2721 80.1088,62.6939 80.5442,57.034 77.0612,44.8435 78.8027,39.619 84.4626,32.6531 93.1701,25.2517 101.8776,23.9456 107.9728,29.1701 107.9728,34.8299 93.6054,49.6327 92.7347,68.3537 90.9932,74.8844 88.8163,78.8027 81.8503,84.0272 65.3061,89.2517 60.9524,92.7347" stroke="#ff6700" stroke-width="2" /><polyline fill="none" points="12.1905,16.9796 15.6735,22.6395" stroke="#ff2800" stroke-width="2" /><polyline fill="none" points="11.3197,16.5442 20.4626,16.1088" stroke="#cc0000" stroke-width="2" /><polyline fill="none" points="49.6327,16.5442 53.551,13.4966 54.4218,16.1088" stroke="#7f0000" stroke-width="2" /></svg>