<?xml version="1.0" encoding="utf-8" ?>
<svg baseProfile="tiny" height="128" version="1.2" viewBox="0,0,128,128" width="128" xmlns="http://www.w3.org/2000/svg" xmlns:ev="http://www.w3.org/2001/xml-events" xmlns:xlink="http://www.w3.org/1999/xlink"><defs /><polyline fill="none" points="9.9797,54.2373 19.0915,19.5254 21.6949,12.5831 23.4305,16.0542 28.2034,42.9559 32.5424,45.5593 63.7831,45.5593 67.6881,39.9186 78.9695,8.678 89.3831,32.1085 91.5525,39.4847 91.1186,46.4271 82.4407,89.8169 78.5356,98.4949 72.8949,106.3051 65.5186,113.6814 58.5763,117.1525 47.7288,119.322 34.278,117.5864 24.7322,113.6814 19.9593,108.9085 12.5831,95.8915 9.5458,85.0441 8.678,71.1593 12.1492,60.7458" stroke="#00007f" stroke-width="2" /><polyline fill="none" points="42.9559,69.4237 42.9559,79.8373 46.861,82.4407 50.3322,82.4407 47.7288,72.461" stroke="#0080ff" stroke-width="2" /><polyline fill="none" points="49.8983,80.2712 49.8983,80.2712" stroke="#7cff79" stroke-width="2" /><polyline fill="none" points="47.2949,81.139 42.9559,91.9864 40.3525,96.3254 36.4475,98.4949 30.3729,98.4949 23.4305,91.1186" stroke="#ff9400" stroke-width="2" /><polyline fill="none" points="49.4644,85.478 50.3322,98.4949 52.0678,101.9661 56.8407,105.0034 62.4814,104.1356 67.6881,101.0983 74.6305,89.3831" stroke="#7f0000" stroke-width="2" /></svg>