<?xml version="1.0" encoding="utf-8" ?>
<svg baseProfile="tiny" height="128" version="1.2" viewBox="0,0,128,128" width="128" xmlns="http://www.w3.org/2000/svg" xmlns:ev="http://www.w3.org/2001/xml-events" xmlns:xlink="http://www.w3.org/1999/xlink"><defs /><polyline fill="none" points="66.3864,38.6169 34.278,36.0136 25.6,39.9186 22.5627,42.9559 9.1119,70.7254 8.678,86.7797 12.5831,97.6271 22.5627,110.2102 32.9763,117.5864 39.0508,119.322 43.3898,119.322 52.0678,114.5492 74.6305,98.9288 78.5356,92.8542 84.1763,72.0271 87.2136,65.5186 88.9492,44.6915 82.0068,33.4102 79.8373,32.5424 75.4983,34.7119 68.122,42.0881 61.6136,42.9559" stroke="#00007f" stroke-width="2" /><polyline fill="none" points="20.8271,42.522 17.7898,33.4102 15.6203,10.4136 20.8271,11.2814 39.0508,24.7322 50.7661,29.939" stroke="#0028ff" stroke-width="2" /><polyline fill="none" points="61.6136,34.278 61.6136,29.939 66.8203,22.1288 70.7254,10.8475 76.3661,8.678 77.2339,23.4305 80.2712,32.9763" stroke="#00d4ff" stroke-width="2" /><polyline fill="none" points="36.0136,75.0644 16.0542,71.1593" stroke="#7cff79" stroke-width="2" /><polyline fill="none" points="34.7119,82.0068 12.5831,83.3085" stroke="#ffe500" stroke-width="2" /><polyline fill="none" points="35.5797,87.6475 28.6373,97.6271 22.5627,101.0983 17.7898,105.8712 17.7898,103.2678" stroke="#ff4600" stroke-width="2" /><polyline fill="none" points="60.7458,73.7627 74.6305,66.3864 91.9864,62.4814" stroke="#7f0000" stroke-width="2" /></svg>