<?xml version="1.0" encoding="utf-8" ?>
<svg baseProfile="tiny" height="128" version="1.2" viewBox="0,0,128,128" width="128" xmlns="http://www.w3.org/2000/svg" xmlns:ev="http://www.w3.org/2001/xml-events" xmlns:xlink="http://www.w3.org/1999/xlink"><defs /><polyline fill="none" points="23.8644,15.6203 19.5254,16.4881" stroke="#00007f" stroke-width="2" /><polyline fill="none" points="19.5254,16.4881 14.7525,19.5254 11.2814,23.4305 8.678,30.8068 8.678,37.3153 12.1492,43.8237 21.6949,48.5966" stroke="#0000ba" stroke-width="2" /><polyline fill="none" points="24.7322,16.0542 26.4678,14.3186 32.9763,14.7525 39.9186,16.4881 43.8237,18.6576 47.7288,26.9017 48.5966,36.4475 44.2576,43.3898 40.3525,45.9932 33.8441,47.2949 22.9966,47.2949" stroke="#0000f5" stroke-width="2" /><polyline fill="none" points="15.1864,16.922 14.7525,11.2814 16.0542,8.678 22.5627,13.8847" stroke="#0020ff" stroke-width="2" /><polyline fill="none" points="35.1458,14.3186 37.7492,10.8475 41.6542,9.1119 44.6915,18.2237" stroke="#0054ff" stroke-width="2" /><polyline fill="none" points="19.0915,26.0339 21.6949,26.0339" stroke="#008cff" stroke-width="2" /><polyline fill="none" points="32.9763,24.7322 40.7864,24.7322" stroke="#00c0ff" stroke-width="2" /><polyline fill="none" points="26.0339,30.3729 26.0339,34.278 29.939,34.278 29.5051,30.3729 27.3356,28.2034 26.9017,29.939" stroke="#0ff8e7" stroke-width="2" /><polyline fill="none" points="31.6746,29.939 39.9186,27.3356 42.522,26.9017 40.7864,29.0712" stroke="#39ffbd" stroke-width="2" /><polyline fill="none" points="34.7119,32.9763 44.6915,32.9763" stroke="#66ff90" stroke-width="2" /><polyline fill="none" points="24.2983,29.939 16.0542,31.2407" stroke="#90ff66" stroke-width="2" /><polyline fill="none" points="22.5627,33.8441 18.6576,34.278" stroke="#bdff39" stroke-width="2" /><polyline fill="none" points="26.4678,34.7119 25.6,39.0508 21.261,42.9559 14.7525,43.3898 13.8847,40.3525" stroke="#e7ff0f" stroke-width="2" /><polyline fill="none" points="26.9017,35.5797 30.8068,43.3898 36.8814,42.522" stroke="#ffd300" stroke-width="2" /><polyline fill="none" points="40.7864,44.6915 52.9356,43.3898 91.5525,43.8237 94.1559,49.4644 92.8542,55.539 89.3831,58.5763 78.9695,62.9153 65.5186,66.3864 47.2949,68.9898 22.1288,68.5559 15.1864,65.5186 12.1492,58.5763 12.5831,53.3695 19.9593,52.0678" stroke="#ffa300" stroke-width="2" /><polyline fill="none" points="92.4203,45.5593 92.4203,40.7864 95.4576,36.8814 104.5695,36.4475 111.5119,38.1831 112.8136,36.8814 119.322,25.1661 118.4542,22.1288 114.1153,16.4881" stroke="#ff6f00" stroke-width="2" /><polyline fill="none" points="113.6814,16.4881 113.2475,16.922" stroke="#ff3f00" stroke-width="2" /><polyline fill="none" points="27.7695,71.1593 27.7695,71.5932" stroke="#f50b00" stroke-width="2" /><polyline fill="none" points="28.2034,68.5559 28.2034,78.5356 30.8068,80.2712 33.4102,75.9322 34.7119,67.6881" stroke="#ba0000" stroke-width="2" /><polyline fill="none" points="72.0271,65.9525 73.3288,76.8 76.3661,78.9695 78.5356,78.1017 80.2712,74.6305 80.2712,65.9525" stroke="#7f0000" stroke-width="2" /></svg>