<?xml version="1.0" encoding="utf-8" ?>
<svg baseProfile="tiny" height="128" version="1.2" viewBox="0,0,128,128" width="128" xmlns="http://www.w3.org/2000/svg" xmlns:ev="http://www.w3.org/2001/xml-events" xmlns:xlink="http://www.w3.org/1999/xlink"><defs /><polyline fill="none" points="26.9017,59.0102 26.9017,94.1559 29.5051,99.7966 29.5051,105.4373 34.278,111.078 39.4847,113.6814 40.7864,116.7186 46.4271,116.7186 55.1051,119.322 84.6102,119.322 102.4,102.8339 103.7017,99.7966 106.739,98.4949 106.739,92.8542 112.3797,74.1966 112.3797,47.7288 103.7017,27.7695 99.7966,22.9966 99.7966,18.6576 96.7593,13.0169 91.1186,13.0169 89.8169,21.261 87.2136,24.2983 85.478,31.2407 80.2712,42.0881 77.6678,43.3898 77.2339,46.4271 77.2339,40.7864 72.0271,34.278 71.5932,31.2407 68.9898,29.939 68.9898,26.9017 53.3695,8.678 45.1254,25.1661 36.4475,38.1831 35.1458,43.3898 32.5424,46.861 26.9017,59.0102" stroke="#00007f" stroke-width="2" /><polyline fill="none" points="40.7864,71.5932 36.4475,72.8949 14.7525,72.8949 9.1119,71.5932 8.678,70.2915" stroke="#0010ff" stroke-width="2" /><polyline fill="none" points="33.8441,77.2339 33.8441,80.2712 28.2034,82.8746 21.261,82.8746 14.3186,85.9119" stroke="#00a4ff" stroke-width="2" /><polyline fill="none" points="85.9119,77.2339 103.7017,75.9322 116.7186,71.5932 119.322,71.5932 113.6814,77.2339" stroke="#3fffb7" stroke-width="2" /><polyline fill="none" points="88.5153,84.1763 118.0203,85.9119" stroke="#b7ff3f" stroke-width="2" /><polyline fill="none" points="63.3492,82.8746 65.9525,81.5729 74.6305,81.139 74.6305,78.5356 66.3864,73.3288 64.6508,70.2915 64.6508,81.139 63.3492,82.8746" stroke="#ffb900" stroke-width="2" /><polyline fill="none" points="70.2915,81.5729 67.2542,92.8542 59.4441,92.8542 56.8407,91.5525 56.4068,87.2136" stroke="#ff3000" stroke-width="2" /><polyline fill="none" points="70.2915,81.5729 71.5932,89.8169 74.1966,91.1186 77.2339,91.1186 80.2712,88.5153 80.2712,84.1763" stroke="#7f0000" stroke-width="2" /></svg>