<?xml version="1.0" encoding="utf-8" ?>
<svg baseProfile="tiny" height="128" version="1.2" viewBox="0,0,128,128" width="128" xmlns="http://www.w3.org/2000/svg" xmlns:ev="http://www.w3.org/2001/xml-events" xmlns:xlink="http://www.w3.org/1999/xlink"><defs /><polyline fill="none" points="77.6678,28.2034 73.7627,27.3356 69.4237,28.6373 64.2169,32.5424 61.6136,37.7492 60.7458,43.3898 62.0475,47.2949 70.2915,55.539 77.6678,55.9729 84.1763,53.8034 92.8542,41.6542 95.0237,33.8441 94.1559,27.7695 89.8169,25.1661 84.6102,24.2983 72.8949,26.0339" stroke="#00007f" stroke-width="2" /><polyline fill="none" points="65.9525,29.939 65.9525,13.4508 73.7627,24.7322" stroke="#0000d1" stroke-width="2" /><polyline fill="none" points="83.7424,21.6949 96.3254,8.678 94.1559,28.2034" stroke="#0010ff" stroke-width="2" /><polyline fill="none" points="85.478,40.7864 119.322,36.0136" stroke="#0058ff" stroke-width="2" /><polyline fill="none" points="85.9119,47.7288 111.9458,46.861" stroke="#00a4ff" stroke-width="2" /><polyline fill="none" points="71.5932,42.9559 62.0475,40.7864 44.6915,41.2203" stroke="#05ecf1" stroke-width="2" /><polyline fill="none" points="67.2542,46.4271 45.5593,47.2949" stroke="#3fffb7" stroke-width="2" /><polyline fill="none" points="75.4983,37.7492 75.4983,37.3153" stroke="#7cff79" stroke-width="2" /><polyline fill="none" points="85.9119,36.4475 85.9119,36.4475" stroke="#b7ff3f" stroke-width="2" /><polyline fill="none" points="75.0644,46.861 79.4034,49.4644 82.4407,48.5966" stroke="#f1fc05" stroke-width="2" /><polyline fill="none" points="72.0271,55.1051 57.2746,53.3695 36.8814,47.7288 19.9593,49.4644 10.8475,52.9356" stroke="#ffb900" stroke-width="2" /><polyline fill="none" points="85.478,55.539 82.8746,62.9153 80.2712,66.8203 42.9559,62.4814 13.4508,62.4814 9.1119,61.6136 8.678,60.3119" stroke="#ff7300" stroke-width="2" /><polyline fill="none" points="44.6915,67.2542 42.522,83.3085 43.8237,84.1763 46.4271,84.1763 48.5966,80.7051 49.0305,68.5559" stroke="#ff3000" stroke-width="2" /><polyline fill="none" points="59.878,68.122 57.2746,85.9119 61.6136,84.1763 65.5186,79.4034 65.9525,72.8949 61.6136,68.5559" stroke="#d10000" stroke-width="2" /><polyline fill="none" points="15.1864,57.7085 15.1864,57.7085" stroke="#7f0000" stroke-width="2" /></svg>