<?xml version="1.0" encoding="utf-8" ?>
<svg baseProfile="tiny" height="128" version="1.2" viewBox="0,0,128,128" width="128" xmlns="http://www.w3.org/2000/svg" xmlns:ev="http://www.w3.org/2001/xml-events" xmlns:xlink="http://www.w3.org/1999/xlink"><defs /><polyline fill="none" points="12.6259,30.4762 13.0612,37.8776 17.415,50.5034 12.6259,40.4898 9.1429,26.5578 8.7075,17.415 11.3197,13.932 14.3673,13.4966 21.3333,13.4966 24.381,16.9796 26.5578,28.2993 26.5578,54.8571 31.3469,67.0476 34.3946,68.7891" stroke="#00007f" stroke-width="2" /><polyline fill="none" points="16.1088,42.2313 18.2857,66.6122 20.4626,71.8367 26.1224,79.2381 27.8639,84.4626 27.8639,89.2517 23.0748,101.8776 21.3333,114.068 24.8163,117.9864 33.9592,119.2925 38.7483,117.551 41.7959,113.1973 41.7959,90.1224 45.2789,87.5102 55.2925,87.5102 65.7415,90.1224 79.6735,90.1224 80.5442,91.8639 76.1905,104.4898 76.6259,109.7143 79.2381,113.6327 81.415,113.6327 83.5918,113.6327 86.2041,110.585 90.1224,101.0068 90.5578,90.1224 90.5578,84.4626 87.0748,77.4966 86.6395,71.4014 90.5578,65.7415 97.0884,61.3878 97.5238,44.4082 95.7823,40.4898 86.6395,32.2177 80.9796,30.4762 78.3673,31.3469 75.7551,38.3129 74.449,53.1156 67.9184,61.8231 56.5986,66.1769 36.5714,67.0476" stroke="#0080ff" stroke-width="2" /><polyline fill="none" points="80.9796,30.4762 77.932,25.6871 75.3197,9.1429 78.3673,8.7075 83.5918,29.1701" stroke="#7cff79" stroke-width="2" /><polyline fill="none" points="98.3946,44.4082 96.6531,42.2313 91.4286,42.2313 88.381,44.4082 97.5238,51.3741 98.8299,48.3265 97.5238,46.1497" stroke="#ff9400" stroke-width="2" /><polyline fill="none" points="94.0408,63.1293 95.7823,62.2585 96.6531,64.0 93.1701,64.8707 96.6531,60.517 94.0408,60.0816 94.9116,56.1633 89.2517,55.2925 86.2041,53.551 94.0408,50.5034" stroke="#7f0000" stroke-width="2" /></svg>