<?xml version="1.0" encoding="utf-8" ?>
<svg baseProfile="tiny" height="128" version="1.2" viewBox="0,0,128,128" width="128" xmlns="http://www.w3.org/2000/svg" xmlns:ev="http://www.w3.org/2001/xml-events" xmlns:xlink="http://www.w3.org/1999/xlink"><defs /><polyline fill="none" points="60.7458,39.4847 57.7085,38.6169 44.2576,41.2203 25.1661,47.7288 11.7153,55.1051 9.1119,58.5763 8.678,61.1797 9.5458,64.2169 13.8847,67.6881 26.4678,72.0271 46.4271,74.6305 68.5559,74.1966 76.3661,72.0271 85.9119,67.2542 91.9864,62.0475 95.0237,57.7085 95.4576,50.3322 89.8169,47.2949 79.8373,44.6915 50.3322,41.6542" stroke="#00007f" stroke-width="2" /><polyline fill="none" points="107.6068,27.7695 98.4949,26.9017 96.3254,29.5051 95.8915,45.9932 98.061,49.8983 102.8339,52.0678 110.6441,51.6339 114.5492,47.7288 114.9831,32.1085 108.0407,25.1661" stroke="#0028ff" stroke-width="2" /><polyline fill="none" points="95.4576,27.7695 90.2508,19.0915 88.5153,10.4136 93.722,13.0169 103.7017,24.2983" stroke="#00d4ff" stroke-width="2" /><polyline fill="none" points="110.6441,26.9017 115.8508,16.922 117.1525,8.678 118.4542,10.8475 119.322,35.1458" stroke="#7cff79" stroke-width="2" /><polyline fill="none" points="43.3898,80.2712 39.0508,82.8746 42.9559,100.2305 42.9559,110.2102 41.6542,111.9458" stroke="#ffe500" stroke-width="2" /><polyline fill="none" points="55.539,77.6678 55.539,91.1186" stroke="#ff4600" stroke-width="2" /><polyline fill="none" points="72.8949,71.5932 74.1966,78.1017 77.2339,84.6102" stroke="#7f0000" stroke-width="2" /></svg>