<?xml version="1.0" encoding="utf-8" ?>
<svg baseProfile="tiny" height="128" version="1.2" viewBox="0,0,128,128" width="128" xmlns="http://www.w3.org/2000/svg" xmlns:ev="http://www.w3.org/2001/xml-events" xmlns:xlink="http://www.w3.org/1999/xlink"><defs /><polyline fill="none" points="42.0881,42.0881 47.7288,39.9186 69.4237,40.7864 80.2712,42.9559 87.6475,46.861 90.6847,52.9356 91.9864,64.2169 87.2136,78.9695 78.5356,85.9119 72.461,93.722 69.4237,95.0237 37.7492,92.4203 24.2983,83.3085 17.7898,73.3288 17.3559,55.9729 19.5254,48.5966 21.6949,44.6915 31.2407,37.3153 37.7492,36.4475 43.3898,39.9186" stroke="#00007f" stroke-width="2" /><polyline fill="none" points="27.7695,70.7254 8.678,82.0068" stroke="#0000f1" stroke-width="2" /><polyline fill="none" points="30.8068,75.9322 27.7695,81.5729 22.9966,85.9119" stroke="#004cff" stroke-width="2" /><polyline fill="none" points="36.4475,75.9322 28.6373,90.6847" stroke="#00b0ff" stroke-width="2" /><polyline fill="none" points="84.6102,59.878 105.0034,68.122" stroke="#29ffcd" stroke-width="2" /><polyline fill="none" points="81.139,71.5932 119.322,83.3085" stroke="#7cff79" stroke-width="2" /><polyline fill="none" points="76.8,81.139 90.6847,89.8169" stroke="#cdff29" stroke-width="2" /><polyline fill="none" points="78.9695,41.6542 92.8542,23.4305 90.6847,37.3153 88.0814,43.8237 84.1763,47.7288" stroke="#ffc400" stroke-width="2" /><polyline fill="none" points="19.5254,41.6542 18.6576,29.5051 19.9593,8.678 21.261,9.9797 26.4678,26.4678 30.8068,34.7119" stroke="#ff6700" stroke-width="2" /><polyline fill="none" points="53.8034,70.2915 52.0678,69.8576 51.2,71.1593 52.5017,72.461 54.2373,71.5932 53.3695,73.3288 53.3695,71.5932" stroke="#f10700" stroke-width="2" /><polyline fill="none" points="52.9356,74.6305 52.9356,84.1763 51.2,85.9119 47.7288,85.478" stroke="#7f0000" stroke-width="2" /></svg>