<?xml version="1.0" encoding="utf-8" ?>
<svg baseProfile="tiny" height="128" version="1.2" viewBox="0,0,128,128" width="128" xmlns="http://www.w3.org/2000/svg" xmlns:ev="http://www.w3.org/2001/xml-events" xmlns:xlink="http://www.w3.org/1999/xlink"><defs /><polyline fill="none" points="29.5051,45.5593 26.0339,44.2576 8.678,12.1492 19.9593,18.6576 49.4644,49.0305 50.3322,43.8237 52.9356,40.3525 59.4441,39.0508 71.5932,39.0508 82.0068,50.7661 82.8746,31.6746 86.7797,18.6576 92.8542,11.7153 100.6644,8.678 101.9661,12.5831 101.9661,26.9017 97.1932,69.4237 90.6847,88.0814 86.3458,91.5525 81.5729,92.8542 67.6881,91.9864 47.2949,79.4034 37.7492,65.0847 29.939,48.1627 25.6,42.9559" stroke="#00007f" stroke-width="2" /><polyline fill="none" points="54.2373,61.1797 58.1424,62.9153 57.7085,60.7458 56.4068,62.4814" stroke="#0000f1" stroke-width="2" /><polyline fill="none" points="84.1763,63.3492 81.139,63.3492 80.2712,65.5186 82.4407,62.4814" stroke="#004cff" stroke-width="2" /><polyline fill="none" points="64.6508,74.1966 21.261,72.0271 13.8847,75.0644" stroke="#00b0ff" stroke-width="2" /><polyline fill="none" points="58.1424,72.461 47.7288,72.461 17.3559,83.3085" stroke="#29ffcd" stroke-width="2" /><polyline fill="none" points="62.0475,73.7627 52.9356,75.0644 46.861,78.1017 32.5424,85.478 26.9017,91.1186" stroke="#7cff79" stroke-width="2" /><polyline fill="none" points="82.4407,76.3661 97.6271,75.0644 119.322,66.3864" stroke="#cdff29" stroke-width="2" /><polyline fill="none" points="83.3085,80.2712 113.2475,76.3661" stroke="#ffc400" stroke-width="2" /><polyline fill="none" points="88.9492,84.6102 97.6271,88.9492 104.1356,88.9492" stroke="#ff6700" stroke-width="2" /><polyline fill="none" points="71.5932,79.4034 75.0644,78.9695" stroke="#f10700" stroke-width="2" /><polyline fill="none" points="68.9898,67.2542 67.6881,72.461" stroke="#7f0000" stroke-width="2" /></svg>