<?xml version="1.0" encoding="utf-8" ?>
<svg baseProfile="tiny" height="128" version="1.2" viewBox="0,0,128,128" width="128" xmlns="http://www.w3.org/2000/svg" xmlns:ev="http://www.w3.org/2001/xml-events" xmlns:xlink="http://www.w3.org/1999/xlink"><defs /><polyline fill="none" points="9.5458,61.6136 8.678,44.2576 15.6203,21.6949" stroke="#00007f" stroke-width="2" /><polyline fill="none" points="16.4881,20.8271 29.939,39.0508 31.6746,44.6915" stroke="#0000bf" stroke-width="2" /><polyline fill="none" points="32.1085,44.6915 35.1458,41.6542 45.5593,37.3153 66.8203,33.4102" stroke="#0000fe" stroke-width="2" /><polyline fill="none" points="66.8203,33.4102 68.5559,21.261 72.8949,8.678" stroke="#0028ff" stroke-width="2" /><polyline fill="none" points="73.7627,9.1119 82.0068,23.4305 88.5153,39.0508 90.6847,47.7288" stroke="#0060ff" stroke-width="2" /><polyline fill="none" points="43.8237,57.7085 47.2949,65.5186" stroke="#009cff" stroke-width="2" /><polyline fill="none" points="64.2169,52.5017 66.8203,58.1424" stroke="#00d4ff" stroke-width="2" /><polyline fill="none" points="56.8407,67.6881 55.539,72.461 56.8407,75.0644 62.0475,70.7254 67.2542,72.8949 68.9898,71.1593 70.2915,64.2169" stroke="#1fffd7" stroke-width="2" /><polyline fill="none" points="90.2508,45.1254 95.0237,55.9729 94.5898,68.122 87.6475,75.4983 76.8,82.0068" stroke="#4cffaa" stroke-width="2" /><polyline fill="none" points="9.1119,62.0475 14.7525,73.3288 25.6,82.0068 40.3525,86.3458 43.8237,86.3458 49.4644,82.8746" stroke="#7cff79" stroke-width="2" /><polyline fill="none" points="48.5966,88.0814 49.4644,82.4407 52.9356,80.2712 58.1424,79.4034 60.7458,81.139 61.6136,86.7797 54.6712,90.6847" stroke="#aaff4c" stroke-width="2" /><polyline fill="none" points="77.6678,82.0068 85.9119,80.7051 89.8169,81.5729 90.6847,82.8746 90.6847,85.9119 88.9492,88.0814 77.6678,87.2136" stroke="#d7ff1f" stroke-width="2" /><polyline fill="none" points="85.478,59.0102 97.6271,58.1424" stroke="#ffe500" stroke-width="2" /><polyline fill="none" points="92.4203,67.2542 95.4576,66.3864" stroke="#ffb100" stroke-width="2" /><polyline fill="none" points="92.4203,66.8203 100.6644,66.8203" stroke="#ff7a00" stroke-width="2" /><polyline fill="none" points="23.4305,73.7627 22.5627,75.4983 12.5831,82.0068" stroke="#ff4600" stroke-width="2" /><polyline fill="none" points="30.8068,77.6678 24.2983,85.478" stroke="#fe1200" stroke-width="2" /><polyline fill="none" points="37.3153,86.3458 37.3153,97.6271 39.0508,106.3051 42.0881,112.8136 48.1627,119.322" stroke="#bf0000" stroke-width="2" /><polyline fill="none" points="76.8,86.7797 77.2339,94.5898 82.0068,105.0034" stroke="#7f0000" stroke-width="2" /></svg>