<?xml version="1.0" encoding="utf-8" ?>
<svg baseProfile="tiny" height="128" version="1.2" viewBox="0,0,128,128" width="128" xmlns="http://www.w3.org/2000/svg" xmlns:ev="http://www.w3.org/2001/xml-events" xmlns:xlink="http://www.w3.org/1999/xlink"><defs /><polyline fill="none" points="86.3458,46.861 82.4407,42.9559 75.9322,40.3525 47.2949,38.1831 27.7695,46.4271 19.9593,52.5017 13.8847,59.878 9.9797,66.8203 8.678,73.3288 8.678,88.5153 13.0169,95.8915 19.5254,102.4 28.2034,107.1729 37.7492,110.6441 59.0102,111.5119 69.8576,110.2102 92.4203,101.5322 103.7017,95.8915 111.9458,89.3831 116.7186,82.8746 118.4542,77.2339 119.322,60.3119 115.4169,50.7661 111.9458,46.861 102.8339,40.7864 90.6847,36.8814 75.0644,37.3153 66.3864,42.9559" stroke="#00007f" stroke-width="2" /><polyline fill="none" points="12.1492,58.5763 21.261,45.1254 33.4102,10.8475 35.5797,8.678 40.3525,9.5458 43.8237,14.3186 46.861,38.1831 47.7288,39.9186 51.2,39.9186" stroke="#0000ff" stroke-width="2" /><polyline fill="none" points="74.1966,39.9186 75.0644,37.7492 89.3831,25.6 95.8915,16.4881 101.5322,10.8475 115.8508,9.1119 117.5864,12.5831 109.3424,34.278 108.9085,43.3898" stroke="#0080ff" stroke-width="2" /><polyline fill="none" points="90.2508,38.1831 98.9288,24.7322 100.6644,34.278 99.3627,38.6169" stroke="#15ffe1" stroke-width="2" /><polyline fill="none" points="29.5051,44.6915 31.2407,39.0508 41.2203,26.9017 41.2203,39.9186" stroke="#7cff79" stroke-width="2" /><polyline fill="none" points="49.4644,63.3492 45.1254,60.7458 39.9186,59.4441 31.6746,59.4441 26.4678,62.9153 26.0339,68.122 28.6373,69.8576 31.6746,71.1593 45.5593,71.5932 53.3695,66.8203 53.8034,65.0847 49.4644,62.9153" stroke="#e4ff12" stroke-width="2" /><polyline fill="none" points="95.4576,62.9153 78.1017,63.3492 72.0271,65.0847 69.8576,68.5559 69.8576,71.1593 75.4983,75.4983 85.478,77.2339 89.3831,76.3661 96.3254,70.7254 96.7593,65.0847 95.4576,64.6508" stroke="#ff9400" stroke-width="2" /><polyline fill="none" points="85.9119,65.0847 85.0441,71.1593 83.3085,72.461" stroke="#ff1d00" stroke-width="2" /><polyline fill="none" points="38.1831,59.4441 36.4475,70.2915" stroke="#7f0000" stroke-width="2" /></svg>