<?xml version="1.0" encoding="utf-8" ?>
<svg baseProfile="tiny" height="128" version="1.2" viewBox="0,0,128,128" width="128" xmlns="http://www.w3.org/2000/svg" xmlns:ev="http://www.w3.org/2001/xml-events" xmlns:xlink="http://www.w3.org/1999/xlink"><defs /><polyline fill="none" points="30.3729,48.1627 26.4678,48.5966 21.6949,53.8034 15.6203,63.7831 11.7153,72.8949 8.678,90.6847 8.678,100.6644 11.7153,106.3051 17.3559,111.078 34.278,116.7186 51.6339,119.322 67.2542,119.322 75.4983,114.1153 83.3085,105.8712 94.1559,88.0814 98.061,76.3661 98.061,66.8203 89.3831,53.8034 78.9695,45.5593 72.461,42.522 65.5186,40.3525 50.7661,39.4847 31.2407,39.4847 24.2983,42.522" stroke="#00007f" stroke-width="2" /><polyline fill="none" points="26.9017,60.7458 29.939,61.1797 40.7864,72.0271 51.6339,80.7051" stroke="#0010ff" stroke-width="2" /><polyline fill="none" points="49.4644,52.9356 23.8644,72.8949" stroke="#00a4ff" stroke-width="2" /><polyline fill="none" points="59.4441,60.7458 62.4814,61.6136 82.0068,82.0068" stroke="#3fffb7" stroke-width="2" /><polyline fill="none" points="74.1966,61.1797 61.6136,77.2339" stroke="#b7ff3f" stroke-width="2" /><polyline fill="none" points="20.3932,52.5017 19.5254,13.8847 22.9966,18.2237 32.9763,37.7492 38.6169,42.522" stroke="#ffb900" stroke-width="2" /><polyline fill="none" points="59.4441,37.3153 62.4814,38.1831 65.9525,36.4475 73.3288,29.0712 88.5153,8.678 90.6847,12.5831 83.7424,41.6542 83.7424,48.5966" stroke="#ff3000" stroke-width="2" /><polyline fill="none" points="51.2,81.139 48.5966,84.1763 49.4644,91.1186 41.6542,96.7593 45.9932,99.7966 53.8034,100.6644 62.9153,97.6271 53.3695,94.1559 49.8983,89.3831 48.1627,79.4034" stroke="#7f0000" stroke-width="2" /></svg>