<?xml version="1.0" encoding="utf-8" ?>
<svg baseProfile="tiny" height="128" version="1.2" viewBox="0,0,128,128" width="128" xmlns="http://www.w3.org/2000/svg" xmlns:ev="http://www.w3.org/2001/xml-events" xmlns:xlink="http://www.w3.org/1999/xlink"><defs /><polyline fill="none" points="85.0441,27.7695 101.0983,12.1492 107.6068,8.678 107.6068,17.7898 103.2678,30.8068 101.5322,40.7864" stroke="#00007f" stroke-width="2" /><polyline fill="none" points="84.1763,29.5051 80.2712,26.9017 65.9525,27.7695 52.9356,33.8441 49.0305,31.2407 30.3729,25.6 28.2034,29.0712 33.4102,44.2576 36.4475,49.4644" stroke="#0000f1" stroke-width="2" /><polyline fill="none" points="59.878,41.6542 59.878,48.5966 62.0475,50.3322" stroke="#004cff" stroke-width="2" /><polyline fill="none" points="79.8373,37.3153 82.4407,45.1254" stroke="#00b0ff" stroke-width="2" /><polyline fill="none" points="93.2881,56.8407 116.7186,45.1254 119.322,46.4271" stroke="#29ffcd" stroke-width="2" /><polyline fill="none" points="103.7017,67.2542 119.322,68.5559" stroke="#7cff79" stroke-width="2" /><polyline fill="none" points="100.6644,77.6678 110.2102,78.9695 114.5492,81.5729" stroke="#cdff29" stroke-width="2" /><polyline fill="none" points="36.4475,69.8576 8.678,67.6881" stroke="#ffc400" stroke-width="2" /><polyline fill="none" points="47.7288,72.0271 37.3153,73.7627 29.5051,77.6678" stroke="#ff6700" stroke-width="2" /><polyline fill="none" points="59.0102,81.5729 50.3322,82.8746 34.7119,95.4576" stroke="#f10700" stroke-width="2" /><polyline fill="none" points="39.0508,51.2 46.4271,66.8203 56.8407,82.8746 68.5559,93.2881 83.7424,96.3254 94.1559,93.722 100.6644,85.478 104.1356,76.3661 106.3051,57.2746 106.3051,48.1627 104.1356,38.6169" stroke="#7f0000" stroke-width="2" /></svg>