<?xml version="1.0" encoding="utf-8" ?>
<svg baseProfile="tiny" height="128" version="1.2" viewBox="0,0,128,128" width="128" xmlns="http://www.w3.org/2000/svg" xmlns:ev="http://www.w3.org/2001/xml-events" xmlns:xlink="http://www.w3.org/1999/xlink"><defs /><polyline fill="none" points="42.2313,29.6054 52.6803,27.8639 58.7755,15.2381" stroke="#00007f" stroke-width="2" /><polyline fill="none" points="62.2585,8.7075 62.2585,8.7075" stroke="#0000de" stroke-width="2" /><polyline fill="none" points="57.4694,16.1088 61.8231,9.1429 63.5646,27.4286 74.449,30.0408 79.6735,14.8027 81.8503,11.7551 84.0272,22.6395 83.5918,31.7823 90.5578,38.3129 94.0408,49.1973 92.7347,58.3401 87.0748,65.3061 79.2381,69.2245 64.0,70.0952 46.1497,67.483 36.1361,62.6939 31.7823,53.1156 33.0884,43.102 35.7007,37.4422 45.7143,26.5578" stroke="#0028ff" stroke-width="2" /><polyline fill="none" points="45.7143,53.1156 44.8435,57.034 46.585,60.9524 50.9388,62.2585 55.2925,58.7755 57.4694,64.4354 61.3878,66.6122 65.7415,67.0476 69.2245,65.3061 71.4014,62.2585 71.4014,59.2109" stroke="#0080ff" stroke-width="2" /><polyline fill="none" points="58.7755,47.8912 59.2109,47.8912" stroke="#00d4ff" stroke-width="2" /><polyline fill="none" points="50.9388,31.3469 47.4558,33.9592 47.4558,37.4422 49.6327,39.1837 54.8571,39.1837 57.4694,37.4422 58.3401,34.8299 57.034,31.3469 54.8571,30.0408" stroke="#36ffc0" stroke-width="2" /><polyline fill="none" points="77.932,37.4422 75.7551,36.5714 74.449,37.8776 74.8844,41.7959 78.3673,42.2313 81.8503,39.619 81.415,37.0068 78.8027,35.7007" stroke="#7cff79" stroke-width="2" /><polyline fill="none" points="43.9728,44.4082 15.2381,26.5578" stroke="#c0ff36" stroke-width="2" /><polyline fill="none" points="44.4082,48.3265 8.7075,56.1633" stroke="#ffe500" stroke-width="2" /><polyline fill="none" points="85.3333,49.1973 119.2925,35.7007" stroke="#ff9400" stroke-width="2" /><polyline fill="none" points="85.3333,54.4218 95.3469,63.5646 107.102,70.966" stroke="#ff4600" stroke-width="2" /><polyline fill="none" points="78.8027,37.8776 77.0612,41.3605 78.3673,38.3129" stroke="#de0000" stroke-width="2" /><polyline fill="none" points="53.9864,33.9592 53.551,34.8299" stroke="#7f0000" stroke-width="2" /></svg>