<?xml version="1.0" encoding="utf-8" ?>
<svg baseProfile="tiny" height="128" version="1.2" viewBox="0,0,128,128" width="128" xmlns="http://www.w3.org/2000/svg" xmlns:ev="http://www.w3.org/2001/xml-events" xmlns:xlink="http://www.w3.org/1999/xlink"><defs /><polyline fill="none" points="22.5627,44.2576 22.5627,44.2576" stroke="#00007f" stroke-width="2" /><polyline fill="none" points="22.5627,44.2576 17.3559,47.2949 13.4508,57.2746 14.3186,81.5729 18.2237,94.5898 25.6,105.8712 35.5797,114.5492 42.9559,118.0203 56.8407,119.322 73.7627,108.9085 78.9695,103.7017 85.0441,94.1559 88.5153,82.0068 89.3831,50.3322 84.1763,42.9559 78.1017,38.6169 68.9898,35.1458 58.1424,33.8441 44.2576,33.8441 28.6373,39.0508 18.2237,45.1254" stroke="#0000d5" stroke-width="2" /><polyline fill="none" points="66.8203,32.5424 70.7254,24.2983 81.139,8.678 83.7424,32.1085 86.3458,40.3525" stroke="#001cff" stroke-width="2" /><polyline fill="none" points="31.2407,36.4475 20.8271,22.9966 13.8847,9.9797 9.9797,23.4305 8.678,36.0136 9.1119,45.1254 11.2814,54.6712" stroke="#006cff" stroke-width="2" /><polyline fill="none" points="49.4644,84.1763 49.8983,90.6847 52.9356,92.8542 55.539,90.6847 56.4068,84.6102 54.6712,82.8746 50.7661,83.3085 49.8983,91.1186 52.5017,92.4203 55.539,89.3831 54.6712,83.7424 51.2,82.8746 51.6339,89.8169 55.1051,90.6847 55.539,86.7797 52.0678,85.9119 51.6339,87.6475 52.9356,88.5153" stroke="#00b8ff" stroke-width="2" /><polyline fill="none" points="54.2373,84.6102 54.2373,85.9119" stroke="#1cffda" stroke-width="2" /><polyline fill="none" points="25.6,59.4441 31.6746,56.8407 37.3153,57.7085 39.4847,64.2169 34.7119,67.6881 29.0712,68.122 26.0339,62.4814 27.3356,59.878 32.5424,57.7085" stroke="#5cff9a" stroke-width="2" /><polyline fill="none" points="67.2542,55.9729 70.2915,53.8034 75.0644,54.6712 76.8,62.4814 74.6305,64.6508 71.1593,65.5186 67.6881,65.0847 65.0847,60.7458 65.5186,54.6712 72.8949,52.9356" stroke="#9aff5c" stroke-width="2" /><polyline fill="none" points="66.3864,82.4407 72.0271,76.8 77.6678,74.1966" stroke="#daff1c" stroke-width="2" /><polyline fill="none" points="68.5559,88.5153 75.4983,88.9492 82.4407,91.1186" stroke="#ffcb00" stroke-width="2" /><polyline fill="none" points="64.6508,95.8915 68.9898,103.7017 74.6305,107.1729" stroke="#ff8500" stroke-width="2" /><polyline fill="none" points="40.7864,84.6102 24.2983,79.4034" stroke="#ff3b00" stroke-width="2" /><polyline fill="none" points="39.4847,91.5525 33.8441,93.2881 27.7695,99.3627" stroke="#d50000" stroke-width="2" /><polyline fill="none" points="47.7288,101.5322 39.9186,113.6814" stroke="#7f0000" stroke-width="2" /></svg>