<?xml version="1.0" encoding="utf-8" ?>
<svg baseProfile="tiny" height="128" version="1.2" viewBox="0,0,128,128" width="128" xmlns="http://www.w3.org/2000/svg" xmlns:ev="http://www.w3.org/2001/xml-events" xmlns:xlink="http://www.w3.org/1999/xlink"><defs /><polyline fill="none" points="66.8203,28.2034 62.4814,25.6 58.1424,24.7322 32.5424,40.3525 19.9593,51.2 16.922,55.9729 16.0542,60.3119 16.922,79.8373 26.9017,98.061 36.8814,105.4373 45.1254,109.3424 59.0102,112.8136 68.5559,112.8136 78.1017,109.7763 82.8746,103.2678 85.478,95.0237 85.9119,66.3864 78.5356,45.9932 72.8949,32.9763 69.8576,28.6373 63.7831,27.7695" stroke="#00007f" stroke-width="2" /><polyline fill="none" points="72.0271,32.1085 78.5356,22.5627 96.3254,8.678 91.1186,28.2034 78.5356,51.2" stroke="#0000d1" stroke-width="2" /><polyline fill="none" points="83.3085,31.6746 82.4407,30.8068 80.7051,32.9763 83.7424,32.1085 82.8746,29.939 80.7051,29.5051" stroke="#0010ff" stroke-width="2" /><polyline fill="none" points="31.6746,42.0881 29.939,29.939 23.4305,9.1119 23.8644,41.6542" stroke="#0058ff" stroke-width="2" /><polyline fill="none" points="25.1661,41.6542 25.6,45.1254" stroke="#00a4ff" stroke-width="2" /><polyline fill="none" points="27.3356,33.8441 27.3356,36.0136 26.9017,33.8441" stroke="#05ecf1" stroke-width="2" /><polyline fill="none" points="64.2169,83.7424 70.7254,81.5729 83.7424,81.5729 90.2508,89.8169" stroke="#3fffb7" stroke-width="2" /><polyline fill="none" points="64.2169,92.4203 85.9119,97.6271 118.4542,102.8339" stroke="#7cff79" stroke-width="2" /><polyline fill="none" points="66.3864,96.7593 85.478,109.7763 105.8712,119.322" stroke="#b7ff3f" stroke-width="2" /><polyline fill="none" points="69.4237,82.4407 75.9322,80.7051 93.2881,80.7051 113.2475,83.3085" stroke="#f1fc05" stroke-width="2" /><polyline fill="none" points="39.9186,80.2712 18.6576,82.8746 15.6203,85.9119 16.0542,88.0814" stroke="#ffb900" stroke-width="2" /><polyline fill="none" points="42.9559,91.9864 36.4475,93.722 18.6576,94.1559 16.922,94.5898 17.3559,95.8915" stroke="#ff7300" stroke-width="2" /><polyline fill="none" points="41.6542,102.8339 11.7153,101.9661 8.678,110.2102" stroke="#ff3000" stroke-width="2" /><polyline fill="none" points="41.6542,60.3119 40.3525,61.6136" stroke="#d10000" stroke-width="2" /><polyline fill="none" points="50.7661,58.5763 53.3695,59.4441" stroke="#7f0000" stroke-width="2" /></svg>