<?xml version="1.0" encoding="utf-8" ?>
<svg baseProfile="tiny" height="128" version="1.2" viewBox="0,0,128,128" width="128" xmlns="http://www.w3.org/2000/svg" xmlns:ev="http://www.w3.org/2001/xml-events" xmlns:xlink="http://www.w3.org/1999/xlink"><defs /><polyline fill="none" points="41.2203,38.1831 33.4102,36.4475 25.6,37.7492 19.9593,41.6542 16.922,46.861 15.1864,56.8407 15.6203,65.9525 19.9593,75.0644 25.6,82.0068 32.1085,87.2136 38.6169,90.6847 48.1627,91.9864 55.1051,91.5525 66.8203,85.0441 72.8949,75.4983 74.6305,57.2746 72.0271,50.7661 65.5186,45.1254 58.1424,41.2203 49.0305,37.7492 39.0508,36.0136" stroke="#00007f" stroke-width="2" /><polyline fill="none" points="15.1864,49.0305 9.1119,31.2407 8.678,24.7322 15.1864,25.1661 30.3729,32.9763" stroke="#0000f1" stroke-width="2" /><polyline fill="none" points="55.1051,39.9186 66.3864,23.8644 70.2915,19.5254 72.0271,19.9593 73.7627,27.3356 72.461,45.5593" stroke="#004cff" stroke-width="2" /><polyline fill="none" points="30.8068,61.6136 30.8068,61.6136" stroke="#00b0ff" stroke-width="2" /><polyline fill="none" points="53.8034,61.1797 53.8034,61.1797" stroke="#29ffcd" stroke-width="2" /><polyline fill="none" points="41.6542,70.7254 56.4068,71.5932 57.7085,73.3288 58.5763,77.2339 56.8407,79.8373 53.3695,82.0068 47.2949,82.0068 42.0881,77.2339 40.7864,70.2915" stroke="#7cff79" stroke-width="2" /><polyline fill="none" points="73.7627,49.0305 74.1966,8.678 64.6508,24.7322 56.8407,43.8237 62.4814,29.0712 71.1593,13.4508 73.7627,17.7898 74.6305,24.2983 76.3661,48.5966 75.9322,49.8983 73.7627,47.2949" stroke="#cdff29" stroke-width="2" /><polyline fill="none" points="31.2407,34.278 11.7153,20.3932 12.5831,28.6373 20.3932,47.7288" stroke="#ffc400" stroke-width="2" /><polyline fill="none" points="61.6136,91.5525 73.7627,98.4949 90.6847,103.2678" stroke="#ff6700" stroke-width="2" /><polyline fill="none" points="42.522,93.2881 46.4271,98.4949 53.8034,112.8136 59.878,117.5864 78.1017,119.322 84.1763,118.8881 93.2881,106.739" stroke="#f10700" stroke-width="2" /><polyline fill="none" points="92.8542,105.4373 98.4949,83.7424 96.3254,92.4203 90.6847,99.3627 92.4203,95.0237" stroke="#7f0000" stroke-width="2" /></svg>