<?xml version="1.0" encoding="utf-8" ?>
<svg baseProfile="tiny" height="128" version="1.2" viewBox="0,0,128,128" width="128" xmlns="http://www.w3.org/2000/svg" xmlns:ev="http://www.w3.org/2001/xml-events" xmlns:xlink="http://www.w3.org/1999/xlink"><defs /><polyline fill="none" points="67.2542,39.4847 59.878,36.8814 40.3525,37.7492 30.8068,40.3525 21.261,47.7288 18.6576,55.1051 22.1288,61.1797 32.1085,67.6881 44.2576,68.9898 53.3695,67.6881 66.8203,62.0475 75.4983,51.6339 77.2339,45.9932 76.3661,42.0881 70.2915,39.9186 60.7458,39.9186" stroke="#00007f" stroke-width="2" /><polyline fill="none" points="19.5254,56.4068 8.678,19.9593" stroke="#0000de" stroke-width="2" /><polyline fill="none" points="77.6678,42.0881 74.6305,41.2203 71.5932,36.8814 70.7254,32.1085 72.0271,29.5051 78.1017,23.8644 82.4407,22.5627 94.5898,21.261 100.6644,23.8644 102.8339,27.7695 102.4,33.8441 97.6271,39.9186 90.6847,44.6915 83.3085,46.4271 77.6678,46.4271 73.7627,41.6542" stroke="#0028ff" stroke-width="2" /><polyline fill="none" points="77.2339,25.1661 76.3661,18.2237 78.5356,8.678 82.0068,22.9966" stroke="#0080ff" stroke-width="2" /><polyline fill="none" points="101.9661,26.9017 110.2102,22.5627 119.322,21.6949 103.2678,32.5424" stroke="#00d4ff" stroke-width="2" /><polyline fill="none" points="25.6,68.5559 22.5627,86.3458" stroke="#36ffc0" stroke-width="2" /><polyline fill="none" points="35.5797,66.8203 33.4102,82.8746" stroke="#7cff79" stroke-width="2" /><polyline fill="none" points="56.4068,65.9525 53.3695,86.7797" stroke="#c0ff36" stroke-width="2" /><polyline fill="none" points="68.9898,58.5763 65.5186,82.0068" stroke="#ffe500" stroke-width="2" /><polyline fill="none" points="32.5424,50.7661 34.278,37.3153 40.3525,22.1288" stroke="#ff9400" stroke-width="2" /><polyline fill="none" points="26.0339,55.9729 24.7322,43.8237 28.6373,22.9966" stroke="#ff4600" stroke-width="2" /><polyline fill="none" points="40.3525,59.878 39.0508,51.2 44.2576,29.5051" stroke="#de0000" stroke-width="2" /><polyline fill="none" points="41.2203,61.6136 39.4847,59.0102 39.4847,55.539 45.1254,42.522" stroke="#7f0000" stroke-width="2" /></svg>