<?xml version="1.0" encoding="utf-8" ?>
<svg baseProfile="tiny" height="128" version="1.2" viewBox="0,0,128,128" width="128" xmlns="http://www.w3.org/2000/svg" xmlns:ev="http://www.w3.org/2001/xml-events" xmlns:xlink="http://www.w3.org/1999/xlink"><defs /><polyline fill="none" points="70.2915,34.7119 57.7085,31.6746 43.8237,31.6746 33.4102,34.278 13.8847,48.5966 10.8475,52.5017 8.678,59.878 10.4136,82.8746 12.1492,88.0814 17.3559,97.1932 26.4678,101.5322 57.2746,109.7763 93.2881,101.9661 100.2305,98.061 103.2678,94.1559 108.0407,81.139 108.4746,53.3695 103.7017,41.2203 95.8915,31.6746 75.0644,29.0712 61.6136,29.939 55.9729,31.2407 55.1051,33.4102" stroke="#00007f" stroke-width="2" /><polyline fill="none" points="91.9864,32.9763 95.8915,31.6746 103.7017,25.1661 119.322,8.678 118.8881,14.7525 114.1153,26.9017 105.4373,38.6169 96.7593,43.8237" stroke="#0080ff" stroke-width="2" /><polyline fill="none" points="42.522,34.7119 40.3525,28.2034 29.939,10.8475 22.9966,29.0712 13.8847,46.4271 14.3186,49.4644" stroke="#7cff79" stroke-width="2" /><polyline fill="none" points="34.7119,52.9356 36.4475,58.1424 37.7492,58.5763 38.1831,55.9729 36.8814,52.5017 35.1458,52.5017 33.4102,55.539 33.4102,62.0475 36.4475,61.6136 38.6169,59.0102 38.6169,53.3695 37.7492,52.9356 36.0136,54.6712 35.5797,62.9153 36.8814,63.3492 38.1831,62.4814 38.6169,57.2746 37.3153,56.4068" stroke="#ff9400" stroke-width="2" /><polyline fill="none" points="84.6102,61.1797 86.7797,61.6136 87.2136,57.2746 85.478,55.9729 83.3085,58.5763 82.4407,62.9153 85.0441,63.3492 87.6475,58.5763 88.0814,57.2746 86.3458,57.7085" stroke="#7f0000" stroke-width="2" /></svg>