<?xml version="1.0" encoding="utf-8" ?>
<svg baseProfile="tiny" height="128" version="1.2" viewBox="0,0,128,128" width="128" xmlns="http://www.w3.org/2000/svg" xmlns:ev="http://www.w3.org/2001/xml-events" xmlns:xlink="http://www.w3.org/1999/xlink"><defs /><polyline fill="none" points="9.1119,43.3898 8.678,38.6169 10.8475,29.939 9.5458,16.922 22.1288,24.2983 41.2203,39.9186 44.2576,39.9186 50.7661,36.8814 59.4441,35.1458 69.4237,34.278 78.9695,36.0136 82.0068,32.5424 82.0068,28.2034 91.9864,9.5458 95.0237,8.678 99.3627,22.9966 101.0983,36.4475 104.1356,45.1254 106.3051,73.3288 102.8339,88.5153 91.1186,105.0034 82.4407,111.078 56.4068,119.322 51.6339,119.322 30.8068,114.9831 19.0915,104.5695 12.1492,90.2508 9.5458,71.1593 9.9797,54.2373 13.0169,41.2203 15.1864,39.9186" stroke="#00007f" stroke-width="2" /><polyline fill="none" points="48.5966,63.3492 48.5966,59.878 45.1254,58.5763" stroke="#0080ff" stroke-width="2" /><polyline fill="none" points="76.3661,55.9729 72.461,57.2746 72.0271,59.878 74.6305,59.4441 74.6305,56.8407" stroke="#7cff79" stroke-width="2" /><polyline fill="none" points="60.3119,73.3288 60.7458,73.7627" stroke="#ff9400" stroke-width="2" /><polyline fill="none" points="62.4814,74.1966 62.4814,85.478 60.3119,91.1186 54.2373,93.2881 47.7288,92.8542 49.0305,95.4576 59.4441,95.4576 71.1593,83.7424 70.7254,81.5729" stroke="#7f0000" stroke-width="2" /></svg>