<?xml version="1.0" encoding="utf-8" ?>
<svg baseProfile="tiny" height="128" version="1.2" viewBox="0,0,128,128" width="128" xmlns="http://www.w3.org/2000/svg" xmlns:ev="http://www.w3.org/2001/xml-events" xmlns:xlink="http://www.w3.org/1999/xlink"><defs /><polyline fill="none" points="25.6,41.2203 33.8441,12.5831 41.2203,41.6542 47.2949,34.278 51.2,32.5424 60.3119,31.6746 71.5932,35.5797 78.1017,42.9559 85.0441,24.2983 87.6475,8.678 88.9492,9.1119 95.0237,22.9966 97.6271,32.9763 96.7593,60.7458 95.0237,71.1593 88.9492,87.2136 80.2712,94.5898 73.3288,95.0237 60.3119,91.9864 47.7288,85.0441 38.1831,73.7627 30.3729,60.7458 26.4678,48.5966 26.9017,39.4847" stroke="#00007f" stroke-width="2" /><polyline fill="none" points="59.4441,67.6881 62.9153,72.461 64.2169,65.0847 59.4441,65.5186" stroke="#0000f1" stroke-width="2" /><polyline fill="none" points="62.0475,70.2915 62.0475,82.8746 55.1051,82.0068 53.3695,77.2339" stroke="#004cff" stroke-width="2" /><polyline fill="none" points="60.7458,82.8746 68.122,83.3085 70.2915,82.4407 73.3288,78.1017 74.1966,73.3288" stroke="#00b0ff" stroke-width="2" /><polyline fill="none" points="64.2169,75.4983 67.2542,72.0271 98.4949,45.9932" stroke="#29ffcd" stroke-width="2" /><polyline fill="none" points="62.4814,76.3661 77.6678,68.122 93.722,61.6136 101.5322,59.4441 110.6441,58.5763" stroke="#7cff79" stroke-width="2" /><polyline fill="none" points="62.4814,77.2339 68.122,76.8 108.0407,64.2169 119.322,62.9153" stroke="#cdff29" stroke-width="2" /><polyline fill="none" points="58.1424,73.7627 32.5424,60.3119 19.5254,57.7085" stroke="#ffc400" stroke-width="2" /><polyline fill="none" points="61.6136,76.3661 8.678,67.2542" stroke="#ff6700" stroke-width="2" /><polyline fill="none" points="59.0102,79.4034 38.1831,78.9695 25.1661,80.7051" stroke="#f10700" stroke-width="2" /><polyline fill="none" points="48.1627,49.4644 49.8983,49.4644 51.2,52.5017 47.7288,52.5017 47.2949,51.2 49.0305,52.5017 49.0305,50.7661" stroke="#7f0000" stroke-width="2" /></svg>