<?xml version="1.0" encoding="utf-8" ?>
<svg baseProfile="tiny" height="128" version="1.2" viewBox="0,0,128,128" width="128" xmlns="http://www.w3.org/2000/svg" xmlns:ev="http://www.w3.org/2001/xml-events" xmlns:xlink="http://www.w3.org/1999/xlink"><defs /><polyline fill="none" points="32.5424,20.3932 25.6,32.9763 26.4678,43.3898 36.8814,51.6339 46.4271,54.6712 52.5017,54.6712 61.6136,39.4847 61.6136,28.6373 58.5763,16.4881 55.9729,13.0169 50.3322,10.4136 43.3898,10.4136 38.6169,13.4508 33.4102,20.8271" stroke="#00007f" stroke-width="2" /><polyline fill="none" points="33.4102,16.922 28.2034,12.5831 20.8271,10.4136 24.7322,23.4305" stroke="#0000e8" stroke-width="2" /><polyline fill="none" points="57.2746,15.6203 72.8949,8.678 69.8576,16.4881 61.6136,23.8644" stroke="#0038ff" stroke-width="2" /><polyline fill="none" points="33.8441,50.7661 23.8644,63.7831 19.9593,72.461 16.4881,88.0814 16.4881,98.061 20.8271,110.2102 26.9017,116.7186 36.0136,119.322 43.8237,119.322 55.539,116.2847 64.2169,110.6441 69.4237,102.4 71.5932,94.5898 71.5932,84.6102 65.5186,65.5186 61.1797,57.2746 52.5017,49.4644" stroke="#0094ff" stroke-width="2" /><polyline fill="none" points="65.5186,103.2678 77.2339,112.3797 89.3831,116.2847 94.5898,115.4169 104.5695,108.4746 110.6441,98.4949 110.2102,89.3831 108.0407,88.0814 103.7017,87.6475 102.4,89.3831" stroke="#0cf4ea" stroke-width="2" /><polyline fill="none" points="41.6542,33.8441 41.6542,40.7864 40.3525,42.9559 36.4475,43.3898" stroke="#56ffa0" stroke-width="2" /><polyline fill="none" points="40.3525,31.6746 40.3525,34.278 45.5593,39.9186 50.3322,41.6542 53.3695,39.4847" stroke="#a0ff56" stroke-width="2" /><polyline fill="none" points="35.5797,22.5627 35.5797,24.7322 35.5797,22.5627" stroke="#eaff0c" stroke-width="2" /><polyline fill="none" points="47.7288,20.3932 47.7288,20.8271" stroke="#ffaa00" stroke-width="2" /><polyline fill="none" points="24.7322,62.4814 25.6,59.4441 30.3729,56.4068 33.8441,59.4441 34.7119,74.1966 33.8441,76.3661 32.1085,76.3661 31.6746,74.1966" stroke="#ff5500" stroke-width="2" /><polyline fill="none" points="64.2169,66.3864 60.7458,62.4814 56.4068,61.6136 50.3322,71.5932 47.7288,81.139 48.1627,85.478 51.2,85.478 53.3695,81.5729" stroke="#e80000" stroke-width="2" /><polyline fill="none" points="23.4305,110.2102 20.8271,94.1559 18.2237,92.4203 13.8847,92.4203 11.7153,95.4576 8.678,105.8712 8.678,114.5492" stroke="#7f0000" stroke-width="2" /></svg>