<?xml version="1.0" encoding="utf-8" ?>
<svg baseProfile="tiny" height="128" version="1.2" viewBox="0,0,128,128" width="128" xmlns="http://www.w3.org/2000/svg" xmlns:ev="http://www.w3.org/2001/xml-events" xmlns:xlink="http://www.w3.org/1999/xlink"><defs /><polyline fill="none" points="57.2746,44.2576 38.6169,42.522 29.0712,45.9932 18.6576,51.6339 16.0542,54.2373 9.1119,65.5186 8.678,70.2915 9.9797,91.1186 14.7525,102.4 19.5254,108.0407 29.939,115.8508 51.2,119.322 65.0847,117.5864 82.0068,109.7763 85.0441,106.739 91.5525,96.3254 96.7593,83.7424 98.061,67.6881 95.4576,60.7458 93.2881,56.4068 82.0068,47.7288 72.8949,45.5593 60.7458,44.6915 55.539,42.0881" stroke="#00007f" stroke-width="2" /><polyline fill="none" points="16.4881,44.6915 16.922,47.2949 22.9966,39.4847 32.1085,8.678 38.1831,13.8847 45.5593,26.0339 52.5017,44.2576" stroke="#0028ff" stroke-width="2" /><polyline fill="none" points="75.4983,45.5593 86.3458,34.7119 100.2305,17.7898 102.4,21.6949 105.8712,39.9186 105.8712,46.861 97.1932,72.461 91.5525,81.5729" stroke="#00d4ff" stroke-width="2" /><polyline fill="none" points="34.7119,67.2542 36.8814,67.2542" stroke="#7cff79" stroke-width="2" /><polyline fill="none" points="71.1593,65.5186 71.1593,65.5186" stroke="#ffe500" stroke-width="2" /><polyline fill="none" points="38.6169,87.2136 49.0305,95.0237 62.0475,98.4949 68.5559,98.4949 75.9322,86.7797" stroke="#ff4600" stroke-width="2" /><polyline fill="none" points="50.3322,79.4034 53.8034,87.2136 55.539,96.3254 53.8034,98.9288 51.2,99.3627" stroke="#7f0000" stroke-width="2" /></svg>