<?xml version="1.0" encoding="utf-8" ?>
<svg baseProfile="tiny" height="128" version="1.2" viewBox="0,0,128,128" width="128" xmlns="http://www.w3.org/2000/svg" xmlns:ev="http://www.w3.org/2001/xml-events" xmlns:xlink="http://www.w3.org/1999/xlink"><defs /><polyline fill="none" points="76.8,37.7492 76.8,32.5424 81.5729,9.9797 82.4407,17.3559 86.3458,28.6373 95.0237,25.6 103.7017,27.7695 105.8712,17.3559 112.8136,8.678 114.5492,18.6576 115.4169,40.7864 111.9458,49.8983 100.2305,57.7085 95.4576,59.4441 85.478,60.3119 74.6305,53.8034 72.8949,49.4644 72.8949,44.2576 74.6305,39.9186 78.1017,36.8814" stroke="#00007f" stroke-width="2" /><polyline fill="none" points="74.1966,36.0136 72.0271,33.8441 65.5186,32.9763 50.7661,33.4102 32.5424,37.7492 22.1288,45.9932 24.2983,49.4644 26.9017,50.7661 36.4475,52.0678 59.878,52.0678 72.461,49.8983" stroke="#0000d1" stroke-width="2" /><polyline fill="none" points="17.3559,43.8237 8.678,30.8068 11.7153,36.8814 18.6576,45.1254 22.9966,46.861 27.3356,50.7661 31.2407,50.7661" stroke="#0010ff" stroke-width="2" /><polyline fill="none" points="26.9017,50.3322 26.9017,66.3864 31.2407,72.8949" stroke="#0058ff" stroke-width="2" /><polyline fill="none" points="39.4847,56.4068 41.2203,70.2915" stroke="#00a4ff" stroke-width="2" /><polyline fill="none" points="53.3695,46.4271 56.4068,64.6508" stroke="#05ecf1" stroke-width="2" /><polyline fill="none" points="65.0847,47.7288 66.3864,68.5559" stroke="#3fffb7" stroke-width="2" /><polyline fill="none" points="84.6102,37.3153 84.6102,37.3153" stroke="#7cff79" stroke-width="2" /><polyline fill="none" points="102.8339,38.6169 102.8339,38.6169" stroke="#b7ff3f" stroke-width="2" /><polyline fill="none" points="89.8169,49.8983 118.4542,45.1254" stroke="#f1fc05" stroke-width="2" /><polyline fill="none" points="93.2881,51.2 107.6068,52.9356 119.322,52.5017" stroke="#ffb900" stroke-width="2" /><polyline fill="none" points="90.2508,57.7085 106.739,64.6508" stroke="#ff7300" stroke-width="2" /><polyline fill="none" points="84.1763,49.8983 75.0644,46.4271 58.5763,44.2576" stroke="#ff3000" stroke-width="2" /><polyline fill="none" points="88.9492,50.7661 86.7797,49.8983 78.1017,50.7661 67.6881,52.9356 66.8203,54.2373" stroke="#d10000" stroke-width="2" /><polyline fill="none" points="82.4407,54.2373 80.2712,57.7085 75.0644,60.7458 72.0271,65.9525 67.2542,69.4237" stroke="#7f0000" stroke-width="2" /></svg>