<?xml version="1.0" encoding="utf-8" ?>
<svg baseProfile="tiny" height="128" version="1.2" viewBox="0,0,128,128" width="128" xmlns="http://www.w3.org/2000/svg" xmlns:ev="http://www.w3.org/2001/xml-events" xmlns:xlink="http://www.w3.org/1999/xlink"><defs /><polyline fill="none" points="25.6871,54.4218 25.2517,24.8163 28.2993,11.3197 31.7823,13.932 41.3605,31.7823 44.4082,43.5374 45.2789,54.4218" stroke="#00007f" stroke-width="2" /><polyline fill="none" points="8.7075,63.1293 32.6531,59.6463 50.9388,53.551 60.517,52.2449 89.6871,52.6803 107.5374,57.4694 107.5374,67.483 106.2313,72.2721 90.5578,94.0408 83.5918,101.0068 63.5646,108.8435 52.2449,108.8435 42.2313,105.7959 20.0272,93.6054 17.8503,90.9932 15.6735,87.0748 16.5442,72.7075 27.4286,61.3878 29.6054,60.517" stroke="#0080ff" stroke-width="2" /><polyline fill="none" points="82.7211,50.9388 80.9796,50.9388 80.1088,48.7619 80.1088,43.5374 90.1224,28.2993 101.8776,22.2041 119.2925,8.7075 116.6803,32.2177 108.8435,56.5986" stroke="#7cff79" stroke-width="2" /><polyline fill="none" points="32.2177,97.0884 47.0204,100.5714 54.8571,100.1361 70.5306,94.4762 72.7075,90.5578" stroke="#ff9400" stroke-width="2" /><polyline fill="none" points="52.6803,73.5782 52.6803,73.1429" stroke="#7f0000" stroke-width="2" /></svg>