<?xml version="1.0" encoding="utf-8" ?>
<svg baseProfile="tiny" height="128" version="1.2" viewBox="0,0,128,128" width="128" xmlns="http://www.w3.org/2000/svg" xmlns:ev="http://www.w3.org/2001/xml-events" xmlns:xlink="http://www.w3.org/1999/xlink"><defs /><polyline fill="none" points="82.4407,35.5797 79.4034,32.1085 75.9322,31.2407 65.0847,30.8068 56.8407,31.6746 48.5966,35.1458 31.2407,46.4271 16.4881,62.4814 9.5458,77.6678 8.678,85.9119 9.5458,92.4203 12.5831,98.061 24.7322,107.1729 33.4102,110.2102 52.9356,111.5119 63.3492,110.2102 82.8746,101.0983 97.6271,85.9119 101.5322,78.1017 103.2678,62.4814 102.4,55.9729 98.4949,49.8983 88.5153,41.6542 83.7424,39.4847 78.1017,38.1831" stroke="#00007f" stroke-width="2" /><polyline fill="none" points="17.3559,51.2 16.922,36.8814 19.0915,8.678 22.1288,9.9797 24.7322,13.8847 35.5797,34.278 42.9559,39.9186" stroke="#0028ff" stroke-width="2" /><polyline fill="none" points="86.7797,36.8814 87.6475,34.7119 118.0203,14.7525 119.322,19.5254 117.1525,29.5051 111.078,50.7661 104.5695,63.7831" stroke="#00d4ff" stroke-width="2" /><polyline fill="none" points="47.7288,60.7458 49.8983,62.0475 51.2,56.8407 49.4644,54.2373 45.9932,55.1051 44.6915,61.1797 48.5966,63.7831 51.6339,63.7831 55.9729,58.1424 55.1051,53.3695" stroke="#7cff79" stroke-width="2" /><polyline fill="none" points="86.7797,58.5763 84.1763,58.1424 78.9695,65.0847 83.7424,60.7458 84.6102,58.1424 79.8373,59.4441" stroke="#ffe500" stroke-width="2" /><polyline fill="none" points="59.878,78.9695 58.5763,80.2712" stroke="#ff4600" stroke-width="2" /><polyline fill="none" points="47.7288,78.5356 43.3898,76.8 18.6576,74.6305" stroke="#7f0000" stroke-width="2" /></svg>