<?xml version="1.0" encoding="utf-8" ?>
<svg baseProfile="tiny" height="128" version="1.2" viewBox="0,0,128,128" width="128" xmlns="http://www.w3.org/2000/svg" xmlns:ev="http://www.w3.org/2001/xml-events" xmlns:xlink="http://www.w3.org/1999/xlink"><defs /><polyline fill="none" points="56.4068,10.4136 50.7661,10.8475 42.9559,14.3186 33.8441,22.5627 30.3729,29.0712 29.5051,35.1458 31.2407,41.2203 36.8814,51.6339 42.9559,55.539 55.539,56.4068 63.3492,54.6712 70.7254,50.3322 73.7627,42.9559 73.3288,35.1458 70.2915,29.5051 57.2746,12.1492 54.6712,9.5458 50.3322,8.678" stroke="#00007f" stroke-width="2" /><polyline fill="none" points="63.7831,18.2237 64.2169,16.922 77.6678,19.9593 89.3831,20.3932 109.7763,29.5051 106.3051,61.6136 101.9661,55.9729 88.0814,48.5966 79.4034,46.4271 68.122,45.9932" stroke="#0000fe" stroke-width="2" /><polyline fill="none" points="82.8746,47.7288 81.5729,48.1627 80.2712,62.0475 80.2712,67.2542 82.0068,68.9898" stroke="#0060ff" stroke-width="2" /><polyline fill="none" points="98.061,50.7661 96.7593,58.1424 98.061,68.9898 100.2305,74.1966 102.8339,75.0644" stroke="#00d4ff" stroke-width="2" /><polyline fill="none" points="101.0983,54.6712 101.5322,60.3119 107.6068,76.8 109.3424,77.6678" stroke="#4cffaa" stroke-width="2" /><polyline fill="none" points="108.0407,54.2373 110.6441,64.2169 119.322,77.6678" stroke="#aaff4c" stroke-width="2" /><polyline fill="none" points="43.8237,34.278 22.5627,33.4102 16.0542,34.7119" stroke="#ffe500" stroke-width="2" /><polyline fill="none" points="53.8034,33.8441 63.3492,33.8441 88.0814,29.939" stroke="#ff7a00" stroke-width="2" /><polyline fill="none" points="39.9186,44.2576 36.0136,44.2576 26.4678,49.4644 8.678,54.6712" stroke="#fe1200" stroke-width="2" /><polyline fill="none" points="52.5017,39.4847 82.0068,45.5593" stroke="#7f0000" stroke-width="2" /></svg>