<?xml version="1.0" encoding="utf-8" ?>
<svg baseProfile="tiny" height="128" version="1.2" viewBox="0,0,128,128" width="128" xmlns="http://www.w3.org/2000/svg" xmlns:ev="http://www.w3.org/2001/xml-events" xmlns:xlink="http://www.w3.org/1999/xlink"><defs /><polyline fill="none" points="50.3322,29.0712 54.2373,19.0915 55.539,17.7898 60.3119,23.8644 64.6508,16.0542 66.8203,16.922 68.9898,20.3932 70.7254,28.2034" stroke="#00007f" stroke-width="2" /><polyline fill="none" points="76.8,20.8271 82.8746,21.6949 86.3458,19.5254 85.0441,18.6576 78.9695,25.1661 78.5356,29.939 83.7424,32.5424" stroke="#0000f1" stroke-width="2" /><polyline fill="none" points="91.1186,22.5627 94.5898,29.0712 91.9864,32.9763 89.8169,28.2034 90.6847,24.2983 94.1559,23.4305 95.8915,24.7322" stroke="#004cff" stroke-width="2" /><polyline fill="none" points="99.3627,20.8271 101.0983,27.3356 101.5322,36.0136 104.5695,28.6373 110.6441,33.8441 118.0203,24.7322 119.322,15.1864" stroke="#00b0ff" stroke-width="2" /><polyline fill="none" points="16.0542,36.4475 14.7525,29.939 16.0542,18.6576 19.0915,13.4508 24.7322,14.3186" stroke="#29ffcd" stroke-width="2" /><polyline fill="none" points="19.5254,25.6 8.678,23.4305" stroke="#7cff79" stroke-width="2" /><polyline fill="none" points="23.8644,24.7322 24.2983,32.1085 26.9017,30.8068 29.939,25.6 32.9763,35.1458" stroke="#cdff29" stroke-width="2" /><polyline fill="none" points="41.6542,22.9966 35.1458,36.0136 39.0508,39.0508 42.522,38.6169" stroke="#ffc400" stroke-width="2" /><polyline fill="none" points="44.2576,34.278 45.5593,23.8644 45.9932,8.678" stroke="#ff6700" stroke-width="2" /><polyline fill="none" points="38.1831,29.5051 45.5593,26.0339 52.0678,19.5254 53.8034,16.0542" stroke="#f10700" stroke-width="2" /><polyline fill="none" points="45.1254,25.1661 55.1051,41.2203" stroke="#7f0000" stroke-width="2" /></svg>