<?xml version="1.0" encoding="utf-8" ?>
<svg baseProfile="tiny" height="128" version="1.2" viewBox="0,0,128,128" width="128" xmlns="http://www.w3.org/2000/svg" xmlns:ev="http://www.w3.org/2001/xml-events" xmlns:xlink="http://www.w3.org/1999/xlink"><defs /><polyline fill="none" points="27.3356,52.5017 33.4102,43.3898 20.8271,45.9932 15.6203,48.1627 9.9797,53.3695 8.678,55.9729 9.9797,58.5763 22.9966,67.6881 30.8068,70.2915 44.6915,70.7254 64.6508,66.8203 77.6678,61.6136 86.7797,54.2373 87.6475,48.1627 85.0441,44.6915 78.9695,40.7864 65.5186,38.6169 49.4644,39.4847 20.8271,44.2576 19.0915,47.7288 25.1661,48.1627" stroke="#00007f" stroke-width="2" /><polyline fill="none" points="81.5729,42.9559 85.0441,34.278 97.6271,19.0915 107.1729,9.9797 110.6441,8.678 114.9831,8.678 119.322,13.4508 118.0203,19.5254 113.6814,26.0339 85.478,53.8034" stroke="#004cff" stroke-width="2" /><polyline fill="none" points="20.8271,67.2542 18.2237,78.1017 10.8475,95.4576" stroke="#29ffcd" stroke-width="2" /><polyline fill="none" points="38.1831,70.2915 35.1458,93.2881" stroke="#cdff29" stroke-width="2" /><polyline fill="none" points="64.6508,70.2915 62.0475,77.2339 60.3119,92.8542" stroke="#ff6700" stroke-width="2" /><polyline fill="none" points="82.4407,59.0102 80.7051,80.2712 82.0068,91.1186" stroke="#7f0000" stroke-width="2" /></svg>