<?xml version="1.0" encoding="utf-8" ?>
<svg baseProfile="tiny" height="128" version="1.2" viewBox="0,0,128,128" width="128" xmlns="http://www.w3.org/2000/svg" xmlns:ev="http://www.w3.org/2001/xml-events" xmlns:xlink="http://www.w3.org/1999/xlink"><defs /><polyline fill="none" points="46.4271,42.522 36.8814,42.522 26.9017,46.4271 23.4305,49.8983 16.4881,66.3864 13.8847,75.9322 14.3186,89.3831 19.0915,100.2305 34.7119,113.2475 49.4644,118.8881 58.1424,119.322 66.3864,118.0203 69.8576,116.7186 72.461,113.2475 79.8373,108.4746 91.1186,84.6102 94.5898,71.1593 93.2881,64.2169 85.478,53.3695 73.7627,45.9932 69.8576,41.6542 61.1797,36.8814 49.8983,36.4475 45.9932,39.0508 39.9186,40.3525 35.5797,45.1254" stroke="#00007f" stroke-width="2" /><polyline fill="none" points="75.9322,43.8237 84.6102,24.7322 97.6271,9.5458 97.1932,47.7288 95.0237,65.0847" stroke="#0000ff" stroke-width="2" /><polyline fill="none" points="17.7898,60.7458 13.0169,51.6339 8.678,8.678 29.0712,32.1085 35.1458,42.0881 37.7492,43.3898" stroke="#0080ff" stroke-width="2" /><polyline fill="none" points="72.461,66.3864 68.9898,66.3864 68.9898,69.4237 68.5559,66.3864" stroke="#15ffe1" stroke-width="2" /><polyline fill="none" points="38.6169,65.0847 43.8237,69.8576 43.8237,65.0847" stroke="#7cff79" stroke-width="2" /><polyline fill="none" points="55.1051,84.6102 55.9729,91.5525" stroke="#e4ff12" stroke-width="2" /><polyline fill="none" points="45.5593,102.4 56.8407,105.8712" stroke="#ff9400" stroke-width="2" /><polyline fill="none" points="59.878,85.9119 89.8169,69.4237" stroke="#ff1d00" stroke-width="2" /><polyline fill="none" points="68.122,88.5153 68.122,88.5153" stroke="#7f0000" stroke-width="2" /></svg>