<?xml version="1.0" encoding="utf-8" ?>
<svg baseProfile="tiny" height="128" version="1.2" viewBox="0,0,128,128" width="128" xmlns="http://www.w3.org/2000/svg" xmlns:ev="http://www.w3.org/2001/xml-events" xmlns:xlink="http://www.w3.org/1999/xlink"><defs /><polyline fill="none" points="103.7017,22.9966 98.4949,22.5627 91.5525,29.0712 89.3831,37.3153 89.3831,44.6915 91.9864,49.0305 95.8915,51.2 101.9661,49.8983 105.8712,46.4271 110.6441,38.1831 112.3797,29.5051 109.3424,21.6949 105.8712,20.3932" stroke="#00007f" stroke-width="2" /><polyline fill="none" points="92.4203,26.0339 92.4203,14.3186 93.722,11.2814 96.3254,9.5458 96.3254,29.5051" stroke="#0000ff" stroke-width="2" /><polyline fill="none" points="111.5119,20.8271 111.9458,16.922 116.7186,9.9797 118.4542,8.678 119.322,12.1492 113.2475,31.6746" stroke="#0080ff" stroke-width="2" /><polyline fill="none" points="103.2678,40.3525 111.9458,41.6542 115.4169,39.9186 110.6441,36.8814 105.4373,35.5797" stroke="#15ffe1" stroke-width="2" /><polyline fill="none" points="89.3831,52.9356 81.5729,50.7661 63.3492,49.4644 36.8814,44.2576 22.5627,45.1254 18.2237,46.861 13.4508,51.2 8.678,61.1797 9.5458,65.0847 22.9966,79.4034 41.6542,88.0814 51.2,86.7797 62.9153,80.7051 75.9322,77.2339 86.7797,75.9322 96.3254,72.8949 101.5322,67.6881 103.2678,52.5017 101.9661,49.4644" stroke="#7cff79" stroke-width="2" /><polyline fill="none" points="95.0237,73.3288 94.1559,77.6678 97.1932,92.4203 97.6271,103.7017 95.8915,104.1356 92.8542,103.2678 89.3831,100.2305" stroke="#e4ff12" stroke-width="2" /><polyline fill="none" points="66.8203,78.5356 71.5932,103.2678 88.0814,101.0983" stroke="#ff9400" stroke-width="2" /><polyline fill="none" points="47.7288,81.139 46.861,84.6102 50.3322,103.2678 55.539,108.9085 59.0102,106.739" stroke="#ff1d00" stroke-width="2" /><polyline fill="none" points="30.3729,82.8746 28.2034,90.2508 29.5051,103.2678 30.8068,104.5695 38.1831,103.7017" stroke="#7f0000" stroke-width="2" /></svg>