<?xml version="1.0" encoding="utf-8" ?>
<svg baseProfile="tiny" height="128" version="1.2" viewBox="0,0,128,128" width="128" xmlns="http://www.w3.org/2000/svg" xmlns:ev="http://www.w3.org/2001/xml-events" xmlns:xlink="http://www.w3.org/1999/xlink"><defs /><polyline fill="none" points="29.0712,65.0847 33.8441,62.9153 47.2949,62.0475 51.6339,64.2169 54.6712,68.5559 59.4441,83.3085 59.878,109.7763 58.1424,114.9831 50.3322,118.8881 42.0881,119.322 37.3153,117.5864 31.2407,113.2475 26.9017,104.5695 25.1661,93.722 26.4678,70.7254 28.6373,65.0847 32.9763,64.2169" stroke="#00007f" stroke-width="2" /><polyline fill="none" points="61.1797,100.2305 64.2169,101.0983 76.8,98.061 89.8169,108.4746 102.8339,114.9831 115.4169,116.7186 118.4542,113.6814" stroke="#0000f1" stroke-width="2" /><polyline fill="none" points="46.861,22.1288 42.0881,19.9593 31.6746,20.3932 26.9017,26.9017 24.2983,36.8814 24.7322,45.9932 29.0712,53.3695 36.4475,56.4068 45.5593,56.4068 49.8983,53.3695 52.5017,44.2576 52.9356,36.0136 49.4644,28.6373 50.7661,20.8271" stroke="#004cff" stroke-width="2" /><polyline fill="none" points="24.2983,25.6 26.0339,10.4136 27.3356,9.9797 34.7119,19.0915" stroke="#00b0ff" stroke-width="2" /><polyline fill="none" points="45.1254,18.2237 48.1627,11.2814 52.9356,8.678 54.6712,19.0915" stroke="#29ffcd" stroke-width="2" /><polyline fill="none" points="41.2203,42.522 50.3322,42.9559 72.0271,39.9186" stroke="#7cff79" stroke-width="2" /><polyline fill="none" points="48.1627,49.4644 75.4983,52.9356" stroke="#cdff29" stroke-width="2" /><polyline fill="none" points="30.8068,44.6915 23.8644,43.8237 8.678,45.1254" stroke="#ffc400" stroke-width="2" /><polyline fill="none" points="34.7119,53.3695 25.1661,52.9356 14.7525,55.9729" stroke="#ff6700" stroke-width="2" /><polyline fill="none" points="34.7119,39.0508 35.1458,42.0881 38.1831,43.3898 39.0508,40.7864 37.7492,38.6169" stroke="#f10700" stroke-width="2" /><polyline fill="none" points="45.9932,27.7695 45.9932,27.7695" stroke="#7f0000" stroke-width="2" /></svg>