<?xml version="1.0" encoding="utf-8" ?>
<svg baseProfile="tiny" height="128" version="1.2" viewBox="0,0,128,128" width="128" xmlns="http://www.w3.org/2000/svg" xmlns:ev="http://www.w3.org/2001/xml-events" xmlns:xlink="http://www.w3.org/1999/xlink"><defs /><polyline fill="none" points="40.7864,28.6373 35.5797,29.0712 15.1864,40.3525 10.8475,46.861 8.678,54.2373 9.1119,67.6881 10.8475,72.8949 16.922,81.139 30.3729,92.4203 38.6169,95.8915 59.4441,98.4949 83.7424,98.9288 95.0237,97.1932 104.1356,94.5898 111.5119,89.8169 114.5492,85.0441 118.0203,73.3288 119.322,60.7458 118.0203,45.9932 114.9831,41.2203 110.6441,38.1831 96.7593,31.2407 97.1932,17.7898 95.8915,9.9797 93.2881,11.2814 87.2136,22.1288 80.7051,27.3356 74.6305,21.6949 56.4068,22.1288 50.3322,9.9797 48.5966,8.678 46.861,17.3559 40.3525,30.8068" stroke="#00007f" stroke-width="2" /><polyline fill="none" points="49.8983,52.9356 45.9932,51.2 49.4644,48.1627 50.3322,50.3322 49.0305,51.6339" stroke="#0000f1" stroke-width="2" /><polyline fill="none" points="92.8542,52.9356 88.9492,52.0678 90.2508,50.7661 94.5898,50.7661 95.0237,53.3695 92.8542,54.2373 90.2508,52.9356" stroke="#004cff" stroke-width="2" /><polyline fill="none" points="63.7831,68.122 63.3492,68.122" stroke="#00b0ff" stroke-width="2" /><polyline fill="none" points="56.8407,66.3864 36.4475,62.0475" stroke="#29ffcd" stroke-width="2" /><polyline fill="none" points="56.4068,68.5559 45.1254,69.4237" stroke="#7cff79" stroke-width="2" /><polyline fill="none" points="56.4068,71.5932 48.1627,75.0644" stroke="#cdff29" stroke-width="2" /><polyline fill="none" points="70.2915,69.8576 92.4203,82.4407" stroke="#ffc400" stroke-width="2" /><polyline fill="none" points="74.1966,67.6881 87.6475,72.8949" stroke="#ff6700" stroke-width="2" /><polyline fill="none" points="75.4983,64.2169 89.8169,63.7831" stroke="#f10700" stroke-width="2" /><polyline fill="none" points="55.9729,83.7424 65.5186,83.7424 71.1593,85.478 72.0271,86.7797 68.122,88.9492" stroke="#7f0000" stroke-width="2" /></svg>