<?xml version="1.0" encoding="utf-8" ?>
<svg baseProfile="tiny" height="128" version="1.2" viewBox="0,0,128,128" width="128" xmlns="http://www.w3.org/2000/svg" xmlns:ev="http://www.w3.org/2001/xml-events" xmlns:xlink="http://www.w3.org/1999/xlink"><defs /><polyline fill="none" points="59.4441,46.861 55.1051,44.2576 46.4271,44.2576 34.7119,47.7288 29.939,50.7661 27.7695,54.2373 27.7695,59.4441 29.0712,61.6136 40.3525,69.8576 53.3695,74.6305 69.4237,75.4983 83.3085,73.7627 93.722,69.8576 101.0983,64.2169 102.4,58.5763 98.9288,52.9356 90.2508,47.2949 82.0068,45.1254 69.8576,45.1254 52.9356,48.5966" stroke="#00007f" stroke-width="2" /><polyline fill="none" points="39.4847,70.2915 30.8068,79.4034 29.939,83.7424" stroke="#0000d5" stroke-width="2" /><polyline fill="none" points="39.0508,71.1593 41.2203,83.7424 43.3898,88.5153" stroke="#001cff" stroke-width="2" /><polyline fill="none" points="83.7424,75.4983 79.8373,80.2712 77.6678,86.3458" stroke="#006cff" stroke-width="2" /><polyline fill="none" points="86.7797,71.5932 91.1186,79.8373 95.4576,84.6102" stroke="#00b8ff" stroke-width="2" /><polyline fill="none" points="92.8542,47.7288 99.3627,36.8814" stroke="#1cffda" stroke-width="2" /><polyline fill="none" points="102.4,36.8814 102.4,36.8814" stroke="#5cff9a" stroke-width="2" /><polyline fill="none" points="108.4746,18.6576 101.9661,21.261 97.1932,26.4678 95.8915,33.4102 98.4949,37.3153 105.8712,40.7864 111.9458,41.2203 116.2847,39.9186 118.4542,36.8814 119.322,29.0712 117.5864,22.1288 112.8136,18.6576 106.3051,16.922" stroke="#9aff5c" stroke-width="2" /><polyline fill="none" points="104.1356,20.3932 108.9085,8.678 109.3424,19.9593" stroke="#daff1c" stroke-width="2" /><polyline fill="none" points="110.2102,12.1492 113.6814,8.678 114.5492,9.5458 111.5119,20.8271" stroke="#ffcb00" stroke-width="2" /><polyline fill="none" points="116.2847,29.0712 112.8136,29.5051 111.9458,32.5424 117.1525,32.9763 116.2847,28.6373" stroke="#ff8500" stroke-width="2" /><polyline fill="none" points="114.9831,33.4102 109.7763,36.4475" stroke="#ff3b00" stroke-width="2" /><polyline fill="none" points="115.4169,34.278 116.2847,36.8814 119.322,37.7492" stroke="#d50000" stroke-width="2" /><polyline fill="none" points="29.939,50.7661 26.4678,39.0508 22.5627,31.2407 15.6203,25.1661 8.678,24.2983 19.9593,36.0136 27.7695,53.3695" stroke="#7f0000" stroke-width="2" /></svg>