<?xml version="1.0" encoding="utf-8" ?>
<svg baseProfile="tiny" height="128" version="1.2" viewBox="0,0,128,128" width="128" xmlns="http://www.w3.org/2000/svg" xmlns:ev="http://www.w3.org/2001/xml-events" xmlns:xlink="http://www.w3.org/1999/xlink"><defs /><polyline fill="none" points="11.7153,39.9186 8.678,46.861 8.678,54.6712 13.0169,65.0847 19.0915,70.7254 28.2034,72.8949 34.7119,71.1593 38.6169,66.8203 44.2576,52.0678 44.6915,42.9559 40.7864,32.5424 33.8441,25.6 26.9017,21.6949 18.2237,19.9593 15.6203,21.6949 11.2814,29.939 11.2814,41.6542" stroke="#00007f" stroke-width="2" /><polyline fill="none" points="15.6203,20.3932 17.7898,8.678 19.0915,8.678 23.8644,15.1864 25.6,20.3932" stroke="#0000ff" stroke-width="2" /><polyline fill="none" points="25.6,20.3932 25.6,20.3932" stroke="#0080ff" stroke-width="2" /><polyline fill="none" points="25.6,20.3932 36.0136,9.5458 36.4475,28.2034" stroke="#15ffe1" stroke-width="2" /><polyline fill="none" points="22.1288,31.2407 21.261,33.4102 22.5627,34.278 22.9966,32.5424" stroke="#7cff79" stroke-width="2" /><polyline fill="none" points="26.4678,32.5424 29.0712,36.0136 29.0712,32.5424 27.3356,32.5424" stroke="#e4ff12" stroke-width="2" /><polyline fill="none" points="18.6576,51.6339 20.8271,54.2373 28.6373,57.7085 33.4102,57.7085 35.5797,55.9729" stroke="#ff9400" stroke-width="2" /><polyline fill="none" points="27.7695,72.8949 35.5797,78.5356 45.5593,80.7051 52.9356,80.2712 63.3492,75.0644 69.4237,70.7254 75.9322,61.6136 82.4407,43.3898 85.478,52.0678 85.478,65.9525 85.0441,72.461 82.4407,80.2712 73.7627,85.478 52.9356,88.0814 21.6949,88.0814 13.8847,84.1763 12.5831,81.5729 16.0542,88.9492" stroke="#ff1d00" stroke-width="2" /><polyline fill="none" points="16.0542,88.9492 15.1864,109.3424 16.922,113.6814 20.8271,114.5492 24.2983,83.7424 24.2983,111.5119 27.3356,117.5864 32.1085,119.322 38.1831,114.1153 40.3525,107.6068 42.522,89.3831" stroke="#7f0000" stroke-width="2" /></svg>