<?xml version="1.0" encoding="utf-8" ?>
<svg baseProfile="tiny" height="128" version="1.2" viewBox="0,0,128,128" width="128" xmlns="http://www.w3.org/2000/svg" xmlns:ev="http://www.w3.org/2001/xml-events" xmlns:xlink="http://www.w3.org/1999/xlink"><defs /><polyline fill="none" points="72.8949,33.8441 96.3254,9.9797 102.8339,42.522 103.7017,60.3119 103.2678,77.2339 98.4949,93.722 90.6847,105.4373 79.8373,114.1153 56.8407,119.322 45.1254,118.4542 35.1458,113.6814 17.3559,99.7966 13.4508,93.2881 9.5458,81.5729 8.678,65.0847 10.8475,52.0678 20.3932,15.6203 29.0712,8.678 46.4271,33.8441 49.8983,36.8814 69.4237,34.7119 78.5356,37.3153" stroke="#00007f" stroke-width="2" /><polyline fill="none" points="68.5559,76.8 82.4407,68.9898 93.2881,61.1797" stroke="#0000e8" stroke-width="2" /><polyline fill="none" points="79.4034,84.1763 95.0237,85.0441" stroke="#0038ff" stroke-width="2" /><polyline fill="none" points="76.3661,94.5898 78.1017,100.2305 85.0441,109.7763" stroke="#0094ff" stroke-width="2" /><polyline fill="none" points="34.7119,76.8 22.5627,74.1966" stroke="#0cf4ea" stroke-width="2" /><polyline fill="none" points="31.2407,87.2136 20.3932,88.5153" stroke="#56ffa0" stroke-width="2" /><polyline fill="none" points="32.5424,98.061 26.0339,105.0034 24.2983,109.7763" stroke="#a0ff56" stroke-width="2" /><polyline fill="none" points="52.9356,78.1017 48.1627,78.1017 49.0305,81.139 52.9356,82.8746 59.0102,82.0068 59.4441,78.5356 55.539,76.3661" stroke="#eaff0c" stroke-width="2" /><polyline fill="none" points="53.3695,84.6102 54.2373,96.3254 52.9356,99.3627 47.2949,102.8339 42.522,103.2678 39.0508,101.9661" stroke="#ffaa00" stroke-width="2" /><polyline fill="none" points="53.8034,89.8169 59.878,101.5322 62.9153,103.2678 68.5559,101.5322" stroke="#ff5500" stroke-width="2" /><polyline fill="none" points="75.4983,46.861 73.3288,47.2949 70.7254,49.8983 71.5932,56.4068 74.6305,57.7085 78.5356,57.7085 79.4034,52.9356 78.1017,50.7661" stroke="#e80000" stroke-width="2" /><polyline fill="none" points="44.2576,46.861 39.4847,49.8983 36.8814,57.7085 38.1831,60.3119 42.522,63.3492 47.7288,62.9153" stroke="#7f0000" stroke-width="2" /></svg>