<?xml version="1.0" encoding="utf-8" ?>
<svg baseProfile="tiny" height="128" version="1.2" viewBox="0,0,128,128" width="128" xmlns="http://www.w3.org/2000/svg" xmlns:ev="http://www.w3.org/2001/xml-events" xmlns:xlink="http://www.w3.org/1999/xlink"><defs /><polyline fill="none" points="34.8299,17.415 30.0408,8.7075 27.4286,12.1905 25.6871,18.2857 16.9796,13.932 17.415,22.2041 11.7551,28.7347 11.7551,31.3469 15.6735,36.5714 17.8503,37.4422 22.2041,36.1361 30.9116,31.7823 31.3469,39.619 33.9592,43.102 35.7007,44.8435 43.9728,47.4558 49.1973,47.4558 66.6122,42.6667 90.5578,38.3129 94.0408,36.5714 94.0408,30.9116 93.1701,29.1701 84.4626,26.1224 62.6939,23.9456 49.1973,24.8163 39.619,20.4626 35.7007,20.0272" stroke="#00007f" stroke-width="2" /><polyline fill="none" points="50.9388,48.3265 50.5034,51.3741 56.1633,56.5986 57.4694,61.8231" stroke="#004cff" stroke-width="2" /><polyline fill="none" points="63.5646,45.2789 63.5646,53.1156 66.1769,58.7755" stroke="#29ffcd" stroke-width="2" /><polyline fill="none" points="92.7347,33.0884 100.1361,27.8639 104.0544,26.9932 107.5374,28.7347 112.7619,33.0884 119.2925,34.3946" stroke="#cdff29" stroke-width="2" /><polyline fill="none" points="19.5918,26.9932 19.5918,28.2993" stroke="#ff6700" stroke-width="2" /><polyline fill="none" points="11.3197,36.1361 8.7075,41.3605 9.1429,43.102 10.449,42.6667 14.8027,38.3129 14.8027,36.5714 13.0612,36.5714 8.7075,42.6667" stroke="#7f0000" stroke-width="2" /></svg>