<?xml version="1.0" encoding="utf-8" ?>
<svg baseProfile="tiny" height="128" version="1.2" viewBox="0,0,128,128" width="128" xmlns="http://www.w3.org/2000/svg" xmlns:ev="http://www.w3.org/2001/xml-events" xmlns:xlink="http://www.w3.org/1999/xlink"><defs /><polyline fill="none" points="51.2,43.3898 38.6169,45.9932 30.8068,49.8983 27.3356,55.1051 26.4678,67.2542 29.5051,79.8373 35.1458,87.2136 41.2203,90.2508 51.6339,91.1186 74.1966,90.2508 94.5898,84.1763 99.7966,80.2712 103.2678,75.0644 105.0034,66.3864 103.2678,59.4441 93.2881,45.1254 88.0814,40.7864 81.139,38.6169 60.3119,37.7492 29.939,42.0881" stroke="#00007f" stroke-width="2" /><polyline fill="none" points="19.0915,53.8034 18.6576,48.1627 8.678,16.0542 11.2814,15.6203 41.2203,34.278" stroke="#0028ff" stroke-width="2" /><polyline fill="none" points="81.139,35.1458 119.322,8.678 114.5492,30.3729 108.4746,46.861" stroke="#00d4ff" stroke-width="2" /><polyline fill="none" points="29.0712,46.4271 28.2034,42.9559 16.922,26.4678 28.6373,35.5797 35.5797,38.6169" stroke="#7cff79" stroke-width="2" /><polyline fill="none" points="89.8169,37.7492 115.4169,25.1661 115.4169,28.2034 111.9458,36.0136 105.8712,43.3898 98.9288,48.5966" stroke="#ffe500" stroke-width="2" /><polyline fill="none" points="49.8983,57.7085 49.4644,60.7458 51.2,60.7458 51.6339,59.878 49.4644,57.7085 48.5966,59.4441 51.6339,59.878" stroke="#ff4600" stroke-width="2" /><polyline fill="none" points="84.6102,52.9356 84.6102,52.9356" stroke="#7f0000" stroke-width="2" /></svg>