<?xml version="1.0" encoding="utf-8" ?>
<svg baseProfile="tiny" height="128" version="1.2" viewBox="0,0,128,128" width="128" xmlns="http://www.w3.org/2000/svg" xmlns:ev="http://www.w3.org/2001/xml-events" xmlns:xlink="http://www.w3.org/1999/xlink"><defs /><polyline fill="none" points="17.3559,13.0169 31.6746,11.7153 34.278,13.0169 39.4847,16.922 45.5593,26.0339 46.861,33.4102 45.5593,40.3525 39.4847,48.1627 35.1458,51.2 30.8068,52.0678 22.5627,51.2 13.0169,43.8237 9.5458,36.4475 8.678,25.6 10.4136,17.3559 15.1864,9.1119 21.6949,8.678 31.2407,11.7153" stroke="#00007f" stroke-width="2" /><polyline fill="none" points="25.6,21.261 22.5627,25.1661" stroke="#0000d1" stroke-width="2" /><polyline fill="none" points="37.3153,21.6949 37.3153,21.6949" stroke="#0010ff" stroke-width="2" /><polyline fill="none" points="32.9763,22.1288 30.8068,27.3356" stroke="#0058ff" stroke-width="2" /><polyline fill="none" points="16.922,38.6169 19.5254,35.1458 25.6,30.8068 26.4678,33.8441 30.8068,38.1831 34.278,39.0508 39.0508,38.1831" stroke="#00a4ff" stroke-width="2" /><polyline fill="none" points="24.7322,32.5424 15.1864,26.4678" stroke="#05ecf1" stroke-width="2" /><polyline fill="none" points="18.6576,31.6746 13.0169,29.0712" stroke="#3fffb7" stroke-width="2" /><polyline fill="none" points="17.3559,34.7119 9.9797,33.4102" stroke="#7cff79" stroke-width="2" /><polyline fill="none" points="31.6746,32.9763 36.0136,30.3729 41.2203,29.0712" stroke="#b7ff3f" stroke-width="2" /><polyline fill="none" points="30.8068,37.3153 36.8814,32.5424 42.522,31.2407" stroke="#f1fc05" stroke-width="2" /><polyline fill="none" points="17.3559,46.861 44.2576,50.7661 57.2746,50.3322 67.2542,45.9932 84.6102,42.522 90.2508,39.9186 72.461,33.8441 61.6136,32.1085 53.3695,32.5424 36.8814,41.6542 32.5424,46.4271 27.3356,49.0305 23.8644,49.0305" stroke="#ffb900" stroke-width="2" /><polyline fill="none" points="62.0475,47.7288 59.4441,50.3322 58.1424,59.878 52.9356,69.4237 52.5017,67.6881 57.7085,63.3492 63.7831,62.9153 62.0475,64.2169" stroke="#ff7300" stroke-width="2" /><polyline fill="none" points="66.3864,39.0508 73.7627,61.6136 74.1966,68.5559 77.2339,68.9898 88.5153,65.9525 74.1966,71.1593" stroke="#ff3000" stroke-width="2" /><polyline fill="none" points="90.6847,42.522 93.722,43.8237 95.4576,46.861 100.2305,63.7831 98.9288,56.8407 101.9661,55.539 99.3627,56.4068" stroke="#d10000" stroke-width="2" /><polyline fill="none" points="90.2508,37.7492 106.739,22.9966 115.4169,17.7898 117.1525,20.8271 119.322,30.3729 119.322,33.8441 115.4169,36.4475 110.2102,37.3153 104.1356,33.4102 103.2678,28.2034 110.2102,27.3356 110.6441,28.6373" stroke="#7f0000" stroke-width="2" /></svg>