<?xml version="1.0" encoding="utf-8" ?>
<svg baseProfile="tiny" height="128" version="1.2" viewBox="0,0,128,128" width="128" xmlns="http://www.w3.org/2000/svg" xmlns:ev="http://www.w3.org/2001/xml-events" xmlns:xlink="http://www.w3.org/1999/xlink"><defs /><polyline fill="none" points="46.4271,49.8983 51.2,8.678 58.1424,23.8644 63.3492,38.1831 68.9898,41.6542 90.6847,19.5254 94.5898,12.5831 95.4576,17.7898 92.4203,36.8814 92.4203,60.7458 81.5729,78.9695 73.7627,82.0068 61.1797,82.4407 52.5017,79.8373 48.1627,76.8 45.5593,74.1966 43.8237,69.4237 44.6915,46.4271" stroke="#00007f" stroke-width="2" /><polyline fill="none" points="68.5559,61.1797 94.1559,54.6712 109.3424,54.2373 119.322,58.1424" stroke="#0028ff" stroke-width="2" /><polyline fill="none" points="70.2915,59.878 81.139,62.4814 90.2508,66.8203 98.4949,72.8949 106.739,82.4407" stroke="#00d4ff" stroke-width="2" /><polyline fill="none" points="66.3864,61.1797 58.1424,59.4441 48.5966,55.1051 36.0136,55.1051 8.678,69.4237 9.5458,70.7254" stroke="#7cff79" stroke-width="2" /><polyline fill="none" points="63.3492,64.6508 52.5017,64.2169 43.8237,68.5559 32.9763,77.6678 24.7322,87.2136" stroke="#ffe500" stroke-width="2" /><polyline fill="none" points="62.0475,48.1627 62.9153,52.0678" stroke="#ff4600" stroke-width="2" /><polyline fill="none" points="78.5356,45.9932 81.5729,53.3695" stroke="#7f0000" stroke-width="2" /></svg>