<?xml version="1.0" encoding="utf-8" ?>
<svg baseProfile="tiny" height="128" version="1.2" viewBox="0,0,128,128" width="128" xmlns="http://www.w3.org/2000/svg" xmlns:ev="http://www.w3.org/2001/xml-events" xmlns:xlink="http://www.w3.org/1999/xlink"><defs /><polyline fill="none" points="27.3356,36.0136 24.7322,34.7119 21.261,35.1458 14.3186,40.7864 9.1119,48.1627 8.678,56.8407 9.9797,64.2169 14.7525,73.3288 18.2237,75.9322 25.1661,77.6678 36.8814,78.5356 55.1051,73.7627 61.6136,67.6881 65.9525,58.5763 65.0847,46.861 62.0475,40.7864 55.9729,33.8441 44.6915,28.6373 29.0712,28.2034 20.3932,32.5424 16.4881,42.0881" stroke="#00007f" stroke-width="2" /><polyline fill="none" points="18.2237,37.3153 10.4136,16.0542 13.0169,15.1864 17.7898,22.9966 22.9966,29.5051" stroke="#0080ff" stroke-width="2" /><polyline fill="none" points="47.7288,28.6373 47.2949,26.4678 51.6339,18.6576 55.1051,8.678 55.9729,32.5424" stroke="#7cff79" stroke-width="2" /><polyline fill="none" points="22.5627,74.1966 19.5254,85.478 19.9593,91.5525 24.2983,104.5695 29.939,113.2475 38.1831,117.1525 48.5966,119.322 56.8407,118.8881 65.9525,115.8508" stroke="#ff9400" stroke-width="2" /><polyline fill="none" points="65.9525,58.5763 67.6881,55.9729" stroke="#7f0000" stroke-width="2" /></svg>