<?xml version="1.0" encoding="utf-8" ?>
<svg baseProfile="tiny" height="128" version="1.2" viewBox="0,0,128,128" width="128" xmlns="http://www.w3.org/2000/svg" xmlns:ev="http://www.w3.org/2001/xml-events" xmlns:xlink="http://www.w3.org/1999/xlink"><defs /><polyline fill="none" points="13.8847,44.2576 8.678,12.1492" stroke="#00007f" stroke-width="2" /><polyline fill="none" points="14.7525,9.5458 27.7695,29.0712" stroke="#0000e8" stroke-width="2" /><polyline fill="none" points="35.1458,32.1085 50.3322,23.4305" stroke="#0038ff" stroke-width="2" /><polyline fill="none" points="47.7288,20.3932 50.7661,21.261 62.0475,28.2034" stroke="#0094ff" stroke-width="2" /><polyline fill="none" points="68.9898,29.939 72.0271,24.7322 80.2712,16.0542" stroke="#0cf4ea" stroke-width="2" /><polyline fill="none" points="81.139,16.922 87.6475,9.1119" stroke="#56ffa0" stroke-width="2" /><polyline fill="none" points="86.7797,8.678 86.7797,25.1661" stroke="#a0ff56" stroke-width="2" /><polyline fill="none" points="80.2712,26.4678 82.4407,31.6746 82.0068,40.7864" stroke="#eaff0c" stroke-width="2" /><polyline fill="none" points="82.8746,39.4847 77.6678,52.0678 71.5932,61.1797 62.0475,67.6881 46.4271,72.8949 40.7864,72.8949 33.4102,71.1593 22.5627,65.5186 14.7525,56.4068 11.7153,49.8983 11.2814,45.1254" stroke="#ffaa00" stroke-width="2" /><polyline fill="none" points="48.1627,78.1017 45.1254,86.7797" stroke="#ff5500" stroke-width="2" /><polyline fill="none" points="59.4441,75.0644 59.878,79.4034" stroke="#e80000" stroke-width="2" /><polyline fill="none" points="65.0847,80.2712 86.7797,78.1017 104.5695,79.8373 110.2102,82.4407 116.2847,89.3831 118.8881,96.7593 119.322,105.4373 117.5864,114.9831" stroke="#7f0000" stroke-width="2" /></svg>