<?xml version="1.0" encoding="utf-8" ?>
<svg baseProfile="tiny" height="128" version="1.2" viewBox="0,0,128,128" width="128" xmlns="http://www.w3.org/2000/svg" xmlns:ev="http://www.w3.org/2001/xml-events" xmlns:xlink="http://www.w3.org/1999/xlink"><defs /><polyline fill="none" points="38.1831,30.3729 25.6,10.8475 23.4305,21.261 23.4305,39.4847" stroke="#00007f" stroke-width="2" /><polyline fill="none" points="39.9186,30.3729 47.2949,26.9017 52.9356,26.4678 60.3119,32.5424" stroke="#0000fe" stroke-width="2" /><polyline fill="none" points="61.1797,33.4102 85.9119,13.0169 96.3254,8.678 95.8915,16.922 81.139,43.8237" stroke="#0060ff" stroke-width="2" /><polyline fill="none" points="23.8644,39.0508 20.3932,42.522 18.2237,50.3322 19.0915,57.2746 22.1288,62.0475 27.3356,67.2542 31.2407,68.9898 52.9356,76.3661 69.4237,76.8 78.5356,75.4983 97.1932,66.8203 100.6644,62.4814 101.0983,53.8034 96.7593,47.7288 92.4203,45.9932" stroke="#00d4ff" stroke-width="2" /><polyline fill="none" points="36.8814,55.539 24.2983,52.9356 11.2814,52.9356 8.678,53.8034" stroke="#4cffaa" stroke-width="2" /><polyline fill="none" points="29.5051,59.4441 17.3559,59.878 11.2814,61.6136" stroke="#aaff4c" stroke-width="2" /><polyline fill="none" points="33.8441,64.6508 18.6576,66.8203" stroke="#ffe500" stroke-width="2" /><polyline fill="none" points="95.0237,55.539 112.8136,54.6712 117.1525,55.539 119.322,58.1424" stroke="#ff7a00" stroke-width="2" /><polyline fill="none" points="90.6847,61.1797 100.6644,61.1797 108.9085,64.6508 109.7763,66.8203" stroke="#fe1200" stroke-width="2" /><polyline fill="none" points="85.478,67.2542 95.4576,70.7254 101.9661,75.0644" stroke="#7f0000" stroke-width="2" /></svg>