<?xml version="1.0" encoding="utf-8" ?>
<svg baseProfile="tiny" height="128" version="1.2" viewBox="0,0,128,128" width="128" xmlns="http://www.w3.org/2000/svg" xmlns:ev="http://www.w3.org/2001/xml-events" xmlns:xlink="http://www.w3.org/1999/xlink"><defs /><polyline fill="none" points="34.7119,31.2407 22.1288,15.6203 13.4508,8.678 12.1492,9.1119 13.0169,20.8271 22.9966,53.8034 21.6949,82.0068 24.7322,94.5898 33.8441,108.9085 41.6542,113.6814 55.1051,119.322 71.1593,119.322 77.2339,115.4169 82.4407,109.7763 88.5153,98.9288 93.722,85.9119 95.0237,72.0271 91.5525,62.4814 101.9661,33.8441 105.4373,10.8475 102.4,10.8475 92.4203,20.3932 80.7051,36.0136 69.8576,29.939 57.2746,28.2034 43.8237,28.2034 40.7864,29.939 39.0508,34.7119" stroke="#00007f" stroke-width="2" /><polyline fill="none" points="48.1627,62.0475 44.6915,62.9153 45.9932,67.2542 47.2949,68.9898 49.8983,68.9898 50.3322,65.5186" stroke="#0000fe" stroke-width="2" /><polyline fill="none" points="72.0271,60.7458 70.2915,62.0475 68.5559,65.9525 68.5559,67.6881 71.1593,67.6881" stroke="#0060ff" stroke-width="2" /><polyline fill="none" points="62.0475,78.5356 52.9356,78.5356 56.8407,88.9492 58.1424,89.8169 61.6136,86.7797 64.2169,78.1017" stroke="#00d4ff" stroke-width="2" /><polyline fill="none" points="47.2949,82.4407 17.3559,77.6678 8.678,77.6678" stroke="#4cffaa" stroke-width="2" /><polyline fill="none" points="39.9186,91.5525 32.5424,91.5525 12.1492,98.061" stroke="#aaff4c" stroke-width="2" /><polyline fill="none" points="78.1017,78.9695 110.6441,78.9695" stroke="#ffe500" stroke-width="2" /><polyline fill="none" points="78.5356,87.2136 91.1186,87.6475 110.6441,89.8169" stroke="#ff7a00" stroke-width="2" /><polyline fill="none" points="61.1797,90.2508 58.1424,102.4 54.2373,104.1356 44.6915,103.7017" stroke="#fe1200" stroke-width="2" /><polyline fill="none" points="61.6136,88.5153 63.3492,101.0983 67.2542,107.1729 78.5356,108.9085 81.139,106.739" stroke="#7f0000" stroke-width="2" /></svg>