<?xml version="1.0" encoding="utf-8" ?>
<svg baseProfile="tiny" height="128" version="1.2" viewBox="0,0,128,128" width="128" xmlns="http://www.w3.org/2000/svg" xmlns:ev="http://www.w3.org/2001/xml-events" xmlns:xlink="http://www.w3.org/1999/xlink"><defs /><polyline fill="none" points="77.4966,49.6327 74.449,46.1497 66.1769,43.102 50.9388,43.102 38.3129,45.7143 30.4762,48.7619 27.4286,51.8095 26.5578,54.8571 26.9932,56.5986 38.3129,59.6463 64.8707,60.0816 80.5442,54.8571 87.5102,48.3265 87.5102,45.7143 85.7687,44.8435 71.4014,43.9728 63.5646,45.2789 61.3878,47.4558" stroke="#00007f" stroke-width="2" /><polyline fill="none" points="36.5714,62.2585 36.5714,67.483 32.6531,77.0612" stroke="#0010ff" stroke-width="2" /><polyline fill="none" points="52.2449,63.5646 49.6327,76.6259" stroke="#00a4ff" stroke-width="2" /><polyline fill="none" points="68.3537,60.9524 67.9184,77.932" stroke="#3fffb7" stroke-width="2" /><polyline fill="none" points="80.1088,56.5986 84.898,67.9184 88.8163,71.8367" stroke="#b7ff3f" stroke-width="2" /><polyline fill="none" points="28.7347,50.9388 14.8027,45.7143 9.1429,40.4898 8.7075,27.4286 13.932,17.415 16.1088,16.1088" stroke="#ffb900" stroke-width="2" /><polyline fill="none" points="85.3333,43.9728 91.4286,40.0544 101.4422,29.6054 100.5714,33.9592 95.7823,40.9252 87.5102,48.7619 100.1361,31.3469 88.8163,42.6667 100.5714,34.3946 90.9932,40.4898 93.1701,38.3129 98.8299,33.9592 91.4286,41.7959" stroke="#ff3000" stroke-width="2" /><polyline fill="none" points="119.2925,9.5782 112.3265,8.7075 107.102,9.5782 99.2653,14.8027 94.9116,19.5918" stroke="#7f0000" stroke-width="2" /></svg>