<?xml version="1.0" encoding="utf-8" ?>
<svg baseProfile="tiny" height="128" version="1.2" viewBox="0,0,128,128" width="128" xmlns="http://www.w3.org/2000/svg" xmlns:ev="http://www.w3.org/2001/xml-events" xmlns:xlink="http://www.w3.org/1999/xlink"><defs /><polyline fill="none" points="42.522,22.9966 39.0508,25.1661 30.8068,35.5797 26.0339,49.0305 26.0339,65.9525 29.0712,75.0644 32.1085,78.1017 37.3153,81.139 50.3322,84.6102 64.2169,83.3085 69.8576,81.139 76.3661,78.1017 81.139,74.1966 88.0814,65.9525 91.5525,58.1424 91.9864,49.4644 85.478,38.6169 69.4237,29.5051 46.861,26.9017" stroke="#00007f" stroke-width="2" /><polyline fill="none" points="29.939,38.1831 31.2407,36.0136" stroke="#0000d1" stroke-width="2" /><polyline fill="none" points="8.678,17.7898 22.5627,39.4847" stroke="#0010ff" stroke-width="2" /><polyline fill="none" points="12.5831,21.261 35.5797,26.9017" stroke="#0058ff" stroke-width="2" /><polyline fill="none" points="105.8712,9.5458 85.478,32.5424" stroke="#00a4ff" stroke-width="2" /><polyline fill="none" points="108.9085,8.678 100.6644,33.8441 95.4576,43.3898" stroke="#05ecf1" stroke-width="2" /><polyline fill="none" points="47.7288,42.0881 47.7288,42.0881" stroke="#3fffb7" stroke-width="2" /><polyline fill="none" points="70.7254,38.6169 70.7254,39.4847" stroke="#7cff79" stroke-width="2" /><polyline fill="none" points="61.1797,56.4068 61.1797,56.4068" stroke="#b7ff3f" stroke-width="2" /><polyline fill="none" points="57.7085,60.7458 21.261,75.0644" stroke="#f1fc05" stroke-width="2" /><polyline fill="none" points="62.9153,62.9153 21.261,87.2136" stroke="#ffb900" stroke-width="2" /><polyline fill="none" points="59.878,67.6881 42.522,84.6102 32.1085,98.9288" stroke="#ff7300" stroke-width="2" /><polyline fill="none" points="62.4814,65.9525 105.8712,62.9153" stroke="#ff3000" stroke-width="2" /><polyline fill="none" points="66.8203,65.9525 97.6271,58.1424 119.322,55.1051" stroke="#d10000" stroke-width="2" /><polyline fill="none" points="69.8576,60.3119 74.6305,57.7085 117.5864,43.8237" stroke="#7f0000" stroke-width="2" /></svg>