<?xml version="1.0" encoding="utf-8" ?>
<svg baseProfile="tiny" height="128" version="1.2" viewBox="0,0,128,128" width="128" xmlns="http://www.w3.org/2000/svg" xmlns:ev="http://www.w3.org/2001/xml-events" xmlns:xlink="http://www.w3.org/1999/xlink"><defs /><polyline fill="none" points="31.2407,40.7864 34.7119,8.678 40.3525,17.3559 49.0305,35.1458 53.3695,36.8814 88.5153,37.3153 91.9864,24.2983 97.6271,13.8847 101.5322,51.2 100.2305,64.2169 95.4576,73.3288 89.8169,79.4034 84.6102,82.4407 71.5932,86.3458 58.1424,86.7797 42.522,83.3085 33.4102,77.2339 28.6373,66.8203 27.3356,59.878 31.6746,48.5966" stroke="#00007f" stroke-width="2" /><polyline fill="none" points="36.4475,66.3864 22.9966,67.2542 8.678,71.5932" stroke="#004cff" stroke-width="2" /><polyline fill="none" points="44.2576,72.461 34.278,82.4407 20.8271,92.4203" stroke="#29ffcd" stroke-width="2" /><polyline fill="none" points="91.1186,49.4644 119.322,46.861" stroke="#cdff29" stroke-width="2" /><polyline fill="none" points="85.0441,72.0271 119.322,73.3288" stroke="#ff6700" stroke-width="2" /><polyline fill="none" points="52.9356,48.1627 55.9729,57.2746" stroke="#7f0000" stroke-width="2" /></svg>