<?xml version="1.0" encoding="utf-8" ?>
<svg baseProfile="tiny" height="128" version="1.2" viewBox="0,0,128,128" width="128" xmlns="http://www.w3.org/2000/svg" xmlns:ev="http://www.w3.org/2001/xml-events" xmlns:xlink="http://www.w3.org/1999/xlink"><defs /><polyline fill="none" points="19.0915,39.4847 24.2983,21.261 30.3729,8.678 32.9763,12.5831 34.7119,26.4678 39.4847,38.6169 56.4068,36.8814 60.3119,39.4847 63.7831,47.2949 72.8949,41.2203 87.6475,26.4678 95.0237,14.3186 99.3627,10.4136 103.2678,32.9763 104.5695,58.5763 107.1729,68.122 107.1729,81.5729 101.5322,95.0237 96.7593,98.4949 78.1017,105.0034 61.1797,108.9085 53.3695,108.9085 39.4847,105.0034 16.922,95.0237 8.678,74.6305 10.4136,66.8203 12.5831,62.9153 23.4305,50.7661" stroke="#00007f" stroke-width="2" /><polyline fill="none" points="38.6169,58.5763 36.8814,54.6712 40.7864,54.6712" stroke="#0010ff" stroke-width="2" /><polyline fill="none" points="55.539,54.6712 56.4068,58.1424" stroke="#00a4ff" stroke-width="2" /><polyline fill="none" points="48.1627,66.8203 47.2949,69.8576" stroke="#3fffb7" stroke-width="2" /><polyline fill="none" points="49.8983,69.4237 68.122,67.6881 95.0237,62.9153 109.7763,62.0475" stroke="#b7ff3f" stroke-width="2" /><polyline fill="none" points="53.8034,69.4237 62.0475,71.5932 86.3458,88.0814 107.1729,97.6271" stroke="#ffb900" stroke-width="2" /><polyline fill="none" points="66.8203,70.7254 119.322,70.7254" stroke="#ff3000" stroke-width="2" /><polyline fill="none" points="68.5559,75.0644 60.3119,73.3288" stroke="#7f0000" stroke-width="2" /></svg>