<?xml version="1.0" encoding="utf-8" ?>
<svg baseProfile="tiny" height="128" version="1.2" viewBox="0,0,128,128" width="128" xmlns="http://www.w3.org/2000/svg" xmlns:ev="http://www.w3.org/2001/xml-events" xmlns:xlink="http://www.w3.org/1999/xlink"><defs /><polyline fill="none" points="26.9017,45.9932 23.8644,43.3898 23.8644,25.6 27.3356,22.1288 31.2407,20.8271 35.5797,20.8271 39.4847,23.8644 48.5966,39.4847 51.2,41.6542 40.3525,40.7864 30.3729,46.861 26.9017,60.7458 27.7695,76.3661 39.4847,92.8542 52.5017,103.7017 63.7831,108.0407 79.8373,108.4746 95.0237,101.0983 100.2305,95.8915 103.2678,86.3458 103.2678,75.9322 100.2305,64.2169 95.4576,54.6712 85.9119,45.9932 69.4237,38.6169 53.3695,36.4475" stroke="#00007f" stroke-width="2" /><polyline fill="none" points="85.478,39.4847 85.9119,31.2407 94.1559,16.0542 102.8339,8.678 110.2102,8.678 111.078,11.7153 111.078,22.1288 93.2881,48.1627" stroke="#0010ff" stroke-width="2" /><polyline fill="none" points="57.2746,62.9153 53.8034,60.7458 51.2,60.7458 53.3695,59.878" stroke="#00a4ff" stroke-width="2" /><polyline fill="none" points="79.4034,61.1797 75.9322,61.1797" stroke="#3fffb7" stroke-width="2" /><polyline fill="none" points="55.9729,82.0068 38.6169,82.0068 18.6576,88.0814 8.678,93.722" stroke="#b7ff3f" stroke-width="2" /><polyline fill="none" points="50.7661,94.1559 36.4475,96.3254 9.5458,107.1729" stroke="#ffb900" stroke-width="2" /><polyline fill="none" points="97.1932,78.9695 119.322,80.7051" stroke="#ff3000" stroke-width="2" /><polyline fill="none" points="72.0271,98.9288 100.2305,101.9661" stroke="#7f0000" stroke-width="2" /></svg>