<?xml version="1.0" encoding="utf-8" ?>
<svg baseProfile="tiny" height="128" version="1.2" viewBox="0,0,128,128" width="128" xmlns="http://www.w3.org/2000/svg" xmlns:ev="http://www.w3.org/2001/xml-events" xmlns:xlink="http://www.w3.org/1999/xlink"><defs /><polyline fill="none" points="80.1088,39.1837 77.932,40.4898 63.5646,40.4898 51.8095,42.2313 38.3129,48.3265 30.0408,58.3401 27.4286,67.483 26.9932,82.7211 31.7823,86.6395 49.1973,92.7347 71.4014,93.1701 95.7823,83.5918 105.7959,76.6259 108.8435,70.0952 109.2789,59.6463 103.1837,44.4082 94.9116,37.8776 77.932,35.7007 68.3537,40.4898" stroke="#00007f" stroke-width="2" /><polyline fill="none" points="95.7823,36.1361 98.3946,34.3946 111.4558,11.7551 117.9864,8.7075 119.2925,11.7551 118.4218,18.2857 98.3946,57.4694" stroke="#0000fe" stroke-width="2" /><polyline fill="none" points="33.0884,46.585 8.7075,19.1565 9.5782,24.8163 23.5102,46.585 25.6871,51.3741 25.6871,57.4694" stroke="#0060ff" stroke-width="2" /><polyline fill="none" points="49.1973,60.0816 49.1973,60.0816" stroke="#00d4ff" stroke-width="2" /><polyline fill="none" points="25.2517,40.4898 32.6531,38.7483 38.3129,43.102 42.6667,53.551 45.2789,69.6599" stroke="#4cffaa" stroke-width="2" /><polyline fill="none" points="46.1497,60.9524 48.7619,60.9524 53.1156,67.0476 55.2925,67.483 59.2109,58.7755 60.9524,58.3401" stroke="#aaff4c" stroke-width="2" /><polyline fill="none" points="82.2857,55.7279 88.8163,61.3878 91.8639,54.4218" stroke="#ffe500" stroke-width="2" /><polyline fill="none" points="75.7551,72.2721 72.2721,72.2721" stroke="#ff7a00" stroke-width="2" /><polyline fill="none" points="77.0612,74.449 77.4966,84.898 70.0952,85.3333 63.5646,82.7211" stroke="#fe1200" stroke-width="2" /><polyline fill="none" points="80.1088,75.7551 80.1088,78.8027" stroke="#7f0000" stroke-width="2" /></svg>