<?xml version="1.0" encoding="utf-8" ?>
<svg baseProfile="tiny" height="128" version="1.2" viewBox="0,0,128,128" width="128" xmlns="http://www.w3.org/2000/svg" xmlns:ev="http://www.w3.org/2001/xml-events" xmlns:xlink="http://www.w3.org/1999/xlink"><defs /><polyline fill="none" points="8.678,49.8983 11.2814,46.4271 15.1864,35.1458 19.5254,8.678 21.261,10.4136 32.1085,39.4847 35.1458,42.0881 71.5932,40.3525 83.7424,19.0915 89.3831,62.0475 89.8169,80.2712 86.7797,94.1559 78.9695,107.1729 72.0271,113.2475 66.8203,115.8508 51.2,119.322 45.5593,119.322 36.8814,116.7186 30.3729,108.9085 24.7322,96.7593 13.0169,50.7661 12.1492,40.7864" stroke="#00007f" stroke-width="2" /><polyline fill="none" points="41.6542,66.8203 42.522,71.5932 40.7864,73.3288 38.1831,69.4237 39.9186,65.9525 41.6542,66.3864 40.3525,69.4237 39.0508,69.8576" stroke="#0028ff" stroke-width="2" /><polyline fill="none" points="81.139,67.2542 73.7627,71.5932 72.0271,69.8576 72.461,65.9525 74.6305,65.0847 76.8,66.8203 74.1966,68.5559 72.0271,66.8203" stroke="#00d4ff" stroke-width="2" /><polyline fill="none" points="60.7458,79.4034 46.861,83.7424 62.0475,92.4203 65.0847,84.6102" stroke="#7cff79" stroke-width="2" /><polyline fill="none" points="61.6136,92.4203 53.8034,100.2305 49.8983,102.4 43.3898,102.4" stroke="#ffe500" stroke-width="2" /><polyline fill="none" points="61.1797,95.0237 66.8203,99.3627 74.1966,101.0983 80.2712,99.7966" stroke="#ff4600" stroke-width="2" /><polyline fill="none" points="40.7864,90.6847 30.3729,94.1559" stroke="#7f0000" stroke-width="2" /></svg>