<?xml version="1.0" encoding="utf-8" ?>
<svg baseProfile="tiny" height="128" version="1.2" viewBox="0,0,128,128" width="128" xmlns="http://www.w3.org/2000/svg" xmlns:ev="http://www.w3.org/2001/xml-events" xmlns:xlink="http://www.w3.org/1999/xlink"><defs /><polyline fill="none" points="37.8776,49.1973 32.2177,48.7619 26.5578,50.9388 20.4626,57.4694 18.2857,62.6939 17.8503,72.7075 23.9456,91.8639 31.3469,105.3605 40.4898,112.3265 58.3401,118.8571 70.0952,119.2925 75.3197,115.8095 78.8027,110.1497 84.0272,94.9116 84.4626,84.0272 80.5442,73.5782 69.6599,59.2109 60.0816,51.8095 51.3741,49.6327 39.619,49.6327 33.9592,50.5034 32.2177,51.8095" stroke="#00007f" stroke-width="2" /><polyline fill="none" points="19.5918,64.4354 16.1088,59.6463 10.8844,39.619 8.7075,17.8503 19.1565,27.8639 39.1837,53.551 40.9252,53.551" stroke="#004cff" stroke-width="2" /><polyline fill="none" points="57.034,53.1156 65.7415,40.0544 76.1905,20.4626 84.898,8.7075 84.0272,19.5918 74.449,59.2109" stroke="#29ffcd" stroke-width="2" /><polyline fill="none" points="49.1973,87.0748 50.068,97.5238" stroke="#cdff29" stroke-width="2" /><polyline fill="none" points="48.7619,96.6531 49.1973,98.3946 47.4558,99.7007 39.619,100.1361 38.3129,99.2653" stroke="#ff6700" stroke-width="2" /><polyline fill="none" points="54.8571,97.0884 55.2925,101.0068 62.6939,101.8776 64.0,96.2177" stroke="#7f0000" stroke-width="2" /></svg>