<?xml version="1.0" encoding="utf-8" ?>
<svg baseProfile="tiny" height="128" version="1.2" viewBox="0,0,128,128" width="128" xmlns="http://www.w3.org/2000/svg" xmlns:ev="http://www.w3.org/2001/xml-events" xmlns:xlink="http://www.w3.org/1999/xlink"><defs /><polyline fill="none" points="34.278,56.4068 30.3729,59.878 28.2034,65.0847 20.3932,86.3458 20.3932,101.9661 24.2983,108.4746 33.8441,111.078 46.4271,112.8136 55.539,112.8136 63.7831,110.6441 72.0271,105.8712 75.9322,101.9661 79.8373,95.0237 81.5729,86.7797 82.0068,75.4983 80.7051,71.5932 76.3661,64.6508 70.2915,59.4441 53.8034,52.5017 39.0508,52.5017 30.8068,54.2373" stroke="#00007f" stroke-width="2" /><polyline fill="none" points="34.278,52.5017 39.0508,29.5051 43.8237,16.922 49.0305,8.678 50.7661,12.5831 57.2746,51.2 59.0102,53.3695" stroke="#0000fe" stroke-width="2" /><polyline fill="none" points="69.8576,53.8034 75.4983,46.861 113.2475,26.9017 100.6644,53.8034 95.0237,62.9153 91.1186,66.3864" stroke="#0060ff" stroke-width="2" /><polyline fill="none" points="35.5797,69.4237 37.3153,72.8949 42.0881,73.7627 45.5593,69.8576 43.8237,67.2542 36.0136,66.3864 31.6746,67.6881" stroke="#00d4ff" stroke-width="2" /><polyline fill="none" points="61.1797,74.6305 59.0102,77.6678 59.4441,80.2712 67.2542,80.2712 69.4237,74.1966 64.2169,72.8949" stroke="#4cffaa" stroke-width="2" /><polyline fill="none" points="56.8407,91.5525 105.0034,95.8915 108.9085,97.1932 110.6441,102.8339 111.078,104.5695 107.1729,105.0034" stroke="#aaff4c" stroke-width="2" /><polyline fill="none" points="71.5932,98.4949 78.9695,102.8339 84.1763,110.6441 85.0441,113.6814 77.2339,108.9085" stroke="#ffe500" stroke-width="2" /><polyline fill="none" points="54.2373,90.2508 45.9932,85.478 39.0508,84.1763 26.4678,84.1763 13.8847,86.3458" stroke="#ff7a00" stroke-width="2" /><polyline fill="none" points="46.4271,93.722 31.2407,92.8542 9.5458,96.7593 8.678,99.3627 10.4136,99.7966" stroke="#fe1200" stroke-width="2" /><polyline fill="none" points="57.7085,93.2881 67.6881,92.8542 72.8949,95.8915 82.8746,119.322" stroke="#7f0000" stroke-width="2" /></svg>