<?xml version="1.0" encoding="utf-8" ?>
<svg baseProfile="tiny" height="128" version="1.2" viewBox="0,0,128,128" width="128" xmlns="http://www.w3.org/2000/svg" xmlns:ev="http://www.w3.org/2001/xml-events" xmlns:xlink="http://www.w3.org/1999/xlink"><defs /><polyline fill="none" points="30.5802,40.1911 37.57,8.7372 47.1809,28.3959 56.3549,29.2696 80.3823,34.0751 82.5666,34.0751 84.314,31.4539 89.9932,13.1058 97.8567,40.1911 99.6041,60.2867 93.4881,76.4505 78.198,86.0614 58.5392,88.2457 42.3754,86.4983 34.0751,79.9454 25.7747,66.8396 24.901,52.8601 26.6485,48.4915 29.7065,44.9966" stroke="#00007f" stroke-width="2" /><polyline fill="none" points="35.3857,52.4232 8.7372,49.802" stroke="#0028ff" stroke-width="2" /><polyline fill="none" points="31.0171,61.1604 17.9113,62.9078 9.1741,66.4027 14.4164,66.4027" stroke="#00d4ff" stroke-width="2" /><polyline fill="none" points="35.8225,69.8976 27.5222,70.7713 18.3481,75.5768" stroke="#7cff79" stroke-width="2" /><polyline fill="none" points="74.7031,42.3754 93.9249,48.9283 110.5256,50.2389 106.157,52.8601" stroke="#ffe500" stroke-width="2" /><polyline fill="none" points="84.7509,59.413 119.2628,71.2082 114.8942,72.5188" stroke="#ff4600" stroke-width="2" /><polyline fill="none" points="90.8669,74.2662 93.9249,77.7611 115.3311,88.2457" stroke="#7f0000" stroke-width="2" /></svg>