<?xml version="1.0" encoding="utf-8" ?>
<svg baseProfile="tiny" height="128" version="1.2" viewBox="0,0,128,128" width="128" xmlns="http://www.w3.org/2000/svg" xmlns:ev="http://www.w3.org/2001/xml-events" xmlns:xlink="http://www.w3.org/1999/xlink"><defs /><polyline fill="none" points="23.8644,16.4881 20.3932,21.6949 20.3932,29.0712 26.4678,39.4847 31.2407,42.9559 40.7864,43.8237 45.9932,40.7864 48.5966,36.4475 49.0305,29.5051 46.861,24.7322 43.3898,22.1288 33.4102,17.7898 30.3729,17.7898 29.939,19.5254" stroke="#00007f" stroke-width="2" /><polyline fill="none" points="36.4475,39.9186 31.6746,44.2576 25.6,61.6136" stroke="#0000ba" stroke-width="2" /><polyline fill="none" points="41.6542,34.278 41.6542,34.278" stroke="#0000f5" stroke-width="2" /><polyline fill="none" points="36.0136,37.7492 28.6373,42.9559 26.4678,48.1627" stroke="#0020ff" stroke-width="2" /><polyline fill="none" points="26.9017,37.3153 22.1288,38.6169 8.678,59.878" stroke="#0054ff" stroke-width="2" /><polyline fill="none" points="39.9186,32.1085 39.9186,32.1085" stroke="#008cff" stroke-width="2" /><polyline fill="none" points="41.2203,31.6746 34.278,31.6746 34.278,33.4102 38.1831,35.5797" stroke="#00c0ff" stroke-width="2" /><polyline fill="none" points="48.5966,25.6 57.2746,20.8271 63.3492,15.6203" stroke="#0ff8e7" stroke-width="2" /><polyline fill="none" points="52.0678,31.6746 60.3119,31.6746 62.0475,32.5424" stroke="#39ffbd" stroke-width="2" /><polyline fill="none" points="48.5966,31.2407 60.7458,42.522" stroke="#66ff90" stroke-width="2" /><polyline fill="none" points="25.1661,22.1288 29.5051,16.4881 31.6746,8.678 36.8814,13.8847 39.9186,13.8847 42.522,8.678 42.9559,10.4136" stroke="#90ff66" stroke-width="2" /><polyline fill="none" points="35.1458,23.4305 31.6746,31.6746 30.8068,30.8068 36.0136,22.5627" stroke="#bdff39" stroke-width="2" /><polyline fill="none" points="47.7288,20.8271 47.7288,20.8271" stroke="#e7ff0f" stroke-width="2" /><polyline fill="none" points="42.522,34.7119 42.522,34.7119" stroke="#ffd300" stroke-width="2" /><polyline fill="none" points="46.861,25.1661 44.2576,36.0136" stroke="#ffa300" stroke-width="2" /><polyline fill="none" points="49.0305,46.861 44.2576,46.861 51.6339,57.2746 68.5559,68.5559 106.3051,80.2712 113.6814,80.2712 119.322,73.3288 119.322,66.3864 114.1153,56.4068 107.1729,46.861 102.8339,42.9559 89.3831,39.0508 63.7831,35.1458 54.2373,34.7119 52.0678,31.6746 52.0678,28.6373" stroke="#ff6f00" stroke-width="2" /><polyline fill="none" points="61.1797,55.9729 55.1051,62.4814 51.2,80.7051 59.4441,83.7424 69.8576,84.1763 77.6678,78.1017 79.4034,72.461" stroke="#ff3f00" stroke-width="2" /><polyline fill="none" points="92.4203,76.8 88.0814,82.8746 86.7797,93.722 91.5525,94.5898 96.3254,85.478 96.7593,80.7051" stroke="#f50b00" stroke-width="2" /><polyline fill="none" points="109.3424,75.0644 107.1729,80.7051 105.8712,92.4203 108.9085,94.1559 112.3797,89.8169 114.5492,85.478 114.5492,72.461" stroke="#ba0000" stroke-width="2" /><polyline fill="none" points="90.6847,75.9322 81.139,84.6102 75.4983,103.2678 72.0271,95.4576 71.5932,91.5525 86.3458,71.5932 88.0814,63.3492" stroke="#7f0000" stroke-width="2" /></svg>