<?xml version="1.0" encoding="utf-8" ?>
<svg baseProfile="tiny" height="128" version="1.2" viewBox="0,0,128,128" width="128" xmlns="http://www.w3.org/2000/svg" xmlns:ev="http://www.w3.org/2001/xml-events" xmlns:xlink="http://www.w3.org/1999/xlink"><defs /><polyline fill="none" points="38.3129,26.9932 39.1837,25.2517 37.8776,23.9456 29.6054,23.5102 23.5102,26.9932 18.2857,35.2653 15.6735,47.8912 17.415,59.2109 21.7687,65.7415 29.1701,67.9184 36.5714,63.5646 42.6667,55.2925 48.7619,38.3129 49.6327,29.1701 48.7619,25.2517 41.7959,22.6395 33.0884,23.0748" stroke="#00007f" stroke-width="2" /><polyline fill="none" points="26.9932,47.4558 27.4286,55.2925 25.2517,58.7755 21.3333,59.6463 18.7211,58.3401" stroke="#0000d1" stroke-width="2" /><polyline fill="none" points="26.5578,42.2313 23.5102,49.6327 24.381,52.6803 26.9932,54.8571 32.2177,53.9864 36.5714,50.068" stroke="#0010ff" stroke-width="2" /><polyline fill="none" points="29.1701,26.5578 30.9116,27.4286 30.0408,25.6871 20.0272,16.1088 8.7075,8.7075 8.7075,13.932 14.3673,31.3469 16.1088,43.5374" stroke="#0058ff" stroke-width="2" /><polyline fill="none" points="47.4558,13.4966 68.7891,11.7551 50.5034,30.4762 42.2313,45.7143" stroke="#00a4ff" stroke-width="2" /><polyline fill="none" points="46.585,48.7619 63.5646,45.7143 74.8844,46.1497 82.7211,47.8912 86.6395,51.3741 89.2517,57.4694 89.6871,60.9524 87.5102,68.7891 81.415,73.1429 66.6122,77.4966 49.1973,77.0612 35.2653,71.8367 32.2177,68.3537 31.3469,64.4354" stroke="#05ecf1" stroke-width="2" /><polyline fill="none" points="27.4286,35.2653 29.6054,33.9592 26.1224,33.9592 25.2517,30.9116" stroke="#3fffb7" stroke-width="2" /><polyline fill="none" points="29.1701,31.3469 31.7823,34.3946 35.2653,32.6531 40.4898,37.4422" stroke="#7cff79" stroke-width="2" /><polyline fill="none" points="37.4422,66.1769 32.2177,90.9932" stroke="#b7ff3f" stroke-width="2" /><polyline fill="none" points="77.0612,71.8367 78.8027,72.7075 70.5306,91.8639" stroke="#f1fc05" stroke-width="2" /><polyline fill="none" points="99.7007,59.2109 102.7483,58.7755 106.6667,60.517 114.068,69.6599" stroke="#ffb900" stroke-width="2" /><polyline fill="none" points="102.7483,63.1293 105.7959,60.9524 104.9252,58.7755 101.0068,57.9048 99.2653,60.0816 99.7007,62.2585 104.0544,66.6122 114.9388,72.2721" stroke="#ff7300" stroke-width="2" /><polyline fill="none" points="117.9864,86.6395 112.7619,87.0748" stroke="#ff3000" stroke-width="2" /><polyline fill="none" points="90.1224,60.9524 98.8299,59.6463 104.4898,60.517 107.5374,62.2585 114.068,74.0136 119.2925,90.1224" stroke="#d10000" stroke-width="2" /><polyline fill="none" points="50.5034,18.2857 50.5034,16.5442 49.1973,18.2857 42.2313,20.898" stroke="#7f0000" stroke-width="2" /></svg>