<?xml version="1.0" encoding="utf-8" ?>
<svg baseProfile="tiny" height="128" version="1.2" viewBox="0,0,128,128" width="128" xmlns="http://www.w3.org/2000/svg" xmlns:ev="http://www.w3.org/2001/xml-events" xmlns:xlink="http://www.w3.org/1999/xlink"><defs /><polyline fill="none" points="23.4305,32.9763 23.8644,25.6 29.5051,18.6576 40.3525,16.922 47.2949,20.8271 50.3322,25.6 51.2,32.1085 46.861,36.4475 38.6169,37.7492 22.5627,32.1085" stroke="#00007f" stroke-width="2" /><polyline fill="none" points="52.0678,29.0712 76.8,32.9763 90.6847,32.9763" stroke="#0000bf" stroke-width="2" /><polyline fill="none" points="63.7831,32.9763 62.0475,60.7458 65.5186,58.5763" stroke="#0000fe" stroke-width="2" /><polyline fill="none" points="73.7627,35.1458 72.0271,48.5966 72.461,60.3119" stroke="#0028ff" stroke-width="2" /><polyline fill="none" points="82.0068,33.4102 80.7051,59.878" stroke="#0060ff" stroke-width="2" /><polyline fill="none" points="88.9492,33.4102 89.3831,59.0102" stroke="#009cff" stroke-width="2" /><polyline fill="none" points="55.539,26.4678 72.0271,17.7898 85.478,17.7898 90.2508,19.5254 91.5525,23.4305 91.5525,28.6373 88.0814,31.6746" stroke="#00d4ff" stroke-width="2" /><polyline fill="none" points="93.2881,27.3356 94.1559,24.7322 95.8915,23.4305 103.7017,25.6 108.0407,27.7695 109.3424,34.7119 103.7017,34.7119 106.739,33.8441 119.322,36.4475 112.3797,39.9186 105.0034,39.9186 95.8915,32.5424 93.2881,27.7695" stroke="#1fffd7" stroke-width="2" /><polyline fill="none" points="30.8068,22.9966 30.8068,23.4305" stroke="#4cffaa" stroke-width="2" /><polyline fill="none" points="26.9017,27.3356 28.2034,29.939 32.1085,31.6746" stroke="#7cff79" stroke-width="2" /><polyline fill="none" points="34.278,29.0712 42.522,32.5424" stroke="#aaff4c" stroke-width="2" /><polyline fill="none" points="33.8441,25.1661 41.6542,28.2034" stroke="#d7ff1f" stroke-width="2" /><polyline fill="none" points="25.1661,24.2983 14.3186,19.5254" stroke="#ffe500" stroke-width="2" /><polyline fill="none" points="25.6,20.8271 20.8271,16.0542" stroke="#ffb100" stroke-width="2" /><polyline fill="none" points="34.278,16.922 32.5424,11.7153 32.9763,8.678" stroke="#ff7a00" stroke-width="2" /><polyline fill="none" points="36.8814,10.8475 43.3898,9.5458" stroke="#ff4600" stroke-width="2" /><polyline fill="none" points="25.6,34.278 24.2983,45.5593" stroke="#fe1200" stroke-width="2" /><polyline fill="none" points="38.1831,36.0136 32.9763,46.861" stroke="#bf0000" stroke-width="2" /><polyline fill="none" points="32.1085,45.1254 27.3356,46.4271 8.678,42.9559 32.9763,45.5593" stroke="#7f0000" stroke-width="2" /></svg>