<?xml version="1.0" encoding="utf-8" ?>
<svg baseProfile="tiny" height="128" version="1.2" viewBox="0,0,128,128" width="128" xmlns="http://www.w3.org/2000/svg" xmlns:ev="http://www.w3.org/2001/xml-events" xmlns:xlink="http://www.w3.org/1999/xlink"><defs /><polyline fill="none" points="8.678,49.4644 20.3932,49.4644 35.5797,52.0678 78.5356,52.0678" stroke="#00007f" stroke-width="2" /><polyline fill="none" points="77.6678,54.2373 78.9695,35.1458" stroke="#0000de" stroke-width="2" /><polyline fill="none" points="68.9898,35.1458 75.4983,39.0508 86.3458,39.4847 91.1186,37.3153 93.722,32.5424 93.2881,26.4678 90.2508,19.9593 86.3458,16.922 78.5356,16.922 69.4237,20.8271 68.122,23.4305 67.6881,34.7119 72.8949,37.3153" stroke="#0028ff" stroke-width="2" /><polyline fill="none" points="66.3864,20.8271 67.2542,9.5458 68.9898,8.678 71.1593,9.9797 76.8,16.0542" stroke="#0080ff" stroke-width="2" /><polyline fill="none" points="87.2136,18.2237 93.722,14.3186 94.5898,16.4881 92.8542,23.4305" stroke="#00d4ff" stroke-width="2" /><polyline fill="none" points="79.4034,27.3356 79.4034,27.3356" stroke="#36ffc0" stroke-width="2" /><polyline fill="none" points="79.4034,27.7695 78.5356,26.4678" stroke="#7cff79" stroke-width="2" /><polyline fill="none" points="73.3288,22.5627 74.6305,23.4305" stroke="#c0ff36" stroke-width="2" /><polyline fill="none" points="82.4407,20.3932 83.3085,20.8271" stroke="#ffe500" stroke-width="2" /><polyline fill="none" points="79.8373,29.5051 90.2508,29.939 119.322,26.9017" stroke="#ff9400" stroke-width="2" /><polyline fill="none" points="75.4983,29.5051 44.6915,29.5051" stroke="#ff4600" stroke-width="2" /><polyline fill="none" points="84.6102,29.939 91.5525,32.9763 105.8712,33.8441" stroke="#de0000" stroke-width="2" /><polyline fill="none" points="77.6678,32.1085 64.2169,37.7492" stroke="#7f0000" stroke-width="2" /></svg>