<?xml version="1.0" encoding="utf-8" ?>
<svg baseProfile="tiny" height="128" version="1.2" viewBox="0,0,128,128" width="128" xmlns="http://www.w3.org/2000/svg" xmlns:ev="http://www.w3.org/2001/xml-events" xmlns:xlink="http://www.w3.org/1999/xlink"><defs /><polyline fill="none" points="12.1492,29.939 10.4136,39.0508 17.3559,20.3932 23.8644,9.9797 43.3898,40.7864 45.5593,41.2203 53.8034,32.9763 65.5186,27.7695 79.4034,29.0712 95.8915,35.5797 99.7966,26.0339 110.2102,8.678 118.4542,12.1492 119.322,19.9593 117.1525,48.5966 114.9831,60.7458 110.6441,73.7627 99.3627,90.2508 83.7424,96.7593 58.5763,96.7593 36.8814,88.9492 31.2407,81.139 28.6373,74.6305 17.7898,60.3119 9.1119,34.278 8.678,26.0339" stroke="#00007f" stroke-width="2" /><polyline fill="none" points="70.2915,62.0475 69.8576,59.4441 64.6508,59.0102 64.2169,64.2169 73.3288,65.0847 72.461,59.4441 67.2542,56.8407" stroke="#0010ff" stroke-width="2" /><polyline fill="none" points="87.2136,47.7288 108.4746,42.0881" stroke="#00a4ff" stroke-width="2" /><polyline fill="none" points="90.2508,60.7458 89.3831,65.9525 97.6271,68.5559 103.2678,68.5559" stroke="#3fffb7" stroke-width="2" /><polyline fill="none" points="82.8746,73.7627 82.8746,76.3661 87.2136,82.0068 91.9864,84.6102" stroke="#b7ff3f" stroke-width="2" /><polyline fill="none" points="44.6915,53.3695 26.9017,50.7661" stroke="#ffb900" stroke-width="2" /><polyline fill="none" points="45.1254,60.3119 30.3729,62.9153" stroke="#ff3000" stroke-width="2" /><polyline fill="none" points="52.5017,66.3864 39.4847,72.8949" stroke="#7f0000" stroke-width="2" /></svg>