<?xml version="1.0" encoding="utf-8" ?>
<svg baseProfile="tiny" height="128" version="1.2" viewBox="0,0,128,128" width="128" xmlns="http://www.w3.org/2000/svg" xmlns:ev="http://www.w3.org/2001/xml-events" xmlns:xlink="http://www.w3.org/1999/xlink"><defs /><polyline fill="none" points="23.4305,32.9763 19.9593,36.4475 17.3559,45.1254 17.7898,61.1797 24.2983,71.5932 38.1831,76.3661 48.5966,76.8 55.539,74.6305 65.9525,66.3864 70.2915,59.4441 71.1593,55.1051 68.9898,43.3898 64.2169,34.278 52.0678,28.6373 42.0881,28.2034 28.2034,30.8068 25.1661,32.9763 24.7322,36.0136" stroke="#00007f" stroke-width="2" /><polyline fill="none" points="48.5966,30.8068 56.4068,22.1288 73.3288,8.678 75.0644,11.2814 73.3288,22.5627 67.6881,42.9559" stroke="#0000ff" stroke-width="2" /><polyline fill="none" points="31.2407,28.6373 18.6576,14.3186 9.1119,8.678 8.678,25.6 9.9797,32.5424 15.6203,42.9559" stroke="#0080ff" stroke-width="2" /><polyline fill="none" points="44.6915,52.9356 44.2576,55.9729 46.4271,59.0102 51.6339,60.7458" stroke="#15ffe1" stroke-width="2" /><polyline fill="none" points="44.6915,55.539 39.0508,63.7831" stroke="#7cff79" stroke-width="2" /><polyline fill="none" points="51.2,43.3898 51.2,44.6915" stroke="#e4ff12" stroke-width="2" /><polyline fill="none" points="27.7695,46.861 28.6373,46.861" stroke="#ff9400" stroke-width="2" /><polyline fill="none" points="40.7864,81.5729 42.0881,98.9288 41.2203,119.322" stroke="#ff1d00" stroke-width="2" /><polyline fill="none" points="65.5186,65.5186 65.5186,69.8576 68.122,80.7051 78.1017,95.0237" stroke="#7f0000" stroke-width="2" /></svg>