<?xml version="1.0" encoding="utf-8" ?>
<svg baseProfile="tiny" height="128" version="1.2" viewBox="0,0,128,128" width="128" xmlns="http://www.w3.org/2000/svg" xmlns:ev="http://www.w3.org/2001/xml-events" xmlns:xlink="http://www.w3.org/1999/xlink"><defs /><polyline fill="none" points="73.3288,36.0136 53.3695,36.8814 39.9186,40.3525 32.5424,45.1254 29.939,48.5966 30.3729,52.5017 36.8814,59.0102 47.2949,63.3492 61.1797,64.6508 78.1017,58.1424 85.9119,51.2 87.2136,41.6542 85.0441,38.6169 81.139,36.4475 72.8949,36.4475" stroke="#00007f" stroke-width="2" /><polyline fill="none" points="73.3288,36.4475 119.322,37.7492" stroke="#0000de" stroke-width="2" /><polyline fill="none" points="39.0508,61.1797 37.3153,67.2542" stroke="#0028ff" stroke-width="2" /><polyline fill="none" points="44.6915,61.6136 46.861,71.1593 50.7661,71.1593" stroke="#0080ff" stroke-width="2" /><polyline fill="none" points="65.9525,64.2169 71.5932,72.0271" stroke="#00d4ff" stroke-width="2" /><polyline fill="none" points="77.2339,58.5763 82.4407,66.3864" stroke="#36ffc0" stroke-width="2" /><polyline fill="none" points="26.0339,20.3932 15.6203,26.9017 9.1119,40.7864 8.678,45.1254 15.1864,49.8983 30.3729,50.3322 40.3525,43.3898 44.6915,39.0508 48.1627,32.9763 48.1627,28.6373 45.1254,25.6 26.9017,18.2237 21.6949,18.6576 17.3559,22.1288" stroke="#7cff79" stroke-width="2" /><polyline fill="none" points="26.0339,18.2237 29.939,16.4881 32.1085,8.678 32.9763,9.1119 35.5797,20.8271" stroke="#c0ff36" stroke-width="2" /><polyline fill="none" points="37.3153,19.5254 48.1627,13.8847 45.9932,26.4678" stroke="#ffe500" stroke-width="2" /><polyline fill="none" points="10.8475,34.7119 13.0169,37.7492 12.5831,39.9186 10.4136,39.0508 10.4136,36.4475 11.7153,37.7492" stroke="#ff9400" stroke-width="2" /><polyline fill="none" points="23.4305,28.2034 23.4305,29.0712" stroke="#ff4600" stroke-width="2" /><polyline fill="none" points="32.5424,30.8068 32.5424,30.3729" stroke="#de0000" stroke-width="2" /><polyline fill="none" points="82.8746,37.7492 91.9864,38.6169" stroke="#7f0000" stroke-width="2" /></svg>