<?xml version="1.0" encoding="utf-8" ?>
<svg baseProfile="tiny" height="128" version="1.2" viewBox="0,0,128,128" width="128" xmlns="http://www.w3.org/2000/svg" xmlns:ev="http://www.w3.org/2001/xml-events" xmlns:xlink="http://www.w3.org/1999/xlink"><defs /><polyline fill="none" points="65.0847,55.9729 59.878,53.3695 46.4271,54.6712 36.8814,57.7085 23.8644,66.8203 16.922,78.1017 15.1864,85.0441 15.1864,92.4203 17.3559,100.6644 24.2983,107.6068 35.1458,111.9458 47.2949,112.8136 58.1424,110.2102 70.2915,105.4373 91.9864,92.8542 98.061,87.2136 101.5322,81.139 101.9661,74.1966 100.2305,68.122 96.7593,63.3492 91.9864,60.7458 73.3288,59.0102 55.1051,61.1797 49.0305,63.7831 41.2203,69.8576 39.4847,74.1966" stroke="#00007f" stroke-width="2" /><polyline fill="none" points="48.5966,93.722 46.4271,94.1559 45.5593,95.8915 47.7288,96.3254 49.0305,95.0237 46.861,94.1559 45.5593,95.8915 49.4644,94.1559 63.7831,82.4407" stroke="#0000fe" stroke-width="2" /><polyline fill="none" points="45.5593,97.1932 29.5051,89.3831" stroke="#0060ff" stroke-width="2" /><polyline fill="none" points="41.6542,97.1932 38.1831,96.7593 33.4102,99.7966 26.4678,107.1729 26.4678,108.9085" stroke="#00d4ff" stroke-width="2" /><polyline fill="none" points="46.4271,97.1932 49.4644,105.4373 56.4068,110.6441" stroke="#4cffaa" stroke-width="2" /><polyline fill="none" points="50.3322,100.2305 71.1593,100.6644" stroke="#aaff4c" stroke-width="2" /><polyline fill="none" points="20.8271,69.4237 18.2237,67.2542 16.0542,34.7119 8.678,8.678 12.5831,11.7153 20.8271,23.8644 35.1458,49.8983 45.9932,59.0102" stroke="#ffe500" stroke-width="2" /><polyline fill="none" points="95.0237,58.5763 82.0068,55.9729 82.0068,52.5017 84.6102,46.861 95.0237,34.278 114.1153,17.7898 118.0203,15.6203 119.322,18.2237 118.0203,24.7322 108.4746,50.3322 102.8339,71.5932 103.2678,77.2339" stroke="#ff7a00" stroke-width="2" /><polyline fill="none" points="29.0712,75.0644 31.2407,79.4034 35.1458,81.5729 46.861,82.8746 54.2373,77.6678 55.1051,73.3288 52.9356,72.0271 41.6542,71.5932 38.6169,72.8949 35.1458,76.8 37.3153,77.6678" stroke="#fe1200" stroke-width="2" /><polyline fill="none" points="85.9119,74.6305 78.1017,74.1966 72.8949,78.1017 71.5932,81.5729 72.461,85.478 79.8373,87.6475 82.8746,86.7797 86.7797,82.8746 87.6475,76.3661 83.3085,73.7627 74.6305,73.7627 73.3288,75.4983" stroke="#7f0000" stroke-width="2" /></svg>