<?xml version="1.0" encoding="utf-8" ?>
<svg baseProfile="tiny" height="128" version="1.2" viewBox="0,0,128,128" width="128" xmlns="http://www.w3.org/2000/svg" xmlns:ev="http://www.w3.org/2001/xml-events" xmlns:xlink="http://www.w3.org/1999/xlink"><defs /><polyline fill="none" points="66.3864,23.4305 84.6102,9.9797 99.3627,9.9797 104.5695,8.678 105.4373,15.6203 103.7017,21.261 91.5525,39.9186" stroke="#00007f" stroke-width="2" /><polyline fill="none" points="42.9559,24.7322 34.7119,19.5254 29.0712,18.6576 17.3559,20.8271 16.4881,23.4305 24.7322,38.6169 29.0712,42.9559 35.1458,46.4271 39.4847,44.6915" stroke="#0000cc" stroke-width="2" /><polyline fill="none" points="44.6915,25.6 46.861,22.5627 65.5186,18.6576" stroke="#0008ff" stroke-width="2" /><polyline fill="none" points="96.3254,47.7288 88.9492,59.878 83.7424,65.0847 78.9695,68.122 70.2915,69.8576 48.1627,59.4441 42.0881,54.2373 39.0508,48.5966" stroke="#004cff" stroke-width="2" /><polyline fill="none" points="97.6271,55.539 93.722,38.1831" stroke="#0090ff" stroke-width="2" /><polyline fill="none" points="62.0475,40.3525 57.2746,45.9932 57.7085,49.4644 62.4814,51.6339 65.0847,48.5966 65.0847,44.2576" stroke="#00d4ff" stroke-width="2" /><polyline fill="none" points="78.9695,38.6169 105.8712,27.3356 114.5492,25.1661 119.322,26.4678" stroke="#29ffcd" stroke-width="2" /><polyline fill="none" points="82.0068,46.861 88.5153,49.0305 95.8915,49.0305 115.4169,46.4271" stroke="#5fff96" stroke-width="2" /><polyline fill="none" points="88.9492,54.2373 94.5898,57.2746 116.2847,63.3492" stroke="#96ff5f" stroke-width="2" /><polyline fill="none" points="47.7288,50.7661 42.0881,50.3322 22.9966,53.8034 14.7525,58.1424 8.678,62.9153 8.678,64.2169" stroke="#cdff29" stroke-width="2" /><polyline fill="none" points="52.5017,60.7458 19.9593,75.0644" stroke="#ffe500" stroke-width="2" /><polyline fill="none" points="56.4068,61.1797 44.2576,66.3864 42.0881,71.1593" stroke="#ffa600" stroke-width="2" /><polyline fill="none" points="62.9153,60.3119 76.3661,60.7458" stroke="#ff6700" stroke-width="2" /><polyline fill="none" points="48.5966,30.8068 48.5966,30.8068" stroke="#ff2800" stroke-width="2" /><polyline fill="none" points="64.6508,32.5424 65.0847,32.5424" stroke="#cc0000" stroke-width="2" /><polyline fill="none" points="46.861,39.4847 47.2949,39.4847" stroke="#7f0000" stroke-width="2" /></svg>