<?xml version="1.0" encoding="utf-8" ?>
<svg baseProfile="tiny" height="128" version="1.2" viewBox="0,0,128,128" width="128" xmlns="http://www.w3.org/2000/svg" xmlns:ev="http://www.w3.org/2001/xml-events" xmlns:xlink="http://www.w3.org/1999/xlink"><defs /><polyline fill="none" points="61.6136,9.9797 52.5017,19.0915 44.2576,29.939 41.6542,38.6169 41.6542,57.2746 46.4271,64.6508 54.2373,68.5559 67.2542,68.5559 80.2712,64.2169 91.1186,57.7085 98.061,51.2 99.7966,44.2576 98.9288,37.7492 89.8169,28.2034 82.8746,23.4305 58.1424,11.7153" stroke="#00007f" stroke-width="2" /><polyline fill="none" points="79.4034,15.6203 88.9492,8.678 85.9119,24.2983" stroke="#0000fe" stroke-width="2" /><polyline fill="none" points="49.4644,19.5254 40.3525,16.0542 39.4847,32.5424 41.2203,36.0136" stroke="#0060ff" stroke-width="2" /><polyline fill="none" points="73.7627,36.8814 62.4814,38.6169 72.0271,40.7864 73.3288,33.8441" stroke="#00d4ff" stroke-width="2" /><polyline fill="none" points="75.9322,21.6949 75.0644,23.4305" stroke="#4cffaa" stroke-width="2" /><polyline fill="none" points="56.8407,26.4678 57.2746,30.3729" stroke="#aaff4c" stroke-width="2" /><polyline fill="none" points="82.4407,47.7288 79.8373,49.4644 68.9898,52.5017" stroke="#ffe500" stroke-width="2" /><polyline fill="none" points="61.1797,71.1593 47.2949,75.0644 35.1458,80.7051 13.4508,98.4949 9.1119,105.4373 8.678,113.2475 12.1492,115.4169 18.2237,116.7186 27.7695,116.2847 49.0305,108.9085 73.7627,95.4576 83.3085,88.0814 88.0814,82.8746 91.1186,76.3661 91.1186,71.1593 86.7797,61.6136" stroke="#ff7a00" stroke-width="2" /><polyline fill="none" points="84.6102,88.9492 90.2508,96.3254 98.9288,101.5322 101.5322,105.0034 110.2102,100.2305 110.6441,102.4 108.4746,105.4373 98.061,109.7763 91.5525,109.3424 88.5153,108.0407 81.139,101.0983 72.461,90.2508" stroke="#fe1200" stroke-width="2" /><polyline fill="none" points="45.1254,114.9831 47.2949,117.5864 62.0475,119.322" stroke="#7f0000" stroke-width="2" /></svg>