<?xml version="1.0" encoding="utf-8" ?>
<svg baseProfile="tiny" height="128" version="1.2" viewBox="0,0,128,128" width="128" xmlns="http://www.w3.org/2000/svg" xmlns:ev="http://www.w3.org/2001/xml-events" xmlns:xlink="http://www.w3.org/1999/xlink"><defs /><polyline fill="none" points="72.0271,20.3932 53.3695,27.3356 41.6542,35.1458 39.0508,43.8237 39.4847,57.2746 45.5593,70.2915 56.4068,80.2712 62.4814,82.8746 79.4034,85.9119 94.5898,84.6102 103.7017,71.5932 106.739,59.0102 106.739,50.3322 102.8339,40.3525 96.3254,30.8068 87.2136,22.5627 79.4034,18.6576 72.461,22.1288" stroke="#00007f" stroke-width="2" /><polyline fill="none" points="42.0881,28.2034 39.0508,19.5254 38.1831,8.678 42.9559,9.9797 53.8034,17.3559" stroke="#0000e8" stroke-width="2" /><polyline fill="none" points="87.2136,15.1864 102.8339,9.5458 104.1356,13.0169 98.061,26.4678" stroke="#0038ff" stroke-width="2" /><polyline fill="none" points="63.3492,50.3322 70.2915,55.9729 72.8949,52.5017 73.3288,49.0305 64.6508,49.0305" stroke="#0094ff" stroke-width="2" /><polyline fill="none" points="53.8034,41.6542 59.4441,40.7864" stroke="#0cf4ea" stroke-width="2" /><polyline fill="none" points="75.9322,38.6169 80.2712,38.6169" stroke="#56ffa0" stroke-width="2" /><polyline fill="none" points="70.7254,59.4441 63.3492,63.3492" stroke="#a0ff56" stroke-width="2" /><polyline fill="none" points="71.5932,59.4441 78.5356,61.6136" stroke="#eaff0c" stroke-width="2" /><polyline fill="none" points="78.5356,54.2373 101.9661,50.3322 117.1525,45.5593" stroke="#ffaa00" stroke-width="2" /><polyline fill="none" points="86.3458,53.8034 119.322,59.0102" stroke="#ff5500" stroke-width="2" /><polyline fill="none" points="64.2169,56.4068 10.8475,49.4644" stroke="#e80000" stroke-width="2" /><polyline fill="none" points="60.7458,54.2373 55.9729,55.9729 26.4678,59.878 8.678,64.6508" stroke="#7f0000" stroke-width="2" /></svg>