<?xml version="1.0" encoding="utf-8" ?>
<svg baseProfile="tiny" height="128" version="1.2" viewBox="0,0,128,128" width="128" xmlns="http://www.w3.org/2000/svg" xmlns:ev="http://www.w3.org/2001/xml-events" xmlns:xlink="http://www.w3.org/1999/xlink"><defs /><polyline fill="none" points="72.0271,66.8203 73.7627,93.722 75.0644,93.722 77.6678,93.2881 78.9695,90.2508 81.5729,75.4983 80.2712,66.3864" stroke="#00007f" stroke-width="2" /><polyline fill="none" points="77.6678,94.1559 82.0068,92.8542 85.478,89.8169 87.6475,70.2915" stroke="#0000cc" stroke-width="2" /><polyline fill="none" points="97.1932,68.122 96.3254,92.4203 100.6644,92.4203 101.9661,91.5525 103.2678,66.8203" stroke="#0008ff" stroke-width="2" /><polyline fill="none" points="101.0983,90.6847 108.0407,91.1186 110.2102,80.2712 110.2102,65.0847" stroke="#004cff" stroke-width="2" /><polyline fill="none" points="80.7051,66.8203 88.5153,70.2915 100.6644,68.9898 103.2678,66.8203" stroke="#0090ff" stroke-width="2" /><polyline fill="none" points="111.5119,65.0847 119.322,78.5356 118.8881,79.4034" stroke="#00d4ff" stroke-width="2" /><polyline fill="none" points="110.6441,65.0847 109.7763,61.1797 106.3051,58.5763 91.5525,56.8407 80.7051,57.7085 76.3661,56.4068 72.8949,49.0305 72.0271,34.7119 76.8,26.0339 74.1966,25.6 65.5186,30.8068 64.2169,26.9017 57.2746,19.0915 55.9729,22.9966 57.2746,31.6746 49.4644,32.9763 48.5966,34.278 48.5966,38.1831 55.539,47.2949 70.7254,61.1797 71.5932,68.9898" stroke="#29ffcd" stroke-width="2" /><polyline fill="none" points="56.8407,33.8441 56.8407,34.7119" stroke="#5fff96" stroke-width="2" /><polyline fill="none" points="64.2169,35.1458 66.8203,36.4475" stroke="#96ff5f" stroke-width="2" /><polyline fill="none" points="55.539,39.4847 56.8407,42.0881 61.1797,42.522" stroke="#cdff29" stroke-width="2" /><polyline fill="none" points="51.6339,37.3153 43.3898,36.8814 38.1831,38.1831" stroke="#ffe500" stroke-width="2" /><polyline fill="none" points="62.4814,39.4847 83.3085,39.4847" stroke="#ffa600" stroke-width="2" /><polyline fill="none" points="8.678,22.5627 9.5458,18.6576 11.7153,16.0542 14.7525,20.3932 20.3932,19.5254 21.261,22.5627" stroke="#ff6700" stroke-width="2" /><polyline fill="none" points="25.6,17.7898 27.3356,26.0339 28.2034,19.9593" stroke="#ff2800" stroke-width="2" /><polyline fill="none" points="26.9017,8.678 27.3356,11.2814 30.3729,13.8847" stroke="#cc0000" stroke-width="2" /><polyline fill="none" points="29.939,16.4881 29.939,16.4881" stroke="#7f0000" stroke-width="2" /></svg>