<?xml version="1.0" encoding="utf-8" ?>
<svg baseProfile="tiny" height="128" version="1.2" viewBox="0,0,128,128" width="128" xmlns="http://www.w3.org/2000/svg" xmlns:ev="http://www.w3.org/2001/xml-events" xmlns:xlink="http://www.w3.org/1999/xlink"><defs /><polyline fill="none" points="47.4558,25.2517 47.4558,21.3333 45.7143,18.2857 37.4422,8.7075 35.2653,12.6259 35.2653,38.3129 36.1361,40.9252" stroke="#00007f" stroke-width="2" /><polyline fill="none" points="49.6327,25.6871 59.6463,21.3333 71.8367,21.7687 77.932,27.4286 80.5442,37.8776 86.2041,21.7687 91.8639,10.449 94.0408,13.932 98.3946,41.3605" stroke="#0000fe" stroke-width="2" /><polyline fill="none" points="36.1361,39.1837 32.6531,40.9252 29.6054,45.2789 26.5578,53.1156 26.5578,67.0476 28.7347,76.6259 33.9592,83.5918 43.9728,90.9932 55.7279,95.3469 67.9184,95.7823 86.2041,85.7687 99.2653,67.0476 102.3129,60.9524 102.3129,53.551 98.8299,41.7959 94.4762,37.8776 85.3333,37.8776" stroke="#0060ff" stroke-width="2" /><polyline fill="none" points="61.3878,60.0816 59.6463,67.0476 63.1293,67.483 60.9524,65.3061" stroke="#00d4ff" stroke-width="2" /><polyline fill="none" points="52.6803,41.7959 52.6803,41.7959" stroke="#4cffaa" stroke-width="2" /><polyline fill="none" points="70.966,43.9728 70.966,43.9728" stroke="#aaff4c" stroke-width="2" /><polyline fill="none" points="53.9864,70.5306 49.1973,73.5782 16.1088,72.2721 8.7075,74.449 11.7551,74.8844" stroke="#ffe500" stroke-width="2" /><polyline fill="none" points="55.7279,63.1293 21.3333,63.1293 20.4626,61.8231" stroke="#ff7a00" stroke-width="2" /><polyline fill="none" points="66.6122,64.4354 88.381,57.9048 104.0544,54.8571" stroke="#fe1200" stroke-width="2" /><polyline fill="none" points="67.9184,71.8367 86.2041,71.8367 119.2925,77.0612" stroke="#7f0000" stroke-width="2" /></svg>