<?xml version="1.0" encoding="utf-8" ?>
<svg baseProfile="tiny" height="128" version="1.2" viewBox="0,0,128,128" width="128" xmlns="http://www.w3.org/2000/svg" xmlns:ev="http://www.w3.org/2001/xml-events" xmlns:xlink="http://www.w3.org/1999/xlink"><defs /><polyline fill="none" points="56.8407,36.8814 42.0881,39.4847 35.1458,43.3898 21.6949,54.6712 17.7898,62.4814 17.3559,78.9695 21.6949,88.0814 38.6169,104.1356 48.5966,108.9085 58.1424,110.6441 78.5356,109.3424 87.6475,103.7017 94.5898,97.1932 100.2305,89.3831 105.4373,77.2339 105.4373,65.0847 92.4203,46.4271 82.0068,40.3525 63.7831,39.4847" stroke="#00007f" stroke-width="2" /><polyline fill="none" points="24.7322,52.0678 22.5627,47.7288 33.8441,19.5254 41.2203,9.5458 43.8237,8.678 47.2949,9.9797 50.3322,32.1085 51.6339,35.5797 53.3695,35.5797" stroke="#0000de" stroke-width="2" /><polyline fill="none" points="83.3085,38.6169 84.1763,34.278 92.4203,24.2983 107.1729,9.9797 110.6441,8.678 111.9458,14.3186 111.9458,38.1831 110.6441,48.5966 108.0407,52.9356" stroke="#0028ff" stroke-width="2" /><polyline fill="none" points="49.8983,51.6339 45.9932,51.6339 42.522,54.2373 38.6169,59.878 37.3153,64.6508 41.2203,68.9898 50.7661,68.9898 54.2373,67.2542 56.4068,63.7831 55.1051,59.878 47.2949,56.4068" stroke="#0080ff" stroke-width="2" /><polyline fill="none" points="74.6305,58.1424 72.8949,60.7458 75.0644,65.0847 78.5356,67.2542 83.3085,67.2542 85.478,62.4814 85.478,59.4441 83.7424,56.4068 79.4034,55.1051" stroke="#00d4ff" stroke-width="2" /><polyline fill="none" points="65.5186,79.4034 65.5186,79.4034" stroke="#36ffc0" stroke-width="2" /><polyline fill="none" points="55.539,77.6678 55.539,77.6678" stroke="#7cff79" stroke-width="2" /><polyline fill="none" points="8.678,71.1593 26.4678,71.5932 49.8983,74.6305" stroke="#c0ff36" stroke-width="2" /><polyline fill="none" points="15.1864,99.7966 24.7322,93.2881 32.1085,91.1186" stroke="#ffe500" stroke-width="2" /><polyline fill="none" points="18.2237,115.8508 21.6949,115.8508 31.6746,112.3797 44.6915,106.3051" stroke="#ff9400" stroke-width="2" /><polyline fill="none" points="79.8373,78.5356 83.3085,77.6678 95.0237,77.6678 117.1525,73.3288" stroke="#ff4600" stroke-width="2" /><polyline fill="none" points="80.2712,96.3254 95.0237,97.6271 103.2678,100.2305" stroke="#de0000" stroke-width="2" /><polyline fill="none" points="90.2508,118.8881 108.4746,119.322" stroke="#7f0000" stroke-width="2" /></svg>