<?xml version="1.0" encoding="utf-8" ?>
<svg baseProfile="tiny" height="128" version="1.2" viewBox="0,0,128,128" width="128" xmlns="http://www.w3.org/2000/svg" xmlns:ev="http://www.w3.org/2001/xml-events" xmlns:xlink="http://www.w3.org/1999/xlink"><defs /><polyline fill="none" points="8.678,18.2237 13.0169,9.1119 17.7898,18.6576 30.8068,16.4881 39.0508,19.9593 43.8237,8.678 49.0305,25.6 49.8983,37.3153 43.8237,43.3898 34.278,47.7288 28.6373,47.7288 18.2237,42.9559 13.4508,39.4847 11.7153,35.5797 9.5458,19.5254 11.2814,15.1864" stroke="#00007f" stroke-width="2" /><polyline fill="none" points="29.0712,31.2407 29.939,32.5424 30.8068,31.6746 30.3729,30.3729 29.5051,31.6746 30.8068,39.9186 29.0712,42.522 30.3729,39.4847 33.8441,40.7864" stroke="#0080ff" stroke-width="2" /><polyline fill="none" points="37.7492,25.1661 36.4475,24.7322 36.0136,27.3356 36.8814,27.7695 38.1831,26.4678 36.8814,24.2983" stroke="#7cff79" stroke-width="2" /><polyline fill="none" points="21.6949,25.1661 23.4305,26.4678 21.6949,24.7322 20.8271,28.2034 22.1288,28.2034 22.5627,26.0339" stroke="#ff9400" stroke-width="2" /><polyline fill="none" points="48.1627,41.2203 86.3458,41.2203 110.6441,47.7288 119.322,52.5017 117.5864,58.1424 111.9458,60.7458 98.4949,60.7458 80.7051,63.7831 40.3525,63.7831 31.2407,62.0475 17.7898,54.6712 17.7898,48.5966 21.261,44.2576" stroke="#7f0000" stroke-width="2" /></svg>