<?xml version="1.0" encoding="utf-8" ?>
<svg baseProfile="tiny" height="128" version="1.2" viewBox="0,0,128,128" width="128" xmlns="http://www.w3.org/2000/svg" xmlns:ev="http://www.w3.org/2001/xml-events" xmlns:xlink="http://www.w3.org/1999/xlink"><defs /><polyline fill="none" points="34.7119,40.3525 26.0339,26.9017 12.5831,13.4508 10.8475,26.9017 11.7153,38.1831" stroke="#00007f" stroke-width="2" /><polyline fill="none" points="21.261,39.0508 17.7898,32.1085 17.7898,29.0712 20.8271,29.0712 26.4678,34.7119" stroke="#0028ff" stroke-width="2" /><polyline fill="none" points="36.8814,39.4847 41.2203,34.278 52.0678,31.2407 74.1966,30.8068 78.5356,36.0136" stroke="#00d4ff" stroke-width="2" /><polyline fill="none" points="78.9695,35.5797 83.7424,27.7695 105.0034,8.678 115.4169,32.5424 115.8508,39.0508" stroke="#7cff79" stroke-width="2" /><polyline fill="none" points="91.9864,35.5797 98.4949,28.6373 100.2305,29.5051 101.9661,43.3898" stroke="#ffe500" stroke-width="2" /><polyline fill="none" points="112.8136,40.7864 118.4542,51.2 119.322,63.3492 117.5864,72.461 111.9458,83.7424 105.4373,90.6847 99.3627,94.1559 75.4983,103.2678 69.8576,104.1356 59.4441,102.4 52.0678,98.4949 45.1254,92.8542 22.9966,78.9695 15.1864,72.461 10.8475,65.9525 8.678,58.1424 10.4136,41.6542" stroke="#ff4600" stroke-width="2" /><polyline fill="none" points="68.5559,74.1966 77.2339,73.3288 77.6678,76.3661 72.0271,78.9695 68.122,73.3288" stroke="#7f0000" stroke-width="2" /></svg>