<?xml version="1.0" encoding="utf-8" ?>
<svg baseProfile="tiny" height="128" version="1.2" viewBox="0,0,128,128" width="128" xmlns="http://www.w3.org/2000/svg" xmlns:ev="http://www.w3.org/2001/xml-events" xmlns:xlink="http://www.w3.org/1999/xlink"><defs /><polyline fill="none" points="24.7322,28.2034 24.7322,36.0136 23.4305,40.3525" stroke="#00007f" stroke-width="2" /><polyline fill="none" points="25.1661,30.8068 28.2034,32.5424 36.4475,44.6915" stroke="#0000d1" stroke-width="2" /><polyline fill="none" points="88.0814,29.939 89.3831,35.5797 84.6102,42.522" stroke="#0010ff" stroke-width="2" /><polyline fill="none" points="87.6475,30.3729 87.6475,36.8814 83.7424,42.522" stroke="#0058ff" stroke-width="2" /><polyline fill="none" points="89.3831,30.8068 100.2305,43.3898" stroke="#00a4ff" stroke-width="2" /><polyline fill="none" points="36.0136,42.9559 55.539,40.3525 88.0814,40.3525 98.9288,42.0881" stroke="#05ecf1" stroke-width="2" /><polyline fill="none" points="52.9356,43.3898 26.0339,43.3898 18.2237,46.4271 15.6203,48.5966 10.4136,60.7458 8.678,70.2915 9.5458,86.7797 17.7898,103.7017 29.5051,114.5492 43.3898,119.322 56.4068,118.0203 80.2712,108.4746 85.478,104.5695 97.6271,88.5153 105.0034,73.3288 105.4373,57.2746 100.6644,48.1627 97.6271,45.9932 91.1186,44.6915" stroke="#3fffb7" stroke-width="2" /><polyline fill="none" points="32.5424,56.8407 32.1085,63.7831 35.1458,65.9525 36.8814,62.9153 36.8814,58.1424 32.9763,57.2746" stroke="#7cff79" stroke-width="2" /><polyline fill="none" points="87.2136,60.7458 84.6102,62.4814 84.1763,65.0847 86.3458,66.3864 91.5525,65.0847 91.9864,62.4814 90.6847,59.878 83.7424,59.0102" stroke="#b7ff3f" stroke-width="2" /><polyline fill="none" points="36.8814,103.2678 37.7492,105.8712 42.0881,107.6068 44.6915,106.3051 47.7288,101.5322 49.0305,89.3831 46.4271,89.3831 49.0305,91.5525 50.7661,88.9492 45.9932,87.6475 45.5593,89.8169 49.4644,100.6644 52.0678,102.8339 58.5763,102.8339" stroke="#f1fc05" stroke-width="2" /><polyline fill="none" points="84.6102,57.7085 83.3085,62.4814 85.478,63.3492 89.3831,62.4814" stroke="#ffb900" stroke-width="2" /><polyline fill="none" points="28.2034,11.2814 24.2983,29.0712 18.6576,39.0508 14.7525,42.522" stroke="#ff7300" stroke-width="2" /><polyline fill="none" points="26.4678,8.678 36.8814,32.1085 43.3898,36.8814 52.9356,39.4847" stroke="#ff3000" stroke-width="2" /><polyline fill="none" points="68.5559,40.3525 72.0271,40.7864 74.6305,39.4847 82.8746,32.1085 87.6475,21.6949 88.5153,11.7153 93.722,20.3932 98.4949,35.5797 104.5695,46.861 105.4373,61.1797" stroke="#d10000" stroke-width="2" /><polyline fill="none" points="24.7322,21.6949 24.2983,26.9017 17.7898,44.2576" stroke="#7f0000" stroke-width="2" /></svg>