<?xml version="1.0" encoding="utf-8" ?>
<svg baseProfile="tiny" height="128" version="1.2" viewBox="0,0,128,128" width="128" xmlns="http://www.w3.org/2000/svg" xmlns:ev="http://www.w3.org/2001/xml-events" xmlns:xlink="http://www.w3.org/1999/xlink"><defs /><polyline fill="none" points="32.1085,19.9593 24.7322,16.0542 19.0915,16.4881 16.0542,24.2983 16.4881,31.2407 17.7898,35.1458 23.8644,44.2576 29.939,47.7288 39.0508,48.5966 45.1254,45.1254 49.0305,37.3153 49.4644,27.3356 46.861,23.8644 36.4475,16.922" stroke="#00007f" stroke-width="2" /><polyline fill="none" points="14.3186,22.9966 8.678,8.678 17.3559,11.7153 19.9593,15.6203" stroke="#0000e8" stroke-width="2" /><polyline fill="none" points="43.8237,20.3932 52.5017,13.4508 53.3695,21.261 52.9356,26.9017 44.2576,33.8441" stroke="#0038ff" stroke-width="2" /><polyline fill="none" points="46.4271,43.8237 59.878,39.4847 93.2881,35.1458 108.9085,40.7864 118.8881,49.4644 119.322,53.3695 116.7186,57.2746 106.3051,60.3119 70.7254,58.5763 50.3322,52.0678 44.6915,48.1627 41.2203,43.3898" stroke="#0094ff" stroke-width="2" /><polyline fill="none" points="35.1458,30.3729 33.8441,32.5424 37.3153,36.4475 40.7864,36.8814 41.6542,34.7119 39.4847,30.8068 35.1458,30.8068" stroke="#0cf4ea" stroke-width="2" /><polyline fill="none" points="33.8441,32.5424 29.0712,29.939 24.7322,29.939 21.261,31.2407 21.261,33.8441" stroke="#56ffa0" stroke-width="2" /><polyline fill="none" points="35.1458,34.278 24.7322,32.9763 23.4305,35.5797 26.4678,36.0136" stroke="#a0ff56" stroke-width="2" /><polyline fill="none" points="38.1831,32.5424 44.2576,30.8068 53.8034,34.278" stroke="#eaff0c" stroke-width="2" /><polyline fill="none" points="42.0881,35.1458 51.2,35.5797" stroke="#ffaa00" stroke-width="2" /><polyline fill="none" points="56.8407,53.8034 50.3322,63.7831 44.6915,63.7831 42.0881,62.0475 42.522,60.7458" stroke="#ff5500" stroke-width="2" /><polyline fill="none" points="83.3085,59.878 81.5729,70.7254 64.6508,66.8203 69.8576,65.5186" stroke="#e80000" stroke-width="2" /><polyline fill="none" points="98.9288,60.7458 99.3627,69.4237" stroke="#7f0000" stroke-width="2" /></svg>