<?xml version="1.0" encoding="utf-8" ?>
<svg baseProfile="tiny" height="128" version="1.2" viewBox="0,0,128,128" width="128" xmlns="http://www.w3.org/2000/svg" xmlns:ev="http://www.w3.org/2001/xml-events" xmlns:xlink="http://www.w3.org/1999/xlink"><defs /><polyline fill="none" points="26.4678,49.4644 19.0915,55.9729 13.4508,70.2915 11.2814,86.7797 12.1492,98.9288 15.1864,108.9085 20.3932,115.4169 26.0339,118.4542 32.1085,119.322 38.1831,118.0203 47.2949,113.2475 52.0678,105.8712 55.539,94.1559 56.4068,73.7627 53.8034,55.9729 50.7661,50.7661 40.3525,46.861 32.1085,47.2949" stroke="#00007f" stroke-width="2" /><polyline fill="none" points="42.9559,50.3322 52.0678,38.1831 55.539,30.3729 62.9153,19.5254 72.461,8.678 72.8949,13.0169 70.2915,25.1661 59.878,61.1797" stroke="#0028ff" stroke-width="2" /><polyline fill="none" points="14.7525,66.8203 9.5458,33.8441 8.678,16.0542 15.1864,33.4102 27.7695,61.1797" stroke="#00d4ff" stroke-width="2" /><polyline fill="none" points="22.9966,88.0814 24.2983,81.139 26.4678,78.9695 27.3356,80.7051 26.4678,83.3085 24.7322,83.7424 24.2983,79.4034" stroke="#7cff79" stroke-width="2" /><polyline fill="none" points="37.3153,79.8373 41.2203,73.3288 42.522,74.6305 42.0881,78.9695 39.0508,83.7424" stroke="#ffe500" stroke-width="2" /><polyline fill="none" points="35.1458,98.061 31.2407,106.3051 28.6373,106.739 26.0339,105.4373 24.7322,102.4 23.8644,95.8915" stroke="#ff4600" stroke-width="2" /><polyline fill="none" points="36.0136,95.4576 36.0136,103.7017 37.3153,107.1729 39.9186,108.0407 45.9932,103.2678 50.3322,94.5898" stroke="#7f0000" stroke-width="2" /></svg>