<?xml version="1.0" encoding="utf-8" ?>
<svg baseProfile="tiny" height="128" version="1.2" viewBox="0,0,128,128" width="128" xmlns="http://www.w3.org/2000/svg" xmlns:ev="http://www.w3.org/2001/xml-events" xmlns:xlink="http://www.w3.org/1999/xlink"><defs /><polyline fill="none" points="29.5051,27.7695 31.2407,20.8271 38.1831,8.678 42.0881,15.1864 46.4271,26.4678 54.2373,22.9966 60.7458,23.4305 66.8203,27.7695 71.1593,34.278 76.8,20.8271 84.1763,13.8847 85.9119,16.0542 87.2136,32.1085 92.8542,40.7864 94.1559,45.5593 94.1559,55.1051 89.8169,66.3864 83.3085,73.7627 70.2915,77.6678 55.9729,73.3288 38.6169,65.5186 29.5051,54.6712 25.1661,44.2576 25.6,36.0136 29.939,27.3356" stroke="#00007f" stroke-width="2" /><polyline fill="none" points="42.9559,42.0881 36.8814,43.3898 8.678,44.2576" stroke="#0028ff" stroke-width="2" /><polyline fill="none" points="51.6339,54.2373 44.2576,54.2373 18.2237,59.4441" stroke="#00d4ff" stroke-width="2" /><polyline fill="none" points="59.4441,58.1424 48.1627,67.6881 17.7898,84.1763" stroke="#7cff79" stroke-width="2" /><polyline fill="none" points="46.861,32.5424 46.861,32.5424" stroke="#ffe500" stroke-width="2" /><polyline fill="none" points="81.5729,38.6169 81.5729,38.6169" stroke="#ff4600" stroke-width="2" /><polyline fill="none" points="83.3085,55.539 90.6847,50.7661 119.322,45.9932" stroke="#7f0000" stroke-width="2" /></svg>