<?xml version="1.0" encoding="utf-8" ?>
<svg baseProfile="tiny" height="128" version="1.2" viewBox="0,0,128,128" width="128" xmlns="http://www.w3.org/2000/svg" xmlns:ev="http://www.w3.org/2001/xml-events" xmlns:xlink="http://www.w3.org/1999/xlink"><defs /><polyline fill="none" points="69.6599,37.0068 66.6122,31.3469 58.7755,27.4286 30.4762,25.2517 22.6395,30.4762 14.3673,43.102 10.449,53.9864 8.7075,67.0476 8.7075,86.6395 11.3197,96.2177 14.8027,104.4898 18.7211,108.8435 26.9932,113.6327 37.0068,116.6803 57.4694,119.2925 83.5918,119.2925 97.0884,112.7619 105.7959,103.1837 111.4558,92.2993 113.1973,84.0272 113.1973,75.3197 109.2789,66.6122 97.9592,47.8912 90.5578,43.102 70.0952,35.7007 90.1224,16.9796 87.0748,24.8163 88.8163,40.9252" stroke="#00007f" stroke-width="2" /><polyline fill="none" points="25.6871,27.8639 25.6871,25.6871 18.7211,14.8027 14.8027,11.3197 9.1429,8.7075 8.7075,16.9796 13.932,28.7347 15.2381,35.7007" stroke="#0000fe" stroke-width="2" /><polyline fill="none" points="76.1905,78.3673 89.6871,74.8844" stroke="#0060ff" stroke-width="2" /><polyline fill="none" points="81.415,82.2857 87.9456,81.8503" stroke="#00d4ff" stroke-width="2" /><polyline fill="none" points="80.1088,88.8163 90.5578,90.1224" stroke="#4cffaa" stroke-width="2" /><polyline fill="none" points="27.8639,79.6735 19.1565,78.8027" stroke="#aaff4c" stroke-width="2" /><polyline fill="none" points="26.9932,84.4626 19.5918,84.4626 17.415,85.7687" stroke="#ffe500" stroke-width="2" /><polyline fill="none" points="30.0408,91.8639 14.8027,94.4762" stroke="#ff7a00" stroke-width="2" /><polyline fill="none" points="40.4898,44.4082 38.3129,45.2789 38.7483,52.6803 43.9728,53.1156 44.8435,51.3741 43.9728,47.4558 40.4898,46.1497 39.1837,48.3265 41.7959,50.9388 47.4558,51.3741 47.0204,49.1973 41.7959,48.7619 43.9728,50.068" stroke="#fe1200" stroke-width="2" /><polyline fill="none" points="56.5986,48.7619 55.7279,52.6803 63.5646,53.551 71.8367,50.9388 71.4014,46.1497 61.8231,39.619 50.9388,35.2653 67.483,46.1497" stroke="#7f0000" stroke-width="2" /></svg>