<?xml version="1.0" encoding="utf-8" ?>
<svg baseProfile="tiny" height="128" version="1.2" viewBox="0,0,128,128" width="128" xmlns="http://www.w3.org/2000/svg" xmlns:ev="http://www.w3.org/2001/xml-events" xmlns:xlink="http://www.w3.org/1999/xlink"><defs /><polyline fill="none" points="46.4271,36.8814 47.2949,12.5831 51.6339,24.2983 57.7085,34.278" stroke="#00007f" stroke-width="2" /><polyline fill="none" points="68.9898,35.1458 78.1017,8.678 84.1763,22.9966 89.8169,40.3525" stroke="#0000cc" stroke-width="2" /><polyline fill="none" points="44.2576,36.8814 34.7119,49.8983 34.7119,55.1051 37.7492,58.5763 44.6915,62.4814 52.5017,65.0847 62.4814,66.3864 83.3085,65.0847 98.061,60.3119 99.3627,57.2746 98.9288,45.1254 94.5898,41.2203 86.7797,39.9186" stroke="#0008ff" stroke-width="2" /><polyline fill="none" points="43.8237,39.0508 43.8237,39.0508" stroke="#004cff" stroke-width="2" /><polyline fill="none" points="43.8237,39.0508 43.8237,39.0508" stroke="#0090ff" stroke-width="2" /><polyline fill="none" points="41.2203,37.3153 51.2,34.7119 68.9898,34.7119" stroke="#00d4ff" stroke-width="2" /><polyline fill="none" points="87.6475,39.0508 66.8203,35.1458" stroke="#29ffcd" stroke-width="2" /><polyline fill="none" points="49.0305,32.9763 49.8983,26.4678 52.9356,32.1085 49.0305,31.2407" stroke="#5fff96" stroke-width="2" /><polyline fill="none" points="78.1017,31.2407 82.4407,23.8644 85.478,32.9763 76.8,29.0712" stroke="#96ff5f" stroke-width="2" /><polyline fill="none" points="50.3322,49.4644 42.522,45.9932 17.3559,39.9186" stroke="#cdff29" stroke-width="2" /><polyline fill="none" points="42.0881,51.2 35.1458,52.5017 15.1864,52.5017" stroke="#ffe500" stroke-width="2" /><polyline fill="none" points="47.2949,57.2746 18.6576,56.4068 8.678,58.5763" stroke="#ffa600" stroke-width="2" /><polyline fill="none" points="91.5525,47.2949 111.9458,45.9932" stroke="#ff6700" stroke-width="2" /><polyline fill="none" points="88.0814,52.5017 119.322,55.539" stroke="#ff2800" stroke-width="2" /><polyline fill="none" points="86.3458,60.7458 92.4203,61.6136 110.6441,68.9898" stroke="#cc0000" stroke-width="2" /><polyline fill="none" points="54.6712,45.1254 59.0102,41.2203" stroke="#7f0000" stroke-width="2" /></svg>