<?xml version="1.0" encoding="utf-8" ?>
<svg baseProfile="tiny" height="128" version="1.2" viewBox="0,0,128,128" width="128" xmlns="http://www.w3.org/2000/svg" xmlns:ev="http://www.w3.org/2001/xml-events" xmlns:xlink="http://www.w3.org/1999/xlink"><defs /><polyline fill="none" points="52.6803,74.0136 60.0816,98.3946 69.2245,114.9388 71.4014,115.8095 95.3469,115.8095 101.0068,113.1973 104.0544,102.3129 104.4898,79.2381 101.0068,71.8367 93.1701,64.8707 84.898,61.8231 74.449,66.6122 65.7415,68.3537 58.7755,71.4014 47.8912,80.1088" stroke="#00007f" stroke-width="2" /><polyline fill="none" points="88.381,63.5646 90.1224,57.4694 95.7823,47.0204 103.1837,34.3946 107.9728,28.7347 119.2925,8.7075 115.8095,51.3741 111.0204,80.9796 106.2313,96.2177" stroke="#0000e8" stroke-width="2" /><polyline fill="none" points="52.6803,63.5646 26.9932,27.8639 9.1429,13.4966 8.7075,21.3333 11.3197,37.0068 20.898,57.9048 34.8299,80.5442 54.4218,101.8776 62.6939,106.2313" stroke="#0038ff" stroke-width="2" /><polyline fill="none" points="47.8912,54.8571 50.9388,56.5986 60.9524,70.966" stroke="#0094ff" stroke-width="2" /><polyline fill="none" points="69.6599,86.6395 69.6599,86.6395" stroke="#0cf4ea" stroke-width="2" /><polyline fill="none" points="66.1769,86.2041 66.1769,86.2041" stroke="#56ffa0" stroke-width="2" /><polyline fill="none" points="66.1769,86.2041 70.0952,90.5578 72.7075,90.1224" stroke="#a0ff56" stroke-width="2" /><polyline fill="none" points="87.0748,80.1088 89.2517,83.5918" stroke="#eaff0c" stroke-width="2" /><polyline fill="none" points="75.7551,109.7143 81.415,110.1497" stroke="#ffaa00" stroke-width="2" /><polyline fill="none" points="80.1088,110.1497 80.1088,110.1497" stroke="#ff5500" stroke-width="2" /><polyline fill="none" points="80.1088,97.0884 83.5918,107.102" stroke="#e80000" stroke-width="2" /><polyline fill="none" points="84.898,106.2313 90.1224,104.0544 100.5714,104.0544" stroke="#7f0000" stroke-width="2" /></svg>