<?xml version="1.0" encoding="utf-8" ?>
<svg baseProfile="tiny" height="128" version="1.2" viewBox="0,0,128,128" width="128" xmlns="http://www.w3.org/2000/svg" xmlns:ev="http://www.w3.org/2001/xml-events" xmlns:xlink="http://www.w3.org/1999/xlink"><defs /><polyline fill="none" points="36.8814,29.5051 44.2576,12.5831 52.9356,26.0339" stroke="#00007f" stroke-width="2" /><polyline fill="none" points="52.0678,26.0339 64.6508,8.678 72.0271,25.6" stroke="#0010ff" stroke-width="2" /><polyline fill="none" points="34.278,26.4678 29.0712,34.7119 28.6373,38.6169 31.6746,45.9932 35.1458,50.3322 49.0305,56.8407 68.9898,57.7085 81.5729,54.6712 85.0441,48.1627 85.478,38.1831 84.1763,34.7119 79.4034,29.939 72.8949,25.6 66.8203,23.8644" stroke="#00a4ff" stroke-width="2" /><polyline fill="none" points="42.0881,42.522 30.8068,40.3525 8.678,41.2203" stroke="#3fffb7" stroke-width="2" /><polyline fill="none" points="45.9932,46.861 9.5458,62.0475" stroke="#b7ff3f" stroke-width="2" /><polyline fill="none" points="67.6881,42.9559 119.322,41.2203" stroke="#ffb900" stroke-width="2" /><polyline fill="none" points="71.1593,47.2949 117.5864,57.2746" stroke="#ff3000" stroke-width="2" /><polyline fill="none" points="46.4271,30.3729 46.4271,30.3729" stroke="#7f0000" stroke-width="2" /></svg>