<?xml version="1.0" encoding="utf-8" ?>
<svg baseProfile="tiny" height="128" version="1.2" viewBox="0,0,128,128" width="128" xmlns="http://www.w3.org/2000/svg" xmlns:ev="http://www.w3.org/2001/xml-events" xmlns:xlink="http://www.w3.org/1999/xlink"><defs /><polyline fill="none" points="65.5186,27.7695 55.9729,27.7695 47.2949,32.1085 36.0136,42.9559 28.2034,57.7085 24.7322,72.8949 24.2983,84.1763 25.6,88.5153 29.939,91.5525 43.3898,95.8915 60.7458,97.1932 69.8576,95.8915 78.9695,91.9864 86.3458,87.6475 93.2881,80.7051 98.4949,72.8949 104.5695,57.2746 105.4373,45.1254 104.1356,38.6169 100.2305,32.1085 87.2136,26.9017 79.4034,26.0339 54.6712,25.6" stroke="#00007f" stroke-width="2" /><polyline fill="none" points="29.5051,53.8034 30.3729,43.3898 36.0136,27.7695 40.7864,10.4136 43.3898,8.678 46.4271,9.5458 60.7458,26.0339" stroke="#0000ff" stroke-width="2" /><polyline fill="none" points="91.1186,35.1458 95.8915,22.1288 105.4373,11.2814 106.739,14.3186 106.739,37.3153 104.5695,43.8237" stroke="#0080ff" stroke-width="2" /><polyline fill="none" points="75.4983,74.1966 83.7424,74.1966 90.6847,72.8949 119.322,62.9153" stroke="#15ffe1" stroke-width="2" /><polyline fill="none" points="78.5356,69.8576 90.2508,69.4237 98.9288,67.2542" stroke="#7cff79" stroke-width="2" /><polyline fill="none" points="79.8373,65.5186 98.061,63.3492 110.6441,57.2746" stroke="#e4ff12" stroke-width="2" /><polyline fill="none" points="45.1254,73.7627 44.2576,71.1593 42.522,69.8576 19.5254,65.0847" stroke="#ff9400" stroke-width="2" /><polyline fill="none" points="29.939,82.8746 23.8644,82.8746 15.1864,80.7051 8.678,74.6305" stroke="#ff1d00" stroke-width="2" /><polyline fill="none" points="40.3525,86.7797 40.3525,86.7797" stroke="#7f0000" stroke-width="2" /></svg>