<?xml version="1.0" encoding="utf-8" ?>
<svg baseProfile="tiny" height="128" version="1.2" viewBox="0,0,128,128" width="128" xmlns="http://www.w3.org/2000/svg" xmlns:ev="http://www.w3.org/2001/xml-events" xmlns:xlink="http://www.w3.org/1999/xlink"><defs /><polyline fill="none" points="66.1769,53.551 77.4966,32.6531 85.7687,21.7687 90.1224,11.3197 94.0408,8.7075 95.7823,17.415 101.4422,28.7347 107.9728,60.0816" stroke="#00007f" stroke-width="2" /><polyline fill="none" points="43.102,50.068 33.0884,37.8776 20.898,26.9932 19.1565,26.5578 17.8503,29.6054 16.5442,43.102 10.449,62.2585 8.7075,72.2721 10.8844,82.7211 25.2517,97.0884 52.2449,101.8776 84.0272,100.1361 95.7823,95.3469 112.7619,78.3673 119.2925,76.1905 119.2925,70.5306 117.551,69.6599 117.551,70.5306" stroke="#0028ff" stroke-width="2" /><polyline fill="none" points="64.4354,55.2925 55.7279,57.034 52.2449,60.9524 52.2449,59.6463" stroke="#00d4ff" stroke-width="2" /><polyline fill="none" points="42.6667,53.551 47.4558,58.7755" stroke="#7cff79" stroke-width="2" /><polyline fill="none" points="60.517,73.1429 59.6463,71.8367" stroke="#ffe500" stroke-width="2" /><polyline fill="none" points="40.4898,68.7891 40.9252,70.966" stroke="#ff4600" stroke-width="2" /><polyline fill="none" points="49.6327,86.2041 49.1973,89.6871 47.4558,90.5578 49.1973,89.2517 52.2449,91.8639 52.2449,90.1224" stroke="#7f0000" stroke-width="2" /></svg>