<?xml version="1.0" encoding="utf-8" ?>
<svg baseProfile="tiny" height="128" version="1.2" viewBox="0,0,128,128" width="128" xmlns="http://www.w3.org/2000/svg" xmlns:ev="http://www.w3.org/2001/xml-events" xmlns:xlink="http://www.w3.org/1999/xlink"><defs /><polyline fill="none" points="42.9589,34.6301 39.0137,34.6301 33.3151,38.5753 26.7397,44.7123 21.4795,53.4795 18.8493,63.1233 18.8493,73.2055 21.9178,84.1644 31.1233,97.3151 47.7808,109.589 64.0,115.2877 76.7123,117.0411 88.5479,116.6027 98.1918,111.7808 103.4521,106.5205 113.0959,89.4247 114.411,81.5342 114.8493,60.9315 110.4658,48.6575 100.8219,38.137 94.2466,33.7534 83.726,30.2466 68.8219,27.6164 49.5342,27.1781 39.8904,31.1233 33.7534,36.8219" stroke="#00007f" stroke-width="2" /><polyline fill="none" points="16.2192,53.9178 14.4658,52.1644 8.7671,22.7945 8.7671,8.7671 14.0274,9.2055 47.3425,25.863" stroke="#0028ff" stroke-width="2" /><polyline fill="none" points="87.2329,30.6849 89.4247,28.0548 95.5616,24.1096 118.7945,14.0274 119.2329,18.411 111.3425,50.8493" stroke="#00d4ff" stroke-width="2" /><polyline fill="none" points="42.5205,55.6712 39.8904,58.3014 40.7671,60.4932 46.4658,64.4384 49.9726,64.4384 51.726,62.6849 51.726,57.863 49.5342,54.3562 41.6438,53.4795 39.8904,53.9178 39.0137,56.9863" stroke="#7cff79" stroke-width="2" /><polyline fill="none" points="74.9589,59.6164 79.7808,66.6301 87.2329,67.5068 89.863,64.4384 90.3014,61.3699 89.863,54.7945 88.1096,52.6027 80.6575,51.726 72.3288,58.3014" stroke="#ffe500" stroke-width="2" /><polyline fill="none" points="62.2466,74.5205 76.7123,74.0822 77.589,75.8356 71.4521,86.3562 67.0685,79.7808 62.2466,75.8356" stroke="#ff4600" stroke-width="2" /><polyline fill="none" points="71.4521,86.7945 58.7397,98.6301" stroke="#7f0000" stroke-width="2" /></svg>