<?xml version="1.0" encoding="utf-8" ?>
<svg baseProfile="tiny" height="128" version="1.2" viewBox="0,0,128,128" width="128" xmlns="http://www.w3.org/2000/svg" xmlns:ev="http://www.w3.org/2001/xml-events" xmlns:xlink="http://www.w3.org/1999/xlink"><defs /><polyline fill="none" points="36.8814,25.6 37.3153,23.4305 35.1458,19.5254 29.0712,16.922 21.6949,18.2237 13.0169,24.7322 9.9797,32.1085 9.5458,38.6169 13.4508,44.2576 20.3932,49.0305 28.2034,49.0305 34.278,43.3898 36.8814,32.1085 32.1085,23.8644" stroke="#00007f" stroke-width="2" /><polyline fill="none" points="31.6746,18.2237 31.6746,15.1864 35.1458,13.0169 39.4847,13.0169 42.0881,16.4881 41.6542,21.261 36.0136,27.7695" stroke="#0000ba" stroke-width="2" /><polyline fill="none" points="23.8644,15.1864 19.9593,10.8475 15.6203,12.1492 12.1492,16.4881 10.8475,21.261 10.4136,22.9966 13.4508,24.2983" stroke="#0000f5" stroke-width="2" /><polyline fill="none" points="19.9593,23.8644 19.5254,24.7322" stroke="#0020ff" stroke-width="2" /><polyline fill="none" points="26.9017,24.2983 26.0339,25.1661" stroke="#0054ff" stroke-width="2" /><polyline fill="none" points="21.261,31.2407 22.1288,31.2407" stroke="#008cff" stroke-width="2" /><polyline fill="none" points="22.1288,32.9763 21.261,35.5797 16.922,36.8814" stroke="#00c0ff" stroke-width="2" /><polyline fill="none" points="22.1288,33.4102 23.4305,37.3153 26.9017,37.3153" stroke="#0ff8e7" stroke-width="2" /><polyline fill="none" points="17.3559,29.5051 13.8847,23.8644" stroke="#39ffbd" stroke-width="2" /><polyline fill="none" points="13.8847,31.2407 9.1119,29.5051" stroke="#66ff90" stroke-width="2" /><polyline fill="none" points="13.4508,33.4102 8.678,36.4475" stroke="#90ff66" stroke-width="2" /><polyline fill="none" points="29.0712,29.939 37.7492,28.6373" stroke="#bdff39" stroke-width="2" /><polyline fill="none" points="29.0712,34.7119 33.8441,36.4475" stroke="#e7ff0f" stroke-width="2" /><polyline fill="none" points="26.0339,39.4847 30.8068,44.2576" stroke="#ffd300" stroke-width="2" /><polyline fill="none" points="37.3153,30.8068 40.3525,28.6373 49.8983,27.3356 62.4814,29.5051 75.0644,37.7492 88.9492,50.7661 45.1254,57.2746 36.4475,56.4068 30.8068,53.3695" stroke="#ffa300" stroke-width="2" /><polyline fill="none" points="39.4847,55.1051 38.1831,74.1966" stroke="#ff6f00" stroke-width="2" /><polyline fill="none" points="52.5017,52.5017 49.8983,68.5559" stroke="#ff3f00" stroke-width="2" /><polyline fill="none" points="60.3119,51.6339 58.5763,62.0475" stroke="#f50b00" stroke-width="2" /><polyline fill="none" points="72.0271,51.2 72.461,63.7831" stroke="#ba0000" stroke-width="2" /><polyline fill="none" points="76.8,33.8441 90.2508,22.1288 111.9458,10.8475 119.322,8.678" stroke="#7f0000" stroke-width="2" /></svg>