<?xml version="1.0" encoding="utf-8" ?>
<svg baseProfile="tiny" height="128" version="1.2" viewBox="0,0,128,128" width="128" xmlns="http://www.w3.org/2000/svg" xmlns:ev="http://www.w3.org/2001/xml-events" xmlns:xlink="http://www.w3.org/1999/xlink"><defs /><polyline fill="none" points="80.7051,65.9525 76.8,64.6508 74.6305,59.4441 75.4983,48.1627 78.5356,43.3898 83.3085,39.0508 89.3831,36.0136 96.3254,34.278 108.0407,34.278 111.5119,36.8814 114.1153,41.6542 114.5492,48.1627 114.5492,53.3695 112.3797,58.5763 108.4746,62.9153 95.8915,68.5559 88.9492,69.8576 77.6678,69.8576 71.1593,65.9525 69.4237,61.1797" stroke="#00007f" stroke-width="2" /><polyline fill="none" points="76.3661,51.6339 75.0644,38.6169 75.9322,19.5254 85.0441,32.9763" stroke="#004cff" stroke-width="2" /><polyline fill="none" points="97.1932,29.5051 99.7966,19.0915 104.5695,8.678 111.078,32.1085" stroke="#29ffcd" stroke-width="2" /><polyline fill="none" points="71.5932,52.5017 65.0847,51.2 50.7661,51.2 27.3356,59.878 16.922,66.8203 9.9797,74.1966 8.678,76.3661 8.678,80.2712 12.1492,82.0068 34.278,82.8746 43.3898,81.139 62.0475,73.3288 88.0814,57.2746" stroke="#cdff29" stroke-width="2" /><polyline fill="none" points="13.4508,80.7051 15.6203,89.8169 29.939,119.322" stroke="#ff6700" stroke-width="2" /><polyline fill="none" points="41.6542,83.3085 50.7661,118.0203" stroke="#7f0000" stroke-width="2" /></svg>