<?xml version="1.0" encoding="utf-8" ?>
<svg baseProfile="tiny" height="128" version="1.2" viewBox="0,0,128,128" width="128" xmlns="http://www.w3.org/2000/svg" xmlns:ev="http://www.w3.org/2001/xml-events" xmlns:xlink="http://www.w3.org/1999/xlink"><defs /><polyline fill="none" points="49.8983,24.7322 26.4678,32.5424 11.2814,42.522 8.678,45.9932 8.678,55.9729 14.3186,62.4814 22.9966,67.6881 33.8441,68.9898 39.4847,67.6881 47.2949,63.3492 52.0678,54.6712 53.8034,41.6542 52.0678,29.5051 49.4644,22.1288 45.9932,22.5627" stroke="#00007f" stroke-width="2" /><polyline fill="none" points="51.6339,32.5424 65.5186,12.1492 65.9525,13.4508 57.7085,38.6169 55.9729,50.3322" stroke="#0010ff" stroke-width="2" /><polyline fill="none" points="39.0508,28.6373 35.1458,19.5254 31.6746,14.7525 28.6373,10.8475 23.8644,8.678 19.9593,14.3186 16.0542,29.5051 14.3186,42.9559" stroke="#00a4ff" stroke-width="2" /><polyline fill="none" points="37.3153,45.9932 33.4102,51.6339 27.7695,55.9729 21.261,58.1424 17.3559,56.8407" stroke="#3fffb7" stroke-width="2" /><polyline fill="none" points="33.8441,48.5966 33.8441,56.8407 36.0136,62.0475 39.0508,62.0475 44.6915,58.5763" stroke="#b7ff3f" stroke-width="2" /><polyline fill="none" points="33.4102,42.0881 33.8441,41.6542" stroke="#ffb900" stroke-width="2" /><polyline fill="none" points="50.3322,36.4475 49.8983,36.8814" stroke="#ff3000" stroke-width="2" /><polyline fill="none" points="30.8068,72.8949 13.8847,85.9119 11.2814,91.9864 10.4136,100.2305 12.1492,107.1729 17.3559,113.6814 35.1458,119.322 45.1254,118.0203" stroke="#7f0000" stroke-width="2" /></svg>