<?xml version="1.0" encoding="utf-8" ?>
<svg baseProfile="tiny" height="128" version="1.2" viewBox="0,0,128,128" width="128" xmlns="http://www.w3.org/2000/svg" xmlns:ev="http://www.w3.org/2001/xml-events" xmlns:xlink="http://www.w3.org/1999/xlink"><defs /><polyline fill="none" points="15.6735,23.5102 12.6259,24.381 9.1429,28.7347 8.7075,36.5714 16.5442,43.102 26.1224,44.4082 34.8299,39.619 38.7483,34.3946 38.7483,26.9932 35.7007,22.2041" stroke="#00007f" stroke-width="2" /><polyline fill="none" points="12.6259,23.0748 13.4966,13.4966 22.6395,19.1565" stroke="#0000d5" stroke-width="2" /><polyline fill="none" points="28.2993,18.7211 31.3469,13.0612 35.7007,8.7075 41.3605,20.898" stroke="#001cff" stroke-width="2" /><polyline fill="none" points="20.4626,26.9932 20.4626,26.9932" stroke="#006cff" stroke-width="2" /><polyline fill="none" points="28.7347,26.1224 28.7347,26.1224" stroke="#00b8ff" stroke-width="2" /><polyline fill="none" points="18.7211,25.6871 18.7211,25.6871" stroke="#1cffda" stroke-width="2" /><polyline fill="none" points="29.1701,24.381 30.4762,25.6871" stroke="#5cff9a" stroke-width="2" /><polyline fill="none" points="23.5102,23.5102 21.3333,27.8639" stroke="#9aff5c" stroke-width="2" /><polyline fill="none" points="25.2517,30.4762 21.3333,33.5238 23.5102,34.3946 29.1701,33.5238 27.8639,30.9116" stroke="#daff1c" stroke-width="2" /><polyline fill="none" points="24.8163,33.9592 25.6871,37.0068 23.9456,38.3129 18.7211,37.8776 16.9796,36.1361" stroke="#ffcb00" stroke-width="2" /><polyline fill="none" points="26.9932,36.1361 30.9116,37.0068 36.1361,33.5238" stroke="#ff8500" stroke-width="2" /><polyline fill="none" points="39.619,37.4422 44.8435,32.6531 59.2109,26.5578 71.8367,26.1224 79.6735,28.7347 80.1088,30.4762" stroke="#ff3b00" stroke-width="2" /><polyline fill="none" points="30.0408,43.5374 44.8435,49.6327 70.0952,50.5034 74.8844,47.0204 80.1088,38.7483 80.1088,27.8639" stroke="#d50000" stroke-width="2" /><polyline fill="none" points="78.8027,26.9932 84.0272,18.7211 98.8299,10.0136 104.9252,9.1429 114.5034,10.8844 119.2925,9.1429" stroke="#7f0000" stroke-width="2" /></svg>