<?xml version="1.0" encoding="utf-8" ?>
<svg baseProfile="tiny" height="128" version="1.2" viewBox="0,0,128,128" width="128" xmlns="http://www.w3.org/2000/svg" xmlns:ev="http://www.w3.org/2001/xml-events" xmlns:xlink="http://www.w3.org/1999/xlink"><defs /><polyline fill="none" points="94.9116,37.0068 91.4286,33.5238 78.3673,30.0408 66.1769,27.4286 50.9388,27.4286 27.8639,33.0884 16.9796,40.9252 11.3197,50.068 9.5782,60.517 9.5782,87.5102 14.3673,97.0884 26.9932,110.585 45.2789,119.2925 67.9184,119.2925 74.449,116.6803 79.6735,103.1837 86.6395,90.5578 92.7347,72.7075 92.7347,61.8231 91.8639,51.8095 88.381,41.7959 88.381,32.6531" stroke="#00007f" stroke-width="2" /><polyline fill="none" points="77.4966,23.5102 95.3469,20.4626 101.4422,17.8503 104.4898,20.898 104.4898,35.7007 103.1837,40.0544 94.0408,56.1633" stroke="#0000d5" stroke-width="2" /><polyline fill="none" points="23.9456,30.0408 17.8503,18.7211 15.6735,11.3197 13.0612,8.7075 13.0612,21.3333 8.7075,43.5374 8.7075,51.8095" stroke="#001cff" stroke-width="2" /><polyline fill="none" points="28.2993,55.2925 27.4286,61.8231 30.4762,61.8231 31.7823,57.9048 31.7823,54.8571 28.2993,53.551 27.8639,60.0816 29.1701,55.2925" stroke="#006cff" stroke-width="2" /><polyline fill="none" points="71.4014,54.4218 70.0952,64.8707 70.0952,55.2925" stroke="#00b8ff" stroke-width="2" /><polyline fill="none" points="67.483,81.8503 75.7551,79.6735 84.0272,75.3197" stroke="#1cffda" stroke-width="2" /><polyline fill="none" points="66.1769,82.2857 73.1429,83.5918 86.6395,90.5578" stroke="#5cff9a" stroke-width="2" /><polyline fill="none" points="69.2245,83.5918 74.0136,88.8163 78.8027,106.6667" stroke="#9aff5c" stroke-width="2" /><polyline fill="none" points="73.1429,54.4218 74.449,57.9048 73.5782,61.3878 70.0952,62.6939 67.9184,60.0816" stroke="#daff1c" stroke-width="2" /><polyline fill="none" points="35.7007,82.7211 10.449,81.8503" stroke="#ffcb00" stroke-width="2" /><polyline fill="none" points="35.7007,82.2857 15.6735,94.4762" stroke="#ff8500" stroke-width="2" /><polyline fill="none" points="29.6054,90.1224 29.6054,104.9252 27.8639,113.6327" stroke="#ff3b00" stroke-width="2" /><polyline fill="none" points="42.6667,97.5238 41.3605,101.4422 45.2789,104.0544 50.068,100.1361 52.6803,90.5578" stroke="#d50000" stroke-width="2" /><polyline fill="none" points="49.6327,117.9864 48.7619,114.9388" stroke="#7f0000" stroke-width="2" /></svg>