<?xml version="1.0" encoding="utf-8" ?>
<svg baseProfile="tiny" height="128" version="1.2" viewBox="0,0,128,128" width="128" xmlns="http://www.w3.org/2000/svg" xmlns:ev="http://www.w3.org/2001/xml-events" xmlns:xlink="http://www.w3.org/1999/xlink"><defs /><polyline fill="none" points="49.0305,31.2407 46.4271,30.8068 39.0508,32.9763 26.9017,38.6169 16.922,45.1254 11.7153,51.6339 8.678,62.0475 9.5458,71.1593 15.1864,78.1017 24.2983,84.6102 41.2203,92.4203 47.7288,93.722 88.0814,93.722 106.739,86.3458 112.3797,80.2712 119.322,66.8203 119.322,58.5763 115.8508,51.2 110.2102,45.1254 103.2678,39.9186 87.2136,31.6746 77.6678,29.0712 49.4644,29.0712" stroke="#00007f" stroke-width="2" /><polyline fill="none" points="31.2407,30.3729 26.9017,19.5254 26.0339,8.678 30.8068,9.9797 42.522,17.3559" stroke="#0010ff" stroke-width="2" /><polyline fill="none" points="85.478,30.8068 100.6644,22.1288 107.1729,19.5254 112.3797,19.5254 112.3797,29.5051 108.0407,36.8814" stroke="#00a4ff" stroke-width="2" /><polyline fill="none" points="48.1627,46.4271 55.539,46.4271" stroke="#3fffb7" stroke-width="2" /><polyline fill="none" points="74.1966,47.2949 86.7797,47.2949" stroke="#b7ff3f" stroke-width="2" /><polyline fill="none" points="44.6915,66.8203 34.278,64.6508 25.1661,65.5186" stroke="#ffb900" stroke-width="2" /><polyline fill="none" points="45.1254,65.9525 39.0508,59.878 35.1458,52.9356" stroke="#ff3000" stroke-width="2" /><polyline fill="none" points="43.3898,66.8203 33.4102,75.4983" stroke="#7f0000" stroke-width="2" /></svg>