<?xml version="1.0" encoding="utf-8" ?>
<svg baseProfile="tiny" height="128" version="1.2" viewBox="0,0,128,128" width="128" xmlns="http://www.w3.org/2000/svg" xmlns:ev="http://www.w3.org/2001/xml-events" xmlns:xlink="http://www.w3.org/1999/xlink"><defs /><polyline fill="none" points="22.5627,35.1458 24.2983,36.8814 29.0712,36.0136 35.5797,29.5051 38.1831,24.2983 38.1831,13.0169 47.2949,37.3153 52.0678,32.5424 64.6508,28.6373 75.0644,30.3729 82.0068,35.5797 87.2136,13.8847 89.3831,8.678 94.1559,11.7153 99.7966,23.4305 110.6441,35.5797" stroke="#00007f" stroke-width="2" /><polyline fill="none" points="24.2983,36.4475 20.8271,39.0508 20.8271,45.5593 23.4305,51.6339 32.5424,62.9153 44.6915,68.9898 59.878,70.7254 73.3288,70.2915 82.8746,68.122 95.0237,60.7458 102.4,53.8034 106.3051,45.9932 110.2102,33.4102 110.2102,30.3729 108.0407,29.0712" stroke="#0000ff" stroke-width="2" /><polyline fill="none" points="82.4407,49.4644 86.3458,49.8983 119.322,42.9559" stroke="#0080ff" stroke-width="2" /><polyline fill="none" points="86.3458,57.2746 94.5898,60.3119 108.4746,60.7458" stroke="#15ffe1" stroke-width="2" /><polyline fill="none" points="81.139,64.2169 89.3831,75.4983" stroke="#7cff79" stroke-width="2" /><polyline fill="none" points="40.3525,42.9559 30.3729,46.4271 8.678,59.4441" stroke="#e4ff12" stroke-width="2" /><polyline fill="none" points="37.7492,54.2373 23.4305,80.2712" stroke="#ff9400" stroke-width="2" /><polyline fill="none" points="46.861,64.2169 36.4475,76.3661 32.9763,83.7424" stroke="#ff1d00" stroke-width="2" /><polyline fill="none" points="63.3492,55.9729 60.3119,57.2746 55.9729,62.4814 52.5017,63.3492 56.8407,63.3492 59.878,61.1797 61.6136,56.4068" stroke="#7f0000" stroke-width="2" /></svg>