<?xml version="1.0" encoding="utf-8" ?>
<svg baseProfile="tiny" height="128" version="1.2" viewBox="0,0,128,128" width="128" xmlns="http://www.w3.org/2000/svg" xmlns:ev="http://www.w3.org/2001/xml-events" xmlns:xlink="http://www.w3.org/1999/xlink"><defs /><polyline fill="none" points="29.0712,36.0136 19.5254,39.4847 14.3186,42.9559 12.1492,47.2949 11.7153,59.0102 14.3186,66.8203 23.8644,82.8746 33.8441,92.8542 44.6915,99.7966 53.8034,103.2678 77.2339,101.9661 98.9288,92.4203 105.8712,87.2136 111.9458,80.7051 115.4169,73.3288 116.2847,66.3864 116.2847,60.7458 112.8136,51.2 100.6644,34.278 89.3831,26.9017 75.0644,24.7322 55.539,24.7322 26.4678,28.2034 16.4881,33.4102 16.4881,42.0881 20.3932,45.5593 22.9966,45.9932" stroke="#00007f" stroke-width="2" /><polyline fill="none" points="8.678,50.3322 10.8475,39.0508 12.1492,8.678 14.3186,9.1119 28.6373,23.4305 33.8441,26.0339" stroke="#0028ff" stroke-width="2" /><polyline fill="none" points="85.478,22.1288 91.5525,22.1288 106.739,18.6576 112.8136,16.0542 118.4542,10.8475 116.2847,36.0136 116.7186,37.7492 119.322,39.0508" stroke="#00d4ff" stroke-width="2" /><polyline fill="none" points="29.939,45.5593 28.2034,45.5593 26.4678,47.7288 26.9017,51.6339 30.3729,54.2373 36.4475,55.1051 51.6339,54.2373 54.6712,51.2 52.5017,47.2949 45.9932,45.1254 31.6746,43.8237 27.3356,43.8237 28.2034,45.5593 31.6746,46.861" stroke="#7cff79" stroke-width="2" /><polyline fill="none" points="78.1017,45.1254 70.2915,48.1627 70.2915,51.2 72.461,53.3695 76.3661,55.9729 91.5525,55.9729 97.6271,52.9356 97.6271,47.7288 95.4576,45.9932 88.9492,43.8237 76.8,42.9559 72.8949,43.3898 72.0271,45.5593" stroke="#ffe500" stroke-width="2" /><polyline fill="none" points="49.4644,67.6881 81.139,66.3864" stroke="#ff4600" stroke-width="2" /><polyline fill="none" points="50.3322,68.9898 80.7051,80.7051 84.6102,74.1966 85.0441,67.2542 88.0814,66.3864" stroke="#7f0000" stroke-width="2" /></svg>