<?xml version="1.0" encoding="utf-8" ?>
<svg baseProfile="tiny" height="128" version="1.2" viewBox="0,0,128,128" width="128" xmlns="http://www.w3.org/2000/svg" xmlns:ev="http://www.w3.org/2001/xml-events" xmlns:xlink="http://www.w3.org/1999/xlink"><defs /><polyline fill="none" points="22.9966,21.261 20.3932,21.6949 16.922,25.1661 11.2814,36.4475 8.678,45.9932 8.678,55.1051 9.9797,57.7085 14.7525,63.3492 23.8644,67.2542 32.5424,69.4237 44.6915,70.2915 53.8034,66.3864 66.8203,56.4068 71.5932,48.5966 72.0271,37.3153 66.3864,32.1085 38.6169,21.6949 19.0915,20.3932 14.3186,22.5627" stroke="#00007f" stroke-width="2" /><polyline fill="none" points="14.3186,28.2034 13.8847,14.3186 15.1864,9.9797 19.5254,10.4136 40.7864,20.8271" stroke="#0000fe" stroke-width="2" /><polyline fill="none" points="49.8983,24.7322 66.8203,22.9966 76.3661,19.5254 76.8,26.0339 70.7254,38.6169 68.9898,39.4847" stroke="#0060ff" stroke-width="2" /><polyline fill="none" points="29.939,34.278 30.3729,37.7492 32.1085,33.8441" stroke="#00d4ff" stroke-width="2" /><polyline fill="none" points="39.4847,36.0136 40.7864,39.4847 41.6542,36.4475 41.2203,35.5797" stroke="#4cffaa" stroke-width="2" /><polyline fill="none" points="35.1458,50.3322 32.9763,45.9932 38.1831,48.1627 29.939,56.8407" stroke="#aaff4c" stroke-width="2" /><polyline fill="none" points="35.1458,49.8983 38.1831,61.1797" stroke="#ffe500" stroke-width="2" /><polyline fill="none" points="86.3458,18.2237 86.3458,31.6746 85.9119,9.1119 87.2136,8.678 88.9492,13.8847 89.8169,25.1661 94.5898,14.7525 99.7966,9.1119 99.7966,22.1288" stroke="#ff7a00" stroke-width="2" /><polyline fill="none" points="109.7763,11.2814 103.7017,20.3932 103.7017,25.1661 118.4542,22.5627 119.322,20.8271" stroke="#fe1200" stroke-width="2" /><polyline fill="none" points="105.8712,17.7898 114.1153,13.8847 115.8508,11.7153 115.4169,9.5458 109.3424,13.0169 110.6441,13.8847" stroke="#7f0000" stroke-width="2" /></svg>