<?xml version="1.0" encoding="utf-8" ?>
<svg baseProfile="tiny" height="128" version="1.2" viewBox="0,0,128,128" width="128" xmlns="http://www.w3.org/2000/svg" xmlns:ev="http://www.w3.org/2001/xml-events" xmlns:xlink="http://www.w3.org/1999/xlink"><defs /><polyline fill="none" points="45.1507,35.0685 36.3836,40.7671 29.8082,51.2877 27.6164,69.2603 30.6849,77.1507 34.1918,81.5342 38.137,82.8493 60.9315,88.9863 81.0959,89.863 85.9178,87.2329 90.7397,79.3425 93.8082,65.7534 94.6849,50.8493 90.7397,38.137 101.6986,30.6849 119.2329,14.9041 115.726,14.4658 73.2055,35.5068 39.0137,8.7671 38.137,14.0274 42.9589,32.8767" stroke="#00007f" stroke-width="2" /><polyline fill="none" points="56.5479,50.411 58.7397,53.9178 50.411,54.7945 50.411,52.6027 53.0411,50.8493 57.4247,49.9726 58.7397,51.2877" stroke="#0000fe" stroke-width="2" /><polyline fill="none" points="78.0274,56.9863 81.5342,58.7397 81.9726,61.8082 80.2192,63.1233 75.8356,62.6849 74.9589,58.3014 78.4658,57.4247" stroke="#0060ff" stroke-width="2" /><polyline fill="none" points="62.2466,67.9452 63.1233,70.5753 63.1233,69.2603 62.2466,67.9452 61.8082,70.5753" stroke="#00d4ff" stroke-width="2" /><polyline fill="none" points="55.2329,65.3151 48.2192,61.8082 28.0548,56.1096" stroke="#4cffaa" stroke-width="2" /><polyline fill="none" points="47.3425,65.7534 32.4384,64.0 8.7671,64.0" stroke="#aaff4c" stroke-width="2" /><polyline fill="none" points="46.0274,73.2055 33.3151,74.0822 28.4932,75.8356" stroke="#ffe500" stroke-width="2" /><polyline fill="none" points="71.8904,70.137 98.6301,70.137" stroke="#ff7a00" stroke-width="2" /><polyline fill="none" points="74.9589,75.3973 95.1233,81.5342 108.7123,84.6027" stroke="#fe1200" stroke-width="2" /><polyline fill="none" points="72.3288,81.9726 79.3425,85.4795" stroke="#7f0000" stroke-width="2" /></svg>