<?xml version="1.0" encoding="utf-8" ?>
<svg baseProfile="tiny" height="128" version="1.2" viewBox="0,0,128,128" width="128" xmlns="http://www.w3.org/2000/svg" xmlns:ev="http://www.w3.org/2001/xml-events" xmlns:xlink="http://www.w3.org/1999/xlink"><defs /><polyline fill="none" points="73.3288,30.8068 64.6508,26.4678 52.0678,24.7322 44.2576,25.1661 36.0136,29.0712 31.6746,33.8441 26.4678,44.2576 25.6,57.2746 26.4678,64.6508 28.6373,70.2915 36.0136,79.4034 40.7864,83.7424 59.0102,91.1186 74.1966,90.2508 82.4407,85.478 88.0814,77.6678 90.2508,72.461 91.5525,47.7288 89.8169,42.9559 79.8373,31.6746 76.3661,29.0712 71.5932,28.2034" stroke="#00007f" stroke-width="2" /><polyline fill="none" points="34.278,29.939 15.1864,11.7153 8.678,8.678 10.4136,21.261 16.4881,42.0881 21.6949,51.2" stroke="#0010ff" stroke-width="2" /><polyline fill="none" points="84.1763,33.8441 85.0441,30.8068 94.5898,23.8644 109.3424,16.922 113.6814,16.0542 114.5492,17.7898 113.6814,22.1288 105.0034,37.7492 98.061,45.5593 88.9492,52.5017 85.478,57.7085" stroke="#00a4ff" stroke-width="2" /><polyline fill="none" points="31.2407,77.6678 22.5627,87.6475 22.5627,98.4949 23.8644,101.5322 33.4102,111.078 43.8237,116.7186 54.6712,119.322 69.4237,118.0203 79.8373,114.5492 88.0814,108.9085 91.1186,99.3627 90.2508,90.2508 82.8746,82.8746 72.461,79.4034" stroke="#3fffb7" stroke-width="2" /><polyline fill="none" points="44.6915,42.0881 46.4271,45.1254 49.0305,45.5593 50.3322,43.3898 50.3322,41.2203 47.2949,40.3525 44.2576,43.8237 44.2576,47.2949" stroke="#b7ff3f" stroke-width="2" /><polyline fill="none" points="72.8949,45.9932 71.1593,47.7288 75.0644,48.1627 74.6305,43.3898 72.0271,42.9559 70.2915,44.6915" stroke="#ffb900" stroke-width="2" /><polyline fill="none" points="59.0102,56.4068 59.4441,59.0102 62.0475,58.5763 63.7831,56.4068 61.6136,54.6712 59.4441,56.8407 59.4441,62.4814" stroke="#ff3000" stroke-width="2" /><polyline fill="none" points="70.7254,60.7458 100.6644,53.8034" stroke="#7f0000" stroke-width="2" /></svg>