<?xml version="1.0" encoding="utf-8" ?>
<svg baseProfile="tiny" height="128" version="1.2" viewBox="0,0,128,128" width="128" xmlns="http://www.w3.org/2000/svg" xmlns:ev="http://www.w3.org/2001/xml-events" xmlns:xlink="http://www.w3.org/1999/xlink"><defs /><polyline fill="none" points="100.2305,32.1085 93.722,32.1085 82.0068,39.4847 81.139,49.4644 85.9119,58.1424 90.2508,60.7458 95.0237,59.878 100.6644,55.1051 105.8712,47.7288 106.3051,39.4847 98.061,29.939" stroke="#00007f" stroke-width="2" /><polyline fill="none" points="83.3085,36.0136 91.5525,8.678 93.722,15.1864 96.3254,35.5797" stroke="#0000ff" stroke-width="2" /><polyline fill="none" points="108.4746,38.6169 108.0407,33.8441 113.6814,22.5627 118.4542,15.1864 119.322,15.1864 119.322,19.5254 114.9831,32.5424 107.1729,44.2576" stroke="#0080ff" stroke-width="2" /><polyline fill="none" points="80.7051,47.7288 75.4983,45.5593 50.3322,44.6915 35.1458,49.0305 26.4678,55.9729 26.0339,62.4814 26.9017,70.2915 42.0881,70.7254 57.2746,68.5559 76.3661,62.9153 88.0814,57.2746 92.4203,57.2746" stroke="#15ffe1" stroke-width="2" /><polyline fill="none" points="32.5424,71.1593 31.6746,84.1763 39.0508,82.4407 39.4847,77.6678 36.8814,68.9898" stroke="#7cff79" stroke-width="2" /><polyline fill="none" points="32.1085,68.9898 33.8441,65.0847 36.4475,64.6508 39.4847,67.6881 39.0508,70.2915" stroke="#e4ff12" stroke-width="2" /><polyline fill="none" points="52.0678,68.5559 51.6339,78.9695 56.4068,80.2712 58.5763,79.8373 59.0102,75.9322 58.5763,69.8576 56.4068,68.5559" stroke="#ff9400" stroke-width="2" /><polyline fill="none" points="51.2,67.2542 52.0678,61.1797 54.2373,59.4441 56.4068,59.878 57.7085,62.0475 59.4441,65.0847 59.0102,67.2542" stroke="#ff1d00" stroke-width="2" /><polyline fill="none" points="26.0339,57.2746 23.4305,57.2746 20.3932,65.0847 17.7898,75.9322 14.3186,79.4034 10.4136,79.8373 8.678,75.0644 15.1864,65.9525 19.9593,55.1051 22.9966,54.6712 30.8068,57.7085" stroke="#7f0000" stroke-width="2" /></svg>