<?xml version="1.0" encoding="utf-8" ?>
<svg baseProfile="tiny" height="128" version="1.2" viewBox="0,0,128,128" width="128" xmlns="http://www.w3.org/2000/svg" xmlns:ev="http://www.w3.org/2001/xml-events" xmlns:xlink="http://www.w3.org/1999/xlink"><defs /><polyline fill="none" points="34.278,25.1661 30.8068,21.6949 19.0915,20.3932 16.4881,25.1661 16.4881,33.4102 21.261,34.7119 33.4102,32.1085 34.7119,30.3729 34.7119,26.0339" stroke="#00007f" stroke-width="2" /><polyline fill="none" points="33.4102,24.7322 29.939,10.8475 27.7695,18.6576" stroke="#0000d1" stroke-width="2" /><polyline fill="none" points="26.4678,18.6576 21.261,8.678 19.5254,16.922" stroke="#0010ff" stroke-width="2" /><polyline fill="none" points="20.8271,23.4305 21.261,23.4305" stroke="#0058ff" stroke-width="2" /><polyline fill="none" points="21.261,25.6 29.0712,26.4678" stroke="#00a4ff" stroke-width="2" /><polyline fill="none" points="34.7119,28.6373 55.9729,28.2034 65.0847,31.6746 73.3288,43.3898 73.3288,45.5593 71.5932,48.1627 61.1797,51.2 51.2,50.7661 16.0542,39.4847 10.8475,34.278 9.5458,29.939 24.2983,29.0712" stroke="#05ecf1" stroke-width="2" /><polyline fill="none" points="70.7254,40.3525 105.8712,39.9186 119.322,42.522 111.5119,45.5593 70.2915,42.9559" stroke="#3fffb7" stroke-width="2" /><polyline fill="none" points="39.0508,47.7288 37.3153,53.3695 39.4847,53.8034 43.8237,48.5966 43.8237,45.5593" stroke="#7cff79" stroke-width="2" /><polyline fill="none" points="47.7288,49.4644 47.2949,52.0678 49.4644,52.0678 53.3695,49.0305 52.9356,46.4271" stroke="#b7ff3f" stroke-width="2" /><polyline fill="none" points="11.2814,36.0136 8.678,44.2576 12.5831,44.6915 13.0169,39.4847" stroke="#f1fc05" stroke-width="2" /><polyline fill="none" points="15.6203,38.6169 16.0542,41.6542 18.2237,39.9186" stroke="#ffb900" stroke-width="2" /><polyline fill="none" points="20.8271,28.2034 27.3356,29.0712" stroke="#ff7300" stroke-width="2" /><polyline fill="none" points="21.6949,29.0712 16.922,27.3356" stroke="#ff3000" stroke-width="2" /><polyline fill="none" points="19.9593,16.0542 19.9593,18.6576" stroke="#d10000" stroke-width="2" /><polyline fill="none" points="48.1627,32.1085 55.539,32.1085 45.1254,37.3153 58.1424,38.6169 59.0102,40.7864 54.2373,42.9559 63.3492,42.9559 65.9525,44.6915 56.4068,44.2576 23.8644,33.4102 21.6949,32.1085 23.4305,29.939 32.5424,29.5051 42.9559,32.9763 47.7288,37.7492 33.4102,38.6169 52.5017,39.9186 27.7695,38.6169 26.9017,37.3153" stroke="#7f0000" stroke-width="2" /></svg>