<?xml version="1.0" encoding="utf-8" ?>
<svg baseProfile="tiny" height="128" version="1.2" viewBox="0,0,128,128" width="128" xmlns="http://www.w3.org/2000/svg" xmlns:ev="http://www.w3.org/2001/xml-events" xmlns:xlink="http://www.w3.org/1999/xlink"><defs /><polyline fill="none" points="28.2034,44.6915 16.4881,49.4644 9.9797,61.6136 8.678,85.478 12.1492,96.7593 15.1864,101.5322 23.4305,110.2102 32.1085,116.2847 49.4644,119.322 56.8407,119.322 68.5559,116.2847 81.5729,107.1729 91.1186,97.1932 99.3627,82.8746 99.3627,69.8576 94.5898,62.4814 78.9695,48.5966 60.3119,39.4847 39.9186,39.0508 30.8068,42.522 26.0339,46.861" stroke="#00007f" stroke-width="2" /><polyline fill="none" points="12.5831,56.8407 9.9797,55.1051 9.9797,49.4644 13.8847,16.0542 28.2034,41.2203" stroke="#0010ff" stroke-width="2" /><polyline fill="none" points="69.4237,35.1458 73.3288,23.4305 82.8746,8.678 84.6102,44.6915" stroke="#00a4ff" stroke-width="2" /><polyline fill="none" points="38.6169,75.4983 38.6169,75.4983" stroke="#3fffb7" stroke-width="2" /><polyline fill="none" points="67.6881,70.7254 67.6881,70.7254" stroke="#b7ff3f" stroke-width="2" /><polyline fill="none" points="36.4475,75.0644 32.5424,75.4983 32.1085,77.2339" stroke="#ffb900" stroke-width="2" /><polyline fill="none" points="64.6508,70.7254 67.2542,71.5932 66.3864,65.0847" stroke="#ff3000" stroke-width="2" /><polyline fill="none" points="56.4068,90.6847 52.9356,91.1186 52.5017,89.8169" stroke="#7f0000" stroke-width="2" /></svg>