<?xml version="1.0" encoding="utf-8" ?>
<svg baseProfile="tiny" height="128" version="1.2" viewBox="0,0,128,128" width="128" xmlns="http://www.w3.org/2000/svg" xmlns:ev="http://www.w3.org/2001/xml-events" xmlns:xlink="http://www.w3.org/1999/xlink"><defs /><polyline fill="none" points="24.2983,42.9559 22.5627,35.1458 8.678,8.678 33.8441,15.6203 47.2949,24.2983" stroke="#00007f" stroke-width="2" /><polyline fill="none" points="46.861,22.1288 62.0475,23.8644 93.722,34.278 101.9661,20.8271 106.3051,17.7898 113.2475,16.0542 114.1153,18.2237 114.1153,29.5051 111.9458,38.1831 116.2847,43.3898 119.322,55.539 118.4542,68.9898 115.4169,73.7627 110.6441,76.3661 101.0983,77.2339 86.7797,77.6678 72.8949,74.6305 43.8237,61.6136 31.6746,54.2373 23.8644,44.6915 23.8644,38.1831 25.6,36.4475" stroke="#0000fe" stroke-width="2" /><polyline fill="none" points="72.0271,48.1627 72.0271,48.1627" stroke="#0060ff" stroke-width="2" /><polyline fill="none" points="72.0271,48.1627 72.0271,48.1627" stroke="#00d4ff" stroke-width="2" /><polyline fill="none" points="71.1593,48.1627 59.878,45.5593 49.4644,45.9932" stroke="#4cffaa" stroke-width="2" /><polyline fill="none" points="68.9898,50.7661 52.5017,53.3695 59.0102,54.2373" stroke="#aaff4c" stroke-width="2" /><polyline fill="none" points="87.2136,49.0305 102.8339,49.8983 111.078,52.0678" stroke="#ffe500" stroke-width="2" /><polyline fill="none" points="87.6475,55.539 106.739,62.0475" stroke="#ff7a00" stroke-width="2" /><polyline fill="none" points="50.7661,34.278 58.1424,33.4102 62.0475,38.1831" stroke="#fe1200" stroke-width="2" /><polyline fill="none" points="80.2712,38.6169 89.3831,36.0136 91.9864,39.4847" stroke="#7f0000" stroke-width="2" /></svg>