<?xml version="1.0" encoding="utf-8" ?>
<svg baseProfile="tiny" height="128" version="1.2" viewBox="0,0,128,128" width="128" xmlns="http://www.w3.org/2000/svg" xmlns:ev="http://www.w3.org/2001/xml-events" xmlns:xlink="http://www.w3.org/1999/xlink"><defs /><polyline fill="none" points="25.6,59.0102 16.922,63.7831 12.5831,73.3288 9.1119,89.8169 8.678,101.0983 9.9797,105.8712 13.0169,110.6441 21.6949,116.7186 31.2407,119.322 41.6542,119.322 51.6339,115.4169 55.9729,112.3797 60.3119,108.9085 67.6881,98.9288 71.5932,87.6475 72.8949,76.3661 71.5932,64.2169 69.4237,58.1424 65.0847,52.0678 59.0102,49.0305 38.6169,48.1627 32.5424,49.4644 23.8644,54.2373 17.7898,61.1797" stroke="#00007f" stroke-width="2" /><polyline fill="none" points="15.6203,58.5763 16.0542,17.7898 20.8271,19.0915 26.4678,25.1661 35.5797,42.0881" stroke="#0028ff" stroke-width="2" /><polyline fill="none" points="47.7288,39.9186 63.3492,16.0542 71.5932,8.678 72.0271,20.3932 69.8576,33.8441 67.6881,38.1831" stroke="#00d4ff" stroke-width="2" /><polyline fill="none" points="32.9763,67.2542 29.5051,68.5559 35.1458,68.9898 33.4102,67.2542 26.9017,67.2542 22.9966,72.8949 25.6,74.6305 29.5051,73.7627 34.278,69.4237" stroke="#7cff79" stroke-width="2" /><polyline fill="none" points="50.7661,66.3864 53.3695,67.2542 58.1424,62.4814 54.6712,62.0475 52.5017,64.2169 52.0678,67.6881 55.9729,69.8576" stroke="#ffe500" stroke-width="2" /><polyline fill="none" points="38.6169,85.9119 47.7288,84.1763 50.3322,77.6678 44.2576,77.6678 40.3525,81.5729 41.2203,85.0441" stroke="#ff4600" stroke-width="2" /><polyline fill="none" points="39.9186,85.478 17.7898,85.9119" stroke="#7f0000" stroke-width="2" /></svg>