<?xml version="1.0" encoding="utf-8" ?>
<svg baseProfile="tiny" height="128" version="1.2" viewBox="0,0,128,128" width="128" xmlns="http://www.w3.org/2000/svg" xmlns:ev="http://www.w3.org/2001/xml-events" xmlns:xlink="http://www.w3.org/1999/xlink"><defs /><polyline fill="none" points="52.2449,40.4898 46.1497,36.1361 38.3129,35.2653 32.6531,37.0068 26.1224,41.3605 15.6735,57.4694 13.0612,67.483 12.6259,81.415 15.6735,86.2041 21.7687,90.9932 37.0068,96.2177 54.8571,94.4762 63.1293,89.2517 69.6599,82.7211 74.449,75.3197 75.7551,69.2245 75.7551,62.2585 72.2721,54.4218 67.483,48.3265 61.3878,43.102 51.3741,37.8776" stroke="#00007f" stroke-width="2" /><polyline fill="none" points="60.517,38.7483 60.9524,35.2653 75.7551,11.3197 78.8027,8.7075 79.2381,18.7211 75.3197,39.1837 74.0136,59.2109" stroke="#0010ff" stroke-width="2" /><polyline fill="none" points="8.7075,50.9388 10.0136,10.449 14.3673,13.0612 31.7823,32.6531" stroke="#00a4ff" stroke-width="2" /><polyline fill="none" points="28.2993,51.8095 27.8639,54.8571 31.3469,70.5306" stroke="#3fffb7" stroke-width="2" /><polyline fill="none" points="50.9388,50.068 54.8571,67.9184" stroke="#b7ff3f" stroke-width="2" /><polyline fill="none" points="26.1224,80.5442 30.0408,84.0272 37.8776,86.6395 47.8912,87.0748 53.551,84.0272 53.9864,79.6735 60.0816,82.2857 67.0476,81.8503 73.5782,76.6259 75.3197,72.2721" stroke="#ffb900" stroke-width="2" /><polyline fill="none" points="52.2449,74.449 50.5034,76.6259 51.8095,77.0612 57.4694,76.6259 57.9048,74.8844 51.3741,74.8844 50.9388,76.1905 53.551,77.0612" stroke="#ff3000" stroke-width="2" /><polyline fill="none" points="67.483,66.1769 115.8095,59.2109 119.2925,60.0816 118.4218,62.2585" stroke="#7f0000" stroke-width="2" /></svg>