<?xml version="1.0" encoding="utf-8" ?>
<svg baseProfile="tiny" height="128" version="1.2" viewBox="0,0,128,128" width="128" xmlns="http://www.w3.org/2000/svg" xmlns:ev="http://www.w3.org/2001/xml-events" xmlns:xlink="http://www.w3.org/1999/xlink"><defs /><polyline fill="none" points="74.7031,21.843 60.2867,21.843 45.4334,25.3379 39.7543,30.5802 39.7543,33.2014 42.3754,35.3857 65.529,39.7543 102.6621,39.3174 107.9044,37.57 110.0887,35.3857 109.6519,31.4539 104.8464,28.3959 89.9932,24.0273 69.4608,22.7167" stroke="#00007f" stroke-width="2" /><polyline fill="none" points="41.0648,28.3959 23.5904,21.4061 13.9795,20.9693 8.7372,23.1536" stroke="#0000e8" stroke-width="2" /><polyline fill="none" points="92.6143,22.2799 100.9147,16.6007 115.3311,15.2901 119.2628,22.7167 119.2628,27.959 114.8942,31.0171 106.157,31.0171" stroke="#0038ff" stroke-width="2" /><polyline fill="none" points="94.3618,17.0375 93.4881,24.0273 97.8567,29.7065 105.7201,31.4539 114.8942,30.5802" stroke="#0094ff" stroke-width="2" /><polyline fill="none" points="112.7099,14.8532 114.0205,12.2321 119.2628,8.7372 119.2628,19.6587" stroke="#0cf4ea" stroke-width="2" /><polyline fill="none" points="99.6041,15.2901 89.9932,9.6109 86.0614,9.1741 84.314,10.4846 84.7509,14.4164 92.6143,17.0375" stroke="#56ffa0" stroke-width="2" /><polyline fill="none" points="102.6621,23.1536 106.157,22.7167" stroke="#a0ff56" stroke-width="2" /><polyline fill="none" points="110.9625,21.4061 117.0785,20.9693" stroke="#eaff0c" stroke-width="2" /><polyline fill="none" points="99.1672,39.3174 111.8362,51.5495 114.8942,56.7918" stroke="#ffaa00" stroke-width="2" /><polyline fill="none" points="95.6724,41.0648 99.1672,51.1126" stroke="#ff5500" stroke-width="2" /><polyline fill="none" points="56.7918,40.1911 45.4334,54.1706" stroke="#e80000" stroke-width="2" /><polyline fill="none" points="48.9283,36.2594 41.9386,44.5597 31.8908,49.3652" stroke="#7f0000" stroke-width="2" /></svg>