<?xml version="1.0" encoding="utf-8" ?>
<svg baseProfile="tiny" height="128" version="1.2" viewBox="0,0,128,128" width="128" xmlns="http://www.w3.org/2000/svg" xmlns:ev="http://www.w3.org/2001/xml-events" xmlns:xlink="http://www.w3.org/1999/xlink"><defs /><polyline fill="none" points="86.3458,96.3254 94.5898,81.5729 95.8915,74.1966 95.8915,62.9153 84.6102,45.5593" stroke="#00007f" stroke-width="2" /><polyline fill="none" points="40.7864,45.1254 33.8441,46.4271 31.6746,48.5966 23.8644,66.3864 23.8644,74.6305 32.5424,93.2881 41.6542,100.2305 51.2,103.7017 58.1424,104.5695 65.5186,104.1356 74.1966,101.5322 86.7797,94.1559" stroke="#0000d5" stroke-width="2" /><polyline fill="none" points="83.3085,50.3322 92.4203,29.939 94.1559,19.0915 91.9864,17.3559 86.3458,18.6576 83.3085,21.6949 70.2915,41.2203 58.5763,41.2203 56.4068,40.7864 38.6169,12.5831 37.7492,16.4881 37.7492,28.6373 40.7864,44.6915" stroke="#001cff" stroke-width="2" /><polyline fill="none" points="80.7051,41.6542 87.6475,23.4305 90.6847,8.678 79.4034,22.5627 70.7254,37.3153" stroke="#006cff" stroke-width="2" /><polyline fill="none" points="66.8203,62.9153 71.1593,62.0475 72.0271,65.9525 70.2915,64.6508 69.8576,65.9525" stroke="#00b8ff" stroke-width="2" /><polyline fill="none" points="46.4271,66.3864 50.3322,69.4237 51.6339,66.8203 50.3322,65.0847 44.6915,65.5186" stroke="#1cffda" stroke-width="2" /><polyline fill="none" points="67.2542,79.8373 54.6712,75.9322 55.9729,80.7051 59.878,83.3085 62.0475,81.5729 64.2169,75.9322" stroke="#5cff9a" stroke-width="2" /><polyline fill="none" points="59.4441,82.0068 59.4441,96.3254" stroke="#9aff5c" stroke-width="2" /><polyline fill="none" points="42.522,79.8373 8.678,43.3898" stroke="#daff1c" stroke-width="2" /><polyline fill="none" points="38.6169,83.7424 13.0169,72.0271" stroke="#ffcb00" stroke-width="2" /><polyline fill="none" points="40.7864,81.139 23.8644,95.8915 12.1492,108.4746" stroke="#ff8500" stroke-width="2" /><polyline fill="none" points="76.3661,79.4034 93.2881,62.9153 111.9458,37.3153" stroke="#ff3b00" stroke-width="2" /><polyline fill="none" points="84.1763,81.139 92.8542,80.7051 119.322,67.2542" stroke="#d50000" stroke-width="2" /><polyline fill="none" points="79.4034,86.7797 97.1932,95.8915 112.8136,101.9661" stroke="#7f0000" stroke-width="2" /></svg>