<?xml version="1.0" encoding="utf-8" ?>
<svg baseProfile="tiny" height="128" version="1.2" viewBox="0,0,128,128" width="128" xmlns="http://www.w3.org/2000/svg" xmlns:ev="http://www.w3.org/2001/xml-events" xmlns:xlink="http://www.w3.org/1999/xlink"><defs /><polyline fill="none" points="63.7831,52.0678 36.8814,50.3322 20.3932,54.2373 16.922,59.4441 14.3186,67.6881 14.7525,85.9119 25.1661,103.7017 45.1254,115.4169 56.4068,119.322 62.4814,119.322 65.9525,117.1525 82.0068,98.9288 84.1763,94.5898 84.6102,88.5153 84.6102,77.2339 82.8746,73.3288 75.9322,62.9153 72.461,54.2373 69.4237,51.6339 66.8203,51.6339 64.2169,49.4644" stroke="#00007f" stroke-width="2" /><polyline fill="none" points="15.6203,57.2746 15.1864,28.6373 8.678,8.678 13.8847,11.2814 20.8271,33.4102 33.4102,50.3322" stroke="#004cff" stroke-width="2" /><polyline fill="none" points="55.1051,55.539 56.4068,49.8983 59.0102,46.4271 59.878,38.1831 62.9153,37.7492 64.6508,24.7322 69.8576,14.3186 77.6678,40.7864 78.1017,54.2373" stroke="#29ffcd" stroke-width="2" /><polyline fill="none" points="33.8441,65.5186 33.4102,68.122 35.5797,68.122 35.5797,65.9525" stroke="#cdff29" stroke-width="2" /><polyline fill="none" points="57.7085,66.8203 56.8407,64.2169 54.2373,62.9153 52.5017,65.5186 57.2746,66.3864" stroke="#ff6700" stroke-width="2" /><polyline fill="none" points="29.939,82.0068 29.939,87.2136 32.5424,92.4203 38.1831,96.7593 46.861,100.2305 58.5763,98.4949 62.9153,90.6847 63.7831,87.2136" stroke="#7f0000" stroke-width="2" /></svg>