<?xml version="1.0" encoding="utf-8" ?>
<svg baseProfile="tiny" height="128" version="1.2" viewBox="0,0,128,128" width="128" xmlns="http://www.w3.org/2000/svg" xmlns:ev="http://www.w3.org/2001/xml-events" xmlns:xlink="http://www.w3.org/1999/xlink"><defs /><polyline fill="none" points="10.4136,68.9898 8.678,64.6508 9.5458,55.9729 13.8847,47.7288 16.0542,45.5593 16.0542,9.5458 18.2237,8.678 23.4305,14.7525 35.5797,35.1458 47.2949,30.8068 74.1966,30.3729 89.8169,36.8814 93.2881,36.8814 110.2102,15.6203 112.8136,20.3932 118.8881,43.3898 119.322,74.6305 117.5864,80.2712 115.8508,83.7424 109.3424,89.3831 95.4576,95.8915 72.0271,101.5322 53.8034,103.7017 33.8441,103.7017 25.1661,99.3627 19.9593,95.4576 15.1864,82.8746 11.7153,66.3864" stroke="#00007f" stroke-width="2" /><polyline fill="none" points="65.9525,72.0271 108.0407,68.9898" stroke="#00d4ff" stroke-width="2" /><polyline fill="none" points="65.5186,72.0271 76.8,76.3661 105.0034,80.2712 108.4746,82.0068" stroke="#ffe500" stroke-width="2" /><polyline fill="none" points="67.2542,73.7627 99.7966,88.5153" stroke="#7f0000" stroke-width="2" /></svg>