<?xml version="1.0" encoding="utf-8" ?>
<svg baseProfile="tiny" height="128" version="1.2" viewBox="0,0,128,128" width="128" xmlns="http://www.w3.org/2000/svg" xmlns:ev="http://www.w3.org/2001/xml-events" xmlns:xlink="http://www.w3.org/1999/xlink"><defs /><polyline fill="none" points="28.2034,45.9932 22.5627,43.3898 17.3559,35.1458 16.4881,30.3729 19.0915,18.2237 20.8271,17.3559 24.7322,19.5254 41.2203,35.5797 60.3119,36.0136 68.9898,38.1831 72.461,29.0712 76.3661,22.5627 86.3458,11.2814 91.1186,8.678 90.6847,19.5254 86.7797,32.5424 86.7797,36.0136 87.6475,37.7492 98.4949,42.9559 107.6068,54.2373 110.2102,60.3119 111.078,69.8576 109.3424,83.7424 104.5695,85.478" stroke="#00007f" stroke-width="2" /><polyline fill="none" points="29.0712,43.8237 19.9593,47.2949 15.1864,52.9356 11.2814,61.6136 9.5458,70.7254 10.8475,80.7051 13.4508,86.7797 16.4881,88.0814" stroke="#0000fe" stroke-width="2" /><polyline fill="none" points="30.3729,53.8034 34.7119,51.2 43.8237,48.1627 59.0102,52.0678" stroke="#0060ff" stroke-width="2" /><polyline fill="none" points="66.8203,51.6339 71.1593,48.5966 77.6678,47.7288 93.722,52.9356" stroke="#00d4ff" stroke-width="2" /><polyline fill="none" points="41.6542,66.8203 11.2814,60.7458" stroke="#4cffaa" stroke-width="2" /><polyline fill="none" points="39.9186,70.7254 17.7898,73.3288" stroke="#aaff4c" stroke-width="2" /><polyline fill="none" points="32.5424,75.9322 17.7898,82.4407 8.678,88.0814" stroke="#ffe500" stroke-width="2" /><polyline fill="none" points="94.5898,65.9525 116.7186,54.6712" stroke="#ff7a00" stroke-width="2" /><polyline fill="none" points="100.2305,73.3288 114.5492,73.3288 119.322,74.6305" stroke="#fe1200" stroke-width="2" /><polyline fill="none" points="93.722,79.4034 93.722,79.4034" stroke="#7f0000" stroke-width="2" /></svg>