<?xml version="1.0" encoding="utf-8" ?>
<svg baseProfile="tiny" height="128" version="1.2" viewBox="0,0,128,128" width="128" xmlns="http://www.w3.org/2000/svg" xmlns:ev="http://www.w3.org/2001/xml-events" xmlns:xlink="http://www.w3.org/1999/xlink"><defs /><polyline fill="none" points="32.9763,33.8441 22.5627,34.278 17.7898,30.8068 12.5831,21.261 13.0169,12.1492 9.5458,13.8847 8.678,19.9593 9.9797,29.0712 11.7153,31.2407 26.9017,38.1831 31.6746,37.7492 33.8441,57.2746 35.1458,60.3119 40.7864,61.6136 43.3898,60.7458 39.4847,58.1424 38.1831,53.8034 37.3153,38.6169 44.2576,37.3153 70.7254,39.9186 73.3288,56.4068 76.3661,59.0102 83.3085,59.878 83.7424,57.7085 78.5356,55.539 76.3661,41.6542 85.478,35.5797 87.2136,24.7322 94.5898,15.6203 95.0237,13.0169 93.722,11.7153 87.6475,10.8475 82.4407,13.8847 78.9695,8.678 75.0644,15.1864 71.5932,16.4881 63.7831,16.4881 48.5966,26.9017 38.6169,27.7695 33.8441,29.5051 31.2407,34.7119" stroke="#00007f" stroke-width="2" /><polyline fill="none" points="38.1831,39.0508 39.0508,48.5966 49.0305,52.0678 49.4644,49.4644 46.861,48.1627 43.8237,44.2576 44.6915,32.9763" stroke="#0000fe" stroke-width="2" /><polyline fill="none" points="80.2712,39.9186 80.2712,50.3322 84.6102,50.7661 88.0814,49.0305 84.6102,45.5593 82.8746,39.9186" stroke="#0060ff" stroke-width="2" /><polyline fill="none" points="84.6102,16.0542 84.6102,16.0542" stroke="#00d4ff" stroke-width="2" /><polyline fill="none" points="94.5898,13.4508 88.9492,16.922" stroke="#4cffaa" stroke-width="2" /><polyline fill="none" points="89.8169,12.1492 90.6847,13.4508" stroke="#aaff4c" stroke-width="2" /><polyline fill="none" points="90.6847,13.0169 93.722,13.0169" stroke="#ffe500" stroke-width="2" /><polyline fill="none" points="107.1729,27.7695 107.1729,27.7695" stroke="#ff7a00" stroke-width="2" /><polyline fill="none" points="119.322,26.4678 119.322,26.4678" stroke="#fe1200" stroke-width="2" /><polyline fill="none" points="72.8949,27.7695 68.122,32.5424 66.3864,37.3153 69.4237,28.2034 69.4237,19.9593 67.6881,16.4881 60.3119,26.0339 57.2746,33.8441 58.5763,29.5051 57.2746,29.5051 51.6339,35.1458" stroke="#7f0000" stroke-width="2" /></svg>