<?xml version="1.0" encoding="utf-8" ?>
<svg baseProfile="tiny" height="128" version="1.2" viewBox="0,0,128,128" width="128" xmlns="http://www.w3.org/2000/svg" xmlns:ev="http://www.w3.org/2001/xml-events" xmlns:xlink="http://www.w3.org/1999/xlink"><defs /><polyline fill="none" points="79.6735,16.1088 64.4354,15.2381 49.1973,17.8503 40.0544,23.5102 37.8776,26.9932 38.3129,30.4762 43.5374,33.5238 53.1156,35.2653 75.7551,36.1361 88.381,34.3946 92.7347,31.3469 91.4286,25.2517 83.5918,20.0272 74.8844,17.415" stroke="#00007f" stroke-width="2" /><polyline fill="none" points="44.8435,19.5918 44.8435,14.3673 48.7619,8.7075 53.9864,16.1088" stroke="#0000cc" stroke-width="2" /><polyline fill="none" points="77.4966,17.415 85.7687,9.1429 86.6395,21.3333" stroke="#0008ff" stroke-width="2" /><polyline fill="none" points="52.6803,23.9456 53.551,23.9456" stroke="#004cff" stroke-width="2" /><polyline fill="none" points="75.7551,26.1224 74.0136,24.8163 77.0612,25.2517 75.3197,25.6871" stroke="#0090ff" stroke-width="2" /><polyline fill="none" points="75.7551,24.8163 76.6259,25.2517 74.8844,25.6871" stroke="#00d4ff" stroke-width="2" /><polyline fill="none" points="63.1293,29.6054 63.1293,30.9116 64.0,30.0408 63.1293,28.7347 63.1293,30.4762 64.4354,29.6054 63.1293,29.1701 63.1293,30.4762 64.4354,29.6054 63.5646,29.1701 64.0,30.4762 63.5646,28.7347 61.8231,29.1701 64.0,30.9116 64.0,28.7347 61.8231,28.2993 61.3878,29.1701 63.5646,30.9116 63.5646,29.1701" stroke="#29ffcd" stroke-width="2" /><polyline fill="none" points="62.6939,30.4762 61.8231,35.2653 59.2109,35.7007 57.4694,34.3946 59.2109,34.3946" stroke="#5fff96" stroke-width="2" /><polyline fill="none" points="63.1293,30.9116 63.1293,34.8299 66.1769,35.7007 67.483,33.9592" stroke="#96ff5f" stroke-width="2" /><polyline fill="none" points="56.1633,30.0408 8.7075,27.4286" stroke="#cdff29" stroke-width="2" /><polyline fill="none" points="53.1156,30.9116 15.6735,35.2653" stroke="#ffe500" stroke-width="2" /><polyline fill="none" points="49.1973,32.2177 36.5714,33.9592 26.9932,37.8776" stroke="#ffa600" stroke-width="2" /><polyline fill="none" points="74.449,29.6054 77.4966,33.0884 73.1429,35.2653" stroke="#ff6700" stroke-width="2" /><polyline fill="none" points="74.0136,31.7823 113.1973,27.8639" stroke="#ff2800" stroke-width="2" /><polyline fill="none" points="74.449,33.5238 119.2925,37.4422" stroke="#cc0000" stroke-width="2" /><polyline fill="none" points="76.1905,33.9592 99.2653,40.9252" stroke="#7f0000" stroke-width="2" /></svg>