<?xml version="1.0" encoding="utf-8" ?>
<svg baseProfile="tiny" height="128" version="1.2" viewBox="0,0,128,128" width="128" xmlns="http://www.w3.org/2000/svg" xmlns:ev="http://www.w3.org/2001/xml-events" xmlns:xlink="http://www.w3.org/1999/xlink"><defs /><polyline fill="none" points="9.5458,53.3695 9.5458,26.4678 14.7525,13.0169 14.7525,40.3525 17.3559,45.5593 25.1661,40.3525 39.0508,35.5797 68.9898,35.1458 79.8373,38.6169 97.1932,8.678 104.1356,25.6 109.7763,55.1051 109.7763,73.7627 108.4746,79.4034 102.4,90.6847 94.5898,97.6271 65.9525,113.2475 43.8237,119.322 32.9763,119.322 29.939,118.0203 23.8644,112.3797 15.6203,95.4576 13.4508,82.0068 12.1492,57.7085 8.678,43.8237" stroke="#00007f" stroke-width="2" /><polyline fill="none" points="39.4847,58.1424 39.9186,62.9153" stroke="#0010ff" stroke-width="2" /><polyline fill="none" points="72.0271,55.1051 72.0271,58.1424" stroke="#00a4ff" stroke-width="2" /><polyline fill="none" points="56.4068,69.4237 56.4068,72.0271 50.7661,72.0271 49.0305,74.1966 48.5966,77.2339 50.3322,79.4034" stroke="#3fffb7" stroke-width="2" /><polyline fill="none" points="56.4068,72.461 65.0847,72.8949 65.0847,76.8" stroke="#b7ff3f" stroke-width="2" /><polyline fill="none" points="87.6475,69.4237 101.0983,69.4237" stroke="#ffb900" stroke-width="2" /><polyline fill="none" points="85.478,80.2712 95.8915,80.2712" stroke="#ff3000" stroke-width="2" /><polyline fill="none" points="84.1763,88.5153 89.3831,88.5153" stroke="#7f0000" stroke-width="2" /></svg>