<?xml version="1.0" encoding="utf-8" ?>
<svg baseProfile="tiny" height="128" version="1.2" viewBox="0,0,128,128" width="128" xmlns="http://www.w3.org/2000/svg" xmlns:ev="http://www.w3.org/2001/xml-events" xmlns:xlink="http://www.w3.org/1999/xlink"><defs /><polyline fill="none" points="101.8776,25.6871 96.2177,29.6054 89.2517,32.2177 78.3673,30.9116 72.7075,26.1224 66.1769,9.5782 64.4354,8.7075 62.2585,11.3197 60.9524,32.2177 62.6939,44.4082 65.3061,51.3741 69.2245,57.9048 76.6259,63.1293 82.7211,65.3061 90.1224,65.7415 100.1361,63.1293 107.5374,57.4694 115.3741,47.0204 119.2925,37.4422 118.8571,19.5918 117.1156,13.4966 113.6327,9.5782 110.585,9.1429 106.6667,11.7551 101.0068,23.0748 97.9592,26.1224" stroke="#00007f" stroke-width="2" /><polyline fill="none" points="94.0408,34.3946 94.9116,38.7483 93.6054,39.619 92.7347,38.3129" stroke="#0000fe" stroke-width="2" /><polyline fill="none" points="76.1905,39.619 78.3673,40.0544" stroke="#0060ff" stroke-width="2" /><polyline fill="none" points="94.0408,66.6122 96.2177,74.8844 95.3469,80.5442 90.5578,88.8163 84.898,92.7347 70.966,94.9116 33.5238,95.7823 24.381,94.0408 17.415,90.1224 10.0136,80.9796 8.7075,73.1429 11.3197,67.0476 16.9796,62.2585 27.4286,59.6463 63.5646,57.034" stroke="#00d4ff" stroke-width="2" /><polyline fill="none" points="89.2517,50.068 89.2517,49.6327" stroke="#4cffaa" stroke-width="2" /><polyline fill="none" points="89.6871,50.5034 88.8163,58.7755 85.3333,60.517 81.8503,59.2109" stroke="#aaff4c" stroke-width="2" /><polyline fill="none" points="89.2517,52.2449 93.1701,57.4694 96.2177,58.3401 99.7007,53.9864 100.5714,50.068" stroke="#ffe500" stroke-width="2" /><polyline fill="none" points="69.2245,77.932 71.8367,80.5442 71.8367,85.3333 68.3537,91.8639" stroke="#ff7a00" stroke-width="2" /><polyline fill="none" points="52.2449,81.415 50.5034,87.9456 46.1497,91.8639 44.4082,91.8639" stroke="#fe1200" stroke-width="2" /><polyline fill="none" points="33.0884,75.7551 28.2993,85.7687 24.8163,87.0748 21.3333,86.6395" stroke="#7f0000" stroke-width="2" /></svg>