<?xml version="1.0" encoding="utf-8" ?>
<svg baseProfile="tiny" height="128" version="1.2" viewBox="0,0,128,128" width="128" xmlns="http://www.w3.org/2000/svg" xmlns:ev="http://www.w3.org/2001/xml-events" xmlns:xlink="http://www.w3.org/1999/xlink"><defs /><polyline fill="none" points="52.0678,20.3932 42.9559,22.1288 38.6169,26.9017 36.4475,31.6746 32.5424,49.8983 36.0136,63.7831 43.3898,71.1593 52.9356,73.7627 62.9153,74.1966 78.9695,72.0271 82.8746,68.5559 83.7424,64.2169 82.8746,50.7661 78.9695,38.1831 75.4983,33.8441 56.8407,22.1288 51.2,20.8271" stroke="#00007f" stroke-width="2" /><polyline fill="none" points="36.0136,28.2034 39.4847,19.0915 40.7864,10.8475 43.8237,12.5831 46.4271,23.4305" stroke="#0000fe" stroke-width="2" /><polyline fill="none" points="58.1424,23.8644 62.4814,20.8271 70.2915,8.678 75.4983,20.8271 78.9695,34.278" stroke="#0060ff" stroke-width="2" /><polyline fill="none" points="57.7085,54.2373 58.1424,59.4441 62.4814,64.2169 65.5186,63.7831 67.6881,58.1424" stroke="#00d4ff" stroke-width="2" /><polyline fill="none" points="58.5763,55.1051 58.5763,59.878 49.4644,62.4814 45.1254,55.539" stroke="#4cffaa" stroke-width="2" /><polyline fill="none" points="55.539,54.6712 36.0136,48.1627 25.1661,46.4271 8.678,47.2949" stroke="#aaff4c" stroke-width="2" /><polyline fill="none" points="55.1051,52.9356 43.8237,59.4441 31.6746,63.3492 26.0339,66.8203" stroke="#ffe500" stroke-width="2" /><polyline fill="none" points="60.3119,50.3322 62.9153,52.0678 68.122,52.0678 92.4203,46.4271 106.739,41.2203 109.3424,39.0508" stroke="#ff7a00" stroke-width="2" /><polyline fill="none" points="64.6508,55.1051 67.2542,57.2746 84.1763,63.3492 119.322,70.2915" stroke="#fe1200" stroke-width="2" /><polyline fill="none" points="49.0305,34.278 48.5966,42.522 50.3322,44.2576 54.2373,44.6915 57.7085,44.2576 71.5932,36.0136 74.1966,31.6746" stroke="#7f0000" stroke-width="2" /></svg>