<?xml version="1.0" encoding="utf-8" ?>
<svg baseProfile="tiny" height="128" version="1.2" viewBox="0,0,128,128" width="128" xmlns="http://www.w3.org/2000/svg" xmlns:ev="http://www.w3.org/2001/xml-events" xmlns:xlink="http://www.w3.org/1999/xlink"><defs /><polyline fill="none" points="32.6531,33.5238 33.5238,8.7075 41.7959,22.6395 45.7143,33.0884 64.4354,32.6531 73.1429,35.7007 81.8503,23.0748 85.7687,19.1565 86.6395,19.5918 85.3333,27.4286 80.9796,37.4422 80.9796,47.4558 79.6735,51.3741 74.0136,59.2109 64.8707,64.0 50.068,64.0 42.2313,59.2109 34.3946,48.3265 30.4762,35.7007 30.4762,31.3469 33.0884,34.8299" stroke="#00007f" stroke-width="2" /><polyline fill="none" points="46.585,42.6667 40.4898,43.5374 16.9796,39.619 9.5782,39.619 8.7075,41.3605" stroke="#0028ff" stroke-width="2" /><polyline fill="none" points="46.585,48.3265 25.6871,51.3741 19.1565,53.9864" stroke="#00d4ff" stroke-width="2" /><polyline fill="none" points="70.0952,44.4082 88.381,43.9728 119.2925,38.3129" stroke="#7cff79" stroke-width="2" /><polyline fill="none" points="72.7075,47.4558 86.2041,50.5034 97.0884,53.9864 93.6054,54.8571" stroke="#ffe500" stroke-width="2" /><polyline fill="none" points="57.4694,47.8912 56.1633,42.2313 60.9524,42.6667 57.9048,47.4558" stroke="#ff4600" stroke-width="2" /><polyline fill="none" points="56.1633,47.0204 54.8571,51.3741" stroke="#7f0000" stroke-width="2" /></svg>