<?xml version="1.0" encoding="utf-8" ?>
<svg baseProfile="tiny" height="128" version="1.2" viewBox="0,0,128,128" width="128" xmlns="http://www.w3.org/2000/svg" xmlns:ev="http://www.w3.org/2001/xml-events" xmlns:xlink="http://www.w3.org/1999/xlink"><defs /><polyline fill="none" points="45.9932,31.2407 43.3898,25.1661 32.9763,17.7898 19.9593,12.5831 11.2814,13.0169 8.678,17.7898 9.5458,27.7695 14.3186,32.5424 22.5627,38.6169 28.6373,45.5593" stroke="#00007f" stroke-width="2" /><polyline fill="none" points="44.6915,31.2407 55.9729,26.4678 64.2169,24.7322 78.5356,24.7322 85.478,31.2407 87.2136,28.6373 89.8169,14.3186 92.4203,11.7153 101.5322,8.678 111.078,8.678 114.5492,9.9797 116.7186,12.5831 119.322,22.5627 118.4542,26.0339 112.3797,32.9763" stroke="#0000de" stroke-width="2" /><polyline fill="none" points="115.8508,30.8068 112.3797,41.2203 106.739,49.0305 107.1729,76.3661 102.8339,85.9119 96.7593,93.2881 88.9492,98.4949 71.5932,102.8339 55.1051,102.8339 49.0305,101.0983 32.9763,94.1559 23.8644,87.2136 21.6949,78.1017 21.6949,57.7085 26.0339,45.5593" stroke="#0028ff" stroke-width="2" /><polyline fill="none" points="56.8407,57.2746 47.7288,59.878 40.7864,65.5186" stroke="#0080ff" stroke-width="2" /><polyline fill="none" points="66.8203,68.9898 56.4068,69.4237 52.0678,73.3288" stroke="#00d4ff" stroke-width="2" /><polyline fill="none" points="82.0068,58.5763 88.9492,55.539 95.4576,55.1051 101.0983,55.1051 105.0034,56.8407" stroke="#36ffc0" stroke-width="2" /><polyline fill="none" points="80.2712,75.9322 100.2305,76.8" stroke="#7cff79" stroke-width="2" /><polyline fill="none" points="70.2915,72.8949 69.4237,76.3661 62.9153,82.4407 44.6915,86.7797" stroke="#c0ff36" stroke-width="2" /><polyline fill="none" points="75.4983,87.2136 87.2136,90.2508 96.3254,90.2508 103.7017,86.3458" stroke="#ffe500" stroke-width="2" /><polyline fill="none" points="59.878,41.6542 56.8407,39.9186 52.5017,39.9186" stroke="#ff9400" stroke-width="2" /><polyline fill="none" points="82.4407,39.9186 86.3458,39.9186" stroke="#ff4600" stroke-width="2" /><polyline fill="none" points="55.1051,45.9932 42.9559,47.2949 62.9153,43.8237 53.3695,43.8237" stroke="#de0000" stroke-width="2" /><polyline fill="none" points="88.5153,48.1627 88.9492,43.3898 86.7797,44.6915 85.478,41.2203" stroke="#7f0000" stroke-width="2" /></svg>