<?xml version="1.0" encoding="utf-8" ?>
<svg baseProfile="tiny" height="128" version="1.2" viewBox="0,0,128,128" width="128" xmlns="http://www.w3.org/2000/svg" xmlns:ev="http://www.w3.org/2001/xml-events" xmlns:xlink="http://www.w3.org/1999/xlink"><defs /><polyline fill="none" points="32.8767,30.2466 32.4384,26.3014 39.0137,13.589 42.0822,9.6438 46.4658,8.7671 50.411,9.6438 54.7945,13.589 59.1781,24.9863 89.863,32.0 87.2329,22.7945 86.7945,14.9041 92.0548,10.0822 99.9452,9.2055 110.9041,17.0959 116.6027,26.7397 116.6027,31.5616 109.1507,54.7945 104.7671,62.6849 95.5616,73.6438 85.4795,81.9726 73.2055,88.1096 60.4932,90.3014 48.2192,90.3014 42.0822,88.1096 32.8767,79.3425 28.4932,72.7671 25.4247,63.5616 24.5479,45.1507 32.4384,23.2329" stroke="#00007f" stroke-width="2" /><polyline fill="none" points="39.8904,31.1233 41.2055,31.5616 39.0137,32.4384 35.0685,33.7534 8.7671,35.5068" stroke="#0010ff" stroke-width="2" /><polyline fill="none" points="48.6575,50.8493 11.8356,60.4932" stroke="#00a4ff" stroke-width="2" /><polyline fill="none" points="42.9589,68.3836 29.3699,78.4658 14.0274,88.1096 13.1507,88.5479 15.3425,88.1096" stroke="#3fffb7" stroke-width="2" /><polyline fill="none" points="85.9178,48.2192 91.1781,49.5342 110.0274,58.7397 119.2329,64.8767 116.6027,64.8767" stroke="#b7ff3f" stroke-width="2" /><polyline fill="none" points="74.9589,58.3014 78.0274,59.1781 114.411,85.9178" stroke="#ffb900" stroke-width="2" /><polyline fill="none" points="70.137,75.3973 106.9589,100.3836 108.7123,101.6986 107.8356,99.9452" stroke="#ff3000" stroke-width="2" /><polyline fill="none" points="64.4384,37.2603 64.4384,37.2603" stroke="#7f0000" stroke-width="2" /></svg>