<?xml version="1.0" encoding="utf-8" ?>
<svg baseProfile="tiny" height="128" version="1.2" viewBox="0,0,128,128" width="128" xmlns="http://www.w3.org/2000/svg" xmlns:ev="http://www.w3.org/2001/xml-events" xmlns:xlink="http://www.w3.org/1999/xlink"><defs /><polyline fill="none" points="31.6746,51.6339 25.6,52.0678 17.3559,55.9729 11.7153,61.1797 8.678,66.8203 9.1119,73.3288 11.7153,76.3661 18.6576,78.5356 26.9017,77.2339 29.939,73.7627 35.1458,58.5763 35.1458,52.9356 34.278,52.0678 30.3729,51.6339 28.2034,53.3695" stroke="#00007f" stroke-width="2" /><polyline fill="none" points="26.9017,49.8983 59.0102,49.0305 73.3288,53.8034 84.6102,62.9153 88.9492,70.2915 90.6847,77.2339 89.8169,82.4407 84.1763,86.3458 66.3864,91.9864 53.8034,93.2881 48.1627,92.8542 36.0136,86.3458 29.5051,79.8373 27.7695,75.0644" stroke="#0000ff" stroke-width="2" /><polyline fill="none" points="85.9119,72.0271 88.0814,72.8949 89.8169,71.1593 93.2881,49.4644 100.2305,38.6169 110.6441,14.7525 118.0203,8.678" stroke="#0080ff" stroke-width="2" /><polyline fill="none" points="39.4847,86.3458 40.3525,111.9458 42.0881,119.322" stroke="#15ffe1" stroke-width="2" /><polyline fill="none" points="54.6712,96.3254 58.5763,112.8136" stroke="#7cff79" stroke-width="2" /><polyline fill="none" points="70.7254,90.6847 76.3661,110.2102" stroke="#e4ff12" stroke-width="2" /><polyline fill="none" points="82.8746,85.478 90.6847,101.0983" stroke="#ff9400" stroke-width="2" /><polyline fill="none" points="19.9593,68.9898 18.6576,60.7458 17.3559,62.4814" stroke="#ff1d00" stroke-width="2" /><polyline fill="none" points="27.3356,61.1797 29.939,62.9153 29.939,60.3119 26.4678,58.1424 27.7695,63.7831" stroke="#7f0000" stroke-width="2" /></svg>