<?xml version="1.0" encoding="utf-8" ?>
<svg baseProfile="tiny" height="128" version="1.2" viewBox="0,0,128,128" width="128" xmlns="http://www.w3.org/2000/svg" xmlns:ev="http://www.w3.org/2001/xml-events" xmlns:xlink="http://www.w3.org/1999/xlink"><defs /><polyline fill="none" points="34.5119,46.3072 34.5119,17.9113 36.6962,20.5324 40.628,32.7645 44.9966,39.3174 56.3549,38.0068 65.0922,38.4437 74.2662,8.7372 78.198,27.0853 79.5085,41.5017 83.0034,48.9283 84.7509,64.6553 76.4505,72.9556 69.8976,77.3242 58.5392,76.8874 46.3072,72.0819 34.0751,61.5973 32.7645,59.8498 33.6382,51.1126" stroke="#00007f" stroke-width="2" /><polyline fill="none" points="40.1911,58.5392 29.2696,60.2867 8.7372,68.1502" stroke="#004cff" stroke-width="2" /><polyline fill="none" points="44.9966,64.2184 38.8805,64.6553 34.0751,66.4027 17.4744,76.8874" stroke="#29ffcd" stroke-width="2" /><polyline fill="none" points="78.6348,51.9863 93.9249,44.5597 100.9147,42.8123 119.2628,41.0648" stroke="#cdff29" stroke-width="2" /><polyline fill="none" points="81.6928,58.1024 85.6246,55.4812 99.1672,51.9863 115.3311,50.6758" stroke="#ff6700" stroke-width="2" /><polyline fill="none" points="59.8498,57.6655 59.8498,57.6655" stroke="#7f0000" stroke-width="2" /></svg>