<?xml version="1.0" encoding="utf-8" ?>
<svg baseProfile="tiny" height="128" version="1.2" viewBox="0,0,128,128" width="128" xmlns="http://www.w3.org/2000/svg" xmlns:ev="http://www.w3.org/2001/xml-events" xmlns:xlink="http://www.w3.org/1999/xlink"><defs /><polyline fill="none" points="37.7492,39.4847 36.8814,36.0136 43.8237,8.678 57.2746,37.3153 67.2542,34.278 75.9322,33.8441 93.722,39.0508 99.7966,29.0712 115.8508,16.922 116.7186,48.5966 115.4169,51.2 109.7763,60.7458 102.4,68.9898 91.9864,76.8 78.1017,83.3085 55.9729,85.478 42.522,81.5729 35.5797,75.9322 31.6746,70.2915 27.7695,60.3119 26.9017,49.0305 31.2407,38.6169 36.8814,36.0136" stroke="#00007f" stroke-width="2" /><polyline fill="none" points="61.1797,59.878 62.9153,61.1797 65.5186,59.4441 68.122,55.1051 65.0847,55.9729 62.9153,59.4441 62.0475,57.7085 59.878,59.4441 63.3492,61.1797 59.878,72.0271 56.8407,74.1966 51.2,73.3288 56.8407,75.9322 64.6508,75.9322 66.3864,73.3288" stroke="#0000fe" stroke-width="2" /><polyline fill="none" points="42.522,50.7661 42.522,51.2" stroke="#0060ff" stroke-width="2" /><polyline fill="none" points="39.0508,52.0678 30.8068,52.9356 20.8271,58.1424 12.1492,65.0847 8.678,71.1593" stroke="#00d4ff" stroke-width="2" /><polyline fill="none" points="41.6542,57.7085 26.0339,68.5559 20.3932,76.3661" stroke="#4cffaa" stroke-width="2" /><polyline fill="none" points="84.6102,64.6508 94.1559,65.0847 103.2678,68.122 114.9831,74.6305 119.322,80.7051" stroke="#aaff4c" stroke-width="2" /><polyline fill="none" points="78.5356,70.2915 100.2305,88.0814" stroke="#ffe500" stroke-width="2" /><polyline fill="none" points="81.139,47.2949 81.5729,47.7288" stroke="#ff7a00" stroke-width="2" /><polyline fill="none" points="41.6542,50.3322 45.5593,49.0305" stroke="#fe1200" stroke-width="2" /><polyline fill="none" points="50.3322,46.4271 47.7288,50.7661 45.9932,47.7288 44.6915,51.2 46.861,52.9356 49.8983,52.9356 54.6712,49.4644 56.4068,45.5593 53.8034,45.1254 49.8983,48.5966 49.8983,49.8983 51.2,49.8983 52.9356,47.2949 50.7661,52.0678 54.2373,54.2373" stroke="#7f0000" stroke-width="2" /></svg>