<?xml version="1.0" encoding="utf-8" ?>
<svg baseProfile="tiny" height="128" version="1.2" viewBox="0,0,128,128" width="128" xmlns="http://www.w3.org/2000/svg" xmlns:ev="http://www.w3.org/2001/xml-events" xmlns:xlink="http://www.w3.org/1999/xlink"><defs /><polyline fill="none" points="22.9966,32.1085 26.4678,8.678 38.1831,21.261 42.9559,30.8068 65.0847,31.2407 72.0271,30.8068 73.7627,29.5051 80.7051,19.5254 84.6102,8.678 89.3831,19.5254 101.5322,38.6169 104.1356,45.5593 110.6441,78.1017 109.7763,82.8746 106.3051,88.5153 97.6271,98.061 91.9864,102.4 88.0814,102.8339 70.2915,103.2678 51.2,100.6644 29.5051,95.4576 20.3932,91.9864 16.922,87.6475 14.7525,72.461 16.922,59.4441 25.1661,38.6169 26.0339,28.2034" stroke="#00007f" stroke-width="2" /><polyline fill="none" points="39.9186,49.8983 42.0881,55.9729 43.3898,55.9729 45.1254,53.3695 46.4271,48.1627 43.3898,46.4271 41.6542,49.0305 41.6542,54.6712 44.6915,57.2746 46.4271,51.2 43.3898,49.4644 42.0881,52.0678 42.9559,53.8034 45.5593,54.2373 43.8237,48.5966 44.6915,47.2949" stroke="#0000fe" stroke-width="2" /><polyline fill="none" points="66.8203,49.8983 68.5559,57.7085 70.2915,59.878 72.8949,56.4068 72.8949,52.0678 72.461,49.4644 69.4237,47.7288 68.122,49.4644 68.9898,55.1051 70.2915,55.9729 72.0271,54.2373 72.461,49.8983 69.4237,49.0305 67.6881,50.3322 66.8203,57.2746" stroke="#0060ff" stroke-width="2" /><polyline fill="none" points="54.2373,72.461 58.1424,70.7254 58.5763,73.3288 55.9729,75.0644 53.8034,71.5932 55.539,70.7254 56.4068,71.5932 53.3695,72.0271 36.0136,65.9525" stroke="#00d4ff" stroke-width="2" /><polyline fill="none" points="12.1492,61.1797 22.1288,62.9153 25.1661,63.7831 21.261,64.2169" stroke="#4cffaa" stroke-width="2" /><polyline fill="none" points="8.678,68.5559 26.4678,68.9898 19.0915,71.1593" stroke="#aaff4c" stroke-width="2" /><polyline fill="none" points="9.1119,74.6305 26.0339,73.7627" stroke="#ffe500" stroke-width="2" /><polyline fill="none" points="85.9119,59.878 103.2678,57.7085 113.2475,58.1424" stroke="#ff7a00" stroke-width="2" /><polyline fill="none" points="94.5898,68.9898 108.4746,68.9898 119.322,71.1593 118.0203,71.5932" stroke="#fe1200" stroke-width="2" /><polyline fill="none" points="95.4576,80.7051 105.4373,85.478 116.7186,87.2136 116.7186,88.5153" stroke="#7f0000" stroke-width="2" /></svg>