<?xml version="1.0" encoding="utf-8" ?>
<svg baseProfile="tiny" height="128" version="1.2" viewBox="0,0,128,128" width="128" xmlns="http://www.w3.org/2000/svg" xmlns:ev="http://www.w3.org/2001/xml-events" xmlns:xlink="http://www.w3.org/1999/xlink"><defs /><polyline fill="none" points="45.7143,19.1565 33.9592,18.2857 29.6054,19.5918 26.9932,28.7347 29.1701,41.3605 33.5238,48.3265 40.0544,50.5034 55.7279,52.2449 61.8231,48.7619 65.7415,39.1837 65.7415,33.0884 62.6939,23.5102 57.9048,19.1565 44.8435,20.0272" stroke="#00007f" stroke-width="2" /><polyline fill="none" points="41.3605,24.8163 40.0544,24.8163 40.4898,26.9932 43.102,26.5578 42.6667,25.6871 36.5714,23.9456" stroke="#0000de" stroke-width="2" /><polyline fill="none" points="51.8095,24.8163 51.3741,24.381" stroke="#0028ff" stroke-width="2" /><polyline fill="none" points="47.8912,28.2993 45.7143,35.2653" stroke="#0080ff" stroke-width="2" /><polyline fill="none" points="48.3265,28.2993 50.5034,35.7007 46.585,36.1361 43.9728,34.8299 46.1497,34.3946" stroke="#00d4ff" stroke-width="2" /><polyline fill="none" points="47.8912,35.7007 46.1497,39.1837 43.5374,41.3605 48.3265,34.8299 48.7619,44.8435 50.9388,41.3605 50.5034,37.4422 49.1973,37.0068" stroke="#36ffc0" stroke-width="2" /><polyline fill="none" points="29.6054,19.1565 29.1701,12.1905 30.4762,8.7075 38.7483,19.5918" stroke="#7cff79" stroke-width="2" /><polyline fill="none" points="47.4558,20.0272 57.034,10.0136 60.517,22.6395" stroke="#c0ff36" stroke-width="2" /><polyline fill="none" points="56.5986,32.6531 79.2381,17.415" stroke="#ffe500" stroke-width="2" /><polyline fill="none" points="62.2585,34.3946 80.1088,27.8639" stroke="#ff9400" stroke-width="2" /><polyline fill="none" points="62.6939,41.3605 94.4762,40.4898 119.2925,37.4422" stroke="#ff4600" stroke-width="2" /><polyline fill="none" points="28.7347,32.2177 9.1429,28.2993" stroke="#de0000" stroke-width="2" /><polyline fill="none" points="27.8639,39.1837 13.4966,39.1837 8.7075,40.4898" stroke="#7f0000" stroke-width="2" /></svg>