<?xml version="1.0" encoding="utf-8" ?>
<svg baseProfile="tiny" height="128" version="1.2" viewBox="0,0,128,128" width="128" xmlns="http://www.w3.org/2000/svg" xmlns:ev="http://www.w3.org/2001/xml-events" xmlns:xlink="http://www.w3.org/1999/xlink"><defs /><polyline fill="none" points="50.3322,23.4305 46.861,23.8644 43.3898,26.0339 34.7119,34.278 31.6746,42.522 31.2407,49.8983 35.1458,58.5763 41.6542,66.3864 57.2746,73.7627 72.8949,75.4983 82.0068,72.8949 85.478,70.2915 90.2508,63.3492 91.5525,49.4644 85.9119,38.1831 74.6305,28.6373 61.1797,22.5627 52.0678,21.261 43.3898,22.1288" stroke="#00007f" stroke-width="2" /><polyline fill="none" points="48.1627,32.1085 49.4644,45.9932" stroke="#0000de" stroke-width="2" /><polyline fill="none" points="65.9525,36.0136 65.9525,45.5593 68.122,50.7661" stroke="#0028ff" stroke-width="2" /><polyline fill="none" points="54.6712,52.0678 58.1424,55.9729 58.1424,50.3322 56.4068,49.0305 54.2373,50.3322" stroke="#0080ff" stroke-width="2" /><polyline fill="none" points="58.1424,52.5017 57.7085,58.1424 55.1051,61.6136 49.8983,62.4814 45.5593,59.4441" stroke="#00d4ff" stroke-width="2" /><polyline fill="none" points="56.8407,56.8407 59.0102,60.7458 67.2542,62.4814 75.9322,56.8407" stroke="#36ffc0" stroke-width="2" /><polyline fill="none" points="82.8746,52.9356 95.0237,47.7288 111.5119,45.9932" stroke="#7cff79" stroke-width="2" /><polyline fill="none" points="82.4407,57.7085 119.322,57.7085" stroke="#c0ff36" stroke-width="2" /><polyline fill="none" points="82.0068,67.2542 119.322,76.3661" stroke="#ffe500" stroke-width="2" /><polyline fill="none" points="40.7864,49.8983 8.678,45.9932" stroke="#ff9400" stroke-width="2" /><polyline fill="none" points="41.2203,53.8034 32.9763,57.2746 16.4881,60.7458" stroke="#ff4600" stroke-width="2" /><polyline fill="none" points="47.7288,60.7458 19.0915,75.9322" stroke="#de0000" stroke-width="2" /><polyline fill="none" points="37.3153,26.9017 37.3153,13.0169 40.3525,8.678 42.522,9.9797 50.7661,28.6373 52.9356,28.6373 55.539,26.0339" stroke="#7f0000" stroke-width="2" /></svg>