<?xml version="1.0" encoding="utf-8" ?>
<svg baseProfile="tiny" height="128" version="1.2" viewBox="0,0,128,128" width="128" xmlns="http://www.w3.org/2000/svg" xmlns:ev="http://www.w3.org/2001/xml-events" xmlns:xlink="http://www.w3.org/1999/xlink"><defs /><polyline fill="none" points="106.739,26.9017 100.6644,29.5051 97.6271,36.4475 97.1932,42.522 99.3627,49.0305 107.6068,49.0305 113.6814,45.9932 116.7186,42.9559 117.5864,38.6169 117.1525,31.6746 112.3797,26.0339 105.8712,25.1661 99.7966,27.7695" stroke="#00007f" stroke-width="2" /><polyline fill="none" points="102.4,34.7119 106.739,34.278" stroke="#0000de" stroke-width="2" /><polyline fill="none" points="109.7763,34.278 112.8136,33.8441" stroke="#0028ff" stroke-width="2" /><polyline fill="none" points="107.6068,39.9186 118.0203,39.4847" stroke="#0080ff" stroke-width="2" /><polyline fill="none" points="106.739,43.8237 119.322,45.1254" stroke="#00d4ff" stroke-width="2" /><polyline fill="none" points="106.739,43.3898 115.8508,49.4644" stroke="#36ffc0" stroke-width="2" /><polyline fill="none" points="102.4,40.7864 93.2881,40.7864" stroke="#7cff79" stroke-width="2" /><polyline fill="none" points="105.0034,44.6915 95.8915,45.1254" stroke="#c0ff36" stroke-width="2" /><polyline fill="none" points="104.1356,40.3525 104.1356,41.6542" stroke="#ffe500" stroke-width="2" /><polyline fill="none" points="102.4,27.7695 96.7593,26.4678 88.9492,29.5051 81.5729,29.5051 42.522,27.7695 23.8644,30.8068 22.9966,36.4475 27.3356,42.0881 49.0305,50.3322 58.1424,51.6339 68.5559,51.2 95.0237,44.6915" stroke="#ff9400" stroke-width="2" /><polyline fill="none" points="24.2983,37.3153 20.3932,37.3153 13.8847,34.278 10.8475,18.2237 8.678,18.2237 8.678,8.678" stroke="#ff4600" stroke-width="2" /><polyline fill="none" points="49.8983,51.6339 47.7288,55.1051 48.1627,62.4814 49.8983,64.6508 55.539,65.9525 63.3492,65.5186 54.2373,62.9153 54.6712,51.6339" stroke="#de0000" stroke-width="2" /><polyline fill="none" points="76.8,51.2 78.1017,63.7831 81.139,64.6508 87.2136,62.9153" stroke="#7f0000" stroke-width="2" /></svg>