<?xml version="1.0" encoding="utf-8" ?>
<svg baseProfile="tiny" height="128" version="1.2" viewBox="0,0,128,128" width="128" xmlns="http://www.w3.org/2000/svg" xmlns:ev="http://www.w3.org/2001/xml-events" xmlns:xlink="http://www.w3.org/1999/xlink"><defs /><polyline fill="none" points="64.2169,53.8034 59.0102,53.3695 44.6915,56.4068 35.5797,62.4814 27.7695,74.6305 26.4678,87.2136 33.4102,95.8915 39.0508,98.4949 55.9729,100.6644 65.0847,100.6644 91.9864,96.3254 103.7017,87.2136 103.2678,73.7627 95.4576,63.3492 85.0441,54.2373 74.1966,48.5966 67.6881,46.4271 60.3119,45.5593 46.861,48.5966 32.1085,59.878 14.7525,83.3085" stroke="#00007f" stroke-width="2" /><polyline fill="none" points="25.6,58.5763 18.2237,49.8983 13.4508,38.6169 9.9797,25.1661 8.678,13.8847 24.2983,19.9593 48.5966,38.1831" stroke="#0010ff" stroke-width="2" /><polyline fill="none" points="80.7051,51.6339 85.0441,45.5593 119.322,8.678 113.2475,34.278 95.4576,69.8576" stroke="#00a4ff" stroke-width="2" /><polyline fill="none" points="50.3322,78.9695 26.9017,78.5356" stroke="#3fffb7" stroke-width="2" /><polyline fill="none" points="46.861,87.2136 19.5254,102.4 9.9797,110.2102" stroke="#b7ff3f" stroke-width="2" /><polyline fill="none" points="60.7458,87.6475 60.7458,87.6475" stroke="#ffb900" stroke-width="2" /><polyline fill="none" points="79.4034,85.0441 91.1186,81.139 111.078,71.5932" stroke="#ff3000" stroke-width="2" /><polyline fill="none" points="84.1763,100.6644 99.7966,108.4746 105.8712,109.3424" stroke="#7f0000" stroke-width="2" /></svg>