<?xml version="1.0" encoding="utf-8" ?>
<svg baseProfile="tiny" height="128" version="1.2" viewBox="0,0,128,128" width="128" xmlns="http://www.w3.org/2000/svg" xmlns:ev="http://www.w3.org/2001/xml-events" xmlns:xlink="http://www.w3.org/1999/xlink"><defs /><polyline fill="none" points="34.7119,76.3661 42.522,77.6678 56.4068,77.6678 63.3492,76.3661 78.9695,68.5559 89.3831,59.878 92.4203,54.2373 91.9864,44.6915 85.9119,35.1458 78.1017,32.5424 65.0847,32.5424 55.1051,35.1458 38.6169,44.6915 25.1661,55.9729 24.7322,66.8203 29.0712,75.0644 31.6746,77.6678 36.4475,78.5356 45.5593,77.2339" stroke="#00007f" stroke-width="2" /><polyline fill="none" points="45.9932,48.1627 45.9932,58.5763" stroke="#0000de" stroke-width="2" /><polyline fill="none" points="69.4237,43.8237 72.0271,51.2" stroke="#0028ff" stroke-width="2" /><polyline fill="none" points="59.4441,61.6136 59.4441,63.3492 61.6136,63.7831 62.4814,62.0475 61.1797,61.6136" stroke="#0080ff" stroke-width="2" /><polyline fill="none" points="70.7254,62.4814 119.322,63.7831" stroke="#00d4ff" stroke-width="2" /><polyline fill="none" points="65.9525,67.6881 68.5559,69.8576 93.722,74.1966" stroke="#36ffc0" stroke-width="2" /><polyline fill="none" points="45.9932,73.7627 32.5424,76.3661 8.678,84.6102" stroke="#7cff79" stroke-width="2" /><polyline fill="none" points="38.1831,76.3661 36.0136,81.139 27.3356,89.8169 24.2983,91.5525" stroke="#c0ff36" stroke-width="2" /><polyline fill="none" points="26.9017,53.8034 17.7898,22.5627 36.8814,37.7492" stroke="#ffe500" stroke-width="2" /><polyline fill="none" points="39.4847,39.9186 39.9186,40.3525" stroke="#ff9400" stroke-width="2" /><polyline fill="none" points="71.1593,30.8068 78.1017,21.261 90.2508,8.678 90.6847,39.9186" stroke="#ff4600" stroke-width="2" /><polyline fill="none" points="78.9695,30.8068 84.1763,26.4678 85.9119,35.1458" stroke="#de0000" stroke-width="2" /><polyline fill="none" points="37.3153,42.522 35.5797,42.0881" stroke="#7f0000" stroke-width="2" /></svg>