<?xml version="1.0" encoding="utf-8" ?>
<svg baseProfile="tiny" height="128" version="1.2" viewBox="0,0,128,128" width="128" xmlns="http://www.w3.org/2000/svg" xmlns:ev="http://www.w3.org/2001/xml-events" xmlns:xlink="http://www.w3.org/1999/xlink"><defs /><polyline fill="none" points="96.3254,16.4881 97.1932,14.7525 92.4203,10.4136 83.7424,8.678 77.2339,9.9797 73.7627,13.4508 72.0271,18.6576 72.461,23.8644 76.8,28.2034 82.0068,30.3729 91.1186,30.8068 96.7593,29.5051 100.6644,26.9017 102.4,21.261 101.0983,15.6203 95.4576,12.1492 88.0814,12.1492" stroke="#00007f" stroke-width="2" /><polyline fill="none" points="69.4237,19.5254 60.7458,16.922 40.3525,16.0542" stroke="#0000d5" stroke-width="2" /><polyline fill="none" points="39.4847,16.0542 32.1085,17.3559 24.7322,21.6949" stroke="#001cff" stroke-width="2" /><polyline fill="none" points="68.122,21.6949 67.6881,17.7898 64.2169,16.0542 33.4102,15.6203 23.8644,19.5254 22.1288,22.5627 22.9966,25.6 29.5051,27.7695 46.861,29.5051 77.6678,29.5051 80.2712,27.3356 77.6678,22.5627 67.6881,16.922 62.0475,16.0542" stroke="#006cff" stroke-width="2" /><polyline fill="none" points="40.7864,26.4678 37.3153,27.7695 34.278,31.6746 32.5424,45.1254 36.4475,51.6339 39.4847,52.0678 42.0881,50.3322 45.1254,42.9559 45.9932,33.8441 41.2203,26.9017 39.4847,26.9017 38.6169,29.0712" stroke="#00b8ff" stroke-width="2" /><polyline fill="none" points="68.122,29.939 65.0847,30.3729 62.4814,34.278 60.3119,48.5966 62.4814,52.5017 66.3864,55.539 72.461,55.539 75.4983,51.6339 77.6678,34.7119 73.3288,30.3729 68.122,29.0712" stroke="#1cffda" stroke-width="2" /><polyline fill="none" points="26.9017,19.5254 21.261,29.5051 14.3186,30.3729 10.4136,28.2034 8.678,25.1661 8.678,17.3559 9.9797,15.6203" stroke="#5cff9a" stroke-width="2" /><polyline fill="none" points="79.4034,13.8847 78.9695,16.0542 82.4407,16.922 83.3085,14.7525 82.4407,13.8847 77.2339,14.7525" stroke="#9aff5c" stroke-width="2" /><polyline fill="none" points="98.061,16.0542 97.6271,15.1864 92.8542,15.1864 91.1186,17.3559 91.9864,19.0915 96.3254,18.6576 96.7593,16.922 93.2881,16.0542" stroke="#daff1c" stroke-width="2" /><polyline fill="none" points="85.9119,17.7898 85.478,22.5627" stroke="#ffcb00" stroke-width="2" /><polyline fill="none" points="79.8373,24.7322 83.3085,26.9017 89.3831,26.9017 95.4576,24.7322" stroke="#ff8500" stroke-width="2" /><polyline fill="none" points="94.5898,22.1288 110.2102,22.9966" stroke="#ff3b00" stroke-width="2" /><polyline fill="none" points="97.1932,24.2983 98.4949,25.6 108.9085,25.6" stroke="#d50000" stroke-width="2" /><polyline fill="none" points="96.7593,27.3356 101.0983,29.939 119.322,32.9763" stroke="#7f0000" stroke-width="2" /></svg>