<?xml version="1.0" encoding="utf-8" ?>
<svg baseProfile="tiny" height="128" version="1.2" viewBox="0,0,128,128" width="128" xmlns="http://www.w3.org/2000/svg" xmlns:ev="http://www.w3.org/2001/xml-events" xmlns:xlink="http://www.w3.org/1999/xlink"><defs /><polyline fill="none" points="14.3186,24.2983 15.6203,13.4508 17.7898,8.678 18.6576,16.922 22.1288,23.8644 23.8644,25.1661 37.3153,24.7322 38.1831,16.922 43.8237,10.8475 44.2576,24.7322 50.3322,27.7695 52.5017,34.7119 52.0678,42.9559 49.0305,51.2 45.5593,54.6712 38.1831,56.4068 24.7322,56.8407 16.0542,54.2373 10.8475,45.9932 8.678,33.8441 10.8475,25.6 13.4508,24.7322" stroke="#00007f" stroke-width="2" /><polyline fill="none" points="21.261,29.5051 20.3932,37.7492 22.5627,38.1831 24.2983,35.5797 23.8644,31.2407 21.261,29.939" stroke="#0000de" stroke-width="2" /><polyline fill="none" points="34.278,31.6746 33.8441,40.3525 36.4475,41.2203 38.1831,39.4847 38.6169,34.7119 34.7119,30.8068" stroke="#0028ff" stroke-width="2" /><polyline fill="none" points="36.0136,35.1458 36.0136,38.1831" stroke="#0080ff" stroke-width="2" /><polyline fill="none" points="22.5627,34.278 22.5627,34.7119" stroke="#00d4ff" stroke-width="2" /><polyline fill="none" points="27.3356,46.4271 21.261,45.9932" stroke="#36ffc0" stroke-width="2" /><polyline fill="none" points="25.6,45.9932 25.1661,49.0305 23.4305,51.6339" stroke="#7cff79" stroke-width="2" /><polyline fill="none" points="28.2034,45.9932 28.2034,51.6339" stroke="#c0ff36" stroke-width="2" /><polyline fill="none" points="29.0712,45.9932 35.1458,43.3898" stroke="#ffe500" stroke-width="2" /><polyline fill="none" points="29.0712,46.4271 33.8441,48.5966" stroke="#ff9400" stroke-width="2" /><polyline fill="none" points="29.939,48.1627 32.5424,52.0678 33.8441,52.9356 32.9763,50.7661" stroke="#ff4600" stroke-width="2" /><polyline fill="none" points="26.0339,44.2576 25.6,42.0881 23.4305,41.2203" stroke="#de0000" stroke-width="2" /><polyline fill="none" points="53.3695,38.1831 82.4407,37.7492 88.0814,40.7864 97.1932,40.7864 108.4746,35.1458 112.3797,34.7119 117.1525,39.4847 119.322,46.4271 118.8881,53.8034 114.5492,65.9525 112.3797,65.9525 103.2678,59.878 100.2305,49.8983" stroke="#7f0000" stroke-width="2" /></svg>