<?xml version="1.0" encoding="utf-8" ?>
<svg baseProfile="tiny" height="128" version="1.2" viewBox="0,0,128,128" width="128" xmlns="http://www.w3.org/2000/svg" xmlns:ev="http://www.w3.org/2001/xml-events" xmlns:xlink="http://www.w3.org/1999/xlink"><defs /><polyline fill="none" points="9.5458,53.3695 8.678,49.8983 10.4136,40.3525 16.922,18.6576 19.5254,14.3186 21.261,13.8847 31.2407,33.8441 36.0136,37.7492 58.5763,36.0136 72.8949,40.3525 85.9119,47.2949 95.0237,9.9797 97.1932,8.678 111.5119,49.4644" stroke="#00007f" stroke-width="2" /><polyline fill="none" points="14.3186,52.5017 12.5831,72.0271 16.922,83.3085 24.2983,95.0237 34.7119,105.4373 41.6542,109.7763 52.9356,112.3797 65.0847,112.8136 72.461,111.5119 83.7424,105.8712 91.9864,100.2305 102.8339,88.9492 113.2475,74.6305 116.2847,67.6881 119.322,47.7288" stroke="#0000f1" stroke-width="2" /><polyline fill="none" points="64.2169,68.5559 61.6136,68.9898 59.878,71.5932 58.1424,77.2339 58.1424,81.139 66.3864,80.7051 70.2915,70.7254 69.4237,65.5186 65.0847,62.0475 60.3119,61.6136" stroke="#004cff" stroke-width="2" /><polyline fill="none" points="62.4814,79.8373 62.9153,89.3831 60.7458,94.5898 58.1424,97.6271 42.0881,108.0407 32.1085,110.6441" stroke="#00b0ff" stroke-width="2" /><polyline fill="none" points="69.8576,80.7051 71.1593,88.0814 77.6678,96.7593 86.3458,100.6644 98.061,101.9661" stroke="#29ffcd" stroke-width="2" /><polyline fill="none" points="60.3119,75.0644 35.5797,65.5186" stroke="#7cff79" stroke-width="2" /><polyline fill="none" points="55.9729,77.6678 40.7864,78.1017 33.8441,76.3661" stroke="#cdff29" stroke-width="2" /><polyline fill="none" points="51.6339,81.5729 43.8237,82.0068 34.7119,87.2136" stroke="#ffc400" stroke-width="2" /><polyline fill="none" points="75.0644,68.9898 99.3627,64.2169" stroke="#ff6700" stroke-width="2" /><polyline fill="none" points="76.8,79.8373 93.2881,80.7051" stroke="#f10700" stroke-width="2" /><polyline fill="none" points="70.7254,80.7051 73.3288,80.7051 87.2136,92.8542 93.722,95.0237" stroke="#7f0000" stroke-width="2" /></svg>