<?xml version="1.0" encoding="utf-8" ?>
<svg baseProfile="tiny" height="128" version="1.2" viewBox="0,0,128,128" width="128" xmlns="http://www.w3.org/2000/svg" xmlns:ev="http://www.w3.org/2001/xml-events" xmlns:xlink="http://www.w3.org/1999/xlink"><defs /><polyline fill="none" points="23.3127,44.866 21.1134,32.5498 13.1959,8.7973 23.7526,17.1546 40.9072,34.3093 42.6667,34.7491 74.3368,34.3093 81.3746,36.0687 90.1718,12.3162 99.8488,39.5876 105.567,64.2199 106.8866,83.5739 106.4467,85.7732 103.3677,88.4124 98.5292,91.4914 87.9725,94.5704 73.457,95.4502 49.7045,90.1718 30.3505,82.6942 23.3127,76.5361 18.4742,54.543 20.6735,46.6254 24.6323,43.9863" stroke="#00007f" stroke-width="2" /><polyline fill="none" points="56.7423,58.9416 60.701,69.9381 60.701,75.2165 58.0619,77.4158 51.4639,76.0962 49.2646,71.6976 49.7045,68.1787" stroke="#0010ff" stroke-width="2" /><polyline fill="none" points="56.3024,59.8213 62.0206,70.378 65.5395,73.0172 72.1375,73.0172 74.3368,71.6976 76.5361,65.9794" stroke="#00a4ff" stroke-width="2" /><polyline fill="none" points="64.6598,63.3402 69.9381,59.3814 87.5326,52.7835" stroke="#3fffb7" stroke-width="2" /><polyline fill="none" points="69.0584,65.9794 94.5704,62.9003 119.2027,62.4605 119.2027,63.7801" stroke="#b7ff3f" stroke-width="2" /><polyline fill="none" points="75.2165,69.4983 95.4502,70.378" stroke="#ffb900" stroke-width="2" /><polyline fill="none" points="48.3849,67.299 27.2715,61.5808 8.7973,59.3814" stroke="#ff3000" stroke-width="2" /><polyline fill="none" points="40.9072,65.9794 38.268,66.8591" stroke="#7f0000" stroke-width="2" /></svg>