<?xml version="1.0" encoding="utf-8" ?>
<svg baseProfile="tiny" height="128" version="1.2" viewBox="0,0,128,128" width="128" xmlns="http://www.w3.org/2000/svg" xmlns:ev="http://www.w3.org/2001/xml-events" xmlns:xlink="http://www.w3.org/1999/xlink"><defs /><polyline fill="none" points="36.0136,44.2576 35.5797,31.2407 38.1831,17.7898 40.7864,20.8271 46.4271,33.4102 51.6339,38.1831 60.3119,33.4102 66.8203,32.1085 71.5932,32.1085 85.9119,36.0136 88.5153,26.9017 92.8542,19.0915 98.9288,12.1492 104.5695,8.678 105.0034,28.6373 102.4,41.2203" stroke="#00007f" stroke-width="2" /><polyline fill="none" points="32.9763,43.8237 28.6373,54.2373 28.2034,68.9898 29.5051,73.7627 32.9763,78.1017 37.7492,80.7051 46.4271,82.4407 57.7085,82.4407 87.2136,78.1017 95.4576,75.9322 101.0983,72.8949 105.8712,62.9153 107.1729,55.9729 105.8712,46.4271 103.7017,40.7864 102.8339,41.2203" stroke="#0000ff" stroke-width="2" /><polyline fill="none" points="91.1186,52.0678 119.322,54.2373" stroke="#0080ff" stroke-width="2" /><polyline fill="none" points="88.5153,61.1797 115.4169,62.9153" stroke="#15ffe1" stroke-width="2" /><polyline fill="none" points="94.5898,68.9898 115.4169,72.0271" stroke="#7cff79" stroke-width="2" /><polyline fill="none" points="8.678,60.3119 15.1864,60.3119 38.1831,54.2373" stroke="#e4ff12" stroke-width="2" /><polyline fill="none" points="14.3186,71.1593 41.2203,61.1797" stroke="#ff9400" stroke-width="2" /><polyline fill="none" points="25.1661,78.9695 35.1458,76.3661 49.0305,70.7254" stroke="#ff1d00" stroke-width="2" /><polyline fill="none" points="65.0847,61.6136 65.9525,68.5559 64.2169,71.1593 55.1051,75.0644 54.2373,71.1593" stroke="#7f0000" stroke-width="2" /></svg>