<?xml version="1.0" encoding="utf-8" ?>
<svg baseProfile="tiny" height="128" version="1.2" viewBox="0,0,128,128" width="128" xmlns="http://www.w3.org/2000/svg" xmlns:ev="http://www.w3.org/2001/xml-events" xmlns:xlink="http://www.w3.org/1999/xlink"><defs /><polyline fill="none" points="19.9593,108.9085 11.2814,98.4949 8.678,86.3458 9.5458,65.5186 12.5831,59.878 18.6576,53.8034 32.9763,48.1627 48.1627,46.861 59.0102,47.7288 65.5186,52.9356 73.3288,63.7831 75.0644,71.1593 73.7627,88.0814 64.2169,105.8712 54.6712,116.2847 42.522,119.322 38.6169,118.8881 32.5424,116.7186 29.0712,112.8136" stroke="#00007f" stroke-width="2" /><polyline fill="none" points="20.8271,57.2746 17.7898,55.9729 12.5831,45.5593 9.9797,13.8847 14.7525,12.1492 17.3559,14.7525 37.7492,42.0881" stroke="#004cff" stroke-width="2" /><polyline fill="none" points="61.1797,50.3322 64.2169,45.9932 71.5932,22.9966 81.139,8.678 82.8746,13.0169 82.4407,32.1085 78.9695,64.2169" stroke="#29ffcd" stroke-width="2" /><polyline fill="none" points="25.6,72.461 31.2407,71.5932" stroke="#cdff29" stroke-width="2" /><polyline fill="none" points="56.8407,70.7254 62.0475,69.8576" stroke="#ff6700" stroke-width="2" /><polyline fill="none" points="34.278,87.2136 33.8441,90.6847 41.2203,95.8915 48.1627,95.8915 52.5017,91.9864" stroke="#7f0000" stroke-width="2" /></svg>