<?xml version="1.0" encoding="utf-8" ?>
<svg baseProfile="tiny" height="128" version="1.2" viewBox="0,0,128,128" width="128" xmlns="http://www.w3.org/2000/svg" xmlns:ev="http://www.w3.org/2001/xml-events" xmlns:xlink="http://www.w3.org/1999/xlink"><defs /><polyline fill="none" points="31.2407,22.1288 28.6373,16.922 22.9966,17.3559 16.0542,23.4305 9.9797,34.278 9.9797,37.3153 13.4508,44.2576 24.2983,49.0305 31.2407,47.7288 34.7119,45.1254 37.7492,40.3525 38.6169,31.6746 35.5797,25.1661 29.5051,18.6576 26.0339,17.3559 20.8271,20.8271" stroke="#00007f" stroke-width="2" /><polyline fill="none" points="29.0712,19.5254 28.2034,17.7898 30.8068,12.1492 37.7492,8.678 39.0508,12.1492 36.4475,21.6949" stroke="#0000de" stroke-width="2" /><polyline fill="none" points="16.0542,22.1288 14.7525,18.6576 8.678,15.1864 12.5831,27.3356" stroke="#0028ff" stroke-width="2" /><polyline fill="none" points="30.8068,28.6373 29.0712,29.0712 29.0712,30.3729" stroke="#0080ff" stroke-width="2" /><polyline fill="none" points="22.5627,28.6373 22.1288,29.939 23.8644,30.3729 24.7322,29.0712 21.6949,29.0712 20.8271,32.1085" stroke="#00d4ff" stroke-width="2" /><polyline fill="none" points="28.6373,34.7119 26.9017,39.4847 34.278,40.7864" stroke="#36ffc0" stroke-width="2" /><polyline fill="none" points="30.3729,40.3525 21.6949,40.7864 19.5254,36.4475" stroke="#7cff79" stroke-width="2" /><polyline fill="none" points="37.3153,40.7864 43.3898,40.7864 61.6136,36.0136 69.8576,36.0136 84.1763,38.6169 91.5525,43.3898 95.4576,48.1627 98.061,55.9729 97.1932,64.2169 94.1559,69.8576 82.8746,76.3661 75.4983,78.1017 64.6508,77.6678 50.3322,71.5932 43.8237,64.6508 38.1831,52.5017 36.4475,44.2576" stroke="#c0ff36" stroke-width="2" /><polyline fill="none" points="100.6644,53.3695 102.8339,40.3525 102.8339,25.1661 107.1729,20.3932 111.9458,19.5254 116.2847,22.5627 118.8881,27.3356 119.322,33.4102 113.2475,44.2576 106.3051,50.7661 96.7593,56.8407" stroke="#ffe500" stroke-width="2" /><polyline fill="none" points="79.4034,76.8 79.4034,95.8915 75.0644,102.4 72.0271,101.9661 68.9898,98.061 70.7254,95.8915 73.3288,96.7593 75.4983,93.722 74.1966,77.6678" stroke="#ff9400" stroke-width="2" /><polyline fill="none" points="65.5186,74.1966 65.5186,83.3085 62.9153,84.1763 60.7458,82.8746 62.4814,77.6678" stroke="#ff4600" stroke-width="2" /><polyline fill="none" points="56.4068,75.0644 55.1051,81.139 52.0678,82.0068 50.3322,79.4034 52.9356,75.9322 52.0678,72.461" stroke="#de0000" stroke-width="2" /><polyline fill="none" points="46.861,66.3864 43.3898,96.7593 39.4847,102.4 36.0136,102.4 31.6746,97.6271 31.6746,93.722 33.4102,90.2508 37.3153,89.8169 38.6169,87.6475 42.9559,64.6508" stroke="#7f0000" stroke-width="2" /></svg>