<?xml version="1.0" encoding="utf-8" ?>
<svg baseProfile="tiny" height="128" version="1.2" viewBox="0,0,128,128" width="128" xmlns="http://www.w3.org/2000/svg" xmlns:ev="http://www.w3.org/2001/xml-events" xmlns:xlink="http://www.w3.org/1999/xlink"><defs /><polyline fill="none" points="10.8475,19.5254 19.5254,8.678 28.6373,19.5254 53.3695,16.0542 71.1593,24.2983 94.5898,9.1119 104.5695,21.261 101.0983,22.5627" stroke="#00007f" stroke-width="2" /><polyline fill="none" points="8.678,17.7898 16.922,32.5424 22.1288,38.1831 29.0712,43.3898 38.1831,46.4271 70.7254,46.4271 79.4034,43.3898 88.9492,38.1831 102.4,24.2983 102.4,22.1288 101.0983,21.261 85.0441,21.6949" stroke="#0000ff" stroke-width="2" /><polyline fill="none" points="42.522,27.3356 39.4847,27.7695 44.2576,28.6373" stroke="#0080ff" stroke-width="2" /><polyline fill="none" points="54.6712,29.5051 55.539,28.6373 54.2373,28.2034 49.8983,31.2407" stroke="#15ffe1" stroke-width="2" /><polyline fill="none" points="42.9559,36.4475 49.0305,40.7864 59.4441,45.1254 59.0102,43.3898" stroke="#7cff79" stroke-width="2" /><polyline fill="none" points="53.3695,36.0136 41.2203,42.9559 45.9932,45.9932 55.539,47.2949" stroke="#e4ff12" stroke-width="2" /><polyline fill="none" points="74.6305,36.0136 87.2136,37.3153 108.0407,36.8814 106.739,44.2576 108.4746,55.9729 93.722,57.7085 79.4034,55.1051 46.4271,42.0881 46.4271,44.6915 49.0305,47.7288 55.539,49.8983 57.7085,48.1627 59.0102,44.6915 57.2746,50.3322 61.1797,52.0678 67.2542,51.6339 66.8203,59.0102 69.8576,57.7085 73.7627,53.3695 73.7627,61.1797 74.6305,61.6136 83.7424,57.2746 85.478,61.6136 90.2508,62.0475 93.2881,60.7458 94.5898,62.9153 96.7593,62.9153 102.8339,58.1424 104.5695,55.1051" stroke="#ff9400" stroke-width="2" /><polyline fill="none" points="103.7017,51.2 102.4,55.1051" stroke="#ff1d00" stroke-width="2" /><polyline fill="none" points="105.8712,50.3322 114.9831,60.3119 116.2847,60.7458 118.8881,57.7085 119.322,54.2373 117.5864,49.8983 111.078,44.6915 108.9085,43.8237" stroke="#7f0000" stroke-width="2" /></svg>