<?xml version="1.0" encoding="utf-8" ?>
<svg baseProfile="tiny" height="128" version="1.2" viewBox="0,0,128,128" width="128" xmlns="http://www.w3.org/2000/svg" xmlns:ev="http://www.w3.org/2001/xml-events" xmlns:xlink="http://www.w3.org/1999/xlink"><defs /><polyline fill="none" points="95.8915,35.5797 94.1559,40.7864 93.722,57.2746 98.4949,64.6508 108.0407,65.0847 111.9458,62.4814 116.7186,57.7085 118.0203,48.5966 117.5864,38.1831 111.078,28.2034 98.9288,27.3356 95.8915,31.2407" stroke="#00007f" stroke-width="2" /><polyline fill="none" points="110.2102,28.2034 116.7186,19.0915 115.8508,32.1085" stroke="#0028ff" stroke-width="2" /><polyline fill="none" points="95.8915,26.0339 87.2136,19.5254 87.6475,26.9017 92.4203,37.3153" stroke="#00d4ff" stroke-width="2" /><polyline fill="none" points="103.7017,65.0847 108.0407,100.2305 108.4746,114.5492 107.1729,115.8508 105.0034,115.8508 99.7966,105.4373 97.1932,97.6271 96.3254,89.3831 96.7593,109.7763 95.0237,115.8508 93.2881,116.7186 89.8169,111.5119 88.5153,89.8169 75.0644,86.7797 55.9729,85.9119 48.5966,87.2136 47.7288,88.9492 48.1627,118.4542 45.5593,119.322 42.9559,115.4169 39.0508,90.6847 38.1831,110.6441 36.4475,114.9831 32.5424,118.0203 31.2407,114.9831 31.2407,106.3051 33.4102,78.1017 18.6576,62.0475 12.1492,51.2 9.5458,42.9559 8.678,31.2407 12.1492,13.8847 15.1864,9.1119 19.9593,8.678 19.9593,30.3729 22.1288,42.0881 30.8068,65.9525 37.3153,72.8949 65.0847,64.6508 85.0441,62.0475 96.7593,62.4814" stroke="#7cff79" stroke-width="2" /><polyline fill="none" points="112.8136,53.8034 111.9458,56.8407 108.4746,57.2746 106.3051,52.5017 103.2678,54.6712 100.2305,54.6712 98.4949,49.4644" stroke="#ffe500" stroke-width="2" /><polyline fill="none" points="109.7763,44.6915 109.7763,41.6542" stroke="#ff4600" stroke-width="2" /><polyline fill="none" points="103.2678,44.6915 103.2678,39.4847" stroke="#7f0000" stroke-width="2" /></svg>