<?xml version="1.0" encoding="utf-8" ?>
<svg baseProfile="tiny" height="128" version="1.2" viewBox="0,0,128,128" width="128" xmlns="http://www.w3.org/2000/svg" xmlns:ev="http://www.w3.org/2001/xml-events" xmlns:xlink="http://www.w3.org/1999/xlink"><defs /><polyline fill="none" points="15.6203,42.522 23.4305,16.0542 26.4678,9.9797 39.0508,33.4102 45.5593,36.0136 59.4441,36.4475 94.1559,33.4102 105.4373,8.678 108.0407,15.1864 112.3797,37.7492 112.3797,67.6881 111.078,73.7627 103.2678,88.5153 98.4949,94.1559 87.2136,103.7017 78.5356,108.9085 75.9322,108.4746 55.9729,99.7966 45.1254,91.5525 38.1831,84.6102 27.7695,69.8576 24.7322,60.7458 22.5627,37.3153" stroke="#00007f" stroke-width="2" /><polyline fill="none" points="42.9559,56.4068 42.9559,55.9729" stroke="#0000fe" stroke-width="2" /><polyline fill="none" points="42.9559,55.9729 42.9559,55.9729" stroke="#0060ff" stroke-width="2" /><polyline fill="none" points="96.7593,52.9356 96.7593,52.5017" stroke="#00d4ff" stroke-width="2" /><polyline fill="none" points="96.7593,52.5017 95.4576,52.9356" stroke="#4cffaa" stroke-width="2" /><polyline fill="none" points="56.4068,83.7424 59.878,75.0644 66.3864,68.5559 71.5932,70.7254 77.2339,75.4983 77.6678,78.9695 75.9322,84.1763 70.2915,88.9492 65.5186,89.3831 59.0102,83.7424" stroke="#aaff4c" stroke-width="2" /><polyline fill="none" points="90.6847,68.9898 115.8508,51.6339 115.4169,54.2373" stroke="#ffe500" stroke-width="2" /><polyline fill="none" points="86.7797,83.7424 90.6847,84.1763 100.6644,88.9492 106.3051,98.061" stroke="#ff7a00" stroke-width="2" /><polyline fill="none" points="53.3695,72.0271 49.0305,69.4237 39.4847,66.8203 13.4508,62.9153 8.678,62.0475 9.1119,65.5186" stroke="#fe1200" stroke-width="2" /><polyline fill="none" points="34.278,83.7424 34.7119,86.3458 18.2237,105.0034 9.5458,119.322" stroke="#7f0000" stroke-width="2" /></svg>