<?xml version="1.0" encoding="utf-8" ?>
<svg baseProfile="tiny" height="128" version="1.2" viewBox="0,0,128,128" width="128" xmlns="http://www.w3.org/2000/svg" xmlns:ev="http://www.w3.org/2001/xml-events" xmlns:xlink="http://www.w3.org/1999/xlink"><defs /><polyline fill="none" points="14.3186,49.4644 23.4305,32.5424 29.0712,14.3186 30.8068,16.0542 35.1458,30.3729 38.1831,34.7119 68.5559,36.0136 70.7254,35.1458 72.461,31.6746 79.4034,8.678 82.8746,13.0169 96.7593,51.6339 101.0983,59.4441 90.6847,74.1966 79.4034,79.8373 64.2169,83.7424 45.5593,84.6102 30.8068,81.5729 18.6576,76.8 10.4136,69.4237 8.678,65.0847 8.678,56.4068 10.4136,52.9356 14.7525,49.8983" stroke="#00007f" stroke-width="2" /><polyline fill="none" points="35.1458,55.9729 38.1831,57.7085 42.522,58.1424" stroke="#00d4ff" stroke-width="2" /><polyline fill="none" points="87.2136,54.6712 106.739,43.3898 119.322,39.4847" stroke="#ffe500" stroke-width="2" /><polyline fill="none" points="75.4983,67.2542 85.0441,65.9525 109.3424,58.5763" stroke="#7f0000" stroke-width="2" /></svg>