<?xml version="1.0" encoding="utf-8" ?>
<svg baseProfile="tiny" height="128" version="1.2" viewBox="0,0,128,128" width="128" xmlns="http://www.w3.org/2000/svg" xmlns:ev="http://www.w3.org/2001/xml-events" xmlns:xlink="http://www.w3.org/1999/xlink"><defs /><polyline fill="none" points="51.6339,25.6 57.2746,12.1492 59.0102,10.8475 66.8203,24.2983 67.6881,27.7695 71.5932,23.8644 75.0644,23.8644 85.0441,28.6373 86.3458,30.3729 90.2508,8.678 106.739,34.7119 110.2102,42.9559 110.2102,65.9525 107.6068,73.3288 103.7017,78.5356 98.4949,83.3085 88.5153,87.2136 81.139,89.3831 70.7254,90.2508 53.8034,80.2712 48.5966,75.9322 44.2576,68.5559 43.3898,33.8441 45.1254,29.0712 49.8983,24.7322" stroke="#00007f" stroke-width="2" /><polyline fill="none" points="62.0475,46.4271 62.0475,46.4271" stroke="#0000e8" stroke-width="2" /><polyline fill="none" points="62.9153,39.0508 62.9153,39.0508" stroke="#0038ff" stroke-width="2" /><polyline fill="none" points="57.2746,43.3898 57.2746,43.3898" stroke="#0094ff" stroke-width="2" /><polyline fill="none" points="57.2746,42.9559 61.1797,42.522 61.1797,39.9186" stroke="#0cf4ea" stroke-width="2" /><polyline fill="none" points="88.9492,41.6542 86.3458,44.2576 86.3458,45.9932 88.0814,46.4271 90.2508,44.2576 86.7797,41.6542" stroke="#56ffa0" stroke-width="2" /><polyline fill="none" points="70.7254,54.6712 70.2915,65.9525 66.3864,67.2542 57.7085,67.2542" stroke="#a0ff56" stroke-width="2" /><polyline fill="none" points="72.8949,57.7085 73.7627,64.6508 77.6678,67.6881" stroke="#eaff0c" stroke-width="2" /><polyline fill="none" points="83.7424,65.0847 93.722,60.7458 101.0983,54.6712 103.7017,50.3322" stroke="#ffaa00" stroke-width="2" /><polyline fill="none" points="92.4203,68.122 91.1186,69.8576 93.2881,70.2915 107.6068,69.4237 117.1525,65.9525 119.322,62.0475" stroke="#ff5500" stroke-width="2" /><polyline fill="none" points="88.5153,72.8949 98.4949,77.6678 108.9085,77.6678" stroke="#e80000" stroke-width="2" /><polyline fill="none" points="53.3695,66.3864 34.278,63.7831 20.8271,59.4441 8.678,53.3695" stroke="#7f0000" stroke-width="2" /></svg>