<?xml version="1.0" encoding="utf-8" ?>
<svg baseProfile="tiny" height="128" version="1.2" viewBox="0,0,128,128" width="128" xmlns="http://www.w3.org/2000/svg" xmlns:ev="http://www.w3.org/2001/xml-events" xmlns:xlink="http://www.w3.org/1999/xlink"><defs /><polyline fill="none" points="43.3898,31.6746 32.1085,32.1085 23.8644,35.5797 17.7898,41.2203 15.1864,44.2576 9.1119,59.0102 8.678,65.5186 11.2814,67.2542 31.6746,67.6881 36.8814,66.3864 44.2576,58.1424 49.0305,36.0136 49.4644,22.9966 44.2576,22.1288 36.8814,27.7695" stroke="#00007f" stroke-width="2" /><polyline fill="none" points="34.278,29.5051 36.8814,18.2237 42.9559,8.678 45.1254,14.3186 44.2576,20.8271" stroke="#0028ff" stroke-width="2" /><polyline fill="none" points="15.6203,38.6169 15.1864,30.3729 16.4881,27.7695 19.0915,26.0339 20.3932,28.6373 21.261,36.4475" stroke="#00d4ff" stroke-width="2" /><polyline fill="none" points="22.1288,47.7288 22.1288,47.7288" stroke="#7cff79" stroke-width="2" /><polyline fill="none" points="26.4678,47.7288 21.6949,47.7288" stroke="#ffe500" stroke-width="2" /><polyline fill="none" points="36.0136,48.5966 37.7492,48.5966" stroke="#ff4600" stroke-width="2" /><polyline fill="none" points="47.7288,43.3898 85.0441,36.4475 106.739,33.8441 118.0203,33.8441 119.322,36.4475 117.1525,44.6915 109.3424,55.1051 96.7593,63.3492 75.4983,74.6305 62.0475,75.9322 44.6915,70.7254" stroke="#7f0000" stroke-width="2" /></svg>