<?xml version="1.0" encoding="utf-8" ?>
<svg baseProfile="tiny" height="128" version="1.2" viewBox="0,0,128,128" width="128" xmlns="http://www.w3.org/2000/svg" xmlns:ev="http://www.w3.org/2001/xml-events" xmlns:xlink="http://www.w3.org/1999/xlink"><defs /><polyline fill="none" points="69.8576,20.8271 63.7831,20.8271 52.9356,23.8644 40.7864,30.3729 27.7695,42.0881 21.261,50.7661 18.6576,55.9729 18.6576,72.461 21.6949,81.5729 24.2983,85.0441 29.5051,89.3831 41.2203,95.8915 53.8034,97.1932 62.4814,95.8915 71.5932,93.2881 78.1017,88.9492 82.8746,82.8746 86.3458,72.461 88.0814,48.1627 85.478,37.3153 77.6678,26.9017 70.2915,22.5627" stroke="#00007f" stroke-width="2" /><polyline fill="none" points="26.0339,55.539 19.0915,43.3898 16.922,36.0136 17.3559,15.1864 19.9593,15.1864 29.939,22.1288 37.3153,29.5051 43.8237,37.7492" stroke="#0000ff" stroke-width="2" /><polyline fill="none" points="67.2542,22.5627 86.3458,11.2814 93.722,8.678 98.061,8.678 88.0814,36.0136" stroke="#0080ff" stroke-width="2" /><polyline fill="none" points="39.9186,64.2169 39.4847,68.5559 41.2203,76.8 43.8237,80.7051 48.5966,81.5729 51.6339,80.2712 53.8034,77.2339 53.8034,68.5559 56.4068,74.6305 61.1797,78.5356 67.6881,78.5356 72.0271,75.9322 75.0644,70.2915 73.3288,61.1797" stroke="#15ffe1" stroke-width="2" /><polyline fill="none" points="36.8814,69.4237 33.8441,69.8576 25.1661,77.2339 11.7153,95.0237 8.678,102.4" stroke="#7cff79" stroke-width="2" /><polyline fill="none" points="37.3153,82.0068 16.4881,119.322" stroke="#e4ff12" stroke-width="2" /><polyline fill="none" points="84.1763,55.9729 93.722,58.1424 113.6814,59.0102" stroke="#ff9400" stroke-width="2" /><polyline fill="none" points="72.8949,82.4407 89.8169,81.139 107.1729,84.6102" stroke="#ff1d00" stroke-width="2" /><polyline fill="none" points="43.3898,43.3898 38.1831,48.5966 38.6169,54.6712 42.522,55.9729 48.5966,54.2373 51.2,52.0678 50.3322,46.4271 47.7288,44.6915 44.6915,45.5593 43.3898,48.5966 44.6915,51.6339 46.4271,52.0678 46.861,49.8983 45.1254,49.0305 41.6542,52.9356" stroke="#7f0000" stroke-width="2" /></svg>