<?xml version="1.0" encoding="utf-8" ?>
<svg baseProfile="tiny" height="128" version="1.2" viewBox="0,0,128,128" width="128" xmlns="http://www.w3.org/2000/svg" xmlns:ev="http://www.w3.org/2001/xml-events" xmlns:xlink="http://www.w3.org/1999/xlink"><defs /><polyline fill="none" points="44.6915,26.0339 62.0475,21.261 80.2712,26.0339 95.8915,10.4136 98.061,11.7153 100.2305,20.3932 98.9288,32.5424" stroke="#00007f" stroke-width="2" /><polyline fill="none" points="44.2576,28.2034 25.6,14.3186 15.6203,9.9797 9.9797,8.678 8.678,9.5458 15.1864,19.9593 32.1085,39.4847 25.1661,45.5593 23.4305,49.0305 23.4305,55.1051 27.3356,62.4814 35.5797,70.2915 41.6542,72.461 75.0644,67.2542" stroke="#0000f1" stroke-width="2" /><polyline fill="none" points="59.4441,67.2542 63.3492,72.0271 65.0847,80.2712 65.0847,94.1559" stroke="#004cff" stroke-width="2" /><polyline fill="none" points="70.7254,66.8203 75.9322,73.7627 82.0068,89.8169" stroke="#00b0ff" stroke-width="2" /><polyline fill="none" points="74.6305,66.8203 83.7424,67.2542 93.2881,65.5186 97.1932,62.9153 101.0983,58.1424 102.8339,51.2 101.9661,45.1254 98.4949,37.3153 93.722,32.5424" stroke="#29ffcd" stroke-width="2" /><polyline fill="none" points="70.2915,38.6169 85.478,41.6542 92.8542,45.1254 108.0407,54.6712 114.9831,60.7458 119.322,67.2542" stroke="#7cff79" stroke-width="2" /><polyline fill="none" points="69.8576,43.8237 91.5525,58.1424 108.4746,75.4983" stroke="#cdff29" stroke-width="2" /><polyline fill="none" points="63.7831,52.0678 71.1593,55.1051 86.3458,66.3864 96.3254,77.2339 101.0983,85.9119" stroke="#ffc400" stroke-width="2" /><polyline fill="none" points="54.6712,49.4644 46.4271,53.8034 29.939,68.122 17.3559,75.4983" stroke="#ff6700" stroke-width="2" /><polyline fill="none" points="56.4068,59.0102 28.2034,80.7051" stroke="#f10700" stroke-width="2" /><polyline fill="none" points="39.4847,44.6915 37.7492,46.4271" stroke="#7f0000" stroke-width="2" /></svg>