<?xml version="1.0" encoding="utf-8" ?>
<svg baseProfile="tiny" height="128" version="1.2" viewBox="0,0,128,128" width="128" xmlns="http://www.w3.org/2000/svg" xmlns:ev="http://www.w3.org/2001/xml-events" xmlns:xlink="http://www.w3.org/1999/xlink"><defs /><polyline fill="none" points="15.6203,36.0136 15.6203,24.7322 18.6576,8.678 30.8068,30.8068" stroke="#00007f" stroke-width="2" /><polyline fill="none" points="30.3729,35.1458 39.4847,30.8068 46.861,29.0712 52.9356,30.3729 59.0102,33.8441 68.9898,14.7525 72.0271,12.1492 74.6305,12.1492 76.3661,14.7525 78.1017,32.9763 74.6305,52.0678" stroke="#0000e8" stroke-width="2" /><polyline fill="none" points="20.3932,31.6746 16.922,36.0136 14.7525,42.0881 16.4881,62.4814 19.0915,70.7254 27.7695,85.478 39.0508,92.8542 45.1254,93.722 51.6339,92.4203 56.8407,89.3831 64.6508,80.7051 72.461,65.0847 76.3661,45.1254" stroke="#0038ff" stroke-width="2" /><polyline fill="none" points="36.0136,62.9153 20.8271,77.6678 8.678,98.4949" stroke="#0094ff" stroke-width="2" /><polyline fill="none" points="40.3525,68.9898 28.2034,93.722 24.7322,105.0034 23.8644,117.1525" stroke="#0cf4ea" stroke-width="2" /><polyline fill="none" points="41.6542,79.4034 36.0136,90.2508 31.6746,102.8339 33.4102,119.322" stroke="#56ffa0" stroke-width="2" /><polyline fill="none" points="59.4441,69.4237 65.0847,75.9322 85.9119,110.6441" stroke="#a0ff56" stroke-width="2" /><polyline fill="none" points="56.4068,85.9119 64.2169,105.0034" stroke="#eaff0c" stroke-width="2" /><polyline fill="none" points="61.1797,78.5356 71.5932,104.1356" stroke="#ffaa00" stroke-width="2" /><polyline fill="none" points="16.0542,49.4644 21.6949,45.1254 36.8814,42.522 46.4271,46.861" stroke="#ff5500" stroke-width="2" /><polyline fill="none" points="24.2983,54.6712 23.4305,56.4068 26.4678,59.0102 39.0508,61.1797" stroke="#e80000" stroke-width="2" /><polyline fill="none" points="59.0102,48.5966 67.6881,58.1424" stroke="#7f0000" stroke-width="2" /></svg>