<?xml version="1.0" encoding="utf-8" ?>
<svg baseProfile="tiny" height="128" version="1.2" viewBox="0,0,128,128" width="128" xmlns="http://www.w3.org/2000/svg" xmlns:ev="http://www.w3.org/2001/xml-events" xmlns:xlink="http://www.w3.org/1999/xlink"><defs /><polyline fill="none" points="65.5186,36.4475 61.6136,36.8814 52.9356,41.6542 43.8237,49.8983 36.0136,62.9153 31.6746,77.2339 31.6746,91.9864 36.4475,102.8339 43.8237,108.0407 52.9356,108.0407 64.6508,103.2678 79.8373,93.2881 83.3085,88.9492 87.2136,78.9695 87.2136,62.4814 82.8746,52.0678 72.0271,40.7864 62.9153,37.3153" stroke="#00007f" stroke-width="2" /><polyline fill="none" points="42.9559,49.8983 36.8814,10.8475 48.1627,37.7492 53.3695,45.1254" stroke="#0000de" stroke-width="2" /><polyline fill="none" points="76.3661,38.1831 87.2136,22.1288 100.6644,8.678 93.2881,28.6373 86.3458,53.8034" stroke="#0028ff" stroke-width="2" /><polyline fill="none" points="55.9729,53.8034 52.5017,54.6712 47.7288,63.3492 50.7661,63.7831 53.8034,62.0475 57.2746,57.2746 57.2746,55.9729 55.9729,56.4068" stroke="#0080ff" stroke-width="2" /><polyline fill="none" points="74.1966,54.2373 67.6881,60.7458 67.2542,62.9153 71.1593,62.9153 74.6305,58.5763 75.0644,57.2746 72.8949,56.8407" stroke="#00d4ff" stroke-width="2" /><polyline fill="none" points="62.0475,70.7254 51.2,72.461 47.7288,75.9322 46.4271,82.4407 52.0678,86.3458 59.4441,85.9119 67.2542,80.7051 67.6881,72.461 61.1797,70.2915" stroke="#36ffc0" stroke-width="2" /><polyline fill="none" points="57.2746,78.5356 57.7085,75.9322" stroke="#7cff79" stroke-width="2" /><polyline fill="none" points="44.6915,92.8542 49.8983,95.4576 53.8034,95.4576 63.3492,92.4203" stroke="#c0ff36" stroke-width="2" /><polyline fill="none" points="30.8068,85.478 24.2983,84.6102 13.8847,88.0814 8.678,102.4 10.4136,107.6068 13.8847,112.3797 30.3729,118.0203 39.9186,114.9831 62.9153,111.078" stroke="#ffe500" stroke-width="2" /><polyline fill="none" points="12.1492,111.078 12.5831,118.4542" stroke="#ff9400" stroke-width="2" /><polyline fill="none" points="25.1661,115.4169 22.1288,115.8508 22.1288,118.4542" stroke="#ff4600" stroke-width="2" /><polyline fill="none" points="28.6373,118.4542 27.7695,118.0203" stroke="#de0000" stroke-width="2" /><polyline fill="none" points="29.0712,119.322 27.3356,119.322" stroke="#7f0000" stroke-width="2" /></svg>