<?xml version="1.0" encoding="utf-8" ?>
<svg baseProfile="tiny" height="128" version="1.2" viewBox="0,0,128,128" width="128" xmlns="http://www.w3.org/2000/svg" xmlns:ev="http://www.w3.org/2001/xml-events" xmlns:xlink="http://www.w3.org/1999/xlink"><defs /><polyline fill="none" points="20.8271,88.9492 18.6576,107.6068 19.0915,118.4542" stroke="#00007f" stroke-width="2" /><polyline fill="none" points="46.861,89.8169 50.3322,99.7966 52.5017,119.322" stroke="#0000fe" stroke-width="2" /><polyline fill="none" points="13.4508,86.3458 30.3729,88.0814 53.8034,85.9119 58.5763,84.1763 61.6136,80.7051 65.0847,62.4814 58.5763,48.1627 46.4271,36.4475 39.4847,34.278 29.939,33.8441 22.1288,36.4475 17.3559,39.9186 10.8475,49.0305 9.1119,54.2373 8.678,71.5932 11.7153,82.8746 14.7525,84.1763" stroke="#0060ff" stroke-width="2" /><polyline fill="none" points="45.9932,84.6102 46.4271,92.4203" stroke="#00d4ff" stroke-width="2" /><polyline fill="none" points="43.3898,49.0305 49.4644,56.4068 54.6712,57.2746 69.8576,52.0678 77.6678,47.7288 73.7627,38.1831 67.2542,28.2034 62.4814,16.922 55.9729,8.678 45.5593,15.1864 39.9186,23.8644 38.1831,35.1458 38.1831,43.3898 39.9186,50.3322 42.0881,50.3322" stroke="#4cffaa" stroke-width="2" /><polyline fill="none" points="39.0508,25.1661 33.8441,23.8644 29.0712,24.7322" stroke="#aaff4c" stroke-width="2" /><polyline fill="none" points="39.4847,30.3729 29.0712,29.0712" stroke="#ffe500" stroke-width="2" /><polyline fill="none" points="60.7458,28.2034 81.5729,30.3729" stroke="#ff7a00" stroke-width="2" /><polyline fill="none" points="65.0847,36.8814 72.461,35.5797 80.7051,38.1831" stroke="#fe1200" stroke-width="2" /><polyline fill="none" points="47.2949,16.922 47.2949,16.922" stroke="#7f0000" stroke-width="2" /></svg>