<?xml version="1.0" encoding="utf-8" ?>
<svg baseProfile="tiny" height="128" version="1.2" viewBox="0,0,128,128" width="128" xmlns="http://www.w3.org/2000/svg" xmlns:ev="http://www.w3.org/2001/xml-events" xmlns:xlink="http://www.w3.org/1999/xlink"><defs /><polyline fill="none" points="50.7661,101.9661 32.1085,94.5898 19.0915,85.478 16.0542,79.8373 15.1864,73.3288 16.4881,64.6508 20.3932,55.9729 33.4102,40.7864 42.522,33.8441 50.7661,29.939 59.4441,28.2034 68.5559,28.2034 79.4034,31.6746 82.8746,34.7119 86.7797,40.7864 89.8169,50.3322 93.2881,71.5932 93.722,86.3458 90.2508,99.7966 85.0441,104.5695 80.7051,106.739 66.8203,110.2102 54.2373,108.4746 49.4644,105.0034" stroke="#00007f" stroke-width="2" /><polyline fill="none" points="23.8644,41.2203 12.1492,22.1288 8.678,11.7153 13.8847,9.5458 18.2237,10.4136 30.8068,18.6576 37.3153,26.4678" stroke="#0080ff" stroke-width="2" /><polyline fill="none" points="83.7424,29.0712 117.1525,8.678 119.322,12.1492 117.5864,22.1288 112.3797,33.8441 105.8712,42.9559" stroke="#7cff79" stroke-width="2" /><polyline fill="none" points="65.5186,81.139 78.9695,74.6305 90.6847,71.5932" stroke="#ff9400" stroke-width="2" /><polyline fill="none" points="71.1593,93.2881 88.0814,89.3831" stroke="#7f0000" stroke-width="2" /></svg>