<?xml version="1.0" encoding="utf-8" ?>
<svg baseProfile="tiny" height="128" version="1.2" viewBox="0,0,128,128" width="128" xmlns="http://www.w3.org/2000/svg" xmlns:ev="http://www.w3.org/2001/xml-events" xmlns:xlink="http://www.w3.org/1999/xlink"><defs /><polyline fill="none" points="21.261,69.8576 29.0712,53.8034" stroke="#00007f" stroke-width="2" /><polyline fill="none" points="29.5051,52.9356 32.1085,65.5186" stroke="#0000d1" stroke-width="2" /><polyline fill="none" points="39.9186,66.3864 42.0881,60.3119 48.5966,51.2" stroke="#0010ff" stroke-width="2" /><polyline fill="none" points="48.5966,51.2 53.3695,65.5186" stroke="#0058ff" stroke-width="2" /><polyline fill="none" points="49.0305,48.1627 31.6746,55.539 14.7525,56.4068 15.6203,50.3322 19.5254,45.1254 32.9763,42.0881 47.7288,43.8237 49.4644,46.861 48.5966,51.2 42.9559,53.3695" stroke="#00a4ff" stroke-width="2" /><polyline fill="none" points="16.4881,48.1627 10.8475,46.861 8.678,42.9559 18.2237,34.278 17.3559,27.7695 9.1119,23.8644" stroke="#05ecf1" stroke-width="2" /><polyline fill="none" points="48.5966,36.0136 46.4271,39.0508 46.4271,44.2576 47.7288,45.9932 52.5017,47.2949 60.3119,45.9932 67.6881,39.0508 69.4237,34.7119 68.5559,29.939 64.6508,26.9017 59.878,26.4678 52.5017,27.7695 49.8983,29.5051 43.8237,37.3153 43.8237,38.6169 45.9932,39.9186" stroke="#3fffb7" stroke-width="2" /><polyline fill="none" points="49.4644,29.939 48.5966,22.5627 52.9356,13.8847 56.8407,26.4678 58.1424,26.0339" stroke="#7cff79" stroke-width="2" /><polyline fill="none" points="63.7831,25.6 76.3661,9.9797 78.5356,8.678 69.8576,29.5051" stroke="#b7ff3f" stroke-width="2" /><polyline fill="none" points="53.3695,33.8441 52.5017,34.7119 53.8034,35.1458 54.2373,33.8441 54.2373,34.7119 56.4068,34.278" stroke="#f1fc05" stroke-width="2" /><polyline fill="none" points="62.0475,33.4102 62.9153,34.7119 64.2169,33.4102 62.9153,32.5424 62.0475,34.278" stroke="#ffb900" stroke-width="2" /><polyline fill="none" points="68.5559,49.0305 64.2169,55.9729 64.6508,57.7085 67.6881,58.1424 75.4983,55.1051 77.2339,52.0678 76.8,49.0305" stroke="#ff7300" stroke-width="2" /><polyline fill="none" points="77.2339,55.1051 78.5356,56.4068 81.139,55.539 82.4407,52.5017 81.5729,50.7661 79.4034,51.2 78.1017,54.2373 81.139,56.4068 84.6102,56.8407" stroke="#ff3000" stroke-width="2" /><polyline fill="none" points="86.7797,52.5017 87.6475,59.4441" stroke="#d10000" stroke-width="2" /><polyline fill="none" points="91.9864,51.6339 101.0983,54.6712 118.8881,55.1051 119.322,55.9729" stroke="#7f0000" stroke-width="2" /></svg>