<?xml version="1.0" encoding="utf-8" ?>
<svg baseProfile="tiny" height="128" version="1.2" viewBox="0,0,128,128" width="128" xmlns="http://www.w3.org/2000/svg" xmlns:ev="http://www.w3.org/2001/xml-events" xmlns:xlink="http://www.w3.org/1999/xlink"><defs /><polyline fill="none" points="16.922,11.7153 15.6203,43.8237" stroke="#00007f" stroke-width="2" /><polyline fill="none" points="16.922,9.5458 38.6169,36.0136" stroke="#0000e8" stroke-width="2" /><polyline fill="none" points="43.3898,33.4102 58.5763,29.0712 72.0271,29.0712 78.1017,33.4102 81.5729,39.0508" stroke="#0038ff" stroke-width="2" /><polyline fill="none" points="88.5153,27.7695 98.4949,8.678 100.6644,10.8475 104.1356,20.3932 108.9085,39.0508" stroke="#0094ff" stroke-width="2" /><polyline fill="none" points="85.9119,26.0339 82.0068,32.1085 74.1966,41.2203" stroke="#0cf4ea" stroke-width="2" /><polyline fill="none" points="15.6203,40.7864 16.4881,59.878 19.0915,72.8949 24.2983,85.478 32.5424,98.061 44.2576,106.739 50.7661,109.7763 65.0847,112.3797 77.6678,112.3797 85.9119,108.0407 89.3831,103.7017 100.6644,80.7051 103.2678,62.0475 103.2678,37.7492" stroke="#56ffa0" stroke-width="2" /><polyline fill="none" points="71.1593,70.7254 101.0983,51.6339" stroke="#a0ff56" stroke-width="2" /><polyline fill="none" points="75.9322,72.461 95.0237,90.6847 105.0034,97.1932" stroke="#eaff0c" stroke-width="2" /><polyline fill="none" points="68.122,75.9322 69.4237,99.3627 66.3864,116.7186" stroke="#ffaa00" stroke-width="2" /><polyline fill="none" points="45.9932,66.8203 43.3898,65.0847 8.678,60.7458" stroke="#ff5500" stroke-width="2" /><polyline fill="none" points="42.9559,68.9898 29.5051,78.5356 12.5831,95.8915" stroke="#e80000" stroke-width="2" /><polyline fill="none" points="50.3322,71.1593 49.0305,76.3661 26.9017,114.9831 25.6,119.322" stroke="#7f0000" stroke-width="2" /></svg>