<?xml version="1.0" encoding="utf-8" ?>
<svg baseProfile="tiny" height="128" version="1.2" viewBox="0,0,128,128" width="128" xmlns="http://www.w3.org/2000/svg" xmlns:ev="http://www.w3.org/2001/xml-events" xmlns:xlink="http://www.w3.org/1999/xlink"><defs /><polyline fill="none" points="47.4558,40.0544 67.9184,38.3129 73.1429,39.619 78.8027,43.102 83.1565,49.1973 90.1224,61.8231 90.9932,67.9184 90.1224,81.8503 84.0272,95.7823 79.6735,102.7483 69.2245,111.4558 64.4354,114.068 44.8435,118.8571 29.1701,119.2925 23.5102,116.6803 19.1565,112.7619 12.1905,96.6531 11.7551,78.8027 13.0612,69.2245 19.1565,55.2925 31.3469,42.2313 37.8776,40.9252 53.9864,41.7959" stroke="#00007f" stroke-width="2" /><polyline fill="none" points="9.5782,64.8707 8.7075,60.0816 10.0136,49.6327 20.4626,9.5782 21.7687,8.7075 23.0748,10.449 30.4762,40.0544 31.3469,42.2313 33.9592,43.5374" stroke="#0000ff" stroke-width="2" /><polyline fill="none" points="61.3878,43.9728 67.0476,31.7823 72.7075,23.9456 80.1088,15.6735 87.0748,11.3197 89.2517,13.0612 90.1224,16.9796 91.8639,56.5986" stroke="#0080ff" stroke-width="2" /><polyline fill="none" points="34.8299,83.1565 33.0884,89.6871 34.8299,100.1361 39.619,104.0544 42.6667,104.9252 44.8435,104.9252 47.4558,102.3129 48.7619,93.1701 56.1633,99.7007 60.9524,100.1361 62.6939,98.8299 65.3061,93.1701 65.3061,86.2041 64.0,83.1565" stroke="#15ffe1" stroke-width="2" /><polyline fill="none" points="68.3537,71.8367 87.5102,65.7415" stroke="#7cff79" stroke-width="2" /><polyline fill="none" points="77.932,77.932 89.2517,78.8027" stroke="#e4ff12" stroke-width="2" /><polyline fill="none" points="40.9252,70.5306 21.7687,70.5306" stroke="#ff9400" stroke-width="2" /><polyline fill="none" points="27.4286,86.2041 16.1088,90.5578" stroke="#ff1d00" stroke-width="2" /><polyline fill="none" points="49.1973,73.5782 49.6327,71.4014 56.1633,70.5306 57.9048,75.7551" stroke="#7f0000" stroke-width="2" /></svg>