<?xml version="1.0" encoding="utf-8" ?>
<svg baseProfile="tiny" height="128" version="1.2" viewBox="0,0,128,128" width="128" xmlns="http://www.w3.org/2000/svg" xmlns:ev="http://www.w3.org/2001/xml-events" xmlns:xlink="http://www.w3.org/1999/xlink"><defs /><polyline fill="none" points="38.6169,73.7627 38.1831,66.3864 42.9559,57.2746 46.861,54.2373 55.1051,52.0678 75.4983,49.4644 85.0441,49.4644 99.3627,55.1051 103.7017,59.4441 108.0407,67.2542 109.3424,83.3085 107.1729,94.1559 102.4,106.3051 95.4576,113.6814 86.3458,118.0203 75.4983,119.322 60.7458,119.322 47.2949,115.8508 39.4847,111.9458 37.3153,107.6068 37.7492,73.7627" stroke="#00007f" stroke-width="2" /><polyline fill="none" points="69.8576,48.5966 72.8949,44.2576 89.3831,32.1085 105.8712,15.6203 117.1525,8.678 116.7186,16.4881 113.6814,24.2983 109.3424,58.5763" stroke="#0028ff" stroke-width="2" /><polyline fill="none" points="52.9356,50.7661 44.2576,46.4271 8.678,36.0136 39.9186,69.4237" stroke="#00d4ff" stroke-width="2" /><polyline fill="none" points="62.0475,92.8542 54.6712,93.722 47.2949,98.061 31.2407,109.7763 29.5051,112.8136" stroke="#7cff79" stroke-width="2" /><polyline fill="none" points="66.3864,100.2305 43.8237,111.9458 39.9186,117.1525" stroke="#ffe500" stroke-width="2" /><polyline fill="none" points="69.8576,91.9864 74.1966,91.5525 87.2136,93.722 95.0237,96.3254 107.1729,102.8339 114.9831,108.4746 114.9831,110.2102" stroke="#ff4600" stroke-width="2" /><polyline fill="none" points="76.3661,100.2305 76.3661,100.2305" stroke="#7f0000" stroke-width="2" /></svg>