<?xml version="1.0" encoding="utf-8" ?>
<svg baseProfile="tiny" height="128" version="1.2" viewBox="0,0,128,128" width="128" xmlns="http://www.w3.org/2000/svg" xmlns:ev="http://www.w3.org/2001/xml-events" xmlns:xlink="http://www.w3.org/1999/xlink"><defs /><polyline fill="none" points="30.0408,21.7687 19.1565,23.9456 15.6735,27.8639 8.7075,31.7823 9.1429,37.8776 16.5442,45.7143" stroke="#00007f" stroke-width="2" /><polyline fill="none" points="29.6054,23.0748 30.0408,8.7075 33.0884,13.0612 34.8299,23.5102" stroke="#0028ff" stroke-width="2" /><polyline fill="none" points="25.2517,21.7687 25.6871,16.9796 24.381,11.3197 29.6054,15.2381" stroke="#00d4ff" stroke-width="2" /><polyline fill="none" points="35.2653,21.7687 38.7483,24.381 41.7959,33.9592 51.8095,41.7959 56.1633,47.4558" stroke="#7cff79" stroke-width="2" /><polyline fill="none" points="18.2857,46.1497 23.0748,53.9864 26.1224,62.6939 28.2993,80.1088 27.8639,93.6054 25.6871,100.5714 21.7687,106.6667 27.8639,107.102 33.0884,103.619 36.5714,94.4762 37.0068,87.0748 40.4898,101.8776" stroke="#ffe500" stroke-width="2" /><polyline fill="none" points="77.4966,64.4354 76.6259,63.1293 71.4014,63.5646 63.1293,70.0952 58.7755,80.9796 55.2925,98.8299 43.9728,103.1837 38.7483,108.8435 37.4422,106.2313 34.3946,110.1497 37.8776,111.4558 47.0204,111.0204 77.932,102.7483" stroke="#ff4600" stroke-width="2" /><polyline fill="none" points="55.2925,45.2789 58.7755,49.1973 77.0612,55.7279 82.2857,59.6463 85.7687,67.0476 89.2517,86.6395 94.9116,94.4762 102.3129,97.0884 116.6803,97.5238 119.2925,101.8776" stroke="#7f0000" stroke-width="2" /></svg>