<?xml version="1.0" encoding="utf-8" ?>
<svg baseProfile="tiny" height="128" version="1.2" viewBox="0,0,128,128" width="128" xmlns="http://www.w3.org/2000/svg" xmlns:ev="http://www.w3.org/2001/xml-events" xmlns:xlink="http://www.w3.org/1999/xlink"><defs /><polyline fill="none" points="14.8027,80.1088 14.3673,68.3537 9.5782,44.8435 8.7075,17.415 10.8844,9.5782 14.8027,8.7075 20.4626,25.6871 23.5102,29.1701 35.2653,28.7347 59.2109,33.0884 68.3537,37.4422 69.2245,39.1837 70.966,39.1837 78.3673,31.3469 94.4762,10.449 96.6531,14.3673 97.5238,55.7279 96.2177,83.5918 94.4762,89.2517 86.2041,105.3605 80.9796,111.0204 74.8844,113.6327 57.034,113.6327 51.3741,112.7619 37.4422,106.2313 26.1224,98.3946 16.9796,89.2517 13.4966,83.5918 13.932,77.0612" stroke="#00007f" stroke-width="2" /><polyline fill="none" points="49.6327,96.6531 58.7755,97.5238" stroke="#0000ff" stroke-width="2" /><polyline fill="none" points="38.7483,53.1156 37.8776,58.7755 39.619,60.0816 43.9728,59.2109 46.1497,56.1633 41.7959,51.3741 38.7483,52.2449" stroke="#0080ff" stroke-width="2" /><polyline fill="none" points="70.966,55.2925 70.5306,60.9524 73.1429,64.0 79.2381,64.4354 80.1088,60.517 75.7551,55.7279 71.8367,55.2925" stroke="#15ffe1" stroke-width="2" /><polyline fill="none" points="41.7959,87.5102 33.5238,86.2041 10.8844,77.4966" stroke="#7cff79" stroke-width="2" /><polyline fill="none" points="36.1361,96.2177 10.449,101.4422 9.5782,103.1837" stroke="#e4ff12" stroke-width="2" /><polyline fill="none" points="36.5714,103.1837 17.8503,112.7619 11.7551,119.2925" stroke="#ff9400" stroke-width="2" /><polyline fill="none" points="75.3197,87.9456 91.4286,82.2857" stroke="#ff1d00" stroke-width="2" /><polyline fill="none" points="71.4014,104.4898 84.0272,109.2789 99.2653,111.4558" stroke="#7f0000" stroke-width="2" /></svg>