<?xml version="1.0" encoding="utf-8" ?>
<svg baseProfile="tiny" height="128" version="1.2" viewBox="0,0,128,128" width="128" xmlns="http://www.w3.org/2000/svg" xmlns:ev="http://www.w3.org/2001/xml-events" xmlns:xlink="http://www.w3.org/1999/xlink"><defs /><polyline fill="none" points="54.8571,29.6054 46.1497,29.6054 36.1361,32.6531 28.7347,36.5714 20.0272,45.7143 16.9796,54.8571 19.5918,60.517 23.9456,63.5646 34.8299,63.5646 52.2449,56.5986 63.1293,45.2789 64.4354,38.3129 62.2585,34.8299 55.7279,30.4762 50.9388,30.4762" stroke="#00007f" stroke-width="2" /><polyline fill="none" points="60.517,24.381 68.7891,8.7075 70.0952,9.5782 66.1769,27.4286 63.5646,32.6531" stroke="#00d4ff" stroke-width="2" /><polyline fill="none" points="33.9592,33.0884 37.0068,25.6871 37.4422,21.3333 34.8299,17.8503 30.0408,19.5918 25.2517,26.9932 24.381,39.1837" stroke="#ffe500" stroke-width="2" /><polyline fill="none" points="37.4422,65.7415 31.7823,66.1769 27.4286,68.3537 20.4626,74.8844 16.5442,80.9796 13.932,87.0748 8.7075,119.2925 10.8844,117.1156 19.5918,95.7823" stroke="#7f0000" stroke-width="2" /></svg>