<?xml version="1.0" encoding="utf-8" ?>
<svg baseProfile="tiny" height="128" version="1.2" viewBox="0,0,128,128" width="128" xmlns="http://www.w3.org/2000/svg" xmlns:ev="http://www.w3.org/2001/xml-events" xmlns:xlink="http://www.w3.org/1999/xlink"><defs /><polyline fill="none" points="20.898,21.3333 17.8503,21.3333 13.0612,25.2517 10.0136,25.6871 8.7075,23.0748 10.0136,19.5918 16.1088,16.1088 20.898,15.6735 22.6395,16.9796 24.8163,26.5578 28.7347,29.1701 46.1497,30.4762 53.9864,29.1701 47.8912,30.4762 43.5374,37.8776 39.1837,42.2313 15.2381,49.1973 11.7551,48.3265 10.8844,46.585 24.8163,23.5102 26.1224,27.4286 32.6531,35.7007 38.7483,40.4898 44.4082,43.102 45.7143,42.2313 44.8435,39.1837 37.8776,31.7823 26.9932,26.5578 21.3333,27.4286 8.7075,40.9252 9.1429,41.7959 14.3673,41.3605 101.8776,14.8027 119.2925,9.1429 116.6803,8.7075" stroke="#00007f" stroke-width="2" /></svg>