<?xml version="1.0" encoding="utf-8" ?>
<svg baseProfile="tiny" height="128" version="1.2" viewBox="0,0,128,128" width="128" xmlns="http://www.w3.org/2000/svg" xmlns:ev="http://www.w3.org/2001/xml-events" xmlns:xlink="http://www.w3.org/1999/xlink"><defs /><polyline fill="none" points="15.1864,30.8068 39.4847,21.261 64.6508,20.3932 73.7627,26.0339 85.0441,36.0136 91.1186,44.2576 95.4576,55.9729 96.7593,83.7424 93.722,98.061 86.7797,109.3424 72.0271,117.1525 62.4814,119.322 43.8237,119.322 32.1085,115.4169 25.6,109.7763 16.0542,98.4949 9.5458,80.7051 8.678,42.0881 11.7153,36.0136 17.7898,31.6746" stroke="#00007f" stroke-width="2" /><polyline fill="none" points="29.939,22.9966 19.5254,13.0169 10.4136,8.678 9.1119,17.3559 11.2814,26.4678" stroke="#004cff" stroke-width="2" /><polyline fill="none" points="73.3288,23.4305 94.5898,13.0169 94.5898,26.4678 92.8542,36.0136 89.3831,51.6339 86.7797,54.6712" stroke="#29ffcd" stroke-width="2" /><polyline fill="none" points="26.0339,44.6915 26.9017,48.1627 29.939,51.2 32.5424,51.2 30.3729,49.4644" stroke="#cdff29" stroke-width="2" /><polyline fill="none" points="79.8373,52.9356 77.2339,55.539 75.9322,51.2" stroke="#ff6700" stroke-width="2" /><polyline fill="none" points="56.4068,78.1017 39.9186,78.1017 38.1831,80.7051 43.8237,89.3831" stroke="#7f0000" stroke-width="2" /></svg>