<?xml version="1.0" encoding="utf-8" ?>
<svg baseProfile="tiny" height="128" version="1.2" viewBox="0,0,128,128" width="128" xmlns="http://www.w3.org/2000/svg" xmlns:ev="http://www.w3.org/2001/xml-events" xmlns:xlink="http://www.w3.org/1999/xlink"><defs /><polyline fill="none" points="48.1627,41.2203 32.5424,32.9763 18.6576,28.6373 10.8475,29.0712 8.678,32.1085 10.8475,34.7119 36.0136,45.9932 41.2203,67.2542" stroke="#00007f" stroke-width="2" /><polyline fill="none" points="40.3525,62.0475 41.6542,78.1017 43.8237,80.2712 50.7661,74.1966 55.539,59.4441 85.478,60.7458 83.7424,67.6881 83.7424,78.1017 85.478,82.4407 89.3831,83.7424 95.0237,79.8373 97.1932,76.3661 100.2305,61.6136 99.7966,52.5017" stroke="#0000d1" stroke-width="2" /><polyline fill="none" points="98.061,23.8644 94.5898,23.8644 90.6847,28.2034 88.5153,32.5424 88.0814,39.4847 91.5525,43.8237 96.7593,47.2949 104.5695,49.4644 108.0407,48.5966 114.9831,36.0136 114.5492,28.2034 110.6441,24.2983 107.1729,22.9966 102.4,22.9966 95.8915,25.6" stroke="#0010ff" stroke-width="2" /><polyline fill="none" points="95.0237,27.3356 91.5525,18.6576 91.1186,9.5458 100.2305,21.6949" stroke="#0058ff" stroke-width="2" /><polyline fill="none" points="107.6068,21.261 113.6814,10.8475 117.1525,8.678 114.1153,19.0915" stroke="#00a4ff" stroke-width="2" /><polyline fill="none" points="89.3831,33.8441 72.8949,39.0508 49.8983,41.2203" stroke="#05ecf1" stroke-width="2" /><polyline fill="none" points="63.3492,59.878 59.878,68.122 56.4068,67.6881 54.6712,65.0847" stroke="#3fffb7" stroke-width="2" /><polyline fill="none" points="76.3661,62.0475 75.9322,65.0847 77.6678,66.8203 81.139,64.6508" stroke="#7cff79" stroke-width="2" /><polyline fill="none" points="98.9288,37.7492 81.139,43.8237 75.4983,47.2949 79.4034,46.861" stroke="#b7ff3f" stroke-width="2" /><polyline fill="none" points="95.8915,40.7864 88.9492,43.3898 85.9119,45.5593 86.7797,46.4271" stroke="#f1fc05" stroke-width="2" /><polyline fill="none" points="111.5119,37.7492 119.322,38.6169" stroke="#ffb900" stroke-width="2" /><polyline fill="none" points="109.7763,41.2203 114.1153,43.3898" stroke="#ff7300" stroke-width="2" /><polyline fill="none" points="103.2678,37.3153 103.7017,36.8814" stroke="#ff3000" stroke-width="2" /><polyline fill="none" points="101.0983,32.9763 108.4746,32.9763" stroke="#d10000" stroke-width="2" /><polyline fill="none" points="113.2475,32.9763 113.2475,32.9763" stroke="#7f0000" stroke-width="2" /></svg>