<?xml version="1.0" encoding="utf-8" ?>
<svg baseProfile="tiny" height="128" version="1.2" viewBox="0,0,128,128" width="128" xmlns="http://www.w3.org/2000/svg" xmlns:ev="http://www.w3.org/2001/xml-events" xmlns:xlink="http://www.w3.org/1999/xlink"><defs /><polyline fill="none" points="26.4678,16.922 25.6,18.6576 27.3356,17.3559 33.4102,8.678 39.0508,19.9593 40.3525,20.3932 52.0678,13.8847 62.4814,12.1492 65.5186,13.4508 70.7254,20.8271 72.461,17.7898 78.9695,13.8847 87.2136,12.5831 88.0814,16.0542 72.0271,41.2203 61.6136,47.7288 47.2949,48.1627 37.3153,44.6915 26.9017,38.6169 20.3932,31.2407 19.9593,22.1288 23.4305,16.0542 30.8068,11.7153" stroke="#00007f" stroke-width="2" /><polyline fill="none" points="49.0305,22.5627 42.0881,29.0712 41.2203,32.5424 42.0881,34.7119 45.5593,33.4102 48.1627,26.4678 49.0305,18.6576" stroke="#0000c3" stroke-width="2" /><polyline fill="none" points="66.8203,28.2034 65.5186,32.9763 66.8203,33.4102 67.6881,32.1085 70.7254,20.8271" stroke="#0000ff" stroke-width="2" /><polyline fill="none" points="78.5356,27.3356 95.0237,29.0712 103.7017,31.6746 107.1729,34.7119 107.1729,39.4847 105.8712,43.3898 100.6644,46.861 86.3458,47.2949 75.9322,44.2576 69.8576,39.0508" stroke="#0034ff" stroke-width="2" /><polyline fill="none" points="71.5932,43.8237 69.8576,52.0678 64.6508,65.0847" stroke="#0070ff" stroke-width="2" /><polyline fill="none" points="78.9695,41.6542 69.8576,61.6136" stroke="#00acff" stroke-width="2" /><polyline fill="none" points="82.8746,46.861 84.6102,71.5932 86.3458,66.8203" stroke="#02e8f4" stroke-width="2" /><polyline fill="none" points="91.5525,49.4644 92.8542,70.7254 93.2881,72.0271 94.5898,70.7254" stroke="#32ffc3" stroke-width="2" /><polyline fill="none" points="98.061,49.8983 97.1932,68.5559" stroke="#63ff93" stroke-width="2" /><polyline fill="none" points="54.6712,31.2407 52.0678,37.3153 48.1627,39.9186 54.2373,36.8814 59.878,32.1085 59.0102,30.8068 56.4068,30.8068 55.539,36.4475 61.6136,42.522 64.6508,43.3898 64.6508,42.0881 61.1797,39.9186" stroke="#93ff63" stroke-width="2" /><polyline fill="none" points="29.0712,30.8068 8.678,34.7119" stroke="#c3ff32" stroke-width="2" /><polyline fill="none" points="28.2034,34.7119 15.6203,38.6169" stroke="#f4f802" stroke-width="2" /><polyline fill="none" points="72.8949,29.0712 82.8746,29.939" stroke="#ffc000" stroke-width="2" /><polyline fill="none" points="65.9525,38.6169 82.0068,48.5966 96.3254,53.8034" stroke="#ff8900" stroke-width="2" /><polyline fill="none" points="105.8712,40.3525 110.6441,41.2203 111.5119,43.3898 111.5119,56.4068 109.7763,62.0475 113.2475,59.0102 118.8881,48.1627 119.322,40.7864 117.1525,37.7492 108.9085,36.0136" stroke="#ff5100" stroke-width="2" /><polyline fill="none" points="93.2881,70.7254 95.0237,68.9898 98.061,59.878" stroke="#ff1a00" stroke-width="2" /><polyline fill="none" points="82.4407,65.5186 82.4407,68.5559 83.7424,68.5559 92.4203,54.2373" stroke="#c30000" stroke-width="2" /><polyline fill="none" points="63.7831,66.8203 63.7831,69.8576 65.5186,69.4237 74.6305,61.6136 77.2339,57.2746" stroke="#7f0000" stroke-width="2" /></svg>