<?xml version="1.0" encoding="utf-8" ?>
<svg baseProfile="tiny" height="128" version="1.2" viewBox="0,0,128,128" width="128" xmlns="http://www.w3.org/2000/svg" xmlns:ev="http://www.w3.org/2001/xml-events" xmlns:xlink="http://www.w3.org/1999/xlink"><defs /><polyline fill="none" points="32.6531,26.5578 25.2517,27.4286 19.5918,34.8299 17.8503,40.0544 17.415,50.5034 19.5918,61.8231 25.6871,70.0952 35.7007,74.449 47.8912,75.3197 57.9048,72.7075 68.7891,66.6122 74.8844,57.4694 74.449,47.8912 70.966,37.4422 60.517,23.9456 49.1973,18.7211 40.4898,18.7211 35.7007,20.0272 16.9796,28.7347 10.0136,37.0068" stroke="#00007f" stroke-width="2" /><polyline fill="none" points="32.2177,20.0272 32.2177,20.0272" stroke="#0000ff" stroke-width="2" /><polyline fill="none" points="32.2177,20.0272 34.3946,13.932 38.3129,14.3673" stroke="#0080ff" stroke-width="2" /><polyline fill="none" points="36.5714,15.2381 24.8163,10.0136 9.5782,8.7075 8.7075,10.449 16.1088,36.5714 20.898,40.9252" stroke="#15ffe1" stroke-width="2" /><polyline fill="none" points="53.9864,23.9456 70.5306,17.8503 84.898,15.6735 84.898,25.2517 77.4966,41.7959 77.932,47.0204" stroke="#7cff79" stroke-width="2" /><polyline fill="none" points="28.7347,11.3197 41.7959,20.0272" stroke="#e4ff12" stroke-width="2" /><polyline fill="none" points="37.0068,75.3197 37.0068,75.3197" stroke="#ff9400" stroke-width="2" /><polyline fill="none" points="37.0068,75.3197 33.9592,72.2721 33.9592,104.0544 37.8776,118.8571" stroke="#ff1d00" stroke-width="2" /><polyline fill="none" points="44.4082,74.449 45.2789,119.2925" stroke="#7f0000" stroke-width="2" /></svg>