<?xml version="1.0" encoding="utf-8" ?>
<svg baseProfile="tiny" height="128" version="1.2" viewBox="0,0,128,128" width="128" xmlns="http://www.w3.org/2000/svg" xmlns:ev="http://www.w3.org/2001/xml-events" xmlns:xlink="http://www.w3.org/1999/xlink"><defs /><polyline fill="none" points="49.4644,42.0881 44.6915,42.0881 36.0136,45.1254 32.9763,49.4644 26.9017,66.3864 22.5627,84.1763 22.5627,88.9492 23.8644,93.722 36.0136,99.7966 52.5017,104.1356 58.5763,104.1356 67.6881,101.0983 99.7966,81.5729 107.1729,69.4237 107.1729,63.3492 102.8339,58.5763 87.6475,51.2 57.2746,40.3525" stroke="#00007f" stroke-width="2" /><polyline fill="none" points="29.939,52.5017 31.6746,37.3153 36.0136,23.8644 40.3525,17.7898 42.0881,13.0169 46.4271,8.678 52.5017,17.7898 55.539,28.2034 60.3119,37.3153 84.1763,23.8644 111.5119,11.7153 113.2475,16.4881 113.2475,25.6 107.1729,55.9729 104.1356,61.6136" stroke="#0010ff" stroke-width="2" /><polyline fill="none" points="48.1627,52.5017 43.3898,54.2373 40.7864,63.3492 45.1254,64.6508 49.4644,63.3492 52.5017,54.2373 57.2746,57.2746 60.3119,57.2746" stroke="#00a4ff" stroke-width="2" /><polyline fill="none" points="81.5729,60.3119 79.8373,68.9898 82.8746,73.7627 87.2136,75.4983 91.9864,66.3864 82.8746,61.6136" stroke="#3fffb7" stroke-width="2" /><polyline fill="none" points="43.3898,75.4983 32.9763,76.8 26.9017,80.2712 19.0915,88.9492 14.7525,92.4203 11.7153,101.0983 8.678,105.4373 9.9797,107.1729" stroke="#b7ff3f" stroke-width="2" /><polyline fill="none" points="39.0508,88.9492 29.939,90.6847 23.8644,99.7966 19.0915,113.2475 19.0915,118.0203" stroke="#ffb900" stroke-width="2" /><polyline fill="none" points="75.4983,72.461 85.9119,76.8 98.061,84.6102 115.8508,101.0983 119.322,108.9085" stroke="#ff3000" stroke-width="2" /><polyline fill="none" points="67.6881,85.9119 76.8,88.9492 90.2508,106.739 96.7593,119.322" stroke="#7f0000" stroke-width="2" /></svg>