<?xml version="1.0" encoding="utf-8" ?>
<svg baseProfile="tiny" height="128" version="1.2" viewBox="0,0,128,128" width="128" xmlns="http://www.w3.org/2000/svg" xmlns:ev="http://www.w3.org/2001/xml-events" xmlns:xlink="http://www.w3.org/1999/xlink"><defs /><polyline fill="none" points="29.0712,35.1458 31.2407,14.3186 35.1458,15.6203 45.9932,31.6746 63.3492,28.6373 71.5932,29.939 76.3661,26.4678 87.6475,8.678 88.9492,14.3186 88.9492,34.278 90.6847,36.0136 100.6644,37.7492 102.8339,44.2576 104.1356,54.6712 101.9661,68.9898 95.8915,78.5356 86.7797,86.3458 77.6678,91.5525 65.0847,96.7593 59.0102,96.7593 50.3322,94.5898 42.0881,87.6475 34.278,74.6305 26.0339,49.8983 26.9017,39.9186" stroke="#00007f" stroke-width="2" /><polyline fill="none" points="64.6508,60.3119 65.0847,73.3288 63.7831,78.9695 55.1051,88.0814 50.3322,89.8169 46.861,88.9492" stroke="#0000c3" stroke-width="2" /><polyline fill="none" points="67.2542,73.7627 68.122,81.139 73.7627,86.3458 80.2712,87.6475 86.3458,84.1763 90.2508,80.2712" stroke="#0000ff" stroke-width="2" /><polyline fill="none" points="65.0847,63.3492 61.1797,61.6136 59.4441,57.7085 59.4441,55.1051 61.6136,52.5017 64.6508,50.3322 68.9898,50.7661 72.461,52.5017 74.6305,55.539 71.5932,59.0102 67.2542,59.878 64.6508,58.1424 65.0847,55.539" stroke="#0034ff" stroke-width="2" /><polyline fill="none" points="42.0881,41.6542 42.0881,39.0508 44.2576,38.1831 46.861,39.0508 46.4271,40.3525" stroke="#0070ff" stroke-width="2" /><polyline fill="none" points="81.139,43.8237 85.9119,40.3525 84.1763,37.7492" stroke="#00acff" stroke-width="2" /><polyline fill="none" points="83.3085,60.7458 83.7424,60.7458" stroke="#02e8f4" stroke-width="2" /><polyline fill="none" points="77.6678,69.4237 77.6678,69.4237" stroke="#32ffc3" stroke-width="2" /><polyline fill="none" points="82.0068,77.2339 82.0068,77.2339" stroke="#63ff93" stroke-width="2" /><polyline fill="none" points="43.3898,62.0475 43.3898,62.4814" stroke="#93ff63" stroke-width="2" /><polyline fill="none" points="47.7288,70.2915 47.7288,70.2915" stroke="#c3ff32" stroke-width="2" /><polyline fill="none" points="41.2203,83.3085 40.7864,82.8746" stroke="#f4f802" stroke-width="2" /><polyline fill="none" points="35.5797,65.5186 26.0339,68.5559 8.678,81.139" stroke="#ffc000" stroke-width="2" /><polyline fill="none" points="42.9559,73.7627 35.5797,76.8 16.4881,91.9864" stroke="#ff8900" stroke-width="2" /><polyline fill="none" points="41.2203,86.7797 31.2407,91.1186 26.0339,96.3254" stroke="#ff5100" stroke-width="2" /><polyline fill="none" points="96.3254,63.3492 109.7763,65.9525 119.322,70.2915" stroke="#ff1a00" stroke-width="2" /><polyline fill="none" points="96.3254,72.8949 107.6068,77.6678 116.2847,83.7424" stroke="#c30000" stroke-width="2" /><polyline fill="none" points="90.6847,79.4034 107.6068,93.722" stroke="#7f0000" stroke-width="2" /></svg>