<?xml version="1.0" encoding="utf-8" ?>
<svg baseProfile="tiny" height="128" version="1.2" viewBox="0,0,128,128" width="128" xmlns="http://www.w3.org/2000/svg" xmlns:ev="http://www.w3.org/2001/xml-events" xmlns:xlink="http://www.w3.org/1999/xlink"><defs /><polyline fill="none" points="90.6847,44.2576 84.1763,42.522 68.122,41.2203 61.6136,41.6542 50.7661,45.5593 45.1254,49.8983 39.9186,57.2746 39.0508,64.6508 41.2203,67.2542 49.4644,68.9898 60.3119,69.4237 77.2339,65.5186 85.478,60.3119 91.1186,55.1051 92.8542,48.5966 91.9864,44.6915" stroke="#00007f" stroke-width="2" /><polyline fill="none" points="91.9864,52.9356 98.4949,51.2 108.0407,44.2576 116.7186,33.4102 119.322,24.7322 114.5492,24.2983 108.9085,27.3356 97.1932,44.2576 89.3831,48.5966" stroke="#0000cc" stroke-width="2" /><polyline fill="none" points="43.3898,52.0678 36.4475,43.3898" stroke="#0008ff" stroke-width="2" /><polyline fill="none" points="45.5593,47.7288 42.9559,41.2203" stroke="#004cff" stroke-width="2" /><polyline fill="none" points="51.6339,28.6373 45.5593,23.8644 41.2203,21.6949 32.9763,21.6949 27.7695,23.8644 24.2983,27.3356 22.5627,31.2407 21.261,44.2576 22.5627,47.7288 26.0339,49.4644 31.6746,49.0305 37.7492,46.4271 44.6915,40.7864 48.5966,32.9763 48.5966,28.2034 46.861,24.2983" stroke="#0090ff" stroke-width="2" /><polyline fill="none" points="23.8644,25.1661 28.2034,17.3559 36.4475,8.678 37.7492,10.4136 35.5797,22.9966" stroke="#00d4ff" stroke-width="2" /><polyline fill="none" points="42.9559,23.8644 45.9932,19.0915 57.2746,9.5458 50.3322,22.1288 49.4644,27.3356" stroke="#29ffcd" stroke-width="2" /><polyline fill="none" points="19.5254,36.4475 10.4136,30.8068" stroke="#5fff96" stroke-width="2" /><polyline fill="none" points="13.4508,41.2203 12.1492,39.4847 8.678,40.3525" stroke="#96ff5f" stroke-width="2" /><polyline fill="none" points="17.7898,43.3898 12.5831,43.8237" stroke="#cdff29" stroke-width="2" /><polyline fill="none" points="50.3322,63.7831 45.9932,85.9119" stroke="#ffe500" stroke-width="2" /><polyline fill="none" points="56.8407,66.3864 51.6339,87.6475 48.1627,87.6475 40.3525,84.6102" stroke="#ffa600" stroke-width="2" /><polyline fill="none" points="71.5932,66.3864 69.8576,74.6305 65.0847,85.0441 80.7051,85.0441 81.5729,84.6102 79.8373,80.7051 77.2339,64.6508" stroke="#ff6700" stroke-width="2" /><polyline fill="none" points="93.2881,59.878 92.4203,70.2915 95.0237,75.4983 98.4949,78.1017 99.7966,75.4983 99.3627,70.7254 95.4576,63.7831 91.5525,59.878" stroke="#ff2800" stroke-width="2" /><polyline fill="none" points="98.4949,79.8373 96.3254,82.0068 96.3254,85.9119 98.4949,91.5525 103.7017,93.2881 104.5695,88.5153 101.0983,82.0068 95.8915,77.6678" stroke="#cc0000" stroke-width="2" /><polyline fill="none" points="61.6136,95.8915 61.6136,95.8915" stroke="#7f0000" stroke-width="2" /></svg>