<?xml version="1.0" encoding="utf-8" ?>
<svg baseProfile="tiny" height="128" version="1.2" viewBox="0,0,128,128" width="128" xmlns="http://www.w3.org/2000/svg" xmlns:ev="http://www.w3.org/2001/xml-events" xmlns:xlink="http://www.w3.org/1999/xlink"><defs /><polyline fill="none" points="20.3932,42.9559 37.3153,12.1492 37.3153,34.7119 39.0508,39.9186 38.1831,39.9186" stroke="#00007f" stroke-width="2" /><polyline fill="none" points="69.8576,42.0881 70.7254,36.8814 75.0644,28.2034 90.6847,8.678 97.1932,34.7119 97.6271,38.6169 96.3254,39.0508" stroke="#0000fe" stroke-width="2" /><polyline fill="none" points="69.8576,39.9186 40.7864,39.9186 41.2203,42.0881" stroke="#0060ff" stroke-width="2" /><polyline fill="none" points="20.8271,45.1254 14.7525,80.2712 16.922,85.478 23.4305,91.9864 34.278,95.0237 84.1763,95.0237 98.9288,88.9492 102.8339,82.8746 104.5695,76.8 113.2475,57.2746 114.9831,42.9559 113.6814,35.5797 101.9661,36.0136" stroke="#00d4ff" stroke-width="2" /><polyline fill="none" points="63.7831,65.5186 85.9119,65.5186 116.7186,62.0475 119.322,60.7458 118.4542,59.0102 117.1525,59.4441" stroke="#4cffaa" stroke-width="2" /><polyline fill="none" points="75.4983,65.5186 78.1017,69.8576 82.4407,72.8949 101.5322,76.8 102.8339,78.5356" stroke="#aaff4c" stroke-width="2" /><polyline fill="none" points="44.2576,66.8203 8.678,65.9525" stroke="#ffe500" stroke-width="2" /><polyline fill="none" points="42.9559,68.9898 16.922,85.9119" stroke="#ff7a00" stroke-width="2" /><polyline fill="none" points="42.9559,63.3492 71.1593,62.9153 59.878,79.4034 53.3695,72.0271 50.7661,63.7831 47.2949,63.3492" stroke="#fe1200" stroke-width="2" /><polyline fill="none" points="56.8407,76.8 56.4068,90.6847 47.2949,91.1186" stroke="#7f0000" stroke-width="2" /></svg>