<?xml version="1.0" encoding="utf-8" ?>
<svg baseProfile="tiny" height="128" version="1.2" viewBox="0,0,128,128" width="128" xmlns="http://www.w3.org/2000/svg" xmlns:ev="http://www.w3.org/2001/xml-events" xmlns:xlink="http://www.w3.org/1999/xlink"><defs /><polyline fill="none" points="19.5254,37.7492 19.5254,26.9017 21.6949,13.8847 23.8644,9.5458 26.0339,9.1119 32.1085,11.7153 43.3898,24.7322 47.7288,22.5627 66.8203,20.3932 82.0068,27.3356 84.1763,17.7898 87.6475,13.0169 92.8542,8.678 95.0237,8.678 99.7966,38.6169 100.2305,53.8034 99.7966,56.4068 92.4203,66.8203 86.3458,70.7254 68.5559,75.4983 57.2746,75.4983 52.9356,73.7627 32.9763,53.8034 26.0339,42.9559 26.0339,39.4847" stroke="#00007f" stroke-width="2" /><polyline fill="none" points="52.5017,45.1254 46.4271,47.2949 45.1254,44.6915 46.4271,42.522 48.5966,42.0881 49.8983,44.2576 47.2949,45.1254 46.861,42.9559 48.5966,42.0881" stroke="#0010ff" stroke-width="2" /><polyline fill="none" points="78.5356,45.5593 77.6678,48.5966 71.5932,50.3322 71.1593,45.5593 76.3661,43.3898 76.8,44.6915" stroke="#00a4ff" stroke-width="2" /><polyline fill="none" points="67.6881,61.1797 69.8576,59.4441 77.2339,58.1424 94.5898,52.0678 119.322,45.5593" stroke="#3fffb7" stroke-width="2" /><polyline fill="none" points="75.9322,64.2169 116.2847,61.1797" stroke="#b7ff3f" stroke-width="2" /><polyline fill="none" points="78.5356,70.2915 82.8746,71.1593 119.322,70.2915" stroke="#ffb900" stroke-width="2" /><polyline fill="none" points="54.6712,56.4068 38.6169,53.8034 12.1492,53.8034 8.678,55.1051" stroke="#ff3000" stroke-width="2" /><polyline fill="none" points="51.2,64.6508 42.522,64.2169 34.278,65.0847 22.5627,71.1593" stroke="#7f0000" stroke-width="2" /></svg>