<?xml version="1.0" encoding="utf-8" ?>
<svg baseProfile="tiny" height="128" version="1.2" viewBox="0,0,128,128" width="128" xmlns="http://www.w3.org/2000/svg" xmlns:ev="http://www.w3.org/2001/xml-events" xmlns:xlink="http://www.w3.org/1999/xlink"><defs /><polyline fill="none" points="63.7831,41.2203 56.4068,39.4847 37.3153,49.4644 19.0915,66.3864 11.7153,78.5356 8.678,91.1186 10.4136,102.8339 21.6949,115.4169 26.0339,117.5864 39.9186,119.322 51.6339,115.4169 57.2746,110.6441 79.4034,97.1932 88.0814,85.9119 93.2881,65.0847 90.6847,53.3695 87.2136,46.861 80.7051,41.6542 70.7254,39.9186 68.122,40.7864 68.122,42.522" stroke="#00007f" stroke-width="2" /><polyline fill="none" points="24.2983,52.9356 25.1661,47.2949 39.4847,25.6 45.5593,10.8475 47.2949,10.4136 53.3695,17.3559 58.5763,31.6746 61.6136,45.9932" stroke="#0028ff" stroke-width="2" /><polyline fill="none" points="73.3288,44.6915 79.8373,34.7119 102.8339,11.7153 107.6068,8.678 110.2102,13.4508 108.4746,26.4678 102.8339,46.4271 100.2305,52.9356 95.4576,58.5763" stroke="#00d4ff" stroke-width="2" /><polyline fill="none" points="51.2,68.5559 51.2,68.5559" stroke="#7cff79" stroke-width="2" /><polyline fill="none" points="71.1593,73.7627 71.1593,73.7627" stroke="#ffe500" stroke-width="2" /><polyline fill="none" points="44.2576,68.122 42.0881,65.0847" stroke="#ff4600" stroke-width="2" /><polyline fill="none" points="78.5356,65.9525 76.3661,69.4237 76.8,73.7627 78.9695,72.0271 78.5356,70.2915" stroke="#7f0000" stroke-width="2" /></svg>