<?xml version="1.0" encoding="utf-8" ?>
<svg baseProfile="tiny" height="128" version="1.2" viewBox="0,0,128,128" width="128" xmlns="http://www.w3.org/2000/svg" xmlns:ev="http://www.w3.org/2001/xml-events" xmlns:xlink="http://www.w3.org/1999/xlink"><defs /><polyline fill="none" points="51.8095,113.6327 72.2721,99.2653 87.5102,79.6735 90.9932,72.2721 91.4286,60.517 88.381,45.7143 84.898,38.3129 93.1701,36.1361 99.2653,32.2177 112.3265,17.415 114.5034,11.7551 108.8435,8.7075 101.4422,8.7075 78.8027,19.5918 67.483,20.0272 60.0816,19.1565 45.2789,23.9456 40.0544,24.381 33.5238,21.7687 26.1224,15.2381 12.6259,12.1905 9.1429,9.5782 8.7075,34.8299 12.6259,38.7483 21.7687,44.8435 22.6395,48.3265 19.1565,55.2925 18.2857,65.7415 22.6395,96.6531 25.6871,101.0068 34.3946,103.619 41.3605,114.9388 44.8435,117.9864 50.9388,119.2925 47.4558,114.9388" stroke="#00007f" stroke-width="2" /><polyline fill="none" points="44.8435,91.4286 51.3741,84.898 53.9864,84.4626 62.2585,89.2517" stroke="#0010ff" stroke-width="2" /><polyline fill="none" points="50.068,88.8163 50.5034,73.5782" stroke="#00a4ff" stroke-width="2" /><polyline fill="none" points="47.0204,68.7891 44.8435,64.4354 61.3878,62.6939 50.5034,67.483 48.7619,74.8844" stroke="#3fffb7" stroke-width="2" /><polyline fill="none" points="37.8776,37.4422 37.4422,47.4558" stroke="#b7ff3f" stroke-width="2" /><polyline fill="none" points="62.2585,43.9728 62.6939,52.2449" stroke="#ffb900" stroke-width="2" /><polyline fill="none" points="40.0544,35.2653 34.8299,38.7483 33.0884,42.6667 33.0884,51.3741 36.1361,51.3741 37.8776,48.3265 38.7483,45.7143 37.0068,43.9728" stroke="#ff3000" stroke-width="2" /><polyline fill="none" points="75.3197,45.7143 56.5986,49.1973 54.4218,51.3741 55.7279,54.4218 61.8231,57.9048 64.0,56.5986 64.4354,53.1156 60.9524,49.6327" stroke="#7f0000" stroke-width="2" /></svg>