<?xml version="1.0" encoding="utf-8" ?>
<svg baseProfile="tiny" height="128" version="1.2" viewBox="0,0,128,128" width="128" xmlns="http://www.w3.org/2000/svg" xmlns:ev="http://www.w3.org/2001/xml-events" xmlns:xlink="http://www.w3.org/1999/xlink"><defs /><polyline fill="none" points="52.0678,40.7864 41.6542,38.6169 33.8441,38.6169 24.7322,43.3898 18.2237,49.8983 10.4136,65.9525 9.5458,76.8 11.2814,88.0814 17.3559,102.4 19.9593,105.8712 29.0712,113.2475 36.0136,116.7186 52.9356,119.322 66.8203,117.1525 78.5356,111.9458 91.1186,101.9661 97.1932,90.6847 98.4949,75.4983 96.3254,63.7831 88.5153,50.3322 81.5729,43.8237 70.2915,38.1831 59.0102,36.8814 55.1051,37.7492 56.4068,38.1831 58.5763,37.3153" stroke="#00007f" stroke-width="2" /><polyline fill="none" points="78.9695,40.7864 78.9695,36.8814 82.8746,28.2034 88.5153,19.0915 96.3254,13.0169 96.3254,43.8237 92.4203,59.878" stroke="#0080ff" stroke-width="2" /><polyline fill="none" points="30.3729,37.3153 25.6,32.5424 14.7525,12.5831 9.9797,8.678 8.678,16.922 10.4136,29.5051 16.0542,55.1051 17.7898,57.2746" stroke="#7cff79" stroke-width="2" /><polyline fill="none" points="45.9932,76.8 61.6136,76.8 66.3864,78.5356 66.8203,85.478 65.5186,90.2508 61.1797,93.722 55.9729,93.722 46.4271,87.2136 41.6542,79.4034 40.3525,76.3661 41.2203,74.6305" stroke="#ff9400" stroke-width="2" /><polyline fill="none" points="30.3729,55.1051 28.2034,57.7085 28.2034,61.1797 30.3729,65.0847 33.4102,66.3864" stroke="#7f0000" stroke-width="2" /></svg>