<?xml version="1.0" encoding="utf-8" ?>
<svg baseProfile="tiny" height="128" version="1.2" viewBox="0,0,128,128" width="128" xmlns="http://www.w3.org/2000/svg" xmlns:ev="http://www.w3.org/2001/xml-events" xmlns:xlink="http://www.w3.org/1999/xlink"><defs /><polyline fill="none" points="62.0475,21.261 61.6136,17.3559 58.5763,13.8847 47.7288,13.4508 30.8068,20.3932 19.0915,28.6373 14.7525,36.0136 12.1492,47.2949 13.0169,66.8203 17.3559,77.6678 24.2983,84.6102 32.9763,88.9492 43.3898,91.1186 55.539,91.1186 67.2542,89.8169 78.1017,86.3458 86.7797,80.7051 94.1559,73.3288 98.9288,63.7831 100.6644,53.3695 99.3627,44.2576 94.5898,35.1458 88.0814,26.9017 80.7051,21.261 66.8203,16.4881 61.6136,16.922 60.7458,18.6576" stroke="#00007f" stroke-width="2" /><polyline fill="none" points="33.4102,42.522 32.9763,44.2576 34.278,44.6915" stroke="#004cff" stroke-width="2" /><polyline fill="none" points="69.8576,47.7288 72.0271,48.5966 73.3288,46.4271" stroke="#29ffcd" stroke-width="2" /><polyline fill="none" points="99.7966,29.939 107.6068,25.6 118.4542,23.4305 119.322,25.6 109.3424,40.3525" stroke="#cdff29" stroke-width="2" /><polyline fill="none" points="32.1085,19.0915 8.678,8.678 13.4508,27.7695 16.0542,30.3729" stroke="#ff6700" stroke-width="2" /><polyline fill="none" points="36.4475,67.2542 38.1831,71.5932 40.3525,73.3288 46.4271,73.7627 60.3119,67.2542 65.5186,60.7458" stroke="#7f0000" stroke-width="2" /></svg>