<?xml version="1.0" encoding="utf-8" ?>
<svg baseProfile="tiny" height="128" version="1.2" viewBox="0,0,128,128" width="128" xmlns="http://www.w3.org/2000/svg" xmlns:ev="http://www.w3.org/2001/xml-events" xmlns:xlink="http://www.w3.org/1999/xlink"><defs /><polyline fill="none" points="53.8034,60.3119 47.2949,55.1051 28.2034,54.2373 16.0542,59.878 9.1119,68.5559 8.678,87.2136 12.1492,96.3254 22.9966,108.4746 32.1085,113.6814 47.7288,118.0203 59.0102,119.322 76.3661,119.322 88.5153,117.1525 97.6271,111.5119 102.8339,105.0034 106.739,93.2881 106.739,75.4983 102.4,66.3864 94.5898,59.0102 83.7424,54.2373 70.7254,51.2 51.6339,49.4644 44.2576,49.8983 38.1831,53.8034 37.7492,55.539" stroke="#00007f" stroke-width="2" /><polyline fill="none" points="16.0542,72.461 15.1864,57.2746 18.2237,36.8814 19.0915,8.678 23.8644,16.0542 28.6373,27.3356 36.8814,39.4847 53.8034,60.3119 55.539,61.1797" stroke="#0010ff" stroke-width="2" /><polyline fill="none" points="65.9525,64.6508 68.122,52.9356 73.7627,40.7864 77.2339,33.8441 88.0814,19.5254 91.5525,26.4678 108.4746,71.1593 108.9085,76.8" stroke="#00a4ff" stroke-width="2" /><polyline fill="none" points="55.9729,73.7627 53.8034,76.8 53.8034,83.3085 57.2746,85.0441 60.3119,83.7424 60.3119,76.8 58.5763,73.7627 55.539,73.3288 53.8034,76.8 53.3695,79.8373 55.539,80.2712" stroke="#3fffb7" stroke-width="2" /><polyline fill="none" points="55.539,85.478 55.1051,98.061 49.0305,103.7017 45.1254,103.7017 42.0881,101.0983 40.3525,98.061 40.3525,92.4203 41.6542,91.5525" stroke="#b7ff3f" stroke-width="2" /><polyline fill="none" points="55.539,89.8169 55.539,95.8915 59.4441,102.4 65.5186,101.0983 69.4237,98.9288 71.5932,95.8915 72.8949,91.1186" stroke="#ffb900" stroke-width="2" /><polyline fill="none" points="35.1458,70.7254 34.7119,67.6881 31.6746,69.8576 29.939,66.8203 32.5424,65.0847 33.4102,66.3864" stroke="#ff3000" stroke-width="2" /><polyline fill="none" points="76.8,68.9898 76.8,68.9898" stroke="#7f0000" stroke-width="2" /></svg>