<?xml version="1.0" encoding="utf-8" ?>
<svg baseProfile="tiny" height="128" version="1.2" viewBox="0,0,128,128" width="128" xmlns="http://www.w3.org/2000/svg" xmlns:ev="http://www.w3.org/2001/xml-events" xmlns:xlink="http://www.w3.org/1999/xlink"><defs /><polyline fill="none" points="44.6915,48.1627 29.939,18.2237" stroke="#00007f" stroke-width="2" /><polyline fill="none" points="27.7695,19.0915 22.1288,30.8068 17.3559,48.1627" stroke="#0080ff" stroke-width="2" /><polyline fill="none" points="70.7254,44.2576 87.2136,17.3559" stroke="#7cff79" stroke-width="2" /><polyline fill="none" points="92.4203,8.678 99.7966,32.1085 101.5322,44.2576" stroke="#ff9400" stroke-width="2" /><polyline fill="none" points="103.2678,48.5966 80.2712,44.2576 68.122,44.2576 46.861,46.861 26.4678,52.5017 20.3932,55.9729 12.5831,63.3492 8.678,72.8949 8.678,78.9695 9.5458,85.0441 12.5831,91.5525 23.4305,102.4 38.1831,111.9458 55.1051,117.5864 72.8949,119.322 90.2508,118.0203 104.5695,111.078 109.3424,105.4373 112.3797,98.4949 113.6814,82.0068 112.3797,73.7627 109.3424,65.9525 98.4949,52.9356 91.9864,47.2949 86.3458,43.8237 76.8,42.9559" stroke="#7f0000" stroke-width="2" /></svg>