<?xml version="1.0" encoding="utf-8" ?>
<svg baseProfile="tiny" height="128" version="1.2" viewBox="0,0,128,128" width="128" xmlns="http://www.w3.org/2000/svg" xmlns:ev="http://www.w3.org/2001/xml-events" xmlns:xlink="http://www.w3.org/1999/xlink"><defs /><polyline fill="none" points="30.0408,38.7483 30.4762,28.2993 29.1701,21.3333 30.4762,8.7075 52.6803,37.8776 63.1293,29.1701 73.1429,25.2517 82.2857,27.8639 94.4762,33.5238 96.2177,37.8776 98.3946,31.3469 108.8435,18.7211 110.1497,27.4286 114.5034,33.0884 119.2925,49.1973 117.551,58.3401 108.8435,81.415 105.3605,85.7687 98.3946,90.9932 92.7347,93.6054 58.7755,90.9932 38.3129,83.1565 31.7823,77.4966 27.8639,64.4354 27.4286,56.5986 30.0408,53.551 31.7823,47.0204" stroke="#00007f" stroke-width="2" /><polyline fill="none" points="78.8027,71.8367 87.5102,70.5306 94.4762,67.9184 111.0204,65.7415" stroke="#0028ff" stroke-width="2" /><polyline fill="none" points="87.5102,76.1905 92.2993,77.932 101.8776,76.6259 118.8571,79.2381 116.6803,80.1088" stroke="#00d4ff" stroke-width="2" /><polyline fill="none" points="88.381,83.5918 93.1701,86.6395" stroke="#7cff79" stroke-width="2" /><polyline fill="none" points="62.6939,75.3197 23.5102,78.3673 15.2381,77.0612 13.0612,77.932" stroke="#ffe500" stroke-width="2" /><polyline fill="none" points="55.2925,81.8503 31.3469,87.9456 13.4966,93.6054 8.7075,96.2177" stroke="#ff4600" stroke-width="2" /><polyline fill="none" points="60.9524,85.3333 56.5986,84.4626 25.6871,95.3469 21.7687,99.7007 16.9796,102.3129" stroke="#7f0000" stroke-width="2" /></svg>