<?xml version="1.0" encoding="utf-8" ?>
<svg baseProfile="tiny" height="128" version="1.2" viewBox="0,0,128,128" width="128" xmlns="http://www.w3.org/2000/svg" xmlns:ev="http://www.w3.org/2001/xml-events" xmlns:xlink="http://www.w3.org/1999/xlink"><defs /><polyline fill="none" points="38.1831,119.322 34.278,96.7593 28.6373,82.8746 28.6373,62.0475 35.1458,55.1051 40.3525,52.0678 45.9932,51.2 82.0068,50.3322 86.7797,52.0678 91.5525,58.1424 94.5898,62.9153 95.4576,70.2915 95.4576,88.5153 92.8542,94.1559 85.478,103.7017 75.9322,109.3424 58.1424,113.2475 45.1254,113.2475 40.3525,110.6441 38.1831,105.4373 38.1831,99.3627" stroke="#00007f" stroke-width="2" /><polyline fill="none" points="34.278,48.1627 32.5424,23.4305 26.4678,8.678 22.5627,14.7525 20.3932,23.4305 17.3559,52.0678 15.6203,58.1424 15.6203,62.9153 19.5254,65.0847" stroke="#0000e8" stroke-width="2" /><polyline fill="none" points="75.9322,44.2576 76.8,33.4102 84.6102,23.4305 89.8169,19.5254 99.7966,16.4881 101.5322,21.261 101.5322,29.0712 98.4949,55.1051" stroke="#0038ff" stroke-width="2" /><polyline fill="none" points="40.3525,68.9898 41.2203,66.8203" stroke="#0094ff" stroke-width="2" /><polyline fill="none" points="68.122,62.9153 68.122,62.9153" stroke="#0cf4ea" stroke-width="2" /><polyline fill="none" points="68.122,64.2169 68.122,64.2169" stroke="#56ffa0" stroke-width="2" /><polyline fill="none" points="82.8746,69.8576 82.8746,69.8576" stroke="#a0ff56" stroke-width="2" /><polyline fill="none" points="78.9695,73.7627 75.9322,70.7254" stroke="#eaff0c" stroke-width="2" /><polyline fill="none" points="57.2746,87.6475 47.2949,93.722 39.4847,95.4576 12.5831,96.7593 8.678,92.8542" stroke="#ffaa00" stroke-width="2" /><polyline fill="none" points="50.3322,91.5525 46.861,96.7593 26.9017,103.2678 27.3356,105.4373" stroke="#ff5500" stroke-width="2" /><polyline fill="none" points="52.9356,88.5153 65.9525,94.5898 82.4407,98.4949 98.4949,104.5695 106.3051,105.4373 104.5695,104.5695" stroke="#e80000" stroke-width="2" /><polyline fill="none" points="55.9729,90.6847 102.4,110.6441" stroke="#7f0000" stroke-width="2" /></svg>