<?xml version="1.0" encoding="utf-8" ?>
<svg baseProfile="tiny" height="128" version="1.2" viewBox="0,0,128,128" width="128" xmlns="http://www.w3.org/2000/svg" xmlns:ev="http://www.w3.org/2001/xml-events" xmlns:xlink="http://www.w3.org/1999/xlink"><defs /><polyline fill="none" points="79.8373,37.7492 75.0644,35.1458 59.878,33.8441 42.522,34.7119 19.9593,45.1254 9.9797,53.8034 8.678,64.6508 11.2814,68.5559 20.8271,75.4983 35.5797,82.0068 65.9525,84.1763 73.7627,84.1763 85.478,79.8373 98.061,62.4814 100.2305,56.8407 100.6644,48.5966 98.4949,44.6915 90.6847,41.2203 72.8949,37.7492 61.1797,36.8814" stroke="#00007f" stroke-width="2" /><polyline fill="none" points="30.3729,34.278 30.3729,21.6949 33.8441,8.678 49.8983,28.6373 52.0678,34.7119" stroke="#0000f1" stroke-width="2" /><polyline fill="none" points="82.4407,29.5051 84.1763,30.8068 98.061,31.2407 119.322,29.939 119.322,32.5424 112.8136,40.7864 99.7966,48.5966" stroke="#004cff" stroke-width="2" /><polyline fill="none" points="85.478,30.3729 75.9322,33.8441" stroke="#00b0ff" stroke-width="2" /><polyline fill="none" points="55.539,59.0102 50.7661,60.7458 49.0305,63.7831 51.2,64.2169 55.1051,61.1797 54.6712,59.4441 52.5017,59.4441" stroke="#29ffcd" stroke-width="2" /><polyline fill="none" points="47.7288,63.3492 38.1831,69.8576" stroke="#7cff79" stroke-width="2" /><polyline fill="none" points="48.5966,61.6136 48.1627,59.4441 44.6915,58.1424" stroke="#cdff29" stroke-width="2" /><polyline fill="none" points="49.4644,58.1424 51.6339,54.2373" stroke="#ffc400" stroke-width="2" /><polyline fill="none" points="56.4068,60.3119 62.9153,61.1797" stroke="#ff6700" stroke-width="2" /><polyline fill="none" points="57.2746,63.3492 56.4068,69.8576" stroke="#f10700" stroke-width="2" /><polyline fill="none" points="51.6339,63.7831 51.2,67.6881 49.8983,67.2542" stroke="#7f0000" stroke-width="2" /></svg>