<?xml version="1.0" encoding="utf-8" ?>
<svg baseProfile="tiny" height="128" version="1.2" viewBox="0,0,128,128" width="128" xmlns="http://www.w3.org/2000/svg" xmlns:ev="http://www.w3.org/2001/xml-events" xmlns:xlink="http://www.w3.org/1999/xlink"><defs /><polyline fill="none" points="89.2517,26.9932 87.0748,22.6395 80.5442,17.8503 74.449,16.5442 54.4218,16.5442 43.102,20.898 27.4286,30.9116 17.415,48.3265 14.8027,57.4694 14.8027,77.932 21.3333,88.381 31.3469,95.7823 44.8435,99.2653 74.449,97.9592 86.6395,91.4286 103.1837,76.1905 107.5374,70.0952 110.1497,63.1293 110.1497,48.3265 106.2313,40.9252 90.5578,27.4286" stroke="#00007f" stroke-width="2" /><polyline fill="none" points="18.2857,40.4898 13.932,17.8503 8.7075,9.1429 15.6735,8.7075 50.5034,19.5918" stroke="#004cff" stroke-width="2" /><polyline fill="none" points="87.5102,26.1224 119.2925,10.449 117.1156,30.9116 111.4558,48.3265" stroke="#29ffcd" stroke-width="2" /><polyline fill="none" points="27.8639,27.8639 28.2993,14.8027 32.2177,22.6395 38.3129,27.4286" stroke="#cdff29" stroke-width="2" /><polyline fill="none" points="97.0884,30.0408 103.1837,29.6054 109.7143,26.5578 104.9252,40.4898" stroke="#ff6700" stroke-width="2" /><polyline fill="none" points="50.9388,45.7143 49.6327,48.7619 49.6327,56.1633" stroke="#7f0000" stroke-width="2" /></svg>