<?xml version="1.0" encoding="utf-8" ?>
<svg baseProfile="tiny" height="128" version="1.2" viewBox="0,0,128,128" width="128" xmlns="http://www.w3.org/2000/svg" xmlns:ev="http://www.w3.org/2001/xml-events" xmlns:xlink="http://www.w3.org/1999/xlink"><defs /><polyline fill="none" points="40.0544,43.5374 31.7823,45.7143 23.9456,50.9388 17.8503,57.9048 15.6735,64.0 15.6735,74.0136 20.4626,84.4626 31.7823,95.7823 47.4558,102.7483 63.5646,104.9252 88.8163,105.3605 101.8776,101.4422 107.9728,97.0884 112.7619,90.9932 112.7619,70.966 103.619,63.1293 87.9456,55.7279 70.0952,49.6327 49.6327,46.1497 38.3129,46.585" stroke="#00007f" stroke-width="2" /><polyline fill="none" points="38.3129,44.8435 31.3469,25.6871 22.2041,12.6259 19.1565,8.7075 17.8503,9.1429 8.7075,36.1361 8.7075,51.3741 12.1905,62.2585" stroke="#0010ff" stroke-width="2" /><polyline fill="none" points="93.6054,51.3741 117.551,26.9932 118.8571,28.7347 119.2925,44.4082 116.6803,60.0816 114.5034,65.7415 108.8435,66.6122" stroke="#00a4ff" stroke-width="2" /><polyline fill="none" points="47.4558,62.2585 49.1973,61.8231 50.068,67.0476 49.1973,68.3537 46.585,68.3537 42.2313,62.6939 45.7143,60.0816 45.7143,64.0 43.5374,65.3061 41.3605,64.8707 41.3605,61.3878 43.102,61.3878" stroke="#3fffb7" stroke-width="2" /><polyline fill="none" points="95.7823,65.3061 85.7687,67.483 84.898,64.8707 86.2041,62.6939 87.5102,66.1769 86.2041,69.6599 86.2041,66.1769 89.6871,62.6939 89.6871,64.4354" stroke="#b7ff3f" stroke-width="2" /><polyline fill="none" points="69.2245,81.415 72.2721,80.9796 71.4014,83.5918 65.7415,84.4626 63.1293,83.1565 61.3878,80.1088 63.5646,77.4966 66.1769,76.6259 67.0476,80.5442 65.7415,80.5442" stroke="#ffb900" stroke-width="2" /><polyline fill="none" points="67.0476,84.898 60.9524,90.9932 53.551,94.0408 49.1973,88.8163 47.8912,82.7211" stroke="#ff3000" stroke-width="2" /><polyline fill="none" points="67.483,84.0272 66.6122,88.381 69.2245,94.4762 76.1905,94.9116 79.2381,90.9932" stroke="#7f0000" stroke-width="2" /></svg>