<?xml version="1.0" encoding="utf-8" ?>
<svg baseProfile="tiny" height="128" version="1.2" viewBox="0,0,128,128" width="128" xmlns="http://www.w3.org/2000/svg" xmlns:ev="http://www.w3.org/2001/xml-events" xmlns:xlink="http://www.w3.org/1999/xlink"><defs /><polyline fill="none" points="44.5993,19.1777 38.3554,11.5958 33.4495,9.3659 32.1115,12.0418 32.1115,23.6376 32.5575,25.4216 35.2334,26.3136" stroke="#00007f" stroke-width="2" /><polyline fill="none" points="45.4913,19.6237 50.8432,16.9477 57.0871,16.9477 61.547,20.5157 65.115,9.3659 66.453,8.9199 73.1429,16.0557 74.0348,23.1916" stroke="#0000f1" stroke-width="2" /><polyline fill="none" points="38.3554,31.2195 37.0174,31.2195 35.2334,37.0174 35.2334,41.4774 36.5714,43.2613 42.8153,45.4913 57.5331,45.4913 64.669,43.7073 68.6829,40.1394 73.1429,32.1115 73.1429,25.8676" stroke="#004cff" stroke-width="2" /><polyline fill="none" points="43.2613,27.2056 49.0592,25.8676 49.9512,28.0976 44.5993,29.8815 41.4774,29.4355" stroke="#00b0ff" stroke-width="2" /><polyline fill="none" points="56.1951,26.7596 62.439,23.6376 64.223,24.0836 65.115,26.7596 56.6411,26.7596" stroke="#29ffcd" stroke-width="2" /><polyline fill="none" points="61.993,32.1115 119.0801,25.4216" stroke="#7cff79" stroke-width="2" /><polyline fill="none" points="71.8049,34.3415 92.7666,32.1115 106.5923,32.5575" stroke="#cdff29" stroke-width="2" /><polyline fill="none" points="43.2613,38.3554 15.6098,42.8153" stroke="#ffc400" stroke-width="2" /><polyline fill="none" points="41.9233,42.8153 35.6794,42.8153 8.9199,50.8432" stroke="#ff6700" stroke-width="2" /><polyline fill="none" points="52.1812,46.3833 45.9373,46.8293 30.7735,51.7352 27.6516,56.6411 25.8676,62.885 26.7596,64.223 33.8955,65.561 53.0732,65.561" stroke="#f10700" stroke-width="2" /><polyline fill="none" points="68.6829,42.8153 85.1847,42.8153 95.4425,52.6272 94.9965,58.8711 93.6585,60.2091 70.9129,66.453" stroke="#7f0000" stroke-width="2" /></svg>