<?xml version="1.0" encoding="utf-8" ?>
<svg baseProfile="tiny" height="128" version="1.2" viewBox="0,0,128,128" width="128" xmlns="http://www.w3.org/2000/svg" xmlns:ev="http://www.w3.org/2001/xml-events" xmlns:xlink="http://www.w3.org/1999/xlink"><defs /><polyline fill="none" points="37.7492,38.6169 25.6,58.1424 22.9966,68.9898 22.9966,87.6475 23.8644,94.1559 35.1458,108.9085 45.5593,115.4169 58.1424,118.8881 76.8,119.322 84.1763,116.7186 92.8542,110.2102 99.7966,98.4949 101.9661,91.1186 102.8339,73.7627 100.6644,64.2169 95.8915,56.8407 88.5153,49.4644 78.9695,42.522 70.7254,39.4847 48.5966,33.4102 37.7492,33.4102 33.8441,35.1458 29.0712,41.6542 27.7695,45.1254 28.2034,51.2 15.1864,29.939 8.678,22.1288 11.7153,19.9593 29.0712,31.2407" stroke="#00007f" stroke-width="2" /><polyline fill="none" points="71.1593,42.522 72.0271,38.1831 89.8169,8.678 93.722,36.8814 92.8542,51.2" stroke="#00d4ff" stroke-width="2" /><polyline fill="none" points="39.4847,57.7085 37.7492,61.1797 38.6169,67.2542 41.6542,67.6881 45.1254,65.5186 44.6915,62.4814 41.2203,59.0102" stroke="#ffe500" stroke-width="2" /><polyline fill="none" points="70.2915,55.539 67.2542,56.8407 67.2542,60.3119 73.3288,63.3492 74.1966,60.3119 70.7254,55.9729" stroke="#7f0000" stroke-width="2" /></svg>