<?xml version="1.0" encoding="utf-8" ?>
<svg baseProfile="tiny" height="128" version="1.2" viewBox="0,0,128,128" width="128" xmlns="http://www.w3.org/2000/svg" xmlns:ev="http://www.w3.org/2001/xml-events" xmlns:xlink="http://www.w3.org/1999/xlink"><defs /><polyline fill="none" points="22.8729,31.6701 22.8729,19.354 25.512,9.2371 26.8316,8.7973 35.6289,23.7526 39.5876,18.4742 44.866,17.5945 60.2612,25.0722 67.7388,10.5567 70.8179,8.7973 75.6564,14.0756 79.6151,27.7113 79.6151,57.1821 68.1787,64.6598 57.1821,68.1787 34.3093,67.7388 23.7526,59.8213 21.9931,52.3436 22.8729,30.3505" stroke="#00007f" stroke-width="2" /><polyline fill="none" points="38.268,36.9485 39.5876,39.5876 38.7079,36.9485" stroke="#0000f1" stroke-width="2" /><polyline fill="none" points="56.3024,36.0687 57.622,36.9485 58.5017,35.6289 56.3024,36.0687" stroke="#004cff" stroke-width="2" /><polyline fill="none" points="51.0241,45.3058 49.2646,45.7457 48.3849,47.0653 49.2646,47.945 51.9038,48.3849 53.2234,46.1856" stroke="#00b0ff" stroke-width="2" /><polyline fill="none" points="52.3436,47.945 51.0241,55.4227 47.0653,56.3024" stroke="#29ffcd" stroke-width="2" /><polyline fill="none" points="51.0241,49.7045 53.2234,54.9828 58.0619,56.3024" stroke="#7cff79" stroke-width="2" /><polyline fill="none" points="65.9794,43.1065 98.5292,35.6289 117.4433,33.8694 119.2027,33.8694 115.6838,35.6289" stroke="#cdff29" stroke-width="2" /><polyline fill="none" points="70.8179,47.0653 117.0034,47.0653" stroke="#ffc400" stroke-width="2" /><polyline fill="none" points="72.5773,46.6254 106.0069,62.9003" stroke="#ff6700" stroke-width="2" /><polyline fill="none" points="27.2715,45.3058 13.1959,43.5464 8.7973,43.9863" stroke="#f10700" stroke-width="2" /><polyline fill="none" points="26.8316,48.8247 26.8316,48.8247" stroke="#7f0000" stroke-width="2" /></svg>