<?xml version="1.0" encoding="utf-8" ?>
<svg baseProfile="tiny" height="128" version="1.2" viewBox="0,0,128,128" width="128" xmlns="http://www.w3.org/2000/svg" xmlns:ev="http://www.w3.org/2001/xml-events" xmlns:xlink="http://www.w3.org/1999/xlink"><defs /><polyline fill="none" points="28.7347,46.585 13.0612,71.4014 9.1429,86.2041 8.7075,101.0068 10.8844,108.4082 19.1565,117.551 23.5102,119.2925 37.4422,119.2925 48.7619,110.1497 56.5986,96.2177 62.2585,76.6259 62.2585,64.0 60.9524,58.3401 56.5986,53.1156 51.3741,50.068 43.102,48.7619 16.9796,49.1973 16.9796,54.4218" stroke="#00007f" stroke-width="2" /><polyline fill="none" points="24.381,55.7279 23.0748,48.3265 25.6871,38.3129 36.5714,9.5782 39.619,8.7075 41.3605,36.5714 44.4082,46.1497 49.1973,50.9388 52.2449,47.8912 67.0476,20.0272 67.483,60.0816" stroke="#0080ff" stroke-width="2" /><polyline fill="none" points="42.6667,72.7075 42.6667,77.4966 46.585,82.2857 53.9864,89.6871 58.7755,90.9932 58.3401,75.7551 54.8571,67.9184 49.1973,67.0476 46.585,70.0952 46.1497,74.0136 46.585,77.932 53.1156,84.0272" stroke="#7cff79" stroke-width="2" /><polyline fill="none" points="29.1701,69.2245 30.0408,73.1429 34.8299,77.4966 36.1361,66.1769 36.1361,78.8027" stroke="#ff9400" stroke-width="2" /><polyline fill="none" points="29.1701,101.4422 43.102,101.0068 40.9252,97.9592 38.7483,97.0884 49.1973,96.6531 54.4218,91.8639 57.4694,87.0748" stroke="#7f0000" stroke-width="2" /></svg>