<?xml version="1.0" encoding="utf-8" ?>
<svg baseProfile="tiny" height="128" version="1.2" viewBox="0,0,128,128" width="128" xmlns="http://www.w3.org/2000/svg" xmlns:ev="http://www.w3.org/2001/xml-events" xmlns:xlink="http://www.w3.org/1999/xlink"><defs /><polyline fill="none" points="69.4237,36.4475 61.6136,36.4475 52.0678,39.4847 40.3525,45.9932 26.4678,59.4441 21.6949,67.6881 19.9593,74.1966 19.5254,89.8169 22.5627,100.6644 29.939,112.8136 32.5424,115.4169 38.1831,118.0203 52.5017,119.322 65.0847,115.8508 75.9322,110.2102 90.6847,96.3254 95.0237,89.8169 97.6271,81.139 95.8915,67.2542 85.9119,52.5017 65.9525,38.6169 51.2,30.8068" stroke="#00007f" stroke-width="2" /><polyline fill="none" points="25.1661,52.0678 10.4136,35.5797 8.678,29.939 8.678,24.2983 11.7153,16.0542 19.0915,9.5458 23.4305,8.678 30.8068,9.5458 35.5797,11.2814 40.7864,15.6203 43.8237,19.5254 46.4271,26.4678 46.4271,41.6542" stroke="#0000d5" stroke-width="2" /><polyline fill="none" points="60.3119,28.6373 80.2712,14.3186 87.6475,14.3186 95.4576,19.5254 100.2305,27.7695 100.6644,37.3153 92.8542,62.4814" stroke="#001cff" stroke-width="2" /><polyline fill="none" points="39.9186,69.8576 41.6542,66.8203 39.9186,63.3492" stroke="#006cff" stroke-width="2" /><polyline fill="none" points="69.4237,60.7458 69.4237,60.7458" stroke="#00b8ff" stroke-width="2" /><polyline fill="none" points="69.8576,58.1424 68.9898,66.8203 65.5186,68.9898 64.6508,67.6881 67.2542,63.3492" stroke="#1cffda" stroke-width="2" /><polyline fill="none" points="57.2746,78.9695 56.4068,82.4407 54.2373,81.139" stroke="#5cff9a" stroke-width="2" /><polyline fill="none" points="55.539,82.8746 55.9729,92.8542 52.9356,100.6644 43.8237,105.8712 42.0881,105.8712 38.6169,103.2678" stroke="#9aff5c" stroke-width="2" /><polyline fill="none" points="54.6712,98.4949 66.3864,103.2678 72.8949,104.1356" stroke="#daff1c" stroke-width="2" /><polyline fill="none" points="53.8034,81.5729 46.4271,83.7424 37.7492,83.7424 26.0339,81.139" stroke="#ffcb00" stroke-width="2" /><polyline fill="none" points="46.861,83.3085 37.3153,89.8169" stroke="#ff8500" stroke-width="2" /><polyline fill="none" points="49.4644,87.6475 43.3898,92.4203 33.8441,96.7593" stroke="#ff3b00" stroke-width="2" /><polyline fill="none" points="53.3695,83.7424 59.0102,86.3458 69.4237,86.3458 84.1763,81.139 91.1186,77.2339 93.722,74.1966" stroke="#d50000" stroke-width="2" /><polyline fill="none" points="57.7085,90.2508 75.9322,82.0068 81.139,81.139" stroke="#7f0000" stroke-width="2" /></svg>