<?xml version="1.0" encoding="utf-8" ?>
<svg baseProfile="tiny" height="128" version="1.2" viewBox="0,0,128,128" width="128" xmlns="http://www.w3.org/2000/svg" xmlns:ev="http://www.w3.org/2001/xml-events" xmlns:xlink="http://www.w3.org/1999/xlink"><defs /><polyline fill="none" points="96.6531,44.8435 93.6054,39.619 94.0408,35.2653 104.9252,26.9932 102.3129,23.0748 104.4898,19.1565 107.9728,16.5442 112.3265,15.6735 117.551,17.415 119.2925,22.2041 114.9388,26.1224 107.5374,30.0408 107.9728,33.5238 103.619,36.1361 102.7483,57.9048 100.5714,61.8231 95.3469,60.517 92.2993,54.8571 87.9456,60.517 82.7211,59.2109 80.9796,54.8571 78.3673,60.0816 74.0136,60.517 72.7075,55.7279 66.6122,59.6463 63.1293,59.6463 59.6463,54.4218 54.8571,52.6803 50.5034,49.1973 41.7959,47.4558 39.619,44.4082 38.7483,41.7959 44.8435,40.0544 46.1497,35.2653 47.4558,36.1361 48.7619,41.3605 66.1769,39.619 84.0272,41.3605 96.2177,45.2789" stroke="#00007f" stroke-width="2" /><polyline fill="none" points="43.102,42.6667 43.9728,43.9728" stroke="#004cff" stroke-width="2" /><polyline fill="none" points="43.9728,46.585 46.1497,46.585" stroke="#29ffcd" stroke-width="2" /><polyline fill="none" points="66.6122,40.0544 71.4014,44.4082 90.1224,42.6667" stroke="#cdff29" stroke-width="2" /><polyline fill="none" points="74.8844,43.5374 77.932,42.6667 73.5782,41.3605" stroke="#ff6700" stroke-width="2" /><polyline fill="none" points="82.2857,39.1837 47.8912,79.2381 8.7075,85.7687 22.2041,67.0476 68.3537,14.8027 72.2721,8.7075 57.4694,33.0884" stroke="#7f0000" stroke-width="2" /></svg>