<?xml version="1.0" encoding="utf-8" ?>
<svg baseProfile="tiny" height="128" version="1.2" viewBox="0,0,128,128" width="128" xmlns="http://www.w3.org/2000/svg" xmlns:ev="http://www.w3.org/2001/xml-events" xmlns:xlink="http://www.w3.org/1999/xlink"><defs /><polyline fill="none" points="8.678,54.2373 14.7525,79.4034 22.1288,94.1559 28.2034,102.4 42.9559,117.1525 48.5966,119.322 57.7085,119.322 63.7831,117.1525 74.6305,109.7763 84.1763,98.9288 90.6847,87.6475 92.8542,80.2712 95.4576,68.9898 95.8915,49.8983 90.6847,44.2576 83.3085,41.2203 62.9153,39.4847 28.6373,39.9186 16.0542,44.2576 10.4136,48.1627 9.1119,42.9559 11.2814,32.5424 18.6576,8.678 37.7492,36.4475 45.9932,52.9356 47.2949,52.0678" stroke="#00007f" stroke-width="2" /><polyline fill="none" points="68.122,42.9559 69.4237,36.4475 75.0644,22.1288 78.9695,14.7525 82.4407,13.8847 87.2136,20.3932 91.9864,32.9763 96.7593,60.7458" stroke="#0080ff" stroke-width="2" /><polyline fill="none" points="36.8814,62.9153 33.8441,64.2169 31.2407,76.3661 34.278,78.9695 37.7492,78.9695 40.7864,72.461 40.3525,62.9153 36.8814,63.3492 36.0136,68.5559" stroke="#7cff79" stroke-width="2" /><polyline fill="none" points="75.0644,62.0475 72.461,62.4814 66.8203,68.122 65.9525,75.9322 74.1966,72.461 75.9322,69.4237 72.0271,66.8203" stroke="#ff9400" stroke-width="2" /><polyline fill="none" points="48.1627,85.0441 58.1424,84.1763 58.5763,87.6475 55.1051,91.5525 52.5017,88.5153 52.0678,98.061" stroke="#7f0000" stroke-width="2" /></svg>