<?xml version="1.0" encoding="utf-8" ?>
<svg baseProfile="tiny" height="128" version="1.2" viewBox="0,0,128,128" width="128" xmlns="http://www.w3.org/2000/svg" xmlns:ev="http://www.w3.org/2001/xml-events" xmlns:xlink="http://www.w3.org/1999/xlink"><defs /><polyline fill="none" points="45.1254,12.1492 48.5966,28.2034 50.7661,32.9763 53.8034,34.7119 61.6136,34.7119 72.461,30.3729 81.5729,28.6373 105.4373,28.6373" stroke="#00007f" stroke-width="2" /><polyline fill="none" points="119.322,8.678 111.9458,9.5458 103.2678,15.1864 102.4,24.2983 107.1729,26.4678 111.078,23.8644 115.8508,16.922 115.4169,9.1119" stroke="#0000f1" stroke-width="2" /><polyline fill="none" points="60.3119,34.7119 60.3119,44.2576 61.6136,49.0305" stroke="#004cff" stroke-width="2" /><polyline fill="none" points="74.6305,29.5051 75.4983,46.861 76.8,49.4644" stroke="#00b0ff" stroke-width="2" /><polyline fill="none" points="86.3458,28.6373 90.2508,48.1627" stroke="#29ffcd" stroke-width="2" /><polyline fill="none" points="96.7593,27.3356 98.061,35.1458 102.8339,45.1254" stroke="#7cff79" stroke-width="2" /><polyline fill="none" points="108.9085,13.8847 110.6441,14.3186" stroke="#cdff29" stroke-width="2" /><polyline fill="none" points="112.3797,14.3186 114.5492,15.1864" stroke="#ffc400" stroke-width="2" /><polyline fill="none" points="106.739,19.9593 110.2102,20.8271" stroke="#ff6700" stroke-width="2" /><polyline fill="none" points="44.6915,12.5831 32.1085,25.6 19.5254,35.1458 13.8847,37.3153 8.678,37.7492" stroke="#f10700" stroke-width="2" /><polyline fill="none" points="45.1254,12.5831 64.6508,12.5831 78.1017,14.7525 91.5525,18.6576 105.4373,17.7898" stroke="#7f0000" stroke-width="2" /></svg>