<?xml version="1.0" encoding="utf-8" ?>
<svg baseProfile="tiny" height="128" version="1.2" viewBox="0,0,128,128" width="128" xmlns="http://www.w3.org/2000/svg" xmlns:ev="http://www.w3.org/2001/xml-events" xmlns:xlink="http://www.w3.org/1999/xlink"><defs /><polyline fill="none" points="31.2407,36.0136 29.0712,20.8271 24.2983,9.1119 22.5627,8.678 16.922,16.0542 8.678,37.3153" stroke="#00007f" stroke-width="2" /><polyline fill="none" points="16.922,41.2203 20.8271,28.6373 22.5627,27.3356 28.2034,37.7492" stroke="#0000cc" stroke-width="2" /><polyline fill="none" points="17.7898,39.0508 26.4678,39.0508" stroke="#0008ff" stroke-width="2" /><polyline fill="none" points="29.939,39.4847 38.1831,37.7492 52.9356,39.9186 84.6102,51.2 92.4203,40.7864 101.0983,34.278 104.5695,32.9763 105.4373,42.522 103.2678,60.3119" stroke="#004cff" stroke-width="2" /><polyline fill="none" points="90.2508,56.8407 92.8542,52.0678 97.6271,48.5966 99.7966,61.6136" stroke="#0090ff" stroke-width="2" /><polyline fill="none" points="91.5525,59.4441 97.6271,62.4814" stroke="#00d4ff" stroke-width="2" /><polyline fill="none" points="61.6136,76.3661 69.8576,72.8949 74.1966,72.461 83.3085,74.1966 90.2508,78.1017" stroke="#29ffcd" stroke-width="2" /><polyline fill="none" points="61.6136,76.3661 72.461,81.139 79.4034,82.0068 87.2136,80.7051 88.9492,78.5356" stroke="#5fff96" stroke-width="2" /><polyline fill="none" points="73.7627,74.1966 74.6305,81.139" stroke="#96ff5f" stroke-width="2" /><polyline fill="none" points="40.3525,71.1593 38.1831,67.6881 29.5051,62.4814 23.4305,61.6136 19.0915,62.0475 27.7695,68.5559 39.9186,72.0271" stroke="#cdff29" stroke-width="2" /><polyline fill="none" points="31.2407,65.5186 31.2407,71.1593" stroke="#ffe500" stroke-width="2" /><polyline fill="none" points="53.8034,89.8169 45.5593,86.7797 40.3525,88.0814 40.7864,89.8169 47.7288,94.1559 53.3695,95.0237 56.8407,93.722 54.6712,90.6847 48.5966,88.5153 54.6712,92.4203 42.9559,91.5525 47.7288,93.2881 49.0305,95.4576 49.4644,108.9085 47.2949,111.9458 42.522,112.8136 36.0136,110.6441 32.1085,107.6068 30.3729,103.2678" stroke="#ffa600" stroke-width="2" /><polyline fill="none" points="47.2949,111.5119 50.7661,116.7186 56.8407,119.322 61.6136,118.4542 63.3492,116.2847 63.7831,111.9458" stroke="#ff6700" stroke-width="2" /><polyline fill="none" points="49.0305,39.0508 48.1627,59.4441" stroke="#ff2800" stroke-width="2" /><polyline fill="none" points="60.3119,41.2203 56.8407,56.4068 55.9729,68.9898" stroke="#cc0000" stroke-width="2" /><polyline fill="none" points="72.8949,44.6915 69.8576,61.6136" stroke="#7f0000" stroke-width="2" /></svg>