<?xml version="1.0" encoding="utf-8" ?>
<svg baseProfile="tiny" height="128" version="1.2" viewBox="0,0,128,128" width="128" xmlns="http://www.w3.org/2000/svg" xmlns:ev="http://www.w3.org/2001/xml-events" xmlns:xlink="http://www.w3.org/1999/xlink"><defs /><polyline fill="none" points="45.9932,24.7322 43.3898,20.3932 33.4102,12.5831 24.2983,9.5458 16.0542,8.678 18.2237,13.0169 27.7695,24.2983 30.3729,30.3729" stroke="#00007f" stroke-width="2" /><polyline fill="none" points="59.878,25.6 87.6475,9.1119 89.8169,10.8475 90.6847,14.3186 92.4203,35.1458" stroke="#0028ff" stroke-width="2" /><polyline fill="none" points="63.3492,26.9017 52.0678,23.8644 44.6915,23.8644" stroke="#00d4ff" stroke-width="2" /><polyline fill="none" points="30.3729,31.2407 26.9017,41.6542 26.4678,55.539 27.7695,59.878 30.3729,63.7831 42.9559,72.8949 57.7085,78.5356 66.3864,78.1017 71.1593,76.3661 76.3661,72.8949 82.0068,65.9525 88.9492,45.9932 89.3831,34.278" stroke="#7cff79" stroke-width="2" /><polyline fill="none" points="57.7085,49.0305 77.2339,49.4644 119.322,47.2949" stroke="#ffe500" stroke-width="2" /><polyline fill="none" points="61.6136,50.7661 100.6644,65.5186" stroke="#ff4600" stroke-width="2" /><polyline fill="none" points="37.7492,46.4271 26.9017,45.1254 8.678,39.9186" stroke="#7f0000" stroke-width="2" /></svg>