<?xml version="1.0" encoding="utf-8" ?>
<svg baseProfile="tiny" height="128" version="1.2" viewBox="0,0,128,128" width="128" xmlns="http://www.w3.org/2000/svg" xmlns:ev="http://www.w3.org/2001/xml-events" xmlns:xlink="http://www.w3.org/1999/xlink"><defs /><polyline fill="none" points="29.1701,49.6327 37.4422,42.6667 53.1156,37.8776 90.5578,37.0068 104.0544,41.7959 116.6803,51.8095 104.4898,44.4082 95.7823,41.3605 80.1088,38.3129 58.7755,38.3129 33.0884,45.2789 24.381,49.6327 17.8503,56.5986 16.5442,75.3197 17.8503,83.1565 22.6395,94.0408 31.3469,104.4898 41.7959,111.8912 54.8571,116.2449 62.6939,117.551 85.3333,117.551 98.3946,114.068 104.0544,111.0204 112.7619,104.0544 115.3741,99.2653 118.4218,84.0272 119.2925,56.1633 115.8095,50.068 109.7143,43.5374 103.1837,40.4898 95.3469,40.0544" stroke="#00007f" stroke-width="2" /><polyline fill="none" points="9.1429,55.7279 8.7075,22.2041 10.8844,11.3197 14.8027,8.7075 19.1565,10.0136 34.8299,29.1701 43.9728,36.5714 51.3741,39.1837" stroke="#0010ff" stroke-width="2" /><polyline fill="none" points="84.4626,37.0068 87.5102,35.7007 106.6667,18.7211 112.3265,16.1088 119.2925,54.4218" stroke="#00a4ff" stroke-width="2" /><polyline fill="none" points="44.8435,76.1905 44.8435,91.4286 50.9388,91.4286 60.0816,85.7687 63.1293,87.0748 66.6122,91.4286 74.0136,94.0408 80.5442,93.6054 84.0272,90.5578 86.2041,80.9796 84.4626,77.0612 82.7211,76.6259" stroke="#3fffb7" stroke-width="2" /><polyline fill="none" points="63.1293,85.3333 61.3878,80.9796 61.3878,72.2721" stroke="#b7ff3f" stroke-width="2" /><polyline fill="none" points="60.9524,76.6259 57.9048,74.0136 55.7279,67.483 65.3061,71.4014 66.6122,65.7415" stroke="#ffb900" stroke-width="2" /><polyline fill="none" points="39.1837,56.1633 42.2313,55.7279 44.8435,57.4694 41.7959,59.6463 38.7483,59.6463 35.7007,57.4694 35.2653,54.4218" stroke="#ff3000" stroke-width="2" /><polyline fill="none" points="74.0136,57.034 70.966,58.3401 70.0952,54.4218 74.449,52.2449 78.3673,52.2449 80.1088,55.7279" stroke="#7f0000" stroke-width="2" /></svg>