<?xml version="1.0" encoding="utf-8" ?>
<svg baseProfile="tiny" height="128" version="1.2" viewBox="0,0,128,128" width="128" xmlns="http://www.w3.org/2000/svg" xmlns:ev="http://www.w3.org/2001/xml-events" xmlns:xlink="http://www.w3.org/1999/xlink"><defs /><polyline fill="none" points="17.7898,60.7458 20.3932,51.6339 28.2034,42.522 41.2203,35.1458 48.5966,32.5424 56.4068,32.5424 72.461,37.7492 77.2339,41.6542 86.3458,61.6136 86.3458,70.2915 83.7424,76.8 79.4034,81.5729 61.6136,88.9492 48.1627,88.5153 36.4475,82.4407 20.8271,63.7831 19.0915,60.7458 19.0915,55.9729" stroke="#00007f" stroke-width="2" /><polyline fill="none" points="18.2237,51.6339 15.6203,50.7661 9.9797,42.522 8.678,35.1458 8.678,31.2407 14.7525,15.6203 16.0542,15.1864 20.3932,18.6576 32.9763,32.9763" stroke="#0000f1" stroke-width="2" /><polyline fill="none" points="59.878,35.5797 62.4814,27.3356 69.4237,18.2237 87.2136,8.678 88.5153,9.1119 95.0237,16.922 96.3254,22.9966 95.4576,41.6542 90.2508,52.9356" stroke="#004cff" stroke-width="2" /><polyline fill="none" points="33.8441,55.539 33.4102,58.1424 36.4475,58.5763 40.7864,52.5017 41.2203,49.0305 37.3153,49.0305 34.278,51.2 33.8441,54.2373" stroke="#00b0ff" stroke-width="2" /><polyline fill="none" points="61.1797,54.6712 62.4814,56.8407 66.8203,56.8407 67.6881,50.7661 56.4068,44.2576 53.3695,43.8237 51.6339,47.7288" stroke="#29ffcd" stroke-width="2" /><polyline fill="none" points="50.3322,63.7831 45.5593,63.7831 42.522,66.3864 39.4847,73.7627 41.2203,76.3661 47.2949,77.6678 49.4644,77.2339 52.0678,71.5932 56.4068,75.9322 62.9153,77.6678 65.9525,77.2339 67.6881,73.7627 64.6508,65.0847 56.8407,59.0102 53.8034,58.5763 51.6339,65.0847 50.3322,59.0102 51.6339,58.5763 53.3695,62.0475 50.3322,65.5186" stroke="#7cff79" stroke-width="2" /><polyline fill="none" points="42.522,67.6881 34.278,72.0271 18.2237,73.7627 10.4136,76.3661" stroke="#cdff29" stroke-width="2" /><polyline fill="none" points="44.6915,70.7254 41.2203,71.1593 23.8644,77.6678 9.9797,84.6102" stroke="#ffc400" stroke-width="2" /><polyline fill="none" points="64.6508,65.0847 98.061,59.878 110.6441,60.3119 119.322,63.3492" stroke="#ff6700" stroke-width="2" /><polyline fill="none" points="62.4814,69.4237 63.3492,68.122 75.4983,65.9525 83.3085,65.9525 92.4203,68.5559" stroke="#f10700" stroke-width="2" /><polyline fill="none" points="62.4814,68.5559 70.7254,68.122" stroke="#7f0000" stroke-width="2" /></svg>