<?xml version="1.0" encoding="utf-8" ?>
<svg baseProfile="tiny" height="128" version="1.2" viewBox="0,0,128,128" width="128" xmlns="http://www.w3.org/2000/svg" xmlns:ev="http://www.w3.org/2001/xml-events" xmlns:xlink="http://www.w3.org/1999/xlink"><defs /><polyline fill="none" points="98.9288,37.3153 99.7966,44.6915 92.4203,46.4271 95.0237,49.0305 99.3627,49.8983 102.4,45.5593 102.4,36.4475 105.4373,35.1458 105.8712,31.2407 110.6441,32.1085 114.1153,30.8068 119.322,22.5627 113.6814,22.9966 112.3797,26.9017 108.0407,29.5051 94.1559,22.1288 82.8746,23.8644 78.5356,28.2034 76.8,22.5627 73.7627,19.9593 68.5559,21.261 68.122,23.8644 68.5559,26.9017 76.3661,30.8068 76.3661,36.0136 78.5356,39.0508 86.7797,38.6169 85.478,45.9932 78.1017,47.2949 77.6678,49.0305 79.8373,50.3322 83.7424,50.3322 88.9492,47.2949 89.3831,39.0508 98.9288,38.6169" stroke="#00007f" stroke-width="2" /><polyline fill="none" points="74.1966,20.3932 95.0237,8.678 77.2339,24.2983" stroke="#0080ff" stroke-width="2" /><polyline fill="none" points="62.9153,23.4305 52.5017,24.7322 38.1831,11.7153 32.5424,10.4136 24.7322,11.2814 13.0169,19.0915 9.9797,24.2983 8.678,36.0136 9.9797,39.4847 13.4508,42.522 25.1661,44.6915 35.5797,42.522 46.861,36.0136 50.7661,31.6746 55.539,22.5627 60.3119,21.261" stroke="#7cff79" stroke-width="2" /><polyline fill="none" points="16.0542,27.3356 16.0542,34.7119 16.0542,29.0712 19.9593,32.9763 21.6949,22.5627 25.6,31.6746" stroke="#ff9400" stroke-width="2" /><polyline fill="none" points="29.0712,19.0915 27.3356,24.2983 30.8068,24.7322 26.9017,29.939 31.6746,29.5051" stroke="#7f0000" stroke-width="2" /></svg>