<?xml version="1.0" encoding="utf-8" ?>
<svg baseProfile="tiny" height="128" version="1.2" viewBox="0,0,128,128" width="128" xmlns="http://www.w3.org/2000/svg" xmlns:ev="http://www.w3.org/2001/xml-events" xmlns:xlink="http://www.w3.org/1999/xlink"><defs /><polyline fill="none" points="40.7864,89.8169 39.0508,89.8169 37.7492,87.6475 32.1085,74.6305 29.939,63.7831 29.5051,55.1051 31.6746,46.861 33.8441,44.2576 38.6169,39.0508 47.7288,33.8441 53.8034,32.5424 63.3492,32.9763 68.9898,34.278 76.3661,38.6169 85.0441,51.2 89.8169,64.6508 91.9864,75.9322" stroke="#00007f" stroke-width="2" /><polyline fill="none" points="25.1661,50.3322 26.4678,44.6915 25.6,14.7525 46.4271,37.3153" stroke="#0000ff" stroke-width="2" /><polyline fill="none" points="59.878,33.4102 64.2169,8.678 67.2542,12.1492 72.8949,24.7322 77.2339,39.4847" stroke="#0080ff" stroke-width="2" /><polyline fill="none" points="40.7864,56.8407 42.522,56.4068 42.9559,58.5763 45.5593,59.0102 47.2949,54.2373 45.9932,52.0678 44.2576,52.9356" stroke="#15ffe1" stroke-width="2" /><polyline fill="none" points="60.7458,52.0678 62.9153,53.8034 67.2542,53.8034 68.5559,51.2 62.0475,49.4644" stroke="#7cff79" stroke-width="2" /><polyline fill="none" points="55.9729,71.1593 8.678,79.4034" stroke="#e4ff12" stroke-width="2" /><polyline fill="none" points="39.0508,84.1763 18.6576,101.0983" stroke="#ff9400" stroke-width="2" /><polyline fill="none" points="55.1051,83.3085 35.1458,119.322" stroke="#ff1d00" stroke-width="2" /><polyline fill="none" points="76.3661,73.7627 93.2881,53.3695" stroke="#7f0000" stroke-width="2" /></svg>