<?xml version="1.0" encoding="utf-8" ?>
<svg baseProfile="tiny" height="128" version="1.2" viewBox="0,0,128,128" width="128" xmlns="http://www.w3.org/2000/svg" xmlns:ev="http://www.w3.org/2001/xml-events" xmlns:xlink="http://www.w3.org/1999/xlink"><defs /><polyline fill="none" points="49.1973,26.5578 45.2789,26.1224 40.9252,27.4286 32.6531,33.9592 28.2993,39.619 26.1224,50.9388 27.8639,59.2109 34.3946,67.483 42.2313,71.4014 49.6327,72.2721 59.2109,68.7891 73.5782,58.3401 77.932,50.9388 78.8027,43.9728 70.966,35.2653 52.2449,23.0748 42.2313,22.6395 39.1837,23.5102 37.4422,27.4286" stroke="#00007f" stroke-width="2" /><polyline fill="none" points="30.9116,37.4422 30.9116,19.1565 33.5238,11.3197 35.7007,8.7075 37.8776,9.5782 41.7959,15.2381 46.585,28.2993" stroke="#0000cc" stroke-width="2" /><polyline fill="none" points="66.1769,31.3469 64.4354,30.9116 64.0,28.7347 65.7415,25.6871 73.5782,17.8503 80.9796,14.8027 80.1088,22.2041 74.449,33.0884" stroke="#0008ff" stroke-width="2" /><polyline fill="none" points="64.0,66.1769 62.6939,65.7415 62.2585,69.2245 65.7415,83.1565 72.7075,90.1224 79.2381,92.2993 88.381,93.6054 96.2177,92.2993 108.4082,85.7687 116.6803,78.8027 119.2925,70.966 119.2925,62.2585 117.9864,59.2109 112.3265,55.2925 88.381,50.068 73.1429,53.1156 68.3537,57.034 71.4014,58.3401" stroke="#004cff" stroke-width="2" /><polyline fill="none" points="112.7619,53.9864 110.1497,47.8912 107.9728,28.7347 111.0204,19.5918 117.1156,12.6259 119.2925,13.0612 111.8912,37.0068 114.068,52.6803 112.3265,60.0816" stroke="#0090ff" stroke-width="2" /><polyline fill="none" points="67.9184,83.5918 58.3401,89.2517 53.551,97.0884 53.551,98.3946 55.2925,98.3946 58.3401,96.2177 71.8367,82.2857 68.7891,88.381 66.6122,95.7823 66.1769,100.1361 67.483,101.0068 73.1429,96.2177 77.932,85.3333" stroke="#00d4ff" stroke-width="2" /><polyline fill="none" points="104.4898,89.2517 105.3605,94.4762 110.585,104.0544 111.0204,100.1361 108.4082,91.4286 105.7959,87.9456" stroke="#29ffcd" stroke-width="2" /><polyline fill="none" points="112.3265,84.4626 114.068,92.2993 115.3741,90.9932 111.8912,77.0612" stroke="#5fff96" stroke-width="2" /><polyline fill="none" points="57.9048,51.8095 58.7755,48.3265 66.1769,45.2789 76.1905,43.5374 82.2857,45.2789" stroke="#96ff5f" stroke-width="2" /><polyline fill="none" points="60.9524,55.2925 77.0612,64.8707 76.6259,67.483" stroke="#cdff29" stroke-width="2" /><polyline fill="none" points="60.9524,62.6939 60.0816,63.1293 62.6939,67.483 71.8367,78.8027" stroke="#ffe500" stroke-width="2" /><polyline fill="none" points="40.0544,46.585 31.3469,46.1497 12.1905,49.1973 8.7075,51.3741" stroke="#ffa600" stroke-width="2" /><polyline fill="none" points="38.3129,59.2109 31.3469,58.7755 23.0748,60.9524 20.0272,62.6939 14.8027,69.2245" stroke="#ff6700" stroke-width="2" /><polyline fill="none" points="41.7959,68.3537 29.1701,83.1565 24.8163,90.9932" stroke="#ff2800" stroke-width="2" /><polyline fill="none" points="43.5374,37.4422 43.9728,38.3129" stroke="#cc0000" stroke-width="2" /><polyline fill="none" points="62.2585,40.9252 61.3878,40.9252" stroke="#7f0000" stroke-width="2" /></svg>