<?xml version="1.0" encoding="utf-8" ?>
<svg baseProfile="tiny" height="128" version="1.2" viewBox="0,0,128,128" width="128" xmlns="http://www.w3.org/2000/svg" xmlns:ev="http://www.w3.org/2001/xml-events" xmlns:xlink="http://www.w3.org/1999/xlink"><defs /><polyline fill="none" points="114.9388,75.3197 99.2653,80.5442 85.3333,82.2857 78.8027,82.2857 72.7075,78.8027 69.6599,74.8844 67.483,67.9184 66.6122,53.551 67.483,50.068 74.8844,38.7483 78.8027,35.2653 101.0068,25.6871 104.0544,25.6871 110.585,32.6531 119.2925,54.8571 119.2925,66.6122 116.2449,70.966 111.4558,72.2721" stroke="#00007f" stroke-width="2" /><polyline fill="none" points="88.8163,33.5238 77.932,27.8639 84.4626,37.8776 84.898,36.5714" stroke="#0000fe" stroke-width="2" /><polyline fill="none" points="107.9728,13.0612 107.9728,13.0612" stroke="#0060ff" stroke-width="2" /><polyline fill="none" points="107.102,13.932 113.1973,9.1429 116.2449,8.7075 117.551,10.0136 116.2449,37.4422" stroke="#00d4ff" stroke-width="2" /><polyline fill="none" points="74.8844,64.4354 34.3946,71.8367" stroke="#4cffaa" stroke-width="2" /><polyline fill="none" points="34.3946,71.8367 34.3946,71.8367" stroke="#aaff4c" stroke-width="2" /><polyline fill="none" points="33.5238,72.2721 15.6735,76.1905 9.5782,80.5442 8.7075,83.5918 34.3946,83.5918 41.3605,80.1088 53.551,70.5306 59.2109,63.1293 60.0816,64.4354" stroke="#ffe500" stroke-width="2" /><polyline fill="none" points="26.1224,85.3333 35.7007,107.5374" stroke="#ff7a00" stroke-width="2" /><polyline fill="none" points="40.4898,79.6735 64.8707,106.6667 72.2721,111.0204" stroke="#fe1200" stroke-width="2" /><polyline fill="none" points="59.2109,77.932 69.6599,95.3469" stroke="#7f0000" stroke-width="2" /></svg>