<?xml version="1.0" encoding="utf-8" ?>
<svg baseProfile="tiny" height="128" version="1.2" viewBox="0,0,128,128" width="128" xmlns="http://www.w3.org/2000/svg" xmlns:ev="http://www.w3.org/2001/xml-events" xmlns:xlink="http://www.w3.org/1999/xlink"><defs /><polyline fill="none" points="35.1458,54.2373 26.4678,52.5017 22.5627,48.5966 22.5627,45.1254 32.9763,17.3559 40.3525,21.261 52.5017,40.7864 58.5763,53.3695 67.2542,41.6542 72.461,26.9017 84.6102,8.678 95.0237,47.2949 102.4,65.0847 102.4,90.6847 99.3627,101.9661 95.0237,106.3051 75.4983,117.1525 60.7458,119.322 49.8983,114.9831 16.922,92.4203 12.1492,87.6475 9.9797,82.4407 8.678,65.0847 17.3559,53.3695 22.5627,49.0305 32.1085,45.9932 36.0136,46.861 47.7288,57.7085" stroke="#00007f" stroke-width="2" /><polyline fill="none" points="54.2373,90.6847 41.6542,90.6847 16.922,94.5898" stroke="#0010ff" stroke-width="2" /><polyline fill="none" points="54.2373,81.139 22.5627,82.0068" stroke="#00a4ff" stroke-width="2" /><polyline fill="none" points="83.3085,82.8746 87.2136,81.139 98.061,81.139" stroke="#3fffb7" stroke-width="2" /><polyline fill="none" points="63.7831,99.3627 97.1932,78.9695 104.1356,76.8" stroke="#b7ff3f" stroke-width="2" /><polyline fill="none" points="94.5898,62.0475 71.1593,73.3288" stroke="#ffb900" stroke-width="2" /><polyline fill="none" points="75.4983,54.6712 75.4983,54.6712" stroke="#ff3000" stroke-width="2" /><polyline fill="none" points="37.3153,64.2169 39.9186,60.7458 36.4475,62.9153 40.7864,64.2169 49.4644,62.0475 44.6915,62.0475" stroke="#7f0000" stroke-width="2" /></svg>