<?xml version="1.0" encoding="utf-8" ?>
<svg baseProfile="tiny" height="128" version="1.2" viewBox="0,0,128,128" width="128" xmlns="http://www.w3.org/2000/svg" xmlns:ev="http://www.w3.org/2001/xml-events" xmlns:xlink="http://www.w3.org/1999/xlink"><defs /><polyline fill="none" points="106.739,60.3119 112.3797,74.1966 112.3797,91.5525 110.2102,98.061 104.5695,105.4373 89.3831,110.6441 61.1797,112.3797 53.3695,112.3797 42.9559,109.3424 31.2407,103.7017 24.7322,98.061 19.0915,92.4203 10.8475,79.8373 8.678,72.8949 8.678,67.2542 13.8847,55.9729 26.4678,47.2949 42.9559,41.6542 51.6339,40.7864 74.1966,39.9186 92.8542,44.6915 99.3627,49.0305 103.7017,54.6712 113.2475,68.122 112.3797,69.8576" stroke="#00007f" stroke-width="2" /><polyline fill="none" points="95.0237,42.522 102.8339,38.6169 119.322,20.8271 119.322,24.7322 106.739,42.9559 102.4,53.3695" stroke="#00d4ff" stroke-width="2" /><polyline fill="none" points="30.3729,44.6915 28.6373,38.6169 29.0712,16.0542 29.939,10.4136 33.4102,8.678 42.9559,29.5051 48.1627,48.5966 49.8983,48.5966" stroke="#ffe500" stroke-width="2" /><polyline fill="none" points="39.9186,60.3119 43.8237,66.3864 40.7864,69.8576 35.1458,69.8576 25.1661,64.2169 23.4305,58.5763 41.2203,58.1424 47.2949,61.6136" stroke="#7f0000" stroke-width="2" /></svg>