<?xml version="1.0" encoding="utf-8" ?>
<svg baseProfile="tiny" height="128" version="1.2" viewBox="0,0,128,128" width="128" xmlns="http://www.w3.org/2000/svg" xmlns:ev="http://www.w3.org/2001/xml-events" xmlns:xlink="http://www.w3.org/1999/xlink"><defs /><polyline fill="none" points="77.2339,30.3729 84.1763,30.3729 98.9288,42.9559 108.4746,55.539 116.2847,71.5932 118.0203,79.4034 118.8881,91.1186 117.1525,97.6271 113.6814,102.4 103.2678,110.6441 81.5729,118.8881 60.3119,119.322 46.4271,111.078 29.939,93.722 22.9966,80.7051 20.8271,73.7627 19.5254,55.9729 22.5627,45.9932 33.4102,35.1458 38.1831,32.5424 49.0305,29.939 64.6508,29.939" stroke="#00007f" stroke-width="2" /><polyline fill="none" points="83.7424,30.3729 92.4203,13.4508 97.1932,9.9797 101.5322,9.5458 104.5695,11.2814 106.3051,15.6203 108.4746,44.2576" stroke="#0000fe" stroke-width="2" /><polyline fill="none" points="40.3525,31.6746 24.7322,13.0169 19.0915,9.1119 15.1864,8.678 14.3186,15.6203 23.4305,44.2576" stroke="#0060ff" stroke-width="2" /><polyline fill="none" points="68.9898,64.6508 75.4983,64.2169 80.2712,65.9525 82.8746,69.4237 82.8746,72.0271 76.3661,73.3288 64.2169,73.3288 61.1797,71.5932 59.878,66.8203 64.2169,64.6508 70.7254,64.6508" stroke="#00d4ff" stroke-width="2" /><polyline fill="none" points="61.1797,74.1966 53.8034,68.5559 38.6169,62.0475 8.678,53.3695" stroke="#4cffaa" stroke-width="2" /><polyline fill="none" points="59.878,73.3288 55.1051,72.0271 49.0305,72.8949 32.5424,87.6475 27.3356,89.8169" stroke="#aaff4c" stroke-width="2" /><polyline fill="none" points="45.5593,81.139 49.4644,78.5356 49.8983,81.139 45.1254,88.5153 25.1661,104.1356" stroke="#ffe500" stroke-width="2" /><polyline fill="none" points="60.3119,75.9322 84.6102,60.3119 108.0407,51.6339 112.8136,51.6339" stroke="#ff7a00" stroke-width="2" /><polyline fill="none" points="87.2136,70.2915 101.5322,72.0271 110.6441,75.9322 113.6814,79.4034" stroke="#fe1200" stroke-width="2" /><polyline fill="none" points="74.6305,74.1966 81.139,72.8949 85.9119,74.6305 102.8339,90.6847 111.078,101.5322" stroke="#7f0000" stroke-width="2" /></svg>