<?xml version="1.0" encoding="utf-8" ?>
<svg baseProfile="tiny" height="128" version="1.2" viewBox="0,0,128,128" width="128" xmlns="http://www.w3.org/2000/svg" xmlns:ev="http://www.w3.org/2001/xml-events" xmlns:xlink="http://www.w3.org/1999/xlink"><defs /><polyline fill="none" points="12.1492,34.7119 10.8475,38.6169 10.8475,52.0678 26.0339,83.3085 35.1458,95.8915 46.861,103.7017 58.5763,106.739 73.3288,107.1729 76.3661,105.4373 83.7424,94.1559 87.2136,78.1017 87.6475,59.878 85.0441,46.4271 88.9492,43.3898 97.6271,28.2034 74.6305,27.7695 63.3492,35.5797 62.9153,21.261 55.9729,20.3932 44.6915,21.6949 35.5797,24.7322 25.1661,32.1085 24.2983,16.922 21.6949,11.2814 16.922,8.678 14.3186,10.8475 11.2814,16.0542 8.678,23.4305 9.1119,37.3153" stroke="#00007f" stroke-width="2" /><polyline fill="none" points="53.3695,69.4237 51.2,72.8949 45.9932,72.8949 43.8237,69.4237 43.8237,64.2169 48.5966,62.9153 50.3322,63.3492 53.3695,68.5559 46.861,69.8576" stroke="#0010ff" stroke-width="2" /><polyline fill="none" points="37.7492,66.8203 34.278,67.6881 14.7525,64.2169" stroke="#00a4ff" stroke-width="2" /><polyline fill="none" points="32.5424,77.6678 14.3186,82.0068" stroke="#3fffb7" stroke-width="2" /><polyline fill="none" points="36.0136,84.6102 19.9593,95.4576" stroke="#b7ff3f" stroke-width="2" /><polyline fill="none" points="72.0271,71.1593 88.0814,72.0271 104.5695,75.9322 103.7017,77.6678" stroke="#ffb900" stroke-width="2" /><polyline fill="none" points="69.8576,90.2508 67.6881,90.6847 77.6678,92.8542 95.0237,103.2678" stroke="#ff3000" stroke-width="2" /><polyline fill="none" points="68.5559,109.3424 91.5525,119.322" stroke="#7f0000" stroke-width="2" /></svg>