<?xml version="1.0" encoding="utf-8" ?>
<svg baseProfile="tiny" height="128" version="1.2" viewBox="0,0,128,128" width="128" xmlns="http://www.w3.org/2000/svg" xmlns:ev="http://www.w3.org/2001/xml-events" xmlns:xlink="http://www.w3.org/1999/xlink"><defs /><polyline fill="none" points="18.2237,45.5593 17.7898,40.7864 9.1119,17.3559 8.678,8.678 13.4508,9.5458 22.9966,16.0542 33.8441,26.4678 42.9559,37.7492 52.5017,33.8441 66.8203,33.8441 72.8949,37.7492 78.5356,23.4305 84.1763,16.4881 93.2881,10.4136 101.9661,9.9797 106.3051,14.3186 91.1186,39.9186 98.9288,49.8983 104.1356,68.9898 105.0034,82.8746 100.6644,93.722 95.8915,98.4949 87.2136,101.5322 60.3119,101.9661 37.7492,92.8542 27.7695,82.8746 18.2237,64.2169 16.0542,55.1051 16.0542,42.522 18.2237,38.6169 22.5627,38.1831" stroke="#00007f" stroke-width="2" /><polyline fill="none" points="53.8034,65.9525 51.2,65.5186 45.1254,61.6136 42.522,57.2746 42.522,53.8034 45.5593,51.2 55.539,50.3322 56.8407,54.2373 56.4068,58.5763 52.9356,61.6136 49.8983,62.0475" stroke="#0028ff" stroke-width="2" /><polyline fill="none" points="82.0068,59.4441 76.8,59.878 74.1966,57.7085 71.5932,53.8034 71.5932,49.8983 77.6678,48.5966 82.0068,51.6339 82.4407,57.7085 76.8,62.0475" stroke="#00d4ff" stroke-width="2" /><polyline fill="none" points="9.5458,69.8576 42.522,69.8576" stroke="#7cff79" stroke-width="2" /><polyline fill="none" points="44.6915,74.1966 24.2983,78.5356 17.3559,81.139 20.3932,82.0068" stroke="#ffe500" stroke-width="2" /><polyline fill="none" points="45.5593,82.0068 43.8237,84.6102 32.5424,91.9864 28.2034,98.061" stroke="#ff4600" stroke-width="2" /><polyline fill="none" points="91.1186,70.2915 119.322,62.4814" stroke="#7f0000" stroke-width="2" /></svg>