<?xml version="1.0" encoding="utf-8" ?>
<svg baseProfile="tiny" height="128" version="1.2" viewBox="0,0,128,128" width="128" xmlns="http://www.w3.org/2000/svg" xmlns:ev="http://www.w3.org/2001/xml-events" xmlns:xlink="http://www.w3.org/1999/xlink"><defs /><polyline fill="none" points="9.5458,96.3254 57.7085,96.3254 71.1593,93.2881 85.0441,87.6475 92.4203,77.6678 95.0237,65.5186 94.1559,62.0475 89.3831,54.6712 77.6678,46.4271 65.0847,43.3898 44.2576,43.3898 34.7119,46.4271 27.7695,50.7661 22.1288,57.7085 13.4508,70.7254 8.678,83.7424 8.678,96.7593 16.0542,99.7966" stroke="#00007f" stroke-width="2" /><polyline fill="none" points="94.5898,29.5051 94.5898,42.9559 97.6271,48.1627 101.0983,49.0305 109.7763,42.0881 116.2847,40.7864 116.7186,38.6169 113.2475,26.9017 108.4746,21.261 103.2678,22.5627 95.0237,29.939 93.2881,33.4102" stroke="#0010ff" stroke-width="2" /><polyline fill="none" points="92.4203,23.8644 101.9661,23.4305 94.1559,11.7153 90.6847,18.6576 90.2508,24.7322" stroke="#00a4ff" stroke-width="2" /><polyline fill="none" points="111.078,19.0915 119.322,20.3932 115.8508,9.9797 112.8136,8.678 110.2102,12.1492 109.3424,19.5254" stroke="#3fffb7" stroke-width="2" /><polyline fill="none" points="93.2881,44.6915 88.0814,44.6915 78.9695,54.6712" stroke="#b7ff3f" stroke-width="2" /><polyline fill="none" points="97.6271,51.2 97.6271,54.6712 94.1559,59.878" stroke="#ffb900" stroke-width="2" /><polyline fill="none" points="82.0068,90.6847 82.0068,103.7017 83.3085,107.1729 85.0441,106.739 86.7797,103.7017 87.2136,95.0237 76.8,86.3458" stroke="#ff3000" stroke-width="2" /><polyline fill="none" points="36.0136,98.4949 36.0136,106.3051 37.7492,108.9085 43.3898,110.6441 45.1254,109.7763 45.9932,106.3051 44.2576,101.5322 35.5797,94.5898" stroke="#7f0000" stroke-width="2" /></svg>