<?xml version="1.0" encoding="utf-8" ?>
<svg baseProfile="tiny" height="128" version="1.2" viewBox="0,0,128,128" width="128" xmlns="http://www.w3.org/2000/svg" xmlns:ev="http://www.w3.org/2001/xml-events" xmlns:xlink="http://www.w3.org/1999/xlink"><defs /><polyline fill="none" points="54.2373,64.6508 59.4441,75.0644 62.0475,64.6508 61.1797,62.9153 57.7085,62.9153" stroke="#00007f" stroke-width="2" /><polyline fill="none" points="72.461,40.3525 72.0271,42.9559 75.0644,43.8237 75.9322,39.4847 71.5932,38.6169" stroke="#0000c8" stroke-width="2" /><polyline fill="none" points="41.6542,43.8237 40.3525,46.4271 41.6542,48.5966 42.9559,46.861 40.3525,44.6915" stroke="#0000ff" stroke-width="2" /><polyline fill="none" points="63.3492,76.8 68.122,82.8746 74.1966,85.0441 79.4034,80.7051 82.8746,72.8949" stroke="#0040ff" stroke-width="2" /><polyline fill="none" points="61.6136,75.4983 60.7458,90.6847 56.4068,92.4203 52.5017,92.4203 43.8237,89.3831" stroke="#0080ff" stroke-width="2" /><polyline fill="none" points="24.2983,32.9763 21.6949,27.7695 22.1288,19.5254 24.2983,18.2237 29.0712,21.261 35.1458,27.7695" stroke="#00c0ff" stroke-width="2" /><polyline fill="none" points="70.2915,15.1864 75.4983,9.9797 80.7051,8.678 84.1763,15.6203 85.0441,22.1288" stroke="#15ffe1" stroke-width="2" /><polyline fill="none" points="43.3898,75.9322 17.3559,80.7051 11.7153,82.4407 8.678,85.0441" stroke="#49ffad" stroke-width="2" /><polyline fill="none" points="40.3525,85.0441 19.9593,99.7966 13.4508,108.9085" stroke="#7cff79" stroke-width="2" /><polyline fill="none" points="55.1051,86.7797 42.9559,97.1932 33.8441,110.2102 29.5051,119.322" stroke="#b0ff46" stroke-width="2" /><polyline fill="none" points="80.2712,55.539 105.8712,45.5593 118.8881,42.9559" stroke="#e4ff12" stroke-width="2" /><polyline fill="none" points="78.1017,62.9153 110.6441,64.2169" stroke="#ffcf00" stroke-width="2" /><polyline fill="none" points="79.8373,75.9322 91.5525,84.1763 109.7763,92.8542" stroke="#ff9400" stroke-width="2" /><polyline fill="none" points="32.5424,39.0508 28.6373,41.2203 22.1288,48.5966 19.9593,54.6712 21.261,70.2915 29.0712,82.4407" stroke="#ff5900" stroke-width="2" /><polyline fill="none" points="40.7864,22.5627 55.9729,17.7898 67.2542,15.6203" stroke="#ff1d00" stroke-width="2" /><polyline fill="none" points="89.3831,29.5051 92.8542,38.6169 95.0237,51.2" stroke="#c30000" stroke-width="2" /><polyline fill="none" points="61.1797,95.4576 75.4983,91.1186 80.2712,87.6475" stroke="#7f0000" stroke-width="2" /></svg>