<?xml version="1.0" encoding="utf-8" ?>
<svg baseProfile="tiny" height="128" version="1.2" viewBox="0,0,128,128" width="128" xmlns="http://www.w3.org/2000/svg" xmlns:ev="http://www.w3.org/2001/xml-events" xmlns:xlink="http://www.w3.org/1999/xlink"><defs /><polyline fill="none" points="42.522,27.7695 29.939,36.0136 17.7898,47.2949 13.0169,54.2373 9.9797,62.4814 8.678,82.4407 15.1864,96.7593 29.939,111.5119 42.522,117.5864 64.6508,119.322 71.1593,117.5864 84.6102,108.9085 101.9661,89.3831 106.3051,82.8746 109.3424,72.461 108.4746,59.878 105.0034,53.3695 93.2881,42.0881 68.122,26.0339 59.878,24.2983 51.2,24.2983 36.0136,29.0712" stroke="#00007f" stroke-width="2" /><polyline fill="none" points="19.5254,37.3153 16.922,33.4102 17.7898,22.5627 22.5627,14.7525 29.5051,15.1864 39.4847,28.6373 45.1254,31.6746" stroke="#0000e8" stroke-width="2" /><polyline fill="none" points="75.4983,26.4678 85.0441,12.1492 88.9492,8.678 92.4203,8.678 100.6644,40.3525" stroke="#0038ff" stroke-width="2" /><polyline fill="none" points="55.1051,45.5593 50.7661,46.861 45.5593,43.3898" stroke="#0094ff" stroke-width="2" /><polyline fill="none" points="82.8746,47.2949 78.9695,47.2949 78.9695,48.5966" stroke="#0cf4ea" stroke-width="2" /><polyline fill="none" points="64.6508,64.2169 61.1797,66.3864 56.8407,66.8203" stroke="#56ffa0" stroke-width="2" /><polyline fill="none" points="55.1051,61.1797 36.4475,54.6712" stroke="#a0ff56" stroke-width="2" /><polyline fill="none" points="52.0678,68.122 40.3525,71.5932 33.8441,76.3661" stroke="#eaff0c" stroke-width="2" /><polyline fill="none" points="47.7288,70.7254 38.6169,87.2136 36.4475,95.0237" stroke="#ffaa00" stroke-width="2" /><polyline fill="none" points="71.5932,58.5763 91.9864,53.3695" stroke="#ff5500" stroke-width="2" /><polyline fill="none" points="67.6881,62.0475 72.0271,67.6881 82.0068,75.4983" stroke="#e80000" stroke-width="2" /><polyline fill="none" points="63.3492,72.461 68.9898,75.9322 79.4034,90.6847" stroke="#7f0000" stroke-width="2" /></svg>