<?xml version="1.0" encoding="utf-8" ?>
<svg baseProfile="tiny" height="128" version="1.2" viewBox="0,0,128,128" width="128" xmlns="http://www.w3.org/2000/svg" xmlns:ev="http://www.w3.org/2001/xml-events" xmlns:xlink="http://www.w3.org/1999/xlink"><defs /><polyline fill="none" points="90.6847,53.8034 88.9492,46.861 81.139,42.522 67.2542,39.9186 45.5593,39.4847 38.6169,42.0881 27.3356,49.4644 19.5254,59.878 16.4881,71.5932 17.7898,92.8542 19.9593,99.7966 27.3356,110.2102 39.0508,115.8508 54.6712,119.322 78.9695,119.322 86.3458,118.0203 97.1932,113.2475 105.0034,105.0034 108.0407,99.7966 111.078,88.9492 111.5119,78.1017 108.4746,67.6881 99.7966,53.3695 90.6847,45.5593" stroke="#00007f" stroke-width="2" /><polyline fill="none" points="87.6475,43.3898 97.1932,27.3356 105.0034,8.678 107.1729,17.7898 108.0407,36.4475 102.8339,53.3695" stroke="#004cff" stroke-width="2" /><polyline fill="none" points="31.6746,39.9186 26.9017,32.1085 16.4881,19.0915 9.1119,13.4508 8.678,25.6 9.9797,30.8068 15.1864,42.522 24.2983,54.6712" stroke="#29ffcd" stroke-width="2" /><polyline fill="none" points="55.539,88.9492 58.5763,87.6475 59.878,85.9119 59.878,77.2339 55.9729,75.4983 53.3695,77.2339 53.3695,79.8373 55.1051,81.5729 57.2746,82.0068 58.5763,79.4034 55.1051,77.6678 51.2,77.6678 51.2,79.8373" stroke="#cdff29" stroke-width="2" /><polyline fill="none" points="83.7424,74.1966 80.7051,72.0271 75.4983,72.8949 75.0644,79.4034 80.2712,81.139 84.1763,80.7051 82.8746,76.3661 80.2712,74.6305 73.3288,74.1966" stroke="#ff6700" stroke-width="2" /><polyline fill="none" points="69.4237,90.6847 69.4237,90.6847" stroke="#7f0000" stroke-width="2" /></svg>