<?xml version="1.0" encoding="utf-8" ?>
<svg baseProfile="tiny" height="128" version="1.2" viewBox="0,0,128,128" width="128" xmlns="http://www.w3.org/2000/svg" xmlns:ev="http://www.w3.org/2001/xml-events" xmlns:xlink="http://www.w3.org/1999/xlink"><defs /><polyline fill="none" points="60.7458,44.2576 54.6712,42.0881 47.7288,42.0881 26.9017,46.861 16.922,52.5017 10.4136,61.1797 8.678,72.8949 12.5831,80.7051 21.261,85.478 42.0881,88.5153 53.8034,88.0814 68.5559,83.7424 80.7051,72.461 84.1763,65.5186 84.1763,60.3119 82.4407,56.8407 75.4983,50.3322 62.0475,45.1254 48.5966,43.8237" stroke="#00007f" stroke-width="2" /><polyline fill="none" points="111.078,25.1661 107.1729,22.5627 102.8339,22.1288 90.6847,26.4678 79.4034,33.4102 75.4983,38.1831 73.7627,42.522 73.7627,48.1627 78.9695,52.5017 85.9119,53.8034 102.4,54.2373 107.6068,52.0678 110.2102,47.7288 112.3797,33.4102 108.9085,24.2983 105.0034,22.9966 100.6644,25.1661" stroke="#0000fe" stroke-width="2" /><polyline fill="none" points="75.0644,36.8814 76.3661,19.5254 77.2339,19.9593 80.7051,29.939" stroke="#0060ff" stroke-width="2" /><polyline fill="none" points="106.739,21.261 109.7763,15.1864 116.7186,8.678 114.5492,26.9017" stroke="#00d4ff" stroke-width="2" /><polyline fill="none" points="18.2237,84.6102 15.6203,88.9492 14.3186,98.061 13.4508,113.2475 29.939,113.2475" stroke="#4cffaa" stroke-width="2" /><polyline fill="none" points="32.1085,86.3458 29.5051,110.6441 41.2203,113.2475" stroke="#aaff4c" stroke-width="2" /><polyline fill="none" points="62.9153,91.1186 57.2746,117.1525 75.0644,119.322 75.4983,117.1525" stroke="#ffe500" stroke-width="2" /><polyline fill="none" points="74.6305,79.8373 74.6305,90.2508 76.3661,101.5322 75.9322,109.3424" stroke="#ff7a00" stroke-width="2" /><polyline fill="none" points="75.9322,109.7763 76.3661,110.6441" stroke="#fe1200" stroke-width="2" /><polyline fill="none" points="83.3085,100.6644 79.8373,106.3051 79.8373,113.2475" stroke="#7f0000" stroke-width="2" /></svg>