<?xml version="1.0" encoding="utf-8" ?>
<svg baseProfile="tiny" height="128" version="1.2" viewBox="0,0,128,128" width="128" xmlns="http://www.w3.org/2000/svg" xmlns:ev="http://www.w3.org/2001/xml-events" xmlns:xlink="http://www.w3.org/1999/xlink"><defs /><polyline fill="none" points="27.7695,39.0508 27.7695,30.3729 33.8441,15.6203 38.1831,9.1119 41.2203,8.678 45.5593,34.278 62.0475,37.3153 65.0847,31.6746 69.4237,16.922 73.3288,26.9017 73.7627,36.8814 75.4983,41.6542" stroke="#00007f" stroke-width="2" /><polyline fill="none" points="26.0339,39.9186 26.9017,68.9898 32.9763,81.5729 36.8814,85.0441 53.8034,95.0237 72.0271,100.6644 79.8373,101.0983 87.6475,101.0983 90.6847,100.2305 92.4203,97.1932 95.0237,87.2136 95.4576,64.2169 88.9492,48.5966 86.3458,46.4271 75.4983,43.8237" stroke="#0028ff" stroke-width="2" /><polyline fill="none" points="85.0441,70.2915 114.1153,62.0475" stroke="#00d4ff" stroke-width="2" /><polyline fill="none" points="92.4203,83.3085 110.6441,80.2712 118.8881,77.2339" stroke="#7cff79" stroke-width="2" /><polyline fill="none" points="86.7797,85.478 88.5153,92.4203 119.322,102.8339" stroke="#ffe500" stroke-width="2" /><polyline fill="none" points="44.2576,72.0271 36.4475,72.0271 8.678,78.9695" stroke="#ff4600" stroke-width="2" /><polyline fill="none" points="48.1627,77.2339 37.7492,82.0068 23.8644,93.722" stroke="#7f0000" stroke-width="2" /></svg>