<?xml version="1.0" encoding="utf-8" ?>
<svg baseProfile="tiny" height="128" version="1.2" viewBox="0,0,128,128" width="128" xmlns="http://www.w3.org/2000/svg" xmlns:ev="http://www.w3.org/2001/xml-events" xmlns:xlink="http://www.w3.org/1999/xlink"><defs /><polyline fill="none" points="39.0508,21.6949 36.4475,9.9797 45.9932,17.7898 57.7085,19.9593 61.6136,13.8847 67.2542,8.678 68.9898,13.4508 68.9898,21.6949" stroke="#00007f" stroke-width="2" /><polyline fill="none" points="39.0508,21.6949 36.0136,24.7322 36.0136,29.0712 39.4847,33.4102 45.9932,37.7492 53.3695,38.6169 63.7831,34.278 66.8203,26.0339 66.8203,22.9966 64.6508,21.261" stroke="#0010ff" stroke-width="2" /><polyline fill="none" points="47.7288,26.0339 50.7661,27.3356 49.0305,25.1661" stroke="#00a4ff" stroke-width="2" /><polyline fill="none" points="46.861,26.4678 8.678,26.9017" stroke="#3fffb7" stroke-width="2" /><polyline fill="none" points="44.2576,27.3356 23.8644,30.3729 13.8847,34.278" stroke="#b7ff3f" stroke-width="2" /><polyline fill="none" points="52.9356,26.9017 64.6508,29.0712 78.1017,34.7119" stroke="#ffb900" stroke-width="2" /><polyline fill="none" points="56.4068,29.939 70.7254,34.7119 78.5356,39.4847" stroke="#ff3000" stroke-width="2" /><polyline fill="none" points="66.3864,22.9966 77.2339,23.4305 93.2881,21.261 111.5119,21.261 119.322,25.6" stroke="#7f0000" stroke-width="2" /></svg>