<?xml version="1.0" encoding="utf-8" ?>
<svg baseProfile="tiny" height="128" version="1.2" viewBox="0,0,128,128" width="128" xmlns="http://www.w3.org/2000/svg" xmlns:ev="http://www.w3.org/2001/xml-events" xmlns:xlink="http://www.w3.org/1999/xlink"><defs /><polyline fill="none" points="28.6373,9.1119 30.3729,39.4847 29.5051,8.678 35.1458,23.4305 43.3898,33.8441 46.4271,34.7119 54.6712,30.3729 66.3864,29.5051 74.6305,33.8441 84.1763,42.522 86.3458,41.2203 92.8542,30.3729 104.1356,16.0542 106.3051,14.7525 106.3051,16.922 107.6068,41.6542 106.3051,56.4068 97.1932,67.6881 89.8169,72.461 77.2339,77.2339 68.5559,79.4034 53.3695,78.9695 38.1831,71.5932 30.3729,62.4814 23.8644,44.2576 23.8644,37.3153 30.3729,37.3153" stroke="#00007f" stroke-width="2" /><polyline fill="none" points="43.8237,45.1254 52.5017,45.1254 55.1051,45.9932 57.2746,49.4644" stroke="#0000fe" stroke-width="2" /><polyline fill="none" points="44.2576,48.1627 50.3322,52.5017 55.1051,53.8034 56.8407,52.9356 57.7085,46.861" stroke="#0060ff" stroke-width="2" /><polyline fill="none" points="70.7254,48.5966 83.3085,45.9932 86.3458,45.9932 90.2508,48.1627" stroke="#00d4ff" stroke-width="2" /><polyline fill="none" points="68.5559,45.5593 75.9322,55.1051 82.0068,56.8407 85.478,56.4068 87.2136,53.3695 88.5153,44.6915" stroke="#4cffaa" stroke-width="2" /><polyline fill="none" points="96.3254,59.4441 119.322,73.7627" stroke="#aaff4c" stroke-width="2" /><polyline fill="none" points="91.5525,62.0475 94.1559,66.8203 117.1525,93.722" stroke="#ffe500" stroke-width="2" /><polyline fill="none" points="87.2136,63.7831 87.2136,69.8576 95.0237,85.478 101.0983,94.5898" stroke="#ff7a00" stroke-width="2" /><polyline fill="none" points="44.6915,55.1051 40.7864,54.2373 36.8814,56.4068 8.678,73.7627" stroke="#fe1200" stroke-width="2" /><polyline fill="none" points="37.3153,68.5559 26.4678,74.6305 13.4508,87.2136" stroke="#7f0000" stroke-width="2" /></svg>