<?xml version="1.0" encoding="utf-8" ?>
<svg baseProfile="tiny" height="128" version="1.2" viewBox="0,0,128,128" width="128" xmlns="http://www.w3.org/2000/svg" xmlns:ev="http://www.w3.org/2001/xml-events" xmlns:xlink="http://www.w3.org/1999/xlink"><defs /><polyline fill="none" points="93.2881,101.0983 82.8746,107.6068 67.6881,111.5119 45.1254,112.3797 39.9186,109.3424 15.1864,79.4034 10.8475,72.0271 9.1119,65.9525 8.678,54.6712 12.1492,47.7288 19.5254,40.3525 30.3729,35.1458 39.9186,33.8441 62.0475,33.4102 85.478,36.4475 105.0034,43.3898 111.9458,50.7661 115.8508,60.7458 115.4169,70.7254 112.3797,77.2339 100.6644,91.5525 89.3831,102.4 83.3085,105.0034 77.6678,105.0034" stroke="#00007f" stroke-width="2" /><polyline fill="none" points="29.0712,19.9593 29.0712,22.1288" stroke="#0028ff" stroke-width="2" /><polyline fill="none" points="29.0712,22.1288 29.939,34.7119 28.2034,14.7525 32.5424,8.678 34.7119,9.5458 45.9932,26.0339 53.3695,39.9186" stroke="#00d4ff" stroke-width="2" /><polyline fill="none" points="83.3085,37.3153 96.7593,24.7322 116.2847,12.1492 119.322,21.261 119.322,41.2203 118.4542,49.4644 114.9831,58.1424" stroke="#7cff79" stroke-width="2" /><polyline fill="none" points="43.3898,75.0644 44.2576,79.8373 45.9932,80.7051 52.0678,75.9322 53.8034,76.8 57.2746,84.1763 59.0102,84.6102 61.1797,83.3085 63.3492,75.4983" stroke="#ffe500" stroke-width="2" /><polyline fill="none" points="42.0881,64.6508 39.9186,58.5763 39.9186,55.1051 45.5593,57.2746 48.1627,60.7458 41.6542,63.7831" stroke="#ff4600" stroke-width="2" /><polyline fill="none" points="74.6305,65.9525 74.6305,65.9525" stroke="#7f0000" stroke-width="2" /></svg>