<?xml version="1.0" encoding="utf-8" ?>
<svg baseProfile="tiny" height="128" version="1.2" viewBox="0,0,128,128" width="128" xmlns="http://www.w3.org/2000/svg" xmlns:ev="http://www.w3.org/2001/xml-events" xmlns:xlink="http://www.w3.org/1999/xlink"><defs /><polyline fill="none" points="22.1288,8.678 19.0915,13.4508 17.3559,20.8271 16.4881,35.5797 18.6576,44.2576 28.2034,50.3322 35.5797,49.8983 38.6169,48.1627 42.522,42.0881 44.6915,34.278 45.5593,9.9797 42.522,11.7153 38.6169,19.9593 37.3153,20.3932 32.9763,17.7898 25.6,18.2237 22.5627,10.8475" stroke="#00007f" stroke-width="2" /><polyline fill="none" points="22.1288,37.3153 24.7322,40.7864 26.4678,40.3525 27.7695,37.7492 27.7695,42.0881 29.5051,42.9559 32.1085,42.9559 33.8441,38.1831" stroke="#004cff" stroke-width="2" /><polyline fill="none" points="27.3356,33.8441 25.6,31.2407 29.939,31.2407 30.3729,33.4102 29.0712,35.5797" stroke="#29ffcd" stroke-width="2" /><polyline fill="none" points="20.3932,45.9932 10.8475,71.1593 8.678,94.5898 9.5458,105.8712 11.2814,106.3051 14.3186,103.2678 16.922,90.6847 22.9966,85.478 24.2983,88.9492 25.1661,104.1356 27.3356,106.739 32.5424,95.8915 32.5424,87.2136 35.5797,83.3085 47.2949,80.2712 53.8034,80.2712" stroke="#cdff29" stroke-width="2" /><polyline fill="none" points="53.8034,80.2712 74.6305,80.2712 85.478,84.1763 85.9119,110.6441 91.1186,99.3627 93.2881,79.4034 98.4949,108.0407 103.2678,116.2847 104.5695,113.2475 104.5695,95.4576 101.0983,75.9322" stroke="#ff6700" stroke-width="2" /><polyline fill="none" points="42.9559,41.6542 75.4983,42.0881 92.8542,48.5966 101.5322,39.4847 105.8712,32.1085 109.7763,24.7322 113.6814,10.4136 115.4169,9.5458 116.7186,9.9797 118.8881,16.0542 119.322,27.3356" stroke="#7f0000" stroke-width="2" /></svg>