<?xml version="1.0" encoding="utf-8" ?>
<svg baseProfile="tiny" height="128" version="1.2" viewBox="0,0,128,128" width="128" xmlns="http://www.w3.org/2000/svg" xmlns:ev="http://www.w3.org/2001/xml-events" xmlns:xlink="http://www.w3.org/1999/xlink"><defs /><polyline fill="none" points="64.6508,26.9017 59.0102,24.7322 50.3322,24.7322 45.5593,26.4678 33.8441,40.3525 30.8068,49.8983 29.0712,62.4814 30.8068,77.6678 39.4847,89.3831 48.1627,97.6271 57.7085,101.0983 65.9525,98.9288 72.0271,88.0814 79.8373,61.1797 81.139,44.6915 78.9695,41.6542 54.6712,24.7322" stroke="#00007f" stroke-width="2" /><polyline fill="none" points="75.0644,34.7119 76.3661,28.2034 82.4407,20.3932 96.3254,10.8475 96.7593,13.4508 87.6475,28.6373 79.4034,51.6339" stroke="#0000e8" stroke-width="2" /><polyline fill="none" points="44.6915,34.278 42.522,31.6746 40.7864,22.9966 29.5051,8.678 25.1661,32.1085 24.7322,55.9729" stroke="#0038ff" stroke-width="2" /><polyline fill="none" points="32.9763,45.5593 37.7492,55.1051" stroke="#0094ff" stroke-width="2" /><polyline fill="none" points="72.0271,62.4814 116.7186,65.0847" stroke="#0cf4ea" stroke-width="2" /><polyline fill="none" points="68.122,69.8576 76.3661,70.7254 98.061,75.4983 111.078,81.139 114.9831,84.6102" stroke="#56ffa0" stroke-width="2" /><polyline fill="none" points="68.122,76.8 87.6475,82.0068 110.6441,93.2881" stroke="#a0ff56" stroke-width="2" /><polyline fill="none" points="45.5593,69.4237 21.6949,69.8576 8.678,72.0271" stroke="#eaff0c" stroke-width="2" /><polyline fill="none" points="53.3695,78.5356 45.9932,82.0068 24.7322,86.7797 18.6576,89.8169" stroke="#ffaa00" stroke-width="2" /><polyline fill="none" points="56.4068,88.5153 38.6169,96.7593 19.0915,112.3797 14.3186,119.322" stroke="#ff5500" stroke-width="2" /><polyline fill="none" points="62.4814,45.5593 61.1797,55.1051 64.2169,55.539 67.2542,53.3695 68.122,47.7288 61.6136,45.9932" stroke="#e80000" stroke-width="2" /><polyline fill="none" points="44.6915,44.6915 41.6542,54.6712" stroke="#7f0000" stroke-width="2" /></svg>