<?xml version="1.0" encoding="utf-8" ?>
<svg baseProfile="tiny" height="128" version="1.2" viewBox="0,0,128,128" width="128" xmlns="http://www.w3.org/2000/svg" xmlns:ev="http://www.w3.org/2001/xml-events" xmlns:xlink="http://www.w3.org/1999/xlink"><defs /><polyline fill="none" points="53.3695,29.939 71.1593,8.678 72.461,32.9763" stroke="#00007f" stroke-width="2" /><polyline fill="none" points="54.2373,28.2034 39.9186,28.2034" stroke="#0000fe" stroke-width="2" /><polyline fill="none" points="40.3525,28.2034 28.6373,10.4136 28.2034,32.1085" stroke="#0060ff" stroke-width="2" /><polyline fill="none" points="28.2034,30.8068 25.1661,37.7492 24.2983,51.2 29.5051,58.5763 35.1458,61.6136 39.9186,62.9153 58.5763,62.9153 71.1593,58.1424 77.2339,53.8034 80.7051,48.1627 79.8373,40.3525 70.2915,30.3729 65.9525,29.939 62.9153,31.6746" stroke="#00d4ff" stroke-width="2" /><polyline fill="none" points="57.7085,43.8237 88.9492,29.5051 104.1356,26.0339" stroke="#4cffaa" stroke-width="2" /><polyline fill="none" points="60.7458,39.4847 119.322,24.7322" stroke="#aaff4c" stroke-width="2" /><polyline fill="none" points="44.2576,41.6542 8.678,40.7864" stroke="#ffe500" stroke-width="2" /><polyline fill="none" points="43.3898,47.2949 29.0712,49.0305 21.261,51.6339 20.8271,52.9356" stroke="#ff7a00" stroke-width="2" /><polyline fill="none" points="49.4644,43.8237 49.4644,48.1627 52.9356,49.0305 53.8034,44.2576 52.5017,42.0881 49.4644,40.7864 47.2949,44.2576" stroke="#fe1200" stroke-width="2" /><polyline fill="none" points="66.8203,59.4441 70.7254,61.6136 85.9119,62.4814" stroke="#7f0000" stroke-width="2" /></svg>