<?xml version="1.0" encoding="utf-8" ?>
<svg baseProfile="tiny" height="128" version="1.2" viewBox="0,0,128,128" width="128" xmlns="http://www.w3.org/2000/svg" xmlns:ev="http://www.w3.org/2001/xml-events" xmlns:xlink="http://www.w3.org/1999/xlink"><defs /><polyline fill="none" points="11.7153,48.1627 13.0169,72.8949 20.3932,86.7797 26.9017,96.3254 43.3898,109.3424 53.3695,114.9831 65.9525,118.8881 80.7051,119.322 85.0441,118.4542 92.4203,113.2475 97.1932,105.8712 99.7966,97.6271 99.7966,75.4983 98.061,65.0847 92.8542,52.0678 84.1763,41.2203 72.8949,32.1085 64.2169,28.2034 53.3695,26.9017 45.5593,28.2034 35.1458,33.8441 29.939,40.7864 20.3932,49.4644 17.7898,53.8034" stroke="#00007f" stroke-width="2" /><polyline fill="none" points="19.0915,52.5017 19.0915,49.0305 12.1492,34.278 8.678,22.9966 8.678,12.5831 12.1492,12.5831 19.5254,17.7898 30.3729,31.2407 32.5424,32.1085" stroke="#0000e8" stroke-width="2" /><polyline fill="none" points="78.1017,35.1458 92.8542,12.5831 95.8915,8.678 99.3627,8.678 102.4,26.9017 102.4,42.0881 100.6644,57.2746" stroke="#0038ff" stroke-width="2" /><polyline fill="none" points="35.1458,57.7085 36.4475,61.1797 39.9186,60.3119 39.9186,57.2746 36.0136,57.2746" stroke="#0094ff" stroke-width="2" /><polyline fill="none" points="66.3864,57.7085 62.9153,59.878 62.4814,55.9729 66.8203,54.6712" stroke="#0cf4ea" stroke-width="2" /><polyline fill="none" points="48.1627,68.122 48.5966,72.0271 51.6339,74.6305 53.8034,71.5932 52.0678,69.4237" stroke="#56ffa0" stroke-width="2" /><polyline fill="none" points="70.2915,73.3288 85.478,64.6508 86.7797,65.5186" stroke="#a0ff56" stroke-width="2" /><polyline fill="none" points="75.4983,81.139 92.8542,74.1966" stroke="#eaff0c" stroke-width="2" /><polyline fill="none" points="82.0068,88.0814 87.2136,88.0814 95.8915,85.478" stroke="#ffaa00" stroke-width="2" /><polyline fill="none" points="37.7492,77.2339 16.4881,79.4034" stroke="#ff5500" stroke-width="2" /><polyline fill="none" points="42.9559,82.0068 39.4847,83.7424 22.9966,86.7797" stroke="#e80000" stroke-width="2" /><polyline fill="none" points="37.3153,86.7797 23.4305,95.8915" stroke="#7f0000" stroke-width="2" /></svg>