<?xml version="1.0" encoding="utf-8" ?>
<svg baseProfile="tiny" height="128" version="1.2" viewBox="0,0,128,128" width="128" xmlns="http://www.w3.org/2000/svg" xmlns:ev="http://www.w3.org/2001/xml-events" xmlns:xlink="http://www.w3.org/1999/xlink"><defs /><polyline fill="none" points="78.1017,23.8644 72.461,19.0915 62.0475,17.7898 50.7661,19.5254 45.1254,22.9966 39.9186,27.7695 32.9763,41.2203 30.8068,49.4644 29.939,66.3864 31.2407,74.1966 34.278,80.2712 39.9186,85.478 45.9932,88.5153 62.4814,90.2508 79.8373,83.7424 94.1559,72.461 98.4949,65.9525 101.0983,58.5763 100.2305,44.6915 85.0441,20.8271" stroke="#00007f" stroke-width="2" /><polyline fill="none" points="77.2339,23.8644 99.7966,8.678 101.0983,16.0542 99.3627,34.278" stroke="#0000ff" stroke-width="2" /><polyline fill="none" points="49.0305,21.261 45.5593,15.6203 40.7864,12.5831 28.6373,8.678 30.3729,22.1288 28.2034,34.7119 30.3729,36.4475" stroke="#0080ff" stroke-width="2" /><polyline fill="none" points="41.6542,48.1627 31.2407,50.3322 17.3559,58.1424 8.678,65.5186" stroke="#15ffe1" stroke-width="2" /><polyline fill="none" points="41.2203,49.8983 32.5424,56.4068 21.261,71.1593" stroke="#7cff79" stroke-width="2" /><polyline fill="none" points="44.2576,70.2915 39.9186,70.2915 31.2407,78.5356 21.6949,91.9864 16.922,103.2678" stroke="#e4ff12" stroke-width="2" /><polyline fill="none" points="74.1966,50.3322 82.8746,50.3322 118.0203,42.0881" stroke="#ff9400" stroke-width="2" /><polyline fill="none" points="82.0068,65.9525 112.8136,59.878" stroke="#ff1d00" stroke-width="2" /><polyline fill="none" points="83.7424,71.5932 108.4746,72.0271 119.322,73.7627" stroke="#7f0000" stroke-width="2" /></svg>