<?xml version="1.0" encoding="utf-8" ?>
<svg baseProfile="tiny" height="128" version="1.2" viewBox="0,0,128,128" width="128" xmlns="http://www.w3.org/2000/svg" xmlns:ev="http://www.w3.org/2001/xml-events" xmlns:xlink="http://www.w3.org/1999/xlink"><defs /><polyline fill="none" points="78.1017,44.6915 71.1593,44.2576 65.0847,45.5593 60.3119,49.4644 57.2746,54.2373 55.9729,62.9153 58.1424,71.1593 60.7458,75.0644 65.0847,76.8 73.3288,75.0644 80.7051,67.6881 82.4407,62.4814 81.139,52.9356 77.6678,49.8983" stroke="#00007f" stroke-width="2" /><polyline fill="none" points="67.2542,76.8 59.4441,82.0068 49.8983,85.478 29.5051,90.2508" stroke="#0000cc" stroke-width="2" /><polyline fill="none" points="30.8068,91.5525 17.3559,112.8136 15.6203,114.1153 15.6203,112.8136" stroke="#0008ff" stroke-width="2" /><polyline fill="none" points="28.2034,91.1186 35.1458,115.8508 37.7492,119.322" stroke="#004cff" stroke-width="2" /><polyline fill="none" points="68.9898,75.9322 50.7661,116.7186" stroke="#0090ff" stroke-width="2" /><polyline fill="none" points="64.6508,77.6678 74.6305,96.7593 77.2339,104.5695" stroke="#00d4ff" stroke-width="2" /><polyline fill="none" points="26.9017,90.2508 22.5627,89.8169 18.2237,85.0441 18.2237,82.0068 22.1288,74.1966 23.4305,65.0847 19.9593,59.878 12.1492,59.878 9.1119,56.8407 8.678,39.4847" stroke="#29ffcd" stroke-width="2" /><polyline fill="none" points="61.6136,60.3119 61.6136,60.3119" stroke="#5fff96" stroke-width="2" /><polyline fill="none" points="67.6881,58.1424 67.2542,58.1424" stroke="#96ff5f" stroke-width="2" /><polyline fill="none" points="60.3119,50.7661 49.8983,45.5593 54.2373,55.9729" stroke="#cdff29" stroke-width="2" /><polyline fill="none" points="69.4237,46.4271 73.7627,36.0136 77.6678,49.4644" stroke="#ffe500" stroke-width="2" /><polyline fill="none" points="35.5797,26.9017 36.8814,12.1492 38.6169,18.6576 40.7864,20.3932 43.8237,17.3559 47.7288,8.678 50.7661,26.0339" stroke="#ffa600" stroke-width="2" /><polyline fill="none" points="68.5559,26.0339 58.5763,29.939 59.0102,19.9593 57.7085,12.5831 63.3492,12.1492" stroke="#ff6700" stroke-width="2" /><polyline fill="none" points="62.0475,19.0915 57.7085,19.9593" stroke="#ff2800" stroke-width="2" /><polyline fill="none" points="76.8,14.3186 70.2915,18.2237 69.4237,24.2983 74.1966,29.0712 79.4034,27.7695 82.0068,25.1661 82.8746,19.5254 81.139,16.922 75.4983,14.7525" stroke="#cc0000" stroke-width="2" /><polyline fill="none" points="84.1763,15.6203 86.3458,25.6 88.5153,26.9017 92.8542,24.7322 97.1932,28.6373 98.9288,25.1661 97.6271,16.922" stroke="#7f0000" stroke-width="2" /></svg>