<?xml version="1.0" encoding="utf-8" ?>
<svg baseProfile="tiny" height="128" version="1.2" viewBox="0,0,128,128" width="128" xmlns="http://www.w3.org/2000/svg" xmlns:ev="http://www.w3.org/2001/xml-events" xmlns:xlink="http://www.w3.org/1999/xlink"><defs /><polyline fill="none" points="40.7864,37.7492 41.6542,33.8441 49.0305,29.5051 60.7458,25.1661 71.1593,23.8644 88.0814,23.8644 92.4203,25.1661 98.9288,32.5424" stroke="#00007f" stroke-width="2" /><polyline fill="none" points="40.7864,35.5797 29.939,21.6949 17.7898,9.5458 16.0542,13.4508 19.0915,42.0881 21.261,51.2" stroke="#0028ff" stroke-width="2" /><polyline fill="none" points="101.5322,31.2407 105.0034,24.2983 118.4542,8.678 119.322,33.8441 118.0203,47.2949 114.1153,59.0102 114.1153,72.8949 107.1729,86.3458 93.722,96.3254 85.478,99.7966 52.5017,101.5322 35.5797,95.4576 29.5051,87.2136 23.8644,65.9525 16.922,54.2373" stroke="#00d4ff" stroke-width="2" /><polyline fill="none" points="43.8237,60.3119 19.9593,69.4237 9.9797,74.6305" stroke="#7cff79" stroke-width="2" /><polyline fill="none" points="54.2373,73.7627 49.0305,73.7627 33.4102,77.2339 13.4508,83.7424 8.678,86.3458" stroke="#ffe500" stroke-width="2" /><polyline fill="none" points="52.0678,84.1763 40.3525,88.5153 21.261,98.9288" stroke="#ff4600" stroke-width="2" /><polyline fill="none" points="84.1763,77.6678 91.5525,77.6678 100.2305,79.8373 119.322,88.5153" stroke="#7f0000" stroke-width="2" /></svg>