<?xml version="1.0" encoding="utf-8" ?>
<svg baseProfile="tiny" height="128" version="1.2" viewBox="0,0,128,128" width="128" xmlns="http://www.w3.org/2000/svg" xmlns:ev="http://www.w3.org/2001/xml-events" xmlns:xlink="http://www.w3.org/1999/xlink"><defs /><polyline fill="none" points="56.8407,78.5356 45.1254,72.0271 38.1831,64.6508 34.7119,57.2746 35.5797,49.0305 39.4847,42.522 43.3898,39.0508 51.2,35.1458 62.0475,32.9763 76.8,32.9763 88.0814,35.5797 99.7966,41.6542 105.8712,47.2949 110.6441,55.539 112.3797,65.0847 110.2102,69.4237 103.2678,75.4983 93.722,78.5356 85.9119,78.9695 73.7627,76.8 52.0678,68.5559" stroke="#00007f" stroke-width="2" /><polyline fill="none" points="47.7288,33.4102 47.2949,21.261 50.3322,8.678 52.0678,8.678 64.6508,34.278" stroke="#0010ff" stroke-width="2" /><polyline fill="none" points="90.2508,34.278 119.322,31.6746 117.5864,38.1831 107.1729,56.4068" stroke="#00a4ff" stroke-width="2" /><polyline fill="none" points="54.6712,54.6712 71.1593,61.1797 81.5729,63.3492" stroke="#3fffb7" stroke-width="2" /><polyline fill="none" points="63.3492,59.0102 62.9153,64.6508 59.4441,72.0271" stroke="#b7ff3f" stroke-width="2" /><polyline fill="none" points="39.9186,53.3695 30.8068,50.3322 9.1119,46.4271" stroke="#ffb900" stroke-width="2" /><polyline fill="none" points="39.0508,62.0475 8.678,61.1797" stroke="#ff3000" stroke-width="2" /><polyline fill="none" points="65.5186,42.522 66.8203,52.5017 65.5186,48.1627 62.4814,45.9932 67.2542,46.861 65.5186,45.1254" stroke="#7f0000" stroke-width="2" /></svg>