<?xml version="1.0" encoding="utf-8" ?>
<svg baseProfile="tiny" height="128" version="1.2" viewBox="0,0,128,128" width="128" xmlns="http://www.w3.org/2000/svg" xmlns:ev="http://www.w3.org/2001/xml-events" xmlns:xlink="http://www.w3.org/1999/xlink"><defs /><polyline fill="none" points="62.9153,31.6746 50.7661,31.2407 41.6542,34.278 31.6746,45.5593 28.2034,52.0678 28.6373,69.8576 34.7119,76.8 42.9559,82.8746 54.2373,85.478 76.3661,84.6102 88.5153,78.5356 92.8542,74.1966 95.0237,68.9898 95.0237,57.7085 92.8542,45.9932 82.8746,33.8441 69.8576,26.9017 52.0678,26.4678" stroke="#00007f" stroke-width="2" /><polyline fill="none" points="52.0678,47.7288 52.0678,51.2" stroke="#0000f1" stroke-width="2" /><polyline fill="none" points="69.8576,46.861 71.1593,50.3322" stroke="#004cff" stroke-width="2" /><polyline fill="none" points="53.3695,61.1797 51.2,60.7458 47.7288,56.8407 30.8068,45.5593 18.2237,39.9186" stroke="#00b0ff" stroke-width="2" /><polyline fill="none" points="46.861,60.3119 39.9186,63.7831 23.8644,65.0847 8.678,70.2915" stroke="#29ffcd" stroke-width="2" /><polyline fill="none" points="49.0305,58.5763 46.861,61.6136 22.9966,76.8 10.8475,81.139" stroke="#7cff79" stroke-width="2" /><polyline fill="none" points="74.6305,59.878 86.7797,53.8034 111.078,45.5593 114.9831,42.9559" stroke="#cdff29" stroke-width="2" /><polyline fill="none" points="75.4983,59.0102 86.3458,61.1797 119.322,61.1797" stroke="#ffc400" stroke-width="2" /><polyline fill="none" points="75.4983,59.878 87.6475,69.8576 108.0407,82.0068" stroke="#ff6700" stroke-width="2" /><polyline fill="none" points="69.8576,26.4678 77.2339,22.1288 86.3458,14.3186 89.3831,8.678 89.8169,35.1458" stroke="#f10700" stroke-width="2" /><polyline fill="none" points="56.8407,24.2983 49.0305,22.9966 38.6169,18.6576 23.4305,14.3186 22.9966,16.0542 31.2407,24.7322 41.2203,37.3153" stroke="#7f0000" stroke-width="2" /></svg>