<?xml version="1.0" encoding="utf-8" ?>
<svg baseProfile="tiny" height="128" version="1.2" viewBox="0,0,128,128" width="128" xmlns="http://www.w3.org/2000/svg" xmlns:ev="http://www.w3.org/2001/xml-events" xmlns:xlink="http://www.w3.org/1999/xlink"><defs /><polyline fill="none" points="25.6,52.9356 14.3186,53.8034 12.1492,56.8407 8.678,67.6881 9.5458,85.0441 11.7153,87.6475 16.922,89.3831 22.1288,87.6475 24.7322,85.9119 27.7695,78.5356 29.5051,59.0102 23.4305,48.5966" stroke="#00007f" stroke-width="2" /><polyline fill="none" points="9.5458,55.9729 9.9797,42.0881 12.5831,41.2203 15.1864,49.0305 19.9593,49.4644 26.4678,37.3153 28.2034,42.522 28.2034,55.1051 26.9017,57.2746" stroke="#0010ff" stroke-width="2" /><polyline fill="none" points="12.1492,62.9153 12.5831,62.9153" stroke="#00a4ff" stroke-width="2" /><polyline fill="none" points="20.8271,59.878 21.261,60.3119" stroke="#3fffb7" stroke-width="2" /><polyline fill="none" points="14.3186,75.9322 21.6949,75.4983 23.4305,68.9898" stroke="#b7ff3f" stroke-width="2" /><polyline fill="none" points="25.1661,80.2712 42.0881,72.461 51.6339,65.9525 69.4237,58.1424 77.6678,58.1424 83.7424,60.7458 94.5898,66.8203 96.7593,72.0271 91.5525,83.3085 75.0644,93.722 56.8407,96.7593 20.8271,94.1559 19.5254,119.322 18.2237,88.9492 20.3932,91.5525 27.3356,112.3797 30.3729,116.7186 29.0712,112.3797" stroke="#ffb900" stroke-width="2" /><polyline fill="none" points="65.0847,93.722 70.2915,116.7186 68.5559,94.5898 71.1593,94.5898 78.9695,104.5695 86.3458,107.1729 84.1763,103.2678" stroke="#ff3000" stroke-width="2" /><polyline fill="none" points="80.2712,61.6136 89.8169,47.7288 95.0237,43.8237 98.061,38.6169 98.9288,30.8068 105.4373,13.0169 109.3424,8.678 110.2102,33.8441 91.9864,63.3492" stroke="#7f0000" stroke-width="2" /></svg>