<?xml version="1.0" encoding="utf-8" ?>
<svg baseProfile="tiny" height="128" version="1.2" viewBox="0,0,128,128" width="128" xmlns="http://www.w3.org/2000/svg" xmlns:ev="http://www.w3.org/2001/xml-events" xmlns:xlink="http://www.w3.org/1999/xlink"><defs /><polyline fill="none" points="22.5627,17.7898 17.7898,19.9593 14.3186,26.0339 12.5831,32.5424 11.7153,50.3322 15.1864,56.8407 18.6576,59.0102 29.939,60.3119 38.6169,56.8407 48.5966,49.0305 50.3322,33.8441 48.5966,29.939 39.4847,22.5627 30.3729,18.6576 19.0915,18.6576" stroke="#00007f" stroke-width="2" /><polyline fill="none" points="29.0712,40.7864 28.6373,47.2949 22.5627,49.0305 19.5254,48.1627" stroke="#0000c8" stroke-width="2" /><polyline fill="none" points="28.6373,41.6542 29.5051,46.4271 35.5797,48.1627 37.7492,46.861 38.6169,42.0881 35.1458,40.3525" stroke="#0000ff" stroke-width="2" /><polyline fill="none" points="19.0915,33.4102 10.8475,33.8441 10.4136,35.1458" stroke="#0040ff" stroke-width="2" /><polyline fill="none" points="17.3559,39.4847 12.1492,40.7864 9.1119,43.3898" stroke="#0080ff" stroke-width="2" /><polyline fill="none" points="15.6203,46.861 8.678,49.0305" stroke="#00c0ff" stroke-width="2" /><polyline fill="none" points="39.9186,36.8814 49.4644,36.0136" stroke="#15ffe1" stroke-width="2" /><polyline fill="none" points="41.2203,42.522 45.5593,44.2576" stroke="#49ffad" stroke-width="2" /><polyline fill="none" points="39.9186,48.1627 50.3322,51.2" stroke="#7cff79" stroke-width="2" /><polyline fill="none" points="23.8644,30.8068 23.4305,31.2407" stroke="#b0ff46" stroke-width="2" /><polyline fill="none" points="23.8644,31.6746 23.8644,32.1085" stroke="#e4ff12" stroke-width="2" /><polyline fill="none" points="34.278,32.1085 34.278,32.1085" stroke="#ffcf00" stroke-width="2" /><polyline fill="none" points="34.278,32.1085 34.7119,32.5424" stroke="#ff9400" stroke-width="2" /><polyline fill="none" points="14.3186,18.6576 13.4508,12.1492 13.8847,9.9797 16.0542,8.678 22.9966,13.4508 30.8068,20.8271 32.9763,23.8644 34.278,28.6373" stroke="#ff5900" stroke-width="2" /><polyline fill="none" points="45.1254,22.9966 52.5017,15.6203 54.6712,14.7525 52.9356,24.7322 49.4644,32.5424" stroke="#ff1d00" stroke-width="2" /><polyline fill="none" points="49.8983,44.6915 78.9695,41.6542 94.1559,45.9932 102.4,49.8983 104.1356,51.6339 104.5695,63.3492 102.8339,67.6881 96.3254,71.1593 73.7627,72.0271 59.878,66.3864 41.2203,54.2373" stroke="#c30000" stroke-width="2" /><polyline fill="none" points="106.3051,51.6339 107.6068,43.8237 119.322,38.6169" stroke="#7f0000" stroke-width="2" /></svg>