<?xml version="1.0" encoding="utf-8" ?>
<svg baseProfile="tiny" height="128" version="1.2" viewBox="0,0,128,128" width="128" xmlns="http://www.w3.org/2000/svg" xmlns:ev="http://www.w3.org/2001/xml-events" xmlns:xlink="http://www.w3.org/1999/xlink"><defs /><polyline fill="none" points="106.3051,41.2203 99.3627,35.1458 79.8373,27.7695 64.6508,27.3356 55.9729,31.2407 51.6339,36.4475 47.2949,45.9932 45.9932,60.3119 50.3322,71.5932 56.8407,77.2339 64.2169,79.8373 79.8373,80.7051 85.9119,78.9695 94.1559,74.1966 99.7966,65.0847 101.0983,57.2746 99.7966,39.4847 97.1932,36.4475" stroke="#00007f" stroke-width="2" /><polyline fill="none" points="92.4203,48.1627 85.478,43.8237 78.1017,42.522 75.9322,47.2949 80.7051,51.6339 85.9119,54.2373 91.1186,53.3695 90.6847,46.861 86.3458,43.8237" stroke="#0000de" stroke-width="2" /><polyline fill="none" points="66.8203,47.7288 66.3864,45.9932 62.9153,43.8237 53.8034,42.9559 52.5017,49.0305 55.539,52.0678 59.878,54.6712 65.0847,53.3695 66.3864,48.5966 63.7831,45.1254" stroke="#0028ff" stroke-width="2" /><polyline fill="none" points="72.8949,62.4814 59.0102,60.7458 13.8847,48.1627" stroke="#0080ff" stroke-width="2" /><polyline fill="none" points="64.6508,65.5186 8.678,65.5186" stroke="#00d4ff" stroke-width="2" /><polyline fill="none" points="62.0475,69.4237 52.5017,77.6678 16.922,95.0237" stroke="#36ffc0" stroke-width="2" /><polyline fill="none" points="86.7797,64.6508 113.2475,59.4441" stroke="#7cff79" stroke-width="2" /><polyline fill="none" points="82.0068,70.2915 93.722,70.7254 119.322,76.3661" stroke="#c0ff36" stroke-width="2" /><polyline fill="none" points="83.3085,76.8 97.1932,79.4034 113.6814,84.6102" stroke="#ffe500" stroke-width="2" /><polyline fill="none" points="75.9322,72.0271 68.9898,72.0271" stroke="#ff9400" stroke-width="2" /><polyline fill="none" points="74.6305,53.8034 75.4983,60.7458 73.3288,62.4814 69.4237,59.0102 68.5559,54.2373 70.7254,52.5017 74.1966,54.6712" stroke="#ff4600" stroke-width="2" /><polyline fill="none" points="59.0102,28.2034 56.8407,19.5254 50.3322,8.678 48.5966,19.9593 48.5966,36.0136" stroke="#de0000" stroke-width="2" /><polyline fill="none" points="88.9492,29.939 101.0983,11.2814 102.4,30.3729 101.0983,35.1458" stroke="#7f0000" stroke-width="2" /></svg>