<?xml version="1.0" encoding="utf-8" ?>
<svg baseProfile="tiny" height="128" version="1.2" viewBox="0,0,128,128" width="128" xmlns="http://www.w3.org/2000/svg" xmlns:ev="http://www.w3.org/2001/xml-events" xmlns:xlink="http://www.w3.org/1999/xlink"><defs /><polyline fill="none" points="15.1864,39.0508 8.678,62.4814 8.678,82.0068 13.0169,101.0983 19.0915,110.2102 27.3356,117.5864 34.278,119.322 41.2203,119.322 49.0305,117.1525 59.4441,111.078 69.8576,99.3627 75.4983,90.2508 80.7051,78.5356 82.8746,67.6881 83.3085,54.2373 76.8,42.522 64.2169,31.6746 50.7661,26.9017 32.1085,26.0339 24.2983,29.0712 19.5254,32.5424 15.1864,39.4847 13.4508,50.7661" stroke="#00007f" stroke-width="2" /><polyline fill="none" points="81.5729,31.2407 78.9695,33.4102 77.2339,33.4102" stroke="#0010ff" stroke-width="2" /><polyline fill="none" points="65.5186,36.0136 86.3458,15.6203 86.7797,23.8644 85.0441,39.9186 85.0441,48.5966 85.9119,48.5966" stroke="#00a4ff" stroke-width="2" /><polyline fill="none" points="33.4102,26.4678 31.2407,16.4881 24.7322,8.678 14.3186,48.5966" stroke="#3fffb7" stroke-width="2" /><polyline fill="none" points="26.9017,54.2373 26.9017,54.2373" stroke="#b7ff3f" stroke-width="2" /><polyline fill="none" points="25.6,65.9525 27.3356,60.3119 24.7322,59.4441 22.9966,62.4814 25.1661,64.6508 32.1085,65.0847 35.5797,63.7831 35.5797,59.0102 34.278,58.1424" stroke="#ffb900" stroke-width="2" /><polyline fill="none" points="64.6508,59.0102 61.6136,59.4441 59.4441,62.0475 59.878,66.8203 62.9153,67.2542 64.6508,64.6508 58.5763,63.3492" stroke="#ff3000" stroke-width="2" /><polyline fill="none" points="42.522,85.9119 43.8237,92.8542 46.861,98.9288 52.0678,99.7966 53.8034,93.2881" stroke="#7f0000" stroke-width="2" /></svg>