<?xml version="1.0" encoding="utf-8" ?>
<svg baseProfile="tiny" height="128" version="1.2" viewBox="0,0,128,128" width="128" xmlns="http://www.w3.org/2000/svg" xmlns:ev="http://www.w3.org/2001/xml-events" xmlns:xlink="http://www.w3.org/1999/xlink"><defs /><polyline fill="none" points="111.078,21.6949 105.0034,20.8271 93.2881,29.0712 90.2508,35.1458 89.3831,40.3525 102.8339,51.2 108.9085,51.6339 111.078,49.8983 119.322,36.0136 119.322,29.5051 109.7763,19.9593" stroke="#00007f" stroke-width="2" /><polyline fill="none" points="95.0237,8.678 101.5322,22.1288" stroke="#0000ff" stroke-width="2" /><polyline fill="none" points="114.9831,9.9797 110.2102,22.1288" stroke="#0080ff" stroke-width="2" /><polyline fill="none" points="88.0814,39.4847 75.9322,44.2576 49.8983,46.4271" stroke="#15ffe1" stroke-width="2" /><polyline fill="none" points="98.4949,45.9932 97.1932,50.3322 88.5153,56.8407 68.122,65.0847 55.9729,65.5186 45.5593,63.7831 37.3153,58.1424 23.4305,38.6169 9.9797,26.9017" stroke="#7cff79" stroke-width="2" /><polyline fill="none" points="48.1627,45.9932 37.3153,44.2576 29.0712,40.7864 22.1288,35.1458 14.3186,26.4678 8.678,23.4305" stroke="#e4ff12" stroke-width="2" /><polyline fill="none" points="37.7492,58.5763 39.9186,67.2542 37.7492,86.3458" stroke="#ff9400" stroke-width="2" /><polyline fill="none" points="51.2,65.5186 51.2,87.2136" stroke="#ff1d00" stroke-width="2" /><polyline fill="none" points="72.8949,64.2169 76.3661,80.7051" stroke="#7f0000" stroke-width="2" /></svg>