<?xml version="1.0" encoding="utf-8" ?>
<svg baseProfile="tiny" height="128" version="1.2" viewBox="0,0,128,128" width="128" xmlns="http://www.w3.org/2000/svg" xmlns:ev="http://www.w3.org/2001/xml-events" xmlns:xlink="http://www.w3.org/1999/xlink"><defs /><polyline fill="none" points="20.8271,38.6169 16.922,42.9559 14.7525,52.0678 12.5831,66.3864 12.5831,77.2339 17.3559,83.7424 26.0339,85.0441 37.7492,85.0441 46.4271,80.7051 49.4644,75.4983 52.0678,66.3864 51.6339,52.0678 45.5593,45.1254 38.6169,41.6542 30.8068,39.0508 19.9593,38.6169" stroke="#00007f" stroke-width="2" /><polyline fill="none" points="8.678,44.6915 8.678,15.1864 9.5458,17.7898 23.8644,32.5424 26.4678,40.7864" stroke="#0000cc" stroke-width="2" /><polyline fill="none" points="42.9559,42.522 50.7661,32.1085 59.878,26.0339 66.3864,23.4305 66.8203,32.9763 64.6508,45.9932 54.6712,64.6508" stroke="#0008ff" stroke-width="2" /><polyline fill="none" points="22.9966,45.9932 22.9966,45.9932" stroke="#004cff" stroke-width="2" /><polyline fill="none" points="23.4305,45.1254 23.4305,46.861" stroke="#0090ff" stroke-width="2" /><polyline fill="none" points="37.7492,49.4644 37.7492,49.4644" stroke="#00d4ff" stroke-width="2" /><polyline fill="none" points="37.7492,45.1254 37.7492,48.5966" stroke="#29ffcd" stroke-width="2" /><polyline fill="none" points="18.6576,67.2542 18.6576,67.2542" stroke="#5fff96" stroke-width="2" /><polyline fill="none" points="27.3356,59.0102 28.2034,72.461 30.3729,74.1966 38.6169,74.1966" stroke="#96ff5f" stroke-width="2" /><polyline fill="none" points="26.0339,60.7458 24.7322,69.8576 22.9966,71.5932 18.2237,72.461 13.8847,69.4237" stroke="#cdff29" stroke-width="2" /><polyline fill="none" points="23.4305,72.0271 25.1661,75.0644 29.939,75.0644" stroke="#ffe500" stroke-width="2" /><polyline fill="none" points="53.3695,67.2542 92.8542,67.2542 101.0983,69.4237 105.8712,74.1966 108.4746,84.6102 108.4746,89.3831 103.7017,91.9864 84.6102,95.4576 37.3153,95.4576 19.9593,90.2508 18.6576,85.478 18.6576,76.3661" stroke="#ffa600" stroke-width="2" /><polyline fill="none" points="36.8814,92.8542 35.1458,95.0237 35.1458,107.6068 36.8814,110.2102 40.3525,111.078 45.5593,110.6441 48.5966,108.0407 52.0678,101.9661 52.5017,95.4576" stroke="#ff6700" stroke-width="2" /><polyline fill="none" points="84.6102,91.1186 83.3085,116.7186 85.478,117.5864 91.5525,110.2102 96.7593,91.5525" stroke="#ff2800" stroke-width="2" /><polyline fill="none" points="108.9085,77.2339 108.9085,50.3322 111.5119,45.5593 116.7186,41.6542 119.322,35.1458" stroke="#cc0000" stroke-width="2" /><polyline fill="none" points="108.9085,8.678 91.9864,10.8475 83.7424,16.922" stroke="#7f0000" stroke-width="2" /></svg>