<?xml version="1.0" encoding="utf-8" ?>
<svg baseProfile="tiny" height="128" version="1.2" viewBox="0,0,128,128" width="128" xmlns="http://www.w3.org/2000/svg" xmlns:ev="http://www.w3.org/2001/xml-events" xmlns:xlink="http://www.w3.org/1999/xlink"><defs /><polyline fill="none" points="16.922,24.7322 18.2237,18.2237 22.9966,8.678 24.7322,11.2814 28.6373,25.6 29.939,26.4678 43.8237,25.1661 52.5017,27.3356 56.8407,17.3559 61.6136,12.5831 62.4814,21.261 60.3119,29.939 62.9153,30.3729 64.2169,32.9763 64.6508,41.6542 57.7085,52.9356 45.5593,62.4814 38.6169,63.3492 28.6373,59.0102 10.8475,39.9186 8.678,33.8441 9.9797,27.3356 19.5254,26.4678 20.8271,27.7695" stroke="#00007f" stroke-width="2" /><polyline fill="none" points="24.7322,30.8068 20.8271,34.278 20.8271,37.3153 22.5627,37.7492 24.7322,36.0136 25.1661,31.6746 23.8644,29.939 21.6949,30.3729" stroke="#0000f1" stroke-width="2" /><polyline fill="none" points="52.9356,32.9763 47.7288,35.1458 46.861,40.7864 49.8983,40.7864 52.9356,38.1831 52.5017,33.8441 49.4644,30.8068" stroke="#004cff" stroke-width="2" /><polyline fill="none" points="36.4475,39.9186 35.1458,43.8237 37.7492,44.6915 37.7492,40.7864 35.5797,40.3525" stroke="#00b0ff" stroke-width="2" /><polyline fill="none" points="29.5051,42.9559 28.2034,48.5966 30.3729,48.5966 32.9763,45.1254 34.278,50.3322 39.9186,50.3322 41.2203,48.5966 40.3525,47.7288" stroke="#29ffcd" stroke-width="2" /><polyline fill="none" points="64.2169,27.7695 94.1559,27.3356 101.0983,30.8068 102.8339,33.8441" stroke="#7cff79" stroke-width="2" /><polyline fill="none" points="62.4814,51.6339 62.4814,54.6712 66.3864,56.8407 79.4034,58.1424 92.8542,50.3322 100.6644,37.7492 105.8712,17.7898" stroke="#cdff29" stroke-width="2" /><polyline fill="none" points="73.7627,61.1797 62.9153,74.6305 72.0271,66.8203" stroke="#ffc400" stroke-width="2" /><polyline fill="none" points="91.9864,54.2373 91.5525,62.4814 87.6475,77.2339 90.2508,72.0271" stroke="#ff6700" stroke-width="2" /><polyline fill="none" points="103.7017,34.7119 106.3051,59.878 108.4746,71.1593 109.7763,72.8949 111.5119,70.7254 112.8136,55.9729" stroke="#f10700" stroke-width="2" /><polyline fill="none" points="106.3051,37.7492 111.5119,50.7661 119.322,62.4814" stroke="#7f0000" stroke-width="2" /></svg>