<?xml version="1.0" encoding="utf-8" ?>
<svg baseProfile="tiny" height="128" version="1.2" viewBox="0,0,128,128" width="128" xmlns="http://www.w3.org/2000/svg" xmlns:ev="http://www.w3.org/2001/xml-events" xmlns:xlink="http://www.w3.org/1999/xlink"><defs /><polyline fill="none" points="59.0102,27.3356 40.7864,27.3356 29.0712,33.8441 17.3559,45.1254 12.5831,51.6339 8.678,65.0847 9.5458,80.7051 17.3559,96.7593 29.5051,109.7763 36.0136,114.1153 44.2576,117.1525 52.5017,119.322 68.122,119.322 75.4983,115.8508 82.4407,110.6441 91.9864,98.4949 96.3254,89.8169 100.2305,75.9322 100.2305,53.8034 93.722,40.7864 83.7424,31.6746 77.2339,27.7695 65.9525,25.1661 55.539,26.0339" stroke="#00007f" stroke-width="2" /><polyline fill="none" points="87.6475,32.1085 107.6068,9.5458 108.0407,18.6576 104.5695,46.4271" stroke="#0000d5" stroke-width="2" /><polyline fill="none" points="44.6915,29.5051 31.2407,18.2237 15.1864,8.678 13.0169,22.5627 13.0169,44.6915" stroke="#001cff" stroke-width="2" /><polyline fill="none" points="54.2373,72.8949 55.9729,78.1017 55.539,90.2508 51.6339,96.3254 48.1627,98.4949 40.3525,98.9288 38.1831,96.7593 37.7492,91.5525" stroke="#006cff" stroke-width="2" /><polyline fill="none" points="56.4068,70.7254 56.8407,95.4576 61.6136,98.4949 65.9525,98.4949 70.2915,91.9864" stroke="#00b8ff" stroke-width="2" /><polyline fill="none" points="36.8814,55.539 34.7119,55.539 33.4102,53.8034 35.5797,52.0678 35.5797,54.2373 32.1085,56.4068" stroke="#1cffda" stroke-width="2" /><polyline fill="none" points="87.6475,58.5763 83.7424,58.1424 82.8746,55.9729 84.1763,56.4068" stroke="#5cff9a" stroke-width="2" /><polyline fill="none" points="47.2949,73.7627 59.4441,72.461 61.1797,70.7254 60.7458,68.9898 59.0102,66.8203 56.8407,66.8203 49.0305,73.3288" stroke="#9aff5c" stroke-width="2" /><polyline fill="none" points="68.9898,68.122 80.2712,65.9525 92.8542,61.6136" stroke="#daff1c" stroke-width="2" /><polyline fill="none" points="70.2915,71.5932 80.7051,71.1593 91.1186,73.7627" stroke="#ffcb00" stroke-width="2" /><polyline fill="none" points="71.1593,78.9695 74.1966,81.5729 83.7424,86.7797" stroke="#ff8500" stroke-width="2" /><polyline fill="none" points="42.9559,69.8576 39.4847,68.122 24.7322,68.122" stroke="#ff3b00" stroke-width="2" /><polyline fill="none" points="43.8237,69.4237 37.7492,70.2915 32.9763,72.461 26.0339,78.9695" stroke="#d50000" stroke-width="2" /><polyline fill="none" points="40.3525,71.5932 36.8814,74.1966 31.2407,82.8746" stroke="#7f0000" stroke-width="2" /></svg>