<?xml version="1.0" encoding="utf-8" ?>
<svg baseProfile="tiny" height="128" version="1.2" viewBox="0,0,128,128" width="128" xmlns="http://www.w3.org/2000/svg" xmlns:ev="http://www.w3.org/2001/xml-events" xmlns:xlink="http://www.w3.org/1999/xlink"><defs /><polyline fill="none" points="11.7153,39.9186 11.7153,18.6576 29.939,46.861 32.9763,43.3898 34.278,19.9593 36.4475,8.678 39.9186,11.7153 48.5966,27.7695 59.0102,63.3492 59.0102,68.9898" stroke="#00007f" stroke-width="2" /><polyline fill="none" points="56.8407,67.6881 42.522,70.2915 31.6746,70.2915 27.7695,68.9898 21.6949,63.3492 17.3559,52.0678 8.678,43.3898" stroke="#0010ff" stroke-width="2" /><polyline fill="none" points="18.6576,63.3492 18.6576,81.5729 22.1288,106.3051 25.6,113.6814 32.9763,118.0203 39.9186,119.322 52.5017,118.4542 63.7831,108.9085 68.9898,100.2305 70.2915,91.5525 70.2915,81.139 66.8203,73.3288" stroke="#00a4ff" stroke-width="2" /><polyline fill="none" points="66.8203,73.3288 63.3492,72.461" stroke="#3fffb7" stroke-width="2" /><polyline fill="none" points="35.5797,81.5729 37.7492,91.1186" stroke="#b7ff3f" stroke-width="2" /><polyline fill="none" points="52.0678,83.3085 52.5017,88.9492" stroke="#ffb900" stroke-width="2" /><polyline fill="none" points="47.7288,93.722 49.0305,103.7017" stroke="#ff3000" stroke-width="2" /><polyline fill="none" points="40.7864,106.739 48.5966,108.0407" stroke="#7f0000" stroke-width="2" /></svg>