<?xml version="1.0" encoding="utf-8" ?>
<svg baseProfile="tiny" height="128" version="1.2" viewBox="0,0,128,128" width="128" xmlns="http://www.w3.org/2000/svg" xmlns:ev="http://www.w3.org/2001/xml-events" xmlns:xlink="http://www.w3.org/1999/xlink"><defs /><polyline fill="none" points="85.3333,23.5102 76.1905,25.6871 69.6599,30.9116 65.3061,37.0068 64.0,45.7143 70.0952,52.2449 83.1565,54.8571 89.6871,54.4218 103.619,48.3265 109.7143,42.2313 111.0204,36.1361 103.1837,31.3469 87.9456,27.8639" stroke="#00007f" stroke-width="2" /><polyline fill="none" points="74.8844,26.9932 72.7075,25.6871 71.8367,19.5918 71.4014,8.7075 82.2857,26.5578" stroke="#00d4ff" stroke-width="2" /><polyline fill="none" points="105.3605,30.9116 119.2925,11.7551 116.6803,22.6395 111.0204,31.7823 110.1497,36.5714" stroke="#ffe500" stroke-width="2" /><polyline fill="none" points="67.483,52.2449 59.2109,50.9388 41.3605,51.3741 27.8639,53.551 12.6259,58.3401 8.7075,61.3878 9.1429,66.6122 14.3673,70.966 21.7687,73.1429 45.7143,73.1429 59.6463,70.5306 79.6735,62.2585 84.898,54.8571" stroke="#7f0000" stroke-width="2" /></svg>