<?xml version="1.0" encoding="utf-8" ?>
<svg baseProfile="tiny" height="128" version="1.2" viewBox="0,0,128,128" width="128" xmlns="http://www.w3.org/2000/svg" xmlns:ev="http://www.w3.org/2001/xml-events" xmlns:xlink="http://www.w3.org/1999/xlink"><defs /><polyline fill="none" points="42.522,28.6373 39.9186,17.3559 40.3525,11.2814 42.522,8.678 45.5593,11.2814 50.3322,26.0339" stroke="#00007f" stroke-width="2" /><polyline fill="none" points="50.7661,26.0339 58.1424,23.8644 68.9898,23.8644 81.5729,26.4678 85.0441,29.0712 87.6475,21.6949 91.9864,16.0542 98.061,14.7525 95.4576,28.2034 101.0983,33.4102 99.7966,47.2949 93.722,54.2373 90.2508,55.9729 75.4983,59.4441 53.3695,59.878 39.9186,57.2746 34.7119,54.6712 31.6746,47.2949 31.6746,36.0136 35.5797,30.3729 40.3525,27.3356 43.3898,27.3356" stroke="#004cff" stroke-width="2" /><polyline fill="none" points="43.3898,32.9763 11.7153,27.7695" stroke="#29ffcd" stroke-width="2" /><polyline fill="none" points="30.3729,39.9186 8.678,44.6915" stroke="#cdff29" stroke-width="2" /><polyline fill="none" points="37.7492,48.5966 11.2814,54.2373" stroke="#ff6700" stroke-width="2" /><polyline fill="none" points="98.4949,34.7119 119.322,35.5797" stroke="#7f0000" stroke-width="2" /></svg>