<?xml version="1.0" encoding="utf-8" ?>
<svg baseProfile="tiny" height="128" version="1.2" viewBox="0,0,128,128" width="128" xmlns="http://www.w3.org/2000/svg" xmlns:ev="http://www.w3.org/2001/xml-events" xmlns:xlink="http://www.w3.org/1999/xlink"><defs /><polyline fill="none" points="8.678,64.6508 20.8271,55.9729 45.5593,43.3898 58.5763,39.4847 85.478,39.9186 91.5525,42.0881 100.6644,49.0305 107.6068,56.4068 114.1153,67.2542 119.322,85.0441 114.5492,98.061 108.4746,103.7017 103.2678,106.739 67.6881,116.2847 52.5017,117.1525 40.7864,114.5492 29.939,108.9085 20.8271,100.6644 14.7525,91.9864 10.8475,79.4034 9.5458,64.6508 15.6203,50.7661" stroke="#00007f" stroke-width="2" /><polyline fill="none" points="28.2034,50.3322 26.9017,46.4271 38.6169,20.8271 42.0881,8.678 49.0305,27.3356 52.0678,44.2576" stroke="#0000f1" stroke-width="2" /><polyline fill="none" points="72.8949,41.2203 72.0271,36.8814 76.8,19.0915 78.5356,14.7525 80.2712,14.3186 82.0068,16.4881 89.8169,38.1831 93.2881,43.8237" stroke="#004cff" stroke-width="2" /><polyline fill="none" points="53.8034,75.4983 33.8441,72.0271 16.922,72.8949 11.2814,75.0644" stroke="#00b0ff" stroke-width="2" /><polyline fill="none" points="46.4271,75.9322 25.6,82.0068 15.6203,86.7797" stroke="#29ffcd" stroke-width="2" /><polyline fill="none" points="45.5593,77.6678 24.2983,92.8542 12.1492,104.1356" stroke="#7cff79" stroke-width="2" /><polyline fill="none" points="69.8576,73.7627 96.3254,67.2542 117.5864,66.3864" stroke="#cdff29" stroke-width="2" /><polyline fill="none" points="67.2542,75.9322 107.6068,82.0068" stroke="#ffc400" stroke-width="2" /><polyline fill="none" points="66.8203,78.1017 100.6644,94.1559" stroke="#ff6700" stroke-width="2" /><polyline fill="none" points="42.522,59.878 42.522,59.4441" stroke="#f10700" stroke-width="2" /><polyline fill="none" points="68.5559,53.3695 68.122,53.8034" stroke="#7f0000" stroke-width="2" /></svg>