<?xml version="1.0" encoding="utf-8" ?>
<svg baseProfile="tiny" height="128" version="1.2" viewBox="0,0,128,128" width="128" xmlns="http://www.w3.org/2000/svg" xmlns:ev="http://www.w3.org/2001/xml-events" xmlns:xlink="http://www.w3.org/1999/xlink"><defs /><polyline fill="none" points="38.1831,34.7119 39.9186,32.1085 46.4271,29.5051 54.6712,27.7695 59.878,28.2034" stroke="#00007f" stroke-width="2" /><polyline fill="none" points="59.4441,25.6 59.878,22.5627 66.3864,16.0542 80.7051,8.678 80.2712,21.261 76.8,27.7695 75.0644,29.0712" stroke="#0000d1" stroke-width="2" /><polyline fill="none" points="33.4102,33.8441 32.1085,27.7695 29.939,25.1661 19.5254,19.5254 16.4881,47.2949 17.3559,59.0102 22.9966,67.2542 28.6373,72.461 39.4847,74.6305 50.7661,74.6305 62.4814,67.2542 72.0271,52.5017 78.1017,38.1831 77.6678,24.7322" stroke="#0010ff" stroke-width="2" /><polyline fill="none" points="29.5051,70.7254 27.7695,71.5932 22.1288,85.9119 19.5254,96.7593 19.0915,109.7763 21.6949,119.322" stroke="#0058ff" stroke-width="2" /><polyline fill="none" points="58.5763,67.2542 64.6508,73.3288 71.1593,88.9492 73.3288,100.2305 72.8949,111.078" stroke="#00a4ff" stroke-width="2" /><polyline fill="none" points="33.4102,42.0881 32.1085,43.8237 33.8441,43.8237 33.8441,41.6542 32.9763,42.0881" stroke="#05ecf1" stroke-width="2" /><polyline fill="none" points="59.878,38.1831 57.2746,39.9186 57.2746,41.6542 60.7458,42.9559 59.4441,40.7864 57.7085,41.6542" stroke="#3fffb7" stroke-width="2" /><polyline fill="none" points="41.6542,54.6712 42.0881,57.7085 43.3898,57.7085 43.8237,56.4068 42.9559,54.6712 42.0881,54.2373 42.0881,55.1051" stroke="#7cff79" stroke-width="2" /><polyline fill="none" points="41.6542,55.9729 42.0881,61.6136 40.3525,62.9153 31.2407,63.7831 29.5051,61.1797" stroke="#b7ff3f" stroke-width="2" /><polyline fill="none" points="43.3898,55.539 43.3898,58.1424 49.8983,62.9153 55.539,62.9153 59.878,60.3119" stroke="#f1fc05" stroke-width="2" /><polyline fill="none" points="62.4814,48.5966 75.0644,44.6915" stroke="#ffb900" stroke-width="2" /><polyline fill="none" points="66.3864,55.1051 77.2339,55.1051" stroke="#ff7300" stroke-width="2" /><polyline fill="none" points="65.9525,59.0102 77.6678,66.3864" stroke="#ff3000" stroke-width="2" /><polyline fill="none" points="26.9017,52.9356 9.9797,52.5017 8.678,53.3695" stroke="#d10000" stroke-width="2" /><polyline fill="none" points="25.1661,59.4441 20.8271,59.4441 14.7525,61.6136 12.1492,64.6508" stroke="#7f0000" stroke-width="2" /></svg>