<?xml version="1.0" encoding="utf-8" ?>
<svg baseProfile="tiny" height="128" version="1.2" viewBox="0,0,128,128" width="128" xmlns="http://www.w3.org/2000/svg" xmlns:ev="http://www.w3.org/2001/xml-events" xmlns:xlink="http://www.w3.org/1999/xlink"><defs /><polyline fill="none" points="62.0475,30.8068 52.5017,22.9966 42.9559,19.0915 32.9763,19.0915 19.0915,25.6 12.1492,33.8441 8.678,44.6915 9.5458,55.9729 13.8847,65.5186 25.1661,72.8949 40.7864,75.4983 54.6712,73.7627 61.1797,71.1593 70.7254,64.2169 76.3661,52.5017 76.3661,32.5424 70.7254,28.2034 57.2746,22.5627" stroke="#00007f" stroke-width="2" /><polyline fill="none" points="20.8271,26.9017 16.922,23.8644 13.4508,14.3186 13.0169,9.1119 15.6203,8.678 34.7119,19.5254" stroke="#0000e8" stroke-width="2" /><polyline fill="none" points="64.2169,27.3356 74.6305,13.4508 76.3661,16.0542 77.2339,30.3729" stroke="#0038ff" stroke-width="2" /><polyline fill="none" points="46.4271,52.0678 44.2576,51.2 42.9559,53.3695 45.9932,51.6339 44.2576,51.2" stroke="#0094ff" stroke-width="2" /><polyline fill="none" points="33.8441,70.2915 33.4102,63.7831 36.4475,69.8576 38.6169,71.5932 40.7864,70.7254 41.6542,66.8203 48.5966,70.7254 52.0678,62.0475" stroke="#0cf4ea" stroke-width="2" /><polyline fill="none" points="57.7085,52.0678 70.7254,47.7288" stroke="#56ffa0" stroke-width="2" /><polyline fill="none" points="59.4441,59.0102 66.8203,55.9729 75.9322,54.6712" stroke="#a0ff56" stroke-width="2" /><polyline fill="none" points="35.5797,48.5966 26.9017,46.4271 17.7898,40.3525" stroke="#eaff0c" stroke-width="2" /><polyline fill="none" points="36.8814,53.8034 26.4678,49.8983 12.5831,49.4644" stroke="#ffaa00" stroke-width="2" /><polyline fill="none" points="39.0508,38.6169 38.6169,36.8814 36.4475,37.3153 36.0136,39.0508 36.4475,41.2203 38.6169,41.6542 36.8814,38.6169" stroke="#ff5500" stroke-width="2" /><polyline fill="none" points="64.2169,36.4475 61.1797,36.0136 56.4068,40.3525" stroke="#e80000" stroke-width="2" /><polyline fill="none" points="78.1017,58.1424 80.2712,56.8407 109.7763,54.2373 114.9831,54.2373 118.4542,56.4068 119.322,60.7458 118.4542,90.6847 115.8508,94.1559 111.9458,93.2881" stroke="#7f0000" stroke-width="2" /></svg>