<?xml version="1.0" encoding="utf-8" ?>
<svg baseProfile="tiny" height="128" version="1.2" viewBox="0,0,128,128" width="128" xmlns="http://www.w3.org/2000/svg" xmlns:ev="http://www.w3.org/2001/xml-events" xmlns:xlink="http://www.w3.org/1999/xlink"><defs /><polyline fill="none" points="33.4102,95.0237 29.939,101.0983" stroke="#00007f" stroke-width="2" /><polyline fill="none" points="36.8814,42.9559 35.5797,29.0712 40.7864,9.9797 48.1627,9.9797 55.1051,33.8441 58.1424,38.6169 69.4237,21.261 84.6102,8.678 86.3458,26.4678 89.8169,29.939" stroke="#0000de" stroke-width="2" /><polyline fill="none" points="45.1254,42.522 36.8814,45.1254 29.5051,53.3695 25.6,67.2542 26.4678,74.1966 37.3153,81.139 47.2949,82.4407 73.3288,80.2712 91.1186,68.122 98.9288,59.4441 103.2678,52.9356 103.7017,45.5593 101.9661,38.6169 98.9288,32.5424 88.9492,27.3356 77.2339,31.2407" stroke="#0028ff" stroke-width="2" /><polyline fill="none" points="49.4644,52.5017 49.4644,52.5017" stroke="#0080ff" stroke-width="2" /><polyline fill="none" points="87.6475,43.3898 87.6475,43.3898" stroke="#00d4ff" stroke-width="2" /><polyline fill="none" points="50.7661,51.6339 49.8983,54.2373" stroke="#36ffc0" stroke-width="2" /><polyline fill="none" points="84.1763,47.7288 84.6102,49.4644" stroke="#7cff79" stroke-width="2" /><polyline fill="none" points="47.2949,61.1797 55.9729,68.9898 75.0644,65.9525 87.2136,58.1424" stroke="#c0ff36" stroke-width="2" /><polyline fill="none" points="48.5966,52.0678 39.0508,58.5763 25.1661,64.2169" stroke="#ffe500" stroke-width="2" /><polyline fill="none" points="34.7119,60.7458 22.1288,64.2169 8.678,73.7627" stroke="#ff9400" stroke-width="2" /><polyline fill="none" points="41.6542,65.5186 37.3153,65.5186 22.1288,73.7627" stroke="#ff4600" stroke-width="2" /><polyline fill="none" points="74.6305,50.7661 105.8712,58.1424 119.322,52.0678" stroke="#de0000" stroke-width="2" /><polyline fill="none" points="78.9695,56.8407 94.5898,66.3864 106.739,71.1593" stroke="#7f0000" stroke-width="2" /></svg>