<?xml version="1.0" encoding="utf-8" ?>
<svg baseProfile="tiny" height="128" version="1.2" viewBox="0,0,128,128" width="128" xmlns="http://www.w3.org/2000/svg" xmlns:ev="http://www.w3.org/2001/xml-events" xmlns:xlink="http://www.w3.org/1999/xlink"><defs /><polyline fill="none" points="78.5356,62.9153 72.461,59.0102 50.3322,56.8407 34.7119,56.8407 20.8271,61.6136 16.922,67.6881 11.2814,84.1763 9.9797,101.0983 12.5831,108.4746 20.8271,114.5492 32.5424,118.0203 53.3695,119.322 78.5356,94.1559 85.478,77.2339 86.7797,70.2915 83.3085,65.0847" stroke="#00007f" stroke-width="2" /><polyline fill="none" points="8.678,60.3119 9.9797,54.2373 9.9797,19.5254 16.0542,20.8271 21.6949,27.7695 27.7695,42.0881 38.6169,55.539 39.9186,60.3119" stroke="#0010ff" stroke-width="2" /><polyline fill="none" points="44.6915,49.4644 62.9153,36.0136 66.3864,29.0712 80.7051,8.678 79.8373,26.9017 86.7797,47.2949 86.7797,53.3695 80.7051,68.9898" stroke="#00a4ff" stroke-width="2" /><polyline fill="none" points="25.6,71.1593 25.6,71.1593" stroke="#3fffb7" stroke-width="2" /><polyline fill="none" points="30.3729,69.8576 30.3729,69.8576" stroke="#b7ff3f" stroke-width="2" /><polyline fill="none" points="38.6169,77.2339 38.6169,77.2339" stroke="#ffb900" stroke-width="2" /><polyline fill="none" points="29.0712,86.7797 29.0712,78.5356 25.6,79.8373" stroke="#ff3000" stroke-width="2" /><polyline fill="none" points="45.9932,77.2339 48.1627,75.9322" stroke="#7f0000" stroke-width="2" /></svg>