<?xml version="1.0" encoding="utf-8" ?>
<svg baseProfile="tiny" height="128" version="1.2" viewBox="0,0,128,128" width="128" xmlns="http://www.w3.org/2000/svg" xmlns:ev="http://www.w3.org/2001/xml-events" xmlns:xlink="http://www.w3.org/1999/xlink"><defs /><polyline fill="none" points="82.0068,42.522 57.2746,46.4271 43.3898,50.7661 42.0881,52.9356 42.0881,59.878 37.7492,69.8576 38.1831,78.1017 42.0881,88.0814" stroke="#00007f" stroke-width="2" /><polyline fill="none" points="42.9559,85.0441 82.0068,88.0814 87.6475,82.4407 92.4203,80.2712 99.7966,68.9898 101.5322,56.8407 100.2305,52.0678 90.2508,42.0881 82.8746,39.0508 76.8,38.1831 60.7458,38.6169" stroke="#0028ff" stroke-width="2" /><polyline fill="none" points="45.9932,88.9492 56.8407,110.6441 61.1797,115.8508 62.9153,113.2475 63.3492,109.7763 62.4814,82.4407" stroke="#00d4ff" stroke-width="2" /><polyline fill="none" points="82.8746,85.478 97.1932,119.322 97.6271,93.2881 95.8915,84.1763 93.2881,78.1017 91.5525,77.6678" stroke="#7cff79" stroke-width="2" /><polyline fill="none" points="42.9559,48.1627 33.4102,44.2576 27.7695,39.9186 27.3356,37.7492 35.1458,31.6746 43.8237,28.2034 55.1051,26.4678 67.6881,29.939 73.7627,35.5797 74.6305,42.9559 73.7627,49.8983 70.7254,55.1051 65.0847,59.878 52.9356,65.5186 42.0881,66.8203 31.2407,65.5186 22.9966,62.9153 8.678,51.6339 9.1119,46.861" stroke="#ffe500" stroke-width="2" /><polyline fill="none" points="33.4102,32.1085 39.9186,14.3186 44.6915,8.678 45.9932,11.2814 45.9932,29.5051" stroke="#ff4600" stroke-width="2" /><polyline fill="none" points="65.0847,27.7695 68.9898,23.4305 83.7424,13.4508 62.4814,33.4102" stroke="#7f0000" stroke-width="2" /></svg>