<?xml version="1.0" encoding="utf-8" ?>
<svg baseProfile="tiny" height="128" version="1.2" viewBox="0,0,128,128" width="128" xmlns="http://www.w3.org/2000/svg" xmlns:ev="http://www.w3.org/2001/xml-events" xmlns:xlink="http://www.w3.org/1999/xlink"><defs /><polyline fill="none" points="69.8576,35.1458 67.2542,36.0136 46.4271,51.6339 33.4102,70.2915 31.2407,76.3661 31.2407,80.7051 33.4102,84.1763 39.4847,88.5153 49.4644,90.2508 59.0102,89.3831 68.9898,79.8373 82.4407,61.1797 85.478,50.3322 85.478,38.6169 83.7424,36.0136 77.2339,36.4475 53.3695,43.3898" stroke="#00007f" stroke-width="2" /><polyline fill="none" points="80.7051,65.5186 88.5153,57.2746 111.9458,52.5017 114.5492,49.8983 119.322,49.8983" stroke="#0000de" stroke-width="2" /><polyline fill="none" points="69.8576,71.5932 118.0203,71.5932" stroke="#0028ff" stroke-width="2" /><polyline fill="none" points="65.5186,78.9695 65.5186,83.7424 68.9898,87.2136 75.0644,88.9492 90.6847,88.9492" stroke="#0080ff" stroke-width="2" /><polyline fill="none" points="42.0881,51.2 42.0881,44.2576 36.8814,36.0136 22.5627,23.4305" stroke="#00d4ff" stroke-width="2" /><polyline fill="none" points="39.9186,68.5559 8.678,37.7492" stroke="#36ffc0" stroke-width="2" /><polyline fill="none" points="25.6,67.6881 19.5254,67.2542 9.9797,64.2169" stroke="#7cff79" stroke-width="2" /><polyline fill="none" points="66.3864,60.7458 58.5763,60.3119 57.2746,62.4814 57.2746,64.6508 59.878,67.2542 64.6508,66.8203 65.5186,59.0102 55.9729,59.4441 55.9729,63.3492" stroke="#c0ff36" stroke-width="2" /><polyline fill="none" points="55.539,65.0847 55.1051,68.122 47.2949,79.4034 42.9559,82.4407 40.3525,82.0068 34.7119,70.7254" stroke="#ffe500" stroke-width="2" /><polyline fill="none" points="49.4644,82.4407 67.6881,81.139 74.6305,76.3661" stroke="#ff9400" stroke-width="2" /><polyline fill="none" points="66.3864,43.8237 65.0847,47.2949" stroke="#ff4600" stroke-width="2" /><polyline fill="none" points="78.9695,49.8983 78.9695,49.8983" stroke="#de0000" stroke-width="2" /><polyline fill="none" points="57.7085,35.1458 63.7831,29.939 68.122,14.7525 77.2339,8.678 78.5356,13.0169 78.5356,39.9186 83.3085,31.2407 88.9492,26.0339 93.2881,19.9593 97.6271,18.6576 96.3254,36.0136 93.2881,40.7864" stroke="#7f0000" stroke-width="2" /></svg>