<?xml version="1.0" encoding="utf-8" ?>
<svg baseProfile="tiny" height="128" version="1.2" viewBox="0,0,128,128" width="128" xmlns="http://www.w3.org/2000/svg" xmlns:ev="http://www.w3.org/2001/xml-events" xmlns:xlink="http://www.w3.org/1999/xlink"><defs /><polyline fill="none" points="89.6871,60.9524 75.3197,45.7143 62.6939,42.6667 53.551,43.102 45.2789,45.7143 38.3129,50.068 33.0884,55.2925 27.8639,64.8707 26.1224,72.7075 26.5578,84.0272 31.3469,95.7823 36.5714,101.4422 43.9728,106.6667 53.1156,109.7143 67.9184,110.1497 80.9796,107.9728 91.4286,102.7483 96.6531,97.0884 103.1837,87.0748 106.6667,76.6259 106.6667,64.8707 102.3129,56.1633 96.6531,51.8095" stroke="#00007f" stroke-width="2" /><polyline fill="none" points="72.2721,44.4082 84.898,35.7007 94.0408,25.2517 102.7483,10.8844 108.4082,8.7075 113.1973,9.1429 115.3741,14.3673 117.1156,26.1224 119.2925,64.4354 117.1156,74.449 114.9388,76.6259 111.0204,77.4966" stroke="#0000c8" stroke-width="2" /><polyline fill="none" points="50.068,43.102 40.0544,40.4898 25.6871,23.0748 20.0272,14.3673 16.1088,11.3197 14.3673,11.3197 11.7551,26.5578 10.8844,51.8095 14.8027,65.3061 22.2041,75.3197 23.9456,76.6259 23.0748,72.7075" stroke="#0000ff" stroke-width="2" /><polyline fill="none" points="34.3946,48.7619 27.8639,43.9728 18.2857,31.3469 17.415,33.0884 14.8027,47.4558 14.8027,56.5986 18.7211,70.0952 20.0272,72.2721 20.898,71.4014" stroke="#0040ff" stroke-width="2" /><polyline fill="none" points="79.2381,50.068 90.1224,42.6667 104.9252,27.4286 107.9728,47.4558 106.6667,66.6122" stroke="#0080ff" stroke-width="2" /><polyline fill="none" points="64.8707,74.0136 56.5986,73.1429 53.1156,77.4966 53.1156,79.2381 55.7279,80.1088 60.0816,80.1088 67.9184,77.0612 67.483,73.5782 59.2109,73.5782" stroke="#00c0ff" stroke-width="2" /><polyline fill="none" points="58.3401,78.3673 58.3401,85.7687 52.6803,93.1701 51.3741,96.6531 52.6803,95.7823" stroke="#15ffe1" stroke-width="2" /><polyline fill="none" points="58.7755,86.6395 62.6939,96.6531 65.7415,100.1361 67.0476,99.7007 65.7415,96.2177" stroke="#49ffad" stroke-width="2" /><polyline fill="none" points="47.0204,61.8231 47.8912,57.4694 46.1497,58.7755 46.1497,61.8231 47.4558,63.1293 48.7619,59.2109 47.0204,58.7755 47.0204,60.517" stroke="#7cff79" stroke-width="2" /><polyline fill="none" points="72.2721,58.3401 73.1429,62.2585 73.5782,59.2109 75.3197,61.8231" stroke="#b0ff46" stroke-width="2" /><polyline fill="none" points="80.9796,80.9796 91.4286,82.2857 115.8095,79.2381" stroke="#e4ff12" stroke-width="2" /><polyline fill="none" points="82.7211,87.5102 104.9252,96.6531 107.9728,97.9592 104.4898,97.9592" stroke="#ffcf00" stroke-width="2" /><polyline fill="none" points="73.5782,92.2993 89.2517,111.0204" stroke="#ff9400" stroke-width="2" /><polyline fill="none" points="37.8776,76.1905 30.0408,70.966 8.7075,61.8231" stroke="#ff5900" stroke-width="2" /><polyline fill="none" points="41.7959,86.6395 10.8844,85.3333 9.1429,87.0748" stroke="#ff1d00" stroke-width="2" /><polyline fill="none" points="40.9252,91.8639 23.5102,104.9252 13.932,107.5374" stroke="#c30000" stroke-width="2" /><polyline fill="none" points="44.8435,40.9252 50.068,37.8776 55.2925,29.6054 59.6463,34.3946 62.2585,27.8639 66.1769,38.3129 69.2245,33.0884 73.1429,32.2177 77.4966,46.585" stroke="#7f0000" stroke-width="2" /></svg>