<?xml version="1.0" encoding="utf-8" ?>
<svg baseProfile="tiny" height="128" version="1.2" viewBox="0,0,128,128" width="128" xmlns="http://www.w3.org/2000/svg" xmlns:ev="http://www.w3.org/2001/xml-events" xmlns:xlink="http://www.w3.org/1999/xlink"><defs /><polyline fill="none" points="94.5898,43.8237 93.722,21.6949 89.3831,8.678 85.478,13.8847 78.9695,36.0136 76.3661,37.7492 59.4441,36.4475 50.7661,40.7864 49.8983,36.4475 49.8983,13.0169 48.5966,9.9797 45.9932,8.678 37.7492,21.6949 34.7119,41.2203" stroke="#00007f" stroke-width="2" /><polyline fill="none" points="40.3525,28.6373 41.6542,32.1085 41.6542,40.7864 39.9186,53.3695 39.4847,78.1017 39.9186,81.139 48.5966,86.3458 58.1424,88.0814 71.1593,88.0814 82.4407,81.139 93.722,67.2542 95.4576,62.0475 95.4576,48.1627 92.4203,41.2203" stroke="#0010ff" stroke-width="2" /><polyline fill="none" points="72.8949,62.0475 105.0034,57.7085 119.322,54.6712" stroke="#00a4ff" stroke-width="2" /><polyline fill="none" points="75.4983,65.5186 111.5119,81.5729" stroke="#3fffb7" stroke-width="2" /><polyline fill="none" points="70.7254,72.461 86.7797,86.3458 101.5322,94.5898" stroke="#b7ff3f" stroke-width="2" /><polyline fill="none" points="56.4068,62.9153 52.0678,60.7458 38.1831,60.7458 27.7695,64.2169 8.678,66.8203" stroke="#ffb900" stroke-width="2" /><polyline fill="none" points="55.1051,69.4237 31.2407,79.8373 21.6949,85.0441 17.7898,89.8169" stroke="#ff3000" stroke-width="2" /><polyline fill="none" points="65.9525,57.2746 60.3119,59.878" stroke="#7f0000" stroke-width="2" /></svg>