<?xml version="1.0" encoding="utf-8" ?>
<svg baseProfile="tiny" height="128" version="1.2" viewBox="0,0,128,128" width="128" xmlns="http://www.w3.org/2000/svg" xmlns:ev="http://www.w3.org/2001/xml-events" xmlns:xlink="http://www.w3.org/1999/xlink"><defs /><polyline fill="none" points="84.1763,25.1661 88.5153,28.2034 95.8915,38.6169 98.061,48.5966 97.6271,57.2746 92.8542,68.5559 87.6475,75.0644 71.5932,83.7424 63.3492,85.0441 49.4644,83.3085 41.6542,75.9322 38.6169,70.2915 36.4475,60.3119 37.3153,44.6915 42.522,35.5797 53.8034,26.4678 63.7831,23.8644 78.9695,25.6" stroke="#00007f" stroke-width="2" /><polyline fill="none" points="62.4814,61.6136 64.6508,67.2542 62.0475,69.8576 59.0102,69.4237 56.4068,66.8203 55.1051,63.7831 56.4068,61.1797" stroke="#0000e8" stroke-width="2" /><polyline fill="none" points="76.8,39.9186 83.7424,44.2576 85.0441,51.2 81.139,53.8034 78.9695,52.9356 75.0644,46.4271" stroke="#0038ff" stroke-width="2" /><polyline fill="none" points="43.3898,47.2949 50.7661,41.6542 51.2,44.6915 49.8983,47.2949 45.9932,50.3322 42.522,50.7661 39.9186,49.0305 39.4847,46.4271 42.0881,40.3525" stroke="#0094ff" stroke-width="2" /><polyline fill="none" points="82.8746,70.7254 93.722,65.9525 105.8712,66.8203" stroke="#0cf4ea" stroke-width="2" /><polyline fill="none" points="70.7254,75.9322 84.1763,80.7051 95.0237,87.2136" stroke="#56ffa0" stroke-width="2" /><polyline fill="none" points="75.4983,91.1186 79.8373,101.0983" stroke="#a0ff56" stroke-width="2" /><polyline fill="none" points="46.4271,65.0847 17.3559,65.5186 8.678,67.6881" stroke="#eaff0c" stroke-width="2" /><polyline fill="none" points="37.3153,77.2339 26.0339,80.7051 11.7153,86.7797" stroke="#ffaa00" stroke-width="2" /><polyline fill="none" points="42.0881,86.3458 35.1458,88.0814 9.5458,98.9288" stroke="#ff5500" stroke-width="2" /><polyline fill="none" points="89.3831,31.2407 102.8339,23.8644 119.322,20.3932 117.1525,33.4102 106.3051,53.3695" stroke="#e80000" stroke-width="2" /><polyline fill="none" points="51.6339,25.6 35.5797,13.8847 26.0339,8.678 27.3356,27.3356" stroke="#7f0000" stroke-width="2" /></svg>