<?xml version="1.0" encoding="utf-8" ?>
<svg baseProfile="tiny" height="128" version="1.2" viewBox="0,0,128,128" width="128" xmlns="http://www.w3.org/2000/svg" xmlns:ev="http://www.w3.org/2001/xml-events" xmlns:xlink="http://www.w3.org/1999/xlink"><defs /><polyline fill="none" points="72.461,41.6542 62.0475,38.6169 49.0305,39.9186 29.5051,47.7288 18.6576,56.8407 10.4136,69.8576 8.678,83.3085 10.8475,95.8915 19.9593,107.6068 38.6169,117.5864 45.5593,119.322 54.6712,119.322 65.9525,116.7186 78.1017,111.078 90.6847,101.9661 100.2305,91.9864 105.8712,81.5729 108.0407,67.2542 107.6068,61.1797 102.8339,49.8983 99.3627,45.1254 91.5525,37.7492 77.2339,36.0136 67.2542,38.6169" stroke="#00007f" stroke-width="2" /><polyline fill="none" points="23.4305,47.7288 19.5254,23.8644 20.3932,10.8475 56.8407,39.0508" stroke="#0080ff" stroke-width="2" /><polyline fill="none" points="84.1763,35.1458 105.8712,24.7322 112.3797,19.5254 114.1153,16.4881 116.2847,8.678 117.5864,13.8847 114.9831,23.8644 107.1729,36.8814 103.2678,47.2949" stroke="#7cff79" stroke-width="2" /><polyline fill="none" points="95.4576,42.0881 100.2305,34.7119 98.061,41.2203" stroke="#ff9400" stroke-width="2" /><polyline fill="none" points="33.8441,42.522 33.8441,32.5424" stroke="#7f0000" stroke-width="2" /></svg>