<?xml version="1.0" encoding="utf-8" ?>
<svg baseProfile="tiny" height="128" version="1.2" viewBox="0,0,128,128" width="128" xmlns="http://www.w3.org/2000/svg" xmlns:ev="http://www.w3.org/2001/xml-events" xmlns:xlink="http://www.w3.org/1999/xlink"><defs /><polyline fill="none" points="32.9763,37.3153 58.5763,28.6373 74.6305,27.7695 77.2339,28.6373 87.6475,16.0542 97.1932,8.678 98.9288,18.2237 98.9288,34.7119" stroke="#00007f" stroke-width="2" /><polyline fill="none" points="34.7119,40.3525 32.9763,36.0136 24.2983,24.7322 17.7898,17.7898 16.4881,20.3932 19.0915,50.7661 16.4881,62.4814 16.4881,77.2339 17.3559,82.8746 21.261,89.3831 33.4102,102.8339 52.0678,109.3424 61.1797,109.7763 67.2542,108.4746 79.8373,101.5322 90.6847,89.8169 96.3254,81.139 101.5322,70.7254 104.1356,58.1424 104.5695,43.3898 99.7966,39.4847" stroke="#0000ff" stroke-width="2" /><polyline fill="none" points="63.3492,82.8746 59.878,80.2712 55.9729,80.7051 55.1051,85.478 61.6136,85.0441 62.4814,82.4407 61.6136,78.9695 55.539,76.8" stroke="#0080ff" stroke-width="2" /><polyline fill="none" points="47.7288,68.122 37.7492,66.8203 8.678,57.7085" stroke="#15ffe1" stroke-width="2" /><polyline fill="none" points="41.6542,75.4983 35.5797,78.5356 25.6,80.2712 17.7898,85.9119" stroke="#7cff79" stroke-width="2" /><polyline fill="none" points="49.0305,77.2339 45.1254,80.2712 36.8814,95.4576 31.2407,103.7017" stroke="#e4ff12" stroke-width="2" /><polyline fill="none" points="78.5356,64.6508 103.2678,52.9356 119.322,49.0305" stroke="#ff9400" stroke-width="2" /><polyline fill="none" points="79.4034,79.8373 83.3085,78.5356 99.7966,78.5356 110.2102,80.2712" stroke="#ff1d00" stroke-width="2" /><polyline fill="none" points="78.5356,90.2508 90.2508,91.9864 106.739,99.3627" stroke="#7f0000" stroke-width="2" /></svg>