<?xml version="1.0" encoding="utf-8" ?>
<svg baseProfile="tiny" height="128" version="1.2" viewBox="0,0,128,128" width="128" xmlns="http://www.w3.org/2000/svg" xmlns:ev="http://www.w3.org/2001/xml-events" xmlns:xlink="http://www.w3.org/1999/xlink"><defs /><polyline fill="none" points="51.2,23.8644 46.4271,31.2407 43.3898,49.0305 44.2576,67.2542 47.7288,72.461 59.878,78.5356 74.6305,79.4034 81.139,77.6678 90.2508,67.6881 92.8542,59.878 92.8542,39.4847 90.2508,34.7119 83.7424,28.2034 72.8949,26.4678 49.0305,26.9017 37.3153,16.4881 32.1085,13.8847 31.2407,20.8271 33.8441,27.7695 40.3525,43.8237 42.0881,43.8237" stroke="#00007f" stroke-width="2" /><polyline fill="none" points="67.6881,29.939 76.3661,16.922 83.7424,8.678 86.7797,30.3729" stroke="#004cff" stroke-width="2" /><polyline fill="none" points="86.7797,52.0678 105.8712,41.6542 119.322,38.6169" stroke="#29ffcd" stroke-width="2" /><polyline fill="none" points="85.478,58.5763 97.1932,57.2746 117.1525,62.0475" stroke="#cdff29" stroke-width="2" /><polyline fill="none" points="53.8034,51.6339 40.3525,51.6339 31.2407,53.3695 8.678,62.0475" stroke="#ff6700" stroke-width="2" /><polyline fill="none" points="57.2746,59.4441 42.9559,65.9525 35.5797,72.461 22.5627,88.9492" stroke="#7f0000" stroke-width="2" /></svg>