<?xml version="1.0" encoding="utf-8" ?>
<svg baseProfile="tiny" height="128" version="1.2" viewBox="0,0,128,128" width="128" xmlns="http://www.w3.org/2000/svg" xmlns:ev="http://www.w3.org/2001/xml-events" xmlns:xlink="http://www.w3.org/1999/xlink"><defs /><polyline fill="none" points="26.0339,96.3254 23.8644,87.2136 24.7322,82.8746 30.8068,69.4237 36.8814,60.7458 49.0305,50.7661 65.9525,45.1254 78.9695,45.5593 94.1559,52.5017 105.4373,63.7831 111.5119,75.9322 111.5119,91.9864 107.6068,101.0983 99.7966,108.4746 87.2136,114.5492 70.2915,118.4542 52.5017,119.322 44.6915,118.0203 35.5797,113.2475 31.2407,108.9085" stroke="#00007f" stroke-width="2" /><polyline fill="none" points="25.6,92.8542 19.5254,63.7831 11.2814,42.0881 8.678,26.4678 10.8475,25.6 19.9593,33.4102 42.522,46.861" stroke="#0000e8" stroke-width="2" /><polyline fill="none" points="91.1186,48.1627 91.1186,39.4847 95.8915,29.0712 106.739,11.7153 109.3424,8.678 111.078,8.678 114.5492,55.1051 112.8136,80.7051 110.2102,86.7797" stroke="#0038ff" stroke-width="2" /><polyline fill="none" points="45.9932,72.0271 45.9932,72.0271" stroke="#0094ff" stroke-width="2" /><polyline fill="none" points="91.1186,69.8576 91.1186,69.8576" stroke="#0cf4ea" stroke-width="2" /><polyline fill="none" points="49.8983,68.9898 52.5017,68.5559 53.3695,69.8576 50.3322,72.0271 51.2,68.9898 51.6339,71.1593" stroke="#56ffa0" stroke-width="2" /><polyline fill="none" points="91.5525,73.7627 88.9492,68.5559 90.6847,68.5559 89.3831,69.8576 85.9119,68.9898 88.9492,67.6881 91.1186,71.1593" stroke="#a0ff56" stroke-width="2" /><polyline fill="none" points="65.5186,89.3831 69.4237,86.7797 70.7254,86.7797 70.2915,88.0814 68.5559,89.3831 68.122,88.0814" stroke="#eaff0c" stroke-width="2" /><polyline fill="none" points="59.878,89.8169 60.7458,91.5525 58.1424,94.1559 47.7288,98.4949 42.522,99.7966 40.7864,99.7966 42.522,98.9288" stroke="#ffaa00" stroke-width="2" /><polyline fill="none" points="62.0475,95.4576 54.2373,105.0034 49.8983,107.1729 45.5593,107.1729 45.1254,105.0034" stroke="#ff5500" stroke-width="2" /><polyline fill="none" points="85.0441,90.6847 103.7017,83.3085" stroke="#e80000" stroke-width="2" /><polyline fill="none" points="83.7424,95.0237 105.4373,92.8542" stroke="#7f0000" stroke-width="2" /></svg>