<?xml version="1.0" encoding="utf-8" ?>
<svg baseProfile="tiny" height="128" version="1.2" viewBox="0,0,128,128" width="128" xmlns="http://www.w3.org/2000/svg" xmlns:ev="http://www.w3.org/2001/xml-events" xmlns:xlink="http://www.w3.org/1999/xlink"><defs /><polyline fill="none" points="25.1661,42.522 23.8644,34.7119 24.7322,16.4881 26.4678,16.4881 37.7492,29.939 48.1627,24.7322 61.6136,22.5627 70.7254,23.4305 84.6102,28.6373 89.8169,23.4305 99.7966,8.678 101.9661,11.2814 103.2678,19.0915 101.9661,32.1085" stroke="#00007f" stroke-width="2" /><polyline fill="none" points="26.9017,42.522 25.6,55.539 26.4678,62.9153 34.7119,80.7051 52.9356,94.5898 66.8203,96.3254 75.0644,94.5898 84.1763,90.6847 91.5525,85.0441 95.8915,79.4034 102.4,65.0847 105.0034,56.4068 103.2678,40.3525 100.2305,35.1458" stroke="#0000ff" stroke-width="2" /><polyline fill="none" points="65.5186,61.1797 62.4814,63.3492 63.3492,65.5186 65.5186,66.8203 68.5559,63.3492 67.2542,61.6136 65.0847,62.4814 63.7831,69.4237 61.1797,73.7627 55.539,78.9695 49.0305,79.8373" stroke="#0080ff" stroke-width="2" /><polyline fill="none" points="68.5559,65.0847 71.5932,72.0271 74.6305,75.0644 81.5729,75.9322 86.7797,72.8949" stroke="#15ffe1" stroke-width="2" /><polyline fill="none" points="40.7864,68.5559 32.9763,70.2915 21.261,75.9322 12.5831,82.4407 8.678,88.9492" stroke="#7cff79" stroke-width="2" /><polyline fill="none" points="42.0881,77.2339 31.2407,82.0068 15.6203,95.4576 16.922,96.7593" stroke="#e4ff12" stroke-width="2" /><polyline fill="none" points="93.722,74.6305 114.9831,86.7797 119.322,91.9864" stroke="#ff9400" stroke-width="2" /><polyline fill="none" points="98.9288,65.5186 117.1525,76.8 117.5864,78.9695 116.2847,78.9695" stroke="#ff1d00" stroke-width="2" /><polyline fill="none" points="47.7288,50.7661 49.0305,52.0678" stroke="#7f0000" stroke-width="2" /></svg>