<?xml version="1.0" encoding="utf-8" ?>
<svg baseProfile="tiny" height="128" version="1.2" viewBox="0,0,128,128" width="128" xmlns="http://www.w3.org/2000/svg" xmlns:ev="http://www.w3.org/2001/xml-events" xmlns:xlink="http://www.w3.org/1999/xlink"><defs /><polyline fill="none" points="52.2449,36.5714 39.619,35.2653 26.5578,36.1361 12.6259,50.068 8.7075,57.9048 17.415,103.619 21.7687,110.585 31.7823,119.2925 45.2789,119.2925 77.932,107.9728 79.6735,102.7483 82.7211,81.415 82.2857,74.449 79.2381,66.1769 69.2245,49.1973 55.2925,42.6667 38.7483,31.7823" stroke="#00007f" stroke-width="2" /><polyline fill="none" points="21.3333,49.1973 16.1088,42.2313 11.7551,21.7687 38.3129,46.585 43.5374,49.1973" stroke="#004cff" stroke-width="2" /><polyline fill="none" points="51.8095,40.4898 56.5986,37.8776 80.1088,20.0272 85.3333,8.7075 80.5442,33.0884 64.8707,65.7415" stroke="#29ffcd" stroke-width="2" /><polyline fill="none" points="50.068,84.4626 39.619,84.898 42.2313,87.5102 50.068,89.2517 51.3741,88.8163 51.8095,86.2041 49.1973,85.3333" stroke="#cdff29" stroke-width="2" /><polyline fill="none" points="47.0204,87.0748 47.0204,101.4422 43.9728,111.0204 32.6531,105.3605" stroke="#ff6700" stroke-width="2" /><polyline fill="none" points="46.585,90.5578 49.6327,102.3129 54.8571,101.8776 60.517,95.7823" stroke="#7f0000" stroke-width="2" /></svg>