<?xml version="1.0" encoding="utf-8" ?>
<svg baseProfile="tiny" height="128" version="1.2" viewBox="0,0,128,128" width="128" xmlns="http://www.w3.org/2000/svg" xmlns:ev="http://www.w3.org/2001/xml-events" xmlns:xlink="http://www.w3.org/1999/xlink"><defs /><polyline fill="none" points="22.1288,41.2203 20.3932,50.7661 20.3932,60.7458 22.9966,65.5186 26.4678,68.122 42.0881,69.8576 45.5593,62.0475 48.1627,51.6339 48.1627,39.9186 45.1254,29.939 30.8068,30.3729 20.8271,40.3525 19.0915,45.5593 21.261,44.6915" stroke="#00007f" stroke-width="2" /><polyline fill="none" points="22.9966,40.7864 19.0915,40.3525 16.0542,26.0339 8.678,8.678 10.8475,9.1119 34.278,28.6373 39.4847,31.6746 40.3525,29.5051" stroke="#0000cc" stroke-width="2" /><polyline fill="none" points="42.9559,28.2034 49.8983,9.9797 53.3695,39.0508 48.1627,47.2949" stroke="#0008ff" stroke-width="2" /><polyline fill="none" points="28.2034,68.5559 62.0475,94.1559 71.5932,94.1559 101.0983,99.7966 103.7017,98.4949 105.8712,93.722 106.3051,85.0441 101.0983,78.1017 85.0441,74.1966 66.3864,73.3288 45.9932,64.6508" stroke="#004cff" stroke-width="2" /><polyline fill="none" points="39.4847,79.8373 38.1831,94.5898 44.6915,90.6847" stroke="#0090ff" stroke-width="2" /><polyline fill="none" points="55.9729,88.5153 55.9729,92.8542" stroke="#00d4ff" stroke-width="2" /><polyline fill="none" points="78.5356,93.722 78.5356,108.9085 80.7051,109.3424 83.7424,103.7017" stroke="#29ffcd" stroke-width="2" /><polyline fill="none" points="101.0983,98.9288 101.0983,102.8339 102.8339,102.4" stroke="#5fff96" stroke-width="2" /><polyline fill="none" points="106.3051,91.1186 111.5119,89.8169 116.7186,86.7797 118.8881,85.9119 119.322,82.4407" stroke="#96ff5f" stroke-width="2" /><polyline fill="none" points="24.2983,42.0881 26.4678,45.1254 42.0881,49.8983" stroke="#cdff29" stroke-width="2" /><polyline fill="none" points="47.7288,49.0305 46.861,48.5966" stroke="#ffe500" stroke-width="2" /><polyline fill="none" points="39.4847,40.7864 39.0508,41.6542" stroke="#ffa600" stroke-width="2" /><polyline fill="none" points="28.2034,42.522 29.0712,42.522" stroke="#ff6700" stroke-width="2" /><polyline fill="none" points="30.3729,52.5017 29.939,58.1424 33.4102,58.5763 34.278,53.3695 31.2407,51.2" stroke="#ff2800" stroke-width="2" /><polyline fill="none" points="32.1085,59.0102 24.2983,59.0102 19.5254,56.8407 16.4881,52.5017 20.8271,52.0678" stroke="#cc0000" stroke-width="2" /><polyline fill="none" points="42.0881,61.1797 46.861,60.3119 55.9729,49.0305" stroke="#7f0000" stroke-width="2" /></svg>