<?xml version="1.0" encoding="utf-8" ?>
<svg baseProfile="tiny" height="128" version="1.2" viewBox="0,0,128,128" width="128" xmlns="http://www.w3.org/2000/svg" xmlns:ev="http://www.w3.org/2001/xml-events" xmlns:xlink="http://www.w3.org/1999/xlink"><defs /><polyline fill="none" points="20.3932,47.2949 18.6576,53.3695 19.5254,61.1797 24.2983,73.7627 27.3356,77.6678 37.7492,83.3085 45.5593,83.7424 53.3695,82.0068 62.4814,75.9322 67.2542,68.5559 68.5559,54.2373 67.2542,43.8237 71.5932,34.7119 73.7627,23.4305 73.3288,14.7525 70.2915,8.678 67.2542,9.5458 63.7831,14.7525 55.539,31.6746 41.2203,32.9763 34.278,38.1831 24.2983,26.4678 16.0542,22.5627 8.678,21.6949 8.678,26.4678 10.4136,29.0712 25.1661,45.1254" stroke="#00007f" stroke-width="2" /><polyline fill="none" points="33.8441,49.0305 33.8441,49.4644" stroke="#0000e8" stroke-width="2" /><polyline fill="none" points="52.5017,51.2 52.0678,51.2" stroke="#0038ff" stroke-width="2" /><polyline fill="none" points="41.6542,60.3119 39.9186,64.6508 40.3525,70.2915 43.8237,73.7627 46.861,74.1966 51.2,70.2915 50.3322,65.0847 48.1627,62.9153" stroke="#0094ff" stroke-width="2" /><polyline fill="none" points="43.3898,75.9322 43.8237,80.7051 40.7864,81.139 33.4102,77.6678 32.9763,74.1966" stroke="#0cf4ea" stroke-width="2" /><polyline fill="none" points="45.5593,75.4983 57.2746,82.4407 59.4441,81.5729 64.2169,72.461" stroke="#56ffa0" stroke-width="2" /><polyline fill="none" points="61.6136,81.139 91.5525,81.139 103.7017,83.7424 112.3797,90.6847 110.6441,97.1932 102.8339,101.9661 89.3831,101.0983 77.6678,96.7593 56.8407,85.478" stroke="#a0ff56" stroke-width="2" /><polyline fill="none" points="104.5695,88.0814 99.7966,78.1017 97.6271,68.9898 104.5695,65.0847 113.2475,57.2746 117.1525,57.2746 119.322,72.0271 118.4542,76.8 110.2102,84.6102" stroke="#eaff0c" stroke-width="2" /><polyline fill="none" points="66.3864,95.8915 62.0475,113.2475" stroke="#ffaa00" stroke-width="2" /><polyline fill="none" points="84.1763,100.2305 78.1017,113.2475" stroke="#ff5500" stroke-width="2" /><polyline fill="none" points="98.4949,99.3627 107.1729,117.1525" stroke="#e80000" stroke-width="2" /><polyline fill="none" points="113.2475,95.4576 114.1153,103.2678 118.8881,111.9458" stroke="#7f0000" stroke-width="2" /></svg>