<?xml version="1.0" encoding="utf-8" ?>
<svg baseProfile="tiny" height="128" version="1.2" viewBox="0,0,128,128" width="128" xmlns="http://www.w3.org/2000/svg" xmlns:ev="http://www.w3.org/2001/xml-events" xmlns:xlink="http://www.w3.org/1999/xlink"><defs /><polyline fill="none" points="10.4136,66.8203 8.678,61.1797 8.678,24.7322 23.8644,40.3525 25.1661,44.2576 30.3729,46.861 59.4441,46.861 62.9153,42.522 64.6508,20.8271 66.8203,8.678 70.2915,18.2237 71.1593,26.0339 77.6678,39.9186 78.5356,57.2746 75.9322,71.1593 66.8203,93.722 64.2169,103.7017 56.4068,112.3797 42.522,119.322 38.6169,118.8881 23.4305,95.8915 14.3186,76.8 11.2814,60.3119" stroke="#00007f" stroke-width="2" /><polyline fill="none" points="39.4847,75.0644 39.4847,71.1593 34.278,72.461 31.2407,67.6881 35.5797,64.2169 43.8237,64.2169 54.6712,66.3864 75.9322,76.8 84.1763,79.4034" stroke="#00d4ff" stroke-width="2" /><polyline fill="none" points="42.9559,70.2915 51.2,73.7627 78.5356,91.1186 88.5153,95.8915 93.722,96.7593" stroke="#ffe500" stroke-width="2" /><polyline fill="none" points="40.3525,67.6881 36.0136,68.5559 21.261,77.6678 13.8847,84.1763" stroke="#7f0000" stroke-width="2" /></svg>