<?xml version="1.0" encoding="utf-8" ?>
<svg baseProfile="tiny" height="128" version="1.2" viewBox="0,0,128,128" width="128" xmlns="http://www.w3.org/2000/svg" xmlns:ev="http://www.w3.org/2001/xml-events" xmlns:xlink="http://www.w3.org/1999/xlink"><defs /><polyline fill="none" points="38.7483,60.0816 34.3946,48.3265 31.7823,33.5238 34.3946,26.9932 38.7483,21.7687 53.551,11.3197 55.2925,11.7551 61.8231,19.1565 71.8367,31.7823 74.449,43.9728 71.8367,52.6803 70.5306,53.551" stroke="#00007f" stroke-width="2" /><polyline fill="none" points="40.9252,27.4286 44.8435,32.2177 44.4082,35.7007 40.0544,36.1361 38.7483,34.8299 37.8776,30.0408 40.0544,27.8639" stroke="#0000f1" stroke-width="2" /><polyline fill="none" points="55.7279,37.0068 56.5986,31.3469 62.2585,27.8639 64.0,29.6054 64.8707,33.5238 60.9524,38.3129 58.3401,37.8776" stroke="#004cff" stroke-width="2" /><polyline fill="none" points="33.9592,23.5102 30.9116,10.0136 32.2177,8.7075 40.4898,15.2381 44.8435,16.5442" stroke="#00b0ff" stroke-width="2" /><polyline fill="none" points="65.3061,19.1565 77.0612,14.3673 77.4966,17.415 73.5782,30.0408 71.8367,31.3469" stroke="#29ffcd" stroke-width="2" /><polyline fill="none" points="47.8912,40.4898 50.9388,40.4898 52.2449,42.2313 50.068,45.2789 48.3265,45.7143 44.8435,39.619" stroke="#7cff79" stroke-width="2" /><polyline fill="none" points="40.0544,47.4558 24.381,47.0204 8.7075,49.6327" stroke="#cdff29" stroke-width="2" /><polyline fill="none" points="38.3129,50.9388 19.5918,56.5986 11.3197,61.8231" stroke="#ffc400" stroke-width="2" /><polyline fill="none" points="35.7007,43.5374 20.4626,38.7483 10.449,38.3129" stroke="#ff6700" stroke-width="2" /><polyline fill="none" points="63.1293,44.8435 92.2993,35.2653 99.2653,35.2653 105.3605,38.7483" stroke="#f10700" stroke-width="2" /><polyline fill="none" points="70.5306,48.7619 119.2925,46.585" stroke="#7f0000" stroke-width="2" /></svg>