<?xml version="1.0" encoding="utf-8" ?>
<svg baseProfile="tiny" height="128" version="1.2" viewBox="0,0,128,128" width="128" xmlns="http://www.w3.org/2000/svg" xmlns:ev="http://www.w3.org/2001/xml-events" xmlns:xlink="http://www.w3.org/1999/xlink"><defs /><polyline fill="none" points="44.2576,29.5051 46.4271,9.5458 52.5017,24.2983 54.6712,26.4678 72.461,26.0339 76.3661,21.6949 78.1017,15.6203 82.0068,8.678 91.1186,31.6746" stroke="#00007f" stroke-width="2" /><polyline fill="none" points="38.6169,31.6746 32.1085,39.4847 29.939,44.2576 30.8068,49.4644 38.6169,55.9729" stroke="#0000de" stroke-width="2" /><polyline fill="none" points="44.2576,35.5797 47.7288,35.5797 50.3322,37.7492" stroke="#0028ff" stroke-width="2" /><polyline fill="none" points="66.3864,38.6169 78.1017,34.7119" stroke="#0080ff" stroke-width="2" /><polyline fill="none" points="58.5763,46.4271 58.5763,42.9559" stroke="#00d4ff" stroke-width="2" /><polyline fill="none" points="58.5763,42.9559 58.5763,49.4644 53.8034,51.6339 53.3695,48.1627" stroke="#36ffc0" stroke-width="2" /><polyline fill="none" points="58.5763,46.861 60.7458,51.6339 64.2169,52.0678 65.5186,50.7661" stroke="#7cff79" stroke-width="2" /><polyline fill="none" points="39.9186,39.9186 26.9017,37.7492 8.678,38.6169" stroke="#c0ff36" stroke-width="2" /><polyline fill="none" points="35.5797,44.2576 26.4678,46.4271 18.2237,52.0678" stroke="#ffe500" stroke-width="2" /><polyline fill="none" points="28.6373,52.9356 26.4678,54.2373 22.1288,60.3119" stroke="#ff9400" stroke-width="2" /><polyline fill="none" points="89.3831,40.3525 102.8339,39.0508 112.3797,39.9186 119.322,41.6542" stroke="#ff4600" stroke-width="2" /><polyline fill="none" points="84.6102,50.3322 102.8339,50.7661 112.3797,54.6712" stroke="#de0000" stroke-width="2" /><polyline fill="none" points="91.1186,55.539 99.7966,59.4441" stroke="#7f0000" stroke-width="2" /></svg>