<?xml version="1.0" encoding="utf-8" ?>
<svg baseProfile="tiny" height="128" version="1.2" viewBox="0,0,128,128" width="128" xmlns="http://www.w3.org/2000/svg" xmlns:ev="http://www.w3.org/2001/xml-events" xmlns:xlink="http://www.w3.org/1999/xlink"><defs /><polyline fill="none" points="76.8,24.2759 60.0276,17.6552 50.7586,17.2138 44.1379,19.4207 33.9862,26.4828 31.7793,29.5724 30.4552,37.5172 32.6621,48.5517 38.8414,57.3793 45.9034,61.3517 63.5586,62.2345 70.1793,60.0276 81.6552,50.7586 91.8069,35.3103 93.131,26.9241 87.8345,22.5103 78.1241,18.5379 60.469,17.6552" stroke="#00007f" stroke-width="2" /><polyline fill="none" points="74.1517,15.4483 94.0138,9.269 94.0138,16.331 91.3655,22.9517" stroke="#0000d5" stroke-width="2" /><polyline fill="none" points="31.7793,27.3655 32.2207,15.4483 34.869,8.8276 43.6966,17.2138 44.5793,20.3034" stroke="#001cff" stroke-width="2" /><polyline fill="none" points="45.0207,30.4552 45.0207,30.4552" stroke="#006cff" stroke-width="2" /><polyline fill="none" points="45.0207,29.131 43.2552,28.6897 42.3724,33.1034 45.0207,33.1034 46.7862,30.8966 47.2276,27.8069 44.5793,27.3655" stroke="#00b8ff" stroke-width="2" /><polyline fill="none" points="77.6828,29.5724 73.7103,29.131 70.1793,33.5448 73.7103,33.5448 77.6828,30.0138" stroke="#1cffda" stroke-width="2" /><polyline fill="none" points="56.9379,44.5793 60.9103,40.6069 60.9103,38.8414 56.0552,39.7241 58.7034,48.1103 65.3241,49.8759 67.9724,48.1103 67.531,46.3448" stroke="#5cff9a" stroke-width="2" /><polyline fill="none" points="57.8207,44.1379 54.2897,48.1103 51.6414,48.1103 50.7586,45.9034" stroke="#9aff5c" stroke-width="2" /><polyline fill="none" points="74.1517,39.2828 91.3655,38.4 119.1724,34.4276" stroke="#daff1c" stroke-width="2" /><polyline fill="none" points="77.2414,45.9034 113.4345,48.5517" stroke="#ffcb00" stroke-width="2" /><polyline fill="none" points="80.331,50.7586 100.1931,59.1448" stroke="#ff8500" stroke-width="2" /><polyline fill="none" points="37.9586,45.9034 23.3931,50.3172" stroke="#ff3b00" stroke-width="2" /><polyline fill="none" points="37.0759,39.2828 27.3655,36.6345" stroke="#d50000" stroke-width="2" /><polyline fill="none" points="41.0483,35.7517 8.8276,11.0345" stroke="#7f0000" stroke-width="2" /></svg>