<?xml version="1.0" encoding="utf-8" ?>
<svg baseProfile="tiny" height="128" version="1.2" viewBox="0,0,128,128" width="128" xmlns="http://www.w3.org/2000/svg" xmlns:ev="http://www.w3.org/2001/xml-events" xmlns:xlink="http://www.w3.org/1999/xlink"><defs /><polyline fill="none" points="92.8542,25.1661 85.478,21.261 77.2339,19.0915 64.6508,19.0915 47.2949,26.0339 36.8814,32.5424 26.4678,40.3525 13.4508,56.4068 11.2814,61.6136 11.2814,65.9525 13.4508,70.2915 19.0915,74.6305 35.5797,79.4034 46.4271,79.8373 64.2169,77.2339 76.8,71.1593 88.0814,59.0102 91.1186,52.9356 96.3254,37.3153 96.3254,28.2034 91.5525,23.4305 86.3458,22.1288" stroke="#00007f" stroke-width="2" /><polyline fill="none" points="20.8271,44.2576 16.4881,31.2407 16.4881,16.4881 17.7898,15.6203 20.8271,17.3559 36.4475,33.4102 41.6542,35.1458 42.0881,33.4102" stroke="#0000d5" stroke-width="2" /><polyline fill="none" points="76.3661,23.4305 88.9492,11.2814 91.5525,9.1119 95.4576,8.678 96.3254,22.9966 93.722,36.0136" stroke="#001cff" stroke-width="2" /><polyline fill="none" points="58.1424,49.4644 56.4068,51.2 56.4068,52.9356 60.3119,53.3695 62.0475,52.5017 61.1797,50.7661 55.1051,50.7661" stroke="#006cff" stroke-width="2" /><polyline fill="none" points="60.7458,53.8034 60.3119,62.9153 55.539,65.5186 39.0508,65.5186 33.4102,63.3492 31.6746,61.1797" stroke="#00b8ff" stroke-width="2" /><polyline fill="none" points="60.7458,61.6136 65.9525,66.8203 72.8949,67.6881 77.2339,63.7831 79.8373,56.4068" stroke="#1cffda" stroke-width="2" /><polyline fill="none" points="70.7254,53.8034 119.322,44.2576" stroke="#5cff9a" stroke-width="2" /><polyline fill="none" points="69.8576,60.7458 80.2712,56.8407 88.9492,55.539 99.3627,55.9729 113.6814,61.1797" stroke="#9aff5c" stroke-width="2" /><polyline fill="none" points="40.7864,57.7085 17.7898,56.8407 8.678,59.4441" stroke="#daff1c" stroke-width="2" /><polyline fill="none" points="37.3153,56.8407 19.0915,62.9153 13.0169,67.6881 9.5458,72.461" stroke="#ffcb00" stroke-width="2" /><polyline fill="none" points="49.0305,42.522 49.0305,42.522" stroke="#ff8500" stroke-width="2" /><polyline fill="none" points="82.4407,31.2407 82.4407,31.2407" stroke="#ff3b00" stroke-width="2" /><polyline fill="none" points="41.6542,39.9186 45.9932,39.9186" stroke="#d50000" stroke-width="2" /><polyline fill="none" points="85.9119,39.0508 85.478,37.3153" stroke="#7f0000" stroke-width="2" /></svg>