<?xml version="1.0" encoding="utf-8" ?>
<svg baseProfile="tiny" height="128" version="1.2" viewBox="0,0,128,128" width="128" xmlns="http://www.w3.org/2000/svg" xmlns:ev="http://www.w3.org/2001/xml-events" xmlns:xlink="http://www.w3.org/1999/xlink"><defs /><polyline fill="none" points="38.7483,51.3741 34.3946,47.8912 27.8639,47.8912 23.5102,50.068 15.2381,62.6939 9.5782,79.2381 8.7075,97.5238 10.449,104.9252 16.1088,111.4558 22.6395,115.8095 30.4762,118.4218 45.7143,119.2925 52.6803,116.6803 59.6463,111.4558 70.5306,97.5238 75.7551,80.5442 76.1905,67.9184 67.9184,56.1633 61.8231,51.3741 53.9864,47.4558 46.1497,44.4082 30.4762,41.7959 22.6395,41.3605 20.4626,43.5374" stroke="#00007f" stroke-width="2" /><polyline fill="none" points="23.0748,51.3741 21.7687,46.585 30.0408,9.5782 33.0884,8.7075 39.1837,32.2177 46.585,40.9252" stroke="#0028ff" stroke-width="2" /><polyline fill="none" points="74.449,46.585 99.2653,34.3946 107.5374,31.7823 106.2313,36.5714 94.0408,54.4218 87.9456,69.6599" stroke="#00d4ff" stroke-width="2" /><polyline fill="none" points="34.8299,71.8367 33.5238,74.8844 37.0068,78.8027 40.0544,80.1088 44.8435,80.1088 47.0204,73.1429 39.619,70.966 37.4422,71.4014 38.7483,74.0136" stroke="#7cff79" stroke-width="2" /><polyline fill="none" points="56.5986,77.4966 55.7279,75.3197 55.7279,81.415" stroke="#ffe500" stroke-width="2" /><polyline fill="none" points="40.4898,95.3469 38.3129,95.7823 38.7483,104.9252 48.3265,108.8435" stroke="#ff4600" stroke-width="2" /><polyline fill="none" points="39.619,92.7347 39.619,92.7347" stroke="#7f0000" stroke-width="2" /></svg>