<?xml version="1.0" encoding="utf-8" ?>
<svg baseProfile="tiny" height="128" version="1.2" viewBox="0,0,128,128" width="128" xmlns="http://www.w3.org/2000/svg" xmlns:ev="http://www.w3.org/2001/xml-events" xmlns:xlink="http://www.w3.org/1999/xlink"><defs /><polyline fill="none" points="26.4678,22.9966 22.5627,23.4305 17.3559,26.0339 14.3186,29.5051 12.5831,38.1831 12.5831,51.2 14.7525,56.4068 20.8271,62.9153 31.2407,64.2169 36.4475,62.0475 41.6542,55.9729 42.522,48.1627 32.1085,29.0712 24.2983,24.2983" stroke="#00007f" stroke-width="2" /><polyline fill="none" points="9.1119,25.6 8.678,19.0915 12.1492,10.4136 15.1864,18.6576 21.6949,29.0712" stroke="#0000fe" stroke-width="2" /><polyline fill="none" points="29.5051,19.5254 32.1085,10.8475 33.8441,8.678 36.0136,8.678 32.5424,34.278" stroke="#0060ff" stroke-width="2" /><polyline fill="none" points="19.9593,36.4475 18.2237,36.8814 17.7898,38.1831 18.6576,39.9186 21.6949,40.3525 21.261,36.8814 19.5254,36.0136 19.5254,37.3153" stroke="#00d4ff" stroke-width="2" /><polyline fill="none" points="27.7695,37.7492 29.939,37.3153" stroke="#4cffaa" stroke-width="2" /><polyline fill="none" points="32.1085,32.9763 27.7695,35.5797 26.4678,38.1831 27.7695,39.9186 31.2407,40.3525 28.2034,35.5797 31.6746,36.8814" stroke="#aaff4c" stroke-width="2" /><polyline fill="none" points="20.8271,51.2 27.3356,54.2373 31.6746,54.2373 32.5424,47.2949" stroke="#ffe500" stroke-width="2" /><polyline fill="none" points="44.2576,55.539 67.6881,54.2373 92.8542,56.4068 111.078,56.4068 117.1525,58.1424 119.322,59.878 118.8881,64.2169 112.8136,69.8576 104.5695,75.4983 94.1559,77.6678 72.461,78.5356 60.3119,75.9322 43.3898,68.9898 40.7864,65.0847 40.7864,53.8034" stroke="#ff7a00" stroke-width="2" /><polyline fill="none" points="43.8237,66.8203 41.2203,70.2915 41.2203,79.4034 44.6915,86.3458 48.1627,88.9492 52.9356,88.5153 58.5763,72.0271" stroke="#fe1200" stroke-width="2" /><polyline fill="none" points="70.2915,81.139 73.3288,89.3831 76.3661,92.4203 82.0068,93.2881 85.0441,88.9492" stroke="#7f0000" stroke-width="2" /></svg>