<?xml version="1.0" encoding="utf-8" ?>
<svg baseProfile="tiny" height="128" version="1.2" viewBox="0,0,128,128" width="128" xmlns="http://www.w3.org/2000/svg" xmlns:ev="http://www.w3.org/2001/xml-events" xmlns:xlink="http://www.w3.org/1999/xlink"><defs /><polyline fill="none" points="15.1864,59.4441 15.1864,22.5627 16.0542,18.6576 19.9593,19.9593 35.5797,36.0136 39.4847,42.522 40.7864,45.5593 39.4847,45.5593" stroke="#00007f" stroke-width="2" /><polyline fill="none" points="9.9797,72.0271 14.3186,65.5186 26.0339,54.2373 48.1627,41.2203 62.9153,37.3153 70.7254,36.4475 96.3254,36.4475 105.0034,38.1831 108.9085,40.7864 114.1153,47.7288 119.322,62.0475 119.322,79.4034 112.8136,91.1186 105.8712,100.6644 94.1559,108.9085 79.4034,116.2847 64.6508,119.322 46.861,118.0203 21.261,110.6441 13.0169,104.1356 9.9797,99.3627 8.678,86.7797 9.1119,80.2712 12.5831,73.7627 23.4305,57.7085" stroke="#0010ff" stroke-width="2" /><polyline fill="none" points="91.5525,39.9186 97.6271,25.1661 108.4746,8.678 111.078,11.2814 112.8136,19.9593 114.5492,42.9559" stroke="#00a4ff" stroke-width="2" /><polyline fill="none" points="36.4475,75.4983 36.4475,75.4983" stroke="#3fffb7" stroke-width="2" /><polyline fill="none" points="44.6915,68.122 44.6915,68.122" stroke="#b7ff3f" stroke-width="2" /><polyline fill="none" points="43.8237,70.2915 44.2576,66.8203 47.2949,68.5559 49.0305,72.0271 48.5966,75.0644 45.5593,75.4983" stroke="#ffb900" stroke-width="2" /><polyline fill="none" points="87.2136,70.2915 83.7424,68.5559 83.3085,66.8203 82.4407,62.4814 85.478,62.4814 86.7797,68.5559" stroke="#ff3000" stroke-width="2" /><polyline fill="none" points="58.5763,100.6644 60.7458,93.722 64.6508,86.7797" stroke="#7f0000" stroke-width="2" /></svg>