<?xml version="1.0" encoding="utf-8" ?>
<svg baseProfile="tiny" height="128" version="1.2" viewBox="0,0,128,128" width="128" xmlns="http://www.w3.org/2000/svg" xmlns:ev="http://www.w3.org/2001/xml-events" xmlns:xlink="http://www.w3.org/1999/xlink"><defs /><polyline fill="none" points="40.3525,42.9559 29.939,54.6712 26.0339,63.3492 22.5627,76.3661 21.261,96.7593 22.1288,101.0983 26.0339,108.9085 36.8814,116.7186 48.5966,119.322 61.6136,118.8881 71.5932,112.3797 78.5356,99.3627 79.4034,68.9898 75.0644,50.3322 70.2915,45.5593 60.7458,42.522 41.6542,42.522 39.4847,43.3898 39.4847,45.5593" stroke="#00007f" stroke-width="2" /><polyline fill="none" points="32.5424,53.3695 27.7695,47.7288 22.5627,33.4102 19.9593,25.6 19.0915,11.2814 21.261,9.1119 23.4305,8.678 30.8068,15.1864 42.522,40.7864" stroke="#0080ff" stroke-width="2" /><polyline fill="none" points="58.5763,41.2203 59.878,38.1831 82.0068,17.7898 87.6475,15.1864 89.3831,17.7898 90.6847,22.9966 89.8169,40.7864 76.3661,67.6881" stroke="#7cff79" stroke-width="2" /><polyline fill="none" points="47.7288,80.7051 51.2,82.0068 53.3695,81.139 51.6339,81.139" stroke="#ff9400" stroke-width="2" /><polyline fill="none" points="47.7288,80.7051 42.522,80.2712 36.0136,75.0644 26.0339,72.0271 8.678,72.8949 9.5458,73.7627" stroke="#7f0000" stroke-width="2" /></svg>