<?xml version="1.0" encoding="utf-8" ?>
<svg baseProfile="tiny" height="128" version="1.2" viewBox="0,0,128,128" width="128" xmlns="http://www.w3.org/2000/svg" xmlns:ev="http://www.w3.org/2001/xml-events" xmlns:xlink="http://www.w3.org/1999/xlink"><defs /><polyline fill="none" points="27.7695,47.7288 21.6949,51.2 13.8847,61.6136 8.678,82.0068 9.9797,97.6271 20.3932,114.1153 25.6,118.8881 31.6746,119.322 52.5017,102.8339 70.2915,90.6847 75.0644,75.4983 74.1966,59.0102 71.1593,51.6339 64.2169,44.6915 54.2373,41.6542 36.4475,49.8983" stroke="#00007f" stroke-width="2" /><polyline fill="none" points="23.4305,44.6915 25.6,33.8441 35.1458,8.678 34.278,36.4475 36.8814,46.4271" stroke="#0000fe" stroke-width="2" /><polyline fill="none" points="51.2,39.4847 79.4034,9.9797 80.2712,14.3186 78.1017,18.2237 78.9695,24.7322 72.461,36.8814" stroke="#0060ff" stroke-width="2" /><polyline fill="none" points="38.1831,76.8 31.2407,85.9119 29.939,88.9492 32.9763,88.9492 32.9763,81.5729" stroke="#00d4ff" stroke-width="2" /><polyline fill="none" points="39.4847,78.9695 44.6915,72.461 54.2373,68.5559" stroke="#4cffaa" stroke-width="2" /><polyline fill="none" points="37.7492,80.7051 44.6915,88.9492 54.2373,92.8542 44.6915,92.4203" stroke="#aaff4c" stroke-width="2" /><polyline fill="none" points="43.3898,79.4034 55.539,75.0644" stroke="#ffe500" stroke-width="2" /><polyline fill="none" points="27.7695,86.3458 19.0915,80.2712" stroke="#ff7a00" stroke-width="2" /><polyline fill="none" points="27.3356,87.2136 20.3932,90.2508 13.8847,96.3254" stroke="#fe1200" stroke-width="2" /><polyline fill="none" points="27.3356,85.0441 16.4881,98.9288" stroke="#7f0000" stroke-width="2" /></svg>