<?xml version="1.0" encoding="utf-8" ?>
<svg baseProfile="tiny" height="128" version="1.2" viewBox="0,0,128,128" width="128" xmlns="http://www.w3.org/2000/svg" xmlns:ev="http://www.w3.org/2001/xml-events" xmlns:xlink="http://www.w3.org/1999/xlink"><defs /><polyline fill="none" points="37.7492,10.4136 26.4678,9.9797 17.7898,13.4508 9.9797,24.2983 9.9797,32.5424 14.3186,36.8814 28.6373,41.2203 50.3322,41.6542 85.9119,36.4475 91.1186,34.7119 90.6847,31.6746 77.2339,19.5254 63.7831,13.4508 45.5593,8.678 40.3525,8.678 35.5797,10.8475" stroke="#00007f" stroke-width="2" /><polyline fill="none" points="15.6203,42.522 9.9797,65.9525 8.678,78.5356" stroke="#004cff" stroke-width="2" /><polyline fill="none" points="26.4678,44.6915 21.6949,77.6678" stroke="#29ffcd" stroke-width="2" /><polyline fill="none" points="57.7085,42.522 58.5763,49.0305 55.9729,85.478" stroke="#cdff29" stroke-width="2" /><polyline fill="none" points="84.6102,37.7492 81.5729,80.7051" stroke="#ff6700" stroke-width="2" /><polyline fill="none" points="91.9864,33.4102 101.9661,36.8814 111.078,35.5797 114.1153,33.4102 119.322,24.2983 118.4542,18.6576 114.1153,14.7525 109.3424,12.1492 100.6644,11.7153 91.9864,15.6203 85.478,23.4305" stroke="#7f0000" stroke-width="2" /></svg>