<?xml version="1.0" encoding="utf-8" ?>
<svg baseProfile="tiny" height="128" version="1.2" viewBox="0,0,128,128" width="128" xmlns="http://www.w3.org/2000/svg" xmlns:ev="http://www.w3.org/2001/xml-events" xmlns:xlink="http://www.w3.org/1999/xlink"><defs /><polyline fill="none" points="45.1254,22.5627 40.3525,24.7322" stroke="#00007f" stroke-width="2" /><polyline fill="none" points="32.9763,29.5051 25.1661,39.4847 23.8644,49.0305" stroke="#0000f1" stroke-width="2" /><polyline fill="none" points="27.3356,56.4068 38.6169,56.8407 49.0305,51.2 57.7085,42.522 59.0102,39.4847" stroke="#004cff" stroke-width="2" /><polyline fill="none" points="61.1797,31.2407 53.8034,23.4305 45.9932,22.5627 41.2203,23.8644" stroke="#00b0ff" stroke-width="2" /><polyline fill="none" points="31.2407,31.6746 29.5051,30.8068" stroke="#29ffcd" stroke-width="2" /><polyline fill="none" points="28.6373,25.1661 28.2034,23.8644" stroke="#7cff79" stroke-width="2" /><polyline fill="none" points="28.2034,16.0542 28.2034,14.3186" stroke="#cdff29" stroke-width="2" /><polyline fill="none" points="28.6373,8.678 40.7864,20.8271 43.8237,22.1288" stroke="#ffc400" stroke-width="2" /><polyline fill="none" points="57.7085,24.7322 61.1797,12.5831 64.2169,10.4136 66.3864,11.7153 66.8203,19.0915 60.3119,29.5051" stroke="#ff6700" stroke-width="2" /><polyline fill="none" points="36.4475,57.7085 32.1085,56.8407 10.8475,65.9525 8.678,72.8949 11.2814,80.7051 16.922,87.2136 22.5627,90.2508 37.3153,90.6847 50.3322,87.2136 55.539,77.6678 55.1051,64.6508 50.3322,59.878 38.1831,55.539" stroke="#f10700" stroke-width="2" /><polyline fill="none" points="33.8441,91.1186 68.5559,100.6644 106.739,119.322" stroke="#7f0000" stroke-width="2" /></svg>