<?xml version="1.0" encoding="utf-8" ?>
<svg baseProfile="tiny" height="128" version="1.2" viewBox="0,0,128,128" width="128" xmlns="http://www.w3.org/2000/svg" xmlns:ev="http://www.w3.org/2001/xml-events" xmlns:xlink="http://www.w3.org/1999/xlink"><defs /><polyline fill="none" points="19.9593,42.0881 13.8847,37.3153 9.5458,29.939 8.678,25.1661 9.9797,19.9593 13.0169,21.261 21.6949,36.0136 26.4678,40.7864 34.278,31.2407 42.0881,15.1864 42.9559,26.0339 40.7864,42.9559 41.2203,45.5593 46.861,51.2 49.0305,56.8407 48.5966,62.4814 44.2576,66.8203 26.0339,68.9898 22.9966,70.7254 22.5627,73.7627" stroke="#00007f" stroke-width="2" /><polyline fill="none" points="15.1864,44.6915 18.6576,50.3322 18.2237,67.6881 24.2983,69.8576 32.1085,67.2542" stroke="#0010ff" stroke-width="2" /><polyline fill="none" points="45.5593,52.0678 64.6508,45.1254 73.7627,44.2576 85.478,44.2576 96.3254,47.2949 101.0983,52.0678 102.4,59.0102 95.8915,91.9864" stroke="#00a4ff" stroke-width="2" /><polyline fill="none" points="65.0847,72.8949 64.6508,93.2881" stroke="#3fffb7" stroke-width="2" /><polyline fill="none" points="43.3898,64.2169 64.2169,73.3288 79.8373,77.2339 87.6475,76.3661 96.7593,72.461 101.9661,69.4237 103.7017,66.8203" stroke="#b7ff3f" stroke-width="2" /><polyline fill="none" points="74.1966,79.8373 72.8949,98.061" stroke="#ffb900" stroke-width="2" /><polyline fill="none" points="56.8407,73.7627 52.9356,85.0441 51.6339,95.8915" stroke="#ff3000" stroke-width="2" /><polyline fill="none" points="105.4373,50.3322 104.1356,46.861 105.4373,44.2576 118.8881,29.5051 119.322,26.0339 113.6814,16.4881 114.1153,12.1492 117.1525,8.678" stroke="#7f0000" stroke-width="2" /></svg>