<?xml version="1.0" encoding="utf-8" ?>
<svg baseProfile="tiny" height="128" version="1.2" viewBox="0,0,128,128" width="128" xmlns="http://www.w3.org/2000/svg" xmlns:ev="http://www.w3.org/2001/xml-events" xmlns:xlink="http://www.w3.org/1999/xlink"><defs /><polyline fill="none" points="52.0678,42.0881 33.4102,36.0136 12.5831,52.0678 9.5458,57.7085 8.678,65.5186 8.678,88.5153 13.0169,99.3627 25.6,110.6441 47.2949,119.322 52.5017,119.322 55.1051,118.0203 62.9153,111.5119 65.0847,108.0407 73.3288,79.8373 75.0644,72.461 74.6305,62.0475 73.3288,57.7085 68.5559,52.0678 58.5763,43.8237 37.7492,38.1831" stroke="#00007f" stroke-width="2" /><polyline fill="none" points="9.5458,47.2949 15.1864,16.4881 17.7898,14.3186 26.9017,28.6373 30.8068,42.0881" stroke="#0080ff" stroke-width="2" /><polyline fill="none" points="65.5186,43.3898 73.7627,19.9593 81.5729,8.678 80.7051,25.1661 76.3661,38.1831 73.3288,56.8407" stroke="#7cff79" stroke-width="2" /><polyline fill="none" points="21.6949,48.5966 19.0915,49.8983 16.0542,55.9729 14.7525,65.5186 20.3932,68.122 23.8644,68.122 26.9017,67.2542 29.939,61.6136 29.0712,52.0678 19.5254,43.8237" stroke="#ff9400" stroke-width="2" /><polyline fill="none" points="51.6339,51.2 45.9932,51.6339 43.8237,54.6712 42.9559,63.7831 46.861,65.9525 52.5017,65.9525 57.2746,61.1797 57.7085,55.539 53.8034,51.2" stroke="#7f0000" stroke-width="2" /></svg>