<?xml version="1.0" encoding="utf-8" ?>
<svg baseProfile="tiny" height="128" version="1.2" viewBox="0,0,128,128" width="128" xmlns="http://www.w3.org/2000/svg" xmlns:ev="http://www.w3.org/2001/xml-events" xmlns:xlink="http://www.w3.org/1999/xlink"><defs /><polyline fill="none" points="52.5017,35.1458 39.0508,26.4678 24.7322,25.6 19.5254,27.3356 15.1864,31.6746 9.5458,42.9559 8.678,60.3119 9.9797,65.9525 14.7525,74.6305 26.4678,84.1763 33.4102,86.3458 40.3525,85.9119 53.3695,74.6305 59.4441,63.7831 61.1797,44.6915 55.9729,34.278" stroke="#00007f" stroke-width="2" /><polyline fill="none" points="18.2237,29.939 15.6203,26.9017 15.1864,15.6203 19.0915,9.1119 20.8271,8.678 22.5627,10.8475 26.9017,22.5627 30.8068,23.8644" stroke="#0000f1" stroke-width="2" /><polyline fill="none" points="46.861,26.0339 47.2949,23.8644 59.0102,14.3186 55.539,30.3729 55.1051,40.3525" stroke="#004cff" stroke-width="2" /><polyline fill="none" points="18.6576,41.6542 18.2237,42.0881" stroke="#00b0ff" stroke-width="2" /><polyline fill="none" points="39.9186,43.3898 41.6542,44.6915 42.0881,42.9559 40.7864,43.3898 40.3525,45.1254" stroke="#29ffcd" stroke-width="2" /><polyline fill="none" points="39.4847,55.539 36.8814,53.3695 30.8068,52.5017 30.3729,59.0102 33.8441,59.878 35.5797,55.9729" stroke="#7cff79" stroke-width="2" /><polyline fill="none" points="32.1085,63.7831 31.6746,70.7254 29.0712,73.3288 20.3932,73.7627 20.8271,72.461" stroke="#cdff29" stroke-width="2" /><polyline fill="none" points="28.6373,70.7254 31.6746,75.4983 35.5797,77.6678 43.8237,75.0644" stroke="#ffc400" stroke-width="2" /><polyline fill="none" points="52.9356,81.5729 72.0271,81.139 88.0814,74.1966 84.6102,59.0102 75.0644,38.6169 74.1966,34.7119 80.2712,45.1254 86.3458,50.7661 88.5153,49.4644 94.1559,37.3153 88.0814,54.6712 88.0814,65.5186 90.2508,65.9525 95.8915,60.3119 102.4,55.9729 107.6068,55.9729 107.6068,57.7085 93.722,78.1017 93.2881,96.3254 96.7593,105.8712 97.1932,112.3797 96.3254,114.5492 91.1186,117.1525 85.9119,118.8881 78.9695,119.322 78.1017,115.4169 79.4034,112.3797 83.7424,108.9085 87.2136,111.078 88.5153,109.3424 81.139,95.4576 77.6678,93.2881 76.8,96.7593 68.5559,98.9288 48.1627,99.7966 47.2949,98.061 49.8983,107.6068 50.7661,117.5864 49.0305,118.4542 29.939,118.4542 29.0712,116.2847 30.8068,114.5492 44.6915,114.1153 39.9186,99.3627 38.1831,88.0814" stroke="#ff6700" stroke-width="2" /><polyline fill="none" points="54.2373,97.6271 55.9729,106.3051 62.0475,111.5119 62.0475,113.2475 60.7458,114.9831 54.2373,116.7186" stroke="#f10700" stroke-width="2" /><polyline fill="none" points="77.2339,97.1932 75.9322,98.9288 76.8,105.8712 69.4237,105.0034 69.4237,111.078 72.8949,113.2475 78.5356,113.2475" stroke="#7f0000" stroke-width="2" /></svg>