<?xml version="1.0" encoding="utf-8" ?>
<svg baseProfile="tiny" height="128" version="1.2" viewBox="0,0,128,128" width="128" xmlns="http://www.w3.org/2000/svg" xmlns:ev="http://www.w3.org/2001/xml-events" xmlns:xlink="http://www.w3.org/1999/xlink"><defs /><polyline fill="none" points="85.478,39.4847 84.1763,36.0136 81.5729,33.4102 69.4237,29.939 61.6136,29.939 49.8983,32.9763 43.3898,38.6169 41.6542,38.6169 35.5797,26.9017 31.2407,22.9966 23.8644,18.2237 12.1492,13.8847 10.8475,24.7322 11.2814,38.1831 13.8847,48.1627 18.2237,48.5966" stroke="#00007f" stroke-width="2" /><polyline fill="none" points="87.6475,41.2203 91.9864,34.7119 98.9288,16.0542 103.2678,8.678 105.4373,8.678 110.2102,31.6746 116.2847,49.8983 114.1153,67.6881 108.9085,84.1763 100.6644,94.5898 90.2508,100.6644 71.1593,108.0407 49.8983,112.3797 39.4847,112.3797 35.5797,111.078 29.0712,105.8712 24.7322,99.3627 17.3559,82.8746 9.9797,60.7458 8.678,53.3695 10.8475,44.2576" stroke="#0000f1" stroke-width="2" /><polyline fill="none" points="29.939,38.1831 29.5051,40.3525 19.9593,46.861 22.5627,33.4102 28.2034,32.9763 29.939,38.1831" stroke="#004cff" stroke-width="2" /><polyline fill="none" points="107.1729,45.5593 98.9288,42.522 98.4949,38.1831 100.2305,34.7119 103.7017,35.1458 103.7017,46.4271" stroke="#00b0ff" stroke-width="2" /><polyline fill="none" points="65.9525,72.8949 63.7831,72.461 62.4814,68.5559 70.2915,68.9898 67.2542,71.5932 66.3864,75.4983 67.6881,83.7424" stroke="#29ffcd" stroke-width="2" /><polyline fill="none" points="77.6678,88.0814 74.1966,83.7424 68.122,81.5729 62.4814,84.6102 59.4441,90.2508 56.8407,91.5525" stroke="#7cff79" stroke-width="2" /><polyline fill="none" points="45.9932,81.5729 23.4305,74.6305" stroke="#cdff29" stroke-width="2" /><polyline fill="none" points="49.0305,75.4983 28.6373,65.5186" stroke="#ffc400" stroke-width="2" /><polyline fill="none" points="46.861,88.0814 9.5458,102.8339" stroke="#ff6700" stroke-width="2" /><polyline fill="none" points="85.9119,74.1966 103.7017,68.5559 119.322,68.122" stroke="#f10700" stroke-width="2" /><polyline fill="none" points="95.4576,81.139 104.1356,84.1763" stroke="#7f0000" stroke-width="2" /></svg>