<?xml version="1.0" encoding="utf-8" ?>
<svg baseProfile="tiny" height="128" version="1.2" viewBox="0,0,128,128" width="128" xmlns="http://www.w3.org/2000/svg" xmlns:ev="http://www.w3.org/2001/xml-events" xmlns:xlink="http://www.w3.org/1999/xlink"><defs /><polyline fill="none" points="26.4678,36.4475 15.1864,42.0881 10.4136,50.7661 8.678,62.9153 9.1119,72.461 13.8847,85.9119 24.7322,101.9661 36.4475,111.5119 44.6915,115.8508 52.9356,118.4542 68.5559,119.322 81.5729,115.4169 92.8542,110.6441 99.3627,105.4373 107.6068,95.8915 111.078,87.6475 113.2475,75.4983 111.9458,60.3119 105.4373,52.9356 89.8169,45.5593 58.1424,37.7492 34.7119,35.5797" stroke="#00007f" stroke-width="2" /><polyline fill="none" points="13.8847,44.6915 14.7525,24.7322 18.2237,9.1119 20.8271,8.678 26.4678,13.4508 36.4475,26.9017 41.2203,30.3729" stroke="#0010ff" stroke-width="2" /><polyline fill="none" points="85.478,44.2576 104.1356,18.6576 108.4746,14.3186 110.6441,13.8847 111.9458,23.4305 108.4746,45.5593" stroke="#00a4ff" stroke-width="2" /><polyline fill="none" points="53.8034,79.4034 65.5186,79.4034 67.2542,81.5729 65.9525,90.2508 63.7831,89.8169 56.8407,81.5729" stroke="#3fffb7" stroke-width="2" /><polyline fill="none" points="66.8203,94.5898 44.6915,109.3424 32.9763,113.6814 29.0712,112.3797" stroke="#b7ff3f" stroke-width="2" /><polyline fill="none" points="65.9525,88.5153 67.2542,93.2881 77.6678,101.0983 88.5153,102.8339 96.3254,102.4" stroke="#ffb900" stroke-width="2" /><polyline fill="none" points="38.6169,64.2169 38.1831,59.0102" stroke="#ff3000" stroke-width="2" /><polyline fill="none" points="93.2881,66.8203 93.2881,64.6508 88.9492,65.9525" stroke="#7f0000" stroke-width="2" /></svg>