<?xml version="1.0" encoding="utf-8" ?>
<svg baseProfile="tiny" height="128" version="1.2" viewBox="0,0,128,128" width="128" xmlns="http://www.w3.org/2000/svg" xmlns:ev="http://www.w3.org/2001/xml-events" xmlns:xlink="http://www.w3.org/1999/xlink"><defs /><polyline fill="none" points="94.5898,26.9017 87.6475,14.7525 85.478,8.678 81.139,31.2407" stroke="#00007f" stroke-width="2" /><polyline fill="none" points="95.8915,28.2034 63.3492,29.939 51.6339,33.4102 48.5966,39.0508 48.5966,47.7288 55.1051,53.3695 74.1966,52.9356 89.3831,49.8983 96.3254,47.2949 102.8339,36.4475 101.5322,22.9966 100.6644,21.6949 96.7593,21.261 87.2136,22.9966" stroke="#0000e8" stroke-width="2" /><polyline fill="none" points="62.9153,29.939 48.5966,18.6576 51.2,35.1458" stroke="#0038ff" stroke-width="2" /><polyline fill="none" points="84.1763,34.278 83.7424,34.278" stroke="#0094ff" stroke-width="2" /><polyline fill="none" points="59.0102,37.3153 59.4441,37.3153" stroke="#0cf4ea" stroke-width="2" /><polyline fill="none" points="81.139,39.9186 66.8203,41.6542" stroke="#56ffa0" stroke-width="2" /><polyline fill="none" points="88.5153,38.1831 116.7186,36.0136" stroke="#a0ff56" stroke-width="2" /><polyline fill="none" points="88.5153,44.2576 119.322,39.9186" stroke="#eaff0c" stroke-width="2" /><polyline fill="none" points="94.5898,47.7288 113.2475,46.861" stroke="#ffaa00" stroke-width="2" /><polyline fill="none" points="63.3492,45.5593 36.8814,48.1627" stroke="#ff5500" stroke-width="2" /><polyline fill="none" points="58.5763,38.6169 19.9593,43.3898" stroke="#e80000" stroke-width="2" /><polyline fill="none" points="65.0847,54.2373 8.678,52.0678" stroke="#7f0000" stroke-width="2" /></svg>