<?xml version="1.0" encoding="utf-8" ?>
<svg baseProfile="tiny" height="128" version="1.2" viewBox="0,0,128,128" width="128" xmlns="http://www.w3.org/2000/svg" xmlns:ev="http://www.w3.org/2001/xml-events" xmlns:xlink="http://www.w3.org/1999/xlink"><defs /><polyline fill="none" points="66.3864,22.9966 55.9729,28.2034 45.1254,36.0136 40.3525,41.6542 34.7119,55.9729 33.4102,68.122 37.3153,80.7051 41.2203,87.6475 47.2949,92.4203 52.9356,94.5898 66.8203,96.3254 75.4983,95.8915 84.6102,93.2881 90.6847,90.2508 96.7593,84.6102 100.6644,75.0644 101.5322,53.3695 94.1559,36.8814 91.9864,32.9763 85.9119,27.3356 73.7627,25.6" stroke="#00007f" stroke-width="2" /><polyline fill="none" points="82.8746,26.0339 97.1932,15.1864 109.7763,8.678 111.078,11.7153 106.739,26.4678 101.5322,39.9186 97.1932,46.4271" stroke="#0028ff" stroke-width="2" /><polyline fill="none" points="53.3695,29.0712 49.0305,26.0339 8.678,11.7153 21.261,31.6746 30.8068,42.9559" stroke="#00d4ff" stroke-width="2" /><polyline fill="none" points="54.6712,47.7288 52.9356,50.3322 55.9729,49.8983 54.2373,46.4271" stroke="#7cff79" stroke-width="2" /><polyline fill="none" points="88.5153,50.7661 84.6102,48.5966 82.8746,48.1627 82.0068,49.4644" stroke="#ffe500" stroke-width="2" /><polyline fill="none" points="86.3458,64.6508 119.322,62.4814" stroke="#ff4600" stroke-width="2" /><polyline fill="none" points="95.0237,70.7254 116.2847,75.4983" stroke="#7f0000" stroke-width="2" /></svg>