<?xml version="1.0" encoding="utf-8" ?>
<svg baseProfile="tiny" height="128" version="1.2" viewBox="0,0,128,128" width="128" xmlns="http://www.w3.org/2000/svg" xmlns:ev="http://www.w3.org/2001/xml-events" xmlns:xlink="http://www.w3.org/1999/xlink"><defs /><polyline fill="none" points="39.9186,51.6339 38.6169,55.539 40.7864,60.3119 44.6915,57.2746 45.1254,52.0678 47.7288,59.0102 51.2,61.1797 54.6712,59.878 55.1051,51.6339 59.878,54.2373 65.0847,54.6712 75.0644,53.3695 80.7051,50.7661 82.4407,55.9729 86.3458,58.5763 88.5153,50.3322 90.6847,55.539 92.8542,56.4068 95.0237,54.2373 95.0237,48.5966 103.7017,43.3898 106.3051,38.6169 105.4373,34.278 112.3797,29.939 115.4169,25.1661 115.4169,18.2237 113.2475,12.1492 107.6068,11.7153 98.4949,15.6203 95.4576,19.5254 93.722,28.2034 69.4237,33.8441 45.1254,36.4475 34.7119,41.2203 32.1085,38.1831 29.0712,26.0339 20.3932,10.4136 15.6203,9.1119 11.2814,9.9797 9.5458,12.5831 8.678,21.261 11.7153,29.5051 23.8644,40.3525 38.1831,48.1627 40.7864,52.0678" stroke="#00007f" stroke-width="2" /><polyline fill="none" points="99.7966,14.7525 100.2305,8.678 104.1356,12.5831" stroke="#0080ff" stroke-width="2" /><polyline fill="none" points="113.6814,12.1492 119.322,9.1119 118.0203,13.8847 114.1153,17.7898" stroke="#7cff79" stroke-width="2" /><polyline fill="none" points="104.1356,21.6949 101.9661,22.9966 105.4373,23.4305 106.3051,22.5627 104.5695,21.6949" stroke="#ff9400" stroke-width="2" /><polyline fill="none" points="103.2678,23.4305 101.9661,26.0339 100.6644,26.0339" stroke="#7f0000" stroke-width="2" /></svg>