<?xml version="1.0" encoding="utf-8" ?>
<svg baseProfile="tiny" height="128" version="1.2" viewBox="0,0,128,128" width="128" xmlns="http://www.w3.org/2000/svg" xmlns:ev="http://www.w3.org/2001/xml-events" xmlns:xlink="http://www.w3.org/1999/xlink"><defs /><polyline fill="none" points="59.0102,46.4271 55.539,45.5593 26.0339,45.9932 16.4881,50.3322 10.4136,58.5763 8.678,71.1593 8.678,91.5525 21.261,110.6441 25.1661,113.6814 40.3525,118.8881 59.4441,119.322 72.8949,117.5864 91.1186,109.3424 98.9288,98.9288 100.6644,91.9864 100.6644,81.139 96.3254,70.7254 86.7797,59.0102 77.2339,50.7661 67.6881,45.9932 55.539,44.2576" stroke="#00007f" stroke-width="2" /><polyline fill="none" points="24.7322,46.4271 24.7322,36.4475 27.3356,27.3356 35.5797,9.9797 38.6169,8.678 42.522,10.4136 65.0847,43.8237 66.3864,44.2576" stroke="#0028ff" stroke-width="2" /><polyline fill="none" points="72.8949,51.2 86.7797,22.9966 97.6271,11.7153 100.6644,14.3186 101.0983,35.1458 92.8542,66.8203" stroke="#00d4ff" stroke-width="2" /><polyline fill="none" points="52.0678,74.1966 49.4644,89.3831 42.9559,100.6644" stroke="#7cff79" stroke-width="2" /><polyline fill="none" points="53.8034,75.4983 55.539,91.1186 59.0102,97.6271 61.6136,98.9288" stroke="#ffe500" stroke-width="2" /><polyline fill="none" points="36.4475,67.6881 36.4475,67.6881" stroke="#ff4600" stroke-width="2" /><polyline fill="none" points="33.4102,63.3492 33.8441,69.8576 36.4475,72.8949" stroke="#7f0000" stroke-width="2" /></svg>