<?xml version="1.0" encoding="utf-8" ?>
<svg baseProfile="tiny" height="128" version="1.2" viewBox="0,0,128,128" width="128" xmlns="http://www.w3.org/2000/svg" xmlns:ev="http://www.w3.org/2001/xml-events" xmlns:xlink="http://www.w3.org/1999/xlink"><defs /><polyline fill="none" points="40.9252,20.4626 33.5238,20.4626 21.7687,30.4762 13.932,40.4898 12.6259,50.5034 16.9796,56.1633 23.0748,60.517 29.6054,62.2585 41.3605,62.6939 57.9048,55.2925 62.6939,50.068 67.0476,43.5374 65.7415,33.9592 57.9048,25.2517 50.5034,20.4626 39.619,17.8503" stroke="#00007f" stroke-width="2" /><polyline fill="none" points="12.6259,34.3946 8.7075,9.5782 29.1701,29.1701" stroke="#0000d5" stroke-width="2" /><polyline fill="none" points="49.1973,21.3333 56.5986,15.2381 61.3878,8.7075 62.6939,29.1701" stroke="#001cff" stroke-width="2" /><polyline fill="none" points="38.3129,40.9252 36.5714,43.102 37.4422,46.585 41.3605,45.2789 42.2313,42.2313 40.4898,41.7959" stroke="#006cff" stroke-width="2" /><polyline fill="none" points="30.4762,35.7007 30.4762,35.7007" stroke="#00b8ff" stroke-width="2" /><polyline fill="none" points="29.6054,34.8299 28.7347,33.0884 29.6054,30.9116" stroke="#1cffda" stroke-width="2" /><polyline fill="none" points="47.4558,30.0408 47.4558,30.0408" stroke="#5cff9a" stroke-width="2" /><polyline fill="none" points="46.1497,40.0544 42.6667,37.8776 46.1497,30.9116" stroke="#9aff5c" stroke-width="2" /><polyline fill="none" points="48.3265,45.7143 70.0952,32.2177 78.3673,28.7347" stroke="#daff1c" stroke-width="2" /><polyline fill="none" points="52.2449,48.7619 67.9184,43.5374 83.5918,42.2313" stroke="#ffcb00" stroke-width="2" /><polyline fill="none" points="40.9252,44.4082 29.6054,40.4898 11.3197,39.1837" stroke="#ff8500" stroke-width="2" /><polyline fill="none" points="36.1361,47.8912 25.2517,47.0204 12.6259,48.7619" stroke="#ff3b00" stroke-width="2" /><polyline fill="none" points="26.9932,63.1293 25.2517,65.7415 24.381,111.4558 26.5578,114.9388 33.0884,119.2925 40.4898,119.2925 49.6327,104.9252 54.4218,93.1701 55.2925,58.3401" stroke="#d50000" stroke-width="2" /><polyline fill="none" points="67.0476,90.5578 67.0476,81.415 74.8844,66.6122" stroke="#7f0000" stroke-width="2" /></svg>