<?xml version="1.0" encoding="utf-8" ?>
<svg baseProfile="tiny" height="128" version="1.2" viewBox="0,0,128,128" width="128" xmlns="http://www.w3.org/2000/svg" xmlns:ev="http://www.w3.org/2001/xml-events" xmlns:xlink="http://www.w3.org/1999/xlink"><defs /><polyline fill="none" points="64.2169,53.8034 64.2169,53.8034" stroke="#00007f" stroke-width="2" /><polyline fill="none" points="92.4203,55.1051 95.0237,54.6712 95.0237,55.539 86.3458,64.2169 84.6102,64.6508 84.1763,62.4814 95.8915,44.2576 107.6068,32.9763 119.322,27.3356 118.4542,32.5424 114.9831,36.4475 64.2169,58.1424 61.1797,58.5763 59.0102,54.6712 41.2203,46.861 17.7898,41.2203 29.0712,34.7119 40.3525,33.4102 44.6915,35.5797 44.6915,36.4475 13.0169,46.861 8.678,50.3322 19.5254,43.3898 36.0136,26.9017 50.7661,28.2034 55.1051,34.7119 56.4068,39.4847 48.5966,47.2949 38.6169,50.3322 26.4678,51.2 8.678,49.0305 8.678,19.9593 9.9797,9.5458 10.8475,8.678 35.1458,18.2237 22.5627,15.1864 16.922,9.1119 14.7525,9.1119 27.3356,8.678 32.5424,15.1864 34.278,21.6949 37.3153,24.7322 44.6915,27.7695 52.5017,29.5051 54.2373,28.2034 52.0678,15.6203 55.539,17.3559 73.3288,19.0915 74.1966,19.9593 71.1593,22.5627 61.1797,25.6 46.4271,26.9017 37.7492,25.6 27.3356,22.9966 21.261,19.0915 22.1288,10.8475 23.8644,9.1119 26.4678,8.678 37.3153,18.2237 30.3729,12.5831 32.1085,8.678 62.9153,9.5458 66.8203,11.7153 68.9898,15.6203 73.7627,28.2034 40.7864,25.6 32.5424,23.8644 31.6746,22.1288 39.4847,15.1864 55.9729,8.678 87.2136,8.678" stroke="#7f0000" stroke-width="2" /></svg>