<?xml version="1.0" encoding="utf-8" ?>
<svg baseProfile="tiny" height="128" version="1.2" viewBox="0,0,128,128" width="128" xmlns="http://www.w3.org/2000/svg" xmlns:ev="http://www.w3.org/2001/xml-events" xmlns:xlink="http://www.w3.org/1999/xlink"><defs /><polyline fill="none" points="51.6339,58.5763 59.0102,61.1797 75.9322,62.4814 88.0814,62.4814 100.6644,59.4441 105.4373,55.1051 105.4373,40.3525 113.6814,36.0136 114.5492,30.8068 113.2475,26.0339 114.9831,25.6 118.8881,27.7695 119.322,30.8068 117.1525,36.0136 117.5864,49.0305 114.1153,57.2746 112.8136,64.6508 110.6441,67.6881 99.3627,73.7627 85.0441,87.6475 74.1966,91.5525 54.6712,91.5525 41.2203,87.6475 31.2407,81.5729 27.7695,75.9322 26.9017,64.2169 28.2034,57.7085 32.1085,54.2373 47.7288,52.5017 60.3119,59.0102" stroke="#00007f" stroke-width="2" /><polyline fill="none" points="41.6542,89.8169 42.522,103.7017" stroke="#0000de" stroke-width="2" /><polyline fill="none" points="63.7831,91.5525 65.9525,97.1932 66.3864,104.5695" stroke="#0028ff" stroke-width="2" /><polyline fill="none" points="82.8746,90.6847 85.478,103.7017" stroke="#0080ff" stroke-width="2" /><polyline fill="none" points="104.5695,76.3661 104.1356,92.8542" stroke="#00d4ff" stroke-width="2" /><polyline fill="none" points="29.939,57.2746 19.0915,54.6712 9.1119,41.2203 8.678,26.4678 10.4136,20.8271 14.7525,15.1864 25.1661,23.8644 29.939,21.261 39.4847,21.261 42.9559,8.678 50.3322,31.2407 50.7661,37.3153 58.1424,56.8407" stroke="#36ffc0" stroke-width="2" /><polyline fill="none" points="30.8068,40.3525 32.1085,40.7864" stroke="#7cff79" stroke-width="2" /><polyline fill="none" points="30.8068,39.9186 31.6746,46.4271 26.9017,54.6712" stroke="#c0ff36" stroke-width="2" /><polyline fill="none" points="31.2407,41.6542 32.9763,47.2949" stroke="#ffe500" stroke-width="2" /><polyline fill="none" points="34.278,42.9559 36.0136,49.4644 40.7864,51.2" stroke="#ff9400" stroke-width="2" /><polyline fill="none" points="19.5254,32.9763 22.1288,30.8068 24.7322,35.1458 19.0915,34.278 19.5254,30.8068" stroke="#ff4600" stroke-width="2" /><polyline fill="none" points="36.0136,32.5424 35.5797,30.8068 39.9186,30.3729 37.3153,29.939" stroke="#de0000" stroke-width="2" /><polyline fill="none" points="35.5797,34.278 38.1831,28.6373 40.3525,28.2034" stroke="#7f0000" stroke-width="2" /></svg>