<?xml version="1.0" encoding="utf-8" ?>
<svg baseProfile="tiny" height="128" version="1.2" viewBox="0,0,128,128" width="128" xmlns="http://www.w3.org/2000/svg" xmlns:ev="http://www.w3.org/2001/xml-events" xmlns:xlink="http://www.w3.org/1999/xlink"><defs /><polyline fill="none" points="84.1763,26.0339 86.7797,19.9593 83.3085,19.5254 45.1254,29.0712 40.7864,34.278 37.3153,41.2203 34.7119,50.7661 33.8441,61.1797 35.1458,66.3864 40.3525,73.3288 58.5763,85.0441 70.7254,86.7797 80.2712,82.8746 86.7797,78.9695 100.2305,61.6136 102.8339,48.5966 98.9288,36.0136 87.6475,28.6373 85.478,24.7322" stroke="#00007f" stroke-width="2" /><polyline fill="none" points="91.1186,26.0339 85.0441,25.1661 105.0034,10.4136 109.7763,8.678 119.322,9.5458" stroke="#0000e8" stroke-width="2" /><polyline fill="none" points="103.2678,55.1051 112.3797,39.9186 115.4169,29.0712 114.9831,16.0542 112.8136,11.2814 111.078,9.9797 109.7763,10.8475" stroke="#0038ff" stroke-width="2" /><polyline fill="none" points="45.9932,35.5797 46.861,32.1085 45.1254,32.9763 31.6746,30.3729 8.678,32.1085 10.8475,34.7119" stroke="#0094ff" stroke-width="2" /><polyline fill="none" points="35.1458,62.9153 38.1831,61.1797" stroke="#0cf4ea" stroke-width="2" /><polyline fill="none" points="39.4847,62.9153 28.6373,57.7085 21.6949,51.2 17.7898,42.9559 13.8847,22.9966" stroke="#56ffa0" stroke-width="2" /><polyline fill="none" points="48.1627,49.4644 46.4271,47.7288 46.861,45.9932 51.2,43.8237 54.6712,45.5593 55.539,47.2949 52.9356,50.7661 50.7661,50.3322 48.1627,47.7288 52.5017,44.6915 56.8407,43.8237 58.1424,46.861" stroke="#a0ff56" stroke-width="2" /><polyline fill="none" points="73.3288,45.5593 71.5932,48.5966 68.122,49.8983 72.0271,46.861 73.3288,47.2949 71.5932,49.4644" stroke="#eaff0c" stroke-width="2" /><polyline fill="none" points="58.1424,65.5186 66.3864,63.3492 70.2915,65.0847" stroke="#ffaa00" stroke-width="2" /><polyline fill="none" points="62.0475,64.2169 65.5186,66.3864 67.2542,76.3661" stroke="#ff5500" stroke-width="2" /><polyline fill="none" points="50.7661,74.1966 54.6712,79.8373 63.7831,81.5729 66.8203,80.2712 68.9898,76.8 72.8949,79.4034 81.139,75.9322 82.8746,73.7627 83.7424,68.9898" stroke="#e80000" stroke-width="2" /><polyline fill="none" points="62.0475,81.139 62.0475,81.139" stroke="#7f0000" stroke-width="2" /></svg>