<?xml version="1.0" encoding="utf-8" ?>
<svg baseProfile="tiny" height="128" version="1.2" viewBox="0,0,128,128" width="128" xmlns="http://www.w3.org/2000/svg" xmlns:ev="http://www.w3.org/2001/xml-events" xmlns:xlink="http://www.w3.org/1999/xlink"><defs /><polyline fill="none" points="80.1088,44.8435 70.5306,42.6667 50.9388,42.6667 39.1837,45.7143 23.0748,56.5986 13.4966,71.8367 8.7075,85.7687 8.7075,102.7483 13.0612,111.0204 18.7211,114.9388 37.4422,119.2925 53.1156,119.2925 67.483,116.6803 77.0612,111.4558 81.415,107.5374 87.9456,98.8299 91.8639,87.9456 93.6054,77.932 93.6054,63.1293 87.9456,44.8435 81.415,41.7959" stroke="#00007f" stroke-width="2" /><polyline fill="none" points="19.5918,57.9048 17.415,44.8435 16.1088,19.5918 18.7211,9.5782 21.3333,8.7075 33.5238,38.7483" stroke="#0080ff" stroke-width="2" /><polyline fill="none" points="55.2925,42.2313 73.1429,38.3129 89.2517,30.4762 112.7619,21.3333 113.1973,35.7007 110.1497,44.8435 104.9252,54.4218 94.9116,66.6122" stroke="#7cff79" stroke-width="2" /><polyline fill="none" points="85.7687,43.102 88.381,39.1837 105.3605,31.3469 105.3605,37.4422 98.8299,52.2449 90.9932,58.7755" stroke="#ff9400" stroke-width="2" /><polyline fill="none" points="22.6395,51.3741 24.8163,34.8299 27.8639,40.0544" stroke="#7f0000" stroke-width="2" /></svg>