<?xml version="1.0" encoding="utf-8" ?>
<svg baseProfile="tiny" height="128" version="1.2" viewBox="0,0,128,128" width="128" xmlns="http://www.w3.org/2000/svg" xmlns:ev="http://www.w3.org/2001/xml-events" xmlns:xlink="http://www.w3.org/1999/xlink"><defs /><polyline fill="none" points="55.9729,39.4847 41.2203,39.0508 34.278,41.6542 19.0915,55.1051 11.2814,68.5559 8.678,85.0441 10.4136,102.4 14.3186,114.1153 21.261,118.0203 43.8237,119.322 62.4814,119.322 69.8576,118.0203 76.8,112.8136 86.3458,99.7966 96.7593,82.8746 103.2678,64.2169 103.2678,51.2 98.4949,38.6169 94.5898,31.6746 86.3458,21.261 70.7254,9.1119 63.7831,8.678 58.5763,11.2814 47.2949,22.1288 36.8814,35.5797" stroke="#00007f" stroke-width="2" /><polyline fill="none" points="32.5424,43.3898 31.6746,33.8441 34.278,16.922 35.1458,17.3559 49.0305,57.7085" stroke="#7f0000" stroke-width="2" /></svg>