<?xml version="1.0" encoding="utf-8" ?>
<svg baseProfile="tiny" height="128" version="1.2" viewBox="0,0,128,128" width="128" xmlns="http://www.w3.org/2000/svg" xmlns:ev="http://www.w3.org/2001/xml-events" xmlns:xlink="http://www.w3.org/1999/xlink"><defs /><polyline fill="none" points="31.6746,45.1254 21.6949,48.5966 11.7153,56.4068 8.678,68.5559 8.678,86.7797 10.4136,94.5898 13.4508,100.2305 25.6,110.6441 50.7661,118.8881 65.9525,119.322 69.8576,117.5864 79.4034,109.7763 82.4407,102.4 85.9119,86.3458 86.3458,69.8576 81.5729,56.4068 88.0814,52.9356 95.4576,45.5593 97.1932,38.6169 96.7593,28.6373 94.1559,26.9017 90.2508,27.3356 76.3661,35.1458 65.0847,44.2576 60.7458,45.5593 51.6339,38.1831 36.4475,31.2407 24.7322,9.9797 21.261,8.678 18.6576,10.8475 16.922,16.4881 16.922,28.6373 19.9593,45.5593" stroke="#00007f" stroke-width="2" /><polyline fill="none" points="33.8441,64.2169 34.278,64.2169" stroke="#004cff" stroke-width="2" /><polyline fill="none" points="62.4814,69.4237 59.0102,69.4237" stroke="#29ffcd" stroke-width="2" /><polyline fill="none" points="42.0881,84.6102 38.1831,78.9695 41.2203,77.2339 47.2949,77.2339 47.7288,80.7051 38.1831,85.9119 29.5051,87.2136 34.7119,88.9492 41.6542,88.9492 45.1254,83.3085 44.2576,92.4203 47.2949,93.722 50.7661,92.4203" stroke="#cdff29" stroke-width="2" /><polyline fill="none" points="54.2373,80.7051 54.6712,84.1763 72.8949,84.6102 94.5898,75.9322 91.1186,75.9322" stroke="#ff6700" stroke-width="2" /><polyline fill="none" points="64.2169,89.3831 68.122,92.4203 77.2339,93.722 104.1356,92.8542" stroke="#7f0000" stroke-width="2" /></svg>