<?xml version="1.0" encoding="utf-8" ?>
<svg baseProfile="tiny" height="128" version="1.2" viewBox="0,0,128,128" width="128" xmlns="http://www.w3.org/2000/svg" xmlns:ev="http://www.w3.org/2001/xml-events" xmlns:xlink="http://www.w3.org/1999/xlink"><defs /><polyline fill="none" points="72.461,26.4678 68.122,26.4678 57.7085,29.5051 52.0678,32.9763 46.861,39.4847 41.6542,46.4271 39.4847,53.3695 39.9186,69.4237 41.6542,75.9322 44.6915,80.2712 52.9356,87.2136 70.2915,91.9864 85.9119,91.5525 99.7966,87.2136 108.4746,81.139 115.4169,68.122 115.8508,54.2373 92.4203,33.4102 83.3085,27.3356 68.122,27.7695" stroke="#00007f" stroke-width="2" /><polyline fill="none" points="75.4983,61.1797 74.6305,61.1797" stroke="#0000fe" stroke-width="2" /><polyline fill="none" points="71.1593,62.4814 61.6136,62.4814 45.9932,65.0847" stroke="#0060ff" stroke-width="2" /><polyline fill="none" points="76.8,62.0475 52.9356,75.4983" stroke="#00d4ff" stroke-width="2" /><polyline fill="none" points="75.4983,58.5763 89.8169,59.4441 111.5119,63.3492" stroke="#4cffaa" stroke-width="2" /><polyline fill="none" points="75.4983,61.1797 87.2136,65.5186 105.4373,74.1966" stroke="#aaff4c" stroke-width="2" /><polyline fill="none" points="58.1424,40.3525 63.7831,38.1831" stroke="#ffe500" stroke-width="2" /><polyline fill="none" points="82.8746,39.0508 86.3458,37.7492 85.0441,37.3153" stroke="#ff7a00" stroke-width="2" /><polyline fill="none" points="44.6915,37.7492 24.2983,23.4305 16.4881,19.5254 8.678,18.2237 19.5254,33.8441 26.0339,40.3525 39.9186,48.5966" stroke="#fe1200" stroke-width="2" /><polyline fill="none" points="92.4203,30.8068 94.1559,23.8644 103.2678,13.0169 110.2102,9.1119 118.4542,8.678 119.322,11.2814 105.8712,48.1627" stroke="#7f0000" stroke-width="2" /></svg>