<?xml version="1.0" encoding="utf-8" ?>
<svg baseProfile="tiny" height="128" version="1.2" viewBox="0,0,128,128" width="128" xmlns="http://www.w3.org/2000/svg" xmlns:ev="http://www.w3.org/2001/xml-events" xmlns:xlink="http://www.w3.org/1999/xlink"><defs /><polyline fill="none" points="84.4536,47.5052 84.4536,44.4261 79.6151,37.8282 68.1787,31.2302 63.3402,29.9107 48.8247,29.4708 37.3883,33.4296 26.8316,39.5876 20.6735,45.7457 15.3952,57.622 15.3952,63.3402 19.354,72.5773 24.6323,79.6151 32.5498,84.8935 43.5464,88.8522 67.7388,88.8522 74.7766,86.6529 84.4536,81.8144 91.9313,72.5773 92.3711,64.2199 87.9725,47.945 85.3333,43.9863" stroke="#00007f" stroke-width="2" /><polyline fill="none" points="21.5533,42.6667 19.354,34.3093 14.9553,24.6323 35.189,25.0722 45.3058,27.7113 48.8247,30.3505" stroke="#0000cc" stroke-width="2" /><polyline fill="none" points="74.7766,32.11 85.3333,29.0309 99.8488,29.0309 90.1718,40.0275 88.4124,47.945" stroke="#0008ff" stroke-width="2" /><polyline fill="none" points="54.1031,62.0206 49.2646,61.5808 51.0241,65.0997 54.543,63.7801 52.7835,62.0206" stroke="#004cff" stroke-width="2" /><polyline fill="none" points="51.4639,62.0206 52.7835,62.9003" stroke="#0090ff" stroke-width="2" /><polyline fill="none" points="42.6667,50.5842 42.6667,52.3436 43.9863,51.0241 42.6667,51.4639 43.5464,52.3436 42.6667,51.0241" stroke="#00d4ff" stroke-width="2" /><polyline fill="none" points="62.0206,51.0241 62.4605,52.7835 63.3402,51.9038 61.1409,50.5842" stroke="#29ffcd" stroke-width="2" /><polyline fill="none" points="42.6667,59.3814 18.0344,58.9416 13.1959,60.2612 11.8763,62.9003" stroke="#5fff96" stroke-width="2" /><polyline fill="none" points="35.6289,61.5808 13.1959,66.4192 8.7973,68.1787 8.7973,70.378" stroke="#96ff5f" stroke-width="2" /><polyline fill="none" points="41.3471,70.378 39.5876,72.1375 41.3471,73.8969 47.0653,73.457 49.7045,68.6186 50.5842,71.2577 55.4227,72.5773 58.0619,70.378 57.622,65.9794" stroke="#cdff29" stroke-width="2" /><polyline fill="none" points="59.8213,61.5808 69.9381,60.2612 95.4502,60.2612" stroke="#ffe500" stroke-width="2" /><polyline fill="none" points="67.299,63.7801 88.8522,65.9794 119.2027,75.2165" stroke="#ffa600" stroke-width="2" /><polyline fill="none" points="42.6667,40.9072 41.3471,29.0309 34.7491,9.2371" stroke="#ff6700" stroke-width="2" /><polyline fill="none" points="41.3471,33.4296 41.3471,21.5533 43.9863,15.3952 47.945,11.8763" stroke="#ff2800" stroke-width="2" /><polyline fill="none" points="63.3402,37.8282 73.0172,15.3952 76.0962,11.8763 82.2543,8.7973" stroke="#cc0000" stroke-width="2" /><polyline fill="none" points="69.4983,30.3505 80.9347,19.354 92.3711,13.6357 99.4089,12.756" stroke="#7f0000" stroke-width="2" /></svg>