<?xml version="1.0" encoding="utf-8" ?>
<svg baseProfile="tiny" height="128" version="1.2" viewBox="0,0,128,128" width="128" xmlns="http://www.w3.org/2000/svg" xmlns:ev="http://www.w3.org/2001/xml-events" xmlns:xlink="http://www.w3.org/1999/xlink"><defs /><polyline fill="none" points="53.3695,38.1831 36.4475,39.0508 26.4678,41.2203 16.922,44.6915 9.9797,49.4644 8.678,56.4068 9.5458,86.7797 16.0542,99.7966 29.0712,108.4746 41.2203,114.1153 65.0847,118.8881 83.7424,119.322 90.6847,118.0203 98.9288,112.3797 105.4373,103.7017 108.0407,96.7593 110.2102,74.6305 108.0407,62.9153 103.2678,52.9356 100.6644,49.0305 93.2881,45.1254 76.3661,40.7864 26.0339,39.4847" stroke="#00007f" stroke-width="2" /><polyline fill="none" points="21.6949,50.3322 22.9966,35.5797 29.939,8.678 41.2203,47.7288" stroke="#004cff" stroke-width="2" /><polyline fill="none" points="71.1593,51.6339 85.9119,41.6542 99.7966,23.4305 101.5322,22.1288 105.0034,22.5627 106.739,24.7322 105.8712,32.1085 101.9661,48.5966 95.4576,65.0847" stroke="#29ffcd" stroke-width="2" /><polyline fill="none" points="42.522,59.4441 42.0881,60.7458 43.8237,61.6136 45.9932,59.0102 42.9559,58.5763 44.2576,60.3119" stroke="#cdff29" stroke-width="2" /><polyline fill="none" points="65.5186,62.0475 64.6508,66.8203 66.3864,67.6881 67.6881,67.2542 68.122,62.9153 64.2169,62.0475" stroke="#ff6700" stroke-width="2" /><polyline fill="none" points="50.7661,76.8 55.539,78.5356 55.9729,79.8373 53.3695,82.4407" stroke="#7f0000" stroke-width="2" /></svg>