<?xml version="1.0" encoding="utf-8" ?>
<svg baseProfile="tiny" height="128" version="1.2" viewBox="0,0,128,128" width="128" xmlns="http://www.w3.org/2000/svg" xmlns:ev="http://www.w3.org/2001/xml-events" xmlns:xlink="http://www.w3.org/1999/xlink"><defs /><polyline fill="none" points="25.6,34.278 38.6169,38.1831 70.2915,44.2576 70.2915,35.1458 72.461,26.9017 77.2339,20.3932 78.9695,19.9593 80.7051,21.6949 90.2508,42.0881 91.9864,50.3322 92.8542,65.9525 88.9492,90.6847 83.7424,105.4373 78.5356,114.1153 74.1966,117.5864 66.3864,119.322 49.4644,116.7186 36.0136,108.4746 24.2983,95.8915 19.0915,87.2136 14.7525,75.4983 8.678,32.1085 11.2814,13.4508 13.8847,8.678 27.7695,31.2407" stroke="#00007f" stroke-width="2" /><polyline fill="none" points="34.7119,54.6712 32.5424,54.6712 29.939,56.4068 26.9017,63.3492 27.7695,70.2915 32.5424,77.2339 37.7492,80.2712 41.6542,80.2712 46.4271,78.1017 48.5966,75.0644 47.7288,68.122 39.0508,58.5763" stroke="#004cff" stroke-width="2" /><polyline fill="none" points="36.4475,57.2746 35.5797,78.5356 38.1831,57.7085 35.5797,62.4814 33.8441,71.1593 36.0136,76.8" stroke="#29ffcd" stroke-width="2" /><polyline fill="none" points="64.2169,73.3288 66.8203,69.4237 71.5932,66.8203 81.139,70.2915 83.7424,76.8 82.8746,81.139 79.8373,86.3458 72.461,91.5525 66.3864,91.5525 61.1797,85.478 59.878,81.5729 60.7458,77.6678" stroke="#cdff29" stroke-width="2" /><polyline fill="none" points="75.0644,72.0271 67.2542,90.6847 76.3661,71.5932 72.461,89.8169" stroke="#ff6700" stroke-width="2" /><polyline fill="none" points="45.9932,97.1932 49.4644,103.7017 55.539,105.4373" stroke="#7f0000" stroke-width="2" /></svg>