<?xml version="1.0" encoding="utf-8" ?>
<svg baseProfile="tiny" height="128" version="1.2" viewBox="0,0,128,128" width="128" xmlns="http://www.w3.org/2000/svg" xmlns:ev="http://www.w3.org/2001/xml-events" xmlns:xlink="http://www.w3.org/1999/xlink"><defs /><polyline fill="none" points="43.3898,21.6949 29.939,26.0339 22.9966,34.278 17.3559,48.5966 16.922,73.3288 22.9966,90.6847 30.8068,101.9661 52.0678,114.5492 61.1797,114.9831 64.6508,111.9458 70.7254,100.2305 76.8,92.8542 80.7051,81.5729 82.0068,70.7254 81.5729,53.8034 78.9695,46.861 74.1966,39.9186 68.122,35.5797 51.6339,27.3356 38.1831,23.4305 30.3729,23.4305" stroke="#00007f" stroke-width="2" /><polyline fill="none" points="13.0169,37.7492 13.0169,27.7695 8.678,16.0542 8.678,8.678 32.1085,31.6746" stroke="#0000e8" stroke-width="2" /><polyline fill="none" points="59.0102,27.3356 72.8949,21.261 82.8746,21.261 88.5153,18.6576 82.0068,39.0508" stroke="#0038ff" stroke-width="2" /><polyline fill="none" points="31.2407,49.0305 31.2407,49.0305" stroke="#0094ff" stroke-width="2" /><polyline fill="none" points="36.4475,53.3695 32.9763,62.0475 31.2407,59.0102 31.2407,55.539 36.8814,50.7661 39.4847,50.3322 40.3525,53.8034 40.3525,56.4068 37.3153,57.2746" stroke="#0cf4ea" stroke-width="2" /><polyline fill="none" points="64.6508,53.3695 64.2169,50.3322 67.6881,49.0305 70.7254,51.6339 70.7254,55.1051 69.4237,58.5763 63.7831,59.4441 62.9153,52.9356" stroke="#56ffa0" stroke-width="2" /><polyline fill="none" points="11.7153,84.6102 12.5831,81.5729 32.1085,78.9695" stroke="#a0ff56" stroke-width="2" /><polyline fill="none" points="43.3898,84.6102 40.3525,82.8746 36.4475,84.6102 32.9763,91.5525 19.0915,105.4373" stroke="#eaff0c" stroke-width="2" /><polyline fill="none" points="43.3898,88.0814 37.3153,99.3627 29.939,119.322" stroke="#ffaa00" stroke-width="2" /><polyline fill="none" points="66.3864,71.5932 108.0407,70.2915" stroke="#ff5500" stroke-width="2" /><polyline fill="none" points="70.7254,70.2915 84.1763,75.0644 110.6441,76.3661" stroke="#e80000" stroke-width="2" /><polyline fill="none" points="68.9898,85.9119 74.1966,84.6102 95.0237,84.6102 100.2305,85.9119" stroke="#7f0000" stroke-width="2" /></svg>