<?xml version="1.0" encoding="utf-8" ?>
<svg baseProfile="tiny" height="128" version="1.2" viewBox="0,0,128,128" width="128" xmlns="http://www.w3.org/2000/svg" xmlns:ev="http://www.w3.org/2001/xml-events" xmlns:xlink="http://www.w3.org/1999/xlink"><defs /><polyline fill="none" points="32.5424,44.2576 20.3932,49.4644 16.0542,57.2746 12.1492,81.5729 12.1492,94.5898 14.7525,104.5695 24.2983,113.6814 30.8068,118.0203 36.0136,119.322 59.878,119.322 69.4237,115.8508 81.139,109.7763 82.0068,75.0644 79.4034,65.5186 39.4847,48.1627 27.7695,49.8983 25.6,49.8983 25.1661,47.7288 26.4678,48.5966" stroke="#00007f" stroke-width="2" /><polyline fill="none" points="55.9729,54.2373 59.4441,48.5966 68.5559,44.2576 72.8949,39.9186 79.4034,26.4678 88.0814,17.3559 88.9492,24.7322 85.9119,35.5797 81.139,85.9119" stroke="#0080ff" stroke-width="2" /><polyline fill="none" points="10.8475,71.1593 8.678,42.9559 9.5458,33.4102 13.8847,21.6949 15.6203,8.678 18.2237,10.8475 18.6576,18.2237 22.5627,29.939 36.8814,51.6339 39.4847,52.9356 40.3525,52.5017" stroke="#7cff79" stroke-width="2" /><polyline fill="none" points="36.0136,77.6678 35.1458,79.8373 32.5424,80.7051 32.1085,79.4034 31.2407,75.9322 32.1085,72.8949 34.278,71.5932 36.4475,73.3288 37.3153,78.1017 34.7119,83.3085 33.8441,73.7627 35.1458,71.1593 35.1458,75.4983" stroke="#ff9400" stroke-width="2" /><polyline fill="none" points="59.878,77.6678 59.4441,79.8373 57.2746,81.139 55.1051,80.2712 54.2373,71.5932 60.7458,72.8949 59.878,82.4407 55.539,85.478 55.539,80.7051 57.7085,76.8 57.2746,78.5356 55.1051,79.8373 53.8034,75.0644 55.9729,74.1966" stroke="#7f0000" stroke-width="2" /></svg>