<?xml version="1.0" encoding="utf-8" ?>
<svg baseProfile="tiny" height="128" version="1.2" viewBox="0,0,128,128" width="128" xmlns="http://www.w3.org/2000/svg" xmlns:ev="http://www.w3.org/2001/xml-events" xmlns:xlink="http://www.w3.org/1999/xlink"><defs /><polyline fill="none" points="32.5424,30.8068 28.6373,8.678 36.8814,9.5458 46.4271,14.3186 49.4644,24.7322 63.7831,21.261 73.7627,21.261 85.0441,24.7322 89.3831,29.939 98.4949,18.6576 103.7017,14.7525 108.0407,13.4508 109.7763,19.9593 110.2102,41.2203 105.0034,42.9559 109.7763,54.2373 110.6441,67.6881 108.4746,76.8 104.1356,85.0441 99.3627,91.1186 91.5525,97.1932 68.5559,107.1729 53.3695,109.3424 43.3898,106.3051 36.8814,101.5322 29.5051,92.4203 26.4678,86.3458 23.8644,72.8949 24.2983,61.6136 27.7695,44.6915 32.1085,39.0508 38.6169,34.278" stroke="#00007f" stroke-width="2" /><polyline fill="none" points="56.4068,52.0678 58.5763,52.5017 59.0102,54.6712 56.8407,53.8034 56.4068,51.6339 57.7085,49.4644 60.7458,49.0305" stroke="#0000ff" stroke-width="2" /><polyline fill="none" points="83.7424,50.7661 84.1763,52.9356 86.7797,53.3695 87.6475,55.9729 85.0441,58.1424 82.0068,58.5763 80.2712,55.9729 82.4407,54.2373" stroke="#0080ff" stroke-width="2" /><polyline fill="none" points="84.1763,76.8 105.8712,69.8576 119.322,67.6881" stroke="#15ffe1" stroke-width="2" /><polyline fill="none" points="85.0441,85.0441 111.5119,85.9119" stroke="#7cff79" stroke-width="2" /><polyline fill="none" points="81.139,93.722 91.5525,104.5695 98.4949,108.0407" stroke="#e4ff12" stroke-width="2" /><polyline fill="none" points="51.6339,72.0271 22.9966,68.5559 8.678,64.2169" stroke="#ff9400" stroke-width="2" /><polyline fill="none" points="45.5593,78.9695 33.8441,79.8373 16.922,85.9119" stroke="#ff1d00" stroke-width="2" /><polyline fill="none" points="68.9898,77.2339 68.5559,76.8" stroke="#7f0000" stroke-width="2" /></svg>