<?xml version="1.0" encoding="utf-8" ?>
<svg baseProfile="tiny" height="128" version="1.2" viewBox="0,0,128,128" width="128" xmlns="http://www.w3.org/2000/svg" xmlns:ev="http://www.w3.org/2001/xml-events" xmlns:xlink="http://www.w3.org/1999/xlink"><defs /><polyline fill="none" points="48.5966,55.9729 35.5797,61.6136 13.4508,81.139 8.678,91.1186 8.678,103.2678 11.2814,107.1729 29.0712,116.2847 53.3695,116.7186 60.7458,113.6814 78.5356,101.5322 85.9119,92.4203 88.5153,82.8746 88.5153,72.8949 87.6475,67.2542 85.0441,63.3492 71.1593,54.2373 58.1424,50.3322 51.2,50.3322" stroke="#00007f" stroke-width="2" /><polyline fill="none" points="22.5627,68.122 28.2034,59.878 29.0712,52.5017 38.6169,25.1661 45.9932,12.1492 49.4644,16.922 49.4644,46.861 51.6339,56.8407" stroke="#0028ff" stroke-width="2" /><polyline fill="none" points="74.6305,56.8407 76.3661,46.861 82.0068,32.5424 96.3254,8.678 90.6847,43.3898 90.6847,64.6508" stroke="#00d4ff" stroke-width="2" /><polyline fill="none" points="42.9559,79.4034 42.9559,84.1763 47.7288,85.9119" stroke="#7cff79" stroke-width="2" /><polyline fill="none" points="64.6508,75.4983 64.6508,88.5153" stroke="#ffe500" stroke-width="2" /><polyline fill="none" points="46.861,101.5322 12.5831,100.6644" stroke="#ff4600" stroke-width="2" /><polyline fill="none" points="43.8237,114.5492 17.7898,119.322" stroke="#7f0000" stroke-width="2" /></svg>