<?xml version="1.0" encoding="utf-8" ?>
<svg baseProfile="tiny" height="128" version="1.2" viewBox="0,0,128,128" width="128" xmlns="http://www.w3.org/2000/svg" xmlns:ev="http://www.w3.org/2001/xml-events" xmlns:xlink="http://www.w3.org/1999/xlink"><defs /><polyline fill="none" points="57.7085,16.922 48.1627,17.3559 37.7492,20.8271 29.0712,27.7695 23.4305,37.7492 21.6949,47.7288 23.8644,59.0102 28.6373,63.3492 36.4475,66.8203 67.2542,68.9898 73.7627,68.122 81.139,64.6508 89.3831,50.3322 91.1186,41.2203 88.0814,32.9763 73.3288,21.6949 66.3864,18.2237 61.1797,17.7898" stroke="#00007f" stroke-width="2" /><polyline fill="none" points="25.6,29.5051 17.7898,10.4136 26.0339,15.1864 31.6746,16.922" stroke="#0000de" stroke-width="2" /><polyline fill="none" points="68.122,21.261 72.0271,13.8847 77.2339,8.678 81.139,23.8644" stroke="#0028ff" stroke-width="2" /><polyline fill="none" points="37.3153,36.4475 37.3153,36.4475" stroke="#0080ff" stroke-width="2" /><polyline fill="none" points="60.3119,34.7119 60.7458,35.1458" stroke="#00d4ff" stroke-width="2" /><polyline fill="none" points="39.9186,35.1458 39.4847,35.5797" stroke="#36ffc0" stroke-width="2" /><polyline fill="none" points="55.1051,41.6542 52.9356,45.5593 57.2746,46.4271 57.2746,43.8237" stroke="#7cff79" stroke-width="2" /><polyline fill="none" points="55.1051,47.7288 52.0678,53.8034 49.0305,56.4068 46.4271,52.9356 46.861,49.8983" stroke="#c0ff36" stroke-width="2" /><polyline fill="none" points="55.9729,47.2949 56.4068,50.7661 57.7085,51.2 60.3119,49.4644 61.1797,46.861" stroke="#ffe500" stroke-width="2" /><polyline fill="none" points="77.2339,38.6169 88.5153,33.8441 107.6068,28.2034" stroke="#ff9400" stroke-width="2" /><polyline fill="none" points="89.3831,41.6542 119.322,44.2576" stroke="#ff4600" stroke-width="2" /><polyline fill="none" points="28.6373,43.3898 8.678,44.6915" stroke="#de0000" stroke-width="2" /><polyline fill="none" points="35.5797,51.2 14.3186,66.3864" stroke="#7f0000" stroke-width="2" /></svg>