<?xml version="1.0" encoding="utf-8" ?>
<svg baseProfile="tiny" height="128" version="1.2" viewBox="0,0,128,128" width="128" xmlns="http://www.w3.org/2000/svg" xmlns:ev="http://www.w3.org/2001/xml-events" xmlns:xlink="http://www.w3.org/1999/xlink"><defs /><polyline fill="none" points="56.4068,118.4542 45.9932,114.9831 32.1085,105.0034 20.8271,93.2881 11.2814,79.4034 8.678,41.6542 11.2814,28.2034 11.2814,15.6203 13.4508,9.1119 15.1864,8.678 37.7492,30.3729 39.9186,30.3729 45.5593,26.4678 52.9356,24.2983 74.6305,23.8644 85.0441,26.4678 90.6847,31.2407 102.8339,13.0169 103.7017,14.3186 105.0034,57.2746 99.3627,85.478 95.8915,94.1559 87.2136,108.4746 76.8,116.7186 62.4814,119.322 55.1051,116.7186" stroke="#00007f" stroke-width="2" /><polyline fill="none" points="16.922,85.478 29.0712,88.5153 44.6915,88.0814 60.7458,78.5356 62.9153,76.8 66.3864,69.4237 69.8576,76.3661 85.0441,88.0814 94.5898,90.2508 104.1356,88.5153" stroke="#00d4ff" stroke-width="2" /><polyline fill="none" points="65.0847,67.6881 66.3864,65.9525 65.9525,70.2915 67.6881,66.8203 67.2542,64.6508 65.9525,64.6508 65.0847,68.5559 65.0847,65.9525" stroke="#ffe500" stroke-width="2" /><polyline fill="none" points="38.6169,48.1627 37.3153,54.2373 39.4847,54.2373 42.522,49.8983 41.2203,49.0305 38.6169,49.4644 36.4475,54.2373 39.0508,53.3695 41.2203,46.861 39.9186,50.7661" stroke="#7f0000" stroke-width="2" /></svg>