<?xml version="1.0" encoding="utf-8" ?>
<svg baseProfile="tiny" height="128" version="1.2" viewBox="0,0,128,128" width="128" xmlns="http://www.w3.org/2000/svg" xmlns:ev="http://www.w3.org/2001/xml-events" xmlns:xlink="http://www.w3.org/1999/xlink"><defs /><polyline fill="none" points="75.9322,30.3729 68.9898,26.9017 61.1797,25.6 38.1831,31.2407 24.7322,38.6169 16.922,49.8983 16.922,62.0475 18.6576,67.6881 25.1661,77.6678 34.7119,85.478 42.9559,89.3831 59.0102,92.8542 74.6305,92.8542 82.8746,90.2508 91.9864,73.7627 95.4576,63.7831 95.4576,55.1051 93.2881,49.4644 77.6678,37.3153 72.0271,31.2407 62.9153,28.6373" stroke="#00007f" stroke-width="2" /><polyline fill="none" points="33.4102,32.9763 31.2407,20.3932 31.6746,8.678 41.6542,29.939" stroke="#0010ff" stroke-width="2" /><polyline fill="none" points="77.2339,35.1458 89.8169,21.6949 90.6847,24.7322 91.1186,36.0136 86.7797,48.1627" stroke="#00a4ff" stroke-width="2" /><polyline fill="none" points="40.7864,60.7458 18.2237,67.2542 8.678,72.8949" stroke="#3fffb7" stroke-width="2" /><polyline fill="none" points="39.0508,66.8203 22.1288,80.7051 10.4136,101.0983 13.8847,98.4949" stroke="#b7ff3f" stroke-width="2" /><polyline fill="none" points="43.3898,75.0644 37.7492,102.8339" stroke="#ffb900" stroke-width="2" /><polyline fill="none" points="73.3288,68.122 105.0034,67.6881" stroke="#ff3000" stroke-width="2" /><polyline fill="none" points="76.8,73.7627 92.4203,76.3661 107.1729,80.2712 114.5492,83.7424 119.322,87.2136" stroke="#7f0000" stroke-width="2" /></svg>