<?xml version="1.0" encoding="utf-8" ?>
<svg baseProfile="tiny" height="128" version="1.2" viewBox="0,0,128,128" width="128" xmlns="http://www.w3.org/2000/svg" xmlns:ev="http://www.w3.org/2001/xml-events" xmlns:xlink="http://www.w3.org/1999/xlink"><defs /><polyline fill="none" points="9.1119,111.5119 8.678,90.6847 13.0169,78.1017 15.6203,74.1966 20.3932,71.1593 24.2983,72.0271 26.4678,74.6305" stroke="#00007f" stroke-width="2" /><polyline fill="none" points="10.4136,115.4169 10.8475,117.1525 13.8847,118.8881 18.2237,119.322 21.261,116.7186 23.4305,109.7763 22.5627,89.3831 24.2983,85.9119 29.5051,83.3085 36.0136,85.478 39.9186,91.9864 40.7864,118.8881 48.1627,118.0203 54.6712,112.8136 55.9729,108.4746 54.6712,89.8169 58.1424,85.478 62.4814,83.7424 88.5153,85.0441 89.3831,88.0814 87.2136,99.7966 87.2136,111.078 97.6271,111.9458 101.0983,110.2102 101.0983,79.4034 102.8339,75.9322 104.5695,75.4983 111.5119,79.8373 112.8136,78.5356 114.9831,71.5932 115.4169,53.8034 114.5492,43.8237 112.3797,39.9186 101.9661,32.5424 93.722,22.9966 95.4576,50.3322 70.7254,51.6339 42.9559,63.3492 28.2034,73.7627" stroke="#0000ff" stroke-width="2" /><polyline fill="none" points="106.739,55.1051 106.3051,54.6712" stroke="#0080ff" stroke-width="2" /><polyline fill="none" points="10.8475,40.7864 9.1119,33.4102 10.8475,16.0542 17.7898,28.6373 22.5627,30.8068 32.1085,19.5254 35.1458,19.0915 38.1831,26.9017 37.7492,32.1085" stroke="#15ffe1" stroke-width="2" /><polyline fill="none" points="60.3119,39.0508 49.0305,33.8441 38.6169,24.7322 37.3153,22.5627 39.0508,20.3932 44.6915,17.7898 40.3525,22.5627" stroke="#7cff79" stroke-width="2" /><polyline fill="none" points="66.3864,23.8644 73.7627,24.2983 76.8,26.0339 78.1017,29.0712 77.6678,32.1085 74.6305,33.8441 69.8576,32.5424 68.5559,29.5051 69.8576,28.2034" stroke="#e4ff12" stroke-width="2" /><polyline fill="none" points="85.9119,16.0542 88.9492,22.5627 91.1186,23.8644 93.2881,23.4305 101.0983,19.0915 106.739,10.8475 110.2102,8.678" stroke="#ff9400" stroke-width="2" /><polyline fill="none" points="32.5424,42.522 41.6542,54.6712 48.5966,50.3322 54.2373,64.6508" stroke="#ff1d00" stroke-width="2" /><polyline fill="none" points="45.9932,58.5763 42.522,58.1424 34.7119,62.4814 52.9356,67.6881" stroke="#7f0000" stroke-width="2" /></svg>