<?xml version="1.0" encoding="utf-8" ?>
<svg baseProfile="tiny" height="128" version="1.2" viewBox="0,0,128,128" width="128" xmlns="http://www.w3.org/2000/svg" xmlns:ev="http://www.w3.org/2001/xml-events" xmlns:xlink="http://www.w3.org/1999/xlink"><defs /><polyline fill="none" points="23.5102,37.8776 24.8163,35.2653 25.2517,30.4762 23.5102,8.7075 26.1224,9.5782 43.102,25.2517 44.8435,37.0068 47.4558,35.7007 68.7891,36.1361 75.7551,39.1837 84.0272,30.0408 92.7347,25.2517 108.4082,12.6259 109.7143,48.7619 117.1156,59.2109 119.2925,72.2721 119.2925,81.8503 115.3741,89.2517 108.8435,95.3469 102.3129,100.1361 89.2517,104.4898 78.3673,106.2313 52.6803,106.2313 49.6327,104.9252 40.9252,96.6531 28.2993,81.8503 23.0748,68.7891 22.2041,35.2653" stroke="#00007f" stroke-width="2" /><polyline fill="none" points="44.4082,50.068 35.2653,49.1973 32.6531,53.1156 33.5238,59.6463 34.8299,60.9524 40.9252,63.1293 47.0204,63.1293 49.1973,61.8231 49.6327,59.2109 43.9728,52.2449" stroke="#0080ff" stroke-width="2" /><polyline fill="none" points="97.5238,50.9388 80.5442,54.4218 78.3673,57.4694 77.932,64.8707 80.1088,67.0476 83.1565,68.7891 92.2993,68.3537 97.0884,64.4354 101.8776,55.7279 101.8776,53.1156 95.7823,51.8095" stroke="#7cff79" stroke-width="2" /><polyline fill="none" points="57.9048,86.6395 53.9864,80.9796 49.6327,77.932 36.1361,72.7075 30.0408,72.7075 23.0748,73.1429 13.4966,78.8027 8.7075,89.2517" stroke="#ff9400" stroke-width="2" /><polyline fill="none" points="58.3401,91.4286 51.3741,87.9456 44.4082,86.6395 31.3469,86.2041 25.2517,87.5102 20.4626,94.0408 16.9796,105.7959 13.932,109.7143" stroke="#7f0000" stroke-width="2" /></svg>