<?xml version="1.0" encoding="utf-8" ?>
<svg baseProfile="tiny" height="128" version="1.2" viewBox="0,0,128,128" width="128" xmlns="http://www.w3.org/2000/svg" xmlns:ev="http://www.w3.org/2001/xml-events" xmlns:xlink="http://www.w3.org/1999/xlink"><defs /><polyline fill="none" points="19.0915,49.4644 19.0915,62.4814 20.8271,78.5356 29.0712,95.0237 36.8814,106.739 44.2576,113.6814 50.3322,116.7186 57.7085,117.5864 62.4814,117.1525 72.8949,111.5119 82.8746,100.6644 97.6271,66.8203 103.2678,41.6542 103.7017,29.5051 101.9661,20.8271 99.7966,17.3559 94.5898,17.3559 90.6847,22.1288 86.7797,30.8068 81.139,58.5763 76.8,53.8034 65.5186,49.8983 58.5763,50.7661 51.2,56.4068 45.1254,32.9763 40.3525,21.261 35.1458,13.8847 28.2034,8.678 25.6,9.9797 24.2983,13.0169 17.3559,62.9153" stroke="#00007f" stroke-width="2" /><polyline fill="none" points="46.861,75.9322 51.6339,77.6678 53.3695,72.8949 52.0678,70.7254 51.2,71.1593" stroke="#0000ff" stroke-width="2" /><polyline fill="none" points="65.5186,78.5356 65.9525,81.5729 71.5932,86.3458 73.7627,84.6102 73.3288,78.5356" stroke="#0080ff" stroke-width="2" /><polyline fill="none" points="45.1254,95.0237 52.9356,103.7017 58.5763,105.8712 64.2169,105.8712 70.7254,103.2678" stroke="#15ffe1" stroke-width="2" /><polyline fill="none" points="58.5763,90.6847 62.4814,95.8915 62.9153,92.4203" stroke="#7cff79" stroke-width="2" /><polyline fill="none" points="56.8407,91.5525 27.7695,81.139 11.2814,78.5356" stroke="#e4ff12" stroke-width="2" /><polyline fill="none" points="54.6712,91.9864 8.678,97.1932" stroke="#ff9400" stroke-width="2" /><polyline fill="none" points="65.5186,93.2881 106.3051,97.6271" stroke="#ff1d00" stroke-width="2" /><polyline fill="none" points="70.2915,95.8915 79.8373,101.9661 115.4169,119.322" stroke="#7f0000" stroke-width="2" /></svg>