<?xml version="1.0" encoding="utf-8" ?>
<svg baseProfile="tiny" height="128" version="1.2" viewBox="0,0,128,128" width="128" xmlns="http://www.w3.org/2000/svg" xmlns:ev="http://www.w3.org/2001/xml-events" xmlns:xlink="http://www.w3.org/1999/xlink"><defs /><polyline fill="none" points="27.7695,32.9763 23.8644,25.1661 24.7322,18.2237 26.0339,16.922 39.0508,31.2407" stroke="#00007f" stroke-width="2" /><polyline fill="none" points="59.878,31.6746 68.9898,19.0915 80.2712,9.5458 84.1763,8.678 88.0814,12.5831 85.9119,36.0136" stroke="#0000f1" stroke-width="2" /><polyline fill="none" points="91.9864,35.5797 95.4576,47.2949 93.722,64.2169 90.2508,72.0271 85.9119,74.6305 80.2712,75.4983 58.1424,73.7627 26.9017,67.6881 16.922,64.2169 9.5458,55.9729 8.678,52.0678 9.5458,48.1627 15.1864,40.7864 26.9017,36.0136" stroke="#004cff" stroke-width="2" /><polyline fill="none" points="42.9559,29.5051 68.9898,28.6373 78.1017,33.4102" stroke="#00b0ff" stroke-width="2" /><polyline fill="none" points="36.0136,46.861 34.278,36.4475 37.3153,37.3153 38.6169,39.4847 39.0508,42.0881 36.8814,43.8237" stroke="#29ffcd" stroke-width="2" /><polyline fill="none" points="78.9695,49.0305 75.9322,48.1627 70.7254,41.6542 70.2915,37.7492 78.9695,42.9559 78.5356,45.5593 70.7254,47.7288" stroke="#7cff79" stroke-width="2" /><polyline fill="none" points="62.0475,62.4814 85.9119,59.0102" stroke="#cdff29" stroke-width="2" /><polyline fill="none" points="68.9898,68.5559 87.2136,62.4814 90.6847,59.878" stroke="#ffc400" stroke-width="2" /><polyline fill="none" points="38.6169,54.6712 19.5254,51.2" stroke="#ff6700" stroke-width="2" /><polyline fill="none" points="38.1831,61.1797 28.2034,60.3119" stroke="#f10700" stroke-width="2" /><polyline fill="none" points="35.5797,73.7627 26.9017,82.4407 21.6949,94.5898 20.8271,103.2678 26.4678,110.6441 36.4475,116.7186 48.5966,119.322 55.539,117.1525 74.1966,108.0407" stroke="#7f0000" stroke-width="2" /></svg>