<?xml version="1.0" encoding="utf-8" ?>
<svg baseProfile="tiny" height="128" version="1.2" viewBox="0,0,128,128" width="128" xmlns="http://www.w3.org/2000/svg" xmlns:ev="http://www.w3.org/2001/xml-events" xmlns:xlink="http://www.w3.org/1999/xlink"><defs /><polyline fill="none" points="32.5424,48.5966 26.0339,71.1593 26.0339,85.0441 26.9017,88.5153 34.7119,96.3254 41.6542,99.7966 63.7831,104.5695 96.3254,105.4373 106.739,100.6644 112.3797,91.9864 115.4169,80.7051 115.4169,56.4068 114.5492,52.5017 111.9458,49.8983 61.1797,39.9186 34.278,39.9186" stroke="#00007f" stroke-width="2" /><polyline fill="none" points="88.9492,42.9559 110.2102,33.8441 118.8881,55.9729" stroke="#0000ff" stroke-width="2" /><polyline fill="none" points="46.4271,38.6169 22.5627,21.261 22.1288,35.1458 26.4678,52.5017" stroke="#0080ff" stroke-width="2" /><polyline fill="none" points="69.4237,69.8576 65.5186,68.9898 64.2169,70.7254 70.7254,70.7254 68.122,68.5559 67.2542,70.7254 71.5932,72.461 70.7254,70.2915 64.6508,68.5559 62.9153,68.9898 62.0475,72.0271 65.9525,74.1966 68.9898,74.1966 68.122,72.461 64.6508,71.5932 69.8576,88.5153 75.4983,93.722 78.1017,93.722 77.2339,91.5525" stroke="#15ffe1" stroke-width="2" /><polyline fill="none" points="65.5186,74.1966 61.6136,80.2712 58.1424,83.3085 51.6339,83.3085 48.5966,80.2712" stroke="#7cff79" stroke-width="2" /><polyline fill="none" points="55.9729,55.539 54.2373,55.9729 54.6712,57.2746 58.5763,58.1424 58.5763,56.4068 55.539,55.9729" stroke="#e4ff12" stroke-width="2" /><polyline fill="none" points="92.4203,59.4441 92.4203,62.9153 94.1559,63.7831 91.9864,59.878 89.8169,59.0102 88.9492,61.1797 90.6847,61.6136 91.9864,60.3119" stroke="#ff9400" stroke-width="2" /><polyline fill="none" points="44.2576,38.1831 28.6373,28.6373 8.678,8.678 10.8475,12.5831 17.7898,45.1254 21.261,51.6339 30.3729,59.4441" stroke="#ff1d00" stroke-width="2" /><polyline fill="none" points="90.6847,41.6542 91.1186,40.3525 104.5695,32.9763 109.7763,26.9017 116.2847,41.2203 119.322,59.4441" stroke="#7f0000" stroke-width="2" /></svg>