<?xml version="1.0" encoding="utf-8" ?>
<svg baseProfile="tiny" height="128" version="1.2" viewBox="0,0,128,128" width="128" xmlns="http://www.w3.org/2000/svg" xmlns:ev="http://www.w3.org/2001/xml-events" xmlns:xlink="http://www.w3.org/1999/xlink"><defs /><polyline fill="none" points="55.539,31.6746 51.2,24.7322 35.1458,10.8475 42.0881,41.6542 30.3729,47.2949 22.9966,53.3695 17.7898,61.1797 16.4881,68.9898 16.0542,81.139 20.3932,92.8542 31.2407,105.0034 40.3525,109.7763 47.7288,111.9458 56.4068,113.2475 73.3288,113.2475 94.1559,107.6068 113.6814,93.722 117.1525,86.7797 119.322,75.0644 118.8881,65.5186 111.5119,52.0678 105.8712,48.1627 97.6271,45.1254 97.1932,35.5797 103.2678,9.5458 101.9661,8.678 90.6847,18.2237 82.4407,27.3356 63.7831,26.9017 59.0102,29.5051" stroke="#00007f" stroke-width="2" /><polyline fill="none" points="47.2949,52.0678 52.9356,52.0678 61.6136,55.1051" stroke="#0010ff" stroke-width="2" /><polyline fill="none" points="75.9322,54.2373 90.6847,54.2373" stroke="#00a4ff" stroke-width="2" /><polyline fill="none" points="60.7458,77.2339 22.9966,65.0847" stroke="#3fffb7" stroke-width="2" /><polyline fill="none" points="61.1797,89.8169 8.678,89.8169" stroke="#b7ff3f" stroke-width="2" /><polyline fill="none" points="57.7085,98.4949 36.4475,110.6441 22.9966,114.5492" stroke="#ffb900" stroke-width="2" /><polyline fill="none" points="88.0814,71.1593 118.4542,72.0271" stroke="#ff3000" stroke-width="2" /><polyline fill="none" points="101.5322,81.139 101.5322,81.139" stroke="#7f0000" stroke-width="2" /></svg>