<?xml version="1.0" encoding="utf-8" ?>
<svg baseProfile="tiny" height="128" version="1.2" viewBox="0,0,128,128" width="128" xmlns="http://www.w3.org/2000/svg" xmlns:ev="http://www.w3.org/2001/xml-events" xmlns:xlink="http://www.w3.org/1999/xlink"><defs /><polyline fill="none" points="66.6122,38.3129 57.4694,39.1837 35.2653,47.8912 24.381,54.8571 17.8503,62.6939 12.6259,73.1429 12.1905,85.7687 18.7211,99.2653 25.2517,105.3605 47.8912,118.4218 62.2585,119.2925 66.1769,117.551 76.1905,105.3605 78.3673,100.1361 79.6735,81.415 74.0136,70.5306 71.8367,57.4694 68.3537,48.7619 57.4694,38.7483 61.3878,36.5714 64.0,33.0884 74.8844,8.7075 77.932,10.449 80.5442,40.9252 77.932,55.2925 74.0136,61.3878" stroke="#00007f" stroke-width="2" /><polyline fill="none" points="39.1837,46.585 12.1905,26.9932 8.7075,26.1224 12.1905,38.3129 24.381,51.8095 25.6871,55.7279" stroke="#004cff" stroke-width="2" /><polyline fill="none" points="37.0068,60.9524 31.3469,62.2585 28.7347,66.1769 31.3469,70.5306 35.2653,70.966 37.8776,68.7891 39.619,65.3061 34.8299,61.3878" stroke="#29ffcd" stroke-width="2" /><polyline fill="none" points="60.9524,58.3401 53.551,62.2585 53.551,64.0 57.034,67.0476 58.7755,67.0476 61.3878,60.9524 58.7755,57.034" stroke="#cdff29" stroke-width="2" /><polyline fill="none" points="58.3401,62.6939 57.9048,62.6939" stroke="#ff6700" stroke-width="2" /><polyline fill="none" points="33.9592,66.1769 33.9592,66.1769" stroke="#7f0000" stroke-width="2" /></svg>