<?xml version="1.0" encoding="utf-8" ?>
<svg baseProfile="tiny" height="128" version="1.2" viewBox="0,0,128,128" width="128" xmlns="http://www.w3.org/2000/svg" xmlns:ev="http://www.w3.org/2001/xml-events" xmlns:xlink="http://www.w3.org/1999/xlink"><defs /><polyline fill="none" points="85.478,45.1254 79.4034,42.9559 69.8576,42.0881 45.9932,45.5593 28.6373,52.5017 21.6949,56.8407 11.2814,67.6881 9.1119,73.7627 8.678,85.9119 12.1492,92.8542 23.4305,104.1356 37.7492,112.8136 47.7288,115.8508 59.4441,117.1525 82.4407,115.8508 92.8542,113.2475 107.6068,105.8712 118.4542,94.5898 119.322,80.7051 117.1525,72.461 111.5119,62.0475 105.0034,54.6712 93.2881,43.3898 83.7424,38.1831" stroke="#00007f" stroke-width="2" /><polyline fill="none" points="91.5525,40.3525 92.8542,36.8814 114.1153,8.678 115.4169,25.6 111.5119,60.3119" stroke="#004cff" stroke-width="2" /><polyline fill="none" points="16.922,62.4814 13.0169,46.4271 10.4136,27.7695 12.5831,27.7695 27.3356,39.0508 36.4475,42.0881 43.3898,42.9559" stroke="#29ffcd" stroke-width="2" /><polyline fill="none" points="37.3153,61.6136 35.1458,64.6508 35.1458,68.122 36.8814,70.2915 41.6542,69.4237 42.0881,67.6881 42.0881,65.5186 38.6169,62.9153" stroke="#cdff29" stroke-width="2" /><polyline fill="none" points="79.8373,68.9898 76.3661,73.3288 76.3661,78.1017 80.7051,79.4034 83.3085,77.2339 82.8746,70.2915 79.4034,66.8203" stroke="#ff6700" stroke-width="2" /><polyline fill="none" points="53.8034,82.4407 47.7288,93.2881 62.0475,93.2881" stroke="#7f0000" stroke-width="2" /></svg>