<?xml version="1.0" encoding="utf-8" ?>
<svg baseProfile="tiny" height="128" version="1.2" viewBox="0,0,128,128" width="128" xmlns="http://www.w3.org/2000/svg" xmlns:ev="http://www.w3.org/2001/xml-events" xmlns:xlink="http://www.w3.org/1999/xlink"><defs /><polyline fill="none" points="23.8644,118.8881 18.2237,114.1153 11.7153,98.4949 8.678,77.2339 8.678,60.7458 17.3559,44.6915 21.6949,8.678 24.7322,9.1119 29.939,21.261 39.0508,31.6746 45.5593,42.0881 50.7661,44.2576 81.139,43.3898 89.3831,20.8271 92.8542,14.7525 97.1932,10.4136 99.7966,9.9797 102.4,11.2814 105.4373,16.0542 106.3051,55.9729 112.8136,82.8746 112.8136,94.5898 109.3424,102.8339 106.3051,105.8712 93.722,111.9458 65.0847,118.8881 29.5051,119.322" stroke="#00007f" stroke-width="2" /><polyline fill="none" points="23.4305,86.7797 26.4678,94.5898 29.0712,96.7593 31.6746,96.3254 38.1831,89.3831 45.1254,73.7627 55.1051,92.4203 60.3119,95.8915 68.9898,95.8915 74.1966,90.6847 82.0068,74.6305" stroke="#00d4ff" stroke-width="2" /><polyline fill="none" points="28.6373,49.4644 30.3729,46.861 35.5797,47.2949 39.0508,51.2 41.6542,59.0102 44.2576,59.4441" stroke="#ffe500" stroke-width="2" /><polyline fill="none" points="61.1797,58.5763 65.9525,54.2373 73.7627,51.6339 78.9695,55.1051" stroke="#7f0000" stroke-width="2" /></svg>