<?xml version="1.0" encoding="utf-8" ?>
<svg baseProfile="tiny" height="128" version="1.2" viewBox="0,0,128,128" width="128" xmlns="http://www.w3.org/2000/svg" xmlns:ev="http://www.w3.org/2001/xml-events" xmlns:xlink="http://www.w3.org/1999/xlink"><defs /><polyline fill="none" points="30.8068,30.8068 14.7525,31.2407 10.8475,32.5424 8.678,34.7119 11.2814,45.1254 15.1864,51.2 17.7898,53.3695 26.9017,56.4068 34.7119,57.2746 43.3898,57.2746 51.6339,51.6339 52.9356,45.9932 42.9559,33.4102 41.6542,25.6 39.0508,23.8644 28.6373,23.8644 26.4678,25.1661 29.0712,26.4678 29.0712,28.6373" stroke="#00007f" stroke-width="2" /><polyline fill="none" points="15.6203,29.0712 18.2237,27.7695 22.9966,20.3932 23.4305,11.7153 22.1288,8.678 28.2034,18.2237 29.939,27.3356 31.6746,29.5051 34.7119,30.3729" stroke="#0028ff" stroke-width="2" /><polyline fill="none" points="42.522,26.4678 44.6915,22.5627 51.6339,17.3559 53.8034,16.0542 54.2373,18.6576 53.3695,26.0339 46.861,32.1085 43.3898,32.9763" stroke="#00d4ff" stroke-width="2" /><polyline fill="none" points="27.7695,55.539 35.1458,56.4068 46.861,64.6508 56.4068,67.6881 77.2339,69.8576 96.7593,69.8576 106.3051,71.5932 108.9085,73.7627 107.1729,78.9695 88.0814,91.1186 83.7424,92.4203 67.2542,91.1186 50.7661,86.7797 34.278,80.2712 22.9966,67.6881 23.8644,63.3492 29.5051,55.1051" stroke="#7cff79" stroke-width="2" /><polyline fill="none" points="33.8441,82.0068 33.8441,90.2508 26.0339,104.5695 25.6,106.739 28.2034,107.6068 48.1627,101.0983 48.5966,94.5898 52.0678,86.3458" stroke="#ffe500" stroke-width="2" /><polyline fill="none" points="80.2712,88.5153 75.9322,98.4949 74.6305,105.4373 81.5729,118.4542 83.3085,119.322 87.6475,119.322 96.3254,116.2847 95.0237,113.2475 86.7797,104.5695 82.4407,94.5898 75.0644,87.2136 78.5356,88.0814" stroke="#ff4600" stroke-width="2" /><polyline fill="none" points="109.3424,79.8373 116.2847,80.2712 118.0203,77.2339 110.6441,65.0847 105.4373,63.3492 99.3627,74.6305 98.4949,87.2136" stroke="#7f0000" stroke-width="2" /></svg>