<?xml version="1.0" encoding="utf-8" ?>
<svg baseProfile="tiny" height="128" version="1.2" viewBox="0,0,128,128" width="128" xmlns="http://www.w3.org/2000/svg" xmlns:ev="http://www.w3.org/2001/xml-events" xmlns:xlink="http://www.w3.org/1999/xlink"><defs /><polyline fill="none" points="40.3525,39.4847 34.7119,38.1831 29.5051,39.0508 14.7525,46.4271 12.1492,49.8983 8.678,57.7085 8.678,69.8576 10.8475,73.7627 19.9593,78.5356 33.8441,78.5356 39.9186,76.3661 49.4644,71.1593 54.2373,63.7831 52.9356,51.6339 48.1627,41.6542 42.9559,38.1831 35.1458,38.1831" stroke="#00007f" stroke-width="2" /><polyline fill="none" points="26.0339,39.4847 30.8068,32.1085 37.7492,14.3186 40.7864,8.678 41.6542,12.5831 36.4475,38.1831" stroke="#004cff" stroke-width="2" /><polyline fill="none" points="24.2983,48.5966 22.1288,49.8983" stroke="#29ffcd" stroke-width="2" /><polyline fill="none" points="23.4305,48.5966 22.5627,49.4644" stroke="#cdff29" stroke-width="2" /><polyline fill="none" points="10.8475,65.5186 14.3186,65.5186 26.0339,61.6136" stroke="#ff6700" stroke-width="2" /><polyline fill="none" points="17.7898,77.6678 15.1864,95.4576 15.1864,105.8712 16.4881,107.6068 32.1085,117.1525 41.2203,119.322 54.6712,119.322 75.0644,116.7186 91.5525,111.5119 101.5322,105.0034 105.4373,99.3627 106.739,94.5898 106.739,91.1186 102.8339,82.4407 86.7797,70.7254 77.6678,65.5186 68.5559,62.9153 57.2746,62.0475 48.5966,66.8203 45.1254,71.1593" stroke="#7f0000" stroke-width="2" /></svg>