<?xml version="1.0" encoding="utf-8" ?>
<svg baseProfile="tiny" height="128" version="1.2" viewBox="0,0,128,128" width="128" xmlns="http://www.w3.org/2000/svg" xmlns:ev="http://www.w3.org/2001/xml-events" xmlns:xlink="http://www.w3.org/1999/xlink"><defs /><polyline fill="none" points="57.2746,15.1864 43.3898,21.6949 40.7864,25.1661 40.3525,30.3729 44.6915,35.5797 51.2,39.0508 69.4237,39.0508 76.8,36.0136 83.3085,29.939 85.0441,25.1661 83.3085,20.3932 78.5356,16.4881 73.3288,15.1864 55.9729,15.1864 52.0678,16.922" stroke="#00007f" stroke-width="2" /><polyline fill="none" points="45.1254,36.8814 39.9186,39.0508 41.2203,41.2203 45.5593,40.3525 46.4271,37.3153" stroke="#0000c8" stroke-width="2" /><polyline fill="none" points="51.6339,36.8814 52.9356,39.0508 49.0305,41.2203 49.8983,41.6542" stroke="#0000ff" stroke-width="2" /><polyline fill="none" points="79.8373,36.0136 82.8746,38.6169 79.8373,39.0508 81.139,39.0508" stroke="#0040ff" stroke-width="2" /><polyline fill="none" points="83.3085,33.8441 85.0441,38.1831" stroke="#0080ff" stroke-width="2" /><polyline fill="none" points="43.8237,8.678 38.1831,9.5458 31.6746,13.0169 28.2034,16.922 28.2034,21.261 30.3729,23.8644 34.7119,24.7322 45.9932,22.1288 48.1627,19.5254 48.1627,16.4881 45.9932,12.1492" stroke="#00c0ff" stroke-width="2" /><polyline fill="none" points="31.2407,18.2237 9.9797,18.2237" stroke="#15ffe1" stroke-width="2" /><polyline fill="none" points="27.3356,19.5254 16.922,24.7322 8.678,26.4678" stroke="#49ffad" stroke-width="2" /><polyline fill="none" points="36.0136,20.3932 30.3729,26.9017 19.9593,33.8441 12.5831,36.8814" stroke="#7cff79" stroke-width="2" /><polyline fill="none" points="41.6542,16.922 70.7254,12.1492" stroke="#b0ff46" stroke-width="2" /><polyline fill="none" points="43.3898,19.9593 77.6678,25.6" stroke="#e4ff12" stroke-width="2" /><polyline fill="none" points="42.9559,19.9593 53.3695,28.6373 65.0847,33.8441" stroke="#ffcf00" stroke-width="2" /><polyline fill="none" points="35.5797,13.8847 36.0136,13.8847" stroke="#ff9400" stroke-width="2" /><polyline fill="none" points="42.0881,13.8847 42.0881,13.8847" stroke="#ff5900" stroke-width="2" /><polyline fill="none" points="42.0881,13.8847 42.0881,13.8847" stroke="#ff1d00" stroke-width="2" /><polyline fill="none" points="42.9559,13.8847 42.9559,13.8847" stroke="#c30000" stroke-width="2" /><polyline fill="none" points="86.7797,23.8644 110.2102,28.2034 119.322,28.2034" stroke="#7f0000" stroke-width="2" /></svg>