<?xml version="1.0" encoding="utf-8" ?>
<svg baseProfile="tiny" height="128" version="1.2" viewBox="0,0,128,128" width="128" xmlns="http://www.w3.org/2000/svg" xmlns:ev="http://www.w3.org/2001/xml-events" xmlns:xlink="http://www.w3.org/1999/xlink"><defs /><polyline fill="none" points="48.5966,29.939 39.0508,31.2407 28.6373,36.8814 22.1288,44.6915 19.0915,57.7085 19.9593,66.8203 25.1661,75.0644 31.6746,81.139 44.6915,85.9119 54.2373,87.6475 68.9898,87.2136 79.8373,84.6102 89.3831,80.2712 100.2305,68.122 102.8339,62.9153 105.0034,53.8034 104.1356,46.861 101.5322,43.3898 87.2136,32.5424 78.1017,29.5051 64.6508,27.3356 52.5017,27.3356 46.861,29.5051" stroke="#00007f" stroke-width="2" /><polyline fill="none" points="27.3356,37.3153 27.7695,10.4136 29.939,11.2814 38.1831,22.9966 42.0881,26.0339" stroke="#0000d5" stroke-width="2" /><polyline fill="none" points="81.5729,30.8068 91.1186,16.922 97.1932,10.4136 101.0983,8.678 98.9288,40.7864" stroke="#001cff" stroke-width="2" /><polyline fill="none" points="45.1254,42.0881 45.9932,43.3898 45.9932,41.6542 44.6915,41.2203 42.9559,43.3898 44.2576,44.2576 45.9932,43.3898 45.9932,42.0881 44.2576,42.0881 42.9559,43.3898 45.1254,44.2576" stroke="#006cff" stroke-width="2" /><polyline fill="none" points="75.9322,37.7492 74.6305,41.2203 77.2339,43.8237 79.4034,42.9559 79.8373,38.6169 78.1017,38.1831 77.2339,40.3525 78.9695,39.9186 79.4034,37.3153 76.3661,36.8814 76.8,40.7864 78.1017,40.3525 78.9695,38.1831 77.2339,37.7492 76.8,40.3525" stroke="#00b8ff" stroke-width="2" /><polyline fill="none" points="59.878,56.4068 53.8034,55.9729 49.8983,58.5763 50.7661,60.3119 58.1424,62.4814 59.878,56.8407 59.0102,56.8407" stroke="#1cffda" stroke-width="2" /><polyline fill="none" points="57.2746,60.7458 59.4441,78.1017 58.5763,78.9695 49.8983,79.4034 45.5593,78.5356 39.4847,74.1966 35.5797,69.4237" stroke="#5cff9a" stroke-width="2" /><polyline fill="none" points="60.3119,76.8 68.5559,73.7627 72.8949,70.2915 78.5356,63.3492 79.8373,59.878" stroke="#9aff5c" stroke-width="2" /><polyline fill="none" points="48.1627,61.1797 37.3153,58.1424 21.261,51.2 16.0542,50.7661" stroke="#daff1c" stroke-width="2" /><polyline fill="none" points="49.8983,60.3119 23.8644,62.9153 8.678,68.5559" stroke="#ffcb00" stroke-width="2" /><polyline fill="none" points="52.9356,53.8034 31.2407,48.1627" stroke="#ff8500" stroke-width="2" /><polyline fill="none" points="65.5186,54.2373 71.1593,50.7661 109.3424,45.5593" stroke="#ff3b00" stroke-width="2" /><polyline fill="none" points="62.4814,62.4814 76.8,61.1797 105.0034,55.1051" stroke="#d50000" stroke-width="2" /><polyline fill="none" points="61.6136,60.7458 90.6847,59.0102 119.322,55.9729" stroke="#7f0000" stroke-width="2" /></svg>