<?xml version="1.0" encoding="utf-8" ?>
<svg baseProfile="tiny" height="128" version="1.2" viewBox="0,0,128,128" width="128" xmlns="http://www.w3.org/2000/svg" xmlns:ev="http://www.w3.org/2001/xml-events" xmlns:xlink="http://www.w3.org/1999/xlink"><defs /><polyline fill="none" points="54.8571,15.6735 47.0204,9.1429 42.6667,8.7075 43.5374,27.4286 40.0544,32.6531 38.7483,41.3605 40.9252,50.5034 48.3265,58.3401 55.7279,61.8231 69.6599,64.0 81.415,60.9524 88.8163,49.1973 95.3469,32.2177 94.4762,21.3333 89.6871,11.7551 86.2041,10.449 76.6259,22.6395 60.517,18.2857 50.9388,18.2857" stroke="#00007f" stroke-width="2" /><polyline fill="none" points="59.2109,26.5578 54.4218,27.4286 54.4218,30.0408 57.034,32.2177 62.2585,33.0884 64.0,30.4762 59.2109,26.5578" stroke="#0000d5" stroke-width="2" /><polyline fill="none" points="79.2381,27.4286 74.449,30.0408 74.449,32.6531 77.0612,35.7007 82.7211,36.1361 84.898,35.2653 85.7687,33.5238 83.5918,30.0408 76.1905,27.8639" stroke="#001cff" stroke-width="2" /><polyline fill="none" points="60.9524,40.4898 67.483,43.5374" stroke="#006cff" stroke-width="2" /><polyline fill="none" points="62.6939,41.7959 63.5646,48.3265 67.483,53.551 70.5306,55.2925 77.932,54.8571 83.5918,48.7619" stroke="#00b8ff" stroke-width="2" /><polyline fill="none" points="65.7415,42.2313 59.6463,48.3265 55.2925,50.9388 47.4558,47.4558 46.1497,41.3605" stroke="#1cffda" stroke-width="2" /><polyline fill="none" points="86.6395,44.4082 97.9592,39.1837 112.3265,36.5714" stroke="#5cff9a" stroke-width="2" /><polyline fill="none" points="90.9932,50.068 108.8435,50.9388 116.6803,55.2925" stroke="#9aff5c" stroke-width="2" /><polyline fill="none" points="89.2517,58.3401 98.3946,70.0952 101.8776,78.3673" stroke="#daff1c" stroke-width="2" /><polyline fill="none" points="47.8912,42.2313 28.7347,26.9932 23.0748,24.8163" stroke="#ffcb00" stroke-width="2" /><polyline fill="none" points="37.0068,43.5374 20.0272,43.9728 11.3197,49.1973" stroke="#ff8500" stroke-width="2" /><polyline fill="none" points="44.4082,52.6803 37.8776,51.8095 20.898,56.1633 13.932,59.6463 8.7075,64.8707" stroke="#ff3b00" stroke-width="2" /><polyline fill="none" points="50.9388,58.7755 36.5714,62.2585 30.4762,66.1769 26.1224,69.2245 23.0748,77.0612 23.9456,88.8163 34.3946,106.6667 36.5714,119.2925" stroke="#d50000" stroke-width="2" /><polyline fill="none" points="80.5442,60.9524 80.5442,60.9524" stroke="#7f0000" stroke-width="2" /></svg>