<?xml version="1.0" encoding="utf-8" ?>
<svg baseProfile="tiny" height="128" version="1.2" viewBox="0,0,128,128" width="128" xmlns="http://www.w3.org/2000/svg" xmlns:ev="http://www.w3.org/2001/xml-events" xmlns:xlink="http://www.w3.org/1999/xlink"><defs /><polyline fill="none" points="41.6542,28.6373 34.7119,30.8068 21.261,39.0508 15.6203,46.4271 12.1492,56.4068 13.0169,65.0847 19.0915,75.4983 28.6373,82.4407 39.4847,86.3458 65.5186,90.6847 87.2136,90.2508 112.3797,81.5729 118.0203,76.3661 119.322,69.8576 112.8136,53.8034 104.5695,44.6915 98.4949,40.7864 72.461,30.8068 53.8034,27.7695 32.1085,26.0339" stroke="#00007f" stroke-width="2" /><polyline fill="none" points="69.4237,30.8068 106.3051,18.6576 107.1729,21.6949 107.1729,32.9763 105.8712,49.0305" stroke="#0000c3" stroke-width="2" /><polyline fill="none" points="25.1661,37.7492 26.4678,25.6 32.9763,8.678 34.7119,8.678 47.2949,25.1661" stroke="#0000ff" stroke-width="2" /><polyline fill="none" points="42.9559,47.7288 42.522,48.1627" stroke="#0034ff" stroke-width="2" /><polyline fill="none" points="84.1763,50.7661 84.1763,50.7661" stroke="#0070ff" stroke-width="2" /><polyline fill="none" points="79.4034,51.2 79.4034,51.2" stroke="#00acff" stroke-width="2" /><polyline fill="none" points="79.4034,51.2 79.4034,51.2" stroke="#02e8f4" stroke-width="2" /><polyline fill="none" points="79.4034,51.2 79.4034,51.2" stroke="#32ffc3" stroke-width="2" /><polyline fill="none" points="81.139,46.861 79.8373,50.7661" stroke="#63ff93" stroke-width="2" /><polyline fill="none" points="46.861,67.6881 50.7661,73.3288 54.6712,76.3661 64.6508,79.4034 76.3661,79.4034 80.2712,76.8 82.8746,71.5932" stroke="#93ff63" stroke-width="2" /><polyline fill="none" points="62.4814,67.2542 62.4814,73.3288" stroke="#c3ff32" stroke-width="2" /><polyline fill="none" points="64.2169,59.4441 60.7458,60.3119 60.3119,63.3492 63.3492,64.6508 69.4237,64.2169 67.2542,59.0102 63.3492,58.5763" stroke="#f4f802" stroke-width="2" /><polyline fill="none" points="75.4983,59.0102 91.9864,54.6712 108.0407,52.5017" stroke="#ffc000" stroke-width="2" /><polyline fill="none" points="78.9695,59.4441 95.0237,59.4441 107.6068,61.6136" stroke="#ff8900" stroke-width="2" /><polyline fill="none" points="75.4983,62.4814 114.5492,69.4237" stroke="#ff5100" stroke-width="2" /><polyline fill="none" points="53.8034,56.8407 48.1627,54.6712 29.0712,51.2 8.678,51.2" stroke="#ff1a00" stroke-width="2" /><polyline fill="none" points="49.4644,60.7458 28.2034,58.5763 13.0169,59.0102" stroke="#c30000" stroke-width="2" /><polyline fill="none" points="47.2949,62.4814 38.1831,63.3492 19.0915,70.2915" stroke="#7f0000" stroke-width="2" /></svg>