<?xml version="1.0" encoding="utf-8" ?>
<svg baseProfile="tiny" height="128" version="1.2" viewBox="0,0,128,128" width="128" xmlns="http://www.w3.org/2000/svg" xmlns:ev="http://www.w3.org/2001/xml-events" xmlns:xlink="http://www.w3.org/1999/xlink"><defs /><polyline fill="none" points="73.3288,47.2949 72.0271,45.5593 58.1424,42.0881 44.2576,41.6542 32.1085,44.6915 14.3186,54.2373 10.4136,59.0102 8.678,65.5186 9.1119,81.5729 15.6203,97.6271 19.9593,102.8339 32.1085,110.2102 48.1627,116.7186 58.1424,118.8881 73.3288,119.322 85.478,111.9458 92.8542,101.9661 101.0983,85.0441 103.2678,74.1966 103.2678,62.4814 99.3627,56.8407 92.8542,50.7661 80.2712,45.1254" stroke="#00007f" stroke-width="2" /><polyline fill="none" points="25.6,42.0881 25.1661,32.1085 33.4102,14.3186 36.8814,16.922 41.6542,26.9017 50.7661,38.6169" stroke="#0000fe" stroke-width="2" /><polyline fill="none" points="71.5932,39.0508 73.3288,39.0508 78.1017,25.1661 85.0441,12.5831 88.5153,8.678 90.2508,9.1119 97.6271,35.5797 98.061,45.1254" stroke="#0060ff" stroke-width="2" /><polyline fill="none" points="57.7085,80.7051 58.1424,81.5729" stroke="#00d4ff" stroke-width="2" /><polyline fill="none" points="58.1424,79.4034 66.8203,74.6305 69.8576,74.6305" stroke="#4cffaa" stroke-width="2" /><polyline fill="none" points="56.8407,81.5729 63.7831,82.4407 68.5559,85.478" stroke="#aaff4c" stroke-width="2" /><polyline fill="none" points="58.5763,82.4407 68.122,79.8373" stroke="#ffe500" stroke-width="2" /><polyline fill="none" points="59.4441,78.5356 79.4034,77.6678" stroke="#ff7a00" stroke-width="2" /><polyline fill="none" points="57.7085,80.2712 53.3695,80.7051 43.8237,85.9119" stroke="#fe1200" stroke-width="2" /><polyline fill="none" points="51.6339,76.3661 48.5966,75.4983 41.6542,69.4237" stroke="#7f0000" stroke-width="2" /></svg>