<?xml version="1.0" encoding="utf-8" ?>
<svg baseProfile="tiny" height="128" version="1.2" viewBox="0,0,128,128" width="128" xmlns="http://www.w3.org/2000/svg" xmlns:ev="http://www.w3.org/2001/xml-events" xmlns:xlink="http://www.w3.org/1999/xlink"><defs /><polyline fill="none" points="14.7525,16.0542 24.2983,14.3186 43.8237,14.7525 53.3695,17.3559 58.1424,20.8271 64.6508,29.939 65.5186,35.5797 64.6508,42.9559 61.6136,47.7288 56.4068,50.3322 49.8983,51.2 41.2203,49.4644 34.7119,45.9932 30.3729,41.2203 23.4305,30.3729 19.0915,16.922 19.0915,9.5458 21.261,8.678 25.1661,12.1492" stroke="#00007f" stroke-width="2" /><polyline fill="none" points="63.3492,31.2407 67.2542,28.6373 84.6102,22.9966 97.1932,22.1288 104.5695,25.6 107.6068,29.939 107.1729,35.5797 104.5695,38.1831 94.1559,41.2203 76.8,39.4847 71.1593,34.278 70.2915,25.1661" stroke="#0000b1" stroke-width="2" /><polyline fill="none" points="46.861,54.2373 44.2576,53.8034 39.9186,58.5763 37.7492,69.8576" stroke="#0000e8" stroke-width="2" /><polyline fill="none" points="29.0712,41.2203 23.4305,47.2949 14.7525,62.9153" stroke="#0008ff" stroke-width="2" /><polyline fill="none" points="58.1424,52.0678 65.5186,63.7831" stroke="#0038ff" stroke-width="2" /><polyline fill="none" points="19.5254,35.5797 15.6203,39.4847 8.678,49.8983" stroke="#0068ff" stroke-width="2" /><polyline fill="none" points="102.8339,34.278 106.3051,37.7492" stroke="#0094ff" stroke-width="2" /><polyline fill="none" points="104.5695,35.1458 109.3424,41.6542" stroke="#00c4ff" stroke-width="2" /><polyline fill="none" points="108.9085,30.3729 119.322,30.3729" stroke="#0cf4ea" stroke-width="2" /><polyline fill="none" points="102.8339,31.6746 110.2102,30.3729" stroke="#2fffc7" stroke-width="2" /><polyline fill="none" points="99.7966,32.5424 111.078,26.9017" stroke="#56ffa0" stroke-width="2" /><polyline fill="none" points="90.2508,26.9017 92.8542,28.6373" stroke="#7cff79" stroke-width="2" /><polyline fill="none" points="90.6847,33.8441 90.6847,33.8441" stroke="#a0ff56" stroke-width="2" /><polyline fill="none" points="97.6271,26.0339 97.6271,26.0339" stroke="#c7ff2f" stroke-width="2" /><polyline fill="none" points="87.6475,27.3356 88.0814,31.2407" stroke="#eaff0c" stroke-width="2" /><polyline fill="none" points="79.8373,53.8034 89.8169,52.9356" stroke="#ffd700" stroke-width="2" /><polyline fill="none" points="58.1424,47.7288 64.2169,46.4271" stroke="#ffaa00" stroke-width="2" /><polyline fill="none" points="48.1627,45.5593 53.3695,49.8983" stroke="#ff8100" stroke-width="2" /><polyline fill="none" points="59.4441,35.5797 59.0102,42.0881 62.0475,47.2949" stroke="#ff5500" stroke-width="2" /><polyline fill="none" points="61.1797,46.4271 62.0475,49.4644 65.9525,53.8034" stroke="#ff2800" stroke-width="2" /><polyline fill="none" points="83.7424,57.2746 88.0814,59.0102" stroke="#e80000" stroke-width="2" /><polyline fill="none" points="75.0644,50.3322 85.9119,55.1051" stroke="#b10000" stroke-width="2" /><polyline fill="none" points="66.8203,42.0881 78.1017,47.2949" stroke="#7f0000" stroke-width="2" /></svg>