<?xml version="1.0" encoding="utf-8" ?>
<svg baseProfile="tiny" height="128" version="1.2" viewBox="0,0,128,128" width="128" xmlns="http://www.w3.org/2000/svg" xmlns:ev="http://www.w3.org/2001/xml-events" xmlns:xlink="http://www.w3.org/1999/xlink"><defs /><polyline fill="none" points="44.6915,21.261 49.4644,10.8475 52.0678,8.678 63.7831,24.2983 78.5356,22.9966 93.722,26.4678 98.9288,16.922 105.8712,11.2814 109.7763,16.922 117.1525,34.7119 119.322,51.2 114.5492,62.9153 110.6441,68.9898 102.4,78.1017 91.1186,86.3458 80.7051,90.6847 75.4983,91.1186 52.0678,91.1186 43.8237,88.9492 36.4475,79.8373 33.4102,72.461 32.1085,52.5017 34.278,41.2203 41.2203,24.7322 45.5593,18.2237" stroke="#00007f" stroke-width="2" /><polyline fill="none" points="60.7458,42.9559 59.878,44.2576 61.1797,45.1254 62.9153,43.3898 60.3119,43.8237" stroke="#0000fe" stroke-width="2" /><polyline fill="none" points="81.5729,42.9559 81.5729,45.1254 84.1763,43.8237 82.0068,43.3898" stroke="#0060ff" stroke-width="2" /><polyline fill="none" points="66.3864,59.878 68.122,65.0847 67.6881,58.1424 70.2915,56.4068 72.461,57.2746 72.461,59.878 68.9898,62.9153" stroke="#00d4ff" stroke-width="2" /><polyline fill="none" points="73.7627,62.9153 89.3831,63.3492 107.6068,66.8203 117.1525,71.1593" stroke="#4cffaa" stroke-width="2" /><polyline fill="none" points="72.0271,71.1593 100.2305,75.0644 114.1153,80.7051" stroke="#aaff4c" stroke-width="2" /><polyline fill="none" points="76.3661,79.8373 83.3085,85.0441 104.1356,94.1559" stroke="#ffe500" stroke-width="2" /><polyline fill="none" points="64.6508,60.7458 46.4271,53.8034 29.939,52.9356" stroke="#ff7a00" stroke-width="2" /><polyline fill="none" points="58.1424,65.0847 44.2576,61.6136 29.5051,61.6136" stroke="#fe1200" stroke-width="2" /><polyline fill="none" points="55.9729,69.4237 31.6746,69.4237 8.678,73.7627" stroke="#7f0000" stroke-width="2" /></svg>