<?xml version="1.0" encoding="utf-8" ?>
<svg baseProfile="tiny" height="128" version="1.2" viewBox="0,0,128,128" width="128" xmlns="http://www.w3.org/2000/svg" xmlns:ev="http://www.w3.org/2001/xml-events" xmlns:xlink="http://www.w3.org/1999/xlink"><defs /><polyline fill="none" points="37.4422,20.0272 34.3946,19.5918 30.0408,11.3197 27.4286,10.0136 26.1224,17.415 23.0748,23.0748 18.2857,13.4966 12.1905,8.7075 8.7075,37.8776 14.3673,51.8095 17.8503,55.7279 22.6395,55.7279 31.7823,49.1973 42.2313,62.2585 46.1497,64.8707 49.1973,65.3061 52.6803,64.0 58.7755,64.8707 60.0816,63.5646 61.3878,53.551 69.6599,50.9388 77.0612,50.9388 82.7211,53.551 82.2857,67.9184 85.7687,66.6122 99.2653,66.6122 101.8776,44.8435 112.7619,40.4898 117.551,36.5714 119.2925,32.6531 118.4218,29.1701 111.8912,21.7687 97.9592,13.4966 96.2177,13.932 90.5578,18.7211 49.1973,14.8027 43.5374,14.8027 39.619,17.8503" stroke="#00007f" stroke-width="2" /><polyline fill="none" points="92.7347,28.7347 92.7347,28.7347" stroke="#0010ff" stroke-width="2" /><polyline fill="none" points="31.7823,19.5918 29.1701,16.5442 28.2993,21.7687 33.9592,20.4626" stroke="#00a4ff" stroke-width="2" /><polyline fill="none" points="18.7211,22.2041 15.2381,13.932 14.8027,22.2041 20.0272,21.7687" stroke="#3fffb7" stroke-width="2" /><polyline fill="none" points="20.0272,32.6531 17.415,39.619" stroke="#b7ff3f" stroke-width="2" /><polyline fill="none" points="24.381,39.619 19.1565,47.0204" stroke="#ffb900" stroke-width="2" /><polyline fill="none" points="26.9932,44.4082 23.9456,47.4558" stroke="#ff3000" stroke-width="2" /><polyline fill="none" points="39.619,27.4286 39.619,27.4286" stroke="#7f0000" stroke-width="2" /></svg>