<?xml version="1.0" encoding="utf-8" ?>
<svg baseProfile="tiny" height="128" version="1.2" viewBox="0,0,128,128" width="128" xmlns="http://www.w3.org/2000/svg" xmlns:ev="http://www.w3.org/2001/xml-events" xmlns:xlink="http://www.w3.org/1999/xlink"><defs /><polyline fill="none" points="91.5525,20.3932 78.1017,21.6949 55.1051,29.939 34.7119,42.0881 20.3932,54.2373 12.5831,64.6508 8.678,74.6305 8.678,82.8746 13.0169,89.8169 33.4102,108.9085 49.4644,115.8508 63.3492,118.4542 77.2339,119.322 83.3085,115.8508 98.4949,97.1932 104.1356,84.6102 106.3051,69.8576 105.0034,31.6746 102.8339,19.5254 100.6644,8.678 95.0237,8.678" stroke="#00007f" stroke-width="2" /><polyline fill="none" points="58.5763,41.6542 63.3492,41.6542" stroke="#0028ff" stroke-width="2" /><polyline fill="none" points="39.9186,62.0475 39.9186,68.9898 42.522,72.461 61.6136,84.6102 79.4034,89.3831 80.7051,86.3458 79.8373,83.3085" stroke="#00d4ff" stroke-width="2" /><polyline fill="none" points="54.2373,70.2915 60.7458,73.7627" stroke="#7cff79" stroke-width="2" /><polyline fill="none" points="67.2542,61.1797 65.9525,62.0475" stroke="#ffe500" stroke-width="2" /><polyline fill="none" points="68.9898,63.3492 72.8949,62.4814 75.0644,60.7458" stroke="#ff4600" stroke-width="2" /><polyline fill="none" points="81.139,51.6339 79.8373,57.2746" stroke="#7f0000" stroke-width="2" /></svg>