<?xml version="1.0" encoding="utf-8" ?>
<svg baseProfile="tiny" height="128" version="1.2" viewBox="0,0,128,128" width="128" xmlns="http://www.w3.org/2000/svg" xmlns:ev="http://www.w3.org/2001/xml-events" xmlns:xlink="http://www.w3.org/1999/xlink"><defs /><polyline fill="none" points="42.9559,9.5458 49.0305,29.0712 45.1254,41.6542 44.2576,50.7661 46.4271,59.0102 50.7661,66.3864 55.539,70.2915 66.8203,73.3288 86.3458,76.3661 96.7593,76.3661 107.1729,72.8949 111.5119,65.5186 113.6814,45.5593 110.2102,35.1458 119.322,9.1119 117.1525,8.678 107.1729,11.7153 93.2881,19.5254 86.7797,19.9593 63.3492,19.5254 56.8407,18.2237 43.3898,10.8475" stroke="#00007f" stroke-width="2" /><polyline fill="none" points="72.0271,38.1831 69.4237,39.0508 69.8576,42.0881 72.0271,37.3153 70.7254,36.0136 69.8576,36.8814 69.4237,42.522 70.2915,37.3153 69.4237,36.8814 69.4237,39.0508 70.2915,38.1831" stroke="#0000fe" stroke-width="2" /><polyline fill="none" points="88.5153,37.7492 88.0814,44.6915 89.3831,43.8237 88.9492,38.1831 88.5153,44.2576 89.8169,43.3898 88.9492,38.1831" stroke="#0060ff" stroke-width="2" /><polyline fill="none" points="81.139,59.4441 78.5356,53.3695 80.2712,52.5017 83.7424,53.8034 81.5729,59.4441" stroke="#00d4ff" stroke-width="2" /><polyline fill="none" points="80.7051,59.0102 80.7051,64.2169 78.9695,67.6881 75.0644,68.5559 72.461,65.0847" stroke="#4cffaa" stroke-width="2" /><polyline fill="none" points="80.7051,59.878 84.1763,66.3864 89.3831,67.2542 91.5525,65.9525" stroke="#aaff4c" stroke-width="2" /><polyline fill="none" points="75.9322,53.3695 60.3119,48.1627 41.6542,44.6915 13.8847,44.6915 8.678,45.5593" stroke="#ffe500" stroke-width="2" /><polyline fill="none" points="73.3288,55.1051 40.7864,53.8034 18.6576,54.6712" stroke="#ff7a00" stroke-width="2" /><polyline fill="none" points="74.6305,58.5763 44.2576,62.9153 34.278,67.2542" stroke="#fe1200" stroke-width="2" /><polyline fill="none" points="92.8542,52.0678 92.8542,52.0678" stroke="#7f0000" stroke-width="2" /></svg>