<?xml version="1.0" encoding="utf-8" ?>
<svg baseProfile="tiny" height="128" version="1.2" viewBox="0,0,128,128" width="128" xmlns="http://www.w3.org/2000/svg" xmlns:ev="http://www.w3.org/2001/xml-events" xmlns:xlink="http://www.w3.org/1999/xlink"><defs /><polyline fill="none" points="19.0915,36.8814 21.6949,45.5593 24.7322,48.5966 29.5051,50.7661 37.7492,50.3322 46.4271,39.4847 48.5966,34.7119 49.4644,31.2407 48.5966,15.1864 47.2949,11.7153 45.5593,11.2814 37.7492,25.6 29.5051,25.6 24.2983,27.7695 18.6576,11.2814 15.1864,8.678 13.8847,30.8068 17.3559,39.0508 20.8271,41.6542" stroke="#00007f" stroke-width="2" /><polyline fill="none" points="24.7322,34.278 28.2034,34.278 26.9017,35.5797" stroke="#0000ff" stroke-width="2" /><polyline fill="none" points="35.1458,35.1458 37.3153,34.278" stroke="#0080ff" stroke-width="2" /><polyline fill="none" points="31.6746,41.6542 31.6746,40.7864" stroke="#15ffe1" stroke-width="2" /><polyline fill="none" points="19.0915,42.522 9.1119,61.1797 8.678,72.461 12.1492,89.8169" stroke="#7cff79" stroke-width="2" /><polyline fill="none" points="41.6542,42.9559 47.2949,44.2576 49.4644,49.0305 50.3322,64.6508 49.0305,80.2712 50.3322,84.6102 52.9356,86.7797 59.4441,86.3458 65.0847,78.9695 72.8949,56.4068 73.3288,50.3322 69.4237,39.0508 70.2915,34.278 73.7627,30.8068 78.9695,30.3729 80.2712,35.5797 80.7051,52.5017 78.5356,66.3864 75.9322,79.4034 71.1593,88.0814 62.4814,95.4576 55.539,96.7593 50.3322,94.5898 46.4271,90.2508 45.1254,81.139" stroke="#e4ff12" stroke-width="2" /><polyline fill="none" points="12.1492,109.3424 55.9729,107.6068" stroke="#ff9400" stroke-width="2" /><polyline fill="none" points="12.5831,109.3424 16.4881,117.5864 20.8271,118.8881 25.1661,106.739" stroke="#ff1d00" stroke-width="2" /><polyline fill="none" points="30.3729,109.3424 31.6746,117.5864 36.0136,119.322 40.3525,119.322 46.4271,108.4746" stroke="#7f0000" stroke-width="2" /></svg>