<?xml version="1.0" encoding="utf-8" ?>
<svg baseProfile="tiny" height="128" version="1.2" viewBox="0,0,128,128" width="128" xmlns="http://www.w3.org/2000/svg" xmlns:ev="http://www.w3.org/2001/xml-events" xmlns:xlink="http://www.w3.org/1999/xlink"><defs /><polyline fill="none" points="20.8271,29.939 20.8271,66.3864 27.3356,89.8169 30.8068,97.1932 37.7492,107.1729 49.8983,111.5119 63.7831,111.5119 73.3288,106.739 83.7424,97.6271 89.8169,86.3458 95.4576,52.9356 95.4576,9.5458 93.2881,8.678 79.8373,21.6949 74.6305,28.2034 60.7458,26.0339 46.4271,30.3729 41.2203,18.6576 38.6169,15.6203 30.8068,11.7153 24.2983,19.5254 19.5254,29.939" stroke="#00007f" stroke-width="2" /><polyline fill="none" points="40.7864,72.8949 34.7119,67.2542 28.2034,64.2169 21.261,64.2169 8.678,70.2915" stroke="#0000fe" stroke-width="2" /><polyline fill="none" points="34.278,79.8373 24.7322,81.5729 16.922,89.8169 15.1864,95.8915" stroke="#0060ff" stroke-width="2" /><polyline fill="none" points="40.7864,97.1932 37.3153,100.2305 34.7119,106.3051 35.5797,109.7763 40.3525,113.6814" stroke="#00d4ff" stroke-width="2" /><polyline fill="none" points="76.8,73.7627 78.5356,71.1593 86.3458,65.5186 94.1559,63.3492 102.4,63.3492 113.2475,67.2542 115.4169,70.7254 115.4169,75.9322" stroke="#4cffaa" stroke-width="2" /><polyline fill="none" points="77.2339,81.139 88.9492,82.8746 96.3254,86.7797 100.2305,92.4203 100.2305,99.3627" stroke="#aaff4c" stroke-width="2" /><polyline fill="none" points="73.7627,98.9288 75.9322,114.9831 71.5932,119.322" stroke="#ffe500" stroke-width="2" /><polyline fill="none" points="46.4271,52.0678 46.4271,49.4644" stroke="#ff7a00" stroke-width="2" /><polyline fill="none" points="68.122,48.1627 66.8203,51.6339" stroke="#fe1200" stroke-width="2" /><polyline fill="none" points="52.0678,65.9525 62.4814,65.9525 63.3492,67.2542" stroke="#7f0000" stroke-width="2" /></svg>