<?xml version="1.0" encoding="utf-8" ?>
<svg baseProfile="tiny" height="128" version="1.2" viewBox="0,0,128,128" width="128" xmlns="http://www.w3.org/2000/svg" xmlns:ev="http://www.w3.org/2001/xml-events" xmlns:xlink="http://www.w3.org/1999/xlink"><defs /><polyline fill="none" points="85.9119,39.0508 63.7831,53.3695 50.3322,59.0102 38.1831,56.8407 22.5627,48.5966 16.922,48.5966 10.4136,55.1051 8.678,60.7458 9.1119,64.6508 13.8847,68.5559 39.9186,83.3085 51.6339,86.7797 69.4237,86.7797 73.7627,90.6847 75.4983,96.3254 79.4034,99.7966 86.7797,97.6271 89.8169,90.6847 90.2508,88.9492 85.478,85.478 85.9119,84.6102 93.2881,84.1763 97.6271,91.5525 101.5322,91.9864 104.1356,83.7424 95.8915,72.8949 105.0034,74.6305 109.3424,78.9695 114.5492,80.7051 118.8881,75.9322 119.322,72.0271 118.4542,67.6881 107.6068,54.2373 105.0034,52.5017 96.7593,51.2 94.5898,46.861 95.4576,43.3898 101.0983,38.6169 109.3424,28.2034 110.2102,23.4305 106.739,15.1864 100.2305,8.678 95.4576,10.8475 84.1763,23.4305 80.2712,31.2407 75.9322,45.5593" stroke="#00007f" stroke-width="2" /><polyline fill="none" points="27.7695,62.9153 28.6373,66.8203 29.5051,66.3864 28.6373,65.0847 30.8068,66.3864 31.6746,64.2169 30.8068,60.3119 26.9017,63.7831 26.0339,66.8203 31.2407,65.5186 30.8068,64.2169 28.6373,65.0847" stroke="#7f0000" stroke-width="2" /></svg>