<?xml version="1.0" encoding="utf-8" ?>
<svg baseProfile="tiny" height="128" version="1.2" viewBox="0,0,128,128" width="128" xmlns="http://www.w3.org/2000/svg" xmlns:ev="http://www.w3.org/2001/xml-events" xmlns:xlink="http://www.w3.org/1999/xlink"><defs /><polyline fill="none" points="43.8237,29.0712 43.8237,16.0542 46.4271,10.8475 53.3695,31.2407 70.2915,28.2034 80.2712,29.0712" stroke="#00007f" stroke-width="2" /><polyline fill="none" points="80.7051,29.0712 81.139,8.678 85.0441,11.7153 90.6847,18.2237 93.2881,30.3729 91.9864,47.2949" stroke="#0000e8" stroke-width="2" /><polyline fill="none" points="91.9864,46.861 91.1186,57.7085 86.3458,62.9153 53.3695,63.7831 49.0305,62.9153 42.9559,54.2373 39.4847,41.6542 39.0508,28.6373 42.522,20.8271" stroke="#0038ff" stroke-width="2" /><polyline fill="none" points="87.2136,44.2576 89.3831,39.0508 96.7593,31.2407 117.1525,16.0542" stroke="#0094ff" stroke-width="2" /><polyline fill="none" points="87.2136,52.5017 98.9288,45.5593 119.322,39.4847" stroke="#0cf4ea" stroke-width="2" /><polyline fill="none" points="47.7288,52.5017 42.9559,52.0678 26.4678,44.2576 16.922,42.0881" stroke="#56ffa0" stroke-width="2" /><polyline fill="none" points="48.5966,55.1051 8.678,54.6712" stroke="#a0ff56" stroke-width="2" /><polyline fill="none" points="64.2169,53.3695 65.5186,48.5966 70.2915,53.8034 63.3492,53.8034" stroke="#eaff0c" stroke-width="2" /><polyline fill="none" points="53.3695,52.9356 54.2373,55.1051 58.1424,56.8407 65.9525,55.539" stroke="#ffaa00" stroke-width="2" /><polyline fill="none" points="65.9525,56.4068 73.7627,55.539 78.1017,49.0305" stroke="#ff5500" stroke-width="2" /><polyline fill="none" points="71.5932,39.0508 72.8949,48.1627 75.0644,49.4644 78.5356,48.5966 80.7051,43.8237 77.6678,40.3525 72.461,39.9186 67.2542,42.522" stroke="#e80000" stroke-width="2" /><polyline fill="none" points="57.2746,41.2203 58.1424,45.5593 62.0475,45.9932 63.3492,42.9559 60.3119,41.2203 56.4068,41.6542 54.2373,44.6915" stroke="#7f0000" stroke-width="2" /></svg>