<?xml version="1.0" encoding="utf-8" ?>
<svg baseProfile="tiny" height="128" version="1.2" viewBox="0,0,128,128" width="128" xmlns="http://www.w3.org/2000/svg" xmlns:ev="http://www.w3.org/2001/xml-events" xmlns:xlink="http://www.w3.org/1999/xlink"><defs /><polyline fill="none" points="41.6542,52.9356 16.922,55.539 13.0169,58.5763 9.1119,69.8576 9.1119,90.6847 11.2814,95.8915 19.5254,101.5322 34.7119,105.0034 56.8407,107.1729 94.5898,106.739 102.8339,100.6644 107.6068,89.8169 108.9085,68.9898 102.4,61.1797 87.2136,55.9729 62.9153,51.2 53.8034,51.2 49.4644,53.8034" stroke="#00007f" stroke-width="2" /><polyline fill="none" points="57.7085,76.3661 56.8407,76.3661" stroke="#0000e8" stroke-width="2" /><polyline fill="none" points="53.8034,78.5356 15.1864,76.8" stroke="#0038ff" stroke-width="2" /><polyline fill="none" points="59.878,78.5356 76.3661,78.1017 99.3627,82.4407 108.9085,82.4407" stroke="#0094ff" stroke-width="2" /><polyline fill="none" points="55.1051,79.8373 18.2237,81.139 8.678,82.8746" stroke="#0cf4ea" stroke-width="2" /><polyline fill="none" points="57.7085,79.8373 60.3119,79.8373 91.5525,94.5898" stroke="#56ffa0" stroke-width="2" /><polyline fill="none" points="36.8814,65.0847 36.8814,65.0847" stroke="#a0ff56" stroke-width="2" /><polyline fill="none" points="71.5932,64.2169 71.5932,64.2169" stroke="#eaff0c" stroke-width="2" /><polyline fill="none" points="66.8203,64.2169 65.0847,64.6508" stroke="#ffaa00" stroke-width="2" /><polyline fill="none" points="35.1458,65.0847 39.4847,64.2169" stroke="#ff5500" stroke-width="2" /><polyline fill="none" points="17.3559,52.9356 22.1288,32.1085 31.6746,8.678 32.1085,25.1661 35.1458,41.2203" stroke="#e80000" stroke-width="2" /><polyline fill="none" points="92.8542,55.9729 103.2678,43.3898 118.8881,19.9593 119.322,22.1288 111.5119,59.878 111.5119,70.2915" stroke="#7f0000" stroke-width="2" /></svg>