<?xml version="1.0" encoding="utf-8" ?>
<svg baseProfile="tiny" height="128" version="1.2" viewBox="0,0,128,128" width="128" xmlns="http://www.w3.org/2000/svg" xmlns:ev="http://www.w3.org/2001/xml-events" xmlns:xlink="http://www.w3.org/1999/xlink"><defs /><polyline fill="none" points="25.1661,38.1831 25.1661,22.1288 29.939,8.678 33.8441,25.1661 36.8814,32.1085 40.7864,29.0712 51.2,28.2034 55.1051,31.2407 59.4441,32.5424 68.9898,16.4881 74.6305,12.5831 75.4983,13.8847 72.8949,24.7322 65.9525,39.4847" stroke="#00007f" stroke-width="2" /><polyline fill="none" points="33.4102,57.7085 34.278,56.8407 27.7695,53.8034 8.678,52.9356" stroke="#0000f1" stroke-width="2" /><polyline fill="none" points="31.6746,61.6136 11.7153,61.1797" stroke="#004cff" stroke-width="2" /><polyline fill="none" points="29.5051,66.8203 17.7898,68.9898" stroke="#00b0ff" stroke-width="2" /><polyline fill="none" points="62.0475,52.9356 74.1966,49.8983 84.6102,49.8983 84.1763,50.7661" stroke="#29ffcd" stroke-width="2" /><polyline fill="none" points="60.3119,62.0475 75.0644,61.1797 78.9695,62.4814" stroke="#7cff79" stroke-width="2" /><polyline fill="none" points="64.6508,70.2915 83.7424,70.2915 82.8746,69.4237" stroke="#cdff29" stroke-width="2" /><polyline fill="none" points="63.3492,44.2576 66.8203,48.1627 68.122,52.5017 68.5559,68.9898 65.0847,75.0644 61.1797,73.7627" stroke="#ffc400" stroke-width="2" /><polyline fill="none" points="34.7119,44.6915 29.0712,52.0678 27.7695,56.4068 27.7695,68.122 30.3729,73.7627 39.0508,77.2339 58.1424,76.8" stroke="#ff6700" stroke-width="2" /><polyline fill="none" points="47.7288,77.2339 47.7288,81.139 41.6542,86.3458 38.6169,91.5525 32.9763,105.8712 32.5424,118.0203 33.8441,119.322" stroke="#f10700" stroke-width="2" /><polyline fill="none" points="53.8034,78.9695 54.6712,81.5729 61.6136,86.3458 66.3864,101.5322 68.5559,104.1356 70.2915,109.7763 72.461,110.6441 75.0644,108.4746 82.8746,108.4746 92.8542,105.4373 101.5322,99.7966 106.3051,92.4203 109.7763,78.9695 114.1153,71.5932 114.1153,90.2508 112.3797,96.7593 105.8712,108.9085 98.061,114.9831 86.3458,118.0203 76.3661,118.0203" stroke="#7f0000" stroke-width="2" /></svg>