<?xml version="1.0" encoding="utf-8" ?>
<svg baseProfile="tiny" height="128" version="1.2" viewBox="0,0,128,128" width="128" xmlns="http://www.w3.org/2000/svg" xmlns:ev="http://www.w3.org/2001/xml-events" xmlns:xlink="http://www.w3.org/1999/xlink"><defs /><polyline fill="none" points="18.6576,55.1051 10.4136,24.2983 8.678,8.678 41.2203,52.0678 59.878,47.7288 69.8576,47.7288 83.3085,21.261 87.6475,16.0542 89.8169,42.0881 87.2136,51.2 96.7593,65.0847 99.3627,77.2339 99.7966,92.8542 97.6271,104.5695 94.1559,108.9085 82.0068,114.5492 67.2542,118.0203 33.4102,119.322 30.3729,118.0203 26.9017,114.1153 25.1661,108.4746 28.2034,62.0475 25.6,55.9729 22.9966,54.6712 21.261,55.9729" stroke="#00007f" stroke-width="2" /><polyline fill="none" points="58.5763,86.7797 54.6712,89.3831 55.539,94.5898 64.2169,96.3254 71.5932,96.3254 77.6678,93.2881 75.9322,87.2136 71.1593,85.0441 61.1797,86.7797" stroke="#0080ff" stroke-width="2" /><polyline fill="none" points="73.7627,89.8169 74.6305,85.478 79.8373,79.4034 83.7424,77.6678 94.1559,75.4983" stroke="#7cff79" stroke-width="2" /><polyline fill="none" points="84.6102,88.5153 90.6847,84.6102 97.1932,82.4407" stroke="#ff9400" stroke-width="2" /><polyline fill="none" points="78.5356,94.5898 82.4407,94.5898" stroke="#7f0000" stroke-width="2" /></svg>