<?xml version="1.0" encoding="utf-8" ?>
<svg baseProfile="tiny" height="128" version="1.2" viewBox="0,0,128,128" width="128" xmlns="http://www.w3.org/2000/svg" xmlns:ev="http://www.w3.org/2001/xml-events" xmlns:xlink="http://www.w3.org/1999/xlink"><defs /><polyline fill="none" points="57.2746,29.0712 45.5593,28.6373 39.9186,30.3729 32.9763,33.4102 21.6949,42.0881 16.0542,48.5966 11.2814,57.2746 9.1119,64.6508 8.678,76.8 10.8475,83.3085 19.9593,94.5898 26.0339,99.3627 39.4847,105.8712 47.2949,107.6068 62.4814,107.6068 76.8,101.5322 83.3085,96.3254 92.8542,85.0441 98.9288,74.1966 99.7966,56.8407 96.3254,44.6915 91.1186,33.8441 83.3085,26.4678 78.1017,23.8644 68.5559,20.8271 58.5763,20.8271 52.5017,22.5627 43.8237,28.6373 38.6169,37.7492 37.7492,42.9559" stroke="#00007f" stroke-width="2" /><polyline fill="none" points="87.2136,31.6746 92.8542,24.7322 104.5695,15.6203 114.9831,9.5458 119.322,8.678 96.3254,43.8237" stroke="#0000f1" stroke-width="2" /><polyline fill="none" points="43.3898,39.9186 31.2407,30.3729 9.9797,21.261 10.4136,28.2034 17.3559,48.5966 20.8271,55.9729" stroke="#004cff" stroke-width="2" /><polyline fill="none" points="44.2576,62.9153 44.2576,62.9153" stroke="#00b0ff" stroke-width="2" /><polyline fill="none" points="74.1966,51.2 74.1966,51.2" stroke="#29ffcd" stroke-width="2" /><polyline fill="none" points="48.1627,60.3119 49.0305,55.1051 52.0678,51.2 51.2,54.2373" stroke="#7cff79" stroke-width="2" /><polyline fill="none" points="73.3288,56.8407 72.461,53.3695" stroke="#cdff29" stroke-width="2" /><polyline fill="none" points="78.1017,45.5593 77.6678,52.9356" stroke="#ffc400" stroke-width="2" /><polyline fill="none" points="55.1051,68.5559 67.6881,70.2915 67.6881,73.3288 65.0847,78.1017 59.878,80.2712 58.1424,80.2712 55.539,77.6678 54.2373,68.5559" stroke="#ff6700" stroke-width="2" /><polyline fill="none" points="62.9153,78.1017 61.6136,83.3085 62.0475,92.4203 65.5186,94.5898 68.5559,94.5898 70.2915,93.722 72.8949,88.5153" stroke="#f10700" stroke-width="2" /><polyline fill="none" points="62.9153,81.139 61.6136,83.7424 60.7458,92.8542 56.8407,95.8915 54.6712,95.8915 52.5017,93.2881 49.0305,82.8746" stroke="#7f0000" stroke-width="2" /></svg>