<?xml version="1.0" encoding="utf-8" ?>
<svg baseProfile="tiny" height="128" version="1.2" viewBox="0,0,128,128" width="128" xmlns="http://www.w3.org/2000/svg" xmlns:ev="http://www.w3.org/2001/xml-events" xmlns:xlink="http://www.w3.org/1999/xlink"><defs /><polyline fill="none" points="83.3085,44.2576 78.9695,42.0881 58.5763,39.9186 46.861,39.9186 42.0881,42.0881 39.9186,48.5966 39.9186,68.122 43.3898,76.8 51.6339,86.3458 63.7831,91.5525 75.0644,93.2881 79.8373,90.6847 96.3254,69.8576 97.6271,59.878 82.4407,44.6915 75.4983,39.9186 75.4983,37.3153" stroke="#00007f" stroke-width="2" /><polyline fill="none" points="75.4983,35.1458 98.4949,12.1492 101.0983,16.922 101.9661,22.9966 101.0983,56.8407" stroke="#0028ff" stroke-width="2" /><polyline fill="none" points="51.2,32.9763 49.0305,28.2034 32.1085,8.678 30.3729,12.5831 32.9763,21.261 38.6169,33.8441 42.0881,37.3153" stroke="#00d4ff" stroke-width="2" /><polyline fill="none" points="91.9864,74.6305 101.0983,75.4983 105.8712,77.6678 114.5492,82.8746 119.322,90.6847" stroke="#7cff79" stroke-width="2" /><polyline fill="none" points="85.0441,77.6678 95.0237,78.9695 100.6644,81.5729 111.078,89.3831 118.4542,98.4949" stroke="#ffe500" stroke-width="2" /><polyline fill="none" points="85.0441,82.4407 98.9288,92.8542 114.9831,114.5492" stroke="#ff4600" stroke-width="2" /><polyline fill="none" points="41.2203,63.7831 37.7492,62.0475 16.4881,62.0475 10.8475,63.7831 8.678,68.5559" stroke="#7f0000" stroke-width="2" /></svg>