<?xml version="1.0" encoding="utf-8" ?>
<svg baseProfile="tiny" height="128" version="1.2" viewBox="0,0,128,128" width="128" xmlns="http://www.w3.org/2000/svg" xmlns:ev="http://www.w3.org/2001/xml-events" xmlns:xlink="http://www.w3.org/1999/xlink"><defs /><polyline fill="none" points="32.9763,51.6339 31.2407,48.5966 31.2407,42.522 26.4678,32.5424 26.0339,22.5627 22.5627,19.5254 22.1288,13.4508 24.2983,21.261 33.4102,38.1831 43.3898,46.4271 46.861,46.4271" stroke="#00007f" stroke-width="2" /><polyline fill="none" points="88.5153,42.9559 91.5525,41.6542 91.9864,36.4475 105.8712,11.7153 105.8712,8.678 105.8712,25.1661 108.4746,28.2034 107.6068,50.3322" stroke="#0080ff" stroke-width="2" /><polyline fill="none" points="49.8983,47.2949 40.7864,48.5966 26.9017,55.539 22.9966,62.0475 22.9966,71.5932 27.7695,79.4034 27.7695,86.7797 42.9559,100.6644 53.3695,106.739 60.3119,108.4746 81.5729,108.4746 103.7017,102.4 111.5119,98.9288 117.5864,94.5898 119.322,90.6847 119.322,69.4237 117.5864,64.6508 104.5695,49.4644 101.0983,48.1627 58.5763,47.2949 55.1051,49.0305 51.2,49.0305 49.0305,52.0678" stroke="#7cff79" stroke-width="2" /><polyline fill="none" points="36.8814,88.0814 26.0339,93.2881 15.1864,94.5898 9.1119,98.4949 8.678,101.5322" stroke="#ff9400" stroke-width="2" /><polyline fill="none" points="42.0881,103.7017 38.1831,105.8712" stroke="#7f0000" stroke-width="2" /></svg>