<?xml version="1.0" encoding="utf-8" ?>
<svg baseProfile="tiny" height="128" version="1.2" viewBox="0,0,128,128" width="128" xmlns="http://www.w3.org/2000/svg" xmlns:ev="http://www.w3.org/2001/xml-events" xmlns:xlink="http://www.w3.org/1999/xlink"><defs /><polyline fill="none" points="79.8373,34.7119 72.461,31.2407 64.6508,30.8068 59.878,32.5424 50.7661,39.0508 43.3898,47.2949 42.9559,56.8407 48.5966,65.5186 55.1051,70.2915 66.8203,73.3288 75.4983,72.461 83.3085,66.8203 88.5153,60.3119 89.8169,55.539 89.3831,47.7288 85.478,41.2203 72.461,33.8441" stroke="#00007f" stroke-width="2" /><polyline fill="none" points="50.3322,63.3492 47.2949,95.4576 51.2,91.1186 55.9729,90.6847" stroke="#0000c3" stroke-width="2" /><polyline fill="none" points="49.8983,92.8542 52.9356,95.8915 59.4441,95.8915 59.878,91.1186 56.4068,88.0814 55.539,78.1017 59.878,63.7831" stroke="#0000ff" stroke-width="2" /><polyline fill="none" points="73.3288,73.3288 71.5932,89.3831 75.9322,85.0441 80.7051,84.6102 83.7424,87.2136 86.3458,91.5525 85.0441,94.5898 81.139,96.7593 74.1966,97.6271 72.461,95.4576 72.461,89.3831 74.6305,83.7424" stroke="#0034ff" stroke-width="2" /><polyline fill="none" points="71.5932,86.3458 75.9322,90.6847 84.6102,90.6847 88.9492,86.3458 91.1186,80.7051" stroke="#0070ff" stroke-width="2" /><polyline fill="none" points="119.322,30.8068 117.5864,29.0712 106.3051,26.9017 102.8339,26.9017 95.8915,31.6746 88.5153,45.5593 86.3458,54.2373 87.2136,59.4441 95.0237,61.6136 107.1729,60.7458 112.3797,57.7085 118.8881,51.2 119.322,44.6915 117.1525,39.9186 104.1356,29.5051" stroke="#00acff" stroke-width="2" /><polyline fill="none" points="90.6847,37.3153 86.7797,29.5051 84.1763,19.0915 87.6475,21.261 95.0237,36.0136 96.3254,37.3153 98.061,33.4102" stroke="#02e8f4" stroke-width="2" /><polyline fill="none" points="105.4373,22.5627 105.8712,24.2983 107.1729,23.4305 109.7763,8.678 113.2475,27.7695 114.5492,28.2034 119.322,23.8644" stroke="#32ffc3" stroke-width="2" /><polyline fill="none" points="101.0983,54.6712 95.8915,55.1051 92.4203,53.8034" stroke="#63ff93" stroke-width="2" /><polyline fill="none" points="105.8712,54.2373 103.2678,52.9356 103.2678,50.7661 104.1356,47.7288 106.739,45.1254" stroke="#93ff63" stroke-width="2" /><polyline fill="none" points="115.8508,45.9932 118.0203,45.1254" stroke="#c3ff32" stroke-width="2" /><polyline fill="none" points="95.0237,52.0678 95.8915,43.3898" stroke="#f4f802" stroke-width="2" /><polyline fill="none" points="110.6441,54.6712 118.8881,46.861" stroke="#ffc000" stroke-width="2" /><polyline fill="none" points="44.6915,44.6915 39.0508,48.5966 32.5424,49.4644 25.1661,45.1254 15.6203,35.5797 9.5458,36.4475 8.678,40.7864 8.678,47.2949 11.7153,51.6339 17.7898,56.8407 23.4305,59.0102 35.5797,59.878 44.6915,53.8034" stroke="#ff8900" stroke-width="2" /><polyline fill="none" points="16.922,37.3153 16.0542,51.2 17.7898,57.2746" stroke="#ff5100" stroke-width="2" /><polyline fill="none" points="22.1288,46.4271 21.6949,49.0305 25.6,62.4814" stroke="#ff1a00" stroke-width="2" /><polyline fill="none" points="27.3356,49.4644 27.7695,54.6712 30.3729,61.1797" stroke="#c30000" stroke-width="2" /><polyline fill="none" points="36.4475,46.861 35.5797,49.0305 37.3153,52.0678" stroke="#7f0000" stroke-width="2" /></svg>