<?xml version="1.0" encoding="utf-8" ?>
<svg baseProfile="tiny" height="128" version="1.2" viewBox="0,0,128,128" width="128" xmlns="http://www.w3.org/2000/svg" xmlns:ev="http://www.w3.org/2001/xml-events" xmlns:xlink="http://www.w3.org/1999/xlink"><defs /><polyline fill="none" points="67.2542,24.7322 63.3492,24.7322 38.1831,35.1458 31.6746,39.0508 20.8271,47.7288 14.7525,59.0102 14.7525,67.6881 19.0915,73.3288 27.7695,78.1017 48.5966,82.8746 68.9898,84.6102 91.9864,83.7424 105.0034,75.4983 110.6441,67.6881 112.8136,62.4814 112.3797,46.4271 104.1356,33.4102 95.8915,25.6 86.7797,22.1288 71.1593,22.1288 59.0102,23.8644" stroke="#00007f" stroke-width="2" /><polyline fill="none" points="55.9729,53.3695 59.878,52.5017 60.3119,53.8034 59.878,56.4068 56.4068,57.2746 52.9356,54.6712 52.5017,52.5017" stroke="#0000d1" stroke-width="2" /><polyline fill="none" points="97.1932,51.6339 119.322,56.8407" stroke="#0010ff" stroke-width="2" /><polyline fill="none" points="94.5898,63.3492 111.9458,72.8949" stroke="#0058ff" stroke-width="2" /><polyline fill="none" points="89.3831,73.7627 89.3831,81.139 94.1559,89.3831" stroke="#00a4ff" stroke-width="2" /><polyline fill="none" points="12.5831,56.4068 32.5424,56.4068" stroke="#05ecf1" stroke-width="2" /><polyline fill="none" points="8.678,68.5559 18.6576,69.4237 23.8644,66.3864" stroke="#3fffb7" stroke-width="2" /><polyline fill="none" points="17.3559,79.4034 30.3729,70.7254" stroke="#7cff79" stroke-width="2" /><polyline fill="none" points="39.9186,64.2169 43.8237,71.5932 47.7288,72.461 51.6339,69.4237 56.4068,75.0644 64.6508,70.7254 65.9525,68.5559 65.9525,65.5186" stroke="#b7ff3f" stroke-width="2" /><polyline fill="none" points="42.522,42.522 47.2949,45.5593 46.861,46.861 43.8237,46.861 42.9559,44.2576" stroke="#f1fc05" stroke-width="2" /><polyline fill="none" points="91.1186,44.2576 87.6475,47.7288 83.3085,46.4271 82.8746,42.9559 88.5153,41.6542" stroke="#ffb900" stroke-width="2" /><polyline fill="none" points="89.3831,30.8068 100.6644,21.261 117.1525,11.2814 110.6441,31.2407 110.6441,34.7119" stroke="#ff7300" stroke-width="2" /><polyline fill="none" points="117.1525,8.678 117.1525,27.7695 114.5492,40.7864" stroke="#ff3000" stroke-width="2" /><polyline fill="none" points="31.6746,38.1831 26.0339,23.8644 29.939,25.6 40.3525,33.8441" stroke="#d10000" stroke-width="2" /><polyline fill="none" points="22.9966,21.6949 27.7695,19.9593 37.3153,19.9593" stroke="#7f0000" stroke-width="2" /></svg>