<?xml version="1.0" encoding="utf-8" ?>
<svg baseProfile="tiny" height="128" version="1.2" viewBox="0,0,128,128" width="128" xmlns="http://www.w3.org/2000/svg" xmlns:ev="http://www.w3.org/2001/xml-events" xmlns:xlink="http://www.w3.org/1999/xlink"><defs /><polyline fill="none" points="83.7424,20.3932 79.4034,16.922 59.0102,9.5458 45.1254,8.678 40.3525,9.9797 35.5797,13.0169 30.8068,26.4678 29.939,48.5966 32.5424,55.539 36.8814,61.1797 42.0881,65.5186 51.2,68.9898 64.2169,69.8576 74.1966,65.9525 85.478,55.539 92.8542,40.3525 93.2881,32.9763 88.9492,26.9017 79.8373,20.3932 65.9525,16.4881" stroke="#00007f" stroke-width="2" /><polyline fill="none" points="49.0305,37.3153 22.9966,28.6373" stroke="#0000de" stroke-width="2" /><polyline fill="none" points="55.1051,45.5593 31.2407,42.522 17.7898,43.3898" stroke="#0028ff" stroke-width="2" /><polyline fill="none" points="55.1051,48.5966 26.4678,65.0847" stroke="#0080ff" stroke-width="2" /><polyline fill="none" points="76.3661,34.278 91.1186,34.278 114.9831,28.2034" stroke="#00d4ff" stroke-width="2" /><polyline fill="none" points="77.2339,41.2203 82.8746,42.9559 94.5898,42.522 116.7186,36.0136" stroke="#36ffc0" stroke-width="2" /><polyline fill="none" points="77.2339,51.6339 95.8915,62.0475 108.4746,65.9525" stroke="#7cff79" stroke-width="2" /><polyline fill="none" points="80.7051,47.7288 119.322,55.539" stroke="#c0ff36" stroke-width="2" /><polyline fill="none" points="44.2576,47.7288 28.6373,49.0305 9.9797,56.8407 8.678,57.2746 9.5458,55.9729" stroke="#ffe500" stroke-width="2" /><polyline fill="none" points="42.522,39.9186 24.2983,36.8814" stroke="#ff9400" stroke-width="2" /><polyline fill="none" points="60.3119,43.8237 63.3492,50.3322" stroke="#ff4600" stroke-width="2" /><polyline fill="none" points="45.1254,16.4881 45.9932,19.5254" stroke="#de0000" stroke-width="2" /><polyline fill="none" points="64.2169,21.6949 64.6508,26.0339" stroke="#7f0000" stroke-width="2" /></svg>