<?xml version="1.0" encoding="utf-8" ?>
<svg baseProfile="tiny" height="128" version="1.2" viewBox="0,0,128,128" width="128" xmlns="http://www.w3.org/2000/svg" xmlns:ev="http://www.w3.org/2001/xml-events" xmlns:xlink="http://www.w3.org/1999/xlink"><defs /><polyline fill="none" points="41.2203,49.8983 28.6373,52.5017 22.1288,56.8407 19.0915,59.878 14.7525,67.2542 13.8847,88.5153 16.4881,94.5898 24.2983,105.4373 35.5797,114.1153 47.7288,118.8881 61.1797,119.322 65.5186,118.0203 74.1966,105.4373 81.139,90.6847 82.8746,75.9322 75.0644,65.0847 66.3864,58.5763 47.7288,51.2 36.8814,50.7661" stroke="#00007f" stroke-width="2" /><polyline fill="none" points="10.4136,61.1797 8.678,56.8407 9.1119,34.278 11.2814,28.2034 22.9966,9.5458 25.6,12.5831 32.9763,41.2203 39.4847,45.9932" stroke="#0010ff" stroke-width="2" /><polyline fill="none" points="62.9153,57.2746 75.4983,28.6373 88.5153,8.678 89.8169,11.7153 89.3831,26.4678 81.139,53.8034" stroke="#00a4ff" stroke-width="2" /><polyline fill="none" points="34.278,68.5559 32.9763,75.4983" stroke="#3fffb7" stroke-width="2" /><polyline fill="none" points="52.5017,65.0847 54.2373,75.4983" stroke="#b7ff3f" stroke-width="2" /><polyline fill="none" points="39.4847,96.3254 37.3153,100.6644 40.7864,105.8712 48.5966,110.6441 53.8034,110.6441 57.7085,108.9085 60.3119,99.7966 58.5763,96.3254 48.1627,95.0237" stroke="#ffb900" stroke-width="2" /><polyline fill="none" points="14.7525,86.3458 26.4678,91.5525 39.4847,93.722" stroke="#ff3000" stroke-width="2" /><polyline fill="none" points="32.9763,99.7966 16.922,106.739" stroke="#7f0000" stroke-width="2" /></svg>