<?xml version="1.0" encoding="utf-8" ?>
<svg baseProfile="tiny" height="128" version="1.2" viewBox="0,0,128,128" width="128" xmlns="http://www.w3.org/2000/svg" xmlns:ev="http://www.w3.org/2001/xml-events" xmlns:xlink="http://www.w3.org/1999/xlink"><defs /><polyline fill="none" points="64.6508,77.2339 59.878,63.3492 54.2373,56.4068 46.861,52.9356 40.3525,51.6339 27.7695,53.8034 20.3932,59.4441 14.7525,66.3864 10.4136,75.9322 8.678,86.3458 9.9797,95.0237 12.1492,100.2305 22.5627,111.078 36.4475,118.0203 46.861,119.322 58.5763,118.4542 71.1593,114.9831 76.8,110.6441 80.2712,105.4373 82.4407,98.9288 82.0068,87.6475 78.9695,76.8 72.0271,64.2169 63.3492,54.2373 55.9729,51.2 49.0305,52.5017" stroke="#00007f" stroke-width="2" /><polyline fill="none" points="11.7153,63.7831 24.7322,19.0915 27.3356,14.3186 29.5051,19.0915 38.1831,59.0102" stroke="#0000fe" stroke-width="2" /><polyline fill="none" points="55.539,49.8983 63.3492,18.6576 68.5559,8.678 71.1593,10.8475 73.7627,26.4678 80.2712,46.4271 82.8746,62.4814" stroke="#0060ff" stroke-width="2" /><polyline fill="none" points="85.478,52.0678 76.8,83.7424" stroke="#00d4ff" stroke-width="2" /><polyline fill="none" points="38.6169,87.2136 42.522,90.2508 49.8983,91.9864 49.8983,94.1559 46.861,96.7593 41.2203,96.7593 36.8814,91.1186 38.1831,86.3458" stroke="#4cffaa" stroke-width="2" /><polyline fill="none" points="44.2576,95.0237 40.7864,106.739 34.278,110.2102 26.9017,109.7763" stroke="#aaff4c" stroke-width="2" /><polyline fill="none" points="45.1254,98.4949 45.1254,102.8339 49.0305,111.5119 51.6339,114.5492" stroke="#ffe500" stroke-width="2" /><polyline fill="none" points="37.3153,87.6475 25.6,83.7424 19.9593,83.7424" stroke="#ff7a00" stroke-width="2" /><polyline fill="none" points="37.3153,92.4203 30.3729,91.1186 24.2983,91.9864 16.4881,95.0237" stroke="#fe1200" stroke-width="2" /><polyline fill="none" points="54.6712,93.722 65.9525,95.0237" stroke="#7f0000" stroke-width="2" /></svg>