<?xml version="1.0" encoding="utf-8" ?>
<svg baseProfile="tiny" height="128" version="1.2" viewBox="0,0,128,128" width="128" xmlns="http://www.w3.org/2000/svg" xmlns:ev="http://www.w3.org/2001/xml-events" xmlns:xlink="http://www.w3.org/1999/xlink"><defs /><polyline fill="none" points="53.3695,18.2237 45.9932,17.7898 38.6169,19.9593 32.1085,10.8475 28.2034,33.4102 28.6373,37.3153 35.1458,41.6542 42.9559,44.2576 52.9356,45.5593 61.1797,37.7492 64.2169,19.0915 64.2169,10.8475 59.4441,8.678 56.8407,9.9797 54.2373,18.2237" stroke="#00007f" stroke-width="2" /><polyline fill="none" points="48.5966,28.2034 43.3898,28.6373 42.9559,31.2407 43.8237,34.278 45.5593,34.7119 48.5966,29.939" stroke="#0000e8" stroke-width="2" /><polyline fill="none" points="44.6915,34.278 39.9186,39.4847 34.278,38.6169" stroke="#0038ff" stroke-width="2" /><polyline fill="none" points="43.8237,34.7119 45.1254,37.3153 50.7661,40.7864 53.3695,41.6542 55.1051,39.9186" stroke="#0094ff" stroke-width="2" /><polyline fill="none" points="56.8407,24.7322 52.0678,25.1661 52.5017,29.0712 55.9729,29.0712 54.2373,26.9017" stroke="#0cf4ea" stroke-width="2" /><polyline fill="none" points="37.3153,23.8644 40.3525,26.4678 39.0508,29.5051 36.0136,29.939 36.0136,25.1661" stroke="#56ffa0" stroke-width="2" /><polyline fill="none" points="39.9186,33.8441 34.7119,31.2407 19.9593,31.2407" stroke="#a0ff56" stroke-width="2" /><polyline fill="none" points="33.4102,35.1458 19.9593,35.1458" stroke="#eaff0c" stroke-width="2" /><polyline fill="none" points="32.1085,36.0136 8.678,46.4271" stroke="#ffaa00" stroke-width="2" /><polyline fill="none" points="54.6712,32.5424 85.0441,32.5424" stroke="#ff5500" stroke-width="2" /><polyline fill="none" points="56.8407,34.7119 66.3864,39.9186 79.4034,44.2576 95.0237,48.1627 112.3797,50.7661" stroke="#e80000" stroke-width="2" /><polyline fill="none" points="56.4068,37.7492 66.3864,49.8983 84.6102,66.8203 109.3424,82.4407 119.322,85.9119" stroke="#7f0000" stroke-width="2" /></svg>