<?xml version="1.0" encoding="utf-8" ?>
<svg baseProfile="tiny" height="128" version="1.2" viewBox="0,0,128,128" width="128" xmlns="http://www.w3.org/2000/svg" xmlns:ev="http://www.w3.org/2001/xml-events" xmlns:xlink="http://www.w3.org/1999/xlink"><defs /><polyline fill="none" points="27.7695,49.4644 19.5254,57.7085 13.0169,68.122 8.678,81.5729 8.678,95.0237 13.4508,105.4373 20.3932,112.3797 34.7119,117.5864 49.8983,119.322 58.5763,116.7186 66.3864,112.3797 77.6678,104.5695 83.3085,97.6271 84.6102,92.8542 84.1763,82.0068 81.139,72.8949 72.0271,56.4068 67.6881,52.0678 62.4814,49.4644 49.8983,45.9932 30.3729,44.2576 26.0339,45.9932 21.6949,49.8983" stroke="#00007f" stroke-width="2" /><polyline fill="none" points="22.1288,49.8983 26.9017,20.8271 26.9017,9.9797 28.6373,8.678 36.4475,19.5254 40.3525,30.3729 42.0881,41.2203" stroke="#0000fe" stroke-width="2" /><polyline fill="none" points="48.1627,45.5593 72.8949,30.3729 78.1017,25.1661 78.9695,26.9017 80.2712,70.2915 76.3661,70.2915 69.8576,74.6305" stroke="#0060ff" stroke-width="2" /><polyline fill="none" points="48.1627,81.139 53.8034,82.4407 54.2373,84.1763 49.0305,85.0441 44.6915,83.3085 36.0136,84.1763" stroke="#00d4ff" stroke-width="2" /><polyline fill="none" points="28.6373,85.9119 24.7322,87.6475 21.6949,91.5525 20.8271,93.2881 23.4305,94.1559" stroke="#4cffaa" stroke-width="2" /><polyline fill="none" points="34.7119,93.722 29.0712,96.3254 25.6,99.7966 26.9017,99.7966" stroke="#aaff4c" stroke-width="2" /><polyline fill="none" points="58.5763,86.3458 72.461,85.9119" stroke="#ffe500" stroke-width="2" /><polyline fill="none" points="65.5186,96.3254 75.0644,102.4 77.6678,106.3051" stroke="#ff7a00" stroke-width="2" /><polyline fill="none" points="47.7288,67.6881 47.7288,67.6881" stroke="#fe1200" stroke-width="2" /><polyline fill="none" points="66.3864,75.0644 65.9525,75.0644" stroke="#7f0000" stroke-width="2" /></svg>