<?xml version="1.0" encoding="utf-8" ?>
<svg baseProfile="tiny" height="128" version="1.2" viewBox="0,0,128,128" width="128" xmlns="http://www.w3.org/2000/svg" xmlns:ev="http://www.w3.org/2001/xml-events" xmlns:xlink="http://www.w3.org/1999/xlink"><defs /><polyline fill="none" points="47.2949,21.261 40.3525,20.8271 32.5424,23.4305 25.1661,13.0169 24.7322,19.5254 26.4678,26.9017 23.4305,30.3729 21.261,36.4475 21.261,42.9559 22.9966,48.5966 29.0712,56.4068 36.8814,60.3119 54.6712,63.3492 69.4237,63.7831 74.1966,63.7831 80.7051,61.6136 86.3458,55.539 90.2508,41.6542 89.8169,32.5424 88.0814,28.2034 82.0068,21.6949 72.461,19.0915 72.8949,8.678 64.6508,13.0169 61.6136,18.2237 47.7288,21.261" stroke="#00007f" stroke-width="2" /><polyline fill="none" points="36.0136,42.0881 8.678,29.939" stroke="#004cff" stroke-width="2" /><polyline fill="none" points="35.5797,50.3322 21.6949,56.4068" stroke="#29ffcd" stroke-width="2" /><polyline fill="none" points="74.1966,45.1254 119.322,38.6169" stroke="#cdff29" stroke-width="2" /><polyline fill="none" points="77.2339,50.7661 78.1017,54.6712 83.3085,62.4814 88.5153,69.4237 87.6475,66.8203" stroke="#ff6700" stroke-width="2" /><polyline fill="none" points="43.8237,29.0712 41.6542,31.2407 41.6542,34.7119 44.6915,36.8814 47.2949,36.4475 47.7288,31.6746 43.3898,29.939" stroke="#7f0000" stroke-width="2" /></svg>