<?xml version="1.0" encoding="utf-8" ?>
<svg baseProfile="tiny" height="128" version="1.2" viewBox="0,0,128,128" width="128" xmlns="http://www.w3.org/2000/svg" xmlns:ev="http://www.w3.org/2001/xml-events" xmlns:xlink="http://www.w3.org/1999/xlink"><defs /><polyline fill="none" points="53.3695,61.1797 53.3695,72.0271 55.1051,76.3661" stroke="#00007f" stroke-width="2" /><polyline fill="none" points="63.7831,63.3492 68.122,76.8 72.0271,78.9695" stroke="#0000ba" stroke-width="2" /><polyline fill="none" points="81.5729,65.0847 85.478,74.6305 88.0814,76.8" stroke="#0000f5" stroke-width="2" /><polyline fill="none" points="95.4576,71.5932 96.7593,79.8373" stroke="#0020ff" stroke-width="2" /><polyline fill="none" points="48.5966,65.5186 78.1017,67.6881 93.2881,67.6881 106.739,59.0102 111.078,52.0678 110.2102,43.8237 105.8712,41.6542 98.9288,40.3525 81.139,40.3525 72.8949,44.6915 52.0678,45.9932 44.2576,55.539 42.522,59.878 54.2373,62.9153 62.9153,63.3492 64.6508,62.0475" stroke="#0054ff" stroke-width="2" /><polyline fill="none" points="109.3424,41.6542 118.4542,27.7695 119.322,15.6203 118.0203,8.678" stroke="#008cff" stroke-width="2" /><polyline fill="none" points="50.7661,42.9559 41.6542,34.7119 31.6746,30.3729 22.1288,31.2407 16.0542,36.4475 10.4136,49.0305 10.4136,52.5017 13.4508,55.539 19.9593,57.2746 35.5797,56.8407 45.1254,51.2" stroke="#00c0ff" stroke-width="2" /><polyline fill="none" points="24.2983,47.2949 52.9356,50.3322" stroke="#0ff8e7" stroke-width="2" /><polyline fill="none" points="28.6373,50.7661 36.0136,52.5017" stroke="#39ffbd" stroke-width="2" /><polyline fill="none" points="27.7695,53.3695 35.5797,54.2373" stroke="#66ff90" stroke-width="2" /><polyline fill="none" points="16.922,48.1627 8.678,49.0305" stroke="#90ff66" stroke-width="2" /><polyline fill="none" points="16.922,50.3322 12.1492,50.7661 8.678,53.3695" stroke="#bdff39" stroke-width="2" /><polyline fill="none" points="16.0542,54.2373 9.9797,54.2373" stroke="#e7ff0f" stroke-width="2" /><polyline fill="none" points="16.922,47.7288 22.1288,50.7661 16.922,51.2 17.3559,47.2949" stroke="#ffd300" stroke-width="2" /><polyline fill="none" points="23.8644,37.3153 21.6949,40.3525 24.2983,40.7864 25.6,39.4847 25.6,36.4475 22.9966,36.8814" stroke="#ffa300" stroke-width="2" /><polyline fill="none" points="29.939,37.3153 28.2034,37.7492 28.2034,40.3525 32.1085,41.2203 32.9763,37.7492 29.0712,37.7492" stroke="#ff6f00" stroke-width="2" /><polyline fill="none" points="19.9593,31.2407 19.9593,23.8644 21.261,20.3932 22.9966,22.9966 23.4305,29.0712" stroke="#ff3f00" stroke-width="2" /><polyline fill="none" points="28.6373,29.5051 44.6915,24.7322 37.3153,34.278" stroke="#f50b00" stroke-width="2" /><polyline fill="none" points="110.2102,47.7288 108.4746,49.8983" stroke="#ba0000" stroke-width="2" /><polyline fill="none" points="108.4746,47.7288 109.3424,49.8983" stroke="#7f0000" stroke-width="2" /></svg>