<?xml version="1.0" encoding="utf-8" ?>
<svg baseProfile="tiny" height="128" version="1.2" viewBox="0,0,128,128" width="128" xmlns="http://www.w3.org/2000/svg" xmlns:ev="http://www.w3.org/2001/xml-events" xmlns:xlink="http://www.w3.org/1999/xlink"><defs /><polyline fill="none" points="16.4881,45.1254 16.4881,39.0508 13.0169,18.2237 13.4508,8.678 21.6949,17.7898 33.8441,36.8814 42.0881,34.7119 59.0102,33.8441 71.5932,36.4475 76.8,38.6169 82.4407,33.8441 91.1186,22.5627 104.5695,10.8475 106.3051,13.4508 106.739,19.0915 100.6644,53.3695" stroke="#00007f" stroke-width="2" /><polyline fill="none" points="12.5831,48.1627 8.678,64.6508 8.678,80.7051 13.0169,94.1559 19.0915,104.1356 25.1661,110.2102 31.6746,114.9831 44.6915,119.322 58.1424,118.0203 75.4983,113.2475 88.5153,105.4373 95.8915,96.7593 99.3627,91.1186 102.4,77.2339 100.2305,59.4441 95.8915,50.3322" stroke="#0080ff" stroke-width="2" /><polyline fill="none" points="39.0508,57.2746 35.1458,65.9525 36.0136,71.1593 39.0508,68.5559 41.2203,58.1424 38.6169,56.4068 37.3153,61.1797 37.3153,66.3864 38.6169,62.0475" stroke="#7cff79" stroke-width="2" /><polyline fill="none" points="66.8203,60.3119 64.2169,68.5559 65.9525,73.7627 68.5559,72.461 69.8576,69.4237 70.7254,61.6136 70.2915,58.5763 67.2542,66.8203" stroke="#ff9400" stroke-width="2" /><polyline fill="none" points="49.8983,83.7424 62.0475,84.1763 59.4441,92.8542 55.9729,98.4949 52.9356,97.1932 46.861,85.9119" stroke="#7f0000" stroke-width="2" /></svg>