<?xml version="1.0" encoding="utf-8" ?>
<svg baseProfile="tiny" height="128" version="1.2" viewBox="0,0,128,128" width="128" xmlns="http://www.w3.org/2000/svg" xmlns:ev="http://www.w3.org/2001/xml-events" xmlns:xlink="http://www.w3.org/1999/xlink"><defs /><polyline fill="none" points="14.3186,69.4237 19.0915,57.7085 26.9017,45.9932 28.6373,52.0678 27.7695,70.2915 33.4102,65.0847 42.0881,64.6508 48.5966,67.6881 51.2,75.4983 67.2542,55.1051 69.4237,57.7085 69.4237,81.139" stroke="#00007f" stroke-width="2" /><polyline fill="none" points="13.0169,65.5186 9.5458,74.1966 8.678,82.0068 9.9797,86.3458 16.4881,93.2881 26.0339,99.3627 34.7119,103.2678 42.0881,103.7017 52.5017,102.8339 62.0475,98.4949 69.4237,89.3831 69.8576,81.5729" stroke="#0000fe" stroke-width="2" /><polyline fill="none" points="39.4847,85.478 38.1831,87.6475 40.7864,88.5153 41.6542,86.7797 39.9186,85.478 39.0508,85.9119" stroke="#0060ff" stroke-width="2" /><polyline fill="none" points="43.8237,87.2136 50.3322,86.3458 55.539,83.7424" stroke="#00d4ff" stroke-width="2" /><polyline fill="none" points="42.522,88.9492 54.6712,89.3831" stroke="#4cffaa" stroke-width="2" /><polyline fill="none" points="39.0508,84.1763 35.5797,80.2712 34.7119,78.1017 36.0136,78.5356" stroke="#aaff4c" stroke-width="2" /><polyline fill="none" points="37.7492,86.7797 30.8068,80.2712" stroke="#ffe500" stroke-width="2" /><polyline fill="none" points="39.4847,88.5153 39.0508,94.5898 42.0881,98.9288 52.5017,98.9288 77.2339,84.1763 96.7593,68.122 108.0407,53.3695 117.5864,31.2407 119.322,11.2814 115.8508,8.678 108.4746,9.5458 98.9288,15.6203 90.2508,25.1661 82.4407,40.7864 81.5729,54.6712 87.6475,66.3864 89.8169,76.8 90.6847,74.6305" stroke="#ff7a00" stroke-width="2" /><polyline fill="none" points="93.2881,56.4068 95.0237,41.2203 97.6271,50.7661 101.9661,46.4271 104.5695,39.0508 106.739,52.9356 107.6068,49.8983" stroke="#fe1200" stroke-width="2" /><polyline fill="none" points="110.2102,34.7119 110.2102,34.7119" stroke="#7f0000" stroke-width="2" /></svg>