<?xml version="1.0" encoding="utf-8" ?>
<svg baseProfile="tiny" height="128" version="1.2" viewBox="0,0,128,128" width="128" xmlns="http://www.w3.org/2000/svg" xmlns:ev="http://www.w3.org/2001/xml-events" xmlns:xlink="http://www.w3.org/1999/xlink"><defs /><polyline fill="none" points="20.8271,42.522 8.678,8.678 28.6373,27.7695 29.0712,25.6 43.3898,24.2983 49.8983,28.2034 58.5763,10.4136 64.2169,27.3356 64.2169,32.5424 61.6136,35.5797 48.1627,41.6542 39.9186,43.3898 24.7322,42.9559 19.5254,40.7864" stroke="#00007f" stroke-width="2" /><polyline fill="none" points="39.9186,40.7864 27.7695,65.9525 27.7695,69.4237 31.2407,72.0271 58.1424,78.5356 71.5932,77.2339 106.739,68.122 114.5492,64.2169 119.322,57.2746 115.8508,49.0305 105.4373,40.7864 100.2305,38.1831 93.2881,37.3153 81.139,39.4847 71.1593,39.0508 59.4441,35.5797" stroke="#0000ff" stroke-width="2" /><polyline fill="none" points="45.9932,75.0644 44.6915,83.7424" stroke="#0080ff" stroke-width="2" /><polyline fill="none" points="56.8407,78.1017 56.8407,82.4407" stroke="#15ffe1" stroke-width="2" /><polyline fill="none" points="88.0814,72.461 89.3831,80.2712" stroke="#7cff79" stroke-width="2" /><polyline fill="none" points="95.0237,70.7254 96.3254,78.9695" stroke="#e4ff12" stroke-width="2" /><polyline fill="none" points="35.1458,33.4102 36.8814,35.5797 38.1831,35.1458 39.4847,31.2407 34.7119,33.4102" stroke="#ff9400" stroke-width="2" /><polyline fill="none" points="30.3729,32.5424 30.3729,34.7119" stroke="#ff1d00" stroke-width="2" /><polyline fill="none" points="42.0881,29.5051 42.0881,29.5051" stroke="#7f0000" stroke-width="2" /></svg>