<?xml version="1.0" encoding="utf-8" ?>
<svg baseProfile="tiny" height="128" version="1.2" viewBox="0,0,128,128" width="128" xmlns="http://www.w3.org/2000/svg" xmlns:ev="http://www.w3.org/2001/xml-events" xmlns:xlink="http://www.w3.org/1999/xlink"><defs /><polyline fill="none" points="46.585,39.1837 39.1837,40.4898 31.7823,43.9728 23.5102,50.5034 16.1088,59.2109 10.8844,69.2245 8.7075,78.3673 9.5782,95.3469 16.1088,105.7959 22.6395,111.4558 30.0408,116.2449 39.619,118.8571 57.034,119.2925 63.1293,117.551 74.449,111.4558 83.1565,101.8776 88.381,89.6871 90.1224,79.6735 89.6871,69.2245 85.7687,59.6463 75.7551,48.7619 60.9524,40.9252 45.7143,40.9252 38.3129,45.7143" stroke="#00007f" stroke-width="2" /><polyline fill="none" points="18.7211,51.8095 17.8503,13.932 39.1837,40.0544" stroke="#00d4ff" stroke-width="2" /><polyline fill="none" points="64.8707,41.7959 74.0136,33.9592 94.4762,8.7075 85.7687,33.9592 82.7211,48.7619" stroke="#ffe500" stroke-width="2" /><polyline fill="none" points="36.5714,82.7211 59.6463,82.2857 52.6803,98.3946 48.3265,95.3469 43.9728,88.8163 39.619,84.898" stroke="#7f0000" stroke-width="2" /></svg>