<?xml version="1.0" encoding="utf-8" ?>
<svg baseProfile="tiny" height="128" version="1.2" viewBox="0,0,128,128" width="128" xmlns="http://www.w3.org/2000/svg" xmlns:ev="http://www.w3.org/2001/xml-events" xmlns:xlink="http://www.w3.org/1999/xlink"><defs /><polyline fill="none" points="81.139,42.522 63.3492,36.4475 39.0508,36.4475 29.5051,42.522 23.4305,50.3322 21.6949,55.1051 19.9593,59.878 19.9593,76.3661 20.8271,82.0068 27.3356,91.1186 31.6746,94.5898 42.0881,99.3627 62.9153,100.2305 76.8,97.1932 83.3085,93.2881 95.4576,82.4407 100.2305,74.6305 103.7017,60.3119 103.7017,47.7288 100.2305,43.3898 91.9864,42.0881" stroke="#00007f" stroke-width="2" /><polyline fill="none" points="48.1627,51.6339 47.7288,56.4068 50.3322,57.2746" stroke="#0000de" stroke-width="2" /><polyline fill="none" points="75.9322,49.8983 76.8,59.4441" stroke="#0028ff" stroke-width="2" /><polyline fill="none" points="62.9153,72.8949 56.8407,78.1017 55.9729,81.139" stroke="#0080ff" stroke-width="2" /><polyline fill="none" points="57.2746,79.8373 65.9525,82.8746" stroke="#00d4ff" stroke-width="2" /><polyline fill="none" points="9.1119,57.7085 11.2814,56.8407 32.5424,57.7085" stroke="#36ffc0" stroke-width="2" /><polyline fill="none" points="9.1119,70.2915 29.939,70.2915" stroke="#7cff79" stroke-width="2" /><polyline fill="none" points="8.678,100.6644 9.5458,95.4576 14.3186,89.8169 22.1288,85.478 31.6746,82.8746" stroke="#c0ff36" stroke-width="2" /><polyline fill="none" points="106.3051,60.3119 109.3424,57.7085 114.5492,57.7085 119.322,60.7458" stroke="#ffe500" stroke-width="2" /><polyline fill="none" points="90.2508,70.2915 101.9661,72.0271 114.5492,76.8 119.322,77.2339" stroke="#ff9400" stroke-width="2" /><polyline fill="none" points="85.9119,86.3458 100.2305,94.1559 108.4746,99.7966 112.8136,103.7017 106.739,99.7966" stroke="#ff4600" stroke-width="2" /><polyline fill="none" points="30.8068,38.1831 28.6373,37.7492 27.3356,32.9763 29.939,18.2237 34.278,9.9797 40.3525,8.678 50.3322,16.0542 55.1051,22.5627 58.5763,28.6373 62.9153,41.2203" stroke="#de0000" stroke-width="2" /><polyline fill="none" points="86.3458,40.7864 85.478,28.6373 88.9492,10.8475 91.1186,9.9797 95.4576,17.3559 98.4949,26.4678 101.5322,47.2949" stroke="#7f0000" stroke-width="2" /></svg>