<?xml version="1.0" encoding="utf-8" ?>
<svg baseProfile="tiny" height="128" version="1.2" viewBox="0,0,128,128" width="128" xmlns="http://www.w3.org/2000/svg" xmlns:ev="http://www.w3.org/2001/xml-events" xmlns:xlink="http://www.w3.org/1999/xlink"><defs /><polyline fill="none" points="31.6746,27.7695 28.6373,26.0339 23.8644,26.4678 16.922,29.5051 12.1492,33.8441 8.678,42.0881 9.9797,45.9932 13.8847,48.5966 19.0915,49.4644 26.4678,47.2949 32.9763,43.8237 36.0136,39.9186 37.3153,35.5797 36.0136,30.8068 30.8068,27.3356 25.6,26.0339" stroke="#00007f" stroke-width="2" /><polyline fill="none" points="18.6576,23.4305 16.0542,32.9763 18.6576,18.6576 22.5627,31.6746" stroke="#00d4ff" stroke-width="2" /><polyline fill="none" points="29.0712,30.3729 42.0881,19.9593 37.3153,36.4475" stroke="#ffe500" stroke-width="2" /><polyline fill="none" points="34.7119,42.9559 36.4475,50.3322 39.0508,52.5017 62.0475,48.5966 66.3864,49.4644 75.4983,54.2373 79.4034,53.8034 82.8746,50.3322 88.0814,38.6169 91.9864,33.4102 98.4949,29.0712 109.7763,25.1661 114.9831,13.0169 118.4542,8.678 119.322,11.2814 116.7186,30.8068 94.5898,42.522 93.722,44.2576 94.1559,52.5017 88.0814,59.878 91.5525,73.3288 91.5525,87.2136 79.4034,88.5153 81.5729,80.2712 82.0068,68.122 80.7051,65.0847 76.8,63.7831 70.7254,65.0847 70.7254,85.478 63.7831,85.0441 62.9153,84.1763 61.6136,65.0847 53.8034,66.3864 51.6339,67.6881 52.0678,88.9492 41.6542,86.7797 41.2203,65.9525 30.8068,80.7051 29.0712,91.5525 21.6949,88.0814 17.3559,83.3085 33.4102,67.6881 25.6,49.0305 26.4678,44.6915" stroke="#7f0000" stroke-width="2" /></svg>