<?xml version="1.0" encoding="utf-8" ?>
<svg baseProfile="tiny" height="128" version="1.2" viewBox="0,0,128,128" width="128" xmlns="http://www.w3.org/2000/svg" xmlns:ev="http://www.w3.org/2001/xml-events" xmlns:xlink="http://www.w3.org/1999/xlink"><defs /><polyline fill="none" points="26.9017,39.9186 34.278,26.0339 36.0136,30.8068 36.4475,42.0881" stroke="#00007f" stroke-width="2" /><polyline fill="none" points="26.9017,39.4847 20.3932,40.3525 11.2814,45.1254 8.678,49.8983 8.678,55.9729 12.1492,59.878 18.2237,62.9153 31.2407,63.3492 34.7119,62.0475" stroke="#0000fe" stroke-width="2" /><polyline fill="none" points="36.8814,42.522 39.4847,43.8237 45.9932,53.8034 50.3322,55.9729 78.9695,56.4068 84.1763,52.5017 87.2136,48.5966 88.9492,31.6746 91.5525,24.7322 99.3627,12.5831 106.3051,9.1119 114.5492,8.678 118.0203,12.1492 119.322,17.7898 109.7763,29.939 106.3051,38.6169 101.0983,56.8407 99.7966,82.4407 96.3254,95.4576 93.2881,100.6644 85.478,106.3051 82.0068,107.6068 78.9695,107.1729 81.5729,88.0814 79.4034,82.4407 68.5559,86.3458 46.861,86.7797 44.6915,108.0407 40.3525,110.6441 30.8068,111.5119 35.1458,95.8915 36.8814,79.4034 36.8814,71.1593 34.278,61.1797" stroke="#0060ff" stroke-width="2" /><polyline fill="none" points="9.1119,49.4644 11.7153,50.3322 9.9797,54.2373" stroke="#00d4ff" stroke-width="2" /><polyline fill="none" points="15.6203,46.861 15.6203,47.2949" stroke="#4cffaa" stroke-width="2" /><polyline fill="none" points="14.3186,53.3695 22.9966,49.8983" stroke="#aaff4c" stroke-width="2" /><polyline fill="none" points="16.0542,54.2373 24.7322,54.2373" stroke="#ffe500" stroke-width="2" /><polyline fill="none" points="17.7898,55.9729 24.2983,59.0102 23.4305,60.3119" stroke="#ff7a00" stroke-width="2" /><polyline fill="none" points="15.1864,57.7085 22.1288,64.6508" stroke="#fe1200" stroke-width="2" /><polyline fill="none" points="33.4102,26.0339 32.5424,40.3525 26.0339,39.9186" stroke="#7f0000" stroke-width="2" /></svg>