<?xml version="1.0" encoding="utf-8" ?>
<svg baseProfile="tiny" height="128" version="1.2" viewBox="0,0,128,128" width="128" xmlns="http://www.w3.org/2000/svg" xmlns:ev="http://www.w3.org/2001/xml-events" xmlns:xlink="http://www.w3.org/1999/xlink"><defs /><polyline fill="none" points="71.1593,54.2373 59.0102,49.0305 41.6542,48.5966 29.939,52.0678 21.261,58.1424 13.0169,71.1593 9.9797,79.8373 9.1119,97.6271 15.1864,108.9085 25.6,115.8508 42.522,119.322 61.6136,119.322 67.2542,117.1525 71.5932,113.2475 77.2339,103.7017 80.2712,92.8542 81.5729,72.8949 76.8,59.0102 71.1593,52.0678 66.8203,49.8983" stroke="#00007f" stroke-width="2" /><polyline fill="none" points="66.8203,51.6339 65.5186,46.861 85.9119,24.7322 91.9864,16.0542 95.0237,8.678 94.5898,24.7322 78.1017,67.6881" stroke="#0000f1" stroke-width="2" /><polyline fill="none" points="34.7119,48.1627 31.2407,36.4475 22.1288,16.4881 16.0542,9.9797 12.5831,17.3559 8.678,65.5186" stroke="#004cff" stroke-width="2" /><polyline fill="none" points="31.6746,65.9525 28.6373,68.9898 32.5424,72.461 36.0136,72.461 34.7119,67.2542 32.5424,66.8203" stroke="#00b0ff" stroke-width="2" /><polyline fill="none" points="60.7458,66.8203 57.2746,67.2542 55.539,71.1593 54.2373,68.9898" stroke="#29ffcd" stroke-width="2" /><polyline fill="none" points="36.0136,82.4407 39.0508,79.8373 55.1051,81.5729" stroke="#7cff79" stroke-width="2" /><polyline fill="none" points="34.278,77.2339 39.0508,87.2136 45.1254,93.2881 48.1627,93.722 48.1627,80.2712 49.8983,77.2339" stroke="#cdff29" stroke-width="2" /><polyline fill="none" points="55.539,76.3661 69.4237,73.7627" stroke="#ffc400" stroke-width="2" /><polyline fill="none" points="50.3322,85.0441 64.2169,81.139" stroke="#ff6700" stroke-width="2" /><polyline fill="none" points="38.6169,78.9695 29.0712,75.4983" stroke="#f10700" stroke-width="2" /><polyline fill="none" points="41.6542,85.0441 41.6542,85.0441" stroke="#7f0000" stroke-width="2" /></svg>