<?xml version="1.0" encoding="utf-8" ?>
<svg baseProfile="tiny" height="128" version="1.2" viewBox="0,0,128,128" width="128" xmlns="http://www.w3.org/2000/svg" xmlns:ev="http://www.w3.org/2001/xml-events" xmlns:xlink="http://www.w3.org/1999/xlink"><defs /><polyline fill="none" points="16.922,30.3729 12.5831,34.7119 9.5458,39.9186 8.678,46.4271 11.2814,54.2373 18.6576,59.4441 26.4678,61.1797 44.2576,59.878 54.6712,56.8407 58.5763,53.8034 60.7458,50.3322 61.6136,42.522 59.878,31.6746 56.8407,25.1661 52.5017,24.7322 59.878,20.3932 63.7831,10.8475 47.7288,11.7153 35.5797,17.3559 26.4678,16.922 25.1661,11.7153 13.4508,8.678 13.0169,19.5254 17.3559,29.5051" stroke="#00007f" stroke-width="2" /><polyline fill="none" points="35.5797,39.0508 34.278,42.522 36.0136,43.3898 37.3153,41.6542 36.0136,38.1831" stroke="#0080ff" stroke-width="2" /><polyline fill="none" points="39.4847,39.0508 100.2305,31.2407 115.8508,27.3356 118.4542,26.0339 113.6814,25.6" stroke="#7cff79" stroke-width="2" /><polyline fill="none" points="48.5966,44.2576 50.3322,45.5593 89.8169,45.5593 118.8881,47.7288 119.322,50.7661 117.5864,50.7661" stroke="#ff9400" stroke-width="2" /><polyline fill="none" points="51.2,51.2 52.9356,53.3695 62.4814,55.9729 118.0203,62.9153 119.322,65.0847 117.5864,65.9525 102.8339,62.0475" stroke="#7f0000" stroke-width="2" /></svg>