<?xml version="1.0" encoding="utf-8" ?>
<svg baseProfile="tiny" height="128" version="1.2" viewBox="0,0,128,128" width="128" xmlns="http://www.w3.org/2000/svg" xmlns:ev="http://www.w3.org/2001/xml-events" xmlns:xlink="http://www.w3.org/1999/xlink"><defs /><polyline fill="none" points="71.5034,22.5103 68.8552,26.4828 67.0897,37.0759 69.2966,48.5517 74.5931,53.4069 80.331,55.1724 86.5103,54.731 93.131,48.5517 97.1034,40.6069 98.869,28.2483 96.6621,11.0345 86.069,23.8345 80.331,21.1862 77.6828,10.1517 76.3586,8.8276 69.7379,25.1586" stroke="#00007f" stroke-width="2" /><polyline fill="none" points="78.1241,36.6345 82.5379,37.9586 82.0966,40.1655 78.5655,42.3724 78.5655,37.5172" stroke="#0000d5" stroke-width="2" /><polyline fill="none" points="79.8897,26.0414 78.1241,25.6 76.8,27.3655 75.9172,32.2207 79.4483,33.9862 82.5379,31.7793 82.0966,28.2483 79.8897,26.4828 76.3586,27.3655 76.8,30.0138 79.0069,30.4552" stroke="#001cff" stroke-width="2" /><polyline fill="none" points="81.2138,30.0138 79.8897,32.2207 81.2138,32.6621 81.6552,30.8966" stroke="#006cff" stroke-width="2" /><polyline fill="none" points="92.6897,24.7172 91.3655,23.8345 89.1586,25.6 86.5103,30.8966 87.8345,33.9862 91.3655,34.4276 93.5724,31.7793 94.0138,28.2483 92.6897,25.6 90.0414,25.6" stroke="#00b8ff" stroke-width="2" /><polyline fill="none" points="93.5724,32.6621 91.8069,31.7793 90.4828,33.9862 91.8069,32.6621 90.4828,32.6621" stroke="#1cffda" stroke-width="2" /><polyline fill="none" points="79.8897,43.2552 78.5655,46.3448" stroke="#5cff9a" stroke-width="2" /><polyline fill="none" points="80.7724,46.7862 102.8414,35.3103 118.731,29.131" stroke="#9aff5c" stroke-width="2" /><polyline fill="none" points="82.9793,47.669 109.4621,45.4621 116.0828,46.7862 119.1724,49.4345 117.4069,49.4345" stroke="#daff1c" stroke-width="2" /><polyline fill="none" points="80.7724,45.9034 86.9517,48.9931 101.5172,63.1172 107.6966,69.7379 109.4621,73.269 109.4621,75.0345 108.1379,73.7103" stroke="#ffcb00" stroke-width="2" /><polyline fill="none" points="71.9448,45.0207 40.6069,40.6069 35.3103,41.0483" stroke="#ff8500" stroke-width="2" /><polyline fill="none" points="77.6828,48.9931 59.1448,51.2 52.5241,54.731 47.669,59.5862" stroke="#ff3b00" stroke-width="2" /><polyline fill="none" points="79.4483,48.9931 60.0276,59.5862 54.2897,64.0 49.4345,73.269 48.5517,79.0069 49.8759,77.2414" stroke="#d50000" stroke-width="2" /><polyline fill="none" points="70.6207,48.1103 47.669,43.6966 34.4276,42.8138 26.9241,44.1379 18.5379,48.1103 11.9172,54.2897 8.8276,62.2345 9.7103,65.3241 11.9172,67.9724 21.6276,71.9448 38.8414,70.6207 62.6759,61.7931 69.2966,57.3793 71.9448,53.8483 71.5034,51.2 66.2069,47.2276" stroke="#7f0000" stroke-width="2" /></svg>