<?xml version="1.0" encoding="utf-8" ?>
<svg baseProfile="tiny" height="128" version="1.2" viewBox="0,0,128,128" width="128" xmlns="http://www.w3.org/2000/svg" xmlns:ev="http://www.w3.org/2001/xml-events" xmlns:xlink="http://www.w3.org/1999/xlink"><defs /><polyline fill="none" points="36.1361,30.9116 40.9252,46.585 42.6667,30.9116 44.4082,42.6667 47.4558,52.2449 47.8912,36.1361 62.6939,36.1361 68.3537,49.1973 68.3537,35.2653 74.8844,52.6803 78.8027,37.4422" stroke="#00007f" stroke-width="2" /><polyline fill="none" points="48.3265,10.449 63.1293,11.3197 75.3197,15.6735 79.6735,20.0272 81.415,24.381 82.2857,29.1701 80.5442,33.9592 102.7483,33.5238 111.4558,35.2653 114.9388,37.4422 119.2925,43.102 104.4898,43.5374 93.1701,41.3605 77.4966,35.2653" stroke="#0080ff" stroke-width="2" /><polyline fill="none" points="47.8912,11.3197 36.5714,19.5918 36.1361,13.0612 30.4762,10.0136 13.932,8.7075 9.1429,11.7551 8.7075,20.4626 15.6735,31.3469 23.0748,33.5238 33.5238,33.5238 36.5714,30.9116" stroke="#7cff79" stroke-width="2" /><polyline fill="none" points="10.8844,23.9456 18.7211,20.898" stroke="#ff9400" stroke-width="2" /><polyline fill="none" points="16.5442,13.0612 16.5442,14.8027" stroke="#7f0000" stroke-width="2" /></svg>