<?xml version="1.0" encoding="utf-8" ?>
<svg baseProfile="tiny" height="128" version="1.2" viewBox="0,0,128,128" width="128" xmlns="http://www.w3.org/2000/svg" xmlns:ev="http://www.w3.org/2001/xml-events" xmlns:xlink="http://www.w3.org/1999/xlink"><defs /><polyline fill="none" points="26.4678,36.8814 32.9763,35.5797 67.2542,33.8441 95.0237,33.4102 98.061,34.7119 99.3627,36.8814 94.1559,52.0678 88.5153,55.539 80.2712,56.4068 65.9525,54.6712 44.2576,49.8983 39.9186,47.7288 28.6373,34.278" stroke="#00007f" stroke-width="2" /><polyline fill="none" points="88.9492,33.4102 93.722,18.6576 98.061,11.2814 104.5695,8.678 111.5119,8.678 115.8508,10.8475 118.4542,16.0542 119.322,23.8644 117.5864,29.5051 111.9458,33.8441 103.2678,36.0136 98.4949,36.0136" stroke="#0000d1" stroke-width="2" /><polyline fill="none" points="102.4,19.5254 103.2678,19.5254" stroke="#0010ff" stroke-width="2" /><polyline fill="none" points="114.1153,22.5627 114.1153,22.5627" stroke="#0058ff" stroke-width="2" /><polyline fill="none" points="101.0983,25.6 101.0983,27.7695 104.1356,29.5051 106.3051,27.7695 109.3424,29.0712 113.6814,27.3356" stroke="#00a4ff" stroke-width="2" /><polyline fill="none" points="113.2475,17.3559 113.2475,17.3559" stroke="#05ecf1" stroke-width="2" /><polyline fill="none" points="109.3424,17.7898 109.3424,17.7898" stroke="#3fffb7" stroke-width="2" /><polyline fill="none" points="108.0407,20.3932 110.6441,18.2237 111.5119,19.5254" stroke="#7cff79" stroke-width="2" /><polyline fill="none" points="51.2,53.3695 46.861,56.8407 44.2576,63.7831 47.7288,86.3458" stroke="#b7ff3f" stroke-width="2" /><polyline fill="none" points="92.4203,55.539 93.722,72.0271 98.061,89.3831" stroke="#f1fc05" stroke-width="2" /><polyline fill="none" points="62.0475,52.9356 59.4441,76.8 60.3119,84.6102" stroke="#ffb900" stroke-width="2" /><polyline fill="none" points="85.478,54.6712 86.3458,84.6102 88.0814,90.2508" stroke="#ff7300" stroke-width="2" /><polyline fill="none" points="33.4102,37.3153 27.7695,30.3729 22.1288,28.6373 17.7898,29.939 13.0169,36.0136 11.2814,43.8237 11.2814,62.4814 8.678,65.9525 21.261,65.5186 24.7322,60.3119 22.1288,46.861 23.8644,40.3525 27.7695,36.8814 40.7864,33.4102" stroke="#ff3000" stroke-width="2" /><polyline fill="none" points="55.9729,30.8068 55.1051,23.8644 56.8407,21.261 62.0475,19.0915 68.9898,23.8644 72.0271,24.7322 77.2339,22.5627 83.3085,27.3356 89.3831,25.1661 98.061,31.2407 101.5322,30.8068 102.8339,29.0712" stroke="#d10000" stroke-width="2" /><polyline fill="none" points="74.6305,52.5017 85.0441,47.2949" stroke="#7f0000" stroke-width="2" /></svg>