<?xml version="1.0" encoding="utf-8" ?>
<svg baseProfile="tiny" height="128" version="1.2" viewBox="0,0,128,128" width="128" xmlns="http://www.w3.org/2000/svg" xmlns:ev="http://www.w3.org/2001/xml-events" xmlns:xlink="http://www.w3.org/1999/xlink"><defs /><polyline fill="none" points="40.3525,32.9763 30.3729,38.1831 16.922,47.2949 11.2814,59.0102 8.678,70.7254 8.678,80.2712 13.0169,94.5898 15.1864,97.6271 28.2034,107.1729 41.2203,114.1153 59.878,119.322 65.9525,118.8881 76.3661,114.5492 84.1763,110.6441 92.4203,103.7017 96.3254,91.9864 98.4949,68.122 96.3254,60.7458 88.5153,47.2949 77.2339,39.4847 68.9898,36.0136 44.6915,34.278 33.8441,39.4847" stroke="#00007f" stroke-width="2" /><polyline fill="none" points="27.3356,38.1831 32.5424,16.0542 34.7119,10.4136 38.1831,8.678 43.8237,9.1119 45.1254,10.8475 45.9932,34.7119" stroke="#0000fe" stroke-width="2" /><polyline fill="none" points="62.0475,36.0136 70.7254,11.2814 73.3288,9.5458 76.3661,18.2237 76.8,29.939 78.5356,38.1831" stroke="#0060ff" stroke-width="2" /><polyline fill="none" points="50.7661,82.8746 55.539,81.5729 55.1051,86.7797 52.5017,88.5153 51.6339,82.8746" stroke="#00d4ff" stroke-width="2" /><polyline fill="none" points="51.6339,82.8746 47.7288,85.9119 41.2203,100.6644 35.5797,103.7017 33.8441,104.1356 36.0136,102.4" stroke="#4cffaa" stroke-width="2" /><polyline fill="none" points="56.4068,81.139 58.1424,88.9492 63.7831,93.2881 69.8576,94.5898 71.1593,96.3254" stroke="#aaff4c" stroke-width="2" /><polyline fill="none" points="36.8814,51.6339 38.1831,54.2373 36.8814,55.9729 39.4847,52.0678" stroke="#ffe500" stroke-width="2" /><polyline fill="none" points="59.0102,54.6712 58.5763,54.6712" stroke="#ff7a00" stroke-width="2" /><polyline fill="none" points="29.0712,78.5356 29.0712,73.3288 27.7695,71.1593" stroke="#fe1200" stroke-width="2" /><polyline fill="none" points="28.6373,83.3085 20.8271,67.6881" stroke="#7f0000" stroke-width="2" /></svg>