<?xml version="1.0" encoding="utf-8" ?>
<svg baseProfile="tiny" height="128" version="1.2" viewBox="0,0,128,128" width="128" xmlns="http://www.w3.org/2000/svg" xmlns:ev="http://www.w3.org/2001/xml-events" xmlns:xlink="http://www.w3.org/1999/xlink"><defs /><polyline fill="none" points="23.4305,59.0102 19.5254,51.6339 8.678,17.3559 39.0508,41.6542 49.8983,36.4475 65.5186,35.1458 71.5932,36.4475 83.7424,42.9559 92.8542,25.1661 105.8712,8.678 106.3051,9.5458 104.1356,49.0305 108.4746,66.8203 108.9085,76.3661 106.739,83.7424 97.6271,93.2881 88.9492,96.7593 75.4983,98.9288 59.878,98.4949 48.5966,94.1559 41.6542,89.8169 28.6373,74.1966 23.8644,65.0847 22.9966,54.6712" stroke="#00007f" stroke-width="2" /><polyline fill="none" points="63.3492,64.6508 73.7627,61.6136 75.0644,75.0644 73.7627,76.3661 64.6508,70.7254 59.0102,63.7831" stroke="#0000f1" stroke-width="2" /><polyline fill="none" points="74.6305,75.4983 73.3288,82.0068 70.2915,85.9119 62.4814,87.2136 62.4814,85.0441" stroke="#004cff" stroke-width="2" /><polyline fill="none" points="75.4983,75.9322 76.3661,78.1017 80.2712,82.0068" stroke="#00b0ff" stroke-width="2" /><polyline fill="none" points="91.1186,59.0102 106.3051,50.3322" stroke="#29ffcd" stroke-width="2" /><polyline fill="none" points="88.9492,63.3492 114.5492,59.0102 119.322,59.4441" stroke="#7cff79" stroke-width="2" /><polyline fill="none" points="92.4203,71.1593 106.739,70.2915 114.5492,71.1593" stroke="#cdff29" stroke-width="2" /><polyline fill="none" points="43.8237,68.9898 35.5797,68.5559 26.0339,72.0271" stroke="#ffc400" stroke-width="2" /><polyline fill="none" points="49.4644,75.9322 39.4847,78.1017 28.2034,85.0441 21.261,91.5525" stroke="#ff6700" stroke-width="2" /><polyline fill="none" points="47.7288,85.9119 38.6169,89.8169 29.0712,99.7966" stroke="#f10700" stroke-width="2" /><polyline fill="none" points="47.7288,46.861 42.522,49.4644 43.8237,55.539 47.2949,55.539 48.5966,47.7288" stroke="#7f0000" stroke-width="2" /></svg>