<?xml version="1.0" encoding="utf-8" ?>
<svg baseProfile="tiny" height="128" version="1.2" viewBox="0,0,128,128" width="128" xmlns="http://www.w3.org/2000/svg" xmlns:ev="http://www.w3.org/2001/xml-events" xmlns:xlink="http://www.w3.org/1999/xlink"><defs /><polyline fill="none" points="84.6102,32.1085 66.8203,25.1661 57.7085,26.4678 42.9559,32.1085 25.1661,42.522 21.261,46.861 10.8475,62.0475 8.678,72.0271 9.1119,81.5729 14.7525,95.0237 22.1288,105.8712 32.1085,114.1153 43.8237,118.4542 59.878,119.322 78.1017,111.5119 85.9119,106.739 88.9492,101.5322 90.6847,93.722 91.1186,82.8746 83.7424,55.9729 81.5729,25.6 83.3085,23.4305 112.3797,8.678 105.0034,29.939 87.6475,55.1051 80.7051,53.3695 62.9153,44.6915" stroke="#00007f" stroke-width="2" /><polyline fill="none" points="39.4847,26.9017 22.5627,18.2237 21.261,22.1288 19.9593,33.4102 19.9593,45.1254" stroke="#0080ff" stroke-width="2" /><polyline fill="none" points="41.2203,54.6712 39.9186,54.6712 39.4847,55.9729 39.9186,57.7085 41.2203,58.1424 40.3525,55.1051 45.9932,53.8034" stroke="#7cff79" stroke-width="2" /><polyline fill="none" points="60.7458,52.0678 60.7458,53.8034 62.0475,53.8034 60.7458,52.5017" stroke="#ff9400" stroke-width="2" /><polyline fill="none" points="56.4068,70.7254 54.2373,71.5932 54.2373,76.3661 55.9729,77.6678 57.7085,77.2339 59.0102,73.3288 57.7085,71.1593 59.0102,72.461 57.7085,72.461 57.2746,73.7627 51.2,75.0644 52.5017,75.9322 56.4068,70.7254 56.8407,75.0644 55.1051,82.8746 50.7661,91.9864 40.7864,104.5695 35.1458,105.8712 29.939,104.5695 26.4678,100.2305 26.4678,95.0237 28.2034,92.8542 36.8814,88.5153 49.8983,87.2136" stroke="#7f0000" stroke-width="2" /></svg>