<?xml version="1.0" encoding="utf-8" ?>
<svg baseProfile="tiny" height="128" version="1.2" viewBox="0,0,128,128" width="128" xmlns="http://www.w3.org/2000/svg" xmlns:ev="http://www.w3.org/2001/xml-events" xmlns:xlink="http://www.w3.org/1999/xlink"><defs /><polyline fill="none" points="50.7661,19.9593 42.0881,20.8271 37.3153,24.2983 34.7119,30.8068 36.8814,37.3153 41.6542,40.7864 49.4644,42.9559 75.0644,47.2949 98.9288,46.4271 100.2305,41.6542 98.4949,36.8814 94.5898,32.1085 88.5153,28.6373 68.5559,22.1288 58.1424,19.9593" stroke="#00007f" stroke-width="2" /><polyline fill="none" points="81.5729,22.9966 84.6102,19.0915 92.4203,14.3186 100.2305,32.9763" stroke="#0000f1" stroke-width="2" /><polyline fill="none" points="60.3119,18.6576 54.6712,8.678 48.1627,17.7898" stroke="#004cff" stroke-width="2" /><polyline fill="none" points="92.4203,35.1458 119.322,43.8237" stroke="#00b0ff" stroke-width="2" /><polyline fill="none" points="96.3254,45.1254 112.8136,51.2" stroke="#29ffcd" stroke-width="2" /><polyline fill="none" points="90.2508,45.1254 105.8712,55.1051" stroke="#7cff79" stroke-width="2" /><polyline fill="none" points="38.1831,29.0712 9.9797,29.0712" stroke="#cdff29" stroke-width="2" /><polyline fill="none" points="32.5424,30.3729 8.678,31.6746" stroke="#ffc400" stroke-width="2" /><polyline fill="none" points="44.6915,31.6746 16.922,40.7864" stroke="#ff6700" stroke-width="2" /><polyline fill="none" points="49.8983,40.7864 46.861,49.8983 46.861,54.6712 49.0305,58.1424 62.0475,63.3492 72.8949,64.2169 76.8,62.4814 79.8373,54.6712 80.2712,44.2576 77.6678,37.7492" stroke="#f10700" stroke-width="2" /><polyline fill="none" points="78.1017,59.0102 85.0441,61.6136 108.0407,62.0475 109.3424,64.6508 106.3051,67.6881 99.3627,67.6881 84.1763,63.7831 78.1017,63.7831" stroke="#7f0000" stroke-width="2" /></svg>