<?xml version="1.0" encoding="utf-8" ?>
<svg baseProfile="tiny" height="128" version="1.2" viewBox="0,0,128,128" width="128" xmlns="http://www.w3.org/2000/svg" xmlns:ev="http://www.w3.org/2001/xml-events" xmlns:xlink="http://www.w3.org/1999/xlink"><defs /><polyline fill="none" points="53.9864,39.1837 33.9592,37.8776 20.0272,43.9728 13.932,50.9388 8.7075,64.8707 8.7075,78.3673 17.8503,94.9116 26.1224,102.3129 47.4558,105.3605 71.8367,105.7959 81.415,104.9252 86.2041,102.7483 91.4286,99.2653 97.9592,92.2993 99.7007,85.7687 99.2653,64.0 95.7823,53.551 89.6871,44.8435 84.898,41.3605 74.8844,38.3129 62.2585,38.7483 52.6803,41.7959" stroke="#00007f" stroke-width="2" /><polyline fill="none" points="19.1565,46.1497 16.1088,24.381 12.1905,8.7075 12.6259,13.0612 24.381,32.6531 27.8639,35.2653" stroke="#00d4ff" stroke-width="2" /><polyline fill="none" points="68.7891,42.2313 77.0612,33.9592 89.2517,24.381 108.8435,13.0612 119.2925,8.7075 118.4218,22.6395 108.4082,47.0204" stroke="#ffe500" stroke-width="2" /><polyline fill="none" points="43.102,74.8844 41.7959,88.8163 43.9728,89.2517 67.0476,84.898 68.3537,89.2517 81.415,87.9456 84.4626,86.2041 91.4286,77.0612 90.5578,74.8844 84.898,76.6259" stroke="#7f0000" stroke-width="2" /></svg>