<?xml version="1.0" encoding="utf-8" ?>
<svg baseProfile="tiny" height="128" version="1.2" viewBox="0,0,128,128" width="128" xmlns="http://www.w3.org/2000/svg" xmlns:ev="http://www.w3.org/2001/xml-events" xmlns:xlink="http://www.w3.org/1999/xlink"><defs /><polyline fill="none" points="31.5616,44.7123 39.0137,28.9315 46.4658,20.1644 47.7808,20.1644 55.2329,29.3699 59.6164,32.4384 63.1233,30.2466 72.7671,19.2877 87.2329,8.7671 88.5479,9.6438 94.2466,24.9863 93.8082,43.8356 87.2329,55.6712 77.1507,64.4384 69.2603,68.3836 55.2329,72.3288 38.137,71.4521 29.3699,69.6986 25.4247,66.6301 24.9863,61.8082 28.9315,48.2192 32.0,45.1507" stroke="#00007f" stroke-width="2" /><polyline fill="none" points="75.8356,31.5616 76.7123,39.4521 82.8493,39.4521 83.2877,32.0 81.9726,30.2466 77.589,28.9315" stroke="#0000ff" stroke-width="2" /><polyline fill="none" points="45.589,37.2603 43.8356,39.4521 44.7123,44.7123 50.411,46.0274 53.0411,42.5205 53.0411,35.0685" stroke="#0080ff" stroke-width="2" /><polyline fill="none" points="76.7123,53.4795 86.7945,49.5342 104.7671,46.0274 119.2329,45.1507" stroke="#15ffe1" stroke-width="2" /><polyline fill="none" points="81.0959,56.9863 96.0,60.0548 118.3562,60.9315" stroke="#7cff79" stroke-width="2" /><polyline fill="none" points="80.6575,60.4932 97.3151,73.6438" stroke="#e4ff12" stroke-width="2" /><polyline fill="none" points="40.3288,52.1644 20.6027,48.6575 8.7671,47.7808" stroke="#ff9400" stroke-width="2" /><polyline fill="none" points="35.0685,60.4932 25.4247,58.7397 13.1507,59.6164" stroke="#ff1d00" stroke-width="2" /><polyline fill="none" points="39.0137,67.0685 14.4658,73.6438" stroke="#7f0000" stroke-width="2" /></svg>