<?xml version="1.0" encoding="utf-8" ?>
<svg baseProfile="tiny" height="128" version="1.2" viewBox="0,0,128,128" width="128" xmlns="http://www.w3.org/2000/svg" xmlns:ev="http://www.w3.org/2001/xml-events" xmlns:xlink="http://www.w3.org/1999/xlink"><defs /><polyline fill="none" points="15.1864,21.6949 13.8847,23.4305 14.3186,30.3729 18.6576,40.3525 24.2983,42.9559 29.5051,42.9559 36.0136,37.3153 36.8814,28.2034 35.5797,25.1661 25.6,19.5254 17.3559,17.7898 14.7525,17.7898 8.678,22.9966" stroke="#00007f" stroke-width="2" /><polyline fill="none" points="19.5254,17.3559 20.3932,14.7525 24.2983,13.8847 24.7322,19.0915 30.3729,9.9797 42.0881,8.678 39.9186,19.0915 34.7119,26.0339" stroke="#0000de" stroke-width="2" /><polyline fill="none" points="36.8814,39.0508 54.6712,36.4475 63.3492,51.2 68.5559,55.1051 86.7797,55.539 100.2305,51.2 105.0034,52.5017" stroke="#0028ff" stroke-width="2" /><polyline fill="none" points="37.3153,24.2983 63.7831,24.7322 73.7627,17.7898 77.2339,12.1492 85.478,10.4136 89.8169,11.7153 107.1729,22.5627 118.0203,25.6 119.322,28.2034 117.5864,32.1085 108.4746,38.6169 104.5695,49.4644" stroke="#0080ff" stroke-width="2" /><polyline fill="none" points="71.1593,52.5017 73.3288,67.2542 77.6678,70.2915 89.3831,68.122 93.2881,58.5763 92.4203,53.8034" stroke="#00d4ff" stroke-width="2" /><polyline fill="none" points="98.061,50.7661 99.3627,61.6136 103.7017,63.3492 108.0407,57.2746 108.4746,53.8034 106.739,49.4644" stroke="#36ffc0" stroke-width="2" /><polyline fill="none" points="61.1797,29.5051 72.461,30.3729" stroke="#7cff79" stroke-width="2" /><polyline fill="none" points="79.4034,28.2034 95.8915,32.5424" stroke="#c0ff36" stroke-width="2" /><polyline fill="none" points="79.4034,46.861 95.8915,46.861" stroke="#ffe500" stroke-width="2" /><polyline fill="none" points="66.3864,35.5797 96.7593,37.3153" stroke="#ff9400" stroke-width="2" /><polyline fill="none" points="103.2678,28.6373 108.0407,32.1085" stroke="#ff4600" stroke-width="2" /><polyline fill="none" points="79.8373,21.6949 93.2881,24.2983" stroke="#de0000" stroke-width="2" /><polyline fill="none" points="56.8407,28.2034 61.6136,29.5051" stroke="#7f0000" stroke-width="2" /></svg>