<?xml version="1.0" encoding="utf-8" ?>
<svg baseProfile="tiny" height="128" version="1.2" viewBox="0,0,128,128" width="128" xmlns="http://www.w3.org/2000/svg" xmlns:ev="http://www.w3.org/2001/xml-events" xmlns:xlink="http://www.w3.org/1999/xlink"><defs /><polyline fill="none" points="32.2177,42.2313 24.8163,45.2789 22.2041,48.3265 19.5918,52.6803 13.932,70.0952 13.932,89.2517 18.7211,103.619 25.6871,113.6327 32.2177,117.1156 42.2313,119.2925 64.8707,119.2925 77.4966,115.3741 84.4626,111.4558 92.2993,100.5714 96.6531,87.0748 96.6531,73.1429 92.2993,61.3878 83.1565,49.1973 74.449,44.4082 69.6599,43.5374 27.8639,43.5374" stroke="#00007f" stroke-width="2" /><polyline fill="none" points="18.7211,49.1973 18.7211,45.2789 8.7075,14.8027 9.1429,9.1429 12.6259,8.7075 26.9932,20.0272 34.3946,27.8639 38.7483,38.3129" stroke="#0080ff" stroke-width="2" /><polyline fill="none" points="88.381,45.2789 84.0272,46.585 84.0272,48.3265 86.6395,34.8299 90.5578,29.1701 101.4422,19.1565 106.2313,16.5442 108.4082,16.9796 108.4082,53.1156 101.8776,63.5646 96.2177,69.6599" stroke="#7cff79" stroke-width="2" /><polyline fill="none" points="51.8095,80.5442 46.1497,83.5918 41.7959,88.8163 41.3605,102.3129 43.9728,108.8435 50.068,113.6327 63.1293,117.551 68.7891,117.1156 72.2721,113.1973 74.449,106.6667 74.449,93.6054 71.4014,84.898 65.7415,80.1088 56.1633,80.1088 51.8095,81.415 50.068,83.5918" stroke="#ff9400" stroke-width="2" /><polyline fill="none" points="55.7279,82.2857 54.4218,90.5578 56.1633,90.9932 61.3878,88.8163 64.8707,81.8503 64.8707,78.3673 63.5646,76.1905 57.9048,75.3197" stroke="#7f0000" stroke-width="2" /></svg>