<?xml version="1.0" encoding="utf-8" ?>
<svg baseProfile="tiny" height="128" version="1.2" viewBox="0,0,128,128" width="128" xmlns="http://www.w3.org/2000/svg" xmlns:ev="http://www.w3.org/2001/xml-events" xmlns:xlink="http://www.w3.org/1999/xlink"><defs /><polyline fill="none" points="33.8441,25.6 36.4475,15.6203 40.7864,10.4136 42.9559,9.9797 45.1254,13.0169 46.861,27.7695" stroke="#00007f" stroke-width="2" /><polyline fill="none" points="63.3492,27.3356 64.6508,21.6949 72.8949,8.678 75.9322,13.8847 80.2712,31.2407" stroke="#0000b1" stroke-width="2" /><polyline fill="none" points="75.4983,29.0712 75.4983,29.0712" stroke="#0000e3" stroke-width="2" /><polyline fill="none" points="82.0068,29.939 60.3119,24.7322 47.7288,24.7322 37.7492,27.7695 28.2034,35.5797 26.4678,41.6542 26.0339,53.8034 28.6373,62.9153 32.1085,69.4237 38.6169,76.8 46.861,81.139 58.5763,81.5729 88.0814,75.0644 91.9864,72.461 96.3254,65.0847 98.4949,56.4068 97.1932,47.2949 92.8542,40.3525 86.3458,32.9763 81.5729,29.939 75.0644,28.2034" stroke="#0004ff" stroke-width="2" /><polyline fill="none" points="58.1424,45.1254 54.6712,46.861 50.3322,51.2 49.8983,55.9729 57.2746,56.8407 64.2169,52.9356 65.5186,48.1627 59.0102,45.9932" stroke="#0030ff" stroke-width="2" /><polyline fill="none" points="56.4068,58.1424 63.7831,80.2712 66.8203,82.4407 74.6305,82.8746" stroke="#005cff" stroke-width="2" /><polyline fill="none" points="59.4441,59.0102 52.5017,86.7797" stroke="#0088ff" stroke-width="2" /><polyline fill="none" points="85.0441,48.5966 82.0068,48.5966 78.5356,52.9356 77.2339,57.2746 79.4034,58.1424 85.478,50.7661 85.0441,48.5966 82.0068,49.8983" stroke="#00b4ff" stroke-width="2" /><polyline fill="none" points="83.3085,59.4441 80.7051,60.7458 78.1017,65.0847 78.9695,66.8203 82.8746,66.3864 85.478,63.3492 83.3085,62.0475" stroke="#00e4f7" stroke-width="2" /><polyline fill="none" points="91.1186,55.9729 88.0814,55.539 85.9119,60.3119 89.3831,59.878 94.1559,55.1051 94.1559,54.2373 88.5153,53.3695" stroke="#22ffd4" stroke-width="2" /><polyline fill="none" points="32.1085,47.7288 33.4102,52.5017 36.4475,50.7661 37.3153,49.0305 36.0136,49.0305" stroke="#46ffb0" stroke-width="2" /><polyline fill="none" points="36.0136,55.9729 34.278,63.7831 37.7492,63.3492 40.3525,59.0102 40.3525,57.7085 37.7492,57.7085 35.5797,59.0102" stroke="#69ff8d" stroke-width="2" /><polyline fill="none" points="42.0881,52.0678 39.9186,52.0678 38.6169,53.8034 38.6169,55.539 41.6542,55.539 43.3898,52.9356 41.6542,52.5017" stroke="#8dff69" stroke-width="2" /><polyline fill="none" points="50.7661,32.1085 46.861,31.2407 43.8237,34.7119 43.3898,39.0508 47.7288,39.0508 52.0678,36.0136 52.9356,32.9763 50.3322,32.1085 47.7288,33.4102" stroke="#b0ff46" stroke-width="2" /><polyline fill="none" points="70.7254,33.8441 67.2542,32.9763 65.0847,35.1458 64.6508,37.3153 69.4237,37.7492 72.0271,36.4475 73.3288,33.4102 69.8576,32.9763" stroke="#d4ff22" stroke-width="2" /><polyline fill="none" points="65.9525,36.0136 69.8576,35.5797 69.4237,37.3153 66.3864,37.7492 67.6881,35.1458" stroke="#f7f400" stroke-width="2" /><polyline fill="none" points="50.3322,36.0136 46.861,37.7492 45.5593,36.8814 49.4644,35.1458 49.4644,37.7492 47.2949,39.4847" stroke="#ffc800" stroke-width="2" /><polyline fill="none" points="83.3085,51.6339 86.3458,48.1627 93.2881,45.5593 112.8136,41.6542" stroke="#ff9f00" stroke-width="2" /><polyline fill="none" points="80.7051,59.4441 87.2136,56.4068" stroke="#ff7600" stroke-width="2" /><polyline fill="none" points="89.3831,59.0102 99.7966,53.3695 119.322,49.0305" stroke="#ff4d00" stroke-width="2" /><polyline fill="none" points="81.5729,65.5186 86.3458,64.2169 119.322,61.1797" stroke="#ff2500" stroke-width="2" /><polyline fill="none" points="37.3153,62.0475 26.9017,62.0475 8.678,67.6881" stroke="#e30000" stroke-width="2" /><polyline fill="none" points="33.4102,51.2 23.4305,50.7661 16.4881,52.5017" stroke="#b10000" stroke-width="2" /><polyline fill="none" points="42.0881,54.2373 28.6373,55.1051 8.678,62.9153" stroke="#7f0000" stroke-width="2" /></svg>