<?xml version="1.0" encoding="utf-8" ?>
<svg baseProfile="tiny" height="128" version="1.2" viewBox="0,0,128,128" width="128" xmlns="http://www.w3.org/2000/svg" xmlns:ev="http://www.w3.org/2001/xml-events" xmlns:xlink="http://www.w3.org/1999/xlink"><defs /><polyline fill="none" points="84.898,39.619 60.517,39.1837 53.9864,40.4898 31.3469,48.3265 22.2041,53.9864 15.6735,62.6939 12.6259,70.0952 8.7075,94.0408 8.7075,98.3946 10.8844,102.3129 20.4626,109.7143 38.7483,115.8095 64.8707,118.8571 79.2381,118.8571 93.1701,113.1973 102.3129,103.619 107.5374,91.4286 109.7143,62.2585 108.4082,55.2925 104.4898,48.7619" stroke="#00007f" stroke-width="2" /><polyline fill="none" points="45.7143,41.7959 37.0068,26.9932 22.2041,8.7075 20.898,10.449 20.898,48.7619" stroke="#004cff" stroke-width="2" /><polyline fill="none" points="90.9932,39.1837 114.9388,30.4762 117.9864,29.6054 119.2925,30.9116 118.4218,43.5374 113.1973,58.3401" stroke="#29ffcd" stroke-width="2" /><polyline fill="none" points="47.0204,66.6122 50.5034,67.9184 50.5034,63.5646" stroke="#cdff29" stroke-width="2" /><polyline fill="none" points="74.0136,69.2245 75.7551,70.0952 78.3673,68.7891" stroke="#ff6700" stroke-width="2" /><polyline fill="none" points="58.3401,81.415 59.6463,83.5918" stroke="#7f0000" stroke-width="2" /></svg>