<?xml version="1.0" encoding="utf-8" ?>
<svg baseProfile="tiny" height="128" version="1.2" viewBox="0,0,128,128" width="128" xmlns="http://www.w3.org/2000/svg" xmlns:ev="http://www.w3.org/2001/xml-events" xmlns:xlink="http://www.w3.org/1999/xlink"><defs /><polyline fill="none" points="82.4407,48.1627 75.0644,43.3898 68.122,42.0881 41.2203,42.0881 37.3153,42.9559 24.2983,51.2 14.3186,60.3119 9.1119,71.5932 8.678,85.9119 10.8475,91.9864 19.0915,101.5322 34.7119,112.3797 50.7661,119.322 70.2915,119.322 81.5729,116.2847 98.4949,114.9831 101.5322,111.9458 110.6441,93.722 112.8136,81.5729 111.9458,60.3119 110.2102,57.7085 102.8339,54.2373 89.8169,52.0678" stroke="#00007f" stroke-width="2" /><polyline fill="none" points="88.5153,52.0678 86.3458,52.0678" stroke="#0000f1" stroke-width="2" /><polyline fill="none" points="35.1458,40.7864 38.6169,26.4678 49.8983,10.4136" stroke="#004cff" stroke-width="2" /><polyline fill="none" points="51.2,8.678 50.3322,36.0136" stroke="#00b0ff" stroke-width="2" /><polyline fill="none" points="82.4407,39.4847 97.1932,26.4678 99.7966,21.261 99.7966,32.9763 98.061,38.6169 99.3627,52.5017" stroke="#29ffcd" stroke-width="2" /><polyline fill="none" points="41.6542,64.6508 37.3153,66.3864 36.4475,68.9898 40.3525,72.461 50.3322,74.6305 57.2746,71.5932 57.2746,69.4237 55.539,68.5559 40.7864,68.122" stroke="#7cff79" stroke-width="2" /><polyline fill="none" points="80.2712,70.7254 68.5559,71.1593 68.122,73.3288 70.2915,74.6305 76.3661,75.0644 82.8746,75.0644 84.6102,74.1966 84.6102,72.461 74.6305,70.7254" stroke="#cdff29" stroke-width="2" /><polyline fill="none" points="67.2542,86.7797 57.2746,87.2136 56.4068,89.3831 58.5763,91.1186 64.2169,92.4203 79.8373,92.8542 79.8373,86.3458 68.9898,85.0441" stroke="#ffc400" stroke-width="2" /><polyline fill="none" points="65.5186,87.6475 49.4644,77.2339" stroke="#ff6700" stroke-width="2" /><polyline fill="none" points="82.8746,86.3458 88.5153,82.8746" stroke="#f10700" stroke-width="2" /><polyline fill="none" points="91.5525,82.4407 98.9288,80.2712" stroke="#7f0000" stroke-width="2" /></svg>