<?xml version="1.0" encoding="utf-8" ?>
<svg baseProfile="tiny" height="128" version="1.2" viewBox="0,0,128,128" width="128" xmlns="http://www.w3.org/2000/svg" xmlns:ev="http://www.w3.org/2001/xml-events" xmlns:xlink="http://www.w3.org/1999/xlink"><defs /><polyline fill="none" points="21.261,30.8068 23.4305,22.9966 32.9763,8.678 35.5797,9.1119 44.6915,24.7322 49.4644,22.1288 59.0102,21.6949 72.0271,26.4678 80.7051,16.4881 90.2508,13.4508 97.1932,30.3729 97.6271,35.1458 101.0983,42.9559 101.0983,62.4814 100.2305,68.122 96.3254,75.4983 88.5153,81.139 72.0271,85.0441 48.5966,86.3458 39.4847,82.4407 32.5424,76.3661 22.5627,62.0475 17.3559,49.0305 17.3559,36.4475 20.8271,29.0712" stroke="#00007f" stroke-width="2" /><polyline fill="none" points="42.9559,57.2746 21.6949,51.2 13.4508,50.7661" stroke="#0010ff" stroke-width="2" /><polyline fill="none" points="38.6169,66.3864 8.678,67.2542" stroke="#00a4ff" stroke-width="2" /><polyline fill="none" points="38.6169,74.1966 33.4102,77.6678 18.6576,80.2712" stroke="#3fffb7" stroke-width="2" /><polyline fill="none" points="90.2508,56.8407 98.9288,53.3695 115.8508,51.6339" stroke="#b7ff3f" stroke-width="2" /><polyline fill="none" points="87.2136,62.9153 109.3424,63.3492 119.322,65.5186" stroke="#ffb900" stroke-width="2" /><polyline fill="none" points="84.6102,69.8576 104.1356,78.1017 118.4542,78.5356" stroke="#ff3000" stroke-width="2" /><polyline fill="none" points="77.2339,41.6542 77.2339,41.6542" stroke="#7f0000" stroke-width="2" /></svg>