<?xml version="1.0" encoding="utf-8" ?>
<svg baseProfile="tiny" height="128" version="1.2" viewBox="0,0,128,128" width="128" xmlns="http://www.w3.org/2000/svg" xmlns:ev="http://www.w3.org/2001/xml-events" xmlns:xlink="http://www.w3.org/1999/xlink"><defs /><polyline fill="none" points="37.7492,11.7153 38.1831,19.5254 30.3729,15.6203 28.6373,11.7153 22.5627,11.2814 15.1864,17.7898 10.8475,27.3356 8.678,39.9186 10.4136,52.0678 16.922,65.0847 20.3932,68.5559 24.7322,69.8576 30.8068,71.1593 41.2203,70.2915 55.539,65.0847 69.8576,55.9729 69.4237,48.1627 59.0102,37.3153 42.0881,26.0339 36.4475,24.7322 28.2034,28.6373 22.5627,28.2034 21.6949,34.7119 22.5627,45.9932 38.1831,64.2169 55.9729,88.9492 58.1424,89.8169 65.5186,71.5932 71.5932,50.3322 66.3864,46.861 60.3119,44.6915" stroke="#00007f" stroke-width="2" /><polyline fill="none" points="55.539,44.2576 46.4271,40.3525 31.2407,40.3525 32.5424,55.1051 32.1085,119.322 27.7695,75.0644 31.2407,41.2203 39.4847,8.678" stroke="#7f0000" stroke-width="2" /></svg>