<?xml version="1.0" encoding="utf-8" ?>
<svg baseProfile="tiny" height="128" version="1.2" viewBox="0,0,128,128" width="128" xmlns="http://www.w3.org/2000/svg" xmlns:ev="http://www.w3.org/2001/xml-events" xmlns:xlink="http://www.w3.org/1999/xlink"><defs /><polyline fill="none" points="46.861,26.9017 37.3153,26.9017 29.0712,29.939 19.9593,36.0136 12.1492,45.5593 8.678,55.9729 9.5458,65.5186 16.922,72.8949 22.5627,75.9322 36.8814,79.4034 60.3119,78.5356 80.7051,69.4237 89.8169,59.878 91.9864,54.6712 91.9864,44.2576 89.3831,39.0508 80.7051,30.3729 75.0644,26.9017 62.4814,23.8644 37.3153,22.5627" stroke="#00007f" stroke-width="2" /><polyline fill="none" points="13.8847,36.4475 20.8271,21.261 26.4678,14.3186 28.6373,15.1864 31.6746,24.2983 35.1458,28.2034" stroke="#0000fe" stroke-width="2" /><polyline fill="none" points="55.539,23.4305 74.1966,10.4136 78.5356,8.678 80.2712,9.1119 80.7051,13.0169 79.4034,29.0712" stroke="#0060ff" stroke-width="2" /><polyline fill="none" points="31.2407,42.522 71.5932,60.7458" stroke="#00d4ff" stroke-width="2" /><polyline fill="none" points="33.4102,61.6136 54.2373,49.0305 66.8203,43.3898" stroke="#4cffaa" stroke-width="2" /><polyline fill="none" points="42.9559,35.5797 43.8237,35.5797 43.3898,32.9763 40.7864,32.1085 40.3525,34.278 41.2203,34.7119 46.4271,34.7119" stroke="#aaff4c" stroke-width="2" /><polyline fill="none" points="61.1797,33.8441 64.6508,34.7119 65.9525,32.5424 62.9153,32.1085 62.4814,33.4102 64.6508,34.7119 63.3492,33.4102" stroke="#ffe500" stroke-width="2" /><polyline fill="none" points="91.5525,44.6915 104.5695,47.7288 112.8136,52.9356 116.7186,58.1424 119.322,65.0847 119.322,72.0271 118.0203,75.9322 113.6814,81.5729 107.1729,85.9119 98.4949,89.8169 89.3831,91.9864 80.2712,92.4203 56.8407,85.9119 55.1051,84.6102 54.6712,81.139 56.8407,78.5356" stroke="#ff7a00" stroke-width="2" /><polyline fill="none" points="65.9525,91.1186 62.9153,91.1186 60.3119,93.2881 59.0102,95.4576 59.878,100.2305 64.2169,104.1356 67.2542,104.5695 71.1593,104.1356 74.6305,101.9661 76.3661,97.6271 75.0644,94.5898 71.1593,92.8542 64.6508,91.9864" stroke="#fe1200" stroke-width="2" /><polyline fill="none" points="94.5898,97.1932 93.2881,95.8915 85.478,96.3254 83.7424,98.4949 85.478,101.9661 90.2508,104.1356 95.4576,104.1356 99.7966,101.9661 101.9661,97.6271 100.6644,92.4203 98.4949,89.8169 93.2881,89.3831 88.0814,91.9864" stroke="#7f0000" stroke-width="2" /></svg>