<?xml version="1.0" encoding="utf-8" ?>
<svg baseProfile="tiny" height="128" version="1.2" viewBox="0,0,128,128" width="128" xmlns="http://www.w3.org/2000/svg" xmlns:ev="http://www.w3.org/2001/xml-events" xmlns:xlink="http://www.w3.org/1999/xlink"><defs /><polyline fill="none" points="31.6746,107.1729 25.1661,105.4373 17.3559,98.9288 12.5831,91.9864 9.9797,83.3085 10.8475,62.4814 15.1864,51.6339 24.2983,39.9186 39.9186,31.2407 53.3695,28.2034 66.8203,27.7695 81.139,32.5424 93.722,40.3525 100.6644,45.9932 107.6068,55.9729 110.2102,65.0847 110.2102,74.1966 102.8339,88.9492 90.2508,102.4 75.9322,108.9085 52.0678,111.5119 40.3525,111.078 28.6373,104.5695" stroke="#00007f" stroke-width="2" /><polyline fill="none" points="12.5831,53.8034 12.5831,47.2949 19.0915,13.4508 38.1831,30.8068 42.522,32.9763" stroke="#0000e8" stroke-width="2" /><polyline fill="none" points="78.9695,29.5051 83.3085,27.3356 99.3627,13.0169 107.1729,8.678 108.0407,16.4881 106.3051,29.0712 106.3051,45.9932 104.5695,47.2949" stroke="#0038ff" stroke-width="2" /><polyline fill="none" points="47.7288,53.8034 46.4271,59.878 44.6915,62.0475 42.9559,61.6136 43.8237,59.0102" stroke="#0094ff" stroke-width="2" /><polyline fill="none" points="74.6305,54.6712 72.461,54.2373 74.6305,52.9356 74.6305,58.1424" stroke="#0cf4ea" stroke-width="2" /><polyline fill="none" points="48.1627,80.2712 23.4305,78.1017 12.1492,78.1017 8.678,79.8373" stroke="#56ffa0" stroke-width="2" /><polyline fill="none" points="50.7661,82.4407 21.261,98.061 13.8847,104.5695" stroke="#a0ff56" stroke-width="2" /><polyline fill="none" points="55.539,85.9119 49.0305,89.8169 22.1288,114.1153" stroke="#eaff0c" stroke-width="2" /><polyline fill="none" points="75.9322,72.8949 88.0814,72.8949 119.322,59.878" stroke="#ffaa00" stroke-width="2" /><polyline fill="none" points="68.9898,85.478 71.1593,86.7797 118.8881,86.7797" stroke="#ff5500" stroke-width="2" /><polyline fill="none" points="73.3288,110.6441 96.7593,112.3797 106.3051,112.3797 108.9085,111.5119 108.9085,110.6441" stroke="#e80000" stroke-width="2" /><polyline fill="none" points="71.1593,82.4407 70.7254,78.5356 65.5186,76.3661" stroke="#7f0000" stroke-width="2" /></svg>