<?xml version="1.0" encoding="utf-8" ?>
<svg baseProfile="tiny" height="128" version="1.2" viewBox="0,0,128,128" width="128" xmlns="http://www.w3.org/2000/svg" xmlns:ev="http://www.w3.org/2001/xml-events" xmlns:xlink="http://www.w3.org/1999/xlink"><defs /><polyline fill="none" points="23.4305,33.8441 30.3729,8.678 39.9186,27.3356 41.6542,33.8441 57.2746,34.278 74.6305,39.4847 77.2339,37.7492 88.5153,14.3186 90.6847,15.1864 96.3254,31.2407 98.061,39.9186 97.1932,67.6881 91.9864,78.1017 87.6475,83.3085 83.7424,84.1763 66.8203,84.6102 42.9559,76.8 34.278,69.4237 26.9017,57.2746 23.4305,42.522 23.8644,32.9763" stroke="#00007f" stroke-width="2" /><polyline fill="none" points="8.678,47.2949 12.1492,47.7288 39.0508,62.9153" stroke="#0000ff" stroke-width="2" /><polyline fill="none" points="12.5831,70.2915 40.3525,64.2169" stroke="#0080ff" stroke-width="2" /><polyline fill="none" points="29.0712,84.1763 43.3898,64.2169" stroke="#15ffe1" stroke-width="2" /><polyline fill="none" points="49.4644,52.5017 45.9932,52.5017" stroke="#7cff79" stroke-width="2" /><polyline fill="none" points="75.9322,54.6712 77.6678,57.2746 78.9695,56.8407" stroke="#e4ff12" stroke-width="2" /><polyline fill="none" points="88.9492,61.6136 101.0983,59.0102 118.8881,52.0678" stroke="#ff9400" stroke-width="2" /><polyline fill="none" points="89.3831,62.0475 111.9458,70.2915 119.322,70.7254" stroke="#ff1d00" stroke-width="2" /><polyline fill="none" points="91.5525,66.8203 95.8915,72.8949" stroke="#7f0000" stroke-width="2" /></svg>