<?xml version="1.0" encoding="utf-8" ?>
<svg baseProfile="tiny" height="128" version="1.2" viewBox="0,0,128,128" width="128" xmlns="http://www.w3.org/2000/svg" xmlns:ev="http://www.w3.org/2001/xml-events" xmlns:xlink="http://www.w3.org/1999/xlink"><defs /><polyline fill="none" points="28.2034,29.5051 16.4881,31.2407 10.8475,34.7119 8.678,37.7492 8.678,44.2576 12.1492,50.3322 19.9593,55.539 37.7492,57.2746 43.8237,55.539 46.4271,52.0678 46.4271,45.1254 41.6542,32.1085 37.7492,28.2034 27.7695,27.7695" stroke="#00007f" stroke-width="2" /><polyline fill="none" points="28.2034,29.5051 30.3729,21.6949 30.8068,8.678 36.0136,15.6203 41.2203,30.3729" stroke="#0000f1" stroke-width="2" /><polyline fill="none" points="41.2203,29.939 48.1627,14.3186 49.0305,29.5051 47.2949,38.1831" stroke="#004cff" stroke-width="2" /><polyline fill="none" points="65.5186,42.522 59.0102,42.9559 49.0305,47.2949 45.5593,59.878 45.9932,65.9525 49.0305,70.2915 61.1797,75.0644 85.9119,75.4983 93.722,73.7627 102.4,68.9898 106.3051,62.9153 106.3051,52.0678 96.3254,43.8237 90.2508,42.0881 70.7254,43.3898" stroke="#00b0ff" stroke-width="2" /><polyline fill="none" points="106.739,53.3695 110.6441,46.4271 112.3797,39.0508 112.3797,27.3356 110.6441,22.9966 115.4169,26.0339 117.1525,30.3729 119.322,52.5017 113.6814,58.1424 101.0983,60.7458" stroke="#29ffcd" stroke-width="2" /><polyline fill="none" points="65.5186,75.4983 59.0102,78.1017 49.8983,88.5153" stroke="#7cff79" stroke-width="2" /><polyline fill="none" points="72.8949,76.3661 73.7627,84.6102 72.461,91.1186" stroke="#cdff29" stroke-width="2" /><polyline fill="none" points="85.478,75.4983 91.1186,86.7797" stroke="#ffc400" stroke-width="2" /><polyline fill="none" points="95.8915,74.1966 107.6068,85.478" stroke="#ff6700" stroke-width="2" /><polyline fill="none" points="14.7525,39.0508 13.8847,39.9186 13.8847,44.2576 16.4881,45.1254 19.9593,45.1254 20.8271,43.3898 19.0915,40.3525 17.3559,39.4847" stroke="#f10700" stroke-width="2" /><polyline fill="none" points="24.2983,41.2203 21.6949,42.522 22.1288,45.1254" stroke="#7f0000" stroke-width="2" /></svg>