<?xml version="1.0" encoding="utf-8" ?>
<svg baseProfile="tiny" height="128" version="1.2" viewBox="0,0,128,128" width="128" xmlns="http://www.w3.org/2000/svg" xmlns:ev="http://www.w3.org/2001/xml-events" xmlns:xlink="http://www.w3.org/1999/xlink"><defs /><polyline fill="none" points="33.8441,51.2 29.939,63.3492 30.8068,72.461 45.1254,101.5322 52.0678,107.6068 56.4068,107.6068 85.0441,91.9864 101.5322,74.6305 99.3627,68.5559 94.1559,63.7831 85.9119,49.0305 75.4983,43.3898 45.5593,45.1254 32.5424,52.0678 30.3729,58.5763" stroke="#00007f" stroke-width="2" /><polyline fill="none" points="82.4407,42.522 100.2305,22.5627 117.1525,8.678 118.8881,10.8475 119.322,36.4475 115.8508,64.6508 113.6814,72.0271 108.4746,72.461" stroke="#0000fe" stroke-width="2" /><polyline fill="none" points="58.1424,33.4102 57.7085,37.7492 57.2746,28.2034 54.2373,17.3559 50.3322,14.7525 45.5593,21.6949 38.1831,38.1831 38.1831,44.2576 39.9186,50.3322" stroke="#0060ff" stroke-width="2" /><polyline fill="none" points="50.3322,83.3085 58.1424,80.7051 59.878,82.8746 55.1051,91.1186 52.9356,91.5525 51.2,89.3831 52.0678,81.139" stroke="#00d4ff" stroke-width="2" /><polyline fill="none" points="78.1017,81.139 80.7051,83.7424 91.9864,88.5153 114.1153,94.5898 103.7017,96.3254" stroke="#4cffaa" stroke-width="2" /><polyline fill="none" points="72.8949,91.1186 78.9695,104.1356 79.4034,110.6441 77.6678,109.7763" stroke="#aaff4c" stroke-width="2" /><polyline fill="none" points="36.0136,75.9322 8.678,75.4983" stroke="#ffe500" stroke-width="2" /><polyline fill="none" points="38.1831,85.9119 32.9763,92.8542 26.4678,97.6271" stroke="#ff7a00" stroke-width="2" /><polyline fill="none" points="50.3322,90.2508 50.3322,98.9288 52.0678,100.6644 54.2373,100.2305 57.2746,95.4576" stroke="#fe1200" stroke-width="2" /><polyline fill="none" points="66.3864,54.2373 66.3864,54.2373" stroke="#7f0000" stroke-width="2" /></svg>