<?xml version="1.0" encoding="utf-8" ?>
<svg baseProfile="tiny" height="128" version="1.2" viewBox="0,0,128,128" width="128" xmlns="http://www.w3.org/2000/svg" xmlns:ev="http://www.w3.org/2001/xml-events" xmlns:xlink="http://www.w3.org/1999/xlink"><defs /><polyline fill="none" points="10.8844,21.7687 16.5442,14.3673 22.2041,11.7551 26.1224,20.0272" stroke="#00007f" stroke-width="2" /><polyline fill="none" points="26.1224,20.0272 35.7007,16.9796 39.1837,10.0136 41.3605,8.7075 45.7143,16.5442" stroke="#0028ff" stroke-width="2" /><polyline fill="none" points="10.0136,22.2041 8.7075,25.6871 8.7075,37.4422 10.449,43.5374 14.3673,47.8912 18.2857,48.3265" stroke="#00d4ff" stroke-width="2" /><polyline fill="none" points="17.8503,32.6531 18.7211,32.2177 17.8503,31.7823" stroke="#7cff79" stroke-width="2" /><polyline fill="none" points="38.7483,30.9116 38.7483,30.9116" stroke="#ffe500" stroke-width="2" /><polyline fill="none" points="37.4422,26.5578 37.4422,26.9932" stroke="#ff4600" stroke-width="2" /><polyline fill="none" points="18.7211,47.8912 31.7823,47.4558 35.7007,48.7619 35.7007,58.7755 38.3129,70.966 42.2313,74.0136 50.9388,68.7891 60.0816,59.2109 61.3878,57.034 60.9524,53.1156 61.3878,67.0476 66.1769,73.5782 68.3537,72.7075 76.6259,55.2925 87.0748,70.5306 90.5578,70.5306 96.6531,67.483 100.1361,64.0 101.8776,59.6463 102.7483,66.1769 105.3605,69.6599 115.8095,58.3401 118.4218,53.551 119.2925,48.7619" stroke="#7f0000" stroke-width="2" /></svg>