<?xml version="1.0" encoding="utf-8" ?>
<svg baseProfile="tiny" height="128" version="1.2" viewBox="0,0,128,128" width="128" xmlns="http://www.w3.org/2000/svg" xmlns:ev="http://www.w3.org/2001/xml-events" xmlns:xlink="http://www.w3.org/1999/xlink"><defs /><polyline fill="none" points="45.1254,34.278 37.3153,39.4847 25.1661,52.9356 40.7864,82.4407 85.0441,89.8169 104.1356,80.7051 110.6441,63.3492 95.0237,36.4475 59.878,29.0712 39.4847,29.0712" stroke="#00007f" stroke-width="2" /><polyline fill="none" points="36.0136,42.0881 42.9559,15.6203 45.9932,8.678 52.5017,19.0915 56.8407,30.3729" stroke="#0000cc" stroke-width="2" /><polyline fill="none" points="92.4203,30.8068 106.3051,19.9593" stroke="#0008ff" stroke-width="2" /><polyline fill="none" points="110.2102,26.4678 110.6441,33.8441 102.8339,48.1627 101.9661,47.7288" stroke="#004cff" stroke-width="2" /><polyline fill="none" points="52.0678,63.3492 51.2,65.5186" stroke="#0090ff" stroke-width="2" /><polyline fill="none" points="85.9119,59.0102 86.7797,63.7831" stroke="#00d4ff" stroke-width="2" /><polyline fill="none" points="65.5186,65.9525 64.2169,68.5559 67.6881,72.0271 70.7254,65.9525 66.3864,64.6508" stroke="#29ffcd" stroke-width="2" /><polyline fill="none" points="66.8203,71.1593 59.4441,76.3661" stroke="#5fff96" stroke-width="2" /><polyline fill="none" points="65.5186,70.2915 72.8949,78.5356" stroke="#96ff5f" stroke-width="2" /><polyline fill="none" points="41.2203,67.2542 8.678,78.1017 16.922,76.3661" stroke="#cdff29" stroke-width="2" /><polyline fill="none" points="43.8237,72.0271 35.5797,76.3661" stroke="#ffe500" stroke-width="2" /><polyline fill="none" points="21.261,84.6102 19.9593,86.3458" stroke="#ffa600" stroke-width="2" /><polyline fill="none" points="19.5254,86.7797 19.5254,86.7797" stroke="#ff6700" stroke-width="2" /><polyline fill="none" points="42.9559,73.7627 34.278,82.4407 26.4678,94.5898" stroke="#ff2800" stroke-width="2" /><polyline fill="none" points="103.7017,65.9525 119.322,68.122" stroke="#cc0000" stroke-width="2" /><polyline fill="none" points="95.0237,73.3288 95.0237,73.3288" stroke="#7f0000" stroke-width="2" /></svg>