<?xml version="1.0" encoding="utf-8" ?>
<svg baseProfile="tiny" height="128" version="1.2" viewBox="0,0,128,128" width="128" xmlns="http://www.w3.org/2000/svg" xmlns:ev="http://www.w3.org/2001/xml-events" xmlns:xlink="http://www.w3.org/1999/xlink"><defs /><polyline fill="none" points="27.7695,42.522 29.0712,37.3153 28.6373,11.2814 30.3729,8.678 45.5593,23.4305 53.3695,37.7492 66.8203,34.7119 78.9695,39.0508 95.0237,20.3932 101.9661,14.3186 107.6068,11.2814 106.3051,21.261 98.4949,43.3898 102.8339,50.7661 106.3051,62.0475 105.8712,74.6305 101.9661,83.3085 95.8915,86.3458 82.4407,88.5153 75.0644,88.5153 49.0305,81.139 40.7864,76.3661 33.8441,67.6881 29.0712,54.6712 29.0712,46.4271 34.7119,34.7119" stroke="#00007f" stroke-width="2" /><polyline fill="none" points="58.5763,59.878 47.2949,55.1051 32.9763,53.8034 15.1864,57.7085 9.1119,61.1797 8.678,64.6508" stroke="#0010ff" stroke-width="2" /><polyline fill="none" points="46.861,70.7254 33.4102,64.2169 27.3356,64.6508 21.6949,66.8203 16.922,71.5932 10.4136,82.4407" stroke="#00a4ff" stroke-width="2" /><polyline fill="none" points="49.0305,63.3492 39.4847,59.878 27.7695,58.5763 21.261,59.878 9.5458,68.5559" stroke="#3fffb7" stroke-width="2" /><polyline fill="none" points="80.7051,59.0102 101.0983,50.7661 118.0203,49.0305" stroke="#b7ff3f" stroke-width="2" /><polyline fill="none" points="79.4034,63.7831 88.5153,59.0102 97.1932,56.4068 115.4169,55.1051 119.322,57.7085" stroke="#ffb900" stroke-width="2" /><polyline fill="none" points="77.6678,74.1966 92.4203,71.1593 110.2102,72.0271 117.5864,75.4983 119.322,81.139" stroke="#ff3000" stroke-width="2" /><polyline fill="none" points="68.5559,56.4068 63.3492,63.7831 62.4814,67.6881 66.8203,71.5932 73.3288,71.5932 75.0644,69.4237 72.0271,64.2169" stroke="#7f0000" stroke-width="2" /></svg>