<?xml version="1.0" encoding="utf-8" ?>
<svg baseProfile="tiny" height="128" version="1.2" viewBox="0,0,128,128" width="128" xmlns="http://www.w3.org/2000/svg" xmlns:ev="http://www.w3.org/2001/xml-events" xmlns:xlink="http://www.w3.org/1999/xlink"><defs /><polyline fill="none" points="34.7119,39.9186 26.4678,43.8237 15.1864,61.1797 12.1492,73.7627 12.1492,80.7051 13.0169,86.7797 16.0542,92.4203 26.0339,101.0983 38.6169,105.4373 46.4271,106.3051 61.6136,105.0034 81.139,95.4576 92.4203,85.478 99.3627,74.1966 101.0983,68.122 102.4,50.3322 95.8915,40.3525 85.9119,33.8441 79.4034,31.6746 58.1424,29.939 51.2,30.8068 40.7864,34.7119 29.939,43.3898" stroke="#00007f" stroke-width="2" /><polyline fill="none" points="11.2814,57.7085 8.678,19.0915 12.5831,18.6576 14.7525,19.9593 31.6746,33.8441" stroke="#0010ff" stroke-width="2" /><polyline fill="none" points="85.9119,31.2407 107.1729,13.8847 117.5864,8.678 119.322,11.7153 118.8881,18.2237 106.3051,38.1831 101.5322,49.4644" stroke="#00a4ff" stroke-width="2" /><polyline fill="none" points="54.2373,65.9525 49.8983,68.9898 49.4644,72.461 51.2,72.8949 59.0102,72.8949 65.0847,68.5559 65.0847,66.3864 62.9153,65.5186 55.9729,65.5186 52.0678,68.5559 51.2,70.7254" stroke="#3fffb7" stroke-width="2" /><polyline fill="none" points="58.1424,73.3288 58.5763,88.0814 61.6136,93.2881 65.5186,94.1559 68.9898,92.8542 77.6678,86.3458" stroke="#b7ff3f" stroke-width="2" /><polyline fill="none" points="58.1424,74.1966 57.2746,87.2136 55.539,91.5525 50.7661,94.5898 45.5593,92.4203" stroke="#ffb900" stroke-width="2" /><polyline fill="none" points="35.5797,52.0678 33.8441,54.2373 34.278,60.3119 39.0508,60.3119 42.0881,55.9729 41.6542,51.6339 35.1458,49.8983 32.5424,53.3695" stroke="#ff3000" stroke-width="2" /><polyline fill="none" points="79.8373,43.3898 78.5356,48.5966 80.2712,52.5017 86.3458,54.2373 88.5153,49.0305 88.5153,44.2576 86.3458,42.0881 78.5356,40.7864 76.3661,41.6542 75.0644,44.2576" stroke="#7f0000" stroke-width="2" /></svg>