<?xml version="1.0" encoding="utf-8" ?>
<svg baseProfile="tiny" height="128" version="1.2" viewBox="0,0,128,128" width="128" xmlns="http://www.w3.org/2000/svg" xmlns:ev="http://www.w3.org/2001/xml-events" xmlns:xlink="http://www.w3.org/1999/xlink"><defs /><polyline fill="none" points="40.9252,21.7687 53.1156,17.8503 74.8844,16.1088 92.7347,24.8163" stroke="#00007f" stroke-width="2" /><polyline fill="none" points="91.8639,30.0408 103.619,16.5442 118.4218,8.7075 119.2925,10.8844 117.551,20.0272 117.551,47.8912" stroke="#0000fe" stroke-width="2" /><polyline fill="none" points="47.8912,27.8639 45.7143,24.381 23.5102,11.7551 8.7075,9.5782 15.6735,17.8503 28.2993,40.0544" stroke="#0060ff" stroke-width="2" /><polyline fill="none" points="25.6871,35.2653 25.6871,64.8707 28.2993,77.0612 33.0884,86.2041 35.7007,88.8163 43.102,92.2993 51.3741,92.2993 103.619,73.5782 109.7143,68.7891 113.1973,63.5646 115.3741,53.551 115.3741,41.7959 112.3265,32.2177" stroke="#00d4ff" stroke-width="2" /><polyline fill="none" points="50.9388,35.7007 46.585,32.6531 41.7959,25.6871 43.5374,27.4286 46.1497,36.1361 48.7619,36.5714 49.1973,34.8299 45.2789,36.1361 45.2789,33.5238" stroke="#4cffaa" stroke-width="2" /><polyline fill="none" points="74.8844,39.1837 71.4014,46.585 71.4014,44.4082 72.7075,42.2313 71.8367,47.0204 70.966,40.9252" stroke="#aaff4c" stroke-width="2" /><polyline fill="none" points="52.6803,48.7619 56.5986,48.7619 58.3401,50.9388 57.4694,54.4218 53.551,54.8571 51.3741,52.2449 50.9388,48.3265" stroke="#ffe500" stroke-width="2" /><polyline fill="none" points="54.8571,54.4218 54.8571,63.1293 60.517,76.1905 62.6939,77.0612 67.0476,68.7891 64.0,67.0476" stroke="#ff7a00" stroke-width="2" /><polyline fill="none" points="60.517,75.7551 55.2925,74.0136 50.5034,67.9184" stroke="#fe1200" stroke-width="2" /><polyline fill="none" points="64.0,57.9048 68.7891,57.9048" stroke="#7f0000" stroke-width="2" /></svg>