<?xml version="1.0" encoding="utf-8" ?>
<svg baseProfile="tiny" height="128" version="1.2" viewBox="0,0,128,128" width="128" xmlns="http://www.w3.org/2000/svg" xmlns:ev="http://www.w3.org/2001/xml-events" xmlns:xlink="http://www.w3.org/1999/xlink"><defs /><polyline fill="none" points="59.878,34.278 46.4271,34.7119 33.8441,38.6169 24.7322,46.4271 21.261,56.4068 21.6949,60.7458 24.7322,67.6881 32.1085,73.7627 44.2576,78.9695 58.1424,80.7051 77.2339,78.1017 88.0814,73.3288 95.4576,66.3864 98.9288,59.0102 98.4949,55.1051 93.722,48.1627 83.3085,41.2203 64.2169,36.0136 48.1627,35.1458" stroke="#00007f" stroke-width="2" /><polyline fill="none" points="52.5017,55.539 50.7661,55.9729 49.4644,58.5763 53.8034,62.0475 57.2746,62.9153 64.2169,61.6136 63.7831,58.1424 59.878,55.1051 54.6712,54.2373" stroke="#0000d5" stroke-width="2" /><polyline fill="none" points="38.6169,42.522 38.6169,42.522" stroke="#001cff" stroke-width="2" /><polyline fill="none" points="78.5356,51.6339 78.5356,51.6339" stroke="#006cff" stroke-width="2" /><polyline fill="none" points="37.7492,46.4271 39.4847,46.4271 39.4847,45.5593" stroke="#00b8ff" stroke-width="2" /><polyline fill="none" points="80.7051,52.0678 79.4034,50.7661" stroke="#1cffda" stroke-width="2" /><polyline fill="none" points="39.4847,70.2915 40.7864,68.5559 49.8983,67.2542 57.2746,68.9898 61.1797,72.0271 68.9898,68.9898 73.7627,69.4237 76.8,70.7254 79.4034,74.1966" stroke="#5cff9a" stroke-width="2" /><polyline fill="none" points="81.139,60.7458 113.2475,81.139 116.7186,81.5729" stroke="#9aff5c" stroke-width="2" /><polyline fill="none" points="82.4407,65.5186 105.0034,96.3254" stroke="#daff1c" stroke-width="2" /><polyline fill="none" points="86.7797,62.9153 90.2508,61.1797 107.6068,57.7085 119.322,52.9356" stroke="#ffcb00" stroke-width="2" /><polyline fill="none" points="37.3153,57.2746 8.678,58.5763" stroke="#ff8500" stroke-width="2" /><polyline fill="none" points="36.8814,67.6881 27.7695,68.122 13.0169,72.8949" stroke="#ff3b00" stroke-width="2" /><polyline fill="none" points="39.9186,70.7254 29.0712,82.0068 16.922,98.061" stroke="#d50000" stroke-width="2" /><polyline fill="none" points="26.9017,42.522 20.3932,31.2407 21.261,18.6576 23.8644,9.1119 26.4678,8.678 37.7492,16.4881 42.0881,22.9966 47.2949,39.0508" stroke="#7f0000" stroke-width="2" /></svg>