<?xml version="1.0" encoding="utf-8" ?>
<svg baseProfile="tiny" height="128" version="1.2" viewBox="0,0,128,128" width="128" xmlns="http://www.w3.org/2000/svg" xmlns:ev="http://www.w3.org/2001/xml-events" xmlns:xlink="http://www.w3.org/1999/xlink"><defs /><polyline fill="none" points="23.8644,58.5763 15.1864,64.6508 8.678,76.3661 8.678,88.9492 11.7153,97.6271 19.5254,106.739 24.2983,109.7763 51.6339,118.8881 65.0847,119.322 76.8,98.9288 79.8373,87.2136 82.0068,64.6508 78.5356,54.2373 59.0102,48.1627 29.939,47.2949 13.4508,52.5017 11.2814,54.6712 9.9797,59.878" stroke="#00007f" stroke-width="2" /><polyline fill="none" points="11.7153,66.3864 9.1119,40.7864 9.1119,16.0542 13.0169,16.0542 20.8271,27.3356 28.2034,34.278" stroke="#0028ff" stroke-width="2" /><polyline fill="none" points="55.539,46.861 57.2746,40.7864 65.0847,30.8068 72.8949,22.9966 91.1186,11.2814 97.1932,8.678 99.7966,9.5458 108.9085,21.261 111.078,27.3356 110.6441,37.3153 102.4,57.2746 99.3627,59.878 88.9492,64.6508 68.5559,68.122" stroke="#00d4ff" stroke-width="2" /><polyline fill="none" points="35.5797,78.5356 31.6746,78.5356 31.2407,75.9322" stroke="#7cff79" stroke-width="2" /><polyline fill="none" points="57.7085,75.9322 55.539,80.7051" stroke="#ffe500" stroke-width="2" /><polyline fill="none" points="41.6542,96.3254 40.3525,101.9661 38.6169,103.2678 31.6746,103.2678 30.3729,101.5322" stroke="#ff4600" stroke-width="2" /><polyline fill="none" points="42.9559,95.8915 42.9559,95.8915" stroke="#7f0000" stroke-width="2" /></svg>