<?xml version="1.0" encoding="utf-8" ?>
<svg baseProfile="tiny" height="128" version="1.2" viewBox="0,0,128,128" width="128" xmlns="http://www.w3.org/2000/svg" xmlns:ev="http://www.w3.org/2001/xml-events" xmlns:xlink="http://www.w3.org/1999/xlink"><defs /><polyline fill="none" points="18.2237,83.3085 18.2237,83.3085" stroke="#00007f" stroke-width="2" /><polyline fill="none" points="53.8034,51.2 45.9932,52.9356 29.5051,70.7254 21.261,85.478 19.5254,99.7966 19.9593,105.4373 28.2034,113.2475 42.0881,117.1525 59.878,118.0203 76.3661,117.5864 89.8169,111.9458 95.8915,107.6068 100.6644,102.8339 106.739,91.5525 107.1729,78.9695 102.8339,67.2542 95.8915,58.5763 83.3085,52.0678 74.6305,51.2 35.1458,50.3322" stroke="#0000ff" stroke-width="2" /><polyline fill="none" points="36.8814,70.2915 28.2034,66.3864 26.4678,62.9153 18.2237,30.8068 8.678,9.5458 11.7153,8.678 39.0508,25.6 42.522,29.5051 52.0678,50.3322 55.1051,50.3322" stroke="#0080ff" stroke-width="2" /><polyline fill="none" points="82.0068,53.8034 85.9119,47.2949 103.2678,30.3729 113.2475,22.9966 117.1525,21.6949 119.322,24.2983 117.1525,32.9763 112.3797,40.7864 105.0034,61.6136" stroke="#15ffe1" stroke-width="2" /><polyline fill="none" points="72.0271,82.0068 76.3661,76.3661 79.4034,80.2712 77.6678,82.8746 74.6305,85.9119 66.8203,89.3831 63.7831,89.3831 62.4814,82.0068 64.6508,79.4034 71.5932,77.2339 72.8949,82.4407 69.8576,87.6475 65.9525,89.3831 57.2746,88.9492 57.7085,82.4407 65.5186,78.5356 74.6305,78.5356 76.3661,81.139 73.3288,84.1763 65.5186,83.7424" stroke="#7cff79" stroke-width="2" /><polyline fill="none" points="78.5356,81.139 56.4068,74.1966 39.9186,72.0271 42.0881,71.1593" stroke="#e4ff12" stroke-width="2" /><polyline fill="none" points="71.1593,82.4407 62.9153,83.7424 34.7119,98.4949 35.5797,96.3254" stroke="#ff9400" stroke-width="2" /><polyline fill="none" points="59.0102,85.478 36.0136,87.6475 32.5424,87.6475 31.6746,85.9119" stroke="#ff1d00" stroke-width="2" /><polyline fill="none" points="80.2712,80.2712 95.8915,74.1966 109.3424,71.1593" stroke="#7f0000" stroke-width="2" /></svg>