<?xml version="1.0" encoding="utf-8" ?>
<svg baseProfile="tiny" height="128" version="1.2" viewBox="0,0,128,128" width="128" xmlns="http://www.w3.org/2000/svg" xmlns:ev="http://www.w3.org/2001/xml-events" xmlns:xlink="http://www.w3.org/1999/xlink"><defs /><polyline fill="none" points="50.3322,38.6169 50.7661,60.7458 53.8034,72.461 55.9729,76.3661 62.4814,80.7051 70.7254,82.8746 84.6102,82.0068 93.2881,78.1017 102.4,66.3864 107.1729,52.9356 107.1729,45.5593 105.4373,41.6542 103.7017,40.7864 93.2881,49.8983 63.7831,50.7661 49.0305,39.0508" stroke="#00007f" stroke-width="2" /><polyline fill="none" points="65.9525,61.1797 65.5186,63.7831 64.2169,61.1797 65.9525,60.3119 65.9525,62.0475 65.0847,62.0475" stroke="#0000f1" stroke-width="2" /><polyline fill="none" points="82.4407,62.0475 83.7424,61.6136 83.7424,63.3492 82.4407,62.9153 82.8746,61.6136 79.8373,63.7831" stroke="#004cff" stroke-width="2" /><polyline fill="none" points="85.9119,72.461 108.0407,72.8949 119.322,77.2339" stroke="#00b0ff" stroke-width="2" /><polyline fill="none" points="89.8169,78.9695 103.2678,78.9695 109.7763,82.0068 110.6441,83.3085 108.9085,83.7424" stroke="#29ffcd" stroke-width="2" /><polyline fill="none" points="61.6136,73.3288 32.1085,73.7627 12.5831,78.1017 8.678,79.4034 9.9797,79.8373" stroke="#7cff79" stroke-width="2" /><polyline fill="none" points="68.122,77.2339 55.9729,77.6678 36.0136,82.0068 33.4102,84.1763" stroke="#cdff29" stroke-width="2" /><polyline fill="none" points="74.1966,70.7254 71.5932,70.7254 71.5932,67.6881 75.4983,68.122 75.4983,69.8576 73.3288,72.0271" stroke="#ffc400" stroke-width="2" /><polyline fill="none" points="73.3288,72.0271 74.6305,74.1966 80.7051,73.7627" stroke="#ff6700" stroke-width="2" /><polyline fill="none" points="73.3288,72.0271 72.8949,74.6305 68.9898,75.4983 66.8203,74.6305 66.3864,71.1593" stroke="#f10700" stroke-width="2" /><polyline fill="none" points="75.9322,23.8644 74.6305,10.8475 77.2339,9.1119 79.4034,10.8475 82.0068,25.6 83.7424,15.6203 88.9492,8.678 89.8169,23.4305" stroke="#7f0000" stroke-width="2" /></svg>