<?xml version="1.0" encoding="utf-8" ?>
<svg baseProfile="tiny" height="128" version="1.2" viewBox="0,0,128,128" width="128" xmlns="http://www.w3.org/2000/svg" xmlns:ev="http://www.w3.org/2001/xml-events" xmlns:xlink="http://www.w3.org/1999/xlink"><defs /><polyline fill="none" points="39.4847,37.3153 31.2407,40.3525 21.6949,49.0305 14.3186,64.2169 13.4508,78.1017 18.6576,97.1932 22.5627,105.0034 28.6373,111.078 45.1254,118.4542 57.7085,119.322 72.8949,111.5119 79.4034,102.8339 80.7051,96.7593 81.139,86.7797 78.9695,78.5356 72.461,65.5186 65.0847,55.9729 55.9729,48.5966 43.8237,44.2576 33.4102,43.8237" stroke="#00007f" stroke-width="2" /><polyline fill="none" points="16.922,52.5017 13.0169,44.6915 11.2814,36.4475 8.678,13.8847 8.678,9.5458 9.9797,8.678 19.0915,19.9593 35.5797,47.7288" stroke="#0028ff" stroke-width="2" /><polyline fill="none" points="53.3695,44.6915 80.7051,26.0339 95.0237,18.2237 95.8915,23.4305 93.722,25.1661 82.4407,45.1254 73.3288,65.0847" stroke="#00d4ff" stroke-width="2" /><polyline fill="none" points="19.9593,46.4271 17.7898,38.6169 16.4881,26.0339 20.8271,31.6746 24.7322,44.2576 27.3356,47.2949" stroke="#7cff79" stroke-width="2" /><polyline fill="none" points="63.3492,50.3322 73.7627,39.9186 78.9695,36.8814 65.5186,62.4814" stroke="#ffe500" stroke-width="2" /><polyline fill="none" points="32.5424,65.9525 32.5424,71.5932 34.7119,71.1593 40.7864,63.3492 42.522,57.2746 36.8814,61.6136 33.8441,66.3864 33.8441,65.0847 35.5797,64.6508 35.5797,66.8203 33.8441,70.2915 38.6169,64.2169" stroke="#ff4600" stroke-width="2" /><polyline fill="none" points="63.3492,65.9525 63.3492,65.9525" stroke="#7f0000" stroke-width="2" /></svg>