<?xml version="1.0" encoding="utf-8" ?>
<svg baseProfile="tiny" height="128" version="1.2" viewBox="0,0,128,128" width="128" xmlns="http://www.w3.org/2000/svg" xmlns:ev="http://www.w3.org/2001/xml-events" xmlns:xlink="http://www.w3.org/1999/xlink"><defs /><polyline fill="none" points="52.0678,92.4203 52.5017,108.0407 55.1051,119.322" stroke="#00007f" stroke-width="2" /><polyline fill="none" points="76.3661,91.9864 81.139,115.4169" stroke="#0000cc" stroke-width="2" /><polyline fill="none" points="58.1424,98.4949 49.4644,95.0237 35.5797,85.478 27.7695,77.2339 24.2983,67.6881 24.2983,62.0475 27.3356,52.5017 34.7119,40.7864 41.2203,34.7119 47.2949,32.9763 55.1051,48.1627" stroke="#0008ff" stroke-width="2" /><polyline fill="none" points="44.6915,57.2746 37.7492,17.3559 41.2203,17.7898 48.1627,26.4678 61.6136,53.3695" stroke="#004cff" stroke-width="2" /><polyline fill="none" points="57.2746,54.6712 68.122,46.4271 74.6305,43.8237 80.2712,44.6915 85.0441,49.8983" stroke="#0090ff" stroke-width="2" /><polyline fill="none" points="81.5729,52.5017 82.0068,38.6169 92.4203,8.678 94.5898,11.2814 96.3254,17.3559 97.1932,43.8237" stroke="#00d4ff" stroke-width="2" /><polyline fill="none" points="89.8169,52.0678 91.9864,51.6339 93.2881,52.9356 95.0237,58.5763 92.8542,68.5559 83.3085,83.3085 72.0271,92.4203" stroke="#29ffcd" stroke-width="2" /><polyline fill="none" points="56.8407,71.5932 53.8034,75.9322 53.3695,77.2339 54.6712,76.8 55.1051,74.6305" stroke="#5fff96" stroke-width="2" /><polyline fill="none" points="56.8407,77.6678 73.3288,68.122 83.3085,65.5186 94.1559,68.9898 98.4949,74.1966 99.3627,78.1017" stroke="#96ff5f" stroke-width="2" /><polyline fill="none" points="56.4068,75.9322 72.0271,71.5932 78.5356,70.7254 82.8746,72.0271 92.4203,77.6678 98.061,87.6475" stroke="#cdff29" stroke-width="2" /><polyline fill="none" points="57.2746,73.7627 44.6915,66.3864 35.5797,63.7831 29.5051,63.7831 23.8644,65.0847 13.0169,70.7254 8.678,75.4983 9.1119,81.139" stroke="#ffe500" stroke-width="2" /><polyline fill="none" points="59.878,70.7254 48.5966,72.461 30.8068,83.7424 22.1288,95.4576 18.2237,107.6068" stroke="#ffa600" stroke-width="2" /><polyline fill="none" points="52.0678,59.0102 52.5017,61.1797" stroke="#ff6700" stroke-width="2" /><polyline fill="none" points="82.0068,59.878 82.0068,59.878" stroke="#ff2800" stroke-width="2" /><polyline fill="none" points="68.9898,55.539 68.9898,55.539" stroke="#cc0000" stroke-width="2" /><polyline fill="none" points="70.2915,60.3119 70.2915,60.3119" stroke="#7f0000" stroke-width="2" /></svg>