<?xml version="1.0" encoding="utf-8" ?>
<svg baseProfile="tiny" height="128" version="1.2" viewBox="0,0,128,128" width="128" xmlns="http://www.w3.org/2000/svg" xmlns:ev="http://www.w3.org/2001/xml-events" xmlns:xlink="http://www.w3.org/1999/xlink"><defs /><polyline fill="none" points="57.2746,29.0712 57.7085,18.6576 59.878,10.8475 62.4814,16.4881 64.6508,26.0339 66.8203,22.1288 69.8576,20.3932 76.3661,20.8271 80.2712,24.7322 85.478,15.6203 94.1559,8.678 93.722,16.0542 87.6475,28.6373 88.0814,42.522 85.0441,45.5593 78.5356,48.5966 69.4237,49.8983 59.878,49.4644 55.9729,48.1627 54.6712,46.861 54.2373,37.3153 57.7085,29.5051" stroke="#00007f" stroke-width="2" /><polyline fill="none" points="63.3492,49.0305 49.8983,62.4814 39.0508,75.4983 37.3153,78.9695 36.8814,85.0441 47.7288,87.2136 80.2712,86.3458 95.0237,88.0814 100.2305,81.139 100.2305,74.6305 97.1932,67.6881 93.722,62.9153 83.3085,55.1051 78.9695,48.5966" stroke="#0000d5" stroke-width="2" /><polyline fill="none" points="38.6169,74.1966 29.939,69.8576 19.5254,62.0475 12.1492,51.6339 9.1119,43.8237 8.678,27.3356 10.4136,23.4305 13.0169,23.8644 22.1288,39.4847 32.9763,63.3492 35.5797,66.3864 39.4847,66.8203" stroke="#001cff" stroke-width="2" /><polyline fill="none" points="63.7831,34.278 63.7831,34.278" stroke="#006cff" stroke-width="2" /><polyline fill="none" points="75.9322,33.4102 73.7627,34.7119" stroke="#00b8ff" stroke-width="2" /><polyline fill="none" points="66.8203,34.7119 67.2542,35.5797" stroke="#1cffda" stroke-width="2" /><polyline fill="none" points="64.6508,40.7864 72.0271,42.522 74.6305,40.3525" stroke="#5cff9a" stroke-width="2" /><polyline fill="none" points="75.0644,39.4847 94.1559,29.5051" stroke="#9aff5c" stroke-width="2" /><polyline fill="none" points="78.1017,42.0881 80.2712,40.3525 91.5525,38.1831 106.739,38.1831 116.7186,39.9186" stroke="#daff1c" stroke-width="2" /><polyline fill="none" points="79.4034,41.2203 82.0068,39.9186 91.9864,39.9186 119.322,52.0678" stroke="#ffcb00" stroke-width="2" /><polyline fill="none" points="62.0475,39.4847 33.8441,32.1085 31.2407,33.4102 31.2407,37.3153" stroke="#ff8500" stroke-width="2" /><polyline fill="none" points="62.9153,39.9186 44.2576,44.6915 34.7119,49.0305" stroke="#ff3b00" stroke-width="2" /><polyline fill="none" points="62.9153,40.3525 61.6136,42.0881 48.1627,47.7288 35.5797,57.2746" stroke="#d50000" stroke-width="2" /><polyline fill="none" points="54.2373,87.6475 50.7661,95.4576" stroke="#7f0000" stroke-width="2" /></svg>