<?xml version="1.0" encoding="utf-8" ?>
<svg baseProfile="tiny" height="128" version="1.2" viewBox="0,0,128,128" width="128" xmlns="http://www.w3.org/2000/svg" xmlns:ev="http://www.w3.org/2001/xml-events" xmlns:xlink="http://www.w3.org/1999/xlink"><defs /><polyline fill="none" points="38.6169,40.3525 29.939,45.1254 26.0339,49.0305 17.3559,62.0475 10.4136,78.5356 8.678,93.2881 13.0169,105.4373 20.3932,113.2475 36.8814,119.322 49.8983,117.5864 60.3119,112.3797 64.2169,108.4746 75.9322,91.9864 77.6678,85.9119 78.5356,75.9322 73.3288,59.4441 62.4814,49.0305 44.2576,39.9186 30.8068,36.8814 26.9017,37.3153" stroke="#00007f" stroke-width="2" /><polyline fill="none" points="16.922,51.2 16.4881,10.8475 33.4102,34.7119 39.0508,45.1254" stroke="#0028ff" stroke-width="2" /><polyline fill="none" points="50.3322,43.8237 62.9153,31.6746 75.9322,16.0542 83.7424,9.5458 87.6475,8.678 87.6475,16.922 85.0441,25.6 68.9898,63.3492" stroke="#00d4ff" stroke-width="2" /><polyline fill="none" points="35.5797,59.4441 32.5424,59.0102" stroke="#7cff79" stroke-width="2" /><polyline fill="none" points="61.1797,62.0475 61.1797,62.0475" stroke="#ffe500" stroke-width="2" /><polyline fill="none" points="39.0508,91.5525 45.1254,85.0441 49.4644,77.2339 52.0678,91.5525" stroke="#ff4600" stroke-width="2" /><polyline fill="none" points="51.6339,82.0068 65.5186,77.6678" stroke="#7f0000" stroke-width="2" /></svg>