<?xml version="1.0" encoding="utf-8" ?>
<svg baseProfile="tiny" height="128" version="1.2" viewBox="0,0,128,128" width="128" xmlns="http://www.w3.org/2000/svg" xmlns:ev="http://www.w3.org/2001/xml-events" xmlns:xlink="http://www.w3.org/1999/xlink"><defs /><polyline fill="none" points="36.8814,31.2407 44.6915,8.678 49.4644,26.4678 53.3695,30.3729 60.3119,33.4102 68.122,33.8441 72.0271,32.5424 76.3661,29.5051 84.6102,19.0915 81.139,34.7119 86.7797,47.7288 88.0814,58.5763 85.9119,68.122 82.8746,75.4983 68.5559,87.6475 55.539,92.8542 40.3525,93.2881 33.4102,91.5525 26.0339,87.6475 16.4881,75.4983 15.1864,65.5186 16.4881,59.878 21.261,49.4644 33.4102,35.5797" stroke="#00007f" stroke-width="2" /><polyline fill="none" points="49.4644,49.0305 44.6915,49.4644" stroke="#0000fe" stroke-width="2" /><polyline fill="none" points="72.0271,50.3322 69.4237,50.3322" stroke="#0060ff" stroke-width="2" /><polyline fill="none" points="49.0305,74.6305 52.0678,70.7254" stroke="#00d4ff" stroke-width="2" /><polyline fill="none" points="72.8949,76.8 82.8746,81.139 119.322,89.8169" stroke="#4cffaa" stroke-width="2" /><polyline fill="none" points="85.478,66.8203 97.6271,71.5932 119.322,70.7254" stroke="#aaff4c" stroke-width="2" /><polyline fill="none" points="74.1966,75.0644 78.5356,91.5525 85.0441,107.1729" stroke="#ffe500" stroke-width="2" /><polyline fill="none" points="41.2203,72.461 8.678,74.6305" stroke="#ff7a00" stroke-width="2" /><polyline fill="none" points="49.0305,65.9525 22.9966,66.3864 12.5831,63.7831" stroke="#fe1200" stroke-width="2" /><polyline fill="none" points="50.7661,63.7831 48.5966,60.3119 22.5627,39.4847" stroke="#7f0000" stroke-width="2" /></svg>