<?xml version="1.0" encoding="utf-8" ?>
<svg baseProfile="tiny" height="128" version="1.2" viewBox="0,0,128,128" width="128" xmlns="http://www.w3.org/2000/svg" xmlns:ev="http://www.w3.org/2001/xml-events" xmlns:xlink="http://www.w3.org/1999/xlink"><defs /><polyline fill="none" points="9.1119,38.1831 8.678,29.939 11.7153,26.0339 22.1288,22.5627 27.7695,24.2983 28.2034,13.4508 29.939,13.8847 36.4475,22.5627 39.4847,22.1288 51.2,19.5254 57.2746,19.5254 61.6136,12.5831 65.9525,8.678 67.6881,10.8475 68.122,18.2237 73.7627,24.2983 75.9322,29.5051 78.1017,45.9932 75.9322,50.3322 67.6881,55.9729 45.1254,56.8407 37.7492,55.1051 20.3932,47.7288 14.7525,42.9559 10.8475,36.4475" stroke="#00007f" stroke-width="2" /><polyline fill="none" points="45.1254,32.9763 49.4644,38.6169 50.3322,30.8068 42.0881,30.8068" stroke="#0000d1" stroke-width="2" /><polyline fill="none" points="47.7288,36.8814 40.3525,40.3525 31.6746,39.9186 29.5051,36.8814" stroke="#0010ff" stroke-width="2" /><polyline fill="none" points="46.4271,37.7492 49.8983,40.3525 58.1424,40.7864 59.878,34.7119" stroke="#0058ff" stroke-width="2" /><polyline fill="none" points="36.0136,28.2034 33.8441,28.2034 32.9763,29.939 36.8814,30.3729 38.6169,28.2034 36.8814,27.7695 37.3153,29.0712 36.0136,27.7695" stroke="#00a4ff" stroke-width="2" /><polyline fill="none" points="58.5763,25.6 59.0102,27.7695 60.7458,27.3356 58.1424,25.6 58.5763,27.3356 59.4441,26.9017 58.1424,26.9017 59.0102,26.4678 58.5763,25.6" stroke="#05ecf1" stroke-width="2" /><polyline fill="none" points="39.0508,36.4475 39.0508,36.4475" stroke="#3fffb7" stroke-width="2" /><polyline fill="none" points="35.1458,36.0136 35.1458,36.0136" stroke="#7cff79" stroke-width="2" /><polyline fill="none" points="35.1458,36.0136 28.6373,34.278 16.922,33.8441" stroke="#b7ff3f" stroke-width="2" /><polyline fill="none" points="36.8814,33.4102 29.939,31.6746 17.7898,31.6746" stroke="#f1fc05" stroke-width="2" /><polyline fill="none" points="57.2746,36.0136 70.2915,35.1458 75.4983,37.7492" stroke="#ffb900" stroke-width="2" /><polyline fill="none" points="55.1051,34.7119 61.1797,31.2407 69.4237,30.8068 78.5356,35.5797" stroke="#ff7300" stroke-width="2" /><polyline fill="none" points="41.2203,49.8983 51.2,52.9356 54.2373,52.9356 55.9729,51.2" stroke="#ff3000" stroke-width="2" /><polyline fill="none" points="28.6373,51.6339 21.6949,61.6136 33.8441,69.4237 47.2949,72.461 77.6678,73.3288 95.4576,69.8576 103.2678,65.5186 98.9288,55.9729 95.4576,51.2 88.9492,46.861 80.7051,47.2949" stroke="#d10000" stroke-width="2" /><polyline fill="none" points="98.4949,54.6712 119.322,53.3695" stroke="#7f0000" stroke-width="2" /></svg>