<?xml version="1.0" encoding="utf-8" ?>
<svg baseProfile="tiny" height="128" version="1.2" viewBox="0,0,128,128" width="128" xmlns="http://www.w3.org/2000/svg" xmlns:ev="http://www.w3.org/2001/xml-events" xmlns:xlink="http://www.w3.org/1999/xlink"><defs /><polyline fill="none" points="29.5051,26.9017 31.6746,10.4136 41.2203,19.9593 42.9559,19.9593" stroke="#00007f" stroke-width="2" /><polyline fill="none" points="75.0644,19.9593 84.1763,8.678 87.6475,26.0339" stroke="#0000d1" stroke-width="2" /><polyline fill="none" points="41.6542,23.8644 54.6712,19.0915 67.6881,18.2237 72.8949,19.5254 75.4983,21.6949 76.3661,24.7322" stroke="#0010ff" stroke-width="2" /><polyline fill="none" points="26.9017,32.9763 35.1458,45.5593 41.2203,50.3322 52.5017,53.3695 69.4237,52.9356 76.8,51.2 83.3085,47.2949 89.3831,40.3525 98.061,25.1661" stroke="#0058ff" stroke-width="2" /><polyline fill="none" points="58.1424,33.8441 61.1797,30.8068 62.9153,33.8441 65.5186,34.278 65.5186,29.939 62.0475,30.3729" stroke="#00a4ff" stroke-width="2" /><polyline fill="none" points="76.3661,29.5051 75.4983,28.6373 73.7627,30.3729 73.7627,32.5424 75.9322,32.1085 79.4034,26.4678" stroke="#05ecf1" stroke-width="2" /><polyline fill="none" points="45.5593,29.5051 45.5593,30.8068 48.5966,30.3729 49.0305,28.2034" stroke="#3fffb7" stroke-width="2" /><polyline fill="none" points="50.7661,48.5966 55.9729,49.8983 60.7458,49.4644 68.5559,44.2576" stroke="#7cff79" stroke-width="2" /><polyline fill="none" points="62.0475,36.0136 58.1424,48.1627" stroke="#b7ff3f" stroke-width="2" /><polyline fill="none" points="76.8,37.3153 80.7051,39.0508 100.2305,36.0136 119.322,35.5797" stroke="#f1fc05" stroke-width="2" /><polyline fill="none" points="84.1763,42.522 111.5119,43.8237" stroke="#ffb900" stroke-width="2" /><polyline fill="none" points="42.522,38.6169 36.8814,38.6169 32.1085,40.7864 17.3559,51.2 8.678,59.4441" stroke="#ff7300" stroke-width="2" /><polyline fill="none" points="37.3153,46.4271 35.1458,46.4271 32.1085,49.0305 23.8644,62.0475" stroke="#ff3000" stroke-width="2" /><polyline fill="none" points="53.8034,51.6339 50.3322,63.7831 45.5593,72.0271 45.9932,75.9322 50.3322,78.9695 60.3119,78.5356 67.2542,72.0271 68.5559,64.6508 64.6508,53.8034" stroke="#d10000" stroke-width="2" /><polyline fill="none" points="67.6881,63.3492 70.2915,59.4441 81.139,53.8034 88.0814,54.2373 91.1186,58.1424 91.5525,60.7458" stroke="#7f0000" stroke-width="2" /></svg>