<?xml version="1.0" encoding="utf-8" ?>
<svg baseProfile="tiny" height="128" version="1.2" viewBox="0,0,128,128" width="128" xmlns="http://www.w3.org/2000/svg" xmlns:ev="http://www.w3.org/2001/xml-events" xmlns:xlink="http://www.w3.org/1999/xlink"><defs /><polyline fill="none" points="53.8034,29.939 55.539,26.0339 59.4441,24.2983 76.3661,24.2983 91.9864,28.6373 94.5898,32.1085 94.5898,36.8814 99.3627,28.2034 105.4373,8.678 105.4373,26.9017 108.4746,42.9559 108.9085,63.7831 102.8339,81.5729 95.0237,88.9492 86.7797,92.8542 77.2339,95.4576 61.6136,96.3254 47.7288,91.9864 42.522,88.0814 36.0136,71.5932 35.1458,52.0678 37.3153,44.6915 42.9559,38.6169 42.9559,8.678 49.8983,19.0915 52.9356,27.7695" stroke="#00007f" stroke-width="2" /><polyline fill="none" points="73.3288,47.2949 62.4814,56.4068 61.1797,57.7085 62.9153,59.878 73.7627,61.1797 68.9898,46.4271" stroke="#0000e8" stroke-width="2" /><polyline fill="none" points="67.2542,45.1254 63.3492,48.1627" stroke="#0038ff" stroke-width="2" /><polyline fill="none" points="85.9119,44.6915 85.478,49.4644" stroke="#0094ff" stroke-width="2" /><polyline fill="none" points="59.878,37.7492 55.9729,42.9559" stroke="#0cf4ea" stroke-width="2" /><polyline fill="none" points="65.5186,72.8949 53.8034,64.6508 33.8441,57.2746 24.2983,54.6712 13.0169,54.6712 9.1119,61.1797 9.1119,64.6508 12.5831,66.3864" stroke="#56ffa0" stroke-width="2" /><polyline fill="none" points="53.8034,72.461 32.5424,65.5186 13.8847,63.7831 9.1119,65.0847 8.678,71.5932 14.3186,78.5356" stroke="#a0ff56" stroke-width="2" /><polyline fill="none" points="50.3322,79.4034 31.6746,82.4407 24.7322,85.9119 22.1288,90.2508" stroke="#eaff0c" stroke-width="2" /><polyline fill="none" points="76.3661,73.3288 83.3085,70.7254 98.4949,70.7254 112.8136,75.0644 118.4542,78.9695 119.322,81.5729" stroke="#ffaa00" stroke-width="2" /><polyline fill="none" points="69.8576,82.8746 108.4746,93.722" stroke="#ff5500" stroke-width="2" /><polyline fill="none" points="71.5932,94.5898 88.0814,100.2305 92.4203,102.4 94.5898,105.4373" stroke="#e80000" stroke-width="2" /><polyline fill="none" points="63.3492,68.122 61.1797,79.4034 59.0102,84.6102 56.4068,85.9119" stroke="#7f0000" stroke-width="2" /></svg>