<?xml version="1.0" encoding="utf-8" ?>
<svg baseProfile="tiny" height="128" version="1.2" viewBox="0,0,128,128" width="128" xmlns="http://www.w3.org/2000/svg" xmlns:ev="http://www.w3.org/2001/xml-events" xmlns:xlink="http://www.w3.org/1999/xlink"><defs /><polyline fill="none" points="75.7551,43.5374 90.1224,19.5918 88.381,50.5034 98.3946,65.3061 100.5714,82.2857 97.5238,89.6871 92.2993,96.2177 71.8367,108.4082 61.8231,110.585 55.7279,111.0204 49.6327,109.2789 39.619,103.1837 37.8776,99.2653 33.9592,97.0884 23.9456,86.6395 21.7687,81.8503 21.3333,70.966 26.5578,61.3878 32.2177,56.5986 37.0068,55.7279 44.8435,58.7755 38.7483,8.7075 44.4082,16.1088 50.9388,30.4762 60.0816,43.9728 73.1429,43.9728" stroke="#00007f" stroke-width="2" /><polyline fill="none" points="73.1429,67.483 73.1429,72.2721 74.449,74.8844 78.3673,77.0612 79.2381,75.3197 77.0612,68.3537 73.1429,70.0952" stroke="#0000ff" stroke-width="2" /><polyline fill="none" points="48.3265,68.7891 46.1497,68.7891 48.3265,71.4014 52.6803,73.1429 53.9864,70.0952 50.5034,70.0952" stroke="#0080ff" stroke-width="2" /><polyline fill="none" points="41.7959,90.9932 52.6803,95.3469 66.1769,102.3129 70.5306,102.3129 78.3673,98.8299" stroke="#15ffe1" stroke-width="2" /><polyline fill="none" points="66.1769,71.8367 62.2585,80.5442 63.5646,83.5918 68.7891,85.7687 73.1429,85.7687 74.8844,82.2857 75.3197,78.3673 71.8367,74.8844 66.1769,74.449 60.517,79.6735 60.0816,84.0272 63.5646,85.7687 67.0476,83.5918" stroke="#7cff79" stroke-width="2" /><polyline fill="none" points="80.9796,82.7211 96.6531,79.6735 110.585,79.6735 117.1156,81.415 119.2925,83.1565" stroke="#e4ff12" stroke-width="2" /><polyline fill="none" points="86.2041,86.2041 93.1701,86.6395 100.5714,88.8163 117.1156,98.3946" stroke="#ff9400" stroke-width="2" /><polyline fill="none" points="78.3673,89.2517 84.0272,90.9932 94.0408,98.8299 111.0204,115.3741" stroke="#ff1d00" stroke-width="2" /><polyline fill="none" points="50.9388,77.932 21.7687,78.3673 8.7075,76.6259" stroke="#7f0000" stroke-width="2" /></svg>