<?xml version="1.0" encoding="utf-8" ?>
<svg baseProfile="tiny" height="128" version="1.2" viewBox="0,0,128,128" width="128" xmlns="http://www.w3.org/2000/svg" xmlns:ev="http://www.w3.org/2001/xml-events" xmlns:xlink="http://www.w3.org/1999/xlink"><defs /><polyline fill="none" points="45.9932,35.5797 29.939,36.0136 24.2983,39.9186 19.5254,46.861 13.4508,58.1424 9.9797,70.2915 8.678,82.8746 9.1119,95.4576 16.922,107.6068 22.5627,113.2475 37.3153,119.322 51.2,119.322 62.9153,114.9831 72.8949,107.6068 80.2712,96.7593 82.0068,88.9492 82.4407,68.9898 77.6678,54.2373 71.5932,45.5593 55.1051,32.5424 44.6915,20.3932 41.6542,17.7898 39.0508,18.6576" stroke="#00007f" stroke-width="2" /><polyline fill="none" points="24.2983,41.2203 12.1492,17.3559 8.678,39.0508 9.1119,65.9525" stroke="#0000e8" stroke-width="2" /><polyline fill="none" points="56.4068,33.8441 65.9525,8.678 72.8949,29.0712 75.0644,53.3695" stroke="#0038ff" stroke-width="2" /><polyline fill="none" points="32.9763,55.539 32.9763,70.2915" stroke="#0094ff" stroke-width="2" /><polyline fill="none" points="48.5966,58.5763 48.5966,71.5932" stroke="#0cf4ea" stroke-width="2" /><polyline fill="none" points="37.7492,81.139 36.8814,91.1186 40.3525,91.9864 47.2949,91.1186 50.7661,87.2136 43.8237,79.4034 39.4847,77.2339" stroke="#56ffa0" stroke-width="2" /><polyline fill="none" points="45.5593,92.4203 49.8983,97.6271 62.4814,99.3627 70.7254,92.4203 71.1593,82.8746" stroke="#a0ff56" stroke-width="2" /><polyline fill="none" points="43.8237,92.8542 37.7492,96.3254 26.0339,99.3627 22.9966,99.3627 17.3559,95.0237" stroke="#eaff0c" stroke-width="2" /><polyline fill="none" points="49.0305,59.0102 46.861,60.7458 46.4271,67.6881 51.6339,68.122 55.1051,64.6508 52.0678,62.4814 46.861,61.6136 46.861,68.9898 51.6339,70.2915 52.9356,68.122 52.5017,65.0847 47.7288,63.7831 45.1254,64.2169 45.1254,68.5559 50.7661,71.5932 55.1051,70.7254 55.9729,61.6136 54.6712,59.878 52.0678,59.4441 50.3322,63.7831 52.5017,65.0847 52.0678,62.9153 50.3322,62.4814 50.7661,63.7831" stroke="#ffaa00" stroke-width="2" /><polyline fill="none" points="33.8441,52.9356 27.3356,62.0475 24.7322,71.1593 27.7695,72.461 32.1085,72.461 36.4475,68.122 36.4475,61.6136 34.278,55.9729 32.1085,54.2373 30.8068,62.4814 32.5424,65.5186 34.7119,65.9525 35.1458,60.7458 32.9763,59.4441 30.8068,59.878 28.6373,71.1593" stroke="#ff5500" stroke-width="2" /><polyline fill="none" points="39.4847,20.3932 27.7695,36.4475" stroke="#e80000" stroke-width="2" /><polyline fill="none" points="33.4102,30.8068 37.3153,20.8271 32.5424,32.1085" stroke="#7f0000" stroke-width="2" /></svg>