<?xml version="1.0" encoding="utf-8" ?>
<svg baseProfile="tiny" height="128" version="1.2" viewBox="0,0,128,128" width="128" xmlns="http://www.w3.org/2000/svg" xmlns:ev="http://www.w3.org/2001/xml-events" xmlns:xlink="http://www.w3.org/1999/xlink"><defs /><polyline fill="none" points="38.1831,48.1627 36.4475,41.2203 37.3153,18.2237 38.6169,14.7525 49.0305,21.261 63.3492,40.7864 72.8949,32.9763 82.8746,28.6373 87.2136,27.3356 95.0237,28.6373 102.4,13.0169 105.8712,9.1119 108.9085,8.678 110.6441,16.0542 110.6441,42.0881 106.739,65.5186 101.0983,75.4983 91.9864,83.7424 82.4407,88.0814 72.0271,89.3831 54.2373,84.1763 43.8237,74.1966 39.0508,65.9525 38.1831,62.0475 39.0508,48.1627 41.6542,39.4847 43.3898,36.0136 47.2949,33.8441 49.0305,34.7119" stroke="#00007f" stroke-width="2" /><polyline fill="none" points="44.2576,55.539 32.1085,59.0102 9.5458,71.1593" stroke="#0000fe" stroke-width="2" /><polyline fill="none" points="53.3695,72.0271 39.9186,75.0644 8.678,89.8169" stroke="#0060ff" stroke-width="2" /><polyline fill="none" points="61.1797,82.0068 51.6339,84.1763 22.1288,103.2678" stroke="#00d4ff" stroke-width="2" /><polyline fill="none" points="60.7458,52.9356 61.1797,52.9356" stroke="#4cffaa" stroke-width="2" /><polyline fill="none" points="89.3831,49.4644 88.5153,49.4644" stroke="#aaff4c" stroke-width="2" /><polyline fill="none" points="89.3831,62.9153 107.1729,63.7831 119.322,65.9525" stroke="#ffe500" stroke-width="2" /><polyline fill="none" points="82.8746,73.3288 118.0203,78.1017" stroke="#ff7a00" stroke-width="2" /><polyline fill="none" points="82.4407,81.139 118.8881,85.0441" stroke="#fe1200" stroke-width="2" /><polyline fill="none" points="65.0847,72.0271 72.0271,83.3085 74.6305,83.7424 78.1017,79.4034 82.8746,64.6508" stroke="#7f0000" stroke-width="2" /></svg>