<?xml version="1.0" encoding="utf-8" ?>
<svg baseProfile="tiny" height="128" version="1.2" viewBox="0,0,128,128" width="128" xmlns="http://www.w3.org/2000/svg" xmlns:ev="http://www.w3.org/2001/xml-events" xmlns:xlink="http://www.w3.org/1999/xlink"><defs /><polyline fill="none" points="69.4237,41.6542 66.8203,37.7492 60.7458,33.8441 45.5593,32.1085 38.6169,36.4475 28.6373,47.2949" stroke="#00007f" stroke-width="2" /><polyline fill="none" points="9.9797,25.1661 19.9593,38.6169 27.7695,46.4271" stroke="#0010ff" stroke-width="2" /><polyline fill="none" points="8.678,24.2983 15.1864,40.3525 22.5627,49.4644 23.8644,61.1797 26.9017,65.9525 33.4102,69.8576 42.0881,72.461 54.6712,74.1966 66.3864,73.3288 76.8,70.7254 82.4407,66.3864 84.6102,62.0475 85.0441,53.8034 82.4407,46.861 80.2712,45.9932 106.3051,25.6 119.322,8.678 88.9492,25.6 69.8576,40.7864" stroke="#00a4ff" stroke-width="2" /><polyline fill="none" points="45.5593,58.1424 23.8644,63.7831" stroke="#3fffb7" stroke-width="2" /><polyline fill="none" points="43.8237,65.0847 28.2034,70.7254" stroke="#b7ff3f" stroke-width="2" /><polyline fill="none" points="62.9153,56.4068 74.6305,64.6508" stroke="#ffb900" stroke-width="2" /><polyline fill="none" points="52.9356,68.122 60.7458,73.7627" stroke="#ff3000" stroke-width="2" /><polyline fill="none" points="51.2,58.5763 48.1627,65.9525 51.6339,64.2169 55.1051,58.1424 52.5017,54.2373 49.4644,55.9729" stroke="#7f0000" stroke-width="2" /></svg>