<?xml version="1.0" encoding="utf-8" ?>
<svg baseProfile="tiny" height="128" version="1.2" viewBox="0,0,128,128" width="128" xmlns="http://www.w3.org/2000/svg" xmlns:ev="http://www.w3.org/2001/xml-events" xmlns:xlink="http://www.w3.org/1999/xlink"><defs /><polyline fill="none" points="98.4949,25.1661 91.9864,24.2983 78.9695,26.9017 71.1593,31.6746 68.122,35.1458 66.3864,43.3898 67.6881,47.2949 74.6305,53.8034 79.8373,55.1051 91.5525,55.539 101.9661,52.5017 109.3424,46.861 111.5119,42.9559 111.9458,35.5797 109.7763,32.1085 103.2678,27.3356 92.4203,23.4305" stroke="#00007f" stroke-width="2" /><polyline fill="none" points="69.4237,32.5424 73.3288,18.2237 82.0068,26.4678" stroke="#0000c8" stroke-width="2" /><polyline fill="none" points="89.3831,25.1661 97.1932,17.3559 100.2305,25.6 104.5695,29.939" stroke="#0000ff" stroke-width="2" /><polyline fill="none" points="83.7424,42.0881 74.6305,38.6169" stroke="#0040ff" stroke-width="2" /><polyline fill="none" points="83.3085,45.5593 75.4983,45.9932" stroke="#0080ff" stroke-width="2" /><polyline fill="none" points="84.6102,51.2 77.2339,53.3695" stroke="#00c0ff" stroke-width="2" /><polyline fill="none" points="96.3254,43.3898 101.5322,42.522" stroke="#15ffe1" stroke-width="2" /><polyline fill="none" points="95.4576,49.0305 103.2678,49.8983" stroke="#49ffad" stroke-width="2" /><polyline fill="none" points="93.722,52.0678 98.9288,55.1051" stroke="#7cff79" stroke-width="2" /><polyline fill="none" points="86.7797,45.9932 90.6847,47.2949 88.9492,49.4644 87.6475,47.7288" stroke="#b0ff46" stroke-width="2" /><polyline fill="none" points="87.6475,34.7119 87.2136,35.1458" stroke="#e4ff12" stroke-width="2" /><polyline fill="none" points="96.3254,34.278 92.8542,37.3153 95.0237,37.7492 96.7593,36.4475" stroke="#ffcf00" stroke-width="2" /><polyline fill="none" points="86.7797,33.8441 85.478,36.0136 86.7797,34.7119" stroke="#ff9400" stroke-width="2" /><polyline fill="none" points="95.4576,33.8441 94.1559,34.7119 94.5898,36.4475" stroke="#ff5900" stroke-width="2" /><polyline fill="none" points="66.8203,41.2203 45.1254,42.0881 39.0508,44.2576 32.1085,48.5966 26.4678,54.6712 24.2983,60.3119 27.7695,63.7831 36.0136,66.3864 84.6102,69.8576 108.9085,68.122 113.2475,66.3864 118.0203,62.0475 119.322,59.0102 118.8881,54.2373 113.2475,50.3322 100.2305,48.1627" stroke="#ff1d00" stroke-width="2" /><polyline fill="none" points="35.1458,42.0881 28.2034,33.8441 14.7525,29.0712 10.4136,24.2983 8.678,16.0542 12.1492,10.4136 14.7525,8.678" stroke="#c30000" stroke-width="2" /><polyline fill="none" points="30.3729,63.3492 22.5627,67.2542" stroke="#7f0000" stroke-width="2" /></svg>