<?xml version="1.0" encoding="utf-8" ?>
<svg baseProfile="tiny" height="128" version="1.2" viewBox="0,0,128,128" width="128" xmlns="http://www.w3.org/2000/svg" xmlns:ev="http://www.w3.org/2001/xml-events" xmlns:xlink="http://www.w3.org/1999/xlink"><defs /><polyline fill="none" points="39.9186,29.5051 30.8068,16.0542 23.4305,9.5458 21.6949,16.922 22.9966,37.3153" stroke="#00007f" stroke-width="2" /><polyline fill="none" points="39.9186,29.0712 47.2949,26.9017 55.9729,26.4678 64.2169,32.1085 79.4034,15.1864 89.3831,8.678 91.9864,23.4305 95.8915,35.1458" stroke="#0000de" stroke-width="2" /><polyline fill="none" points="26.9017,31.6746 22.5627,34.7119 19.9593,39.0508 18.2237,43.8237 18.2237,50.7661 20.3932,56.8407 27.3356,65.9525 42.9559,76.3661 57.2746,79.8373 69.4237,80.2712 82.0068,77.6678 95.4576,72.461 106.739,65.5186 117.1525,53.3695 119.322,46.861 118.8881,41.2203 117.1525,39.0508 111.5119,35.1458 98.9288,30.3729" stroke="#0028ff" stroke-width="2" /><polyline fill="none" points="39.9186,55.9729 49.8983,62.0475 57.7085,64.6508 65.0847,63.7831 71.5932,60.7458" stroke="#0080ff" stroke-width="2" /><polyline fill="none" points="47.7288,43.3898 47.7288,43.3898" stroke="#00d4ff" stroke-width="2" /><polyline fill="none" points="49.0305,43.8237 48.1627,42.522" stroke="#36ffc0" stroke-width="2" /><polyline fill="none" points="71.1593,42.522 68.5559,41.6542" stroke="#7cff79" stroke-width="2" /><polyline fill="none" points="62.4814,53.8034 85.0441,42.9559 102.4,36.8814" stroke="#c0ff36" stroke-width="2" /><polyline fill="none" points="69.4237,56.4068 86.7797,48.5966 102.8339,46.4271" stroke="#ffe500" stroke-width="2" /><polyline fill="none" points="66.8203,61.6136 82.0068,63.7831 101.5322,71.1593" stroke="#ff9400" stroke-width="2" /><polyline fill="none" points="41.6542,43.8237 24.2983,46.4271 13.4508,52.5017 8.678,57.2746" stroke="#ff4600" stroke-width="2" /><polyline fill="none" points="38.6169,51.2 35.1458,51.2 31.6746,52.9356 23.8644,59.878" stroke="#de0000" stroke-width="2" /><polyline fill="none" points="38.1831,58.1424 33.4102,57.2746 30.8068,59.878 22.9966,71.5932 15.6203,86.7797" stroke="#7f0000" stroke-width="2" /></svg>