<?xml version="1.0" encoding="utf-8" ?>
<svg baseProfile="tiny" height="128" version="1.2" viewBox="0,0,128,128" width="128" xmlns="http://www.w3.org/2000/svg" xmlns:ev="http://www.w3.org/2001/xml-events" xmlns:xlink="http://www.w3.org/1999/xlink"><defs /><polyline fill="none" points="33.1348,29.0496 17.7021,18.156 16.7943,19.0638 25.4184,49.0213" stroke="#00007f" stroke-width="2" /><polyline fill="none" points="65.8156,28.5957 92.1418,9.078 76.7092,45.844" stroke="#0000ff" stroke-width="2" /><polyline fill="none" points="34.4965,30.4113 53.1064,26.3262 68.0851,28.1418" stroke="#0080ff" stroke-width="2" /><polyline fill="none" points="25.4184,49.0213 46.7518,67.6312 54.4681,70.3546 61.7305,71.2624 68.0851,67.1773 76.7092,56.2837 78.0709,44.4823" stroke="#15ffe1" stroke-width="2" /><polyline fill="none" points="64.9078,53.1064 82.6099,43.1206 103.4894,33.5887" stroke="#7cff79" stroke-width="2" /><polyline fill="none" points="72.1702,59.0071 80.7943,57.1915 92.5957,57.6454 107.5745,60.8227 118.922,65.3617" stroke="#e4ff12" stroke-width="2" /><polyline fill="none" points="47.2057,52.6525 9.078,56.2837" stroke="#ff9400" stroke-width="2" /><polyline fill="none" points="44.4823,59.461 9.078,78.5248" stroke="#ff1d00" stroke-width="2" /><polyline fill="none" points="42.2128,39.9433 42.2128,39.9433" stroke="#7f0000" stroke-width="2" /></svg>