<?xml version="1.0" encoding="utf-8" ?>
<svg baseProfile="tiny" height="128" version="1.2" viewBox="0,0,128,128" width="128" xmlns="http://www.w3.org/2000/svg" xmlns:ev="http://www.w3.org/2001/xml-events" xmlns:xlink="http://www.w3.org/1999/xlink"><defs /><polyline fill="none" points="35.5797,56.4068 29.939,49.0305 21.6949,16.922 13.8847,9.1119 12.1492,8.678 10.4136,11.7153 8.678,29.0712 10.4136,42.0881 13.0169,46.861 26.0339,57.7085 30.3729,69.8576" stroke="#00007f" stroke-width="2" /><polyline fill="none" points="32.9763,56.8407 30.8068,63.3492 28.6373,79.4034 29.939,98.4949 33.8441,106.3051 43.3898,118.8881 45.5593,119.322 51.6339,116.7186 56.8407,111.9458 57.7085,108.9085 57.2746,104.1356 52.9356,99.3627 49.4644,97.1932 42.0881,96.3254 44.6915,92.4203 48.1627,73.7627 63.7831,71.1593 89.8169,70.2915 91.1186,72.461 91.1186,74.6305 85.9119,91.9864 85.0441,103.2678 93.2881,112.8136 98.061,112.3797 101.5322,109.3424 101.9661,103.7017 94.5898,96.7593 100.6644,83.7424 102.8339,74.6305 102.8339,66.3864 109.7763,68.122 114.9831,62.4814 116.2847,58.1424 113.2475,47.7288 109.3424,43.3898 101.5322,44.2576 97.6271,50.7661" stroke="#0080ff" stroke-width="2" /><polyline fill="none" points="95.8915,49.0305 72.0271,46.861 51.2,49.4644 35.1458,55.1051" stroke="#7cff79" stroke-width="2" /><polyline fill="none" points="108.4746,57.7085 101.9661,58.1424" stroke="#ff9400" stroke-width="2" /><polyline fill="none" points="103.2678,52.0678 103.2678,52.0678" stroke="#7f0000" stroke-width="2" /></svg>