<?xml version="1.0" encoding="utf-8" ?>
<svg baseProfile="tiny" height="128" version="1.2" viewBox="0,0,128,128" width="128" xmlns="http://www.w3.org/2000/svg" xmlns:ev="http://www.w3.org/2001/xml-events" xmlns:xlink="http://www.w3.org/1999/xlink"><defs /><polyline fill="none" points="96.1092,58.9761 79.5085,51.5495 66.8396,49.802 55.4812,49.802 37.1331,56.3549 28.8328,65.0922 26.6485,71.6451 26.6485,76.4505 31.8908,82.1297 45.8703,89.1195 56.3549,90.8669 68.587,90.8669 85.6246,85.1877 98.2935,76.8874 98.2935,71.2082 90.43,61.5973 82.1297,56.3549 71.6451,52.4232" stroke="#00007f" stroke-width="2" /><polyline fill="none" points="25.7747,62.9078 17.4744,52.4232 14.8532,44.5597 14.8532,38.8805 18.3481,32.3276 25.7747,26.6485 31.4539,25.3379 40.1911,25.3379 47.1809,33.2014 49.3652,42.3754 49.3652,48.4915 46.744,51.5495 40.1911,54.6075" stroke="#0000f1" stroke-width="2" /><polyline fill="none" points="43.686,11.7952 39.3174,27.5222 41.9386,17.0375 45.8703,8.7372 46.744,31.4539 45.8703,33.2014" stroke="#004cff" stroke-width="2" /><polyline fill="none" points="20.5324,26.2116 13.1058,20.0956 8.7372,19.6587 15.2901,28.3959 23.5904,35.3857" stroke="#00b0ff" stroke-width="2" /><polyline fill="none" points="42.3754,89.1195 39.3174,112.273 41.9386,119.2628 45.4334,119.2628 46.744,89.9932 44.9966,85.1877" stroke="#29ffcd" stroke-width="2" /><polyline fill="none" points="54.1706,86.0614 57.2287,114.0205 54.6075,117.0785 51.1126,116.6416 47.1809,105.2833" stroke="#7cff79" stroke-width="2" /><polyline fill="none" points="81.6928,85.1877 84.7509,100.9147 89.1195,115.7679 91.3038,118.3891 93.9249,116.6416 95.2355,114.0205 96.9829,96.1092" stroke="#cdff29" stroke-width="2" /><polyline fill="none" points="96.9829,92.6143 90.43,83.4403" stroke="#ffc400" stroke-width="2" /><polyline fill="none" points="74.7031,84.7509 76.8874,99.6041 82.1297,111.3993 84.314,112.273 85.6246,110.9625 86.9352,103.9727" stroke="#ff6700" stroke-width="2" /><polyline fill="none" points="94.7986,69.0239 99.6041,69.4608 110.5256,78.198 112.7099,83.4403 103.5358,73.8294 91.7406,66.8396 108.7782,78.198 113.1468,83.8771 113.5836,88.6826 106.157,79.5085 99.1672,73.8294 91.3038,70.3345 98.7304,72.5188 105.7201,77.7611 111.3993,83.4403 114.0205,89.5563 100.9147,73.8294 93.0512,71.6451" stroke="#f10700" stroke-width="2" /><polyline fill="none" points="21.4061,39.7543 23.1536,41.5017" stroke="#7f0000" stroke-width="2" /></svg>