<?xml version="1.0" encoding="utf-8" ?>
<svg baseProfile="tiny" height="128" version="1.2" viewBox="0,0,128,128" width="128" xmlns="http://www.w3.org/2000/svg" xmlns:ev="http://www.w3.org/2001/xml-events" xmlns:xlink="http://www.w3.org/1999/xlink"><defs /><polyline fill="none" points="86.3458,105.8712 78.5356,114.9831 67.6881,119.322 53.3695,119.322 29.939,108.0407 19.0915,96.7593 15.6203,85.9119 15.6203,78.9695 26.4678,65.5186 39.0508,59.4441 54.2373,58.1424 76.8,65.0847 94.1559,76.3661 100.6644,86.3458 100.6644,92.8542 97.6271,98.061 87.6475,108.0407 73.7627,114.5492" stroke="#00007f" stroke-width="2" /><polyline fill="none" points="8.678,58.5763 12.1492,45.9932 12.1492,14.3186 15.1864,10.8475 24.7322,23.4305 43.8237,60.3119 47.7288,70.2915" stroke="#0080ff" stroke-width="2" /><polyline fill="none" points="62.0475,49.8983 74.1966,35.5797 86.3458,8.678 87.2136,11.7153 87.2136,49.4644 85.9119,53.3695 85.478,77.2339" stroke="#7cff79" stroke-width="2" /><polyline fill="none" points="42.9559,82.8746 42.9559,82.8746" stroke="#ff9400" stroke-width="2" /><polyline fill="none" points="51.2,75.9322 46.4271,85.478 39.4847,86.3458 37.7492,83.3085 37.7492,80.7051 44.6915,78.5356 55.1051,80.7051 62.4814,86.3458 65.0847,90.6847 62.0475,92.4203 55.539,92.4203" stroke="#7f0000" stroke-width="2" /></svg>