<?xml version="1.0" encoding="utf-8" ?>
<svg baseProfile="tiny" height="128" version="1.2" viewBox="0,0,128,128" width="128" xmlns="http://www.w3.org/2000/svg" xmlns:ev="http://www.w3.org/2001/xml-events" xmlns:xlink="http://www.w3.org/1999/xlink"><defs /><polyline fill="none" points="48.5966,28.6373 48.5966,28.6373" stroke="#00007f" stroke-width="2" /><polyline fill="none" points="33.4102,55.539 33.8441,43.8237 40.7864,8.678 49.8983,22.9966 58.1424,30.3729 72.461,16.0542 81.139,9.9797 84.1763,42.0881 83.3085,65.0847 79.8373,69.8576 68.5559,78.5356 65.0847,79.4034 57.2746,78.9695 49.0305,74.6305 38.1831,64.6508 34.278,52.0678 35.1458,50.3322" stroke="#0000ff" stroke-width="2" /><polyline fill="none" points="48.5966,38.6169 46.4271,37.3153 44.6915,40.3525 46.861,41.2203 48.5966,39.0508 48.5966,41.6542" stroke="#0080ff" stroke-width="2" /><polyline fill="none" points="72.461,39.9186 70.2915,39.0508 73.3288,39.9186" stroke="#15ffe1" stroke-width="2" /><polyline fill="none" points="59.878,45.9932 58.1424,49.0305 58.1424,53.8034" stroke="#7cff79" stroke-width="2" /><polyline fill="none" points="70.7254,56.8407 89.3831,55.539 119.322,55.9729" stroke="#e4ff12" stroke-width="2" /><polyline fill="none" points="72.0271,59.4441 85.9119,62.0475 114.1153,62.4814" stroke="#ff9400" stroke-width="2" /><polyline fill="none" points="39.9186,50.7661 29.5051,48.5966 8.678,50.7661" stroke="#ff1d00" stroke-width="2" /><polyline fill="none" points="40.7864,61.6136 23.4305,58.5763 14.7525,59.0102" stroke="#7f0000" stroke-width="2" /></svg>