<?xml version="1.0" encoding="utf-8" ?>
<svg baseProfile="tiny" height="128" version="1.2" viewBox="0,0,128,128" width="128" xmlns="http://www.w3.org/2000/svg" xmlns:ev="http://www.w3.org/2001/xml-events" xmlns:xlink="http://www.w3.org/1999/xlink"><defs /><polyline fill="none" points="37.3153,70.2915 75.9322,55.1051 94.5898,51.2 103.7017,51.2 108.9085,52.9356 111.5119,55.539 112.3797,60.7458 109.7763,67.2542 97.6271,77.6678 84.1763,85.0441 75.0644,86.7797 65.0847,86.7797 58.1424,83.7424 38.6169,63.7831" stroke="#00007f" stroke-width="2" /><polyline fill="none" points="44.2576,67.2542 39.4847,61.6136 37.3153,54.6712 32.1085,22.9966 29.5051,17.7898 23.4305,9.5458 19.9593,8.678 15.1864,10.4136 10.8475,15.6203 8.678,28.2034 12.1492,39.4847 16.922,45.9932 39.9186,64.6508 47.7288,73.3288" stroke="#0000de" stroke-width="2" /><polyline fill="none" points="57.7085,78.1017 51.2,90.2508 48.5966,97.1932 48.1627,104.5695 51.6339,105.0034 54.6712,103.2678 62.9153,93.2881 65.5186,106.3051 68.5559,110.2102 71.1593,108.4746 73.7627,102.4 75.9322,92.8542 81.5729,100.2305 84.1763,101.0983 86.7797,98.9288 90.6847,89.3831 92.4203,80.7051 92.8542,91.9864 94.1559,95.0237 99.3627,97.1932 101.5322,94.1559 102.4,86.3458 98.9288,80.7051" stroke="#0028ff" stroke-width="2" /><polyline fill="none" points="102.4,50.7661 102.8339,43.3898 105.0034,37.7492 107.6068,35.1458 114.5492,33.8441 118.0203,36.0136 119.322,40.7864 118.8881,44.6915 115.4169,49.8983 109.3424,53.3695 104.1356,53.8034 101.0983,53.3695 99.3627,49.8983" stroke="#0080ff" stroke-width="2" /><polyline fill="none" points="104.5695,39.0508 99.7966,30.3729 99.7966,27.3356 101.9661,25.6 105.0034,31.2407 108.0407,26.4678 111.078,27.3356 113.6814,35.1458" stroke="#00d4ff" stroke-width="2" /><polyline fill="none" points="111.9458,41.6542 111.9458,41.6542" stroke="#36ffc0" stroke-width="2" /><polyline fill="none" points="58.5763,69.4237 78.9695,62.0475" stroke="#7cff79" stroke-width="2" /><polyline fill="none" points="52.9356,75.9322 68.122,72.0271 86.7797,69.8576" stroke="#c0ff36" stroke-width="2" /><polyline fill="none" points="75.4983,80.2712 85.478,76.3661" stroke="#ffe500" stroke-width="2" /><polyline fill="none" points="79.8373,57.7085 92.4203,65.0847" stroke="#ff9400" stroke-width="2" /><polyline fill="none" points="95.0237,55.1051 101.5322,65.9525" stroke="#ff4600" stroke-width="2" /><polyline fill="none" points="73.7627,66.3864 77.2339,72.8949" stroke="#de0000" stroke-width="2" /><polyline fill="none" points="62.0475,72.8949 67.2542,78.1017" stroke="#7f0000" stroke-width="2" /></svg>