<?xml version="1.0" encoding="utf-8" ?>
<svg baseProfile="tiny" height="128" version="1.2" viewBox="0,0,128,128" width="128" xmlns="http://www.w3.org/2000/svg" xmlns:ev="http://www.w3.org/2001/xml-events" xmlns:xlink="http://www.w3.org/1999/xlink"><defs /><polyline fill="none" points="35.1458,37.7492 21.261,26.4678 8.678,8.678 14.7525,35.5797 17.7898,42.522 25.6,55.1051" stroke="#00007f" stroke-width="2" /><polyline fill="none" points="33.8441,38.1831 75.9322,41.2203 98.061,40.3525" stroke="#0000e8" stroke-width="2" /><polyline fill="none" points="92.4203,42.522 99.3627,38.6169 105.8712,31.2407 114.5492,15.6203 119.322,51.2" stroke="#0038ff" stroke-width="2" /><polyline fill="none" points="57.2746,83.7424 59.0102,87.6475 61.6136,89.8169 65.9525,89.8169 70.7254,85.0441 73.7627,87.6475 77.2339,87.6475 81.139,85.9119 83.7424,82.8746 82.4407,77.2339" stroke="#0094ff" stroke-width="2" /><polyline fill="none" points="70.2915,83.3085 66.3864,78.5356 71.1593,82.4407 75.0644,77.6678 75.0644,75.0644" stroke="#0cf4ea" stroke-width="2" /><polyline fill="none" points="51.2,58.1424 43.3898,62.0475 42.522,68.5559 45.1254,71.5932 50.3322,72.461 59.0102,67.6881 60.3119,65.5186 59.0102,61.1797 53.8034,56.8407 50.3322,55.9729" stroke="#56ffa0" stroke-width="2" /><polyline fill="none" points="87.6475,59.4441 80.2712,56.8407 78.9695,61.6136 79.4034,66.8203 82.8746,69.8576 86.3458,70.7254 92.4203,69.8576 95.4576,66.8203 95.0237,62.9153 91.1186,56.8407 87.6475,54.2373 84.1763,53.8034" stroke="#a0ff56" stroke-width="2" /><polyline fill="none" points="69.8576,62.0475 100.2305,54.6712" stroke="#eaff0c" stroke-width="2" /><polyline fill="none" points="65.0847,60.3119 50.3322,59.4441 34.7119,56.8407 29.939,56.8407 29.5051,58.1424" stroke="#ffaa00" stroke-width="2" /><polyline fill="none" points="49.0305,59.878 49.8983,64.6508 53.3695,65.9525 55.9729,65.0847" stroke="#ff5500" stroke-width="2" /><polyline fill="none" points="80.7051,59.878 85.9119,64.2169 88.5153,63.3492 88.5153,62.0475" stroke="#e80000" stroke-width="2" /><polyline fill="none" points="31.2407,54.6712 20.3932,63.7831 11.7153,74.1966 20.8271,71.1593 13.8847,83.3085 16.4881,82.4407 15.1864,89.8169 18.6576,93.722" stroke="#7f0000" stroke-width="2" /></svg>