<?xml version="1.0" encoding="utf-8" ?>
<svg baseProfile="tiny" height="128" version="1.2" viewBox="0,0,128,128" width="128" xmlns="http://www.w3.org/2000/svg" xmlns:ev="http://www.w3.org/2001/xml-events" xmlns:xlink="http://www.w3.org/1999/xlink"><defs /><polyline fill="none" points="76.8,15.1864 65.5186,12.5831 57.7085,12.5831 49.8983,16.0542 40.7864,22.1288 32.9763,32.9763 25.6,46.861 21.261,67.6881 22.9966,78.1017 26.0339,82.8746 37.7492,89.8169 60.3119,91.9864 74.1966,85.9119 84.6102,76.3661 89.8169,65.0847 91.5525,54.2373 88.0814,35.1458 77.6678,25.6 64.6508,21.6949" stroke="#00007f" stroke-width="2" /><polyline fill="none" points="50.7661,45.1254 43.3898,37.7492 42.0881,39.9186" stroke="#0000d5" stroke-width="2" /><polyline fill="none" points="73.3288,38.6169 73.3288,38.6169" stroke="#001cff" stroke-width="2" /><polyline fill="none" points="61.1797,63.3492 61.1797,63.3492" stroke="#006cff" stroke-width="2" /><polyline fill="none" points="74.1966,44.6915 69.8576,39.9186 68.5559,42.0881 72.8949,42.0881" stroke="#00b8ff" stroke-width="2" /><polyline fill="none" points="40.3525,62.9153 13.4508,60.7458 10.4136,58.5763" stroke="#1cffda" stroke-width="2" /><polyline fill="none" points="35.1458,78.5356 8.678,83.3085" stroke="#5cff9a" stroke-width="2" /><polyline fill="none" points="68.122,68.122 119.322,62.0475" stroke="#9aff5c" stroke-width="2" /><polyline fill="none" points="67.2542,71.5932 105.4373,77.6678" stroke="#daff1c" stroke-width="2" /><polyline fill="none" points="29.0712,34.7119 27.3356,17.7898 28.2034,11.2814 29.939,9.1119 32.9763,8.678 37.7492,11.7153 42.522,22.1288" stroke="#ffcb00" stroke-width="2" /><polyline fill="none" points="82.8746,18.6576 92.4203,10.8475 91.5525,29.5051 88.5153,34.278" stroke="#ff8500" stroke-width="2" /><polyline fill="none" points="45.9932,41.6542 52.0678,43.8237 55.539,42.522 49.0305,40.7864 45.5593,42.0881 46.4271,44.2576" stroke="#ff3b00" stroke-width="2" /><polyline fill="none" points="69.8576,41.6542 75.4983,41.6542 73.3288,39.4847" stroke="#d50000" stroke-width="2" /><polyline fill="none" points="47.7288,75.9322 54.6712,78.5356 59.0102,78.1017 63.7831,75.0644" stroke="#7f0000" stroke-width="2" /></svg>