<?xml version="1.0" encoding="utf-8" ?>
<svg baseProfile="tiny" height="128" version="1.2" viewBox="0,0,128,128" width="128" xmlns="http://www.w3.org/2000/svg" xmlns:ev="http://www.w3.org/2001/xml-events" xmlns:xlink="http://www.w3.org/1999/xlink"><defs /><polyline fill="none" points="105.8712,21.6949 96.7593,31.2407 95.4576,34.7119 95.4576,54.6712 102.4,58.5763 109.7763,54.6712 116.2847,48.5966 119.322,39.0508" stroke="#00007f" stroke-width="2" /><polyline fill="none" points="105.0034,26.0339 111.5119,9.9797 112.3797,28.2034" stroke="#0000ff" stroke-width="2" /><polyline fill="none" points="100.6644,18.2237 103.2678,8.678 103.7017,18.2237" stroke="#0080ff" stroke-width="2" /><polyline fill="none" points="95.4576,30.8068 58.5763,24.7322 42.522,24.7322 28.6373,27.3356 22.5627,31.2407 20.8271,34.278 22.1288,40.7864 25.1661,44.2576 56.4068,54.6712 73.3288,53.8034 91.5525,45.1254" stroke="#15ffe1" stroke-width="2" /><polyline fill="none" points="60.3119,56.4068 63.7831,74.6305" stroke="#7cff79" stroke-width="2" /><polyline fill="none" points="48.5966,52.5017 45.5593,59.878 45.1254,70.2915" stroke="#e4ff12" stroke-width="2" /><polyline fill="none" points="36.0136,49.4644 32.1085,67.6881" stroke="#ff9400" stroke-width="2" /><polyline fill="none" points="26.0339,43.8237 21.261,56.8407 20.8271,60.3119 19.5254,61.1797" stroke="#ff1d00" stroke-width="2" /><polyline fill="none" points="24.7322,26.9017 14.3186,28.6373 8.678,32.1085" stroke="#7f0000" stroke-width="2" /></svg>