<?xml version="1.0" encoding="utf-8" ?>
<svg baseProfile="tiny" height="128" version="1.2" viewBox="0,0,128,128" width="128" xmlns="http://www.w3.org/2000/svg" xmlns:ev="http://www.w3.org/2001/xml-events" xmlns:xlink="http://www.w3.org/1999/xlink"><defs /><polyline fill="none" points="66.3864,28.6373 72.461,22.1288 78.9695,19.0915 83.3085,18.6576 87.2136,19.9593 91.5525,24.2983 88.9492,31.2407 87.2136,32.9763 76.3661,35.5797 70.2915,32.1085 67.2542,29.0712" stroke="#00007f" stroke-width="2" /><polyline fill="none" points="70.2915,23.4305 69.4237,19.5254 70.7254,8.678 79.8373,19.0915" stroke="#0000e8" stroke-width="2" /><polyline fill="none" points="87.6475,22.5627 93.722,15.6203 95.0237,18.2237 94.5898,24.2983" stroke="#0038ff" stroke-width="2" /><polyline fill="none" points="75.4983,26.4678 75.4983,26.4678" stroke="#0094ff" stroke-width="2" /><polyline fill="none" points="74.1966,25.1661 74.1966,25.1661" stroke="#0cf4ea" stroke-width="2" /><polyline fill="none" points="73.3288,34.7119 73.3288,50.7661 78.1017,52.9356 84.6102,53.3695 88.5153,52.0678 91.9864,46.861 92.4203,32.5424" stroke="#56ffa0" stroke-width="2" /><polyline fill="none" points="96.7593,39.0508 101.0983,33.8441 112.8136,24.7322 116.2847,22.9966 119.322,24.7322 118.8881,27.7695 116.2847,31.2407 98.9288,42.0881" stroke="#a0ff56" stroke-width="2" /><polyline fill="none" points="73.3288,25.6 73.3288,25.6" stroke="#eaff0c" stroke-width="2" /><polyline fill="none" points="73.3288,29.0712 74.1966,28.2034" stroke="#ffaa00" stroke-width="2" /><polyline fill="none" points="78.9695,28.2034 81.5729,28.2034" stroke="#ff5500" stroke-width="2" /><polyline fill="none" points="20.3932,19.0915 12.5831,19.5254 8.678,26.4678 9.1119,28.2034 13.0169,32.5424 19.0915,35.5797 27.3356,34.278" stroke="#e80000" stroke-width="2" /><polyline fill="none" points="36.8814,32.5424 39.4847,24.2983 42.0881,27.3356 42.522,34.278" stroke="#7f0000" stroke-width="2" /></svg>