<?xml version="1.0" encoding="utf-8" ?>
<svg baseProfile="tiny" height="128" version="1.2" viewBox="0,0,128,128" width="128" xmlns="http://www.w3.org/2000/svg" xmlns:ev="http://www.w3.org/2001/xml-events" xmlns:xlink="http://www.w3.org/1999/xlink"><defs /><polyline fill="none" points="73.7627,19.9593 58.1424,21.6949 50.3322,24.7322 44.6915,29.0712 41.6542,34.278 40.3525,42.9559 42.522,45.9932 52.5017,52.0678 74.1966,56.8407 85.478,56.4068 92.4203,52.9356 102.8339,45.1254 103.2678,40.3525 98.4949,34.278 90.6847,29.5051 78.9695,22.9966 70.2915,19.9593" stroke="#00007f" stroke-width="2" /><polyline fill="none" points="42.0881,44.6915 26.9017,68.122" stroke="#0000fe" stroke-width="2" /><polyline fill="none" points="45.9932,52.0678 45.5593,71.1593" stroke="#0060ff" stroke-width="2" /><polyline fill="none" points="70.7254,53.3695 78.5356,77.2339" stroke="#00d4ff" stroke-width="2" /><polyline fill="none" points="86.7797,53.8034 93.722,67.6881 108.0407,87.6475" stroke="#4cffaa" stroke-width="2" /><polyline fill="none" points="99.3627,42.0881 106.739,36.4475 116.2847,22.9966 119.322,16.0542" stroke="#aaff4c" stroke-width="2" /><polyline fill="none" points="39.9186,33.4102 33.4102,26.9017 30.3729,15.6203 28.2034,12.5831 20.8271,12.1492 19.9593,13.8847 20.3932,36.4475 26.9017,39.9186 39.0508,42.9559" stroke="#ffe500" stroke-width="2" /><polyline fill="none" points="23.4305,11.2814 34.7119,8.678 34.278,10.8475 27.3356,17.7898" stroke="#ff7a00" stroke-width="2" /><polyline fill="none" points="19.9593,13.4508 16.0542,9.5458 13.0169,9.5458 20.8271,19.9593" stroke="#fe1200" stroke-width="2" /><polyline fill="none" points="18.6576,29.939 8.678,29.939 9.9797,33.4102 16.0542,34.278" stroke="#7f0000" stroke-width="2" /></svg>