<?xml version="1.0" encoding="utf-8" ?>
<svg baseProfile="tiny" height="128" version="1.2" viewBox="0,0,128,128" width="128" xmlns="http://www.w3.org/2000/svg" xmlns:ev="http://www.w3.org/2001/xml-events" xmlns:xlink="http://www.w3.org/1999/xlink"><defs /><polyline fill="none" points="38.1831,15.6203 29.5051,21.261 19.0915,30.8068 11.2814,43.3898 10.4136,50.3322 13.0169,56.8407 23.4305,64.2169 32.5424,65.9525 35.1458,65.5186 41.2203,61.1797 51.6339,47.7288 55.1051,36.4475 53.3695,25.1661 48.1627,16.922 42.9559,13.0169 36.4475,11.7153 32.1085,13.0169" stroke="#00007f" stroke-width="2" /><polyline fill="none" points="26.0339,38.6169 34.278,36.0136 39.4847,38.1831 38.1831,41.6542 34.7119,42.522 27.3356,40.7864" stroke="#0000d1" stroke-width="2" /><polyline fill="none" points="40.3525,35.1458 56.8407,30.3729 60.3119,27.3356" stroke="#0010ff" stroke-width="2" /><polyline fill="none" points="27.3356,41.6542 8.678,38.6169" stroke="#0058ff" stroke-width="2" /><polyline fill="none" points="25.1661,48.1627 15.1864,51.6339" stroke="#00a4ff" stroke-width="2" /><polyline fill="none" points="35.1458,45.5593 55.539,44.2576 64.2169,41.6542" stroke="#05ecf1" stroke-width="2" /><polyline fill="none" points="26.4678,28.2034 26.4678,28.2034" stroke="#3fffb7" stroke-width="2" /><polyline fill="none" points="40.7864,26.0339 40.7864,26.0339" stroke="#7cff79" stroke-width="2" /><polyline fill="none" points="19.0915,21.261 22.5627,13.0169 26.4678,16.922 28.6373,22.5627" stroke="#b7ff3f" stroke-width="2" /><polyline fill="none" points="38.6169,15.1864 39.0508,9.9797 40.7864,8.678 42.9559,9.1119 49.8983,13.4508 50.7661,18.6576" stroke="#f1fc05" stroke-width="2" /><polyline fill="none" points="30.3729,56.8407 34.278,55.539" stroke="#ffb900" stroke-width="2" /><polyline fill="none" points="52.0678,52.0678 60.7458,52.0678 71.5932,54.2373 78.1017,57.2746 82.0068,61.1797 85.478,70.2915 86.3458,80.7051 84.1763,84.6102 78.5356,88.9492 67.6881,91.1186 51.2,88.9492 36.4475,81.5729 21.261,67.2542" stroke="#ff7300" stroke-width="2" /><polyline fill="none" points="86.3458,64.6508 88.9492,59.4441 92.8542,56.4068 114.1153,45.5593 119.322,40.7864 119.322,33.8441 112.3797,59.4441 98.9288,64.2169 84.1763,65.9525" stroke="#ff3000" stroke-width="2" /><polyline fill="none" points="35.5797,82.0068 32.5424,85.0441 24.7322,109.3424" stroke="#d10000" stroke-width="2" /><polyline fill="none" points="59.0102,83.7424 52.9356,101.5322" stroke="#7f0000" stroke-width="2" /></svg>