<?xml version="1.0" encoding="utf-8" ?>
<svg baseProfile="tiny" height="128" version="1.2" viewBox="0,0,128,128" width="128" xmlns="http://www.w3.org/2000/svg" xmlns:ev="http://www.w3.org/2001/xml-events" xmlns:xlink="http://www.w3.org/1999/xlink"><defs /><polyline fill="none" points="14.8027,65.7415 16.1088,47.0204 20.4626,29.6054 24.8163,18.7211 29.6054,27.4286 37.8776,51.8095 64.0,51.8095 66.1769,50.5034 72.2721,24.8163 76.1905,14.3673 78.8027,9.5782 81.415,8.7075 85.3333,14.3673 87.9456,24.381 90.9932,48.7619 93.6054,50.9388 99.7007,60.9524 103.619,75.3197 103.619,94.0408 98.8299,101.4422 87.0748,110.585 72.2721,118.8571 54.8571,119.2925 47.8912,117.551 25.6871,104.4898 17.8503,96.6531 12.1905,83.5918 11.3197,76.1905 12.6259,67.9184 14.8027,65.3061" stroke="#00007f" stroke-width="2" /><polyline fill="none" points="74.8844,78.3673 105.3605,72.7075" stroke="#0010ff" stroke-width="2" /><polyline fill="none" points="84.4626,88.8163 109.2789,85.7687" stroke="#00a4ff" stroke-width="2" /><polyline fill="none" points="8.7075,88.381 38.3129,81.8503" stroke="#3fffb7" stroke-width="2" /><polyline fill="none" points="18.7211,104.9252 33.0884,98.3946 45.2789,95.3469" stroke="#b7ff3f" stroke-width="2" /><polyline fill="none" points="44.8435,74.449 43.9728,74.0136" stroke="#ffb900" stroke-width="2" /><polyline fill="none" points="64.8707,71.8367 64.4354,71.8367" stroke="#ff3000" stroke-width="2" /><polyline fill="none" points="43.5374,107.5374 46.1497,109.2789 52.2449,106.2313 57.4694,96.2177 57.4694,91.4286 60.517,102.3129 63.1293,103.1837 66.1769,98.8299" stroke="#7f0000" stroke-width="2" /></svg>