<?xml version="1.0" encoding="utf-8" ?>
<svg baseProfile="tiny" height="128" version="1.2" viewBox="0,0,128,128" width="128" xmlns="http://www.w3.org/2000/svg" xmlns:ev="http://www.w3.org/2001/xml-events" xmlns:xlink="http://www.w3.org/1999/xlink"><defs /><polyline fill="none" points="105.3605,36.5714 108.4082,37.4422 109.2789,35.2653 104.0544,30.4762 97.5238,30.0408 91.4286,33.0884 87.9456,37.0068 86.6395,42.2313 88.8163,50.9388 94.9116,57.034 98.8299,58.7755 104.9252,58.7755 109.2789,57.034 113.6327,51.8095 114.068,46.585 111.0204,41.3605 107.102,38.7483" stroke="#00007f" stroke-width="2" /><polyline fill="none" points="87.5102,52.6803 77.932,54.8571 65.7415,55.2925 37.8776,49.6327 31.7823,49.6327 25.2517,51.3741 20.898,57.4694 21.3333,65.7415 25.6871,87.0748 26.5578,89.6871 30.4762,91.4286 66.1769,89.6871 88.8163,93.6054 96.2177,92.7347 101.0068,87.5102 102.3129,78.8027 99.2653,54.8571" stroke="#0000ff" stroke-width="2" /><polyline fill="none" points="112.7619,40.0544 119.2925,16.1088 118.4218,8.7075 115.8095,8.7075 101.4422,18.2857 97.0884,23.5102" stroke="#0080ff" stroke-width="2" /><polyline fill="none" points="90.1224,31.3469 82.2857,22.2041 77.0612,19.1565 81.8503,40.4898" stroke="#15ffe1" stroke-width="2" /><polyline fill="none" points="26.1224,49.6327 27.8639,31.7823 25.6871,21.7687 16.5442,11.3197 11.7551,9.1429 8.7075,11.7551 10.0136,19.5918 20.898,40.4898 23.9456,60.0816" stroke="#7cff79" stroke-width="2" /><polyline fill="none" points="32.6531,94.9116 31.3469,90.9932 30.9116,92.7347 31.3469,113.6327 37.4422,103.1837 38.7483,93.1701" stroke="#e4ff12" stroke-width="2" /><polyline fill="none" points="100.1361,95.3469 97.9592,117.1156 96.2177,119.2925 92.2993,112.7619 88.8163,92.2993" stroke="#ff9400" stroke-width="2" /><polyline fill="none" points="83.1565,90.9932 81.8503,94.4762 81.415,111.4558 79.6735,114.068 74.0136,87.5102" stroke="#ff1d00" stroke-width="2" /><polyline fill="none" points="45.7143,94.4762 42.2313,89.2517 40.9252,96.2177 40.9252,107.9728 41.7959,107.102 45.7143,88.8163" stroke="#7f0000" stroke-width="2" /></svg>