<?xml version="1.0" encoding="utf-8" ?>
<svg baseProfile="tiny" height="128" version="1.2" viewBox="0,0,128,128" width="128" xmlns="http://www.w3.org/2000/svg" xmlns:ev="http://www.w3.org/2001/xml-events" xmlns:xlink="http://www.w3.org/1999/xlink"><defs /><polyline fill="none" points="93.2881,51.2 65.0847,45.5593 48.5966,46.861 40.7864,49.4644 29.0712,58.1424 11.7153,79.8373 8.678,97.6271 11.7153,104.1356 17.7898,110.2102 28.2034,114.5492 42.9559,118.0203 58.1424,119.322 72.8949,117.5864 96.7593,108.4746 105.4373,101.9661 111.078,95.4576 114.9831,88.0814 116.7186,80.2712 116.2847,73.3288 114.1153,68.5559 106.3051,60.3119 93.722,54.6712 70.2915,51.2" stroke="#00007f" stroke-width="2" /><polyline fill="none" points="29.939,60.3119 26.4678,59.878 24.7322,56.4068 25.1661,25.6 22.9966,8.678 35.1458,33.4102 43.8237,44.6915" stroke="#004cff" stroke-width="2" /><polyline fill="none" points="88.5153,49.8983 101.0983,37.7492 113.6814,18.6576 110.6441,34.7119 109.7763,59.878" stroke="#29ffcd" stroke-width="2" /><polyline fill="none" points="61.6136,90.6847 60.3119,96.7593 57.7085,100.2305 61.6136,102.4 71.5932,100.6644 65.5186,95.8915" stroke="#cdff29" stroke-width="2" /><polyline fill="none" points="44.6915,67.6881 43.3898,67.6881" stroke="#ff6700" stroke-width="2" /><polyline fill="none" points="75.4983,67.2542 75.0644,67.6881" stroke="#7f0000" stroke-width="2" /></svg>