<?xml version="1.0" encoding="utf-8" ?>
<svg baseProfile="tiny" height="128" version="1.2" viewBox="0,0,128,128" width="128" xmlns="http://www.w3.org/2000/svg" xmlns:ev="http://www.w3.org/2001/xml-events" xmlns:xlink="http://www.w3.org/1999/xlink"><defs /><polyline fill="none" points="67.6881,26.4678 55.9729,19.5254 47.7288,20.8271 35.1458,33.8441 29.939,43.3898 28.6373,49.4644 27.7695,59.878 29.5051,65.5186 36.4475,75.0644 45.5593,83.3085 59.0102,88.5153 70.7254,87.2136 88.0814,76.3661 93.2881,68.122 95.4576,61.1797 95.4576,49.0305 92.8542,39.4847 86.7797,33.4102 66.8203,23.4305 52.9356,22.9966 52.0678,24.2983" stroke="#00007f" stroke-width="2" /><polyline fill="none" points="27.7695,36.0136 28.2034,10.8475 30.8068,9.9797 35.5797,12.1492 47.7288,20.8271" stroke="#0000d5" stroke-width="2" /><polyline fill="none" points="69.8576,25.1661 82.0068,14.3186 91.5525,8.678 91.1186,20.8271 87.2136,33.4102" stroke="#001cff" stroke-width="2" /><polyline fill="none" points="41.6542,44.2576 41.6542,44.2576" stroke="#006cff" stroke-width="2" /><polyline fill="none" points="45.1254,40.7864 45.5593,43.8237 48.1627,43.8237 46.861,41.6542" stroke="#00b8ff" stroke-width="2" /><polyline fill="none" points="66.8203,39.4847 65.9525,42.0881 68.5559,42.522 68.5559,39.4847 65.9525,39.4847 66.3864,42.0881" stroke="#1cffda" stroke-width="2" /><polyline fill="none" points="57.2746,62.0475 54.2373,64.2169 45.9932,65.5186 42.9559,63.7831 42.9559,60.3119" stroke="#5cff9a" stroke-width="2" /><polyline fill="none" points="58.5763,65.5186 61.6136,67.6881 66.3864,67.2542 74.6305,62.9153 76.3661,59.4441" stroke="#9aff5c" stroke-width="2" /><polyline fill="none" points="82.0068,51.2 98.4949,47.7288 113.2475,42.9559" stroke="#daff1c" stroke-width="2" /><polyline fill="none" points="80.2712,59.878 82.8746,55.9729 93.2881,56.4068 119.322,67.6881" stroke="#ffcb00" stroke-width="2" /><polyline fill="none" points="86.7797,68.5559 91.1186,78.1017 99.3627,88.5153" stroke="#ff8500" stroke-width="2" /><polyline fill="none" points="33.8441,59.4441 30.8068,58.1424 9.5458,58.1424 9.1119,57.2746" stroke="#ff3b00" stroke-width="2" /><polyline fill="none" points="36.0136,62.4814 15.6203,69.4237 8.678,72.8949 8.678,74.1966" stroke="#d50000" stroke-width="2" /><polyline fill="none" points="37.7492,68.122 25.6,75.4983" stroke="#7f0000" stroke-width="2" /></svg>