<?xml version="1.0" encoding="utf-8" ?>
<svg baseProfile="tiny" height="128" version="1.2" viewBox="0,0,128,128" width="128" xmlns="http://www.w3.org/2000/svg" xmlns:ev="http://www.w3.org/2001/xml-events" xmlns:xlink="http://www.w3.org/1999/xlink"><defs /><polyline fill="none" points="26.0339,50.3322 22.5627,49.8983 18.6576,52.0678 15.1864,56.4068 8.678,87.6475 15.1864,101.5322 33.8441,114.9831 39.9186,117.1525 66.3864,119.322 77.2339,110.6441 94.1559,72.0271 89.3831,63.3492 73.3288,53.3695 85.9119,42.522 88.5153,35.5797 75.0644,33.4102 58.5763,32.9763 36.8814,35.5797 31.2407,38.6169 22.5627,48.5966 18.6576,55.9729 17.7898,60.7458" stroke="#00007f" stroke-width="2" /><polyline fill="none" points="9.5458,56.4068 9.5458,38.1831 12.5831,21.261 18.6576,8.678 32.1085,22.9966 39.0508,35.1458" stroke="#0010ff" stroke-width="2" /><polyline fill="none" points="75.9322,45.1254 78.1017,34.278 88.0814,19.5254 92.4203,29.5051 84.1763,52.5017" stroke="#00a4ff" stroke-width="2" /><polyline fill="none" points="36.8814,59.878 38.6169,57.2746 35.1458,58.1424 29.0712,65.0847 29.0712,68.9898 36.0136,63.7831 40.3525,52.0678" stroke="#3fffb7" stroke-width="2" /><polyline fill="none" points="67.6881,68.5559 64.2169,67.2542 73.3288,66.8203 71.5932,58.1424 68.5559,55.9729" stroke="#b7ff3f" stroke-width="2" /><polyline fill="none" points="46.4271,77.6678 48.1627,88.0814 53.3695,79.8373 45.9932,76.3661" stroke="#ffb900" stroke-width="2" /><polyline fill="none" points="51.2,90.2508 40.7864,98.061 32.5424,100.6644 29.5051,97.1932 29.5051,92.8542" stroke="#ff3000" stroke-width="2" /><polyline fill="none" points="57.7085,92.8542 56.8407,104.5695 60.3119,108.0407 68.9898,105.0034 77.6678,91.1186 78.5356,87.2136" stroke="#7f0000" stroke-width="2" /></svg>