<?xml version="1.0" encoding="utf-8" ?>
<svg baseProfile="tiny" height="128" version="1.2" viewBox="0,0,128,128" width="128" xmlns="http://www.w3.org/2000/svg" xmlns:ev="http://www.w3.org/2001/xml-events" xmlns:xlink="http://www.w3.org/1999/xlink"><defs /><polyline fill="none" points="18.6576,33.8441 16.922,30.3729 15.1864,16.0542 20.8271,17.7898 29.5051,26.0339" stroke="#00007f" stroke-width="2" /><polyline fill="none" points="42.9559,29.5051 42.522,22.9966 45.1254,17.7898 55.539,8.678 58.1424,15.6203 59.4441,32.9763" stroke="#0000ff" stroke-width="2" /><polyline fill="none" points="55.9729,36.0136 50.3322,33.8441 15.1864,32.5424 12.5831,37.7492 13.4508,51.6339 14.7525,54.6712 19.5254,58.5763 29.0712,60.3119 48.5966,59.4441 56.4068,55.9729 60.3119,52.5017 61.6136,49.8983 60.7458,39.0508 56.8407,36.4475 45.1254,36.0136" stroke="#0080ff" stroke-width="2" /><polyline fill="none" points="29.5051,44.2576 30.8068,47.7288 36.4475,47.7288 34.278,45.9932" stroke="#15ffe1" stroke-width="2" /><polyline fill="none" points="29.5051,52.0678 22.5627,59.4441" stroke="#7cff79" stroke-width="2" /><polyline fill="none" points="30.3729,51.2 41.6542,59.878" stroke="#e4ff12" stroke-width="2" /><polyline fill="none" points="13.8847,62.4814 8.678,82.0068 9.5458,97.1932 15.1864,105.8712 18.2237,108.0407 27.3356,111.9458 35.5797,112.3797 40.7864,111.078 52.9356,102.8339 57.7085,96.7593 59.4441,91.1186 58.5763,82.0068 55.539,76.3661 48.1627,67.6881 39.9186,61.1797" stroke="#ff9400" stroke-width="2" /><polyline fill="none" points="57.7085,88.9492 60.3119,87.6475 85.0441,87.2136 93.722,88.5153 105.4373,102.4 108.4746,110.2102 108.4746,114.1153 106.739,116.7186 103.7017,118.4542 96.7593,119.322 89.3831,108.4746 82.0068,102.8339 76.8,100.6644 62.9153,100.2305 59.0102,96.7593" stroke="#ff1d00" stroke-width="2" /><polyline fill="none" points="25.1661,76.8 19.5254,82.0068 18.6576,88.9492 18.6576,97.6271 26.9017,103.2678 30.3729,103.7017 33.8441,101.9661 37.7492,93.722 37.7492,81.139 34.278,78.5356 29.0712,76.8 23.8644,78.1017" stroke="#7f0000" stroke-width="2" /></svg>