<?xml version="1.0" encoding="utf-8" ?>
<svg baseProfile="tiny" height="128" version="1.2" viewBox="0,0,128,128" width="128" xmlns="http://www.w3.org/2000/svg" xmlns:ev="http://www.w3.org/2001/xml-events" xmlns:xlink="http://www.w3.org/1999/xlink"><defs /><polyline fill="none" points="76.6259,25.2517 83.5918,15.6735 84.898,16.5442 86.6395,21.3333" stroke="#00007f" stroke-width="2" /><polyline fill="none" points="87.0748,23.9456 87.0748,24.381" stroke="#0000bf" stroke-width="2" /><polyline fill="none" points="87.5102,25.6871 87.5102,25.6871" stroke="#0000fe" stroke-width="2" /><polyline fill="none" points="96.6531,25.2517 96.2177,20.898 99.7007,15.6735 104.0544,26.1224" stroke="#0028ff" stroke-width="2" /><polyline fill="none" points="111.4558,26.1224 111.0204,25.6871" stroke="#0060ff" stroke-width="2" /><polyline fill="none" points="107.9728,25.2517 107.9728,25.2517" stroke="#009cff" stroke-width="2" /><polyline fill="none" points="105.3605,25.6871 105.3605,25.6871" stroke="#00d4ff" stroke-width="2" /><polyline fill="none" points="102.3129,25.2517 102.3129,25.2517" stroke="#1fffd7" stroke-width="2" /><polyline fill="none" points="100.1361,25.2517 70.0952,22.6395 63.5646,25.6871 57.4694,32.2177 55.7279,38.7483 61.3878,43.102 70.0952,44.4082 89.6871,43.9728 104.4898,40.0544 110.585,37.0068 114.068,33.5238 116.6803,30.0408 116.2449,26.1224 111.8912,24.381 106.6667,24.8163" stroke="#4cffaa" stroke-width="2" /><polyline fill="none" points="79.2381,32.2177 82.7211,30.4762 82.7211,31.7823 80.9796,32.2177" stroke="#7cff79" stroke-width="2" /><polyline fill="none" points="81.8503,30.9116 82.2857,31.7823" stroke="#aaff4c" stroke-width="2" /><polyline fill="none" points="92.7347,30.4762 93.6054,29.6054 93.1701,31.3469 92.2993,30.9116" stroke="#d7ff1f" stroke-width="2" /><polyline fill="none" points="92.7347,31.3469 92.2993,32.2177" stroke="#ffe500" stroke-width="2" /><polyline fill="none" points="88.8163,33.0884 87.5102,37.8776 93.6054,39.619 87.5102,39.1837 84.898,41.3605" stroke="#ffb100" stroke-width="2" /><polyline fill="none" points="57.034,43.5374 45.7143,37.4422 38.3129,36.5714 18.7211,38.7483 12.1905,43.9728" stroke="#ff7a00" stroke-width="2" /><polyline fill="none" points="11.7551,45.2789 8.7075,51.8095 8.7075,59.6463" stroke="#ff4600" stroke-width="2" /><polyline fill="none" points="96.2177,43.102 101.4422,44.4082 104.0544,47.0204 105.3605,59.6463" stroke="#fe1200" stroke-width="2" /><polyline fill="none" points="59.6463,27.4286 47.4558,14.3673" stroke="#bf0000" stroke-width="2" /><polyline fill="none" points="51.3741,18.7211 67.9184,33.5238 71.4014,34.8299 72.7075,32.2177 70.966,20.4626 75.3197,13.0612 79.2381,11.7551 84.0272,12.6259 97.0884,21.3333 101.8776,23.0748 113.1973,10.0136 119.2925,8.7075" stroke="#7f0000" stroke-width="2" /></svg>