<?xml version="1.0" encoding="utf-8" ?>
<svg baseProfile="tiny" height="128" version="1.2" viewBox="0,0,128,128" width="128" xmlns="http://www.w3.org/2000/svg" xmlns:ev="http://www.w3.org/2001/xml-events" xmlns:xlink="http://www.w3.org/1999/xlink"><defs /><polyline fill="none" points="9.1119,16.0542 8.678,28.6373 10.8475,50.3322 13.0169,52.9356 27.7695,53.8034 40.3525,49.8983 43.8237,39.9186 44.6915,31.6746 43.3898,10.8475 40.7864,8.678 30.8068,23.4305 18.2237,24.2983 10.8475,11.2814 10.8475,19.0915" stroke="#00007f" stroke-width="2" /><polyline fill="none" points="12.5831,22.1288 12.5831,20.8271" stroke="#0000f1" stroke-width="2" /><polyline fill="none" points="37.3153,22.5627 39.0508,18.6576" stroke="#004cff" stroke-width="2" /><polyline fill="none" points="17.3559,32.9763 17.7898,32.9763" stroke="#00b0ff" stroke-width="2" /><polyline fill="none" points="31.2407,32.1085 31.6746,32.1085" stroke="#29ffcd" stroke-width="2" /><polyline fill="none" points="23.4305,38.1831 24.7322,43.3898 28.2034,43.3898" stroke="#7cff79" stroke-width="2" /><polyline fill="none" points="23.8644,41.2203 17.3559,41.6542" stroke="#cdff29" stroke-width="2" /><polyline fill="none" points="18.2237,55.1051 22.9966,62.9153 31.2407,67.6881 57.2746,67.6881 77.2339,69.4237 95.8915,68.9898 94.1559,47.7288 90.2508,40.3525 86.7797,37.3153 82.0068,35.1458 67.6881,34.7119 36.8814,39.0508" stroke="#ffc400" stroke-width="2" /><polyline fill="none" points="92.8542,43.3898 108.9085,44.2576 113.6814,45.9932 118.4542,50.3322 119.322,56.4068 115.8508,57.2746 107.6068,51.2 94.1559,45.5593" stroke="#ff6700" stroke-width="2" /><polyline fill="none" points="39.9186,65.5186 34.7119,76.3661 31.6746,77.2339 27.3356,75.0644" stroke="#f10700" stroke-width="2" /><polyline fill="none" points="59.0102,67.6881 59.0102,74.1966 55.1051,78.5356 52.5017,78.5356" stroke="#7f0000" stroke-width="2" /></svg>