<?xml version="1.0" encoding="utf-8" ?>
<svg baseProfile="tiny" height="128" version="1.2" viewBox="0,0,128,128" width="128" xmlns="http://www.w3.org/2000/svg" xmlns:ev="http://www.w3.org/2001/xml-events" xmlns:xlink="http://www.w3.org/1999/xlink"><defs /><polyline fill="none" points="33.8441,39.9186 31.2407,37.3153 29.939,21.261 40.7864,32.9763 43.8237,39.0508 46.4271,38.6169 56.8407,34.7119 76.3661,30.3729 78.1017,13.8847 79.8373,8.678 90.2508,36.4475 89.8169,39.0508" stroke="#00007f" stroke-width="2" /><polyline fill="none" points="36.0136,40.3525 33.4102,42.0881 31.6746,58.1424 32.9763,61.1797 46.861,71.5932 52.0678,72.0271 76.3661,66.8203 88.9492,56.4068 92.4203,42.522 87.2136,34.7119" stroke="#0000ff" stroke-width="2" /><polyline fill="none" points="53.3695,33.8441 52.0678,39.9186 53.3695,45.5593 54.2373,45.1254" stroke="#0080ff" stroke-width="2" /><polyline fill="none" points="65.9525,34.278 65.0847,36.0136 66.8203,42.0881" stroke="#15ffe1" stroke-width="2" /><polyline fill="none" points="49.8983,55.1051 43.8237,55.539 28.2034,60.3119 8.678,70.7254" stroke="#7cff79" stroke-width="2" /><polyline fill="none" points="52.0678,60.3119 46.861,61.6136 31.6746,69.4237 15.1864,79.8373" stroke="#e4ff12" stroke-width="2" /><polyline fill="none" points="85.9119,45.1254 88.0814,41.2203 92.8542,38.1831 119.322,30.8068" stroke="#ff9400" stroke-width="2" /><polyline fill="none" points="80.2712,54.6712 87.6475,50.7661 96.7593,48.1627 116.2847,45.9932" stroke="#ff1d00" stroke-width="2" /><polyline fill="none" points="57.2746,49.0305 57.2746,49.0305" stroke="#7f0000" stroke-width="2" /></svg>