<?xml version="1.0" encoding="utf-8" ?>
<svg baseProfile="tiny" height="128" version="1.2" viewBox="0,0,128,128" width="128" xmlns="http://www.w3.org/2000/svg" xmlns:ev="http://www.w3.org/2001/xml-events" xmlns:xlink="http://www.w3.org/1999/xlink"><defs /><polyline fill="none" points="96.3254,111.5119 88.5153,112.3797 80.7051,110.2102 68.9898,105.4373 63.3492,101.0983 50.7661,83.7424 45.1254,58.5763 46.4271,49.4644 55.539,34.7119 61.1797,34.7119 68.122,31.2407 82.4407,28.2034 103.2678,29.0712 108.9085,35.1458 113.6814,42.9559 118.0203,57.2746 119.322,85.9119 113.6814,98.4949 108.9085,104.5695 101.0983,108.9085 94.1559,110.2102" stroke="#00007f" stroke-width="2" /><polyline fill="none" points="41.6542,45.1254 41.6542,37.3153 39.4847,26.0339 33.8441,8.678 50.7661,17.7898" stroke="#0010ff" stroke-width="2" /><polyline fill="none" points="82.8746,28.2034 103.2678,13.4508 108.9085,23.4305 111.5119,38.1831 112.3797,38.1831" stroke="#00a4ff" stroke-width="2" /><polyline fill="none" points="62.4814,56.4068 62.4814,56.4068" stroke="#3fffb7" stroke-width="2" /><polyline fill="none" points="75.9322,55.539 66.8203,62.4814" stroke="#b7ff3f" stroke-width="2" /><polyline fill="none" points="95.4576,49.8983 95.4576,50.7661" stroke="#ffb900" stroke-width="2" /><polyline fill="none" points="82.8746,81.5729 86.3458,87.2136 91.9864,89.3831 111.5119,80.7051 112.3797,78.1017" stroke="#ff3000" stroke-width="2" /><polyline fill="none" points="84.1763,72.461 53.3695,73.7627 39.4847,75.9322 18.6576,77.2339 8.678,79.4034" stroke="#7f0000" stroke-width="2" /></svg>