<?xml version="1.0" encoding="utf-8" ?>
<svg baseProfile="tiny" height="128" version="1.2" viewBox="0,0,128,128" width="128" xmlns="http://www.w3.org/2000/svg" xmlns:ev="http://www.w3.org/2001/xml-events" xmlns:xlink="http://www.w3.org/1999/xlink"><defs /><polyline fill="none" points="48.1627,44.6915 43.8237,31.2407 43.3898,8.678 46.4271,10.8475 56.8407,24.7322 66.3864,44.6915" stroke="#00007f" stroke-width="2" /><polyline fill="none" points="62.9153,35.5797 67.2542,30.8068 76.8,9.1119 82.4407,31.6746 83.3085,41.6542 81.5729,47.2949" stroke="#0000de" stroke-width="2" /><polyline fill="none" points="78.5356,33.4102 96.7593,36.0136 106.739,42.9559 108.9085,45.9932 105.8712,69.8576 103.7017,75.4983 90.6847,87.2136 74.1966,93.2881 60.3119,95.4576 52.9356,96.3254 35.5797,93.722 24.2983,86.3458 18.2237,76.8 16.4881,66.3864 20.8271,50.7661 26.9017,42.9559 38.1831,40.7864 39.9186,38.1831" stroke="#0028ff" stroke-width="2" /><polyline fill="none" points="34.278,67.6881 9.9797,49.0305" stroke="#0080ff" stroke-width="2" /><polyline fill="none" points="32.5424,76.8 11.2814,66.8203" stroke="#00d4ff" stroke-width="2" /><polyline fill="none" points="39.4847,90.6847 26.4678,91.9864 8.678,96.3254" stroke="#36ffc0" stroke-width="2" /><polyline fill="none" points="100.6644,51.6339 118.8881,38.6169" stroke="#7cff79" stroke-width="2" /><polyline fill="none" points="92.8542,66.3864 100.2305,64.2169 119.322,54.6712" stroke="#c0ff36" stroke-width="2" /><polyline fill="none" points="88.0814,81.139 116.2847,84.1763" stroke="#ffe500" stroke-width="2" /><polyline fill="none" points="49.4644,57.7085 44.6915,59.0102 42.9559,61.6136 43.8237,65.9525 50.7661,62.9153 50.7661,60.3119 49.0305,59.878" stroke="#ff9400" stroke-width="2" /><polyline fill="none" points="96.3254,62.0475 86.3458,60.7458 84.6102,63.3492 88.0814,65.5186 92.4203,62.9153 91.5525,59.0102 89.8169,58.1424" stroke="#ff4600" stroke-width="2" /><polyline fill="none" points="67.6881,60.3119 67.6881,72.461" stroke="#de0000" stroke-width="2" /><polyline fill="none" points="75.0644,83.7424 65.5186,85.478 55.1051,84.1763 37.3153,75.4983" stroke="#7f0000" stroke-width="2" /></svg>