<?xml version="1.0" encoding="utf-8" ?>
<svg baseProfile="tiny" height="128" version="1.2" viewBox="0,0,128,128" width="128" xmlns="http://www.w3.org/2000/svg" xmlns:ev="http://www.w3.org/2001/xml-events" xmlns:xlink="http://www.w3.org/1999/xlink"><defs /><polyline fill="none" points="54.6712,39.4847 53.3695,37.7492 50.3322,36.8814 43.3898,38.6169 39.0508,41.6542 32.1085,49.4644 28.6373,61.6136 28.2034,68.5559 29.939,75.9322 33.4102,82.4407 42.522,93.722 55.539,101.0983 62.0475,102.8339 69.8576,102.8339 77.2339,101.0983 83.3085,97.1932 91.1186,86.3458 93.2881,78.9695 93.722,63.7831 89.3831,49.8983 85.0441,44.2576 79.4034,39.4847 68.122,33.8441 57.7085,32.9763 52.9356,34.278" stroke="#00007f" stroke-width="2" /><polyline fill="none" points="75.9322,36.8814 104.1356,8.678 100.2305,47.7288 96.3254,57.7085 88.9492,68.122" stroke="#0000fe" stroke-width="2" /><polyline fill="none" points="40.7864,42.0881 23.4305,26.9017 8.678,16.4881 12.5831,48.5966 17.3559,62.9153 22.5627,68.5559" stroke="#0060ff" stroke-width="2" /><polyline fill="none" points="63.7831,81.139 59.878,81.5729 61.1797,80.7051 67.6881,79.8373 59.0102,83.3085 65.0847,81.139 62.0475,81.139 62.0475,80.2712 65.9525,80.2712" stroke="#00d4ff" stroke-width="2" /><polyline fill="none" points="52.5017,84.6102 52.5017,89.3831 56.4068,92.4203 61.6136,92.8542 65.5186,88.5153 67.6881,90.6847 71.1593,91.1186 75.4983,84.6102 75.0644,81.5729 72.0271,79.8373" stroke="#4cffaa" stroke-width="2" /><polyline fill="none" points="69.4237,80.7051 116.7186,65.0847" stroke="#aaff4c" stroke-width="2" /><polyline fill="none" points="66.8203,84.1763 80.7051,79.8373 119.322,73.3288" stroke="#ffe500" stroke-width="2" /><polyline fill="none" points="55.9729,83.3085 49.4644,83.3085 38.6169,87.2136 22.9966,96.3254 13.8847,104.5695" stroke="#ff7a00" stroke-width="2" /><polyline fill="none" points="52.5017,86.7797 44.2576,88.5153 33.4102,95.8915 27.7695,102.4 19.0915,115.4169" stroke="#fe1200" stroke-width="2" /><polyline fill="none" points="74.6305,49.4644 71.5932,49.0305 69.8576,50.7661 68.122,56.4068 68.5559,61.6136 72.8949,64.6508 77.2339,64.6508 79.8373,62.4814 82.4407,57.7085 82.4407,52.0678 81.139,49.8983 75.9322,49.0305 71.1593,52.9356" stroke="#7f0000" stroke-width="2" /></svg>