<?xml version="1.0" encoding="utf-8" ?>
<svg baseProfile="tiny" height="128" version="1.2" viewBox="0,0,128,128" width="128" xmlns="http://www.w3.org/2000/svg" xmlns:ev="http://www.w3.org/2001/xml-events" xmlns:xlink="http://www.w3.org/1999/xlink"><defs /><polyline fill="none" points="43.9728,26.9932 41.7959,26.1224 32.2177,29.6054 25.2517,36.1361 21.7687,41.7959 20.0272,51.8095 20.4626,58.7755 22.6395,65.7415 26.9932,72.7075 36.1361,78.3673 42.6667,78.8027 50.5034,77.0612 61.8231,69.6599 66.6122,60.517 69.2245,45.2789 66.1769,35.7007 58.3401,29.6054 45.7143,28.7347" stroke="#00007f" stroke-width="2" /><polyline fill="none" points="28.2993,37.0068 25.6871,33.5238 25.2517,28.7347 28.2993,10.8844 40.9252,29.1701 45.2789,28.7347" stroke="#0000fe" stroke-width="2" /><polyline fill="none" points="55.2925,30.9116 59.2109,19.5918 66.1769,8.7075 67.483,14.8027 67.483,38.7483" stroke="#0060ff" stroke-width="2" /><polyline fill="none" points="37.4422,77.4966 35.7007,77.0612 32.6531,80.1088 29.6054,87.9456 29.6054,97.5238 33.0884,106.6667 37.4422,112.7619 43.5374,116.2449 49.1973,117.551 56.5986,116.6803 62.6939,114.068 68.3537,108.8435 70.5306,102.3129 70.5306,96.6531 68.7891,87.9456 65.3061,80.9796 60.9524,75.7551 55.2925,71.8367" stroke="#00d4ff" stroke-width="2" /><polyline fill="none" points="70.0952,88.381 77.932,67.483 84.0272,57.9048 93.1701,50.5034 97.0884,49.1973 100.5714,51.3741 101.4422,56.1633 99.2653,63.5646 95.7823,69.6599 77.0612,91.4286 69.2245,102.7483" stroke="#4cffaa" stroke-width="2" /><polyline fill="none" points="36.5714,86.2041 32.6531,85.7687 21.7687,90.5578 16.9796,94.4762 14.3673,100.5714 16.1088,101.0068 20.898,99.7007 40.4898,89.2517" stroke="#aaff4c" stroke-width="2" /><polyline fill="none" points="53.551,88.381 45.7143,99.2653 43.9728,104.9252 45.2789,107.102 55.2925,99.2653 67.9184,84.4626" stroke="#ffe500" stroke-width="2" /><polyline fill="none" points="42.6667,111.0204 35.2653,111.0204 30.0408,112.7619 26.1224,116.6803 27.8639,118.8571 34.3946,119.2925 50.5034,114.9388" stroke="#ff7a00" stroke-width="2" /><polyline fill="none" points="59.2109,107.9728 68.3537,104.9252 74.8844,106.6667 77.932,109.7143 75.7551,112.3265 67.0476,115.3741 57.034,114.5034" stroke="#fe1200" stroke-width="2" /><polyline fill="none" points="35.7007,59.2109 28.7347,55.7279 21.3333,54.4218 8.7075,57.034" stroke="#7f0000" stroke-width="2" /></svg>