<?xml version="1.0" encoding="utf-8" ?>
<svg baseProfile="tiny" height="128" version="1.2" viewBox="0,0,128,128" width="128" xmlns="http://www.w3.org/2000/svg" xmlns:ev="http://www.w3.org/2001/xml-events" xmlns:xlink="http://www.w3.org/1999/xlink"><defs /><polyline fill="none" points="65.9525,36.4475 59.0102,36.4475 52.0678,43.3898 49.8983,50.3322 49.8983,58.5763 52.5017,67.2542 61.1797,74.1966 70.7254,76.8 98.061,77.6678 101.9661,77.2339 103.2678,73.3288 103.2678,55.1051 100.6644,42.0881 94.1559,34.278 90.6847,32.5424 78.5356,30.8068 67.6881,30.8068 59.878,33.4102 59.0102,15.6203 62.4814,8.678 65.9525,9.1119 82.8746,29.0712 88.0814,29.0712 103.7017,20.3932 105.8712,23.8644 103.2678,36.4475" stroke="#00007f" stroke-width="2" /><polyline fill="none" points="94.1559,47.2949 115.8508,49.0305" stroke="#004cff" stroke-width="2" /><polyline fill="none" points="96.7593,58.1424 119.322,65.0847" stroke="#29ffcd" stroke-width="2" /><polyline fill="none" points="54.2373,52.5017 29.939,51.6339 17.3559,52.9356 8.678,55.9729" stroke="#cdff29" stroke-width="2" /><polyline fill="none" points="51.2,59.4441 39.4847,69.8576" stroke="#ff6700" stroke-width="2" /><polyline fill="none" points="60.3119,43.3898 63.3492,45.5593" stroke="#7f0000" stroke-width="2" /></svg>