<?xml version="1.0" encoding="utf-8" ?>
<svg baseProfile="tiny" height="128" version="1.2" viewBox="0,0,128,128" width="128" xmlns="http://www.w3.org/2000/svg" xmlns:ev="http://www.w3.org/2001/xml-events" xmlns:xlink="http://www.w3.org/1999/xlink"><defs /><polyline fill="none" points="42.522,23.4305 39.0508,22.9966 33.8441,26.0339 22.9966,32.5424 13.4508,41.2203 8.678,48.5966 9.1119,56.8407 13.8847,57.2746 18.2237,55.9729 22.9966,52.5017 47.2949,39.4847 49.0305,32.5424 47.2949,27.7695 42.522,22.9966 38.1831,21.261" stroke="#00007f" stroke-width="2" /><polyline fill="none" points="22.5627,36.0136 23.4305,9.9797 26.0339,10.4136 27.7695,14.3186 30.3729,29.5051 48.1627,8.678 48.5966,14.7525 42.522,36.4475 42.522,41.6542" stroke="#0000ff" stroke-width="2" /><polyline fill="none" points="49.4644,38.1831 61.1797,42.9559 99.3627,39.9186 101.0983,43.8237 95.4576,51.2 85.9119,59.0102 77.6678,61.6136 67.6881,61.6136 49.8983,53.8034 40.7864,46.4271" stroke="#0080ff" stroke-width="2" /><polyline fill="none" points="51.6339,57.2746 46.4271,84.6102" stroke="#15ffe1" stroke-width="2" /><polyline fill="none" points="78.5356,60.3119 78.1017,84.6102" stroke="#7cff79" stroke-width="2" /><polyline fill="none" points="101.0983,41.6542 106.739,39.4847 115.4169,31.6746 119.322,24.7322 118.4542,17.3559 105.0034,12.1492" stroke="#e4ff12" stroke-width="2" /><polyline fill="none" points="22.1288,42.9559 22.1288,42.9559" stroke="#ff9400" stroke-width="2" /><polyline fill="none" points="14.3186,45.9932 17.7898,49.0305 24.2983,49.0305 42.522,36.0136" stroke="#ff1d00" stroke-width="2" /><polyline fill="none" points="26.4678,36.8814 25.1661,41.6542 29.5051,36.8814 26.4678,35.1458 22.5627,36.4475" stroke="#7f0000" stroke-width="2" /></svg>