<?xml version="1.0" encoding="utf-8" ?>
<svg baseProfile="tiny" height="128" version="1.2" viewBox="0,0,128,128" width="128" xmlns="http://www.w3.org/2000/svg" xmlns:ev="http://www.w3.org/2001/xml-events" xmlns:xlink="http://www.w3.org/1999/xlink"><defs /><polyline fill="none" points="10.4136,35.1458 8.678,31.6746 8.678,22.5627 9.9797,14.7525 12.1492,8.678 14.7525,8.678 29.5051,30.3729 52.9356,20.3932 77.2339,18.6576 81.139,19.9593 87.6475,24.7322 91.5525,33.4102 95.0237,32.5424 99.7966,27.7695 119.322,16.922 107.6068,39.4847 101.5322,64.2169 80.7051,100.2305 77.2339,104.1356 64.6508,110.2102 52.0678,114.1153 43.3898,115.4169 31.6746,114.9831 25.1661,109.7763 21.6949,105.4373 18.2237,96.3254 14.3186,77.2339 14.3186,41.6542" stroke="#00007f" stroke-width="2" /><polyline fill="none" points="59.4441,51.2 59.4441,51.2" stroke="#0028ff" stroke-width="2" /><polyline fill="none" points="34.278,67.2542 19.0915,69.4237" stroke="#00d4ff" stroke-width="2" /><polyline fill="none" points="70.2915,61.6136 74.6305,62.4814 89.8169,60.3119" stroke="#7cff79" stroke-width="2" /><polyline fill="none" points="57.2746,85.0441 53.8034,86.7797 48.1627,103.2678 52.5017,102.8339 62.4814,97.1932 61.1797,93.722 57.2746,89.8169" stroke="#ffe500" stroke-width="2" /><polyline fill="none" points="63.3492,86.7797 113.2475,72.8949" stroke="#ff4600" stroke-width="2" /><polyline fill="none" points="66.8203,92.4203 70.2915,94.5898 105.0034,104.5695" stroke="#7f0000" stroke-width="2" /></svg>