<?xml version="1.0" encoding="utf-8" ?>
<svg baseProfile="tiny" height="128" version="1.2" viewBox="0,0,128,128" width="128" xmlns="http://www.w3.org/2000/svg" xmlns:ev="http://www.w3.org/2001/xml-events" xmlns:xlink="http://www.w3.org/1999/xlink"><defs /><polyline fill="none" points="105.0034,20.8271 106.3051,10.4136 109.3424,8.678 111.5119,11.2814 116.7186,24.7322 117.1525,32.5424" stroke="#00007f" stroke-width="2" /><polyline fill="none" points="105.8712,22.1288 72.8949,21.6949 57.7085,23.8644 55.1051,22.9966 50.3322,16.4881 47.7288,9.5458 45.1254,9.5458 38.6169,25.6 38.6169,36.0136 40.7864,47.7288 41.6542,65.0847 42.9559,68.9898 51.2,78.9695 57.7085,81.139 88.5153,81.139 93.722,80.2712 102.8339,74.1966 105.8712,68.9898 108.0407,50.7661 114.9831,29.939" stroke="#0000ff" stroke-width="2" /><polyline fill="none" points="72.461,41.6542 67.6881,45.9932 67.6881,49.0305 72.461,52.5017 75.4983,52.9356 79.4034,50.7661 80.2712,48.1627 79.4034,41.2203" stroke="#0080ff" stroke-width="2" /><polyline fill="none" points="85.478,45.5593 119.322,36.4475 118.0203,39.4847" stroke="#15ffe1" stroke-width="2" /><polyline fill="none" points="95.8915,52.0678 103.2678,50.3322 118.4542,51.6339" stroke="#7cff79" stroke-width="2" /><polyline fill="none" points="42.522,39.0508 8.678,32.9763" stroke="#e4ff12" stroke-width="2" /><polyline fill="none" points="61.6136,47.2949 34.278,48.1627" stroke="#ff9400" stroke-width="2" /><polyline fill="none" points="46.861,39.0508 66.3864,38.1831" stroke="#ff1d00" stroke-width="2" /><polyline fill="none" points="88.9492,28.2034 95.0237,29.5051" stroke="#7f0000" stroke-width="2" /></svg>