<?xml version="1.0" encoding="utf-8" ?>
<svg baseProfile="tiny" height="128" version="1.2" viewBox="0,0,128,128" width="128" xmlns="http://www.w3.org/2000/svg" xmlns:ev="http://www.w3.org/2001/xml-events" xmlns:xlink="http://www.w3.org/1999/xlink"><defs /><polyline fill="none" points="45.1254,14.3186 39.0508,14.7525 33.4102,19.9593 31.6746,27.7695 32.9763,31.2407 38.1831,35.1458 48.5966,35.5797 52.9356,31.2407 52.0678,22.1288 46.861,16.0542 39.9186,15.6203" stroke="#00007f" stroke-width="2" /><polyline fill="none" points="36.4475,17.7898 39.4847,9.1119 42.0881,15.6203" stroke="#0000b6" stroke-width="2" /><polyline fill="none" points="46.861,18.6576 53.8034,8.678 52.0678,19.9593" stroke="#0000f1" stroke-width="2" /><polyline fill="none" points="94.1559,25.6 85.478,22.5627 75.0644,21.6949 68.9898,22.5627 56.8407,26.9017 48.5966,32.1085 47.2949,36.0136 51.2,39.9186 57.7085,43.3898 72.8949,45.5593 85.9119,45.1254 97.6271,42.522 104.5695,39.0508 105.8712,36.8814 105.4373,31.6746 100.6644,26.4678 92.8542,22.9966 82.0068,22.1288" stroke="#0018ff" stroke-width="2" /><polyline fill="none" points="59.0102,44.6915 59.4441,48.1627 61.1797,44.6915" stroke="#004cff" stroke-width="2" /><polyline fill="none" points="65.5186,44.6915 65.5186,47.7288 68.5559,45.5593" stroke="#0080ff" stroke-width="2" /><polyline fill="none" points="88.0814,43.3898 89.3831,47.2949 91.5525,43.8237" stroke="#00b0ff" stroke-width="2" /><polyline fill="none" points="95.0237,42.522 96.3254,44.6915 97.1932,41.2203" stroke="#00e4f7" stroke-width="2" /><polyline fill="none" points="105.4373,32.1085 110.6441,43.3898 115.8508,48.1627 119.322,47.2949 118.8881,43.3898 116.7186,39.4847 102.4,31.6746" stroke="#29ffcd" stroke-width="2" /><polyline fill="none" points="39.4847,21.6949 39.0508,23.4305" stroke="#53ffa3" stroke-width="2" /><polyline fill="none" points="44.6915,22.5627 44.2576,23.8644" stroke="#7cff79" stroke-width="2" /><polyline fill="none" points="42.0881,26.4678 39.0508,27.3356 37.7492,32.5424 42.0881,33.4102 45.9932,29.939 45.5593,26.9017 41.2203,25.1661" stroke="#a3ff53" stroke-width="2" /><polyline fill="none" points="40.7864,25.1661 40.3525,30.3729 36.4475,32.1085" stroke="#cdff29" stroke-width="2" /><polyline fill="none" points="42.0881,26.0339 40.7864,32.1085 43.3898,32.1085" stroke="#f7f400" stroke-width="2" /><polyline fill="none" points="44.6915,28.6373 55.539,22.5627" stroke="#ffc400" stroke-width="2" /><polyline fill="none" points="45.1254,30.3729 62.0475,25.1661" stroke="#ff9400" stroke-width="2" /><polyline fill="none" points="46.4271,32.1085 48.5966,32.1085 51.6339,36.0136" stroke="#ff6700" stroke-width="2" /><polyline fill="none" points="33.8441,25.1661 27.3356,21.261 25.6,18.6576" stroke="#ff3700" stroke-width="2" /><polyline fill="none" points="39.4847,28.6373 26.0339,27.7695" stroke="#f10700" stroke-width="2" /><polyline fill="none" points="33.4102,34.7119 23.8644,34.7119" stroke="#b60000" stroke-width="2" /><polyline fill="none" points="9.1119,62.4814 8.678,59.0102" stroke="#7f0000" stroke-width="2" /></svg>