<?xml version="1.0" encoding="utf-8" ?>
<svg baseProfile="tiny" height="128" version="1.2" viewBox="0,0,128,128" width="128" xmlns="http://www.w3.org/2000/svg" xmlns:ev="http://www.w3.org/2001/xml-events" xmlns:xlink="http://www.w3.org/1999/xlink"><defs /><polyline fill="none" points="47.7288,39.4847 26.0339,51.2 12.1492,63.3492 8.678,74.1966 8.678,87.6475 10.8475,97.1932 15.6203,104.5695 26.4678,113.6814 36.0136,117.5864 48.5966,119.322 59.0102,119.322 66.3864,117.5864 75.9322,111.5119 85.0441,102.4 93.2881,88.5153 95.8915,77.2339 95.8915,67.6881 89.8169,55.1051 83.3085,49.4644 74.6305,45.9932 50.7661,44.2576 40.3525,48.1627" stroke="#00007f" stroke-width="2" /><polyline fill="none" points="17.7898,64.6508 16.4881,25.6 19.5254,16.4881 22.5627,15.1864 27.3356,28.2034 42.522,50.3322" stroke="#0028ff" stroke-width="2" /><polyline fill="none" points="72.0271,50.7661 79.8373,32.5424 94.1559,8.678 94.1559,59.0102" stroke="#00d4ff" stroke-width="2" /><polyline fill="none" points="32.5424,71.1593 35.5797,68.9898 48.1627,66.3864" stroke="#7cff79" stroke-width="2" /><polyline fill="none" points="63.3492,64.6508 73.7627,66.3864 75.4983,69.4237" stroke="#ffe500" stroke-width="2" /><polyline fill="none" points="57.2746,87.6475 56.8407,96.3254" stroke="#ff4600" stroke-width="2" /><polyline fill="none" points="31.6746,91.5525 34.7119,98.9288 41.6542,104.1356 59.4441,106.739 66.8203,103.2678 69.8576,99.7966 73.7627,87.6475" stroke="#7f0000" stroke-width="2" /></svg>