<?xml version="1.0" encoding="utf-8" ?>
<svg baseProfile="tiny" height="128" version="1.2" viewBox="0,0,128,128" width="128" xmlns="http://www.w3.org/2000/svg" xmlns:ev="http://www.w3.org/2001/xml-events" xmlns:xlink="http://www.w3.org/1999/xlink"><defs /><polyline fill="none" points="78.5356,36.0136 46.4271,36.8814 37.7492,40.7864 35.1458,43.8237 33.4102,48.1627 32.1085,72.461 33.8441,78.5356 37.3153,84.6102 45.9932,92.4203 54.6712,97.1932 62.0475,99.3627 87.6475,100.6644 98.061,96.7593 108.9085,87.6475 116.2847,77.6678 119.322,65.9525 118.4542,54.2373 110.2102,44.2576 98.9288,36.8814 95.0237,36.0136 85.9119,34.278 68.9898,34.278" stroke="#00007f" stroke-width="2" /><polyline fill="none" points="45.5593,35.1458 8.678,14.7525 20.3932,28.6373 37.3153,45.9932" stroke="#004cff" stroke-width="2" /><polyline fill="none" points="92.8542,33.4102 106.3051,23.4305 112.8136,14.7525 114.5492,9.9797 117.1525,8.678 118.8881,13.8847 118.8881,29.0712 114.5492,49.0305" stroke="#29ffcd" stroke-width="2" /><polyline fill="none" points="81.139,68.9898 87.2136,68.9898 105.4373,63.7831" stroke="#cdff29" stroke-width="2" /><polyline fill="none" points="88.0814,72.8949 94.5898,73.7627 109.7763,80.2712" stroke="#ff6700" stroke-width="2" /><polyline fill="none" points="65.9525,65.0847 39.9186,64.2169" stroke="#7f0000" stroke-width="2" /></svg>