<?xml version="1.0" encoding="utf-8" ?>
<svg baseProfile="tiny" height="128" version="1.2" viewBox="0,0,128,128" width="128" xmlns="http://www.w3.org/2000/svg" xmlns:ev="http://www.w3.org/2001/xml-events" xmlns:xlink="http://www.w3.org/1999/xlink"><defs /><polyline fill="none" points="22.1288,28.2034 10.4136,32.1085 9.1119,33.8441 9.9797,36.0136 17.3559,39.4847 38.1831,42.0881 56.4068,41.6542 76.3661,39.4847 80.7051,36.8814 77.2339,33.4102 66.8203,30.3729 53.8034,29.0712 13.8847,27.7695" stroke="#00007f" stroke-width="2" /><polyline fill="none" points="18.2237,39.9186 10.4136,50.3322 8.678,54.2373 9.5458,55.1051 12.5831,55.1051 15.6203,52.9356 21.261,40.7864" stroke="#0000ff" stroke-width="2" /><polyline fill="none" points="22.1288,40.3525 24.2983,56.4068 26.0339,58.1424 28.6373,55.9729 29.0712,52.9356 28.6373,39.4847" stroke="#0080ff" stroke-width="2" /><polyline fill="none" points="67.6881,39.4847 76.3661,50.3322 83.3085,55.1051 84.6102,53.3695 84.6102,50.7661 72.0271,38.1831" stroke="#15ffe1" stroke-width="2" /><polyline fill="none" points="65.9525,39.9186 63.7831,52.5017 62.0475,54.2373 59.4441,54.2373 57.2746,50.7661 59.878,41.2203" stroke="#7cff79" stroke-width="2" /><polyline fill="none" points="74.6305,32.9763 75.4983,36.0136 80.2712,38.1831 83.7424,35.1458 84.1763,31.2407 79.8373,26.9017 75.0644,27.3356 74.1966,36.8814 77.2339,40.7864" stroke="#e4ff12" stroke-width="2" /><polyline fill="none" points="77.6678,34.7119 78.9695,35.1458" stroke="#ff9400" stroke-width="2" /><polyline fill="none" points="87.2136,22.9966 92.8542,10.8475 95.4576,14.7525 99.7966,10.4136 102.8339,19.5254" stroke="#ff1d00" stroke-width="2" /><polyline fill="none" points="109.3424,19.9593 114.9831,17.3559 117.5864,15.1864 116.7186,10.8475 113.2475,8.678 113.2475,12.1492 116.7186,14.7525 119.322,20.3932" stroke="#7f0000" stroke-width="2" /></svg>