<?xml version="1.0" encoding="utf-8" ?>
<svg baseProfile="tiny" height="128" version="1.2" viewBox="0,0,128,128" width="128" xmlns="http://www.w3.org/2000/svg" xmlns:ev="http://www.w3.org/2001/xml-events" xmlns:xlink="http://www.w3.org/1999/xlink"><defs /><polyline fill="none" points="91.5525,36.8814 92.8542,18.6576 89.3831,24.7322 77.6678,32.1085 71.5932,25.1661 47.7288,35.5797 46.861,16.922 41.6542,10.4136 36.8814,8.678 34.7119,9.5458 27.3356,23.4305 24.7322,32.1085 24.7322,37.7492 26.9017,43.3898 26.9017,57.2746 24.2983,97.6271 86.3458,82.4407 96.3254,62.9153 101.9661,42.522 98.4949,38.1831 86.7797,36.8814" stroke="#00007f" stroke-width="2" /><polyline fill="none" points="60.3119,61.1797 58.1424,62.0475" stroke="#0000fe" stroke-width="2" /><polyline fill="none" points="60.3119,59.0102 66.3864,59.878 100.2305,50.3322 118.0203,48.1627" stroke="#0060ff" stroke-width="2" /><polyline fill="none" points="70.2915,57.2746 78.9695,61.1797 89.3831,62.9153 109.7763,62.9153 107.1729,65.0847" stroke="#00d4ff" stroke-width="2" /><polyline fill="none" points="75.9322,59.878 119.322,56.8407" stroke="#4cffaa" stroke-width="2" /><polyline fill="none" points="62.4814,60.7458 21.261,59.878 19.9593,58.5763" stroke="#aaff4c" stroke-width="2" /><polyline fill="none" points="54.6712,60.3119 29.5051,72.461 9.9797,75.0644 8.678,73.7627" stroke="#ffe500" stroke-width="2" /><polyline fill="none" points="50.3322,60.7458 37.3153,66.8203 17.7898,65.5186 14.7525,66.8203" stroke="#ff7a00" stroke-width="2" /><polyline fill="none" points="68.5559,41.2203 70.2915,45.5593 68.9898,47.2949" stroke="#fe1200" stroke-width="2" /><polyline fill="none" points="58.1424,41.6542 58.1424,49.8983" stroke="#7f0000" stroke-width="2" /></svg>