<?xml version="1.0" encoding="utf-8" ?>
<svg baseProfile="tiny" height="128" version="1.2" viewBox="0,0,128,128" width="128" xmlns="http://www.w3.org/2000/svg" xmlns:ev="http://www.w3.org/2001/xml-events" xmlns:xlink="http://www.w3.org/1999/xlink"><defs /><polyline fill="none" points="52.9356,35.5797 43.3898,38.1831 29.5051,50.3322 26.4678,57.7085 24.7322,75.4983 24.7322,89.8169 26.4678,93.722 39.0508,106.3051 48.5966,110.2102 62.4814,111.5119 84.6102,103.7017 92.4203,95.8915 94.5898,89.8169 94.5898,72.0271 93.2881,64.2169 90.2508,57.7085 79.4034,42.9559 71.5932,35.1458 59.4441,30.3729 55.539,30.3729 51.2,35.1458" stroke="#00007f" stroke-width="2" /><polyline fill="none" points="71.1593,35.1458 73.3288,29.939 92.8542,8.678 91.5525,36.4475 87.2136,56.8407" stroke="#0010ff" stroke-width="2" /><polyline fill="none" points="41.6542,35.1458 30.3729,16.922 26.0339,12.5831 25.1661,26.0339 31.2407,55.9729" stroke="#00a4ff" stroke-width="2" /><polyline fill="none" points="79.4034,67.6881 119.322,37.7492" stroke="#3fffb7" stroke-width="2" /><polyline fill="none" points="78.9695,75.0644 84.1763,71.5932 98.9288,67.2542 113.6814,66.3864" stroke="#b7ff3f" stroke-width="2" /><polyline fill="none" points="84.6102,84.6102 108.4746,101.5322" stroke="#ffb900" stroke-width="2" /><polyline fill="none" points="41.6542,66.3864 19.0915,56.4068 8.678,49.8983" stroke="#ff3000" stroke-width="2" /><polyline fill="none" points="42.0881,75.4983 25.1661,76.3661 16.4881,79.8373" stroke="#7f0000" stroke-width="2" /></svg>