<?xml version="1.0" encoding="utf-8" ?>
<svg baseProfile="tiny" height="128" version="1.2" viewBox="0,0,128,128" width="128" xmlns="http://www.w3.org/2000/svg" xmlns:ev="http://www.w3.org/2001/xml-events" xmlns:xlink="http://www.w3.org/1999/xlink"><defs /><polyline fill="none" points="50.7661,52.0678 42.0881,42.9559 35.5797,39.0508 27.7695,39.0508 17.3559,48.5966 12.1492,62.9153 9.9797,85.9119 11.7153,93.2881 16.0542,100.2305 21.261,105.8712 44.6915,117.5864 61.6136,119.322 77.6678,118.0203 84.6102,114.9831 95.8915,107.1729 102.4,97.1932 104.1356,89.8169 103.7017,64.2169 94.1559,50.3322 73.7627,38.1831 54.6712,34.7119" stroke="#00007f" stroke-width="2" /><polyline fill="none" points="15.6203,57.7085 9.5458,32.9763 8.678,18.2237 10.4136,15.6203 16.4881,15.1864 44.6915,43.3898" stroke="#004cff" stroke-width="2" /><polyline fill="none" points="65.0847,38.1831 68.122,33.8441 75.9322,13.4508 80.7051,8.678 83.3085,8.678 85.478,9.9797 88.5153,22.9966 88.5153,52.0678" stroke="#29ffcd" stroke-width="2" /><polyline fill="none" points="42.522,72.0271 39.0508,75.9322 39.0508,81.139 41.2203,82.8746 43.8237,83.3085 46.861,80.2712 51.2,70.7254" stroke="#cdff29" stroke-width="2" /><polyline fill="none" points="75.4983,75.4983 78.1017,78.5356 80.7051,75.0644" stroke="#ff6700" stroke-width="2" /><polyline fill="none" points="47.7288,91.9864 48.1627,95.8915 56.8407,101.0983 64.2169,103.7017 71.1593,103.7017 75.9322,98.061" stroke="#7f0000" stroke-width="2" /></svg>