<?xml version="1.0" encoding="utf-8" ?>
<svg baseProfile="tiny" height="128" version="1.2" viewBox="0,0,128,128" width="128" xmlns="http://www.w3.org/2000/svg" xmlns:ev="http://www.w3.org/2001/xml-events" xmlns:xlink="http://www.w3.org/1999/xlink"><defs /><polyline fill="none" points="13.8847,57.2746 14.7525,77.2339 17.7898,90.6847 24.2983,99.7966 34.278,105.8712 49.8983,108.9085 75.9322,108.0407 88.5153,101.9661 99.7966,91.9864 104.5695,84.6102 105.8712,80.2712 105.8712,55.539 99.3627,41.2203 100.6644,37.3153 119.322,15.6203 111.078,15.1864 95.8915,21.261 78.5356,30.8068 48.1627,29.939 37.7492,34.7119 25.6,19.9593 9.5458,8.678 8.678,11.7153 9.1119,18.2237 16.0542,35.5797 20.8271,39.9186" stroke="#00007f" stroke-width="2" /><polyline fill="none" points="36.8814,54.6712 43.8237,49.8983 58.5763,49.4644" stroke="#0000ff" stroke-width="2" /><polyline fill="none" points="36.8814,59.878 41.2203,56.8407 52.5017,56.4068 56.8407,49.4644" stroke="#0080ff" stroke-width="2" /><polyline fill="none" points="74.1966,51.2 83.3085,51.2 91.1186,58.5763" stroke="#15ffe1" stroke-width="2" /><polyline fill="none" points="73.3288,52.5017 73.7627,55.1051 76.8,58.1424 83.7424,58.5763 91.9864,56.4068 96.3254,52.5017" stroke="#7cff79" stroke-width="2" /><polyline fill="none" points="59.878,65.0847 69.4237,65.9525 64.2169,72.0271" stroke="#e4ff12" stroke-width="2" /><polyline fill="none" points="59.878,65.0847 59.4441,70.2915 62.9153,73.7627 67.2542,74.6305" stroke="#ff9400" stroke-width="2" /><polyline fill="none" points="64.2169,73.7627 65.9525,77.6678 67.2542,84.6102" stroke="#ff1d00" stroke-width="2" /><polyline fill="none" points="65.0847,84.1763 65.0847,84.1763" stroke="#7f0000" stroke-width="2" /></svg>