<?xml version="1.0" encoding="utf-8" ?>
<svg baseProfile="tiny" height="128" version="1.2" viewBox="0,0,128,128" width="128" xmlns="http://www.w3.org/2000/svg" xmlns:ev="http://www.w3.org/2001/xml-events" xmlns:xlink="http://www.w3.org/1999/xlink"><defs /><polyline fill="none" points="35.5797,19.5254 34.7119,10.4136 32.1085,8.678 29.939,8.678 26.9017,11.7153 24.2983,15.1864 23.4305,18.6576" stroke="#00007f" stroke-width="2" /><polyline fill="none" points="36.0136,19.0915 37.7492,13.0169 41.6542,9.1119 44.2576,13.0169 45.1254,20.8271 46.861,19.9593 50.7661,21.261 53.3695,27.3356 53.3695,32.9763 50.3322,38.1831 41.6542,45.9932 37.3153,48.1627 29.939,47.7288 23.4305,38.1831 21.261,25.6 22.1288,17.7898 23.4305,22.1288" stroke="#0000f1" stroke-width="2" /><polyline fill="none" points="25.6,29.5051 16.4881,29.5051 8.678,31.6746" stroke="#004cff" stroke-width="2" /><polyline fill="none" points="28.6373,36.0136 9.9797,43.8237" stroke="#00b0ff" stroke-width="2" /><polyline fill="none" points="28.2034,41.6542 13.4508,52.0678" stroke="#29ffcd" stroke-width="2" /><polyline fill="none" points="42.9559,26.4678 52.0678,26.9017" stroke="#7cff79" stroke-width="2" /><polyline fill="none" points="49.4644,32.5424 54.2373,32.1085" stroke="#cdff29" stroke-width="2" /><polyline fill="none" points="33.8441,37.3153 52.9356,42.522" stroke="#ffc400" stroke-width="2" /><polyline fill="none" points="53.3695,25.1661 78.1017,25.6 118.0203,31.6746 118.4542,47.7288 117.5864,59.0102 119.322,63.7831 109.7763,54.6712 115.4169,43.3898 107.6068,47.2949 104.1356,52.5017 100.6644,48.5966 101.0983,39.9186 88.9492,52.0678 82.8746,50.3322 79.8373,45.1254" stroke="#ff6700" stroke-width="2" /><polyline fill="none" points="78.1017,41.2203 78.1017,41.2203" stroke="#f10700" stroke-width="2" /><polyline fill="none" points="80.2712,45.9932 80.2712,43.3898 62.4814,63.3492 51.6339,49.8983 52.0678,42.522" stroke="#7f0000" stroke-width="2" /></svg>