<?xml version="1.0" encoding="utf-8" ?>
<svg baseProfile="tiny" height="128" version="1.2" viewBox="0,0,128,128" width="128" xmlns="http://www.w3.org/2000/svg" xmlns:ev="http://www.w3.org/2001/xml-events" xmlns:xlink="http://www.w3.org/1999/xlink"><defs /><polyline fill="none" points="68.122,45.1254 67.2542,40.7864 64.2169,36.4475 61.1797,35.1458 49.8983,35.5797 35.1458,44.6915 26.9017,52.5017 19.9593,63.3492 16.0542,75.0644 14.3186,88.0814 14.3186,100.6644 16.0542,109.3424 21.261,114.9831 29.0712,118.0203 37.3153,119.322 59.0102,117.5864 79.4034,109.3424 86.7797,103.7017 92.8542,95.0237 96.7593,85.478 98.061,62.9153 95.4576,52.5017 90.2508,43.8237 83.7424,38.6169 75.9322,35.1458 55.1051,32.5424" stroke="#00007f" stroke-width="2" /><polyline fill="none" points="15.1864,65.5186 15.6203,59.0102 8.678,33.4102 8.678,22.1288 12.5831,21.6949 23.8644,37.7492 29.939,40.7864" stroke="#0000ff" stroke-width="2" /><polyline fill="none" points="73.7627,30.8068 82.8746,10.4136 85.0441,8.678 89.3831,17.3559 92.4203,29.5051 92.8542,39.0508" stroke="#0080ff" stroke-width="2" /><polyline fill="none" points="56.8407,78.5356 54.6712,79.8373 50.7661,79.4034 46.4271,76.8 46.4271,74.6305 50.7661,72.8949 60.3119,72.8949 59.878,76.8 58.5763,79.4034" stroke="#15ffe1" stroke-width="2" /><polyline fill="none" points="57.2746,79.8373 55.1051,82.0068 49.4644,100.6644 46.861,103.2678 42.9559,105.0034 37.7492,105.0034 32.5424,100.6644" stroke="#7cff79" stroke-width="2" /><polyline fill="none" points="58.1424,79.4034 59.4441,82.4407 66.3864,87.2136 75.4983,89.3831 80.7051,85.0441 82.0068,74.6305" stroke="#e4ff12" stroke-width="2" /><polyline fill="none" points="30.3729,65.0847 30.3729,65.0847" stroke="#ff9400" stroke-width="2" /><polyline fill="none" points="69.4237,52.0678 69.4237,52.0678" stroke="#ff1d00" stroke-width="2" /><polyline fill="none" points="27.3356,65.5186 26.4678,57.7085 31.6746,55.9729 36.0136,57.2746 36.4475,59.4441 32.5424,63.3492" stroke="#7f0000" stroke-width="2" /></svg>