<?xml version="1.0" encoding="utf-8" ?>
<svg baseProfile="tiny" height="128" version="1.2" viewBox="0,0,128,128" width="128" xmlns="http://www.w3.org/2000/svg" xmlns:ev="http://www.w3.org/2001/xml-events" xmlns:xlink="http://www.w3.org/1999/xlink"><defs /><polyline fill="none" points="29.939,26.4678 22.9966,27.3356 20.3932,32.5424 22.5627,42.0881 25.1661,47.2949 26.9017,49.0305 34.278,50.7661 45.9932,49.4644 46.4271,43.8237 44.6915,41.2203 37.7492,36.0136 32.5424,26.9017 29.939,26.9017" stroke="#00007f" stroke-width="2" /><polyline fill="none" points="29.939,26.9017 38.6169,19.5254 37.3153,30.8068 34.7119,40.3525" stroke="#0000f1" stroke-width="2" /><polyline fill="none" points="22.5627,27.3356 13.8847,24.2983 8.678,25.1661 18.6576,60.3119" stroke="#004cff" stroke-width="2" /><polyline fill="none" points="23.8644,34.7119 23.8644,34.278" stroke="#00b0ff" stroke-width="2" /><polyline fill="none" points="28.2034,33.4102 29.939,33.4102" stroke="#29ffcd" stroke-width="2" /><polyline fill="none" points="27.3356,38.1831 31.6746,35.5797" stroke="#7cff79" stroke-width="2" /><polyline fill="none" points="40.3525,36.0136 59.4441,21.261 68.9898,16.0542 79.8373,13.0169 88.0814,15.1864 92.8542,26.9017 82.0068,55.1051 75.0644,57.7085 59.4441,56.4068" stroke="#cdff29" stroke-width="2" /><polyline fill="none" points="59.4441,56.4068 22.1288,45.9932" stroke="#ffc400" stroke-width="2" /><polyline fill="none" points="87.2136,13.0169 98.061,10.8475 114.5492,13.4508 117.5864,12.1492 119.322,8.678" stroke="#ff6700" stroke-width="2" /><polyline fill="none" points="77.6678,45.9932 79.4034,82.4407" stroke="#f10700" stroke-width="2" /><polyline fill="none" points="65.5186,58.5763 65.5186,58.5763" stroke="#7f0000" stroke-width="2" /></svg>