<?xml version="1.0" encoding="utf-8" ?>
<svg baseProfile="tiny" height="128" version="1.2" viewBox="0,0,128,128" width="128" xmlns="http://www.w3.org/2000/svg" xmlns:ev="http://www.w3.org/2001/xml-events" xmlns:xlink="http://www.w3.org/1999/xlink"><defs /><polyline fill="none" points="23.8644,62.4814 11.7153,80.2712 9.1119,86.3458 8.678,95.0237 14.7525,103.7017 23.8644,109.3424 32.1085,111.5119 85.0441,119.322 98.4949,119.322 100.6644,118.4542 102.8339,108.9085 103.2678,91.9864 93.722,70.2915 88.0814,61.6136 80.2712,55.1051 66.3864,49.4644 52.5017,48.5966 35.5797,51.6339 20.8271,63.7831" stroke="#00007f" stroke-width="2" /><polyline fill="none" points="20.8271,64.2169 21.261,62.0475 16.922,53.3695 13.8847,41.6542 13.8847,32.1085 19.9593,16.922 21.6949,16.0542 25.1661,23.4305 29.939,34.7119 30.8068,42.522 34.278,51.2" stroke="#004cff" stroke-width="2" /><polyline fill="none" points="68.122,45.9932 68.5559,38.1831 71.5932,32.1085 85.478,13.0169 91.1186,8.678 91.9864,22.5627 88.9492,42.9559 78.9695,65.9525" stroke="#29ffcd" stroke-width="2" /><polyline fill="none" points="56.8407,92.4203 22.1288,91.5525" stroke="#cdff29" stroke-width="2" /><polyline fill="none" points="53.3695,95.4576 23.8644,95.8915" stroke="#ff6700" stroke-width="2" /><polyline fill="none" points="53.8034,96.7593 23.4305,97.6271" stroke="#7f0000" stroke-width="2" /></svg>