<?xml version="1.0" encoding="utf-8" ?>
<svg baseProfile="tiny" height="128" version="1.2" viewBox="0,0,128,128" width="128" xmlns="http://www.w3.org/2000/svg" xmlns:ev="http://www.w3.org/2001/xml-events" xmlns:xlink="http://www.w3.org/1999/xlink"><defs /><polyline fill="none" points="94.5898,20.3932 95.8915,17.3559 98.9288,14.3186 108.4746,9.5458 117.5864,8.678 118.8881,10.8475 119.322,14.3186 112.8136,22.9966 101.9661,30.3729 97.1932,36.4475 94.5898,43.3898 92.8542,57.7085 95.8915,64.6508 94.5898,67.6881 91.5525,66.8203 86.3458,59.4441 79.4034,38.6169 83.7424,56.4068 83.7424,64.2169 77.2339,64.6508 75.4983,63.3492 68.5559,49.0305 65.9525,39.0508 66.3864,62.9153 65.0847,67.2542 61.1797,68.122 58.5763,63.3492 55.539,52.9356 55.1051,42.0881 54.2373,54.2373 52.0678,63.3492 49.8983,65.5186 43.8237,65.0847 42.0881,58.5763 42.0881,49.8983 45.5593,34.278 29.5051,54.6712 15.1864,58.5763 8.678,56.4068 25.1661,47.7288 39.0508,30.3729 46.861,26.0339 52.0678,24.2983 85.0441,24.2983 95.0237,21.261" stroke="#00007f" stroke-width="2" /><polyline fill="none" points="108.9085,13.8847 107.6068,13.8847" stroke="#00d4ff" stroke-width="2" /><polyline fill="none" points="112.8136,22.5627 105.0034,22.5627 100.6644,25.6" stroke="#ffe500" stroke-width="2" /><polyline fill="none" points="45.5593,26.4678 40.7864,26.9017 34.278,31.2407 26.9017,40.7864 22.9966,49.0305" stroke="#7f0000" stroke-width="2" /></svg>