<?xml version="1.0" encoding="utf-8" ?>
<svg baseProfile="tiny" height="128" version="1.2" viewBox="0,0,128,128" width="128" xmlns="http://www.w3.org/2000/svg" xmlns:ev="http://www.w3.org/2001/xml-events" xmlns:xlink="http://www.w3.org/1999/xlink"><defs /><polyline fill="none" points="30.3729,53.3695 15.6203,68.122 9.9797,78.1017 8.678,83.3085 8.678,89.8169 14.3186,104.1356 20.3932,111.9458 27.7695,117.1525 40.7864,119.322 59.4441,119.322 66.8203,117.1525 72.0271,113.2475 77.2339,105.0034 78.9695,98.9288 79.8373,74.1966 76.8,61.6136 71.5932,56.4068 65.9525,53.3695 49.4644,48.5966 35.5797,48.5966 27.7695,52.0678" stroke="#00007f" stroke-width="2" /><polyline fill="none" points="25.6,51.2 22.5627,49.0305 16.0542,8.678 24.2983,21.6949 42.522,55.9729" stroke="#0028ff" stroke-width="2" /><polyline fill="none" points="67.2542,55.9729 68.122,45.1254 71.5932,33.4102 79.8373,19.5254 82.8746,16.922 83.7424,35.5797 82.4407,49.4644 78.9695,63.3492 79.8373,65.0847" stroke="#00d4ff" stroke-width="2" /><polyline fill="none" points="33.4102,84.6102 34.7119,82.0068 37.7492,82.0068 34.7119,80.7051 23.4305,80.2712 19.5254,81.5729" stroke="#7cff79" stroke-width="2" /><polyline fill="none" points="59.878,82.4407 59.4441,78.9695 62.9153,75.9322 74.6305,71.1593" stroke="#ffe500" stroke-width="2" /><polyline fill="none" points="45.9932,90.6847 45.5593,96.3254 53.3695,96.7593 52.9356,90.2508 47.7288,85.478" stroke="#ff4600" stroke-width="2" /><polyline fill="none" points="37.3153,108.9085 37.3153,103.7017 39.9186,101.5322 45.5593,101.5322 50.7661,104.5695 60.7458,101.9661" stroke="#7f0000" stroke-width="2" /></svg>