<?xml version="1.0" encoding="utf-8" ?>
<svg baseProfile="tiny" height="128" version="1.2" viewBox="0,0,128,128" width="128" xmlns="http://www.w3.org/2000/svg" xmlns:ev="http://www.w3.org/2001/xml-events" xmlns:xlink="http://www.w3.org/1999/xlink"><defs /><polyline fill="none" points="39.4847,34.7119 25.1661,19.0915 21.6949,18.2237 13.8847,21.6949 8.678,30.3729 9.5458,36.0136 16.4881,41.6542 28.2034,45.5593" stroke="#00007f" stroke-width="2" /><polyline fill="none" points="44.2576,36.0136 45.1254,32.9763 50.7661,28.2034 57.7085,26.0339 67.2542,25.1661 71.1593,26.9017 79.8373,38.1831 82.4407,34.7119 85.9119,20.8271 88.0814,17.3559 95.4576,11.2814 99.7966,9.1119 104.5695,8.678 108.9085,9.9797 111.5119,13.4508 114.1153,28.6373 110.2102,39.4847 108.0407,42.522 102.4,45.1254" stroke="#0000e8" stroke-width="2" /><polyline fill="none" points="35.1458,46.861 31.2407,52.0678 27.3356,62.0475 25.6,79.4034 27.3356,91.9864 30.8068,99.7966 37.3153,108.4746 44.6915,113.2475 55.1051,114.9831 69.4237,113.2475 80.2712,108.0407 89.8169,101.0983 101.5322,87.6475 105.4373,75.0644 103.2678,57.7085 99.7966,51.6339 94.5898,49.8983" stroke="#0038ff" stroke-width="2" /><polyline fill="none" points="62.4814,75.0644 62.9153,77.6678 65.9525,78.1017 68.5559,75.9322 68.5559,73.3288 63.7831,73.3288 55.1051,79.4034 59.0102,79.4034 67.2542,77.6678 73.7627,74.6305 66.8203,72.8949 59.878,75.9322 58.1424,78.9695 61.1797,81.5729 66.3864,82.4407 69.8576,81.139 69.8576,77.6678 67.2542,74.6305 61.6136,75.0644" stroke="#0094ff" stroke-width="2" /><polyline fill="none" points="75.4983,78.5356 102.4,75.9322 111.5119,72.461" stroke="#0cf4ea" stroke-width="2" /><polyline fill="none" points="79.8373,79.4034 103.2678,88.5153 111.5119,89.8169" stroke="#56ffa0" stroke-width="2" /><polyline fill="none" points="77.2339,83.7424 80.2712,95.0237 87.6475,104.1356" stroke="#a0ff56" stroke-width="2" /><polyline fill="none" points="57.7085,79.4034 49.8983,79.8373 22.1288,86.7797" stroke="#eaff0c" stroke-width="2" /><polyline fill="none" points="53.8034,82.4407 50.3322,83.7424 33.4102,95.4576 21.261,105.4373" stroke="#ffaa00" stroke-width="2" /><polyline fill="none" points="52.5017,85.9119 36.8814,107.6068 31.2407,119.322" stroke="#ff5500" stroke-width="2" /><polyline fill="none" points="72.461,50.3322 68.9898,51.6339 67.6881,55.539 68.5559,59.0102 72.0271,59.4441 76.3661,58.1424 78.5356,55.1051 78.5356,50.7661 76.3661,48.1627 75.0644,48.1627" stroke="#e80000" stroke-width="2" /><polyline fill="none" points="54.2373,49.0305 49.8983,50.3322 47.2949,53.3695 46.861,59.4441 49.8983,61.1797 55.1051,57.7085 56.4068,54.2373 52.5017,49.0305 50.7661,49.0305" stroke="#7f0000" stroke-width="2" /></svg>