<?xml version="1.0" encoding="utf-8" ?>
<svg baseProfile="tiny" height="128" version="1.2" viewBox="0,0,128,128" width="128" xmlns="http://www.w3.org/2000/svg" xmlns:ev="http://www.w3.org/2001/xml-events" xmlns:xlink="http://www.w3.org/1999/xlink"><defs /><polyline fill="none" points="35.1458,49.0305 34.278,47.7288 37.7492,44.2576 52.0678,39.4847 80.7051,38.1831 88.0814,39.9186 91.1186,41.2203 91.1186,42.522 90.2508,44.6915 84.6102,47.7288 49.8983,57.2746 37.7492,58.1424 32.9763,55.9729 34.7119,53.3695" stroke="#00007f" stroke-width="2" /><polyline fill="none" points="34.7119,55.539 22.9966,31.2407 14.7525,22.9966 9.5458,21.261 8.678,28.2034 13.4508,42.9559 22.1288,55.9729 26.4678,59.878 29.5051,61.1797" stroke="#0000fe" stroke-width="2" /><polyline fill="none" points="107.1729,25.1661 106.3051,19.0915 102.4,17.7898 96.7593,18.2237 89.8169,25.6 86.7797,35.1458 87.2136,42.0881 91.1186,45.5593 95.0237,45.5593 99.7966,40.3525 104.1356,29.0712 104.1356,25.6 96.7593,26.0339" stroke="#0060ff" stroke-width="2" /><polyline fill="none" points="50.7661,59.4441 51.2,76.8" stroke="#00d4ff" stroke-width="2" /><polyline fill="none" points="86.7797,49.0305 83.3085,61.1797 83.3085,68.5559 85.478,69.8576 97.6271,69.4237" stroke="#4cffaa" stroke-width="2" /><polyline fill="none" points="51.6339,75.0644 68.5559,74.1966" stroke="#aaff4c" stroke-width="2" /><polyline fill="none" points="84.6102,23.4305 83.3085,21.6949 83.3085,8.678 86.7797,8.678 96.3254,15.6203" stroke="#ffe500" stroke-width="2" /><polyline fill="none" points="105.4373,20.3932 118.4542,18.6576 119.322,19.9593 111.078,30.3729" stroke="#ff7a00" stroke-width="2" /><polyline fill="none" points="89.8169,28.6373 89.8169,28.6373" stroke="#fe1200" stroke-width="2" /><polyline fill="none" points="98.4949,26.9017 98.4949,26.9017" stroke="#7f0000" stroke-width="2" /></svg>