<?xml version="1.0" encoding="utf-8" ?>
<svg baseProfile="tiny" height="128" version="1.2" viewBox="0,0,128,128" width="128" xmlns="http://www.w3.org/2000/svg" xmlns:ev="http://www.w3.org/2001/xml-events" xmlns:xlink="http://www.w3.org/1999/xlink"><defs /><polyline fill="none" points="49.0305,99.3627 44.2576,98.9288 29.5051,106.3051 24.7322,107.1729 8.678,80.2712 8.678,38.1831 13.0169,21.261 15.6203,16.922 16.4881,8.678 18.6576,15.1864 18.6576,42.9559 25.6,49.8983 36.8814,52.0678 52.0678,57.7085 54.6712,37.3153 60.7458,21.6949 68.5559,9.5458 72.8949,9.5458 77.2339,13.4508 77.2339,22.5627 81.139,45.9932 81.139,84.1763 72.8949,105.4373 66.8203,113.2475 59.0102,118.4542 45.9932,119.322 40.7864,115.4169 26.9017,111.078" stroke="#00007f" stroke-width="2" /><polyline fill="none" points="27.7695,64.2169 27.7695,65.9525" stroke="#0010ff" stroke-width="2" /><polyline fill="none" points="55.1051,70.2915 55.1051,73.3288" stroke="#00a4ff" stroke-width="2" /><polyline fill="none" points="29.939,91.9864 39.0508,101.0983 45.1254,103.2678 55.9729,105.0034 59.878,104.5695 59.878,92.4203" stroke="#3fffb7" stroke-width="2" /><polyline fill="none" points="68.9898,86.3458 79.8373,87.2136 92.4203,91.9864" stroke="#b7ff3f" stroke-width="2" /><polyline fill="none" points="19.9593,85.9119 16.0542,88.9492 10.4136,105.4373 14.7525,105.4373 17.7898,102.4" stroke="#ffb900" stroke-width="2" /><polyline fill="none" points="17.7898,101.0983 16.922,105.0034 18.6576,108.4746" stroke="#ff3000" stroke-width="2" /><polyline fill="none" points="55.1051,81.139 78.9695,88.9492 91.1186,91.1186 96.3254,94.1559" stroke="#7f0000" stroke-width="2" /></svg>