<?xml version="1.0" encoding="utf-8" ?>
<svg baseProfile="tiny" height="128" version="1.2" viewBox="0,0,128,128" width="128" xmlns="http://www.w3.org/2000/svg" xmlns:ev="http://www.w3.org/2001/xml-events" xmlns:xlink="http://www.w3.org/1999/xlink"><defs /><polyline fill="none" points="75.4983,36.0136 59.4441,35.1458 45.1254,41.6542 20.8271,57.2746 14.3186,63.7831 10.4136,70.7254 8.678,78.1017 8.678,90.2508 10.8475,98.4949 15.1864,106.3051 22.1288,114.5492 31.6746,118.0203 44.6915,119.322 63.7831,119.322 78.1017,115.8508 86.7797,105.8712 91.5525,98.061 98.061,78.5356 98.4949,61.1797 96.3254,56.4068 87.2136,44.6915 81.5729,39.9186 75.0644,36.8814 56.4068,34.278" stroke="#00007f" stroke-width="2" /><polyline fill="none" points="31.2407,57.7085 30.3729,18.2237 36.0136,21.6949 58.1424,40.7864 61.6136,42.522" stroke="#004cff" stroke-width="2" /><polyline fill="none" points="83.7424,42.0881 105.4373,8.678 105.8712,30.3729 99.3627,62.9153" stroke="#29ffcd" stroke-width="2" /><polyline fill="none" points="47.2949,77.6678 50.7661,84.1763 52.9356,85.0441 65.0847,84.1763 65.9525,82.0068 65.0847,79.4034 57.7085,75.4983 47.7288,75.9322" stroke="#cdff29" stroke-width="2" /><polyline fill="none" points="58.1424,85.0441 57.2746,98.9288 54.2373,104.1356 44.2576,104.5695 40.7864,102.4" stroke="#ff6700" stroke-width="2" /><polyline fill="none" points="62.0475,88.5153 63.3492,98.9288 66.8203,104.1356 72.0271,104.5695 76.8,100.6644" stroke="#7f0000" stroke-width="2" /></svg>