<?xml version="1.0" encoding="utf-8" ?>
<svg baseProfile="tiny" height="128" version="1.2" viewBox="0,0,128,128" width="128" xmlns="http://www.w3.org/2000/svg" xmlns:ev="http://www.w3.org/2001/xml-events" xmlns:xlink="http://www.w3.org/1999/xlink"><defs /><polyline fill="none" points="60.3119,43.3898 63.7831,47.7288 65.0847,47.7288 66.3864,43.8237" stroke="#00007f" stroke-width="2" /><polyline fill="none" points="60.7458,43.3898 65.9525,44.2576" stroke="#0000cc" stroke-width="2" /><polyline fill="none" points="76.3661,36.4475 75.0644,32.9763 79.8373,30.3729 82.4407,32.9763 82.8746,38.1831" stroke="#0008ff" stroke-width="2" /><polyline fill="none" points="77.2339,37.7492 82.0068,37.7492" stroke="#004cff" stroke-width="2" /><polyline fill="none" points="55.1051,38.1831 51.2,33.4102 47.7288,32.1085 45.9932,34.278 45.9932,38.1831" stroke="#0090ff" stroke-width="2" /><polyline fill="none" points="45.9932,38.6169 56.4068,38.6169" stroke="#00d4ff" stroke-width="2" /><polyline fill="none" points="49.8983,34.278 50.7661,37.7492" stroke="#29ffcd" stroke-width="2" /><polyline fill="none" points="78.9695,30.3729 79.8373,35.5797" stroke="#5fff96" stroke-width="2" /><polyline fill="none" points="80.2712,19.5254 88.5153,12.5831 97.6271,8.678 95.4576,27.3356" stroke="#96ff5f" stroke-width="2" /><polyline fill="none" points="40.7864,20.8271 40.7864,17.3559 35.1458,10.8475 32.1085,9.5458 29.5051,11.2814 29.5051,14.7525 35.1458,31.2407" stroke="#cdff29" stroke-width="2" /><polyline fill="none" points="52.5017,54.2373 47.7288,54.2373 36.8814,57.7085 13.8847,68.5559" stroke="#ffe500" stroke-width="2" /><polyline fill="none" points="45.9932,50.3322 8.678,54.2373" stroke="#ffa600" stroke-width="2" /><polyline fill="none" points="51.6339,55.9729 43.3898,64.2169 27.3356,85.478" stroke="#ff6700" stroke-width="2" /><polyline fill="none" points="82.0068,46.861 105.0034,52.0678 116.7186,59.4441" stroke="#ff2800" stroke-width="2" /><polyline fill="none" points="78.5356,48.1627 94.1559,54.6712 108.9085,64.6508 113.2475,69.4237" stroke="#cc0000" stroke-width="2" /><polyline fill="none" points="81.139,55.1051 88.5153,59.0102 100.2305,69.4237 119.322,95.0237" stroke="#7f0000" stroke-width="2" /></svg>