<?xml version="1.0" encoding="utf-8" ?>
<svg baseProfile="tiny" height="128" version="1.2" viewBox="0,0,128,128" width="128" xmlns="http://www.w3.org/2000/svg" xmlns:ev="http://www.w3.org/2001/xml-events" xmlns:xlink="http://www.w3.org/1999/xlink"><defs /><polyline fill="none" points="37.3153,38.1831 39.9186,54.2373 43.8237,64.6508 49.8983,72.461 62.0475,80.7051 71.5932,80.2712 80.7051,74.6305 89.3831,63.7831 95.4576,52.0678 100.2305,39.9186 104.5695,9.9797 102.8339,9.1119 85.9119,22.5627 81.139,29.0712 59.4441,31.2407 57.2746,29.939 46.4271,16.4881 35.5797,8.678 34.278,10.8475 33.8441,22.1288 36.0136,41.2203" stroke="#00007f" stroke-width="2" /><polyline fill="none" points="53.3695,44.2576 54.2373,45.9932 53.8034,43.8237 51.6339,45.5593" stroke="#0010ff" stroke-width="2" /><polyline fill="none" points="82.4407,45.5593 82.4407,47.2949 83.3085,45.5593 82.4407,46.4271" stroke="#00a4ff" stroke-width="2" /><polyline fill="none" points="46.4271,58.5763 13.0169,55.9729 8.678,57.2746" stroke="#3fffb7" stroke-width="2" /><polyline fill="none" points="44.6915,67.6881 39.4847,68.122 29.939,71.5932 18.6576,78.5356" stroke="#b7ff3f" stroke-width="2" /><polyline fill="none" points="90.6847,62.4814 102.8339,62.9153 119.322,65.9525" stroke="#ffb900" stroke-width="2" /><polyline fill="none" points="85.478,72.0271 105.4373,82.4407 111.5119,82.4407" stroke="#ff3000" stroke-width="2" /><polyline fill="none" points="58.5763,59.4441 62.9153,61.1797 71.5932,62.0475 72.0271,58.5763 70.7254,55.9729 65.9525,54.6712 61.6136,55.1051 58.1424,56.8407" stroke="#7f0000" stroke-width="2" /></svg>