<?xml version="1.0" encoding="utf-8" ?>
<svg baseProfile="tiny" height="128" version="1.2" viewBox="0,0,128,128" width="128" xmlns="http://www.w3.org/2000/svg" xmlns:ev="http://www.w3.org/2001/xml-events" xmlns:xlink="http://www.w3.org/1999/xlink"><defs /><polyline fill="none" points="32.11,41.7869 47.0653,30.7904 56.3024,28.1512 67.7388,27.7113 75.6564,30.3505 80.4948,33.8694 83.134,36.5086 86.2131,46.1856 83.5739,54.9828 73.8969,66.4192 69.9381,68.1787 55.8625,68.1787 35.6289,59.8213 29.4708,54.543 29.0309,46.6254 31.6701,36.0687" stroke="#00007f" stroke-width="2" /><polyline fill="none" points="31.6701,36.0687 32.11,18.0344 35.6289,8.7973 38.268,9.2371 53.6632,36.5086" stroke="#0000d1" stroke-width="2" /><polyline fill="none" points="81.3746,31.6701 95.0103,26.8316 109.9656,25.0722 106.4467,29.9107 84.4536,40.9072" stroke="#0010ff" stroke-width="2" /><polyline fill="none" points="73.0172,56.7423 97.2096,65.9794 119.2027,72.5773" stroke="#0058ff" stroke-width="2" /><polyline fill="none" points="83.5739,65.0997 75.2165,65.0997" stroke="#00a4ff" stroke-width="2" /><polyline fill="none" points="66.4192,59.8213 90.6117,75.6564" stroke="#05ecf1" stroke-width="2" /><polyline fill="none" points="74.3368,52.7835 109.9656,53.2234" stroke="#3fffb7" stroke-width="2" /><polyline fill="none" points="37.3883,48.3849 26.3918,44.866 8.7973,41.7869" stroke="#7cff79" stroke-width="2" /><polyline fill="none" points="39.1478,51.9038 8.7973,49.7045" stroke="#b7ff3f" stroke-width="2" /><polyline fill="none" points="35.6289,55.4227 13.1959,55.4227" stroke="#f1fc05" stroke-width="2" /><polyline fill="none" points="61.5808,51.0241 61.5808,55.4227 59.8213,56.7423" stroke="#ffb900" stroke-width="2" /><polyline fill="none" points="60.2612,57.1821 47.5052,61.5808" stroke="#ff7300" stroke-width="2" /><polyline fill="none" points="59.3814,57.1821 62.0206,57.622 66.4192,64.2199" stroke="#ff3000" stroke-width="2" /><polyline fill="none" points="49.7045,39.1478 48.8247,42.6667 51.9038,45.7457 59.8213,45.7457 59.8213,43.9863 57.622,42.2268 46.1856,40.4674" stroke="#d10000" stroke-width="2" /><polyline fill="none" points="71.6976,43.1065 71.2577,45.7457 75.2165,48.8247 81.3746,49.7045 81.8144,47.0653 81.3746,44.4261 78.7354,42.6667 71.6976,42.2268" stroke="#7f0000" stroke-width="2" /></svg>