<?xml version="1.0" encoding="utf-8" ?>
<svg baseProfile="tiny" height="128" version="1.2" viewBox="0,0,128,128" width="128" xmlns="http://www.w3.org/2000/svg" xmlns:ev="http://www.w3.org/2001/xml-events" xmlns:xlink="http://www.w3.org/1999/xlink"><defs /><polyline fill="none" points="65.9525,29.0712 62.4814,28.6373 60.7458,29.939 55.9729,35.1458 55.1051,39.4847 55.1051,54.2373 56.4068,60.3119 60.3119,65.9525 65.5186,67.6881 72.461,67.6881 82.0068,63.7831 85.9119,49.8983 86.3458,39.4847 86.3458,34.7119 83.3085,30.8068 65.9525,27.7695" stroke="#00007f" stroke-width="2" /><polyline fill="none" points="62.9153,27.7695 65.9525,16.4881 69.4237,8.678 68.9898,19.0915 71.1593,29.5051" stroke="#004cff" stroke-width="2" /><polyline fill="none" points="77.6678,28.6373 82.0068,22.9966 85.0441,14.7525 85.9119,30.8068" stroke="#29ffcd" stroke-width="2" /><polyline fill="none" points="61.6136,66.3864 54.6712,66.3864 49.0305,65.0847 30.8068,66.3864 17.7898,68.9898 9.9797,73.7627 8.678,78.5356 9.5458,83.3085 16.4881,86.7797 30.3729,87.2136 64.2169,87.2136 74.1966,84.6102 88.0814,75.9322 91.5525,68.9898 91.1186,67.6881 74.6305,67.6881 64.6508,69.4237" stroke="#cdff29" stroke-width="2" /><polyline fill="none" points="23.8644,87.2136 23.8644,113.2475 26.4678,118.0203 30.8068,118.8881 34.278,113.2475 30.8068,108.9085 30.8068,100.2305 33.4102,85.9119" stroke="#ff6700" stroke-width="2" /><polyline fill="none" points="53.3695,88.0814 50.7661,95.4576 48.5966,108.4746 49.4644,118.0203 50.3322,119.322 52.5017,118.4542" stroke="#7f0000" stroke-width="2" /></svg>