<?xml version="1.0" encoding="utf-8" ?>
<svg baseProfile="tiny" height="128" version="1.2" viewBox="0,0,128,128" width="128" xmlns="http://www.w3.org/2000/svg" xmlns:ev="http://www.w3.org/2001/xml-events" xmlns:xlink="http://www.w3.org/1999/xlink"><defs /><polyline fill="none" points="102.8339,27.3356 91.9864,25.6 65.5186,25.1661 56.4068,25.1661 49.4644,26.9017 48.1627,46.4271 49.8983,56.8407 53.3695,58.1424 58.5763,57.2746 59.0102,36.8814 69.8576,38.6169 67.2542,44.6915 68.122,52.5017 67.2542,58.5763 64.2169,59.0102 62.9153,57.2746 59.4441,43.3898 60.3119,36.8814" stroke="#00007f" stroke-width="2" /><polyline fill="none" points="69.4237,39.9186 80.7051,38.6169 90.2508,39.9186 95.8915,51.2 97.6271,52.0678 98.4949,46.861 97.1932,41.2203 103.2678,49.0305 105.0034,45.5593 103.2678,39.4847 115.4169,32.5424 118.8881,28.2034 119.322,24.7322 115.4169,19.9593 107.1729,18.2237 105.4373,20.3932 104.5695,28.2034 95.8915,16.922 97.6271,16.4881 105.0034,21.6949 106.3051,12.5831 111.5119,8.678 117.1525,15.1864 117.1525,17.7898" stroke="#0000ff" stroke-width="2" /><polyline fill="none" points="117.1525,22.9966 118.4542,27.7695 115.4169,22.5627 114.5492,25.6" stroke="#0080ff" stroke-width="2" /><polyline fill="none" points="108.4746,22.5627 108.4746,22.5627" stroke="#15ffe1" stroke-width="2" /><polyline fill="none" points="109.3424,22.1288 109.7763,23.4305" stroke="#7cff79" stroke-width="2" /><polyline fill="none" points="114.1153,30.8068 111.078,30.8068" stroke="#e4ff12" stroke-width="2" /><polyline fill="none" points="109.7763,27.7695 98.4949,29.5051" stroke="#ff9400" stroke-width="2" /><polyline fill="none" points="108.0407,29.939 104.1356,35.5797" stroke="#ff1d00" stroke-width="2" /><polyline fill="none" points="49.8983,26.4678 44.6915,28.2034 39.9186,28.2034 24.2983,19.9593 17.7898,18.2237 9.9797,24.7322 8.678,30.3729 9.5458,36.8814" stroke="#7f0000" stroke-width="2" /></svg>