<?xml version="1.0" encoding="utf-8" ?>
<svg baseProfile="tiny" height="128" version="1.2" viewBox="0,0,128,128" width="128" xmlns="http://www.w3.org/2000/svg" xmlns:ev="http://www.w3.org/2001/xml-events" xmlns:xlink="http://www.w3.org/1999/xlink"><defs /><polyline fill="none" points="35.5797,36.4475 27.7695,37.3153 23.4305,40.3525 12.5831,52.5017 9.9797,58.1424 8.678,69.4237 10.8475,74.1966 16.0542,78.1017 23.4305,81.5729 37.7492,82.8746 46.4271,81.5729 58.1424,73.7627 65.0847,61.1797 65.0847,50.7661 63.3492,46.4271 56.8407,39.0508 49.4644,34.7119 38.6169,33.8441 27.3356,39.9186 21.6949,40.7864 21.6949,35.5797 28.6373,20.8271 32.1085,8.678 36.4475,29.939 39.9186,33.4102 45.9932,31.2407 60.3119,16.0542 64.2169,14.3186 63.3492,21.6949 55.539,41.2203 55.1051,43.3898 56.4068,42.9559" stroke="#00007f" stroke-width="2" /><polyline fill="none" points="32.9763,49.4644 34.278,56.4068" stroke="#0080ff" stroke-width="2" /><polyline fill="none" points="51.6339,47.2949 53.8034,55.9729" stroke="#7cff79" stroke-width="2" /><polyline fill="none" points="38.6169,63.3492 47.2949,72.0271 52.0678,72.0271 55.539,65.0847" stroke="#ff9400" stroke-width="2" /><polyline fill="none" points="50.3322,73.7627 54.6712,74.6305 65.5186,82.8746 74.6305,86.7797 90.2508,87.6475 96.3254,85.478 111.078,69.8576 112.8136,65.0847 117.1525,60.3119 119.322,53.8034 119.322,45.9932 114.5492,31.6746 107.1729,23.4305 100.6644,22.9966 95.8915,30.3729 95.0237,40.3525 96.7593,45.1254 101.5322,49.0305 104.1356,49.0305 107.6068,46.4271" stroke="#7f0000" stroke-width="2" /></svg>