<?xml version="1.0" encoding="utf-8" ?>
<svg baseProfile="tiny" height="128" version="1.2" viewBox="0,0,128,128" width="128" xmlns="http://www.w3.org/2000/svg" xmlns:ev="http://www.w3.org/2001/xml-events" xmlns:xlink="http://www.w3.org/1999/xlink"><defs /><polyline fill="none" points="69.4237,45.5593 65.5186,42.0881 47.7288,39.9186 32.1085,46.4271 19.0915,56.8407 13.8847,66.3864 12.5831,74.1966 12.5831,84.1763 14.3186,88.9492 19.5254,98.9288 26.0339,106.3051 43.3898,114.9831 62.9153,119.322 81.139,119.322 89.8169,116.2847 96.3254,111.9458 101.9661,105.4373 106.739,92.8542 107.6068,72.461 104.1356,60.3119 98.9288,49.4644 93.2881,42.9559 88.5153,39.9186 81.5729,37.7492 72.8949,37.7492 65.0847,39.9186 58.5763,44.2576" stroke="#00007f" stroke-width="2" /><polyline fill="none" points="56.4068,92.4203 57.2746,101.9661 54.2373,103.7017 49.4644,104.1356 48.5966,96.7593" stroke="#0000d5" stroke-width="2" /><polyline fill="none" points="55.9729,99.7966 59.0102,105.0034 63.7831,107.6068 67.2542,103.2678 68.5559,96.7593" stroke="#001cff" stroke-width="2" /><polyline fill="none" points="52.0678,89.3831 62.9153,89.8169 60.3119,86.3458 57.2746,85.9119 51.6339,90.2508" stroke="#006cff" stroke-width="2" /><polyline fill="none" points="74.1966,63.3492 69.4237,63.3492 66.8203,68.5559 68.122,73.7627 71.1593,72.8949 74.1966,62.4814" stroke="#00b8ff" stroke-width="2" /><polyline fill="none" points="78.5356,25.6 94.1559,17.3559 95.4576,19.0915 96.3254,39.4847 93.722,40.3525 82.0068,32.5424" stroke="#1cffda" stroke-width="2" /><polyline fill="none" points="33.4102,31.2407 33.8441,8.678 52.9356,41.6542" stroke="#5cff9a" stroke-width="2" /><polyline fill="none" points="35.1458,59.0102 36.0136,63.7831" stroke="#9aff5c" stroke-width="2" /><polyline fill="none" points="36.8814,64.2169 37.3153,71.5932 40.3525,73.7627 43.8237,73.7627 46.4271,72.0271 49.0305,65.0847 47.7288,62.0475 40.7864,61.1797 42.0881,62.9153 49.0305,65.0847" stroke="#daff1c" stroke-width="2" /><polyline fill="none" points="79.8373,82.8746 92.4203,81.139 105.8712,81.139" stroke="#ffcb00" stroke-width="2" /><polyline fill="none" points="81.139,88.0814 104.5695,97.6271" stroke="#ff8500" stroke-width="2" /><polyline fill="none" points="78.1017,96.3254 100.2305,102.8339" stroke="#ff3b00" stroke-width="2" /><polyline fill="none" points="36.8814,87.6475 9.5458,88.0814 8.678,89.3831 11.7153,91.9864 24.2983,98.4949" stroke="#d50000" stroke-width="2" /><polyline fill="none" points="32.1085,97.1932 25.1661,101.5322" stroke="#7f0000" stroke-width="2" /></svg>