<?xml version="1.0" encoding="utf-8" ?>
<svg baseProfile="tiny" height="128" version="1.2" viewBox="0,0,128,128" width="128" xmlns="http://www.w3.org/2000/svg" xmlns:ev="http://www.w3.org/2001/xml-events" xmlns:xlink="http://www.w3.org/1999/xlink"><defs /><polyline fill="none" points="104.1356,39.9186 93.722,30.8068 85.9119,28.2034 74.6305,27.7695 61.1797,33.4102 55.539,40.7864 51.6339,55.9729 50.7661,74.6305 52.0678,84.6102 57.2746,91.9864 77.6678,91.9864 90.6847,85.9119 99.3627,79.8373 106.739,70.2915 110.2102,58.1424 109.3424,45.5593 105.0034,36.0136 102.8339,35.5797" stroke="#00007f" stroke-width="2" /><polyline fill="none" points="107.1729,39.0508 108.4746,23.4305 108.0407,8.678 105.4373,9.1119 85.0441,26.4678 80.7051,28.6373" stroke="#0000d5" stroke-width="2" /><polyline fill="none" points="77.2339,28.6373 70.7254,23.8644 52.5017,16.0542 51.2,17.3559 51.2,22.1288 54.6712,42.0881" stroke="#001cff" stroke-width="2" /><polyline fill="none" points="90.2508,42.9559 85.478,45.9932 85.0441,49.4644 86.3458,50.3322 90.6847,46.4271 91.5525,42.9559 90.2508,40.7864 88.5153,42.0881" stroke="#006cff" stroke-width="2" /><polyline fill="none" points="66.3864,42.9559 62.0475,49.8983 64.6508,48.5966 67.6881,45.1254 65.9525,44.2576 65.9525,45.5593" stroke="#00b8ff" stroke-width="2" /><polyline fill="none" points="77.2339,58.1424 72.0271,58.5763 78.1017,65.5186 83.3085,56.4068 77.2339,59.0102" stroke="#1cffda" stroke-width="2" /><polyline fill="none" points="76.8,66.8203 75.0644,73.3288 68.5559,76.8 65.0847,76.3661 56.8407,72.461 55.539,68.9898" stroke="#5cff9a" stroke-width="2" /><polyline fill="none" points="77.2339,65.9525 78.1017,71.1593 81.139,74.1966 92.4203,75.4983 97.6271,72.461 101.5322,64.6508" stroke="#9aff5c" stroke-width="2" /><polyline fill="none" points="85.0441,62.9153 118.0203,44.2576" stroke="#daff1c" stroke-width="2" /><polyline fill="none" points="88.5153,64.2169 119.322,56.8407" stroke="#ffcb00" stroke-width="2" /><polyline fill="none" points="88.5153,64.6508 117.1525,77.2339" stroke="#ff8500" stroke-width="2" /><polyline fill="none" points="69.4237,59.878 63.7831,56.4068 49.0305,52.9356 35.1458,52.0678 8.678,47.2949" stroke="#ff3b00" stroke-width="2" /><polyline fill="none" points="61.6136,62.4814 40.7864,58.5763 32.1085,58.5763 25.6,60.7458" stroke="#d50000" stroke-width="2" /><polyline fill="none" points="56.4068,67.6881 55.1051,69.4237 48.1627,71.5932 37.7492,73.3288 32.9763,76.8" stroke="#7f0000" stroke-width="2" /></svg>