<?xml version="1.0" encoding="utf-8" ?>
<svg baseProfile="tiny" height="128" version="1.2" viewBox="0,0,128,128" width="128" xmlns="http://www.w3.org/2000/svg" xmlns:ev="http://www.w3.org/2001/xml-events" xmlns:xlink="http://www.w3.org/1999/xlink"><defs /><polyline fill="none" points="110.2102,42.9559 101.0983,16.0542 97.1932,8.678 95.0237,9.9797 93.722,37.7492 91.1186,48.5966 89.8169,50.3322 76.8,45.9932 64.6508,46.861 34.7119,53.8034 31.6746,52.0678 23.4305,40.7864 16.0542,33.8441 11.2814,32.9763 9.1119,36.0136 8.678,43.3898 10.4136,49.8983 22.9966,81.139 23.4305,98.4949 29.0712,108.9085 39.4847,115.4169 48.5966,117.1525 64.6508,117.5864 85.478,114.5492 99.7966,110.2102 106.739,105.8712 112.3797,100.6644 115.8508,94.5898 118.8881,83.3085 119.322,74.1966 115.4169,59.4441 107.6068,50.7661 99.7966,46.861 95.8915,46.4271" stroke="#00007f" stroke-width="2" /><polyline fill="none" points="82.8746,54.6712 78.1017,55.539 75.9322,58.5763 77.6678,65.5186 82.0068,67.2542 83.3085,63.7831 75.9322,57.7085" stroke="#0010ff" stroke-width="2" /><polyline fill="none" points="41.6542,69.4237 39.9186,72.0271 42.522,75.9322 49.0305,79.4034 56.4068,80.7051 58.1424,79.8373 59.0102,77.2339 52.5017,68.5559 45.5593,65.9525 41.6542,67.2542 40.7864,68.9898" stroke="#00a4ff" stroke-width="2" /><polyline fill="none" points="68.5559,78.1017 65.0847,79.4034 62.9153,82.0068 65.9525,88.0814 71.5932,91.5525 74.6305,85.0441 72.461,79.4034 66.3864,76.3661" stroke="#3fffb7" stroke-width="2" /><polyline fill="none" points="84.1763,91.1186 74.1966,95.0237 65.5186,102.8339 56.8407,106.739" stroke="#b7ff3f" stroke-width="2" /><polyline fill="none" points="87.2136,84.1763 83.3085,82.4407 62.0475,81.139 54.6712,82.0068 51.2,83.7424" stroke="#ffb900" stroke-width="2" /><polyline fill="none" points="89.8169,79.4034 82.4407,78.5356" stroke="#ff3000" stroke-width="2" /><polyline fill="none" points="60.7458,89.8169 54.2373,87.6475" stroke="#7f0000" stroke-width="2" /></svg>