<?xml version="1.0" encoding="utf-8" ?>
<svg baseProfile="tiny" height="128" version="1.2" viewBox="0,0,128,128" width="128" xmlns="http://www.w3.org/2000/svg" xmlns:ev="http://www.w3.org/2001/xml-events" xmlns:xlink="http://www.w3.org/1999/xlink"><defs /><polyline fill="none" points="23.0748,60.9524 16.5442,49.1973 13.932,30.9116 8.7075,16.1088 27.4286,24.381 37.0068,36.1361 43.9728,41.3605 64.0,42.2313 79.2381,46.1497 80.9796,45.7143 93.6054,29.1701 119.2925,8.7075 119.2925,16.1088 112.7619,40.9252 111.0204,55.2925 102.7483,79.6735 88.381,98.8299 79.6735,103.619 70.5306,104.9252 52.2449,103.619 36.1361,93.6054 24.8163,81.415 16.9796,58.7755 17.415,57.4694" stroke="#00007f" stroke-width="2" /><polyline fill="none" points="33.0884,70.966 32.6531,67.0476 39.1837,62.2585 45.2789,61.3878 48.3265,63.5646 48.3265,65.3061" stroke="#00d4ff" stroke-width="2" /><polyline fill="none" points="63.5646,67.0476 69.2245,60.9524 80.5442,58.3401 85.7687,59.6463 87.0748,61.3878 89.2517,69.6599" stroke="#ffe500" stroke-width="2" /><polyline fill="none" points="55.2925,91.8639 62.2585,84.4626 64.8707,77.4966 62.6939,74.8844 58.3401,78.3673 57.4694,83.1565 67.0476,97.5238" stroke="#7f0000" stroke-width="2" /></svg>