<?xml version="1.0" encoding="utf-8" ?>
<svg baseProfile="tiny" height="128" version="1.2" viewBox="0,0,128,128" width="128" xmlns="http://www.w3.org/2000/svg" xmlns:ev="http://www.w3.org/2001/xml-events" xmlns:xlink="http://www.w3.org/1999/xlink"><defs /><polyline fill="none" points="45.1254,29.939 35.1458,28.2034 23.8644,36.4475 14.3186,51.6339 10.4136,63.7831 10.4136,71.1593 13.0169,78.1017 22.1288,85.478 31.6746,88.5153 49.0305,89.3831 61.1797,88.5153 76.8,83.7424 88.9492,75.9322 92.4203,72.461 96.3254,65.5186 96.3254,48.5966 90.6847,37.3153 85.478,32.1085 76.3661,29.5051 71.5932,29.5051" stroke="#00007f" stroke-width="2" /><polyline fill="none" points="13.4508,42.0881 8.678,27.7695 8.678,8.678 17.3559,21.6949 25.6,27.7695" stroke="#0010ff" stroke-width="2" /><polyline fill="none" points="74.1966,55.1051 77.6678,49.0305 112.8136,20.3932 118.4542,17.3559 119.322,21.261" stroke="#00a4ff" stroke-width="2" /><polyline fill="none" points="66.3864,31.2407 68.5559,25.6 72.8949,22.5627 89.8169,15.6203 98.9288,13.8847" stroke="#3fffb7" stroke-width="2" /><polyline fill="none" points="50.3322,70.2915 42.9559,72.0271 34.7119,75.9322 17.3559,87.2136" stroke="#b7ff3f" stroke-width="2" /><polyline fill="none" points="42.522,71.5932 38.6169,75.9322 36.0136,83.7424" stroke="#ffb900" stroke-width="2" /><polyline fill="none" points="85.9119,70.7254 105.4373,66.8203 118.4542,66.3864" stroke="#ff3000" stroke-width="2" /><polyline fill="none" points="86.3458,81.139 96.3254,87.6475" stroke="#7f0000" stroke-width="2" /></svg>