<?xml version="1.0" encoding="utf-8" ?>
<svg baseProfile="tiny" height="128" version="1.2" viewBox="0,0,128,128" width="128" xmlns="http://www.w3.org/2000/svg" xmlns:ev="http://www.w3.org/2001/xml-events" xmlns:xlink="http://www.w3.org/1999/xlink"><defs /><polyline fill="none" points="60.7458,37.3153 55.1051,36.0136 48.5966,39.4847 44.2576,44.2576 38.6169,54.6712 36.8814,73.7627 37.3153,79.8373 39.4847,84.1763 48.1627,90.6847 54.6712,92.4203 74.1966,92.4203 86.7797,85.9119 94.1559,77.2339 96.7593,68.5559 96.7593,60.3119 94.1559,55.1051 86.7797,48.1627 72.8949,38.6169 59.4441,35.1458" stroke="#00007f" stroke-width="2" /><polyline fill="none" points="68.5559,34.7119 69.4237,29.0712 74.1966,20.8271 79.8373,13.0169 84.6102,9.1119 85.478,12.1492 84.1763,29.0712 84.6102,44.2576" stroke="#0000d5" stroke-width="2" /><polyline fill="none" points="55.1051,35.1458 45.9932,21.261 37.7492,11.7153 32.9763,8.678 29.0712,8.678 29.0712,37.3153 32.1085,47.7288 35.5797,53.3695" stroke="#001cff" stroke-width="2" /><polyline fill="none" points="91.9864,55.9729 97.1932,54.2373 102.8339,50.3322 107.1729,45.5593 109.3424,39.0508" stroke="#006cff" stroke-width="2" /><polyline fill="none" points="96.3254,65.0847 113.6814,56.8407 118.4542,52.0678 118.8881,49.0305" stroke="#00b8ff" stroke-width="2" /><polyline fill="none" points="95.4576,72.461 106.3051,68.5559 115.4169,63.3492 118.4542,59.0102 119.322,51.2" stroke="#1cffda" stroke-width="2" /><polyline fill="none" points="39.0508,63.3492 36.4475,61.6136 18.2237,58.5763 11.2814,55.1051 8.678,51.6339" stroke="#5cff9a" stroke-width="2" /><polyline fill="none" points="39.4847,72.8949 36.8814,71.1593 20.8271,69.8576 9.9797,67.2542" stroke="#9aff5c" stroke-width="2" /><polyline fill="none" points="40.3525,85.9119 12.5831,85.0441 11.2814,83.3085" stroke="#daff1c" stroke-width="2" /><polyline fill="none" points="55.539,58.1424 55.539,58.1424" stroke="#ffcb00" stroke-width="2" /><polyline fill="none" points="71.5932,53.3695 71.5932,53.3695" stroke="#ff8500" stroke-width="2" /><polyline fill="none" points="56.8407,58.1424 56.4068,61.1797 58.5763,62.4814 60.7458,61.6136 60.7458,55.1051 59.4441,54.6712" stroke="#ff3b00" stroke-width="2" /><polyline fill="none" points="72.461,48.5966 70.7254,51.2 71.5932,56.8407 74.6305,56.8407 76.8,49.4644 75.0644,47.7288 72.0271,47.7288" stroke="#d50000" stroke-width="2" /><polyline fill="none" points="70.7254,66.3864 71.5932,68.9898" stroke="#7f0000" stroke-width="2" /></svg>