<?xml version="1.0" encoding="utf-8" ?>
<svg baseProfile="tiny" height="128" version="1.2" viewBox="0,0,128,128" width="128" xmlns="http://www.w3.org/2000/svg" xmlns:ev="http://www.w3.org/2001/xml-events" xmlns:xlink="http://www.w3.org/1999/xlink"><defs /><polyline fill="none" points="27.3356,35.5797 26.0339,15.1864 30.3729,16.4881 39.9186,25.1661" stroke="#00007f" stroke-width="2" /><polyline fill="none" points="83.3085,28.2034 84.1763,22.9966 91.5525,8.678 95.0237,11.7153 97.1932,16.922 99.7966,28.6373" stroke="#0000ff" stroke-width="2" /><polyline fill="none" points="27.3356,46.861 28.2034,42.0881 32.1085,37.3153 45.5593,30.3729 76.8,28.2034 90.2508,30.3729 97.6271,33.8441 105.4373,42.0881 108.0407,49.0305 107.6068,58.5763 100.2305,73.3288 93.722,79.4034 79.8373,85.9119 71.1593,88.0814 60.3119,88.0814 48.5966,85.478 40.3525,81.139 34.278,74.6305 30.8068,67.6881 28.2034,52.9356 29.5051,47.2949" stroke="#0080ff" stroke-width="2" /><polyline fill="none" points="53.8034,52.0678 56.4068,47.2949 58.5763,47.2949 59.0102,49.0305 53.8034,49.8983 51.6339,47.7288 53.8034,46.861" stroke="#15ffe1" stroke-width="2" /><polyline fill="none" points="82.8746,48.1627 87.2136,49.0305 83.3085,50.3322 84.1763,47.7288 85.9119,48.5966" stroke="#7cff79" stroke-width="2" /><polyline fill="none" points="49.8983,64.2169 33.4102,66.8203 15.1864,72.461 8.678,77.2339" stroke="#e4ff12" stroke-width="2" /><polyline fill="none" points="48.5966,75.0644 38.6169,81.139 27.7695,92.4203" stroke="#ff9400" stroke-width="2" /><polyline fill="none" points="83.7424,65.9525 91.1186,65.5186 101.9661,67.2542 119.322,72.461" stroke="#ff1d00" stroke-width="2" /><polyline fill="none" points="85.0441,78.9695 100.2305,83.7424 115.8508,92.4203" stroke="#7f0000" stroke-width="2" /></svg>