<?xml version="1.0" encoding="utf-8" ?>
<svg baseProfile="tiny" height="128" version="1.2" viewBox="0,0,128,128" width="128" xmlns="http://www.w3.org/2000/svg" xmlns:ev="http://www.w3.org/2001/xml-events" xmlns:xlink="http://www.w3.org/1999/xlink"><defs /><polyline fill="none" points="45.9932,27.3356 39.4847,26.9017 35.1458,31.6746 29.939,39.9186 28.6373,48.1627 29.5051,53.8034 32.9763,56.8407 45.9932,58.1424 49.4644,56.4068 52.0678,52.5017 55.539,43.8237 56.4068,32.1085 53.8034,25.6" stroke="#00007f" stroke-width="2" /><polyline fill="none" points="43.8237,17.7898 42.522,18.2237 42.0881,23.4305" stroke="#0000de" stroke-width="2" /><polyline fill="none" points="47.7288,49.8983 64.2169,48.1627 96.3254,48.1627 104.5695,49.0305 108.4746,53.3695 108.0407,61.1797 105.0034,65.9525 99.7966,70.2915 88.9492,73.3288 75.0644,73.3288 58.1424,67.6881 49.4644,62.9153 48.1627,57.7085" stroke="#0028ff" stroke-width="2" /><polyline fill="none" points="54.6712,68.9898 51.2,90.2508" stroke="#0080ff" stroke-width="2" /><polyline fill="none" points="74.1966,75.0644 71.1593,88.9492 71.1593,97.1932" stroke="#00d4ff" stroke-width="2" /><polyline fill="none" points="92.8542,73.3288 92.8542,79.4034 98.4949,88.9492" stroke="#36ffc0" stroke-width="2" /><polyline fill="none" points="105.0034,66.3864 108.9085,84.1763" stroke="#7cff79" stroke-width="2" /><polyline fill="none" points="34.278,32.1085 29.939,17.7898 28.6373,8.678 41.2203,26.0339" stroke="#c0ff36" stroke-width="2" /><polyline fill="none" points="45.5593,22.5627 52.9356,14.7525 61.1797,9.9797 58.1424,22.5627 57.7085,29.939" stroke="#ffe500" stroke-width="2" /><polyline fill="none" points="8.678,117.5864 9.5458,111.9458 14.7525,98.061 20.3932,88.5153 23.4305,109.7763 27.3356,100.2305 32.9763,90.6847 36.4475,86.7797 38.6169,87.2136 38.6169,108.9085" stroke="#ff9400" stroke-width="2" /><polyline fill="none" points="65.0847,118.4542 53.3695,119.322 49.4644,117.1525 45.1254,111.9458 43.8237,107.6068 44.6915,100.6644 50.3322,97.1932 55.539,97.6271 55.539,99.3627 52.5017,101.0983 45.1254,101.5322" stroke="#ff4600" stroke-width="2" /><polyline fill="none" points="74.6305,102.8339 67.6881,105.0034 65.0847,110.6441 65.5186,117.5864 70.2915,118.0203 74.1966,111.5119 74.1966,102.4 71.1593,100.6644" stroke="#de0000" stroke-width="2" /><polyline fill="none" points="86.3458,102.8339 89.3831,113.6814 91.1186,113.6814 95.8915,110.2102 98.061,114.5492 104.1356,114.9831 106.3051,114.1153" stroke="#7f0000" stroke-width="2" /></svg>