<?xml version="1.0" encoding="utf-8" ?>
<svg baseProfile="tiny" height="128" version="1.2" viewBox="0,0,128,128" width="128" xmlns="http://www.w3.org/2000/svg" xmlns:ev="http://www.w3.org/2001/xml-events" xmlns:xlink="http://www.w3.org/1999/xlink"><defs /><polyline fill="none" points="24.7322,106.3051 21.261,101.9661" stroke="#00007f" stroke-width="2" /><polyline fill="none" points="29.939,105.4373 13.4508,82.4407 9.5458,73.7627 8.678,68.5559 8.678,59.4441 12.5831,49.8983 19.0915,43.8237 26.4678,41.6542 27.7695,39.4847 27.7695,21.6949 29.939,8.678 33.4102,14.3186 37.3153,31.2407 41.6542,39.9186 50.7661,36.0136 57.7085,35.1458 65.5186,36.8814 86.3458,45.5593 88.0814,45.1254 90.6847,34.278 97.6271,22.9966 108.0407,13.4508 109.7763,17.7898 101.0983,49.4644 102.8339,63.7831 100.2305,80.7051 97.1932,90.2508 93.722,94.5898 75.4983,108.4746 66.8203,113.6814 56.8407,117.5864 45.5593,119.322 25.1661,116.2847 22.5627,114.5492 21.261,110.6441" stroke="#0028ff" stroke-width="2" /><polyline fill="none" points="51.6339,87.2136 46.4271,83.3085 42.522,77.2339 41.6542,73.3288 45.1254,68.5559 53.8034,66.8203 72.8949,73.3288 71.1593,78.5356 67.6881,81.5729 50.7661,85.478" stroke="#00d4ff" stroke-width="2" /><polyline fill="none" points="60.3119,85.478 75.0644,95.4576 77.2339,95.0237 80.2712,85.0441" stroke="#7cff79" stroke-width="2" /><polyline fill="none" points="48.5966,91.5525 38.1831,91.5525 30.8068,89.8169 25.6,85.478 22.9966,78.1017" stroke="#ffe500" stroke-width="2" /><polyline fill="none" points="46.4271,42.522 40.7864,47.2949 40.3525,49.8983 41.6542,51.6339 44.2576,52.0678 44.2576,48.1627" stroke="#ff4600" stroke-width="2" /><polyline fill="none" points="66.3864,50.3322 61.6136,53.8034 60.7458,55.1051 62.0475,57.2746 75.4983,61.1797 77.6678,59.4441 75.0644,52.5017 66.8203,45.5593" stroke="#7f0000" stroke-width="2" /></svg>