<?xml version="1.0" encoding="utf-8" ?>
<svg baseProfile="tiny" height="128" version="1.2" viewBox="0,0,128,128" width="128" xmlns="http://www.w3.org/2000/svg" xmlns:ev="http://www.w3.org/2001/xml-events" xmlns:xlink="http://www.w3.org/1999/xlink"><defs /><polyline fill="none" points="74.449,56.1633 70.5306,53.1156 56.5986,49.6327 46.1497,49.6327 31.3469,51.8095 22.2041,58.7755 16.1088,72.7075 13.932,83.5918 15.2381,87.9456 25.6871,100.5714 36.5714,110.585 43.102,112.7619 58.3401,113.6327 67.0476,111.8912 72.7075,106.6667 83.5918,89.6871 85.3333,84.4626 86.2041,63.5646 84.898,55.7279 82.7211,50.068 87.9456,25.2517 87.9456,8.7075 82.2857,13.932 70.966,38.3129 63.5646,48.3265 52.6803,43.9728 23.9456,20.898 15.6735,16.5442 10.8844,15.6735 11.3197,27.4286 16.1088,39.1837 18.7211,53.9864" stroke="#00007f" stroke-width="2" /><polyline fill="none" points="43.5374,74.0136 43.5374,74.0136" stroke="#0000f1" stroke-width="2" /><polyline fill="none" points="74.0136,60.517 74.0136,60.517" stroke="#004cff" stroke-width="2" /><polyline fill="none" points="51.8095,66.1769 47.0204,64.8707" stroke="#00b0ff" stroke-width="2" /><polyline fill="none" points="45.7143,85.3333 32.6531,82.2857 8.7075,79.6735" stroke="#29ffcd" stroke-width="2" /><polyline fill="none" points="36.5714,89.6871 22.2041,88.381 10.0136,89.2517" stroke="#7cff79" stroke-width="2" /><polyline fill="none" points="37.8776,100.1361 21.3333,99.7007 11.3197,103.1837" stroke="#cdff29" stroke-width="2" /><polyline fill="none" points="108.4082,84.0272 83.5918,81.8503" stroke="#ffc400" stroke-width="2" /><polyline fill="none" points="100.1361,100.1361 75.7551,92.7347" stroke="#ff6700" stroke-width="2" /><polyline fill="none" points="94.9116,119.2925 85.7687,112.3265" stroke="#f10700" stroke-width="2" /><polyline fill="none" points="57.034,84.4626 54.4218,86.2041 55.2925,89.6871 57.034,90.5578 61.8231,89.6871 62.2585,87.0748 60.517,85.3333" stroke="#7f0000" stroke-width="2" /></svg>