<?xml version="1.0" encoding="utf-8" ?>
<svg baseProfile="tiny" height="128" version="1.2" viewBox="0,0,128,128" width="128" xmlns="http://www.w3.org/2000/svg" xmlns:ev="http://www.w3.org/2001/xml-events" xmlns:xlink="http://www.w3.org/1999/xlink"><defs /><polyline fill="none" points="9.1119,35.5797 15.6203,8.678 18.6576,9.5458 26.0339,19.0915 32.9763,31.6746 54.2373,24.2983 61.6136,23.4305 65.9525,24.2983 75.9322,29.0712 87.2136,38.1831 90.6847,35.5797 106.739,13.0169 108.4746,12.5831 114.9831,28.6373 119.322,48.1627 117.5864,60.7458 108.4746,75.4983 100.2305,83.3085 91.9864,87.2136 71.5932,91.9864 41.6542,94.5898 31.2407,93.2881 24.2983,90.6847 14.7525,85.0441 11.2814,77.6678 8.678,39.0508 9.5458,34.7119 11.7153,31.6746" stroke="#00007f" stroke-width="2" /><polyline fill="none" points="39.4847,46.861 39.4847,46.861" stroke="#0000de" stroke-width="2" /><polyline fill="none" points="39.0508,44.6915 40.3525,47.2949 41.2203,45.9932 39.4847,44.6915" stroke="#0028ff" stroke-width="2" /><polyline fill="none" points="74.6305,44.6915 71.1593,43.3898" stroke="#0080ff" stroke-width="2" /><polyline fill="none" points="45.1254,72.461 48.5966,74.1966 52.5017,71.5932 56.8407,65.9525 57.7085,61.1797 60.7458,66.8203 63.7831,69.4237 68.5559,68.122 69.8576,65.0847" stroke="#00d4ff" stroke-width="2" /><polyline fill="none" points="57.7085,52.9356 55.539,55.539 57.2746,56.8407 58.5763,55.539 58.5763,54.6712 56.8407,55.539" stroke="#36ffc0" stroke-width="2" /><polyline fill="none" points="56.8407,57.7085 66.3864,58.5763 91.9864,55.1051" stroke="#7cff79" stroke-width="2" /><polyline fill="none" points="62.9153,59.0102 82.8746,65.0847" stroke="#c0ff36" stroke-width="2" /><polyline fill="none" points="65.0847,57.2746 76.3661,57.2746" stroke="#ffe500" stroke-width="2" /><polyline fill="none" points="54.2373,54.6712 34.278,52.5017" stroke="#ff9400" stroke-width="2" /><polyline fill="none" points="51.2,56.8407 38.6169,60.7458" stroke="#ff4600" stroke-width="2" /><polyline fill="none" points="55.9729,61.1797 47.7288,64.2169 43.8237,67.2542" stroke="#de0000" stroke-width="2" /><polyline fill="none" points="73.7627,48.5966 73.3288,46.861 72.8949,48.5966 74.1966,49.4644 75.9322,47.2949 74.6305,44.6915" stroke="#7f0000" stroke-width="2" /></svg>