<?xml version="1.0" encoding="utf-8" ?>
<svg baseProfile="tiny" height="128" version="1.2" viewBox="0,0,128,128" width="128" xmlns="http://www.w3.org/2000/svg" xmlns:ev="http://www.w3.org/2001/xml-events" xmlns:xlink="http://www.w3.org/1999/xlink"><defs /><polyline fill="none" points="100.2305,24.2983 95.0237,22.1288 87.2136,22.1288 77.2339,26.4678 72.8949,30.8068 71.5932,34.278 72.0271,39.9186 78.1017,46.861 83.3085,49.0305 86.7797,49.4644 95.8915,45.1254 101.9661,37.7492 103.2678,32.1085 101.5322,28.6373 94.1559,23.4305" stroke="#00007f" stroke-width="2" /><polyline fill="none" points="89.8169,25.6 98.9288,8.678 101.9661,23.4305" stroke="#0000cc" stroke-width="2" /><polyline fill="none" points="79.4034,26.0339 62.4814,11.2814 67.6881,32.1085" stroke="#0008ff" stroke-width="2" /><polyline fill="none" points="69.4237,37.7492 48.5966,30.8068 29.939,30.3729 22.1288,32.1085 14.7525,36.4475 9.9797,43.3898 8.678,50.3322 12.1492,56.8407 21.261,60.3119 34.7119,60.3119 45.5593,58.5763 80.7051,47.7288" stroke="#004cff" stroke-width="2" /><polyline fill="none" points="35.5797,62.4814 42.0881,72.0271 42.9559,75.0644 42.0881,78.5356 39.9186,79.4034 36.4475,77.2339 34.278,74.6305 32.1085,67.2542" stroke="#0090ff" stroke-width="2" /><polyline fill="none" points="60.3119,52.9356 65.5186,58.1424 68.5559,65.0847 68.5559,69.8576 64.2169,72.461 60.7458,71.5932 55.1051,65.9525 49.4644,53.3695" stroke="#00d4ff" stroke-width="2" /><polyline fill="none" points="85.0441,32.1085 84.6102,32.1085" stroke="#29ffcd" stroke-width="2" /><polyline fill="none" points="92.4203,32.1085 92.4203,32.1085" stroke="#5fff96" stroke-width="2" /><polyline fill="none" points="90.6847,32.1085 90.6847,32.1085" stroke="#96ff5f" stroke-width="2" /><polyline fill="none" points="92.8542,30.8068 91.9864,31.2407" stroke="#cdff29" stroke-width="2" /><polyline fill="none" points="93.2881,36.0136 114.9831,27.7695" stroke="#ffe500" stroke-width="2" /><polyline fill="none" points="90.6847,41.6542 119.322,39.4847" stroke="#ffa600" stroke-width="2" /><polyline fill="none" points="91.9864,39.4847 112.3797,35.5797" stroke="#ff6700" stroke-width="2" /><polyline fill="none" points="78.1017,39.0508 71.5932,37.3153 55.539,36.4475" stroke="#ff2800" stroke-width="2" /><polyline fill="none" points="77.6678,41.6542 62.9153,42.9559 53.8034,45.5593" stroke="#cc0000" stroke-width="2" /><polyline fill="none" points="78.1017,45.9932 61.1797,64.6508" stroke="#7f0000" stroke-width="2" /></svg>