<?xml version="1.0" encoding="utf-8" ?>
<svg baseProfile="tiny" height="128" version="1.2" viewBox="0,0,128,128" width="128" xmlns="http://www.w3.org/2000/svg" xmlns:ev="http://www.w3.org/2001/xml-events" xmlns:xlink="http://www.w3.org/1999/xlink"><defs /><polyline fill="none" points="59.4441,34.7119 67.6881,25.1661 77.6678,17.7898 86.7797,17.3559 100.2305,25.1661 102.8339,31.6746 103.2678,38.1831" stroke="#00007f" stroke-width="2" /><polyline fill="none" points="103.2678,38.1831 102.8339,51.2 95.8915,59.878" stroke="#0000ff" stroke-width="2" /><polyline fill="none" points="95.8915,60.3119 85.0441,62.4814 67.6881,62.4814 61.1797,60.3119 53.3695,54.6712 47.2949,45.1254 46.4271,37.3153 53.3695,32.1085 63.3492,29.939" stroke="#0080ff" stroke-width="2" /><polyline fill="none" points="92.8542,18.2237 99.3627,9.5458 101.5322,22.9966" stroke="#15ffe1" stroke-width="2" /><polyline fill="none" points="69.4237,23.8644 62.0475,12.5831 57.7085,19.5254 54.6712,28.6373" stroke="#7cff79" stroke-width="2" /><polyline fill="none" points="94.5898,61.1797 99.7966,72.8949 99.7966,78.9695 91.9864,102.4 89.8169,105.8712 86.7797,107.1729 71.5932,107.1729 65.5186,105.8712 62.4814,102.8339 57.2746,95.8915 52.0678,84.1763 49.8983,68.9898 52.9356,62.9153 58.5763,59.878" stroke="#e4ff12" stroke-width="2" /><polyline fill="none" points="51.6339,85.478 47.7288,91.9864 47.7288,97.1932 50.3322,105.4373 47.7288,106.3051 47.7288,110.2102 60.3119,107.6068 66.3864,104.1356" stroke="#ff9400" stroke-width="2" /><polyline fill="none" points="96.3254,88.0814 107.1729,85.9119 109.3424,101.0983 105.0034,103.2678 117.5864,102.4 118.8881,103.2678 119.322,107.6068 114.5492,110.2102 98.9288,110.6441 88.5153,106.3051" stroke="#ff1d00" stroke-width="2" /><polyline fill="none" points="55.1051,78.9695 47.2949,77.6678 35.1458,71.5932 29.0712,65.0847 23.8644,57.2746 23.4305,45.1254 29.939,29.5051 32.5424,19.0915 28.2034,10.4136 21.6949,8.678 17.7898,9.5458 12.1492,21.261 10.4136,28.2034 8.678,58.5763 9.5458,65.5186 13.0169,70.7254 17.7898,73.7627 40.7864,82.4407 49.0305,84.1763" stroke="#7f0000" stroke-width="2" /></svg>