<?xml version="1.0" encoding="utf-8" ?>
<svg baseProfile="tiny" height="128" version="1.2" viewBox="0,0,128,128" width="128" xmlns="http://www.w3.org/2000/svg" xmlns:ev="http://www.w3.org/2001/xml-events" xmlns:xlink="http://www.w3.org/1999/xlink"><defs /><polyline fill="none" points="34.278,37.7492 29.0712,42.9559 24.2983,51.6339 22.5627,62.4814 22.5627,72.8949 28.6373,91.1186 35.1458,98.061 42.9559,101.9661 50.7661,103.7017 63.3492,103.2678 69.4237,101.5322 84.6102,93.2881 95.4576,85.0441 98.061,80.7051 101.0983,72.8949 101.5322,62.9153 99.3627,55.539 91.5525,43.8237 83.3085,35.5797 70.2915,26.0339 57.2746,21.261 39.0508,20.8271 35.1458,22.5627 33.4102,30.3729" stroke="#00007f" stroke-width="2" /><polyline fill="none" points="22.9966,50.3322 19.0915,36.4475 15.1864,12.1492 39.0508,26.0339 45.9932,26.9017" stroke="#004cff" stroke-width="2" /><polyline fill="none" points="72.0271,29.5051 94.1559,8.678 95.4576,14.7525 89.8169,35.1458 91.1186,45.1254" stroke="#29ffcd" stroke-width="2" /><polyline fill="none" points="39.0508,62.4814 32.5424,61.6136 18.6576,64.2169 12.1492,67.6881 9.5458,71.1593 8.678,78.5356" stroke="#cdff29" stroke-width="2" /><polyline fill="none" points="43.3898,76.8 25.1661,89.8169 20.3932,95.4576 21.261,99.3627" stroke="#ff6700" stroke-width="2" /><polyline fill="none" points="52.5017,91.9864 37.7492,108.4746 34.278,119.322" stroke="#7f0000" stroke-width="2" /></svg>