<?xml version="1.0" encoding="utf-8" ?>
<svg baseProfile="tiny" height="128" version="1.2" viewBox="0,0,128,128" width="128" xmlns="http://www.w3.org/2000/svg" xmlns:ev="http://www.w3.org/2001/xml-events" xmlns:xlink="http://www.w3.org/1999/xlink"><defs /><polyline fill="none" points="27.0853,44.1229 15.727,18.3481" stroke="#00007f" stroke-width="2" /><polyline fill="none" points="24.4642,38.0068 20.5324,16.1638" stroke="#0000d5" stroke-width="2" /><polyline fill="none" points="24.4642,40.628 17.9113,20.9693" stroke="#001cff" stroke-width="2" /><polyline fill="none" points="18.785,17.9113 43.686,32.7645 46.3072,35.3857 45.4334,36.6962 44.9966,25.7747 51.1126,17.4744 60.2867,16.6007 62.471,17.4744 70.3345,26.2116 73.8294,32.3276 73.3925,19.6587 75.1399,15.727 83.4403,10.9215 93.0512,8.7372 102.6621,31.8908 104.4096,52.4232 102.6621,58.5392 90.43,71.2082 84.314,74.2662 78.198,75.5768 55.4812,74.7031 43.2491,71.2082 36.2594,67.2765 22.2799,46.3072 21.843,41.5017 23.1536,38.4437" stroke="#006cff" stroke-width="2" /><polyline fill="none" points="42.3754,51.1126 8.7372,56.7918" stroke="#00b8ff" stroke-width="2" /><polyline fill="none" points="47.6177,56.3549 34.5119,62.471 30.5802,66.4027" stroke="#1cffda" stroke-width="2" /><polyline fill="none" points="50.2389,60.7235 38.4437,78.6348" stroke="#5cff9a" stroke-width="2" /><polyline fill="none" points="90.8669,50.2389 93.0512,47.1809 101.3515,41.5017 119.2628,34.0751" stroke="#9aff5c" stroke-width="2" /><polyline fill="none" points="96.1092,53.2969 110.0887,52.8601" stroke="#daff1c" stroke-width="2" /><polyline fill="none" points="98.7304,62.471 115.7679,67.2765" stroke="#ffcb00" stroke-width="2" /><polyline fill="none" points="61.5973,49.3652 66.4027,51.1126 60.7235,48.9283 62.471,50.2389 61.5973,51.1126 63.3447,50.6758 66.4027,56.3549 64.2184,63.7816 62.0341,64.6553" stroke="#ff8500" stroke-width="2" /><polyline fill="none" points="66.8396,57.6655 76.4505,61.1604" stroke="#ff3b00" stroke-width="2" /><polyline fill="none" points="51.1126,40.1911 50.2389,40.628" stroke="#d50000" stroke-width="2" /><polyline fill="none" points="73.8294,38.8805 71.2082,39.3174 73.3925,40.1911" stroke="#7f0000" stroke-width="2" /></svg>