<?xml version="1.0" encoding="utf-8" ?>
<svg baseProfile="tiny" height="128" version="1.2" viewBox="0,0,128,128" width="128" xmlns="http://www.w3.org/2000/svg" xmlns:ev="http://www.w3.org/2001/xml-events" xmlns:xlink="http://www.w3.org/1999/xlink"><defs /><polyline fill="none" points="32.5424,47.2949 28.6373,50.3322 24.7322,59.878 26.4678,67.6881 33.4102,73.3288 42.522,74.1966 45.1254,73.3288 47.7288,68.5559 48.5966,62.9153 47.2949,51.2 31.6746,43.8237" stroke="#00007f" stroke-width="2" /><polyline fill="none" points="22.9966,49.8983 11.2814,33.4102 9.1119,24.2983 8.678,8.678 13.8847,16.922 23.4305,27.7695 33.4102,45.5593" stroke="#0000fe" stroke-width="2" /><polyline fill="none" points="38.6169,45.5593 49.4644,39.4847 71.1593,24.2983 78.9695,20.8271 78.1017,24.2983 72.0271,33.4102 56.4068,53.3695 51.2,55.539" stroke="#0060ff" stroke-width="2" /><polyline fill="none" points="31.6746,54.2373 31.6746,55.1051" stroke="#00d4ff" stroke-width="2" /><polyline fill="none" points="39.9186,55.1051 39.9186,57.2746 41.6542,55.1051 40.3525,55.9729" stroke="#4cffaa" stroke-width="2" /><polyline fill="none" points="35.1458,59.0102 36.0136,61.6136 33.8441,61.6136" stroke="#aaff4c" stroke-width="2" /><polyline fill="none" points="32.5424,62.4814 30.3729,62.4814" stroke="#ffe500" stroke-width="2" /><polyline fill="none" points="37.7492,62.4814 40.3525,62.9153" stroke="#ff7a00" stroke-width="2" /><polyline fill="none" points="34.7119,64.6508 39.4847,65.5186" stroke="#fe1200" stroke-width="2" /><polyline fill="none" points="30.3729,71.5932 27.7695,82.4407 27.3356,95.0237 27.3356,97.6271 29.5051,99.7966 52.5017,111.9458 63.3492,114.1153 78.1017,114.5492 111.078,106.739 118.0203,100.2305 119.322,91.1186 111.5119,85.0441 105.4373,83.3085 94.5898,80.2712 65.9525,77.6678 46.4271,70.7254" stroke="#7f0000" stroke-width="2" /></svg>