<?xml version="1.0" encoding="utf-8" ?>
<svg baseProfile="tiny" height="128" version="1.2" viewBox="0,0,128,128" width="128" xmlns="http://www.w3.org/2000/svg" xmlns:ev="http://www.w3.org/2001/xml-events" xmlns:xlink="http://www.w3.org/1999/xlink"><defs /><polyline fill="none" points="80.7051,28.6373 77.6678,22.9966 75.4983,21.6949 69.8576,22.1288 62.9153,28.2034 54.6712,41.2203 53.8034,54.6712 56.8407,60.3119 59.878,62.4814 66.8203,63.7831 69.8576,60.7458 76.8,53.3695 83.3085,42.522 84.6102,29.5051 82.8746,26.9017 80.7051,26.0339" stroke="#00007f" stroke-width="2" /><polyline fill="none" points="63.3492,35.1458 64.6508,44.2576" stroke="#0028ff" stroke-width="2" /><polyline fill="none" points="77.2339,32.1085 76.3661,40.3525" stroke="#00d4ff" stroke-width="2" /><polyline fill="none" points="64.6508,29.0712 62.9153,25.6 61.6136,18.6576 61.6136,10.4136 63.3492,9.1119 65.9525,10.4136 69.4237,22.5627 71.5932,25.6" stroke="#7cff79" stroke-width="2" /><polyline fill="none" points="83.3085,28.6373 80.7051,28.2034 80.7051,16.922 82.4407,9.9797 84.6102,8.678 86.3458,10.8475 86.3458,21.6949 84.6102,25.1661" stroke="#ffe500" stroke-width="2" /><polyline fill="none" points="57.2746,48.1627 33.8441,47.2949 27.7695,50.7661 23.8644,56.4068 15.6203,75.4983 13.8847,76.3661 12.1492,74.1966 11.2814,65.0847 18.6576,51.2 22.1288,24.7322 22.1288,15.1864 19.9593,14.3186 17.3559,18.2237 9.5458,56.4068 8.678,82.8746 9.9797,88.0814 12.1492,88.9492 14.7525,88.9492 21.261,84.1763 23.4305,84.1763 22.5627,116.2847 28.2034,96.7593 32.1085,89.8169 34.278,88.5153 36.4475,90.6847 39.9186,111.078 42.522,119.322 43.8237,95.8915 46.861,91.9864 52.5017,94.1559 59.878,108.9085 60.3119,101.0983 57.7085,81.139 63.3492,80.7051 67.6881,82.8746 72.8949,88.0814 77.2339,96.3254 71.1593,73.7627 70.7254,62.9153 72.8949,60.3119" stroke="#ff4600" stroke-width="2" /><polyline fill="none" points="67.2542,48.5966 62.9153,55.9729 63.7831,60.7458 67.2542,60.3119 70.7254,56.4068 73.3288,48.5966" stroke="#7f0000" stroke-width="2" /></svg>