<?xml version="1.0" encoding="utf-8" ?>
<svg baseProfile="tiny" height="128" version="1.2" viewBox="0,0,128,128" width="128" xmlns="http://www.w3.org/2000/svg" xmlns:ev="http://www.w3.org/2001/xml-events" xmlns:xlink="http://www.w3.org/1999/xlink"><defs /><polyline fill="none" points="12.5831,53.8034 15.1864,36.4475 12.5831,26.9017 13.4508,24.7322 32.5424,51.2 33.8441,51.6339 42.0881,45.5593 47.7288,43.8237 76.8,60.3119 74.1966,55.1051 75.4983,52.5017 94.1559,19.5254 97.1932,8.678 115.8508,47.2949" stroke="#00007f" stroke-width="2" /><polyline fill="none" points="12.1492,52.9356 8.678,65.9525 13.4508,74.6305 17.3559,78.5356 31.6746,87.2136 43.8237,91.9864 59.0102,95.4576 69.8576,95.4576 89.3831,91.1186 101.9661,79.8373 106.739,72.461 110.6441,62.9153 118.0203,52.9356 119.322,48.1627 114.9831,42.522" stroke="#0000fe" stroke-width="2" /><polyline fill="none" points="42.522,68.5559 40.7864,68.9898 44.2576,68.122 45.5593,65.5186 42.0881,68.122 42.9559,65.0847 41.6542,63.7831 40.7864,65.5186 42.0881,68.122 43.8237,64.2169" stroke="#0060ff" stroke-width="2" /><polyline fill="none" points="86.3458,67.2542 87.2136,65.0847 85.0441,63.7831 78.5356,68.5559 78.9695,69.4237 80.7051,68.9898 84.6102,66.8203 86.7797,63.7831 86.3458,62.0475 84.6102,64.6508 84.6102,67.6881 85.478,65.9525 84.1763,65.0847 83.3085,66.8203 82.8746,64.2169 79.8373,65.5186" stroke="#00d4ff" stroke-width="2" /><polyline fill="none" points="51.2,83.7424 59.878,87.6475 65.9525,88.9492 72.0271,86.7797 76.3661,82.0068" stroke="#4cffaa" stroke-width="2" /><polyline fill="none" points="44.6915,75.9322 26.9017,74.6305 16.0542,72.461" stroke="#aaff4c" stroke-width="2" /><polyline fill="none" points="40.3525,78.9695 23.8644,78.9695 9.9797,76.8" stroke="#ffe500" stroke-width="2" /><polyline fill="none" points="40.3525,82.4407 29.939,84.1763 19.9593,83.3085" stroke="#ff7a00" stroke-width="2" /><polyline fill="none" points="82.4407,74.1966 105.8712,62.9153 110.2102,62.4814" stroke="#fe1200" stroke-width="2" /><polyline fill="none" points="88.0814,75.9322 119.322,60.7458" stroke="#7f0000" stroke-width="2" /></svg>