<?xml version="1.0" encoding="utf-8" ?>
<svg baseProfile="tiny" height="128" version="1.2" viewBox="0,0,128,128" width="128" xmlns="http://www.w3.org/2000/svg" xmlns:ev="http://www.w3.org/2001/xml-events" xmlns:xlink="http://www.w3.org/1999/xlink"><defs /><polyline fill="none" points="31.2407,39.9186 16.0542,40.3525 10.8475,47.2949 9.1119,54.6712 9.5458,61.6136 12.5831,65.0847 21.6949,69.8576 29.939,71.5932 41.6542,62.4814 42.9559,57.2746 39.0508,50.7661 29.5051,44.6915 28.6373,39.9186" stroke="#00007f" stroke-width="2" /><polyline fill="none" points="28.6373,39.9186 29.0712,37.3153 38.1831,26.9017 49.8983,8.678 42.522,31.2407 34.278,49.8983" stroke="#0000b6" stroke-width="2" /><polyline fill="none" points="20.3932,39.9186 13.8847,22.1288 9.9797,17.7898 8.678,13.4508 9.1119,25.1661 13.0169,43.3898" stroke="#0000f1" stroke-width="2" /><polyline fill="none" points="17.7898,48.1627 13.4508,48.1627 13.0169,49.8983 15.6203,50.7661 19.9593,47.2949" stroke="#0018ff" stroke-width="2" /><polyline fill="none" points="25.1661,46.861 25.1661,46.861" stroke="#004cff" stroke-width="2" /><polyline fill="none" points="19.5254,53.3695 24.7322,53.3695" stroke="#0080ff" stroke-width="2" /><polyline fill="none" points="14.7525,57.7085 25.1661,60.3119 31.2407,58.1424" stroke="#00b0ff" stroke-width="2" /><polyline fill="none" points="19.0915,55.9729 14.3186,56.4068" stroke="#00e4f7" stroke-width="2" /><polyline fill="none" points="19.0915,54.2373 16.922,54.6712" stroke="#29ffcd" stroke-width="2" /><polyline fill="none" points="21.6949,53.3695 20.3932,57.7085" stroke="#53ffa3" stroke-width="2" /><polyline fill="none" points="22.5627,53.3695 24.2983,54.2373" stroke="#7cff79" stroke-width="2" /><polyline fill="none" points="24.2983,54.2373 29.939,54.2373" stroke="#a3ff53" stroke-width="2" /><polyline fill="none" points="25.6,54.2373 24.7322,55.539" stroke="#cdff29" stroke-width="2" /><polyline fill="none" points="23.4305,55.1051 22.1288,60.7458" stroke="#f7f400" stroke-width="2" /><polyline fill="none" points="21.261,56.8407 21.261,60.7458" stroke="#ffc400" stroke-width="2" /><polyline fill="none" points="38.1831,52.0678 78.5356,52.0678 83.3085,50.7661" stroke="#ff9400" stroke-width="2" /><polyline fill="none" points="37.3153,65.9525 36.4475,67.6881 37.7492,68.122 85.9119,68.9898" stroke="#ff6700" stroke-width="2" /><polyline fill="none" points="45.5593,69.4237 45.5593,85.9119 43.8237,88.5153 37.3153,91.1186" stroke="#ff3700" stroke-width="2" /><polyline fill="none" points="64.2169,69.8576 67.2542,89.3831 58.1424,93.722 55.9729,93.722 55.9729,91.1186" stroke="#f10700" stroke-width="2" /><polyline fill="none" points="82.8746,49.0305 85.9119,74.1966" stroke="#b60000" stroke-width="2" /><polyline fill="none" points="83.7424,61.1797 91.9864,57.7085 105.0034,57.2746 119.322,61.6136" stroke="#7f0000" stroke-width="2" /></svg>