<?xml version="1.0" encoding="utf-8" ?>
<svg baseProfile="tiny" height="128" version="1.2" viewBox="0,0,128,128" width="128" xmlns="http://www.w3.org/2000/svg" xmlns:ev="http://www.w3.org/2001/xml-events" xmlns:xlink="http://www.w3.org/1999/xlink"><defs /><polyline fill="none" points="29.939,46.4271 13.4508,19.9593 11.7153,12.5831 40.7864,38.6169" stroke="#00007f" stroke-width="2" /><polyline fill="none" points="41.6542,38.6169 43.3898,32.1085 50.7661,24.2983 59.0102,20.8271 68.5559,20.3932 74.6305,21.6949 81.5729,26.0339 86.7797,33.8441 89.8169,42.9559" stroke="#0000cc" stroke-width="2" /><polyline fill="none" points="87.6475,31.2407 98.4949,18.6576 110.2102,9.5458 114.5492,8.678 118.4542,9.9797 119.322,13.8847 117.5864,18.6576 114.1153,25.1661 105.0034,32.1085 94.1559,36.4475 85.478,36.8814" stroke="#0008ff" stroke-width="2" /><polyline fill="none" points="44.6915,32.9763 36.4475,27.7695 22.9966,15.1864 16.922,13.0169 10.8475,13.8847 8.678,17.7898 9.5458,21.261 25.6,45.9932" stroke="#004cff" stroke-width="2" /><polyline fill="none" points="62.9153,49.4644 61.6136,48.1627 58.5763,49.4644 64.2169,49.8983 62.0475,48.1627 59.878,49.4644" stroke="#0090ff" stroke-width="2" /><polyline fill="none" points="56.4068,47.2949 49.0305,46.861 39.0508,50.3322 30.3729,55.539 24.7322,62.0475" stroke="#00d4ff" stroke-width="2" /><polyline fill="none" points="53.8034,49.8983 33.4102,66.8203" stroke="#29ffcd" stroke-width="2" /><polyline fill="none" points="54.6712,52.5017 40.3525,78.1017" stroke="#5fff96" stroke-width="2" /><polyline fill="none" points="65.5186,47.7288 65.5186,49.4644 67.6881,49.8983 92.4203,51.2 102.4,55.539 106.3051,59.0102 106.3051,60.3119" stroke="#96ff5f" stroke-width="2" /><polyline fill="none" points="68.122,53.3695 72.8949,55.1051 81.5729,63.7831 86.3458,70.2915 87.6475,75.0644" stroke="#cdff29" stroke-width="2" /><polyline fill="none" points="66.3864,58.5763 76.3661,68.5559 86.7797,81.5729" stroke="#ffe500" stroke-width="2" /><polyline fill="none" points="35.1458,42.0881 43.3898,52.9356" stroke="#ffa600" stroke-width="2" /><polyline fill="none" points="52.5017,55.539 60.7458,65.9525 64.6508,68.122 71.1593,63.3492 81.139,50.3322" stroke="#ff6700" stroke-width="2" /><polyline fill="none" points="88.5153,41.2203 80.7051,49.8983" stroke="#ff2800" stroke-width="2" /><polyline fill="none" points="45.1254,38.1831 50.7661,36.0136 53.3695,38.6169 53.3695,37.7492 51.6339,36.8814 47.7288,38.1831 51.6339,39.0508 54.2373,38.1831 53.3695,36.8814 45.5593,37.3153 48.5966,38.1831 55.9729,37.7492 46.861,36.8814 49.8983,36.4475 49.0305,39.0508 50.3322,37.3153" stroke="#cc0000" stroke-width="2" /><polyline fill="none" points="76.8,33.4102 70.7254,33.4102 65.5186,35.5797 65.5186,37.3153 67.6881,38.6169 76.8,39.9186 82.4407,39.0508 82.8746,37.3153 80.7051,36.0136 71.1593,34.278 70.2915,36.0136 73.3288,38.1831 74.6305,37.3153 74.6305,34.278 73.3288,38.1831 74.6305,34.7119 75.0644,39.4847 74.6305,36.0136 73.3288,38.6169" stroke="#7f0000" stroke-width="2" /></svg>