<?xml version="1.0" encoding="utf-8" ?>
<svg baseProfile="tiny" height="128" version="1.2" viewBox="0,0,128,128" width="128" xmlns="http://www.w3.org/2000/svg" xmlns:ev="http://www.w3.org/2001/xml-events" xmlns:xlink="http://www.w3.org/1999/xlink"><defs /><polyline fill="none" points="17.3559,73.7627 13.8847,27.7695 22.9966,35.1458 29.0712,45.9932 43.3898,36.0136 54.2373,35.1458 66.3864,37.7492 75.9322,42.522 81.5729,47.7288 85.9119,54.2373 88.0814,8.678 94.1559,23.8644 98.9288,42.0881 99.3627,49.4644 91.1186,66.8203 85.0441,74.6305 78.5356,78.5356 69.8576,82.0068 44.6915,85.478 19.0915,81.139 14.3186,78.5356 13.4508,74.1966" stroke="#00007f" stroke-width="2" /><polyline fill="none" points="28.6373,77.6678 8.678,76.8" stroke="#004cff" stroke-width="2" /><polyline fill="none" points="26.0339,81.5729 9.1119,95.0237" stroke="#29ffcd" stroke-width="2" /><polyline fill="none" points="33.8441,81.5729 23.4305,119.322" stroke="#cdff29" stroke-width="2" /><polyline fill="none" points="89.3831,66.8203 108.4746,69.8576" stroke="#ff6700" stroke-width="2" /><polyline fill="none" points="85.0441,72.461 91.1186,75.4983" stroke="#7f0000" stroke-width="2" /></svg>