<?xml version="1.0" encoding="utf-8" ?>
<svg baseProfile="tiny" height="128" version="1.2" viewBox="0,0,128,128" width="128" xmlns="http://www.w3.org/2000/svg" xmlns:ev="http://www.w3.org/2001/xml-events" xmlns:xlink="http://www.w3.org/1999/xlink"><defs /><polyline fill="none" points="46.861,13.8847 39.0508,23.8644 38.6169,32.5424 39.9186,36.0136 47.2949,39.4847 65.9525,40.7864 70.2915,34.278 70.7254,25.6 62.9153,14.3186 59.0102,11.2814 49.4644,8.678" stroke="#00007f" stroke-width="2" /><polyline fill="none" points="60.7458,22.9966 92.4203,9.9797" stroke="#0000ff" stroke-width="2" /><polyline fill="none" points="62.9153,26.9017 87.6475,21.261" stroke="#0080ff" stroke-width="2" /><polyline fill="none" points="64.6508,31.2407 82.8746,35.5797" stroke="#15ffe1" stroke-width="2" /><polyline fill="none" points="41.2203,26.4678 8.678,20.8271" stroke="#7cff79" stroke-width="2" /><polyline fill="none" points="42.9559,32.1085 19.0915,32.5424" stroke="#e4ff12" stroke-width="2" /><polyline fill="none" points="45.9932,36.0136 37.7492,45.1254" stroke="#ff9400" stroke-width="2" /><polyline fill="none" points="59.4441,39.4847 55.1051,51.2 54.2373,63.3492 59.4441,70.7254 66.8203,74.6305 89.8169,74.6305 115.8508,68.9898 119.322,65.9525 101.9661,52.9356 64.6508,41.6542 59.0102,37.7492" stroke="#ff1d00" stroke-width="2" /><polyline fill="none" points="69.8576,72.8949 69.8576,109.7763" stroke="#7f0000" stroke-width="2" /></svg>