<?xml version="1.0" encoding="utf-8" ?>
<svg baseProfile="tiny" height="128" version="1.2" viewBox="0,0,128,128" width="128" xmlns="http://www.w3.org/2000/svg" xmlns:ev="http://www.w3.org/2001/xml-events" xmlns:xlink="http://www.w3.org/1999/xlink"><defs /><polyline fill="none" points="13.8847,23.4305 17.7898,8.678 25.6,19.5254 36.8814,14.3186 51.2,13.4508 65.0847,17.7898 68.9898,21.6949 69.4237,24.7322 78.9695,13.4508 80.7051,29.0712 73.7627,44.2576 70.7254,47.7288 66.3864,49.0305 50.7661,47.7288 24.7322,36.0136 11.7153,27.3356 8.678,22.9966 9.1119,20.3932" stroke="#00007f" stroke-width="2" /><polyline fill="none" points="35.1458,16.4881 35.1458,26.4678" stroke="#0000f1" stroke-width="2" /><polyline fill="none" points="44.6915,15.6203 44.2576,27.3356" stroke="#004cff" stroke-width="2" /><polyline fill="none" points="30.3729,27.7695 32.1085,33.4102 36.8814,35.5797 38.1831,35.5797 39.0508,33.4102 39.0508,29.0712 42.0881,36.0136 48.5966,29.0712" stroke="#00b0ff" stroke-width="2" /><polyline fill="none" points="34.7119,28.2034 31.2407,27.7695 22.1288,22.1288" stroke="#29ffcd" stroke-width="2" /><polyline fill="none" points="37.3153,32.5424 20.8271,33.8441 12.1492,36.0136" stroke="#7cff79" stroke-width="2" /><polyline fill="none" points="35.1458,28.6373 29.5051,30.8068 13.4508,30.8068" stroke="#cdff29" stroke-width="2" /><polyline fill="none" points="44.6915,29.0712 59.4441,32.5424" stroke="#ffc400" stroke-width="2" /><polyline fill="none" points="42.0881,32.9763 59.878,37.3153" stroke="#ff6700" stroke-width="2" /><polyline fill="none" points="80.2712,36.4475 101.0983,35.5797 114.5492,39.0508 119.322,41.6542 118.0203,45.5593 114.9831,49.0305 105.8712,53.3695 82.0068,53.3695 65.5186,52.5017 60.7458,48.5966" stroke="#f10700" stroke-width="2" /><polyline fill="none" points="71.1593,51.2 71.1593,56.4068 65.0847,57.2746 64.6508,52.0678 67.6881,49.4644" stroke="#7f0000" stroke-width="2" /></svg>