<?xml version="1.0" encoding="utf-8" ?>
<svg baseProfile="tiny" height="128" version="1.2" viewBox="0,0,128,128" width="128" xmlns="http://www.w3.org/2000/svg" xmlns:ev="http://www.w3.org/2001/xml-events" xmlns:xlink="http://www.w3.org/1999/xlink"><defs /><polyline fill="none" points="8.678,67.6881 18.6576,64.2169 40.7864,59.878 69.4237,59.0102 82.0068,59.878 89.3831,62.4814 94.1559,67.2542 97.1932,73.3288 98.061,88.9492 96.3254,97.6271 91.5525,106.3051 86.3458,111.9458 72.0271,118.4542 51.2,119.322 39.9186,117.5864 24.7322,110.2102 17.3559,102.4 11.7153,86.7797 9.1119,72.0271 9.1119,64.2169 11.2814,61.1797" stroke="#00007f" stroke-width="2" /><polyline fill="none" points="11.2814,61.1797 12.1492,38.1831 16.922,22.5627 20.8271,13.0169 24.2983,8.678 26.0339,14.7525 26.9017,25.1661 27.7695,75.9322" stroke="#0010ff" stroke-width="2" /><polyline fill="none" points="69.8576,58.1424 81.139,29.5051 89.8169,14.7525 90.2508,32.9763 88.0814,49.8983 82.4407,68.9898" stroke="#00a4ff" stroke-width="2" /><polyline fill="none" points="35.5797,79.8373 45.9932,79.8373" stroke="#3fffb7" stroke-width="2" /><polyline fill="none" points="70.2915,78.5356 69.8576,81.5729" stroke="#b7ff3f" stroke-width="2" /><polyline fill="none" points="49.8983,92.4203 56.8407,91.5525 60.3119,94.5898 59.878,97.6271 54.2373,98.4949 50.7661,96.3254 50.7661,94.1559" stroke="#ffb900" stroke-width="2" /><polyline fill="none" points="52.5017,96.7593 51.2,103.7017 45.5593,104.5695 45.5593,101.9661" stroke="#ff3000" stroke-width="2" /><polyline fill="none" points="50.3322,99.7966 54.2373,104.5695 56.4068,105.0034 61.6136,101.9661" stroke="#7f0000" stroke-width="2" /></svg>