<?xml version="1.0" encoding="utf-8" ?>
<svg baseProfile="tiny" height="128" version="1.2" viewBox="0,0,128,128" width="128" xmlns="http://www.w3.org/2000/svg" xmlns:ev="http://www.w3.org/2001/xml-events" xmlns:xlink="http://www.w3.org/1999/xlink"><defs /><polyline fill="none" points="99.3627,55.539 95.8915,48.5966 88.5153,38.6169 82.8746,31.6746 77.6678,28.2034 71.5932,26.0339 55.1051,27.3356 40.3525,36.8814 32.5424,48.5966 27.7695,68.122 28.6373,81.5729 36.8814,94.1559 44.2576,99.3627 52.5017,102.4 76.8,103.7017 84.6102,100.2305 98.9288,89.8169 104.5695,76.8 104.5695,63.3492 101.0983,52.5017 95.0237,41.6542" stroke="#00007f" stroke-width="2" /><polyline fill="none" points="97.1932,41.6542 86.7797,8.678 84.1763,11.2814 80.7051,21.6949" stroke="#0000fe" stroke-width="2" /><polyline fill="none" points="33.8441,35.5797 33.4102,23.8644 31.2407,18.6576 28.6373,20.8271 28.2034,44.2576 30.3729,46.4271" stroke="#0060ff" stroke-width="2" /><polyline fill="none" points="25.6,75.4983 8.678,75.9322" stroke="#00d4ff" stroke-width="2" /><polyline fill="none" points="28.2034,79.4034 18.6576,83.3085" stroke="#4cffaa" stroke-width="2" /><polyline fill="none" points="31.6746,88.0814 29.939,97.1932" stroke="#aaff4c" stroke-width="2" /><polyline fill="none" points="104.5695,70.2915 118.8881,58.1424" stroke="#ffe500" stroke-width="2" /><polyline fill="none" points="106.3051,72.461 119.322,82.0068" stroke="#ff7a00" stroke-width="2" /><polyline fill="none" points="103.7017,82.4407 115.4169,90.2508" stroke="#fe1200" stroke-width="2" /><polyline fill="none" points="64.6508,71.1593 69.8576,69.8576" stroke="#7f0000" stroke-width="2" /></svg>