<?xml version="1.0" encoding="utf-8" ?>
<svg baseProfile="tiny" height="128" version="1.2" viewBox="0,0,128,128" width="128" xmlns="http://www.w3.org/2000/svg" xmlns:ev="http://www.w3.org/2001/xml-events" xmlns:xlink="http://www.w3.org/1999/xlink"><defs /><polyline fill="none" points="26.5578,35.7007 29.6054,33.0884 33.5238,26.1224 33.9592,13.0612 40.0544,8.7075 46.1497,9.1429 48.7619,14.8027 50.068,34.3946 58.3401,30.9116 74.8844,30.0408 79.2381,30.9116 83.1565,33.9592 87.0748,39.1837 95.3469,33.9592 106.2313,23.5102 119.2925,17.415 117.551,23.5102 110.585,33.9592 106.2313,45.2789" stroke="#00007f" stroke-width="2" /><polyline fill="none" points="26.5578,34.3946 26.1224,60.0816 30.9116,72.2721 43.102,86.2041 52.2449,89.6871 58.7755,89.2517 74.8844,83.1565 86.6395,74.0136 92.7347,64.0 100.5714,45.2789 103.1837,43.5374" stroke="#0000fe" stroke-width="2" /><polyline fill="none" points="47.0204,43.5374 48.3265,44.4082 49.1973,43.5374" stroke="#0060ff" stroke-width="2" /><polyline fill="none" points="72.7075,44.8435 73.1429,48.3265 77.0612,47.4558" stroke="#00d4ff" stroke-width="2" /><polyline fill="none" points="63.1293,69.6599 75.7551,65.3061 89.2517,57.4694" stroke="#4cffaa" stroke-width="2" /><polyline fill="none" points="66.6122,70.966 85.3333,69.6599" stroke="#aaff4c" stroke-width="2" /><polyline fill="none" points="62.6939,73.5782 70.0952,77.0612 77.0612,77.4966 80.9796,79.2381" stroke="#ffe500" stroke-width="2" /><polyline fill="none" points="49.1973,62.2585 40.4898,59.6463 17.415,56.5986" stroke="#ff7a00" stroke-width="2" /><polyline fill="none" points="46.1497,61.8231 18.7211,72.7075 8.7075,74.449 10.8844,75.3197 15.2381,74.0136" stroke="#fe1200" stroke-width="2" /><polyline fill="none" points="46.585,62.2585 44.4082,62.6939 35.7007,77.0612 27.8639,83.5918" stroke="#7f0000" stroke-width="2" /></svg>