<?xml version="1.0" encoding="utf-8" ?>
<svg baseProfile="tiny" height="128" version="1.2" viewBox="0,0,128,128" width="128" xmlns="http://www.w3.org/2000/svg" xmlns:ev="http://www.w3.org/2001/xml-events" xmlns:xlink="http://www.w3.org/1999/xlink"><defs /><polyline fill="none" points="82.0068,13.8847 68.9898,20.8271 53.3695,31.2407 45.1254,40.3525 39.4847,50.3322 37.3153,60.3119 39.0508,68.122 46.861,75.0644 55.9729,78.5356 65.0847,78.9695 74.1966,76.8 84.6102,70.7254 92.4203,59.878 98.9288,40.3525 98.061,30.8068 95.0237,22.9966 83.7424,12.5831 70.7254,8.678 58.5763,11.2814" stroke="#00007f" stroke-width="2" /><polyline fill="none" points="70.2915,30.3729 67.2542,30.8068 65.0847,32.9763 62.0475,39.4847 63.7831,45.5593 65.5186,45.9932 68.122,44.2576 69.8576,38.1831 66.3864,34.278" stroke="#0000de" stroke-width="2" /><polyline fill="none" points="91.9864,32.1085 88.9492,31.6746 84.6102,34.7119 79.4034,42.0881 79.4034,44.6915 81.139,46.861 85.9119,47.2949 90.6847,43.8237 91.9864,38.6169 90.2508,34.7119 84.1763,34.278" stroke="#0028ff" stroke-width="2" /><polyline fill="none" points="59.4441,55.539 74.6305,56.8407 77.2339,59.878 76.8,62.4814 69.8576,65.5186 64.6508,65.9525 59.0102,55.9729" stroke="#0080ff" stroke-width="2" /><polyline fill="none" points="65.0847,67.6881 62.9153,72.0271 52.0678,74.6305 46.4271,72.0271 46.4271,68.9898 48.5966,67.2542" stroke="#00d4ff" stroke-width="2" /><polyline fill="none" points="67.2542,65.9525 65.5186,68.122 67.2542,76.3661 72.0271,76.8 75.4983,71.5932" stroke="#36ffc0" stroke-width="2" /><polyline fill="none" points="76.3661,70.7254 116.2847,59.878" stroke="#7cff79" stroke-width="2" /><polyline fill="none" points="85.478,72.0271 101.0983,73.3288 119.322,77.2339" stroke="#c0ff36" stroke-width="2" /><polyline fill="none" points="77.2339,77.6678 109.7763,85.9119" stroke="#ffe500" stroke-width="2" /><polyline fill="none" points="52.0678,62.9153 38.1831,61.6136 29.5051,63.3492 21.6949,68.9898 15.6203,78.5356" stroke="#ff9400" stroke-width="2" /><polyline fill="none" points="45.5593,68.9898 34.7119,69.8576 22.9966,74.1966 13.4508,82.8746 8.678,92.4203" stroke="#ff4600" stroke-width="2" /><polyline fill="none" points="46.4271,72.8949 28.2034,83.7424 13.8847,96.3254" stroke="#de0000" stroke-width="2" /><polyline fill="none" points="49.8983,77.2339 39.0508,98.4949 39.0508,105.8712 43.8237,109.7763" stroke="#7f0000" stroke-width="2" /></svg>