<?xml version="1.0" encoding="utf-8" ?>
<svg baseProfile="tiny" height="128" version="1.2" viewBox="0,0,128,128" width="128" xmlns="http://www.w3.org/2000/svg" xmlns:ev="http://www.w3.org/2001/xml-events" xmlns:xlink="http://www.w3.org/1999/xlink"><defs /><polyline fill="none" points="27.8639,50.5034 23.5102,52.6803 18.2857,65.3061 16.1088,75.7551 16.5442,92.7347 19.5918,98.8299 28.7347,107.5374 44.4082,117.1156 53.1156,119.2925 73.5782,118.8571 87.9456,111.8912 91.4286,108.8435 95.3469,103.1837 98.3946,94.9116 100.5714,81.415 100.1361,65.3061 97.0884,57.4694 85.3333,47.4558 86.2041,14.3673 84.4626,9.1429 82.2857,8.7075 76.6259,16.9796 70.5306,33.5238 66.6122,49.6327 63.5646,50.5034 48.3265,50.068 41.7959,26.1224 34.8299,13.4966 28.7347,8.7075 26.9932,23.9456 26.9932,50.5034 28.2993,52.6803" stroke="#00007f" stroke-width="2" /><polyline fill="none" points="35.7007,48.3265 34.8299,31.7823" stroke="#0000f1" stroke-width="2" /><polyline fill="none" points="77.0612,45.2789 80.9796,25.2517" stroke="#004cff" stroke-width="2" /><polyline fill="none" points="59.2109,81.415 56.1633,83.1565 57.9048,85.3333 60.517,85.3333 62.2585,83.1565 60.0816,83.1565 58.3401,90.5578 54.4218,95.7823 50.5034,98.3946 43.5374,98.8299 43.5374,94.9116 50.5034,92.7347" stroke="#00b0ff" stroke-width="2" /><polyline fill="none" points="56.1633,86.6395 58.3401,92.2993 65.7415,98.3946 76.6259,99.7007 80.1088,98.8299 81.415,97.0884" stroke="#29ffcd" stroke-width="2" /><polyline fill="none" points="69.2245,88.381 94.9116,79.2381" stroke="#7cff79" stroke-width="2" /><polyline fill="none" points="67.0476,93.6054 101.4422,89.6871" stroke="#cdff29" stroke-width="2" /><polyline fill="none" points="70.5306,95.7823 84.898,95.3469 109.7143,104.4898" stroke="#ffc400" stroke-width="2" /><polyline fill="none" points="42.6667,90.5578 32.6531,90.1224 8.7075,97.9592" stroke="#ff6700" stroke-width="2" /><polyline fill="none" points="46.1497,93.6054 36.1361,96.6531 23.0748,104.4898" stroke="#f10700" stroke-width="2" /><polyline fill="none" points="50.5034,95.7823 44.4082,97.0884 25.6871,113.1973" stroke="#7f0000" stroke-width="2" /></svg>