<?xml version="1.0" encoding="utf-8" ?>
<svg baseProfile="tiny" height="128" version="1.2" viewBox="0,0,128,128" width="128" xmlns="http://www.w3.org/2000/svg" xmlns:ev="http://www.w3.org/2001/xml-events" xmlns:xlink="http://www.w3.org/1999/xlink"><defs /><polyline fill="none" points="30.8068,43.8237 20.3932,45.9932 13.0169,52.9356 8.678,69.4237 8.678,83.7424 13.8847,98.061 23.4305,109.7763 29.939,114.1153 38.6169,116.7186 73.7627,117.5864 84.6102,114.5492 94.1559,109.7763 106.3051,99.7966 111.078,89.8169 111.078,78.5356 106.739,72.0271 91.9864,55.9729 68.122,39.9186 59.0102,36.4475 37.3153,34.7119 26.4678,43.3898" stroke="#00007f" stroke-width="2" /><polyline fill="none" points="43.8237,23.8644 40.3525,26.4678" stroke="#0000f1" stroke-width="2" /><polyline fill="none" points="18.2237,52.9356 20.3932,10.8475 30.3729,26.0339 35.5797,37.7492 39.4847,41.2203" stroke="#004cff" stroke-width="2" /><polyline fill="none" points="82.4407,48.5966 81.139,44.2576 81.139,25.6 81.5729,16.0542 83.7424,8.678 89.3831,21.261 95.0237,50.7661 96.7593,53.3695" stroke="#00b0ff" stroke-width="2" /><polyline fill="none" points="61.6136,83.3085 62.4814,80.7051 61.6136,82.0068" stroke="#29ffcd" stroke-width="2" /><polyline fill="none" points="59.878,85.0441 43.3898,91.1186" stroke="#7cff79" stroke-width="2" /><polyline fill="none" points="49.0305,84.6102 43.8237,83.3085 21.261,83.3085" stroke="#cdff29" stroke-width="2" /><polyline fill="none" points="33.8441,72.461 29.0712,68.9898 48.5966,77.2339 64.6508,80.2712 70.7254,83.3085" stroke="#ffc400" stroke-width="2" /><polyline fill="none" points="59.4441,91.1186 82.0068,84.6102 119.322,78.1017" stroke="#ff6700" stroke-width="2" /><polyline fill="none" points="58.5763,90.6847 81.5729,85.9119 109.3424,83.7424" stroke="#f10700" stroke-width="2" /><polyline fill="none" points="65.9525,89.3831 89.8169,97.1932" stroke="#7f0000" stroke-width="2" /></svg>