<?xml version="1.0" encoding="utf-8" ?>
<svg baseProfile="tiny" height="128" version="1.2" viewBox="0,0,128,128" width="128" xmlns="http://www.w3.org/2000/svg" xmlns:ev="http://www.w3.org/2001/xml-events" xmlns:xlink="http://www.w3.org/1999/xlink"><defs /><polyline fill="none" points="100.2305,40.7864 98.4949,38.1831 92.8542,33.8441 79.8373,31.2407 82.8746,29.5051 67.2542,26.0339 46.861,26.4678 33.8441,31.6746 28.2034,36.0136 23.8644,41.2203 19.5254,50.7661 18.2237,58.5763 18.2237,74.1966 23.8644,88.9492 34.278,99.3627 42.0881,103.2678 59.878,106.3051 75.4983,106.739 82.8746,105.4373 96.7593,100.2305 109.3424,92.8542 113.2475,84.6102 113.6814,70.7254 109.3424,55.539 105.0034,47.7288 94.1559,35.1458 82.4407,26.0339 76.3661,22.5627 72.0271,21.6949 67.2542,21.6949 62.9153,23.8644 60.3119,30.3729" stroke="#00007f" stroke-width="2" /><polyline fill="none" points="62.0475,71.1593 57.7085,74.6305 53.3695,75.9322 55.9729,77.6678 53.3695,83.7424 68.5559,84.1763 62.4814,71.1593" stroke="#0000d5" stroke-width="2" /><polyline fill="none" points="21.6949,47.7288 22.1288,52.0678 26.4678,58.5763 35.1458,62.9153 41.6542,62.9153 45.9932,60.7458 50.3322,55.539 50.3322,50.3322 43.8237,46.4271 31.6746,45.9932 28.2034,46.861 25.6,50.3322 25.6,53.3695 27.3356,55.1051" stroke="#001cff" stroke-width="2" /><polyline fill="none" points="76.8,53.3695 75.0644,53.3695 73.7627,57.7085 77.2339,63.7831 88.0814,66.8203 97.1932,65.9525 99.3627,64.2169 101.0983,60.3119 100.2305,55.9729 96.3254,52.9356 87.2136,48.5966 78.9695,49.0305 72.8949,56.8407" stroke="#006cff" stroke-width="2" /><polyline fill="none" points="47.7288,73.7627 37.7492,68.9898 20.3932,67.2542 23.8644,65.9525 14.3186,65.9525" stroke="#00b8ff" stroke-width="2" /><polyline fill="none" points="46.861,77.2339 43.8237,75.9322 16.0542,75.9322 22.9966,76.3661 18.6576,78.9695 15.1864,83.7424" stroke="#1cffda" stroke-width="2" /><polyline fill="none" points="51.2,81.139 25.6,82.4407 28.2034,84.6102 17.7898,91.1186 13.0169,96.7593" stroke="#5cff9a" stroke-width="2" /><polyline fill="none" points="54.6712,89.8169 18.6576,96.7593 27.3356,99.7966 19.5254,105.0034" stroke="#9aff5c" stroke-width="2" /><polyline fill="none" points="72.0271,74.6305 74.6305,76.8 78.5356,77.2339 112.3797,77.2339 113.6814,75.4983" stroke="#daff1c" stroke-width="2" /><polyline fill="none" points="78.9695,85.9119 88.5153,85.478 111.5119,93.2881" stroke="#ffcb00" stroke-width="2" /><polyline fill="none" points="76.8,86.7797 90.6847,101.5322 97.6271,106.3051" stroke="#ff8500" stroke-width="2" /><polyline fill="none" points="80.2712,80.2712 96.7593,82.4407" stroke="#ff3b00" stroke-width="2" /><polyline fill="none" points="85.0441,31.2407 90.6847,24.7322 101.9661,17.7898 108.9085,14.3186 119.322,12.1492 109.3424,33.4102 102.4,44.6915" stroke="#d50000" stroke-width="2" /><polyline fill="none" points="35.1458,27.3356 29.5051,19.9593 22.1288,18.2237 22.5627,13.8847 19.9593,11.7153 15.6203,9.1119 10.8475,8.678 8.678,20.8271 17.3559,39.0508 19.0915,51.6339" stroke="#7f0000" stroke-width="2" /></svg>