<?xml version="1.0" encoding="utf-8" ?>
<svg baseProfile="tiny" height="128" version="1.2" viewBox="0,0,128,128" width="128" xmlns="http://www.w3.org/2000/svg" xmlns:ev="http://www.w3.org/2001/xml-events" xmlns:xlink="http://www.w3.org/1999/xlink"><defs /><polyline fill="none" points="11.2814,67.2542 8.678,64.6508 10.8475,54.6712 15.6203,46.4271 11.2814,25.1661 11.2814,10.4136 11.7153,8.678 13.4508,8.678 28.2034,23.8644 39.0508,40.3525 46.861,35.1458 56.4068,34.278 73.3288,36.0136 85.9119,42.0881 88.9492,35.5797 101.5322,26.4678 114.9831,19.5254 117.1525,19.0915 118.0203,20.8271 111.5119,37.3153 102.4,54.2373 108.4746,74.6305 106.739,90.2508 100.2305,101.0983 88.0814,111.078 70.7254,116.7186 53.8034,119.322 42.0881,118.4542 29.5051,112.8136 21.6949,105.8712 15.6203,95.0237 13.4508,81.5729 15.6203,67.6881" stroke="#00007f" stroke-width="2" /><polyline fill="none" points="56.4068,81.139 54.2373,80.2712 52.5017,76.3661 63.3492,74.1966 65.0847,76.3661 63.3492,80.7051 59.4441,81.139 56.8407,77.2339 56.4068,78.9695 60.3119,77.6678 56.4068,78.9695 58.5763,80.2712 60.7458,78.9695" stroke="#7f0000" stroke-width="2" /></svg>