<?xml version="1.0" encoding="utf-8" ?>
<svg baseProfile="tiny" height="128" version="1.2" viewBox="0,0,128,128" width="128" xmlns="http://www.w3.org/2000/svg" xmlns:ev="http://www.w3.org/2001/xml-events" xmlns:xlink="http://www.w3.org/1999/xlink"><defs /><polyline fill="none" points="50.068,38.7483 48.7619,34.3946 48.7619,23.5102 52.6803,13.0612 59.2109,34.3946 63.1293,29.1701 67.483,26.5578 79.6735,25.2517 92.7347,28.7347 100.5714,34.8299 108.4082,19.5918 119.2925,8.7075 118.8571,28.2993 114.5034,40.0544" stroke="#00007f" stroke-width="2" /><polyline fill="none" points="50.068,39.619 46.1497,53.551 46.585,72.2721 51.3741,82.7211 54.8571,84.4626 60.517,85.3333 80.5442,84.4626 89.2517,82.7211 94.0408,80.1088 113.6327,59.6463 115.3741,54.8571 115.8095,44.4082 114.068,41.3605 111.8912,40.4898" stroke="#004cff" stroke-width="2" /><polyline fill="none" points="62.2585,61.8231 54.8571,59.2109 33.9592,59.6463 20.898,63.1293 8.7075,69.6599" stroke="#29ffcd" stroke-width="2" /><polyline fill="none" points="56.5986,67.483 43.9728,65.7415 28.7347,65.7415 18.7211,69.2245 15.6735,71.8367" stroke="#cdff29" stroke-width="2" /><polyline fill="none" points="57.9048,68.7891 42.2313,71.8367 17.8503,80.1088" stroke="#ff6700" stroke-width="2" /><polyline fill="none" points="72.7075,72.2721 70.966,67.9184 70.5306,63.1293 77.932,61.8231 78.3673,64.8707 76.6259,68.3537" stroke="#7f0000" stroke-width="2" /></svg>