<?xml version="1.0" encoding="utf-8" ?>
<svg baseProfile="tiny" height="128" version="1.2" viewBox="0,0,128,128" width="128" xmlns="http://www.w3.org/2000/svg" xmlns:ev="http://www.w3.org/2001/xml-events" xmlns:xlink="http://www.w3.org/1999/xlink"><defs /><polyline fill="none" points="8.678,52.5017 22.1288,53.3695 50.3322,49.0305 67.6881,51.6339 83.3085,50.7661" stroke="#00007f" stroke-width="2" /><polyline fill="none" points="11.7153,53.8034 9.9797,76.3661 14.3186,81.5729 18.6576,82.8746 21.261,78.5356 23.4305,51.2" stroke="#0000d5" stroke-width="2" /><polyline fill="none" points="65.9525,55.1051 65.9525,77.2339 68.9898,83.7424 74.1966,85.0441 79.8373,79.4034 81.139,71.5932 80.2712,62.4814 75.9322,51.6339" stroke="#001cff" stroke-width="2" /><polyline fill="none" points="9.5458,52.5017 8.678,45.1254 11.2814,36.4475 21.261,22.9966 28.6373,16.922 42.9559,10.4136 58.1424,8.678 82.0068,12.1492 85.9119,13.8847 91.5525,20.8271 92.4203,24.2983 92.4203,34.7119 89.3831,43.8237 83.7424,51.6339" stroke="#006cff" stroke-width="2" /><polyline fill="none" points="94.5898,26.9017 101.0983,23.8644 109.7763,23.8644 114.5492,26.9017 117.5864,31.2407 119.322,34.7119 118.8881,39.9186 114.9831,44.2576 110.2102,46.861 99.3627,50.7661 87.6475,51.6339 81.5729,49.8983" stroke="#00b8ff" stroke-width="2" /><polyline fill="none" points="96.7593,26.0339 92.4203,26.0339" stroke="#1cffda" stroke-width="2" /><polyline fill="none" points="26.9017,54.6712 29.5051,65.5186 32.1085,83.7424 38.6169,83.3085 42.9559,81.5729 44.2576,78.1017 41.2203,50.7661" stroke="#5cff9a" stroke-width="2" /><polyline fill="none" points="49.4644,52.0678 50.3322,80.2712 55.1051,83.3085 63.3492,82.4407 60.7458,72.8949 63.3492,45.5593" stroke="#9aff5c" stroke-width="2" /><polyline fill="none" points="13.4508,42.9559 13.4508,43.8237 16.0542,43.3898 52.9356,20.8271 54.2373,20.8271 50.3322,26.9017 43.8237,33.8441 64.6508,22.5627 53.3695,32.5424 72.0271,21.6949 46.4271,37.3153 81.139,26.4678 80.7051,31.6746 71.5932,42.9559 80.7051,40.7864" stroke="#daff1c" stroke-width="2" /><polyline fill="none" points="104.1356,30.8068 104.1356,30.8068" stroke="#ffcb00" stroke-width="2" /><polyline fill="none" points="108.9085,35.5797 108.9085,35.5797" stroke="#ff8500" stroke-width="2" /><polyline fill="none" points="97.6271,38.6169 97.6271,38.6169" stroke="#ff3b00" stroke-width="2" /><polyline fill="none" points="95.0237,34.278 93.2881,36.4475 94.5898,36.8814 99.3627,34.7119" stroke="#d50000" stroke-width="2" /><polyline fill="none" points="112.3797,34.7119 109.7763,36.0136 111.5119,34.7119" stroke="#7f0000" stroke-width="2" /></svg>