<?xml version="1.0" encoding="utf-8" ?>
<svg baseProfile="tiny" height="128" version="1.2" viewBox="0,0,128,128" width="128" xmlns="http://www.w3.org/2000/svg" xmlns:ev="http://www.w3.org/2001/xml-events" xmlns:xlink="http://www.w3.org/1999/xlink"><defs /><polyline fill="none" points="48.1627,9.1119 40.3525,9.5458 36.4475,10.8475 26.9017,26.4678 25.6,34.7119 26.9017,43.3898 31.2407,49.8983 38.1831,53.3695 51.2,53.3695 57.7085,50.3322 62.9153,43.3898 65.5186,34.7119 65.9525,20.8271 55.1051,11.7153 43.8237,8.678" stroke="#00007f" stroke-width="2" /><polyline fill="none" points="32.9763,29.0712 19.0915,25.1661 9.9797,24.2983" stroke="#0000d1" stroke-width="2" /><polyline fill="none" points="31.2407,35.5797 8.678,35.5797" stroke="#0010ff" stroke-width="2" /><polyline fill="none" points="32.9763,39.0508 13.4508,45.1254" stroke="#0058ff" stroke-width="2" /><polyline fill="none" points="62.4814,31.2407 82.0068,28.2034" stroke="#00a4ff" stroke-width="2" /><polyline fill="none" points="60.3119,34.7119 84.6102,31.6746" stroke="#05ecf1" stroke-width="2" /><polyline fill="none" points="62.0475,40.3525 82.8746,39.9186" stroke="#3fffb7" stroke-width="2" /><polyline fill="none" points="41.2203,21.261 42.0881,21.6949 41.6542,20.8271" stroke="#7cff79" stroke-width="2" /><polyline fill="none" points="52.0678,21.261 52.0678,22.5627 53.3695,22.5627 53.3695,21.261 51.2,20.3932" stroke="#b7ff3f" stroke-width="2" /><polyline fill="none" points="39.9186,18.2237 43.8237,17.7898" stroke="#f1fc05" stroke-width="2" /><polyline fill="none" points="54.6712,17.7898 49.8983,16.922" stroke="#ffb900" stroke-width="2" /><polyline fill="none" points="37.7492,41.6542 51.2,37.7492 54.2373,38.6169 55.1051,41.2203 54.2373,45.1254 43.3898,45.5593 38.1831,43.8237" stroke="#ff7300" stroke-width="2" /><polyline fill="none" points="49.0305,41.6542 71.5932,27.7695 85.478,23.4305 95.8915,21.6949 107.1729,21.6949 116.7186,26.9017 118.4542,30.3729 119.322,38.6169 117.1525,45.1254 112.3797,51.6339 107.6068,56.8407 97.6271,62.4814 86.3458,65.9525 74.1966,66.8203 65.5186,64.2169 57.2746,60.3119 52.0678,55.539 49.4644,50.7661 44.2576,36.0136" stroke="#ff3000" stroke-width="2" /><polyline fill="none" points="59.878,43.8237 64.2169,37.3153 66.8203,45.1254 72.8949,40.3525 75.9322,46.861" stroke="#d10000" stroke-width="2" /><polyline fill="none" points="76.8,44.6915 75.4983,44.2576" stroke="#7f0000" stroke-width="2" /></svg>