<?xml version="1.0" encoding="utf-8" ?>
<svg baseProfile="tiny" height="128" version="1.2" viewBox="0,0,128,128" width="128" xmlns="http://www.w3.org/2000/svg" xmlns:ev="http://www.w3.org/2001/xml-events" xmlns:xlink="http://www.w3.org/1999/xlink"><defs /><polyline fill="none" points="79.4034,29.5051 77.2339,26.9017 69.8576,26.9017 65.0847,28.2034 56.8407,33.4102 43.3898,49.4644 39.4847,60.7458 41.2203,72.8949 48.5966,81.5729 59.4441,84.6102 73.7627,82.0068 86.7797,73.3288 95.4576,61.1797 98.9288,45.5593 98.4949,32.1085 97.1932,28.6373 93.2881,24.7322 87.6475,22.5627 79.8373,22.1288 61.6136,35.5797" stroke="#00007f" stroke-width="2" /><polyline fill="none" points="52.5017,33.8441 52.5017,26.0339 58.1424,11.2814 71.1593,32.1085" stroke="#0000e8" stroke-width="2" /><polyline fill="none" points="81.139,20.3932 83.3085,21.261 85.0441,20.3932 89.8169,14.7525 97.6271,8.678 98.4949,12.1492 95.8915,35.1458" stroke="#0038ff" stroke-width="2" /><polyline fill="none" points="62.0475,46.861 61.1797,50.7661 62.9153,51.2 65.0847,46.4271 62.0475,50.3322 64.6508,48.1627 62.9153,49.0305 62.9153,50.7661" stroke="#0094ff" stroke-width="2" /><polyline fill="none" points="84.1763,45.9932 84.1763,49.0305 85.9119,47.2949 87.2136,44.2576 85.0441,44.6915 79.8373,52.9356" stroke="#0cf4ea" stroke-width="2" /><polyline fill="none" points="60.3119,65.0847 63.3492,74.6305 68.122,74.1966 72.461,71.5932" stroke="#56ffa0" stroke-width="2" /><polyline fill="none" points="88.5153,64.2169 92.4203,61.6136 111.5119,54.2373 119.322,53.3695" stroke="#a0ff56" stroke-width="2" /><polyline fill="none" points="81.139,71.5932 100.2305,66.8203 114.1153,65.5186" stroke="#eaff0c" stroke-width="2" /><polyline fill="none" points="85.0441,58.1424 89.8169,55.1051 97.1932,52.5017 116.2847,50.3322" stroke="#ffaa00" stroke-width="2" /><polyline fill="none" points="51.6339,59.878 27.3356,60.3119 13.8847,59.4441" stroke="#ff5500" stroke-width="2" /><polyline fill="none" points="48.1627,66.8203 8.678,76.3661" stroke="#e80000" stroke-width="2" /><polyline fill="none" points="49.4644,75.9322 47.7288,75.0644 25.6,88.0814 16.4881,90.2508" stroke="#7f0000" stroke-width="2" /></svg>