<?xml version="1.0" encoding="utf-8" ?>
<svg baseProfile="tiny" height="128" version="1.2" viewBox="0,0,128,128" width="128" xmlns="http://www.w3.org/2000/svg" xmlns:ev="http://www.w3.org/2001/xml-events" xmlns:xlink="http://www.w3.org/1999/xlink"><defs /><polyline fill="none" points="24.2983,12.1492 11.7153,19.0915 9.5458,25.1661 8.678,32.5424 9.1119,43.8237 13.4508,47.2949 20.8271,47.2949 22.5627,45.9932" stroke="#00007f" stroke-width="2" /><polyline fill="none" points="49.0305,10.4136 42.522,21.6949 28.6373,38.6169 29.939,29.5051 35.5797,16.4881 40.7864,12.1492 51.2,8.678 59.4441,15.6203 62.9153,21.261 65.9525,37.7492 59.878,34.278 37.3153,31.2407 35.1458,29.0712" stroke="#0010ff" stroke-width="2" /><polyline fill="none" points="36.0136,25.6 36.0136,25.6" stroke="#00a4ff" stroke-width="2" /><polyline fill="none" points="67.2542,36.8814 68.5559,43.8237" stroke="#3fffb7" stroke-width="2" /><polyline fill="none" points="98.9288,16.0542 101.9661,46.4271" stroke="#b7ff3f" stroke-width="2" /><polyline fill="none" points="82.0068,17.3559 104.1356,17.7898 105.0034,19.0915 98.9288,19.9593 119.322,19.9593" stroke="#ffb900" stroke-width="2" /><polyline fill="none" points="32.9763,34.278 29.939,37.7492 26.4678,46.4271" stroke="#ff3000" stroke-width="2" /><polyline fill="none" points="68.5559,43.8237 68.5559,45.9932" stroke="#7f0000" stroke-width="2" /></svg>