<?xml version="1.0" encoding="utf-8" ?>
<svg baseProfile="tiny" height="128" version="1.2" viewBox="0,0,128,128" width="128" xmlns="http://www.w3.org/2000/svg" xmlns:ev="http://www.w3.org/2001/xml-events" xmlns:xlink="http://www.w3.org/1999/xlink"><defs /><polyline fill="none" points="34.3946,35.2653 43.9728,30.4762 52.2449,27.8639 71.8367,27.8639 83.1565,31.3469 101.8776,8.7075 98.8299,28.7347 99.7007,69.6599 95.3469,83.1565 87.9456,97.5238 80.1088,104.9252 70.966,109.7143 56.1633,110.1497 48.7619,106.6667 40.4898,97.9592 33.9592,85.3333 30.0408,74.0136 20.0272,15.6735 37.4422,35.7007" stroke="#00007f" stroke-width="2" /><polyline fill="none" points="40.0544,72.7075 8.7075,84.0272 20.4626,80.9796" stroke="#0000f1" stroke-width="2" /><polyline fill="none" points="40.0544,82.7211 40.4898,84.4626 38.7483,85.7687 21.7687,92.7347" stroke="#004cff" stroke-width="2" /><polyline fill="none" points="41.7959,92.2993 38.3129,97.9592 26.1224,106.2313 18.7211,109.7143 21.3333,107.9728" stroke="#00b0ff" stroke-width="2" /><polyline fill="none" points="87.5102,72.2721 100.1361,75.3197 119.2925,76.1905 113.1973,79.2381" stroke="#29ffcd" stroke-width="2" /><polyline fill="none" points="79.6735,81.415 115.8095,94.0408 111.0204,94.4762" stroke="#7cff79" stroke-width="2" /><polyline fill="none" points="77.4966,94.4762 82.2857,99.2653 107.5374,114.068" stroke="#cdff29" stroke-width="2" /><polyline fill="none" points="48.3265,57.4694 46.585,63.1293 47.0204,65.7415 49.1973,67.9184 54.8571,67.9184 56.5986,64.4354 56.5986,62.6939 53.551,59.6463 50.9388,59.6463" stroke="#ffc400" stroke-width="2" /><polyline fill="none" points="78.3673,56.5986 75.7551,56.1633 71.8367,59.2109 70.966,64.0 75.3197,67.0476 80.9796,65.7415 81.415,60.9524 76.6259,58.3401" stroke="#ff6700" stroke-width="2" /><polyline fill="none" points="50.9388,92.7347 58.3401,92.7347 67.483,86.2041 84.0272,87.9456" stroke="#f10700" stroke-width="2" /><polyline fill="none" points="58.3401,96.2177 59.6463,97.9592" stroke="#7f0000" stroke-width="2" /></svg>