<?xml version="1.0" encoding="utf-8" ?>
<svg baseProfile="tiny" height="128" version="1.2" viewBox="0,0,128,128" width="128" xmlns="http://www.w3.org/2000/svg" xmlns:ev="http://www.w3.org/2001/xml-events" xmlns:xlink="http://www.w3.org/1999/xlink"><defs /><polyline fill="none" points="87.5102,24.8163 85.3333,23.0748 72.2721,23.0748 66.6122,25.2517 57.034,32.2177" stroke="#00007f" stroke-width="2" /><polyline fill="none" points="81.415,23.9456 82.2857,16.9796 85.3333,12.1905 89.2517,8.7075 91.4286,8.7075 97.5238,18.2857 101.8776,31.7823" stroke="#0000fe" stroke-width="2" /><polyline fill="none" points="64.0,28.2993 47.0204,20.0272 47.4558,32.6531 51.8095,43.9728" stroke="#0060ff" stroke-width="2" /><polyline fill="none" points="66.1769,40.4898 66.6122,42.2313 67.0476,40.0544" stroke="#00d4ff" stroke-width="2" /><polyline fill="none" points="89.2517,39.1837 89.6871,41.3605 91.8639,39.1837 90.1224,38.3129" stroke="#4cffaa" stroke-width="2" /><polyline fill="none" points="81.8503,44.4082 82.2857,48.7619 80.9796,46.1497 80.5442,47.8912" stroke="#aaff4c" stroke-width="2" /><polyline fill="none" points="84.4626,47.0204 83.5918,49.1973 85.3333,51.8095 89.2517,53.551 92.7347,52.2449" stroke="#ffe500" stroke-width="2" /><polyline fill="none" points="84.4626,48.7619 81.415,52.6803 73.5782,52.6803" stroke="#ff7a00" stroke-width="2" /><polyline fill="none" points="106.6667,37.0068 110.585,50.068 108.8435,59.2109 103.1837,65.3061 88.381,70.5306 65.3061,64.8707 57.4694,55.7279 57.4694,47.8912" stroke="#fe1200" stroke-width="2" /><polyline fill="none" points="69.2245,65.7415 58.7755,68.7891 38.3129,70.966 30.4762,69.6599 26.1224,67.483 20.898,60.0816 21.7687,44.4082 14.3673,30.0408 13.932,24.8163 15.2381,21.3333 12.1905,20.898 8.7075,35.2653 14.8027,53.551 15.2381,63.5646 22.2041,75.3197 27.8639,81.415 28.2993,93.1701 25.6871,108.8435 26.9932,116.6803 30.4762,119.2925 38.7483,119.2925 40.9252,116.6803 40.4898,110.1497" stroke="#7f0000" stroke-width="2" /></svg>