<?xml version="1.0" encoding="utf-8" ?>
<svg baseProfile="tiny" height="128" version="1.2" viewBox="0,0,128,128" width="128" xmlns="http://www.w3.org/2000/svg" xmlns:ev="http://www.w3.org/2001/xml-events" xmlns:xlink="http://www.w3.org/1999/xlink"><defs /><polyline fill="none" points="74.1966,115.8508 61.6136,116.2847 49.0305,111.5119 26.0339,91.1186 18.6576,82.8746 11.7153,70.7254 9.9797,63.7831 11.2814,57.7085 15.1864,52.0678 22.5627,45.5593 33.8441,39.9186 42.9559,37.7492 65.9525,37.3153 76.3661,39.4847 85.9119,43.8237 93.722,49.0305 99.3627,55.9729 105.4373,67.2542 108.0407,76.3661 107.6068,86.7797 105.0034,93.722 98.4949,104.1356 88.9492,113.2475 81.5729,116.7186 69.4237,118.0203" stroke="#00007f" stroke-width="2" /><polyline fill="none" points="19.0915,50.7661 13.0169,43.8237 9.5458,33.4102 8.678,13.0169 11.2814,8.678 18.2237,9.5458 28.6373,16.4881 48.5966,38.1831" stroke="#0028ff" stroke-width="2" /><polyline fill="none" points="66.3864,40.3525 75.0644,32.5424 98.061,19.0915 108.4746,14.7525 118.0203,13.8847 119.322,14.7525 118.8881,17.3559 116.7186,22.5627 98.061,56.4068" stroke="#00d4ff" stroke-width="2" /><polyline fill="none" points="32.5424,61.6136 31.6746,62.9153 33.8441,63.7831 34.278,62.4814" stroke="#7cff79" stroke-width="2" /><polyline fill="none" points="77.6678,63.3492 77.2339,64.2169 78.1017,65.5186 81.5729,63.3492 79.8373,62.9153" stroke="#ffe500" stroke-width="2" /><polyline fill="none" points="35.1458,83.7424 40.7864,84.6102 48.1627,82.8746 57.2746,77.2339 59.0102,72.8949 62.4814,85.478 68.122,89.8169 73.3288,90.6847 78.1017,89.8169 85.0441,84.6102" stroke="#ff4600" stroke-width="2" /><polyline fill="none" points="91.9864,80.7051 91.9864,80.7051" stroke="#7f0000" stroke-width="2" /></svg>