<?xml version="1.0" encoding="utf-8" ?>
<svg baseProfile="tiny" height="128" version="1.2" viewBox="0,0,128,128" width="128" xmlns="http://www.w3.org/2000/svg" xmlns:ev="http://www.w3.org/2001/xml-events" xmlns:xlink="http://www.w3.org/1999/xlink"><defs /><polyline fill="none" points="39.9186,20.8271 27.3356,16.0542 20.3932,16.0542 15.1864,17.7898 14.7525,22.9966 26.4678,32.5424 33.8441,34.7119 38.6169,34.7119 41.2203,32.9763 42.9559,25.6 39.4847,13.8847" stroke="#00007f" stroke-width="2" /><polyline fill="none" points="45.1254,20.3932 49.8983,14.7525 57.7085,9.9797 68.122,8.678 78.1017,9.1119 86.7797,15.6203 86.7797,25.1661 79.4034,42.0881 76.8,45.1254 72.0271,47.2949 61.1797,47.2949 45.1254,41.6542 42.522,36.0136" stroke="#0000f1" stroke-width="2" /><polyline fill="none" points="20.8271,25.6 8.678,29.0712" stroke="#004cff" stroke-width="2" /><polyline fill="none" points="19.5254,28.6373 19.0915,33.8441 16.0542,37.7492" stroke="#00b0ff" stroke-width="2" /><polyline fill="none" points="20.3932,30.8068 22.1288,34.278 22.5627,41.2203 24.2983,41.2203" stroke="#29ffcd" stroke-width="2" /><polyline fill="none" points="33.4102,26.0339 42.0881,27.3356" stroke="#7cff79" stroke-width="2" /><polyline fill="none" points="34.278,31.6746 37.7492,38.1831" stroke="#cdff29" stroke-width="2" /><polyline fill="none" points="32.1085,37.3153 31.6746,42.522 33.4102,42.9559" stroke="#ffc400" stroke-width="2" /><polyline fill="none" points="87.6475,21.261 98.061,12.1492 114.1153,15.1864 118.4542,15.6203 119.322,14.3186" stroke="#ff6700" stroke-width="2" /><polyline fill="none" points="78.9695,43.3898 80.2712,55.1051 78.9695,56.8407 77.2339,57.2746 76.8,53.3695" stroke="#f10700" stroke-width="2" /><polyline fill="none" points="68.122,55.9729 65.0847,61.6136 59.878,63.7831 56.4068,62.4814 55.539,58.1424 56.4068,52.0678 59.878,45.9932" stroke="#7f0000" stroke-width="2" /></svg>