<?xml version="1.0" encoding="utf-8" ?>
<svg baseProfile="tiny" height="128" version="1.2" viewBox="0,0,128,128" width="128" xmlns="http://www.w3.org/2000/svg" xmlns:ev="http://www.w3.org/2001/xml-events" xmlns:xlink="http://www.w3.org/1999/xlink"><defs /><polyline fill="none" points="77.4966,56.5986 73.5782,58.3401 62.2585,58.3401 49.6327,50.9388 43.9728,48.7619 40.0544,49.1973 27.8639,55.7279 18.2857,55.2925 13.0612,51.3741 8.7075,42.6667 8.7075,33.0884 13.4966,27.4286 24.381,22.6395 46.1497,23.9456 65.3061,19.5918 85.7687,19.5918 99.7007,22.2041 107.102,25.6871 115.3741,36.1361 119.2925,46.585 117.9864,54.4218 114.9388,56.5986 111.8912,53.9864 104.9252,38.7483 102.3129,37.4422 96.2177,39.619 85.7687,50.5034 80.9796,53.551" stroke="#00007f" stroke-width="2" /><polyline fill="none" points="74.449,57.034 83.1565,52.6803" stroke="#0080ff" stroke-width="2" /><polyline fill="none" points="57.034,59.2109 36.5714,57.4694 33.0884,60.0816 32.6531,63.5646 47.4558,62.6939 60.9524,64.0 67.483,59.2109" stroke="#7cff79" stroke-width="2" /><polyline fill="none" points="57.4694,60.517 62.2585,57.034" stroke="#ff9400" stroke-width="2" /><polyline fill="none" points="9.5782,32.6531 9.5782,19.1565 10.8844,13.4966 12.6259,12.1905 14.8027,12.6259 21.7687,21.3333 30.4762,10.449 36.5714,8.7075 38.3129,10.449 38.7483,24.381" stroke="#7f0000" stroke-width="2" /></svg>