<?xml version="1.0" encoding="utf-8" ?>
<svg baseProfile="tiny" height="128" version="1.2" viewBox="0,0,128,128" width="128" xmlns="http://www.w3.org/2000/svg" xmlns:ev="http://www.w3.org/2001/xml-events" xmlns:xlink="http://www.w3.org/1999/xlink"><defs /><polyline fill="none" points="27.7695,34.278 27.3356,27.3356 23.8644,18.2237 39.9186,28.2034 47.2949,25.1661 56.4068,23.4305 65.9525,24.7322 76.8,11.2814 82.0068,8.678 82.8746,19.0915 80.7051,28.6373 83.3085,48.1627 78.9695,60.3119 74.1966,64.6508 67.6881,67.2542 56.8407,66.3864 49.8983,62.4814" stroke="#00007f" stroke-width="2" /><polyline fill="none" points="29.0712,37.3153 29.5051,44.6915 31.2407,49.4644 35.5797,55.9729 42.0881,61.1797 47.7288,64.2169 54.6712,65.5186 62.9153,65.9525 70.7254,62.4814" stroke="#0028ff" stroke-width="2" /><polyline fill="none" points="35.1458,42.0881 29.0712,42.522 8.678,51.2" stroke="#00d4ff" stroke-width="2" /><polyline fill="none" points="35.1458,43.3898 16.922,72.0271" stroke="#7cff79" stroke-width="2" /><polyline fill="none" points="77.6678,39.0508 119.322,37.3153" stroke="#ffe500" stroke-width="2" /><polyline fill="none" points="79.8373,40.7864 90.6847,43.8237 116.2847,57.7085" stroke="#ff4600" stroke-width="2" /><polyline fill="none" points="58.1424,45.9932 58.1424,45.9932" stroke="#7f0000" stroke-width="2" /></svg>