<?xml version="1.0" encoding="utf-8" ?>
<svg baseProfile="tiny" height="128" version="1.2" viewBox="0,0,128,128" width="128" xmlns="http://www.w3.org/2000/svg" xmlns:ev="http://www.w3.org/2001/xml-events" xmlns:xlink="http://www.w3.org/1999/xlink"><defs /><polyline fill="none" points="29.0712,41.6542 20.8271,31.2407 19.0915,27.3356 20.8271,26.9017 41.6542,35.5797 48.1627,33.8441 58.5763,34.278 63.7831,36.4475 68.9898,41.2203 74.1966,22.9966 79.8373,16.0542 88.0814,8.678 82.4407,28.6373 81.5729,40.3525 88.0814,46.861 91.5525,53.3695 91.5525,64.6508 88.9492,74.6305 82.8746,82.4407 71.1593,91.1186 60.3119,96.7593 49.8983,98.4949 43.3898,97.1932 35.1458,92.4203 31.2407,88.5153 27.3356,80.7051 26.9017,67.6881 31.2407,53.8034 31.2407,48.5966 28.2034,41.6542" stroke="#00007f" stroke-width="2" /><polyline fill="none" points="50.7661,55.539 48.5966,55.9729 49.4644,62.4814 52.5017,62.9153 54.6712,57.7085 54.6712,55.1051 52.9356,52.9356 49.0305,52.5017 49.8983,55.1051" stroke="#0028ff" stroke-width="2" /><polyline fill="none" points="62.0475,49.8983 59.878,51.2 59.878,55.1051 65.5186,56.8407 68.122,55.539 67.6881,52.9356 65.5186,51.6339 62.9153,51.2 62.0475,52.0678" stroke="#00d4ff" stroke-width="2" /><polyline fill="none" points="65.0847,69.4237 71.1593,63.3492 79.8373,57.2746 119.322,44.2576" stroke="#7cff79" stroke-width="2" /><polyline fill="none" points="65.9525,75.9322 85.9119,64.2169 98.4949,60.7458 111.078,59.4441" stroke="#ffe500" stroke-width="2" /><polyline fill="none" points="50.7661,79.4034 16.4881,69.8576 8.678,70.2915" stroke="#ff4600" stroke-width="2" /><polyline fill="none" points="52.5017,82.8746 25.1661,91.5525 16.0542,97.6271" stroke="#7f0000" stroke-width="2" /></svg>