<?xml version="1.0" encoding="utf-8" ?>
<svg baseProfile="tiny" height="128" version="1.2" viewBox="0,0,128,128" width="128" xmlns="http://www.w3.org/2000/svg" xmlns:ev="http://www.w3.org/2001/xml-events" xmlns:xlink="http://www.w3.org/1999/xlink"><defs /><polyline fill="none" points="55.2925,32.6531 57.034,24.381 63.1293,10.0136 72.7075,32.2177 75.3197,21.7687 83.1565,8.7075 86.6395,34.3946" stroke="#00007f" stroke-width="2" /><polyline fill="none" points="57.034,31.7823 48.3265,34.3946 43.5374,39.619 42.6667,54.8571 49.6327,63.1293 64.8707,66.6122 72.7075,66.6122 84.0272,62.6939 90.9932,57.9048 96.6531,51.3741 97.0884,41.3605 91.4286,33.9592 84.4626,31.3469 80.5442,33.9592" stroke="#0000f1" stroke-width="2" /><polyline fill="none" points="56.5986,45.2789 54.8571,43.9728 55.7279,49.1973 55.7279,45.2789" stroke="#004cff" stroke-width="2" /><polyline fill="none" points="78.3673,37.8776 78.3673,41.3605" stroke="#00b0ff" stroke-width="2" /><polyline fill="none" points="64.4354,53.1156 64.8707,61.3878 63.1293,53.9864" stroke="#29ffcd" stroke-width="2" /><polyline fill="none" points="67.483,59.2109 97.9592,41.7959 103.619,40.4898" stroke="#7cff79" stroke-width="2" /><polyline fill="none" points="72.7075,62.2585 119.2925,56.1633" stroke="#cdff29" stroke-width="2" /><polyline fill="none" points="75.7551,66.6122 107.102,78.3673" stroke="#ffc400" stroke-width="2" /><polyline fill="none" points="56.5986,53.1156 28.2993,58.3401 8.7075,58.7755" stroke="#ff6700" stroke-width="2" /><polyline fill="none" points="54.8571,64.4354 48.3265,65.7415 22.2041,82.2857 10.8844,87.0748" stroke="#f10700" stroke-width="2" /><polyline fill="none" points="55.2925,71.4014 42.2313,77.0612 27.4286,88.8163 15.6735,100.1361" stroke="#7f0000" stroke-width="2" /></svg>