<?xml version="1.0" encoding="utf-8" ?>
<svg baseProfile="tiny" height="128" version="1.2" viewBox="0,0,128,128" width="128" xmlns="http://www.w3.org/2000/svg" xmlns:ev="http://www.w3.org/2001/xml-events" xmlns:xlink="http://www.w3.org/1999/xlink"><defs /><polyline fill="none" points="49.8983,15.6203 45.5593,16.922 37.3153,16.922 20.8271,9.9797 13.8847,8.678 9.1119,11.7153 8.678,16.922 13.8847,22.9966 29.5051,23.8644 40.3525,20.3932 51.6339,20.3932 54.2373,18.6576" stroke="#00007f" stroke-width="2" /><polyline fill="none" points="49.4644,14.3186 60.3119,14.3186 62.9153,15.1864 62.9153,16.0542" stroke="#0000ff" stroke-width="2" /><polyline fill="none" points="52.9356,19.0915 51.6339,19.5254 48.5966,27.7695 44.2576,42.9559 51.6339,42.9559 52.0678,35.5797 56.8407,20.3932 56.8407,45.1254 64.2169,34.7119 68.122,23.4305 68.122,37.7492 70.2915,49.0305 72.8949,47.2949 80.7051,28.6373 81.5729,54.6712 87.6475,48.1627 93.722,38.6169 97.1932,30.3729" stroke="#0080ff" stroke-width="2" /><polyline fill="none" points="64.2169,15.6203 71.5932,15.1864 93.722,18.6576 100.2305,16.0542 116.7186,15.1864 119.322,18.6576 118.4542,24.7322 104.1356,26.4678 98.061,31.2407" stroke="#15ffe1" stroke-width="2" /><polyline fill="none" points="104.1356,18.2237 105.0034,18.2237" stroke="#7cff79" stroke-width="2" /><polyline fill="none" points="111.9458,16.4881 111.9458,16.4881" stroke="#e4ff12" stroke-width="2" /><polyline fill="none" points="113.2475,19.0915 113.2475,19.0915" stroke="#ff9400" stroke-width="2" /><polyline fill="none" points="104.5695,19.9593 111.5119,20.3932" stroke="#ff1d00" stroke-width="2" /><polyline fill="none" points="106.3051,23.8644 95.4576,21.6949" stroke="#7f0000" stroke-width="2" /></svg>