<?xml version="1.0" encoding="utf-8" ?>
<svg baseProfile="tiny" height="128" version="1.2" viewBox="0,0,128,128" width="128" xmlns="http://www.w3.org/2000/svg" xmlns:ev="http://www.w3.org/2001/xml-events" xmlns:xlink="http://www.w3.org/1999/xlink"><defs /><polyline fill="none" points="55.9729,34.7119 53.8034,32.5424 46.4271,31.2407 41.6542,31.2407 36.0136,33.8441 22.9966,42.522 14.3186,54.2373 9.5458,67.2542 8.678,82.0068 13.8847,101.5322 20.3932,112.3797 26.9017,116.2847 32.5424,118.4542 45.9932,119.322 55.1051,117.5864 65.0847,114.1153 75.4983,108.4746 83.7424,101.5322 90.2508,90.2508 93.2881,77.6678 93.2881,71.5932 87.6475,55.1051 82.8746,47.2949 78.1017,42.522 65.0847,34.7119 52.0678,31.2407" stroke="#00007f" stroke-width="2" /><polyline fill="none" points="23.8644,34.278 23.8644,29.0712 26.9017,19.0915 31.6746,9.9797 33.8441,8.678 45.9932,23.4305 53.8034,29.939" stroke="#0000f1" stroke-width="2" /><polyline fill="none" points="70.7254,30.8068 89.3831,13.4508 89.8169,54.2373" stroke="#004cff" stroke-width="2" /><polyline fill="none" points="45.5593,53.8034 45.5593,59.878 48.1627,55.9729 47.7288,59.0102" stroke="#00b0ff" stroke-width="2" /><polyline fill="none" points="61.6136,56.4068 62.4814,59.0102" stroke="#29ffcd" stroke-width="2" /><polyline fill="none" points="41.6542,75.4983 49.0305,76.3661 52.5017,78.1017 52.5017,82.4407 48.1627,90.2508 36.4475,75.0644" stroke="#7cff79" stroke-width="2" /><polyline fill="none" points="48.1627,86.3458 60.3119,87.6475 66.3864,86.3458 80.7051,80.2712 87.2136,75.9322" stroke="#cdff29" stroke-width="2" /><polyline fill="none" points="34.278,82.8746 21.261,82.8746" stroke="#ffc400" stroke-width="2" /><polyline fill="none" points="43.8237,85.0441 27.7695,98.061" stroke="#ff6700" stroke-width="2" /><polyline fill="none" points="46.4271,89.8169 46.4271,96.3254 42.0881,108.4746 41.6542,113.6814 47.2949,108.0407 56.8407,104.1356 62.9153,100.2305" stroke="#f10700" stroke-width="2" /><polyline fill="none" points="38.1831,91.5525 32.5424,101.9661 27.3356,107.1729 19.5254,101.0983" stroke="#7f0000" stroke-width="2" /></svg>