<?xml version="1.0" encoding="utf-8" ?>
<svg baseProfile="tiny" height="128" version="1.2" viewBox="0,0,128,128" width="128" xmlns="http://www.w3.org/2000/svg" xmlns:ev="http://www.w3.org/2001/xml-events" xmlns:xlink="http://www.w3.org/1999/xlink"><defs /><polyline fill="none" points="27.7695,47.2949 36.0136,49.8983 48.5966,50.3322 75.9322,53.8034 88.9492,49.0305 92.4203,43.3898 103.7017,36.4475 109.3424,36.8814 115.4169,40.3525 117.1525,45.9932 115.4169,54.6712 112.3797,59.0102 108.0407,62.0475 100.6644,65.0847 85.9119,63.7831 84.6102,65.0847 82.4407,70.2915 82.0068,82.0068 82.4407,83.3085 89.3831,86.7797 86.7797,88.9492 82.0068,90.2508 70.7254,90.2508 61.6136,82.8746 32.1085,79.4034 33.4102,71.1593 30.3729,69.4237 21.261,73.3288 20.3932,78.1017 22.1288,80.2712 13.8847,81.139 11.2814,79.8373 8.678,72.8949 13.4508,66.8203 20.3932,46.861 25.6,45.1254 19.5254,41.2203 19.0915,34.7119 20.3932,27.3356 25.6,17.3559 26.4678,8.678" stroke="#00007f" stroke-width="2" /><polyline fill="none" points="103.7017,34.278 108.0407,24.7322 107.6068,32.5424 111.078,37.3153 114.5492,31.6746 119.322,27.7695 113.6814,42.0881" stroke="#0028ff" stroke-width="2" /><polyline fill="none" points="111.078,58.1424 106.3051,55.1051 105.8712,59.4441 108.4746,58.1424 108.4746,59.878 109.3424,55.539 107.1729,60.3119 98.4949,61.1797 95.0237,59.4441 94.1559,55.1051 94.1559,60.3119 96.3254,62.9153 101.5322,63.3492 104.1356,62.0475" stroke="#00d4ff" stroke-width="2" /><polyline fill="none" points="105.4373,41.2203 105.4373,41.2203" stroke="#7cff79" stroke-width="2" /><polyline fill="none" points="105.8712,42.9559 105.8712,42.9559" stroke="#ffe500" stroke-width="2" /><polyline fill="none" points="105.8712,42.9559 105.8712,42.9559" stroke="#ff4600" stroke-width="2" /><polyline fill="none" points="105.8712,43.3898 104.1356,44.2576" stroke="#7f0000" stroke-width="2" /></svg>