<?xml version="1.0" encoding="utf-8" ?>
<svg baseProfile="tiny" height="128" version="1.2" viewBox="0,0,128,128" width="128" xmlns="http://www.w3.org/2000/svg" xmlns:ev="http://www.w3.org/2001/xml-events" xmlns:xlink="http://www.w3.org/1999/xlink"><defs /><polyline fill="none" points="24.1096,53.0411 26.3014,48.2192 30.2466,42.9589 43.3973,37.2603 72.7671,35.0685 76.274,35.9452 83.2877,39.4521 90.7397,47.7808 92.9315,56.1096 93.8082,69.2603 87.6712,77.1507 80.2192,80.2192 70.5753,81.9726 51.2877,83.2877 44.274,81.9726 38.137,78.0274 29.8082,67.5068 25.863,59.1781 24.9863,52.6027" stroke="#00007f" stroke-width="2" /><polyline fill="none" points="24.9863,51.726 21.9178,13.589 37.6986,33.7534 46.0274,38.5753" stroke="#0028ff" stroke-width="2" /><polyline fill="none" points="68.8219,35.5068 78.9041,21.0411 84.1644,8.7671 86.3562,39.0137" stroke="#00d4ff" stroke-width="2" /><polyline fill="none" points="60.4932,59.6164 48.2192,59.6164 24.1096,63.5616 8.7671,72.7671" stroke="#7cff79" stroke-width="2" /><polyline fill="none" points="59.1781,65.7534 42.9589,65.3151 35.0685,67.0685 22.3562,71.0137 10.9589,78.0274" stroke="#ffe500" stroke-width="2" /><polyline fill="none" points="62.6849,62.6849 76.274,57.863 106.5205,52.6027 114.8493,52.1644 119.2329,53.9178" stroke="#ff4600" stroke-width="2" /><polyline fill="none" points="66.1918,65.7534 66.1918,65.7534" stroke="#7f0000" stroke-width="2" /></svg>