<?xml version="1.0" encoding="utf-8" ?>
<svg baseProfile="tiny" height="128" version="1.2" viewBox="0,0,128,128" width="128" xmlns="http://www.w3.org/2000/svg" xmlns:ev="http://www.w3.org/2001/xml-events" xmlns:xlink="http://www.w3.org/1999/xlink"><defs /><polyline fill="none" points="25.1661,31.2407 21.261,55.9729 21.261,87.6475 26.4678,88.0814 31.2407,83.7424 43.3898,59.878 53.3695,49.0305 56.4068,48.1627 58.1424,50.3322 58.1424,70.2915 55.1051,82.0068 55.1051,91.9864 57.7085,94.1559 65.0847,93.722 70.2915,88.5153 75.0644,79.8373 78.5356,65.0847 83.7424,53.8034 103.2678,52.0678 109.7763,48.1627 112.3797,42.522 111.5119,36.4475 106.739,29.0712 97.1932,22.5627 88.5153,19.0915 79.8373,19.0915 69.4237,26.4678 58.1424,30.3729 42.0881,32.5424 15.1864,33.4102 9.9797,37.3153 8.678,42.9559 12.5831,44.2576 18.2237,41.6542 25.1661,35.5797" stroke="#00007f" stroke-width="2" /><polyline fill="none" points="83.3085,17.3559 88.5153,8.678 88.5153,25.6" stroke="#0000e8" stroke-width="2" /><polyline fill="none" points="94.5898,25.6 109.7763,15.1864 108.9085,34.278" stroke="#0038ff" stroke-width="2" /><polyline fill="none" points="96.7593,22.9966 93.722,26.4678 91.5525,34.7119 95.0237,36.0136 98.4949,33.8441 100.2305,29.0712 97.1932,28.2034" stroke="#0094ff" stroke-width="2" /><polyline fill="none" points="94.5898,32.5424 94.5898,30.8068" stroke="#0cf4ea" stroke-width="2" /><polyline fill="none" points="111.9458,39.0508 114.9831,39.9186 115.8508,42.0881 114.9831,43.8237 111.078,44.6915" stroke="#56ffa0" stroke-width="2" /><polyline fill="none" points="112.8136,36.8814 115.8508,32.5424" stroke="#a0ff56" stroke-width="2" /><polyline fill="none" points="114.5492,37.3153 119.322,37.3153" stroke="#eaff0c" stroke-width="2" /><polyline fill="none" points="110.6441,44.6915 109.7763,49.4644" stroke="#ffaa00" stroke-width="2" /><polyline fill="none" points="113.6814,43.3898 114.1153,47.7288" stroke="#ff5500" stroke-width="2" /><polyline fill="none" points="111.078,47.7288 111.078,50.7661" stroke="#e80000" stroke-width="2" /><polyline fill="none" points="112.3797,45.5593 114.1153,49.8983" stroke="#7f0000" stroke-width="2" /></svg>