<?xml version="1.0" encoding="utf-8" ?>
<svg baseProfile="tiny" height="128" version="1.2" viewBox="0,0,128,128" width="128" xmlns="http://www.w3.org/2000/svg" xmlns:ev="http://www.w3.org/2001/xml-events" xmlns:xlink="http://www.w3.org/1999/xlink"><defs /><polyline fill="none" points="39.4847,59.0102 28.2034,65.5186 24.7322,70.7254 22.9966,82.4407 23.8644,90.2508 27.3356,97.1932 32.5424,102.4 39.4847,105.8712 48.1627,106.739 59.0102,105.0034 69.8576,98.4949 79.8373,88.5153 86.3458,76.8 87.6475,67.2542 86.3458,60.3119 80.7051,55.539 73.7627,53.3695 63.7831,52.9356 53.3695,55.1051 44.2576,60.7458 37.7492,68.122" stroke="#00007f" stroke-width="2" /><polyline fill="none" points="29.5051,91.5525 16.922,95.8915 8.678,101.0983" stroke="#0000e8" stroke-width="2" /><polyline fill="none" points="38.6169,96.3254 30.8068,101.9661 19.9593,113.2475 16.4881,119.322" stroke="#0038ff" stroke-width="2" /><polyline fill="none" points="71.1593,86.3458 98.061,94.5898 107.1729,95.8915" stroke="#0094ff" stroke-width="2" /><polyline fill="none" points="78.1017,73.7627 107.1729,76.3661" stroke="#0cf4ea" stroke-width="2" /><polyline fill="none" points="52.9356,86.3458 56.4068,86.7797 56.8407,85.0441 53.3695,85.478" stroke="#56ffa0" stroke-width="2" /><polyline fill="none" points="55.539,87.6475 56.8407,94.5898 51.6339,96.3254 48.5966,101.0983" stroke="#a0ff56" stroke-width="2" /><polyline fill="none" points="53.8034,95.4576 65.9525,94.5898" stroke="#eaff0c" stroke-width="2" /><polyline fill="none" points="40.3525,72.461 40.3525,75.0644 41.2203,73.3288" stroke="#ffaa00" stroke-width="2" /><polyline fill="none" points="60.3119,66.8203 60.7458,68.9898" stroke="#ff5500" stroke-width="2" /><polyline fill="none" points="18.2237,62.4814 13.0169,54.2373 10.4136,42.0881 10.4136,28.6373 12.1492,22.9966 14.7525,22.5627 22.5627,28.2034 26.4678,33.4102 41.2203,62.0475" stroke="#e80000" stroke-width="2" /><polyline fill="none" points="62.4814,46.4271 64.6508,39.4847 78.9695,15.6203 84.6102,10.4136 91.9864,8.678 93.722,13.4508 93.722,21.6949 91.1186,49.4644 88.5153,58.5763" stroke="#7f0000" stroke-width="2" /></svg>