<?xml version="1.0" encoding="utf-8" ?>
<svg baseProfile="tiny" height="128" version="1.2" viewBox="0,0,128,128" width="128" xmlns="http://www.w3.org/2000/svg" xmlns:ev="http://www.w3.org/2001/xml-events" xmlns:xlink="http://www.w3.org/1999/xlink"><defs /><polyline fill="none" points="82.0068,13.8847 74.6305,30.3729 73.7627,36.0136 76.3661,42.9559 80.7051,45.5593 111.9458,51.2 118.0203,40.7864 119.322,35.5797 105.4373,17.7898 100.6644,9.1119 98.061,8.678 87.6475,16.4881 72.0271,9.9797" stroke="#00007f" stroke-width="2" /><polyline fill="none" points="81.5729,24.2983 77.2339,22.9966 72.8949,23.4305 59.878,30.8068 52.5017,32.5424 49.8983,36.4475 46.4271,54.6712 43.3898,62.9153 49.0305,64.6508 60.7458,63.3492 66.8203,59.4441 76.3661,39.0508" stroke="#0010ff" stroke-width="2" /><polyline fill="none" points="76.8,23.4305 70.2915,22.5627 56.4068,27.3356 43.3898,27.7695 9.9797,51.6339 8.678,53.3695 11.2814,54.2373 17.7898,52.9356 52.0678,41.2203 74.1966,26.4678" stroke="#00a4ff" stroke-width="2" /><polyline fill="none" points="21.261,50.3322 20.3932,55.9729 20.3932,65.0847 21.261,65.0847" stroke="#3fffb7" stroke-width="2" /><polyline fill="none" points="29.5051,38.6169 27.7695,52.5017 28.6373,63.7831" stroke="#b7ff3f" stroke-width="2" /><polyline fill="none" points="39.4847,44.2576 39.4847,48.5966" stroke="#ffb900" stroke-width="2" /><polyline fill="none" points="39.4847,54.2373 39.4847,60.7458" stroke="#ff3000" stroke-width="2" /><polyline fill="none" points="39.4847,61.1797 41.2203,59.0102" stroke="#7f0000" stroke-width="2" /></svg>