<?xml version="1.0" encoding="utf-8" ?>
<svg baseProfile="tiny" height="128" version="1.2" viewBox="0,0,128,128" width="128" xmlns="http://www.w3.org/2000/svg" xmlns:ev="http://www.w3.org/2001/xml-events" xmlns:xlink="http://www.w3.org/1999/xlink"><defs /><polyline fill="none" points="72.461,28.6373 65.5186,27.7695 58.1424,29.939 52.0678,29.5051" stroke="#00007f" stroke-width="2" /><polyline fill="none" points="42.9559,46.861 39.0508,49.4644 38.1831,52.0678 40.7864,62.4814 46.861,70.2915 58.5763,75.4983 65.9525,74.6305 76.8,67.6881 83.7424,57.7085 86.7797,46.861" stroke="#0000cc" stroke-width="2" /><polyline fill="none" points="86.3458,29.0712 54.6712,30.3729" stroke="#0008ff" stroke-width="2" /><polyline fill="none" points="47.2949,47.2949 47.2949,47.2949" stroke="#004cff" stroke-width="2" /><polyline fill="none" points="54.2373,52.5017 54.2373,52.5017" stroke="#0090ff" stroke-width="2" /><polyline fill="none" points="53.3695,47.7288 53.3695,47.7288" stroke="#00d4ff" stroke-width="2" /><polyline fill="none" points="56.4068,46.861 54.6712,48.5966" stroke="#29ffcd" stroke-width="2" /><polyline fill="none" points="70.7254,46.861 71.5932,49.4644" stroke="#5fff96" stroke-width="2" /><polyline fill="none" points="49.8983,60.7458 62.4814,64.6508 70.7254,62.0475" stroke="#96ff5f" stroke-width="2" /><polyline fill="none" points="52.9356,27.7695 50.3322,19.0915 50.3322,9.5458 51.6339,8.678 59.0102,12.5831 69.8576,23.8644" stroke="#cdff29" stroke-width="2" /><polyline fill="none" points="77.6678,25.6 82.4407,17.7898 91.9864,11.2814 92.8542,26.0339" stroke="#ffe500" stroke-width="2" /><polyline fill="none" points="92.8542,47.2949 92.8542,47.2949" stroke="#ffa600" stroke-width="2" /><polyline fill="none" points="39.4847,72.461 35.5797,71.1593 24.2983,70.7254 16.0542,73.3288 14.3186,75.9322 13.8847,81.139 14.7525,84.1763 19.5254,88.5153 27.3356,92.8542 35.5797,94.1559 45.5593,90.2508 54.6712,82.8746" stroke="#ff6700" stroke-width="2" /><polyline fill="none" points="45.9932,91.9864 56.8407,109.3424" stroke="#ff2800" stroke-width="2" /><polyline fill="none" points="31.6746,92.8542 28.6373,119.322" stroke="#cc0000" stroke-width="2" /><polyline fill="none" points="16.922,89.8169 13.0169,95.4576 8.678,108.0407" stroke="#7f0000" stroke-width="2" /></svg>