<?xml version="1.0" encoding="utf-8" ?>
<svg baseProfile="tiny" height="128" version="1.2" viewBox="0,0,128,128" width="128" xmlns="http://www.w3.org/2000/svg" xmlns:ev="http://www.w3.org/2001/xml-events" xmlns:xlink="http://www.w3.org/1999/xlink"><defs /><polyline fill="none" points="96.7593,48.5966 96.7593,22.9966 93.2881,12.5831 89.8169,9.1119 71.5932,41.2203 60.7458,39.9186 39.0508,40.3525 32.1085,27.3356 23.4305,15.6203 18.2237,10.4136 13.4508,8.678 8.678,35.5797 8.678,49.0305 19.5254,62.0475 33.8441,70.7254 55.539,74.6305 78.9695,75.4983 90.2508,72.461 96.3254,66.3864 97.6271,57.2746 96.3254,43.3898" stroke="#00007f" stroke-width="2" /><polyline fill="none" points="69.8576,48.5966 63.7831,48.1627 53.8034,49.4644 50.7661,55.1051 52.0678,56.8407 72.0271,58.1424 74.6305,55.539 68.122,53.3695" stroke="#00d4ff" stroke-width="2" /><polyline fill="none" points="37.3153,49.0305 36.0136,47.7288 32.9763,48.5966 28.2034,52.9356 28.6373,55.1051 34.278,56.4068 40.3525,56.8407 42.522,55.1051 41.6542,51.2 39.9186,49.4644 35.1458,47.7288 34.7119,48.5966" stroke="#ffe500" stroke-width="2" /><polyline fill="none" points="83.7424,75.4983 85.0441,73.7627 91.1186,74.1966 104.5695,79.4034 108.0407,91.9864 108.9085,103.2678 105.4373,111.078 99.7966,115.4169 91.5525,118.4542 75.0644,119.322 62.4814,115.8508 49.0305,110.6441 32.1085,100.2305 24.7322,92.4203 22.1288,87.6475 22.1288,80.7051 26.0339,74.1966 33.8441,68.122" stroke="#7f0000" stroke-width="2" /></svg>