<?xml version="1.0" encoding="utf-8" ?>
<svg baseProfile="tiny" height="128" version="1.2" viewBox="0,0,128,128" width="128" xmlns="http://www.w3.org/2000/svg" xmlns:ev="http://www.w3.org/2001/xml-events" xmlns:xlink="http://www.w3.org/1999/xlink"><defs /><polyline fill="none" points="19.9593,40.7864 18.6576,41.6542 15.6203,61.6136 15.6203,78.9695 19.0915,91.1186 22.9966,98.4949 29.5051,105.0034 42.522,112.8136 58.1424,115.4169 69.4237,114.5492 78.5356,109.7763 85.9119,102.8339 91.9864,93.722 96.7593,83.3085 100.2305,73.3288 105.8712,14.7525 87.6475,41.6542 79.8373,40.3525 47.7288,41.6542 39.9186,40.7864 38.1831,39.0508 29.0712,12.5831 27.3356,9.9797 24.7322,8.678 19.9593,46.4271" stroke="#00007f" stroke-width="2" /><polyline fill="none" points="40.7864,52.0678 42.522,52.5017 41.6542,52.9356 42.0881,55.9729 43.3898,56.4068 43.8237,55.1051 41.6542,53.8034 43.3898,54.6712" stroke="#0010ff" stroke-width="2" /><polyline fill="none" points="83.3085,58.5763 78.9695,58.1424 78.5356,60.7458 79.8373,60.7458 80.2712,59.4441 79.8373,56.8407 78.5356,56.4068 78.1017,57.7085 79.4034,58.1424 78.9695,57.2746" stroke="#00a4ff" stroke-width="2" /><polyline fill="none" points="60.3119,64.6508 50.7661,66.8203 48.1627,69.4237 48.1627,72.461 49.0305,73.7627 58.1424,73.7627 59.4441,76.3661 58.1424,86.7797 63.3492,85.0441 66.8203,81.139 68.122,72.461 70.2915,74.1966 74.1966,74.6305 78.5356,71.5932 79.8373,68.122 78.9695,65.5186 73.7627,63.3492 63.3492,62.9153" stroke="#3fffb7" stroke-width="2" /><polyline fill="none" points="80.2712,68.5559 111.078,75.9322 115.4169,78.1017 119.322,82.0068" stroke="#b7ff3f" stroke-width="2" /><polyline fill="none" points="75.0644,71.1593 98.4949,82.8746 107.6068,89.8169" stroke="#ffb900" stroke-width="2" /><polyline fill="none" points="49.8983,67.6881 44.6915,67.2542 29.0712,71.5932 13.4508,74.1966 8.678,77.2339" stroke="#ff3000" stroke-width="2" /><polyline fill="none" points="49.4644,71.5932 26.0339,78.5356 19.9593,82.4407 17.7898,86.7797" stroke="#7f0000" stroke-width="2" /></svg>