<?xml version="1.0" encoding="utf-8" ?>
<svg baseProfile="tiny" height="128" version="1.2" viewBox="0,0,128,128" width="128" xmlns="http://www.w3.org/2000/svg" xmlns:ev="http://www.w3.org/2001/xml-events" xmlns:xlink="http://www.w3.org/1999/xlink"><defs /><polyline fill="none" points="26.1224,29.1701 26.1224,26.9932 21.7687,26.5578 14.3673,29.6054 10.8844,33.5238 8.7075,39.619 8.7075,50.5034 11.3197,51.3741 23.5102,51.3741 26.5578,50.068 29.1701,44.8435 33.5238,31.7823 33.5238,27.8639" stroke="#00007f" stroke-width="2" /><polyline fill="none" points="31.7823,28.2993 38.3129,12.6259 38.7483,8.7075 27.4286,19.5918 24.8163,25.6871" stroke="#0000fe" stroke-width="2" /><polyline fill="none" points="18.7211,25.2517 16.9796,17.8503 14.3673,13.932 13.4966,29.1701" stroke="#0060ff" stroke-width="2" /><polyline fill="none" points="15.6735,35.7007 16.1088,35.7007" stroke="#00d4ff" stroke-width="2" /><polyline fill="none" points="22.2041,35.2653 22.2041,35.2653" stroke="#4cffaa" stroke-width="2" /><polyline fill="none" points="21.3333,34.8299 22.2041,34.8299" stroke="#aaff4c" stroke-width="2" /><polyline fill="none" points="15.6735,45.2789 22.6395,45.2789" stroke="#ffe500" stroke-width="2" /><polyline fill="none" points="28.7347,48.7619 31.7823,55.7279 60.517,64.4354 89.6871,65.3061 96.6531,63.1293" stroke="#ff7a00" stroke-width="2" /><polyline fill="none" points="9.1429,52.6803 10.449,60.0816 14.8027,69.6599 26.5578,76.6259 36.1361,79.2381 97.5238,79.6735 99.7007,78.3673 101.8776,74.449 101.0068,64.4354 99.2653,60.9524" stroke="#fe1200" stroke-width="2" /><polyline fill="none" points="100.1361,60.9524 108.8435,60.0816 118.8571,27.8639 119.2925,22.2041" stroke="#7f0000" stroke-width="2" /></svg>