<?xml version="1.0" encoding="utf-8" ?>
<svg baseProfile="tiny" height="128" version="1.2" viewBox="0,0,128,128" width="128" xmlns="http://www.w3.org/2000/svg" xmlns:ev="http://www.w3.org/2001/xml-events" xmlns:xlink="http://www.w3.org/1999/xlink"><defs /><polyline fill="none" points="54.6712,25.1661 49.4644,30.3729 45.9932,42.0881 41.2203,67.2542 40.3525,87.2136 49.0305,102.4 55.9729,108.0407 77.2339,108.9085 80.7051,107.6068 87.2136,103.7017 92.4203,98.061 100.6644,82.4407 103.7017,68.5559 100.6644,57.7085 94.1559,47.7288 89.3831,43.8237 47.7288,28.6373" stroke="#00007f" stroke-width="2" /><polyline fill="none" points="42.0881,48.5966 33.4102,36.0136 22.1288,22.5627 14.7525,14.7525 8.678,12.1492 30.3729,19.9593 49.0305,29.0712 54.2373,33.8441" stroke="#0000e8" stroke-width="2" /><polyline fill="none" points="66.8203,35.5797 118.4542,8.678 119.322,13.0169 117.1525,30.3729 108.4746,42.0881 100.6644,47.2949" stroke="#0038ff" stroke-width="2" /><polyline fill="none" points="61.6136,58.1424 63.3492,58.1424 63.3492,56.4068 62.0475,55.9729" stroke="#0094ff" stroke-width="2" /><polyline fill="none" points="82.0068,54.6712 82.4407,54.2373" stroke="#0cf4ea" stroke-width="2" /><polyline fill="none" points="71.5932,63.7831 65.5186,69.4237 67.6881,71.5932 72.0271,71.5932 73.7627,71.1593 76.3661,67.6881 75.0644,63.3492" stroke="#56ffa0" stroke-width="2" /><polyline fill="none" points="59.4441,65.5186 70.7254,65.9525" stroke="#a0ff56" stroke-width="2" /><polyline fill="none" points="70.7254,65.9525 54.6712,73.3288" stroke="#eaff0c" stroke-width="2" /><polyline fill="none" points="72.461,69.8576 68.122,72.461 59.4441,82.0068" stroke="#ffaa00" stroke-width="2" /><polyline fill="none" points="70.2915,69.4237 80.7051,73.7627" stroke="#ff5500" stroke-width="2" /><polyline fill="none" points="74.6305,68.122 85.9119,68.122 98.9288,75.0644" stroke="#e80000" stroke-width="2" /><polyline fill="none" points="51.2,95.0237 51.2,95.0237" stroke="#7f0000" stroke-width="2" /></svg>