<?xml version="1.0" encoding="utf-8" ?>
<svg baseProfile="tiny" height="128" version="1.2" viewBox="0,0,128,128" width="128" xmlns="http://www.w3.org/2000/svg" xmlns:ev="http://www.w3.org/2001/xml-events" xmlns:xlink="http://www.w3.org/1999/xlink"><defs /><polyline fill="none" points="73.3925,20.5324 50.6758,24.901 46.3072,26.6485 35.8225,40.628 35.8225,48.9283 38.8805,53.7338 55.9181,58.5392 67.7133,58.5392 79.5085,55.9181 88.2457,51.5495 92.1775,48.0546 93.4881,40.628 92.1775,38.0068 83.4403,27.5222 78.198,23.5904 68.1502,20.9693 57.6655,24.4642" stroke="#00007f" stroke-width="2" /><polyline fill="none" points="40.1911,35.3857 10.0478,33.2014 8.7372,34.5119 13.9795,37.1331 28.3959,36.6962 35.8225,34.9488 38.0068,35.8225" stroke="#0080ff" stroke-width="2" /><polyline fill="none" points="85.1877,28.8328 103.5358,21.843 113.1468,25.7747 119.2628,32.3276 118.8259,34.9488 114.4573,36.6962 88.6826,37.57" stroke="#7cff79" stroke-width="2" /><polyline fill="none" points="107.9044,21.4061 112.273,16.1638 117.5154,13.5427 117.5154,9.6109 115.7679,8.7372 113.1468,10.0478 103.099,25.3379" stroke="#ff9400" stroke-width="2" /><polyline fill="none" points="110.5256,31.0171 108.7782,31.4539 110.5256,31.4539" stroke="#7f0000" stroke-width="2" /></svg>