<?xml version="1.0" encoding="utf-8" ?>
<svg baseProfile="tiny" height="128" version="1.2" viewBox="0,0,128,128" width="128" xmlns="http://www.w3.org/2000/svg" xmlns:ev="http://www.w3.org/2001/xml-events" xmlns:xlink="http://www.w3.org/1999/xlink"><defs /><polyline fill="none" points="12.5831,44.6915 13.4508,70.2915 14.7525,79.8373 19.9593,91.5525 26.9017,102.4 36.4475,112.8136 46.4271,117.1525 59.878,119.322 70.7254,119.322 76.3661,118.0203 82.8746,110.2102 95.0237,90.6847 97.1932,78.5356 97.1932,63.3492 95.8915,53.3695 86.7797,47.7288 45.9932,39.9186 39.9186,39.9186 25.6,43.3898 8.678,43.8237 11.2814,45.9932" stroke="#00007f" stroke-width="2" /><polyline fill="none" points="22.5627,40.3525 19.5254,41.6542 12.1492,26.0339 8.678,9.5458 11.7153,9.1119 19.0915,16.0542 39.4847,51.6339 41.2203,53.8034 41.6542,50.3322" stroke="#004cff" stroke-width="2" /><polyline fill="none" points="65.0847,42.522 82.0068,27.7695 107.6068,8.678 108.0407,20.8271 102.8339,49.0305 99.7966,49.0305" stroke="#29ffcd" stroke-width="2" /><polyline fill="none" points="46.4271,93.722 46.861,98.9288 49.4644,99.7966 51.6339,97.1932 52.5017,95.0237 49.0305,95.0237" stroke="#cdff29" stroke-width="2" /><polyline fill="none" points="47.7288,93.722 34.278,96.7593" stroke="#ff6700" stroke-width="2" /><polyline fill="none" points="48.5966,96.3254 45.5593,99.3627 39.9186,101.9661 29.0712,105.0034" stroke="#7f0000" stroke-width="2" /></svg>