<?xml version="1.0" encoding="utf-8" ?>
<svg baseProfile="tiny" height="128" version="1.2" viewBox="0,0,128,128" width="128" xmlns="http://www.w3.org/2000/svg" xmlns:ev="http://www.w3.org/2001/xml-events" xmlns:xlink="http://www.w3.org/1999/xlink"><defs /><polyline fill="none" points="55.539,112.8136 52.0678,114.9831 45.9932,116.2847 35.5797,115.8508 28.2034,113.6814 20.3932,108.0407 13.8847,98.4949 10.8475,91.1186 8.678,78.1017 10.8475,64.2169 16.4881,44.2576 25.6,34.7119 35.1458,30.3729 40.3525,29.5051 46.861,30.3729 51.6339,32.5424 68.122,47.2949 73.3288,59.0102 76.3661,88.9492 74.1966,97.1932 70.2915,104.1356 52.5017,119.322" stroke="#00007f" stroke-width="2" /><polyline fill="none" points="20.3932,43.3898 16.922,8.678 22.5627,15.1864 31.2407,36.4475" stroke="#0028ff" stroke-width="2" /><polyline fill="none" points="54.6712,31.6746 57.7085,25.6 66.3864,16.922 72.8949,13.0169 72.8949,17.7898 67.2542,36.0136" stroke="#00d4ff" stroke-width="2" /><polyline fill="none" points="32.5424,79.8373 47.2949,81.139 47.2949,86.3458 45.1254,89.8169 41.2203,88.0814 41.6542,84.6102" stroke="#7cff79" stroke-width="2" /><polyline fill="none" points="30.3729,97.6271 45.9932,105.0034 49.4644,104.5695 52.9356,100.2305" stroke="#ffe500" stroke-width="2" /><polyline fill="none" points="33.8441,57.7085 33.8441,57.7085" stroke="#ff4600" stroke-width="2" /><polyline fill="none" points="55.1051,60.7458 55.1051,60.7458" stroke="#7f0000" stroke-width="2" /></svg>