<?xml version="1.0" encoding="utf-8" ?>
<svg baseProfile="tiny" height="128" version="1.2" viewBox="0,0,128,128" width="128" xmlns="http://www.w3.org/2000/svg" xmlns:ev="http://www.w3.org/2001/xml-events" xmlns:xlink="http://www.w3.org/1999/xlink"><defs /><polyline fill="none" points="57.7085,33.8441 51.6339,33.4102 45.1254,35.1458 30.3729,44.2576 17.7898,54.2373 10.8475,63.3492 9.5458,67.6881 8.678,85.9119 11.7153,91.1186 22.1288,98.9288 28.6373,101.9661 45.9932,107.1729 62.9153,107.1729 79.8373,96.7593 90.6847,79.4034 92.8542,71.1593 91.9864,61.6136 83.7424,47.7288 78.5356,42.9559 62.9153,35.5797 58.1424,35.1458" stroke="#00007f" stroke-width="2" /><polyline fill="none" points="19.0915,49.4644 16.922,48.5966 17.3559,35.5797 22.9966,15.6203 26.4678,8.678 36.4475,19.5254 42.9559,37.7492" stroke="#0010ff" stroke-width="2" /><polyline fill="none" points="64.6508,42.522 70.7254,34.7119 91.9864,16.0542 85.478,27.7695 82.0068,47.7288" stroke="#00a4ff" stroke-width="2" /><polyline fill="none" points="49.0305,62.9153 40.7864,63.7831 38.1831,66.3864 39.0508,70.2915 45.9932,76.8 49.8983,75.4983 54.2373,70.7254 54.2373,65.9525 49.4644,62.9153" stroke="#3fffb7" stroke-width="2" /><polyline fill="none" points="44.6915,78.5356 43.3898,85.478 39.9186,92.4203 32.1085,93.722 29.939,92.4203 29.0712,88.0814" stroke="#b7ff3f" stroke-width="2" /><polyline fill="none" points="45.1254,76.8 44.2576,78.9695 45.5593,82.0068 49.4644,86.7797 52.0678,88.0814 59.0102,87.2136 63.3492,79.4034" stroke="#ffb900" stroke-width="2" /><polyline fill="none" points="66.8203,70.7254 70.7254,67.6881 98.061,57.2746 119.322,51.2" stroke="#ff3000" stroke-width="2" /><polyline fill="none" points="57.2746,78.1017 68.122,74.6305" stroke="#7f0000" stroke-width="2" /></svg>