<?xml version="1.0" encoding="utf-8" ?>
<svg baseProfile="tiny" height="128" version="1.2" viewBox="0,0,128,128" width="128" xmlns="http://www.w3.org/2000/svg" xmlns:ev="http://www.w3.org/2001/xml-events" xmlns:xlink="http://www.w3.org/1999/xlink"><defs /><polyline fill="none" points="60.3119,39.0508 55.9729,35.1458" stroke="#00007f" stroke-width="2" /><polyline fill="none" points="53.3695,32.5424 39.4847,33.8441 34.7119,36.4475 29.0712,42.9559 26.9017,49.0305 26.9017,63.3492 30.3729,69.4237 33.4102,70.2915" stroke="#0000d5" stroke-width="2" /><polyline fill="none" points="81.139,32.5424 82.4407,30.3729 101.0983,30.8068 103.2678,31.6746 105.8712,39.0508 105.0034,47.7288 101.5322,52.5017 94.5898,60.7458 88.0814,65.0847" stroke="#001cff" stroke-width="2" /><polyline fill="none" points="29.939,46.4271 16.4881,47.2949 10.4136,49.8983" stroke="#006cff" stroke-width="2" /><polyline fill="none" points="35.5797,52.5017 19.5254,57.7085 12.5831,62.4814 8.678,72.461" stroke="#00b8ff" stroke-width="2" /><polyline fill="none" points="45.9932,57.7085 37.3153,62.9153 22.5627,78.1017 17.7898,85.478 15.6203,91.1186 15.6203,95.4576" stroke="#1cffda" stroke-width="2" /><polyline fill="none" points="89.3831,50.3322 111.5119,48.5966 119.322,52.0678" stroke="#5cff9a" stroke-width="2" /><polyline fill="none" points="88.0814,55.9729 106.3051,59.0102 111.9458,61.6136 114.1153,65.0847" stroke="#9aff5c" stroke-width="2" /><polyline fill="none" points="84.1763,64.6508 92.4203,66.3864 100.2305,71.1593 105.8712,77.2339 108.9085,83.7424" stroke="#daff1c" stroke-width="2" /><polyline fill="none" points="64.2169,46.861 62.0475,49.4644 60.7458,55.1051 63.3492,57.7085 68.122,58.1424 70.2915,54.6712 70.2915,52.5017 65.0847,51.6339 64.2169,54.6712 67.2542,55.539 66.3864,52.0678 63.7831,52.0678 64.2169,55.539" stroke="#ffcb00" stroke-width="2" /><polyline fill="none" points="64.2169,58.1424 63.3492,63.3492 62.0475,65.5186 58.5763,66.8203 49.8983,67.2542 45.5593,64.2169" stroke="#ff8500" stroke-width="2" /><polyline fill="none" points="64.6508,60.7458 66.8203,65.5186 73.7627,69.4237 79.8373,69.8576 86.3458,66.8203" stroke="#ff3b00" stroke-width="2" /><polyline fill="none" points="45.5593,33.8441 44.2576,31.2407 44.2576,22.9966 45.1254,19.9593 49.8983,13.8847 66.8203,9.1119 85.0441,8.678 91.9864,17.3559 93.2881,35.5797" stroke="#d50000" stroke-width="2" /><polyline fill="none" points="55.539,36.0136 53.8034,34.278 53.8034,26.4678 55.1051,23.4305 60.3119,23.8644 62.9153,27.7695 63.7831,34.278 62.4814,28.2034 60.7458,26.4678 55.539,25.6 54.2373,35.5797 56.8407,37.3153 57.7085,35.1458 58.5763,26.9017 57.7085,29.0712" stroke="#7f0000" stroke-width="2" /></svg>