<?xml version="1.0" encoding="utf-8" ?>
<svg baseProfile="tiny" height="128" version="1.2" viewBox="0,0,128,128" width="128" xmlns="http://www.w3.org/2000/svg" xmlns:ev="http://www.w3.org/2001/xml-events" xmlns:xlink="http://www.w3.org/1999/xlink"><defs /><polyline fill="none" points="53.8034,26.9017 54.6712,22.9966 47.2949,20.3932 38.6169,20.3932 28.6373,23.4305 16.0542,33.4102 11.2814,42.522 10.8475,48.5966 13.0169,53.3695 20.8271,61.1797 31.6746,65.9525 46.4271,67.6881 59.4441,62.9153 64.2169,59.4441 68.5559,52.9356 70.7254,46.4271 70.2915,40.7864 66.3864,34.278 52.9356,22.5627" stroke="#00007f" stroke-width="2" /><polyline fill="none" points="36.0136,67.2542 32.5424,66.8203 27.3356,69.8576 20.8271,79.4034 19.9593,91.5525 22.9966,100.2305 29.5051,106.739 36.8814,110.6441 50.7661,111.078 59.0102,109.3424 65.5186,105.4373 71.5932,97.6271 74.1966,88.9492 74.1966,80.2712 71.5932,72.461 67.2542,67.2542 53.3695,61.6136" stroke="#0000de" stroke-width="2" /><polyline fill="none" points="65.5186,103.7017 75.9322,119.322" stroke="#0028ff" stroke-width="2" /><polyline fill="none" points="25.6,104.1356 8.678,117.5864" stroke="#0080ff" stroke-width="2" /><polyline fill="none" points="70.7254,69.8576 56.4068,81.5729 50.7661,89.8169 51.2,95.8915 55.539,96.3254 64.6508,91.9864 77.2339,79.4034" stroke="#00d4ff" stroke-width="2" /><polyline fill="none" points="19.5254,80.2712 23.8644,78.5356 30.8068,78.9695 36.8814,82.4407 42.0881,89.3831 42.0881,95.4576 39.0508,97.1932 33.4102,97.6271 27.3356,93.722 20.8271,85.0441 21.261,83.3085" stroke="#36ffc0" stroke-width="2" /><polyline fill="none" points="37.7492,95.0237 38.6169,92.8542 40.3525,93.2881 39.9186,94.5898 37.7492,95.4576 37.7492,94.1559 40.3525,91.9864 40.3525,94.1559" stroke="#7cff79" stroke-width="2" /><polyline fill="none" points="19.9593,29.5051 16.922,8.678 36.4475,23.8644" stroke="#c0ff36" stroke-width="2" /><polyline fill="none" points="58.5763,24.2983 70.2915,16.0542 75.4983,15.6203 76.8,16.922 76.3661,20.3932 64.2169,38.1831" stroke="#ffe500" stroke-width="2" /><polyline fill="none" points="48.5966,43.8237 42.522,42.9559 37.3153,45.1254 33.8441,51.6339 34.7119,53.3695 39.4847,54.6712 45.1254,53.8034 48.1627,50.7661 48.5966,46.861 45.9932,44.6915" stroke="#ff9400" stroke-width="2" /><polyline fill="none" points="50.7661,47.2949 65.5186,49.4644" stroke="#ff4600" stroke-width="2" /><polyline fill="none" points="55.1051,52.0678 66.8203,53.8034" stroke="#de0000" stroke-width="2" /><polyline fill="none" points="31.6746,48.5966 18.6576,51.2" stroke="#7f0000" stroke-width="2" /></svg>