<?xml version="1.0" standalone="no"?>
<!DOCTYPE svg PUBLIC "-//W3C//DTD SVG 20010904//EN"
 "http://www.w3.org/TR/2001/REC-SVG-20010904/DTD/svg10.dtd">
<svg version="1.0" xmlns="http://www.w3.org/2000/svg"
 width="128.000000pt" height="128.000000pt" viewBox="0 0 128.000000 128.000000"
 preserveAspectRatio="xMidYMid meet">
<metadata>
Created by potrace 1.16, written by Peter Selinger 2001-2019
</metadata>
<g fill-opacity="0.5"><g transform="translate(0.000000,128.000000) scale(0.100000,-0.100000)"
fill="#00007f" stroke="none">
<path d="M244 1163 c-26 -62 -27 -111 -1 -253 25 -141 23 -160 -17 -160 -8 0
-18 -4 -21 -10 -4 -6 6 -10 23 -10 24 0 31 -5 36 -25 4 -14 4 -31 0 -36 -3 -6
2 -17 12 -25 14 -11 15 -17 7 -20 -23 -10 -13 -26 12 -21 21 3 31 -3 51 -29
26 -33 92 -79 102 -70 7 7 -90 95 -105 96 -7 0 -13 5 -13 12 0 6 -8 20 -17 30
-15 17 -15 20 -3 28 13 8 12 10 -2 10 -21 0 -23 11 -6 28 9 9 9 17 0 34 -6 13
-23 87 -36 165 -25 143 -25 228 2 255 16 16 97 -47 133 -104 24 -37 36 -47 48
-42 9 4 65 10 126 12 87 3 120 0 163 -15 l54 -18 27 35 c36 48 94 101 106 97
6 -2 13 -44 16 -93 4 -49 10 -101 14 -116 10 -40 29 -36 21 5 -4 17 -9 64 -12
102 -8 118 -13 135 -34 135 -10 0 -22 -4 -25 -10 -3 -5 -14 -10 -23 -10 -9 0
-23 -12 -30 -27 -7 -16 -25 -43 -40 -61 l-28 -33 -53 21 c-46 18 -66 20 -145
14 -50 -3 -103 -9 -118 -14 -26 -8 -30 -5 -54 36 -23 39 -122 124 -145 124 -5
0 -16 -17 -25 -37z"/>
<path d="M969 818 c-1 -40 -13 -105 -20 -120 -7 -13 -6 -18 5 -18 15 0 26 21
26 48 0 9 7 29 14 45 8 15 11 27 5 27 -5 0 -9 7 -9 15 0 18 -20 20 -21 3z"/>
<path d="M85 731 c-10 -17 10 -20 35 -5 l25 13 -27 1 c-15 0 -29 -4 -33 -9z"/>
<path d="M900 609 c-7 -11 -9 -24 -5 -27 7 -7 35 25 35 40 0 16 -19 8 -30 -13z"/>
<path d="M820 536 c-6 -8 -41 -25 -77 -37 -53 -17 -82 -21 -154 -17 -89 4
-119 -5 -54 -18 37 -7 167 0 224 12 33 7 91 49 91 66 0 13 -16 9 -30 -6z"/>
</g>
<g transform="translate(0.000000,128.000000) scale(0.100000,-0.100000)"
fill="#0000fe" stroke="none">
<path d="M570 766 c0 -16 -7 -27 -20 -31 -11 -3 -20 -13 -20 -20 0 -9 6 -12
15 -9 10 4 15 0 15 -15 0 -12 7 -24 15 -27 11 -5 13 -10 5 -19 -14 -16 -1 -26
20 -15 10 5 20 6 24 3 3 -3 6 -1 6 5 0 7 7 12 15 12 8 0 15 6 15 14 0 8 2 20
5 28 3 7 -8 20 -25 30 -21 12 -30 25 -30 43 0 18 -5 25 -20 25 -15 0 -20 -7
-20 -24z m60 -71 c0 -9 -10 -15 -25 -15 -26 0 -29 7 -19 34 7 19 44 3 44 -19z"/>
</g>
<g transform="translate(0.000000,128.000000) scale(0.100000,-0.100000)"
fill="#0060ff" stroke="none">
<path d="M470 621 l-25 -7 34 -18 c30 -16 40 -17 68 -7 18 7 37 9 43 6 5 -3
10 2 10 12 0 20 -35 29 -45 12 -8 -12 -45 -12 -45 1 0 11 -4 11 -40 1z"/>
</g>
<g transform="translate(0.000000,128.000000) scale(0.100000,-0.100000)"
fill="#00d4ff" stroke="none">
<path d="M606 628 c-12 -27 0 -48 28 -48 28 0 96 29 96 41 0 19 -22 18 -42 0
-30 -28 -65 -27 -71 2 -3 19 -4 20 -11 5z"/>
</g>
<g transform="translate(0.000000,128.000000) scale(0.100000,-0.100000)"
fill="#4cffaa" stroke="none">
<path d="M1053 817 c-23 -5 -44 -16 -47 -24 -4 -10 -1 -13 12 -9 9 3 38 10 65
17 26 6 50 15 53 20 7 11 -28 10 -83 -4z"/>
<path d="M722 730 c-35 -10 -73 -15 -83 -13 -18 5 -19 3 -8 -21 14 -30 24 -33
33 -10 4 11 13 14 27 11 12 -3 27 0 35 7 7 7 31 16 53 20 23 3 41 11 41 16 0
13 -23 11 -98 -10z"/>
</g>
<g transform="translate(0.000000,128.000000) scale(0.100000,-0.100000)"
fill="#aaff4c" stroke="none">
<path d="M820 841 c-47 -10 -99 -25 -116 -33 -38 -21 -59 -44 -45 -52 5 -4 12
-2 16 4 15 24 87 49 188 65 59 10 107 22 107 26 0 13 -53 9 -150 -10z"/>
</g>
<g transform="translate(0.000000,128.000000) scale(0.100000,-0.100000)"
fill="#ffe500" stroke="none">
<path d="M722 699 c2 -7 44 -22 94 -34 91 -22 96 -26 79 -67 -11 -29 14 -21
27 7 10 22 16 25 42 19 17 -3 43 -13 58 -20 35 -18 58 -18 58 1 0 8 -7 15 -16
15 -18 0 -95 40 -106 55 -5 6 -11 5 -16 -3 -7 -10 -27 -8 -98 8 -49 11 -97 23
-108 26 -12 4 -17 2 -14 -7z"/>
</g>
<g transform="translate(0.000000,128.000000) scale(0.100000,-0.100000)"
fill="#ff7a00" stroke="none">
<path d="M107 741 c-34 -13 -22 -26 23 -23 73 4 120 13 120 23 0 11 -116 11
-143 0z"/>
<path d="M305 740 c3 -5 19 -10 35 -10 16 0 32 5 35 10 4 6 -10 10 -35 10 -25
0 -39 -4 -35 -10z"/>
</g>
<g transform="translate(0.000000,128.000000) scale(0.100000,-0.100000)"
fill="#fe1200" stroke="none">
<path d="M515 719 c-22 -10 -50 -19 -62 -19 -27 0 -31 -20 -5 -21 10 0 12 -3
4 -6 -6 -2 -10 -9 -6 -14 6 -10 60 15 66 29 1 5 13 13 26 16 17 6 22 3 22 -10
0 -13 3 -15 11 -7 11 11 4 54 -9 52 -4 0 -25 -9 -47 -20z"/>
<path d="M280 678 c0 -4 -14 -11 -32 -16 -18 -4 -32 -15 -34 -25 -3 -21 12
-22 33 -1 9 8 22 13 30 10 8 -3 24 1 36 9 12 8 33 15 47 15 14 0 32 5 40 10
11 8 -4 10 -52 8 -38 -1 -68 -6 -68 -10z"/>
</g>
<g transform="translate(0.000000,128.000000) scale(0.100000,-0.100000)"
fill="#7f0000" stroke="none">
<path d="M271 673 c-11 -12 -10 -17 5 -28 17 -13 17 -16 4 -25 -8 -6 -27 -8
-42 -6 -23 5 -28 2 -28 -15 0 -16 5 -19 20 -15 11 3 30 9 42 12 13 4 35 7 50
6 16 0 28 3 28 8 0 4 9 10 21 13 12 3 18 10 15 16 -5 7 -15 7 -33 0 -21 -8
-30 -6 -42 6 -13 13 -14 17 -3 24 11 6 9 9 -5 13 -10 3 -25 -1 -32 -9z"/>
</g>
</g></svg>
